<?xml version="1.0" encoding="UTF-8"?>
<svg width="34px" height="35px" viewBox="0 0 34 35" version="1.1" xmlns="http://www.w3.org/2000/svg" xmlns:xlink="http://www.w3.org/1999/xlink">
    <!-- Generator: Sketch 42 (36781) - http://www.bohemiancoding.com/sketch -->
    <title>Shape</title>
    <desc>Created with Sketch.</desc>
    <defs></defs>
    <g id="Page-1" stroke="none" stroke-width="1" fill="none" fill-rule="evenodd">
        <g id="sticky_menu" transform="translate(-2170.000000, -72.000000)" fill-rule="nonzero" fill="#000000">
            <g id="Group">
                <g id="Group-10">
                    <path d="M2178.22256,89.0227273 C2177.60199,88.3863636 2177.60199,87.4318182 2178.22256,86.7954545 C2178.84313,86.1590909 2179.77399,86.1590909 2180.39456,86.7954545 L2185.51427,92.0454545 L2185.51427,73.5909091 C2185.51427,72.6363636 2186.13484,72 2187.06569,72 C2187.99655,72 2188.61712,72.6363636 2188.61712,73.5909091 L2188.61712,92.0454545 L2193.73683,86.7954545 C2194.3574,86.1590909 2195.28825,86.1590909 2195.90882,86.7954545 C2196.52939,87.4318182 2196.52939,88.3863636 2195.90882,89.0227273 L2188.15169,96.9772727 C2187.84141,97.2954545 2187.37598,97.4545455 2187.06569,97.4545455 C2186.75541,97.4545455 2186.28998,97.2954545 2185.97969,96.9772727 L2178.22256,89.0227273 Z M2202.57996,94.2727273 C2201.6491,94.2727273 2201.02853,94.9090909 2201.02853,95.8636364 L2201.02853,102.227273 C2201.02853,103.181818 2200.40796,103.818182 2199.4771,103.818182 L2174.65428,103.818182 C2173.72342,103.818182 2173.10285,103.181818 2173.10285,102.227273 L2173.10285,95.8636364 C2173.10285,94.9090909 2172.48228,94.2727273 2171.55143,94.2727273 C2170.62057,94.2727273 2170,94.9090909 2170,95.8636364 L2170,102.227273 C2170,102.863636 2170.15514,103.5 2170.31029,104.136364 C2170.62057,104.772727 2170.93086,105.25 2171.24114,105.727273 C2171.70657,106.204545 2172.172,106.522727 2172.79257,106.681818 C2173.41314,107 2174.03371,107 2174.65428,107 L2199.4771,107 C2200.09767,107 2200.71825,106.840909 2201.33882,106.681818 C2201.95939,106.363636 2202.42481,106.045455 2202.7351,105.727273 C2203.20053,105.25 2203.51081,104.772727 2203.66596,104.136364 C2203.97624,103.5 2203.97624,102.863636 2203.97624,102.227273 L2203.97624,95.8636364 C2204.13138,94.9090909 2203.51081,94.2727273 2202.57996,94.2727273 Z" id="Shape"></path>
                </g>
            </g>
        </g>
    </g>
</svg>