<svg id="Capa_1" data-name="Capa 1" xmlns="http://www.w3.org/2000/svg" width="13" height="14" viewBox="0 0 13 14"><title>zip</title><path d="M11.73,5.07h-.32V3.48a.21.21,0,0,0-.07-.17L8.73.33h0l-.05,0h0l-.05,0H2.12a.54.54,0,0,0-.53.54v4.3H1.27a.76.76,0,0,0-.76.76V9.78a.76.76,0,0,0,.76.76h.32v2.69a.54.54,0,0,0,.53.54h8.76a.54.54,0,0,0,.53-.54V10.54h.32a.76.76,0,0,0,.76-.76V5.83A.76.76,0,0,0,11.73,5.07ZM2.12.77H8.27V3.48a.27.27,0,0,0,.26.27h2.35V5.07H2.12Zm5.59,5v4h-.9v-4Zm-4.36.74V5.75H6.22v.52L4.37,9V9H6.25v.75H3.17V9.23L5.06,6.52v0Zm7.53,6.6H2.12V10.54h8.76v2.55ZM11,7.9a1.84,1.84,0,0,1-1.29.42l-.3,0V9.72H8.49V5.81A6.85,6.85,0,0,1,9.7,5.72,1.9,1.9,0,0,1,10.91,6a1.17,1.17,0,0,1,.42.92A1.24,1.24,0,0,1,11,7.9Z"/><path d="M9.75,6.4a1.28,1.28,0,0,0-.37,0V7.61l.3,0c.47,0,.77-.24.77-.65S10.19,6.4,9.75,6.4Z"/></svg>