<svg xmlns="http://www.w3.org/2000/svg" width="35" height="31" viewBox="0 0 35 31">
    <path fill="#000000" fill-rule="nonzero" d="M30.227 12.4h-3.182V4.65c0-2.635-2.068-4.65-4.772-4.65h-9.546c-2.704 0-4.772 2.015-4.772 4.65v7.75H4.773C2.068 12.4 0 14.415 0 17.05v6.2c0 2.635 2.068 4.65 4.773 4.65h3.5c.636 1.86 2.386 3.1 4.454 3.1h9.546c2.068 0 3.818-1.24 4.454-3.1h3.5c2.705 0 4.773-2.015 4.773-4.65v-6.2c0-2.635-2.068-4.65-4.773-4.65zm-19.09-7.75c0-.93.636-1.55 1.59-1.55h9.546c.954 0 1.59.62 1.59 1.55v7.75H11.137V4.65zM22.272 27.9h-9.546c-.954 0-1.59-.62-1.59-1.55s.636-1.55 1.59-1.55h9.546c.954 0 1.59.62 1.59 1.55s-.636 1.55-1.59 1.55zm9.545-4.65c0 .93-.636 1.55-1.59 1.55h-3.5c-.637-1.86-2.387-3.1-4.455-3.1h-9.546c-2.068 0-3.818 1.24-4.454 3.1h-3.5c-.955 0-1.591-.62-1.591-1.55v-6.2c0-.93.636-1.55 1.59-1.55h25.455c.955 0 1.591.62 1.591 1.55v6.2z"/>
</svg>
