<?xml version="1.0" encoding="utf-8"?>
<!-- Generator: Adobe Illustrator 18.0.0, SVG Export Plug-In . SVG Version: 6.00 Build 0)  -->
<!DOCTYPE svg PUBLIC "-//W3C//DTD SVG 1.1//EN" "http://www.w3.org/Graphics/SVG/1.1/DTD/svg11.dtd">
<svg version="1.1" id="Layer_1" xmlns="http://www.w3.org/2000/svg" xmlns:xlink="http://www.w3.org/1999/xlink" x="0px" y="0px"
	 viewBox="0 0 134.4 49.8" enable-background="new 0 0 134.4 49.8" xml:space="preserve">
<path fill-rule="evenodd" clip-rule="evenodd" fill="#0077BE" d="M130.3,8.3c2.2,0,4.1-1.8,4.1-4.1c0-2.2-1.8-4.1-4.1-4.1
	c-2.2,0-4.1,1.8-4.1,4.1C126.3,6.5,128.1,8.3,130.3,8.3L130.3,8.3z M126.9,4.2c0-1.9,1.6-3.5,3.5-3.5c1.9,0,3.5,1.6,3.5,3.5
	c0,1.9-1.6,3.5-3.5,3.5C128.4,7.7,126.9,6.1,126.9,4.2L126.9,4.2z M128.8,6.3h0.8V4.5h0.9l0.7,1.7h0.9l-0.8-1.9
	c0.3-0.1,0.7-0.3,0.7-1.1c0-1.2-0.9-1.4-1.7-1.4h-1.4V6.3L128.8,6.3z M129.6,2.7h0.9c0.5,0,0.7,0.2,0.7,0.6s-0.3,0.6-0.7,0.6h-0.9
	V2.7L129.6,2.7z M0,6L0,6l0-4.8h4.8V6V6v30.3l0,0.1v4.7H0v-4.8l0-0.1V6L0,6z M48.9,26.6c0.1,7.3,4.6,13.1,10.1,13
	c5.5-0.1,9.8-6.1,9.7-13.3c-0.1-7.3-4.6-13.1-10.1-13C53.1,13.4,48.8,19.3,48.9,26.6L48.9,26.6z M88.7,17.8c0.1,0.3-0.2-0.4-0.2-0.4
	L88.7,17.8L88.7,17.8z M92,47.9c0.2-0.4,0.5-0.9,0.9-1.7L92,47.9L92,47.9z M92.3,15.3c0.1,0.2,0.1,0.3,0.2,0.5l1.6,4L92.3,15.3
	L92.3,15.3z M72.1,35.3c3,2.7,5.6,4.1,9.1,4.1c3.5,0,6.6-1.7,6.6-5c0-2.8-2.4-4.4-6.8-6.2c-3.7-1.6-6.4-2.7-7.9-5
	c0.2,1,0.3,2,0.3,3.1c0,8.9-6.5,16.1-14.5,16.1c-8,0-14.5-7.2-14.5-16.1c0-5.4,2.4-10.1,6-13.1h-9.8v23.1l0,0.1v4.8h-4.3v-4.6
	c0-0.1,0-0.2,0-0.2V13.2h-3.8v-2.9h3.9c0.5-5.9,4.1-9.2,9.2-9.2c3.3,0,5.1,0.3,6.1,0.8v4c0,0.3,0,0.5,0,0.5c0,0-0.2,0-0.2,0
	c-1.6-1.5-3.1-2.5-6.7-2.5c-2.9,0-4.8,2.3-4.1,6.4h16.3c0.7-0.1,1.4-0.2,2.1-0.2c5.8,0,10.8,3.8,13.1,9.3c0-0.3,0-0.6,0-1
	c0-5.7,5.6-8.2,11.3-8.2c0.2,0,0.4,0,0.6,0c2,0,4.9,0.6,6.7,1.1l1.6,3.9l1.8,4.5L99,31.7l0.6,1.9l0.6-1.9l6.2-15.3
	c1.1-4.2,5.7-6,10.6-6c2.5,0,4.3,0.3,6.5,1.1v4.6c-2.7-2-4.6-3.1-7.7-3.1c-2.7,0-5.9,1.2-5.9,5.2c-0.1,3,1.7,3.5,7,6.1
	c4.3,1.9,8.3,3.9,8.3,8.7c0,8-7.9,9.4-11.7,9.4c-3.4,0-6.6-0.8-8.3-2.3v-5.3l0.3,0.2c3.1,2.9,5.9,4.4,9.4,4.4c3.5,0,6.6-1.7,6.6-5
	c0-2.8-2.4-4.4-6.8-6.2c-4.2-1.8-6.9-3-8-6c-1.7,4.1-9.6,23.4-11.5,27.5H91l1-1.9l0.9-1.7l0-0.1c1.1-2.1,2.6-5.4,4-8.6l-8.2-19.8
	c-0.1-0.1-0.2-0.4-0.5-1c-0.6-1.4-1.2-2.8-3-3.4c-0.9-0.3-2-0.5-3.1-0.5c-2.7,0-6.1,1.2-6.1,5.2c-0.1,3,1.9,3.5,7.2,6.1
	c4.3,1.9,8.3,3.9,8.3,8.7c0,8-7.9,9.4-11.7,9.4c-3,0-5.9-0.7-7.7-1.8V35.3L72.1,35.3z M13.8,10.6l0.1,3.5l0,0.2l0,0
	c0.1-0.1,0.1-0.3,0.2-0.4c1.8-1.9,4-3.8,9.3-3.8c5.1,0,8.3,4.3,8.5,7l0,19.1l0,0.1v4.8h-4.3v-5.7l0-16.3c0-3.4-3-5.8-6.6-5.8
	c-3,0-6.9,2.7-7,5.5v17.5l0,0.1v4.7H9.6l0-4.8l0-21.7l0-4h0.8h2.4H13.8L13.8,10.6z"/>
<g display="none">
	<path display="inline" fill="#706F6F" d="M0,54c1.4-0.2,3.3-0.4,5.8-0.4c2.8,0,4.8,0.6,6.2,1.7c1.2,1,2,2.7,2,4.6
		c0,2-0.6,3.6-1.8,4.7c-1.5,1.5-3.9,2.2-6.6,2.2c-0.7,0-1.4,0-1.9-0.1v7.9H0V54z M3.8,63.7c0.5,0.1,1.1,0.2,1.9,0.2
		c2.9,0,4.6-1.4,4.6-3.8c0-2.3-1.6-3.6-4.2-3.6c-1.1,0-1.8,0.1-2.2,0.2V63.7z"/>
	<path display="inline" fill="#706F6F" d="M30,70.1c0,1.8,0.1,3.3,0.1,4.5h-3.3l-0.2-2.3h-0.1c-0.7,1.1-2.1,2.6-4.8,2.6
		c-2.8,0-5.3-1.6-5.3-6.6v-8.9h3.8v8.2c0,2.5,0.8,4.1,2.8,4.1c1.5,0,2.5-1.1,2.9-2c0.1-0.3,0.2-0.7,0.2-1.2v-9.1H30V70.1z"/>
	<path display="inline" fill="#706F6F" d="M33.2,74.6c0.1-1,0.1-2.7,0.1-4.2V52.6h3.8v9h0.1c0.9-1.5,2.6-2.4,4.8-2.4
		c3.7,0,6.3,3.1,6.3,7.7c0,5.4-3.4,8.1-6.9,8.1c-2,0-3.7-0.7-4.8-2.6h-0.1l-0.2,2.3H33.2z M37.1,68.4c0,0.3,0,0.6,0.1,0.9
		c0.4,1.5,1.7,2.7,3.4,2.7c2.4,0,3.8-1.9,3.8-5c0-2.7-1.3-4.8-3.8-4.8c-1.6,0-2.9,1.1-3.4,2.8c-0.1,0.3-0.1,0.6-0.1,1V68.4z"/>
	<path display="inline" fill="#706F6F" d="M50.7,52.6h3.8v22h-3.8V52.6z"/>
	<path display="inline" fill="#706F6F" d="M62,55.3c0,1.1-0.8,2-2.2,2c-1.3,0-2.1-0.9-2.1-2c0-1.2,0.9-2.1,2.1-2.1
		C61.2,53.2,62,54.1,62,55.3z M57.9,74.6V59.5h3.8v15.1H57.9z"/>
	<path display="inline" fill="#706F6F" d="M76.2,74.1c-0.8,0.4-2.4,0.8-4.3,0.8c-4.7,0-7.8-3-7.8-7.7c0-4.5,3.1-8.1,8.4-8.1
		c1.4,0,2.8,0.3,3.7,0.7l-0.7,2.9c-0.6-0.3-1.5-0.6-2.9-0.6c-2.9,0-4.7,2.1-4.6,4.9c0,3.1,2,4.9,4.6,4.9c1.3,0,2.3-0.3,3-0.6
		L76.2,74.1z"/>
	<path display="inline" fill="#706F6F" d="M84,70.4c1.2,0.7,3.1,1.3,5.1,1.3c2.4,0,3.8-1.1,3.8-2.9c0-1.6-1.1-2.5-3.7-3.5
		c-3.4-1.2-5.6-3.1-5.6-6.1c0-3.4,2.9-6,7.4-6c2.3,0,3.9,0.5,5,1.1L95,57.5c-0.7-0.4-2.2-1-4.2-1c-2.4,0-3.5,1.3-3.5,2.5
		c0,1.6,1.2,2.4,4,3.4c3.6,1.4,5.4,3.2,5.4,6.2c0,3.3-2.5,6.3-7.9,6.3c-2.2,0-4.5-0.6-5.6-1.3L84,70.4z"/>
	<path display="inline" fill="#706F6F" d="M102,68.1c0.1,2.7,2.2,3.9,4.7,3.9c1.8,0,3-0.2,4.2-0.7l0.6,2.6c-1.3,0.5-3.1,0.9-5.3,0.9
		c-4.9,0-7.8-3-7.8-7.6c0-4.2,2.5-8.1,7.4-8.1c4.9,0,6.5,4,6.5,7.3c0,0.7-0.1,1.3-0.1,1.6H102z M108.7,65.5c0-1.4-0.6-3.7-3.1-3.7
		c-2.4,0-3.3,2.1-3.5,3.7H108.7z"/>
	<path display="inline" fill="#706F6F" d="M114.6,64.4c0-2,0-3.5-0.1-4.9h3.3l0.1,2.9h0.1c0.7-2.1,2.5-3.2,4.1-3.2
		c0.4,0,0.6,0,0.9,0.1v3.6c-0.3-0.1-0.7-0.1-1.1-0.1c-1.8,0-3.1,1.2-3.4,2.9c-0.1,0.3-0.1,0.7-0.1,1.2v7.8h-3.8V64.4z"/>
	<path display="inline" fill="#706F6F" d="M128.5,59.5l2.4,7.7c0.4,1.3,0.7,2.5,1,3.8h0.1c0.3-1.2,0.6-2.4,1-3.8l2.4-7.7h4
		l-5.8,15.1H130l-5.6-15.1H128.5z"/>
	<path display="inline" fill="#706F6F" d="M145.2,55.3c0,1.1-0.8,2-2.2,2c-1.3,0-2.1-0.9-2.1-2c0-1.2,0.9-2.1,2.1-2.1
		C144.3,53.2,145.1,54.1,145.2,55.3z M141.1,74.6V59.5h3.8v15.1H141.1z"/>
	<path display="inline" fill="#706F6F" d="M159.4,74.1c-0.8,0.4-2.4,0.8-4.3,0.8c-4.7,0-7.8-3-7.8-7.7c0-4.5,3.1-8.1,8.4-8.1
		c1.4,0,2.8,0.3,3.7,0.7l-0.7,2.9c-0.6-0.3-1.5-0.6-2.9-0.6c-2.9,0-4.7,2.1-4.6,4.9c0,3.1,2,4.9,4.6,4.9c1.3,0,2.3-0.3,3-0.6
		L159.4,74.1z"/>
	<path display="inline" fill="#706F6F" d="M164.2,68.1c0.1,2.7,2.2,3.9,4.7,3.9c1.8,0,3-0.2,4.2-0.7l0.6,2.6
		c-1.3,0.5-3.1,0.9-5.3,0.9c-4.9,0-7.8-3-7.8-7.6c0-4.2,2.5-8.1,7.4-8.1c4.9,0,6.5,4,6.5,7.3c0,0.7-0.1,1.3-0.1,1.6H164.2z
		 M170.8,65.5c0-1.4-0.6-3.7-3.1-3.7c-2.4,0-3.3,2.1-3.5,3.7H170.8z"/>
	<path display="inline" fill="#706F6F" d="M176.5,71.1c0.9,0.5,2.5,1.1,3.9,1.1c1.7,0,2.4-0.7,2.4-1.7c0-1-0.6-1.5-2.5-2.2
		c-2.9-1-4.2-2.6-4.2-4.4c0-2.7,2.2-4.7,5.7-4.7c1.7,0,3.1,0.4,4,0.9l-0.7,2.7c-0.7-0.4-1.9-0.9-3.2-0.9c-1.4,0-2.1,0.7-2.1,1.6
		c0,1,0.7,1.4,2.6,2.1c2.7,1,4,2.4,4,4.6c0,2.7-2.1,4.7-6.1,4.7c-1.8,0-3.5-0.4-4.6-1.1L176.5,71.1z"/>
</g>
</svg>
