<svg id="Layer_1" data-name="Layer 1" xmlns="http://www.w3.org/2000/svg" width="100" height="100" viewBox="0 0 100 100"><title>Checklist</title><path d="M59.05,94.56V100L46.88,93.07,59,86.15v5.41H75.25A7.28,7.28,0,0,0,82.87,84q0-30.63,0-61.26A7.35,7.35,0,0,0,75.19,15H69.88v5.32H34.79V15c-2.84.15-5.63-.48-8.3.51a7.06,7.06,0,0,0-4.67,5.58,1,1,0,0,0,.7,1.33A5.67,5.67,0,0,1,26.28,28a5.71,5.71,0,0,1-3.77,5.55,1.18,1.18,0,0,0-.84,1.3q0,24.4,0,48.82c0,4.87,3.08,7.88,7.94,7.89l9.27,0a1.27,1.27,0,0,1,.3.11v2.87H37a88.64,88.64,0,0,1-9.37-.19c-5.35-.63-8.89-4.91-8.9-10.36,0-8.92,0-17.83,0-26.75,0-7.44,0-14.87,0-22.3a1.33,1.33,0,0,0-1-1.46A5.65,5.65,0,0,1,14.1,28a5.68,5.68,0,0,1,3.65-5.52,1.48,1.48,0,0,0,1-1.43,10.31,10.31,0,0,1,10.24-9c1.83,0,3.67,0,5.64,0V6.78c.54,0,.95-.06,1.36-.06,2.43,0,4.86,0,7.28,0a.92.92,0,0,0,1.07-.78A8.25,8.25,0,0,1,60.2,5.89a1,1,0,0,0,1.13.84c2.39,0,4.78,0,7.16,0h1.37V12c1.9,0,3.69,0,5.47,0,4.46.14,7.83,2.11,9.66,6.23a11,11,0,0,1,.87,4.31q.09,30.75,0,61.5A10.34,10.34,0,0,1,75.41,94.56c-5,0-9.93,0-14.9,0Zm7.74-77.23V9.75h-29v7.58ZM20.15,24.88A3.07,3.07,0,0,0,17.06,28a3.12,3.12,0,0,0,3.11,3.12,3.16,3.16,0,0,0,3.17-3.2A3.12,3.12,0,0,0,20.15,24.88ZM47.46,6.61h9.77A5.08,5.08,0,0,0,51.85,3,4.77,4.77,0,0,0,47.46,6.61Z"/><path d="M75.67,32.07v2.81H52.4V32.07Z"/><path d="M75.74,46.08v1.7c0,.35,0,.69-.06,1.13H52.39V46.08Z"/><path d="M75.74,62.17H52.39v-3H74.15c1.59,0,1.59,0,1.59,1.56Z"/><path d="M75.66,76.94H52.37V74.07H75.66Z"/><path d="M33.91,67.51l-5.67-5.82,2.07-2.11,3.46,4c2.92-3.08,5.61-5.9,8.3-8.72l2,2.14Z"/><path d="M42.33,69.74l1.89,2L34,82.2,28.4,76.33l1.76-1.79,3.46,3.77Z"/><path d="M42.41,27.93l1.66,1.73L33.89,40.25,28.3,34.36l1.94-1.82,3.53,3.84,8.32-8.83Z"/><path d="M28.48,48.61l1.94-2,3.38,3.76,8.36-8.86,2,2.38L34,54.4Z"/></svg>