<svg id="Layer_1" data-name="Layer 1" xmlns="http://www.w3.org/2000/svg" viewBox="0 0 1238 394"><defs><style>.cls-1{fill:#92d1ff;}.cls-2,.cls-4,.cls-6{fill:none;}.cls-2{stroke:#0f9ffa;}.cls-2,.cls-6{stroke-miterlimit:10;stroke-width:2px;}.cls-3{fill:#061838;}.cls-4{stroke:#061838;stroke-miterlimit:10;stroke-width:3px;}.cls-5{fill:#bee3ff;}.cls-6{stroke:#92d1ff;}</style></defs><title>aftermarket-service</title><polygon class="cls-1" points="415.89 0.04 415.89 396 823.86 396 823.86 0.12 415.89 0.04"/><line class="cls-2" x1="434.99" y1="171.03" x2="804.76" y2="172.16"/><path class="cls-3" d="M491.7,221.88l-4.35-17.12h2.34l2,8.66c.51,2.13,1,4.27,1.27,5.92H493c.28-1.71.81-3.74,1.4-6l2.28-8.63H499l2.09,8.69c.48,2,.94,4.06,1.19,5.86h.05c.36-1.88.84-3.78,1.37-5.92l2.26-8.63h2.26l-4.85,17.12h-2.31L498.93,213a50.16,50.16,0,0,1-1.11-5.58h-.06a51.09,51.09,0,0,1-1.32,5.58L494,221.88Z"/><path class="cls-3" d="M516.27,221.88l-.18-1.55H516a4.6,4.6,0,0,1-3.76,1.82,3.5,3.5,0,0,1-3.76-3.52c0-3,2.64-4.6,7.39-4.58v-.25A2.53,2.53,0,0,0,513.1,211a6.11,6.11,0,0,0-3.2.91l-.51-1.47a7.65,7.65,0,0,1,4-1.09c3.76,0,4.67,2.56,4.67,5v4.6a17.62,17.62,0,0,0,.2,2.95Zm-.33-6.28c-2.44,0-5.2.38-5.2,2.77a2,2,0,0,0,2.1,2.13,3.07,3.07,0,0,0,3-2.05,2.58,2.58,0,0,0,.12-.71Z"/><path class="cls-3" d="M521.71,213.42c0-1.45,0-2.69-.11-3.83h2l.07,2.41h.11a3.67,3.67,0,0,1,3.4-2.69,2.43,2.43,0,0,1,.63.07v2.11a3.34,3.34,0,0,0-.76-.08,3.13,3.13,0,0,0-3,2.87,5.44,5.44,0,0,0-.11,1v6.56h-2.2Z"/><path class="cls-3" d="M531,216.14c0,3,2,4.26,4.21,4.26a8.22,8.22,0,0,0,3.41-.63l.38,1.6a10.1,10.1,0,0,1-4.09.76c-3.78,0-6-2.49-6-6.2s2.18-6.62,5.76-6.62c4,0,5.08,3.53,5.08,5.79a7.57,7.57,0,0,1-.08,1Zm6.55-1.6c0-1.42-.59-3.63-3.1-3.63-2.26,0-3.25,2.08-3.43,3.63Z"/><path class="cls-3" d="M542.47,203.85h2.24v7.67h0a4.05,4.05,0,0,1,1.6-1.58,4.61,4.61,0,0,1,2.28-.63c1.65,0,4.29,1,4.29,5.25v7.32H550.7v-7.06c0-2-.74-3.66-2.84-3.66a3.22,3.22,0,0,0-3,2.23,2.69,2.69,0,0,0-.15,1.07v7.42h-2.24Z"/><path class="cls-3" d="M567.69,215.63c0,4.54-3.15,6.52-6.12,6.52-3.33,0-5.89-2.43-5.89-6.32,0-4.11,2.69-6.52,6.09-6.52S567.69,211.87,567.69,215.63Zm-9.75.13c0,2.69,1.54,4.72,3.73,4.72s3.73-2,3.73-4.77c0-2.09-1-4.73-3.68-4.73S557.94,213.42,557.94,215.76Z"/><path class="cls-3" d="M580.79,218.52c0,1.27,0,2.39.1,3.36h-2l-.13-2h0a4.62,4.62,0,0,1-4.06,2.28c-1.93,0-4.24-1.06-4.24-5.38v-7.18h2.23v6.8c0,2.34.71,3.91,2.74,3.91a3.13,3.13,0,0,0,3.15-3.17v-7.54h2.24Z"/><path class="cls-3" d="M584.19,219.59a5.87,5.87,0,0,0,2.94.89c1.63,0,2.39-.81,2.39-1.83s-.64-1.65-2.29-2.26c-2.2-.79-3.25-2-3.25-3.48,0-2,1.6-3.6,4.24-3.6a6.13,6.13,0,0,1,3,.76l-.56,1.62a4.82,4.82,0,0,0-2.52-.71c-1.32,0-2,.76-2,1.68s.73,1.47,2.33,2.08c2.14.81,3.23,1.88,3.23,3.71,0,2.16-1.68,3.68-4.6,3.68a7,7,0,0,1-3.45-.84Z"/><path class="cls-3" d="M595.79,216.14c.05,3,2,4.26,4.21,4.26a8.22,8.22,0,0,0,3.41-.63l.38,1.6a10.06,10.06,0,0,1-4.09.76c-3.78,0-6-2.49-6-6.2s2.18-6.62,5.76-6.62c4,0,5.08,3.53,5.08,5.79a7.57,7.57,0,0,1-.08,1Zm6.55-1.6c0-1.42-.58-3.63-3.1-3.63-2.26,0-3.25,2.08-3.42,3.63Z"/><path class="cls-3" d="M619.45,221.88l-.18-1.55h-.07a4.6,4.6,0,0,1-3.76,1.82,3.5,3.5,0,0,1-3.76-3.52c0-3,2.64-4.6,7.39-4.58v-.25a2.53,2.53,0,0,0-2.79-2.84,6.11,6.11,0,0,0-3.2.91l-.51-1.47a7.65,7.65,0,0,1,4-1.09c3.76,0,4.67,2.56,4.67,5v4.6a17.62,17.62,0,0,0,.2,2.95Zm-.33-6.28c-2.44,0-5.2.38-5.2,2.77a2,2,0,0,0,2.1,2.13,3.07,3.07,0,0,0,3-2.05,2.58,2.58,0,0,0,.12-.71Z"/><path class="cls-3" d="M635.17,218.52c0,1.27,0,2.39.1,3.36h-2l-.13-2h0a4.62,4.62,0,0,1-4.06,2.28c-1.93,0-4.24-1.06-4.24-5.38v-7.18H627v6.8c0,2.34.71,3.91,2.75,3.91a3.13,3.13,0,0,0,3.14-3.17v-7.54h2.24Z"/><path class="cls-3" d="M641.57,206.06v3.53h3.19v1.7h-3.19v6.62c0,1.53.43,2.39,1.67,2.39a5.29,5.29,0,0,0,1.3-.15l.1,1.67a5.41,5.41,0,0,1-2,.31,3.09,3.09,0,0,1-2.41-.94,4.52,4.52,0,0,1-.87-3.2v-6.7h-1.9v-1.7h1.9v-3Z"/><path class="cls-3" d="M658.25,215.63c0,4.54-3.15,6.52-6.12,6.52-3.33,0-5.89-2.43-5.89-6.32,0-4.11,2.69-6.52,6.09-6.52S658.25,211.87,658.25,215.63Zm-9.75.13c0,2.69,1.54,4.72,3.73,4.72s3.73-2,3.73-4.77c0-2.09-1-4.73-3.68-4.73S648.5,213.42,648.5,215.76Z"/><path class="cls-3" d="M661.06,212.91c0-1.27,0-2.31-.1-3.32h2l.1,2h.07a4.24,4.24,0,0,1,3.86-2.26,3.62,3.62,0,0,1,3.48,2.46h.05a5.09,5.09,0,0,1,1.37-1.6,4.2,4.2,0,0,1,2.72-.86c1.63,0,4,1.06,4,5.33v7.24h-2.19v-7c0-2.36-.86-3.79-2.66-3.79a2.89,2.89,0,0,0-2.64,2,3.68,3.68,0,0,0-.18,1.11v7.6h-2.18v-7.37c0-1.95-.87-3.38-2.57-3.38a3.07,3.07,0,0,0-2.77,2.24,3.23,3.23,0,0,0-.17,1.09v7.42h-2.19Z"/><path class="cls-3" d="M689,221.88l-.18-1.55h-.07a4.6,4.6,0,0,1-3.76,1.82,3.5,3.5,0,0,1-3.76-3.52c0-3,2.64-4.6,7.39-4.58v-.25a2.53,2.53,0,0,0-2.79-2.84,6.11,6.11,0,0,0-3.2.91l-.51-1.47a7.65,7.65,0,0,1,4-1.09c3.76,0,4.67,2.56,4.67,5v4.6a17.62,17.62,0,0,0,.2,2.95Zm-.33-6.28c-2.44,0-5.2.38-5.2,2.77a2,2,0,0,0,2.1,2.13,3,3,0,0,0,3-2.05,2.27,2.27,0,0,0,.13-.71Z"/><path class="cls-3" d="M697.06,206.06v3.53h3.2v1.7h-3.2v6.62c0,1.53.44,2.39,1.68,2.39a5.36,5.36,0,0,0,1.3-.15l.1,1.67a5.41,5.41,0,0,1-2,.31,3.12,3.12,0,0,1-2.42-.94,4.57,4.57,0,0,1-.86-3.2v-6.7H693v-1.7h1.9v-3Z"/><path class="cls-3" d="M705.26,206.13a1.31,1.31,0,0,1-1.42,1.37,1.33,1.33,0,0,1-1.34-1.37,1.36,1.36,0,0,1,1.39-1.39A1.32,1.32,0,0,1,705.26,206.13Zm-2.48,15.75V209.59H705v12.29Z"/><path class="cls-3" d="M719.84,215.63c0,4.54-3.15,6.52-6.12,6.52-3.33,0-5.89-2.43-5.89-6.32,0-4.11,2.69-6.52,6.09-6.52S719.84,211.87,719.84,215.63Zm-9.75.13c0,2.69,1.55,4.72,3.73,4.72s3.73-2,3.73-4.77c0-2.09-1-4.73-3.68-4.73S710.09,213.42,710.09,215.76Z"/><path class="cls-3" d="M722.66,212.91c0-1.27,0-2.31-.11-3.32h2l.13,2h.05a4.51,4.51,0,0,1,4.06-2.31c1.71,0,4.35,1,4.35,5.23v7.34h-2.24v-7.09c0-2-.73-3.63-2.84-3.63a3.18,3.18,0,0,0-3,2.29,3.22,3.22,0,0,0-.15,1v7.39h-2.23Z"/><path class="cls-3" d="M488.6,274.57a7.83,7.83,0,0,0,4,1.12c2.26,0,3.58-1.19,3.58-2.92s-.91-2.51-3.22-3.4c-2.8-1-4.52-2.44-4.52-4.85,0-2.67,2.2-4.65,5.53-4.65a7.78,7.78,0,0,1,3.78.84l-.61,1.8a6.84,6.84,0,0,0-3.25-.81c-2.33,0-3.22,1.4-3.22,2.56,0,1.6,1,2.39,3.4,3.3,2.9,1.12,4.37,2.52,4.37,5s-2,4.93-6,4.93a8.84,8.84,0,0,1-4.37-1.09Z"/><path class="cls-3" d="M501.34,259.24h2.24v7.66h.05a4.1,4.1,0,0,1,1.6-1.57,4.61,4.61,0,0,1,2.28-.63c1.65,0,4.29,1,4.29,5.25v7.31h-2.23v-7.05c0-2-.74-3.66-2.84-3.66a3.21,3.21,0,0,0-3,2.23,2.69,2.69,0,0,0-.15,1.07v7.41h-2.24Z"/><path class="cls-3" d="M517.92,261.52a1.38,1.38,0,0,1-2.76,0,1.35,1.35,0,0,1,1.39-1.39A1.32,1.32,0,0,1,517.92,261.52Zm-2.49,15.74V265h2.24v12.29Z"/><path class="cls-3" d="M521.38,269c0-1.58-.06-2.85-.11-4h2l.1,2.11h0a4.83,4.83,0,0,1,4.37-2.38c3,0,5.2,2.51,5.2,6.24,0,4.42-2.69,6.6-5.58,6.6a4.32,4.32,0,0,1-3.79-1.93h0v6.68h-2.2Zm2.2,3.27a4.38,4.38,0,0,0,.11.92,3.45,3.45,0,0,0,3.35,2.61c2.36,0,3.73-1.93,3.73-4.75,0-2.46-1.3-4.57-3.66-4.57a3.56,3.56,0,0,0-3.37,2.77,3.47,3.47,0,0,0-.16.91Z"/><path class="cls-3" d="M535.82,269c0-1.58-.05-2.85-.1-4h2l.11,2.11h0a4.81,4.81,0,0,1,4.36-2.38c3,0,5.21,2.51,5.21,6.24,0,4.42-2.69,6.6-5.59,6.6a4.31,4.31,0,0,1-3.78-1.93H538v6.68h-2.21Zm2.21,3.27a5.18,5.18,0,0,0,.1.92,3.45,3.45,0,0,0,3.35,2.61c2.36,0,3.73-1.93,3.73-4.75,0-2.46-1.29-4.57-3.65-4.57a3.57,3.57,0,0,0-3.38,2.77,3.93,3.93,0,0,0-.15.91Z"/><path class="cls-3" d="M552.75,261.52a1.38,1.38,0,0,1-2.76,0,1.35,1.35,0,0,1,1.39-1.39A1.32,1.32,0,0,1,552.75,261.52Zm-2.48,15.74V265h2.23v12.29Z"/><path class="cls-3" d="M556.21,268.3c0-1.27,0-2.31-.11-3.33h2l.13,2h0a4.52,4.52,0,0,1,4.07-2.31c1.7,0,4.34,1,4.34,5.23v7.33h-2.24v-7.08c0-2-.73-3.63-2.84-3.63a3.18,3.18,0,0,0-3,2.28,3.28,3.28,0,0,0-.15,1.05v7.38h-2.23Z"/><path class="cls-3" d="M580.88,265c0,.89-.1,1.88-.1,3.38v7.14c0,2.81-.56,4.54-1.75,5.61a6.54,6.54,0,0,1-4.47,1.47,8,8,0,0,1-4.09-1l.56-1.7a7,7,0,0,0,3.61,1c2.28,0,4-1.19,4-4.29v-1.37h-.05a4.4,4.4,0,0,1-3.91,2c-3,0-5.23-2.59-5.23-6,0-4.16,2.72-6.52,5.53-6.52a4.09,4.09,0,0,1,3.84,2.13h.05l.1-1.86Zm-2.31,4.85a3.18,3.18,0,0,0-.12-1,3.22,3.22,0,0,0-3.13-2.36c-2.13,0-3.65,1.8-3.65,4.64,0,2.42,1.22,4.42,3.63,4.42a3.27,3.27,0,0,0,3.1-2.28,4.14,4.14,0,0,0,.17-1.2Z"/><path class="cls-3" d="M600.48,259.24v14.85c0,1.09,0,2.34.11,3.17h-2l-.1-2.13h-.05a4.56,4.56,0,0,1-4.19,2.41c-3,0-5.26-2.51-5.26-6.24,0-4.09,2.52-6.6,5.51-6.6a4.11,4.11,0,0,1,3.71,1.87h0v-7.33ZM598.25,270a4.29,4.29,0,0,0-.1-.94,3.29,3.29,0,0,0-3.23-2.59c-2.31,0-3.68,2-3.68,4.75,0,2.48,1.22,4.54,3.63,4.54a3.36,3.36,0,0,0,3.28-2.67,4.16,4.16,0,0,0,.1-1Z"/><path class="cls-3" d="M615.31,271c0,4.54-3.15,6.52-6.12,6.52-3.32,0-5.89-2.43-5.89-6.32,0-4.11,2.69-6.52,6.1-6.52S615.31,267.26,615.31,271Zm-9.75.12c0,2.7,1.55,4.73,3.73,4.73s3.74-2,3.74-4.78c0-2.08-1-4.72-3.69-4.72S605.56,268.81,605.56,271.14Z"/><path class="cls-3" d="M626.89,276.81a8.33,8.33,0,0,1-3.53.71c-3.71,0-6.12-2.52-6.12-6.27a6.24,6.24,0,0,1,6.6-6.53,7.39,7.39,0,0,1,3.1.64l-.51,1.72a5.23,5.23,0,0,0-2.59-.58c-2.82,0-4.34,2.08-4.34,4.64,0,2.85,1.83,4.6,4.27,4.6a6.34,6.34,0,0,0,2.74-.61Z"/><path class="cls-3" d="M639.79,273.91c0,1.27,0,2.39.1,3.35h-2l-.13-2h0a4.62,4.62,0,0,1-4.06,2.28c-1.93,0-4.24-1.06-4.24-5.38V265h2.23v6.81c0,2.34.71,3.91,2.74,3.91a3.13,3.13,0,0,0,3.15-3.17V265h2.24Z"/><path class="cls-3" d="M643.49,268.3c0-1.27,0-2.31-.1-3.33h2l.1,2h.07a4.24,4.24,0,0,1,3.86-2.26,3.62,3.62,0,0,1,3.48,2.46h0a5.09,5.09,0,0,1,1.37-1.6,4.2,4.2,0,0,1,2.72-.86c1.63,0,4,1.06,4,5.33v7.23h-2.19v-6.95c0-2.36-.86-3.79-2.66-3.79a2.89,2.89,0,0,0-2.64,2,3.81,3.81,0,0,0-.18,1.12v7.59h-2.18V269.9c0-1.95-.87-3.38-2.57-3.38a3.06,3.06,0,0,0-2.77,2.24,3.23,3.23,0,0,0-.17,1.09v7.41h-2.19Z"/><path class="cls-3" d="M665.91,271.53a3.93,3.93,0,0,0,4.22,4.26,8.21,8.21,0,0,0,3.4-.63l.38,1.6a10.06,10.06,0,0,1-4.09.76c-3.78,0-6-2.49-6-6.2s2.18-6.62,5.76-6.62c4,0,5.08,3.52,5.08,5.78a7.61,7.61,0,0,1-.08,1Zm6.55-1.6c0-1.43-.58-3.64-3.1-3.64-2.26,0-3.25,2.09-3.42,3.64Z"/><path class="cls-3" d="M677.39,268.3c0-1.27,0-2.31-.11-3.33h2l.13,2h.05a4.51,4.51,0,0,1,4.06-2.31c1.71,0,4.35,1,4.35,5.23v7.33h-2.24v-7.08c0-2-.73-3.63-2.84-3.63a3.18,3.18,0,0,0-3,2.28,3.28,3.28,0,0,0-.15,1.05v7.38h-2.23Z"/><path class="cls-3" d="M694.07,261.45V265h3.2v1.71h-3.2v6.62c0,1.53.43,2.39,1.67,2.39a5.29,5.29,0,0,0,1.3-.15l.1,1.67a5.41,5.41,0,0,1-2,.31,3.09,3.09,0,0,1-2.41-.94,4.52,4.52,0,0,1-.87-3.2v-6.7H690V265h1.9V262Z"/><path class="cls-3" d="M706.58,277.26l-.17-1.55h-.08a4.58,4.58,0,0,1-3.76,1.83,3.5,3.5,0,0,1-3.76-3.53c0-3,2.64-4.59,7.39-4.57v-.25a2.53,2.53,0,0,0-2.79-2.84,6.11,6.11,0,0,0-3.2.91l-.51-1.47a7.65,7.65,0,0,1,4-1.09c3.76,0,4.67,2.56,4.67,5v4.6a17.49,17.49,0,0,0,.2,2.94Zm-.33-6.27c-2.43-.05-5.2.38-5.2,2.77a2,2,0,0,0,2.11,2.13,3.07,3.07,0,0,0,3-2.05,2.58,2.58,0,0,0,.12-.71Z"/><path class="cls-3" d="M714.61,261.45V265h3.19v1.71h-3.19v6.62c0,1.53.43,2.39,1.67,2.39a5.29,5.29,0,0,0,1.3-.15l.1,1.67a5.41,5.41,0,0,1-2,.31,3.09,3.09,0,0,1-2.41-.94,4.52,4.52,0,0,1-.87-3.2v-6.7h-1.9V265h1.9V262Z"/><path class="cls-3" d="M722.81,261.52a1.39,1.39,0,0,1-2.77,0,1.35,1.35,0,0,1,1.39-1.39A1.33,1.33,0,0,1,722.81,261.52Zm-2.49,15.74V265h2.23v12.29Z"/><path class="cls-3" d="M737.38,271c0,4.54-3.15,6.52-6.12,6.52-3.33,0-5.89-2.43-5.89-6.32,0-4.11,2.69-6.52,6.09-6.52S737.38,267.26,737.38,271Zm-9.75.12c0,2.7,1.55,4.73,3.73,4.73s3.73-2,3.73-4.78c0-2.08-1-4.72-3.68-4.72S727.63,268.81,727.63,271.14Z"/><path class="cls-3" d="M740.2,268.3c0-1.27,0-2.31-.11-3.33h2l.12,2h0a4.52,4.52,0,0,1,4.07-2.31c1.7,0,4.34,1,4.34,5.23v7.33h-2.24v-7.08c0-2-.73-3.63-2.84-3.63a3.18,3.18,0,0,0-3,2.28,3.28,3.28,0,0,0-.15,1.05v7.38H740.2Z"/><path class="cls-3" d="M488.6,330a7.83,7.83,0,0,0,4,1.12c2.26,0,3.58-1.2,3.58-2.92s-.91-2.52-3.22-3.4c-2.8-1-4.52-2.44-4.52-4.85,0-2.67,2.2-4.65,5.53-4.65a7.78,7.78,0,0,1,3.78.84l-.61,1.8a6.84,6.84,0,0,0-3.25-.81c-2.33,0-3.22,1.39-3.22,2.56,0,1.6,1,2.39,3.4,3.3,2.9,1.12,4.37,2.52,4.37,5s-2,4.93-6,4.93a8.83,8.83,0,0,1-4.37-1.1Z"/><path class="cls-3" d="M511.63,329.3c0,1.27,0,2.39.1,3.35h-2l-.13-2h-.05a4.62,4.62,0,0,1-4.06,2.28c-1.93,0-4.24-1.07-4.24-5.38v-7.19h2.23v6.81c0,2.33.71,3.91,2.74,3.91a3.13,3.13,0,0,0,3.15-3.18v-7.54h2.24Z"/><path class="cls-3" d="M515.33,324.37c0-1.57-.05-2.84-.1-4h2l.1,2.11h0a4.83,4.83,0,0,1,4.37-2.39c3,0,5.2,2.52,5.2,6.25,0,4.42-2.69,6.6-5.58,6.6a4.32,4.32,0,0,1-3.79-1.93h-.05v6.68h-2.21Zm2.21,3.28a5.07,5.07,0,0,0,.1.91,3.46,3.46,0,0,0,3.36,2.62c2.36,0,3.73-1.93,3.73-4.75,0-2.46-1.3-4.57-3.66-4.57a3.58,3.58,0,0,0-3.38,2.77,3.93,3.93,0,0,0-.15.91Z"/><path class="cls-3" d="M529.78,324.37c0-1.57,0-2.84-.1-4h2l.1,2.11h.05a4.85,4.85,0,0,1,4.37-2.39c3,0,5.21,2.52,5.21,6.25,0,4.42-2.69,6.6-5.59,6.6A4.3,4.3,0,0,1,532,331h0v6.68h-2.21Zm2.21,3.28a5.07,5.07,0,0,0,.1.91,3.45,3.45,0,0,0,3.35,2.62c2.36,0,3.73-1.93,3.73-4.75,0-2.46-1.29-4.57-3.65-4.57a3.56,3.56,0,0,0-3.38,2.77,3.47,3.47,0,0,0-.15.91Z"/><path class="cls-3" d="M544.22,314.62h2.24v18h-2.24Z"/><path class="cls-3" d="M551,320.36l2.69,7.26c.28.82.58,1.78.79,2.52h0c.23-.74.48-1.68.78-2.57l2.44-7.21h2.36l-3.35,8.76c-1.6,4.22-2.69,6.38-4.21,7.7a6.1,6.1,0,0,1-2.75,1.44l-.55-1.88a5.8,5.8,0,0,0,2-1.09,6.72,6.72,0,0,0,1.88-2.49,1.56,1.56,0,0,0,.18-.53,1.75,1.75,0,0,0-.16-.58l-4.54-11.33Z"/><path class="cls-3" d="M576.31,332.19a8.06,8.06,0,0,1-3.52.72c-3.71,0-6.12-2.52-6.12-6.28a6.24,6.24,0,0,1,6.6-6.52,7.57,7.57,0,0,1,3.1.63l-.51,1.73a5.26,5.26,0,0,0-2.59-.58c-2.82,0-4.34,2.08-4.34,4.64,0,2.85,1.82,4.6,4.26,4.6a6.31,6.31,0,0,0,2.74-.61Z"/><path class="cls-3" d="M578.93,314.62h2.23v7.67h.05a4.23,4.23,0,0,1,1.6-1.57,4.62,4.62,0,0,1,2.29-.64c1.65,0,4.29,1,4.29,5.26v7.31h-2.23v-7.06c0-2-.74-3.65-2.85-3.65a3.19,3.19,0,0,0-3,2.23,2.68,2.68,0,0,0-.16,1.07v7.41h-2.23Z"/><path class="cls-3" d="M599.82,332.65l-.17-1.55h-.08a4.58,4.58,0,0,1-3.76,1.83,3.5,3.5,0,0,1-3.76-3.53c0-3,2.65-4.59,7.39-4.57v-.25a2.54,2.54,0,0,0-2.79-2.85,6.11,6.11,0,0,0-3.2.92l-.51-1.47a7.65,7.65,0,0,1,4-1.1c3.76,0,4.67,2.57,4.67,5v4.6a16.51,16.51,0,0,0,.21,2.94Zm-.33-6.27c-2.43-.05-5.2.38-5.2,2.77a2,2,0,0,0,2.11,2.13,3.05,3.05,0,0,0,3-2.06,2.46,2.46,0,0,0,.12-.71Z"/><path class="cls-3" d="M607.75,316.91a1.39,1.39,0,0,1-2.77,0,1.36,1.36,0,0,1,1.39-1.4A1.33,1.33,0,0,1,607.75,316.91Zm-2.49,15.74V320.36h2.23v12.29Z"/><path class="cls-3" d="M611.2,323.69c0-1.27,0-2.31-.1-3.33h2l.12,2h0a4.55,4.55,0,0,1,4.07-2.31c1.7,0,4.34,1,4.34,5.23v7.34h-2.24v-7.08c0-2-.73-3.63-2.84-3.63a3.18,3.18,0,0,0-3,2.28,3.26,3.26,0,0,0-.15,1v7.39H611.2Z"/><path class="cls-3" d="M630.37,330.37a5.84,5.84,0,0,0,2.94.89c1.63,0,2.39-.82,2.39-1.83s-.64-1.65-2.29-2.26c-2.21-.79-3.25-2-3.25-3.48,0-2,1.6-3.61,4.24-3.61a6,6,0,0,1,3,.77l-.55,1.62a4.89,4.89,0,0,0-2.52-.71c-1.32,0-2.06.76-2.06,1.68s.74,1.47,2.34,2.08c2.13.81,3.23,1.88,3.23,3.7,0,2.16-1.68,3.69-4.6,3.69a7,7,0,0,1-3.45-.84Z"/><path class="cls-3" d="M641.54,320.36l2.69,7.26c.28.82.58,1.78.78,2.52h.06c.22-.74.48-1.68.78-2.57l2.44-7.21h2.36l-3.35,8.76c-1.6,4.22-2.69,6.38-4.22,7.7a6,6,0,0,1-2.74,1.44l-.56-1.88a5.74,5.74,0,0,0,2-1.09,6.72,6.72,0,0,0,1.88-2.49,1.56,1.56,0,0,0,.18-.53,1.75,1.75,0,0,0-.16-.58l-4.54-11.33Z"/><path class="cls-3" d="M652.68,323.69c0-1.27,0-2.31-.1-3.33h2l.13,2h0a4.53,4.53,0,0,1,4.06-2.31c1.7,0,4.34,1,4.34,5.23v7.34h-2.23v-7.08c0-2-.74-3.63-2.85-3.63a3.17,3.17,0,0,0-3,2.28,3.26,3.26,0,0,0-.15,1v7.39h-2.24Z"/><path class="cls-3" d="M675.53,332.19a8.11,8.11,0,0,1-3.53.72c-3.7,0-6.12-2.52-6.12-6.28a6.24,6.24,0,0,1,6.61-6.52,7.52,7.52,0,0,1,3.09.63l-.5,1.73a5.29,5.29,0,0,0-2.59-.58c-2.82,0-4.35,2.08-4.35,4.64,0,2.85,1.83,4.6,4.27,4.6a6.31,6.31,0,0,0,2.74-.61Z"/><path class="cls-3" d="M678.15,314.62h2.23v7.67h0a4.23,4.23,0,0,1,1.6-1.57,4.62,4.62,0,0,1,2.29-.64c1.65,0,4.29,1,4.29,5.26v7.31h-2.24v-7.06c0-2-.73-3.65-2.84-3.65a3.21,3.21,0,0,0-3,2.23,2.88,2.88,0,0,0-.15,1.07v7.41h-2.23Z"/><path class="cls-3" d="M692.24,324.2c0-1.45,0-2.69-.1-3.84h2l.08,2.41h.1a3.68,3.68,0,0,1,3.4-2.69,2.55,2.55,0,0,1,.64.08v2.11a3.44,3.44,0,0,0-.77-.08,3.13,3.13,0,0,0-3,2.87,6.33,6.33,0,0,0-.1,1v6.55h-2.21Z"/><path class="cls-3" d="M711.41,326.41c0,4.54-3.15,6.52-6.12,6.52-3.33,0-5.89-2.44-5.89-6.32,0-4.11,2.69-6.53,6.09-6.53S711.41,322.65,711.41,326.41Zm-9.75.12c0,2.69,1.55,4.73,3.73,4.73s3.73-2,3.73-4.78c0-2.08-1-4.72-3.68-4.72S701.66,324.2,701.66,326.53Z"/><path class="cls-3" d="M714.22,323.69c0-1.27,0-2.31-.1-3.33h2l.13,2h0a4.53,4.53,0,0,1,4.06-2.31c1.7,0,4.34,1,4.34,5.23v7.34h-2.23v-7.08c0-2-.74-3.63-2.84-3.63a3.17,3.17,0,0,0-3,2.28,3.26,3.26,0,0,0-.15,1v7.39h-2.24Z"/><path class="cls-3" d="M730.8,316.91a1.38,1.38,0,0,1-2.76,0,1.36,1.36,0,0,1,1.39-1.4A1.33,1.33,0,0,1,730.8,316.91Zm-2.49,15.74V320.36h2.24v12.29Z"/><path class="cls-3" d="M732.86,331.36l5.56-7.24c.53-.66,1-1.24,1.6-1.9v-.05h-6.65v-1.81h9.37l0,1.4-5.48,7.13c-.51.69-1,1.3-1.58,1.93v.05h7.19v1.78h-10Z"/><path class="cls-3" d="M751.93,332.65l-.18-1.55h-.08a4.55,4.55,0,0,1-3.76,1.83,3.5,3.5,0,0,1-3.75-3.53c0-3,2.64-4.59,7.38-4.57v-.25a2.53,2.53,0,0,0-2.79-2.85,6.14,6.14,0,0,0-3.2.92l-.51-1.47a7.65,7.65,0,0,1,4-1.1c3.76,0,4.67,2.57,4.67,5v4.6a16.51,16.51,0,0,0,.21,2.94Zm-.33-6.27c-2.44-.05-5.21.38-5.21,2.77a2,2,0,0,0,2.11,2.13,3.05,3.05,0,0,0,3-2.06,2.47,2.47,0,0,0,.13-.71Z"/><path class="cls-3" d="M760,316.83v3.53h3.2v1.7H760v6.63c0,1.52.43,2.39,1.67,2.39a5.29,5.29,0,0,0,1.3-.15l.1,1.67a5.41,5.41,0,0,1-2,.31,3.09,3.09,0,0,1-2.41-.94,4.54,4.54,0,0,1-.87-3.2v-6.71h-1.9v-1.7h1.9v-2.94Z"/><path class="cls-3" d="M768.15,316.91a1.39,1.39,0,0,1-2.77,0,1.36,1.36,0,0,1,1.4-1.4A1.33,1.33,0,0,1,768.15,316.91Zm-2.49,15.74V320.36h2.23v12.29Z"/><path class="cls-3" d="M782.72,326.41c0,4.54-3.15,6.52-6.12,6.52-3.32,0-5.89-2.44-5.89-6.32,0-4.11,2.69-6.53,6.1-6.53S782.72,322.65,782.72,326.41Zm-9.75.12c0,2.69,1.55,4.73,3.73,4.73s3.74-2,3.74-4.78c0-2.08-1-4.72-3.69-4.72S773,324.2,773,326.53Z"/><path class="cls-3" d="M785.54,323.69c0-1.27,0-2.31-.1-3.33h2l.12,2h.06a4.53,4.53,0,0,1,4.06-2.31c1.7,0,4.34,1,4.34,5.23v7.34h-2.23v-7.08c0-2-.74-3.63-2.85-3.63a3.17,3.17,0,0,0-3,2.28,3,3,0,0,0-.16,1v7.39h-2.23Z"/><circle class="cls-4" cx="460.24" cy="215.04" r="4.5"/><circle class="cls-4" cx="460.24" cy="269.35" r="4.5"/><circle class="cls-4" cx="460.24" cy="326.66" r="4.5"/><polygon class="cls-5" points="831.02 0.15 831.02 395.91 1238.99 395.91 1238.99 0.04 831.02 0.15"/><line class="cls-6" x1="850.12" y1="171.03" x2="1219.89" y2="170.96"/><path class="cls-3" d="M993,87l-2,6.46h-4.3L994,70.63h5.32l7.41,22.81h-4.47L1000.21,87Zm6.54-3.15-1.8-5.62c-.44-1.38-.81-2.94-1.15-4.26h-.07c-.33,1.32-.67,2.91-1.08,4.26l-1.76,5.62Z"/><path class="cls-3" d="M1024,88.5c0,2,.06,3.59.13,4.94h-3.65l-.21-2.5h-.06a6,6,0,0,1-5.28,2.87c-3,0-5.76-1.79-5.76-7.17V77h4.17v9c0,2.74.88,4.5,3.08,4.5a3.51,3.51,0,0,0,3.18-2.23,4,4,0,0,0,.23-1.29V77H1024Z"/><path class="cls-3" d="M1033.31,72.26V77h4v3.11h-4v7.28c0,2,.54,3.05,2.14,3.05a5.72,5.72,0,0,0,1.62-.21l.07,3.19a9.36,9.36,0,0,1-3,.4,4.84,4.84,0,0,1-3.59-1.35c-.88-1-1.29-2.44-1.29-4.61V80.07h-2.37V77h2.37V73.24Z"/><path class="cls-3" d="M1055.89,85.05c0,6.06-4.26,8.76-8.46,8.76-4.67,0-8.26-3.21-8.26-8.49s3.55-8.73,8.53-8.73S1055.89,80,1055.89,85.05Zm-12.42.17c0,3.18,1.56,5.58,4.09,5.58,2.37,0,4-2.33,4-5.65,0-2.57-1.15-5.52-4-5.52S1043.47,82.48,1043.47,85.22Z"/><path class="cls-3" d="M1059.31,81.87c0-1.9,0-3.49-.13-4.91h3.58l.17,2.44h.11a5.69,5.69,0,0,1,5.07-2.81,4.75,4.75,0,0,1,4.57,3h.07a6.16,6.16,0,0,1,2-2.06,5.51,5.51,0,0,1,3.32-1c2.74,0,5.51,1.86,5.51,7.14v9.71h-4.06v-9.1c0-2.74-1-4.37-2.94-4.37a3.18,3.18,0,0,0-2.91,2.2,5.61,5.61,0,0,0-.21,1.39v9.88h-4.06V83.9c0-2.3-.91-3.93-2.84-3.93a3.25,3.25,0,0,0-3,2.37,3.57,3.57,0,0,0-.24,1.36v9.74h-4.06Z"/><path class="cls-3" d="M1097.29,93.44l-.27-1.82h-.1a6.14,6.14,0,0,1-4.87,2.19,4.89,4.89,0,0,1-5.18-4.9c0-4.17,3.69-6.26,9.78-6.23v-.27c0-1.08-.44-2.88-3.35-2.88a8.75,8.75,0,0,0-4.44,1.22l-.81-2.71a11.93,11.93,0,0,1,6-1.45c5.28,0,6.8,3.35,6.8,6.94v6a26.23,26.23,0,0,0,.24,4Zm-.54-8c-2.94-.07-5.75.57-5.75,3.08a2.19,2.19,0,0,0,2.37,2.37,3.37,3.37,0,0,0,3.24-2.27,2.73,2.73,0,0,0,.14-.91Z"/><path class="cls-3" d="M1109.78,72.26V77h4v3.11h-4v7.28c0,2,.54,3.05,2.14,3.05a5.72,5.72,0,0,0,1.62-.21l.07,3.19a9.36,9.36,0,0,1-3,.4,4.84,4.84,0,0,1-3.59-1.35c-.88-1-1.29-2.44-1.29-4.61V80.07h-2.37V77h2.37V73.24Z"/><path class="cls-3" d="M1121.33,72.36a2.21,2.21,0,0,1-2.37,2.23,2.18,2.18,0,0,1-2.3-2.23,2.34,2.34,0,0,1,4.67,0Zm-4.44,21.08V77h4.2V93.44Z"/><path class="cls-3" d="M1141.23,85.05c0,6.06-4.27,8.76-8.46,8.76-4.67,0-8.26-3.21-8.26-8.49s3.55-8.73,8.53-8.73S1141.23,80,1141.23,85.05Zm-12.42.17c0,3.18,1.55,5.58,4.09,5.58,2.37,0,4-2.33,4-5.65,0-2.57-1.15-5.52-4-5.52S1128.81,82.48,1128.81,85.22Z"/><path class="cls-3" d="M1144.65,81.87c0-1.9,0-3.49-.13-4.91h3.65l.2,2.47h.1a6,6,0,0,1,5.25-2.84c2.88,0,5.86,1.86,5.86,7.07v9.78h-4.17v-9.3c0-2.37-.88-4.17-3.14-4.17a3.5,3.5,0,0,0-3.25,2.44,4.1,4.1,0,0,0-.17,1.35v9.68h-4.2Z"/><path class="cls-3" d="M901.47,206.64h-5.2v-1.88h12.67v1.88h-5.23v15.24h-2.24Z"/><path class="cls-3" d="M910.2,216.14a3.93,3.93,0,0,0,4.22,4.26,8.17,8.17,0,0,0,3.4-.63l.38,1.6a10,10,0,0,1-4.09.76c-3.78,0-6-2.49-6-6.2s2.18-6.62,5.76-6.62c4,0,5.08,3.53,5.08,5.79a10.18,10.18,0,0,1-.07,1Zm6.55-1.6c0-1.42-.58-3.63-3.09-3.63-2.26,0-3.25,2.08-3.43,3.63Z"/><path class="cls-3" d="M930.44,221.42a8.3,8.3,0,0,1-3.53.71c-3.71,0-6.12-2.51-6.12-6.27a6.24,6.24,0,0,1,6.6-6.53,7.39,7.39,0,0,1,3.1.64l-.51,1.72a5.23,5.23,0,0,0-2.59-.58c-2.82,0-4.34,2.08-4.34,4.65,0,2.84,1.83,4.59,4.27,4.59a6.34,6.34,0,0,0,2.74-.61Z"/><path class="cls-3" d="M933.05,203.85h2.24v7.67h.05a4.05,4.05,0,0,1,1.6-1.58,4.61,4.61,0,0,1,2.28-.63c1.65,0,4.29,1,4.29,5.25v7.32h-2.23v-7.06c0-2-.74-3.66-2.84-3.66a3.22,3.22,0,0,0-3,2.23,2.69,2.69,0,0,0-.15,1.07v7.42h-2.24Z"/><path class="cls-3" d="M947.14,212.91c0-1.27,0-2.31-.1-3.32h2l.13,2h.05a4.51,4.51,0,0,1,4.06-2.31c1.7,0,4.35,1,4.35,5.23v7.34h-2.24v-7.09c0-2-.74-3.63-2.84-3.63a3.17,3.17,0,0,0-3,2.29,3.22,3.22,0,0,0-.15,1v7.39h-2.24Z"/><path class="cls-3" d="M963.72,206.13a1.38,1.38,0,0,1-2.76,0,1.36,1.36,0,0,1,1.39-1.39A1.32,1.32,0,0,1,963.72,206.13Zm-2.48,15.75V209.59h2.23v12.29Z"/><path class="cls-3" d="M975.94,221.42a8.33,8.33,0,0,1-3.53.71c-3.71,0-6.12-2.51-6.12-6.27a6.24,6.24,0,0,1,6.6-6.53,7.39,7.39,0,0,1,3.1.64l-.51,1.72a5.23,5.23,0,0,0-2.59-.58c-2.82,0-4.34,2.08-4.34,4.65,0,2.84,1.83,4.59,4.26,4.59a6.31,6.31,0,0,0,2.74-.61Z"/><path class="cls-3" d="M985.35,221.88l-.17-1.55h-.08a4.58,4.58,0,0,1-3.76,1.82,3.5,3.5,0,0,1-3.76-3.52c0-3,2.65-4.6,7.39-4.58v-.25a2.53,2.53,0,0,0-2.79-2.84,6.11,6.11,0,0,0-3.2.91l-.51-1.47a7.65,7.65,0,0,1,4-1.09c3.76,0,4.67,2.56,4.67,5v4.6a16.55,16.55,0,0,0,.21,2.95ZM985,215.6c-2.43,0-5.2.38-5.2,2.77a2,2,0,0,0,2.11,2.13,3.06,3.06,0,0,0,3-2.05,2.58,2.58,0,0,0,.12-.71Z"/><path class="cls-3" d="M990.79,203.85H993v18h-2.23Z"/><path class="cls-3" d="M1001.86,219.59a5.84,5.84,0,0,0,2.94.89c1.63,0,2.39-.81,2.39-1.83s-.64-1.65-2.29-2.26c-2.21-.79-3.25-2-3.25-3.48,0-2,1.6-3.6,4.24-3.6a6.05,6.05,0,0,1,3,.76l-.55,1.62a4.89,4.89,0,0,0-2.52-.71c-1.32,0-2.05.76-2.05,1.68s.73,1.47,2.33,2.08c2.13.81,3.23,1.88,3.23,3.71,0,2.16-1.68,3.68-4.6,3.68a7,7,0,0,1-3.45-.84Z"/><path class="cls-3" d="M1022.5,218.52c0,1.27,0,2.39.1,3.36h-2l-.13-2h0a4.62,4.62,0,0,1-4.06,2.28c-1.93,0-4.24-1.06-4.24-5.38v-7.18h2.23v6.8c0,2.34.71,3.91,2.74,3.91a3.13,3.13,0,0,0,3.15-3.17v-7.54h2.24Z"/><path class="cls-3" d="M1026.2,213.6c0-1.58,0-2.85-.1-4h2l.1,2.1h0a4.84,4.84,0,0,1,4.37-2.38c3,0,5.2,2.51,5.2,6.24,0,4.42-2.69,6.6-5.58,6.6a4.32,4.32,0,0,1-3.79-1.93h0v6.68h-2.21Zm2.21,3.27a5.18,5.18,0,0,0,.1.92,3.45,3.45,0,0,0,3.36,2.61c2.36,0,3.73-1.93,3.73-4.75,0-2.46-1.3-4.57-3.66-4.57a3.59,3.59,0,0,0-3.38,2.77,3.93,3.93,0,0,0-.15.92Z"/><path class="cls-3" d="M1040.65,213.6c0-1.58-.05-2.85-.1-4h2l.1,2.1h.06a4.83,4.83,0,0,1,4.36-2.38c3,0,5.21,2.51,5.21,6.24,0,4.42-2.69,6.6-5.59,6.6a4.3,4.3,0,0,1-3.78-1.93h-.05v6.68h-2.21Zm2.21,3.27a5.18,5.18,0,0,0,.1.92,3.44,3.44,0,0,0,3.35,2.61c2.36,0,3.73-1.93,3.73-4.75,0-2.46-1.29-4.57-3.65-4.57a3.57,3.57,0,0,0-3.38,2.77,3.47,3.47,0,0,0-.15.92Z"/><path class="cls-3" d="M1066.21,215.63c0,4.54-3.14,6.52-6.11,6.52-3.33,0-5.89-2.43-5.89-6.32,0-4.11,2.69-6.52,6.09-6.52S1066.21,211.87,1066.21,215.63Zm-9.75.13c0,2.69,1.55,4.72,3.74,4.72s3.73-2,3.73-4.77c0-2.09-1-4.73-3.68-4.73S1056.46,213.42,1056.46,215.76Z"/><path class="cls-3" d="M1069,213.42c0-1.45,0-2.69-.1-3.83h2L1071,212h.1a3.69,3.69,0,0,1,3.41-2.69,2.43,2.43,0,0,1,.63.07v2.11a3.41,3.41,0,0,0-.76-.08,3.14,3.14,0,0,0-3,2.87,6.44,6.44,0,0,0-.1,1v6.56H1069Z"/><path class="cls-3" d="M1080.63,206.06v3.53h3.2v1.7h-3.2v6.62c0,1.53.44,2.39,1.68,2.39a5.36,5.36,0,0,0,1.3-.15l.1,1.67a5.41,5.41,0,0,1-2,.31,3.12,3.12,0,0,1-2.42-.94,4.57,4.57,0,0,1-.86-3.2v-6.7h-1.9v-1.7h1.9v-3Z"/><path class="cls-3" d="M898.22,260.35a26.49,26.49,0,0,1,4.24-.33,7,7,0,0,1,4.8,1.43,4.59,4.59,0,0,1,1.5,3.58,5.05,5.05,0,0,1-1.32,3.65,7.07,7.07,0,0,1-5.23,1.88,7.48,7.48,0,0,1-1.78-.15v6.85h-2.21Zm2.21,8.26a7.79,7.79,0,0,0,1.83.17c2.66,0,4.29-1.29,4.29-3.65s-1.6-3.35-4-3.35a9.5,9.5,0,0,0-2.08.17Z"/><path class="cls-3" d="M917.8,277.26l-.18-1.55h-.08a4.55,4.55,0,0,1-3.76,1.83A3.5,3.5,0,0,1,910,274c0-3,2.64-4.59,7.39-4.57v-.25a2.53,2.53,0,0,0-2.8-2.84,6.13,6.13,0,0,0-3.2.91l-.5-1.47a7.58,7.58,0,0,1,4-1.09c3.76,0,4.67,2.56,4.67,5v4.6a16.44,16.44,0,0,0,.21,2.94Zm-.33-6.27c-2.44-.05-5.21.38-5.21,2.77a2,2,0,0,0,2.11,2.13,3.06,3.06,0,0,0,3-2.05,2.27,2.27,0,0,0,.13-.71Z"/><path class="cls-3" d="M923.23,268.81c0-1.45,0-2.69-.1-3.84h2l.08,2.42h.1a3.68,3.68,0,0,1,3.4-2.69,2.51,2.51,0,0,1,.64.07v2.11a3.41,3.41,0,0,0-.76-.08,3.14,3.14,0,0,0-3,2.87,6.44,6.44,0,0,0-.1,1v6.55h-2.21Z"/><path class="cls-3" d="M934.83,261.45V265H938v1.71h-3.2v6.62c0,1.53.43,2.39,1.68,2.39a5.27,5.27,0,0,0,1.29-.15l.1,1.67a5.37,5.37,0,0,1-2,.31,3.09,3.09,0,0,1-2.41-.94,4.57,4.57,0,0,1-.86-3.2v-6.7h-1.91V265h1.91V262Z"/><path class="cls-3" d="M940.24,275a5.87,5.87,0,0,0,2.94.89c1.63,0,2.39-.82,2.39-1.83s-.63-1.65-2.28-2.26c-2.21-.79-3.25-2-3.25-3.48,0-2,1.59-3.6,4.24-3.6a6.11,6.11,0,0,1,3,.76l-.56,1.62a4.82,4.82,0,0,0-2.52-.71c-1.32,0-2.05.76-2.05,1.68s.73,1.47,2.33,2.08c2.14.81,3.23,1.88,3.23,3.71,0,2.15-1.68,3.68-4.6,3.68a7,7,0,0,1-3.45-.84Z"/><path class="cls-3" d="M956,268.81c0-1.45,0-2.69-.1-3.84h2l.08,2.42h.1a3.68,3.68,0,0,1,3.4-2.69,2.51,2.51,0,0,1,.64.07v2.11a3.41,3.41,0,0,0-.76-.08,3.14,3.14,0,0,0-3,2.87,6.44,6.44,0,0,0-.1,1v6.55H956Z"/><path class="cls-3" d="M965.27,271.53a3.93,3.93,0,0,0,4.22,4.26,8.21,8.21,0,0,0,3.4-.63l.38,1.6a10.06,10.06,0,0,1-4.09.76c-3.78,0-6-2.49-6-6.2s2.18-6.62,5.76-6.62c4,0,5.08,3.52,5.08,5.78a7.61,7.61,0,0,1-.08,1Zm6.55-1.6c0-1.43-.58-3.64-3.1-3.64-2.26,0-3.25,2.09-3.42,3.64Z"/><path class="cls-3" d="M976.75,269c0-1.58,0-2.85-.11-4h2l.1,2.11h0a4.83,4.83,0,0,1,4.37-2.38c3,0,5.21,2.51,5.21,6.24,0,4.42-2.7,6.6-5.59,6.6a4.29,4.29,0,0,1-3.78-1.93h0v6.68h-2.21Zm2.21,3.27a5.18,5.18,0,0,0,.1.92,3.45,3.45,0,0,0,3.35,2.61c2.36,0,3.73-1.93,3.73-4.75,0-2.46-1.29-4.57-3.66-4.57a3.56,3.56,0,0,0-3.37,2.77,3.47,3.47,0,0,0-.15.91Z"/><path class="cls-3" d="M991.19,259.24h2.24v18h-2.24Z"/><path class="cls-3" d="M998.43,271.53c.05,3,2,4.26,4.21,4.26a8.14,8.14,0,0,0,3.4-.63l.38,1.6a10,10,0,0,1-4.08.76c-3.79,0-6.05-2.49-6.05-6.2s2.19-6.62,5.77-6.62c4,0,5.08,3.52,5.08,5.78a9.63,9.63,0,0,1-.08,1Zm6.55-1.6c0-1.43-.59-3.64-3.1-3.64-2.26,0-3.25,2.09-3.43,3.64Z"/><path class="cls-3" d="M1009.9,268.3c0-1.27,0-2.31-.1-3.33h2l.13,2h.05a4.51,4.51,0,0,1,4.06-2.31c1.7,0,4.34,1,4.34,5.23v7.33h-2.23v-7.08c0-2-.74-3.63-2.84-3.63a3.17,3.17,0,0,0-3,2.28,3.28,3.28,0,0,0-.15,1.05v7.38h-2.24Z"/><path class="cls-3" d="M1026.48,261.52a1.31,1.31,0,0,1-1.42,1.37,1.33,1.33,0,0,1-1.35-1.37,1.36,1.36,0,0,1,1.4-1.39A1.32,1.32,0,0,1,1026.48,261.52ZM1024,277.26V265h2.24v12.29Z"/><path class="cls-3" d="M1029.63,275a5.87,5.87,0,0,0,2.94.89c1.63,0,2.39-.82,2.39-1.83s-.63-1.65-2.28-2.26c-2.21-.79-3.25-2-3.25-3.48,0-2,1.6-3.6,4.24-3.6a6.11,6.11,0,0,1,3,.76l-.56,1.62a4.81,4.81,0,0,0-2.51-.71c-1.33,0-2.06.76-2.06,1.68s.73,1.47,2.33,2.08c2.14.81,3.23,1.88,3.23,3.71,0,2.15-1.68,3.68-4.6,3.68a7,7,0,0,1-3.45-.84Z"/><path class="cls-3" d="M1040,259.24h2.23v7.66h0a4.23,4.23,0,0,1,1.6-1.57,4.62,4.62,0,0,1,2.29-.63c1.65,0,4.29,1,4.29,5.25v7.31h-2.24v-7.05c0-2-.73-3.66-2.84-3.66a3.21,3.21,0,0,0-3,2.23,2.88,2.88,0,0,0-.15,1.07v7.41H1040Z"/><path class="cls-3" d="M1054.08,268.3c0-1.27,0-2.31-.1-3.33h2l.1,2h.08a4.23,4.23,0,0,1,3.86-2.26,3.64,3.64,0,0,1,3.48,2.46h0a5,5,0,0,1,1.37-1.6,4.2,4.2,0,0,1,2.72-.86c1.62,0,4,1.06,4,5.33v7.23h-2.18v-6.95c0-2.36-.86-3.79-2.67-3.79a2.89,2.89,0,0,0-2.64,2,3.82,3.82,0,0,0-.17,1.12v7.59h-2.19V269.9c0-1.95-.86-3.38-2.56-3.38a3,3,0,0,0-2.77,2.24,3,3,0,0,0-.18,1.09v7.41h-2.18Z"/><path class="cls-3" d="M1076.5,271.53c0,3,2,4.26,4.21,4.26a8.14,8.14,0,0,0,3.4-.63l.38,1.6a10,10,0,0,1-4.08.76c-3.79,0-6.05-2.49-6.05-6.2s2.19-6.62,5.77-6.62c4,0,5.08,3.52,5.08,5.78a9.63,9.63,0,0,1-.08,1Zm6.55-1.6c0-1.43-.59-3.64-3.1-3.64-2.26,0-3.25,2.09-3.43,3.64Z"/><path class="cls-3" d="M1088,268.3c0-1.27,0-2.31-.1-3.33h2l.13,2h0a4.51,4.51,0,0,1,4.06-2.31c1.7,0,4.34,1,4.34,5.23v7.33h-2.23v-7.08c0-2-.74-3.63-2.85-3.63a3.17,3.17,0,0,0-3,2.28,3.28,3.28,0,0,0-.15,1.05v7.38H1088Z"/><path class="cls-3" d="M1104.65,261.45V265h3.2v1.71h-3.2v6.62c0,1.53.43,2.39,1.68,2.39a5.27,5.27,0,0,0,1.29-.15l.1,1.67a5.37,5.37,0,0,1-2,.31,3.1,3.1,0,0,1-2.41-.94,4.57,4.57,0,0,1-.86-3.2v-6.7h-1.91V265h1.91V262Z"/><path class="cls-3" d="M898.22,315.77a22.9,22.9,0,0,1,4.24-.36c2.36,0,3.89.43,4.95,1.4a4.24,4.24,0,0,1,1.35,3.25,4.49,4.49,0,0,1-3.23,4.37v.07c1.32.46,2.11,1.68,2.52,3.45a26.91,26.91,0,0,0,1.32,4.7h-2.29a21.78,21.78,0,0,1-1.14-4.09c-.51-2.36-1.42-3.25-3.43-3.32h-2.08v7.41h-2.21Zm2.21,7.79h2.26c2.36,0,3.86-1.29,3.86-3.25,0-2.21-1.6-3.17-3.94-3.2a8.59,8.59,0,0,0-2.18.21Z"/><path class="cls-3" d="M913.15,326.91c.05,3,2,4.27,4.21,4.27a8,8,0,0,0,3.41-.64l.38,1.6a9.89,9.89,0,0,1-4.09.77c-3.78,0-6-2.49-6-6.2s2.18-6.63,5.76-6.63c4,0,5.08,3.53,5.08,5.79a7.3,7.3,0,0,1-.08,1Zm6.55-1.6c0-1.42-.58-3.63-3.1-3.63-2.26,0-3.25,2.09-3.43,3.63Z"/><path class="cls-3" d="M924.63,324.37c0-1.57-.06-2.84-.11-4h2l.1,2.11h0a4.84,4.84,0,0,1,4.37-2.39c3,0,5.2,2.52,5.2,6.25,0,4.42-2.69,6.6-5.58,6.6a4.32,4.32,0,0,1-3.79-1.93h0v6.68h-2.2Zm2.2,3.28a4.28,4.28,0,0,0,.11.91,3.44,3.44,0,0,0,3.35,2.62c2.36,0,3.73-1.93,3.73-4.75,0-2.46-1.3-4.57-3.66-4.57a3.56,3.56,0,0,0-3.37,2.77,3.47,3.47,0,0,0-.16.91Z"/><path class="cls-3" d="M950.19,326.41c0,4.54-3.15,6.52-6.12,6.52-3.32,0-5.89-2.44-5.89-6.32,0-4.11,2.69-6.53,6.1-6.53S950.19,322.65,950.19,326.41Zm-9.75.12c0,2.69,1.55,4.73,3.73,4.73s3.74-2,3.74-4.78c0-2.08-1-4.72-3.69-4.72S940.44,324.2,940.44,326.53Z"/><path class="cls-3" d="M953,324.2c0-1.45,0-2.69-.1-3.84h2l.08,2.41h.1a3.68,3.68,0,0,1,3.4-2.69,2.49,2.49,0,0,1,.64.08v2.11a3.41,3.41,0,0,0-.76-.08,3.13,3.13,0,0,0-3,2.87,6.33,6.33,0,0,0-.1,1v6.55H953Z"/><path class="cls-3" d="M964.61,316.83v3.53h3.2v1.7h-3.2v6.63c0,1.52.43,2.39,1.68,2.39a5.27,5.27,0,0,0,1.29-.15l.1,1.67a5.37,5.37,0,0,1-2,.31,3.09,3.09,0,0,1-2.41-.94,4.59,4.59,0,0,1-.86-3.2v-6.71h-1.91v-1.7h1.91v-2.94Z"/><path class="cls-3" d="M972.81,316.91a1.31,1.31,0,0,1-1.42,1.37,1.33,1.33,0,0,1-1.35-1.37,1.37,1.37,0,0,1,1.4-1.4A1.33,1.33,0,0,1,972.81,316.91Zm-2.49,15.74V320.36h2.24v12.29Z"/><path class="cls-3" d="M976.26,323.69c0-1.27,0-2.31-.1-3.33h2l.13,2h.05a4.53,4.53,0,0,1,4.06-2.31c1.7,0,4.34,1,4.34,5.23v7.34h-2.23v-7.08c0-2-.74-3.63-2.84-3.63a3.17,3.17,0,0,0-3,2.28,3.26,3.26,0,0,0-.15,1v7.39h-2.24Z"/><path class="cls-3" d="M1000.94,320.36c-.05.89-.1,1.88-.1,3.38v7.13c0,2.82-.56,4.55-1.75,5.62a6.54,6.54,0,0,1-4.47,1.47,8,8,0,0,1-4.09-1l.56-1.7a6.9,6.9,0,0,0,3.61,1c2.28,0,4-1.2,4-4.29v-1.38h0a4.38,4.38,0,0,1-3.91,2.06c-3.05,0-5.23-2.59-5.23-6,0-4.17,2.71-6.53,5.53-6.53a4.08,4.08,0,0,1,3.83,2.14h.06l.1-1.86Zm-2.31,4.85a2.91,2.91,0,0,0-.13-1,3.2,3.2,0,0,0-3.12-2.36c-2.13,0-3.65,1.8-3.65,4.64,0,2.41,1.21,4.42,3.63,4.42a3.25,3.25,0,0,0,3.09-2.29,3.78,3.78,0,0,0,.18-1.19Z"/><path class="cls-3" d="M1016.73,332.65l-.17-1.55h-.08a4.58,4.58,0,0,1-3.76,1.83,3.5,3.5,0,0,1-3.76-3.53c0-3,2.64-4.59,7.39-4.57v-.25a2.54,2.54,0,0,0-2.79-2.85,6.11,6.11,0,0,0-3.2.92l-.51-1.47a7.65,7.65,0,0,1,4-1.1c3.76,0,4.67,2.57,4.67,5v4.6a17.57,17.57,0,0,0,.2,2.94Zm-.33-6.27c-2.43-.05-5.2.38-5.2,2.77a2,2,0,0,0,2.11,2.13,3.05,3.05,0,0,0,3-2.06,2.46,2.46,0,0,0,.12-.71Z"/><path class="cls-3" d="M1022.17,323.69c0-1.27,0-2.31-.11-3.33h2l.13,2h0a4.54,4.54,0,0,1,4.07-2.31c1.7,0,4.34,1,4.34,5.23v7.34h-2.24v-7.08c0-2-.73-3.63-2.84-3.63a3.18,3.18,0,0,0-3,2.28,3.26,3.26,0,0,0-.15,1v7.39h-2.23Z"/><path class="cls-3" d="M1046.87,314.62v14.86c0,1.09,0,2.33.1,3.17h-2l-.11-2.13h0a4.54,4.54,0,0,1-4.19,2.41c-3,0-5.25-2.51-5.25-6.24,0-4.09,2.51-6.61,5.51-6.61a4.09,4.09,0,0,1,3.7,1.88h.06v-7.34Zm-2.23,10.74a3.69,3.69,0,0,0-.11-.93,3.27,3.27,0,0,0-3.22-2.59c-2.31,0-3.68,2-3.68,4.74,0,2.49,1.22,4.55,3.63,4.55a3.35,3.35,0,0,0,3.27-2.67,3.67,3.67,0,0,0,.11-1Z"/><path class="cls-3" d="M1056,324.2c0-1.45,0-2.69-.1-3.84h2l.08,2.41h.1a3.68,3.68,0,0,1,3.4-2.69,2.49,2.49,0,0,1,.64.08v2.11a3.44,3.44,0,0,0-.77-.08,3.13,3.13,0,0,0-3,2.87,6.33,6.33,0,0,0-.1,1v6.55H1056Z"/><path class="cls-3" d="M1065.25,326.91c0,3,2,4.27,4.21,4.27a8,8,0,0,0,3.41-.64l.38,1.6a9.85,9.85,0,0,1-4.09.77c-3.78,0-6-2.49-6-6.2s2.18-6.63,5.76-6.63c4,0,5.08,3.53,5.08,5.79a7.3,7.3,0,0,1-.08,1Zm6.55-1.6c0-1.42-.58-3.63-3.1-3.63-2.26,0-3.25,2.09-3.42,3.63Z"/><path class="cls-3" d="M1085.49,332.19a8.15,8.15,0,0,1-3.53.72c-3.71,0-6.12-2.52-6.12-6.28a6.24,6.24,0,0,1,6.6-6.52,7.57,7.57,0,0,1,3.1.63l-.51,1.73a5.23,5.23,0,0,0-2.59-.58c-2.82,0-4.34,2.08-4.34,4.64,0,2.85,1.82,4.6,4.26,4.6a6.31,6.31,0,0,0,2.74-.61Z"/><path class="cls-3" d="M1099.07,326.41c0,4.54-3.15,6.52-6.12,6.52-3.33,0-5.89-2.44-5.89-6.32,0-4.11,2.69-6.53,6.09-6.53S1099.07,322.65,1099.07,326.41Zm-9.75.12c0,2.69,1.55,4.73,3.73,4.73s3.73-2,3.73-4.78c0-2.08-1-4.72-3.68-4.72S1089.32,324.2,1089.32,326.53Z"/><path class="cls-3" d="M1101.89,323.69c0-1.27,0-2.31-.11-3.33h2l.13,2h0a4.53,4.53,0,0,1,4.06-2.31c1.71,0,4.35,1,4.35,5.23v7.34h-2.24v-7.08c0-2-.73-3.63-2.84-3.63a3.18,3.18,0,0,0-3,2.28,3.26,3.26,0,0,0-.15,1v7.39h-2.23Z"/><path class="cls-3" d="M1124.74,332.19a8.15,8.15,0,0,1-3.53.72c-3.71,0-6.12-2.52-6.12-6.28a6.24,6.24,0,0,1,6.6-6.52,7.57,7.57,0,0,1,3.1.63l-.51,1.73a5.23,5.23,0,0,0-2.59-.58c-2.82,0-4.34,2.08-4.34,4.64,0,2.85,1.83,4.6,4.26,4.6a6.39,6.39,0,0,0,2.75-.61Z"/><path class="cls-3" d="M1129.84,316.91a1.39,1.39,0,0,1-2.77,0,1.37,1.37,0,0,1,1.4-1.4A1.33,1.33,0,0,1,1129.84,316.91Zm-2.49,15.74V320.36h2.23v12.29Z"/><path class="cls-3" d="M1133.29,314.62h2.24v18h-2.24Z"/><path class="cls-3" d="M1141.77,316.91a1.31,1.31,0,0,1-1.42,1.37,1.33,1.33,0,0,1-1.35-1.37,1.37,1.37,0,0,1,1.4-1.4A1.33,1.33,0,0,1,1141.77,316.91Zm-2.49,15.74V320.36h2.24v12.29Z"/><path class="cls-3" d="M1152,332.65l-.18-1.55h-.08a4.54,4.54,0,0,1-3.75,1.83,3.5,3.5,0,0,1-3.76-3.53c0-3,2.64-4.59,7.39-4.57v-.25a2.54,2.54,0,0,0-2.8-2.85,6.14,6.14,0,0,0-3.2.92l-.5-1.47a7.59,7.59,0,0,1,4-1.1c3.76,0,4.68,2.57,4.68,5v4.6a17.57,17.57,0,0,0,.2,2.94Zm-.33-6.27c-2.44-.05-5.21.38-5.21,2.77a2,2,0,0,0,2.11,2.13,3.05,3.05,0,0,0,3-2.06,2.17,2.17,0,0,0,.13-.71Z"/><path class="cls-3" d="M1160.05,316.83v3.53h3.2v1.7h-3.2v6.63c0,1.52.43,2.39,1.68,2.39a5.27,5.27,0,0,0,1.29-.15l.1,1.67a5.41,5.41,0,0,1-2,.31,3.09,3.09,0,0,1-2.41-.94,4.54,4.54,0,0,1-.86-3.2v-6.71H1156v-1.7h1.91v-2.94Z"/><path class="cls-3" d="M1168.25,316.91a1.31,1.31,0,0,1-1.42,1.37,1.33,1.33,0,0,1-1.35-1.37,1.37,1.37,0,0,1,1.4-1.4A1.33,1.33,0,0,1,1168.25,316.91Zm-2.49,15.74V320.36H1168v12.29Z"/><path class="cls-3" d="M1182.82,326.41c0,4.54-3.15,6.52-6.12,6.52-3.32,0-5.89-2.44-5.89-6.32,0-4.11,2.69-6.53,6.1-6.53S1182.82,322.65,1182.82,326.41Zm-9.75.12c0,2.69,1.55,4.73,3.74,4.73s3.73-2,3.73-4.78c0-2.08-1-4.72-3.68-4.72S1173.07,324.2,1173.07,326.53Z"/><path class="cls-3" d="M1185.64,323.69c0-1.27,0-2.31-.1-3.33h2l.13,2h0a4.53,4.53,0,0,1,4.06-2.31c1.7,0,4.34,1,4.34,5.23v7.34h-2.23v-7.08c0-2-.74-3.63-2.85-3.63a3.17,3.17,0,0,0-3,2.28,3.26,3.26,0,0,0-.15,1v7.39h-2.24Z"/><circle class="cls-4" cx="873.18" cy="215.04" r="4.5"/><circle class="cls-4" cx="873.18" cy="269.35" r="4.5"/><circle class="cls-4" cx="873.18" cy="324.66" r="4.5"/><polygon class="cls-5" points="0.76 0.04 0.76 396 408.73 396 408.73 0.12 0.76 0.04"/><line class="cls-6" x1="19.86" y1="171.03" x2="389.63" y2="170.96"/><path class="cls-3" d="M160.79,54a42.6,42.6,0,0,1,6.63-.47c4.27,0,7.21.88,9.31,2.64s3.55,4.5,3.55,8.39c0,4.06-1.38,7.11-3.55,9.07s-5.89,3.11-10.32,3.11a45.42,45.42,0,0,1-5.62-.3ZM165,73.34a15.8,15.8,0,0,0,2.3.1c5.42,0,8.63-3,8.63-8.73,0-5-2.87-7.92-8.09-7.92A13.81,13.81,0,0,0,165,57Z"/><path class="cls-3" d="M188.27,55.43a2.34,2.34,0,0,1-4.67,0,2.34,2.34,0,0,1,4.67,0Zm-4.43,21.09V60H188V76.52Z"/><path class="cls-3" d="M207.57,60c-.07,1.12-.14,2.48-.14,4.74v9.34c0,3.46-.71,5.93-2.43,7.48a9.47,9.47,0,0,1-6.37,2,11.64,11.64,0,0,1-5.75-1.32l.91-3.15a10,10,0,0,0,4.81,1.26c2.71,0,4.74-1.43,4.74-5V74h-.07a5.58,5.58,0,0,1-4.81,2.44c-4.09,0-7-3.39-7-8.06,0-5.41,3.52-8.7,7.48-8.7a5.2,5.2,0,0,1,4.77,2.57h.07L204,60Zm-4.3,6.6a3.72,3.72,0,0,0-.14-1.11,3.45,3.45,0,0,0-3.38-2.68c-2.34,0-4.06,2-4.06,5.39,0,2.8,1.42,5.07,4,5.07a3.55,3.55,0,0,0,3.38-2.5,7.31,7.31,0,0,0,.17-1.49Z"/><path class="cls-3" d="M216.2,55.43a2.34,2.34,0,1,1-2.33-2.27A2.21,2.21,0,0,1,216.2,55.43Zm-4.43,21.09V60H216V76.52Z"/><path class="cls-3" d="M225.21,55.33V60h4v3.12h-4v7.28c0,2,.54,3,2.13,3a6.19,6.19,0,0,0,1.62-.2l.07,3.18a9,9,0,0,1-3,.41,4.82,4.82,0,0,1-3.59-1.36c-.88-1-1.28-2.44-1.28-4.6V63.15h-2.37V60h2.37V56.31Z"/><path class="cls-3" d="M241.59,76.52l-.27-1.83h-.1a6.12,6.12,0,0,1-4.88,2.2A4.89,4.89,0,0,1,231.17,72c0-4.16,3.68-6.26,9.78-6.23v-.27c0-1.08-.44-2.87-3.35-2.87a8.66,8.66,0,0,0-4.44,1.22l-.81-2.71a11.81,11.81,0,0,1,6-1.46c5.28,0,6.8,3.35,6.8,6.94v6a26.32,26.32,0,0,0,.24,4Zm-.54-8.06c-3-.07-5.76.58-5.76,3.08a2.18,2.18,0,0,0,2.37,2.37,3.36,3.36,0,0,0,3.25-2.27,3,3,0,0,0,.14-.91Z"/><path class="cls-3" d="M249.51,52.49h4.2v24h-4.2Z"/><path class="cls-3" d="M160.42,106.54a9.2,9.2,0,0,0,4.23,1.19c1.82,0,2.64-.75,2.64-1.83s-.68-1.69-2.71-2.4c-3.22-1.12-4.57-2.88-4.54-4.81,0-2.91,2.41-5.18,6.23-5.18a9.66,9.66,0,0,1,4.37,1l-.81,2.94a7.42,7.42,0,0,0-3.49-1c-1.49,0-2.3.71-2.3,1.73s.78,1.56,2.88,2.3c3,1.08,4.36,2.61,4.39,5,0,3-2.33,5.15-6.7,5.15a10.75,10.75,0,0,1-5-1.15Z"/><path class="cls-3" d="M190.41,102c0,6-4.27,8.76-8.47,8.76-4.67,0-8.25-3.21-8.25-8.49s3.55-8.74,8.52-8.74S190.41,97,190.41,102Zm-12.43.17c0,3.18,1.56,5.58,4.1,5.58,2.37,0,4-2.34,4-5.65,0-2.58-1.15-5.52-4-5.52S178,99.4,178,102.15Z"/><path class="cls-3" d="M193.83,86.34H198v24h-4.19Z"/><path class="cls-3" d="M217.28,105.43c0,2,.07,3.59.14,4.94h-3.66l-.2-2.51h-.07a5.94,5.94,0,0,1-5.28,2.88c-3,0-5.75-1.79-5.75-7.17V93.89h4.16v9c0,2.75.88,4.51,3.08,4.51a3.51,3.51,0,0,0,3.18-2.24,3.65,3.65,0,0,0,.24-1.28v-10h4.16Z"/><path class="cls-3" d="M226.56,89.18v4.71h4V97h-4v7.28c0,2,.54,3,2.13,3a6.34,6.34,0,0,0,1.63-.2l.06,3.18a9,9,0,0,1-3,.41,4.82,4.82,0,0,1-3.59-1.36c-.88-.94-1.28-2.43-1.28-4.6V97h-2.37V93.89h2.37V90.16Z"/><path class="cls-3" d="M238.1,89.28A2.34,2.34,0,1,1,235.77,87,2.2,2.2,0,0,1,238.1,89.28Zm-4.43,21.09V93.89h4.2v16.48Z"/><path class="cls-3" d="M258,102c0,6-4.26,8.76-8.46,8.76-4.67,0-8.25-3.21-8.25-8.49s3.55-8.74,8.52-8.74S258,97,258,102Zm-12.42.17c0,3.18,1.56,5.58,4.1,5.58,2.37,0,4-2.34,4-5.65,0-2.58-1.15-5.52-4-5.52S245.58,99.4,245.58,102.15Z"/><path class="cls-3" d="M261.43,98.79c0-1.89,0-3.48-.14-4.9H265l.2,2.47h.1a6,6,0,0,1,5.25-2.85c2.87,0,5.85,1.87,5.85,7.08v9.78h-4.16v-9.31c0-2.37-.88-4.16-3.15-4.16a3.49,3.49,0,0,0-3.25,2.44,4.38,4.38,0,0,0-.17,1.35v9.68h-4.19Z"/><path class="cls-3" d="M280.59,106.54a9.2,9.2,0,0,0,4.23,1.19c1.82,0,2.64-.75,2.64-1.83s-.68-1.69-2.71-2.4c-3.22-1.12-4.57-2.88-4.54-4.81,0-2.91,2.41-5.18,6.23-5.18a9.66,9.66,0,0,1,4.37,1L290,97.44a7.42,7.42,0,0,0-3.49-1c-1.49,0-2.3.71-2.3,1.73s.78,1.56,2.87,2.3c3,1.08,4.37,2.61,4.4,5,0,3-2.33,5.15-6.7,5.15a10.75,10.75,0,0,1-5-1.15Z"/><path class="cls-3" d="M565.36,70.05l-2,6.47h-4.3l7.31-22.81h5.31l7.41,22.81h-4.46l-2.07-6.47Zm6.53-3.14-1.79-5.62c-.44-1.39-.82-2.95-1.15-4.27h-.07c-.34,1.32-.68,2.91-1.09,4.27L566,66.91Z"/><path class="cls-3" d="M582.28,76.52V63.15h-2.23V60h2.23v-.71a7.69,7.69,0,0,1,2-5.61,6.31,6.31,0,0,1,4.3-1.59,8,8,0,0,1,2.67.4l-.3,3.22a4.83,4.83,0,0,0-1.76-.31c-2.07,0-2.78,1.73-2.78,3.76V60H590v3.12h-3.58V76.52Z"/><path class="cls-3" d="M597.82,55.33V60h4v3.12h-4v7.28c0,2,.54,3,2.13,3a6.34,6.34,0,0,0,1.63-.2l.06,3.18a9,9,0,0,1-3,.41A4.82,4.82,0,0,1,595,75.5c-.87-1-1.28-2.44-1.28-4.6V63.15h-2.37V60h2.37V56.31Z"/><path class="cls-3" d="M607.67,69.44c.1,3,2.44,4.27,5.08,4.27a12.28,12.28,0,0,0,4.57-.75l.61,2.88a15.49,15.49,0,0,1-5.76,1c-5.34,0-8.49-3.29-8.49-8.33,0-4.57,2.77-8.87,8.05-8.87s7.11,4.4,7.11,8a9.88,9.88,0,0,1-.14,1.76Zm7.24-2.91c0-1.52-.64-4-3.41-4-2.58,0-3.66,2.33-3.83,4Z"/><path class="cls-3" d="M622.19,65.35c0-2.24,0-3.83-.13-5.32h3.62l.13,3.15H626a4.92,4.92,0,0,1,4.5-3.52,4.84,4.84,0,0,1,1,.1v3.93a5.69,5.69,0,0,0-1.22-.13,3.67,3.67,0,0,0-3.72,3.14,6.94,6.94,0,0,0-.13,1.29v8.53h-4.17Z"/><path class="cls-3" d="M634.24,64.94c0-1.89,0-3.48-.13-4.91h3.59l.17,2.44h.1A5.71,5.71,0,0,1,643,59.66a4.75,4.75,0,0,1,4.57,3.05h.07a6.38,6.38,0,0,1,2-2.07,5.53,5.53,0,0,1,3.32-1c2.74,0,5.51,1.86,5.51,7.14v9.72h-4.06V67.41c0-2.74-.94-4.36-2.94-4.36a3.17,3.17,0,0,0-2.91,2.2,6,6,0,0,0-.21,1.38v9.89h-4.06V67c0-2.3-.91-3.92-2.84-3.92a3.26,3.26,0,0,0-3,2.37,3.52,3.52,0,0,0-.23,1.35v9.75h-4.07Z"/><path class="cls-3" d="M672.22,76.52,672,74.69h-.1a6.1,6.1,0,0,1-4.87,2.2A4.89,4.89,0,0,1,661.8,72c0-4.16,3.69-6.26,9.78-6.23v-.27c0-1.08-.44-2.87-3.35-2.87a8.59,8.59,0,0,0-4.43,1.22L663,61.12a11.81,11.81,0,0,1,6-1.46c5.28,0,6.8,3.35,6.8,6.94v6a26.32,26.32,0,0,0,.24,4Zm-.54-8.06c-2.94-.07-5.75.58-5.75,3.08a2.18,2.18,0,0,0,2.37,2.37,3.37,3.37,0,0,0,3.25-2.27,3,3,0,0,0,.13-.91Z"/><path class="cls-3" d="M680.15,65.35c0-2.24,0-3.83-.14-5.32h3.62l.14,3.15h.13a4.67,4.67,0,0,1,5.49-3.42v3.93a5.76,5.76,0,0,0-1.22-.13,3.68,3.68,0,0,0-3.73,3.14,7.91,7.91,0,0,0-.13,1.29v8.53h-4.16Z"/><path class="cls-3" d="M696.36,67.28h.07a23.32,23.32,0,0,1,1.32-1.93l4-5.32h5l-6.09,6.74,7,9.75h-5.11l-4.74-7.28-1.42,1.66v5.62H692.2v-24h4.16Z"/><path class="cls-3" d="M712.13,69.44c.11,3,2.44,4.27,5.08,4.27a12.24,12.24,0,0,0,4.57-.75l.61,2.88a15.43,15.43,0,0,1-5.75,1c-5.35,0-8.5-3.29-8.5-8.33,0-4.57,2.78-8.87,8.06-8.87s7.1,4.4,7.1,8a10.09,10.09,0,0,1-.13,1.76Zm7.25-2.91c0-1.52-.65-4-3.42-4-2.57,0-3.66,2.33-3.83,4Z"/><path class="cls-3" d="M731.43,55.33V60h4v3.12h-4v7.28c0,2,.54,3,2.13,3a6.34,6.34,0,0,0,1.63-.2l.06,3.18a9,9,0,0,1-3,.41,4.82,4.82,0,0,1-3.59-1.36c-.88-1-1.28-2.44-1.28-4.6V63.15H725V60h2.37V56.31Z"/><path class="cls-3" d="M575.82,86.34v19.39c0,1.69.06,3.52.13,4.64h-3.72l-.17-2.61H572a5.93,5.93,0,0,1-5.38,3c-3.93,0-7-3.35-7-8.43,0-5.51,3.42-8.8,7.38-8.8a5.23,5.23,0,0,1,4.63,2.17h.07V86.34Zm-4.17,14.42a5.74,5.74,0,0,0-.1-1.09A3.64,3.64,0,0,0,568,96.73c-2.67,0-4.16,2.37-4.16,5.45s1.49,5.21,4.13,5.21a3.68,3.68,0,0,0,3.59-2.94,4.76,4.76,0,0,0,.13-1.22Z"/><path class="cls-3" d="M584.72,89.28A2.34,2.34,0,1,1,582.39,87,2.2,2.2,0,0,1,584.72,89.28Zm-4.43,21.09V93.89h4.19v16.48Z"/><path class="cls-3" d="M588.75,106.54a9.23,9.23,0,0,0,4.23,1.19c1.83,0,2.64-.75,2.64-1.83s-.68-1.69-2.71-2.4c-3.21-1.12-4.57-2.88-4.53-4.81,0-2.91,2.4-5.18,6.22-5.18a9.66,9.66,0,0,1,4.37,1l-.81,2.94a7.35,7.35,0,0,0-3.49-1c-1.49,0-2.3.71-2.3,1.73s.78,1.56,2.88,2.3c3,1.08,4.36,2.61,4.4,5,0,3-2.34,5.15-6.7,5.15a10.72,10.72,0,0,1-5-1.15Z"/><path class="cls-3" d="M607.84,89.18v4.71h4V97h-4v7.28c0,2,.54,3,2.13,3a6.28,6.28,0,0,0,1.63-.2l.07,3.18a9.1,9.1,0,0,1-3,.41,4.78,4.78,0,0,1-3.58-1.36c-.88-.94-1.29-2.43-1.29-4.6V97h-2.37V93.89h2.37V90.16Z"/><path class="cls-3" d="M615,99.2c0-2.23,0-3.82-.14-5.31h3.63l.13,3.14h.14a4.92,4.92,0,0,1,4.5-3.52,4.26,4.26,0,0,1,1,.11v3.92a5.69,5.69,0,0,0-1.22-.13,3.66,3.66,0,0,0-3.72,3.14,7.08,7.08,0,0,0-.14,1.29v8.53H615Z"/><path class="cls-3" d="M631.43,89.28A2.34,2.34,0,1,1,629.1,87,2.2,2.2,0,0,1,631.43,89.28ZM627,110.37V93.89h4.2v16.48Z"/><path class="cls-3" d="M635.53,110.37c.07-1.12.14-3,.14-4.64V86.34h4.16v9.81h.07a6,6,0,0,1,5.28-2.64c4,0,6.9,3.35,6.87,8.36,0,5.93-3.76,8.87-7.48,8.87a5.66,5.66,0,0,1-5.21-2.84h-.07l-.21,2.47Zm4.3-6.8a4.53,4.53,0,0,0,.1,1,3.84,3.84,0,0,0,3.69,2.91c2.61,0,4.2-2.1,4.2-5.42,0-2.91-1.39-5.28-4.17-5.28a3.91,3.91,0,0,0-3.69,3,5.51,5.51,0,0,0-.13,1.08Z"/><path class="cls-3" d="M670.23,105.43c0,2,.06,3.59.13,4.94h-3.65l-.21-2.51h-.06a6,6,0,0,1-5.28,2.88c-3,0-5.76-1.79-5.76-7.17V93.89h4.16v9c0,2.75.88,4.51,3.08,4.51a3.52,3.52,0,0,0,3.19-2.24,3.89,3.89,0,0,0,.23-1.28v-10h4.17Z"/><path class="cls-3" d="M679.5,89.18v4.71h4V97h-4v7.28c0,2,.54,3,2.13,3a6.22,6.22,0,0,0,1.63-.2l.07,3.18a9.1,9.1,0,0,1-3,.41,4.8,4.8,0,0,1-3.58-1.36c-.88-.94-1.29-2.43-1.29-4.6V97h-2.37V93.89h2.37V90.16Z"/><path class="cls-3" d="M691.05,89.28a2.21,2.21,0,0,1-2.37,2.24,2.19,2.19,0,0,1-2.3-2.24,2.34,2.34,0,0,1,4.67,0Zm-4.44,21.09V93.89h4.2v16.48Z"/><path class="cls-3" d="M711,102c0,6-4.27,8.76-8.46,8.76-4.67,0-8.26-3.21-8.26-8.49s3.55-8.74,8.53-8.74S711,97,711,102Zm-12.42.17c0,3.18,1.55,5.58,4.09,5.58,2.37,0,4-2.34,4-5.65,0-2.58-1.15-5.52-4-5.52S698.53,99.4,698.53,102.15Z"/><path class="cls-3" d="M714.37,98.79c0-1.89,0-3.48-.14-4.9h3.66l.2,2.47h.1a6,6,0,0,1,5.25-2.85c2.88,0,5.85,1.87,5.85,7.08v9.78h-4.16v-9.31c0-2.37-.88-4.16-3.15-4.16a3.48,3.48,0,0,0-3.24,2.44,4.1,4.1,0,0,0-.17,1.35v9.68h-4.2Z"/><path class="cls-3" d="M75.51,205a22.9,22.9,0,0,1,4.24-.36c2.36,0,3.89.44,5,1.4a4.24,4.24,0,0,1,1.35,3.25,4.5,4.5,0,0,1-3.22,4.37v.07c1.32.46,2.1,1.68,2.51,3.46a27.49,27.49,0,0,0,1.32,4.7H84.37a22.3,22.3,0,0,1-1.14-4.09c-.51-2.36-1.42-3.25-3.43-3.33H77.72v7.42H75.51Zm2.21,7.8H80c2.36,0,3.86-1.3,3.86-3.25,0-2.21-1.6-3.18-3.93-3.2a9.3,9.3,0,0,0-2.19.2Z"/><path class="cls-3" d="M90.44,216.14a3.93,3.93,0,0,0,4.22,4.26,8.17,8.17,0,0,0,3.4-.63l.38,1.6a10.06,10.06,0,0,1-4.09.76c-3.78,0-6-2.49-6-6.2s2.18-6.62,5.76-6.62c4,0,5.08,3.53,5.08,5.79a7.57,7.57,0,0,1-.08,1Zm6.55-1.6c0-1.42-.58-3.63-3.1-3.63-2.26,0-3.25,2.08-3.42,3.63Z"/><path class="cls-3" d="M101.92,212.91c0-1.27,0-2.31-.1-3.32h2l.1,2H104a4.23,4.23,0,0,1,3.86-2.26,3.64,3.64,0,0,1,3.48,2.46h0a5,5,0,0,1,1.37-1.6,4.17,4.17,0,0,1,2.71-.86c1.63,0,4,1.06,4,5.33v7.24h-2.18v-7c0-2.36-.86-3.79-2.67-3.79a2.89,2.89,0,0,0-2.64,2,3.68,3.68,0,0,0-.18,1.11v7.6h-2.18v-7.37c0-1.95-.86-3.38-2.56-3.38a3,3,0,0,0-2.77,2.24,3,3,0,0,0-.18,1.09v7.42h-2.18Z"/><path class="cls-3" d="M134.21,215.63c0,4.54-3.15,6.52-6.12,6.52-3.32,0-5.89-2.43-5.89-6.32,0-4.11,2.69-6.52,6.1-6.52S134.21,211.87,134.21,215.63Zm-9.75.13c0,2.69,1.55,4.72,3.73,4.72s3.74-2,3.74-4.77c0-2.09-1-4.73-3.68-4.73S124.46,213.42,124.46,215.76Z"/><path class="cls-3" d="M139.72,206.06v3.53h3.2v1.7h-3.2v6.62c0,1.53.43,2.39,1.68,2.39a5.27,5.27,0,0,0,1.29-.15l.1,1.67a5.37,5.37,0,0,1-2,.31,3.09,3.09,0,0,1-2.41-.94,4.57,4.57,0,0,1-.86-3.2v-6.7h-1.91v-1.7h1.91v-3Z"/><path class="cls-3" d="M146.52,216.14c.06,3,2,4.26,4.22,4.26a8.17,8.17,0,0,0,3.4-.63l.38,1.6a10,10,0,0,1-4.09.76c-3.78,0-6-2.49-6-6.2s2.19-6.62,5.77-6.62c4,0,5.07,3.53,5.07,5.79a10.18,10.18,0,0,1-.07,1Zm6.56-1.6c0-1.42-.59-3.63-3.1-3.63-2.26,0-3.25,2.08-3.43,3.63Z"/><path class="cls-3" d="M174,203.85V218.7c0,1.09,0,2.34.1,3.18h-2l-.1-2.14h-.05a4.56,4.56,0,0,1-4.19,2.41c-3,0-5.26-2.51-5.26-6.24,0-4.09,2.52-6.6,5.51-6.6a4.12,4.12,0,0,1,3.71,1.88h0v-7.34Zm-2.24,10.74a3.76,3.76,0,0,0-.1-.94,3.29,3.29,0,0,0-3.23-2.59c-2.31,0-3.68,2-3.68,4.75,0,2.48,1.22,4.54,3.63,4.54a3.37,3.37,0,0,0,3.28-2.66,3.75,3.75,0,0,0,.1-1Z"/><path class="cls-3" d="M180.19,206.13a1.39,1.39,0,0,1-2.77,0,1.36,1.36,0,0,1,1.4-1.39A1.32,1.32,0,0,1,180.19,206.13Zm-2.49,15.75V209.59h2.24v12.29Z"/><path class="cls-3" d="M190.45,221.88l-.18-1.55h-.08a4.57,4.57,0,0,1-3.76,1.82,3.5,3.5,0,0,1-3.75-3.52c0-3,2.64-4.6,7.39-4.58v-.25a2.54,2.54,0,0,0-2.8-2.84,6.13,6.13,0,0,0-3.2.91l-.5-1.47a7.58,7.58,0,0,1,4-1.09c3.76,0,4.67,2.56,4.67,5v4.6a17.55,17.55,0,0,0,.21,2.95Zm-.33-6.28c-2.44,0-5.21.38-5.21,2.77A2,2,0,0,0,187,220.5a3.06,3.06,0,0,0,3-2.05,2.27,2.27,0,0,0,.13-.71Z"/><path class="cls-3" d="M206.47,209.59c-.05.88-.1,1.87-.1,3.37v7.14c0,2.82-.56,4.54-1.76,5.61a6.49,6.49,0,0,1-4.47,1.47,7.91,7.91,0,0,1-4.08-1l.56-1.71a6.89,6.89,0,0,0,3.6,1c2.29,0,4-1.19,4-4.29v-1.37h-.05a4.37,4.37,0,0,1-3.91,2c-3.05,0-5.23-2.59-5.23-6,0-4.16,2.72-6.52,5.54-6.52a4.07,4.07,0,0,1,3.83,2.13h0l.1-1.85Zm-2.31,4.85a3.28,3.28,0,0,0-3.25-3.38c-2.14,0-3.66,1.8-3.66,4.65,0,2.41,1.22,4.41,3.63,4.41a3.27,3.27,0,0,0,3.1-2.28,3.8,3.8,0,0,0,.18-1.2Z"/><path class="cls-3" d="M209.92,212.91c0-1.27,0-2.31-.1-3.32h2l.12,2H212a4.53,4.53,0,0,1,4.07-2.31c1.7,0,4.34,1,4.34,5.23v7.34h-2.24v-7.09c0-2-.73-3.63-2.84-3.63a3.27,3.27,0,0,0-3.15,3.33v7.39h-2.23Z"/><path class="cls-3" d="M235.13,215.63c0,4.54-3.15,6.52-6.12,6.52-3.33,0-5.89-2.43-5.89-6.32,0-4.11,2.69-6.52,6.09-6.52S235.13,211.87,235.13,215.63Zm-9.75.13c0,2.69,1.55,4.72,3.73,4.72s3.73-2,3.73-4.77c0-2.09-1-4.73-3.68-4.73S225.38,213.42,225.38,215.76Z"/><path class="cls-3" d="M237.64,219.59a5.88,5.88,0,0,0,3,.89c1.62,0,2.38-.81,2.38-1.83s-.63-1.65-2.28-2.26c-2.21-.79-3.25-2-3.25-3.48,0-2,1.6-3.6,4.24-3.6a6.08,6.08,0,0,1,3,.76l-.56,1.62a4.81,4.81,0,0,0-2.51-.71c-1.32,0-2.06.76-2.06,1.68s.74,1.47,2.34,2.08c2.13.81,3.22,1.88,3.22,3.71,0,2.16-1.67,3.68-4.59,3.68a7,7,0,0,1-3.46-.84Z"/><path class="cls-3" d="M250.69,206.06v3.53h3.2v1.7h-3.2v6.62c0,1.53.43,2.39,1.68,2.39a5.27,5.27,0,0,0,1.29-.15l.1,1.67a5.37,5.37,0,0,1-2,.31,3.1,3.1,0,0,1-2.41-.94,4.57,4.57,0,0,1-.86-3.2v-6.7H246.6v-1.7h1.91v-3Z"/><path class="cls-3" d="M258.89,206.13a1.38,1.38,0,0,1-2.76,0,1.36,1.36,0,0,1,1.39-1.39A1.32,1.32,0,0,1,258.89,206.13Zm-2.49,15.75V209.59h2.24v12.29Z"/><path class="cls-3" d="M271.1,221.42a8.24,8.24,0,0,1-3.52.71c-3.71,0-6.12-2.51-6.12-6.27a6.24,6.24,0,0,1,6.6-6.53,7.39,7.39,0,0,1,3.1.64l-.51,1.72a5.26,5.26,0,0,0-2.59-.58c-2.82,0-4.34,2.08-4.34,4.65,0,2.84,1.82,4.59,4.26,4.59a6.31,6.31,0,0,0,2.74-.61Z"/><path class="cls-3" d="M273.41,219.59a5.88,5.88,0,0,0,2.95.89c1.62,0,2.39-.81,2.39-1.83s-.64-1.65-2.29-2.26c-2.21-.79-3.25-2-3.25-3.48,0-2,1.6-3.6,4.24-3.6a6.05,6.05,0,0,1,3,.76l-.56,1.62a4.81,4.81,0,0,0-2.51-.71c-1.32,0-2.06.76-2.06,1.68s.74,1.47,2.34,2.08c2.13.81,3.22,1.88,3.22,3.71,0,2.16-1.67,3.68-4.59,3.68a7,7,0,0,1-3.45-.84Z"/><path class="cls-3" d="M75.51,260.38a22.9,22.9,0,0,1,4.24-.36c2.36,0,3.89.44,5,1.4a4.24,4.24,0,0,1,1.35,3.25A4.5,4.5,0,0,1,82.83,269v.07c1.32.46,2.1,1.68,2.51,3.46a27,27,0,0,0,1.32,4.69H84.37a21.84,21.84,0,0,1-1.14-4.08c-.51-2.37-1.42-3.25-3.43-3.33H77.72v7.41H75.51Zm2.21,7.79H80c2.36,0,3.86-1.29,3.86-3.25,0-2.21-1.6-3.17-3.93-3.2a9.13,9.13,0,0,0-2.19.21Z"/><path class="cls-3" d="M100.32,271c0,4.54-3.15,6.52-6.12,6.52-3.33,0-5.89-2.43-5.89-6.32,0-4.11,2.69-6.52,6.09-6.52S100.32,267.26,100.32,271Zm-9.75.12c0,2.7,1.55,4.73,3.73,4.73s3.73-2,3.73-4.78c0-2.08-1-4.72-3.68-4.72S90.57,268.81,90.57,271.14Z"/><path class="cls-3" d="M109.94,277.26l-.18-1.55h-.07a4.58,4.58,0,0,1-3.76,1.83,3.5,3.5,0,0,1-3.76-3.53c0-3,2.64-4.59,7.39-4.57v-.25a2.53,2.53,0,0,0-2.79-2.84,6.08,6.08,0,0,0-3.2.91l-.51-1.47a7.65,7.65,0,0,1,4-1.09c3.75,0,4.67,2.56,4.67,5v4.6a17.49,17.49,0,0,0,.2,2.94Zm-.33-6.27c-2.44-.05-5.2.38-5.2,2.77a2,2,0,0,0,2.1,2.13,3,3,0,0,0,3-2.05,2.27,2.27,0,0,0,.13-.71Z"/><path class="cls-3" d="M126,259.24v14.85c0,1.09,0,2.34.1,3.17h-2l-.1-2.13h0a4.55,4.55,0,0,1-4.19,2.41c-3,0-5.26-2.51-5.26-6.24,0-4.09,2.52-6.6,5.51-6.6a4.11,4.11,0,0,1,3.71,1.87h0v-7.33ZM123.75,270a3.76,3.76,0,0,0-.1-.94,3.29,3.29,0,0,0-3.22-2.59c-2.31,0-3.69,2-3.69,4.75,0,2.48,1.22,4.54,3.64,4.54a3.36,3.36,0,0,0,3.27-2.67,3.68,3.68,0,0,0,.1-1Z"/><path class="cls-3" d="M129.39,275a5.87,5.87,0,0,0,2.94.89c1.63,0,2.39-.82,2.39-1.83s-.64-1.65-2.29-2.26c-2.2-.79-3.25-2-3.25-3.48,0-2,1.6-3.6,4.24-3.6a6.13,6.13,0,0,1,3,.76l-.56,1.62a4.82,4.82,0,0,0-2.52-.71c-1.32,0-2.05.76-2.05,1.68s.73,1.47,2.33,2.08c2.14.81,3.23,1.88,3.23,3.71,0,2.15-1.68,3.68-4.6,3.68a7,7,0,0,1-3.45-.84Z"/><path class="cls-3" d="M142.23,261.52a1.31,1.31,0,0,1-1.42,1.37,1.33,1.33,0,0,1-1.34-1.37,1.35,1.35,0,0,1,1.39-1.39A1.32,1.32,0,0,1,142.23,261.52Zm-2.48,15.74V265H142v12.29Z"/><path class="cls-3" d="M156.3,259.24v14.85c0,1.09,0,2.34.1,3.17h-2l-.11-2.13h0a4.54,4.54,0,0,1-4.19,2.41c-3,0-5.25-2.51-5.25-6.24,0-4.09,2.51-6.6,5.51-6.6a4.08,4.08,0,0,1,3.7,1.87h.06v-7.33ZM154.07,270A3.77,3.77,0,0,0,154,269a3.28,3.28,0,0,0-3.22-2.59c-2.31,0-3.68,2-3.68,4.75,0,2.48,1.22,4.54,3.63,4.54a3.35,3.35,0,0,0,3.27-2.67,3.67,3.67,0,0,0,.11-1Z"/><path class="cls-3" d="M161.25,271.53c.05,3,2,4.26,4.21,4.26a8.22,8.22,0,0,0,3.41-.63l.38,1.6a10.06,10.06,0,0,1-4.09.76c-3.78,0-6-2.49-6-6.2s2.18-6.62,5.76-6.62c4,0,5.08,3.52,5.08,5.78a7.61,7.61,0,0,1-.08,1Zm6.55-1.6c0-1.43-.58-3.64-3.1-3.64-2.26,0-3.25,2.09-3.42,3.64Z"/><path class="cls-3" d="M184.91,277.26l-.18-1.55h-.07a4.58,4.58,0,0,1-3.76,1.83,3.5,3.5,0,0,1-3.76-3.53c0-3,2.64-4.59,7.39-4.57v-.25a2.53,2.53,0,0,0-2.79-2.84,6.11,6.11,0,0,0-3.2.91l-.51-1.47a7.65,7.65,0,0,1,4-1.09c3.76,0,4.67,2.56,4.67,5v4.6a17.49,17.49,0,0,0,.2,2.94Zm-.33-6.27c-2.44-.05-5.2.38-5.2,2.77a2,2,0,0,0,2.1,2.13,3.07,3.07,0,0,0,3-2.05,2.58,2.58,0,0,0,.12-.71Z"/><path class="cls-3" d="M190,275a5.88,5.88,0,0,0,3,.89c1.62,0,2.38-.82,2.38-1.83s-.63-1.65-2.28-2.26c-2.21-.79-3.25-2-3.25-3.48,0-2,1.6-3.6,4.24-3.6a6.11,6.11,0,0,1,3,.76l-.56,1.62a4.81,4.81,0,0,0-2.51-.71c-1.32,0-2.06.76-2.06,1.68s.74,1.47,2.34,2.08c2.13.81,3.22,1.88,3.22,3.71,0,2.15-1.68,3.68-4.6,3.68a7,7,0,0,1-3.45-.84Z"/><path class="cls-3" d="M200.09,275a5.88,5.88,0,0,0,2.95.89c1.62,0,2.39-.82,2.39-1.83s-.64-1.65-2.29-2.26c-2.21-.79-3.25-2-3.25-3.48,0-2,1.6-3.6,4.24-3.6a6.05,6.05,0,0,1,3,.76l-.56,1.62a4.81,4.81,0,0,0-2.51-.71c-1.32,0-2.06.76-2.06,1.68s.74,1.47,2.34,2.08c2.13.81,3.22,1.88,3.22,3.71,0,2.15-1.67,3.68-4.59,3.68a7,7,0,0,1-3.45-.84Z"/><path class="cls-3" d="M212.94,261.52a1.31,1.31,0,0,1-1.42,1.37,1.33,1.33,0,0,1-1.35-1.37,1.36,1.36,0,0,1,1.4-1.39A1.32,1.32,0,0,1,212.94,261.52Zm-2.49,15.74V265h2.24v12.29Z"/><path class="cls-3" d="M216.09,275a5.87,5.87,0,0,0,2.94.89c1.63,0,2.39-.82,2.39-1.83s-.63-1.65-2.29-2.26c-2.2-.79-3.25-2-3.25-3.48,0-2,1.6-3.6,4.25-3.6a6.11,6.11,0,0,1,3,.76l-.56,1.62a4.82,4.82,0,0,0-2.52-.71c-1.32,0-2,.76-2,1.68s.73,1.47,2.33,2.08c2.14.81,3.23,1.88,3.23,3.71,0,2.15-1.68,3.68-4.6,3.68a7,7,0,0,1-3.45-.84Z"/><path class="cls-3" d="M229.14,261.45V265h3.2v1.71h-3.2v6.62c0,1.53.43,2.39,1.67,2.39a5.29,5.29,0,0,0,1.3-.15l.1,1.67a5.41,5.41,0,0,1-2,.31,3.09,3.09,0,0,1-2.41-.94,4.52,4.52,0,0,1-.87-3.2v-6.7h-1.9V265H227V262Z"/><path class="cls-3" d="M241.65,277.26l-.17-1.55h-.08a4.58,4.58,0,0,1-3.76,1.83,3.5,3.5,0,0,1-3.76-3.53c0-3,2.65-4.59,7.39-4.57v-.25a2.53,2.53,0,0,0-2.79-2.84,6.11,6.11,0,0,0-3.2.91l-.51-1.47a7.65,7.65,0,0,1,4-1.09c3.76,0,4.67,2.56,4.67,5v4.6a16.44,16.44,0,0,0,.21,2.94Zm-.33-6.27c-2.43-.05-5.2.38-5.2,2.77a2,2,0,0,0,2.11,2.13,3.06,3.06,0,0,0,3-2.05,2.58,2.58,0,0,0,.12-.71Z"/><path class="cls-3" d="M247.09,268.3c0-1.27,0-2.31-.1-3.33h2l.12,2h0a4.52,4.52,0,0,1,4.07-2.31c1.7,0,4.34,1,4.34,5.23v7.33h-2.24v-7.08c0-2-.73-3.63-2.84-3.63a3.18,3.18,0,0,0-3,2.28,3.28,3.28,0,0,0-.15,1.05v7.38h-2.23Z"/><path class="cls-3" d="M269.94,276.81a8.33,8.33,0,0,1-3.53.71c-3.71,0-6.12-2.52-6.12-6.27a6.24,6.24,0,0,1,6.6-6.53,7.39,7.39,0,0,1,3.1.64l-.51,1.72a5.23,5.23,0,0,0-2.59-.58c-2.82,0-4.34,2.08-4.34,4.64,0,2.85,1.83,4.6,4.26,4.6a6.39,6.39,0,0,0,2.75-.61Z"/><path class="cls-3" d="M273.64,271.53a3.93,3.93,0,0,0,4.22,4.26,8.17,8.17,0,0,0,3.4-.63l.38,1.6a10.06,10.06,0,0,1-4.09.76c-3.78,0-6-2.49-6-6.2s2.18-6.62,5.76-6.62c4,0,5.08,3.52,5.08,5.78a10.2,10.2,0,0,1-.07,1Zm6.55-1.6c0-1.43-.58-3.64-3.09-3.64-2.26,0-3.25,2.09-3.43,3.64Z"/><path class="cls-3" d="M75.51,315.74a25.46,25.46,0,0,1,4.24-.33,7,7,0,0,1,4.8,1.42,4.62,4.62,0,0,1,1.5,3.58,5.06,5.06,0,0,1-1.32,3.66A7.11,7.11,0,0,1,79.5,326a8,8,0,0,1-1.78-.15v6.85H75.51ZM77.72,324a7.24,7.24,0,0,0,1.83.18c2.67,0,4.29-1.29,4.29-3.66s-1.6-3.35-4-3.35a9.33,9.33,0,0,0-2.08.18Z"/><path class="cls-3" d="M88.54,324.2c0-1.45,0-2.7-.1-3.84h2l.08,2.41h.1a3.68,3.68,0,0,1,3.4-2.69,2.55,2.55,0,0,1,.64.08v2.11a3.44,3.44,0,0,0-.77-.08,3.13,3.13,0,0,0-3,2.87,6.33,6.33,0,0,0-.1,1v6.55H88.54Z"/><path class="cls-3" d="M97.83,326.91c0,3,2,4.27,4.21,4.27a8,8,0,0,0,3.41-.64l.38,1.6a9.89,9.89,0,0,1-4.09.77c-3.78,0-6-2.49-6-6.2s2.18-6.63,5.76-6.63c4,0,5.08,3.53,5.08,5.79a7.43,7.43,0,0,1-.08,1Zm6.55-1.6c0-1.42-.58-3.63-3.1-3.63-2.26,0-3.25,2.08-3.43,3.63Z"/><path class="cls-3" d="M119.92,314.62v14.86c0,1.09,0,2.33.1,3.17h-2l-.1-2.13h0a4.54,4.54,0,0,1-4.19,2.41c-3,0-5.25-2.51-5.25-6.25,0-4.08,2.51-6.6,5.51-6.6a4.11,4.11,0,0,1,3.7,1.88h.05v-7.34Zm-2.24,10.74a3.76,3.76,0,0,0-.1-.94,3.29,3.29,0,0,0-3.22-2.59c-2.31,0-3.68,2-3.68,4.75,0,2.49,1.21,4.55,3.63,4.55a3.35,3.35,0,0,0,3.27-2.67,3.68,3.68,0,0,0,.1-1Z"/><path class="cls-3" d="M126.11,316.91a1.31,1.31,0,0,1-1.42,1.37,1.33,1.33,0,0,1-1.35-1.37,1.37,1.37,0,0,1,1.4-1.4A1.33,1.33,0,0,1,126.11,316.91Zm-2.49,15.74V320.36h2.24v12.29Z"/><path class="cls-3" d="M138.32,332.19a8.07,8.07,0,0,1-3.53.72c-3.7,0-6.11-2.52-6.11-6.28a6.24,6.24,0,0,1,6.6-6.52,7.57,7.57,0,0,1,3.1.63l-.51,1.73a5.26,5.26,0,0,0-2.59-.58c-2.82,0-4.34,2.08-4.34,4.64,0,2.85,1.82,4.6,4.26,4.6a6.31,6.31,0,0,0,2.74-.61Z"/><path class="cls-3" d="M144,316.83v3.53h3.2v1.7H144v6.63c0,1.52.43,2.39,1.68,2.39a4.73,4.73,0,0,0,1.29-.16l.1,1.68a5.37,5.37,0,0,1-2,.31,3.09,3.09,0,0,1-2.41-.94,4.54,4.54,0,0,1-.86-3.2v-6.71h-1.91v-1.7h1.91v-2.94Z"/><path class="cls-3" d="M152.16,316.91a1.31,1.31,0,0,1-1.42,1.37,1.33,1.33,0,0,1-1.35-1.37,1.37,1.37,0,0,1,1.4-1.4A1.33,1.33,0,0,1,152.16,316.91Zm-2.49,15.74V320.36h2.24v12.29Z"/><path class="cls-3" d="M156.48,320.36l2.41,6.91c.4,1.12.73,2.13,1,3.15H160c.28-1,.64-2,1.05-3.15l2.38-6.91h2.34l-4.83,12.29h-2.13l-4.67-12.29Z"/><path class="cls-3" d="M168.81,326.91c.06,3,2,4.27,4.22,4.27a8,8,0,0,0,3.4-.64l.38,1.6a9.82,9.82,0,0,1-4.09.77c-3.78,0-6-2.49-6-6.2s2.19-6.63,5.77-6.63c4,0,5.07,3.53,5.07,5.79a10,10,0,0,1-.07,1Zm6.56-1.6c0-1.42-.59-3.63-3.1-3.63-2.26,0-3.25,2.08-3.43,3.63Z"/><path class="cls-3" d="M185.67,323.69c0-1.27,0-2.31-.1-3.33h2l.1,2h.07a4.24,4.24,0,0,1,3.86-2.26,3.63,3.63,0,0,1,3.48,2.47h.05a5.09,5.09,0,0,1,1.37-1.6,4.2,4.2,0,0,1,2.72-.87c1.62,0,4,1.07,4,5.34v7.23H201v-7c0-2.36-.86-3.78-2.66-3.78a2.89,2.89,0,0,0-2.64,2,3.75,3.75,0,0,0-.18,1.12v7.59h-2.18v-7.36c0-2-.87-3.38-2.57-3.38a3.06,3.06,0,0,0-2.77,2.24,3.23,3.23,0,0,0-.17,1.09v7.41h-2.19Z"/><path class="cls-3" d="M213.65,332.65l-.18-1.55h-.07a4.58,4.58,0,0,1-3.76,1.83,3.5,3.5,0,0,1-3.76-3.53c0-3,2.64-4.59,7.39-4.57v-.25a2.54,2.54,0,0,0-2.79-2.85,6.09,6.09,0,0,0-3.2.92l-.51-1.48a7.65,7.65,0,0,1,4-1.09c3.75,0,4.67,2.57,4.67,5v4.6a17.57,17.57,0,0,0,.2,2.94Zm-.33-6.27c-2.44-.05-5.2.38-5.2,2.77a2,2,0,0,0,2.1,2.13,3.05,3.05,0,0,0,3-2.06,2.17,2.17,0,0,0,.13-.71Z"/><path class="cls-3" d="M221.57,316.91a1.31,1.31,0,0,1-1.42,1.37,1.33,1.33,0,0,1-1.35-1.37,1.37,1.37,0,0,1,1.4-1.4A1.33,1.33,0,0,1,221.57,316.91Zm-2.49,15.74V320.36h2.24v12.29Z"/><path class="cls-3" d="M225,323.69c0-1.27,0-2.31-.1-3.33h2l.13,2h.05a4.53,4.53,0,0,1,4.06-2.31c1.7,0,4.34,1,4.34,5.23v7.34h-2.23v-7.08c0-2-.74-3.63-2.84-3.63a3.17,3.17,0,0,0-3,2.28,3.26,3.26,0,0,0-.15,1v7.39H225Z"/><path class="cls-3" d="M241.7,316.83v3.53h3.2v1.7h-3.2v6.63c0,1.52.44,2.39,1.68,2.39a4.67,4.67,0,0,0,1.29-.16l.11,1.68a5.45,5.45,0,0,1-2,.31,3.11,3.11,0,0,1-2.42-.94,4.59,4.59,0,0,1-.86-3.2v-6.71h-1.9v-1.7h1.9v-2.94Z"/><path class="cls-3" d="M248.51,326.91c.05,3,2,4.27,4.21,4.27a8,8,0,0,0,3.41-.64l.38,1.6a9.89,9.89,0,0,1-4.09.77c-3.79,0-6-2.49-6-6.2s2.18-6.63,5.76-6.63c4,0,5.08,3.53,5.08,5.79a7.43,7.43,0,0,1-.08,1Zm6.55-1.6c0-1.42-.59-3.63-3.1-3.63-2.26,0-3.25,2.08-3.43,3.63Z"/><path class="cls-3" d="M260,323.69c0-1.27,0-2.31-.1-3.33h2l.13,2H262a4.53,4.53,0,0,1,4.06-2.31c1.7,0,4.34,1,4.34,5.23v7.34h-2.23v-7.08c0-2-.74-3.63-2.84-3.63a3.17,3.17,0,0,0-3,2.28,3.26,3.26,0,0,0-.15,1v7.39H260Z"/><path class="cls-3" d="M280.88,332.65l-.18-1.55h-.07a4.58,4.58,0,0,1-3.76,1.83,3.5,3.5,0,0,1-3.76-3.53c0-3,2.64-4.59,7.39-4.57v-.25a2.54,2.54,0,0,0-2.79-2.85,6.09,6.09,0,0,0-3.2.92l-.51-1.48a7.62,7.62,0,0,1,4-1.09c3.75,0,4.67,2.57,4.67,5v4.6a17.57,17.57,0,0,0,.2,2.94Zm-.33-6.27c-2.44-.05-5.21.38-5.21,2.77a2,2,0,0,0,2.11,2.13,3.05,3.05,0,0,0,3-2.06,2.17,2.17,0,0,0,.13-.71Z"/><path class="cls-3" d="M286.31,323.69c0-1.27,0-2.31-.1-3.33h2l.13,2h.05a4.53,4.53,0,0,1,4.06-2.31c1.7,0,4.34,1,4.34,5.23v7.34h-2.23v-7.08c0-2-.74-3.63-2.85-3.63a3.17,3.17,0,0,0-3,2.28,3.26,3.26,0,0,0-.15,1v7.39h-2.24Z"/><path class="cls-3" d="M309.16,332.19a8.11,8.11,0,0,1-3.53.72c-3.7,0-6.12-2.52-6.12-6.28a6.24,6.24,0,0,1,6.61-6.52,7.52,7.52,0,0,1,3.09.63l-.5,1.73a5.29,5.29,0,0,0-2.59-.58c-2.82,0-4.35,2.08-4.35,4.64,0,2.85,1.83,4.6,4.27,4.6a6.31,6.31,0,0,0,2.74-.61Z"/><path class="cls-3" d="M312.87,326.91c.05,3,2,4.27,4.21,4.27a8,8,0,0,0,3.41-.64l.38,1.6a9.89,9.89,0,0,1-4.09.77c-3.78,0-6-2.49-6-6.2s2.18-6.63,5.76-6.63c4,0,5.08,3.53,5.08,5.79a7.43,7.43,0,0,1-.08,1Zm6.55-1.6c0-1.42-.59-3.63-3.1-3.63-2.26,0-3.25,2.08-3.43,3.63Z"/><circle class="cls-4" cx="47" cy="211" r="4.5"/><circle class="cls-4" cx="47" cy="269" r="4.5"/><circle class="cls-4" cx="47" cy="323" r="4.5"/><path class="cls-3" d="M59.42,99.51v5.95H68v11.21H59.41v8.58H48.24V114.14H56.7v-6H48.25V96.92h8.44v-6H48.26V79.71h8.43V73.64H48.28V62.46h8.39V56.39H48.26V45.25H59.31v8.47H68V65H59.42v6H68V82.26H59.42v6H68V99.51Zm0-37.13H65.3v-6H59.41Zm0,17.22h5.89V73.67H59.42Zm-8.6-25.89H56.7V47.85H50.82Zm0,17.24h5.88V65.09H50.81Zm0,17.25h5.87V82.34H50.81Zm14.5,2.72H59.43V96.8h5.88Zm-8.59,8.66H50.84v5.86h5.88Zm8.59,14.48v-5.89H59.43v5.89Zm-14.5,8.64h5.87v-5.91H50.81Z"/><path class="cls-3" d="M80.92,96.37v11H69.81v-11ZM78.28,99h-5.9v5.83h5.9Z"/><path class="cls-3" d="M95.73,88.34v11.1H84.62V88.34ZM87.2,90.91v5.9h6v-5.9Z"/><path class="cls-3" d="M84.62,71.55H95.73V82.61H84.62Zm2.57,8.51h5.94V74.13H87.19Z"/><path class="cls-3" d="M80.89,73.56H69.81V62.51H80.89ZM72.4,65.05V71h5.86v-5.9Z"/><path class="cls-3" d="M69.8,90.78v-11H80.89v11Zm8.46-2.54v-5.9H72.4v5.9Z"/><path class="cls-3" d="M111.59,80.08a5.19,5.19,0,0,1,0,10.38,5.19,5.19,0,1,1,0-10.38Zm-.17,7.77a2.62,2.62,0,0,0,2.78-2.48,2.68,2.68,0,0,0-2.55-2.73,2.63,2.63,0,0,0-2.72,2.55A2.59,2.59,0,0,0,111.42,87.85Z"/><path class="cls-3" d="M529.23,47.57c0,.36,0,.73,0,1.09q0,25.55,0,51.08v1.18H501.86l9.27,25.6-2.74,1c-.82-2.27-1.62-4.45-2.41-6.63-2.31-6.37-4.63-12.73-6.91-19.11a1,1,0,0,0-1.16-.84c-1.71,0-3.43,0-5.23,0v25.51h-2.92V100.93h-2.85c-.85,0-1.7,0-2.55,0a1.12,1.12,0,0,0-1.31.89C480,110.2,477,118.59,474,127c-.07.2-.12.4-.18.6h-.18L471,126.45,480.26,101c-.44,0-.71,0-1,0H453.86a7.4,7.4,0,0,0-.81.08V47.57ZM456,98h70.27V50.56H456Z"/><path class="cls-3" d="M465,89.32l-1.4-2.56,23.85-13.15-3-4.74,13.43-.52-6.25,11.89L489,76.08Z"/><path class="cls-3" d="M472.41,66.81A5.85,5.85,0,1,1,478.24,61,5.86,5.86,0,0,1,472.41,66.81Zm2.95-5.87a3,3,0,0,0-5.92,0,3,3,0,1,0,5.92,0Z"/><path class="cls-3" d="M515.6,63.3a5.84,5.84,0,1,1-5.85-5.91A5.84,5.84,0,0,1,515.6,63.3Zm-8.78-.14a2.94,2.94,0,1,0,3-2.86A2.94,2.94,0,0,0,506.82,63.16Z"/><path class="cls-3" d="M503.93,86.33a5.84,5.84,0,1,1,5.86,5.87A5.83,5.83,0,0,1,503.93,86.33Zm8.76,0a2.94,2.94,0,1,0-2.93,3A3,3,0,0,0,512.69,86.36Z"/><path class="cls-3" d="M876.94,83.34h4.83a35.71,35.71,0,0,1,3.77-12.86,5.39,5.39,0,0,1-.77-7.36c1.6-2.07,4.1-2.5,6.84-1.24,1.53-1.26,3-2.58,4.56-3.72s3.23-2.08,5-3.18l1.2,2.39a25.06,25.06,0,0,0-2.41,1.41c-2,1.51-4,3.08-6,4.63a.8.8,0,0,0-.25,1.06,5.21,5.21,0,0,1-5.06,7.1,1.22,1.22,0,0,0-.91.41,31.48,31.48,0,0,0-3.29,10.92,2,2,0,0,0,0,.41h4.47l-6,10.4-5-8.71c-.3-.5-.63-1-.95-1.48Zm11.92-19.6a2.61,2.61,0,0,0-2.63,2.65,2.64,2.64,0,1,0,2.63-2.65Z"/><path class="cls-3" d="M914.42,101a7.22,7.22,0,0,1,.05,1.65,11.44,11.44,0,0,1-.65,1.74c-.34.92-.84,1.48-2,1.22-.71-.16-1.91,1-1.75,1.78.25,1.14-.33,1.62-1.23,2-.47.19-.94.36-1.4.57a1.4,1.4,0,0,1-2.07-.57,1.88,1.88,0,0,0-2.56,0,1.41,1.41,0,0,1-2.07.57,13.31,13.31,0,0,0-1.24-.49c-1-.38-1.69-.86-1.38-2.14.16-.67-1.08-1.85-1.76-1.69a1.48,1.48,0,0,1-1.93-1.14c-.18-.5-.38-1-.6-1.48a1.46,1.46,0,0,1,.54-2.09,1.75,1.75,0,0,0-.06-2.41,1.33,1.33,0,0,1-.51-1.94c.22-.48.38-1,.58-1.49.36-.87.78-1.53,2-1.22.72.19,1.93-1.07,1.78-1.84a1.47,1.47,0,0,1,1.11-1.87c.42-.15.82-.36,1.23-.52s.79-.26,1.21-.4V69.31h8.39V66.74h15.69v2.51h8.35V90.06l.93.14a3.75,3.75,0,0,1-.35.51c-2.93,3.24-5.84,6.48-8.8,9.68a2,2,0,0,1-1.28.57C921.16,101,917.69,101,914.42,101ZM904.35,90.6c.41-.19.85-.25,1-.49.61-1,1.4-1,2.32-.54.48.22,1,.44,1.47.62a1.33,1.33,0,0,1,1,1.69,1.89,1.89,0,0,0,1.95,1.93,1.29,1.29,0,0,1,1.65,1,15.18,15.18,0,0,1,.66,1.64,14.25,14.25,0,0,1,.18,1.89h9V90.12h8V71.91h-5.77v2.47H910.08V71.92h-5.73Zm7.46,6c-1.47.39-2.14-.39-2.73-1.34a1,1,0,0,0-.31-.31,2.36,2.36,0,0,1-1.41-2.63s-.09-.07-.14-.1l-.24-.25c-.1.22-.18.45-.3.66a1.15,1.15,0,0,1-1.47.57,4.44,4.44,0,0,0-1.85,0,1.6,1.6,0,0,1-2-.75c-.07-.11-.27-.15-.66-.35.66,1.62-.38,2.25-1.27,3a1.34,1.34,0,0,0-.37.38,2,2,0,0,1-2.38,1.17s-.07.07-.12.13a5.44,5.44,0,0,1,1,1.5,7.29,7.29,0,0,1-.11,2,.25.25,0,0,0,0,.09,1.64,1.64,0,0,1-.79,2.16c-.08,0-.07.25-.12.42a4.26,4.26,0,0,1,1.68.14c.45.24.71.84,1.06,1.28a1.21,1.21,0,0,0,.39.36,2.07,2.07,0,0,1,1.2,2.44s.08.08.18.17c.66-.22.79-1.38,1.89-1a4.44,4.44,0,0,0,2.45,0c1.08-.33,1.15,1,2.09,1-.5-1.36.3-2.06,1.25-2.68a1.22,1.22,0,0,0,.37-.38,2.14,2.14,0,0,1,2.49-1.28s.07-.08.2-.24c-1.32-.61-1-1.76-1-2.88S910.36,97.41,911.81,96.57ZM923.2,69.33H912.78v2.5H923.2Zm3,23.48v3.42l3.09-3.42Z"/><path class="cls-3" d="M932.84,118.27,931.7,116c.28-.17.54-.33.82-.48a34.69,34.69,0,0,0,7.18-5.22A1,1,0,0,0,940,109a5.19,5.19,0,0,1,5.45-7.25.89.89,0,0,0,.75-.33,31.47,31.47,0,0,0,3.26-10.74h-4.77l6-10.39,6,10.34h-4.49a34.64,34.64,0,0,1-.81,4.15c-.83,2.59-1.83,5.13-2.72,7.69a1.26,1.26,0,0,0,0,1,5.34,5.34,0,0,1,.16,6.67c-1.55,2-3.93,2.48-6.64,1.37A36.67,36.67,0,0,1,932.84,118.27Zm14.49-11.34a2.61,2.61,0,1,0-2.57,2.61A2.55,2.55,0,0,0,947.33,106.93Z"/><path class="cls-3" d="M919.79,54.11v4.54l-10.34-6,10.35-6v3.56c0,1.25,0,1.2,1.22,1.36,12.28,1.64,21.36,7.94,27.29,18.81a4,4,0,0,1,.21.5l-1.08.56-1.18.58a32.72,32.72,0,0,0-15.32-15A32.27,32.27,0,0,0,919.79,54.11Z"/><path class="cls-3" d="M885.34,102.62l2.32-1.16c5.47,10.08,13.8,16,25.25,17.79v-4.47l10.34,6-10.33,6v-4.83C900.52,120.09,891.37,113.72,885.34,102.62Z"/><path class="cls-3" d="M904,105.34a5.66,5.66,0,1,1,5.79-5.4A5.63,5.63,0,0,1,904,105.34Zm.13-2.58a3.09,3.09,0,0,0,3.11-3,3.13,3.13,0,1,0-6.25,0A3.12,3.12,0,0,0,904.13,102.76Z"/></svg>