<svg id="Layer_1" data-name="Layer 1" xmlns="http://www.w3.org/2000/svg" width="100" height="100" viewBox="0 0 100 100"><title>Agile and DevOps</title><path d="M70.79,54.1A6.24,6.24,0,0,1,64,52.72a5.81,5.81,0,0,1-1.15-6.92c-7.48-5.4-20.43-6.54-30.25,1A24.31,24.31,0,0,0,24.44,75l5.72-2.25-1.94,14L16.68,78.11l4.68-1.93c-3.75-11.73-1.19-21.87,7.7-30.57a21,21,0,0,1-12.8-7.94A19.24,19.24,0,0,1,12.4,23.26c1.15-9.17,8.65-16.66,18.83-17.7V0L43.86,7.08,31.24,14.16V8.52c-1.76.5-3.38.81-4.89,1.4a17,17,0,0,0-10.84,18c.8,7.2,6.9,13.44,14.3,14.71a7.35,7.35,0,0,0,4.93-.74c9.94-5,19.78-4.65,29.39,1a1.69,1.69,0,0,0,1.81.19A6.18,6.18,0,0,1,73,44.59a6,6,0,0,1,.68,7,1.42,1.42,0,0,0,0,1.16,27.43,27.43,0,0,1-6.37,34.84c-1.62,1.36-3.47,2.47-5.23,3.72h17v-5.5l12.65,7.09L79.26,100V94.45H8.14v-3H9.42c13,0,25.9.08,38.84-.06,10.94-.11,19.11-5,23.8-15C75.44,69.21,75,62,71.35,54.9c-.1-.2-.22-.39-.33-.58A2.68,2.68,0,0,0,70.79,54.1Zm-2.38-8.59a3,3,0,1,0,3.09,3.08A3.12,3.12,0,0,0,68.41,45.51Z"/><path d="M61.76,55.85c2.05-.11,2.05-.11,3,1.83.22.47.42,1,.6,1.45.81,2.14.79,2.13-.88,3.61a2.58,2.58,0,0,0-.52,1.12,9,9,0,0,0,0,.9,2.71,2.71,0,0,0,1.48,3.14.92.92,0,0,1,.44,1.32c-.58,1.37-1.15,2.76-1.71,4.14a1,1,0,0,1-1.41.73c-2.33-.82-3.18,1.28-4.48,2.35-.31.25-.13,1.21,0,1.82a1.25,1.25,0,0,1-.84,1.66c-1.36.51-2.72,1.06-4.06,1.62a1,1,0,0,1-1.5-.49c-1.13-2.27-3.25-1.28-5-1.41-.44,0-1,.91-1.44,1.46a1.07,1.07,0,0,1-1.42.46c-1.44-.62-2.9-1.2-4.36-1.78A.89.89,0,0,1,39,78.56a3,3,0,0,0-1.12-3.3c-1-1-1.91-1.56-3.3-1.16A1.19,1.19,0,0,1,33,73.22c-.52-1.32-1.05-2.63-1.62-3.93a1,1,0,0,1,.43-1.43c.54-.38,1.32-.81,1.42-1.34a9.29,9.29,0,0,0,0-3.24c-.06-.4-.66-.79-1.09-1.05a1.42,1.42,0,0,1-.61-2.06c.57-1.27,1.12-2.53,1.66-3.81a.9.9,0,0,1,1.24-.6c2.36.83,3.3-1.2,4.59-2.38.32-.3.1-1.29,0-1.94s0-1.15.7-1.41q2.15-.84,4.27-1.72a1,1,0,0,1,1.42.47c1.14,2.25,3.24,1.33,5,1.41.44,0,1-.83,1.37-1.36a1.2,1.2,0,0,1,1.63-.48c1.31.55,2.63,1.09,4,1.58a1.26,1.26,0,0,1,.88,1.65c-.12.6-.29,1.43,0,1.84a15.31,15.31,0,0,0,2.48,2.41C60.91,56,61.36,55.85,61.76,55.85ZM43.91,51.67c-1.55.07-1.84.85-1.53,2a1.5,1.5,0,0,1-.78,1.84,9.36,9.36,0,0,0-2.45,2.28A2.62,2.62,0,0,1,36.24,59a1.36,1.36,0,0,0-1.08.43.87.87,0,0,0,.31,1.47,2.14,2.14,0,0,1,1.13,2.77,5.2,5.2,0,0,0,0,2.45,2.23,2.23,0,0,1-1.1,2.8,1.06,1.06,0,0,0-.14,1.82,2.42,2.42,0,0,0,1.49,0,1.71,1.71,0,0,1,1.89.77,13.09,13.09,0,0,0,2.7,2.66,1.88,1.88,0,0,1,.93,2.22c-.13.57-.3,1.19.58,1.56s1.22-.15,1.54-.66A2,2,0,0,1,47,76.44a6.51,6.51,0,0,0,2.67.08c1.52-.34,2.68-.17,3.52,1.28.12.21.79.25,1.13.13a1.28,1.28,0,0,0,.61-.85A2.22,2.22,0,0,0,54.82,76c-.19-.7.1-1.06.65-1.47A11.93,11.93,0,0,0,58,72.16c.82-1.14,1.67-1.71,3.06-1.25.56.18.87-.1,1.1-.65s.2-.91-.31-1.24c-.19-.11-.34-.31-.53-.41a1.61,1.61,0,0,1-.78-2,7.12,7.12,0,0,0,.09-2.79,2.3,2.3,0,0,1,1.16-3,.82.82,0,0,0,.26-1.39A1.47,1.47,0,0,0,60.91,59a2.4,2.4,0,0,1-2.79-1.25,5.13,5.13,0,0,0-1.65-1.66c-1.3-.8-2-1.73-1.59-3.35.06-.23-.38-.77-.69-.89a1.66,1.66,0,0,0-1.11.24,1.8,1.8,0,0,0-.59.66,1.49,1.49,0,0,1-1.8.7,6.76,6.76,0,0,0-2.79-.14C46.11,53.71,44.66,53.53,43.91,51.67Z"/><path d="M22.92,19.63a2,2,0,0,0,2.37-2.32A1.07,1.07,0,0,1,26,15.93c.76-.31,1.51-.66,2.26-1a1.73,1.73,0,0,1,2.49.63,2.07,2.07,0,0,0,2.76,0,1.68,1.68,0,0,1,2.39-.63c.61.28,1.24.54,1.87.77.93.36,1.47.84,1.18,2-.22.9,1.07,2.11,2,1.94a1.6,1.6,0,0,1,2,1.19c.21.6.49,1.17.75,1.75.4.94.46,1.71-.59,2.37a1.71,1.71,0,0,0,.08,2.59,1.45,1.45,0,0,1,.57,2.09c-.3.65-.57,1.3-.82,2a1.54,1.54,0,0,1-2,1.15,2,2,0,0,0-2,2.08c.24,1.06-.22,1.52-1.08,1.85-.59.22-1.17.48-1.76.73-1,.45-1.91.55-2.67-.6-.48-.74-2.27-.59-2.84.19a1.43,1.43,0,0,1-2,.58c-.61-.27-1.25-.48-1.88-.72-1.05-.4-1.83-.89-1.44-2.29.22-.76-1.23-2-2.06-1.82-1.16.29-1.66-.24-2-1.17-.24-.59-.49-1.18-.75-1.76a1.63,1.63,0,0,1,.61-2.37,1.73,1.73,0,0,0-.13-2.6,1.37,1.37,0,0,1-.56-2c.35-.74.64-1.51,1-2.27S22.14,19.28,22.92,19.63Zm17.76,3.19c-1.75.66-2.32-.55-3-1.45a2.12,2.12,0,0,0-.67-.6,2.07,2.07,0,0,1-1.24-2.52s-.11-.07-.26-.17c-.54,1.23-1.56,1.27-2.69,1a2.27,2.27,0,0,0-.78,0c-1.23.13-2.53.53-3.45-1.11.67,1.71-.44,2.29-1.38,3a2.43,2.43,0,0,0-.41.38c-.79.85-1.3,2.21-3.14,1.32.47,1,1.62,1.17,1.26,2.31a4.43,4.43,0,0,0,0,2.55c.36,1.14-.84,1.27-1.17,2.29,1.9-1,2.28.66,3.17,1.45s2.34,1.3,1.77,3.18c.79-1.41,1.85-1.33,3-1.08a2.44,2.44,0,0,0,1.23,0,2,2,0,0,1,2.58.88s.14,0,.38,0c-.81-1.73.74-2.14,1.59-3l3.18-2c-1.78-.63-.93-2-1-3.14S39,23.67,40.68,22.82Z"/><path d="M48.57,73.71a8.8,8.8,0,1,1,0-17.59c5,0,9.26,4.11,9.17,8.88A9,9,0,0,1,48.57,73.71Zm0-14.5a5.8,5.8,0,0,0-5.91,5.68,6,6,0,1,0,5.91-5.68Z"/><path d="M32.15,32.49a6.38,6.38,0,0,1-6.52-6.33,6.53,6.53,0,0,1,13.06,0A6.4,6.4,0,0,1,32.15,32.49ZM32.2,23a3.31,3.31,0,0,0-3.43,3.27,3.39,3.39,0,0,0,6.78,0A3.33,3.33,0,0,0,32.2,23Z"/></svg>