<?xml version="1.0" encoding="utf-8"?>
<!-- Generator: Adobe Illustrator 22.1.0, SVG Export Plug-In . SVG Version: 6.00 Build 0)  -->
<svg version="1.1" xmlns="http://www.w3.org/2000/svg" xmlns:xlink="http://www.w3.org/1999/xlink" x="0px" y="0px" width="350px"
	 height="350px" viewBox="0 0 350 350" style="enable-background:new 0 0 350 350;" xml:space="preserve">
<style type="text/css">
	.st0{fill:#FCDDD6;}
	.st1{fill:#FBC2BA;}
	.st2{fill:#F16C51;}
	.st3{fill:#ECE1CE;}
	.st4{fill:#EAC8A5;}
	.st5{fill:#DF9926;}
	.st6{fill:#D8E7DA;}
	.st7{fill:#A8D7CD;}
	.st8{fill:#00B28F;}
	.st9{fill:#92D1FF;}
	.st10{fill:#0F9FFA;}
	.st11{fill:none;}
	.st12{fill:none;stroke:#FFFFFF;stroke-width:1.5;stroke-miterlimit:10;}
	.st13{display:none;}
	.st14{display:inline;}
	.st15{fill:none;stroke:#061838;stroke-width:0.5887;stroke-miterlimit:10;}
	.st16{fill:none;stroke:#000000;stroke-width:0.1397;stroke-miterlimit:10;}
	.st17{fill:none;stroke:#020204;stroke-width:0.216;stroke-miterlimit:10;}
	.st18{fill:none;stroke:#FFFFFF;stroke-width:1.5;stroke-linejoin:bevel;stroke-miterlimit:10;}
	.st19{fill:#FFFFFF;}
	.st20{fill:none;stroke:#FFFFFF;stroke-width:1.5;stroke-linecap:square;stroke-miterlimit:10;}
	.st21{fill:none;stroke:#FFFFFF;stroke-width:1.4995;stroke-miterlimit:22.9256;}
	.st22{fill:none;stroke:#FFFFFF;stroke-width:1.4992;stroke-miterlimit:22.9256;}
	.st23{fill:none;stroke:#FFFFFF;stroke-width:1.4992;stroke-miterlimit:10;}
	.st24{fill:none;stroke:#FFFFFF;stroke-width:1.4995;stroke-linecap:square;stroke-miterlimit:10;}
	.st25{fill:none;stroke:#FFFFFF;stroke-width:1.4992;}
	.st26{fill:none;stroke:#FFFFFF;stroke-width:1.5001;stroke-linecap:square;stroke-miterlimit:10;}
	.st27{fill:none;stroke:#FFFFFF;stroke-width:1.5;stroke-linejoin:bevel;}
	.st28{fill:none;stroke:#FFFFFF;stroke-width:1.5;stroke-miterlimit:10;stroke-dasharray:5,5;}
</style>
<g id="Layer_3">
	<path class="st6" d="M342.9,175c0,54.5-26,103-66.2,133.6c-2,1.5-4,3-6,4.4c-27.2,18.9-60.1,29.9-95.7,29.9
		c-35.6,0-68.5-11.1-95.7-29.9c-2-1.4-4-2.9-6-4.4C33.1,278,7.1,229.5,7.1,175c0-16.8,2.5-33.1,7.1-48.4c0.7-2.4,1.5-4.7,2.3-7.1
		C39,55.2,99.6,8.7,171.3,7.1c1.2,0,2.5,0,3.7,0c1.2,0,2.5,0,3.7,0c71.7,1.6,132.3,48,154.8,112.4c0.8,2.3,1.6,4.7,2.3,7v0
		C340.4,141.9,342.9,158.2,342.9,175z"/>
	<path class="st7" d="M171.3,0v7.1C99.6,8.7,39,55.2,16.4,119.6l-6.7-2.2c5.6-16,13.5-31.2,23.5-45c10.6-14.6,23.4-27.5,37.9-38.3
		C100.4,12.5,134.9,0.8,171.3,0z"/>
	<path class="st8" d="M171.3,7.1v117.3c-19.2,1.4-35.9,13.5-43.2,31.4L16.4,119.6C39,55.2,99.6,8.7,171.3,7.1z"/>
	<path class="st7" d="M340.3,117.4l-6.7,2.2C311,55.2,250.4,8.7,178.7,7.1V0c36.3,0.7,70.9,12.5,100.1,34.1
		c14.6,10.7,27.3,23.6,37.9,38.3C326.8,86.2,334.7,101.3,340.3,117.4z"/>
	<path class="st8" d="M333.5,119.6l-111.6,36.3c-7.3-17.9-24-30-43.2-31.4V7.1C250.4,8.7,311,55.2,333.5,119.6z"/>
	<path class="st7" d="M73.3,308.6l-4.1,5.7c-20.5-15.6-37.6-35.9-49.5-58.7C6.8,230.9,0,203,0,175c0-17.2,2.5-34.2,7.4-50.5l6.7,2.2
		c-4.6,15.3-7.1,31.6-7.1,48.4C7.1,229.5,33.1,278,73.3,308.6z"/>
	<path class="st8" d="M142.3,213.7l-69,95C33.1,278,7.1,229.5,7.1,175c0-16.8,2.5-33.1,7.1-48.4l111.6,36.3c-1,3.9-1.5,8-1.5,12.1
		C124.3,189.9,131,204.1,142.3,213.7z"/>
	<path class="st7" d="M274.8,318.7C245.5,339.2,211,350,175,350c-36,0-70.4-10.8-99.8-31.3l4.2-5.7c27.1,18.9,60.1,29.9,95.7,29.9
		c35.6,0,68.5-11.1,95.7-29.9L274.8,318.7z"/>
	<path class="st8" d="M270.7,313c-27.2,18.9-60.1,29.9-95.7,29.9c-35.6,0-68.5-11.1-95.7-29.9l69-95c8,5,17.2,7.6,26.7,7.6
		c9.5,0,18.7-2.6,26.7-7.6L270.7,313z"/>
	<path class="st7" d="M350,175c0,28.1-6.8,56-19.7,80.7c-11.9,22.8-29,43.1-49.5,58.7l-4.2-5.7c40.3-30.7,66.2-79.1,66.2-133.6
		c0-16.8-2.5-33.1-7.1-48.4v0l6.7-2.2C347.5,140.8,350,157.8,350,175z"/>
	<path class="st8" d="M342.9,175c0,54.5-26,103-66.2,133.6l-69-95c11.3-9.6,18-23.8,18-38.7c0-4.1-0.5-8.1-1.5-12.1l111.6-36.3
		C340.4,141.9,342.9,158.2,342.9,175z"/>
	<path class="st6" d="M238.2,175c0,20.5-9.8,38.7-24.9,50.3c-0.7,0.6-1.5,1.1-2.3,1.6c-10.2,7.1-22.6,11.3-36,11.3
		c-13.4,0-25.8-4.2-36-11.3c-0.8-0.5-1.5-1.1-2.3-1.6c-15.1-11.5-24.9-29.8-24.9-50.3c0-6.3,0.9-12.4,2.7-18.2
		c0.3-0.9,0.6-1.8,0.9-2.7c8.5-24.2,31.3-41.7,58.2-42.3c0.5,0,0.9,0,1.4,0c0.5,0,0.9,0,1.4,0c27,0.6,49.8,18.1,58.2,42.3
		c0.3,0.9,0.6,1.8,0.9,2.7v0C237.2,162.6,238.2,168.7,238.2,175z"/>
</g>
<g id="Layer_1" class="st13">
	<g class="st14">
		<rect x="84.8" y="37.9" class="st16" width="9" height="9"/>
		<rect x="93.8" y="37.9" class="st16" width="9" height="9"/>
		<rect x="102.8" y="37.9" class="st16" width="9" height="9"/>
		<rect x="111.8" y="37.9" class="st16" width="9" height="9"/>
		<rect x="120.8" y="37.9" class="st16" width="9" height="9"/>
		<rect x="129.8" y="37.9" class="st16" width="9" height="9"/>
		<rect x="84.8" y="46.9" class="st16" width="9" height="9"/>
		<rect x="93.8" y="46.9" class="st16" width="9" height="9"/>
		<rect x="102.8" y="46.9" class="st16" width="9" height="9"/>
		<rect x="111.8" y="46.9" class="st16" width="9" height="9"/>
		<rect x="120.8" y="46.9" class="st16" width="9" height="9"/>
		<rect x="129.8" y="46.9" class="st16" width="9" height="9"/>
		<rect x="84.8" y="55.9" class="st16" width="9" height="9"/>
		<rect x="93.8" y="55.9" class="st16" width="9" height="9"/>
		<rect x="102.8" y="55.9" class="st16" width="9" height="9"/>
		<rect x="111.8" y="55.9" class="st16" width="9" height="9"/>
		<rect x="120.8" y="55.9" class="st16" width="9" height="9"/>
		<rect x="129.8" y="55.9" class="st16" width="9" height="9"/>
		<rect x="84.8" y="64.9" class="st16" width="9" height="9"/>
		<rect x="93.8" y="64.9" class="st16" width="9" height="9"/>
		<rect x="102.8" y="64.9" class="st16" width="9" height="9"/>
		<rect x="111.8" y="64.9" class="st16" width="9" height="9"/>
		<rect x="120.8" y="64.9" class="st16" width="9" height="9"/>
		<rect x="129.8" y="64.9" class="st16" width="9" height="9"/>
		<rect x="84.8" y="73.9" class="st16" width="9" height="9"/>
		<rect x="93.8" y="73.9" class="st16" width="9" height="9"/>
		<rect x="102.8" y="73.9" class="st16" width="9" height="9"/>
		<rect x="111.8" y="73.9" class="st16" width="9" height="9"/>
		<rect x="120.8" y="73.9" class="st16" width="9" height="9"/>
		<rect x="129.8" y="73.9" class="st16" width="9" height="9"/>
		<rect x="84.8" y="82.9" class="st16" width="9" height="9"/>
		<rect x="93.8" y="82.9" class="st16" width="9" height="9"/>
		<rect x="102.8" y="82.9" class="st16" width="9" height="9"/>
		<rect x="111.8" y="82.9" class="st16" width="9" height="9"/>
		<rect x="120.8" y="82.9" class="st16" width="9" height="9"/>
		<rect x="129.8" y="82.9" class="st16" width="9" height="9"/>
		<rect x="84.8" y="91.9" class="st16" width="9" height="9"/>
		<rect x="93.8" y="91.9" class="st16" width="9" height="9"/>
		<rect x="102.8" y="91.9" class="st16" width="9" height="9"/>
		<rect x="111.8" y="91.9" class="st16" width="9" height="9"/>
		<rect x="120.8" y="91.9" class="st16" width="9" height="9"/>
		<rect x="129.8" y="91.9" class="st16" width="9" height="9"/>
	</g>
	<g class="st14">
		<rect x="219" y="31.4" class="st16" width="9" height="9"/>
		<rect x="228" y="31.4" class="st16" width="9" height="9"/>
		<rect x="237" y="31.4" class="st16" width="9" height="9"/>
		<rect x="246" y="31.4" class="st16" width="9" height="9"/>
		<rect x="255" y="31.4" class="st16" width="9" height="9"/>
		<rect x="264" y="31.4" class="st16" width="9" height="9"/>
		<rect x="219" y="40.4" class="st16" width="9" height="9"/>
		<rect x="228" y="40.4" class="st16" width="9" height="9"/>
		<rect x="237" y="40.4" class="st16" width="9" height="9"/>
		<rect x="246" y="40.4" class="st16" width="9" height="9"/>
		<rect x="255" y="40.4" class="st16" width="9" height="9"/>
		<rect x="264" y="40.4" class="st16" width="9" height="9"/>
		<rect x="219" y="49.4" class="st16" width="9" height="9"/>
		<rect x="228" y="49.4" class="st16" width="9" height="9"/>
		<rect x="237" y="49.4" class="st16" width="9" height="9"/>
		<rect x="246" y="49.4" class="st16" width="9" height="9"/>
		<rect x="255" y="49.4" class="st16" width="9" height="9"/>
		<rect x="264" y="49.4" class="st16" width="9" height="9"/>
		<rect x="219" y="58.4" class="st16" width="9" height="9"/>
		<rect x="228" y="58.4" class="st16" width="9" height="9"/>
		<rect x="237" y="58.4" class="st16" width="9" height="9"/>
		<rect x="246" y="58.4" class="st16" width="9" height="9"/>
		<rect x="255" y="58.4" class="st16" width="9" height="9"/>
		<rect x="264" y="58.4" class="st16" width="9" height="9"/>
		<rect x="219" y="67.4" class="st16" width="9" height="9"/>
		<rect x="228" y="67.4" class="st16" width="9" height="9"/>
		<rect x="237" y="67.4" class="st16" width="9" height="9"/>
		<rect x="246" y="67.4" class="st16" width="9" height="9"/>
		<rect x="255" y="67.4" class="st16" width="9" height="9"/>
		<rect x="264" y="67.4" class="st16" width="9" height="9"/>
		<rect x="219" y="76.4" class="st16" width="9" height="9"/>
		<rect x="228" y="76.4" class="st16" width="9" height="9"/>
		<rect x="237" y="76.4" class="st16" width="9" height="9"/>
		<rect x="246" y="76.4" class="st16" width="9" height="9"/>
		<rect x="255" y="76.4" class="st16" width="9" height="9"/>
		<rect x="264" y="76.4" class="st16" width="9" height="9"/>
		<rect x="219" y="85.4" class="st16" width="9" height="9"/>
		<rect x="228" y="85.4" class="st16" width="9" height="9"/>
		<rect x="237" y="85.4" class="st16" width="9" height="9"/>
		<rect x="246" y="85.4" class="st16" width="9" height="9"/>
		<rect x="255" y="85.4" class="st16" width="9" height="9"/>
		<rect x="264" y="85.4" class="st16" width="9" height="9"/>
	</g>
	<g class="st14">
		<rect x="253" y="154.6" class="st16" width="9" height="9"/>
		<rect x="262" y="154.6" class="st16" width="9" height="9"/>
		<rect x="271" y="154.6" class="st16" width="9" height="9"/>
		<rect x="280" y="154.6" class="st16" width="9" height="9"/>
		<rect x="289" y="154.6" class="st16" width="9" height="9"/>
		<rect x="298" y="154.6" class="st16" width="9" height="9"/>
		<rect x="253" y="163.6" class="st16" width="9" height="9"/>
		<rect x="262" y="163.6" class="st16" width="9" height="9"/>
		<rect x="271" y="163.6" class="st16" width="9" height="9"/>
		<rect x="280" y="163.6" class="st16" width="9" height="9"/>
		<rect x="289" y="163.6" class="st16" width="9" height="9"/>
		<rect x="298" y="163.6" class="st16" width="9" height="9"/>
		<rect x="253" y="172.6" class="st16" width="9" height="9"/>
		<rect x="262" y="172.6" class="st16" width="9" height="9"/>
		<rect x="271" y="172.6" class="st16" width="9" height="9"/>
		<rect x="280" y="172.6" class="st16" width="9" height="9"/>
		<rect x="289" y="172.6" class="st16" width="9" height="9"/>
		<rect x="298" y="172.6" class="st16" width="9" height="9"/>
		<rect x="253" y="181.6" class="st16" width="9" height="9"/>
		<rect x="262" y="181.6" class="st16" width="9" height="9"/>
		<rect x="271" y="181.6" class="st16" width="9" height="9"/>
		<rect x="280" y="181.6" class="st16" width="9" height="9"/>
		<rect x="289" y="181.6" class="st16" width="9" height="9"/>
		<rect x="298" y="181.6" class="st16" width="9" height="9"/>
		<rect x="253" y="190.6" class="st16" width="9" height="9"/>
		<rect x="262" y="190.6" class="st16" width="9" height="9"/>
		<rect x="271" y="190.6" class="st16" width="9" height="9"/>
		<rect x="280" y="190.6" class="st16" width="9" height="9"/>
		<rect x="289" y="190.6" class="st16" width="9" height="9"/>
		<rect x="298" y="190.6" class="st16" width="9" height="9"/>
		<rect x="253" y="199.6" class="st16" width="9" height="9"/>
		<rect x="262" y="199.6" class="st16" width="9" height="9"/>
		<rect x="271" y="199.6" class="st16" width="9" height="9"/>
		<rect x="280" y="199.6" class="st16" width="9" height="9"/>
		<rect x="289" y="199.6" class="st16" width="9" height="9"/>
		<rect x="298" y="199.6" class="st16" width="9" height="9"/>
		<rect x="253" y="208.6" class="st16" width="9" height="9"/>
		<rect x="262" y="208.6" class="st16" width="9" height="9"/>
		<rect x="271" y="208.6" class="st16" width="9" height="9"/>
		<rect x="280" y="208.6" class="st16" width="9" height="9"/>
		<rect x="289" y="208.6" class="st16" width="9" height="9"/>
		<rect x="298" y="208.6" class="st16" width="9" height="9"/>
	</g>
	<g class="st14">
		<rect x="45.2" y="154.6" class="st16" width="9" height="9"/>
		<rect x="54.2" y="154.6" class="st16" width="9" height="9"/>
		<rect x="63.2" y="154.6" class="st16" width="9" height="9"/>
		<rect x="72.2" y="154.6" class="st16" width="9" height="9"/>
		<rect x="81.2" y="154.6" class="st16" width="9" height="9"/>
		<rect x="90.2" y="154.6" class="st16" width="9" height="9"/>
		<rect x="45.2" y="163.6" class="st16" width="9" height="9"/>
		<rect x="54.2" y="163.6" class="st16" width="9" height="9"/>
		<rect x="63.2" y="163.6" class="st16" width="9" height="9"/>
		<rect x="72.2" y="163.6" class="st16" width="9" height="9"/>
		<rect x="81.2" y="163.6" class="st16" width="9" height="9"/>
		<rect x="90.2" y="163.6" class="st16" width="9" height="9"/>
		<rect x="45.2" y="172.6" class="st16" width="9" height="9"/>
		<rect x="54.2" y="172.6" class="st16" width="9" height="9"/>
		<rect x="63.2" y="172.6" class="st16" width="9" height="9"/>
		<rect x="72.2" y="172.6" class="st16" width="9" height="9"/>
		<rect x="81.2" y="172.6" class="st16" width="9" height="9"/>
		<rect x="90.2" y="172.6" class="st16" width="9" height="9"/>
		<rect x="45.2" y="181.6" class="st16" width="9" height="9"/>
		<rect x="54.2" y="181.6" class="st16" width="9" height="9"/>
		<rect x="63.2" y="181.6" class="st16" width="9" height="9"/>
		<rect x="72.2" y="181.6" class="st16" width="9" height="9"/>
		<rect x="81.2" y="181.6" class="st16" width="9" height="9"/>
		<rect x="90.2" y="181.6" class="st16" width="9" height="9"/>
		<rect x="45.2" y="190.6" class="st16" width="9" height="9"/>
		<rect x="54.2" y="190.6" class="st16" width="9" height="9"/>
		<rect x="63.2" y="190.6" class="st16" width="9" height="9"/>
		<rect x="72.2" y="190.6" class="st16" width="9" height="9"/>
		<rect x="81.2" y="190.6" class="st16" width="9" height="9"/>
		<rect x="90.2" y="190.6" class="st16" width="9" height="9"/>
		<rect x="45.2" y="199.6" class="st16" width="9" height="9"/>
		<rect x="54.2" y="199.6" class="st16" width="9" height="9"/>
		<rect x="63.2" y="199.6" class="st16" width="9" height="9"/>
		<rect x="72.2" y="199.6" class="st16" width="9" height="9"/>
		<rect x="81.2" y="199.6" class="st16" width="9" height="9"/>
		<rect x="90.2" y="199.6" class="st16" width="9" height="9"/>
		<rect x="45.2" y="208.6" class="st16" width="9" height="9"/>
		<rect x="54.2" y="208.6" class="st16" width="9" height="9"/>
		<rect x="63.2" y="208.6" class="st16" width="9" height="9"/>
		<rect x="72.2" y="208.6" class="st16" width="9" height="9"/>
		<rect x="81.2" y="208.6" class="st16" width="9" height="9"/>
		<rect x="90.2" y="208.6" class="st16" width="9" height="9"/>
	</g>
	<g class="st14">
		<rect x="145.1" y="240.3" class="st16" width="9" height="9"/>
		<rect x="154.1" y="240.3" class="st16" width="9" height="9"/>
		<rect x="163.1" y="240.3" class="st16" width="9" height="9"/>
		<rect x="172.1" y="240.3" class="st16" width="9" height="9"/>
		<rect x="181.1" y="240.3" class="st16" width="9" height="9"/>
		<rect x="190.1" y="240.3" class="st16" width="9" height="9"/>
		<rect x="145.1" y="249.3" class="st16" width="9" height="9"/>
		<rect x="154.1" y="249.3" class="st16" width="9" height="9"/>
		<rect x="163.1" y="249.3" class="st16" width="9" height="9"/>
		<rect x="172.1" y="249.3" class="st16" width="9" height="9"/>
		<rect x="181.1" y="249.3" class="st16" width="9" height="9"/>
		<rect x="190.1" y="249.3" class="st16" width="9" height="9"/>
		<rect x="145.1" y="258.3" class="st16" width="9" height="9"/>
		<rect x="154.1" y="258.3" class="st16" width="9" height="9"/>
		<rect x="163.1" y="258.3" class="st16" width="9" height="9"/>
		<rect x="172.1" y="258.3" class="st16" width="9" height="9"/>
		<rect x="181.1" y="258.3" class="st16" width="9" height="9"/>
		<rect x="190.1" y="258.3" class="st16" width="9" height="9"/>
		<rect x="145.1" y="267.3" class="st16" width="9" height="9"/>
		<rect x="154.1" y="267.3" class="st16" width="9" height="9"/>
		<rect x="163.1" y="267.3" class="st16" width="9" height="9"/>
		<rect x="172.1" y="267.3" class="st16" width="9" height="9"/>
		<rect x="181.1" y="267.3" class="st16" width="9" height="9"/>
		<rect x="190.1" y="267.3" class="st16" width="9" height="9"/>
		<rect x="145.1" y="276.3" class="st16" width="9" height="9"/>
		<rect x="154.1" y="276.3" class="st16" width="9" height="9"/>
		<rect x="163.1" y="276.3" class="st16" width="9" height="9"/>
		<rect x="172.1" y="276.3" class="st16" width="9" height="9"/>
		<rect x="181.1" y="276.3" class="st16" width="9" height="9"/>
		<rect x="190.1" y="276.3" class="st16" width="9" height="9"/>
		<rect x="145.1" y="285.3" class="st16" width="9" height="9"/>
		<rect x="154.1" y="285.3" class="st16" width="9" height="9"/>
		<rect x="163.1" y="285.3" class="st16" width="9" height="9"/>
		<rect x="172.1" y="285.3" class="st16" width="9" height="9"/>
		<rect x="181.1" y="285.3" class="st16" width="9" height="9"/>
		<rect x="190.1" y="285.3" class="st16" width="9" height="9"/>
		<rect x="145.1" y="294.3" class="st16" width="9" height="9"/>
		<rect x="154.1" y="294.3" class="st16" width="9" height="9"/>
		<rect x="163.1" y="294.3" class="st16" width="9" height="9"/>
		<rect x="172.1" y="294.3" class="st16" width="9" height="9"/>
		<rect x="181.1" y="294.3" class="st16" width="9" height="9"/>
		<rect x="190.1" y="294.3" class="st16" width="9" height="9"/>
	</g>
	<g class="st14">
		<rect x="23.2" y="121.9" class="st16" width="10" height="10"/>
		<rect x="33.2" y="121.9" class="st16" width="10" height="10"/>
		<rect x="43.2" y="121.9" class="st16" width="10" height="10"/>
		<rect x="53.2" y="121.9" class="st16" width="10" height="10"/>
		<rect x="63.2" y="121.9" class="st16" width="10" height="10"/>
		<rect x="73.2" y="121.9" class="st16" width="10" height="10"/>
		<rect x="23.2" y="131.9" class="st16" width="10" height="10"/>
		<rect x="33.2" y="131.9" class="st16" width="10" height="10"/>
		<rect x="43.2" y="131.9" class="st16" width="10" height="10"/>
		<rect x="53.2" y="131.9" class="st16" width="10" height="10"/>
		<rect x="63.2" y="131.9" class="st16" width="10" height="10"/>
		<rect x="73.2" y="131.9" class="st16" width="10" height="10"/>
		<rect x="23.2" y="141.9" class="st16" width="10" height="10"/>
		<rect x="33.2" y="141.9" class="st16" width="10" height="10"/>
		<rect x="43.2" y="141.9" class="st16" width="10" height="10"/>
		<rect x="53.2" y="141.9" class="st16" width="10" height="10"/>
		<rect x="63.2" y="141.9" class="st16" width="10" height="10"/>
		<rect x="73.2" y="141.9" class="st16" width="10" height="10"/>
		<rect x="23.2" y="151.9" class="st16" width="10" height="10"/>
		<rect x="33.2" y="151.9" class="st16" width="10" height="10"/>
		<rect x="43.2" y="151.9" class="st16" width="10" height="10"/>
		<rect x="53.2" y="151.9" class="st16" width="10" height="10"/>
		<rect x="63.2" y="151.9" class="st16" width="10" height="10"/>
		<rect x="73.2" y="151.9" class="st16" width="10" height="10"/>
		<rect x="23.2" y="161.9" class="st16" width="10" height="10"/>
		<rect x="33.2" y="161.9" class="st16" width="10" height="10"/>
		<rect x="43.2" y="161.9" class="st16" width="10" height="10"/>
		<rect x="53.2" y="161.9" class="st16" width="10" height="10"/>
		<rect x="63.2" y="161.9" class="st16" width="10" height="10"/>
		<rect x="73.2" y="161.9" class="st16" width="10" height="10"/>
		<rect x="23.2" y="171.9" class="st16" width="10" height="10"/>
		<rect x="33.2" y="171.9" class="st16" width="10" height="10"/>
		<rect x="43.2" y="171.9" class="st16" width="10" height="10"/>
		<rect x="53.2" y="171.9" class="st16" width="10" height="10"/>
		<rect x="63.2" y="171.9" class="st16" width="10" height="10"/>
		<rect x="73.2" y="171.9" class="st16" width="10" height="10"/>
		<rect x="23.2" y="181.9" class="st16" width="10" height="10"/>
		<rect x="33.2" y="181.9" class="st16" width="10" height="10"/>
		<rect x="43.2" y="181.9" class="st16" width="10" height="10"/>
		<rect x="53.2" y="181.9" class="st16" width="10" height="10"/>
		<rect x="63.2" y="181.9" class="st16" width="10" height="10"/>
		<rect x="73.2" y="181.9" class="st16" width="10" height="10"/>
	</g>
</g>
<g id="Layer_4">
	<g>
		<g>
			<path class="st19" d="M143.6,311.1c0.5,0.3,1.1,0.5,1.9,0.5c0.9,0,1.4-0.4,1.4-1c0-0.6-0.4-0.9-1.4-1.3c-1.3-0.5-2.1-1.1-2.1-2.2
				c0-1.3,1-2.2,2.7-2.2c0.8,0,1.4,0.2,1.8,0.4l-0.3,1.1c-0.3-0.1-0.8-0.4-1.5-0.4c-0.9,0-1.3,0.5-1.3,0.9c0,0.6,0.4,0.9,1.5,1.3
				c1.3,0.5,2,1.2,2,2.3c0,1.2-0.9,2.3-2.9,2.3c-0.8,0-1.6-0.2-2.1-0.5L143.6,311.1z"/>
			<path class="st19" d="M151,305.5v1.6h1.3v1H151v2.4c0,0.7,0.2,1,0.7,1c0.2,0,0.4,0,0.5-0.1l0,1.1c-0.2,0.1-0.6,0.1-1,0.1
				c-0.5,0-0.9-0.2-1.2-0.5c-0.3-0.3-0.4-0.8-0.4-1.5v-2.6h-0.8v-1h0.8v-1.3L151,305.5z"/>
			<path class="st19" d="M153.4,308.9c0-0.8,0-1.3,0-1.8h1.2l0,1.1h0c0.3-0.8,0.9-1.2,1.5-1.2c0.1,0,0.2,0,0.3,0v1.3
				c-0.1,0-0.2,0-0.4,0c-0.7,0-1.1,0.4-1.3,1.1c0,0.1,0,0.3,0,0.4v2.9h-1.4V308.9z"/>
			<path class="st19" d="M158.3,310.2c0,1,0.8,1.4,1.7,1.4c0.6,0,1.1-0.1,1.5-0.3l0.2,1c-0.5,0.2-1.1,0.3-1.9,0.3
				c-1.8,0-2.9-1.1-2.9-2.8c0-1.5,0.9-3,2.7-3c1.8,0,2.4,1.5,2.4,2.7c0,0.3,0,0.5,0,0.6H158.3z M160.8,309.3c0-0.5-0.2-1.4-1.1-1.4
				c-0.9,0-1.2,0.8-1.3,1.4H160.8z"/>
			<path class="st19" d="M164.2,310.2c0,1,0.8,1.4,1.7,1.4c0.6,0,1.1-0.1,1.5-0.3l0.2,1c-0.5,0.2-1.1,0.3-1.9,0.3
				c-1.8,0-2.9-1.1-2.9-2.8c0-1.5,0.9-3,2.7-3c1.8,0,2.4,1.5,2.4,2.7c0,0.3,0,0.5,0,0.6H164.2z M166.6,309.3c0-0.5-0.2-1.4-1.1-1.4
				c-0.9,0-1.2,0.8-1.3,1.4H166.6z"/>
			<path class="st19" d="M170.7,305.5v1.6h1.3v1h-1.3v2.4c0,0.7,0.2,1,0.7,1c0.2,0,0.4,0,0.5-0.1l0,1.1c-0.2,0.1-0.6,0.1-1,0.1
				c-0.5,0-0.9-0.2-1.2-0.5c-0.3-0.3-0.4-0.8-0.4-1.5v-2.6h-0.8v-1h0.8v-1.3L170.7,305.5z"/>
			<path class="st19" d="M175.5,309.1v1h-2.9v-1H175.5z"/>
			<path class="st19" d="M176.6,304.6h1.4v8.1h-1.4V304.6z"/>
			<path class="st19" d="M180.5,310.2c0,1,0.8,1.4,1.7,1.4c0.6,0,1.1-0.1,1.5-0.3l0.2,1c-0.5,0.2-1.1,0.3-1.9,0.3
				c-1.8,0-2.9-1.1-2.9-2.8c0-1.5,0.9-3,2.7-3c1.8,0,2.4,1.5,2.4,2.7c0,0.3,0,0.5,0,0.6H180.5z M183,309.3c0-0.5-0.2-1.4-1.1-1.4
				c-0.9,0-1.2,0.8-1.3,1.4H183z"/>
			<path class="st19" d="M186.3,307.1l0.9,2.8c0.2,0.5,0.3,0.9,0.4,1.4h0c0.1-0.5,0.2-0.9,0.4-1.4l0.9-2.8h1.5l-2.1,5.5h-1.4
				l-2.1-5.5H186.3z"/>
			<path class="st19" d="M192,310.2c0,1,0.8,1.4,1.7,1.4c0.6,0,1.1-0.1,1.5-0.3l0.2,1c-0.5,0.2-1.1,0.3-1.9,0.3
				c-1.8,0-2.9-1.1-2.9-2.8c0-1.5,0.9-3,2.7-3c1.8,0,2.4,1.5,2.4,2.7c0,0.3,0,0.5,0,0.6H192z M194.4,309.3c0-0.5-0.2-1.4-1.1-1.4
				c-0.9,0-1.2,0.8-1.3,1.4H194.4z"/>
			<path class="st19" d="M196.9,304.6h1.4v8.1h-1.4V304.6z"/>
			<path class="st19" d="M137.3,316.2v6.5c0,0.6,0,1.2,0,1.6h-1.3l-0.1-0.9h0c-0.3,0.6-1,1-1.8,1c-1.3,0-2.4-1.1-2.4-2.8
				c0-1.9,1.1-3,2.5-3c0.8,0,1.3,0.3,1.6,0.7h0v-3.1H137.3z M135.9,321.1c0-0.1,0-0.3,0-0.4c-0.1-0.5-0.6-1-1.2-1
				c-0.9,0-1.4,0.8-1.4,1.8c0,1,0.5,1.8,1.4,1.8c0.6,0,1.1-0.4,1.2-1c0-0.1,0-0.3,0-0.4V321.1z"/>
			<path class="st19" d="M139.7,318.8l1,3c0.1,0.3,0.2,0.8,0.3,1.1h0c0.1-0.3,0.2-0.7,0.3-1.1l0.9-3h1.5l-1.4,3.8
				c-0.8,2.1-1.3,3-1.9,3.6c-0.5,0.5-1.1,0.7-1.5,0.7l-0.3-1.2c0.2-0.1,0.5-0.2,0.8-0.4c0.3-0.2,0.6-0.5,0.8-0.9
				c0.1-0.1,0.1-0.2,0.1-0.3c0-0.1,0-0.1-0.1-0.3l-2-5.1H139.7z"/>
			<path class="st19" d="M144.5,320.4c0-0.6,0-1.2,0-1.6h1.2l0.1,0.8h0c0.2-0.4,0.8-1,1.8-1c1,0,2,0.6,2,2.4v3.3h-1.4v-3.1
				c0-0.8-0.3-1.4-1.1-1.4c-0.6,0-0.9,0.4-1.1,0.8c0,0.1-0.1,0.3-0.1,0.5v3.3h-1.4V320.4z"/>
			<path class="st19" d="M154.1,324.3l-0.1-0.6h0c-0.3,0.4-0.9,0.7-1.6,0.7c-1.1,0-1.7-0.8-1.7-1.6c0-1.4,1.2-2.1,3.3-2.1v-0.1
				c0-0.4-0.1-1-1.1-1c-0.5,0-1.1,0.2-1.5,0.4l-0.3-0.9c0.4-0.3,1.1-0.5,2-0.5c1.8,0,2.3,1.1,2.3,2.3v2c0,0.5,0,1,0.1,1.3H154.1z
				 M153.9,321.6c-1,0-1.9,0.2-1.9,1c0,0.5,0.4,0.8,0.8,0.8c0.6,0,1-0.4,1.1-0.8c0-0.1,0-0.2,0-0.3V321.6z"/>
			<path class="st19" d="M156.8,320.4c0-0.6,0-1.2,0-1.6h1.2l0.1,0.8h0c0.3-0.4,0.8-0.9,1.7-0.9c0.7,0,1.3,0.4,1.5,1h0
				c0.2-0.3,0.4-0.5,0.7-0.7c0.3-0.2,0.7-0.3,1.1-0.3c0.9,0,1.9,0.6,1.9,2.4v3.3h-1.4v-3.1c0-0.9-0.3-1.5-1-1.5
				c-0.5,0-0.8,0.3-1,0.7c0,0.1-0.1,0.3-0.1,0.5v3.3h-1.4v-3.2c0-0.8-0.3-1.3-1-1.3c-0.5,0-0.9,0.4-1,0.8c-0.1,0.1-0.1,0.3-0.1,0.5
				v3.3h-1.4V320.4z"/>
			<path class="st19" d="M167.9,317.2c0,0.4-0.3,0.8-0.8,0.8c-0.5,0-0.8-0.3-0.8-0.8c0-0.4,0.3-0.8,0.8-0.8
				C167.6,316.4,167.9,316.8,167.9,317.2z M166.4,324.3v-5.5h1.4v5.5H166.4z"/>
			<path class="st19" d="M173.4,324.1c-0.3,0.1-0.9,0.3-1.6,0.3c-1.7,0-2.9-1.1-2.9-2.8c0-1.7,1.1-3,3.1-3c0.5,0,1,0.1,1.4,0.3
				l-0.3,1c-0.2-0.1-0.6-0.2-1.1-0.2c-1.1,0-1.7,0.8-1.7,1.8c0,1.1,0.7,1.8,1.7,1.8c0.5,0,0.8-0.1,1.1-0.2L173.4,324.1z"/>
			<path class="st19" d="M176.8,320.5c0-0.8,0-1.3,0-1.8h1.2l0,1.1h0c0.3-0.8,0.9-1.2,1.5-1.2c0.1,0,0.2,0,0.3,0v1.3
				c-0.1,0-0.2,0-0.4,0c-0.7,0-1.1,0.4-1.3,1.1c0,0.1,0,0.3,0,0.4v2.9h-1.4V320.5z"/>
			<path class="st19" d="M186,321.5c0,2-1.4,2.9-2.8,2.9c-1.6,0-2.8-1.1-2.8-2.9c0-1.8,1.2-2.9,2.9-2.9
				C184.9,318.6,186,319.8,186,321.5z M181.8,321.5c0,1.1,0.5,1.9,1.4,1.9c0.8,0,1.4-0.8,1.4-1.9c0-0.9-0.4-1.9-1.3-1.9
				C182.2,319.7,181.8,320.6,181.8,321.5z"/>
			<path class="st19" d="M192.1,322.6c0,0.7,0,1.2,0,1.7h-1.2l-0.1-0.8h0c-0.2,0.4-0.8,1-1.8,1c-1,0-1.9-0.6-1.9-2.4v-3.3h1.4v3
				c0,0.9,0.3,1.5,1,1.5c0.6,0,0.9-0.4,1.1-0.8c0-0.1,0.1-0.3,0.1-0.4v-3.3h1.4V322.6z"/>
			<path class="st19" d="M195.2,317.2v1.6h1.3v1h-1.3v2.4c0,0.7,0.2,1,0.7,1c0.2,0,0.4,0,0.5-0.1l0,1.1c-0.2,0.1-0.6,0.1-1,0.1
				c-0.5,0-0.9-0.2-1.2-0.5c-0.3-0.3-0.4-0.8-0.4-1.5v-2.6h-0.8v-1h0.8v-1.3L195.2,317.2z"/>
			<path class="st19" d="M199.1,317.2c0,0.4-0.3,0.8-0.8,0.8c-0.5,0-0.8-0.3-0.8-0.8c0-0.4,0.3-0.8,0.8-0.8
				C198.8,316.4,199.1,316.8,199.1,317.2z M197.6,324.3v-5.5h1.4v5.5H197.6z"/>
			<path class="st19" d="M200.5,320.4c0-0.6,0-1.2,0-1.6h1.2l0.1,0.8h0c0.2-0.4,0.8-1,1.8-1c1,0,2,0.6,2,2.4v3.3h-1.4v-3.1
				c0-0.8-0.3-1.4-1.1-1.4c-0.6,0-0.9,0.4-1.1,0.8c0,0.1-0.1,0.3-0.1,0.5v3.3h-1.4V320.4z"/>
			<path class="st19" d="M212.1,318.8c0,0.4,0,0.8,0,1.6v3.1c0,1.2-0.2,2-0.8,2.5c-0.6,0.5-1.4,0.7-2.1,0.7c-0.7,0-1.5-0.1-1.9-0.4
				l0.3-1.1c0.4,0.2,0.9,0.4,1.6,0.4c0.9,0,1.6-0.5,1.6-1.7v-0.5h0c-0.3,0.5-0.9,0.8-1.6,0.8c-1.4,0-2.4-1.1-2.4-2.7
				c0-1.8,1.2-2.9,2.5-2.9c0.8,0,1.3,0.4,1.6,0.9h0l0.1-0.7H212.1z M210.6,321c0-0.1,0-0.3,0-0.4c-0.1-0.5-0.5-0.9-1.1-0.9
				c-0.8,0-1.4,0.7-1.4,1.8c0,0.9,0.5,1.7,1.4,1.7c0.5,0,1-0.3,1.1-0.8c0-0.1,0.1-0.3,0.1-0.5V321z"/>
		</g>
	</g>
	<g>
		<g>
			<path class="st19" d="M63.3,97.6l-0.7,2.2h-1.4l2.5-7.7h1.8l2.5,7.7h-1.5l-0.7-2.2H63.3z M65.5,96.6l-0.6-1.9
				c-0.1-0.5-0.3-1-0.4-1.4h0c-0.1,0.4-0.2,1-0.4,1.4l-0.6,1.9H65.5z"/>
			<path class="st19" d="M73.8,98.1c0,0.7,0,1.2,0,1.7h-1.2l-0.1-0.8h0c-0.2,0.4-0.8,1-1.8,1c-1,0-1.9-0.6-1.9-2.4v-3.3h1.4v3
				c0,0.9,0.3,1.5,1,1.5c0.6,0,0.9-0.4,1.1-0.8c0-0.1,0.1-0.3,0.1-0.4v-3.3h1.4V98.1z"/>
			<path class="st19" d="M76.9,92.7v1.6h1.3v1h-1.3v2.4c0,0.7,0.2,1,0.7,1c0.2,0,0.4,0,0.5-0.1l0,1.1c-0.2,0.1-0.6,0.1-1,0.1
				c-0.5,0-0.9-0.2-1.2-0.5c-0.3-0.3-0.4-0.8-0.4-1.5v-2.6h-0.8v-1h0.8V93L76.9,92.7z"/>
			<path class="st19" d="M84.5,97c0,2-1.4,2.9-2.8,2.9c-1.6,0-2.8-1.1-2.8-2.9c0-1.8,1.2-2.9,2.9-2.9C83.4,94.1,84.5,95.3,84.5,97z
				 M80.3,97c0,1.1,0.5,1.9,1.4,1.9c0.8,0,1.4-0.8,1.4-1.9c0-0.9-0.4-1.9-1.3-1.9C80.7,95.2,80.3,96.1,80.3,97z"/>
			<path class="st19" d="M85.6,95.9c0-0.6,0-1.2,0-1.6h1.2l0.1,0.8h0c0.3-0.4,0.8-0.9,1.7-0.9c0.7,0,1.3,0.4,1.5,1h0
				c0.2-0.3,0.4-0.5,0.7-0.7c0.3-0.2,0.7-0.3,1.1-0.3c0.9,0,1.9,0.6,1.9,2.4v3.3h-1.4v-3.1c0-0.9-0.3-1.5-1-1.5
				c-0.5,0-0.8,0.3-1,0.7c0,0.1-0.1,0.3-0.1,0.5v3.3H89v-3.2c0-0.8-0.3-1.3-1-1.3c-0.5,0-0.9,0.4-1,0.8C87,96.2,87,96.4,87,96.5v3.3
				h-1.4V95.9z"/>
			<path class="st19" d="M98.4,99.8l-0.1-0.6h0c-0.3,0.4-0.9,0.7-1.6,0.7c-1.1,0-1.7-0.8-1.7-1.6c0-1.4,1.2-2.1,3.3-2.1v-0.1
				c0-0.4-0.1-1-1.1-1c-0.5,0-1.1,0.2-1.5,0.4l-0.3-0.9c0.4-0.3,1.1-0.5,2-0.5c1.8,0,2.3,1.1,2.3,2.3v2c0,0.5,0,1,0.1,1.3H98.4z
				 M98.2,97.1c-1,0-1.9,0.2-1.9,1c0,0.5,0.4,0.8,0.8,0.8c0.6,0,1-0.4,1.1-0.8c0-0.1,0-0.2,0-0.3V97.1z"/>
			<path class="st19" d="M102.6,92.7v1.6h1.3v1h-1.3v2.4c0,0.7,0.2,1,0.7,1c0.2,0,0.4,0,0.5-0.1l0,1.1c-0.2,0.1-0.6,0.1-1,0.1
				c-0.5,0-0.9-0.2-1.2-0.5c-0.3-0.3-0.4-0.8-0.4-1.5v-2.6h-0.8v-1h0.8V93L102.6,92.7z"/>
			<path class="st19" d="M105.9,97.4c0,1,0.8,1.4,1.7,1.4c0.6,0,1.1-0.1,1.5-0.3l0.2,1c-0.5,0.2-1.1,0.3-1.9,0.3
				c-1.8,0-2.9-1.1-2.9-2.8c0-1.5,0.9-3,2.7-3c1.8,0,2.4,1.5,2.4,2.7c0,0.3,0,0.5,0,0.6H105.9z M108.3,96.4c0-0.5-0.2-1.4-1.1-1.4
				c-0.9,0-1.2,0.8-1.3,1.4H108.3z"/>
			<path class="st19" d="M115.9,91.7v6.5c0,0.6,0,1.2,0,1.6h-1.3l-0.1-0.9h0c-0.3,0.6-1,1-1.8,1c-1.3,0-2.4-1.1-2.4-2.8
				c0-1.9,1.1-3,2.5-3c0.8,0,1.3,0.3,1.6,0.7h0v-3.1H115.9z M114.5,96.6c0-0.1,0-0.3,0-0.4c-0.1-0.5-0.6-1-1.2-1
				c-0.9,0-1.4,0.8-1.4,1.8c0,1,0.5,1.8,1.4,1.8c0.6,0,1.1-0.4,1.2-1c0-0.1,0-0.3,0-0.4V96.6z"/>
			<path class="st19" d="M119.9,99.8v-4.5h-0.8v-1h0.8V94c0-0.7,0.2-1.4,0.7-1.9c0.4-0.4,1-0.5,1.4-0.5c0.4,0,0.7,0.1,0.9,0.1
				l-0.1,1.1c-0.1-0.1-0.3-0.1-0.6-0.1c-0.7,0-0.9,0.6-0.9,1.3v0.3h1.2v1h-1.2v4.5H119.9z"/>
			<path class="st19" d="M123.4,96c0-0.8,0-1.3,0-1.8h1.2l0,1.1h0c0.3-0.8,0.9-1.2,1.5-1.2c0.1,0,0.2,0,0.3,0v1.3
				c-0.1,0-0.2,0-0.4,0c-0.7,0-1.1,0.4-1.3,1.1c0,0.1,0,0.3,0,0.4v2.9h-1.4V96z"/>
			<path class="st19" d="M128.3,97.4c0,1,0.8,1.4,1.7,1.4c0.6,0,1.1-0.1,1.5-0.3l0.2,1c-0.5,0.2-1.1,0.3-1.9,0.3
				c-1.8,0-2.9-1.1-2.9-2.8c0-1.5,0.9-3,2.7-3c1.8,0,2.4,1.5,2.4,2.7c0,0.3,0,0.5,0,0.6H128.3z M130.8,96.4c0-0.5-0.2-1.4-1.1-1.4
				c-0.9,0-1.2,0.8-1.3,1.4H130.8z"/>
			<path class="st19" d="M134.7,92.7c0,0.4-0.3,0.8-0.8,0.8c-0.5,0-0.8-0.3-0.8-0.8c0-0.4,0.3-0.8,0.8-0.8
				C134.4,91.9,134.7,92.3,134.7,92.7z M133.2,99.8v-5.5h1.4v5.5H133.2z"/>
			<path class="st19" d="M141.2,94.3c0,0.4,0,0.8,0,1.6V99c0,1.2-0.2,2-0.8,2.5c-0.6,0.5-1.4,0.7-2.1,0.7c-0.7,0-1.5-0.1-1.9-0.4
				l0.3-1.1c0.4,0.2,0.9,0.4,1.6,0.4c0.9,0,1.6-0.5,1.6-1.7v-0.5h0c-0.3,0.5-0.9,0.8-1.6,0.8c-1.4,0-2.4-1.1-2.4-2.7
				c0-1.8,1.2-2.9,2.5-2.9c0.8,0,1.3,0.4,1.6,0.9h0l0.1-0.7H141.2z M139.7,96.5c0-0.1,0-0.3,0-0.4c-0.1-0.5-0.5-0.9-1.1-0.9
				c-0.8,0-1.4,0.7-1.4,1.8c0,0.9,0.5,1.7,1.4,1.7c0.5,0,1-0.3,1.1-0.8c0-0.1,0.1-0.3,0.1-0.5V96.5z"/>
			<path class="st19" d="M142.6,91.7h1.4V95h0c0.2-0.3,0.4-0.5,0.7-0.6c0.3-0.2,0.6-0.3,1-0.3c0.9,0,1.9,0.6,1.9,2.4v3.3h-1.4v-3.1
				c0-0.8-0.3-1.4-1.1-1.4c-0.5,0-0.9,0.4-1.1,0.8c0,0.1-0.1,0.3-0.1,0.4v3.3h-1.4V91.7z"/>
			<path class="st19" d="M150.7,92.7v1.6h1.3v1h-1.3v2.4c0,0.7,0.2,1,0.7,1c0.2,0,0.4,0,0.5-0.1l0,1.1c-0.2,0.1-0.6,0.1-1,0.1
				c-0.5,0-0.9-0.2-1.2-0.5c-0.3-0.3-0.4-0.8-0.4-1.5v-2.6h-0.8v-1h0.8V93L150.7,92.7z"/>
			<path class="st19" d="M80.7,110.2c0.3,0.2,0.9,0.4,1.4,0.4c0.6,0,0.9-0.3,0.9-0.6c0-0.4-0.2-0.6-0.9-0.8c-1.1-0.4-1.5-1-1.5-1.6
				c0-1,0.8-1.7,2.1-1.7c0.6,0,1.1,0.2,1.5,0.3l-0.3,1c-0.2-0.1-0.7-0.3-1.2-0.3c-0.5,0-0.8,0.2-0.8,0.6c0,0.4,0.3,0.5,1,0.8
				c1,0.4,1.5,0.9,1.5,1.7c0,1-0.8,1.7-2.3,1.7c-0.7,0-1.3-0.2-1.7-0.4L80.7,110.2z"/>
			<path class="st19" d="M86.5,109.1c0,1,0.8,1.4,1.7,1.4c0.6,0,1.1-0.1,1.5-0.3l0.2,1c-0.5,0.2-1.1,0.3-1.9,0.3
				c-1.8,0-2.9-1.1-2.9-2.8c0-1.5,0.9-3,2.7-3c1.8,0,2.4,1.5,2.4,2.7c0,0.3,0,0.5,0,0.6H86.5z M88.9,108.1c0-0.5-0.2-1.4-1.1-1.4
				c-0.9,0-1.2,0.8-1.3,1.4H88.9z"/>
			<path class="st19" d="M93,104.3v1.6h1.3v1H93v2.4c0,0.7,0.2,1,0.7,1c0.2,0,0.4,0,0.5-0.1l0,1.1c-0.2,0.1-0.6,0.1-1,0.1
				c-0.5,0-0.9-0.2-1.2-0.5c-0.3-0.3-0.4-0.8-0.4-1.5V107h-0.8v-1h0.8v-1.3L93,104.3z"/>
			<path class="st19" d="M96.9,104.3v1.6h1.3v1h-1.3v2.4c0,0.7,0.2,1,0.7,1c0.2,0,0.4,0,0.5-0.1l0,1.1c-0.2,0.1-0.6,0.1-1,0.1
				c-0.5,0-0.9-0.2-1.2-0.5c-0.3-0.3-0.4-0.8-0.4-1.5V107h-0.8v-1h0.8v-1.3L96.9,104.3z"/>
			<path class="st19" d="M99.3,103.4h1.4v8.1h-1.4V103.4z"/>
			<path class="st19" d="M103.2,109.1c0,1,0.8,1.4,1.7,1.4c0.6,0,1.1-0.1,1.5-0.3l0.2,1c-0.5,0.2-1.1,0.3-1.9,0.3
				c-1.8,0-2.9-1.1-2.9-2.8c0-1.5,0.9-3,2.7-3c1.8,0,2.4,1.5,2.4,2.7c0,0.3,0,0.5,0,0.6H103.2z M105.7,108.1c0-0.5-0.2-1.4-1.1-1.4
				c-0.9,0-1.2,0.8-1.3,1.4H105.7z"/>
			<path class="st19" d="M108.1,107.6c0-0.6,0-1.2,0-1.6h1.2l0.1,0.8h0c0.3-0.4,0.8-0.9,1.7-0.9c0.7,0,1.3,0.4,1.5,1h0
				c0.2-0.3,0.4-0.5,0.7-0.7c0.3-0.2,0.7-0.3,1.1-0.3c0.9,0,1.9,0.6,1.9,2.4v3.3h-1.4v-3.1c0-0.9-0.3-1.5-1-1.5
				c-0.5,0-0.8,0.3-1,0.7c0,0.1-0.1,0.3-0.1,0.5v3.3h-1.4v-3.2c0-0.8-0.3-1.3-1-1.3c-0.5,0-0.9,0.4-1,0.8c-0.1,0.1-0.1,0.3-0.1,0.5
				v3.3h-1.4V107.6z"/>
			<path class="st19" d="M118.8,109.1c0,1,0.8,1.4,1.7,1.4c0.6,0,1.1-0.1,1.5-0.3l0.2,1c-0.5,0.2-1.1,0.3-1.9,0.3
				c-1.8,0-2.9-1.1-2.9-2.8c0-1.5,0.9-3,2.7-3c1.8,0,2.4,1.5,2.4,2.7c0,0.3,0,0.5,0,0.6H118.8z M121.2,108.1c0-0.5-0.2-1.4-1.1-1.4
				c-0.9,0-1.2,0.8-1.3,1.4H121.2z"/>
			<path class="st19" d="M123.6,107.6c0-0.6,0-1.2,0-1.6h1.2l0.1,0.8h0c0.2-0.4,0.8-1,1.8-1c1,0,2,0.6,2,2.4v3.3h-1.4v-3.1
				c0-0.8-0.3-1.4-1.1-1.4c-0.6,0-0.9,0.4-1.1,0.8c0,0.1-0.1,0.3-0.1,0.5v3.3h-1.4V107.6z"/>
			<path class="st19" d="M131.7,104.3v1.6h1.3v1h-1.3v2.4c0,0.7,0.2,1,0.7,1c0.2,0,0.4,0,0.5-0.1l0,1.1c-0.2,0.1-0.6,0.1-1,0.1
				c-0.5,0-0.9-0.2-1.2-0.5c-0.3-0.3-0.4-0.8-0.4-1.5V107h-0.8v-1h0.8v-1.3L131.7,104.3z"/>
		</g>
	</g>
	<g>
		<g>
			<path class="st19" d="M230.9,98.5c-0.3,0.2-1.1,0.3-2,0.3c-2.4,0-3.9-1.5-3.9-3.9c0-2.5,1.8-4,4.1-4c0.9,0,1.6,0.2,1.9,0.3
				l-0.3,1.1c-0.4-0.2-0.9-0.3-1.5-0.3c-1.6,0-2.7,1-2.7,2.8c0,1.7,1,2.8,2.7,2.8c0.6,0,1.2-0.1,1.5-0.3L230.9,98.5z"/>
			<path class="st19" d="M235.1,98.7l-0.1-0.6h0c-0.3,0.4-0.9,0.7-1.6,0.7c-1.1,0-1.7-0.8-1.7-1.6c0-1.4,1.2-2.1,3.3-2.1V95
				c0-0.4-0.1-1-1.1-1c-0.5,0-1.1,0.2-1.5,0.4l-0.3-0.9c0.4-0.3,1.1-0.5,2-0.5c1.8,0,2.3,1.1,2.3,2.3v2c0,0.5,0,1,0.1,1.3H235.1z
				 M234.9,96c-1,0-1.9,0.2-1.9,1c0,0.5,0.4,0.8,0.8,0.8c0.6,0,1-0.4,1.1-0.8c0-0.1,0-0.2,0-0.3V96z"/>
			<path class="st19" d="M237.8,95c0-0.7,0-1.3,0-1.8h1.2L239,94h0c0.4-0.6,1.1-1,1.9-1c1.3,0,2.3,1.1,2.3,2.8c0,2-1.3,3-2.5,3
				c-0.7,0-1.3-0.3-1.6-0.7h0v2.9h-1.4V95z M239.2,96.4c0,0.1,0,0.3,0,0.4c0.1,0.6,0.6,1,1.2,1c0.9,0,1.4-0.7,1.4-1.8
				c0-1-0.5-1.8-1.4-1.8c-0.6,0-1.1,0.4-1.3,1c0,0.1-0.1,0.2-0.1,0.4V96.4z"/>
			<path class="st19" d="M247.5,98.7l-0.1-0.6h0c-0.3,0.4-0.9,0.7-1.6,0.7c-1.1,0-1.7-0.8-1.7-1.6c0-1.4,1.2-2.1,3.3-2.1V95
				c0-0.4-0.1-1-1.1-1c-0.5,0-1.1,0.2-1.5,0.4l-0.3-0.9c0.4-0.3,1.1-0.5,2-0.5c1.8,0,2.3,1.1,2.3,2.3v2c0,0.5,0,1,0.1,1.3H247.5z
				 M247.3,96c-1,0-1.9,0.2-1.9,1c0,0.5,0.4,0.8,0.8,0.8c0.6,0,1-0.4,1.1-0.8c0-0.1,0-0.2,0-0.3V96z"/>
			<path class="st19" d="M254.3,98.6c-0.3,0.1-0.9,0.3-1.6,0.3c-1.7,0-2.9-1.1-2.9-2.8c0-1.7,1.1-3,3.1-3c0.5,0,1,0.1,1.4,0.3
				l-0.3,1c-0.2-0.1-0.6-0.2-1.1-0.2c-1.1,0-1.7,0.8-1.7,1.8c0,1.1,0.7,1.8,1.7,1.8c0.5,0,0.8-0.1,1.1-0.2L254.3,98.6z"/>
			<path class="st19" d="M256.8,91.6c0,0.4-0.3,0.8-0.8,0.8c-0.5,0-0.8-0.3-0.8-0.8c0-0.4,0.3-0.8,0.8-0.8
				C256.5,90.9,256.8,91.2,256.8,91.6z M255.3,98.7v-5.5h1.4v5.5H255.3z"/>
			<path class="st19" d="M259.8,91.6v1.6h1.3v1h-1.3v2.4c0,0.7,0.2,1,0.7,1c0.2,0,0.4,0,0.5-0.1l0,1.1c-0.2,0.1-0.6,0.1-1,0.1
				c-0.5,0-0.9-0.2-1.2-0.5c-0.3-0.3-0.4-0.8-0.4-1.5v-2.6h-0.8v-1h0.8v-1.3L259.8,91.6z"/>
			<path class="st19" d="M263.2,93.2l1,3c0.1,0.3,0.2,0.8,0.3,1.1h0c0.1-0.3,0.2-0.7,0.3-1.1l0.9-3h1.5l-1.4,3.8
				c-0.8,2.1-1.3,3-1.9,3.6c-0.5,0.5-1.1,0.7-1.5,0.7l-0.3-1.2c0.2-0.1,0.5-0.2,0.8-0.4c0.3-0.2,0.6-0.5,0.8-0.9
				c0.1-0.1,0.1-0.2,0.1-0.3c0-0.1,0-0.1-0.1-0.3l-2-5.1H263.2z"/>
			<path class="st19" d="M217.2,110.2c-0.3,0.1-0.9,0.3-1.6,0.3c-1.7,0-2.9-1.1-2.9-2.8c0-1.7,1.1-3,3.1-3c0.5,0,1,0.1,1.4,0.3
				l-0.3,1c-0.2-0.1-0.6-0.2-1.1-0.2c-1.1,0-1.7,0.8-1.7,1.8c0,1.1,0.7,1.8,1.7,1.8c0.5,0,0.8-0.1,1.1-0.2L217.2,110.2z"/>
			<path class="st19" d="M223.4,107.6c0,2-1.4,2.9-2.8,2.9c-1.6,0-2.8-1.1-2.8-2.9c0-1.8,1.2-2.9,2.9-2.9
				C222.3,104.7,223.4,105.9,223.4,107.6z M219.2,107.6c0,1.1,0.5,1.9,1.4,1.9c0.8,0,1.4-0.8,1.4-1.9c0-0.9-0.4-1.9-1.3-1.9
				C219.6,105.8,219.2,106.7,219.2,107.6z"/>
			<path class="st19" d="M224.6,106.5c0-0.6,0-1.2,0-1.6h1.2l0.1,0.8h0c0.2-0.4,0.8-1,1.8-1c1,0,2,0.6,2,2.4v3.3h-1.4v-3.1
				c0-0.8-0.3-1.4-1.1-1.4c-0.6,0-0.9,0.4-1.1,0.8c0,0.1-0.1,0.3-0.1,0.5v3.3h-1.4V106.5z"/>
			<path class="st19" d="M231,109.1c0.3,0.2,0.9,0.4,1.4,0.4c0.6,0,0.9-0.3,0.9-0.6c0-0.4-0.2-0.6-0.9-0.8c-1.1-0.4-1.5-1-1.5-1.6
				c0-1,0.8-1.7,2.1-1.7c0.6,0,1.1,0.2,1.5,0.3l-0.3,1c-0.2-0.1-0.7-0.3-1.2-0.3c-0.5,0-0.8,0.2-0.8,0.6c0,0.4,0.3,0.5,1,0.8
				c1,0.4,1.5,0.9,1.5,1.7c0,1-0.8,1.7-2.3,1.7c-0.7,0-1.3-0.2-1.7-0.4L231,109.1z"/>
			<path class="st19" d="M241.1,107.6c0,2-1.4,2.9-2.8,2.9c-1.6,0-2.8-1.1-2.8-2.9c0-1.8,1.2-2.9,2.9-2.9
				C240,104.7,241.1,105.9,241.1,107.6z M236.9,107.6c0,1.1,0.5,1.9,1.4,1.9c0.8,0,1.4-0.8,1.4-1.9c0-0.9-0.4-1.9-1.3-1.9
				C237.3,105.8,236.9,106.7,236.9,107.6z"/>
			<path class="st19" d="M242.2,102.3h1.4v8.1h-1.4V102.3z"/>
			<path class="st19" d="M246.6,103.3c0,0.4-0.3,0.8-0.8,0.8c-0.5,0-0.8-0.3-0.8-0.8c0-0.4,0.3-0.8,0.8-0.8
				C246.3,102.5,246.6,102.9,246.6,103.3z M245.2,110.4v-5.5h1.4v5.5H245.2z"/>
			<path class="st19" d="M253.2,102.3v6.5c0,0.6,0,1.2,0,1.6H252l-0.1-0.9h0c-0.3,0.6-1,1-1.8,1c-1.3,0-2.4-1.1-2.4-2.8
				c0-1.9,1.1-3,2.5-3c0.8,0,1.3,0.3,1.6,0.7h0v-3.1H253.2z M251.8,107.2c0-0.1,0-0.3,0-0.4c-0.1-0.5-0.6-1-1.2-1
				c-0.9,0-1.4,0.8-1.4,1.8c0,1,0.5,1.8,1.4,1.8c0.6,0,1.1-0.4,1.2-1c0-0.1,0-0.3,0-0.4V107.2z"/>
			<path class="st19" d="M257.8,110.4l-0.1-0.6h0c-0.3,0.4-0.9,0.7-1.6,0.7c-1.1,0-1.7-0.8-1.7-1.6c0-1.4,1.2-2.1,3.3-2.1v-0.1
				c0-0.4-0.1-1-1.1-1c-0.5,0-1.1,0.2-1.5,0.4l-0.3-0.9c0.4-0.3,1.1-0.5,2-0.5c1.8,0,2.3,1.1,2.3,2.3v2c0,0.5,0,1,0.1,1.3H257.8z
				 M257.6,107.7c-1,0-1.9,0.2-1.9,1c0,0.5,0.4,0.8,0.8,0.8c0.6,0,1-0.4,1.1-0.8c0-0.1,0-0.2,0-0.3V107.7z"/>
			<path class="st19" d="M262,103.3v1.6h1.3v1H262v2.4c0,0.7,0.2,1,0.7,1c0.2,0,0.4,0,0.5-0.1l0,1.1c-0.2,0.1-0.6,0.1-1,0.1
				c-0.5,0-0.9-0.2-1.2-0.5c-0.3-0.3-0.4-0.8-0.4-1.5v-2.6h-0.8v-1h0.8v-1.3L262,103.3z"/>
			<path class="st19" d="M265.9,103.3c0,0.4-0.3,0.8-0.8,0.8c-0.5,0-0.8-0.3-0.8-0.8c0-0.4,0.3-0.8,0.8-0.8
				C265.6,102.5,265.9,102.9,265.9,103.3z M264.4,110.4v-5.5h1.4v5.5H264.4z"/>
			<path class="st19" d="M272.6,107.6c0,2-1.4,2.9-2.8,2.9c-1.6,0-2.8-1.1-2.8-2.9c0-1.8,1.2-2.9,2.9-2.9
				C271.5,104.7,272.6,105.9,272.6,107.6z M268.4,107.6c0,1.1,0.5,1.9,1.4,1.9c0.8,0,1.4-0.8,1.4-1.9c0-0.9-0.4-1.9-1.3-1.9
				C268.8,105.8,268.4,106.7,268.4,107.6z"/>
			<path class="st19" d="M273.7,106.5c0-0.6,0-1.2,0-1.6h1.2l0.1,0.8h0c0.2-0.4,0.8-1,1.8-1c1,0,2,0.6,2,2.4v3.3h-1.4v-3.1
				c0-0.8-0.3-1.4-1.1-1.4c-0.6,0-0.9,0.4-1.1,0.8c0,0.1-0.1,0.3-0.1,0.5v3.3h-1.4V106.5z"/>
		</g>
	</g>
	<g>
		<g>
			<path class="st19" d="M246,226.3h1.4v6.5h3.1v1.2H246V226.3z"/>
			<path class="st19" d="M256.7,231.1c0,2-1.4,2.9-2.8,2.9c-1.6,0-2.8-1.1-2.8-2.9c0-1.8,1.2-2.9,2.9-2.9
				C255.6,228.3,256.7,229.5,256.7,231.1z M252.5,231.2c0,1.1,0.5,1.9,1.4,1.9c0.8,0,1.4-0.8,1.4-1.9c0-0.9-0.4-1.9-1.3-1.9
				C252.9,229.3,252.5,230.3,252.5,231.2z"/>
			<path class="st19" d="M260.9,234l-0.1-0.6h0c-0.3,0.4-0.9,0.7-1.6,0.7c-1.1,0-1.7-0.8-1.7-1.6c0-1.4,1.2-2.1,3.3-2.1v-0.1
				c0-0.4-0.1-1-1.1-1c-0.5,0-1.1,0.2-1.5,0.4l-0.3-0.9c0.4-0.3,1.1-0.5,2-0.5c1.8,0,2.3,1.1,2.3,2.3v2c0,0.5,0,1,0.1,1.3H260.9z
				 M260.8,231.3c-1,0-1.9,0.2-1.9,1c0,0.5,0.4,0.8,0.8,0.8c0.6,0,1-0.4,1.1-0.8c0-0.1,0-0.2,0-0.3V231.3z"/>
			<path class="st19" d="M268.7,225.9v6.5c0,0.6,0,1.2,0,1.6h-1.3l-0.1-0.9h0c-0.3,0.6-1,1-1.8,1c-1.3,0-2.4-1.1-2.4-2.8
				c0-1.9,1.1-3,2.5-3c0.8,0,1.3,0.3,1.6,0.7h0v-3.1H268.7z M267.3,230.7c0-0.1,0-0.3,0-0.4c-0.1-0.5-0.6-1-1.2-1
				c-0.9,0-1.4,0.8-1.4,1.8c0,1,0.5,1.8,1.4,1.8c0.6,0,1.1-0.4,1.2-1c0-0.1,0-0.3,0-0.4V230.7z"/>
			<path class="st19" d="M272.6,230.3c0-0.7,0-1.3,0-1.8h1.2l0.1,0.9h0c0.4-0.6,1.1-1,1.9-1c1.3,0,2.3,1.1,2.3,2.8c0,2-1.3,3-2.5,3
				c-0.7,0-1.3-0.3-1.6-0.7h0v2.9h-1.4V230.3z M274,231.6c0,0.1,0,0.3,0,0.4c0.1,0.6,0.6,1,1.2,1c0.9,0,1.4-0.7,1.4-1.8
				c0-1-0.5-1.8-1.4-1.8c-0.6,0-1.1,0.4-1.3,1c0,0.1-0.1,0.2-0.1,0.4V231.6z"/>
			<path class="st19" d="M279.2,225.9h1.4v8.1h-1.4V225.9z"/>
			<path class="st19" d="M285.3,234l-0.1-0.6h0c-0.3,0.4-0.9,0.7-1.6,0.7c-1.1,0-1.7-0.8-1.7-1.6c0-1.4,1.2-2.1,3.3-2.1v-0.1
				c0-0.4-0.1-1-1.1-1c-0.5,0-1.1,0.2-1.5,0.4l-0.3-0.9c0.4-0.3,1.1-0.5,2-0.5c1.8,0,2.3,1.1,2.3,2.3v2c0,0.5,0,1,0.1,1.3H285.3z
				 M285.1,231.3c-1,0-1.9,0.2-1.9,1c0,0.5,0.4,0.8,0.8,0.8c0.6,0,1-0.4,1.1-0.8c0-0.1,0-0.2,0-0.3V231.3z"/>
			<path class="st19" d="M287.9,230.1c0-0.6,0-1.2,0-1.6h1.2l0.1,0.8h0c0.2-0.4,0.8-1,1.8-1c1,0,2,0.6,2,2.4v3.3h-1.4v-3.1
				c0-0.8-0.3-1.4-1.1-1.4c-0.6,0-0.9,0.4-1.1,0.8c0,0.1-0.1,0.3-0.1,0.5v3.3h-1.4V230.1z"/>
			<path class="st19" d="M294.4,230.1c0-0.6,0-1.2,0-1.6h1.2l0.1,0.8h0c0.2-0.4,0.8-1,1.8-1c1,0,2,0.6,2,2.4v3.3H298v-3.1
				c0-0.8-0.3-1.4-1.1-1.4c-0.6,0-0.9,0.4-1.1,0.8c0,0.1-0.1,0.3-0.1,0.5v3.3h-1.4V230.1z"/>
			<path class="st19" d="M302.4,226.9c0,0.4-0.3,0.8-0.8,0.8c-0.5,0-0.8-0.3-0.8-0.8c0-0.4,0.3-0.8,0.8-0.8
				C302.1,226.1,302.4,226.4,302.4,226.9z M300.9,234v-5.5h1.4v5.5H300.9z"/>
			<path class="st19" d="M303.8,230.1c0-0.6,0-1.2,0-1.6h1.2l0.1,0.8h0c0.2-0.4,0.8-1,1.8-1c1,0,2,0.6,2,2.4v3.3h-1.4v-3.1
				c0-0.8-0.3-1.4-1.1-1.4c-0.6,0-0.9,0.4-1.1,0.8c0,0.1-0.1,0.3-0.1,0.5v3.3h-1.4V230.1z"/>
			<path class="st19" d="M315.4,228.4c0,0.4,0,0.8,0,1.6v3.1c0,1.2-0.2,2-0.8,2.5c-0.6,0.5-1.4,0.7-2.1,0.7c-0.7,0-1.5-0.1-1.9-0.4
				l0.3-1.1c0.4,0.2,0.9,0.4,1.6,0.4c0.9,0,1.6-0.5,1.6-1.7v-0.5h0c-0.3,0.5-0.9,0.8-1.6,0.8c-1.4,0-2.4-1.1-2.4-2.7
				c0-1.8,1.2-2.9,2.5-2.9c0.8,0,1.3,0.4,1.6,0.9h0l0.1-0.7H315.4z M314,230.6c0-0.1,0-0.3,0-0.4c-0.1-0.5-0.5-0.9-1.1-0.9
				c-0.8,0-1.4,0.7-1.4,1.8c0,0.9,0.5,1.7,1.4,1.7c0.5,0,1-0.3,1.1-0.8c0-0.1,0.1-0.3,0.1-0.5V230.6z"/>
			<path class="st19" d="M253.1,245.6L253,245h0c-0.3,0.4-0.9,0.7-1.6,0.7c-1.1,0-1.7-0.8-1.7-1.6c0-1.4,1.2-2.1,3.3-2.1v-0.1
				c0-0.4-0.1-1-1.1-1c-0.5,0-1.1,0.2-1.5,0.4l-0.3-0.9c0.4-0.3,1.1-0.5,2-0.5c1.8,0,2.3,1.1,2.3,2.3v2c0,0.5,0,1,0.1,1.3H253.1z
				 M252.9,242.9c-1,0-1.9,0.2-1.9,1c0,0.5,0.4,0.8,0.8,0.8c0.6,0,1-0.4,1.1-0.8c0-0.1,0-0.2,0-0.3V242.9z"/>
			<path class="st19" d="M255.8,241.7c0-0.6,0-1.2,0-1.6h1.2l0.1,0.8h0c0.2-0.4,0.8-1,1.8-1c1,0,2,0.6,2,2.4v3.3h-1.4v-3.1
				c0-0.8-0.3-1.4-1.1-1.4c-0.6,0-0.9,0.4-1.1,0.8c0,0.1-0.1,0.3-0.1,0.5v3.3h-1.4V241.7z"/>
			<path class="st19" d="M267.4,237.6v6.5c0,0.6,0,1.2,0,1.6h-1.3l-0.1-0.9h0c-0.3,0.6-1,1-1.8,1c-1.3,0-2.4-1.1-2.4-2.8
				c0-1.9,1.1-3,2.5-3c0.8,0,1.3,0.3,1.6,0.7h0v-3.1H267.4z M266,242.4c0-0.1,0-0.3,0-0.4c-0.1-0.5-0.6-1-1.2-1
				c-0.9,0-1.4,0.8-1.4,1.8c0,1,0.5,1.8,1.4,1.8c0.6,0,1.1-0.4,1.2-1c0-0.1,0-0.3,0-0.4V242.4z"/>
			<path class="st19" d="M271.2,245.6c0-0.4,0-1,0-1.6v-6.5h1.4v3.3h0c0.3-0.5,0.9-0.9,1.8-0.9c1.4,0,2.3,1.1,2.3,2.8
				c0,2-1.3,3-2.5,3c-0.7,0-1.4-0.3-1.8-1h0l-0.1,0.8H271.2z M272.7,243.3c0,0.1,0,0.2,0,0.3c0.1,0.6,0.6,1,1.2,1
				c0.9,0,1.4-0.7,1.4-1.8c0-1-0.5-1.8-1.4-1.8c-0.6,0-1.1,0.4-1.2,1c0,0.1,0,0.2,0,0.4V243.3z"/>
			<path class="st19" d="M282.9,244c0,0.7,0,1.2,0,1.7h-1.2l-0.1-0.8h0c-0.2,0.4-0.8,1-1.8,1c-1,0-1.9-0.6-1.9-2.4v-3.3h1.4v3
				c0,0.9,0.3,1.5,1,1.5c0.6,0,0.9-0.4,1.1-0.8c0-0.1,0.1-0.3,0.1-0.4v-3.3h1.4V244z"/>
			<path class="st19" d="M285.9,238.5c0,0.4-0.3,0.8-0.8,0.8c-0.5,0-0.8-0.3-0.8-0.8c0-0.4,0.3-0.8,0.8-0.8
				C285.6,237.8,285.9,238.1,285.9,238.5z M284.4,245.6v-5.5h1.4v5.5H284.4z"/>
			<path class="st19" d="M287.3,237.6h1.4v8.1h-1.4V237.6z"/>
			<path class="st19" d="M295.3,237.6v6.5c0,0.6,0,1.2,0,1.6h-1.3l-0.1-0.9h0c-0.3,0.6-1,1-1.8,1c-1.3,0-2.4-1.1-2.4-2.8
				c0-1.9,1.1-3,2.5-3c0.8,0,1.3,0.3,1.6,0.7h0v-3.1H295.3z M293.9,242.4c0-0.1,0-0.3,0-0.4c-0.1-0.5-0.6-1-1.2-1
				c-0.9,0-1.4,0.8-1.4,1.8c0,1,0.5,1.8,1.4,1.8c0.6,0,1.1-0.4,1.2-1c0-0.1,0-0.3,0-0.4V242.4z"/>
			<path class="st19" d="M298.3,238.5c0,0.4-0.3,0.8-0.8,0.8c-0.5,0-0.8-0.3-0.8-0.8c0-0.4,0.3-0.8,0.8-0.8
				C298,237.8,298.3,238.1,298.3,238.5z M296.8,245.6v-5.5h1.4v5.5H296.8z"/>
			<path class="st19" d="M299.7,241.7c0-0.6,0-1.2,0-1.6h1.2l0.1,0.8h0c0.2-0.4,0.8-1,1.8-1c1,0,2,0.6,2,2.4v3.3h-1.4v-3.1
				c0-0.8-0.3-1.4-1.1-1.4c-0.6,0-0.9,0.4-1.1,0.8c0,0.1-0.1,0.3-0.1,0.5v3.3h-1.4V241.7z"/>
			<path class="st19" d="M311.3,240.1c0,0.4,0,0.8,0,1.6v3.1c0,1.2-0.2,2-0.8,2.5c-0.6,0.5-1.4,0.7-2.1,0.7c-0.7,0-1.5-0.1-1.9-0.4
				l0.3-1.1c0.4,0.2,0.9,0.4,1.6,0.4c0.9,0,1.6-0.5,1.6-1.7v-0.5h0c-0.3,0.5-0.9,0.8-1.6,0.8c-1.4,0-2.4-1.1-2.4-2.7
				c0-1.8,1.2-2.9,2.5-2.9c0.8,0,1.3,0.4,1.6,0.9h0l0.1-0.7H311.3z M309.9,242.3c0-0.1,0-0.3,0-0.4c-0.1-0.5-0.5-0.9-1.1-0.9
				c-0.8,0-1.4,0.7-1.4,1.8c0,0.9,0.5,1.7,1.4,1.7c0.5,0,1-0.3,1.1-0.8c0-0.1,0.1-0.3,0.1-0.5V242.3z"/>
		</g>
	</g>
	<g>
		<g>
			<path class="st19" d="M36.5,223.7c0.6-0.1,1.4-0.2,2.2-0.2c1.4,0,2.4,0.3,3.1,0.9c0.7,0.6,1.2,1.5,1.2,2.8c0,1.4-0.5,2.4-1.2,3
				c-0.8,0.7-2,1-3.5,1c-0.8,0-1.4,0-1.9-0.1V223.7z M37.9,230.2c0.2,0,0.5,0,0.8,0c1.8,0,2.9-1,2.9-2.9c0-1.7-1-2.7-2.7-2.7
				c-0.4,0-0.8,0-1,0.1V230.2z"/>
			<path class="st19" d="M44.3,227.5c0-0.8,0-1.3,0-1.8h1.2l0,1.1h0c0.3-0.8,0.9-1.2,1.5-1.2c0.1,0,0.2,0,0.3,0v1.3
				c-0.1,0-0.2,0-0.4,0c-0.7,0-1.1,0.4-1.3,1.1c0,0.1,0,0.3,0,0.4v2.9h-1.4V227.5z"/>
			<path class="st19" d="M49.8,224.2c0,0.4-0.3,0.8-0.8,0.8c-0.5,0-0.8-0.3-0.8-0.8c0-0.4,0.3-0.8,0.8-0.8
				C49.5,223.4,49.8,223.7,49.8,224.2z M48.3,231.3v-5.5h1.4v5.5H48.3z"/>
			<path class="st19" d="M52.1,225.7l0.9,2.8c0.2,0.5,0.3,0.9,0.4,1.4h0c0.1-0.5,0.2-0.9,0.4-1.4l0.9-2.8h1.5l-2.1,5.5h-1.4
				l-2.1-5.5H52.1z"/>
			<path class="st19" d="M57.8,228.9c0,1,0.8,1.4,1.7,1.4c0.6,0,1.1-0.1,1.5-0.3l0.2,1c-0.5,0.2-1.1,0.3-1.9,0.3
				c-1.8,0-2.9-1.1-2.9-2.8c0-1.5,0.9-3,2.7-3c1.8,0,2.4,1.5,2.4,2.7c0,0.3,0,0.5,0,0.6H57.8z M60.3,227.9c0-0.5-0.2-1.4-1.1-1.4
				c-0.9,0-1.2,0.8-1.3,1.4H60.3z"/>
			<path class="st19" d="M62.7,227.5c0-0.8,0-1.3,0-1.8h1.2l0,1.1h0c0.3-0.8,0.9-1.2,1.5-1.2c0.1,0,0.2,0,0.3,0v1.3
				c-0.1,0-0.2,0-0.4,0c-0.7,0-1.1,0.4-1.3,1.1c0,0.1,0,0.3,0,0.4v2.9h-1.4V227.5z"/>
			<path class="st19" d="M72.2,231.3l-0.1-0.6h0c-0.3,0.4-0.9,0.7-1.6,0.7c-1.1,0-1.7-0.8-1.7-1.6c0-1.4,1.2-2.1,3.3-2.1v-0.1
				c0-0.4-0.1-1-1.1-1c-0.5,0-1.1,0.2-1.5,0.4l-0.3-0.9c0.4-0.3,1.1-0.5,2-0.5c1.8,0,2.3,1.1,2.3,2.3v2c0,0.5,0,1,0.1,1.3H72.2z
				 M72.1,228.6c-1,0-1.9,0.2-1.9,1c0,0.5,0.4,0.8,0.8,0.8c0.6,0,1-0.4,1.1-0.8c0-0.1,0-0.2,0-0.3V228.6z"/>
			<path class="st19" d="M74.9,227.4c0-0.6,0-1.2,0-1.6h1.2l0.1,0.8h0c0.2-0.4,0.8-1,1.8-1c1,0,2,0.6,2,2.4v3.3h-1.4v-3.1
				c0-0.8-0.3-1.4-1.1-1.4c-0.6,0-0.9,0.4-1.1,0.8c0,0.1-0.1,0.3-0.1,0.5v3.3h-1.4V227.4z"/>
			<path class="st19" d="M86.5,223.2v6.5c0,0.6,0,1.2,0,1.6h-1.3l-0.1-0.9h0c-0.3,0.6-1,1-1.8,1c-1.3,0-2.4-1.1-2.4-2.8
				c0-1.9,1.1-3,2.5-3c0.8,0,1.3,0.3,1.6,0.7h0v-3.1H86.5z M85.1,228c0-0.1,0-0.3,0-0.4c-0.1-0.5-0.6-1-1.2-1
				c-0.9,0-1.4,0.8-1.4,1.8c0,1,0.5,1.8,1.4,1.8c0.6,0,1.1-0.4,1.2-1c0-0.1,0-0.3,0-0.4V228z"/>
			<path class="st19" d="M94.4,231.1c-0.3,0.1-0.9,0.3-1.6,0.3c-1.7,0-2.9-1.1-2.9-2.8c0-1.7,1.1-3,3.1-3c0.5,0,1,0.1,1.4,0.3
				l-0.3,1c-0.2-0.1-0.6-0.2-1.1-0.2c-1.1,0-1.7,0.8-1.7,1.8c0,1.1,0.7,1.8,1.7,1.8c0.5,0,0.8-0.1,1.1-0.2L94.4,231.1z"/>
			<path class="st19" d="M95.5,227.5c0-0.8,0-1.3,0-1.8h1.2l0,1.1h0c0.3-0.8,0.9-1.2,1.5-1.2c0.1,0,0.2,0,0.3,0v1.3
				c-0.1,0-0.2,0-0.4,0c-0.7,0-1.1,0.4-1.3,1.1c0,0.1,0,0.3,0,0.4v2.9h-1.4V227.5z"/>
			<path class="st19" d="M100.4,228.9c0,1,0.8,1.4,1.7,1.4c0.6,0,1.1-0.1,1.5-0.3l0.2,1c-0.5,0.2-1.1,0.3-1.9,0.3
				c-1.8,0-2.9-1.1-2.9-2.8c0-1.5,0.9-3,2.7-3c1.8,0,2.4,1.5,2.4,2.7c0,0.3,0,0.5,0,0.6H100.4z M102.9,227.9c0-0.5-0.2-1.4-1.1-1.4
				c-0.9,0-1.2,0.8-1.3,1.4H102.9z"/>
			<path class="st19" d="M106.1,225.7l0.6,2.5c0.1,0.6,0.3,1.2,0.4,1.8h0c0.1-0.6,0.3-1.2,0.5-1.8l0.7-2.5h1.1l0.7,2.5
				c0.2,0.6,0.3,1.3,0.4,1.9h0c0.1-0.6,0.2-1.2,0.4-1.9l0.6-2.5h1.4l-1.7,5.5h-1.3l-0.7-2.3c-0.2-0.6-0.3-1.1-0.4-1.8h0
				c-0.1,0.7-0.3,1.2-0.4,1.8l-0.7,2.3h-1.3l-1.6-5.5H106.1z"/>
			<path class="st19" d="M37.3,239.2c0-0.8,0-1.3,0-1.8h1.2l0,1.1h0c0.3-0.8,0.9-1.2,1.5-1.2c0.1,0,0.2,0,0.3,0v1.3
				c-0.1,0-0.2,0-0.4,0c-0.7,0-1.1,0.4-1.3,1.1c0,0.1,0,0.3,0,0.4v2.9h-1.4V239.2z"/>
			<path class="st19" d="M46.5,240.1c0,2-1.4,2.9-2.8,2.9c-1.6,0-2.8-1.1-2.8-2.9c0-1.8,1.2-2.9,2.9-2.9
				C45.4,237.3,46.5,238.4,46.5,240.1z M42.4,240.2c0,1.1,0.5,1.9,1.4,1.9c0.8,0,1.4-0.8,1.4-1.9c0-0.9-0.4-1.9-1.3-1.9
				C42.8,238.3,42.4,239.2,42.4,240.2z"/>
			<path class="st19" d="M47.6,241.6c0.3,0.2,0.9,0.4,1.4,0.4c0.6,0,0.9-0.3,0.9-0.6c0-0.4-0.2-0.6-0.9-0.8c-1.1-0.4-1.5-1-1.5-1.6
				c0-1,0.8-1.7,2.1-1.7c0.6,0,1.1,0.2,1.5,0.3l-0.3,1c-0.2-0.1-0.7-0.3-1.2-0.3c-0.5,0-0.8,0.2-0.8,0.6c0,0.4,0.3,0.5,1,0.8
				c1,0.4,1.5,0.9,1.5,1.7c0,1-0.8,1.7-2.3,1.7c-0.7,0-1.3-0.2-1.7-0.4L47.6,241.6z"/>
			<path class="st19" d="M54,235.8v1.6h1.3v1H54v2.4c0,0.7,0.2,1,0.7,1c0.2,0,0.4,0,0.5-0.1l0,1.1c-0.2,0.1-0.6,0.1-1,0.1
				c-0.5,0-0.9-0.2-1.2-0.5c-0.3-0.3-0.4-0.8-0.4-1.5v-2.6h-0.8v-1h0.8v-1.3L54,235.8z"/>
			<path class="st19" d="M57.3,240.5c0,1,0.8,1.4,1.7,1.4c0.6,0,1.1-0.1,1.5-0.3l0.2,1c-0.5,0.2-1.1,0.3-1.9,0.3
				c-1.8,0-2.9-1.1-2.9-2.8c0-1.5,0.9-3,2.7-3c1.8,0,2.4,1.5,2.4,2.7c0,0.3,0,0.5,0,0.6H57.3z M59.8,239.6c0-0.5-0.2-1.4-1.1-1.4
				c-0.9,0-1.2,0.8-1.3,1.4H59.8z"/>
			<path class="st19" d="M62.2,239.2c0-0.8,0-1.3,0-1.8h1.2l0,1.1h0c0.3-0.8,0.9-1.2,1.5-1.2c0.1,0,0.2,0,0.3,0v1.3
				c-0.1,0-0.2,0-0.4,0c-0.7,0-1.1,0.4-1.3,1.1c0,0.1,0,0.3,0,0.4v2.9h-1.4V239.2z"/>
			<path class="st19" d="M68.6,239.2c0-0.7,0-1.3,0-1.8h1.2l0.1,0.9h0c0.4-0.6,1.1-1,1.9-1c1.3,0,2.3,1.1,2.3,2.8c0,2-1.3,3-2.5,3
				c-0.7,0-1.3-0.3-1.6-0.7h0v2.9h-1.4V239.2z M70,240.6c0,0.1,0,0.3,0,0.4c0.1,0.6,0.6,1,1.2,1c0.9,0,1.4-0.7,1.4-1.8
				c0-1-0.5-1.8-1.4-1.8c-0.6,0-1.1,0.4-1.3,1c0,0.1-0.1,0.2-0.1,0.4V240.6z"/>
			<path class="st19" d="M75.3,234.9h1.4v8.1h-1.4V234.9z"/>
			<path class="st19" d="M81.3,242.9l-0.1-0.6h0c-0.3,0.4-0.9,0.7-1.6,0.7c-1.1,0-1.7-0.8-1.7-1.6c0-1.4,1.2-2.1,3.3-2.1v-0.1
				c0-0.4-0.1-1-1.1-1c-0.5,0-1.1,0.2-1.5,0.4l-0.3-0.9c0.4-0.3,1.1-0.5,2-0.5c1.8,0,2.3,1.1,2.3,2.3v2c0,0.5,0,1,0.1,1.3H81.3z
				 M81.1,240.2c-1,0-1.9,0.2-1.9,1c0,0.5,0.4,0.8,0.8,0.8c0.6,0,1-0.4,1.1-0.8c0-0.1,0-0.2,0-0.3V240.2z"/>
			<path class="st19" d="M84,239c0-0.6,0-1.2,0-1.6h1.2l0.1,0.8h0c0.2-0.4,0.8-1,1.8-1c1,0,2,0.6,2,2.4v3.3h-1.4v-3.1
				c0-0.8-0.3-1.4-1.1-1.4c-0.6,0-0.9,0.4-1.1,0.8c0,0.1-0.1,0.3-0.1,0.5v3.3H84V239z"/>
			<path class="st19" d="M90.5,239c0-0.6,0-1.2,0-1.6h1.2l0.1,0.8h0c0.2-0.4,0.8-1,1.8-1c1,0,2,0.6,2,2.4v3.3h-1.4v-3.1
				c0-0.8-0.3-1.4-1.1-1.4c-0.6,0-0.9,0.4-1.1,0.8c0,0.1-0.1,0.3-0.1,0.5v3.3h-1.4V239z"/>
			<path class="st19" d="M98.5,235.8c0,0.4-0.3,0.8-0.8,0.8c-0.5,0-0.8-0.3-0.8-0.8c0-0.4,0.3-0.8,0.8-0.8
				C98.2,235.1,98.5,235.4,98.5,235.8z M97,242.9v-5.5h1.4v5.5H97z"/>
			<path class="st19" d="M99.9,239c0-0.6,0-1.2,0-1.6h1.2l0.1,0.8h0c0.2-0.4,0.8-1,1.8-1c1,0,2,0.6,2,2.4v3.3h-1.4v-3.1
				c0-0.8-0.3-1.4-1.1-1.4c-0.6,0-0.9,0.4-1.1,0.8c0,0.1-0.1,0.3-0.1,0.5v3.3h-1.4V239z"/>
			<path class="st19" d="M111.5,237.4c0,0.4,0,0.8,0,1.6v3.1c0,1.2-0.2,2-0.8,2.5c-0.6,0.5-1.4,0.7-2.1,0.7c-0.7,0-1.5-0.1-1.9-0.4
				l0.3-1.1c0.4,0.2,0.9,0.4,1.6,0.4c0.9,0,1.6-0.5,1.6-1.7v-0.5h0c-0.3,0.5-0.9,0.8-1.6,0.8c-1.4,0-2.4-1.1-2.4-2.7
				c0-1.8,1.2-2.9,2.5-2.9c0.8,0,1.3,0.4,1.6,0.9h0l0.1-0.7H111.5z M110,239.6c0-0.1,0-0.3,0-0.4c-0.1-0.5-0.5-0.9-1.1-0.9
				c-0.8,0-1.4,0.7-1.4,1.8c0,0.9,0.5,1.7,1.4,1.7c0.5,0,1-0.3,1.1-0.8c0-0.1,0.1-0.3,0.1-0.5V239.6z"/>
		</g>
	</g>
	<g id="XMLID_1573_">
		<g id="XMLID_2519_">
			<g id="XMLID_867_">
				<line id="XMLID_1683_" class="st12" x1="231.4" y1="59.9" x2="231.4" y2="46.5"/>
				<line id="XMLID_1682_" class="st12" x1="231.4" y1="79" x2="231.4" y2="65.3"/>
				<rect id="XMLID_1681_" x="227" y="41.1" class="st12" width="10" height="5.4"/>
				<rect id="XMLID_1680_" x="227" y="79" class="st12" width="10" height="5.4"/>
				<rect id="XMLID_1676_" x="227" y="59.9" class="st12" width="10" height="5.4"/>
			</g>
		</g>
		<polyline id="XMLID_10_" class="st12" points="251.2,59.3 251.2,54.7 267,54.7 267,70.8 251.2,70.8 251.2,65.6 		"/>
	</g>
	<g id="XMLID_1576_">
		<g id="XMLID_1583_">
			<g id="XMLID_1586_">
				<line id="XMLID_1591_" class="st12" x1="231.4" y1="59.9" x2="231.4" y2="46.5"/>
				<line id="XMLID_1590_" class="st12" x1="231.4" y1="79" x2="231.4" y2="65.3"/>
				<rect id="XMLID_1589_" x="227" y="41.1" class="st12" width="10" height="5.4"/>
				<rect id="XMLID_1588_" x="227" y="79" class="st12" width="10" height="5.4"/>
				<rect id="XMLID_1587_" x="227" y="59.9" class="st12" width="10" height="5.4"/>
			</g>
		</g>
	</g>
	<polygon id="XMLID_2393_" class="st20" points="281.5,205.3 281.5,191.7 264.6,191.7 264.6,210.9 276.3,210.9 	"/>
	<line id="XMLID_2013_" class="st20" x1="267.8" y1="196.6" x2="278.2" y2="196.6"/>
	<line id="XMLID_2012_" class="st20" x1="267.8" y1="201.3" x2="278.2" y2="201.3"/>
	<line id="XMLID_2002_" class="st20" x1="267.8" y1="205.5" x2="272" y2="205.5"/>
	<g>
		<g>
			<polyline class="st12" points="279,163.6 298.2,163.6 298.2,208.7 289.1,208.7 			"/>
			<g>
				<polygon class="st19" points="289.9,205.7 284.7,208.7 289.9,211.7 				"/>
			</g>
		</g>
	</g>
	<polyline class="st12" points="276.3,210.9 276.3,205.4 281.5,205.4 	"/>
	<g id="XMLID_1198_">
		<g id="XMLID_2418_">
			<path id="XMLID_60_" class="st21" d="M177.7,266.8l-0.8,0c-1.4,0-2.3,0-4.7,0v-18.8l9.6,0l6.7,10.1l-0.1,8.8
				c-2.3,0-5.1,0-6.4-0.1l0.5,0"/>
			<polyline id="XMLID_2_" class="st26" points="154.3,266.8 150.8,266.8 150.8,261.9 172.2,261.9 172.2,266.8 159.9,266.8 			"/>
			<rect id="XMLID_2479_" x="150.8" y="245.3" class="st26" width="21.4" height="16.6"/>
		</g>
		<circle class="st26" cx="157.1" cy="268" r="2.3"/>
		<circle class="st26" cx="179.4" cy="268" r="2.3"/>
		<g>
			<g>
				<polyline class="st21" points="157.1,272.7 157.1,296.1 187.7,296.1 				"/>
				<g>
					<polygon class="st19" points="186.8,299.1 192,296.1 186.8,293.1 					"/>
				</g>
			</g>
		</g>
	</g>
	<g id="XMLID_35_">
		<g id="XMLID_58_">
			<g>
				<polyline class="st12" points="80.2,210.4 57.9,207.7 57.9,166.9 90.1,169.3 90.1,207 				"/>
				<g>
					<polygon class="st19" points="87.1,206.1 90.1,211.3 93.1,206.1 					"/>
				</g>
			</g>
		</g>
		<polyline id="XMLID_869_" class="st12" points="57.9,166.9 86.5,161.3 86.5,168.7 		"/>
		<g id="XMLID_36_">
			<line id="XMLID_56_" class="st12" x1="62.4" y1="199.6" x2="84.7" y2="201.6"/>
		</g>
	</g>
	<circle class="st20" cx="73.2" cy="178.7" r="3.3"/>
	<g>
		<g>
			<polyline class="st12" points="77,187.2 77,193.9 69.1,193.3 69.1,187.2 			"/>
		</g>
	</g>
	<g>
		<g>
			<path class="st12" d="M77,190.7H78c0.7,0,1.3-0.6,1.3-1.3V186c0-1.6-1.3-2.9-2.9-2.9H73h-3.4c-1.6,0-2.9,1.3-2.9,2.9v3.4
				c0,0.7,0.6,1.3,1.3,1.3h1.1"/>
		</g>
	</g>
	<g>
		<g>
			<line class="st12" x1="237" y1="62.6" x2="247.9" y2="62.6"/>
			<g>
				<polygon class="st19" points="247.1,65.6 252.3,62.6 247.1,59.6 				"/>
			</g>
		</g>
	</g>
	<g>
		<g>
			<polyline class="st12" points="237,43.8 259.5,43.8 259.5,48.7 			"/>
			<g>
				<polygon class="st19" points="256.5,47.8 259.5,53 262.5,47.8 				"/>
			</g>
		</g>
	</g>
	<g>
		<g>
			<polyline class="st12" points="237,81.6 259.5,81.6 259.5,76.7 			"/>
			<g>
				<polygon class="st19" points="262.5,77.6 259.5,72.4 256.5,77.6 				"/>
			</g>
		</g>
	</g>
	<polyline class="st12" points="267.3,175.4 282.4,171.9 284.8,182.1 	"/>
	
		<rect x="266.3" y="167" transform="matrix(0.9745 -0.2245 0.2245 0.9745 -31.4345 65.126)" class="st12" width="8.6" height="7.5"/>
	<line class="st12" x1="272.2" y1="185" x2="287.7" y2="181.5"/>
	<polyline class="st12" points="261.3,161.8 264.5,163.4 269.1,183.2 	"/>
	<circle class="st12" cx="269.7" cy="185.6" r="2.3"/>
	<g>
		<g>
			<polyline class="st21" points="179.4,272.7 179.4,276.3 190.1,276.3 190.1,281.4 163.1,281.4 163.1,287.7 187.9,287.7 			"/>
			<g>
				<polygon class="st19" points="187,290.7 192.2,287.7 187,284.7 				"/>
			</g>
		</g>
	</g>
	<g id="XMLID_59_">
		<g id="XMLID_63_">
			<path id="XMLID_86_" class="st21" d="M121.1,74.3l-0.8,0c-1.4,0-2.3,0-4.7,0V55.4l9.6,0l6.7,10.1l-0.1,8.8c-2.3,0-5.1,0-6.4-0.1
				l0.5,0"/>
			<polyline id="XMLID_82_" class="st26" points="97.7,74.3 94.1,74.3 94.1,69.4 115.6,69.4 115.6,74.3 103.2,74.3 			"/>
			<rect id="XMLID_79_" x="94.1" y="52.8" class="st26" width="21.4" height="16.6"/>
		</g>
		<circle class="st26" cx="100.5" cy="75.5" r="2.3"/>
		<circle class="st26" cx="122.8" cy="75.5" r="2.3"/>
	</g>
	<g>
		<g>
			<line class="st21" x1="92" y1="80.7" x2="129.6" y2="80.7"/>
			<g>
				<polygon class="st19" points="128.7,83.7 133.9,80.7 128.7,77.7 				"/>
			</g>
		</g>
	</g>
	<circle class="st12" cx="82.1" cy="210.7" r="2.3"/>
	<circle class="st12" cx="259.5" cy="62.7" r="2.3"/>
</g>
</svg>
