<svg id="Layer_1" data-name="Layer 1" xmlns="http://www.w3.org/2000/svg" viewBox="0 0 350 350"><defs><style>.cls-1{fill:#ece1ce}.cls-2{fill:#eac8a5}.cls-3{fill:#df9926}.cls-4{isolation:isolate}.cls-5{fill:#fff}.cls-6,.cls-7,.cls-8{fill:none;stroke:#fff;stroke-width:1.5px}.cls-6{stroke-miterlimit:22.93}.cls-7,.cls-8{stroke-miterlimit:10}.cls-8{stroke-linecap:square}</style></defs><g id="Layer_3" data-name="Layer 3"><path class="cls-1" d="M342.91 175a167.64 167.64 0 0 1-66.22 133.63q-3 2.25-6 4.36a168 168 0 0 1-191.38 0c-2-1.41-4-2.86-6-4.37a168.18 168.18 0 0 1-59.16-182c.71-2.37 1.48-4.72 2.29-7.05A168 168 0 0 1 171.3 7.12h7.41a168 168 0 0 1 154.84 112.45c.81 2.33 1.58 4.66 2.29 7a167.94 167.94 0 0 1 7.07 48.43z"/><path class="cls-2" d="M171.3 0v7.12A168 168 0 0 0 16.45 119.58l-6.74-2.19A175.08 175.08 0 0 1 171.3 0z"/><path class="cls-3" d="M171.3 7.12v117.34a50.5 50.5 0 0 0-43.21 31.39L16.45 119.58A168 168 0 0 1 171.3 7.12z"/><path class="cls-2" d="M340.29 117.37l-6.74 2.19A168 168 0 0 0 178.71 7.12V0a173.42 173.42 0 0 1 100.14 34.1 175.37 175.37 0 0 1 61.43 83.25z"/><path class="cls-3" d="M333.55 119.57l-111.63 36.27a50.51 50.51 0 0 0-43.21-31.38V7.12a168 168 0 0 1 154.84 112.45z"/><path class="cls-2" d="M73.32 308.63l-4.15 5.71a175.18 175.18 0 0 1-61.75-189.9l6.74 2.19a168.18 168.18 0 0 0 59.16 182z"/><path class="cls-3" d="M142.31 215l-69 95a168.18 168.18 0 0 1-59.16-182l111.65 36.21A50.72 50.72 0 0 0 142.31 215zM270.7 313a168 168 0 0 1-191.38 0l69-95a50.67 50.67 0 0 0 53.4 0z"/><path class="cls-2" d="M350 175a174.71 174.71 0 0 1-69.16 139.36l-4.15-5.71a168.17 168.17 0 0 0 59.15-182l6.74-2.19A175.11 175.11 0 0 1 350 175z"/><path class="cls-3" d="M342.91 175a167.64 167.64 0 0 1-66.22 133.63l-69-95a50.73 50.73 0 0 0 16.51-50.78l111.63-36.27a167.88 167.88 0 0 1 7.08 48.42z"/><path class="cls-1" d="M238.16 175a63 63 0 0 1-24.91 50.26c-.74.57-1.49 1.11-2.25 1.64a63.19 63.19 0 0 1-72 0c-.77-.53-1.52-1.07-2.26-1.64a63.26 63.26 0 0 1-22.25-68.45c.27-.89.55-1.78.86-2.65a63.18 63.18 0 0 1 58.24-42.3h2.79a63.17 63.17 0 0 1 58.24 42.29c.31.87.59 1.76.86 2.65a63 63 0 0 1 2.68 18.2z"/><path class="cls-2" d="M274.85 318.71a175 175 0 0 1-199.68 0l4.15-5.71a168 168 0 0 0 191.38 0z"/></g><g id="Layer_4" data-name="Layer 4"><g class="cls-4"><g class="cls-4"><path class="cls-5" d="M73.42 105.14a4.08 4.08 0 0 0 1.77.44c.73 0 1.12-.3 1.12-.76s-.33-.7-1.18-1c-1.18-.41-1.95-1.06-1.95-2.09 0-1.21 1-2.13 2.68-2.13a4.33 4.33 0 0 1 1.81.36l-.36 1.29a3.3 3.3 0 0 0-1.48-.34c-.69 0-1 .32-1 .68s.4.65 1.31 1c1.25.46 1.84 1.11 1.84 2.11 0 1.19-.91 2.2-2.86 2.2a4.63 4.63 0 0 1-2-.44zM83.82 105.14v1.65h-1.34l-.08-.72a1.84 1.84 0 0 1-1.61.84c-1 0-1.8-.66-1.8-2.24v-3h1.61v2.76c0 .74.24 1.19.79 1.19a.86.86 0 0 0 .8-.55 1 1 0 0 0 0-.35v-3h1.61zM85.1 103.38v-1.72h1.39l.07.71a2 2 0 0 1 1.71-.83c1.12 0 2.13 1 2.13 2.62a2.44 2.44 0 0 1-2.33 2.75 1.6 1.6 0 0 1-1.33-.59v2.55H85.1zm1.6 1.2a1.65 1.65 0 0 0 0 .34 1 1 0 0 0 .93.76c.7 0 1.11-.58 1.11-1.45s-.37-1.44-1.09-1.44a1 1 0 0 0-1 .81 1.27 1.27 0 0 0 0 .28zM91.38 103.38v-1.72h1.38l.08.71a2 2 0 0 1 1.71-.83c1.12 0 2.13 1 2.13 2.62a2.45 2.45 0 0 1-2.33 2.75 1.6 1.6 0 0 1-1.33-.59v2.55h-1.6zm1.6 1.2a1.65 1.65 0 0 0 0 .34 1 1 0 0 0 .93.76c.69 0 1.1-.58 1.1-1.45s-.36-1.44-1.08-1.44a1 1 0 0 0-.95.81 1.27 1.27 0 0 0 0 .28zM97.66 99.34h1.59v7.45h-1.59zM101.74 101.66l.77 2.52c.08.3.19.68.25.95.08-.27.16-.66.23-.95l.63-2.52h1.72l-1.2 3.38c-.74 2-1.23 2.85-1.81 3.37a2.9 2.9 0 0 1-1.54.7l-.34-1.35a2.17 2.17 0 0 0 .7-.28 1.83 1.83 0 0 0 .66-.64.43.43 0 0 0 .08-.23.62.62 0 0 0-.07-.26l-1.82-4.69zM112 106.66a3.77 3.77 0 0 1-1.43.24 2.49 2.49 0 0 1-2.71-2.63 2.67 2.67 0 0 1 2.93-2.73 3.59 3.59 0 0 1 1.22.2l-.25 1.19a2.07 2.07 0 0 0-.89-.16 1.44 1.44 0 0 0 0 2.88 2.52 2.52 0 0 0 .91-.16zM112.89 99.34h1.6v2.93a1.9 1.9 0 0 1 .63-.53 1.76 1.76 0 0 1 .83-.2c1 0 1.8.7 1.8 2.25v3h-1.6V104c0-.68-.23-1.14-.83-1.14a.86.86 0 0 0-.8.56 1 1 0 0 0-.05.36v3h-1.6zM122 106.79l-.1-.51a1.88 1.88 0 0 1-1.47.63 1.58 1.58 0 0 1-1.66-1.58c0-1.33 1.2-2 3-2v-.08c0-.27-.14-.66-.93-.66a2.93 2.93 0 0 0-1.42.39l-.29-1a4.24 4.24 0 0 1 2-.45 2 2 0 0 1 2.26 2.22v1.78a8.35 8.35 0 0 0 .07 1.25zm-.19-2.42c-.84 0-1.49.18-1.49.8a.57.57 0 0 0 .63.61.87.87 0 0 0 .83-.59 1.12 1.12 0 0 0 0-.27zM126.24 100.23a.81.81 0 0 1-.86.8.81.81 0 1 1 0-1.61.8.8 0 0 1 .86.81zm-1.65 6.56v-5.13h1.6v5.13zM127.47 103.29v-1.63h1.38l.08.7a1.86 1.86 0 0 1 1.58-.82c1.05 0 1.84.69 1.84 2.21v3h-1.6V104c0-.67-.23-1.12-.8-1.12a.85.85 0 0 0-.81.6 1 1 0 0 0-.07.4v3h-1.59z"/></g><g class="cls-4"><path class="cls-5" d="M77.39 115.17a2.58 2.58 0 0 1-2.71 2.74 2.51 2.51 0 0 1-2.68-2.65 2.56 2.56 0 0 1 2.74-2.72 2.5 2.5 0 0 1 2.65 2.63zm-3.72 0c0 .88.37 1.54 1 1.54s1-.62 1-1.54c0-.77-.29-1.55-1-1.55s-1 .84-1 1.6zM78.38 114.38v-1.72h1.38l.08.71a2 2 0 0 1 1.71-.83c1.12 0 2.13 1 2.13 2.62a2.45 2.45 0 0 1-2.33 2.75 1.6 1.6 0 0 1-1.33-.59v2.55h-1.6zm1.6 1.2a1.65 1.65 0 0 0 0 .34 1 1 0 0 0 .93.76c.69 0 1.1-.58 1.1-1.45s-.36-1.44-1.08-1.44a1 1 0 0 0-.95.81 1.27 1.27 0 0 0 0 .28zM86.44 111.19v1.47h1.15v1.17h-1.15v1.86c0 .62.15.9.63.9a2.64 2.64 0 0 0 .47 0v1.21a3.23 3.23 0 0 1-1 .14 1.63 1.63 0 0 1-1.2-.45 2.12 2.12 0 0 1-.44-1.52v-2.1h-.7v-1.17h.68v-1.12zM90.16 111.23a.81.81 0 0 1-.86.8.81.81 0 1 1 0-1.61.8.8 0 0 1 .86.81zm-1.65 6.56v-5.13h1.6v5.13zM91.39 114.29v-1.63h1.34l.07.69a1.8 1.8 0 0 1 1.56-.81 1.48 1.48 0 0 1 1.41.87 2.41 2.41 0 0 1 .66-.62 1.92 1.92 0 0 1 1-.25c1 0 1.74.69 1.74 2.23v3h-1.58V115c0-.75-.24-1.18-.75-1.18a.79.79 0 0 0-.74.56 1.35 1.35 0 0 0-.06.41v3h-1.56v-2.88c0-.65-.23-1.09-.73-1.09a.83.83 0 0 0-.75.58 1.11 1.11 0 0 0-.06.4v3h-1.55zM102.07 111.23a.81.81 0 0 1-.86.8.81.81 0 1 1 0-1.61.8.8 0 0 1 .86.81zm-1.65 6.56v-5.13H102v5.13zM102.89 116.88l1.61-2c.3-.35.53-.6.82-.91h-2.26v-1.26h4.2v1l-1.54 1.94a11.35 11.35 0 0 1-.84 1h2.47v1.27h-4.46zM111.14 117.79l-.1-.51a1.87 1.87 0 0 1-1.47.63 1.58 1.58 0 0 1-1.66-1.58c0-1.33 1.2-2 3-2v-.08c0-.27-.15-.66-.94-.66a2.93 2.93 0 0 0-1.42.39l-.29-1a4.25 4.25 0 0 1 2-.45 2 2 0 0 1 2.25 2.22v1.78a7 7 0 0 0 .08 1.25zm-.19-2.42c-.84 0-1.49.18-1.49.8a.57.57 0 0 0 .63.61.87.87 0 0 0 .83-.59 1.12 1.12 0 0 0 0-.27zM115.46 111.19v1.47h1.15v1.17h-1.15v1.86c0 .62.15.9.63.9a2.87 2.87 0 0 0 .48 0v1.21a3.23 3.23 0 0 1-1 .14 1.63 1.63 0 0 1-1.2-.45 2.12 2.12 0 0 1-.44-1.52v-2.1h-.68v-1.17h.68v-1.12zM119.18 111.23a.8.8 0 0 1-.86.8.81.81 0 1 1 0-1.61.8.8 0 0 1 .86.81zm-1.65 6.56v-5.13h1.6v5.13zM125.48 115.17a2.58 2.58 0 0 1-2.71 2.74 2.51 2.51 0 0 1-2.65-2.65 2.56 2.56 0 0 1 2.74-2.72 2.5 2.5 0 0 1 2.62 2.63zm-3.72 0c0 .88.37 1.54 1 1.54s1-.62 1-1.54c0-.77-.29-1.55-1-1.55s-1 .84-1 1.6zM126.47 114.29v-1.63h1.38l.08.7a1.86 1.86 0 0 1 1.58-.82c1.05 0 1.84.69 1.84 2.21v3h-1.6V115c0-.67-.23-1.12-.8-1.12a.85.85 0 0 0-.81.6 1 1 0 0 0-.07.4v3h-1.59z"/></g></g><path class="cls-6" d="M117.68 90.5h-2.74M114.94 79.16h6.58l3.1 6.24v5.14h-2.84"/><path class="cls-6" d="M100.68 90.49h-2.72V76H115v14.49h-10.87"/><path class="cls-7" d="M91.09 56.24l7.32-3.3v4.68M93.84 61.08h2.36v5.29h-2.36zM99.09 61.08h2.36v5.29h-2.36z"/><path class="cls-7" d="M98.41 56.24l7.32-3.3v17.62H88.66l-5.03.02 2-24.56h4.56l.58 10.14-2.11.03v12.88"/><g class="cls-4"><g class="cls-4"><path class="cls-5" d="M197 92.46a13.67 13.67 0 0 1 2.17-.15 4.5 4.5 0 0 1 2.89.76 3.1 3.1 0 0 1 1.2 2.66 3.57 3.57 0 0 1-1.18 2.87 5.06 5.06 0 0 1-3.26.91 14.61 14.61 0 0 1-1.82-.1zm1.61 5.77a3.15 3.15 0 0 0 .56 0 2.19 2.19 0 0 0 2.39-2.47 2 2 0 0 0-2.23-2.25 3.52 3.52 0 0 0-.72.06zM205.48 97.38c.05.66.7 1 1.45 1a4.4 4.4 0 0 0 1.41-.21l.21 1.08a5 5 0 0 1-1.86.32 2.47 2.47 0 0 1-2.69-2.64 2.57 2.57 0 0 1 2.6-2.74 2.28 2.28 0 0 1 2.29 2.56 3.57 3.57 0 0 1-.06.63zm1.88-1.09a.93.93 0 0 0-.91-1 1 1 0 0 0-1 1zM209.79 95.94v-1.63h1.34l.08.69a1.77 1.77 0 0 1 1.55-.81 1.47 1.47 0 0 1 1.41.87 2.41 2.41 0 0 1 .66-.62 1.86 1.86 0 0 1 1-.25c1 0 1.73.69 1.73 2.23v3H216v-2.77c0-.75-.25-1.18-.76-1.18a.76.76 0 0 0-.73.56 1.1 1.1 0 0 0-.07.41v3h-1.55v-2.88c0-.65-.23-1.09-.74-1.09a.82.82 0 0 0-.74.58 1.11 1.11 0 0 0-.06.4v3h-1.56zM221.74 99.44l-.09-.51a1.87 1.87 0 0 1-1.47.63 1.57 1.57 0 0 1-1.69-1.56c0-1.33 1.19-2 3-2v-.08c0-.27-.15-.66-.94-.66a2.86 2.86 0 0 0-1.41.39l-.3-1a4.25 4.25 0 0 1 2-.45 2 2 0 0 1 2.26 2.22v1.78a8.35 8.35 0 0 0 .07 1.25zm-.19-2.44c-.84 0-1.49.18-1.49.8a.57.57 0 0 0 .63.61.86.86 0 0 0 .83-.59 1.12 1.12 0 0 0 0-.27zM224.37 95.94c0-.64 0-1.18-.05-1.63h1.39l.07.7a1.88 1.88 0 0 1 1.59-.82c1 0 1.84.69 1.84 2.21v3h-1.6v-2.8c0-.67-.23-1.12-.81-1.12a.87.87 0 0 0-.81.6 1.16 1.16 0 0 0-.06.4v3h-1.59zM235.5 92v7.45h-1.42l-.07-.76a1.81 1.81 0 0 1-1.61.88 2.36 2.36 0 0 1-2.2-2.64 2.43 2.43 0 0 1 2.3-2.73 1.57 1.57 0 0 1 1.36.58V92zm-1.6 4.49a2.64 2.64 0 0 0 0-.28 1 1 0 0 0-.94-.79c-.72 0-1.1.65-1.1 1.46s.43 1.42 1.09 1.42a.94.94 0 0 0 .93-.77 1.45 1.45 0 0 0 0-.37zM239.08 99.44v-4h-.68v-1.13h.68v-.2a2.34 2.34 0 0 1 .65-1.72 2.06 2.06 0 0 1 1.41-.52 2.9 2.9 0 0 1 .86.13l-.07 1.22a1.79 1.79 0 0 0-.51-.07c-.53 0-.75.41-.75.91v.27h1v1.17h-1v4zM247.44 96.81a2.58 2.58 0 0 1-2.7 2.75 2.52 2.52 0 0 1-2.66-2.65 2.56 2.56 0 0 1 2.74-2.72 2.49 2.49 0 0 1 2.62 2.62zm-3.71.06c0 .88.36 1.54 1.05 1.54s1-.62 1-1.54-.3-1.55-1-1.55-1.05.79-1.05 1.55zM248.43 96v-1.69h1.38v.94a1.51 1.51 0 0 1 1.39-1.06 1.67 1.67 0 0 1 .33 0v1.5a2.33 2.33 0 0 0-.43 0 1 1 0 0 0-1.09.81 1.94 1.94 0 0 0 0 .36v2.6h-1.6zM253.57 97.38c.05.66.7 1 1.44 1a4.42 4.42 0 0 0 1.42-.21l.21 1.08a5 5 0 0 1-1.86.32 2.47 2.47 0 0 1-2.78-2.64 2.57 2.57 0 0 1 2.6-2.74 2.28 2.28 0 0 1 2.29 2.56 3.57 3.57 0 0 1-.06.63zm1.88-1.09a.93.93 0 0 0-.91-1 1 1 0 0 0-1 1zM261.73 99.31a3.72 3.72 0 0 1-1.42.24 2.49 2.49 0 0 1-2.72-2.63 2.68 2.68 0 0 1 2.94-2.73 3.63 3.63 0 0 1 1.22.2l-.26 1.19a2.07 2.07 0 0 0-.89-.16 1.32 1.32 0 0 0-1.37 1.44 1.34 1.34 0 0 0 1.4 1.44 2.62 2.62 0 0 0 .92-.16zM265.58 99.44l-.1-.51a1.87 1.87 0 0 1-1.47.63 1.58 1.58 0 0 1-1.69-1.56c0-1.33 1.2-2 3-2v-.08c0-.27-.15-.66-.94-.66a2.93 2.93 0 0 0-1.42.39l-.29-1a4.25 4.25 0 0 1 2-.45 2 2 0 0 1 2.25 2.22v1.78a7 7 0 0 0 .08 1.25zm-.19-2.44c-.84 0-1.49.18-1.49.8a.57.57 0 0 0 .63.61.87.87 0 0 0 .83-.59 1.12 1.12 0 0 0 0-.27zM268.19 98a3.15 3.15 0 0 0 1.38.39c.48 0 .68-.17.68-.43s-.16-.39-.76-.59c-1.06-.35-1.47-.93-1.45-1.54 0-1 .81-1.68 2.08-1.68a3.55 3.55 0 0 1 1.45.29l-.28 1.11a2.45 2.45 0 0 0-1.11-.3c-.39 0-.61.16-.61.42s.2.37.83.59c1 .34 1.38.83 1.39 1.59 0 1-.75 1.66-2.22 1.66a3.65 3.65 0 0 1-1.66-.36zM274.54 92.84v1.47h1.15v1.17h-1.15v1.86c0 .62.15.9.63.9a2.87 2.87 0 0 0 .48 0v1.21a3.23 3.23 0 0 1-1 .14 1.63 1.63 0 0 1-1.2-.45 2.12 2.12 0 0 1-.44-1.52v-2.1h-.68v-1.21h.67v-1.12zM278.26 92.88a.8.8 0 0 1-.86.8.81.81 0 1 1 0-1.61.8.8 0 0 1 .86.81zm-1.65 6.56v-5.13h1.6v5.13zM279.49 95.94v-1.63h1.38l.08.7a1.86 1.86 0 0 1 1.58-.82c1.05 0 1.84.69 1.84 2.21v3h-1.59v-2.8c0-.67-.24-1.12-.81-1.12a.86.86 0 0 0-.81.6 1.16 1.16 0 0 0-.06.4v3h-1.6zM290.55 94.31c0 .32-.05.75-.05 1.52v2.86a3 3 0 0 1-.77 2.31 3.15 3.15 0 0 1-2.09.63 3.92 3.92 0 0 1-1.85-.4l.32-1.2a3.12 3.12 0 0 0 1.49.39 1.23 1.23 0 0 0 1.33-1.36v-.33a1.65 1.65 0 0 1-1.39.67 2.26 2.26 0 0 1-2.17-2.51 2.46 2.46 0 0 1 2.33-2.7 1.57 1.57 0 0 1 1.41.73l.05-.61zm-1.64 2.09a1.39 1.39 0 0 0 0-.3.88.88 0 0 0-.86-.7c-.58 0-1 .52-1 1.46 0 .76.37 1.36 1 1.36a.87.87 0 0 0 .84-.65 1.38 1.38 0 0 0 .05-.42z"/></g><g class="cls-4"><path class="cls-5" d="M207.48 110.44l-.1-.51a1.87 1.87 0 0 1-1.47.63 1.58 1.58 0 0 1-1.66-1.58c0-1.33 1.2-2 3-2v-.08c0-.27-.15-.66-.94-.66a2.86 2.86 0 0 0-1.41.39l-.3-1a4.25 4.25 0 0 1 2-.45 2 2 0 0 1 2.25 2.22v1.78a7 7 0 0 0 .08 1.25zm-.19-2.42c-.84 0-1.49.18-1.49.8a.57.57 0 0 0 .63.61.87.87 0 0 0 .83-.59 1.12 1.12 0 0 0 0-.27zM210.1 106.94v-1.63h1.39l.07.7a1.88 1.88 0 0 1 1.59-.82c1.05 0 1.84.69 1.84 2.21v3h-1.6v-2.8c0-.67-.23-1.12-.81-1.12a.87.87 0 0 0-.81.6 1.16 1.16 0 0 0-.06.4v3h-1.6zM221.23 103v5.92c0 .57 0 1.18.05 1.53h-1.42l-.08-.76a1.78 1.78 0 0 1-1.6.88 2.36 2.36 0 0 1-2.2-2.64 2.43 2.43 0 0 1 2.3-2.73 1.57 1.57 0 0 1 1.36.58V103zm-1.59 4.49a2.64 2.64 0 0 0 0-.28 1 1 0 0 0-.94-.79c-.72 0-1.1.65-1.1 1.46s.43 1.42 1.09 1.42a1 1 0 0 0 .93-.77 1.45 1.45 0 0 0 0-.37zM224.63 109a3.07 3.07 0 0 0 1.37.39c.48 0 .68-.17.68-.43s-.15-.39-.75-.59c-1.06-.35-1.47-.93-1.46-1.54 0-1 .82-1.68 2.09-1.68a3.59 3.59 0 0 1 1.45.29l-.29 1.11a2.45 2.45 0 0 0-1.11-.3c-.39 0-.61.16-.61.42s.2.37.83.59c1 .34 1.39.83 1.4 1.59 0 1-.76 1.66-2.23 1.66a3.65 3.65 0 0 1-1.66-.36zM234 108.79c0 .67 0 1.22.05 1.65h-1.39l-.07-.72a1.84 1.84 0 0 1-1.6.84c-1 0-1.81-.66-1.81-2.24v-3h1.61v2.76c0 .74.24 1.19.8 1.19a.84.84 0 0 0 .79-.55.78.78 0 0 0 .06-.35v-3H234zM235.31 107v-1.72h1.39l.07.71a2 2 0 0 1 1.71-.83c1.13 0 2.14 1 2.14 2.62a2.45 2.45 0 0 1-2.34 2.75 1.62 1.62 0 0 1-1.33-.59v2.55h-1.6zm1.6 1.2a1.65 1.65 0 0 0 0 .34 1 1 0 0 0 .94.76c.69 0 1.1-.58 1.1-1.45s-.37-1.44-1.08-1.44a1 1 0 0 0-1 .81 1.27 1.27 0 0 0 0 .28zM241.59 107v-1.72h1.39l.07.71a2 2 0 0 1 1.71-.83c1.13 0 2.13 1 2.13 2.62a2.44 2.44 0 0 1-2.33 2.75 1.6 1.6 0 0 1-1.33-.59v2.55h-1.6zm1.6 1.2a1.65 1.65 0 0 0 0 .34 1 1 0 0 0 .94.76c.69 0 1.1-.58 1.1-1.45s-.37-1.44-1.08-1.44a1 1 0 0 0-1 .81 1.27 1.27 0 0 0 0 .28zM247.87 103h1.6v7.45h-1.6zM252 105.31l.76 2.52c.09.3.19.68.25 1 .07-.27.15-.66.23-1l.63-2.52h1.71l-1.2 3.38a8 8 0 0 1-1.8 3.37 3 3 0 0 1-1.55.7l-.33-1.35a2.13 2.13 0 0 0 .69-.28 1.83 1.83 0 0 0 .66-.64.43.43 0 0 0 .08-.23.62.62 0 0 0-.07-.26l-1.88-4.69zM262.23 110.31a3.81 3.81 0 0 1-1.43.24 2.49 2.49 0 0 1-2.72-2.63 2.68 2.68 0 0 1 2.94-2.73 3.63 3.63 0 0 1 1.22.2l-.26 1.19a2.07 2.07 0 0 0-.89-.16 1.44 1.44 0 0 0 0 2.88 2.62 2.62 0 0 0 .92-.16zM263.11 103h1.59v2.93a1.9 1.9 0 0 1 .63-.53 1.76 1.76 0 0 1 .83-.2c1 0 1.8.7 1.8 2.25v3h-1.6v-2.82c0-.68-.23-1.14-.83-1.14a.84.84 0 0 0-.79.56.85.85 0 0 0-.06.36v3h-1.59zM272.18 110.44l-.1-.51a1.87 1.87 0 0 1-1.47.63 1.58 1.58 0 0 1-1.66-1.58c0-1.33 1.2-2 3-2v-.08c0-.27-.15-.66-.94-.66a2.86 2.86 0 0 0-1.41.39l-.3-1a4.25 4.25 0 0 1 2-.45 2 2 0 0 1 2.25 2.22v1.78a7 7 0 0 0 .08 1.25zM272 108c-.84 0-1.49.18-1.49.8a.57.57 0 0 0 .63.61.87.87 0 0 0 .83-.59 1.12 1.12 0 0 0 0-.27zM276.45 103.88a.8.8 0 0 1-.86.8.81.81 0 1 1 0-1.61.8.8 0 0 1 .86.81zm-1.65 6.56v-5.13h1.6v5.13zM277.68 106.94v-1.63H279l.07.7a1.88 1.88 0 0 1 1.59-.82c1 0 1.83.69 1.83 2.21v3H281v-2.8c0-.67-.23-1.12-.81-1.12a.87.87 0 0 0-.81.6 1.16 1.16 0 0 0-.06.4v3h-1.6z"/></g><g class="cls-4"><path class="cls-5" d="M222.67 118v-1.72H224l.08.71a2 2 0 0 1 1.71-.83c1.12 0 2.13 1 2.13 2.62a2.45 2.45 0 0 1-2.33 2.75 1.6 1.6 0 0 1-1.33-.59v2.55h-1.6zm1.6 1.2a1.65 1.65 0 0 0 0 .34 1 1 0 0 0 .93.76c.69 0 1.1-.58 1.1-1.45s-.36-1.44-1.08-1.44a1 1 0 0 0-.95.81 1.27 1.27 0 0 0 0 .28zM229 114h1.59v7.45H229zM234.76 121.44l-.1-.51a1.88 1.88 0 0 1-1.47.63 1.58 1.58 0 0 1-1.69-1.56c0-1.33 1.2-2 3-2v-.08c0-.27-.14-.66-.93-.66a2.89 2.89 0 0 0-1.42.39l-.29-1a4.24 4.24 0 0 1 2-.45 2 2 0 0 1 2.26 2.22v1.78a8.35 8.35 0 0 0 .07 1.25zm-.19-2.42c-.84 0-1.49.18-1.49.8a.57.57 0 0 0 .63.61.88.88 0 0 0 .83-.59 1.12 1.12 0 0 0 0-.27zM237.38 117.94v-1.63h1.38l.08.7a1.86 1.86 0 0 1 1.59-.82c1 0 1.83.69 1.83 2.21v3h-1.59v-2.8c0-.67-.23-1.12-.81-1.12a.86.86 0 0 0-.81.6 1.16 1.16 0 0 0-.06.4v3h-1.6zM243.53 117.94v-1.63h1.39l.07.7a1.88 1.88 0 0 1 1.59-.82c1.05 0 1.84.69 1.84 2.21v3h-1.6v-2.8c0-.67-.23-1.12-.81-1.12a.87.87 0 0 0-.81.6 1.16 1.16 0 0 0-.06.4v3h-1.6zM251.33 114.88a.8.8 0 0 1-.86.8.81.81 0 1 1 0-1.61.8.8 0 0 1 .86.81zm-1.64 6.56v-5.13h1.59v5.13zM252.56 117.94v-1.63h1.39l.07.7a1.88 1.88 0 0 1 1.59-.82c1 0 1.83.69 1.83 2.21v3h-1.59v-2.8c0-.67-.23-1.12-.81-1.12a.87.87 0 0 0-.81.6 1.16 1.16 0 0 0-.06.4v3h-1.6zM263.62 116.31v4.38a2.93 2.93 0 0 1-.78 2.31 3.13 3.13 0 0 1-2.09.63 4 4 0 0 1-1.85-.4l.32-1.2a3.12 3.12 0 0 0 1.49.39 1.22 1.22 0 0 0 1.33-1.36v-.33a1.63 1.63 0 0 1-1.38.67 2.27 2.27 0 0 1-2.18-2.51 2.46 2.46 0 0 1 2.33-2.7 1.55 1.55 0 0 1 1.41.73l.05-.61zM262 118.4a1.39 1.39 0 0 0 0-.3.88.88 0 0 0-.86-.7c-.58 0-1 .52-1 1.46 0 .76.38 1.36 1 1.36a.87.87 0 0 0 .84-.65 1.38 1.38 0 0 0 .05-.42z"/></g></g><path class="cls-6" d="M223.81 53.71v16.26h24.41"/><path class="cls-5" d="M220.81 54.59l3-5.18 2.99 5.18h-5.99z"/><circle class="cls-8" cx="173.5" cy="261.29" r="3.85"/><path class="cls-8" d="M178 277.39v-2.25h3.07v-4.9a3.37 3.37 0 0 0-3.37-3.37h-9a3.37 3.37 0 0 0-3.37 3.37v4.9h3.07v2.25zM168.48 275.14v-3.81M178.05 274.57v-3.24"/><path class="cls-6" d="M191.19 292.5H175.9M170.78 292.5h-15.44"/><path class="cls-7" d="M163.51 284.15h19.51"/><path id="_Path_" data-name="Path" class="cls-7" d="M235.64 76.41v8.21"/><g id="_Group_" data-name="Group"><path class="cls-7" d="M257.91 47.43v28.98h-42.54V45.23h31.74"/><path class="cls-5" d="M254.92 48.31l2.99-5.18 2.99 5.18h-5.98z"/></g><path id="_Path_2" data-name="Path 2" d="M247.84 47a2.2 2.2 0 0 1-.85-3 2.24 2.24 0 0 1 .85-.85 2.28 2.28 0 1 1 0 3.86z" fill="none" stroke="#fff" stroke-width="1.5"/><path id="_Path_3" data-name="Path 3" class="cls-7" d="M227.75 84.62h15.78"/><path class="cls-7" d="M83.63 72.66v17.83h6"/><path class="cls-5" d="M88.76 93.48l5.18-2.99-5.18-2.99v5.98z"/><path class="cls-7" d="M191.55 253.88v45.92h-36.58v-50.22h27.48"/><path class="cls-5" d="M188.56 254.76l2.99-5.18 2.99 5.18h-5.98z"/><circle class="cls-7" cx="173.26" cy="292.59" r="2.25"/><g class="cls-4"><g class="cls-4"><path class="cls-5" d="M156.75 313.41a4.08 4.08 0 0 0 1.77.44c.73 0 1.12-.3 1.12-.76s-.33-.7-1.18-1c-1.18-.41-2-1.06-2-2.09 0-1.21 1-2.13 2.68-2.13a4.33 4.33 0 0 1 1.81.36l-.36 1.29a3.3 3.3 0 0 0-1.48-.34c-.69 0-1 .32-1 .68s.4.65 1.31 1c1.25.46 1.84 1.11 1.84 2.11 0 1.19-.91 2.2-2.86 2.2a4.49 4.49 0 0 1-2-.44zM167.15 313.41v1.65h-1.38l-.08-.72a1.84 1.84 0 0 1-1.61.84c-1 0-1.8-.65-1.8-2.24v-3h1.61v2.76c0 .74.24 1.19.79 1.19a.86.86 0 0 0 .8-.55 1 1 0 0 0 0-.35v-3.05h1.61zM168.43 311.65v-1.72h1.39l.07.71a2 2 0 0 1 1.71-.83c1.12 0 2.13 1 2.13 2.62a2.44 2.44 0 0 1-2.33 2.75 1.6 1.6 0 0 1-1.33-.59v2.55h-1.6zm1.6 1.21a1.61 1.61 0 0 0 0 .33 1 1 0 0 0 .93.76c.7 0 1.11-.58 1.11-1.45s-.37-1.44-1.09-1.44a1 1 0 0 0-.95.81 1.27 1.27 0 0 0 0 .28zM174.71 311.65v-1.72h1.38l.08.71a2 2 0 0 1 1.71-.83c1.12 0 2.13 1 2.13 2.62a2.45 2.45 0 0 1-2.33 2.75 1.6 1.6 0 0 1-1.33-.59v2.55h-1.6zm1.6 1.21a1.61 1.61 0 0 0 0 .33 1 1 0 0 0 .93.76c.69 0 1.11-.58 1.11-1.45s-.37-1.44-1.09-1.44a1 1 0 0 0-.95.81 1.27 1.27 0 0 0 0 .28zM181 307.61h1.59v7.45H181zM185.53 308.5a.81.81 0 0 1-.87.8.81.81 0 1 1 0-1.61.81.81 0 0 1 .87.81zm-1.65 6.56v-5.13h1.59v5.13zM188 313c.05.66.71 1 1.45 1a4.42 4.42 0 0 0 1.42-.21l.21 1.08a5.1 5.1 0 0 1-1.86.32 2.47 2.47 0 0 1-2.74-2.62 2.57 2.57 0 0 1 2.59-2.74 2.28 2.28 0 0 1 2.29 2.56 3.84 3.84 0 0 1-.05.63zm1.88-1.09a.93.93 0 0 0-.9-1 1.05 1.05 0 0 0-1 1zM192.3 311.62v-1.69h1.37l.05.94a1.51 1.51 0 0 1 1.38-1.06 1.78 1.78 0 0 1 .34 0v1.5a2.42 2.42 0 0 0-.43 0 1 1 0 0 0-1.1.81 2 2 0 0 0 0 .36v2.6h-1.61z"/></g><g class="cls-4"><path class="cls-5" d="M144.17 322.56v-1.63h1.34l.08.69a1.77 1.77 0 0 1 1.55-.81 1.47 1.47 0 0 1 1.41.87 2.41 2.41 0 0 1 .66-.62 1.83 1.83 0 0 1 1-.25c1 0 1.73.69 1.73 2.23v3h-1.55v-2.79c0-.75-.25-1.18-.76-1.18a.79.79 0 0 0-.74.56 1.35 1.35 0 0 0-.06.41v3h-1.55v-2.88c0-.65-.23-1.09-.74-1.09a.81.81 0 0 0-.74.58.92.92 0 0 0-.07.4v3h-1.55zM156.12 326.06l-.1-.52a1.81 1.81 0 0 1-1.47.64 1.58 1.58 0 0 1-1.66-1.58c0-1.33 1.2-2 3-2v-.08c0-.27-.15-.66-.94-.66a2.86 2.86 0 0 0-1.41.39l-.3-1a4.25 4.25 0 0 1 2-.45 2 2 0 0 1 2.25 2.22v1.78a7 7 0 0 0 .08 1.25zm-.19-2.43c-.84 0-1.49.19-1.49.81a.57.57 0 0 0 .63.61.87.87 0 0 0 .83-.59 1.12 1.12 0 0 0 0-.27zM158.74 322.56v-1.63h1.39l.07.7a1.88 1.88 0 0 1 1.59-.82c1.05 0 1.84.69 1.84 2.21v3H162v-2.85c0-.66-.23-1.11-.81-1.11a.87.87 0 0 0-.81.6 1.12 1.12 0 0 0-.06.4v3h-1.6zM167.82 326.06l-.1-.52a1.83 1.83 0 0 1-1.47.64 1.58 1.58 0 0 1-1.66-1.58c0-1.33 1.2-2 3-2v-.08c0-.27-.14-.66-.93-.66a2.93 2.93 0 0 0-1.42.39l-.29-1a4.24 4.24 0 0 1 2-.45 2 2 0 0 1 2.26 2.22v1.78a8.35 8.35 0 0 0 .07 1.25zm-.19-2.43c-.84 0-1.49.19-1.49.81a.57.57 0 0 0 .63.61.87.87 0 0 0 .83-.59 1.12 1.12 0 0 0 0-.27zM175.34 320.93v4.38a3 3 0 0 1-.77 2.32 3.19 3.19 0 0 1-2.09.62 4 4 0 0 1-1.85-.39l.31-1.21a3.18 3.18 0 0 0 1.49.39 1.23 1.23 0 0 0 1.34-1.36v-.33a1.65 1.65 0 0 1-1.39.67 2.26 2.26 0 0 1-2.17-2.51 2.46 2.46 0 0 1 2.33-2.7 1.54 1.54 0 0 1 1.4.73l.05-.61zm-1.63 2.07a1 1 0 0 0 0-.3.87.87 0 0 0-.86-.7c-.57 0-1.05.52-1.05 1.46 0 .76.38 1.36 1.05 1.36a.86.86 0 0 0 .84-.65 1.12 1.12 0 0 0 .06-.42zM177.81 324c.05.66.71 1 1.45 1a4.42 4.42 0 0 0 1.42-.21l.21 1.08a5.1 5.1 0 0 1-1.86.32 2.47 2.47 0 0 1-2.74-2.62 2.57 2.57 0 0 1 2.59-2.74 2.28 2.28 0 0 1 2.29 2.56 3.84 3.84 0 0 1 0 .63zm1.88-1.09a.93.93 0 0 0-.9-1 1.05 1.05 0 0 0-1 1zM182.13 322.56v-1.63h1.34l.07.69a1.79 1.79 0 0 1 1.56-.81 1.48 1.48 0 0 1 1.41.87 2.41 2.41 0 0 1 .66-.62 1.82 1.82 0 0 1 1-.25c1 0 1.74.69 1.74 2.23v3h-1.56v-2.79c0-.75-.24-1.18-.75-1.18a.79.79 0 0 0-.74.56 1.35 1.35 0 0 0-.06.41v3h-1.56v-2.88c0-.65-.23-1.09-.73-1.09a.83.83 0 0 0-.75.58 1.08 1.08 0 0 0-.06.4v3h-1.55zM192.39 324c.05.66.7 1 1.44 1a4.42 4.42 0 0 0 1.42-.21l.21 1.08a5 5 0 0 1-1.86.32 2.47 2.47 0 0 1-2.74-2.62 2.57 2.57 0 0 1 2.6-2.74 2.28 2.28 0 0 1 2.29 2.56 3.57 3.57 0 0 1-.06.63zm1.88-1.09a.93.93 0 0 0-.91-1 1 1 0 0 0-1 1zM196.7 322.56v-1.63h1.39l.07.7a1.88 1.88 0 0 1 1.59-.82c1 0 1.83.69 1.83 2.21v3H200v-2.85c0-.66-.23-1.11-.81-1.11a.87.87 0 0 0-.81.6 1.12 1.12 0 0 0-.06.4v3h-1.6zM204.58 319.46v1.47h1.14v1.17h-1.14v1.9c0 .62.14.9.63.9a2.74 2.74 0 0 0 .47 0v1.1a3.23 3.23 0 0 1-1 .14 1.66 1.66 0 0 1-1.2-.45 2.12 2.12 0 0 1-.44-1.52v-2.1h-.68v-1.17h.64v-1.12z"/></g></g><g class="cls-4"><g class="cls-4"><path class="cls-5" d="M27 229.08a12 12 0 0 1 2.07-.15 3.94 3.94 0 0 1 2.09.4 1.55 1.55 0 0 1 .85 1.39 1.61 1.61 0 0 1-1.16 1.51 1.77 1.77 0 0 1 1.4 1.74 1.87 1.87 0 0 1-.73 1.5 4.5 4.5 0 0 1-2.79.64A13.07 13.07 0 0 1 27 236zm1.59 2.71h.52c.84 0 1.29-.35 1.29-.87s-.41-.82-1.13-.82a4.44 4.44 0 0 0-.68 0zm0 3.14a5.27 5.27 0 0 0 .62 0c.72 0 1.36-.28 1.36-1s-.64-1-1.44-1h-.54zM38.09 234.41v1.65h-1.34l-.08-.72a1.84 1.84 0 0 1-1.6.84c-1 0-1.81-.65-1.81-2.24v-3h1.61v2.76c0 .74.24 1.19.8 1.19a.84.84 0 0 0 .79-.55.78.78 0 0 0 .06-.35v-3h1.6zM39.36 234.66a3.15 3.15 0 0 0 1.38.39c.48 0 .68-.17.68-.43s-.16-.39-.75-.59c-1.07-.35-1.47-.93-1.46-1.54 0-1 .81-1.68 2.08-1.68a3.38 3.38 0 0 1 1.45.3l-.28 1.1a2.45 2.45 0 0 0-1.11-.3c-.39 0-.61.16-.61.42s.2.37.83.59c1 .34 1.38.83 1.39 1.59 0 1-.75 1.66-2.22 1.66a3.65 3.65 0 0 1-1.66-.36zM45.58 229.5a.81.81 0 0 1-.86.8.81.81 0 1 1 0-1.61.8.8 0 0 1 .86.81zm-1.65 6.56v-5.13h1.6v5.13zM46.81 232.56v-1.63h1.38l.07.7a1.86 1.86 0 0 1 1.58-.82c1 0 1.84.69 1.84 2.21v3h-1.6v-2.85c0-.66-.23-1.11-.81-1.11a.84.84 0 0 0-.8.6.93.93 0 0 0-.07.4v3h-1.59zM54.19 234c.05.66.7 1 1.45 1a4.4 4.4 0 0 0 1.41-.21l.21 1.08a5 5 0 0 1-1.85.32 2.46 2.46 0 0 1-2.74-2.62 2.57 2.57 0 0 1 2.59-2.74 2.28 2.28 0 0 1 2.29 2.56 3.84 3.84 0 0 1 0 .63zm1.88-1.09a.93.93 0 0 0-.91-1 1 1 0 0 0-1 1zM58.49 234.66a3.15 3.15 0 0 0 1.38.39c.48 0 .68-.17.68-.43s-.16-.39-.75-.59c-1.06-.35-1.47-.93-1.46-1.54 0-1 .82-1.68 2.09-1.68a3.36 3.36 0 0 1 1.44.3l-.28 1.1a2.45 2.45 0 0 0-1.11-.3c-.39 0-.61.16-.61.42s.2.37.83.59c1 .34 1.38.83 1.4 1.59 0 1-.76 1.66-2.23 1.66a3.65 3.65 0 0 1-1.66-.36zM63.05 234.66a3.08 3.08 0 0 0 1.38.39c.48 0 .68-.17.68-.43s-.16-.39-.76-.59c-1.06-.35-1.47-.93-1.46-1.54 0-1 .82-1.68 2.09-1.68a3.38 3.38 0 0 1 1.45.3l-.28 1.1a2.46 2.46 0 0 0-1.12-.3c-.38 0-.6.16-.6.42s.2.37.83.59c1 .34 1.38.83 1.39 1.59 0 1-.75 1.66-2.22 1.66a3.62 3.62 0 0 1-1.66-.36zM69.74 232.65v-1.72h1.38l.08.71a2 2 0 0 1 1.71-.83c1.12 0 2.13 1 2.13 2.62a2.45 2.45 0 0 1-2.33 2.75 1.6 1.6 0 0 1-1.33-.59v2.55h-1.64zm1.59 1.21a1.57 1.57 0 0 0 0 .33 1 1 0 0 0 .93.76c.69 0 1.1-.58 1.1-1.45s-.36-1.44-1.08-1.44a1 1 0 0 0-.95.81 1.26 1.26 0 0 0 0 .28zM76 232.62v-1.69h1.37l.05.94a1.51 1.51 0 0 1 1.38-1.06 1.78 1.78 0 0 1 .34 0v1.5a2.42 2.42 0 0 0-.43 0 1 1 0 0 0-1.09.81 1.37 1.37 0 0 0 0 .36v2.6H76zM85 233.44a2.58 2.58 0 0 1-2.7 2.74 2.52 2.52 0 0 1-2.66-2.65 2.56 2.56 0 0 1 2.74-2.72 2.5 2.5 0 0 1 2.62 2.63zm-3.71.05c0 .88.37 1.54 1 1.54s1-.62 1-1.54-.3-1.54-1-1.54-1.01.78-1.01 1.54zM89.87 235.93a3.81 3.81 0 0 1-1.43.24 2.49 2.49 0 0 1-2.72-2.63 2.68 2.68 0 0 1 2.94-2.73 3.63 3.63 0 0 1 1.22.2l-.25 1.19a2.12 2.12 0 0 0-.9-.16 1.44 1.44 0 0 0 0 2.88 2.58 2.58 0 0 0 .92-.16zM91.86 234c0 .66.71 1 1.45 1a4.42 4.42 0 0 0 1.42-.21l.21 1.08a5.1 5.1 0 0 1-1.86.32 2.47 2.47 0 0 1-2.74-2.62 2.57 2.57 0 0 1 2.59-2.74 2.28 2.28 0 0 1 2.29 2.56 3.84 3.84 0 0 1 0 .63zm1.88-1.09a.93.93 0 0 0-.9-1 1.05 1.05 0 0 0-1 1zM96.17 234.66a3.07 3.07 0 0 0 1.37.39c.49 0 .69-.17.69-.43s-.16-.39-.76-.59c-1.06-.35-1.47-.93-1.46-1.54 0-1 .82-1.68 2.09-1.68a3.41 3.41 0 0 1 1.45.3l-.29 1.1a2.45 2.45 0 0 0-1.11-.3c-.39 0-.61.16-.61.42s.2.37.83.59c1 .34 1.39.83 1.4 1.59 0 1-.76 1.66-2.23 1.66a3.65 3.65 0 0 1-1.66-.36zM100.72 234.66a3.15 3.15 0 0 0 1.38.39c.48 0 .68-.17.68-.43s-.16-.39-.75-.59c-1.06-.35-1.47-.93-1.46-1.54 0-1 .82-1.68 2.09-1.68a3.36 3.36 0 0 1 1.44.3l-.28 1.1a2.45 2.45 0 0 0-1.11-.3c-.39 0-.61.16-.61.42s.2.37.83.59c1 .34 1.38.83 1.39 1.59 0 1-.75 1.66-2.22 1.66a3.65 3.65 0 0 1-1.66-.36z"/></g><g class="cls-4"><path class="cls-5" d="M31 243.62v-1.69h1.37l.06.94a1.51 1.51 0 0 1 1.38-1.06 1.78 1.78 0 0 1 .34 0v1.5a2.42 2.42 0 0 0-.43 0 1 1 0 0 0-1.09.81 2 2 0 0 0 0 .36v2.6H31zM36.17 245c.06.66.71 1 1.45 1a4.42 4.42 0 0 0 1.42-.21l.21 1.08a5.07 5.07 0 0 1-1.86.32 2.47 2.47 0 0 1-2.74-2.62 2.57 2.57 0 0 1 2.6-2.74 2.27 2.27 0 0 1 2.28 2.56 3.84 3.84 0 0 1-.05.63zm1.88-1.09a.92.92 0 0 0-.9-1 1.06 1.06 0 0 0-1 1zM43.23 243.77v1.06h-2.75v-1.06zM45.58 245c.05.66.71 1 1.45 1a4.42 4.42 0 0 0 1.42-.21l.21 1.08a5.1 5.1 0 0 1-1.86.32 2.47 2.47 0 0 1-2.74-2.62 2.57 2.57 0 0 1 2.59-2.74 2.28 2.28 0 0 1 2.29 2.56 3.84 3.84 0 0 1 0 .63zm1.88-1.09a.93.93 0 0 0-.9-1 1.05 1.05 0 0 0-1 1zM49.9 243.56v-1.63h1.38l.08.7a1.86 1.86 0 0 1 1.58-.82c1 0 1.84.69 1.84 2.21v3h-1.6v-2.85c0-.66-.23-1.11-.8-1.11a.85.85 0 0 0-.81.6 1.1 1.1 0 0 0-.07.4v3h-1.6zM61 241.93v4.38a3 3 0 0 1-.78 2.32 3.15 3.15 0 0 1-2.08.62 4 4 0 0 1-1.85-.39l.31-1.21a3.18 3.18 0 0 0 1.4.35 1.23 1.23 0 0 0 1.34-1.36v-.33a1.65 1.65 0 0 1-1.39.67 2.26 2.26 0 0 1-2.17-2.51 2.46 2.46 0 0 1 2.33-2.7 1.54 1.54 0 0 1 1.4.73v-.61zM59.32 244a1 1 0 0 0 0-.3.87.87 0 0 0-.86-.7c-.57 0-1.05.52-1.05 1.46 0 .76.38 1.36 1.05 1.36a.86.86 0 0 0 .84-.65 1.12 1.12 0 0 0 .06-.42zM63.84 240.5a.8.8 0 0 1-.86.8.81.81 0 1 1 0-1.61.8.8 0 0 1 .86.81zm-1.65 6.56v-5.13h1.6v5.13zM65.07 243.56v-1.63h1.38l.08.7a1.86 1.86 0 0 1 1.58-.82c1.05 0 1.84.69 1.84 2.21v3h-1.6v-2.85c0-.66-.24-1.11-.81-1.11a.86.86 0 0 0-.81.6 1.12 1.12 0 0 0-.06.4v3h-1.6zM72.45 245c0 .66.7 1 1.45 1a4.42 4.42 0 0 0 1.42-.21l.21 1.08a5.1 5.1 0 0 1-1.86.32 2.47 2.47 0 0 1-2.74-2.62 2.57 2.57 0 0 1 2.59-2.74 2.28 2.28 0 0 1 2.29 2.56 3.84 3.84 0 0 1 0 .63zm1.88-1.09a.93.93 0 0 0-.9-1 1.05 1.05 0 0 0-1 1zM78 245c0 .66.7 1 1.44 1a4.42 4.42 0 0 0 1.42-.21l.21 1.08a5 5 0 0 1-1.86.32 2.47 2.47 0 0 1-2.74-2.62 2.57 2.57 0 0 1 2.6-2.74 2.27 2.27 0 0 1 2.28 2.56 3.84 3.84 0 0 1 0 .63zm1.87-1.09a.92.92 0 0 0-.9-1 1.06 1.06 0 0 0-1 1zM82.31 243.62v-1.69h1.37l.06.94a1.51 1.51 0 0 1 1.38-1.06 1.72 1.72 0 0 1 .34 0v1.5a2.33 2.33 0 0 0-.43 0 1 1 0 0 0-1.09.81 2 2 0 0 0 0 .36v2.6h-1.6zM88 240.5a.81.81 0 0 1-.86.8.81.81 0 1 1 0-1.61.8.8 0 0 1 .86.81zm-1.65 6.56v-5.13h1.6v5.13zM89.18 243.56v-1.63h1.38l.08.7a1.86 1.86 0 0 1 1.58-.82c1.05 0 1.84.69 1.84 2.21v3h-1.6v-2.85c0-.66-.23-1.11-.8-1.11a.85.85 0 0 0-.81.6.93.93 0 0 0-.07.4v3h-1.6zM100.23 241.93v4.38a3 3 0 0 1-.78 2.32 3.15 3.15 0 0 1-2.08.62 4 4 0 0 1-1.85-.39l.31-1.21a3.18 3.18 0 0 0 1.49.39 1.23 1.23 0 0 0 1.34-1.36v-.33a1.65 1.65 0 0 1-1.39.67 2.26 2.26 0 0 1-2.27-2.51 2.46 2.46 0 0 1 2.33-2.7 1.54 1.54 0 0 1 1.4.73v-.61zM98.6 244a1 1 0 0 0 0-.3.87.87 0 0 0-.86-.7c-.57 0-1 .52-1 1.46 0 .76.38 1.36 1 1.36a.86.86 0 0 0 .84-.65 1.12 1.12 0 0 0 .06-.42z"/></g></g><g class="cls-4"><g class="cls-4"><path class="cls-5" d="M256.17 218.18a12.52 12.52 0 0 1 2.17-.15 3.38 3.38 0 0 1 2.16.57 2.07 2.07 0 0 1 .75 1.64 2.27 2.27 0 0 1-.65 1.68 3.28 3.28 0 0 1-2.3.74 4.06 4.06 0 0 1-.54 0v2.53h-1.59zm1.59 3.21a2.47 2.47 0 0 0 .53 0c.85 0 1.38-.43 1.38-1.15s-.45-1-1.25-1a2.77 2.77 0 0 0-.66.06zM263.2 223.1c.05.66.7 1 1.45 1a4.4 4.4 0 0 0 1.41-.21l.21 1.08a5 5 0 0 1-1.85.32 2.46 2.46 0 0 1-2.74-2.62 2.57 2.57 0 0 1 2.59-2.74 2.28 2.28 0 0 1 2.29 2.56 2.8 2.8 0 0 1-.06.63zm1.88-1.09a.93.93 0 0 0-.91-1 1 1 0 0 0-1 1zM267.51 221.72v-1.69h1.38v.94a1.51 1.51 0 0 1 1.39-1.06 1.67 1.67 0 0 1 .33 0v1.5a2.33 2.33 0 0 0-.43 0 1 1 0 0 0-1.09.81 1.94 1.94 0 0 0 0 .36v2.6h-1.6zM272 225.16v-4h-.67V220h.67v-.2a2.31 2.31 0 0 1 .66-1.72 2 2 0 0 1 1.41-.52 2.78 2.78 0 0 1 .85.11l-.06 1.22a1.79 1.79 0 0 0-.51-.07c-.53 0-.75.41-.75.91v.27h1v1.17h-1v4zM280.33 222.54a2.57 2.57 0 0 1-2.71 2.74 2.51 2.51 0 0 1-2.65-2.65 2.56 2.56 0 0 1 2.74-2.72 2.5 2.5 0 0 1 2.62 2.63zm-3.71.05c0 .88.36 1.54 1.05 1.54s1-.62 1-1.54-.29-1.55-1-1.55-1.05.79-1.05 1.55zM281.32 221.72v-1.69h1.37l.06.94a1.51 1.51 0 0 1 1.38-1.06 1.78 1.78 0 0 1 .34 0v1.5a2.42 2.42 0 0 0-.43 0 1 1 0 0 0-1.09.81 1.94 1.94 0 0 0 0 .36v2.6h-1.6zM285.31 221.66v-1.63h1.34l.08.69a1.77 1.77 0 0 1 1.55-.81 1.47 1.47 0 0 1 1.41.87 2.41 2.41 0 0 1 .66-.62 1.93 1.93 0 0 1 1-.25c1 0 1.73.69 1.73 2.23v3h-1.56v-2.79c0-.75-.24-1.18-.75-1.18a.79.79 0 0 0-.74.56 1.35 1.35 0 0 0-.06.41v3h-1.55v-2.88c0-.65-.23-1.09-.74-1.09a.81.81 0 0 0-.74.58.94.94 0 0 0-.07.4v3h-1.55zM297.26 225.16l-.1-.51a1.87 1.87 0 0 1-1.47.63 1.58 1.58 0 0 1-1.69-1.58c0-1.33 1.2-2 3-2v-.08c0-.27-.15-.66-.94-.66a2.86 2.86 0 0 0-1.41.39l-.3-1a4.25 4.25 0 0 1 2-.45 2 2 0 0 1 2.25 2.22v1.78a7 7 0 0 0 .08 1.25zm-.19-2.42c-.84 0-1.49.18-1.49.8a.57.57 0 0 0 .63.61.87.87 0 0 0 .83-.59 1.12 1.12 0 0 0 0-.27zM299.88 221.66v-1.63h1.39l.07.7a1.88 1.88 0 0 1 1.59-.82c1.05 0 1.84.69 1.84 2.21v3h-1.6v-2.84c0-.67-.23-1.12-.81-1.12a.87.87 0 0 0-.81.6 1.16 1.16 0 0 0-.06.4v3h-1.6zM309.89 225a3.77 3.77 0 0 1-1.43.24 2.49 2.49 0 0 1-2.72-2.63 2.68 2.68 0 0 1 2.94-2.73 3.63 3.63 0 0 1 1.22.2l-.25 1.19a2.07 2.07 0 0 0-.89-.16 1.44 1.44 0 0 0 0 2.88 2.52 2.52 0 0 0 .91-.16zM311.88 223.1c.06.66.71 1 1.45 1a4.42 4.42 0 0 0 1.42-.21L315 225a5 5 0 0 1-1.86.32 2.47 2.47 0 0 1-2.74-2.62 2.57 2.57 0 0 1 2.6-2.74 2.27 2.27 0 0 1 2.28 2.56 3.84 3.84 0 0 1-.05.63zm1.88-1.09a.92.92 0 0 0-.9-1 1 1 0 0 0-1 1z"/></g><g class="cls-4"><path class="cls-5" d="M261.18 234.76a3.07 3.07 0 0 0 1.37.39c.49 0 .69-.17.69-.43s-.16-.39-.76-.59c-1.06-.35-1.47-.93-1.46-1.54 0-1 .82-1.68 2.09-1.68a3.38 3.38 0 0 1 1.45.3l-.28 1.1a2.5 2.5 0 0 0-1.12-.3c-.38 0-.61.16-.61.42s.2.37.83.59c1 .34 1.39.83 1.4 1.59 0 .95-.76 1.66-2.23 1.66a3.6 3.6 0 0 1-1.65-.36zM267.4 229.6a.81.81 0 0 1-.86.8.81.81 0 1 1 0-1.61.81.81 0 0 1 .86.81zm-1.65 6.56V231h1.59v5.13zM268.62 232.66v-1.63h1.35l.07.69a1.77 1.77 0 0 1 1.55-.81 1.46 1.46 0 0 1 1.41.87 2.41 2.41 0 0 1 .66-.62 2 2 0 0 1 1-.25c1 0 1.73.69 1.73 2.23v3h-1.55v-2.79c0-.75-.24-1.18-.76-1.18a.77.77 0 0 0-.73.56 1.35 1.35 0 0 0-.07.41v3h-1.55v-2.88c0-.65-.23-1.09-.73-1.09a.82.82 0 0 0-.75.58 1.11 1.11 0 0 0-.06.4v3h-1.56zM282.49 234.51c0 .67 0 1.22.05 1.65h-1.39l-.07-.72a1.84 1.84 0 0 1-1.6.84c-1 0-1.81-.65-1.81-2.24v-3h1.61v2.76c0 .74.24 1.19.8 1.19a.84.84 0 0 0 .79-.55.78.78 0 0 0 .06-.35V231h1.6zM283.78 228.71h1.59v7.45h-1.59zM289.58 236.16l-.09-.51a1.9 1.9 0 0 1-1.47.63 1.58 1.58 0 0 1-1.66-1.58c0-1.33 1.19-2 3-2v-.08c0-.27-.15-.66-.93-.66a2.86 2.86 0 0 0-1.42.39l-.3-1a4.25 4.25 0 0 1 2-.45 2 2 0 0 1 2.26 2.22v1.78a8.35 8.35 0 0 0 .07 1.25zm-.19-2.42c-.84 0-1.49.18-1.49.8a.57.57 0 0 0 .63.61.86.86 0 0 0 .83-.59 1.12 1.12 0 0 0 0-.27zM293.91 229.56V231h1.14v1.17h-1.14v1.86c0 .62.14.9.63.9a2.74 2.74 0 0 0 .47 0v1.21a3.23 3.23 0 0 1-1 .14 1.66 1.66 0 0 1-1.2-.45 2.12 2.12 0 0 1-.44-1.52v-2.1h-.68V231h.68v-1.12zM297.62 229.6a.8.8 0 0 1-.86.8.81.81 0 1 1 0-1.61.8.8 0 0 1 .86.81zm-1.62 6.56V231h1.59v5.13zM303.92 233.54a2.57 2.57 0 0 1-2.71 2.74 2.51 2.51 0 0 1-2.65-2.65 2.56 2.56 0 0 1 2.74-2.72 2.5 2.5 0 0 1 2.62 2.63zm-3.71.05c0 .88.36 1.54 1.05 1.54s1-.62 1-1.54-.3-1.55-1-1.55-1.05.79-1.05 1.55zM304.91 232.66v-1.63h1.38l.08.7a1.86 1.86 0 0 1 1.59-.82c1.05 0 1.83.69 1.83 2.21v3h-1.59v-2.84c0-.67-.23-1.12-.81-1.12a.86.86 0 0 0-.81.6 1.16 1.16 0 0 0-.06.4v3h-1.6z"/></g></g><path id="_Path_4" data-name="Path 4" class="cls-6" d="M57.47 177h12.75v7H57.47z"/><path id="_Path_5" data-name="Path 5" class="cls-6" d="M76.37 193.68h7v6.86h-7z"/><path id="_Path_6" data-name="Path 6" class="cls-6" d="M76.37 212.76h6.67v6.86h-6.67z"/><path id="_Path_7" data-name="Path 7" class="cls-6" d="M44.79 212.76h6.67v6.86h-6.67z"/><path id="_Path_8" data-name="Path 8" class="cls-6" d="M51.84 216.19H75.78"/><circle id="_Path_9" data-name="Path 9" class="cls-6" cx="47.97" cy="197.23" r="3.43"/><path id="_Path_10" data-name="Path 10" class="cls-6" transform="rotate(-45.9 63.61 197.114)" d="M60.92 194.48h5.38v5.27h-5.38z"/><path id="_Path_11" data-name="Path 11" class="cls-6" d="M51.04 197.23h9.23"/><path id="_Path_12" data-name="Path 12" class="cls-6" d="M67.56 197.23h9.23"/><path id="_Path_13" data-name="Path 13" class="cls-6" d="M79.87 212.75V200.11"/><g id="_Group_2" data-name="Group 2"><path class="cls-6" d="M63.62 210.94V200.15"/><path class="cls-5" d="M66.61 210.06l-2.99 5.18-2.99-5.18h5.98z"/></g><circle class="cls-6" cx="102.37" cy="91.08" r="2.25"/><circle class="cls-6" cx="119.58" cy="91.08" r="2.25"/><path class="cls-6" d="M228.13 69.97v-8.82h5.37v8.98M233.5 69.97V56.39h5.36v1.49M238.94 69.56V51.7h5.36v17.86"/><circle class="cls-7" cx="184.7" cy="249.58" r="2.25"/><path class="cls-7" d="M123.5 74.17V58.3h-9.71"/><path class="cls-5" d="M114.67 55.31l-5.18 2.99 5.18 2.99v-5.98z"/><path class="cls-6" d="M70.5 180.5h9.37v13.18M57.33 180.5h-9.36v13.3"/><path class="cls-7" d="M286.37 203.55h17.78v-3.73a20.14 20.14 0 0 0-40.28 0v3.73H281"/><path class="cls-7" d="M296.84 190.93a15.5 15.5 0 0 1 2.77 8.88h-3.34M271.81 199.81h-3.39a15.6 15.6 0 0 1 23.7-13.33M284.01 184.22v3.63M272.73 189.04l2.15 2.15"/><circle class="cls-7" cx="283.7" cy="203.71" r="2.25"/><path class="cls-7" d="M284.77 201.58l16.31-21.77"/><path class="cls-5" d="M302.95 182.3l.72-5.94-5.5 2.35 4.78 3.59z"/></g></svg>