<svg xmlns="http://www.w3.org/2000/svg" width="350" height="350">
  <style>
    .st7{fill:#d8e7da}.st8{fill:#a8d7cd}.st9{fill:#00b28f}.st27{display:inline}.st29{fill:none;stroke:#020204;stroke-width:.216;stroke-miterlimit:10}.st31{fill:#fff}.st33{stroke-miterlimit:10}.st33,.st34,.st35{fill:none;stroke:#fff;stroke-width:1.4992}.st35{stroke:#fcfcfc;stroke-width:1.5;stroke-miterlimit:10}.st36{fill:#fcfcfc}.st38{fill:none;stroke:#fff;stroke-width:1.4995;stroke-miterlimit:22.9256}
  </style>
  <g id="Layer_3">
    <path d="M342.9 175c0 54.5-26 103-66.2 133.6-2 1.5-4 3-6 4.4-27.2 18.9-60.1 29.9-95.7 29.9s-68.5-11.1-95.7-29.9c-2-1.4-4-2.9-6-4.4C33.1 278 7.1 229.5 7.1 175c0-16.8 2.5-33.1 7.1-48.4.7-2.4 1.5-4.7 2.3-7.1C39 55.2 99.6 8.7 171.3 7.1h7.4c71.7 1.6 132.3 48 154.8 112.4.8 2.3 1.6 4.7 2.3 7 4.6 15.4 7.1 31.7 7.1 48.5z" class="st7"/>
    <path d="M171.3 0v7.1C99.6 8.7 39 55.2 16.4 119.6l-6.7-2.2c5.6-16 13.5-31.2 23.5-45 10.6-14.6 23.4-27.5 37.9-38.3C100.4 12.5 134.9.8 171.3 0z" class="st8"/>
    <path d="M171.3 7.1v117.3c-19.2 1.4-35.9 13.5-43.2 31.4L16.4 119.6C39 55.2 99.6 8.7 171.3 7.1z" class="st9"/>
    <path d="M340.3 117.4l-6.7 2.2C311 55.2 250.4 8.7 178.7 7.1V0c36.3.7 70.9 12.5 100.1 34.1 14.6 10.7 27.3 23.6 37.9 38.3 10.1 13.8 18 28.9 23.6 45z" class="st8"/>
    <path d="M333.5 119.6l-111.6 36.3c-7.3-17.9-24-30-43.2-31.4V7.1C250.4 8.7 311 55.2 333.5 119.6z" class="st9"/>
    <path d="M73.3 308.6l-4.1 5.7c-20.5-15.6-37.6-35.9-49.5-58.7C6.8 230.9 0 203 0 175c0-17.2 2.5-34.2 7.4-50.5l6.7 2.2C9.5 142 7 158.3 7 175.1c.1 54.4 26.1 102.9 66.3 133.5z" class="st8"/>
    <path d="M142.3 215l-69 95C33.1 279.3 7.1 230.8 7.1 176.3c0-16.8 2.5-33.1 7.1-48.4l111.6 36.3c-1 3.9-1.5 8-1.5 12.1 0 14.9 6.7 29.1 18 38.7zM270.7 313c-27.2 18.9-60.1 29.9-95.7 29.9s-68.5-11.1-95.7-29.9l69-95c8 5 17.2 7.6 26.7 7.6s18.7-2.6 26.7-7.6l69 95z" class="st9"/>
    <path d="M350 175c0 28.1-6.8 56-19.7 80.7-11.9 22.8-29 43.1-49.5 58.7l-4.2-5.7c40.3-30.7 66.2-79.1 66.2-133.6 0-16.8-2.5-33.1-7.1-48.4l6.7-2.2c5.1 16.3 7.6 33.3 7.6 50.5z" class="st8"/>
    <path d="M342.9 175c0 54.5-26 103-66.2 133.6l-69-95c11.3-9.6 18-23.8 18-38.7 0-4.1-.5-8.1-1.5-12.1l111.6-36.3c4.6 15.4 7.1 31.7 7.1 48.5z" class="st9"/>
    <path d="M238.2 175c0 20.5-9.8 38.7-24.9 50.3-.7.6-1.5 1.1-2.3 1.6-10.2 7.1-22.6 11.3-36 11.3-13.4 0-25.8-4.2-36-11.3-.8-.5-1.5-1.1-2.3-1.6-15.1-11.5-24.9-29.8-24.9-50.3 0-6.3.9-12.4 2.7-18.2l.9-2.7c8.5-24.2 31.3-41.7 58.2-42.3h2.8c27 .6 49.8 18.1 58.2 42.3l.9 2.7c1.7 5.8 2.7 11.9 2.7 18.2z" class="st7"/>
    <path d="M274.8 318.7C245.5 339.2 211 350 175 350s-70.4-10.8-99.8-31.3l4.2-5.7c27.1 18.9 60.1 29.9 95.7 29.9s68.5-11.1 95.7-29.9l4 5.7z" class="st8"/>
  </g>
  <g id="Layer_1">
    <path d="M74.8 106.6c-.3.2-1 .3-1.8.3-2.2 0-3.6-1.4-3.6-3.6 0-2.3 1.6-3.7 3.8-3.7.9 0 1.5.2 1.7.3l-.3 1c-.3-.1-.8-.3-1.4-.3-1.4 0-2.5.9-2.5 2.6 0 1.6.9 2.6 2.5 2.6.5 0 1.1-.1 1.4-.3l.2 1.1zM80.4 105.3v1.5h-1.1l-.1-.8c-.2.4-.7.9-1.6.9-.9 0-1.8-.6-1.8-2.2v-3h1.3v2.8c0 .9.3 1.4 1 1.4.5 0 .9-.4 1-.7 0-.1.1-.3.1-.4v-3.1h1.3v3.6zM81.7 105.6c.3.2.9.4 1.3.4.6 0 .8-.2.8-.6 0-.3-.2-.5-.8-.7-1-.3-1.4-.9-1.4-1.5 0-.9.7-1.6 1.9-1.6.6 0 1.1.1 1.4.3l-.3.9c-.2-.1-.6-.3-1.1-.3-.5 0-.7.2-.7.5s.2.5.9.7c.9.3 1.4.8 1.4 1.6 0 .9-.7 1.6-2.1 1.6-.6 0-1.2-.1-1.6-.4l.3-.9zM87.7 100.2v1.5h1.2v1h-1.2v2.3c0 .6.2.9.7.9.2 0 .4 0 .5-.1v1c-.2.1-.5.1-.9.1-.5 0-.9-.2-1.1-.4-.3-.3-.4-.8-.4-1.4v-2.4h-.7v-1h.7v-1.2l1.2-.3zM94.7 104.2c0 1.9-1.3 2.7-2.6 2.7-1.4 0-2.6-1-2.6-2.6 0-1.7 1.1-2.7 2.6-2.7 1.6 0 2.6 1 2.6 2.6zm-3.8 0c0 1 .5 1.7 1.3 1.7.7 0 1.2-.7 1.2-1.8 0-.8-.4-1.7-1.2-1.7-1 .1-1.3 1-1.3 1.8zM95.8 103.2v-1.5h1.1l.1.8c.3-.4.7-.9 1.6-.9.7 0 1.2.4 1.4.9.2-.3.4-.5.6-.6.3-.2.6-.3 1-.3.9 0 1.7.6 1.7 2.2v3H102V104c0-.9-.3-1.4-.9-1.4-.4 0-.8.3-.9.7 0 .1-.1.3-.1.4v3.1h-1.3v-3c0-.7-.3-1.2-.9-1.2-.5 0-.8.4-.9.7-.1.1-.1.3-.1.4v3h-1.3v-3.5zM105.6 104.6c0 .9.8 1.3 1.6 1.3.6 0 1-.1 1.4-.2l.2.9c-.4.2-1 .3-1.8.3-1.7 0-2.6-1-2.6-2.6 0-1.4.9-2.8 2.5-2.8 1.7 0 2.2 1.4 2.2 2.5v.5h-3.5zm2.3-.9c0-.5-.2-1.2-1.1-1.2-.8 0-1.1.7-1.2 1.2h2.3zM110.1 103.3v-1.6h1.1v1c.3-.7.9-1.1 1.4-1.1h.3v1.2h-.4c-.6 0-1 .4-1.2 1v3H110v-3.5zM118.9 106.8l-.1-.6c-.3.4-.9.7-1.5.7-1 0-1.6-.7-1.6-1.5 0-1.3 1.1-1.9 3-1.9v-.1c0-.3-.1-.9-1-.9-.5 0-1 .2-1.4.4l-.3-.9c.4-.2 1-.5 1.8-.5 1.6 0 2.1 1 2.1 2.2v1.8c0 .5 0 .9.1 1.2h-1.1zm-.2-2.5c-.9 0-1.8.2-1.8 1 0 .5.3.7.7.7.5 0 .9-.3 1-.7v-1zM121.4 103.2v-1.5h1.1l.1.8c.2-.4.8-.9 1.6-.9.9 0 1.8.6 1.8 2.2v3h-1.3v-2.9c0-.7-.3-1.3-1-1.3-.5 0-.9.4-1 .8 0 .1-.1.3-.1.4v3h-1.3v-3.6zM132.1 99.3v7.4H131l-.1-.8c-.3.6-.9.9-1.7.9-1.2 0-2.2-1-2.2-2.6 0-1.7 1.1-2.7 2.3-2.7.7 0 1.2.3 1.4.7v-2.9h1.4zm-1.3 4.5v-.3c-.1-.5-.5-.9-1.1-.9-.8 0-1.3.7-1.3 1.7 0 .9.5 1.6 1.3 1.6.5 0 1-.4 1.1-.9V103.8zM65.3 116.6c.3.2.9.4 1.3.4.6 0 .8-.2.8-.6 0-.3-.2-.5-.8-.7-1-.3-1.4-.9-1.4-1.5 0-.9.7-1.6 1.9-1.6.6 0 1.1.1 1.4.3l-.3.9c-.2-.1-.6-.3-1.1-.3-.5 0-.7.2-.7.5s.2.5.9.7c.9.3 1.4.8 1.4 1.6 0 .9-.7 1.6-2.1 1.6-.6 0-1.2-.1-1.6-.4l.3-.9zM74.6 115.2c0 1.9-1.3 2.7-2.6 2.7-1.4 0-2.6-1-2.6-2.6 0-1.7 1.1-2.7 2.6-2.7 1.6 0 2.6 1 2.6 2.6zm-3.8 0c0 1 .5 1.7 1.3 1.7.7 0 1.2-.7 1.2-1.8 0-.8-.4-1.7-1.2-1.7-1 .1-1.3 1-1.3 1.8zM79.5 117.6c-.3.1-.8.3-1.4.3-1.6 0-2.6-1-2.6-2.6 0-1.5 1-2.7 2.8-2.7.5 0 1 .1 1.2.2l-.2 1c-.2-.1-.5-.2-1-.2-1 0-1.6.7-1.6 1.7s.7 1.6 1.6 1.6c.5 0 .8-.1 1-.2l.2.9zM81.8 111.2c0 .4-.3.7-.7.7-.4 0-.7-.3-.7-.7 0-.4.3-.7.7-.7.4 0 .7.4.7.7zm-1.4 6.6v-5.1h1.3v5.1h-1.3zM86 117.8l-.1-.6c-.3.4-.9.7-1.5.7-1 0-1.6-.7-1.6-1.5 0-1.3 1.1-1.9 3-1.9v-.1c0-.3-.1-.9-1-.9-.5 0-1 .2-1.4.4l-.3-.8c.4-.2 1-.5 1.8-.5 1.6 0 2.1 1 2.1 2.2v1.8c0 .5 0 .9.1 1.2H86zm-.2-2.5c-.9 0-1.8.2-1.8 1 0 .5.3.7.7.7.5 0 .9-.3 1-.7v-1zM88.4 110.3h1.3v7.5h-1.3v-7.5zM96.2 117.8l-.1-.6c-.3.4-.9.7-1.5.7-1 0-1.6-.7-1.6-1.5 0-1.3 1.1-1.9 3-1.9v-.1c0-.3-.1-.9-1-.9-.5 0-1 .2-1.4.4l-.3-.8c.4-.2 1-.5 1.8-.5 1.6 0 2.1 1 2.1 2.2v1.8c0 .5 0 .9.1 1.2h-1.1zm-.2-2.5c-.9 0-1.8.2-1.8 1 0 .5.3.7.7.7.5 0 .9-.3 1-.7v-1zM98.6 114.2v-1.5h1.1l.1.8c.2-.4.8-.9 1.6-.9.9 0 1.8.6 1.8 2.2v3H102v-2.9c0-.7-.3-1.3-1-1.3-.5 0-.9.4-1 .8 0 .1-.1.3-.1.4v3h-1.3v-3.6zM107.5 117.8l-.1-.6c-.3.4-.9.7-1.5.7-1 0-1.6-.7-1.6-1.5 0-1.3 1.1-1.9 3-1.9v-.1c0-.3-.1-.9-1-.9-.5 0-1 .2-1.4.4l-.3-.8c.4-.2 1-.5 1.8-.5 1.6 0 2.1 1 2.1 2.2v1.8c0 .5 0 .9.1 1.2h-1.1zm-.2-2.5c-.9 0-1.8.2-1.8 1 0 .5.3.7.7.7.5 0 .9-.3 1-.7v-1zM110 110.3h1.3v7.5H110v-7.5zM113.5 112.7l.9 2.7c.1.3.2.7.3 1 .1-.3.2-.7.3-1l.8-2.7h1.4l-1.3 3.5c-.7 1.9-1.2 2.8-1.8 3.3-.5.5-1 .6-1.4.7l-.3-1.1c.2-.1.5-.2.8-.4.2-.2.5-.5.7-.8.1-.1.1-.2.1-.2 0-.1 0-.1-.1-.3l-1.9-4.7h1.5zM119.4 111.2v1.5h1.2v1h-1.2v2.3c0 .6.2.9.7.9.2 0 .4 0 .5-.1v1c-.2.1-.5.1-.9.1-.5 0-.9-.2-1.1-.4-.3-.3-.4-.8-.4-1.4v-2.4h-.7v-1h.7v-1.2l1.2-.3zM123 111.2c0 .4-.3.7-.7.7-.4 0-.7-.3-.7-.7 0-.4.3-.7.7-.7.4 0 .7.4.7.7zm-1.4 6.6v-5.1h1.3v5.1h-1.3zM128.1 117.6c-.3.1-.8.3-1.4.3-1.6 0-2.6-1-2.6-2.6 0-1.5 1-2.7 2.8-2.7.5 0 1 .1 1.2.2l-.2 1c-.2-.1-.5-.2-1-.2-1 0-1.6.7-1.6 1.7s.7 1.6 1.6 1.6c.5 0 .8-.1 1-.2l.2.9zM128.9 116.6c.3.2.9.4 1.3.4.6 0 .8-.2.8-.6 0-.3-.2-.5-.8-.7-1-.3-1.4-.9-1.4-1.5 0-.9.7-1.6 1.9-1.6.6 0 1.1.1 1.4.3l-.3.9c-.2-.1-.6-.3-1.1-.3-.5 0-.7.2-.7.5s.2.5.9.7c.9.3 1.4.8 1.4 1.6 0 .9-.7 1.6-2.1 1.6-.6 0-1.2-.1-1.6-.4l.3-.9z" class="st31"/>
    <g>
      <path d="M197.1 107c.4.2 1 .5 1.7.5.8 0 1.3-.4 1.3-1 0-.5-.4-.9-1.3-1.2-1.2-.4-1.9-1-1.9-2.1 0-1.2 1-2 2.5-2 .8 0 1.3.2 1.7.4l-.3 1c-.3-.1-.7-.3-1.4-.3-.8 0-1.2.4-1.2.9s.4.8 1.4 1.2c1.2.5 1.8 1.1 1.8 2.1 0 1.1-.9 2.1-2.7 2.1-.7 0-1.5-.2-1.9-.4l.3-1.2zM205.4 108.4l-.1-.6c-.3.4-.9.7-1.5.7-1 0-1.6-.7-1.6-1.5 0-1.3 1.1-1.9 3-1.9v-.1c0-.3-.1-.9-1-.9-.5 0-1 .2-1.4.4l-.3-.8c.4-.2 1-.5 1.8-.5 1.6 0 2.1 1 2.1 2.2v1.8c0 .5 0 .9.1 1.2h-1.1zm-.2-2.5c-.9 0-1.8.2-1.8 1 0 .5.3.7.7.7.5 0 .9-.3 1-.7v-1zM207.9 101h1.3v7.5h-1.3V101zM211.5 106.2c0 .9.8 1.3 1.6 1.3.6 0 1-.1 1.4-.2l.2.9c-.4.2-1 .3-1.8.3-1.7 0-2.6-1-2.6-2.6 0-1.4.9-2.8 2.5-2.8 1.7 0 2.2 1.4 2.2 2.5v.5h-3.5zm2.2-.9c0-.5-.2-1.2-1.1-1.2-.8 0-1.1.7-1.2 1.2h2.3zM215.9 107.3c.3.2.9.4 1.3.4.6 0 .8-.2.8-.6 0-.3-.2-.5-.8-.7-1-.3-1.4-.9-1.4-1.5 0-.9.7-1.6 1.9-1.6.6 0 1.1.1 1.4.3l-.3.9c-.2-.1-.6-.3-1.1-.3-.5 0-.7.2-.7.5s.2.5.9.7c.9.3 1.4.8 1.4 1.6 0 .9-.7 1.6-2.1 1.6-.6 0-1.2-.1-1.6-.4l.3-.9zM225.4 108.4l-.1-.6c-.3.4-.9.7-1.5.7-1 0-1.6-.7-1.6-1.5 0-1.3 1.1-1.9 3-1.9v-.1c0-.3-.1-.9-1-.9-.5 0-1 .2-1.4.4l-.3-.8c.4-.2 1-.5 1.8-.5 1.6 0 2.1 1 2.1 2.2v1.8c0 .5 0 .9.1 1.2h-1.1zm-.2-2.5c-.9 0-1.8.2-1.8 1 0 .5.3.7.7.7.5 0 .9-.3 1-.7v-1zM227.9 104.8v-1.5h1.1l.1.8c.2-.4.8-.9 1.6-.9.9 0 1.8.6 1.8 2.2v3h-1.3v-2.9c0-.7-.3-1.3-1-1.3-.5 0-.9.4-1 .8 0 .1-.1.3-.1.4v3h-1.3v-3.6zM238.6 101v7.4h-1.2l-.1-.8c-.3.6-.9.9-1.7.9-1.2 0-2.2-1-2.2-2.6 0-1.7 1.1-2.7 2.3-2.7.7 0 1.2.3 1.4.7V101h1.5zm-1.3 4.5v-.3c-.1-.5-.5-.9-1.1-.9-.8 0-1.3.7-1.3 1.7 0 .9.5 1.6 1.3 1.6.5 0 1-.4 1.1-.9V105.5zM242.1 104.8v-1.5h1.1l.1.8c.3-.4.7-.9 1.6-.9.7 0 1.2.4 1.4.9.2-.3.4-.5.6-.6.3-.2.6-.3 1-.3.9 0 1.7.6 1.7 2.2v3h-1.3v-2.8c0-.9-.3-1.4-.9-1.4-.4 0-.8.3-.9.7 0 .1-.1.3-.1.4v3.1h-1.3v-3c0-.7-.3-1.2-.9-1.2-.5 0-.8.4-.9.7-.1.1-.1.3-.1.4v3h-1.3v-3.5zM253.9 108.4l-.1-.6c-.3.4-.9.7-1.5.7-1 0-1.6-.7-1.6-1.5 0-1.3 1.1-1.9 3-1.9v-.1c0-.3-.1-.9-1-.9-.5 0-1 .2-1.4.4l-.3-.8c.4-.2 1-.5 1.8-.5 1.6 0 2.1 1 2.1 2.2v1.8c0 .5 0 .9.1 1.2h-1.1zm-.2-2.5c-.9 0-1.8.2-1.8 1 0 .5.3.7.7.7.5 0 .9-.3 1-.7v-1zM256.4 105v-1.6h1.1v1c.3-.7.9-1.1 1.4-1.1h.3v1.2h-.4c-.6 0-1 .4-1.2 1v3h-1.3V105zM261.4 105.6c.1-.2.3-.4.4-.6l1.2-1.6h1.6l-1.9 2.1 2.2 3h-1.6l-1.5-2.3-.4.5v1.7h-1.3V101h1.3v4.6zM266.4 106.2c0 .9.8 1.3 1.6 1.3.6 0 1-.1 1.4-.2l.2.9c-.4.2-1 .3-1.8.3-1.7 0-2.6-1-2.6-2.6 0-1.4.9-2.8 2.5-2.8 1.7 0 2.2 1.4 2.2 2.5v.5h-3.5zm2.2-.9c0-.5-.2-1.2-1.1-1.2-.8 0-1.1.7-1.2 1.2h2.3zM272.4 101.9v1.5h1.2v1h-1.2v2.3c0 .6.2.9.7.9.2 0 .4 0 .5-.1v1c-.2.1-.5.1-.9.1-.5 0-.9-.2-1.1-.4-.3-.3-.4-.8-.4-1.4v-2.4h-.7v-1h.7v-1.2l1.2-.3zM275.9 101.9c0 .4-.3.7-.7.7-.4 0-.7-.3-.7-.7 0-.4.3-.7.7-.7.5 0 .7.3.7.7zm-1.3 6.5v-5.1h1.3v5.1h-1.3zM277.2 104.8v-1.5h1.1l.1.8c.2-.4.8-.9 1.6-.9.9 0 1.8.6 1.8 2.2v3h-1.3v-2.9c0-.7-.3-1.3-1-1.3-.5 0-.9.4-1 .8 0 .1-.1.3-.1.4v3h-1.3v-3.6zM287.9 103.3v4.4c0 1.1-.2 1.8-.8 2.3-.5.5-1.3.6-2 .6s-1.3-.1-1.8-.4l.3-1c.3.2.9.4 1.5.4.8 0 1.5-.4 1.5-1.5v-.4c-.3.5-.8.8-1.5.8-1.3 0-2.2-1-2.2-2.5 0-1.7 1.1-2.7 2.3-2.7.8 0 1.2.4 1.5.8l.1-.7h1.1zm-1.3 2.1v-.3c-.1-.5-.5-.8-1-.8-.7 0-1.3.6-1.3 1.7 0 .9.4 1.6 1.2 1.6.5 0 .9-.3 1-.8 0-.1.1-.3.1-.5v-.9zM227.1 119.4l-.1-.6c-.3.4-.9.7-1.5.7-1 0-1.6-.7-1.6-1.5 0-1.3 1.1-1.9 3-1.9v-.1c0-.3-.1-.9-1-.9-.5 0-1 .2-1.4.4l-.3-.8c.4-.2 1-.5 1.8-.5 1.6 0 2.1 1 2.1 2.2v1.8c0 .5 0 .9.1 1.2h-1.1zm-.2-2.5c-.9 0-1.8.2-1.8 1 0 .5.3.7.7.7.5 0 .9-.3 1-.7v-1zM229.5 115.8v-1.5h1.1l.1.8c.2-.4.8-.9 1.6-.9.9 0 1.8.6 1.8 2.2v3h-1.3v-2.9c0-.7-.3-1.3-1-1.3-.5 0-.9.4-1 .8 0 .1-.1.3-.1.4v3h-1.3v-3.6zM238.4 119.4l-.1-.6c-.3.4-.9.7-1.5.7-1 0-1.6-.7-1.6-1.5 0-1.3 1.1-1.9 3-1.9v-.1c0-.3-.1-.9-1-.9-.5 0-1 .2-1.4.4l-.3-.8c.4-.2 1-.5 1.8-.5 1.6 0 2.1 1 2.1 2.2v1.8c0 .5 0 .9.1 1.2h-1.1zm-.1-2.5c-.9 0-1.8.2-1.8 1 0 .5.3.7.7.7.5 0 .9-.3 1-.7v-1zM240.9 112h1.3v7.5h-1.3V112zM244.4 114.3l.9 2.7c.1.3.2.7.3 1 .1-.3.2-.7.3-1l.8-2.7h1.4l-1.3 3.5c-.7 1.9-1.2 2.8-1.8 3.3-.5.5-1 .6-1.4.7l-.3-1.1c.2-.1.5-.2.8-.4.2-.2.5-.5.7-.8.1-.1.1-.2.1-.2 0-.1 0-.1-.1-.3l-1.9-4.7h1.5zM250.3 112.9v1.5h1.2v1h-1.2v2.3c0 .6.2.9.7.9.2 0 .4 0 .5-.1v1c-.2.1-.5.1-.9.1-.5 0-.9-.2-1.1-.4-.3-.3-.4-.8-.4-1.4v-2.4h-.7v-1h.7v-1.2l1.2-.3zM253.9 112.9c0 .4-.3.7-.7.7-.4 0-.7-.3-.7-.7 0-.4.3-.7.7-.7.4 0 .7.3.7.7zm-1.4 6.5v-5.1h1.3v5.1h-1.3zM259 119.3c-.3.1-.8.3-1.4.3-1.6 0-2.6-1-2.6-2.6 0-1.5 1-2.7 2.8-2.7.5 0 1 .1 1.2.2l-.2 1c-.2-.1-.5-.2-1-.2-1 0-1.6.7-1.6 1.7s.7 1.6 1.6 1.6c.5 0 .8-.1 1-.2l.2.9zM259.9 118.3c.3.2.9.4 1.3.4.6 0 .8-.2.8-.6 0-.3-.2-.5-.8-.7-1-.3-1.4-.9-1.4-1.5 0-.9.7-1.6 1.9-1.6.6 0 1.1.1 1.4.3l-.3.9c-.2-.1-.6-.3-1.1-.3-.5 0-.7.2-.7.5s.2.5.9.7c.9.3 1.4.8 1.4 1.6 0 .9-.7 1.6-2.1 1.6-.6 0-1.2-.1-1.6-.4l.3-.9z" class="st31"/>
    </g>
    <g>
      <path d="M159.1 314.8c-.3.2-1 .3-1.8.3-2.2 0-3.6-1.4-3.6-3.6 0-2.3 1.6-3.7 3.8-3.7.9 0 1.5.2 1.7.3l-.3 1c-.3-.1-.8-.3-1.4-.3-1.4 0-2.5.9-2.5 2.6 0 1.6.9 2.6 2.5 2.6.5 0 1.1-.1 1.4-.3l.2 1.1zM163 315.1l-.1-.6c-.3.4-.9.7-1.5.7-1 0-1.6-.7-1.6-1.5 0-1.3 1.1-1.9 3-1.9v-.1c0-.3-.1-.9-1-.9-.5 0-1 .2-1.4.4l-.3-.8c.4-.2 1-.5 1.8-.5 1.6 0 2.1 1 2.1 2.2v1.8c0 .5 0 .9.1 1.2H163zm-.2-2.5c-.9 0-1.8.2-1.8 1 0 .5.3.7.7.7.5 0 .9-.3 1-.7v-1zM166.9 308.5v1.5h1.2v1h-1.2v2.3c0 .6.2.9.7.9.2 0 .4 0 .5-.1v1c-.2.1-.5.1-.9.1-.5 0-.9-.2-1.1-.4-.3-.3-.4-.8-.4-1.4V311h-.7v-1h.7v-1.2l1.2-.3zM170.1 312.9c0 .9.8 1.3 1.6 1.3.6 0 1-.1 1.4-.2l.2.9c-.4.2-1 .3-1.8.3-1.7 0-2.6-1-2.6-2.6 0-1.4.9-2.8 2.5-2.8 1.7 0 2.2 1.4 2.2 2.5v.5h-3.5zm2.2-.9c0-.5-.2-1.2-1.1-1.2-.8 0-1.1.7-1.2 1.2h2.3zM179.2 309.9v4.4c0 1.1-.2 1.8-.8 2.3-.5.5-1.3.6-2 .6s-1.3-.1-1.8-.4l.3-1c.3.2.9.4 1.5.4.8 0 1.5-.4 1.5-1.5v-.4c-.3.5-.8.8-1.5.8-1.3 0-2.2-1-2.2-2.5 0-1.7 1.1-2.7 2.3-2.7.8 0 1.2.4 1.5.8l.1-.7h1.1zm-1.3 2.1v-.3c-.1-.5-.5-.8-1-.8-.7 0-1.3.6-1.3 1.7 0 .9.4 1.6 1.2 1.6.5 0 .9-.3 1-.8 0-.1.1-.3.1-.5v-.9zM185.4 312.5c0 1.9-1.3 2.7-2.6 2.7-1.4 0-2.6-1-2.6-2.6 0-1.7 1.1-2.7 2.6-2.7 1.6-.1 2.6 1 2.6 2.6zm-3.8 0c0 1 .5 1.7 1.3 1.7.7 0 1.2-.7 1.2-1.8 0-.8-.4-1.7-1.2-1.7-.9.1-1.3 1-1.3 1.8zM186.5 311.6V310h1.1v1c.3-.7.9-1.1 1.4-1.1h.3v1.2h-.4c-.6 0-1 .4-1.2 1v3h-1.3v-3.5zM191.1 309.9l.9 2.7c.1.3.2.7.3 1 .1-.3.2-.7.3-1l.8-2.7h1.4l-1.3 3.5c-.7 1.9-1.2 2.8-1.8 3.3-.5.5-1 .6-1.4.7l-.3-1.1c.2-.1.5-.2.8-.4.2-.2.5-.5.7-.8.1-.1.1-.2.1-.2 0-.1 0-.1-.1-.3l-1.9-4.7h1.5zM158.6 326.1l-.1-.6c-.3.4-.9.7-1.5.7-1 0-1.6-.7-1.6-1.5 0-1.3 1.1-1.9 3-1.9v-.1c0-.3-.1-.9-1-.9-.5 0-1 .2-1.4.4l-.3-.8c.4-.2 1-.5 1.8-.5 1.6 0 2.1 1 2.1 2.2v1.8c0 .5 0 .9.1 1.2h-1.1zm-.1-2.5c-.9 0-1.8.2-1.8 1 0 .5.3.7.7.7.5 0 .9-.3 1-.7v-1zM161.1 322.5V321h1.1l.1.8c.2-.4.8-.9 1.6-.9.9 0 1.8.6 1.8 2.2v3h-1.3v-2.9c0-.7-.3-1.3-1-1.3-.5 0-.9.4-1 .8 0 .1-.1.3-.1.4v3H161v-3.6zM170 326.1l-.1-.6c-.3.4-.9.7-1.5.7-1 0-1.6-.7-1.6-1.5 0-1.3 1.1-1.9 3-1.9v-.1c0-.3-.1-.9-1-.9-.5 0-1 .2-1.4.4l-.3-.8c.4-.2 1-.5 1.8-.5 1.6 0 2.1 1 2.1 2.2v1.8c0 .5 0 .9.1 1.2H170zm-.2-2.5c-.9 0-1.8.2-1.8 1 0 .5.3.7.7.7.5 0 .9-.3 1-.7v-1zM172.4 318.6h1.3v7.5h-1.3v-7.5zM176 320.9l.9 2.7c.1.3.2.7.3 1 .1-.3.2-.7.3-1l.8-2.7h1.4l-1.3 3.5c-.7 1.9-1.2 2.8-1.8 3.3-.5.5-1 .6-1.4.7l-.3-1.1c.2-.1.5-.2.8-.4.2-.2.5-.5.7-.8.1-.1.1-.2.1-.2 0-.1 0-.1-.1-.3l-1.9-4.7h1.5zM181.9 319.5v1.5h1.2v1h-1.2v2.3c0 .6.2.9.7.9.2 0 .4 0 .5-.1v1c-.2.1-.5.1-.9.1-.5 0-.9-.2-1.1-.4-.3-.3-.4-.8-.4-1.4V322h-.7v-1h.7v-1.2l1.2-.3zM185.5 319.5c0 .4-.3.7-.7.7-.4 0-.7-.3-.7-.7 0-.4.3-.7.7-.7.4 0 .6.3.7.7zm-1.4 6.6V321h1.3v5.1h-1.3zM190.5 325.9c-.3.1-.8.3-1.4.3-1.6 0-2.6-1-2.6-2.6 0-1.5 1-2.7 2.8-2.7.5 0 1 .1 1.2.2l-.2 1c-.2-.1-.5-.2-1-.2-1 0-1.6.7-1.6 1.7s.7 1.6 1.6 1.6c.5 0 .8-.1 1-.2l.2.9zM191.4 324.9c.3.2.9.4 1.3.4.6 0 .8-.2.8-.6 0-.3-.2-.5-.8-.7-1-.3-1.4-.9-1.4-1.5 0-.9.7-1.6 1.9-1.6.6 0 1.1.1 1.4.3l-.3.9c-.2-.1-.6-.3-1.1-.3-.5 0-.7.2-.7.5s.2.5.9.7c.9.3 1.4.8 1.4 1.6 0 .9-.7 1.6-2.1 1.6-.6 0-1.2-.1-1.6-.4l.3-.9z" class="st31"/>
    </g>
    <g>
      <path d="M34.7 230.1c.4.2 1 .5 1.7.5.8 0 1.3-.4 1.3-1 0-.5-.4-.9-1.3-1.2-1.2-.4-1.9-1-1.9-2.1 0-1.2 1-2 2.5-2 .8 0 1.3.2 1.7.4l-.3 1c-.3-.1-.7-.3-1.4-.3-.8 0-1.2.4-1.2.9s.4.8 1.4 1.2c1.2.5 1.8 1.1 1.8 2.1 0 1.1-.9 2.1-2.7 2.1-.7 0-1.5-.2-1.9-.4l.3-1.2zM44.7 230v1.5h-1.1l-.1-.8c-.2.4-.7.9-1.6.9-.9 0-1.8-.6-1.8-2.2v-3h1.3v2.8c0 .9.3 1.4 1 1.4.5 0 .9-.4 1-.7 0-.1.1-.3.1-.4v-3.1h1.3v3.6zM46.1 228.1v-1.7h1.1l.1.8c.4-.6 1-.9 1.8-.9 1.2 0 2.2 1 2.2 2.6 0 1.8-1.2 2.7-2.3 2.7-.6 0-1.2-.3-1.4-.7v2.6h-1.3v-5.4zm1.3 1.3v.4c.1.5.6.9 1.1.9.8 0 1.3-.7 1.3-1.7 0-.9-.4-1.6-1.3-1.6-.5 0-1 .4-1.2 1 0 .1-.1.2-.1.3v.7zM52.2 228.1v-1.7h1.1l.1.8c.4-.6 1-.9 1.8-.9 1.2 0 2.2 1 2.2 2.6 0 1.8-1.2 2.7-2.3 2.7-.6 0-1.2-.3-1.4-.7v2.6h-1.3v-5.4zm1.3 1.3v.4c.1.5.6.9 1.1.9.8 0 1.3-.7 1.3-1.7 0-.9-.4-1.6-1.3-1.6-.5 0-1 .4-1.2 1 0 .1-.1.2-.1.3v.7zM58.4 224.1h1.3v7.5h-1.3v-7.5zM61.9 226.4l.9 2.7c.1.3.2.7.3 1 .1-.3.2-.7.3-1l.8-2.7h1.4l-1.3 3.5c-.7 1.9-1.2 2.8-1.8 3.3-.5.5-1 .6-1.4.7l-.3-1.1c.2-.1.5-.2.8-.4.2-.2.5-.5.7-.8.1-.1.1-.2.1-.2 0-.1 0-.1-.1-.3l-1.9-4.7h1.5zM72.2 231.4c-.3.1-.8.3-1.4.3-1.6 0-2.6-1-2.6-2.6 0-1.5 1-2.7 2.8-2.7.5 0 1 .1 1.2.2l-.2 1c-.2-.1-.5-.2-1-.2-1 0-1.6.7-1.6 1.7s.7 1.6 1.6 1.6c.5 0 .8-.1 1-.2l.2.9zM73.2 224.1h1.3v3l.6-.6c.3-.1.6-.2.9-.2.9 0 1.8.6 1.8 2.2v3h-1.3v-2.9c0-.7-.3-1.3-1-1.3-.5 0-.9.3-1 .7 0 .1-.1.2-.1.4v3.1h-1.3v-7.4zM82.1 231.6l-.1-.6c-.3.4-.9.7-1.5.7-1 0-1.6-.7-1.6-1.5 0-1.3 1.1-1.9 3-1.9v-.1c0-.3-.1-.9-1-.9-.5 0-1 .2-1.4.4l-.3-.8c.4-.2 1-.5 1.8-.5 1.6 0 2.1 1 2.1 2.2v1.8c0 .5 0 .9.1 1.2h-1.1zm-.2-2.5c-.9 0-1.8.2-1.8 1 0 .5.3.7.7.7.5 0 .9-.3 1-.7v-1zM85.9 225c0 .4-.3.7-.7.7-.4 0-.7-.3-.7-.7 0-.4.3-.7.7-.7.4 0 .7.3.7.7zm-1.4 6.6v-5.1h1.3v5.1h-1.3zM87.2 228v-1.5h1.1l.1.8c.2-.4.8-.9 1.6-.9.9 0 1.8.6 1.8 2.2v3h-1.3v-2.9c0-.7-.3-1.3-1-1.3-.5 0-.9.4-1 .8 0 .1-.1.3-.1.4v3h-1.3V228zM47.9 242.6l-.1-.6c-.3.4-.9.7-1.5.7-1 0-1.6-.7-1.6-1.5 0-1.3 1.1-1.9 3-1.9v-.1c0-.3-.1-.9-1-.9-.5 0-1 .2-1.4.4l-.3-.8c.4-.2 1-.5 1.8-.5 1.6 0 2.1 1 2.1 2.2v1.8c0 .5 0 .9.1 1.2h-1.1zm-.2-2.5c-.9 0-1.8.2-1.8 1 0 .5.3.7.7.7.5 0 .9-.3 1-.7v-1zM50.3 239v-1.5h1.1l.1.8c.2-.4.8-.9 1.6-.9.9 0 1.8.6 1.8 2.2v3h-1.3v-2.9c0-.7-.3-1.3-1-1.3-.5 0-.9.4-1 .8 0 .1-.1.3-.1.4v3h-1.3V239zM59.2 242.6l-.1-.6c-.3.4-.9.7-1.5.7-1 0-1.6-.7-1.6-1.5 0-1.3 1.1-1.9 3-1.9v-.1c0-.3-.1-.9-1-.9-.5 0-1 .2-1.4.4l-.3-.8c.4-.2 1-.5 1.8-.5 1.6 0 2.1 1 2.1 2.2v1.8c0 .5 0 .9.1 1.2h-1.1zm-.2-2.5c-.9 0-1.8.2-1.8 1 0 .5.3.7.7.7.5 0 .9-.3 1-.7v-1zM61.7 235.1H63v7.5h-1.3v-7.5zM65.2 237.4l.9 2.7c.1.3.2.7.3 1 .1-.3.2-.7.3-1l.8-2.7h1.4l-1.3 3.5c-.7 1.9-1.2 2.8-1.8 3.3-.5.5-1 .6-1.4.7l-.3-1.1c.2-.1.5-.2.8-.4.2-.2.5-.5.7-.8.1-.1.1-.2.1-.2 0-.1 0-.1-.1-.3l-1.9-4.7h1.5zM71.1 236v1.5h1.2v1h-1.2v2.3c0 .6.2.9.7.9.2 0 .4 0 .5-.1v1c-.2.1-.5.1-.9.1-.5 0-.9-.2-1.1-.4-.3-.3-.4-.8-.4-1.4v-2.4h-.7v-1h.7v-1.2l1.2-.3zM74.7 236c0 .4-.3.7-.7.7-.4 0-.7-.3-.7-.7 0-.4.3-.7.7-.7.4 0 .7.3.7.7zm-1.4 6.6v-5.1h1.3v5.1h-1.3zM79.7 242.4c-.3.1-.8.3-1.4.3-1.6 0-2.6-1-2.6-2.6 0-1.5 1-2.7 2.8-2.7.5 0 1 .1 1.2.2l-.2 1c-.2-.1-.5-.2-1-.2-1 0-1.6.7-1.6 1.7s.7 1.6 1.6 1.6c.5 0 .8-.1 1-.2l.2.9zM80.6 241.4c.3.2.9.4 1.3.4.6 0 .8-.2.8-.6 0-.3-.2-.5-.8-.7-1-.3-1.4-.9-1.4-1.5 0-.9.7-1.6 1.9-1.6.6 0 1.1.1 1.4.3l-.3.9c-.2-.1-.6-.3-1.1-.3-.5 0-.7.2-.7.5s.2.5.9.7c.9.3 1.4.8 1.4 1.6 0 .9-.7 1.6-2.1 1.6-.6 0-1.2-.1-1.6-.4l.3-.9z" class="st31"/>
    </g>
    <g>
      <path d="M241.3 226.7c.4-.1 1.2-.1 1.9-.1 1 0 1.5.1 2 .5.4.3.7.7.7 1.3 0 .7-.4 1.2-1.2 1.5.7.2 1.4.8 1.4 1.8 0 .6-.3 1.1-.7 1.5-.5.4-1.3.7-2.6.7-.7 0-1.3-.1-1.6-.1v-7.1zm1.3 2.8h.7c.9 0 1.4-.4 1.4-1 0-.7-.5-1-1.3-1-.4 0-.6 0-.7.1v1.9zm0 3.2h.7c.8 0 1.6-.3 1.6-1.2 0-.8-.7-1.2-1.6-1.2h-.6v2.4zM251.9 232.1v1.5h-1.1l-.1-.8c-.2.4-.7.9-1.6.9-.9 0-1.8-.6-1.8-2.2v-3h1.3v2.8c0 .9.3 1.4 1 1.4.5 0 .9-.4 1-.7 0-.1.1-.3.1-.4v-3.1h1.3v3.6zM253.2 232.5c.3.2.9.4 1.3.4.6 0 .8-.2.8-.6 0-.3-.2-.5-.8-.7-1-.3-1.4-.9-1.4-1.5 0-.9.7-1.6 1.9-1.6.6 0 1.1.1 1.4.3l-.3.9c-.2-.1-.6-.3-1.1-.3-.5 0-.7.2-.7.5s.2.5.9.7c.9.3 1.4.8 1.4 1.6 0 .9-.7 1.6-2.1 1.6-.6 0-1.2-.1-1.6-.4l.3-.9zM259 227.1c0 .4-.3.7-.7.7-.4 0-.7-.3-.7-.7 0-.4.3-.7.7-.7.4 0 .7.3.7.7zm-1.3 6.6v-5.1h1.3v5.1h-1.3zM260.3 230.1v-1.5h1.1l.1.8c.2-.4.8-.9 1.6-.9.9 0 1.8.6 1.8 2.2v3h-1.3v-2.9c0-.7-.3-1.3-1-1.3-.5 0-.9.4-1 .8 0 .1-.1.3-.1.4v3h-1.3v-3.6zM267.3 231.5c0 .9.8 1.3 1.6 1.3.6 0 1-.1 1.4-.2l.2.9c-.4.2-1 .3-1.8.3-1.7 0-2.6-1-2.6-2.6 0-1.4.9-2.8 2.5-2.8 1.7 0 2.2 1.4 2.2 2.5v.5h-3.5zm2.2-.9c0-.5-.2-1.2-1.1-1.2-.8 0-1.1.7-1.2 1.2h2.3zM271.7 232.5c.3.2.9.4 1.3.4.6 0 .8-.2.8-.6 0-.3-.2-.5-.8-.7-1-.3-1.4-.9-1.4-1.5 0-.9.7-1.6 1.9-1.6.6 0 1.1.1 1.4.3l-.3.9c-.2-.1-.6-.3-1.1-.3-.5 0-.7.2-.7.5s.2.5.9.7c.9.3 1.4.8 1.4 1.6 0 .9-.7 1.6-2.1 1.6-.6 0-1.2-.1-1.6-.4l.3-.9zM276.1 232.5c.3.2.9.4 1.3.4.6 0 .8-.2.8-.6 0-.3-.2-.5-.8-.7-1-.3-1.4-.9-1.4-1.5 0-.9.7-1.6 1.9-1.6.6 0 1.1.1 1.4.3l-.3.9c-.2-.1-.6-.3-1.1-.3-.5 0-.7.2-.7.5s.2.5.9.7c.9.3 1.4.8 1.4 1.6 0 .9-.7 1.6-2.1 1.6-.6 0-1.2-.1-1.6-.4l.3-.9zM284.1 227.1c0 .4-.3.7-.7.7-.4 0-.7-.3-.7-.7 0-.4.3-.7.7-.7.4 0 .7.3.7.7zm-1.4 6.6v-5.1h1.3v5.1h-1.3zM285.4 230.1v-1.5h1.1l.1.8c.2-.4.8-.9 1.6-.9.9 0 1.8.6 1.8 2.2v3h-1.3v-2.9c0-.7-.3-1.3-1-1.3-.5 0-.9.4-1 .8 0 .1-.1.3-.1.4v3h-1.3v-3.6zM291.3 232.5c.3.2.9.4 1.3.4.6 0 .8-.2.8-.6 0-.3-.2-.5-.8-.7-1-.3-1.4-.9-1.4-1.5 0-.9.7-1.6 1.9-1.6.6 0 1.1.1 1.4.3l-.3.9c-.2-.1-.6-.3-1.1-.3-.5 0-.7.2-.7.5s.2.5.9.7c.9.3 1.4.8 1.4 1.6 0 .9-.7 1.6-2.1 1.6-.6 0-1.2-.1-1.6-.4l.3-.9zM297.1 227.1c0 .4-.3.7-.7.7-.4 0-.7-.3-.7-.7 0-.4.3-.7.7-.7.5 0 .7.3.7.7zm-1.3 6.6v-5.1h1.3v5.1h-1.3zM303.1 228.5v4.4c0 1.1-.2 1.8-.8 2.3-.5.5-1.3.6-2 .6s-1.3-.1-1.8-.4l.3-1c.3.2.9.4 1.5.4.8 0 1.5-.4 1.5-1.5v-.4c-.3.5-.8.8-1.5.8-1.3 0-2.2-1-2.2-2.5 0-1.7 1.1-2.7 2.3-2.7.8 0 1.2.4 1.5.8l.1-.7h1.1zm-1.3 2.1v-.3c-.1-.5-.5-.8-1-.8-.7 0-1.3.6-1.3 1.7 0 .9.4 1.6 1.2 1.6.5 0 .9-.3 1-.8 0-.1.1-.3.1-.5v-.9zM304.5 226.2h1.3v3l.6-.6c.3-.1.6-.2.9-.2.9 0 1.8.6 1.8 2.2v3h-1.3v-2.9c0-.7-.3-1.3-1-1.3-.5 0-.9.3-1 .7 0 .1-.1.2-.1.4v3.1h-1.3v-7.4zM312 227.1v1.5h1.2v1H312v2.3c0 .6.2.9.7.9.2 0 .4 0 .5-.1v1c-.2.1-.5.1-.9.1-.5 0-.9-.2-1.1-.4-.3-.3-.4-.8-.4-1.4v-2.4h-.8v-1h.7v-1.2l1.3-.3zM314.1 232.5c.3.2.9.4 1.3.4.6 0 .8-.2.8-.6 0-.3-.2-.5-.8-.7-1-.3-1.4-.9-1.4-1.5 0-.9.7-1.6 1.9-1.6.6 0 1.1.1 1.4.3l-.3.9c-.2-.1-.6-.3-1.1-.3-.5 0-.7.2-.7.5s.2.5.9.7c.9.3 1.4.8 1.4 1.6 0 .9-.7 1.6-2.1 1.6-.6 0-1.2-.1-1.6-.4l.3-.9zM259.9 242.1c0 1.9-1.3 2.7-2.6 2.7-1.4 0-2.6-1-2.6-2.6 0-1.7 1.1-2.7 2.6-2.7 1.5-.1 2.6 1 2.6 2.6zm-3.9 0c0 1 .5 1.7 1.3 1.7.7 0 1.2-.7 1.2-1.8 0-.8-.4-1.7-1.2-1.7-.9.1-1.3 1-1.3 1.8zM260.9 241.1v-1.5h1.1l.1.8c.2-.4.8-.9 1.6-.9.9 0 1.8.6 1.8 2.2v3h-1.3v-2.9c0-.7-.3-1.3-1-1.3-.5 0-.9.4-1 .8 0 .1-.1.3-.1.4v3h-1.3v-3.6zM273.8 237.2v7.4h-1.2l-.1-.8c-.3.6-.9.9-1.7.9-1.2 0-2.2-1-2.2-2.6 0-1.7 1.1-2.7 2.3-2.7.7 0 1.2.3 1.4.7v-2.9h1.5zm-1.3 4.5v-.3c-.1-.5-.5-.9-1.1-.9-.8 0-1.3.7-1.3 1.7 0 .9.5 1.6 1.3 1.6.5 0 1-.4 1.1-.9V241.7zM276.1 242.5c0 .9.8 1.3 1.6 1.3.6 0 1-.1 1.4-.2l.2.9c-.4.2-1 .3-1.8.3-1.7 0-2.6-1-2.6-2.6 0-1.4.9-2.8 2.5-2.8 1.7 0 2.2 1.4 2.2 2.5v.5h-3.5zm2.3-.9c0-.5-.2-1.2-1.1-1.2-.8 0-1.1.7-1.2 1.2h2.3zM280.6 241.1v-1.5h1.1l.1.8c.3-.4.7-.9 1.6-.9.7 0 1.2.4 1.4.9.2-.3.4-.5.6-.6.3-.2.6-.3 1-.3.9 0 1.7.6 1.7 2.2v3h-1.3v-2.8c0-.9-.3-1.4-.9-1.4-.4 0-.8.3-.9.7 0 .1-.1.3-.1.4v3.1h-1.3v-3c0-.7-.3-1.2-.9-1.2-.5 0-.8.4-.9.7-.1.1-.1.3-.1.4v3h-1.3v-3.5zM292.4 244.7l-.1-.6c-.3.4-.9.7-1.5.7-1 0-1.6-.7-1.6-1.5 0-1.3 1.1-1.9 3-1.9v-.1c0-.3-.1-.9-1-.9-.5 0-1 .2-1.4.4l-.3-.8c.4-.2 1-.5 1.8-.5 1.6 0 2.1 1 2.1 2.2v1.8c0 .5 0 .9.1 1.2h-1.1zm-.2-2.5c-.9 0-1.8.2-1.8 1 0 .5.3.7.7.7.5 0 .9-.3 1-.7v-1zM294.9 241.1v-1.5h1.1l.1.8c.2-.4.8-.9 1.6-.9.9 0 1.8.6 1.8 2.2v3h-1.3v-2.9c0-.7-.3-1.3-1-1.3-.5 0-.9.4-1 .8 0 .1-.1.3-.1.4v3h-1.3v-3.6zM305.6 237.2v7.4h-1.2l-.1-.8c-.3.6-.9.9-1.7.9-1.2 0-2.2-1-2.2-2.6 0-1.7 1.1-2.7 2.3-2.7.7 0 1.2.3 1.4.7v-2.9h1.5zm-1.3 4.5v-.3c-.1-.5-.5-.9-1.1-.9-.8 0-1.3.7-1.3 1.7 0 .9.5 1.6 1.3 1.6.5 0 1-.4 1.1-.9V241.7z" class="st31"/>
    </g>
    <path id="XMLID_233_" d="M67.4 226.3z" class="st31"/>
    <path id="XMLID_227_" d="M173.9 288.3v8.2" class="st33"/>
    <g id="XMLID_225_">
      <path d="M195.2 258.1v30.2h-42.6v-32.4h31.8" class="st33"/>
      <path d="M192.2 259l3-5.2 3 5.2z" class="st31"/>
    </g>
    <path id="XMLID_224_" d="M186.1 257.6c-1.5-.9-1.5-3 0-3.9 1.5-.9 3.4.2 3.4 1.9.1 1.9-1.9 2.9-3.4 2z" class="st34"/>
    <path id="XMLID_216_" d="M166 296.5h15.8" class="st33"/>
    <g>
      <path d="M164.2 281.9l7.9-6.1 3.3 2.6 5.9-5.8" class="st38"/>
      <path d="M182.7 275.4l1.7-5.7-5.8 1.4z" class="st31"/>
    </g>
    <g>
      <path d="M291.2 196.7s-4.5 6.7-12.2 6.7c-7.7 0-12.2-6.7-12.2-6.7s4.5-6.7 12.2-6.7c7.7 0 12.2 6.7 12.2 6.7z" class="st33"/>
      <circle cx="279" cy="196.7" r="4.5" class="st33"/>
      <path d="M286.6 188.8l5-5" class="st33"/>
      <path d="M293.1 186.5l1.5-5.7-5.7 1.5z" class="st31"/>
      <path d="M271.4 204.6l-5 5" class="st33"/>
      <path d="M264.9 206.9l-1.5 5.7 5.8-1.5z" class="st31"/>
      <path d="M278.8 185.7v-7" class="st33"/>
      <path d="M281.8 179.6l-3-5.2-3 5.2z" class="st31"/>
      <path d="M279.2 207.7v7" class="st33"/>
      <path d="M276.3 213.8l2.9 5.2 3-5.2z" class="st31"/>
      <g>
        <path d="M268 196.9h-7" class="st33"/>
        <path d="M261.9 193.9l-5.2 3 5.2 3z" class="st31"/>
      </g>
      <g>
        <path d="M290 196.5h7" class="st33"/>
        <path d="M296.1 199.5l5.2-3-5.2-3z" class="st31"/>
      </g>
      <g>
        <path d="M271.4 188.8l-5-5" class="st33"/>
        <path d="M269.2 182.3l-5.8-1.5 1.5 5.7z" class="st31"/>
      </g>
      <g>
        <path d="M286.6 204.6l5 5" class="st33"/>
        <path d="M288.9 211.1l5.7 1.5-1.5-5.7z" class="st31"/>
      </g>
    </g>
    <path d="M159.1 262.6h30.3v4.8h-30.3zM159.1 267.4v16.2" class="st38"/>
    <g>
      <circle cx="97.2" cy="52.8" r="6.5" class="st35"/>
      <path d="M90.3 77.5H85V69c0-3.3 2.7-5.9 5.9-5.9h12.5c3.3 0 5.9 2.7 5.9 5.9v5l-4.8 4.5v-8.3" class="st35"/>
    </g>
    <g>
      <path d="M85.2 87.8l6.9 4.7 9.1-8 4.8 3.3 14.7-15.3" class="st35"/>
      <path d="M122.3 75.2l1.4-5.9L118 71z" class="st36"/>
    </g>
    <path d="M90.3 70.2v15" class="st35"/>
    <path id="XMLID_230_" d="M239.3 83.2v8.2" class="st33"/>
    <g id="XMLID_228_">
      <path d="M259.3 70.8v12.4H218V52.6h14" class="st33"/>
      <path d="M256.4 71.7l2.9-5.2 3 5.2z" class="st31"/>
    </g>
    <path id="XMLID_151_" d="M233.8 54.3c-1.5-.9-1.5-3 0-3.9 1.5-.9 3.4.2 3.4 1.9 0 1.9-1.9 2.9-3.4 2z" class="st34"/>
    <path id="XMLID_149_" d="M231.4 91.4h15.8" class="st33"/>
    <path d="M241.2 49.3h4.5v6.9h-4.5zM245.7 50.5l13.5-7.7v19.7l-13.5-7.7M259.6 49.7c1.6 0 2.6 1.3 2.6 3 0 1.6-1 3-2.6 3" class="st33"/>
    <g>
      <g id="XMLID_660_">
        <g id="XMLID_661_">
          <path id="XMLID_198_" d="M71.9 209.8h-3v-22.3h8.7l7.9 12-.1 10.4c-2.7 0-6 0-7.6-.1" class="st35"/>
          <path id="XMLID_664_" d="M45.8 209.8H41v-5.7h27.9v5.7H51.5" class="st35"/>
          <g id="XMLID_662_">
            <path d="M68.9 183.8v20.3H41V184h22.3" class="st35"/>
            <path d="M66 184.7l2.9-5.2 3 5.2z" class="st36"/>
          </g>
        </g>
        <circle cx="48.5" cy="211.2" r="3" class="st35"/>
        <circle cx="74.9" cy="211.2" r="3" class="st35"/>
      </g>
      <path d="M57.8 189.7h5.5V204h-5.5zM52.3 193.7h5.5V204h-5.5z" class="st35"/>
      <path d="M46.9 197.6h5.5v6.5h-5.5z" class="st35"/>
    </g>
    <g>
      <path d="M224.6 70.8l3.4 2.9 5.6-4.4 4.5 2.2 5.5-4.4" class="st35"/>
      <path d="M244.8 70l2.1-5.6-5.9.9z" class="st36"/>
    </g>
  </g>
</svg>
