<svg id="Layer_1" data-name="Layer 1" xmlns="http://www.w3.org/2000/svg" width="100" height="100" viewBox="0 0 100 100"><title>annual-processing</title><path d="M40,78.72c-.44,2.7-.87,5.38-1.31,8-.38,2.38-.76,4.75-1.15,7.13-.21,1.3-1,2-2,1.78s-1.48-1.05-1.27-2.37L36.5,79.75c0-.31.07-.62.13-1.11H35.24c-6.57,0-13.14,0-19.71,0A10.19,10.19,0,0,1,5.25,70.52a14.48,14.48,0,0,1-.22-3Q5,55.26,5,43a1.46,1.46,0,0,0-1-1.65,6.17,6.17,0,0,1-4-6.12,6.2,6.2,0,0,1,4.07-6A1.33,1.33,0,0,0,5,27.72a10.25,10.25,0,0,1,3.7-8.9,10.55,10.55,0,0,1,7-2.39h30.9c.39-2.38.77-4.7,1.14-7,.18-1.12.35-2.23.52-3.34s.55-1.72,1.65-1.78,1.57.56,1.77,1.79c.49,3.06,1,6.13,1.46,9.2,0,.34.13.68.23,1.15h1.37q14.82,0,29.62,0A10.21,10.21,0,0,1,94.76,24.6a15,15,0,0,1,.21,3q0,12,0,24a1.41,1.41,0,0,0,1,1.52,6.56,6.56,0,0,1,0,12.12,1.42,1.42,0,0,0-1,1.53,20.1,20.1,0,0,1-.47,4.61,10.09,10.09,0,0,1-10,7.22c-6.57,0-13.14,0-19.71,0H63.34c.38,2.44.75,4.77,1.12,7.09.41,2.56.84,5.13,1.24,7.7.2,1.24-.3,2.07-1.28,2.25s-1.76-.48-2-1.78L60.14,79.64c0-.3-.12-.59-.19-.92Zm51.71-13L91,65.39a6.53,6.53,0,0,1-4.29-6.09,6.41,6.41,0,0,1,4.22-6.23c.79-.32.78-.79.78-1.43q0-12.18,0-24.36a10,10,0,0,0-.18-2.19c-.78-3.32-3.56-5.38-7.23-5.38l-35.67,0-33,0A7.17,7.17,0,0,0,10.17,22C8.5,23.7,8.23,25.84,8.3,28.12a1,1,0,0,0,.78,1.07,6.58,6.58,0,0,1,.07,12.26,1.15,1.15,0,0,0-.84,1.28c0,8.5,0,17,0,25.52a6.83,6.83,0,0,0,6.94,7.1c7.62.07,15.23,0,22.85,0,7.77,0,15.54,0,23.31,0s15.54.07,23.31,0a6.78,6.78,0,0,0,6.77-5.49A30,30,0,0,0,91.72,65.73ZM10.08,35.37a3.37,3.37,0,0,0-3.34-3.44,3.43,3.43,0,1,0,0,6.85A3.44,3.44,0,0,0,10.08,35.37ZM96.77,59.18a3.43,3.43,0,1,0-3.46,3.42A3.37,3.37,0,0,0,96.77,59.18Z"/><path d="M47.77,55c.72-1.2,1.35-2.27,2-3.33l7.14-12c1-1.63,1.94-1.75,3.34-.42,2.13,2,4.27,4.07,6.51,6.2l6.19-8.83-5-3.37,13.25-6.47c-.33,4.91-.64,9.63-1,14.59l-4.5-2.92-4.1,5.85c-1,1.4-2,2.81-2.95,4.2s-1.9,1.47-3.15.28C63.6,47,61.76,45.18,59.9,43.41c-.27-.26-.56-.5-.92-.81l-.71,1.14Q54,50.85,49.82,58c-1,1.76-2.06,1.86-3.45.35l-4.52-5L36,62.44c-.84,1.31-1.67,2.62-2.53,3.92a1.69,1.69,0,0,1-3,.11c-1.84-2.36-3.64-4.74-5.46-7.12-.23-.29-.48-.58-.79-.94l-6.92,9.77c-1,1.45-1.88,1.81-2.82,1.18s-.92-1.59.1-3q4-5.61,7.94-11.21c1.11-1.56,2.17-1.59,3.33-.09l6,7.83,7.95-12.33c1.3-2,2.12-2.08,3.76-.29Z"/></svg>