<svg id="Layer_1" data-name="Layer 1" xmlns="http://www.w3.org/2000/svg" width="75" height="75" viewBox="0 0 75 75"><defs><style>.cls-1{fill:silver;}.cls-2{fill:#bebebe;}.cls-3{fill:#7f7f7f;}.cls-4{fill:#fefefe;}</style></defs><title>industry-wide</title><path d="M62.87,30.69A25.21,25.21,0,0,1,52.09,50c-.46.33-.45.58-.29,1Q54.74,59,57.62,66.91a1.4,1.4,0,0,1,.2.85H49c-.28,0-.39-.08-.43-.38-.18-1.54-.13-1.61,1.4-1.61h5.12L49.84,51.49a25.5,25.5,0,0,1-7.51,2.73,25.19,25.19,0,0,1-16.64-2.41c-.58-.31-.7-.17-.9.38Q22.46,58.63,20.07,65c-.21.58-.2.77.5.76q7.56,0,15.12,0c.64,0,.75-.21.73-.78,0-.88,0-1.77,0-2.83l7.94,4.58-7.94,4.58c0-1,0-1.93,0-2.83,0-.59-.13-.77-.74-.76-5.88,0-11.76,0-17.64,0-.1,0-.2,0-.3,0-.6.08-.8,0-.54-.71,1.22-3.23,2.39-6.47,3.58-9.7.79-2.14,1.57-4.29,2.37-6.42a.57.57,0,0,0-.23-.8,25.32,25.32,0,0,1-10.75-17.7c0-.14,0-.32-.17-.37V26.41a23.42,23.42,0,0,1,1.26-5.78A26.16,26.16,0,0,1,17,13.68a1.35,1.35,0,0,0,.22-1.4,4.12,4.12,0,0,1,1-4.49,4.06,4.06,0,0,1,4.81-.64,1.29,1.29,0,0,0,1.4-.07,24.56,24.56,0,0,1,9.08-3.21,21,21,0,0,1,3-.14h1.91a23.84,23.84,0,0,1,16.63,6.9,24.67,24.67,0,0,1,6,8.63,20.6,20.6,0,0,1,1.82,8.58v1.79A4.17,4.17,0,0,1,62.87,30.69Z"/><path class="cls-1" d="M36.42,3.78a.49.49,0,0,1,0-.12h2.14a.29.29,0,0,0,0,.13Z"/><path class="cls-2" d="M62.87,27.77a.29.29,0,0,1,.13,0v1.07c0,.07-.09.07-.13,0Z"/><path class="cls-2" d="M62.87,30.69V29.62c0-.07.08-.08.13,0v1.07l-.06,0Z"/><path class="cls-3" d="M63,29.61h-.13v-.78H63Z"/><path class="cls-4" d="M60.94,29.47a23.48,23.48,0,0,1-46.58,4,22.85,22.85,0,0,1,4.54-18.6.69.69,0,0,1,.93-.26A3.94,3.94,0,0,0,25,10a.76.76,0,0,1,.44-1,23.53,23.53,0,0,1,35,15.32A28.44,28.44,0,0,1,60.94,29.47Z"/><path class="cls-4" d="M21.17,12.82a2,2,0,1,1-.05-4,2,2,0,1,1,.05,4Z"/><path d="M39.59,28.93l-5.12-4.57v4.86L29.1,24.35v4.87l-5.21-4.84v.95c0,5.57,0,11.15,0,16.72,0,.66-.14,1-.83.83a2.58,2.58,0,0,0-.68,0c-.35,0-.5-.07-.5-.46,0-7.48,0-15,0-22.62l5.2,4.82V19.81l5.34,4.86V19.86l5.64,5c.16-1.29.33-2.5.48-3.71.37-3,.74-6,1.09-9,.05-.4.17-.57.61-.56,1.73,0,3.46,0,5.19,0,.44,0,.55.16.61.56.59,4.43,1.22,8.86,1.81,13.29.06.41.2.5.57.5,1.32,0,2.65,0,4,0,.43,0,.55.12.55.55q0,7.94,0,15.88c0,.43-.07.62-.57.62C51,43,51,43,51,41.64c0-4.35,0-8.7,0-13,0-.53-.13-.69-.67-.67-1.14,0-2.29,0-3.43,0-.6,0-.75-.19-.82-.73C45.55,23,45,18.87,44.38,14.69c-.14-1.08-.12-1.08-1.19-1.08-1.71,0-1.69,0-1.89,1.64C40.74,19.77,40.17,24.28,39.59,28.93Z"/><path d="M35.37,46.05l-.48-.44C33,43.72,31.12,41.83,29.23,40c-.28-.28-.3-.43,0-.72,1-1.09,1-1.1,2.11,0s2.26,2.2,3.33,3.36c.5.54.76.43,1.21,0,2.71-2.76,5.47-5.47,8.18-8.22.43-.44.66-.51,1.11,0,.84.92.87.89,0,1.79q-4.73,4.71-9.44,9.44A2.78,2.78,0,0,0,35.37,46.05Z"/></svg>