<svg id="Layer_1" data-name="Layer 1" xmlns="http://www.w3.org/2000/svg" width="100" height="100" viewBox="0 0 100 100"><title>improved-security</title><path d="M72.46,31c0,3.3,0,6.61,0,9.91A2,2,0,0,0,73,42.2,33.45,33.45,0,1,1,17,71.83c-1.81-11.37,1.65-21.22,9.81-29.4a2.65,2.65,0,0,0,.68-1.68c.05-6,0-12,0-18A22.46,22.46,0,0,1,45.11.57c12.66-3,25.65,6,27.09,18.9.42,3.79.06,7.67.06,11.51Zm3.83,20.79A30.2,30.2,0,0,0,19.73,67.71c.72,15.7,12.31,27.66,28,29.07a29,29,0,0,0,19.69-5.41,29.68,29.68,0,0,0,9-10c-8.24,0-16.28,0-24.31,0-.77,0-.83.5-1,1A6.32,6.32,0,0,1,43.93,86a6.32,6.32,0,1,1,7-8.84,1.51,1.51,0,0,0,1.68,1.08c7.84,0,15.68,0,23.53,0,2.21,0,1.69.39,2.46-1.72a27.11,27.11,0,0,0,1.62-8.25c-.43,0-.76-.09-1.1-.09-3.54,0-7.07,0-10.61,0a1.28,1.28,0,0,0-1.42,1,6.31,6.31,0,1,1,0-5,1.29,1.29,0,0,0,1.44.92c3.54,0,7.08,0,10.61,0,.34,0,.67,0,1-.06a25.77,25.77,0,0,0-2.28-10H40.22c-.19.42-.34.81-.52,1.19a6.36,6.36,0,1,1,.1-5.32,1.36,1.36,0,0,0,1.52,1q16.91,0,33.8,0Zm-7-12.71c0-.31.07-.53.07-.76,0-5.34,0-10.68,0-16A18.87,18.87,0,0,0,66,11.68a19.29,19.29,0,0,0-35.28,10.1c-.15,5.6,0,11.21,0,16.82a2.76,2.76,0,0,0,.07.45C43.57,31.09,56.35,31.07,69.27,39.06ZM48.44,79.76a3.26,3.26,0,0,0-3.18-3.16A3.33,3.33,0,0,0,42,79.86,3.27,3.27,0,0,0,45.25,83,3.22,3.22,0,0,0,48.44,79.76ZM37.23,53.33A3.27,3.27,0,0,0,34,50.12a3.21,3.21,0,0,0-3.12,3.19A3.16,3.16,0,0,0,34,56.5,3.22,3.22,0,0,0,37.23,53.33ZM61.36,63.42a3.15,3.15,0,0,0-3.2,3.2,3.19,3.19,0,1,0,6.38-.1A3.15,3.15,0,0,0,61.36,63.42Z"/></svg>