<svg id="Layer_1" data-name="Layer 1" xmlns="http://www.w3.org/2000/svg" viewBox="0 0 350.5 351"><defs><style>.cls-1{fill:#a8d7cd;}.cls-2{fill:#00b28f;}.cls-3{fill:#fff;}</style></defs><title>asset-management</title><path class="cls-1" d="M221.2,135.15l-5.6-5.6L296.2,49A175,175,0,0,0,54.3,49l82,82-5.6,5.6-82-82a175,175,0,0,0,0,241.9l80.6-80.6,5.6,5.6-80.6,80.6a175,175,0,0,0,241.9,0L217,222.85l5.6-5.6,79.2,79.2a175,175,0,0,0,0-241.9l-80.6,80.6Z"/><circle id="_Path_" data-name="&lt;Path&gt;" class="cls-1" cx="175.3" cy="175.45" r="167.9"/><path class="cls-2" d="M128,133.75,53.8,59.55a167.88,167.88,0,0,0,0,231.8l74.2-74.2a63.08,63.08,0,0,1,0-83.4Zm89-5.6L291.2,54A167.88,167.88,0,0,0,59.4,54l74.2,74.2a63.08,63.08,0,0,1,83.4,0Zm-83.4,94.6L59.4,297a167.88,167.88,0,0,0,231.8,0L217,222.75a63.08,63.08,0,0,1-83.4,0Zm89-5.6,74.2,74.2a167.88,167.88,0,0,0,0-231.8l-74.2,74.2a63.08,63.08,0,0,1,0,83.4Z"/><path class="cls-3" d="M43.47,196.33a12.84,12.84,0,0,1,2-.14,3.3,3.3,0,0,1,2.19.56,1.8,1.8,0,0,1,.61,1.42,1.88,1.88,0,0,1-1.28,1.77v0a1.79,1.79,0,0,1,1,1.36,13.39,13.39,0,0,0,.56,2H47.14a10.44,10.44,0,0,1-.47-1.67c-.2-.92-.53-1.21-1.27-1.23h-.65v2.9H43.47Zm1.28,3.13h.77c.87,0,1.42-.46,1.42-1.16s-.55-1.14-1.39-1.14a4,4,0,0,0-.8.06Z"/><path class="cls-3" d="M50.31,201.12a1.38,1.38,0,0,0,1.57,1.32,3.8,3.8,0,0,0,1.42-.23l.19.89a4.78,4.78,0,0,1-1.79.32,2.41,2.41,0,0,1-2.63-2.58,2.53,2.53,0,0,1,2.5-2.75,2.22,2.22,0,0,1,2.2,2.48,3.35,3.35,0,0,1,0,.55Zm2.24-.9A1.1,1.1,0,0,0,51.49,199a1.25,1.25,0,0,0-1.18,1.25Z"/><path class="cls-3" d="M55.63,198.2l.83,2.59a12.4,12.4,0,0,1,.34,1.29h0c.09-.42.21-.82.34-1.29L58,198.2h1.37l-2,5.11H56.13l-1.9-5.11Z"/><path class="cls-3" d="M61.06,201.12a1.38,1.38,0,0,0,1.57,1.32,3.8,3.8,0,0,0,1.42-.23l.19.89a4.78,4.78,0,0,1-1.79.32,2.41,2.41,0,0,1-2.63-2.58,2.53,2.53,0,0,1,2.5-2.75,2.21,2.21,0,0,1,2.2,2.48,3.35,3.35,0,0,1,0,.55Zm2.24-.9A1.09,1.09,0,0,0,62.24,199a1.26,1.26,0,0,0-1.18,1.25Z"/><path class="cls-3" d="M65.56,199.72c0-.58,0-1.08,0-1.52h1.13l.07.77h0a1.85,1.85,0,0,1,1.63-.88c.89,0,1.81.57,1.81,2.19v3H68.9v-2.88c0-.74-.27-1.29-1-1.29a1.06,1.06,0,0,0-1,.75,1.37,1.37,0,0,0-.06.42v3h-1.3Z"/><path class="cls-3" d="M76.15,201.78c0,.61,0,1.11,0,1.53H75.05l-.06-.77h0a1.86,1.86,0,0,1-1.64.89c-.93,0-1.78-.56-1.78-2.23v-3h1.29V201c0,.85.27,1.4,1,1.4a1.1,1.1,0,0,0,1-.69,1.29,1.29,0,0,0,.07-.4V198.2h1.3Z"/><path class="cls-3" d="M78.46,201.12A1.38,1.38,0,0,0,80,202.44a3.8,3.8,0,0,0,1.42-.23l.19.89a4.78,4.78,0,0,1-1.79.32,2.41,2.41,0,0,1-2.63-2.58,2.53,2.53,0,0,1,2.5-2.75,2.22,2.22,0,0,1,2.2,2.48,3.35,3.35,0,0,1,0,.55Zm2.24-.9A1.1,1.1,0,0,0,79.64,199a1.25,1.25,0,0,0-1.18,1.25Z"/><path class="cls-3" d="M40.06,207.77a.69.69,0,0,1-.74.7.68.68,0,0,1-.71-.7.69.69,0,0,1,.72-.7A.7.7,0,0,1,40.06,207.77Zm-1.38,6.54V209.2H40v5.11Z"/><path class="cls-3" d="M41.37,210.72c0-.58,0-1.08,0-1.52h1.13l.07.77h0a1.83,1.83,0,0,1,1.62-.88c.9,0,1.82.57,1.82,2.19v3H44.71v-2.88c0-.74-.27-1.29-1-1.29a1.09,1.09,0,0,0-1,.75,1.38,1.38,0,0,0,0,.42v3h-1.3Z"/><path class="cls-3" d="M48.86,207.74v1.46h1.22v1H48.86v2.25c0,.62.16,1,.66,1a1.93,1.93,0,0,0,.5-.06l0,1a2.63,2.63,0,0,1-.93.13A1.5,1.5,0,0,1,48,214a2,2,0,0,1-.4-1.43v-2.4h-.74v-1h.74v-1.15Z"/><path class="cls-3" d="M52,212.12a1.38,1.38,0,0,0,1.57,1.32,3.8,3.8,0,0,0,1.42-.23l.19.89a4.82,4.82,0,0,1-1.79.32,2.41,2.41,0,0,1-2.63-2.58,2.53,2.53,0,0,1,2.5-2.75,2.22,2.22,0,0,1,2.2,2.48,3.35,3.35,0,0,1,0,.55Zm2.24-.9A1.1,1.1,0,0,0,53.16,210,1.25,1.25,0,0,0,52,211.22Z"/><path class="cls-3" d="M61.15,209.2c0,.35,0,.77,0,1.47v2.9a2.47,2.47,0,0,1-2.73,2.94,3.63,3.63,0,0,1-1.78-.41l.28-1a3.05,3.05,0,0,0,1.49.39A1.36,1.36,0,0,0,59.84,214v-.44h0a1.73,1.73,0,0,1-1.49.75,2.27,2.27,0,0,1-2.18-2.5,2.45,2.45,0,0,1,2.32-2.69,1.63,1.63,0,0,1,1.49.79h0l.05-.68Zm-1.33,2.05a1.34,1.34,0,0,0,0-.35,1.08,1.08,0,0,0-1.05-.83c-.73,0-1.26.63-1.26,1.67,0,.87.44,1.58,1.25,1.58a1.11,1.11,0,0,0,1.05-.78,2.4,2.4,0,0,0,0-.46Z"/><path class="cls-3" d="M62.5,210.85c0-.69,0-1.19,0-1.65h1.13l0,1h0a1.51,1.51,0,0,1,1.4-1.09,1.39,1.39,0,0,1,.3,0v1.21a1.84,1.84,0,0,0-.38,0,1.14,1.14,0,0,0-1.15,1,2.25,2.25,0,0,0,0,.4v2.64H62.5Z"/><path class="cls-3" d="M69.11,214.31l-.08-.56h0a1.92,1.92,0,0,1-1.52.68,1.52,1.52,0,0,1-1.6-1.52c0-1.29,1.14-1.95,3-1.93v-.09c0-.33-.14-.89-1-.89a2.69,2.69,0,0,0-1.37.38l-.26-.84a3.7,3.7,0,0,1,1.85-.45,1.91,1.91,0,0,1,2.11,2.15v1.85a7.11,7.11,0,0,0,.08,1.22Zm-.17-2.49c-.91,0-1.78.17-1.78,1a.68.68,0,0,0,.73.74,1,1,0,0,0,1-.71,1,1,0,0,0,0-.28Z"/><path class="cls-3" d="M73.05,207.74v1.46h1.23v1H73.05v2.25c0,.62.17,1,.66,1a1.93,1.93,0,0,0,.5-.06l0,1a2.59,2.59,0,0,1-.93.13,1.5,1.5,0,0,1-1.11-.42,2,2,0,0,1-.4-1.43v-2.4h-.74v-1h.74v-1.15Z"/><path class="cls-3" d="M76.63,207.77a.69.69,0,0,1-.74.7.68.68,0,0,1-.71-.7.73.73,0,0,1,1.45,0Zm-1.38,6.54V209.2h1.31v5.11Z"/><path class="cls-3" d="M82.8,211.71a2.53,2.53,0,0,1-2.62,2.72,2.47,2.47,0,0,1-2.56-2.64,2.52,2.52,0,0,1,2.64-2.7A2.45,2.45,0,0,1,82.8,211.71Zm-3.85,0c0,1,.48,1.74,1.27,1.74s1.25-.73,1.25-1.76c0-.8-.36-1.71-1.24-1.71S79,210.91,79,211.76Z"/><path class="cls-3" d="M83.86,210.72c0-.58,0-1.08,0-1.52H85L85,210h0a1.85,1.85,0,0,1,1.63-.88c.89,0,1.81.57,1.81,2.19v3H87.2v-2.88c0-.74-.27-1.29-1-1.29a1.07,1.07,0,0,0-1,.75,1.38,1.38,0,0,0,0,.42v3H83.86Z"/><path class="cls-3" d="M114.91,313.33a13.7,13.7,0,0,1,2.06-.14,4.35,4.35,0,0,1,2.89.81,3.19,3.19,0,0,1,1.1,2.61,3.66,3.66,0,0,1-1.1,2.81,4.74,4.74,0,0,1-3.2,1,12.66,12.66,0,0,1-1.75-.1Zm1.29,6a5.17,5.17,0,0,0,.72,0,2.42,2.42,0,0,0,2.67-2.71,2.24,2.24,0,0,0-2.5-2.46,3.66,3.66,0,0,0-.89.08Z"/><path class="cls-3" d="M123.41,313.77a.69.69,0,0,1-.74.7.68.68,0,0,1-.71-.7.69.69,0,0,1,.72-.7A.7.7,0,0,1,123.41,313.77ZM122,320.31V315.2h1.3v5.11Z"/><path class="cls-3" d="M129.39,315.2c0,.35,0,.77,0,1.47v2.9a2.47,2.47,0,0,1-2.73,2.94,3.7,3.7,0,0,1-1.79-.41l.29-1a3.05,3.05,0,0,0,1.49.39,1.36,1.36,0,0,0,1.47-1.54v-.44h0a1.73,1.73,0,0,1-1.49.75,2.27,2.27,0,0,1-2.18-2.5,2.45,2.45,0,0,1,2.32-2.69,1.6,1.6,0,0,1,1.48.79h0l.05-.68Zm-1.33,2.05a1.34,1.34,0,0,0,0-.35,1.08,1.08,0,0,0-1.05-.83c-.73,0-1.26.63-1.26,1.67,0,.87.44,1.58,1.25,1.58a1.11,1.11,0,0,0,1-.78,2.4,2.4,0,0,0,.05-.46Z"/><path class="cls-3" d="M132.11,313.77a.73.73,0,0,1-1.45,0,.7.7,0,0,1,.73-.7A.69.69,0,0,1,132.11,313.77Zm-1.37,6.54V315.2H132v5.11Z"/><path class="cls-3" d="M134.9,313.74v1.46h1.23v1H134.9v2.25c0,.62.17.95.67.95a2,2,0,0,0,.5-.06l0,1a2.63,2.63,0,0,1-.93.13A1.52,1.52,0,0,1,134,320a2.05,2.05,0,0,1-.4-1.43v-2.4h-.73v-1h.73v-1.15Z"/><path class="cls-3" d="M140,320.31l-.09-.56h0a1.89,1.89,0,0,1-1.51.68,1.52,1.52,0,0,1-1.61-1.52c0-1.29,1.15-2,3-1.93v-.09c0-.33-.14-.89-1-.89a2.72,2.72,0,0,0-1.38.38l-.25-.84a3.7,3.7,0,0,1,1.85-.45,1.91,1.91,0,0,1,2.11,2.15v1.85a8.45,8.45,0,0,0,.07,1.22Zm-.17-2.49c-.92,0-1.79.17-1.79.95a.69.69,0,0,0,.74.74,1.06,1.06,0,0,0,1-.71,1,1,0,0,0,0-.28Z"/><path class="cls-3" d="M142.44,312.86h1.31v7.45h-1.31Z"/><path class="cls-3" d="M147.32,316.85c0-.69,0-1.19,0-1.65h1.13l0,1h0a1.51,1.51,0,0,1,1.4-1.09,1.39,1.39,0,0,1,.3,0v1.21a1.84,1.84,0,0,0-.38,0,1.13,1.13,0,0,0-1.15,1,2.25,2.25,0,0,0,0,.4v2.64h-1.29Z"/><path class="cls-3" d="M152.43,313.77a.69.69,0,0,1-.74.7.68.68,0,0,1-.71-.7.69.69,0,0,1,.72-.7A.7.7,0,0,1,152.43,313.77Zm-1.38,6.54V315.2h1.31v5.11Z"/><path class="cls-3" d="M158.41,315.2c0,.35,0,.77,0,1.47v2.9a2.46,2.46,0,0,1-2.73,2.94,3.63,3.63,0,0,1-1.78-.41l.28-1a3.08,3.08,0,0,0,1.49.39A1.36,1.36,0,0,0,157.1,320v-.44h0a1.72,1.72,0,0,1-1.49.75,2.27,2.27,0,0,1-2.17-2.5,2.44,2.44,0,0,1,2.32-2.69,1.62,1.62,0,0,1,1.48.79h0l0-.68Zm-1.33,2.05a1.34,1.34,0,0,0,0-.35,1.08,1.08,0,0,0-1-.83c-.73,0-1.26.63-1.26,1.67,0,.87.44,1.58,1.25,1.58a1.11,1.11,0,0,0,1.05-.78,2.4,2.4,0,0,0,.05-.46Z"/><path class="cls-3" d="M159.76,312.86h1.3v3h0a1.86,1.86,0,0,1,1.52-.81c.87,0,1.79.57,1.79,2.21v3H163.1v-2.86c0-.75-.28-1.3-1-1.3a1.06,1.06,0,0,0-1,.72,1.15,1.15,0,0,0-.05.39v3.05h-1.3Z"/><path class="cls-3" d="M167.24,313.74v1.46h1.23v1h-1.23v2.25c0,.62.17.95.67.95a2,2,0,0,0,.5-.06l0,1a2.63,2.63,0,0,1-.93.13,1.52,1.52,0,0,1-1.12-.42,2.05,2.05,0,0,1-.4-1.43v-2.4h-.73v-1H166v-1.15Z"/><path class="cls-3" d="M169.39,319.13a2.85,2.85,0,0,0,1.31.37c.57,0,.82-.24.82-.57s-.21-.53-.84-.75c-1-.34-1.42-.89-1.41-1.49a1.71,1.71,0,0,1,1.93-1.6,3,3,0,0,1,1.36.3l-.26.91a2.37,2.37,0,0,0-1.08-.29c-.46,0-.71.22-.71.53s.24.49.89.72c.93.33,1.36.81,1.37,1.56,0,.93-.73,1.6-2.08,1.6a3.33,3.33,0,0,1-1.56-.36Z"/><path class="cls-3" d="M176,316.72c0-.58,0-1.08,0-1.52h1.11l.05.76h0a1.76,1.76,0,0,1,1.57-.87,1.47,1.47,0,0,1,1.42.94h0a2,2,0,0,1,.63-.64,1.7,1.7,0,0,1,1-.3c.85,0,1.71.57,1.71,2.21v3h-1.26v-2.82c0-.85-.3-1.35-.91-1.35a1,1,0,0,0-.91.68,1.86,1.86,0,0,0-.06.43v3.06h-1.26v-3c0-.71-.28-1.21-.88-1.21a1,1,0,0,0-.93.73,1.16,1.16,0,0,0-.07.42v3H176Z"/><path class="cls-3" d="M187.78,320.31l-.08-.56h0a1.91,1.91,0,0,1-1.52.68,1.52,1.52,0,0,1-1.6-1.52c0-1.29,1.14-2,3-1.93v-.09c0-.33-.13-.89-1-.89a2.69,2.69,0,0,0-1.37.38l-.25-.84a3.66,3.66,0,0,1,1.84-.45,1.91,1.91,0,0,1,2.11,2.15v1.85a7.11,7.11,0,0,0,.08,1.22Zm-.17-2.49c-.91,0-1.78.17-1.78.95a.68.68,0,0,0,.73.74,1,1,0,0,0,1-.71,1,1,0,0,0,0-.28Z"/><path class="cls-3" d="M190.24,316.72c0-.58,0-1.08,0-1.52h1.13l.06.77h0a1.86,1.86,0,0,1,1.63-.88c.89,0,1.82.57,1.82,2.19v3h-1.29v-2.88c0-.74-.28-1.29-1-1.29a1.09,1.09,0,0,0-1,.75,1.38,1.38,0,0,0-.05.42v3h-1.3Z"/><path class="cls-3" d="M199.12,320.31l-.08-.56h0a1.91,1.91,0,0,1-1.52.68,1.51,1.51,0,0,1-1.6-1.52c0-1.29,1.14-2,3-1.93v-.09c0-.33-.13-.89-1-.89a2.69,2.69,0,0,0-1.37.38l-.26-.84a3.7,3.7,0,0,1,1.85-.45,1.91,1.91,0,0,1,2.11,2.15v1.85a7.11,7.11,0,0,0,.08,1.22Zm-.17-2.49c-.91,0-1.78.17-1.78.95a.68.68,0,0,0,.73.74,1,1,0,0,0,1-.71,1,1,0,0,0,0-.28Z"/><path class="cls-3" d="M206.25,315.2c0,.35,0,.77,0,1.47v2.9a2.47,2.47,0,0,1-2.73,2.94,3.67,3.67,0,0,1-1.79-.41l.29-1a3.05,3.05,0,0,0,1.49.39,1.36,1.36,0,0,0,1.47-1.54v-.44h0a1.73,1.73,0,0,1-1.49.75,2.27,2.27,0,0,1-2.18-2.5,2.44,2.44,0,0,1,2.32-2.69,1.6,1.6,0,0,1,1.48.79h0l.06-.68Zm-1.33,2.05a1.34,1.34,0,0,0,0-.35,1.08,1.08,0,0,0-1-.83c-.73,0-1.26.63-1.26,1.67,0,.87.44,1.58,1.24,1.58a1.1,1.1,0,0,0,1.05-.78,1.82,1.82,0,0,0,.06-.46Z"/><path class="cls-3" d="M208.51,318.12a1.38,1.38,0,0,0,1.57,1.32,3.8,3.8,0,0,0,1.42-.23l.19.89a4.78,4.78,0,0,1-1.79.32,2.42,2.42,0,0,1-2.63-2.58,2.53,2.53,0,0,1,2.5-2.75,2.21,2.21,0,0,1,2.2,2.48,3.35,3.35,0,0,1,0,.55Zm2.24-.9a1.09,1.09,0,0,0-1.06-1.25,1.26,1.26,0,0,0-1.18,1.25Z"/><path class="cls-3" d="M213,316.72c0-.58,0-1.08,0-1.52h1.11l.06.76h0a1.76,1.76,0,0,1,1.57-.87,1.47,1.47,0,0,1,1.42.94h0a2,2,0,0,1,.63-.64,1.7,1.7,0,0,1,1-.3c.85,0,1.71.57,1.71,2.21v3h-1.26v-2.82c0-.85-.29-1.35-.91-1.35a1,1,0,0,0-.91.68,1.86,1.86,0,0,0-.06.43v3.06h-1.26v-3c0-.71-.28-1.21-.88-1.21a1.17,1.17,0,0,0-1,1.15v3H213Z"/><path class="cls-3" d="M222.83,318.12a1.39,1.39,0,0,0,1.57,1.32,3.8,3.8,0,0,0,1.42-.23l.19.89a4.76,4.76,0,0,1-1.78.32,2.42,2.42,0,0,1-2.64-2.58,2.53,2.53,0,0,1,2.5-2.75,2.21,2.21,0,0,1,2.2,2.48,3.35,3.35,0,0,1,0,.55Zm2.25-.9A1.1,1.1,0,0,0,224,316a1.26,1.26,0,0,0-1.19,1.25Z"/><path class="cls-3" d="M227.33,316.72c0-.58,0-1.08,0-1.52h1.14l.06.77h0a1.85,1.85,0,0,1,1.63-.88c.89,0,1.81.57,1.81,2.19v3h-1.29v-2.88c0-.74-.27-1.29-1-1.29a1.08,1.08,0,0,0-1,.75,1.38,1.38,0,0,0-.05.42v3h-1.31Z"/><path class="cls-3" d="M234.82,313.74v1.46h1.23v1h-1.23v2.25c0,.62.17.95.66.95a2.09,2.09,0,0,0,.51-.06l0,1a2.69,2.69,0,0,1-.94.13A1.5,1.5,0,0,1,234,320a2.05,2.05,0,0,1-.4-1.43v-2.4h-.73v-1h.73v-1.15Z"/><path class="cls-3" d="M271,199.1a4.41,4.41,0,0,1-1.83.32,3.34,3.34,0,0,1-3.61-3.56,3.56,3.56,0,0,1,3.78-3.74,4,4,0,0,1,1.72.32l-.28,1a3.41,3.41,0,0,0-1.39-.28,2.36,2.36,0,0,0-2.47,2.61,2.32,2.32,0,0,0,2.46,2.55,3.73,3.73,0,0,0,1.41-.26Z"/><path class="cls-3" d="M276.86,196.71a2.53,2.53,0,0,1-2.62,2.72,2.47,2.47,0,0,1-2.56-2.64,2.52,2.52,0,0,1,2.64-2.7A2.45,2.45,0,0,1,276.86,196.71Zm-3.85,0c0,1,.48,1.74,1.27,1.74s1.25-.73,1.25-1.76c0-.8-.36-1.71-1.24-1.71S273,195.91,273,196.76Z"/><path class="cls-3" d="M277.92,195.72c0-.58,0-1.08,0-1.52H279l.06.77h0a1.85,1.85,0,0,1,1.63-.88c.89,0,1.81.57,1.81,2.19v3h-1.29v-2.88c0-.74-.27-1.29-1-1.29a1.07,1.07,0,0,0-1,.75,1.38,1.38,0,0,0,0,.42v3h-1.31Z"/><path class="cls-3" d="M285.41,192.74v1.46h1.23v1h-1.23v2.25c0,.62.17,1,.66,1a2.09,2.09,0,0,0,.51-.06l0,1a2.69,2.69,0,0,1-.94.13,1.5,1.5,0,0,1-1.11-.42,2.05,2.05,0,0,1-.4-1.43v-2.4h-.73v-1h.73v-1.15Z"/><path class="cls-3" d="M288.53,197.12a1.38,1.38,0,0,0,1.57,1.32,3.8,3.8,0,0,0,1.42-.23l.19.89a4.78,4.78,0,0,1-1.79.32,2.42,2.42,0,0,1-2.63-2.58,2.53,2.53,0,0,1,2.5-2.75,2.21,2.21,0,0,1,2.2,2.48,3.35,3.35,0,0,1,0,.55Zm2.25-.9a1.1,1.1,0,0,0-1.07-1.25,1.26,1.26,0,0,0-1.18,1.25Z"/><path class="cls-3" d="M293,195.72c0-.58,0-1.08,0-1.52h1.14l.06.77h0a1.85,1.85,0,0,1,1.63-.88c.89,0,1.81.57,1.81,2.19v3h-1.29v-2.88c0-.74-.27-1.29-1-1.29a1.07,1.07,0,0,0-1,.75,1.37,1.37,0,0,0-.06.42v3H293Z"/><path class="cls-3" d="M300.52,192.74v1.46h1.23v1h-1.23v2.25c0,.62.17,1,.66,1a1.93,1.93,0,0,0,.5-.06l0,1a2.69,2.69,0,0,1-.94.13,1.5,1.5,0,0,1-1.11-.42,2.05,2.05,0,0,1-.4-1.43v-2.4h-.74v-1h.74v-1.15Z"/><path class="cls-3" d="M258.07,202.86h1.3v7.45h-1.3Z"/><path class="cls-3" d="M265.63,207.71a2.54,2.54,0,0,1-2.63,2.72,2.47,2.47,0,0,1-2.56-2.64,2.52,2.52,0,0,1,2.65-2.7A2.45,2.45,0,0,1,265.63,207.71Zm-3.85,0c0,1,.48,1.74,1.26,1.74s1.25-.73,1.25-1.76c0-.8-.35-1.71-1.23-1.71S261.78,206.91,261.78,207.76Z"/><path class="cls-3" d="M270.45,210.16a3.9,3.9,0,0,1-1.45.26,2.46,2.46,0,0,1-2.64-2.6,2.64,2.64,0,0,1,2.85-2.73,3.2,3.2,0,0,1,1.25.24l-.23,1a2.37,2.37,0,0,0-1-.2,1.66,1.66,0,0,0,0,3.31,2.45,2.45,0,0,0,1-.2Z"/><path class="cls-3" d="M274.28,210.31l-.08-.56h0a1.89,1.89,0,0,1-1.51.68,1.51,1.51,0,0,1-1.6-1.52c0-1.29,1.14-1.95,3-1.93v-.09c0-.33-.14-.89-1-.89a2.69,2.69,0,0,0-1.37.38l-.26-.84a3.7,3.7,0,0,1,1.85-.45,1.91,1.91,0,0,1,2.11,2.15v1.85a7.11,7.11,0,0,0,.08,1.22Zm-.17-2.49c-.91,0-1.78.17-1.78,1a.68.68,0,0,0,.73.74,1,1,0,0,0,1-.71,1,1,0,0,0,0-.28Z"/><path class="cls-3" d="M276.74,202.86H278v7.45h-1.3Z"/><path class="cls-3" d="M280.81,203.77a.73.73,0,0,1-1.45,0,.7.7,0,0,1,.73-.7A.69.69,0,0,1,280.81,203.77Zm-1.37,6.54V205.2h1.3v5.11Z"/><path class="cls-3" d="M281.64,209.57l1.92-2.46c.26-.31.48-.57.76-.86v0h-2.49v-1h4.06V206l-1.88,2.4c-.25.31-.49.6-.75.87v0H286v1h-4.32Z"/><path class="cls-3" d="M289.72,210.31l-.08-.56h0a1.9,1.9,0,0,1-1.51.68,1.52,1.52,0,0,1-1.61-1.52c0-1.29,1.15-1.95,3-1.93v-.09c0-.33-.14-.89-1-.89a2.72,2.72,0,0,0-1.38.38l-.25-.84a3.7,3.7,0,0,1,1.85-.45,1.92,1.92,0,0,1,2.11,2.15v1.85a8.45,8.45,0,0,0,.07,1.22Zm-.16-2.49c-.92,0-1.79.17-1.79,1a.69.69,0,0,0,.74.74,1.06,1.06,0,0,0,1-.71,1,1,0,0,0,0-.28Z"/><path class="cls-3" d="M293.66,203.74v1.46h1.23v1h-1.23v2.25c0,.62.17,1,.66,1a2.09,2.09,0,0,0,.51-.06l0,1a2.67,2.67,0,0,1-.93.13,1.51,1.51,0,0,1-1.12-.42,2.05,2.05,0,0,1-.4-1.43v-2.4h-.73v-1h.73v-1.15Z"/><path class="cls-3" d="M297.24,203.77a.73.73,0,0,1-1.45,0,.7.7,0,0,1,.73-.7A.69.69,0,0,1,297.24,203.77Zm-1.37,6.54V205.2h1.3v5.11Z"/><path class="cls-3" d="M303.42,207.71a2.54,2.54,0,0,1-2.63,2.72,2.47,2.47,0,0,1-2.56-2.64,2.52,2.52,0,0,1,2.65-2.7A2.45,2.45,0,0,1,303.42,207.71Zm-3.86,0c0,1,.49,1.74,1.27,1.74s1.25-.73,1.25-1.76c0-.8-.35-1.71-1.24-1.71S299.56,206.91,299.56,207.76Z"/><path class="cls-3" d="M304.48,206.72c0-.58,0-1.08,0-1.52h1.13l.06.77h0a1.85,1.85,0,0,1,1.63-.88c.89,0,1.82.57,1.82,2.19v3h-1.29v-2.88c0-.74-.28-1.29-1-1.29a1.09,1.09,0,0,0-1,.75,1.38,1.38,0,0,0-.05.42v3h-1.3Z"/><path class="cls-3" d="M128.58,93.43c0-.92-.09-2-.08-3h0c-.23.86-.53,1.81-.84,2.7l-1,3.07h-1l-.94-3c-.28-.91-.53-1.87-.72-2.75h0c0,.92-.07,2-.13,3l-.15,2.84h-1.21l.47-7.07h1.7l.93,2.84c.25.83.47,1.67.65,2.46h0c.19-.77.43-1.64.7-2.47l1-2.83h1.68l.41,7.07h-1.26Z"/><path class="cls-3" d="M132.15,94.12a1.39,1.39,0,0,0,1.58,1.32,3.71,3.71,0,0,0,1.41-.23l.19.89a4.76,4.76,0,0,1-1.78.32,2.42,2.42,0,0,1-2.64-2.58,2.54,2.54,0,0,1,2.5-2.75,2.22,2.22,0,0,1,2.21,2.48,3.35,3.35,0,0,1,0,.55Zm2.25-.9A1.1,1.1,0,0,0,133.34,92a1.27,1.27,0,0,0-1.19,1.25Z"/><path class="cls-3" d="M138.14,89.74V91.2h1.23v1h-1.23v2.25c0,.62.17,1,.66,1a1.93,1.93,0,0,0,.5-.06l0,1a2.63,2.63,0,0,1-.93.13,1.5,1.5,0,0,1-1.11-.42,2,2,0,0,1-.4-1.43v-2.4h-.74v-1h.74V90.05Z"/><path class="cls-3" d="M143.22,96.31l-.08-.56h0a1.89,1.89,0,0,1-1.51.68,1.51,1.51,0,0,1-1.6-1.52c0-1.29,1.14-2,3-1.93v-.09c0-.33-.14-.89-1-.89a2.69,2.69,0,0,0-1.37.38l-.26-.84a3.7,3.7,0,0,1,1.85-.45,1.91,1.91,0,0,1,2.11,2.15v1.85a8.45,8.45,0,0,0,.07,1.22Zm-.17-2.49c-.91,0-1.78.17-1.78,1a.68.68,0,0,0,.73.74,1,1,0,0,0,1-.71,1,1,0,0,0,0-.28Z"/><path class="cls-3" d="M150.39,88.86v6c0,.52,0,1.09,0,1.43h-1.15l-.05-.8h0a1.86,1.86,0,0,1-1.67.92,2.34,2.34,0,0,1-2.19-2.61,2.43,2.43,0,0,1,2.29-2.73,1.63,1.63,0,0,1,1.44.67h0v-2.9Zm-1.29,4.47a1.84,1.84,0,0,0,0-.33,1.14,1.14,0,0,0-1.11-.92c-.83,0-1.3.74-1.3,1.69s.47,1.62,1.29,1.62a1.15,1.15,0,0,0,1.11-.91,1.53,1.53,0,0,0,0-.38Z"/><path class="cls-3" d="M154.65,96.31l-.08-.56h0a1.9,1.9,0,0,1-1.51.68,1.52,1.52,0,0,1-1.61-1.52c0-1.29,1.14-2,3-1.93v-.09c0-.33-.14-.89-1-.89a2.72,2.72,0,0,0-1.38.38l-.25-.84a3.7,3.7,0,0,1,1.85-.45,1.92,1.92,0,0,1,2.11,2.15v1.85a8.45,8.45,0,0,0,.07,1.22Zm-.16-2.49c-.92,0-1.79.17-1.79,1a.69.69,0,0,0,.74.74,1,1,0,0,0,1-.71.72.72,0,0,0,.05-.28Z"/><path class="cls-3" d="M158.59,89.74V91.2h1.23v1h-1.23v2.25c0,.62.17,1,.66,1a2.09,2.09,0,0,0,.51-.06l0,1a2.69,2.69,0,0,1-.94.13,1.5,1.5,0,0,1-1.11-.42,2.05,2.05,0,0,1-.4-1.43v-2.4h-.73v-1h.73V90.05Z"/><path class="cls-3" d="M163.67,96.31l-.08-.56h0a1.9,1.9,0,0,1-1.51.68,1.52,1.52,0,0,1-1.61-1.52c0-1.29,1.14-2,3-1.93v-.09c0-.33-.13-.89-1-.89a2.71,2.71,0,0,0-1.37.38l-.25-.84a3.7,3.7,0,0,1,1.85-.45,1.92,1.92,0,0,1,2.11,2.15v1.85a8.45,8.45,0,0,0,.07,1.22Zm-.16-2.49c-.92,0-1.79.17-1.79,1a.69.69,0,0,0,.74.74,1,1,0,0,0,1-.71.72.72,0,0,0,0-.28Z"/><path class="cls-3" d="M168.3,92.72c0-.58,0-1.08,0-1.52h1.12l.05.76h0a1.76,1.76,0,0,1,1.57-.87,1.46,1.46,0,0,1,1.42.94h0a2,2,0,0,1,.63-.64,1.72,1.72,0,0,1,1-.3c.85,0,1.71.57,1.71,2.21v3h-1.26V93.49c0-.85-.29-1.35-.91-1.35a1,1,0,0,0-.9.68,1.43,1.43,0,0,0-.07.43v3.06h-1.26v-3c0-.71-.28-1.21-.88-1.21a1.17,1.17,0,0,0-1,1.15v3H168.3Z"/><path class="cls-3" d="M180.08,96.31l-.08-.56h0a1.9,1.9,0,0,1-1.51.68,1.52,1.52,0,0,1-1.61-1.52c0-1.29,1.15-2,3-1.93v-.09c0-.33-.13-.89-1-.89a2.72,2.72,0,0,0-1.38.38l-.25-.84a3.7,3.7,0,0,1,1.85-.45,1.92,1.92,0,0,1,2.11,2.15v1.85a8.45,8.45,0,0,0,.07,1.22Zm-.16-2.49c-.92,0-1.79.17-1.79,1a.69.69,0,0,0,.74.74,1.06,1.06,0,0,0,1-.71,1,1,0,0,0,0-.28Z"/><path class="cls-3" d="M182.54,92.72c0-.58,0-1.08,0-1.52h1.13l.07.77h0a1.85,1.85,0,0,1,1.63-.88c.89,0,1.81.57,1.81,2.19v3h-1.29V93.43c0-.74-.27-1.29-1-1.29a1.06,1.06,0,0,0-1,.75,1.12,1.12,0,0,0-.06.42v3h-1.3Z"/><path class="cls-3" d="M191.42,96.31l-.08-.56h0a1.9,1.9,0,0,1-1.51.68,1.52,1.52,0,0,1-1.61-1.52c0-1.29,1.15-2,3-1.93v-.09c0-.33-.13-.89-1-.89a2.72,2.72,0,0,0-1.38.38l-.25-.84a3.7,3.7,0,0,1,1.85-.45,1.92,1.92,0,0,1,2.11,2.15v1.85a8.45,8.45,0,0,0,.07,1.22Zm-.16-2.49c-.92,0-1.79.17-1.79,1a.69.69,0,0,0,.74.74,1,1,0,0,0,1-.71.72.72,0,0,0,0-.28Z"/><path class="cls-3" d="M198.55,91.2c0,.35,0,.77,0,1.47v2.9a2.46,2.46,0,0,1-2.73,2.94A3.63,3.63,0,0,1,194,98.1l.28-1a3.08,3.08,0,0,0,1.49.39A1.36,1.36,0,0,0,197.24,96v-.44h0a1.72,1.72,0,0,1-1.49.75,2.27,2.27,0,0,1-2.17-2.5,2.44,2.44,0,0,1,2.32-2.69,1.61,1.61,0,0,1,1.48.79h0l.05-.68Zm-1.33,2a1.34,1.34,0,0,0,0-.35,1.08,1.08,0,0,0-1.05-.83c-.73,0-1.26.63-1.26,1.67,0,.87.44,1.58,1.25,1.58a1.11,1.11,0,0,0,1-.78,2.4,2.4,0,0,0,.05-.46Z"/><path class="cls-3" d="M200.81,94.12a1.39,1.39,0,0,0,1.58,1.32,3.74,3.74,0,0,0,1.41-.23l.19.89a4.76,4.76,0,0,1-1.78.32,2.42,2.42,0,0,1-2.64-2.58,2.53,2.53,0,0,1,2.5-2.75,2.22,2.22,0,0,1,2.21,2.48,3.12,3.12,0,0,1-.05.55Zm2.25-.9A1.1,1.1,0,0,0,202,92a1.26,1.26,0,0,0-1.19,1.25Z"/><path class="cls-3" d="M205.32,92.72c0-.58,0-1.08,0-1.52h1.12l.05.76h0a1.77,1.77,0,0,1,1.58-.87,1.46,1.46,0,0,1,1.41.94h0a2,2,0,0,1,.63-.64,1.72,1.72,0,0,1,1-.3c.85,0,1.71.57,1.71,2.21v3h-1.26V93.49c0-.85-.29-1.35-.91-1.35a1,1,0,0,0-.9.68,1.84,1.84,0,0,0-.07.43v3.06h-1.25v-3c0-.71-.29-1.21-.89-1.21a1,1,0,0,0-.92.73,1.16,1.16,0,0,0-.07.42v3h-1.26Z"/><path class="cls-3" d="M215.13,94.12a1.4,1.4,0,0,0,1.58,1.32,3.8,3.8,0,0,0,1.42-.23l.18.89a4.76,4.76,0,0,1-1.78.32,2.42,2.42,0,0,1-2.64-2.58,2.54,2.54,0,0,1,2.5-2.75,2.22,2.22,0,0,1,2.21,2.48,3.35,3.35,0,0,1,0,.55Zm2.25-.9A1.1,1.1,0,0,0,216.32,92a1.27,1.27,0,0,0-1.19,1.25Z"/><path class="cls-3" d="M219.64,92.72c0-.58,0-1.08,0-1.52h1.13l.06.77h0a1.85,1.85,0,0,1,1.63-.88c.89,0,1.82.57,1.82,2.19v3H223V93.43c0-.74-.28-1.29-1-1.29a1.09,1.09,0,0,0-1,.75,1.38,1.38,0,0,0-.05.42v3h-1.3Z"/><path class="cls-3" d="M227.13,89.74V91.2h1.22v1h-1.22v2.25c0,.62.16,1,.66,1a2,2,0,0,0,.5-.06l0,1a2.63,2.63,0,0,1-.93.13,1.51,1.51,0,0,1-1.12-.42,2.06,2.06,0,0,1-.39-1.43v-2.4h-.74v-1h.74V90.05Z"/><path class="cls-3" d="M308.39,151.2c-.77.43-1.54.84-2.3,1.29l-6.22,3.72v-9.82l3.24,1.78c3.53-5,4.09-10.35,1-15.5a13.54,13.54,0,0,0-24.8,4.23l5.25,3a7.91,7.91,0,0,1,3.94-6.78,7.72,7.72,0,0,1,6.17-.84,8,8,0,1,1-5.37,15c.16.77.33,1.5.46,2.24a15,15,0,0,1-1.42,9.12,1.09,1.09,0,0,0,0,.85c1.28,2.27,2.59,4.53,3.89,6.79.07.11.15.21.27.4l2.72-4.71c.69-1.18,1.36-2.36,2.05-3.53.42-.74,1-1,1.62-.61s.66.94.24,1.67q-2.78,4.83-5.57,9.66c-.61,1.05-1.53,1.05-2.14,0q-2.08-3.58-4.15-7.19c-.12-.21-.26-.42-.43-.7L283.5,167q-4.12,7.16-8.26,14.32c-.68,1.19-1.55,1.19-2.24,0q-6-10.42-12-20.86a17.13,17.13,0,0,1-2.47-7.48c0-.08-.07-.16-.1-.24v-1.5c0-.08.1-.15.1-.23a16,16,0,0,1,2.08-6.91.88.88,0,0,0-.09-.75,4.32,4.32,0,0,1,6.33-5.76.71.71,0,0,0,.89.13,15.16,15.16,0,0,1,7.68-1.35c.58,0,1.16.1,1.72.15a15.77,15.77,0,0,1,20.25-11.66,15.13,15.13,0,0,1,9.32,8.13c2.75,5.72,1.78,11.13-1.66,16.31l3.38,1.8Zm-34.28,27.72.37-.6,6.16-10.66c1.87-3.24,3.82-6.44,5.59-9.73a13.06,13.06,0,0,0-3.61-16.57,13.27,13.27,0,0,0-13.85-1.84c-.32.13-.55.23-.49.72a4.24,4.24,0,0,1-5.16,4.79.64.64,0,0,0-.84.39,13.25,13.25,0,0,0,.26,13.43c2.46,4.34,5,8.65,7.47,13C271.35,174.16,272.71,176.49,274.11,178.92Zm18.36-33.15A5.81,5.81,0,1,0,286.7,140,5.76,5.76,0,0,0,292.47,145.77Zm-30.58-4.94A2.14,2.14,0,0,0,264,143a2.17,2.17,0,1,0,0-4.34A2.14,2.14,0,0,0,261.89,140.83Z"/><path class="cls-3" d="M266.25,152.17a7.94,7.94,0,1,1,7.95,8A7.88,7.88,0,0,1,266.25,152.17Zm2.1,0a5.84,5.84,0,1,0,5.89-5.8A5.88,5.88,0,0,0,268.35,152.16Z"/><path class="cls-3" d="M152.33,67.12c0,2.41,0,4.89,0,7.38a1.64,1.64,0,0,0,.77,1,13.52,13.52,0,0,0,4.7,1.77c1.28.29,2.58.51,3.94.77l-.28,2c-3.19-.5-6.34-1-9.17-2.59a3.73,3.73,0,0,1-2.08-3.61c.07-6.36,0-12.72,0-19.08q0-10.8,0-21.61a2.87,2.87,0,0,1,.86-2.09,9.06,9.06,0,0,1,3.67-2,.85.85,0,0,0,.69-.83,4.11,4.11,0,0,1,7.84-1.35.6.6,0,0,0,.73.4,75.56,75.56,0,0,1,14.81.12,32.11,32.11,0,0,1,9.23,2.07,12,12,0,0,1,2.34,1.38,3,3,0,0,1,1.15,2.64c0,2.69,0,5.39,0,8.08,0,2.23,0,4.46,0,6.69a.76.76,0,0,0,.63.86c.83.29,1.62.71,2.44,1.06a.56.56,0,0,1,.39.74c0,.06,0,.13,0,.2a2.13,2.13,0,0,0,.71,2.14,2.53,2.53,0,0,0,2.61.91.73.73,0,0,1,.6.33q.71,1.56,1.29,3.15c.07.19-.11.47-.2.7a.51.51,0,0,1-.2.18,1.7,1.7,0,0,0-.91,2,.29.29,0,0,1,0,.13,1.63,1.63,0,0,0,.92,1.94.76.76,0,0,1,.35,1.09c-.4.91-.76,1.85-1.13,2.78a.68.68,0,0,1-.9.49c-1-.3-1.66.17-2.4.87a2.1,2.1,0,0,0-.72,2.27.66.66,0,0,1-.48.89c-.83.35-1.66.74-2.5,1.07-.32.12-.48.26-.46.63s0,1,0,1.5a3.22,3.22,0,0,1-1.52,3,13,13,0,0,1-5.22,2.1c-2.86.51-5.76.85-8.64,1.26-.34.05-.68.06-1.07.1v3.37l-7.87-4.53,7.83-4.53v3.6c1-.07,1.88-.12,2.78-.21a35.78,35.78,0,0,0,9.2-1.9l.45-.17c1.44-.51,2.3-1.36,2-3a14.67,14.67,0,0,1,0-2.4c-.74,0-1.42,0-2.09,0-.22,0-.45.26-.61.45-.95,1.13-.95,1.13-2.35.64l-.64-.25c-1.06-.47-2.38-.75-1.68-2.46C172,70.51,162.08,70.77,152.33,67.12Zm0-31.25c0,2.1.07,4.13,0,6.16a1.86,1.86,0,0,0,1.29,2.06,40.35,40.35,0,0,0,4.85,1.58,58.86,58.86,0,0,0,14.27,1.15,50.69,50.69,0,0,0,10.71-1.16,42.19,42.19,0,0,0,5.14-1.77,1.48,1.48,0,0,0,1-1.63c-.06-.91,0-1.82,0-2.73V35.86c-.17.06-.25.07-.33.11a21,21,0,0,1-6,1.93,66.11,66.11,0,0,1-15.51,1C162.43,38.62,157.25,38.18,152.33,35.87Zm0,10c0,.22,0,.37,0,.53,0,2.12,0,4.24,0,6.36a1.63,1.63,0,0,0,1.07,1.77,31.33,31.33,0,0,0,4,1.46,61.06,61.06,0,0,0,18.68,1.22c.62,0,1-.23,1.13-.88a3.8,3.8,0,0,1,.31-.76c.64-1.43.64-1.43,2.17-1.32h.13a4.74,4.74,0,0,0,2.28-2.07s0-.09,0-.14c-.09-1.77-.09-1.77,1.56-2.49.27-.12.55-.23.82-.33,1.37-.48,1.37-.47,2.31.62.18.21.44.48.67.49a17.31,17.31,0,0,0,2-.08V45.88c-.08,0-.13,0-.17,0-3.48,1.77-7.27,2.3-11.08,2.69a72.94,72.94,0,0,1-14.4,0C159.9,48.19,156,47.63,152.37,45.82Zm44.35,19c.23-.05.71,0,.9-.24.34-.4.49-.93-.17-1.29a1.41,1.41,0,0,1-.72-1.8,3.78,3.78,0,0,0,0-1.83,1.5,1.5,0,0,1,.77-1.91c.29-.18.5-.38.33-.83s-.45-.77-1-.6a1.4,1.4,0,0,1-1.8-.75,4.39,4.39,0,0,0-1.33-1.35,1.61,1.61,0,0,1-.88-2c.14-.45-.1-.68-.52-.86s-.67,0-.9.3-.32.34-.44.53a.75.75,0,0,1-.9.35,6.79,6.79,0,0,0-2.37-.09,1.73,1.73,0,0,1-2.2-.87c-.18-.33-.42-.37-.8-.24s-.69.46-.54,1a1.43,1.43,0,0,1-.72,1.81A4.89,4.89,0,0,0,182,55.52a1.46,1.46,0,0,1-1.85.77c-.46-.14-.74,0-.92.51s-.11.69.27.9a1.54,1.54,0,0,1,.81,2,3.29,3.29,0,0,0,0,1.62,1.67,1.67,0,0,1-.89,2.13c-.36.19-.31.46-.19.8s.39.66.91.54a1.52,1.52,0,0,1,1.87.76,5.73,5.73,0,0,0,1.65,1.6,1.24,1.24,0,0,1,.59,1.49c0,.11,0,.22,0,.33-.12.45.09.65.49.82s.67.14.91-.24a1.79,1.79,0,0,1,.53-.62,1.6,1.6,0,0,1,.8-.3c1.08,0,2.17,0,3.25,0a1.58,1.58,0,0,1,.8.31,2,2,0,0,1,.49.57c.23.32.45.5.9.3s.63-.39.53-.86c0-.25,0-.51-.09-.75s.07-.59.37-.85a16,16,0,0,0,2.05-2A1.2,1.2,0,0,1,196.72,64.79Zm-44.39-8.41c0,2.36,0,4.68,0,7a1.57,1.57,0,0,0,1,1.69,30,30,0,0,0,4.21,1.54,60.54,60.54,0,0,0,21.05.91c.66-.08,1.32-.19,2-.29l0-.25a3.44,3.44,0,0,0-.69-.16,6.48,6.48,0,0,0-1.08.1.6.6,0,0,1-.75-.4c-.41-1-.85-2.06-1.23-3.1-.06-.18,0-.56.14-.63a2.27,2.27,0,0,0,1.14-2.73.74.74,0,0,1,0-.21c0-.78,0-.81-.81-.75-1.59.09-3.18.27-4.77.28C165.67,59.43,158.86,59.2,152.33,56.38ZM172,36.94c1.55-.1,4.12-.2,6.68-.45a30.66,30.66,0,0,0,8.57-1.89,9,9,0,0,0,1.89-1.06c.53-.38.51-.78,0-1.18a6.49,6.49,0,0,0-1.45-.87,31,31,0,0,0-9-2.07,72.66,72.66,0,0,0-14-.17c-.69.06-1.22.13-1.37.94a1.79,1.79,0,0,1-.38.72,4.14,4.14,0,0,1-6.56.31c-.15-.16-.47-.37-.61-.31a18.22,18.22,0,0,0-2.68,1.16c-1.05.6-1.05,1.22,0,1.78a18.17,18.17,0,0,0,3.52,1.43C161.32,36.6,166.12,36.85,172,36.94Zm-10.31-8.39a2.13,2.13,0,0,0-2.08-2.1,2.17,2.17,0,0,0-2.1,2.1,2.14,2.14,0,0,0,2.1,2.09A2.09,2.09,0,0,0,161.65,28.55Z"/><path class="cls-3" d="M42.33,173.3H60.48c-5-2-8.37-5.36-9.13-10.77s1.54-9.58,6.06-12.77H39.88l0-.16a4.6,4.6,0,0,1,.45-.32l24-15a.81.81,0,0,1,1,0l24,15c.18.11.35.23.69.47H72.2c4.57,3.21,6.9,7.37,6.13,12.8s-4.13,8.78-9.12,10.78H86.47c0,.1.11.16.1.21-.26,1.16.44,1.63,1.33,2.1,2.34,1.23,4.64,2.54,7.06,3.87l-8.37,4.63v-3.58H42.33v3.59l-8.41-4.64c2.51-1.38,4.9-2.74,7.34-4,.76-.4,1.24-.82,1-1.73A1.75,1.75,0,0,1,42.33,173.3Zm10.92-12.11a21.22,21.22,0,0,0,.45,2.5C56.07,172,67,174.61,73.19,168.4a10.71,10.71,0,0,0-.54-15.78,11.91,11.91,0,0,0-14.37-1A11,11,0,0,0,53.25,161.19ZM83,147.7l-.44-.32Q73.9,142,65.27,136.63a.72.72,0,0,0-.9,0L47.24,147.33a4.69,4.69,0,0,0-.5.37Zm3.59,27.61H42.35v3.1H86.54Z"/><path class="cls-3" d="M60.63,165.73l.48-1.27c1,.23,2,.48,3,.63a2.74,2.74,0,0,0,1.19-.17,1.81,1.81,0,0,0,1.35-1.52,1.72,1.72,0,0,0-.88-1.77c-.58-.36-1.23-.61-1.85-.92a12.74,12.74,0,0,1-1.72-.9,2.86,2.86,0,0,1,.21-4.92,12.63,12.63,0,0,1,1.6-.67v-1.85h1.27v1.8c.51.09,1,.14,1.41.26s.84.28,1.32.44L67.52,156c-1-.17-1.91-.37-2.83-.45a2.34,2.34,0,0,0-1.22.29,1.49,1.49,0,0,0-.24,2.56,12.65,12.65,0,0,0,1.89,1c.56.28,1.15.51,1.69.83a3,3,0,0,1,1.58,3.1,3.14,3.14,0,0,1-2.21,2.71c-1.06.42-1.06.42-1.06,1.55,0,.22,0,.44,0,.71H63.83v-1.77Z"/><path class="cls-3" d="M64.83,138.55a4,4,0,1,1-4.22,4.06A4.14,4.14,0,0,1,64.83,138.55Zm0,6.1A2.14,2.14,0,0,0,67,142.56a2.2,2.2,0,0,0-4.39,0A2.15,2.15,0,0,0,64.85,144.65Z"/><path class="cls-3" d="M178.37,294.21v7.31h-7.31v-5.26c-.6-.06-1.14-.16-1.67-.17a.93.93,0,0,0-.61.31c-.65.74-1.24,1.52-1.9,2.24a.82.82,0,0,1-.73.22c-1.77-.69-3.53-1.43-5.29-2.15a.68.68,0,0,1-.45-.85c.13-.92.21-1.86.25-2.79a1.17,1.17,0,0,0-.33-.78q-1.72-1.79-3.51-3.51a1.11,1.11,0,0,0-.73-.32c-1,.05-1.91.15-2.86.26a.6.6,0,0,1-.74-.41c-.73-1.81-1.48-3.61-2.18-5.43a.8.8,0,0,1,.22-.67c.73-.66,1.51-1.25,2.24-1.91a.91.91,0,0,0,.27-.67,15.37,15.37,0,0,1,0-4.69.9.9,0,0,0-.3-.66c-.69-.62-1.41-1.22-2.14-1.8a.65.65,0,0,1-.28-.86q1.1-2.64,2.14-5.3a.66.66,0,0,1,.8-.43c.91.1,1.82.16,2.72.27a1,1,0,0,0,.92-.39c1.11-1.17,2.26-2.3,3.42-3.42a.9.9,0,0,0,.36-.86c-.13-1-.21-1.94-.26-2.92a.73.73,0,0,1,.3-.58c1.83-.79,3.67-1.56,5.53-2.29a.73.73,0,0,1,.61.23c.61.68,1.21,1.37,1.75,2.1a1,1,0,0,0,1.15.47c.4-.08.8-.11,1.26-.16v-5.26h7.36v5.33h11.08v10.8h10.78v7.33h-5.31v5.87h-5.39v2.75h5.33v7.34h-5.35v5.05h-7.33v-7.29h5.32v-2.83h-5.32V280.1h5.32v-8.87H182.2c0-.39,0-.72,0-1.05,0-1.25,0-2.5,0-3.75,0-.51-.14-.67-.66-.66-1.56,0-3.13,0-4.76,0V260.5c-.12-.06-.18-.12-.23-.12-2.59.05-5.19-.23-7.77.21a1,1,0,0,1-.73-.27c-.62-.69-1.22-1.41-1.79-2.15a.58.58,0,0,0-.81-.21c-.83.36-1.67.72-2.51,1.05-.43.16-.49.42-.44.84.12.9.19,1.81.23,2.72a.87.87,0,0,1-.3.65,18.63,18.63,0,0,0-4.66,4.67,1,1,0,0,1-.73.29c-.91,0-1.81-.18-2.72-.22a.84.84,0,0,0-.65.38c-.4.87-.72,1.77-1.1,2.64a.57.57,0,0,0,.21.76c.68.53,1.32,1.11,2,1.64a.87.87,0,0,1,.37,1,15.26,15.26,0,0,0,0,5.91.84.84,0,0,1-.35.93q-1.07.81-2,1.71a.74.74,0,0,0-.19.66,28.91,28.91,0,0,0,1.09,2.71.84.84,0,0,0,.66.36c.91,0,1.82-.18,2.72-.22a1,1,0,0,1,.76.37,17.62,17.62,0,0,0,4.53,4.5.75.75,0,0,1,.4.83c-.12.9-.19,1.81-.23,2.72a.83.83,0,0,0,.33.67,29.2,29.2,0,0,0,2.71,1.13.75.75,0,0,0,.66-.2c.64-.71,1.22-1.47,1.85-2.19a.9.9,0,0,1,.61-.27c1.49,0,3,.18,4.48.22C174.84,294.24,176.57,294.21,178.37,294.21Zm5.73-2v3.42h3.39v-3.42Zm-7.67-33.79V255H173v3.39Zm5.61,5.42v-3.43H178.7v3.43Zm2.12-3.42v3.4h3.35v-3.4Zm3.36,5.41c-1.07,0-2.1,0-3.14,0a.43.43,0,0,0-.3.27c0,1,0,2.07,0,3.09h3.45Zm5.33,8.81v-3.38h-3.33v3.38Zm5.47,0v-3.4H195v3.4ZM184.1,285.41h3.4v-3.35h-3.4Zm-11,10.78v3.43h3.38v-3.43Zm19.83-15.73v-3.38h-3.34v3.38Zm0,6.64c-1,0-2,0-3,0a.61.61,0,0,0-.4.44c0,.84,0,1.68,0,2.52,0,.17.22.45.34.46,1,0,2,0,3.07,0Z"/><path class="cls-3" d="M170.87,287.73v-3.37l7.74,4.47-7.7,4.46V289.8c-.48-.09-.9-.15-1.32-.24a12.69,12.69,0,0,1-2.1-24.32,1,1,0,0,0,.77-.8,3.79,3.79,0,0,1,4.05-2.94,3.89,3.89,0,1,1-3.6,5.93c-.09-.13-.16-.27-.24-.4-4.21.81-7.67,6.29-7.15,11.29S166.5,287.85,170.87,287.73ZM172,267.32a1.95,1.95,0,1,0,0-3.89,2,2,0,0,0-2,1.95A2,2,0,0,0,172,267.32Z"/><path class="cls-3" d="M189.46,246.4v7.28H182.2V246.4Zm-2,5.38v-3.39h-3.4v3.39Z"/><path class="cls-3" d="M200.25,265.75H193v-7.26h7.26Zm-1.95-1.93v-3.43H195v3.43Z"/><path class="cls-3" d="M193,299.68h7.25V307H193Zm1.95,5.32h3.39v-3.4h-3.39Z"/></svg>