<svg id="Layer_1" data-name="Layer 1" xmlns="http://www.w3.org/2000/svg" viewBox="0 0 350.5 351"><defs><style>.cls-1{fill:#92d1ff;}.cls-2{fill:#0f9ffa;}.cls-3{fill:#fff;}.cls-4{fill:#061838;}</style></defs><title>audience-experience</title><path class="cls-1" d="M221.2,135.15l-5.6-5.6L296.2,49A175,175,0,0,0,54.3,49l82,82-5.6,5.6-82-82a175,175,0,0,0,0,241.9l80.6-80.6,5.6,5.6-80.6,80.6a175,175,0,0,0,241.9,0L217,222.85l5.6-5.6,79.2,79.2a175,175,0,0,0,0-241.9l-80.6,80.6Z"/><circle id="_Path_" data-name="&lt;Path&gt;" class="cls-1" cx="175.3" cy="175.45" r="167.9"/><path class="cls-2" d="M128,133.75,53.8,59.55a167.88,167.88,0,0,0,0,231.8l74.2-74.2a63.08,63.08,0,0,1,0-83.4Zm89-5.6L291.2,54A167.88,167.88,0,0,0,59.4,54l74.2,74.2a63.08,63.08,0,0,1,83.4,0Zm-83.4,94.6L59.4,297a167.88,167.88,0,0,0,231.8,0L217,222.75a63.08,63.08,0,0,1-83.4,0Zm89-5.6,74.2,74.2a167.88,167.88,0,0,0,0-231.8l-74.2,74.2a63.08,63.08,0,0,1,0,83.4Z"/><path class="cls-3" d="M23.12,204.31l-.61,2H21.17l2.27-7.07h1.65l2.3,7.07H26l-.64-2Zm2-1-.55-1.74c-.14-.43-.26-.91-.36-1.32h0c-.11.41-.21.9-.34,1.32l-.54,1.74Z"/><path class="cls-3" d="M32.9,204.78c0,.61,0,1.11,0,1.53H31.81l-.06-.77h0a1.87,1.87,0,0,1-1.64.89c-.94,0-1.79-.56-1.79-2.23v-3h1.29V204c0,.85.28,1.4,1,1.4a1.11,1.11,0,0,0,1-.69,1.29,1.29,0,0,0,.07-.4V201.2H32.9Z"/><path class="cls-3" d="M39,198.86v6c0,.52,0,1.09,0,1.43H37.9l0-.8h0a1.86,1.86,0,0,1-1.67.92A2.34,2.34,0,0,1,34,203.82a2.43,2.43,0,0,1,2.29-2.73,1.62,1.62,0,0,1,1.44.67h0v-2.9Zm-1.29,4.47a1.84,1.84,0,0,0,0-.33,1.13,1.13,0,0,0-1.11-.92c-.83,0-1.29.74-1.29,1.69s.46,1.62,1.28,1.62a1.15,1.15,0,0,0,1.11-.91,1.53,1.53,0,0,0,0-.38Z"/><path class="cls-3" d="M41.78,199.77a.69.69,0,0,1-.74.7.68.68,0,0,1-.71-.7.69.69,0,0,1,.72-.7A.7.7,0,0,1,41.78,199.77Zm-1.38,6.54V201.2h1.3v5.11Z"/><path class="cls-3" d="M44,204.12a1.39,1.39,0,0,0,1.58,1.32,3.78,3.78,0,0,0,1.41-.23l.19.89a4.76,4.76,0,0,1-1.78.32,2.42,2.42,0,0,1-2.64-2.58,2.53,2.53,0,0,1,2.5-2.75,2.21,2.21,0,0,1,2.2,2.48,3.35,3.35,0,0,1,0,.55Zm2.25-.9A1.1,1.1,0,0,0,45.19,202,1.26,1.26,0,0,0,44,203.22Z"/><path class="cls-3" d="M48.51,202.72c0-.58,0-1.08,0-1.52H49.6l.06.77h0a1.85,1.85,0,0,1,1.63-.88c.89,0,1.81.57,1.81,2.19v3H51.84v-2.88c0-.74-.27-1.29-1-1.29a1.08,1.08,0,0,0-1,.75,1.38,1.38,0,0,0,0,.42v3h-1.3Z"/><path class="cls-3" d="M58.27,206.16a3.86,3.86,0,0,1-1.45.26,2.45,2.45,0,0,1-2.63-2.6A2.64,2.64,0,0,1,57,201.09a3.16,3.16,0,0,1,1.25.24l-.23,1a2.33,2.33,0,0,0-1-.2,1.66,1.66,0,0,0,0,3.31,2.45,2.45,0,0,0,1-.2Z"/><path class="cls-3" d="M60.14,204.12a1.38,1.38,0,0,0,1.57,1.32,3.8,3.8,0,0,0,1.42-.23l.19.89a4.76,4.76,0,0,1-1.78.32,2.42,2.42,0,0,1-2.64-2.58,2.53,2.53,0,0,1,2.5-2.75,2.21,2.21,0,0,1,2.2,2.48,3.35,3.35,0,0,1,0,.55Zm2.25-.9A1.1,1.1,0,0,0,61.33,202a1.26,1.26,0,0,0-1.19,1.25Z"/><path class="cls-3" d="M69.69,206.31l-.08-.56h0a1.9,1.9,0,0,1-1.51.68,1.52,1.52,0,0,1-1.61-1.52c0-1.29,1.14-1.95,3-1.93v-.09c0-.33-.13-.89-1-.89a2.72,2.72,0,0,0-1.38.38l-.25-.84a3.69,3.69,0,0,1,1.84-.45,1.92,1.92,0,0,1,2.12,2.15v1.85a8.45,8.45,0,0,0,.07,1.22Zm-.16-2.49c-.92,0-1.79.17-1.79,1a.69.69,0,0,0,.74.74,1,1,0,0,0,1-.71,1,1,0,0,0,0-.28Z"/><path class="cls-3" d="M72.15,202.72c0-.58,0-1.08,0-1.52h1.13l.07.77h0a1.83,1.83,0,0,1,1.62-.88c.9,0,1.82.57,1.82,2.19v3H75.49v-2.88c0-.74-.27-1.29-1-1.29a1.09,1.09,0,0,0-1,.75,1.38,1.38,0,0,0,0,.42v3h-1.3Z"/><path class="cls-3" d="M81,206.31l-.08-.56h0a1.9,1.9,0,0,1-1.51.68,1.52,1.52,0,0,1-1.61-1.52c0-1.29,1.14-1.95,3-1.93v-.09c0-.33-.13-.89-1-.89a2.71,2.71,0,0,0-1.37.38l-.25-.84a3.66,3.66,0,0,1,1.84-.45,1.92,1.92,0,0,1,2.12,2.15v1.85a8.45,8.45,0,0,0,.07,1.22Zm-.16-2.49c-.92,0-1.79.17-1.79,1a.69.69,0,0,0,.74.74,1,1,0,0,0,1-.71,1,1,0,0,0,.05-.28Z"/><path class="cls-3" d="M83.49,198.86h1.3v7.45h-1.3Z"/><path class="cls-3" d="M87,201.2l.92,2.74c.11.32.21.7.29,1h0l.27-1,.8-2.73h1.38l-1.28,3.49c-.7,1.91-1.17,2.76-1.78,3.28a2.61,2.61,0,0,1-1.36.66L86,207.54a2.4,2.4,0,0,0,.76-.35,2.36,2.36,0,0,0,.7-.81.57.57,0,0,0,.08-.23.58.58,0,0,0-.07-.26l-1.87-4.69Z"/><path class="cls-3" d="M92.92,199.74v1.46h1.23v1H92.92v2.25c0,.62.17,1,.66,1a1.93,1.93,0,0,0,.5-.06l0,1a2.69,2.69,0,0,1-.94.13,1.5,1.5,0,0,1-1.11-.42,2.05,2.05,0,0,1-.4-1.43v-2.4h-.74v-1h.74v-1.15Z"/><path class="cls-3" d="M96.5,199.77a.73.73,0,0,1-1.45,0,.7.7,0,0,1,.73-.7A.69.69,0,0,1,96.5,199.77Zm-1.37,6.54V201.2h1.3v5.11Z"/><path class="cls-3" d="M101.57,206.16a3.86,3.86,0,0,1-1.45.26,2.45,2.45,0,0,1-2.63-2.6,2.64,2.64,0,0,1,2.84-2.73,3.16,3.16,0,0,1,1.25.24l-.23,1a2.33,2.33,0,0,0-1-.2,1.66,1.66,0,0,0,0,3.31,2.41,2.41,0,0,0,1-.2Z"/><path class="cls-3" d="M102.46,205.13a2.89,2.89,0,0,0,1.32.37c.56,0,.82-.24.82-.57s-.22-.53-.84-.75c-1-.34-1.42-.89-1.41-1.49,0-.9.74-1.6,1.93-1.6a2.93,2.93,0,0,1,1.35.3l-.25.91a2.37,2.37,0,0,0-1.08-.29c-.46,0-.71.22-.71.53s.24.49.89.72c.92.33,1.35.81,1.36,1.56,0,.93-.72,1.6-2.07,1.6a3.33,3.33,0,0,1-1.56-.36Z"/><path class="cls-3" d="M120.58,314.31l-.61,2h-1.34l2.27-7.07h1.65l2.3,7.07h-1.39l-.64-2Zm2-1-.55-1.74c-.14-.43-.26-.91-.36-1.32h0c-.11.41-.21.9-.34,1.32l-.54,1.74Z"/><path class="cls-3" d="M130.5,308.86v6c0,.52,0,1.09,0,1.43h-1.15l-.06-.8h0a1.84,1.84,0,0,1-1.67.92,2.34,2.34,0,0,1-2.18-2.61,2.43,2.43,0,0,1,2.29-2.73,1.63,1.63,0,0,1,1.44.67h0v-2.9Zm-1.29,4.47a1.84,1.84,0,0,0,0-.33,1.14,1.14,0,0,0-1.12-.92c-.83,0-1.29.74-1.29,1.69s.46,1.62,1.28,1.62a1.15,1.15,0,0,0,1.12-.91,1.53,1.53,0,0,0,0-.38Z"/><path class="cls-3" d="M132.7,311.2l.83,2.59a12.55,12.55,0,0,1,.35,1.29h0c.1-.42.21-.82.35-1.29l.81-2.59h1.36l-2,5.11h-1.27l-1.9-5.11Z"/><path class="cls-3" d="M138.13,314.12a1.39,1.39,0,0,0,1.58,1.32,3.8,3.8,0,0,0,1.42-.23l.18.89a4.76,4.76,0,0,1-1.78.32,2.42,2.42,0,0,1-2.64-2.58,2.53,2.53,0,0,1,2.5-2.75,2.22,2.22,0,0,1,2.21,2.48,2.38,2.38,0,0,1,0,.55Zm2.25-.9a1.1,1.1,0,0,0-1.06-1.25,1.27,1.27,0,0,0-1.19,1.25Z"/><path class="cls-3" d="M142.64,312.85c0-.69,0-1.19,0-1.65h1.12l0,1h0a1.51,1.51,0,0,1,1.4-1.09,1.39,1.39,0,0,1,.3,0v1.21a1.82,1.82,0,0,0-.37,0,1.15,1.15,0,0,0-1.16,1,2.25,2.25,0,0,0,0,.4v2.64h-1.29Z"/><path class="cls-3" d="M147.86,309.74v1.46h1.22v1h-1.22v2.25c0,.62.16.95.66.95a1.93,1.93,0,0,0,.5-.06l0,1a2.63,2.63,0,0,1-.93.13A1.52,1.52,0,0,1,147,316a2.06,2.06,0,0,1-.39-1.43v-2.4h-.74v-1h.74v-1.15Z"/><path class="cls-3" d="M151.44,309.77a.69.69,0,0,1-.74.7.68.68,0,0,1-.71-.7.69.69,0,0,1,.72-.7A.7.7,0,0,1,151.44,309.77Zm-1.38,6.54V311.2h1.3v5.11Z"/><path class="cls-3" d="M152.69,315.13a2.85,2.85,0,0,0,1.31.37c.56,0,.82-.24.82-.57s-.21-.53-.84-.75c-1-.34-1.42-.89-1.41-1.49a1.71,1.71,0,0,1,1.93-1.6,3,3,0,0,1,1.36.3l-.26.91a2.37,2.37,0,0,0-1.08-.29c-.46,0-.71.22-.71.53s.24.49.89.72c.93.33,1.35.81,1.37,1.56,0,.93-.73,1.6-2.08,1.6a3.33,3.33,0,0,1-1.56-.36Z"/><path class="cls-3" d="M158,314.12a1.39,1.39,0,0,0,1.58,1.32,3.78,3.78,0,0,0,1.41-.23l.19.89a4.76,4.76,0,0,1-1.78.32,2.42,2.42,0,0,1-2.64-2.58,2.53,2.53,0,0,1,2.5-2.75,2.21,2.21,0,0,1,2.2,2.48,3.35,3.35,0,0,1,0,.55Zm2.25-.9a1.1,1.1,0,0,0-1.06-1.25,1.26,1.26,0,0,0-1.19,1.25Z"/><path class="cls-3" d="M162.54,312.72c0-.58,0-1.08,0-1.52h1.12l0,.76h0a1.76,1.76,0,0,1,1.57-.87,1.46,1.46,0,0,1,1.42.94h0a2,2,0,0,1,.63-.64,1.72,1.72,0,0,1,1-.3c.85,0,1.71.57,1.71,2.21v3h-1.26v-2.82c0-.85-.29-1.35-.91-1.35a1,1,0,0,0-.9.68,1.43,1.43,0,0,0-.07.43v3.06h-1.26v-3c0-.71-.28-1.21-.88-1.21a1,1,0,0,0-.92.73,1.16,1.16,0,0,0-.08.42v3h-1.26Z"/><path class="cls-3" d="M172.36,314.12a1.39,1.39,0,0,0,1.58,1.32,3.71,3.71,0,0,0,1.41-.23l.19.89a4.76,4.76,0,0,1-1.78.32,2.42,2.42,0,0,1-2.64-2.58,2.53,2.53,0,0,1,2.5-2.75,2.22,2.22,0,0,1,2.21,2.48,2.38,2.38,0,0,1-.05.55Zm2.25-.9a1.1,1.1,0,0,0-1.06-1.25,1.26,1.26,0,0,0-1.19,1.25Z"/><path class="cls-3" d="M176.87,312.72c0-.58,0-1.08-.05-1.52H178l.06.77h0a1.85,1.85,0,0,1,1.63-.88c.89,0,1.82.57,1.82,2.19v3h-1.29v-2.88c0-.74-.28-1.29-1-1.29a1.08,1.08,0,0,0-1,.75,1.38,1.38,0,0,0-.05.42v3h-1.3Z"/><path class="cls-3" d="M184.35,309.74v1.46h1.23v1h-1.23v2.25c0,.62.17.95.66.95a2.09,2.09,0,0,0,.51-.06l0,1a2.69,2.69,0,0,1-.94.13,1.5,1.5,0,0,1-1.11-.42,2.05,2.05,0,0,1-.4-1.43v-2.4h-.73v-1h.73v-1.15Z"/><path class="cls-3" d="M190.11,309.77a.69.69,0,0,1-.74.7.68.68,0,0,1-.71-.7.69.69,0,0,1,.72-.7A.7.7,0,0,1,190.11,309.77Zm-1.38,6.54V311.2H190v5.11Z"/><path class="cls-3" d="M191.42,312.72c0-.58,0-1.08,0-1.52h1.13l.06.77h0a1.83,1.83,0,0,1,1.62-.88c.9,0,1.82.57,1.82,2.19v3h-1.29v-2.88c0-.74-.28-1.29-1-1.29a1.09,1.09,0,0,0-1,.75,1.38,1.38,0,0,0-.05.42v3h-1.3Z"/><path class="cls-3" d="M198.24,311.2l.83,2.59a12.55,12.55,0,0,1,.35,1.29h0c.1-.42.21-.82.35-1.29l.81-2.59H202L200,316.31h-1.27l-1.9-5.11Z"/><path class="cls-3" d="M203.67,314.12a1.39,1.39,0,0,0,1.58,1.32,3.71,3.71,0,0,0,1.41-.23l.19.89a4.76,4.76,0,0,1-1.78.32,2.42,2.42,0,0,1-2.64-2.58,2.53,2.53,0,0,1,2.5-2.75,2.22,2.22,0,0,1,2.21,2.48,2.38,2.38,0,0,1,0,.55Zm2.25-.9a1.1,1.1,0,0,0-1.06-1.25,1.26,1.26,0,0,0-1.19,1.25Z"/><path class="cls-3" d="M208.18,312.72c0-.58,0-1.08-.05-1.52h1.14l.06.77h0a1.85,1.85,0,0,1,1.63-.88c.89,0,1.82.57,1.82,2.19v3h-1.29v-2.88c0-.74-.28-1.29-1-1.29a1.08,1.08,0,0,0-1,.75,1.38,1.38,0,0,0-.05.42v3h-1.3Z"/><path class="cls-3" d="M215.66,309.74v1.46h1.23v1h-1.23v2.25c0,.62.17.95.66.95a2.09,2.09,0,0,0,.51-.06l0,1a2.67,2.67,0,0,1-.93.13,1.51,1.51,0,0,1-1.12-.42,2.05,2.05,0,0,1-.4-1.43v-2.4h-.73v-1h.73v-1.15Z"/><path class="cls-3" d="M222.73,313.71a2.53,2.53,0,0,1-2.63,2.72,2.48,2.48,0,0,1-2.56-2.64,2.53,2.53,0,0,1,2.65-2.7A2.45,2.45,0,0,1,222.73,313.71Zm-3.85.05c0,1,.48,1.74,1.27,1.74s1.25-.73,1.25-1.76c0-.8-.36-1.71-1.24-1.71S218.88,312.91,218.88,313.76Z"/><path class="cls-3" d="M223.79,312.85c0-.69,0-1.19,0-1.65h1.12l0,1H225a1.51,1.51,0,0,1,1.39-1.09,1.48,1.48,0,0,1,.31,0v1.21a1.92,1.92,0,0,0-.38,0,1.15,1.15,0,0,0-1.16,1,2.25,2.25,0,0,0,0,.4v2.64h-1.29Z"/><path class="cls-3" d="M228.34,311.2l.92,2.74c.11.32.21.7.28,1h0c.08-.3.17-.67.27-1l.8-2.73H232l-1.28,3.49c-.7,1.91-1.17,2.76-1.78,3.28a2.61,2.61,0,0,1-1.36.66l-.29-1.09a2.32,2.32,0,0,0,1.46-1.16.57.57,0,0,0,.08-.23.58.58,0,0,0-.07-.26l-1.87-4.69Z"/><path class="cls-3" d="M145.43,323.72c0-.58,0-1.08,0-1.52h1.11l.05.76h0a1.79,1.79,0,0,1,1.58-.87,1.47,1.47,0,0,1,1.42.94h0a2,2,0,0,1,.63-.64,1.7,1.7,0,0,1,1-.3c.85,0,1.71.57,1.71,2.21v3h-1.26v-2.82c0-.85-.3-1.35-.92-1.35a1,1,0,0,0-.9.68,1.86,1.86,0,0,0-.06.43v3.06h-1.26v-3c0-.71-.28-1.21-.88-1.21a1,1,0,0,0-.93.73,1.16,1.16,0,0,0-.07.42v3h-1.26Z"/><path class="cls-3" d="M157.21,327.31l-.08-.56h0a1.89,1.89,0,0,1-1.51.68,1.51,1.51,0,0,1-1.6-1.52c0-1.29,1.14-2,3-1.93v-.09c0-.33-.14-.89-1-.89a2.69,2.69,0,0,0-1.37.38l-.26-.84a3.7,3.7,0,0,1,1.85-.45,1.91,1.91,0,0,1,2.11,2.15v1.85a7.11,7.11,0,0,0,.08,1.22Zm-.17-2.49c-.91,0-1.78.17-1.78.95a.68.68,0,0,0,.73.74,1,1,0,0,0,1-.71,1,1,0,0,0,0-.28Z"/><path class="cls-3" d="M159.67,323.72c0-.58,0-1.08,0-1.52h1.13l.06.77h0a1.85,1.85,0,0,1,1.63-.88c.89,0,1.82.57,1.82,2.19v3H163v-2.88c0-.74-.28-1.29-1-1.29a1.09,1.09,0,0,0-1,.75,1.38,1.38,0,0,0-.05.42v3h-1.3Z"/><path class="cls-3" d="M168.55,327.31l-.08-.56h0a1.89,1.89,0,0,1-1.51.68,1.51,1.51,0,0,1-1.6-1.52c0-1.29,1.14-2,3-1.93v-.09c0-.33-.14-.89-1-.89a2.69,2.69,0,0,0-1.37.38l-.26-.84a3.7,3.7,0,0,1,1.85-.45,1.91,1.91,0,0,1,2.11,2.15v1.85a7.11,7.11,0,0,0,.08,1.22Zm-.17-2.49c-.91,0-1.78.17-1.78.95a.68.68,0,0,0,.73.74,1,1,0,0,0,1-.71,1,1,0,0,0,0-.28Z"/><path class="cls-3" d="M175.68,322.2c0,.35,0,.77,0,1.47v2.9a2.47,2.47,0,0,1-2.73,2.94,3.67,3.67,0,0,1-1.79-.41l.29-1a3.05,3.05,0,0,0,1.49.39,1.36,1.36,0,0,0,1.47-1.54v-.44h0a1.73,1.73,0,0,1-1.49.75,2.27,2.27,0,0,1-2.18-2.5,2.44,2.44,0,0,1,2.32-2.69,1.6,1.6,0,0,1,1.48.79h0l.06-.68Zm-1.33,2.05a1,1,0,0,0,0-.35,1.07,1.07,0,0,0-1.05-.83c-.72,0-1.26.63-1.26,1.67,0,.87.45,1.58,1.25,1.58a1.1,1.1,0,0,0,1-.78,1.82,1.82,0,0,0,.06-.46Z"/><path class="cls-3" d="M177.94,325.12a1.38,1.38,0,0,0,1.57,1.32,3.8,3.8,0,0,0,1.42-.23l.19.89a4.78,4.78,0,0,1-1.79.32,2.41,2.41,0,0,1-2.63-2.58,2.53,2.53,0,0,1,2.5-2.75,2.21,2.21,0,0,1,2.2,2.48,3.35,3.35,0,0,1,0,.55Zm2.24-.9a1.1,1.1,0,0,0-1.06-1.25,1.26,1.26,0,0,0-1.18,1.25Z"/><path class="cls-3" d="M182.44,323.72c0-.58,0-1.08,0-1.52h1.11l.06.76h0a1.76,1.76,0,0,1,1.57-.87,1.47,1.47,0,0,1,1.42.94h0a2,2,0,0,1,.63-.64,1.7,1.7,0,0,1,1-.3c.85,0,1.71.57,1.71,2.21v3h-1.26v-2.82c0-.85-.29-1.35-.91-1.35a1,1,0,0,0-.91.68,1.86,1.86,0,0,0-.06.43v3.06h-1.26v-3c0-.71-.28-1.21-.88-1.21a1.17,1.17,0,0,0-1,1.15v3h-1.26Z"/><path class="cls-3" d="M192.26,325.12a1.39,1.39,0,0,0,1.57,1.32,3.8,3.8,0,0,0,1.42-.23l.19.89a4.76,4.76,0,0,1-1.78.32,2.42,2.42,0,0,1-2.64-2.58,2.53,2.53,0,0,1,2.5-2.75,2.21,2.21,0,0,1,2.2,2.48,3.35,3.35,0,0,1,0,.55Zm2.25-.9a1.1,1.1,0,0,0-1.06-1.25,1.26,1.26,0,0,0-1.19,1.25Z"/><path class="cls-3" d="M196.76,323.72c0-.58,0-1.08,0-1.52h1.14l.06.77h0a1.85,1.85,0,0,1,1.63-.88c.89,0,1.81.57,1.81,2.19v3H200.1v-2.88c0-.74-.27-1.29-1-1.29a1.07,1.07,0,0,0-1,.75,1.38,1.38,0,0,0-.05.42v3h-1.31Z"/><path class="cls-3" d="M204.25,320.74v1.46h1.23v1h-1.23v2.25c0,.62.17.95.66.95a2.09,2.09,0,0,0,.51-.06l0,1a2.69,2.69,0,0,1-.94.13,1.5,1.5,0,0,1-1.11-.42,2.05,2.05,0,0,1-.4-1.43v-2.4h-.73v-1H203v-1.15Z"/><path class="cls-3" d="M271,199.1a4.41,4.41,0,0,1-1.83.32,3.34,3.34,0,0,1-3.61-3.56,3.56,3.56,0,0,1,3.78-3.74,4,4,0,0,1,1.72.32l-.28,1a3.41,3.41,0,0,0-1.39-.28,2.36,2.36,0,0,0-2.47,2.61,2.32,2.32,0,0,0,2.46,2.55,3.73,3.73,0,0,0,1.41-.26Z"/><path class="cls-3" d="M276.86,196.71a2.53,2.53,0,0,1-2.62,2.72,2.47,2.47,0,0,1-2.56-2.64,2.52,2.52,0,0,1,2.64-2.7A2.45,2.45,0,0,1,276.86,196.71Zm-3.85,0c0,1,.48,1.74,1.27,1.74s1.25-.73,1.25-1.76c0-.8-.36-1.71-1.24-1.71S273,195.91,273,196.76Z"/><path class="cls-3" d="M277.92,195.72c0-.58,0-1.08,0-1.52H279l.06.77h0a1.85,1.85,0,0,1,1.63-.88c.89,0,1.81.57,1.81,2.19v3h-1.29v-2.88c0-.74-.27-1.29-1-1.29a1.07,1.07,0,0,0-1,.75,1.38,1.38,0,0,0,0,.42v3h-1.31Z"/><path class="cls-3" d="M285.41,192.74v1.46h1.23v1h-1.23v2.25c0,.62.17,1,.66,1a2.09,2.09,0,0,0,.51-.06l0,1a2.69,2.69,0,0,1-.94.13,1.5,1.5,0,0,1-1.11-.42,2.05,2.05,0,0,1-.4-1.43v-2.4h-.73v-1h.73v-1.15Z"/><path class="cls-3" d="M288.53,197.12a1.38,1.38,0,0,0,1.57,1.32,3.8,3.8,0,0,0,1.42-.23l.19.89a4.78,4.78,0,0,1-1.79.32,2.42,2.42,0,0,1-2.63-2.58,2.53,2.53,0,0,1,2.5-2.75,2.21,2.21,0,0,1,2.2,2.48,3.35,3.35,0,0,1,0,.55Zm2.25-.9a1.1,1.1,0,0,0-1.07-1.25,1.26,1.26,0,0,0-1.18,1.25Z"/><path class="cls-3" d="M293,195.72c0-.58,0-1.08,0-1.52h1.14l.06.77h0a1.85,1.85,0,0,1,1.63-.88c.89,0,1.81.57,1.81,2.19v3h-1.29v-2.88c0-.74-.27-1.29-1-1.29a1.07,1.07,0,0,0-1,.75,1.37,1.37,0,0,0-.06.42v3H293Z"/><path class="cls-3" d="M300.52,192.74v1.46h1.23v1h-1.23v2.25c0,.62.17,1,.66,1a1.93,1.93,0,0,0,.5-.06l0,1a2.69,2.69,0,0,1-.94.13,1.5,1.5,0,0,1-1.11-.42,2.05,2.05,0,0,1-.4-1.43v-2.4h-.74v-1h.74v-1.15Z"/><path class="cls-3" d="M255.72,210.16a3.86,3.86,0,0,1-1.45.26,2.45,2.45,0,0,1-2.63-2.6,2.64,2.64,0,0,1,2.84-2.73,3.12,3.12,0,0,1,1.25.24l-.23,1a2.33,2.33,0,0,0-1-.2,1.66,1.66,0,0,0,0,3.31,2.41,2.41,0,0,0,1-.2Z"/><path class="cls-3" d="M261.25,208.78c0,.61,0,1.11.05,1.53h-1.14l-.06-.77h0a1.87,1.87,0,0,1-1.64.89c-.93,0-1.78-.56-1.78-2.23v-3H258V208c0,.85.27,1.4.95,1.4a1.1,1.1,0,0,0,1-.69,1.29,1.29,0,0,0,.07-.4V205.2h1.29Z"/><path class="cls-3" d="M262.59,209.13a2.85,2.85,0,0,0,1.31.37c.57,0,.82-.24.82-.57s-.21-.53-.84-.75c-1-.34-1.42-.89-1.41-1.49a1.71,1.71,0,0,1,1.93-1.6,3,3,0,0,1,1.36.3l-.25.91a2.37,2.37,0,0,0-1.08-.29c-.47,0-.72.22-.72.53s.24.49.89.72c.93.33,1.36.81,1.37,1.56,0,.93-.73,1.6-2.08,1.6a3.25,3.25,0,0,1-1.55-.36Z"/><path class="cls-3" d="M268.51,203.74v1.46h1.23v1h-1.23v2.25c0,.62.17,1,.66,1a2.09,2.09,0,0,0,.51-.06l0,1a2.69,2.69,0,0,1-.94.13,1.5,1.5,0,0,1-1.11-.42,2.05,2.05,0,0,1-.4-1.43v-2.4h-.73v-1h.73v-1.15Z"/><path class="cls-3" d="M275.58,207.71a2.54,2.54,0,0,1-2.63,2.72,2.47,2.47,0,0,1-2.56-2.64,2.52,2.52,0,0,1,2.65-2.7A2.45,2.45,0,0,1,275.58,207.71Zm-3.86,0c0,1,.49,1.74,1.27,1.74s1.25-.73,1.25-1.76c0-.8-.35-1.71-1.24-1.71S271.72,206.91,271.72,207.76Z"/><path class="cls-3" d="M276.64,206.72c0-.58,0-1.08,0-1.52h1.11l.05.76h0a1.77,1.77,0,0,1,1.58-.87,1.46,1.46,0,0,1,1.41.94h0a2,2,0,0,1,.64-.64,1.67,1.67,0,0,1,1-.3c.85,0,1.71.57,1.71,2.21v3h-1.25v-2.82c0-.85-.3-1.35-.92-1.35a1,1,0,0,0-.9.68,1.86,1.86,0,0,0-.06.43v3.06h-1.26v-3c0-.71-.29-1.21-.89-1.21a1,1,0,0,0-.92.73,1.16,1.16,0,0,0-.07.42v3h-1.26Z"/><path class="cls-3" d="M286.92,203.77a.69.69,0,0,1-.74.7.68.68,0,0,1-.71-.7.69.69,0,0,1,.72-.7A.7.7,0,0,1,286.92,203.77Zm-1.38,6.54V205.2h1.3v5.11Z"/><path class="cls-3" d="M287.75,209.57l1.92-2.46c.26-.31.48-.57.75-.86v0h-2.48v-1H292V206l-1.88,2.4a10.76,10.76,0,0,1-.76.87v0h2.7v1h-4.31Z"/><path class="cls-3" d="M295.83,210.31l-.08-.56h0a1.87,1.87,0,0,1-1.51.68,1.51,1.51,0,0,1-1.6-1.52c0-1.29,1.14-1.95,3-1.93v-.09c0-.33-.13-.89-1-.89a2.69,2.69,0,0,0-1.37.38l-.26-.84a3.7,3.7,0,0,1,1.85-.45,1.91,1.91,0,0,1,2.11,2.15v1.85a7.11,7.11,0,0,0,.08,1.22Zm-.17-2.49c-.91,0-1.78.17-1.78,1a.68.68,0,0,0,.73.74,1,1,0,0,0,1-.71,1,1,0,0,0,0-.28Z"/><path class="cls-3" d="M299.77,203.74v1.46H301v1h-1.23v2.25c0,.62.17,1,.66,1a1.93,1.93,0,0,0,.5-.06l0,1a2.69,2.69,0,0,1-.94.13,1.5,1.5,0,0,1-1.11-.42,2,2,0,0,1-.4-1.43v-2.4h-.74v-1h.74v-1.15Z"/><path class="cls-3" d="M303.35,203.77a.69.69,0,0,1-.74.7.68.68,0,0,1-.71-.7.73.73,0,0,1,1.45,0ZM302,210.31V205.2h1.31v5.11Z"/><path class="cls-3" d="M309.52,207.71a2.53,2.53,0,0,1-2.62,2.72,2.47,2.47,0,0,1-2.56-2.64,2.52,2.52,0,0,1,2.64-2.7A2.45,2.45,0,0,1,309.52,207.71Zm-3.85,0c0,1,.48,1.74,1.27,1.74s1.25-.73,1.25-1.76c0-.8-.36-1.71-1.24-1.71S305.67,206.91,305.67,207.76Z"/><path class="cls-3" d="M310.58,206.72c0-.58,0-1.08,0-1.52h1.14l.06.77h0a1.85,1.85,0,0,1,1.63-.88c.89,0,1.81.57,1.81,2.19v3h-1.29v-2.88c0-.74-.27-1.29-1-1.29a1.07,1.07,0,0,0-1,.75,1.37,1.37,0,0,0-.06.42v3h-1.3Z"/><path class="cls-3" d="M124,83.33a13.56,13.56,0,0,1,2-.14A4.34,4.34,0,0,1,129,84a3.19,3.19,0,0,1,1.1,2.61,3.66,3.66,0,0,1-1.1,2.81,4.71,4.71,0,0,1-3.2,1,12.5,12.5,0,0,1-1.74-.1Zm1.29,6a5,5,0,0,0,.71,0,2.42,2.42,0,0,0,2.68-2.71,2.25,2.25,0,0,0-2.51-2.46,3.57,3.57,0,0,0-.88.08Z"/><path class="cls-3" d="M134,90.31l-.08-.56h0a1.9,1.9,0,0,1-1.51.68,1.52,1.52,0,0,1-1.61-1.52c0-1.29,1.14-2,3-1.93v-.09c0-.33-.13-.89-1-.89a2.69,2.69,0,0,0-1.37.38l-.25-.84a3.66,3.66,0,0,1,1.84-.45,1.91,1.91,0,0,1,2.11,2.15v1.85a8.29,8.29,0,0,0,.08,1.22Zm-.17-2.49c-.91,0-1.78.17-1.78,1a.68.68,0,0,0,.73.74,1,1,0,0,0,1-.71,1,1,0,0,0,0-.28Z"/><path class="cls-3" d="M138,83.74V85.2h1.23v1H138v2.25c0,.62.17,1,.66,1a2.09,2.09,0,0,0,.51-.06l0,1a2.69,2.69,0,0,1-.94.13,1.5,1.5,0,0,1-1.11-.42,2.05,2.05,0,0,1-.4-1.43v-2.4H136v-1h.73V84.05Z"/><path class="cls-3" d="M143.05,90.31l-.08-.56h0a1.91,1.91,0,0,1-1.52.68,1.52,1.52,0,0,1-1.6-1.52c0-1.29,1.14-2,3-1.93v-.09c0-.33-.13-.89-1-.89a2.69,2.69,0,0,0-1.37.38l-.25-.84a3.66,3.66,0,0,1,1.84-.45,1.91,1.91,0,0,1,2.11,2.15v1.85a8.29,8.29,0,0,0,.08,1.22Zm-.17-2.49c-.91,0-1.78.17-1.78,1a.68.68,0,0,0,.73.74,1,1,0,0,0,1-.71,1,1,0,0,0,0-.28Z"/><path class="cls-3" d="M147.68,86.72c0-.58,0-1.08,0-1.52h1.11l.06.76h0a1.76,1.76,0,0,1,1.57-.87,1.47,1.47,0,0,1,1.42.94h0a2,2,0,0,1,.63-.64,1.7,1.7,0,0,1,1-.3c.85,0,1.71.57,1.71,2.21v3H154V87.49c0-.85-.29-1.35-.91-1.35a1,1,0,0,0-.91.68,1.86,1.86,0,0,0-.06.43v3.06h-1.26v-3c0-.71-.28-1.21-.88-1.21a1.17,1.17,0,0,0-1,1.15v3h-1.26Z"/><path class="cls-3" d="M158,83.77a.73.73,0,0,1-1.45,0,.7.7,0,0,1,.73-.7A.69.69,0,0,1,158,83.77Zm-1.37,6.54V85.2h1.3v5.11Z"/><path class="cls-3" d="M159.27,86.72c0-.58,0-1.08,0-1.52h1.14l.06.77h0a1.85,1.85,0,0,1,1.63-.88c.89,0,1.81.57,1.81,2.19v3h-1.29V87.43c0-.74-.27-1.29-1-1.29a1.08,1.08,0,0,0-1,.75,1.38,1.38,0,0,0,0,.42v3h-1.31Z"/><path class="cls-3" d="M166.66,83.77a.69.69,0,0,1-.74.7.68.68,0,0,1-.71-.7.69.69,0,0,1,.72-.7A.7.7,0,0,1,166.66,83.77Zm-1.38,6.54V85.2h1.3v5.11Z"/><path class="cls-3" d="M168,86.72c0-.58,0-1.08,0-1.52h1.13l.06.77h0a1.86,1.86,0,0,1,1.63-.88c.89,0,1.82.57,1.82,2.19v3h-1.29V87.43c0-.74-.28-1.29-1-1.29a1.09,1.09,0,0,0-1,.75,1.38,1.38,0,0,0,0,.42v3H168Z"/><path class="cls-3" d="M178.65,85.2c0,.35-.05.77-.05,1.47v2.9a2.46,2.46,0,0,1-2.72,2.94,3.64,3.64,0,0,1-1.79-.41l.28-1a3.08,3.08,0,0,0,1.49.39A1.36,1.36,0,0,0,177.33,90v-.44h0a1.72,1.72,0,0,1-1.49.75,2.27,2.27,0,0,1-2.17-2.5A2.44,2.44,0,0,1,176,85.09a1.6,1.6,0,0,1,1.48.79h0l.05-.68Zm-1.34,2a1.34,1.34,0,0,0,0-.35,1.08,1.08,0,0,0-1.05-.83c-.72,0-1.26.63-1.26,1.67,0,.87.44,1.58,1.25,1.58a1.11,1.11,0,0,0,1-.78,2.4,2.4,0,0,0,.05-.46Z"/><path class="cls-3" d="M179.38,91.58a16.53,16.53,0,0,0,.71-2.77l1.35-.1a13.22,13.22,0,0,1-1.18,2.79Z"/><path class="cls-3" d="M188.4,90.16a3.86,3.86,0,0,1-1.45.26,2.45,2.45,0,0,1-2.63-2.6,2.64,2.64,0,0,1,2.84-2.73,3.16,3.16,0,0,1,1.25.24l-.23,1a2.33,2.33,0,0,0-1-.2,1.66,1.66,0,0,0,0,3.31,2.41,2.41,0,0,0,1-.2Z"/><path class="cls-3" d="M189.36,82.86h1.3v7.45h-1.3Z"/><path class="cls-3" d="M193,88.12a1.38,1.38,0,0,0,1.57,1.32,3.8,3.8,0,0,0,1.42-.23l.19.89a4.78,4.78,0,0,1-1.79.32,2.42,2.42,0,0,1-2.63-2.58,2.53,2.53,0,0,1,2.5-2.75,2.21,2.21,0,0,1,2.2,2.48,3.35,3.35,0,0,1,0,.55Zm2.24-.9A1.09,1.09,0,0,0,194.15,86,1.26,1.26,0,0,0,193,87.22Z"/><path class="cls-3" d="M200.35,90.31l-.08-.56h0a1.89,1.89,0,0,1-1.51.68,1.51,1.51,0,0,1-1.6-1.52c0-1.29,1.14-2,3-1.93v-.09c0-.33-.14-.89-1-.89a2.69,2.69,0,0,0-1.37.38l-.26-.84a3.7,3.7,0,0,1,1.85-.45,1.91,1.91,0,0,1,2.11,2.15v1.85a8.45,8.45,0,0,0,.07,1.22Zm-.17-2.49c-.91,0-1.78.17-1.78,1a.68.68,0,0,0,.73.74,1,1,0,0,0,1-.71,1,1,0,0,0,0-.28Z"/><path class="cls-3" d="M202.81,86.72c0-.58,0-1.08-.05-1.52h1.14L204,86h0a1.85,1.85,0,0,1,1.63-.88c.89,0,1.82.57,1.82,2.19v3h-1.29V87.43c0-.74-.28-1.29-1-1.29a1.08,1.08,0,0,0-1,.75,1.38,1.38,0,0,0,0,.42v3h-1.3Z"/><path class="cls-3" d="M208.75,89.13a2.85,2.85,0,0,0,1.31.37c.57,0,.82-.24.82-.57s-.21-.53-.84-.75c-1-.34-1.42-.89-1.41-1.49,0-.9.75-1.6,1.94-1.6a3,3,0,0,1,1.35.3l-.25.91a2.37,2.37,0,0,0-1.08-.29c-.46,0-.72.22-.72.53s.24.49.9.72c.92.33,1.35.81,1.36,1.56,0,.93-.72,1.6-2.08,1.6a3.28,3.28,0,0,1-1.55-.36Z"/><path class="cls-3" d="M214.57,83.77a.69.69,0,0,1-.74.7.68.68,0,0,1-.71-.7.69.69,0,0,1,.72-.7A.7.7,0,0,1,214.57,83.77Zm-1.38,6.54V85.2h1.3v5.11Z"/><path class="cls-3" d="M215.88,86.72c0-.58,0-1.08,0-1.52H217L217,86h0a1.83,1.83,0,0,1,1.62-.88c.89,0,1.82.57,1.82,2.19v3h-1.29V87.43c0-.74-.28-1.29-1-1.29a1.09,1.09,0,0,0-1,.75,1.38,1.38,0,0,0,0,.42v3h-1.3Z"/><path class="cls-3" d="M226.56,85.2c0,.35-.05.77-.05,1.47v2.9a2.46,2.46,0,0,1-2.72,2.94A3.64,3.64,0,0,1,222,92.1l.28-1a3.12,3.12,0,0,0,1.49.39A1.36,1.36,0,0,0,225.24,90v-.44h0a1.72,1.72,0,0,1-1.49.75,2.27,2.27,0,0,1-2.17-2.5,2.44,2.44,0,0,1,2.32-2.69,1.6,1.6,0,0,1,1.48.79h0l.05-.68Zm-1.34,2a1.34,1.34,0,0,0,0-.35,1.08,1.08,0,0,0-1.05-.83c-.72,0-1.26.63-1.26,1.67,0,.87.44,1.58,1.25,1.58a1.11,1.11,0,0,0,1-.78,2.4,2.4,0,0,0,.05-.46Z"/><path class="cls-3" d="M134.67,101.31l-.09-.56h0a1.89,1.89,0,0,1-1.51.68,1.52,1.52,0,0,1-1.61-1.52c0-1.29,1.15-2,3-1.93v-.09c0-.33-.14-.89-1-.89a2.72,2.72,0,0,0-1.38.38l-.25-.84a3.7,3.7,0,0,1,1.85-.45,1.91,1.91,0,0,1,2.11,2.15v1.85a8.45,8.45,0,0,0,.07,1.22Zm-.17-2.49c-.91,0-1.79.17-1.79,1a.69.69,0,0,0,.74.74,1.06,1.06,0,0,0,1-.71,1,1,0,0,0,0-.28Z"/><path class="cls-3" d="M137.13,97.72c0-.58,0-1.08,0-1.52h1.14l.06.77h0a1.85,1.85,0,0,1,1.63-.88c.89,0,1.81.57,1.81,2.19v3h-1.29V98.43c0-.74-.27-1.29-1-1.29a1.08,1.08,0,0,0-1,.75,1.38,1.38,0,0,0,0,.42v3h-1.3Z"/><path class="cls-3" d="M147.84,93.86v6c0,.52,0,1.09,0,1.43h-1.16l0-.8h0a1.86,1.86,0,0,1-1.67.92,2.34,2.34,0,0,1-2.18-2.61,2.42,2.42,0,0,1,2.28-2.73,1.62,1.62,0,0,1,1.44.67h0v-2.9Zm-1.29,4.47a1.84,1.84,0,0,0,0-.33,1.12,1.12,0,0,0-1.11-.92c-.83,0-1.29.74-1.29,1.69s.46,1.62,1.28,1.62a1.14,1.14,0,0,0,1.11-.91,1.53,1.53,0,0,0,0-.38Z"/><path class="cls-3" d="M152.88,94.74V96.2h1.23v1h-1.23v2.25c0,.62.17,1,.67,1a2,2,0,0,0,.5-.06l0,1a2.63,2.63,0,0,1-.93.13A1.52,1.52,0,0,1,152,101a2.06,2.06,0,0,1-.39-1.43v-2.4h-.74v-1h.74V95.05Z"/><path class="cls-3" d="M155.09,97.85c0-.69,0-1.19,0-1.65h1.12l0,1h0a1.51,1.51,0,0,1,1.39-1.09,1.48,1.48,0,0,1,.31,0v1.21a1.92,1.92,0,0,0-.38,0,1.15,1.15,0,0,0-1.16,1,2.25,2.25,0,0,0,0,.4v2.64h-1.29Z"/><path class="cls-3" d="M161.71,101.31l-.09-.56h0a1.9,1.9,0,0,1-1.51.68,1.52,1.52,0,0,1-1.61-1.52c0-1.29,1.15-2,3-1.93v-.09c0-.33-.13-.89-1-.89a2.72,2.72,0,0,0-1.38.38l-.25-.84a3.7,3.7,0,0,1,1.85-.45,1.92,1.92,0,0,1,2.11,2.15v1.85a8.45,8.45,0,0,0,.07,1.22Zm-.17-2.49c-.92,0-1.79.17-1.79,1a.69.69,0,0,0,.74.74,1,1,0,0,0,1-.71.72.72,0,0,0,0-.28Z"/><path class="cls-3" d="M164.16,97.72c0-.58,0-1.08,0-1.52h1.13l.07.77h0a1.85,1.85,0,0,1,1.63-.88c.89,0,1.81.57,1.81,2.19v3H167.5V98.43c0-.74-.27-1.29-1-1.29a1.06,1.06,0,0,0-1,.75,1.12,1.12,0,0,0-.06.42v3h-1.3Z"/><path class="cls-3" d="M170.11,100.13a2.85,2.85,0,0,0,1.31.37c.56,0,.82-.24.82-.57s-.21-.53-.84-.75c-1-.34-1.42-.89-1.41-1.49,0-.9.74-1.6,1.93-1.6a3,3,0,0,1,1.36.3l-.26.91a2.37,2.37,0,0,0-1.08-.29c-.46,0-.71.22-.71.53s.24.49.89.72c.92.33,1.35.81,1.37,1.56,0,.93-.73,1.6-2.08,1.6a3.33,3.33,0,0,1-1.56-.36Z"/><path class="cls-3" d="M174.69,101.31V97.17H174v-1h.69V96a2.39,2.39,0,0,1,.62-1.74,2,2,0,0,1,1.34-.49,2.65,2.65,0,0,1,.83.12l-.1,1a1.54,1.54,0,0,0-.55-.1c-.64,0-.86.54-.86,1.17v.26h1.13v1H176v4.14Z"/><path class="cls-3" d="M182.76,98.71a2.54,2.54,0,0,1-2.63,2.72,2.47,2.47,0,0,1-2.56-2.64,2.52,2.52,0,0,1,2.65-2.7A2.45,2.45,0,0,1,182.76,98.71Zm-3.86.05c0,1,.49,1.74,1.27,1.74s1.25-.73,1.25-1.76c0-.8-.35-1.71-1.24-1.71S178.9,97.91,178.9,98.76Z"/><path class="cls-3" d="M183.82,97.85c0-.69,0-1.19,0-1.65h1.12l0,1h0a1.52,1.52,0,0,1,1.4-1.09,1.32,1.32,0,0,1,.3,0v1.21a1.82,1.82,0,0,0-.37,0,1.15,1.15,0,0,0-1.16,1,2.25,2.25,0,0,0,0,.4v2.64h-1.29Z"/><path class="cls-3" d="M187.56,97.72c0-.58,0-1.08-.05-1.52h1.12l.05.76h0a1.76,1.76,0,0,1,1.58-.87,1.46,1.46,0,0,1,1.41.94h0a2,2,0,0,1,.63-.64,1.72,1.72,0,0,1,1-.3c.85,0,1.71.57,1.71,2.21v3h-1.26V98.49c0-.85-.29-1.35-.91-1.35a1,1,0,0,0-.9.68,1.84,1.84,0,0,0-.07.43v3.06h-1.26v-3c0-.71-.28-1.21-.88-1.21a1,1,0,0,0-.92.73,1.16,1.16,0,0,0-.07.42v3h-1.26Z"/><path class="cls-3" d="M199.34,101.31l-.09-.56h0a1.89,1.89,0,0,1-1.51.68,1.52,1.52,0,0,1-1.61-1.52c0-1.29,1.15-2,3-1.93v-.09c0-.33-.14-.89-1-.89a2.72,2.72,0,0,0-1.38.38l-.25-.84a3.7,3.7,0,0,1,1.85-.45,1.91,1.91,0,0,1,2.11,2.15v1.85a8.45,8.45,0,0,0,.07,1.22Zm-.17-2.49c-.92,0-1.79.17-1.79,1a.69.69,0,0,0,.74.74,1.06,1.06,0,0,0,1-.71,1,1,0,0,0,0-.28Z"/><path class="cls-3" d="M203.27,94.74V96.2h1.23v1h-1.23v2.25c0,.62.17,1,.67,1a2,2,0,0,0,.5-.06l0,1a2.63,2.63,0,0,1-.93.13,1.51,1.51,0,0,1-1.12-.42,2.05,2.05,0,0,1-.4-1.43v-2.4h-.73v-1H202V95.05Z"/><path class="cls-3" d="M206.85,94.77a.72.72,0,1,1-.72-.7A.69.69,0,0,1,206.85,94.77Zm-1.37,6.54V96.2h1.3v5.11Z"/><path class="cls-3" d="M213,98.71a2.53,2.53,0,0,1-2.63,2.72,2.47,2.47,0,0,1-2.56-2.64,2.52,2.52,0,0,1,2.65-2.7A2.45,2.45,0,0,1,213,98.71Zm-3.86.05c0,1,.49,1.74,1.28,1.74s1.24-.73,1.24-1.76c0-.8-.35-1.71-1.23-1.71S209.17,97.91,209.17,98.76Z"/><path class="cls-3" d="M214.09,97.72c0-.58,0-1.08,0-1.52h1.13l.06.77h0a1.83,1.83,0,0,1,1.62-.88c.89,0,1.82.57,1.82,2.19v3h-1.29V98.43c0-.74-.28-1.29-1-1.29a1.09,1.09,0,0,0-1,.75,1.38,1.38,0,0,0-.05.42v3h-1.3Z"/><path class="cls-4" d="M144.08,159.81a22.75,22.75,0,0,1,3.53-.25,7.41,7.41,0,0,1,4.95,1.4,5.45,5.45,0,0,1,1.9,4.47,6.24,6.24,0,0,1-1.9,4.82,8.08,8.08,0,0,1-5.49,1.66,24.36,24.36,0,0,1-3-.16Zm2.22,10.28a8.8,8.8,0,0,0,1.22,0c2.88,0,4.59-1.56,4.59-4.64,0-2.68-1.53-4.21-4.3-4.21a7.27,7.27,0,0,0-1.51.12Z"/><path class="cls-4" d="M161.22,171.78l-.14-1H161a3.27,3.27,0,0,1-2.59,1.17,2.6,2.6,0,0,1-2.75-2.61c0-2.21,2-3.33,5.2-3.31v-.15c0-.57-.23-1.53-1.78-1.53a4.6,4.6,0,0,0-2.36.65l-.43-1.44a6.23,6.23,0,0,1,3.16-.77c2.81,0,3.62,1.78,3.62,3.69v3.17a13.93,13.93,0,0,0,.13,2.1Zm-.29-4.28c-1.56,0-3.06.3-3.06,1.64a1.16,1.16,0,0,0,1.26,1.26,1.79,1.79,0,0,0,1.73-1.21,1.42,1.42,0,0,0,.07-.49Z"/><path class="cls-4" d="M168,160.51V163h2.11v1.66H168v3.87c0,1.06.29,1.62,1.14,1.62a3,3,0,0,0,.86-.11l0,1.7a5.11,5.11,0,0,1-1.61.21,2.58,2.58,0,0,1-1.91-.72,3.52,3.52,0,0,1-.68-2.45v-4.12h-1.26V163h1.26v-2Z"/><path class="cls-4" d="M176.68,171.78l-.14-1h0a3.28,3.28,0,0,1-2.6,1.17,2.6,2.6,0,0,1-2.75-2.61c0-2.21,2-3.33,5.2-3.31v-.15c0-.57-.23-1.53-1.78-1.53a4.6,4.6,0,0,0-2.36.65l-.43-1.44a6.28,6.28,0,0,1,3.17-.77c2.81,0,3.62,1.78,3.62,3.69v3.17a14.08,14.08,0,0,0,.12,2.1Zm-.28-4.28c-1.57,0-3.07.3-3.07,1.64a1.16,1.16,0,0,0,1.26,1.26,1.78,1.78,0,0,0,1.73-1.21,1.44,1.44,0,0,0,.08-.49Z"/><path class="cls-4" d="M184.84,166.22v1.53h-4.59v-1.53Z"/><path class="cls-4" d="M191.5,171.78l-.15-1h0a3.27,3.27,0,0,1-2.59,1.17,2.6,2.6,0,0,1-2.76-2.61c0-2.21,2-3.33,5.21-3.31v-.15c0-.57-.24-1.53-1.79-1.53A4.66,4.66,0,0,0,187,165l-.43-1.44a6.28,6.28,0,0,1,3.17-.77c2.81,0,3.62,1.78,3.62,3.69v3.17a13.93,13.93,0,0,0,.13,2.1Zm-.29-4.28c-1.57,0-3.06.3-3.06,1.64a1.16,1.16,0,0,0,1.26,1.26,1.8,1.8,0,0,0,1.73-1.21,1.71,1.71,0,0,0,.07-.49Z"/><path class="cls-4" d="M195.6,169.75a5,5,0,0,0,2.25.63c1,0,1.4-.4,1.4-1s-.36-.9-1.44-1.28c-1.71-.6-2.43-1.53-2.41-2.56,0-1.55,1.28-2.75,3.31-2.75a5.18,5.18,0,0,1,2.33.52l-.43,1.56a4.06,4.06,0,0,0-1.86-.5c-.79,0-1.22.38-1.22.92s.41.83,1.53,1.22c1.58.58,2.32,1.39,2.34,2.69,0,1.58-1.25,2.73-3.57,2.73a5.65,5.65,0,0,1-2.66-.61Z"/><path class="cls-4" d="M207.16,166.22v1.53h-4.6v-1.53Z"/><path class="cls-4" d="M146.8,189.78l-.14-1h0A3.28,3.28,0,0,1,144,190a2.6,2.6,0,0,1-2.75-2.61c0-2.21,2-3.33,5.2-3.31v-.15c0-.57-.23-1.53-1.78-1.53a4.6,4.6,0,0,0-2.36.65l-.43-1.44a6.28,6.28,0,0,1,3.17-.77c2.81,0,3.62,1.78,3.62,3.69v3.17a14.08,14.08,0,0,0,.12,2.1Zm-.28-4.28c-1.57,0-3.06.3-3.06,1.64a1.16,1.16,0,0,0,1.25,1.26,1.78,1.78,0,0,0,1.73-1.21,1.44,1.44,0,0,0,.08-.49Z"/><path class="cls-4" d="M155,184.22v1.53h-4.59v-1.53Z"/><path class="cls-4" d="M156.58,187.75a5,5,0,0,0,2.25.63c1,0,1.4-.4,1.4-1s-.36-.9-1.44-1.28c-1.71-.6-2.43-1.53-2.41-2.56,0-1.55,1.28-2.75,3.31-2.75a5.13,5.13,0,0,1,2.32.52l-.43,1.56a4,4,0,0,0-1.85-.5c-.8,0-1.23.38-1.23.92s.42.83,1.53,1.22c1.59.58,2.33,1.39,2.34,2.69,0,1.58-1.24,2.73-3.56,2.73a5.69,5.69,0,0,1-2.67-.61Z"/><path class="cls-4" d="M165.76,186c.05,1.58,1.29,2.27,2.7,2.27a6.66,6.66,0,0,0,2.43-.4l.32,1.53a8.15,8.15,0,0,1-3.06.54,4.15,4.15,0,0,1-4.52-4.43c0-2.43,1.48-4.71,4.29-4.71s3.78,2.34,3.78,4.26a6.22,6.22,0,0,1-.07.94Zm3.85-1.55a1.88,1.88,0,0,0-1.82-2.14,2.16,2.16,0,0,0-2,2.14Z"/><path class="cls-4" d="M173.48,183.84c0-1.19,0-2-.07-2.83h1.92l.07,1.68h.08a2.6,2.6,0,0,1,2.39-1.87,2.09,2.09,0,0,1,.52.05V183a2.77,2.77,0,0,0-.64-.07,2,2,0,0,0-2,1.67,4.46,4.46,0,0,0-.07.69v4.53h-2.21Z"/><path class="cls-4" d="M181.29,181l1.42,4.45c.25.78.43,1.48.6,2.2h.05c.16-.72.36-1.41.6-2.2l1.38-4.45h2.34l-3.35,8.77h-2.18L178.89,181Z"/><path class="cls-4" d="M191.39,178.57a1.25,1.25,0,0,1-2.49,0,1.25,1.25,0,0,1,2.49,0ZM189,189.78V181h2.23v8.77Z"/><path class="cls-4" d="M200.08,189.51a6.27,6.27,0,0,1-2.48.45,4.21,4.21,0,0,1-4.52-4.46,4.53,4.53,0,0,1,4.88-4.68,5.58,5.58,0,0,1,2.14.41l-.39,1.66a3.84,3.84,0,0,0-1.68-.35,2.84,2.84,0,0,0,0,5.68,4.38,4.38,0,0,0,1.75-.35Z"/><path class="cls-4" d="M203.29,186c.05,1.58,1.29,2.27,2.7,2.27a6.66,6.66,0,0,0,2.43-.4l.32,1.53a8.19,8.19,0,0,1-3.06.54,4.15,4.15,0,0,1-4.52-4.43c0-2.43,1.48-4.71,4.29-4.71s3.78,2.34,3.78,4.26a6.22,6.22,0,0,1-.07.94Zm3.85-1.55a1.88,1.88,0,0,0-1.82-2.14,2.16,2.16,0,0,0-2,2.14Z"/><path class="cls-3" d="M156,56.47c0,2,0,4.11,0,6.2,0,.3.35.67.64.86a11.4,11.4,0,0,0,4,1.49c1.08.24,2.17.43,3.31.65l-.23,1.67A22.47,22.47,0,0,1,156,65.16a3.13,3.13,0,0,1-1.74-3c.06-5.34,0-10.69,0-16q0-9.09,0-18.16a2.38,2.38,0,0,1,.72-1.76,7.5,7.5,0,0,1,3.08-1.71.71.71,0,0,0,.58-.7,3.39,3.39,0,0,1,2.76-3.11,3.44,3.44,0,0,1,3.83,2,.52.52,0,0,0,.61.34,63.06,63.06,0,0,1,12.44.09A27.14,27.14,0,0,1,186,24.81,9.77,9.77,0,0,1,188,26a2.53,2.53,0,0,1,1,2.21c0,2.27,0,4.53,0,6.79,0,1.87,0,3.75,0,5.62a.62.62,0,0,0,.52.72c.7.25,1.37.6,2.05.89.29.13.42.31.33.62,0,.06,0,.12,0,.17a1.77,1.77,0,0,0,.59,1.8,2.12,2.12,0,0,0,2.2.76.6.6,0,0,1,.5.29c.39.87.76,1.75,1.09,2.64,0,.16-.1.4-.17.59a.5.5,0,0,1-.17.15,1.41,1.41,0,0,0-.76,1.66V51a1.36,1.36,0,0,0,.77,1.63.63.63,0,0,1,.29.91c-.34.77-.64,1.55-.95,2.33a.57.57,0,0,1-.75.41c-.86-.25-1.4.15-2,.74a1.74,1.74,0,0,0-.61,1.9.56.56,0,0,1-.4.76c-.7.29-1.39.61-2.1.89-.27.11-.41.22-.39.53s0,.84,0,1.26a2.68,2.68,0,0,1-1.27,2.48,10.77,10.77,0,0,1-4.39,1.77c-2.41.43-4.84.72-7.26,1.06-.28,0-.57,0-.9.08V70.6l-6.61-3.81,6.58-3.8v3c.82-.06,1.58-.1,2.33-.17a30.47,30.47,0,0,0,7.73-1.6c.13,0,.25-.11.38-.15a2.12,2.12,0,0,0,1.7-2.56,12.27,12.27,0,0,1,0-2c-.62,0-1.19,0-1.75,0a1,1,0,0,0-.52.38c-.8,1-.79,1-2,.53-.18-.06-.36-.12-.54-.2-.89-.4-2-.63-1.41-2.07C172.53,59.32,164.19,59.54,156,56.47Zm0-26.25c0,1.76.05,3.47,0,5.17a1.56,1.56,0,0,0,1.08,1.73,33.48,33.48,0,0,0,4.08,1.33,49.62,49.62,0,0,0,12,1,42.48,42.48,0,0,0,9-1A34.93,34.93,0,0,0,186.43,37a1.25,1.25,0,0,0,.81-1.38c-.05-.76,0-1.53,0-2.29V30.21l-.27.09a17.77,17.77,0,0,1-5.07,1.62,55.73,55.73,0,0,1-13,.82C164.48,32.53,160.12,32.15,156,30.22Zm0,8.35a4.21,4.21,0,0,0,0,.45c0,1.78,0,3.56,0,5.34a1.36,1.36,0,0,0,.9,1.49,24.42,24.42,0,0,0,3.38,1.23,51.43,51.43,0,0,0,15.7,1c.52,0,.85-.19.95-.73a2.53,2.53,0,0,1,.26-.64c.53-1.21.53-1.21,1.82-1.12h.11A3.94,3.94,0,0,0,181,43.88s0-.07,0-.11c-.08-1.49-.08-1.49,1.31-2.09.22-.1.46-.2.69-.28,1.15-.41,1.14-.4,1.94.52.15.18.36.4.56.41a14,14,0,0,0,1.69-.07V38.63a.37.37,0,0,0-.14,0,25.91,25.91,0,0,1-9.31,2.26,61.15,61.15,0,0,1-12.1,0A27.07,27.07,0,0,1,156,38.57Zm37.26,16c.2-.05.6,0,.75-.21s.42-.78-.14-1.08a1.18,1.18,0,0,1-.6-1.51,3.09,3.09,0,0,0,0-1.54,1.28,1.28,0,0,1,.65-1.61c.25-.15.43-.31.28-.69s-.37-.65-.83-.51a1.17,1.17,0,0,1-1.51-.62,3.59,3.59,0,0,0-1.12-1.14,1.36,1.36,0,0,1-.74-1.73c.12-.37-.08-.56-.44-.72s-.56,0-.76.26-.26.28-.36.44a.65.65,0,0,1-.76.3,5.58,5.58,0,0,0-2-.08,1.46,1.46,0,0,1-1.85-.73c-.15-.28-.36-.31-.67-.2s-.58.38-.46.81a1.2,1.2,0,0,1-.6,1.53,4,4,0,0,0-1.25,1.24,1.23,1.23,0,0,1-1.55.64c-.39-.12-.63,0-.78.43s-.1.58.23.76a1.27,1.27,0,0,1,.67,1.64,2.89,2.89,0,0,0,0,1.37,1.39,1.39,0,0,1-.75,1.78c-.3.17-.26.39-.16.68s.33.55.76.45a1.28,1.28,0,0,1,1.58.64,5.07,5.07,0,0,0,1.38,1.35,1,1,0,0,1,.5,1.24,2.54,2.54,0,0,0,0,.29c-.1.37.08.54.41.68s.56.12.76-.2a1.52,1.52,0,0,1,.45-.52,1.28,1.28,0,0,1,.67-.25q1.36,0,2.73,0a1.27,1.27,0,0,1,.68.26,1.7,1.7,0,0,1,.41.47c.19.28.37.43.75.26s.53-.33.45-.73c0-.2,0-.42-.08-.62s.06-.5.31-.71A12.94,12.94,0,0,0,192,55,1,1,0,0,1,193.29,54.52ZM156,47.45c0,2,0,3.93,0,5.88a1.3,1.3,0,0,0,.82,1.42A23.81,23.81,0,0,0,160.34,56a51,51,0,0,0,17.68.77c.56-.07,1.12-.16,1.67-.24l0-.21a2.34,2.34,0,0,0-.58-.14,7,7,0,0,0-.91.08.5.5,0,0,1-.63-.34c-.34-.86-.71-1.72-1-2.6-.05-.15,0-.47.12-.53a1.91,1.91,0,0,0,1-2.29,1,1,0,0,1,0-.17c0-.66,0-.68-.68-.64-1.33.08-2.67.23-4,.24C167.2,50,161.48,49.82,156,47.45Zm16.49-16.33c1.3-.09,3.46-.17,5.61-.38a25.8,25.8,0,0,0,7.2-1.59,7.57,7.57,0,0,0,1.59-.9c.44-.31.43-.65,0-1a5.84,5.84,0,0,0-1.22-.74,26.28,26.28,0,0,0-7.52-1.73,61.51,61.51,0,0,0-11.75-.15c-.59.05-1,.11-1.15.79a1.59,1.59,0,0,1-.33.61,3.47,3.47,0,0,1-5.51.26c-.12-.14-.39-.31-.51-.26a16.19,16.19,0,0,0-2.26,1c-.87.51-.87,1,0,1.5a15.83,15.83,0,0,0,3,1.2C163.55,30.83,167.58,31,172.49,31.12Zm-8.66-7a1.8,1.8,0,0,0-1.76-1.77,1.83,1.83,0,0,0-1.76,1.77,1.8,1.8,0,0,0,1.77,1.75A1.77,1.77,0,0,0,163.83,24.07Z"/><path class="cls-3" d="M267.75,174.24H284v1.58H266.13V175q0-19.4,0-38.78a.86.86,0,0,0-.58-1,3.19,3.19,0,0,1-1.83-3.49,3.25,3.25,0,0,1,2.72-2.67,3.17,3.17,0,0,1,3.39,1.73.83.83,0,0,0,.92.55h17.33a1.28,1.28,0,0,1,1,.42q4.11,4.14,8.25,8.26a1.19,1.19,0,0,1,.41,1q0,4.92,0,9.84v.72h3L297,158.15l-3.75-6.5h2.91c0-.23,0-.39,0-.55,0-3.15,0-6.3,0-9.45a1.14,1.14,0,0,0-.32-.76q-3.75-3.79-7.54-7.55a1.24,1.24,0,0,0-.77-.32c-5.6,0-11.21,0-16.82,0a.58.58,0,0,0-.67.46,2.86,2.86,0,0,1-1.78,1.88c-.42.16-.49.38-.49.78q0,15.06,0,30.12v8ZM267,134a1.64,1.64,0,1,0,0-3.27,1.64,1.64,0,1,0,0,3.27Z"/><path class="cls-3" d="M290.34,166a1,1,0,0,0,1.17-.48.64.64,0,0,1,.2-.2,1.1,1.1,0,0,0,.53-1.36.72.72,0,0,1,.5-1c.68-.25,1.34-.55,2-.78a.67.67,0,0,1,.59.19c.54,1.08,1.53.8,2.39.77.25,0,.53-.43.72-.7a.6.6,0,0,1,.81-.25l2.1.89c.28.12.42.31.31.61-.42,1.16.57,1.61,1.16,2.22.16.17.68.06,1,0a.5.5,0,0,1,.65.34c.29.72.59,1.44.88,2.17a.5.5,0,0,1-.24.7c-1,.51-.74,1.44-.68,2.25,0,.26.44.52.71.72a.52.52,0,0,1,.22.67l-.88,2.16a.52.52,0,0,1-.69.36,1.56,1.56,0,0,0-1,0,4.08,4.08,0,0,0-1.18,1.16c-.15.23-.05.66,0,1a.56.56,0,0,1-.38.74c-.69.27-1.38.56-2.06.85-.32.13-.59.11-.75-.23-.52-1.08-1.51-.72-2.34-.71-.24,0-.52.44-.72.71a.56.56,0,0,1-.76.23c-.65-.26-1.3-.54-2-.79a.72.72,0,0,1-.48-.92c0-.28.14-.67,0-.85a4.41,4.41,0,0,0-1.19-1.17c-.24-.16-.69,0-1,0a.48.48,0,0,1-.61-.32c-.29-.74-.59-1.48-.9-2.21a.44.44,0,0,1,.21-.65c1-.53.74-1.48.69-2.31,0-.24-.42-.48-.68-.68a.53.53,0,0,1-.21-.71c.25-.62.47-1.25.71-1.87S289.72,165.7,290.34,166Zm4.29-2c-.64.05-.81.33-.67.83a.87.87,0,0,1-.44,1.11,3.58,3.58,0,0,0-1.09,1,1.32,1.32,0,0,1-1.55.71c-.35-.08-.69.38-.51.66a1,1,0,0,0,.37.33.9.9,0,0,1,.43,1.12,3.15,3.15,0,0,0,0,1.33,1.34,1.34,0,0,1-.63,1.68.47.47,0,0,0-.1.46c.06.15.3.35.4.32.87-.25,1.34.22,1.74.86a1.52,1.52,0,0,0,.39.41c.76.52,1.45,1.07.95,2.09.49.45.81.32,1.08-.13a.82.82,0,0,1,1.05-.45,2.49,2.49,0,0,0,1.21.07c.91-.19,1.69-.14,2.06.82.61,0,.78-.32.66-.81a1,1,0,0,1,.53-1.19,4.71,4.71,0,0,0,1.14-1.13c.31-.45.61-.69,1.17-.54s.79-.1.81-.64a5.65,5.65,0,0,0-.48-.4.83.83,0,0,1-.4-1,8.28,8.28,0,0,0,0-2,.61.61,0,0,1,.25-.66,2.64,2.64,0,0,0,.51-.43.5.5,0,0,0,.06-.43.63.63,0,0,0-.35-.33,1.26,1.26,0,0,0-.61,0c-.37.09-.56-.06-.78-.35a5,5,0,0,0-1.18-1.25,1.2,1.2,0,0,1-.63-1.46c.1-.41-.16-.58-.47-.6-.15,0-.37.2-.48.36a1,1,0,0,1-1.2.49,2.29,2.29,0,0,0-1.16-.07C295.75,165,295,165,294.63,164Z"/><path class="cls-3" d="M288.16,159.18H271.25v-1.56h16.91Z"/><path class="cls-3" d="M271.23,163.52V162h16.93v1.53Z"/><path class="cls-3" d="M288.19,140.16v1.53H271.25v-1.53Z"/><path class="cls-3" d="M288.18,144.53V146H271.25v-1.51Z"/><path class="cls-3" d="M288.19,148.88v1.52H271.25v-1.52Z"/><path class="cls-3" d="M271.23,154.76v-1.52h16.94v1.52Z"/><path class="cls-3" d="M271.23,167.85v-1.51H284v1.51Z"/><path class="cls-3" d="M301.44,170.48a4.49,4.49,0,1,1-4.64-4.38A4.51,4.51,0,0,1,301.44,170.48Zm-4.52,3a2.86,2.86,0,1,0-2.84-2.84A2.88,2.88,0,0,0,296.92,173.45Z"/><path class="cls-3" d="M174.72,294.13v2.7c.23,0,.41,0,.58,0h7.37a3.7,3.7,0,0,0,4-4c0-2.56,0-5.11,0-7.67a.86.86,0,0,0-.44-.82,7.62,7.62,0,0,1,0-12.93.89.89,0,0,0,.46-.87c0-2.68,0-5.35,0-8a3.68,3.68,0,0,0-4-4h-2.48v2.61h-17.6V258.6c-1.44.11-2.86-.25-4.23.29a3.54,3.54,0,0,0-2.24,2.75c-.05.25-.11.47.25.62a2.86,2.86,0,0,1,2,2.91,2.93,2.93,0,0,1-2.08,2.78l-.2.1v.64c0,8,0,16.06,0,24.09a3.89,3.89,0,0,0,4.11,4.1c1.54-.06,3.08,0,4.66,0v1.43c-.15,0-.32,0-.49,0-1.52,0-3,0-4.55,0a5.14,5.14,0,0,1-5.22-5.26q0-12.13,0-24.27V268l-.15.12a9.77,9.77,0,0,1-1.63-1.43,2.93,2.93,0,0,1,1.31-4.4.72.72,0,0,0,.52-.61A5.17,5.17,0,0,1,160,257.1h2.52v-2.66h4.74a4.24,4.24,0,0,1,1.8-2.67,4.15,4.15,0,0,1,2.49-.68c1.84.07,3.22,1.23,3.89,3.34h4.69v2.67h2.5a5.2,5.2,0,0,1,5.54,5.55v7.85c3.8-.76,6.92.2,9,3.54a7.08,7.08,0,0,1-.24,8.18c-2.09,3-5.1,3.9-8.73,3.14V293a5.15,5.15,0,0,1-5.33,5.33h-8.08v2.74l-3-1.71-3.08-1.77Zm22-16.21a6.31,6.31,0,1,0-6.27,6.24A6.27,6.27,0,0,0,196.72,277.92Zm-32.61-22v3.8h14.44v-3.8Zm-8.83,7.6a1.56,1.56,0,0,0-1.61,1.55,1.6,1.6,0,0,0,3.19,0A1.55,1.55,0,0,0,155.28,263.54Zm18.5-9.12a2.52,2.52,0,0,0-2.53-1.85,2.44,2.44,0,0,0-2.34,1.85Z"/><path class="cls-3" d="M161.7,272.12h5.45v5.4H161.7Zm1.51,1.51V276h2.44v-2.38Z"/><path class="cls-3" d="M161.7,291.53v-5.38h5.45v5.38Zm1.52-3.9V290h2.43v-2.38Z"/><path class="cls-3" d="M167.16,265.14v5.37H161.7v-5.37ZM163.21,269h2.42v-2.39h-2.42Z"/><path class="cls-3" d="M167.15,284.52h-5.44v-5.36h5.44ZM163.21,283h2.43v-2.41h-2.43Z"/><path class="cls-3" d="M181.9,267.15v1.38H170.22v-1.38Z"/><path class="cls-3" d="M181.91,280.74v1.4H170.23v-1.4Z"/><path class="cls-3" d="M170.21,275.51v-1.38h11.66v1.38Z"/><path class="cls-3" d="M170.22,289.53v-1.4h11.66v1.4Z"/><path class="cls-3" d="M186.49,278l1-1.05,1.91,2.16,4-4.3,1,1.05-5,5.18Z"/><path class="cls-3" d="M55.18,172.52l-5.39,5.39,6.32-1.69L54.31,183l-1.87-2-4.52,4.53c-.76.76-1,.75-1.81,0l-2.38-2.39c-.54-.54-.54-.9,0-1.45q5-5,10-10a.72.72,0,0,0,.18-1,11.89,11.89,0,1,1,12,6.16,11.64,11.64,0,0,1-10.56-4Zm9.22,2.83a10.36,10.36,0,1,0-10.35-10.44A10.39,10.39,0,0,0,64.4,175.35Zm-15,2.93-4.13,4.12L47,184.14l4.1-4.14Z"/><path class="cls-3" d="M64.54,151.55H59.61c-.77,0-1-.22-1-1,0-1.29,0-2.58.05-3.85a4.32,4.32,0,0,1,4.27-3.9h3.15a4.39,4.39,0,0,1,4.31,4.26c0,1.18,0,2.37,0,3.55,0,.68-.26.92-.94.92ZM68.87,150c0-1.06,0-2,0-3a2.8,2.8,0,0,0-2.53-2.62,28,28,0,0,0-3.55,0,2.63,2.63,0,0,0-2.4,1.77c-.5,1.26-.18,2.59-.27,3.9Z"/><path class="cls-3" d="M78.71,151.55h-5c-.6,0-.89-.25-.89-.85,0-1.34,0-2.69.07-4a4.29,4.29,0,0,1,4.31-3.85h2.85a4.4,4.4,0,0,1,4.57,4.48c0,1.09,0,2.18,0,3.27,0,.74-.26,1-1,1ZM83.1,150v-2.67a2.91,2.91,0,0,0-2.9-3c-1,0-2,0-3,0a2.68,2.68,0,0,0-2.69,2,30,30,0,0,0-.26,3.7Z"/><path class="cls-3" d="M50.28,151.55h-4.8c-.9,0-1.06-.17-1.06-1.09v-3.32a4.35,4.35,0,0,1,4.34-4.33h3.08a4.4,4.4,0,0,1,4.34,4.24c0,1.2,0,2.41,0,3.61,0,.64-.26.88-.92.88ZM46,150h8.64v-2.65a2.88,2.88,0,0,0-2.88-3c-1,0-2,0-3,0A2.77,2.77,0,0,0,46,146.56,28.11,28.11,0,0,0,46,150Z"/><path class="cls-3" d="M78.73,142.47a3.17,3.17,0,0,1-3.19-3.19,3.2,3.2,0,1,1,3.19,3.19Zm1.66-3.16A1.66,1.66,0,1,0,78.71,141,1.68,1.68,0,0,0,80.39,139.31Z"/><path class="cls-3" d="M67.69,139.29a3.14,3.14,0,0,1-3.2,3.18,3.19,3.19,0,0,1-3.18-3.21,3.26,3.26,0,0,1,3.19-3.18A3.21,3.21,0,0,1,67.69,139.29Zm-3.19,1.65a1.66,1.66,0,0,0,1.67-1.64,1.66,1.66,0,0,0-3.32,0A1.66,1.66,0,0,0,64.5,140.94Z"/><path class="cls-3" d="M53.48,139.32a3.19,3.19,0,0,1-6.37,0,3.19,3.19,0,1,1,6.37,0Zm-1.55,0a1.65,1.65,0,0,0-1.64-1.66,1.66,1.66,0,1,0,0,3.32A1.65,1.65,0,0,0,51.93,139.29Z"/><path class="cls-3" d="M64.49,171.87H59.63c-.76,0-1-.23-1-1,0-1.29,0-2.58.05-3.85A4.33,4.33,0,0,1,63,163.11h3a4.4,4.4,0,0,1,4.39,4.37c0,1.11,0,2.22,0,3.33,0,.82-.24,1.06-1.05,1.06Zm4.39-1.54v-2.58a4.87,4.87,0,0,0,0-.54,2.91,2.91,0,0,0-2.8-2.57c-1,0-2.06,0-3.08,0a2.69,2.69,0,0,0-2.67,2.05,29,29,0,0,0-.25,3.64Z"/><path class="cls-3" d="M64.5,162.78a3.19,3.19,0,1,1,3.19-3.18A3.15,3.15,0,0,1,64.5,162.78Zm1.67-3.2a1.66,1.66,0,0,0-3.32,0,1.66,1.66,0,1,0,3.32,0Z"/></svg>