<svg id="Layer_1" data-name="Layer 1" xmlns="http://www.w3.org/2000/svg" viewBox="0 0 1310 449"><defs><style>.cls-1{fill:#d8e7da;}.cls-2{fill:#a8d7cd;}.cls-3,.cls-5,.cls-6,.cls-7{fill:none;}.cls-3{stroke:#00b28f;}.cls-3,.cls-6,.cls-7{stroke-miterlimit:10;}.cls-3,.cls-6{stroke-width:2.13px;}.cls-4{fill:#00321d;}.cls-5{stroke:#00321d;stroke-miterlimit:10;}.cls-5,.cls-7{stroke-width:3px;}.cls-6,.cls-7{stroke:#a8d7cd;}</style></defs><title>auto-finance</title><polygon class="cls-1" points="0 0.04 0 449 1310 449 1310 0.14 0 0.04"/><polygon class="cls-2" points="405 19 405 432 1294 432 1294 19.1 405 19"/><line class="cls-3" x1="434.23" y1="171.03" x2="804" y2="172.16"/><path class="cls-4" d="M557.58,92.27v22.81h-4.16V92.27Z"/><path class="cls-4" d="M562.39,103.51c0-1.89,0-3.49-.14-4.91h3.66l.2,2.47h.1a6,6,0,0,1,5.25-2.84c2.88,0,5.86,1.86,5.86,7.07v9.78h-4.17v-9.3c0-2.37-.88-4.16-3.15-4.16a3.49,3.49,0,0,0-3.24,2.43,4.12,4.12,0,0,0-.17,1.36v9.67h-4.2Z"/><path class="cls-4" d="M581.55,111.26a9.23,9.23,0,0,0,4.23,1.19c1.83,0,2.64-.75,2.64-1.83s-.68-1.69-2.71-2.41c-3.21-1.11-4.57-2.87-4.53-4.8,0-2.91,2.4-5.18,6.22-5.18a9.67,9.67,0,0,1,4.37,1l-.81,3a7.35,7.35,0,0,0-3.49-1c-1.49,0-2.3.71-2.3,1.72s.78,1.56,2.88,2.31c3,1.08,4.36,2.6,4.4,5,0,3-2.34,5.14-6.7,5.14a10.6,10.6,0,0,1-5-1.15Z"/><path class="cls-4" d="M610.62,110.14c0,2,.07,3.59.14,4.94H607.1l-.2-2.5h-.07a6,6,0,0,1-5.28,2.88c-3,0-5.75-1.8-5.75-7.18V98.6H600v9c0,2.74.88,4.5,3.08,4.5a3.5,3.5,0,0,0,3.18-2.23,3.66,3.66,0,0,0,.24-1.29v-10h4.16Z"/><path class="cls-4" d="M615.13,103.92c0-2.24,0-3.83-.14-5.32h3.63l.13,3.15h.14a4.92,4.92,0,0,1,4.5-3.52,4.28,4.28,0,0,1,1,.1v3.93a5.62,5.62,0,0,0-1.22-.14,3.67,3.67,0,0,0-3.72,3.15,6.88,6.88,0,0,0-.14,1.29v8.52h-4.16Z"/><path class="cls-4" d="M636.15,115.08l-.27-1.82h-.1a6.15,6.15,0,0,1-4.88,2.2,4.89,4.89,0,0,1-5.17-4.91c0-4.16,3.68-6.26,9.78-6.23v-.27c0-1.08-.44-2.88-3.35-2.88a8.75,8.75,0,0,0-4.44,1.22l-.81-2.7a11.81,11.81,0,0,1,6-1.46c5.28,0,6.8,3.35,6.8,6.94v6a26.18,26.18,0,0,0,.24,4Zm-.54-8c-3-.07-5.76.58-5.76,3.08a2.19,2.19,0,0,0,2.37,2.37,3.36,3.36,0,0,0,3.25-2.27,3,3,0,0,0,.14-.91Z"/><path class="cls-4" d="M644.07,103.51c0-1.89,0-3.49-.13-4.91h3.65l.2,2.47h.11a5.94,5.94,0,0,1,5.24-2.84c2.88,0,5.86,1.86,5.86,7.07v9.78h-4.17v-9.3c0-2.37-.88-4.16-3.14-4.16a3.49,3.49,0,0,0-3.25,2.43,4.12,4.12,0,0,0-.17,1.36v9.67h-4.2Z"/><path class="cls-4" d="M675.55,114.58a12.2,12.2,0,0,1-4.67.84c-5.14,0-8.49-3.28-8.49-8.39,0-4.94,3.38-8.8,9.17-8.8a10.33,10.33,0,0,1,4,.78l-.74,3.11a7.43,7.43,0,0,0-3.15-.64c-3.18,0-5.07,2.33-5,5.35,0,3.38,2.2,5.31,5,5.31a8.17,8.17,0,0,0,3.29-.64Z"/><path class="cls-4" d="M681.27,108c.11,3,2.44,4.27,5.08,4.27a12.45,12.45,0,0,0,4.57-.75l.61,2.88a15.65,15.65,0,0,1-5.75,1c-5.35,0-8.5-3.28-8.5-8.32,0-4.57,2.78-8.87,8.05-8.87s7.11,4.4,7.11,8a10.09,10.09,0,0,1-.13,1.76Zm7.25-2.91c0-1.52-.65-4-3.42-4-2.57,0-3.66,2.34-3.83,4Z"/><circle class="cls-5" cx="459.48" cy="235.04" r="4.5"/><circle class="cls-5" cx="459.48" cy="290.35" r="4.5"/><circle class="cls-5" cx="459.48" cy="345.66" r="4.5"/><polygon class="cls-1" points="856 33.12 856 417 1281 417 1281 33 856 33.12"/><line class="cls-6" x1="879.36" y1="171.03" x2="1249.13" y2="170.96"/><path class="cls-4" d="M1001.85,98.16l-7.38-22.81H999l3.12,10.35c.88,2.88,1.62,5.55,2.23,8.33h.07c.61-2.71,1.42-5.48,2.33-8.26l3.32-10.42h4.44l-7.89,22.81Z"/><path class="cls-4" d="M1020.5,77.07a2.34,2.34,0,1,1-2.33-2.26A2.2,2.2,0,0,1,1020.5,77.07Zm-4.43,21.09V81.68h4.19V98.16Z"/><path class="cls-4" d="M1024.73,87c0-2.23,0-3.82-.13-5.31h3.62l.13,3.14h.14a4.92,4.92,0,0,1,4.5-3.52,4.2,4.2,0,0,1,1,.11v3.92a5.69,5.69,0,0,0-1.22-.13,3.67,3.67,0,0,0-3.72,3.14,7.12,7.12,0,0,0-.13,1.29v8.53h-4.17Z"/><path class="cls-4" d="M1042.33,77v4.71h4v3.11h-4v7.28c0,2,.55,3,2.14,3a6.19,6.19,0,0,0,1.62-.2l.07,3.18a9,9,0,0,1-3,.41,4.8,4.8,0,0,1-3.59-1.36c-.88-.94-1.29-2.43-1.29-4.6V84.79h-2.37V81.68h2.37V78Z"/><path class="cls-4" d="M1064.2,93.22c0,2,.07,3.59.13,4.94h-3.65l-.2-2.51h-.07a6,6,0,0,1-5.28,2.88c-3,0-5.75-1.79-5.75-7.17V81.68h4.16v9c0,2.74.88,4.5,3.08,4.5a3.51,3.51,0,0,0,3.18-2.24,3.65,3.65,0,0,0,.24-1.28V81.68h4.16Z"/><path class="cls-4" d="M1078,98.16l-.27-1.83h-.1a6.13,6.13,0,0,1-4.88,2.2,4.9,4.9,0,0,1-5.18-4.91c0-4.16,3.69-6.26,9.78-6.22v-.27c0-1.09-.44-2.88-3.35-2.88a8.75,8.75,0,0,0-4.43,1.22l-.81-2.71a11.91,11.91,0,0,1,6-1.46c5.28,0,6.81,3.36,6.81,6.94v6a26.46,26.46,0,0,0,.23,4Zm-.54-8.06c-3-.06-5.76.58-5.76,3.08a2.18,2.18,0,0,0,2.37,2.37,3.37,3.37,0,0,0,3.25-2.26,3.12,3.12,0,0,0,.14-.92Z"/><path class="cls-4" d="M1085.9,74.13h4.2v24h-4.2Z"/><path class="cls-4" d="M1005.74,132l-.27-1.83h-.1a6.12,6.12,0,0,1-4.88,2.2,4.89,4.89,0,0,1-5.17-4.9c0-4.17,3.68-6.27,9.78-6.23V121c0-1.09-.44-2.88-3.35-2.88a8.75,8.75,0,0,0-4.44,1.22l-.81-2.71a11.93,11.93,0,0,1,6-1.45c5.28,0,6.8,3.35,6.8,6.93v6a26.23,26.23,0,0,0,.24,4Zm-.54-8c-3-.07-5.76.57-5.76,3.08a2.18,2.18,0,0,0,2.37,2.36,3.37,3.37,0,0,0,3.25-2.26,3.12,3.12,0,0,0,.14-.92Z"/><path class="cls-4" d="M1013.46,128.19a9.36,9.36,0,0,0,4.23,1.18c1.83,0,2.64-.74,2.64-1.83s-.68-1.69-2.71-2.4c-3.21-1.12-4.57-2.88-4.53-4.81,0-2.91,2.4-5.17,6.22-5.17a9.67,9.67,0,0,1,4.37,1l-.81,2.94a7.47,7.47,0,0,0-3.49-1c-1.49,0-2.3.72-2.3,1.73s.78,1.56,2.88,2.3c3,1.09,4.36,2.61,4.4,5,0,3-2.34,5.14-6.7,5.14a10.6,10.6,0,0,1-5-1.15Z"/><path class="cls-4" d="M1027.58,128.19a9.32,9.32,0,0,0,4.23,1.18c1.82,0,2.64-.74,2.64-1.83s-.68-1.69-2.71-2.4c-3.22-1.12-4.57-2.88-4.54-4.81,0-2.91,2.41-5.17,6.23-5.17a9.67,9.67,0,0,1,4.37,1l-.82,2.94a7.46,7.46,0,0,0-3.48-1c-1.49,0-2.3.72-2.3,1.73s.78,1.56,2.87,2.3c3,1.09,4.37,2.61,4.4,5,0,3-2.33,5.14-6.7,5.14a10.63,10.63,0,0,1-5-1.15Z"/><path class="cls-4" d="M1046.33,110.93a2.21,2.21,0,0,1-2.37,2.23,2.18,2.18,0,0,1-2.3-2.23,2.34,2.34,0,0,1,4.67,0ZM1041.89,132V115.53h4.2V132Z"/><path class="cls-4" d="M1050.36,128.19a9.32,9.32,0,0,0,4.23,1.18c1.83,0,2.64-.74,2.64-1.83s-.68-1.69-2.71-2.4c-3.22-1.12-4.57-2.88-4.54-4.81,0-2.91,2.41-5.17,6.23-5.17a9.67,9.67,0,0,1,4.37,1l-.81,2.94a7.51,7.51,0,0,0-3.49-1c-1.49,0-2.3.72-2.3,1.73s.78,1.56,2.87,2.3c3,1.09,4.37,2.61,4.4,5,0,3-2.33,5.14-6.7,5.14a10.63,10.63,0,0,1-5-1.15Z"/><path class="cls-4" d="M1069.45,110.82v4.71h4v3.11h-4v7.28c0,2,.54,3,2.13,3a6.19,6.19,0,0,0,1.62-.2l.07,3.18a9,9,0,0,1-3,.41,4.86,4.86,0,0,1-3.59-1.35c-.88-.95-1.28-2.44-1.28-4.61v-7.75H1063v-3.11h2.37v-3.72Z"/><path class="cls-4" d="M1085.83,132l-.27-1.83h-.1a6.12,6.12,0,0,1-4.88,2.2,4.89,4.89,0,0,1-5.17-4.9c0-4.17,3.69-6.27,9.78-6.23V121c0-1.09-.44-2.88-3.35-2.88a8.75,8.75,0,0,0-4.44,1.22l-.81-2.71a11.93,11.93,0,0,1,6-1.45c5.28,0,6.8,3.35,6.8,6.93v6a26.23,26.23,0,0,0,.24,4Zm-.54-8c-3-.07-5.75.57-5.75,3.08a2.17,2.17,0,0,0,2.36,2.36,3.37,3.37,0,0,0,3.25-2.26,2.82,2.82,0,0,0,.14-.92Z"/><path class="cls-4" d="M1093.75,120.44c0-1.9,0-3.49-.13-4.91h3.65l.21,2.47h.1a5.92,5.92,0,0,1,5.24-2.84c2.88,0,5.86,1.86,5.86,7.07V132h-4.16V122.7c0-2.37-.88-4.16-3.15-4.16a3.5,3.5,0,0,0-3.25,2.44,4.1,4.1,0,0,0-.17,1.35V132h-4.2Z"/><path class="cls-4" d="M1125.23,131.5a11.94,11.94,0,0,1-4.67.85c-5.14,0-8.49-3.28-8.49-8.39,0-4.95,3.38-8.8,9.17-8.8a10.62,10.62,0,0,1,4,.77l-.75,3.12a7.28,7.28,0,0,0-3.15-.64c-3.18,0-5.07,2.33-5,5.34,0,3.39,2.2,5.32,5,5.32a8.15,8.15,0,0,0,3.29-.65Z"/><path class="cls-4" d="M1131,124.94c.1,3,2.43,4.26,5.07,4.26a12.47,12.47,0,0,0,4.57-.74l.61,2.87a15.39,15.39,0,0,1-5.75,1c-5.35,0-8.5-3.28-8.5-8.33,0-4.56,2.78-8.86,8.06-8.86s7.1,4.4,7.1,8a10.09,10.09,0,0,1-.13,1.76Zm7.24-2.91c0-1.53-.64-4-3.42-4-2.57,0-3.65,2.33-3.82,4Z"/><circle class="cls-5" cx="902.42" cy="235.04" r="4.5"/><circle class="cls-5" cx="902.42" cy="290.35" r="4.5"/><circle class="cls-5" cx="902.42" cy="345.66" r="4.5"/><path class="cls-4" d="M170,75.65a36.2,36.2,0,0,1,6.36-.47c3.05,0,5.28.64,6.74,1.86a6.45,6.45,0,0,1,2.23,5,6.93,6.93,0,0,1-2,5.18c-1.66,1.66-4.27,2.44-7.21,2.44a11.8,11.8,0,0,1-2-.14v8.6H170Zm4.13,10.63a8.15,8.15,0,0,0,2,.17c3.11,0,5-1.52,5-4.2s-1.76-3.89-4.64-3.89a11.64,11.64,0,0,0-2.4.2Z"/><path class="cls-4" d="M188.38,87c0-2.23,0-3.82-.14-5.31h3.62l.14,3.14h.13a4.94,4.94,0,0,1,4.51-3.52,4.26,4.26,0,0,1,1,.11v3.92a5.69,5.69,0,0,0-1.22-.13,3.66,3.66,0,0,0-3.72,3.14,7.08,7.08,0,0,0-.14,1.29v8.53h-4.16Z"/><path class="cls-4" d="M215.79,89.77c0,6-4.26,8.76-8.46,8.76-4.67,0-8.26-3.21-8.26-8.49s3.56-8.74,8.53-8.74S215.79,84.76,215.79,89.77Zm-12.42.17c0,3.18,1.56,5.58,4.1,5.58,2.37,0,4-2.34,4-5.65,0-2.58-1.16-5.52-4-5.52S203.37,87.19,203.37,89.94Z"/><path class="cls-4" d="M234.41,74.13V93.52c0,1.69.07,3.52.14,4.64h-3.73l-.16-2.61h-.07a5.93,5.93,0,0,1-5.38,3c-3.93,0-7-3.35-7-8.43,0-5.51,3.41-8.8,7.37-8.8a5.25,5.25,0,0,1,4.64,2.17h.07V74.13Zm-4.16,14.42a5.74,5.74,0,0,0-.1-1.09,3.64,3.64,0,0,0-3.59-2.94c-2.67,0-4.16,2.37-4.16,5.45s1.49,5.21,4.13,5.21a3.66,3.66,0,0,0,3.58-2.94,4.35,4.35,0,0,0,.14-1.22Z"/><path class="cls-4" d="M253.64,93.22c0,2,.07,3.59.13,4.94h-3.65l-.2-2.51h-.07a6,6,0,0,1-5.28,2.88c-3,0-5.75-1.79-5.75-7.17V81.68H243v9c0,2.74.88,4.5,3.08,4.5a3.51,3.51,0,0,0,3.18-2.24,3.65,3.65,0,0,0,.24-1.28V81.68h4.16Z"/><path class="cls-4" d="M270.26,97.65a12,12,0,0,1-4.67.85c-5.14,0-8.5-3.29-8.5-8.4,0-4.94,3.39-8.8,9.18-8.8a10.33,10.33,0,0,1,4,.78l-.74,3.12a7.26,7.26,0,0,0-3.15-.65c-3.18,0-5.07,2.34-5,5.35,0,3.39,2.2,5.31,5,5.31a8.17,8.17,0,0,0,3.29-.64Z"/><path class="cls-4" d="M278.62,77v4.71h4v3.11h-4v7.28c0,2,.54,3,2.13,3a6.22,6.22,0,0,0,1.63-.2l.07,3.18a9.08,9.08,0,0,1-3,.41,4.8,4.8,0,0,1-3.59-1.36c-.88-.94-1.29-2.43-1.29-4.6V84.79h-2.37V81.68h2.37V78Z"/><path class="cls-4" d="M169.86,121c0-2.16-.07-3.92-.13-5.48h3.65l.2,2.54h.07a6.43,6.43,0,0,1,5.65-2.91c3.79,0,6.94,3.25,6.94,8.39,0,6-3.76,8.83-7.51,8.83a5.42,5.42,0,0,1-4.64-2.2H174v8.53h-4.16Zm4.16,4.1a4.42,4.42,0,0,0,.14,1.15,3.76,3.76,0,0,0,3.65,2.91c2.64,0,4.2-2.2,4.2-5.45,0-2.91-1.42-5.28-4.09-5.28a3.88,3.88,0,0,0-3.73,3.08,3.84,3.84,0,0,0-.17,1Z"/><path class="cls-4" d="M189.66,120.84c0-2.23,0-3.82-.13-5.31h3.62l.14,3.15h.13a4.91,4.91,0,0,1,4.5-3.52,4.22,4.22,0,0,1,1,.1v3.92a6.41,6.41,0,0,0-1.22-.13A3.67,3.67,0,0,0,194,122.2a6.91,6.91,0,0,0-.13,1.28V132h-4.17Z"/><path class="cls-4" d="M206.15,110.93a2.21,2.21,0,0,1-2.37,2.23,2.18,2.18,0,0,1-2.3-2.23,2.34,2.34,0,0,1,4.67,0ZM201.71,132V115.53h4.2V132Z"/><path class="cls-4" d="M222.5,131.5a12,12,0,0,1-4.67.85c-5.15,0-8.5-3.28-8.5-8.39,0-4.95,3.39-8.8,9.17-8.8a10.58,10.58,0,0,1,4,.77l-.74,3.12a7.28,7.28,0,0,0-3.15-.64c-3.18,0-5.08,2.33-5,5.34,0,3.39,2.19,5.32,5,5.32a8.1,8.1,0,0,0,3.28-.65Z"/><path class="cls-4" d="M230,110.93a2.34,2.34,0,0,1-4.67,0,2.34,2.34,0,0,1,4.67,0ZM225.58,132V115.53h4.2V132Z"/><path class="cls-4" d="M234.25,120.44c0-1.9,0-3.49-.14-4.91h3.65L238,118h.1a5.92,5.92,0,0,1,5.24-2.84c2.88,0,5.86,1.86,5.86,7.07V132H245V122.7c0-2.37-.88-4.16-3.15-4.16a3.5,3.5,0,0,0-3.25,2.44,4.38,4.38,0,0,0-.17,1.35V132h-4.19Z"/><path class="cls-4" d="M268.67,115.53c-.07,1.12-.14,2.47-.14,4.74v9.34c0,3.45-.71,5.92-2.43,7.48a9.51,9.51,0,0,1-6.37,2,11.64,11.64,0,0,1-5.75-1.32l.91-3.14a10,10,0,0,0,4.81,1.25c2.71,0,4.74-1.42,4.74-5v-1.42h-.07a5.56,5.56,0,0,1-4.81,2.44c-4.09,0-7-3.39-7-8.06,0-5.41,3.52-8.69,7.48-8.69a5.2,5.2,0,0,1,4.77,2.57h.07l.17-2.2Zm-4.3,6.6a3.78,3.78,0,0,0-.14-1.12,3.45,3.45,0,0,0-3.38-2.67c-2.34,0-4.06,2-4.06,5.38,0,2.81,1.42,5.08,4,5.08a3.56,3.56,0,0,0,3.38-2.51,7.23,7.23,0,0,0,.17-1.49Z"/><path class="cls-4" d="M86.71,241.32a11,11,0,0,1-4.52.81c-4.82,0-8.45-3-8.45-8.66,0-5.36,3.63-9,8.94-9a9.27,9.27,0,0,1,4.06.76l-.53,1.81a8,8,0,0,0-3.46-.71c-4,0-6.68,2.56-6.68,7,0,4.19,2.42,6.89,6.58,6.89a8.71,8.71,0,0,0,3.61-.72Z"/><path class="cls-4" d="M89.33,233.42c0-1.45,0-2.69-.11-3.83h2l.08,2.41h.1a3.68,3.68,0,0,1,3.4-2.69,2.43,2.43,0,0,1,.63.07v2.11a3.28,3.28,0,0,0-.76-.08,3.13,3.13,0,0,0-3,2.87,6.44,6.44,0,0,0-.1,1v6.56H89.33Z"/><path class="cls-4" d="M98.62,236.14c0,3,2,4.26,4.21,4.26a8.22,8.22,0,0,0,3.41-.63l.38,1.6a10.1,10.1,0,0,1-4.09.76c-3.78,0-6-2.49-6-6.2s2.18-6.62,5.76-6.62c4,0,5.08,3.53,5.08,5.79a7.57,7.57,0,0,1-.08,1Zm6.55-1.6c0-1.42-.59-3.63-3.1-3.63-2.26,0-3.25,2.08-3.43,3.63Z"/><path class="cls-4" d="M120.71,223.85V238.7c0,1.09,0,2.34.1,3.18h-2l-.1-2.14h0a4.55,4.55,0,0,1-4.19,2.41c-3,0-5.25-2.51-5.25-6.24,0-4.09,2.51-6.6,5.5-6.6a4.12,4.12,0,0,1,3.71,1.88h0v-7.34Zm-2.24,10.74a3.76,3.76,0,0,0-.1-.94,3.29,3.29,0,0,0-3.22-2.59c-2.31,0-3.69,2-3.69,4.75,0,2.48,1.22,4.54,3.64,4.54a3.36,3.36,0,0,0,3.27-2.66,3.75,3.75,0,0,0,.1-1Z"/><path class="cls-4" d="M126.9,226.13a1.31,1.31,0,0,1-1.42,1.37,1.33,1.33,0,0,1-1.35-1.37,1.36,1.36,0,0,1,1.4-1.39A1.32,1.32,0,0,1,126.9,226.13Zm-2.49,15.75V229.59h2.24v12.29Z"/><path class="cls-4" d="M133,226.06v3.53h3.2v1.7H133v6.62c0,1.53.44,2.39,1.68,2.39a5.36,5.36,0,0,0,1.3-.15l.1,1.67a5.41,5.41,0,0,1-2,.31,3.12,3.12,0,0,1-2.42-.94,4.57,4.57,0,0,1-.86-3.2v-6.7H129v-1.7h1.9v-3Z"/><path class="cls-4" d="M143.83,239.59a5.88,5.88,0,0,0,2.95.89c1.62,0,2.39-.81,2.39-1.83s-.64-1.65-2.29-2.26c-2.21-.79-3.25-2-3.25-3.48,0-2,1.6-3.6,4.24-3.6a6.05,6.05,0,0,1,3,.76l-.56,1.62a4.81,4.81,0,0,0-2.51-.71c-1.32,0-2.06.76-2.06,1.68s.74,1.47,2.34,2.08c2.13.81,3.22,1.88,3.22,3.71,0,2.16-1.67,3.68-4.59,3.68a7,7,0,0,1-3.45-.84Z"/><path class="cls-4" d="M163,241.42a8.3,8.3,0,0,1-3.53.71c-3.7,0-6.12-2.51-6.12-6.27a6.25,6.25,0,0,1,6.61-6.53A7.34,7.34,0,0,1,163,230l-.5,1.72a5.29,5.29,0,0,0-2.59-.58c-2.82,0-4.35,2.08-4.35,4.65,0,2.84,1.83,4.59,4.27,4.59a6.31,6.31,0,0,0,2.74-.61Z"/><path class="cls-4" d="M176.54,235.63c0,4.54-3.15,6.52-6.12,6.52-3.33,0-5.89-2.43-5.89-6.32,0-4.11,2.69-6.52,6.09-6.52S176.54,231.87,176.54,235.63Zm-9.75.13c0,2.69,1.54,4.72,3.73,4.72s3.73-2,3.73-4.77c0-2.09-1-4.73-3.68-4.73S166.79,233.42,166.79,235.76Z"/><path class="cls-4" d="M179.35,233.42c0-1.45,0-2.69-.1-3.83h2l.07,2.41h.1a3.69,3.69,0,0,1,3.41-2.69,2.43,2.43,0,0,1,.63.07v2.11a3.41,3.41,0,0,0-.76-.08,3.15,3.15,0,0,0-3,2.87,6.44,6.44,0,0,0-.1,1v6.56h-2.21Z"/><path class="cls-4" d="M190.24,226.13a1.31,1.31,0,0,1-1.42,1.37,1.33,1.33,0,0,1-1.34-1.37,1.36,1.36,0,0,1,1.39-1.39A1.32,1.32,0,0,1,190.24,226.13Zm-2.48,15.75V229.59H190v12.29Z"/><path class="cls-4" d="M193.7,232.91c0-1.27,0-2.31-.11-3.32h2l.12,2h.05a4.52,4.52,0,0,1,4.07-2.31c1.7,0,4.34,1,4.34,5.23v7.34h-2.24v-7.09c0-2-.73-3.63-2.84-3.63a3.18,3.18,0,0,0-3,2.29,3.22,3.22,0,0,0-.15,1v7.39H193.7Z"/><path class="cls-4" d="M218.38,229.59c-.06.88-.11,1.87-.11,3.37v7.14c0,2.82-.56,4.54-1.75,5.61a6.49,6.49,0,0,1-4.47,1.47,8,8,0,0,1-4.09-1l.56-1.71a7,7,0,0,0,3.61,1c2.28,0,4-1.19,4-4.29v-1.37H216a4.4,4.4,0,0,1-3.91,2c-3,0-5.23-2.59-5.23-6,0-4.16,2.72-6.52,5.53-6.52a4.09,4.09,0,0,1,3.84,2.13h0l.1-1.85Zm-2.32,4.85a3.24,3.24,0,0,0-3.25-3.38c-2.13,0-3.65,1.8-3.65,4.65,0,2.41,1.22,4.41,3.63,4.41a3.27,3.27,0,0,0,3.1-2.28,4.1,4.1,0,0,0,.17-1.2Z"/><path class="cls-4" d="M74.75,280.38a32.13,32.13,0,0,1,4.7-.36c3.18,0,5.43.74,6.93,2.14a7.84,7.84,0,0,1,2.41,6.14A9,9,0,0,1,86.33,295c-1.6,1.6-4.24,2.47-7.56,2.47a34.9,34.9,0,0,1-4-.21ZM77,295.51a14.12,14.12,0,0,0,2.24.13c4.72,0,7.28-2.64,7.28-7.26,0-4-2.26-6.6-6.93-6.6A13.26,13.26,0,0,0,77,282Z"/><path class="cls-4" d="M102.81,291c0,4.54-3.15,6.52-6.12,6.52-3.33,0-5.89-2.43-5.89-6.32,0-4.11,2.69-6.52,6.09-6.52S102.81,287.26,102.81,291Zm-9.75.12c0,2.7,1.55,4.73,3.73,4.73s3.73-2,3.73-4.78c0-2.08-1-4.72-3.68-4.72S93.06,288.81,93.06,291.14Z"/><path class="cls-4" d="M114.39,296.81a8.33,8.33,0,0,1-3.53.71c-3.71,0-6.12-2.52-6.12-6.27a6.24,6.24,0,0,1,6.6-6.53,7.39,7.39,0,0,1,3.1.64l-.51,1.72a5.23,5.23,0,0,0-2.59-.58c-2.82,0-4.34,2.08-4.34,4.64,0,2.85,1.83,4.6,4.26,4.6a6.31,6.31,0,0,0,2.74-.61Z"/><path class="cls-4" d="M127.28,293.91c0,1.27,0,2.39.1,3.35h-2l-.12-2h0a4.63,4.63,0,0,1-4.07,2.28c-1.93,0-4.24-1.06-4.24-5.38V285h2.24v6.81c0,2.34.71,3.91,2.74,3.91a3.24,3.24,0,0,0,2.95-2,3.45,3.45,0,0,0,.2-1.14V285h2.23Z"/><path class="cls-4" d="M131,288.3c0-1.27,0-2.31-.1-3.33h2l.1,2H133a4.24,4.24,0,0,1,3.86-2.26,3.62,3.62,0,0,1,3.48,2.46h0a5,5,0,0,1,1.37-1.6,4.2,4.2,0,0,1,2.72-.86c1.62,0,4,1.06,4,5.33v7.23h-2.18v-6.95c0-2.36-.86-3.79-2.67-3.79a2.9,2.9,0,0,0-2.64,2,3.82,3.82,0,0,0-.17,1.12v7.59h-2.19V289.9c0-1.95-.86-3.38-2.56-3.38a3.06,3.06,0,0,0-2.77,2.24,3,3,0,0,0-.18,1.09v7.41H131Z"/><path class="cls-4" d="M153.41,291.53c.05,3,2,4.26,4.21,4.26a8.14,8.14,0,0,0,3.4-.63l.39,1.6a10.1,10.1,0,0,1-4.09.76c-3.79,0-6-2.49-6-6.2s2.19-6.62,5.77-6.62c4,0,5.08,3.52,5.08,5.78a7.61,7.61,0,0,1-.08,1Zm6.55-1.6c0-1.43-.59-3.64-3.1-3.64-2.26,0-3.25,2.09-3.43,3.64Z"/><path class="cls-4" d="M164.88,288.3c0-1.27,0-2.31-.1-3.33h2l.13,2h.05A4.51,4.51,0,0,1,171,284.7c1.7,0,4.34,1,4.34,5.23v7.33h-2.23v-7.08c0-2-.74-3.63-2.84-3.63a3.17,3.17,0,0,0-3,2.28,3.28,3.28,0,0,0-.15,1.05v7.38h-2.24Z"/><path class="cls-4" d="M181.56,281.45V285h3.2v1.71h-3.2v6.62c0,1.53.44,2.39,1.68,2.39a5.27,5.27,0,0,0,1.29-.15l.11,1.67a5.45,5.45,0,0,1-2,.31,3.11,3.11,0,0,1-2.42-.94,4.57,4.57,0,0,1-.86-3.2v-6.7h-1.9V285h1.9V282Z"/><path class="cls-4" d="M194.08,297.26l-.18-1.55h-.07a4.58,4.58,0,0,1-3.76,1.83,3.5,3.5,0,0,1-3.76-3.53c0-3,2.64-4.59,7.39-4.57v-.25a2.53,2.53,0,0,0-2.79-2.84,6.08,6.08,0,0,0-3.2.91l-.51-1.47a7.62,7.62,0,0,1,4-1.09c3.75,0,4.67,2.56,4.67,5v4.6a17.49,17.49,0,0,0,.2,2.94Zm-.33-6.27c-2.44-.05-5.21.38-5.21,2.77a2,2,0,0,0,2.11,2.13,3,3,0,0,0,3-2.05,2.27,2.27,0,0,0,.13-.71Z"/><path class="cls-4" d="M202.1,281.45V285h3.2v1.71h-3.2v6.62c0,1.53.43,2.39,1.68,2.39a5.27,5.27,0,0,0,1.29-.15l.1,1.67a5.37,5.37,0,0,1-2,.31,3.1,3.1,0,0,1-2.41-.94,4.57,4.57,0,0,1-.86-3.2v-6.7H198V285h1.91V282Z"/><path class="cls-4" d="M210.3,281.52a1.38,1.38,0,0,1-2.76,0,1.35,1.35,0,0,1,1.39-1.39A1.32,1.32,0,0,1,210.3,281.52Zm-2.49,15.74V285h2.24v12.29Z"/><path class="cls-4" d="M224.88,291c0,4.54-3.15,6.52-6.12,6.52-3.33,0-5.89-2.43-5.89-6.32,0-4.11,2.69-6.52,6.09-6.52S224.88,287.26,224.88,291Zm-9.75.12c0,2.7,1.54,4.73,3.73,4.73s3.73-2,3.73-4.78c0-2.08-1-4.72-3.68-4.72S215.13,288.81,215.13,291.14Z"/><path class="cls-4" d="M227.69,288.3c0-1.27,0-2.31-.1-3.33h2l.13,2h.05a4.51,4.51,0,0,1,4.06-2.31c1.7,0,4.34,1,4.34,5.23v7.33h-2.23v-7.08c0-2-.74-3.63-2.84-3.63a3.17,3.17,0,0,0-3,2.28,3.28,3.28,0,0,0-.15,1.05v7.38h-2.24Z"/><path class="cls-4" d="M74.75,335.74a25.46,25.46,0,0,1,4.24-.33,7,7,0,0,1,4.8,1.42,4.62,4.62,0,0,1,1.5,3.58A5.06,5.06,0,0,1,84,344.07,7.11,7.11,0,0,1,78.74,346,8,8,0,0,1,77,345.8v6.85H74.75ZM77,344a7.29,7.29,0,0,0,1.83.18c2.67,0,4.29-1.29,4.29-3.66s-1.6-3.35-4-3.35a9.33,9.33,0,0,0-2.08.18Z"/><path class="cls-4" d="M94.33,352.65l-.18-1.55h-.07a4.58,4.58,0,0,1-3.76,1.83,3.5,3.5,0,0,1-3.76-3.53c0-3,2.64-4.59,7.39-4.57v-.25a2.54,2.54,0,0,0-2.79-2.85,6.09,6.09,0,0,0-3.2.92l-.51-1.48a7.62,7.62,0,0,1,4-1.09c3.75,0,4.67,2.57,4.67,5v4.6a17.57,17.57,0,0,0,.2,2.94ZM94,346.38c-2.44-.05-5.21.38-5.21,2.77a2,2,0,0,0,2.11,2.13,3.05,3.05,0,0,0,3-2.06,2.17,2.17,0,0,0,.13-.71Z"/><path class="cls-4" d="M100.37,340.36l2.69,7.26c.28.82.59,1.78.79,2.52h.05c.23-.74.48-1.68.79-2.57l2.44-7.21h2.36l-3.35,8.76c-1.6,4.22-2.7,6.38-4.22,7.7a6,6,0,0,1-2.74,1.44l-.56-1.88a5.74,5.74,0,0,0,2-1.09,6.71,6.71,0,0,0,1.87-2.49,1.37,1.37,0,0,0,.18-.53,1.94,1.94,0,0,0-.15-.58l-4.55-11.33Z"/><path class="cls-4" d="M122.38,346.41c0,4.54-3.14,6.52-6.11,6.52-3.33,0-5.89-2.44-5.89-6.32,0-4.11,2.69-6.53,6.09-6.53S122.38,342.65,122.38,346.41Zm-9.75.12c0,2.69,1.55,4.72,3.74,4.72s3.73-2,3.73-4.77c0-2.08-1-4.72-3.68-4.72S112.63,344.2,112.63,346.53Z"/><path class="cls-4" d="M135.49,349.3c0,1.27,0,2.39.1,3.35h-2l-.13-2h0a4.63,4.63,0,0,1-4.06,2.28c-1.93,0-4.24-1.07-4.24-5.38v-7.19h2.23v6.81c0,2.33.71,3.91,2.74,3.91a3.24,3.24,0,0,0,3-2,3.46,3.46,0,0,0,.2-1.15v-7.54h2.24Z"/><path class="cls-4" d="M141.88,336.83v3.53h3.2v1.7h-3.2v6.63c0,1.52.43,2.39,1.68,2.39a4.73,4.73,0,0,0,1.29-.16l.11,1.68a5.47,5.47,0,0,1-2,.31,3.1,3.1,0,0,1-2.41-.94,4.59,4.59,0,0,1-.86-3.2v-6.71h-1.91v-1.7h1.91v-2.94Z"/><path class="cls-4" d="M154.22,346.91c.05,3,2,4.27,4.22,4.27a8,8,0,0,0,3.4-.64l.38,1.6a9.85,9.85,0,0,1-4.09.77c-3.78,0-6-2.49-6-6.2s2.18-6.63,5.76-6.63c4,0,5.08,3.53,5.08,5.79a7.43,7.43,0,0,1-.08,1Zm6.55-1.6c0-1.42-.58-3.63-3.1-3.63-2.26,0-3.25,2.08-3.42,3.63Z"/><path class="cls-4" d="M165.39,350.37a5.88,5.88,0,0,0,3,.88c1.62,0,2.38-.81,2.38-1.82s-.63-1.65-2.28-2.26c-2.21-.79-3.25-2-3.25-3.48,0-2,1.6-3.61,4.24-3.61a6.22,6.22,0,0,1,3,.76l-.56,1.63a4.81,4.81,0,0,0-2.51-.71c-1.32,0-2.06.76-2.06,1.67s.74,1.48,2.34,2.09c2.13.81,3.22,1.88,3.22,3.7,0,2.16-1.67,3.69-4.59,3.69a7,7,0,0,1-3.46-.84Z"/><path class="cls-4" d="M178.44,336.83v3.53h3.2v1.7h-3.2v6.63c0,1.52.43,2.39,1.68,2.39a4.73,4.73,0,0,0,1.29-.16l.1,1.68a5.37,5.37,0,0,1-2,.31,3.09,3.09,0,0,1-2.41-.94,4.59,4.59,0,0,1-.86-3.2v-6.71h-1.91v-1.7h1.91v-2.94Z"/><path class="cls-4" d="M186.64,336.91a1.31,1.31,0,0,1-1.42,1.37,1.33,1.33,0,0,1-1.35-1.37,1.37,1.37,0,0,1,1.4-1.4A1.33,1.33,0,0,1,186.64,336.91Zm-2.49,15.74V340.36h2.24v12.29Z"/><path class="cls-4" d="M190.09,343.69c0-1.27,0-2.31-.1-3.33h2l.1,2h.08a4.21,4.21,0,0,1,3.85-2.26,3.63,3.63,0,0,1,3.48,2.47h0a5.09,5.09,0,0,1,1.37-1.6,4.2,4.2,0,0,1,2.72-.87c1.63,0,4,1.07,4,5.34v7.23h-2.18v-7c0-2.36-.87-3.78-2.67-3.78a2.89,2.89,0,0,0-2.64,2,3.75,3.75,0,0,0-.18,1.12v7.59h-2.18v-7.36c0-2-.87-3.38-2.57-3.38a3,3,0,0,0-2.76,2.24,3,3,0,0,0-.18,1.09v7.41h-2.19Z"/><path class="cls-4" d="M218.07,352.65l-.18-1.55h-.07a4.58,4.58,0,0,1-3.76,1.83,3.5,3.5,0,0,1-3.76-3.53c0-3,2.64-4.59,7.39-4.57v-.25a2.54,2.54,0,0,0-2.79-2.85,6.11,6.11,0,0,0-3.2.92l-.51-1.48a7.65,7.65,0,0,1,4-1.09c3.76,0,4.67,2.57,4.67,5v4.6a17.57,17.57,0,0,0,.2,2.94Zm-.33-6.27c-2.44-.05-5.2.38-5.2,2.77a2,2,0,0,0,2.1,2.13,3.08,3.08,0,0,0,3-2.06,2.46,2.46,0,0,0,.12-.71Z"/><path class="cls-4" d="M226.09,336.83v3.53h3.2v1.7h-3.2v6.63c0,1.52.44,2.39,1.68,2.39a4.82,4.82,0,0,0,1.3-.16l.1,1.68a5.41,5.41,0,0,1-2,.31,3.12,3.12,0,0,1-2.42-.94,4.59,4.59,0,0,1-.86-3.2v-6.71H222v-1.7h1.9v-2.94Z"/><path class="cls-4" d="M234.29,336.91a1.31,1.31,0,0,1-1.42,1.37,1.33,1.33,0,0,1-1.34-1.37,1.36,1.36,0,0,1,1.39-1.4A1.33,1.33,0,0,1,234.29,336.91Zm-2.48,15.74V340.36H234v12.29Z"/><path class="cls-4" d="M248.87,346.41c0,4.54-3.15,6.52-6.12,6.52-3.33,0-5.89-2.44-5.89-6.32,0-4.11,2.69-6.53,6.09-6.53S248.87,342.65,248.87,346.41Zm-9.75.12c0,2.69,1.55,4.72,3.73,4.72s3.73-2,3.73-4.77c0-2.08-1-4.72-3.68-4.72S239.12,344.2,239.12,346.53Z"/><path class="cls-4" d="M251.69,343.69c0-1.27,0-2.31-.11-3.33h2l.13,2h.05a4.53,4.53,0,0,1,4.06-2.31c1.71,0,4.35,1,4.35,5.23v7.34h-2.24v-7.08c0-2-.73-3.63-2.84-3.63a3.18,3.18,0,0,0-3,2.28,3.26,3.26,0,0,0-.15,1v7.39h-2.23Z"/><path class="cls-4" d="M496.71,241.32a11,11,0,0,1-4.52.81c-4.82,0-8.45-3-8.45-8.66,0-5.36,3.63-9,8.94-9a9.27,9.27,0,0,1,4.06.76l-.53,1.81a8,8,0,0,0-3.46-.71c-4,0-6.68,2.56-6.68,7,0,4.19,2.42,6.89,6.58,6.89a8.71,8.71,0,0,0,3.61-.72Z"/><path class="cls-4" d="M499.4,223.85h2.24v18H499.4Z"/><path class="cls-4" d="M512.2,241.88l-.18-1.55h-.08a4.56,4.56,0,0,1-3.75,1.82,3.5,3.5,0,0,1-3.76-3.52c0-3,2.64-4.6,7.39-4.58v-.25A2.54,2.54,0,0,0,509,231a6.07,6.07,0,0,0-3.19.91l-.51-1.47a7.61,7.61,0,0,1,4-1.09c3.76,0,4.68,2.56,4.68,5v4.6a17.62,17.62,0,0,0,.2,2.95Zm-.33-6.28c-2.44,0-5.21.38-5.21,2.77a2,2,0,0,0,2.11,2.13,3,3,0,0,0,3-2.05,2.27,2.27,0,0,0,.13-.71Z"/><path class="cls-4" d="M520.12,226.13a1.39,1.39,0,0,1-2.77,0,1.36,1.36,0,0,1,1.4-1.39A1.32,1.32,0,0,1,520.12,226.13Zm-2.49,15.75V229.59h2.24v12.29Z"/><path class="cls-4" d="M523.57,232.91c0-1.27,0-2.31-.1-3.32h1.95l.11,2h.07a4.24,4.24,0,0,1,3.86-2.26,3.62,3.62,0,0,1,3.48,2.46h0a5,5,0,0,1,1.37-1.6,4.2,4.2,0,0,1,2.72-.86c1.62,0,4,1.06,4,5.33v7.24h-2.19v-7c0-2.36-.86-3.79-2.66-3.79a2.89,2.89,0,0,0-2.64,2,3.4,3.4,0,0,0-.18,1.11v7.6h-2.19v-7.37c0-1.95-.86-3.38-2.56-3.38a3.06,3.06,0,0,0-2.77,2.24,3.24,3.24,0,0,0-.18,1.09v7.42h-2.18Z"/><path class="cls-4" d="M544.44,239.59a5.88,5.88,0,0,0,2.95.89c1.62,0,2.38-.81,2.38-1.83s-.63-1.65-2.28-2.26c-2.21-.79-3.25-2-3.25-3.48,0-2,1.6-3.6,4.24-3.6a6.11,6.11,0,0,1,3,.76l-.56,1.62a4.81,4.81,0,0,0-2.51-.71c-1.32,0-2.06.76-2.06,1.68s.74,1.47,2.34,2.08c2.13.81,3.22,1.88,3.22,3.71,0,2.16-1.68,3.68-4.6,3.68a7,7,0,0,1-3.45-.84Z"/><path class="cls-4" d="M567,241.88l-.18-1.55h-.08a4.57,4.57,0,0,1-3.76,1.82,3.5,3.5,0,0,1-3.75-3.52c0-3,2.64-4.6,7.38-4.58v-.25a2.53,2.53,0,0,0-2.79-2.84,6.13,6.13,0,0,0-3.2.91l-.51-1.47a7.65,7.65,0,0,1,4-1.09c3.76,0,4.67,2.56,4.67,5v4.6a16.55,16.55,0,0,0,.21,2.95Zm-.33-6.28c-2.44,0-5.21.38-5.21,2.77a2,2,0,0,0,2.11,2.13,3.06,3.06,0,0,0,3-2.05,2.6,2.6,0,0,0,.13-.71Z"/><path class="cls-4" d="M572.11,239.59a5.88,5.88,0,0,0,2.95.89c1.62,0,2.39-.81,2.39-1.83s-.64-1.65-2.29-2.26c-2.21-.79-3.25-2-3.25-3.48,0-2,1.6-3.6,4.24-3.6a6.08,6.08,0,0,1,3,.76l-.56,1.62a4.81,4.81,0,0,0-2.51-.71c-1.32,0-2.06.76-2.06,1.68s.74,1.47,2.34,2.08c2.13.81,3.22,1.88,3.22,3.71,0,2.16-1.67,3.68-4.59,3.68a7,7,0,0,1-3.46-.84Z"/><path class="cls-4" d="M582.17,239.59a5.87,5.87,0,0,0,2.94.89c1.63,0,2.39-.81,2.39-1.83s-.64-1.65-2.29-2.26c-2.21-.79-3.25-2-3.25-3.48,0-2,1.6-3.6,4.24-3.6a6.13,6.13,0,0,1,3,.76l-.56,1.62a4.85,4.85,0,0,0-2.52-.71c-1.32,0-2,.76-2,1.68s.73,1.47,2.33,2.08c2.14.81,3.23,1.88,3.23,3.71,0,2.16-1.68,3.68-4.6,3.68a7,7,0,0,1-3.45-.84Z"/><path class="cls-4" d="M593.77,236.14c.05,3,2,4.26,4.21,4.26a8.22,8.22,0,0,0,3.41-.63l.38,1.6a10.1,10.1,0,0,1-4.09.76c-3.78,0-6-2.49-6-6.2s2.18-6.62,5.76-6.62c4,0,5.08,3.53,5.08,5.79a7.57,7.57,0,0,1-.08,1Zm6.55-1.6c0-1.42-.58-3.63-3.1-3.63-2.26,0-3.25,2.08-3.43,3.63Z"/><path class="cls-4" d="M604.94,239.59a5.88,5.88,0,0,0,2.95.89c1.62,0,2.38-.81,2.38-1.83s-.63-1.65-2.28-2.26c-2.21-.79-3.25-2-3.25-3.48,0-2,1.6-3.6,4.24-3.6a6.11,6.11,0,0,1,3,.76l-.56,1.62a4.81,4.81,0,0,0-2.51-.71c-1.32,0-2.06.76-2.06,1.68s.74,1.47,2.34,2.08c2.13.81,3.22,1.88,3.22,3.71,0,2.16-1.68,3.68-4.6,3.68a7,7,0,0,1-3.45-.84Z"/><path class="cls-4" d="M615,239.59a5.88,5.88,0,0,0,3,.89c1.62,0,2.39-.81,2.39-1.83s-.64-1.65-2.29-2.26c-2.21-.79-3.25-2-3.25-3.48,0-2,1.6-3.6,4.24-3.6a6.05,6.05,0,0,1,3,.76l-.56,1.62A4.81,4.81,0,0,0,619,231c-1.32,0-2.06.76-2.06,1.68s.74,1.47,2.34,2.08c2.13.81,3.22,1.88,3.22,3.71,0,2.16-1.67,3.68-4.59,3.68a7,7,0,0,1-3.45-.84Z"/><path class="cls-4" d="M625.35,232.91c0-1.27,0-2.31-.1-3.32h2l.1,2h.07a4.24,4.24,0,0,1,3.86-2.26,3.62,3.62,0,0,1,3.48,2.46h0a5.09,5.09,0,0,1,1.37-1.6,4.2,4.2,0,0,1,2.72-.86c1.63,0,4,1.06,4,5.33v7.24h-2.19v-7c0-2.36-.86-3.79-2.66-3.79a2.89,2.89,0,0,0-2.64,2,3.68,3.68,0,0,0-.18,1.11v7.6h-2.18v-7.37c0-1.95-.87-3.38-2.57-3.38a3.06,3.06,0,0,0-2.77,2.24,3.23,3.23,0,0,0-.17,1.09v7.42h-2.19Z"/><path class="cls-4" d="M647.77,236.14A3.93,3.93,0,0,0,652,240.4a8.21,8.21,0,0,0,3.4-.63l.38,1.6a10.06,10.06,0,0,1-4.09.76c-3.78,0-6-2.49-6-6.2s2.18-6.62,5.76-6.62c4,0,5.08,3.53,5.08,5.79a7.57,7.57,0,0,1-.08,1Zm6.55-1.6c0-1.42-.58-3.63-3.1-3.63-2.26,0-3.25,2.08-3.42,3.63Z"/><path class="cls-4" d="M659.25,232.91c0-1.27,0-2.31-.11-3.32h2l.12,2h0a4.52,4.52,0,0,1,4.07-2.31c1.7,0,4.34,1,4.34,5.23v7.34h-2.24v-7.09c0-2-.73-3.63-2.84-3.63a3.18,3.18,0,0,0-3,2.29,3.22,3.22,0,0,0-.15,1v7.39h-2.23Z"/><path class="cls-4" d="M675.93,226.06v3.53h3.2v1.7h-3.2v6.62c0,1.53.43,2.39,1.67,2.39a5.29,5.29,0,0,0,1.3-.15l.1,1.67a5.41,5.41,0,0,1-2,.31,3.09,3.09,0,0,1-2.41-.94,4.52,4.52,0,0,1-.87-3.2v-6.7h-1.9v-1.7h1.9v-3Z"/><path class="cls-4" d="M484.75,280.15H494V282h-7v5.69h6.48v1.83H487v7.74h-2.21Z"/><path class="cls-4" d="M496.38,288.81c0-1.45,0-2.69-.1-3.84h2l.07,2.42h.1a3.69,3.69,0,0,1,3.41-2.69,2.43,2.43,0,0,1,.63.07v2.11a3.41,3.41,0,0,0-.76-.08,3.14,3.14,0,0,0-3,2.87,6.44,6.44,0,0,0-.1,1v6.55h-2.21Z"/><path class="cls-4" d="M511.36,297.26l-.18-1.55h-.07a4.58,4.58,0,0,1-3.76,1.83,3.5,3.5,0,0,1-3.76-3.53c0-3,2.64-4.59,7.39-4.57v-.25a2.53,2.53,0,0,0-2.79-2.84,6.11,6.11,0,0,0-3.2.91l-.51-1.47a7.65,7.65,0,0,1,4-1.09c3.76,0,4.67,2.56,4.67,5v4.6a17.49,17.49,0,0,0,.2,2.94ZM511,291c-2.44-.05-5.2.38-5.2,2.77a2,2,0,0,0,2.1,2.13,3.07,3.07,0,0,0,3-2.05,2.58,2.58,0,0,0,.12-.71Z"/><path class="cls-4" d="M527.08,293.91c0,1.27,0,2.39.1,3.35h-2l-.13-2H525a4.62,4.62,0,0,1-4.06,2.28c-1.93,0-4.24-1.06-4.24-5.38V285H519v6.81c0,2.34.71,3.91,2.75,3.91a3.13,3.13,0,0,0,3.14-3.17V285h2.24Z"/><path class="cls-4" d="M541.4,279.24v14.85c0,1.09,0,2.34.1,3.17h-2l-.1-2.13h0a4.54,4.54,0,0,1-4.19,2.41c-3,0-5.25-2.51-5.25-6.24,0-4.09,2.51-6.6,5.51-6.6a4.1,4.1,0,0,1,3.7,1.87h0v-7.33ZM539.16,290a3.76,3.76,0,0,0-.1-.94,3.29,3.29,0,0,0-3.22-2.59c-2.31,0-3.68,2-3.68,4.75,0,2.48,1.21,4.54,3.63,4.54a3.35,3.35,0,0,0,3.27-2.67,3.68,3.68,0,0,0,.1-1Z"/><path class="cls-4" d="M550.49,289c0-1.58-.06-2.85-.11-4h2l.1,2.11h0a4.83,4.83,0,0,1,4.37-2.38c3,0,5.2,2.51,5.2,6.24,0,4.42-2.69,6.6-5.58,6.6a4.29,4.29,0,0,1-3.78-1.93h-.06v6.68h-2.2Zm2.2,3.27a5.15,5.15,0,0,0,.11.92,3.45,3.45,0,0,0,3.35,2.61c2.36,0,3.73-1.93,3.73-4.75,0-2.46-1.3-4.57-3.66-4.57a3.56,3.56,0,0,0-3.37,2.77,3.47,3.47,0,0,0-.16.91Z"/><path class="cls-4" d="M564.93,288.81c0-1.45,0-2.69-.1-3.84h1.95l.08,2.42h.1a3.69,3.69,0,0,1,3.4-2.69,2.46,2.46,0,0,1,.64.07v2.11a3.41,3.41,0,0,0-.76-.08,3.14,3.14,0,0,0-3,2.87,6.44,6.44,0,0,0-.1,1v6.55h-2.21Z"/><path class="cls-4" d="M574.22,291.53a3.93,3.93,0,0,0,4.22,4.26,8.17,8.17,0,0,0,3.4-.63l.38,1.6a10.06,10.06,0,0,1-4.09.76c-3.78,0-6-2.49-6-6.2s2.18-6.62,5.76-6.62c4,0,5.08,3.52,5.08,5.78a10.2,10.2,0,0,1-.07,1Zm6.55-1.6c0-1.43-.58-3.64-3.09-3.64-2.26,0-3.25,2.09-3.43,3.64Z"/><path class="cls-4" d="M586.56,285l2.41,6.91a29.62,29.62,0,0,1,1,3.15H590c.28-1,.63-2,1-3.15l2.39-6.91h2.33L591,297.26h-2.13L584.17,285Z"/><path class="cls-4" d="M598.9,291.53a3.93,3.93,0,0,0,4.22,4.26,8.21,8.21,0,0,0,3.4-.63l.38,1.6a10.06,10.06,0,0,1-4.09.76c-3.78,0-6-2.49-6-6.2s2.18-6.62,5.76-6.62c4,0,5.08,3.52,5.08,5.78a7.61,7.61,0,0,1-.08,1Zm6.55-1.6c0-1.43-.58-3.64-3.1-3.64-2.26,0-3.25,2.09-3.42,3.64Z"/><path class="cls-4" d="M610.38,288.3c0-1.27,0-2.31-.11-3.33h2l.13,2h0a4.52,4.52,0,0,1,4.07-2.31c1.7,0,4.34,1,4.34,5.23v7.33H618.6v-7.08c0-2-.73-3.63-2.84-3.63a3.18,3.18,0,0,0-3,2.28,3.28,3.28,0,0,0-.15,1.05v7.38h-2.23Z"/><path class="cls-4" d="M627.06,281.45V285h3.2v1.71h-3.2v6.62c0,1.53.43,2.39,1.67,2.39a5.29,5.29,0,0,0,1.3-.15l.1,1.67a5.41,5.41,0,0,1-2,.31,3.09,3.09,0,0,1-2.41-.94,4.52,4.52,0,0,1-.87-3.2v-6.7H623V285h1.9V282Z"/><path class="cls-4" d="M635.26,281.52a1.39,1.39,0,0,1-2.77,0,1.35,1.35,0,0,1,1.4-1.39A1.32,1.32,0,0,1,635.26,281.52Zm-2.49,15.74V285H635v12.29Z"/><path class="cls-4" d="M649.83,291c0,4.54-3.15,6.52-6.12,6.52-3.33,0-5.89-2.43-5.89-6.32,0-4.11,2.69-6.52,6.09-6.52S649.83,287.26,649.83,291Zm-9.75.12c0,2.7,1.55,4.73,3.73,4.73s3.73-2,3.73-4.78c0-2.08-1-4.72-3.68-4.72S640.08,288.81,640.08,291.14Z"/><path class="cls-4" d="M652.65,288.3c0-1.27,0-2.31-.1-3.33h2l.12,2h.05a4.53,4.53,0,0,1,4.07-2.31c1.7,0,4.34,1,4.34,5.23v7.33h-2.24v-7.08c0-2-.73-3.63-2.84-3.63a3.19,3.19,0,0,0-3,2.28,3.28,3.28,0,0,0-.15,1.05v7.38h-2.23Z"/><path class="cls-4" d="M496.71,352.09a10.84,10.84,0,0,1-4.52.82c-4.82,0-8.45-3.05-8.45-8.66,0-5.36,3.63-9,8.94-9a9.27,9.27,0,0,1,4.06.76l-.53,1.8a8.19,8.19,0,0,0-3.46-.71c-4,0-6.68,2.57-6.68,7.06,0,4.19,2.42,6.88,6.58,6.88a8.88,8.88,0,0,0,3.61-.71Z"/><path class="cls-4" d="M499.4,334.62h2.24v18H499.4Z"/><path class="cls-4" d="M512.2,352.65,512,351.1h-.08a4.54,4.54,0,0,1-3.75,1.83,3.5,3.5,0,0,1-3.76-3.53c0-3,2.64-4.59,7.39-4.57v-.25a2.54,2.54,0,0,0-2.8-2.85,6.08,6.08,0,0,0-3.19.92l-.51-1.48a7.61,7.61,0,0,1,4-1.09c3.76,0,4.68,2.57,4.68,5v4.6a17.57,17.57,0,0,0,.2,2.94Zm-.33-6.27c-2.44-.05-5.21.38-5.21,2.77a2,2,0,0,0,2.11,2.13,3.05,3.05,0,0,0,3-2.06,2.17,2.17,0,0,0,.13-.71Z"/><path class="cls-4" d="M520.12,336.91a1.39,1.39,0,0,1-2.77,0,1.37,1.37,0,0,1,1.4-1.4A1.33,1.33,0,0,1,520.12,336.91Zm-2.49,15.74V340.36h2.24v12.29Z"/><path class="cls-4" d="M523.57,343.69c0-1.27,0-2.31-.1-3.33h1.95l.11,2h.07a4.24,4.24,0,0,1,3.86-2.26,3.63,3.63,0,0,1,3.48,2.47h0a5,5,0,0,1,1.37-1.6,4.2,4.2,0,0,1,2.72-.87c1.62,0,4,1.07,4,5.34v7.23h-2.19v-7c0-2.36-.86-3.78-2.66-3.78a2.89,2.89,0,0,0-2.64,2,3.46,3.46,0,0,0-.18,1.12v7.59h-2.19v-7.36c0-2-.86-3.38-2.56-3.38a3.06,3.06,0,0,0-2.77,2.24,3.24,3.24,0,0,0-.18,1.09v7.41h-2.18Z"/><path class="cls-4" d="M544.44,350.37a5.88,5.88,0,0,0,2.95.88c1.62,0,2.38-.81,2.38-1.82s-.63-1.65-2.28-2.26c-2.21-.79-3.25-2-3.25-3.48,0-2,1.6-3.61,4.24-3.61a6.22,6.22,0,0,1,3,.76l-.56,1.63a4.81,4.81,0,0,0-2.51-.71c-1.32,0-2.06.76-2.06,1.67s.74,1.48,2.34,2.09c2.13.81,3.22,1.88,3.22,3.7,0,2.16-1.68,3.69-4.6,3.69a7,7,0,0,1-3.45-.84Z"/><path class="cls-4" d="M559.88,350.37a5.84,5.84,0,0,0,2.94.88c1.63,0,2.39-.81,2.39-1.82s-.64-1.65-2.29-2.26c-2.21-.79-3.25-2-3.25-3.48,0-2,1.6-3.61,4.24-3.61a6.16,6.16,0,0,1,3,.76l-.55,1.63a4.89,4.89,0,0,0-2.52-.71c-1.32,0-2.05.76-2.05,1.67s.73,1.48,2.33,2.09c2.13.81,3.23,1.88,3.23,3.7,0,2.16-1.68,3.69-4.6,3.69a7,7,0,0,1-3.45-.84Z"/><path class="cls-4" d="M571.48,346.91c0,3,2,4.27,4.21,4.27a8,8,0,0,0,3.41-.64l.38,1.6a9.89,9.89,0,0,1-4.09.77c-3.78,0-6-2.49-6-6.2s2.18-6.63,5.76-6.63c4,0,5.08,3.53,5.08,5.79a7.43,7.43,0,0,1-.08,1Zm6.55-1.6c0-1.42-.58-3.63-3.1-3.63-2.26,0-3.25,2.08-3.43,3.63Z"/><path class="cls-4" d="M585.65,336.83v3.53h3.19v1.7h-3.19v6.63c0,1.52.43,2.39,1.67,2.39a4.76,4.76,0,0,0,1.3-.16l.1,1.68a5.41,5.41,0,0,1-2,.31,3.09,3.09,0,0,1-2.41-.94,4.54,4.54,0,0,1-.87-3.2v-6.71h-1.9v-1.7h1.9v-2.94Z"/><path class="cls-4" d="M594.05,336.83v3.53h3.2v1.7h-3.2v6.63c0,1.52.43,2.39,1.67,2.39a4.76,4.76,0,0,0,1.3-.16l.1,1.68a5.41,5.41,0,0,1-2,.31,3.09,3.09,0,0,1-2.41-.94,4.54,4.54,0,0,1-.86-3.2v-6.71H590v-1.7h1.91v-2.94Z"/><path class="cls-4" d="M599.76,334.62H602v18h-2.24Z"/><path class="cls-4" d="M607,346.91c0,3,2,4.27,4.21,4.27a8,8,0,0,0,3.4-.64l.38,1.6a9.8,9.8,0,0,1-4.08.77c-3.79,0-6-2.49-6-6.2s2.19-6.63,5.77-6.63c4,0,5.08,3.53,5.08,5.79a9.4,9.4,0,0,1-.08,1Zm6.55-1.6c0-1.42-.59-3.63-3.1-3.63-2.26,0-3.25,2.08-3.43,3.63Z"/><path class="cls-4" d="M618.47,343.69c0-1.27,0-2.31-.1-3.33h2l.1,2h.07a4.24,4.24,0,0,1,3.86-2.26,3.63,3.63,0,0,1,3.48,2.47h0a5,5,0,0,1,1.37-1.6,4.2,4.2,0,0,1,2.72-.87c1.62,0,4,1.07,4,5.34v7.23h-2.19v-7c0-2.36-.86-3.78-2.66-3.78a2.89,2.89,0,0,0-2.64,2,3.46,3.46,0,0,0-.18,1.12v7.59h-2.18v-7.36c0-2-.87-3.38-2.57-3.38a3.06,3.06,0,0,0-2.77,2.24,3.23,3.23,0,0,0-.17,1.09v7.41h-2.19Z"/><path class="cls-4" d="M640.89,346.91c.05,3,2,4.27,4.21,4.27a8,8,0,0,0,3.41-.64l.38,1.6a9.89,9.89,0,0,1-4.09.77c-3.78,0-6-2.49-6-6.2s2.18-6.63,5.76-6.63c4,0,5.08,3.53,5.08,5.79a7.43,7.43,0,0,1-.08,1Zm6.55-1.6c0-1.42-.58-3.63-3.1-3.63-2.26,0-3.25,2.08-3.42,3.63Z"/><path class="cls-4" d="M652.37,343.69c0-1.27,0-2.31-.11-3.33h2l.13,2h0a4.53,4.53,0,0,1,4.06-2.31c1.71,0,4.35,1,4.35,5.23v7.34h-2.24v-7.08c0-2-.73-3.63-2.84-3.63a3.18,3.18,0,0,0-3,2.28,3.26,3.26,0,0,0-.15,1v7.39h-2.23Z"/><path class="cls-4" d="M669.05,336.83v3.53h3.2v1.7h-3.2v6.63c0,1.52.43,2.39,1.67,2.39a4.76,4.76,0,0,0,1.3-.16l.1,1.68a5.41,5.41,0,0,1-2,.31,3.09,3.09,0,0,1-2.41-.94,4.54,4.54,0,0,1-.87-3.2v-6.71H665v-1.7h1.9v-2.94Z"/><path class="cls-4" d="M927.75,225a22.9,22.9,0,0,1,4.24-.36c2.37,0,3.89.44,5,1.4a4.27,4.27,0,0,1,1.34,3.25,4.5,4.5,0,0,1-3.22,4.37v.07c1.32.46,2.1,1.68,2.51,3.46a27.49,27.49,0,0,0,1.32,4.7h-2.28a22.87,22.87,0,0,1-1.15-4.09c-.51-2.36-1.42-3.25-3.43-3.33H930v7.42h-2.21Zm2.21,7.8h2.26c2.36,0,3.86-1.3,3.86-3.25,0-2.21-1.6-3.18-3.93-3.2a9.3,9.3,0,0,0-2.19.2Z"/><path class="cls-4" d="M944.08,226.13a1.39,1.39,0,0,1-2.77,0,1.36,1.36,0,0,1,1.4-1.39A1.32,1.32,0,0,1,944.08,226.13Zm-2.49,15.75V229.59h2.24v12.29Z"/><path class="cls-4" d="M947.23,239.59a5.84,5.84,0,0,0,2.94.89c1.63,0,2.39-.81,2.39-1.83s-.64-1.65-2.29-2.26c-2.21-.79-3.25-2-3.25-3.48,0-2,1.6-3.6,4.24-3.6a6.13,6.13,0,0,1,3,.76l-.56,1.62a4.85,4.85,0,0,0-2.52-.71c-1.32,0-2.05.76-2.05,1.68s.73,1.47,2.33,2.08c2.14.81,3.23,1.88,3.23,3.71,0,2.16-1.68,3.68-4.6,3.68a7,7,0,0,1-3.45-.84Z"/><path class="cls-4" d="M959.79,235.22h.05c.31-.43.74-1,1.1-1.39l3.6-4.24h2.69l-4.74,5,5.4,7.24h-2.71l-4.24-5.9-1.15,1.27v4.63h-2.21v-18h2.21Z"/><path class="cls-4" d="M974.87,233.6c0-1.58,0-2.85-.1-4h2l.1,2.1h0a4.84,4.84,0,0,1,4.37-2.38c3,0,5.2,2.51,5.2,6.24,0,4.42-2.69,6.6-5.58,6.6a4.32,4.32,0,0,1-3.79-1.93h0v6.68h-2.21Zm2.21,3.27a5.18,5.18,0,0,0,.1.92,3.45,3.45,0,0,0,3.36,2.61c2.36,0,3.73-1.93,3.73-4.75,0-2.46-1.3-4.57-3.66-4.57a3.57,3.57,0,0,0-3.37,2.77,3.48,3.48,0,0,0-.16.92Z"/><path class="cls-4" d="M989.32,233.42c0-1.45,0-2.69-.1-3.83h1.95l.08,2.41h.1a3.68,3.68,0,0,1,3.4-2.69,2.51,2.51,0,0,1,.64.07v2.11a3.41,3.41,0,0,0-.76-.08,3.14,3.14,0,0,0-3,2.87,6.44,6.44,0,0,0-.1,1v6.56h-2.21Z"/><path class="cls-4" d="M998.61,236.14a3.93,3.93,0,0,0,4.22,4.26,8.17,8.17,0,0,0,3.4-.63l.38,1.6a10.06,10.06,0,0,1-4.09.76c-3.78,0-6-2.49-6-6.2s2.18-6.62,5.76-6.62c4,0,5.08,3.53,5.08,5.79a7.57,7.57,0,0,1-.08,1Zm6.55-1.6c0-1.42-.58-3.63-3.1-3.63-2.26,0-3.25,2.08-3.42,3.63Z"/><path class="cls-4" d="M1020.7,223.85V238.7c0,1.09,0,2.34.1,3.18h-2l-.11-2.14h-.05a4.54,4.54,0,0,1-4.19,2.41c-3,0-5.25-2.51-5.25-6.24,0-4.09,2.51-6.6,5.51-6.6a4.12,4.12,0,0,1,3.71,1.88h.05v-7.34Zm-2.23,10.74a3.77,3.77,0,0,0-.11-.94,3.28,3.28,0,0,0-3.22-2.59c-2.31,0-3.68,2-3.68,4.75,0,2.48,1.22,4.54,3.63,4.54a3.35,3.35,0,0,0,3.27-2.66,3.74,3.74,0,0,0,.11-1Z"/><path class="cls-4" d="M1026.89,226.13a1.31,1.31,0,0,1-1.42,1.37,1.33,1.33,0,0,1-1.34-1.37,1.36,1.36,0,0,1,1.39-1.39A1.32,1.32,0,0,1,1026.89,226.13Zm-2.48,15.75V229.59h2.23v12.29Z"/><path class="cls-4" d="M1039.11,241.42a8.33,8.33,0,0,1-3.53.71c-3.71,0-6.12-2.51-6.12-6.27a6.24,6.24,0,0,1,6.6-6.53,7.39,7.39,0,0,1,3.1.64l-.51,1.72a5.23,5.23,0,0,0-2.59-.58c-2.82,0-4.34,2.08-4.34,4.65,0,2.84,1.83,4.59,4.26,4.59a6.39,6.39,0,0,0,2.75-.61Z"/><path class="cls-4" d="M1044.74,226.06v3.53h3.2v1.7h-3.2v6.62c0,1.53.43,2.39,1.68,2.39a5.27,5.27,0,0,0,1.29-.15l.1,1.67a5.37,5.37,0,0,1-2,.31,3.1,3.1,0,0,1-2.41-.94,4.57,4.57,0,0,1-.86-3.2v-6.7h-1.91v-1.7h1.91v-3Z"/><path class="cls-4" d="M1052.94,226.13a1.31,1.31,0,0,1-1.42,1.37,1.33,1.33,0,0,1-1.35-1.37,1.36,1.36,0,0,1,1.4-1.39A1.32,1.32,0,0,1,1052.94,226.13Zm-2.49,15.75V229.59h2.24v12.29Z"/><path class="cls-4" d="M1067.52,235.63c0,4.54-3.15,6.52-6.12,6.52-3.33,0-5.89-2.43-5.89-6.32,0-4.11,2.69-6.52,6.09-6.52S1067.52,231.87,1067.52,235.63Zm-9.75.13c0,2.69,1.54,4.72,3.73,4.72s3.73-2,3.73-4.77c0-2.09-1-4.73-3.68-4.73S1057.77,233.42,1057.77,235.76Z"/><path class="cls-4" d="M1070.33,232.91c0-1.27,0-2.31-.1-3.32h2l.13,2h.05a4.51,4.51,0,0,1,4.06-2.31c1.7,0,4.34,1,4.34,5.23v7.34h-2.23v-7.09c0-2-.74-3.63-2.84-3.63a3.17,3.17,0,0,0-3,2.29,3.22,3.22,0,0,0-.15,1v7.39h-2.24Z"/><path class="cls-4" d="M930,280.15v17.11h-2.21V280.15Z"/><path class="cls-4" d="M934,288.3c0-1.27,0-2.31-.1-3.33h2l.1,2H936a4.24,4.24,0,0,1,3.86-2.26,3.63,3.63,0,0,1,3.48,2.46h0a5,5,0,0,1,1.37-1.6,4.2,4.2,0,0,1,2.72-.86c1.62,0,4,1.06,4,5.33v7.23h-2.18v-6.95c0-2.36-.86-3.79-2.67-3.79a2.89,2.89,0,0,0-2.64,2,3.82,3.82,0,0,0-.17,1.12v7.59h-2.19V289.9c0-1.95-.86-3.38-2.56-3.38a3.06,3.06,0,0,0-2.77,2.24,3,3,0,0,0-.18,1.09v7.41H934Z"/><path class="cls-4" d="M962,297.26l-.18-1.55h-.08a4.54,4.54,0,0,1-3.75,1.83,3.5,3.5,0,0,1-3.76-3.53c0-3,2.64-4.59,7.39-4.57v-.25a2.53,2.53,0,0,0-2.8-2.84,6.13,6.13,0,0,0-3.2.91l-.5-1.47a7.58,7.58,0,0,1,4-1.09c3.76,0,4.68,2.56,4.68,5v4.6a17.49,17.49,0,0,0,.2,2.94Zm-.33-6.27c-2.44-.05-5.21.38-5.21,2.77a2,2,0,0,0,2.11,2.13,3,3,0,0,0,3-2.05,2.27,2.27,0,0,0,.13-.71Z"/><path class="cls-4" d="M978,285c0,.89-.1,1.88-.1,3.38v7.14c0,2.81-.56,4.54-1.76,5.61a6.53,6.53,0,0,1-4.46,1.47,7.92,7.92,0,0,1-4.09-1l.56-1.7a6.89,6.89,0,0,0,3.6,1c2.29,0,4-1.19,4-4.29v-1.37h-.05a4.37,4.37,0,0,1-3.91,2c-3,0-5.23-2.59-5.23-6,0-4.16,2.72-6.52,5.54-6.52a4.07,4.07,0,0,1,3.83,2.13h.05L976,285Zm-2.31,4.85a3.17,3.17,0,0,0-.13-1,3.22,3.22,0,0,0-3.12-2.36c-2.14,0-3.66,1.8-3.66,4.64,0,2.42,1.22,4.42,3.63,4.42a3.27,3.27,0,0,0,3.1-2.28,3.84,3.84,0,0,0,.18-1.2Z"/><path class="cls-4" d="M982.85,291.53c0,3,2,4.26,4.21,4.26a8.14,8.14,0,0,0,3.4-.63l.38,1.6a10,10,0,0,1-4.08.76c-3.79,0-6-2.49-6-6.2s2.19-6.62,5.77-6.62c4,0,5.08,3.52,5.08,5.78a9.63,9.63,0,0,1-.08,1Zm6.55-1.6c0-1.43-.59-3.64-3.1-3.64-2.26,0-3.25,2.09-3.43,3.64Z"/><path class="cls-4" d="M997.83,298.28l7.08-18.41h1.73l-7.11,18.41Z"/><path class="cls-4" d="M1024.92,291c0,4.54-3.15,6.52-6.12,6.52-3.33,0-5.89-2.43-5.89-6.32,0-4.11,2.69-6.52,6.09-6.52S1024.92,287.26,1024.92,291Zm-9.75.12c0,2.7,1.54,4.73,3.73,4.73s3.73-2,3.73-4.78c0-2.08-1-4.72-3.68-4.72S1015.17,288.81,1015.17,291.14Z"/><path class="cls-4" d="M1027.63,297.26c0-.83.1-2.08.1-3.17V279.24h2.21V287h0a4.57,4.57,0,0,1,4.19-2.26c3,0,5.21,2.53,5.18,6.27,0,4.39-2.77,6.57-5.51,6.57a4.36,4.36,0,0,1-4.11-2.31h-.08l-.1,2Zm2.31-4.92a4.17,4.17,0,0,0,.1.81,3.45,3.45,0,0,0,3.35,2.62c2.34,0,3.74-1.91,3.74-4.73,0-2.46-1.27-4.57-3.66-4.57a3.56,3.56,0,0,0-3.4,2.74,4.52,4.52,0,0,0-.13.92Z"/><path class="cls-4" d="M1039.18,300.82a3.65,3.65,0,0,0,2.44-.94c.61-.71.84-1.68.84-4.62V285h2.23v11.15c0,2.39-.38,3.94-1.47,5.05a5.68,5.68,0,0,1-3.81,1.4Zm5.77-19.3a1.31,1.31,0,0,1-1.4,1.37,1.33,1.33,0,0,1-1.37-1.37,1.36,1.36,0,0,1,1.42-1.39A1.32,1.32,0,0,1,1045,281.52Z"/><path class="cls-4" d="M1049.59,291.53a3.93,3.93,0,0,0,4.22,4.26,8.17,8.17,0,0,0,3.4-.63l.38,1.6a10.06,10.06,0,0,1-4.09.76c-3.78,0-6-2.49-6-6.2s2.18-6.62,5.76-6.62c4,0,5.08,3.52,5.08,5.78a7.61,7.61,0,0,1-.08,1Zm6.55-1.6c0-1.43-.58-3.64-3.1-3.64-2.26,0-3.25,2.09-3.42,3.64Z"/><path class="cls-4" d="M1069.83,296.81a8.33,8.33,0,0,1-3.53.71c-3.71,0-6.12-2.52-6.12-6.27a6.24,6.24,0,0,1,6.6-6.53,7.39,7.39,0,0,1,3.1.64l-.51,1.72a5.23,5.23,0,0,0-2.59-.58c-2.82,0-4.34,2.08-4.34,4.64,0,2.85,1.83,4.6,4.26,4.6a6.39,6.39,0,0,0,2.75-.61Z"/><path class="cls-4" d="M1075.46,281.45V285h3.2v1.71h-3.2v6.62c0,1.53.43,2.39,1.68,2.39a5.27,5.27,0,0,0,1.29-.15l.1,1.67a5.37,5.37,0,0,1-2,.31,3.09,3.09,0,0,1-2.41-.94,4.57,4.57,0,0,1-.86-3.2v-6.7h-1.91V285h1.91V282Z"/><path class="cls-4" d="M1086.55,288.81c0-1.45,0-2.69-.1-3.84h2l.07,2.42h.11a3.67,3.67,0,0,1,3.4-2.69,2.43,2.43,0,0,1,.63.07v2.11a3.34,3.34,0,0,0-.76-.08,3.13,3.13,0,0,0-3,2.87,5.44,5.44,0,0,0-.11,1v6.55h-2.21Z"/><path class="cls-4" d="M1095.85,291.53c.05,3,2,4.26,4.21,4.26a8.14,8.14,0,0,0,3.4-.63l.39,1.6a10.1,10.1,0,0,1-4.09.76c-3.79,0-6-2.49-6-6.2s2.19-6.62,5.77-6.62c4,0,5.08,3.52,5.08,5.78a7.61,7.61,0,0,1-.08,1Zm6.55-1.6c0-1.43-.59-3.64-3.1-3.64-2.26,0-3.25,2.09-3.43,3.64Z"/><path class="cls-4" d="M1116.08,296.81a8.3,8.3,0,0,1-3.53.71c-3.7,0-6.12-2.52-6.12-6.27a6.25,6.25,0,0,1,6.61-6.53,7.34,7.34,0,0,1,3.09.64l-.5,1.72a5.29,5.29,0,0,0-2.59-.58c-2.82,0-4.35,2.08-4.35,4.64,0,2.85,1.83,4.6,4.27,4.6a6.31,6.31,0,0,0,2.74-.61Z"/><path class="cls-4" d="M1129.67,291c0,4.54-3.15,6.52-6.12,6.52-3.33,0-5.89-2.43-5.89-6.32,0-4.11,2.69-6.52,6.09-6.52S1129.67,287.26,1129.67,291Zm-9.75.12c0,2.7,1.54,4.73,3.73,4.73s3.73-2,3.73-4.78c0-2.08-1-4.72-3.68-4.72S1119.92,288.81,1119.92,291.14Z"/><path class="cls-4" d="M1143.07,285c0,.89-.1,1.88-.1,3.38v7.14c0,2.81-.56,4.54-1.75,5.61a6.56,6.56,0,0,1-4.47,1.47,8,8,0,0,1-4.09-1l.56-1.7a6.9,6.9,0,0,0,3.61,1c2.28,0,4-1.19,4-4.29v-1.37h0a4.4,4.4,0,0,1-3.91,2c-3,0-5.24-2.59-5.24-6,0-4.16,2.72-6.52,5.54-6.52a4.07,4.07,0,0,1,3.83,2.13h0l.11-1.86Zm-2.31,4.85a2.91,2.91,0,0,0-.13-1,3.2,3.2,0,0,0-3.12-2.36c-2.13,0-3.66,1.8-3.66,4.64,0,2.42,1.22,4.42,3.64,4.42a3.25,3.25,0,0,0,3.09-2.28,3.84,3.84,0,0,0,.18-1.2Z"/><path class="cls-4" d="M1146.52,288.3c0-1.27,0-2.31-.1-3.33h2l.13,2h0a4.51,4.51,0,0,1,4.06-2.31c1.7,0,4.34,1,4.34,5.23v7.33h-2.23v-7.08c0-2-.74-3.63-2.84-3.63a3.17,3.17,0,0,0-3,2.28,3.28,3.28,0,0,0-.15,1.05v7.38h-2.24Z"/><path class="cls-4" d="M1163.1,281.52a1.31,1.31,0,0,1-1.42,1.37,1.33,1.33,0,0,1-1.35-1.37,1.36,1.36,0,0,1,1.4-1.39A1.32,1.32,0,0,1,1163.1,281.52Zm-2.49,15.74V285h2.24v12.29Z"/><path class="cls-4" d="M1169.25,281.45V285h3.19v1.71h-3.19v6.62c0,1.53.43,2.39,1.67,2.39a5.36,5.36,0,0,0,1.3-.15l.1,1.67a5.41,5.41,0,0,1-2,.31,3.12,3.12,0,0,1-2.42-.94,4.57,4.57,0,0,1-.86-3.2v-6.7h-1.9V285h1.9V282Z"/><path class="cls-4" d="M1177.45,281.52a1.39,1.39,0,0,1-2.77,0,1.35,1.35,0,0,1,1.39-1.39A1.33,1.33,0,0,1,1177.45,281.52ZM1175,297.26V285h2.23v12.29Z"/><path class="cls-4" d="M1192,291c0,4.54-3.15,6.52-6.12,6.52-3.33,0-5.89-2.43-5.89-6.32,0-4.11,2.69-6.52,6.09-6.52S1192,287.26,1192,291Zm-9.75.12c0,2.7,1.55,4.73,3.73,4.73s3.73-2,3.73-4.78c0-2.08-1-4.72-3.68-4.72S1182.27,288.81,1182.27,291.14Z"/><path class="cls-4" d="M1194.84,288.3c0-1.27,0-2.31-.11-3.33h2l.13,2h.05a4.52,4.52,0,0,1,4.07-2.31c1.7,0,4.34,1,4.34,5.23v7.33h-2.24v-7.08c0-2-.73-3.63-2.84-3.63a3.18,3.18,0,0,0-3,2.28,3.28,3.28,0,0,0-.15,1.05v7.38h-2.23Z"/><path class="cls-4" d="M927.75,352.65V335.54h2.42l5.48,8.66a46.83,46.83,0,0,1,3.07,5.56l0,0c-.2-2.28-.25-4.37-.25-7v-7.16h2.08v17.11h-2.23L932.93,344a56.2,56.2,0,0,1-3.2-5.72l-.07,0c.13,2.16.18,4.22.18,7.06v7.31Z"/><path class="cls-4" d="M951.19,352.65,951,351.1h-.08a4.54,4.54,0,0,1-3.75,1.83,3.5,3.5,0,0,1-3.76-3.53c0-3,2.64-4.59,7.39-4.57v-.25a2.54,2.54,0,0,0-2.8-2.85,6.14,6.14,0,0,0-3.2.92l-.5-1.48a7.58,7.58,0,0,1,4-1.09c3.76,0,4.68,2.57,4.68,5v4.6a17.57,17.57,0,0,0,.2,2.94Zm-.33-6.27c-2.44-.05-5.21.38-5.21,2.77a2,2,0,0,0,2.11,2.13,3.05,3.05,0,0,0,3-2.06,2.17,2.17,0,0,0,.13-.71Z"/><path class="cls-4" d="M959.21,336.83v3.53h3.2v1.7h-3.2v6.63c0,1.52.43,2.39,1.68,2.39a4.73,4.73,0,0,0,1.29-.16l.1,1.68a5.37,5.37,0,0,1-2,.31,3.09,3.09,0,0,1-2.41-.94,4.54,4.54,0,0,1-.86-3.2v-6.71h-1.91v-1.7H957v-2.94Z"/><path class="cls-4" d="M975.21,349.3c0,1.27,0,2.39.1,3.35h-2l-.13-2h-.05a4.63,4.63,0,0,1-4.06,2.28c-1.93,0-4.24-1.07-4.24-5.38v-7.19h2.23v6.81c0,2.33.71,3.91,2.74,3.91a3.24,3.24,0,0,0,2.95-2,3.46,3.46,0,0,0,.2-1.15v-7.54h2.24Z"/><path class="cls-4" d="M978.91,344.2c0-1.45,0-2.7-.1-3.84h2l.08,2.41h.1a3.69,3.69,0,0,1,3.4-2.69,2.43,2.43,0,0,1,.64.08v2.11a3.41,3.41,0,0,0-.76-.08,3.13,3.13,0,0,0-3,2.87,6.33,6.33,0,0,0-.1,1v6.55h-2.21Z"/><path class="cls-4" d="M993.89,352.65l-.18-1.55h-.07a4.58,4.58,0,0,1-3.76,1.83,3.5,3.5,0,0,1-3.76-3.53c0-3,2.64-4.59,7.39-4.57v-.25a2.54,2.54,0,0,0-2.79-2.85,6.09,6.09,0,0,0-3.2.92l-.51-1.48a7.65,7.65,0,0,1,4-1.09c3.75,0,4.67,2.57,4.67,5v4.6a17.57,17.57,0,0,0,.2,2.94Zm-.33-6.27c-2.44-.05-5.2.38-5.2,2.77a2,2,0,0,0,2.1,2.13,3.05,3.05,0,0,0,3-2.06,2.17,2.17,0,0,0,.13-.71Z"/><path class="cls-4" d="M999.32,334.62h2.24v18h-2.24Z"/><path class="cls-4" d="M1010.7,334.62h2.23v18h-2.23Z"/><path class="cls-4" d="M1023.49,352.65l-.18-1.55h-.07a4.58,4.58,0,0,1-3.76,1.83,3.5,3.5,0,0,1-3.76-3.53c0-3,2.64-4.59,7.39-4.57v-.25a2.54,2.54,0,0,0-2.79-2.85,6.11,6.11,0,0,0-3.2.92l-.51-1.48a7.65,7.65,0,0,1,4-1.09c3.76,0,4.67,2.57,4.67,5v4.6a17.57,17.57,0,0,0,.2,2.94Zm-.33-6.27c-2.44-.05-5.2.38-5.2,2.77a2,2,0,0,0,2.1,2.13,3.08,3.08,0,0,0,3-2.06,2.46,2.46,0,0,0,.12-.71Z"/><path class="cls-4" d="M1028.92,343.69c0-1.27,0-2.31-.1-3.33h2l.13,2h0a4.53,4.53,0,0,1,4.06-2.31c1.71,0,4.35,1,4.35,5.23v7.34h-2.24v-7.08c0-2-.73-3.63-2.84-3.63a3.17,3.17,0,0,0-3,2.28,3.26,3.26,0,0,0-.15,1v7.39h-2.24Z"/><path class="cls-4" d="M1053.6,340.36c0,.89-.1,1.88-.1,3.38v7.13c0,2.82-.56,4.55-1.75,5.62a6.54,6.54,0,0,1-4.47,1.47,8,8,0,0,1-4.09-1l.56-1.7a6.9,6.9,0,0,0,3.61,1c2.28,0,4-1.2,4-4.29v-1.38h0a4.38,4.38,0,0,1-3.91,2.06c-3,0-5.23-2.59-5.23-6,0-4.17,2.71-6.53,5.53-6.53a4.11,4.11,0,0,1,3.84,2.14h0l.1-1.86Zm-2.31,4.85a3.18,3.18,0,0,0-.12-1,3.23,3.23,0,0,0-3.13-2.37c-2.13,0-3.65,1.81-3.65,4.65,0,2.41,1.22,4.42,3.63,4.42a3.27,3.27,0,0,0,3.1-2.29,4.08,4.08,0,0,0,.17-1.19Z"/><path class="cls-4" d="M1067.49,349.3c0,1.27,0,2.39.1,3.35h-2l-.12-2h-.06a4.6,4.6,0,0,1-4.06,2.28c-1.93,0-4.24-1.07-4.24-5.38v-7.19h2.24v6.81c0,2.33.71,3.91,2.74,3.91a3.16,3.16,0,0,0,3.15-3.18v-7.54h2.23Z"/><path class="cls-4" d="M1078,352.65l-.18-1.55h-.07a4.58,4.58,0,0,1-3.76,1.83,3.5,3.5,0,0,1-3.76-3.53c0-3,2.64-4.59,7.39-4.57v-.25a2.54,2.54,0,0,0-2.79-2.85,6.11,6.11,0,0,0-3.2.92l-.51-1.48a7.65,7.65,0,0,1,4-1.09c3.76,0,4.67,2.57,4.67,5v4.6a17.57,17.57,0,0,0,.2,2.94Zm-.33-6.27c-2.44-.05-5.2.38-5.2,2.77a2,2,0,0,0,2.1,2.13,3.05,3.05,0,0,0,3-2.06,2.17,2.17,0,0,0,.13-.71Z"/><path class="cls-4" d="M1094,340.36c0,.89-.1,1.88-.1,3.38v7.13c0,2.82-.56,4.55-1.75,5.62a6.54,6.54,0,0,1-4.47,1.47,8,8,0,0,1-4.09-1l.56-1.7a6.9,6.9,0,0,0,3.61,1c2.28,0,4-1.2,4-4.29v-1.38h0a4.38,4.38,0,0,1-3.91,2.06c-3,0-5.23-2.59-5.23-6,0-4.17,2.71-6.53,5.53-6.53a4.11,4.11,0,0,1,3.84,2.14h0l.1-1.86Zm-2.31,4.85a2.91,2.91,0,0,0-.13-1,3.21,3.21,0,0,0-3.12-2.37c-2.13,0-3.65,1.81-3.65,4.65,0,2.41,1.21,4.42,3.63,4.42a3.25,3.25,0,0,0,3.09-2.29,3.78,3.78,0,0,0,.18-1.19Z"/><path class="cls-4" d="M1098.87,346.91c.05,3,2,4.27,4.21,4.27a8,8,0,0,0,3.41-.64l.38,1.6a9.85,9.85,0,0,1-4.09.77c-3.78,0-6-2.49-6-6.2s2.18-6.63,5.76-6.63c4,0,5.08,3.53,5.08,5.79a7.43,7.43,0,0,1-.08,1Zm6.55-1.6c0-1.42-.58-3.63-3.1-3.63-2.26,0-3.25,2.08-3.42,3.63Z"/><path class="cls-4" d="M1115.73,344.37c0-1.57,0-2.84-.1-4h2l.1,2.11h0a4.85,4.85,0,0,1,4.37-2.39c3,0,5.21,2.52,5.21,6.25,0,4.42-2.69,6.6-5.59,6.6A4.3,4.3,0,0,1,1118,351h0v6.68h-2.21Zm2.21,3.28a5.07,5.07,0,0,0,.1.91,3.44,3.44,0,0,0,3.35,2.62c2.36,0,3.73-1.93,3.73-4.75,0-2.46-1.29-4.57-3.65-4.57a3.56,3.56,0,0,0-3.38,2.77,3.47,3.47,0,0,0-.15.91Z"/><path class="cls-4" d="M1130.17,344.2c0-1.45,0-2.7-.1-3.84h2l.07,2.41h.1a3.69,3.69,0,0,1,3.41-2.69,2.41,2.41,0,0,1,.63.08v2.11a3.41,3.41,0,0,0-.76-.08,3.14,3.14,0,0,0-3,2.87,6.33,6.33,0,0,0-.1,1v6.55h-2.21Z"/><path class="cls-4" d="M1149.34,346.41c0,4.54-3.15,6.52-6.12,6.52-3.32,0-5.89-2.44-5.89-6.32,0-4.11,2.69-6.53,6.1-6.53S1149.34,342.65,1149.34,346.41Zm-9.75.12c0,2.69,1.55,4.72,3.74,4.72s3.73-2,3.73-4.77c0-2.08-1-4.72-3.68-4.72S1139.59,344.2,1139.59,346.53Z"/><path class="cls-4" d="M1160.92,352.19a8.11,8.11,0,0,1-3.53.72c-3.71,0-6.12-2.52-6.12-6.28a6.24,6.24,0,0,1,6.6-6.52,7.57,7.57,0,0,1,3.1.63l-.51,1.73a5.23,5.23,0,0,0-2.59-.58c-2.82,0-4.34,2.08-4.34,4.64,0,2.85,1.83,4.6,4.27,4.6a6.34,6.34,0,0,0,2.74-.61Z"/><path class="cls-4" d="M1164.63,346.91c0,3,2,4.27,4.21,4.27a8,8,0,0,0,3.4-.64l.38,1.6a9.8,9.8,0,0,1-4.08.77c-3.79,0-6-2.49-6-6.2s2.19-6.63,5.77-6.63c4,0,5.07,3.53,5.07,5.79a10,10,0,0,1-.07,1Zm6.55-1.6c0-1.42-.59-3.63-3.1-3.63-2.26,0-3.25,2.08-3.43,3.63Z"/><path class="cls-4" d="M1175.8,350.37a5.87,5.87,0,0,0,2.94.88c1.63,0,2.39-.81,2.39-1.82s-.64-1.65-2.29-2.26c-2.21-.79-3.25-2-3.25-3.48,0-2,1.6-3.61,4.24-3.61a6.23,6.23,0,0,1,3,.76l-.56,1.63a4.85,4.85,0,0,0-2.52-.71c-1.32,0-2,.76-2,1.67s.73,1.48,2.33,2.09c2.14.81,3.23,1.88,3.23,3.7,0,2.16-1.68,3.69-4.6,3.69a7,7,0,0,1-3.45-.84Z"/><path class="cls-4" d="M1185.85,350.37a5.88,5.88,0,0,0,3,.88c1.62,0,2.38-.81,2.38-1.82s-.63-1.65-2.28-2.26c-2.21-.79-3.25-2-3.25-3.48,0-2,1.6-3.61,4.24-3.61a6.22,6.22,0,0,1,3,.76l-.56,1.63a4.81,4.81,0,0,0-2.51-.71c-1.32,0-2.06.76-2.06,1.67s.74,1.48,2.34,2.09c2.13.81,3.22,1.88,3.22,3.7,0,2.16-1.67,3.69-4.59,3.69a7,7,0,0,1-3.46-.84Z"/><path class="cls-4" d="M1198.7,336.91a1.39,1.39,0,0,1-2.77,0,1.36,1.36,0,0,1,1.4-1.4A1.33,1.33,0,0,1,1198.7,336.91Zm-2.49,15.74V340.36h2.23v12.29Z"/><path class="cls-4" d="M1202.15,343.69c0-1.27,0-2.31-.1-3.33h2l.13,2h0a4.53,4.53,0,0,1,4.06-2.31c1.7,0,4.34,1,4.34,5.23v7.34h-2.23v-7.08c0-2-.74-3.63-2.85-3.63a3.17,3.17,0,0,0-3,2.28,3,3,0,0,0-.16,1v7.39h-2.23Z"/><path class="cls-4" d="M1226.83,340.36c0,.89-.1,1.88-.1,3.38v7.13c0,2.82-.56,4.55-1.76,5.62a6.53,6.53,0,0,1-4.46,1.47,7.92,7.92,0,0,1-4.09-1l.56-1.7a6.89,6.89,0,0,0,3.6,1c2.29,0,4-1.2,4-4.29v-1.38h0a4.36,4.36,0,0,1-3.91,2.06c-3,0-5.23-2.59-5.23-6,0-4.17,2.72-6.53,5.54-6.53a4.08,4.08,0,0,1,3.83,2.14h0l.1-1.86Zm-2.31,4.85a3.17,3.17,0,0,0-.13-1,3.22,3.22,0,0,0-3.12-2.37c-2.14,0-3.66,1.81-3.66,4.65,0,2.41,1.22,4.42,3.63,4.42a3.26,3.26,0,0,0,3.1-2.29,3.78,3.78,0,0,0,.18-1.19Z"/><circle class="cls-5" cx="51.4" cy="235.04" r="4.5"/><circle class="cls-5" cx="51.4" cy="290.35" r="4.5"/><circle class="cls-5" cx="51.4" cy="345.66" r="4.5"/><line class="cls-7" x1="19.1" y1="171.03" x2="388.87" y2="170.96"/><path class="cls-4" d="M63.8,77.35V76a16.76,16.76,0,0,1,1.54-1q10.84-5.43,21.71-10.82l3-1.52a5.05,5.05,0,0,1,2.16-5.79,6.79,6.79,0,0,1,7.56-.26,5.08,5.08,0,0,1,2.61,6l1.06.53c8,4,16.1,8,24.13,12.06A6.56,6.56,0,0,1,129,76.5v.17c-.06.21-.14.42-.18.64q-3.07,17.47-6.13,35a2,2,0,0,1-1.05,1.53c-1,.56-2,1.16-3,1.75l-5.78,3.38c.29.24.52.41.71.6,1.47,1.53,2.93,3.07,4.41,4.6a.64.64,0,0,1,0,1,47.84,47.84,0,0,1-4.17,4.36,28.36,28.36,0,0,1-32.89,1.53,23.71,23.71,0,0,1-6.63-6.58l5.44-5.63-.6-.37c-2.62-1.53-5.24-3.08-7.88-4.57A2.24,2.24,0,0,1,70,112.19q-2.57-14.81-5.17-29.61C64.51,80.83,64.14,79.09,63.8,77.35Zm61.44,1.81-1,.49Q111,86.27,97.73,92.9a2.83,2.83,0,0,1-2.8,0Q81.66,86.23,68.35,79.62c-.26-.13-.54-.24-.9-.41.06.43.09.74.14,1Q70.29,95.64,73,111a1.6,1.6,0,0,0,.65,1c2.76,1.64,5.54,3.23,8.3,4.87a1.3,1.3,0,0,0,1.32,0c2.25-.85,4.49-1.75,6.79-2.42a34.77,34.77,0,0,1,4.62-.75v-5.83H88.9L96.2,97l7.32,11H97.94v5.82a2.18,2.18,0,0,0,.29.09,28.62,28.62,0,0,1,11.33,3.11,1.31,1.31,0,0,0,1.06-.08c2.65-1.5,5.25-3.07,7.9-4.54a2.28,2.28,0,0,0,1.25-1.83c1.36-7.94,2.77-15.88,4.16-23.82C124.36,84.22,124.79,81.76,125.24,79.16ZM124,76.6c-.21-.13-.34-.23-.49-.31q-11.11-5.55-22.23-11.11a.86.86,0,0,0-1,.15,7,7,0,0,1-8,.09A1.05,1.05,0,0,0,91,65.35q-10.8,5.41-21.63,10.81c-.23.11-.45.25-.73.41.19.11.28.18.38.23q13.38,6.66,26.76,13.3a1.55,1.55,0,0,0,1.23,0c5-2.45,9.92-4.93,14.87-7.39ZM78.2,124.67c8.85,11,27.79,10.72,36.23,0C105.72,113.71,86.73,113.85,78.2,124.67ZM96.12,64.06l.08-.2a2.88,2.88,0,0,0,.51,0,3,3,0,0,0,2.56-2,2.35,2.35,0,0,0-.71-2.63,3.55,3.55,0,0,0-4.67,0A2.45,2.45,0,0,0,94,63.11,11.31,11.31,0,0,0,96.12,64.06Z"/><path class="cls-4" d="M96.31,130.25a7.36,7.36,0,0,1-4.43-1.65,5,5,0,0,1,.25-8.06,6.84,6.84,0,0,1,7.56-.52,5,5,0,0,1,3,5,5.3,5.3,0,0,1-3.85,4.64A17.1,17.1,0,0,1,96.31,130.25Zm.11-8.36c-2.13,0-3.7,1.63-3.23,3.41a3.23,3.23,0,0,0,3.16,2.15,3.18,3.18,0,0,0,3.1-2.21A2.89,2.89,0,0,0,96.42,121.89Z"/><path class="cls-4" d="M483,141c0-3.58,0-7.16,0-10.73a1.16,1.16,0,0,0-.79-1.23q-6.81-3.36-13.6-6.79a11.44,11.44,0,0,1-6.43-8.3,8.3,8.3,0,0,1-.13-1.73c0-2,0-4.08,0-6.2h-4.66l5.95-10.21L469.15,106h-4.52c0,.36-.07.68-.07,1q0,2.38,0,4.77a8.41,8.41,0,0,0,4.65,7.86c4.8,2.55,9.7,4.9,14.56,7.31a1.24,1.24,0,0,0,1,0c4.84-2.39,9.71-4.75,14.48-7.27a8.44,8.44,0,0,0,4.7-8c0-7.53,0-15,0-22.57V88c-1.31-.24-2.56-.45-3.81-.72a31.3,31.3,0,0,1-13-6,1.32,1.32,0,0,0-1-.15,5.1,5.1,0,0,1-3.59,0,1.09,1.09,0,0,0-1.28.24c-5.05,4-10.91,5.89-17.2,6.66a5.59,5.59,0,0,1-.58,0c-.05-.43-.11-.82-.15-1.21s-.07-.78-.11-1.25c6.15-.71,11.85-2.48,16.49-6.25a18.49,18.49,0,0,1-.43-3.65,4.6,4.6,0,0,1,3-4,1,1,0,0,0,.74-1.14c0-3.14,0-6.29,0-9.44h50.46v80Zm2.54-2.68H530.8V63.69H485.54c0,2.43,0,4.79,0,7.14,0,.24.36.57.63.7a4.78,4.78,0,0,1,3.08,4,20.75,20.75,0,0,1-.39,3.79A23.93,23.93,0,0,0,495.14,83a5.93,5.93,0,0,0,2.12.42c8,0,16,0,24,0h1.12V86H506.55v3.54h15.86v2.09H506.56v3.79h15.87V97.5H506.54v3.83h15.88v2H506.56v3.8h15.87v2H506.55V113H522.4v2h-1.16c-4.74,0-9.48,0-14.22,0-.33,0-.86.06-1,.26-.57,1.06-1,2.18-1.6,3.4h18V121h-1c-6.2,0-12.41,0-18.62,0a2.54,2.54,0,0,0-1.13.22c-1.67.88-3.33,1.8-5,2.71l-.62.37.08.19H522.4v2.4H495.65V124.5c-3.3,1.62-6.48,3.16-9.65,4.74a1,1,0,0,0-.44.68C485.53,132.7,485.54,135.48,485.54,138.34ZM481.7,76.21a2.55,2.55,0,0,0,2.45,2.66,2.59,2.59,0,1,0-2.45-2.66Z"/><path class="cls-4" d="M470.69,98.62h8.15V90.41h10.79v8.21h8.2v10.75h-8.18v8.26H478.91v-8.21h-8.22Zm16.38,8.24h8.25v-5.69H487V93h-5.59v8.26h-8.24v5.63h8.3v8.2h5.59Z"/><path class="cls-4" d="M495.72,74.25V71.82h26.7v2.43Z"/><path class="cls-4" d="M495.74,80.07V77.7h26.67v2.37Z"/><path class="cls-4" d="M964.7,101.61c-.79,2.64-2.62,3.94-5.27,4.5-4,.85-7.95,1.89-11.91,2.88a7.88,7.88,0,0,1-5.68-.95c-.79-.41-1.54-.9-2.3-1.36a4.12,4.12,0,0,0-4.53,0c-1.69,1-3.31,2.19-5.34,2.39a7.8,7.8,0,0,1-2.46-.08c-4.28-1-8.53-2.08-12.81-3.08a5.47,5.47,0,0,1-4.45-4.27.74.74,0,0,0-.14-.22V85a1.82,1.82,0,0,0,.16-.31,5.52,5.52,0,0,1,5.45-4.28h1.25c0-.28.08-.43.09-.59a20.18,20.18,0,0,1,2.12-8.05,1.2,1.2,0,0,0-.12-.91,5.46,5.46,0,0,1,8.07-7,1.47,1.47,0,0,0,1.13.19,28.67,28.67,0,0,1,16.73-.56c6.25,1.64,10.54,5.44,12.34,11.75.47,1.64.64,3.36,1,5.13h1a5.89,5.89,0,0,1,3.78,1.26,6.56,6.56,0,0,1,2,3.15ZM937.32,83.12H915.61a2.77,2.77,0,0,0-3.06,3q0,7.06,0,14.13a2.78,2.78,0,0,0,2.34,3c4.13,1,8.26,2,12.37,3a5.5,5.5,0,0,0,4.17-.6c.84-.45,1.62-1,2.46-1.45a6.75,6.75,0,0,1,7,.09c.64.37,1.26.76,1.89,1.14a6,6,0,0,0,4.94.75c3.89-1,7.81-1.94,11.73-2.88,1.93-.47,2.62-1.32,2.62-3.31V86.31c0-2.11-1.08-3.19-3.18-3.19Zm17.77-2.8a5.83,5.83,0,0,0,0-.61c-.05-.52-.1-1-.18-1.56-.74-4.73-3-8.5-7.34-10.65-5.9-2.89-12-2.85-18.24-1-.65.19-.47.6-.4,1a5.3,5.3,0,0,1-4.22,6,23,23,0,0,1-3.64,0,16.65,16.65,0,0,0-1.62,6.8Zm-28.84-12a2.72,2.72,0,0,0-2.69-2.79,2.75,2.75,0,1,0-.08,5.49A2.7,2.7,0,0,0,926.25,68.27Z"/><path class="cls-4" d="M924.94,121.29v7.14h-2.75c0-2.91,0-5.77,0-8.63a1.81,1.81,0,0,0-.64-1.51,10,10,0,0,1-3.4-9.06h2.53c0,.69.08,1.35.11,2a6.09,6.09,0,0,0,2.09,4.48,98.27,98.27,0,0,0,8.63,6.92,9.86,9.86,0,0,0,11.41.07,85.92,85.92,0,0,0,8.4-6.61,7,7,0,0,0,2.47-5.93c0-.3,0-.6,0-1h2.62a9.86,9.86,0,0,1-1.36,6.61,12.08,12.08,0,0,1-1.88,2.27,2.46,2.46,0,0,0-.84,2.09c0,3.44,0,6.89,0,10.34v1.12h4.92L951,142.52l-6.25-10.82h4.88V121.24c-.91.69-1.74,1.3-2.55,1.93a16.62,16.62,0,0,1-7.07,3.62,13.4,13.4,0,0,1-10.24-2C928.17,123.76,926.66,122.55,924.94,121.29Z"/><path class="cls-4" d="M914,98.22V85.91h2.57V98.22Z"/><path class="cls-4" d="M960.55,98.24H958V85.93h2.59Z"/><path class="cls-4" d="M933.18,87.15V84.62h8.17v2.53Z"/></svg>