<svg id="Layer_1" data-name="Layer 1" xmlns="http://www.w3.org/2000/svg" width="100" height="100" viewBox="0 0 100 100"><title>automated-access</title><path d="M92,42.66c-.63.4-1.21,1-1.89,1.14-1,.15-1.48-.63-1.5-1.85a39.53,39.53,0,0,0-3.42-15.52A38.71,38.71,0,0,0,73.73,11.76l-.85-.67a1.68,1.68,0,0,1-.49-2.4,1.7,1.7,0,0,1,2.53-.25,40.54,40.54,0,0,1,8.94,9.08,41.87,41.87,0,0,1,7.9,21.73A4.47,4.47,0,0,0,92,40Z"/><path d="M32.12,84.38l4.69,3.11c.26-.35.51-.68.74-1a61.83,61.83,0,0,0,10.3-29.74c.36-4.77.36-9.56.46-14.34,0-1.61.4-2.3,1.53-2.35s1.75.64,1.82,2.16a106.63,106.63,0,0,1-1.25,20.88A63.1,63.1,0,0,1,39.68,89.4l5.44,3.7-14,6.9Z"/><path d="M61.33,49.77a86.63,86.63,0,0,1-7.45,33c-.53,1.21-1.33,1.59-2.35,1.16s-1.22-1.32-.7-2.54a79.53,79.53,0,0,0,5-15.06c1.59-7.56,2.59-15.18,1.6-22.93a10.67,10.67,0,0,0-3.53-7,6.64,6.64,0,0,0-10.54,2.84,23.31,23.31,0,0,0-1,5.95,35.81,35.81,0,0,0,0,3.59,1.64,1.64,0,0,1-1.59,1.75A1.56,1.56,0,0,1,39.08,49c-.11-3.3-.3-6.64.68-9.86C41.53,33.28,47.7,29.93,53,32c4.38,1.7,6.65,5.26,7.49,9.69C61,44.34,61.08,47.08,61.33,49.77Z"/><path d="M23.58,43.64A27.1,27.1,0,0,1,26.94,29.3,26.43,26.43,0,0,1,64.25,20c.9.59,1.44,1.29,1,2.39s-1.57,1.25-2.72.51A23.64,23.64,0,0,0,53,19.35,22.91,22.91,0,0,0,27.55,37.13a75.1,75.1,0,0,0-.77,9.4c-.06.75-.09,1.51-.18,2.26-.14,1.13-.83,1.78-1.76,1.71s-1.59-.84-1.53-2C23.38,47,23.47,45.59,23.58,43.64Z"/><path d="M77.64,46.18c-.45,11.6-1.74,21.17-5.08,30.37a7.38,7.38,0,0,1-.3.78,1.68,1.68,0,1,1-3.12-1.24c.86-2.78,1.82-5.53,2.51-8.35A91.68,91.68,0,0,0,74.2,43.43,24.4,24.4,0,0,0,68.81,29c-1.12-1.47-1.18-2.41-.27-3.12s1.85-.33,3,1.17A28.09,28.09,0,0,1,77.64,46.18Z"/><path d="M85.37,43.65c0,.32,0,.79,0,1.27,0,1.37-.56,2.06-1.61,2.09s-1.64-.68-1.75-2.1a43.52,43.52,0,0,0-.62-6C78.5,25.74,71.11,16.54,58,12.42a33.53,33.53,0,0,0-3.74-.78c-1.22-.24-1.78-.9-1.65-1.93s.88-1.53,2.12-1.36a32.75,32.75,0,0,1,18.78,9.22C80.86,24.65,84.68,33.35,85.37,43.65Z"/><path d="M30.86,47.7c.47-3.63.7-7.31,1.5-10.86.47-2.06,1.77-4,2.84-5.85a1.46,1.46,0,0,1,2.21-.37,1.54,1.54,0,0,1,.41,2.31c-2.77,3.65-3.2,7.94-3.22,12.27,0,5.48-.12,10.93-1.59,16.26A33.5,33.5,0,0,1,26.81,74a6.76,6.76,0,0,1-.81.88,1.67,1.67,0,0,1-2.37-2.34A29.85,29.85,0,0,0,30,59.84a43.23,43.23,0,0,0,1.23-12.1Z"/><path d="M66.28,47.76c.13-4.66-.5-9.14-3.09-13.17-4.53-7.05-12.44-9.46-20-6.05-1.2.54-2.11.31-2.55-.64s0-1.86,1.21-2.45c8.57-4.16,18.76-1.07,24.14,7.28a24.9,24.9,0,0,1,3.68,13.54c0,1.52,0,3,0,4.55-.05,1.28-.74,2-1.8,1.93s-1.54-.73-1.54-2Z"/><path d="M49.88,0A44.17,44.17,0,0,1,68,4.23c.86.41,1.53.94,1.39,2C69.18,7.46,68,8,66.66,7.33A37.68,37.68,0,0,0,56.09,4,38.46,38.46,0,0,0,31.87,8c-.25.13-.49.28-.74.4a1.72,1.72,0,0,1-2.41-.53,1.66,1.66,0,0,1,.82-2.4A38.34,38.34,0,0,1,41.83,1C44.49.52,47.2.32,49.88,0Z"/><path d="M8,40.5a41.58,41.58,0,0,1,11-26.75c1.13-1.24,2.37-2.37,3.61-3.5.95-.87,2-.88,2.64-.13s.58,1.76-.47,2.68a38.05,38.05,0,0,0-12.78,22A70.59,70.59,0,0,0,11.33,42c-.12,1.26-.63,1.9-1.68,1.9S8.06,43.22,8,41.93Z"/><path d="M46,8.2A1.7,1.7,0,0,1,47.8,9.76a1.65,1.65,0,0,1-1.44,1.77,59,59,0,0,0-6.5,1.52A30.2,30.2,0,0,0,23,27.27c-.2.35-.36.71-.56,1.06a1.72,1.72,0,0,1-2.31.85,1.63,1.63,0,0,1-.66-2.35,52.8,52.8,0,0,1,4.32-6.57,33.32,33.32,0,0,1,21.89-12Z"/><path d="M20.07,34.28a41.1,41.1,0,0,0-.7,4.24c-.16,2.58-.17,5.17-.22,7.76a29.22,29.22,0,0,1-4,13.75,1.73,1.73,0,0,1-2.48.91,1.69,1.69,0,0,1-.46-2.5,29.25,29.25,0,0,0,3.63-15.86,51.21,51.21,0,0,1,.89-8.41,1.54,1.54,0,0,1,1.88-1.41A1.55,1.55,0,0,1,20.07,34.28Z"/><path d="M42.29,56.32a43.68,43.68,0,0,1-7.86,23.1,1.79,1.79,0,0,1-2.56.69,1.7,1.7,0,0,1-.26-2.53c4.65-6.43,6.81-13.7,7.36-21.52.09-1.21.77-1.84,1.81-1.77S42.36,55.11,42.29,56.32Z"/><path d="M69.06,58.06c-.58,3-1,6-1.78,8.9C66.1,71.68,64.76,76.35,63.46,81c-.37,1.33-1.23,1.89-2.23,1.56s-1.29-1.2-.94-2.57q2.48-9.85,4.92-19.7c.21-.85.26-1.74.4-2.6a1.69,1.69,0,0,1,1.84-1.63A1.84,1.84,0,0,1,69.06,58.06Z"/><path d="M85.26,53.43c-.92,5-1.83,9.94-2.78,14.9a1.64,1.64,0,0,1-2,1.39,1.66,1.66,0,0,1-1.21-2.14c.48-2.63,1.07-5.23,1.52-7.86.37-2.16.64-4.34.9-6.51.17-1.39.77-2.07,1.87-2S85.09,52,85.26,53.43Z"/><path d="M23.69,53.89c1.44,0,2.25.88,2,1.93a37.13,37.13,0,0,1-5.28,13.12,1.63,1.63,0,0,1-2.39.51A1.72,1.72,0,0,1,17.74,67a37.17,37.17,0,0,0,4.37-10.18,6.74,6.74,0,0,1,.42-1.73A5.82,5.82,0,0,1,23.69,53.89Z"/></svg>