<svg id="Layer_1" data-name="Layer 1" xmlns="http://www.w3.org/2000/svg" width="100" height="100" viewBox="0 0 100 100"><title>automate-the-process</title><path d="M.19,45.79h6a45,45,0,0,1,4.71-16.08C8,26.82,8,23.1,10,20.52S15.1,17.38,18.53,19c1.91-1.57,3.73-3.22,5.7-4.65s4-2.6,6.2-4l1.5,3a30,30,0,0,0-3,1.76c-2.51,1.88-5,3.85-7.45,5.78a1,1,0,0,0-.33,1.33,6.5,6.5,0,0,1-6.32,8.87,1.46,1.46,0,0,0-1.13.52A39.41,39.41,0,0,0,9.56,45.24a3.19,3.19,0,0,0,0,.51h5.59c-2.55,4.41-5,8.65-7.5,13C5.53,55,3.46,51.45,1.37,47.86,1,47.23.59,46.63.19,46Zm14.9-24.5A3.27,3.27,0,0,0,11.8,24.6a3.3,3.3,0,1,0,3.29-3.31Z"/><path d="M47,67.84a9,9,0,0,1,.06,2,13.76,13.76,0,0,1-.81,2.19c-.42,1.14-1,1.84-2.46,1.52-.9-.21-2.4,1.31-2.19,2.23.31,1.42-.42,2-1.54,2.46-.58.23-1.18.44-1.75.71a1.75,1.75,0,0,1-2.58-.71,2.35,2.35,0,0,0-3.2,0A1.77,1.77,0,0,1,30,79c-.5-.23-1-.42-1.55-.62-1.22-.47-2.11-1.07-1.73-2.67.2-.84-1.34-2.31-2.2-2.12a1.84,1.84,0,0,1-2.41-1.42c-.23-.63-.48-1.24-.75-1.85A1.82,1.82,0,0,1,22,67.71a2.2,2.2,0,0,0-.08-3,1.65,1.65,0,0,1-.63-2.42c.27-.61.47-1.25.72-1.86.44-1.09,1-1.92,2.44-1.53.91.24,2.41-1.35,2.23-2.31a1.83,1.83,0,0,1,1.39-2.33c.52-.19,1-.45,1.54-.65s1-.32,1.51-.5V28.25H41.62V25H61.24v3.14H71.68v26l1.16.19a5.72,5.72,0,0,1-.44.63c-3.66,4-7.3,8.1-11,12.1a2.46,2.46,0,0,1-1.59.71C55.47,67.86,51.12,67.84,47,67.84Zm-12.59-13c.52-.24,1.07-.32,1.24-.61.77-1.29,1.76-1.22,2.91-.68.6.28,1.21.55,1.84.78a1.67,1.67,0,0,1,1.2,2.11,2.37,2.37,0,0,0,2.44,2.42,1.6,1.6,0,0,1,2.06,1.23A18,18,0,0,1,47,62.17a16.14,16.14,0,0,1,.23,2.36H58.45V54.26h10V31.5H61.23v3.08H41.61V31.51H34.45Zm9.33,7.46c-1.84.49-2.68-.49-3.42-1.67a1.48,1.48,0,0,0-.39-.4c-1.22-.75-2.09-1.69-1.76-3.28,0,0-.11-.08-.17-.12l-.31-.31a7.59,7.59,0,0,1-.37.82,1.44,1.44,0,0,1-1.84.71,5.75,5.75,0,0,0-2.3,0,2,2,0,0,1-2.51-.93c-.08-.14-.33-.19-.82-.44.82,2-.48,2.81-1.59,3.69a1.79,1.79,0,0,0-.47.48,2.51,2.51,0,0,1-3,1.46s-.09.1-.16.17a6.41,6.41,0,0,1,1.23,1.88,9,9,0,0,1-.13,2.52.2.2,0,0,0,0,.11,2,2,0,0,1-1,2.7c-.1.06-.1.31-.15.52a5.53,5.53,0,0,1,2.09.17c.57.31.89,1.06,1.33,1.61a1.78,1.78,0,0,0,.49.46,2.55,2.55,0,0,1,1.5,3s.1.1.22.22c.82-.28,1-1.73,2.36-1.32a5.72,5.72,0,0,0,3.07,0c1.35-.42,1.44,1.22,2.61,1.28-.62-1.71.38-2.58,1.56-3.36a1.51,1.51,0,0,0,.47-.47,2.67,2.67,0,0,1,3.11-1.6s.09-.1.25-.3c-1.65-.77-1.27-2.2-1.22-3.6S42,63.37,43.78,62.32ZM58,28.27H45v3.12H58Zm3.74,29.36V61.9l3.86-4.27Z"/><path d="M70.06,89.45l-1.43-2.84c.36-.21.69-.42,1-.6a43.23,43.23,0,0,0,9-6.52A1.2,1.2,0,0,0,79,77.88a6.49,6.49,0,0,1,6.82-9.06,1.11,1.11,0,0,0,.94-.41A39.65,39.65,0,0,0,90.82,55h-6l7.49-13,7.47,12.93H94.19a44.81,44.81,0,0,1-1,5.18c-1,3.24-2.29,6.41-3.4,9.62A1.53,1.53,0,0,0,89.84,71a6.64,6.64,0,0,1,.2,8.33c-1.94,2.45-4.91,3.1-8.31,1.71A45.07,45.07,0,0,1,70.06,89.45ZM88.17,75.27A3.26,3.26,0,1,0,85,78.54,3.19,3.19,0,0,0,88.17,75.27Z"/><path d="M53.75,9.25v5.68L40.83,7.47,53.76,0V4.45c0,1.56,0,1.5,1.52,1.7C70.64,8.2,82,16.08,89.41,29.66c.08.16.14.33.26.62L88.31,31l-1.47.72A40.92,40.92,0,0,0,67.68,13,40.11,40.11,0,0,0,53.75,9.25Z"/><path d="M10.69,69.89l2.9-1.45c6.83,12.6,17.25,20,31.56,22.23V85.09l12.92,7.45L45.16,100V94C29.67,91.73,18.22,83.76,10.69,69.89Z"/><path d="M34,73.29a7.07,7.07,0,1,1,7.24-6.76A7,7,0,0,1,34,73.29Zm.17-3.22a3.89,3.89,0,0,0,3.89-3.79,3.91,3.91,0,1,0-7.82,0A3.92,3.92,0,0,0,34.18,70.07Z"/></svg>