<svg id="Layer_1" data-name="Layer 1" xmlns="http://www.w3.org/2000/svg" width="100" height="100" viewBox="0 0 100 100"><title>automate-data-capture</title><path d="M28.21,48q0-10.38,0-20.75a3.67,3.67,0,0,1,2.23-3.54,30.64,30.64,0,0,1,6.37-2.21,66.46,66.46,0,0,1,28.73.55A19.25,19.25,0,0,1,69.91,24a3.59,3.59,0,0,1,1.9,3.36q0,17.48,0,35c0,2-.06,4,0,6a3.78,3.78,0,0,1-2.29,4,34.07,34.07,0,0,1-7,2.29,92,92,0,0,1-9.82,1,2,2,0,0,0-1.76,1.06,6.18,6.18,0,0,1-6,3.06,6.06,6.06,0,0,1-5.44-3.83,2,2,0,0,0-1.52-1.21c-2.18-.58-4.39-1.12-6.5-1.9s-3.26-2.45-3.21-5c.12-6.56,0-13.12,0-19.68ZM68.53,41a66.37,66.37,0,0,1-37,0v3c0,4.4,0,4.45,4.31,5.54,6.75,1.71,13.61,1.79,20.5,1.28a31.57,31.57,0,0,0,11.33-2.55c.36-.18.85-.6.86-.92C68.56,45.21,68.53,43.07,68.53,41Zm-37,10.72v3c0,4.47,0,4.54,4.39,5.59a56.39,56.39,0,0,0,22.48.81,82.53,82.53,0,0,0,9.27-2.51c.35-.1.84-.52.85-.81.08-2.08,0-4.16,0-6.13A66,66,0,0,1,31.49,51.7Zm0-20.76v2c0,4.89,0,5,4.89,6a65.12,65.12,0,0,0,24.3.56,44.63,44.63,0,0,0,6.73-1.89,1.78,1.78,0,0,0,1-1.22c.12-1.85.05-3.72.05-5.52A66.76,66.76,0,0,1,31.49,30.94ZM52,72.61c3.06-.35,6.19-.56,9.28-1.08a43.51,43.51,0,0,0,6.15-1.78c.44-.14,1-.71,1-1.1.1-2.28,0-4.57,0-6.85a61,61,0,0,1-37,.56c0,2,0,4.1,0,6.2a1.2,1.2,0,0,0,.5.85,18.25,18.25,0,0,0,7,2.18c1.55-3.42,3.69-4.84,6.88-4.66C48.81,67.09,50.8,68.9,52,72.61ZM68.38,27.05l.11-.48A44.3,44.3,0,0,0,64.11,25a58.39,58.39,0,0,0-19.18-1.29A96.77,96.77,0,0,0,34.4,25.43a14.24,14.24,0,0,0-2.87,1.26v.57a45.53,45.53,0,0,0,5,1.7,66,66,0,0,0,25.45.35A15.25,15.25,0,0,0,68.38,27.05ZM45.46,70a3.28,3.28,0,1,0-.14,6.55,3.23,3.23,0,0,0,3.39-3.22A3.18,3.18,0,0,0,45.46,70Z"/><path d="M9.38,45.85h5.54L7.46,58.58,0,45.87c1.86,0,3.48,0,5.09,0,.78,0,1-.28,1.1-1a41.19,41.19,0,0,1,4.24-14.18c.24-.48.42-.82-.07-1.35C8,26.75,7.76,23.58,9.69,21A6.59,6.59,0,0,1,18,19.18l.49.23A44.93,44.93,0,0,1,30.4,11l1.41,2.73a9.28,9.28,0,0,1-.92.55A43.09,43.09,0,0,0,21.44,21,1.28,1.28,0,0,0,21,22.66a6.29,6.29,0,0,1-6,8.49,1.66,1.66,0,0,0-1.79,1.1C11.13,36.5,9.4,42.49,9.38,45.85Zm5.47-17.79a3.27,3.27,0,1,0-3.3-3.32A3.28,3.28,0,0,0,14.85,28.06Z"/><path d="M91,54.86H85.1l7.46-12.72L100,54.81H94.33a44.13,44.13,0,0,1-4.8,15.41A6.45,6.45,0,0,1,82.77,81a1.31,1.31,0,0,0-1.64.31A43.14,43.14,0,0,1,70.18,89L68.76,86.2A21.64,21.64,0,0,0,71,84.9C73.65,83,76.25,81,78.85,79.07a1,1,0,0,0,.38-1.39,6.32,6.32,0,0,1,6.29-9,1.57,1.57,0,0,0,1.78-1.06,41.77,41.77,0,0,0,3.59-11.43C91,55.77,91,55.38,91,54.86ZM85.07,71.7A3.34,3.34,0,0,0,81.73,75,3.38,3.38,0,0,0,88.48,75,3.35,3.35,0,0,0,85.07,71.7Z"/><path d="M53.79,9.59v5.68L40.85,7.93,53.74.6V6.39C69.94,8.22,82,16.11,90,30.43l-2.87,1.41C79.77,18.72,68.73,11.38,53.79,9.59Z"/><path d="M10.55,69.69l2.08-1.06c.24-.12.5-.2.84-.34A41.06,41.06,0,0,0,32.6,86.58c4.13,2,10,3.57,12.49,3.45V84.7l13,7.37L45.15,99.4v-6C29.74,91.22,18.2,83.44,10.55,69.69Z"/></svg>