<svg id="Layer_1" data-name="Layer 1" xmlns="http://www.w3.org/2000/svg" viewBox="0 0 698 605.39"><defs><style>.cls-1{fill:#92d1ff;}.cls-2{fill:#bee3ff;}.cls-3{fill:#061838;}.cls-4{fill:none;stroke:#061838;stroke-miterlimit:10;stroke-width:3px;}</style></defs><title>product-development</title><rect class="cls-1" x="-0.24" y="-0.12" width="698" height="197.16"/><rect class="cls-2" x="-0.24" y="204.07" width="698" height="197.16"/><rect class="cls-1" x="-0.24" y="408.11" width="698" height="197.16"/><path class="cls-3" d="M80.94,132.13l-2,6.46h-4.3L82,115.78h5.32l7.41,22.81H90.25l-2.06-6.46ZM87.48,129l-1.8-5.62c-.44-1.38-.81-2.94-1.15-4.26h-.07c-.33,1.32-.67,2.91-1.08,4.26L81.62,129Z"/><path class="cls-3" d="M97.4,134.77a9.2,9.2,0,0,0,4.23,1.18c1.82,0,2.64-.74,2.64-1.82s-.68-1.7-2.71-2.41c-3.22-1.11-4.57-2.87-4.54-4.8,0-2.91,2.41-5.18,6.23-5.18a9.67,9.67,0,0,1,4.37,1l-.81,3a7.42,7.42,0,0,0-3.49-1c-1.49,0-2.3.71-2.3,1.72s.78,1.56,2.87,2.31c3,1.08,4.37,2.6,4.4,5,0,3-2.33,5.14-6.7,5.14a10.63,10.63,0,0,1-5-1.15Z"/><path class="cls-3" d="M111.51,134.77a9.23,9.23,0,0,0,4.23,1.18c1.83,0,2.64-.74,2.64-1.82s-.67-1.7-2.7-2.41c-3.22-1.11-4.57-2.87-4.54-4.8,0-2.91,2.4-5.18,6.23-5.18a9.62,9.62,0,0,1,4.36,1l-.81,3a7.35,7.35,0,0,0-3.49-1c-1.48,0-2.3.71-2.3,1.72s.78,1.56,2.88,2.31c3,1.08,4.37,2.6,4.4,5,0,3-2.34,5.14-6.7,5.14a10.6,10.6,0,0,1-5-1.15Z"/><path class="cls-3" d="M128.77,131.52c.11,3,2.44,4.27,5.08,4.27a12.45,12.45,0,0,0,4.57-.75l.61,2.88a15.61,15.61,0,0,1-5.75,1c-5.35,0-8.5-3.28-8.5-8.32,0-4.57,2.78-8.87,8.06-8.87s7.1,4.4,7.1,8a10.09,10.09,0,0,1-.13,1.76Zm7.25-2.91c0-1.52-.65-4-3.42-4-2.57,0-3.66,2.34-3.83,4Z"/><path class="cls-3" d="M148.07,117.41v4.7h4v3.12h-4v7.27c0,2,.54,3.05,2.13,3.05a6.34,6.34,0,0,0,1.63-.2l.06,3.18a9.36,9.36,0,0,1-3,.4,4.86,4.86,0,0,1-3.59-1.35c-.88-1-1.28-2.44-1.28-4.6v-7.75h-2.37v-3.12H144v-3.72Z"/><path class="cls-3" d="M48.65,165.37c.1,3,2.44,4.27,5.08,4.27a12.28,12.28,0,0,0,4.57-.75l.61,2.88a15.71,15.71,0,0,1-5.76,1c-5.34,0-8.49-3.28-8.49-8.32,0-4.57,2.77-8.87,8.05-8.87s7.11,4.4,7.11,8a9.88,9.88,0,0,1-.14,1.76Zm7.24-2.91c0-1.52-.64-4-3.41-4-2.58,0-3.66,2.34-3.83,4Z"/><path class="cls-3" d="M85.24,152.14a7.52,7.52,0,0,0-3.38-.78c-2.88,0-3.83,1.76-3.83,3.93V156h9.82v16.49H83.68V159.08H78.06v13.37H73.87V159.08H67.81v13.37H63.65V159.08H61.41V156h2.24v-.47a7.32,7.32,0,0,1,2.06-5.42,6.43,6.43,0,0,1,4.6-1.65,7,7,0,0,1,2.88.64l-1,3a3.94,3.94,0,0,0-1.76-.44,2.29,2.29,0,0,0-1.76.71,4.48,4.48,0,0,0-.91,3V156h6.09v-.77c0-4.44,3.11-7.15,8-7.15a10.29,10.29,0,0,1,4.36,1Z"/><path class="cls-3" d="M104.43,171.94a12.1,12.1,0,0,1-4.66.84c-5.15,0-8.5-3.28-8.5-8.39,0-4.94,3.38-8.8,9.17-8.8a10.42,10.42,0,0,1,4,.78l-.75,3.11a7.34,7.34,0,0,0-3.14-.64c-3.18,0-5.08,2.34-5,5.35,0,3.38,2.2,5.31,5,5.31a8.12,8.12,0,0,0,3.28-.64Z"/><path class="cls-3" d="M112,151.36a2.34,2.34,0,0,1-4.67,0,2.34,2.34,0,0,1,4.67,0Zm-4.43,21.09V156h4.2v16.49Z"/><path class="cls-3" d="M119.13,165.37c.1,3,2.44,4.27,5.08,4.27a12.23,12.23,0,0,0,4.56-.75l.61,2.88a15.61,15.61,0,0,1-5.75,1c-5.35,0-8.49-3.28-8.49-8.32,0-4.57,2.77-8.87,8-8.87s7.11,4.4,7.11,8a9.88,9.88,0,0,1-.14,1.76Zm7.24-2.91c0-1.52-.64-4-3.42-4-2.57,0-3.65,2.34-3.82,4Z"/><path class="cls-3" d="M133.65,160.87c0-1.89,0-3.49-.13-4.91h3.65l.2,2.47h.11a5.94,5.94,0,0,1,5.24-2.84c2.88,0,5.86,1.86,5.86,7.07v9.79h-4.17v-9.31c0-2.37-.88-4.16-3.14-4.16a3.49,3.49,0,0,0-3.25,2.43,4.12,4.12,0,0,0-.17,1.36v9.68h-4.2Z"/><path class="cls-3" d="M165.13,171.94a12.2,12.2,0,0,1-4.67.84c-5.15,0-8.5-3.28-8.5-8.39,0-4.94,3.39-8.8,9.18-8.8a10.33,10.33,0,0,1,4,.78l-.74,3.11a7.43,7.43,0,0,0-3.15-.64c-3.18,0-5.08,2.34-5,5.35,0,3.38,2.2,5.31,5,5.31a8.08,8.08,0,0,0,3.28-.64Z"/><path class="cls-3" d="M171.36,156l3,8.84c.34,1,.68,2.26.91,3.21h.1c.27-.95.58-2.16.88-3.25l2.58-8.8h4.46l-4.13,11.24c-2.26,6.16-3.79,8.9-5.75,10.59a8.28,8.28,0,0,1-4.37,2.13l-.94-3.51a7.59,7.59,0,0,0,4.7-3.76,1.67,1.67,0,0,0,.27-.75,1.7,1.7,0,0,0-.24-.81l-6-15.13Z"/><path class="cls-3" d="M32.64,527.45v22.81H28.48V527.45Z"/><path class="cls-3" d="M37.45,538.68c0-1.89,0-3.48-.14-4.9H41l.2,2.47h.1a6,6,0,0,1,5.25-2.85c2.87,0,5.85,1.86,5.85,7.08v9.78H48.21V541c0-2.37-.88-4.16-3.15-4.16a3.49,3.49,0,0,0-3.25,2.43,4.45,4.45,0,0,0-.17,1.36v9.68H37.45Z"/><path class="cls-3" d="M57.28,550.26V536.89H55.05v-3.11h2.23v-.72a7.69,7.69,0,0,1,2-5.61,6.31,6.31,0,0,1,4.3-1.59,8,8,0,0,1,2.67.4l-.3,3.22a4.83,4.83,0,0,0-1.76-.31c-2.07,0-2.78,1.73-2.78,3.76v.85H65v3.11H61.45v13.37Z"/><path class="cls-3" d="M82.9,541.86c0,6.06-4.26,8.77-8.46,8.77-4.67,0-8.25-3.22-8.25-8.5s3.55-8.73,8.52-8.73S82.9,536.85,82.9,541.86ZM70.48,542c0,3.18,1.56,5.59,4.1,5.59,2.37,0,4-2.34,4-5.66,0-2.57-1.15-5.51-4-5.51S70.48,539.29,70.48,542Z"/><path class="cls-3" d="M86.33,539.09c0-2.24,0-3.83-.14-5.31h3.62l.14,3.14h.13a4.67,4.67,0,0,1,5.49-3.42v3.93a5.62,5.62,0,0,0-1.22-.14,3.67,3.67,0,0,0-3.72,3.15,6.88,6.88,0,0,0-.14,1.29v8.53H86.33Z"/><path class="cls-3" d="M98.38,538.68c0-1.89,0-3.48-.14-4.9h3.59l.17,2.43h.1a5.71,5.71,0,0,1,5.08-2.81,4.76,4.76,0,0,1,4.57,3.05h.06a6.48,6.48,0,0,1,2-2.07,5.56,5.56,0,0,1,3.32-1c2.74,0,5.52,1.86,5.52,7.14v9.72h-4.06v-9.11c0-2.74-1-4.36-3-4.36a3.17,3.17,0,0,0-2.91,2.2,6,6,0,0,0-.2,1.39v9.88H108.5v-9.55c0-2.3-.92-3.92-2.85-3.92a3.25,3.25,0,0,0-3,2.37,3.52,3.52,0,0,0-.24,1.35v9.75H98.38Z"/><path class="cls-3" d="M136.36,550.26l-.27-1.83H136a6.1,6.1,0,0,1-4.87,2.2,4.89,4.89,0,0,1-5.18-4.91c0-4.16,3.69-6.26,9.78-6.22v-.28c0-1.08-.44-2.87-3.35-2.87a8.65,8.65,0,0,0-4.43,1.22l-.81-2.71a11.8,11.8,0,0,1,5.95-1.46c5.28,0,6.81,3.35,6.81,6.94v6a26.46,26.46,0,0,0,.23,4Zm-.54-8.06c-2.95-.07-5.76.58-5.76,3.08a2.18,2.18,0,0,0,2.37,2.37,3.36,3.36,0,0,0,3.25-2.27,3,3,0,0,0,.14-.91Z"/><path class="cls-3" d="M148.85,529.07v4.71h4v3.11h-4v7.28c0,2,.54,3,2.13,3a6.34,6.34,0,0,0,1.63-.2l.06,3.18a9,9,0,0,1-3,.41,4.82,4.82,0,0,1-3.59-1.36c-.88-1-1.28-2.44-1.28-4.6v-7.75h-2.37v-3.11h2.37v-3.73Z"/><path class="cls-3" d="M160.39,529.17a2.34,2.34,0,1,1-2.33-2.27A2.21,2.21,0,0,1,160.39,529.17ZM156,550.26V533.78h4.2v16.48Z"/><path class="cls-3" d="M180.29,541.86c0,6.06-4.26,8.77-8.46,8.77-4.67,0-8.25-3.22-8.25-8.5s3.55-8.73,8.52-8.73S180.29,536.85,180.29,541.86Zm-12.42.17c0,3.18,1.56,5.59,4.1,5.59,2.37,0,4-2.34,4-5.66,0-2.57-1.15-5.51-4-5.51S167.87,539.29,167.87,542Z"/><path class="cls-3" d="M183.72,538.68c0-1.89,0-3.48-.14-4.9h3.66l.2,2.47h.1a6,6,0,0,1,5.25-2.85c2.87,0,5.85,1.86,5.85,7.08v9.78h-4.16V541c0-2.37-.88-4.16-3.15-4.16a3.49,3.49,0,0,0-3.25,2.43,4.45,4.45,0,0,0-.17,1.36v9.68h-4.19Z"/><path class="cls-3" d="M48.65,577c.1,3,2.44,4.26,5.08,4.26a12.28,12.28,0,0,0,4.57-.75l.61,2.88a15.49,15.49,0,0,1-5.76,1c-5.34,0-8.49-3.29-8.49-8.33,0-4.57,2.77-8.87,8.05-8.87s7.11,4.4,7.11,8a10.11,10.11,0,0,1-.14,1.77Zm7.24-2.92c0-1.52-.64-4-3.41-4-2.58,0-3.66,2.33-3.83,4Z"/><path class="cls-3" d="M85.24,563.8a7.66,7.66,0,0,0-3.38-.78C79,563,78,564.78,78,567v.68h9.82v16.48H83.68V570.74H78.06v13.37H73.87V570.74H67.81v13.37H63.65V570.74H61.41v-3.11h2.24v-.48a7.3,7.3,0,0,1,2.06-5.41,6.44,6.44,0,0,1,4.6-1.66,7.14,7.14,0,0,1,2.88.64l-1,3a4.08,4.08,0,0,0-1.76-.44,2.29,2.29,0,0,0-1.76.71,4.49,4.49,0,0,0-.91,3v.58h6.09v-.78c0-4.44,3.11-7.14,8-7.14a10.3,10.3,0,0,1,4.36.94Z"/><path class="cls-3" d="M104.43,583.6a11.88,11.88,0,0,1-4.66.85c-5.15,0-8.5-3.29-8.5-8.4,0-4.94,3.38-8.8,9.17-8.8a10.42,10.42,0,0,1,4,.78l-.75,3.12a7.17,7.17,0,0,0-3.14-.65c-3.18,0-5.08,2.34-5,5.35,0,3.38,2.2,5.31,5,5.31a8.12,8.12,0,0,0,3.28-.64Z"/><path class="cls-3" d="M112,563a2.34,2.34,0,1,1-2.33-2.26A2.2,2.2,0,0,1,112,563Zm-4.43,21.09V567.63h4.2v16.48Z"/><path class="cls-3" d="M119.13,577c.1,3,2.44,4.26,5.08,4.26a12.23,12.23,0,0,0,4.56-.75l.61,2.88a15.39,15.39,0,0,1-5.75,1c-5.35,0-8.49-3.29-8.49-8.33,0-4.57,2.77-8.87,8-8.87s7.11,4.4,7.11,8a10.11,10.11,0,0,1-.14,1.77Zm7.24-2.92c0-1.52-.64-4-3.42-4-2.57,0-3.65,2.33-3.82,4Z"/><path class="cls-3" d="M133.65,572.53c0-1.89,0-3.48-.13-4.9h3.65l.2,2.47h.11a5.93,5.93,0,0,1,5.24-2.85c2.88,0,5.86,1.87,5.86,7.08v9.78h-4.17V574.8c0-2.37-.88-4.16-3.14-4.16a3.49,3.49,0,0,0-3.25,2.44,4.1,4.1,0,0,0-.17,1.35v9.68h-4.2Z"/><path class="cls-3" d="M165.13,583.6a12,12,0,0,1-4.67.85c-5.15,0-8.5-3.29-8.5-8.4,0-4.94,3.39-8.8,9.18-8.8a10.33,10.33,0,0,1,4,.78l-.74,3.12a7.26,7.26,0,0,0-3.15-.65c-3.18,0-5.08,2.34-5,5.35,0,3.38,2.2,5.31,5,5.31a8.08,8.08,0,0,0,3.28-.64Z"/><path class="cls-3" d="M171.36,567.63l3,8.83c.34,1,.68,2.27.91,3.21h.1c.27-.94.58-2.16.88-3.24l2.58-8.8h4.46l-4.13,11.23c-2.26,6.16-3.79,8.9-5.75,10.6a8.44,8.44,0,0,1-4.37,2.13l-.94-3.52a7.06,7.06,0,0,0,2.43-1.15,7.21,7.21,0,0,0,2.27-2.61,1.64,1.64,0,0,0,.27-.74,1.73,1.73,0,0,0-.24-.82l-6-15.12Z"/><path class="cls-3" d="M39.37,338.24H30.78v6.7h9.61v3.42H26.62V325.55H39.88V329h-9.1v5.89h8.59Z"/><path class="cls-3" d="M43.88,336.79c0-1.9,0-3.49-.14-4.91H47.4l.2,2.47h.1A6,6,0,0,1,53,331.51c2.88,0,5.85,1.86,5.85,7.07v9.78H54.64v-9.3c0-2.37-.88-4.17-3.15-4.17a3.5,3.5,0,0,0-3.24,2.44,4.1,4.1,0,0,0-.17,1.35v9.68h-4.2Z"/><path class="cls-3" d="M78.3,331.88c-.07,1.12-.13,2.47-.13,4.74V346c0,3.45-.71,5.92-2.44,7.48a9.51,9.51,0,0,1-6.36,2,11.71,11.71,0,0,1-5.76-1.32l.92-3.15a9.94,9.94,0,0,0,4.8,1.25c2.71,0,4.74-1.42,4.74-5v-1.42H74a5.56,5.56,0,0,1-4.8,2.43c-4.1,0-7-3.38-7-8.05,0-5.42,3.52-8.7,7.48-8.7a5.19,5.19,0,0,1,4.77,2.57h.07l.17-2.2Zm-4.3,6.6a4.14,4.14,0,0,0-.13-1.12,3.46,3.46,0,0,0-3.39-2.67c-2.33,0-4.06,2-4.06,5.38,0,2.81,1.42,5.08,4,5.08a3.55,3.55,0,0,0,3.38-2.51,6.61,6.61,0,0,0,.17-1.49Z"/><path class="cls-3" d="M86.94,327.28a2.21,2.21,0,0,1-2.37,2.23,2.18,2.18,0,0,1-2.3-2.23,2.34,2.34,0,0,1,4.67,0ZM82.5,348.36V331.88h4.2v16.48Z"/><path class="cls-3" d="M91.17,336.79c0-1.9,0-3.49-.14-4.91h3.66l.2,2.47H95a6,6,0,0,1,5.25-2.84c2.88,0,5.85,1.86,5.85,7.07v9.78h-4.16v-9.3c0-2.37-.88-4.17-3.15-4.17a3.49,3.49,0,0,0-3.24,2.44,4.1,4.1,0,0,0-.17,1.35v9.68h-4.2Z"/><path class="cls-3" d="M113.48,341.29c.1,3,2.43,4.26,5.07,4.26a12.47,12.47,0,0,0,4.57-.74l.61,2.88a15.61,15.61,0,0,1-5.75,1c-5.35,0-8.5-3.28-8.5-8.32,0-4.57,2.78-8.87,8.06-8.87s7.1,4.4,7.1,8a10.09,10.09,0,0,1-.13,1.76Zm7.24-2.91c0-1.52-.64-4-3.42-4-2.57,0-3.65,2.34-3.82,4Z"/><path class="cls-3" d="M130.94,341.29c.1,3,2.44,4.26,5.08,4.26a12.47,12.47,0,0,0,4.57-.74l.61,2.88a15.67,15.67,0,0,1-5.76,1c-5.34,0-8.49-3.28-8.49-8.32,0-4.57,2.77-8.87,8-8.87s7.11,4.4,7.11,8a11.21,11.21,0,0,1-.13,1.76Zm7.25-2.91c0-1.52-.65-4-3.42-4-2.57,0-3.66,2.34-3.83,4Z"/><path class="cls-3" d="M145.46,337.19c0-2.23,0-3.82-.13-5.31H149l.14,3.15h.13a4.91,4.91,0,0,1,4.5-3.52,4.16,4.16,0,0,1,1,.1v3.93a5.51,5.51,0,0,0-1.21-.14,3.68,3.68,0,0,0-3.73,3.15,7.9,7.9,0,0,0-.13,1.28v8.53h-4.17Z"/><path class="cls-3" d="M162,327.28a2.34,2.34,0,1,1-2.34-2.27A2.2,2.2,0,0,1,162,327.28Zm-4.43,21.08V331.88h4.19v16.48Z"/><path class="cls-3" d="M166.18,336.79c0-1.9,0-3.49-.13-4.91h3.65l.2,2.47H170a5.94,5.94,0,0,1,5.24-2.84c2.88,0,5.86,1.86,5.86,7.07v9.78h-4.17v-9.3c0-2.37-.88-4.17-3.14-4.17a3.5,3.5,0,0,0-3.25,2.44,4.1,4.1,0,0,0-.17,1.35v9.68h-4.2Z"/><path class="cls-3" d="M200.6,331.88c-.06,1.12-.13,2.47-.13,4.74V346c0,3.45-.71,5.92-2.44,7.48a9.48,9.48,0,0,1-6.36,2,11.64,11.64,0,0,1-5.75-1.32l.91-3.15a10,10,0,0,0,4.81,1.25c2.7,0,4.73-1.42,4.73-5v-1.42h-.06a5.58,5.58,0,0,1-4.81,2.43c-4.09,0-7-3.38-7-8.05,0-5.42,3.51-8.7,7.47-8.7a5.2,5.2,0,0,1,4.78,2.57h.06l.17-2.2Zm-4.29,6.6a4.14,4.14,0,0,0-.14-1.12,3.45,3.45,0,0,0-3.38-2.67c-2.34,0-4.06,2-4.06,5.38,0,2.81,1.42,5.08,4,5.08a3.57,3.57,0,0,0,3.39-2.51,7.23,7.23,0,0,0,.17-1.49Z"/><path class="cls-3" d="M48.65,375.14c.1,3,2.44,4.27,5.08,4.27a12.49,12.49,0,0,0,4.57-.75l.61,2.88a15.67,15.67,0,0,1-5.76,1c-5.34,0-8.49-3.28-8.49-8.32,0-4.57,2.77-8.87,8.05-8.87s7.11,4.4,7.11,8a9.88,9.88,0,0,1-.14,1.76Zm7.24-2.91c0-1.52-.64-4-3.41-4-2.58,0-3.66,2.34-3.83,4Z"/><path class="cls-3" d="M85.24,361.91a7.52,7.52,0,0,0-3.38-.78c-2.88,0-3.83,1.76-3.83,3.93v.67h9.82v16.48H83.68V368.85H78.07v13.36h-4.2V368.85H67.81v13.36H63.65V368.85H61.41v-3.12h2.24v-.47a7.32,7.32,0,0,1,2.06-5.42,6.44,6.44,0,0,1,4.61-1.65,7,7,0,0,1,2.87.64l-1,3a3.94,3.94,0,0,0-1.76-.44,2.29,2.29,0,0,0-1.76.71,4.48,4.48,0,0,0-.91,3.05v.57h6.09V365c0-4.43,3.11-7.14,8-7.14a10.29,10.29,0,0,1,4.36.95Z"/><path class="cls-3" d="M104.44,381.71a12.2,12.2,0,0,1-4.67.84c-5.15,0-8.5-3.28-8.5-8.39,0-4.94,3.39-8.8,9.17-8.8a10.42,10.42,0,0,1,4,.78l-.75,3.11a7.34,7.34,0,0,0-3.14-.64c-3.18,0-5.08,2.33-5,5.35,0,3.38,2.19,5.31,5,5.31a8.12,8.12,0,0,0,3.28-.64Z"/><path class="cls-3" d="M112,361.13a2.34,2.34,0,0,1-4.67,0,2.34,2.34,0,0,1,4.67,0Zm-4.43,21.08V365.73h4.2v16.48Z"/><path class="cls-3" d="M119.13,375.14c.1,3,2.44,4.27,5.08,4.27a12.43,12.43,0,0,0,4.56-.75l.61,2.88a15.61,15.61,0,0,1-5.75,1c-5.35,0-8.49-3.28-8.49-8.32,0-4.57,2.77-8.87,8-8.87s7.11,4.4,7.11,8a9.88,9.88,0,0,1-.14,1.76Zm7.24-2.91c0-1.52-.64-4-3.42-4-2.57,0-3.65,2.34-3.82,4Z"/><path class="cls-3" d="M133.65,370.64c0-1.9,0-3.49-.13-4.91h3.65l.2,2.47h.11a5.94,5.94,0,0,1,5.24-2.84c2.88,0,5.86,1.86,5.86,7.07v9.78h-4.17v-9.3c0-2.37-.88-4.17-3.14-4.17a3.5,3.5,0,0,0-3.25,2.44,4.12,4.12,0,0,0-.17,1.36v9.67h-4.2Z"/><path class="cls-3" d="M165.13,381.71a12.2,12.2,0,0,1-4.67.84c-5.14,0-8.5-3.28-8.5-8.39,0-4.94,3.39-8.8,9.18-8.8a10.33,10.33,0,0,1,4,.78l-.74,3.11a7.43,7.43,0,0,0-3.15-.64c-3.18,0-5.07,2.33-5,5.35,0,3.38,2.2,5.31,5,5.31a8.08,8.08,0,0,0,3.28-.64Z"/><path class="cls-3" d="M171.36,365.73l3,8.84c.34,1,.68,2.26.91,3.21h.1c.27-.95.58-2.17.88-3.25l2.58-8.8h4.46L179.14,377c-2.26,6.16-3.79,8.9-5.75,10.59a8.29,8.29,0,0,1-4.36,2.13l-.95-3.52a7.06,7.06,0,0,0,2.43-1.15,7.17,7.17,0,0,0,2.27-2.6,1.67,1.67,0,0,0,.27-.75,1.77,1.77,0,0,0-.23-.81l-6-15.13Z"/><path class="cls-3" d="M292.27,55.24c-2.31-.61-4.57-1.3-6.55-2a3.24,3.24,0,0,0-1-.26c-4.06-.15-7.54-3.15-7.54-8.66s3.35-9,8-9,7.67,3.61,7.67,8.66c0,4.39-2,7.21-4.88,8.2v.1c1.7.43,3.56.84,5,1.09Zm-1.83-11.15c0-3.43-1.78-7-5.41-7s-5.56,3.46-5.53,7.16,2,6.91,5.43,6.91S290.44,48,290.44,44.09Z"/><path class="cls-3" d="M305.93,49.37c0,1.27,0,2.39.1,3.35h-2l-.13-2h-.05A4.62,4.62,0,0,1,299.81,53c-1.93,0-4.24-1.06-4.24-5.38V40.43h2.23v6.81c0,2.33.71,3.91,2.74,3.91A3.13,3.13,0,0,0,303.69,48V40.43h2.24Z"/><path class="cls-3" d="M316.44,52.72l-.18-1.55h-.08A4.54,4.54,0,0,1,312.43,53a3.5,3.5,0,0,1-3.76-3.53c0-3,2.64-4.59,7.39-4.57v-.25a2.53,2.53,0,0,0-2.8-2.84,6.07,6.07,0,0,0-3.19.91l-.51-1.47a7.61,7.61,0,0,1,4-1.1c3.76,0,4.68,2.57,4.68,5v4.6a17.49,17.49,0,0,0,.2,2.94Zm-.33-6.27c-2.44-.05-5.21.38-5.21,2.77A2,2,0,0,0,313,51.35a3,3,0,0,0,3-2.05,2.28,2.28,0,0,0,.13-.72Z"/><path class="cls-3" d="M321.87,34.7h2.24v18h-2.24Z"/><path class="cls-3" d="M330.35,37a1.31,1.31,0,0,1-1.42,1.37A1.33,1.33,0,0,1,327.58,37a1.37,1.37,0,0,1,1.4-1.4A1.33,1.33,0,0,1,330.35,37Zm-2.49,15.74V40.43h2.24V52.72Z"/><path class="cls-3" d="M336.49,36.9v3.53h3.2v1.71h-3.2v6.62c0,1.53.44,2.39,1.68,2.39a5.2,5.2,0,0,0,1.29-.15l.11,1.67a5.45,5.45,0,0,1-2,.31,3.11,3.11,0,0,1-2.42-.94,4.57,4.57,0,0,1-.86-3.2v-6.7h-1.9V40.43h1.9V37.49Z"/><path class="cls-3" d="M343.25,40.43l2.69,7.27c.28.81.58,1.77.78,2.51h.06c.22-.74.48-1.68.78-2.56L350,40.43h2.36L349,49.19c-1.6,4.22-2.69,6.38-4.22,7.7a6,6,0,0,1-2.74,1.44l-.56-1.87a6,6,0,0,0,2-1.1,6.76,6.76,0,0,0,1.88-2.48,1.67,1.67,0,0,0,.18-.54,2.14,2.14,0,0,0-.16-.58l-4.54-11.33Z"/><path class="cls-3" d="M368.53,52.27A8.3,8.3,0,0,1,365,53c-3.7,0-6.12-2.52-6.12-6.27a6.25,6.25,0,0,1,6.61-6.53,7.52,7.52,0,0,1,3.09.63l-.5,1.73a5.29,5.29,0,0,0-2.59-.58c-2.82,0-4.35,2.08-4.35,4.64,0,2.85,1.83,4.6,4.27,4.6a6.31,6.31,0,0,0,2.74-.61Z"/><path class="cls-3" d="M382.12,46.48C382.12,51,379,53,376,53c-3.33,0-5.89-2.44-5.89-6.32,0-4.11,2.69-6.53,6.09-6.53S382.12,42.72,382.12,46.48Zm-9.75.12c0,2.7,1.55,4.73,3.73,4.73s3.73-2,3.73-4.78c0-2.08-1-4.72-3.68-4.72S372.37,44.27,372.37,46.6Z"/><path class="cls-3" d="M384.93,43.76c0-1.27,0-2.31-.1-3.33h2l.13,2H387a4.52,4.52,0,0,1,4.06-2.32c1.7,0,4.34,1,4.34,5.24v7.33h-2.23V45.64c0-2-.74-3.63-2.84-3.63a3.17,3.17,0,0,0-3,2.28,3.26,3.26,0,0,0-.15,1v7.39h-2.24Z"/><path class="cls-3" d="M401.62,36.9v3.53h3.19v1.71h-3.19v6.62c0,1.53.43,2.39,1.67,2.39a5.36,5.36,0,0,0,1.3-.15l.1,1.67a5.41,5.41,0,0,1-2,.31,3.12,3.12,0,0,1-2.42-.94,4.57,4.57,0,0,1-.86-3.2v-6.7h-1.9V40.43h1.9V37.49Z"/><path class="cls-3" d="M407.33,44.27c0-1.45,0-2.69-.1-3.84h1.95l.08,2.42h.1a3.69,3.69,0,0,1,3.4-2.7,2.55,2.55,0,0,1,.64.08v2.11a3.44,3.44,0,0,0-.77-.08,3.13,3.13,0,0,0-3,2.87,6.44,6.44,0,0,0-.1,1v6.55h-2.21Z"/><path class="cls-3" d="M426.5,46.48c0,4.54-3.15,6.52-6.12,6.52-3.33,0-5.89-2.44-5.89-6.32,0-4.11,2.69-6.53,6.09-6.53S426.5,42.72,426.5,46.48Zm-9.75.12c0,2.7,1.54,4.73,3.73,4.73s3.73-2,3.73-4.78c0-2.08-1-4.72-3.68-4.72S416.75,44.27,416.75,46.6Z"/><path class="cls-3" d="M429.31,34.7h2.24v18h-2.24Z"/><path class="cls-3" d="M287,100.09h-6.65v6.17h7.42v1.85h-9.63V91h9.24v1.85h-7v5.41H287Z"/><path class="cls-3" d="M290.57,99.15c0-1.27,0-2.31-.1-3.33h2l.12,2h.05a4.55,4.55,0,0,1,4.07-2.31c1.7,0,4.34,1,4.34,5.23v7.34h-2.24V101c0-2-.73-3.63-2.84-3.63a3.18,3.18,0,0,0-3,2.28,3.26,3.26,0,0,0-.15,1v7.39h-2.23Z"/><path class="cls-3" d="M305.9,102.37c.05,3,2,4.27,4.22,4.27a8,8,0,0,0,3.4-.64l.38,1.6a9.85,9.85,0,0,1-4.09.77c-3.78,0-6-2.49-6-6.2s2.18-6.63,5.76-6.63c4,0,5.08,3.53,5.08,5.79a9.75,9.75,0,0,1-.07,1Zm6.55-1.6c0-1.42-.58-3.63-3.09-3.63-2.26,0-3.25,2.09-3.43,3.63Z"/><path class="cls-3" d="M317.38,99.66c0-1.45,0-2.69-.1-3.84h2l.08,2.41h.1a3.68,3.68,0,0,1,3.4-2.69,2.49,2.49,0,0,1,.64.08v2.11a3.44,3.44,0,0,0-.77-.08,3.13,3.13,0,0,0-3,2.87,6.33,6.33,0,0,0-.1,1v6.55h-2.21Z"/><path class="cls-3" d="M336.06,95.82c-.05.89-.1,1.88-.1,3.38v7.13c0,2.82-.56,4.55-1.75,5.62a6.54,6.54,0,0,1-4.47,1.47,8,8,0,0,1-4.09-1l.56-1.7a6.93,6.93,0,0,0,3.61,1c2.28,0,4-1.2,4-4.29V106h0a4.38,4.38,0,0,1-3.91,2.06c-3.05,0-5.23-2.59-5.23-6,0-4.17,2.71-6.53,5.53-6.53A4.09,4.09,0,0,1,334,97.68H334l.1-1.86Zm-2.31,4.85a3.18,3.18,0,0,0-.12-1,3.22,3.22,0,0,0-3.13-2.36c-2.13,0-3.65,1.8-3.65,4.64,0,2.41,1.22,4.42,3.63,4.42a3.27,3.27,0,0,0,3.1-2.29,4.08,4.08,0,0,0,.17-1.19Z"/><path class="cls-3" d="M340.48,95.82l2.69,7.26c.28.82.59,1.78.79,2.52H344c.23-.74.48-1.68.79-2.57l2.43-7.21h2.37l-3.36,8.76c-1.6,4.22-2.69,6.38-4.21,7.7a6,6,0,0,1-2.74,1.44l-.56-1.88a5.71,5.71,0,0,0,1.95-1.09,6.72,6.72,0,0,0,1.88-2.49,1.56,1.56,0,0,0,.18-.53,1.94,1.94,0,0,0-.15-.58L338,95.82Z"/><path class="cls-3" d="M357,99.15c0-1.27,0-2.31-.1-3.33h1.95l.1,2H359a4.25,4.25,0,0,1,3.86-2.26A3.65,3.65,0,0,1,366.38,98h.05a5,5,0,0,1,1.37-1.6,4.2,4.2,0,0,1,2.72-.87c1.62,0,4,1.07,4,5.34v7.23h-2.18v-7c0-2.36-.86-3.78-2.67-3.78a2.89,2.89,0,0,0-2.64,2,3.75,3.75,0,0,0-.18,1.12v7.59H364.7v-7.36c0-2-.86-3.38-2.56-3.38a3,3,0,0,0-2.77,2.24,3,3,0,0,0-.18,1.09v7.41H357Z"/><path class="cls-3" d="M385,108.11l-.18-1.55h-.08a4.55,4.55,0,0,1-3.76,1.83,3.5,3.5,0,0,1-3.75-3.53c0-3,2.64-4.59,7.39-4.57V100a2.54,2.54,0,0,0-2.8-2.85,6.14,6.14,0,0,0-3.2.92l-.5-1.47a7.59,7.59,0,0,1,4-1.1c3.76,0,4.67,2.57,4.67,5v4.6a17.5,17.5,0,0,0,.21,2.94Zm-.33-6.27c-2.44,0-5.21.38-5.21,2.77a2,2,0,0,0,2.11,2.13,3.05,3.05,0,0,0,3-2.06,2.17,2.17,0,0,0,.13-.71Z"/><path class="cls-3" d="M390.42,99.15c0-1.27,0-2.31-.1-3.33h2l.12,2h.06a4.52,4.52,0,0,1,4.06-2.31c1.7,0,4.34,1,4.34,5.23v7.34h-2.23V101c0-2-.74-3.63-2.85-3.63a3.17,3.17,0,0,0-3,2.28,3,3,0,0,0-.16,1v7.39h-2.23Z"/><path class="cls-3" d="M411.31,108.11l-.17-1.55h-.08a4.58,4.58,0,0,1-3.76,1.83,3.5,3.5,0,0,1-3.76-3.53c0-3,2.65-4.59,7.39-4.57V100a2.54,2.54,0,0,0-2.79-2.85,6.11,6.11,0,0,0-3.2.92l-.51-1.47a7.65,7.65,0,0,1,4-1.1c3.76,0,4.67,2.57,4.67,5v4.6a16.51,16.51,0,0,0,.21,2.94Zm-.33-6.27c-2.43,0-5.2.38-5.2,2.77a2,2,0,0,0,2.11,2.13,3.05,3.05,0,0,0,3-2.06A2.46,2.46,0,0,0,411,104Z"/><path class="cls-3" d="M427.33,95.82c-.05.89-.1,1.88-.1,3.38v7.13c0,2.82-.56,4.55-1.75,5.62a6.54,6.54,0,0,1-4.47,1.47,8,8,0,0,1-4.09-1l.56-1.7a7,7,0,0,0,3.61,1c2.28,0,4-1.2,4-4.29V106H425a4.38,4.38,0,0,1-3.91,2.06c-3,0-5.23-2.59-5.23-6,0-4.17,2.72-6.53,5.53-6.53a4.09,4.09,0,0,1,3.84,2.14h0l.1-1.86ZM425,100.67a3.18,3.18,0,0,0-.12-1,3.22,3.22,0,0,0-3.13-2.36c-2.13,0-3.65,1.8-3.65,4.64,0,2.41,1.22,4.42,3.63,4.42a3.27,3.27,0,0,0,3.1-2.29,4.08,4.08,0,0,0,.17-1.19Z"/><path class="cls-3" d="M432.18,102.37c.05,3,2,4.27,4.22,4.27a8,8,0,0,0,3.4-.64l.38,1.6a9.85,9.85,0,0,1-4.09.77c-3.78,0-6-2.49-6-6.2s2.18-6.63,5.76-6.63c4,0,5.08,3.53,5.08,5.79a9.75,9.75,0,0,1-.07,1Zm6.55-1.6c0-1.42-.58-3.63-3.09-3.63-2.26,0-3.25,2.09-3.43,3.63Z"/><path class="cls-3" d="M443.66,99.15c0-1.27,0-2.31-.1-3.33h1.95l.1,2h.08a4.26,4.26,0,0,1,3.86-2.26A3.63,3.63,0,0,1,453,98h.05a5,5,0,0,1,1.37-1.6,4.2,4.2,0,0,1,2.72-.87c1.62,0,4,1.07,4,5.34v7.23H459v-7c0-2.36-.86-3.78-2.67-3.78a2.89,2.89,0,0,0-2.64,2,3.77,3.77,0,0,0-.17,1.12v7.59h-2.19v-7.36c0-2-.86-3.38-2.56-3.38A3.06,3.06,0,0,0,446,99.61a3,3,0,0,0-.18,1.09v7.41h-2.18Z"/><path class="cls-3" d="M466.08,102.37c.05,3,2,4.27,4.21,4.27a8,8,0,0,0,3.4-.64l.39,1.6a9.89,9.89,0,0,1-4.09.77c-3.79,0-6.05-2.49-6.05-6.2s2.19-6.63,5.77-6.63c4,0,5.08,3.53,5.08,5.79a7.3,7.3,0,0,1-.08,1Zm6.55-1.6c0-1.42-.59-3.63-3.1-3.63-2.26,0-3.25,2.09-3.43,3.63Z"/><path class="cls-3" d="M477.55,99.15c0-1.27,0-2.31-.1-3.33h2l.13,2h.05a4.53,4.53,0,0,1,4.06-2.31c1.7,0,4.34,1,4.34,5.23v7.34h-2.23V101c0-2-.74-3.63-2.84-3.63a3.17,3.17,0,0,0-3,2.28,3.26,3.26,0,0,0-.15,1v7.39h-2.24Z"/><path class="cls-3" d="M494.23,92.29v3.53h3.2v1.7h-3.2v6.63c0,1.52.43,2.39,1.68,2.39a5.27,5.27,0,0,0,1.29-.15l.11,1.67a5.45,5.45,0,0,1-2,.31,3.11,3.11,0,0,1-2.42-.94,4.59,4.59,0,0,1-.86-3.2V97.52h-1.9v-1.7h1.9V92.88Z"/><path class="cls-3" d="M278.15,146.59a25.46,25.46,0,0,1,4.24-.33,7,7,0,0,1,4.8,1.42,4.6,4.6,0,0,1,1.5,3.58,5.06,5.06,0,0,1-1.32,3.66,7.11,7.11,0,0,1-5.23,1.88,7.45,7.45,0,0,1-1.78-.16v6.86h-2.21Zm2.21,8.25a7.24,7.24,0,0,0,1.83.18c2.67,0,4.29-1.3,4.29-3.66s-1.6-3.35-4-3.35a9.33,9.33,0,0,0-2.08.18Z"/><path class="cls-3" d="M292.19,157.76c.05,3,2,4.27,4.22,4.27a8,8,0,0,0,3.4-.64l.38,1.6a9.89,9.89,0,0,1-4.09.76c-3.78,0-6-2.48-6-6.19s2.18-6.63,5.76-6.63c4,0,5.08,3.53,5.08,5.79a10,10,0,0,1-.07,1Zm6.55-1.6c0-1.42-.58-3.63-3.09-3.63-2.26,0-3.25,2.08-3.43,3.63Z"/><path class="cls-3" d="M303.67,155c0-1.44,0-2.69-.1-3.83h1.95l.08,2.41h.1a3.68,3.68,0,0,1,3.4-2.69,2.49,2.49,0,0,1,.64.08v2.11A2.94,2.94,0,0,0,309,153a3.13,3.13,0,0,0-3,2.87,6.33,6.33,0,0,0-.1,1v6.55h-2.21Z"/><path class="cls-3" d="M313,163.5V152.91h-1.73v-1.7H313v-.58a5.79,5.79,0,0,1,1.42-4.29,4.26,4.26,0,0,1,3-1.15,5.12,5.12,0,0,1,1.9.36l-.3,1.73a3.23,3.23,0,0,0-1.42-.28c-1.91,0-2.39,1.67-2.39,3.55v.66h3v1.7h-3V163.5Z"/><path class="cls-3" d="M330.94,157.25c0,4.55-3.15,6.53-6.12,6.53-3.33,0-5.89-2.44-5.89-6.32,0-4.12,2.69-6.53,6.09-6.53S330.94,153.5,330.94,157.25Zm-9.75.13c0,2.69,1.55,4.72,3.73,4.72s3.73-2,3.73-4.77c0-2.08-1-4.72-3.68-4.72S321.19,155,321.19,157.38Z"/><path class="cls-3" d="M333.75,155c0-1.44,0-2.69-.1-3.83h2l.07,2.41h.11a3.67,3.67,0,0,1,3.4-2.69,2.41,2.41,0,0,1,.63.08v2.11a2.86,2.86,0,0,0-.76-.08,3.14,3.14,0,0,0-3,2.87,6.33,6.33,0,0,0-.1,1v6.55h-2.21Z"/><path class="cls-3" d="M342.16,154.54c0-1.27,0-2.31-.11-3.33h2l.1,2h.08a4.23,4.23,0,0,1,3.86-2.26,3.65,3.65,0,0,1,3.48,2.46h.05a5.19,5.19,0,0,1,1.37-1.6,4.22,4.22,0,0,1,2.71-.86c1.63,0,4,1.07,4,5.33v7.24h-2.18v-7c0-2.36-.87-3.78-2.67-3.78a2.89,2.89,0,0,0-2.64,2,3.75,3.75,0,0,0-.18,1.12v7.59h-2.18v-7.36c0-2-.86-3.38-2.56-3.38a3.33,3.33,0,0,0-3,3.33v7.41h-2.18Z"/><path class="cls-3" d="M370.13,163.5,370,162h-.08a4.56,4.56,0,0,1-3.76,1.83,3.49,3.49,0,0,1-3.75-3.53c0-3,2.64-4.6,7.38-4.57v-.25a2.54,2.54,0,0,0-2.79-2.85,6.11,6.11,0,0,0-3.2.92l-.51-1.48a7.65,7.65,0,0,1,4-1.09c3.76,0,4.67,2.57,4.67,5v4.59a16.55,16.55,0,0,0,.21,2.95Zm-.33-6.27c-2.43,0-5.2.38-5.2,2.77a2,2,0,0,0,2.11,2.13,3.06,3.06,0,0,0,3-2.06,2.52,2.52,0,0,0,.12-.71Z"/><path class="cls-3" d="M375.57,154.54c0-1.27,0-2.31-.1-3.33h2l.12,2h.05a4.53,4.53,0,0,1,4.07-2.31c1.7,0,4.34,1,4.34,5.23v7.34h-2.24v-7.08c0-2-.73-3.63-2.84-3.63a3.18,3.18,0,0,0-3,2.28,3.26,3.26,0,0,0-.15,1v7.39h-2.23Z"/><path class="cls-3" d="M398.42,163a8.18,8.18,0,0,1-3.53.71c-3.71,0-6.12-2.51-6.12-6.27a6.24,6.24,0,0,1,6.6-6.52,7.57,7.57,0,0,1,3.1.63l-.51,1.73a5.1,5.1,0,0,0-2.59-.59c-2.82,0-4.34,2.09-4.34,4.65,0,2.84,1.83,4.6,4.26,4.6a6.39,6.39,0,0,0,2.75-.61Z"/><path class="cls-3" d="M402.12,157.76c.06,3,2,4.27,4.22,4.27a8,8,0,0,0,3.4-.64l.38,1.6a9.83,9.83,0,0,1-4.08.76c-3.79,0-6.05-2.48-6.05-6.19s2.19-6.63,5.77-6.63c4,0,5.07,3.53,5.07,5.79a10,10,0,0,1-.07,1Zm6.56-1.6c0-1.42-.59-3.63-3.1-3.63-2.26,0-3.25,2.08-3.43,3.63Z"/><path class="cls-3" d="M430.1,157.25c0,4.55-3.15,6.53-6.12,6.53-3.32,0-5.89-2.44-5.89-6.32,0-4.12,2.7-6.53,6.1-6.53S430.1,153.5,430.1,157.25Zm-9.75.13c0,2.69,1.55,4.72,3.74,4.72s3.73-2,3.73-4.77c0-2.08-1-4.72-3.68-4.72S420.35,155,420.35,157.38Z"/><path class="cls-3" d="M432.92,155.22c0-1.57-.05-2.84-.1-4h2l.1,2.11H435a4.82,4.82,0,0,1,4.36-2.39c3,0,5.21,2.52,5.21,6.25,0,4.42-2.69,6.6-5.59,6.6a4.31,4.31,0,0,1-3.78-1.93h-.05v6.68h-2.21Zm2.21,3.28a5.07,5.07,0,0,0,.1.91,3.45,3.45,0,0,0,3.35,2.62c2.36,0,3.74-1.93,3.74-4.75,0-2.46-1.3-4.57-3.66-4.57a3.57,3.57,0,0,0-3.38,2.77,3.93,3.93,0,0,0-.15.91Z"/><path class="cls-3" d="M450.06,147.68v3.53h3.2v1.7h-3.2v6.63c0,1.52.43,2.39,1.67,2.39a4.76,4.76,0,0,0,1.3-.16l.1,1.68a5.44,5.44,0,0,1-2,.3,3.09,3.09,0,0,1-2.41-.94,4.51,4.51,0,0,1-.87-3.19v-6.71H446v-1.7h1.9v-2.94Z"/><path class="cls-3" d="M458.26,147.76a1.39,1.39,0,0,1-2.77,0,1.36,1.36,0,0,1,1.4-1.4A1.33,1.33,0,0,1,458.26,147.76Zm-2.49,15.74V151.21H458V163.5Z"/><path class="cls-3" d="M461.71,154.54c0-1.27,0-2.31-.1-3.33h1.95l.1,2h.08a4.24,4.24,0,0,1,3.86-2.26,3.63,3.63,0,0,1,3.48,2.46h.05a5.19,5.19,0,0,1,1.37-1.6,4.25,4.25,0,0,1,2.72-.86c1.62,0,4,1.07,4,5.33v7.24h-2.18v-7c0-2.36-.86-3.78-2.66-3.78a2.91,2.91,0,0,0-2.65,2,3.77,3.77,0,0,0-.17,1.12v7.59H469.4v-7.36c0-2-.86-3.38-2.56-3.38a3.33,3.33,0,0,0-2.95,3.33v7.41h-2.18Z"/><path class="cls-3" d="M485.37,147.76a1.31,1.31,0,0,1-1.42,1.37,1.33,1.33,0,0,1-1.35-1.37,1.37,1.37,0,0,1,1.4-1.4A1.33,1.33,0,0,1,485.37,147.76Zm-2.49,15.74V151.21h2.24V163.5Z"/><path class="cls-3" d="M487.43,162.21,493,155c.53-.66,1-1.25,1.6-1.91V153h-6.65v-1.8h9.36l0,1.4-5.49,7.13a24.46,24.46,0,0,1-1.57,1.93v.05h7.19v1.78h-10Z"/><path class="cls-3" d="M506.5,163.5l-.18-1.55h-.08a4.55,4.55,0,0,1-3.76,1.83,3.5,3.5,0,0,1-3.75-3.53c0-3,2.64-4.6,7.38-4.57v-.25a2.54,2.54,0,0,0-2.79-2.85,6.14,6.14,0,0,0-3.2.92l-.51-1.48a7.65,7.65,0,0,1,4-1.09c3.76,0,4.67,2.57,4.67,5v4.59a16.55,16.55,0,0,0,.21,2.95Zm-.34-6.27c-2.43,0-5.2.38-5.2,2.77a2,2,0,0,0,2.11,2.13,3.06,3.06,0,0,0,3-2.06,2.52,2.52,0,0,0,.12-.71Z"/><path class="cls-3" d="M514.52,147.68v3.53h3.2v1.7h-3.2v6.63c0,1.52.43,2.39,1.67,2.39a4.76,4.76,0,0,0,1.3-.16l.1,1.68a5.44,5.44,0,0,1-2,.3,3.09,3.09,0,0,1-2.41-.94,4.51,4.51,0,0,1-.87-3.19v-6.71h-1.9v-1.7h1.9v-2.94Z"/><path class="cls-3" d="M522.72,147.76a1.39,1.39,0,0,1-2.77,0,1.36,1.36,0,0,1,1.4-1.4A1.33,1.33,0,0,1,522.72,147.76Zm-2.49,15.74V151.21h2.23V163.5Z"/><path class="cls-3" d="M537.29,157.25c0,4.55-3.15,6.53-6.12,6.53-3.32,0-5.89-2.44-5.89-6.32,0-4.12,2.69-6.53,6.09-6.53S537.29,153.5,537.29,157.25Zm-9.75.13c0,2.69,1.55,4.72,3.73,4.72s3.74-2,3.74-4.77c0-2.08-1-4.72-3.69-4.72S527.54,155,527.54,157.38Z"/><path class="cls-3" d="M540.11,154.54c0-1.27,0-2.31-.1-3.33h2l.12,2h0a4.53,4.53,0,0,1,4.07-2.31c1.7,0,4.34,1,4.34,5.23v7.34h-2.24v-7.08c0-2-.73-3.63-2.84-3.63a3.17,3.17,0,0,0-3,2.28,3,3,0,0,0-.16,1v7.39h-2.23Z"/><circle class="cls-4" cx="253.12" cy="45.88" r="4.5"/><circle class="cls-4" cx="253.12" cy="101.19" r="4.5"/><circle class="cls-4" cx="253.12" cy="156.51" r="4.5"/><path class="cls-3" d="M278.15,443.84a30.8,30.8,0,0,1,4.7-.36c3.17,0,5.43.74,6.93,2.14a7.87,7.87,0,0,1,2.41,6.14,9,9,0,0,1-2.46,6.65c-1.6,1.6-4.24,2.47-7.57,2.47a34.84,34.84,0,0,1-4-.21ZM280.36,459a14.12,14.12,0,0,0,2.24.13c4.72,0,7.28-2.64,7.28-7.26,0-4-2.26-6.61-6.93-6.61a13.11,13.11,0,0,0-2.59.23Z"/><path class="cls-3" d="M301.79,460.72l-.18-1.55h-.07a4.58,4.58,0,0,1-3.76,1.83,3.5,3.5,0,0,1-3.76-3.53c0-3,2.64-4.59,7.39-4.57v-.25a2.54,2.54,0,0,0-2.79-2.85,6.09,6.09,0,0,0-3.2.92l-.51-1.47a7.62,7.62,0,0,1,4-1.1c3.75,0,4.67,2.57,4.67,5v4.6a17.57,17.57,0,0,0,.2,2.94Zm-.33-6.27c-2.44-.05-5.21.38-5.21,2.77a2,2,0,0,0,2.11,2.13,3,3,0,0,0,3-2.06,2.17,2.17,0,0,0,.13-.71Z"/><path class="cls-3" d="M309.81,444.9v3.53H313v1.7h-3.2v6.63c0,1.53.43,2.39,1.68,2.39a5.27,5.27,0,0,0,1.29-.15l.1,1.67a5.37,5.37,0,0,1-2,.31,3.09,3.09,0,0,1-2.41-.94,4.57,4.57,0,0,1-.86-3.2v-6.71h-1.91v-1.7h1.91v-2.94Z"/><path class="cls-3" d="M322.33,460.72l-.18-1.55h-.08a4.54,4.54,0,0,1-3.75,1.83,3.5,3.5,0,0,1-3.76-3.53c0-3,2.64-4.59,7.39-4.57v-.25a2.54,2.54,0,0,0-2.8-2.85,6.14,6.14,0,0,0-3.2.92l-.5-1.47a7.61,7.61,0,0,1,4-1.1c3.76,0,4.68,2.57,4.68,5v4.6a17.57,17.57,0,0,0,.2,2.94Zm-.33-6.27c-2.44-.05-5.21.38-5.21,2.77a2,2,0,0,0,2.11,2.13,3,3,0,0,0,3-2.06,2.17,2.17,0,0,0,.13-.71Z"/><path class="cls-3" d="M332.84,458.44a5.87,5.87,0,0,0,2.94.89c1.63,0,2.39-.82,2.39-1.83s-.63-1.65-2.29-2.26c-2.2-.79-3.25-2-3.25-3.48,0-2,1.6-3.61,4.24-3.61a6.12,6.12,0,0,1,3,.77l-.56,1.62a4.82,4.82,0,0,0-2.52-.71c-1.32,0-2.05.76-2.05,1.68s.73,1.47,2.33,2.08c2.14.81,3.23,1.88,3.23,3.7,0,2.16-1.68,3.69-4.6,3.69a7,7,0,0,1-3.45-.84Z"/><path class="cls-3" d="M344.44,455c.05,3,2,4.27,4.22,4.27a8.21,8.21,0,0,0,3.4-.63l.38,1.59a9.85,9.85,0,0,1-4.09.77c-3.78,0-6-2.49-6-6.2s2.18-6.63,5.76-6.63c4,0,5.08,3.53,5.08,5.79a7.3,7.3,0,0,1-.08,1Zm6.55-1.6c0-1.42-.58-3.63-3.1-3.63-2.26,0-3.25,2.09-3.42,3.63Z"/><path class="cls-3" d="M364.68,460.27a8.33,8.33,0,0,1-3.53.71c-3.71,0-6.12-2.52-6.12-6.27a6.24,6.24,0,0,1,6.6-6.53,7.57,7.57,0,0,1,3.1.63l-.51,1.73a5.23,5.23,0,0,0-2.59-.58c-2.82,0-4.34,2.08-4.34,4.64,0,2.85,1.83,4.6,4.26,4.6a6.31,6.31,0,0,0,2.74-.61Z"/><path class="cls-3" d="M377.57,457.37c0,1.27,0,2.39.1,3.35h-2l-.12-2h-.05a4.63,4.63,0,0,1-4.07,2.28c-1.93,0-4.24-1.06-4.24-5.38v-7.19h2.24v6.81c0,2.33.71,3.91,2.74,3.91a3.24,3.24,0,0,0,2.95-2,3.46,3.46,0,0,0,.2-1.15v-7.54h2.23Z"/><path class="cls-3" d="M381.28,452.27c0-1.45,0-2.69-.1-3.84h1.95l.08,2.42h.1a3.69,3.69,0,0,1,3.4-2.7,2.49,2.49,0,0,1,.64.08v2.11a3.41,3.41,0,0,0-.76-.08,3.14,3.14,0,0,0-3,2.87,6.44,6.44,0,0,0-.1,1v6.55h-2.21Z"/><path class="cls-3" d="M392.17,445a1.31,1.31,0,0,1-1.42,1.37A1.33,1.33,0,0,1,389.4,445a1.37,1.37,0,0,1,1.4-1.4A1.33,1.33,0,0,1,392.17,445Zm-2.49,15.74V448.43h2.24v12.29Z"/><path class="cls-3" d="M398.31,444.9v3.53h3.2v1.7h-3.2v6.63c0,1.53.44,2.39,1.68,2.39a5.36,5.36,0,0,0,1.3-.15l.1,1.67a5.45,5.45,0,0,1-2,.31A3.12,3.12,0,0,1,397,460a4.57,4.57,0,0,1-.86-3.2v-6.71h-1.9v-1.7h1.9v-2.94Z"/><path class="cls-3" d="M405.07,448.43l2.69,7.27c.28.81.58,1.77.79,2.51h.05c.23-.74.48-1.68.78-2.57l2.44-7.21h2.36l-3.35,8.76c-1.6,4.22-2.69,6.38-4.21,7.7a6.1,6.1,0,0,1-2.75,1.44l-.55-1.87a6,6,0,0,0,1.95-1.1,6.76,6.76,0,0,0,1.88-2.48,1.67,1.67,0,0,0,.18-.54,1.75,1.75,0,0,0-.16-.58l-4.54-11.33Z"/><path class="cls-3" d="M278.15,499.23a30.8,30.8,0,0,1,4.7-.36c3.17,0,5.43.74,6.93,2.13a7.91,7.91,0,0,1,2.41,6.15,9,9,0,0,1-2.46,6.65c-1.6,1.6-4.24,2.46-7.57,2.46a35.08,35.08,0,0,1-4-.2Zm2.21,15.13a14.12,14.12,0,0,0,2.24.13c4.72,0,7.28-2.64,7.28-7.27,0-4-2.26-6.6-6.93-6.6a12.38,12.38,0,0,0-2.59.23Z"/><path class="cls-3" d="M301.79,516.11l-.18-1.55h-.07a4.58,4.58,0,0,1-3.76,1.83,3.5,3.5,0,0,1-3.76-3.53c0-3,2.64-4.59,7.39-4.57V508a2.54,2.54,0,0,0-2.79-2.85,6.09,6.09,0,0,0-3.2.92l-.51-1.48a7.62,7.62,0,0,1,4-1.09c3.75,0,4.67,2.57,4.67,5v4.6a17.57,17.57,0,0,0,.2,2.94Zm-.33-6.27c-2.44,0-5.21.38-5.21,2.77a2,2,0,0,0,2.11,2.13,3.05,3.05,0,0,0,3-2.06,2.17,2.17,0,0,0,.13-.71Z"/><path class="cls-3" d="M309.81,500.29v3.53H313v1.7h-3.2v6.63c0,1.52.43,2.39,1.68,2.39a4.73,4.73,0,0,0,1.29-.16l.1,1.68a5.37,5.37,0,0,1-2,.31,3.09,3.09,0,0,1-2.41-.94,4.59,4.59,0,0,1-.86-3.2v-6.71h-1.91v-1.7h1.91v-2.94Z"/><path class="cls-3" d="M322.33,516.11l-.18-1.55h-.08a4.54,4.54,0,0,1-3.75,1.83,3.5,3.5,0,0,1-3.76-3.53c0-3,2.64-4.59,7.39-4.57V508a2.54,2.54,0,0,0-2.8-2.85,6.14,6.14,0,0,0-3.2.92l-.5-1.48a7.61,7.61,0,0,1,4-1.09c3.76,0,4.68,2.57,4.68,5v4.6a17.57,17.57,0,0,0,.2,2.94Zm-.33-6.27c-2.44,0-5.21.38-5.21,2.77a2,2,0,0,0,2.11,2.13,3.05,3.05,0,0,0,3-2.06A2.17,2.17,0,0,0,322,512Z"/><path class="cls-3" d="M334,503.82l2.41,6.91c.4,1.12.73,2.13,1,3.15h.07c.28-1,.64-2,1-3.15l2.38-6.91h2.34l-4.83,12.29h-2.13l-4.67-12.29Z"/><path class="cls-3" d="M347.84,500.37a1.38,1.38,0,0,1-2.76,0,1.36,1.36,0,0,1,1.39-1.4A1.33,1.33,0,0,1,347.84,500.37Zm-2.49,15.74V503.82h2.24v12.29Z"/><path class="cls-3" d="M351,513.83a5.88,5.88,0,0,0,2.95.88c1.62,0,2.38-.81,2.38-1.82s-.63-1.65-2.28-2.26c-2.21-.79-3.25-2-3.25-3.48,0-2,1.6-3.61,4.24-3.61a6.22,6.22,0,0,1,3,.76l-.56,1.63a4.81,4.81,0,0,0-2.51-.71c-1.32,0-2.06.76-2.06,1.67s.74,1.48,2.34,2.09c2.13.81,3.22,1.88,3.22,3.7,0,2.16-1.68,3.69-4.6,3.69a7,7,0,0,1-3.45-.84Z"/><path class="cls-3" d="M371.63,512.76c0,1.27,0,2.39.1,3.35h-2l-.12-2h-.05a4.63,4.63,0,0,1-4.07,2.28c-1.93,0-4.24-1.07-4.24-5.38v-7.19h2.24v6.81c0,2.33.71,3.91,2.74,3.91a3.16,3.16,0,0,0,3.15-3.18v-7.54h2.23Z"/><path class="cls-3" d="M382.14,516.11l-.18-1.55h-.07a4.58,4.58,0,0,1-3.76,1.83,3.5,3.5,0,0,1-3.76-3.53c0-3,2.64-4.59,7.39-4.57V508a2.54,2.54,0,0,0-2.79-2.85,6.11,6.11,0,0,0-3.2.92l-.51-1.48a7.65,7.65,0,0,1,4-1.09c3.76,0,4.67,2.57,4.67,5v4.6a17.57,17.57,0,0,0,.2,2.94Zm-.33-6.27c-2.44,0-5.2.38-5.2,2.77a2,2,0,0,0,2.1,2.13,3.08,3.08,0,0,0,3-2.06,2.46,2.46,0,0,0,.12-.71Z"/><path class="cls-3" d="M387.58,498.08h2.23v18h-2.23Z"/><path class="cls-3" d="M396.05,500.37a1.31,1.31,0,0,1-1.42,1.37,1.33,1.33,0,0,1-1.34-1.37,1.36,1.36,0,0,1,1.39-1.4A1.33,1.33,0,0,1,396.05,500.37Zm-2.48,15.74V503.82h2.23v12.29Z"/><path class="cls-3" d="M398.11,514.82l5.56-7.24c.53-.66,1-1.24,1.6-1.9v-.05h-6.65v-1.81H408l0,1.4-5.48,7.13c-.51.69-1,1.3-1.58,1.93v.05h7.19v1.78h-10Z"/><path class="cls-3" d="M417.18,516.11l-.18-1.55h-.08a4.54,4.54,0,0,1-3.75,1.83,3.5,3.5,0,0,1-3.76-3.53c0-3,2.64-4.59,7.39-4.57V508a2.54,2.54,0,0,0-2.8-2.85,6.14,6.14,0,0,0-3.2.92l-.5-1.48a7.61,7.61,0,0,1,4-1.09c3.76,0,4.68,2.57,4.68,5v4.6a17.57,17.57,0,0,0,.2,2.94Zm-.33-6.27c-2.44,0-5.21.38-5.21,2.77a2,2,0,0,0,2.11,2.13,3.05,3.05,0,0,0,3-2.06,2.17,2.17,0,0,0,.13-.71Z"/><path class="cls-3" d="M425.2,500.29v3.53h3.2v1.7h-3.2v6.63c0,1.52.43,2.39,1.68,2.39a4.73,4.73,0,0,0,1.29-.16l.1,1.68a5.37,5.37,0,0,1-2,.31,3.09,3.09,0,0,1-2.41-.94,4.59,4.59,0,0,1-.86-3.2v-6.71h-1.91v-1.7H423v-2.94Z"/><path class="cls-3" d="M433.4,500.37a1.31,1.31,0,0,1-1.42,1.37,1.33,1.33,0,0,1-1.35-1.37A1.37,1.37,0,0,1,432,499,1.33,1.33,0,0,1,433.4,500.37Zm-2.49,15.74V503.82h2.24v12.29Z"/><path class="cls-3" d="M448,509.87c0,4.54-3.14,6.52-6.12,6.52-3.32,0-5.89-2.44-5.89-6.32,0-4.11,2.7-6.53,6.1-6.53S448,506.11,448,509.87Zm-9.75.12c0,2.69,1.55,4.72,3.74,4.72s3.73-2,3.73-4.77c0-2.08-1-4.72-3.68-4.72S438.22,507.66,438.22,510Z"/><path class="cls-3" d="M450.79,507.15c0-1.27,0-2.31-.1-3.33h2l.13,2h.05a4.53,4.53,0,0,1,4.06-2.31c1.7,0,4.34,1,4.34,5.23v7.34H459V509c0-2-.74-3.63-2.85-3.63a3.17,3.17,0,0,0-3,2.28,3.26,3.26,0,0,0-.15,1v7.39h-2.24Z"/><path class="cls-3" d="M278.15,554.62a30.8,30.8,0,0,1,4.7-.36c3.17,0,5.43.74,6.93,2.13a7.91,7.91,0,0,1,2.41,6.15,9,9,0,0,1-2.46,6.65c-1.6,1.6-4.24,2.46-7.57,2.46a35.08,35.08,0,0,1-4-.2Zm2.21,15.13a14.12,14.12,0,0,0,2.24.13c4.72,0,7.28-2.65,7.28-7.27,0-4-2.26-6.6-6.93-6.6a12.38,12.38,0,0,0-2.59.23Z"/><path class="cls-3" d="M301.79,571.5l-.18-1.55h-.07a4.58,4.58,0,0,1-3.76,1.83,3.5,3.5,0,0,1-3.76-3.53c0-3,2.64-4.6,7.39-4.57v-.25a2.54,2.54,0,0,0-2.79-2.85,6.09,6.09,0,0,0-3.2.92l-.51-1.48a7.62,7.62,0,0,1,4-1.09c3.75,0,4.67,2.57,4.67,5v4.59a17.62,17.62,0,0,0,.2,3Zm-.33-6.27c-2.44-.05-5.21.38-5.21,2.77a2,2,0,0,0,2.11,2.13,3.05,3.05,0,0,0,3-2.06,2.22,2.22,0,0,0,.13-.71Z"/><path class="cls-3" d="M309.81,555.68v3.53H313v1.7h-3.2v6.63c0,1.52.43,2.39,1.68,2.39a4.73,4.73,0,0,0,1.29-.16l.1,1.68a5.4,5.4,0,0,1-2,.3,3.09,3.09,0,0,1-2.41-.94,4.56,4.56,0,0,1-.86-3.19v-6.71h-1.91v-1.7h1.91v-2.94Z"/><path class="cls-3" d="M322.33,571.5l-.18-1.55h-.08a4.54,4.54,0,0,1-3.75,1.83,3.5,3.5,0,0,1-3.76-3.53c0-3,2.64-4.6,7.39-4.57v-.25a2.54,2.54,0,0,0-2.8-2.85,6.14,6.14,0,0,0-3.2.92l-.5-1.48a7.61,7.61,0,0,1,4-1.09c3.76,0,4.68,2.57,4.68,5v4.59a17.62,17.62,0,0,0,.2,3Zm-.33-6.27c-2.44-.05-5.21.38-5.21,2.77a2,2,0,0,0,2.11,2.13,3.05,3.05,0,0,0,3-2.06,2.22,2.22,0,0,0,.13-.71Z"/><path class="cls-3" d="M332.84,569.21a5.78,5.78,0,0,0,2.94.89c1.63,0,2.39-.81,2.39-1.82s-.63-1.65-2.29-2.26c-2.2-.79-3.25-2-3.25-3.48,0-2,1.6-3.61,4.24-3.61a6.23,6.23,0,0,1,3,.76l-.56,1.63a4.73,4.73,0,0,0-2.52-.71c-1.32,0-2.05.76-2.05,1.67s.73,1.48,2.33,2.09c2.14.81,3.23,1.87,3.23,3.7,0,2.16-1.68,3.68-4.6,3.68a7.09,7.09,0,0,1-3.45-.83Z"/><path class="cls-3" d="M345.89,555.68v3.53h3.2v1.7h-3.2v6.63c0,1.52.43,2.39,1.67,2.39a4.76,4.76,0,0,0,1.3-.16l.1,1.68a5.44,5.44,0,0,1-2,.3,3.09,3.09,0,0,1-2.41-.94,4.51,4.51,0,0,1-.87-3.19v-6.71h-1.9v-1.7h1.9v-2.94Z"/><path class="cls-3" d="M358.4,571.5l-.17-1.55h-.08a4.58,4.58,0,0,1-3.76,1.83,3.5,3.5,0,0,1-3.76-3.53c0-3,2.65-4.6,7.39-4.57v-.25a2.54,2.54,0,0,0-2.79-2.85,6.11,6.11,0,0,0-3.2.92l-.51-1.48a7.65,7.65,0,0,1,4-1.09c3.76,0,4.67,2.57,4.67,5v4.59a16.55,16.55,0,0,0,.21,3Zm-.33-6.27c-2.43-.05-5.2.38-5.2,2.77a2,2,0,0,0,2.11,2.13,3.06,3.06,0,0,0,3-2.06,2.52,2.52,0,0,0,.12-.71Z"/><path class="cls-3" d="M363.84,562.54c0-1.27,0-2.31-.1-3.33h2l.12,2h.05a4.52,4.52,0,0,1,4.07-2.31c1.7,0,4.34,1,4.34,5.23v7.34h-2.24v-7.08c0-2-.73-3.63-2.84-3.63a3.18,3.18,0,0,0-3,2.28,3.26,3.26,0,0,0-.15,1v7.39h-2.23Z"/><path class="cls-3" d="M388.54,553.47v14.86c0,1.09,0,2.33.1,3.17h-2l-.1-2.13h-.06a4.54,4.54,0,0,1-4.19,2.41c-3,0-5.25-2.51-5.25-6.25,0-4.08,2.51-6.6,5.51-6.6a4.12,4.12,0,0,1,3.71,1.88h.05v-7.34Zm-2.23,10.74a3.77,3.77,0,0,0-.11-.94,3.28,3.28,0,0,0-3.22-2.59c-2.31,0-3.68,2-3.68,4.75,0,2.49,1.22,4.55,3.63,4.55a3.35,3.35,0,0,0,3.27-2.67,3.67,3.67,0,0,0,.11-1Z"/><path class="cls-3" d="M399.05,571.5l-.18-1.55h-.07a4.58,4.58,0,0,1-3.76,1.83,3.5,3.5,0,0,1-3.76-3.53c0-3,2.64-4.6,7.39-4.57v-.25a2.54,2.54,0,0,0-2.79-2.85,6.11,6.11,0,0,0-3.2.92l-.51-1.48a7.65,7.65,0,0,1,4-1.09c3.76,0,4.67,2.57,4.67,5v4.59a17.62,17.62,0,0,0,.2,3Zm-.33-6.27c-2.44-.05-5.2.38-5.2,2.77a2,2,0,0,0,2.1,2.13,3.05,3.05,0,0,0,3-2.06,2.22,2.22,0,0,0,.13-.71Z"/><path class="cls-3" d="M404.48,563c0-1.44,0-2.69-.1-3.83h2l.07,2.41h.11a3.67,3.67,0,0,1,3.4-2.69,2.41,2.41,0,0,1,.63.08v2.11a2.86,2.86,0,0,0-.76-.08,3.14,3.14,0,0,0-3,2.87,6.33,6.33,0,0,0-.1,1v6.55h-2.21Z"/><path class="cls-3" d="M423.15,553.47v14.86c0,1.09,0,2.33.1,3.17h-2l-.1-2.13h-.05a4.55,4.55,0,0,1-4.19,2.41c-3,0-5.26-2.51-5.26-6.25,0-4.08,2.52-6.6,5.51-6.6a4.12,4.12,0,0,1,3.71,1.88h.05v-7.34Zm-2.24,10.74a3.76,3.76,0,0,0-.1-.94,3.29,3.29,0,0,0-3.23-2.59c-2.31,0-3.68,2-3.68,4.75,0,2.49,1.22,4.55,3.63,4.55a3.36,3.36,0,0,0,3.28-2.67,3.68,3.68,0,0,0,.1-1Z"/><path class="cls-3" d="M426.55,569.21a5.75,5.75,0,0,0,2.94.89c1.63,0,2.39-.81,2.39-1.82s-.64-1.65-2.29-2.26c-2.21-.79-3.25-2-3.25-3.48,0-2,1.6-3.61,4.24-3.61a6.23,6.23,0,0,1,3,.76l-.56,1.63a4.76,4.76,0,0,0-2.52-.71c-1.32,0-2,.76-2,1.67s.73,1.48,2.33,2.09c2.14.81,3.23,1.87,3.23,3.7,0,2.16-1.68,3.68-4.6,3.68a7.09,7.09,0,0,1-3.45-.83Z"/><path class="cls-3" d="M449.09,571.5l-.18-1.55h-.07a4.58,4.58,0,0,1-3.76,1.83,3.5,3.5,0,0,1-3.76-3.53c0-3,2.64-4.6,7.39-4.57v-.25a2.54,2.54,0,0,0-2.79-2.85,6.11,6.11,0,0,0-3.2.92l-.51-1.48a7.65,7.65,0,0,1,4-1.09c3.76,0,4.67,2.57,4.67,5v4.59a17.62,17.62,0,0,0,.2,3Zm-.33-6.27c-2.44-.05-5.2.38-5.2,2.77a2,2,0,0,0,2.1,2.13,3.05,3.05,0,0,0,3-2.06,2.22,2.22,0,0,0,.13-.71Z"/><path class="cls-3" d="M454.52,562.54c0-1.27,0-2.31-.1-3.33h2l.13,2h.05a4.51,4.51,0,0,1,4.06-2.31c1.7,0,4.35,1,4.35,5.23v7.34h-2.24v-7.08c0-2-.74-3.63-2.84-3.63a3.17,3.17,0,0,0-3,2.28,3.26,3.26,0,0,0-.15,1v7.39h-2.24Z"/><path class="cls-3" d="M479.23,553.47v14.86c0,1.09,0,2.33.1,3.17h-2l-.1-2.13h-.05a4.54,4.54,0,0,1-4.19,2.41c-3,0-5.25-2.51-5.25-6.25,0-4.08,2.51-6.6,5.51-6.6a4.1,4.1,0,0,1,3.7,1.88H477v-7.34ZM477,564.21a3.76,3.76,0,0,0-.1-.94,3.29,3.29,0,0,0-3.22-2.59c-2.31,0-3.68,2-3.68,4.75,0,2.49,1.21,4.55,3.63,4.55a3.35,3.35,0,0,0,3.27-2.67,3.68,3.68,0,0,0,.1-1Z"/><path class="cls-3" d="M490.8,555.76a1.31,1.31,0,0,1-1.42,1.37,1.33,1.33,0,0,1-1.34-1.37,1.36,1.36,0,0,1,1.39-1.4A1.33,1.33,0,0,1,490.8,555.76Zm-2.48,15.74V559.21h2.23V571.5Z"/><path class="cls-3" d="M494.26,562.54c0-1.27,0-2.31-.1-3.33h2l.12,2h.05a4.52,4.52,0,0,1,4.07-2.31c1.7,0,4.34,1,4.34,5.23v7.34h-2.24v-7.08c0-2-.73-3.63-2.84-3.63a3.18,3.18,0,0,0-3,2.28,3.26,3.26,0,0,0-.15,1v7.39h-2.23Z"/><path class="cls-3" d="M510.94,555.68v3.53h3.2v1.7h-3.2v6.63c0,1.52.43,2.39,1.67,2.39a4.76,4.76,0,0,0,1.3-.16l.1,1.68a5.44,5.44,0,0,1-2,.3,3.09,3.09,0,0,1-2.41-.94,4.51,4.51,0,0,1-.87-3.19v-6.71h-1.9v-1.7h1.9v-2.94Z"/><path class="cls-3" d="M517.74,565.76c0,3,2,4.27,4.22,4.27a8,8,0,0,0,3.4-.64l.38,1.6a9.89,9.89,0,0,1-4.09.76c-3.78,0-6-2.48-6-6.19s2.18-6.63,5.76-6.63c4,0,5.08,3.53,5.08,5.79a7.43,7.43,0,0,1-.08,1Zm6.55-1.6c0-1.42-.58-3.63-3.1-3.63-2.26,0-3.25,2.08-3.42,3.63Z"/><path class="cls-3" d="M529.22,563c0-1.44,0-2.69-.1-3.83h2l.08,2.41h.1a3.68,3.68,0,0,1,3.4-2.69,2.55,2.55,0,0,1,.64.08v2.11a2.94,2.94,0,0,0-.77-.08,3.13,3.13,0,0,0-3,2.87,6.33,6.33,0,0,0-.1,1v6.55h-2.21Z"/><path class="cls-3" d="M548.39,565.25c0,4.55-3.15,6.53-6.12,6.53-3.33,0-5.89-2.44-5.89-6.32,0-4.12,2.69-6.53,6.09-6.53S548.39,561.5,548.39,565.25Zm-9.75.13c0,2.69,1.55,4.72,3.73,4.72s3.73-2,3.73-4.77c0-2.08-1-4.72-3.68-4.72S538.64,563,538.64,565.38Z"/><path class="cls-3" d="M551.2,563.22c0-1.57-.05-2.84-.1-4h2l.1,2.11h0a4.83,4.83,0,0,1,4.37-2.39c3,0,5.2,2.52,5.2,6.25,0,4.42-2.69,6.6-5.58,6.6a4.32,4.32,0,0,1-3.79-1.93h-.05v6.68H551.2Zm2.21,3.28a5.07,5.07,0,0,0,.1.91,3.46,3.46,0,0,0,3.36,2.62c2.36,0,3.73-1.93,3.73-4.75,0-2.46-1.3-4.57-3.66-4.57a3.56,3.56,0,0,0-3.37,2.77,3.47,3.47,0,0,0-.16.91Z"/><path class="cls-3" d="M566.89,565.76c.05,3,2,4.27,4.22,4.27a8,8,0,0,0,3.4-.64l.38,1.6a9.89,9.89,0,0,1-4.09.76c-3.78,0-6-2.48-6-6.19s2.18-6.63,5.76-6.63c4,0,5.08,3.53,5.08,5.79a10,10,0,0,1-.07,1Zm6.55-1.6c0-1.42-.58-3.63-3.09-3.63-2.26,0-3.25,2.08-3.43,3.63Z"/><path class="cls-3" d="M578.37,563c0-1.44,0-2.69-.1-3.83h2l.08,2.41h.1a3.68,3.68,0,0,1,3.4-2.69,2.49,2.49,0,0,1,.64.08v2.11a2.91,2.91,0,0,0-.76-.08,3.13,3.13,0,0,0-3,2.87,6.33,6.33,0,0,0-.1,1v6.55h-2.21Z"/><path class="cls-3" d="M593.35,571.5l-.18-1.55h-.08a4.54,4.54,0,0,1-3.75,1.83,3.5,3.5,0,0,1-3.76-3.53c0-3,2.64-4.6,7.39-4.57v-.25a2.54,2.54,0,0,0-2.8-2.85,6.08,6.08,0,0,0-3.19.92l-.51-1.48a7.61,7.61,0,0,1,4-1.09c3.76,0,4.68,2.57,4.68,5v4.59a17.62,17.62,0,0,0,.2,3Zm-.33-6.27c-2.44-.05-5.21.38-5.21,2.77a2,2,0,0,0,2.11,2.13,3.05,3.05,0,0,0,3-2.06,2.22,2.22,0,0,0,.13-.71Z"/><path class="cls-3" d="M598.68,571.5c.05-.84.1-2.08.1-3.17V553.47H601v7.72h0a4.58,4.58,0,0,1,4.19-2.26c3,0,5.21,2.54,5.18,6.27,0,4.4-2.77,6.58-5.51,6.58a4.37,4.37,0,0,1-4.11-2.31h-.08l-.1,2Zm2.31-4.93a4.38,4.38,0,0,0,.1.82,3.44,3.44,0,0,0,3.35,2.61c2.34,0,3.74-1.9,3.74-4.72,0-2.46-1.27-4.57-3.66-4.57a3.56,3.56,0,0,0-3.4,2.74,4.52,4.52,0,0,0-.13.92Z"/><path class="cls-3" d="M615.71,555.76a1.31,1.31,0,0,1-1.42,1.37,1.33,1.33,0,0,1-1.34-1.37,1.36,1.36,0,0,1,1.39-1.4A1.33,1.33,0,0,1,615.71,555.76Zm-2.48,15.74V559.21h2.23V571.5Z"/><path class="cls-3" d="M619.17,553.47h2.23v18h-2.23Z"/><path class="cls-3" d="M627.65,555.76a1.39,1.39,0,0,1-2.77,0,1.36,1.36,0,0,1,1.4-1.4A1.33,1.33,0,0,1,627.65,555.76Zm-2.49,15.74V559.21h2.23V571.5Z"/><path class="cls-3" d="M633.79,555.68v3.53H637v1.7h-3.2v6.63c0,1.52.43,2.39,1.68,2.39a4.73,4.73,0,0,0,1.29-.16l.1,1.68a5.4,5.4,0,0,1-2,.3,3.09,3.09,0,0,1-2.41-.94,4.51,4.51,0,0,1-.86-3.19v-6.71H629.7v-1.7h1.91v-2.94Z"/><path class="cls-3" d="M640.54,559.21l2.69,7.26c.28.82.59,1.78.79,2.52h.05c.23-.74.48-1.68.79-2.57l2.44-7.21h2.36L646.31,568c-1.6,4.22-2.69,6.37-4.22,7.69a6,6,0,0,1-2.74,1.45l-.56-1.88a5.92,5.92,0,0,0,2-1.09,6.68,6.68,0,0,0,1.87-2.49,1.42,1.42,0,0,0,.18-.53,1.87,1.87,0,0,0-.15-.58l-4.54-11.33Z"/><circle class="cls-4" cx="253.12" cy="453.88" r="4.5"/><circle class="cls-4" cx="253.12" cy="509.19" r="4.5"/><circle class="cls-4" cx="253.12" cy="564.51" r="4.5"/><path class="cls-3" d="M278.15,238.84a32.13,32.13,0,0,1,4.7-.36c3.17,0,5.43.74,6.93,2.14a7.87,7.87,0,0,1,2.41,6.14,9,9,0,0,1-2.46,6.65c-1.6,1.6-4.24,2.47-7.57,2.47a34.84,34.84,0,0,1-4-.21ZM280.36,254a14.12,14.12,0,0,0,2.24.13c4.72,0,7.28-2.64,7.28-7.26,0-4-2.26-6.61-6.93-6.61a13.11,13.11,0,0,0-2.59.23Z"/><path class="cls-3" d="M297.47,240a1.31,1.31,0,0,1-1.42,1.37A1.33,1.33,0,0,1,294.7,240a1.37,1.37,0,0,1,1.4-1.4A1.33,1.33,0,0,1,297.47,240ZM295,255.72V243.43h2.24v12.29Z"/><path class="cls-3" d="M311.51,243.43c-.05.89-.1,1.88-.1,3.38V254c0,2.81-.56,4.54-1.75,5.61a6.54,6.54,0,0,1-4.47,1.47,8,8,0,0,1-4.09-1l.56-1.7a6.9,6.9,0,0,0,3.61,1c2.28,0,4-1.2,4-4.29v-1.37h-.05a4.4,4.4,0,0,1-3.91,2c-3,0-5.23-2.59-5.23-6,0-4.16,2.71-6.53,5.53-6.53a4.11,4.11,0,0,1,3.84,2.14h0l.1-1.86Zm-2.31,4.85a3.18,3.18,0,0,0-.12-1,3.22,3.22,0,0,0-3.13-2.36c-2.13,0-3.65,1.8-3.65,4.64,0,2.42,1.21,4.42,3.63,4.42a3.25,3.25,0,0,0,3.09-2.28,3.84,3.84,0,0,0,.18-1.2Z"/><path class="cls-3" d="M317.45,240a1.38,1.38,0,0,1-2.76,0,1.36,1.36,0,0,1,1.39-1.4A1.33,1.33,0,0,1,317.45,240ZM315,255.72V243.43h2.24v12.29Z"/><path class="cls-3" d="M323.6,239.9v3.53h3.2v1.71h-3.2v6.62c0,1.53.43,2.39,1.67,2.39a5.29,5.29,0,0,0,1.3-.15l.1,1.67a5.41,5.41,0,0,1-2,.31,3.09,3.09,0,0,1-2.41-.94,4.52,4.52,0,0,1-.87-3.2v-6.7h-1.9v-1.71h1.9v-2.94Z"/><path class="cls-3" d="M336.11,255.72l-.17-1.55h-.08A4.58,4.58,0,0,1,332.1,256a3.5,3.5,0,0,1-3.76-3.53c0-3,2.64-4.59,7.39-4.57v-.25a2.53,2.53,0,0,0-2.79-2.84,6.11,6.11,0,0,0-3.2.91l-.51-1.47a7.65,7.65,0,0,1,4-1.1c3.76,0,4.67,2.57,4.67,5v4.6a17.49,17.49,0,0,0,.2,2.94Zm-.33-6.27c-2.43,0-5.2.38-5.2,2.77a2,2,0,0,0,2.11,2.13,3.06,3.06,0,0,0,3-2,2.58,2.58,0,0,0,.12-.72Z"/><path class="cls-3" d="M341.55,237.7h2.23v18h-2.23Z"/><path class="cls-3" d="M355.61,239.9v3.53h3.2v1.71h-3.2v6.62c0,1.53.43,2.39,1.68,2.39a5.27,5.27,0,0,0,1.29-.15l.1,1.67a5.37,5.37,0,0,1-2,.31,3.09,3.09,0,0,1-2.41-.94,4.57,4.57,0,0,1-.86-3.2v-6.7h-1.91v-1.71h1.91v-2.94Z"/><path class="cls-3" d="M362.44,243.43l1.62,6.25c.36,1.37.69,2.64.92,3.91h.07c.28-1.24.69-2.56,1.1-3.88l2-6.28H370l1.91,6.15c.45,1.47.81,2.77,1.09,4h.07a40.89,40.89,0,0,1,.94-4l1.75-6.17H378l-4,12.29h-2l-1.88-5.86c-.43-1.37-.78-2.59-1.09-4H369a35.81,35.81,0,0,1-1.12,4.06l-2,5.84h-2l-3.71-12.29Z"/><path class="cls-3" d="M382.72,240a1.31,1.31,0,0,1-1.42,1.37A1.33,1.33,0,0,1,380,240a1.36,1.36,0,0,1,1.39-1.4A1.33,1.33,0,0,1,382.72,240Zm-2.48,15.74V243.43h2.23v12.29Z"/><path class="cls-3" d="M386.18,246.76c0-1.27,0-2.31-.1-3.33h2l.12,2h.05a4.52,4.52,0,0,1,4.07-2.32c1.7,0,4.34,1,4.34,5.24v7.33H394.4v-7.08c0-2-.73-3.63-2.84-3.63a3.18,3.18,0,0,0-3,2.28,3.26,3.26,0,0,0-.15,1v7.39h-2.23Z"/><path class="cls-3" d="M292.57,303.6c-.12-2.39-.28-5.26-.25-7.39h-.08c-.58,2-1.29,4.14-2.15,6.5l-3,8.3h-1.67l-2.77-8.15c-.81-2.41-1.5-4.62-2-6.65h-.05c0,2.13-.18,5-.33,7.56l-.46,7.34h-2.1L278.89,294h2.82l2.92,8.28c.71,2.1,1.29,4,1.72,5.76h.08c.43-1.73,1-3.61,1.8-5.76l3-8.28h2.82l1.06,17.11H293Z"/><path class="cls-3" d="M309.76,304.87c0,4.54-3.15,6.52-6.12,6.52-3.32,0-5.89-2.44-5.89-6.32,0-4.11,2.69-6.53,6.1-6.53S309.76,301.11,309.76,304.87ZM300,305c0,2.69,1.55,4.73,3.73,4.73s3.74-2,3.74-4.78c0-2.08-1-4.72-3.69-4.72S300,302.66,300,305Z"/><path class="cls-3" d="M323.19,293.08v14.86c0,1.09,0,2.33.1,3.17h-2l-.1-2.13h-.05a4.56,4.56,0,0,1-4.19,2.41c-3,0-5.26-2.51-5.26-6.24,0-4.09,2.51-6.61,5.51-6.61a4.12,4.12,0,0,1,3.71,1.88h0v-7.34ZM321,303.82a4.2,4.2,0,0,0-.1-.93,3.28,3.28,0,0,0-3.23-2.59c-2.31,0-3.68,2-3.68,4.74,0,2.49,1.22,4.55,3.63,4.55a3.36,3.36,0,0,0,3.28-2.67,4.16,4.16,0,0,0,.1-1Z"/><path class="cls-3" d="M328.14,305.37c.05,3,2,4.27,4.22,4.27a8,8,0,0,0,3.4-.64l.38,1.6a9.85,9.85,0,0,1-4.09.77c-3.78,0-6-2.49-6-6.2s2.18-6.63,5.76-6.63c4,0,5.08,3.53,5.08,5.79a9.75,9.75,0,0,1-.07,1Zm6.55-1.6c0-1.42-.58-3.63-3.09-3.63-2.26,0-3.25,2.09-3.43,3.63Z"/><path class="cls-3" d="M339.62,293.08h2.23v18h-2.23Z"/><path class="cls-3" d="M350.79,303.42v1.65h-6.27v-1.65Z"/><path class="cls-3" d="M353.3,311.11c.05-.84.1-2.08.1-3.17V293.08h2.21v7.72h.05a4.58,4.58,0,0,1,4.19-2.26c3,0,5.21,2.54,5.18,6.27,0,4.4-2.77,6.58-5.51,6.58a4.37,4.37,0,0,1-4.11-2.31h-.08l-.1,2Zm2.31-4.92a4.27,4.27,0,0,0,.1.81,3.45,3.45,0,0,0,3.36,2.61c2.33,0,3.73-1.9,3.73-4.72,0-2.46-1.27-4.57-3.66-4.57a3.56,3.56,0,0,0-3.4,2.74,4.52,4.52,0,0,0-.13.92Z"/><path class="cls-3" d="M374.65,311.11l-.17-1.55h-.08a4.58,4.58,0,0,1-3.76,1.83,3.5,3.5,0,0,1-3.76-3.53c0-3,2.64-4.59,7.39-4.57V303a2.54,2.54,0,0,0-2.79-2.85,6.11,6.11,0,0,0-3.2.92l-.51-1.47a7.65,7.65,0,0,1,4-1.1c3.76,0,4.67,2.57,4.67,5v4.6a17.57,17.57,0,0,0,.2,2.94Zm-.33-6.27c-2.43,0-5.2.38-5.2,2.77a2,2,0,0,0,2.11,2.13,3.05,3.05,0,0,0,3-2.06,2.46,2.46,0,0,0,.12-.71Z"/><path class="cls-3" d="M379.78,308.83a5.88,5.88,0,0,0,3,.89c1.62,0,2.38-.82,2.38-1.83s-.63-1.65-2.28-2.26c-2.21-.79-3.25-2-3.25-3.48,0-2,1.6-3.61,4.24-3.61a6.11,6.11,0,0,1,3,.77l-.56,1.62a4.81,4.81,0,0,0-2.51-.71c-1.32,0-2.06.76-2.06,1.68s.74,1.47,2.34,2.08c2.13.81,3.22,1.88,3.22,3.7,0,2.16-1.67,3.69-4.59,3.69a7,7,0,0,1-3.46-.84Z"/><path class="cls-3" d="M391.38,305.37c.05,3,2,4.27,4.22,4.27A8,8,0,0,0,399,309l.38,1.6a9.85,9.85,0,0,1-4.09.77c-3.78,0-6-2.49-6-6.2s2.18-6.63,5.76-6.63c4,0,5.08,3.53,5.08,5.79a9.75,9.75,0,0,1-.07,1Zm6.55-1.6c0-1.42-.58-3.63-3.09-3.63-2.26,0-3.25,2.09-3.43,3.63Z"/><path class="cls-3" d="M413.47,293.08v14.86c0,1.09,0,2.33.1,3.17h-2l-.1-2.13h-.05a4.56,4.56,0,0,1-4.19,2.41c-3,0-5.26-2.51-5.26-6.24,0-4.09,2.51-6.61,5.51-6.61a4.12,4.12,0,0,1,3.71,1.88h.05v-7.34Zm-2.23,10.74a4.2,4.2,0,0,0-.1-.93,3.28,3.28,0,0,0-3.23-2.59c-2.31,0-3.68,2-3.68,4.74,0,2.49,1.22,4.55,3.63,4.55a3.36,3.36,0,0,0,3.28-2.67,4.16,4.16,0,0,0,.1-1Z"/><path class="cls-3" d="M422.26,308.83a5.84,5.84,0,0,0,2.94.89c1.63,0,2.39-.82,2.39-1.83s-.64-1.65-2.29-2.26c-2.21-.79-3.25-2-3.25-3.48,0-2,1.6-3.61,4.24-3.61a6,6,0,0,1,3,.77l-.55,1.62a4.89,4.89,0,0,0-2.52-.71c-1.32,0-2.05.76-2.05,1.68s.73,1.47,2.33,2.08c2.13.81,3.23,1.88,3.23,3.7,0,2.16-1.68,3.69-4.6,3.69a7,7,0,0,1-3.45-.84Z"/><path class="cls-3" d="M433.43,298.82l2.69,7.26c.28.82.58,1.78.79,2.52h0c.22-.74.48-1.68.78-2.57l2.44-7.21h2.36l-3.35,8.76c-1.6,4.22-2.69,6.38-4.21,7.7a6.1,6.1,0,0,1-2.75,1.44l-.56-1.88a5.74,5.74,0,0,0,2-1.09,6.72,6.72,0,0,0,1.88-2.49,1.56,1.56,0,0,0,.18-.53,1.75,1.75,0,0,0-.16-.58L431,298.82Z"/><path class="cls-3" d="M444.12,308.83a5.84,5.84,0,0,0,2.94.89c1.63,0,2.39-.82,2.39-1.83s-.64-1.65-2.29-2.26c-2.21-.79-3.25-2-3.25-3.48,0-2,1.6-3.61,4.24-3.61a6,6,0,0,1,3,.77l-.55,1.62a4.89,4.89,0,0,0-2.52-.71c-1.32,0-2.06.76-2.06,1.68s.74,1.47,2.34,2.08c2.13.81,3.23,1.88,3.23,3.7,0,2.16-1.68,3.69-4.6,3.69a7,7,0,0,1-3.45-.84Z"/><path class="cls-3" d="M457.16,295.29v3.53h3.2v1.7h-3.2v6.63c0,1.52.44,2.39,1.68,2.39a5.36,5.36,0,0,0,1.3-.15l.1,1.67a5.41,5.41,0,0,1-2,.31,3.12,3.12,0,0,1-2.42-.94,4.59,4.59,0,0,1-.86-3.2v-6.71h-1.9v-1.7H455v-2.94Z"/><path class="cls-3" d="M464,305.37c0,3,2,4.27,4.21,4.27a8,8,0,0,0,3.41-.64l.38,1.6a9.89,9.89,0,0,1-4.09.77c-3.78,0-6-2.49-6-6.2s2.18-6.63,5.76-6.63c4,0,5.08,3.53,5.08,5.79a7.3,7.3,0,0,1-.08,1Zm6.55-1.6c0-1.42-.58-3.63-3.1-3.63-2.26,0-3.25,2.09-3.43,3.63Z"/><path class="cls-3" d="M475.44,302.15c0-1.27,0-2.31-.1-3.33h2l.1,2h.08a4.23,4.23,0,0,1,3.85-2.26,3.63,3.63,0,0,1,3.48,2.47h.05a5.11,5.11,0,0,1,1.38-1.6,4.15,4.15,0,0,1,2.71-.87c1.63,0,4,1.07,4,5.34v7.23h-2.18v-7c0-2.36-.87-3.78-2.67-3.78a2.89,2.89,0,0,0-2.64,2,3.75,3.75,0,0,0-.18,1.12v7.59h-2.18v-7.36c0-2-.87-3.38-2.57-3.38a3,3,0,0,0-2.76,2.24,3,3,0,0,0-.18,1.09v7.41h-2.19Z"/><path class="cls-3" d="M496.31,308.83a5.88,5.88,0,0,0,2.95.89c1.62,0,2.39-.82,2.39-1.83s-.64-1.65-2.29-2.26c-2.21-.79-3.25-2-3.25-3.48,0-2,1.6-3.61,4.24-3.61a6.08,6.08,0,0,1,3,.77l-.56,1.62a4.81,4.81,0,0,0-2.51-.71c-1.32,0-2.06.76-2.06,1.68s.74,1.47,2.34,2.08c2.13.81,3.22,1.88,3.22,3.7,0,2.16-1.67,3.69-4.59,3.69a7,7,0,0,1-3.46-.84Z"/><path class="cls-3" d="M278.15,349.39h2.21v8.25h.08c.45-.66.91-1.27,1.34-1.83l5.23-6.42h2.75l-6.2,7.26,6.68,9.85h-2.62L282,358.1,280.36,360v6.53h-2.21Z"/><path class="cls-3" d="M292.09,357.54c0-1.27,0-2.31-.1-3.33h2l.13,2h0a4.51,4.51,0,0,1,4.06-2.31c1.7,0,4.34,1,4.34,5.23v7.34h-2.23v-7.08c0-2-.74-3.63-2.85-3.63a3.17,3.17,0,0,0-3,2.28,3.26,3.26,0,0,0-.15,1v7.39h-2.24Z"/><path class="cls-3" d="M317.3,360.25c0,4.55-3.15,6.53-6.12,6.53-3.32,0-5.89-2.44-5.89-6.32,0-4.12,2.69-6.53,6.1-6.53S317.3,356.5,317.3,360.25Zm-9.75.13c0,2.69,1.55,4.72,3.74,4.72s3.73-2,3.73-4.77c0-2.08-1-4.72-3.68-4.72S307.55,358,307.55,360.38Z"/><path class="cls-3" d="M320.83,354.21l1.63,6.25c.35,1.37.68,2.64.91,3.91h.08c.28-1.25.68-2.57,1.09-3.89l2-6.27h1.88l1.91,6.15c.45,1.47.81,2.76,1.09,4h.08a37.41,37.41,0,0,1,.93-4l1.76-6.17h2.21l-4,12.29h-2l-1.88-5.87c-.43-1.37-.78-2.59-1.09-4h-.05a33.84,33.84,0,0,1-1.12,4.06l-2,5.84h-2l-3.7-12.29Z"/><path class="cls-3" d="M338.63,348.47h2.23v18h-2.23Z"/><path class="cls-3" d="M345.86,360.76c.05,3,2,4.27,4.22,4.27a8,8,0,0,0,3.4-.64l.38,1.6a9.89,9.89,0,0,1-4.09.76c-3.78,0-6-2.48-6-6.19s2.18-6.63,5.76-6.63c4,0,5.08,3.53,5.08,5.79a10,10,0,0,1-.07,1Zm6.55-1.6c0-1.42-.58-3.63-3.09-3.63-2.26,0-3.25,2.08-3.43,3.63Z"/><path class="cls-3" d="M368,348.47v14.86c0,1.09,0,2.33.1,3.17h-2l-.1-2.13h-.05a4.56,4.56,0,0,1-4.19,2.41c-3,0-5.26-2.51-5.26-6.25,0-4.08,2.51-6.6,5.51-6.6a4.12,4.12,0,0,1,3.71,1.88h.05v-7.34Zm-2.23,10.74a4.29,4.29,0,0,0-.1-.94,3.29,3.29,0,0,0-3.23-2.59c-2.31,0-3.68,2-3.68,4.75,0,2.49,1.22,4.55,3.63,4.55a3.36,3.36,0,0,0,3.28-2.67,4.16,4.16,0,0,0,.1-1Z"/><path class="cls-3" d="M382.25,354.21c-.05.89-.11,1.88-.11,3.38v7.13c0,2.82-.55,4.55-1.75,5.61a6.5,6.5,0,0,1-4.47,1.48,7.91,7.91,0,0,1-4.08-1l.55-1.7a7,7,0,0,0,3.61,1c2.29,0,4-1.19,4-4.29v-1.37h0a4.38,4.38,0,0,1-3.91,2.06c-3.05,0-5.23-2.59-5.23-6,0-4.17,2.72-6.53,5.53-6.53a4.09,4.09,0,0,1,3.84,2.13h.05l.1-1.85Zm-2.31,4.85a3.28,3.28,0,0,0-.13-1,3.23,3.23,0,0,0-3.12-2.36c-2.14,0-3.66,1.81-3.66,4.65,0,2.41,1.22,4.42,3.63,4.42a3.27,3.27,0,0,0,3.1-2.29,4.09,4.09,0,0,0,.18-1.19Z"/><path class="cls-3" d="M387.09,360.76c.05,3,2,4.27,4.22,4.27a8,8,0,0,0,3.4-.64l.38,1.6a9.89,9.89,0,0,1-4.09.76c-3.78,0-6-2.48-6-6.19s2.18-6.63,5.76-6.63c4,0,5.08,3.53,5.08,5.79a10,10,0,0,1-.07,1Zm6.55-1.6c0-1.42-.58-3.63-3.09-3.63-2.26,0-3.25,2.08-3.43,3.63Z"/><path class="cls-3" d="M404.46,358.81v1.65h-6.27v-1.65Z"/><path class="cls-3" d="M407,366.5c0-.84.1-2.08.1-3.17V348.47h2.21v7.72h.05a4.58,4.58,0,0,1,4.19-2.26c3.05,0,5.21,2.54,5.18,6.27,0,4.4-2.76,6.58-5.51,6.58a4.38,4.38,0,0,1-4.11-2.31H409l-.1,2Zm2.31-4.93a4.38,4.38,0,0,0,.1.82,3.45,3.45,0,0,0,3.36,2.61c2.33,0,3.73-1.9,3.73-4.72,0-2.46-1.27-4.57-3.66-4.57a3.56,3.56,0,0,0-3.4,2.74,4.52,4.52,0,0,0-.13.92Z"/><path class="cls-3" d="M428.32,366.5l-.17-1.55h-.08a4.58,4.58,0,0,1-3.76,1.83,3.5,3.5,0,0,1-3.76-3.53c0-3,2.65-4.6,7.39-4.57v-.25a2.54,2.54,0,0,0-2.79-2.85,6.11,6.11,0,0,0-3.2.92l-.51-1.48a7.65,7.65,0,0,1,4-1.09c3.76,0,4.67,2.57,4.67,5v4.59a16.55,16.55,0,0,0,.21,2.95Zm-.33-6.27c-2.43-.05-5.2.38-5.2,2.77a2,2,0,0,0,2.11,2.13,3.06,3.06,0,0,0,3-2.06,2.52,2.52,0,0,0,.12-.71Z"/><path class="cls-3" d="M433.45,364.21a5.78,5.78,0,0,0,2.95.89c1.62,0,2.38-.81,2.38-1.82s-.63-1.65-2.28-2.26c-2.21-.79-3.25-2-3.25-3.48,0-2,1.6-3.61,4.24-3.61a6.19,6.19,0,0,1,3,.76l-.56,1.63a4.72,4.72,0,0,0-2.51-.71c-1.32,0-2.06.76-2.06,1.67s.74,1.48,2.34,2.09c2.13.81,3.22,1.87,3.22,3.7,0,2.16-1.67,3.68-4.59,3.68a7.13,7.13,0,0,1-3.46-.83Z"/><path class="cls-3" d="M445.05,360.76c.06,3,2,4.27,4.22,4.27a8,8,0,0,0,3.4-.64l.38,1.6a9.85,9.85,0,0,1-4.09.76c-3.78,0-6-2.48-6-6.19s2.19-6.63,5.77-6.63c4,0,5.07,3.53,5.07,5.79a10,10,0,0,1-.07,1Zm6.56-1.6c0-1.42-.59-3.63-3.1-3.63-2.26,0-3.25,2.08-3.43,3.63Z"/><path class="cls-3" d="M467.14,348.47v14.86c0,1.09,0,2.33.11,3.17h-2l-.1-2.13h-.05a4.56,4.56,0,0,1-4.19,2.41c-3,0-5.26-2.51-5.26-6.25,0-4.08,2.52-6.6,5.51-6.6a4.12,4.12,0,0,1,3.71,1.88h.05v-7.34Zm-2.23,10.74a4.29,4.29,0,0,0-.1-.94,3.29,3.29,0,0,0-3.23-2.59c-2.31,0-3.68,2-3.68,4.75,0,2.49,1.22,4.55,3.63,4.55a3.36,3.36,0,0,0,3.28-2.67,4.16,4.16,0,0,0,.1-1Z"/><path class="cls-3" d="M477.48,360.76c0,3,2,4.27,4.21,4.27a8,8,0,0,0,3.4-.64l.38,1.6a9.83,9.83,0,0,1-4.08.76c-3.79,0-6.05-2.48-6.05-6.19s2.19-6.63,5.77-6.63c4,0,5.07,3.53,5.07,5.79a10,10,0,0,1-.07,1Zm6.55-1.6c0-1.42-.59-3.63-3.1-3.63-2.26,0-3.25,2.08-3.43,3.63Z"/><path class="cls-3" d="M489,357.54c0-1.27,0-2.31-.1-3.33h2l.13,2H491a4.51,4.51,0,0,1,4.06-2.31c1.7,0,4.34,1,4.34,5.23v7.34h-2.23v-7.08c0-2-.74-3.63-2.85-3.63a3.17,3.17,0,0,0-3,2.28,3.26,3.26,0,0,0-.15,1v7.39H489Z"/><path class="cls-3" d="M513.63,354.21c0,.89-.1,1.88-.1,3.38v7.13c0,2.82-.56,4.55-1.75,5.61a6.52,6.52,0,0,1-4.47,1.48,7.92,7.92,0,0,1-4.09-1l.56-1.7a6.89,6.89,0,0,0,3.6,1c2.29,0,4-1.19,4-4.29v-1.37h0a4.36,4.36,0,0,1-3.91,2.06c-3,0-5.23-2.59-5.23-6,0-4.17,2.72-6.53,5.54-6.53a4.09,4.09,0,0,1,3.83,2.13h.05l.1-1.85Zm-2.31,4.85a3.28,3.28,0,0,0-.13-1,3.22,3.22,0,0,0-3.12-2.36c-2.13,0-3.66,1.81-3.66,4.65,0,2.41,1.22,4.42,3.63,4.42a3.27,3.27,0,0,0,3.1-2.29,3.78,3.78,0,0,0,.18-1.19Z"/><path class="cls-3" d="M519.57,350.76a1.31,1.31,0,0,1-1.42,1.37,1.33,1.33,0,0,1-1.35-1.37,1.37,1.37,0,0,1,1.4-1.4A1.33,1.33,0,0,1,519.57,350.76Zm-2.49,15.74V354.21h2.24V366.5Z"/><path class="cls-3" d="M523,357.54c0-1.27,0-2.31-.1-3.33h2l.13,2h.05a4.51,4.51,0,0,1,4.06-2.31c1.7,0,4.34,1,4.34,5.23v7.34h-2.23v-7.08c0-2-.74-3.63-2.84-3.63a3.17,3.17,0,0,0-3,2.28,3.26,3.26,0,0,0-.15,1v7.39H523Z"/><path class="cls-3" d="M538.36,360.76c0,3,2,4.27,4.21,4.27a8,8,0,0,0,3.4-.64l.39,1.6a9.93,9.93,0,0,1-4.09.76c-3.79,0-6-2.48-6-6.19s2.19-6.63,5.77-6.63c4,0,5.08,3.53,5.08,5.79a7.43,7.43,0,0,1-.08,1Zm6.55-1.6c0-1.42-.59-3.63-3.1-3.63-2.26,0-3.25,2.08-3.43,3.63Z"/><path class="cls-3" d="M551.08,360.76c0,3,2,4.27,4.21,4.27a8,8,0,0,0,3.4-.64l.39,1.6a9.93,9.93,0,0,1-4.09.76c-3.79,0-6-2.48-6-6.19s2.19-6.63,5.77-6.63c4,0,5.08,3.53,5.08,5.79a7.43,7.43,0,0,1-.08,1Zm6.55-1.6c0-1.42-.59-3.63-3.1-3.63-2.26,0-3.25,2.08-3.43,3.63Z"/><path class="cls-3" d="M562.55,358c0-1.44,0-2.69-.1-3.83h2l.07,2.41h.1a3.69,3.69,0,0,1,3.41-2.69,2.41,2.41,0,0,1,.63.08v2.11a2.91,2.91,0,0,0-.76-.08,3.14,3.14,0,0,0-3,2.87,6.33,6.33,0,0,0-.1,1v6.55h-2.21Z"/><path class="cls-3" d="M573.44,350.76a1.31,1.31,0,0,1-1.42,1.37,1.33,1.33,0,0,1-1.34-1.37,1.36,1.36,0,0,1,1.39-1.4A1.33,1.33,0,0,1,573.44,350.76ZM571,366.5V354.21h2.23V366.5Z"/><path class="cls-3" d="M576.9,357.54c0-1.27,0-2.31-.11-3.33h2l.12,2H579a4.52,4.52,0,0,1,4.07-2.31c1.7,0,4.34,1,4.34,5.23v7.34h-2.24v-7.08c0-2-.73-3.63-2.84-3.63a3.18,3.18,0,0,0-3,2.28,3.26,3.26,0,0,0-.15,1v7.39H576.9Z"/><path class="cls-3" d="M601.58,354.21c-.06.89-.11,1.88-.11,3.38v7.13c0,2.82-.56,4.55-1.75,5.61a6.5,6.5,0,0,1-4.47,1.48,8,8,0,0,1-4.09-1l.56-1.7a7,7,0,0,0,3.61,1c2.28,0,4-1.19,4-4.29v-1.37h0a4.38,4.38,0,0,1-3.91,2.06c-3.05,0-5.23-2.59-5.23-6,0-4.17,2.72-6.53,5.53-6.53a4.11,4.11,0,0,1,3.84,2.13h0l.1-1.85Zm-2.32,4.85a3.29,3.29,0,0,0-.12-1,3.23,3.23,0,0,0-3.13-2.36c-2.13,0-3.65,1.81-3.65,4.65,0,2.41,1.22,4.42,3.63,4.42a3.28,3.28,0,0,0,3.1-2.29,4.08,4.08,0,0,0,.17-1.19Z"/><circle class="cls-4" cx="253.12" cy="248.88" r="4.5"/><circle class="cls-4" cx="253.12" cy="304.19" r="4.5"/><circle class="cls-4" cx="253.12" cy="359.51" r="4.5"/><path class="cls-3" d="M103.89,53.14c3.42-11.69,11-18.22,23-19.64V26.25h-4.64V23.58h12v2.61h-4.61v7.27c1.81.35,3.6.6,5.32,1.06a24.74,24.74,0,0,1-3.31,48.3,11.65,11.65,0,0,1-2.35.19c-.8-.05-1,.34-1.24,1-.8,2.11-1.7,4.17-2.55,6.26a.91.91,0,0,1-1.14.61c-1.19-.18-2.53-.6-3.58-.24s-1.71,1.56-2.56,2.36-1.63,1.43-2.39,2.2a1.85,1.85,0,0,0-.47,1.13c0,1.08.16,2.16.29,3.23a1,1,0,0,1-.65,1.24c-2.18.89-4.34,1.8-6.51,2.7a.88.88,0,0,1-1.17-.36,27.76,27.76,0,0,0-2.14-2.57,1.92,1.92,0,0,0-1.21-.51c-1.93,0-3.86,0-5.78,0a1.63,1.63,0,0,0-1.07.43c-.78.83-1.5,1.73-2.2,2.63a.89.89,0,0,1-1.16.39c-2.2-.92-4.4-1.84-6.6-2.73-.58-.24-.66-.63-.59-1.18.13-1.1.27-2.21.31-3.32a1.64,1.64,0,0,0-.45-1.05c-1.36-1.41-2.74-2.8-4.16-4.15a1.81,1.81,0,0,0-1.14-.49,25.11,25.11,0,0,0-3.12.28c-.64.1-1.06,0-1.32-.65q-1.29-3.27-2.64-6.53a1,1,0,0,1,.41-1.25c.88-.68,1.75-1.38,2.56-2.14a1.45,1.45,0,0,0,.38-1c0-1.82,0-3.65,0-5.47a1.51,1.51,0,0,0-.4-1c-.81-.75-1.68-1.46-2.56-2.14a1,1,0,0,1-.4-1.26c.89-2.17,1.78-4.34,2.65-6.53.26-.65.7-.73,1.32-.65a27.38,27.38,0,0,0,3.13.29,1.76,1.76,0,0,0,1.12-.49c1.39-1.33,2.76-2.69,4.08-4.09a1.92,1.92,0,0,0,.52-1.21,32,32,0,0,0-.3-3.23.94.94,0,0,1,.6-1.16c2.17-.89,4.34-1.81,6.5-2.71a1,1,0,0,1,1.26.38c.7.91,1.44,1.79,2.2,2.63a1.36,1.36,0,0,0,.88.44C100,53.16,101.94,53.14,103.89,53.14Zm24.3,27.24a22.09,22.09,0,1,0-22-22.19A22.11,22.11,0,0,0,128.19,80.38ZM103.44,55.75a14.49,14.49,0,0,0-5.52.11A2,2,0,0,1,95.53,55c-.64-.89-1.44-2.14-2.32-2.27s-2.15.77-3.25,1.19c-.54.2-.62.53-.55,1.06a29.13,29.13,0,0,1,.27,3.22,1.43,1.43,0,0,1-.49,1,23.09,23.09,0,0,0-5.61,5.59,1.51,1.51,0,0,1-1.1.51c-1.08,0-2.15-.2-3.23-.23a1.14,1.14,0,0,0-.88.47c-.47,1-.82,2-1.25,3a.84.84,0,0,0,.36,1.15c.78.59,1.49,1.29,2.28,1.86A1.2,1.2,0,0,1,80.28,73a16.41,16.41,0,0,0,0,6.73,1.89,1.89,0,0,1-.82,2.13c-2.83,2.29-2.8,2.31-1.12,5.59a.9.9,0,0,0,1.07.58,27.48,27.48,0,0,1,3.13-.24,1.69,1.69,0,0,1,1.1.51c1.21,1.29,2.32,2.66,3.54,3.93.8.83,2.13,1.38,2.49,2.33s-.06,2.38-.21,3.58c-.07.54,0,.86.56,1.07,1,.37,1.92.83,2.91,1.16a1.24,1.24,0,0,0,1-.29A31.16,31.16,0,0,0,96,97.59a1.08,1.08,0,0,1,1.15-.44,46.14,46.14,0,0,0,5,.36c1.23,0,2.64-.68,3.64-.27s1.72,1.81,2.51,2.81c.34.42.64.58,1.16.35,1-.43,2-.77,2.88-1.24a1.24,1.24,0,0,0,.52-1c0-1.07-.24-2.14-.26-3.22a1.51,1.51,0,0,1,.51-1.1,21.54,21.54,0,0,0,5.51-5.55,1.17,1.17,0,0,1,1.29-.58A30,30,0,0,0,123,88a1.11,1.11,0,0,0,.88-.49c.48-1,.87-2,1.26-3.08.07-.2.07-.6-.06-.69a9.46,9.46,0,0,0-2-1.2c-.91-.36-1.92-.46-2.82-.82-1.9-.77-3.75-1.64-5.61-2.46a14,14,0,0,1-17.19,10.5c-6.24-1.69-10.8-8.08-10.11-14.28a13.86,13.86,0,0,1,16.36-12.35Zm-2.13,9.82a11,11,0,1,0,.32,22,11.25,11.25,0,0,0,10.48-9.41,1.62,1.62,0,0,0-.57-1.62,20.56,20.56,0,0,1-6-8.43c-.66-1.91-1.85-2.37-3.52-2.49C101.77,65.58,101.48,65.58,101.31,65.57Z"/><path class="cls-3" d="M134,51.88c-.63,1.06-1.23,2-1.72,3a1.18,1.18,0,0,0,.2,1A5.35,5.35,0,0,1,124,62.43a5.47,5.47,0,0,1-.48-5.91,5.23,5.23,0,0,1,5.36-2.69,1,1,0,0,0,1.22-.59c.46-.9,1-1.75,1.56-2.71l-4.12-2.46,10.59-6V54.31Zm-5.74,9.93a2.71,2.71,0,0,0,0-5.42,2.71,2.71,0,1,0,0,5.42Z"/><path class="cls-3" d="M73.46,274.84h5c1.16-13.64,7.52-24,19.95-30s24.54-4.4,36,3.28a5.43,5.43,0,0,1,7.84,7,1.05,1.05,0,0,0,.08,1.3,34.26,34.26,0,0,1,6.1,17.68c0,.64.25.84.87.83,1.39,0,2.77,0,4.2,0v2.62H140.82c-.13,1.07-.29,2.05-.35,3,0,.24.26.56.49.75,1,.91,2.16,1.77,3.19,2.7a1.26,1.26,0,0,1,.36,1,28.57,28.57,0,0,1-3.22,8,1.24,1.24,0,0,1-1,.48c-1.39-.06-2.78-.27-4.17-.33a1.84,1.84,0,0,0-1.2.51q-2.65,2.55-5.22,5.21a1.69,1.69,0,0,0-.47,1.11c.07,1.46.28,2.9.36,4.36a1.11,1.11,0,0,1-.48.88c-2.63,1.15-5.29,2.25-8,3.3a1.09,1.09,0,0,1-1-.32c-1-1.06-1.81-2.21-2.77-3.26a1.85,1.85,0,0,0-1.2-.52c-2.46-.05-4.91-.05-7.37,0a1.74,1.74,0,0,0-1.13.49c-1,1.05-1.85,2.17-2.74,3.28a.84.84,0,0,1-1.15.33c-2.56-1.07-5.14-2.12-7.7-3.18a.9.9,0,0,1-.61-1.13c.2-1.45.32-2.9.41-4.36a1.31,1.31,0,0,0-.37-.88c-1.79-1.82-3.59-3.63-5.43-5.4A1.67,1.67,0,0,0,89,293.2c-1.39.07-2.77.27-4.16.33a1.16,1.16,0,0,1-.95-.51q-1.68-3.91-3.21-7.89a1.2,1.2,0,0,1,.32-1c1-1,2.19-1.83,3.25-2.79a1.53,1.53,0,0,0,.43-1c0-.86-.18-1.72-.3-2.7H73.46Zm7.84.07h64.46a31.87,31.87,0,0,0-6-17.37,2.31,2.31,0,0,0-.29,0,5.43,5.43,0,0,1-7.13-6.8,1.13,1.13,0,0,0-.44-1c-2-1.15-4-2.33-6-3.31a46.65,46.65,0,0,0-4.8-1.7v17.9h4.78l-6.17,10.68-6.2-10.74h4.84V244.36a29.92,29.92,0,0,0-9.63,0v18.31h4.76l-6.19,10.71-6.22-10.79h4.82V244.94C91.05,248.38,81.45,262,81.3,274.91Zm47.44,2.72A16.28,16.28,0,0,1,114,292.74a15.77,15.77,0,0,1-10-2.42,16.1,16.1,0,0,1-7.53-12.64H87.1c.17,1.28.37,2.46.47,3.65a1.46,1.46,0,0,1-.37,1.05c-1,.92-2.06,1.78-3.13,2.62a.84.84,0,0,0-.31,1.16q.83,2,1.59,4c.23.6.61.71,1.21.64,1.28-.16,2.57-.3,3.86-.34a1.63,1.63,0,0,1,1.17.56,25.77,25.77,0,0,0,6.59,6.54,1.17,1.17,0,0,1,.6,1.27c-.15,1.36-.3,2.71-.36,4.07a1.2,1.2,0,0,0,.55.93c1.31.62,2.66,1.18,4,1.67a1.21,1.21,0,0,0,1-.3c.9-1,1.75-2,2.56-3.06a1.2,1.2,0,0,1,1.39-.53,22.79,22.79,0,0,0,9.27,0,1.18,1.18,0,0,1,1.32.49c.84,1.07,1.71,2.13,2.62,3.14a1.14,1.14,0,0,0,1,.3c1.4-.51,2.78-1.08,4.13-1.71a1.11,1.11,0,0,0,.49-.87c-.07-1.36-.22-2.71-.36-4.06a1.2,1.2,0,0,1,.56-1.3,25.68,25.68,0,0,0,6.66-6.61,1.48,1.48,0,0,1,1.09-.52c1.33,0,2.65.19,4,.34.55.06.92,0,1.14-.6.51-1.36,1.11-2.69,1.58-4.07a1.19,1.19,0,0,0-.28-1c-1-.9-2-1.73-3-2.56a1.08,1.08,0,0,1-.48-1.22c.25-1.18.33-2.4.49-3.65Zm-2.85,0H99.3a13.32,13.32,0,0,0,26.59,0Zm8.89-25.09a2.72,2.72,0,0,0,2.69,2.74,2.76,2.76,0,1,0,0-5.51A2.73,2.73,0,0,0,134.78,252.57Z"/><path class="cls-3" d="M76,509a9.59,9.59,0,0,1,1.1-2.55,23.31,23.31,0,0,1,3-2.57V472.22h20.81v-1c0-2.57,0-5.15,0-7.73a10.81,10.81,0,0,1,10.78-10.83c3,0,6.06-.12,9.06.16a10.63,10.63,0,0,1,9.3,10.46c0,2.93,0,5.86,0,8.9H150.9v38.6l-1.24,0H106v4.56l-10.16-5.88L106,503.62v4.47h42.17V474.92H82.82v29.36a5.37,5.37,0,1,1-6.62,6.27c0-.22-.12-.44-.18-.66Zm51.37-36.92c0-3.22.16-6.28,0-9.31a8.07,8.07,0,0,0-8.16-7.45c-2.49,0-5,0-7.46,0a8.18,8.18,0,0,0-8.14,8.15c0,2.6,0,5.21,0,7.82,0,.28,0,.56,0,.79ZM81.52,506.81a2.74,2.74,0,0,0-2.78,2.65,2.72,2.72,0,1,0,5.44,0A2.73,2.73,0,0,0,81.52,506.81Z"/><path class="cls-3" d="M116.57,435.37a9.12,9.12,0,0,1,4.44,2.39,7.6,7.6,0,0,1-6.9,12.71,7.61,7.61,0,0,1-.15-14.93,3.06,3.06,0,0,0,.48-.17Zm-1.1,12.53a5,5,0,0,0,5-4.87,5,5,0,1,0-9.9,0A4.94,4.94,0,0,0,115.47,447.9Z"/><path class="cls-3" d="M113.25,487.45H116v15.09h-2.72Z"/><path class="cls-3" d="M114.58,484.84a1.65,1.65,0,0,1-1.74-1.71,1.67,1.67,0,0,1,1.73-1.73,1.72,1.72,0,1,1,0,3.44Z"/></svg>