<svg id="Layer_1" data-name="Layer 1" xmlns="http://www.w3.org/2000/svg" width="100" height="100" viewBox="0 0 100 100"><title>automated-meter</title><path d="M6.46,54.88H0L7.9,41.55l7.9,13.31h-6c.43,2.08.68,4,1.25,5.88C16.24,77.71,27.68,88,45,91.52A43.58,43.58,0,0,0,90.42,71.73c13.47-21.88,4-50.44-20-60.57a44.14,44.14,0,0,0-53.19,15c-.63.87-1.32,1.46-2.43,1s-1.28-1.57-.48-2.73A46.11,46.11,0,0,1,25.59,13C50-4.28,84.89,5.36,96.46,32.62c9.62,22.68-1,48.76-24,58.94-24,10.62-52.37-.22-62.61-23.92A45.74,45.74,0,0,1,6.46,54.88Z"/><path d="M66.37,15.53,64.54,26.79q-2,12.47-4.05,24.93a3.3,3.3,0,0,1-.33,1L43.21,85.19c-.06.11-.1.22-.16.32a1.68,1.68,0,0,1-2.22.92,1.66,1.66,0,0,1-1-2.07c.56-3.38,1.1-6.76,1.65-10.14q2.15-13,4.29-26a3.25,3.25,0,0,1,.3-1Q54.47,31.09,62.91,15a3.25,3.25,0,0,1,1.46-1.45C65.47,13.09,66.44,14,66.37,15.53ZM45,73.87l.28.1,9-17.36a7.67,7.67,0,0,1-6.19-1.9ZM61.24,26,61,25.85c-3,5.78-6,11.56-9.14,17.53a7.64,7.64,0,0,1,6.19,1.9C59.15,38.72,60.19,32.34,61.24,26ZM49.58,50a3.5,3.5,0,0,0,3.52,3.51,3.49,3.49,0,1,0,0-7A3.51,3.51,0,0,0,49.58,50Z"/></svg>