<svg id="Layer_1" data-name="Layer 1" xmlns="http://www.w3.org/2000/svg" width="770.92" height="148.65" viewBox="0 0 770.92 148.65"><title>reduction-onboarding-time-new-user</title><path d="M5.2,99.69v14.83H3.29V99.69Z"/><path d="M8.7,106.75c0-1.1,0-2-.09-2.88H10.3l.09,1.72h.07a3.65,3.65,0,0,1,3.34-2,3.17,3.17,0,0,1,3,2.13h0a4.41,4.41,0,0,1,1.19-1.38,3.6,3.6,0,0,1,2.35-.75c1.41,0,3.5.92,3.5,4.62v6.27H22v-6c0-2-.75-3.28-2.31-3.28A2.52,2.52,0,0,0,17.41,107a3.19,3.19,0,0,0-.15,1v6.58h-1.9v-6.38c0-1.7-.74-2.93-2.22-2.93a2.65,2.65,0,0,0-2.4,1.94,2.61,2.61,0,0,0-.15.94v6.43H8.7Z"/><path d="M27.05,107.35c0-1.37-.05-2.47-.09-3.48H28.7l.08,1.83h0a4.17,4.17,0,0,1,3.78-2.07c2.58,0,4.51,2.18,4.51,5.41,0,3.83-2.33,5.72-4.84,5.72A3.73,3.73,0,0,1,29,113.09h0v5.79H27.05ZM29,110.19a4,4,0,0,0,.09.79,3,3,0,0,0,2.9,2.26c2.05,0,3.24-1.67,3.24-4.11,0-2.14-1.13-4-3.17-4a3.09,3.09,0,0,0-2.93,2.4,3.35,3.35,0,0,0-.13.79Z"/><path d="M39.56,107.19c0-1.25,0-2.33-.08-3.32h1.69l.07,2.09h.08a3.2,3.2,0,0,1,3-2.33,2.26,2.26,0,0,1,.55.06v1.83a3.11,3.11,0,0,0-.66-.07,2.72,2.72,0,0,0-2.59,2.49,4.8,4.8,0,0,0-.09.9v5.68H39.56Z"/><path d="M56.17,109.11c0,3.94-2.72,5.65-5.3,5.65-2.88,0-5.1-2.11-5.1-5.48,0-3.56,2.33-5.65,5.28-5.65S56.17,105.85,56.17,109.11Zm-8.45.11c0,2.33,1.35,4.09,3.24,4.09s3.23-1.74,3.23-4.14c0-1.8-.9-4.09-3.19-4.09S47.72,107.19,47.72,109.22Z"/><path d="M59.21,103.87l2.09,6a27.17,27.17,0,0,1,.86,2.72h.06c.24-.88.55-1.76.91-2.72l2.06-6h2L63,114.52H61.19l-4-10.65Z"/><path d="M69.9,109.55a3.41,3.41,0,0,0,3.65,3.69,7,7,0,0,0,3-.55l.33,1.39a8.59,8.59,0,0,1-3.54.66c-3.28,0-5.24-2.16-5.24-5.37s1.9-5.74,5-5.74c3.47,0,4.4,3.06,4.4,5a7.67,7.67,0,0,1-.07.91Zm5.68-1.39c0-1.23-.51-3.15-2.69-3.15-2,0-2.81,1.81-3,3.15Z"/><path d="M89,98.9v12.87c0,1,0,2,.09,2.75H87.39l-.09-1.85h0a3.93,3.93,0,0,1-3.63,2.09c-2.58,0-4.56-2.18-4.56-5.41,0-3.54,2.18-5.72,4.78-5.72a3.55,3.55,0,0,1,3.21,1.63h0V98.9Zm-1.93,9.3a3.72,3.72,0,0,0-.09-.81,2.85,2.85,0,0,0-2.8-2.24c-2,0-3.19,1.76-3.19,4.11,0,2.16,1.06,3.94,3.15,3.94A2.91,2.91,0,0,0,87,110.89a3.73,3.73,0,0,0,.09-.84Z"/><path d="M11.48,138.94a5.13,5.13,0,0,0,2.55.77c1.41,0,2.07-.7,2.07-1.59s-.55-1.43-2-2c-1.91-.69-2.82-1.74-2.82-3,0-1.71,1.39-3.12,3.68-3.12a5.36,5.36,0,0,1,2.62.66l-.49,1.41a4,4,0,0,0-2.17-.62c-1.15,0-1.79.66-1.79,1.45s.64,1.28,2,1.81C17,135.44,18,136.36,18,138c0,1.87-1.45,3.19-4,3.19a6.06,6.06,0,0,1-3-.73Z"/><path d="M21.54,136a3.4,3.4,0,0,0,3.65,3.69,7,7,0,0,0,2.95-.55l.33,1.39a8.64,8.64,0,0,1-3.55.66c-3.28,0-5.23-2.16-5.23-5.37s1.89-5.74,5-5.74c3.48,0,4.4,3.06,4.4,5A8.16,8.16,0,0,1,29,136Zm5.67-1.39c0-1.23-.5-3.15-2.68-3.15-2,0-2.82,1.81-3,3.15Z"/><path d="M39.07,140.52a7.05,7.05,0,0,1-3.06.62,5.06,5.06,0,0,1-5.3-5.44,5.41,5.41,0,0,1,5.72-5.65,6.54,6.54,0,0,1,2.68.55l-.44,1.5a4.39,4.39,0,0,0-2.24-.51c-2.44,0-3.76,1.8-3.76,4a3.65,3.65,0,0,0,3.69,4,5.55,5.55,0,0,0,2.38-.53Z"/><path d="M50.25,138c0,1.09,0,2.06.08,2.9H48.62l-.11-1.74h0a4,4,0,0,1-3.52,2c-1.67,0-3.67-.92-3.67-4.66v-6.23h1.94v5.9c0,2,.61,3.39,2.37,3.39a2.75,2.75,0,0,0,2.73-2.76v-6.53h1.94Z"/><path d="M53.46,133.59c0-1.25,0-2.33-.09-3.32h1.69l.07,2.09h.09a3.19,3.19,0,0,1,3-2.33,2.32,2.32,0,0,1,.55.06v1.83a3.18,3.18,0,0,0-.66-.07,2.72,2.72,0,0,0-2.6,2.49,5.82,5.82,0,0,0-.09.9v5.68H53.46Z"/><path d="M62.89,127.28a1.2,1.2,0,0,1-2.39,0,1.18,1.18,0,0,1,1.21-1.21A1.15,1.15,0,0,1,62.89,127.28Zm-2.15,13.64V130.27h1.93v10.65Z"/><path d="M68.22,127.21v3.06H71v1.47H68.22v5.75c0,1.32.37,2.07,1.45,2.07a4,4,0,0,0,1.12-.14l.09,1.46a4.82,4.82,0,0,1-1.71.26,2.7,2.7,0,0,1-2.1-.82,3.93,3.93,0,0,1-.74-2.77v-5.81H64.68v-1.47h1.65v-2.55Z"/><path d="M74.07,130.27l2.33,6.29c.24.71.51,1.54.68,2.18h0c.2-.64.42-1.45.68-2.22l2.11-6.25h2l-2.91,7.59c-1.38,3.65-2.33,5.52-3.65,6.67A5.29,5.29,0,0,1,73,145.78l-.49-1.63a5.13,5.13,0,0,0,1.7-.94,6,6,0,0,0,1.62-2.16,1.39,1.39,0,0,0,.16-.46,2,2,0,0,0-.13-.51L72,130.27Z"/><path d="M222.5,99.89a19.72,19.72,0,0,1,3.67-.31c2.05,0,3.37.37,4.3,1.21a3.72,3.72,0,0,1,1.16,2.82,3.9,3.9,0,0,1-2.79,3.78v.07c1.14.39,1.82,1.45,2.18,3a23,23,0,0,0,1.14,4.07h-2a19.79,19.79,0,0,1-1-3.54c-.44-2-1.23-2.82-3-2.89h-1.8v6.43H222.5Zm1.92,6.75h2c2,0,3.35-1.12,3.35-2.81,0-1.92-1.39-2.75-3.41-2.78a7.6,7.6,0,0,0-1.89.18Z"/><path d="M235.44,109.55a3.41,3.41,0,0,0,3.65,3.69,7,7,0,0,0,2.95-.55l.33,1.39a8.59,8.59,0,0,1-3.54.66c-3.28,0-5.24-2.16-5.24-5.37s1.89-5.74,5-5.74c3.48,0,4.4,3.06,4.4,5a8.16,8.16,0,0,1-.06.91Zm5.67-1.39c0-1.23-.5-3.15-2.68-3.15-2,0-2.82,1.81-3,3.15Z"/><path d="M254.58,98.9v12.87c0,1,0,2,.09,2.75h-1.74l-.09-1.85h-.05a3.93,3.93,0,0,1-3.63,2.09c-2.57,0-4.55-2.18-4.55-5.41,0-3.54,2.18-5.72,4.77-5.72a3.58,3.58,0,0,1,3.22,1.63h0V98.9Zm-1.94,9.3a3.2,3.2,0,0,0-.09-.81,2.84,2.84,0,0,0-2.79-2.24c-2,0-3.19,1.76-3.19,4.11,0,2.16,1.05,3.94,3.14,3.94a2.91,2.91,0,0,0,2.84-2.31,3.23,3.23,0,0,0,.09-.84Z"/><path d="M266.7,111.61c0,1.11,0,2.07.09,2.91h-1.72l-.11-1.74h0a4,4,0,0,1-3.52,2c-1.68,0-3.68-.92-3.68-4.66v-6.23h1.94v5.9c0,2,.61,3.38,2.37,3.38a2.82,2.82,0,0,0,2.56-1.75,2.87,2.87,0,0,0,.17-1v-6.53h1.94Z"/><path d="M277.5,114.12a7,7,0,0,1-3.06.62,5.06,5.06,0,0,1-5.3-5.44,5.41,5.41,0,0,1,5.72-5.65,6.5,6.5,0,0,1,2.68.55l-.43,1.5a4.46,4.46,0,0,0-2.25-.51c-2.44,0-3.76,1.8-3.76,4a3.65,3.65,0,0,0,3.69,4,5.55,5.55,0,0,0,2.38-.53Z"/><path d="M280.71,109.55a3.41,3.41,0,0,0,3.65,3.69,7,7,0,0,0,2.95-.55l.33,1.39a8.59,8.59,0,0,1-3.54.66c-3.28,0-5.24-2.16-5.24-5.37s1.9-5.74,5-5.74c3.47,0,4.4,3.06,4.4,5a7.67,7.67,0,0,1-.07.91Zm5.68-1.39c0-1.23-.51-3.15-2.69-3.15-1.95,0-2.81,1.81-3,3.15Z"/><path d="M299.85,98.9v12.87c0,1,0,2,.09,2.75H298.2l-.08-1.85h-.05a3.93,3.93,0,0,1-3.63,2.09c-2.57,0-4.55-2.18-4.55-5.41,0-3.54,2.17-5.72,4.77-5.72a3.55,3.55,0,0,1,3.21,1.63h.05V98.9Zm-1.93,9.3a3.2,3.2,0,0,0-.09-.81,2.85,2.85,0,0,0-2.79-2.24c-2,0-3.2,1.76-3.2,4.11,0,2.16,1.06,3.94,3.15,3.94a2.91,2.91,0,0,0,2.84-2.31,3.23,3.23,0,0,0,.09-.84Z"/><path d="M238.51,136a3.4,3.4,0,0,0,3.65,3.69,7,7,0,0,0,3-.55l.33,1.39a8.64,8.64,0,0,1-3.55.66c-3.27,0-5.23-2.16-5.23-5.37s1.89-5.74,5-5.74c3.48,0,4.4,3.06,4.4,5a8.16,8.16,0,0,1-.06.91Zm5.67-1.39c0-1.23-.5-3.15-2.68-3.15-2,0-2.82,1.81-3,3.15Z"/><path d="M255,140.92v-9.18h-4.47v9.18h-1.91v-9.18h-1.5v-1.47h1.5v-.35a5,5,0,0,1,1.18-3.63,3.64,3.64,0,0,1,2.69-1,3.35,3.35,0,0,1,1.52.37l-.4,1.43a2.82,2.82,0,0,0-1.14-.26c-1.52,0-1.94,1.3-1.94,3v.46H255v-.51a5,5,0,0,1,1.25-3.71,3.68,3.68,0,0,1,2.58-1,4.54,4.54,0,0,1,1.65.3l-.25,1.5a3,3,0,0,0-1.25-.24c-1.63,0-2.07,1.45-2.07,3.08v.57h2.58v1.47H257v9.18Z"/><path d="M270.63,135.51c0,3.93-2.73,5.65-5.31,5.65-2.88,0-5.1-2.11-5.1-5.48,0-3.56,2.33-5.65,5.28-5.65S270.63,132.25,270.63,135.51Zm-8.45.11c0,2.33,1.34,4.09,3.23,4.09s3.24-1.74,3.24-4.14c0-1.8-.91-4.09-3.19-4.09S262.18,133.59,262.18,135.62Z"/><path d="M273.07,133.59c0-1.25,0-2.33-.09-3.32h1.69l.07,2.09h.09a3.19,3.19,0,0,1,2.95-2.33,2.32,2.32,0,0,1,.55.06v1.83a3.18,3.18,0,0,0-.66-.07,2.72,2.72,0,0,0-2.6,2.49,5.82,5.82,0,0,0-.09.9v5.68h-1.91Z"/><path d="M283.12,127.21v3.06h2.77v1.47h-2.77v5.75c0,1.32.38,2.07,1.45,2.07a4.17,4.17,0,0,0,1.13-.14l.08,1.46a4.78,4.78,0,0,1-1.71.26,2.68,2.68,0,0,1-2.09-.82,3.93,3.93,0,0,1-.75-2.77v-5.81h-1.65v-1.47h1.65v-2.55Z"/><path d="M437.48,99.89a19.83,19.83,0,0,1,3.68-.31c2,0,3.37.37,4.29,1.21a3.69,3.69,0,0,1,1.17,2.82,3.9,3.9,0,0,1-2.8,3.78v.07c1.15.39,1.83,1.45,2.18,3a24,24,0,0,0,1.14,4.07h-2a19.79,19.79,0,0,1-1-3.54c-.44-2-1.23-2.82-3-2.89h-1.8v6.43h-1.92Zm1.92,6.75h2c2,0,3.34-1.12,3.34-2.81,0-1.92-1.38-2.75-3.41-2.78a7.72,7.72,0,0,0-1.89.18Z"/><path d="M450.42,109.55a3.41,3.41,0,0,0,3.65,3.69,7,7,0,0,0,2.95-.55l.33,1.39a8.59,8.59,0,0,1-3.54.66c-3.28,0-5.24-2.16-5.24-5.37s1.89-5.74,5-5.74c3.47,0,4.4,3.06,4.4,5a7.67,7.67,0,0,1-.07.91Zm5.68-1.39c0-1.23-.51-3.15-2.69-3.15-2,0-2.81,1.81-3,3.15Z"/><path d="M469.56,98.9v12.87c0,1,0,2,.09,2.75h-1.74l-.09-1.85h0a3.94,3.94,0,0,1-3.63,2.09c-2.58,0-4.56-2.18-4.56-5.41,0-3.54,2.18-5.72,4.78-5.72a3.55,3.55,0,0,1,3.21,1.63h.05V98.9Zm-1.93,9.3a3.72,3.72,0,0,0-.09-.81,2.85,2.85,0,0,0-2.8-2.24c-2,0-3.19,1.76-3.19,4.11,0,2.16,1.06,3.94,3.15,3.94a2.92,2.92,0,0,0,2.84-2.31,3.73,3.73,0,0,0,.09-.84Z"/><path d="M481.68,111.61c0,1.11,0,2.07.09,2.91h-1.71l-.11-1.74h-.05a4,4,0,0,1-3.52,2c-1.67,0-3.67-.92-3.67-4.66v-6.23h1.93v5.9c0,2,.62,3.38,2.38,3.38a2.8,2.8,0,0,0,2.55-1.75,2.87,2.87,0,0,0,.18-1v-6.53h1.93Z"/><path d="M492.49,114.12a7.05,7.05,0,0,1-3.06.62,5.06,5.06,0,0,1-5.31-5.44,5.41,5.41,0,0,1,5.72-5.65,6.55,6.55,0,0,1,2.69.55l-.44,1.5a4.43,4.43,0,0,0-2.25-.51c-2.44,0-3.76,1.8-3.76,4a3.66,3.66,0,0,0,3.7,4,5.55,5.55,0,0,0,2.38-.53Z"/><path d="M495.7,109.55a3.41,3.41,0,0,0,3.65,3.69,7,7,0,0,0,2.95-.55l.33,1.39a8.61,8.61,0,0,1-3.55.66c-3.27,0-5.23-2.16-5.23-5.37s1.89-5.74,5-5.74c3.48,0,4.4,3.06,4.4,5a8.16,8.16,0,0,1-.06.91Zm5.67-1.39c0-1.23-.5-3.15-2.68-3.15-2,0-2.82,1.81-3,3.15Z"/><path d="M514.84,98.9v12.87c0,1,0,2,.09,2.75h-1.74l-.09-1.85h0a4,4,0,0,1-3.64,2.09c-2.57,0-4.55-2.18-4.55-5.41,0-3.54,2.18-5.72,4.77-5.72a3.58,3.58,0,0,1,3.22,1.63h0V98.9Zm-1.94,9.3a3.2,3.2,0,0,0-.09-.81,2.84,2.84,0,0,0-2.79-2.24c-2,0-3.19,1.76-3.19,4.11,0,2.16,1.05,3.94,3.14,3.94a2.91,2.91,0,0,0,2.84-2.31,3.23,3.23,0,0,0,.09-.84Z"/><path d="M466.43,140.52a7.05,7.05,0,0,1-3.06.62,5.06,5.06,0,0,1-5.3-5.44,5.41,5.41,0,0,1,5.72-5.65,6.54,6.54,0,0,1,2.68.55l-.44,1.5a4.41,4.41,0,0,0-2.24-.51c-2.45,0-3.77,1.8-3.77,4a3.66,3.66,0,0,0,3.7,4,5.55,5.55,0,0,0,2.38-.53Z"/><path d="M478.2,135.51c0,3.93-2.73,5.65-5.31,5.65-2.88,0-5.1-2.11-5.1-5.48,0-3.56,2.33-5.65,5.28-5.65S478.2,132.25,478.2,135.51Zm-8.45.11c0,2.33,1.34,4.09,3.23,4.09s3.24-1.74,3.24-4.14c0-1.8-.91-4.09-3.19-4.09S469.75,133.59,469.75,135.62Z"/><path d="M480.37,138.94a5.16,5.16,0,0,0,2.56.77c1.4,0,2.06-.7,2.06-1.59s-.55-1.43-2-2c-1.91-.69-2.81-1.74-2.81-3,0-1.71,1.38-3.12,3.67-3.12a5.33,5.33,0,0,1,2.62.66L486,132.1a4.1,4.1,0,0,0-2.18-.62c-1.15,0-1.78.66-1.78,1.45s.63,1.28,2,1.81c1.85.7,2.79,1.62,2.79,3.21,0,1.87-1.45,3.19-4,3.19a6.09,6.09,0,0,1-3-.73Z"/><path d="M491.68,127.21v3.06h2.77v1.47h-2.77v5.75c0,1.32.38,2.07,1.45,2.07a4.17,4.17,0,0,0,1.13-.14l.08,1.46a4.78,4.78,0,0,1-1.71.26,2.68,2.68,0,0,1-2.09-.82,3.93,3.93,0,0,1-.75-2.77v-5.81h-1.65v-1.47h1.65v-2.55Z"/><path d="M647.15,99.89a19.83,19.83,0,0,1,3.68-.31c2,0,3.36.37,4.29,1.21a3.68,3.68,0,0,1,1.16,2.82,3.9,3.9,0,0,1-2.79,3.78v.07c1.14.39,1.83,1.45,2.18,3a23,23,0,0,0,1.14,4.07h-2a19.79,19.79,0,0,1-1-3.54c-.44-2-1.23-2.82-3-2.89h-1.8v6.43h-1.92Zm1.92,6.75h2c2,0,3.34-1.12,3.34-2.81,0-1.92-1.39-2.75-3.41-2.78a7.72,7.72,0,0,0-1.89.18Z"/><path d="M660.09,109.55a3.41,3.41,0,0,0,3.65,3.69,7,7,0,0,0,3-.55l.33,1.39a8.59,8.59,0,0,1-3.54.66c-3.28,0-5.24-2.16-5.24-5.37s1.89-5.74,5-5.74c3.47,0,4.4,3.06,4.4,5a7.67,7.67,0,0,1-.07.91Zm5.68-1.39c0-1.23-.51-3.15-2.69-3.15-2,0-2.82,1.81-3,3.15Z"/><path d="M679.23,98.9v12.87c0,1,0,2,.09,2.75h-1.74l-.09-1.85h0a4,4,0,0,1-3.63,2.09c-2.58,0-4.56-2.18-4.56-5.41,0-3.54,2.18-5.72,4.78-5.72a3.56,3.56,0,0,1,3.21,1.63h0V98.9Zm-1.94,9.3a3.71,3.71,0,0,0-.08-.81,2.86,2.86,0,0,0-2.8-2.24c-2,0-3.19,1.76-3.19,4.11,0,2.16,1.06,3.94,3.15,3.94a2.92,2.92,0,0,0,2.84-2.31,3.74,3.74,0,0,0,.08-.84Z"/><path d="M691.35,111.61c0,1.11,0,2.07.09,2.91h-1.72l-.11-1.74h0a4,4,0,0,1-3.52,2c-1.67,0-3.68-.92-3.68-4.66v-6.23h1.94v5.9c0,2,.62,3.38,2.38,3.38a2.8,2.8,0,0,0,2.55-1.75,2.87,2.87,0,0,0,.18-1v-6.53h1.93Z"/><path d="M702.15,114.12a7,7,0,0,1-3.06.62,5.06,5.06,0,0,1-5.3-5.44,5.41,5.41,0,0,1,5.72-5.65,6.55,6.55,0,0,1,2.69.55l-.44,1.5a4.46,4.46,0,0,0-2.25-.51c-2.44,0-3.76,1.8-3.76,4a3.65,3.65,0,0,0,3.7,4,5.49,5.49,0,0,0,2.37-.53Z"/><path d="M705.36,109.55a3.42,3.42,0,0,0,3.66,3.69,6.93,6.93,0,0,0,2.94-.55l.33,1.39a8.55,8.55,0,0,1-3.54.66c-3.28,0-5.23-2.16-5.23-5.37s1.89-5.74,5-5.74c3.48,0,4.4,3.06,4.4,5a6,6,0,0,1-.07.91Zm5.68-1.39c0-1.23-.5-3.15-2.68-3.15-2,0-2.82,1.81-3,3.15Z"/><path d="M724.51,98.9v12.87c0,1,0,2,.08,2.75h-1.73l-.09-1.85h0a3.93,3.93,0,0,1-3.63,2.09c-2.57,0-4.55-2.18-4.55-5.41,0-3.54,2.18-5.72,4.77-5.72a3.58,3.58,0,0,1,3.22,1.63h0V98.9Zm-1.94,9.3a3.2,3.2,0,0,0-.09-.81,2.84,2.84,0,0,0-2.79-2.24c-2,0-3.19,1.76-3.19,4.11,0,2.16,1,3.94,3.14,3.94a2.91,2.91,0,0,0,2.84-2.31,3.23,3.23,0,0,0,.09-.84Z"/><path d="M621.88,135.51c0,3.93-2.73,5.65-5.31,5.65-2.88,0-5.1-2.11-5.1-5.48,0-3.56,2.33-5.65,5.28-5.65S621.88,132.25,621.88,135.51Zm-8.45.11c0,2.33,1.34,4.09,3.23,4.09s3.24-1.74,3.24-4.14c0-1.8-.91-4.09-3.19-4.09S613.43,133.59,613.43,135.62Z"/><path d="M624.32,133.15c0-1.1,0-2-.09-2.88H626l.11,1.76h0a3.92,3.92,0,0,1,3.52-2c1.47,0,3.76.88,3.76,4.53v6.36h-1.93v-6.14c0-1.72-.64-3.15-2.47-3.15a2.76,2.76,0,0,0-2.59,2,2.81,2.81,0,0,0-.14.91v6.4h-1.93Z"/><path d="M636.44,140.92c0-.73.09-1.81.09-2.75V125.3h1.91V132h0a4,4,0,0,1,3.63-2c2.64,0,4.51,2.2,4.48,5.43,0,3.81-2.39,5.7-4.77,5.7a3.78,3.78,0,0,1-3.56-2h-.07l-.09,1.76Zm2-4.27a4.18,4.18,0,0,0,.09.71,3,3,0,0,0,2.9,2.26c2,0,3.24-1.65,3.24-4.09,0-2.14-1.1-4-3.17-4a3.09,3.09,0,0,0-3,2.37,4.17,4.17,0,0,0-.11.8Z"/><path d="M658.68,135.51c0,3.93-2.73,5.65-5.3,5.65-2.88,0-5.11-2.11-5.11-5.48,0-3.56,2.34-5.65,5.29-5.65S658.68,132.25,658.68,135.51Zm-8.45.11c0,2.33,1.35,4.09,3.24,4.09s3.23-1.74,3.23-4.14c0-1.8-.9-4.09-3.19-4.09S650.23,133.59,650.23,135.62Z"/><path d="M667,140.92l-.15-1.34h-.07a4,4,0,0,1-3.26,1.58,3,3,0,0,1-3.25-3.06c0-2.57,2.29-4,6.4-4v-.22a2.19,2.19,0,0,0-2.42-2.46,5.34,5.34,0,0,0-2.77.79l-.44-1.28a6.61,6.61,0,0,1,3.5-.94c3.25,0,4,2.22,4,4.35v4a15.21,15.21,0,0,0,.18,2.55Zm-.29-5.44c-2.11,0-4.51.33-4.51,2.4a1.71,1.71,0,0,0,1.83,1.85,2.63,2.63,0,0,0,2.57-1.78,1.93,1.93,0,0,0,.11-.62Z"/><path d="M671.73,133.59c0-1.25,0-2.33-.09-3.32h1.69l.07,2.09h.09a3.19,3.19,0,0,1,2.94-2.33,2.34,2.34,0,0,1,.56.06v1.83a3.18,3.18,0,0,0-.66-.07,2.72,2.72,0,0,0-2.6,2.49,4.8,4.8,0,0,0-.09.9v5.68h-1.91Z"/><path d="M687.9,125.3v12.87c0,.94,0,2,.09,2.75h-1.74l-.09-1.85h0a4,4,0,0,1-3.64,2.09c-2.57,0-4.55-2.18-4.55-5.41,0-3.54,2.18-5.72,4.77-5.72a3.58,3.58,0,0,1,3.22,1.63h0V125.3ZM686,134.6a3.2,3.2,0,0,0-.09-.81,2.84,2.84,0,0,0-2.79-2.24c-2,0-3.19,1.76-3.19,4.11,0,2.16,1.05,3.94,3.14,3.94a2.91,2.91,0,0,0,2.84-2.31,3.18,3.18,0,0,0,.09-.84Z"/><path d="M693.26,127.28a1.2,1.2,0,0,1-2.39,0,1.18,1.18,0,0,1,1.21-1.21A1.15,1.15,0,0,1,693.26,127.28Zm-2.15,13.64V130.27H693v10.65Z"/><path d="M696.26,133.15c0-1.1,0-2-.09-2.88h1.71L698,132h0a3.92,3.92,0,0,1,3.52-2c1.47,0,3.76.88,3.76,4.53v6.36h-1.94v-6.14c0-1.72-.63-3.15-2.46-3.15a2.76,2.76,0,0,0-2.6,2,3.12,3.12,0,0,0-.13.91v6.4h-1.93Z"/><path d="M717.64,130.27c0,.77-.09,1.63-.09,2.93v6.18c0,2.44-.48,3.94-1.51,4.86a5.67,5.67,0,0,1-3.88,1.28,6.91,6.91,0,0,1-3.54-.88l.48-1.48a6,6,0,0,0,3.13.84c2,0,3.43-1,3.43-3.72v-1.19h0a3.82,3.82,0,0,1-3.39,1.79c-2.64,0-4.53-2.25-4.53-5.2,0-3.61,2.35-5.65,4.79-5.65a3.53,3.53,0,0,1,3.32,1.85h.05l.09-1.61Zm-2,4.2a2.72,2.72,0,0,0-.11-.88,2.79,2.79,0,0,0-2.71-2c-1.85,0-3.17,1.56-3.17,4,0,2.09,1.06,3.83,3.15,3.83a2.82,2.82,0,0,0,2.68-2,3.35,3.35,0,0,0,.16-1Z"/><path d="M727.76,127.21v3.06h2.77v1.47h-2.77v5.75c0,1.32.37,2.07,1.45,2.07a4,4,0,0,0,1.12-.14l.09,1.46a4.82,4.82,0,0,1-1.71.26,2.66,2.66,0,0,1-2.09-.82,3.93,3.93,0,0,1-.75-2.77v-5.81h-1.65v-1.47h1.65v-2.55Z"/><path d="M734.87,127.28a1.2,1.2,0,0,1-2.4,0,1.18,1.18,0,0,1,1.21-1.21A1.16,1.16,0,0,1,734.87,127.28Zm-2.16,13.64V130.27h1.94v10.65Z"/><path d="M737.86,133.15c0-1.1,0-2-.09-2.88h1.69l.09,1.72h.07a3.65,3.65,0,0,1,3.34-2,3.17,3.17,0,0,1,3,2.13h0a4.41,4.41,0,0,1,1.19-1.38,3.6,3.6,0,0,1,2.35-.75c1.41,0,3.5.92,3.5,4.62v6.27h-1.89v-6c0-2-.75-3.28-2.31-3.28a2.52,2.52,0,0,0-2.29,1.76,3.19,3.19,0,0,0-.15,1v6.58h-1.9v-6.38c0-1.7-.74-2.93-2.22-2.93a2.65,2.65,0,0,0-2.4,1.94,2.61,2.61,0,0,0-.15.94v6.43h-1.89Z"/><path d="M757.28,136a3.41,3.41,0,0,0,3.66,3.69,6.93,6.93,0,0,0,2.94-.55l.33,1.39a8.55,8.55,0,0,1-3.54.66c-3.28,0-5.24-2.16-5.24-5.37s1.9-5.74,5-5.74c3.48,0,4.4,3.06,4.4,5a6,6,0,0,1-.07.91Zm5.68-1.39c0-1.23-.51-3.15-2.68-3.15-2,0-2.82,1.81-3,3.15Z"/><path d="M452,64.08V7.89c0-1.78.33-2.12,2.08-2.12H497.4c1.74,0,2.06.32,2.06,2V64c.44,0,.78,0,1.13,0,2.83,0,5.66,0,8.49,0,.85,0,1.61.13,1.83,1.09s-.35,1.36-1.06,1.75q-16.52,9.25-33,18.53a2.08,2.08,0,0,1-2.27,0q-16.49-9.29-33-18.52c-.71-.4-1.26-.88-1.05-1.76s1-1.08,1.83-1.08C445.52,64.09,448.67,64.08,452,64.08Zm51.84,3-.05-.2h-4.92c-1.74,0-2.11-.38-2.11-2.12V8.62h-42V64.75c0,1.74-.39,2.13-2.13,2.13h-4.92a2,2,0,0,0,.75.65q13.19,7.41,26.36,14.82a1.64,1.64,0,0,0,1.85,0c8-4.55,16.1-9,24.15-13.57Z"/><path d="M481.58,33.13l-.87,2.54a9,9,0,0,0-4.88-1c-2.18.2-3.54,1.67-3.37,3.62a3,3,0,0,0,1.59,2.44c.86.52,1.79.9,2.7,1.35s1.84.82,2.7,1.33a5.61,5.61,0,0,1,2.92,5.64,5.82,5.82,0,0,1-4,5.2c-.4.16-.8.28-1.24.44v5.95h5l-6.43,11.16-6.41-11.09h4.94c0-1.87,0-3.64,0-5.41,0-.17-.49-.39-.78-.47-1.19-.32-2.4-.57-3.59-.89-.67-.18-.94-.58-.6-1.3a14.67,14.67,0,0,0,.49-1.57,10.13,10.13,0,0,0,5.91,1.38,3.74,3.74,0,0,0,3.68-3.16A3.24,3.24,0,0,0,478.07,46a21.87,21.87,0,0,0-2.83-1.51c-1-.48-2-.84-2.89-1.4a5.35,5.35,0,0,1-2.78-5.58,5.42,5.42,0,0,1,3.74-4.59,1.29,1.29,0,0,0,1-1.54,22.26,22.26,0,0,1,0-2.83,1,1,0,0,0-.75-1.14,5.5,5.5,0,0,1-3.42-5.6,5.57,5.57,0,0,1,10.34-2.4,5.45,5.45,0,0,1-.6,6.52,15.49,15.49,0,0,1-2.19,1.58,1.43,1.43,0,0,0-.56.83c-.07,1.07,0,2.14,0,3.22,0,.59.21.74.78.82C479.09,32.52,480.27,32.84,481.58,33.13Zm-5.83-13.69a2.82,2.82,0,0,0-2.86,2.74,2.89,2.89,0,0,0,2.85,2.87,2.83,2.83,0,0,0,2.78-2.82A2.76,2.76,0,0,0,475.75,19.44Z"/><path d="M49.43,5.42a3.52,3.52,0,0,0,.4.18,5.22,5.22,0,0,1,2.85,8.13c-.08.12-.16.25-.35.52,1.22,1,2.38,2,3.64,2.91a42.16,42.16,0,0,0,17.8,7.08c1.25.21,2.51.35,3.76.52.91.12,1.25.48,1.25,1.43,0,12,.17,24-.07,36-.11,5.49-3.19,9.6-8,12.19s-9.69,5-14.55,7.43c-2.41,1.22-4.84,2.41-7.26,3.61H48c-1.28-.65-2.55-1.31-3.83-2-6.07-3.07-12.22-6-18.18-9.24A14.46,14.46,0,0,1,18.1,60.86c0-5,0-10,0-14.92V44.88H13.42V44.7q2.73-4.64,5.45-9.26c.17-.28.35-.55.59-.92l5.91,10.35H20.69V60.72A12,12,0,0,0,27.28,72c6.8,3.63,13.75,7,20.66,10.39a1.31,1.31,0,0,0,1.06,0C55.77,79,62.54,75.64,69.27,72.2a12.59,12.59,0,0,0,6.85-9.44,6.57,6.57,0,0,0,.1-1.08V28c0-.23,0-.47,0-.72-2-.36-3.88-.64-5.78-1.07-7.11-1.59-13.62-4.43-19.06-9.4-.82-.76-1.54-1.4-2.73-.95a.39.39,0,0,1-.26,0c-1.39-.56-2.17.35-3.08,1.16a40.22,40.22,0,0,1-18,9c-2.31.55-4.68.85-7,1.26a4.36,4.36,0,0,1-.72,0,1.27,1.27,0,0,1-1.43-1.19,1.31,1.31,0,0,1,1.23-1.39c2.9-.52,5.85-.9,8.69-1.64a36.76,36.76,0,0,0,15.89-8.43c.13-.12.27-.24.39-.37s.07-.1,0,0a17.72,17.72,0,0,1-1-3.35A5,5,0,0,1,47.06,5.6a2.64,2.64,0,0,0,.38-.18Zm1.63,5.22A2.62,2.62,0,0,0,48.43,8a2.65,2.65,0,0,0,0,5.29A2.62,2.62,0,0,0,51.06,10.64Z"/><path d="M657.24,78.88l9.83-5.6,1.27-.71v5c1.24,0,2.41,0,3.58,0,.21,0,.43-.23.62-.39a30.82,30.82,0,0,1,17.52-7.8,26.37,26.37,0,0,1,16.71,4.27c.7.44,1.38.9,2.2,1.42,0-1,0-1.88,0-2.76-.06-4.39-.16-8.78-.17-13.17a10.12,10.12,0,0,0-1.53-5.27A18.38,18.38,0,0,0,694,44.72,15.33,15.33,0,0,0,684,46.79c-3.84,2.12-6.91,5-8.56,9.13-.09.23-.16.48-.25.76a6.7,6.7,0,0,1,3.49,5.23,6.58,6.58,0,1,1-13.11,1.14A6.62,6.62,0,0,1,671.76,56a1.14,1.14,0,0,0,.84-.49c2-5.65,6.16-9.3,11.44-11.83l.94-.46a23.34,23.34,0,0,1-7.53-4.88c-2.65-2.59-4.69-5.58-5.24-9.29A49.13,49.13,0,0,1,672,22.6c-.08-4.48-.13-9-.2-13.45,0-.28,0-.56-.06-.92h-6.25V5.42H718.2V8.24h-6.34l0,.61c-.08,5.89-.13,11.79-.28,17.68a15.24,15.24,0,0,1-.63,4.42c-1.9,5.56-6,9.09-11.11,11.61l-1.1.54.9.42a22.87,22.87,0,0,1,8,6,15.54,15.54,0,0,1,4,10.61c-.1,4.84.1,9.68.16,14.51,0,1,0,1.9,0,3h6.41v2.75H668.39v5.08h-.19c-2.18-1.3-4.36-2.62-6.55-3.9-1.45-.84-2.94-1.63-4.41-2.45ZM709,8.27H674.64c0,.28-.06.5-.06.71.06,5.45.11,10.89.2,16.33a19.53,19.53,0,0,0,.3,3.91,14.24,14.24,0,0,0,4.69,7.54c3.26,2.93,7,5,11.46,5,6.7-.06,11.83-3.29,15.64-8.69a10.39,10.39,0,0,0,2-6.21c0-3.71.11-7.42.14-11.14C709,13.25,709,10.82,709,8.27Zm-32.42,69.2h30.89C697.52,69.94,686.08,70.31,676.55,77.47Zm-.63-14.91a3.81,3.81,0,1,0-7.62,0,3.81,3.81,0,1,0,7.62,0Z"/><path d="M701.85,31.58A2.65,2.65,0,0,0,699,34.36,1.36,1.36,0,0,1,698,36c-.56.22-1.1.53-1.66.74-1.74.66-1.73.64-3-.69a1.9,1.9,0,0,0-.9-.36c-.24,0-.53.09-.76,0a1.65,1.65,0,0,0-2,.9,1,1,0,0,1-1.51.48c-1-.42-1.94-.82-2.92-1.22a1,1,0,0,1-.7-1.34c.45-1.54-.82-2.16-1.64-2.93-.29-.27-1,0-1.57-.07a1.35,1.35,0,0,1-1-.51c-.53-1.08-.94-2.23-1.41-3.34-.23-.55,0-.86.41-1.21a2.42,2.42,0,0,0,0-4,1,1,0,0,1-.39-1.3c.42-1,.86-2.06,1.25-3.1.25-.69.71-.78,1.36-.71a2.57,2.57,0,0,0,2.91-2.83A1.28,1.28,0,0,1,685.4,13c.6-.24,1.15-.57,1.75-.79,1.75-.67,1.73-.64,3,.69a2.32,2.32,0,0,0,1.17.38,2.41,2.41,0,0,0,2.74-1.2,1,1,0,0,1,.94-.26c1.12.38,2.19.89,3.29,1.3a1,1,0,0,1,.62,1.39c-.46,1.59,1,2,1.7,2.91.17.2.86,0,1.29,0a1,1,0,0,1,1.29.66c.29.74.64,1.46,1,2.19.49,1.08.61,2-.64,2.74-.69.41-.6,2.75.12,3.17,1.09.65,1,1.45.6,2.41-.3.67-.59,1.35-.86,2S702.66,31.92,701.85,31.58ZM683.4,28.67c.63-.25,1,.16,1.39.69a8.87,8.87,0,0,0,1.88,1.89,1.59,1.59,0,0,1,.81,1.81c-.06.3.17.66.28,1,.3-.17.7-.28.88-.53a1.52,1.52,0,0,1,1.78-.68,7.05,7.05,0,0,0,2.67,0,1.46,1.46,0,0,1,1.71.61c.21.28.62.4.94.6a3.09,3.09,0,0,0,.27-1.17,1.35,1.35,0,0,1,.66-1.5,11.47,11.47,0,0,0,2-2,1.4,1.4,0,0,1,1.48-.72,3.42,3.42,0,0,0,1.18-.25,3.38,3.38,0,0,0-.62-1,1.36,1.36,0,0,1-.56-1.56,7.88,7.88,0,0,0,0-2.47,1.6,1.6,0,0,1,.68-1.88c.25-.16.32-.58.47-.88-.32-.1-.68-.32-1-.25a1.47,1.47,0,0,1-1.73-.76,7,7,0,0,0-1.81-1.83,1.63,1.63,0,0,1-.83-1.88c.06-.28-.21-.63-.32-.94-.28.15-.66.24-.8.48a1.62,1.62,0,0,1-2,.7,4.6,4.6,0,0,0-1.81-.06c-1.11.23-2.06.28-2.68-.9-.07-.14-.43-.22-.62-.17a.6.6,0,0,0-.32.47c.46,1.39-.41,2.08-1.39,2.75a3.27,3.27,0,0,0-.92,1c-.56.95-1.22,1.51-2.4,1.12a.64.64,0,0,0-.56.3.67.67,0,0,0,.12.64,2,2,0,0,1,.93,2.58,2.89,2.89,0,0,0,0,1.43,1.9,1.9,0,0,1-.9,2.5.68.68,0,0,0-.18.63c.07.17.38.26.6.32A2.54,2.54,0,0,0,683.4,28.67Z"/><path d="M691.73,17.7a6.82,6.82,0,0,1,6.9,6.78,6.87,6.87,0,0,1-13.74,0A6.79,6.79,0,0,1,691.73,17.7Zm0,10.83a4.07,4.07,0,0,0,4.1-4.06,4.15,4.15,0,0,0-4.15-4,4.21,4.21,0,0,0-4.07,4A4.11,4.11,0,0,0,691.75,28.53Z"/><path d="M284.15,63.3c-.08-4.36.12-8.74-.13-13.12-5.08.48-8-4-6-8.28L262.59,33V63.35A11.15,11.15,0,0,1,271,69.24a10.52,10.52,0,0,1,1,7.34,11.07,11.07,0,0,1-11.47,8.83,11.11,11.11,0,0,1-.83-22.12V32.94l-15.26,8.84c2.21,4.8-1.43,9.06-6.17,8.37V63.37a11.13,11.13,0,0,1,8.07,5.41,10.8,10.8,0,0,1,1.31,7.74,11.13,11.13,0,1,1-12.31-13.2v-1c0-3,0-5.92,0-8.88,0-1.33.24-2.66.31-4a1.77,1.77,0,0,0-.32-1.13,5.55,5.55,0,0,1,6.33-8.78,1.23,1.23,0,0,0,1.28-.09q8-4.65,16-9.26a1.39,1.39,0,0,0,.81-1.39c0-3.8,0-7.6,0-11.39,0-.31,0-.61,0-1h-5l6.42-11,6.38,11h-5v1c0,3.83,0,7.66,0,11.49a1.23,1.23,0,0,0,.7,1.26c5.42,3.12,10.82,6.27,16.24,9.38a1.62,1.62,0,0,0,1.26,0,5.67,5.67,0,0,1,6.8,2,5.57,5.57,0,0,1-.54,7,1.38,1.38,0,0,0-.39.86c.09,2.64.26,5.28.34,7.92.05,2,0,4,0,6a11.24,11.24,0,0,1,8.47,5.92,10.66,10.66,0,0,1,1,7.43A11.14,11.14,0,1,1,284.15,63.3Zm-23,19.38a8.34,8.34,0,1,0-8.38-8.37A8.37,8.37,0,0,0,261.12,82.68Zm-24.36,0a8.34,8.34,0,1,0-8.37-8.34A8.33,8.33,0,0,0,236.76,82.68Zm57.12-8.32a8.37,8.37,0,1,0-8.38,8.32A8.38,8.38,0,0,0,293.88,74.36Zm-11-32.51a2.82,2.82,0,1,0-.07,5.64,2.82,2.82,0,1,0,.07-5.64Zm-43.36,5.64a2.82,2.82,0,1,0,.1-5.64,2.82,2.82,0,1,0-.1,5.64Z"/></svg>