<svg id="Layer_1" data-name="Layer 1" xmlns="http://www.w3.org/2000/svg" width="100" height="100" viewBox="0 0 100 100"><title>Business process optimization</title><path d="M97.6,49.47H84.5V46h9.25a42.11,42.11,0,0,0-2.92-13.75L80.46,36l-1.3-3.38,10.16-3.76a42.59,42.59,0,0,0-7.87-11.19l-6,6.54L73,21.52l6-6.15A44.68,44.68,0,0,0,67,7.71c-1.09,2.8-2.17,5.55-3.28,8.39l-3.44-1.26,3.23-8.45A42.43,42.43,0,0,0,50.78,4.05v8.78H47.1V4.05a42.78,42.78,0,0,0-13,2.4l3.22,8.38-3.44,1.29-3.25-8.3a43.92,43.92,0,0,0-11.69,7.42l5.92,6.17L22.2,24.15l-5.9-6.36A43.48,43.48,0,0,0,8.45,28.92l10,3.71L17.16,36,7,32.3A41,41,0,0,0,4.1,45.94h9.06v3.49H.17c.18-16.1,6.08-29.6,19.17-39.13C36.4-2.12,54.84-3.37,73.25,6.89,89.59,16,97.37,30.65,97.6,49.47Z"/><path d="M39.29,53c0-.87,0-1.57,0-2.28A4.76,4.76,0,0,1,44,46c3.61-.06,7.23-.06,10.84,0a4.69,4.69,0,0,1,4.66,4.67c0,.71,0,1.42,0,2.28.48,0,.88.08,1.28.08,1.47,0,2.94,0,4.41,0a5.5,5.5,0,0,1,5.54,5.54q.09,8.45,0,16.89a5.47,5.47,0,0,1-4.94,5.46,10.93,10.93,0,0,1-1.51.09Q49.4,81,34.53,81A9.44,9.44,0,0,1,32,80.68a5.36,5.36,0,0,1-3.91-5.27c0-5.63,0-11.26,0-16.89A5.43,5.43,0,0,1,33.54,53C35.41,53,37.3,53,39.29,53ZM49.37,77.32h15c2,0,2.65-.61,2.65-2.61Q67,67,67,59.33c0-2.1-.61-2.73-2.68-2.73H34.46c-2,0-2.67.65-2.67,2.63q0,7.76,0,15.51c0,1.93.65,2.57,2.57,2.58ZM43.07,52.8H55.79c0-.34.05-.58.06-.83,0-2.19-.2-2.43-2.42-2.43h-8C43.12,49.54,43,49.7,43,52,43,52.24,43.05,52.48,43.07,52.8Z"/><path d="M71.3,89.08c-.86-3.25-.23-6,2.3-8.09a7.53,7.53,0,0,1,8.4-.91,1.13,1.13,0,0,0,1-.16,43,43,0,0,0,7.25-10.57l-6.18-2.11L96.59,56.49c1.09,5.39,2.15,10.58,3.24,16l-5.57-1.82L87,81.09a2.37,2.37,0,0,1-.41.48,2.63,2.63,0,0,0-.86,3.33,7,7,0,0,1-2.79,7.66,7.55,7.55,0,0,1-8.53.22,1.74,1.74,0,0,0-2.12-.08A48.46,48.46,0,0,1,56,97.89l-.54-3.56A47.28,47.28,0,0,0,71.3,89.08Zm7.12-6.26a3.8,3.8,0,1,0,0,7.59,3.8,3.8,0,1,0,0-7.59Z"/><path d="M25.79,100l2.08-6.1c-2.66-1.63-5.33-3.06-7.77-4.82a75.43,75.43,0,0,1-6.43-5.46,1.78,1.78,0,0,0-2-.49,7.46,7.46,0,0,1-8.28-3.07A7.14,7.14,0,0,1,4,71.4a1.22,1.22,0,0,0,.15-1.55A47.14,47.14,0,0,1,.17,56.64l3.62-.55A45.88,45.88,0,0,0,7.73,68.87c3.56-.61,6.56.3,8.49,3.48,1.64,2.71,1.35,5.46-.46,8.2a45.11,45.11,0,0,0,13.37,9.66l2-5.64L42.08,96.82ZM13.58,76.09a3.76,3.76,0,0,0-3.8-3.84A3.79,3.79,0,0,0,5.9,76a3.74,3.74,0,0,0,3.81,3.82A3.72,3.72,0,0,0,13.58,76.09Z"/><path d="M74.88,34.11V37.7H73.46c-5.89,0-11.77,0-17.66,0a1.46,1.46,0,0,0-1.55.9,6,6,0,1,1,0-5.38,1.45,1.45,0,0,0,1.54.92c5.88,0,11.77,0,17.66,0ZM48.8,33.54a2.44,2.44,0,0,0-2.43,2.36,2.4,2.4,0,0,0,2.43,2.35,2.36,2.36,0,1,0,0-4.71Z"/></svg>