<svg id="Layer_1" data-name="Layer 1" xmlns="http://www.w3.org/2000/svg" viewBox="0 0 791.09 764.74"><defs><style>.cls-1{fill:#fbc2ba}.cls-2{fill:#fcddd6}.cls-3{fill:#4c0519}.cls-4{fill:none;stroke:#4c0519;stroke-miterlimit:10;stroke-width:3px}</style></defs><path class="cls-1" d="M0 0h791.09v183.97H0z"/><path class="cls-2" d="M0 189.78h791.09v186.97H0z"/><path class="cls-1" d="M0 382.78h791.09v187.97H0z"/><path class="cls-2" d="M0 576.78h791.09v187.97H0z"/><path class="cls-3" d="M43.34 117.4c-.13-2.94-.3-6.49-.27-9.57H43c-.75 2.77-1.69 5.85-2.71 8.73L37 126.44h-3.27l-3-9.75c-.88-2.91-1.69-6-2.3-8.86h-.06c-.11 3-.24 6.6-.41 9.71l-.51 9.17h-3.94L25 103.9h5.48l3 9.17c.82 2.68 1.53 5.38 2.1 7.92h.1c.61-2.47 1.39-5.28 2.27-7.95l3.15-9.14h5.41l1.32 22.81h-4.05zM61.32 126.71l-.27-1.83H61a6.12 6.12 0 0 1-4.88 2.2 4.9 4.9 0 0 1-5.18-4.9c0-4.17 3.69-6.27 9.79-6.23v-.27c0-1.08-.44-2.88-3.35-2.88a8.75 8.75 0 0 0-4.49 1.2l-.81-2.71a11.93 11.93 0 0 1 6-1.45c5.28 0 6.8 3.35 6.8 6.93v6a26.23 26.23 0 0 0 .24 4zm-.54-8c-3-.07-5.76.57-5.76 3.08a2.19 2.19 0 0 0 2.37 2.37 3.38 3.38 0 0 0 3.25-2.27 3.12 3.12 0 0 0 .14-.92zM73.67 105.63a2.34 2.34 0 0 1-4.67 0 2.34 2.34 0 0 1 4.67 0zm-4.43 21.08v-16.48h4.2v16.48zM77.91 115.14c0-1.9 0-3.49-.14-4.91h3.66l.2 2.47h.1a5.94 5.94 0 0 1 5.27-2.84c2.87 0 5.85 1.86 5.85 7.07v9.78h-4.18v-9.31c0-2.37-.88-4.16-3.15-4.16a3.5 3.5 0 0 0-3.25 2.44 4.38 4.38 0 0 0-.17 1.32v9.68h-4.19zM101.87 105.52v4.71h4v3.11h-4v7.28c0 2 .54 3 2.13 3a6.14 6.14 0 0 0 1.63-.21l.07 3.18a9.08 9.08 0 0 1-3 .41 4.84 4.84 0 0 1-3.59-1.35c-.88-1-1.29-2.44-1.29-4.61v-7.75h-2.38v-3.11h2.37v-3.72zM111.72 119.64c.11 3 2.44 4.26 5.08 4.26a12.47 12.47 0 0 0 4.57-.74L122 126a15.43 15.43 0 0 1-5.75 1c-5.35 0-8.5-3.28-8.5-8.33 0-4.56 2.78-8.86 8.06-8.86s7.1 4.4 7.1 8a10.09 10.09 0 0 1-.13 1.76zm7.25-2.91c0-1.53-.65-4-3.42-4-2.57 0-3.66 2.33-3.83 4zM126.25 115.14c0-1.9 0-3.49-.14-4.91h3.66l.2 2.47h.1a5.94 5.94 0 0 1 5.25-2.84c2.87 0 5.85 1.86 5.85 7.07v9.78H137v-9.31c0-2.37-.88-4.16-3.15-4.16a3.5 3.5 0 0 0-3.25 2.44 4.38 4.38 0 0 0-.17 1.35v9.68h-4.19zM154.88 126.71l-.27-1.83h-.1a6.1 6.1 0 0 1-4.87 2.2 4.89 4.89 0 0 1-5.18-4.9c0-4.17 3.69-6.27 9.78-6.23v-.27c0-1.08-.44-2.88-3.35-2.88a8.69 8.69 0 0 0-4.43 1.22l-.82-2.71a11.93 11.93 0 0 1 6-1.45c5.28 0 6.8 3.35 6.8 6.93v6a26.23 26.23 0 0 0 .24 4zm-.54-8c-2.94-.07-5.75.57-5.75 3.08a2.19 2.19 0 0 0 2.37 2.37 3.39 3.39 0 0 0 3.25-2.27 3.09 3.09 0 0 0 .13-.92zM162.81 115.14c0-1.9 0-3.49-.14-4.91h3.66l.2 2.47h.1a5.93 5.93 0 0 1 5.25-2.84c2.87 0 5.85 1.86 5.85 7.07v9.78h-4.16v-9.31c0-2.37-.88-4.16-3.15-4.16a3.5 3.5 0 0 0-3.25 2.44A4.38 4.38 0 0 0 167 117v9.68h-4.19zM194.28 126.2a11.94 11.94 0 0 1-4.67.85c-5.14 0-8.49-3.28-8.49-8.39 0-4.94 3.38-8.8 9.17-8.8a10.42 10.42 0 0 1 4 .78l-.75 3.11a7.23 7.23 0 0 0-3.14-.64c-3.18 0-5.08 2.33-5.05 5.34 0 3.39 2.2 5.32 5.05 5.32a8.1 8.1 0 0 0 3.28-.65zM200 119.64c.1 3 2.43 4.26 5.07 4.26a12.47 12.47 0 0 0 4.57-.74l.61 2.87a15.39 15.39 0 0 1-5.75 1c-5.35 0-8.5-3.28-8.5-8.33 0-4.56 2.78-8.86 8.06-8.86s7.11 4.4 7.11 8a9.88 9.88 0 0 1-.14 1.76zm7.24-2.91c0-1.53-.64-4-3.42-4-2.57 0-3.65 2.33-3.82 4zM53.41 160.56l-.27-1.83H53a6.1 6.1 0 0 1-4.87 2.2A4.89 4.89 0 0 1 43 156c0-4.17 3.69-6.26 9.78-6.23v-.27c0-1.08-.44-2.88-3.35-2.88a8.72 8.72 0 0 0-4.43 1.25l-.81-2.71a11.89 11.89 0 0 1 6-1.45c5.28 0 6.8 3.35 6.8 6.94v5.95a26.23 26.23 0 0 0 .24 4zm-.54-8.05c-2.94-.07-5.75.57-5.75 3.08a2.19 2.19 0 0 0 2.37 2.41 3.38 3.38 0 0 0 3.25-2.27 3 3 0 0 0 .13-.91zM61.34 149c0-1.9 0-3.49-.14-4.91h3.66l.2 2.47h.1a5.94 5.94 0 0 1 5.25-2.84c2.88 0 5.85 1.86 5.85 7.07v9.78H72.1v-9.3c0-2.37-.88-4.17-3.15-4.17a3.5 3.5 0 0 0-3.25 2.44 4.39 4.39 0 0 0-.16 1.35v9.68h-4.2zM95.9 136.53v19.4c0 1.69.06 3.52.13 4.63h-3.72l-.17-2.6h-.07a5.94 5.94 0 0 1-5.38 3c-3.93 0-7-3.35-7-8.42 0-5.52 3.42-8.8 7.38-8.8a5.28 5.28 0 0 1 4.64 2.16h.06v-9.34zM91.73 151a5.64 5.64 0 0 0-.1-1.08 3.64 3.64 0 0 0-3.59-3c-2.67 0-4.16 2.37-4.16 5.45s1.49 5.21 4.13 5.21a3.68 3.68 0 0 0 3.59-2.94 4.71 4.71 0 0 0 .13-1.22zM107.37 149.39c0-2.23 0-3.82-.13-5.31h3.62l.14 3.15h.13a4.91 4.91 0 0 1 4.5-3.52 4.16 4.16 0 0 1 1 .1v3.93a5.51 5.51 0 0 0-1.21-.14 3.68 3.68 0 0 0-3.73 3.15 7.9 7.9 0 0 0-.13 1.28v8.53h-4.17zM122.07 153.49c.1 3 2.43 4.26 5.07 4.26a12.47 12.47 0 0 0 4.57-.74l.61 2.88a15.61 15.61 0 0 1-5.75 1c-5.35 0-8.5-3.28-8.5-8.32 0-4.57 2.78-8.87 8.06-8.87s7.1 4.4 7.1 8a10.09 10.09 0 0 1-.13 1.76zm7.24-2.91c0-1.52-.65-4-3.42-4-2.57 0-3.65 2.34-3.82 4zM136.59 149.56c0-2.16-.07-3.92-.14-5.48h3.66l.2 2.54h.07a6.43 6.43 0 0 1 5.65-2.91c3.79 0 6.94 3.25 6.94 8.39 0 6-3.76 8.83-7.51 8.83a5.41 5.41 0 0 1-4.64-2.2h-.07v8.53h-4.16zm4.16 4.1a4.37 4.37 0 0 0 .14 1.15 3.76 3.76 0 0 0 3.65 2.91c2.64 0 4.2-2.2 4.2-5.45 0-2.91-1.42-5.28-4.1-5.28a3.88 3.88 0 0 0-3.72 3.08 3.84 3.84 0 0 0-.17 1.05zM165.66 160.56l-.27-1.83h-.1a6.1 6.1 0 0 1-4.87 2.2 4.89 4.89 0 0 1-5.18-4.9c0-4.17 3.69-6.26 9.78-6.23v-.27c0-1.08-.44-2.88-3.35-2.88a8.72 8.72 0 0 0-4.43 1.22l-.82-2.71a12 12 0 0 1 6-1.45c5.28 0 6.8 3.35 6.8 6.94v5.95a26.23 26.23 0 0 0 .24 4zm-.54-8.05c-2.94-.07-5.75.57-5.75 3.08a2.19 2.19 0 0 0 2.37 2.37 3.38 3.38 0 0 0 3.25-2.27 3 3 0 0 0 .13-.91zM178 139.48a2.34 2.34 0 0 1-4.67 0 2.34 2.34 0 0 1 4.67 0zm-4.43 21.08v-16.48h4.19v16.48zM182.25 149.39c0-2.23 0-3.82-.13-5.31h3.62l.13 3.15h.13a4.91 4.91 0 0 1 4.5-3.52 4.22 4.22 0 0 1 1 .1v3.93a5.62 5.62 0 0 0-1.22-.14 3.67 3.67 0 0 0-3.72 3.15 6.91 6.91 0 0 0-.13 1.28v8.53h-4.17zM283.35 45.28a10.91 10.91 0 0 1-4.52.81c-4.82 0-8.45-3-8.45-8.65 0-5.36 3.63-9 8.94-9a9.12 9.12 0 0 1 4.06.76l-.54 1.8a8.1 8.1 0 0 0-3.45-.71c-4 0-6.68 2.57-6.68 7.06 0 4.19 2.42 6.88 6.58 6.88a8.88 8.88 0 0 0 3.61-.71zM286 37.39c0-1.45 0-2.7-.11-3.84h2l.01 2.45h.1a3.68 3.68 0 0 1 3.4-2.69 2.41 2.41 0 0 1 .63.08v2.11a2.81 2.81 0 0 0-.76-.08 3.13 3.13 0 0 0-3 2.87 6.26 6.26 0 0 0-.11 1v6.55H286zM301 45.84l-.18-1.55h-.08a4.55 4.55 0 0 1-3.76 1.83 3.5 3.5 0 0 1-3.75-3.53c0-3 2.64-4.6 7.39-4.57v-.25a2.54 2.54 0 0 0-2.8-2.85 6.14 6.14 0 0 0-3.2.92l-.5-1.48a7.58 7.58 0 0 1 4-1.09c3.76 0 4.67 2.57 4.67 5v4.59a17.55 17.55 0 0 0 .21 3zm-.33-6.27c-2.44 0-5.21.38-5.21 2.77a2 2 0 0 0 2.11 2.13 3.06 3.06 0 0 0 3-2.06 2.22 2.22 0 0 0 .13-.71zM306.61 45.84V35.25h-1.73v-1.7h1.73V33a5.79 5.79 0 0 1 1.39-4.32 4.25 4.25 0 0 1 3-1.15 5.12 5.12 0 0 1 1.9.36l-.31 1.73a3.2 3.2 0 0 0-1.42-.28c-1.9 0-2.38 1.67-2.38 3.55v.66h3v1.7h-3v10.59zM316.76 30v3.53H320v1.7h-3.2v6.63c0 1.52.43 2.39 1.68 2.39a4.73 4.73 0 0 0 1.29-.16l.1 1.68a5.4 5.4 0 0 1-2 .3 3.09 3.09 0 0 1-2.41-.94 4.56 4.56 0 0 1-.86-3.19v-6.69h-1.91v-1.7h1.91v-2.94zM328.74 33.55l1.63 6.25c.35 1.37.68 2.64.91 3.91h.08c.28-1.25.68-2.57 1.09-3.89l2-6.27h1.88l1.9 6.15c.46 1.47.81 2.76 1.09 4h.08a35.29 35.29 0 0 1 .94-4l1.75-6.17h2.21l-4 12.29h-2L336.44 40a39.71 39.71 0 0 1-1.09-4h-.06a35.82 35.82 0 0 1-1.11 4l-2 5.84h-2l-3.71-12.29zM357.41 39.59c0 4.55-3.15 6.53-6.12 6.53-3.33 0-5.89-2.44-5.89-6.32 0-4.12 2.69-6.53 6.09-6.53s5.92 2.57 5.92 6.32zm-9.75.13c0 2.69 1.55 4.72 3.73 4.72s3.73-2 3.73-4.77c0-2.08-1-4.72-3.68-4.72s-3.78 2.44-3.78 4.77zM360.23 37.39c0-1.45 0-2.7-.11-3.84h2l.08 2.41h.1a3.68 3.68 0 0 1 3.4-2.69 2.41 2.41 0 0 1 .63.08v2.11a2.81 2.81 0 0 0-.76-.08 3.13 3.13 0 0 0-3 2.87 6.26 6.26 0 0 0-.11 1v6.55h-2.2zM370.84 39.19h.05c.3-.43.73-1 1.09-1.4l3.61-4.24h2.69l-4.75 5.05 5.41 7.24h-2.72L372 40l-1.14 1.27v4.62h-2.21v-18h2.21zM385.92 37.56c0-1.57-.05-2.84-.1-4h2l.1 2.11h.08a4.85 4.85 0 0 1 4.37-2.39c3 0 5.21 2.52 5.21 6.25 0 4.42-2.69 6.6-5.59 6.6a4.3 4.3 0 0 1-3.78-1.93h-.05v6.68h-2.21zm2.21 3.28a5.07 5.07 0 0 0 .1.91 3.44 3.44 0 0 0 3.35 2.62c2.36 0 3.73-1.93 3.73-4.75 0-2.46-1.29-4.57-3.65-4.57a3.56 3.56 0 0 0-3.38 2.77 3.47 3.47 0 0 0-.15.91zM407.17 45.84l-.17-1.55h-.08a4.54 4.54 0 0 1-3.75 1.83 3.5 3.5 0 0 1-3.76-3.53c0-3 2.64-4.6 7.39-4.57v-.25a2.54 2.54 0 0 0-2.8-2.85 6.14 6.14 0 0 0-3.2.92l-.5-1.48a7.61 7.61 0 0 1 4-1.09c3.76 0 4.68 2.57 4.68 5v4.59a17.62 17.62 0 0 0 .2 3zm-.33-6.27c-2.44 0-5.21.38-5.21 2.77a2 2 0 0 0 2.11 2.13 3.05 3.05 0 0 0 3-2.06 2.22 2.22 0 0 0 .13-.71zM421.36 45.38a8.14 8.14 0 0 1-3.53.71c-3.71 0-6.12-2.51-6.12-6.27a6.24 6.24 0 0 1 6.6-6.52 7.57 7.57 0 0 1 3.1.63l-.51 1.73a5.1 5.1 0 0 0-2.59-.59c-2.81 0-4.34 2.09-4.34 4.65 0 2.84 1.83 4.6 4.27 4.6a6.34 6.34 0 0 0 2.74-.61zM426.18 39.19h.05c.31-.43.74-1 1.1-1.4l3.6-4.24h2.69l-4.75 5.05 5.41 7.24h-2.71L427.33 40l-1.15 1.27v4.62H424v-18h2.21zM443.14 45.84l-.14-1.55h-.08a4.58 4.58 0 0 1-3.76 1.83 3.5 3.5 0 0 1-3.76-3.53c0-3 2.64-4.6 7.39-4.57v-.25a2.54 2.54 0 0 0-2.79-2.85 6.11 6.11 0 0 0-3.2.92l-.51-1.48a7.65 7.65 0 0 1 4-1.09c3.76 0 4.67 2.57 4.67 5v4.59a17.62 17.62 0 0 0 .2 3zm-.33-6.27c-2.43 0-5.2.38-5.2 2.77a2 2 0 0 0 2.11 2.13 3.06 3.06 0 0 0 3-2.06 2.52 2.52 0 0 0 .12-.71zM459.16 33.55c-.05.89-.1 1.88-.1 3.38v7.13c0 2.82-.56 4.55-1.75 5.61a6.5 6.5 0 0 1-4.47 1.48 8 8 0 0 1-4.09-1l.56-1.7a6.9 6.9 0 0 0 3.61 1c2.28 0 4-1.19 4-4.29v-1.43h-.05a4.38 4.38 0 0 1-3.91 2.06c-3.05 0-5.23-2.59-5.23-6 0-4.17 2.71-6.53 5.53-6.53a4.11 4.11 0 0 1 3.84 2.13h.05l.1-1.85zm-2.31 4.85a3.18 3.18 0 0 0-.12-1 3.23 3.23 0 0 0-3.13-2.4c-2.13 0-3.65 1.81-3.65 4.65 0 2.41 1.22 4.42 3.63 4.42a3.28 3.28 0 0 0 3.1-2.29 4.08 4.08 0 0 0 .17-1.19zM464 40.1c.05 3 2 4.27 4.22 4.27a8 8 0 0 0 3.4-.64l.38 1.6a9.89 9.89 0 0 1-4.09.76c-3.78 0-6-2.48-6-6.19s2.18-6.63 5.76-6.63c4 0 5.08 3.53 5.08 5.79a10 10 0 0 1-.07 1zm6.55-1.6c0-1.42-.58-3.63-3.09-3.63-2.26 0-3.25 2.08-3.43 3.63zM475.18 43.56a5.88 5.88 0 0 0 2.95.88c1.62 0 2.39-.81 2.39-1.82s-.64-1.65-2.29-2.26c-2.21-.79-3.25-2-3.25-3.48 0-2 1.6-3.61 4.24-3.61a6.19 6.19 0 0 1 3 .76l-.56 1.63a4.72 4.72 0 0 0-2.51-.71c-1.32 0-2.06.76-2.06 1.67s.74 1.48 2.34 2.09c2.13.81 3.22 1.87 3.22 3.7 0 2.16-1.67 3.68-4.59 3.68a7.13 7.13 0 0 1-3.46-.83zM271.39 83.93a25.46 25.46 0 0 1 4.24-.33 7 7 0 0 1 4.8 1.42 4.6 4.6 0 0 1 1.5 3.58 5.06 5.06 0 0 1-1.32 3.66 7.11 7.11 0 0 1-5.23 1.88 7.45 7.45 0 0 1-1.78-.14v6.86h-2.21zm2.21 8.25a7.24 7.24 0 0 0 1.83.18c2.67 0 4.29-1.3 4.29-3.66s-1.6-3.35-4-3.35a9.33 9.33 0 0 0-2.08.18zM284.42 92.39c0-1.45 0-2.7-.1-3.84h1.95l.08 2.41h.1a3.68 3.68 0 0 1 3.4-2.69 2.49 2.49 0 0 1 .64.08v2.11a2.94 2.94 0 0 0-.77-.08 3.13 3.13 0 0 0-3 2.87 6.33 6.33 0 0 0-.1 1v6.55h-2.21zM293.71 95.1c.05 3 2 4.27 4.21 4.27a8 8 0 0 0 3.41-.64l.38 1.6a9.89 9.89 0 0 1-4.09.76c-3.78 0-6-2.48-6-6.19s2.18-6.63 5.76-6.63c4 0 5.08 3.53 5.08 5.79a7.43 7.43 0 0 1-.08 1zm6.55-1.6c0-1.42-.58-3.63-3.1-3.63-2.26 0-3.25 2.08-3.42 3.63zM305.19 92.56c0-1.57-.06-2.84-.11-4h2l.1 2.11h.05a4.84 4.84 0 0 1 4.37-2.39c3 0 5.2 2.52 5.2 6.25 0 4.42-2.69 6.6-5.58 6.6a4.29 4.29 0 0 1-3.78-1.93h-.06v6.68h-2.2zm2.2 3.28a5 5 0 0 0 .11.91 3.44 3.44 0 0 0 3.35 2.62c2.36 0 3.73-1.93 3.73-4.75 0-2.46-1.29-4.57-3.66-4.57a3.56 3.56 0 0 0-3.37 2.77 3.47 3.47 0 0 0-.16.91zM326.44 100.84l-.18-1.55h-.08a4.55 4.55 0 0 1-3.76 1.83 3.5 3.5 0 0 1-3.75-3.53c0-3 2.64-4.6 7.38-4.57v-.25a2.53 2.53 0 0 0-2.79-2.85 6.14 6.14 0 0 0-3.2.92l-.51-1.48a7.65 7.65 0 0 1 4-1.09c3.76 0 4.67 2.57 4.67 5v4.59a16.55 16.55 0 0 0 .21 3zm-.33-6.27c-2.44 0-5.21.38-5.21 2.77a2 2 0 0 0 2.1 2.13 3.06 3.06 0 0 0 3-2.06 2.53 2.53 0 0 0 .13-.71zM331.87 92.39c0-1.45 0-2.7-.1-3.84h2l.03 2.45h.1a3.68 3.68 0 0 1 3.4-2.69 2.49 2.49 0 0 1 .64.08v2.11a2.94 2.94 0 0 0-.77-.08 3.13 3.13 0 0 0-3 2.87 6.33 6.33 0 0 0-.1 1v6.55h-2.21zM341.16 95.1c0 3 2 4.27 4.22 4.27a8 8 0 0 0 3.4-.64l.38 1.6a9.89 9.89 0 0 1-4.09.76c-3.78 0-6-2.48-6-6.19s2.18-6.63 5.76-6.63c4 0 5.08 3.53 5.08 5.79a7.43 7.43 0 0 1-.08 1zm6.55-1.6c0-1.42-.58-3.63-3.1-3.63-2.26 0-3.25 2.08-3.42 3.63zM366.78 100.38a8.18 8.18 0 0 1-3.53.71c-3.71 0-6.12-2.51-6.12-6.27a6.24 6.24 0 0 1 6.6-6.52 7.57 7.57 0 0 1 3.1.63l-.51 1.73a5.1 5.1 0 0 0-2.59-.59c-2.82 0-4.34 2.09-4.34 4.65 0 2.84 1.83 4.6 4.27 4.6a6.38 6.38 0 0 0 2.74-.61zM380.36 94.59c0 4.55-3.15 6.53-6.12 6.53-3.32 0-5.89-2.44-5.89-6.32 0-4.12 2.69-6.53 6.1-6.53s5.91 2.57 5.91 6.32zm-9.75.13c0 2.69 1.55 4.72 3.73 4.72s3.74-2 3.74-4.77c0-2.08-1-4.72-3.69-4.72s-3.78 2.44-3.78 4.77zM383.18 91.88c0-1.27 0-2.31-.1-3.33H385l.1 2h.08a4.24 4.24 0 0 1 3.86-2.26 3.64 3.64 0 0 1 3.48 2.46h.05a5 5 0 0 1 1.43-1.61 4.2 4.2 0 0 1 2.72-.87c1.62 0 4 1.07 4 5.33v7.24h-2.18v-7c0-2.36-.86-3.78-2.67-3.78a2.89 2.89 0 0 0-2.64 2 3.77 3.77 0 0 0-.17 1.12v7.59h-2.19v-7.29c0-2-.86-3.38-2.56-3.38a3.33 3.33 0 0 0-2.95 3.33v7.41h-2.18zM404.35 92.56c0-1.57-.05-2.84-.1-4h2l.1 2.11h.05a4.83 4.83 0 0 1 4.37-2.39c3 0 5.2 2.52 5.2 6.25 0 4.42-2.69 6.6-5.58 6.6a4.32 4.32 0 0 1-3.79-1.93h-.05v6.68h-2.21zm2.21 3.28a5.07 5.07 0 0 0 .1.91 3.45 3.45 0 0 0 3.34 2.62c2.37 0 3.74-1.93 3.74-4.75 0-2.46-1.3-4.57-3.66-4.57a3.58 3.58 0 0 0-3.38 2.77 3.93 3.93 0 0 0-.15.91zM418.8 82.81h2.2v18h-2.2zM427.28 85.1a1.39 1.39 0 0 1-2.77 0 1.36 1.36 0 0 1 1.4-1.4 1.33 1.33 0 0 1 1.37 1.4zm-2.49 15.74V88.55H427v12.29zM437.53 100.84l-.17-1.55h-.08a4.58 4.58 0 0 1-3.76 1.83 3.5 3.5 0 0 1-3.76-3.53c0-3 2.65-4.6 7.39-4.57v-.25a2.54 2.54 0 0 0-2.79-2.85 6.11 6.11 0 0 0-3.2.92l-.51-1.48a7.65 7.65 0 0 1 4-1.09c3.76 0 4.67 2.57 4.67 5v4.59a16.55 16.55 0 0 0 .21 3zm-.33-6.27c-2.43 0-5.2.38-5.2 2.77a2 2 0 0 0 2.11 2.13 3.06 3.06 0 0 0 3-2.06 2.52 2.52 0 0 0 .12-.71zM443 91.88c0-1.27 0-2.31-.1-3.33h2l.12 2a4.52 4.52 0 0 1 4.07-2.31c1.7 0 4.34 1 4.34 5.23v7.34h-2.24v-7.05c0-2-.73-3.63-2.84-3.63a3.18 3.18 0 0 0-3 2.28 3.26 3.26 0 0 0-.15 1v7.39H443zM465.82 100.38a8.18 8.18 0 0 1-3.53.71c-3.71 0-6.12-2.51-6.12-6.27a6.24 6.24 0 0 1 6.6-6.52 7.57 7.57 0 0 1 3.1.63l-.51 1.73a5.1 5.1 0 0 0-2.59-.59c-2.82 0-4.34 2.09-4.34 4.65 0 2.84 1.83 4.6 4.26 4.6a6.39 6.39 0 0 0 2.75-.61zM469.52 95.1c.05 3 2 4.27 4.22 4.27a8 8 0 0 0 3.4-.64l.38 1.6a9.89 9.89 0 0 1-4.09.76c-3.78 0-6-2.48-6-6.19s2.18-6.63 5.76-6.63c4 0 5.08 3.53 5.08 5.79a10 10 0 0 1-.07 1zm6.55-1.6c0-1.42-.58-3.63-3.09-3.63-2.26 0-3.25 2.08-3.43 3.63zM486.08 98.56a5.84 5.84 0 0 0 2.94.88c1.63 0 2.39-.81 2.39-1.82s-.64-1.65-2.29-2.26c-2.21-.79-3.25-2-3.25-3.48 0-2 1.6-3.61 4.24-3.61a6.16 6.16 0 0 1 3 .76l-.55 1.63a4.76 4.76 0 0 0-2.52-.71c-1.32 0-2.05.76-2.05 1.67s.73 1.48 2.33 2.09c2.13.81 3.23 1.87 3.23 3.7 0 2.16-1.68 3.68-4.6 3.68a7.06 7.06 0 0 1-3.45-.83zM499.13 85v3.53h3.2v1.7h-3.2v6.63c0 1.52.43 2.39 1.67 2.39a4.76 4.76 0 0 0 1.3-.16l.1 1.68a5.44 5.44 0 0 1-2 .3 3.09 3.09 0 0 1-2.41-.94 4.51 4.51 0 0 1-.87-3.19v-6.69H495v-1.7h1.9v-2.94zM511.64 100.84l-.18-1.55h-.07a4.58 4.58 0 0 1-3.76 1.83 3.5 3.5 0 0 1-3.76-3.53c0-3 2.64-4.6 7.39-4.57v-.25a2.54 2.54 0 0 0-2.79-2.85 6.11 6.11 0 0 0-3.2.92l-.51-1.48a7.65 7.65 0 0 1 4-1.09c3.76 0 4.67 2.57 4.67 5v4.59a17.62 17.62 0 0 0 .2 3zm-.33-6.27c-2.44 0-5.2.38-5.2 2.77a2 2 0 0 0 2.1 2.13 3.08 3.08 0 0 0 3-2.06 2.52 2.52 0 0 0 .12-.71zM519.66 85v3.53h3.2v1.7h-3.2v6.63c0 1.52.44 2.39 1.68 2.39a4.82 4.82 0 0 0 1.3-.16l.1 1.68a5.44 5.44 0 0 1-2 .3 3.12 3.12 0 0 1-2.42-.94 4.56 4.56 0 0 1-.86-3.19v-6.69h-1.9v-1.7h1.9v-2.94zM526.47 95.1c0 3 2 4.27 4.21 4.27a8 8 0 0 0 3.41-.64l.38 1.6a9.93 9.93 0 0 1-4.09.76c-3.78 0-6-2.48-6-6.19s2.18-6.63 5.76-6.63c4 0 5.08 3.53 5.08 5.79a7.43 7.43 0 0 1-.08 1zm6.53-1.6c0-1.42-.58-3.63-3.1-3.63-2.26 0-3.25 2.08-3.43 3.63zM537.94 91.88c0-1.27 0-2.31-.1-3.33h2l.1 2h.06a4.21 4.21 0 0 1 3.85-2.26 3.63 3.63 0 0 1 3.48 2.46h.05a5.18 5.18 0 0 1 1.38-1.59 4.15 4.15 0 0 1 2.71-.87c1.63 0 4 1.07 4 5.33v7.24h-2.18v-7c0-2.36-.87-3.78-2.67-3.78a2.89 2.89 0 0 0-2.64 2 3.75 3.75 0 0 0-.18 1.12v7.59h-2.18v-7.31c0-2-.87-3.38-2.57-3.38a3.33 3.33 0 0 0-2.94 3.33v7.41h-2.19zM560.36 95.1c0 3 2 4.27 4.22 4.27a8 8 0 0 0 3.4-.64l.38 1.6a9.89 9.89 0 0 1-4.09.76c-3.78 0-6-2.48-6-6.19s2.18-6.63 5.76-6.63c4 0 5.08 3.53 5.08 5.79a10 10 0 0 1-.07 1zm6.55-1.6c0-1.42-.58-3.63-3.09-3.63-2.26 0-3.25 2.08-3.43 3.63zM571.84 91.88c0-1.27 0-2.31-.1-3.33h2l.12 2a4.53 4.53 0 0 1 4.14-2.28c1.7 0 4.34 1 4.34 5.23v7.34h-2.24v-7.08c0-2-.73-3.63-2.84-3.63a3.19 3.19 0 0 0-3 2.28 3.26 3.26 0 0 0-.15 1v7.39h-2.23zM588.52 85v3.53h3.2v1.7h-3.2v6.63c0 1.52.43 2.39 1.67 2.39a4.76 4.76 0 0 0 1.3-.16l.1 1.68a5.44 5.44 0 0 1-2 .3 3.09 3.09 0 0 1-2.41-.94 4.51 4.51 0 0 1-.87-3.19v-6.69h-1.9v-1.7h1.9v-2.94zM593.93 98.56a5.84 5.84 0 0 0 2.94.88c1.63 0 2.39-.81 2.39-1.82s-.64-1.62-2.26-2.26c-2.21-.79-3.25-2-3.25-3.48 0-2 1.6-3.61 4.24-3.61a6.16 6.16 0 0 1 3 .76l-.55 1.63a4.79 4.79 0 0 0-2.52-.71c-1.32 0-2 .76-2 1.67s.73 1.48 2.33 2.09c2.13.81 3.23 1.87 3.23 3.7 0 2.16-1.68 3.68-4.6 3.68a7.06 7.06 0 0 1-3.45-.83zM273.6 138.73v17.11h-2.21v-17.11zM288 137.81v14.86c0 1.09 0 2.33.1 3.17h-2l-.1-2.13h-.05a4.54 4.54 0 0 1-4.19 2.41c-3 0-5.25-2.51-5.25-6.25 0-4.08 2.51-6.6 5.51-6.6a4.11 4.11 0 0 1 3.7 1.88h.05v-7.34zm-2.24 10.74a3.76 3.76 0 0 0-.1-.94 3.29 3.29 0 0 0-3.22-2.59c-2.31 0-3.68 2-3.68 4.75 0 2.49 1.21 4.55 3.63 4.55a3.35 3.35 0 0 0 3.27-2.67 3.68 3.68 0 0 0 .1-1zM293 150.1c.05 3 2 4.27 4.21 4.27a8 8 0 0 0 3.41-.64l.38 1.6a9.93 9.93 0 0 1-4.09.76c-3.78 0-6-2.48-6-6.19s2.18-6.63 5.76-6.63c4 0 5.08 3.53 5.08 5.79a7.43 7.43 0 0 1-.08 1zm6.55-1.6c0-1.42-.59-3.63-3.1-3.63-2.26 0-3.25 2.08-3.43 3.63zM304.42 146.88c0-1.27 0-2.31-.1-3.33h2l.13 2h.05a4.51 4.51 0 0 1 4.06-2.31c1.7 0 4.34 1 4.34 5.23v7.34h-2.23v-7.08c0-2-.74-3.63-2.84-3.63a3.17 3.17 0 0 0-3 2.28 3.26 3.26 0 0 0-.15 1v7.39h-2.24zM321.1 140v3.53h3.2v1.7h-3.2v6.63c0 1.52.44 2.39 1.68 2.39a4.82 4.82 0 0 0 1.3-.16l.1 1.68a5.44 5.44 0 0 1-2 .3 3.12 3.12 0 0 1-2.42-.94 4.56 4.56 0 0 1-.86-3.19v-6.71H317v-1.7h1.9v-2.94zM329.3 140.1a1.31 1.31 0 0 1-1.42 1.37 1.33 1.33 0 0 1-1.34-1.37 1.36 1.36 0 0 1 1.39-1.4 1.33 1.33 0 0 1 1.37 1.4zm-2.48 15.74v-12.29h2.23v12.29zM333 155.84v-10.59h-1.73v-1.7H333V143a5.79 5.79 0 0 1 1.42-4.29 4.24 4.24 0 0 1 3-1.15 5.14 5.14 0 0 1 1.91.36l-.31 1.73a3.2 3.2 0 0 0-1.42-.28c-1.9 0-2.39 1.67-2.39 3.55v.66h3v1.7h-3v10.59zM341 143.55l2.69 7.26c.28.82.59 1.78.79 2.52h.05c.23-.74.48-1.68.79-2.57l2.44-7.21h2.36l-3.35 8.76c-1.6 4.22-2.7 6.37-4.22 7.69a6 6 0 0 1-2.74 1.45l-.56-1.88a5.92 5.92 0 0 0 2-1.09 6.71 6.71 0 0 0 1.87-2.49 1.42 1.42 0 0 0 .18-.53 1.87 1.87 0 0 0-.15-.58l-4.55-11.33zM368.1 143.55c-.05.89-.1 1.88-.1 3.38v7.13c0 2.82-.56 4.55-1.76 5.61a6.49 6.49 0 0 1-4.46 1.48 7.92 7.92 0 0 1-4.09-1l.56-1.7a6.89 6.89 0 0 0 3.6 1c2.29 0 4-1.19 4-4.29v-1.37h-.05a4.36 4.36 0 0 1-3.91 2.06c-3.05 0-5.23-2.59-5.23-6 0-4.17 2.72-6.53 5.54-6.53a4.09 4.09 0 0 1 3.8 2.08l.1-1.85zm-2.31 4.85a3.17 3.17 0 0 0-.13-1 3.22 3.22 0 0 0-3.12-2.37c-2.14 0-3.66 1.81-3.66 4.65 0 2.41 1.22 4.42 3.63 4.42a3.27 3.27 0 0 0 3.1-2.29 3.78 3.78 0 0 0 .18-1.19zM378.51 155.84l-.18-1.55h-.08a4.54 4.54 0 0 1-3.75 1.83 3.5 3.5 0 0 1-3.76-3.53c0-3 2.64-4.6 7.39-4.57v-.25a2.54 2.54 0 0 0-2.8-2.85 6.14 6.14 0 0 0-3.2.92l-.5-1.48a7.58 7.58 0 0 1 4-1.09c3.76 0 4.67 2.57 4.67 5v4.59a17.55 17.55 0 0 0 .21 3zm-.33-6.27c-2.44 0-5.21.38-5.21 2.77a2 2 0 0 0 2.11 2.13 3.06 3.06 0 0 0 3-2.06 2.22 2.22 0 0 0 .13-.71zM383.94 147.56c0-1.57-.05-2.84-.1-4h2l.11 2.11h.05a4.82 4.82 0 0 1 4.36-2.39c3 0 5.21 2.52 5.21 6.25 0 4.42-2.69 6.6-5.59 6.6a4.31 4.31 0 0 1-3.78-1.93h-.05v6.68h-2.21zm2.21 3.28a5.07 5.07 0 0 0 .1.91 3.45 3.45 0 0 0 3.35 2.62c2.36 0 3.73-1.93 3.73-4.75 0-2.46-1.29-4.57-3.65-4.57a3.56 3.56 0 0 0-3.38 2.77 3.47 3.47 0 0 0-.15.91zM398.08 153.56a5.88 5.88 0 0 0 2.95.88c1.62 0 2.38-.81 2.38-1.82s-.63-1.65-2.28-2.26c-2.21-.79-3.25-2-3.25-3.48 0-2 1.6-3.61 4.24-3.61a6.22 6.22 0 0 1 3 .76l-.56 1.63a4.72 4.72 0 0 0-2.51-.71c-1.32 0-2.06.76-2.06 1.67s.74 1.48 2.34 2.09c2.13.81 3.22 1.87 3.22 3.7 0 2.16-1.68 3.68-4.6 3.68a7.09 7.09 0 0 1-3.45-.83zM416.31 140.1a1.39 1.39 0 0 1-2.77 0 1.36 1.36 0 0 1 1.4-1.4 1.33 1.33 0 0 1 1.37 1.4zm-2.49 15.74v-12.29h2.23v12.29zM419.76 146.88c0-1.27 0-2.31-.1-3.33h2l.13 2h.05a4.51 4.51 0 0 1 4.06-2.31c1.7 0 4.34 1 4.34 5.23v7.34H428v-7.08c0-2-.74-3.63-2.85-3.63a3.17 3.17 0 0 0-3 2.28 3.26 3.26 0 0 0-.15 1v7.39h-2.24zM446 155.84l-.18-1.55h-.08a4.54 4.54 0 0 1-3.75 1.83 3.5 3.5 0 0 1-3.76-3.53c0-3 2.64-4.6 7.39-4.57v-.25a2.54 2.54 0 0 0-2.8-2.85 6.14 6.14 0 0 0-3.2.92l-.5-1.48a7.61 7.61 0 0 1 4-1.09c3.76 0 4.68 2.57 4.68 5v4.59a17.62 17.62 0 0 0 .2 3zm-.33-6.27c-2.44 0-5.21.38-5.21 2.77a2 2 0 0 0 2.11 2.13 3.05 3.05 0 0 0 3-2.06 2.22 2.22 0 0 0 .13-.71zM454 140.1a1.39 1.39 0 0 1-2.77 0 1.37 1.37 0 0 1 1.4-1.4 1.33 1.33 0 0 1 1.37 1.4zm-2.49 15.74v-12.29h2.24v12.29zM457.41 147.39c0-1.45 0-2.7-.1-3.84h1.95l.08 2.41h.1a3.69 3.69 0 0 1 3.4-2.69 2.43 2.43 0 0 1 .64.08v2.11a2.91 2.91 0 0 0-.76-.08 3.13 3.13 0 0 0-3 2.87 6.33 6.33 0 0 0-.1 1v6.55h-2.21zM467.24 143.55l1.62 6.25c.36 1.37.69 2.64.92 3.91h.07c.28-1.25.69-2.57 1.09-3.89l2-6.27h1.88l1.9 6.15c.46 1.47.81 2.76 1.09 4h.08a35.29 35.29 0 0 1 .94-4l1.75-6.17h2.21l-4 12.29h-2l-1.86-5.82a39.71 39.71 0 0 1-1.09-4 38 38 0 0 1-1.12 4.06l-2 5.84h-2L465 143.55zM495.9 149.59c0 4.55-3.15 6.53-6.12 6.53-3.32 0-5.89-2.44-5.89-6.32 0-4.12 2.69-6.53 6.09-6.53s5.92 2.57 5.92 6.32zm-9.75.13c0 2.69 1.55 4.72 3.73 4.72s3.74-2 3.74-4.77c0-2.08-1.05-4.72-3.69-4.72s-3.78 2.44-3.78 4.77zM498.72 147.39c0-1.45 0-2.7-.1-3.84h1.95l.08 2.41h.1a3.68 3.68 0 0 1 3.4-2.69 2.49 2.49 0 0 1 .64.08v2.11a2.94 2.94 0 0 0-.77-.08 3.13 3.13 0 0 0-3 2.87 6.33 6.33 0 0 0-.1 1v6.55h-2.21zM510.32 140v3.53h3.2v1.7h-3.2v6.63c0 1.52.43 2.39 1.68 2.39a4.73 4.73 0 0 0 1.29-.16l.1 1.68a5.4 5.4 0 0 1-2 .3 3.09 3.09 0 0 1-2.41-.94 4.56 4.56 0 0 1-.86-3.19v-6.71h-1.91v-1.7h1.91v-2.94zM516 137.81h2.24v7.67h.05a4.1 4.1 0 0 1 1.6-1.57 4.59 4.59 0 0 1 2.28-.64c1.65 0 4.29 1 4.29 5.26v7.31h-2.23v-7.06c0-2-.74-3.65-2.85-3.65a3.21 3.21 0 0 0-3 2.23 2.64 2.64 0 0 0-.15 1.07v7.41H516zM532.61 140.1a1.31 1.31 0 0 1-1.42 1.37 1.33 1.33 0 0 1-1.35-1.37 1.37 1.37 0 0 1 1.4-1.4 1.33 1.33 0 0 1 1.37 1.4zm-2.49 15.74v-12.29h2.24v12.29zM536.06 146.88c0-1.27 0-2.31-.1-3.33h2l.13 2a4.51 4.51 0 0 1 4.06-2.31c1.7 0 4.34 1 4.34 5.23v7.34h-2.23v-7.08c0-2-.74-3.63-2.84-3.63a3.17 3.17 0 0 0-3 2.28 3.26 3.26 0 0 0-.15 1v7.39h-2.24zM551.4 150.1c.05 3 2 4.27 4.21 4.27a8 8 0 0 0 3.41-.64l.38 1.6a9.93 9.93 0 0 1-4.09.76c-3.78 0-6-2.48-6-6.19s2.18-6.63 5.76-6.63c4 0 5.08 3.53 5.08 5.79a7.43 7.43 0 0 1-.08 1zm6.55-1.6c0-1.42-.58-3.63-3.1-3.63-2.26 0-3.25 2.08-3.43 3.63zM562.57 153.56a5.87 5.87 0 0 0 2.94.88c1.63 0 2.39-.81 2.39-1.82s-.63-1.65-2.28-2.26c-2.21-.79-3.25-2-3.25-3.48 0-2 1.6-3.61 4.24-3.61a6.22 6.22 0 0 1 3 .76l-.56 1.63a4.72 4.72 0 0 0-2.51-.71c-1.32 0-2.06.76-2.06 1.67s.74 1.48 2.33 2.09c2.14.81 3.23 1.87 3.23 3.7 0 2.16-1.68 3.68-4.6 3.68a7.09 7.09 0 0 1-3.45-.83zM572.62 153.56a5.88 5.88 0 0 0 3 .88c1.62 0 2.39-.81 2.39-1.82s-.64-1.65-2.29-2.26c-2.21-.79-3.25-2-3.25-3.48 0-2 1.6-3.61 4.24-3.61a6.19 6.19 0 0 1 3 .76l-.56 1.63a4.72 4.72 0 0 0-2.51-.71c-1.32 0-2.06.76-2.06 1.67s.74 1.48 2.34 2.09c2.13.81 3.22 1.87 3.22 3.7 0 2.16-1.67 3.68-4.59 3.68a7.13 7.13 0 0 1-3.46-.83zM588.36 147.39c0-1.45 0-2.7-.1-3.84h2l.07 2.41h.1a3.69 3.69 0 0 1 3.41-2.69 2.41 2.41 0 0 1 .63.08v2.11a2.91 2.91 0 0 0-.76-.08 3.14 3.14 0 0 0-3 2.87 6.33 6.33 0 0 0-.1 1v6.55h-2.21zM597.66 150.1c.05 3 2 4.27 4.21 4.27a8 8 0 0 0 3.4-.64l.38 1.6a9.83 9.83 0 0 1-4.08.76c-3.79 0-6.05-2.48-6.05-6.19s2.19-6.63 5.77-6.63c4 0 5.07 3.53 5.07 5.79a10 10 0 0 1-.07 1zm6.55-1.6c0-1.42-.59-3.63-3.1-3.63-2.26 0-3.25 2.08-3.43 3.63zM609.13 147.56c0-1.57 0-2.84-.1-4h2l.1 2.11h.05a4.82 4.82 0 0 1 4.36-2.39c3 0 5.21 2.52 5.21 6.25 0 4.42-2.69 6.6-5.59 6.6a4.31 4.31 0 0 1-3.78-1.93v6.68h-2.21zm2.21 3.28a5.07 5.07 0 0 0 .1.91 3.45 3.45 0 0 0 3.35 2.62c2.36 0 3.74-1.93 3.74-4.75 0-2.46-1.3-4.57-3.66-4.57a3.57 3.57 0 0 0-3.38 2.77 3.93 3.93 0 0 0-.15.91zM634.7 149.59c0 4.55-3.15 6.53-6.12 6.53-3.33 0-5.89-2.44-5.89-6.32 0-4.12 2.69-6.53 6.09-6.53s5.92 2.57 5.92 6.32zm-9.75.13c0 2.69 1.55 4.72 3.73 4.72s3.73-2 3.73-4.77c0-2.08-1-4.72-3.68-4.72s-3.73 2.44-3.73 4.77zM637.51 147.39c0-1.45 0-2.7-.1-3.84h2l.07 2.41h.11a3.67 3.67 0 0 1 3.4-2.69 2.41 2.41 0 0 1 .63.08v2.11a2.86 2.86 0 0 0-.76-.08 3.13 3.13 0 0 0-3 2.87 5.35 5.35 0 0 0-.11 1v6.55h-2.21zM649.12 140v3.53h3.2v1.7h-3.2v6.63c0 1.52.43 2.39 1.67 2.39a4.76 4.76 0 0 0 1.3-.16l.1 1.68a5.44 5.44 0 0 1-2 .3 3.09 3.09 0 0 1-2.41-.94 4.51 4.51 0 0 1-.87-3.19v-6.71H645v-1.7h1.9v-2.94zM654.52 153.56a5.88 5.88 0 0 0 3 .88c1.62 0 2.39-.81 2.39-1.82s-.64-1.65-2.29-2.26c-2.21-.79-3.25-2-3.25-3.48 0-2 1.6-3.61 4.24-3.61a6.19 6.19 0 0 1 3 .76l-.56 1.63a4.72 4.72 0 0 0-2.51-.71c-1.32 0-2.06.76-2.06 1.67s.74 1.48 2.34 2.09c2.13.81 3.22 1.87 3.22 3.7 0 2.16-1.67 3.68-4.59 3.68a7.13 7.13 0 0 1-3.46-.83z"/><circle class="cls-4" cx="246.36" cy="39" r="4.5"/><circle class="cls-4" cx="246.37" cy="91.97" r="4.5"/><circle class="cls-4" cx="246.39" cy="144.93" r="4.5"/><circle class="cls-4" cx="246.36" cy="225" r="4.5"/><circle class="cls-4" cx="246.37" cy="280.97" r="4.5"/><circle class="cls-4" cx="246.39" cy="333.93" r="4.5"/><circle class="cls-4" cx="246.36" cy="420" r="4.5"/><circle class="cls-4" cx="246.37" cy="474.97" r="4.5"/><circle class="cls-4" cx="246.39" cy="527.93" r="4.5"/><path class="cls-3" d="M81.67 330.18a11.59 11.59 0 0 0 5.51 1.45c2.68 0 4.16-1.25 4.16-3.11s-1.15-2.74-4.06-3.79c-3.75-1.36-6.16-3.35-6.16-6.64 0-3.72 3.12-6.56 8.06-6.56a12 12 0 0 1 5.48 1.15l-1 3.35a9.72 9.72 0 0 0-4.55-1.03c-2.64 0-3.79 1.42-3.79 2.74 0 1.76 1.32 2.57 4.37 3.75 4 1.49 5.89 3.49 5.89 6.77 0 3.66-2.78 6.84-8.67 6.84a13.61 13.61 0 0 1-6.16-1.42zM108.64 334.71l-.27-1.83h-.1a6.11 6.11 0 0 1-4.87 2.2 4.89 4.89 0 0 1-5.18-4.9c0-4.17 3.69-6.27 9.78-6.23v-.27c0-1.08-.44-2.88-3.35-2.88a8.69 8.69 0 0 0-4.43 1.22l-.82-2.71a11.93 11.93 0 0 1 6-1.45c5.28 0 6.8 3.35 6.8 6.93v6a26.23 26.23 0 0 0 .24 4zm-.54-8c-2.94-.07-5.75.57-5.75 3.08a2.19 2.19 0 0 0 2.37 2.37 3.4 3.4 0 0 0 3.25-2.27 3.09 3.09 0 0 0 .13-.92zM116.57 310.68h4.19v24h-4.19zM128.21 327.64c.1 3 2.44 4.26 5.08 4.26a12.45 12.45 0 0 0 4.56-.74l.61 2.87a15.39 15.39 0 0 1-5.75 1c-5.35 0-8.49-3.28-8.49-8.33 0-4.56 2.77-8.86 8.05-8.86s7.11 4.4 7.11 8a9.88 9.88 0 0 1-.14 1.76zm7.24-2.91c0-1.53-.64-4-3.42-4-2.57 0-3.65 2.33-3.82 4zM142.53 330.89a9.36 9.36 0 0 0 4.23 1.18c1.83 0 2.64-.74 2.64-1.83s-.68-1.69-2.71-2.4c-3.21-1.12-4.57-2.88-4.53-4.81 0-2.91 2.4-5.17 6.22-5.17a9.67 9.67 0 0 1 4.37 1l-.81 2.94a7.48 7.48 0 0 0-3.49-.94c-1.49 0-2.3.71-2.3 1.72s.78 1.56 2.88 2.3c3 1.09 4.36 2.61 4.4 5.05 0 3-2.34 5.14-6.7 5.14a10.6 10.6 0 0 1-5-1.15zM283.35 234.28a10.91 10.91 0 0 1-4.52.81c-4.82 0-8.45-3-8.45-8.65 0-5.36 3.63-9 8.94-9a9.12 9.12 0 0 1 4.06.76l-.54 1.8a8.1 8.1 0 0 0-3.45-.71c-4 0-6.68 2.57-6.68 7.06 0 4.19 2.42 6.88 6.58 6.88a8.88 8.88 0 0 0 3.61-.71zM286 226.39c0-1.45 0-2.7-.11-3.84h2l.08 2.41h.1a3.68 3.68 0 0 1 3.4-2.69 2.41 2.41 0 0 1 .63.08v2.11a2.81 2.81 0 0 0-.76-.08 3.13 3.13 0 0 0-3 2.87 6.26 6.26 0 0 0-.11 1v6.55H286zM295.26 229.1c.05 3 2 4.27 4.21 4.27a8 8 0 0 0 3.4-.64l.39 1.6a9.93 9.93 0 0 1-4.09.76c-3.79 0-6.05-2.48-6.05-6.19s2.19-6.63 5.77-6.63c4 0 5.08 3.53 5.08 5.79a7.43 7.43 0 0 1-.08 1zm6.55-1.6c0-1.42-.59-3.63-3.1-3.63-2.26 0-3.25 2.08-3.43 3.63zM313.54 234.84l-.18-1.55h-.08a4.54 4.54 0 0 1-3.75 1.83 3.5 3.5 0 0 1-3.76-3.53c0-3 2.64-4.6 7.39-4.57v-.25a2.54 2.54 0 0 0-2.8-2.85 6.14 6.14 0 0 0-3.2.92l-.5-1.48a7.61 7.61 0 0 1 4-1.09c3.76 0 4.68 2.57 4.68 5v4.59a17.62 17.62 0 0 0 .2 3zm-.33-6.27c-2.44 0-5.21.38-5.21 2.77a2 2 0 0 0 2.11 2.13 3.05 3.05 0 0 0 3-2.06 2.22 2.22 0 0 0 .13-.71zM321.56 219v3.53h3.2v1.7h-3.2v6.63c0 1.52.43 2.39 1.68 2.39a4.73 4.73 0 0 0 1.29-.16l.1 1.68a5.4 5.4 0 0 1-2 .3 3.09 3.09 0 0 1-2.41-.94 4.56 4.56 0 0 1-.86-3.19v-6.71h-1.91v-1.7h1.91v-2.94zM328.37 229.1c.05 3 2 4.27 4.21 4.27a8 8 0 0 0 3.4-.64l.38 1.6a9.83 9.83 0 0 1-4.08.76c-3.79 0-6-2.48-6-6.19s2.19-6.63 5.77-6.63c4 0 5.07 3.53 5.07 5.79a10 10 0 0 1-.07 1zm6.55-1.6c0-1.42-.59-3.63-3.1-3.63-2.26 0-3.25 2.08-3.43 3.63zM344.92 232.56a5.87 5.87 0 0 0 2.94.88c1.63 0 2.39-.81 2.39-1.82s-.63-1.65-2.29-2.26c-2.2-.79-3.25-2-3.25-3.48 0-2 1.6-3.61 4.25-3.61a6.22 6.22 0 0 1 3 .76l-.56 1.63a4.73 4.73 0 0 0-2.52-.71c-1.32 0-2 .76-2 1.67s.73 1.48 2.33 2.09c2.14.81 3.23 1.87 3.23 3.7 0 2.16-1.68 3.68-4.6 3.68a7.09 7.09 0 0 1-3.45-.83zM362.08 234.84l-.18-1.55h-.07a4.58 4.58 0 0 1-3.76 1.83 3.5 3.5 0 0 1-3.76-3.53c0-3 2.64-4.6 7.39-4.57v-.25a2.54 2.54 0 0 0-2.79-2.85 6.09 6.09 0 0 0-3.2.92l-.51-1.48a7.65 7.65 0 0 1 4-1.09c3.76 0 4.67 2.57 4.67 5v4.59a17.62 17.62 0 0 0 .2 3zm-.33-6.27c-2.44 0-5.2.38-5.2 2.77a2 2 0 0 0 2.1 2.13 3.05 3.05 0 0 0 3-2.06 2.22 2.22 0 0 0 .13-.71zM367.51 216.81h2.24v18h-2.24zM374.75 229.1c.05 3 2 4.27 4.21 4.27a8 8 0 0 0 3.41-.64l.38 1.6a9.93 9.93 0 0 1-4.09.76c-3.78 0-6-2.48-6-6.19s2.18-6.63 5.76-6.63c4 0 5.08 3.53 5.08 5.79a7.43 7.43 0 0 1-.08 1zm6.55-1.6c0-1.42-.58-3.63-3.1-3.63-2.26 0-3.25 2.08-3.43 3.63zM385.92 232.56a5.88 5.88 0 0 0 2.95.88c1.62 0 2.38-.81 2.38-1.82s-.63-1.65-2.28-2.26c-2.21-.79-3.25-2-3.25-3.48 0-2 1.6-3.61 4.24-3.61a6.22 6.22 0 0 1 3 .76l-.56 1.63a4.72 4.72 0 0 0-2.51-.71c-1.32 0-2.06.76-2.06 1.67s.74 1.48 2.34 2.09c2.13.81 3.22 1.87 3.22 3.7 0 2.16-1.68 3.68-4.6 3.68a7.09 7.09 0 0 1-3.45-.83zM412.78 228.59c0 4.55-3.15 6.53-6.12 6.53-3.32 0-5.89-2.44-5.89-6.32 0-4.12 2.69-6.53 6.1-6.53s5.91 2.57 5.91 6.32zm-9.75.13c0 2.69 1.55 4.72 3.73 4.72s3.74-2 3.74-4.77c0-2.08-1-4.72-3.69-4.72s-3.81 2.44-3.81 4.77zM415.6 226.39c0-1.45 0-2.7-.1-3.84h1.95l.08 2.41h.1a3.68 3.68 0 0 1 3.4-2.69 2.49 2.49 0 0 1 .64.08v2.11a2.91 2.91 0 0 0-.76-.08 3.13 3.13 0 0 0-3 2.87 6.33 6.33 0 0 0-.1 1v6.55h-2.21zM434.26 216.81v14.86c0 1.09 0 2.33.1 3.17h-2l-.11-2.13h-.05a4.54 4.54 0 0 1-4.19 2.41c-3 0-5.25-2.51-5.25-6.25 0-4.08 2.51-6.6 5.51-6.6a4.09 4.09 0 0 1 3.7 1.88h.03v-7.34zM432 227.55a3.77 3.77 0 0 0-.11-.94 3.29 3.29 0 0 0-3.19-2.61c-2.31 0-3.68 2-3.68 4.75 0 2.49 1.22 4.55 3.63 4.55a3.35 3.35 0 0 0 3.27-2.67 3.67 3.67 0 0 0 .11-1zM439.21 229.1c.05 3 2 4.27 4.21 4.27a8 8 0 0 0 3.41-.64l.38 1.6a9.89 9.89 0 0 1-4.09.76c-3.78 0-6-2.48-6-6.19s2.18-6.63 5.76-6.63c4 0 5.08 3.53 5.08 5.79a7.43 7.43 0 0 1-.08 1zm6.55-1.6c0-1.42-.58-3.63-3.1-3.63-2.26 0-3.25 2.08-3.42 3.63zM450.69 226.39c0-1.45 0-2.7-.11-3.84h2l.08 2.41h.1a3.68 3.68 0 0 1 3.4-2.69 2.41 2.41 0 0 1 .63.08v2.11a2.81 2.81 0 0 0-.76-.08 3.13 3.13 0 0 0-3 2.87 6.26 6.26 0 0 0-.11 1v6.55h-2.2zM458.68 232.56a5.88 5.88 0 0 0 2.95.88c1.62 0 2.38-.81 2.38-1.82s-.63-1.65-2.28-2.26c-2.21-.79-3.25-2-3.25-3.48 0-2 1.6-3.61 4.24-3.61a6.19 6.19 0 0 1 3 .76l-.56 1.63a4.72 4.72 0 0 0-2.51-.71c-1.32 0-2.06.76-2.06 1.67s.74 1.48 2.34 2.09c2.13.81 3.22 1.87 3.22 3.7 0 2.16-1.67 3.68-4.59 3.68a7.13 7.13 0 0 1-3.46-.83zM284.42 289.08a16.12 16.12 0 0 1-5.26.94 8 8 0 0 1-8.78-8.63c0-5.11 3.53-8.84 9.27-8.84a10.47 10.47 0 0 1 4.26.79l-.53 1.8a8.85 8.85 0 0 0-3.79-.74c-4.16 0-6.88 2.59-6.88 6.88s2.62 6.91 6.61 6.91a7.09 7.09 0 0 0 2.94-.46v-5.1h-3.48v-1.78h5.64zM289.09 284.1c.05 3 2 4.27 4.21 4.27a8 8 0 0 0 3.41-.64l.38 1.6a9.93 9.93 0 0 1-4.09.76c-3.78 0-6-2.48-6-6.19s2.18-6.63 5.76-6.63c4 0 5.08 3.53 5.08 5.79a7.43 7.43 0 0 1-.08 1zm6.55-1.6c0-1.42-.58-3.63-3.1-3.63-2.26 0-3.25 2.08-3.43 3.63zM300.56 280.88c0-1.27 0-2.31-.1-3.33h2l.13 2h.05a4.51 4.51 0 0 1 4.06-2.31c1.7 0 4.35 1 4.35 5.23v7.34h-2.24v-7.08c0-2-.74-3.63-2.84-3.63a3.17 3.17 0 0 0-3 2.28 3.26 3.26 0 0 0-.15 1v7.39h-2.24zM315.9 284.1c.05 3 2 4.27 4.21 4.27a8 8 0 0 0 3.41-.64l.38 1.6a9.93 9.93 0 0 1-4.09.76c-3.78 0-6-2.48-6-6.19s2.18-6.63 5.76-6.63c4 0 5.08 3.53 5.08 5.79a7.43 7.43 0 0 1-.08 1zm6.55-1.6c0-1.42-.58-3.63-3.1-3.63-2.26 0-3.25 2.08-3.43 3.63zM327.37 281.39c0-1.45 0-2.7-.1-3.84h2l.07 2.41h.11a3.67 3.67 0 0 1 3.4-2.69 2.41 2.41 0 0 1 .63.08v2.11a2.86 2.86 0 0 0-.76-.08 3.13 3.13 0 0 0-3 2.87 5.35 5.35 0 0 0-.11 1v6.55h-2.21zM342.35 289.84l-.17-1.55h-.08a4.58 4.58 0 0 1-3.76 1.83 3.5 3.5 0 0 1-3.76-3.53c0-3 2.65-4.6 7.39-4.57v-.25a2.54 2.54 0 0 0-2.79-2.85 6.11 6.11 0 0 0-3.2.92l-.51-1.48a7.65 7.65 0 0 1 4-1.09c3.76 0 4.67 2.57 4.67 5v4.59a16.55 16.55 0 0 0 .21 2.95zm-.33-6.27c-2.43-.05-5.2.38-5.2 2.77a2 2 0 0 0 2.11 2.13 3.06 3.06 0 0 0 3-2.06 2.52 2.52 0 0 0 .12-.71zM350.38 274v3.53h3.2v1.7h-3.2v6.63c0 1.52.43 2.39 1.67 2.39a4.76 4.76 0 0 0 1.3-.16l.1 1.68a5.44 5.44 0 0 1-2 .3 3.09 3.09 0 0 1-2.41-.94 4.51 4.51 0 0 1-.87-3.19v-6.71h-1.9v-1.7h1.9v-2.94zM357.18 284.1c.05 3 2 4.27 4.22 4.27a8 8 0 0 0 3.4-.64l.38 1.6a9.89 9.89 0 0 1-4.09.76c-3.78 0-6-2.48-6-6.19s2.18-6.63 5.76-6.63c4 0 5.08 3.53 5.08 5.79a7.43 7.43 0 0 1-.08 1zm6.55-1.6c0-1.42-.58-3.63-3.1-3.63-2.26 0-3.25 2.08-3.42 3.63zM376.88 284.46l-1.78 5.38h-2.28l5.81-17.11h2.67l5.84 17.11h-2.36l-1.78-5.38zm5.61-1.73l-1.67-4.92c-.38-1.12-.64-2.14-.89-3.13h-.05c-.26 1-.54 2.06-.87 3.1l-1.67 5zM399.88 271.81v14.86c0 1.09 0 2.33.11 3.17h-2l-.1-2.13h-.05a4.56 4.56 0 0 1-4.19 2.41c-3 0-5.26-2.51-5.26-6.25 0-4.08 2.52-6.6 5.51-6.6a4.12 4.12 0 0 1 3.71 1.88v-7.34zm-2.23 10.74a4.29 4.29 0 0 0-.1-.94 3.29 3.29 0 0 0-3.23-2.59c-2.31 0-3.68 2-3.68 4.75 0 2.49 1.22 4.55 3.63 4.55a3.36 3.36 0 0 0 3.28-2.67 4.16 4.16 0 0 0 .1-1zM404.45 277.55l2.42 6.91c.4 1.11.73 2.13 1 3.15h.07c.28-1 .64-2 1-3.15l2.39-6.91h2.34l-4.83 12.29h-2.13l-4.67-12.29zM422.51 289.84l-.18-1.55h-.08a4.55 4.55 0 0 1-3.76 1.83 3.5 3.5 0 0 1-3.75-3.53c0-3 2.64-4.6 7.38-4.57v-.25a2.53 2.53 0 0 0-2.79-2.85 6.14 6.14 0 0 0-3.2.92l-.51-1.48a7.65 7.65 0 0 1 4-1.09c3.76 0 4.67 2.57 4.67 5v4.59a16.55 16.55 0 0 0 .21 2.95zm-.33-6.27c-2.44-.05-5.21.38-5.21 2.77a2 2 0 0 0 2.11 2.13 3.06 3.06 0 0 0 3-2.06 2.53 2.53 0 0 0 .13-.71zM427.94 280.88c0-1.27 0-2.31-.1-3.33h2l.12 2h.04a4.5 4.5 0 0 1 4.06-2.31c1.7 0 4.34 1 4.34 5.23v7.34h-2.24v-7.08c0-2-.73-3.63-2.84-3.63a3.17 3.17 0 0 0-3 2.28 3 3 0 0 0-.16 1v7.39h-2.23zM450.79 289.38a8.14 8.14 0 0 1-3.53.71c-3.71 0-6.12-2.51-6.12-6.27a6.24 6.24 0 0 1 6.6-6.52 7.57 7.57 0 0 1 3.1.63l-.51 1.73a5.1 5.1 0 0 0-2.59-.59c-2.82 0-4.34 2.09-4.34 4.65 0 2.84 1.83 4.6 4.27 4.6a6.34 6.34 0 0 0 2.74-.61zM454.5 284.1c.05 3 2 4.27 4.21 4.27a8 8 0 0 0 3.4-.64l.38 1.6a9.83 9.83 0 0 1-4.08.76c-3.79 0-6.05-2.48-6.05-6.19s2.19-6.63 5.77-6.63c4 0 5.08 3.53 5.08 5.79a9.4 9.4 0 0 1-.08 1zm6.55-1.6c0-1.42-.59-3.63-3.1-3.63-2.26 0-3.25 2.08-3.43 3.63zM471.12 287.15a7.87 7.87 0 0 0 4 1.12c2.26 0 3.58-1.2 3.58-2.92s-.92-2.52-3.23-3.41c-2.79-1-4.52-2.43-4.52-4.85 0-2.66 2.21-4.64 5.54-4.64a7.66 7.66 0 0 1 3.78.84l-.61 1.8a6.76 6.76 0 0 0-3.25-.81c-2.34 0-3.22 1.39-3.22 2.56 0 1.6 1 2.39 3.4 3.3 2.89 1.12 4.37 2.51 4.37 5s-2 4.92-6 4.92a8.8 8.8 0 0 1-4.36-1.09zM483.87 271.81h2.23v7.67h.06a4.14 4.14 0 0 1 1.59-1.57 4.62 4.62 0 0 1 2.29-.64c1.65 0 4.29 1 4.29 5.26v7.31h-2.23v-7.06c0-2-.74-3.65-2.85-3.65a3.2 3.2 0 0 0-3 2.23 2.62 2.62 0 0 0-.16 1.07v7.41h-2.23zM500.45 274.1a1.39 1.39 0 0 1-2.77 0 1.37 1.37 0 0 1 1.4-1.4 1.33 1.33 0 0 1 1.37 1.4zM498 289.84v-12.29h2.24v12.29zM503.9 281.56c0-1.57 0-2.84-.1-4h2l.1 2.11a4.83 4.83 0 0 1 4.37-2.39c3 0 5.2 2.52 5.2 6.25 0 4.42-2.69 6.6-5.59 6.6a4.31 4.31 0 0 1-3.78-1.93h-.05v6.68h-2.15zm2.21 3.28a5.07 5.07 0 0 0 .1.91 3.45 3.45 0 0 0 3.35 2.62c2.36 0 3.74-1.93 3.74-4.75 0-2.46-1.3-4.57-3.66-4.57a3.57 3.57 0 0 0-3.38 2.77 3.93 3.93 0 0 0-.15.91zM518.35 280.88c0-1.27 0-2.31-.1-3.33h2l.1 2h.08a4.23 4.23 0 0 1 3.86-2.26 3.65 3.65 0 0 1 3.48 2.46 5 5 0 0 1 1.37-1.59 4.17 4.17 0 0 1 2.71-.87c1.63 0 4 1.07 4 5.33v7.24h-2.18v-7c0-2.36-.87-3.78-2.67-3.78a2.89 2.89 0 0 0-2.64 2 3.75 3.75 0 0 0-.18 1.12v7.59H526v-7.36c0-2-.86-3.38-2.56-3.38a3.33 3.33 0 0 0-3 3.33v7.41h-2.18zM540.76 284.1c.06 3 2 4.27 4.22 4.27a8 8 0 0 0 3.4-.64l.38 1.6a9.85 9.85 0 0 1-4.09.76c-3.78 0-6-2.48-6-6.19s2.19-6.63 5.77-6.63c4 0 5.07 3.53 5.07 5.79a10 10 0 0 1-.07 1zm6.56-1.6c0-1.42-.59-3.63-3.1-3.63-2.26 0-3.25 2.08-3.43 3.63zM552.24 280.88c0-1.27 0-2.31-.1-3.33h2l.13 2a4.51 4.51 0 0 1 4.06-2.31c1.7 0 4.34 1 4.34 5.23v7.34h-2.23v-7.08c0-2-.74-3.63-2.85-3.63a3.17 3.17 0 0 0-3 2.28 3.25 3.25 0 0 0-.16 1v7.39h-2.23zM568.92 274v3.53h3.2v1.7h-3.2v6.63c0 1.52.43 2.39 1.68 2.39a4.73 4.73 0 0 0 1.29-.16l.1 1.68a5.4 5.4 0 0 1-2 .3 3.09 3.09 0 0 1-2.41-.94 4.56 4.56 0 0 1-.86-3.19v-6.71h-1.91v-1.7h1.91v-2.94zM580.09 289.84v-17.11h2.41l5.49 8.66a46.83 46.83 0 0 1 3.07 5.56h.05c-.2-2.28-.25-4.37-.25-7v-7.16h2.08v17.11h-2.24l-5.43-8.68a54.35 54.35 0 0 1-3.2-5.72H582c.12 2.16.17 4.21.17 7.06v7.31zM607.84 283.59c0 4.55-3.15 6.53-6.12 6.53-3.32 0-5.89-2.44-5.89-6.32 0-4.12 2.69-6.53 6.09-6.53s5.92 2.57 5.92 6.32zm-9.75.13c0 2.69 1.55 4.72 3.73 4.72s3.74-2 3.74-4.77c0-2.08-1-4.72-3.69-4.72s-3.78 2.44-3.78 4.77zM613.35 274v3.53h3.2v1.7h-3.2v6.63c0 1.52.43 2.39 1.68 2.39a4.73 4.73 0 0 0 1.29-.16l.1 1.68a5.44 5.44 0 0 1-2 .3 3.09 3.09 0 0 1-2.41-.94 4.51 4.51 0 0 1-.86-3.19v-6.71h-1.91v-1.7h1.91v-2.94zM621.55 274.1a1.31 1.31 0 0 1-1.42 1.37 1.33 1.33 0 0 1-1.35-1.37 1.37 1.37 0 0 1 1.4-1.4 1.33 1.33 0 0 1 1.37 1.4zm-2.49 15.74v-12.29h2.24v12.29zM625.23 289.84v-10.59h-1.73v-1.7h1.73v-.66c0-3.25 1.9-5.36 5.36-5.36a6.1 6.1 0 0 1 3.12.82l-.63 1.7a4.73 4.73 0 0 0-2.59-.71c-2.37 0-3 1.65-3 3.6v.61h7.13v12.29h-2.2v-10.59h-4.93v10.59zM647 289.38a8.14 8.14 0 0 1-3.53.71c-3.71 0-6.12-2.51-6.12-6.27a6.24 6.24 0 0 1 6.6-6.52 7.57 7.57 0 0 1 3.1.63l-.51 1.73a5.1 5.1 0 0 0-2.59-.59c-2.82 0-4.34 2.09-4.34 4.65 0 2.84 1.83 4.6 4.27 4.6a6.34 6.34 0 0 0 2.74-.61zM656.46 289.84l-.18-1.55h-.07a4.58 4.58 0 0 1-3.76 1.83 3.5 3.5 0 0 1-3.76-3.53c0-3 2.64-4.6 7.39-4.57v-.25a2.54 2.54 0 0 0-2.79-2.85 6.09 6.09 0 0 0-3.2.92l-.51-1.48a7.62 7.62 0 0 1 4-1.09c3.75 0 4.67 2.57 4.67 5v4.59a17.62 17.62 0 0 0 .2 2.95zm-.33-6.27c-2.44-.05-5.21.38-5.21 2.77a2 2 0 0 0 2.11 2.13 3.05 3.05 0 0 0 3-2.06 2.22 2.22 0 0 0 .13-.71zM664.48 274v3.53h3.2v1.7h-3.2v6.63c0 1.52.43 2.39 1.68 2.39a4.73 4.73 0 0 0 1.29-.16l.1 1.68a5.4 5.4 0 0 1-2 .3 3.09 3.09 0 0 1-2.41-.94 4.56 4.56 0 0 1-.86-3.19v-6.71h-1.91v-1.7h1.91v-2.94zM672.68 274.1a1.31 1.31 0 0 1-1.42 1.37 1.33 1.33 0 0 1-1.35-1.37 1.37 1.37 0 0 1 1.4-1.4 1.33 1.33 0 0 1 1.37 1.4zm-2.49 15.74v-12.29h2.24v12.29zM687.25 283.59c0 4.55-3.14 6.53-6.11 6.53-3.33 0-5.89-2.44-5.89-6.32 0-4.12 2.69-6.53 6.09-6.53s5.91 2.57 5.91 6.32zm-9.75.13c0 2.69 1.55 4.72 3.74 4.72s3.73-2 3.73-4.77c0-2.08-1-4.72-3.68-4.72s-3.79 2.44-3.79 4.77zM690.07 280.88c0-1.27 0-2.31-.1-3.33h2l.13 2a4.51 4.51 0 0 1 4.06-2.31c1.7 0 4.34 1 4.34 5.23v7.34h-2.2v-7.08c0-2-.74-3.63-2.84-3.63a3.17 3.17 0 0 0-3 2.28 3.26 3.26 0 0 0-.15 1v7.39h-2.24zM714.39 272.22a16.77 16.77 0 0 0-3.19 10.38 17.13 17.13 0 0 0 3.19 10.31h-1.75a16.38 16.38 0 0 1-3.32-10.31 16.71 16.71 0 0 1 3.32-10.38zM719.32 284.46l-1.78 5.38h-2.28l5.81-17.11h2.67l5.84 17.11h-2.36l-1.83-5.38zm5.61-1.73l-1.68-4.92c-.38-1.12-.63-2.14-.88-3.13-.26 1-.54 2.06-.87 3.1l-1.67 5zM731.79 287.15a7.8 7.8 0 0 0 4 1.12c2.26 0 3.58-1.2 3.58-2.92s-.92-2.52-3.23-3.41c-2.79-1-4.52-2.43-4.52-4.85 0-2.66 2.21-4.64 5.54-4.64a7.66 7.66 0 0 1 3.78.84l-.61 1.8a6.76 6.76 0 0 0-3.25-.81c-2.33 0-3.22 1.39-3.22 2.56 0 1.6 1 2.39 3.4 3.3 2.89 1.12 4.37 2.51 4.37 5s-2 4.92-6 4.92a8.8 8.8 0 0 1-4.36-1.09zM744.61 289.84v-17.11H747l5.48 8.66a48.48 48.48 0 0 1 3.08 5.56c-.21-2.28-.26-4.37-.26-7v-7.16h2.08v17.11h-2.23l-5.43-8.68a52.61 52.61 0 0 1-3.2-5.72h-.08c.13 2.16.18 4.21.18 7.06v7.31zM759.89 292.91a17.18 17.18 0 0 0 3.2-10.38 16.8 16.8 0 0 0-3.2-10.31h1.73a16.19 16.19 0 0 1 3.32 10.33 16.51 16.51 0 0 1-3.32 10.36zM273.6 327.73v10.13c0 3.83 1.7 5.46 4 5.46 2.54 0 4.16-1.68 4.16-5.46v-10.13H284v10c0 5.25-2.77 7.41-6.48 7.41-3.5 0-6.14-2-6.14-7.31v-10.1zM287.74 335.88c0-1.27 0-2.31-.1-3.33h2l.13 2h.05a4.51 4.51 0 0 1 4.06-2.31c1.7 0 4.34 1 4.34 5.23v7.34H296v-7.08c0-2-.74-3.63-2.84-3.63a3.17 3.17 0 0 0-3 2.28 3.26 3.26 0 0 0-.15 1v7.39h-2.24zM312.45 326.81v14.86c0 1.09 0 2.33.1 3.17h-2l-.1-2.13h-.05a4.54 4.54 0 0 1-4.19 2.41c-3 0-5.25-2.51-5.25-6.25 0-4.08 2.51-6.6 5.51-6.6a4.11 4.11 0 0 1 3.7 1.88v-7.34zm-2.24 10.74a3.76 3.76 0 0 0-.1-.94 3.29 3.29 0 0 0-3.22-2.59c-2.31 0-3.68 2-3.68 4.75 0 2.49 1.21 4.55 3.63 4.55a3.35 3.35 0 0 0 3.27-2.67 3.68 3.68 0 0 0 .1-1zM317.4 339.1c.05 3 2 4.27 4.21 4.27a8 8 0 0 0 3.4-.64l.39 1.6a9.93 9.93 0 0 1-4.09.76c-3.79 0-6.05-2.48-6.05-6.19s2.19-6.63 5.77-6.63c4 0 5.08 3.53 5.08 5.79a7.43 7.43 0 0 1-.08 1zm6.55-1.6c0-1.42-.59-3.63-3.1-3.63-2.26 0-3.25 2.08-3.43 3.63zM328.87 336.39c0-1.45 0-2.7-.1-3.84h2l.07 2.41h.1a3.69 3.69 0 0 1 3.41-2.69 2.41 2.41 0 0 1 .63.08v2.11a2.91 2.91 0 0 0-.76-.08 3.14 3.14 0 0 0-3 2.87 6.33 6.33 0 0 0-.1 1v6.55h-2.21zM340.48 329v3.53h3.19v1.7h-3.19v6.63c0 1.52.43 2.39 1.67 2.39a4.76 4.76 0 0 0 1.3-.16l.1 1.68a5.44 5.44 0 0 1-2 .3 3.09 3.09 0 0 1-2.41-.94 4.51 4.51 0 0 1-.87-3.19v-6.71h-1.9v-1.7h1.9v-2.94zM353 344.84l-.18-1.55h-.07a4.58 4.58 0 0 1-3.76 1.83 3.5 3.5 0 0 1-3.76-3.53c0-3 2.64-4.6 7.39-4.57v-.25a2.54 2.54 0 0 0-2.79-2.85 6.11 6.11 0 0 0-3.2.92l-.51-1.48a7.65 7.65 0 0 1 4-1.09c3.76 0 4.67 2.57 4.67 5v4.59a17.62 17.62 0 0 0 .2 2.95zm-.33-6.27c-2.44-.05-5.2.38-5.2 2.77a2 2 0 0 0 2.1 2.13 3.08 3.08 0 0 0 3-2.06 2.52 2.52 0 0 0 .12-.71zM360.63 338.19h.05c.31-.43.74-1 1.1-1.4l3.6-4.24h2.69l-4.74 5.05 5.4 7.24H366l-4.22-5.84-1.15 1.27v4.62h-2.21v-18h2.21zM371.58 339.1c.05 3 2 4.27 4.21 4.27a8 8 0 0 0 3.4-.64l.38 1.6a9.83 9.83 0 0 1-4.08.76c-3.79 0-6.05-2.48-6.05-6.19s2.19-6.63 5.77-6.63c4 0 5.08 3.53 5.08 5.79a9.4 9.4 0 0 1-.08 1zm6.55-1.6c0-1.42-.59-3.63-3.1-3.63-2.26 0-3.25 2.08-3.43 3.63zM388.13 342.56a5.87 5.87 0 0 0 2.94.88c1.63 0 2.39-.81 2.39-1.82s-.63-1.65-2.28-2.26c-2.21-.79-3.25-2-3.25-3.48 0-2 1.6-3.61 4.24-3.61a6.22 6.22 0 0 1 3 .76l-.56 1.63a4.72 4.72 0 0 0-2.51-.71c-1.33 0-2.06.76-2.06 1.67s.73 1.48 2.33 2.09c2.14.81 3.23 1.87 3.23 3.7 0 2.16-1.68 3.68-4.6 3.68a7.09 7.09 0 0 1-3.45-.83zM405.29 344.84l-.18-1.55H405a4.58 4.58 0 0 1-3.76 1.83 3.5 3.5 0 0 1-3.76-3.53c0-3 2.64-4.6 7.39-4.57v-.25a2.54 2.54 0 0 0-2.79-2.85 6.11 6.11 0 0 0-3.2.92l-.51-1.48a7.65 7.65 0 0 1 4-1.09c3.76 0 4.67 2.57 4.67 5v4.59a17.62 17.62 0 0 0 .2 2.95zm-.33-6.27c-2.44-.05-5.2.38-5.2 2.77a2 2 0 0 0 2.1 2.13 3.05 3.05 0 0 0 3-2.06 2.22 2.22 0 0 0 .13-.71zM410.72 326.81H413v18h-2.24zM418 339.1c.05 3 2 4.27 4.21 4.27a8 8 0 0 0 3.41-.64l.38 1.6a9.89 9.89 0 0 1-4.09.76c-3.78 0-6-2.48-6-6.19s2.18-6.63 5.76-6.63c4 0 5.08 3.53 5.08 5.79a7.43 7.43 0 0 1-.08 1zm6.55-1.6c0-1.42-.58-3.63-3.1-3.63-2.26 0-3.25 2.08-3.42 3.63zM429.13 342.56a5.88 5.88 0 0 0 2.95.88c1.62 0 2.38-.81 2.38-1.82s-.63-1.65-2.28-2.26c-2.21-.79-3.25-2-3.25-3.48 0-2 1.6-3.61 4.24-3.61a6.22 6.22 0 0 1 3 .76l-.56 1.63a4.72 4.72 0 0 0-2.51-.71c-1.32 0-2.06.76-2.06 1.67s.74 1.48 2.34 2.09c2.13.81 3.22 1.87 3.22 3.7 0 2.16-1.67 3.68-4.59 3.68a7.13 7.13 0 0 1-3.46-.83zM444.87 336.39c0-1.45 0-2.7-.1-3.84h2l.08 2.41h.1a3.69 3.69 0 0 1 3.4-2.69 2.43 2.43 0 0 1 .64.08v2.11a2.91 2.91 0 0 0-.76-.08 3.13 3.13 0 0 0-3 2.87 6.33 6.33 0 0 0-.1 1v6.55h-2.21zM454.16 339.1c0 3 2 4.27 4.22 4.27a8 8 0 0 0 3.4-.64l.38 1.6a9.89 9.89 0 0 1-4.09.76c-3.78 0-6-2.48-6-6.19s2.18-6.63 5.76-6.63c4 0 5.08 3.53 5.08 5.79a10 10 0 0 1-.07 1zm6.55-1.6c0-1.42-.58-3.63-3.09-3.63-2.26 0-3.25 2.08-3.43 3.63zM465.64 336.56c0-1.57-.05-2.84-.1-4h2l.1 2.11h.06a4.82 4.82 0 0 1 4.36-2.39c3 0 5.21 2.52 5.21 6.25 0 4.42-2.69 6.6-5.59 6.6a4.3 4.3 0 0 1-3.78-1.93v6.68h-2.21zm2.21 3.28a5.07 5.07 0 0 0 .1.91 3.45 3.45 0 0 0 3.35 2.62c2.36 0 3.73-1.93 3.73-4.75 0-2.46-1.29-4.57-3.65-4.57a3.56 3.56 0 0 0-3.38 2.77 3.47 3.47 0 0 0-.15.91zM491.21 338.59c0 4.55-3.15 6.53-6.12 6.53-3.33 0-5.89-2.44-5.89-6.32 0-4.12 2.69-6.53 6.09-6.53s5.92 2.57 5.92 6.32zm-9.75.13c0 2.69 1.54 4.72 3.73 4.72s3.73-2 3.73-4.77c0-2.08-1-4.72-3.68-4.72s-3.78 2.44-3.78 4.77zM494 336.39c0-1.45 0-2.7-.1-3.84h2l.1 2.45h.1a3.69 3.69 0 0 1 3.41-2.69 2.41 2.41 0 0 1 .63.08v2.11a2.91 2.91 0 0 0-.76-.08 3.13 3.13 0 0 0-3 2.87 6.33 6.33 0 0 0-.1 1v6.55H494zM505.62 329v3.53h3.2v1.7h-3.2v6.63c0 1.52.44 2.39 1.68 2.39a4.67 4.67 0 0 0 1.29-.16l.11 1.68a5.48 5.48 0 0 1-2 .3 3.11 3.11 0 0 1-2.42-.94 4.56 4.56 0 0 1-.86-3.19v-6.71h-1.9v-1.7h1.9v-2.94zM513.82 329.1a1.31 1.31 0 0 1-1.42 1.37 1.33 1.33 0 0 1-1.34-1.37 1.36 1.36 0 0 1 1.39-1.4 1.33 1.33 0 0 1 1.37 1.4zm-2.48 15.74v-12.29h2.23v12.29zM517.28 335.88c0-1.27 0-2.31-.11-3.33h2l.12 2h.05a4.52 4.52 0 0 1 4.07-2.31c1.7 0 4.34 1 4.34 5.23v7.34h-2.25v-7.08c0-2-.73-3.63-2.84-3.63a3.18 3.18 0 0 0-3 2.28 3.26 3.26 0 0 0-.15 1v7.39h-2.23zM542 332.55c-.06.89-.11 1.88-.11 3.38v7.13c0 2.82-.56 4.55-1.75 5.61a6.5 6.5 0 0 1-4.47 1.48 8 8 0 0 1-4.09-1l.56-1.7a7 7 0 0 0 3.61 1c2.28 0 4-1.19 4-4.29v-1.37a4.38 4.38 0 0 1-3.91 2.06c-3.05 0-5.23-2.59-5.23-6 0-4.17 2.72-6.53 5.53-6.53a4.11 4.11 0 0 1 3.84 2.13l.1-1.85zm-2.32 4.85a3.18 3.18 0 0 0-.12-1 3.23 3.23 0 0 0-3.13-2.37c-2.13 0-3.65 1.81-3.65 4.65 0 2.41 1.22 4.42 3.63 4.42a3.28 3.28 0 0 0 3.1-2.29 4.08 4.08 0 0 0 .17-1.19zM22.93 493.2a42.74 42.74 0 0 1 6.64-.47c4.26 0 7.21.88 9.3 2.64s3.56 4.5 3.56 8.39c0 4.07-1.39 7.11-3.56 9.07S33 516 28.55 516a45.31 45.31 0 0 1-5.62-.31zm4.17 19.33a15.66 15.66 0 0 0 2.3.1c5.41 0 8.63-2.94 8.63-8.73 0-5-2.88-7.92-8.09-7.92a12.9 12.9 0 0 0-2.84.24zM55.16 515.71l-.27-1.83h-.1a6.13 6.13 0 0 1-4.88 2.2 4.9 4.9 0 0 1-5.18-4.9c0-4.17 3.69-6.27 9.79-6.23v-.27c0-1.08-.44-2.88-3.36-2.88a8.75 8.75 0 0 0-4.43 1.2l-.81-2.71a11.92 11.92 0 0 1 5.95-1.45c5.29 0 6.81 3.35 6.81 6.93v6a27.78 27.78 0 0 0 .23 4zm-.54-8.05c-2.95-.07-5.76.57-5.76 3.08a2.19 2.19 0 0 0 2.37 2.37 3.38 3.38 0 0 0 3.25-2.27 3.12 3.12 0 0 0 .14-.92zM67.65 494.52v4.71h4v3.11h-4v7.28c0 2 .54 3 2.13 3a6.27 6.27 0 0 0 1.63-.21l.06 3.18a9 9 0 0 1-3 .41 4.86 4.86 0 0 1-3.59-1.35c-.87-1-1.28-2.44-1.28-4.61v-7.75h-2.38v-3.11h2.37v-3.72zM84 515.71l-.27-1.83h-.1a6.1 6.1 0 0 1-4.87 2.2 4.89 4.89 0 0 1-5.18-4.9c0-4.17 3.69-6.27 9.78-6.23v-.27c0-1.08-.44-2.88-3.35-2.88a8.69 8.69 0 0 0-4.4 1.2l-.82-2.71a11.93 11.93 0 0 1 6-1.45c5.28 0 6.8 3.35 6.8 6.93v6a26.23 26.23 0 0 0 .24 4zm-.54-8.05c-2.94-.07-5.75.57-5.75 3.08a2.19 2.19 0 0 0 2.37 2.37 3.39 3.39 0 0 0 3.25-2.27 3.09 3.09 0 0 0 .13-.92zM98.76 511.89a9.36 9.36 0 0 0 4.23 1.18c1.83 0 2.64-.74 2.64-1.83s-.68-1.69-2.71-2.4c-3.21-1.12-4.57-2.88-4.53-4.81 0-2.91 2.4-5.17 6.23-5.17a9.66 9.66 0 0 1 4.36 1l-.81 2.94a7.48 7.48 0 0 0-3.49-.94c-1.49 0-2.3.71-2.3 1.72s.78 1.56 2.88 2.3c3 1.09 4.36 2.61 4.4 5.05 0 3-2.34 5.14-6.7 5.14a10.6 10.6 0 0 1-5-1.15zM115.69 499.23l3 8.83c.34 1 .68 2.27.92 3.22h.1c.27-.95.57-2.17.88-3.25l2.57-8.8h4.47l-4.13 11.24c-2.27 6.15-3.79 8.9-5.75 10.59a8.39 8.39 0 0 1-4.37 2.13l-.95-3.52a7.18 7.18 0 0 0 2.44-1.15 7.3 7.3 0 0 0 2.27-2.61 1.64 1.64 0 0 0 .27-.74 1.79 1.79 0 0 0-.24-.81l-6-15.13zM129.4 511.89a9.32 9.32 0 0 0 4.23 1.18c1.82 0 2.64-.74 2.64-1.83s-.68-1.69-2.71-2.4C130.34 507.72 129 506 129 504c0-2.91 2.41-5.17 6.23-5.17a9.67 9.67 0 0 1 4.37 1l-.82 2.94a7.47 7.47 0 0 0-3.48-.94c-1.49 0-2.3.71-2.3 1.72s.78 1.56 2.87 2.3c3 1.09 4.37 2.61 4.4 5.05 0 3-2.33 5.14-6.7 5.14a10.63 10.63 0 0 1-5-1.15zM148.49 494.52v4.71h4v3.11h-4v7.28c0 2 .54 3 2.13 3a6.12 6.12 0 0 0 1.62-.21l.07 3.18a9 9 0 0 1-3 .41 4.86 4.86 0 0 1-3.59-1.35c-.88-1-1.29-2.44-1.29-4.61v-7.75h-2.36v-3.11h2.36v-3.72zM158.34 508.64c.1 3 2.43 4.26 5.07 4.26a12.47 12.47 0 0 0 4.57-.74l.61 2.87a15.39 15.39 0 0 1-5.75 1c-5.35 0-8.5-3.28-8.5-8.33 0-4.56 2.78-8.86 8.06-8.86s7.11 4.4 7.11 8a9.88 9.88 0 0 1-.14 1.76zm7.24-2.91c0-1.53-.64-4-3.42-4-2.57 0-3.65 2.33-3.82 4zM172.86 504.14c0-1.9 0-3.49-.14-4.91h3.59l.17 2.44h.1a5.69 5.69 0 0 1 5.08-2.81 4.75 4.75 0 0 1 4.57 3h.07a6.16 6.16 0 0 1 2-2.06 5.5 5.5 0 0 1 3.31-1c2.74 0 5.52 1.86 5.52 7.14v9.71h-4.03v-9.1c0-2.74-.95-4.37-2.95-4.37a3.18 3.18 0 0 0-2.91 2.2 6 6 0 0 0-.2 1.39v9.88H183v-9.54c0-2.3-.91-3.93-2.84-3.93a3.25 3.25 0 0 0-3 2.37 3.56 3.56 0 0 0-.24 1.35v9.75h-4.06zM201.36 511.89a9.36 9.36 0 0 0 4.23 1.18c1.83 0 2.64-.74 2.64-1.83s-.67-1.69-2.7-2.4C202.31 507.72 201 506 201 504c0-2.91 2.4-5.17 6.23-5.17a9.62 9.62 0 0 1 4.36 1l-.81 2.94a7.47 7.47 0 0 0-3.48-.94c-1.49 0-2.31.71-2.31 1.72s.78 1.56 2.88 2.3c3 1.09 4.37 2.61 4.4 5.05 0 3-2.34 5.14-6.7 5.14a10.6 10.6 0 0 1-5-1.15zM274.16 424.46l-1.78 5.38h-2.28l5.81-17.11h2.67l5.84 17.11h-2.36l-1.83-5.38zm5.61-1.73l-1.67-4.92c-.38-1.12-.64-2.14-.89-3.13-.26 1-.54 2.06-.87 3.1l-1.67 5zM286.78 421.39c0-1.45 0-2.7-.1-3.84h1.95l.08 2.41h.1a3.68 3.68 0 0 1 3.4-2.69 2.49 2.49 0 0 1 .64.08v2.11a2.91 2.91 0 0 0-.76-.08 3.13 3.13 0 0 0-3 2.87 6.33 6.33 0 0 0-.1 1v6.55h-2.21zM303.59 429.38a8.18 8.18 0 0 1-3.53.71c-3.71 0-6.12-2.51-6.12-6.27a6.24 6.24 0 0 1 6.6-6.52 7.57 7.57 0 0 1 3.1.63l-.51 1.73a5.1 5.1 0 0 0-2.59-.59c-2.82 0-4.34 2.09-4.34 4.65 0 2.84 1.83 4.6 4.26 4.6a6.39 6.39 0 0 0 2.75-.61zM306.2 411.81h2.24v7.67h.05a4.1 4.1 0 0 1 1.6-1.57 4.59 4.59 0 0 1 2.28-.64c1.65 0 4.29 1 4.29 5.26v7.31h-2.23v-7.06c0-2-.74-3.65-2.85-3.65a3.2 3.2 0 0 0-3 2.23 2.64 2.64 0 0 0-.15 1.07v7.41h-2.23zM322.78 414.1a1.31 1.31 0 0 1-1.42 1.37 1.33 1.33 0 0 1-1.36-1.37 1.37 1.37 0 0 1 1.4-1.4 1.33 1.33 0 0 1 1.38 1.4zm-2.49 15.74v-12.29h2.24v12.29zM327.1 417.55l2.41 6.91c.4 1.11.73 2.13 1 3.15h.07c.28-1 .64-2 1.05-3.15l2.38-6.91h2.34l-4.83 12.29h-2.13l-4.67-12.29zM339.44 424.1c.05 3 2 4.27 4.21 4.27a8 8 0 0 0 3.4-.64l.38 1.6a9.83 9.83 0 0 1-4.08.76c-3.79 0-6.05-2.48-6.05-6.19s2.19-6.63 5.77-6.63c4 0 5.07 3.53 5.07 5.79a10 10 0 0 1-.07 1zm6.55-1.6c0-1.42-.59-3.63-3.1-3.63-2.26 0-3.25 2.08-3.43 3.63zM363.1 429.84l-.18-1.55h-.08a4.54 4.54 0 0 1-3.75 1.83 3.5 3.5 0 0 1-3.76-3.53c0-3 2.64-4.6 7.39-4.57v-.25a2.54 2.54 0 0 0-2.8-2.85 6.14 6.14 0 0 0-3.2.92l-.5-1.48a7.61 7.61 0 0 1 4-1.09c3.76 0 4.68 2.57 4.68 5v4.59a17.62 17.62 0 0 0 .2 2.95zm-.33-6.27c-2.44-.05-5.21.38-5.21 2.77a2 2 0 0 0 2.11 2.13 3.05 3.05 0 0 0 3-2.06 2.22 2.22 0 0 0 .13-.71zM368.53 420.88c0-1.27 0-2.31-.1-3.33h2l.13 2a4.51 4.51 0 0 1 4.06-2.31c1.7 0 4.34 1 4.34 5.23v7.34h-2.23v-7.08c0-2-.74-3.63-2.85-3.63a3.17 3.17 0 0 0-3 2.28 3.25 3.25 0 0 0-.16 1v7.39h-2.23zM393.23 411.81v14.86c0 1.09 0 2.33.11 3.17h-2l-.1-2.13h-.05a4.56 4.56 0 0 1-4.19 2.41c-3 0-5.26-2.51-5.26-6.25 0-4.08 2.52-6.6 5.51-6.6a4.12 4.12 0 0 1 3.71 1.88h.04v-7.34zM391 422.55a4.29 4.29 0 0 0-.1-.94 3.29 3.29 0 0 0-3.23-2.59c-2.31 0-3.68 2-3.68 4.75 0 2.49 1.22 4.55 3.63 4.55a3.36 3.36 0 0 0 3.28-2.67 4.16 4.16 0 0 0 .1-1zM402.32 421.39c0-1.45 0-2.7-.1-3.84h2l.07 2.41h.1a3.69 3.69 0 0 1 3.41-2.69 2.41 2.41 0 0 1 .63.08v2.11a2.91 2.91 0 0 0-.76-.08 3.13 3.13 0 0 0-3 2.87 6.33 6.33 0 0 0-.1 1v6.55h-2.21zM411.61 424.1c.05 3 2 4.27 4.22 4.27a8 8 0 0 0 3.4-.64l.38 1.6a9.85 9.85 0 0 1-4.09.76c-3.78 0-6-2.48-6-6.19s2.18-6.63 5.77-6.63c4 0 5.07 3.53 5.07 5.79a10 10 0 0 1-.07 1zm6.55-1.6c0-1.42-.58-3.63-3.09-3.63-2.26 0-3.25 2.08-3.43 3.63zM425.78 414v3.53H429v1.7h-3.2v6.63c0 1.52.43 2.39 1.68 2.39a4.73 4.73 0 0 0 1.29-.16l.1 1.68a5.4 5.4 0 0 1-2 .3 3.09 3.09 0 0 1-2.41-.94 4.56 4.56 0 0 1-.86-3.19v-6.71h-1.91v-1.7h1.91v-2.94zM431.49 421.39c0-1.45 0-2.7-.1-3.84h2l.07 2.41h.1a3.69 3.69 0 0 1 3.41-2.69 2.41 2.41 0 0 1 .63.08v2.11a2.91 2.91 0 0 0-.76-.08 3.14 3.14 0 0 0-3 2.87 6.33 6.33 0 0 0-.1 1v6.55h-2.21zM442.38 414.1a1.31 1.31 0 0 1-1.42 1.37 1.33 1.33 0 0 1-1.34-1.37 1.36 1.36 0 0 1 1.39-1.4 1.33 1.33 0 0 1 1.37 1.4zm-2.48 15.74v-12.29h2.23v12.29zM447.08 424.1c.05 3 2 4.27 4.22 4.27a8 8 0 0 0 3.4-.64l.38 1.6a9.89 9.89 0 0 1-4.09.76c-3.78 0-6-2.48-6-6.19s2.18-6.63 5.76-6.63c4 0 5.08 3.53 5.08 5.79a7.43 7.43 0 0 1-.08 1zm6.55-1.6c0-1.42-.58-3.63-3.1-3.63-2.26 0-3.25 2.08-3.42 3.63zM459.42 417.55l2.41 6.91a28.92 28.92 0 0 1 1 3.15h.08c.28-1 .63-2 1-3.15l2.39-6.91h2.33l-4.82 12.29h-2.13L457 417.55zM471.76 424.1c.05 3 2 4.27 4.21 4.27a8 8 0 0 0 3.41-.64l.38 1.6a9.93 9.93 0 0 1-4.09.76c-3.78 0-6-2.48-6-6.19s2.18-6.63 5.76-6.63c4 0 5.08 3.53 5.08 5.79a7.43 7.43 0 0 1-.08 1zm6.55-1.6c0-1.42-.58-3.63-3.1-3.63-2.26 0-3.25 2.08-3.43 3.63zM488.84 429.84v-10.59h-1.72v-1.7h1.72v-.66c0-3.25 1.91-5.36 5.36-5.36a6.17 6.17 0 0 1 3.13.82l-.64 1.7a4.7 4.7 0 0 0-2.59-.71c-2.36 0-3.05 1.65-3.05 3.6v.61h7.14v12.29H496v-10.59h-4.93v10.59zM501.89 411.81h2.24v18h-2.24zM509.13 424.1c.05 3 2 4.27 4.21 4.27a8 8 0 0 0 3.41-.64l.38 1.6a9.89 9.89 0 0 1-4.09.76c-3.78 0-6-2.48-6-6.19s2.18-6.63 5.76-6.63c4 0 5.08 3.53 5.08 5.79a7.43 7.43 0 0 1-.08 1zm6.55-1.6c0-1.42-.58-3.63-3.1-3.63-2.26 0-3.25 2.08-3.42 3.63zM520.3 427.56a5.88 5.88 0 0 0 3 .88c1.62 0 2.38-.81 2.38-1.82s-.63-1.65-2.28-2.26c-2.21-.79-3.25-2-3.25-3.48 0-2 1.6-3.61 4.24-3.61a6.22 6.22 0 0 1 3 .76l-.56 1.63a4.72 4.72 0 0 0-2.51-.71c-1.32 0-2.06.76-2.06 1.67s.74 1.48 2.34 2.09c2.13.81 3.22 1.87 3.22 3.7 0 2.16-1.67 3.68-4.59 3.68a7.13 7.13 0 0 1-3.46-.83zM274.64 469.61h-5.2v-1.88h12.67v1.88h-5.23v15.23h-2.24zM282.79 476.39c0-1.45 0-2.7-.1-3.84h2l.07 2.41h.1a3.69 3.69 0 0 1 3.41-2.69 2.41 2.41 0 0 1 .63.08v2.11a2.91 2.91 0 0 0-.76-.08 3.14 3.14 0 0 0-3 2.87 6.33 6.33 0 0 0-.1 1v6.55h-2.21zM297.77 484.84l-.18-1.55h-.07a4.58 4.58 0 0 1-3.76 1.83 3.5 3.5 0 0 1-3.76-3.53c0-3 2.64-4.6 7.39-4.57v-.25a2.54 2.54 0 0 0-2.79-2.85 6.11 6.11 0 0 0-3.2.92l-.51-1.48a7.65 7.65 0 0 1 4-1.09c3.76 0 4.67 2.57 4.67 5v4.59a17.62 17.62 0 0 0 .2 2.95zm-.33-6.27c-2.44-.05-5.2.38-5.2 2.77a2 2 0 0 0 2.1 2.13 3.08 3.08 0 0 0 3-2.06 2.52 2.52 0 0 0 .12-.71zM303.21 475.88c0-1.27 0-2.31-.11-3.33h2l.13 2h.05a4.51 4.51 0 0 1 4.06-2.31c1.71 0 4.35 1 4.35 5.23v7.34h-2.24v-7.08c0-2-.73-3.63-2.84-3.63a3.18 3.18 0 0 0-3 2.28 3.26 3.26 0 0 0-.15 1v7.39h-2.23zM317 482.56a5.88 5.88 0 0 0 2.95.88c1.62 0 2.38-.81 2.38-1.82s-.63-1.65-2.28-2.26c-2.21-.79-3.25-2-3.25-3.48 0-2 1.6-3.61 4.24-3.61a6.22 6.22 0 0 1 3 .76l-.56 1.63A4.72 4.72 0 0 0 321 474c-1.32 0-2.06.76-2.06 1.67s.74 1.48 2.34 2.09c2.13.81 3.22 1.87 3.22 3.7 0 2.16-1.67 3.68-4.59 3.68a7.13 7.13 0 0 1-3.46-.83zM327.58 484.84v-10.59h-1.73v-1.7h1.73V472a5.79 5.79 0 0 1 1.42-4.29 4.26 4.26 0 0 1 3-1.15 5.12 5.12 0 0 1 1.9.36l-.3 1.73a3.25 3.25 0 0 0-1.43-.28c-1.9 0-2.38 1.67-2.38 3.55v.66h3v1.7h-3v10.59zM335.68 479.1c.05 3 2 4.27 4.21 4.27a8 8 0 0 0 3.4-.64l.39 1.6a9.93 9.93 0 0 1-4.09.76c-3.79 0-6-2.48-6-6.19s2.19-6.63 5.77-6.63c4 0 5.08 3.53 5.08 5.79a7.43 7.43 0 0 1-.08 1zm6.55-1.6c0-1.42-.59-3.63-3.1-3.63-2.26 0-3.25 2.08-3.43 3.63zM347.15 476.39c0-1.45 0-2.7-.1-3.84h2l.07 2.41h.1a3.69 3.69 0 0 1 3.41-2.69 2.41 2.41 0 0 1 .63.08v2.11a2.91 2.91 0 0 0-.76-.08 3.14 3.14 0 0 0-3 2.87 6.33 6.33 0 0 0-.1 1v6.55h-2.21zM367.64 484.84l-.18-1.55h-.07a4.58 4.58 0 0 1-3.76 1.83 3.5 3.5 0 0 1-3.76-3.53c0-3 2.64-4.6 7.39-4.57v-.25a2.54 2.54 0 0 0-2.79-2.85 6.11 6.11 0 0 0-3.2.92l-.51-1.48a7.65 7.65 0 0 1 4-1.09c3.76 0 4.67 2.57 4.67 5v4.59a17.62 17.62 0 0 0 .2 2.95zm-.33-6.27c-2.44-.05-5.2.38-5.2 2.77a2 2 0 0 0 2.1 2.13 3.05 3.05 0 0 0 3-2.06 2.22 2.22 0 0 0 .13-.71zM373.07 475.88c0-1.27 0-2.31-.1-3.33h2l.13 2h.05a4.51 4.51 0 0 1 4.06-2.31c1.7 0 4.35 1 4.35 5.23v7.34h-2.26v-7.08c0-2-.74-3.63-2.84-3.63a3.17 3.17 0 0 0-3 2.28 3.26 3.26 0 0 0-.15 1v7.39h-2.24zM397.78 466.81v14.86c0 1.09 0 2.33.1 3.17h-2l-.1-2.13a4.54 4.54 0 0 1-4.19 2.41c-3 0-5.25-2.51-5.25-6.25 0-4.08 2.51-6.6 5.51-6.6a4.11 4.11 0 0 1 3.7 1.88h.05v-7.34zm-2.24 10.74a3.76 3.76 0 0 0-.1-.94 3.29 3.29 0 0 0-3.22-2.59c-2.31 0-3.68 2-3.68 4.75 0 2.49 1.21 4.55 3.63 4.55a3.35 3.35 0 0 0 3.27-2.67 3.68 3.68 0 0 0 .1-1zM406.87 475.88c0-1.27 0-2.31-.11-3.33h2l.1 2h.08a4.23 4.23 0 0 1 3.86-2.26 3.65 3.65 0 0 1 3.48 2.46h.05a5 5 0 0 1 1.37-1.59 4.17 4.17 0 0 1 2.71-.87c1.63 0 4 1.07 4 5.33v7.24h-2.18v-7c0-2.36-.87-3.78-2.67-3.78a2.89 2.89 0 0 0-2.64 2 3.75 3.75 0 0 0-.18 1.12v7.59h-2.18v-7.36c0-2-.86-3.38-2.56-3.38a3.33 3.33 0 0 0-2.95 3.33v7.41h-2.18zM434.84 484.84l-.17-1.55h-.08a4.56 4.56 0 0 1-3.76 1.83 3.49 3.49 0 0 1-3.75-3.53c0-3 2.64-4.6 7.38-4.57v-.25a2.54 2.54 0 0 0-2.79-2.85 6.11 6.11 0 0 0-3.2.92l-.51-1.48a7.65 7.65 0 0 1 4-1.09c3.76 0 4.67 2.57 4.67 5v4.59a16.55 16.55 0 0 0 .21 2.95zm-.33-6.27c-2.43-.05-5.2.38-5.2 2.77a2 2 0 0 0 2.11 2.13 3.06 3.06 0 0 0 3-2.06 2.52 2.52 0 0 0 .12-.71zM440.28 475.88c0-1.27 0-2.31-.1-3.33h2l.12 2h.05a4.53 4.53 0 0 1 4.07-2.31c1.7 0 4.34 1 4.34 5.23v7.34h-2.26v-7.08c0-2-.73-3.63-2.84-3.63a3.18 3.18 0 0 0-3 2.28 3.26 3.26 0 0 0-.15 1v7.39h-2.23zM461.17 484.84l-.17-1.55h-.08a4.58 4.58 0 0 1-3.76 1.83 3.5 3.5 0 0 1-3.76-3.53c0-3 2.64-4.6 7.39-4.57v-.25a2.54 2.54 0 0 0-2.79-2.85 6.11 6.11 0 0 0-3.2.92l-.51-1.48a7.65 7.65 0 0 1 4-1.09c3.76 0 4.67 2.57 4.67 5v4.59a17.62 17.62 0 0 0 .2 2.95zm-.33-6.27c-2.43-.05-5.2.38-5.2 2.77a2 2 0 0 0 2.11 2.13 3.07 3.07 0 0 0 3-2.06 2.52 2.52 0 0 0 .12-.71zM477.19 472.55c-.05.89-.1 1.88-.1 3.38v7.13c0 2.82-.56 4.55-1.75 5.61a6.5 6.5 0 0 1-4.47 1.48 8 8 0 0 1-4.09-1l.56-1.7a6.9 6.9 0 0 0 3.61 1c2.28 0 4-1.19 4-4.29v-1.37h-.05a4.38 4.38 0 0 1-3.91 2.06c-3.05 0-5.23-2.59-5.23-6 0-4.17 2.71-6.53 5.53-6.53a4.12 4.12 0 0 1 3.84 2.13h.05l.1-1.85zm-2.31 4.85a3.18 3.18 0 0 0-.12-1 3.23 3.23 0 0 0-3.13-2.37c-2.13 0-3.65 1.81-3.65 4.65 0 2.41 1.22 4.42 3.63 4.42a3.28 3.28 0 0 0 3.1-2.29 4.08 4.08 0 0 0 .17-1.19zM482 479.1c0 3 2 4.27 4.22 4.27a8 8 0 0 0 3.4-.64l.38 1.6a9.89 9.89 0 0 1-4.09.76c-3.78 0-6-2.48-6-6.19s2.18-6.63 5.76-6.63c4 0 5.08 3.53 5.08 5.79a7.43 7.43 0 0 1-.08 1zm6.55-1.6c0-1.42-.58-3.63-3.1-3.63-2.26 0-3.25 2.08-3.42 3.63zM509.51 466.81v14.86c0 1.09 0 2.33.1 3.17h-2l-.1-2.13h-.05a4.56 4.56 0 0 1-4.19 2.41c-3 0-5.26-2.51-5.26-6.25 0-4.08 2.51-6.6 5.51-6.6a4.12 4.12 0 0 1 3.71 1.88v-7.34zm-2.23 10.74a4.29 4.29 0 0 0-.1-.94A3.29 3.29 0 0 0 504 474c-2.31 0-3.68 2-3.68 4.75 0 2.49 1.22 4.55 3.63 4.55a3.36 3.36 0 0 0 3.28-2.67 4.16 4.16 0 0 0 .1-1zM520 484.84l-.18-1.55h-.07a4.58 4.58 0 0 1-3.76 1.83 3.5 3.5 0 0 1-3.76-3.53c0-3 2.64-4.6 7.39-4.57v-.25a2.54 2.54 0 0 0-2.79-2.85 6.11 6.11 0 0 0-3.2.92l-.51-1.48a7.65 7.65 0 0 1 4-1.09c3.76 0 4.67 2.57 4.67 5v4.59a17.62 17.62 0 0 0 .2 2.95zm-.33-6.27c-2.44-.05-5.2.38-5.2 2.77a2 2 0 0 0 2.1 2.13 3.08 3.08 0 0 0 3-2.06 2.52 2.52 0 0 0 .12-.71zM528 469v3.53h3.2v1.7H528v6.63c0 1.52.44 2.39 1.68 2.39a4.82 4.82 0 0 0 1.3-.16l.1 1.68a5.44 5.44 0 0 1-2 .3 3.12 3.12 0 0 1-2.42-.94 4.56 4.56 0 0 1-.86-3.19v-6.71H524v-1.7h1.9v-2.94zM540.56 484.84l-.18-1.55h-.07a4.58 4.58 0 0 1-3.76 1.83 3.5 3.5 0 0 1-3.76-3.53c0-3 2.64-4.6 7.39-4.57v-.25a2.54 2.54 0 0 0-2.79-2.85 6.11 6.11 0 0 0-3.2.92l-.51-1.48a7.65 7.65 0 0 1 4-1.09c3.76 0 4.67 2.57 4.67 5v4.59a17.62 17.62 0 0 0 .2 2.95zm-.33-6.27c-2.44-.05-5.2.38-5.2 2.77a2 2 0 0 0 2.1 2.13 3.05 3.05 0 0 0 3-2.06 2.22 2.22 0 0 0 .13-.71zM275.15 539.84l-5.58-17.11H272l2.67 8.43c.73 2.31 1.37 4.39 1.83 6.4h.05c.48-2 1.19-4.14 1.95-6.38l2.9-8.45h2.36l-6.12 17.11zM285.89 534.1c.05 3 2 4.27 4.22 4.27a8 8 0 0 0 3.4-.64l.38 1.6a9.89 9.89 0 0 1-4.09.76c-3.78 0-6-2.48-6-6.19s2.18-6.63 5.76-6.63c4 0 5.08 3.53 5.08 5.79a7.43 7.43 0 0 1-.08 1zm6.55-1.6c0-1.42-.58-3.63-3.1-3.63-2.26 0-3.25 2.08-3.42 3.63zM297.37 531.39c0-1.45 0-2.7-.11-3.84h2l.08 2.41h.1a3.68 3.68 0 0 1 3.4-2.69 2.41 2.41 0 0 1 .63.08v2.11a2.81 2.81 0 0 0-.76-.08 3.13 3.13 0 0 0-3 2.87 6.33 6.33 0 0 0-.1 1v6.55h-2.21zM308.26 524.1a1.39 1.39 0 0 1-2.77 0 1.36 1.36 0 0 1 1.4-1.4 1.33 1.33 0 0 1 1.37 1.4zm-2.49 15.74v-12.29H308v12.29zM311.94 539.84v-10.59h-1.73v-1.7h1.73V527a5.79 5.79 0 0 1 1.42-4.29 4.26 4.26 0 0 1 3-1.15 5.12 5.12 0 0 1 1.9.36l-.3 1.73a3.25 3.25 0 0 0-1.43-.28c-1.9 0-2.38 1.67-2.38 3.55v.66h3v1.7h-3v10.59zM319.94 527.55l2.69 7.26c.28.82.58 1.78.78 2.52.23-.74.49-1.68.79-2.57l2.44-7.21H329l-3.35 8.76c-1.6 4.22-2.69 6.37-4.22 7.69a6 6 0 0 1-2.74 1.45l-.56-1.88a5.92 5.92 0 0 0 2-1.09A6.72 6.72 0 0 0 322 540a1.63 1.63 0 0 0 .18-.53 2 2 0 0 0-.16-.58l-4.54-11.33zM347.08 521.81v14.86c0 1.09 0 2.33.1 3.17h-2l-.1-2.13H345a4.55 4.55 0 0 1-4.19 2.41c-3 0-5.26-2.51-5.26-6.25 0-4.08 2.52-6.6 5.51-6.6a4.12 4.12 0 0 1 3.71 1.88v-7.34zm-2.24 10.74a3.76 3.76 0 0 0-.1-.94 3.29 3.29 0 0 0-3.22-2.59c-2.31 0-3.69 2-3.69 4.75 0 2.49 1.22 4.55 3.63 4.55a3.36 3.36 0 0 0 3.28-2.67 3.68 3.68 0 0 0 .1-1zM361.9 533.59c0 4.55-3.15 6.53-6.12 6.53-3.32 0-5.89-2.44-5.89-6.32 0-4.12 2.69-6.53 6.1-6.53s5.91 2.57 5.91 6.32zm-9.75.13c0 2.69 1.55 4.72 3.74 4.72s3.73-2 3.73-4.77c0-2.08-1-4.72-3.68-4.72s-3.79 2.44-3.79 4.77zM373.48 539.38a8.14 8.14 0 0 1-3.53.71c-3.71 0-6.12-2.51-6.12-6.27a6.24 6.24 0 0 1 6.6-6.52 7.57 7.57 0 0 1 3.1.63l-.51 1.73a5.1 5.1 0 0 0-2.59-.59c-2.81 0-4.34 2.09-4.34 4.65 0 2.84 1.83 4.6 4.27 4.6a6.34 6.34 0 0 0 2.74-.61zM386.38 536.49c0 1.27 0 2.39.1 3.35h-2l-.13-2h-.05a4.62 4.62 0 0 1-4.06 2.29c-1.93 0-4.24-1.07-4.24-5.38v-7.19h2.23v6.81c0 2.33.71 3.91 2.75 3.91a3.24 3.24 0 0 0 2.94-2 3.17 3.17 0 0 0 .2-1.14v-7.54h2.24zM390.08 530.88c0-1.27 0-2.31-.1-3.33h2l.1 2h.08a4.21 4.21 0 0 1 3.85-2.26 3.63 3.63 0 0 1 3.48 2.46h.05a5.16 5.16 0 0 1 1.37-1.59 4.2 4.2 0 0 1 2.72-.87c1.63 0 4 1.07 4 5.33v7.24h-2.18v-7c0-2.36-.87-3.78-2.67-3.78a2.89 2.89 0 0 0-2.64 2 3.75 3.75 0 0 0-.18 1.12v7.59h-2.18v-7.36c0-2-.87-3.38-2.57-3.38a3.33 3.33 0 0 0-2.94 3.33v7.41h-2.19zM412.5 534.1c.05 3 2 4.27 4.22 4.27a8 8 0 0 0 3.4-.64l.38 1.6a9.89 9.89 0 0 1-4.09.76c-3.78 0-6-2.48-6-6.19s2.18-6.63 5.76-6.63c4 0 5.08 3.53 5.08 5.79a7.43 7.43 0 0 1-.08 1zm6.55-1.6c0-1.42-.58-3.63-3.09-3.63-2.26 0-3.25 2.08-3.43 3.63zM424 530.88c0-1.27 0-2.31-.1-3.33h2l.12 2a4.53 4.53 0 0 1 4.07-2.31c1.7 0 4.34 1 4.34 5.23v7.34h-2.23v-7.08c0-2-.73-3.63-2.84-3.63a3.19 3.19 0 0 0-3 2.28 3.26 3.26 0 0 0-.15 1v7.39H424zM440.66 524v3.53h3.2v1.7h-3.2v6.63c0 1.52.43 2.39 1.67 2.39a4.76 4.76 0 0 0 1.3-.16l.1 1.68a5.44 5.44 0 0 1-2 .3 3.09 3.09 0 0 1-2.41-.94 4.51 4.51 0 0 1-.87-3.19v-6.71h-1.9v-1.7h1.9v-2.94zM446.07 537.56a5.84 5.84 0 0 0 2.94.88c1.63 0 2.39-.81 2.39-1.82s-.64-1.65-2.29-2.26c-2.21-.79-3.25-2-3.25-3.48 0-2 1.6-3.61 4.24-3.61a6.16 6.16 0 0 1 3 .76l-.55 1.63a4.79 4.79 0 0 0-2.52-.71c-1.32 0-2.05.76-2.05 1.67s.73 1.48 2.33 2.09c2.13.81 3.23 1.87 3.23 3.7 0 2.16-1.68 3.68-4.6 3.68a7.06 7.06 0 0 1-3.45-.83z"/><circle class="cls-4" cx="246.36" cy="615" r="4.5"/><circle class="cls-4" cx="246.37" cy="669.97" r="4.5"/><circle class="cls-4" cx="246.39" cy="726.93" r="4.5"/><path class="cls-3" d="M39.79 689.9v22.81h-4.16V689.9zM48.93 693.39h-6.5v-3.49h17.23v3.49h-6.57v19.32h-4.16zM69.17 688.68h4.2v9.82h.07a5.64 5.64 0 0 1 2.06-1.9 5.73 5.73 0 0 1 2.85-.74c2.81 0 5.75 1.86 5.75 7.14v9.71h-4.16v-9.24c0-2.4-.88-4.19-3.19-4.19a3.41 3.41 0 0 0-3.38 3.58v9.85h-4.2zM91.48 705.64c.1 3 2.44 4.26 5.08 4.26a12.51 12.51 0 0 0 4.57-.74l.61 2.87a15.49 15.49 0 0 1-5.76 1c-5.35 0-8.49-3.28-8.49-8.33 0-4.56 2.77-8.86 8.05-8.86s7.11 4.4 7.11 8a9.88 9.88 0 0 1-.14 1.76zm7.24-2.91c0-1.53-.64-4-3.41-4-2.58 0-3.66 2.33-3.83 4zM106 688.68h4.2v24H106zM114.7 701.71c0-2.16-.06-3.92-.13-5.48h3.65l.21 2.54h.06a6.43 6.43 0 0 1 5.66-2.91c3.79 0 6.93 3.25 6.93 8.39 0 6-3.75 8.83-7.51 8.83a5.43 5.43 0 0 1-4.64-2.2h-.06v8.53h-4.17zm4.17 4.1A4.36 4.36 0 0 0 119 707a3.77 3.77 0 0 0 3.66 2.91c2.64 0 4.19-2.2 4.19-5.45 0-2.91-1.42-5.28-4.09-5.28a3.87 3.87 0 0 0-3.72 3.08 3.49 3.49 0 0 0-.17 1zM149.7 688.68v19.39c0 1.7.07 3.52.14 4.64h-3.73l-.16-2.6h-.07a5.94 5.94 0 0 1-5.38 3c-3.93 0-7-3.35-7-8.42 0-5.52 3.41-8.8 7.37-8.8a5.24 5.24 0 0 1 4.64 2.16h.07v-9.34zm-4.16 14.42a5.57 5.57 0 0 0-.1-1.08 3.64 3.64 0 0 0-3.59-2.95c-2.67 0-4.16 2.37-4.16 5.45s1.49 5.21 4.13 5.21a3.66 3.66 0 0 0 3.58-2.94 4.3 4.3 0 0 0 .14-1.22zM157.12 705.64c.1 3 2.43 4.26 5.07 4.26a12.47 12.47 0 0 0 4.57-.74l.61 2.87a15.39 15.39 0 0 1-5.75 1c-5.35 0-8.5-3.28-8.5-8.33 0-4.56 2.78-8.86 8.06-8.86s7.11 4.4 7.11 8a9.88 9.88 0 0 1-.14 1.76zm7.24-2.91c0-1.53-.64-4-3.42-4-2.57 0-3.65 2.33-3.82 4zM171.44 708.89a9.32 9.32 0 0 0 4.23 1.18c1.83 0 2.64-.74 2.64-1.83s-.68-1.69-2.71-2.4c-3.22-1.12-4.57-2.88-4.54-4.81 0-2.91 2.41-5.17 6.23-5.17a9.67 9.67 0 0 1 4.37 1l-.81 2.94a7.55 7.55 0 0 0-3.49-.94c-1.49 0-2.3.71-2.3 1.72s.78 1.56 2.87 2.3c3 1.09 4.37 2.61 4.4 5 0 3-2.33 5.14-6.7 5.14a10.63 10.63 0 0 1-5-1.15zM189.92 703.47h.08c.4-.64.88-1.35 1.32-1.93l4-5.31h5l-6.1 6.77 7 9.75h-5.11l-4.74-7.28-1.42 1.66v5.62h-4.16v-24h4.16zM271.39 608a22.9 22.9 0 0 1 4.24-.36c2.37 0 3.89.43 4.95 1.4a4.24 4.24 0 0 1 1.35 3.25 4.48 4.48 0 0 1-3.22 4.36v.08c1.32.46 2.1 1.68 2.51 3.45a26.91 26.91 0 0 0 1.32 4.7h-2.29a22.63 22.63 0 0 1-1.14-4.09c-.51-2.36-1.42-3.25-3.43-3.32h-2.08v7.41h-2.21zm2.21 7.79h2.26c2.36 0 3.86-1.29 3.86-3.25 0-2.21-1.6-3.17-3.93-3.2a9.3 9.3 0 0 0-2.19.2zM286.32 619.1c.05 3 2 4.27 4.22 4.27a8 8 0 0 0 3.4-.64l.38 1.6a9.89 9.89 0 0 1-4.09.76c-3.78 0-6-2.48-6-6.19s2.18-6.63 5.76-6.63c4 0 5.08 3.53 5.08 5.79a10 10 0 0 1-.07 1zm6.55-1.6c0-1.42-.58-3.63-3.09-3.63-2.26 0-3.25 2.08-3.43 3.63zM297.49 622.56a5.88 5.88 0 0 0 2.95.88c1.62 0 2.39-.81 2.39-1.82s-.64-1.65-2.29-2.26c-2.21-.79-3.25-2-3.25-3.48 0-2 1.6-3.61 4.24-3.61a6.19 6.19 0 0 1 3 .76l-.56 1.63a4.72 4.72 0 0 0-2.51-.71c-1.32 0-2.06.76-2.06 1.67s.74 1.48 2.34 2.09c2.13.81 3.22 1.87 3.22 3.7 0 2.16-1.67 3.68-4.59 3.68a7.13 7.13 0 0 1-3.46-.83zM319 618.59c0 4.55-3.15 6.53-6.12 6.53-3.32 0-5.89-2.44-5.89-6.32 0-4.12 2.69-6.53 6.1-6.53s5.91 2.57 5.91 6.32zm-9.75.13c0 2.69 1.55 4.72 3.74 4.72s3.73-2 3.73-4.77c0-2.08-1-4.72-3.68-4.72s-3.82 2.44-3.82 4.77zM321.79 606.81H324v18h-2.23zM328.64 612.55l2.42 6.91c.4 1.11.73 2.13 1 3.15h.07c.28-1 .64-2 1-3.15l2.39-6.91h2.34l-4.83 12.29h-2.13l-4.67-12.29zM341 619.1c0 3 2 4.27 4.22 4.27a8 8 0 0 0 3.4-.64l.38 1.6a9.89 9.89 0 0 1-4.09.76c-3.78 0-6-2.48-6-6.19s2.18-6.63 5.76-6.63c4 0 5.08 3.53 5.08 5.79a10 10 0 0 1-.07 1zm6.55-1.6c0-1.42-.58-3.63-3.09-3.63-2.26 0-3.25 2.08-3.43 3.63zM360.33 609.1a1.39 1.39 0 0 1-2.77 0 1.37 1.37 0 0 1 1.4-1.4 1.33 1.33 0 0 1 1.37 1.4zm-2.49 15.74v-12.29h2.24v12.29zM363.78 615.88c0-1.27 0-2.31-.1-3.33h2l.13 2a4.51 4.51 0 0 1 4.06-2.31c1.7 0 4.34 1 4.34 5.23v7.34H372v-7.08c0-2-.74-3.63-2.85-3.63a3.17 3.17 0 0 0-3 2.28 3.26 3.26 0 0 0-.15 1v7.39h-2.24zM386.63 624.38a8.14 8.14 0 0 1-3.53.71c-3.7 0-6.12-2.51-6.12-6.27a6.24 6.24 0 0 1 6.6-6.52 7.53 7.53 0 0 1 3.1.63l-.51 1.73a5.1 5.1 0 0 0-2.59-.59c-2.81 0-4.34 2.09-4.34 4.65 0 2.84 1.83 4.6 4.27 4.6a6.31 6.31 0 0 0 2.74-.61zM391.73 609.1a1.31 1.31 0 0 1-1.42 1.37 1.33 1.33 0 0 1-1.31-1.37 1.36 1.36 0 0 1 1.39-1.4 1.33 1.33 0 0 1 1.34 1.4zm-2.48 15.74v-12.29h2.23v12.29zM405.8 606.81v14.86c0 1.09 0 2.33.1 3.17h-2l-.11-2.13h-.05a4.54 4.54 0 0 1-4.19 2.41c-3 0-5.25-2.51-5.25-6.25 0-4.08 2.51-6.6 5.51-6.6a4.09 4.09 0 0 1 3.7 1.88h.06v-7.34zm-2.23 10.74a3.77 3.77 0 0 0-.11-.94 3.29 3.29 0 0 0-3.22-2.59c-2.31 0-3.68 2-3.68 4.75 0 2.49 1.22 4.55 3.63 4.55a3.35 3.35 0 0 0 3.27-2.67 3.67 3.67 0 0 0 .11-1zM410.75 619.1c.05 3 2 4.27 4.21 4.27a8 8 0 0 0 3.41-.64l.38 1.6a9.89 9.89 0 0 1-4.09.76c-3.78 0-6-2.48-6-6.19s2.18-6.63 5.76-6.63c4 0 5.08 3.53 5.08 5.79a7.43 7.43 0 0 1-.08 1zm6.55-1.6c0-1.42-.58-3.63-3.1-3.63-2.26 0-3.25 2.08-3.42 3.63zM422.23 615.88c0-1.27 0-2.31-.11-3.33h2l.13 2a4.51 4.51 0 0 1 4.06-2.31c1.71 0 4.35 1 4.35 5.23v7.34h-2.24v-7.08c0-2-.73-3.63-2.84-3.63a3.18 3.18 0 0 0-3 2.28 3.26 3.26 0 0 0-.15 1v7.39h-2.23zM438.91 609v3.53h3.2v1.7h-3.2v6.63c0 1.52.43 2.39 1.67 2.39a4.76 4.76 0 0 0 1.3-.16l.1 1.68a5.44 5.44 0 0 1-2 .3 3.09 3.09 0 0 1-2.41-.94 4.51 4.51 0 0 1-.87-3.19v-6.71h-1.9v-1.7h1.9v-2.94zM444.31 622.56a5.88 5.88 0 0 0 2.95.88c1.62 0 2.39-.81 2.39-1.82s-.64-1.65-2.29-2.26c-2.21-.79-3.25-2-3.25-3.48 0-2 1.6-3.61 4.24-3.61a6.19 6.19 0 0 1 3 .76l-.56 1.63a4.72 4.72 0 0 0-2.51-.71c-1.32 0-2.06.76-2.06 1.67s.74 1.48 2.34 2.09c2.13.81 3.22 1.87 3.22 3.7 0 2.16-1.67 3.68-4.59 3.68a7.13 7.13 0 0 1-3.46-.83zM271.39 663a22.9 22.9 0 0 1 4.24-.36c2.37 0 3.89.43 4.95 1.4a4.24 4.24 0 0 1 1.35 3.25 4.48 4.48 0 0 1-3.22 4.36v.08c1.32.46 2.1 1.68 2.51 3.45a26.91 26.91 0 0 0 1.32 4.7h-2.29a22.63 22.63 0 0 1-1.14-4.09c-.51-2.36-1.42-3.25-3.43-3.32h-2.08v7.41h-2.21zm2.21 7.79h2.26c2.36 0 3.86-1.29 3.86-3.25 0-2.21-1.6-3.17-3.93-3.2a9.3 9.3 0 0 0-2.19.2zM286.32 674.1c.05 3 2 4.27 4.22 4.27a8 8 0 0 0 3.4-.64l.38 1.6a9.89 9.89 0 0 1-4.09.76c-3.78 0-6-2.48-6-6.19s2.18-6.63 5.76-6.63c4 0 5.08 3.53 5.08 5.79a10 10 0 0 1-.07 1zm6.55-1.6c0-1.42-.58-3.63-3.09-3.63-2.26 0-3.25 2.08-3.43 3.63zM297.49 677.56a5.88 5.88 0 0 0 2.95.88c1.62 0 2.39-.81 2.39-1.82s-.64-1.65-2.29-2.26c-2.21-.79-3.25-2-3.25-3.48 0-2 1.6-3.61 4.24-3.61a6.19 6.19 0 0 1 3 .76l-.56 1.63a4.72 4.72 0 0 0-2.51-.71c-1.32 0-2.06.76-2.06 1.67s.74 1.48 2.34 2.09c2.13.81 3.22 1.87 3.22 3.7 0 2.16-1.67 3.68-4.59 3.68a7.13 7.13 0 0 1-3.46-.83zM309.1 674.1c0 3 2 4.27 4.21 4.27a8 8 0 0 0 3.4-.64l.38 1.6a9.83 9.83 0 0 1-4.08.76c-3.79 0-6.05-2.48-6.05-6.19s2.19-6.63 5.77-6.63c4 0 5.07 3.53 5.07 5.79a10 10 0 0 1-.07 1zm6.55-1.6c0-1.42-.59-3.63-3.1-3.63-2.26 0-3.25 2.08-3.43 3.63zM323.26 664v3.53h3.2v1.7h-3.2v6.63c0 1.52.43 2.39 1.68 2.39a4.73 4.73 0 0 0 1.29-.16l.1 1.68a5.4 5.4 0 0 1-2 .3 3.1 3.1 0 0 1-2.41-.94 4.56 4.56 0 0 1-.86-3.19v-6.71h-1.91v-1.7h1.91v-2.94zM334.36 671.56c0-1.57-.05-2.84-.11-4h2l.1 2.11h.05a4.84 4.84 0 0 1 4.37-2.39c3 0 5.21 2.52 5.21 6.25 0 4.42-2.7 6.6-5.59 6.6a4.29 4.29 0 0 1-3.78-1.93h-.05v6.68h-2.21zm2.21 3.28a5.07 5.07 0 0 0 .1.91 3.44 3.44 0 0 0 3.35 2.62c2.36 0 3.73-1.93 3.73-4.75 0-2.46-1.29-4.57-3.66-4.57a3.56 3.56 0 0 0-3.37 2.77 3.47 3.47 0 0 0-.15.91zM355.61 679.84l-.18-1.55h-.08a4.55 4.55 0 0 1-3.76 1.83 3.5 3.5 0 0 1-3.75-3.53c0-3 2.64-4.6 7.39-4.57v-.25a2.54 2.54 0 0 0-2.8-2.85 6.14 6.14 0 0 0-3.2.92l-.5-1.48a7.58 7.58 0 0 1 4-1.09c3.76 0 4.67 2.57 4.67 5v4.59a17.55 17.55 0 0 0 .21 3zm-.33-6.27c-2.44-.05-5.21.38-5.21 2.77a2 2 0 0 0 2.11 2.13 3.06 3.06 0 0 0 3-2.06 2.22 2.22 0 0 0 .13-.71zM360.73 677.56a5.88 5.88 0 0 0 2.95.88c1.62 0 2.39-.81 2.39-1.82s-.64-1.65-2.29-2.26c-2.21-.79-3.25-2-3.25-3.48 0-2 1.6-3.61 4.24-3.61a6.16 6.16 0 0 1 3 .76l-.56 1.63a4.72 4.72 0 0 0-2.51-.71c-1.32 0-2.06.76-2.06 1.67s.74 1.48 2.34 2.09c2.13.81 3.22 1.87 3.22 3.7 0 2.16-1.67 3.68-4.59 3.68a7.06 7.06 0 0 1-3.45-.83zM370.79 677.56a5.87 5.87 0 0 0 2.94.88c1.63 0 2.39-.81 2.39-1.82s-.63-1.65-2.29-2.26c-2.2-.79-3.25-2-3.25-3.48 0-2 1.6-3.61 4.25-3.61a6.22 6.22 0 0 1 3 .76l-.56 1.63a4.73 4.73 0 0 0-2.52-.71c-1.32 0-2 .76-2 1.67s.73 1.48 2.33 2.09c2.14.81 3.23 1.87 3.23 3.7 0 2.16-1.68 3.68-4.6 3.68a7.09 7.09 0 0 1-3.45-.83zM382 667.55l1.62 6.25c.36 1.37.69 2.64.91 3.91h.08c.28-1.25.69-2.57 1.09-3.89l2-6.27h1.88l1.9 6.15c.46 1.47.81 2.76 1.09 4h.08a35.29 35.29 0 0 1 .94-4l1.75-6.17h2.21l-4 12.29h-2l-1.82-5.82a39.71 39.71 0 0 1-1.09-4h-.05a38 38 0 0 1-1.12 4.06l-2 5.84h-2l-3.71-12.29zM410.7 673.59c0 4.55-3.15 6.53-6.12 6.53-3.33 0-5.89-2.44-5.89-6.32 0-4.12 2.69-6.53 6.09-6.53s5.92 2.57 5.92 6.32zm-9.75.13c0 2.69 1.55 4.72 3.73 4.72s3.73-2 3.73-4.77c0-2.08-1-4.72-3.68-4.72s-3.73 2.44-3.73 4.77zM413.52 671.39c0-1.45 0-2.7-.11-3.84h2l.08 2.41h.1a3.68 3.68 0 0 1 3.4-2.69 2.41 2.41 0 0 1 .63.08v2.11a2.81 2.81 0 0 0-.76-.08 3.13 3.13 0 0 0-3 2.87 6.33 6.33 0 0 0-.1 1v6.55h-2.21zM432.18 661.81v14.86c0 1.09 0 2.33.1 3.17h-2l-.1-2.13h-.05a4.54 4.54 0 0 1-4.19 2.41c-3 0-5.25-2.51-5.25-6.25 0-4.08 2.51-6.6 5.51-6.6a4.11 4.11 0 0 1 3.7 1.88h.05v-7.34zm-2.24 10.74a3.76 3.76 0 0 0-.1-.94 3.29 3.29 0 0 0-3.22-2.59c-2.31 0-3.68 2-3.68 4.75 0 2.49 1.21 4.55 3.63 4.55a3.35 3.35 0 0 0 3.27-2.67 3.68 3.68 0 0 0 .1-1zM435.58 677.56a5.87 5.87 0 0 0 2.94.88c1.63 0 2.39-.81 2.39-1.82s-.63-1.65-2.28-2.26c-2.21-.79-3.25-2-3.25-3.48 0-2 1.6-3.61 4.24-3.61a6.22 6.22 0 0 1 3 .76l-.56 1.63a4.72 4.72 0 0 0-2.51-.71c-1.32 0-2.06.76-2.06 1.67s.74 1.48 2.33 2.09c2.14.81 3.23 1.87 3.23 3.7 0 2.16-1.68 3.68-4.6 3.68a7.09 7.09 0 0 1-3.45-.83zM271.39 717.93a25.46 25.46 0 0 1 4.24-.33 7 7 0 0 1 4.8 1.42 4.6 4.6 0 0 1 1.5 3.58 5.06 5.06 0 0 1-1.32 3.66 7.11 7.11 0 0 1-5.23 1.88 7.45 7.45 0 0 1-1.78-.16v6.86h-2.21zm2.21 8.25a7.24 7.24 0 0 0 1.83.18c2.67 0 4.29-1.3 4.29-3.66s-1.6-3.35-4-3.35a9.33 9.33 0 0 0-2.08.18zM284.42 726.39c0-1.45 0-2.7-.1-3.84h1.95l.08 2.41h.1a3.68 3.68 0 0 1 3.4-2.69 2.49 2.49 0 0 1 .64.08v2.11a2.94 2.94 0 0 0-.77-.08 3.13 3.13 0 0 0-3 2.87 6.33 6.33 0 0 0-.1 1v6.55h-2.21zM303.59 728.59c0 4.55-3.15 6.53-6.12 6.53-3.33 0-5.89-2.44-5.89-6.32 0-4.12 2.69-6.53 6.09-6.53s5.92 2.57 5.92 6.32zm-9.75.13c0 2.69 1.55 4.72 3.73 4.72s3.73-2 3.73-4.77c0-2.08-1-4.72-3.68-4.72s-3.78 2.44-3.78 4.77zM315.16 734.38a8.11 8.11 0 0 1-3.53.71c-3.7 0-6.11-2.51-6.11-6.27a6.24 6.24 0 0 1 6.6-6.52 7.48 7.48 0 0 1 3.09.63l-.5 1.73a5.13 5.13 0 0 0-2.59-.59c-2.82 0-4.34 2.09-4.34 4.65 0 2.84 1.82 4.6 4.26 4.6a6.31 6.31 0 0 0 2.74-.61zM318.87 729.1c.05 3 2 4.27 4.22 4.27a8 8 0 0 0 3.4-.64l.38 1.6a9.89 9.89 0 0 1-4.09.76c-3.78 0-6-2.48-6-6.19s2.18-6.63 5.76-6.63c4 0 5.08 3.53 5.08 5.79a7.43 7.43 0 0 1-.08 1zm6.55-1.6c0-1.42-.58-3.63-3.1-3.63-2.26 0-3.25 2.08-3.42 3.63zM330 732.56a5.88 5.88 0 0 0 2.95.88c1.62 0 2.38-.81 2.38-1.82s-.63-1.65-2.28-2.26c-2.21-.79-3.25-2-3.25-3.48 0-2 1.6-3.61 4.24-3.61a6.22 6.22 0 0 1 3 .76l-.56 1.63A4.72 4.72 0 0 0 334 724c-1.32 0-2.06.76-2.06 1.67s.74 1.48 2.34 2.09c2.13.81 3.22 1.87 3.22 3.7 0 2.16-1.67 3.68-4.59 3.68a7.13 7.13 0 0 1-3.46-.83zM340.1 732.56a5.84 5.84 0 0 0 2.94.88c1.63 0 2.39-.81 2.39-1.82s-.64-1.65-2.29-2.26c-2.21-.79-3.25-2-3.25-3.48 0-2 1.6-3.61 4.24-3.61a6.16 6.16 0 0 1 3 .76l-.55 1.63a4.79 4.79 0 0 0-2.52-.71c-1.32 0-2.05.76-2.05 1.67s.73 1.48 2.33 2.09c2.13.81 3.23 1.87 3.23 3.7 0 2.16-1.68 3.68-4.6 3.68a7.06 7.06 0 0 1-3.45-.83zM355.53 732.56a5.88 5.88 0 0 0 3 .88c1.62 0 2.38-.81 2.38-1.82s-.63-1.65-2.28-2.26c-2.21-.79-3.25-2-3.25-3.48 0-2 1.6-3.61 4.24-3.61a6.22 6.22 0 0 1 3 .76l-.56 1.63a4.72 4.72 0 0 0-2.51-.71c-1.32 0-2.06.76-2.06 1.67s.74 1.48 2.34 2.09c2.13.81 3.22 1.87 3.22 3.7 0 2.16-1.67 3.68-4.59 3.68a7.13 7.13 0 0 1-3.46-.83zM367.13 729.1c.05 3 2 4.27 4.22 4.27a8 8 0 0 0 3.4-.64l.38 1.6a9.89 9.89 0 0 1-4.09.76c-3.78 0-6-2.48-6-6.19s2.18-6.63 5.76-6.63c4 0 5.08 3.53 5.08 5.79a10 10 0 0 1-.07 1zm6.55-1.6c0-1.42-.58-3.63-3.09-3.63-2.26 0-3.25 2.08-3.43 3.63zM378.61 726.39c0-1.45 0-2.7-.1-3.84h1.95l.08 2.41h.1a3.68 3.68 0 0 1 3.4-2.69 2.49 2.49 0 0 1 .64.08v2.11a2.91 2.91 0 0 0-.76-.08 3.13 3.13 0 0 0-3 2.87 6.33 6.33 0 0 0-.1 1v6.55h-2.21zM388.41 722.55l2.41 6.91a28.92 28.92 0 0 1 1 3.15h.08c.28-1 .63-2 1-3.15l2.38-6.91h2.34l-4.82 12.29h-2.14L386 722.55zM402.25 719.1a1.39 1.39 0 0 1-2.77 0 1.36 1.36 0 0 1 1.39-1.4 1.33 1.33 0 0 1 1.38 1.4zm-2.49 15.74v-12.29H402v12.29zM414.46 734.38a8.18 8.18 0 0 1-3.53.71c-3.71 0-6.12-2.51-6.12-6.27a6.24 6.24 0 0 1 6.6-6.52 7.57 7.57 0 0 1 3.1.63l-.51 1.73a5.1 5.1 0 0 0-2.59-.59c-2.82 0-4.34 2.09-4.34 4.65 0 2.84 1.83 4.6 4.26 4.6a6.39 6.39 0 0 0 2.75-.61zM418.16 729.1c0 3 2 4.27 4.22 4.27a8 8 0 0 0 3.4-.64l.38 1.6a9.89 9.89 0 0 1-4.09.76c-3.78 0-6-2.48-6-6.19s2.18-6.63 5.76-6.63c4 0 5.08 3.53 5.08 5.79a10 10 0 0 1-.07 1zm6.55-1.6c0-1.42-.58-3.63-3.09-3.63-2.26 0-3.25 2.08-3.43 3.63zM435 726.39c0-1.45 0-2.7-.1-3.84h1.95L437 725h.1a3.69 3.69 0 0 1 3.4-2.69 2.43 2.43 0 0 1 .64.08v2.11a2.91 2.91 0 0 0-.76-.08 3.13 3.13 0 0 0-3 2.87 6.33 6.33 0 0 0-.1 1v6.55H435zM444.31 729.1c.05 3 2 4.27 4.22 4.27a8 8 0 0 0 3.4-.64l.38 1.6a9.89 9.89 0 0 1-4.09.76c-3.78 0-6-2.48-6-6.19s2.18-6.63 5.76-6.63c4 0 5.08 3.53 5.08 5.79a10 10 0 0 1-.07 1zm6.55-1.6c0-1.42-.58-3.63-3.09-3.63-2.26 0-3.25 2.08-3.43 3.63zM464.17 732.94h-.05a4.39 4.39 0 0 1-4 2.18c-2.87 0-5.21-2.49-5.21-6.22 0-4.6 3-6.63 5.56-6.63a4 4 0 0 1 3.78 2.13h.05l.08-1.85h2.11c-.05 1-.08 2.11-.08 3.38v13.94h-2.23zm0-5.41a4.11 4.11 0 0 0-.1-.94 3.27 3.27 0 0 0-3.2-2.54c-2.31 0-3.71 2-3.71 4.72 0 2.44 1.17 4.57 3.63 4.57a3.33 3.33 0 0 0 3.2-2.44 3.74 3.74 0 0 0 .18-1.06zM480.37 731.49c0 1.27 0 2.39.1 3.35h-2l-.13-2h-.05a4.64 4.64 0 0 1-4.06 2.29c-1.93 0-4.24-1.07-4.24-5.38v-7.19h2.23v6.81c0 2.33.71 3.91 2.74 3.91a3.25 3.25 0 0 0 2.95-2 3.4 3.4 0 0 0 .2-1.14v-7.54h2.24zM485.32 729.1c.05 3 2 4.27 4.21 4.27a8 8 0 0 0 3.4-.64l.38 1.6a9.83 9.83 0 0 1-4.08.76c-3.79 0-6.05-2.48-6.05-6.19s2.19-6.63 5.77-6.63c4 0 5.07 3.53 5.07 5.79a10 10 0 0 1-.07 1zm6.55-1.6c0-1.42-.59-3.63-3.1-3.63-2.26 0-3.25 2.08-3.43 3.63zM496.49 732.56a5.84 5.84 0 0 0 2.94.88c1.63 0 2.39-.81 2.39-1.82s-.64-1.65-2.29-2.26c-2.21-.79-3.25-2-3.25-3.48 0-2 1.6-3.61 4.24-3.61a6.16 6.16 0 0 1 3 .76l-.55 1.63a4.76 4.76 0 0 0-2.52-.71c-1.32 0-2.05.76-2.05 1.67s.73 1.48 2.33 2.09c2.13.81 3.23 1.87 3.23 3.7 0 2.16-1.68 3.68-4.6 3.68a7.09 7.09 0 0 1-3.45-.83zM509.54 719v3.53h3.2v1.7h-3.2v6.63c0 1.52.43 2.39 1.67 2.39a4.76 4.76 0 0 0 1.3-.16l.1 1.68a5.44 5.44 0 0 1-2 .3 3.09 3.09 0 0 1-2.41-.94 4.51 4.51 0 0 1-.87-3.19v-6.71h-1.9v-1.7h1.9v-2.94zM514.94 732.56a5.88 5.88 0 0 0 2.95.88c1.62 0 2.39-.81 2.39-1.82s-.64-1.65-2.29-2.26c-2.21-.79-3.25-2-3.25-3.48 0-2 1.6-3.61 4.24-3.61a6.19 6.19 0 0 1 3 .76l-.56 1.63a4.72 4.72 0 0 0-2.51-.71c-1.32 0-2.06.76-2.06 1.67s.74 1.48 2.34 2.09c2.13.81 3.22 1.87 3.22 3.7 0 2.16-1.67 3.68-4.59 3.68a7.13 7.13 0 0 1-3.46-.83zM99.56 436v-16.6a2.94 2.94 0 0 1 1.79-2.83 24.78 24.78 0 0 1 5.09-1.77 53.08 53.08 0 0 1 23 .45 15.22 15.22 0 0 1 3.48 1.49 2.85 2.85 0 0 1 1.52 2.69v28c0 1.59-.05 3.18 0 4.77a3 3 0 0 1-1.83 3.18 27.73 27.73 0 0 1-5.57 1.83 76.7 76.7 0 0 1-7.86.83 1.56 1.56 0 0 0-1.41.84 4.93 4.93 0 0 1-4.84 2.45 4.84 4.84 0 0 1-4.35-3.07 1.57 1.57 0 0 0-1.22-1c-1.74-.46-3.51-.9-5.19-1.52a3.74 3.74 0 0 1-2.58-4c.1-5.25 0-10.5 0-15.75zm32.25-5.64a53.13 53.13 0 0 1-29.63 0v2.42c0 3.52 0 3.56 3.45 4.44a50.8 50.8 0 0 0 16.4 1 24.81 24.81 0 0 0 9.06-2c.29-.13.68-.47.69-.73.06-1.77.03-3.49.03-5.15zm-29.63 8.57v2.37c0 3.57 0 3.63 3.51 4.47a45 45 0 0 0 18 .65 67.46 67.46 0 0 0 7.43-2c.27-.08.67-.42.68-.65.05-1.66 0-3.33 0-4.9a52.77 52.77 0 0 1-29.62.04zm0-16.61v1.62c0 3.92 0 4 3.91 4.84a51.68 51.68 0 0 0 19.44.44 34.6 34.6 0 0 0 5.39-1.51 1.4 1.4 0 0 0 .84-1c.09-1.48 0-3 0-4.42a53.36 53.36 0 0 1-29.58.01zm16.4 33.33c2.45-.27 5-.44 7.42-.86a33.32 33.32 0 0 0 4.93-1.42 1.38 1.38 0 0 0 .84-.88c.08-1.82 0-3.65 0-5.48a48.79 48.79 0 0 1-29.62.45v5a1 1 0 0 0 .4.68 14.61 14.61 0 0 0 5.62 1.74c1.24-2.74 3-3.87 5.51-3.73 2.32.07 3.95 1.52 4.9 4.48zm13.11-36.44l.09-.38a32.75 32.75 0 0 0-3.5-1.29 46.88 46.88 0 0 0-15.34-1 77.64 77.64 0 0 0-8.43 1.42 11.29 11.29 0 0 0-2.3 1v.46a35.75 35.75 0 0 0 4 1.36 52.64 52.64 0 0 0 20.36.28 12.33 12.33 0 0 0 5.12-1.87zm-18.34 34.39a2.62 2.62 0 1 0-.1 5.23 2.58 2.58 0 0 0 2.71-2.57 2.55 2.55 0 0 0-2.61-2.68zM84.49 434.23h4.44l-6 10.19-6-10.18H81c.63 0 .82-.23.88-.81a33.21 33.21 0 0 1 3.4-11.35c.19-.38.33-.65-.06-1.08a5 5 0 0 1-.54-6.68 5.27 5.27 0 0 1 6.68-1.44l.4.18a36.15 36.15 0 0 1 9.49-6.77l1.13 2.19c-.27.16-.49.31-.73.44a34.15 34.15 0 0 0-7.57 5.44 1 1 0 0 0-.34 1.3 5 5 0 0 1-4.74 6.81 1.33 1.33 0 0 0-1.43.88c-1.67 3.4-3.06 8.2-3.08 10.88zM88.87 420a2.62 2.62 0 1 0-2.64-2.66 2.65 2.65 0 0 0 2.64 2.66zM149.79 441.44h-4.72c2-3.44 3.93-6.72 6-10.18l6 10.14h-4.54a35.27 35.27 0 0 1-3.84 12.33 5.26 5.26 0 0 1 1.65 4.31 5.18 5.18 0 0 1-7.06 4.28 1 1 0 0 0-1.31.25 34.24 34.24 0 0 1-8.76 6.16l-1.21-2.22a16 16 0 0 0 1.82-1c2.1-1.53 4.18-3.1 6.26-4.67a.78.78 0 0 0 .3-1.1 5.06 5.06 0 0 1 5-7.23 1.26 1.26 0 0 0 1.43-.85 33.37 33.37 0 0 0 2.87-9.15c.07-.34.08-.65.11-1.07zM145 454.91a2.67 2.67 0 0 0-2.67 2.66 2.7 2.7 0 0 0 5.4-.05 2.67 2.67 0 0 0-2.73-2.61zM120 405.22v4.55l-10.35-5.88L120 398v4.63c13 1.47 22.59 7.78 29 19.23l-2.3 1.13c-5.89-10.47-14.7-16.33-26.7-17.77zM85.43 453.3l1.66-.84c.2-.1.41-.17.67-.28a32.91 32.91 0 0 0 15.31 14.64c3.31 1.55 8 2.85 10 2.76v-4.27l10.38 5.9-10.33 5.86v-4.76c-12.34-1.78-21.57-8.01-27.69-19.01zM69.86 84.3c.36-2.12 1.86-3.47 3.27-4.9L91 61.28c.8-.81 1.58-1.63 2.38-2.43a5.28 5.28 0 0 1 7.85 0l.41.4 7-6.67-19-17.42a11.52 11.52 0 0 1-15.06-.27c-3.88-3.47-4.84-9-2.38-14.27L75.83 24l3.6 3.29 3.47-3.76-7.22-6.67c5.14-3 10.86-2.38 14.78 1.56A11.56 11.56 0 0 1 91.63 33c6.3 5.78 12.6 11.58 19 17.47.87-.87 1.7-1.71 2.53-2.56 2.32-2.35 4.61-4.73 6.94-7.06a1 1 0 0 0 .25-1.34 5.67 5.67 0 0 1 1.16-6.38 5.89 5.89 0 0 1 6.49-1.35 1.29 1.29 0 0 0 1.08-.06c3.29-3.3 6.54-6.64 9.8-10l-3.08-3 10.88-3.14c-.9 3.68-1.77 7.19-2.68 10.87l-2.87-2.69c-1.72 1.71-3.43 3.4-5.13 5.11s-3.11 3.21-4.7 4.78a.88.88 0 0 0-.21 1.17 5.62 5.62 0 0 1-1.12 6.47 5.76 5.76 0 0 1-6.51 1.33c-.4-.16-.7-.29-1.09.12-3 3.14-6.1 6.25-9.16 9.37-.09.09-.16.19-.33.4L132 70.12A11.47 11.47 0 0 1 150.68 77a3.2 3.2 0 0 0 .18.52v2.72l-1.31 4.53L142.2 78l-3.46 3.78 3.66 3.36c1.19 1.09 2.37 2.19 3.57 3.3-5.06 2.8-10.41 2.43-14.15-.94a11.31 11.31 0 0 1-3.6-6.07 11.55 11.55 0 0 1 1.78-9.16l-19-17.49-7.22 6.86a7.94 7.94 0 0 1 .94.68 5.22 5.22 0 0 1 0 7.56Q94.3 80.56 83.81 91.23a9.33 9.33 0 0 1-3.65 2.59h-2.33a27.79 27.79 0 0 1-2.67-1.66c-.84-.65-1.52-1.49-2.3-2.21a8.6 8.6 0 0 1-3-4.48zm12.41-4.94l17.48-17.8c-2.07-2.06-3-2-4.92-.05-3.13 3.24-6.3 6.43-9.45 9.64Q79.56 77.06 73.74 83a2.36 2.36 0 0 0-.1 3.6c1.25 1.27 2.53 2.5 3.83 3.72a2.21 2.21 0 0 0 3 .07 12.37 12.37 0 0 0 .91-.87q10.47-10.67 21-21.34c1.6-1.63 1.42-3.23-.57-4.47L84.3 81.47zm-8.43-53.24c-.43 3.1 1.76 6.61 4.93 8a8.53 8.53 0 0 0 10.52-12.6c-1.8-2.63-5.52-4.29-8-3.51L87 23.32l-7.39 8.08zm74 53.08a8.5 8.5 0 1 0-15.83 4 8.23 8.23 0 0 0 8.32 4.07L134.59 82l7.41-8.13zm-22.11-39a3 3 0 1 0 0-5.94 3 3 0 0 0 0 5.94zM156.16 287.59l-9.69 5.59v-4.29H89v-66.17h-4.45l5.63-9.72 5.61 9.72h-4.34v51.5l12.38-16 7.12 5.21c5-6.33 10-12.64 15.1-19l8.43 5.14c2.14-2.66 4.24-5.28 6.35-7.89 1.16-1.45 2.3-2.92 3.5-4.34a1.17 1.17 0 0 0 .18-1.57A4.87 4.87 0 0 1 147 229a4.92 4.92 0 0 1 6.5 2.92 4.84 4.84 0 0 1-3.42 6.3 5.69 5.69 0 0 1-2.36 0 1.18 1.18 0 0 0-1.37.49c-3.49 4.38-7 8.74-10.52 13.11l-.76.93-8.41-5.13-15.26 19.11-7.09-5.19c-1.23 1.6-2.47 3.18-3.69 4.77-2.92 3.78-5.84 7.55-8.72 11.35a2.53 2.53 0 0 0-.49 1.37v7.27h55V282zm-7.3-56.59a2.46 2.46 0 1 0 2.45 2.45 2.48 2.48 0 0 0-2.45-2.45z"/><path class="cls-3" d="M124.26 259.75c-.21-.66.13-1.09.83-1.37.5-.19 1-.47 1.49-.66 1.55-.59 1.55-.58 2.7.63.52.56 2.6.51 3-.17a1.52 1.52 0 0 1 2.24-.6c.44.19.89.37 1.33.54 1 .38 1.57.91 1.32 2.13-.19.94 1.39 2.35 2.33 2.16a1.31 1.31 0 0 1 1.75 1c.18.54.45 1.06.67 1.59.39.94.51 1.75-.6 2.4-.68.41-.53 2.5.19 3a1.27 1.27 0 0 1 .53 1.84c-.22.49-.36 1-.57 1.52-.63 1.44-.64 1.44-2.22 1.36-.74 0-2.25 1.44-2.09 2.19.26 1.24-.31 1.82-1.36 2.18-.43.15-.84.33-1.25.51a1.54 1.54 0 0 1-2.26-.56c-.52-.81-2.66-.79-3.17 0a1.44 1.44 0 0 1-2.12.56c-.39-.16-.77-.32-1.16-.46-1.15-.41-1.94-1-1.6-2.43.17-.76-1.51-2.18-2.32-2a1.29 1.29 0 0 1-1.75-.94c-.19-.51-.42-1-.64-1.49-.44-1-.62-1.82.54-2.51.63-.37.53-2.5-.13-2.92a1.38 1.38 0 0 1-.54-2c.2-.47.35-1 .55-1.43.64-1.43.65-1.43 2.23-1.34.92.05 2.15-1.48 2.08-2.73zM123 272.69l.24-.36a10.5 10.5 0 0 1 1.15.83 15.83 15.83 0 0 0 1.24 1.33c.84.6 1.59 1.16 1.18 2.37 0 .13.14.42.29.49s.5 0 .54-.08c.56-1.23 1.57-1 2.59-.89a3.35 3.35 0 0 0 1.34 0 1.66 1.66 0 0 1 2.16.82.71.71 0 0 0 .62.17.56.56 0 0 0 .28-.48c-.36-1.2.36-1.79 1.21-2.39a4 4 0 0 0 1.09-1.2 1.38 1.38 0 0 1 1.57-.76c.28.05.61-.15.92-.24-.17-.3-.26-.71-.52-.89a1.32 1.32 0 0 1-.55-1.47 7.27 7.27 0 0 0 0-2.28 1.37 1.37 0 0 1 .59-1.55c.24-.16.33-.53.48-.81a2.37 2.37 0 0 0-.88-.28 1.47 1.47 0 0 1-1.6-.71 7.48 7.48 0 0 0-1.68-1.69 1.32 1.32 0 0 1-.68-1.41c.06-.33-.18-.71-.28-1.06-.29.18-.66.29-.85.55a1.26 1.26 0 0 1-1.46.55 5.25 5.25 0 0 0-2.09-.05c-.92.16-1.66.1-2.16-.81a.7.7 0 0 0-.61-.22c-.16.06-.37.41-.32.55.37 1.12-.25 1.68-1.07 2.23a3.71 3.71 0 0 0-1.07 1.09 1.64 1.64 0 0 1-2 .94.71.71 0 0 0-.6.28.65.65 0 0 0 .16.62c1 .53 1 1.35.83 2.29a6.38 6.38 0 0 0 .07 1.9 1.2 1.2 0 0 1-.53 1.31 3.43 3.43 0 0 0-.59.86zM116.74 225.65a1.27 1.27 0 0 1 0 .39c-.57 1.42.37 2.22 1.29 2.94a1.82 1.82 0 0 0 1.32.15.94.94 0 0 1 1.2.62c.26.62.54 1.23.83 1.83.47 1 .57 1.88-.59 2.59-.65.4-.57 2.38.11 2.81a1.51 1.51 0 0 1 .59 2.18c-.2.43-.33.9-.53 1.33-.66 1.43-.67 1.42-2.24 1.34-.18 0-.46 0-.54.07-.64.84-2 1.3-1.47 2.79.19.5 0 .84-.54 1.05-.65.27-1.28.57-1.92.87-1 .48-1.87.57-2.56-.6-.41-.68-2.56-.64-3 .06-.65 1.07-1.44 1-2.41.59-.37-.18-.77-.3-1.15-.48-1.4-.65-1.4-.66-1.31-2.24 0-.71-1.51-2.26-2.19-2.08-1.16.32-1.72-.2-2.08-1.19-.16-.45-.33-.9-.53-1.33a1.63 1.63 0 0 1 .58-2.43 2.15 2.15 0 0 0 0-2.79 1.58 1.58 0 0 1-.59-2.34c.19-.41.34-.83.49-1.25.37-1 .87-1.69 2.16-1.34.82.22 2.33-1.43 2.12-2.28a1.42 1.42 0 0 1 1-1.89 14.55 14.55 0 0 0 1.41-.6c1-.47 1.82-.51 2.51.59.43.7 2.59.64 3.06-.07a1.54 1.54 0 0 1 2.26-.59c.4.2.83.32 1.24.52s.98.51 1.48.78zm-10.47 2a1.26 1.26 0 0 1-.6 1.68 5 5 0 0 0-1.44 1.38 1.85 1.85 0 0 1-2.12 1 .7.7 0 0 0-.56.32.55.55 0 0 0 .14.54c1 .53 1 1.38.85 2.34a3.23 3.23 0 0 0 0 1.24c.19.95.15 1.75-.83 2.25a.58.58 0 0 0-.17.54c.09.17.4.4.53.36 1.12-.36 1.7.26 2.24 1.09a3 3 0 0 0 .94.94c.86.53 1.4 1.15 1.07 2.25a.61.61 0 0 0 .28.5.56.56 0 0 0 .54-.08c.59-1.19 1.57-1 2.62-.87a3.64 3.64 0 0 0 1.61-.08 1.38 1.38 0 0 1 1.69.66 2.34 2.34 0 0 0 .74.44c.1-.3.32-.61.29-.89a1.51 1.51 0 0 1 .75-1.67 5.87 5.87 0 0 0 1.61-1.61 1.41 1.41 0 0 1 1.59-.72c.27 0 .58-.16.87-.25-.13-.28-.2-.65-.42-.81a1.38 1.38 0 0 1-.62-1.61 5.39 5.39 0 0 0 0-2.19 1.38 1.38 0 0 1 .62-1.61c.22-.17.29-.53.42-.81a2.44 2.44 0 0 0-.9-.25 1.45 1.45 0 0 1-1.58-.74 6.32 6.32 0 0 0-1.61-1.61 1.45 1.45 0 0 1-.74-1.58 2.23 2.23 0 0 0-.23-.91c-.3.16-.69.25-.87.49a1.34 1.34 0 0 1-1.54.57 6.89 6.89 0 0 0-2.48 0 1.28 1.28 0 0 1-1.45-.54 3 3 0 0 0-.86-.56z"/><path class="cls-3" d="M130.73 274.86a6.11 6.11 0 1 1 6.2-6.06 6.17 6.17 0 0 1-6.2 6.06zm3.73-6.08a3.81 3.81 0 0 0-3.76-3.72 3.71 3.71 0 1 0 .05 7.41 3.83 3.83 0 0 0 3.71-3.69zM110.23 229.42a6.12 6.12 0 1 1-6.15 6.05 6.11 6.11 0 0 1 6.15-6.05zm3.68 6.13a3.69 3.69 0 0 0-7.38-.05 3.69 3.69 0 1 0 7.38.05zM121.79 668.5v4.79l-9.86-5.58 9.85-5.57v4c1.62-.53 3.13-.92 4.56-1.51a23.88 23.88 0 0 0 14.9-22.33v-12.58a24 24 0 0 0-18.79-23.59c-.58-.14-.91-.12-1.26.5a5 5 0 0 1-8.64 0 .9.9 0 0 0-1.18-.53 24.09 24.09 0 0 0-18.57 19.63 27.64 27.64 0 0 0-.27 4.17v17.85a11.55 11.55 0 0 1-12.76-9.11c-1.31-6.24 2.86-13 10.56-13.82.5-1.63.88-3.3 1.52-4.85 3.58-8.74 10.07-14.11 19.23-16.29a1.32 1.32 0 0 0 1.12-1 5 5 0 0 1 9.37.07 1.18 1.18 0 0 0 1 .92c10.87 2.69 17.81 9.37 20.53 20.3.15.62.33.9 1 1a11.46 11.46 0 0 1 .2 22.79c-1 .12-1.28.54-1.55 1.45-3 10.2-9.81 16.47-20.08 19zm21.82-41.11v18A8.9 8.9 0 0 0 152 637a9.08 9.08 0 0 0-8.39-9.61zm-53.61.06c-4.19.14-8 4.32-8.05 8.81-.06 4.68 3.61 8.88 8.05 9.14zm26.82-20.64a2.49 2.49 0 0 0 2.59-2.47 2.59 2.59 0 1 0-2.59 2.47z"/><path class="cls-3" d="M129.85 623.88h.55c1.69-.11 1.72-.13 2.42 1.39.46 1 .8 2.11 1.21 3.15a.81.81 0 0 1-.34 1.14 3.26 3.26 0 0 0-1.65 3.19c0 1.6.33 2.63 1.65 3.39a.79.79 0 0 1 .34 1.13c-.56 1.34-1.12 2.68-1.66 4a.84.84 0 0 1-1.1.61c-1.58-.44-2.61.19-3.76 1.33s-1.65 2-1.24 3.41a1 1 0 0 1-.69 1.31c-1.35.52-2.7 1.07-4 1.62a.77.77 0 0 1-1.06-.34c-.81-1.36-1.92-1.73-3.57-1.73s-2.76.35-3.57 1.73a.75.75 0 0 1-1 .34l-4.2-1.71a.78.78 0 0 1-.56-1c.45-1.58-.19-2.6-1.35-3.72s-2.06-1.63-3.53-1.21a.94.94 0 0 1-1.24-.68c-.53-1.32-1.07-2.63-1.62-3.94a.78.78 0 0 1 .33-1.13c1.32-.76 1.68-1.79 1.66-3.39a3.4 3.4 0 0 0-1.63-3.22 1.11 1.11 0 0 1-.36-1c.52-1.45 1.16-2.85 1.74-4.28a.76.76 0 0 1 1-.47 3.42 3.42 0 0 0 3.64-1.17c1.09-1.15 1.84-2.12 1.37-3.71-.17-.56.09-.89.61-1.1 1.35-.53 2.69-1.07 4-1.63a.86.86 0 0 1 1.21.35 3.48 3.48 0 0 0 3.43 1.7c1.65 0 2.82-.34 3.69-1.74a1 1 0 0 1 .94-.34q2.22.79 4.36 1.77a1 1 0 0 1 .45.88 3.17 3.17 0 0 0 1.5 3.83 2.23 2.23 0 0 1 .62.64c.33.52.8.83 1.41.6zm1.58 4.51c-.63-2.14-.63-2.14-2.59-2a2.45 2.45 0 0 0-.27 0c-.58.18-.87-.15-1.24-.56a27.3 27.3 0 0 0-3-2.94 1.67 1.67 0 0 1-.79-1.67c.19-1.92.15-1.93-1.72-2.49h-.16c-.43.5-.91 1-1.34 1.59a1 1 0 0 1-1.06.38 11.38 11.38 0 0 0-3.53-.14 2.6 2.6 0 0 1-3.23-1.31c-.31-.56-.7-.56-1.25-.33-1.27.53-1.28.5-1.13 1.82a4.32 4.32 0 0 0 0 .62c.17.68-.15 1-.69 1.45a9.43 9.43 0 0 0-2.45 2.29 2.49 2.49 0 0 1-3 1.19.86.86 0 0 0-1.15.61c-.51 1.29-.55 1.28.52 2.16.21.17.41.35.63.5a.9.9 0 0 1 .39 1 8 8 0 0 0-.16 2.91 2.8 2.8 0 0 1-1.43 3.52.74.74 0 0 0-.31.62c.2 1.41.68 1.75 2.1 1.59h.44a1.33 1.33 0 0 1 1.48.63 8.2 8.2 0 0 0 2.12 2.26 2.73 2.73 0 0 1 1.44 3.44.77.77 0 0 0 .21.68 1.58 1.58 0 0 0 2.58-.27 4.35 4.35 0 0 0 .34-.41c.4-.67 1-.66 1.67-.6a20.34 20.34 0 0 0 3.9 0 1.81 1.81 0 0 1 1.9.69c1.13 1.43 1.17 1.4 2.8.59a3.11 3.11 0 0 0 .27-.18c0-.56-.08-1.15-.17-1.74a1.45 1.45 0 0 1 .69-1.54 13.74 13.74 0 0 0 2.74-2.64 2 2 0 0 1 2.24-.9c1.54.21 1.21.35 1.87-1a.92.92 0 0 0-.39-1.38c-.35-.23-.63-.55-1-.78a.89.89 0 0 1-.36-1.06 7 7 0 0 0 .18-2.56c-.34-1.86-.07-3.31 1.91-4.04z"/><path class="cls-3" d="M116.89 624.16a8.67 8.67 0 1 1-8.91 8.68 8.83 8.83 0 0 1 8.91-8.68zm0 14.91a6.26 6.26 0 1 0-6.46-6.23 6.39 6.39 0 0 0 6.48 6.23z"/></svg>