<svg id="Layer_1" data-name="Layer 1" xmlns="http://www.w3.org/2000/svg" viewBox="0 0 635.24 746.23"><defs><style>.cls-1{fill:#92d1ff;}.cls-2{fill:#bee3ff;}.cls-3{fill:#061838;}.cls-4{fill:none;stroke:#061838;stroke-miterlimit:10;stroke-width:3px;}</style></defs><title>cabin-systems</title><rect class="cls-1" x="-0.24" y="-0.12" width="635.24" height="197.16"/><rect class="cls-2" x="-0.24" y="204.07" width="635.24" height="176"/><rect class="cls-1" x="-0.24" y="387.11" width="635.24" height="176"/><path class="cls-3" d="M71.59,115.78v22.81H67.43V115.78Z"/><path class="cls-3" d="M76.4,127c0-1.9,0-3.49-.14-4.91h3.66l.2,2.47h.1a6,6,0,0,1,5.25-2.84c2.87,0,5.85,1.86,5.85,7.07v9.78H87.16v-9.3c0-2.37-.88-4.17-3.15-4.17a3.5,3.5,0,0,0-3.25,2.44,4.41,4.41,0,0,0-.17,1.36v9.67H76.4Z"/><path class="cls-3" d="M100.36,117.41v4.7h4v3.12h-4v7.27c0,2,.54,3.05,2.13,3.05a6.28,6.28,0,0,0,1.63-.2l.07,3.18a9.43,9.43,0,0,1-3,.4,4.81,4.81,0,0,1-3.58-1.35c-.88-1-1.29-2.44-1.29-4.6v-7.75H93.93v-3.12H96.3v-3.72Z"/><path class="cls-3" d="M110.21,131.52c.1,3,2.44,4.27,5.08,4.27a12.45,12.45,0,0,0,4.57-.75l.61,2.88a15.67,15.67,0,0,1-5.76,1c-5.34,0-8.49-3.28-8.49-8.32,0-4.57,2.77-8.87,8-8.87s7.11,4.4,7.11,8a11.21,11.21,0,0,1-.13,1.76Zm7.25-2.91c0-1.52-.65-4-3.42-4-2.58,0-3.66,2.34-3.83,4Z"/><path class="cls-3" d="M124.73,127.43c0-2.24,0-3.83-.13-5.32h3.62l.14,3.15h.13a4.91,4.91,0,0,1,4.5-3.52,4.16,4.16,0,0,1,1,.1v3.93a5.51,5.51,0,0,0-1.21-.14,3.68,3.68,0,0,0-3.73,3.15,6.94,6.94,0,0,0-.13,1.29v8.52h-4.17Z"/><path class="cls-3" d="M141.22,117.51a2.34,2.34,0,1,1-2.34-2.27A2.2,2.2,0,0,1,141.22,117.51Zm-4.43,21.08V122.11H141v16.48Z"/><path class="cls-3" d="M161.12,130.2c0,6.06-4.26,8.77-8.46,8.77-4.67,0-8.26-3.22-8.26-8.5s3.56-8.73,8.53-8.73S161.12,125.19,161.12,130.2Zm-12.42.17c0,3.18,1.56,5.58,4.1,5.58,2.37,0,4-2.33,4-5.65,0-2.57-1.15-5.51-4-5.51S148.7,127.63,148.7,130.37Z"/><path class="cls-3" d="M164.54,127.43c0-2.24,0-3.83-.13-5.32H168l.14,3.15h.13a4.91,4.91,0,0,1,4.5-3.52,4.22,4.22,0,0,1,1,.1v3.93a5.62,5.62,0,0,0-1.22-.14,3.67,3.67,0,0,0-3.72,3.15,6.94,6.94,0,0,0-.13,1.29v8.52h-4.17Z"/><path class="cls-3" d="M176.39,134.77a9.23,9.23,0,0,0,4.23,1.18c1.83,0,2.64-.74,2.64-1.82s-.68-1.7-2.71-2.41c-3.21-1.11-4.56-2.87-4.53-4.8,0-2.91,2.4-5.18,6.23-5.18a9.66,9.66,0,0,1,4.36,1l-.81,3a7.35,7.35,0,0,0-3.49-1c-1.49,0-2.3.71-2.3,1.72s.78,1.56,2.88,2.31c3,1.08,4.36,2.6,4.4,5,0,3-2.34,5.14-6.7,5.14a10.6,10.6,0,0,1-5-1.15Z"/><path class="cls-3" d="M61.25,519.14h-8.6v6.7h9.61v3.42H48.49V506.45H61.75v3.41h-9.1v5.89h8.6Z"/><path class="cls-3" d="M68.53,512.78l2,3.11c.54.88,1,1.69,1.49,2.54h.1c.47-.92,1-1.76,1.42-2.61l1.83-3h4.53l-5.51,7.91L80,529.26h-4.7l-2-3.29c-.54-.88-1-1.76-1.49-2.67h-.07c-.47,1-.94,1.76-1.49,2.67l-1.89,3.29h-4.6l5.72-8.4-5.52-8.08Z"/><path class="cls-3" d="M82.47,518.26c0-2.17-.07-3.93-.13-5.48H86l.2,2.53h.07a6.43,6.43,0,0,1,5.65-2.91c3.8,0,6.94,3.25,6.94,8.4,0,6-3.75,8.83-7.51,8.83a5.42,5.42,0,0,1-4.64-2.2h-.07V536H82.47Zm4.16,4.09a4.32,4.32,0,0,0,.14,1.15,3.76,3.76,0,0,0,3.66,2.91c2.64,0,4.19-2.2,4.19-5.45,0-2.91-1.42-5.27-4.09-5.27a3.88,3.88,0,0,0-3.73,3.08,3.77,3.77,0,0,0-.17,1Z"/><path class="cls-3" d="M105.22,522.18c.1,3,2.44,4.27,5.08,4.27a12.23,12.23,0,0,0,4.56-.75l.61,2.88a15.39,15.39,0,0,1-5.75,1c-5.35,0-8.49-3.29-8.49-8.33,0-4.57,2.77-8.87,8-8.87s7.11,4.4,7.11,8a9.88,9.88,0,0,1-.14,1.76Zm7.24-2.91c0-1.52-.64-4-3.42-4-2.57,0-3.65,2.33-3.82,4Z"/><path class="cls-3" d="M119.74,518.09c0-2.24,0-3.83-.13-5.31h3.62l.13,3.14h.14a4.92,4.92,0,0,1,4.5-3.52,4.84,4.84,0,0,1,1,.1v3.93a5.62,5.62,0,0,0-1.22-.14,3.67,3.67,0,0,0-3.72,3.15,6.88,6.88,0,0,0-.14,1.29v8.53h-4.16Z"/><path class="cls-3" d="M136.23,508.17a2.22,2.22,0,0,1-2.37,2.24,2.19,2.19,0,0,1-2.3-2.24,2.34,2.34,0,0,1,4.67,0Zm-4.44,21.09V512.78H136v16.48Z"/><path class="cls-3" d="M143.4,522.18c.1,3,2.44,4.27,5.08,4.27a12.24,12.24,0,0,0,4.57-.75l.61,2.88a15.45,15.45,0,0,1-5.76,1c-5.34,0-8.49-3.29-8.49-8.33,0-4.57,2.77-8.87,8.05-8.87s7.11,4.4,7.11,8a11.21,11.21,0,0,1-.13,1.76Zm7.25-2.91c0-1.52-.65-4-3.42-4-2.57,0-3.66,2.33-3.83,4Z"/><path class="cls-3" d="M157.92,517.68c0-1.89,0-3.48-.13-4.9h3.66l.2,2.47h.1A5.93,5.93,0,0,1,167,512.4c2.87,0,5.85,1.86,5.85,7.08v9.78h-4.16V520c0-2.37-.88-4.16-3.15-4.16a3.49,3.49,0,0,0-3.25,2.43,4.45,4.45,0,0,0-.17,1.36v9.68h-4.2Z"/><path class="cls-3" d="M189.4,528.75a11.94,11.94,0,0,1-4.67.85c-5.14,0-8.49-3.29-8.49-8.4,0-4.94,3.38-8.8,9.17-8.8a10.42,10.42,0,0,1,4,.78l-.75,3.11a7.4,7.4,0,0,0-3.15-.64c-3.18,0-5.07,2.34-5,5.35,0,3.38,2.2,5.31,5,5.31a8.13,8.13,0,0,0,3.29-.64Z"/><path class="cls-3" d="M195.13,522.18c.1,3,2.43,4.27,5.07,4.27a12.24,12.24,0,0,0,4.57-.75l.61,2.88a15.39,15.39,0,0,1-5.75,1c-5.35,0-8.5-3.29-8.5-8.33,0-4.57,2.78-8.87,8.06-8.87s7.1,4.4,7.1,8a10.09,10.09,0,0,1-.13,1.76Zm7.24-2.91c0-1.52-.64-4-3.42-4-2.57,0-3.65,2.33-3.82,4Z"/><path class="cls-3" d="M35.53,347.69a14.58,14.58,0,0,1-5.89,1C22.4,348.7,18,344.17,18,337.23c0-7.51,5.21-12.05,12.18-12.05a13.1,13.1,0,0,1,5.55,1l-.91,3.31a11.21,11.21,0,0,0-4.47-.88c-4.64,0-8,2.91-8,8.4,0,5,2.95,8.22,8,8.22a11.59,11.59,0,0,0,4.54-.85Z"/><path class="cls-3" d="M38.81,324.33H43v24h-4.2Z"/><path class="cls-3" d="M52,327.28a2.21,2.21,0,0,1-2.37,2.23,2.18,2.18,0,0,1-2.3-2.23,2.34,2.34,0,0,1,4.67,0Zm-4.44,21.08V331.88h4.2v16.48Z"/><path class="cls-3" d="M56.18,336.79c0-1.9,0-3.49-.14-4.91h3.59l.17,2.44h.1A5.69,5.69,0,0,1,65,331.51a4.75,4.75,0,0,1,4.57,3.05h.07a6.1,6.1,0,0,1,2-2.07,5.5,5.5,0,0,1,3.31-1c2.74,0,5.52,1.86,5.52,7.14v9.71H76.42v-9.1c0-2.74-1-4.37-3-4.37a3.18,3.18,0,0,0-2.91,2.2,6.13,6.13,0,0,0-.2,1.39v9.88H66.3v-9.54c0-2.3-.91-3.93-2.84-3.93a3.25,3.25,0,0,0-3,2.37,3.57,3.57,0,0,0-.24,1.36v9.74H56.18Z"/><path class="cls-3" d="M94.16,348.36l-.27-1.82h-.1a6.15,6.15,0,0,1-4.88,2.2,4.9,4.9,0,0,1-5.18-4.91c0-4.16,3.69-6.26,9.79-6.23v-.27c0-1.08-.44-2.88-3.35-2.88a8.75,8.75,0,0,0-4.44,1.22L84.92,333a11.93,11.93,0,0,1,6-1.45c5.28,0,6.8,3.35,6.8,6.94v5.95a26.23,26.23,0,0,0,.24,4Zm-.54-8.05c-3-.07-5.76.57-5.76,3.08a2.19,2.19,0,0,0,2.37,2.37,3.38,3.38,0,0,0,3.25-2.27,3,3,0,0,0,.14-.91Z"/><path class="cls-3" d="M106.65,327.18v4.7h4V335h-4v7.27c0,2,.54,3.05,2.13,3.05a5.86,5.86,0,0,0,1.63-.21l.07,3.19a9.43,9.43,0,0,1-3,.4,4.81,4.81,0,0,1-3.58-1.35c-.88-1-1.29-2.44-1.29-4.6V335h-2.37v-3.12h2.37v-3.72Z"/><path class="cls-3" d="M116.5,341.29c.1,3,2.44,4.26,5.08,4.26a12.47,12.47,0,0,0,4.57-.74l.61,2.88a15.67,15.67,0,0,1-5.76,1c-5.34,0-8.49-3.28-8.49-8.32,0-4.57,2.77-8.87,8-8.87s7.11,4.4,7.11,8a9.88,9.88,0,0,1-.14,1.76Zm7.24-2.91c0-1.52-.64-4-3.41-4-2.58,0-3.66,2.34-3.83,4Z"/><path class="cls-3" d="M150.15,347.86a12.2,12.2,0,0,1-4.67.84c-5.15,0-8.5-3.28-8.5-8.39,0-4.94,3.39-8.8,9.17-8.8a10.38,10.38,0,0,1,4,.78l-.74,3.11a7.43,7.43,0,0,0-3.15-.64c-3.18,0-5.08,2.33-5,5.35,0,3.38,2.2,5.31,5,5.31a8.29,8.29,0,0,0,3.28-.64Z"/><path class="cls-3" d="M168.6,340c0,6.06-4.27,8.77-8.47,8.77-4.67,0-8.25-3.22-8.25-8.5s3.55-8.73,8.52-8.73S168.6,335,168.6,340Zm-12.43.17c0,3.18,1.56,5.58,4.1,5.58,2.37,0,4-2.33,4-5.65,0-2.57-1.15-5.51-4-5.51S156.17,337.4,156.17,340.14Z"/><path class="cls-3" d="M172,336.79c0-1.9,0-3.49-.14-4.91h3.66l.2,2.47h.1a6,6,0,0,1,5.25-2.84c2.87,0,5.85,1.86,5.85,7.07v9.78h-4.16v-9.3c0-2.37-.88-4.17-3.15-4.17a3.5,3.5,0,0,0-3.25,2.44,4.38,4.38,0,0,0-.17,1.35v9.68H172Z"/><path class="cls-3" d="M196,327.18v4.7h4V335h-4v7.27c0,2,.54,3.05,2.14,3.05a5.72,5.72,0,0,0,1.62-.21l.07,3.19a9.36,9.36,0,0,1-3,.4,4.84,4.84,0,0,1-3.59-1.35c-.88-1-1.29-2.44-1.29-4.6V335h-2.37v-3.12h2.37v-3.72Z"/><path class="cls-3" d="M203.09,337.19c0-2.23,0-3.82-.13-5.31h3.62l.14,3.15h.13a4.91,4.91,0,0,1,4.5-3.52,4.22,4.22,0,0,1,1,.1v3.93a5.62,5.62,0,0,0-1.22-.14,3.67,3.67,0,0,0-3.72,3.15,6.91,6.91,0,0,0-.13,1.28v8.53h-4.17Z"/><path class="cls-3" d="M230.51,340c0,6.06-4.27,8.77-8.46,8.77-4.67,0-8.26-3.22-8.26-8.5s3.55-8.73,8.53-8.73S230.51,335,230.51,340Zm-12.42.17c0,3.18,1.56,5.58,4.09,5.58,2.37,0,4-2.33,4-5.65,0-2.57-1.15-5.51-4-5.51S218.09,337.4,218.09,340.14Z"/><path class="cls-3" d="M233.93,324.33h4.2v24h-4.2Z"/><path class="cls-3" d="M310.85,50a7.83,7.83,0,0,0,4,1.12c2.26,0,3.58-1.19,3.58-2.92s-.92-2.51-3.23-3.4c-2.79-1-4.52-2.44-4.52-4.85,0-2.67,2.21-4.65,5.54-4.65a7.78,7.78,0,0,1,3.78.84l-.61,1.8a6.88,6.88,0,0,0-3.25-.81c-2.33,0-3.22,1.4-3.22,2.56,0,1.6,1,2.39,3.4,3.3,2.9,1.12,4.37,2.52,4.37,5s-2,4.93-6,4.93a9,9,0,0,1-4.37-1.09Z"/><path class="cls-3" d="M325,47c.05,3,2,4.27,4.21,4.27a8.22,8.22,0,0,0,3.41-.63l.38,1.6a10.1,10.1,0,0,1-4.09.76c-3.78,0-6-2.49-6-6.2s2.18-6.63,5.76-6.63c4,0,5.08,3.53,5.08,5.79a7.3,7.3,0,0,1-.08,1Zm6.55-1.59c0-1.43-.58-3.64-3.1-3.64-2.26,0-3.25,2.09-3.43,3.64Z"/><path class="cls-3" d="M343.27,52.72l-.18-1.55H343A4.58,4.58,0,0,1,339.26,53a3.5,3.5,0,0,1-3.76-3.53c0-3,2.64-4.59,7.39-4.57v-.25a2.53,2.53,0,0,0-2.79-2.84,6.08,6.08,0,0,0-3.2.91l-.51-1.47a7.62,7.62,0,0,1,4-1.1c3.75,0,4.67,2.57,4.67,5v4.6a17.49,17.49,0,0,0,.2,2.94Zm-.33-6.27c-2.44-.05-5.21.38-5.21,2.77a2,2,0,0,0,2.11,2.13,3,3,0,0,0,3-2.05,2.28,2.28,0,0,0,.13-.72Z"/><path class="cls-3" d="M351.29,36.9v3.53h3.2v1.71h-3.2v6.62c0,1.53.43,2.39,1.68,2.39a5.27,5.27,0,0,0,1.29-.15l.1,1.67a5.37,5.37,0,0,1-2,.31A3.09,3.09,0,0,1,350,52a4.57,4.57,0,0,1-.86-3.2v-6.7H347.2V40.43h1.91V37.49Z"/><path class="cls-3" d="M371.15,52.27a8.33,8.33,0,0,1-3.53.71c-3.71,0-6.12-2.52-6.12-6.27a6.24,6.24,0,0,1,6.6-6.53,7.57,7.57,0,0,1,3.1.63l-.51,1.73A5.23,5.23,0,0,0,368.1,42c-2.82,0-4.34,2.08-4.34,4.64,0,2.85,1.82,4.6,4.26,4.6a6.31,6.31,0,0,0,2.74-.61Z"/><path class="cls-3" d="M384.73,46.48c0,4.54-3.15,6.52-6.12,6.52-3.33,0-5.89-2.44-5.89-6.32,0-4.11,2.69-6.53,6.09-6.53S384.73,42.72,384.73,46.48ZM375,46.6c0,2.7,1.55,4.73,3.73,4.73s3.73-2,3.73-4.78c0-2.08-1-4.72-3.68-4.72S375,44.27,375,46.6Z"/><path class="cls-3" d="M387.55,43.76c0-1.27,0-2.31-.11-3.33h2l.13,2h.05a4.52,4.52,0,0,1,4.07-2.32c1.7,0,4.34,1,4.34,5.24v7.33h-2.24V45.64c0-2-.73-3.63-2.84-3.63a3.18,3.18,0,0,0-3,2.28,3.26,3.26,0,0,0-.15,1v7.39h-2.23Z"/><path class="cls-3" d="M401.87,52.72V42.14h-1.73V40.43h1.73v-.66c0-3.25,1.9-5.35,5.35-5.35a6.14,6.14,0,0,1,3.13.81l-.64,1.7a4.7,4.7,0,0,0-2.59-.71c-2.36,0-3.05,1.65-3.05,3.6v.61h7.14V52.72H409V42.14h-4.93V52.72Z"/><path class="cls-3" d="M425.5,40.43c-.05.89-.1,1.88-.1,3.38V51c0,2.81-.56,4.54-1.75,5.61A6.54,6.54,0,0,1,419.18,58a8,8,0,0,1-4.09-1l.56-1.7a6.9,6.9,0,0,0,3.61,1c2.28,0,4-1.2,4-4.29V50.62h-.05a4.4,4.4,0,0,1-3.91,2.05c-3.05,0-5.23-2.59-5.23-6,0-4.16,2.71-6.53,5.53-6.53a4.11,4.11,0,0,1,3.84,2.14h.05l.1-1.86Zm-2.31,4.85a3.18,3.18,0,0,0-.12-1,3.22,3.22,0,0,0-3.13-2.36c-2.13,0-3.65,1.8-3.65,4.64,0,2.42,1.21,4.42,3.63,4.42A3.25,3.25,0,0,0,423,48.69a3.84,3.84,0,0,0,.18-1.2Z"/><path class="cls-3" d="M439.39,49.37c0,1.27,0,2.39.1,3.35h-2l-.13-2h-.05A4.6,4.6,0,0,1,433.27,53c-1.93,0-4.24-1.06-4.24-5.38V40.43h2.24v6.81c0,2.33.71,3.91,2.74,3.91A3.16,3.16,0,0,0,437.16,48V40.43h2.23Z"/><path class="cls-3" d="M443.1,44.27c0-1.45,0-2.69-.1-3.84H445l.08,2.42h.1a3.69,3.69,0,0,1,3.4-2.7,2.55,2.55,0,0,1,.64.08v2.11a3.44,3.44,0,0,0-.77-.08,3.13,3.13,0,0,0-3,2.87,6.44,6.44,0,0,0-.1,1v6.55H443.1Z"/><path class="cls-3" d="M458.08,52.72l-.18-1.55h-.08A4.55,4.55,0,0,1,454.06,53a3.5,3.5,0,0,1-3.75-3.53c0-3,2.64-4.59,7.39-4.57v-.25a2.53,2.53,0,0,0-2.8-2.84,6.13,6.13,0,0,0-3.2.91l-.5-1.47a7.59,7.59,0,0,1,4-1.1c3.76,0,4.67,2.57,4.67,5v4.6a17.42,17.42,0,0,0,.21,2.94Zm-.33-6.27c-2.44-.05-5.21.38-5.21,2.77a2,2,0,0,0,2.11,2.13,3.06,3.06,0,0,0,3-2.05,2.28,2.28,0,0,0,.13-.72Z"/><path class="cls-3" d="M466.1,36.9v3.53h3.2v1.71h-3.2v6.62c0,1.53.43,2.39,1.67,2.39a5.29,5.29,0,0,0,1.3-.15l.1,1.67a5.41,5.41,0,0,1-2,.31,3.09,3.09,0,0,1-2.41-.94,4.53,4.53,0,0,1-.86-3.2v-6.7H462V40.43h1.91V37.49Z"/><path class="cls-3" d="M474.3,37a1.39,1.39,0,0,1-2.77,0,1.37,1.37,0,0,1,1.4-1.4A1.33,1.33,0,0,1,474.3,37Zm-2.49,15.74V40.43H474V52.72Z"/><path class="cls-3" d="M488.87,46.48c0,4.54-3.15,6.52-6.12,6.52-3.32,0-5.89-2.44-5.89-6.32,0-4.11,2.69-6.53,6.1-6.53S488.87,42.72,488.87,46.48Zm-9.75.12c0,2.7,1.55,4.73,3.73,4.73s3.74-2,3.74-4.78c0-2.08-1-4.72-3.68-4.72S479.12,44.27,479.12,46.6Z"/><path class="cls-3" d="M491.69,43.76c0-1.27,0-2.31-.1-3.33h2l.13,2h.05a4.52,4.52,0,0,1,4.06-2.32c1.7,0,4.34,1,4.34,5.24v7.33h-2.23V45.64c0-2-.74-3.63-2.85-3.63a3.17,3.17,0,0,0-3,2.28,3,3,0,0,0-.16,1v7.39h-2.23Z"/><path class="cls-3" d="M323.11,107.55a10.88,10.88,0,0,1-4.52.82c-4.82,0-8.45-3.05-8.45-8.66,0-5.36,3.63-9,8.93-9a9.29,9.29,0,0,1,4.07.76l-.54,1.8a8.1,8.1,0,0,0-3.45-.71c-4,0-6.68,2.57-6.68,7.06,0,4.19,2.41,6.88,6.58,6.88a8.83,8.83,0,0,0,3.6-.71Z"/><path class="cls-3" d="M332.43,108.11l-.18-1.55h-.08a4.54,4.54,0,0,1-3.75,1.83,3.5,3.5,0,0,1-3.76-3.53c0-3,2.64-4.59,7.39-4.57V100a2.54,2.54,0,0,0-2.8-2.85,6.14,6.14,0,0,0-3.2.92l-.5-1.47a7.61,7.61,0,0,1,4-1.1c3.76,0,4.68,2.57,4.68,5v4.6a17.57,17.57,0,0,0,.2,2.94Zm-.33-6.27c-2.44,0-5.21.38-5.21,2.77a2,2,0,0,0,2.11,2.13,3,3,0,0,0,3-2.06,2.17,2.17,0,0,0,.13-.71Z"/><path class="cls-3" d="M337.76,108.11c.05-.84.1-2.08.1-3.17V90.08h2.21V97.8h.05a4.58,4.58,0,0,1,4.19-2.26c3.05,0,5.2,2.54,5.18,6.27,0,4.4-2.77,6.58-5.51,6.58a4.36,4.36,0,0,1-4.11-2.31h-.08l-.1,2Zm2.31-4.92a4.27,4.27,0,0,0,.1.81,3.44,3.44,0,0,0,3.35,2.61c2.34,0,3.73-1.9,3.73-4.72,0-2.46-1.26-4.57-3.65-4.57a3.56,3.56,0,0,0-3.4,2.74,4.52,4.52,0,0,0-.13.92Z"/><path class="cls-3" d="M354.79,92.37a1.38,1.38,0,0,1-2.76,0,1.36,1.36,0,0,1,1.39-1.4A1.33,1.33,0,0,1,354.79,92.37Zm-2.48,15.74V95.82h2.23v12.29Z"/><path class="cls-3" d="M358.25,99.15c0-1.27,0-2.31-.11-3.33h2l.12,2h.05a4.54,4.54,0,0,1,4.07-2.31c1.7,0,4.34,1,4.34,5.23v7.34h-2.24V101c0-2-.73-3.63-2.84-3.63a3.18,3.18,0,0,0-3,2.28,3.26,3.26,0,0,0-.15,1v7.39h-2.23Z"/><path class="cls-3" d="M377.41,105.83a5.88,5.88,0,0,0,2.95.89c1.62,0,2.39-.82,2.39-1.83s-.64-1.65-2.29-2.26c-2.21-.79-3.25-2-3.25-3.48,0-2,1.6-3.61,4.24-3.61a6,6,0,0,1,3,.77l-.56,1.62a4.81,4.81,0,0,0-2.51-.71c-1.32,0-2.06.76-2.06,1.68s.74,1.47,2.34,2.08c2.13.81,3.22,1.88,3.22,3.7,0,2.16-1.67,3.69-4.59,3.69a7,7,0,0,1-3.45-.84Z"/><path class="cls-3" d="M398.06,104.76c0,1.27,0,2.39.1,3.35h-2l-.13-2H396a4.62,4.62,0,0,1-4.06,2.28c-1.93,0-4.24-1.07-4.24-5.38V95.82h2.23v6.81c0,2.33.71,3.91,2.74,3.91a3.13,3.13,0,0,0,3.15-3.18V95.82h2.24Z"/><path class="cls-3" d="M401.76,99.66c0-1.45,0-2.69-.1-3.84h2l.07,2.41h.1a3.69,3.69,0,0,1,3.41-2.69,2.41,2.41,0,0,1,.63.08v2.11a3.41,3.41,0,0,0-.76-.08,3.13,3.13,0,0,0-3,2.87,6.33,6.33,0,0,0-.1,1v6.55h-2.21Z"/><path class="cls-3" d="M411.56,95.82l2.41,6.91a29.62,29.62,0,0,1,1,3.15H415c.28-1,.63-2,1-3.15l2.39-6.91h2.33L416,108.11h-2.13l-4.68-12.29Z"/><path class="cls-3" d="M423.9,102.37c.05,3,2,4.27,4.22,4.27a8,8,0,0,0,3.4-.64l.38,1.6a9.85,9.85,0,0,1-4.09.77c-3.78,0-6-2.49-6-6.2s2.18-6.63,5.76-6.63c4,0,5.08,3.53,5.08,5.79a7.3,7.3,0,0,1-.08,1Zm6.55-1.6c0-1.42-.58-3.63-3.1-3.63-2.26,0-3.25,2.09-3.42,3.63Z"/><path class="cls-3" d="M437.86,92.37a1.31,1.31,0,0,1-1.42,1.37,1.33,1.33,0,0,1-1.34-1.37,1.36,1.36,0,0,1,1.39-1.4A1.33,1.33,0,0,1,437.86,92.37Zm-2.48,15.74V95.82h2.23v12.29Z"/><path class="cls-3" d="M441.32,90.08h2.23v18h-2.23Z"/><path class="cls-3" d="M447.31,90.08h2.23v18h-2.23Z"/><path class="cls-3" d="M460.1,108.11l-.17-1.55h-.08a4.58,4.58,0,0,1-3.76,1.83,3.5,3.5,0,0,1-3.76-3.53c0-3,2.64-4.59,7.39-4.57V100a2.54,2.54,0,0,0-2.79-2.85,6.11,6.11,0,0,0-3.2.92l-.51-1.47a7.65,7.65,0,0,1,4-1.1c3.76,0,4.67,2.57,4.67,5v4.6a17.57,17.57,0,0,0,.2,2.94Zm-.33-6.27c-2.43,0-5.2.38-5.2,2.77a2,2,0,0,0,2.11,2.13,3.05,3.05,0,0,0,3-2.06,2.46,2.46,0,0,0,.12-.71Z"/><path class="cls-3" d="M465.54,99.15c0-1.27,0-2.31-.11-3.33h2l.12,2h0a4.54,4.54,0,0,1,4.07-2.31c1.7,0,4.34,1,4.34,5.23v7.34h-2.24V101c0-2-.73-3.63-2.84-3.63a3.18,3.18,0,0,0-3,2.28,3.26,3.26,0,0,0-.15,1v7.39h-2.23Z"/><path class="cls-3" d="M488.39,107.65a8.15,8.15,0,0,1-3.53.72c-3.71,0-6.12-2.52-6.12-6.28a6.24,6.24,0,0,1,6.6-6.52,7.57,7.57,0,0,1,3.1.63l-.51,1.73a5.23,5.23,0,0,0-2.59-.58c-2.82,0-4.34,2.08-4.34,4.64,0,2.85,1.83,4.6,4.26,4.6A6.39,6.39,0,0,0,488,106Z"/><path class="cls-3" d="M492.09,102.37c.05,3,2,4.27,4.22,4.27a8,8,0,0,0,3.4-.64l.38,1.6a9.85,9.85,0,0,1-4.09.77c-3.78,0-6-2.49-6-6.2s2.18-6.63,5.76-6.63c4,0,5.08,3.53,5.08,5.79a9.75,9.75,0,0,1-.07,1Zm6.55-1.6c0-1.42-.58-3.63-3.09-3.63-2.26,0-3.25,2.09-3.43,3.63Z"/><path class="cls-3" d="M311.15,146.39h9.22v1.85h-7v5.69h6.48v1.83h-6.48v7.74h-2.21Z"/><path class="cls-3" d="M323,145.47h2.23v18H323Z"/><path class="cls-3" d="M331.49,147.76a1.39,1.39,0,0,1-2.77,0,1.36,1.36,0,0,1,1.4-1.4A1.33,1.33,0,0,1,331.49,147.76ZM329,163.5V151.21h2.23V163.5Z"/><path class="cls-3" d="M345.53,151.21c0,.89-.1,1.88-.1,3.38v7.13c0,2.82-.56,4.55-1.76,5.61a6.49,6.49,0,0,1-4.46,1.48,7.92,7.92,0,0,1-4.09-1l.56-1.7a6.89,6.89,0,0,0,3.6,1c2.29,0,4-1.19,4-4.29v-1.37h-.05a4.36,4.36,0,0,1-3.91,2.06c-3,0-5.23-2.59-5.23-6,0-4.17,2.72-6.53,5.54-6.53a4.09,4.09,0,0,1,3.83,2.13h.05l.1-1.85Zm-2.31,4.85a3.28,3.28,0,0,0-.13-1,3.23,3.23,0,0,0-3.12-2.36c-2.14,0-3.66,1.81-3.66,4.65,0,2.41,1.22,4.42,3.63,4.42a3.27,3.27,0,0,0,3.1-2.29,3.78,3.78,0,0,0,.18-1.19Z"/><path class="cls-3" d="M349.13,145.47h2.24v7.67h.05a4.1,4.1,0,0,1,1.6-1.57,4.59,4.59,0,0,1,2.28-.64c1.65,0,4.29,1,4.29,5.26v7.31h-2.23v-7.06c0-2-.74-3.65-2.84-3.65a3.21,3.21,0,0,0-3,2.23,2.64,2.64,0,0,0-.15,1.07v7.41h-2.24Z"/><path class="cls-3" d="M365.81,147.68v3.53H369v1.7h-3.2v6.63c0,1.52.44,2.39,1.68,2.39a4.73,4.73,0,0,0,1.29-.16l.11,1.68a5.48,5.48,0,0,1-2,.3,3.11,3.11,0,0,1-2.42-.94,4.56,4.56,0,0,1-.86-3.19v-6.71h-1.9v-1.7h1.9v-2.94Z"/><path class="cls-3" d="M383.71,163.5l-.18-1.55h-.07a4.58,4.58,0,0,1-3.76,1.83,3.5,3.5,0,0,1-3.76-3.53c0-3,2.64-4.6,7.39-4.57v-.25a2.54,2.54,0,0,0-2.79-2.85,6.11,6.11,0,0,0-3.2.92l-.51-1.48a7.65,7.65,0,0,1,4-1.09c3.76,0,4.67,2.57,4.67,5v4.59a17.62,17.62,0,0,0,.2,2.95Zm-.33-6.27c-2.44,0-5.2.38-5.2,2.77a2,2,0,0,0,2.1,2.13,3.05,3.05,0,0,0,3-2.06,2.22,2.22,0,0,0,.13-.71Z"/><path class="cls-3" d="M391.73,147.68v3.53h3.2v1.7h-3.2v6.63c0,1.52.44,2.39,1.68,2.39a4.82,4.82,0,0,0,1.3-.16l.1,1.68a5.44,5.44,0,0,1-2,.3,3.12,3.12,0,0,1-2.42-.94,4.56,4.56,0,0,1-.86-3.19v-6.71h-1.9v-1.7h1.9v-2.94Z"/><path class="cls-3" d="M400.14,147.68v3.53h3.2v1.7h-3.2v6.63c0,1.52.43,2.39,1.67,2.39a4.76,4.76,0,0,0,1.3-.16l.1,1.68a5.44,5.44,0,0,1-2,.3,3.09,3.09,0,0,1-2.41-.94,4.51,4.51,0,0,1-.87-3.19v-6.71h-1.9v-1.7H398v-2.94Z"/><path class="cls-3" d="M406.94,157.76c.05,3,2,4.27,4.22,4.27a8,8,0,0,0,3.4-.64l.38,1.6a9.89,9.89,0,0,1-4.09.76c-3.78,0-6-2.48-6-6.19s2.18-6.63,5.76-6.63c4,0,5.08,3.53,5.08,5.79a7.43,7.43,0,0,1-.08,1Zm6.55-1.6c0-1.42-.58-3.63-3.1-3.63-2.26,0-3.25,2.08-3.42,3.63Z"/><path class="cls-3" d="M418.42,154.54c0-1.27,0-2.31-.1-3.33h2l.12,2h.05a4.52,4.52,0,0,1,4.07-2.31c1.7,0,4.34,1,4.34,5.23v7.34h-2.24v-7.08c0-2-.73-3.63-2.84-3.63a3.18,3.18,0,0,0-3,2.28,3.26,3.26,0,0,0-.15,1v7.39h-2.23Z"/><path class="cls-3" d="M443.12,145.47v14.86c0,1.09,0,2.33.1,3.17h-2l-.1-2.13h-.06a4.53,4.53,0,0,1-4.18,2.41c-3,0-5.26-2.51-5.26-6.25,0-4.08,2.51-6.6,5.51-6.6a4.12,4.12,0,0,1,3.71,1.88h.05v-7.34Zm-2.23,10.74a4.29,4.29,0,0,0-.1-.94,3.29,3.29,0,0,0-3.23-2.59c-2.31,0-3.68,2-3.68,4.75,0,2.49,1.22,4.55,3.63,4.55a3.36,3.36,0,0,0,3.28-2.67,4.16,4.16,0,0,0,.1-1Z"/><path class="cls-3" d="M453.63,163.5l-.18-1.55h-.07a4.58,4.58,0,0,1-3.76,1.83,3.5,3.5,0,0,1-3.76-3.53c0-3,2.64-4.6,7.39-4.57v-.25a2.54,2.54,0,0,0-2.79-2.85,6.11,6.11,0,0,0-3.2.92l-.51-1.48a7.65,7.65,0,0,1,4-1.09c3.76,0,4.67,2.57,4.67,5v4.59a17.62,17.62,0,0,0,.2,2.95Zm-.33-6.27c-2.44,0-5.2.38-5.2,2.77a2,2,0,0,0,2.1,2.13,3.05,3.05,0,0,0,3-2.06,2.22,2.22,0,0,0,.13-.71Z"/><path class="cls-3" d="M459.06,154.54c0-1.27,0-2.31-.1-3.33h2l.13,2h.05a4.51,4.51,0,0,1,4.06-2.31c1.7,0,4.35,1,4.35,5.23v7.34h-2.24v-7.08c0-2-.74-3.63-2.84-3.63a3.17,3.17,0,0,0-3,2.28,3.26,3.26,0,0,0-.15,1v7.39h-2.24Z"/><path class="cls-3" d="M475.75,147.68v3.53h3.19v1.7h-3.19v6.63c0,1.52.43,2.39,1.67,2.39a4.82,4.82,0,0,0,1.3-.16l.1,1.68a5.44,5.44,0,0,1-2,.3,3.12,3.12,0,0,1-2.42-.94,4.56,4.56,0,0,1-.86-3.19v-6.71h-1.9v-1.7h1.9v-2.94Z"/><path class="cls-3" d="M486.84,155.22c0-1.57,0-2.84-.1-4h2l.1,2.11h.06a4.82,4.82,0,0,1,4.36-2.39c3,0,5.21,2.52,5.21,6.25,0,4.42-2.69,6.6-5.59,6.6a4.3,4.3,0,0,1-3.78-1.93h-.05v6.68h-2.21Zm2.21,3.28a5.07,5.07,0,0,0,.1.91A3.45,3.45,0,0,0,492.5,162c2.36,0,3.73-1.93,3.73-4.75,0-2.46-1.29-4.57-3.65-4.57a3.56,3.56,0,0,0-3.38,2.77,3.47,3.47,0,0,0-.15.91Z"/><path class="cls-3" d="M508.09,163.5l-.18-1.55h-.08a4.54,4.54,0,0,1-3.75,1.83,3.5,3.5,0,0,1-3.76-3.53c0-3,2.64-4.6,7.39-4.57v-.25a2.54,2.54,0,0,0-2.79-2.85,6.09,6.09,0,0,0-3.2.92l-.51-1.48a7.62,7.62,0,0,1,4-1.09c3.75,0,4.67,2.57,4.67,5v4.59a17.62,17.62,0,0,0,.2,2.95Zm-.33-6.27c-2.44,0-5.21.38-5.21,2.77a2,2,0,0,0,2.11,2.13,3.05,3.05,0,0,0,3-2.06,2.22,2.22,0,0,0,.13-.71Z"/><path class="cls-3" d="M513.52,154.54c0-1.27,0-2.31-.1-3.33h2l.13,2h.05a4.51,4.51,0,0,1,4.06-2.31c1.7,0,4.34,1,4.34,5.23v7.34h-2.23v-7.08c0-2-.74-3.63-2.85-3.63a3.17,3.17,0,0,0-3,2.28,3.26,3.26,0,0,0-.15,1v7.39h-2.24Z"/><path class="cls-3" d="M528.86,157.76c0,3,2,4.27,4.21,4.27a8,8,0,0,0,3.4-.64l.38,1.6a9.83,9.83,0,0,1-4.08.76c-3.79,0-6-2.48-6-6.19s2.19-6.63,5.77-6.63c4,0,5.08,3.53,5.08,5.79a9.4,9.4,0,0,1-.08,1Zm6.55-1.6c0-1.42-.59-3.63-3.1-3.63-2.26,0-3.25,2.08-3.43,3.63Z"/><path class="cls-3" d="M540.33,145.47h2.24v18h-2.24Z"/><circle class="cls-4" cx="286.12" cy="45.88" r="4.5"/><circle class="cls-4" cx="286.12" cy="101.19" r="4.5"/><circle class="cls-4" cx="286.12" cy="156.51" r="4.5"/><path class="cls-3" d="M313.36,408.61v17.11h-2.21V408.61Z"/><path class="cls-3" d="M317.4,416.76c0-1.27,0-2.31-.1-3.33h2l.12,2h.05a4.55,4.55,0,0,1,4.07-2.31c1.7,0,4.34,1,4.34,5.23v7.34h-2.24v-7.08c0-2-.73-3.63-2.84-3.63a3.19,3.19,0,0,0-3,2.28,3.26,3.26,0,0,0-.15,1v7.39H317.4Z"/><path class="cls-3" d="M336.67,418v1.65H330.4V418Z"/><path class="cls-3" d="M339,423.44a5.87,5.87,0,0,0,2.94.89c1.63,0,2.39-.82,2.39-1.83s-.64-1.65-2.29-2.26c-2.2-.79-3.25-2-3.25-3.48,0-2,1.6-3.61,4.24-3.61a6.12,6.12,0,0,1,3,.77l-.56,1.62a4.82,4.82,0,0,0-2.52-.71c-1.32,0-2,.76-2,1.68s.73,1.47,2.33,2.08c2.14.81,3.23,1.88,3.23,3.7,0,2.16-1.68,3.69-4.6,3.69a7,7,0,0,1-3.45-.84Z"/><path class="cls-3" d="M350.58,420c.05,3,2,4.27,4.21,4.27a8.22,8.22,0,0,0,3.41-.63l.38,1.59a9.85,9.85,0,0,1-4.09.77c-3.78,0-6-2.49-6-6.2s2.18-6.63,5.76-6.63c4,0,5.08,3.53,5.08,5.79a7.3,7.3,0,0,1-.08,1Zm6.55-1.6c0-1.42-.58-3.63-3.1-3.63-2.26,0-3.25,2.09-3.42,3.63Z"/><path class="cls-3" d="M368.86,425.72l-.18-1.55h-.07a4.58,4.58,0,0,1-3.76,1.83,3.5,3.5,0,0,1-3.76-3.53c0-3,2.64-4.59,7.39-4.57v-.25a2.54,2.54,0,0,0-2.79-2.85,6.09,6.09,0,0,0-3.2.92l-.51-1.47a7.65,7.65,0,0,1,4-1.1c3.75,0,4.67,2.57,4.67,5v4.6a17.57,17.57,0,0,0,.2,2.94Zm-.33-6.27c-2.44-.05-5.2.38-5.2,2.77a2,2,0,0,0,2.1,2.13,3,3,0,0,0,3-2.06,2.17,2.17,0,0,0,.13-.71Z"/><path class="cls-3" d="M376.88,409.9v3.53h3.2v1.7h-3.2v6.63c0,1.53.43,2.39,1.68,2.39a5.27,5.27,0,0,0,1.29-.15l.11,1.67a5.47,5.47,0,0,1-2,.31,3.1,3.1,0,0,1-2.41-.94,4.57,4.57,0,0,1-.86-3.2v-6.71h-1.91v-1.7h1.91v-2.94Z"/><path class="cls-3" d="M388,417.45c0-1.58-.05-2.85-.1-4h2l.1,2.11h0a4.84,4.84,0,0,1,4.37-2.39c3,0,5.21,2.52,5.21,6.25,0,4.42-2.7,6.6-5.59,6.6a4.29,4.29,0,0,1-3.78-1.93h-.05v6.68H388Zm2.21,3.27a5,5,0,0,0,.1.91,3.44,3.44,0,0,0,3.35,2.62c2.36,0,3.73-1.93,3.73-4.75,0-2.46-1.29-4.57-3.66-4.57a3.56,3.56,0,0,0-3.37,2.77,3.47,3.47,0,0,0-.15.91Z"/><path class="cls-3" d="M413.54,419.48c0,4.54-3.15,6.52-6.12,6.52-3.32,0-5.89-2.44-5.89-6.32,0-4.11,2.69-6.53,6.1-6.53S413.54,415.72,413.54,419.48Zm-9.75.12c0,2.69,1.55,4.73,3.74,4.73s3.73-2,3.73-4.78c0-2.08-1-4.72-3.68-4.72S403.79,417.27,403.79,419.6Z"/><path class="cls-3" d="M417.07,413.43l1.63,6.25c.35,1.37.68,2.64.91,3.91h.08c.28-1.24.68-2.56,1.09-3.88l2-6.28h1.88l1.91,6.15c.45,1.47.81,2.77,1.09,4h.08a38,38,0,0,1,.93-4l1.76-6.17h2.21l-4,12.29h-2l-1.88-5.86c-.43-1.37-.78-2.59-1.09-4h-.05a33.84,33.84,0,0,1-1.12,4.06l-2,5.84h-2l-3.7-12.29Z"/><path class="cls-3" d="M435.86,420c.05,3,2,4.27,4.21,4.27a8.22,8.22,0,0,0,3.41-.63l.38,1.59a9.89,9.89,0,0,1-4.09.77c-3.78,0-6-2.49-6-6.2s2.18-6.63,5.76-6.63c4,0,5.08,3.53,5.08,5.79a7.3,7.3,0,0,1-.08,1Zm6.55-1.6c0-1.42-.58-3.63-3.1-3.63-2.26,0-3.25,2.09-3.43,3.63Z"/><path class="cls-3" d="M447.33,417.27c0-1.45,0-2.69-.1-3.84h2l.07,2.42h.11a3.68,3.68,0,0,1,3.4-2.7,2.41,2.41,0,0,1,.63.08v2.11a3.34,3.34,0,0,0-.76-.08,3.15,3.15,0,0,0-3,2.87,6.44,6.44,0,0,0-.1,1v6.55h-2.21Z"/><path class="cls-3" d="M461,416.76c0-1.27,0-2.31-.1-3.33h1.95l.1,2h.08a4.25,4.25,0,0,1,3.86-2.26,3.65,3.65,0,0,1,3.48,2.47h.05a5,5,0,0,1,1.37-1.6,4.18,4.18,0,0,1,2.72-.87c1.62,0,4,1.07,4,5.34v7.23h-2.18v-7c0-2.37-.86-3.79-2.67-3.79a2.89,2.89,0,0,0-2.64,2,3.75,3.75,0,0,0-.18,1.12v7.59h-2.18v-7.36c0-2-.86-3.38-2.56-3.38a3,3,0,0,0-2.77,2.24,3,3,0,0,0-.18,1.09v7.41H461Z"/><path class="cls-3" d="M493.31,419.48c0,4.54-3.15,6.52-6.12,6.52-3.32,0-5.89-2.44-5.89-6.32,0-4.11,2.69-6.53,6.1-6.53S493.31,415.72,493.31,419.48Zm-9.75.12c0,2.69,1.55,4.73,3.73,4.73s3.74-2,3.74-4.78c0-2.08-1-4.72-3.68-4.72S483.56,417.27,483.56,419.6Z"/><path class="cls-3" d="M506.74,407.7v14.85c0,1.09,0,2.33.1,3.17h-2l-.1-2.13h-.05A4.56,4.56,0,0,1,500.5,426c-3,0-5.26-2.51-5.26-6.24,0-4.09,2.51-6.61,5.51-6.61a4.12,4.12,0,0,1,3.71,1.88h.05V407.7Zm-2.23,10.74a4.29,4.29,0,0,0-.1-.94,3.28,3.28,0,0,0-3.23-2.59c-2.31,0-3.68,2-3.68,4.74,0,2.49,1.22,4.55,3.63,4.55a3.36,3.36,0,0,0,3.28-2.67,4.16,4.16,0,0,0,.1-1Z"/><path class="cls-3" d="M520.73,422.37c0,1.27,0,2.39.1,3.35h-2l-.12-2h-.05a4.63,4.63,0,0,1-4.07,2.28c-1.93,0-4.24-1.06-4.24-5.38v-7.19h2.24v6.81c0,2.33.71,3.91,2.74,3.91A3.16,3.16,0,0,0,518.5,421v-7.54h2.23Z"/><path class="cls-3" d="M524.44,407.7h2.23v18h-2.23Z"/><path class="cls-3" d="M531.67,420c.05,3,2,4.27,4.22,4.27a8.17,8.17,0,0,0,3.4-.63l.38,1.59a9.85,9.85,0,0,1-4.09.77c-3.78,0-6-2.49-6-6.2s2.18-6.63,5.76-6.63c4,0,5.08,3.53,5.08,5.79a9.75,9.75,0,0,1-.07,1Zm6.55-1.6c0-1.42-.58-3.63-3.09-3.63-2.26,0-3.25,2.09-3.43,3.63Z"/><path class="cls-3" d="M313.36,464v17.11h-2.21V464Z"/><path class="cls-3" d="M317.4,472.15c0-1.27,0-2.31-.1-3.33h2l.12,2h.05a4.55,4.55,0,0,1,4.07-2.31c1.7,0,4.34,1,4.34,5.23v7.34h-2.24V474c0-2-.73-3.63-2.84-3.63a3.19,3.19,0,0,0-3,2.28,3.26,3.26,0,0,0-.15,1v7.39H317.4Z"/><path class="cls-3" d="M336.67,473.42v1.65H330.4v-1.65Z"/><path class="cls-3" d="M339.51,481.11V470.52h-1.73v-1.7h1.73v-.53a5.52,5.52,0,0,1,1.73-4.24,5.84,5.84,0,0,1,3.93-1.25,7.85,7.85,0,0,1,3.68.82v17.49h-2.2V464.86a4,4,0,0,0-1.83-.33c-2.34,0-3.1,1.7-3.1,3.68v.61h2.87v1.7h-2.87v10.59Z"/><path class="cls-3" d="M355.05,465.37a1.39,1.39,0,0,1-2.77,0,1.37,1.37,0,0,1,1.4-1.4A1.33,1.33,0,0,1,355.05,465.37Zm-2.49,15.74V468.82h2.23v12.29Z"/><path class="cls-3" d="M369.09,468.82c0,.89-.1,1.88-.1,3.38v7.13c0,2.82-.56,4.55-1.75,5.62a6.56,6.56,0,0,1-4.47,1.47,7.92,7.92,0,0,1-4.09-1l.56-1.7a6.89,6.89,0,0,0,3.6,1c2.29,0,4-1.2,4-4.29V479h-.05a4.36,4.36,0,0,1-3.91,2.06c-3,0-5.23-2.59-5.23-6,0-4.17,2.72-6.53,5.54-6.53a4.08,4.08,0,0,1,3.83,2.14h0l.1-1.86Zm-2.31,4.85a3.17,3.17,0,0,0-.13-1,3.22,3.22,0,0,0-3.12-2.37c-2.13,0-3.66,1.81-3.66,4.65,0,2.41,1.22,4.42,3.63,4.42a3.26,3.26,0,0,0,3.1-2.29,3.78,3.78,0,0,0,.18-1.19Z"/><path class="cls-3" d="M372.69,463.08h2.24v7.67H375a4.1,4.1,0,0,1,1.6-1.57,4.61,4.61,0,0,1,2.28-.64c1.65,0,4.29,1,4.29,5.26v7.31h-2.23v-7.06c0-2-.74-3.65-2.84-3.65a3.21,3.21,0,0,0-3,2.23,2.69,2.69,0,0,0-.15,1.07v7.41h-2.24Z"/><path class="cls-3" d="M389.37,465.29v3.53h3.2v1.7h-3.2v6.63c0,1.52.44,2.39,1.68,2.39a4.67,4.67,0,0,0,1.29-.16l.11,1.68a5.45,5.45,0,0,1-2,.31,3.11,3.11,0,0,1-2.42-.94,4.59,4.59,0,0,1-.86-3.2v-6.71h-1.9v-1.7h1.9v-2.94Z"/><path class="cls-3" d="M401.71,475.37c.05,3,2,4.27,4.22,4.27a8,8,0,0,0,3.4-.64l.38,1.6a9.85,9.85,0,0,1-4.09.77c-3.78,0-6-2.49-6-6.2s2.18-6.63,5.76-6.63c4,0,5.08,3.53,5.08,5.79a7.43,7.43,0,0,1-.08,1Zm6.55-1.6c0-1.42-.58-3.63-3.09-3.63-2.26,0-3.25,2.08-3.43,3.63Z"/><path class="cls-3" d="M413.19,472.15c0-1.27,0-2.31-.1-3.33h2l.12,2h.05a4.55,4.55,0,0,1,4.07-2.31c1.7,0,4.34,1,4.34,5.23v7.34h-2.24V474c0-2-.73-3.63-2.84-3.63a3.19,3.19,0,0,0-3,2.28,3.26,3.26,0,0,0-.15,1v7.39h-2.23Z"/><path class="cls-3" d="M429.87,465.29v3.53h3.2v1.7h-3.2v6.63c0,1.52.43,2.39,1.67,2.39a4.76,4.76,0,0,0,1.3-.16l.1,1.68a5.41,5.41,0,0,1-2,.31,3.09,3.09,0,0,1-2.41-.94,4.54,4.54,0,0,1-.87-3.2v-6.71h-1.9v-1.7h1.9v-2.94Z"/><path class="cls-3" d="M436.67,475.37c.05,3,2,4.27,4.22,4.27a8,8,0,0,0,3.4-.64l.38,1.6a9.85,9.85,0,0,1-4.09.77c-3.78,0-6-2.49-6-6.2s2.18-6.63,5.76-6.63c4,0,5.08,3.53,5.08,5.79a7.43,7.43,0,0,1-.08,1Zm6.55-1.6c0-1.42-.58-3.63-3.09-3.63-2.26,0-3.25,2.08-3.43,3.63Z"/><path class="cls-3" d="M448.15,472.66c0-1.45,0-2.7-.1-3.84H450l.08,2.41h.1a3.68,3.68,0,0,1,3.4-2.69,2.55,2.55,0,0,1,.64.08v2.11a3.44,3.44,0,0,0-.77-.08,3.13,3.13,0,0,0-3,2.87,6.33,6.33,0,0,0-.1,1v6.55h-2.21Z"/><path class="cls-3" d="M459.75,465.29v3.53H463v1.7h-3.2v6.63c0,1.52.43,2.39,1.68,2.39a4.73,4.73,0,0,0,1.29-.16l.1,1.68a5.37,5.37,0,0,1-2,.31,3.09,3.09,0,0,1-2.41-.94,4.54,4.54,0,0,1-.86-3.2v-6.71h-1.91v-1.7h1.91v-2.94Z"/><path class="cls-3" d="M472.27,481.11l-.18-1.55H472a4.55,4.55,0,0,1-3.76,1.83,3.5,3.5,0,0,1-3.75-3.53c0-3,2.64-4.59,7.39-4.57V473a2.54,2.54,0,0,0-2.8-2.85,6.14,6.14,0,0,0-3.2.92l-.5-1.48a7.58,7.58,0,0,1,4-1.09c3.76,0,4.67,2.57,4.67,5v4.6a17.5,17.5,0,0,0,.21,2.94Zm-.33-6.27c-2.44,0-5.21.38-5.21,2.77a2,2,0,0,0,2.11,2.13,3.06,3.06,0,0,0,3-2.06,2.17,2.17,0,0,0,.13-.71Z"/><path class="cls-3" d="M480.19,465.37a1.39,1.39,0,0,1-2.77,0,1.36,1.36,0,0,1,1.4-1.4A1.33,1.33,0,0,1,480.19,465.37Zm-2.49,15.74V468.82h2.23v12.29Z"/><path class="cls-3" d="M483.64,472.15c0-1.27,0-2.31-.1-3.33h2l.13,2h.05a4.53,4.53,0,0,1,4.06-2.31c1.7,0,4.34,1,4.34,5.23v7.34h-2.23V474c0-2-.74-3.63-2.85-3.63a3.17,3.17,0,0,0-3,2.28,3,3,0,0,0-.16,1v7.39h-2.23Z"/><path class="cls-3" d="M497.73,472.15c0-1.27,0-2.31-.1-3.33h1.95l.11,2h.07a4.24,4.24,0,0,1,3.86-2.26A3.63,3.63,0,0,1,507.1,471h0a5,5,0,0,1,1.37-1.6,4.2,4.2,0,0,1,2.72-.87c1.62,0,4,1.07,4,5.34v7.23h-2.19v-7c0-2.36-.86-3.78-2.66-3.78a2.89,2.89,0,0,0-2.64,2,3.46,3.46,0,0,0-.18,1.12v7.59h-2.19v-7.36c0-2-.86-3.38-2.56-3.38a3.06,3.06,0,0,0-2.77,2.24,3,3,0,0,0-.18,1.09v7.41h-2.18Z"/><path class="cls-3" d="M520.15,475.37c.05,3,2,4.27,4.21,4.27a8,8,0,0,0,3.41-.64l.38,1.6a9.89,9.89,0,0,1-4.09.77c-3.78,0-6-2.49-6-6.2s2.18-6.63,5.76-6.63c4,0,5.08,3.53,5.08,5.79a7.43,7.43,0,0,1-.08,1Zm6.55-1.6c0-1.42-.58-3.63-3.1-3.63-2.26,0-3.25,2.08-3.43,3.63Z"/><path class="cls-3" d="M531.62,472.15c0-1.27,0-2.31-.1-3.33h2l.13,2h0a4.53,4.53,0,0,1,4.06-2.31c1.7,0,4.34,1,4.34,5.23v7.34h-2.23V474c0-2-.74-3.63-2.84-3.63a3.17,3.17,0,0,0-3,2.28,3.26,3.26,0,0,0-.15,1v7.39h-2.24Z"/><path class="cls-3" d="M548.3,465.29v3.53h3.2v1.7h-3.2v6.63c0,1.52.44,2.39,1.68,2.39a4.82,4.82,0,0,0,1.3-.16l.1,1.68a5.41,5.41,0,0,1-2,.31,3.12,3.12,0,0,1-2.42-.94,4.59,4.59,0,0,1-.86-3.2v-6.71h-1.9v-1.7h1.9v-2.94Z"/><path class="cls-3" d="M311.15,519.59a25.46,25.46,0,0,1,4.24-.33,7,7,0,0,1,4.8,1.42,4.6,4.6,0,0,1,1.5,3.58,5.06,5.06,0,0,1-1.32,3.66,7.11,7.11,0,0,1-5.23,1.88,7.45,7.45,0,0,1-1.78-.16v6.86h-2.21Zm2.21,8.25a7.24,7.24,0,0,0,1.83.18c2.67,0,4.29-1.3,4.29-3.66s-1.6-3.35-4-3.35a9.33,9.33,0,0,0-2.08.18Z"/><path class="cls-3" d="M330.73,536.5l-.18-1.55h-.08a4.54,4.54,0,0,1-3.75,1.83,3.5,3.5,0,0,1-3.76-3.53c0-3,2.64-4.6,7.39-4.57v-.25a2.54,2.54,0,0,0-2.8-2.85,6.14,6.14,0,0,0-3.2.92l-.5-1.48a7.58,7.58,0,0,1,4-1.09c3.76,0,4.68,2.57,4.68,5v4.59a17.62,17.62,0,0,0,.2,3Zm-.33-6.27c-2.44-.05-5.21.38-5.21,2.77a2,2,0,0,0,2.11,2.13,3.05,3.05,0,0,0,3-2.06,2.22,2.22,0,0,0,.13-.71Z"/><path class="cls-3" d="M335.86,534.21a5.75,5.75,0,0,0,2.94.89c1.63,0,2.39-.81,2.39-1.82s-.64-1.65-2.29-2.26c-2.21-.79-3.25-2-3.25-3.48,0-2,1.6-3.61,4.24-3.61a6.16,6.16,0,0,1,3,.76l-.55,1.63a4.79,4.79,0,0,0-2.52-.71c-1.32,0-2,.76-2,1.67s.73,1.48,2.33,2.09c2.13.81,3.23,1.87,3.23,3.7,0,2.16-1.68,3.68-4.6,3.68a7.06,7.06,0,0,1-3.45-.83Z"/><path class="cls-3" d="M345.91,534.21a5.78,5.78,0,0,0,2.94.89c1.63,0,2.39-.81,2.39-1.82s-.63-1.65-2.28-2.26c-2.21-.79-3.25-2-3.25-3.48,0-2,1.6-3.61,4.24-3.61a6.22,6.22,0,0,1,3,.76l-.56,1.63a4.72,4.72,0,0,0-2.51-.71c-1.32,0-2.06.76-2.06,1.67s.74,1.48,2.33,2.09c2.14.81,3.23,1.87,3.23,3.7,0,2.16-1.68,3.68-4.6,3.68a7.09,7.09,0,0,1-3.45-.83Z"/><path class="cls-3" d="M357.51,530.76c.05,3,2,4.27,4.22,4.27a8,8,0,0,0,3.4-.64l.38,1.6a9.89,9.89,0,0,1-4.09.76c-3.78,0-6-2.48-6-6.19s2.18-6.63,5.76-6.63c4,0,5.08,3.53,5.08,5.79a7.43,7.43,0,0,1-.08,1Zm6.55-1.6c0-1.42-.58-3.63-3.1-3.63-2.25,0-3.25,2.08-3.42,3.63Z"/><path class="cls-3" d="M369,527.54c0-1.27,0-2.31-.1-3.33h2l.12,2H371a4.53,4.53,0,0,1,4.07-2.31c1.7,0,4.34,1,4.34,5.23v7.34h-2.24v-7.08c0-2-.73-3.63-2.84-3.63a3.18,3.18,0,0,0-3,2.28,3.26,3.26,0,0,0-.15,1v7.39H369Z"/><path class="cls-3" d="M393.67,524.21c-.05.89-.11,1.88-.11,3.38v7.13c0,2.82-.55,4.55-1.75,5.61a6.5,6.5,0,0,1-4.47,1.48,7.91,7.91,0,0,1-4.08-1l.55-1.7a7,7,0,0,0,3.61,1c2.29,0,4-1.19,4-4.29v-1.37h-.05a4.38,4.38,0,0,1-3.91,2.06c-3.05,0-5.23-2.59-5.23-6,0-4.17,2.72-6.53,5.53-6.53a4.09,4.09,0,0,1,3.84,2.13h.05l.1-1.85Zm-2.31,4.85a3.28,3.28,0,0,0-.13-1,3.23,3.23,0,0,0-3.12-2.36c-2.14,0-3.66,1.81-3.66,4.65,0,2.41,1.22,4.42,3.63,4.42a3.27,3.27,0,0,0,3.1-2.29,4.09,4.09,0,0,0,.18-1.19Z"/><path class="cls-3" d="M398.51,530.76c.05,3,2,4.27,4.22,4.27a8,8,0,0,0,3.4-.64l.38,1.6a9.89,9.89,0,0,1-4.09.76c-3.78,0-6-2.48-6-6.19s2.18-6.63,5.76-6.63c4,0,5.08,3.53,5.08,5.79a10,10,0,0,1-.07,1Zm6.55-1.6c0-1.42-.58-3.63-3.09-3.63-2.26,0-3.25,2.08-3.43,3.63Z"/><path class="cls-3" d="M410,528c0-1.44,0-2.69-.1-3.83h1.95l.08,2.41h.1a3.68,3.68,0,0,1,3.4-2.69,2.49,2.49,0,0,1,.64.08v2.11a2.91,2.91,0,0,0-.76-.08,3.13,3.13,0,0,0-3,2.87,6.33,6.33,0,0,0-.1,1v6.55H410Z"/><path class="cls-3" d="M430.48,536.5,430.3,535h-.08a4.54,4.54,0,0,1-3.75,1.83,3.5,3.5,0,0,1-3.76-3.53c0-3,2.64-4.6,7.39-4.57v-.25a2.54,2.54,0,0,0-2.8-2.85,6.14,6.14,0,0,0-3.2.92l-.5-1.48a7.58,7.58,0,0,1,4-1.09c3.76,0,4.68,2.57,4.68,5v4.59a17.62,17.62,0,0,0,.2,3Zm-.33-6.27c-2.44-.05-5.21.38-5.21,2.77a2,2,0,0,0,2.11,2.13,3.05,3.05,0,0,0,3-2.06,2.22,2.22,0,0,0,.13-.71Z"/><path class="cls-3" d="M435.91,527.54c0-1.27,0-2.31-.1-3.33h2l.13,2H438a4.51,4.51,0,0,1,4.06-2.31c1.7,0,4.34,1,4.34,5.23v7.34h-2.23v-7.08c0-2-.74-3.63-2.85-3.63a3.17,3.17,0,0,0-3,2.28,3.25,3.25,0,0,0-.16,1v7.39h-2.23Z"/><path class="cls-3" d="M450,527.54c0-1.27,0-2.31-.1-3.33h2l.13,2h.05a4.51,4.51,0,0,1,4.06-2.31c1.7,0,4.34,1,4.34,5.23v7.34h-2.23v-7.08c0-2-.74-3.63-2.85-3.63a3.17,3.17,0,0,0-3,2.28,3.26,3.26,0,0,0-.15,1v7.39H450Z"/><path class="cls-3" d="M474.38,533.15c0,1.27,0,2.39.1,3.35h-2l-.13-2h-.05a4.64,4.64,0,0,1-4.06,2.29c-1.93,0-4.24-1.07-4.24-5.38v-7.19h2.23V531c0,2.33.71,3.91,2.74,3.91a3.25,3.25,0,0,0,2.95-2,3.4,3.4,0,0,0,.2-1.14v-7.54h2.24Z"/><path class="cls-3" d="M478.08,527.54c0-1.27,0-2.31-.1-3.33h2l.13,2h.05a4.51,4.51,0,0,1,4.06-2.31c1.7,0,4.34,1,4.34,5.23v7.34h-2.23v-7.08c0-2-.74-3.63-2.85-3.63a3.17,3.17,0,0,0-3,2.28,3.26,3.26,0,0,0-.15,1v7.39h-2.24Z"/><path class="cls-3" d="M500.93,536a8.14,8.14,0,0,1-3.53.71c-3.7,0-6.12-2.51-6.12-6.27a6.24,6.24,0,0,1,6.6-6.52,7.53,7.53,0,0,1,3.1.63l-.51,1.73a5.1,5.1,0,0,0-2.59-.59c-2.81,0-4.34,2.09-4.34,4.65,0,2.84,1.83,4.6,4.27,4.6a6.31,6.31,0,0,0,2.74-.61Z"/><path class="cls-3" d="M506,520.76a1.31,1.31,0,0,1-1.42,1.37,1.33,1.33,0,0,1-1.34-1.37,1.36,1.36,0,0,1,1.39-1.4A1.33,1.33,0,0,1,506,520.76Zm-2.48,15.74V524.21h2.23V536.5Z"/><path class="cls-3" d="M516.29,536.5l-.18-1.55H516a4.58,4.58,0,0,1-3.76,1.83,3.5,3.5,0,0,1-3.76-3.53c0-3,2.64-4.6,7.39-4.57v-.25a2.54,2.54,0,0,0-2.79-2.85,6.09,6.09,0,0,0-3.2.92l-.51-1.48a7.65,7.65,0,0,1,4-1.09c3.76,0,4.67,2.57,4.67,5v4.59a17.62,17.62,0,0,0,.2,3Zm-.33-6.27c-2.44-.05-5.2.38-5.2,2.77a2,2,0,0,0,2.1,2.13,3.05,3.05,0,0,0,3-2.06,2.22,2.22,0,0,0,.13-.71Z"/><path class="cls-3" d="M524.31,520.68v3.53h3.2v1.7h-3.2v6.63c0,1.52.44,2.39,1.68,2.39a4.82,4.82,0,0,0,1.3-.16l.1,1.68a5.44,5.44,0,0,1-2,.3,3.12,3.12,0,0,1-2.42-.94,4.56,4.56,0,0,1-.86-3.19v-6.71h-1.9v-1.7h1.9v-2.94Z"/><path class="cls-3" d="M532.51,520.76a1.31,1.31,0,0,1-1.42,1.37,1.33,1.33,0,0,1-1.34-1.37,1.36,1.36,0,0,1,1.39-1.4A1.33,1.33,0,0,1,532.51,520.76ZM530,536.5V524.21h2.23V536.5Z"/><path class="cls-3" d="M547.09,530.25c0,4.55-3.15,6.53-6.12,6.53-3.33,0-5.89-2.44-5.89-6.32,0-4.12,2.69-6.53,6.09-6.53S547.09,526.5,547.09,530.25Zm-9.75.13c0,2.69,1.55,4.72,3.73,4.72s3.73-2,3.73-4.77c0-2.08-1-4.72-3.68-4.72S537.34,528,537.34,530.38Z"/><path class="cls-3" d="M549.91,527.54c0-1.27,0-2.31-.11-3.33h2l.13,2H552a4.51,4.51,0,0,1,4.06-2.31c1.71,0,4.35,1,4.35,5.23v7.34h-2.24v-7.08c0-2-.73-3.63-2.84-3.63a3.18,3.18,0,0,0-3,2.28,3.26,3.26,0,0,0-.15,1v7.39h-2.23Z"/><circle class="cls-4" cx="286.12" cy="418.88" r="4.5"/><circle class="cls-4" cx="286.12" cy="474.19" r="4.5"/><circle class="cls-4" cx="286.12" cy="529.51" r="4.5"/><path class="cls-3" d="M313.92,235.34l-1.78,5.38h-2.28l5.81-17.11h2.67l5.84,17.11h-2.36L320,235.34Zm5.61-1.73-1.67-4.92c-.39-1.12-.64-2.13-.89-3.13h-.05c-.26,1-.54,2.06-.87,3.1l-1.67,5Z"/><path class="cls-3" d="M329,225a1.39,1.39,0,0,1-2.77,0,1.36,1.36,0,0,1,1.4-1.4A1.33,1.33,0,0,1,329,225Zm-2.49,15.74V228.43h2.23v12.29Z"/><path class="cls-3" d="M332.48,232.27c0-1.45,0-2.69-.1-3.84h1.95l.08,2.42h.1a3.69,3.69,0,0,1,3.4-2.7,2.49,2.49,0,0,1,.64.08v2.11a3.41,3.41,0,0,0-.76-.08,3.14,3.14,0,0,0-3,2.87,6.44,6.44,0,0,0-.1,1v6.55h-2.21Z"/><path class="cls-3" d="M354.92,240.27a8.3,8.3,0,0,1-3.53.71c-3.7,0-6.12-2.52-6.12-6.27a6.25,6.25,0,0,1,6.61-6.53,7.52,7.52,0,0,1,3.09.63l-.51,1.73a5.21,5.21,0,0,0-2.58-.58c-2.82,0-4.35,2.08-4.35,4.64,0,2.85,1.83,4.6,4.27,4.6a6.31,6.31,0,0,0,2.74-.61Z"/><path class="cls-3" d="M368.5,234.48c0,4.54-3.14,6.52-6.11,6.52-3.33,0-5.89-2.44-5.89-6.32,0-4.11,2.69-6.53,6.09-6.53S368.5,230.72,368.5,234.48Zm-9.75.12c0,2.7,1.55,4.73,3.74,4.73s3.73-2,3.73-4.78c0-2.08-1-4.72-3.68-4.72S358.75,232.27,358.75,234.6Z"/><path class="cls-3" d="M371.32,231.76c0-1.27,0-2.31-.1-3.33h2l.13,2h.05a4.52,4.52,0,0,1,4.06-2.32c1.7,0,4.34,1,4.34,5.24v7.33h-2.23v-7.08c0-2-.74-3.63-2.84-3.63a3.17,3.17,0,0,0-3,2.28,3.26,3.26,0,0,0-.15,1v7.39h-2.24Z"/><path class="cls-3" d="M396,222.7v14.85c0,1.09,0,2.34.1,3.17h-2l-.1-2.13h0a4.55,4.55,0,0,1-4.19,2.41c-3,0-5.26-2.51-5.26-6.24,0-4.09,2.52-6.61,5.51-6.61a4.12,4.12,0,0,1,3.71,1.88h.05V222.7Zm-2.24,10.74a3.76,3.76,0,0,0-.1-.94,3.28,3.28,0,0,0-3.22-2.59c-2.31,0-3.69,2-3.69,4.74,0,2.49,1.22,4.55,3.64,4.55a3.36,3.36,0,0,0,3.27-2.67,3.68,3.68,0,0,0,.1-1Z"/><path class="cls-3" d="M402.22,225a1.31,1.31,0,0,1-1.42,1.37,1.33,1.33,0,0,1-1.35-1.37,1.37,1.37,0,0,1,1.4-1.4A1.33,1.33,0,0,1,402.22,225Zm-2.49,15.74V228.43H402v12.29Z"/><path class="cls-3" d="M408.36,224.9v3.53h3.2v1.71h-3.2v6.62c0,1.53.44,2.39,1.68,2.39a5.2,5.2,0,0,0,1.29-.15l.11,1.67a5.45,5.45,0,0,1-2,.31A3.12,3.12,0,0,1,407,240a4.57,4.57,0,0,1-.86-3.2v-6.7h-1.9v-1.71h1.9v-2.94Z"/><path class="cls-3" d="M416.56,225a1.31,1.31,0,0,1-1.42,1.37A1.33,1.33,0,0,1,413.8,225a1.36,1.36,0,0,1,1.39-1.4A1.33,1.33,0,0,1,416.56,225Zm-2.48,15.74V228.43h2.23v12.29Z"/><path class="cls-3" d="M431.14,234.48C431.14,239,428,241,425,241c-3.33,0-5.89-2.44-5.89-6.32,0-4.11,2.69-6.53,6.09-6.53S431.14,230.72,431.14,234.48Zm-9.75.12c0,2.7,1.55,4.73,3.73,4.73s3.73-2,3.73-4.78c0-2.08-1-4.72-3.68-4.72S421.39,232.27,421.39,234.6Z"/><path class="cls-3" d="M434,231.76c0-1.27,0-2.31-.11-3.33h2l.13,2H436a4.52,4.52,0,0,1,4.06-2.32c1.71,0,4.35,1,4.35,5.24v7.33h-2.24v-7.08c0-2-.73-3.63-2.84-3.63a3.18,3.18,0,0,0-3,2.28,3.26,3.26,0,0,0-.15,1v7.39H434Z"/><path class="cls-3" d="M464,222.7v14.85c0,1.09,0,2.34.1,3.17h-2l-.1-2.13H462a4.54,4.54,0,0,1-4.19,2.41c-3,0-5.25-2.51-5.25-6.24,0-4.09,2.51-6.61,5.51-6.61a4.12,4.12,0,0,1,3.71,1.88h.05V222.7Zm-2.23,10.74a4.29,4.29,0,0,0-.1-.94,3.28,3.28,0,0,0-3.23-2.59c-2.31,0-3.68,2-3.68,4.74,0,2.49,1.22,4.55,3.63,4.55a3.36,3.36,0,0,0,3.28-2.67,4.16,4.16,0,0,0,.1-1Z"/><path class="cls-3" d="M478,237.37c0,1.27,0,2.39.1,3.35h-2l-.13-2h0a4.62,4.62,0,0,1-4.06,2.28c-1.93,0-4.24-1.06-4.24-5.38v-7.19h2.24v6.81c0,2.33.71,3.91,2.74,3.91A3.16,3.16,0,0,0,475.8,236v-7.55H478Z"/><path class="cls-3" d="M490.5,240.27A8.33,8.33,0,0,1,487,241c-3.71,0-6.12-2.52-6.12-6.27a6.24,6.24,0,0,1,6.6-6.53,7.57,7.57,0,0,1,3.1.63l-.51,1.73a5.23,5.23,0,0,0-2.59-.58c-2.82,0-4.34,2.08-4.34,4.64,0,2.85,1.83,4.6,4.26,4.6a6.39,6.39,0,0,0,2.75-.61Z"/><path class="cls-3" d="M496.13,224.9v3.53h3.2v1.71h-3.2v6.62c0,1.53.43,2.39,1.68,2.39a5.27,5.27,0,0,0,1.29-.15l.1,1.67a5.37,5.37,0,0,1-2,.31,3.09,3.09,0,0,1-2.41-.94,4.57,4.57,0,0,1-.86-3.2v-6.7H492v-1.71H494v-2.94Z"/><path class="cls-3" d="M504.33,225a1.31,1.31,0,0,1-1.42,1.37,1.33,1.33,0,0,1-1.35-1.37,1.37,1.37,0,0,1,1.4-1.4A1.33,1.33,0,0,1,504.33,225Zm-2.49,15.74V228.43h2.24v12.29Z"/><path class="cls-3" d="M507.78,231.76c0-1.27,0-2.31-.1-3.33h2l.13,2h0a4.52,4.52,0,0,1,4.06-2.32c1.7,0,4.35,1,4.35,5.24v7.33H516v-7.08c0-2-.74-3.63-2.84-3.63a3.17,3.17,0,0,0-3,2.28,3.26,3.26,0,0,0-.15,1v7.39h-2.24Z"/><path class="cls-3" d="M532.46,228.43c-.05.89-.1,1.88-.1,3.38V239c0,2.81-.56,4.54-1.75,5.61a6.54,6.54,0,0,1-4.47,1.47,8,8,0,0,1-4.09-1l.56-1.7a6.9,6.9,0,0,0,3.61,1c2.28,0,4-1.2,4-4.29v-1.37h0a4.4,4.4,0,0,1-3.91,2c-3.05,0-5.23-2.59-5.23-6,0-4.16,2.71-6.53,5.53-6.53a4.11,4.11,0,0,1,3.84,2.14h0l.1-1.86Zm-2.31,4.85a3.18,3.18,0,0,0-.12-1,3.22,3.22,0,0,0-3.13-2.36c-2.13,0-3.65,1.8-3.65,4.64,0,2.42,1.21,4.42,3.63,4.42a3.25,3.25,0,0,0,3.09-2.28,3.84,3.84,0,0,0,.18-1.2Z"/><path class="cls-3" d="M314.91,296.11,309.32,279h2.39l2.67,8.43c.73,2.31,1.37,4.39,1.83,6.4h.05c.48-2,1.19-4.14,1.95-6.38l2.9-8.45h2.36l-6.12,17.11Z"/><path class="cls-3" d="M325.65,290.37c.05,3,2,4.27,4.21,4.27a8,8,0,0,0,3.41-.64l.38,1.6a9.89,9.89,0,0,1-4.09.77c-3.78,0-6-2.49-6-6.2s2.18-6.63,5.76-6.63c4,0,5.08,3.53,5.08,5.79a7.3,7.3,0,0,1-.08,1Zm6.55-1.6c0-1.42-.58-3.63-3.1-3.63-2.26,0-3.25,2.09-3.43,3.63Z"/><path class="cls-3" d="M337.13,287.15c0-1.27,0-2.31-.11-3.33h2l.13,2h.05a4.53,4.53,0,0,1,4.06-2.31c1.71,0,4.35,1,4.35,5.23v7.34h-2.24V289c0-2-.73-3.63-2.84-3.63a3.18,3.18,0,0,0-3,2.28,3.26,3.26,0,0,0-.15,1v7.39h-2.23Z"/><path class="cls-3" d="M353.81,280.29v3.53H357v1.7h-3.19v6.63c0,1.52.43,2.39,1.67,2.39a5.29,5.29,0,0,0,1.3-.15l.1,1.67a5.41,5.41,0,0,1-2,.31,3.09,3.09,0,0,1-2.41-.94,4.54,4.54,0,0,1-.87-3.2v-6.71h-1.9v-1.7h1.9v-2.94Z"/><path class="cls-3" d="M362,280.37a1.39,1.39,0,0,1-2.77,0,1.36,1.36,0,0,1,1.39-1.4A1.33,1.33,0,0,1,362,280.37Zm-2.49,15.74V283.82h2.23v12.29Z"/><path class="cls-3" d="M365.46,278.08h2.23v18h-2.23Z"/><path class="cls-3" d="M378.25,296.11l-.17-1.55H378a4.58,4.58,0,0,1-3.76,1.83,3.5,3.5,0,0,1-3.76-3.53c0-3,2.65-4.59,7.39-4.57V288a2.54,2.54,0,0,0-2.79-2.85,6.11,6.11,0,0,0-3.2.92l-.51-1.47a7.65,7.65,0,0,1,4-1.1c3.76,0,4.67,2.57,4.67,5v4.6a16.51,16.51,0,0,0,.21,2.94Zm-.33-6.27c-2.43,0-5.2.38-5.2,2.77a2,2,0,0,0,2.11,2.13,3.05,3.05,0,0,0,3-2.06,2.46,2.46,0,0,0,.12-.71Z"/><path class="cls-3" d="M386.28,280.29v3.53h3.2v1.7h-3.2v6.63c0,1.52.43,2.39,1.67,2.39a5.29,5.29,0,0,0,1.3-.15l.1,1.67a5.41,5.41,0,0,1-2,.31,3.09,3.09,0,0,1-2.41-.94,4.54,4.54,0,0,1-.87-3.2v-6.71h-1.9v-1.7h1.9v-2.94Z"/><path class="cls-3" d="M394.48,280.37a1.39,1.39,0,0,1-2.77,0,1.36,1.36,0,0,1,1.4-1.4A1.33,1.33,0,0,1,394.48,280.37ZM392,296.11V283.82h2.23v12.29Z"/><path class="cls-3" d="M409.05,289.87c0,4.54-3.15,6.52-6.12,6.52-3.32,0-5.89-2.44-5.89-6.32,0-4.11,2.69-6.53,6.09-6.53S409.05,286.11,409.05,289.87Zm-9.75.12c0,2.69,1.55,4.73,3.73,4.73s3.74-2,3.74-4.78c0-2.08-1-4.72-3.69-4.72S399.3,287.66,399.3,290Z"/><path class="cls-3" d="M411.87,287.15c0-1.27,0-2.31-.1-3.33h2l.12,2h.05a4.55,4.55,0,0,1,4.07-2.31c1.7,0,4.34,1,4.34,5.23v7.34h-2.24V289c0-2-.73-3.63-2.84-3.63a3.19,3.19,0,0,0-3,2.28,3.26,3.26,0,0,0-.15,1v7.39h-2.23Z"/><path class="cls-3" d="M431,293.83a5.84,5.84,0,0,0,2.94.89c1.63,0,2.39-.82,2.39-1.83s-.64-1.65-2.29-2.26c-2.21-.79-3.25-2-3.25-3.48,0-2,1.6-3.61,4.24-3.61a6,6,0,0,1,3,.77l-.55,1.62a4.85,4.85,0,0,0-2.52-.71c-1.32,0-2,.76-2,1.68s.73,1.47,2.33,2.08c2.13.81,3.23,1.88,3.23,3.7,0,2.16-1.68,3.69-4.6,3.69a7,7,0,0,1-3.45-.84Z"/><path class="cls-3" d="M442.21,283.82l2.69,7.26c.28.82.58,1.78.79,2.52h.05c.22-.74.48-1.68.78-2.57l2.44-7.21h2.36L448,292.58c-1.6,4.22-2.69,6.38-4.21,7.7a6.1,6.1,0,0,1-2.75,1.44l-.55-1.88a5.8,5.8,0,0,0,2-1.09,6.72,6.72,0,0,0,1.88-2.49,1.56,1.56,0,0,0,.18-.53,1.75,1.75,0,0,0-.16-.58l-4.54-11.33Z"/><path class="cls-3" d="M452.9,293.83a5.84,5.84,0,0,0,2.94.89c1.63,0,2.39-.82,2.39-1.83s-.64-1.65-2.29-2.26c-2.21-.79-3.25-2-3.25-3.48,0-2,1.6-3.61,4.24-3.61a6,6,0,0,1,3,.77l-.55,1.62a4.89,4.89,0,0,0-2.52-.71c-1.32,0-2.05.76-2.05,1.68s.73,1.47,2.33,2.08c2.13.81,3.23,1.88,3.23,3.7,0,2.16-1.68,3.69-4.6,3.69a7,7,0,0,1-3.45-.84Z"/><path class="cls-3" d="M466,280.29v3.53h3.19v1.7H466v6.63c0,1.52.43,2.39,1.67,2.39a5.29,5.29,0,0,0,1.3-.15l.1,1.67a5.41,5.41,0,0,1-2,.31,3.09,3.09,0,0,1-2.41-.94,4.54,4.54,0,0,1-.87-3.2v-6.71h-1.9v-1.7h1.9v-2.94Z"/><path class="cls-3" d="M472.75,290.37c.05,3,2,4.27,4.21,4.27a8,8,0,0,0,3.41-.64l.38,1.6a9.89,9.89,0,0,1-4.09.77c-3.78,0-6-2.49-6-6.2s2.18-6.63,5.76-6.63c4,0,5.08,3.53,5.08,5.79a7.3,7.3,0,0,1-.08,1Zm6.55-1.6c0-1.42-.58-3.63-3.1-3.63-2.26,0-3.25,2.09-3.43,3.63Z"/><path class="cls-3" d="M484.22,287.15c0-1.27,0-2.31-.1-3.33h2l.1,2h.08a4.23,4.23,0,0,1,3.86-2.26,3.63,3.63,0,0,1,3.47,2.47h.05a5.11,5.11,0,0,1,1.38-1.6,4.15,4.15,0,0,1,2.71-.87c1.63,0,4,1.07,4,5.34v7.23h-2.18v-7c0-2.36-.87-3.78-2.67-3.78a2.89,2.89,0,0,0-2.64,2,3.75,3.75,0,0,0-.18,1.12v7.59h-2.18v-7.36c0-2-.87-3.38-2.57-3.38a3,3,0,0,0-2.76,2.24,3,3,0,0,0-.18,1.09v7.41h-2.19Z"/><path class="cls-3" d="M505.09,293.83a5.88,5.88,0,0,0,3,.89c1.62,0,2.39-.82,2.39-1.83s-.64-1.65-2.29-2.26c-2.21-.79-3.25-2-3.25-3.48,0-2,1.6-3.61,4.24-3.61a6,6,0,0,1,3,.77l-.56,1.62a4.81,4.81,0,0,0-2.51-.71c-1.32,0-2.06.76-2.06,1.68s.74,1.47,2.34,2.08c2.13.81,3.22,1.88,3.22,3.7,0,2.16-1.67,3.69-4.59,3.69a7,7,0,0,1-3.45-.84Z"/><path class="cls-3" d="M313.92,346.12l-1.78,5.38h-2.28l5.81-17.11h2.67l5.84,17.11h-2.36L320,346.12Zm5.61-1.73-1.67-4.93c-.39-1.11-.64-2.13-.89-3.12h-.05c-.26,1-.54,2.06-.87,3.1l-1.67,4.95Z"/><path class="cls-3" d="M336.59,348.15c0,1.27,0,2.39.1,3.35h-2l-.12-2h0a4.64,4.64,0,0,1-4.07,2.29c-1.93,0-4.24-1.07-4.24-5.38v-7.19h2.24V346c0,2.33.71,3.91,2.74,3.91a3.25,3.25,0,0,0,3-2,3.4,3.4,0,0,0,.2-1.14v-7.54h2.23Z"/><path class="cls-3" d="M343,335.68v3.53h3.2v1.7H343v6.63c0,1.52.43,2.39,1.68,2.39a4.73,4.73,0,0,0,1.29-.16l.1,1.68a5.4,5.4,0,0,1-2,.3,3.09,3.09,0,0,1-2.41-.94,4.56,4.56,0,0,1-.86-3.19v-6.71H338.9v-1.7h1.91v-2.94Z"/><path class="cls-3" d="M359.67,345.25c0,4.55-3.15,6.53-6.12,6.53-3.32,0-5.89-2.44-5.89-6.32,0-4.12,2.69-6.53,6.09-6.53S359.67,341.5,359.67,345.25Zm-9.75.13c0,2.69,1.55,4.72,3.73,4.72s3.74-2,3.74-4.77c0-2.08-1.05-4.72-3.69-4.72S349.92,343,349.92,345.38Z"/><path class="cls-3" d="M362.49,342.54c0-1.27,0-2.31-.1-3.33h1.95l.1,2h.08a4.24,4.24,0,0,1,3.86-2.26,3.65,3.65,0,0,1,3.48,2.46h.05a5.19,5.19,0,0,1,1.37-1.6,4.25,4.25,0,0,1,2.72-.86c1.62,0,4,1.07,4,5.33v7.24h-2.18v-7c0-2.36-.86-3.78-2.67-3.78a2.89,2.89,0,0,0-2.64,2,3.77,3.77,0,0,0-.17,1.12v7.59h-2.19v-7.36c0-2-.86-3.38-2.56-3.38a3.33,3.33,0,0,0-2.95,3.33v7.41h-2.18Z"/><path class="cls-3" d="M390.47,351.5l-.18-1.55h-.08a4.54,4.54,0,0,1-3.75,1.83,3.5,3.5,0,0,1-3.76-3.53c0-3,2.64-4.6,7.39-4.57v-.25a2.54,2.54,0,0,0-2.8-2.85,6.14,6.14,0,0,0-3.2.92l-.5-1.48a7.58,7.58,0,0,1,4-1.09c3.76,0,4.67,2.57,4.67,5v4.59a17.55,17.55,0,0,0,.21,2.95Zm-.33-6.27c-2.44-.05-5.21.38-5.21,2.77a2,2,0,0,0,2.11,2.13,3.06,3.06,0,0,0,3-2.06,2.22,2.22,0,0,0,.13-.71Z"/><path class="cls-3" d="M398.49,335.68v3.53h3.2v1.7h-3.2v6.63c0,1.52.43,2.39,1.68,2.39a4.73,4.73,0,0,0,1.29-.16l.1,1.68a5.44,5.44,0,0,1-2,.3,3.09,3.09,0,0,1-2.41-.94,4.51,4.51,0,0,1-.86-3.19v-6.71H394.4v-1.7h1.91v-2.94Z"/><path class="cls-3" d="M405.29,345.76c0,3,2,4.27,4.22,4.27a8,8,0,0,0,3.4-.64l.38,1.6a9.89,9.89,0,0,1-4.09.76c-3.78,0-6-2.48-6-6.19s2.18-6.63,5.76-6.63c4,0,5.08,3.53,5.08,5.79a10,10,0,0,1-.07,1Zm6.55-1.6c0-1.42-.58-3.63-3.09-3.63-2.26,0-3.25,2.08-3.43,3.63Z"/><path class="cls-3" d="M427.38,333.47v14.86c0,1.09,0,2.33.1,3.17h-2l-.1-2.13h-.05a4.56,4.56,0,0,1-4.19,2.41c-3,0-5.26-2.51-5.26-6.25,0-4.08,2.51-6.6,5.51-6.6a4.12,4.12,0,0,1,3.71,1.88h0v-7.34Zm-2.23,10.74a4.29,4.29,0,0,0-.1-.94,3.29,3.29,0,0,0-3.23-2.59c-2.31,0-3.68,2-3.68,4.75,0,2.49,1.22,4.55,3.63,4.55a3.36,3.36,0,0,0,3.28-2.67,4.16,4.16,0,0,0,.1-1Z"/><path class="cls-3" d="M436.47,333.47h2.24v18h-2.24Z"/><path class="cls-3" d="M445,335.76a1.39,1.39,0,0,1-2.77,0,1.37,1.37,0,0,1,1.4-1.4A1.33,1.33,0,0,1,445,335.76Zm-2.49,15.74V339.21h2.24V351.5Z"/><path class="cls-3" d="M459,339.21c-.05.89-.1,1.88-.1,3.38v7.13c0,2.82-.56,4.55-1.75,5.61a6.52,6.52,0,0,1-4.47,1.48,8,8,0,0,1-4.09-1l.56-1.7a6.89,6.89,0,0,0,3.6,1c2.29,0,4-1.19,4-4.29v-1.37h-.06a4.36,4.36,0,0,1-3.91,2.06c-3,0-5.23-2.59-5.23-6,0-4.17,2.72-6.53,5.54-6.53a4.09,4.09,0,0,1,3.83,2.13h.05l.11-1.85Zm-2.31,4.85a3.28,3.28,0,0,0-.13-1,3.22,3.22,0,0,0-3.12-2.36c-2.13,0-3.66,1.81-3.66,4.65,0,2.41,1.22,4.42,3.63,4.42a3.27,3.27,0,0,0,3.1-2.29,3.78,3.78,0,0,0,.18-1.19Z"/><path class="cls-3" d="M462.59,333.47h2.24v7.67h.05a4.1,4.1,0,0,1,1.6-1.57,4.61,4.61,0,0,1,2.28-.64c1.65,0,4.29,1,4.29,5.26v7.31h-2.23v-7.06c0-2-.74-3.65-2.84-3.65a3.21,3.21,0,0,0-3,2.23,2.64,2.64,0,0,0-.15,1.07v7.41h-2.24Z"/><path class="cls-3" d="M479.28,335.68v3.53h3.19v1.7h-3.19v6.63c0,1.52.43,2.39,1.67,2.39a4.76,4.76,0,0,0,1.3-.16l.1,1.68a5.44,5.44,0,0,1-2,.3,3.09,3.09,0,0,1-2.41-.94,4.51,4.51,0,0,1-.87-3.19v-6.71h-1.9v-1.7h1.9v-2.94Z"/><path class="cls-3" d="M499.13,351a8.18,8.18,0,0,1-3.53.71c-3.71,0-6.12-2.51-6.12-6.27a6.24,6.24,0,0,1,6.6-6.52,7.57,7.57,0,0,1,3.1.63l-.51,1.73a5.1,5.1,0,0,0-2.59-.59c-2.82,0-4.34,2.09-4.34,4.65,0,2.84,1.83,4.6,4.27,4.6a6.34,6.34,0,0,0,2.74-.61Z"/><path class="cls-3" d="M512.71,345.25c0,4.55-3.15,6.53-6.12,6.53-3.32,0-5.89-2.44-5.89-6.32,0-4.12,2.69-6.53,6.1-6.53S512.71,341.5,512.71,345.25Zm-9.75.13c0,2.69,1.55,4.72,3.73,4.72s3.74-2,3.74-4.77c0-2.08-1-4.72-3.68-4.72S503,343,503,345.38Z"/><path class="cls-3" d="M515.53,342.54c0-1.27,0-2.31-.1-3.33h2l.13,2h.05a4.51,4.51,0,0,1,4.06-2.31c1.7,0,4.34,1,4.34,5.23v7.34h-2.23v-7.08c0-2-.74-3.63-2.85-3.63a3.17,3.17,0,0,0-3,2.28,3,3,0,0,0-.16,1v7.39h-2.23Z"/><path class="cls-3" d="M532.21,335.68v3.53h3.2v1.7h-3.2v6.63c0,1.52.43,2.39,1.68,2.39a4.73,4.73,0,0,0,1.29-.16l.1,1.68a5.4,5.4,0,0,1-2,.3,3.09,3.09,0,0,1-2.41-.94,4.51,4.51,0,0,1-.86-3.19v-6.71h-1.91v-1.7H530v-2.94Z"/><path class="cls-3" d="M537.92,343c0-1.44,0-2.69-.1-3.83h2l.07,2.41h.1a3.69,3.69,0,0,1,3.41-2.69,2.41,2.41,0,0,1,.63.08v2.11a2.91,2.91,0,0,0-.76-.08,3.13,3.13,0,0,0-3,2.87,6.33,6.33,0,0,0-.1,1v6.55h-2.21Z"/><path class="cls-3" d="M557.09,345.25c0,4.55-3.15,6.53-6.12,6.53-3.32,0-5.89-2.44-5.89-6.32,0-4.12,2.69-6.53,6.09-6.53S557.09,341.5,557.09,345.25Zm-9.75.13c0,2.69,1.55,4.72,3.73,4.72s3.74-2,3.74-4.77c0-2.08-1-4.72-3.69-4.72S547.34,343,547.34,345.38Z"/><path class="cls-3" d="M559.91,333.47h2.23v18h-2.23Z"/><circle class="cls-4" cx="286.12" cy="233.88" r="4.5"/><circle class="cls-4" cx="286.12" cy="289.19" r="4.5"/><circle class="cls-4" cx="286.12" cy="344.51" r="4.5"/><rect class="cls-2" x="-0.24" y="570.11" width="635.24" height="176"/><path class="cls-3" d="M52.6,711.58a14.4,14.4,0,0,1-5.89,1c-7.25,0-11.65-4.54-11.65-11.48,0-7.51,5.22-12,12.19-12a13.1,13.1,0,0,1,5.55,1l-.92,3.32a11,11,0,0,0-4.46-.88c-4.64,0-8,2.91-8,8.39,0,5,2.94,8.22,8,8.22a11.83,11.83,0,0,0,4.54-.84Z"/><path class="cls-3" d="M71.11,703.86c0,6.06-4.26,8.77-8.46,8.77-4.67,0-8.26-3.22-8.26-8.5s3.56-8.73,8.53-8.73S71.11,698.85,71.11,703.86ZM58.69,704c0,3.18,1.56,5.59,4.1,5.59,2.37,0,4-2.34,4-5.66,0-2.57-1.15-5.51-4-5.51S58.69,701.29,58.69,704Z"/><path class="cls-3" d="M74.53,700.68c0-1.89,0-3.48-.13-4.9h3.65l.21,2.47h.1a5.93,5.93,0,0,1,5.24-2.85c2.88,0,5.86,1.86,5.86,7.08v9.78H85.3V703c0-2.37-.88-4.16-3.15-4.16a3.49,3.49,0,0,0-3.25,2.43,4.16,4.16,0,0,0-.17,1.36v9.68h-4.2Z"/><path class="cls-3" d="M93.9,700.68c0-1.89,0-3.48-.14-4.9h3.66l.2,2.47h.1A6,6,0,0,1,103,695.4c2.87,0,5.85,1.86,5.85,7.08v9.78h-4.16V703c0-2.37-.88-4.16-3.15-4.16a3.49,3.49,0,0,0-3.25,2.43,4.45,4.45,0,0,0-.17,1.36v9.68H93.9Z"/><path class="cls-3" d="M116.2,705.18c.11,3,2.44,4.27,5.08,4.27a12.24,12.24,0,0,0,4.57-.75l.61,2.88a15.39,15.39,0,0,1-5.75,1c-5.35,0-8.5-3.29-8.5-8.33,0-4.57,2.78-8.87,8.06-8.87s7.1,4.4,7.1,8a10.09,10.09,0,0,1-.13,1.76Zm7.25-2.91c0-1.52-.65-4-3.42-4-2.57,0-3.66,2.33-3.83,4Z"/><path class="cls-3" d="M142.84,711.75a11.94,11.94,0,0,1-4.67.85c-5.14,0-8.49-3.29-8.49-8.4,0-4.94,3.38-8.8,9.17-8.8a10.42,10.42,0,0,1,4,.78l-.75,3.11a7.4,7.4,0,0,0-3.15-.64c-3.18,0-5.07,2.34-5,5.35,0,3.38,2.2,5.31,5,5.31a8.13,8.13,0,0,0,3.29-.64Z"/><path class="cls-3" d="M151.21,691.07v4.71h4v3.11h-4v7.28c0,2,.54,3,2.13,3A6.19,6.19,0,0,0,155,709l.07,3.18a9,9,0,0,1-3,.41,4.8,4.8,0,0,1-3.59-1.36c-.88-1-1.29-2.44-1.29-4.6v-7.75h-2.37v-3.11h2.37v-3.73Z"/><path class="cls-3" d="M162.75,691.17a2.22,2.22,0,0,1-2.37,2.24,2.19,2.19,0,0,1-2.3-2.24,2.34,2.34,0,0,1,4.67,0Zm-4.44,21.09V695.78h4.2v16.48Z"/><path class="cls-3" d="M169.62,695.78l2.67,8.35a42.11,42.11,0,0,1,1.12,4.13h.1c.31-1.35.68-2.64,1.12-4.13l2.61-8.35h4.39l-6.29,16.48h-4.09l-6.13-16.48Z"/><path class="cls-3" d="M188.61,691.17a2.34,2.34,0,1,1-2.33-2.27A2.21,2.21,0,0,1,188.61,691.17Zm-4.43,21.09V695.78h4.19v16.48Z"/><path class="cls-3" d="M197.62,691.07v4.71h4v3.11h-4v7.28c0,2,.54,3,2.13,3a6.19,6.19,0,0,0,1.62-.2l.07,3.18a9,9,0,0,1-3,.41,4.8,4.8,0,0,1-3.59-1.36c-.88-1-1.29-2.44-1.29-4.6v-7.75h-2.37v-3.11h2.37v-3.73Z"/><path class="cls-3" d="M207.57,695.78l3,8.83c.33,1,.67,2.27.91,3.21h.1c.27-.94.58-2.16.88-3.25l2.57-8.79h4.47L215.35,707c-2.27,6.16-3.79,8.9-5.75,10.59a8.42,8.42,0,0,1-4.37,2.14l-.95-3.52a7,7,0,0,0,2.44-1.15,7.3,7.3,0,0,0,2.27-2.61,1.64,1.64,0,0,0,.27-.74,1.73,1.73,0,0,0-.24-.82l-6-15.12Z"/><path class="cls-3" d="M311.15,591.81a25.46,25.46,0,0,1,4.24-.33,7,7,0,0,1,4.8,1.42,4.62,4.62,0,0,1,1.5,3.58,5.06,5.06,0,0,1-1.32,3.66,7.11,7.11,0,0,1-5.23,1.88,8,8,0,0,1-1.78-.15v6.85h-2.21Zm2.21,8.25a7.24,7.24,0,0,0,1.83.18c2.67,0,4.29-1.29,4.29-3.65s-1.6-3.36-4-3.36a9.33,9.33,0,0,0-2.08.18Z"/><path class="cls-3" d="M325.19,603c.05,3,2,4.27,4.22,4.27a8.17,8.17,0,0,0,3.4-.63l.38,1.59a9.85,9.85,0,0,1-4.09.77c-3.78,0-6-2.49-6-6.2s2.18-6.63,5.76-6.63c4,0,5.08,3.53,5.08,5.79a9.75,9.75,0,0,1-.07,1Zm6.55-1.6c0-1.42-.58-3.63-3.09-3.63-2.26,0-3.25,2.09-3.43,3.63Z"/><path class="cls-3" d="M336.67,600.27c0-1.45,0-2.69-.1-3.84h1.95l.08,2.42h.1a3.69,3.69,0,0,1,3.4-2.7,2.49,2.49,0,0,1,.64.08v2.11a3.44,3.44,0,0,0-.77-.08,3.13,3.13,0,0,0-3,2.87,6.44,6.44,0,0,0-.1,1v6.55h-2.21Z"/><path class="cls-3" d="M344.67,606.44a5.84,5.84,0,0,0,2.94.89c1.63,0,2.39-.82,2.39-1.83s-.64-1.65-2.29-2.26c-2.21-.79-3.25-2-3.25-3.48,0-2,1.6-3.61,4.24-3.61a6,6,0,0,1,3,.77l-.55,1.62a4.89,4.89,0,0,0-2.52-.71c-1.32,0-2.06.76-2.06,1.68s.74,1.47,2.34,2.08c2.13.81,3.23,1.88,3.23,3.7,0,2.16-1.68,3.69-4.6,3.69a7,7,0,0,1-3.45-.84Z"/><path class="cls-3" d="M366.14,602.48C366.14,607,363,609,360,609c-3.33,0-5.9-2.44-5.9-6.32,0-4.11,2.7-6.53,6.1-6.53S366.14,598.72,366.14,602.48Zm-9.75.12c0,2.69,1.55,4.73,3.74,4.73s3.73-2,3.73-4.78c0-2.08-1-4.72-3.68-4.72S356.39,600.27,356.39,602.6Z"/><path class="cls-3" d="M369,599.76c0-1.27,0-2.31-.1-3.33h2l.13,2h0a4.53,4.53,0,0,1,4.06-2.31c1.7,0,4.34,1,4.34,5.23v7.34h-2.23v-7.08c0-2-.74-3.63-2.85-3.63a3.17,3.17,0,0,0-3,2.28,3.26,3.26,0,0,0-.15,1v7.39H369Z"/><path class="cls-3" d="M389.86,608.72l-.18-1.55h-.08a4.54,4.54,0,0,1-3.75,1.83,3.5,3.5,0,0,1-3.76-3.53c0-3,2.64-4.59,7.39-4.57v-.25a2.54,2.54,0,0,0-2.8-2.85,6.14,6.14,0,0,0-3.2.92l-.5-1.47a7.59,7.59,0,0,1,4-1.1c3.76,0,4.68,2.57,4.68,5v4.6a17.57,17.57,0,0,0,.2,2.94Zm-.33-6.27c-2.44-.05-5.21.38-5.21,2.77a2,2,0,0,0,2.11,2.13,3.05,3.05,0,0,0,3-2.06,2.17,2.17,0,0,0,.13-.71Z"/><path class="cls-3" d="M395.29,590.7h2.23v18h-2.23Z"/><path class="cls-3" d="M417.28,590.7v14.85c0,1.09,0,2.33.1,3.17h-2l-.1-2.13h0A4.55,4.55,0,0,1,411,609c-3,0-5.26-2.51-5.26-6.24,0-4.09,2.52-6.61,5.51-6.61A4.12,4.12,0,0,1,415,598H415V590.7ZM415,601.44a3.76,3.76,0,0,0-.1-.94,3.28,3.28,0,0,0-3.22-2.59c-2.31,0-3.69,2-3.69,4.74,0,2.49,1.22,4.55,3.64,4.55a3.36,3.36,0,0,0,3.27-2.67,3.68,3.68,0,0,0,.1-1Z"/><path class="cls-3" d="M422.23,603c0,3,2,4.27,4.21,4.27a8.14,8.14,0,0,0,3.4-.63l.38,1.59a9.8,9.8,0,0,1-4.08.77c-3.79,0-6.05-2.49-6.05-6.2s2.19-6.63,5.77-6.63c4,0,5.08,3.53,5.08,5.79a9.19,9.19,0,0,1-.08,1Zm6.55-1.6c0-1.42-.59-3.63-3.1-3.63-2.26,0-3.25,2.09-3.43,3.63Z"/><path class="cls-3" d="M434.57,596.43l2.41,6.91c.4,1.12.73,2.13,1,3.15H438c.28-1,.64-2,1-3.15l2.39-6.91h2.34L439,608.72h-2.13l-4.67-12.29Z"/><path class="cls-3" d="M448.4,593a1.31,1.31,0,0,1-1.42,1.37,1.33,1.33,0,0,1-1.35-1.37,1.37,1.37,0,0,1,1.4-1.4A1.33,1.33,0,0,1,448.4,593Zm-2.49,15.74V596.43h2.24v12.29Z"/><path class="cls-3" d="M460.61,608.27a8.26,8.26,0,0,1-3.53.71c-3.7,0-6.11-2.52-6.11-6.27a6.24,6.24,0,0,1,6.6-6.53,7.57,7.57,0,0,1,3.1.63l-.51,1.73a5.26,5.26,0,0,0-2.59-.58c-2.82,0-4.34,2.08-4.34,4.64,0,2.85,1.82,4.6,4.26,4.6a6.31,6.31,0,0,0,2.74-.61Z"/><path class="cls-3" d="M464.32,603c.05,3,2,4.27,4.22,4.27a8.21,8.21,0,0,0,3.4-.63l.38,1.59a9.85,9.85,0,0,1-4.09.77c-3.78,0-6-2.49-6-6.2s2.18-6.63,5.76-6.63c4,0,5.08,3.53,5.08,5.79a7.3,7.3,0,0,1-.08,1Zm6.55-1.6c0-1.42-.58-3.63-3.1-3.63-2.26,0-3.25,2.09-3.42,3.63Z"/><path class="cls-3" d="M483.67,593a1.39,1.39,0,0,1-2.77,0,1.36,1.36,0,0,1,1.39-1.4A1.33,1.33,0,0,1,483.67,593Zm-2.49,15.74V596.43h2.23v12.29Z"/><path class="cls-3" d="M487.12,599.76c0-1.27,0-2.31-.1-3.33h2l.12,2h.05a4.55,4.55,0,0,1,4.07-2.31c1.7,0,4.34,1,4.34,5.23v7.34h-2.24v-7.08c0-2-.73-3.63-2.84-3.63a3.19,3.19,0,0,0-3,2.28,3.26,3.26,0,0,0-.15,1v7.39h-2.23Z"/><path class="cls-3" d="M503.8,592.9v3.53H507v1.7h-3.2v6.63c0,1.53.43,2.39,1.67,2.39a5.29,5.29,0,0,0,1.3-.15l.1,1.67a5.41,5.41,0,0,1-2,.31,3.09,3.09,0,0,1-2.41-.94,4.53,4.53,0,0,1-.86-3.2v-6.71h-1.91v-1.7h1.91v-2.94Z"/><path class="cls-3" d="M510.6,603c0,3,2,4.27,4.22,4.27a8.17,8.17,0,0,0,3.4-.63l.38,1.59a9.85,9.85,0,0,1-4.09.77c-3.78,0-6-2.49-6-6.2s2.18-6.63,5.76-6.63c4,0,5.08,3.53,5.08,5.79a9.75,9.75,0,0,1-.07,1Zm6.55-1.6c0-1.42-.58-3.63-3.09-3.63-2.26,0-3.25,2.09-3.43,3.63Z"/><path class="cls-3" d="M532.67,596.43c0,.89-.1,1.88-.1,3.38V607c0,2.81-.56,4.54-1.76,5.61a6.54,6.54,0,0,1-4.47,1.47,7.91,7.91,0,0,1-4.08-1l.56-1.7a6.89,6.89,0,0,0,3.6,1c2.29,0,4-1.2,4-4.29v-1.37h0a4.37,4.37,0,0,1-3.91,2c-3,0-5.23-2.59-5.23-6,0-4.16,2.72-6.53,5.54-6.53a4.08,4.08,0,0,1,3.83,2.14h.05l.1-1.86Zm-2.31,4.85a3.17,3.17,0,0,0-.13-1,3.22,3.22,0,0,0-3.12-2.36c-2.14,0-3.66,1.8-3.66,4.64,0,2.41,1.22,4.42,3.63,4.42a3.27,3.27,0,0,0,3.1-2.28,3.88,3.88,0,0,0,.18-1.2Z"/><path class="cls-3" d="M536.12,600.27c0-1.45,0-2.69-.1-3.84h2l.08,2.42h.1a3.69,3.69,0,0,1,3.4-2.7,2.49,2.49,0,0,1,.64.08v2.11a3.44,3.44,0,0,0-.77-.08,3.13,3.13,0,0,0-3,2.87,6.44,6.44,0,0,0-.1,1v6.55h-2.21Z"/><path class="cls-3" d="M551.1,608.72l-.18-1.55h-.08a4.54,4.54,0,0,1-3.75,1.83,3.5,3.5,0,0,1-3.76-3.53c0-3,2.64-4.59,7.39-4.57v-.25a2.54,2.54,0,0,0-2.8-2.85,6.14,6.14,0,0,0-3.2.92l-.5-1.47a7.61,7.61,0,0,1,4-1.1c3.76,0,4.68,2.57,4.68,5v4.6a17.57,17.57,0,0,0,.2,2.94Zm-.33-6.27c-2.44-.05-5.21.38-5.21,2.77a2,2,0,0,0,2.11,2.13,3,3,0,0,0,3-2.06,2.17,2.17,0,0,0,.13-.71Z"/><path class="cls-3" d="M559.12,592.9v3.53h3.2v1.7h-3.2v6.63c0,1.53.43,2.39,1.68,2.39a5.27,5.27,0,0,0,1.29-.15l.1,1.67a5.37,5.37,0,0,1-2,.31,3.09,3.09,0,0,1-2.41-.94,4.57,4.57,0,0,1-.86-3.2v-6.71H555v-1.7h1.91v-2.94Z"/><path class="cls-3" d="M567.32,593a1.31,1.31,0,0,1-1.42,1.37,1.33,1.33,0,0,1-1.35-1.37,1.37,1.37,0,0,1,1.4-1.4A1.33,1.33,0,0,1,567.32,593Zm-2.49,15.74V596.43h2.24v12.29Z"/><path class="cls-3" d="M581.89,602.48c0,4.54-3.14,6.52-6.12,6.52-3.32,0-5.89-2.44-5.89-6.32,0-4.11,2.7-6.53,6.1-6.53S581.89,598.72,581.89,602.48Zm-9.75.12c0,2.69,1.55,4.73,3.74,4.73s3.73-2,3.73-4.78c0-2.08-1-4.72-3.68-4.72S572.14,600.27,572.14,602.6Z"/><path class="cls-3" d="M584.71,599.76c0-1.27,0-2.31-.1-3.33h2l.13,2h0a4.53,4.53,0,0,1,4.06-2.31c1.7,0,4.34,1,4.34,5.23v7.34h-2.23v-7.08c0-2-.74-3.63-2.85-3.63a3.17,3.17,0,0,0-3,2.28,3.26,3.26,0,0,0-.15,1v7.39h-2.24Z"/><path class="cls-3" d="M314,664.11,309.6,647h2.34l2,8.66c.51,2.13,1,4.26,1.27,5.91h.05c.28-1.7.81-3.73,1.4-5.94L319,647h2.31l2.09,8.68c.48,2,.93,4.06,1.19,5.87h.05c.35-1.88.84-3.79,1.37-5.92l2.26-8.63h2.26l-4.85,17.11h-2.31l-2.16-8.91a52.47,52.47,0,0,1-1.12-5.59H320a51.21,51.21,0,0,1-1.32,5.59l-2.43,8.91Z"/><path class="cls-3" d="M334.64,648.37a1.39,1.39,0,0,1-2.77,0,1.36,1.36,0,0,1,1.4-1.4A1.33,1.33,0,0,1,334.64,648.37Zm-2.49,15.74V651.82h2.23v12.29Z"/><path class="cls-3" d="M343.27,656.42v1.65H337v-1.65Z"/><path class="cls-3" d="M346,647h9.22v1.85h-7v5.69h6.47v1.83h-6.47v7.74H346Z"/><path class="cls-3" d="M360.08,648.37a1.39,1.39,0,0,1-2.77,0,1.36,1.36,0,0,1,1.4-1.4A1.33,1.33,0,0,1,360.08,648.37Zm-2.49,15.74V651.82h2.23v12.29Z"/><path class="cls-3" d="M375.71,664.11l-.17-1.55h-.08a4.55,4.55,0,0,1-3.76,1.83,3.49,3.49,0,0,1-3.75-3.53c0-3,2.64-4.59,7.38-4.57V656a2.54,2.54,0,0,0-2.79-2.85,6.14,6.14,0,0,0-3.2.92l-.51-1.48a7.65,7.65,0,0,1,4-1.09c3.76,0,4.67,2.57,4.67,5v4.6a16.51,16.51,0,0,0,.21,2.94Zm-.33-6.27c-2.43-.05-5.2.38-5.2,2.77a2,2,0,0,0,2.11,2.13,3.06,3.06,0,0,0,3-2.06,2.46,2.46,0,0,0,.12-.71Z"/><path class="cls-3" d="M381.15,655.15c0-1.27,0-2.31-.1-3.33h2l.12,2h.05a4.55,4.55,0,0,1,4.07-2.31c1.7,0,4.34,1,4.34,5.23v7.34h-2.24V657c0-2-.73-3.63-2.84-3.63a3.19,3.19,0,0,0-3,2.28,3.26,3.26,0,0,0-.15,1v7.39h-2.23Z"/><path class="cls-3" d="M405.85,646.08v14.86c0,1.09,0,2.33.1,3.17h-2l-.1-2.13h-.06a4.53,4.53,0,0,1-4.18,2.41c-3,0-5.26-2.51-5.26-6.25,0-4.08,2.51-6.6,5.51-6.6a4.12,4.12,0,0,1,3.71,1.88h.05v-7.34Zm-2.23,10.74a4.29,4.29,0,0,0-.1-.94,3.29,3.29,0,0,0-3.23-2.59c-2.31,0-3.68,2-3.68,4.75,0,2.49,1.22,4.55,3.63,4.55a3.36,3.36,0,0,0,3.28-2.67,4.16,4.16,0,0,0,.1-1Z"/><path class="cls-3" d="M415.83,651.82l1.62,6.25c.36,1.37.69,2.64.92,3.91h.07c.28-1.25.69-2.57,1.1-3.89l2-6.27h1.88l1.9,6.15c.46,1.47.82,2.76,1.1,4h.07a40.22,40.22,0,0,1,.94-4l1.75-6.17h2.21l-4,12.29h-2l-1.88-5.86a39.91,39.91,0,0,1-1.09-4h-.05a38,38,0,0,1-1.12,4.06l-2,5.84h-2l-3.71-12.29Z"/><path class="cls-3" d="M434.62,658.37c.05,3,2,4.27,4.21,4.27a8,8,0,0,0,3.4-.64l.38,1.6a9.8,9.8,0,0,1-4.08.77c-3.79,0-6-2.49-6-6.2s2.19-6.63,5.77-6.63c4,0,5.07,3.53,5.07,5.79a10,10,0,0,1-.07,1Zm6.55-1.6c0-1.42-.59-3.63-3.1-3.63-2.26,0-3.25,2.08-3.43,3.63Z"/><path class="cls-3" d="M446,664.11c.05-.84.1-2.08.1-3.17V646.08h2.21v7.72h.05a4.58,4.58,0,0,1,4.19-2.26c3,0,5.21,2.54,5.18,6.27,0,4.4-2.77,6.58-5.51,6.58a4.36,4.36,0,0,1-4.11-2.31H448l-.1,2Zm2.31-4.92a4.38,4.38,0,0,0,.1.81,3.44,3.44,0,0,0,3.35,2.61c2.34,0,3.74-1.9,3.74-4.72,0-2.46-1.27-4.57-3.66-4.57a3.56,3.56,0,0,0-3.4,2.74,4.52,4.52,0,0,0-.13.92Z"/><path class="cls-3" d="M468.41,648.37a1.39,1.39,0,0,1-2.77,0A1.36,1.36,0,0,1,467,647,1.33,1.33,0,0,1,468.41,648.37Zm-2.49,15.74V651.82h2.23v12.29Z"/><path class="cls-3" d="M471.86,655.15c0-1.27,0-2.31-.1-3.33h2l.12,2h.06a4.52,4.52,0,0,1,4.06-2.31c1.7,0,4.34,1,4.34,5.23v7.34h-2.24V657c0-2-.73-3.63-2.84-3.63a3.17,3.17,0,0,0-3,2.28,3,3,0,0,0-.16,1v7.39h-2.23Z"/><path class="cls-3" d="M488.54,648.29v3.53h3.2v1.7h-3.2v6.63c0,1.52.43,2.39,1.67,2.39a4.76,4.76,0,0,0,1.3-.16l.1,1.68a5.41,5.41,0,0,1-2,.31,3.09,3.09,0,0,1-2.41-.94,4.54,4.54,0,0,1-.86-3.2v-6.71h-1.91v-1.7h1.91v-2.94Z"/><path class="cls-3" d="M495.34,658.37c.05,3,2,4.27,4.22,4.27A8,8,0,0,0,503,662l.38,1.6a9.85,9.85,0,0,1-4.09.77c-3.78,0-6-2.49-6-6.2s2.18-6.63,5.76-6.63c4,0,5.08,3.53,5.08,5.79a10,10,0,0,1-.07,1Zm6.55-1.6c0-1.42-.58-3.63-3.09-3.63-2.26,0-3.25,2.08-3.43,3.63Z"/><path class="cls-3" d="M506.82,655.66c0-1.45,0-2.7-.1-3.84h1.95l.08,2.41h.1a3.68,3.68,0,0,1,3.4-2.69,2.49,2.49,0,0,1,.64.08v2.11a3.41,3.41,0,0,0-.76-.08,3.13,3.13,0,0,0-3,2.87,6.33,6.33,0,0,0-.1,1v6.55h-2.21Z"/><path class="cls-3" d="M516.11,664.11V653.52h-1.73v-1.7h1.73v-.58a5.79,5.79,0,0,1,1.42-4.29,4.26,4.26,0,0,1,3-1.15,5.08,5.08,0,0,1,1.9.36l-.3,1.73a3.23,3.23,0,0,0-1.42-.28c-1.91,0-2.39,1.67-2.39,3.55v.66h3v1.7h-3v10.59Z"/><path class="cls-3" d="M530.1,664.11l-.18-1.55h-.07a4.58,4.58,0,0,1-3.76,1.83,3.5,3.5,0,0,1-3.76-3.53c0-3,2.64-4.59,7.39-4.57V656a2.54,2.54,0,0,0-2.79-2.85,6.09,6.09,0,0,0-3.2.92l-.51-1.48a7.62,7.62,0,0,1,4-1.09c3.75,0,4.67,2.57,4.67,5v4.6a17.57,17.57,0,0,0,.2,2.94Zm-.33-6.27c-2.44-.05-5.21.38-5.21,2.77a2,2,0,0,0,2.11,2.13,3.05,3.05,0,0,0,3-2.06,2.17,2.17,0,0,0,.13-.71Z"/><path class="cls-3" d="M544.29,663.65a8.11,8.11,0,0,1-3.53.72c-3.7,0-6.12-2.52-6.12-6.28a6.24,6.24,0,0,1,6.61-6.52,7.52,7.52,0,0,1,3.09.63l-.51,1.73a5.21,5.21,0,0,0-2.58-.58c-2.82,0-4.35,2.08-4.35,4.64,0,2.85,1.83,4.6,4.27,4.6a6.31,6.31,0,0,0,2.74-.61Z"/><path class="cls-3" d="M548,658.37c0,3,2,4.27,4.21,4.27a8,8,0,0,0,3.41-.64l.38,1.6a9.89,9.89,0,0,1-4.09.77c-3.78,0-6-2.49-6-6.2s2.18-6.63,5.76-6.63c4,0,5.08,3.53,5.08,5.79a7.43,7.43,0,0,1-.08,1Zm6.55-1.6c0-1.42-.59-3.63-3.1-3.63-2.26,0-3.25,2.08-3.43,3.63Z"/><path class="cls-3" d="M323.11,718.94a10.91,10.91,0,0,1-4.52.81c-4.82,0-8.45-3-8.45-8.65,0-5.36,3.63-9,8.93-9a9.14,9.14,0,0,1,4.07.76l-.54,1.8a8.1,8.1,0,0,0-3.45-.71c-4,0-6.68,2.57-6.68,7.06,0,4.19,2.41,6.88,6.58,6.88a8.83,8.83,0,0,0,3.6-.71Z"/><path class="cls-3" d="M326.11,707.21l2.69,7.26c.28.82.58,1.78.78,2.52h.05c.23-.74.49-1.68.79-2.57l2.44-7.21h2.36L331.87,716c-1.6,4.22-2.69,6.37-4.22,7.69a6,6,0,0,1-2.74,1.45l-.56-1.88a5.92,5.92,0,0,0,2-1.09,6.8,6.8,0,0,0,1.88-2.49,1.63,1.63,0,0,0,.18-.53,2,2,0,0,0-.16-.58l-4.54-11.33Z"/><path class="cls-3" d="M337.15,719.5c.05-.84.1-2.08.1-3.17V701.47h2.21v7.72h.05a4.58,4.58,0,0,1,4.19-2.26c3.05,0,5.21,2.54,5.18,6.27,0,4.4-2.77,6.58-5.51,6.58a4.37,4.37,0,0,1-4.11-2.31h-.08l-.1,2Zm2.31-4.93a4.38,4.38,0,0,0,.1.82,3.44,3.44,0,0,0,3.35,2.61c2.34,0,3.74-1.9,3.74-4.72,0-2.46-1.27-4.57-3.66-4.57a3.56,3.56,0,0,0-3.4,2.74,4.52,4.52,0,0,0-.13.92Z"/><path class="cls-3" d="M352.94,713.76c.05,3,2,4.27,4.22,4.27a8,8,0,0,0,3.4-.64l.38,1.6a9.89,9.89,0,0,1-4.09.76c-3.78,0-6-2.48-6-6.19s2.18-6.63,5.76-6.63c4,0,5.08,3.53,5.08,5.79a7.43,7.43,0,0,1-.08,1Zm6.55-1.6c0-1.42-.58-3.63-3.1-3.63-2.26,0-3.25,2.08-3.42,3.63Z"/><path class="cls-3" d="M364.42,711c0-1.44,0-2.69-.11-3.83h2l.08,2.41h.1a3.68,3.68,0,0,1,3.4-2.69,2.41,2.41,0,0,1,.63.08v2.11a2.81,2.81,0,0,0-.76-.08,3.13,3.13,0,0,0-3,2.87,6.33,6.33,0,0,0-.1,1v6.55h-2.21Z"/><path class="cls-3" d="M377.79,717.21a5.81,5.81,0,0,0,2.95.89c1.63,0,2.39-.81,2.39-1.82s-.64-1.65-2.29-2.26c-2.21-.79-3.25-2-3.25-3.48,0-2,1.6-3.61,4.24-3.61a6.16,6.16,0,0,1,3,.76l-.56,1.63a4.72,4.72,0,0,0-2.51-.71c-1.32,0-2.06.76-2.06,1.67s.74,1.48,2.34,2.09c2.13.81,3.23,1.87,3.23,3.7,0,2.16-1.68,3.68-4.6,3.68a7.06,7.06,0,0,1-3.45-.83Z"/><path class="cls-3" d="M389.4,713.76c.05,3,2,4.27,4.21,4.27a8,8,0,0,0,3.4-.64l.39,1.6a9.93,9.93,0,0,1-4.09.76c-3.79,0-6.05-2.48-6.05-6.19s2.19-6.63,5.77-6.63c4,0,5.08,3.53,5.08,5.79a7.43,7.43,0,0,1-.08,1Zm6.55-1.6c0-1.42-.59-3.63-3.1-3.63-2.26,0-3.25,2.08-3.43,3.63Z"/><path class="cls-3" d="M409.63,719a8.14,8.14,0,0,1-3.53.71c-3.7,0-6.12-2.51-6.12-6.27a6.24,6.24,0,0,1,6.61-6.52,7.52,7.52,0,0,1,3.09.63l-.5,1.73a5.16,5.16,0,0,0-2.59-.59c-2.82,0-4.35,2.09-4.35,4.65,0,2.84,1.83,4.6,4.27,4.6a6.31,6.31,0,0,0,2.74-.61Z"/><path class="cls-3" d="M422.53,716.15c0,1.27,0,2.39.1,3.35h-2l-.13-2h0a4.62,4.62,0,0,1-4.06,2.29c-1.93,0-4.24-1.07-4.24-5.38v-7.19h2.24V714c0,2.33.71,3.91,2.74,3.91a3.22,3.22,0,0,0,2.94-2,3.17,3.17,0,0,0,.21-1.14v-7.54h2.23Z"/><path class="cls-3" d="M426.24,711c0-1.44,0-2.69-.11-3.83h2l.08,2.41h.1a3.68,3.68,0,0,1,3.4-2.69,2.41,2.41,0,0,1,.63.08v2.11a2.81,2.81,0,0,0-.76-.08,3.13,3.13,0,0,0-3,2.87,6.33,6.33,0,0,0-.1,1v6.55h-2.21Z"/><path class="cls-3" d="M437.13,703.76a1.39,1.39,0,0,1-2.77,0,1.36,1.36,0,0,1,1.4-1.4A1.33,1.33,0,0,1,437.13,703.76Zm-2.49,15.74V707.21h2.23V719.5Z"/><path class="cls-3" d="M443.27,703.68v3.53h3.2v1.7h-3.2v6.63c0,1.52.43,2.39,1.68,2.39a4.73,4.73,0,0,0,1.29-.16l.1,1.68a5.4,5.4,0,0,1-2,.3,3.09,3.09,0,0,1-2.41-.94,4.56,4.56,0,0,1-.86-3.19v-6.71h-1.91v-1.7h1.91v-2.94Z"/><path class="cls-3" d="M450,707.21l2.7,7.26c.28.82.58,1.78.78,2.52h.05c.23-.74.49-1.68.79-2.57l2.44-7.21h2.36L455.79,716c-1.6,4.22-2.69,6.37-4.22,7.69a6,6,0,0,1-2.74,1.45l-.56-1.88a5.92,5.92,0,0,0,2-1.09,6.8,6.8,0,0,0,1.88-2.49,1.56,1.56,0,0,0,.17-.53,1.87,1.87,0,0,0-.15-.58l-4.54-11.33Z"/><circle class="cls-4" cx="286.12" cy="601.88" r="4.5"/><circle class="cls-4" cx="286.12" cy="657.19" r="4.5"/><circle class="cls-4" cx="286.12" cy="712.51" r="4.5"/><path class="cls-3" d="M79.75,69.91c.51-1.58,1-3.17,1.55-4.71.7-1.81.75-1.79,2.69-1.73a.61.61,0,0,1,.19,0,2.48,2.48,0,0,0,2.8-1.3,28,28,0,0,1,2.16-2.35,1.92,1.92,0,0,0,.36-1,5.73,5.73,0,0,0-.15-1.22c-.3-2-.33-2,1.43-2.94,1.31-.67,2.7-1.19,4-1.81A.8.8,0,0,1,96,53.1c1.18,1.86,2.77,2.66,5,2a.66.66,0,0,1,.28,0c1.89.46,3.08-.43,3.9-2A1.34,1.34,0,0,1,107,52.3c1.64.64,3.3,1.22,5,1.82a.79.79,0,0,1,.57,1c-.37,2-.1,3.71,1.94,4.71a.81.81,0,0,1,.35.31c1.09,1.88,2.76,1.84,4.54,1.34a1,1,0,0,1,1.35.61q1.16,2.53,2.35,5a.84.84,0,0,1-.3,1.21c-1.72,1.13-2.64,2.58-1.83,4.7a.76.76,0,0,1,0,.47c-.59,1.76.46,2.67,1.8,3.38a1.5,1.5,0,0,1,.78,2.14c-.63,1.61-1.16,3.25-1.81,4.85a1.08,1.08,0,0,1-.89.54c-2.22-.46-3.56.54-5.07,2.15s-1.9,2.84-1.34,4.69a1,1,0,0,1-.62,1.43c-1.71.78-3.4,1.61-5.13,2.36a1,1,0,0,1-.92-.24c-1.25-1.84-2.84-2.71-5.07-2a.17.17,0,0,1-.1,0c-2-.46-3.33.45-4.2,2.2a1.12,1.12,0,0,1-1.6.61c-1.7-.65-3.43-1.23-5.11-1.9a1.11,1.11,0,0,1-.55-.89c.38-2.18-.11-3.92-2.2-5a1.49,1.49,0,0,1-.55-.51c-.82-1.37-2-1.4-3.39-1.08-1.62.37-1.7.33-2.45-1.14s-1.32-2.92-2-4.38a.82.82,0,0,1,.3-1.2c2-1.17,2.44-2.89,1.85-5a.62.62,0,0,1,0-.37c.68-1.78-.68-2.42-1.77-3.21-.39-.28-.76-.57-1.13-.85ZM109.85,58C110,56,110,56,108.17,55.33a1.19,1.19,0,0,1-.26-.11c-.73-.39-1.21-.15-1.61.53-.3.51-.75.94-1.06,1.45s-.73.6-1.33.59a22.25,22.25,0,0,0-5,.14,2.65,2.65,0,0,1-3-1c-1.18-1.44-1.24-1.35-2.93-.57-.84.4-1.34.82-1,1.85a15.09,15.09,0,0,1,.26,1.68A1.11,1.11,0,0,1,91.79,61a13.32,13.32,0,0,0-2.85,2.86,3.81,3.81,0,0,1-4.65,2.16.76.76,0,0,0-.66.31A6.32,6.32,0,0,0,82.86,69c0,.49,1,.93,1.52,1.39.2.16.47.27.59.47a2.34,2.34,0,0,1,.46,1.08c0,1.38-.31,2.86.08,4.11.63,2-.12,3.2-1.63,4.24a.85.85,0,0,0-.3,1.27,4.74,4.74,0,0,1,.39.86c.33,1,.9,1.58,2.08,1.16a14.26,14.26,0,0,1,1.48-.23c.56-.15.84.11,1.19.5a12.46,12.46,0,0,0,2.79,2.78,4,4,0,0,1,2.24,4.74c0,.22.23.59.46.75a4.55,4.55,0,0,0,1,.43c1.41.5,1.41.5,2.28-.66a9.52,9.52,0,0,1,1-1.27,1.65,1.65,0,0,1,1-.43c1.44,0,3,.3,4.31-.07a3.68,3.68,0,0,1,4.63,1.75c.12.18.46.43.58.37A9.86,9.86,0,0,0,111.55,91c.26-.19,0-1,0-1.59a11.48,11.48,0,0,0-.19-1.31,1.14,1.14,0,0,1,.48-1.2,12.91,12.91,0,0,0,2.79-2.78c1.11-1.88,2.47-2.75,4.64-2.26.21,0,.62,0,.67-.16A9.84,9.84,0,0,0,120.8,79c0-.35-.77-.79-1.2-1.16a4.49,4.49,0,0,0-.83-.62c-.6-.32-.66-.79-.62-1.42a10.14,10.14,0,0,0,0-3.56,3.69,3.69,0,0,1,1.66-4.68c.19-.13.43-.51.37-.67A9.79,9.79,0,0,0,119,64.36c-.22-.27-1.12,0-1.7.07a5.81,5.81,0,0,0-1,.15,1.29,1.29,0,0,1-1.36-.53,26.74,26.74,0,0,0-3.78-3.52C110,59.8,109.52,59.1,109.85,58Z"/><path class="cls-3" d="M159.75,78.23c-.74.52-1.49,1-2.2,1.59a1,1,0,0,0-.18.65c0,.94-.08,1.87,0,2.81a4.9,4.9,0,0,0,.35,1.13s0,0,.07.06c1.82,1.68,1.82,1.68.88,4l-.3.7c-1.18,2.56-1.18,2.54-3.93,2.24a1.39,1.39,0,0,0-.94.36,26.57,26.57,0,0,1-2.08,1.91,1.51,1.51,0,0,0-.66,1.59c.19,2.23.19,2.25-1.91,3.11-1,.39-2,.66-2.95,1a.91.91,0,0,1-1.27-.43c-.78-1.51-2-1.79-3.66-1.91a3.62,3.62,0,0,0-3.68,1.68.82.82,0,0,1-1.18.34c-1.42-.67-2.85-1.31-4.28-2a.84.84,0,0,1-.58-1.11c.58-1.71-.15-2.82-1.31-4.08s-2-1.71-3.51-1.36a1,1,0,0,1-1.35-.8c-.48-1.42-1-2.83-1.53-4.25a.85.85,0,0,1,.4-1.19,3.18,3.18,0,0,0,1.81-3.76c-.06-.36.09-.75.06-1.12a3.57,3.57,0,0,0-.27-.88,1.12,1.12,0,0,0-.27-.26c-1.72-1.54-1.75-1.55-.84-3.72.41-1,.94-1.84,1.39-2.78a.79.79,0,0,1,1-.52c1.7.57,2.81-.19,4.09-1.32a3.45,3.45,0,0,0,1.36-3.54,1,1,0,0,1,.77-1.35c1.46-.5,2.89-1.07,4.35-1.54a1.12,1.12,0,0,1,1,.34c.9,1.62,2.21,2,4,2a3.29,3.29,0,0,0,3.27-1.52,1.09,1.09,0,0,1,1.59-.45q2,1,4.09,1.92a.77.77,0,0,1,.51,1,3.76,3.76,0,0,0,1.16,4A4.08,4.08,0,0,0,157,72.36a1.07,1.07,0,0,1,.9.5c.67,1.58,1.25,3.2,1.87,4.8ZM154.49,75c-1.3,0-1.28,0-2.11-1.09a8.44,8.44,0,0,0-1.81-2c-1.45-1-2-2.09-1.46-3.77a.87.87,0,0,0-.28-.77c-1.25-.92-1.64-.86-2.64.27-.18.22-.39.42-.55.64a1,1,0,0,1-1.13.39,16.07,16.07,0,0,0-4-.26c-1.29.16-2.17-.05-2.74-1.23-.46-1-1.12-.93-2-.54-.65.29-1,.59-.79,1.33.1.42,0,.88.06,1.31s-.2.81-.6,1.13A13.92,13.92,0,0,0,131.53,73a2.43,2.43,0,0,1-3,1.09c-.81-.25-1.14.09-1.49.78-.42.85-.42,1.45.42,2,.29.18.5.48.78.68a1,1,0,0,1,.38,1.12,10.14,10.14,0,0,0-.25,3.27,2.93,2.93,0,0,1-1.62,3.52.88.88,0,0,0-.38.73c.24,1.56.56,1.8,2.14,1.72a2.89,2.89,0,0,0,.66,0c.6-.17.88.15,1.22.59a12.49,12.49,0,0,0,2.4,2.75A2.68,2.68,0,0,1,134,94.46c-.2.63,0,1,.61,1.24,1.3.58,1.28.61,2.23-.46.19-.21.39-.41.56-.64a1.11,1.11,0,0,1,1.21-.42,13,13,0,0,0,3.92.24,2.48,2.48,0,0,1,3,1.44c.34.63.76.72,1.46.5,1-.31,1.45-.85,1.2-1.9-.06-.28,0-.57-.08-.85-.14-.54.1-.82.54-1.14a11.47,11.47,0,0,0,2.71-2.31,2.86,2.86,0,0,1,3.54-1.36,1,1,0,0,0,.82-.19,1.61,1.61,0,0,0-.16-2.66,5.24,5.24,0,0,0-.5-.44,1.32,1.32,0,0,1-.51-1.54,12.17,12.17,0,0,0,.21-3.55,2.09,2.09,0,0,1,1.11-2.55c.94-.48.94-1.11.62-2.08C156.07,74.63,155.28,75.05,154.49,75Z"/><path class="cls-3" d="M133.27,27.73c1.46.32,2.92.65,4.39.95a1.21,1.21,0,0,1,1.13,1.41,3.1,3.1,0,0,0,1.67,3c1.52,1,2.82,1.69,4.57.76a1,1,0,0,1,.86.27q1.47,2.13,2.82,4.35a.92.92,0,0,1-.15.87c-1.28,1.14-1.38,2.36-1.06,4.06a3.15,3.15,0,0,0,2.12,2.78,1.1,1.1,0,0,1,.77,1.46c-.33,1.47-.56,3-.93,4.42-.08.31-.58.76-.86.74-1.73-.1-2.68.7-3.64,2.14s-1.28,2.47-.55,3.91a.93.93,0,0,1-.4,1.35c-1.29.83-2.57,1.68-3.85,2.53a.85.85,0,0,1-1.25-.11c-1.08-1.25-2.3-1.41-4-1.1A3.68,3.68,0,0,0,131.66,64a.79.79,0,0,1-1,.57c-1.6-.33-3.21-.62-4.79-1a1.09,1.09,0,0,1-.64-.83c.13-1.78-.74-2.74-2.19-3.7s-2.43-1.24-3.84-.53a.92.92,0,0,1-1.34-.39q-1.26-2-2.55-4a.78.78,0,0,1,.12-1.16c1.27-1.09,1.31-2.32,1-4a3.27,3.27,0,0,0-2.24-2.86.94.94,0,0,1-.65-1.25c.31-1.51.59-3,.88-4.53a.84.84,0,0,1,1-.8,3.64,3.64,0,0,0,3.51-2c.92-1.44,1.39-2.62.59-4.16a.78.78,0,0,1,.32-1.12c1.37-.89,2.71-1.83,4.1-2.68a1,1,0,0,1,1,.07c1.22,1.34,2.52,1.53,4.33,1.12,1.48-.33,2.45-.79,2.95-2.2.11-.32.25-.63.37-.94ZM145.9,38.54a12.36,12.36,0,0,0-1.13-1.66c-.17-.17-.68,0-1,0a4.2,4.2,0,0,0-1,.3,1.37,1.37,0,0,1-1.66-.4,10.06,10.06,0,0,0-2.73-2,2.67,2.67,0,0,1-2-3c.06-.71-.34-.91-1-1.08-.93-.25-1.58-.19-1.91.84-.09.29-.32.54-.44.83-.21.54-.59.64-1.15.73a48.09,48.09,0,0,0-4.78,1,1.15,1.15,0,0,1-1.27-.21c-.27-.27-.63-.45-.87-.73-.59-.71-1.12-.58-1.84-.11s-1,1-.6,1.76c.11.22.12.5.23.72a1.43,1.43,0,0,1-.39,1.81,9.36,9.36,0,0,0-2,2.74,2.63,2.63,0,0,1-3,1.94c-.63-.06-.92.26-1,.92-.24,1.41-.29,1.4,1,2.09a6,6,0,0,0,.66.35c.54.22.66.59.72,1.17a14.18,14.18,0,0,0,.62,3.69,2.09,2.09,0,0,1-.54,2.71,1.49,1.49,0,0,0-.12.14c-.65.54-.6,1-.16,1.77s1,1.07,1.9.66c.25-.12.55-.15.81-.25a1.2,1.2,0,0,1,1.42.31,12.89,12.89,0,0,0,3,2.19c1.29.58,1.94,1.33,1.81,2.73-.08.88.41,1.13,1.18,1.32s1.38.08,1.67-.79c.12-.36.39-.66.53-1a1.1,1.1,0,0,1,1.16-.71,9.4,9.4,0,0,0,3.25-.44c1.62-.69,2.89-.62,4,.78a.87.87,0,0,0,.73.19c1.35-.47,1.63-1,1.22-2.37a3.28,3.28,0,0,0-.19-.63c-.33-.64-.07-1.07.36-1.58a13.84,13.84,0,0,0,2.13-3c.55-1.25,1.26-1.92,2.63-1.79.93.09,1.21-.4,1.37-1.23s0-1.39-.83-1.68c-.32-.1-.59-.36-.91-.48-.56-.22-.65-.6-.71-1.16a24.36,24.36,0,0,0-.74-4.06,1.68,1.68,0,0,1,.36-2A13.16,13.16,0,0,0,145.9,38.54Z"/><path class="cls-3" d="M93.29,74.44l-2.57.19A11.11,11.11,0,0,1,106.9,64.19a11,11,0,0,1,5.94,10.75A11.09,11.09,0,0,1,99.9,84.75a1.27,1.27,0,0,0-1.59.68c-.55,1-1.19,1.86-1.91,2.95L91,77.81l11.88.62-2.39,3.7c3.36,1.24,8.17-1.73,9.42-5.76A8.42,8.42,0,0,0,104,65.82a8.15,8.15,0,0,0-7.55,1.62A8.52,8.52,0,0,0,93.29,74.44Z"/><path class="cls-3" d="M132.27,81.42a9.3,9.3,0,1,1,9.28,9.23A9.28,9.28,0,0,1,132.27,81.42ZM141.52,88a6.62,6.62,0,1,0-6.67-6.78A6.76,6.76,0,0,0,141.52,88Z"/><path class="cls-3" d="M141.23,46.22a9.29,9.29,0,0,1-18.57.19,2.17,2.17,0,0,0-.4-1.17A5.2,5.2,0,0,1,128,37.1a3.87,3.87,0,0,0,1.88.1A9.29,9.29,0,0,1,141.23,46.22Zm-15.84,1a6.67,6.67,0,1,0,13.1-2.45c-.8-3.48-4.54-5.91-7.39-5C132.51,43.69,130.07,47.46,125.39,47.23ZM128.92,42a2.57,2.57,0,0,0-2.62-2.62,2.61,2.61,0,1,0,.07,5.22A2.57,2.57,0,0,0,128.92,42Z"/><path class="cls-3" d="M93.58,276.41a25.88,25.88,0,0,1,1-3.17,12.11,12.11,0,0,1,10.49-7.57l1.56-.12c1.15-7.9,7-10.43,12.25-10.77a12.37,12.37,0,0,1,5.75,1,9.82,9.82,0,0,1,4.61,3.66c1,1.64,1.75,3.45,2.67,5.32a15.2,15.2,0,0,1,7.32,1c3.65,1.5,6.47,3.89,7.49,7.86a28.77,28.77,0,0,1,.35,4.07,3.12,3.12,0,0,0,.4,1.36,5.07,5.07,0,0,1,.3,5.64,5,5,0,0,1-5,2.6,2.68,2.68,0,0,0-1.53.42,14.79,14.79,0,0,1-8.25,2.55q-13.32,0-26.63,0a12.22,12.22,0,0,1-12.61-10.54,1.61,1.61,0,0,0-.15-.33Zm20.85-5.17,4.26-2.36V282.1l-11.53-6.78,4.24-2.39a9.06,9.06,0,0,0-3.92-3.72,5.37,5.37,0,0,0-2.42-.47,9.27,9.27,0,0,0,.4,18.49c5.29.11,10.59,0,15.88,0,3.9,0,7.79,0,11.68,0a11.21,11.21,0,0,0,6.17-1.88,5.17,5.17,0,0,1-.39-5.86A5.31,5.31,0,0,1,144,277a6.84,6.84,0,0,0-1.79-5.49c-3.26-3.51-7.34-4.29-11.88-3.4-.54.1-1.07.23-1.71.36,0-.68,0-1.23,0-1.79a8.55,8.55,0,0,0-2.4-6.09c-2.84-2.91-6.29-3.26-10-2.27a8.25,8.25,0,0,0-6.49,7.42A1.8,1.8,0,0,0,110,267C111.39,268.43,112.86,269.76,114.43,271.24Zm28.78,13.08a2.2,2.2,0,0,0,2.24-2.14,2.19,2.19,0,1,0-2.24,2.14Z"/><path class="cls-3" d="M137.13,234.92l-.09,7.54v1.23h-3c0-1.18,0-2.33,0-3.47,0-1.77,0-3.54-.08-5.3Z"/><path class="cls-3" d="M107,314.92l-2.47-1.32,3.66-8,2.74,1.25-.73,1.59c-.85,1.86-1.71,3.72-2.55,5.58a8,8,0,0,0-.28.87Z"/><path class="cls-3" d="M145.59,267.47l-2.5-1.7a10.16,10.16,0,1,0-17.1-11l-1.25-.76-1.26-.79A12.64,12.64,0,0,1,134.32,247a12.5,12.5,0,0,1,12.1,7.25C148.68,258.71,148.21,263.13,145.59,267.47Z"/><path class="cls-3" d="M127.09,304.38l2.74,1.27-3.68,8-2.75-1.25Z"/><path class="cls-3" d="M137.28,295.07l2.75,1.27-3.69,8-2.75-1.26Z"/><path class="cls-3" d="M124.11,247.51l-5.41-7,2.38-1.86,5.41,7Z"/><path class="cls-3" d="M118.29,301.84l-2.75-1.27,3.69-8,2.75,1.25Z"/><path class="cls-3" d="M145.05,246.66l5.53-6.89,2.36,1.89-5.53,6.89Z"/><path class="cls-3" d="M147.27,270.74l2.39-1.85,5.4,7-2.38,1.87Z"/><path class="cls-3" d="M102,295.08l2.75,1.26-3.69,8-2.75-1.26Z"/><path class="cls-3" d="M159.92,260.15h-8.71v-2.91h8.71Z"/><path class="cls-3" d="M155.41,459.14c-.69,1.82-2,2.45-3.92,2.4-2.41-.07-2.41,0-2.41,2.42,0,2.62,0,5.24,0,7.87a6.73,6.73,0,0,1-7,6.93c-1.54,0-3.09.05-4.63,0-.84,0-1.14.19-1.12,1.07.06,2,0,3.95,0,5.93,0,3.11-1.64,4.75-4.72,4.75-6.39,0-12.78,0-19.17,0a1.15,1.15,0,0,0-1.3.81,4.72,4.72,0,0,1-3.69,2.89,3.68,3.68,0,0,0-.5.18h-.74l-1-.32a5,5,0,0,1-3.58-5,5.06,5.06,0,0,1,3.9-4.62,4.9,4.9,0,0,1,5.59,2.76,1.29,1.29,0,0,0,1.43.9c6.34,0,12.67,0,19,0,1.78,0,2.31-.54,2.31-2.33,0-2.1,0-4.2,0-6.3a2.91,2.91,0,0,1,3.09-3.16c1.73,0,3.46,0,5.19,0a4.17,4.17,0,0,0,4.41-4.41c0-3.15,0-6.3,0-9.45,0-2.23,1.14-3.38,3.35-3.38h2c1,0,1.15-.3.7-1.2-.74-1.5-1.45-3-2.25-4.46a37.08,37.08,0,0,1-4.06-13c-1.36-10.21-8.14-17.13-18.35-18.81a37.83,37.83,0,0,0-5.52-.46c-4.45-.07-8.9,0-13.35,0h-1.24v4.79L97.93,420l9.92-5.67v4.2H109c4.85,0,9.7-.14,14.55,0,6.85.24,13.13,2.2,18.26,7a21.88,21.88,0,0,1,6.84,13.54,42.66,42.66,0,0,0,5.18,15.41c.56,1,1.07,2.07,1.6,3.11ZM106.7,491.77a2.5,2.5,0,1,0-2.56-2.5A2.56,2.56,0,0,0,106.7,491.77Z"/><path class="cls-3" d="M123.77,423.7c1.38,2.79,2.73,5.42,4,8.1a1.91,1.91,0,0,0,1.72,1.22c2.7.35,5.38.76,8.07,1.15.23,0,.47.1.48,0-1.8,1.94-3.53,4-5.44,5.78a3.3,3.3,0,0,0-1.18,3.59c.6,2.57.93,5.2,1.41,8l-3.55-1.85c-1.61-.85-3.22-1.68-4.82-2.56a1.26,1.26,0,0,0-1.36,0c-2.36,1.28-4.74,2.52-7.12,3.77-.34.18-.7.35-1.24.61.34-2,.63-3.75.94-5.54.2-1.21.4-2.43.64-3.64a1.48,1.48,0,0,0-.53-1.53c-2.11-2-4.17-4-6.25-6.06l-.33-.41,5-.75c1.43-.2,2.87-.42,4.3-.6a1.28,1.28,0,0,0,1.11-.81c1.21-2.53,2.47-5,3.72-7.55C123.42,424.33,123.57,424.08,123.77,423.7Zm0,5.62a39.23,39.23,0,0,0-1.84,3.77,3.21,3.21,0,0,1-3.32,2.38,30.17,30.17,0,0,0-3.83.55c1.28,1.36,2.51,2.7,3.79,4a1.25,1.25,0,0,1,.44,1.28c-.35,1.83-.63,3.67-1,5.66,1.68-.88,3.23-1.64,4.72-2.5a1.78,1.78,0,0,1,2,0c1.49.88,3.06,1.63,4.73,2.51-.26-1.51-.39-2.87-.75-4.16A3.16,3.16,0,0,1,130,439a30.79,30.79,0,0,0,3-2.95c-2-.29-3.79-.58-5.6-.8a1.23,1.23,0,0,1-1.11-.79C125.49,432.79,124.66,431.15,123.75,429.32Z"/><path class="cls-3" d="M120.09,618.64a17.35,17.35,0,0,1,11.6-1.76c.43-1.52.83-3,1.24-4.46.11-.39.19-.8.32-1.18a2.36,2.36,0,0,0-.58-2.93,5.22,5.22,0,0,1-.32-6.77,5.52,5.52,0,0,1,10,3.75,5.36,5.36,0,0,1-4.89,4.93,1.31,1.31,0,0,0-1.42,1.2c-.46,2-1,4-1.57,5.92,0,.09,0,.19,0,.37a17.18,17.18,0,0,1,8,6.55c.32-.18.6-.31.85-.47,3.43-2.11,6.84-4.24,10.29-6.31a1.31,1.31,0,0,0,.75-1.49,5.42,5.42,0,0,1,4.33-6,5.52,5.52,0,1,1-2.29,9.79,1.16,1.16,0,0,0-1-.16c-3.85,2.32-7.66,4.68-11.56,7.08a17,17,0,0,1-4.62,19.57l5.85,8.16,4.07-2.73c.32,4.25.63,8.36.95,12.64l-11.43-5.49,4.12-2.85-5.79-8.1a17.14,17.14,0,0,1-16.94.19l-7.88,9a6,6,0,0,1,.92,4.41,5.52,5.52,0,1,1-5.55-6.6,2.6,2.6,0,0,1,1.12.07c1.1.52,1.72,0,2.42-.79,2.16-2.58,4.41-5.08,6.66-7.66a17,17,0,0,1-6.25-13.29l-6.18-.58c-1.75-.15-3.51-.25-5.26-.46a1.05,1.05,0,0,0-1.33.74,5.42,5.42,0,0,1-6.68,2.95,5.52,5.52,0,1,1,6.88-7.2c.13.29.44.67.69.7,4,.39,8,.73,12.1,1.08a17.23,17.23,0,0,1,6.15-10.3L116,617.73c-2.07-2.89-4.16-5.77-6.19-8.68a1.47,1.47,0,0,0-1.61-.72,5.13,5.13,0,0,1-5.25-2.44,5.52,5.52,0,0,1,5.1-8.5,5.5,5.5,0,0,1,4,8.67,1,1,0,0,0,0,1.45c2.54,3.48,5,7,7.54,10.49C119.72,618.2,119.89,618.39,120.09,618.64Zm-6,14.71a14.12,14.12,0,1,0,14.14-14.07A14.19,14.19,0,0,0,114.11,633.35Zm42.82-17.88a2.84,2.84,0,0,0,2.78,2.76,2.89,2.89,0,0,0,2.81-2.85,2.84,2.84,0,0,0-2.81-2.73A2.76,2.76,0,0,0,156.93,615.47Zm-46.59,44.95a2.78,2.78,0,1,0-5.56,0,2.78,2.78,0,1,0,5.56,0Zm0-57.53a2.78,2.78,0,1,0-5.56,0,2.78,2.78,0,1,0,5.56,0Zm29.28,1.93a2.79,2.79,0,1,0-5.58-.09,2.78,2.78,0,0,0,2.69,2.82A2.81,2.81,0,0,0,139.62,604.82Zm-46,28.63a2.81,2.81,0,0,0,2.75-2.78,2.79,2.79,0,0,0-5.58,0A2.82,2.82,0,0,0,93.65,633.45Z"/><path class="cls-3" d="M155.6,666.35a5.51,5.51,0,1,1-.11,11,5.51,5.51,0,0,1,.11-11Zm0,2.74a2.77,2.77,0,1,0,0,5.53,2.77,2.77,0,1,0,0-5.53Z"/></svg>