<svg id="Layer_1" data-name="Layer 1" xmlns="http://www.w3.org/2000/svg" width="75" height="75" viewBox="0 0 75 75"><defs><style>.cls-1{fill:#fff;}</style></defs><title>best-in-class</title><path d="M62.09,52.58H12.91A6.08,6.08,0,0,1,6.83,46.5V12.08A6.09,6.09,0,0,1,12.91,6H62.09a6.09,6.09,0,0,1,6.08,6.08V46.51A6.08,6.08,0,0,1,62.09,52.58ZM12.91,8.33a3.75,3.75,0,0,0-3.75,3.75V46.51a3.75,3.75,0,0,0,3.75,3.75H62.09a3.75,3.75,0,0,0,3.75-3.75V12.08a3.75,3.75,0,0,0-3.75-3.75Z"/><rect x="34.97" y="33.69" width="2.32" height="17.24"/><path class="cls-1" d="M32.56,33.69a3.57,3.57,0,1,1,3.57,3.57A3.57,3.57,0,0,1,32.56,33.69Z"/><path d="M36.13,38.42a4.74,4.74,0,1,1,4.73-4.73A4.74,4.74,0,0,1,36.13,38.42Zm0-7.14a2.41,2.41,0,1,0,2.41,2.41A2.41,2.41,0,0,0,36.13,31.28Z"/><path d="M36.13,44.94H21.3a5.11,5.11,0,0,1-5.11-5.11V35h2.32v4.83a2.8,2.8,0,0,0,2.79,2.78H36.13v2.33Z"/><path d="M51,44.94H36.13V42.61H51a2.78,2.78,0,0,0,2.79-2.78V35h2.32v4.83A5.11,5.11,0,0,1,51,44.94Z"/><path class="cls-1" d="M13.78,33.69a3.58,3.58,0,1,1,3.57,3.57A3.58,3.58,0,0,1,13.78,33.69Z"/><path d="M17.35,38.42a4.74,4.74,0,1,1,4.74-4.73A4.73,4.73,0,0,1,17.35,38.42Zm0-7.14a2.41,2.41,0,1,0,2.42,2.41A2.41,2.41,0,0,0,17.35,31.28Z"/><path class="cls-1" d="M58.51,33.69a3.58,3.58,0,1,0-3.58,3.57A3.58,3.58,0,0,0,58.51,33.69Z"/><path d="M54.93,38.42a4.74,4.74,0,1,1,4.74-4.73A4.73,4.73,0,0,1,54.93,38.42Zm0-7.14a2.41,2.41,0,1,0,2.41,2.41A2.41,2.41,0,0,0,54.93,31.28Z"/><path d="M48.1,43.7H45.78V34a1.68,1.68,0,0,0-1.68-1.68,3.71,3.71,0,0,1-3.71-3.71v-6h2.32v6A1.39,1.39,0,0,0,44.1,30a4,4,0,0,1,4,4Z"/><path d="M48.1,38.6H45.78V28.79a4,4,0,0,1,4-4,1.39,1.39,0,0,0,1.39-1.39v-6h2.33v6a3.73,3.73,0,0,1-3.72,3.72,1.67,1.67,0,0,0-1.67,1.67V38.6Z"/><path class="cls-1" d="M44.7,22.6a3.58,3.58,0,1,0-3.58,3.57A3.58,3.58,0,0,0,44.7,22.6Z"/><path d="M41.12,27.33a4.73,4.73,0,1,1,4.74-4.73A4.73,4.73,0,0,1,41.12,27.33Zm0-7.14a2.41,2.41,0,1,0,2.41,2.41A2.41,2.41,0,0,0,41.12,20.19Z"/><path class="cls-1" d="M48.75,16.57a3.58,3.58,0,1,1,3.57,3.57A3.58,3.58,0,0,1,48.75,16.57Z"/><path d="M52.32,21.3a4.74,4.74,0,1,1,4.74-4.73A4.73,4.73,0,0,1,52.32,21.3Zm0-7.14a2.41,2.41,0,1,0,2.42,2.41A2.41,2.41,0,0,0,52.32,14.16Z"/><path d="M28.93,43.86H26.61V32.65A1.67,1.67,0,0,0,24.94,31a3.72,3.72,0,0,1-3.72-3.71v-6h2.33v6a1.39,1.39,0,0,0,1.39,1.39,4,4,0,0,1,4,4V43.86Z"/><path d="M28.93,37.26H26.61V27.45a4,4,0,0,1,4-4A1.39,1.39,0,0,0,32,22.06v-6h2.32v6a3.71,3.71,0,0,1-3.71,3.71,1.68,1.68,0,0,0-1.68,1.68Z"/><path class="cls-1" d="M25.53,21.26A3.57,3.57,0,1,0,22,24.83,3.57,3.57,0,0,0,25.53,21.26Z"/><path d="M22,26a4.74,4.74,0,1,1,4.73-4.73A4.74,4.74,0,0,1,22,26Zm0-7.14a2.41,2.41,0,1,0,2.41,2.41A2.41,2.41,0,0,0,22,18.85Z"/><path class="cls-1" d="M29.59,15.23a3.57,3.57,0,1,1,3.57,3.57A3.57,3.57,0,0,1,29.59,15.23Z"/><path d="M33.16,20a4.74,4.74,0,1,1,4.73-4.73A4.73,4.73,0,0,1,33.16,20Zm0-7.15a2.42,2.42,0,1,0,2.41,2.42A2.42,2.42,0,0,0,33.16,12.81Z"/><path d="M45.46,64.68H28.37V50.4H45.46ZM30.8,62.25H43V52.82H30.8Z"/><rect x="13.78" y="62.41" width="43.46" height="2.32"/><polygon points="51.95 58.14 61.34 63.57 51.95 69 51.95 58.14"/><polygon points="18.48 58.14 9.08 63.57 18.48 69 18.48 58.14"/></svg>