<svg id="Layer_1" data-name="Layer 1" xmlns="http://www.w3.org/2000/svg" viewBox="0 0 350.5 351"><defs><style>.cls-1{fill:#f16c51;}.cls-2{fill:#4c0519;}.cls-3{fill:#fff;}</style></defs><title>cloud</title><rect class="cls-1" x="93.5" y="173.5" width="162" height="3"/><rect class="cls-1" x="93.5" y="173.5" width="162" height="3" transform="translate(349.5 0.5) rotate(90)"/><rect class="cls-2" x="121.5" y="0.5" width="106" height="106" rx="53" ry="53"/><rect class="cls-2" x="121.5" y="244.5" width="106" height="106" rx="53" ry="53"/><rect class="cls-2" x="244" y="122" width="106" height="106" rx="53" ry="53"/><rect class="cls-2" x="0.5" y="122" width="106" height="106" rx="53" ry="53"/><path class="cls-3" d="M38.36,198.93c0-.92-.1-2-.09-3h0c-.23.86-.52,1.81-.84,2.7l-1,3.07h-1l-1-3c-.27-.91-.53-1.87-.71-2.75h0c0,.92-.08,2-.13,3l-.16,2.84H32.2l.48-7.07h1.7l.92,2.84c.25.83.47,1.67.65,2.46h0c.19-.77.43-1.64.71-2.47l1-2.83h1.68l.41,7.07H38.49Z"/><path class="cls-3" d="M43.89,201.81l-.08-.56h0a1.89,1.89,0,0,1-1.51.68,1.51,1.51,0,0,1-1.6-1.52c0-1.29,1.14-1.95,3-1.93v-.09c0-.33-.14-.89-1-.89a2.69,2.69,0,0,0-1.37.38L41,197a3.7,3.7,0,0,1,1.85-.45A1.91,1.91,0,0,1,45,198.74v1.85a8.45,8.45,0,0,0,.07,1.22Zm-.17-2.49c-.91,0-1.78.17-1.78,1a.68.68,0,0,0,.73.74,1,1,0,0,0,1-.71,1,1,0,0,0,0-.28Z"/><path class="cls-3" d="M46.35,198.22c0-.58,0-1.08,0-1.52h1.13l.06.77h0a1.85,1.85,0,0,1,1.63-.88c.89,0,1.82.57,1.82,2.19v3H49.69v-2.88c0-.74-.28-1.29-1-1.29a1.09,1.09,0,0,0-1,.75,1.38,1.38,0,0,0-.05.42v3h-1.3Z"/><path class="cls-3" d="M55.23,201.81l-.08-.56h0a1.89,1.89,0,0,1-1.51.68,1.51,1.51,0,0,1-1.6-1.52c0-1.29,1.14-1.95,3-1.93v-.09c0-.33-.14-.89-1-.89a2.69,2.69,0,0,0-1.37.38l-.26-.84a3.7,3.7,0,0,1,1.85-.45,1.91,1.91,0,0,1,2.11,2.15v1.85a7.11,7.11,0,0,0,.08,1.22Zm-.17-2.49c-.91,0-1.78.17-1.78,1A.68.68,0,0,0,54,201a1,1,0,0,0,1-.71,1,1,0,0,0,0-.28Z"/><path class="cls-3" d="M62.36,196.7c0,.35,0,.77,0,1.47v2.9A2.47,2.47,0,0,1,59.59,204a3.67,3.67,0,0,1-1.79-.41l.29-1a3.05,3.05,0,0,0,1.49.39,1.36,1.36,0,0,0,1.47-1.54V201h0a1.73,1.73,0,0,1-1.49.75,2.27,2.27,0,0,1-2.18-2.5,2.44,2.44,0,0,1,2.32-2.69,1.6,1.6,0,0,1,1.48.79h0l.06-.68ZM61,198.75a1,1,0,0,0-.05-.35,1.07,1.07,0,0,0-1-.83c-.72,0-1.26.63-1.26,1.67,0,.87.45,1.58,1.25,1.58a1.1,1.1,0,0,0,1-.78,2.42,2.42,0,0,0,.06-.46Z"/><path class="cls-3" d="M64.62,199.62a1.38,1.38,0,0,0,1.57,1.32,3.8,3.8,0,0,0,1.42-.23l.19.89a4.78,4.78,0,0,1-1.79.32,2.41,2.41,0,0,1-2.63-2.58,2.53,2.53,0,0,1,2.5-2.75,2.21,2.21,0,0,1,2.2,2.48,3.35,3.35,0,0,1,0,.55Zm2.24-.9a1.1,1.1,0,0,0-1.06-1.25,1.26,1.26,0,0,0-1.18,1.25Z"/><path class="cls-3" d="M73.84,194.36v6c0,.52,0,1.09,0,1.43H72.72l0-.8h0a1.85,1.85,0,0,1-1.67.92,2.34,2.34,0,0,1-2.18-2.61,2.43,2.43,0,0,1,2.28-2.73,1.62,1.62,0,0,1,1.44.67h0v-2.9Zm-1.3,4.47a1.84,1.84,0,0,0,0-.33,1.12,1.12,0,0,0-1.11-.92c-.83,0-1.29.74-1.29,1.69s.46,1.62,1.28,1.62A1.14,1.14,0,0,0,72.5,200a1.53,1.53,0,0,0,0-.38Z"/><path class="cls-3" d="M35.68,211.63A2.85,2.85,0,0,0,37,212c.57,0,.82-.24.82-.57s-.21-.53-.84-.75c-1-.34-1.42-.89-1.41-1.49,0-.9.75-1.6,1.94-1.6a3,3,0,0,1,1.35.3l-.25.91a2.37,2.37,0,0,0-1.08-.29c-.47,0-.72.22-.72.53s.24.49.9.72c.92.33,1.35.81,1.36,1.56,0,.93-.72,1.6-2.08,1.6a3.28,3.28,0,0,1-1.55-.36Z"/><path class="cls-3" d="M41,210.62a1.4,1.4,0,0,0,1.58,1.32,3.8,3.8,0,0,0,1.42-.23l.18.89a4.72,4.72,0,0,1-1.78.32,2.41,2.41,0,0,1-2.63-2.58,2.53,2.53,0,0,1,2.49-2.75,2.22,2.22,0,0,1,2.21,2.48,3.35,3.35,0,0,1,0,.55Zm2.25-.9a1.1,1.1,0,0,0-1.06-1.25A1.27,1.27,0,0,0,41,209.72Z"/><path class="cls-3" d="M45.54,209.35c0-.69,0-1.19,0-1.65h1.12l0,1h0a1.52,1.52,0,0,1,1.4-1.09,1.48,1.48,0,0,1,.31,0v1.21a2,2,0,0,0-.38,0,1.15,1.15,0,0,0-1.16,1,2.25,2.25,0,0,0,0,.4v2.64H45.54Z"/><path class="cls-3" d="M50.1,207.7l.82,2.59a12.55,12.55,0,0,1,.35,1.29h0c.1-.42.21-.82.35-1.29l.81-2.59h1.36l-2,5.11H50.6l-1.9-5.11Z"/><path class="cls-3" d="M56,206.27a.69.69,0,0,1-.74.7.68.68,0,0,1-.71-.7.69.69,0,0,1,.72-.7A.7.7,0,0,1,56,206.27Zm-1.38,6.54V207.7h1.3v5.11Z"/><path class="cls-3" d="M61.06,212.66a3.9,3.9,0,0,1-1.45.26,2.46,2.46,0,0,1-2.64-2.6,2.64,2.64,0,0,1,2.85-2.73,3.2,3.2,0,0,1,1.25.24l-.23,1a2.37,2.37,0,0,0-1-.2,1.66,1.66,0,0,0,0,3.31,2.45,2.45,0,0,0,1-.2Z"/><path class="cls-3" d="M62.93,210.62a1.38,1.38,0,0,0,1.57,1.32,3.8,3.8,0,0,0,1.42-.23l.19.89a4.78,4.78,0,0,1-1.79.32,2.41,2.41,0,0,1-2.63-2.58,2.53,2.53,0,0,1,2.5-2.75,2.22,2.22,0,0,1,2.2,2.48,3.35,3.35,0,0,1,0,.55Zm2.24-.9a1.1,1.1,0,0,0-1.06-1.25,1.25,1.25,0,0,0-1.18,1.25Z"/><path class="cls-3" d="M67.37,211.63a2.85,2.85,0,0,0,1.31.37c.57,0,.82-.24.82-.57s-.21-.53-.84-.75c-1-.34-1.42-.89-1.41-1.49a1.71,1.71,0,0,1,1.93-1.6,3,3,0,0,1,1.36.3l-.25.91a2.37,2.37,0,0,0-1.08-.29c-.47,0-.72.22-.72.53s.24.49.89.72c.93.33,1.36.81,1.37,1.56,0,.93-.73,1.6-2.08,1.6a3.25,3.25,0,0,1-1.55-.36Z"/><path class="cls-3" d="M143.67,315.49a7,7,0,0,1-2.28.4,3.8,3.8,0,0,1-2.77-.95,3.5,3.5,0,0,1-1-2.6c0-2.24,1.6-3.67,3.94-3.67a4.7,4.7,0,0,1,1.88.33l-.29,1a3.78,3.78,0,0,0-1.6-.3,2.37,2.37,0,0,0-2.58,2.54,2.34,2.34,0,0,0,2.46,2.56,2.57,2.57,0,0,0,1-.15v-1.76h-1.25v-1h2.5Z"/><path class="cls-3" d="M149.8,313.21a2.53,2.53,0,0,1-2.63,2.72,2.48,2.48,0,0,1-2.56-2.64,2.52,2.52,0,0,1,2.65-2.7A2.45,2.45,0,0,1,149.8,313.21Zm-3.85.05c0,1,.48,1.74,1.27,1.74s1.24-.73,1.24-1.76c0-.8-.35-1.71-1.23-1.71S146,312.41,146,313.26Z"/><path class="cls-3" d="M151.68,310.7l.83,2.59a12.4,12.4,0,0,1,.34,1.29h0c.09-.42.21-.82.34-1.29l.81-2.59h1.37l-2,5.11h-1.27l-1.9-5.11Z"/><path class="cls-3" d="M157.11,313.62a1.38,1.38,0,0,0,1.57,1.32,3.8,3.8,0,0,0,1.42-.23l.19.89a4.78,4.78,0,0,1-1.79.32,2.41,2.41,0,0,1-2.63-2.58,2.53,2.53,0,0,1,2.5-2.75,2.21,2.21,0,0,1,2.2,2.48,3.35,3.35,0,0,1,0,.55Zm2.24-.9a1.1,1.1,0,0,0-1.06-1.25,1.26,1.26,0,0,0-1.18,1.25Z"/><path class="cls-3" d="M161.61,312.35c0-.69,0-1.19,0-1.65h1.12l.05,1h0a1.51,1.51,0,0,1,1.39-1.09,1.48,1.48,0,0,1,.31,0v1.21a1.92,1.92,0,0,0-.38,0,1.13,1.13,0,0,0-1.15,1,1.56,1.56,0,0,0,0,.4v2.64h-1.29Z"/><path class="cls-3" d="M165.35,312.22c0-.58,0-1.08,0-1.52h1.13l.06.77h0a1.83,1.83,0,0,1,1.62-.88c.9,0,1.82.57,1.82,2.19v3h-1.29v-2.88c0-.74-.27-1.29-1-1.29a1.09,1.09,0,0,0-1,.75,1.38,1.38,0,0,0,0,.42v3h-1.3Z"/><path class="cls-3" d="M174.23,315.81l-.08-.56h0a1.91,1.91,0,0,1-1.52.68,1.52,1.52,0,0,1-1.6-1.52c0-1.29,1.14-2,3-1.93v-.09c0-.33-.13-.89-1-.89a2.69,2.69,0,0,0-1.37.38l-.25-.84a3.66,3.66,0,0,1,1.84-.45,1.91,1.91,0,0,1,2.11,2.15v1.85a7.11,7.11,0,0,0,.08,1.22Zm-.17-2.49c-.91,0-1.78.17-1.78.95a.68.68,0,0,0,.73.74,1,1,0,0,0,1-.71,1,1,0,0,0,0-.28Z"/><path class="cls-3" d="M176.69,312.22c0-.58,0-1.08,0-1.52h1.13l.06.77h0a1.83,1.83,0,0,1,1.62-.88c.9,0,1.82.57,1.82,2.19v3H180v-2.88c0-.74-.28-1.29-1-1.29a1.09,1.09,0,0,0-1,.75,1.38,1.38,0,0,0,0,.42v3h-1.3Z"/><path class="cls-3" d="M186.45,315.66a3.82,3.82,0,0,1-1.45.26,2.45,2.45,0,0,1-2.63-2.6,2.64,2.64,0,0,1,2.84-2.73,3.12,3.12,0,0,1,1.25.24l-.23,1a2.32,2.32,0,0,0-1-.2,1.66,1.66,0,0,0,0,3.31,2.48,2.48,0,0,0,1-.2Z"/><path class="cls-3" d="M188.32,313.62a1.39,1.39,0,0,0,1.58,1.32,3.71,3.71,0,0,0,1.41-.23l.19.89a4.76,4.76,0,0,1-1.78.32,2.42,2.42,0,0,1-2.64-2.58,2.54,2.54,0,0,1,2.5-2.75,2.22,2.22,0,0,1,2.21,2.48,3.35,3.35,0,0,1,0,.55Zm2.25-.9a1.1,1.1,0,0,0-1.06-1.25,1.27,1.27,0,0,0-1.19,1.25Z"/><path class="cls-3" d="M197.88,315.81l-.09-.56h0a1.89,1.89,0,0,1-1.51.68,1.52,1.52,0,0,1-1.61-1.52c0-1.29,1.15-2,3-1.93v-.09c0-.33-.14-.89-1-.89a2.72,2.72,0,0,0-1.38.38L195,311a3.7,3.7,0,0,1,1.85-.45,1.91,1.91,0,0,1,2.11,2.15v1.85a8.45,8.45,0,0,0,.07,1.22Zm-.17-2.49c-.91,0-1.79.17-1.79.95a.69.69,0,0,0,.74.74,1.06,1.06,0,0,0,1-.71,1,1,0,0,0,0-.28Z"/><path class="cls-3" d="M200.33,312.22c0-.58,0-1.08,0-1.52h1.14l.06.77h0a1.85,1.85,0,0,1,1.63-.88c.89,0,1.81.57,1.81,2.19v3h-1.29v-2.88c0-.74-.27-1.29-1-1.29a1.08,1.08,0,0,0-1,.75,1.38,1.38,0,0,0-.05.42v3h-1.31Z"/><path class="cls-3" d="M211.05,308.36v6c0,.52,0,1.09,0,1.43h-1.16l-.05-.8h0a1.86,1.86,0,0,1-1.67.92,2.34,2.34,0,0,1-2.18-2.61,2.42,2.42,0,0,1,2.28-2.73,1.62,1.62,0,0,1,1.44.67h0v-2.9Zm-1.29,4.47a1.84,1.84,0,0,0,0-.33,1.12,1.12,0,0,0-1.11-.92c-.83,0-1.29.74-1.29,1.69s.46,1.62,1.28,1.62a1.14,1.14,0,0,0,1.11-.91,1.53,1.53,0,0,0,0-.38Z"/><path class="cls-3" d="M141.19,319.36v6c0,.52,0,1.09.05,1.43h-1.16L140,326h0a1.86,1.86,0,0,1-1.67.92,2.34,2.34,0,0,1-2.19-2.61,2.43,2.43,0,0,1,2.29-2.73,1.62,1.62,0,0,1,1.44.67h0v-2.9Zm-1.29,4.47a1.84,1.84,0,0,0,0-.33,1.12,1.12,0,0,0-1.11-.92c-.83,0-1.29.74-1.29,1.69s.46,1.62,1.28,1.62a1.15,1.15,0,0,0,1.11-.91,1.53,1.53,0,0,0,0-.38Z"/><path class="cls-3" d="M144,320.27a.69.69,0,0,1-.74.7.68.68,0,0,1-.71-.7.69.69,0,0,1,.72-.7A.7.7,0,0,1,144,320.27Zm-1.38,6.54V321.7h1.3v5.11Z"/><path class="cls-3" d="M145.21,325.63a2.85,2.85,0,0,0,1.31.37c.56,0,.82-.24.82-.57s-.21-.53-.84-.75c-1-.34-1.42-.89-1.41-1.49a1.71,1.71,0,0,1,1.93-1.6,3,3,0,0,1,1.36.3l-.26.91a2.37,2.37,0,0,0-1.08-.29c-.46,0-.71.22-.71.53s.24.49.89.72c.92.33,1.36.81,1.37,1.56,0,.93-.73,1.6-2.08,1.6a3.33,3.33,0,0,1-1.56-.36Z"/><path class="cls-3" d="M152.52,326.81l-.08-.56h0a1.9,1.9,0,0,1-1.51.68,1.52,1.52,0,0,1-1.61-1.52c0-1.29,1.14-2,3-1.93v-.09c0-.33-.13-.89-1-.89a2.72,2.72,0,0,0-1.38.38l-.25-.84a3.69,3.69,0,0,1,1.84-.45,1.92,1.92,0,0,1,2.12,2.15v1.85a8.45,8.45,0,0,0,.07,1.22Zm-.16-2.49c-.92,0-1.79.17-1.79.95a.69.69,0,0,0,.74.74,1,1,0,0,0,1-.71,1,1,0,0,0,.05-.28Z"/><path class="cls-3" d="M154.92,325.63a2.85,2.85,0,0,0,1.31.37c.57,0,.82-.24.82-.57s-.21-.53-.84-.75c-1-.34-1.42-.89-1.41-1.49a1.71,1.71,0,0,1,1.93-1.6,3,3,0,0,1,1.36.3l-.25.91a2.38,2.38,0,0,0-1.09-.29c-.46,0-.71.22-.71.53s.24.49.89.72c.93.33,1.36.81,1.37,1.56,0,.93-.73,1.6-2.08,1.6a3.25,3.25,0,0,1-1.55-.36Z"/><path class="cls-3" d="M160.84,320.24v1.46h1.23v1h-1.23v2.25c0,.62.17.95.66.95a1.93,1.93,0,0,0,.5-.06l0,1a2.69,2.69,0,0,1-.94.13,1.5,1.5,0,0,1-1.11-.42,2.05,2.05,0,0,1-.4-1.43v-2.4h-.74v-1h.74v-1.15Z"/><path class="cls-3" d="M164,324.62a1.38,1.38,0,0,0,1.57,1.32,3.8,3.8,0,0,0,1.42-.23l.19.89a4.78,4.78,0,0,1-1.79.32,2.42,2.42,0,0,1-2.63-2.58,2.53,2.53,0,0,1,2.5-2.75,2.21,2.21,0,0,1,2.2,2.48,3.35,3.35,0,0,1,0,.55Zm2.25-.9a1.1,1.1,0,0,0-1.07-1.25,1.26,1.26,0,0,0-1.18,1.25Z"/><path class="cls-3" d="M168.46,323.35c0-.69,0-1.19,0-1.65h1.12l.05,1h0a1.51,1.51,0,0,1,1.39-1.09,1.48,1.48,0,0,1,.31,0v1.21a1.92,1.92,0,0,0-.38,0,1.13,1.13,0,0,0-1.15,1,2.18,2.18,0,0,0-.05.4v2.64h-1.29Z"/><path class="cls-3" d="M174.37,323.35c0-.69,0-1.19,0-1.65h1.13l0,1h0a1.51,1.51,0,0,1,1.4-1.09,1.45,1.45,0,0,1,.3,0v1.21a1.92,1.92,0,0,0-.38,0,1.13,1.13,0,0,0-1.15,1,2.25,2.25,0,0,0,0,.4v2.64h-1.3Z"/><path class="cls-3" d="M179,324.62a1.38,1.38,0,0,0,1.57,1.32,3.8,3.8,0,0,0,1.42-.23l.19.89a4.78,4.78,0,0,1-1.79.32,2.41,2.41,0,0,1-2.63-2.58,2.53,2.53,0,0,1,2.5-2.75,2.22,2.22,0,0,1,2.2,2.48,3.35,3.35,0,0,1,0,.55Zm2.24-.9a1.1,1.1,0,0,0-1.06-1.25,1.25,1.25,0,0,0-1.18,1.25Z"/><path class="cls-3" d="M187.29,326.66a3.86,3.86,0,0,1-1.45.26,2.46,2.46,0,0,1-2.64-2.6,2.64,2.64,0,0,1,2.85-2.73,3.2,3.2,0,0,1,1.25.24l-.23,1a2.37,2.37,0,0,0-1-.2,1.66,1.66,0,0,0,0,3.31,2.45,2.45,0,0,0,1-.2Z"/><path class="cls-3" d="M193.1,324.21a2.53,2.53,0,0,1-2.62,2.72,2.47,2.47,0,0,1-2.56-2.64,2.52,2.52,0,0,1,2.64-2.7A2.45,2.45,0,0,1,193.1,324.21Zm-3.85.05c0,1,.48,1.74,1.27,1.74s1.25-.73,1.25-1.76c0-.8-.36-1.71-1.24-1.71S189.25,323.41,189.25,324.26Z"/><path class="cls-3" d="M195,321.7l.83,2.59a12.55,12.55,0,0,1,.35,1.29h0c.1-.42.21-.82.35-1.29l.81-2.59h1.36l-2,5.11h-1.27l-1.9-5.11Z"/><path class="cls-3" d="M200.41,324.62a1.4,1.4,0,0,0,1.58,1.32,3.8,3.8,0,0,0,1.42-.23l.18.89a4.76,4.76,0,0,1-1.78.32,2.42,2.42,0,0,1-2.64-2.58,2.54,2.54,0,0,1,2.5-2.75,2.22,2.22,0,0,1,2.21,2.48,3.35,3.35,0,0,1,0,.55Zm2.25-.9a1.1,1.1,0,0,0-1.06-1.25,1.27,1.27,0,0,0-1.19,1.25Z"/><path class="cls-3" d="M204.92,323.35c0-.69,0-1.19,0-1.65H206l0,1h0a1.51,1.51,0,0,1,1.4-1.09,1.32,1.32,0,0,1,.3,0v1.21a1.82,1.82,0,0,0-.37,0,1.15,1.15,0,0,0-1.16,1,2.25,2.25,0,0,0,0,.4v2.64h-1.29Z"/><path class="cls-3" d="M209.46,321.7l.93,2.74c.1.32.21.7.28,1h0c.09-.3.18-.67.28-1l.79-2.73h1.39l-1.28,3.49c-.7,1.91-1.18,2.76-1.79,3.28a2.55,2.55,0,0,1-1.35.66l-.29-1.09a2.27,2.27,0,0,0,.75-.35,2.38,2.38,0,0,0,.71-.81.57.57,0,0,0,.08-.23.58.58,0,0,0-.07-.26l-1.87-4.69Z"/><path class="cls-3" d="M275.9,201.6a4.45,4.45,0,0,1-1.83.32,3.34,3.34,0,0,1-3.61-3.56,3.56,3.56,0,0,1,3.78-3.74,4,4,0,0,1,1.72.32l-.28,1a3.41,3.41,0,0,0-1.39-.28,2.36,2.36,0,0,0-2.47,2.61,2.32,2.32,0,0,0,2.46,2.55,3.77,3.77,0,0,0,1.41-.26Z"/><path class="cls-3" d="M281.81,199.21a2.53,2.53,0,0,1-2.62,2.72,2.47,2.47,0,0,1-2.56-2.64,2.52,2.52,0,0,1,2.64-2.7A2.45,2.45,0,0,1,281.81,199.21Zm-3.85,0c0,1,.48,1.74,1.27,1.74s1.25-.73,1.25-1.76c0-.8-.36-1.71-1.24-1.71S278,198.41,278,199.26Z"/><path class="cls-3" d="M282.87,198.22c0-.58,0-1.08,0-1.52h1.11l.06.76h0a1.76,1.76,0,0,1,1.57-.87,1.47,1.47,0,0,1,1.42.94h0a2,2,0,0,1,.63-.64,1.7,1.7,0,0,1,1-.3c.85,0,1.71.57,1.71,2.21v3h-1.26V199c0-.85-.29-1.35-.91-1.35a1,1,0,0,0-.91.68,1.86,1.86,0,0,0-.06.43v3.06H286v-3c0-.71-.28-1.21-.88-1.21a1.17,1.17,0,0,0-1,1.15v3h-1.26Z"/><path class="cls-3" d="M291.78,198.4c0-.67,0-1.22,0-1.7h1.14l.06.79h0a2,2,0,0,1,1.76-.9,2.32,2.32,0,0,1,2.15,2.6,2.43,2.43,0,0,1-2.33,2.74,1.68,1.68,0,0,1-1.44-.68h0v2.64h-1.29Zm1.29,1.27a1.42,1.42,0,0,0,0,.36,1.17,1.17,0,0,0,1.13.9c.82,0,1.3-.68,1.3-1.69s-.44-1.64-1.27-1.64a1.21,1.21,0,0,0-1.15,1,1.19,1.19,0,0,0-.05.32Z"/><path class="cls-3" d="M297.92,194.36h1.3v7.45h-1.3Z"/><path class="cls-3" d="M302,195.27a.73.73,0,0,1-1.45,0,.7.7,0,0,1,.73-.7A.69.69,0,0,1,302,195.27Zm-1.37,6.54V196.7h1.3v5.11Z"/><path class="cls-3" d="M306.18,201.81l-.08-.56h0a1.92,1.92,0,0,1-1.52.68,1.52,1.52,0,0,1-1.6-1.52c0-1.29,1.14-1.95,3-1.93v-.09c0-.33-.14-.89-1-.89a2.69,2.69,0,0,0-1.37.38l-.26-.84a3.7,3.7,0,0,1,1.85-.45,1.91,1.91,0,0,1,2.11,2.15v1.85a7.11,7.11,0,0,0,.08,1.22Zm-.17-2.49c-.91,0-1.78.17-1.78,1a.68.68,0,0,0,.73.74,1,1,0,0,0,1-.71,1,1,0,0,0,0-.28Z"/><path class="cls-3" d="M308.64,198.22c0-.58,0-1.08,0-1.52h1.13l.06.77h0a1.85,1.85,0,0,1,1.63-.88c.89,0,1.82.57,1.82,2.19v3H312v-2.88c0-.74-.28-1.29-1-1.29a1.09,1.09,0,0,0-1,.75,1.38,1.38,0,0,0-.05.42v3h-1.3Z"/><path class="cls-3" d="M318.4,201.66a3.86,3.86,0,0,1-1.45.26,2.45,2.45,0,0,1-2.63-2.6,2.64,2.64,0,0,1,2.84-2.73,3.12,3.12,0,0,1,1.25.24l-.23,1a2.32,2.32,0,0,0-1-.2,1.66,1.66,0,0,0,0,3.31,2.4,2.4,0,0,0,1-.2Z"/><path class="cls-3" d="M320.27,199.62a1.39,1.39,0,0,0,1.58,1.32,3.71,3.71,0,0,0,1.41-.23l.19.89a4.76,4.76,0,0,1-1.78.32,2.42,2.42,0,0,1-2.64-2.58,2.53,2.53,0,0,1,2.5-2.75,2.22,2.22,0,0,1,2.21,2.48,3.12,3.12,0,0,1-.05.55Zm2.25-.9a1.1,1.1,0,0,0-1.06-1.25,1.26,1.26,0,0,0-1.19,1.25Z"/><path class="cls-3" d="M272.92,212.81l-.08-.56h0a1.91,1.91,0,0,1-1.52.68,1.52,1.52,0,0,1-1.6-1.52c0-1.29,1.14-1.95,3-1.93v-.09c0-.33-.13-.89-1-.89a2.71,2.71,0,0,0-1.37.38l-.25-.84a3.66,3.66,0,0,1,1.84-.45,1.91,1.91,0,0,1,2.11,2.15v1.85a8.29,8.29,0,0,0,.08,1.22Zm-.17-2.49c-.91,0-1.78.17-1.78,1a.68.68,0,0,0,.74.74,1,1,0,0,0,1-.71,1,1,0,0,0,0-.28Z"/><path class="cls-3" d="M275.38,209.22c0-.58,0-1.08,0-1.52h1.13l.07.77h0a1.83,1.83,0,0,1,1.62-.88c.9,0,1.82.57,1.82,2.19v3h-1.29v-2.88c0-.74-.27-1.29-1-1.29a1.09,1.09,0,0,0-1,.75,1.38,1.38,0,0,0-.05.42v3h-1.3Z"/><path class="cls-3" d="M286.1,205.36v6c0,.52,0,1.09,0,1.43H285l-.06-.8h0a1.84,1.84,0,0,1-1.67.92,2.34,2.34,0,0,1-2.18-2.61,2.43,2.43,0,0,1,2.29-2.73,1.63,1.63,0,0,1,1.44.67h0v-2.9Zm-1.29,4.47a1.84,1.84,0,0,0,0-.33,1.14,1.14,0,0,0-1.12-.92c-.83,0-1.29.74-1.29,1.69s.46,1.62,1.28,1.62a1.15,1.15,0,0,0,1.12-.91,1.53,1.53,0,0,0,0-.38Z"/><path class="cls-3" d="M289.6,211.63a2.85,2.85,0,0,0,1.31.37c.57,0,.82-.24.82-.57s-.21-.53-.84-.75c-1-.34-1.42-.89-1.41-1.49a1.71,1.71,0,0,1,1.93-1.6,3,3,0,0,1,1.36.3l-.25.91a2.46,2.46,0,0,0-1.09-.29c-.46,0-.71.22-.71.53s.24.49.89.72c.93.33,1.36.81,1.37,1.56,0,.93-.73,1.6-2.08,1.6a3.33,3.33,0,0,1-1.56-.36Z"/><path class="cls-3" d="M295,210.62a1.39,1.39,0,0,0,1.58,1.32,3.74,3.74,0,0,0,1.41-.23l.19.89a4.76,4.76,0,0,1-1.78.32,2.42,2.42,0,0,1-2.64-2.58,2.53,2.53,0,0,1,2.5-2.75,2.22,2.22,0,0,1,2.21,2.48,3.12,3.12,0,0,1-.05.55Zm2.25-.9a1.1,1.1,0,0,0-1.06-1.25,1.26,1.26,0,0,0-1.19,1.25Z"/><path class="cls-3" d="M303.21,212.66a3.8,3.8,0,0,1-1.44.26,2.46,2.46,0,0,1-2.64-2.6,2.64,2.64,0,0,1,2.85-2.73,3.11,3.11,0,0,1,1.24.24l-.23,1a2.32,2.32,0,0,0-1-.2,1.66,1.66,0,0,0,0,3.31,2.48,2.48,0,0,0,1-.2Z"/><path class="cls-3" d="M308.75,211.28c0,.61,0,1.11,0,1.53h-1.13l-.07-.77h0a1.86,1.86,0,0,1-1.64.89c-.93,0-1.78-.56-1.78-2.23v-3h1.29v2.78c0,.85.27,1.4,1,1.4a1.08,1.08,0,0,0,1-.69,1.29,1.29,0,0,0,.08-.4V207.7h1.29Z"/><path class="cls-3" d="M310.14,209.35c0-.69,0-1.19,0-1.65h1.13l0,1h0a1.51,1.51,0,0,1,1.4-1.09,1.39,1.39,0,0,1,.3,0v1.21a1.84,1.84,0,0,0-.38,0,1.13,1.13,0,0,0-1.15,1,2.25,2.25,0,0,0,0,.4v2.64h-1.3Z"/><path class="cls-3" d="M315.26,206.27a.69.69,0,0,1-.74.7.68.68,0,0,1-.71-.7.69.69,0,0,1,.72-.7A.7.7,0,0,1,315.26,206.27Zm-1.38,6.54V207.7h1.3v5.11Z"/><path class="cls-3" d="M318.05,206.24v1.46h1.23v1h-1.23v2.25c0,.62.17,1,.66,1a2.09,2.09,0,0,0,.51-.06l0,1a2.69,2.69,0,0,1-.94.13,1.5,1.5,0,0,1-1.11-.42,2.05,2.05,0,0,1-.4-1.43v-2.4h-.73v-1h.73v-1.15Z"/><path class="cls-3" d="M321.06,207.7l.93,2.74c.1.32.21.7.28,1h0c.09-.3.18-.67.28-1l.79-2.73h1.39l-1.28,3.49c-.7,1.91-1.18,2.76-1.79,3.28a2.55,2.55,0,0,1-1.35.66l-.29-1.09a2.27,2.27,0,0,0,.75-.35,2.38,2.38,0,0,0,.71-.81.57.57,0,0,0,.08-.23.58.58,0,0,0-.07-.26l-1.87-4.69Z"/><path class="cls-3" d="M149,70.93c0-.92-.09-2-.08-3h0c-.24.86-.53,1.81-.84,2.7l-1,3.07h-1l-.94-3c-.28-.91-.53-1.87-.72-2.75h0c0,.92-.07,2-.13,3l-.15,2.84h-1.21l.47-7.07h1.7l.93,2.84c.25.83.47,1.67.65,2.46h0c.19-.77.43-1.64.7-2.47l1-2.83H150l.41,7.07h-1.26Z"/><path class="cls-3" d="M153.06,67.27a.72.72,0,1,1-.72-.7A.69.69,0,0,1,153.06,67.27Zm-1.37,6.54V68.7H153v5.11Z"/><path class="cls-3" d="M159.05,68.7c0,.35,0,.77,0,1.47v2.9A2.47,2.47,0,0,1,156.28,76a3.67,3.67,0,0,1-1.79-.41l.29-1a3.05,3.05,0,0,0,1.49.39,1.36,1.36,0,0,0,1.47-1.54V73h0a1.71,1.71,0,0,1-1.49.75,2.27,2.27,0,0,1-2.17-2.5,2.44,2.44,0,0,1,2.32-2.69,1.6,1.6,0,0,1,1.48.79h0l0-.68Zm-1.34,2a1,1,0,0,0,0-.35,1.07,1.07,0,0,0-1-.83c-.72,0-1.26.63-1.26,1.67,0,.87.44,1.58,1.25,1.58a1.1,1.1,0,0,0,1-.78,2.4,2.4,0,0,0,.05-.46Z"/><path class="cls-3" d="M160.39,70.35c0-.69,0-1.19,0-1.65h1.12l.05,1h0a1.51,1.51,0,0,1,1.4-1.09,1.45,1.45,0,0,1,.3,0v1.21a1.92,1.92,0,0,0-.38,0,1.13,1.13,0,0,0-1.15,1,2.18,2.18,0,0,0,0,.4v2.64h-1.29Z"/><path class="cls-3" d="M167,73.81l-.09-.56h0a1.89,1.89,0,0,1-1.51.68,1.52,1.52,0,0,1-1.61-1.52c0-1.29,1.15-2,3-1.93v-.09c0-.33-.14-.89-1-.89a2.72,2.72,0,0,0-1.38.38l-.25-.84a3.7,3.7,0,0,1,1.85-.45,1.91,1.91,0,0,1,2.11,2.15v1.85a8.45,8.45,0,0,0,.07,1.22Zm-.17-2.49c-.91,0-1.79.17-1.79,1a.69.69,0,0,0,.74.74,1.06,1.06,0,0,0,1-.71,1,1,0,0,0,0-.28Z"/><path class="cls-3" d="M171,67.24V68.7h1.22v1H171v2.25c0,.62.16,1,.66,1a1.93,1.93,0,0,0,.5-.06l0,1a2.63,2.63,0,0,1-.93.13,1.52,1.52,0,0,1-1.12-.42,2.06,2.06,0,0,1-.39-1.43v-2.4H169v-1h.74V67.55Z"/><path class="cls-3" d="M174.53,67.27a.69.69,0,0,1-.74.7.68.68,0,0,1-.71-.7.69.69,0,0,1,.72-.7A.7.7,0,0,1,174.53,67.27Zm-1.38,6.54V68.7h1.3v5.11Z"/><path class="cls-3" d="M180.7,71.21a2.53,2.53,0,0,1-2.63,2.72,2.48,2.48,0,0,1-2.56-2.64,2.53,2.53,0,0,1,2.65-2.7A2.45,2.45,0,0,1,180.7,71.21Zm-3.85.05c0,1,.48,1.74,1.27,1.74s1.25-.73,1.25-1.76c0-.8-.36-1.71-1.24-1.71S176.85,70.41,176.85,71.26Z"/><path class="cls-3" d="M181.76,70.22c0-.58,0-1.08,0-1.52h1.13l.07.77h0a1.83,1.83,0,0,1,1.62-.88c.9,0,1.82.57,1.82,2.19v3H185.1V70.93c0-.74-.27-1.29-1-1.29a1.06,1.06,0,0,0-1,.75,1.12,1.12,0,0,0-.06.42v3h-1.3Z"/><path class="cls-3" d="M192.82,73.81l-.09-.56h0a1.89,1.89,0,0,1-1.51.68,1.52,1.52,0,0,1-1.61-1.52c0-1.29,1.15-2,3-1.93v-.09c0-.33-.14-.89-1-.89a2.72,2.72,0,0,0-1.38.38L190,69a3.7,3.7,0,0,1,1.85-.45,1.91,1.91,0,0,1,2.11,2.15v1.85a8.45,8.45,0,0,0,.07,1.22Zm-.17-2.49c-.92,0-1.79.17-1.79,1a.69.69,0,0,0,.74.74,1.06,1.06,0,0,0,1-.71,1,1,0,0,0,0-.28Z"/><path class="cls-3" d="M195.27,70.22c0-.58,0-1.08,0-1.52h1.14l.06.77h0a1.85,1.85,0,0,1,1.63-.88c.89,0,1.81.57,1.81,2.19v3h-1.29V70.93c0-.74-.27-1.29-1-1.29a1.07,1.07,0,0,0-1,.75,1.38,1.38,0,0,0,0,.42v3h-1.31Z"/><path class="cls-3" d="M206,66.36v6c0,.52,0,1.09,0,1.43h-1.16l0-.8h0a1.86,1.86,0,0,1-1.67.92A2.34,2.34,0,0,1,201,71.32a2.43,2.43,0,0,1,2.29-2.73,1.62,1.62,0,0,1,1.44.67h0v-2.9Zm-1.29,4.47a1.84,1.84,0,0,0,0-.33,1.13,1.13,0,0,0-1.11-.92c-.83,0-1.29.74-1.29,1.69s.46,1.62,1.28,1.62a1.15,1.15,0,0,0,1.11-.91,1.53,1.53,0,0,0,0-.38Z"/><path class="cls-3" d="M151.34,84.81l-.08-.56h0a1.91,1.91,0,0,1-1.52.68,1.52,1.52,0,0,1-1.6-1.52c0-1.29,1.14-2,3-1.93v-.09c0-.33-.13-.89-1-.89a2.69,2.69,0,0,0-1.37.38l-.25-.84a3.63,3.63,0,0,1,1.84-.45,1.91,1.91,0,0,1,2.11,2.15v1.85a7.11,7.11,0,0,0,.08,1.22Zm-.17-2.49c-.91,0-1.78.17-1.78,1a.68.68,0,0,0,.73.74,1,1,0,0,0,1-.71,1,1,0,0,0,0-.28Z"/><path class="cls-3" d="M158.38,83.28c0,.61,0,1.11,0,1.53h-1.14l-.06-.77h0a1.86,1.86,0,0,1-1.64.89c-.93,0-1.78-.56-1.78-2.23v-3h1.29v2.78c0,.85.27,1.4,1,1.4a1.08,1.08,0,0,0,1-.69,1.29,1.29,0,0,0,.07-.4V79.7h1.3Z"/><path class="cls-3" d="M161.25,78.24V79.7h1.23v1h-1.23v2.25c0,.62.17,1,.67,1a2,2,0,0,0,.5-.06l0,1a2.63,2.63,0,0,1-.93.13,1.51,1.51,0,0,1-1.12-.42,2.05,2.05,0,0,1-.4-1.43v-2.4h-.73v-1H160V78.55Z"/><path class="cls-3" d="M168.32,82.21a2.53,2.53,0,0,1-2.62,2.72,2.48,2.48,0,0,1-2.57-2.64,2.53,2.53,0,0,1,2.65-2.7A2.45,2.45,0,0,1,168.32,82.21Zm-3.85.05c0,1,.48,1.74,1.27,1.74s1.25-.73,1.25-1.76c0-.8-.36-1.71-1.24-1.71S164.47,81.41,164.47,82.26Z"/><path class="cls-3" d="M169.38,81.22c0-.58,0-1.08,0-1.52h1.11l.05.76h0a1.76,1.76,0,0,1,1.57-.87,1.47,1.47,0,0,1,1.42.94h0a2,2,0,0,1,.63-.64,1.7,1.7,0,0,1,1-.3c.85,0,1.71.57,1.71,2.21v3h-1.26V82c0-.85-.29-1.35-.91-1.35a1,1,0,0,0-.91.68,1.86,1.86,0,0,0-.06.43v3.06h-1.26v-3c0-.71-.28-1.21-.88-1.21a1,1,0,0,0-.93.73,1.16,1.16,0,0,0-.07.42v3h-1.26Z"/><path class="cls-3" d="M181.16,84.81l-.08-.56h0a1.91,1.91,0,0,1-1.52.68,1.51,1.51,0,0,1-1.6-1.52c0-1.29,1.14-2,3-1.93v-.09c0-.33-.13-.89-1-.89a2.69,2.69,0,0,0-1.37.38l-.26-.84a3.7,3.7,0,0,1,1.85-.45,1.91,1.91,0,0,1,2.11,2.15v1.85a7.11,7.11,0,0,0,.08,1.22ZM181,82.32c-.91,0-1.78.17-1.78,1a.68.68,0,0,0,.73.74,1,1,0,0,0,1-.71,1,1,0,0,0,0-.28Z"/><path class="cls-3" d="M185.1,78.24V79.7h1.23v1H185.1v2.25c0,.62.17,1,.66,1a1.93,1.93,0,0,0,.5-.06l0,1a2.69,2.69,0,0,1-.94.13,1.5,1.5,0,0,1-1.11-.42,2,2,0,0,1-.4-1.43v-2.4h-.74v-1h.74V78.55Z"/><path class="cls-3" d="M188.68,78.27a.69.69,0,0,1-.74.7.68.68,0,0,1-.71-.7.73.73,0,0,1,1.45,0Zm-1.38,6.54V79.7h1.31v5.11Z"/><path class="cls-3" d="M194.85,82.21a2.53,2.53,0,0,1-2.62,2.72,2.47,2.47,0,0,1-2.56-2.64,2.52,2.52,0,0,1,2.64-2.7A2.45,2.45,0,0,1,194.85,82.21Zm-3.85.05c0,1,.48,1.74,1.27,1.74s1.25-.73,1.25-1.76c0-.8-.36-1.71-1.24-1.71S191,81.41,191,82.26Z"/><path class="cls-3" d="M195.91,81.22c0-.58,0-1.08,0-1.52H197l.06.77h0a1.85,1.85,0,0,1,1.63-.88c.89,0,1.81.57,1.81,2.19v3h-1.29V81.93c0-.74-.27-1.29-1-1.29a1.07,1.07,0,0,0-1,.75,1.38,1.38,0,0,0-.05.42v3h-1.31Z"/><rect class="cls-2" x="121.5" y="122" width="106" height="106" rx="53" ry="53"/><path class="cls-3" d="M147.26,194.74v2.83h3v-2.83h1.29v7.07h-1.29V198.7h-3v3.11H146v-7.07Z"/><path class="cls-3" d="M153.78,196.7l.92,2.74c.11.32.21.7.29,1h0l.27-1,.8-2.73h1.38l-1.28,3.49c-.7,1.91-1.17,2.76-1.78,3.28a2.61,2.61,0,0,1-1.36.66l-.29-1.09a2.4,2.4,0,0,0,.76-.35,2.36,2.36,0,0,0,.7-.81.57.57,0,0,0,.08-.23.58.58,0,0,0-.07-.26l-1.87-4.69Z"/><path class="cls-3" d="M158.18,201.81c0-.34,0-.91,0-1.43v-6h1.29v3h0a1.86,1.86,0,0,1,1.64-.81c1.25,0,2.14,1,2.13,2.59a2.44,2.44,0,0,1-2.32,2.75,1.77,1.77,0,0,1-1.62-.88h0l-.06.76Zm1.33-2.11a1.55,1.55,0,0,0,0,.31,1.2,1.2,0,0,0,1.15.9c.81,0,1.3-.65,1.3-1.68s-.43-1.64-1.29-1.64a1.22,1.22,0,0,0-1.15.95,1.59,1.59,0,0,0,0,.34Z"/><path class="cls-3" d="M164.36,198.35c0-.69,0-1.19,0-1.65h1.12l.05,1h0a1.51,1.51,0,0,1,1.39-1.09,1.48,1.48,0,0,1,.31,0v1.21a1.92,1.92,0,0,0-.38,0,1.13,1.13,0,0,0-1.15,1,1.56,1.56,0,0,0,0,.4v2.64h-1.29Z"/><path class="cls-3" d="M169.48,195.27a.69.69,0,0,1-.74.7.68.68,0,0,1-.71-.7.69.69,0,0,1,.72-.7A.7.7,0,0,1,169.48,195.27Zm-1.38,6.54V196.7h1.3v5.11Z"/><path class="cls-3" d="M175.5,194.36v6c0,.52,0,1.09,0,1.43h-1.15l0-.8h0a1.86,1.86,0,0,1-1.67.92,2.34,2.34,0,0,1-2.19-2.61,2.43,2.43,0,0,1,2.29-2.73,1.62,1.62,0,0,1,1.44.67h0v-2.9Zm-1.29,4.47a1.84,1.84,0,0,0,0-.33,1.14,1.14,0,0,0-1.11-.92c-.83,0-1.29.74-1.29,1.69s.46,1.62,1.28,1.62a1.15,1.15,0,0,0,1.11-.91,1.53,1.53,0,0,0,0-.38Z"/><path class="cls-3" d="M182.82,201.66a3.86,3.86,0,0,1-1.45.26,2.45,2.45,0,0,1-2.63-2.6,2.64,2.64,0,0,1,2.84-2.73,3.16,3.16,0,0,1,1.25.24l-.23,1a2.33,2.33,0,0,0-1-.2,1.66,1.66,0,0,0,0,3.31,2.41,2.41,0,0,0,1-.2Z"/><path class="cls-3" d="M183.78,194.36h1.3v7.45h-1.3Z"/><path class="cls-3" d="M191.34,199.21a2.54,2.54,0,0,1-2.63,2.72,2.47,2.47,0,0,1-2.56-2.64,2.52,2.52,0,0,1,2.64-2.7A2.45,2.45,0,0,1,191.34,199.21Zm-3.86,0c0,1,.49,1.74,1.27,1.74s1.25-.73,1.25-1.76c0-.8-.35-1.71-1.24-1.71S187.48,198.41,187.48,199.26Z"/><path class="cls-3" d="M197,200.28c0,.61,0,1.11.05,1.53h-1.14l-.06-.77h0a1.87,1.87,0,0,1-1.64.89c-.93,0-1.78-.56-1.78-2.23v-3h1.29v2.78c0,.85.27,1.4,1,1.4a1.1,1.1,0,0,0,1-.69,1.29,1.29,0,0,0,.07-.4V196.7H197Z"/><path class="cls-3" d="M203.08,194.36v6c0,.52,0,1.09,0,1.43H202l-.05-.8h0a1.86,1.86,0,0,1-1.67.92,2.34,2.34,0,0,1-2.18-2.61,2.43,2.43,0,0,1,2.28-2.73,1.62,1.62,0,0,1,1.44.67h0v-2.9Zm-1.29,4.47a1.84,1.84,0,0,0,0-.33,1.12,1.12,0,0,0-1.11-.92c-.83,0-1.29.74-1.29,1.69s.46,1.62,1.28,1.62a1.14,1.14,0,0,0,1.11-.91,1.53,1.53,0,0,0,0-.38Z"/><path class="cls-3" d="M144.68,209.22c0-.58,0-1.08,0-1.52h1.11l.05.76h0a1.79,1.79,0,0,1,1.58-.87,1.47,1.47,0,0,1,1.42.94h0a2,2,0,0,1,.63-.64,1.7,1.7,0,0,1,1-.3c.85,0,1.71.57,1.71,2.21v3H151V210c0-.85-.3-1.35-.92-1.35a1,1,0,0,0-.9.68,1.86,1.86,0,0,0-.06.43v3.06h-1.26v-3c0-.71-.28-1.21-.88-1.21a1,1,0,0,0-.93.73,1.16,1.16,0,0,0-.07.42v3h-1.26Z"/><path class="cls-3" d="M156.46,212.81l-.08-.56h0a1.91,1.91,0,0,1-1.52.68,1.51,1.51,0,0,1-1.6-1.52c0-1.29,1.14-1.95,3-1.93v-.09c0-.33-.13-.89-1-.89a2.69,2.69,0,0,0-1.37.38l-.26-.84a3.7,3.7,0,0,1,1.85-.45,1.91,1.91,0,0,1,2.11,2.15v1.85a7.11,7.11,0,0,0,.08,1.22Zm-.17-2.49c-.91,0-1.78.17-1.78,1a.68.68,0,0,0,.73.74,1,1,0,0,0,1-.71,1,1,0,0,0,0-.28Z"/><path class="cls-3" d="M158.92,209.22c0-.58,0-1.08,0-1.52H160l.06.77h0a1.86,1.86,0,0,1,1.63-.88c.89,0,1.82.57,1.82,2.19v3h-1.29v-2.88c0-.74-.28-1.29-1-1.29a1.09,1.09,0,0,0-1,.75,1.38,1.38,0,0,0-.05.42v3h-1.3Z"/><path class="cls-3" d="M167.8,212.81l-.08-.56h0a1.92,1.92,0,0,1-1.52.68,1.51,1.51,0,0,1-1.6-1.52c0-1.29,1.14-1.95,3-1.93v-.09c0-.33-.14-.89-1-.89a2.69,2.69,0,0,0-1.37.38l-.26-.84a3.7,3.7,0,0,1,1.85-.45,1.91,1.91,0,0,1,2.11,2.15v1.85a7.11,7.11,0,0,0,.08,1.22Zm-.17-2.49c-.91,0-1.78.17-1.78,1a.68.68,0,0,0,.73.74,1,1,0,0,0,1-.71,1,1,0,0,0,0-.28Z"/><path class="cls-3" d="M174.93,207.7c0,.35,0,.77,0,1.47v2.9a2.47,2.47,0,0,1-2.73,2.94,3.67,3.67,0,0,1-1.79-.41l.29-1a3.05,3.05,0,0,0,1.49.39,1.36,1.36,0,0,0,1.47-1.54V212h0a1.73,1.73,0,0,1-1.49.75,2.27,2.27,0,0,1-2.18-2.5,2.44,2.44,0,0,1,2.32-2.69,1.6,1.6,0,0,1,1.48.79h0l.06-.68Zm-1.33,2.05a1,1,0,0,0,0-.35,1.07,1.07,0,0,0-1.05-.83c-.72,0-1.25.63-1.25,1.67,0,.87.44,1.58,1.24,1.58a1.1,1.1,0,0,0,1-.78,1.82,1.82,0,0,0,.06-.46Z"/><path class="cls-3" d="M177.19,210.62a1.38,1.38,0,0,0,1.57,1.32,3.8,3.8,0,0,0,1.42-.23l.19.89a4.78,4.78,0,0,1-1.79.32,2.42,2.42,0,0,1-2.63-2.58,2.53,2.53,0,0,1,2.5-2.75,2.21,2.21,0,0,1,2.2,2.48,3.35,3.35,0,0,1,0,.55Zm2.24-.9a1.09,1.09,0,0,0-1.06-1.25,1.26,1.26,0,0,0-1.18,1.25Z"/><path class="cls-3" d="M181.69,209.22c0-.58,0-1.08,0-1.52h1.11l.06.76h0a1.76,1.76,0,0,1,1.57-.87,1.47,1.47,0,0,1,1.42.94h0a2,2,0,0,1,.63-.64,1.7,1.7,0,0,1,1-.3c.85,0,1.71.57,1.71,2.21v3H188V210c0-.85-.29-1.35-.91-1.35a1,1,0,0,0-.91.68,1.86,1.86,0,0,0-.06.43v3.06h-1.26v-3c0-.71-.28-1.21-.88-1.21a1.17,1.17,0,0,0-1,1.15v3h-1.26Z"/><path class="cls-3" d="M191.51,210.62a1.39,1.39,0,0,0,1.57,1.32,3.8,3.8,0,0,0,1.42-.23l.19.89a4.76,4.76,0,0,1-1.78.32,2.42,2.42,0,0,1-2.64-2.58,2.53,2.53,0,0,1,2.5-2.75,2.21,2.21,0,0,1,2.2,2.48,3.35,3.35,0,0,1,0,.55Zm2.25-.9a1.1,1.1,0,0,0-1.06-1.25,1.26,1.26,0,0,0-1.19,1.25Z"/><path class="cls-3" d="M196,209.22c0-.58,0-1.08,0-1.52h1.14l.06.77h0a1.85,1.85,0,0,1,1.63-.88c.89,0,1.81.57,1.81,2.19v3h-1.29v-2.88c0-.74-.27-1.29-1-1.29a1.07,1.07,0,0,0-1,.75,1.38,1.38,0,0,0-.05.42v3H196Z"/><path class="cls-3" d="M203.5,206.24v1.46h1.23v1H203.5v2.25c0,.62.17,1,.66,1a2.09,2.09,0,0,0,.51-.06l0,1a2.69,2.69,0,0,1-.94.13,1.5,1.5,0,0,1-1.11-.42,2.05,2.05,0,0,1-.4-1.43v-2.4h-.73v-1h.73v-1.15Z"/><path class="cls-3" d="M298.23,180.13v2.7c.23,0,.41,0,.58,0h7.37a3.7,3.7,0,0,0,4-4c0-2.56,0-5.11,0-7.67a.86.86,0,0,0-.44-.82,7.62,7.62,0,0,1,0-12.93.89.89,0,0,0,.46-.87c0-2.68,0-5.35,0-8a3.67,3.67,0,0,0-4-4h-2.49v2.61H286.07V144.6c-1.45.11-2.87-.25-4.23.29a3.53,3.53,0,0,0-2.25,2.75c0,.25-.1.47.26.62a2.86,2.86,0,0,1,2,2.91,2.91,2.91,0,0,1-2.08,2.78l-.2.1v.64c0,8,0,16.06,0,24.09a3.88,3.88,0,0,0,4.11,4.1c1.53-.06,3.07,0,4.65,0v1.43c-.15,0-.32,0-.49,0-1.52,0-3,0-4.55,0a5.14,5.14,0,0,1-5.22-5.26q0-12.13,0-24.27V154l-.15.12a9.77,9.77,0,0,1-1.63-1.43,2.93,2.93,0,0,1,1.31-4.4.72.72,0,0,0,.52-.61,5.17,5.17,0,0,1,5.43-4.61H286v-2.66h4.74a4.24,4.24,0,0,1,1.8-2.67,4.17,4.17,0,0,1,2.5-.68c1.84.07,3.21,1.23,3.88,3.34h4.69v2.67h2.5a5.2,5.2,0,0,1,5.54,5.55v7.85c3.8-.76,6.92.2,9,3.54a7.08,7.08,0,0,1-.24,8.18c-2.09,3-5.1,3.9-8.73,3.14V172c0,2.34,0,4.67,0,7a5.15,5.15,0,0,1-5.33,5.33h-8.07v2.74l-3-1.71-3.09-1.77Zm22-16.21a6.3,6.3,0,1,0-6.26,6.24A6.26,6.26,0,0,0,320.23,163.92Zm-32.61-22v3.8h14.44v-3.8Zm-8.82,7.6a1.56,1.56,0,0,0-1.62,1.55,1.6,1.6,0,0,0,3.2,0A1.56,1.56,0,0,0,278.8,149.54Zm18.49-9.12a2.52,2.52,0,0,0-2.53-1.85,2.42,2.42,0,0,0-2.33,1.85Z"/><path class="cls-3" d="M285.22,158.12h5.44v5.4h-5.44Zm1.51,1.51V162h2.44v-2.38Z"/><path class="cls-3" d="M285.22,177.53v-5.38h5.44v5.38Zm1.51-3.9V176h2.43v-2.38Z"/><path class="cls-3" d="M290.68,151.14v5.37h-5.47v-5.37Zm-4,3.88h2.43v-2.39h-2.43Z"/><path class="cls-3" d="M290.67,170.52h-5.44v-5.36h5.44ZM286.72,169h2.43v-2.41h-2.43Z"/><path class="cls-3" d="M305.42,153.15v1.38H293.74v-1.38Z"/><path class="cls-3" d="M305.42,166.74v1.4H293.74v-1.4Z"/><path class="cls-3" d="M293.73,161.51v-1.38h11.66v1.38Z"/><path class="cls-3" d="M293.73,175.53v-1.4h11.66v1.4Z"/><path class="cls-3" d="M310,164l1-1.05,1.91,2.16,4.05-4.3.95,1.05-5,5.18Z"/><path class="cls-3" d="M173.52,38.57c3.84-.79,6.21,2.33,5.32,5.46l.33.14a5.63,5.63,0,0,1,3.49,5.89,6,6,0,0,1-4.62,5.4,31.31,31.31,0,0,1-4.55.17c-2.92,0-5.84,0-8.75.06a.77.77,0,0,0-.84.54,3.84,3.84,0,0,1-7,0,.69.69,0,0,0-.78-.52,12.92,12.92,0,0,1-2.41,0,7.38,7.38,0,0,1-6.24-5.17,7.33,7.33,0,0,1,1.75-8A7,7,0,0,1,153,40.63a.57.57,0,0,0,.55-.54,7.17,7.17,0,0,1,6-5.63,1.25,1.25,0,0,0,.76-.43,7.34,7.34,0,0,1,13.21,3.86C173.49,38.11,173.51,38.34,173.52,38.57Zm-2.66,15.29v-.1c1,0,1.95,0,2.92,0s2-.08,3,0a4.19,4.19,0,0,0,4-4,3.71,3.71,0,0,0-3.49-4.11.91.91,0,0,1-.72-1.47c0-.09.12-.17.17-.26a2.41,2.41,0,0,0-.19-2.84,2.26,2.26,0,0,0-2.72-.54,7.21,7.21,0,0,0-1.19.82.94.94,0,0,1-1.22,0,.86.86,0,0,1-.29-1.13c.07-.19.15-.39.22-.59a5.33,5.33,0,0,0-9.65-4.24,1.43,1.43,0,0,1-1.36.82,5.26,5.26,0,0,0-5,4.89c-.06.92-.29,1.13-1.19,1.2a5.12,5.12,0,0,0-4.36,2.53,5.74,5.74,0,0,0,0,6,5.43,5.43,0,0,0,5,3c.47,0,.94,0,1.4,0s.58-.11.75-.48a3.83,3.83,0,0,1,7,0,.71.71,0,0,0,.8.49Zm-12.39.9a1.91,1.91,0,0,0,1.92,1.92,1.9,1.9,0,1,0,.06-3.8A1.92,1.92,0,0,0,158.47,54.76Z"/><path class="cls-3" d="M184,37.25V35.42h10.22V32L202,36.31l-7.73,4.33V37.25Z"/><path class="cls-3" d="M184,52.92V51.13h10.23V47.66L202,52l-7.72,4.32v-3.4Z"/><path class="cls-3" d="M178.53,162.33l2-2.08,2.05,6.65-6.84-1.57,1.76-1.9-2.59-2.68-2.65,2.76,1.7,1.82-6.84,1.57,2-6.65,2,2.06c.93-1,1.85-1.9,2.74-2.85A.72.72,0,0,0,174,159c0-.57,0-1.13,0-1.7a3.14,3.14,0,0,1-2.09-2,2.93,2.93,0,0,1,1.46-3.54.94.94,0,0,0,.64-1.1,6.74,6.74,0,0,1,0-.8h-3.48c-.86,0-1.72,0-2.58,0a3.51,3.51,0,0,1-1.05-6.86.76.76,0,0,0,.42-.44,4.6,4.6,0,0,1,3.71-3.43.72.72,0,0,0,.42-.25,4.37,4.37,0,0,1,4.93-1.66,4.55,4.55,0,0,1,3.35,4.15,2.06,2.06,0,0,1,0,.21,2.36,2.36,0,0,0,.38,0,2.68,2.68,0,0,1,2.9,3,.83.83,0,0,0,.37.87,2.43,2.43,0,0,1,.87,2.87,2.54,2.54,0,0,1-2.52,1.63c-2.05,0-4.1,0-6.19,0v1.49a3.08,3.08,0,0,1,0,6c0,.51,0,1,0,1.56a.78.78,0,0,0,.21.45C176.64,160.37,177.56,161.33,178.53,162.33Zm-3.56-14v.07h6.86a1,1,0,0,0,1.06-.88,1.06,1.06,0,0,0-.79-1.15c-1.12-.29-1.18-.42-.7-1.51a1.34,1.34,0,0,0-.26-1.51,1.27,1.27,0,0,0-1.53-.11c-.18.11-.32.34-.51.39s-.69.17-.89,0-.22-.55-.28-.85c0-.1.07-.21.11-.33a3,3,0,0,0-1.64-3.71,2.86,2.86,0,0,0-3.88,1.2,1,1,0,0,1-.89.55,3.05,3.05,0,0,0-2.91,2.71c-.12.93-.13.94-1.05,1.09a1.93,1.93,0,0,0-1.68,1.5,2,2,0,0,0,2.12,2.5C170.39,148.38,172.68,148.37,175,148.37Zm-1.73,6a1.59,1.59,0,1,0,3.18.07,1.59,1.59,0,0,0-1.53-1.6A1.57,1.57,0,0,0,173.24,154.35Z"/><path class="cls-3" d="M162,185.52v-.86H159.9v-1.52H162v-2.4c-.21,0-.44,0-.66,0l-4.87,0a3.5,3.5,0,0,1-1.14-6.84.9.9,0,0,0,.46-.5,4.54,4.54,0,0,1,3.61-3.37,1,1,0,0,0,.52-.3,4.39,4.39,0,0,1,5-1.62,4.52,4.52,0,0,1,3.29,4.11c0,.08,0,.15,0,.27h.52a2.69,2.69,0,0,1,2.76,3.1.57.57,0,0,0,.29.66,2.47,2.47,0,0,1,1,2.89,2.51,2.51,0,0,1-2.53,1.7l-6.33-.05-.33,0V186c0,.74-.25,1-1,1H159.9v-1.48Zm-2-6.37c-.59-1.73-.33-3,.78-3.93a3.12,3.12,0,0,1,3.62-.29c1.65,1,1.87,2.56,1.19,4.28l.1,0,4.45,0c.73,0,1.15-.3,1.22-.89s-.29-1-1-1.14-1-.59-.59-1.31a1.32,1.32,0,0,0-.22-1.75,1.31,1.31,0,0,0-1.72.12c-.36.31-.72.59-1.19.26s-.32-.75-.15-1.17c0,0,0-.07,0-.11a3,3,0,0,0-1.69-3.64,2.84,2.84,0,0,0-3.84,1.19,1.08,1.08,0,0,1-1,.58,3,3,0,0,0-2.8,2.68c-.1.89-.15.94-1.05,1.09a2,2,0,0,0-1.76,2,1.9,1.9,0,0,0,1.69,1.94C157.34,179.2,158.63,179.15,160,179.15Zm4.44-1.53a1.64,1.64,0,1,0-3.28,0,1.64,1.64,0,0,0,3.28,0Z"/><path class="cls-3" d="M191.48,172.32a10,10,0,0,1,1.72.35,2.57,2.57,0,0,1,1.56,2.75.76.76,0,0,0,.36.81,2.47,2.47,0,0,1,.9,2.86,2.56,2.56,0,0,1-2.49,1.69c-4.42-.05-8.84-.07-13.26-.11a6.76,6.76,0,0,1-1.68-.18,3.48,3.48,0,0,1-.13-6.59.93.93,0,0,0,.67-.68,4.44,4.44,0,0,1,3.5-3.25,1.11,1.11,0,0,0,.58-.32,4.39,4.39,0,0,1,4.95-1.61,4.57,4.57,0,0,1,3.3,4.12A.42.42,0,0,0,191.48,172.32Zm-2.07,6.94h4.09a1.85,1.85,0,0,0,.23,0,1,1,0,0,0,.91-.92,1,1,0,0,0-.79-1.1c-1.12-.29-1.18-.43-.7-1.51a1.36,1.36,0,0,0-.26-1.52,1.19,1.19,0,0,0-1.42-.16,6.37,6.37,0,0,0-.61.45.74.74,0,0,1-1.23-.42,1.75,1.75,0,0,1,.16-.73,3,3,0,0,0-1.64-3.72,2.92,2.92,0,0,0-3.9,1.19,1.39,1.39,0,0,1-.87.54,3.11,3.11,0,0,0-2.91,2.74c-.13.91-.13.91-1.06,1.07a2,2,0,0,0-1.74,2,1.9,1.9,0,0,0,1.55,1.94c1.2.1,2.41,0,3.68,0-.11-1.57,0-3.06,1.84-3.68-.7-1.17-.66-2.1.11-2.8a1.88,1.88,0,0,1,2.43-.13,2.56,2.56,0,0,1,.73,1,2,2,0,0,1-.46,1.91C189.42,176.1,189.51,177.6,189.41,179.26Zm-1.5-.42c0-.37,0-.68,0-1a1,1,0,0,0-1-1,14.2,14.2,0,0,0-1.46,0,1,1,0,0,0-1,1c0,.3,0,.61,0,.94Zm-1.17-4.77c-.26-.2-.44-.43-.55-.41s-.3.26-.45.4c.14.13.27.35.42.37S186.47,174.25,186.74,174.07Z"/><path class="cls-3" d="M52.71,168.41v-4.82c0-1.17,0-2.33,0-3.49,0-.83.22-1,1.06-1.06,1.26,0,2.52,0,3.78,0a.55.55,0,0,0,.63-.44,3.1,3.1,0,0,1,5.77-.06.59.59,0,0,0,.7.44,4,4,0,0,0,3.6-4.42A3.39,3.39,0,0,0,65,151.28c-.72-.09-1-.65-.56-1.28a2.39,2.39,0,0,0,.36-2.08,2.24,2.24,0,0,0-3.36-1.23,3.65,3.65,0,0,0-.71.53.83.83,0,0,1-1.12.17c-.39-.27-.37-.65-.19-1.06a4.58,4.58,0,0,0,.3-2.78,5.07,5.07,0,0,0-4.33-4,4.61,4.61,0,0,0-5,2.48,1.22,1.22,0,0,1-1.15.56,5,5,0,0,0-4.57,3.88c-.06.31-.07.63-.1.94a.81.81,0,0,1-.8.79,8.18,8.18,0,0,0-1.57.27c-4.05,1.21-4.55,6.54-1.7,9.09A5.13,5.13,0,0,0,43.59,159v-2.72l6.3,3.52-6.27,3.5v-2.74a7.12,7.12,0,0,1-6.46-7.36c.08-3.38,2.1-5.63,5.88-6.47a6.4,6.4,0,0,1,2.39-4.19,6.91,6.91,0,0,1,3.27-1.41,1,1,0,0,0,.62-.35,6.66,6.66,0,0,1,12,3.82V145a4,4,0,0,1,4,.91,3.85,3.85,0,0,1,.88,4,2.18,2.18,0,0,0,.25.14c3.61,1.22,4.36,6,1.91,8.61a4.78,4.78,0,0,1-3.85,1.75.72.72,0,0,0-.76.48,3.1,3.1,0,0,1-5.42,0,.74.74,0,0,0-.78-.43c-1.08,0-2.16,0-3.28,0v7.92c1.31.12,2.62.18,3.89.4a23.09,23.09,0,0,1,3.48.9A2.14,2.14,0,0,1,63.23,172q-.09,6.24,0,12.48a2,2,0,0,1-1.34,2.13,15.45,15.45,0,0,1-3.05.89,30,30,0,0,1-12-.29,9.21,9.21,0,0,1-2-.79,1.78,1.78,0,0,1-1-1.75c0-4.26,0-8.52,0-12.78a2,2,0,0,1,1.36-2.12,22.9,22.9,0,0,1,3.63-1C50,168.59,51.34,168.54,52.71,168.41Zm-7.37,9.23v1c0,2.14,0,2.15,2.1,2.61a29.39,29.39,0,0,0,10.7.27,21.29,21.29,0,0,0,3-.82c.2-.06.47-.32.48-.5,0-.85,0-1.71,0-2.54A30.22,30.22,0,0,1,45.34,177.64Zm0,4.55v1.05c0,2.13,0,2.15,2.1,2.61a29.38,29.38,0,0,0,10.7.27,21.61,21.61,0,0,0,3-.81.78.78,0,0,0,.48-.51c0-.85,0-1.71,0-2.61a24.13,24.13,0,0,1-8.17,1.16A24.14,24.14,0,0,1,45.34,182.19Zm16.31-9a23.71,23.71,0,0,1-8.15,1.17,24.18,24.18,0,0,1-8.16-1.16v.67c0,2.27,0,2.29,2.25,2.79a28.44,28.44,0,0,0,9.65.34,31.84,31.84,0,0,0,3.84-.88.75.75,0,0,0,.59-.88C61.62,174.58,61.65,173.93,61.65,173.18Zm0-1.85c-.6-.23-1.13-.49-1.68-.64A27.62,27.62,0,0,0,51.5,170a18.42,18.42,0,0,0-5.11.86c-.33.12-.64.3-1,.48C48.11,173.32,59.27,173.29,61.63,171.33Zm-2.12-11.8a1.55,1.55,0,0,0,1.59,1.55,1.62,1.62,0,0,0,1.59-1.57,1.57,1.57,0,0,0-1.58-1.5A1.5,1.5,0,0,0,59.51,159.53Z"/><path class="cls-3" d="M175.13,252.5a13.52,13.52,0,0,1,1.48.72,2.88,2.88,0,0,1,1.26,1.87,1.17,1.17,0,0,0,.77.92,10.2,10.2,0,0,1,2.1,17.41l-.41.32,2.74,4.79,2.83-1.59v8L179,280.85l2.55-1.46-2.68-4.7-3.44.92v5.31h3.12l-4,6.95-4-6.94h3.07V275.6l-3.48-.94-2.67,4.65,2.7,1.54-6.92,4.08v-8l2.7,1.51,2.7-4.71c-.55-.51-1.1-1-1.58-1.48A10.18,10.18,0,0,1,170.53,256a.88.88,0,0,0,.59-.73,3.35,3.35,0,0,1,2.17-2.49l.58-.23Zm-3.79,5a8.45,8.45,0,0,0-5.19,9.25,8.48,8.48,0,1,0,11.57-9.25A3.58,3.58,0,0,1,171.34,257.52Zm4.93-1.49a1.76,1.76,0,0,0-1.7-1.79,1.76,1.76,0,1,0,1.7,1.79Z"/><path class="cls-3" d="M173.75,302.5c-.4-.11-.81-.21-1.2-.34a6.37,6.37,0,1,1,3.07.23,2.59,2.59,0,0,0-.37.11Zm5.42-6.44a4.66,4.66,0,1,0-4.66,4.7A4.67,4.67,0,0,0,179.17,296.06Z"/><path class="cls-3" d="M151.75,296.05c.07-.43.13-.85.21-1.28a6.39,6.39,0,1,1,7.35,7.62,2.33,2.33,0,0,0-.31.11h-1.61a1.28,1.28,0,0,0-.24-.11,6.39,6.39,0,0,1-5.24-5.18c-.06-.35-.11-.7-.16-1Zm1.8.06a4.67,4.67,0,1,0,4.67-4.7A4.69,4.69,0,0,0,153.55,296.11Z"/><path class="cls-3" d="M190,302.5l-1-.27a6.4,6.4,0,0,1,1.73-12.54,6.37,6.37,0,0,1,6.39,5.41c0,.13.08.25.11.37v1.27c0,.1-.09.2-.11.3a6.35,6.35,0,0,1-4.5,5.18c-.34.11-.69.19-1,.28Zm.81-11.09a4.68,4.68,0,0,0,0,9.35,4.68,4.68,0,0,0,0-9.35Z"/></svg>