<svg id="Layer_1" data-name="Layer 1" xmlns="http://www.w3.org/2000/svg" viewBox="0 0 1237.65 554.97"><defs><style>.cls-1{fill:#a8d7cd;}.cls-2,.cls-4,.cls-6,.cls-7{fill:none;}.cls-2{stroke:#00b28f;}.cls-2,.cls-6,.cls-7{stroke-miterlimit:10;}.cls-2,.cls-6{stroke-width:2.13px;}.cls-3{fill:#00321d;}.cls-4{stroke:#00321d;stroke-miterlimit:10;}.cls-4,.cls-7{stroke-width:3px;}.cls-5{fill:#d8e7da;}.cls-6,.cls-7{stroke:#a8d7cd;}</style></defs><title>cloud</title><polygon class="cls-1" points="414.13 0 414.13 554.97 791.1 554.97 791.1 0.13 414.13 0"/><line class="cls-2" x1="434.23" y1="171" x2="773" y2="172.13"/><path class="cls-3" d="M580.68,72.82c-.14-2.95-.31-6.5-.27-9.58h-.11c-.74,2.78-1.69,5.86-2.7,8.73l-3.32,9.89h-3.21L568,72.11c-.88-2.91-1.69-6-2.3-8.87h-.07c-.1,3-.24,6.6-.41,9.71l-.5,9.18h-3.9l1.53-22.81h5.48l3,9.17c.81,2.67,1.52,5.38,2.1,7.92h.1c.61-2.47,1.39-5.28,2.27-8l3.14-9.13h5.42l1.32,22.81h-4.06Z"/><path class="cls-3" d="M598.65,82.13l-.27-1.83h-.1a6.1,6.1,0,0,1-4.87,2.2,4.89,4.89,0,0,1-5.18-4.91c0-4.16,3.69-6.26,9.78-6.23v-.27c0-1.08-.44-2.87-3.35-2.87a8.62,8.62,0,0,0-4.43,1.22l-.82-2.71a11.84,11.84,0,0,1,6-1.46c5.28,0,6.8,3.35,6.8,6.94v6a26.32,26.32,0,0,0,.24,4Zm-.54-8.06c-2.94-.07-5.75.58-5.75,3.08a2.18,2.18,0,0,0,2.37,2.37A3.37,3.37,0,0,0,598,77.25a3,3,0,0,0,.13-.91Z"/><path class="cls-3" d="M606.58,70.55c0-1.89,0-3.48-.14-4.91h3.66l.2,2.48h.1a6,6,0,0,1,5.25-2.85c2.87,0,5.85,1.86,5.85,7.08v9.78h-4.16V72.82c0-2.37-.88-4.16-3.15-4.16a3.49,3.49,0,0,0-3.25,2.43,4.45,4.45,0,0,0-.17,1.36v9.68h-4.19Z"/><path class="cls-3" d="M635.21,82.13l-.27-1.83h-.1A6.1,6.1,0,0,1,630,82.5a4.89,4.89,0,0,1-5.18-4.91c0-4.16,3.69-6.26,9.78-6.23v-.27c0-1.08-.44-2.87-3.35-2.87a8.59,8.59,0,0,0-4.43,1.22L626,66.73a11.81,11.81,0,0,1,6-1.46c5.28,0,6.8,3.35,6.8,6.94v6a26.32,26.32,0,0,0,.24,4Zm-.54-8.06c-2.94-.07-5.75.58-5.75,3.08a2.18,2.18,0,0,0,2.37,2.37,3.37,3.37,0,0,0,3.25-2.27,3,3,0,0,0,.13-.91Z"/><path class="cls-3" d="M658.2,65.64c-.07,1.12-.14,2.48-.14,4.74v9.34c0,3.46-.71,5.93-2.44,7.48a9.42,9.42,0,0,1-6.36,2,11.64,11.64,0,0,1-5.75-1.32l.91-3.15A10,10,0,0,0,649.23,86c2.71,0,4.74-1.43,4.74-5V79.59h-.07A5.58,5.58,0,0,1,649.09,82c-4.09,0-7-3.39-7-8.06,0-5.41,3.52-8.7,7.48-8.7a5.2,5.2,0,0,1,4.77,2.57h.07l.17-2.2Zm-4.3,6.6a4.07,4.07,0,0,0-.14-1.11,3.45,3.45,0,0,0-3.38-2.68c-2.34,0-4.06,2-4.06,5.38,0,2.81,1.42,5.08,4,5.08a3.55,3.55,0,0,0,3.39-2.5,7.31,7.31,0,0,0,.17-1.49Z"/><path class="cls-3" d="M665.48,75.05c.1,3,2.43,4.27,5.07,4.27a12.24,12.24,0,0,0,4.57-.75l.61,2.88a15.39,15.39,0,0,1-5.75,1c-5.35,0-8.5-3.29-8.5-8.33,0-4.57,2.78-8.87,8.06-8.87s7.11,4.4,7.11,8a9.88,9.88,0,0,1-.14,1.76Zm7.24-2.91c0-1.52-.64-4-3.42-4-2.57,0-3.65,2.33-3.82,4Z"/><path class="cls-3" d="M695.2,58.1V77.49c0,1.69.06,3.52.13,4.64h-3.72l-.17-2.61h-.07a5.93,5.93,0,0,1-5.38,3c-3.93,0-7-3.35-7-8.43,0-5.51,3.42-8.8,7.38-8.8A5.26,5.26,0,0,1,691,67.44H691V58.1ZM691,72.52a5.74,5.74,0,0,0-.1-1.09,3.64,3.64,0,0,0-3.59-2.94c-2.67,0-4.16,2.37-4.16,5.45s1.49,5.21,4.13,5.21a3.68,3.68,0,0,0,3.59-3A4.63,4.63,0,0,0,691,75Z"/><path class="cls-3" d="M561.05,112.15a9.23,9.23,0,0,0,4.23,1.19c1.83,0,2.64-.75,2.64-1.83s-.68-1.69-2.71-2.4c-3.21-1.12-4.57-2.88-4.53-4.81,0-2.91,2.4-5.18,6.22-5.18a9.66,9.66,0,0,1,4.37,1l-.81,2.94a7.35,7.35,0,0,0-3.49-1c-1.49,0-2.3.71-2.3,1.73s.78,1.56,2.88,2.3c3,1.08,4.36,2.61,4.4,5,0,3-2.34,5.15-6.71,5.15a10.67,10.67,0,0,1-5-1.15Z"/><path class="cls-3" d="M578.31,108.91c.1,3,2.44,4.26,5.08,4.26a12.28,12.28,0,0,0,4.57-.75l.61,2.88a15.49,15.49,0,0,1-5.76,1c-5.35,0-8.49-3.29-8.49-8.33,0-4.57,2.77-8.87,8-8.87s7.11,4.4,7.11,8a10.06,10.06,0,0,1-.14,1.76Zm7.24-2.92c0-1.52-.64-4-3.41-4-2.58,0-3.66,2.33-3.83,4Z"/><path class="cls-3" d="M592.83,104.81c0-2.23,0-3.82-.13-5.31h3.62l.13,3.14h.14a4.92,4.92,0,0,1,4.5-3.52,4.2,4.2,0,0,1,1,.11v3.92a5.69,5.69,0,0,0-1.22-.13,3.67,3.67,0,0,0-3.72,3.14,7.12,7.12,0,0,0-.13,1.29V116h-4.17Z"/><path class="cls-3" d="M608.27,99.5l2.67,8.36c.48,1.45.81,2.77,1.12,4.13h.1c.3-1.36.68-2.65,1.12-4.13l2.6-8.36h4.4L614,116h-4.1L603.77,99.5Z"/><path class="cls-3" d="M627.26,94.89a2.21,2.21,0,0,1-2.37,2.24,2.19,2.19,0,0,1-2.3-2.24,2.34,2.34,0,0,1,4.67,0ZM622.82,116V99.5H627V116Z"/><path class="cls-3" d="M643.61,115.47a12,12,0,0,1-4.67.85c-5.15,0-8.5-3.29-8.5-8.4,0-4.94,3.39-8.8,9.17-8.8a10.38,10.38,0,0,1,4,.78L642.9,103a7.26,7.26,0,0,0-3.15-.65c-3.18,0-5.08,2.34-5,5.35,0,3.39,2.2,5.31,5,5.31a8.12,8.12,0,0,0,3.28-.64Z"/><path class="cls-3" d="M649.33,108.91c.1,3,2.44,4.26,5.08,4.26a12.32,12.32,0,0,0,4.57-.75l.6,2.88a15.39,15.39,0,0,1-5.75,1c-5.35,0-8.49-3.29-8.49-8.33,0-4.57,2.77-8.87,8-8.87s7.11,4.4,7.11,8a10.06,10.06,0,0,1-.14,1.76Zm7.24-2.92c0-1.52-.64-4-3.42-4-2.57,0-3.65,2.33-3.82,4Z"/><path class="cls-3" d="M663.65,112.15a9.23,9.23,0,0,0,4.23,1.19c1.83,0,2.64-.75,2.64-1.83s-.68-1.69-2.71-2.4c-3.21-1.12-4.57-2.88-4.53-4.81,0-2.91,2.4-5.18,6.22-5.18a9.66,9.66,0,0,1,4.37,1l-.81,2.94a7.35,7.35,0,0,0-3.49-1c-1.49,0-2.3.71-2.3,1.73s.78,1.56,2.88,2.3c3,1.08,4.36,2.61,4.4,5,0,3-2.34,5.15-6.7,5.15a10.72,10.72,0,0,1-5-1.15Z"/><path class="cls-3" d="M487.84,219.15a7.83,7.83,0,0,0,4,1.12c2.26,0,3.58-1.19,3.58-2.92s-.91-2.52-3.22-3.4c-2.8-1-4.52-2.44-4.52-4.85,0-2.67,2.21-4.65,5.53-4.65a7.85,7.85,0,0,1,3.79.84l-.61,1.8a6.91,6.91,0,0,0-3.25-.81c-2.34,0-3.23,1.39-3.23,2.56,0,1.6,1,2.39,3.4,3.3,2.9,1.12,4.37,2.52,4.37,5s-1.95,4.93-6,4.93a8.86,8.86,0,0,1-4.37-1.1Z"/><path class="cls-3" d="M502,216.1c0,3,2,4.27,4.22,4.27a8.17,8.17,0,0,0,3.4-.63l.38,1.59a9.85,9.85,0,0,1-4.09.77c-3.78,0-6-2.49-6-6.2s2.18-6.63,5.76-6.63c4,0,5.08,3.53,5.08,5.79a7.3,7.3,0,0,1-.08,1Zm6.55-1.6c0-1.42-.58-3.63-3.1-3.63-2.26,0-3.25,2.09-3.42,3.63Z"/><path class="cls-3" d="M522.22,221.39a8.33,8.33,0,0,1-3.53.71c-3.71,0-6.12-2.52-6.12-6.27a6.24,6.24,0,0,1,6.6-6.53,7.57,7.57,0,0,1,3.1.63l-.51,1.73a5.23,5.23,0,0,0-2.59-.58c-2.82,0-4.34,2.08-4.34,4.64,0,2.85,1.83,4.6,4.26,4.6a6.39,6.39,0,0,0,2.75-.61Z"/><path class="cls-3" d="M535.11,218.49c0,1.27,0,2.39.11,3.35h-2l-.13-2h-.05a4.63,4.63,0,0,1-4.06,2.28c-1.93,0-4.25-1.06-4.25-5.38v-7.19H527v6.81c0,2.33.71,3.91,2.74,3.91a3.24,3.24,0,0,0,2.95-2,3.46,3.46,0,0,0,.2-1.15v-7.54h2.23Z"/><path class="cls-3" d="M538.82,213.39c0-1.45,0-2.69-.1-3.84h1.95l.08,2.42h.1a3.7,3.7,0,0,1,3.4-2.7,2.43,2.43,0,0,1,.64.08v2.11a3.41,3.41,0,0,0-.76-.08,3.14,3.14,0,0,0-3,2.87,6.44,6.44,0,0,0-.1,1v6.55h-2.21Z"/><path class="cls-3" d="M549.71,206.1a1.31,1.31,0,0,1-1.42,1.37,1.33,1.33,0,0,1-1.35-1.37,1.37,1.37,0,0,1,1.4-1.4A1.33,1.33,0,0,1,549.71,206.1Zm-2.49,15.74V209.55h2.24v12.29Z"/><path class="cls-3" d="M555.86,206v3.53h3.19v1.7h-3.19v6.63c0,1.53.43,2.39,1.67,2.39a5.29,5.29,0,0,0,1.3-.15l.1,1.67a5.41,5.41,0,0,1-2,.31,3.09,3.09,0,0,1-2.41-.94,4.52,4.52,0,0,1-.87-3.2v-6.71h-1.9v-1.7h1.9v-2.94Z"/><path class="cls-3" d="M562.61,209.55l2.69,7.27c.28.81.58,1.77.79,2.51h0c.23-.74.48-1.68.78-2.57l2.44-7.21h2.36l-3.35,8.76c-1.6,4.22-2.69,6.38-4.21,7.7a6.1,6.1,0,0,1-2.75,1.44l-.55-1.87a6,6,0,0,0,1.95-1.1,6.72,6.72,0,0,0,1.88-2.49,1.56,1.56,0,0,0,.18-.53,1.75,1.75,0,0,0-.16-.58l-4.54-11.33Z"/><path class="cls-3" d="M487.84,274.54a7.83,7.83,0,0,0,4,1.12c2.26,0,3.58-1.2,3.58-2.92s-.91-2.52-3.22-3.41c-2.8-1-4.52-2.43-4.52-4.84,0-2.67,2.21-4.65,5.53-4.65a7.74,7.74,0,0,1,3.79.84l-.61,1.8a6.79,6.79,0,0,0-3.25-.81c-2.34,0-3.23,1.39-3.23,2.56,0,1.6,1,2.39,3.4,3.3,2.9,1.12,4.37,2.52,4.37,5s-1.95,4.93-6,4.93a8.86,8.86,0,0,1-4.37-1.1Z"/><path class="cls-3" d="M510.87,273.88c0,1.27,0,2.39.1,3.35h-2l-.13-2h-.05a4.62,4.62,0,0,1-4.06,2.28c-1.93,0-4.24-1.07-4.24-5.38v-7.19h2.23v6.81c0,2.33.71,3.91,2.75,3.91a3.13,3.13,0,0,0,3.14-3.18v-7.54h2.24Z"/><path class="cls-3" d="M514.57,269c0-1.57-.05-2.84-.1-4h2l.1,2.11h0a4.83,4.83,0,0,1,4.37-2.39c3,0,5.2,2.52,5.2,6.25,0,4.42-2.69,6.6-5.58,6.6a4.32,4.32,0,0,1-3.79-1.93h-.05v6.68h-2.21Zm2.21,3.28a5.07,5.07,0,0,0,.1.91,3.46,3.46,0,0,0,3.36,2.62c2.36,0,3.73-1.93,3.73-4.75,0-2.46-1.3-4.57-3.66-4.57a3.56,3.56,0,0,0-3.37,2.77,3.47,3.47,0,0,0-.16.91Z"/><path class="cls-3" d="M529,269c0-1.57,0-2.84-.1-4h2l.11,2.11h.05a4.82,4.82,0,0,1,4.36-2.39c3,0,5.21,2.52,5.21,6.25,0,4.42-2.69,6.6-5.59,6.6a4.31,4.31,0,0,1-3.78-1.93h0v6.68H529Zm2.21,3.28a5.07,5.07,0,0,0,.1.91,3.45,3.45,0,0,0,3.35,2.62c2.36,0,3.73-1.93,3.73-4.75,0-2.46-1.29-4.57-3.65-4.57a3.56,3.56,0,0,0-3.38,2.77,3.47,3.47,0,0,0-.15.91Z"/><path class="cls-3" d="M554.59,271c0,4.54-3.15,6.52-6.12,6.52-3.33,0-5.89-2.44-5.89-6.32,0-4.11,2.69-6.53,6.09-6.53S554.59,267.23,554.59,271Zm-9.75.12c0,2.69,1.54,4.72,3.73,4.72s3.73-2,3.73-4.77c0-2.08-1-4.72-3.68-4.72S544.84,268.78,544.84,271.11Z"/><path class="cls-3" d="M557.4,268.78c0-1.45,0-2.7-.1-3.84h2l.07,2.41h.1a3.69,3.69,0,0,1,3.41-2.69,2.41,2.41,0,0,1,.63.08v2.11a3.41,3.41,0,0,0-.76-.08,3.14,3.14,0,0,0-3,2.87,6.33,6.33,0,0,0-.1,1v6.55H557.4Z"/><path class="cls-3" d="M569,261.41v3.53h3.2v1.7H569v6.63c0,1.52.43,2.39,1.67,2.39a4.76,4.76,0,0,0,1.3-.16l.1,1.68a5.41,5.41,0,0,1-2,.31,3.09,3.09,0,0,1-2.41-.94,4.54,4.54,0,0,1-.87-3.2v-6.71h-1.9v-1.7h1.9V262Z"/><path class="cls-3" d="M502.57,325.1c-.13-2.38-.28-5.25-.26-7.38h-.07c-.59,2-1.3,4.13-2.16,6.5l-3,8.3h-1.68l-2.77-8.15c-.81-2.41-1.49-4.62-2-6.65h-.05c-.05,2.13-.18,5-.33,7.56l-.46,7.34h-2.1l1.19-17.11h2.82l2.92,8.27c.71,2.11,1.29,4,1.73,5.77h.07c.43-1.73,1-3.61,1.8-5.77l3-8.27h2.82l1.07,17.11H503Z"/><path class="cls-3" d="M519.75,326.37c0,4.55-3.14,6.53-6.12,6.53-3.32,0-5.89-2.44-5.89-6.32,0-4.12,2.7-6.53,6.1-6.53S519.75,322.62,519.75,326.37Zm-9.75.13c0,2.69,1.55,4.72,3.74,4.72s3.73-2,3.73-4.77c0-2.08-1-4.72-3.68-4.72S510,324.16,510,326.5Z"/><path class="cls-3" d="M522.57,323.66c0-1.27,0-2.31-.1-3.33h2l.13,2h0a4.51,4.51,0,0,1,4.06-2.31c1.7,0,4.34,1,4.34,5.23v7.34H530.8v-7.08c0-2-.74-3.64-2.85-3.64a3.18,3.18,0,0,0-3,2.29,3.26,3.26,0,0,0-.15,1v7.39h-2.24Z"/><path class="cls-3" d="M539.15,316.88a1.31,1.31,0,0,1-1.42,1.37,1.33,1.33,0,0,1-1.35-1.37,1.37,1.37,0,0,1,1.4-1.4A1.33,1.33,0,0,1,539.15,316.88Zm-2.49,15.74V320.33h2.24v12.29Z"/><path class="cls-3" d="M545.29,316.8v3.53h3.2V322h-3.2v6.63c0,1.52.44,2.39,1.68,2.39a4.67,4.67,0,0,0,1.29-.16l.11,1.68a5.48,5.48,0,0,1-2,.3,3.11,3.11,0,0,1-2.42-.94,4.57,4.57,0,0,1-.86-3.2V322h-1.9v-1.7h1.9v-2.94Z"/><path class="cls-3" d="M562,326.37c0,4.55-3.14,6.53-6.11,6.53-3.33,0-5.9-2.44-5.9-6.32,0-4.12,2.7-6.53,6.1-6.53S562,322.62,562,326.37Zm-9.75.13c0,2.69,1.55,4.72,3.74,4.72s3.73-2,3.73-4.77c0-2.08-1-4.72-3.68-4.72S552.22,324.16,552.22,326.5Z"/><path class="cls-3" d="M564.79,324.16c0-1.44,0-2.69-.1-3.83h2l.07,2.41h.1a3.69,3.69,0,0,1,3.41-2.69,2.41,2.41,0,0,1,.63.08v2.1a3.45,3.45,0,0,0-.76-.07,3.13,3.13,0,0,0-3,2.87,6.33,6.33,0,0,0-.1,1v6.55h-2.21Z"/><path class="cls-3" d="M575.68,316.88a1.38,1.38,0,0,1-2.76,0,1.36,1.36,0,0,1,1.39-1.4A1.33,1.33,0,0,1,575.68,316.88Zm-2.48,15.74V320.33h2.23v12.29Z"/><path class="cls-3" d="M579.14,323.66c0-1.27,0-2.31-.11-3.33h2l.13,2h.05a4.51,4.51,0,0,1,4.06-2.31c1.71,0,4.35,1,4.35,5.23v7.34h-2.24v-7.08c0-2-.73-3.64-2.84-3.64a3.19,3.19,0,0,0-3,2.29,3.26,3.26,0,0,0-.15,1v7.39h-2.23Z"/><path class="cls-3" d="M603.81,320.33c0,.89-.1,1.88-.1,3.38v7.13c0,2.82-.56,4.55-1.75,5.61a6.5,6.5,0,0,1-4.47,1.48,8,8,0,0,1-4.09-1l.56-1.7a6.93,6.93,0,0,0,3.61,1c2.28,0,4-1.19,4-4.29v-1.37h0a4.4,4.4,0,0,1-3.91,2.06c-3.05,0-5.23-2.59-5.23-6,0-4.17,2.71-6.53,5.53-6.53a4.11,4.11,0,0,1,3.84,2.13h0l.1-1.85Zm-2.31,4.85a3.29,3.29,0,0,0-.12-1,3.23,3.23,0,0,0-3.13-2.36c-2.13,0-3.65,1.81-3.65,4.65,0,2.41,1.22,4.42,3.63,4.42a3.28,3.28,0,0,0,3.1-2.29,4.08,4.08,0,0,0,.17-1.19Z"/><path class="cls-3" d="M502.77,379.27c0,5.89-3.58,9-7.95,9s-7.69-3.51-7.69-8.69c0-5.43,3.38-9,7.95-9S502.77,374.2,502.77,379.27Zm-13.28.28c0,3.66,2,6.93,5.46,6.93s5.48-3.22,5.48-7.1c0-3.41-1.77-7-5.46-7S489.49,375.8,489.49,379.55Z"/><path class="cls-3" d="M505.56,379.73c0-1.57-.05-2.84-.1-4h2l.11,2.11h.05a4.82,4.82,0,0,1,4.36-2.39c3,0,5.21,2.51,5.21,6.25,0,4.41-2.69,6.6-5.59,6.6a4.31,4.31,0,0,1-3.78-1.93h-.05V393h-2.21Zm2.21,3.28a5.07,5.07,0,0,0,.1.91,3.45,3.45,0,0,0,3.35,2.62c2.36,0,3.74-1.93,3.74-4.75,0-2.47-1.3-4.57-3.66-4.57a3.57,3.57,0,0,0-3.38,2.76,3.93,3.93,0,0,0-.15.92Z"/><path class="cls-3" d="M521.25,382.27c0,3,2,4.27,4.21,4.27a8,8,0,0,0,3.41-.64l.38,1.6a9.89,9.89,0,0,1-4.09.76c-3.78,0-6-2.49-6-6.19s2.18-6.63,5.76-6.63c4,0,5.08,3.53,5.08,5.79a7.43,7.43,0,0,1-.08,1Zm6.55-1.6c0-1.42-.58-3.63-3.1-3.63-2.26,0-3.25,2.08-3.42,3.63Z"/><path class="cls-3" d="M532.73,379.55c0-1.44,0-2.69-.11-3.83h2l.08,2.41h.1a3.68,3.68,0,0,1,3.4-2.69,2.41,2.41,0,0,1,.63.08v2.1a3.33,3.33,0,0,0-.76-.07,3.13,3.13,0,0,0-3,2.87,6.26,6.26,0,0,0-.11,1V388h-2.2Z"/><path class="cls-3" d="M547.71,388l-.18-1.55h-.08a4.58,4.58,0,0,1-3.76,1.83,3.5,3.5,0,0,1-3.75-3.53c0-3,2.64-4.6,7.38-4.57v-.26a2.53,2.53,0,0,0-2.79-2.84,6.23,6.23,0,0,0-3.2.91l-.51-1.47a7.65,7.65,0,0,1,4-1.09c3.76,0,4.67,2.56,4.67,5v4.59a16.55,16.55,0,0,0,.21,2.95Zm-.33-6.27c-2.44-.05-5.21.38-5.21,2.76a2,2,0,0,0,2.11,2.14,3.06,3.06,0,0,0,3-2.06,2.53,2.53,0,0,0,.13-.71Z"/><path class="cls-3" d="M555.73,372.19v3.53h3.2v1.7h-3.2v6.63c0,1.52.43,2.38,1.67,2.38a4.84,4.84,0,0,0,1.3-.15l.1,1.68a5.44,5.44,0,0,1-2,.3,3.09,3.09,0,0,1-2.41-.94,4.52,4.52,0,0,1-.87-3.2v-6.7h-1.9v-1.7h1.9v-3Z"/><path class="cls-3" d="M563.93,372.27a1.39,1.39,0,0,1-2.77,0,1.36,1.36,0,0,1,1.4-1.4A1.33,1.33,0,0,1,563.93,372.27ZM561.44,388V375.72h2.23V388Z"/><path class="cls-3" d="M578.5,381.76c0,4.55-3.15,6.53-6.12,6.53-3.32,0-5.89-2.44-5.89-6.32,0-4.12,2.69-6.53,6.09-6.53S578.5,378,578.5,381.76Zm-9.75.13c0,2.69,1.55,4.72,3.73,4.72s3.74-2,3.74-4.77c0-2.08-1.05-4.72-3.69-4.72S568.75,379.55,568.75,381.89Z"/><path class="cls-3" d="M581.32,379.05c0-1.27,0-2.32-.1-3.33h2l.12,2h.06a4.5,4.5,0,0,1,4.06-2.31c1.7,0,4.34,1,4.34,5.23V388h-2.24v-7.09c0-2-.73-3.63-2.84-3.63a3.17,3.17,0,0,0-3,2.29,3,3,0,0,0-.16,1V388h-2.23Z"/><path class="cls-3" d="M595.1,385.72a5.88,5.88,0,0,0,2.95.89c1.62,0,2.39-.81,2.39-1.83s-.64-1.65-2.29-2.26c-2.21-.78-3.25-2-3.25-3.47,0-2,1.6-3.61,4.24-3.61a6.16,6.16,0,0,1,3,.76l-.56,1.63a4.72,4.72,0,0,0-2.51-.71c-1.32,0-2.06.76-2.06,1.67s.74,1.47,2.34,2.08c2.13.82,3.22,1.88,3.22,3.71,0,2.16-1.67,3.68-4.59,3.68a7,7,0,0,1-3.45-.84Z"/><path class="cls-3" d="M488.14,426.49a25.46,25.46,0,0,1,4.24-.33,7,7,0,0,1,4.8,1.42,4.59,4.59,0,0,1,1.5,3.58,5,5,0,0,1-1.32,3.65,7.07,7.07,0,0,1-5.23,1.88,7.48,7.48,0,0,1-1.78-.15v6.86h-2.21Zm2.21,8.25a7.34,7.34,0,0,0,1.83.18c2.67,0,4.29-1.3,4.29-3.66s-1.6-3.35-4-3.35a8.8,8.8,0,0,0-2.09.18Z"/><path class="cls-3" d="M501.17,434.94c0-1.45,0-2.69-.1-3.83H503l.08,2.41h.1a3.68,3.68,0,0,1,3.4-2.69,2.51,2.51,0,0,1,.64.07V433a3.45,3.45,0,0,0-.76-.07,3.13,3.13,0,0,0-3,2.86,6.46,6.46,0,0,0-.1,1.05v6.55h-2.21Z"/><path class="cls-3" d="M520.34,437.15c0,4.55-3.15,6.53-6.12,6.53-3.33,0-5.89-2.44-5.89-6.33,0-4.11,2.69-6.52,6.09-6.52S520.34,433.39,520.34,437.15Zm-9.75.13c0,2.69,1.55,4.72,3.73,4.72s3.73-2,3.73-4.77c0-2.09-1-4.73-3.68-4.73S510.59,434.94,510.59,437.28Z"/><path class="cls-3" d="M523.84,431.11l2.41,6.9a30.36,30.36,0,0,1,1,3.15h.08c.28-1,.64-2,1-3.15l2.39-6.9h2.33l-4.82,12.29h-2.13l-4.67-12.29Z"/><path class="cls-3" d="M537.68,427.65a1.39,1.39,0,0,1-2.77,0,1.36,1.36,0,0,1,1.4-1.39A1.32,1.32,0,0,1,537.68,427.65Zm-2.49,15.75V431.11h2.23V443.4Z"/><path class="cls-3" d="M540.83,441.11a5.84,5.84,0,0,0,2.94.89c1.63,0,2.39-.81,2.39-1.83s-.64-1.65-2.29-2.26c-2.21-.79-3.25-2-3.25-3.48,0-2,1.6-3.6,4.24-3.6a6.05,6.05,0,0,1,3,.76l-.55,1.62a4.85,4.85,0,0,0-2.52-.71c-1.32,0-2,.77-2,1.68s.73,1.47,2.33,2.08c2.13.81,3.23,1.88,3.23,3.71,0,2.16-1.68,3.68-4.6,3.68a7,7,0,0,1-3.45-.84Z"/><path class="cls-3" d="M553.67,427.65a1.38,1.38,0,1,1-2.76,0,1.36,1.36,0,0,1,1.39-1.39A1.32,1.32,0,0,1,553.67,427.65Zm-2.49,15.75V431.11h2.24V443.4Z"/><path class="cls-3" d="M568.25,437.15c0,4.55-3.15,6.53-6.12,6.53-3.33,0-5.89-2.44-5.89-6.33,0-4.11,2.69-6.52,6.09-6.52S568.25,433.39,568.25,437.15Zm-9.75.13c0,2.69,1.54,4.72,3.73,4.72s3.73-2,3.73-4.77c0-2.09-1-4.73-3.68-4.73S558.5,434.94,558.5,437.28Z"/><path class="cls-3" d="M571.06,434.43c0-1.27,0-2.31-.1-3.32h2l.13,2h0a4.51,4.51,0,0,1,4.06-2.31c1.7,0,4.34,1,4.34,5.23v7.34h-2.23v-7.09c0-2-.74-3.63-2.84-3.63a3.17,3.17,0,0,0-3,2.29,3.26,3.26,0,0,0-.15,1v7.39h-2.24Z"/><path class="cls-3" d="M587.64,427.65a1.38,1.38,0,1,1-2.76,0,1.36,1.36,0,0,1,1.39-1.39A1.32,1.32,0,0,1,587.64,427.65Zm-2.49,15.75V431.11h2.24V443.4Z"/><path class="cls-3" d="M591.09,434.43c0-1.27,0-2.31-.1-3.32h2l.13,2h0a4.51,4.51,0,0,1,4.06-2.31c1.71,0,4.35,1,4.35,5.23v7.34h-2.24v-7.09c0-2-.74-3.63-2.84-3.63a3.17,3.17,0,0,0-3,2.29,3.26,3.26,0,0,0-.15,1v7.39h-2.24Z"/><path class="cls-3" d="M615.77,431.11c0,.89-.1,1.88-.1,3.37v7.14c0,2.82-.56,4.54-1.75,5.61a6.49,6.49,0,0,1-4.47,1.47,8,8,0,0,1-4.09-1l.56-1.7a7,7,0,0,0,3.61,1c2.28,0,4-1.19,4-4.29v-1.37h0a4.4,4.4,0,0,1-3.91,2.06c-3,0-5.23-2.59-5.23-6,0-4.16,2.71-6.52,5.53-6.52a4.12,4.12,0,0,1,3.84,2.13h.05l.1-1.85ZM613.46,436a3.29,3.29,0,0,0-.12-1,3.23,3.23,0,0,0-3.13-2.36c-2.13,0-3.65,1.8-3.65,4.65,0,2.41,1.22,4.41,3.63,4.41a3.27,3.27,0,0,0,3.1-2.28,4.08,4.08,0,0,0,.17-1.19Z"/><path class="cls-3" d="M487.84,496.09a7.83,7.83,0,0,0,4,1.12c2.26,0,3.58-1.19,3.58-2.92s-.91-2.51-3.22-3.4c-2.8-1-4.52-2.44-4.52-4.85,0-2.67,2.21-4.65,5.53-4.65a7.85,7.85,0,0,1,3.79.84l-.61,1.8a6.91,6.91,0,0,0-3.25-.81c-2.34,0-3.23,1.4-3.23,2.56,0,1.6,1,2.39,3.4,3.31,2.9,1.11,4.37,2.51,4.37,5s-1.95,4.93-6,4.93a8.87,8.87,0,0,1-4.37-1.09Z"/><path class="cls-3" d="M510.87,495.43c0,1.27,0,2.39.1,3.35h-2l-.13-2h-.05a4.62,4.62,0,0,1-4.06,2.28c-1.93,0-4.24-1.06-4.24-5.38V486.5h2.23v6.8c0,2.34.71,3.91,2.75,3.91a3.13,3.13,0,0,0,3.14-3.17V486.5h2.24Z"/><path class="cls-3" d="M514.27,496.5a5.87,5.87,0,0,0,2.94.89c1.63,0,2.39-.81,2.39-1.83s-.63-1.65-2.28-2.26c-2.21-.79-3.25-2-3.25-3.48,0-2,1.6-3.6,4.24-3.6a6.11,6.11,0,0,1,3,.76l-.56,1.62a4.81,4.81,0,0,0-2.51-.71c-1.32,0-2.06.76-2.06,1.68s.74,1.47,2.34,2.08c2.13.81,3.22,1.88,3.22,3.71,0,2.16-1.68,3.68-4.6,3.68a7,7,0,0,1-3.45-.84Z"/><path class="cls-3" d="M527.32,483v3.53h3.2v1.7h-3.2v6.62c0,1.53.43,2.39,1.68,2.39a5.27,5.27,0,0,0,1.29-.15l.1,1.67a5.41,5.41,0,0,1-2,.31,3.09,3.09,0,0,1-2.41-.94,4.53,4.53,0,0,1-.86-3.2v-6.7h-1.91v-1.7h1.91v-2.95Z"/><path class="cls-3" d="M534.12,493.05a3.93,3.93,0,0,0,4.22,4.26,8.17,8.17,0,0,0,3.4-.63l.38,1.6A10.06,10.06,0,0,1,538,499c-3.78,0-6-2.49-6-6.2s2.18-6.62,5.76-6.62c4,0,5.08,3.53,5.08,5.79a10.18,10.18,0,0,1-.07,1Zm6.55-1.6c0-1.42-.58-3.63-3.09-3.63-2.26,0-3.25,2.08-3.43,3.63Z"/><path class="cls-3" d="M545.6,489.82c0-1.27,0-2.31-.1-3.32h2l.12,2h.06a4.5,4.5,0,0,1,4.06-2.31c1.7,0,4.34,1,4.34,5.23v7.33h-2.23V491.7c0-2-.74-3.63-2.85-3.63a3.17,3.17,0,0,0-3,2.29,3,3,0,0,0-.16,1v7.38H545.6Z"/><path class="cls-3" d="M566.49,498.78l-.17-1.54h-.08a4.6,4.6,0,0,1-3.76,1.82,3.5,3.5,0,0,1-3.76-3.53c0-3,2.65-4.59,7.39-4.57v-.25a2.53,2.53,0,0,0-2.79-2.84,6.11,6.11,0,0,0-3.2.91l-.51-1.47a7.65,7.65,0,0,1,4-1.09c3.76,0,4.67,2.56,4.67,5v4.6a16.37,16.37,0,0,0,.21,2.94Zm-.33-6.27c-2.43-.05-5.2.38-5.2,2.77a2,2,0,0,0,2.11,2.13,3.06,3.06,0,0,0,3-2.05,2.58,2.58,0,0,0,.12-.71Z"/><path class="cls-3" d="M571.93,489.82c0-1.27,0-2.31-.1-3.32h2l.12,2H574a4.52,4.52,0,0,1,4.07-2.31c1.7,0,4.34,1,4.34,5.23v7.33h-2.24V491.7c0-2-.73-3.63-2.84-3.63a3.18,3.18,0,0,0-3,2.29,3.22,3.22,0,0,0-.15,1v7.38h-2.23Z"/><path class="cls-3" d="M594.78,498.33a8.33,8.33,0,0,1-3.53.71c-3.71,0-6.12-2.51-6.12-6.27a6.24,6.24,0,0,1,6.6-6.53,7.39,7.39,0,0,1,3.1.64l-.51,1.72a5.23,5.23,0,0,0-2.59-.58c-2.82,0-4.34,2.08-4.34,4.65,0,2.84,1.83,4.59,4.26,4.59a6.39,6.39,0,0,0,2.75-.61Z"/><path class="cls-3" d="M598.48,493.05a3.93,3.93,0,0,0,4.22,4.26,8.17,8.17,0,0,0,3.4-.63l.38,1.6a10.06,10.06,0,0,1-4.09.76c-3.78,0-6-2.49-6-6.2s2.18-6.62,5.76-6.62c4,0,5.08,3.53,5.08,5.79a10.18,10.18,0,0,1-.07,1Zm6.55-1.6c0-1.42-.58-3.63-3.09-3.63-2.26,0-3.25,2.08-3.43,3.63Z"/><circle class="cls-4" cx="459.48" cy="215" r="4.5"/><circle class="cls-4" cx="459.48" cy="270.31" r="4.5"/><circle class="cls-4" cx="459.48" cy="324.63" r="4.5"/><circle class="cls-4" cx="459.48" cy="378.94" r="4.5"/><circle class="cls-4" cx="459.48" cy="434.25" r="4.5"/><polygon class="cls-5" points="796.26 0.16 796.26 554.84 1238 554.84 1238 0 796.26 0.16"/><line class="cls-6" x1="813.24" y1="171" x2="1213.24" y2="170.93"/><path class="cls-3" d="M941.64,59.62a42.51,42.51,0,0,1,6.63-.47c4.26,0,7.21.88,9.31,2.64s3.55,4.5,3.55,8.39c0,4.06-1.39,7.11-3.55,9.07s-5.89,3.11-10.33,3.11a45.36,45.36,0,0,1-5.61-.3ZM945.8,79a15.66,15.66,0,0,0,2.3.1c5.42,0,8.63-3,8.63-8.73,0-5-2.88-7.92-8.09-7.92a13.74,13.74,0,0,0-2.84.23Z"/><path class="cls-3" d="M967.53,75.05c.1,3,2.44,4.27,5.08,4.27a12.28,12.28,0,0,0,4.57-.75l.61,2.88a15.49,15.49,0,0,1-5.76,1c-5.34,0-8.49-3.29-8.49-8.33,0-4.57,2.77-8.87,8.05-8.87s7.11,4.4,7.11,8a9.88,9.88,0,0,1-.14,1.76Zm7.24-2.91c0-1.52-.64-4-3.41-4-2.58,0-3.66,2.33-3.83,4Z"/><path class="cls-3" d="M982.05,58.1h4.2v24h-4.2Z"/><path class="cls-3" d="M995.19,61a2.22,2.22,0,0,1-2.37,2.24,2.19,2.19,0,0,1-2.3-2.24,2.34,2.34,0,0,1,4.67,0Zm-4.44,21.09V65.64H995V82.13Z"/><path class="cls-3" d="M1002.06,65.64l2.67,8.36c.48,1.46.81,2.78,1.12,4.13h.1c.31-1.35.68-2.64,1.12-4.13l2.6-8.36h4.4l-6.29,16.49h-4.1l-6.12-16.49Z"/><path class="cls-3" d="M1019.12,75.05c.1,3,2.44,4.27,5.08,4.27a12.28,12.28,0,0,0,4.57-.75l.61,2.88a15.49,15.49,0,0,1-5.76,1c-5.35,0-8.49-3.29-8.49-8.33,0-4.57,2.77-8.87,8-8.87s7.11,4.4,7.11,8a9.88,9.88,0,0,1-.14,1.76Zm7.24-2.91c0-1.52-.64-4-3.42-4-2.57,0-3.65,2.33-3.82,4Z"/><path class="cls-3" d="M1033.64,71c0-2.24,0-3.83-.13-5.32h3.62l.13,3.15h.14a4.92,4.92,0,0,1,4.5-3.52,4.84,4.84,0,0,1,1,.1V69.3a5.62,5.62,0,0,0-1.22-.14,3.67,3.67,0,0,0-3.72,3.15,6.94,6.94,0,0,0-.13,1.29v8.53h-4.17Z"/><path class="cls-3" d="M1049,65.64l3,8.84c.34,1,.68,2.27.92,3.21h.1c.27-.94.57-2.16.88-3.25l2.57-8.8H1061l-4.13,11.24c-2.27,6.16-3.79,8.9-5.76,10.59a8.37,8.37,0,0,1-4.36,2.14l-1-3.52a7.48,7.48,0,0,0,4.71-3.76,1.77,1.77,0,0,0,.27-.74,1.86,1.86,0,0,0-.24-.82l-6-15.13Z"/><path class="cls-3" d="M941.47,104.4c0-1.89,0-3.48-.14-4.9h3.59l.17,2.43h.1a5.71,5.71,0,0,1,5.08-2.81,4.74,4.74,0,0,1,4.56,3h.07a6.25,6.25,0,0,1,2-2.06,5.49,5.49,0,0,1,3.32-1c2.74,0,5.52,1.87,5.52,7.15V116h-4.06v-9.11c0-2.74-1-4.36-3-4.36a3.17,3.17,0,0,0-2.91,2.2,6,6,0,0,0-.2,1.39V116h-4.06v-9.55c0-2.3-.92-3.92-2.85-3.92a3.27,3.27,0,0,0-3,2.37,3.72,3.72,0,0,0-.23,1.35V116h-4.06Z"/><path class="cls-3" d="M985.84,107.58c0,6.06-4.26,8.77-8.46,8.77-4.67,0-8.26-3.21-8.26-8.49s3.56-8.74,8.53-8.74S985.84,102.58,985.84,107.58Zm-12.42.17c0,3.19,1.56,5.59,4.1,5.59,2.37,0,4-2.34,4-5.65,0-2.58-1.15-5.52-4-5.52S973.42,105,973.42,107.75Z"/><path class="cls-3" d="M1004.46,92v19.39c0,1.69.07,3.52.14,4.64h-3.73l-.17-2.61h-.06a6,6,0,0,1-5.39,3c-3.92,0-7-3.35-7-8.43,0-5.51,3.42-8.8,7.38-8.8a5.25,5.25,0,0,1,4.64,2.17h.07V92Zm-4.16,14.42a6.7,6.7,0,0,0-.1-1.09,3.66,3.66,0,0,0-3.59-2.94c-2.68,0-4.16,2.37-4.16,5.45s1.48,5.21,4.12,5.21a3.66,3.66,0,0,0,3.59-2.94,4.75,4.75,0,0,0,.14-1.22Z"/><path class="cls-3" d="M1011.88,108.91c.1,3,2.43,4.26,5.07,4.26a12.24,12.24,0,0,0,4.57-.75l.61,2.88a15.39,15.39,0,0,1-5.75,1c-5.35,0-8.5-3.29-8.5-8.33,0-4.57,2.78-8.87,8.06-8.87s7.1,4.4,7.1,8a10.27,10.27,0,0,1-.13,1.76Zm7.24-2.92c0-1.52-.64-4-3.42-4-2.57,0-3.66,2.33-3.82,4Z"/><path class="cls-3" d="M1026.4,92h4.2v24h-4.2Z"/><path class="cls-3" d="M1034.89,112.15a9.28,9.28,0,0,0,4.24,1.19c1.82,0,2.63-.75,2.63-1.83s-.67-1.69-2.7-2.4c-3.22-1.12-4.57-2.88-4.54-4.81,0-2.91,2.41-5.18,6.23-5.18a9.66,9.66,0,0,1,4.37,1l-.82,2.94a7.34,7.34,0,0,0-3.48-1c-1.49,0-2.3.71-2.3,1.73s.77,1.56,2.87,2.3c3,1.08,4.37,2.61,4.4,5,0,3-2.33,5.15-6.7,5.15a10.72,10.72,0,0,1-5-1.15Z"/><path class="cls-3" d="M865.67,204.73v17.11h-2.21V204.73Z"/><path class="cls-3" d="M869.71,212.88c0-1.27,0-2.31-.1-3.33h2l.12,2h0a4.54,4.54,0,0,1,4.07-2.31c1.7,0,4.34,1,4.34,5.23v7.34h-2.24v-7.08c0-2-.73-3.63-2.84-3.63a3.18,3.18,0,0,0-3,2.28,3.26,3.26,0,0,0-.15,1v7.39h-2.23Z"/><path class="cls-3" d="M884,221.84V211.25H882.3v-1.7H884V209a5.79,5.79,0,0,1,1.42-4.29,4.27,4.27,0,0,1,3-1.14,5.16,5.16,0,0,1,1.91.35l-.31,1.73a3.34,3.34,0,0,0-1.42-.28c-1.9,0-2.38,1.67-2.38,3.55v.66h3v1.7h-3v10.59Z"/><path class="cls-3" d="M891.21,213.39c0-1.45,0-2.69-.1-3.84h1.95l.08,2.42h.1a3.7,3.7,0,0,1,3.4-2.7,2.43,2.43,0,0,1,.64.08v2.11a3.41,3.41,0,0,0-.76-.08,3.14,3.14,0,0,0-3,2.87,6.44,6.44,0,0,0-.1,1v6.55h-2.21Z"/><path class="cls-3" d="M906.19,221.84l-.18-1.55h-.07a4.58,4.58,0,0,1-3.76,1.83,3.5,3.5,0,0,1-3.76-3.53c0-3,2.64-4.59,7.39-4.57v-.25a2.54,2.54,0,0,0-2.79-2.85,6.09,6.09,0,0,0-3.2.92l-.51-1.47a7.65,7.65,0,0,1,4-1.1c3.75,0,4.67,2.57,4.67,5v4.6a17.57,17.57,0,0,0,.2,2.94Zm-.33-6.27c-2.44,0-5.2.38-5.2,2.77a2,2,0,0,0,2.1,2.13,3,3,0,0,0,3-2.06,2.17,2.17,0,0,0,.13-.71Z"/><path class="cls-3" d="M911.32,219.56a5.87,5.87,0,0,0,2.94.89c1.63,0,2.39-.82,2.39-1.83s-.63-1.65-2.28-2.26c-2.21-.79-3.25-2-3.25-3.48,0-2,1.59-3.61,4.24-3.61a6.11,6.11,0,0,1,3,.77l-.56,1.62a4.82,4.82,0,0,0-2.52-.71c-1.32,0-2,.76-2,1.68s.73,1.47,2.33,2.08c2.14.81,3.23,1.88,3.23,3.7,0,2.16-1.68,3.69-4.6,3.69a7,7,0,0,1-3.45-.84Z"/><path class="cls-3" d="M924.37,206v3.53h3.2v1.7h-3.2v6.63c0,1.53.43,2.39,1.67,2.39a5.29,5.29,0,0,0,1.3-.15l.1,1.67a5.41,5.41,0,0,1-2,.31,3.09,3.09,0,0,1-2.41-.94,4.52,4.52,0,0,1-.87-3.2v-6.71h-1.9v-1.7h1.9v-2.94Z"/><path class="cls-3" d="M930.08,213.39c0-1.45,0-2.69-.1-3.84h1.95L932,212h.1a3.7,3.7,0,0,1,3.4-2.7,2.43,2.43,0,0,1,.64.08v2.11a3.41,3.41,0,0,0-.76-.08,3.14,3.14,0,0,0-3,2.87,6.44,6.44,0,0,0-.1,1v6.55h-2.21Z"/><path class="cls-3" d="M948.67,218.49c0,1.27,0,2.39.1,3.35h-2l-.13-2h0a4.63,4.63,0,0,1-4.06,2.28c-1.93,0-4.24-1.06-4.24-5.38v-7.19h2.23v6.81c0,2.33.71,3.91,2.74,3.91a3.24,3.24,0,0,0,3-2,3.46,3.46,0,0,0,.2-1.15v-7.54h2.24Z"/><path class="cls-3" d="M961.13,221.39a8.3,8.3,0,0,1-3.53.71c-3.71,0-6.12-2.52-6.12-6.27a6.24,6.24,0,0,1,6.6-6.53,7.57,7.57,0,0,1,3.1.63l-.51,1.73a5.23,5.23,0,0,0-2.59-.58c-2.81,0-4.34,2.08-4.34,4.64,0,2.85,1.83,4.6,4.27,4.6a6.31,6.31,0,0,0,2.74-.61Z"/><path class="cls-3" d="M966.77,206v3.53H970v1.7h-3.2v6.63c0,1.53.43,2.39,1.67,2.39a5.29,5.29,0,0,0,1.3-.15l.1,1.67a5.41,5.41,0,0,1-2,.31,3.09,3.09,0,0,1-2.41-.94,4.52,4.52,0,0,1-.87-3.2v-6.71h-1.9v-1.7h1.9v-2.94Z"/><path class="cls-3" d="M982.76,218.49c0,1.27,0,2.39.1,3.35h-2l-.12-2h0a4.63,4.63,0,0,1-4.07,2.28c-1.93,0-4.24-1.06-4.24-5.38v-7.19h2.24v6.81c0,2.33.71,3.91,2.74,3.91a3.16,3.16,0,0,0,3.15-3.18v-7.54h2.23Z"/><path class="cls-3" d="M986.47,213.39c0-1.45,0-2.69-.1-3.84h2l.08,2.42h.1a3.69,3.69,0,0,1,3.4-2.7,2.49,2.49,0,0,1,.64.08v2.11a3.44,3.44,0,0,0-.77-.08,3.13,3.13,0,0,0-3,2.87,6.44,6.44,0,0,0-.1,1v6.55h-2.21Z"/><path class="cls-3" d="M995.76,216.1c0,3,2,4.27,4.21,4.27a8.22,8.22,0,0,0,3.41-.63l.38,1.59a9.85,9.85,0,0,1-4.09.77c-3.78,0-6-2.49-6-6.2s2.18-6.63,5.76-6.63c4,0,5.08,3.53,5.08,5.79a7.3,7.3,0,0,1-.08,1Zm6.55-1.6c0-1.42-.58-3.63-3.1-3.63-2.26,0-3.25,2.09-3.42,3.63Z"/><path class="cls-3" d="M1013.13,214.15v1.65h-6.28v-1.65Z"/><path class="cls-3" d="M1022.54,221.84l-.17-1.55h-.08a4.55,4.55,0,0,1-3.76,1.83,3.49,3.49,0,0,1-3.75-3.53c0-3,2.64-4.59,7.38-4.57v-.25a2.54,2.54,0,0,0-2.79-2.85,6.14,6.14,0,0,0-3.2.92l-.51-1.47a7.65,7.65,0,0,1,4-1.1c3.76,0,4.67,2.57,4.67,5v4.6a16.51,16.51,0,0,0,.21,2.94Zm-.33-6.27c-2.43,0-5.2.38-5.2,2.77a2,2,0,0,0,2.11,2.13,3.05,3.05,0,0,0,3-2.06,2.46,2.46,0,0,0,.12-.71Z"/><path class="cls-3" d="M1027.67,219.56a5.88,5.88,0,0,0,2.95.89c1.62,0,2.38-.82,2.38-1.83s-.63-1.65-2.28-2.26c-2.21-.79-3.25-2-3.25-3.48,0-2,1.6-3.61,4.24-3.61a6.08,6.08,0,0,1,3,.77l-.56,1.62a4.81,4.81,0,0,0-2.51-.71c-1.32,0-2.06.76-2.06,1.68s.74,1.47,2.34,2.08c2.13.81,3.22,1.88,3.22,3.7,0,2.16-1.67,3.69-4.59,3.69a7,7,0,0,1-3.46-.84Z"/><path class="cls-3" d="M1043.21,214.15v1.65h-6.27v-1.65Z"/><path class="cls-3" d="M1052.63,221.84l-.18-1.55h-.07a4.58,4.58,0,0,1-3.76,1.83,3.5,3.5,0,0,1-3.76-3.53c0-3,2.64-4.59,7.39-4.57v-.25a2.54,2.54,0,0,0-2.79-2.85,6.09,6.09,0,0,0-3.2.92l-.51-1.47a7.62,7.62,0,0,1,4-1.1c3.75,0,4.67,2.57,4.67,5v4.6a17.57,17.57,0,0,0,.2,2.94Zm-.33-6.27c-2.44,0-5.21.38-5.21,2.77a2,2,0,0,0,2.11,2.13,3,3,0,0,0,3-2.06,2.17,2.17,0,0,0,.13-.71Z"/><path class="cls-3" d="M1063.24,214.15v1.65H1057v-1.65Z"/><path class="cls-3" d="M1065.63,219.15a7.83,7.83,0,0,0,4,1.12c2.26,0,3.58-1.19,3.58-2.92s-.92-2.52-3.23-3.4c-2.79-1-4.52-2.44-4.52-4.85,0-2.67,2.21-4.65,5.54-4.65a7.78,7.78,0,0,1,3.78.84l-.61,1.8a6.84,6.84,0,0,0-3.25-.81c-2.33,0-3.22,1.39-3.22,2.56,0,1.6,1,2.39,3.4,3.3,2.9,1.12,4.37,2.52,4.37,5s-2,4.93-6,4.93a8.83,8.83,0,0,1-4.37-1.1Z"/><path class="cls-3" d="M1079.77,216.1c0,3,2,4.27,4.21,4.27a8.22,8.22,0,0,0,3.41-.63l.38,1.59a9.89,9.89,0,0,1-4.09.77c-3.78,0-6-2.49-6-6.2s2.18-6.63,5.76-6.63c4,0,5.08,3.53,5.08,5.79a7.3,7.3,0,0,1-.08,1Zm6.55-1.6c0-1.42-.58-3.63-3.1-3.63-2.26,0-3.25,2.09-3.43,3.63Z"/><path class="cls-3" d="M1091.25,213.39c0-1.45,0-2.69-.11-3.84h2l.07,2.42h.11a3.68,3.68,0,0,1,3.4-2.7,2.41,2.41,0,0,1,.63.08v2.11a3.34,3.34,0,0,0-.76-.08,3.13,3.13,0,0,0-3,2.87,5.44,5.44,0,0,0-.11,1v6.55h-2.2Z"/><path class="cls-3" d="M1101,209.55l2.42,6.91c.4,1.12.73,2.13,1,3.15h.07c.28-1,.64-2,1-3.15l2.39-6.91h2.34l-4.83,12.29h-2.13l-4.67-12.29Z"/><path class="cls-3" d="M1114.88,206.1a1.31,1.31,0,0,1-1.42,1.37,1.33,1.33,0,0,1-1.35-1.37,1.37,1.37,0,0,1,1.4-1.4A1.33,1.33,0,0,1,1114.88,206.1Zm-2.49,15.74V209.55h2.24v12.29Z"/><path class="cls-3" d="M1127.09,221.39a8.3,8.3,0,0,1-3.53.71c-3.7,0-6.12-2.52-6.12-6.27a6.25,6.25,0,0,1,6.61-6.53,7.52,7.52,0,0,1,3.09.63l-.5,1.73a5.29,5.29,0,0,0-2.59-.58c-2.82,0-4.35,2.08-4.35,4.64,0,2.85,1.83,4.6,4.27,4.6a6.31,6.31,0,0,0,2.74-.61Z"/><path class="cls-3" d="M1130.8,216.1c0,3,2,4.27,4.21,4.27a8.22,8.22,0,0,0,3.41-.63l.38,1.59a9.85,9.85,0,0,1-4.09.77c-3.78,0-6-2.49-6-6.2s2.18-6.63,5.76-6.63c4,0,5.08,3.53,5.08,5.79a7.3,7.3,0,0,1-.08,1Zm6.55-1.6c0-1.42-.58-3.63-3.1-3.63-2.26,0-3.25,2.09-3.42,3.63Z"/><path class="cls-3" d="M1152.51,204.22a16.71,16.71,0,0,0-3.2,10.39,17,17,0,0,0,3.2,10.3h-1.76a16.43,16.43,0,0,1-3.32-10.3,16.78,16.78,0,0,1,3.32-10.39Z"/><path class="cls-3" d="M1157.15,204.73v17.11h-2.21V204.73Z"/><path class="cls-3" d="M1167.74,221.84l-.18-1.55h-.07a4.58,4.58,0,0,1-3.76,1.83,3.5,3.5,0,0,1-3.76-3.53c0-3,2.64-4.59,7.39-4.57v-.25a2.54,2.54,0,0,0-2.79-2.85,6.09,6.09,0,0,0-3.2.92l-.51-1.47a7.62,7.62,0,0,1,4-1.1c3.75,0,4.67,2.57,4.67,5v4.6a17.57,17.57,0,0,0,.2,2.94Zm-.33-6.27c-2.44,0-5.21.38-5.21,2.77a2,2,0,0,0,2.11,2.13,3,3,0,0,0,3-2.06,2.17,2.17,0,0,0,.13-.71Z"/><path class="cls-3" d="M1180,221.84l-.18-1.55h-.08a4.55,4.55,0,0,1-3.76,1.83,3.5,3.5,0,0,1-3.75-3.53c0-3,2.64-4.59,7.39-4.57v-.25a2.54,2.54,0,0,0-2.8-2.85,6.14,6.14,0,0,0-3.2.92l-.5-1.47a7.59,7.59,0,0,1,4-1.1c3.76,0,4.67,2.57,4.67,5v4.6a17.5,17.5,0,0,0,.21,2.94Zm-.33-6.27c-2.44,0-5.21.38-5.21,2.77a2,2,0,0,0,2.11,2.13,3.05,3.05,0,0,0,3-2.06,2.17,2.17,0,0,0,.13-.71Z"/><path class="cls-3" d="M1185.18,219.15a7.83,7.83,0,0,0,4,1.12c2.26,0,3.58-1.19,3.58-2.92s-.91-2.52-3.22-3.4c-2.8-1-4.52-2.44-4.52-4.85,0-2.67,2.21-4.65,5.53-4.65a7.85,7.85,0,0,1,3.79.84l-.61,1.8a6.88,6.88,0,0,0-3.25-.81c-2.34,0-3.23,1.39-3.23,2.56,0,1.6,1,2.39,3.4,3.3,2.9,1.12,4.37,2.52,4.37,5s-2,4.93-6,4.93a8.86,8.86,0,0,1-4.37-1.1Z"/><path class="cls-3" d="M1196.58,224.91a17.18,17.18,0,0,0,3.2-10.38,16.85,16.85,0,0,0-3.2-10.31h1.73a16.2,16.2,0,0,1,3.32,10.34,16.48,16.48,0,0,1-3.32,10.35Z"/><path class="cls-3" d="M863.46,260.32a25.36,25.36,0,0,1,4.24-.33,7,7,0,0,1,4.8,1.42A4.62,4.62,0,0,1,874,265a5.06,5.06,0,0,1-1.32,3.66,7.11,7.11,0,0,1-5.23,1.88,8,8,0,0,1-1.78-.15v6.85h-2.21Zm2.21,8.25a7.24,7.24,0,0,0,1.83.18c2.67,0,4.29-1.29,4.29-3.66s-1.6-3.35-4-3.35a9.33,9.33,0,0,0-2.08.18Z"/><path class="cls-3" d="M876.77,259.2H879v18h-2.23Z"/><path class="cls-3" d="M889.56,277.23l-.18-1.55h-.07a4.58,4.58,0,0,1-3.76,1.83,3.5,3.5,0,0,1-3.76-3.53c0-3,2.64-4.59,7.39-4.57v-.25a2.54,2.54,0,0,0-2.79-2.85,6.11,6.11,0,0,0-3.2.92l-.51-1.48a7.65,7.65,0,0,1,4-1.09c3.76,0,4.67,2.57,4.67,5v4.6a17.57,17.57,0,0,0,.2,2.94Zm-.33-6.27c-2.44,0-5.2.38-5.2,2.77a2,2,0,0,0,2.1,2.13,3.05,3.05,0,0,0,3-2.06,2.17,2.17,0,0,0,.13-.71Z"/><path class="cls-3" d="M897.58,261.41v3.53h3.2v1.7h-3.2v6.63c0,1.52.44,2.39,1.68,2.39a4.67,4.67,0,0,0,1.29-.16l.11,1.68a5.45,5.45,0,0,1-2,.31,3.11,3.11,0,0,1-2.42-.94,4.59,4.59,0,0,1-.86-3.2v-6.71h-1.9v-1.7h1.9V262Z"/><path class="cls-3" d="M903.52,277.23V266.64H901.8v-1.7h1.72v-.58a5.79,5.79,0,0,1,1.43-4.29,4.22,4.22,0,0,1,3-1.15,5.14,5.14,0,0,1,1.91.36l-.31,1.73a3.23,3.23,0,0,0-1.42-.28c-1.9,0-2.39,1.67-2.39,3.55v.66h3v1.7h-3v10.59Z"/><path class="cls-3" d="M921.5,271c0,4.54-3.15,6.52-6.12,6.52-3.32,0-5.89-2.44-5.89-6.32,0-4.11,2.69-6.53,6.09-6.53S921.5,267.23,921.5,271Zm-9.75.12c0,2.69,1.55,4.72,3.73,4.72s3.74-2,3.74-4.77c0-2.08-1.05-4.72-3.69-4.72S911.75,268.78,911.75,271.11Z"/><path class="cls-3" d="M924.32,268.78c0-1.45,0-2.7-.1-3.84h1.95l.08,2.41h.1a3.68,3.68,0,0,1,3.4-2.69,2.49,2.49,0,0,1,.64.08v2.11a3.41,3.41,0,0,0-.76-.08,3.13,3.13,0,0,0-3,2.87,6.33,6.33,0,0,0-.1,1v6.55h-2.21Z"/><path class="cls-3" d="M932.72,268.27c0-1.27,0-2.31-.1-3.33h2l.1,2h.07a4.24,4.24,0,0,1,3.86-2.26,3.63,3.63,0,0,1,3.48,2.47h0a5,5,0,0,1,1.37-1.6,4.2,4.2,0,0,1,2.72-.87c1.62,0,4,1.07,4,5.33v7.24h-2.19v-7c0-2.36-.86-3.78-2.66-3.78a2.89,2.89,0,0,0-2.64,2,3.46,3.46,0,0,0-.18,1.12v7.59h-2.18v-7.36c0-2-.87-3.38-2.57-3.38a3.06,3.06,0,0,0-2.77,2.24,3.23,3.23,0,0,0-.17,1.09v7.41h-2.19Z"/><path class="cls-3" d="M959.08,269.54v1.65H952.8v-1.65Z"/><path class="cls-3" d="M968.49,277.23l-.17-1.55h-.08a4.58,4.58,0,0,1-3.76,1.83,3.5,3.5,0,0,1-3.76-3.53c0-3,2.65-4.59,7.39-4.57v-.25a2.54,2.54,0,0,0-2.79-2.85,6.11,6.11,0,0,0-3.2.92l-.51-1.48a7.65,7.65,0,0,1,4-1.09c3.76,0,4.67,2.57,4.67,5v4.6a16.51,16.51,0,0,0,.21,2.94Zm-.33-6.27c-2.43,0-5.2.38-5.2,2.77a2,2,0,0,0,2.11,2.13,3.06,3.06,0,0,0,3-2.06,2.46,2.46,0,0,0,.12-.71Z"/><path class="cls-3" d="M973.62,275a5.88,5.88,0,0,0,3,.88c1.62,0,2.38-.81,2.38-1.82s-.63-1.65-2.28-2.26c-2.21-.79-3.25-2-3.25-3.48,0-2,1.6-3.61,4.24-3.61a6.19,6.19,0,0,1,3,.76l-.56,1.63a4.72,4.72,0,0,0-2.51-.71c-1.32,0-2.06.76-2.06,1.67s.74,1.48,2.34,2.09c2.13.81,3.22,1.88,3.22,3.7,0,2.16-1.67,3.69-4.59,3.69a7,7,0,0,1-3.46-.84Z"/><path class="cls-3" d="M989.16,269.54v1.65h-6.27v-1.65Z"/><path class="cls-3" d="M998.58,277.23l-.18-1.55h-.07a4.58,4.58,0,0,1-3.76,1.83,3.5,3.5,0,0,1-3.76-3.53c0-3,2.64-4.59,7.39-4.57v-.25a2.54,2.54,0,0,0-2.79-2.85,6.09,6.09,0,0,0-3.2.92l-.51-1.48a7.62,7.62,0,0,1,4-1.09c3.75,0,4.67,2.57,4.67,5v4.6a17.57,17.57,0,0,0,.2,2.94Zm-.33-6.27c-2.44,0-5.21.38-5.21,2.77a2,2,0,0,0,2.11,2.13,3.05,3.05,0,0,0,3-2.06,2.17,2.17,0,0,0,.13-.71Z"/><path class="cls-3" d="M1009.19,269.54v1.65h-6.27v-1.65Z"/><path class="cls-3" d="M1011.58,274.54a7.8,7.8,0,0,0,4,1.12c2.26,0,3.58-1.2,3.58-2.92s-.92-2.52-3.23-3.41c-2.79-1-4.52-2.43-4.52-4.84,0-2.67,2.21-4.65,5.54-4.65a7.66,7.66,0,0,1,3.78.84l-.61,1.8a6.76,6.76,0,0,0-3.25-.81c-2.33,0-3.22,1.39-3.22,2.56,0,1.6,1,2.39,3.4,3.3,2.9,1.12,4.37,2.52,4.37,5s-2,4.93-6,4.93a8.83,8.83,0,0,1-4.37-1.1Z"/><path class="cls-3" d="M1025.72,271.49c0,3,2,4.27,4.21,4.27a8,8,0,0,0,3.41-.64l.38,1.6a9.89,9.89,0,0,1-4.09.77c-3.78,0-6-2.49-6-6.2s2.18-6.63,5.76-6.63c4,0,5.08,3.53,5.08,5.79a7.43,7.43,0,0,1-.08,1Zm6.55-1.6c0-1.42-.58-3.63-3.1-3.63-2.26,0-3.25,2.08-3.43,3.63Z"/><path class="cls-3" d="M1037.19,268.78c0-1.45,0-2.7-.1-3.84h2l.07,2.41h.11a3.67,3.67,0,0,1,3.4-2.69,2.41,2.41,0,0,1,.63.08v2.11a3.34,3.34,0,0,0-.76-.08,3.14,3.14,0,0,0-3,2.87,6.33,6.33,0,0,0-.1,1v6.55h-2.21Z"/><path class="cls-3" d="M1047,264.94l2.42,6.91c.4,1.12.73,2.13,1,3.15h.07c.28-1,.64-2,1-3.15l2.39-6.91h2.34l-4.83,12.29h-2.13l-4.67-12.29Z"/><path class="cls-3" d="M1060.83,261.49a1.31,1.31,0,0,1-1.42,1.37,1.33,1.33,0,0,1-1.35-1.37,1.37,1.37,0,0,1,1.4-1.4A1.33,1.33,0,0,1,1060.83,261.49Zm-2.49,15.74V264.94h2.24v12.29Z"/><path class="cls-3" d="M1073,276.77a8.11,8.11,0,0,1-3.53.72c-3.7,0-6.12-2.52-6.12-6.28a6.24,6.24,0,0,1,6.61-6.52,7.52,7.52,0,0,1,3.09.63l-.51,1.73a5.1,5.1,0,0,0-2.58-.58c-2.82,0-4.35,2.08-4.35,4.64,0,2.85,1.83,4.6,4.27,4.6a6.31,6.31,0,0,0,2.74-.61Z"/><path class="cls-3" d="M1076.75,271.49c0,3,2,4.27,4.21,4.27a8,8,0,0,0,3.41-.64l.38,1.6a9.89,9.89,0,0,1-4.09.77c-3.78,0-6-2.49-6-6.2s2.18-6.63,5.76-6.63c4,0,5.08,3.53,5.08,5.79a7.43,7.43,0,0,1-.08,1Zm6.55-1.6c0-1.42-.59-3.63-3.1-3.63-2.26,0-3.25,2.08-3.43,3.63Z"/><path class="cls-3" d="M1098.46,259.61a16.7,16.7,0,0,0-3.2,10.38,17.07,17.07,0,0,0,3.2,10.31h-1.76a16.38,16.38,0,0,1-3.32-10.31,16.71,16.71,0,0,1,3.32-10.38Z"/><path class="cls-3" d="M1100.89,260.32a25.36,25.36,0,0,1,4.24-.33,7,7,0,0,1,4.8,1.42,4.62,4.62,0,0,1,1.5,3.58,5.06,5.06,0,0,1-1.32,3.66,7.11,7.11,0,0,1-5.23,1.88,8,8,0,0,1-1.78-.15v6.85h-2.21Zm2.21,8.25a7.24,7.24,0,0,0,1.83.18c2.66,0,4.29-1.29,4.29-3.66s-1.6-3.35-4-3.35a9.33,9.33,0,0,0-2.08.18Z"/><path class="cls-3" d="M1120.47,277.23l-.18-1.55h-.08a4.54,4.54,0,0,1-3.75,1.83,3.5,3.5,0,0,1-3.76-3.53c0-3,2.64-4.59,7.39-4.57v-.25a2.54,2.54,0,0,0-2.8-2.85,6.14,6.14,0,0,0-3.2.92l-.5-1.48a7.61,7.61,0,0,1,4-1.09c3.76,0,4.68,2.57,4.68,5v4.6a17.57,17.57,0,0,0,.2,2.94Zm-.33-6.27c-2.44,0-5.21.38-5.21,2.77a2,2,0,0,0,2.11,2.13,3.05,3.05,0,0,0,3-2.06,2.17,2.17,0,0,0,.13-.71Z"/><path class="cls-3" d="M1132.71,277.23l-.18-1.55h-.08a4.55,4.55,0,0,1-3.76,1.83,3.5,3.5,0,0,1-3.75-3.53c0-3,2.64-4.59,7.38-4.57v-.25a2.54,2.54,0,0,0-2.79-2.85,6.14,6.14,0,0,0-3.2.92l-.51-1.48a7.65,7.65,0,0,1,4-1.09c3.76,0,4.67,2.57,4.67,5v4.6a16.51,16.51,0,0,0,.21,2.94Zm-.33-6.27c-2.44,0-5.21.38-5.21,2.77a2,2,0,0,0,2.11,2.13,3.06,3.06,0,0,0,3-2.06,2.47,2.47,0,0,0,.13-.71Z"/><path class="cls-3" d="M1137.91,274.54a7.83,7.83,0,0,0,4,1.12c2.26,0,3.58-1.2,3.58-2.92s-.91-2.52-3.22-3.41c-2.8-1-4.52-2.43-4.52-4.84,0-2.67,2.21-4.65,5.53-4.65a7.66,7.66,0,0,1,3.78.84l-.6,1.8a6.79,6.79,0,0,0-3.25-.81c-2.34,0-3.23,1.39-3.23,2.56,0,1.6,1,2.39,3.4,3.3,2.9,1.12,4.37,2.52,4.37,5s-2,4.93-6,4.93a8.83,8.83,0,0,1-4.37-1.1Z"/><path class="cls-3" d="M1149.31,280.3a17.18,17.18,0,0,0,3.2-10.38,16.8,16.8,0,0,0-3.2-10.31H1151a16.19,16.19,0,0,1,3.32,10.33A16.49,16.49,0,0,1,1151,280.3Z"/><path class="cls-3" d="M863.16,329.93a7.8,7.8,0,0,0,4,1.12c2.26,0,3.58-1.2,3.58-2.92s-.92-2.52-3.23-3.41c-2.79-1-4.52-2.43-4.52-4.85,0-2.66,2.21-4.64,5.54-4.64a7.79,7.79,0,0,1,3.78.83l-.61,1.81a6.76,6.76,0,0,0-3.25-.81c-2.33,0-3.22,1.39-3.22,2.56,0,1.6,1,2.39,3.4,3.3,2.9,1.12,4.37,2.51,4.37,5s-2,4.92-6,4.92a8.84,8.84,0,0,1-4.37-1.09Z"/><path class="cls-3" d="M887.18,326.37c0,4.55-3.15,6.53-6.12,6.53-3.33,0-5.89-2.44-5.89-6.32,0-4.12,2.69-6.53,6.09-6.53S887.18,322.62,887.18,326.37Zm-9.75.13c0,2.69,1.54,4.72,3.73,4.72s3.73-2,3.73-4.77c0-2.08-1-4.72-3.68-4.72S877.43,324.16,877.43,326.5Z"/><path class="cls-3" d="M890.22,332.62V322H888.5v-1.7h1.72v-.58a5.79,5.79,0,0,1,1.42-4.29,4.26,4.26,0,0,1,3-1.15,5.08,5.08,0,0,1,1.9.36l-.3,1.72a3.4,3.4,0,0,0-1.42-.27c-1.91,0-2.39,1.67-2.39,3.55v.66h3V322h-3v10.59Z"/><path class="cls-3" d="M900.38,316.8v3.53h3.2V322h-3.2v6.63c0,1.52.43,2.39,1.67,2.39a4.76,4.76,0,0,0,1.3-.16l.1,1.68a5.44,5.44,0,0,1-2,.3,3.09,3.09,0,0,1-2.41-.94,4.52,4.52,0,0,1-.87-3.2V322h-1.9v-1.7h1.9v-2.94Z"/><path class="cls-3" d="M907.21,320.33l1.62,6.25c.36,1.37.69,2.64.91,3.91h.08c.28-1.25.69-2.57,1.09-3.89l2-6.27h1.88l1.9,6.14c.46,1.48.81,2.77,1.09,4h.08a35.29,35.29,0,0,1,.94-4l1.75-6.17h2.21l-4,12.29h-2l-1.88-5.87a40.44,40.44,0,0,1-1.09-4h0a38,38,0,0,1-1.12,4.06l-2,5.84h-2l-3.71-12.29Z"/><path class="cls-3" d="M931.71,332.62l-.18-1.55h-.08a4.55,4.55,0,0,1-3.76,1.83,3.5,3.5,0,0,1-3.75-3.53c0-3,2.64-4.6,7.38-4.57v-.25a2.54,2.54,0,0,0-2.79-2.85,6.14,6.14,0,0,0-3.2.92l-.51-1.48a7.65,7.65,0,0,1,4-1.09c3.76,0,4.67,2.57,4.67,5v4.59a16.55,16.55,0,0,0,.21,2.95Zm-.33-6.27c-2.44-.05-5.21.38-5.21,2.77a2,2,0,0,0,2.11,2.13,3.06,3.06,0,0,0,3-2.06,2.53,2.53,0,0,0,.13-.71Z"/><path class="cls-3" d="M937.14,324.16c0-1.44,0-2.69-.1-3.83h2l.08,2.41h.1a3.68,3.68,0,0,1,3.4-2.69,2.49,2.49,0,0,1,.64.08v2.1a3.49,3.49,0,0,0-.77-.07,3.13,3.13,0,0,0-3,2.87,6.33,6.33,0,0,0-.1,1v6.55h-2.21Z"/><path class="cls-3" d="M946.43,326.88c.05,3,2,4.27,4.21,4.27a8,8,0,0,0,3.41-.64l.38,1.6a9.93,9.93,0,0,1-4.09.76c-3.78,0-6-2.48-6-6.19s2.18-6.63,5.76-6.63c4,0,5.08,3.53,5.08,5.79a7.43,7.43,0,0,1-.08,1Zm6.55-1.6c0-1.42-.58-3.63-3.1-3.63-2.26,0-3.25,2.08-3.42,3.63Z"/><path class="cls-3" d="M963.8,324.93v1.65h-6.28v-1.65Z"/><path class="cls-3" d="M973.21,332.62l-.17-1.55H973a4.55,4.55,0,0,1-3.76,1.83,3.49,3.49,0,0,1-3.75-3.53c0-3,2.64-4.6,7.38-4.57v-.25A2.54,2.54,0,0,0,970,321.7a6.14,6.14,0,0,0-3.2.92l-.51-1.48a7.65,7.65,0,0,1,4-1.09c3.76,0,4.67,2.57,4.67,5v4.59a16.55,16.55,0,0,0,.21,2.95Zm-.33-6.27c-2.43-.05-5.2.38-5.2,2.77a2,2,0,0,0,2.11,2.13,3.06,3.06,0,0,0,3-2.06,2.52,2.52,0,0,0,.12-.71Z"/><path class="cls-3" d="M978.34,330.33a5.78,5.78,0,0,0,2.95.89c1.62,0,2.38-.81,2.38-1.83s-.63-1.65-2.28-2.25c-2.21-.79-3.25-2-3.25-3.48,0-2,1.6-3.61,4.24-3.61a6.19,6.19,0,0,1,3,.76l-.56,1.63a4.72,4.72,0,0,0-2.51-.71c-1.32,0-2.06.76-2.06,1.67s.74,1.48,2.34,2.08c2.13.82,3.22,1.88,3.22,3.71,0,2.16-1.67,3.68-4.59,3.68a7.13,7.13,0,0,1-3.46-.83Z"/><path class="cls-3" d="M993.88,324.93v1.65h-6.27v-1.65Z"/><path class="cls-3" d="M1003.3,332.62l-.18-1.55h-.07a4.58,4.58,0,0,1-3.76,1.83,3.5,3.5,0,0,1-3.76-3.53c0-3,2.64-4.6,7.39-4.57v-.25a2.54,2.54,0,0,0-2.79-2.85,6.09,6.09,0,0,0-3.2.92l-.51-1.48a7.62,7.62,0,0,1,4-1.09c3.75,0,4.67,2.57,4.67,5v4.59a17.62,17.62,0,0,0,.2,2.95Zm-.33-6.27c-2.44-.05-5.21.38-5.21,2.77a2,2,0,0,0,2.11,2.13,3.05,3.05,0,0,0,3-2.06,2.22,2.22,0,0,0,.13-.71Z"/><path class="cls-3" d="M1013.91,324.93v1.65h-6.27v-1.65Z"/><path class="cls-3" d="M1016.3,329.93a7.83,7.83,0,0,0,4,1.12c2.26,0,3.58-1.2,3.58-2.92s-.92-2.52-3.23-3.41c-2.79-1-4.52-2.43-4.52-4.85,0-2.66,2.21-4.64,5.54-4.64a7.79,7.79,0,0,1,3.78.83l-.61,1.81a6.72,6.72,0,0,0-3.25-.81c-2.33,0-3.22,1.39-3.22,2.56,0,1.6,1,2.39,3.4,3.3,2.9,1.12,4.37,2.51,4.37,5s-2,4.92-6,4.92a8.84,8.84,0,0,1-4.37-1.09Z"/><path class="cls-3" d="M1030.44,326.88c0,3,2,4.27,4.21,4.27a8,8,0,0,0,3.41-.64l.38,1.6a9.93,9.93,0,0,1-4.09.76c-3.78,0-6-2.48-6-6.19s2.18-6.63,5.76-6.63c4,0,5.08,3.53,5.08,5.79a7.43,7.43,0,0,1-.08,1Zm6.55-1.6c0-1.42-.58-3.63-3.1-3.63-2.26,0-3.25,2.08-3.43,3.63Z"/><path class="cls-3" d="M1041.92,324.16c0-1.44,0-2.69-.11-3.83h2l.07,2.41h.11a3.67,3.67,0,0,1,3.4-2.69,2.41,2.41,0,0,1,.63.08v2.1a3.39,3.39,0,0,0-.76-.07,3.13,3.13,0,0,0-3,2.87,5.35,5.35,0,0,0-.11,1v6.55h-2.2Z"/><path class="cls-3" d="M1051.71,320.33l2.42,6.91c.4,1.11.73,2.13,1,3.15h.07c.28-1,.64-2,1-3.15l2.39-6.91H1061l-4.83,12.29H1054l-4.67-12.29Z"/><path class="cls-3" d="M1065.55,316.88a1.31,1.31,0,0,1-1.42,1.37,1.33,1.33,0,0,1-1.35-1.37,1.37,1.37,0,0,1,1.4-1.4A1.33,1.33,0,0,1,1065.55,316.88Zm-2.49,15.74V320.33h2.24v12.29Z"/><path class="cls-3" d="M1077.76,332.16a8.14,8.14,0,0,1-3.53.71c-3.7,0-6.11-2.51-6.11-6.27a6.24,6.24,0,0,1,6.6-6.52,7.48,7.48,0,0,1,3.09.63l-.5,1.73a5.13,5.13,0,0,0-2.59-.59c-2.82,0-4.34,2.09-4.34,4.65,0,2.84,1.82,4.6,4.26,4.6a6.31,6.31,0,0,0,2.74-.61Z"/><path class="cls-3" d="M1081.47,326.88c0,3,2,4.27,4.21,4.27a8,8,0,0,0,3.41-.64l.38,1.6a9.93,9.93,0,0,1-4.09.76c-3.78,0-6-2.48-6-6.19s2.18-6.63,5.76-6.63c4,0,5.08,3.53,5.08,5.79a7.43,7.43,0,0,1-.08,1Zm6.55-1.6c0-1.42-.58-3.63-3.1-3.63-2.26,0-3.25,2.08-3.42,3.63Z"/><path class="cls-3" d="M1103.18,315a16.7,16.7,0,0,0-3.2,10.38,17.07,17.07,0,0,0,3.2,10.31h-1.76a16.49,16.49,0,0,1-3.32-10.31,16.77,16.77,0,0,1,3.32-10.38Z"/><path class="cls-3" d="M1105.31,329.93a7.83,7.83,0,0,0,4,1.12c2.26,0,3.58-1.2,3.58-2.92s-.91-2.52-3.22-3.41c-2.8-1-4.52-2.43-4.52-4.85,0-2.66,2.2-4.64,5.53-4.64a7.79,7.79,0,0,1,3.78.83l-.61,1.81a6.72,6.72,0,0,0-3.25-.81c-2.33,0-3.22,1.39-3.22,2.56,0,1.6,1,2.39,3.4,3.3,2.9,1.12,4.37,2.51,4.37,5s-2,4.92-6,4.92a8.84,8.84,0,0,1-4.37-1.09Z"/><path class="cls-3" d="M1124.93,332.62l-.17-1.55h-.08a4.56,4.56,0,0,1-3.76,1.83,3.49,3.49,0,0,1-3.75-3.53c0-3,2.64-4.6,7.38-4.57v-.25a2.54,2.54,0,0,0-2.79-2.85,6.11,6.11,0,0,0-3.2.92l-.51-1.48a7.65,7.65,0,0,1,4-1.09c3.76,0,4.67,2.57,4.67,5v4.59a16.55,16.55,0,0,0,.21,2.95Zm-.33-6.27c-2.43-.05-5.2.38-5.2,2.77a2,2,0,0,0,2.11,2.13,3.06,3.06,0,0,0,3-2.06,2.52,2.52,0,0,0,.12-.71Z"/><path class="cls-3" d="M1137.17,332.62l-.18-1.55h-.07a4.58,4.58,0,0,1-3.76,1.83,3.5,3.5,0,0,1-3.76-3.53c0-3,2.64-4.6,7.39-4.57v-.25a2.54,2.54,0,0,0-2.79-2.85,6.11,6.11,0,0,0-3.2.92l-.51-1.48a7.65,7.65,0,0,1,4-1.09c3.76,0,4.67,2.57,4.67,5v4.59a17.62,17.62,0,0,0,.2,2.95Zm-.33-6.27c-2.44-.05-5.2.38-5.2,2.77a2,2,0,0,0,2.1,2.13,3.05,3.05,0,0,0,3-2.06,2.22,2.22,0,0,0,.13-.71Z"/><path class="cls-3" d="M1142.38,329.93a7.8,7.8,0,0,0,4,1.12c2.26,0,3.58-1.2,3.58-2.92s-.92-2.52-3.23-3.41c-2.79-1-4.52-2.43-4.52-4.85,0-2.66,2.21-4.64,5.54-4.64a7.79,7.79,0,0,1,3.78.83l-.61,1.81a6.76,6.76,0,0,0-3.25-.81c-2.33,0-3.22,1.39-3.22,2.56,0,1.6,1,2.39,3.4,3.3,2.89,1.12,4.37,2.51,4.37,5s-2,4.92-6,4.92a8.8,8.8,0,0,1-4.36-1.09Z"/><path class="cls-3" d="M1153.78,335.69a17.18,17.18,0,0,0,3.19-10.38,16.87,16.87,0,0,0-3.19-10.31h1.72a16.13,16.13,0,0,1,3.33,10.33,16.45,16.45,0,0,1-3.33,10.36Z"/><path class="cls-3" d="M872.32,380h-6.65v6.17h7.41V388h-9.62V370.89h9.24v1.86h-7v5.41h6.65Z"/><path class="cls-3" d="M875.88,379.05c0-1.27,0-2.32-.1-3.33h2l.12,2h0a4.52,4.52,0,0,1,4.07-2.31c1.7,0,4.34,1,4.34,5.23V388H884.1v-7.09c0-2-.73-3.63-2.84-3.63a3.18,3.18,0,0,0-3,2.29,3.26,3.26,0,0,0-.15,1V388h-2.23Z"/><path class="cls-3" d="M892.56,372.19v3.53h3.2v1.7h-3.2v6.63c0,1.52.43,2.38,1.67,2.38a4.84,4.84,0,0,0,1.3-.15l.1,1.68a5.44,5.44,0,0,1-2,.3,3.09,3.09,0,0,1-2.41-.94,4.52,4.52,0,0,1-.87-3.2v-6.7h-1.9v-1.7h1.9v-3Z"/><path class="cls-3" d="M899.36,382.27c0,3,2,4.27,4.22,4.27a8,8,0,0,0,3.4-.64l.38,1.6a9.89,9.89,0,0,1-4.09.76c-3.78,0-6-2.49-6-6.19s2.18-6.63,5.76-6.63c4,0,5.08,3.53,5.08,5.79a7.43,7.43,0,0,1-.08,1Zm6.55-1.6c0-1.42-.58-3.63-3.1-3.63-2.26,0-3.25,2.08-3.42,3.63Z"/><path class="cls-3" d="M910.84,379.55c0-1.44,0-2.69-.1-3.83h2l.08,2.41h.1a3.68,3.68,0,0,1,3.4-2.69,2.55,2.55,0,0,1,.64.08v2.1a3.49,3.49,0,0,0-.77-.07,3.13,3.13,0,0,0-3,2.87,6.33,6.33,0,0,0-.1,1V388h-2.21Z"/><path class="cls-3" d="M919.24,379.73c0-1.57,0-2.84-.1-4h2l.11,2.11h0a4.82,4.82,0,0,1,4.36-2.39c3,0,5.21,2.51,5.21,6.25,0,4.41-2.69,6.6-5.59,6.6a4.31,4.31,0,0,1-3.78-1.93h0V393h-2.21Zm2.21,3.28a5.07,5.07,0,0,0,.1.91,3.45,3.45,0,0,0,3.35,2.62c2.36,0,3.73-1.93,3.73-4.75,0-2.47-1.29-4.57-3.65-4.57A3.57,3.57,0,0,0,921.6,380a3.93,3.93,0,0,0-.15.92Z"/><path class="cls-3" d="M933.69,379.55c0-1.44,0-2.69-.11-3.83h2l.08,2.41h.1a3.68,3.68,0,0,1,3.4-2.69,2.41,2.41,0,0,1,.63.08v2.1a3.33,3.33,0,0,0-.76-.07,3.13,3.13,0,0,0-3,2.87,6.26,6.26,0,0,0-.11,1V388h-2.2Z"/><path class="cls-3" d="M944.58,372.27a1.39,1.39,0,0,1-2.77,0,1.36,1.36,0,0,1,1.4-1.4A1.33,1.33,0,0,1,944.58,372.27ZM942.09,388V375.72h2.23V388Z"/><path class="cls-3" d="M947.72,385.72a5.88,5.88,0,0,0,2.95.89c1.62,0,2.39-.81,2.39-1.83s-.64-1.65-2.29-2.26c-2.21-.78-3.25-2-3.25-3.47,0-2,1.6-3.61,4.24-3.61a6.16,6.16,0,0,1,3,.76l-.56,1.63a4.72,4.72,0,0,0-2.51-.71c-1.32,0-2.06.76-2.06,1.67s.74,1.47,2.34,2.08c2.13.82,3.22,1.88,3.22,3.71,0,2.16-1.67,3.68-4.59,3.68a7,7,0,0,1-3.45-.84Z"/><path class="cls-3" d="M959.33,382.27c0,3,2,4.27,4.21,4.27a8,8,0,0,0,3.4-.64l.39,1.6a9.93,9.93,0,0,1-4.09.76c-3.79,0-6-2.49-6-6.19s2.19-6.63,5.77-6.63c4,0,5.08,3.53,5.08,5.79a7.43,7.43,0,0,1-.08,1Zm6.55-1.6c0-1.42-.59-3.63-3.1-3.63-2.26,0-3.25,2.08-3.43,3.63Z"/><path class="cls-3" d="M976.69,380.31V382h-6.27v-1.66Z"/><path class="cls-3" d="M986.11,388l-.18-1.55h-.07a4.61,4.61,0,0,1-3.76,1.83,3.5,3.5,0,0,1-3.76-3.53c0-3,2.64-4.6,7.39-4.57v-.26a2.53,2.53,0,0,0-2.79-2.84,6.2,6.2,0,0,0-3.2.91l-.51-1.47a7.65,7.65,0,0,1,4-1.09c3.76,0,4.67,2.56,4.67,5v4.59a17.62,17.62,0,0,0,.2,2.95Zm-.33-6.27c-2.44-.05-5.2.38-5.2,2.76a2,2,0,0,0,2.1,2.14,3.08,3.08,0,0,0,3-2.06,2.52,2.52,0,0,0,.12-.71Z"/><path class="cls-3" d="M991.24,385.72a5.88,5.88,0,0,0,3,.89c1.62,0,2.38-.81,2.38-1.83s-.63-1.65-2.28-2.26c-2.21-.78-3.25-2-3.25-3.47,0-2,1.6-3.61,4.24-3.61a6.22,6.22,0,0,1,3,.76l-.56,1.63a4.72,4.72,0,0,0-2.51-.71c-1.32,0-2.06.76-2.06,1.67s.74,1.47,2.34,2.08c2.13.82,3.22,1.88,3.22,3.71,0,2.16-1.68,3.68-4.6,3.68a7,7,0,0,1-3.45-.84Z"/><path class="cls-3" d="M1006.78,380.31V382h-6.27v-1.66Z"/><path class="cls-3" d="M1016.2,388l-.18-1.55h-.08a4.57,4.57,0,0,1-3.75,1.83,3.5,3.5,0,0,1-3.76-3.53c0-3,2.64-4.6,7.39-4.57v-.26a2.54,2.54,0,0,0-2.8-2.84,6.23,6.23,0,0,0-3.2.91l-.5-1.47a7.58,7.58,0,0,1,4-1.09c3.76,0,4.68,2.56,4.68,5v4.59a17.62,17.62,0,0,0,.2,2.95Zm-.33-6.27c-2.44-.05-5.21.38-5.21,2.76a2,2,0,0,0,2.11,2.14,3.06,3.06,0,0,0,3-2.06,2.22,2.22,0,0,0,.13-.71Z"/><path class="cls-3" d="M1026.81,380.31V382h-6.27v-1.66Z"/><path class="cls-3" d="M1029.2,385.32a7.8,7.8,0,0,0,4,1.11c2.26,0,3.58-1.19,3.58-2.92s-.92-2.51-3.23-3.4c-2.79-1-4.52-2.44-4.52-4.85,0-2.66,2.21-4.64,5.54-4.64a7.79,7.79,0,0,1,3.78.83l-.61,1.81a6.74,6.74,0,0,0-3.25-.82c-2.33,0-3.22,1.4-3.22,2.57,0,1.6,1,2.38,3.4,3.3,2.89,1.12,4.37,2.51,4.37,5s-2,4.92-6,4.92a8.8,8.8,0,0,1-4.36-1.09Z"/><path class="cls-3" d="M1043.34,382.27c.05,3,2,4.27,4.21,4.27a8,8,0,0,0,3.4-.64l.38,1.6a9.83,9.83,0,0,1-4.08.76c-3.79,0-6-2.49-6-6.19s2.19-6.63,5.77-6.63c4,0,5.08,3.53,5.08,5.79a7.43,7.43,0,0,1-.08,1Zm6.55-1.6c0-1.42-.59-3.63-3.1-3.63-2.26,0-3.25,2.08-3.43,3.63Z"/><path class="cls-3" d="M1054.81,379.55c0-1.44,0-2.69-.1-3.83h2l.07,2.41h.1a3.69,3.69,0,0,1,3.41-2.69,2.41,2.41,0,0,1,.63.08v2.1a3.45,3.45,0,0,0-.76-.07,3.13,3.13,0,0,0-3,2.87,6.33,6.33,0,0,0-.1,1V388h-2.21Z"/><path class="cls-3" d="M1064.61,375.72l2.41,6.91a29.48,29.48,0,0,1,1,3.14h.08c.28-1,.64-2,1-3.14l2.39-6.91h2.33L1069,388h-2.13l-4.67-12.29Z"/><path class="cls-3" d="M1078.45,372.27a1.39,1.39,0,0,1-2.77,0,1.37,1.37,0,0,1,1.4-1.4A1.33,1.33,0,0,1,1078.45,372.27ZM1076,388V375.72h2.24V388Z"/><path class="cls-3" d="M1090.66,387.55a8.14,8.14,0,0,1-3.53.71c-3.71,0-6.12-2.51-6.12-6.27a6.24,6.24,0,0,1,6.6-6.52,7.57,7.57,0,0,1,3.1.63l-.51,1.73a5.1,5.1,0,0,0-2.59-.59c-2.81,0-4.34,2.08-4.34,4.65,0,2.84,1.83,4.59,4.27,4.59a6.47,6.47,0,0,0,2.74-.6Z"/><path class="cls-3" d="M1094.37,382.27c.05,3,2,4.27,4.21,4.27a8,8,0,0,0,3.4-.64l.39,1.6a9.93,9.93,0,0,1-4.09.76c-3.79,0-6-2.49-6-6.19s2.19-6.63,5.77-6.63c4,0,5.08,3.53,5.08,5.79a7.43,7.43,0,0,1-.08,1Zm6.55-1.6c0-1.42-.59-3.63-3.1-3.63-2.26,0-3.25,2.08-3.43,3.63Z"/><path class="cls-3" d="M1116.07,370.39a16.77,16.77,0,0,0-3.19,10.38,17.13,17.13,0,0,0,3.19,10.31h-1.75a16.42,16.42,0,0,1-3.32-10.31,16.71,16.71,0,0,1,3.32-10.38Z"/><path class="cls-3" d="M1127.37,380h-6.65v6.17h7.41V388h-9.62V370.89h9.24v1.86h-7v5.41h6.65Z"/><path class="cls-3" d="M1137.73,388l-.18-1.55h-.07a4.61,4.61,0,0,1-3.76,1.83,3.5,3.5,0,0,1-3.76-3.53c0-3,2.64-4.6,7.39-4.57v-.26a2.53,2.53,0,0,0-2.79-2.84,6.17,6.17,0,0,0-3.2.91l-.51-1.47a7.65,7.65,0,0,1,4-1.09c3.75,0,4.67,2.56,4.67,5v4.59a17.62,17.62,0,0,0,.2,2.95Zm-.33-6.27c-2.44-.05-5.2.38-5.2,2.76a2,2,0,0,0,2.1,2.14,3.05,3.05,0,0,0,3-2.06,2.22,2.22,0,0,0,.13-.71Z"/><path class="cls-3" d="M1150,388l-.18-1.55h-.08a4.57,4.57,0,0,1-3.75,1.83,3.5,3.5,0,0,1-3.76-3.53c0-3,2.64-4.6,7.39-4.57v-.26a2.54,2.54,0,0,0-2.8-2.84,6.23,6.23,0,0,0-3.2.91l-.5-1.47a7.61,7.61,0,0,1,4-1.09c3.76,0,4.68,2.56,4.68,5v4.59a17.62,17.62,0,0,0,.2,2.95Zm-.33-6.27c-2.44-.05-5.21.38-5.21,2.76a2,2,0,0,0,2.11,2.14,3.05,3.05,0,0,0,3-2.06,2.22,2.22,0,0,0,.13-.71Z"/><path class="cls-3" d="M1155.17,385.32a7.83,7.83,0,0,0,4,1.11c2.26,0,3.58-1.19,3.58-2.92s-.91-2.51-3.22-3.4c-2.79-1-4.52-2.44-4.52-4.85,0-2.66,2.21-4.64,5.53-4.64a7.81,7.81,0,0,1,3.79.83l-.61,1.81a6.74,6.74,0,0,0-3.25-.82c-2.34,0-3.23,1.4-3.23,2.57,0,1.6,1,2.38,3.41,3.3,2.89,1.12,4.36,2.51,4.36,5s-2,4.92-6,4.92a8.87,8.87,0,0,1-4.37-1.09Z"/><path class="cls-3" d="M1166.57,391.08a17.18,17.18,0,0,0,3.2-10.38,16.8,16.8,0,0,0-3.2-10.31h1.73a16.19,16.19,0,0,1,3.32,10.33,16.51,16.51,0,0,1-3.32,10.36Z"/><path class="cls-3" d="M863.46,426.51a32.23,32.23,0,0,1,4.7-.35c3.17,0,5.43.73,6.93,2.13a7.9,7.9,0,0,1,2.41,6.14,9.06,9.06,0,0,1-2.46,6.66c-1.6,1.6-4.24,2.46-7.57,2.46a37.54,37.54,0,0,1-4-.2Zm2.21,15.13a13,13,0,0,0,2.24.13c4.72,0,7.28-2.64,7.28-7.26,0-4-2.26-6.6-6.93-6.6a12.31,12.31,0,0,0-2.59.23Z"/><path class="cls-3" d="M887.1,443.4l-.18-1.55h-.08a4.57,4.57,0,0,1-3.75,1.83,3.51,3.51,0,0,1-3.76-3.53c0-3,2.64-4.6,7.39-4.57v-.26a2.54,2.54,0,0,0-2.8-2.84,6.07,6.07,0,0,0-3.19.91l-.51-1.47a7.61,7.61,0,0,1,4-1.09c3.76,0,4.68,2.56,4.68,5v4.59a17.62,17.62,0,0,0,.2,2.95Zm-.33-6.28c-2.44-.05-5.21.39-5.21,2.77a2,2,0,0,0,2.11,2.14,3.05,3.05,0,0,0,3-2.06,2.22,2.22,0,0,0,.13-.71Z"/><path class="cls-3" d="M895.12,427.58v3.53h3.2v1.7h-3.2v6.63c0,1.52.43,2.38,1.68,2.38a4.81,4.81,0,0,0,1.29-.15l.1,1.68a5.62,5.62,0,0,1-2,.3,3.09,3.09,0,0,1-2.41-.94,4.57,4.57,0,0,1-.86-3.2v-6.7H891v-1.7h1.91v-2.95Z"/><path class="cls-3" d="M907.64,443.4l-.18-1.55h-.08a4.57,4.57,0,0,1-3.75,1.83,3.51,3.51,0,0,1-3.76-3.53c0-3,2.64-4.6,7.39-4.57v-.26a2.54,2.54,0,0,0-2.8-2.84,6.13,6.13,0,0,0-3.2.91l-.5-1.47a7.61,7.61,0,0,1,4-1.09c3.76,0,4.68,2.56,4.68,5v4.59a17.62,17.62,0,0,0,.2,2.95Zm-.33-6.28c-2.44-.05-5.21.39-5.21,2.77a2,2,0,0,0,2.11,2.14,3.05,3.05,0,0,0,3-2.06,2.22,2.22,0,0,0,.13-.71Z"/><path class="cls-3" d="M913,443.4c0-.84.1-2.09.1-3.18V425.37h2.21v7.72h.05a4.58,4.58,0,0,1,4.19-2.26c3.05,0,5.2,2.54,5.18,6.27,0,4.39-2.77,6.58-5.51,6.58a4.37,4.37,0,0,1-4.11-2.31H915l-.1,2Zm2.31-4.93a4.17,4.17,0,0,0,.1.81,3.45,3.45,0,0,0,3.35,2.62c2.34,0,3.73-1.91,3.73-4.72,0-2.47-1.26-4.57-3.65-4.57a3.56,3.56,0,0,0-3.4,2.74,4.41,4.41,0,0,0-.13.91Z"/><path class="cls-3" d="M934.32,443.4l-.18-1.55h-.07a4.61,4.61,0,0,1-3.76,1.83,3.51,3.51,0,0,1-3.76-3.53c0-3,2.64-4.6,7.39-4.57v-.26a2.53,2.53,0,0,0-2.79-2.84,6.08,6.08,0,0,0-3.2.91l-.51-1.47a7.65,7.65,0,0,1,4-1.09c3.75,0,4.67,2.56,4.67,5v4.59a17.62,17.62,0,0,0,.2,2.95Zm-.33-6.28c-2.44-.05-5.2.39-5.2,2.77a2,2,0,0,0,2.1,2.14,3.05,3.05,0,0,0,3-2.06,2.22,2.22,0,0,0,.13-.71Z"/><path class="cls-3" d="M939.45,441.11a5.87,5.87,0,0,0,2.94.89c1.63,0,2.39-.81,2.39-1.83s-.63-1.65-2.28-2.26c-2.21-.79-3.25-2-3.25-3.48,0-2,1.59-3.6,4.24-3.6a6.11,6.11,0,0,1,3,.76l-.56,1.62a4.82,4.82,0,0,0-2.52-.71c-1.32,0-2,.77-2,1.68s.73,1.47,2.33,2.08c2.14.81,3.23,1.88,3.23,3.71,0,2.16-1.68,3.68-4.6,3.68a7,7,0,0,1-3.45-.84Z"/><path class="cls-3" d="M951.05,437.66a3.93,3.93,0,0,0,4.22,4.26,8.17,8.17,0,0,0,3.4-.63l.38,1.6a10.06,10.06,0,0,1-4.09.76c-3.78,0-6-2.49-6-6.2s2.18-6.62,5.76-6.62c4,0,5.08,3.53,5.08,5.79a7.57,7.57,0,0,1-.08,1Zm6.55-1.6c0-1.42-.58-3.63-3.1-3.63-2.26,0-3.25,2.08-3.42,3.63Z"/><path class="cls-3" d="M968.42,435.7v1.65h-6.27V435.7Z"/><path class="cls-3" d="M977.84,443.4l-.18-1.55h-.08a4.58,4.58,0,0,1-3.76,1.83,3.5,3.5,0,0,1-3.75-3.53c0-3,2.64-4.6,7.39-4.57v-.26a2.54,2.54,0,0,0-2.8-2.84,6.13,6.13,0,0,0-3.2.91l-.5-1.47a7.58,7.58,0,0,1,4-1.09c3.76,0,4.67,2.56,4.67,5v4.59a16.55,16.55,0,0,0,.21,2.95Zm-.33-6.28c-2.44-.05-5.21.39-5.21,2.77a2,2,0,0,0,2.11,2.14,3.06,3.06,0,0,0,3-2.06,2.22,2.22,0,0,0,.13-.71Z"/><path class="cls-3" d="M983,441.11a5.88,5.88,0,0,0,2.95.89c1.62,0,2.39-.81,2.39-1.83s-.64-1.65-2.29-2.26c-2.21-.79-3.25-2-3.25-3.48,0-2,1.6-3.6,4.24-3.6a6.05,6.05,0,0,1,3,.76l-.56,1.62a4.81,4.81,0,0,0-2.51-.71c-1.32,0-2.06.77-2.06,1.68s.74,1.47,2.34,2.08c2.13.81,3.22,1.88,3.22,3.71,0,2.16-1.67,3.68-4.59,3.68a7,7,0,0,1-3.45-.84Z"/><path class="cls-3" d="M998.5,435.7v1.65h-6.27V435.7Z"/><path class="cls-3" d="M1007.92,443.4l-.18-1.55h-.07a4.61,4.61,0,0,1-3.76,1.83,3.51,3.51,0,0,1-3.76-3.53c0-3,2.64-4.6,7.39-4.57v-.26a2.53,2.53,0,0,0-2.79-2.84,6.08,6.08,0,0,0-3.2.91l-.51-1.47a7.65,7.65,0,0,1,4-1.09c3.75,0,4.67,2.56,4.67,5v4.59a17.62,17.62,0,0,0,.2,2.95Zm-.33-6.28c-2.44-.05-5.2.39-5.2,2.77a2,2,0,0,0,2.1,2.14,3.05,3.05,0,0,0,3-2.06,2.22,2.22,0,0,0,.13-.71Z"/><path class="cls-3" d="M1018.53,435.7v1.65h-6.27V435.7Z"/><path class="cls-3" d="M1020.92,440.7a7.83,7.83,0,0,0,4,1.12c2.26,0,3.58-1.19,3.58-2.92s-.91-2.51-3.22-3.4c-2.8-1-4.52-2.44-4.52-4.85,0-2.67,2.2-4.65,5.53-4.65a7.78,7.78,0,0,1,3.78.84l-.61,1.8a6.84,6.84,0,0,0-3.25-.81c-2.33,0-3.22,1.4-3.22,2.57,0,1.6,1,2.38,3.4,3.3,2.9,1.11,4.37,2.51,4.37,5s-2,4.93-6,4.93a8.84,8.84,0,0,1-4.37-1.09Z"/><path class="cls-3" d="M1035.06,437.66a3.93,3.93,0,0,0,4.22,4.26,8.17,8.17,0,0,0,3.4-.63l.38,1.6a10.06,10.06,0,0,1-4.09.76c-3.78,0-6-2.49-6-6.2s2.18-6.62,5.76-6.62c4,0,5.08,3.53,5.08,5.79a7.57,7.57,0,0,1-.08,1Zm6.55-1.6c0-1.42-.58-3.63-3.1-3.63-2.26,0-3.25,2.08-3.42,3.63Z"/><path class="cls-3" d="M1046.54,434.94c0-1.45,0-2.69-.11-3.83h2l.08,2.41h.1a3.68,3.68,0,0,1,3.4-2.69,2.43,2.43,0,0,1,.63.07V433a3.33,3.33,0,0,0-.76-.07,3.12,3.12,0,0,0-3,2.86,6.46,6.46,0,0,0-.1,1.05v6.55h-2.21Z"/><path class="cls-3" d="M1056.34,431.11l2.41,6.9c.4,1.12.73,2.14,1,3.15h.07c.28-1,.64-2,1-3.15l2.38-6.9h2.34l-4.83,12.29h-2.13L1054,431.11Z"/><path class="cls-3" d="M1070.17,427.65a1.38,1.38,0,1,1-2.76,0,1.36,1.36,0,0,1,1.39-1.39A1.32,1.32,0,0,1,1070.17,427.65Zm-2.49,15.75V431.11h2.24V443.4Z"/><path class="cls-3" d="M1082.38,442.94a8.24,8.24,0,0,1-3.52.71c-3.71,0-6.12-2.51-6.12-6.27a6.25,6.25,0,0,1,6.6-6.53,7.39,7.39,0,0,1,3.1.64l-.51,1.72a5.26,5.26,0,0,0-2.59-.58c-2.82,0-4.34,2.08-4.34,4.65,0,2.84,1.82,4.59,4.26,4.59a6.31,6.31,0,0,0,2.74-.61Z"/><path class="cls-3" d="M1086.09,437.66a3.93,3.93,0,0,0,4.22,4.26,8.17,8.17,0,0,0,3.4-.63l.38,1.6a10.06,10.06,0,0,1-4.09.76c-3.78,0-6-2.49-6-6.2s2.18-6.62,5.76-6.62c4,0,5.08,3.53,5.08,5.79a7.57,7.57,0,0,1-.08,1Zm6.55-1.6c0-1.42-.58-3.63-3.1-3.63-2.26,0-3.25,2.08-3.42,3.63Z"/><path class="cls-3" d="M1107.8,425.78a16.66,16.66,0,0,0-3.2,10.38,17.14,17.14,0,0,0,3.2,10.31h-1.75a16.42,16.42,0,0,1-3.33-10.31,16.77,16.77,0,0,1,3.33-10.38Z"/><path class="cls-3" d="M1110.23,426.51a32.23,32.23,0,0,1,4.7-.35c3.18,0,5.44.73,6.93,2.13a7.87,7.87,0,0,1,2.42,6.14,9.07,9.07,0,0,1-2.47,6.66c-1.6,1.6-4.24,2.46-7.56,2.46a37.6,37.6,0,0,1-4-.2Zm2.21,15.13a13,13,0,0,0,2.24.13c4.72,0,7.28-2.64,7.28-7.26,0-4-2.25-6.6-6.93-6.6a12.38,12.38,0,0,0-2.59.23Z"/><path class="cls-3" d="M1127.14,426.51a21.8,21.8,0,0,1,4-.35c2.21,0,3.63.38,4.7,1.24a3.59,3.59,0,0,1,1.42,3,4.06,4.06,0,0,1-2.9,3.76v.05a4.41,4.41,0,0,1,3.53,4.29,4.63,4.63,0,0,1-1.44,3.43c-1.2,1.09-3.13,1.6-5.92,1.6a26.35,26.35,0,0,1-3.43-.2Zm2.21,7h2c2.33,0,3.7-1.22,3.7-2.87,0-2-1.52-2.79-3.75-2.79a9.31,9.31,0,0,0-2,.15Zm0,8.2a11.44,11.44,0,0,0,1.86.1c2.28,0,4.39-.84,4.39-3.32s-2-3.3-4.42-3.3h-1.83Z"/><path class="cls-3" d="M1147.63,443.4l-.18-1.55h-.07a4.61,4.61,0,0,1-3.76,1.83,3.51,3.51,0,0,1-3.76-3.53c0-3,2.64-4.6,7.39-4.57v-.26a2.53,2.53,0,0,0-2.79-2.84,6.11,6.11,0,0,0-3.2.91l-.51-1.47a7.65,7.65,0,0,1,4-1.09c3.76,0,4.67,2.56,4.67,5v4.59a17.62,17.62,0,0,0,.2,2.95Zm-.33-6.28c-2.44-.05-5.2.39-5.2,2.77a2,2,0,0,0,2.1,2.14,3.05,3.05,0,0,0,3-2.06,2.22,2.22,0,0,0,.13-.71Z"/><path class="cls-3" d="M1159.87,443.4l-.18-1.55h-.07a4.61,4.61,0,0,1-3.76,1.83,3.51,3.51,0,0,1-3.76-3.53c0-3,2.64-4.6,7.39-4.57v-.26a2.53,2.53,0,0,0-2.79-2.84,6.08,6.08,0,0,0-3.2.91l-.51-1.47a7.62,7.62,0,0,1,4-1.09c3.75,0,4.67,2.56,4.67,5v4.59a17.62,17.62,0,0,0,.2,2.95Zm-.33-6.28c-2.44-.05-5.21.39-5.21,2.77a2,2,0,0,0,2.11,2.14,3.05,3.05,0,0,0,3-2.06,2.22,2.22,0,0,0,.13-.71Z"/><path class="cls-3" d="M1165.07,440.7a7.83,7.83,0,0,0,4,1.12c2.26,0,3.58-1.19,3.58-2.92s-.91-2.51-3.22-3.4c-2.79-1-4.52-2.44-4.52-4.85,0-2.67,2.21-4.65,5.54-4.65a7.78,7.78,0,0,1,3.78.84l-.61,1.8a6.88,6.88,0,0,0-3.25-.81c-2.34,0-3.23,1.4-3.23,2.57,0,1.6,1.05,2.38,3.41,3.3,2.89,1.11,4.36,2.51,4.36,5s-1.95,4.93-6,4.93a8.87,8.87,0,0,1-4.37-1.09Z"/><path class="cls-3" d="M1176.47,446.47a17.17,17.17,0,0,0,3.2-10.39,16.79,16.79,0,0,0-3.2-10.3h1.73a16.19,16.19,0,0,1,3.33,10.33,16.51,16.51,0,0,1-3.33,10.36Z"/><path class="cls-3" d="M863.46,481.9a32.13,32.13,0,0,1,4.7-.36c3.17,0,5.43.74,6.93,2.14a7.87,7.87,0,0,1,2.41,6.14,9,9,0,0,1-2.46,6.65c-1.6,1.6-4.24,2.47-7.57,2.47a34.84,34.84,0,0,1-4-.21ZM865.67,497a14.12,14.12,0,0,0,2.24.13c4.72,0,7.28-2.64,7.28-7.26,0-4-2.26-6.6-6.93-6.6a12.31,12.31,0,0,0-2.59.23Z"/><path class="cls-3" d="M882.78,483a1.31,1.31,0,0,1-1.42,1.37A1.33,1.33,0,0,1,880,483a1.36,1.36,0,0,1,1.4-1.39A1.32,1.32,0,0,1,882.78,483Zm-2.49,15.74V486.5h2.24v12.28Z"/><path class="cls-3" d="M885.93,496.5a5.88,5.88,0,0,0,3,.89c1.62,0,2.38-.81,2.38-1.83s-.63-1.65-2.28-2.26c-2.21-.79-3.25-2-3.25-3.48,0-2,1.6-3.6,4.24-3.6a6.11,6.11,0,0,1,3,.76l-.56,1.62a4.81,4.81,0,0,0-2.51-.71c-1.32,0-2.06.76-2.06,1.68s.74,1.47,2.34,2.08c2.13.81,3.22,1.88,3.22,3.71,0,2.16-1.68,3.68-4.6,3.68a7,7,0,0,1-3.45-.84Z"/><path class="cls-3" d="M903.09,498.78l-.17-1.54h-.08a4.6,4.6,0,0,1-3.76,1.82,3.5,3.5,0,0,1-3.76-3.53c0-3,2.64-4.59,7.39-4.57v-.25a2.53,2.53,0,0,0-2.79-2.84,6.11,6.11,0,0,0-3.2.91l-.51-1.47a7.65,7.65,0,0,1,4-1.09c3.76,0,4.67,2.56,4.67,5v4.6a17.41,17.41,0,0,0,.2,2.94Zm-.33-6.27c-2.43-.05-5.2.38-5.2,2.77a2,2,0,0,0,2.11,2.13,3.07,3.07,0,0,0,3-2.05,2.58,2.58,0,0,0,.12-.71Z"/><path class="cls-3" d="M908.22,496.5a5.88,5.88,0,0,0,2.95.89c1.62,0,2.38-.81,2.38-1.83s-.63-1.65-2.28-2.26c-2.21-.79-3.25-2-3.25-3.48,0-2,1.6-3.6,4.24-3.6a6.11,6.11,0,0,1,3,.76l-.56,1.62a4.81,4.81,0,0,0-2.51-.71c-1.32,0-2.06.76-2.06,1.68s.74,1.47,2.34,2.08c2.13.81,3.22,1.88,3.22,3.71,0,2.16-1.67,3.68-4.59,3.68a7,7,0,0,1-3.46-.84Z"/><path class="cls-3" d="M921.27,483v3.53h3.2v1.7h-3.2v6.62c0,1.53.43,2.39,1.68,2.39a5.27,5.27,0,0,0,1.29-.15l.1,1.67a5.37,5.37,0,0,1-2,.31,3.09,3.09,0,0,1-2.41-.94,4.57,4.57,0,0,1-.86-3.2v-6.7h-1.91v-1.7h1.91v-2.95Z"/><path class="cls-3" d="M928.07,493.05c.06,3,2,4.26,4.22,4.26a8.17,8.17,0,0,0,3.4-.63l.38,1.6A10,10,0,0,1,932,499c-3.78,0-6-2.49-6-6.2s2.19-6.62,5.77-6.62c4,0,5.07,3.53,5.07,5.79a10.18,10.18,0,0,1-.07,1Zm6.56-1.6c0-1.42-.59-3.63-3.1-3.63-2.26,0-3.25,2.08-3.43,3.63Z"/><path class="cls-3" d="M939.55,490.33c0-1.45,0-2.69-.1-3.83h1.95l.08,2.41h.1a3.69,3.69,0,0,1,3.4-2.69,2.46,2.46,0,0,1,.64.07v2.11a3.41,3.41,0,0,0-.76-.08,3.14,3.14,0,0,0-3,2.87,6.44,6.44,0,0,0-.1,1v6.55h-2.21Z"/><path class="cls-3" d="M953.31,481.9a22.9,22.9,0,0,1,4.24-.36c2.36,0,3.88.44,5,1.4a4.27,4.27,0,0,1,1.35,3.25,4.5,4.5,0,0,1-3.23,4.37v.07c1.32.46,2.11,1.68,2.52,3.46a26.08,26.08,0,0,0,1.32,4.69h-2.29A21.84,21.84,0,0,1,961,494.7c-.51-2.36-1.42-3.25-3.43-3.33h-2.08v7.41h-2.21Zm2.21,7.8h2.26c2.36,0,3.86-1.3,3.86-3.25,0-2.21-1.6-3.18-3.94-3.2a9.19,9.19,0,0,0-2.18.2Z"/><path class="cls-3" d="M968.24,493.05c0,3,2,4.26,4.21,4.26a8.22,8.22,0,0,0,3.41-.63l.38,1.6a10.1,10.1,0,0,1-4.09.76c-3.78,0-6-2.49-6-6.2s2.18-6.62,5.76-6.62c4,0,5.08,3.53,5.08,5.79a7.57,7.57,0,0,1-.08,1Zm6.55-1.6c0-1.42-.58-3.63-3.1-3.63-2.26,0-3.25,2.08-3.43,3.63Z"/><path class="cls-3" d="M988.47,498.33a8.3,8.3,0,0,1-3.53.71c-3.7,0-6.11-2.51-6.11-6.27a6.24,6.24,0,0,1,6.6-6.53,7.3,7.3,0,0,1,3.09.64l-.5,1.72a5.26,5.26,0,0,0-2.59-.58c-2.82,0-4.35,2.08-4.35,4.65,0,2.84,1.83,4.59,4.27,4.59a6.31,6.31,0,0,0,2.74-.61Z"/><path class="cls-3" d="M1002.06,492.54c0,4.54-3.15,6.52-6.12,6.52-3.33,0-5.89-2.43-5.89-6.32,0-4.11,2.69-6.52,6.09-6.52S1002.06,488.78,1002.06,492.54Zm-9.75.13c0,2.69,1.55,4.72,3.73,4.72s3.73-2,3.73-4.77c0-2.09-1-4.73-3.68-4.73S992.31,490.33,992.31,492.67Z"/><path class="cls-3" d="M1005.56,486.5l2.41,6.9a29.62,29.62,0,0,1,1,3.15h.08c.28-1,.63-2,1-3.15l2.39-6.9h2.33L1010,498.78h-2.14l-4.67-12.28Z"/><path class="cls-3" d="M1017.9,493.05c.05,3,2,4.26,4.21,4.26a8.22,8.22,0,0,0,3.41-.63l.38,1.6a10.1,10.1,0,0,1-4.09.76c-3.78,0-6-2.49-6-6.2s2.18-6.62,5.76-6.62c4,0,5.08,3.53,5.08,5.79a7.57,7.57,0,0,1-.08,1Zm6.55-1.6c0-1.42-.58-3.63-3.1-3.63-2.26,0-3.25,2.08-3.43,3.63Z"/><path class="cls-3" d="M1029.38,490.33c0-1.45,0-2.69-.11-3.83h2l.07,2.41h.11a3.67,3.67,0,0,1,3.4-2.69,2.43,2.43,0,0,1,.63.07v2.11a3.34,3.34,0,0,0-.76-.08,3.13,3.13,0,0,0-3,2.87,5.44,5.44,0,0,0-.11,1v6.55h-2.2Z"/><path class="cls-3" d="M1039.12,486.5l2.69,7.26c.28.81.59,1.77.79,2.51h.05c.23-.74.48-1.67.79-2.56l2.44-7.21h2.36l-3.35,8.76c-1.6,4.21-2.69,6.37-4.22,7.69a6.19,6.19,0,0,1-2.74,1.45l-.56-1.88a6.11,6.11,0,0,0,2-1.09,6.89,6.89,0,0,0,1.88-2.49,1.6,1.6,0,0,0,.17-.54,2,2,0,0,0-.15-.58l-4.54-11.32Z"/><path class="cls-3" d="M1055.35,491.09v1.65h-6.27v-1.65Z"/><path class="cls-3" d="M1064.77,498.78l-.18-1.54h-.08a4.57,4.57,0,0,1-3.76,1.82,3.5,3.5,0,0,1-3.75-3.53c0-3,2.64-4.59,7.39-4.57v-.25a2.54,2.54,0,0,0-2.8-2.84,6.13,6.13,0,0,0-3.2.91l-.5-1.47a7.58,7.58,0,0,1,4-1.09c3.76,0,4.67,2.56,4.67,5v4.6a17.34,17.34,0,0,0,.21,2.94Zm-.33-6.27c-2.44-.05-5.21.38-5.21,2.77a2,2,0,0,0,2.11,2.13,3.06,3.06,0,0,0,3-2.05,2.27,2.27,0,0,0,.13-.71Z"/><path class="cls-3" d="M1069.89,496.5a5.88,5.88,0,0,0,2.95.89c1.62,0,2.39-.81,2.39-1.83s-.64-1.65-2.29-2.26c-2.21-.79-3.25-2-3.25-3.48,0-2,1.6-3.6,4.24-3.6a6.08,6.08,0,0,1,3,.76l-.56,1.62a4.81,4.81,0,0,0-2.51-.71c-1.32,0-2.06.76-2.06,1.68s.74,1.47,2.34,2.08c2.13.81,3.22,1.88,3.22,3.71,0,2.16-1.67,3.68-4.59,3.68a7,7,0,0,1-3.46-.84Z"/><path class="cls-3" d="M1085.43,491.09v1.65h-6.27v-1.65Z"/><path class="cls-3" d="M1094.85,498.78l-.18-1.54h-.07a4.6,4.6,0,0,1-3.76,1.82,3.5,3.5,0,0,1-3.76-3.53c0-3,2.64-4.59,7.39-4.57v-.25a2.53,2.53,0,0,0-2.79-2.84,6.08,6.08,0,0,0-3.2.91l-.51-1.47a7.65,7.65,0,0,1,4-1.09c3.75,0,4.67,2.56,4.67,5v4.6a17.41,17.41,0,0,0,.2,2.94Zm-.33-6.27c-2.44-.05-5.2.38-5.2,2.77a2,2,0,0,0,2.1,2.13,3,3,0,0,0,3-2.05,2.27,2.27,0,0,0,.13-.71Z"/><path class="cls-3" d="M1105.46,491.09v1.65h-6.27v-1.65Z"/><path class="cls-3" d="M1107.85,496.09a7.83,7.83,0,0,0,4,1.12c2.26,0,3.58-1.19,3.58-2.92s-.91-2.51-3.22-3.4c-2.8-1-4.52-2.44-4.52-4.85,0-2.67,2.2-4.65,5.53-4.65a7.78,7.78,0,0,1,3.78.84l-.61,1.8a6.84,6.84,0,0,0-3.25-.81c-2.33,0-3.22,1.4-3.22,2.56,0,1.6,1,2.39,3.4,3.31,2.9,1.11,4.37,2.51,4.37,5s-2,4.93-6,4.93a8.84,8.84,0,0,1-4.37-1.09Z"/><path class="cls-3" d="M1122,493.05a3.93,3.93,0,0,0,4.22,4.26,8.21,8.21,0,0,0,3.4-.63l.38,1.6a10.06,10.06,0,0,1-4.09.76c-3.78,0-6-2.49-6-6.2s2.18-6.62,5.76-6.62c4,0,5.08,3.53,5.08,5.79a7.57,7.57,0,0,1-.08,1Zm6.55-1.6c0-1.42-.58-3.63-3.1-3.63-2.26,0-3.25,2.08-3.42,3.63Z"/><path class="cls-3" d="M1133.47,490.33c0-1.45,0-2.69-.11-3.83h2l.08,2.41h.1a3.68,3.68,0,0,1,3.4-2.69,2.43,2.43,0,0,1,.63.07v2.11a3.28,3.28,0,0,0-.76-.08,3.13,3.13,0,0,0-3,2.87,6.38,6.38,0,0,0-.11,1v6.55h-2.2Z"/><path class="cls-3" d="M1143.27,486.5l2.41,6.9c.4,1.12.73,2.13,1,3.15h.07c.28-1,.64-2,1-3.15l2.38-6.9h2.34l-4.83,12.28h-2.13l-4.67-12.28Z"/><path class="cls-3" d="M1157.1,483a1.31,1.31,0,0,1-1.42,1.37,1.33,1.33,0,0,1-1.35-1.37,1.36,1.36,0,0,1,1.4-1.39A1.32,1.32,0,0,1,1157.1,483Zm-2.49,15.74V486.5h2.24v12.28Z"/><path class="cls-3" d="M1169.31,498.33a8.24,8.24,0,0,1-3.52.71c-3.71,0-6.12-2.51-6.12-6.27a6.24,6.24,0,0,1,6.6-6.53,7.39,7.39,0,0,1,3.1.64l-.51,1.72a5.26,5.26,0,0,0-2.59-.58c-2.82,0-4.34,2.08-4.34,4.65,0,2.84,1.82,4.59,4.26,4.59a6.31,6.31,0,0,0,2.74-.61Z"/><path class="cls-3" d="M1173,493.05a3.93,3.93,0,0,0,4.22,4.26,8.21,8.21,0,0,0,3.4-.63l.38,1.6a10.06,10.06,0,0,1-4.09.76c-3.78,0-6-2.49-6-6.2s2.18-6.62,5.76-6.62c4,0,5.08,3.53,5.08,5.79a7.57,7.57,0,0,1-.08,1Zm6.55-1.6c0-1.42-.58-3.63-3.1-3.63-2.26,0-3.25,2.08-3.42,3.63Z"/><path class="cls-3" d="M868.24,506.55a16.71,16.71,0,0,0-3.2,10.39,17.07,17.07,0,0,0,3.2,10.31h-1.76a16.42,16.42,0,0,1-3.32-10.31,16.76,16.76,0,0,1,3.32-10.39Z"/><path class="cls-3" d="M870.67,507.29a32.13,32.13,0,0,1,4.7-.36c3.17,0,5.43.74,6.93,2.14a7.87,7.87,0,0,1,2.41,6.14,9,9,0,0,1-2.46,6.65c-1.6,1.6-4.24,2.47-7.57,2.47a34.84,34.84,0,0,1-4-.21Zm2.21,15.13a14.12,14.12,0,0,0,2.24.13c4.72,0,7.28-2.64,7.28-7.26,0-4-2.26-6.6-6.93-6.6a13.18,13.18,0,0,0-2.59.22Z"/><path class="cls-3" d="M887.58,507.29a22.9,22.9,0,0,1,4.24-.36c2.36,0,3.89.44,4.95,1.4a4.27,4.27,0,0,1,1.35,3.25,4.49,4.49,0,0,1-3.23,4.37V516c1.32.46,2.11,1.68,2.52,3.46a26.08,26.08,0,0,0,1.32,4.69h-2.29a21.84,21.84,0,0,1-1.14-4.08c-.51-2.37-1.42-3.25-3.43-3.33h-2.08v7.41h-2.21Zm2.21,7.79h2.26c2.36,0,3.86-1.29,3.86-3.25,0-2.21-1.6-3.17-3.94-3.2a9,9,0,0,0-2.18.21Z"/><path class="cls-3" d="M908.27,524.17l-.18-1.55H908a4.58,4.58,0,0,1-3.76,1.83,3.5,3.5,0,0,1-3.76-3.53c0-3,2.64-4.59,7.39-4.57v-.25a2.53,2.53,0,0,0-2.79-2.84,6.11,6.11,0,0,0-3.2.91l-.51-1.47a7.65,7.65,0,0,1,4-1.09c3.76,0,4.67,2.56,4.67,5v4.6a17.49,17.49,0,0,0,.2,2.94Zm-.33-6.27c-2.44,0-5.2.38-5.2,2.77a2,2,0,0,0,2.1,2.13,3.07,3.07,0,0,0,3-2,2.58,2.58,0,0,0,.12-.72Z"/><path class="cls-3" d="M920.51,524.17l-.18-1.55h-.07a4.58,4.58,0,0,1-3.76,1.83,3.5,3.5,0,0,1-3.76-3.53c0-3,2.64-4.59,7.39-4.57v-.25a2.53,2.53,0,0,0-2.79-2.84,6.08,6.08,0,0,0-3.2.91l-.51-1.47a7.62,7.62,0,0,1,4-1.09c3.75,0,4.67,2.56,4.67,5v4.6a17.49,17.49,0,0,0,.2,2.94Zm-.33-6.27c-2.44,0-5.21.38-5.21,2.77a2,2,0,0,0,2.11,2.13,3,3,0,0,0,3-2,2.28,2.28,0,0,0,.13-.72Z"/><path class="cls-3" d="M925.71,521.48a7.83,7.83,0,0,0,4,1.12c2.26,0,3.58-1.19,3.58-2.92s-.91-2.51-3.22-3.4c-2.79-1-4.52-2.44-4.52-4.85,0-2.67,2.21-4.65,5.54-4.65a7.78,7.78,0,0,1,3.78.84l-.61,1.8a6.88,6.88,0,0,0-3.25-.81c-2.34,0-3.22,1.4-3.22,2.56,0,1.6,1,2.39,3.4,3.3,2.89,1.12,4.36,2.52,4.36,5s-2,4.93-6,4.93a8.8,8.8,0,0,1-4.36-1.09Z"/><path class="cls-3" d="M937.11,527.25a17.17,17.17,0,0,0,3.2-10.39,16.85,16.85,0,0,0-3.2-10.31h1.73a16.2,16.2,0,0,1,3.33,10.34,16.53,16.53,0,0,1-3.33,10.36Z"/><circle class="cls-4" cx="838.42" cy="215" r="4.5"/><circle class="cls-4" cx="838.42" cy="270.31" r="4.5"/><circle class="cls-4" cx="838.42" cy="325.63" r="4.5"/><circle class="cls-4" cx="838.42" cy="377.94" r="4.5"/><circle class="cls-4" cx="838.42" cy="433.25" r="4.5"/><polygon class="cls-5" points="0 0 0 554.97 407.97 554.97 407.97 0.13 0 0"/><path class="cls-3" d="M164.19,59.32V82.13H160V59.32Z"/><path class="cls-3" d="M169,70.55c0-1.89,0-3.48-.14-4.91h3.66l.2,2.48h.1a6,6,0,0,1,5.25-2.85c2.88,0,5.86,1.86,5.86,7.08v9.78h-4.17V72.82c0-2.37-.88-4.16-3.14-4.16a3.49,3.49,0,0,0-3.25,2.43,4.16,4.16,0,0,0-.17,1.36v9.68H169Z"/><path class="cls-3" d="M188.84,82.13V68.76H186.6V65.64h2.24v-.71a7.68,7.68,0,0,1,2-5.61,6.26,6.26,0,0,1,4.3-1.59,8.05,8.05,0,0,1,2.68.4l-.31,3.22a4.79,4.79,0,0,0-1.76-.31c-2.06,0-2.77,1.73-2.77,3.76v.84h3.62v3.12H193V82.13Z"/><path class="cls-3" d="M199.16,71c0-2.24,0-3.83-.13-5.32h3.62l.13,3.15h.14a4.92,4.92,0,0,1,4.5-3.52,4.84,4.84,0,0,1,1,.1V69.3a5.62,5.62,0,0,0-1.22-.14,3.67,3.67,0,0,0-3.72,3.15,6.88,6.88,0,0,0-.14,1.29v8.53h-4.16Z"/><path class="cls-3" d="M220.18,82.13l-.27-1.83h-.1a6.11,6.11,0,0,1-4.87,2.2,4.89,4.89,0,0,1-5.18-4.91c0-4.16,3.69-6.26,9.78-6.23v-.27c0-1.08-.44-2.87-3.35-2.87a8.66,8.66,0,0,0-4.44,1.22l-.81-2.71a11.81,11.81,0,0,1,6-1.46c5.28,0,6.8,3.35,6.8,6.94v6a26.32,26.32,0,0,0,.24,4Zm-.54-8.06c-2.95-.07-5.75.58-5.75,3.08a2.18,2.18,0,0,0,2.36,2.37,3.36,3.36,0,0,0,3.25-2.27,2.73,2.73,0,0,0,.14-.91Z"/><path class="cls-3" d="M227.9,78.3a9.23,9.23,0,0,0,4.23,1.19c1.83,0,2.64-.75,2.64-1.83s-.68-1.69-2.71-2.4c-3.21-1.12-4.57-2.88-4.53-4.81,0-2.91,2.4-5.18,6.23-5.18a9.79,9.79,0,0,1,4.36,1l-.81,3a7.35,7.35,0,0,0-3.49-1c-1.49,0-2.3.71-2.3,1.73s.78,1.55,2.88,2.3c3,1.08,4.36,2.6,4.4,5,0,3-2.34,5.15-6.7,5.15a10.59,10.59,0,0,1-5-1.16Z"/><path class="cls-3" d="M247,60.94v4.7h4v3.12h-4V76c0,2,.54,3,2.13,3a6.28,6.28,0,0,0,1.63-.2l.07,3.18a9.1,9.1,0,0,1-3,.41,4.78,4.78,0,0,1-3.58-1.36c-.88-1-1.29-2.44-1.29-4.6V68.76h-2.37V65.64h2.37V61.92Z"/><path class="cls-3" d="M254.1,71c0-2.24,0-3.83-.13-5.32h3.62l.13,3.15h.14a4.92,4.92,0,0,1,4.5-3.52,4.84,4.84,0,0,1,1,.1V69.3a5.62,5.62,0,0,0-1.22-.14,3.67,3.67,0,0,0-3.72,3.15,6.88,6.88,0,0,0-.14,1.29v8.53H254.1Z"/><path class="cls-3" d="M280.91,77.19c0,2,.07,3.58.13,4.94h-3.65l-.2-2.51h-.07a6,6,0,0,1-5.28,2.88c-3,0-5.76-1.8-5.76-7.18V65.64h4.17v9c0,2.74.88,4.51,3.08,4.51a3.51,3.51,0,0,0,3.18-2.24,3.9,3.9,0,0,0,.24-1.29v-10h4.16Z"/><path class="cls-3" d="M297.53,81.62a12,12,0,0,1-4.67.85c-5.15,0-8.5-3.29-8.5-8.4,0-4.94,3.39-8.8,9.18-8.8a10.37,10.37,0,0,1,4,.78l-.74,3.11a7.43,7.43,0,0,0-3.15-.64c-3.18,0-5.08,2.34-5,5.35,0,3.38,2.2,5.31,5,5.31a8.08,8.08,0,0,0,3.28-.64Z"/><path class="cls-3" d="M305.89,60.94v4.7h4v3.12h-4V76c0,2,.54,3,2.13,3a6.28,6.28,0,0,0,1.63-.2l.07,3.18a9.1,9.1,0,0,1-3,.41,4.78,4.78,0,0,1-3.58-1.36c-.88-1-1.29-2.44-1.29-4.6V68.76h-2.37V65.64h2.37V61.92Z"/><path class="cls-3" d="M327.76,77.19c0,2,.06,3.58.13,4.94h-3.65L324,79.62H324a6,6,0,0,1-5.28,2.88c-3,0-5.76-1.8-5.76-7.18V65.64h4.17v9c0,2.74.88,4.51,3.08,4.51a3.52,3.52,0,0,0,3.18-2.24,3.9,3.9,0,0,0,.23-1.29v-10h4.17Z"/><path class="cls-3" d="M332.26,71c0-2.24,0-3.83-.13-5.32h3.62l.13,3.15H336a4.92,4.92,0,0,1,4.5-3.52,4.84,4.84,0,0,1,1,.1V69.3a5.62,5.62,0,0,0-1.22-.14,3.67,3.67,0,0,0-3.72,3.15,6.88,6.88,0,0,0-.14,1.29v8.53h-4.16Z"/><path class="cls-3" d="M347,75.05c.1,3,2.44,4.27,5.08,4.27a12.24,12.24,0,0,0,4.57-.75l.61,2.88a15.45,15.45,0,0,1-5.76,1c-5.34,0-8.49-3.29-8.49-8.33,0-4.57,2.77-8.87,8.05-8.87s7.11,4.4,7.11,8a11.21,11.21,0,0,1-.13,1.76Zm7.25-2.91c0-1.52-.65-4-3.42-4-2.58,0-3.66,2.33-3.83,4Z"/><path class="cls-3" d="M159.66,112.15a9.23,9.23,0,0,0,4.23,1.19c1.83,0,2.64-.75,2.64-1.83s-.68-1.69-2.71-2.4c-3.21-1.12-4.57-2.88-4.53-4.81,0-2.91,2.4-5.18,6.22-5.18a9.66,9.66,0,0,1,4.37,1l-.81,2.94a7.35,7.35,0,0,0-3.49-1c-1.49,0-2.3.71-2.3,1.73s.78,1.56,2.88,2.3c3,1.08,4.36,2.61,4.4,5,0,3-2.34,5.15-6.71,5.15a10.67,10.67,0,0,1-5-1.15Z"/><path class="cls-3" d="M176.92,108.91c.1,3,2.44,4.26,5.08,4.26a12.28,12.28,0,0,0,4.57-.75l.61,2.88a15.49,15.49,0,0,1-5.76,1c-5.34,0-8.49-3.29-8.49-8.33,0-4.57,2.77-8.87,8-8.87s7.11,4.4,7.11,8a10.06,10.06,0,0,1-.14,1.76Zm7.24-2.92c0-1.52-.64-4-3.41-4-2.58,0-3.66,2.33-3.83,4Z"/><path class="cls-3" d="M191.44,104.81c0-2.23,0-3.82-.13-5.31h3.62l.13,3.14h.14a4.92,4.92,0,0,1,4.5-3.52,4.2,4.2,0,0,1,1,.11v3.92a5.69,5.69,0,0,0-1.22-.13,3.67,3.67,0,0,0-3.72,3.14,7.12,7.12,0,0,0-.13,1.29V116h-4.17Z"/><path class="cls-3" d="M206.88,99.5l2.67,8.36c.48,1.45.81,2.77,1.12,4.13h.1c.31-1.36.68-2.65,1.12-4.13l2.6-8.36h4.4L212.6,116h-4.1L202.38,99.5Z"/><path class="cls-3" d="M225.87,94.89a2.21,2.21,0,0,1-2.37,2.24,2.19,2.19,0,0,1-2.3-2.24,2.34,2.34,0,0,1,4.67,0ZM221.43,116V99.5h4.2V116Z"/><path class="cls-3" d="M242.22,115.47a12,12,0,0,1-4.67.85c-5.15,0-8.5-3.29-8.5-8.4,0-4.94,3.39-8.8,9.17-8.8a10.38,10.38,0,0,1,4,.78l-.74,3.12a7.26,7.26,0,0,0-3.15-.65c-3.18,0-5.08,2.34-5,5.35,0,3.39,2.2,5.31,5,5.31a8.12,8.12,0,0,0,3.28-.64Z"/><path class="cls-3" d="M247.94,108.91c.1,3,2.44,4.26,5.08,4.26a12.28,12.28,0,0,0,4.57-.75l.6,2.88a15.39,15.39,0,0,1-5.75,1c-5.35,0-8.49-3.29-8.49-8.33,0-4.57,2.77-8.87,8.05-8.87s7.11,4.4,7.11,8a10.06,10.06,0,0,1-.14,1.76Zm7.24-2.92c0-1.52-.64-4-3.42-4-2.57,0-3.65,2.33-3.82,4Z"/><path class="cls-3" d="M262.26,112.15a9.23,9.23,0,0,0,4.23,1.19c1.83,0,2.64-.75,2.64-1.83s-.68-1.69-2.71-2.4c-3.21-1.12-4.57-2.88-4.53-4.81,0-2.91,2.4-5.18,6.22-5.18a9.66,9.66,0,0,1,4.37,1l-.81,2.94a7.35,7.35,0,0,0-3.49-1c-1.49,0-2.3.71-2.3,1.73s.78,1.56,2.88,2.3c3,1.08,4.36,2.61,4.4,5,0,3-2.34,5.15-6.7,5.15a10.72,10.72,0,0,1-5-1.15Z"/><path class="cls-3" d="M86.71,221.28a10.84,10.84,0,0,1-4.52.82c-4.82,0-8.45-3-8.45-8.66,0-5.36,3.63-9,8.94-9a9.27,9.27,0,0,1,4.06.76l-.53,1.8a8.19,8.19,0,0,0-3.46-.71c-4,0-6.68,2.57-6.68,7.06,0,4.19,2.42,6.88,6.58,6.88a8.88,8.88,0,0,0,3.61-.71Z"/><path class="cls-3" d="M100.24,215.6c0,4.54-3.14,6.52-6.11,6.52-3.33,0-5.9-2.44-5.9-6.32,0-4.11,2.7-6.53,6.1-6.53S100.24,211.84,100.24,215.6Zm-9.75.12c0,2.69,1.55,4.73,3.74,4.73s3.73-2,3.73-4.78c0-2.08-1-4.72-3.68-4.72S90.49,213.39,90.49,215.72Z"/><path class="cls-3" d="M103.06,212.88c0-1.27,0-2.31-.1-3.33h2l.13,2h.05a4.53,4.53,0,0,1,4.06-2.31c1.7,0,4.34,1,4.34,5.23v7.34h-2.23v-7.08c0-2-.74-3.63-2.85-3.63a3.17,3.17,0,0,0-3,2.28,3.26,3.26,0,0,0-.15,1v7.39h-2.24Z"/><path class="cls-3" d="M116.85,219.56a5.87,5.87,0,0,0,2.94.89c1.63,0,2.39-.82,2.39-1.83s-.64-1.65-2.29-2.26c-2.2-.79-3.25-2-3.25-3.48,0-2,1.6-3.61,4.24-3.61a6.12,6.12,0,0,1,3,.77l-.56,1.62a4.82,4.82,0,0,0-2.52-.71c-1.32,0-2,.76-2,1.68s.73,1.47,2.33,2.08c2.14.81,3.23,1.88,3.23,3.7,0,2.16-1.68,3.69-4.6,3.69a7,7,0,0,1-3.45-.84Z"/><path class="cls-3" d="M137.49,218.49c0,1.27,0,2.39.1,3.35h-2l-.13-2h0a4.62,4.62,0,0,1-4.06,2.28c-1.93,0-4.24-1.06-4.24-5.38v-7.19h2.23v6.81c0,2.33.72,3.91,2.75,3.91a3.13,3.13,0,0,0,3.14-3.18v-7.54h2.24Z"/><path class="cls-3" d="M141.2,203.82h2.23v18H141.2Z"/><path class="cls-3" d="M149.88,206v3.53h3.2v1.7h-3.2v6.63c0,1.52.43,2.39,1.67,2.39a5.29,5.29,0,0,0,1.3-.15l.1,1.67a5.41,5.41,0,0,1-2,.31,3.09,3.09,0,0,1-2.41-.94,4.54,4.54,0,0,1-.87-3.2v-6.71h-1.9v-1.7h1.9v-2.94Z"/><path class="cls-3" d="M158.08,206.1a1.39,1.39,0,0,1-2.77,0,1.36,1.36,0,0,1,1.4-1.4A1.33,1.33,0,0,1,158.08,206.1Zm-2.49,15.74V209.55h2.23v12.29Z"/><path class="cls-3" d="M161.53,212.88c0-1.27,0-2.31-.1-3.33h2l.13,2h.05a4.53,4.53,0,0,1,4.06-2.31c1.7,0,4.34,1,4.34,5.23v7.34h-2.23v-7.08c0-2-.74-3.63-2.85-3.63a3.17,3.17,0,0,0-3,2.28,3.25,3.25,0,0,0-.16,1v7.39h-2.23Z"/><path class="cls-3" d="M186.21,209.55c-.05.89-.1,1.88-.1,3.38v7.14c0,2.81-.56,4.54-1.75,5.61a6.56,6.56,0,0,1-4.47,1.47,7.92,7.92,0,0,1-4.09-1l.56-1.7a6.89,6.89,0,0,0,3.6,1c2.29,0,4-1.2,4-4.29v-1.38h0a4.36,4.36,0,0,1-3.91,2.06c-3,0-5.23-2.59-5.23-6,0-4.16,2.72-6.53,5.54-6.53a4.08,4.08,0,0,1,3.83,2.14h.05l.1-1.86Zm-2.31,4.85a3.17,3.17,0,0,0-.13-1,3.21,3.21,0,0,0-3.12-2.36c-2.13,0-3.66,1.8-3.66,4.64,0,2.41,1.22,4.42,3.63,4.42a3.27,3.27,0,0,0,3.1-2.28,3.88,3.88,0,0,0,.18-1.2Z"/><path class="cls-3" d="M89.18,269.72c-.13-2.39-.28-5.26-.26-7.39h-.07c-.59,2-1.3,4.14-2.16,6.5l-3,8.3H82L79.22,269c-.81-2.41-1.5-4.62-2-6.65h0c0,2.13-.18,5-.33,7.56l-.46,7.34H74.3l1.19-17.11h2.82l2.92,8.28c.71,2.1,1.29,4,1.73,5.76H83c.43-1.73,1-3.61,1.8-5.76l3-8.28H90.7l1.07,17.11H89.61Z"/><path class="cls-3" d="M106.36,271c0,4.55-3.15,6.53-6.12,6.53-3.32,0-5.89-2.44-5.89-6.32,0-4.12,2.69-6.53,6.1-6.53S106.36,267.23,106.36,271Zm-9.75.13c0,2.69,1.55,4.72,3.74,4.72s3.73-2,3.73-4.77c0-2.08-1-4.72-3.68-4.72S96.61,268.78,96.61,271.11Z"/><path class="cls-3" d="M119.79,259.2v14.86c0,1.09,0,2.33.11,3.17h-2l-.1-2.13h-.05a4.56,4.56,0,0,1-4.19,2.41c-3,0-5.26-2.51-5.26-6.25,0-4.08,2.52-6.6,5.51-6.6a4.12,4.12,0,0,1,3.71,1.88h0V259.2Zm-2.23,10.74a4.29,4.29,0,0,0-.1-.94,3.29,3.29,0,0,0-3.23-2.59c-2.31,0-3.68,2-3.68,4.75,0,2.49,1.22,4.55,3.63,4.55a3.36,3.36,0,0,0,3.28-2.67,4.16,4.16,0,0,0,.1-1Z"/><path class="cls-3" d="M124.74,271.49c.05,3,2,4.27,4.22,4.27a8,8,0,0,0,3.4-.64l.38,1.6a9.85,9.85,0,0,1-4.09.76c-3.78,0-6-2.48-6-6.19s2.18-6.63,5.77-6.63c4,0,5.07,3.53,5.07,5.79a10,10,0,0,1-.07,1Zm6.55-1.6c0-1.42-.58-3.63-3.09-3.63-2.26,0-3.25,2.08-3.43,3.63Z"/><path class="cls-3" d="M136.22,268.78c0-1.45,0-2.7-.1-3.84h1.95l.08,2.41h.1a3.69,3.69,0,0,1,3.4-2.69,2.49,2.49,0,0,1,.64.08v2.11a3.41,3.41,0,0,0-.76-.08,3.13,3.13,0,0,0-3,2.87,6.33,6.33,0,0,0-.1,1v6.55h-2.21Z"/><path class="cls-3" d="M144.62,268.27c0-1.27,0-2.31-.1-3.33h2l.13,2h.05a4.53,4.53,0,0,1,4.06-2.31c1.7,0,4.34,1,4.34,5.23v7.34h-2.23v-7.08c0-2-.74-3.63-2.84-3.63a3.17,3.17,0,0,0-3,2.28,3.26,3.26,0,0,0-.15,1v7.39h-2.24Z"/><path class="cls-3" d="M161.2,261.49a1.31,1.31,0,0,1-1.42,1.37,1.33,1.33,0,0,1-1.35-1.37,1.37,1.37,0,0,1,1.4-1.4A1.33,1.33,0,0,1,161.2,261.49Zm-2.49,15.74V264.94H161v12.29Z"/><path class="cls-3" d="M163.26,275.94l5.56-7.24c.53-.66,1-1.24,1.6-1.9v-.06h-6.65v-1.8h9.36l0,1.4-5.48,7.13c-.51.69-1,1.3-1.58,1.93v.05h7.19v1.78h-10Z"/><path class="cls-3" d="M182.33,277.23l-.18-1.55h-.08a4.55,4.55,0,0,1-3.76,1.83,3.5,3.5,0,0,1-3.75-3.53c0-3,2.64-4.59,7.38-4.57v-.25a2.53,2.53,0,0,0-2.79-2.85,6.14,6.14,0,0,0-3.2.92l-.51-1.48a7.65,7.65,0,0,1,4-1.09c3.76,0,4.67,2.57,4.67,5v4.6a16.51,16.51,0,0,0,.21,2.94ZM182,271c-2.44,0-5.21.38-5.21,2.77a2,2,0,0,0,2.11,2.13,3.06,3.06,0,0,0,3-2.06,2.53,2.53,0,0,0,.13-.71Z"/><path class="cls-3" d="M190.35,261.41v3.53h3.2v1.7h-3.2v6.63c0,1.52.43,2.39,1.67,2.39a4.76,4.76,0,0,0,1.3-.16l.1,1.68a5.44,5.44,0,0,1-2,.3,3.12,3.12,0,0,1-2.41-.93,4.54,4.54,0,0,1-.87-3.2v-6.71h-1.9v-1.7h1.9V262Z"/><path class="cls-3" d="M198.55,261.49a1.39,1.39,0,0,1-2.77,0,1.36,1.36,0,0,1,1.4-1.4A1.33,1.33,0,0,1,198.55,261.49Zm-2.49,15.74V264.94h2.23v12.29Z"/><path class="cls-3" d="M213.12,271c0,4.55-3.15,6.53-6.12,6.53-3.32,0-5.89-2.44-5.89-6.32,0-4.12,2.69-6.53,6.1-6.53S213.12,267.23,213.12,271Zm-9.75.13c0,2.69,1.55,4.72,3.73,4.72s3.74-2,3.74-4.77c0-2.08-1.05-4.72-3.69-4.72S203.37,268.78,203.37,271.11Z"/><path class="cls-3" d="M215.94,268.27c0-1.27,0-2.31-.1-3.33h2l.12,2H218a4.52,4.52,0,0,1,4.06-2.31c1.7,0,4.34,1,4.34,5.23v7.34h-2.23v-7.08c0-2-.74-3.63-2.85-3.63a3.17,3.17,0,0,0-3,2.28,3,3,0,0,0-.16,1v7.39h-2.23Z"/><path class="cls-3" d="M89.18,325.1c-.13-2.38-.28-5.25-.26-7.39h-.07c-.59,2-1.3,4.14-2.16,6.5l-3,8.31H82l-2.77-8.15c-.81-2.41-1.5-4.62-2-6.66h0c0,2.14-.18,5-.33,7.57l-.46,7.34H74.3l1.19-17.11h2.82l2.92,8.27c.71,2.11,1.29,4,1.73,5.77H83c.43-1.73,1-3.61,1.8-5.77l3-8.27H90.7l1.07,17.11H89.61Z"/><path class="cls-3" d="M97.88,316.88a1.38,1.38,0,0,1-2.76,0,1.36,1.36,0,0,1,1.39-1.4A1.33,1.33,0,0,1,97.88,316.88Zm-2.49,15.74V320.33h2.24v12.29Z"/><path class="cls-3" d="M111.92,320.33c0,.89-.1,1.88-.1,3.38v7.13c0,2.82-.56,4.55-1.75,5.61a6.5,6.5,0,0,1-4.47,1.48,8,8,0,0,1-4.09-1l.56-1.7a6.9,6.9,0,0,0,3.61,1c2.28,0,4-1.19,4-4.29v-1.37h0a4.4,4.4,0,0,1-3.91,2.06c-3.05,0-5.23-2.59-5.23-6,0-4.17,2.71-6.53,5.53-6.53a4.12,4.12,0,0,1,3.84,2.13h.05l.1-1.85Zm-2.31,4.85a3.29,3.29,0,0,0-.12-1,3.23,3.23,0,0,0-3.13-2.36c-2.13,0-3.65,1.81-3.65,4.65,0,2.41,1.21,4.42,3.63,4.42a3.26,3.26,0,0,0,3.09-2.29,3.78,3.78,0,0,0,.18-1.19Z"/><path class="cls-3" d="M115.37,324.16c0-1.44,0-2.69-.1-3.83h2l.07,2.41h.11a3.67,3.67,0,0,1,3.4-2.69,2.41,2.41,0,0,1,.63.08v2.1a3.39,3.39,0,0,0-.76-.07,3.14,3.14,0,0,0-3,2.87,6.33,6.33,0,0,0-.1,1v6.55h-2.21Z"/><path class="cls-3" d="M130.35,332.62l-.17-1.55h-.08a4.58,4.58,0,0,1-3.76,1.83,3.5,3.5,0,0,1-3.76-3.53c0-3,2.64-4.6,7.39-4.57v-.26a2.53,2.53,0,0,0-2.79-2.84,6.11,6.11,0,0,0-3.2.92l-.51-1.48a7.65,7.65,0,0,1,4-1.09c3.76,0,4.67,2.57,4.67,5v4.59a17.62,17.62,0,0,0,.2,2.95Zm-.33-6.27c-2.43-.05-5.2.38-5.2,2.77a2,2,0,0,0,2.11,2.13,3.06,3.06,0,0,0,3-2.06,2.52,2.52,0,0,0,.12-.71Z"/><path class="cls-3" d="M138.38,316.8v3.53h3.2V322h-3.2v6.63c0,1.52.43,2.38,1.67,2.38a4.84,4.84,0,0,0,1.3-.15l.1,1.68a5.44,5.44,0,0,1-2,.3,3.09,3.09,0,0,1-2.41-.94,4.52,4.52,0,0,1-.87-3.2V322h-1.9v-1.7h1.9v-2.95Z"/><path class="cls-3" d="M146.58,316.88a1.39,1.39,0,0,1-2.77,0,1.36,1.36,0,0,1,1.4-1.4A1.33,1.33,0,0,1,146.58,316.88Zm-2.49,15.74V320.33h2.23v12.29Z"/><path class="cls-3" d="M161.15,326.37c0,4.55-3.15,6.53-6.12,6.53-3.33,0-5.89-2.44-5.89-6.32,0-4.12,2.69-6.53,6.09-6.53S161.15,322.62,161.15,326.37Zm-9.75.13c0,2.69,1.55,4.72,3.73,4.72s3.73-2,3.73-4.77c0-2.08-1-4.72-3.68-4.72S151.4,324.16,151.4,326.5Z"/><path class="cls-3" d="M164,323.66c0-1.27,0-2.31-.1-3.33h2l.12,2H166a4.52,4.52,0,0,1,4.07-2.31c1.7,0,4.34,1,4.34,5.23v7.34h-2.24v-7.08c0-2-.73-3.64-2.84-3.64a3.19,3.19,0,0,0-3,2.29,3.26,3.26,0,0,0-.15,1v7.39H164Z"/><path class="cls-3" d="M77.52,382.63,75.74,388H73.46l5.81-17.12h2.67L87.78,388H85.42l-1.83-5.38Zm5.61-1.73L81.46,376c-.38-1.11-.64-2.13-.89-3.12h0c-.26,1-.54,2.06-.87,3.1L78,380.9Z"/><path class="cls-3" d="M100.19,384.66c0,1.27,0,2.38.11,3.35h-2l-.13-2h0a4.64,4.64,0,0,1-4.06,2.29c-1.93,0-4.25-1.07-4.25-5.39v-7.18h2.24v6.8c0,2.34.71,3.91,2.74,3.91a3.24,3.24,0,0,0,3-2,3.4,3.4,0,0,0,.2-1.14v-7.54h2.23Z"/><path class="cls-3" d="M106.59,372.19v3.53h3.2v1.7h-3.2v6.63c0,1.52.43,2.38,1.68,2.38a4.81,4.81,0,0,0,1.29-.15l.1,1.68a5.62,5.62,0,0,1-2,.3,3.09,3.09,0,0,1-2.41-.94,4.57,4.57,0,0,1-.86-3.2v-6.7H102.5v-1.7h1.91v-3Z"/><path class="cls-3" d="M123.27,381.76c0,4.55-3.15,6.53-6.12,6.53-3.32,0-5.89-2.44-5.89-6.33,0-4.11,2.69-6.52,6.1-6.52S123.27,378,123.27,381.76Zm-9.75.13c0,2.69,1.55,4.72,3.73,4.72s3.74-2,3.74-4.77c0-2.08-1-4.72-3.68-4.72S113.52,379.55,113.52,381.89Z"/><path class="cls-3" d="M126.09,379c0-1.26,0-2.31-.1-3.32h2l.1,2h.08a4.24,4.24,0,0,1,3.86-2.26,3.63,3.63,0,0,1,3.48,2.46h0a5.08,5.08,0,0,1,1.37-1.6,4.2,4.2,0,0,1,2.72-.86c1.62,0,4,1.07,4,5.33V388h-2.18v-7c0-2.36-.86-3.78-2.66-3.78a2.91,2.91,0,0,0-2.65,2,3.72,3.72,0,0,0-.17,1.12V388h-2.19v-7.37c0-1.95-.86-3.37-2.56-3.37a3,3,0,0,0-2.77,2.23,3,3,0,0,0-.18,1.09V388h-2.18Z"/><path class="cls-3" d="M154.07,388l-.18-1.55h-.08a4.57,4.57,0,0,1-3.75,1.83,3.5,3.5,0,0,1-3.76-3.53c0-3,2.64-4.6,7.39-4.57v-.26a2.54,2.54,0,0,0-2.8-2.84,6.17,6.17,0,0,0-3.19.91l-.51-1.47a7.61,7.61,0,0,1,4-1.09c3.76,0,4.68,2.56,4.68,5v4.59a17.62,17.62,0,0,0,.2,2.95Zm-.33-6.27c-2.44-.05-5.21.38-5.21,2.76a2,2,0,0,0,2.11,2.14,3.05,3.05,0,0,0,3-2.06,2.22,2.22,0,0,0,.13-.71Z"/><path class="cls-3" d="M162.09,372.19v3.53h3.2v1.7h-3.2v6.63c0,1.52.43,2.38,1.68,2.38a4.81,4.81,0,0,0,1.29-.15l.1,1.68a5.62,5.62,0,0,1-2,.3,3.09,3.09,0,0,1-2.41-.94,4.57,4.57,0,0,1-.86-3.2v-6.7H158v-1.7h1.91v-3Z"/><path class="cls-3" d="M170.29,372.27a1.31,1.31,0,0,1-1.42,1.37,1.33,1.33,0,0,1-1.35-1.37,1.37,1.37,0,0,1,1.4-1.4A1.33,1.33,0,0,1,170.29,372.27ZM167.8,388V375.72H170V388Z"/><path class="cls-3" d="M184.86,381.76c0,4.55-3.14,6.53-6.11,6.53-3.33,0-5.9-2.44-5.9-6.33,0-4.11,2.7-6.52,6.1-6.52S184.86,378,184.86,381.76Zm-9.75.13c0,2.69,1.55,4.72,3.74,4.72s3.73-2,3.73-4.77c0-2.08-1-4.72-3.68-4.72S175.11,379.55,175.11,381.89Z"/><path class="cls-3" d="M187.68,379c0-1.26,0-2.31-.1-3.32h2l.13,2h.05a4.51,4.51,0,0,1,4.06-2.31c1.7,0,4.34,1,4.34,5.23V388h-2.23v-7.09c0-2-.74-3.63-2.85-3.63a3.17,3.17,0,0,0-3,2.29,3.26,3.26,0,0,0-.15,1V388h-2.24Z"/><path class="cls-3" d="M77,426.28V443.4H74.75V426.28Z"/><path class="cls-3" d="M81,434.43c0-1.27,0-2.31-.1-3.32h2l.12,2h.06a4.51,4.51,0,0,1,4.06-2.31c1.7,0,4.34,1,4.34,5.23v7.34H89.23v-7.09c0-2-.74-3.63-2.85-3.63a3.17,3.17,0,0,0-3,2.29,3,3,0,0,0-.16,1v7.39H81Z"/><path class="cls-3" d="M97.68,427.58v3.53h3.2v1.7h-3.2v6.63c0,1.52.43,2.38,1.68,2.38a4.81,4.81,0,0,0,1.29-.15l.1,1.68a5.67,5.67,0,0,1-2,.3,3.09,3.09,0,0,1-2.41-.94,4.53,4.53,0,0,1-.86-3.2v-6.7H93.59v-1.7H95.5v-2.95Z"/><path class="cls-3" d="M104.48,437.66a3.93,3.93,0,0,0,4.22,4.26,8.17,8.17,0,0,0,3.4-.63l.38,1.6a10.06,10.06,0,0,1-4.09.76c-3.78,0-6-2.49-6-6.2s2.18-6.62,5.76-6.62c4,0,5.08,3.53,5.08,5.79a10.18,10.18,0,0,1-.07,1Zm6.55-1.6c0-1.42-.58-3.63-3.09-3.63-2.26,0-3.25,2.08-3.43,3.63Z"/><path class="cls-3" d="M126.55,431.11c0,.89-.1,1.88-.1,3.37v7.14c0,2.82-.56,4.54-1.76,5.61a6.49,6.49,0,0,1-4.47,1.47,7.91,7.91,0,0,1-4.08-1l.56-1.7a7,7,0,0,0,3.6,1c2.29,0,4-1.19,4-4.29v-1.37h-.05a4.38,4.38,0,0,1-3.91,2.06c-3,0-5.23-2.59-5.23-6,0-4.16,2.72-6.52,5.54-6.52a4.07,4.07,0,0,1,3.83,2.13h0l.1-1.85ZM124.24,436a3.28,3.28,0,0,0-.13-1,3.23,3.23,0,0,0-3.12-2.36c-2.14,0-3.66,1.8-3.66,4.65,0,2.41,1.22,4.41,3.63,4.41a3.27,3.27,0,0,0,3.1-2.28,3.78,3.78,0,0,0,.18-1.19Z"/><path class="cls-3" d="M130,434.94c0-1.45,0-2.69-.1-3.83h1.95l.08,2.41h.1a3.68,3.68,0,0,1,3.4-2.69,2.51,2.51,0,0,1,.64.07V433a3.45,3.45,0,0,0-.76-.07,3.13,3.13,0,0,0-3,2.86,6.46,6.46,0,0,0-.1,1.05v6.55H130Z"/><path class="cls-3" d="M145,443.4l-.18-1.55h-.08a4.57,4.57,0,0,1-3.75,1.83,3.51,3.51,0,0,1-3.76-3.53c0-3,2.64-4.6,7.39-4.57v-.26a2.54,2.54,0,0,0-2.8-2.84,6.07,6.07,0,0,0-3.19.91l-.51-1.47a7.61,7.61,0,0,1,4-1.09c3.76,0,4.68,2.56,4.68,5v4.59a17.62,17.62,0,0,0,.2,2.95Zm-.33-6.28c-2.44-.05-5.21.39-5.21,2.77a2,2,0,0,0,2.11,2.13,3,3,0,0,0,3-2,2.22,2.22,0,0,0,.13-.71Z"/><path class="cls-3" d="M153,427.58v3.53h3.2v1.7H153v6.63c0,1.52.43,2.38,1.68,2.38a4.81,4.81,0,0,0,1.29-.15l.1,1.68a5.62,5.62,0,0,1-2,.3,3.09,3.09,0,0,1-2.41-.94,4.57,4.57,0,0,1-.86-3.2v-6.7h-1.91v-1.7h1.91v-2.95Z"/><path class="cls-3" d="M161.2,427.65a1.31,1.31,0,0,1-1.42,1.37,1.32,1.32,0,0,1-1.35-1.37,1.36,1.36,0,0,1,1.4-1.39A1.32,1.32,0,0,1,161.2,427.65Zm-2.49,15.75V431.11H161V443.4Z"/><path class="cls-3" d="M175.77,437.15c0,4.54-3.14,6.53-6.11,6.53-3.33,0-5.9-2.44-5.9-6.33,0-4.11,2.7-6.52,6.1-6.52S175.77,433.39,175.77,437.15Zm-9.75.13c0,2.69,1.55,4.72,3.74,4.72s3.73-2,3.73-4.77c0-2.09-1-4.73-3.68-4.73S166,434.94,166,437.28Z"/><path class="cls-3" d="M178.59,434.43c0-1.27,0-2.31-.1-3.32h2l.13,2h.05a4.51,4.51,0,0,1,4.06-2.31c1.7,0,4.34,1,4.34,5.23v7.34h-2.23v-7.09c0-2-.74-3.63-2.85-3.63a3.17,3.17,0,0,0-3,2.29,3.26,3.26,0,0,0-.15,1v7.39h-2.24Z"/><path class="cls-3" d="M74.75,481.9a21.69,21.69,0,0,1,4-.36c2.21,0,3.63.39,4.7,1.25a3.57,3.57,0,0,1,1.42,3A4.07,4.07,0,0,1,82,489.57v.05a4.4,4.4,0,0,1,3.52,4.29,4.63,4.63,0,0,1-1.44,3.43c-1.2,1.09-3.13,1.6-5.92,1.6a24.32,24.32,0,0,1-3.43-.21Zm2.21,7h2c2.33,0,3.71-1.22,3.71-2.87,0-2-1.53-2.79-3.76-2.79a9.31,9.31,0,0,0-2,.15Zm0,8.2a11.44,11.44,0,0,0,1.86.1c2.28,0,4.39-.84,4.39-3.33,0-2.33-2-3.3-4.42-3.3H77Z"/><path class="cls-3" d="M88.44,490.33c0-1.45,0-2.69-.1-3.83h2l.08,2.41h.1a3.68,3.68,0,0,1,3.4-2.69,2.51,2.51,0,0,1,.64.07v2.11a3.41,3.41,0,0,0-.76-.08,3.14,3.14,0,0,0-3,2.87,6.44,6.44,0,0,0-.1,1v6.55H88.44Z"/><path class="cls-3" d="M107.61,492.54c0,4.54-3.15,6.52-6.12,6.52-3.33,0-5.89-2.43-5.89-6.32,0-4.11,2.69-6.52,6.09-6.52S107.61,488.78,107.61,492.54Zm-9.75.13c0,2.69,1.55,4.72,3.73,4.72s3.73-2,3.73-4.78c0-2.08-1-4.72-3.68-4.72S97.86,490.33,97.86,492.67Z"/><path class="cls-3" d="M112.63,492.13h.05c.31-.43.74-1,1.1-1.39l3.6-4.24h2.69l-4.74,5.05,5.4,7.23H118l-4.24-5.89-1.15,1.27v4.62h-2.21v-18h2.21Z"/><path class="cls-3" d="M123.58,493.05c0,3,2,4.26,4.21,4.26a8.14,8.14,0,0,0,3.4-.63l.38,1.6a10,10,0,0,1-4.08.76c-3.79,0-6-2.49-6-6.2s2.19-6.62,5.77-6.62c4,0,5.08,3.53,5.08,5.79a9.62,9.62,0,0,1-.08,1Zm6.55-1.6c0-1.43-.59-3.63-3.1-3.63-2.26,0-3.25,2.08-3.43,3.63Z"/><path class="cls-3" d="M135.05,490.33c0-1.45,0-2.69-.1-3.83h2l.07,2.41h.1a3.69,3.69,0,0,1,3.41-2.69,2.43,2.43,0,0,1,.63.07v2.11a3.41,3.41,0,0,0-.76-.08,3.14,3.14,0,0,0-3,2.87,6.44,6.44,0,0,0-.1,1v6.55h-2.21Z"/><path class="cls-3" d="M150,498.78l-.18-1.54h-.07a4.6,4.6,0,0,1-3.76,1.82,3.5,3.5,0,0,1-3.76-3.53c0-3,2.64-4.59,7.39-4.57v-.25a2.53,2.53,0,0,0-2.79-2.84,6.08,6.08,0,0,0-3.2.91l-.51-1.47a7.65,7.65,0,0,1,4-1.09c3.76,0,4.67,2.56,4.67,5v4.6a17.41,17.41,0,0,0,.2,2.94Zm-.33-6.27c-2.44-.05-5.2.38-5.2,2.77a2,2,0,0,0,2.1,2.13,3,3,0,0,0,3-2.05,2.27,2.27,0,0,0,.13-.71Z"/><path class="cls-3" d="M166.05,486.5c-.05.88-.1,1.87-.1,3.37V497c0,2.82-.56,4.54-1.75,5.61a6.51,6.51,0,0,1-4.47,1.47,8,8,0,0,1-4.09-1l.56-1.71a6.9,6.9,0,0,0,3.61,1c2.28,0,4-1.19,4-4.29v-1.37h-.05a4.4,4.4,0,0,1-3.91,2.05c-3.05,0-5.23-2.59-5.23-6,0-4.16,2.71-6.52,5.53-6.52a4.07,4.07,0,0,1,3.83,2.13H164l.1-1.85Zm-2.31,4.85a2.94,2.94,0,0,0-.13-1,3.2,3.2,0,0,0-3.12-2.36c-2.13,0-3.66,1.8-3.66,4.64,0,2.42,1.22,4.42,3.64,4.42a3.25,3.25,0,0,0,3.09-2.28,3.8,3.8,0,0,0,.18-1.2Z"/><path class="cls-3" d="M170.9,493.05c0,3,2,4.26,4.21,4.26a8.22,8.22,0,0,0,3.41-.63l.38,1.6a10.1,10.1,0,0,1-4.09.76c-3.78,0-6-2.49-6-6.2s2.18-6.62,5.76-6.62c4,0,5.08,3.53,5.08,5.79a7.57,7.57,0,0,1-.08,1Zm6.55-1.6c0-1.43-.58-3.63-3.1-3.63-2.26,0-3.25,2.08-3.43,3.63Z"/><circle class="cls-4" cx="51.4" cy="215" r="4.5"/><circle class="cls-4" cx="51.4" cy="270.31" r="4.5"/><circle class="cls-4" cx="51.4" cy="325.63" r="4.5"/><circle class="cls-4" cx="51.4" cy="380.94" r="4.5"/><circle class="cls-4" cx="51.4" cy="436.25" r="4.5"/><circle class="cls-4" cx="459.48" cy="490.25" r="4.5"/><circle class="cls-4" cx="838.42" cy="489.25" r="4.5"/><circle class="cls-4" cx="51.4" cy="492.25" r="4.5"/><line class="cls-7" x1="19.1" y1="171" x2="388.87" y2="170.93"/><path class="cls-3" d="M526.23,83.12c-.48.31-.94.8-1.47.88-.74.12-1.15-.48-1.17-1.43a30.7,30.7,0,0,0-2.66-12.09A30,30,0,0,0,512,59.06l-.66-.52a1.31,1.31,0,0,1-.38-1.87,1.33,1.33,0,0,1,2-.19,31.76,31.76,0,0,1,7,7.07,32.6,32.6,0,0,1,6.15,16.91,3.61,3.61,0,0,0,.15.61Z"/><path class="cls-3" d="M479.65,115.59l3.66,2.42c.19-.27.39-.53.57-.8a48.15,48.15,0,0,0,8-23.15c.28-3.71.27-7.44.36-11.16,0-1.25.31-1.79,1.19-1.83s1.36.5,1.41,1.68a81.91,81.91,0,0,1-1,16.25,49.23,49.23,0,0,1-8.35,20.5l4.24,2.88-10.94,5.37Z"/><path class="cls-3" d="M502.39,88.65a67.53,67.53,0,0,1-5.8,25.66c-.41.94-1,1.23-1.83.9s-.95-1-.54-2a61.34,61.34,0,0,0,3.91-11.72c1.24-5.88,2-11.82,1.24-17.85a8.26,8.26,0,0,0-2.74-5.44,5.16,5.16,0,0,0-8.2,2.21,17.67,17.67,0,0,0-.79,4.63c-.11.92,0,1.87,0,2.8a1.26,1.26,0,0,1-1.23,1.36,1.21,1.21,0,0,1-1.33-1.17,23.06,23.06,0,0,1,.53-7.68c1.38-4.56,6.18-7.16,10.34-5.55,3.41,1.32,5.18,4.09,5.83,7.54C502.16,84.42,502.2,86.55,502.39,88.65Z"/><path class="cls-3" d="M473,83.88a21.08,21.08,0,0,1,2.61-11.17,20.57,20.57,0,0,1,29-7.23c.7.46,1.12,1,.79,1.86s-1.22,1-2.12.4A18.4,18.4,0,0,0,495.89,65,17.82,17.82,0,0,0,476.1,78.81a59.23,59.23,0,0,0-.61,7.32c0,.59-.06,1.18-.13,1.76-.11.88-.65,1.38-1.38,1.33s-1.23-.65-1.19-1.59C472.85,86.51,472.92,85.4,473,83.88Z"/><path class="cls-3" d="M515.09,85.86c-.35,9-1.36,16.47-4,23.64a6.19,6.19,0,0,1-.23.6,1.31,1.31,0,1,1-2.43-1c.67-2.16,1.41-4.3,1.95-6.5a71.79,71.79,0,0,0,2-18.93,19,19,0,0,0-4.19-11.23c-.88-1.15-.92-1.88-.22-2.43s1.44-.26,2.35.91A21.9,21.9,0,0,1,515.09,85.86Z"/><path class="cls-3" d="M521.1,83.89c0,.24,0,.62,0,1,0,1.06-.43,1.6-1.25,1.62s-1.28-.53-1.37-1.63a35,35,0,0,0-.47-4.71c-2.26-10.21-8-17.38-18.2-20.59a28.32,28.32,0,0,0-2.91-.6c-.94-.19-1.38-.7-1.28-1.5s.68-1.19,1.65-1.06a25.48,25.48,0,0,1,14.61,7.18A29.9,29.9,0,0,1,521.1,83.89Z"/><path class="cls-3" d="M478.67,87c.37-2.83.55-5.69,1.17-8.46A17.87,17.87,0,0,1,482.05,74a1.14,1.14,0,0,1,1.72-.29,1.2,1.2,0,0,1,.32,1.8c-2.16,2.85-2.49,6.18-2.51,9.55a48.09,48.09,0,0,1-1.23,12.66,26.22,26.22,0,0,1-4.83,9.78,6.87,6.87,0,0,1-.63.69A1.3,1.3,0,0,1,473,106.4,23.11,23.11,0,0,0,478,96.49a33.58,33.58,0,0,0,1-9.42Z"/><path class="cls-3" d="M506.24,87.09a17.29,17.29,0,0,0-2.4-10.25,12,12,0,0,0-15.57-4.72c-.94.42-1.64.25-2-.49s0-1.45.93-1.91c6.68-3.24,14.61-.84,18.8,5.67a19.49,19.49,0,0,1,2.86,10.54c0,1.18,0,2.36,0,3.54,0,1-.57,1.54-1.39,1.5s-1.21-.57-1.21-1.56Z"/><path class="cls-3" d="M493.48,49.91a34.43,34.43,0,0,1,14.06,3.3c.67.31,1.19.72,1.09,1.54s-1.06,1.35-2.09.87A29.31,29.31,0,0,0,498.31,53a29.85,29.85,0,0,0-18.85,3.11c-.2.1-.38.22-.58.31A1.34,1.34,0,0,1,477,56a1.29,1.29,0,0,1,.63-1.86,30,30,0,0,1,9.57-3.5C489.28,50.32,491.39,50.16,493.48,49.91Z"/><path class="cls-3" d="M460.91,81.43a32.39,32.39,0,0,1,8.59-20.82c.88-1,1.85-1.84,2.81-2.72a1.37,1.37,0,0,1,2.06-.1c.57.62.45,1.37-.37,2.08A29.65,29.65,0,0,0,464.05,77c-.34,1.82-.42,3.7-.58,5.55-.09,1-.49,1.48-1.31,1.48s-1.23-.5-1.25-1.5Z"/><path class="cls-3" d="M490.44,56.29a1.33,1.33,0,0,1,1.42,1.22,1.28,1.28,0,0,1-1.12,1.37,47.7,47.7,0,0,0-5.06,1.19,23.52,23.52,0,0,0-13.15,11.07c-.15.27-.28.55-.43.82a1.36,1.36,0,0,1-1.8.67,1.28,1.28,0,0,1-.52-1.83,42.21,42.21,0,0,1,3.36-5.12,26,26,0,0,1,17.05-9.35Z"/><path class="cls-3" d="M470.27,76.59a32.77,32.77,0,0,0-.54,3.3c-.12,2-.14,4-.17,6a22.77,22.77,0,0,1-3.1,10.7,1.35,1.35,0,0,1-1.93.72,1.31,1.31,0,0,1-.36-1.95A22.75,22.75,0,0,0,467,83.06a39.25,39.25,0,0,1,.69-6.55,1.3,1.3,0,0,1,2.58.08Z"/><path class="cls-3" d="M487.57,93.75a34,34,0,0,1-6.12,18,1.39,1.39,0,0,1-2,.54,1.31,1.31,0,0,1-.2-2A31.85,31.85,0,0,0,485,93.54c.06-.93.59-1.43,1.4-1.37S487.62,92.8,487.57,93.75Z"/><path class="cls-3" d="M508.41,95.1c-.46,2.31-.82,4.65-1.39,6.93-.91,3.67-2,7.31-3,11-.29,1-1,1.46-1.74,1.21s-1-.94-.73-2q1.94-7.65,3.83-15.33c.17-.66.2-1.35.31-2a1.31,1.31,0,0,1,1.44-1.27A1.43,1.43,0,0,1,508.41,95.1Z"/><path class="cls-3" d="M521,91.5c-.72,3.87-1.43,7.74-2.17,11.6a1.27,1.27,0,0,1-1.57,1.08,1.3,1.3,0,0,1-.94-1.67c.37-2,.83-4.07,1.18-6.11.29-1.68.5-3.38.7-5.07.14-1.09.6-1.61,1.46-1.54S520.88,90.4,521,91.5Z"/><path class="cls-3" d="M473.09,91.86c1.13,0,1.75.68,1.6,1.5a28.91,28.91,0,0,1-4.11,10.21,1.27,1.27,0,0,1-1.86.4,1.34,1.34,0,0,1-.26-1.91,29,29,0,0,0,3.4-7.92,5.23,5.23,0,0,1,.33-1.35A4.47,4.47,0,0,1,473.09,91.86Z"/><path class="cls-3" d="M55.8,121.71a5.49,5.49,0,0,1,3.4-3.78.8.8,0,0,0,.34-.53,3.64,3.64,0,0,0,0-.81V56.82H80.49V89.34H90.9c0-.22.07-.45.07-.68,0-3,0-6,0-9a1,1,0,0,0-.41-.82,4.82,4.82,0,0,1-3.25-4.91c.09-2.35,1.43-3.8,3.68-4.62V56.75h7.65V52.27l9.9,5.71-9.89,5.7V59.27H93.54a5.38,5.38,0,0,0-.07.69c0,2.88,0,5.77,0,8.65a.91.91,0,0,0,.67,1,4.69,4.69,0,0,1,3,4.6,4.83,4.83,0,0,1-3,4.53,1.14,1.14,0,0,0-.62.78c0,3.13,0,6.25,0,9.38a3.15,3.15,0,0,0,.07.47h5.08V84.91l9.89,5.71L98.7,96.29V92H93.53v29.41h5.08v-4.42l9.9,5.72-9.85,5.69v-4.44H91v-32H80.54v32.59H79.37c-4.33,0-8.66,0-13,0a1.42,1.42,0,0,0-1.44.76,4.61,4.61,0,0,1-4.64,2.31A4.8,4.8,0,0,1,56,124.1l-.21-.58ZM62,59.26c0,.32,0,.58,0,.84q0,28.49,0,57a.94.94,0,0,0,.72,1,4.53,4.53,0,0,1,2.83,3.17c.16.64.43.78,1,.78,3.55,0,7.1,0,10.64,0,.26,0,.52,0,.79-.05V59.26ZM89.71,74a2.5,2.5,0,0,0,2.35,2.58,2.53,2.53,0,0,0,2.65-2.38,2.5,2.5,0,1,0-5-.2ZM63.25,122.69a2.49,2.49,0,1,0-5-.07,2.49,2.49,0,0,0,5,.07Z"/><path class="cls-3" d="M125.94,98H110.55V82.62h15.39ZM113,95.49h10.43V85.05H113Z"/><path class="cls-3" d="M110.55,114.94h15.38v15.38H110.55Zm12.9,13V117.43H113V127.9Z"/><path class="cls-3" d="M125.94,65.65H110.53V50.32h15.41Zm-2.47-12.92H113V63.22h10.43Z"/><path class="cls-3" d="M73.84,82.49v2.36H66.17V82.49Z"/><path class="cls-3" d="M73.82,92v2.36H66.17V92Z"/><path class="cls-3" d="M66.16,104v-2.39h7.66V104Z"/><path class="cls-3" d="M73.83,63.44v2.32H66.16V63.44Z"/><path class="cls-3" d="M73.83,68.19v2.32H66.15V68.19Z"/><path class="cls-3" d="M73.82,73v2.3H66.16V73Z"/><path class="cls-3" d="M73.81,80.08H66.15V77.74h7.66Z"/><path class="cls-3" d="M66.16,99.14V96.81H73.8v2.33Z"/><path class="cls-3" d="M73.83,106.35v2.32H66.15v-2.32Z"/><path class="cls-3" d="M73.83,87.29v2.27H66.16V87.29Z"/><path class="cls-3" d="M910.54,119.86,899.79,130.1c-1.48-1.54-2.93-3.06-4.37-4.59s-3-3.27-4.58-4.79a3,3,0,0,0-1.92-.55,9.34,9.34,0,0,1-4.73-1c-2.56-1.37-3.83-3-4.68-6.33H847.92V64.59a5.2,5.2,0,0,1-3.68-3.72A4.93,4.93,0,0,1,847.12,55a1.07,1.07,0,0,0,.78-1.2c-.06-1.22,0-2.44,0-3.73h44.24V68.36h-2.43V52.6h-39.3a13.75,13.75,0,0,0,0,1.7.82.82,0,0,0,.46.58,4.93,4.93,0,0,1,3.27,4.77,4.74,4.74,0,0,1-3.23,4.67c-.65.25-.52.71-.52,1.16q0,15,0,29.93v14.83h39.3c0-1.57,0-3.15,0-4.74,0-.22-.31-.46-.53-.63q-2.7-2.16-5.44-4.28c-2.57-2-2.65-4.85-.18-6.94a3.6,3.6,0,0,1,4.68-.21l1.43,1V85.5h-4.5l5.81-10.07c1.94,3.37,3.82,6.61,5.78,10h-4.52v3.43c0,2.15,0,4.3,0,6.45a1.43,1.43,0,0,0,.72,1.4q3.87,2.6,7.68,5.3a1.79,1.79,0,0,1,.67,1.12c.35,2.9.62,5.8,1,8.7a2.1,2.1,0,0,0,.65,1.19C905.39,115.3,907.94,117.55,910.54,119.86Zm-18.33-7.06H882.13a5.43,5.43,0,0,0,2.26,3.54,7.35,7.35,0,0,0,5.37,1.31,2.87,2.87,0,0,1,2.82,1.18,33,33,0,0,0,2.29,2.45l5,5.27,7-6.63c-2.17-1.93-4.27-3.77-6.32-5.65a2.3,2.3,0,0,1-.64-1.28c-.35-2.8-.62-5.6-1-8.4a1.79,1.79,0,0,0-.65-1.14c-3.78-2.65-7.59-5.25-11.37-7.89a1.32,1.32,0,0,0-1.94.18c-1.05,1.07-.93,1.93.37,2.93q3.23,2.51,6.41,5.07a1.26,1.26,0,0,1,.47.85C892.23,107.28,892.21,110,892.21,112.8ZM851.63,59.61a2.51,2.51,0,0,0-2.49-2.51,2.53,2.53,0,1,0-.06,5.06A2.5,2.5,0,0,0,851.63,59.61Z"/><path class="cls-3" d="M858.7,71.23V68.86h22.65v2.37Z"/><path class="cls-3" d="M858.71,91.07V88.68h22.65v2.39Z"/><path class="cls-3" d="M881.33,64.63H858.72V62.21h22.61Z"/><path class="cls-3" d="M858.71,77.84V75.47h22.65v2.37Z"/><path class="cls-3" d="M858.71,84.46V82.08h22.65v2.38Z"/><path class="cls-3" d="M881.37,95.33v2.39H858.73V95.33Z"/><path class="cls-3" d="M858.71,104.28v-2.37h22.65v2.37Z"/></svg>