<?xml version="1.0" encoding="utf-8"?>
<!-- Generator: Adobe Illustrator 22.1.0, SVG Export Plug-In . SVG Version: 6.00 Build 0)  -->
<svg version="1.1" xmlns="http://www.w3.org/2000/svg" xmlns:xlink="http://www.w3.org/1999/xlink" x="0px" y="0px" width="350px"
	 height="350px" viewBox="0 0 350 350" style="enable-background:new 0 0 350 350;" xml:space="preserve">
<style type="text/css">
	.st0{fill:#FCDDD6;}
	.st1{fill:#FBC2BA;}
	.st2{fill:#F16C51;}
	.st3{fill:#ECE1CE;}
	.st4{fill:#EAC8A5;}
	.st5{fill:#DF9926;}
	.st6{fill:#D8E7DA;}
	.st7{fill:#A8D7CD;}
	.st8{fill:#00B28F;}
	.st9{fill:#92D1FF;}
	.st10{fill:#0F9FFA;}
	.st11{fill:none;}
	.st12{fill:none;stroke:#FFFFFF;stroke-width:1.5;stroke-miterlimit:10;}
	.st13{display:none;}
	.st14{display:inline;}
	.st15{fill:none;stroke:#061838;stroke-width:0.5887;stroke-miterlimit:10;}
	.st16{fill:none;stroke:#000000;stroke-width:0.1397;stroke-miterlimit:10;}
	.st17{fill:none;stroke:#020204;stroke-width:0.216;stroke-miterlimit:10;}
	.st18{fill:none;stroke:#FFFFFF;stroke-width:1.5;stroke-linejoin:bevel;stroke-miterlimit:10;}
	.st19{fill:#FFFFFF;}
	.st20{fill:none;stroke:#FFFFFF;stroke-width:1.5;stroke-linecap:square;stroke-miterlimit:10;}
	.st21{fill:none;stroke:#FFFFFF;stroke-width:1.4995;stroke-miterlimit:22.9256;}
	.st22{fill:none;stroke:#FFFFFF;stroke-width:1.4992;stroke-miterlimit:22.9256;}
	.st23{fill:none;stroke:#FFFFFF;stroke-width:1.4992;stroke-miterlimit:10;}
	.st24{fill:none;stroke:#FFFFFF;stroke-width:1.4995;stroke-linecap:square;stroke-miterlimit:10;}
	.st25{fill:none;stroke:#FFFFFF;stroke-width:1.4992;}
	.st26{fill:none;stroke:#FFFFFF;stroke-width:1.5001;stroke-linecap:square;stroke-miterlimit:10;}
	.st27{fill:none;stroke:#FFFFFF;stroke-width:1.5;stroke-linejoin:bevel;}
	.st28{fill:none;stroke:#FFFFFF;stroke-width:1.5;stroke-miterlimit:10;stroke-dasharray:5,5;}
</style>
<g id="Layer_3">
	<g>
		<path class="st0" d="M342.9,175c0,26.4-6.1,51.4-16.9,73.6c-2.4,5-5,9.7-7.9,14.4c-27.8,45.1-76.2,76-132.2,79.6
			c-3.6,0.2-7.2,0.4-10.9,0.4c-1.9,0-3.7,0-5.5-0.1c-56.3-1.8-105.6-31.3-134.6-75.4c-3-4.6-5.8-9.3-8.4-14.1
			c-12.4-23.4-19.4-50-19.4-78.3c0-27.3,6.5-53.2,18.1-76c2.5-4.9,5.2-9.7,8.1-14.3C61.8,40.2,110.7,10,166.8,7.3
			c2.7-0.1,5.5-0.2,8.2-0.2c2.7,0,5.5,0.1,8.2,0.2c54.2,2.6,101.7,30.9,130.5,73.1c3.1,4.5,6,9.2,8.6,14
			C335.4,118.3,342.9,145.8,342.9,175z"/>
		<path class="st0" d="M237.6,175c0,9.8-2.3,19.1-6.3,27.4c-0.9,1.8-1.9,3.6-3,5.4c-10.3,16.8-28.4,28.3-49.3,29.7
			c-1.3,0.1-2.7,0.1-4.1,0.1c-0.7,0-1.4,0-2.1,0c-21-0.7-39.3-11.7-50.2-28.1c-1.1-1.7-2.2-3.5-3.1-5.3c-4.6-8.7-7.2-18.6-7.2-29.2
			c0-10.2,2.4-19.8,6.8-28.3c0.9-1.8,1.9-3.6,3-5.3c10.6-16.6,28.8-27.9,49.7-28.9c1,0,2-0.1,3.1-0.1c1,0,2,0,3.1,0.1
			c20.2,1,37.9,11.5,48.6,27.2c1.2,1.7,2.2,3.4,3.2,5.2C234.8,153.9,237.6,164.1,237.6,175z"/>
		<path class="st11" d="M323.6,253.2c-1,1.8-1.9,3.6-3,5.4l-92.4-50.8c-10.3,16.8-28.4,28.3-49.3,29.7l1.7,105.4
			c-1.9,0.1-3.8,0.1-5.7,0.1h-0.4l-1.7-105.4c-21-0.7-39.3-11.7-50.2-28.1L32,263.1c-1.1-1.7-2.1-3.5-3.1-5.3l90.7-53.7
			c-4.6-8.7-7.2-18.6-7.2-29.2c0-10.2,2.4-19.8,6.8-28.3L27.6,94.5c1-1.8,2-3.6,3-5.3l91.6,52.2c10.6-16.6,28.8-27.9,49.7-28.9V7.1
			c1,0,2,0,3.1,0c1,0,2,0,3.1,0v105.4c20.2,1,37.9,11.5,48.6,27.2l89.9-55.1c1.1,1.7,2.2,3.5,3.2,5.2l-89.9,55.1
			c4.9,8.9,7.7,19.2,7.7,30.1c0,9.8-2.3,19.1-6.3,27.4L323.6,253.2z"/>
		<path class="st2" d="M171.9,7.1v105.4c-20.9,1-39.1,12.3-49.7,28.9L30.7,89.2C59.5,40.8,111.8,8.2,171.9,7.1z"/>
		<path class="st11" d="M323.6,253.2l-92.4-50.8c4-8.3,6.3-17.6,6.3-27.4c0-10.9-2.8-21.1-7.7-30.1l89.9-55.1l6-3.7
			c-1-1.8-2.1-3.5-3.2-5.2l-6,3.7l-89.9,55.1c-10.7-15.7-28.4-26.2-48.6-27.2V0c-1,0-2,0-3.1,0c-1,0-2,0-3.1,0v112.5
			c-20.9,1-39.1,12.3-49.7,28.9L30.7,89.2l-6.2-3.5c-1,1.8-2.1,3.5-3,5.3l6.1,3.5l91.6,52.2c-4.3,8.5-6.8,18.1-6.8,28.3
			c0,10.5,2.6,20.5,7.2,29.2l-90.7,53.7l-6.1,3.6c1,1.8,2,3.5,3.1,5.3l6.1-3.6l90.7-53.7c10.8,16.4,29.2,27.4,50.2,28.1l1.7,105.4
			l0.1,7.1h0.3c1.9,0,3.9,0,5.8-0.1l-0.1-7.1l-1.7-105.4c20.8-1.3,38.9-12.9,49.3-29.7l92.4,50.8l6.2,3.4c1-1.8,2-3.5,3-5.4
			L323.6,253.2z"/>
		<path class="st1" d="M350,175c0,29.5-7.3,57.2-20.1,81.6l-6.2-3.4c12.3-23.4,19.3-50,19.3-78.2c0-31.1-8.4-60.2-23.2-85.2l6-3.7
			C341.2,112.2,350,142.6,350,175z"/>
		<path class="st1" d="M326.9,262c-29.3,51-83.5,85.9-146.1,87.9l-0.1-7.1c59.9-2,111.9-35.4,140-84.3L326.9,262z"/>
		<path class="st1" d="M174.7,350c-62.9-0.1-118-33.4-148.8-83.3l6.1-3.6c29.5,47.8,82.3,79.7,142.6,79.8L174.7,350z"/>
		<path class="st1" d="M28.9,257.9l-6.1,3.6C8.3,236,0,206.5,0,175c0-30.5,7.8-59.1,21.5-84l6.1,3.5C14.5,118.4,7.1,145.8,7.1,175
			C7.1,205.1,15,233.4,28.9,257.9z"/>
		<path class="st1" d="M171.9,0v7.1c-60.1,1.1-112.5,33.7-141.3,82l-6.2-3.5C54.5,35.2,109.2,1.1,171.9,0z"/>
		<path class="st1" d="M322.6,80.9l-6,3.7C287.2,38.8,236.3,8.1,178.1,7.1V0C238.8,1.1,292,33.1,322.6,80.9z"/>
		<path class="st2" d="M316.5,84.6l-89.9,55.1c-10.7-15.7-28.4-26.2-48.6-27.2V7.1C236.3,8.1,287.2,38.8,316.5,84.6z"/>
		<path class="st2" d="M342.9,175c0,28.2-7,54.8-19.3,78.2l-92.4-50.8c4-8.3,6.3-17.6,6.3-27.4c0-10.9-2.8-21.1-7.7-30.1l89.9-55.1
			C334.5,114.8,342.9,143.9,342.9,175z"/>
		<path class="st2" d="M320.7,258.5c-28.1,48.9-80,82.3-140,84.3l-1.7-105.4c20.8-1.3,38.9-12.9,49.3-29.7L320.7,258.5z"/>
		<path class="st2" d="M174.6,342.9c-60.3-0.1-113.1-32-142.6-79.8l90.7-53.7c10.8,16.4,29.2,27.4,50.2,28.1L174.6,342.9z"/>
		<path class="st2" d="M119.6,204.2l-90.7,53.7C15,233.4,7.1,205.1,7.1,175c0-29.2,7.4-56.6,20.5-80.5l91.6,52.2
			c-4.3,8.5-6.8,18.1-6.8,28.3C112.4,185.5,115,195.5,119.6,204.2z"/>
	</g>
</g>
<g id="Layer_1" class="st13">
	<g class="st14">
		<rect x="203.7" y="22.8" class="st16" width="9" height="9"/>
		<rect x="212.7" y="22.8" class="st16" width="9" height="9"/>
		<rect x="221.7" y="22.8" class="st16" width="9" height="9"/>
		<rect x="230.7" y="22.8" class="st16" width="9" height="9"/>
		<rect x="239.7" y="22.8" class="st16" width="9" height="9"/>
		<rect x="248.7" y="22.8" class="st16" width="9" height="9"/>
		<rect x="203.7" y="31.8" class="st16" width="9" height="9"/>
		<rect x="212.7" y="31.8" class="st16" width="9" height="9"/>
		<rect x="221.7" y="31.8" class="st16" width="9" height="9"/>
		<rect x="230.7" y="31.8" class="st16" width="9" height="9"/>
		<rect x="239.7" y="31.8" class="st16" width="9" height="9"/>
		<rect x="248.7" y="31.8" class="st16" width="9" height="9"/>
		<rect x="203.7" y="40.8" class="st16" width="9" height="9"/>
		<rect x="212.7" y="40.8" class="st16" width="9" height="9"/>
		<rect x="221.7" y="40.8" class="st16" width="9" height="9"/>
		<rect x="230.7" y="40.8" class="st16" width="9" height="9"/>
		<rect x="239.7" y="40.8" class="st16" width="9" height="9"/>
		<rect x="248.7" y="40.8" class="st16" width="9" height="9"/>
		<rect x="203.7" y="49.8" class="st16" width="9" height="9"/>
		<rect x="212.7" y="49.8" class="st16" width="9" height="9"/>
		<rect x="221.7" y="49.8" class="st16" width="9" height="9"/>
		<rect x="230.7" y="49.8" class="st16" width="9" height="9"/>
		<rect x="239.7" y="49.8" class="st16" width="9" height="9"/>
		<rect x="248.7" y="49.8" class="st16" width="9" height="9"/>
		<rect x="203.7" y="58.8" class="st16" width="9" height="9"/>
		<rect x="212.7" y="58.8" class="st16" width="9" height="9"/>
		<rect x="221.7" y="58.8" class="st16" width="9" height="9"/>
		<rect x="230.7" y="58.8" class="st16" width="9" height="9"/>
		<rect x="239.7" y="58.8" class="st16" width="9" height="9"/>
		<rect x="248.7" y="58.8" class="st16" width="9" height="9"/>
		<rect x="203.7" y="67.8" class="st16" width="9" height="9"/>
		<rect x="212.7" y="67.8" class="st16" width="9" height="9"/>
		<rect x="221.7" y="67.8" class="st16" width="9" height="9"/>
		<rect x="230.7" y="67.8" class="st16" width="9" height="9"/>
		<rect x="239.7" y="67.8" class="st16" width="9" height="9"/>
		<rect x="248.7" y="67.8" class="st16" width="9" height="9"/>
		<rect x="203.7" y="76.8" class="st16" width="9" height="9"/>
		<rect x="212.7" y="76.8" class="st16" width="9" height="9"/>
		<rect x="221.7" y="76.8" class="st16" width="9" height="9"/>
		<rect x="230.7" y="76.8" class="st16" width="9" height="9"/>
		<rect x="239.7" y="76.8" class="st16" width="9" height="9"/>
		<rect x="248.7" y="76.8" class="st16" width="9" height="9"/>
	</g>
	<g class="st14">
		<rect x="87" y="25.4" class="st16" width="9" height="9"/>
		<rect x="96" y="25.4" class="st16" width="9" height="9"/>
		<rect x="105" y="25.4" class="st16" width="9" height="9"/>
		<rect x="114" y="25.4" class="st16" width="9" height="9"/>
		<rect x="123" y="25.4" class="st16" width="9" height="9"/>
		<rect x="132" y="25.4" class="st16" width="9" height="9"/>
		<rect x="87" y="34.4" class="st16" width="9" height="9"/>
		<rect x="96" y="34.4" class="st16" width="9" height="9"/>
		<rect x="105" y="34.4" class="st16" width="9" height="9"/>
		<rect x="114" y="34.4" class="st16" width="9" height="9"/>
		<rect x="123" y="34.4" class="st16" width="9" height="9"/>
		<rect x="132" y="34.4" class="st16" width="9" height="9"/>
		<rect x="87" y="43.4" class="st16" width="9" height="9"/>
		<rect x="96" y="43.4" class="st16" width="9" height="9"/>
		<rect x="105" y="43.4" class="st16" width="9" height="9"/>
		<rect x="114" y="43.4" class="st16" width="9" height="9"/>
		<rect x="123" y="43.4" class="st16" width="9" height="9"/>
		<rect x="132" y="43.4" class="st16" width="9" height="9"/>
		<rect x="87" y="52.4" class="st16" width="9" height="9"/>
		<rect x="96" y="52.4" class="st16" width="9" height="9"/>
		<rect x="105" y="52.4" class="st16" width="9" height="9"/>
		<rect x="114" y="52.4" class="st16" width="9" height="9"/>
		<rect x="123" y="52.4" class="st16" width="9" height="9"/>
		<rect x="132" y="52.4" class="st16" width="9" height="9"/>
		<rect x="87" y="61.4" class="st16" width="9" height="9"/>
		<rect x="96" y="61.4" class="st16" width="9" height="9"/>
		<rect x="105" y="61.4" class="st16" width="9" height="9"/>
		<rect x="114" y="61.4" class="st16" width="9" height="9"/>
		<rect x="123" y="61.4" class="st16" width="9" height="9"/>
		<rect x="132" y="61.4" class="st16" width="9" height="9"/>
		<rect x="87" y="70.4" class="st16" width="9" height="9"/>
		<rect x="96" y="70.4" class="st16" width="9" height="9"/>
		<rect x="105" y="70.4" class="st16" width="9" height="9"/>
		<rect x="114" y="70.4" class="st16" width="9" height="9"/>
		<rect x="123" y="70.4" class="st16" width="9" height="9"/>
		<rect x="132" y="70.4" class="st16" width="9" height="9"/>
		<rect x="87" y="79.4" class="st16" width="9" height="9"/>
		<rect x="96" y="79.4" class="st16" width="9" height="9"/>
		<rect x="105" y="79.4" class="st16" width="9" height="9"/>
		<rect x="114" y="79.4" class="st16" width="9" height="9"/>
		<rect x="123" y="79.4" class="st16" width="9" height="9"/>
		<rect x="132" y="79.4" class="st16" width="9" height="9"/>
	</g>
	<g class="st14">
		<rect x="36.8" y="125.1" class="st16" width="9" height="9"/>
		<rect x="45.8" y="125.1" class="st16" width="9" height="9"/>
		<rect x="54.8" y="125.1" class="st16" width="9" height="9"/>
		<rect x="63.8" y="125.1" class="st16" width="9" height="9"/>
		<rect x="72.8" y="125.1" class="st16" width="9" height="9"/>
		<rect x="81.8" y="125.1" class="st16" width="9" height="9"/>
		<rect x="36.8" y="134.1" class="st16" width="9" height="9"/>
		<rect x="45.8" y="134.1" class="st16" width="9" height="9"/>
		<rect x="54.8" y="134.1" class="st16" width="9" height="9"/>
		<rect x="63.8" y="134.1" class="st16" width="9" height="9"/>
		<rect x="72.8" y="134.1" class="st16" width="9" height="9"/>
		<rect x="81.8" y="134.1" class="st16" width="9" height="9"/>
		<rect x="36.8" y="143.1" class="st16" width="9" height="9"/>
		<rect x="45.8" y="143.1" class="st16" width="9" height="9"/>
		<rect x="54.8" y="143.1" class="st16" width="9" height="9"/>
		<rect x="63.8" y="143.1" class="st16" width="9" height="9"/>
		<rect x="72.8" y="143.1" class="st16" width="9" height="9"/>
		<rect x="81.8" y="143.1" class="st16" width="9" height="9"/>
		<rect x="36.8" y="152.1" class="st16" width="9" height="9"/>
		<rect x="45.8" y="152.1" class="st16" width="9" height="9"/>
		<rect x="54.8" y="152.1" class="st16" width="9" height="9"/>
		<rect x="63.8" y="152.1" class="st16" width="9" height="9"/>
		<rect x="72.8" y="152.1" class="st16" width="9" height="9"/>
		<rect x="81.8" y="152.1" class="st16" width="9" height="9"/>
		<rect x="36.8" y="161.1" class="st16" width="9" height="9"/>
		<rect x="45.8" y="161.1" class="st16" width="9" height="9"/>
		<rect x="54.8" y="161.1" class="st16" width="9" height="9"/>
		<rect x="63.8" y="161.1" class="st16" width="9" height="9"/>
		<rect x="72.8" y="161.1" class="st16" width="9" height="9"/>
		<rect x="81.8" y="161.1" class="st16" width="9" height="9"/>
		<rect x="36.8" y="170.1" class="st16" width="9" height="9"/>
		<rect x="45.8" y="170.1" class="st16" width="9" height="9"/>
		<rect x="54.8" y="170.1" class="st16" width="9" height="9"/>
		<rect x="63.8" y="170.1" class="st16" width="9" height="9"/>
		<rect x="72.8" y="170.1" class="st16" width="9" height="9"/>
		<rect x="81.8" y="170.1" class="st16" width="9" height="9"/>
		<rect x="36.8" y="179.1" class="st16" width="9" height="9"/>
		<rect x="45.8" y="179.1" class="st16" width="9" height="9"/>
		<rect x="54.8" y="179.1" class="st16" width="9" height="9"/>
		<rect x="63.8" y="179.1" class="st16" width="9" height="9"/>
		<rect x="72.8" y="179.1" class="st16" width="9" height="9"/>
		<rect x="81.8" y="179.1" class="st16" width="9" height="9"/>
	</g>
	<g class="st14">
		<rect x="91.8" y="227.2" class="st16" width="9" height="9"/>
		<rect x="100.8" y="227.2" class="st16" width="9" height="9"/>
		<rect x="109.8" y="227.2" class="st16" width="9" height="9"/>
		<rect x="118.8" y="227.2" class="st16" width="9" height="9"/>
		<rect x="127.8" y="227.2" class="st16" width="9" height="9"/>
		<rect x="136.8" y="227.2" class="st16" width="9" height="9"/>
		<rect x="91.8" y="236.2" class="st16" width="9" height="9"/>
		<rect x="100.8" y="236.2" class="st16" width="9" height="9"/>
		<rect x="109.8" y="236.2" class="st16" width="9" height="9"/>
		<rect x="118.8" y="236.2" class="st16" width="9" height="9"/>
		<rect x="127.8" y="236.2" class="st16" width="9" height="9"/>
		<rect x="136.8" y="236.2" class="st16" width="9" height="9"/>
		<rect x="91.8" y="245.2" class="st16" width="9" height="9"/>
		<rect x="100.8" y="245.2" class="st16" width="9" height="9"/>
		<rect x="109.8" y="245.2" class="st16" width="9" height="9"/>
		<rect x="118.8" y="245.2" class="st16" width="9" height="9"/>
		<rect x="127.8" y="245.2" class="st16" width="9" height="9"/>
		<rect x="136.8" y="245.2" class="st16" width="9" height="9"/>
		<rect x="91.8" y="254.2" class="st16" width="9" height="9"/>
		<rect x="100.8" y="254.2" class="st16" width="9" height="9"/>
		<rect x="109.8" y="254.2" class="st16" width="9" height="9"/>
		<rect x="118.8" y="254.2" class="st16" width="9" height="9"/>
		<rect x="127.8" y="254.2" class="st16" width="9" height="9"/>
		<rect x="136.8" y="254.2" class="st16" width="9" height="9"/>
		<rect x="91.8" y="263.2" class="st16" width="9" height="9"/>
		<rect x="100.8" y="263.2" class="st16" width="9" height="9"/>
		<rect x="109.8" y="263.2" class="st16" width="9" height="9"/>
		<rect x="118.8" y="263.2" class="st16" width="9" height="9"/>
		<rect x="127.8" y="263.2" class="st16" width="9" height="9"/>
		<rect x="136.8" y="263.2" class="st16" width="9" height="9"/>
		<rect x="91.8" y="272.2" class="st16" width="9" height="9"/>
		<rect x="100.8" y="272.2" class="st16" width="9" height="9"/>
		<rect x="109.8" y="272.2" class="st16" width="9" height="9"/>
		<rect x="118.8" y="272.2" class="st16" width="9" height="9"/>
		<rect x="127.8" y="272.2" class="st16" width="9" height="9"/>
		<rect x="136.8" y="272.2" class="st16" width="9" height="9"/>
		<rect x="91.8" y="281.2" class="st16" width="9" height="9"/>
		<rect x="100.8" y="281.2" class="st16" width="9" height="9"/>
		<rect x="109.8" y="281.2" class="st16" width="9" height="9"/>
		<rect x="118.8" y="281.2" class="st16" width="9" height="9"/>
		<rect x="127.8" y="281.2" class="st16" width="9" height="9"/>
		<rect x="136.8" y="281.2" class="st16" width="9" height="9"/>
	</g>
	<g class="st14">
		<rect x="201.7" y="221.5" class="st16" width="9" height="9"/>
		<rect x="210.7" y="221.5" class="st16" width="9" height="9"/>
		<rect x="219.7" y="221.5" class="st16" width="9" height="9"/>
		<rect x="228.7" y="221.5" class="st16" width="9" height="9"/>
		<rect x="237.7" y="221.5" class="st16" width="9" height="9"/>
		<rect x="246.7" y="221.5" class="st16" width="9" height="9"/>
		<rect x="201.7" y="230.5" class="st16" width="9" height="9"/>
		<rect x="210.7" y="230.5" class="st16" width="9" height="9"/>
		<rect x="219.7" y="230.5" class="st16" width="9" height="9"/>
		<rect x="228.7" y="230.5" class="st16" width="9" height="9"/>
		<rect x="237.7" y="230.5" class="st16" width="9" height="9"/>
		<rect x="246.7" y="230.5" class="st16" width="9" height="9"/>
		<rect x="201.7" y="239.5" class="st16" width="9" height="9"/>
		<rect x="210.7" y="239.5" class="st16" width="9" height="9"/>
		<rect x="219.7" y="239.5" class="st16" width="9" height="9"/>
		<rect x="228.7" y="239.5" class="st16" width="9" height="9"/>
		<rect x="237.7" y="239.5" class="st16" width="9" height="9"/>
		<rect x="246.7" y="239.5" class="st16" width="9" height="9"/>
		<rect x="201.7" y="248.5" class="st16" width="9" height="9"/>
		<rect x="210.7" y="248.5" class="st16" width="9" height="9"/>
		<rect x="219.7" y="248.5" class="st16" width="9" height="9"/>
		<rect x="228.7" y="248.5" class="st16" width="9" height="9"/>
		<rect x="237.7" y="248.5" class="st16" width="9" height="9"/>
		<rect x="246.7" y="248.5" class="st16" width="9" height="9"/>
		<rect x="201.7" y="257.5" class="st16" width="9" height="9"/>
		<rect x="210.7" y="257.5" class="st16" width="9" height="9"/>
		<rect x="219.7" y="257.5" class="st16" width="9" height="9"/>
		<rect x="228.7" y="257.5" class="st16" width="9" height="9"/>
		<rect x="237.7" y="257.5" class="st16" width="9" height="9"/>
		<rect x="246.7" y="257.5" class="st16" width="9" height="9"/>
		<rect x="201.7" y="266.5" class="st16" width="9" height="9"/>
		<rect x="210.7" y="266.5" class="st16" width="9" height="9"/>
		<rect x="219.7" y="266.5" class="st16" width="9" height="9"/>
		<rect x="228.7" y="266.5" class="st16" width="9" height="9"/>
		<rect x="237.7" y="266.5" class="st16" width="9" height="9"/>
		<rect x="246.7" y="266.5" class="st16" width="9" height="9"/>
		<rect x="201.7" y="275.5" class="st16" width="9" height="9"/>
		<rect x="210.7" y="275.5" class="st16" width="9" height="9"/>
		<rect x="219.7" y="275.5" class="st16" width="9" height="9"/>
		<rect x="228.7" y="275.5" class="st16" width="9" height="9"/>
		<rect x="237.7" y="275.5" class="st16" width="9" height="9"/>
		<rect x="246.7" y="275.5" class="st16" width="9" height="9"/>
	</g>
	<g class="st14">
		<rect x="273.8" y="125.1" class="st16" width="9" height="9"/>
		<rect x="282.8" y="125.1" class="st16" width="9" height="9"/>
		<rect x="291.8" y="125.1" class="st16" width="9" height="9"/>
		<rect x="300.8" y="125.1" class="st16" width="9" height="9"/>
		<rect x="309.8" y="125.1" class="st16" width="9" height="9"/>
		<rect x="318.8" y="125.1" class="st16" width="9" height="9"/>
		<rect x="273.8" y="134.1" class="st16" width="9" height="9"/>
		<rect x="282.8" y="134.1" class="st16" width="9" height="9"/>
		<rect x="291.8" y="134.1" class="st16" width="9" height="9"/>
		<rect x="300.8" y="134.1" class="st16" width="9" height="9"/>
		<rect x="309.8" y="134.1" class="st16" width="9" height="9"/>
		<rect x="318.8" y="134.1" class="st16" width="9" height="9"/>
		<rect x="273.8" y="143.1" class="st16" width="9" height="9"/>
		<rect x="282.8" y="143.1" class="st16" width="9" height="9"/>
		<rect x="291.8" y="143.1" class="st16" width="9" height="9"/>
		<rect x="300.8" y="143.1" class="st16" width="9" height="9"/>
		<rect x="309.8" y="143.1" class="st16" width="9" height="9"/>
		<rect x="318.8" y="143.1" class="st16" width="9" height="9"/>
		<rect x="273.8" y="152.1" class="st16" width="9" height="9"/>
		<rect x="282.8" y="152.1" class="st16" width="9" height="9"/>
		<rect x="291.8" y="152.1" class="st16" width="9" height="9"/>
		<rect x="300.8" y="152.1" class="st16" width="9" height="9"/>
		<rect x="309.8" y="152.1" class="st16" width="9" height="9"/>
		<rect x="318.8" y="152.1" class="st16" width="9" height="9"/>
		<rect x="273.8" y="161.1" class="st16" width="9" height="9"/>
		<rect x="282.8" y="161.1" class="st16" width="9" height="9"/>
		<rect x="291.8" y="161.1" class="st16" width="9" height="9"/>
		<rect x="300.8" y="161.1" class="st16" width="9" height="9"/>
		<rect x="309.8" y="161.1" class="st16" width="9" height="9"/>
		<rect x="318.8" y="161.1" class="st16" width="9" height="9"/>
		<rect x="273.8" y="170.1" class="st16" width="9" height="9"/>
		<rect x="282.8" y="170.1" class="st16" width="9" height="9"/>
		<rect x="291.8" y="170.1" class="st16" width="9" height="9"/>
		<rect x="300.8" y="170.1" class="st16" width="9" height="9"/>
		<rect x="309.8" y="170.1" class="st16" width="9" height="9"/>
		<rect x="318.8" y="170.1" class="st16" width="9" height="9"/>
		<rect x="273.8" y="179.1" class="st16" width="9" height="9"/>
		<rect x="282.8" y="179.1" class="st16" width="9" height="9"/>
		<rect x="291.8" y="179.1" class="st16" width="9" height="9"/>
		<rect x="300.8" y="179.1" class="st16" width="9" height="9"/>
		<rect x="309.8" y="179.1" class="st16" width="9" height="9"/>
		<rect x="318.8" y="179.1" class="st16" width="9" height="9"/>
	</g>
</g>
<g id="Layer_4">
	<g>
		<path class="st19" d="M214.1,95.6c0.4,0.3,1.1,0.5,1.8,0.5c0.9,0,1.4-0.4,1.4-1c0-0.6-0.4-0.9-1.3-1.2c-1.2-0.4-2-1.1-2-2.2
			c0-1.2,1-2.1,2.6-2.1c0.8,0,1.4,0.2,1.8,0.4L218,91c-0.3-0.1-0.8-0.4-1.5-0.4c-0.9,0-1.2,0.5-1.2,0.9c0,0.6,0.4,0.8,1.4,1.2
			c1.3,0.5,1.9,1.1,1.9,2.2c0,1.2-0.9,2.2-2.8,2.2c-0.8,0-1.6-0.2-2-0.5L214.1,95.6z"/>
		<path class="st19" d="M219.8,93.5c0-0.7,0-1.3,0-1.8h1.2l0.1,0.8h0c0.4-0.6,1-0.9,1.8-0.9c1.2,0,2.3,1.1,2.3,2.7
			c0,1.9-1.2,2.9-2.4,2.9c-0.7,0-1.2-0.3-1.5-0.7h0v2.8h-1.4V93.5z M221.2,94.8c0,0.1,0,0.3,0,0.4c0.1,0.5,0.6,0.9,1.2,0.9
			c0.9,0,1.4-0.7,1.4-1.8c0-0.9-0.5-1.7-1.3-1.7c-0.6,0-1.1,0.4-1.2,1c0,0.1-0.1,0.2-0.1,0.3V94.8z"/>
		<path class="st19" d="M227.2,94.8c0,1,0.8,1.4,1.7,1.4c0.6,0,1.1-0.1,1.5-0.2l0.2,0.9c-0.5,0.2-1.1,0.3-1.9,0.3
			c-1.7,0-2.8-1.1-2.8-2.7c0-1.5,0.9-2.9,2.6-2.9c1.7,0,2.3,1.4,2.3,2.6c0,0.3,0,0.5,0,0.6H227.2z M229.6,93.8
			c0-0.5-0.2-1.3-1.1-1.3c-0.8,0-1.2,0.8-1.2,1.3H229.6z"/>
		<path class="st19" d="M231.9,93.3c0-0.6,0-1.1,0-1.6h1.2l0.1,0.8h0c0.2-0.4,0.8-0.9,1.7-0.9c0.9,0,1.9,0.6,1.9,2.3v3.2h-1.4v-3
			c0-0.8-0.3-1.4-1-1.4c-0.5,0-0.9,0.4-1.1,0.8c0,0.1-0.1,0.3-0.1,0.4v3.1h-1.4V93.3z"/>
		<path class="st19" d="M243.2,89.3v6.3c0,0.6,0,1.1,0,1.5H242l-0.1-0.8h0c-0.3,0.6-1,1-1.7,1c-1.3,0-2.3-1.1-2.3-2.7
			c0-1.8,1.1-2.9,2.4-2.9c0.7,0,1.3,0.3,1.5,0.7h0v-3H243.2z M241.8,93.9c0-0.1,0-0.2,0-0.4c-0.1-0.5-0.6-1-1.2-1
			c-0.9,0-1.4,0.8-1.4,1.8c0,1,0.5,1.7,1.3,1.7c0.6,0,1-0.4,1.2-1c0-0.1,0-0.3,0-0.4V93.9z"/>
		<path class="st19" d="M211.4,108.1l-0.1-0.6h0c-0.3,0.4-0.9,0.7-1.6,0.7c-1.1,0-1.7-0.8-1.7-1.6c0-1.4,1.2-2,3.2-2v-0.1
			c0-0.4-0.1-0.9-1.1-0.9c-0.5,0-1.1,0.2-1.4,0.4l-0.3-0.9c0.4-0.2,1.1-0.5,1.9-0.5c1.7,0,2.2,1.1,2.2,2.3v1.9c0,0.5,0,1,0.1,1.3
			H211.4z M211.2,105.4c-1,0-1.9,0.2-1.9,1c0,0.5,0.3,0.8,0.8,0.8c0.5,0,0.9-0.4,1.1-0.7c0-0.1,0-0.2,0-0.3V105.4z"/>
		<path class="st19" d="M213.9,104.3c0-0.6,0-1.1,0-1.6h1.2l0.1,0.8h0c0.2-0.4,0.8-0.9,1.7-0.9c0.9,0,1.9,0.6,1.9,2.3v3.2h-1.4v-3
			c0-0.8-0.3-1.4-1-1.4c-0.5,0-0.9,0.4-1.1,0.8c0,0.1-0.1,0.3-0.1,0.4v3.1h-1.4V104.3z"/>
		<path class="st19" d="M223.3,108.1l-0.1-0.6h0c-0.3,0.4-0.9,0.7-1.6,0.7c-1.1,0-1.7-0.8-1.7-1.6c0-1.4,1.2-2,3.2-2v-0.1
			c0-0.4-0.1-0.9-1.1-0.9c-0.5,0-1.1,0.2-1.4,0.4l-0.3-0.9c0.4-0.2,1.1-0.5,1.9-0.5c1.7,0,2.2,1.1,2.2,2.3v1.9c0,0.5,0,1,0.1,1.3
			H223.3z M223.1,105.4c-1,0-1.9,0.2-1.9,1c0,0.5,0.3,0.8,0.8,0.8c0.5,0,0.9-0.4,1.1-0.7c0-0.1,0-0.2,0-0.3V105.4z"/>
		<path class="st19" d="M225.8,100.3h1.4v7.8h-1.4V100.3z"/>
		<path class="st19" d="M229.5,102.7l1,2.9c0.1,0.3,0.2,0.7,0.3,1h0c0.1-0.3,0.2-0.7,0.3-1.1l0.8-2.9h1.5l-1.3,3.7
			c-0.7,2-1.2,2.9-1.9,3.4c-0.5,0.5-1.1,0.6-1.4,0.7l-0.3-1.1c0.2-0.1,0.5-0.2,0.8-0.4c0.3-0.2,0.5-0.5,0.7-0.8
			c0.1-0.1,0.1-0.2,0.1-0.2c0-0.1,0-0.1-0.1-0.3l-2-4.9H229.5z"/>
		<path class="st19" d="M235.7,101.2v1.5h1.3v1h-1.3v2.4c0,0.6,0.2,1,0.7,1c0.2,0,0.4,0,0.5-0.1l0,1c-0.2,0.1-0.6,0.1-1,0.1
			c-0.5,0-0.9-0.2-1.2-0.4c-0.3-0.3-0.4-0.8-0.4-1.5v-2.5h-0.8v-1h0.8v-1.2L235.7,101.2z"/>
		<path class="st19" d="M239.5,101.2c0,0.4-0.3,0.7-0.8,0.7c-0.5,0-0.7-0.3-0.7-0.7c0-0.4,0.3-0.7,0.8-0.7
			C239.2,100.5,239.4,100.8,239.5,101.2z M238,108.1v-5.4h1.4v5.4H238z"/>
		<path class="st19" d="M244.8,107.9c-0.3,0.1-0.8,0.3-1.5,0.3c-1.7,0-2.8-1.1-2.8-2.7c0-1.6,1.1-2.9,3-2.9c0.5,0,1,0.1,1.3,0.3
			l-0.2,1c-0.2-0.1-0.5-0.2-1-0.2c-1,0-1.7,0.8-1.6,1.7c0,1.1,0.7,1.7,1.6,1.7c0.5,0,0.8-0.1,1.1-0.2L244.8,107.9z"/>
		<path class="st19" d="M245.7,106.8c0.3,0.2,0.9,0.4,1.4,0.4c0.6,0,0.9-0.2,0.9-0.6c0-0.4-0.2-0.6-0.9-0.8c-1-0.4-1.5-0.9-1.5-1.6
			c0-0.9,0.8-1.7,2-1.7c0.6,0,1.1,0.2,1.4,0.3l-0.3,1c-0.2-0.1-0.7-0.3-1.1-0.3c-0.5,0-0.7,0.2-0.7,0.6c0,0.3,0.3,0.5,0.9,0.7
			c1,0.4,1.4,0.8,1.4,1.6c0,1-0.8,1.7-2.2,1.7c-0.6,0-1.2-0.2-1.6-0.4L245.7,106.8z"/>
	</g>
	<g>
		<path class="st19" d="M84.1,94.3c0.4,0.3,1.1,0.5,1.8,0.5c0.9,0,1.4-0.4,1.4-1c0-0.6-0.4-0.9-1.3-1.2c-1.2-0.4-2-1.1-2-2.2
			c0-1.2,1-2.1,2.6-2.1c0.8,0,1.4,0.2,1.8,0.4L88,89.7c-0.3-0.1-0.8-0.4-1.5-0.4c-0.9,0-1.2,0.5-1.2,0.9c0,0.6,0.4,0.8,1.4,1.2
			c1.3,0.5,1.9,1.1,1.9,2.2c0,1.2-0.9,2.2-2.8,2.2c-0.8,0-1.6-0.2-2-0.5L84.1,94.3z"/>
		<path class="st19" d="M94.6,94.2c0,0.6,0,1.2,0,1.6h-1.2L93.4,95h0c-0.2,0.4-0.8,0.9-1.7,0.9c-1,0-1.9-0.6-1.9-2.3v-3.1h1.4v2.9
			c0,0.9,0.3,1.5,1,1.5c0.5,0,0.9-0.4,1-0.7c0-0.1,0.1-0.3,0.1-0.4v-3.2h1.4V94.2z"/>
		<path class="st19" d="M96.1,92.2c0-0.7,0-1.3,0-1.8h1.2l0.1,0.8h0c0.4-0.6,1-0.9,1.8-0.9c1.2,0,2.3,1.1,2.3,2.7
			c0,1.9-1.2,2.9-2.4,2.9c-0.7,0-1.2-0.3-1.5-0.7h0V98h-1.4V92.2z M97.4,93.5c0,0.1,0,0.3,0,0.4c0.1,0.5,0.6,0.9,1.2,0.9
			c0.9,0,1.4-0.7,1.4-1.8c0-0.9-0.5-1.7-1.3-1.7c-0.6,0-1.1,0.4-1.2,1c0,0.1-0.1,0.2-0.1,0.3V93.5z"/>
		<path class="st19" d="M102.5,92.2c0-0.7,0-1.3,0-1.8h1.2l0.1,0.8h0c0.4-0.6,1-0.9,1.8-0.9c1.2,0,2.3,1.1,2.3,2.7
			c0,1.9-1.2,2.9-2.4,2.9c-0.7,0-1.2-0.3-1.5-0.7h0V98h-1.4V92.2z M103.9,93.5c0,0.1,0,0.3,0,0.4c0.1,0.5,0.6,0.9,1.2,0.9
			c0.9,0,1.4-0.7,1.4-1.8c0-0.9-0.5-1.7-1.3-1.7c-0.6,0-1.1,0.4-1.2,1c0,0.1-0.1,0.2-0.1,0.3V93.5z"/>
		<path class="st19" d="M108.9,88h1.4v7.8h-1.4V88z"/>
		<path class="st19" d="M112.6,90.4l1,2.9c0.1,0.3,0.2,0.7,0.3,1h0c0.1-0.3,0.2-0.7,0.3-1.1l0.8-2.9h1.5l-1.3,3.7
			c-0.7,2-1.2,2.9-1.9,3.4c-0.5,0.5-1.1,0.6-1.4,0.7l-0.3-1.1c0.2-0.1,0.5-0.2,0.8-0.4c0.3-0.2,0.6-0.5,0.7-0.8
			c0.1-0.1,0.1-0.2,0.1-0.2c0-0.1,0-0.1-0.1-0.3l-2-4.9H112.6z"/>
		<path class="st19" d="M123.5,95.6c-0.3,0.1-0.8,0.3-1.5,0.3c-1.7,0-2.8-1.1-2.8-2.7c0-1.6,1.1-2.9,3-2.9c0.5,0,1,0.1,1.3,0.3
			l-0.2,1c-0.2-0.1-0.5-0.2-1-0.2c-1,0-1.6,0.8-1.6,1.7c0,1.1,0.7,1.7,1.6,1.7c0.5,0,0.8-0.1,1.1-0.2L123.5,95.6z"/>
		<path class="st19" d="M124.5,88h1.4v3.2h0c0.2-0.3,0.4-0.5,0.7-0.6c0.3-0.2,0.6-0.2,0.9-0.2c0.9,0,1.9,0.6,1.9,2.3v3.2H128v-3
			c0-0.8-0.3-1.4-1-1.4c-0.5,0-0.9,0.4-1,0.8c0,0.1-0.1,0.3-0.1,0.4v3.2h-1.4V88z"/>
		<path class="st19" d="M133.8,95.8l-0.1-0.6h0c-0.3,0.4-0.9,0.7-1.6,0.7c-1.1,0-1.7-0.8-1.7-1.6c0-1.4,1.2-2,3.2-2v-0.1
			c0-0.4-0.1-0.9-1.1-0.9c-0.5,0-1.1,0.2-1.4,0.4l-0.3-0.9c0.4-0.2,1.1-0.5,1.9-0.5c1.7,0,2.2,1.1,2.2,2.3v1.9c0,0.5,0,1,0.1,1.3
			H133.8z M133.6,93.2c-1,0-1.9,0.2-1.9,1c0,0.5,0.3,0.8,0.8,0.8c0.5,0,0.9-0.4,1.1-0.7c0-0.1,0-0.2,0-0.3V93.2z"/>
		<path class="st19" d="M137.8,88.9c0,0.4-0.3,0.7-0.8,0.7c-0.5,0-0.7-0.3-0.7-0.7c0-0.4,0.3-0.7,0.8-0.7
			C137.5,88.2,137.8,88.5,137.8,88.9z M136.4,95.8v-5.4h1.4v5.4H136.4z"/>
		<path class="st19" d="M139.2,92c0-0.6,0-1.1,0-1.6h1.2l0.1,0.8h0c0.2-0.4,0.8-0.9,1.7-0.9c0.9,0,1.9,0.6,1.9,2.3v3.2h-1.4v-3
			c0-0.8-0.3-1.4-1-1.4c-0.5,0-0.9,0.4-1.1,0.8c0,0.1-0.1,0.3-0.1,0.4v3.1h-1.4V92z"/>
		<path class="st19" d="M90.6,99.9v1.5h1.3v1h-1.3v2.4c0,0.6,0.2,1,0.7,1c0.2,0,0.4,0,0.5-0.1l0,1c-0.2,0.1-0.6,0.1-1,0.1
			c-0.5,0-0.9-0.2-1.2-0.4c-0.3-0.3-0.4-0.8-0.4-1.5v-2.5h-0.8v-1h0.8v-1.2L90.6,99.9z"/>
		<path class="st19" d="M92.9,103.2c0-0.7,0-1.2,0-1.7h1.2l0,1h0c0.3-0.8,0.9-1.1,1.5-1.1c0.1,0,0.2,0,0.3,0v1.3c-0.1,0-0.2,0-0.4,0
			c-0.6,0-1.1,0.4-1.2,1c0,0.1,0,0.3,0,0.4v2.8h-1.4V103.2z"/>
		<path class="st19" d="M99.8,106.8l-0.1-0.6h0c-0.3,0.4-0.9,0.7-1.6,0.7c-1.1,0-1.7-0.8-1.7-1.6c0-1.4,1.2-2,3.2-2v-0.1
			c0-0.4-0.1-0.9-1.1-0.9c-0.5,0-1.1,0.2-1.4,0.4l-0.3-0.9c0.4-0.2,1.1-0.5,1.9-0.5c1.7,0,2.2,1.1,2.2,2.3v1.9c0,0.5,0,1,0.1,1.3
			H99.8z M99.6,104.2c-1,0-1.9,0.2-1.9,1c0,0.5,0.3,0.8,0.8,0.8c0.5,0,0.9-0.4,1.1-0.7c0-0.1,0-0.2,0-0.3V104.2z"/>
		<path class="st19" d="M106.3,106.6c-0.3,0.1-0.8,0.3-1.5,0.3c-1.7,0-2.8-1.1-2.8-2.7c0-1.6,1.1-2.9,3-2.9c0.5,0,1,0.1,1.3,0.3
			l-0.2,1c-0.2-0.1-0.5-0.2-1-0.2c-1,0-1.6,0.8-1.6,1.7c0,1.1,0.7,1.7,1.6,1.7c0.5,0,0.8-0.1,1.1-0.2L106.3,106.6z"/>
		<path class="st19" d="M108.1,104.5c0,1,0.8,1.4,1.7,1.4c0.6,0,1.1-0.1,1.5-0.2l0.2,0.9c-0.5,0.2-1.1,0.3-1.9,0.3
			c-1.7,0-2.8-1.1-2.8-2.7c0-1.5,0.9-2.9,2.6-2.9c1.7,0,2.3,1.4,2.3,2.6c0,0.3,0,0.5,0,0.6H108.1z M110.5,103.5
			c0-0.5-0.2-1.3-1.1-1.3c-0.8,0-1.2,0.8-1.2,1.3H110.5z"/>
		<path class="st19" d="M115.9,106.8l-0.1-0.6h0c-0.3,0.4-0.9,0.7-1.6,0.7c-1.1,0-1.7-0.8-1.7-1.6c0-1.4,1.2-2,3.2-2v-0.1
			c0-0.4-0.1-0.9-1.1-0.9c-0.5,0-1.1,0.2-1.4,0.4l-0.3-0.9c0.4-0.2,1.1-0.5,1.9-0.5c1.7,0,2.2,1.1,2.2,2.3v1.9c0,0.5,0,1,0.1,1.3
			H115.9z M115.7,104.2c-1,0-1.9,0.2-1.9,1c0,0.5,0.3,0.8,0.8,0.8c0.5,0,0.9-0.4,1.1-0.7c0-0.1,0-0.2,0-0.3V104.2z"/>
		<path class="st19" d="M118.4,106.8c0-0.4,0-1,0-1.5V99h1.4v3.2h0c0.3-0.5,0.9-0.9,1.7-0.9c1.3,0,2.2,1.1,2.2,2.7
			c0,1.9-1.2,2.9-2.4,2.9c-0.7,0-1.3-0.3-1.7-0.9h0l-0.1,0.8H118.4z M119.8,104.6c0,0.1,0,0.2,0,0.3c0.1,0.5,0.6,0.9,1.2,0.9
			c0.8,0,1.4-0.7,1.4-1.8c0-0.9-0.5-1.7-1.4-1.7c-0.6,0-1,0.4-1.2,1c0,0.1,0,0.2,0,0.4V104.6z"/>
		<path class="st19" d="M126.3,99.9c0,0.4-0.3,0.7-0.8,0.7c-0.5,0-0.7-0.3-0.7-0.7c0-0.4,0.3-0.7,0.8-0.7
			C126,99.2,126.3,99.5,126.3,99.9z M124.9,106.8v-5.4h1.4v5.4H124.9z"/>
		<path class="st19" d="M127.7,99h1.4v7.8h-1.4V99z"/>
		<path class="st19" d="M132,99.9c0,0.4-0.3,0.7-0.8,0.7c-0.5,0-0.7-0.3-0.7-0.7c0-0.4,0.3-0.7,0.8-0.7
			C131.7,99.2,132,99.5,132,99.9z M130.5,106.8v-5.4h1.4v5.4H130.5z"/>
		<path class="st19" d="M134.9,99.9v1.5h1.3v1h-1.3v2.4c0,0.6,0.2,1,0.7,1c0.2,0,0.4,0,0.5-0.1l0,1c-0.2,0.1-0.6,0.1-1,0.1
			c-0.5,0-0.9-0.2-1.2-0.4c-0.3-0.3-0.4-0.8-0.4-1.5v-2.5h-0.8v-1h0.8v-1.2L134.9,99.9z"/>
		<path class="st19" d="M138.1,101.4l1,2.9c0.1,0.3,0.2,0.7,0.3,1h0c0.1-0.3,0.2-0.7,0.3-1.1l0.8-2.9h1.5l-1.3,3.7
			c-0.7,2-1.2,2.9-1.9,3.4c-0.5,0.5-1.1,0.6-1.4,0.7l-0.3-1.1c0.2-0.1,0.5-0.2,0.8-0.4c0.3-0.2,0.6-0.5,0.7-0.8
			c0.1-0.1,0.1-0.2,0.1-0.2c0-0.1,0-0.1-0.1-0.3l-2-4.9H138.1z"/>
	</g>
	<g>
		<path class="st19" d="M29.3,188.1c0.5-0.1,1.3-0.2,2-0.2c1.1,0,1.8,0.2,2.3,0.6c0.4,0.3,0.6,0.9,0.6,1.5c0,1-0.6,1.6-1.3,1.9v0
			c0.5,0.2,0.8,0.7,1,1.4c0.2,0.9,0.4,1.8,0.6,2.1h-1.4c-0.1-0.2-0.3-0.8-0.5-1.7c-0.2-1-0.6-1.3-1.3-1.3h-0.7v3h-1.3V188.1z
			 M30.7,191.3h0.8c0.9,0,1.5-0.5,1.5-1.2c0-0.8-0.6-1.2-1.5-1.2c-0.4,0-0.7,0-0.8,0.1V191.3z"/>
		<path class="st19" d="M36.5,193.1c0,1,0.8,1.4,1.6,1.4c0.6,0,1.1-0.1,1.5-0.2l0.2,0.9c-0.5,0.2-1.1,0.3-1.9,0.3
			c-1.7,0-2.8-1.1-2.8-2.7c0-1.5,0.9-2.9,2.6-2.9c1.7,0,2.3,1.4,2.3,2.6c0,0.3,0,0.5,0,0.6H36.5z M38.9,192.1c0-0.5-0.2-1.3-1.1-1.3
			c-0.8,0-1.2,0.8-1.2,1.3H38.9z"/>
		<path class="st19" d="M45.2,195.2c-0.3,0.1-0.8,0.3-1.5,0.3c-1.7,0-2.8-1.1-2.8-2.7c0-1.6,1.1-2.9,3-2.9c0.5,0,1,0.1,1.3,0.3
			l-0.2,1c-0.2-0.1-0.5-0.2-1-0.2c-1,0-1.7,0.8-1.6,1.7c0,1.1,0.7,1.7,1.6,1.7c0.5,0,0.8-0.1,1.1-0.2L45.2,195.2z"/>
		<path class="st19" d="M51.2,192.6c0,2-1.4,2.8-2.8,2.8c-1.5,0-2.7-1-2.7-2.8c0-1.8,1.2-2.8,2.8-2.8
			C50.1,189.9,51.2,191,51.2,192.6z M47.1,192.7c0,1,0.5,1.8,1.3,1.8c0.8,0,1.3-0.8,1.3-1.8c0-0.8-0.4-1.8-1.3-1.8
			C47.5,190.9,47.1,191.8,47.1,192.7z"/>
		<path class="st19" d="M52.3,191.6c0-0.6,0-1.1,0-1.6h1.2l0.1,0.8h0c0.2-0.4,0.8-0.9,1.7-0.9c0.9,0,1.9,0.6,1.9,2.3v3.2h-1.4v-3
			c0-0.8-0.3-1.4-1-1.4c-0.5,0-0.9,0.4-1.1,0.8c0,0.1-0.1,0.3-0.1,0.4v3.1h-1.4V191.6z"/>
		<path class="st19" d="M62.5,195.2c-0.3,0.1-0.8,0.3-1.5,0.3c-1.7,0-2.8-1.1-2.8-2.7c0-1.6,1.1-2.9,3-2.9c0.5,0,1,0.1,1.3,0.3
			l-0.2,1c-0.2-0.1-0.5-0.2-1-0.2c-1,0-1.7,0.8-1.6,1.7c0,1.1,0.7,1.7,1.6,1.7c0.5,0,0.8-0.1,1.1-0.2L62.5,195.2z"/>
		<path class="st19" d="M64.9,188.5c0,0.4-0.3,0.7-0.8,0.7c-0.5,0-0.7-0.3-0.7-0.7c0-0.4,0.3-0.7,0.8-0.7
			C64.6,187.8,64.9,188.1,64.9,188.5z M63.5,195.4V190h1.4v5.4H63.5z"/>
		<path class="st19" d="M66.3,187.6h1.4v7.8h-1.4V187.6z"/>
		<path class="st19" d="M70.6,188.5c0,0.4-0.3,0.7-0.8,0.7c-0.5,0-0.7-0.3-0.7-0.7c0-0.4,0.3-0.7,0.8-0.7
			C70.3,187.8,70.6,188.1,70.6,188.5z M69.1,195.4V190h1.4v5.4H69.1z"/>
		<path class="st19" d="M75,195.4l-0.1-0.6h0c-0.3,0.4-0.9,0.7-1.6,0.7c-1.1,0-1.7-0.8-1.7-1.6c0-1.4,1.2-2,3.2-2v-0.1
			c0-0.4-0.1-0.9-1.1-0.9c-0.5,0-1.1,0.2-1.4,0.4l-0.3-0.9c0.4-0.2,1.1-0.5,1.9-0.5c1.7,0,2.2,1.1,2.2,2.3v1.9c0,0.5,0,1,0.1,1.3H75
			z M74.8,192.8c-1,0-1.9,0.2-1.9,1c0,0.5,0.3,0.8,0.8,0.8c0.5,0,0.9-0.4,1.1-0.7c0-0.1,0-0.2,0-0.3V192.8z"/>
		<path class="st19" d="M79,188.5v1.5h1.3v1H79v2.4c0,0.6,0.2,1,0.7,1c0.2,0,0.4,0,0.5-0.1l0,1c-0.2,0.1-0.6,0.1-1,0.1
			c-0.5,0-0.9-0.2-1.2-0.4c-0.3-0.3-0.4-0.8-0.4-1.5V191h-0.8v-1h0.8v-1.2L79,188.5z"/>
		<path class="st19" d="M82.8,188.5c0,0.4-0.3,0.7-0.8,0.7c-0.5,0-0.7-0.3-0.7-0.7c0-0.4,0.3-0.7,0.8-0.7
			C82.5,187.8,82.8,188.1,82.8,188.5z M81.3,195.4V190h1.4v5.4H81.3z"/>
		<path class="st19" d="M89.2,192.6c0,2-1.4,2.8-2.8,2.8c-1.5,0-2.7-1-2.7-2.8c0-1.8,1.2-2.8,2.8-2.8
			C88.2,189.9,89.2,191,89.2,192.6z M85.2,192.7c0,1,0.5,1.8,1.3,1.8c0.8,0,1.3-0.8,1.3-1.8c0-0.8-0.4-1.8-1.3-1.8
			C85.6,190.9,85.2,191.8,85.2,192.7z"/>
		<path class="st19" d="M90.4,191.6c0-0.6,0-1.1,0-1.6h1.2l0.1,0.8h0c0.2-0.4,0.8-0.9,1.7-0.9c0.9,0,1.9,0.6,1.9,2.3v3.2h-1.4v-3
			c0-0.8-0.3-1.4-1-1.4c-0.5,0-0.9,0.4-1.1,0.8c0,0.1-0.1,0.3-0.1,0.4v3.1h-1.4V191.6z"/>
		<path class="st19" d="M34,206.4l-0.1-0.6h0c-0.3,0.4-0.9,0.7-1.6,0.7c-1.1,0-1.7-0.8-1.7-1.6c0-1.4,1.2-2,3.2-2v-0.1
			c0-0.4-0.1-0.9-1.1-0.9c-0.5,0-1.1,0.2-1.4,0.4l-0.3-0.9c0.4-0.2,1.1-0.5,1.9-0.5c1.7,0,2.2,1.1,2.2,2.3v1.9c0,0.5,0,1,0.1,1.3H34
			z M33.9,203.8c-1,0-1.9,0.2-1.9,1c0,0.5,0.3,0.8,0.8,0.8c0.5,0,0.9-0.4,1.1-0.7c0-0.1,0-0.2,0-0.3V203.8z"/>
		<path class="st19" d="M36.6,202.6c0-0.6,0-1.1,0-1.6h1.2l0.1,0.8h0c0.2-0.4,0.8-0.9,1.7-0.9c0.9,0,1.9,0.6,1.9,2.3v3.2h-1.4v-3
			c0-0.8-0.3-1.4-1-1.4c-0.5,0-0.9,0.4-1.1,0.8c0,0.1-0.1,0.3-0.1,0.4v3.1h-1.4V202.6z"/>
		<path class="st19" d="M47.8,198.6v6.3c0,0.6,0,1.1,0,1.5h-1.2l-0.1-0.8h0c-0.3,0.6-1,1-1.7,1c-1.3,0-2.3-1.1-2.3-2.7
			c0-1.8,1.1-2.9,2.4-2.9c0.7,0,1.3,0.3,1.5,0.7h0v-3H47.8z M46.5,203.3c0-0.1,0-0.2,0-0.4c-0.1-0.5-0.5-1-1.2-1
			c-0.9,0-1.4,0.8-1.4,1.8c0,1,0.5,1.7,1.3,1.7c0.5,0,1-0.4,1.2-1c0-0.1,0-0.3,0-0.4V203.3z"/>
		<path class="st19" d="M51.6,202.7c0-0.7,0-1.2,0-1.7h1.2l0,1h0c0.3-0.8,0.9-1.1,1.5-1.1c0.1,0,0.2,0,0.3,0v1.3c-0.1,0-0.2,0-0.4,0
			c-0.6,0-1.1,0.4-1.2,1c0,0.1,0,0.3,0,0.4v2.8h-1.4V202.7z"/>
		<path class="st19" d="M56.4,204.1c0,1,0.8,1.4,1.7,1.4c0.6,0,1.1-0.1,1.5-0.2l0.2,0.9c-0.5,0.2-1.1,0.3-1.9,0.3
			c-1.7,0-2.8-1.1-2.8-2.7c0-1.5,0.9-2.9,2.6-2.9c1.7,0,2.3,1.4,2.3,2.6c0,0.3,0,0.5,0,0.6H56.4z M58.7,203.1c0-0.5-0.2-1.3-1.1-1.3
			c-0.8,0-1.2,0.8-1.2,1.3H58.7z"/>
		<path class="st19" d="M61.1,202.8c0-0.7,0-1.3,0-1.8h1.2l0.1,0.8h0c0.4-0.6,1-0.9,1.8-0.9c1.2,0,2.3,1.1,2.3,2.7
			c0,1.9-1.2,2.9-2.4,2.9c-0.7,0-1.2-0.3-1.5-0.7h0v2.8h-1.4V202.8z M62.4,204.1c0,0.1,0,0.3,0,0.4c0.1,0.5,0.6,0.9,1.2,0.9
			c0.9,0,1.4-0.7,1.4-1.8c0-0.9-0.5-1.7-1.3-1.7c-0.6,0-1.1,0.4-1.2,1c0,0.1-0.1,0.2-0.1,0.3V204.1z"/>
		<path class="st19" d="M72.6,203.6c0,2-1.4,2.8-2.8,2.8c-1.5,0-2.7-1-2.7-2.8c0-1.8,1.2-2.8,2.8-2.8
			C71.5,200.9,72.6,202,72.6,203.6z M68.6,203.7c0,1,0.5,1.8,1.3,1.8c0.8,0,1.3-0.8,1.3-1.8c0-0.8-0.4-1.8-1.3-1.8
			C68.9,201.9,68.6,202.8,68.6,203.7z"/>
		<path class="st19" d="M73.7,202.7c0-0.7,0-1.2,0-1.7h1.2l0,1h0c0.3-0.8,0.9-1.1,1.5-1.1c0.1,0,0.2,0,0.3,0v1.3c-0.1,0-0.2,0-0.4,0
			c-0.6,0-1.1,0.4-1.2,1c0,0.1,0,0.3,0,0.4v2.8h-1.4V202.7z"/>
		<path class="st19" d="M79.4,199.5v1.5h1.3v1h-1.3v2.4c0,0.6,0.2,1,0.7,1c0.2,0,0.4,0,0.5-0.1l0,1c-0.2,0.1-0.5,0.1-1,0.1
			c-0.5,0-0.9-0.2-1.2-0.4c-0.3-0.3-0.4-0.8-0.4-1.5V202h-0.8v-1h0.8v-1.2L79.4,199.5z"/>
		<path class="st19" d="M83.2,199.5c0,0.4-0.3,0.7-0.8,0.7c-0.5,0-0.7-0.3-0.7-0.7c0-0.4,0.3-0.7,0.8-0.7
			C82.9,198.8,83.2,199.1,83.2,199.5z M81.7,206.4V201h1.4v5.4H81.7z"/>
		<path class="st19" d="M84.6,202.6c0-0.6,0-1.1,0-1.6h1.2l0.1,0.8h0c0.2-0.4,0.8-0.9,1.7-0.9c0.9,0,1.9,0.6,1.9,2.3v3.2h-1.4v-3
			c0-0.8-0.3-1.4-1-1.4c-0.5,0-0.9,0.4-1.1,0.8c0,0.1-0.1,0.3-0.1,0.4v3.1h-1.4V202.6z"/>
		<path class="st19" d="M95.7,201c0,0.4,0,0.8,0,1.5v3c0,1.1-0.2,1.9-0.8,2.4c-0.6,0.5-1.3,0.6-2.1,0.6c-0.7,0-1.4-0.1-1.9-0.4
			l0.3-1c0.3,0.2,0.9,0.4,1.6,0.4c0.9,0,1.5-0.5,1.5-1.6v-0.5h0c-0.3,0.5-0.9,0.8-1.6,0.8c-1.3,0-2.3-1.1-2.3-2.6
			c0-1.8,1.1-2.8,2.4-2.8c0.8,0,1.3,0.4,1.6,0.8h0l0.1-0.7H95.7z M94.3,203.2c0-0.1,0-0.3,0-0.4c-0.1-0.5-0.5-0.9-1.1-0.9
			c-0.8,0-1.3,0.7-1.3,1.7c0,0.9,0.5,1.7,1.3,1.7c0.5,0,0.9-0.3,1.1-0.8c0-0.1,0.1-0.3,0.1-0.5V203.2z"/>
	</g>
	<g>
		<path class="st19" d="M275.3,192.3c0-1-0.1-2.1-0.1-3.1h0c-0.2,0.9-0.5,1.9-0.9,2.8l-1.1,3.2h-1l-1-3.2c-0.3-0.9-0.6-2-0.7-2.9h0
			c0,1-0.1,2.1-0.1,3.2l-0.2,3h-1.3l0.5-7.4h1.8l1,3c0.3,0.9,0.5,1.7,0.7,2.6h0c0.2-0.8,0.5-1.7,0.7-2.6l1-3h1.8l0.4,7.4h-1.3
			L275.3,192.3z"/>
		<path class="st19" d="M281.1,195.4l-0.1-0.6h0c-0.3,0.4-0.9,0.7-1.6,0.7c-1.1,0-1.7-0.8-1.7-1.6c0-1.4,1.2-2,3.2-2v-0.1
			c0-0.4-0.1-0.9-1.1-0.9c-0.5,0-1.1,0.2-1.4,0.4l-0.3-0.9c0.4-0.2,1.1-0.5,1.9-0.5c1.7,0,2.2,1.1,2.2,2.3v1.9c0,0.5,0,1,0.1,1.3
			H281.1z M281,192.8c-1,0-1.9,0.2-1.9,1c0,0.5,0.3,0.8,0.8,0.8c0.5,0,0.9-0.4,1.1-0.7c0-0.1,0-0.2,0-0.3V192.8z"/>
		<path class="st19" d="M283.7,191.7c0-0.7,0-1.2,0-1.7h1.2l0,1h0c0.3-0.8,0.9-1.1,1.5-1.1c0.1,0,0.2,0,0.3,0v1.3
			c-0.1,0-0.2,0-0.4,0c-0.6,0-1.1,0.4-1.2,1c0,0.1,0,0.3,0,0.4v2.8h-1.4V191.7z"/>
		<path class="st19" d="M289,192.4L289,192.4c0.2-0.2,0.3-0.4,0.5-0.6l1.3-1.7h1.6l-2,2.2l2.3,3.2H291l-1.5-2.4l-0.5,0.5v1.8h-1.4
			v-7.8h1.4V192.4z"/>
		<path class="st19" d="M294.1,193.1c0,1,0.8,1.4,1.6,1.4c0.6,0,1.1-0.1,1.5-0.2l0.2,0.9c-0.5,0.2-1.1,0.3-1.9,0.3
			c-1.7,0-2.8-1.1-2.8-2.7c0-1.5,0.9-2.9,2.6-2.9c1.7,0,2.3,1.4,2.3,2.6c0,0.3,0,0.5,0,0.6H294.1z M296.5,192.1
			c0-0.5-0.2-1.3-1.1-1.3c-0.8,0-1.2,0.8-1.2,1.3H296.5z"/>
		<path class="st19" d="M300.4,188.5v1.5h1.3v1h-1.3v2.4c0,0.6,0.2,1,0.7,1c0.2,0,0.4,0,0.5-0.1l0,1c-0.2,0.1-0.6,0.1-1,0.1
			c-0.5,0-0.9-0.2-1.2-0.4c-0.3-0.3-0.4-0.8-0.4-1.5V191h-0.8v-1h0.8v-1.2L300.4,188.5z"/>
		<path class="st19" d="M309.9,187.6v6.3c0,0.6,0,1.1,0,1.5h-1.2l-0.1-0.8h0c-0.3,0.6-1,1-1.7,1c-1.3,0-2.3-1.1-2.3-2.7
			c0-1.8,1.1-2.9,2.4-2.9c0.7,0,1.3,0.3,1.5,0.7h0v-3H309.9z M308.6,192.2c0-0.1,0-0.2,0-0.4c-0.1-0.5-0.5-1-1.2-1
			c-0.9,0-1.4,0.8-1.4,1.8c0,1,0.5,1.7,1.3,1.7c0.5,0,1-0.4,1.2-1c0-0.1,0-0.3,0-0.4V192.2z"/>
		<path class="st19" d="M314.4,195.4l-0.1-0.6h0c-0.3,0.4-0.9,0.7-1.6,0.7c-1.1,0-1.7-0.8-1.7-1.6c0-1.4,1.2-2,3.2-2v-0.1
			c0-0.4-0.1-0.9-1.1-0.9c-0.5,0-1.1,0.2-1.4,0.4l-0.3-0.9c0.4-0.2,1.1-0.5,1.9-0.5c1.7,0,2.2,1.1,2.2,2.3v1.9c0,0.5,0,1,0.1,1.3
			H314.4z M314.2,192.8c-1,0-1.9,0.2-1.9,1c0,0.5,0.3,0.8,0.8,0.8c0.5,0,0.9-0.4,1.1-0.7c0-0.1,0-0.2,0-0.3V192.8z"/>
		<path class="st19" d="M318.4,188.5v1.5h1.3v1h-1.3v2.4c0,0.6,0.2,1,0.7,1c0.2,0,0.4,0,0.5-0.1l0,1c-0.2,0.1-0.6,0.1-1,0.1
			c-0.5,0-0.9-0.2-1.2-0.4c-0.3-0.3-0.4-0.8-0.4-1.5V191h-0.8v-1h0.8v-1.2L318.4,188.5z"/>
		<path class="st19" d="M323.8,195.4l-0.1-0.6h0c-0.3,0.4-0.9,0.7-1.6,0.7c-1.1,0-1.7-0.8-1.7-1.6c0-1.4,1.2-2,3.2-2v-0.1
			c0-0.4-0.1-0.9-1.1-0.9c-0.5,0-1.1,0.2-1.4,0.4l-0.3-0.9c0.4-0.2,1.1-0.5,1.9-0.5c1.7,0,2.2,1.1,2.2,2.3v1.9c0,0.5,0,1,0.1,1.3
			H323.8z M323.6,192.8c-1,0-1.9,0.2-1.9,1c0,0.5,0.3,0.8,0.8,0.8c0.5,0,0.9-0.4,1.1-0.7c0-0.1,0-0.2,0-0.3V192.8z"/>
		<path class="st19" d="M281.8,206.4l-0.1-0.6h0c-0.3,0.4-0.9,0.7-1.6,0.7c-1.1,0-1.7-0.8-1.7-1.6c0-1.4,1.2-2,3.2-2v-0.1
			c0-0.4-0.1-0.9-1.1-0.9c-0.5,0-1.1,0.2-1.4,0.4l-0.3-0.9c0.4-0.2,1.1-0.5,1.9-0.5c1.7,0,2.2,1.1,2.2,2.3v1.9c0,0.5,0,1,0.1,1.3
			H281.8z M281.7,203.8c-1,0-1.9,0.2-1.9,1c0,0.5,0.3,0.8,0.8,0.8c0.5,0,0.9-0.4,1.1-0.7c0-0.1,0-0.2,0-0.3V203.8z"/>
		<path class="st19" d="M284.4,202.6c0-0.6,0-1.1,0-1.6h1.2l0.1,0.8h0c0.2-0.4,0.8-0.9,1.7-0.9c0.9,0,1.9,0.6,1.9,2.3v3.2h-1.4v-3
			c0-0.8-0.3-1.4-1-1.4c-0.5,0-0.9,0.4-1.1,0.8c0,0.1-0.1,0.3-0.1,0.4v3.1h-1.4V202.6z"/>
		<path class="st19" d="M293.7,206.4l-0.1-0.6h0c-0.3,0.4-0.9,0.7-1.6,0.7c-1.1,0-1.7-0.8-1.7-1.6c0-1.4,1.2-2,3.2-2v-0.1
			c0-0.4-0.1-0.9-1.1-0.9c-0.5,0-1.1,0.2-1.4,0.4l-0.3-0.9c0.4-0.2,1.1-0.5,1.9-0.5c1.7,0,2.2,1.1,2.2,2.3v1.9c0,0.5,0,1,0.1,1.3
			H293.7z M293.5,203.8c-1,0-1.9,0.2-1.9,1c0,0.5,0.3,0.8,0.8,0.8c0.5,0,0.9-0.4,1.1-0.7c0-0.1,0-0.2,0-0.3V203.8z"/>
		<path class="st19" d="M296.3,198.6h1.4v7.8h-1.4V198.6z"/>
		<path class="st19" d="M300,201l1,2.9c0.1,0.3,0.2,0.7,0.3,1h0c0.1-0.3,0.2-0.7,0.3-1.1l0.8-2.9h1.5l-1.3,3.7
			c-0.7,2-1.2,2.9-1.9,3.4c-0.5,0.5-1.1,0.6-1.4,0.7l-0.3-1.1c0.2-0.1,0.5-0.2,0.8-0.4c0.3-0.2,0.6-0.5,0.7-0.8
			c0.1-0.1,0.1-0.2,0.1-0.2c0-0.1,0-0.1-0.1-0.3l-2-4.9H300z"/>
		<path class="st19" d="M304.4,205.1c0.3,0.2,0.9,0.4,1.4,0.4c0.6,0,0.9-0.2,0.9-0.6c0-0.4-0.2-0.6-0.9-0.8c-1-0.4-1.5-0.9-1.5-1.6
			c0-0.9,0.8-1.7,2-1.7c0.6,0,1.1,0.2,1.4,0.3l-0.3,1c-0.2-0.1-0.7-0.3-1.1-0.3c-0.5,0-0.7,0.2-0.7,0.6c0,0.3,0.3,0.5,0.9,0.7
			c1,0.4,1.4,0.8,1.4,1.6c0,1-0.8,1.7-2.2,1.7c-0.6,0-1.2-0.2-1.6-0.4L304.4,205.1z"/>
		<path class="st19" d="M310.5,199.5c0,0.4-0.3,0.7-0.8,0.7c-0.5,0-0.7-0.3-0.7-0.7c0-0.4,0.3-0.7,0.8-0.7
			C310.2,198.8,310.5,199.1,310.5,199.5z M309.1,206.4V201h1.4v5.4H309.1z"/>
		<path class="st19" d="M311.8,205.1c0.3,0.2,0.9,0.4,1.4,0.4c0.6,0,0.9-0.2,0.9-0.6c0-0.4-0.2-0.6-0.9-0.8c-1-0.4-1.5-0.9-1.5-1.6
			c0-0.9,0.8-1.7,2-1.7c0.6,0,1.1,0.2,1.4,0.3l-0.3,1c-0.2-0.1-0.7-0.3-1.1-0.3c-0.5,0-0.7,0.2-0.7,0.6c0,0.3,0.3,0.5,0.9,0.7
			c1,0.4,1.4,0.8,1.4,1.6c0,1-0.8,1.7-2.2,1.7c-0.6,0-1.2-0.2-1.6-0.4L311.8,205.1z"/>
	</g>
	<g>
		<path class="st19" d="M195.9,281.8c0.6-0.1,1.4-0.2,2.2-0.2c1.4,0,2.3,0.3,3,0.9c0.7,0.6,1.2,1.5,1.2,2.7c0,1.3-0.5,2.3-1.2,2.9
			c-0.7,0.7-1.9,1-3.4,1c-0.8,0-1.4,0-1.8-0.1V281.8z M197.3,288.1c0.2,0,0.5,0,0.7,0c1.8,0,2.8-1,2.8-2.8c0-1.6-0.9-2.6-2.6-2.6
			c-0.4,0-0.7,0-0.9,0.1V288.1z"/>
		<path class="st19" d="M204.3,286.8c0,1,0.8,1.4,1.6,1.4c0.6,0,1.1-0.1,1.5-0.2l0.2,0.9c-0.5,0.2-1.1,0.3-1.9,0.3
			c-1.7,0-2.8-1.1-2.8-2.7c0-1.5,0.9-2.9,2.6-2.9c1.7,0,2.3,1.4,2.3,2.6c0,0.3,0,0.5,0,0.6H204.3z M206.7,285.9
			c0-0.5-0.2-1.3-1.1-1.3c-0.8,0-1.2,0.8-1.2,1.3H206.7z"/>
		<path class="st19" d="M212.1,289.1l-0.1-0.6h0c-0.3,0.4-0.9,0.7-1.6,0.7c-1.1,0-1.7-0.8-1.7-1.6c0-1.4,1.2-2,3.2-2v-0.1
			c0-0.4-0.1-0.9-1.1-0.9c-0.5,0-1.1,0.2-1.4,0.4l-0.3-0.9c0.4-0.2,1.1-0.5,1.9-0.5c1.7,0,2.2,1.1,2.2,2.3v1.9c0,0.5,0,1,0.1,1.3
			H212.1z M211.9,286.5c-1,0-1.9,0.2-1.9,1c0,0.5,0.3,0.8,0.8,0.8c0.5,0,0.9-0.4,1.1-0.7c0-0.1,0-0.2,0-0.3V286.5z"/>
		<path class="st19" d="M214.6,281.3h1.4v7.8h-1.4V281.3z"/>
		<path class="st19" d="M223.7,288.9c-0.3,0.1-0.8,0.3-1.5,0.3c-1.7,0-2.8-1.1-2.8-2.7c0-1.6,1.1-2.9,3-2.9c0.5,0,1,0.1,1.3,0.3
			l-0.2,1c-0.2-0.1-0.5-0.2-1-0.2c-1,0-1.6,0.8-1.6,1.7c0,1.1,0.7,1.7,1.6,1.7c0.5,0,0.8-0.1,1.1-0.2L223.7,288.9z"/>
		<path class="st19" d="M227.7,289.1l-0.1-0.6h0c-0.3,0.4-0.9,0.7-1.6,0.7c-1.1,0-1.7-0.8-1.7-1.6c0-1.4,1.2-2,3.2-2v-0.1
			c0-0.4-0.1-0.9-1.1-0.9c-0.5,0-1.1,0.2-1.4,0.4l-0.3-0.9c0.4-0.2,1.1-0.5,1.9-0.5c1.7,0,2.2,1.1,2.2,2.3v1.9c0,0.5,0,1,0.1,1.3
			H227.7z M227.5,286.5c-1,0-1.9,0.2-1.9,1c0,0.5,0.3,0.8,0.8,0.8c0.5,0,0.9-0.4,1.1-0.7c0-0.1,0-0.2,0-0.3V286.5z"/>
		<path class="st19" d="M230.3,285.5c0-0.7,0-1.3,0-1.8h1.2l0.1,0.8h0c0.4-0.6,1-0.9,1.8-0.9c1.2,0,2.3,1.1,2.3,2.7
			c0,1.9-1.2,2.9-2.4,2.9c-0.7,0-1.2-0.3-1.5-0.7h0v2.8h-1.4V285.5z M231.6,286.9c0,0.1,0,0.3,0,0.4c0.1,0.5,0.6,0.9,1.2,0.9
			c0.9,0,1.4-0.7,1.4-1.8c0-0.9-0.5-1.7-1.3-1.7c-0.6,0-1.1,0.4-1.2,1c0,0.1-0.1,0.2-0.1,0.3V286.9z"/>
		<path class="st19" d="M238.2,282.2v1.5h1.3v1h-1.3v2.4c0,0.6,0.2,1,0.7,1c0.2,0,0.4,0,0.5-0.1l0,1c-0.2,0.1-0.5,0.1-1,0.1
			c-0.5,0-0.9-0.2-1.2-0.4c-0.3-0.3-0.4-0.8-0.4-1.5v-2.5h-0.8v-1h0.8v-1.2L238.2,282.2z"/>
		<path class="st19" d="M245.4,287.5c0,0.6,0,1.2,0,1.6h-1.2l-0.1-0.8h0c-0.2,0.4-0.8,0.9-1.7,0.9c-1,0-1.9-0.6-1.9-2.3v-3.1h1.4
			v2.9c0,0.9,0.3,1.5,1,1.5c0.5,0,0.9-0.4,1-0.7c0-0.1,0.1-0.3,0.1-0.4v-3.2h1.4V287.5z"/>
		<path class="st19" d="M246.8,285.5c0-0.7,0-1.2,0-1.7h1.2l0,1h0c0.3-0.8,0.9-1.1,1.5-1.1c0.1,0,0.2,0,0.3,0v1.3
			c-0.1,0-0.2,0-0.4,0c-0.6,0-1.1,0.4-1.2,1c0,0.1,0,0.3,0,0.4v2.8h-1.4V285.5z"/>
		<path class="st19" d="M251.6,286.8c0,1,0.8,1.4,1.7,1.4c0.6,0,1.1-0.1,1.5-0.2l0.2,0.9c-0.5,0.2-1.1,0.3-1.9,0.3
			c-1.7,0-2.8-1.1-2.8-2.7c0-1.5,0.9-2.9,2.6-2.9c1.7,0,2.3,1.4,2.3,2.6c0,0.3,0,0.5,0,0.6H251.6z M253.9,285.9
			c0-0.5-0.2-1.3-1.1-1.3c-0.8,0-1.2,0.8-1.2,1.3H253.9z"/>
		<path class="st19" d="M201.4,300.1l-0.1-0.6h0c-0.3,0.4-0.9,0.7-1.6,0.7c-1.1,0-1.7-0.8-1.7-1.6c0-1.4,1.2-2,3.2-2v-0.1
			c0-0.4-0.1-0.9-1.1-0.9c-0.5,0-1.1,0.2-1.4,0.4l-0.3-0.9c0.4-0.2,1.1-0.5,1.9-0.5c1.7,0,2.2,1.1,2.2,2.3v1.9c0,0.5,0,1,0.1,1.3
			H201.4z M201.2,297.5c-1,0-1.9,0.2-1.9,1c0,0.5,0.3,0.8,0.8,0.8c0.5,0,0.9-0.4,1.1-0.7c0-0.1,0-0.2,0-0.3V297.5z"/>
		<path class="st19" d="M204,296.4c0-0.6,0-1.1,0-1.6h1.2l0.1,0.8h0c0.2-0.4,0.8-0.9,1.7-0.9c0.9,0,1.9,0.6,1.9,2.3v3.2h-1.4v-3
			c0-0.8-0.3-1.4-1-1.4c-0.5,0-0.9,0.4-1.1,0.8c0,0.1-0.1,0.3-0.1,0.4v3.1H204V296.4z"/>
		<path class="st19" d="M215.2,292.3v6.3c0,0.6,0,1.1,0,1.5h-1.2l-0.1-0.8h0c-0.3,0.6-1,1-1.7,1c-1.3,0-2.3-1.1-2.3-2.7
			c0-1.8,1.1-2.9,2.4-2.9c0.7,0,1.3,0.3,1.5,0.7h0v-3H215.2z M213.9,297c0-0.1,0-0.2,0-0.4c-0.1-0.5-0.6-1-1.2-1
			c-0.9,0-1.4,0.8-1.4,1.8c0,1,0.5,1.7,1.3,1.7c0.6,0,1-0.4,1.2-1c0-0.1,0-0.3,0-0.4V297z"/>
		<path class="st19" d="M219.8,294.8l0.6,2.4c0.1,0.6,0.2,1.2,0.3,1.7h0c0.1-0.6,0.3-1.2,0.4-1.7l0.7-2.4h1.1l0.7,2.4
			c0.2,0.6,0.3,1.2,0.4,1.8h0c0.1-0.6,0.2-1.2,0.4-1.8l0.6-2.4h1.3l-1.7,5.4h-1.3l-0.6-2.2c-0.2-0.6-0.3-1.1-0.4-1.7h0
			c-0.1,0.7-0.3,1.2-0.4,1.7l-0.7,2.2H220l-1.6-5.4H219.8z"/>
		<path class="st19" d="M227.2,292.3h1.4v3.2h0c0.2-0.3,0.4-0.5,0.7-0.6c0.3-0.2,0.6-0.2,0.9-0.2c0.9,0,1.9,0.6,1.9,2.3v3.2h-1.4v-3
			c0-0.8-0.3-1.4-1-1.4c-0.5,0-0.9,0.4-1,0.8c0,0.1-0.1,0.3-0.1,0.4v3.2h-1.4V292.3z"/>
		<path class="st19" d="M236.5,300.1l-0.1-0.6h0c-0.3,0.4-0.9,0.7-1.6,0.7c-1.1,0-1.7-0.8-1.7-1.6c0-1.4,1.2-2,3.2-2v-0.1
			c0-0.4-0.1-0.9-1.1-0.9c-0.5,0-1.1,0.2-1.4,0.4l-0.3-0.9c0.4-0.2,1.1-0.5,1.9-0.5c1.7,0,2.2,1.1,2.2,2.3v1.9c0,0.5,0,1,0.1,1.3
			H236.5z M236.3,297.5c-1,0-1.9,0.2-1.9,1c0,0.5,0.3,0.8,0.8,0.8c0.5,0,0.9-0.4,1.1-0.7c0-0.1,0-0.2,0-0.3V297.5z"/>
		<path class="st19" d="M240.6,293.2v1.5h1.3v1h-1.3v2.4c0,0.6,0.2,1,0.7,1c0.2,0,0.4,0,0.5-0.1l0,1c-0.2,0.1-0.5,0.1-1,0.1
			c-0.5,0-0.9-0.2-1.2-0.4c-0.3-0.3-0.4-0.8-0.4-1.5v-2.5h-0.8v-1h0.8v-1.2L240.6,293.2z"/>
		<path class="st19" d="M246.6,293.3c0,0.4-0.3,0.7-0.8,0.7c-0.5,0-0.7-0.3-0.7-0.7c0-0.4,0.3-0.7,0.8-0.7
			C246.3,292.5,246.6,292.8,246.6,293.3z M245.1,300.1v-5.4h1.4v5.4H245.1z"/>
		<path class="st19" d="M248.1,300.1v-4.3h-0.7v-1h0.7v-0.2c0-0.7,0.2-1.4,0.6-1.8c0.4-0.4,0.9-0.5,1.4-0.5c0.4,0,0.6,0.1,0.9,0.1
			l-0.1,1c-0.1-0.1-0.3-0.1-0.6-0.1c-0.7,0-0.9,0.6-0.9,1.2v0.3h1.2v1h-1.2v4.3H248.1z"/>
		<path class="st19" d="M210.3,311.1l-0.1-0.6h0c-0.3,0.4-0.9,0.7-1.6,0.7c-1.1,0-1.7-0.8-1.7-1.6c0-1.4,1.2-2,3.2-2v-0.1
			c0-0.4-0.1-0.9-1.1-0.9c-0.5,0-1.1,0.2-1.4,0.4l-0.3-0.9c0.4-0.2,1.1-0.5,1.9-0.5c1.7,0,2.2,1.1,2.2,2.3v1.9c0,0.5,0,1,0.1,1.3
			H210.3z M210.1,308.5c-1,0-1.9,0.2-1.9,1c0,0.5,0.3,0.8,0.8,0.8c0.5,0,0.9-0.4,1.1-0.7c0-0.1,0-0.2,0-0.3V308.5z"/>
		<path class="st19" d="M212.8,307.4c0-0.6,0-1.1,0-1.6h1.2l0.1,0.8h0c0.2-0.4,0.8-0.9,1.7-0.9c0.9,0,1.9,0.6,1.9,2.3v3.2h-1.4v-3
			c0-0.8-0.3-1.4-1-1.4c-0.5,0-0.9,0.4-1.1,0.8c0,0.1-0.1,0.3-0.1,0.4v3.1h-1.4V307.4z"/>
		<path class="st19" d="M222.1,311.1l-0.1-0.6h0c-0.3,0.4-0.9,0.7-1.6,0.7c-1.1,0-1.7-0.8-1.7-1.6c0-1.4,1.2-2,3.2-2v-0.1
			c0-0.4-0.1-0.9-1.1-0.9c-0.5,0-1.1,0.2-1.4,0.4l-0.3-0.9c0.4-0.2,1.1-0.5,1.9-0.5c1.7,0,2.2,1.1,2.2,2.3v1.9c0,0.5,0,1,0.1,1.3
			H222.1z M222,308.5c-1,0-1.9,0.2-1.9,1c0,0.5,0.3,0.8,0.8,0.8c0.5,0,0.9-0.4,1.1-0.7c0-0.1,0-0.2,0-0.3V308.5z"/>
		<path class="st19" d="M224.7,303.3h1.4v7.8h-1.4V303.3z"/>
		<path class="st19" d="M228.4,305.8l1,2.9c0.1,0.3,0.2,0.7,0.3,1h0c0.1-0.3,0.2-0.7,0.3-1.1l0.8-2.9h1.5l-1.3,3.7
			c-0.7,2-1.2,2.9-1.9,3.4c-0.5,0.5-1.1,0.6-1.4,0.7l-0.3-1.1c0.2-0.1,0.5-0.2,0.8-0.4c0.3-0.2,0.6-0.5,0.7-0.8
			c0.1-0.1,0.1-0.2,0.1-0.2c0-0.1,0-0.1-0.1-0.3l-2-4.9H228.4z"/>
		<path class="st19" d="M232.9,309.9c0.3,0.2,0.9,0.4,1.4,0.4c0.6,0,0.9-0.2,0.9-0.6c0-0.4-0.2-0.6-0.9-0.8c-1-0.4-1.5-0.9-1.5-1.6
			c0-0.9,0.8-1.7,2-1.7c0.6,0,1.1,0.2,1.4,0.3l-0.3,1c-0.2-0.1-0.7-0.3-1.1-0.3c-0.5,0-0.7,0.2-0.7,0.6c0,0.3,0.3,0.5,0.9,0.7
			c1,0.4,1.4,0.8,1.4,1.6c0,1-0.8,1.7-2.2,1.7c-0.6,0-1.2-0.2-1.6-0.4L232.9,309.9z"/>
		<path class="st19" d="M238.9,304.3c0,0.4-0.3,0.7-0.8,0.7c-0.5,0-0.7-0.3-0.7-0.7c0-0.4,0.3-0.7,0.8-0.7
			C238.6,303.5,238.9,303.8,238.9,304.3z M237.5,311.1v-5.4h1.4v5.4H237.5z"/>
		<path class="st19" d="M240.3,309.9c0.3,0.2,0.9,0.4,1.4,0.4c0.6,0,0.9-0.2,0.9-0.6c0-0.4-0.2-0.6-0.9-0.8c-1-0.4-1.5-0.9-1.5-1.6
			c0-0.9,0.8-1.7,2-1.7c0.6,0,1.1,0.2,1.4,0.3l-0.3,1c-0.2-0.1-0.7-0.3-1.1-0.3c-0.5,0-0.7,0.2-0.7,0.6c0,0.3,0.3,0.5,0.9,0.7
			c1,0.4,1.4,0.8,1.4,1.6c0,1-0.8,1.7-2.2,1.7c-0.6,0-1.2-0.2-1.6-0.4L240.3,309.9z"/>
	</g>
	<g>
		<path class="st19" d="M98.3,280.9c0.6-0.1,1.4-0.2,2.2-0.2c1.4,0,2.3,0.3,3,0.9c0.7,0.6,1.2,1.5,1.2,2.7c0,1.3-0.5,2.3-1.2,2.9
			c-0.7,0.7-1.9,1-3.4,1c-0.8,0-1.4,0-1.8-0.1V280.9z M99.7,287.2c0.2,0,0.5,0,0.7,0c1.8,0,2.8-1,2.8-2.8c0-1.6-0.9-2.6-2.6-2.6
			c-0.4,0-0.7,0-0.9,0.1V287.2z"/>
		<path class="st19" d="M106.7,285.9c0,1,0.8,1.4,1.7,1.4c0.6,0,1.1-0.1,1.5-0.2l0.2,0.9c-0.5,0.2-1.1,0.3-1.9,0.3
			c-1.7,0-2.8-1.1-2.8-2.7c0-1.5,0.9-2.9,2.6-2.9c1.7,0,2.3,1.4,2.3,2.6c0,0.3,0,0.5,0,0.6H106.7z M109.1,285c0-0.5-0.2-1.3-1.1-1.3
			c-0.8,0-1.2,0.8-1.2,1.3H109.1z"/>
		<path class="st19" d="M111.5,284.5c0-0.6,0-1.1,0-1.6h1.2l0.1,0.8h0c0.3-0.4,0.7-0.9,1.7-0.9c0.7,0,1.3,0.4,1.5,1h0
			c0.2-0.3,0.4-0.5,0.7-0.7c0.3-0.2,0.6-0.3,1.1-0.3c0.9,0,1.8,0.6,1.8,2.3v3.2H118v-3c0-0.9-0.3-1.4-1-1.4c-0.5,0-0.8,0.3-0.9,0.7
			c0,0.1-0.1,0.3-0.1,0.5v3.2h-1.3v-3.1c0-0.7-0.3-1.3-0.9-1.3c-0.5,0-0.8,0.4-1,0.8c-0.1,0.1-0.1,0.3-0.1,0.4v3.2h-1.3V284.5z"/>
		<path class="st19" d="M123.8,288.2l-0.1-0.6h0c-0.3,0.4-0.9,0.7-1.6,0.7c-1.1,0-1.7-0.8-1.7-1.6c0-1.4,1.2-2,3.2-2v-0.1
			c0-0.4-0.1-0.9-1.1-0.9c-0.5,0-1.1,0.2-1.4,0.4l-0.3-0.9c0.4-0.2,1.1-0.5,1.9-0.5c1.7,0,2.2,1.1,2.2,2.3v1.9c0,0.5,0,1,0.1,1.3
			H123.8z M123.6,285.6c-1,0-1.9,0.2-1.9,1c0,0.5,0.3,0.8,0.8,0.8c0.5,0,0.9-0.4,1.1-0.7c0-0.1,0-0.2,0-0.3V285.6z"/>
		<path class="st19" d="M126.4,284.5c0-0.6,0-1.1,0-1.6h1.2l0.1,0.8h0c0.2-0.4,0.8-0.9,1.7-0.9c0.9,0,1.9,0.6,1.9,2.3v3.2h-1.4v-3
			c0-0.8-0.3-1.4-1-1.4c-0.5,0-0.9,0.4-1.1,0.8c0,0.1-0.1,0.3-0.1,0.4v3.1h-1.4V284.5z"/>
		<path class="st19" d="M137.6,280.4v6.3c0,0.6,0,1.1,0,1.5h-1.2l-0.1-0.8h0c-0.3,0.6-1,1-1.7,1c-1.3,0-2.3-1.1-2.3-2.7
			c0-1.8,1.1-2.9,2.4-2.9c0.7,0,1.3,0.3,1.5,0.7h0v-3H137.6z M136.3,285.1c0-0.1,0-0.2,0-0.4c-0.1-0.5-0.6-1-1.2-1
			c-0.9,0-1.4,0.8-1.4,1.8c0,1,0.5,1.7,1.3,1.7c0.6,0,1-0.4,1.2-1c0-0.1,0-0.3,0-0.4V285.1z"/>
		<path class="st19" d="M81.8,299.2v-4.3h-0.7v-1h0.7v-0.2c0-0.7,0.2-1.4,0.6-1.8c0.4-0.4,0.9-0.5,1.4-0.5c0.4,0,0.6,0.1,0.9,0.1
			l-0.1,1c-0.1-0.1-0.3-0.1-0.6-0.1c-0.7,0-0.9,0.6-0.9,1.2v0.3h1.2v1h-1.2v4.3H81.8z"/>
		<path class="st19" d="M90.1,296.5c0,2-1.4,2.8-2.8,2.8c-1.5,0-2.7-1-2.7-2.8c0-1.8,1.2-2.8,2.8-2.8
			C89.1,293.7,90.1,294.9,90.1,296.5z M86.1,296.5c0,1,0.5,1.8,1.3,1.8c0.8,0,1.3-0.8,1.3-1.8c0-0.8-0.4-1.8-1.3-1.8
			C86.5,294.7,86.1,295.6,86.1,296.5z"/>
		<path class="st19" d="M91.2,295.6c0-0.7,0-1.2,0-1.7h1.2l0,1h0c0.3-0.8,0.9-1.1,1.5-1.1c0.1,0,0.2,0,0.3,0v1.3c-0.1,0-0.2,0-0.4,0
			c-0.6,0-1.1,0.4-1.2,1c0,0.1,0,0.3,0,0.4v2.8h-1.4V295.6z"/>
		<path class="st19" d="M96,296.9c0,1,0.8,1.4,1.7,1.4c0.6,0,1.1-0.1,1.5-0.2l0.2,0.9c-0.5,0.2-1.1,0.3-1.9,0.3
			c-1.7,0-2.8-1.1-2.8-2.7c0-1.5,0.9-2.9,2.6-2.9c1.7,0,2.3,1.4,2.3,2.6c0,0.3,0,0.5,0,0.6H96z M98.4,296c0-0.5-0.2-1.3-1.1-1.3
			c-0.8,0-1.2,0.8-1.2,1.3H98.4z"/>
		<path class="st19" d="M104.7,299c-0.3,0.1-0.8,0.3-1.5,0.3c-1.7,0-2.8-1.1-2.8-2.7c0-1.6,1.1-2.9,3-2.9c0.5,0,1,0.1,1.3,0.3
			l-0.2,1c-0.2-0.1-0.5-0.2-1-0.2c-1,0-1.7,0.8-1.6,1.7c0,1.1,0.7,1.7,1.6,1.7c0.5,0,0.8-0.1,1.1-0.2L104.7,299z"/>
		<path class="st19" d="M108.7,299.2l-0.1-0.6h0c-0.3,0.4-0.9,0.7-1.6,0.7c-1.1,0-1.7-0.8-1.7-1.6c0-1.4,1.2-2,3.2-2v-0.1
			c0-0.4-0.1-0.9-1.1-0.9c-0.5,0-1.1,0.2-1.4,0.4l-0.3-0.9c0.4-0.2,1.1-0.5,1.9-0.5c1.7,0,2.2,1.1,2.2,2.3v1.9c0,0.5,0,1,0.1,1.3
			H108.7z M108.5,296.6c-1,0-1.9,0.2-1.9,1c0,0.5,0.3,0.8,0.8,0.8c0.5,0,0.9-0.4,1.1-0.7c0-0.1,0-0.2,0-0.3V296.6z"/>
		<path class="st19" d="M111.2,298c0.3,0.2,0.9,0.4,1.4,0.4c0.6,0,0.9-0.2,0.9-0.6c0-0.4-0.2-0.6-0.9-0.8c-1-0.4-1.5-0.9-1.5-1.6
			c0-0.9,0.8-1.7,2-1.7c0.6,0,1.1,0.2,1.4,0.3l-0.3,1c-0.2-0.1-0.7-0.3-1.1-0.3c-0.5,0-0.7,0.2-0.7,0.6c0,0.3,0.3,0.5,0.9,0.7
			c1,0.4,1.4,0.8,1.4,1.6c0,1-0.8,1.7-2.2,1.7c-0.6,0-1.2-0.2-1.6-0.4L111.2,298z"/>
		<path class="st19" d="M117.4,292.3v1.5h1.3v1h-1.3v2.4c0,0.6,0.2,1,0.7,1c0.2,0,0.4,0,0.5-0.1l0,1c-0.2,0.1-0.5,0.1-1,0.1
			c-0.5,0-0.9-0.2-1.2-0.4c-0.3-0.3-0.4-0.8-0.4-1.5v-2.5h-0.8v-1h0.8v-1.2L117.4,292.3z"/>
		<path class="st19" d="M121.2,292.4c0,0.4-0.3,0.7-0.8,0.7c-0.5,0-0.7-0.3-0.7-0.7c0-0.4,0.3-0.7,0.8-0.7
			C120.9,291.6,121.1,291.9,121.2,292.4z M119.7,299.2v-5.4h1.4v5.4H119.7z"/>
		<path class="st19" d="M122.5,295.5c0-0.6,0-1.1,0-1.6h1.2l0.1,0.8h0c0.2-0.4,0.8-0.9,1.7-0.9c0.9,0,1.9,0.6,1.9,2.3v3.2H126v-3
			c0-0.8-0.3-1.4-1-1.4c-0.5,0-0.9,0.4-1.1,0.8c0,0.1-0.1,0.3-0.1,0.4v3.1h-1.4V295.5z"/>
		<path class="st19" d="M133.7,293.9c0,0.4,0,0.8,0,1.5v3c0,1.1-0.2,1.9-0.8,2.4c-0.6,0.5-1.3,0.6-2.1,0.6c-0.7,0-1.4-0.1-1.9-0.4
			l0.3-1c0.3,0.2,0.9,0.4,1.6,0.4c0.9,0,1.5-0.5,1.5-1.6v-0.5h0c-0.3,0.5-0.9,0.8-1.6,0.8c-1.3,0-2.3-1.1-2.3-2.6
			c0-1.8,1.1-2.8,2.4-2.8c0.8,0,1.3,0.4,1.6,0.8h0l0.1-0.7H133.7z M132.3,296c0-0.1,0-0.3,0-0.4c-0.1-0.5-0.5-0.9-1.1-0.9
			c-0.8,0-1.3,0.7-1.3,1.7c0,0.9,0.5,1.7,1.3,1.7c0.5,0,0.9-0.3,1.1-0.8c0-0.1,0.1-0.3,0.1-0.5V296z"/>
		<path class="st19" d="M140.4,299.2l-0.1-0.6h0c-0.3,0.4-0.9,0.7-1.6,0.7c-1.1,0-1.7-0.8-1.7-1.6c0-1.4,1.2-2,3.2-2v-0.1
			c0-0.4-0.1-0.9-1.1-0.9c-0.5,0-1.1,0.2-1.4,0.4l-0.3-0.9c0.4-0.2,1.1-0.5,1.9-0.5c1.7,0,2.2,1.1,2.2,2.3v1.9c0,0.5,0,1,0.1,1.3
			H140.4z M140.2,296.6c-1,0-1.9,0.2-1.9,1c0,0.5,0.3,0.8,0.8,0.8c0.5,0,0.9-0.4,1.1-0.7c0-0.1,0-0.2,0-0.3V296.6z"/>
		<path class="st19" d="M143,295.5c0-0.6,0-1.1,0-1.6h1.2l0.1,0.8h0c0.2-0.4,0.8-0.9,1.7-0.9c0.9,0,1.9,0.6,1.9,2.3v3.2h-1.4v-3
			c0-0.8-0.3-1.4-1-1.4c-0.5,0-0.9,0.4-1.1,0.8c0,0.1-0.1,0.3-0.1,0.4v3.1H143V295.5z"/>
		<path class="st19" d="M154.2,291.4v6.3c0,0.6,0,1.1,0,1.5h-1.2l-0.1-0.8h0c-0.3,0.6-1,1-1.7,1c-1.3,0-2.3-1.1-2.3-2.7
			c0-1.8,1.1-2.9,2.4-2.9c0.7,0,1.3,0.3,1.5,0.7h0v-3H154.2z M152.9,296.1c0-0.1,0-0.2,0-0.4c-0.1-0.5-0.5-1-1.2-1
			c-0.9,0-1.4,0.8-1.4,1.8c0,1,0.5,1.7,1.3,1.7c0.5,0,1-0.4,1.2-1c0-0.1,0-0.3,0-0.4V296.1z"/>
		<path class="st19" d="M93.5,310.2c0-0.4,0-1,0-1.5v-6.3h1.4v3.2h0c0.3-0.5,0.9-0.9,1.7-0.9c1.3,0,2.2,1.1,2.2,2.7
			c0,1.9-1.2,2.9-2.4,2.9c-0.7,0-1.3-0.3-1.7-0.9h0l-0.1,0.8H93.5z M94.8,308c0,0.1,0,0.2,0,0.3c0.1,0.5,0.6,0.9,1.2,0.9
			c0.8,0,1.4-0.7,1.4-1.8c0-0.9-0.5-1.7-1.4-1.7c-0.6,0-1,0.4-1.2,1c0,0.1,0,0.2,0,0.4V308z"/>
		<path class="st19" d="M104.7,308.6c0,0.6,0,1.2,0,1.6h-1.2l-0.1-0.8h0c-0.2,0.4-0.8,0.9-1.7,0.9c-1,0-1.9-0.6-1.9-2.3v-3.1h1.4
			v2.9c0,0.9,0.3,1.5,1,1.5c0.5,0,0.9-0.4,1-0.7c0-0.1,0.1-0.3,0.1-0.4v-3.2h1.4V308.6z"/>
		<path class="st19" d="M111.1,302.4v6.3c0,0.6,0,1.1,0,1.5H110l-0.1-0.8h0c-0.3,0.6-1,1-1.7,1c-1.3,0-2.3-1.1-2.3-2.7
			c0-1.8,1.1-2.9,2.4-2.9c0.7,0,1.3,0.3,1.5,0.7h0v-3H111.1z M109.8,307.1c0-0.1,0-0.2,0-0.4c-0.1-0.5-0.5-1-1.2-1
			c-0.9,0-1.4,0.8-1.4,1.8c0,1,0.5,1.7,1.3,1.7c0.5,0,1-0.4,1.2-1c0-0.1,0-0.3,0-0.4V307.1z"/>
		<path class="st19" d="M117.5,304.9c0,0.4,0,0.8,0,1.5v3c0,1.1-0.2,1.9-0.8,2.4c-0.6,0.5-1.3,0.6-2.1,0.6c-0.7,0-1.4-0.1-1.9-0.4
			l0.3-1c0.3,0.2,0.9,0.4,1.6,0.4c0.9,0,1.5-0.5,1.5-1.6v-0.5h0c-0.3,0.5-0.9,0.8-1.6,0.8c-1.3,0-2.3-1.1-2.3-2.6
			c0-1.8,1.1-2.8,2.4-2.8c0.8,0,1.3,0.4,1.6,0.8h0l0.1-0.7H117.5z M116.1,307c0-0.1,0-0.3,0-0.4c-0.1-0.5-0.5-0.9-1.1-0.9
			c-0.8,0-1.3,0.7-1.3,1.7c0,0.9,0.5,1.7,1.3,1.7c0.5,0,0.9-0.3,1.1-0.8c0-0.1,0.1-0.3,0.1-0.5V307z"/>
		<path class="st19" d="M119.8,307.9c0,1,0.8,1.4,1.7,1.4c0.6,0,1.1-0.1,1.5-0.2l0.2,0.9c-0.5,0.2-1.1,0.3-1.9,0.3
			c-1.7,0-2.8-1.1-2.8-2.7c0-1.5,0.9-2.9,2.6-2.9c1.7,0,2.3,1.4,2.3,2.6c0,0.3,0,0.5,0,0.6H119.8z M122.2,307c0-0.5-0.2-1.3-1.1-1.3
			c-0.8,0-1.2,0.8-1.2,1.3H122.2z"/>
		<path class="st19" d="M126.1,303.3v1.5h1.3v1h-1.3v2.4c0,0.6,0.2,1,0.7,1c0.2,0,0.4,0,0.5-0.1l0,1c-0.2,0.1-0.6,0.1-1,0.1
			c-0.5,0-0.9-0.2-1.2-0.4c-0.3-0.3-0.4-0.8-0.4-1.5v-2.5H124v-1h0.8v-1.2L126.1,303.3z"/>
		<path class="st19" d="M129.9,303.4c0,0.4-0.3,0.7-0.8,0.7c-0.5,0-0.7-0.3-0.7-0.7c0-0.4,0.3-0.7,0.8-0.7
			C129.6,302.6,129.8,302.9,129.9,303.4z M128.4,310.2v-5.4h1.4v5.4H128.4z"/>
		<path class="st19" d="M131.2,306.5c0-0.6,0-1.1,0-1.6h1.2l0.1,0.8h0c0.2-0.4,0.8-0.9,1.7-0.9c0.9,0,1.9,0.6,1.9,2.3v3.2h-1.4v-3
			c0-0.8-0.3-1.4-1-1.4c-0.5,0-0.9,0.4-1.1,0.8c0,0.1-0.1,0.3-0.1,0.4v3.1h-1.4V306.5z"/>
		<path class="st19" d="M142.4,304.9c0,0.4,0,0.8,0,1.5v3c0,1.1-0.2,1.9-0.8,2.4c-0.6,0.5-1.3,0.6-2.1,0.6c-0.7,0-1.4-0.1-1.9-0.4
			l0.3-1c0.3,0.2,0.9,0.4,1.6,0.4c0.9,0,1.5-0.5,1.5-1.6v-0.5h0c-0.3,0.5-0.9,0.8-1.6,0.8c-1.3,0-2.3-1.1-2.3-2.6
			c0-1.8,1.1-2.8,2.4-2.8c0.8,0,1.3,0.4,1.6,0.8h0l0.1-0.7H142.4z M141,307c0-0.1,0-0.3,0-0.4c-0.1-0.5-0.5-0.9-1.1-0.9
			c-0.8,0-1.3,0.7-1.3,1.7c0,0.9,0.5,1.7,1.3,1.7c0.5,0,0.9-0.3,1.1-0.8c0-0.1,0.1-0.3,0.1-0.5V307z"/>
	</g>
	<path class="st20" d="M124.5,252.8h-6c-1.6,0-2.9,1.3-2.9,2.9v0c0,1.6,1.3,2.9,2.9,2.9h3.7c1.6,0,2.9,1.3,2.9,2.9v0
		c0,1.6-1.3,2.9-2.9,2.9h-6"/>
	<line class="st20" x1="120.4" y1="252.8" x2="120.4" y2="249.9"/>
	<line class="st20" x1="120.4" y1="264.3" x2="120.4" y2="267"/>
	<polyline class="st20" points="281.7,177.4 281.7,164 289.2,164 	"/>
	<polyline class="st20" points="289.6,177.4 289.6,156.4 297.7,156.4 297.7,177.4 	"/>
	<polyline class="st20" points="306.1,161.7 306.1,159 297.7,159 297.7,164.3 	"/>
	<polyline class="st20" points="314.2,176.5 314.2,149 306.1,149 306.1,158.5 	"/>
	<g>
		<g>
			<polyline class="st20" points="285.2,152.9 295.3,144.2 300,147.5 312.5,135.6 			"/>
			<g>
				<polygon class="st19" points="314,138.3 315.6,132.6 309.8,134 				"/>
			</g>
		</g>
	</g>
	<circle class="st20" cx="283.5" cy="154.6" r="2.4"/>
	<g>
		<g>
			<path class="st12" d="M130.9,256.2h1.4c3.3,0,5.9-2.7,5.9-5.9c0-3.3-2.7-5.9-5.9-5.9c-1,0-1.9,0.2-2.7,0.7
				c-0.5-5.2-4.8-9.2-10.2-9.2c-4.5,0-8.3,2.9-9.7,6.9c-1-0.5-2.1-0.8-3.2-0.8c-3.9,0-7.1,3.2-7.1,7.1c0,3.9,3.2,7.1,7.1,7.1h1.1"/>
			<g>
				<polygon class="st19" points="131.7,259.2 126.5,256.2 131.7,253.2 				"/>
			</g>
		</g>
	</g>
	<g>
		<g>
			<polyline class="st12" points="77.5,160.6 77.5,136.5 53.9,136.5 46,144.4 46,178.6 54.1,178.6 			"/>
			<g>
				<polygon class="st19" points="53.2,181.6 58.4,178.6 53.2,175.6 				"/>
			</g>
		</g>
	</g>
	<polyline class="st12" points="53.9,136.5 53.9,144.4 46,144.4 	"/>
	<g>
		<path class="st12" d="M57.3,171.9c0,0,4.5,6.7,12.2,6.7s12.2-6.7,12.2-6.7s-4.5-6.7-12.2-6.7S57.3,171.9,57.3,171.9z"/>
		<circle class="st12" cx="69.5" cy="171.9" r="4.5"/>
	</g>
	<g>
		<g>
			<polyline class="st12" points="49.4,159.5 52.3,162.4 60.5,154.2 63.5,157.2 70,150.6 			"/>
			<g>
				<polygon class="st19" points="71.5,153.4 73.1,147.6 67.3,149.1 				"/>
			</g>
		</g>
	</g>
	<line class="st12" x1="100.9" y1="40.3" x2="117.2" y2="40.3"/>
	<circle class="st12" cx="130" cy="72.3" r="5.1"/>
	<line class="st12" x1="103.4" y1="40.3" x2="99.8" y2="54.8"/>
	<g>
		<g>
			<line class="st12" x1="127.3" y1="57" x2="127.3" y2="48.8"/>
			<g>
				<polygon class="st19" points="130.3,49.6 127.3,44.5 124.3,49.6 				"/>
			</g>
		</g>
	</g>
	<circle class="st12" cx="77.7" cy="162.8" r="2.3"/>
	<circle class="st12" cx="109.8" cy="256.2" r="2.3"/>
	<g>
		<g>
			<g>
				<polyline class="st20" points="240.1,48.8 231.8,60.6 220.4,57.4 213.1,67.6 				"/>
				<g>
					<polygon class="st19" points="237.1,47.8 242.5,45.3 242,51.3 					"/>
				</g>
			</g>
		</g>
		<path class="st20" d="M222,47.3h-2.6c-0.7,0-1.3,0.6-1.3,1.3l0,0c0,0.7,0.6,1.3,1.3,1.3h1.6c0.7,0,1.3,0.6,1.3,1.3v0
			c0,0.7-0.6,1.3-1.3,1.3h-2.6"/>
		<line class="st20" x1="220.2" y1="47.3" x2="220.2" y2="46.1"/>
		<line class="st20" x1="220.2" y1="52.3" x2="220.2" y2="53.5"/>
		<path class="st20" d="M234,65.2h-2.6c-0.7,0-1.3,0.6-1.3,1.3l0,0c0,0.7,0.6,1.3,1.3,1.3h1.6c0.7,0,1.3,0.6,1.3,1.3l0,0
			c0,0.7-0.6,1.3-1.3,1.3h-2.6"/>
		<line class="st20" x1="232.2" y1="65.2" x2="232.2" y2="64"/>
		<line class="st20" x1="232.2" y1="70.3" x2="232.2" y2="71.4"/>
		<path class="st20" d="M247.4,36.2h-2.6c-0.7,0-1.3,0.6-1.3,1.3v0c0,0.7,0.6,1.3,1.3,1.3h1.6c0.7,0,1.3,0.6,1.3,1.3l0,0
			c0,0.7-0.6,1.3-1.3,1.3h-2.6"/>
		<line class="st20" x1="245.7" y1="36.2" x2="245.7" y2="35"/>
		<line class="st20" x1="245.7" y1="41.3" x2="245.7" y2="42.4"/>
		<path class="st20" d="M216.3,71.7h-2.6c-0.7,0-1.3,0.6-1.3,1.3l0,0c0,0.7,0.6,1.3,1.3,1.3h1.6c0.7,0,1.3,0.6,1.3,1.3l0,0
			c0,0.7-0.6,1.3-1.3,1.3h-2.6"/>
		<line class="st20" x1="214.5" y1="71.7" x2="214.5" y2="70.5"/>
		<line class="st20" x1="214.5" y1="76.8" x2="214.5" y2="77.9"/>
		<circle class="st20" cx="220.4" cy="49.8" r="6.3"/>
		<circle class="st20" cx="245.6" cy="38.8" r="6.3"/>
		<circle class="st20" cx="232.2" cy="67.6" r="6.3"/>
		<circle class="st20" cx="214.6" cy="74.2" r="6.3"/>
		<g>
			<g>
				<polyline class="st20" points="222.6,81.9 248.7,81.9 248.7,56.5 				"/>
				<g>
					<polygon class="st19" points="251.7,57.4 248.7,52.2 245.7,57.4 					"/>
				</g>
			</g>
		</g>
	</g>
	<path class="st12" d="M95,54.8h12.9l7.3,9v7.9h6.7v0c0-4.1,3.3-7.4,7.4-7.4h3.7v-5l-2.9-1.9L118.4,56l-3.9-15.8"/>
	<circle class="st12" cx="101.8" cy="67.7" r="9.7"/>
	<line class="st12" x1="115.3" y1="74.9" x2="121.2" y2="74.9"/>
	<g>
		<g>
			<polyline class="st12" points="100.8,264.2 100.8,272.9 136.5,272.9 136.5,264.1 			"/>
			<g>
				<polygon class="st19" points="97.8,265 100.8,259.9 103.7,265 				"/>
			</g>
			<g>
				<polygon class="st19" points="139.4,265 136.5,259.8 133.5,265 				"/>
			</g>
		</g>
	</g>
	<circle class="st20" cx="305.5" cy="170.4" r="7.8"/>
	<circle class="st20" cx="305.5" cy="170.6" r="4.7"/>
	<path class="st20" d="M316.1,181L316.1,181c-0.5,0.5-1.2,0.5-1.6,0l-4.2-4.2l1.6-1.6l4.2,4.2C316.5,179.8,316.5,180.6,316.1,181z"
		/>
	<line class="st20" x1="279.2" y1="178.2" x2="306.1" y2="178.2"/>
	<g>
		<g>
			<path class="st12" d="M220.8,248.6h3.6l3.2-6.7c0,0,4.7,0,3.4,3.6l-1.2,3.2l9.2-0.1c1,0,1.7,0.9,1.6,1.9l-1.8,10.1
				c-0.2,1.2-1.3,2.1-2.5,2.1h-15.4V248.6z"/>
			<g>
				<g>
					<polyline class="st12" points="215.5,263.7 220.8,263.7 220.8,247.6 215.1,247.6 					"/>
					<g>
						<polygon class="st19" points="216,244.6 210.8,247.6 216,250.6 						"/>
					</g>
				</g>
			</g>
			<line class="st12" x1="240" y1="253.5" x2="232.4" y2="253.5"/>
			<line class="st12" x1="239.3" y1="258" x2="232.4" y2="258"/>
			<circle class="st12" cx="213.4" cy="263.7" r="2.3"/>
		</g>
		<g>
			<line id="XMLID_174_" class="st23" x1="225.4" y1="269.6" x2="225.4" y2="277.8"/>
			<g id="XMLID_172_">
				<g>
					<polyline class="st23" points="246.6,240.6 246.6,269.6 204.1,269.6 204.1,238.4 235.8,238.4 					"/>
					<g>
						<polygon class="st19" points="243.6,241.5 246.6,236.3 249.6,241.5 						"/>
					</g>
				</g>
			</g>
			<path id="XMLID_171_" class="st25" d="M237.6,240.2L237.6,240.2c-1.5-0.9-1.5-3,0-3.9c1.5-0.9,3.4,0.2,3.4,1.9
				C241,240,239.1,241.1,237.6,240.2z"/>
			<line id="XMLID_169_" class="st23" x1="217.5" y1="277.8" x2="233.2" y2="277.8"/>
		</g>
	</g>
</g>
</svg>
