<svg id="Layer_1" data-name="Layer 1" xmlns="http://www.w3.org/2000/svg" width="100" height="100" viewBox="0 0 100 100"><title>power-simulations</title><path d="M50.05,98.47c-1.85-.28-3.72-.45-5.55-.86C25.19,93.19,13.2,81.12,7.77,62.28c-.65-2.27-.94-4.64-1.42-7.09H0L7.93,41l7.92,14.15h-6c.38,2,.6,3.92,1.1,5.74,4.78,17.32,15.55,28.91,33.22,33,14.38,3.3,27.24-.64,38-10.68,9.29-8.67,13.92-19.57,14.24-32.26.54-21.33-14-40.4-34.16-44.71C46,2.73,32.3,7.63,21,19.7c-.19.21-.34.45-.53.7a7.5,7.5,0,0,1,.83,6.82,6.82,6.82,0,0,1-8.55,4.24,7.2,7.2,0,0,1-4.51-8.83,6.78,6.78,0,0,1,8.19-4.87,1.92,1.92,0,0,0,2.27-.71A45.65,45.65,0,0,1,49,1.73a2.37,2.37,0,0,0,.54-.2h6.89c1.85.3,3.71.54,5.54.92A47.75,47.75,0,0,1,99.27,42.11c.27,1.88.49,3.78.73,5.68v4.42a5,5,0,0,0-.2.92A44.76,44.76,0,0,1,97,66.78c-6.35,16.43-17.91,27-35.26,30.8-1.82.41-3.68.6-5.52.89ZM18.38,24.66a3.59,3.59,0,0,0-3.46-3.61,3.61,3.61,0,0,0,0,7.22A3.6,3.6,0,0,0,18.38,24.66Z"/><path d="M47.46,52.41l-8.63-5.57c-1.61-1-1.74-2-.45-3.49Q51.15,29,63.92,14.73a3,3,0,0,1,1.94-1c1.24,0,1.76,1.38,1.15,2.74-1.58,3.51-3.2,7-4.79,10.5L55.13,42.5c.44.27.84.53,1.26.76,2.76,1.51,5.54,3,8.3,4.52,1.55.86,1.75,2,.58,3.28Q51.67,66.19,38.05,81.3c-.71.79-1.52,1.2-2.47.54s-.92-1.62-.45-2.62Q41,66.58,46.79,53.91C47,53.47,47.19,53,47.46,52.41ZM58.86,26l-.23-.1L41.94,44.64l8,5.12c1.67,1.08,1.86,1.68,1.05,3.45q-2.56,5.58-5.14,11.14l-2.49,5.41.25.15L61.44,50.08l-1.12-.64c-2.58-1.41-5.17-2.81-7.75-4.23-1.55-.84-1.78-1.51-1.07-3.08.6-1.35,1.21-2.69,1.82-4Q56.1,32,58.86,26Z"/></svg>