<svg id="Layer_1" data-name="Layer 1" xmlns="http://www.w3.org/2000/svg" width="75" height="75" viewBox="0 0 75 75"><defs><style>.cls-1{fill:#010101;}.cls-2{fill:#fefefe;}.cls-3{fill:#fdfdfd;}.cls-4{fill:#fcfcfc;}</style></defs><title>compliance</title><path d="M56.09,29.53a11.91,11.91,0,0,1,7.19.27,11,11,0,0,1-3.34,21.43,9.87,9.87,0,0,1-3.25-.29c-.54-.17-.61,0-.61.49,0,3.45,0,6.89,0,10.34a7.42,7.42,0,0,1-7.75,7.74c-3.53,0-7.07,0-10.6,0-.87,0-1.06.26-1,1.05s0,1.83,0,2.91L32.37,71,28,68.46l8.77-5c0,1.2,0,2.25,0,3.3,0,.45.06.65.59.64,3.77,0,7.53,0,11.29,0a5.18,5.18,0,0,0,5.25-5.17c.06-3.93,0-7.87,0-11.8a.85.85,0,0,0-.48-.81c-7.13-4.67-7.13-14.15,0-18.84a.93.93,0,0,0,.47-.91c0-4,0-8,0-12.07a5.21,5.21,0,0,0-5.44-5.4c-1.09,0-2.19,0-3.28,0-.56,0-.67.18-.64.68,0,.83,0,1.67,0,2.5,0,.52-.1.69-.66.68-1.34,0-2.7,0-4,0-6.57,0-13.15,0-19.73,0-.71,0-1-.17-.88-.89a.21.21,0,0,0,0-.08c-.05-.94.41-2.23-.17-2.72s-1.8-.15-2.74-.15a8.54,8.54,0,0,0-2.57.19,5.28,5.28,0,0,0-3.81,4.14c-.11.47,0,.74.5,1a4.06,4.06,0,0,1,2.72,4,4.1,4.1,0,0,1-2.72,4,.78.78,0,0,0-.58.87q0,17.7,0,35.42a5.27,5.27,0,0,0,5.45,5.42c2.15,0,4.31,0,6.46,0,.62,0,.76.18.74.77,0,1.36,0,1.36-1.33,1.36H15.34a7.42,7.42,0,0,1-7.66-7.66q0-17.51,0-35a1.11,1.11,0,0,0-.76-1.27,4,4,0,0,1-2.54-3.94A4.07,4.07,0,0,1,7,17.73a1.14,1.14,0,0,0,.78-1,7.42,7.42,0,0,1,7.4-6.48q1.72,0,3.45,0c.49,0,.63-.14.61-.62,0-.8,0-1.61,0-2.41,0-.63.11-.84.78-.82,1.81,0,3.62,0,5.43,0a.65.65,0,0,0,.76-.55,5.94,5.94,0,0,1,11.4,0c.14.46.32.57.75.56,1.84,0,3.68,0,5.52,0,.59,0,.72.18.69.72,0,.78,0,1.56,0,2.33,0,.62.11.82.78.81a28,28,0,0,1,4.39.09,7.39,7.39,0,0,1,6.39,7.3c0,3.68,0,7.35,0,11Z"/><path d="M22,39.63c-1.12,0-2.23,0-3.35,0-.49,0-.7-.06-.7-.63,0-2.21,0-4.42,0-6.62,0-.48.1-.65.61-.64,2.24,0,4.47,0,6.71,0,.45,0,.65.08.64.6,0,2.24,0,4.47,0,6.71,0,.53-.21.59-.65.58C24.2,39.62,23.11,39.63,22,39.63Z"/><path d="M21.89,59.78c-1.09,0-2.17,0-3.26,0-.46,0-.66-.07-.65-.6,0-2.23,0-4.47,0-6.7,0-.44.1-.6.57-.59q3.39,0,6.79,0c.41,0,.61.06.6.55,0,2.26,0,4.53,0,6.79,0,.49-.19.56-.61.55C24.19,59.77,23,59.78,21.89,59.78Z"/><path d="M22.05,21.71c1.12,0,2.24,0,3.36,0,.4,0,.53.1.53.52q0,3.41,0,6.81c0,.42-.12.53-.53.53q-3.45,0-6.9,0c-.41,0-.53-.11-.53-.53q0-3.41,0-6.81c0-.42.13-.53.54-.52C19.69,21.73,20.87,21.71,22.05,21.71Z"/><path d="M22,41.86c1.11,0,2.23,0,3.35,0,.45,0,.58.13.57.58q0,3.34,0,6.71c0,.48-.17.55-.59.55-2.27,0-4.53,0-6.8,0-.45,0-.57-.13-.57-.58q0-3.34,0-6.71c0-.48.17-.55.59-.54C19.72,41.88,20.87,41.86,22,41.86Z"/><path class="cls-1" d="M38.61,26.71c-2.56,0-5.12,0-7.67,0-.56,0-.72-.14-.71-.7,0-1.47,0-1.47,1.5-1.47,4.82,0,9.64,0,14.47,0,.76,0,1.06.18.92.94a2,2,0,0,0,0,.6c.09.56-.17.66-.67.65C43.83,26.7,41.22,26.71,38.61,26.71Z"/><path class="cls-1" d="M38.77,44.14c2.53,0,5,0,7.58,0,.56,0,.8.07.79.72,0,1.44,0,1.44-1.45,1.44-4.85,0-9.71,0-14.56,0-.68,0-1-.12-.9-.87a1.79,1.79,0,0,0,0-.61c-.09-.56.13-.71.69-.71C33.55,44.16,36.16,44.14,38.77,44.14Z"/><path d="M38.69,36.75c-2.55,0-5.1,0-7.65,0-.61,0-.94-.09-.8-.77a1.81,1.81,0,0,0,0-.52c-.11-.65.12-.85.81-.85,5.08,0,10.15,0,15.22,0,.63,0,1,.09.85.81a2,2,0,0,0,0,.6c.08.55-.11.73-.69.72C43.85,36.73,41.27,36.75,38.69,36.75Z"/><path d="M38.69,56.9c-2.52,0-5,0-7.56,0-.68,0-.95-.1-.91-.86.07-1.26,0-1.27,1.26-1.27,4.9,0,9.8,0,14.7,0,.83,0,1.06.25.94,1a1,1,0,0,0,0,.34c.11.62-.11.82-.77.81C43.8,56.88,41.25,56.9,38.69,56.9Z"/><path class="cls-2" d="M68.4,40.15a9.07,9.07,0,1,1-9.12-8.93A9,9,0,0,1,68.4,40.15Z"/><path class="cls-2" d="M31.91,8.5c3.22,0,6.43,0,9.64,0,.66,0,.83.17.81.82,0,1.34,0,2.69,0,4,0,.53-.08.75-.69.75q-9.76,0-19.53,0c-.58,0-.73-.16-.71-.72,0-1.4,0-2.81,0-4.21,0-.56.17-.66.68-.66C25.37,8.51,28.64,8.5,31.91,8.5Z"/><path class="cls-3" d="M8.76,19.46a2.25,2.25,0,0,1,2.32,2.24A2.37,2.37,0,0,1,8.8,23.94a2.35,2.35,0,0,1-2.32-2.28A2.25,2.25,0,0,1,8.76,19.46Z"/><path class="cls-3" d="M28.37,6.38a3.56,3.56,0,0,1,3.4-2.69,3.7,3.7,0,0,1,3.67,2.69H28.37Z"/><path class="cls-4" d="M21.94,37.48c-1.79,0-1.79,0-1.79-1.78s0-1.77,1.79-1.77,1.83,0,1.83,1.81S23.77,37.48,21.94,37.48Z"/><path class="cls-4" d="M21.94,54.06c1.83,0,1.83,0,1.83,1.83s0,1.73-1.74,1.73-1.88,0-1.88-1.86C20.15,54.06,20.15,54.06,21.94,54.06Z"/><path class="cls-3" d="M22,27.41c-1.81,0-1.81,0-1.81-1.82s0-1.76,1.73-1.76c1.89,0,1.89,0,1.89,1.86S23.77,27.41,22,27.41Z"/><path class="cls-3" d="M23.77,45.77c0,1.8,0,1.8-1.83,1.8s-1.79,0-1.79-1.76S20.15,44,22,44,23.77,44,23.77,45.77Z"/><path d="M65.35,37.13l-.5.53c-2.21,2.17-4.43,4.34-6.61,6.53-.38.38-.57.36-.94,0C56.19,43,55,41.89,53.87,40.79c-.39-.36-.39-.56,0-.93,1.09-1,1.06-1.06,2.15,0,.59.57,1.11,1.6,1.8,1.55s1.17-1,1.74-1.55c1.23-1.21,2.47-2.4,3.67-3.64.38-.4.62-.44,1,0A8.7,8.7,0,0,0,65.35,37.13Z"/></svg>