<svg id="Layer_1" data-name="Layer 1" xmlns="http://www.w3.org/2000/svg" width="100" height="100" viewBox="0 0 100 100"><title>finance-growth</title><path d="M50.82,0c2.31.55,4.69.93,6.93,1.69,20.14,6.9,26.5,32.62,11.93,48.13a29.44,29.44,0,0,1-42.6.79c-8.32-8.42-10.88-18.69-7.27-30S31.34,2.79,42.87.45C43.57.31,44.27.15,45,0ZM74.11,29.67c0-14.26-11.68-26.11-25.75-26.13A26.14,26.14,0,1,0,74.11,29.67Z"/><path d="M8.86,100c-.36-.15-.71-.32-1.08-.46a7.05,7.05,0,1,1,5.34-13.05A1.42,1.42,0,0,0,15,86.23q9.51-8.73,19.09-17.4c1.28-1.17,2.12-1.11,3.33.19l8.48,9.07c.19.2.41.38.71.65l39-34.17-4.52-4.29L96.82,36l-4.17,15.6L88.18,47c-4.66,4.06-9.1,7.93-13.53,11.81l-26.33,23c-1.67,1.47-2.29,1.42-3.84-.22l-8.18-8.7c-.22-.23-.46-.44-.75-.7-3.36,3.06-6.7,6.07-10,9.11C22.74,83.83,20,86.42,17.19,89a1.13,1.13,0,0,0-.36,1.45,7,7,0,0,1-4.76,9.33,3.16,3.16,0,0,0-.52.26Zm5-7.13a3.57,3.57,0,1,0-7.13.1,3.64,3.64,0,0,0,3.61,3.53A3.63,3.63,0,0,0,13.81,92.87Z"/><path d="M49.16,43.8v4.69h-3V44.05c-1.58-.32-3.06-.53-4.48-.95-3-.9-3-1-1.94-3.84.07-.19.13-.38.23-.63,1,.42,1.84.87,2.78,1.21a9.94,9.94,0,0,0,6.21.4,4.36,4.36,0,0,0,3.4-3.58,4.23,4.23,0,0,0-1.82-4.36,24.3,24.3,0,0,0-3.27-1.84A45.14,45.14,0,0,1,42.57,28,7.19,7.19,0,0,1,43.7,15.34a5.38,5.38,0,0,1,.55-.24c.72-.26,1.78-.32,2.06-.82a5.68,5.68,0,0,0,.15-2.5c0-.64,0-1.28,0-2h3V14L55.7,15.7,54.5,19a26.94,26.94,0,0,0-4.21-1.23,11.47,11.47,0,0,0-4,.16,3.52,3.52,0,0,0-2.81,3,3.5,3.5,0,0,0,1.61,3.8c1.25.8,2.63,1.42,3.95,2.12a44.26,44.26,0,0,1,4,2.09,7.48,7.48,0,0,1,3.53,7.62,7.78,7.78,0,0,1-5.39,6.61C50.56,43.41,49.9,43.57,49.16,43.8Z"/></svg>