<svg id="Layer_1" data-name="Layer 1" xmlns="http://www.w3.org/2000/svg" viewBox="0 0 791.09 619.97"><defs><style>.cls-1{fill:#fbc2ba;}.cls-2{fill:#fcddd6;}.cls-3{fill:#4c0519;}.cls-4{fill:none;stroke:#4c0519;stroke-miterlimit:10;stroke-width:3px;}</style></defs><title>connected-vehicles</title><rect class="cls-1" width="791.09" height="183.97"/><rect class="cls-2" y="189.78" width="791.09" height="186.97"/><rect class="cls-1" y="382.78" width="791.09" height="237.19"/><path class="cls-3" d="M74.29,108.2a42.51,42.51,0,0,1,6.63-.47c4.26,0,7.21.88,9.31,2.64s3.55,4.5,3.55,8.39c0,4.07-1.39,7.11-3.55,9.07S84.34,131,79.9,131a45,45,0,0,1-5.61-.31Zm4.16,19.33a15.66,15.66,0,0,0,2.3.1c5.41,0,8.63-2.94,8.63-8.73,0-5-2.88-7.92-8.09-7.92a12.9,12.9,0,0,0-2.84.24Z"/><path class="cls-3" d="M97.34,119.54c0-2.23,0-3.82-.14-5.31h3.62l.14,3.15h.13a4.93,4.93,0,0,1,4.51-3.52,4.28,4.28,0,0,1,1,.1v3.92a6.41,6.41,0,0,0-1.22-.13,3.66,3.66,0,0,0-3.72,3.15,6.86,6.86,0,0,0-.14,1.28v8.53H97.34Z"/><path class="cls-3" d="M113.82,109.63a2.34,2.34,0,0,1-4.67,0,2.34,2.34,0,0,1,4.67,0Zm-4.43,21.08V114.23h4.2v16.48Z"/><path class="cls-3" d="M120.69,114.23l2.68,8.36c.47,1.45.81,2.77,1.12,4.13h.1c.3-1.36.67-2.64,1.11-4.13l2.61-8.36h4.4l-6.3,16.48h-4.09l-6.13-16.48Z"/><path class="cls-3" d="M137.75,123.64c.11,3,2.44,4.26,5.08,4.26a12.47,12.47,0,0,0,4.57-.74L148,130a15.39,15.39,0,0,1-5.75,1c-5.35,0-8.5-3.28-8.5-8.33,0-4.56,2.78-8.86,8.06-8.86s7.1,4.4,7.1,8a10.09,10.09,0,0,1-.13,1.76Zm7.25-2.91c0-1.53-.65-4-3.42-4-2.57,0-3.66,2.33-3.83,4Z"/><path class="cls-3" d="M152.28,119.54c0-2.23,0-3.82-.14-5.31h3.62l.14,3.15H156a4.91,4.91,0,0,1,4.5-3.52,4.28,4.28,0,0,1,1,.1v3.92a6.41,6.41,0,0,0-1.22-.13,3.66,3.66,0,0,0-3.72,3.15,6.86,6.86,0,0,0-.14,1.28v8.53h-4.16Z"/><path class="cls-3" d="M54,164.56l-.27-1.83h-.1a6.12,6.12,0,0,1-4.88,2.2,4.89,4.89,0,0,1-5.17-4.9c0-4.17,3.69-6.26,9.78-6.23v-.27c0-1.08-.44-2.88-3.35-2.88a8.75,8.75,0,0,0-4.44,1.22l-.81-2.71a11.93,11.93,0,0,1,6-1.45c5.28,0,6.8,3.35,6.8,6.94v5.95a26.23,26.23,0,0,0,.24,4Zm-.54-8.05c-3-.07-5.75.57-5.75,3.08A2.18,2.18,0,0,0,50.06,162a3.38,3.38,0,0,0,3.25-2.27,3.06,3.06,0,0,0,.14-.91Z"/><path class="cls-3" d="M61.71,160.74a9.36,9.36,0,0,0,4.23,1.18c1.83,0,2.64-.74,2.64-1.82s-.68-1.7-2.71-2.41c-3.21-1.11-4.57-2.87-4.53-4.8,0-2.91,2.4-5.18,6.23-5.18a9.66,9.66,0,0,1,4.36,1l-.81,2.94a7.48,7.48,0,0,0-3.49-.94c-1.49,0-2.3.71-2.3,1.72s.78,1.56,2.88,2.3c3,1.09,4.36,2.61,4.4,5,0,3-2.34,5.14-6.7,5.14a10.6,10.6,0,0,1-5-1.15Z"/><path class="cls-3" d="M75.83,160.74a9.32,9.32,0,0,0,4.23,1.18c1.82,0,2.64-.74,2.64-1.82S82,158.4,80,157.69c-3.22-1.11-4.57-2.87-4.54-4.8,0-2.91,2.41-5.18,6.23-5.18a9.67,9.67,0,0,1,4.37,1l-.82,2.94a7.47,7.47,0,0,0-3.48-.94c-1.49,0-2.3.71-2.3,1.72s.78,1.56,2.87,2.3c3,1.09,4.37,2.61,4.4,5,0,3-2.33,5.14-6.7,5.14a10.63,10.63,0,0,1-5-1.15Z"/><path class="cls-3" d="M94.58,143.48a2.21,2.21,0,0,1-2.37,2.23,2.18,2.18,0,0,1-2.3-2.23,2.34,2.34,0,0,1,4.67,0Zm-4.44,21.08V148.08h4.2v16.48Z"/><path class="cls-3" d="M98.61,160.74a9.36,9.36,0,0,0,4.23,1.18c1.83,0,2.64-.74,2.64-1.82s-.68-1.7-2.71-2.41c-3.21-1.11-4.57-2.87-4.53-4.8,0-2.91,2.4-5.18,6.22-5.18a9.67,9.67,0,0,1,4.37,1l-.81,2.94a7.48,7.48,0,0,0-3.49-.94c-1.49,0-2.3.71-2.3,1.72s.78,1.56,2.88,2.3c3,1.09,4.36,2.61,4.4,5,0,3-2.34,5.14-6.71,5.14a10.55,10.55,0,0,1-5-1.15Z"/><path class="cls-3" d="M117.7,143.38v4.7h4v3.11h-4v7.28c0,2,.54,3.05,2.13,3.05a6.27,6.27,0,0,0,1.63-.21l.06,3.18a9,9,0,0,1-3,.41,4.86,4.86,0,0,1-3.59-1.35c-.88-1-1.28-2.44-1.28-4.61v-7.75h-2.37v-3.11h2.37v-3.72Z"/><path class="cls-3" d="M134.08,164.56l-.27-1.83h-.1a6.12,6.12,0,0,1-4.88,2.2,4.89,4.89,0,0,1-5.17-4.9c0-4.17,3.69-6.26,9.78-6.23v-.27c0-1.08-.44-2.88-3.35-2.88a8.75,8.75,0,0,0-4.44,1.22l-.81-2.71a11.93,11.93,0,0,1,6-1.45c5.28,0,6.8,3.35,6.8,6.94v5.95a26.23,26.23,0,0,0,.24,4Zm-.54-8.05c-2.94-.07-5.75.57-5.75,3.08a2.18,2.18,0,0,0,2.37,2.37,3.37,3.37,0,0,0,3.24-2.27,2.77,2.77,0,0,0,.14-.91Z"/><path class="cls-3" d="M142,153c0-1.9,0-3.49-.13-4.91h3.65l.21,2.47h.1a5.92,5.92,0,0,1,5.24-2.84c2.88,0,5.86,1.86,5.86,7.07v9.78h-4.16v-9.3c0-2.37-.88-4.17-3.15-4.17a3.5,3.5,0,0,0-3.25,2.44,4.1,4.1,0,0,0-.17,1.35v9.68H142Z"/><path class="cls-3" d="M173.48,164.05a11.94,11.94,0,0,1-4.67.85c-5.14,0-8.49-3.28-8.49-8.39,0-4.94,3.38-8.8,9.17-8.8a10.42,10.42,0,0,1,4,.78l-.75,3.11a7.43,7.43,0,0,0-3.15-.64c-3.18,0-5.07,2.33-5,5.34,0,3.39,2.2,5.32,5,5.32a8.15,8.15,0,0,0,3.29-.65Z"/><path class="cls-3" d="M179.21,157.49c.1,3,2.43,4.26,5.07,4.26a12.47,12.47,0,0,0,4.57-.74l.61,2.88a15.61,15.61,0,0,1-5.75,1c-5.35,0-8.5-3.28-8.5-8.32,0-4.57,2.78-8.87,8.06-8.87s7.1,4.4,7.1,8a10.09,10.09,0,0,1-.13,1.76Zm7.24-2.91c0-1.52-.64-4-3.42-4-2.57,0-3.65,2.34-3.82,4Z"/><path class="cls-3" d="M275.15,45.84l-5.58-17.11H272l2.67,8.43c.73,2.31,1.37,4.39,1.83,6.4h.05c.48-2,1.19-4.14,1.95-6.38l2.9-8.45h2.36l-6.12,17.11Z"/><path class="cls-3" d="M287.57,30.1a1.39,1.39,0,0,1-2.77,0,1.36,1.36,0,0,1,1.4-1.4A1.33,1.33,0,0,1,287.57,30.1Zm-2.49,15.74V33.55h2.23V45.84Z"/><path class="cls-3" d="M301.63,27.81V42.67c0,1.09,0,2.33.1,3.17h-2l-.1-2.13h-.05a4.56,4.56,0,0,1-4.19,2.41c-3,0-5.26-2.51-5.26-6.25,0-4.08,2.51-6.6,5.51-6.6a4.12,4.12,0,0,1,3.71,1.88h0V27.81ZM299.4,38.55a4.29,4.29,0,0,0-.1-.94A3.29,3.29,0,0,0,296.07,35c-2.31,0-3.68,2-3.68,4.75,0,2.49,1.22,4.55,3.63,4.55a3.36,3.36,0,0,0,3.28-2.67,4.16,4.16,0,0,0,.1-1Z"/><path class="cls-3" d="M306.58,40.1c.05,3,2,4.27,4.22,4.27a8,8,0,0,0,3.4-.64l.38,1.6a9.89,9.89,0,0,1-4.09.76c-3.78,0-6-2.48-6-6.19s2.18-6.63,5.76-6.63c4,0,5.08,3.53,5.08,5.79a7.43,7.43,0,0,1-.08,1Zm6.55-1.6c0-1.42-.58-3.63-3.09-3.63-2.26,0-3.25,2.08-3.43,3.63Z"/><path class="cls-3" d="M329.18,39.59c0,4.55-3.15,6.53-6.12,6.53-3.33,0-5.89-2.44-5.89-6.32,0-4.12,2.69-6.53,6.09-6.53S329.18,35.84,329.18,39.59Zm-9.75.13c0,2.69,1.55,4.72,3.73,4.72s3.73-2,3.73-4.77c0-2.08-1-4.72-3.68-4.72S319.43,37.39,319.43,39.72Z"/><path class="cls-3" d="M335.5,46.86l7.08-18.41h1.73L337.2,46.86Z"/><path class="cls-3" d="M354,30.1a1.39,1.39,0,0,1-2.77,0,1.36,1.36,0,0,1,1.39-1.4A1.33,1.33,0,0,1,354,30.1Zm-2.49,15.74V33.55h2.23V45.84Z"/><path class="cls-3" d="M357.41,36.88c0-1.27,0-2.31-.1-3.33h1.95l.1,2h.08a4.23,4.23,0,0,1,3.86-2.26,3.65,3.65,0,0,1,3.48,2.46h.05a5,5,0,0,1,1.37-1.59,4.2,4.2,0,0,1,2.72-.87c1.62,0,4,1.07,4,5.33v7.24h-2.18v-7c0-2.36-.86-3.78-2.67-3.78a2.89,2.89,0,0,0-2.64,2,3.77,3.77,0,0,0-.17,1.12v7.59H365.1V38.48c0-2-.86-3.38-2.56-3.38a3.33,3.33,0,0,0-3,3.33v7.41h-2.18Z"/><path class="cls-3" d="M385.39,45.84l-.18-1.55h-.08a4.55,4.55,0,0,1-3.76,1.83,3.5,3.5,0,0,1-3.75-3.53c0-3,2.64-4.6,7.39-4.57v-.25a2.54,2.54,0,0,0-2.8-2.85,6.14,6.14,0,0,0-3.2.92l-.5-1.48a7.58,7.58,0,0,1,4-1.09c3.76,0,4.67,2.57,4.67,5v4.59a17.55,17.55,0,0,0,.21,3Zm-.33-6.27c-2.44,0-5.21.38-5.21,2.77A2,2,0,0,0,382,44.47a3.06,3.06,0,0,0,3-2.06,2.22,2.22,0,0,0,.13-.71Z"/><path class="cls-3" d="M401.41,33.55c-.05.89-.1,1.88-.1,3.38v7.13c0,2.82-.56,4.55-1.76,5.61a6.5,6.5,0,0,1-4.47,1.48,7.91,7.91,0,0,1-4.08-1l.56-1.7a6.89,6.89,0,0,0,3.6,1c2.29,0,4-1.19,4-4.29V43.73h-.05a4.36,4.36,0,0,1-3.91,2.06c-3.05,0-5.23-2.59-5.23-6,0-4.17,2.72-6.53,5.54-6.53a4.09,4.09,0,0,1,3.83,2.13h.05l.1-1.85ZM399.1,38.4a3.17,3.17,0,0,0-.13-1A3.22,3.22,0,0,0,395.85,35c-2.14,0-3.66,1.81-3.66,4.65,0,2.41,1.22,4.42,3.63,4.42a3.27,3.27,0,0,0,3.1-2.29,3.78,3.78,0,0,0,.18-1.19Z"/><path class="cls-3" d="M406.25,40.1c.06,3,2,4.27,4.22,4.27a8,8,0,0,0,3.4-.64l.38,1.6a9.85,9.85,0,0,1-4.09.76c-3.78,0-6-2.48-6-6.19s2.19-6.63,5.77-6.63c4,0,5.07,3.53,5.07,5.79a10,10,0,0,1-.07,1Zm6.56-1.6c0-1.42-.59-3.63-3.1-3.63-2.26,0-3.25,2.08-3.43,3.63Z"/><path class="cls-3" d="M423.62,38.15V39.8h-6.27V38.15Z"/><path class="cls-3" d="M426.13,45.84c.05-.84.11-2.08.11-3.17V27.81h2.2v7.72h.06a4.56,4.56,0,0,1,4.18-2.26c3.05,0,5.21,2.54,5.18,6.27,0,4.4-2.76,6.58-5.51,6.58a4.39,4.39,0,0,1-4.11-2.31h-.08l-.1,2Zm2.31-4.93a4.38,4.38,0,0,0,.11.82,3.43,3.43,0,0,0,3.35,2.61c2.33,0,3.73-1.9,3.73-4.72,0-2.46-1.27-4.57-3.66-4.57a3.56,3.56,0,0,0-3.4,2.74,4.52,4.52,0,0,0-.13.92Z"/><path class="cls-3" d="M447.49,45.84l-.18-1.55h-.08a4.55,4.55,0,0,1-3.76,1.83,3.5,3.5,0,0,1-3.75-3.53c0-3,2.64-4.6,7.38-4.57v-.25a2.53,2.53,0,0,0-2.79-2.85,6.14,6.14,0,0,0-3.2.92l-.51-1.48a7.65,7.65,0,0,1,4-1.09c3.76,0,4.67,2.57,4.67,5v4.59a16.55,16.55,0,0,0,.21,3Zm-.33-6.27c-2.44,0-5.21.38-5.21,2.77a2,2,0,0,0,2.11,2.13,3.06,3.06,0,0,0,3-2.06,2.53,2.53,0,0,0,.13-.71Z"/><path class="cls-3" d="M452.61,43.56a5.88,5.88,0,0,0,2.95.88c1.62,0,2.39-.81,2.39-1.82s-.64-1.65-2.29-2.26c-2.21-.79-3.25-2-3.25-3.48,0-2,1.6-3.61,4.24-3.61a6.19,6.19,0,0,1,3,.76l-.56,1.63A4.72,4.72,0,0,0,456.6,35c-1.32,0-2.06.76-2.06,1.67s.74,1.48,2.34,2.09c2.13.81,3.22,1.87,3.22,3.7,0,2.16-1.67,3.68-4.59,3.68a7.13,7.13,0,0,1-3.46-.83Z"/><path class="cls-3" d="M464.22,40.1c0,3,2,4.27,4.21,4.27a8,8,0,0,0,3.4-.64l.38,1.6a9.83,9.83,0,0,1-4.08.76c-3.79,0-6.05-2.48-6.05-6.19s2.19-6.63,5.77-6.63c4,0,5.07,3.53,5.07,5.79a10,10,0,0,1-.07,1Zm6.55-1.6c0-1.42-.59-3.63-3.1-3.63-2.26,0-3.25,2.08-3.43,3.63Z"/><path class="cls-3" d="M486.3,27.81V42.67c0,1.09,0,2.33.11,3.17h-2l-.1-2.13h-.05a4.56,4.56,0,0,1-4.19,2.41c-3,0-5.26-2.51-5.26-6.25,0-4.08,2.52-6.6,5.51-6.6A4.12,4.12,0,0,1,484,35.15h.05V27.81Zm-2.23,10.74a4.29,4.29,0,0,0-.1-.94A3.29,3.29,0,0,0,480.74,35c-2.31,0-3.68,2-3.68,4.75,0,2.49,1.22,4.55,3.63,4.55A3.36,3.36,0,0,0,484,41.65a4.16,4.16,0,0,0,.1-1Z"/><path class="cls-3" d="M506.51,39.59c0,4.55-3.14,6.53-6.12,6.53-3.32,0-5.89-2.44-5.89-6.32,0-4.12,2.7-6.53,6.1-6.53S506.51,35.84,506.51,39.59Zm-9.75.13c0,2.69,1.55,4.72,3.74,4.72s3.73-2,3.73-4.77c0-2.08-1-4.72-3.68-4.72S496.76,37.39,496.76,39.72Z"/><path class="cls-3" d="M509.23,45.84c0-.84.1-2.08.1-3.17V27.81h2.21v7.72h0a4.58,4.58,0,0,1,4.19-2.26c3.05,0,5.21,2.54,5.18,6.27,0,4.4-2.77,6.58-5.51,6.58a4.37,4.37,0,0,1-4.11-2.31h-.08l-.1,2Zm2.31-4.93a4.38,4.38,0,0,0,.1.82A3.44,3.44,0,0,0,515,44.34c2.34,0,3.74-1.9,3.74-4.72,0-2.46-1.27-4.57-3.66-4.57a3.56,3.56,0,0,0-3.4,2.74,4.52,4.52,0,0,0-.13.92Z"/><path class="cls-3" d="M520.78,49.39a3.61,3.61,0,0,0,2.44-.93c.61-.72.84-1.68.84-4.63V33.55h2.23V44.7c0,2.38-.38,3.93-1.47,5a5.68,5.68,0,0,1-3.81,1.4Zm5.76-19.29a1.31,1.31,0,0,1-1.39,1.37,1.33,1.33,0,0,1-1.37-1.37,1.37,1.37,0,0,1,1.42-1.4A1.32,1.32,0,0,1,526.54,30.1Z"/><path class="cls-3" d="M531.19,40.1c0,3,2,4.27,4.21,4.27a8,8,0,0,0,3.41-.64l.38,1.6a9.93,9.93,0,0,1-4.09.76c-3.78,0-6-2.48-6-6.19s2.18-6.63,5.76-6.63c4,0,5.08,3.53,5.08,5.79a7.43,7.43,0,0,1-.08,1Zm6.55-1.6c0-1.42-.58-3.63-3.1-3.63-2.26,0-3.25,2.08-3.43,3.63Z"/><path class="cls-3" d="M551.42,45.38a8.09,8.09,0,0,1-3.52.71c-3.71,0-6.12-2.51-6.12-6.27a6.24,6.24,0,0,1,6.6-6.52,7.57,7.57,0,0,1,3.1.63L551,35.66a5.13,5.13,0,0,0-2.59-.59c-2.82,0-4.34,2.09-4.34,4.65,0,2.84,1.82,4.6,4.26,4.6a6.31,6.31,0,0,0,2.74-.61Z"/><path class="cls-3" d="M557.06,30v3.53h3.2v1.7h-3.2v6.63c0,1.52.43,2.39,1.68,2.39a4.73,4.73,0,0,0,1.29-.16l.1,1.68a5.4,5.4,0,0,1-2,.3,3.09,3.09,0,0,1-2.41-.94,4.56,4.56,0,0,1-.86-3.19V35.25H553v-1.7h1.91V30.61Z"/><path class="cls-3" d="M578.77,27.81V42.67c0,1.09,0,2.33.1,3.17h-2l-.1-2.13h0a4.54,4.54,0,0,1-4.19,2.41c-3,0-5.25-2.51-5.25-6.25,0-4.08,2.51-6.6,5.51-6.6a4.11,4.11,0,0,1,3.7,1.88h0V27.81Zm-2.24,10.74a3.76,3.76,0,0,0-.1-.94A3.29,3.29,0,0,0,573.21,35c-2.31,0-3.68,2-3.68,4.75,0,2.49,1.21,4.55,3.63,4.55a3.35,3.35,0,0,0,3.27-2.67,3.68,3.68,0,0,0,.1-1Z"/><path class="cls-3" d="M583.72,40.1c0,3,2,4.27,4.21,4.27a8,8,0,0,0,3.4-.64l.39,1.6a9.93,9.93,0,0,1-4.09.76c-3.79,0-6-2.48-6-6.19s2.19-6.63,5.77-6.63c4,0,5.08,3.53,5.08,5.79a7.43,7.43,0,0,1-.08,1Zm6.55-1.6c0-1.42-.59-3.63-3.1-3.63-2.26,0-3.25,2.08-3.43,3.63Z"/><path class="cls-3" d="M597.88,30v3.53h3.2v1.7h-3.2v6.63c0,1.52.44,2.39,1.68,2.39a4.82,4.82,0,0,0,1.3-.16l.1,1.68a5.44,5.44,0,0,1-2,.3,3.12,3.12,0,0,1-2.42-.94A4.56,4.56,0,0,1,595.7,42V35.25h-1.9v-1.7h1.9V30.61Z"/><path class="cls-3" d="M604.69,40.1c0,3,2,4.27,4.21,4.27a8,8,0,0,0,3.41-.64l.38,1.6a9.93,9.93,0,0,1-4.09.76c-3.78,0-6-2.48-6-6.19s2.18-6.63,5.76-6.63c4,0,5.08,3.53,5.08,5.79a7.43,7.43,0,0,1-.08,1Zm6.55-1.6c0-1.42-.58-3.63-3.1-3.63-2.26,0-3.25,2.08-3.43,3.63Z"/><path class="cls-3" d="M624.92,45.38a8.14,8.14,0,0,1-3.53.71c-3.7,0-6.11-2.51-6.11-6.27a6.24,6.24,0,0,1,6.6-6.52,7.48,7.48,0,0,1,3.09.63l-.5,1.73a5.13,5.13,0,0,0-2.59-.59c-2.82,0-4.34,2.09-4.34,4.65,0,2.84,1.82,4.6,4.26,4.6a6.31,6.31,0,0,0,2.74-.61Z"/><path class="cls-3" d="M630.56,30v3.53h3.2v1.7h-3.2v6.63c0,1.52.43,2.39,1.67,2.39a4.76,4.76,0,0,0,1.3-.16l.1,1.68a5.44,5.44,0,0,1-2,.3,3.09,3.09,0,0,1-2.41-.94,4.51,4.51,0,0,1-.87-3.19V35.25h-1.9v-1.7h1.9V30.61Z"/><path class="cls-3" d="M638.76,30.1a1.39,1.39,0,0,1-2.77,0,1.37,1.37,0,0,1,1.4-1.4A1.33,1.33,0,0,1,638.76,30.1Zm-2.49,15.74V33.55h2.23V45.84Z"/><path class="cls-3" d="M653.33,39.59c0,4.55-3.15,6.53-6.12,6.53-3.32,0-5.89-2.44-5.89-6.32,0-4.12,2.69-6.53,6.1-6.53S653.33,35.84,653.33,39.59Zm-9.75.13c0,2.69,1.55,4.72,3.73,4.72s3.74-2,3.74-4.77c0-2.08-1-4.72-3.68-4.72S643.58,37.39,643.58,39.72Z"/><path class="cls-3" d="M656.15,36.88c0-1.27,0-2.31-.1-3.33h2l.13,2h.05a4.51,4.51,0,0,1,4.06-2.31c1.7,0,4.34,1,4.34,5.23v7.34h-2.23V38.76c0-2-.74-3.63-2.85-3.63a3.17,3.17,0,0,0-3,2.28,3,3,0,0,0-.16,1v7.39h-2.23Z"/><path class="cls-3" d="M274.64,85.61h-5.2V83.73h12.67v1.88h-5.23v15.23h-2.24Z"/><path class="cls-3" d="M283.38,95.1c.05,3,2,4.27,4.21,4.27a8,8,0,0,0,3.4-.64l.38,1.6a9.83,9.83,0,0,1-4.08.76c-3.79,0-6.05-2.48-6.05-6.19s2.19-6.63,5.77-6.63c4,0,5.08,3.53,5.08,5.79a7.43,7.43,0,0,1-.08,1Zm6.55-1.6c0-1.42-.59-3.63-3.1-3.63-2.26,0-3.25,2.08-3.43,3.63Z"/><path class="cls-3" d="M294.85,82.81h2.24v18h-2.24Z"/><path class="cls-3" d="M302.09,95.1c.05,3,2,4.27,4.21,4.27a8,8,0,0,0,3.41-.64l.38,1.6a9.93,9.93,0,0,1-4.09.76c-3.79,0-6-2.48-6-6.19s2.18-6.63,5.76-6.63c4,0,5.08,3.53,5.08,5.79a7.43,7.43,0,0,1-.08,1Zm6.55-1.6c0-1.42-.59-3.63-3.1-3.63-2.26,0-3.25,2.08-3.43,3.63Z"/><path class="cls-3" d="M313.56,91.88c0-1.27,0-2.31-.1-3.33h2l.1,2h.07a4.24,4.24,0,0,1,3.86-2.26,3.63,3.63,0,0,1,3.48,2.46H323a5.16,5.16,0,0,1,1.37-1.59,4.2,4.2,0,0,1,2.72-.87c1.63,0,4,1.07,4,5.33v7.24h-2.19v-7c0-2.36-.86-3.78-2.66-3.78a2.89,2.89,0,0,0-2.64,2,3.75,3.75,0,0,0-.18,1.12v7.59h-2.18V93.48c0-2-.87-3.38-2.57-3.38a3.07,3.07,0,0,0-2.77,2.23,3.29,3.29,0,0,0-.17,1.1v7.41h-2.19Z"/><path class="cls-3" d="M341.54,100.84l-.18-1.55h-.07a4.58,4.58,0,0,1-3.76,1.83,3.5,3.5,0,0,1-3.76-3.53c0-3,2.64-4.6,7.39-4.57v-.25a2.54,2.54,0,0,0-2.79-2.85,6.11,6.11,0,0,0-3.2.92l-.51-1.48a7.65,7.65,0,0,1,4-1.09c3.76,0,4.67,2.57,4.67,5v4.59a17.62,17.62,0,0,0,.2,3Zm-.33-6.27c-2.44,0-5.2.38-5.2,2.77a2,2,0,0,0,2.1,2.13,3.05,3.05,0,0,0,3-2.06,2.22,2.22,0,0,0,.13-.71Z"/><path class="cls-3" d="M349.56,85v3.53h3.2v1.7h-3.2v6.63c0,1.52.44,2.39,1.68,2.39a4.82,4.82,0,0,0,1.3-.16l.1,1.68a5.44,5.44,0,0,1-2,.3,3.12,3.12,0,0,1-2.42-.94,4.56,4.56,0,0,1-.86-3.19V90.25h-1.9v-1.7h1.9V85.61Z"/><path class="cls-3" d="M357.76,85.1a1.31,1.31,0,0,1-1.42,1.37A1.33,1.33,0,0,1,355,85.1a1.36,1.36,0,0,1,1.39-1.4A1.33,1.33,0,0,1,357.76,85.1Zm-2.48,15.74V88.55h2.23v12.29Z"/><path class="cls-3" d="M370,100.38a8.18,8.18,0,0,1-3.53.71c-3.71,0-6.12-2.51-6.12-6.27a6.24,6.24,0,0,1,6.6-6.52,7.57,7.57,0,0,1,3.1.63l-.51,1.73a5.1,5.1,0,0,0-2.59-.59c-2.82,0-4.34,2.09-4.34,4.65,0,2.84,1.83,4.6,4.26,4.6a6.39,6.39,0,0,0,2.75-.61Z"/><path class="cls-3" d="M372.29,98.56a5.84,5.84,0,0,0,2.94.88c1.63,0,2.39-.81,2.39-1.82S377,96,375.33,95.36c-2.21-.79-3.25-2-3.25-3.48,0-2,1.6-3.61,4.24-3.61a6.16,6.16,0,0,1,3,.76l-.55,1.63a4.79,4.79,0,0,0-2.52-.71c-1.32,0-2,.76-2,1.67s.73,1.48,2.33,2.09c2.13.81,3.23,1.87,3.23,3.7,0,2.16-1.68,3.68-4.6,3.68a7.06,7.06,0,0,1-3.45-.83Z"/><path class="cls-3" d="M394.83,100.84l-.18-1.55h-.07a4.58,4.58,0,0,1-3.76,1.83,3.5,3.5,0,0,1-3.76-3.53c0-3,2.64-4.6,7.39-4.57v-.25a2.54,2.54,0,0,0-2.79-2.85,6.09,6.09,0,0,0-3.2.92L388,89.36a7.65,7.65,0,0,1,4-1.09c3.76,0,4.67,2.57,4.67,5v4.59a17.62,17.62,0,0,0,.2,3Zm-.33-6.27c-2.44,0-5.2.38-5.2,2.77a2,2,0,0,0,2.1,2.13,3.05,3.05,0,0,0,3-2.06,2.22,2.22,0,0,0,.13-.71Z"/><path class="cls-3" d="M400.26,91.88c0-1.27,0-2.31-.1-3.33h2l.13,2h.05a4.51,4.51,0,0,1,4.06-2.31c1.7,0,4.34,1,4.34,5.23v7.34h-2.23V93.76c0-2-.74-3.63-2.84-3.63a3.17,3.17,0,0,0-3,2.28,3.26,3.26,0,0,0-.15,1v7.39h-2.24Z"/><path class="cls-3" d="M425,82.81V97.67c0,1.09,0,2.33.1,3.17h-2l-.1-2.13h0a4.54,4.54,0,0,1-4.19,2.41c-3,0-5.25-2.51-5.25-6.25,0-4.08,2.51-6.6,5.51-6.6a4.11,4.11,0,0,1,3.7,1.88h.05V82.81Zm-2.24,10.74a3.76,3.76,0,0,0-.1-.94A3.29,3.29,0,0,0,419.41,90c-2.31,0-3.68,2-3.68,4.75,0,2.49,1.21,4.55,3.63,4.55a3.35,3.35,0,0,0,3.27-2.67,3.68,3.68,0,0,0,.1-1Z"/><path class="cls-3" d="M435.3,95.1c.05,3,2,4.27,4.21,4.27a8,8,0,0,0,3.41-.64l.38,1.6a9.93,9.93,0,0,1-4.09.76c-3.78,0-6-2.48-6-6.19s2.18-6.63,5.76-6.63c4,0,5.08,3.53,5.08,5.79a7.43,7.43,0,0,1-.08,1Zm6.55-1.6c0-1.42-.58-3.63-3.1-3.63-2.26,0-3.25,2.08-3.42,3.63Z"/><path class="cls-3" d="M446.78,91.88c0-1.27,0-2.31-.11-3.33h2l.13,2h.05a4.51,4.51,0,0,1,4.06-2.31c1.71,0,4.35,1,4.35,5.23v7.34H455V93.76c0-2-.73-3.63-2.84-3.63a3.18,3.18,0,0,0-3,2.28,3.26,3.26,0,0,0-.15,1v7.39h-2.23Z"/><path class="cls-3" d="M461.4,88.55l2.41,6.91a28.92,28.92,0,0,1,1,3.15h.08c.28-1,.63-2,1-3.15l2.39-6.91h2.33l-4.82,12.29h-2.13L459,88.55Z"/><path class="cls-3" d="M475.24,85.1a1.39,1.39,0,0,1-2.77,0,1.36,1.36,0,0,1,1.4-1.4A1.33,1.33,0,0,1,475.24,85.1Zm-2.49,15.74V88.55H475v12.29Z"/><path class="cls-3" d="M478.69,92.39c0-1.45,0-2.7-.1-3.84h2l.08,2.41h.1a3.68,3.68,0,0,1,3.4-2.69,2.49,2.49,0,0,1,.64.08v2.11a2.91,2.91,0,0,0-.76-.08,3.13,3.13,0,0,0-3,2.87,6.33,6.33,0,0,0-.1,1v6.55h-2.21Z"/><path class="cls-3" d="M497.86,94.59c0,4.55-3.15,6.53-6.12,6.53-3.33,0-5.89-2.44-5.89-6.32,0-4.12,2.69-6.53,6.09-6.53S497.86,90.84,497.86,94.59Zm-9.75.13c0,2.69,1.55,4.72,3.73,4.72s3.73-2,3.73-4.77c0-2.08-1-4.72-3.68-4.72S488.11,92.39,488.11,94.72Z"/><path class="cls-3" d="M500.68,91.88c0-1.27,0-2.31-.11-3.33h2l.13,2h.05a4.51,4.51,0,0,1,4.06-2.31c1.71,0,4.35,1,4.35,5.23v7.34H508.9V93.76c0-2-.73-3.63-2.84-3.63a3.18,3.18,0,0,0-3,2.28,3.26,3.26,0,0,0-.15,1v7.39h-2.23Z"/><path class="cls-3" d="M514.77,91.88c0-1.27,0-2.31-.11-3.33h2l.1,2h.08a4.23,4.23,0,0,1,3.86-2.26,3.65,3.65,0,0,1,3.48,2.46h.05a5,5,0,0,1,1.37-1.59,4.17,4.17,0,0,1,2.71-.87c1.63,0,4,1.07,4,5.33v7.24h-2.18v-7c0-2.36-.87-3.78-2.67-3.78a2.89,2.89,0,0,0-2.64,2,3.75,3.75,0,0,0-.18,1.12v7.59h-2.18V93.48c0-2-.86-3.38-2.56-3.38A3.33,3.33,0,0,0,517,93.43v7.41h-2.18Z"/><path class="cls-3" d="M537.18,95.1c.06,3,2,4.27,4.22,4.27a8,8,0,0,0,3.4-.64l.38,1.6a9.85,9.85,0,0,1-4.09.76c-3.78,0-6-2.48-6-6.19s2.19-6.63,5.77-6.63c4,0,5.07,3.53,5.07,5.79a10,10,0,0,1-.07,1Zm6.56-1.6c0-1.42-.59-3.63-3.1-3.63-2.26,0-3.25,2.08-3.43,3.63Z"/><path class="cls-3" d="M548.66,91.88c0-1.27,0-2.31-.1-3.33h2l.13,2h.05a4.51,4.51,0,0,1,4.06-2.31c1.7,0,4.34,1,4.34,5.23v7.34h-2.23V93.76c0-2-.74-3.63-2.85-3.63a3.17,3.17,0,0,0-3,2.28,3.25,3.25,0,0,0-.16,1v7.39h-2.23Z"/><path class="cls-3" d="M565.34,85v3.53h3.2v1.7h-3.2v6.63c0,1.52.43,2.39,1.68,2.39a4.73,4.73,0,0,0,1.29-.16l.1,1.68a5.4,5.4,0,0,1-2,.3,3.09,3.09,0,0,1-2.41-.94,4.56,4.56,0,0,1-.86-3.19V90.25h-1.91v-1.7h1.91V85.61Z"/><path class="cls-3" d="M583.24,100.84l-.18-1.55H583a4.58,4.58,0,0,1-3.76,1.83,3.5,3.5,0,0,1-3.76-3.53c0-3,2.64-4.6,7.39-4.57v-.25a2.54,2.54,0,0,0-2.79-2.85,6.09,6.09,0,0,0-3.2.92l-.51-1.48a7.62,7.62,0,0,1,4-1.09c3.75,0,4.67,2.57,4.67,5v4.59a17.62,17.62,0,0,0,.2,3Zm-.33-6.27c-2.44,0-5.21.38-5.21,2.77a2,2,0,0,0,2.11,2.13,3.05,3.05,0,0,0,3-2.06,2.22,2.22,0,0,0,.13-.71Z"/><path class="cls-3" d="M589.36,88.55,591,94.8c.36,1.37.69,2.64.92,3.91H592c.28-1.25.69-2.57,1.09-3.89l2-6.27H597l1.9,6.15c.46,1.47.82,2.76,1.1,4H600a35.29,35.29,0,0,1,.94-4l1.75-6.17h2.21l-4,12.29h-2L597.05,95a39.71,39.71,0,0,1-1.09-4h-.05A38,38,0,0,1,594.79,95l-2,5.84h-2l-3.71-12.29Z"/><path class="cls-3" d="M613.86,100.84l-.18-1.55h-.08a4.54,4.54,0,0,1-3.75,1.83,3.5,3.5,0,0,1-3.76-3.53c0-3,2.64-4.6,7.39-4.57v-.25a2.54,2.54,0,0,0-2.8-2.85,6.14,6.14,0,0,0-3.2.92l-.5-1.48a7.58,7.58,0,0,1,4-1.09c3.76,0,4.68,2.57,4.68,5v4.59a17.62,17.62,0,0,0,.2,3Zm-.33-6.27c-2.44,0-5.21.38-5.21,2.77a2,2,0,0,0,2.11,2.13,3.06,3.06,0,0,0,3-2.06,2.22,2.22,0,0,0,.13-.71Z"/><path class="cls-3" d="M619.29,92.39c0-1.45,0-2.7-.1-3.84h1.95l.08,2.41h.1a3.69,3.69,0,0,1,3.4-2.69,2.43,2.43,0,0,1,.64.08v2.11a2.91,2.91,0,0,0-.76-.08,3.13,3.13,0,0,0-3,2.87,6.33,6.33,0,0,0-.1,1v6.55h-2.21Z"/><path class="cls-3" d="M628.58,95.1c0,3,2,4.27,4.22,4.27a8,8,0,0,0,3.4-.64l.38,1.6a9.89,9.89,0,0,1-4.09.76c-3.78,0-6-2.48-6-6.19s2.18-6.63,5.76-6.63c4,0,5.08,3.53,5.08,5.79a7.43,7.43,0,0,1-.08,1Zm6.55-1.6c0-1.42-.58-3.63-3.09-3.63-2.26,0-3.25,2.08-3.43,3.63Z"/><path class="cls-3" d="M640.06,91.88c0-1.27,0-2.31-.1-3.33h2l.12,2h.05a4.53,4.53,0,0,1,4.07-2.31c1.7,0,4.34,1,4.34,5.23v7.34h-2.24V93.76c0-2-.73-3.63-2.84-3.63a3.19,3.19,0,0,0-3,2.28,3.26,3.26,0,0,0-.15,1v7.39h-2.23Z"/><path class="cls-3" d="M655.39,95.1c.05,3,2,4.27,4.22,4.27a8,8,0,0,0,3.4-.64l.38,1.6a9.89,9.89,0,0,1-4.09.76c-3.78,0-6-2.48-6-6.19s2.18-6.63,5.76-6.63c4,0,5.08,3.53,5.08,5.79a10,10,0,0,1-.07,1Zm6.55-1.6c0-1.42-.58-3.63-3.09-3.63-2.26,0-3.25,2.08-3.43,3.63Z"/><path class="cls-3" d="M666.56,98.56a5.88,5.88,0,0,0,3,.88c1.62,0,2.39-.81,2.39-1.82s-.64-1.65-2.29-2.26c-2.21-.79-3.25-2-3.25-3.48,0-2,1.6-3.61,4.24-3.61a6.19,6.19,0,0,1,3,.76l-.56,1.63a4.72,4.72,0,0,0-2.51-.71c-1.32,0-2.06.76-2.06,1.67s.74,1.48,2.34,2.09c2.13.81,3.22,1.87,3.22,3.7,0,2.16-1.67,3.68-4.59,3.68a7.13,7.13,0,0,1-3.46-.83Z"/><path class="cls-3" d="M676.62,98.56a5.87,5.87,0,0,0,2.94.88c1.63,0,2.39-.81,2.39-1.82s-.64-1.65-2.29-2.26c-2.2-.79-3.25-2-3.25-3.48,0-2,1.6-3.61,4.24-3.61a6.23,6.23,0,0,1,3,.76l-.56,1.63A4.76,4.76,0,0,0,680.6,90c-1.32,0-2.05.76-2.05,1.67s.73,1.48,2.33,2.09c2.14.81,3.23,1.87,3.23,3.7,0,2.16-1.68,3.68-4.6,3.68a7.09,7.09,0,0,1-3.45-.83Z"/><path class="cls-3" d="M271.09,153.15a7.83,7.83,0,0,0,4,1.12c2.26,0,3.58-1.2,3.58-2.92s-.91-2.52-3.22-3.41c-2.8-1-4.52-2.43-4.52-4.85,0-2.66,2.2-4.64,5.53-4.64a7.66,7.66,0,0,1,3.78.84l-.61,1.8a6.72,6.72,0,0,0-3.25-.81c-2.33,0-3.22,1.39-3.22,2.56,0,1.6,1,2.39,3.4,3.3,2.9,1.12,4.37,2.51,4.37,5s-2,4.92-6,4.92a8.84,8.84,0,0,1-4.37-1.09Z"/><path class="cls-3" d="M285.23,150.1c0,3,2,4.27,4.22,4.27a8,8,0,0,0,3.4-.64l.38,1.6a9.89,9.89,0,0,1-4.09.76c-3.78,0-6-2.48-6-6.19s2.18-6.63,5.76-6.63c4,0,5.08,3.53,5.08,5.79a7.43,7.43,0,0,1-.08,1Zm6.55-1.6c0-1.42-.58-3.63-3.1-3.63-2.26,0-3.25,2.08-3.42,3.63Z"/><path class="cls-3" d="M296.71,146.88c0-1.27,0-2.31-.11-3.33h2l.13,2h.05a4.52,4.52,0,0,1,4.07-2.31c1.7,0,4.34,1,4.34,5.23v7.34h-2.24v-7.08c0-2-.73-3.63-2.84-3.63a3.18,3.18,0,0,0-3,2.28,3.26,3.26,0,0,0-.15,1v7.39h-2.23Z"/><path class="cls-3" d="M310.49,153.56a5.88,5.88,0,0,0,2.95.88c1.62,0,2.38-.81,2.38-1.82s-.63-1.65-2.28-2.26c-2.21-.79-3.25-2-3.25-3.48,0-2,1.6-3.61,4.24-3.61a6.19,6.19,0,0,1,3,.76l-.56,1.63a4.72,4.72,0,0,0-2.51-.71c-1.32,0-2.06.76-2.06,1.67s.74,1.48,2.34,2.09c2.13.81,3.22,1.87,3.22,3.7,0,2.16-1.67,3.68-4.59,3.68a7.13,7.13,0,0,1-3.46-.83Z"/><path class="cls-3" d="M332,149.59c0,4.55-3.15,6.53-6.12,6.53-3.32,0-5.89-2.44-5.89-6.32,0-4.12,2.69-6.53,6.1-6.53S332,145.84,332,149.59Zm-9.75.13c0,2.69,1.55,4.72,3.73,4.72s3.74-2,3.74-4.77c0-2.08-1-4.72-3.69-4.72S322.22,147.39,322.22,149.72Z"/><path class="cls-3" d="M334.79,147.39c0-1.45,0-2.7-.1-3.84h1.95l.08,2.41h.1a3.68,3.68,0,0,1,3.4-2.69,2.49,2.49,0,0,1,.64.08v2.11a2.91,2.91,0,0,0-.76-.08,3.13,3.13,0,0,0-3,2.87,6.33,6.33,0,0,0-.1,1v6.55h-2.21Z"/><path class="cls-3" d="M359.09,137.81v14.86c0,1.09,0,2.33.1,3.17h-2l-.1-2.13H357a4.55,4.55,0,0,1-4.19,2.41c-3,0-5.26-2.51-5.26-6.25,0-4.08,2.52-6.6,5.51-6.6a4.12,4.12,0,0,1,3.71,1.88h.05v-7.34Zm-2.24,10.74a3.76,3.76,0,0,0-.1-.94,3.29,3.29,0,0,0-3.22-2.59c-2.32,0-3.69,2-3.69,4.75,0,2.49,1.22,4.55,3.63,4.55a3.36,3.36,0,0,0,3.28-2.67,3.68,3.68,0,0,0,.1-1Z"/><path class="cls-3" d="M369.6,155.84l-.18-1.55h-.08a4.55,4.55,0,0,1-3.76,1.83,3.5,3.5,0,0,1-3.75-3.53c0-3,2.64-4.6,7.39-4.57v-.25a2.54,2.54,0,0,0-2.8-2.85,6.14,6.14,0,0,0-3.2.92l-.5-1.48a7.58,7.58,0,0,1,4-1.09c3.76,0,4.67,2.57,4.67,5v4.59a17.55,17.55,0,0,0,.21,3Zm-.33-6.27c-2.44,0-5.21.38-5.21,2.77a2,2,0,0,0,2.11,2.13,3.06,3.06,0,0,0,3-2.06,2.22,2.22,0,0,0,.13-.71Z"/><path class="cls-3" d="M377.62,140v3.53h3.2v1.7h-3.2v6.63c0,1.52.43,2.39,1.67,2.39a4.76,4.76,0,0,0,1.3-.16l.1,1.68a5.44,5.44,0,0,1-2,.3,3.09,3.09,0,0,1-2.41-.94,4.51,4.51,0,0,1-.86-3.19v-6.71h-1.91v-1.7h1.91v-2.94Z"/><path class="cls-3" d="M390.14,155.84l-.18-1.55h-.08a4.55,4.55,0,0,1-3.76,1.83,3.5,3.5,0,0,1-3.75-3.53c0-3,2.64-4.6,7.38-4.57v-.25a2.53,2.53,0,0,0-2.79-2.85,6.14,6.14,0,0,0-3.2.92l-.51-1.48a7.65,7.65,0,0,1,4-1.09c3.76,0,4.67,2.57,4.67,5v4.59a16.55,16.55,0,0,0,.21,3Zm-.33-6.27c-2.44,0-5.21.38-5.21,2.77a2,2,0,0,0,2.11,2.13,3.06,3.06,0,0,0,3-2.06,2.53,2.53,0,0,0,.13-.71Z"/><path class="cls-3" d="M403.44,140.1a1.39,1.39,0,0,1-2.77,0,1.36,1.36,0,0,1,1.4-1.4A1.33,1.33,0,0,1,403.44,140.1ZM401,155.84V143.55h2.23v12.29Z"/><path class="cls-3" d="M406.89,146.88c0-1.27,0-2.31-.1-3.33h2l.13,2H409a4.51,4.51,0,0,1,4.06-2.31c1.7,0,4.34,1,4.34,5.23v7.34h-2.23v-7.08c0-2-.74-3.63-2.85-3.63a3.17,3.17,0,0,0-3,2.28,3.25,3.25,0,0,0-.16,1v7.39h-2.23Z"/><path class="cls-3" d="M423.57,140v3.53h3.2v1.7h-3.2v6.63c0,1.52.43,2.39,1.68,2.39a4.73,4.73,0,0,0,1.29-.16l.1,1.68a5.4,5.4,0,0,1-2,.3,3.09,3.09,0,0,1-2.41-.94,4.56,4.56,0,0,1-.86-3.19v-6.71h-1.91v-1.7h1.91v-2.94Z"/><path class="cls-3" d="M430.37,150.1c.06,3,2,4.27,4.22,4.27a8,8,0,0,0,3.4-.64l.38,1.6a9.83,9.83,0,0,1-4.08.76c-3.79,0-6.05-2.48-6.05-6.19s2.19-6.63,5.77-6.63c4,0,5.07,3.53,5.07,5.79a10,10,0,0,1-.07,1Zm6.56-1.6c0-1.42-.59-3.63-3.1-3.63-2.26,0-3.25,2.08-3.43,3.63Z"/><path class="cls-3" d="M452.44,143.55c-.05.89-.1,1.88-.1,3.38v7.13c0,2.82-.56,4.55-1.76,5.61a6.49,6.49,0,0,1-4.46,1.48,7.92,7.92,0,0,1-4.09-1l.56-1.7a6.89,6.89,0,0,0,3.6,1c2.29,0,4-1.19,4-4.29v-1.37h0a4.36,4.36,0,0,1-3.91,2.06c-3,0-5.23-2.59-5.23-6,0-4.17,2.72-6.53,5.54-6.53a4.09,4.09,0,0,1,3.83,2.13h.05l.1-1.85Zm-2.31,4.85a3.17,3.17,0,0,0-.13-1,3.22,3.22,0,0,0-3.12-2.37c-2.13,0-3.66,1.81-3.66,4.65,0,2.41,1.22,4.42,3.63,4.42a3.27,3.27,0,0,0,3.1-2.29,3.78,3.78,0,0,0,.18-1.19Z"/><path class="cls-3" d="M455.89,147.39c0-1.45,0-2.7-.1-3.84h1.95l.08,2.41h.1a3.69,3.69,0,0,1,3.4-2.69,2.49,2.49,0,0,1,.64.08v2.11a2.91,2.91,0,0,0-.76-.08,3.13,3.13,0,0,0-3,2.87,6.33,6.33,0,0,0-.1,1v6.55h-2.21Z"/><path class="cls-3" d="M470.87,155.84l-.18-1.55h-.07a4.58,4.58,0,0,1-3.76,1.83,3.5,3.5,0,0,1-3.76-3.53c0-3,2.64-4.6,7.39-4.57v-.25a2.54,2.54,0,0,0-2.79-2.85,6.09,6.09,0,0,0-3.2.92l-.51-1.48a7.62,7.62,0,0,1,4-1.09c3.75,0,4.67,2.57,4.67,5v4.59a17.62,17.62,0,0,0,.2,3Zm-.33-6.27c-2.44,0-5.21.38-5.21,2.77a2,2,0,0,0,2.11,2.13,3.05,3.05,0,0,0,3-2.06,2.22,2.22,0,0,0,.13-.71Z"/><path class="cls-3" d="M478.89,140v3.53h3.2v1.7h-3.2v6.63c0,1.52.43,2.39,1.68,2.39a4.73,4.73,0,0,0,1.29-.16l.1,1.68a5.4,5.4,0,0,1-2,.3,3.1,3.1,0,0,1-2.41-.94,4.56,4.56,0,0,1-.86-3.19v-6.71H474.8v-1.7h1.91v-2.94Z"/><path class="cls-3" d="M487.09,140.1a1.38,1.38,0,0,1-2.76,0,1.36,1.36,0,0,1,1.39-1.4A1.33,1.33,0,0,1,487.09,140.1Zm-2.49,15.74V143.55h2.24v12.29Z"/><path class="cls-3" d="M501.67,149.59c0,4.55-3.15,6.53-6.12,6.53-3.33,0-5.89-2.44-5.89-6.32,0-4.12,2.69-6.53,6.09-6.53S501.67,145.84,501.67,149.59Zm-9.75.13c0,2.69,1.54,4.72,3.73,4.72s3.73-2,3.73-4.77c0-2.08-1-4.72-3.68-4.72S491.92,147.39,491.92,149.72Z"/><path class="cls-3" d="M504.48,146.88c0-1.27,0-2.31-.1-3.33h2l.13,2h.05a4.51,4.51,0,0,1,4.06-2.31c1.7,0,4.34,1,4.34,5.23v7.34h-2.23v-7.08c0-2-.74-3.63-2.84-3.63a3.17,3.17,0,0,0-3,2.28,3.26,3.26,0,0,0-.15,1v7.39h-2.24Z"/><circle class="cls-4" cx="246.36" cy="39" r="4.5"/><circle class="cls-4" cx="246.37" cy="91.97" r="4.5"/><circle class="cls-4" cx="246.39" cy="146.93" r="4.5"/><circle class="cls-4" cx="246.36" cy="225" r="4.5"/><circle class="cls-4" cx="246.37" cy="280.97" r="4.5"/><circle class="cls-4" cx="246.39" cy="336.93" r="4.5"/><circle class="cls-4" cx="246.36" cy="420" r="4.5"/><circle class="cls-4" cx="246.37" cy="501.97" r="4.5"/><circle class="cls-4" cx="246.39" cy="580.93" r="4.5"/><path class="cls-3" d="M65.11,300.2a42.74,42.74,0,0,1,6.64-.47c4.26,0,7.21.88,9.3,2.64s3.56,4.5,3.56,8.39c0,4.07-1.39,7.11-3.56,9.07S75.16,323,70.73,323a45.18,45.18,0,0,1-5.62-.31Zm4.17,19.33a15.66,15.66,0,0,0,2.3.1c5.41,0,8.63-2.94,8.63-8.73,0-5-2.88-7.92-8.09-7.92a12.9,12.9,0,0,0-2.84.24Z"/><path class="cls-3" d="M88.16,311.54c0-2.23,0-3.82-.13-5.31h3.62l.14,3.15h.13a4.91,4.91,0,0,1,4.5-3.52,4.16,4.16,0,0,1,1,.1v3.92a6.3,6.3,0,0,0-1.21-.13,3.68,3.68,0,0,0-3.73,3.15,7.9,7.9,0,0,0-.13,1.28v8.53H88.16Z"/><path class="cls-3" d="M104.65,301.63a2.34,2.34,0,1,1-2.34-2.27A2.2,2.2,0,0,1,104.65,301.63Zm-4.43,21.08V306.23h4.19v16.48Z"/><path class="cls-3" d="M111.52,306.23l2.68,8.36c.47,1.45.81,2.77,1.11,4.13h.1c.31-1.36.68-2.64,1.12-4.13l2.61-8.36h4.4l-6.3,16.48h-4.09L107,306.23Z"/><path class="cls-3" d="M130.51,301.63a2.34,2.34,0,0,1-4.67,0,2.34,2.34,0,0,1,4.67,0Zm-4.43,21.08V306.23h4.2v16.48Z"/><path class="cls-3" d="M134.74,311.14c0-1.9,0-3.49-.13-4.91h3.65l.21,2.47h.1a5.92,5.92,0,0,1,5.24-2.84c2.88,0,5.86,1.86,5.86,7.07v9.78h-4.16V313.4c0-2.37-.88-4.16-3.15-4.16a3.5,3.5,0,0,0-3.25,2.44,4.1,4.1,0,0,0-.17,1.35v9.68h-4.2Z"/><path class="cls-3" d="M169.17,306.23c-.07,1.12-.14,2.47-.14,4.74v9.34c0,3.45-.71,5.92-2.44,7.48a9.47,9.47,0,0,1-6.36,2,11.64,11.64,0,0,1-5.75-1.32l.91-3.14a10,10,0,0,0,4.81,1.25c2.71,0,4.74-1.42,4.74-5v-1.42h-.07a5.56,5.56,0,0,1-4.81,2.44c-4.09,0-7-3.38-7-8.05,0-5.42,3.52-8.7,7.48-8.7a5.2,5.2,0,0,1,4.77,2.57h.07l.17-2.2Zm-4.3,6.6a4.14,4.14,0,0,0-.14-1.12,3.45,3.45,0,0,0-3.38-2.67c-2.34,0-4.06,2-4.06,5.38,0,2.81,1.42,5.08,4,5.08A3.56,3.56,0,0,0,164.7,317a7.23,7.23,0,0,0,.17-1.49Z"/><path class="cls-3" d="M41.62,349.49c.1,3,2.44,4.26,5.08,4.26a12.45,12.45,0,0,0,4.56-.74l.61,2.88a15.61,15.61,0,0,1-5.75,1c-5.35,0-8.49-3.28-8.49-8.32,0-4.57,2.77-8.87,8-8.87s7.11,4.4,7.11,8a9.88,9.88,0,0,1-.14,1.76Zm7.24-2.91c0-1.52-.64-4-3.42-4-2.57,0-3.65,2.34-3.82,4Z"/><path class="cls-3" d="M58.65,340.08l2,3.11c.54.88,1,1.7,1.49,2.54h.1c.47-.91.95-1.76,1.42-2.6l1.83-3.05H70L64.47,348l5.62,8.56H65.38l-2-3.28c-.54-.88-1-1.76-1.49-2.67h-.07c-.47.94-.94,1.76-1.49,2.67l-1.89,3.28h-4.6l5.72-8.39L54,340.08Z"/><path class="cls-3" d="M72.59,345.56c0-2.16-.06-3.92-.13-5.48h3.65l.21,2.54h.06A6.43,6.43,0,0,1,82,339.71c3.79,0,6.93,3.25,6.93,8.39,0,6-3.75,8.83-7.51,8.83a5.43,5.43,0,0,1-4.64-2.2h-.06v8.53H72.59Zm4.17,4.1a4.36,4.36,0,0,0,.13,1.15,3.77,3.77,0,0,0,3.66,2.91c2.64,0,4.19-2.2,4.19-5.45,0-2.91-1.42-5.28-4.09-5.28a3.88,3.88,0,0,0-3.73,3.08,3.82,3.82,0,0,0-.16,1.05Z"/><path class="cls-3" d="M95.34,349.49c.1,3,2.44,4.26,5.08,4.26A12.51,12.51,0,0,0,105,353l.6,2.88a15.61,15.61,0,0,1-5.75,1c-5.35,0-8.49-3.28-8.49-8.32,0-4.57,2.77-8.87,8.05-8.87s7.11,4.4,7.11,8a9.88,9.88,0,0,1-.14,1.76Zm7.24-2.91c0-1.52-.64-4-3.42-4-2.57,0-3.65,2.34-3.82,4Z"/><path class="cls-3" d="M109.86,345.39c0-2.23,0-3.82-.13-5.31h3.62l.14,3.15h.13a4.91,4.91,0,0,1,4.5-3.52,4.22,4.22,0,0,1,1,.1v3.93a5.62,5.62,0,0,0-1.22-.14,3.67,3.67,0,0,0-3.72,3.15A6.91,6.91,0,0,0,114,348v8.53h-4.17Z"/><path class="cls-3" d="M126.35,335.48a2.21,2.21,0,0,1-2.37,2.23,2.18,2.18,0,0,1-2.3-2.23,2.34,2.34,0,0,1,4.67,0Zm-4.44,21.08V340.08h4.2v16.48Z"/><path class="cls-3" d="M133.52,349.49c.1,3,2.44,4.26,5.08,4.26a12.47,12.47,0,0,0,4.57-.74l.61,2.88a15.65,15.65,0,0,1-5.75,1c-5.35,0-8.5-3.28-8.5-8.32,0-4.57,2.78-8.87,8.05-8.87s7.11,4.4,7.11,8a11.21,11.21,0,0,1-.13,1.76Zm7.25-2.91c0-1.52-.65-4-3.42-4-2.57,0-3.66,2.34-3.83,4Z"/><path class="cls-3" d="M148.05,345c0-1.9,0-3.49-.14-4.91h3.66l.2,2.47h.1a5.93,5.93,0,0,1,5.25-2.84c2.87,0,5.85,1.86,5.85,7.07v9.78h-4.16v-9.3c0-2.37-.88-4.17-3.15-4.17a3.5,3.5,0,0,0-3.25,2.44,4.38,4.38,0,0,0-.17,1.35v9.68h-4.19Z"/><path class="cls-3" d="M179.53,356.05a12,12,0,0,1-4.67.85c-5.15,0-8.5-3.28-8.5-8.39,0-4.94,3.39-8.8,9.17-8.8a10.42,10.42,0,0,1,4,.78l-.75,3.11a7.34,7.34,0,0,0-3.14-.64c-3.18,0-5.08,2.33-5,5.34,0,3.39,2.2,5.32,5,5.32A8.1,8.1,0,0,0,179,353Z"/><path class="cls-3" d="M185.25,349.49c.1,3,2.44,4.26,5.08,4.26a12.45,12.45,0,0,0,4.56-.74l.61,2.88a15.61,15.61,0,0,1-5.75,1c-5.35,0-8.5-3.28-8.5-8.32,0-4.57,2.78-8.87,8.06-8.87s7.11,4.4,7.11,8a9.88,9.88,0,0,1-.14,1.76Zm7.24-2.91c0-1.52-.64-4-3.42-4-2.57,0-3.65,2.34-3.82,4Z"/><path class="cls-3" d="M283.35,234.28a10.91,10.91,0,0,1-4.52.81c-4.82,0-8.45-3-8.45-8.65,0-5.36,3.63-9,8.94-9a9.12,9.12,0,0,1,4.06.76l-.54,1.8a8.1,8.1,0,0,0-3.45-.71c-4,0-6.68,2.57-6.68,7.06,0,4.19,2.42,6.88,6.58,6.88a8.88,8.88,0,0,0,3.61-.71Z"/><path class="cls-3" d="M296.88,228.59c0,4.55-3.14,6.53-6.12,6.53-3.32,0-5.89-2.44-5.89-6.32,0-4.12,2.7-6.53,6.1-6.53S296.88,224.84,296.88,228.59Zm-9.75.13c0,2.69,1.55,4.72,3.74,4.72s3.73-2,3.73-4.77c0-2.08-1-4.72-3.68-4.72S287.13,226.39,287.13,228.72Z"/><path class="cls-3" d="M299.7,216.81h2.24v18H299.7Z"/><path class="cls-3" d="M305.69,216.81h2.24v18h-2.24Z"/><path class="cls-3" d="M314.17,219.1a1.31,1.31,0,0,1-1.42,1.37,1.33,1.33,0,0,1-1.35-1.37,1.37,1.37,0,0,1,1.4-1.4A1.33,1.33,0,0,1,314.17,219.1Zm-2.49,15.74V222.55h2.24v12.29Z"/><path class="cls-3" d="M317.32,232.56a5.87,5.87,0,0,0,2.94.88c1.63,0,2.39-.81,2.39-1.82s-.63-1.65-2.28-2.26c-2.21-.79-3.25-2-3.25-3.48,0-2,1.6-3.61,4.24-3.61a6.22,6.22,0,0,1,3,.76l-.56,1.63a4.72,4.72,0,0,0-2.51-.71c-1.32,0-2.06.76-2.06,1.67s.74,1.48,2.33,2.09c2.14.81,3.23,1.87,3.23,3.7,0,2.16-1.68,3.68-4.6,3.68a7.09,7.09,0,0,1-3.45-.83Z"/><path class="cls-3" d="M330.17,219.1a1.39,1.39,0,0,1-2.77,0,1.36,1.36,0,0,1,1.39-1.4A1.33,1.33,0,0,1,330.17,219.1Zm-2.49,15.74V222.55h2.23v12.29Z"/><path class="cls-3" d="M344.74,228.59c0,4.55-3.15,6.53-6.12,6.53-3.33,0-5.89-2.44-5.89-6.32,0-4.12,2.69-6.53,6.09-6.53S344.74,224.84,344.74,228.59Zm-9.75.13c0,2.69,1.55,4.72,3.73,4.72s3.73-2,3.73-4.77c0-2.08-1-4.72-3.68-4.72S335,226.39,335,228.72Z"/><path class="cls-3" d="M347.56,225.88c0-1.27,0-2.31-.1-3.33h2l.12,2h.05a4.52,4.52,0,0,1,4.07-2.31c1.7,0,4.34,1,4.34,5.23v7.34h-2.24v-7.08c0-2-.73-3.63-2.84-3.63a3.18,3.18,0,0,0-3,2.28,3.26,3.26,0,0,0-.15,1v7.39h-2.23Z"/><path class="cls-3" d="M367.92,222.55l1.62,6.25c.36,1.37.69,2.64.92,3.91h.07c.28-1.25.69-2.57,1.09-3.89l2-6.27h1.88l1.9,6.15c.46,1.47.82,2.76,1.1,4h.07a40.22,40.22,0,0,1,.94-4l1.75-6.17h2.21l-4,12.29h-2L375.61,229a39.71,39.71,0,0,1-1.09-4h0a38,38,0,0,1-1.12,4.06l-2,5.84h-2l-3.71-12.29Z"/><path class="cls-3" d="M392.42,234.84l-.18-1.55h-.08a4.54,4.54,0,0,1-3.75,1.83,3.5,3.5,0,0,1-3.76-3.53c0-3,2.64-4.6,7.39-4.57v-.25a2.54,2.54,0,0,0-2.8-2.85,6.14,6.14,0,0,0-3.2.92l-.5-1.48a7.61,7.61,0,0,1,4-1.09c3.76,0,4.68,2.57,4.68,5v4.59a17.62,17.62,0,0,0,.2,3Zm-.33-6.27c-2.44,0-5.21.38-5.21,2.77a2,2,0,0,0,2.11,2.13,3.05,3.05,0,0,0,3-2.06,2.22,2.22,0,0,0,.13-.71Z"/><path class="cls-3" d="M397.85,226.39c0-1.45,0-2.7-.1-3.84h1.95l.08,2.41h.1a3.69,3.69,0,0,1,3.4-2.69,2.43,2.43,0,0,1,.64.08v2.11a2.91,2.91,0,0,0-.76-.08,3.13,3.13,0,0,0-3,2.87,6.33,6.33,0,0,0-.1,1v6.55h-2.21Z"/><path class="cls-3" d="M406.25,225.88c0-1.27,0-2.31-.1-3.33h2l.13,2h.05a4.51,4.51,0,0,1,4.06-2.31c1.7,0,4.34,1,4.34,5.23v7.34h-2.23v-7.08c0-2-.74-3.63-2.84-3.63a3.17,3.17,0,0,0-3,2.28,3.26,3.26,0,0,0-.15,1v7.39h-2.24Z"/><path class="cls-3" d="M422.83,219.1a1.38,1.38,0,0,1-2.76,0,1.36,1.36,0,0,1,1.39-1.4A1.33,1.33,0,0,1,422.83,219.1Zm-2.49,15.74V222.55h2.24v12.29Z"/><path class="cls-3" d="M426.29,225.88c0-1.27,0-2.31-.11-3.33h2l.13,2h0a4.51,4.51,0,0,1,4.06-2.31c1.71,0,4.35,1,4.35,5.23v7.34h-2.24v-7.08c0-2-.73-3.63-2.84-3.63a3.18,3.18,0,0,0-3,2.28,3.26,3.26,0,0,0-.15,1v7.39h-2.23Z"/><path class="cls-3" d="M451,222.55c0,.89-.1,1.88-.1,3.38v7.13c0,2.82-.56,4.55-1.75,5.61a6.5,6.5,0,0,1-4.47,1.48,8,8,0,0,1-4.09-1l.56-1.7a6.9,6.9,0,0,0,3.61,1c2.28,0,4-1.19,4-4.29v-1.37h-.05a4.38,4.38,0,0,1-3.91,2.06c-3.05,0-5.23-2.59-5.23-6,0-4.17,2.71-6.53,5.53-6.53a4.11,4.11,0,0,1,3.84,2.13h.05l.1-1.85Zm-2.31,4.85a3.18,3.18,0,0,0-.12-1A3.23,3.23,0,0,0,445.4,224c-2.13,0-3.65,1.81-3.65,4.65,0,2.41,1.22,4.42,3.63,4.42a3.28,3.28,0,0,0,3.1-2.29,4.08,4.08,0,0,0,.17-1.19Z"/><path class="cls-3" d="M459.64,232.56a5.88,5.88,0,0,0,2.95.88c1.62,0,2.39-.81,2.39-1.82s-.64-1.65-2.29-2.26c-2.21-.79-3.25-2-3.25-3.48,0-2,1.6-3.61,4.24-3.61a6.16,6.16,0,0,1,3,.76l-.56,1.63a4.72,4.72,0,0,0-2.51-.71c-1.32,0-2.06.76-2.06,1.67s.74,1.48,2.34,2.09c2.13.81,3.22,1.87,3.22,3.7,0,2.16-1.67,3.68-4.59,3.68a7.06,7.06,0,0,1-3.45-.83Z"/><path class="cls-3" d="M470.82,222.55l2.69,7.26c.28.82.58,1.78.78,2.52h0c.23-.74.49-1.68.79-2.57l2.44-7.21h2.36l-3.35,8.76c-1.6,4.22-2.69,6.37-4.22,7.69a6,6,0,0,1-2.74,1.45l-.56-1.88a5.92,5.92,0,0,0,2-1.09A6.72,6.72,0,0,0,472.9,235a1.63,1.63,0,0,0,.18-.53,2,2,0,0,0-.16-.58l-4.54-11.33Z"/><path class="cls-3" d="M481.5,232.56a5.88,5.88,0,0,0,2.95.88c1.63,0,2.39-.81,2.39-1.82s-.64-1.65-2.29-2.26c-2.21-.79-3.25-2-3.25-3.48,0-2,1.6-3.61,4.24-3.61a6.16,6.16,0,0,1,3,.76l-.56,1.63a4.72,4.72,0,0,0-2.51-.71c-1.32,0-2.06.76-2.06,1.67s.74,1.48,2.34,2.09c2.13.81,3.23,1.87,3.23,3.7,0,2.16-1.68,3.68-4.6,3.68a7.06,7.06,0,0,1-3.45-.83Z"/><path class="cls-3" d="M494.55,219v3.53h3.2v1.7h-3.2v6.63c0,1.52.44,2.39,1.68,2.39a4.67,4.67,0,0,0,1.29-.16l.11,1.68a5.48,5.48,0,0,1-2,.3,3.11,3.11,0,0,1-2.42-.94,4.56,4.56,0,0,1-.86-3.19v-6.71h-1.9v-1.7h1.9v-2.94Z"/><path class="cls-3" d="M501.36,229.1c.05,3,2,4.27,4.21,4.27a8,8,0,0,0,3.41-.64l.38,1.6a9.93,9.93,0,0,1-4.09.76c-3.78,0-6-2.48-6-6.19s2.18-6.63,5.76-6.63c4,0,5.08,3.53,5.08,5.79a7.43,7.43,0,0,1-.08,1Zm6.55-1.6c0-1.42-.58-3.63-3.1-3.63-2.26,0-3.25,2.08-3.43,3.63Z"/><path class="cls-3" d="M512.83,225.88c0-1.27,0-2.31-.1-3.33h2l.1,2h.08a4.21,4.21,0,0,1,3.85-2.26,3.63,3.63,0,0,1,3.48,2.46h0a5.16,5.16,0,0,1,1.37-1.59,4.2,4.2,0,0,1,2.72-.87c1.63,0,4,1.07,4,5.33v7.24H528.2v-7c0-2.36-.87-3.78-2.67-3.78a2.89,2.89,0,0,0-2.64,2,3.75,3.75,0,0,0-.18,1.12v7.59h-2.18v-7.36c0-2-.87-3.38-2.57-3.38a3.33,3.33,0,0,0-2.94,3.33v7.41h-2.19Z"/><path class="cls-3" d="M533.7,232.56a5.88,5.88,0,0,0,2.95.88c1.62,0,2.39-.81,2.39-1.82s-.64-1.65-2.29-2.26c-2.21-.79-3.25-2-3.25-3.48,0-2,1.6-3.61,4.24-3.61a6.19,6.19,0,0,1,3,.76l-.56,1.63a4.72,4.72,0,0,0-2.51-.71c-1.32,0-2.06.76-2.06,1.67s.74,1.48,2.34,2.09c2.13.81,3.22,1.87,3.22,3.7,0,2.16-1.67,3.68-4.59,3.68a7.13,7.13,0,0,1-3.46-.83Z"/><path class="cls-3" d="M273.6,272.73v17.11h-2.21V272.73Z"/><path class="cls-3" d="M277.64,280.88c0-1.27,0-2.31-.1-3.33h2l.12,2h.06a4.5,4.5,0,0,1,4.06-2.31c1.7,0,4.34,1,4.34,5.23v7.34h-2.23v-7.08c0-2-.74-3.63-2.85-3.63a3.17,3.17,0,0,0-3,2.28,3,3,0,0,0-.16,1v7.39h-2.23Z"/><path class="cls-3" d="M292,289.84V279.25h-1.73v-1.7H292V277a5.79,5.79,0,0,1,1.42-4.29,4.25,4.25,0,0,1,3-1.15,5.12,5.12,0,0,1,1.9.36l-.3,1.73a3.25,3.25,0,0,0-1.43-.28c-1.9,0-2.38,1.67-2.38,3.55v.66h3v1.7h-3v10.59Z"/><path class="cls-3" d="M309.93,283.59c0,4.55-3.14,6.53-6.12,6.53-3.32,0-5.89-2.44-5.89-6.32,0-4.12,2.7-6.53,6.1-6.53S309.93,279.84,309.93,283.59Zm-9.75.13c0,2.69,1.55,4.72,3.74,4.72s3.73-2,3.73-4.77c0-2.08-1-4.72-3.68-4.72S300.18,281.39,300.18,283.72Z"/><path class="cls-3" d="M315.44,274v3.53h3.2v1.7h-3.2v6.63c0,1.52.43,2.39,1.68,2.39a4.73,4.73,0,0,0,1.29-.16l.1,1.68a5.4,5.4,0,0,1-2,.3,3.1,3.1,0,0,1-2.41-.94,4.56,4.56,0,0,1-.86-3.19v-6.71h-1.91v-1.7h1.91v-2.94Z"/><path class="cls-3" d="M328,289.84l-.18-1.55h-.07a4.58,4.58,0,0,1-3.76,1.83,3.5,3.5,0,0,1-3.76-3.53c0-3,2.64-4.6,7.39-4.57v-.25a2.54,2.54,0,0,0-2.79-2.85,6.09,6.09,0,0,0-3.2.92l-.51-1.48a7.62,7.62,0,0,1,4-1.09c3.75,0,4.67,2.57,4.67,5v4.59a17.62,17.62,0,0,0,.2,2.95Zm-.33-6.27c-2.44-.05-5.21.38-5.21,2.77a2,2,0,0,0,2.11,2.13,3.05,3.05,0,0,0,3-2.06,2.22,2.22,0,0,0,.13-.71Z"/><path class="cls-3" d="M335.88,274.1a1.31,1.31,0,0,1-1.42,1.37,1.33,1.33,0,0,1-1.35-1.37,1.37,1.37,0,0,1,1.4-1.4A1.33,1.33,0,0,1,335.88,274.1Zm-2.49,15.74V277.55h2.24v12.29Z"/><path class="cls-3" d="M339.33,280.88c0-1.27,0-2.31-.1-3.33h2l.13,2h.05a4.51,4.51,0,0,1,4.06-2.31c1.7,0,4.34,1,4.34,5.23v7.34h-2.23v-7.08c0-2-.74-3.63-2.85-3.63a3.17,3.17,0,0,0-3,2.28,3.26,3.26,0,0,0-.15,1v7.39h-2.24Z"/><path class="cls-3" d="M353.42,280.88c0-1.27,0-2.31-.1-3.33h2l.1,2h.07a4.24,4.24,0,0,1,3.86-2.26,3.63,3.63,0,0,1,3.48,2.46h0a5.16,5.16,0,0,1,1.37-1.59,4.2,4.2,0,0,1,2.72-.87c1.63,0,4,1.07,4,5.33v7.24h-2.19v-7c0-2.36-.86-3.78-2.66-3.78a2.89,2.89,0,0,0-2.64,2,3.75,3.75,0,0,0-.18,1.12v7.59h-2.18v-7.36c0-2-.87-3.38-2.57-3.38a3.07,3.07,0,0,0-2.77,2.23,3.29,3.29,0,0,0-.17,1.1v7.41h-2.19Z"/><path class="cls-3" d="M375.84,284.1c.05,3,2,4.27,4.22,4.27a8,8,0,0,0,3.4-.64l.38,1.6a9.89,9.89,0,0,1-4.09.76c-3.78,0-6-2.48-6-6.19s2.18-6.63,5.76-6.63c4,0,5.08,3.53,5.08,5.79a7.43,7.43,0,0,1-.08,1Zm6.55-1.6c0-1.42-.58-3.63-3.1-3.63-2.26,0-3.25,2.08-3.42,3.63Z"/><path class="cls-3" d="M387.32,280.88c0-1.27,0-2.31-.11-3.33h2l.12,2h.05a4.52,4.52,0,0,1,4.07-2.31c1.7,0,4.34,1,4.34,5.23v7.34h-2.24v-7.08c0-2-.73-3.63-2.84-3.63a3.18,3.18,0,0,0-3,2.28,3.26,3.26,0,0,0-.15,1v7.39h-2.23Z"/><path class="cls-3" d="M404,274v3.53h3.2v1.7H404v6.63c0,1.52.43,2.39,1.67,2.39a4.76,4.76,0,0,0,1.3-.16l.1,1.68a5.44,5.44,0,0,1-2,.3,3.09,3.09,0,0,1-2.41-.94,4.51,4.51,0,0,1-.87-3.19v-6.71h-1.9v-1.7h1.9v-2.94Z"/><path class="cls-3" d="M414.79,287.56a5.84,5.84,0,0,0,2.94.88c1.63,0,2.39-.81,2.39-1.82s-.64-1.65-2.29-2.26c-2.21-.79-3.25-2-3.25-3.48,0-2,1.6-3.61,4.24-3.61a6.16,6.16,0,0,1,3,.76l-.55,1.63a4.79,4.79,0,0,0-2.52-.71c-1.32,0-2,.76-2,1.67s.73,1.48,2.33,2.09c2.13.81,3.23,1.87,3.23,3.7,0,2.16-1.68,3.68-4.6,3.68a7.06,7.06,0,0,1-3.45-.83Z"/><path class="cls-3" d="M426,277.55l2.69,7.26c.28.82.58,1.78.79,2.52h.05c.22-.74.48-1.68.78-2.57l2.44-7.21h2.36l-3.35,8.76c-1.6,4.22-2.69,6.37-4.21,7.69a6,6,0,0,1-2.75,1.45l-.55-1.88a6,6,0,0,0,2-1.09A6.72,6.72,0,0,0,428,290a1.63,1.63,0,0,0,.18-.53,1.69,1.69,0,0,0-.16-.58l-4.54-11.33Z"/><path class="cls-3" d="M436.65,287.56a5.84,5.84,0,0,0,2.94.88c1.63,0,2.39-.81,2.39-1.82s-.64-1.65-2.29-2.26c-2.21-.79-3.25-2-3.25-3.48,0-2,1.6-3.61,4.24-3.61a6.16,6.16,0,0,1,3,.76l-.55,1.63a4.79,4.79,0,0,0-2.52-.71c-1.32,0-2.05.76-2.05,1.67s.73,1.48,2.33,2.09c2.13.81,3.23,1.87,3.23,3.7,0,2.16-1.68,3.68-4.6,3.68a7.06,7.06,0,0,1-3.45-.83Z"/><path class="cls-3" d="M449.7,274v3.53h3.19v1.7H449.7v6.63c0,1.52.43,2.39,1.67,2.39a4.76,4.76,0,0,0,1.3-.16l.1,1.68a5.44,5.44,0,0,1-2,.3,3.12,3.12,0,0,1-2.42-.94,4.56,4.56,0,0,1-.86-3.19v-6.71h-1.9v-1.7h1.9v-2.94Z"/><path class="cls-3" d="M456.5,284.1c.05,3,2,4.27,4.21,4.27a8,8,0,0,0,3.41-.64l.38,1.6a9.89,9.89,0,0,1-4.09.76c-3.78,0-6-2.48-6-6.19s2.18-6.63,5.76-6.63c4,0,5.08,3.53,5.08,5.79a7.43,7.43,0,0,1-.08,1Zm6.55-1.6c0-1.42-.58-3.63-3.1-3.63-2.26,0-3.25,2.08-3.42,3.63Z"/><path class="cls-3" d="M468,280.88c0-1.27,0-2.31-.11-3.33h2l.1,2H470a4.22,4.22,0,0,1,3.86-2.26,3.63,3.63,0,0,1,3.47,2.46h.06a5,5,0,0,1,1.37-1.59,4.17,4.17,0,0,1,2.71-.87c1.63,0,4,1.07,4,5.33v7.24h-2.18v-7c0-2.36-.87-3.78-2.67-3.78a2.89,2.89,0,0,0-2.64,2,3.75,3.75,0,0,0-.18,1.12v7.59h-2.18v-7.36c0-2-.86-3.38-2.57-3.38a3.33,3.33,0,0,0-2.94,3.33v7.41H468Z"/><path class="cls-3" d="M488.84,287.56a5.88,5.88,0,0,0,3,.88c1.62,0,2.39-.81,2.39-1.82s-.64-1.65-2.29-2.26c-2.21-.79-3.25-2-3.25-3.48,0-2,1.6-3.61,4.24-3.61a6.16,6.16,0,0,1,3,.76l-.56,1.63a4.72,4.72,0,0,0-2.51-.71c-1.32,0-2.06.76-2.06,1.67s.74,1.48,2.34,2.09c2.13.81,3.22,1.87,3.22,3.7,0,2.16-1.67,3.68-4.59,3.68a7.06,7.06,0,0,1-3.45-.83Z"/><path class="cls-3" d="M271.09,342.15a7.83,7.83,0,0,0,4,1.12c2.26,0,3.58-1.2,3.58-2.92s-.91-2.52-3.22-3.41c-2.8-1-4.52-2.43-4.52-4.85,0-2.66,2.2-4.64,5.53-4.64a7.66,7.66,0,0,1,3.78.84l-.61,1.8a6.72,6.72,0,0,0-3.25-.81c-2.33,0-3.22,1.39-3.22,2.56,0,1.6,1,2.39,3.4,3.3,2.9,1.12,4.37,2.51,4.37,5s-2,4.92-6,4.92a8.84,8.84,0,0,1-4.37-1.09Z"/><path class="cls-3" d="M286.32,329.1a1.31,1.31,0,0,1-1.42,1.37,1.33,1.33,0,0,1-1.35-1.37,1.37,1.37,0,0,1,1.4-1.4A1.33,1.33,0,0,1,286.32,329.1Zm-2.49,15.74V332.55h2.24v12.29Z"/><path class="cls-3" d="M289.77,335.88c0-1.27,0-2.31-.1-3.33h2l.1,2h.08a4.21,4.21,0,0,1,3.85-2.26,3.63,3.63,0,0,1,3.48,2.46h.05a5.18,5.18,0,0,1,1.38-1.59,4.15,4.15,0,0,1,2.71-.87c1.63,0,4,1.07,4,5.33v7.24h-2.18v-7c0-2.36-.87-3.78-2.67-3.78a2.89,2.89,0,0,0-2.64,2,3.75,3.75,0,0,0-.18,1.12v7.59h-2.18v-7.36c0-2-.87-3.38-2.57-3.38a3.33,3.33,0,0,0-2.94,3.33v7.41h-2.19Z"/><path class="cls-3" d="M321.23,341.49c0,1.27,0,2.39.1,3.35h-2l-.12-2h-.06a4.61,4.61,0,0,1-4.06,2.29c-1.93,0-4.24-1.07-4.24-5.38v-7.19h2.24v6.81c0,2.33.71,3.91,2.74,3.91a3.22,3.22,0,0,0,2.94-2,3.17,3.17,0,0,0,.21-1.14v-7.54h2.23Z"/><path class="cls-3" d="M324.94,326.81h2.23v18h-2.23Z"/><path class="cls-3" d="M337.73,344.84l-.17-1.55h-.08a4.58,4.58,0,0,1-3.76,1.83,3.5,3.5,0,0,1-3.76-3.53c0-3,2.64-4.6,7.39-4.57v-.25a2.54,2.54,0,0,0-2.79-2.85,6.11,6.11,0,0,0-3.2.92l-.51-1.48a7.65,7.65,0,0,1,4-1.09c3.76,0,4.67,2.57,4.67,5v4.59a17.62,17.62,0,0,0,.2,2.95Zm-.33-6.27c-2.43-.05-5.2.38-5.2,2.77a2,2,0,0,0,2.11,2.13,3.06,3.06,0,0,0,3-2.06,2.52,2.52,0,0,0,.12-.71Z"/><path class="cls-3" d="M345.76,329v3.53H349v1.7h-3.2v6.63c0,1.52.43,2.39,1.67,2.39a4.76,4.76,0,0,0,1.3-.16l.1,1.68a5.44,5.44,0,0,1-2,.3,3.09,3.09,0,0,1-2.41-.94,4.51,4.51,0,0,1-.87-3.19v-6.71h-1.9v-1.7h1.9v-2.94Z"/><path class="cls-3" d="M354,329.1a1.39,1.39,0,0,1-2.77,0,1.36,1.36,0,0,1,1.39-1.4A1.33,1.33,0,0,1,354,329.1Zm-2.49,15.74V332.55h2.23v12.29Z"/><path class="cls-3" d="M368.53,338.59c0,4.55-3.15,6.53-6.12,6.53-3.33,0-5.89-2.44-5.89-6.32,0-4.12,2.69-6.53,6.09-6.53S368.53,334.84,368.53,338.59Zm-9.75.13c0,2.69,1.55,4.72,3.73,4.72s3.73-2,3.73-4.77c0-2.08-1-4.72-3.68-4.72S358.78,336.39,358.78,338.72Z"/><path class="cls-3" d="M371.35,335.88c0-1.27,0-2.31-.1-3.33h2l.12,2h0a4.52,4.52,0,0,1,4.07-2.31c1.7,0,4.34,1,4.34,5.23v7.34h-2.24v-7.08c0-2-.73-3.63-2.84-3.63a3.18,3.18,0,0,0-3,2.28,3.26,3.26,0,0,0-.15,1v7.39h-2.23Z"/><path class="cls-3" d="M397.62,344.84l-.17-1.55h-.08a4.58,4.58,0,0,1-3.76,1.83,3.5,3.5,0,0,1-3.76-3.53c0-3,2.65-4.6,7.39-4.57v-.25a2.54,2.54,0,0,0-2.79-2.85,6.11,6.11,0,0,0-3.2.92l-.51-1.48a7.65,7.65,0,0,1,4-1.09c3.76,0,4.67,2.57,4.67,5v4.59a16.55,16.55,0,0,0,.21,2.95Zm-.33-6.27c-2.43-.05-5.2.38-5.2,2.77a2,2,0,0,0,2.11,2.13,3.06,3.06,0,0,0,3-2.06,2.52,2.52,0,0,0,.12-.71Z"/><path class="cls-3" d="M403.06,335.88c0-1.27,0-2.31-.1-3.33h2l.12,2h.05a4.52,4.52,0,0,1,4.07-2.31c1.7,0,4.34,1,4.34,5.23v7.34h-2.24v-7.08c0-2-.73-3.63-2.84-3.63a3.18,3.18,0,0,0-3,2.28,3.26,3.26,0,0,0-.15,1v7.39h-2.23Z"/><path class="cls-3" d="M427.76,326.81v14.86c0,1.09,0,2.33.1,3.17h-2l-.11-2.13h-.05a4.54,4.54,0,0,1-4.19,2.41c-3,0-5.25-2.51-5.25-6.25,0-4.08,2.51-6.6,5.51-6.6a4.12,4.12,0,0,1,3.71,1.88h0v-7.34Zm-2.23,10.74a3.77,3.77,0,0,0-.11-.94A3.28,3.28,0,0,0,422.2,334c-2.31,0-3.68,2-3.68,4.75,0,2.49,1.22,4.55,3.63,4.55a3.35,3.35,0,0,0,3.27-2.67,3.67,3.67,0,0,0,.11-1Z"/><path class="cls-3" d="M439.54,329v3.53h3.2v1.7h-3.2v6.63c0,1.52.43,2.39,1.68,2.39a4.73,4.73,0,0,0,1.29-.16l.1,1.68a5.4,5.4,0,0,1-2,.3,3.09,3.09,0,0,1-2.41-.94,4.51,4.51,0,0,1-.86-3.19v-6.71h-1.91v-1.7h1.91v-2.94Z"/><path class="cls-3" d="M446.34,339.1c.05,3,2,4.27,4.22,4.27a8,8,0,0,0,3.4-.64l.38,1.6a9.89,9.89,0,0,1-4.09.76c-3.78,0-6-2.48-6-6.19s2.18-6.63,5.76-6.63c4,0,5.08,3.53,5.08,5.79a10,10,0,0,1-.07,1Zm6.55-1.6c0-1.42-.58-3.63-3.09-3.63-2.26,0-3.25,2.08-3.43,3.63Z"/><path class="cls-3" d="M457.51,342.56a5.88,5.88,0,0,0,2.95.88c1.62,0,2.39-.81,2.39-1.82s-.64-1.65-2.29-2.26c-2.21-.79-3.25-2-3.25-3.48,0-2,1.6-3.61,4.24-3.61a6.16,6.16,0,0,1,3,.76l-.56,1.63a4.72,4.72,0,0,0-2.51-.71c-1.32,0-2.06.76-2.06,1.67s.74,1.48,2.34,2.09c2.13.81,3.22,1.87,3.22,3.7,0,2.16-1.67,3.68-4.59,3.68a7.06,7.06,0,0,1-3.45-.83Z"/><path class="cls-3" d="M470.56,329v3.53h3.2v1.7h-3.2v6.63c0,1.52.44,2.39,1.68,2.39a4.82,4.82,0,0,0,1.3-.16l.1,1.68a5.44,5.44,0,0,1-2,.3,3.12,3.12,0,0,1-2.42-.94,4.56,4.56,0,0,1-.86-3.19v-6.71h-1.9v-1.7h1.9v-2.94Z"/><path class="cls-3" d="M478.76,329.1a1.31,1.31,0,0,1-1.42,1.37A1.33,1.33,0,0,1,476,329.1a1.36,1.36,0,0,1,1.39-1.4A1.33,1.33,0,0,1,478.76,329.1Zm-2.48,15.74V332.55h2.23v12.29Z"/><path class="cls-3" d="M482.22,335.88c0-1.27,0-2.31-.1-3.33h2l.12,2h0a4.52,4.52,0,0,1,4.07-2.31c1.7,0,4.34,1,4.34,5.23v7.34h-2.24v-7.08c0-2-.73-3.63-2.84-3.63a3.18,3.18,0,0,0-3,2.28,3.26,3.26,0,0,0-.15,1v7.39h-2.23Z"/><path class="cls-3" d="M506.9,332.55c-.06.89-.11,1.88-.11,3.38v7.13c0,2.82-.55,4.55-1.75,5.61a6.5,6.5,0,0,1-4.47,1.48,7.91,7.91,0,0,1-4.08-1l.55-1.7a7,7,0,0,0,3.61,1c2.28,0,4-1.19,4-4.29v-1.37h-.05a4.38,4.38,0,0,1-3.91,2.06c-3,0-5.23-2.59-5.23-6,0-4.17,2.72-6.53,5.53-6.53a4.11,4.11,0,0,1,3.84,2.13h0l.1-1.85Zm-2.32,4.85a3.18,3.18,0,0,0-.12-1,3.23,3.23,0,0,0-3.13-2.37c-2.13,0-3.65,1.81-3.65,4.65,0,2.41,1.22,4.42,3.63,4.42a3.28,3.28,0,0,0,3.1-2.29,4.08,4.08,0,0,0,.17-1.19Z"/><path class="cls-3" d="M56.12,540.71,48.75,517.9h4.53l3.12,10.36c.88,2.87,1.62,5.55,2.23,8.32h.07c.61-2.71,1.42-5.48,2.33-8.26l3.32-10.42h4.43L60.9,540.71Z"/><path class="cls-3" d="M72.75,533.64c.1,3,2.43,4.26,5.07,4.26a12.47,12.47,0,0,0,4.57-.74L83,540a15.39,15.39,0,0,1-5.75,1c-5.35,0-8.5-3.28-8.5-8.33,0-4.56,2.78-8.86,8.06-8.86s7.1,4.4,7.1,8a10.09,10.09,0,0,1-.13,1.76ZM80,530.73c0-1.53-.64-4-3.42-4-2.57,0-3.65,2.33-3.82,4Z"/><path class="cls-3" d="M87.27,516.68h4.2v9.82h.06a5.95,5.95,0,0,1,4.91-2.64c2.81,0,5.75,1.86,5.75,7.14v9.71H98v-9.24c0-2.4-.88-4.19-3.18-4.19a3.41,3.41,0,0,0-3.22,2.33,3.65,3.65,0,0,0-.16,1.25v9.85h-4.2Z"/><path class="cls-3" d="M111.06,519.63a2.34,2.34,0,0,1-4.67,0,2.34,2.34,0,0,1,4.67,0Zm-4.43,21.08V524.23h4.2v16.48Z"/><path class="cls-3" d="M127.41,540.2a11.94,11.94,0,0,1-4.67.85c-5.14,0-8.49-3.28-8.49-8.39,0-4.94,3.38-8.8,9.17-8.8a10.42,10.42,0,0,1,4,.78l-.75,3.11a7.25,7.25,0,0,0-3.15-.64c-3.18,0-5.07,2.33-5,5.34,0,3.39,2.2,5.32,5,5.32a8.11,8.11,0,0,0,3.29-.65Z"/><path class="cls-3" d="M145.25,535.77c0,2,.07,3.59.14,4.94h-3.66l-.2-2.5h-.07a6,6,0,0,1-5.28,2.87c-3,0-5.75-1.79-5.75-7.17v-9.68h4.16v9c0,2.74.88,4.5,3.08,4.5a3.51,3.51,0,0,0,3.18-2.23,3.75,3.75,0,0,0,.24-1.29v-9.95h4.16Z"/><path class="cls-3" d="M149.76,516.68H154v24h-4.19Z"/><path class="cls-3" d="M167.73,540.71l-.27-1.83h-.1a6.12,6.12,0,0,1-4.88,2.2,4.89,4.89,0,0,1-5.17-4.9c0-4.17,3.69-6.27,9.78-6.23v-.27c0-1.08-.44-2.88-3.35-2.88A8.75,8.75,0,0,0,159.3,528l-.81-2.71a11.93,11.93,0,0,1,6-1.45c5.28,0,6.8,3.35,6.8,6.93v6a26.23,26.23,0,0,0,.24,4Zm-.54-8.05c-2.95-.07-5.76.57-5.76,3.08a2.19,2.19,0,0,0,2.37,2.37,3.38,3.38,0,0,0,3.25-2.27,3.12,3.12,0,0,0,.14-.92Z"/><path class="cls-3" d="M175.65,529.54c0-2.23,0-3.82-.13-5.31h3.62l.13,3.15h.14a4.91,4.91,0,0,1,4.5-3.52,4.22,4.22,0,0,1,1,.1v3.92a6.41,6.41,0,0,0-1.22-.13A3.67,3.67,0,0,0,180,530.9a6.91,6.91,0,0,0-.13,1.28v8.53h-4.17Z"/><path class="cls-3" d="M37.35,553.38v4.7h4v3.11h-4v7.28c0,2,.55,3,2.14,3a6.12,6.12,0,0,0,1.62-.21l.07,3.18a9,9,0,0,1-3,.41,4.84,4.84,0,0,1-3.59-1.35c-.88-.95-1.29-2.44-1.29-4.61v-7.75H30.92v-3.11h2.37v-3.72Z"/><path class="cls-3" d="M47.21,567.49c.1,3,2.43,4.26,5.07,4.26a12.47,12.47,0,0,0,4.57-.74l.61,2.88a15.61,15.61,0,0,1-5.75,1c-5.35,0-8.5-3.28-8.5-8.32,0-4.57,2.78-8.87,8.06-8.87s7.1,4.4,7.1,8a10.09,10.09,0,0,1-.13,1.76Zm7.24-2.91c0-1.52-.65-4-3.42-4-2.57,0-3.66,2.34-3.82,4Z"/><path class="cls-3" d="M73.84,574.05a11.94,11.94,0,0,1-4.67.85c-5.14,0-8.49-3.28-8.49-8.39,0-4.94,3.38-8.8,9.17-8.8a10.42,10.42,0,0,1,4,.78l-.75,3.11A7.38,7.38,0,0,0,70,561c-3.19,0-5.08,2.33-5,5.34,0,3.39,2.2,5.32,5,5.32a8.1,8.1,0,0,0,3.28-.65Z"/><path class="cls-3" d="M76.93,550.53h4.19v9.82h.07a5.95,5.95,0,0,1,4.91-2.64c2.81,0,5.75,1.86,5.75,7.14v9.71H87.69v-9.24c0-2.4-.88-4.19-3.18-4.19a3.39,3.39,0,0,0-3.22,2.33,3.64,3.64,0,0,0-.17,1.25v9.85H76.93Z"/><path class="cls-3" d="M96.29,563c0-1.9,0-3.49-.14-4.91h3.66l.2,2.47h.1a5.94,5.94,0,0,1,5.25-2.84c2.88,0,5.85,1.86,5.85,7.07v9.78h-4.16v-9.3c0-2.37-.88-4.17-3.15-4.17a3.49,3.49,0,0,0-3.24,2.44,4.1,4.1,0,0,0-.17,1.35v9.68h-4.2Z"/><path class="cls-3" d="M131.32,566.17c0,6.06-4.26,8.76-8.46,8.76-4.67,0-8.26-3.21-8.26-8.49s3.56-8.73,8.53-8.73S131.32,561.16,131.32,566.17Zm-12.42.17c0,3.18,1.56,5.58,4.1,5.58,2.37,0,4-2.33,4-5.65,0-2.57-1.15-5.52-4-5.52S118.9,563.6,118.9,566.34Z"/><path class="cls-3" d="M134.74,550.53h4.2v24h-4.2Z"/><path class="cls-3" d="M159.11,566.17c0,6.06-4.26,8.76-8.46,8.76-4.67,0-8.26-3.21-8.26-8.49s3.56-8.73,8.53-8.73S159.11,561.16,159.11,566.17Zm-12.42.17c0,3.18,1.56,5.58,4.1,5.58,2.37,0,4-2.33,4-5.65,0-2.57-1.16-5.52-4-5.52S146.69,563.6,146.69,566.34Z"/><path class="cls-3" d="M177.6,558.08c-.07,1.12-.14,2.47-.14,4.74v9.34c0,3.45-.71,5.92-2.44,7.48a9.48,9.48,0,0,1-6.36,2,11.64,11.64,0,0,1-5.75-1.32l.91-3.15a10,10,0,0,0,4.81,1.25c2.7,0,4.74-1.42,4.74-5V572h-.07a5.56,5.56,0,0,1-4.81,2.44c-4.09,0-7-3.38-7-8.05,0-5.42,3.52-8.7,7.48-8.7a5.2,5.2,0,0,1,4.77,2.57h.07l.16-2.2Zm-4.3,6.6a4.14,4.14,0,0,0-.14-1.12,3.45,3.45,0,0,0-3.38-2.67c-2.34,0-4.06,2-4.06,5.38,0,2.81,1.42,5.08,4,5.08a3.56,3.56,0,0,0,3.39-2.51,7.23,7.23,0,0,0,.17-1.49Z"/><path class="cls-3" d="M184.54,558.08l3,8.83c.33,1,.67,2.27.91,3.22h.1c.27-1,.58-2.17.88-3.25l2.57-8.8h4.47l-4.13,11.24c-2.27,6.16-3.79,8.9-5.75,10.59A8.31,8.31,0,0,1,182.2,582l-.95-3.52a7,7,0,0,0,2.44-1.15,7.35,7.35,0,0,0,2.27-2.6,1.71,1.71,0,0,0,.27-.75,1.67,1.67,0,0,0-.24-.81l-6-15.13Z"/><path class="cls-3" d="M285.82,422.32c-.13-2.38-.28-5.25-.26-7.38h-.07c-.59,2-1.3,4.13-2.16,6.5l-3,8.3h-1.68l-2.77-8.15c-.81-2.41-1.5-4.62-2-6.65h-.05c-.05,2.13-.18,5-.33,7.56l-.46,7.34h-2.1l1.19-17.11H275l2.92,8.27c.71,2.11,1.29,4,1.72,5.77h.08c.43-1.73,1-3.61,1.8-5.77l3-8.27h2.82l1.07,17.11h-2.16Z"/><path class="cls-3" d="M298.69,429.84l-.18-1.55h-.08a4.55,4.55,0,0,1-3.76,1.83,3.5,3.5,0,0,1-3.75-3.53c0-3,2.64-4.6,7.39-4.57v-.25a2.54,2.54,0,0,0-2.8-2.85,6.14,6.14,0,0,0-3.2.92l-.5-1.48a7.58,7.58,0,0,1,4-1.09c3.76,0,4.67,2.57,4.67,5v4.59a17.55,17.55,0,0,0,.21,2.95Zm-.33-6.27c-2.44-.05-5.21.38-5.21,2.77a2,2,0,0,0,2.11,2.13,3.06,3.06,0,0,0,3-2.06,2.22,2.22,0,0,0,.13-.71Z"/><path class="cls-3" d="M312.88,429.38a8.18,8.18,0,0,1-3.53.71c-3.71,0-6.12-2.51-6.12-6.27a6.24,6.24,0,0,1,6.6-6.52,7.57,7.57,0,0,1,3.1.63l-.51,1.73a5.1,5.1,0,0,0-2.59-.59c-2.82,0-4.34,2.09-4.34,4.65,0,2.84,1.83,4.6,4.27,4.6a6.34,6.34,0,0,0,2.74-.61Z"/><path class="cls-3" d="M315.49,411.81h2.24v7.67h0a4.1,4.1,0,0,1,1.6-1.57,4.61,4.61,0,0,1,2.28-.64c1.65,0,4.29,1,4.29,5.26v7.31h-2.23v-7.06c0-2-.74-3.65-2.84-3.65a3.21,3.21,0,0,0-3,2.23,2.64,2.64,0,0,0-.15,1.07v7.41h-2.24Z"/><path class="cls-3" d="M332.07,414.1a1.31,1.31,0,0,1-1.42,1.37,1.33,1.33,0,0,1-1.35-1.37,1.37,1.37,0,0,1,1.4-1.4A1.33,1.33,0,0,1,332.07,414.1Zm-2.49,15.74V417.55h2.24v12.29Z"/><path class="cls-3" d="M335.52,420.88c0-1.27,0-2.31-.1-3.33h2l.13,2h.05a4.51,4.51,0,0,1,4.06-2.31c1.7,0,4.35,1,4.35,5.23v7.34h-2.24v-7.08c0-2-.74-3.63-2.84-3.63a3.17,3.17,0,0,0-3,2.28,3.26,3.26,0,0,0-.15,1v7.39h-2.24Z"/><path class="cls-3" d="M350.86,424.1c.05,3,2,4.27,4.21,4.27a8,8,0,0,0,3.41-.64l.38,1.6a9.93,9.93,0,0,1-4.09.76c-3.78,0-6-2.48-6-6.19s2.18-6.63,5.76-6.63c4,0,5.08,3.53,5.08,5.79a7.43,7.43,0,0,1-.08,1Zm6.55-1.6c0-1.42-.58-3.63-3.1-3.63-2.26,0-3.25,2.08-3.43,3.63Z"/><path class="cls-3" d="M367.72,411.81H370v18h-2.23Z"/><path class="cls-3" d="M375,424.1c.05,3,2,4.27,4.22,4.27a8,8,0,0,0,3.4-.64l.38,1.6a9.89,9.89,0,0,1-4.09.76c-3.78,0-6-2.48-6-6.19s2.18-6.63,5.76-6.63c4,0,5.08,3.53,5.08,5.79a7.43,7.43,0,0,1-.08,1Zm6.55-1.6c0-1.42-.58-3.63-3.09-3.63-2.26,0-3.25,2.08-3.43,3.63Z"/><path class="cls-3" d="M393.23,429.84l-.18-1.55H393a4.58,4.58,0,0,1-3.76,1.83,3.5,3.5,0,0,1-3.76-3.53c0-3,2.64-4.6,7.39-4.57v-.25a2.54,2.54,0,0,0-2.79-2.85,6.11,6.11,0,0,0-3.2.92l-.51-1.48a7.65,7.65,0,0,1,4-1.09c3.76,0,4.67,2.57,4.67,5v4.59a17.62,17.62,0,0,0,.2,2.95Zm-.33-6.27c-2.44-.05-5.2.38-5.2,2.77a2,2,0,0,0,2.1,2.13,3.08,3.08,0,0,0,3-2.06,2.52,2.52,0,0,0,.12-.71Z"/><path class="cls-3" d="M398.66,421.39c0-1.45,0-2.7-.1-3.84h2l.07,2.41h.11a3.67,3.67,0,0,1,3.4-2.69,2.41,2.41,0,0,1,.63.08v2.11a2.86,2.86,0,0,0-.76-.08,3.13,3.13,0,0,0-3,2.87,5.35,5.35,0,0,0-.11,1v6.55h-2.21Z"/><path class="cls-3" d="M407.07,420.88c0-1.27,0-2.31-.1-3.33h2l.12,2h.05a4.53,4.53,0,0,1,4.07-2.31c1.7,0,4.34,1,4.34,5.23v7.34h-2.24v-7.08c0-2-.73-3.63-2.84-3.63a3.17,3.17,0,0,0-3,2.28,3,3,0,0,0-.16,1v7.39h-2.23Z"/><path class="cls-3" d="M423.65,414.1a1.39,1.39,0,0,1-2.77,0,1.36,1.36,0,0,1,1.4-1.4A1.33,1.33,0,0,1,423.65,414.1Zm-2.49,15.74V417.55h2.23v12.29Z"/><path class="cls-3" d="M427.1,420.88c0-1.27,0-2.31-.1-3.33h2l.13,2h.05a4.51,4.51,0,0,1,4.06-2.31c1.7,0,4.34,1,4.34,5.23v7.34h-2.23v-7.08c0-2-.74-3.63-2.85-3.63a3.17,3.17,0,0,0-3,2.28,3,3,0,0,0-.16,1v7.39H427.1Z"/><path class="cls-3" d="M451.78,417.55c0,.89-.1,1.88-.1,3.38v7.13c0,2.82-.56,4.55-1.76,5.61a6.49,6.49,0,0,1-4.46,1.48,7.92,7.92,0,0,1-4.09-1l.56-1.7a6.89,6.89,0,0,0,3.6,1c2.29,0,4-1.19,4-4.29v-1.37h-.05a4.36,4.36,0,0,1-3.91,2.06c-3,0-5.23-2.59-5.23-6,0-4.17,2.72-6.53,5.54-6.53a4.09,4.09,0,0,1,3.83,2.13h.05l.1-1.85Zm-2.31,4.85a3.17,3.17,0,0,0-.13-1,3.22,3.22,0,0,0-3.12-2.37c-2.14,0-3.66,1.81-3.66,4.65,0,2.41,1.22,4.42,3.63,4.42a3.27,3.27,0,0,0,3.1-2.29,3.78,3.78,0,0,0,.18-1.19Z"/><path class="cls-3" d="M460.56,422.15v1.65h-6.27v-1.65Z"/><path class="cls-3" d="M463.07,429.84c.05-.84.11-2.08.11-3.17V411.81h2.2v7.72h.06a4.56,4.56,0,0,1,4.18-2.26c3.05,0,5.21,2.54,5.18,6.27,0,4.4-2.76,6.58-5.51,6.58a4.39,4.39,0,0,1-4.11-2.31h-.07l-.11,2Zm2.31-4.93a4.38,4.38,0,0,0,.11.82,3.43,3.43,0,0,0,3.35,2.61c2.33,0,3.73-1.9,3.73-4.72,0-2.46-1.27-4.57-3.66-4.57a3.56,3.56,0,0,0-3.4,2.74,4.52,4.52,0,0,0-.13.92Z"/><path class="cls-3" d="M484.43,429.84l-.18-1.55h-.08a4.55,4.55,0,0,1-3.76,1.83,3.5,3.5,0,0,1-3.75-3.53c0-3,2.64-4.6,7.38-4.57v-.25a2.53,2.53,0,0,0-2.79-2.85,6.14,6.14,0,0,0-3.2.92l-.51-1.48a7.65,7.65,0,0,1,4-1.09c3.76,0,4.67,2.57,4.67,5v4.59a16.55,16.55,0,0,0,.21,2.95Zm-.33-6.27c-2.44-.05-5.21.38-5.21,2.77a2,2,0,0,0,2.11,2.13,3.06,3.06,0,0,0,3-2.06,2.53,2.53,0,0,0,.13-.71Z"/><path class="cls-3" d="M489.55,427.56a5.88,5.88,0,0,0,2.95.88c1.62,0,2.39-.81,2.39-1.82s-.64-1.65-2.29-2.26c-2.21-.79-3.25-2-3.25-3.48,0-2,1.6-3.61,4.24-3.61a6.19,6.19,0,0,1,3,.76l-.56,1.63a4.72,4.72,0,0,0-2.51-.71c-1.32,0-2.06.76-2.06,1.67s.74,1.48,2.34,2.09c2.13.81,3.22,1.87,3.22,3.7,0,2.16-1.67,3.68-4.59,3.68a7.06,7.06,0,0,1-3.45-.83Z"/><path class="cls-3" d="M501.16,424.1c0,3,2,4.27,4.21,4.27a8,8,0,0,0,3.4-.64l.38,1.6a9.83,9.83,0,0,1-4.08.76c-3.79,0-6.05-2.48-6.05-6.19s2.19-6.63,5.77-6.63c4,0,5.08,3.53,5.08,5.79a9.4,9.4,0,0,1-.08,1Zm6.55-1.6c0-1.42-.59-3.63-3.1-3.63-2.26,0-3.25,2.08-3.43,3.63Z"/><path class="cls-3" d="M523.25,411.81v14.86c0,1.09,0,2.33.1,3.17h-2l-.1-2.13h0a4.56,4.56,0,0,1-4.19,2.41c-3,0-5.26-2.51-5.26-6.25,0-4.08,2.52-6.6,5.51-6.6a4.12,4.12,0,0,1,3.71,1.88h0v-7.34ZM521,422.55a3.76,3.76,0,0,0-.1-.94,3.29,3.29,0,0,0-3.23-2.59c-2.31,0-3.68,2-3.68,4.75,0,2.49,1.22,4.55,3.63,4.55a3.36,3.36,0,0,0,3.28-2.67,3.68,3.68,0,0,0,.1-1Z"/><path class="cls-3" d="M532,427.56a5.87,5.87,0,0,0,2.94.88c1.63,0,2.39-.81,2.39-1.82s-.63-1.65-2.28-2.26c-2.21-.79-3.25-2-3.25-3.48,0-2,1.59-3.61,4.24-3.61a6.22,6.22,0,0,1,3,.76l-.56,1.63A4.73,4.73,0,0,0,536,419c-1.32,0-2,.76-2,1.67s.73,1.48,2.33,2.09c2.14.81,3.23,1.87,3.23,3.7,0,2.16-1.68,3.68-4.6,3.68a7.09,7.09,0,0,1-3.45-.83Z"/><path class="cls-3" d="M543.2,417.55l2.69,7.26c.28.82.58,1.78.79,2.52h.05c.23-.74.48-1.68.79-2.57l2.43-7.21h2.36L549,426.31c-1.6,4.22-2.69,6.37-4.21,7.69a6,6,0,0,1-2.74,1.45l-.56-1.88a5.88,5.88,0,0,0,1.95-1.09,6.72,6.72,0,0,0,1.88-2.49,1.63,1.63,0,0,0,.18-.53,1.87,1.87,0,0,0-.15-.58l-4.55-11.33Z"/><path class="cls-3" d="M553.89,427.56a5.87,5.87,0,0,0,2.94.88c1.63,0,2.39-.81,2.39-1.82s-.64-1.65-2.29-2.26c-2.2-.79-3.25-2-3.25-3.48,0-2,1.6-3.61,4.24-3.61a6.23,6.23,0,0,1,3,.76l-.56,1.63a4.73,4.73,0,0,0-2.52-.71c-1.32,0-2,.76-2,1.67s.73,1.48,2.33,2.09c2.14.81,3.23,1.87,3.23,3.7,0,2.16-1.68,3.68-4.6,3.68a7.09,7.09,0,0,1-3.45-.83Z"/><path class="cls-3" d="M566.94,414v3.53h3.2v1.7h-3.2v6.63c0,1.52.43,2.39,1.67,2.39a4.76,4.76,0,0,0,1.3-.16l.1,1.68a5.44,5.44,0,0,1-2,.3,3.09,3.09,0,0,1-2.41-.94,4.51,4.51,0,0,1-.87-3.19v-6.71h-1.9v-1.7h1.9v-2.94Z"/><path class="cls-3" d="M573.74,424.1c0,3,2,4.27,4.22,4.27a8,8,0,0,0,3.4-.64l.38,1.6a9.89,9.89,0,0,1-4.09.76c-3.78,0-6-2.48-6-6.19s2.18-6.63,5.76-6.63c4,0,5.08,3.53,5.08,5.79a7.43,7.43,0,0,1-.08,1Zm6.55-1.6c0-1.42-.58-3.63-3.1-3.63-2.26,0-3.25,2.08-3.42,3.63Z"/><path class="cls-3" d="M585.22,420.88c0-1.27,0-2.31-.1-3.33h2l.1,2h.08a4.23,4.23,0,0,1,3.86-2.26,3.65,3.65,0,0,1,3.48,2.46h0a5,5,0,0,1,1.37-1.59,4.17,4.17,0,0,1,2.71-.87c1.63,0,4,1.07,4,5.33v7.24h-2.18v-7c0-2.36-.87-3.78-2.67-3.78a2.89,2.89,0,0,0-2.64,2,3.75,3.75,0,0,0-.18,1.12v7.59h-2.18v-7.36c0-2-.86-3.38-2.56-3.38a3.33,3.33,0,0,0-3,3.33v7.41h-2.18Z"/><path class="cls-3" d="M618.58,429.84l-.18-1.55h-.08a4.54,4.54,0,0,1-3.75,1.83,3.5,3.5,0,0,1-3.76-3.53c0-3,2.64-4.6,7.39-4.57v-.25a2.54,2.54,0,0,0-2.8-2.85,6.14,6.14,0,0,0-3.2.92l-.5-1.48a7.58,7.58,0,0,1,4-1.09c3.76,0,4.68,2.57,4.68,5v4.59a17.62,17.62,0,0,0,.2,2.95Zm-.33-6.27c-2.44-.05-5.21.38-5.21,2.77a2,2,0,0,0,2.11,2.13,3.06,3.06,0,0,0,3-2.06,2.22,2.22,0,0,0,.13-.71Z"/><path class="cls-3" d="M624,421.39c0-1.45,0-2.7-.1-3.84h2l.08,2.41h.1a3.69,3.69,0,0,1,3.4-2.69,2.49,2.49,0,0,1,.64.08v2.11a2.91,2.91,0,0,0-.76-.08,3.13,3.13,0,0,0-3,2.87,6.33,6.33,0,0,0-.1,1v6.55H624Z"/><path class="cls-3" d="M640.82,429.38a8.18,8.18,0,0,1-3.53.71c-3.71,0-6.12-2.51-6.12-6.27a6.24,6.24,0,0,1,6.6-6.52,7.57,7.57,0,0,1,3.1.63l-.51,1.73a5.1,5.1,0,0,0-2.59-.59c-2.82,0-4.34,2.09-4.34,4.65,0,2.84,1.83,4.6,4.26,4.6a6.39,6.39,0,0,0,2.75-.61Z"/><path class="cls-3" d="M643.43,411.81h2.24v7.67h.05a4.1,4.1,0,0,1,1.6-1.57,4.59,4.59,0,0,1,2.28-.64c1.65,0,4.29,1,4.29,5.26v7.31h-2.23v-7.06c0-2-.74-3.65-2.85-3.65a3.2,3.2,0,0,0-3,2.23,2.64,2.64,0,0,0-.15,1.07v7.41h-2.24Z"/><path class="cls-3" d="M660,414.1a1.31,1.31,0,0,1-1.42,1.37,1.33,1.33,0,0,1-1.35-1.37,1.37,1.37,0,0,1,1.4-1.4A1.33,1.33,0,0,1,660,414.1Zm-2.49,15.74V417.55h2.24v12.29Z"/><path class="cls-3" d="M666.15,414v3.53h3.2v1.7h-3.2v6.63c0,1.52.44,2.39,1.68,2.39a4.67,4.67,0,0,0,1.29-.16l.11,1.68a5.48,5.48,0,0,1-2,.3,3.12,3.12,0,0,1-2.42-.94A4.56,4.56,0,0,1,664,426v-6.71h-1.9v-1.7H664v-2.94Z"/><path class="cls-3" d="M673,424.1c0,3,2,4.27,4.21,4.27a8,8,0,0,0,3.41-.64l.38,1.6a9.93,9.93,0,0,1-4.09.76c-3.79,0-6-2.48-6-6.19s2.18-6.63,5.76-6.63c4,0,5.08,3.53,5.08,5.79a7.43,7.43,0,0,1-.08,1Zm6.55-1.6c0-1.42-.59-3.63-3.1-3.63-2.26,0-3.25,2.08-3.43,3.63Z"/><path class="cls-3" d="M693.19,429.38a8.14,8.14,0,0,1-3.53.71c-3.7,0-6.12-2.51-6.12-6.27a6.24,6.24,0,0,1,6.61-6.52,7.52,7.52,0,0,1,3.09.63l-.5,1.73a5.13,5.13,0,0,0-2.59-.59c-2.82,0-4.35,2.09-4.35,4.65,0,2.84,1.83,4.6,4.27,4.6a6.31,6.31,0,0,0,2.74-.61Z"/><path class="cls-3" d="M698.83,414v3.53H702v1.7h-3.2v6.63c0,1.52.43,2.39,1.67,2.39a4.76,4.76,0,0,0,1.3-.16l.1,1.68a5.44,5.44,0,0,1-2,.3,3.09,3.09,0,0,1-2.41-.94,4.51,4.51,0,0,1-.86-3.19v-6.71h-1.91v-1.7h1.91v-2.94Z"/><path class="cls-3" d="M714.82,426.49c0,1.27,0,2.39.11,3.35h-2l-.13-2h-.05a4.64,4.64,0,0,1-4.06,2.29c-1.93,0-4.25-1.07-4.25-5.38v-7.19h2.24v6.81c0,2.33.71,3.91,2.74,3.91a3.25,3.25,0,0,0,2.95-2,3.4,3.4,0,0,0,.2-1.14v-7.54h2.23Z"/><path class="cls-3" d="M718.53,421.39c0-1.45,0-2.7-.1-3.84h2l.08,2.41h.1a3.69,3.69,0,0,1,3.4-2.69,2.43,2.43,0,0,1,.64.08v2.11a2.91,2.91,0,0,0-.76-.08,3.13,3.13,0,0,0-3,2.87,6.33,6.33,0,0,0-.1,1v6.55h-2.21Z"/><path class="cls-3" d="M727.82,424.1c0,3,2,4.27,4.22,4.27a8,8,0,0,0,3.4-.64l.38,1.6a9.89,9.89,0,0,1-4.09.76c-3.78,0-6-2.48-6-6.19s2.18-6.63,5.76-6.63c4,0,5.08,3.53,5.08,5.79a10,10,0,0,1-.07,1Zm6.55-1.6c0-1.42-.58-3.63-3.09-3.63-2.26,0-3.25,2.08-3.43,3.63Z"/><path class="cls-3" d="M739,427.56a5.88,5.88,0,0,0,3,.88c1.62,0,2.39-.81,2.39-1.82s-.64-1.65-2.29-2.26c-2.21-.79-3.25-2-3.25-3.48,0-2,1.6-3.61,4.24-3.61a6.19,6.19,0,0,1,3,.76l-.56,1.63A4.72,4.72,0,0,0,743,419c-1.32,0-2.06.76-2.06,1.67s.74,1.48,2.34,2.09c2.13.81,3.22,1.87,3.22,3.7,0,2.16-1.67,3.68-4.59,3.68a7.13,7.13,0,0,1-3.46-.83Z"/><path class="cls-3" d="M278.12,454.84l-.18-1.55h-.07a4.58,4.58,0,0,1-3.76,1.83,3.5,3.5,0,0,1-3.76-3.53c0-3,2.64-4.6,7.39-4.57v-.25a2.54,2.54,0,0,0-2.79-2.85,6.11,6.11,0,0,0-3.2.92l-.51-1.48a7.65,7.65,0,0,1,4-1.09c3.76,0,4.67,2.57,4.67,5v4.59a17.62,17.62,0,0,0,.2,2.95Zm-.33-6.27c-2.44-.05-5.2.38-5.2,2.77a2,2,0,0,0,2.1,2.13,3.05,3.05,0,0,0,3-2.06,2.22,2.22,0,0,0,.13-.71Z"/><path class="cls-3" d="M283.55,445.88c0-1.27,0-2.31-.1-3.33h2l.13,2h.05a4.51,4.51,0,0,1,4.06-2.31c1.7,0,4.35,1,4.35,5.23v7.34h-2.24v-7.08c0-2-.74-3.63-2.84-3.63a3.17,3.17,0,0,0-3,2.28,3.26,3.26,0,0,0-.15,1v7.39h-2.24Z"/><path class="cls-3" d="M308.26,436.81v14.86c0,1.09,0,2.33.1,3.17h-2l-.1-2.13h-.05a4.54,4.54,0,0,1-4.19,2.41c-3,0-5.25-2.51-5.25-6.25,0-4.08,2.51-6.6,5.51-6.6a4.1,4.1,0,0,1,3.7,1.88h0v-7.34ZM306,447.55a3.76,3.76,0,0,0-.1-.94A3.29,3.29,0,0,0,302.7,444c-2.31,0-3.68,2-3.68,4.75,0,2.49,1.22,4.55,3.63,4.55a3.35,3.35,0,0,0,3.27-2.67,3.68,3.68,0,0,0,.1-1Z"/><path class="cls-3" d="M328,436.81v14.86c0,1.09,0,2.33.1,3.17h-2l-.11-2.13h-.05a4.54,4.54,0,0,1-4.19,2.41c-3,0-5.25-2.51-5.25-6.25,0-4.08,2.51-6.6,5.51-6.6a4.09,4.09,0,0,1,3.7,1.88h.06v-7.34Zm-2.23,10.74a3.77,3.77,0,0,0-.11-.94A3.28,3.28,0,0,0,322.4,444c-2.31,0-3.68,2-3.68,4.75,0,2.49,1.22,4.55,3.63,4.55a3.35,3.35,0,0,0,3.27-2.67,3.67,3.67,0,0,0,.11-1Z"/><path class="cls-3" d="M332.91,449.1c0,3,2,4.27,4.21,4.27a8,8,0,0,0,3.41-.64l.38,1.6a9.89,9.89,0,0,1-4.09.76c-3.78,0-6-2.48-6-6.19s2.18-6.63,5.76-6.63c4,0,5.08,3.53,5.08,5.79a7.43,7.43,0,0,1-.08,1Zm6.55-1.6c0-1.42-.58-3.63-3.1-3.63-2.26,0-3.25,2.08-3.42,3.63Z"/><path class="cls-3" d="M344.08,452.56a5.88,5.88,0,0,0,2.95.88c1.62,0,2.38-.81,2.38-1.82s-.63-1.65-2.28-2.26c-2.21-.79-3.25-2-3.25-3.48,0-2,1.6-3.61,4.24-3.61a6.22,6.22,0,0,1,3,.76l-.56,1.63a4.72,4.72,0,0,0-2.51-.71c-1.32,0-2.06.76-2.06,1.67s.74,1.48,2.34,2.09c2.13.81,3.22,1.87,3.22,3.7,0,2.16-1.67,3.68-4.59,3.68a7.13,7.13,0,0,1-3.46-.83Z"/><path class="cls-3" d="M356.93,439.1a1.39,1.39,0,0,1-2.77,0,1.36,1.36,0,0,1,1.4-1.4A1.33,1.33,0,0,1,356.93,439.1Zm-2.49,15.74V442.55h2.23v12.29Z"/><path class="cls-3" d="M371,442.55c-.05.89-.1,1.88-.1,3.38v7.13c0,2.82-.56,4.55-1.76,5.61a6.49,6.49,0,0,1-4.46,1.48,7.92,7.92,0,0,1-4.09-1l.56-1.7a6.89,6.89,0,0,0,3.6,1c2.29,0,4-1.19,4-4.29v-1.37h-.05a4.36,4.36,0,0,1-3.91,2.06c-3.05,0-5.23-2.59-5.23-6,0-4.17,2.72-6.53,5.54-6.53a4.09,4.09,0,0,1,3.83,2.13h.05l.1-1.85Zm-2.31,4.85a3.17,3.17,0,0,0-.13-1,3.22,3.22,0,0,0-3.12-2.37c-2.14,0-3.66,1.81-3.66,4.65,0,2.41,1.22,4.42,3.63,4.42a3.27,3.27,0,0,0,3.1-2.29,3.78,3.78,0,0,0,.18-1.19Z"/><path class="cls-3" d="M374.42,445.88c0-1.27,0-2.31-.1-3.33h2l.12,2h.06a4.5,4.5,0,0,1,4.06-2.31c1.7,0,4.34,1,4.34,5.23v7.34h-2.23v-7.08c0-2-.74-3.63-2.85-3.63a3.17,3.17,0,0,0-3,2.28,3,3,0,0,0-.16,1v7.39h-2.23Z"/><path class="cls-3" d="M275.15,509.84l-5.58-17.11H272l2.67,8.43c.73,2.31,1.37,4.39,1.83,6.4h.05c.48-2,1.19-4.14,1.95-6.38l2.9-8.45h2.36l-6.12,17.11Z"/><path class="cls-3" d="M285.89,504.1c.05,3,2,4.27,4.22,4.27a8,8,0,0,0,3.4-.64l.38,1.6a9.89,9.89,0,0,1-4.09.76c-3.78,0-6-2.48-6-6.19s2.18-6.63,5.76-6.63c4,0,5.08,3.53,5.08,5.79a7.43,7.43,0,0,1-.08,1Zm6.55-1.6c0-1.42-.58-3.63-3.1-3.63-2.26,0-3.25,2.08-3.42,3.63Z"/><path class="cls-3" d="M297.37,491.81h2.23v7.67h0a4.23,4.23,0,0,1,1.6-1.57,4.62,4.62,0,0,1,2.29-.64c1.65,0,4.29,1,4.29,5.26v7.31h-2.24v-7.06c0-2-.73-3.65-2.84-3.65a3.21,3.21,0,0,0-3,2.23,2.82,2.82,0,0,0-.15,1.07v7.41h-2.23Z"/><path class="cls-3" d="M314,494.1a1.39,1.39,0,0,1-2.77,0,1.36,1.36,0,0,1,1.39-1.4A1.33,1.33,0,0,1,314,494.1Zm-2.49,15.74V497.55h2.23v12.29Z"/><path class="cls-3" d="M326.16,509.38a8.18,8.18,0,0,1-3.53.71c-3.71,0-6.12-2.51-6.12-6.27a6.24,6.24,0,0,1,6.6-6.52,7.57,7.57,0,0,1,3.1.63l-.51,1.73a5.1,5.1,0,0,0-2.59-.59c-2.82,0-4.34,2.09-4.34,4.65,0,2.84,1.83,4.6,4.26,4.6a6.39,6.39,0,0,0,2.75-.61Z"/><path class="cls-3" d="M339.05,506.49c0,1.27,0,2.39.11,3.35h-2l-.13-2H337a4.64,4.64,0,0,1-4.06,2.29c-1.93,0-4.24-1.07-4.24-5.38v-7.19h2.23v6.81c0,2.33.71,3.91,2.74,3.91a3.25,3.25,0,0,0,2.95-2,3.4,3.4,0,0,0,.2-1.14v-7.54h2.23Z"/><path class="cls-3" d="M342.76,491.81H345v18h-2.24Z"/><path class="cls-3" d="M355.56,509.84l-.18-1.55h-.08a4.55,4.55,0,0,1-3.76,1.83,3.5,3.5,0,0,1-3.75-3.53c0-3,2.64-4.6,7.39-4.57v-.25a2.54,2.54,0,0,0-2.8-2.85,6.14,6.14,0,0,0-3.2.92l-.5-1.48a7.58,7.58,0,0,1,4-1.09c3.76,0,4.67,2.57,4.67,5v4.59a17.55,17.55,0,0,0,.21,2.95Zm-.33-6.27c-2.44-.05-5.21.38-5.21,2.77a2,2,0,0,0,2.11,2.13,3.06,3.06,0,0,0,3-2.06,2.22,2.22,0,0,0,.13-.71Z"/><path class="cls-3" d="M361,501.39c0-1.45,0-2.7-.1-3.84h1.95l.08,2.41h.1a3.68,3.68,0,0,1,3.4-2.69,2.49,2.49,0,0,1,.64.08v2.11a2.91,2.91,0,0,0-.76-.08,3.13,3.13,0,0,0-3,2.87,6.33,6.33,0,0,0-.1,1v6.55H361Z"/><path class="cls-3" d="M374.67,501.39c0-1.45,0-2.7-.1-3.84h2l.07,2.41h.1a3.69,3.69,0,0,1,3.41-2.69,2.41,2.41,0,0,1,.63.08v2.11a2.91,2.91,0,0,0-.76-.08,3.14,3.14,0,0,0-3,2.87,6.33,6.33,0,0,0-.1,1v6.55h-2.21Z"/><path class="cls-3" d="M384,504.1c0,3,2,4.27,4.21,4.27a8,8,0,0,0,3.4-.64l.38,1.6a9.83,9.83,0,0,1-4.08.76c-3.79,0-6.05-2.48-6.05-6.19s2.19-6.63,5.77-6.63c4,0,5.07,3.53,5.07,5.79a10,10,0,0,1-.07,1Zm6.55-1.6c0-1.42-.59-3.63-3.1-3.63-2.26,0-3.25,2.08-3.43,3.63Z"/><path class="cls-3" d="M395.14,507.56a5.84,5.84,0,0,0,2.94.88c1.63,0,2.39-.81,2.39-1.82s-.64-1.65-2.29-2.26c-2.21-.79-3.25-2-3.25-3.48,0-2,1.6-3.61,4.24-3.61a6.23,6.23,0,0,1,3,.76l-.56,1.63a4.76,4.76,0,0,0-2.52-.71c-1.32,0-2.05.76-2.05,1.67s.73,1.48,2.33,2.09c2.14.81,3.23,1.87,3.23,3.7,0,2.16-1.68,3.68-4.6,3.68a7.09,7.09,0,0,1-3.45-.83Z"/><path class="cls-3" d="M416.62,503.59c0,4.55-3.15,6.53-6.12,6.53-3.33,0-5.89-2.44-5.89-6.32,0-4.12,2.69-6.53,6.09-6.53S416.62,499.84,416.62,503.59Zm-9.75.13c0,2.69,1.54,4.72,3.73,4.72s3.73-2,3.73-4.77c0-2.08-1-4.72-3.68-4.72S406.87,501.39,406.87,503.72Z"/><path class="cls-3" d="M429.72,506.49c0,1.27,0,2.39.1,3.35h-2l-.13-2h0a4.62,4.62,0,0,1-4.06,2.29c-1.93,0-4.24-1.07-4.24-5.38v-7.19h2.23v6.81c0,2.33.71,3.91,2.74,3.91a3.25,3.25,0,0,0,2.95-2,3.17,3.17,0,0,0,.2-1.14v-7.54h2.24Z"/><path class="cls-3" d="M433.42,501.39c0-1.45,0-2.7-.1-3.84h2l.07,2.41h.1a3.69,3.69,0,0,1,3.41-2.69,2.41,2.41,0,0,1,.63.08v2.11a2.91,2.91,0,0,0-.76-.08,3.14,3.14,0,0,0-3,2.87,6.33,6.33,0,0,0-.1,1v6.55h-2.21Z"/><path class="cls-3" d="M450.23,509.38a8.14,8.14,0,0,1-3.53.71c-3.71,0-6.12-2.51-6.12-6.27a6.24,6.24,0,0,1,6.6-6.52,7.57,7.57,0,0,1,3.1.63l-.51,1.73a5.1,5.1,0,0,0-2.59-.59c-2.81,0-4.34,2.09-4.34,4.65,0,2.84,1.83,4.6,4.27,4.6a6.34,6.34,0,0,0,2.74-.61Z"/><path class="cls-3" d="M453.94,504.1c.05,3,2,4.27,4.21,4.27a8,8,0,0,0,3.4-.64l.38,1.6a9.83,9.83,0,0,1-4.08.76c-3.79,0-6.05-2.48-6.05-6.19s2.19-6.63,5.77-6.63c4,0,5.08,3.53,5.08,5.79a9.4,9.4,0,0,1-.08,1Zm6.55-1.6c0-1.42-.59-3.63-3.1-3.63-2.26,0-3.25,2.08-3.43,3.63Z"/><path class="cls-3" d="M470.79,500.88c0-1.27,0-2.31-.1-3.33h2l.1,2h.08a4.21,4.21,0,0,1,3.85-2.26,3.63,3.63,0,0,1,3.48,2.46h0a5.16,5.16,0,0,1,1.37-1.59,4.2,4.2,0,0,1,2.72-.87c1.63,0,4,1.07,4,5.33v7.24h-2.18v-7c0-2.36-.87-3.78-2.67-3.78a2.89,2.89,0,0,0-2.64,2,3.75,3.75,0,0,0-.18,1.12v7.59h-2.18v-7.36c0-2-.87-3.38-2.57-3.38a3.33,3.33,0,0,0-2.94,3.33v7.41h-2.19Z"/><path class="cls-3" d="M498.77,509.84l-.18-1.55h-.07a4.58,4.58,0,0,1-3.76,1.83,3.5,3.5,0,0,1-3.76-3.53c0-3,2.64-4.6,7.39-4.57v-.25a2.54,2.54,0,0,0-2.79-2.85,6.11,6.11,0,0,0-3.2.92l-.51-1.48a7.65,7.65,0,0,1,4-1.09c3.76,0,4.67,2.57,4.67,5v4.59a17.62,17.62,0,0,0,.2,2.95Zm-.33-6.27c-2.44-.05-5.2.38-5.2,2.77a2,2,0,0,0,2.1,2.13,3.08,3.08,0,0,0,3-2.06,2.52,2.52,0,0,0,.12-.71Z"/><path class="cls-3" d="M504.21,500.88c0-1.27,0-2.31-.11-3.33h2l.13,2h.05a4.51,4.51,0,0,1,4.06-2.31c1.71,0,4.35,1,4.35,5.23v7.34h-2.24v-7.08c0-2-.73-3.63-2.84-3.63a3.18,3.18,0,0,0-3,2.28,3.26,3.26,0,0,0-.15,1v7.39h-2.23Z"/><path class="cls-3" d="M525.1,509.84l-.18-1.55h-.07a4.58,4.58,0,0,1-3.76,1.83,3.5,3.5,0,0,1-3.76-3.53c0-3,2.64-4.6,7.39-4.57v-.25a2.54,2.54,0,0,0-2.79-2.85,6.09,6.09,0,0,0-3.2.92l-.51-1.48a7.65,7.65,0,0,1,4-1.09c3.75,0,4.67,2.57,4.67,5v4.59a17.62,17.62,0,0,0,.2,2.95Zm-.33-6.27c-2.44-.05-5.2.38-5.2,2.77a2,2,0,0,0,2.1,2.13,3.05,3.05,0,0,0,3-2.06,2.22,2.22,0,0,0,.13-.71Z"/><path class="cls-3" d="M541.12,497.55c0,.89-.1,1.88-.1,3.38v7.13c0,2.82-.56,4.55-1.75,5.61a6.52,6.52,0,0,1-4.47,1.48,8,8,0,0,1-4.09-1l.56-1.7a6.89,6.89,0,0,0,3.6,1c2.29,0,4-1.19,4-4.29v-1.37h-.05a4.39,4.39,0,0,1-3.92,2.06c-3,0-5.23-2.59-5.23-6,0-4.17,2.72-6.53,5.54-6.53A4.09,4.09,0,0,1,539,499.4h0l.11-1.85Zm-2.31,4.85a2.91,2.91,0,0,0-.13-1,3.21,3.21,0,0,0-3.12-2.37c-2.13,0-3.66,1.81-3.66,4.65,0,2.41,1.22,4.42,3.64,4.42a3.26,3.26,0,0,0,3.09-2.29,3.78,3.78,0,0,0,.18-1.19Z"/><path class="cls-3" d="M546,504.1c0,3,2,4.27,4.21,4.27a8,8,0,0,0,3.41-.64l.38,1.6a9.93,9.93,0,0,1-4.09.76c-3.78,0-6-2.48-6-6.19s2.18-6.63,5.76-6.63c4,0,5.08,3.53,5.08,5.79a7.43,7.43,0,0,1-.08,1Zm6.55-1.6c0-1.42-.58-3.63-3.1-3.63-2.26,0-3.25,2.08-3.43,3.63Z"/><path class="cls-3" d="M557.44,500.88c0-1.27,0-2.31-.1-3.33h2l.1,2h.08a4.21,4.21,0,0,1,3.85-2.26,3.63,3.63,0,0,1,3.48,2.46h.05a5.18,5.18,0,0,1,1.38-1.59,4.15,4.15,0,0,1,2.71-.87c1.63,0,4,1.07,4,5.33v7.24h-2.18v-7c0-2.36-.87-3.78-2.67-3.78a2.89,2.89,0,0,0-2.64,2,3.75,3.75,0,0,0-.18,1.12v7.59h-2.18v-7.36c0-2-.87-3.38-2.57-3.38a3.33,3.33,0,0,0-2.94,3.33v7.41h-2.19Z"/><path class="cls-3" d="M579.86,504.1c0,3,2,4.27,4.22,4.27a8,8,0,0,0,3.4-.64l.38,1.6a9.89,9.89,0,0,1-4.09.76c-3.78,0-6-2.48-6-6.19s2.18-6.63,5.76-6.63c4,0,5.08,3.53,5.08,5.79a10,10,0,0,1-.07,1Zm6.55-1.6c0-1.42-.58-3.63-3.09-3.63-2.26,0-3.25,2.08-3.43,3.63Z"/><path class="cls-3" d="M591.34,500.88c0-1.27,0-2.31-.1-3.33h2l.12,2h0a4.53,4.53,0,0,1,4.07-2.31c1.7,0,4.34,1,4.34,5.23v7.34h-2.24v-7.08c0-2-.73-3.63-2.84-3.63a3.19,3.19,0,0,0-3,2.28,3.26,3.26,0,0,0-.15,1v7.39h-2.23Z"/><path class="cls-3" d="M608,494v3.53h3.2v1.7H608v6.63c0,1.52.43,2.39,1.67,2.39a4.76,4.76,0,0,0,1.3-.16l.1,1.68a5.44,5.44,0,0,1-2,.3,3.09,3.09,0,0,1-2.41-.94,4.51,4.51,0,0,1-.87-3.19v-6.71h-1.9v-1.7h1.9v-2.94Z"/><path class="cls-3" d="M625.92,509.84l-.18-1.55h-.08a4.54,4.54,0,0,1-3.75,1.83,3.5,3.5,0,0,1-3.76-3.53c0-3,2.64-4.6,7.39-4.57v-.25a2.54,2.54,0,0,0-2.8-2.85,6.14,6.14,0,0,0-3.2.92l-.5-1.48a7.58,7.58,0,0,1,4-1.09c3.76,0,4.68,2.57,4.68,5v4.59a17.62,17.62,0,0,0,.2,2.95Zm-.33-6.27c-2.44-.05-5.21.38-5.21,2.77a2,2,0,0,0,2.11,2.13,3.06,3.06,0,0,0,3-2.06,2.22,2.22,0,0,0,.13-.71Z"/><path class="cls-3" d="M631.35,500.88c0-1.27,0-2.31-.1-3.33h2l.13,2h0a4.51,4.51,0,0,1,4.06-2.31c1.7,0,4.34,1,4.34,5.23v7.34h-2.23v-7.08c0-2-.74-3.63-2.85-3.63a3.17,3.17,0,0,0-3,2.28,3,3,0,0,0-.16,1v7.39h-2.23Z"/><path class="cls-3" d="M656.05,491.81v14.86c0,1.09,0,2.33.11,3.17h-2l-.1-2.13h0a4.56,4.56,0,0,1-4.19,2.41c-3,0-5.26-2.51-5.26-6.25,0-4.08,2.52-6.6,5.51-6.6a4.12,4.12,0,0,1,3.71,1.88h.05v-7.34Zm-2.23,10.74a4.29,4.29,0,0,0-.1-.94,3.29,3.29,0,0,0-3.23-2.59c-2.31,0-3.68,2-3.68,4.75,0,2.49,1.22,4.55,3.63,4.55a3.36,3.36,0,0,0,3.28-2.67,4.16,4.16,0,0,0,.1-1Z"/><path class="cls-3" d="M675.75,491.81v14.86c0,1.09,0,2.33.11,3.17h-2l-.1-2.13h0a4.56,4.56,0,0,1-4.19,2.41c-3,0-5.26-2.51-5.26-6.25,0-4.08,2.52-6.6,5.51-6.6a4.12,4.12,0,0,1,3.71,1.88h0v-7.34Zm-2.23,10.74a3.76,3.76,0,0,0-.1-.94,3.29,3.29,0,0,0-3.23-2.59c-2.31,0-3.68,2-3.68,4.75,0,2.49,1.22,4.55,3.63,4.55a3.36,3.36,0,0,0,3.28-2.67,3.68,3.68,0,0,0,.1-1Z"/><path class="cls-3" d="M686.27,509.84l-.18-1.55H686a4.55,4.55,0,0,1-3.76,1.83,3.5,3.5,0,0,1-3.75-3.53c0-3,2.64-4.6,7.38-4.57v-.25a2.53,2.53,0,0,0-2.79-2.85,6.14,6.14,0,0,0-3.2.92l-.51-1.48a7.65,7.65,0,0,1,4-1.09c3.76,0,4.67,2.57,4.67,5v4.59a16.55,16.55,0,0,0,.21,2.95Zm-.33-6.27c-2.44-.05-5.21.38-5.21,2.77a2,2,0,0,0,2.11,2.13,3.06,3.06,0,0,0,3-2.06,2.53,2.53,0,0,0,.13-.71Z"/><path class="cls-3" d="M694.29,494v3.53h3.2v1.7h-3.2v6.63c0,1.52.43,2.39,1.67,2.39a4.76,4.76,0,0,0,1.3-.16l.1,1.68a5.44,5.44,0,0,1-2,.3,3.09,3.09,0,0,1-2.41-.94,4.51,4.51,0,0,1-.87-3.19v-6.71h-1.9v-1.7h1.9v-2.94Z"/><path class="cls-3" d="M706.8,509.84l-.17-1.55h-.08a4.56,4.56,0,0,1-3.76,1.83,3.49,3.49,0,0,1-3.75-3.53c0-3,2.64-4.6,7.38-4.57v-.25a2.54,2.54,0,0,0-2.79-2.85,6.11,6.11,0,0,0-3.2.92l-.51-1.48a7.65,7.65,0,0,1,4-1.09c3.76,0,4.67,2.57,4.67,5v4.59a16.55,16.55,0,0,0,.21,2.95Zm-.33-6.27c-2.43-.05-5.2.38-5.2,2.77a2,2,0,0,0,2.11,2.13,3.06,3.06,0,0,0,3-2.06,2.52,2.52,0,0,0,.12-.71Z"/><path class="cls-3" d="M271.32,525.88c0-1.27,0-2.31-.1-3.33h2l.12,2h.05a4.53,4.53,0,0,1,4.07-2.31c1.7,0,4.34,1,4.34,5.23v7.34h-2.24v-7.08c0-2-.73-3.63-2.84-3.63a3.18,3.18,0,0,0-3,2.28,3.26,3.26,0,0,0-.15,1v7.39h-2.23Z"/><path class="cls-3" d="M286.65,529.1c.05,3,2,4.27,4.22,4.27a8,8,0,0,0,3.4-.64l.38,1.6a9.89,9.89,0,0,1-4.09.76c-3.78,0-6-2.48-6-6.19s2.18-6.63,5.76-6.63c4,0,5.08,3.53,5.08,5.79a10,10,0,0,1-.07,1Zm6.55-1.6c0-1.42-.58-3.63-3.09-3.63-2.26,0-3.25,2.08-3.43,3.63Z"/><path class="cls-3" d="M300.82,519v3.53H304v1.7h-3.2v6.63c0,1.52.43,2.39,1.68,2.39a4.73,4.73,0,0,0,1.29-.16l.1,1.68a5.44,5.44,0,0,1-2,.3,3.09,3.09,0,0,1-2.41-.94,4.51,4.51,0,0,1-.86-3.19v-6.71h-1.91v-1.7h1.91v-2.94Z"/><path class="cls-3" d="M307.65,522.55l1.62,6.25c.36,1.37.69,2.64.92,3.91h.07c.28-1.25.69-2.57,1.1-3.89l2-6.27h1.88l1.9,6.15c.46,1.47.82,2.76,1.1,4h.07a40.22,40.22,0,0,1,.94-4l1.75-6.17h2.21l-4,12.29h-2L315.34,529a39.71,39.71,0,0,1-1.09-4h-.05a38,38,0,0,1-1.12,4.06l-2,5.84h-2l-3.71-12.29Z"/><path class="cls-3" d="M336.31,528.59c0,4.55-3.15,6.53-6.12,6.53-3.32,0-5.89-2.44-5.89-6.32,0-4.12,2.69-6.53,6.1-6.53S336.31,524.84,336.31,528.59Zm-9.75.13c0,2.69,1.55,4.72,3.73,4.72s3.74-2,3.74-4.77c0-2.08-1-4.72-3.68-4.72S326.56,526.39,326.56,528.72Z"/><path class="cls-3" d="M339.13,526.39c0-1.45,0-2.7-.1-3.84h2l.08,2.41h.1a3.69,3.69,0,0,1,3.4-2.69,2.43,2.43,0,0,1,.64.08v2.11a2.91,2.91,0,0,0-.76-.08,3.13,3.13,0,0,0-3,2.87,6.33,6.33,0,0,0-.1,1v6.55h-2.21Z"/><path class="cls-3" d="M349.74,528.19h.05c.31-.43.74-1,1.09-1.4l3.61-4.24h2.69l-4.75,5.05,5.41,7.24h-2.72L350.88,529l-1.14,1.27v4.62h-2.21v-18h2.21Z"/><path class="cls-3" d="M362.36,519.1a1.31,1.31,0,0,1-1.42,1.37,1.33,1.33,0,0,1-1.35-1.37,1.37,1.37,0,0,1,1.4-1.4A1.33,1.33,0,0,1,362.36,519.1Zm-2.49,15.74V522.55h2.24v12.29Z"/><path class="cls-3" d="M365.81,525.88c0-1.27,0-2.31-.1-3.33h2l.13,2h.05a4.51,4.51,0,0,1,4.06-2.31c1.7,0,4.34,1,4.34,5.23v7.34H374v-7.08c0-2-.74-3.63-2.84-3.63a3.17,3.17,0,0,0-3,2.28,3.26,3.26,0,0,0-.15,1v7.39h-2.24Z"/><path class="cls-3" d="M390.49,522.55c-.05.89-.1,1.88-.1,3.38v7.13c0,2.82-.56,4.55-1.75,5.61a6.52,6.52,0,0,1-4.47,1.48,8,8,0,0,1-4.09-1l.56-1.7a6.9,6.9,0,0,0,3.61,1c2.28,0,4-1.19,4-4.29v-1.37h0a4.38,4.38,0,0,1-3.91,2.06c-3.05,0-5.24-2.59-5.24-6,0-4.17,2.72-6.53,5.54-6.53a4.09,4.09,0,0,1,3.83,2.13h.05l.11-1.85Zm-2.31,4.85a2.91,2.91,0,0,0-.13-1,3.21,3.21,0,0,0-3.12-2.37c-2.13,0-3.66,1.81-3.66,4.65,0,2.41,1.22,4.42,3.64,4.42A3.26,3.26,0,0,0,388,530.8a3.78,3.78,0,0,0,.18-1.19Z"/><path class="cls-3" d="M275.15,589.84l-5.58-17.11H272l2.67,8.43c.73,2.31,1.37,4.39,1.83,6.4h.05c.48-2,1.19-4.14,1.95-6.38l2.9-8.45h2.36l-6.12,17.11Z"/><path class="cls-3" d="M285.89,584.1c.05,3,2,4.27,4.22,4.27a8,8,0,0,0,3.4-.64l.38,1.6a9.89,9.89,0,0,1-4.09.76c-3.78,0-6-2.48-6-6.19s2.18-6.63,5.76-6.63c4,0,5.08,3.53,5.08,5.79a7.43,7.43,0,0,1-.08,1Zm6.55-1.6c0-1.42-.58-3.63-3.1-3.63-2.26,0-3.25,2.08-3.42,3.63Z"/><path class="cls-3" d="M297.37,571.81h2.23v7.67h0a4.23,4.23,0,0,1,1.6-1.57,4.62,4.62,0,0,1,2.29-.64c1.65,0,4.29,1,4.29,5.26v7.31h-2.24v-7.06c0-2-.73-3.65-2.84-3.65a3.21,3.21,0,0,0-3,2.23,2.82,2.82,0,0,0-.15,1.07v7.41h-2.23Z"/><path class="cls-3" d="M314,574.1a1.39,1.39,0,0,1-2.77,0,1.36,1.36,0,0,1,1.39-1.4A1.33,1.33,0,0,1,314,574.1Zm-2.49,15.74V577.55h2.23v12.29Z"/><path class="cls-3" d="M326.16,589.38a8.18,8.18,0,0,1-3.53.71c-3.71,0-6.12-2.51-6.12-6.27a6.24,6.24,0,0,1,6.6-6.52,7.57,7.57,0,0,1,3.1.63l-.51,1.73a5.1,5.1,0,0,0-2.59-.59c-2.82,0-4.34,2.09-4.34,4.65,0,2.84,1.83,4.6,4.26,4.6a6.39,6.39,0,0,0,2.75-.61Z"/><path class="cls-3" d="M328.77,571.81H331v18h-2.24Z"/><path class="cls-3" d="M336,584.1c.05,3,2,4.27,4.21,4.27a8,8,0,0,0,3.4-.64l.38,1.6a9.83,9.83,0,0,1-4.08.76c-3.79,0-6.05-2.48-6.05-6.19s2.19-6.63,5.77-6.63c4,0,5.08,3.53,5.08,5.79a9.4,9.4,0,0,1-.08,1Zm6.55-1.6c0-1.42-.59-3.63-3.1-3.63-2.26,0-3.25,2.08-3.43,3.63Z"/><path class="cls-3" d="M352.76,589.84c.05-.84.1-2.08.1-3.17V571.81h2.21v7.72h.05a4.58,4.58,0,0,1,4.19-2.26c3.05,0,5.21,2.54,5.18,6.27,0,4.4-2.76,6.58-5.51,6.58a4.38,4.38,0,0,1-4.11-2.31h-.08l-.1,2Zm2.31-4.93a4.38,4.38,0,0,0,.1.82,3.45,3.45,0,0,0,3.36,2.61c2.33,0,3.73-1.9,3.73-4.72,0-2.46-1.27-4.57-3.66-4.57a3.56,3.56,0,0,0-3.4,2.74,4.52,4.52,0,0,0-.13.92Z"/><path class="cls-3" d="M368.55,584.1c.05,3,2,4.27,4.22,4.27a8,8,0,0,0,3.4-.64l.38,1.6a9.89,9.89,0,0,1-4.09.76c-3.78,0-6-2.48-6-6.19s2.18-6.63,5.76-6.63c4,0,5.08,3.53,5.08,5.79a10,10,0,0,1-.07,1Zm6.55-1.6c0-1.42-.58-3.63-3.09-3.63-2.26,0-3.25,2.08-3.43,3.63Z"/><path class="cls-3" d="M380,571.81h2.23v7.67h.05a4.23,4.23,0,0,1,1.6-1.57,4.62,4.62,0,0,1,2.29-.64c1.65,0,4.29,1,4.29,5.26v7.31h-2.23v-7.06c0-2-.74-3.65-2.85-3.65a3.19,3.19,0,0,0-3,2.23,2.62,2.62,0,0,0-.16,1.07v7.41H380Z"/><path class="cls-3" d="M400.92,589.84l-.17-1.55h-.08a4.56,4.56,0,0,1-3.76,1.83,3.49,3.49,0,0,1-3.75-3.53c0-3,2.64-4.6,7.38-4.57v-.25a2.54,2.54,0,0,0-2.79-2.85,6.11,6.11,0,0,0-3.2.92l-.51-1.48a7.65,7.65,0,0,1,4-1.09c3.76,0,4.67,2.57,4.67,5v4.59a16.55,16.55,0,0,0,.21,3Zm-.33-6.27c-2.43-.05-5.2.38-5.2,2.77a2,2,0,0,0,2.11,2.13,3.06,3.06,0,0,0,3-2.06,2.52,2.52,0,0,0,.12-.71Z"/><path class="cls-3" d="M407,577.55l2.41,6.91a28.92,28.92,0,0,1,1,3.15h.08c.28-1,.63-2,1-3.15l2.38-6.91h2.34l-4.82,12.29H409.3l-4.67-12.29Z"/><path class="cls-3" d="M420.85,574.1a1.31,1.31,0,0,1-1.42,1.37,1.33,1.33,0,0,1-1.34-1.37,1.36,1.36,0,0,1,1.39-1.4A1.33,1.33,0,0,1,420.85,574.1Zm-2.48,15.74V577.55h2.23v12.29Z"/><path class="cls-3" d="M435.43,583.59c0,4.55-3.15,6.53-6.12,6.53-3.33,0-5.89-2.44-5.89-6.32,0-4.12,2.69-6.53,6.09-6.53S435.43,579.84,435.43,583.59Zm-9.75.13c0,2.69,1.55,4.72,3.73,4.72s3.73-2,3.73-4.77c0-2.08-1-4.72-3.68-4.72S425.68,581.39,425.68,583.72Z"/><path class="cls-3" d="M438.25,581.39c0-1.45,0-2.7-.11-3.84h2l.07,2.41h.11a3.67,3.67,0,0,1,3.4-2.69,2.41,2.41,0,0,1,.63.08v2.11a2.86,2.86,0,0,0-.76-.08,3.13,3.13,0,0,0-3,2.87,5.35,5.35,0,0,0-.11,1v6.55h-2.2Z"/><path class="cls-3" d="M451.93,580.88c0-1.27,0-2.31-.1-3.33h1.95l.1,2H454a4.24,4.24,0,0,1,3.86-2.26,3.64,3.64,0,0,1,3.48,2.46h.05a5,5,0,0,1,1.37-1.59,4.2,4.2,0,0,1,2.72-.87c1.62,0,4,1.07,4,5.33v7.24h-2.18v-7c0-2.36-.86-3.78-2.67-3.78a2.89,2.89,0,0,0-2.64,2,3.77,3.77,0,0,0-.17,1.12v7.59h-2.19v-7.36c0-2-.86-3.38-2.56-3.38a3.33,3.33,0,0,0-2.95,3.33v7.41h-2.18Z"/><path class="cls-3" d="M484.22,583.59c0,4.55-3.14,6.53-6.12,6.53-3.32,0-5.89-2.44-5.89-6.32,0-4.12,2.7-6.53,6.1-6.53S484.22,579.84,484.22,583.59Zm-9.75.13c0,2.69,1.55,4.72,3.74,4.72s3.73-2,3.73-4.77c0-2.08-1-4.72-3.68-4.72S474.47,581.39,474.47,583.72Z"/><path class="cls-3" d="M497.66,571.81v14.86c0,1.09,0,2.33.1,3.17h-2l-.1-2.13h0a4.56,4.56,0,0,1-4.19,2.41c-3,0-5.26-2.51-5.26-6.25,0-4.08,2.52-6.6,5.51-6.6a4.12,4.12,0,0,1,3.71,1.88h.05v-7.34Zm-2.24,10.74a3.76,3.76,0,0,0-.1-.94,3.29,3.29,0,0,0-3.23-2.59c-2.31,0-3.68,2-3.68,4.75,0,2.49,1.22,4.55,3.63,4.55a3.36,3.36,0,0,0,3.28-2.67,3.68,3.68,0,0,0,.1-1Z"/><path class="cls-3" d="M502.6,584.1c.06,3,2,4.27,4.22,4.27a8,8,0,0,0,3.4-.64l.38,1.6a9.85,9.85,0,0,1-4.09.76c-3.78,0-6-2.48-6-6.19s2.19-6.63,5.77-6.63c4,0,5.07,3.53,5.07,5.79a10,10,0,0,1-.07,1Zm6.56-1.6c0-1.42-.59-3.63-3.1-3.63-2.26,0-3.25,2.08-3.43,3.63Z"/><path class="cls-3" d="M514.08,571.81h2.24v18h-2.24Z"/><path class="cls-3" d="M522.56,574.1a1.39,1.39,0,0,1-2.77,0,1.37,1.37,0,0,1,1.4-1.4A1.33,1.33,0,0,1,522.56,574.1Zm-2.49,15.74V577.55h2.24v12.29Z"/><path class="cls-3" d="M526,580.88c0-1.27,0-2.31-.1-3.33h2l.13,2h.05a4.51,4.51,0,0,1,4.06-2.31c1.7,0,4.34,1,4.34,5.23v7.34h-2.23v-7.08c0-2-.74-3.63-2.84-3.63a3.17,3.17,0,0,0-3,2.28,3.26,3.26,0,0,0-.15,1v7.39H526Z"/><path class="cls-3" d="M550.69,577.55c-.05.89-.1,1.88-.1,3.38v7.13c0,2.82-.56,4.55-1.75,5.61a6.52,6.52,0,0,1-4.47,1.48,8,8,0,0,1-4.09-1l.56-1.7a6.89,6.89,0,0,0,3.6,1c2.29,0,4-1.19,4-4.29v-1.37h-.06a4.36,4.36,0,0,1-3.91,2.06c-3,0-5.23-2.59-5.23-6,0-4.17,2.72-6.53,5.54-6.53a4.09,4.09,0,0,1,3.83,2.13h0l.11-1.85Zm-2.31,4.85a3.17,3.17,0,0,0-.13-1,3.22,3.22,0,0,0-3.12-2.37c-2.13,0-3.66,1.81-3.66,4.65,0,2.41,1.22,4.42,3.63,4.42a3.27,3.27,0,0,0,3.1-2.29,3.78,3.78,0,0,0,.18-1.19Z"/><path class="cls-3" d="M123.81,289a7.28,7.28,0,0,0-1.11-1.86q-11.42-10.38-22.9-20.69a1.59,1.59,0,0,0-.24-.17l-3.26,3.07-3-10.42,10.65,2.59-2.73,2.92,17.5,15.8.15-.1c-.15-.28-.3-.56-.46-.84-2.18-3.78-4.36-7.57-6.55-11.34-2.4-4.13-3.12-8.44-1.41-13a14.59,14.59,0,0,1,17.15-9,14.39,14.39,0,0,1,10.89,16,16.26,16.26,0,0,1-1.91,5.38c-4.1,7.28-8.34,14.49-12.54,21.72Zm.12-4.84a2.35,2.35,0,0,0,.27-.3c3.51-6.05,7.07-12.07,10.49-18.17a11.24,11.24,0,0,0-.29-12,12.12,12.12,0,0,0-15.77-4.51,12,12,0,0,0-5.93,15.1,29.57,29.57,0,0,0,1.86,3.63C117.66,273.31,120.78,278.69,123.93,284.16Z"/><path class="cls-3" d="M140.55,218.3c-.79,4.17-3.58,7.34-5.46,11-1,2-2.24,3.91-3.43,6-.2-.29-.37-.5-.5-.73-2.29-4-4.54-7.95-6.88-11.89a8.81,8.81,0,0,1,4.56-13.16l1.29-.43h3l.95.32a8.65,8.65,0,0,1,6,5.91c.21.63.32,1.3.47,2Zm-9,12.16c.18-.24.26-.33.32-.43,1.74-3,3.53-6,5.18-9a8.13,8.13,0,0,0,1-3.24,6.33,6.33,0,0,0-4-6,6.47,6.47,0,0,0-7,1.52,6.06,6.06,0,0,0-1.15,7C127.66,223.75,129.62,227,131.58,230.46Z"/><path class="cls-3" d="M88,254.89,82.3,245c-1.25-2.17-2.54-4.32-3.75-6.52-2.72-4.94-2-10.36,1.77-14a11.36,11.36,0,0,1,14.8-.94,11.1,11.1,0,0,1,3.1,14.38c-2.07,3.77-4.29,7.46-6.45,11.19-.16.28-.31.57-.59,1.08L118,237.89,116.37,234l10.89,1.25-6.54,8.81-1.76-4-5.41,2.46c-7.74,3.54-15.48,7.06-23.2,10.64A14,14,0,0,0,88,254.89Zm.19-4.42c2.82-4.93,5.55-9.67,8.22-14.44a7.16,7.16,0,0,0,.66-5.06,8.63,8.63,0,0,0-6.59-7.05,8.46,8.46,0,0,0-9.17,3,8.27,8.27,0,0,0-1,9.79C82.84,241.27,85.53,245.76,88.23,250.47Z"/><path class="cls-3" d="M116.55,260.25a7.49,7.49,0,1,1,7.51,7.51A7.51,7.51,0,0,1,116.55,260.25Zm2.39,0a5.12,5.12,0,1,0,5.06-5.11A5.14,5.14,0,0,0,118.94,260.25Z"/><path class="cls-3" d="M131.69,222.64a4.78,4.78,0,1,1,4.74-4.8A4.75,4.75,0,0,1,131.69,222.64Zm2.35-4.72a2.38,2.38,0,0,0-2.36-2.45,2.41,2.41,0,0,0-.09,4.82A2.39,2.39,0,0,0,134,217.92Z"/><path class="cls-3" d="M82.29,232.7a6,6,0,1,1,6,6A6,6,0,0,1,82.29,232.7Zm9.55,0a3.58,3.58,0,0,0-3.59-3.59,3.62,3.62,0,0,0,0,7.23A3.6,3.6,0,0,0,91.84,232.71Z"/><path class="cls-3" d="M105.63,89.83h19.45a10.38,10.38,0,0,1,5-7.46,10,10,0,0,1,6.12-1.46c5.05.45,8.45,3.62,9.61,9h6.76V87c0-2.43,0-4.86,0-7.3a1.22,1.22,0,0,0-.94-1.36q-7.38-3-14.74-6.16a3,3,0,0,1-1.3-1.11c-2.19-3.5-4.31-7-6.51-10.65l2.15-1.28c.21.34.42.63.6.93,1.82,3,3.62,6,5.48,9a3.26,3.26,0,0,0,1.37,1.18c5.11,2.18,10.25,4.3,15.37,6.44l1,.44V92.33H143.31c.13-3-.74-5.64-3.3-7.47a7.59,7.59,0,0,0-5.18-1.43,7.72,7.72,0,0,0-5.52,2.87,8.56,8.56,0,0,0-1.75,6H103.11a8,8,0,0,0-2.84-7.14,7.91,7.91,0,0,0-11,1,8.05,8.05,0,0,0-1.8,6.12H80c0-.29-.06-.58-.06-.87,0-6,0-12,0-18a1.23,1.23,0,0,1,.87-1.32q3.69-1.66,7.32-3.44a3.29,3.29,0,0,0,1.25-1.06q2.88-4.14,5.68-8.34a1.5,1.5,0,0,1,1.46-.76c4.6,0,9.2,0,13.8,0h1.33V54l10.26,5.83-10.2,5.82V61h-1.43c-4.13,0-8.27,0-12.4,0a1.5,1.5,0,0,0-1.46.76q-2.62,4-5.33,7.85a3.26,3.26,0,0,1-1.18,1c-2.21,1.08-4.46,2.09-6.67,3.17a1.34,1.34,0,0,0-.69.89c0,5,0,10,0,15.08h2.37c1.66-6.22,5.63-9.61,12.28-8.66C101.89,81.8,104.63,85,105.63,89.83Z"/><path class="cls-3" d="M97.87,30.87,96.16,29c.69-.57,1.3-1.12,2-1.62a30.51,30.51,0,0,1,13.45-6,1.23,1.23,0,0,0,1.08-1,5.14,5.14,0,0,1,9.69,0,1.34,1.34,0,0,0,1.24,1A31.11,31.11,0,0,1,138,28.54c.2.17.43.31.69.49l-1.79,1.88a29.15,29.15,0,0,0-14.54-7.1A5.32,5.32,0,0,1,119,27a5.1,5.1,0,0,1-6-2.51.94.94,0,0,0-1.24-.56A29.1,29.1,0,0,0,98.4,30.43C98.26,30.56,98.1,30.68,97.87,30.87Zm17-8.74a2.63,2.63,0,1,0,2.63-2.66A2.61,2.61,0,0,0,114.87,22.13Z"/><path class="cls-3" d="M89.28,91.1a6,6,0,1,1,6,5.94A5.92,5.92,0,0,1,89.28,91.1Zm2.54,0a3.45,3.45,0,1,0,3.44-3.43A3.43,3.43,0,0,0,91.82,91.14Z"/><path class="cls-3" d="M135.57,85.22a5.91,5.91,0,1,1-6,6A5.93,5.93,0,0,1,135.57,85.22Zm0,9.31a3.48,3.48,0,0,0,3.46-3.43,3.48,3.48,0,0,0-6.95,0A3.46,3.46,0,0,0,135.61,94.53Z"/><path class="cls-3" d="M129.64,38.67a18.37,18.37,0,0,0-24.49,0l-1.66-1.76a20.59,20.59,0,0,1,27.82,0Z"/><path class="cls-3" d="M123.55,45.12l-1.63,1.74c-3-2.22-6-2.28-9.06,0l-1.63-1.72C114.17,41.88,120.42,41.88,123.55,45.12Z"/><path class="cls-3" d="M80,500.47c-.36-.12-.71-.26-1.06-.37A7.43,7.43,0,0,1,81,485.54q32.42,0,64.82,0a7.35,7.35,0,0,1,7.61,6.16,1.73,1.73,0,0,0,.18.36V494a31.69,31.69,0,0,1-2.06,4c-1,1.49-2.77,2-4.46,2.5Zm61.23-3c1.85,0,3.56.09,5.26,0a4.55,4.55,0,0,0,4.13-4.08,4.26,4.26,0,0,0-3-4.62,47.27,47.27,0,0,0-6.51-.44C143.84,491.73,143.84,494.13,141.21,497.49Zm-56.09,0c-2.69-3-2.63-6,0-9-1.46,0-2.75,0-4,0a4.51,4.51,0,0,0-.61,9A45.6,45.6,0,0,0,85.12,497.47Zm7.8-9c2.63,3,2.55,6,0,8.95h8.84c-2.65-3-2.61-5.93-.08-8.95Zm40.52,9c-2.66-3-2.62-6-.09-9h-7.88c2.19,2.62,2.78,5.6-.07,9Zm-15.91,0c-2.52-3-2.54-6,0-9h-7.93q3.9,4.53,0,9ZM86.05,493A2.91,2.91,0,0,0,89,495.9a3,3,0,0,0,3-2.91,2.95,2.95,0,1,0-5.89,0Zm22.53,0a2.95,2.95,0,1,0-5.89-.06,2.95,2.95,0,0,0,5.89.06Zm12.93,2.88a2.93,2.93,0,0,0,2.91-2.94,3,3,0,0,0-2.93-3,3.1,3.1,0,0,0-3,2.93A3,3,0,0,0,121.51,495.9ZM140.27,493a3,3,0,0,0-2.93-3,3,3,0,0,0-3,3,2.9,2.9,0,0,0,3,2.88A2.94,2.94,0,0,0,140.27,493Z"/><path class="cls-3" d="M147.49,412.55c-.53,1.92-1.06,3.83-1.61,5.74-.68,2.31-1.38,4.62-2.08,6.92l-3.56-3.4c-3.39,3.17-6.75,6.3-10.09,9.44a1.21,1.21,0,0,0-.34.81c0,1.36,0,2.73,0,4.23h4.27v8.06c.51,0,.92.06,1.33.06,3.75,0,7.5,0,11.25,0a1.17,1.17,0,0,1,1.31.86c.85,2.11,1.77,4.18,2.7,6.34L148,452.75c-.66-1.54-1.33-3-1.91-4.5a1.31,1.31,0,0,0-1.46-1c-4,.06-8.05.07-12.08.06-6.59,0-13.18,0-19.76-.06a1.47,1.47,0,0,0-1.67,1.13c-.53,1.44-1.2,2.83-1.85,4.36l-2.68-1.15c1-2.34,1.93-4.59,3-6.81.11-.24.69-.37,1.06-.37,3.72,0,7.43,0,11.14,0H123v-8h3.84c0-1.78,0-3.45,0-5.12a2,2,0,0,1,.75-1.71c3.37-3.11,6.72-6.25,10.08-9.37a6.11,6.11,0,0,1,.65-.43l-3.81-4.09c2.4-.57,4.64-1.09,6.87-1.64,2-.47,3.92-1,5.88-1.47ZM126.1,439.32v4.94h5v-4.94Z"/><path class="cls-3" d="M113.71,450.59h29.78v29.73H113.71Zm2.92,2.88v24h23.9v-24Z"/></svg>