<svg id="Layer_1" data-name="Layer 1" xmlns="http://www.w3.org/2000/svg" width="100" height="100" viewBox="0 0 100 100"><title>control </title><path d="M79.44,80.53V74.6L93.2,82.3,79.46,90V84H0V10H94.69V56.35c.54.23,1,.4,1.42.61a6.62,6.62,0,0,1,3.74,7.36,7,7,0,0,1-13.56.06A6.5,6.5,0,0,1,90.11,57a1.8,1.8,0,0,0,1.26-2q0-20,0-40V13.36h-88V80.53ZM93,66.5a3.53,3.53,0,1,0,.07-7A3.59,3.59,0,0,0,89.41,63,3.55,3.55,0,0,0,93,66.5Z"/><path d="M7.24,77.31v-49H87.91V52.2H84.59V31.57H10.67V74H71v3.27Z"/><path d="M58,51.12V47.33l9.75,5.45-9.68,5.43V54.46c-1.46,0-2.81,0-4.15,0-.23,0-.53.42-.65.7a7.23,7.23,0,0,1-3.93,3.87,1.58,1.58,0,0,0-.8,1.07c-.11,1.11,0,2.23,0,3.49h3.93c-1.92,3.25-3.72,6.26-5.63,9.47l-5.6-9.41h3.86c0-1.41,0-2.72,0-4,0-.2-.38-.47-.64-.57a7.09,7.09,0,0,1-4.11-4,1.2,1.2,0,0,0-.83-.63c-1.24-.06-2.48,0-3.81,0v3.81l-9.79-5.48,9.72-5.45v3.73h4.48a7.21,7.21,0,0,1,4.55-4.69.92.92,0,0,0,.45-.69c.05-1.2,0-2.39,0-3.75h-3.9l5.63-9.47,5.62,9.45H48.51c0,1.38,0,2.62,0,3.85a.93.93,0,0,0,.43.61c3.26,1.88,3.27,1.88,4.66,4.74Zm-7.63,1.72a3.48,3.48,0,0,0-3.53-3.6,3.6,3.6,0,0,0-3.66,3.54,3.5,3.5,0,0,0,3.52,3.51A3.44,3.44,0,0,0,50.37,52.84Z"/><path d="M11.9,16.44a4.56,4.56,0,1,1,0,9.12A4.71,4.71,0,0,1,7.17,21,4.67,4.67,0,0,1,11.9,16.44Zm.3,3.15h-.54c-.35.45-1,.92-1,1.34a1.8,1.8,0,0,0,1.12,1.24A1,1,0,0,0,13.1,21C13.05,20.51,12.52,20.06,12.2,19.59Z"/><path d="M18,21a4.58,4.58,0,0,1,4.59-4.56A4.64,4.64,0,0,1,27.34,21a4.7,4.7,0,0,1-4.75,4.58A4.62,4.62,0,0,1,18,21Zm5-1.41h-.55c-.33.45-.88.87-1,1.37a1,1,0,0,0,1.24,1.21A1.77,1.77,0,0,0,23.82,21C23.87,20.56,23.25,20.05,22.93,19.59Z"/><path d="M38.06,21a4.63,4.63,0,0,1-4.71,4.59,4.56,4.56,0,1,1,.08-9.12A4.57,4.57,0,0,1,38.06,21Zm-4.46-1.4-.56,0c-.29.48-.88,1-.81,1.42a1.73,1.73,0,0,0,1.17,1.15,1,1,0,0,0,1.2-1.25C34.5,20.42,34,20,33.6,19.57Z"/></svg>