<svg id="Layer_1" data-name="Layer 1" xmlns="http://www.w3.org/2000/svg" width="100" height="100" viewBox="0 0 100 100"><title>workflow</title><path d="M58.35,16.82a18.83,18.83,0,0,1,3.16,1.53,6.74,6.74,0,0,1,2.34,7.47,6.89,6.89,0,0,1-6.07,4.82,6.66,6.66,0,0,1-6.79-4,1.7,1.7,0,0,0-2-1.23c-2.12.08-4.23,0-6.35.05a1.3,1.3,0,0,0-1,.55,7.22,7.22,0,0,1-4.88,4.52V48H50.94V41.91c.62.32,1.07.55,1.5.79,2.87,1.63,5.73,3.28,8.62,4.87a3.89,3.89,0,0,0,1.77.51c5.12,0,10.24,0,15.36,0,.82,0,1.1-.22,1.08-1.06-.06-2.45,0-4.89,0-7.53H100V60.47l-19.26,0H79.29v-8.9c-.53,0-.92-.08-1.31-.08-4.86,0-9.72,0-14.58,0a4.51,4.51,0,0,0-2.09.57c-3.12,1.77-6.2,3.63-9.3,5.45L51,58V51.53H36.81v18A7.14,7.14,0,0,1,41.66,74a1,1,0,0,0,.7.51c2.7,0,5.41,0,8.13,0a7,7,0,0,1,13.34-.46,6.91,6.91,0,0,1-4.47,8.73c-.34.11-.67.26-1,.38H56.12c-2.74-.82-4.82-2.36-5.62-5.3-2.12,0-4.2.07-6.27,0-1.48-.06-2.72,0-3.17,1.79a2.74,2.74,0,0,1-1.13,1.47c-1.23.77-2.56,1.39-3.85,2.07h-2l-.93-.31a6.65,6.65,0,0,1-4.79-5.09A6.54,6.54,0,0,1,30.61,71a19.53,19.53,0,0,1,2.71-1.64V51.51H20.86v8.92H19.25L0,60.47V39.53H21v8.52H33.35V30.49c-.33-.12-.62-.21-.89-.33a6.65,6.65,0,0,1-4.26-6.11,6.59,6.59,0,0,1,3.63-6.39,16.88,16.88,0,0,1,2-.84H36.3c2.56.79,4.55,2.2,5.41,4.88a.85.85,0,0,0,.67.4c2.69,0,5.39,0,8.1,0a7.42,7.42,0,0,1,5.64-5.3ZM17.51,43H3.45V57H17.51ZM82.6,43V57h14V43ZM35.05,20.16a3.6,3.6,0,1,0,3.66,3.56A3.63,3.63,0,0,0,35.05,20.16Zm0,59.66a3.7,3.7,0,0,0,3.63-3.6,3.74,3.74,0,0,0-3.64-3.61,3.61,3.61,0,1,0,0,7.21ZM53.68,23.71a3.53,3.53,0,0,0,3.52,3.64,3.6,3.6,0,0,0,.09-7.19A3.55,3.55,0,0,0,53.68,23.71Zm0,52.51a3.55,3.55,0,0,0,3.56,3.6,3.6,3.6,0,0,0,0-7.19A3.53,3.53,0,0,0,53.68,76.22Z"/></svg>