<svg id="Layer_1" data-name="Layer 1" xmlns="http://www.w3.org/2000/svg" viewBox="0 0 350.5 351"><defs><style>.cls-1{fill:#fbc2ba;}.cls-2{fill:#f16c51;}.cls-3{fill:#fff;}</style></defs><title>content-delivery-network</title><path class="cls-1" d="M221.2,135.15l-5.6-5.6L296.2,49A175,175,0,0,0,54.3,49l82,82-5.6,5.6-82-82a175,175,0,0,0,0,241.9l80.6-80.6,5.6,5.6-80.6,80.6a175,175,0,0,0,241.9,0L217,222.85l5.6-5.6,79.2,79.2a175,175,0,0,0,0-241.9l-80.6,80.6Z"/><circle id="_Path_" data-name="&lt;Path&gt;" class="cls-1" cx="175.3" cy="175.45" r="167.9"/><path class="cls-2" d="M128,133.75,53.8,59.55a167.88,167.88,0,0,0,0,231.8l74.2-74.2a63.08,63.08,0,0,1,0-83.4Zm89-5.6L291.2,54A167.88,167.88,0,0,0,59.4,54l74.2,74.2a63.08,63.08,0,0,1,83.4,0Zm-83.4,94.6L59.4,297a167.88,167.88,0,0,0,231.8,0L217,222.75a63.08,63.08,0,0,1-83.4,0Zm89-5.6,74.2,74.2a167.88,167.88,0,0,0,0-231.8l-74.2,74.2a63.08,63.08,0,0,1,0,83.4Z"/><path class="cls-3" d="M44.29,205.31v-7.07h1.47l1.83,3a21.26,21.26,0,0,1,1.21,2.37h0c-.09-.94-.12-1.85-.12-2.93v-2.47h1.2v7.07H48.57l-1.85-3.1a23.77,23.77,0,0,1-1.27-2.45h0c0,.91.06,1.85.06,3v2.53Z"/><path class="cls-3" d="M52.25,203.12a1.39,1.39,0,0,0,1.58,1.32,3.71,3.71,0,0,0,1.41-.23l.19.89a4.76,4.76,0,0,1-1.78.32A2.42,2.42,0,0,1,51,202.84a2.54,2.54,0,0,1,2.5-2.75,2.22,2.22,0,0,1,2.21,2.48,2.38,2.38,0,0,1,0,.55Zm2.25-.9A1.1,1.1,0,0,0,53.44,201a1.26,1.26,0,0,0-1.19,1.25Z"/><path class="cls-3" d="M58.24,198.74v1.46h1.23v1H58.24v2.25c0,.62.17,1,.66,1a1.93,1.93,0,0,0,.5-.06l0,1a2.63,2.63,0,0,1-.93.13,1.5,1.5,0,0,1-1.11-.42,2,2,0,0,1-.4-1.43v-2.4h-.74v-1H57v-1.15Z"/><path class="cls-3" d="M61.22,200.2l.53,2.32c.12.55.24,1.1.33,1.66h0c.11-.56.27-1.12.42-1.65l.66-2.33h1.05l.64,2.27c.16.6.3,1.15.41,1.71h0c.09-.56.2-1.11.34-1.71l.57-2.27h1.27l-1.61,5.11h-1.2l-.61-2.07a16.56,16.56,0,0,1-.38-1.64h0a16.6,16.6,0,0,1-.39,1.64l-.65,2.07H61.41L59.9,200.2Z"/><path class="cls-3" d="M73.17,202.71a2.54,2.54,0,0,1-2.63,2.72A2.47,2.47,0,0,1,68,202.79a2.52,2.52,0,0,1,2.65-2.7A2.45,2.45,0,0,1,73.17,202.71Zm-3.86,0c0,1,.49,1.74,1.27,1.74s1.25-.73,1.25-1.76c0-.8-.35-1.71-1.23-1.71S69.31,201.91,69.31,202.76Z"/><path class="cls-3" d="M74.23,201.85c0-.69,0-1.19,0-1.65h1.12l0,1h0a1.52,1.52,0,0,1,1.4-1.09,1.32,1.32,0,0,1,.3,0v1.21a1.73,1.73,0,0,0-.37,0,1.15,1.15,0,0,0-1.16,1,2.25,2.25,0,0,0,0,.4v2.64H74.23Z"/><path class="cls-3" d="M79.26,202.45h0c.13-.2.27-.42.41-.6l1.24-1.65h1.55l-1.89,2.09,2.16,3H81.17l-1.47-2.25-.44.51v1.74H78v-7.45h1.29Z"/><path class="cls-3" d="M39.44,213.71a2.53,2.53,0,0,1-2.62,2.72,2.47,2.47,0,0,1-2.56-2.64,2.52,2.52,0,0,1,2.64-2.7A2.45,2.45,0,0,1,39.44,213.71Zm-3.85,0c0,1,.48,1.74,1.27,1.74s1.25-.73,1.25-1.76c0-.8-.36-1.71-1.24-1.71S35.59,212.91,35.59,213.76Z"/><path class="cls-3" d="M40.5,212.9c0-.67,0-1.22,0-1.7h1.13l.07.79h0a2,2,0,0,1,1.75-.9,2.31,2.31,0,0,1,2.15,2.6,2.43,2.43,0,0,1-2.33,2.74,1.66,1.66,0,0,1-1.43-.68h0v2.64H40.5Zm1.29,1.27a1.08,1.08,0,0,0,.05.36,1.16,1.16,0,0,0,1.13.9c.82,0,1.3-.68,1.3-1.69s-.44-1.64-1.27-1.64a1.38,1.38,0,0,0-1.21,1.28Z"/><path class="cls-3" d="M48.13,209.74v1.46h1.22v1H48.13v2.25c0,.62.16,1,.66,1a1.93,1.93,0,0,0,.5-.06l0,1a2.63,2.63,0,0,1-.93.13,1.5,1.5,0,0,1-1.11-.42,2,2,0,0,1-.4-1.43v-2.4h-.74v-1h.74v-1.15Z"/><path class="cls-3" d="M51.71,209.77a.69.69,0,0,1-.74.7.68.68,0,0,1-.71-.7.69.69,0,0,1,.72-.7A.7.7,0,0,1,51.71,209.77Zm-1.38,6.54V211.2h1.3v5.11Z"/><path class="cls-3" d="M53,212.72c0-.58,0-1.08,0-1.52h1.11l0,.76h0a1.79,1.79,0,0,1,1.58-.87,1.47,1.47,0,0,1,1.42.94h0a2,2,0,0,1,.63-.64,1.7,1.7,0,0,1,1-.3c.85,0,1.71.57,1.71,2.21v3H59.3v-2.82c0-.85-.3-1.35-.92-1.35a1,1,0,0,0-.9.68,1.86,1.86,0,0,0-.06.43v3.06H56.16v-3c0-.71-.28-1.21-.88-1.21a1,1,0,0,0-.93.73,1.16,1.16,0,0,0-.07.42v3H53Z"/><path class="cls-3" d="M63.3,209.77a.69.69,0,0,1-.74.7.68.68,0,0,1-.71-.7.69.69,0,0,1,.72-.7A.7.7,0,0,1,63.3,209.77Zm-1.38,6.54V211.2h1.3v5.11Z"/><path class="cls-3" d="M64.13,215.57l1.92-2.46c.26-.31.48-.57.75-.86v0H64.32v-1h4.06V212l-1.88,2.4a10.76,10.76,0,0,1-.76.87v0h2.7v1H64.13Z"/><path class="cls-3" d="M72.21,216.31l-.08-.56h0a1.91,1.91,0,0,1-1.52.68,1.52,1.52,0,0,1-1.6-1.52c0-1.29,1.14-1.95,3-1.93v-.09c0-.33-.13-.89-1-.89a2.71,2.71,0,0,0-1.37.38l-.25-.84a3.66,3.66,0,0,1,1.84-.45,1.91,1.91,0,0,1,2.11,2.15v1.85a8.29,8.29,0,0,0,.08,1.22ZM72,213.82c-.91,0-1.78.17-1.78,1a.68.68,0,0,0,.73.74,1,1,0,0,0,1-.71,1,1,0,0,0,0-.28Z"/><path class="cls-3" d="M76.15,209.74v1.46h1.23v1H76.15v2.25c0,.62.17,1,.66,1a2.09,2.09,0,0,0,.51-.06l0,1a2.69,2.69,0,0,1-.94.13,1.5,1.5,0,0,1-1.11-.42,2.05,2.05,0,0,1-.4-1.43v-2.4h-.73v-1h.73v-1.15Z"/><path class="cls-3" d="M79.73,209.77a.73.73,0,0,1-1.45,0,.7.7,0,0,1,.73-.7A.69.69,0,0,1,79.73,209.77Zm-1.37,6.54V211.2h1.3v5.11Z"/><path class="cls-3" d="M85.9,213.71a2.53,2.53,0,0,1-2.62,2.72,2.47,2.47,0,0,1-2.56-2.64,2.52,2.52,0,0,1,2.64-2.7A2.45,2.45,0,0,1,85.9,213.71Zm-3.85,0c0,1,.48,1.74,1.27,1.74s1.25-.73,1.25-1.76c0-.8-.36-1.71-1.24-1.71S82.05,212.91,82.05,213.76Z"/><path class="cls-3" d="M87,212.72c0-.58,0-1.08,0-1.52h1.14l.06.77h0a1.85,1.85,0,0,1,1.63-.88c.89,0,1.81.57,1.81,2.19v3H90.3v-2.88c0-.74-.27-1.29-1-1.29a1.08,1.08,0,0,0-1,.75,1.38,1.38,0,0,0,0,.42v3H87Z"/><path class="cls-3" d="M128.08,316.31l-1.73-7.07h1.37l.67,3.21c.18.86.35,1.76.47,2.47h0c.11-.75.31-1.59.51-2.48l.77-3.2h1.35l.7,3.25c.18.84.33,1.63.44,2.4h0c.12-.78.29-1.59.48-2.45l.73-3.2h1.32l-1.9,7.07h-1.39l-.73-3.32a19,19,0,0,1-.39-2.25h0c-.13.76-.27,1.44-.48,2.25l-.81,3.32Z"/><path class="cls-3" d="M137.38,309.77a.73.73,0,0,1-1.45,0,.7.7,0,0,1,.73-.7A.69.69,0,0,1,137.38,309.77ZM136,316.31V311.2h1.3v5.11Z"/><path class="cls-3" d="M138.69,312.85c0-.69,0-1.19,0-1.65h1.13l0,1h0a1.51,1.51,0,0,1,1.4-1.09,1.39,1.39,0,0,1,.3,0v1.21a1.84,1.84,0,0,0-.38,0,1.13,1.13,0,0,0-1.15,1,2.25,2.25,0,0,0,0,.4v2.64h-1.3Z"/><path class="cls-3" d="M143.35,314.12a1.38,1.38,0,0,0,1.57,1.32,3.8,3.8,0,0,0,1.42-.23l.19.89a4.78,4.78,0,0,1-1.79.32,2.41,2.41,0,0,1-2.63-2.58,2.53,2.53,0,0,1,2.5-2.75,2.22,2.22,0,0,1,2.2,2.48,3.35,3.35,0,0,1,0,.55Zm2.24-.9a1.1,1.1,0,0,0-1.06-1.25,1.25,1.25,0,0,0-1.18,1.25Z"/><path class="cls-3" d="M147.85,308.86h1.3v7.45h-1.3Z"/><path class="cls-3" d="M151.46,314.12a1.39,1.39,0,0,0,1.58,1.32,3.74,3.74,0,0,0,1.41-.23l.19.89a4.76,4.76,0,0,1-1.78.32,2.42,2.42,0,0,1-2.64-2.58,2.53,2.53,0,0,1,2.5-2.75,2.22,2.22,0,0,1,2.21,2.48,2.38,2.38,0,0,1-.05.55Zm2.25-.9a1.1,1.1,0,0,0-1.06-1.25,1.26,1.26,0,0,0-1.19,1.25Z"/><path class="cls-3" d="M155.9,315.13a2.89,2.89,0,0,0,1.32.37c.56,0,.82-.24.82-.57s-.21-.53-.84-.75c-1-.34-1.42-.89-1.41-1.49,0-.9.74-1.6,1.93-1.6a2.93,2.93,0,0,1,1.35.3l-.25.91a2.37,2.37,0,0,0-1.08-.29c-.46,0-.71.22-.71.53s.24.49.89.72c.92.33,1.35.81,1.36,1.56,0,.93-.72,1.6-2.07,1.6a3.33,3.33,0,0,1-1.56-.36Z"/><path class="cls-3" d="M160.28,315.13a2.88,2.88,0,0,0,1.31.37c.57,0,.82-.24.82-.57s-.21-.53-.84-.75c-1-.34-1.41-.89-1.4-1.49,0-.9.74-1.6,1.93-1.6a2.93,2.93,0,0,1,1.35.3l-.25.91a2.37,2.37,0,0,0-1.08-.29c-.46,0-.71.22-.71.53s.24.49.89.72c.92.33,1.35.81,1.36,1.56,0,.93-.72,1.6-2.08,1.6a3.28,3.28,0,0,1-1.55-.36Z"/><path class="cls-3" d="M168.38,309.74v1.46h1.23v1h-1.23v2.25c0,.62.16.95.66.95a1.93,1.93,0,0,0,.5-.06l0,1a2.59,2.59,0,0,1-.93.13,1.5,1.5,0,0,1-1.11-.42,2,2,0,0,1-.4-1.43v-2.4h-.74v-1h.74v-1.15Z"/><path class="cls-3" d="M170.58,312.85c0-.69,0-1.19,0-1.65h1.12l.05,1h0a1.51,1.51,0,0,1,1.39-1.09,1.48,1.48,0,0,1,.31,0v1.21a1.92,1.92,0,0,0-.38,0,1.13,1.13,0,0,0-1.15,1,1.56,1.56,0,0,0,0,.4v2.64h-1.29Z"/><path class="cls-3" d="M177.2,316.31l-.09-.56h0a1.89,1.89,0,0,1-1.51.68,1.52,1.52,0,0,1-1.61-1.52c0-1.29,1.15-2,3-1.93v-.09c0-.33-.14-.89-1-.89a2.72,2.72,0,0,0-1.38.38l-.25-.84a3.7,3.7,0,0,1,1.85-.45,1.91,1.91,0,0,1,2.11,2.15v1.85a8.45,8.45,0,0,0,.07,1.22Zm-.17-2.49c-.91,0-1.79.17-1.79.95a.69.69,0,0,0,.74.74,1.06,1.06,0,0,0,1-.71,1,1,0,0,0,0-.28Z"/><path class="cls-3" d="M179.65,312.72c0-.58,0-1.08,0-1.52h1.14l.06.77h0a1.85,1.85,0,0,1,1.63-.88c.89,0,1.81.57,1.81,2.19v3H183v-2.88c0-.74-.27-1.29-1-1.29a1.07,1.07,0,0,0-1,.75,1.38,1.38,0,0,0,0,.42v3h-1.31Z"/><path class="cls-3" d="M185.6,315.13a2.85,2.85,0,0,0,1.31.37c.57,0,.82-.24.82-.57s-.21-.53-.84-.75c-1-.34-1.42-.89-1.41-1.49a1.71,1.71,0,0,1,1.93-1.6,3,3,0,0,1,1.36.3l-.25.91a2.42,2.42,0,0,0-1.09-.29c-.46,0-.71.22-.71.53s.24.49.89.72c.93.33,1.36.81,1.37,1.56,0,.93-.73,1.6-2.08,1.6a3.25,3.25,0,0,1-1.55-.36Z"/><path class="cls-3" d="M190,312.72c0-.58,0-1.08,0-1.52h1.11l0,.76h0a1.79,1.79,0,0,1,1.58-.87,1.48,1.48,0,0,1,1.42.94h0a1.84,1.84,0,0,1,.63-.64,1.7,1.7,0,0,1,1-.3c.84,0,1.71.57,1.71,2.21v3h-1.26v-2.82c0-.85-.3-1.35-.92-1.35a1,1,0,0,0-.9.68,1.86,1.86,0,0,0-.06.43v3.06h-1.26v-3c0-.71-.29-1.21-.88-1.21a1,1,0,0,0-.93.73,1.16,1.16,0,0,0-.07.42v3H190Z"/><path class="cls-3" d="M200.32,309.77a.69.69,0,0,1-.74.7.68.68,0,0,1-.71-.7.69.69,0,0,1,.72-.7A.7.7,0,0,1,200.32,309.77Zm-1.38,6.54V311.2h1.3v5.11Z"/><path class="cls-3" d="M201.57,315.13a2.85,2.85,0,0,0,1.31.37c.57,0,.82-.24.82-.57s-.21-.53-.84-.75c-1-.34-1.42-.89-1.41-1.49a1.71,1.71,0,0,1,1.93-1.6,3,3,0,0,1,1.36.3l-.25.91a2.38,2.38,0,0,0-1.09-.29c-.46,0-.71.22-.71.53s.24.49.89.72c.93.33,1.36.81,1.37,1.56,0,.93-.73,1.6-2.08,1.6a3.25,3.25,0,0,1-1.55-.36Z"/><path class="cls-3" d="M206,315.13a2.85,2.85,0,0,0,1.31.37c.57,0,.82-.24.82-.57s-.21-.53-.84-.75c-1-.34-1.42-.89-1.41-1.49a1.71,1.71,0,0,1,1.93-1.6,3,3,0,0,1,1.36.3l-.26.91a2.37,2.37,0,0,0-1.08-.29c-.46,0-.71.22-.71.53s.24.49.89.72c.92.33,1.36.81,1.37,1.56,0,.93-.73,1.6-2.08,1.6a3.33,3.33,0,0,1-1.56-.36Z"/><path class="cls-3" d="M211.76,309.77a.73.73,0,0,1-1.45,0,.7.7,0,0,1,.73-.7A.69.69,0,0,1,211.76,309.77Zm-1.37,6.54V311.2h1.3v5.11Z"/><path class="cls-3" d="M217.94,313.71a2.54,2.54,0,0,1-2.63,2.72,2.47,2.47,0,0,1-2.56-2.64,2.52,2.52,0,0,1,2.65-2.7A2.45,2.45,0,0,1,217.94,313.71Zm-3.86.05c0,1,.49,1.74,1.27,1.74s1.25-.73,1.25-1.76c0-.8-.35-1.71-1.24-1.71S214.08,312.91,214.08,313.76Z"/><path class="cls-3" d="M219,312.72c0-.58,0-1.08,0-1.52h1.13l.06.77h0a1.85,1.85,0,0,1,1.63-.88c.89,0,1.82.57,1.82,2.19v3h-1.29v-2.88c0-.74-.28-1.29-1-1.29a1.08,1.08,0,0,0-1,.75,1.38,1.38,0,0,0,0,.42v3H219Z"/><path class="cls-3" d="M256.34,206.1a4.36,4.36,0,0,1-1.82.32,3.34,3.34,0,0,1-3.61-3.56,3.56,3.56,0,0,1,3.78-3.74,4,4,0,0,1,1.72.32l-.29,1a3.32,3.32,0,0,0-1.38-.28,2.36,2.36,0,0,0-2.48,2.61,2.32,2.32,0,0,0,2.47,2.55,3.72,3.72,0,0,0,1.4-.26Z"/><path class="cls-3" d="M257.4,198.86h1.3v7.45h-1.3Z"/><path class="cls-3" d="M265,203.71a2.53,2.53,0,0,1-2.62,2.72,2.47,2.47,0,0,1-2.56-2.64,2.52,2.52,0,0,1,2.64-2.7A2.45,2.45,0,0,1,265,203.71Zm-3.85,0c0,1,.48,1.74,1.27,1.74s1.25-.73,1.25-1.76c0-.8-.36-1.71-1.24-1.71S261.1,202.91,261.1,203.76Z"/><path class="cls-3" d="M270.59,204.78c0,.61,0,1.11,0,1.53H269.5l-.06-.77h0a1.87,1.87,0,0,1-1.64.89c-.94,0-1.79-.56-1.79-2.23v-3h1.3V204c0,.85.27,1.4.95,1.4a1.1,1.1,0,0,0,1-.69,1.29,1.29,0,0,0,.07-.4V201.2h1.29Z"/><path class="cls-3" d="M276.7,198.86v6c0,.52,0,1.09.05,1.43h-1.16l0-.8h0a1.86,1.86,0,0,1-1.67.92,2.34,2.34,0,0,1-2.19-2.61,2.43,2.43,0,0,1,2.29-2.73,1.62,1.62,0,0,1,1.44.67h0v-2.9Zm-1.29,4.47a1.84,1.84,0,0,0,0-.33,1.12,1.12,0,0,0-1.11-.92c-.83,0-1.29.74-1.29,1.69s.46,1.62,1.28,1.62a1.15,1.15,0,0,0,1.11-.91,1.53,1.53,0,0,0,0-.38Z"/><path class="cls-3" d="M280.2,205.13a2.88,2.88,0,0,0,1.31.37c.57,0,.82-.24.82-.57s-.21-.53-.84-.75c-1-.34-1.41-.89-1.4-1.49,0-.9.74-1.6,1.93-1.6a3,3,0,0,1,1.35.3l-.25.91A2.37,2.37,0,0,0,282,202c-.46,0-.72.22-.72.53s.25.49.9.72c.92.33,1.35.81,1.36,1.56,0,.93-.72,1.6-2.08,1.6a3.28,3.28,0,0,1-1.55-.36Z"/><path class="cls-3" d="M285.56,204.12a1.38,1.38,0,0,0,1.57,1.32,3.8,3.8,0,0,0,1.42-.23l.19.89a4.78,4.78,0,0,1-1.79.32,2.41,2.41,0,0,1-2.63-2.58,2.53,2.53,0,0,1,2.5-2.75,2.22,2.22,0,0,1,2.2,2.48,3.35,3.35,0,0,1,0,.55Zm2.24-.9a1.1,1.1,0,0,0-1.06-1.25,1.25,1.25,0,0,0-1.18,1.25Z"/><path class="cls-3" d="M290.06,202.85c0-.69,0-1.19,0-1.65h1.12l0,1h.05a1.51,1.51,0,0,1,1.39-1.09,1.48,1.48,0,0,1,.31,0v1.21a1.92,1.92,0,0,0-.38,0,1.15,1.15,0,0,0-1.16,1,2.25,2.25,0,0,0,0,.4v2.64h-1.29Z"/><path class="cls-3" d="M294.62,201.2l.83,2.59c.14.46.25.87.34,1.29h0c.1-.42.21-.82.35-1.29l.81-2.59h1.36l-1.95,5.11h-1.27l-1.9-5.11Z"/><path class="cls-3" d="M300.51,199.77a.69.69,0,0,1-.74.7.68.68,0,0,1-.71-.7.69.69,0,0,1,.72-.7A.7.7,0,0,1,300.51,199.77Zm-1.38,6.54V201.2h1.3v5.11Z"/><path class="cls-3" d="M305.58,206.16a3.9,3.9,0,0,1-1.45.26,2.46,2.46,0,0,1-2.64-2.6,2.64,2.64,0,0,1,2.85-2.73,3.2,3.2,0,0,1,1.25.24l-.23,1a2.37,2.37,0,0,0-1-.2,1.66,1.66,0,0,0,0,3.31,2.45,2.45,0,0,0,1-.2Z"/><path class="cls-3" d="M307.45,204.12a1.38,1.38,0,0,0,1.57,1.32,3.8,3.8,0,0,0,1.42-.23l.19.89a4.78,4.78,0,0,1-1.79.32,2.42,2.42,0,0,1-2.63-2.58,2.53,2.53,0,0,1,2.5-2.75,2.21,2.21,0,0,1,2.2,2.48,3.35,3.35,0,0,1,0,.55Zm2.24-.9a1.09,1.09,0,0,0-1.06-1.25,1.26,1.26,0,0,0-1.18,1.25Z"/><path class="cls-3" d="M311.89,205.13a2.85,2.85,0,0,0,1.31.37c.57,0,.82-.24.82-.57s-.21-.53-.84-.75c-1-.34-1.42-.89-1.41-1.49,0-.9.75-1.6,1.94-1.6a3,3,0,0,1,1.35.3l-.25.91a2.37,2.37,0,0,0-1.08-.29c-.47,0-.72.22-.72.53s.24.49.89.72c.93.33,1.36.81,1.37,1.56,0,.93-.73,1.6-2.08,1.6a3.28,3.28,0,0,1-1.55-.36Z"/><path class="cls-3" d="M136.87,96.43c0-.92-.09-2-.08-3h0c-.23.86-.53,1.81-.84,2.7l-1,3.07h-1l-.94-3c-.28-.91-.53-1.87-.72-2.75h0c0,.92-.07,2-.13,3l-.15,2.84h-1.21l.47-7.07h1.7l.93,2.84c.25.83.47,1.67.65,2.46h0c.19-.77.43-1.64.7-2.47l1-2.83h1.68l.41,7.07H137Z"/><path class="cls-3" d="M144.11,97.78c0,.61,0,1.11,0,1.53H143l-.07-.77h0a1.86,1.86,0,0,1-1.64.89c-.93,0-1.78-.56-1.78-2.23v-3h1.29V97c0,.85.27,1.4,1,1.4a1.08,1.08,0,0,0,1-.69,1.29,1.29,0,0,0,.08-.4V94.2h1.29Z"/><path class="cls-3" d="M145.5,91.86h1.31v7.45H145.5Z"/><path class="cls-3" d="M149.68,92.74V94.2h1.23v1h-1.23v2.25c0,.62.17,1,.66,1a2.09,2.09,0,0,0,.51-.06l0,1a2.69,2.69,0,0,1-.94.13,1.5,1.5,0,0,1-1.11-.42,2.05,2.05,0,0,1-.4-1.43v-2.4h-.73v-1h.73V93.05Z"/><path class="cls-3" d="M153.26,92.77a.73.73,0,0,1-1.45,0,.7.7,0,0,1,.73-.7A.69.69,0,0,1,153.26,92.77Zm-1.37,6.54V94.2h1.3v5.11Z"/><path class="cls-3" d="M154.58,95.72c0-.58,0-1.08-.05-1.52h1.12l0,.76h0a1.76,1.76,0,0,1,1.58-.87,1.46,1.46,0,0,1,1.41.94h0a2,2,0,0,1,.63-.64,1.72,1.72,0,0,1,1-.3c.85,0,1.71.57,1.71,2.21v3h-1.26V96.49c0-.85-.29-1.35-.91-1.35a1,1,0,0,0-.9.68,1.84,1.84,0,0,0-.07.43v3.06h-1.26v-3c0-.71-.28-1.21-.88-1.21a1,1,0,0,0-.92.73,1.16,1.16,0,0,0-.07.42v3h-1.26Z"/><path class="cls-3" d="M164.39,97.12A1.39,1.39,0,0,0,166,98.44a3.71,3.71,0,0,0,1.41-.23l.19.89a4.76,4.76,0,0,1-1.78.32,2.42,2.42,0,0,1-2.64-2.58,2.54,2.54,0,0,1,2.5-2.75,2.22,2.22,0,0,1,2.21,2.48,3.35,3.35,0,0,1,0,.55Zm2.25-.9A1.1,1.1,0,0,0,165.58,95a1.27,1.27,0,0,0-1.19,1.25Z"/><path class="cls-3" d="M173.61,91.86v6c0,.52,0,1.09,0,1.43H172.5l-.05-.8h0a1.86,1.86,0,0,1-1.67.92,2.34,2.34,0,0,1-2.19-2.61,2.43,2.43,0,0,1,2.29-2.73,1.63,1.63,0,0,1,1.44.67h0v-2.9Zm-1.29,4.47a1.84,1.84,0,0,0,0-.33,1.14,1.14,0,0,0-1.11-.92c-.83,0-1.3.74-1.3,1.69s.47,1.62,1.29,1.62a1.15,1.15,0,0,0,1.11-.91,1.53,1.53,0,0,0,0-.38Z"/><path class="cls-3" d="M176.37,92.77a.73.73,0,0,1-1.45,0,.7.7,0,0,1,.73-.7A.69.69,0,0,1,176.37,92.77ZM175,99.31V94.2h1.3v5.11Z"/><path class="cls-3" d="M180.56,99.31l-.08-.56h0a1.9,1.9,0,0,1-1.51.68,1.52,1.52,0,0,1-1.61-1.52c0-1.29,1.14-2,3-1.93v-.09c0-.33-.13-.89-1-.89a2.69,2.69,0,0,0-1.37.38l-.25-.84a3.66,3.66,0,0,1,1.84-.45,1.91,1.91,0,0,1,2.11,2.15v1.85a8.29,8.29,0,0,0,.08,1.22Zm-.17-2.49c-.91,0-1.78.17-1.78,1a.68.68,0,0,0,.73.74,1,1,0,0,0,1-.71,1,1,0,0,0,0-.28Z"/><path class="cls-3" d="M185.13,98.13a2.85,2.85,0,0,0,1.31.37c.57,0,.82-.24.82-.57s-.21-.53-.84-.75c-1-.34-1.42-.89-1.4-1.49,0-.9.74-1.6,1.93-1.6a3,3,0,0,1,1.35.3l-.25.91A2.37,2.37,0,0,0,187,95c-.46,0-.72.22-.72.53s.25.49.9.72c.92.33,1.35.81,1.36,1.56,0,.93-.72,1.6-2.08,1.6a3.28,3.28,0,0,1-1.55-.36Z"/><path class="cls-3" d="M190.49,97.12a1.38,1.38,0,0,0,1.57,1.32,3.8,3.8,0,0,0,1.42-.23l.19.89a4.78,4.78,0,0,1-1.79.32,2.41,2.41,0,0,1-2.63-2.58,2.53,2.53,0,0,1,2.5-2.75,2.22,2.22,0,0,1,2.2,2.48,3.35,3.35,0,0,1,0,.55Zm2.24-.9A1.1,1.1,0,0,0,191.67,95a1.25,1.25,0,0,0-1.18,1.25Z"/><path class="cls-3" d="M198.75,99.16a3.9,3.9,0,0,1-1.45.26,2.46,2.46,0,0,1-2.64-2.6,2.64,2.64,0,0,1,2.85-2.73,3.2,3.2,0,0,1,1.25.24l-.23,1a2.37,2.37,0,0,0-1-.2,1.66,1.66,0,0,0,0,3.31,2.45,2.45,0,0,0,1-.2Z"/><path class="cls-3" d="M204.28,97.78c0,.61,0,1.11,0,1.53h-1.13l-.06-.77h0a1.89,1.89,0,0,1-1.64.89c-.94,0-1.79-.56-1.79-2.23v-3H201V97c0,.85.28,1.4,1,1.4a1.11,1.11,0,0,0,1-.69,1.29,1.29,0,0,0,.07-.4V94.2h1.29Z"/><path class="cls-3" d="M205.68,95.85c0-.69,0-1.19,0-1.65h1.12l0,1h0a1.52,1.52,0,0,1,1.4-1.09,1.32,1.32,0,0,1,.3,0v1.21a1.82,1.82,0,0,0-.37,0,1.15,1.15,0,0,0-1.16,1,2.25,2.25,0,0,0,0,.4v2.64h-1.29Z"/><path class="cls-3" d="M210.79,92.77a.73.73,0,0,1-1.45,0,.7.7,0,0,1,.73-.7A.69.69,0,0,1,210.79,92.77Zm-1.37,6.54V94.2h1.3v5.11Z"/><path class="cls-3" d="M213.58,92.74V94.2h1.23v1h-1.23v2.25c0,.62.17,1,.67,1a2,2,0,0,0,.5-.06l0,1a2.63,2.63,0,0,1-.93.13,1.51,1.51,0,0,1-1.12-.42,2.06,2.06,0,0,1-.39-1.43v-2.4h-.74v-1h.74V93.05Z"/><path class="cls-3" d="M216.6,94.2l.92,2.74c.11.32.21.7.29,1h0l.27-1,.8-2.73h1.38L219,97.69c-.7,1.91-1.17,2.76-1.78,3.28a2.61,2.61,0,0,1-1.36.66l-.29-1.09a2.4,2.4,0,0,0,.76-.35,2.36,2.36,0,0,0,.7-.81.57.57,0,0,0,.08-.23.58.58,0,0,0-.07-.26l-1.87-4.69Z"/><path class="cls-3" d="M163.34,302.5l8-34.9a3.21,3.21,0,0,1-2.21-2.17,4.47,4.47,0,0,1,0-2.09,3.24,3.24,0,0,1,3.29-2.31,3.39,3.39,0,0,1,3.21,2.46c.44,1.67-.24,2.94-2.23,4.13q4,17.4,8,34.88Zm13.35-10.27-8.13-4.9-2.88,12.49Zm1,1.34-10.6,7.31h12.28Zm-8.22-7.63,7.51,4.52-2-8.84Zm-.1-2.09c.27-.19.43-.29.57-.41,1.37-1.07,2.72-2.17,4.1-3.22a.84.84,0,0,0,.37-1c-.63-2.62-1.23-5.25-1.84-7.87,0-.16-.09-.31-.18-.6Zm3-17.78a1.73,1.73,0,0,0,1.79-1.71,1.77,1.77,0,0,0-3.53,0A1.72,1.72,0,0,0,172.34,266.07Z"/><path class="cls-3" d="M166,252.52l.64,1.47a11.3,11.3,0,0,0-6,6.14H163c-.79,1.36-1.45,2.67-2.28,3.86a3.23,3.23,0,0,0-.37,3.1,11.06,11.06,0,0,0,5.63,6.73l.67.34-.65,1.49a12.45,12.45,0,0,1-5-3.8,12.3,12.3,0,0,1-2.59-5.86,2.85,2.85,0,0,0-.35-1c-.92-1.6-1.87-3.19-2.87-4.89,1.11,0,2.12,0,3.13,0a.68.68,0,0,0,.78-.54A12.53,12.53,0,0,1,166,252.52Z"/><path class="cls-3" d="M178.13,254l.65-1.49a11.59,11.59,0,0,1,4.95,3.76,27.11,27.11,0,0,1,2,3.43c.5.93.88,1.92,1.39,2.85.77,1.39,1.6,2.75,2.47,4.22h-3.32a12.9,12.9,0,0,1-7.46,8.91l-.67-1.5a11.22,11.22,0,0,0,6.38-7.38h-2.69c.12-.24.2-.41.29-.56.76-1.3,1.54-2.59,2.28-3.9a1.29,1.29,0,0,0,.12-.86,10.83,10.83,0,0,0-5.8-7.19Z"/><path class="cls-3" d="M176.45,258.24l.62-1.42c2.33.52,4.68,3.68,4.89,6.54a7.9,7.9,0,0,1-4.87,8l-.64-1.45a6.36,6.36,0,0,0,0-11.69Z"/><path class="cls-3" d="M167.69,256.79l.63,1.44a6.35,6.35,0,0,0,0,11.68l-.62,1.43c-2.63-.72-4.83-3.94-4.92-7.13A7.85,7.85,0,0,1,167.69,256.79Z"/><path class="cls-3" d="M177.78,24.43c.1,0,.19.1.3.14a4,4,0,0,1,2.18,6.21c-.07.09-.13.18-.27.4.93.74,1.82,1.53,2.78,2.22a32.16,32.16,0,0,0,13.6,5.4c1,.17,1.92.27,2.88.4.69.1.95.37.95,1.1,0,9.17.14,18.34,0,27.51-.09,4.19-2.44,7.33-6.12,9.32s-7.41,3.8-11.13,5.68c-1.84.93-3.69,1.83-5.54,2.75h-.69l-2.93-1.49c-4.63-2.34-9.33-4.57-13.89-7.06a11,11,0,0,1-6-10.22c0-3.8,0-7.6,0-11.4v-.81h-3.57v-.14l4.17-7.07c.13-.22.27-.42.45-.7l4.51,7.9h-3.57V66.69a9.15,9.15,0,0,0,5,8.6c5.2,2.77,10.52,5.32,15.79,7.94a1,1,0,0,0,.81,0c5.18-2.57,10.35-5.13,15.49-7.76a9.6,9.6,0,0,0,5.24-7.22,4.47,4.47,0,0,0,.07-.82q0-12.86,0-25.72c0-.18,0-.36,0-.55-1.49-.27-3-.5-4.42-.82a31.09,31.09,0,0,1-14.57-7.19c-.63-.57-1.18-1.07-2.08-.72a.3.3,0,0,1-.21,0c-1.06-.43-1.65.26-2.35.88a30.8,30.8,0,0,1-13.75,6.87c-1.77.42-3.58.65-5.37,1a3.39,3.39,0,0,1-.55,0,1,1,0,0,1-1.09-.91,1,1,0,0,1,.94-1.06c2.22-.4,4.47-.69,6.64-1.26a28.17,28.17,0,0,0,12.14-6.43c.11-.1.21-.19.3-.29s.05-.08,0,0a14.32,14.32,0,0,1-.76-2.56A3.83,3.83,0,0,1,176,24.57l.29-.14Zm1.24,4a2,2,0,0,0-2-2,2,2,0,0,0,0,4.05A2,2,0,0,0,179,28.42Z"/><path class="cls-3" d="M283,188.15l-4.69-8h3.63V167.57c-1.78,0-3.54,0-5.31,0a.71.71,0,0,0-.41.21q-4.74,4.62-9.45,9.25a.6.6,0,0,0-.06.11l2.51,2.6-9,2.38,2.43-8.91L265,176l8.54-8.35c-.34,0-.55,0-.76,0a54.65,54.65,0,0,1-5.87-.15,10.88,10.88,0,0,1-6.22-17.86,9.65,9.65,0,0,1,5.79-3c.42-.07.61-.2.69-.66a9.85,9.85,0,0,1,8.65-8.21,1.15,1.15,0,0,0,.74-.37c2.61-4.44,8.49-5.88,13.41-3a9.45,9.45,0,0,1,4.94,9.28,1.48,1.48,0,0,0,0,.21s0,0,.07.11a5.7,5.7,0,0,1,7.42,7.46,1.14,1.14,0,0,0,.19.12c5.47,1.66,6.5,7.8,4.5,11.46-1.56,2.86-3.88,4.59-7.31,4.52-1.91-.05-3.82,0-5.74,0l-.73,0L302,176l2.37-2.81.22.14,2.4,8.76-8.9-2.32,2.39-2.41c-.23-.25-.36-.4-.5-.54-3-3-6.06-5.95-9.12-8.89a1.63,1.63,0,0,0-1-.41c-1.91,0-3.82,0-5.77,0v12.6h3.63Zm1.18-22.56v-.15h16.16a4.36,4.36,0,0,0,1.24-.17,6.55,6.55,0,0,0,4.4-6.53c-.26-3.37-2-5.16-5.3-5.6a1,1,0,0,1-.91-1.16,2.91,2.91,0,0,1,.4-.73,3.71,3.71,0,0,0-2.49-5.76,4.22,4.22,0,0,0-3.61,1.34c-.45.44-.92.67-1.49.31s-.47-.93-.24-1.5A7.67,7.67,0,0,0,288.9,136c-4.13-2.3-9-1-10.91,3a1.21,1.21,0,0,1-1.19.67,7.89,7.89,0,0,0-7.75,7.66c-.05.78-.38,1.09-1.21,1.13a8.05,8.05,0,0,0-5.77,2.6,8.9,8.9,0,0,0,6.4,14.6Z"/><path class="cls-3" d="M91.58,158.76a2.81,2.81,0,0,1-3.16,2.07c-1.86-.08-3.73,0-5.63,0v1.84l1.17,0v1.81H74.59v-1.79l1.16-.08v-1.79c-.22,0-.43,0-.65,0H69.63A2.47,2.47,0,0,1,67,158.18c0-1.66,0-3.31,0-5H61.62v.58c0,1.49,0,3,0,4.48A2.43,2.43,0,0,1,59,160.81H52.86v1.81l1.16.1v1.8H44.63v-1.81l1.17-.07v-1.79c-.21,0-.42,0-.64,0H39.88a2.45,2.45,0,0,1-2.8-2.21s0-.06-.08-.09V144.09c.72-2,1.16-2.26,3.34-2.26H59a2.42,2.42,0,0,1,2.62,2.63c0,1.87,0,3.73,0,5.6v1.09H67v-.72c0-2,0-4,0-6a2.45,2.45,0,0,1,2.64-2.63H89a2.4,2.4,0,0,1,2.51,1.81,1.06,1.06,0,0,0,.12.2ZM79.3,143.7H69.85c-.85,0-1,.14-1,1v13.18c0,.9.15,1.06,1,1.05l12.06,0c2.26,0,4.52,0,6.77,0,.82,0,1-.16,1-1v-13.3c0-.79-.17-1-.94-1Zm-29.92,0H39.93c-.88,0-1,.07-1,1V158c0,.9.09,1,1,1,3.92,0,7.83,0,11.75,0,2.29,0,4.59,0,6.89,0,1.06,0,1.15-.09,1.15-1.12v-13c0-1-.09-1.08-1-1.08Zm-1.63,17.19v1.7H50.9v-1.7Zm30,0v1.74h3.14v-1.74Z"/><path class="cls-3" d="M68,188.12V190h1.16v1.86H59.8V190H61v-1.89H54.68a2.38,2.38,0,0,1-2.45-2.43c0-1.47,0-2.94,0-4.41v-.73h-8.5v-6.07H40.29l4.38-7.5L49,174.46H45.62v4.14H52.2c0-.22,0-.44,0-.66v-6.21a2.4,2.4,0,0,1,2.6-2.59h5.29a.59.59,0,0,0,.68-.44,3.75,3.75,0,0,1,7,0c.15.38.37.42.7.42h5.6a2.45,2.45,0,0,1,2.65,2.68v6.79h6.29v-4.1H79.66c1.51-2.58,2.93-5,4.39-7.53l4.28,7.48H85v6H76.76v1.43c0,1.23,0,2.45,0,3.67a2.42,2.42,0,0,1-2.51,2.51Zm-3.52-1.87H74c.72,0,.91-.17.91-.85q0-6.78,0-13.55c0-.68-.17-.84-.85-.84h-5.6a.57.57,0,0,0-.63.42,3.76,3.76,0,0,1-7,0,.63.63,0,0,0-.69-.45H55c-.81,0-.94.12-.94.93q0,6.69,0,13.37c0,.81.13.94.93.94Zm-.19-14.31a1.89,1.89,0,1,0,.06-3.77,1.89,1.89,0,1,0-.06,3.77Zm-1.37,18h3.16V188.2H62.91Z"/></svg>