<svg id="Layer_1" data-name="Layer 1" xmlns="http://www.w3.org/2000/svg" width="75" height="75" viewBox="0 0 75 75"><defs><style>.cls-1{fill:#fefefe;}.cls-2{fill:#b4b4b4;}</style></defs><title>customer-first</title><path d="M37.52,66.38,28.36,70.1c.16-1.22.3-2.34.46-3.44.07-.43,0-.64-.49-.69-2-.23-4-.49-6.06-.76a1.84,1.84,0,0,0-1.1.29L9.66,71.4l-.75.38c-.16-.21-.09-.43-.09-.63,0-5,0-10,0-15.05A1,1,0,0,1,9.45,55c4-2.25,8.05-4.53,12.09-6.77a1.12,1.12,0,0,0,.69-1.14c0-3.36,0-6.72,0-10.08A12.62,12.62,0,0,1,35.06,24.18h9.1a12.63,12.63,0,0,1,12,8.12,1,1,0,0,0,.74.65A4.2,4.2,0,0,1,57.46,41a.7.7,0,0,0-.5.79c0,2.79,0,5.57,0,8.35,0,.6.16.62.65.42C59,50,60.41,49.5,61.83,49a3.12,3.12,0,0,1,4,1.42,3.06,3.06,0,0,1-1.26,4.07q-9.84,6.45-19.66,12.9c-.46.3-.69.32-1-.18-.76-1.21-.79-1.19.37-2L63.15,52.89a5,5,0,0,0,.6-.42A.95.95,0,0,0,63,50.84a3.52,3.52,0,0,0-.78.24L45.57,57.4a1.37,1.37,0,0,1-1,.11c-5.48-1.72-11-3.41-16.45-5.11a.61.61,0,0,1-.38-.31H41.25a4.49,4.49,0,0,0,.9-.06,1.18,1.18,0,0,0,1-1.17,1.17,1.17,0,0,0-.89-1.24,3.28,3.28,0,0,0-.89-.09H24.25a2.39,2.39,0,0,0-1.25.33q-5.7,3.23-11.43,6.41a1.08,1.08,0,0,0-.64,1.09c0,3.41,0,6.83,0,10.25v.74l3.3-1.69c2.11-1.07,4.22-2.13,6.32-3.21a3.19,3.19,0,0,1,2-.31c2,.27,3.93.48,5.89.77.66.1.8-.17.85-.72.09-.88.22-1.75.35-2.75Z"/><path d="M48.37,11.89a8.78,8.78,0,1,1-8.65-8.67A8.69,8.69,0,0,1,48.37,11.89Z"/><path class="cls-1" d="M42.22,54.17a3.38,3.38,0,0,0-.62-6.73c-5.23,0-10.47,0-15.7,0-1.55,0-1.55,0-1.55-1.52V37.24c0-6.08,4-10.56,10-10.93a68.07,68.07,0,0,1,11.06.07A10.18,10.18,0,0,1,54,32.51c.23.45.18.68-.29,1A4.2,4.2,0,0,0,54.29,41a.74.74,0,0,1,.56.83q0,4.59,0,9.18a.78.78,0,0,1-.63.87c-2.86,1.06-5.7,2.15-8.54,3.25a2.06,2.06,0,0,1-1.58.05c-.77-.29-1.57-.5-2.36-.74C41.75,54.07,42.1,54.32,42.22,54.17Z"/><path class="cls-1" d="M58.12,37.08a2.16,2.16,0,0,1-2.2,2.18,2.2,2.2,0,1,1,0-4.4A2.2,2.2,0,0,1,58.12,37.08Z"/><path class="cls-2" d="M42.22,54.17l-.48.26-.5-.15v-.11Z"/><path class="cls-1" d="M39.61,5.33a6.55,6.55,0,1,1-.06,13.09A6.65,6.65,0,0,1,33,11.87,6.59,6.59,0,0,1,39.61,5.33Z"/></svg>