<svg id="Layer_1" data-name="Layer 1" xmlns="http://www.w3.org/2000/svg" width="100" height="100" viewBox="0 0 100 100"><title>customer-satisfaction</title><path d="M95.91,56.54a11.26,11.26,0,0,1-4.28,6.25c5.25,4.45,5.67,11.29-2.36,15.45a27.48,27.48,0,0,1,1.1,4.06,9.38,9.38,0,0,1-8.31,10.47c-2.92.33-5.9.21-8.86.25s-5.81,0-8.84,0v7L49,91.15l15.32-8.86v6.89h2c5,0,9.91,0,14.86-.14A5.49,5.49,0,0,0,86.37,85c.79-2.34,0-4.32-1.78-6a1.85,1.85,0,0,1,.34-2.88A21.81,21.81,0,0,1,87,75a23.91,23.91,0,0,0,2.64-1.66c2.52-2,2.62-4.63.3-6.83a7.66,7.66,0,0,0-1.3-1c-2.76-1.73-2.76-3.71,0-5.41a9.29,9.29,0,0,0,1.84-1.47,5,5,0,0,0-.53-7.87c-.74-.59-1.63-1-2.43-1.52a2.05,2.05,0,0,1,0-3.73c.69-.46,1.45-.82,2.12-1.31a5.56,5.56,0,0,0,2.16-6.39,5.73,5.73,0,0,0-5.51-3.94q-11.39,0-22.76,0a7.12,7.12,0,0,1-4.9-1.5,6.48,6.48,0,0,1-2.31-6.15q1.07-8,2.11-16.1c.58-4.5-1.55-6.61-6.08-6.1a52.38,52.38,0,0,1-5.44,16.87c-2,3.67-4.59,7-6.83,10.6a4.65,4.65,0,0,0-.72,2.4q-.06,27.77,0,55.53V91H35.49V89.68q0-28.58,0-57.15a4.11,4.11,0,0,1,.63-2.06c2.59-4.08,5.61-7.93,7.75-12.22,2-3.91,3-8.27,4.36-12.45a6.3,6.3,0,0,0,.05-2.49A3,3,0,0,1,50.13,0h4.75a1.83,1.83,0,0,0,.42.21c4.94,1,7.71,4.88,7,9.84q-1.09,8-2.16,16c-.38,2.89.63,4,3.52,4H86.2a9.72,9.72,0,0,1,5.94,2,10.91,10.91,0,0,1,3.77,6v3.25a11.31,11.31,0,0,1-4,6.15,11,11,0,0,1,4,6.11Z"/><path d="M4.09,74.55c.55-1.8,1.16-3.59,2.75-4.76.89-.66,1.9-1.17,3-1.83V33.07H28.47V93H9.85c0-2.83,0-5.61,0-8.38a1.74,1.74,0,0,0-1.24-2,7.28,7.28,0,0,1-4.24-5c-.09-.27-.2-.53-.3-.79Zm9.56-37.83c0,.3-.09.54-.09.77,0,9.92,0,19.83,0,29.75,0,.75.34.94,1,1.18a7.64,7.64,0,0,1,4.32,10.37,7.79,7.79,0,0,1-5.16,4.32v6.12H24.76V36.72Zm-1.86,35a3.94,3.94,0,0,0-3.85,3.94,4,4,0,0,0,3.85,3.84,3.89,3.89,0,1,0,0-7.78Z"/></svg>