<svg id="Layer_1" data-name="Layer 1" xmlns="http://www.w3.org/2000/svg" width="100" height="100" viewBox="0 0 100 100"><title>data-governance</title><path d="M53,99.87V64.41H27.44V59.28H17.75v5.29c-.51-.27-.86-.45-1.19-.64-2.93-1.69-5.84-3.41-8.79-5.06-1-.55-2-.94-3.29-1.51V40.61C4.48,32.55,9.9,26.69,18,26.26a88.11,88.11,0,0,1,11.26.11c1.91.14,3.75,1.07,5.63,1.59a2,2,0,0,0,1.3,0,17.25,17.25,0,0,1,7.55-1.65c3.57.05,7.14,0,10.72,0A16,16,0,0,1,70.81,42.62c0,3.16,0,6.32,0,9.55.36,0,.65.08.93.09,3.72,0,7.44,0,11.16,0a1.08,1.08,0,0,0,1.22-.81,5.85,5.85,0,0,1,6.27-3.63,5.93,5.93,0,0,1,5,4.72A5.78,5.78,0,0,1,92.28,59a1.48,1.48,0,0,0-.94,1.62c0,9.57,0,19.13,0,28.69A2,2,0,0,1,90.71,91c-2.82,2.84-5.52,5.81-8.27,8.72a1,1,0,0,1-.65.33Q68,100,54.24,99.87C53.84,99.86,53.45,99.87,53,99.87Zm7.53-69.3C56.7,40.5,53,50.28,49.13,60.3L37.26,30.77c-4.39,2.71-6.82,6.43-6.86,11.51,0,6,0,12,0,18,0,.36,0,.71.06,1h37.3a5.14,5.14,0,0,0,.07-.59c0-6.18.1-12.36,0-18.53C67.7,36.94,65.15,33.15,60.49,30.57ZM88.26,87.75a6.61,6.61,0,0,0,.11-.85c0-8.85,0-17.7,0-26.56,0-.66-.29-.88-.84-1.07A5.44,5.44,0,0,1,84.13,56a1.07,1.07,0,0,0-1.23-.78c-3.72,0-7.44,0-11.16,0-.29,0-.57,0-.86.07v6.07h14.2v3H55.94V96.83H79.57V87.75ZM17.69,56.21h9.6V46.49l-.18,0-3.9,9.66L13.37,30.39C9.6,32.59,7.52,35.71,7.44,40c-.09,5.32,0,10.64,0,16v.92l10.27-5.91ZM51.13,29.36H46.89c.5,1.07.9,2.06,1.4,3a2.5,2.5,0,0,1,.17,2.12c-.6,1.79-1,3.66-1.71,5.4a8,8,0,0,0,.31,7.4,45.9,45.9,0,0,1,2,4.87c1-2.67,2-5.08,2.84-7.53a3.44,3.44,0,0,0,.1-1.8c-.56-2.27-1.12-4.55-1.86-6.76A5.65,5.65,0,0,1,50.47,31,11.34,11.34,0,0,0,51.13,29.36Zm-29.19-.07a1.41,1.41,0,0,0,.08.46c1.33,2,1,4.06.22,6.14-.13.34-.16.73-.3,1.07a9.12,9.12,0,0,0,.4,8.59,21,21,0,0,1,1,2.39c.89-2.23,1.7-4.19,2.45-6.16a2,2,0,0,0,0-1.16c-.54-1.92-1-3.87-1.75-5.74a4.53,4.53,0,0,1,.33-4.58,6.55,6.55,0,0,0,.46-1.11c-.85,0-1.51,0-2.17,0A4.47,4.47,0,0,0,21.94,29.29ZM92.58,53.7a3,3,0,0,0-3-3,3.06,3.06,0,0,0-3,3,3.11,3.11,0,0,0,3,3A3,3,0,0,0,92.58,53.7ZM40,29.64l3.86,9.61c.58-1.92,1.07-3.5,1.52-5.11a1.77,1.77,0,0,0-.08-1c-.46-1.09-1-2.17-1.5-3.22a1.14,1.14,0,0,0-.78-.56C42.09,29.36,41.14,29.51,40,29.64Zm13.94,9h.28l3.42-9-.46-.12c-2.7-.47-2.71-.47-3.74,2.06a4.91,4.91,0,0,0-.73,2.26A40.4,40.4,0,0,0,54,38.61ZM88.47,91l-.17-.21H82.56v5.48ZM30.72,29.48a10.79,10.79,0,0,0-1.58-.2c-.39,0-1,0-1.15.3a6,6,0,0,0-.12,7Zm-11.8,7.09c.68-2.13,1.45-4,.24-6-.85-1.45-1.08-1.69-2.9-.94Z"/><path d="M49.05,0a11,11,0,1,1-11,11A11,11,0,0,1,49.05,0Zm.08,19.06A8.07,8.07,0,0,0,57.19,11,8.08,8.08,0,0,0,41,11,8,8,0,0,0,49.13,19.06Z"/><path d="M32.88,13.43a9.66,9.66,0,0,1-19.31-.13,9.66,9.66,0,1,1,19.31.13Zm-16.33-.22A6.71,6.71,0,0,0,30,13.47a6.71,6.71,0,0,0-13.42-.26Z"/><path d="M59.27,72.87V70.14h25.8v2.73Z"/><path d="M59.27,81.59V78.76h25.8v2.83Z"/><path d="M59.27,85.9V83.09H85.06V85.9Z"/><path d="M59.28,68.55V65.77H85.06v2.78Z"/><path d="M59.3,74.41H85.07v2.83H59.3Z"/></svg>