<svg id="Layer_1" data-name="Layer 1" xmlns="http://www.w3.org/2000/svg" viewBox="0 0 761.6 673.12"><defs><style>.cls-1{fill:#a8d7cd;}.cls-2{fill:#d8e7da;}.cls-3{fill:none;stroke:#00321d;stroke-miterlimit:10;stroke-width:3px;}.cls-4{fill:#00321d;}</style></defs><title>data-analytics</title><rect class="cls-1" width="761.6" height="219.7"/><rect class="cls-2" y="226.86" width="761.6" height="219.7"/><rect class="cls-1" y="453.73" width="761.6" height="219.7"/><circle class="cls-3" cx="266.36" cy="46" r="4.5"/><circle class="cls-3" cx="266.37" cy="88.97" r="4.5"/><circle class="cls-3" cx="266.39" cy="131.93" r="4.5"/><circle class="cls-3" cx="266.4" cy="176.89" r="4.5"/><circle class="cls-3" cx="266.36" cy="269" r="4.5"/><circle class="cls-3" cx="266.37" cy="311.97" r="4.5"/><circle class="cls-3" cx="266.39" cy="354.93" r="4.5"/><circle class="cls-3" cx="266.4" cy="399.89" r="4.5"/><circle class="cls-3" cx="266.36" cy="500" r="4.5"/><circle class="cls-3" cx="266.37" cy="542.97" r="4.5"/><circle class="cls-3" cx="266.39" cy="585.93" r="4.5"/><circle class="cls-3" cx="266.4" cy="630.89" r="4.5"/><path class="cls-4" d="M67.26,164.25l-2,6.46H61l7.31-22.81h5.31L81,170.71H76.57l-2.07-6.46Zm6.53-3.15L72,155.48c-.44-1.39-.82-2.94-1.15-4.26h-.07c-.34,1.32-.68,2.91-1.08,4.26l-1.76,5.62Z"/><path class="cls-4" d="M83.88,159.14c0-1.9,0-3.49-.13-4.91H87.4l.2,2.47h.11A5.92,5.92,0,0,1,93,153.86c2.88,0,5.86,1.86,5.86,7.07v9.78H94.64V161.4c0-2.36-.88-4.16-3.14-4.16a3.5,3.5,0,0,0-3.25,2.44,4.1,4.1,0,0,0-.17,1.35v9.68h-4.2Z"/><path class="cls-4" d="M112.52,170.71l-.27-1.83h-.11a6.1,6.1,0,0,1-4.87,2.2,4.89,4.89,0,0,1-5.18-4.9c0-4.17,3.69-6.27,9.78-6.23v-.27c0-1.08-.44-2.88-3.35-2.88a8.75,8.75,0,0,0-4.43,1.22l-.81-2.71a11.92,11.92,0,0,1,6-1.45c5.28,0,6.81,3.35,6.81,6.93v6a26.38,26.38,0,0,0,.23,4Zm-.54-8.05c-3-.07-5.76.57-5.76,3.08a2.19,2.19,0,0,0,2.37,2.37,3.38,3.38,0,0,0,3.25-2.27,3.12,3.12,0,0,0,.14-.92Z"/><path class="cls-4" d="M120.44,146.68h4.2v24h-4.2Z"/><path class="cls-4" d="M131.75,154.23l3,8.83c.34,1,.68,2.27.92,3.22h.1c.27-.95.57-2.17.88-3.25l2.57-8.8h4.47l-4.13,11.24c-2.27,6.15-3.79,8.9-5.75,10.59a8.39,8.39,0,0,1-4.37,2.13l-.95-3.52a7.18,7.18,0,0,0,2.44-1.15,7.3,7.3,0,0,0,2.27-2.61,1.64,1.64,0,0,0,.27-.74,1.79,1.79,0,0,0-.24-.81l-6-15.13Z"/><path class="cls-4" d="M150.84,149.52v4.71h4v3.11h-4v7.28c0,2,.54,3,2.13,3a6.12,6.12,0,0,0,1.62-.21l.07,3.18a9,9,0,0,1-3,.41,4.86,4.86,0,0,1-3.59-1.35c-.88-.95-1.28-2.44-1.28-4.61v-7.75h-2.37v-3.11h2.37v-3.72Z"/><path class="cls-4" d="M162.38,149.63a2.34,2.34,0,0,1-4.67,0,2.34,2.34,0,0,1,4.67,0ZM158,170.71V154.23h4.19v16.48Z"/><path class="cls-4" d="M178.73,170.2a12,12,0,0,1-4.67.85c-5.15,0-8.5-3.28-8.5-8.39,0-4.94,3.39-8.8,9.18-8.8a10.33,10.33,0,0,1,4,.78l-.74,3.11a7.28,7.28,0,0,0-3.15-.64c-3.18,0-5.08,2.33-5,5.34,0,3.39,2.2,5.32,5,5.32a8.06,8.06,0,0,0,3.28-.65Z"/><path class="cls-4" d="M181.61,166.89a9.36,9.36,0,0,0,4.23,1.18c1.83,0,2.64-.74,2.64-1.83s-.68-1.69-2.71-2.4c-3.21-1.12-4.57-2.88-4.53-4.8,0-2.92,2.4-5.18,6.22-5.18a9.67,9.67,0,0,1,4.37,1l-.81,2.94a7.48,7.48,0,0,0-3.49-.94c-1.49,0-2.3.71-2.3,1.72s.78,1.56,2.88,2.3c3,1.09,4.36,2.61,4.4,5,0,3-2.34,5.14-6.7,5.14a10.57,10.57,0,0,1-5-1.15Z"/><path class="cls-4" d="M294.16,47.46l-1.78,5.38H290.1l5.81-17.11h2.67l5.84,17.11h-2.36l-1.83-5.38Zm5.61-1.73-1.67-4.92c-.38-1.12-.64-2.14-.89-3.13h0c-.26,1-.54,2.06-.87,3.1l-1.67,4.95Z"/><path class="cls-4" d="M306.4,50.56a5.87,5.87,0,0,0,2.94.88c1.63,0,2.39-.81,2.39-1.82s-.63-1.65-2.28-2.26c-2.21-.79-3.25-2-3.25-3.48,0-2,1.59-3.61,4.24-3.61a6.22,6.22,0,0,1,3,.76l-.56,1.63a4.73,4.73,0,0,0-2.52-.71c-1.32,0-2.05.76-2.05,1.67s.73,1.48,2.33,2.09c2.14.81,3.23,1.87,3.23,3.7,0,2.16-1.68,3.68-4.6,3.68a7.09,7.09,0,0,1-3.45-.83Z"/><path class="cls-4" d="M316.45,50.56a5.88,5.88,0,0,0,2.95.88c1.62,0,2.38-.81,2.38-1.82s-.63-1.65-2.28-2.26c-2.21-.79-3.25-2-3.25-3.48,0-2,1.6-3.61,4.24-3.61a6.19,6.19,0,0,1,3,.76L323,42.66a4.72,4.72,0,0,0-2.51-.71c-1.32,0-2.06.76-2.06,1.67s.74,1.48,2.34,2.09c2.13.81,3.22,1.87,3.22,3.7,0,2.16-1.67,3.68-4.59,3.68a7.13,7.13,0,0,1-3.46-.83Z"/><path class="cls-4" d="M328.05,47.1c.06,3,2,4.27,4.22,4.27a8,8,0,0,0,3.4-.64l.38,1.6a9.85,9.85,0,0,1-4.09.76c-3.78,0-6-2.48-6-6.19s2.19-6.63,5.77-6.63c4,0,5.07,3.53,5.07,5.79a10,10,0,0,1-.07,1Zm6.56-1.6c0-1.42-.59-3.63-3.1-3.63-2.26,0-3.25,2.08-3.43,3.63Z"/><path class="cls-4" d="M342.22,37v3.53h3.2v1.7h-3.2v6.63c0,1.52.43,2.39,1.68,2.39a4.73,4.73,0,0,0,1.29-.16l.1,1.68a5.4,5.4,0,0,1-2,.3,3.09,3.09,0,0,1-2.41-.94A4.56,4.56,0,0,1,340,49V42.25h-1.91v-1.7H340V37.61Z"/><path class="cls-4" d="M303.35,96.28a10.91,10.91,0,0,1-4.52.81c-4.82,0-8.45-3-8.45-8.65,0-5.36,3.63-9,8.94-9a9.12,9.12,0,0,1,4.06.76l-.54,1.8a8.1,8.1,0,0,0-3.45-.71c-4,0-6.68,2.57-6.68,7.06,0,4.19,2.42,6.88,6.58,6.88a8.88,8.88,0,0,0,3.61-.71Z"/><path class="cls-4" d="M316,93.49c0,1.27,0,2.39.1,3.35h-2l-.13-2H314a4.62,4.62,0,0,1-4.06,2.29c-1.93,0-4.24-1.07-4.24-5.38V84.55h2.24v6.81c0,2.33.71,3.91,2.74,3.91a3.22,3.22,0,0,0,2.94-2,3.17,3.17,0,0,0,.21-1.14V84.55H316Z"/><path class="cls-4" d="M319.42,94.56a5.88,5.88,0,0,0,2.95.88c1.62,0,2.38-.81,2.38-1.82s-.63-1.65-2.28-2.26c-2.21-.79-3.25-2-3.25-3.48,0-2,1.6-3.61,4.24-3.61a6.22,6.22,0,0,1,3,.76l-.56,1.63a4.72,4.72,0,0,0-2.51-.71c-1.32,0-2.06.76-2.06,1.67s.74,1.48,2.34,2.09c2.13.81,3.22,1.87,3.22,3.7,0,2.16-1.67,3.68-4.59,3.68a7.13,7.13,0,0,1-3.46-.83Z"/><path class="cls-4" d="M332.47,81v3.53h3.2v1.7h-3.2v6.63c0,1.52.43,2.39,1.68,2.39a4.73,4.73,0,0,0,1.29-.16l.1,1.68a5.4,5.4,0,0,1-2,.3,3.09,3.09,0,0,1-2.41-.94,4.56,4.56,0,0,1-.86-3.19V86.25h-1.91v-1.7h1.91V81.61Z"/><path class="cls-4" d="M349.15,90.59c0,4.55-3.15,6.53-6.12,6.53-3.32,0-5.89-2.44-5.89-6.32,0-4.12,2.69-6.53,6.1-6.53S349.15,86.84,349.15,90.59Zm-9.75.13c0,2.69,1.55,4.72,3.73,4.72s3.74-2,3.74-4.77c0-2.08-1-4.72-3.68-4.72S339.4,88.39,339.4,90.72Z"/><path class="cls-4" d="M352,87.88c0-1.27,0-2.31-.1-3.33h1.95l.1,2H354a4.24,4.24,0,0,1,3.86-2.26,3.63,3.63,0,0,1,3.48,2.46h.05a5,5,0,0,1,1.37-1.59,4.2,4.2,0,0,1,2.72-.87c1.62,0,4,1.07,4,5.33v7.24h-2.18v-7c0-2.36-.86-3.78-2.67-3.78a2.91,2.91,0,0,0-2.64,2,3.77,3.77,0,0,0-.17,1.12v7.59h-2.19V89.48c0-2-.86-3.38-2.56-3.38a3.33,3.33,0,0,0-3,3.33v7.41H352Z"/><path class="cls-4" d="M374.39,91.1c.05,3,2,4.27,4.21,4.27a8,8,0,0,0,3.4-.64l.39,1.6a9.93,9.93,0,0,1-4.09.76c-3.79,0-6.05-2.48-6.05-6.19s2.19-6.63,5.77-6.63c4,0,5.08,3.53,5.08,5.79a7.43,7.43,0,0,1-.08,1Zm6.55-1.6c0-1.42-.59-3.63-3.1-3.63-2.26,0-3.25,2.08-3.43,3.63Z"/><path class="cls-4" d="M385.86,88.39c0-1.45,0-2.7-.1-3.84h2l.07,2.41h.1a3.69,3.69,0,0,1,3.41-2.69,2.41,2.41,0,0,1,.63.08v2.11a2.91,2.91,0,0,0-.76-.08,3.14,3.14,0,0,0-3,2.87,6.33,6.33,0,0,0-.1,1v6.55h-2.21Z"/><path class="cls-4" d="M291.09,138.15a7.83,7.83,0,0,0,4,1.12c2.26,0,3.58-1.2,3.58-2.92s-.91-2.52-3.22-3.41c-2.8-1-4.52-2.43-4.52-4.85,0-2.66,2.2-4.64,5.53-4.64a7.66,7.66,0,0,1,3.78.84l-.61,1.8a6.72,6.72,0,0,0-3.25-.81c-2.33,0-3.22,1.39-3.22,2.56,0,1.6,1,2.39,3.4,3.3,2.9,1.12,4.37,2.51,4.37,5s-2,4.92-6,4.92a8.84,8.84,0,0,1-4.37-1.09Z"/><path class="cls-4" d="M314.12,137.49c0,1.27,0,2.39.1,3.35h-2l-.13-2h-.05a4.62,4.62,0,0,1-4.06,2.29c-1.93,0-4.24-1.07-4.24-5.38v-7.19H306v6.81c0,2.33.71,3.91,2.74,3.91a3.25,3.25,0,0,0,2.95-2,3.17,3.17,0,0,0,.2-1.14v-7.54h2.24Z"/><path class="cls-4" d="M317.82,132.56c0-1.57-.05-2.84-.1-4h2l.1,2.11h.05a4.83,4.83,0,0,1,4.37-2.39c3,0,5.2,2.52,5.2,6.25,0,4.42-2.69,6.6-5.58,6.6a4.32,4.32,0,0,1-3.79-1.93H320v6.68h-2.21Zm2.21,3.28a5.07,5.07,0,0,0,.1.91,3.46,3.46,0,0,0,3.36,2.62c2.36,0,3.73-1.93,3.73-4.75,0-2.46-1.3-4.57-3.66-4.57a3.58,3.58,0,0,0-3.38,2.77,3.93,3.93,0,0,0-.15.91Z"/><path class="cls-4" d="M332.27,132.56c0-1.57,0-2.84-.1-4h2l.1,2.11h.06a4.82,4.82,0,0,1,4.36-2.39c3,0,5.21,2.52,5.21,6.25,0,4.42-2.69,6.6-5.59,6.6a4.3,4.3,0,0,1-3.78-1.93h0v6.68h-2.21Zm2.21,3.28a5.07,5.07,0,0,0,.1.91,3.45,3.45,0,0,0,3.35,2.62c2.36,0,3.73-1.93,3.73-4.75,0-2.46-1.29-4.57-3.65-4.57a3.56,3.56,0,0,0-3.38,2.77,3.47,3.47,0,0,0-.15.91Z"/><path class="cls-4" d="M346.71,122.81H349v18h-2.24Z"/><path class="cls-4" d="M353.52,128.55l2.69,7.26c.28.82.58,1.78.79,2.52h.05c.23-.74.48-1.68.78-2.57l2.44-7.21h2.36l-3.35,8.76c-1.6,4.22-2.69,6.37-4.21,7.69a6,6,0,0,1-2.75,1.45l-.55-1.88a6,6,0,0,0,2-1.09A6.72,6.72,0,0,0,355.6,141a1.63,1.63,0,0,0,.18-.53,1.69,1.69,0,0,0-.16-.58l-4.54-11.33Z"/><path class="cls-4" d="M378.8,140.38a8.09,8.09,0,0,1-3.52.71c-3.71,0-6.12-2.51-6.12-6.27a6.24,6.24,0,0,1,6.6-6.52,7.57,7.57,0,0,1,3.1.63l-.51,1.73a5.13,5.13,0,0,0-2.59-.59c-2.82,0-4.34,2.09-4.34,4.65,0,2.84,1.82,4.6,4.26,4.6a6.31,6.31,0,0,0,2.74-.61Z"/><path class="cls-4" d="M381.42,122.81h2.23v7.67h.05a4.23,4.23,0,0,1,1.6-1.57,4.62,4.62,0,0,1,2.29-.64c1.65,0,4.29,1,4.29,5.26v7.31h-2.23v-7.06c0-2-.74-3.65-2.85-3.65a3.19,3.19,0,0,0-3,2.23,2.62,2.62,0,0,0-.16,1.07v7.41h-2.23Z"/><path class="cls-4" d="M402.31,140.84l-.17-1.55h-.08a4.58,4.58,0,0,1-3.76,1.83,3.5,3.5,0,0,1-3.76-3.53c0-3,2.65-4.6,7.39-4.57v-.25a2.54,2.54,0,0,0-2.79-2.85,6.11,6.11,0,0,0-3.2.92l-.51-1.48a7.65,7.65,0,0,1,4-1.09c3.76,0,4.67,2.57,4.67,5v4.59a16.55,16.55,0,0,0,.21,3Zm-.33-6.27c-2.43,0-5.2.38-5.2,2.77a2,2,0,0,0,2.11,2.13,3.06,3.06,0,0,0,3-2.06,2.52,2.52,0,0,0,.12-.71Z"/><path class="cls-4" d="M410.24,125.1a1.39,1.39,0,0,1-2.77,0,1.36,1.36,0,0,1,1.39-1.4A1.33,1.33,0,0,1,410.24,125.1Zm-2.49,15.74V128.55H410v12.29Z"/><path class="cls-4" d="M413.69,131.88c0-1.27,0-2.31-.1-3.33h2l.12,2h.05a4.53,4.53,0,0,1,4.07-2.31c1.7,0,4.34,1,4.34,5.23v7.34h-2.24v-7.08c0-2-.73-3.63-2.84-3.63a3.18,3.18,0,0,0-3,2.28,3.26,3.26,0,0,0-.15,1v7.39h-2.23Z"/><path class="cls-4" d="M291.09,182.15a7.83,7.83,0,0,0,4,1.12c2.26,0,3.58-1.2,3.58-2.92s-.91-2.52-3.22-3.41c-2.8-1-4.52-2.43-4.52-4.85,0-2.66,2.2-4.64,5.53-4.64a7.66,7.66,0,0,1,3.78.84l-.61,1.8a6.72,6.72,0,0,0-3.25-.81c-2.33,0-3.22,1.39-3.22,2.56,0,1.6,1,2.39,3.4,3.3,2.9,1.12,4.37,2.51,4.37,5s-2,4.92-6,4.92a8.84,8.84,0,0,1-4.37-1.09Z"/><path class="cls-4" d="M314.12,181.49c0,1.27,0,2.39.1,3.35h-2l-.13-2h-.05a4.62,4.62,0,0,1-4.06,2.29c-1.93,0-4.24-1.07-4.24-5.38v-7.19H306v6.81c0,2.33.71,3.91,2.74,3.91a3.25,3.25,0,0,0,2.95-2,3.17,3.17,0,0,0,.2-1.14v-7.54h2.24Z"/><path class="cls-4" d="M317.52,182.56a5.87,5.87,0,0,0,2.94.88c1.63,0,2.39-.81,2.39-1.82s-.63-1.65-2.28-2.26c-2.21-.79-3.25-2-3.25-3.48,0-2,1.59-3.61,4.24-3.61a6.22,6.22,0,0,1,3,.76l-.56,1.63a4.73,4.73,0,0,0-2.52-.71c-1.32,0-2.05.76-2.05,1.67s.73,1.48,2.33,2.09c2.14.81,3.23,1.87,3.23,3.7,0,2.16-1.68,3.68-4.6,3.68a7.09,7.09,0,0,1-3.45-.83Z"/><path class="cls-4" d="M330.57,169v3.53h3.2v1.7h-3.2v6.63c0,1.52.43,2.39,1.67,2.39a4.76,4.76,0,0,0,1.3-.16l.1,1.68a5.44,5.44,0,0,1-2,.3,3.09,3.09,0,0,1-2.41-.94,4.51,4.51,0,0,1-.87-3.19v-6.71h-1.9v-1.7h1.9v-2.94Z"/><path class="cls-4" d="M343.08,184.84l-.17-1.55h-.08a4.55,4.55,0,0,1-3.76,1.83,3.49,3.49,0,0,1-3.75-3.53c0-3,2.64-4.6,7.38-4.57v-.25a2.54,2.54,0,0,0-2.79-2.85,6.14,6.14,0,0,0-3.2.92l-.51-1.48a7.65,7.65,0,0,1,4-1.09c3.76,0,4.67,2.57,4.67,5v4.59a16.55,16.55,0,0,0,.21,3Zm-.33-6.27c-2.43,0-5.2.38-5.2,2.77a2,2,0,0,0,2.11,2.13,3.06,3.06,0,0,0,3-2.06,2.52,2.52,0,0,0,.12-.71Z"/><path class="cls-4" d="M351,169.1a1.39,1.39,0,0,1-2.77,0,1.36,1.36,0,0,1,1.39-1.4A1.33,1.33,0,0,1,351,169.1Zm-2.49,15.74V172.55h2.23v12.29Z"/><path class="cls-4" d="M354.46,175.88c0-1.27,0-2.31-.1-3.33h2l.12,2h.05a4.53,4.53,0,0,1,4.07-2.31c1.7,0,4.34,1,4.34,5.23v7.34h-2.24v-7.08c0-2-.73-3.63-2.84-3.63a3.19,3.19,0,0,0-3,2.28,3.26,3.26,0,0,0-.15,1v7.39h-2.23Z"/><path class="cls-4" d="M375.35,184.84l-.17-1.55h-.08a4.58,4.58,0,0,1-3.76,1.83,3.5,3.5,0,0,1-3.76-3.53c0-3,2.64-4.6,7.39-4.57v-.25a2.54,2.54,0,0,0-2.79-2.85,6.11,6.11,0,0,0-3.2.92l-.51-1.48a7.65,7.65,0,0,1,4-1.09c3.76,0,4.67,2.57,4.67,5v4.59a17.62,17.62,0,0,0,.2,3Zm-.33-6.27c-2.43,0-5.2.38-5.2,2.77a2,2,0,0,0,2.11,2.13,3.06,3.06,0,0,0,3-2.06,2.52,2.52,0,0,0,.12-.71Z"/><path class="cls-4" d="M380.68,184.84c.06-.84.11-2.08.11-3.17V166.81H383v7.72h.06a4.56,4.56,0,0,1,4.19-2.26c3,0,5.2,2.54,5.17,6.27,0,4.4-2.76,6.58-5.5,6.58a4.4,4.4,0,0,1-4.12-2.31h-.07l-.11,2Zm2.31-4.93a4.38,4.38,0,0,0,.11.82,3.43,3.43,0,0,0,3.35,2.61c2.33,0,3.73-1.9,3.73-4.72,0-2.46-1.27-4.57-3.66-4.57a3.56,3.56,0,0,0-3.4,2.74,4.52,4.52,0,0,0-.13.92Z"/><path class="cls-4" d="M397.72,169.1a1.39,1.39,0,0,1-2.77,0,1.37,1.37,0,0,1,1.4-1.4A1.33,1.33,0,0,1,397.72,169.1Zm-2.49,15.74V172.55h2.24v12.29Z"/><path class="cls-4" d="M401.17,166.81h2.24v18h-2.24Z"/><path class="cls-4" d="M409.65,169.1a1.31,1.31,0,0,1-1.42,1.37,1.33,1.33,0,0,1-1.35-1.37,1.37,1.37,0,0,1,1.4-1.4A1.33,1.33,0,0,1,409.65,169.1Zm-2.49,15.74V172.55h2.24v12.29Z"/><path class="cls-4" d="M415.79,169v3.53H419v1.7h-3.2v6.63c0,1.52.44,2.39,1.68,2.39a4.82,4.82,0,0,0,1.3-.16l.1,1.68a5.44,5.44,0,0,1-2,.3,3.12,3.12,0,0,1-2.42-.94,4.56,4.56,0,0,1-.86-3.19v-6.71h-1.9v-1.7h1.9v-2.94Z"/><path class="cls-4" d="M422.55,172.55l2.69,7.26c.28.82.58,1.78.79,2.52h.05c.23-.74.48-1.68.78-2.57l2.44-7.21h2.36l-3.35,8.76c-1.6,4.22-2.69,6.37-4.21,7.69a6,6,0,0,1-2.75,1.45l-.55-1.88a6,6,0,0,0,1.95-1.09,6.72,6.72,0,0,0,1.88-2.49,1.63,1.63,0,0,0,.18-.53,1.87,1.87,0,0,0-.15-.58l-4.55-11.33Z"/><path class="cls-4" d="M50.37,397.71,43,374.9h4.54l3.11,10.36c.88,2.87,1.62,5.55,2.23,8.32h.07c.61-2.71,1.42-5.48,2.34-8.26l3.31-10.42H63l-7.89,22.81Z"/><path class="cls-4" d="M73.32,397.71l-.27-1.83H73a6.13,6.13,0,0,1-4.88,2.2,4.9,4.9,0,0,1-5.18-4.9c0-4.17,3.69-6.27,9.79-6.23v-.27c0-1.08-.44-2.88-3.35-2.88A8.75,8.75,0,0,0,64.89,385l-.81-2.71a11.92,11.92,0,0,1,6-1.45c5.29,0,6.81,3.35,6.81,6.93v6a26.23,26.23,0,0,0,.24,4Zm-.54-8c-3-.07-5.76.57-5.76,3.08a2.19,2.19,0,0,0,2.37,2.37,3.38,3.38,0,0,0,3.25-2.27,3.12,3.12,0,0,0,.14-.92Z"/><path class="cls-4" d="M81.24,373.68h4.2v24h-4.2Z"/><path class="cls-4" d="M104.7,392.77c0,2,.06,3.59.13,4.94h-3.65l-.21-2.5h-.06a6,6,0,0,1-5.28,2.87c-3,0-5.76-1.79-5.76-7.17v-9.68H94v9c0,2.74.88,4.5,3.08,4.5a3.53,3.53,0,0,0,3.18-2.23,4,4,0,0,0,.23-1.29v-9.95h4.17Z"/><path class="cls-4" d="M112.15,390.64c.1,3,2.43,4.26,5.07,4.26a12.47,12.47,0,0,0,4.57-.74l.61,2.87a15.39,15.39,0,0,1-5.75,1c-5.35,0-8.5-3.28-8.5-8.33,0-4.56,2.78-8.86,8.06-8.86s7.1,4.4,7.1,8a10.09,10.09,0,0,1-.13,1.76Zm7.24-2.91c0-1.53-.65-4-3.42-4-2.57,0-3.65,2.34-3.82,4Z"/><path class="cls-4" d="M145.79,397.2a11.94,11.94,0,0,1-4.67.85c-5.14,0-8.49-3.28-8.49-8.39,0-4.94,3.38-8.8,9.17-8.8a10.42,10.42,0,0,1,4,.78l-.75,3.11a7.28,7.28,0,0,0-3.15-.64c-3.18,0-5.07,2.33-5,5.34,0,3.39,2.2,5.32,5,5.32a8.15,8.15,0,0,0,3.29-.65Z"/><path class="cls-4" d="M148.87,373.68h4.2v9.82h.07a5.64,5.64,0,0,1,2.06-1.9,5.73,5.73,0,0,1,2.85-.74c2.81,0,5.75,1.86,5.75,7.14v9.71h-4.16v-9.24c0-2.4-.88-4.19-3.19-4.19a3.41,3.41,0,0,0-3.38,3.58v9.85h-4.2Z"/><path class="cls-4" d="M177.51,397.71l-.27-1.83h-.1a6.12,6.12,0,0,1-4.88,2.2,4.89,4.89,0,0,1-5.17-4.9c0-4.17,3.69-6.27,9.78-6.23v-.27c0-1.08-.44-2.88-3.35-2.88a8.75,8.75,0,0,0-4.44,1.22l-.81-2.71a11.93,11.93,0,0,1,6-1.45c5.28,0,6.8,3.35,6.8,6.93v6a26.23,26.23,0,0,0,.24,4Zm-.54-8c-2.95-.07-5.76.57-5.76,3.08a2.19,2.19,0,0,0,2.37,2.37,3.38,3.38,0,0,0,3.25-2.27,3.12,3.12,0,0,0,.14-.92Z"/><path class="cls-4" d="M189.87,376.63a2.21,2.21,0,0,1-2.37,2.23,2.18,2.18,0,0,1-2.3-2.23,2.34,2.34,0,0,1,4.67,0Zm-4.44,21.08V381.23h4.2v16.48Z"/><path class="cls-4" d="M194.1,386.14c0-1.9,0-3.49-.14-4.91h3.66l.2,2.47h.1a5.94,5.94,0,0,1,5.25-2.84c2.88,0,5.85,1.86,5.85,7.07v9.78h-4.16V388.4c0-2.36-.88-4.16-3.15-4.16a3.51,3.51,0,0,0-3.25,2.44,4.39,4.39,0,0,0-.16,1.35v9.68h-4.2Z"/><path class="cls-4" d="M291.39,261a30.8,30.8,0,0,1,4.7-.36c3.17,0,5.43.74,6.93,2.13a7.87,7.87,0,0,1,2.41,6.15,9,9,0,0,1-2.46,6.65c-1.6,1.6-4.24,2.46-7.56,2.46a35.14,35.14,0,0,1-4-.2Zm2.21,15.13a14.12,14.12,0,0,0,2.24.13c4.72,0,7.28-2.65,7.28-7.27,0-4-2.26-6.6-6.93-6.6a12.38,12.38,0,0,0-2.59.23Z"/><path class="cls-4" d="M309.57,272.1c.05,3,2,4.27,4.22,4.27a8,8,0,0,0,3.4-.64l.38,1.6a9.89,9.89,0,0,1-4.09.76c-3.78,0-6-2.48-6-6.19s2.18-6.63,5.76-6.63c4,0,5.08,3.53,5.08,5.79a7.43,7.43,0,0,1-.08,1Zm6.55-1.6c0-1.42-.58-3.63-3.1-3.63-2.26,0-3.25,2.08-3.42,3.63Z"/><path class="cls-4" d="M320.74,275.56a5.88,5.88,0,0,0,2.95.88c1.62,0,2.38-.81,2.38-1.82s-.63-1.65-2.28-2.26c-2.21-.79-3.25-2-3.25-3.48,0-2,1.6-3.61,4.24-3.61a6.19,6.19,0,0,1,3,.76l-.56,1.63a4.72,4.72,0,0,0-2.51-.71c-1.32,0-2.06.76-2.06,1.67s.74,1.48,2.34,2.09c2.13.81,3.22,1.87,3.22,3.7,0,2.16-1.67,3.68-4.59,3.68a7.13,7.13,0,0,1-3.46-.83Z"/><path class="cls-4" d="M333.59,262.1a1.39,1.39,0,0,1-2.77,0,1.37,1.37,0,0,1,1.4-1.4A1.33,1.33,0,0,1,333.59,262.1Zm-2.49,15.74V265.55h2.23v12.29Z"/><path class="cls-4" d="M347.63,265.55c-.05.89-.1,1.88-.1,3.38v7.13c0,2.82-.56,4.55-1.75,5.61a6.52,6.52,0,0,1-4.47,1.48,7.92,7.92,0,0,1-4.09-1l.56-1.7a6.89,6.89,0,0,0,3.6,1c2.29,0,4-1.19,4-4.29v-1.37h0a4.36,4.36,0,0,1-3.91,2.06c-3,0-5.23-2.59-5.23-6,0-4.17,2.72-6.53,5.54-6.53a4.09,4.09,0,0,1,3.83,2.13h.05l.1-1.85Zm-2.31,4.85a3.17,3.17,0,0,0-.13-1,3.22,3.22,0,0,0-3.12-2.37c-2.13,0-3.66,1.81-3.66,4.65,0,2.41,1.22,4.42,3.63,4.42a3.27,3.27,0,0,0,3.1-2.29,3.78,3.78,0,0,0,.18-1.19Z"/><path class="cls-4" d="M351.08,268.88c0-1.27,0-2.31-.1-3.33h2l.13,2h.05a4.51,4.51,0,0,1,4.06-2.31c1.7,0,4.34,1,4.34,5.23v7.34h-2.23v-7.08c0-2-.74-3.63-2.85-3.63a3.17,3.17,0,0,0-3,2.28,3.26,3.26,0,0,0-.15,1v7.39h-2.24Z"/><path class="cls-4" d="M377.36,277.84l-.18-1.55h-.08a4.54,4.54,0,0,1-3.75,1.83,3.5,3.5,0,0,1-3.76-3.53c0-3,2.64-4.6,7.39-4.57v-.25a2.54,2.54,0,0,0-2.8-2.85,6.08,6.08,0,0,0-3.19.92l-.51-1.48a7.61,7.61,0,0,1,4-1.09c3.76,0,4.68,2.57,4.68,5v4.59a17.62,17.62,0,0,0,.2,2.95Zm-.33-6.27c-2.44-.05-5.21.38-5.21,2.77a2,2,0,0,0,2.11,2.13,3.05,3.05,0,0,0,3-2.06,2.22,2.22,0,0,0,.13-.71Z"/><path class="cls-4" d="M382.79,268.88c0-1.27,0-2.31-.1-3.33h2l.13,2h.05a4.51,4.51,0,0,1,4.06-2.31c1.7,0,4.34,1,4.34,5.23v7.34H391v-7.08c0-2-.74-3.63-2.85-3.63a3.17,3.17,0,0,0-3,2.28,3.26,3.26,0,0,0-.15,1v7.39h-2.24Z"/><path class="cls-4" d="M407.49,259.81v14.86c0,1.09,0,2.33.11,3.17h-2l-.1-2.13h-.05a4.56,4.56,0,0,1-4.19,2.41c-3,0-5.26-2.51-5.26-6.25,0-4.08,2.52-6.6,5.51-6.6a4.12,4.12,0,0,1,3.71,1.88h.05v-7.34Zm-2.23,10.74a3.76,3.76,0,0,0-.1-.94,3.29,3.29,0,0,0-3.23-2.59c-2.31,0-3.68,2-3.68,4.75,0,2.49,1.22,4.55,3.63,4.55a3.36,3.36,0,0,0,3.28-2.67,3.68,3.68,0,0,0,.1-1Z"/><path class="cls-4" d="M427.2,259.81v14.86c0,1.09,0,2.33.1,3.17h-2l-.1-2.13h-.05a4.55,4.55,0,0,1-4.19,2.41c-3,0-5.26-2.51-5.26-6.25,0-4.08,2.52-6.6,5.51-6.6a4.12,4.12,0,0,1,3.71,1.88h0v-7.34ZM425,270.55a3.76,3.76,0,0,0-.1-.94,3.29,3.29,0,0,0-3.22-2.59c-2.31,0-3.69,2-3.69,4.75,0,2.49,1.22,4.55,3.63,4.55a3.36,3.36,0,0,0,3.28-2.67,3.68,3.68,0,0,0,.1-1Z"/><path class="cls-4" d="M432.15,272.1c.05,3,2,4.27,4.21,4.27a8,8,0,0,0,3.4-.64l.38,1.6a9.83,9.83,0,0,1-4.08.76c-3.79,0-6.05-2.48-6.05-6.19s2.19-6.63,5.77-6.63c4,0,5.08,3.53,5.08,5.79a9.4,9.4,0,0,1-.08,1Zm6.55-1.6c0-1.42-.59-3.63-3.1-3.63-2.26,0-3.25,2.08-3.43,3.63Z"/><path class="cls-4" d="M444.49,265.55l2.41,6.91c.4,1.11.73,2.13,1,3.15H448c.28-1,.64-2,1-3.15l2.39-6.91h2.34l-4.83,12.29h-2.13l-4.67-12.29Z"/><path class="cls-4" d="M456.82,272.1c.05,3,2,4.27,4.22,4.27a8,8,0,0,0,3.4-.64l.38,1.6a9.89,9.89,0,0,1-4.09.76c-3.78,0-6-2.48-6-6.19s2.18-6.63,5.76-6.63c4,0,5.08,3.53,5.08,5.79a10,10,0,0,1-.07,1Zm6.55-1.6c0-1.42-.58-3.63-3.09-3.63-2.26,0-3.25,2.08-3.43,3.63Z"/><path class="cls-4" d="M468.3,259.81h2.23v18H468.3Z"/><path class="cls-4" d="M485.41,271.59c0,4.55-3.15,6.53-6.12,6.53-3.32,0-5.89-2.44-5.89-6.32,0-4.12,2.69-6.53,6.1-6.53S485.41,267.84,485.41,271.59Zm-9.75.13c0,2.69,1.55,4.72,3.73,4.72s3.74-2,3.74-4.77c0-2.08-1-4.72-3.68-4.72S475.66,269.39,475.66,271.72Z"/><path class="cls-4" d="M488.23,269.56c0-1.57-.05-2.84-.1-4h2l.11,2.11h.05a4.82,4.82,0,0,1,4.36-2.39c3,0,5.21,2.52,5.21,6.25,0,4.42-2.69,6.6-5.59,6.6a4.31,4.31,0,0,1-3.78-1.93h-.05v6.68h-2.21Zm2.21,3.28a5.07,5.07,0,0,0,.1.91,3.45,3.45,0,0,0,3.35,2.62c2.36,0,3.73-1.93,3.73-4.75,0-2.46-1.29-4.57-3.65-4.57a3.56,3.56,0,0,0-3.38,2.77,3.47,3.47,0,0,0-.15.91Z"/><path class="cls-4" d="M502.67,268.88c0-1.27,0-2.31-.1-3.33h2l.1,2h.08a4.22,4.22,0,0,1,3.86-2.26,3.63,3.63,0,0,1,3.47,2.46h.05a5.18,5.18,0,0,1,1.38-1.59,4.15,4.15,0,0,1,2.71-.87c1.63,0,4,1.07,4,5.33v7.24H518v-7c0-2.36-.87-3.78-2.67-3.78a2.89,2.89,0,0,0-2.64,2,3.75,3.75,0,0,0-.18,1.12v7.59h-2.18v-7.36c0-2-.87-3.38-2.57-3.38a3.33,3.33,0,0,0-2.94,3.33v7.41h-2.19Z"/><path class="cls-4" d="M525.09,272.1c0,3,2,4.27,4.22,4.27a8,8,0,0,0,3.4-.64l.38,1.6a9.89,9.89,0,0,1-4.09.76c-3.78,0-6-2.48-6-6.19s2.18-6.63,5.76-6.63c4,0,5.08,3.53,5.08,5.79a10,10,0,0,1-.07,1Zm6.55-1.6c0-1.42-.58-3.63-3.09-3.63-2.26,0-3.25,2.08-3.43,3.63Z"/><path class="cls-4" d="M536.57,268.88c0-1.27,0-2.31-.1-3.33h2l.12,2h0a4.53,4.53,0,0,1,4.07-2.31c1.7,0,4.34,1,4.34,5.23v7.34h-2.24v-7.08c0-2-.73-3.63-2.84-3.63a3.19,3.19,0,0,0-3,2.28,3.26,3.26,0,0,0-.15,1v7.39h-2.23Z"/><path class="cls-4" d="M553.25,262v3.53h3.2v1.7h-3.2v6.63c0,1.52.43,2.39,1.67,2.39a4.76,4.76,0,0,0,1.3-.16l.1,1.68a5.44,5.44,0,0,1-2,.3,3.09,3.09,0,0,1-2.41-.94,4.51,4.51,0,0,1-.86-3.19v-6.71h-1.91v-1.7h1.91v-2.94Z"/><path class="cls-4" d="M291.39,304.93a25.46,25.46,0,0,1,4.24-.33,7,7,0,0,1,4.8,1.42,4.6,4.6,0,0,1,1.5,3.58,5.06,5.06,0,0,1-1.32,3.66,7.11,7.11,0,0,1-5.23,1.88,7.45,7.45,0,0,1-1.78-.16v6.86h-2.21Zm2.21,8.25a7.24,7.24,0,0,0,1.83.18c2.67,0,4.29-1.3,4.29-3.66s-1.6-3.35-4-3.35a9.33,9.33,0,0,0-2.08.18Z"/><path class="cls-4" d="M304.42,313.39c0-1.45,0-2.7-.1-3.84h1.95l.08,2.41h.1a3.68,3.68,0,0,1,3.4-2.69,2.49,2.49,0,0,1,.64.08v2.11a2.94,2.94,0,0,0-.77-.08,3.13,3.13,0,0,0-3,2.87,6.33,6.33,0,0,0-.1,1v6.55h-2.21Z"/><path class="cls-4" d="M323.59,315.59c0,4.55-3.15,6.53-6.12,6.53-3.33,0-5.89-2.44-5.89-6.32,0-4.12,2.69-6.53,6.09-6.53S323.59,311.84,323.59,315.59Zm-9.75.13c0,2.69,1.55,4.72,3.73,4.72s3.73-2,3.73-4.77c0-2.08-1-4.72-3.68-4.72S313.84,313.39,313.84,315.72Z"/><path class="cls-4" d="M335.16,321.38a8.14,8.14,0,0,1-3.53.71c-3.7,0-6.11-2.51-6.11-6.27a6.24,6.24,0,0,1,6.6-6.52,7.48,7.48,0,0,1,3.09.63l-.5,1.73a5.13,5.13,0,0,0-2.59-.59c-2.82,0-4.34,2.09-4.34,4.65,0,2.84,1.82,4.6,4.26,4.6a6.31,6.31,0,0,0,2.74-.61Z"/><path class="cls-4" d="M348.06,318.49c0,1.27,0,2.39.1,3.35h-2l-.12-2H346a4.61,4.61,0,0,1-4.06,2.29c-1.93,0-4.24-1.07-4.24-5.38v-7.19h2.24v6.81c0,2.33.71,3.91,2.74,3.91a3.22,3.22,0,0,0,2.94-2,3.17,3.17,0,0,0,.21-1.14v-7.54h2.23Z"/><path class="cls-4" d="M351.77,313.39c0-1.45,0-2.7-.1-3.84h1.95l.08,2.41h.1a3.68,3.68,0,0,1,3.4-2.69,2.55,2.55,0,0,1,.64.08v2.11a2.94,2.94,0,0,0-.77-.08,3.13,3.13,0,0,0-3,2.87,6.33,6.33,0,0,0-.1,1v6.55h-2.21Z"/><path class="cls-4" d="M361.06,316.1c.05,3,2,4.27,4.22,4.27a8,8,0,0,0,3.4-.64l.38,1.6a9.89,9.89,0,0,1-4.09.76c-3.78,0-6-2.48-6-6.19s2.18-6.63,5.76-6.63c4,0,5.08,3.53,5.08,5.79a7.43,7.43,0,0,1-.08,1Zm6.55-1.6c0-1.42-.58-3.63-3.1-3.63-2.26,0-3.25,2.08-3.42,3.63Z"/><path class="cls-4" d="M372.54,312.88c0-1.27,0-2.31-.11-3.33h2l.1,2h.08a4.23,4.23,0,0,1,3.86-2.26,3.65,3.65,0,0,1,3.48,2.46h0a5,5,0,0,1,1.37-1.59,4.17,4.17,0,0,1,2.71-.87c1.63,0,4,1.07,4,5.33v7.24H387.9v-7c0-2.36-.87-3.78-2.67-3.78a2.89,2.89,0,0,0-2.64,2,3.75,3.75,0,0,0-.18,1.12v7.59h-2.18v-7.36c0-2-.86-3.38-2.57-3.38a3.33,3.33,0,0,0-2.94,3.33v7.41h-2.18Z"/><path class="cls-4" d="M395,316.1c.05,3,2,4.27,4.22,4.27a8,8,0,0,0,3.4-.64l.38,1.6a9.89,9.89,0,0,1-4.09.76c-3.78,0-6-2.48-6-6.19s2.18-6.63,5.76-6.63c4,0,5.08,3.53,5.08,5.79a10,10,0,0,1-.07,1Zm6.55-1.6c0-1.42-.58-3.63-3.09-3.63-2.26,0-3.25,2.08-3.43,3.63Z"/><path class="cls-4" d="M406.43,312.88c0-1.27,0-2.31-.1-3.33h2l.13,2h.05a4.51,4.51,0,0,1,4.06-2.31c1.7,0,4.34,1,4.34,5.23v7.34h-2.23v-7.08c0-2-.74-3.63-2.85-3.63a3.17,3.17,0,0,0-3,2.28,3,3,0,0,0-.16,1v7.39h-2.23Z"/><path class="cls-4" d="M423.11,306v3.53h3.2v1.7h-3.2v6.63c0,1.52.43,2.39,1.68,2.39a4.73,4.73,0,0,0,1.29-.16l.1,1.68a5.4,5.4,0,0,1-2,.3,3.09,3.09,0,0,1-2.41-.94,4.56,4.56,0,0,1-.86-3.19v-6.71H419v-1.7h1.91v-2.94Z"/><path class="cls-4" d="M441,321.84l-.18-1.55h-.08a4.54,4.54,0,0,1-3.75,1.83,3.5,3.5,0,0,1-3.76-3.53c0-3,2.64-4.6,7.39-4.57v-.25a2.54,2.54,0,0,0-2.8-2.85,6.08,6.08,0,0,0-3.19.92l-.51-1.48a7.61,7.61,0,0,1,4-1.09c3.76,0,4.68,2.57,4.68,5v4.59a17.62,17.62,0,0,0,.2,2.95Zm-.33-6.27c-2.44-.05-5.21.38-5.21,2.77a2,2,0,0,0,2.11,2.13,3.05,3.05,0,0,0,3-2.06,2.22,2.22,0,0,0,.13-.71Z"/><path class="cls-4" d="M446.44,312.88c0-1.27,0-2.31-.1-3.33h2l.13,2h.05a4.51,4.51,0,0,1,4.06-2.31c1.7,0,4.34,1,4.34,5.23v7.34h-2.23v-7.08c0-2-.74-3.63-2.85-3.63a3.17,3.17,0,0,0-3,2.28,3.26,3.26,0,0,0-.15,1v7.39h-2.24Z"/><path class="cls-4" d="M471.15,303.81v14.86c0,1.09,0,2.33.1,3.17h-2l-.1-2.13h-.05a4.55,4.55,0,0,1-4.19,2.41c-3,0-5.26-2.51-5.26-6.25,0-4.08,2.52-6.6,5.51-6.6a4.12,4.12,0,0,1,3.71,1.88h.05v-7.34Zm-2.24,10.74a3.76,3.76,0,0,0-.1-.94,3.29,3.29,0,0,0-3.23-2.59c-2.31,0-3.68,2-3.68,4.75,0,2.49,1.22,4.55,3.63,4.55a3.36,3.36,0,0,0,3.28-2.67,3.68,3.68,0,0,0,.1-1Z"/><path class="cls-4" d="M480.23,312.88c0-1.27,0-2.31-.1-3.33h2l.1,2h.07a4.24,4.24,0,0,1,3.86-2.26,3.63,3.63,0,0,1,3.48,2.46h0a5.16,5.16,0,0,1,1.37-1.59,4.2,4.2,0,0,1,2.72-.87c1.63,0,4,1.07,4,5.33v7.24h-2.19v-7c0-2.36-.86-3.78-2.66-3.78a2.89,2.89,0,0,0-2.64,2,3.75,3.75,0,0,0-.18,1.12v7.59h-2.18v-7.36c0-2-.87-3.38-2.57-3.38a3.07,3.07,0,0,0-2.77,2.23,3.29,3.29,0,0,0-.17,1.1v7.41h-2.19Z"/><path class="cls-4" d="M508.21,321.84l-.18-1.55H508a4.58,4.58,0,0,1-3.76,1.83,3.5,3.5,0,0,1-3.76-3.53c0-3,2.64-4.6,7.39-4.57v-.25a2.54,2.54,0,0,0-2.79-2.85,6.11,6.11,0,0,0-3.2.92l-.51-1.48a7.65,7.65,0,0,1,4-1.09c3.76,0,4.67,2.57,4.67,5v4.59a17.62,17.62,0,0,0,.2,2.95Zm-.33-6.27c-2.44-.05-5.2.38-5.2,2.77a2,2,0,0,0,2.1,2.13,3.05,3.05,0,0,0,3-2.06,2.22,2.22,0,0,0,.13-.71Z"/><path class="cls-4" d="M513.64,312.88c0-1.27,0-2.31-.1-3.33h2l.13,2h.05a4.51,4.51,0,0,1,4.06-2.31c1.7,0,4.35,1,4.35,5.23v7.34h-2.24v-7.08c0-2-.74-3.63-2.84-3.63a3.17,3.17,0,0,0-3,2.28,3.26,3.26,0,0,0-.15,1v7.39h-2.24Z"/><path class="cls-4" d="M538,318.49c0,1.27,0,2.39.1,3.35h-2l-.13-2h0a4.62,4.62,0,0,1-4.06,2.29c-1.93,0-4.24-1.07-4.24-5.38v-7.19h2.23v6.81c0,2.33.71,3.91,2.75,3.91a3.24,3.24,0,0,0,2.94-2,3.17,3.17,0,0,0,.2-1.14v-7.54H538Z"/><path class="cls-4" d="M542,321.84V311.25h-1.72v-1.7H542V309a5.79,5.79,0,0,1,1.42-4.29,4.26,4.26,0,0,1,3-1.15,5.18,5.18,0,0,1,1.91.36l-.31,1.73a3.23,3.23,0,0,0-1.42-.28c-1.91,0-2.39,1.67-2.39,3.55v.66h3v1.7h-3v10.59Z"/><path class="cls-4" d="M555.94,321.84l-.18-1.55h-.07a4.58,4.58,0,0,1-3.76,1.83,3.5,3.5,0,0,1-3.76-3.53c0-3,2.64-4.6,7.39-4.57v-.25a2.54,2.54,0,0,0-2.79-2.85,6.11,6.11,0,0,0-3.2.92l-.51-1.48a7.65,7.65,0,0,1,4-1.09c3.76,0,4.67,2.57,4.67,5v4.59a17.62,17.62,0,0,0,.2,2.95Zm-.33-6.27c-2.44-.05-5.2.38-5.2,2.77a2,2,0,0,0,2.1,2.13,3.08,3.08,0,0,0,3-2.06,2.52,2.52,0,0,0,.12-.71Z"/><path class="cls-4" d="M570.13,321.38a8.09,8.09,0,0,1-3.52.71c-3.71,0-6.12-2.51-6.12-6.27a6.24,6.24,0,0,1,6.6-6.52,7.57,7.57,0,0,1,3.1.63l-.51,1.73a5.13,5.13,0,0,0-2.59-.59c-2.82,0-4.34,2.09-4.34,4.65,0,2.84,1.82,4.6,4.26,4.6a6.31,6.31,0,0,0,2.74-.61Z"/><path class="cls-4" d="M575.77,306v3.53H579v1.7h-3.2v6.63c0,1.52.43,2.39,1.68,2.39a4.73,4.73,0,0,0,1.29-.16l.1,1.68a5.44,5.44,0,0,1-2,.3,3.09,3.09,0,0,1-2.41-.94,4.51,4.51,0,0,1-.86-3.19v-6.71h-1.91v-1.7h1.91v-2.94Z"/><path class="cls-4" d="M591.76,318.49c0,1.27,0,2.39.11,3.35h-2l-.13-2h0a4.64,4.64,0,0,1-4.06,2.29c-1.93,0-4.24-1.07-4.24-5.38v-7.19h2.23v6.81c0,2.33.71,3.91,2.74,3.91a3.25,3.25,0,0,0,3-2,3.4,3.4,0,0,0,.2-1.14v-7.54h2.23Z"/><path class="cls-4" d="M595.47,313.39c0-1.45,0-2.7-.1-3.84h2l.08,2.41h.1a3.69,3.69,0,0,1,3.4-2.69,2.43,2.43,0,0,1,.64.08v2.11a2.91,2.91,0,0,0-.76-.08,3.13,3.13,0,0,0-3,2.87,6.33,6.33,0,0,0-.1,1v6.55h-2.21Z"/><path class="cls-4" d="M606.36,306.1a1.31,1.31,0,0,1-1.42,1.37,1.33,1.33,0,0,1-1.35-1.37,1.37,1.37,0,0,1,1.4-1.4A1.33,1.33,0,0,1,606.36,306.1Zm-2.49,15.74V309.55h2.24v12.29Z"/><path class="cls-4" d="M609.81,312.88c0-1.27,0-2.31-.1-3.33h2l.13,2h0a4.51,4.51,0,0,1,4.06-2.31c1.7,0,4.35,1,4.35,5.23v7.34H618v-7.08c0-2-.74-3.63-2.84-3.63a3.17,3.17,0,0,0-3,2.28,3.26,3.26,0,0,0-.15,1v7.39h-2.24Z"/><path class="cls-4" d="M634.49,309.55c0,.89-.1,1.88-.1,3.38v7.13c0,2.82-.56,4.55-1.75,5.61a6.5,6.5,0,0,1-4.47,1.48,8,8,0,0,1-4.09-1l.56-1.7a6.9,6.9,0,0,0,3.61,1c2.28,0,4-1.19,4-4.29v-1.37h-.05a4.38,4.38,0,0,1-3.91,2.06c-3,0-5.23-2.59-5.23-6,0-4.17,2.71-6.53,5.53-6.53a4.12,4.12,0,0,1,3.84,2.13h.05l.1-1.85Zm-2.31,4.85a3.18,3.18,0,0,0-.12-1,3.23,3.23,0,0,0-3.13-2.37c-2.13,0-3.65,1.81-3.65,4.65,0,2.41,1.21,4.42,3.63,4.42A3.26,3.26,0,0,0,632,317.8a3.78,3.78,0,0,0,.18-1.19Z"/><path class="cls-4" d="M291.09,363.15a7.83,7.83,0,0,0,4,1.12c2.26,0,3.58-1.2,3.58-2.92s-.91-2.52-3.22-3.41c-2.8-1-4.52-2.43-4.52-4.85,0-2.66,2.2-4.64,5.53-4.64a7.66,7.66,0,0,1,3.78.84l-.61,1.8a6.72,6.72,0,0,0-3.25-.81c-2.33,0-3.22,1.39-3.22,2.56,0,1.6,1,2.39,3.4,3.3,2.9,1.12,4.37,2.51,4.37,5s-2,4.92-6,4.92a8.84,8.84,0,0,1-4.37-1.09Z"/><path class="cls-4" d="M310.71,365.84l-.17-1.55h-.08a4.56,4.56,0,0,1-3.76,1.83,3.49,3.49,0,0,1-3.75-3.53c0-3,2.64-4.6,7.38-4.57v-.25a2.54,2.54,0,0,0-2.79-2.85,6.11,6.11,0,0,0-3.2.92l-.51-1.48a7.65,7.65,0,0,1,4-1.09c3.76,0,4.67,2.57,4.67,5v4.59a16.55,16.55,0,0,0,.21,2.95Zm-.33-6.27c-2.43-.05-5.2.38-5.2,2.77a2,2,0,0,0,2.11,2.13,3.06,3.06,0,0,0,3-2.06,2.52,2.52,0,0,0,.12-.71Z"/><path class="cls-4" d="M316.15,347.81h2.23v18h-2.23Z"/><path class="cls-4" d="M323.38,360.1c.05,3,2,4.27,4.22,4.27a8,8,0,0,0,3.4-.64l.38,1.6a9.89,9.89,0,0,1-4.09.76c-3.78,0-6-2.48-6-6.19s2.18-6.63,5.76-6.63c4,0,5.08,3.53,5.08,5.79a10,10,0,0,1-.07,1Zm6.55-1.6c0-1.42-.58-3.63-3.09-3.63-2.26,0-3.25,2.08-3.43,3.63Z"/><path class="cls-4" d="M334.55,363.56a5.88,5.88,0,0,0,2.95.88c1.62,0,2.39-.81,2.39-1.82s-.64-1.65-2.29-2.26c-2.21-.79-3.25-2-3.25-3.48,0-2,1.6-3.61,4.24-3.61a6.19,6.19,0,0,1,3,.76l-.56,1.63a4.72,4.72,0,0,0-2.51-.71c-1.32,0-2.06.76-2.06,1.67s.74,1.48,2.34,2.09c2.13.81,3.22,1.87,3.22,3.7,0,2.16-1.67,3.68-4.59,3.68a7.13,7.13,0,0,1-3.46-.83Z"/><path class="cls-4" d="M357.1,365.84l-.18-1.55h-.08a4.54,4.54,0,0,1-3.75,1.83,3.5,3.5,0,0,1-3.76-3.53c0-3,2.64-4.6,7.39-4.57v-.25a2.54,2.54,0,0,0-2.8-2.85,6.08,6.08,0,0,0-3.19.92l-.51-1.48a7.61,7.61,0,0,1,4-1.09c3.76,0,4.68,2.57,4.68,5v4.59a17.62,17.62,0,0,0,.2,2.95Zm-.33-6.27c-2.44-.05-5.21.38-5.21,2.77a2,2,0,0,0,2.11,2.13,3.05,3.05,0,0,0,3-2.06,2.22,2.22,0,0,0,.13-.71Z"/><path class="cls-4" d="M362.53,356.88c0-1.27,0-2.31-.1-3.33h2l.13,2h0a4.51,4.51,0,0,1,4.06-2.31c1.7,0,4.34,1,4.34,5.23v7.34h-2.23v-7.08c0-2-.74-3.63-2.85-3.63a3.17,3.17,0,0,0-3,2.28,3.26,3.26,0,0,0-.15,1v7.39h-2.24Z"/><path class="cls-4" d="M387.24,347.81v14.86c0,1.09,0,2.33.1,3.17h-2l-.1-2.13h-.05a4.56,4.56,0,0,1-4.19,2.41c-3,0-5.26-2.51-5.26-6.25,0-4.08,2.52-6.6,5.51-6.6a4.12,4.12,0,0,1,3.71,1.88H385v-7.34ZM385,358.55a3.76,3.76,0,0,0-.1-.94,3.29,3.29,0,0,0-3.23-2.59c-2.31,0-3.68,2-3.68,4.75,0,2.49,1.22,4.55,3.63,4.55a3.36,3.36,0,0,0,3.28-2.67,3.68,3.68,0,0,0,.1-1Z"/><path class="cls-4" d="M403.13,365.84l-.18-1.55h-.08a4.54,4.54,0,0,1-3.75,1.83,3.5,3.5,0,0,1-3.76-3.53c0-3,2.64-4.6,7.39-4.57v-.25a2.54,2.54,0,0,0-2.8-2.85,6.14,6.14,0,0,0-3.2.92l-.5-1.48a7.61,7.61,0,0,1,4-1.09c3.76,0,4.68,2.57,4.68,5v4.59a17.62,17.62,0,0,0,.2,2.95Zm-.33-6.27c-2.44-.05-5.21.38-5.21,2.77a2,2,0,0,0,2.11,2.13,3.05,3.05,0,0,0,3-2.06,2.22,2.22,0,0,0,.13-.71Z"/><path class="cls-4" d="M408.79,365.84V355.25h-1.73v-1.7h1.73V353a5.79,5.79,0,0,1,1.42-4.29,4.26,4.26,0,0,1,3-1.15,5.12,5.12,0,0,1,1.9.36l-.3,1.73a3.25,3.25,0,0,0-1.43-.28c-1.9,0-2.38,1.67-2.38,3.55v.66h3v1.7h-3v10.59Z"/><path class="cls-4" d="M418.94,350v3.53h3.2v1.7h-3.2v6.63c0,1.52.43,2.39,1.68,2.39a4.73,4.73,0,0,0,1.29-.16l.11,1.68a5.5,5.5,0,0,1-2,.3,3.1,3.1,0,0,1-2.41-.94,4.56,4.56,0,0,1-.86-3.19v-6.71h-1.9v-1.7h1.9v-2.94Z"/><path class="cls-4" d="M425.75,360.1c.05,3,2,4.27,4.21,4.27a8,8,0,0,0,3.4-.64l.38,1.6a9.83,9.83,0,0,1-4.08.76c-3.79,0-6.05-2.48-6.05-6.19s2.19-6.63,5.77-6.63c4,0,5.08,3.53,5.08,5.79a7.43,7.43,0,0,1-.08,1Zm6.55-1.6c0-1.42-.59-3.63-3.1-3.63-2.26,0-3.25,2.08-3.43,3.63Z"/><path class="cls-4" d="M437.22,357.39c0-1.45,0-2.7-.1-3.84h2l.07,2.41h.1a3.69,3.69,0,0,1,3.41-2.69,2.41,2.41,0,0,1,.63.08v2.11a2.91,2.91,0,0,0-.76-.08,3.13,3.13,0,0,0-3,2.87,6.33,6.33,0,0,0-.1,1v6.55h-2.21Z"/><path class="cls-4" d="M450.58,358.15v1.65h-6.27v-1.65Z"/><path class="cls-4" d="M452.89,363.56a5.87,5.87,0,0,0,2.94.88c1.63,0,2.39-.81,2.39-1.82s-.64-1.65-2.29-2.26c-2.2-.79-3.25-2-3.25-3.48,0-2,1.6-3.61,4.24-3.61a6.23,6.23,0,0,1,3,.76l-.56,1.63a4.73,4.73,0,0,0-2.52-.71c-1.32,0-2.05.76-2.05,1.67s.73,1.48,2.33,2.09c2.14.81,3.23,1.87,3.23,3.7,0,2.16-1.68,3.68-4.6,3.68a7.09,7.09,0,0,1-3.45-.83Z"/><path class="cls-4" d="M470.05,365.84l-.18-1.55h-.07a4.58,4.58,0,0,1-3.76,1.83,3.5,3.5,0,0,1-3.76-3.53c0-3,2.64-4.6,7.39-4.57v-.25a2.54,2.54,0,0,0-2.79-2.85,6.09,6.09,0,0,0-3.2.92l-.51-1.48a7.65,7.65,0,0,1,4-1.09c3.75,0,4.67,2.57,4.67,5v4.59a17.62,17.62,0,0,0,.2,2.95Zm-.33-6.27c-2.44-.05-5.2.38-5.2,2.77a2,2,0,0,0,2.1,2.13,3.05,3.05,0,0,0,3-2.06,2.22,2.22,0,0,0,.13-.71Z"/><path class="cls-4" d="M475.48,347.81h2.24v18h-2.24Z"/><path class="cls-4" d="M482.72,360.1c0,3,2,4.27,4.21,4.27a8,8,0,0,0,3.41-.64l.38,1.6a9.93,9.93,0,0,1-4.09.76c-3.78,0-6-2.48-6-6.19s2.18-6.63,5.76-6.63c4,0,5.08,3.53,5.08,5.79a7.43,7.43,0,0,1-.08,1Zm6.55-1.6c0-1.42-.58-3.63-3.1-3.63-2.26,0-3.25,2.08-3.43,3.63Z"/><path class="cls-4" d="M493.89,363.56a5.87,5.87,0,0,0,2.94.88c1.63,0,2.39-.81,2.39-1.82s-.63-1.65-2.28-2.26c-2.21-.79-3.25-2-3.25-3.48,0-2,1.6-3.61,4.24-3.61a6.22,6.22,0,0,1,3,.76l-.56,1.63a4.72,4.72,0,0,0-2.51-.71c-1.32,0-2.06.76-2.06,1.67s.74,1.48,2.34,2.09c2.13.81,3.22,1.87,3.22,3.7,0,2.16-1.68,3.68-4.6,3.68a7.09,7.09,0,0,1-3.45-.83Z"/><path class="cls-4" d="M305.82,402.32c-.13-2.38-.28-5.25-.26-7.38h-.07c-.59,2-1.3,4.13-2.16,6.5l-3,8.3h-1.68l-2.77-8.15c-.81-2.41-1.5-4.62-2-6.65h-.05c-.05,2.13-.18,5-.33,7.56l-.46,7.34h-2.1l1.19-17.11H295l2.92,8.27c.71,2.11,1.29,4,1.72,5.77h.08c.43-1.73,1-3.61,1.8-5.77l3-8.27h2.82l1.07,17.11h-2.16Z"/><path class="cls-4" d="M318.69,409.84l-.18-1.55h-.08a4.55,4.55,0,0,1-3.76,1.83,3.5,3.5,0,0,1-3.75-3.53c0-3,2.64-4.6,7.39-4.57v-.25a2.54,2.54,0,0,0-2.8-2.85,6.14,6.14,0,0,0-3.2.92l-.5-1.48a7.58,7.58,0,0,1,4-1.09c3.76,0,4.67,2.57,4.67,5v4.59a17.55,17.55,0,0,0,.21,2.95Zm-.33-6.27c-2.44-.05-5.21.38-5.21,2.77a2,2,0,0,0,2.11,2.13,3.06,3.06,0,0,0,3-2.06,2.22,2.22,0,0,0,.13-.71Z"/><path class="cls-4" d="M326.61,394.1a1.39,1.39,0,0,1-2.77,0,1.36,1.36,0,0,1,1.4-1.4A1.33,1.33,0,0,1,326.61,394.1Zm-2.49,15.74V397.55h2.23v12.29Z"/><path class="cls-4" d="M330.06,400.88c0-1.27,0-2.31-.1-3.33h2l.13,2h.05a4.51,4.51,0,0,1,4.06-2.31c1.7,0,4.34,1,4.34,5.23v7.34h-2.23v-7.08c0-2-.74-3.63-2.85-3.63a3.17,3.17,0,0,0-3,2.28,3,3,0,0,0-.16,1v7.39h-2.23Z"/><path class="cls-4" d="M346.74,394v3.53h3.2v1.7h-3.2v6.63c0,1.52.43,2.39,1.68,2.39a4.73,4.73,0,0,0,1.29-.16l.1,1.68a5.4,5.4,0,0,1-2,.3,3.09,3.09,0,0,1-2.41-.94,4.51,4.51,0,0,1-.86-3.19v-6.71h-1.91v-1.7h1.91v-2.94Z"/><path class="cls-4" d="M353.54,404.1c0,3,2,4.27,4.22,4.27a8,8,0,0,0,3.4-.64l.38,1.6a9.89,9.89,0,0,1-4.09.76c-3.78,0-6-2.48-6-6.19s2.18-6.63,5.76-6.63c4,0,5.08,3.53,5.08,5.79a10,10,0,0,1-.07,1Zm6.55-1.6c0-1.42-.58-3.63-3.09-3.63-2.26,0-3.25,2.08-3.43,3.63Z"/><path class="cls-4" d="M365,400.88c0-1.27,0-2.31-.1-3.33h2l.13,2h.05a4.51,4.51,0,0,1,4.06-2.31c1.7,0,4.34,1,4.34,5.23v7.34h-2.23v-7.08c0-2-.74-3.63-2.85-3.63a3.17,3.17,0,0,0-3,2.28,3,3,0,0,0-.16,1v7.39H365Z"/><path class="cls-4" d="M385.91,409.84l-.17-1.55h-.08a4.55,4.55,0,0,1-3.76,1.83,3.49,3.49,0,0,1-3.75-3.53c0-3,2.64-4.6,7.38-4.57v-.25a2.54,2.54,0,0,0-2.79-2.85,6.14,6.14,0,0,0-3.2.92l-.51-1.48a7.65,7.65,0,0,1,4-1.09c3.76,0,4.67,2.57,4.67,5v4.59a16.55,16.55,0,0,0,.21,2.95Zm-.33-6.27c-2.43-.05-5.2.38-5.2,2.77a2,2,0,0,0,2.11,2.13,3.06,3.06,0,0,0,3-2.06,2.52,2.52,0,0,0,.12-.71Z"/><path class="cls-4" d="M391.35,400.88c0-1.27,0-2.31-.1-3.33h2l.12,2h0a4.53,4.53,0,0,1,4.07-2.31c1.7,0,4.34,1,4.34,5.23v7.34h-2.24v-7.08c0-2-.73-3.63-2.84-3.63a3.19,3.19,0,0,0-3,2.28,3.26,3.26,0,0,0-.15,1v7.39h-2.23Z"/><path class="cls-4" d="M414.2,409.38a8.18,8.18,0,0,1-3.53.71c-3.71,0-6.12-2.51-6.12-6.27a6.24,6.24,0,0,1,6.6-6.52,7.57,7.57,0,0,1,3.1.63l-.51,1.73a5.1,5.1,0,0,0-2.59-.59c-2.82,0-4.34,2.09-4.34,4.65,0,2.84,1.83,4.6,4.27,4.6a6.38,6.38,0,0,0,2.74-.61Z"/><path class="cls-4" d="M417.9,404.1c.05,3,2,4.27,4.22,4.27a8,8,0,0,0,3.4-.64l.38,1.6a9.85,9.85,0,0,1-4.09.76c-3.78,0-6-2.48-6-6.19s2.18-6.63,5.76-6.63c4,0,5.08,3.53,5.08,5.79a10,10,0,0,1-.07,1Zm6.55-1.6c0-1.42-.58-3.63-3.09-3.63-2.26,0-3.25,2.08-3.43,3.63Z"/><path class="cls-4" d="M441.57,409.84l-.18-1.55h-.08a4.55,4.55,0,0,1-3.76,1.83,3.5,3.5,0,0,1-3.75-3.53c0-3,2.64-4.6,7.39-4.57v-.25a2.54,2.54,0,0,0-2.8-2.85,6.14,6.14,0,0,0-3.2.92l-.5-1.48a7.58,7.58,0,0,1,4-1.09c3.76,0,4.67,2.57,4.67,5v4.59a17.55,17.55,0,0,0,.21,2.95Zm-.33-6.27c-2.44-.05-5.21.38-5.21,2.77a2,2,0,0,0,2.11,2.13,3.06,3.06,0,0,0,3-2.06,2.22,2.22,0,0,0,.13-.71Z"/><path class="cls-4" d="M447,400.88c0-1.27,0-2.31-.1-3.33h2l.12,2h.06a4.5,4.5,0,0,1,4.06-2.31c1.7,0,4.34,1,4.34,5.23v7.34h-2.23v-7.08c0-2-.74-3.63-2.85-3.63a3.17,3.17,0,0,0-3,2.28,3,3,0,0,0-.16,1v7.39H447Z"/><path class="cls-4" d="M471.7,391.81v14.86c0,1.09,0,2.33.1,3.17h-2l-.1-2.13h-.05a4.56,4.56,0,0,1-4.19,2.41c-3,0-5.26-2.51-5.26-6.25,0-4.08,2.51-6.6,5.51-6.6a4.12,4.12,0,0,1,3.71,1.88h.05v-7.34Zm-2.23,10.74a4.29,4.29,0,0,0-.1-.94,3.29,3.29,0,0,0-3.23-2.59c-2.31,0-3.68,2-3.68,4.75,0,2.49,1.22,4.55,3.63,4.55a3.36,3.36,0,0,0,3.28-2.67,4.16,4.16,0,0,0,.1-1Z"/><path class="cls-4" d="M483.28,394.1a1.39,1.39,0,0,1-2.77,0,1.37,1.37,0,0,1,1.4-1.4A1.33,1.33,0,0,1,483.28,394.1Zm-2.49,15.74V397.55H483v12.29Z"/><path class="cls-4" d="M486.73,400.88c0-1.27,0-2.31-.1-3.33h2l.13,2h.05a4.51,4.51,0,0,1,4.06-2.31c1.7,0,4.34,1,4.34,5.23v7.34H495v-7.08c0-2-.74-3.63-2.85-3.63a3.17,3.17,0,0,0-3,2.28,3.26,3.26,0,0,0-.15,1v7.39h-2.24Z"/><path class="cls-4" d="M501.36,397.55l2.41,6.91c.4,1.11.73,2.13,1,3.15h.07c.28-1,.64-2,1.05-3.15l2.38-6.91h2.34l-4.83,12.29h-2.13L499,397.55Z"/><path class="cls-4" d="M513.7,404.1c0,3,2,4.27,4.21,4.27a8,8,0,0,0,3.4-.64l.38,1.6a9.83,9.83,0,0,1-4.08.76c-3.79,0-6.05-2.48-6.05-6.19s2.19-6.63,5.77-6.63c4,0,5.07,3.53,5.07,5.79a10,10,0,0,1-.07,1Zm6.55-1.6c0-1.42-.59-3.63-3.1-3.63-2.26,0-3.25,2.08-3.43,3.63Z"/><path class="cls-4" d="M525.17,400.88c0-1.27,0-2.31-.1-3.33h2l.13,2h.05a4.51,4.51,0,0,1,4.06-2.31c1.7,0,4.34,1,4.34,5.23v7.34H533.4v-7.08c0-2-.74-3.63-2.85-3.63a3.17,3.17,0,0,0-3,2.28,3.26,3.26,0,0,0-.15,1v7.39h-2.24Z"/><path class="cls-4" d="M541.85,394v3.53h3.2v1.7h-3.2v6.63c0,1.52.43,2.39,1.68,2.39a4.73,4.73,0,0,0,1.29-.16l.1,1.68a5.4,5.4,0,0,1-2,.3,3.09,3.09,0,0,1-2.41-.94,4.56,4.56,0,0,1-.86-3.19v-6.71h-1.91v-1.7h1.91v-2.94Z"/><path class="cls-4" d="M558.53,403.59c0,4.55-3.15,6.53-6.12,6.53-3.32,0-5.89-2.44-5.89-6.32,0-4.12,2.69-6.53,6.1-6.53S558.53,399.84,558.53,403.59Zm-9.75.13c0,2.69,1.55,4.72,3.73,4.72s3.74-2,3.74-4.77c0-2.08-1-4.72-3.68-4.72S548.78,401.39,548.78,403.72Z"/><path class="cls-4" d="M561.35,401.39c0-1.45,0-2.7-.1-3.84h2l.08,2.41h.1a3.68,3.68,0,0,1,3.4-2.69,2.49,2.49,0,0,1,.64.08v2.11a2.91,2.91,0,0,0-.76-.08,3.13,3.13,0,0,0-3,2.87,6.33,6.33,0,0,0-.1,1v6.55h-2.21Z"/><path class="cls-4" d="M571.1,397.55l2.69,7.26c.28.82.58,1.78.79,2.52h0c.23-.74.48-1.68.78-2.57l2.44-7.21h2.36l-3.35,8.76c-1.6,4.22-2.69,6.37-4.21,7.69a6,6,0,0,1-2.74,1.45l-.56-1.88a5.88,5.88,0,0,0,1.95-1.09,6.72,6.72,0,0,0,1.88-2.49,1.63,1.63,0,0,0,.18-.53,1.87,1.87,0,0,0-.15-.58l-4.55-11.33Z"/><path class="cls-4" d="M69.11,620.18a11.59,11.59,0,0,0,5.51,1.45c2.67,0,4.16-1.25,4.16-3.11s-1.15-2.74-4.06-3.79c-3.75-1.36-6.16-3.35-6.16-6.64,0-3.72,3.12-6.56,8.06-6.56a12,12,0,0,1,5.48,1.15l-1,3.35A9.72,9.72,0,0,0,76.55,605c-2.64,0-3.79,1.42-3.79,2.74,0,1.76,1.32,2.57,4.37,3.75,4,1.49,5.88,3.49,5.88,6.77,0,3.66-2.77,6.84-8.66,6.84a13.61,13.61,0,0,1-6.16-1.42Z"/><path class="cls-4" d="M89.75,617.64c.1,3,2.44,4.26,5.08,4.26a12.47,12.47,0,0,0,4.57-.74L100,624a15.45,15.45,0,0,1-5.76,1c-5.34,0-8.49-3.28-8.49-8.33,0-4.56,2.77-8.86,8-8.86s7.11,4.4,7.11,8a11.21,11.21,0,0,1-.13,1.76ZM97,614.73c0-1.53-.65-4-3.42-4-2.57,0-3.66,2.34-3.83,4Z"/><path class="cls-4" d="M104.28,613.54c0-2.23,0-3.82-.14-5.31h3.62l.14,3.15H108a4.91,4.91,0,0,1,4.5-3.52,4.16,4.16,0,0,1,1,.1v3.92a6.3,6.3,0,0,0-1.21-.13,3.68,3.68,0,0,0-3.73,3.15,7.9,7.9,0,0,0-.13,1.28v8.53h-4.16Z"/><path class="cls-4" d="M119.71,608.23l2.67,8.36a40.65,40.65,0,0,1,1.12,4.13h.1c.31-1.36.68-2.64,1.12-4.13l2.61-8.36h4.39l-6.29,16.48h-4.1l-6.12-16.48Z"/><path class="cls-4" d="M138.7,603.63a2.34,2.34,0,0,1-4.67,0,2.34,2.34,0,0,1,4.67,0Zm-4.43,21.08V608.23h4.19v16.48Z"/><path class="cls-4" d="M155.05,624.2a12,12,0,0,1-4.67.85c-5.15,0-8.5-3.28-8.5-8.39,0-4.94,3.39-8.8,9.18-8.8a10.33,10.33,0,0,1,4,.78l-.74,3.11a7.28,7.28,0,0,0-3.15-.64c-3.18,0-5.08,2.33-5,5.34,0,3.39,2.2,5.32,5,5.32a8.06,8.06,0,0,0,3.28-.65Z"/><path class="cls-4" d="M160.77,617.64c.1,3,2.44,4.26,5.08,4.26a12.51,12.51,0,0,0,4.57-.74L171,624a15.45,15.45,0,0,1-5.76,1c-5.34,0-8.49-3.28-8.49-8.33,0-4.56,2.77-8.86,8.05-8.86s7.11,4.4,7.11,8a9.88,9.88,0,0,1-.14,1.76Zm7.24-2.91c0-1.53-.64-4-3.41-4-2.58,0-3.66,2.34-3.83,4Z"/><path class="cls-4" d="M175.09,620.89a9.36,9.36,0,0,0,4.23,1.18c1.83,0,2.64-.74,2.64-1.83s-.68-1.69-2.71-2.4c-3.21-1.12-4.56-2.88-4.53-4.8,0-2.92,2.4-5.18,6.23-5.18a9.66,9.66,0,0,1,4.36,1l-.81,2.94a7.48,7.48,0,0,0-3.49-.94c-1.49,0-2.3.71-2.3,1.72s.78,1.56,2.88,2.3c3,1.09,4.36,2.61,4.4,5,0,3-2.34,5.14-6.7,5.14a10.6,10.6,0,0,1-5-1.15Z"/><path class="cls-4" d="M293.6,491.73v17.11h-2.21V491.73Z"/><path class="cls-4" d="M297.64,499.88c0-1.27,0-2.31-.1-3.33h2l.12,2h.06a4.5,4.5,0,0,1,4.06-2.31c1.7,0,4.34,1,4.34,5.23v7.34h-2.23v-7.08c0-2-.74-3.63-2.85-3.63a3.17,3.17,0,0,0-3,2.28,3,3,0,0,0-.16,1v7.39h-2.23Z"/><path class="cls-4" d="M316.91,501.15v1.65h-6.27v-1.65Z"/><path class="cls-4" d="M320.26,496.55l2.41,6.91a28.92,28.92,0,0,1,1,3.15h.08c.28-1,.63-2,1-3.15l2.39-6.91h2.33l-4.82,12.29h-2.14l-4.67-12.29Z"/><path class="cls-4" d="M332.6,503.1c0,3,2,4.27,4.21,4.27a8,8,0,0,0,3.41-.64l.38,1.6a9.93,9.93,0,0,1-4.09.76c-3.78,0-6-2.48-6-6.19s2.18-6.63,5.76-6.63c4,0,5.08,3.53,5.08,5.79a7.43,7.43,0,0,1-.08,1Zm6.55-1.6c0-1.42-.58-3.63-3.1-3.63-2.26,0-3.25,2.08-3.43,3.63Z"/><path class="cls-4" d="M344.07,490.81h2.24v7.67h.05a4.1,4.1,0,0,1,1.6-1.57,4.61,4.61,0,0,1,2.28-.64c1.65,0,4.29,1,4.29,5.26v7.31H352.3v-7.06c0-2-.74-3.65-2.84-3.65a3.21,3.21,0,0,0-3,2.23,2.64,2.64,0,0,0-.15,1.07v7.41h-2.24Z"/><path class="cls-4" d="M360.65,493.1a1.38,1.38,0,0,1-2.76,0,1.36,1.36,0,0,1,1.39-1.4A1.33,1.33,0,0,1,360.65,493.1Zm-2.49,15.74V496.55h2.24v12.29Z"/><path class="cls-4" d="M372.87,508.38a8.18,8.18,0,0,1-3.53.71c-3.71,0-6.12-2.51-6.12-6.27a6.24,6.24,0,0,1,6.6-6.52,7.57,7.57,0,0,1,3.1.63l-.51,1.73a5.13,5.13,0,0,0-2.59-.59c-2.82,0-4.34,2.09-4.34,4.65,0,2.84,1.82,4.6,4.26,4.6a6.31,6.31,0,0,0,2.74-.61Z"/><path class="cls-4" d="M375.48,490.81h2.23v18h-2.23Z"/><path class="cls-4" d="M382.71,503.1c.06,3,2,4.27,4.22,4.27a8,8,0,0,0,3.4-.64l.38,1.6a9.85,9.85,0,0,1-4.09.76c-3.78,0-6-2.48-6-6.19s2.19-6.63,5.77-6.63c4,0,5.07,3.53,5.07,5.79a10,10,0,0,1-.07,1Zm6.56-1.6c0-1.42-.59-3.63-3.1-3.63-2.26,0-3.25,2.08-3.43,3.63Z"/><path class="cls-4" d="M410.19,490.81v14.86c0,1.09,0,2.33.1,3.17h-2l-.1-2.13h-.05a4.55,4.55,0,0,1-4.19,2.41c-3,0-5.26-2.51-5.26-6.25,0-4.08,2.52-6.6,5.51-6.6a4.12,4.12,0,0,1,3.71,1.88H408v-7.34ZM408,501.55a3.76,3.76,0,0,0-.1-.94,3.29,3.29,0,0,0-3.23-2.59c-2.31,0-3.68,2-3.68,4.75,0,2.49,1.22,4.55,3.63,4.55a3.36,3.36,0,0,0,3.28-2.67,3.68,3.68,0,0,0,.1-1Z"/><path class="cls-4" d="M416.38,493.1a1.31,1.31,0,0,1-1.42,1.37,1.33,1.33,0,0,1-1.35-1.37,1.37,1.37,0,0,1,1.4-1.4A1.33,1.33,0,0,1,416.38,493.1Zm-2.49,15.74V496.55h2.24v12.29Z"/><path class="cls-4" d="M426.64,508.84l-.18-1.55h-.08a4.55,4.55,0,0,1-3.76,1.83,3.5,3.5,0,0,1-3.75-3.53c0-3,2.64-4.6,7.39-4.57v-.25a2.54,2.54,0,0,0-2.8-2.85,6.14,6.14,0,0,0-3.2.92l-.5-1.48a7.58,7.58,0,0,1,4-1.09c3.76,0,4.67,2.57,4.67,5v4.59a17.55,17.55,0,0,0,.21,2.95Zm-.33-6.27c-2.44-.05-5.21.38-5.21,2.77a2,2,0,0,0,2.11,2.13,3.06,3.06,0,0,0,3-2.06,2.22,2.22,0,0,0,.13-.71Z"/><path class="cls-4" d="M442.66,496.55c-.05.89-.1,1.88-.1,3.38v7.13c0,2.82-.56,4.55-1.76,5.61a6.5,6.5,0,0,1-4.47,1.48,7.91,7.91,0,0,1-4.08-1l.56-1.7a6.89,6.89,0,0,0,3.6,1c2.29,0,4-1.19,4-4.29v-1.37h-.05a4.36,4.36,0,0,1-3.91,2.06c-3.05,0-5.23-2.59-5.23-6,0-4.17,2.72-6.53,5.54-6.53a4.09,4.09,0,0,1,3.83,2.13h.05l.1-1.85Zm-2.31,4.85a3.17,3.17,0,0,0-.13-1A3.22,3.22,0,0,0,437.1,498c-2.14,0-3.66,1.81-3.66,4.65,0,2.41,1.22,4.42,3.63,4.42a3.27,3.27,0,0,0,3.1-2.29,3.78,3.78,0,0,0,.18-1.19Z"/><path class="cls-4" d="M446.11,499.88c0-1.27,0-2.31-.1-3.33h2l.12,2h.05a4.53,4.53,0,0,1,4.07-2.31c1.7,0,4.34,1,4.34,5.23v7.34h-2.24v-7.08c0-2-.73-3.63-2.84-3.63a3.19,3.19,0,0,0-3,2.28,3.26,3.26,0,0,0-.15,1v7.39h-2.23Z"/><path class="cls-4" d="M471.32,502.59c0,4.55-3.15,6.53-6.12,6.53-3.33,0-5.89-2.44-5.89-6.32,0-4.12,2.69-6.53,6.09-6.53S471.32,498.84,471.32,502.59Zm-9.75.13c0,2.69,1.55,4.72,3.73,4.72s3.73-2,3.73-4.77c0-2.08-1-4.72-3.68-4.72S461.57,500.39,461.57,502.72Z"/><path class="cls-4" d="M473.83,506.56a5.88,5.88,0,0,0,2.95.88c1.62,0,2.38-.81,2.38-1.82s-.63-1.65-2.28-2.26c-2.21-.79-3.25-2-3.25-3.48,0-2,1.6-3.61,4.24-3.61a6.19,6.19,0,0,1,3,.76l-.56,1.63a4.72,4.72,0,0,0-2.51-.71c-1.32,0-2.06.76-2.06,1.67s.74,1.48,2.34,2.09c2.13.81,3.22,1.87,3.22,3.7,0,2.16-1.67,3.68-4.59,3.68a7.13,7.13,0,0,1-3.46-.83Z"/><path class="cls-4" d="M486.88,493v3.53h3.2v1.7h-3.2v6.63c0,1.52.43,2.39,1.68,2.39a4.73,4.73,0,0,0,1.29-.16l.1,1.68a5.4,5.4,0,0,1-2,.3,3.1,3.1,0,0,1-2.41-.94,4.56,4.56,0,0,1-.86-3.19v-6.71h-1.91v-1.7h1.91v-2.94Z"/><path class="cls-4" d="M495.08,493.1a1.38,1.38,0,0,1-2.76,0,1.36,1.36,0,0,1,1.39-1.4A1.33,1.33,0,0,1,495.08,493.1Zm-2.49,15.74V496.55h2.24v12.29Z"/><path class="cls-4" d="M507.29,508.38a8.09,8.09,0,0,1-3.52.71c-3.71,0-6.12-2.51-6.12-6.27a6.24,6.24,0,0,1,6.6-6.52,7.57,7.57,0,0,1,3.1.63l-.51,1.73a5.13,5.13,0,0,0-2.59-.59c-2.82,0-4.34,2.09-4.34,4.65,0,2.84,1.82,4.6,4.26,4.6a6.31,6.31,0,0,0,2.74-.61Z"/><path class="cls-4" d="M509.6,506.56a5.88,5.88,0,0,0,2.95.88c1.62,0,2.39-.81,2.39-1.82s-.64-1.65-2.29-2.26c-2.21-.79-3.25-2-3.25-3.48,0-2,1.6-3.61,4.24-3.61a6.16,6.16,0,0,1,3,.76l-.56,1.63a4.72,4.72,0,0,0-2.51-.71c-1.32,0-2.06.76-2.06,1.67s.74,1.48,2.34,2.09c2.13.81,3.22,1.87,3.22,3.7,0,2.16-1.67,3.68-4.59,3.68a7.06,7.06,0,0,1-3.45-.83Z"/><path class="cls-4" d="M291.39,535.93a25.46,25.46,0,0,1,4.24-.33,7,7,0,0,1,4.8,1.42,4.6,4.6,0,0,1,1.5,3.58,5.06,5.06,0,0,1-1.32,3.66,7.11,7.11,0,0,1-5.23,1.88,7.45,7.45,0,0,1-1.78-.16v6.86h-2.21Zm2.21,8.25a7.24,7.24,0,0,0,1.83.18c2.67,0,4.29-1.3,4.29-3.66s-1.6-3.35-4-3.35a9.33,9.33,0,0,0-2.08.18Z"/><path class="cls-4" d="M304.42,544.39c0-1.45,0-2.7-.1-3.84h1.95l.08,2.41h.1a3.68,3.68,0,0,1,3.4-2.69,2.49,2.49,0,0,1,.64.08v2.11a2.94,2.94,0,0,0-.77-.08,3.13,3.13,0,0,0-3,2.87,6.33,6.33,0,0,0-.1,1v6.55h-2.21Z"/><path class="cls-4" d="M323.59,546.59c0,4.55-3.15,6.53-6.12,6.53-3.33,0-5.89-2.44-5.89-6.32,0-4.12,2.69-6.53,6.09-6.53S323.59,542.84,323.59,546.59Zm-9.75.13c0,2.69,1.55,4.72,3.73,4.72s3.73-2,3.73-4.77c0-2.08-1-4.72-3.68-4.72S313.84,544.39,313.84,546.72Z"/><path class="cls-4" d="M337,534.81v14.86c0,1.09,0,2.33.1,3.17h-2l-.1-2.13H335a4.54,4.54,0,0,1-4.19,2.41c-3,0-5.25-2.51-5.25-6.25,0-4.08,2.51-6.6,5.51-6.6a4.11,4.11,0,0,1,3.7,1.88h0v-7.34Zm-2.24,10.74a3.76,3.76,0,0,0-.1-.94,3.29,3.29,0,0,0-3.22-2.59c-2.31,0-3.68,2-3.68,4.75,0,2.49,1.21,4.55,3.63,4.55a3.35,3.35,0,0,0,3.27-2.67,3.68,3.68,0,0,0,.1-1Z"/><path class="cls-4" d="M351,549.49c0,1.27,0,2.39.1,3.35h-2l-.13-2H349a4.62,4.62,0,0,1-4.06,2.29c-1.93,0-4.24-1.07-4.24-5.38v-7.19h2.23v6.81c0,2.33.71,3.91,2.74,3.91a3.25,3.25,0,0,0,2.95-2,3.17,3.17,0,0,0,.2-1.14v-7.54H351Z"/><path class="cls-4" d="M363.47,552.38a8.14,8.14,0,0,1-3.53.71c-3.7,0-6.12-2.51-6.12-6.27a6.24,6.24,0,0,1,6.61-6.52,7.52,7.52,0,0,1,3.09.63l-.5,1.73a5.16,5.16,0,0,0-2.59-.59c-2.82,0-4.35,2.09-4.35,4.65,0,2.84,1.83,4.6,4.27,4.6a6.31,6.31,0,0,0,2.74-.61Z"/><path class="cls-4" d="M369.11,537v3.53h3.2v1.7h-3.2v6.63c0,1.52.43,2.39,1.67,2.39a4.76,4.76,0,0,0,1.3-.16l.1,1.68a5.44,5.44,0,0,1-2,.3,3.09,3.09,0,0,1-2.41-.94,4.51,4.51,0,0,1-.87-3.19v-6.71H365v-1.7h1.9v-2.94Z"/><path class="cls-4" d="M378.32,553.86l7.09-18.41h1.72L380,553.86Z"/><path class="cls-4" d="M397,537v3.53h3.2v1.7H397v6.63c0,1.52.43,2.39,1.68,2.39a4.73,4.73,0,0,0,1.29-.16l.11,1.68a5.48,5.48,0,0,1-2,.3,3.11,3.11,0,0,1-2.42-.94,4.56,4.56,0,0,1-.86-3.19v-6.71h-1.9v-1.7h1.9v-2.94Z"/><path class="cls-4" d="M402.7,544.39c0-1.45,0-2.7-.11-3.84h2l.07,2.41h.11a3.67,3.67,0,0,1,3.4-2.69,2.41,2.41,0,0,1,.63.08v2.11a2.86,2.86,0,0,0-.76-.08,3.13,3.13,0,0,0-3,2.87,5.35,5.35,0,0,0-.11,1v6.55h-2.2Z"/><path class="cls-4" d="M417.67,552.84l-.17-1.55h-.08a4.56,4.56,0,0,1-3.76,1.83,3.49,3.49,0,0,1-3.75-3.53c0-3,2.64-4.6,7.38-4.57v-.25a2.54,2.54,0,0,0-2.79-2.85,6.11,6.11,0,0,0-3.2.92l-.51-1.48a7.65,7.65,0,0,1,4-1.09c3.76,0,4.67,2.57,4.67,5v4.59a16.55,16.55,0,0,0,.21,3Zm-.33-6.27c-2.43-.05-5.2.38-5.2,2.77a2,2,0,0,0,2.11,2.13,3.06,3.06,0,0,0,3-2.06,2.52,2.52,0,0,0,.12-.71Z"/><path class="cls-4" d="M423.11,543.88c0-1.27,0-2.31-.1-3.33h2l.12,2h.05a4.53,4.53,0,0,1,4.07-2.31c1.7,0,4.34,1,4.34,5.23v7.34h-2.24v-7.08c0-2-.73-3.63-2.84-3.63a3.18,3.18,0,0,0-3,2.28,3.26,3.26,0,0,0-.15,1v7.39h-2.23Z"/><path class="cls-4" d="M436.89,550.56a5.88,5.88,0,0,0,2.95.88c1.62,0,2.39-.81,2.39-1.82s-.64-1.65-2.29-2.26c-2.21-.79-3.25-2-3.25-3.48,0-2,1.6-3.61,4.24-3.61a6.19,6.19,0,0,1,3,.76l-.56,1.63a4.72,4.72,0,0,0-2.51-.71c-1.32,0-2.06.76-2.06,1.67s.74,1.48,2.34,2.09c2.13.81,3.22,1.87,3.22,3.7,0,2.16-1.67,3.68-4.59,3.68a7.13,7.13,0,0,1-3.46-.83Z"/><path class="cls-4" d="M454.06,552.84l-.18-1.55h-.08a4.55,4.55,0,0,1-3.76,1.83,3.5,3.5,0,0,1-3.75-3.53c0-3,2.64-4.6,7.39-4.57v-.25a2.54,2.54,0,0,0-2.8-2.85,6.14,6.14,0,0,0-3.2.92l-.5-1.48a7.58,7.58,0,0,1,4-1.09c3.76,0,4.67,2.57,4.67,5v4.59a17.55,17.55,0,0,0,.21,3Zm-.33-6.27c-2.44-.05-5.21.38-5.21,2.77a2,2,0,0,0,2.11,2.13,3.06,3.06,0,0,0,3-2.06,2.22,2.22,0,0,0,.13-.71Z"/><path class="cls-4" d="M468.25,552.38a8.18,8.18,0,0,1-3.53.71c-3.71,0-6.12-2.51-6.12-6.27a6.24,6.24,0,0,1,6.6-6.52,7.57,7.57,0,0,1,3.1.63l-.51,1.73a5.1,5.1,0,0,0-2.59-.59c-2.82,0-4.34,2.09-4.34,4.65,0,2.84,1.83,4.6,4.27,4.6a6.34,6.34,0,0,0,2.74-.61Z"/><path class="cls-4" d="M473.88,537v3.53h3.2v1.7h-3.2v6.63c0,1.52.44,2.39,1.68,2.39a4.82,4.82,0,0,0,1.3-.16l.1,1.68a5.44,5.44,0,0,1-2,.3,3.12,3.12,0,0,1-2.42-.94,4.56,4.56,0,0,1-.86-3.19v-6.71h-1.9v-1.7h1.9v-2.94Z"/><path class="cls-4" d="M482.08,537.1a1.31,1.31,0,0,1-1.42,1.37,1.33,1.33,0,0,1-1.34-1.37,1.36,1.36,0,0,1,1.39-1.4A1.33,1.33,0,0,1,482.08,537.1Zm-2.48,15.74V540.55h2.23v12.29Z"/><path class="cls-4" d="M496.66,546.59c0,4.55-3.15,6.53-6.12,6.53-3.33,0-5.89-2.44-5.89-6.32,0-4.12,2.69-6.53,6.09-6.53S496.66,542.84,496.66,546.59Zm-9.75.13c0,2.69,1.55,4.72,3.73,4.72s3.73-2,3.73-4.77c0-2.08-1-4.72-3.68-4.72S486.91,544.39,486.91,546.72Z"/><path class="cls-4" d="M499.48,543.88c0-1.27,0-2.31-.11-3.33h2l.13,2h0a4.51,4.51,0,0,1,4.06-2.31c1.71,0,4.35,1,4.35,5.23v7.34H507.7v-7.08c0-2-.73-3.63-2.84-3.63a3.18,3.18,0,0,0-3,2.28,3.26,3.26,0,0,0-.15,1v7.39h-2.23Z"/><path class="cls-4" d="M521.64,537v3.53h3.2v1.7h-3.2v6.63c0,1.52.43,2.39,1.68,2.39a4.73,4.73,0,0,0,1.29-.16l.1,1.68a5.44,5.44,0,0,1-2,.3,3.09,3.09,0,0,1-2.41-.94,4.51,4.51,0,0,1-.86-3.19v-6.71h-1.91v-1.7h1.91v-2.94Z"/><path class="cls-4" d="M527.35,544.39c0-1.45,0-2.7-.1-3.84h2l.08,2.41h.1a3.69,3.69,0,0,1,3.4-2.69,2.43,2.43,0,0,1,.64.08v2.11a2.91,2.91,0,0,0-.76-.08,3.13,3.13,0,0,0-3,2.87,6.33,6.33,0,0,0-.1,1v6.55h-2.21Z"/><path class="cls-4" d="M542.33,552.84l-.18-1.55h-.07a4.58,4.58,0,0,1-3.76,1.83,3.5,3.5,0,0,1-3.76-3.53c0-3,2.64-4.6,7.39-4.57v-.25a2.54,2.54,0,0,0-2.79-2.85,6.09,6.09,0,0,0-3.2.92l-.51-1.48a7.65,7.65,0,0,1,4-1.09c3.75,0,4.67,2.57,4.67,5v4.59a17.62,17.62,0,0,0,.2,3Zm-.33-6.27c-2.44-.05-5.2.38-5.2,2.77a2,2,0,0,0,2.1,2.13,3.05,3.05,0,0,0,3-2.06,2.22,2.22,0,0,0,.13-.71Z"/><path class="cls-4" d="M556.52,552.38a8.14,8.14,0,0,1-3.53.71c-3.7,0-6.12-2.51-6.12-6.27a6.24,6.24,0,0,1,6.61-6.52,7.52,7.52,0,0,1,3.09.63l-.5,1.73a5.13,5.13,0,0,0-2.59-.59c-2.82,0-4.35,2.09-4.35,4.65,0,2.84,1.83,4.6,4.27,4.6a6.31,6.31,0,0,0,2.74-.61Z"/><path class="cls-4" d="M560.23,547.1c0,3,2,4.27,4.21,4.27a8,8,0,0,0,3.41-.64l.38,1.6a9.93,9.93,0,0,1-4.09.76c-3.78,0-6-2.48-6-6.19s2.18-6.63,5.76-6.63c4,0,5.08,3.53,5.08,5.79a7.43,7.43,0,0,1-.08,1Zm6.55-1.6c0-1.42-.58-3.63-3.1-3.63-2.26,0-3.25,2.08-3.43,3.63Z"/><path class="cls-4" d="M578.51,552.84l-.18-1.55h-.07a4.58,4.58,0,0,1-3.76,1.83,3.5,3.5,0,0,1-3.76-3.53c0-3,2.64-4.6,7.39-4.57v-.25a2.54,2.54,0,0,0-2.79-2.85,6.09,6.09,0,0,0-3.2.92l-.51-1.48a7.62,7.62,0,0,1,4-1.09c3.75,0,4.67,2.57,4.67,5v4.59a17.62,17.62,0,0,0,.2,3Zm-.33-6.27c-2.44-.05-5.21.38-5.21,2.77a2,2,0,0,0,2.11,2.13,3.05,3.05,0,0,0,3-2.06,2.22,2.22,0,0,0,.13-.71Z"/><path class="cls-4" d="M583.84,552.84c0-.84.1-2.08.1-3.17V534.81h2.21v7.72h.05a4.58,4.58,0,0,1,4.19-2.26c3.05,0,5.21,2.54,5.18,6.27,0,4.4-2.77,6.58-5.51,6.58a4.37,4.37,0,0,1-4.11-2.31h-.08l-.1,2Zm2.31-4.93a4.38,4.38,0,0,0,.1.82,3.44,3.44,0,0,0,3.35,2.61c2.34,0,3.74-1.9,3.74-4.72,0-2.46-1.27-4.57-3.66-4.57a3.56,3.56,0,0,0-3.4,2.74,4.52,4.52,0,0,0-.13.92Z"/><path class="cls-4" d="M600.88,537.1a1.39,1.39,0,0,1-2.77,0,1.36,1.36,0,0,1,1.39-1.4A1.33,1.33,0,0,1,600.88,537.1Zm-2.49,15.74V540.55h2.23v12.29Z"/><path class="cls-4" d="M604.33,534.81h2.23v18h-2.23Z"/><path class="cls-4" d="M612.81,537.1a1.39,1.39,0,0,1-2.77,0,1.36,1.36,0,0,1,1.4-1.4A1.33,1.33,0,0,1,612.81,537.1Zm-2.49,15.74V540.55h2.23v12.29Z"/><path class="cls-4" d="M619,537v3.53h3.2v1.7H619v6.63c0,1.52.43,2.39,1.68,2.39a4.73,4.73,0,0,0,1.29-.16l.1,1.68a5.4,5.4,0,0,1-2,.3,3.09,3.09,0,0,1-2.41-.94,4.56,4.56,0,0,1-.86-3.19v-6.71h-1.91v-1.7h1.91v-2.94Z"/><path class="cls-4" d="M625.7,540.55l2.7,7.26c.27.82.58,1.78.78,2.52h.05c.23-.74.49-1.68.79-2.57l2.44-7.21h2.36l-3.35,8.76c-1.6,4.22-2.69,6.37-4.22,7.69a6,6,0,0,1-2.74,1.45l-.56-1.88a5.92,5.92,0,0,0,2-1.09,6.72,6.72,0,0,0,1.88-2.49,1.56,1.56,0,0,0,.17-.53,1.87,1.87,0,0,0-.15-.58l-4.54-11.33Z"/><path class="cls-4" d="M291.39,580a30.8,30.8,0,0,1,4.7-.36c3.17,0,5.43.74,6.93,2.13a7.87,7.87,0,0,1,2.41,6.15,9,9,0,0,1-2.46,6.65c-1.6,1.6-4.24,2.46-7.56,2.46a35.14,35.14,0,0,1-4-.2Zm2.21,15.13a14.12,14.12,0,0,0,2.24.13c4.72,0,7.28-2.65,7.28-7.27,0-4-2.26-6.6-6.93-6.6a12.38,12.38,0,0,0-2.59.23Z"/><path class="cls-4" d="M308.23,588.39c0-1.45,0-2.7-.11-3.84h2l.08,2.41h.1a3.68,3.68,0,0,1,3.4-2.69,2.41,2.41,0,0,1,.63.08v2.11a2.81,2.81,0,0,0-.76-.08,3.13,3.13,0,0,0-3,2.87,6.26,6.26,0,0,0-.11,1v6.55h-2.2Z"/><path class="cls-4" d="M319.12,581.1a1.39,1.39,0,0,1-2.77,0,1.36,1.36,0,0,1,1.4-1.4A1.33,1.33,0,0,1,319.12,581.1Zm-2.49,15.74V584.55h2.23v12.29Z"/><path class="cls-4" d="M323.43,584.55l2.41,6.91a28.92,28.92,0,0,1,1,3.15h.08c.28-1,.64-2,1-3.15l2.39-6.91h2.33l-4.82,12.29h-2.13l-4.67-12.29Z"/><path class="cls-4" d="M337.27,581.1a1.39,1.39,0,0,1-2.77,0,1.37,1.37,0,0,1,1.4-1.4A1.33,1.33,0,0,1,337.27,581.1Zm-2.49,15.74V584.55H337v12.29Z"/><path class="cls-4" d="M340.72,587.88c0-1.27,0-2.31-.1-3.33h2l.13,2h0a4.51,4.51,0,0,1,4.06-2.31c1.7,0,4.34,1,4.34,5.23v7.34H349v-7.08c0-2-.74-3.63-2.85-3.63a3.17,3.17,0,0,0-3,2.28,3.26,3.26,0,0,0-.15,1v7.39h-2.24Z"/><path class="cls-4" d="M365.4,584.55c0,.89-.1,1.88-.1,3.38v7.13c0,2.82-.56,4.55-1.75,5.61a6.52,6.52,0,0,1-4.47,1.48,8,8,0,0,1-4.09-1l.56-1.7a6.89,6.89,0,0,0,3.6,1c2.29,0,4-1.19,4-4.29v-1.37h-.06a4.36,4.36,0,0,1-3.91,2.06c-3,0-5.23-2.59-5.23-6,0-4.17,2.72-6.53,5.54-6.53a4.09,4.09,0,0,1,3.83,2.13h0l.11-1.85Zm-2.31,4.85a3.17,3.17,0,0,0-.13-1,3.22,3.22,0,0,0-3.12-2.37c-2.13,0-3.66,1.81-3.66,4.65,0,2.41,1.22,4.42,3.63,4.42a3.27,3.27,0,0,0,3.1-2.29,3.78,3.78,0,0,0,.18-1.19Z"/><path class="cls-4" d="M375.63,591.1c.05,3,2,4.27,4.22,4.27a8,8,0,0,0,3.4-.64l.38,1.6a9.89,9.89,0,0,1-4.09.76c-3.78,0-6-2.48-6-6.19s2.18-6.63,5.76-6.63c4,0,5.08,3.53,5.08,5.79a7.43,7.43,0,0,1-.08,1Zm6.55-1.6c0-1.42-.58-3.63-3.1-3.63-2.26,0-3.25,2.08-3.42,3.63Z"/><path class="cls-4" d="M388.07,584.55l1.75,2.64c.46.69.84,1.32,1.25,2h.07c.41-.74.82-1.37,1.22-2l1.73-2.62h2.41l-4.19,5.94,4.32,6.35h-2.54l-1.8-2.77c-.49-.71-.89-1.39-1.32-2.13h-.06c-.4.74-.83,1.4-1.29,2.13l-1.78,2.77h-2.46l4.37-6.27-4.17-6Z"/><path class="cls-4" d="M398.78,588.56c0-1.57,0-2.84-.1-4h2l.1,2.11h0a4.84,4.84,0,0,1,4.37-2.39c3,0,5.2,2.52,5.2,6.25,0,4.42-2.69,6.6-5.58,6.6a4.32,4.32,0,0,1-3.79-1.93H401v6.68h-2.21Zm2.21,3.28a4.28,4.28,0,0,0,.11.91,3.44,3.44,0,0,0,3.35,2.62c2.36,0,3.73-1.93,3.73-4.75,0-2.46-1.3-4.57-3.66-4.57a3.56,3.56,0,0,0-3.37,2.77,3.47,3.47,0,0,0-.16.91Z"/><path class="cls-4" d="M414.47,591.1c.06,3,2,4.27,4.22,4.27a8,8,0,0,0,3.4-.64l.38,1.6a9.85,9.85,0,0,1-4.09.76c-3.78,0-6-2.48-6-6.19s2.19-6.63,5.77-6.63c4,0,5.07,3.53,5.07,5.79a10,10,0,0,1-.07,1Zm6.56-1.6c0-1.42-.59-3.63-3.1-3.63-2.26,0-3.25,2.08-3.43,3.63Z"/><path class="cls-4" d="M426,588.39c0-1.45,0-2.7-.1-3.84h1.95l.08,2.41h.1a3.69,3.69,0,0,1,3.4-2.69,2.43,2.43,0,0,1,.64.08v2.11a2.91,2.91,0,0,0-.76-.08,3.13,3.13,0,0,0-3,2.87,6.33,6.33,0,0,0-.1,1v6.55H426Z"/><path class="cls-4" d="M436.84,581.1a1.31,1.31,0,0,1-1.42,1.37,1.33,1.33,0,0,1-1.35-1.37,1.37,1.37,0,0,1,1.4-1.4A1.33,1.33,0,0,1,436.84,581.1Zm-2.49,15.74V584.55h2.24v12.29Z"/><path class="cls-4" d="M441.54,591.1c0,3,2,4.27,4.21,4.27a8,8,0,0,0,3.41-.64l.38,1.6a9.93,9.93,0,0,1-4.09.76c-3.79,0-6-2.48-6-6.19s2.18-6.63,5.76-6.63c4,0,5.08,3.53,5.08,5.79a7.43,7.43,0,0,1-.08,1Zm6.55-1.6c0-1.42-.59-3.63-3.1-3.63-2.26,0-3.25,2.08-3.43,3.63Z"/><path class="cls-4" d="M453,587.88c0-1.27,0-2.31-.1-3.33h2l.13,2h.05a4.51,4.51,0,0,1,4.06-2.31c1.7,0,4.34,1,4.34,5.23v7.34h-2.23v-7.08c0-2-.74-3.63-2.84-3.63a3.17,3.17,0,0,0-3,2.28,3.26,3.26,0,0,0-.15,1v7.39H453Z"/><path class="cls-4" d="M475.86,596.38a8.11,8.11,0,0,1-3.53.71c-3.7,0-6.11-2.51-6.11-6.27a6.24,6.24,0,0,1,6.6-6.52,7.48,7.48,0,0,1,3.09.63l-.5,1.73a5.13,5.13,0,0,0-2.59-.59c-2.82,0-4.34,2.09-4.34,4.65,0,2.84,1.82,4.6,4.26,4.6a6.31,6.31,0,0,0,2.74-.61Z"/><path class="cls-4" d="M479.57,591.1c.05,3,2,4.27,4.21,4.27a8,8,0,0,0,3.41-.64l.38,1.6a9.89,9.89,0,0,1-4.09.76c-3.78,0-6-2.48-6-6.19s2.18-6.63,5.76-6.63c4,0,5.08,3.53,5.08,5.79a7.43,7.43,0,0,1-.08,1Zm6.55-1.6c0-1.42-.58-3.63-3.1-3.63-2.26,0-3.25,2.08-3.42,3.63Z"/><path class="cls-4" d="M496.43,587.88c0-1.27,0-2.31-.1-3.33h1.95l.1,2h.08a4.23,4.23,0,0,1,3.86-2.26,3.65,3.65,0,0,1,3.48,2.46h.05a5,5,0,0,1,1.37-1.59,4.18,4.18,0,0,1,2.72-.87c1.62,0,4,1.07,4,5.33v7.24h-2.18v-7c0-2.36-.86-3.78-2.67-3.78a2.89,2.89,0,0,0-2.64,2,3.75,3.75,0,0,0-.18,1.12v7.59h-2.18v-7.36c0-2-.86-3.38-2.56-3.38a3.33,3.33,0,0,0-2.95,3.33v7.41h-2.18Z"/><path class="cls-4" d="M524.41,596.84l-.18-1.55h-.08a4.55,4.55,0,0,1-3.76,1.83,3.5,3.5,0,0,1-3.75-3.53c0-3,2.64-4.6,7.39-4.57v-.25a2.54,2.54,0,0,0-2.8-2.85,6.14,6.14,0,0,0-3.2.92l-.5-1.48a7.58,7.58,0,0,1,4-1.09c3.76,0,4.67,2.57,4.67,5v4.59a16.55,16.55,0,0,0,.21,3Zm-.33-6.27c-2.44-.05-5.21.38-5.21,2.77a2,2,0,0,0,2.11,2.13,3.06,3.06,0,0,0,3-2.06,2.22,2.22,0,0,0,.13-.71Z"/><path class="cls-4" d="M529.84,587.88c0-1.27,0-2.31-.1-3.33h2l.12,2h.06a4.5,4.5,0,0,1,4.06-2.31c1.7,0,4.34,1,4.34,5.23v7.34h-2.23v-7.08c0-2-.74-3.63-2.85-3.63a3.17,3.17,0,0,0-3,2.28,3,3,0,0,0-.16,1v7.39h-2.23Z"/><path class="cls-4" d="M550.73,596.84l-.17-1.55h-.08a4.58,4.58,0,0,1-3.76,1.83,3.5,3.5,0,0,1-3.76-3.53c0-3,2.65-4.6,7.39-4.57v-.25a2.54,2.54,0,0,0-2.79-2.85,6.11,6.11,0,0,0-3.2.92l-.51-1.48a7.65,7.65,0,0,1,4-1.09c3.76,0,4.67,2.57,4.67,5v4.59a16.55,16.55,0,0,0,.21,3Zm-.33-6.27c-2.43-.05-5.2.38-5.2,2.77a2,2,0,0,0,2.11,2.13,3.06,3.06,0,0,0,3-2.06,2.52,2.52,0,0,0,.12-.71Z"/><path class="cls-4" d="M566.75,584.55c0,.89-.1,1.88-.1,3.38v7.13c0,2.82-.56,4.55-1.75,5.61a6.5,6.5,0,0,1-4.47,1.48,8,8,0,0,1-4.09-1l.56-1.7a7,7,0,0,0,3.61,1c2.28,0,4-1.19,4-4.29v-1.37h-.05a4.38,4.38,0,0,1-3.91,2.06c-3,0-5.23-2.59-5.23-6,0-4.17,2.71-6.53,5.53-6.53a4.11,4.11,0,0,1,3.84,2.13h.05l.1-1.85Zm-2.31,4.85a3.18,3.18,0,0,0-.12-1,3.23,3.23,0,0,0-3.13-2.37c-2.13,0-3.65,1.81-3.65,4.65,0,2.41,1.22,4.42,3.63,4.42a3.28,3.28,0,0,0,3.1-2.29,4.08,4.08,0,0,0,.17-1.19Z"/><path class="cls-4" d="M571.6,591.1c0,3,2,4.27,4.22,4.27a8,8,0,0,0,3.4-.64l.38,1.6a9.89,9.89,0,0,1-4.09.76c-3.78,0-6-2.48-6-6.19s2.18-6.63,5.76-6.63c4,0,5.08,3.53,5.08,5.79a10,10,0,0,1-.07,1Zm6.55-1.6c0-1.42-.58-3.63-3.09-3.63-2.26,0-3.25,2.08-3.43,3.63Z"/><path class="cls-4" d="M583.08,587.88c0-1.27,0-2.31-.1-3.33h1.95l.1,2h.08a4.23,4.23,0,0,1,3.86-2.26,3.65,3.65,0,0,1,3.48,2.46h0a5,5,0,0,1,1.37-1.59,4.2,4.2,0,0,1,2.72-.87c1.62,0,4,1.07,4,5.33v7.24h-2.18v-7c0-2.36-.86-3.78-2.67-3.78a2.89,2.89,0,0,0-2.64,2,3.75,3.75,0,0,0-.18,1.12v7.59h-2.18v-7.36c0-2-.86-3.38-2.56-3.38a3.33,3.33,0,0,0-3,3.33v7.41h-2.18Z"/><path class="cls-4" d="M605.5,591.1c0,3,2,4.27,4.21,4.27a8,8,0,0,0,3.4-.64l.38,1.6a9.83,9.83,0,0,1-4.08.76c-3.79,0-6-2.48-6-6.19s2.19-6.63,5.77-6.63c4,0,5.07,3.53,5.07,5.79a10,10,0,0,1-.07,1Zm6.55-1.6c0-1.42-.59-3.63-3.1-3.63-2.26,0-3.25,2.08-3.43,3.63Z"/><path class="cls-4" d="M617,587.88c0-1.27,0-2.31-.1-3.33h2l.13,2h0a4.51,4.51,0,0,1,4.06-2.31c1.7,0,4.34,1,4.34,5.23v7.34H625.2v-7.08c0-2-.74-3.63-2.85-3.63a3.17,3.17,0,0,0-3,2.28,3.26,3.26,0,0,0-.15,1v7.39H617Z"/><path class="cls-4" d="M633.65,581v3.53h3.2v1.7h-3.2v6.63c0,1.52.43,2.39,1.68,2.39a4.73,4.73,0,0,0,1.29-.16l.1,1.68a5.4,5.4,0,0,1-2,.3,3.1,3.1,0,0,1-2.41-.94,4.56,4.56,0,0,1-.86-3.19v-6.71h-1.91v-1.7h1.91v-2.94Z"/><path class="cls-4" d="M291.39,623.73h2.21V639h7.31v1.85h-9.52Z"/><path class="cls-4" d="M314.07,634.59c0,4.55-3.15,6.53-6.12,6.53-3.33,0-5.89-2.44-5.89-6.32,0-4.12,2.69-6.53,6.09-6.53S314.07,630.84,314.07,634.59Zm-9.75.13c0,2.69,1.55,4.72,3.73,4.72s3.73-2,3.73-4.77c0-2.08-1-4.72-3.68-4.72S304.32,632.39,304.32,634.72Z"/><path class="cls-4" d="M325.64,640.38a8.14,8.14,0,0,1-3.53.71c-3.7,0-6.12-2.51-6.12-6.27a6.24,6.24,0,0,1,6.61-6.52,7.52,7.52,0,0,1,3.09.63l-.5,1.73a5.13,5.13,0,0,0-2.59-.59c-2.82,0-4.35,2.09-4.35,4.65,0,2.84,1.83,4.6,4.27,4.6a6.31,6.31,0,0,0,2.74-.61Z"/><path class="cls-4" d="M335.06,640.84l-.18-1.55h-.07a4.58,4.58,0,0,1-3.76,1.83,3.5,3.5,0,0,1-3.76-3.53c0-3,2.64-4.6,7.39-4.57v-.25a2.54,2.54,0,0,0-2.79-2.85,6.11,6.11,0,0,0-3.2.92l-.51-1.48a7.65,7.65,0,0,1,4-1.09c3.76,0,4.67,2.57,4.67,5v4.59a17.62,17.62,0,0,0,.2,3Zm-.33-6.27c-2.44-.05-5.2.38-5.2,2.77a2,2,0,0,0,2.1,2.13,3.08,3.08,0,0,0,3-2.06,2.52,2.52,0,0,0,.12-.71Z"/><path class="cls-4" d="M343.08,625v3.53h3.2v1.7h-3.2v6.63c0,1.52.44,2.39,1.68,2.39a4.82,4.82,0,0,0,1.3-.16l.1,1.68a5.44,5.44,0,0,1-2,.3,3.12,3.12,0,0,1-2.42-.94,4.56,4.56,0,0,1-.86-3.19v-6.71H339v-1.7h1.9v-2.94Z"/><path class="cls-4" d="M351.28,625.1a1.31,1.31,0,0,1-1.42,1.37,1.33,1.33,0,0,1-1.34-1.37,1.36,1.36,0,0,1,1.39-1.4A1.33,1.33,0,0,1,351.28,625.1Zm-2.48,15.74V628.55H351v12.29Z"/><path class="cls-4" d="M365.86,634.59c0,4.55-3.15,6.53-6.12,6.53-3.33,0-5.89-2.44-5.89-6.32,0-4.12,2.69-6.53,6.09-6.53S365.86,630.84,365.86,634.59Zm-9.75.13c0,2.69,1.55,4.72,3.73,4.72s3.73-2,3.73-4.77c0-2.08-1-4.72-3.68-4.72S356.11,632.39,356.11,634.72Z"/><path class="cls-4" d="M368.68,631.88c0-1.27,0-2.31-.11-3.33h2l.13,2h.05a4.51,4.51,0,0,1,4.06-2.31c1.71,0,4.35,1,4.35,5.23v7.34H376.9v-7.08c0-2-.73-3.63-2.84-3.63a3.18,3.18,0,0,0-3,2.28,3.26,3.26,0,0,0-.15,1v7.39h-2.23Z"/><path class="cls-4" d="M388,633.15v1.65h-6.28v-1.65Z"/><path class="cls-4" d="M390.46,640.84c.05-.84.1-2.08.1-3.17V622.81h2.21v7.72h.05a4.58,4.58,0,0,1,4.19-2.26c3.05,0,5.2,2.54,5.18,6.27,0,4.4-2.77,6.58-5.51,6.58a4.37,4.37,0,0,1-4.11-2.31h-.08l-.1,2Zm2.31-4.93a4.38,4.38,0,0,0,.1.82,3.44,3.44,0,0,0,3.35,2.61c2.34,0,3.73-1.9,3.73-4.72,0-2.46-1.26-4.57-3.65-4.57a3.56,3.56,0,0,0-3.4,2.74,4.52,4.52,0,0,0-.13.92Z"/><path class="cls-4" d="M411.81,640.84l-.18-1.55h-.07a4.58,4.58,0,0,1-3.76,1.83,3.5,3.5,0,0,1-3.76-3.53c0-3,2.64-4.6,7.39-4.57v-.25a2.54,2.54,0,0,0-2.79-2.85,6.09,6.09,0,0,0-3.2.92l-.51-1.48a7.65,7.65,0,0,1,4-1.09c3.75,0,4.67,2.57,4.67,5v4.59a17.62,17.62,0,0,0,.2,3Zm-.33-6.27c-2.44-.05-5.2.38-5.2,2.77a2,2,0,0,0,2.1,2.13,3.05,3.05,0,0,0,3-2.06,2.22,2.22,0,0,0,.13-.71Z"/><path class="cls-4" d="M416.94,638.56a5.87,5.87,0,0,0,2.94.88c1.63,0,2.39-.81,2.39-1.82s-.63-1.65-2.28-2.26c-2.21-.79-3.25-2-3.25-3.48,0-2,1.59-3.61,4.24-3.61a6.22,6.22,0,0,1,3,.76l-.56,1.63a4.73,4.73,0,0,0-2.52-.71c-1.32,0-2.05.76-2.05,1.67s.73,1.48,2.33,2.09c2.14.81,3.23,1.87,3.23,3.7,0,2.16-1.68,3.68-4.6,3.68a7.09,7.09,0,0,1-3.45-.83Z"/><path class="cls-4" d="M428.54,635.1c0,3,2,4.27,4.22,4.27a8,8,0,0,0,3.4-.64l.38,1.6a9.89,9.89,0,0,1-4.09.76c-3.78,0-6-2.48-6-6.19s2.18-6.63,5.76-6.63c4,0,5.08,3.53,5.08,5.79a7.43,7.43,0,0,1-.08,1Zm6.55-1.6c0-1.42-.58-3.63-3.1-3.63-2.26,0-3.25,2.08-3.42,3.63Z"/><path class="cls-4" d="M450.63,622.81v14.86c0,1.09,0,2.33.1,3.17h-2l-.11-2.13h-.05a4.54,4.54,0,0,1-4.19,2.41c-3,0-5.25-2.51-5.25-6.25,0-4.08,2.51-6.6,5.51-6.6a4.09,4.09,0,0,1,3.7,1.88h.06v-7.34Zm-2.23,10.74a3.77,3.77,0,0,0-.11-.94,3.29,3.29,0,0,0-3.22-2.59c-2.31,0-3.68,2-3.68,4.75,0,2.49,1.22,4.55,3.63,4.55a3.35,3.35,0,0,0,3.27-2.67,3.67,3.67,0,0,0,.11-1Z"/><path class="cls-4" d="M466.52,640.84l-.18-1.55h-.07a4.58,4.58,0,0,1-3.76,1.83,3.5,3.5,0,0,1-3.76-3.53c0-3,2.64-4.6,7.39-4.57v-.25a2.54,2.54,0,0,0-2.79-2.85,6.11,6.11,0,0,0-3.2.92l-.51-1.48a7.65,7.65,0,0,1,4-1.09c3.76,0,4.67,2.57,4.67,5v4.59a17.62,17.62,0,0,0,.2,3Zm-.33-6.27c-2.44-.05-5.2.38-5.2,2.77a2,2,0,0,0,2.1,2.13,3.08,3.08,0,0,0,3-2.06,2.52,2.52,0,0,0,.12-.71Z"/><path class="cls-4" d="M472.18,640.84V630.25h-1.72v-1.7h1.72V628a5.75,5.75,0,0,1,1.43-4.29,4.22,4.22,0,0,1,3-1.15,5.18,5.18,0,0,1,1.91.36l-.31,1.73a3.23,3.23,0,0,0-1.42-.28c-1.91,0-2.39,1.67-2.39,3.55v.66h3v1.7h-3v10.59Z"/><path class="cls-4" d="M482.34,625v3.53h3.2v1.7h-3.2v6.63c0,1.52.43,2.39,1.67,2.39a4.76,4.76,0,0,0,1.3-.16l.1,1.68a5.44,5.44,0,0,1-2,.3,3.09,3.09,0,0,1-2.41-.94,4.51,4.51,0,0,1-.86-3.19v-6.71h-1.91v-1.7h1.91v-2.94Z"/><path class="cls-4" d="M489.14,635.1c.05,3,2,4.27,4.22,4.27a8,8,0,0,0,3.4-.64l.38,1.6a9.89,9.89,0,0,1-4.09.76c-3.78,0-6-2.48-6-6.19s2.18-6.63,5.76-6.63c4,0,5.08,3.53,5.08,5.79a10,10,0,0,1-.07,1Zm6.55-1.6c0-1.42-.58-3.63-3.09-3.63-2.26,0-3.25,2.08-3.43,3.63Z"/><path class="cls-4" d="M500.62,632.39c0-1.45,0-2.7-.1-3.84h2l.08,2.41h.1a3.68,3.68,0,0,1,3.4-2.69,2.49,2.49,0,0,1,.64.08v2.11a2.94,2.94,0,0,0-.77-.08,3.13,3.13,0,0,0-3,2.87,6.33,6.33,0,0,0-.1,1v6.55h-2.21Z"/><path class="cls-4" d="M509,631.88c0-1.27,0-2.31-.1-3.33h1.95l.11,2h.07a4.24,4.24,0,0,1,3.86-2.26,3.63,3.63,0,0,1,3.48,2.46h.05a5,5,0,0,1,1.37-1.59,4.2,4.2,0,0,1,2.72-.87c1.62,0,4,1.07,4,5.33v7.24h-2.19v-7c0-2.36-.86-3.78-2.66-3.78a2.89,2.89,0,0,0-2.64,2,3.46,3.46,0,0,0-.18,1.12v7.59h-2.19v-7.36c0-2-.86-3.38-2.56-3.38a3.06,3.06,0,0,0-2.77,2.23,3.3,3.3,0,0,0-.18,1.1v7.41H509Z"/><path class="cls-4" d="M537,640.84l-.18-1.55h-.07a4.58,4.58,0,0,1-3.76,1.83,3.5,3.5,0,0,1-3.76-3.53c0-3,2.64-4.6,7.39-4.57v-.25a2.54,2.54,0,0,0-2.79-2.85,6.09,6.09,0,0,0-3.2.92l-.51-1.48a7.62,7.62,0,0,1,4-1.09c3.75,0,4.67,2.57,4.67,5v4.59a17.62,17.62,0,0,0,.2,3Zm-.33-6.27c-2.44-.05-5.21.38-5.21,2.77a2,2,0,0,0,2.11,2.13,3.05,3.05,0,0,0,3-2.06,2.22,2.22,0,0,0,.13-.71Z"/><path class="cls-4" d="M542.43,632.39c0-1.45,0-2.7-.1-3.84h2l.07,2.41h.1a3.69,3.69,0,0,1,3.41-2.69,2.41,2.41,0,0,1,.63.08v2.11a2.91,2.91,0,0,0-.76-.08,3.13,3.13,0,0,0-3,2.87,6.33,6.33,0,0,0-.1,1v6.55h-2.21Z"/><path class="cls-4" d="M553,634.19h.06c.3-.43.73-1,1.09-1.4l3.6-4.24h2.69l-4.74,5.05,5.4,7.24h-2.71L554.19,635,553,636.22v4.62h-2.2v-18H553Z"/><path class="cls-4" d="M564,635.1c0,3,2,4.27,4.21,4.27a8,8,0,0,0,3.4-.64l.39,1.6a9.93,9.93,0,0,1-4.09.76c-3.79,0-6-2.48-6-6.19s2.19-6.63,5.77-6.63c4,0,5.08,3.53,5.08,5.79a7.43,7.43,0,0,1-.08,1Zm6.55-1.6c0-1.42-.59-3.63-3.1-3.63-2.26,0-3.25,2.08-3.43,3.63Z"/><path class="cls-4" d="M578.15,625v3.53h3.2v1.7h-3.2v6.63c0,1.52.44,2.39,1.68,2.39a4.67,4.67,0,0,0,1.29-.16l.11,1.68a5.48,5.48,0,0,1-2,.3,3.11,3.11,0,0,1-2.42-.94A4.56,4.56,0,0,1,576,637v-6.71h-1.9v-1.7H576v-2.94Z"/><path class="cls-4" d="M589.25,631.88c0-1.27,0-2.31-.1-3.33h2l.12,2h0a4.53,4.53,0,0,1,4.07-2.31c1.7,0,4.34,1,4.34,5.23v7.34h-2.24v-7.08c0-2-.73-3.63-2.84-3.63a3.19,3.19,0,0,0-3,2.28,3.26,3.26,0,0,0-.15,1v7.39h-2.23Z"/><path class="cls-4" d="M614.46,634.59c0,4.55-3.15,6.53-6.12,6.53-3.33,0-5.89-2.44-5.89-6.32,0-4.12,2.69-6.53,6.09-6.53S614.46,630.84,614.46,634.59Zm-9.75.13c0,2.69,1.55,4.72,3.73,4.72s3.73-2,3.73-4.77c0-2.08-1-4.72-3.68-4.72S604.71,632.39,604.71,634.72Z"/><path class="cls-4" d="M620,625v3.53h3.2v1.7H620v6.63c0,1.52.43,2.39,1.67,2.39a4.76,4.76,0,0,0,1.3-.16l.1,1.68a5.44,5.44,0,0,1-2,.3,3.09,3.09,0,0,1-2.41-.94,4.51,4.51,0,0,1-.87-3.19v-6.71h-1.9v-1.7h1.9v-2.94Z"/><path class="cls-4" d="M628.17,625.1a1.39,1.39,0,0,1-2.77,0,1.37,1.37,0,0,1,1.4-1.4A1.33,1.33,0,0,1,628.17,625.1Zm-2.49,15.74V628.55h2.23v12.29Z"/><path class="cls-4" d="M631.85,640.84V630.25h-1.73v-1.7h1.73v-.66c0-3.25,1.9-5.36,5.36-5.36a6.1,6.1,0,0,1,3.12.82l-.63,1.7a4.73,4.73,0,0,0-2.59-.71c-2.37,0-3.05,1.65-3.05,3.6v.61h7.13v12.29H639V630.25h-4.92v10.59Z"/><path class="cls-4" d="M653.66,640.38a8.14,8.14,0,0,1-3.53.71c-3.71,0-6.12-2.51-6.12-6.27a6.24,6.24,0,0,1,6.6-6.52,7.57,7.57,0,0,1,3.1.63l-.51,1.73a5.1,5.1,0,0,0-2.59-.59c-2.82,0-4.34,2.09-4.34,4.65,0,2.84,1.83,4.6,4.27,4.6a6.34,6.34,0,0,0,2.74-.61Z"/><path class="cls-4" d="M663.08,640.84l-.18-1.55h-.08a4.54,4.54,0,0,1-3.75,1.83,3.5,3.5,0,0,1-3.76-3.53c0-3,2.64-4.6,7.39-4.57v-.25a2.54,2.54,0,0,0-2.8-2.85,6.14,6.14,0,0,0-3.2.92l-.5-1.48a7.61,7.61,0,0,1,4-1.09c3.76,0,4.68,2.57,4.68,5v4.59a17.62,17.62,0,0,0,.2,3Zm-.33-6.27c-2.44-.05-5.21.38-5.21,2.77a2,2,0,0,0,2.11,2.13,3.05,3.05,0,0,0,3-2.06,2.22,2.22,0,0,0,.13-.71Z"/><path class="cls-4" d="M671.1,625v3.53h3.2v1.7h-3.2v6.63c0,1.52.43,2.39,1.68,2.39a4.73,4.73,0,0,0,1.29-.16l.1,1.68a5.4,5.4,0,0,1-2,.3,3.09,3.09,0,0,1-2.41-.94,4.56,4.56,0,0,1-.86-3.19v-6.71H667v-1.7h1.91v-2.94Z"/><path class="cls-4" d="M679.3,625.1a1.31,1.31,0,0,1-1.42,1.37,1.33,1.33,0,0,1-1.35-1.37,1.37,1.37,0,0,1,1.4-1.4A1.33,1.33,0,0,1,679.3,625.1Zm-2.49,15.74V628.55h2.24v12.29Z"/><path class="cls-4" d="M693.87,634.59c0,4.55-3.14,6.53-6.12,6.53-3.32,0-5.89-2.44-5.89-6.32,0-4.12,2.7-6.53,6.1-6.53S693.87,630.84,693.87,634.59Zm-9.75.13c0,2.69,1.55,4.72,3.74,4.72s3.73-2,3.73-4.77c0-2.08-1-4.72-3.68-4.72S684.12,632.39,684.12,634.72Z"/><path class="cls-4" d="M696.69,631.88c0-1.27,0-2.31-.1-3.33h2l.13,2h0a4.51,4.51,0,0,1,4.06-2.31c1.7,0,4.34,1,4.34,5.23v7.34h-2.23v-7.08c0-2-.74-3.63-2.85-3.63a3.17,3.17,0,0,0-3,2.28,3.26,3.26,0,0,0-.15,1v7.39h-2.24Z"/><path class="cls-4" d="M710.48,638.56a5.87,5.87,0,0,0,2.94.88c1.63,0,2.39-.81,2.39-1.82s-.64-1.65-2.29-2.26c-2.2-.79-3.25-2-3.25-3.48,0-2,1.6-3.61,4.24-3.61a6.23,6.23,0,0,1,3,.76l-.56,1.63a4.76,4.76,0,0,0-2.52-.71c-1.32,0-2.05.76-2.05,1.67s.73,1.48,2.33,2.09c2.14.81,3.23,1.87,3.23,3.7,0,2.16-1.68,3.68-4.6,3.68a7.09,7.09,0,0,1-3.45-.83Z"/><path class="cls-4" d="M76.35,575.7h8.33c0-.47,0-.87,0-1.28,0-4.25,0-8.51.17-12.75A38.35,38.35,0,0,1,91.52,542l.58-.87a7.14,7.14,0,0,1-1.85-5.94,6.8,6.8,0,0,1,2.21-4.13,7,7,0,0,1,9.37,0c3.29-1.55,6.43-3.18,9.68-4.52a33.86,33.86,0,0,1,10.86-2.27c.53,0,.88-.08.87-.74,0-3.54,0-7.08,0-10.76h-9.67v-3.61h22.76v3.55h-9.51v11.4c1.83.25,3.69.45,5.52.77a40.24,40.24,0,0,1,32.26,32.5c.13.76.41,1,1.17,1,1.83-.06,3.67,0,5.76,0l-8,13.88-8-13.84h5.86c-.54-2-.88-3.9-1.55-5.66-5.28-14.1-15.35-22.51-30.25-24.73-8.87-1.32-17.15.81-24.72,5.66a1.56,1.56,0,0,0-.87,1.76,6.86,6.86,0,0,1-8.18,7.71,1,1,0,0,0-1.18.54,33.1,33.1,0,0,0-6.06,15.69c-.5,5.38-.41,10.82-.58,16.35h85.5v3.43c-.35,0-.69,0-1,0H77.2c-.29,0-.57,0-.85,0Zm20.79-35.94a3.51,3.51,0,1,0,0-7,3.51,3.51,0,1,0,0,7Z"/><path class="cls-4" d="M112.68,561.62c-2,.16-2,.16-2.85-1.69-.27-.57-.46-1.18-.73-1.76-.65-1.42-.79-2.66.88-3.52.23-.13.35-.57.41-.88s0-.79,0-1.17a2.28,2.28,0,0,0-1.23-2.55,1.06,1.06,0,0,1-.5-1.49c.55-1.34,1.1-2.67,1.61-4a1.33,1.33,0,0,1,1.73-.9c.55.09,1.28.29,1.64,0a7.89,7.89,0,0,0,2.13-2.18c.28-.44.06-1.24,0-1.86a1,1,0,0,1,.67-1.34c1.43-.58,2.87-1.17,4.29-1.78.59-.25,1.08-.18,1.34.4.92,2,2.77,1.43,4.31,1.46.44,0,1-.76,1.31-1.26a1.28,1.28,0,0,1,1.79-.54c1.26.55,2.53,1.07,3.81,1.57.78.31,1.16.82.88,1.63-.72,2.1,1.21,2.77,2.17,3.91.22.26,1.08,0,1.63,0,.78-.12,1.35,0,1.66.86.51,1.39,1.07,2.77,1.64,4.13a1,1,0,0,1-.47,1.41c-1.85.94-1.28,2.63-1.22,4.1,0,.36.59.78,1,1a1.41,1.41,0,0,1,.6,2c-.56,1.3-1.11,2.6-1.64,3.9a1,1,0,0,1-1.33.68,3.17,3.17,0,0,0-2,0,9.32,9.32,0,0,0-2.1,2.06c-.17.21-.06.68,0,1,.18,2.24.44,1.71-1.48,2.7A23.53,23.53,0,0,1,129,568.9a1.14,1.14,0,0,1-1-.3c-1-2-2.77-1.66-4.39-1.56-.48,0-1,.72-1.34,1.22a1.32,1.32,0,0,1-1.85.56c-1.33-.58-2.66-1.14-4-1.69a1,1,0,0,1-.69-1.32,3.36,3.36,0,0,0,0-2,9.62,9.62,0,0,0-2.07-2.11C113.48,561.56,113,561.65,112.68,561.62Zm1.58-3.58c.71-.25,1.27.11,1.79.9a6.78,6.78,0,0,0,2,2.07,2.6,2.6,0,0,1,1.42,3.21c0,.18.21.58.42.67a1.08,1.08,0,0,0,.8-.15,1.39,1.39,0,0,0,.48-.56,1.7,1.7,0,0,1,2.12-.8,6.21,6.21,0,0,0,2.53.14c1.5-.32,2.75-.32,3.56,1.24a.74.74,0,0,0,.69.18,1.09,1.09,0,0,0,.52-.65,2.17,2.17,0,0,0-.08-.94,1.47,1.47,0,0,1,.72-1.76,7.82,7.82,0,0,0,2.25-2.07c.79-1.18,1.64-1.82,3.1-1.44a.83.83,0,0,0,.72-.37,1.24,1.24,0,0,0-.19-.9,1.7,1.7,0,0,0-.64-.54,1.42,1.42,0,0,1-.66-1.7,7.85,7.85,0,0,0,.08-3.05A2.39,2.39,0,0,1,137,548.6a1.08,1.08,0,0,0,.23-1c-.06-.19-.53-.27-.82-.38a.57.57,0,0,0-.31,0,1.8,1.8,0,0,1-2.28-.93,7.18,7.18,0,0,0-2.13-2.19,2.23,2.23,0,0,1-1.19-2.77,1,1,0,0,0-.39-.9c-.22-.11-.63.16-1,.29-.09,0-.15.15-.2.24a1.94,1.94,0,0,1-2.39.93,7.32,7.32,0,0,0-3.16,0,2,2,0,0,1-2.48-1c-.24-.4-.58-1-1.14-.51a1.41,1.41,0,0,0-.32,1.14,2,2,0,0,1-1,2.37,6.23,6.23,0,0,0-1.91,1.81c-.8,1.19-1.63,2-3.17,1.45a.79.79,0,0,0-.68.41,1.3,1.3,0,0,0,.18.88,1.61,1.61,0,0,0,.63.55c.77.41.79,1,.66,1.8a7.42,7.42,0,0,0-.11,2.73c.33,1.42.13,2.46-1.2,3.2a.84.84,0,0,0-.2.78,1.15,1.15,0,0,0,.67.48A3.4,3.4,0,0,0,114.26,558Z"/><path class="cls-4" d="M125,544a8.75,8.75,0,0,1,8.72,8.72A8.78,8.78,0,1,1,125,544Zm-.21,13.88a5.22,5.22,0,1,0,.37-10.44,5.31,5.31,0,0,0-5.47,4.94A5.24,5.24,0,0,0,124.81,557.9Z"/><path class="cls-4" d="M121.52,354.14v-3.56h10.84l.15,3.56Z"/><path class="cls-4" d="M89.66,308.45h10.75v3.32H90.79c-.38,0-.75-.06-1.13-.09Z"/><path class="cls-4" d="M164.18,311.67l-6,.09c-1.54,0-3.08,0-4.68,0v-3.32h10.72Z"/><path class="cls-4" d="M147.94,315.21l-3.14-.78a18.12,18.12,0,0,0-3.56-15.72,17.45,17.45,0,0,0-10.54-6.4,18.12,18.12,0,0,0-12.91,33.28c7.55,4.57,16.61,2.65,21.42-2.09l-2.33-2,8.7-3.08-1.68,9.09-2-1.69a21.4,21.4,0,0,1-18,5.52,20.93,20.93,0,0,1-13.16-7.39,21.47,21.47,0,1,1,37.22-8.7Z"/><path class="cls-4" d="M135.81,303.56l2.08,2.65-14.54,11.38-5.66-6.87,2.6-2.14,3.57,4.32Z"/><path class="cls-4" d="M135.17,337.58H118.71v-3.64h16.46Z"/><path class="cls-4" d="M135.21,339.57v3.53H118.7v-3.53Z"/><path class="cls-4" d="M135.22,345.07v3.52H118.7v-3.52Z"/><path class="cls-4" d="M125.55,274.14h3.21v10.57h-3.21Z"/><path class="cls-4" d="M106.26,325.64l2.22,2.54-8.06,7-2.23-2.53Z"/><path class="cls-4" d="M98.19,285.86l2.23-2.53,8.06,7-2.21,2.54Z"/><path class="cls-4" d="M145.83,328.18l2.21-2.54,8.08,7-2.22,2.54C151.22,332.87,148.57,330.57,145.83,328.18Z"/><path class="cls-4" d="M148,293.69l-2.2-2.55,8.06-7,2.21,2.54Z"/><path class="cls-4" d="M118.9,114.83h5.43l-7.39,12.43-7.42-12.46h5.87v-1.24c0-6.06,0-12.12,0-18.17,0-.82-.15-1.22-1.06-1.42-2.33-.51-3.7-1.47-6.06-3.92-.25.14-.53.27-.79.43q-9.31,5.8-18.64,11.6a1.08,1.08,0,0,0-.62,1.32,6.43,6.43,0,0,1-4,7.31,6.9,6.9,0,0,1-8.17-2.4,6.41,6.41,0,0,1,.64-8.07,6.74,6.74,0,0,1,8.5-1.08,1.78,1.78,0,0,0,2.29,0c6.07-3.83,12.17-7.61,18.26-11.41l1-.64a10.92,10.92,0,0,1,.58-7.73,1,1,0,0,0-.27-.85c-3-2.74-6.09-5.44-9.12-8.19-.48-.43-.8-.17-1.2,0a6.78,6.78,0,0,1-9.4-4,6.4,6.4,0,0,1,2.55-7.15,6.89,6.89,0,0,1,8.09.21,6.34,6.34,0,0,1,2.15,7.27,1.24,1.24,0,0,0,.39,1.68c3,2.64,6,5.32,8.79,7.81a47.67,47.67,0,0,1,5.18-2.28,10.18,10.18,0,0,1,6.53.37,1.3,1.3,0,0,0,1.14-.17q7.91-9.63,15.74-19.32a.82.82,0,0,0,.11-.21c-1.63-2.48-1.86-5-.17-7.58a6.79,6.79,0,0,1,8.81-2.12,6.43,6.43,0,0,1,3.09,8,6.69,6.69,0,0,1-8.1,4,1.32,1.32,0,0,0-1.66.54c-5,6.16-10,12.29-15,18.44-.15.19-.29.39-.47.63a10.54,10.54,0,0,1,3.18,8.79l7.82,1.47q7.68,1.41,15.35,2.85a1.58,1.58,0,0,0,1.92-.69,6.72,6.72,0,0,1,7.76-2.22,6.52,6.52,0,0,1,4.35,6.45,6.59,6.59,0,0,1-5,6,6.68,6.68,0,0,1-8.33-5.25c-.12-.62-.3-.93-1-1.06-7.71-1.4-15.41-2.86-23.13-4.27a1.19,1.19,0,0,0-1,.46,11,11,0,0,1-7.14,5.19,1,1,0,0,0-.63.72c0,6.59,0,13.17,0,19.75C118.73,114.61,118.76,114.64,118.9,114.83Zm-1.85-23.7a7.24,7.24,0,1,0-7.46-7.26A7.35,7.35,0,0,0,117.05,91.13Zm23-40.58a3.43,3.43,0,0,0,3.48,3.37,3.5,3.5,0,0,0,3.47-3.4,3.44,3.44,0,0,0-3.5-3.34A3.4,3.4,0,0,0,140,50.55ZM90.36,64.46a3.45,3.45,0,0,0,3.46,3.39,3.51,3.51,0,0,0,3.49-3.38,3.48,3.48,0,0,0-7,0ZM85.1,104.65a3.41,3.41,0,0,0-3.44-3.37,3.52,3.52,0,0,0-3.48,3.4,3.45,3.45,0,0,0,3.5,3.34A3.34,3.34,0,0,0,85.1,104.65Zm69.67-12a3.36,3.36,0,0,0,3.41,3.4,3.47,3.47,0,0,0,3.5-3.35,3.37,3.37,0,0,0-3.45-3.36A3.29,3.29,0,0,0,154.77,92.7Z"/></svg>