<svg id="Layer_1" data-name="Layer 1" xmlns="http://www.w3.org/2000/svg" width="100" height="100" viewBox="0 0 100 100"><title>data</title><path d="M18.73,71.56v5.1c0,2.2.08,4.41,0,6.61A2.8,2.8,0,0,0,20.28,86,27.4,27.4,0,0,0,28.58,89c2,.43,3.93.75,6,1.14l-.45,3.38c-5.62-.93-11.18-1.73-16.08-4.78a6.72,6.72,0,0,1-.66-.5,5.25,5.25,0,0,1-2.13-4.37q.06-34.5,0-69a4.71,4.71,0,0,1,2.06-4.26A55.37,55.37,0,0,1,23,7.69c.56-.27,1-.43,1-1.19A6.83,6.83,0,0,1,29.74.09a6.9,6.9,0,0,1,7.61,4.26c.07.14.16.27.2.34,3.86-.15,7.67-.48,11.47-.39,5.58.14,11.16.47,16.71,1a41.79,41.79,0,0,1,12.6,3,24.14,24.14,0,0,1,4.56,2.64,4.58,4.58,0,0,1,1.82,3.92c0,4.89,0,9.77,0,14.65,0,17.84,0,35.67,0,53.51A6.58,6.58,0,0,1,81,89.24a31.9,31.9,0,0,1-10.72,3.48c-4,.65-8.11,1-12.17,1.45-1,.1-1.17.44-1.14,1.29.05,1.44,0,2.88,0,4.54L43.81,92.38,57,84.75v6.1c7.23-.53,14.22-1.24,20.85-3.88l.86-.38a3.69,3.69,0,0,0,2.54-4c-.19-3.65-.06-7.32-.06-11.11-10.12,3.92-20.62,5.21-31.28,5.17S28.77,76,18.73,71.56Zm62.47-18c-1.41.52-2.65,1-3.92,1.42a89,89,0,0,1-24.52,3.74,99.63,99.63,0,0,1-25.32-2.15c-2.92-.68-5.75-1.77-8.71-2.69V55c0,3.51.07,7,0,10.51a2.61,2.61,0,0,0,1.67,2.81A48.07,48.07,0,0,0,27.77,71a101.14,101.14,0,0,0,43.43,0,75.79,75.79,0,0,0,9-3,1.58,1.58,0,0,0,.92-1.13C81.23,62.44,81.2,58.07,81.2,53.57ZM18.73,36v1.2c0,3.54,0,7.08,0,10.62A2.28,2.28,0,0,0,20,50.18a38.27,38.27,0,0,0,5.07,2.17c8,2.42,16.23,2.94,24.5,3A94.7,94.7,0,0,0,69.14,53.5a42.9,42.9,0,0,0,11.11-3.45c.39-.21.9-.68.91-1,.06-4.32,0-8.64,0-13a2.2,2.2,0,0,0-.54.12c-4,2.11-8.33,3-12.73,3.71a117.71,117.71,0,0,1-22.59,1.23,85.32,85.32,0,0,1-21-2.91C22.5,37.59,20.71,36.79,18.73,36Zm0-16.8c0,3.76,0,7.38,0,11a2.25,2.25,0,0,0,1.21,2.24,30,30,0,0,0,4.17,1.9,71.32,71.32,0,0,0,18.8,3.11,106.27,106.27,0,0,0,28.75-1.92,26.23,26.23,0,0,0,8.28-3,2.43,2.43,0,0,0,1.31-2.31c-.07-2.28,0-4.57,0-6.85V19.46c-2.82.91-5.48,2-8.25,2.62a99.86,99.86,0,0,1-26.37,2.26C37.12,24,27.72,23.36,18.73,19.24ZM49.9,21A98.76,98.76,0,0,0,70.77,19,26.86,26.86,0,0,0,80,15.78c1.62-1,1.68-2,0-2.87a25.1,25.1,0,0,0-5.39-2.31c-11.89-3.27-24-3.36-36.19-2.37a1.28,1.28,0,0,0-.84.76c-2.06,5.44-8.21,6.58-12.13,2.25a1.2,1.2,0,0,0-1.05-.34,33,33,0,0,0-4.3,1.9c-1.75,1-1.79,2.08,0,3a31.44,31.44,0,0,0,6.09,2.46C33.92,20.42,41.89,20.91,49.9,21ZM31,3.44a3.49,3.49,0,0,0-3.57,3.45,3.59,3.59,0,0,0,3.5,3.56A3.64,3.64,0,0,0,34.42,7,3.52,3.52,0,0,0,31,3.44Z"/></svg>