<svg id="Layer_1" data-name="Layer 1" xmlns="http://www.w3.org/2000/svg" width="100" height="100" viewBox="0 0 100 100"><title>data-center</title><path d="M93.86,28.53v.25H87.15v69.6c0,.54,0,1.08,0,1.62h-81V0c.54,0,1.08,0,1.62,0H85.32V3.69H10V31.93H83.41V28.74H76.8L85.34,14c.52.91.92,1.62,1.34,2.33Q90.26,22.41,93.86,28.53ZM10,64.15H83.36V35.92H10Zm0,3.9V96.21H83.39V68.05Z"/><path d="M61.27,10.5A7.26,7.26,0,0,1,68.62,18a7.38,7.38,0,1,1-14.75-.17A7.28,7.28,0,0,1,61.27,10.5Zm0,3.67a3.7,3.7,0,0,0,0,7.4,3.7,3.7,0,1,0,0-7.4Z"/><path d="M20.44,26H16.92V9.83h3.52Z"/><path d="M28.68,26H25.17V9.83h3.51Z"/><path d="M33.35,9.8h3.48V25.94H33.35Z"/><path d="M41.6,9.81h3.46V26H41.6Z"/><path d="M68.62,50.06a7.38,7.38,0,1,1-14.75-.16,7.38,7.38,0,1,1,14.75.16Zm-11,0a3.67,3.67,0,0,0,3.73,3.69,3.73,3.73,0,0,0-.06-7.45A3.69,3.69,0,0,0,57.58,50Z"/><path d="M20.39,58.57H16.91V42.4h3.48Z"/><path d="M28.67,58.58H25.19V42.38h3.48Z"/><path d="M33.36,42.38h3.46v16.2H33.36Z"/><path d="M41.61,42.38h3.44V58.56H41.61Z"/><path d="M68.62,82.22a7.38,7.38,0,1,1-7.4-7.46A7.33,7.33,0,0,1,68.62,82.22Zm-11,0a3.67,3.67,0,0,0,3.74,3.67A3.75,3.75,0,0,0,65,82.18a3.7,3.7,0,0,0-3.72-3.71A3.62,3.62,0,0,0,57.58,82.2Z"/><path d="M20.42,90.24H16.94V74.1h3.48Z"/><path d="M28.69,90.24H25.17V74.09h3.52Z"/><path d="M36.84,90.24H33.35V74.1h3.49Z"/><path d="M45,90.24H41.57V74.07H45Z"/></svg>