<svg id="Layer_1" data-name="Layer 1" xmlns="http://www.w3.org/2000/svg" viewBox="0 0 727.13 523.32"><defs><style>.cls-1{fill:#a8d7cd;}.cls-2{fill:#d8e7da;}.cls-3{fill:none;stroke:#00321d;stroke-miterlimit:10;stroke-width:3px;}.cls-4{fill:#00321d;}</style></defs><title>dealer-systems</title><rect class="cls-1" width="728.85" height="170.97"/><rect class="cls-2" y="176.86" width="728.85" height="170.97"/><rect class="cls-1" y="353.73" width="728.85" height="170.97"/><circle class="cls-3" cx="266.36" cy="46" r="4.5"/><circle class="cls-3" cx="266.37" cy="88.97" r="4.5"/><circle class="cls-3" cx="266.39" cy="131.93" r="4.5"/><circle class="cls-3" cx="266.36" cy="219" r="4.5"/><circle class="cls-3" cx="266.37" cy="261.97" r="4.5"/><circle class="cls-3" cx="266.39" cy="304.93" r="4.5"/><circle class="cls-3" cx="266.36" cy="396" r="4.5"/><circle class="cls-3" cx="266.37" cy="438.97" r="4.5"/><circle class="cls-3" cx="266.39" cy="481.93" r="4.5"/><path class="cls-4" d="M89.28,131.4c-.14-2.94-.31-6.49-.27-9.57H88.9c-.74,2.77-1.69,5.85-2.7,8.73l-3.32,9.88H79.67l-3-9.75c-.88-2.91-1.69-6-2.3-8.86h-.07c-.1,3-.24,6.6-.41,9.71l-.5,9.17h-3.9L71,117.9h5.48l3,9.17c.81,2.68,1.52,5.38,2.1,7.92h.1c.61-2.47,1.39-5.28,2.27-8L87,117.9h5.42l1.32,22.81H89.72Z"/><path class="cls-4" d="M107.25,140.71l-.27-1.83h-.1a6.1,6.1,0,0,1-4.87,2.2,4.89,4.89,0,0,1-5.18-4.9c0-4.17,3.69-6.27,9.78-6.23v-.27c0-1.08-.44-2.88-3.35-2.88A8.72,8.72,0,0,0,98.83,128L98,125.31a11.93,11.93,0,0,1,6-1.45c5.28,0,6.8,3.35,6.8,6.93v6a26.23,26.23,0,0,0,.24,4Zm-.54-8.05c-2.94-.07-5.75.57-5.75,3.08a2.19,2.19,0,0,0,2.37,2.37,3.39,3.39,0,0,0,3.25-2.27,3.09,3.09,0,0,0,.13-.92Z"/><path class="cls-4" d="M115.18,129.14c0-1.9,0-3.49-.14-4.91h3.66l.2,2.47h.1a5.94,5.94,0,0,1,5.25-2.84c2.87,0,5.85,1.86,5.85,7.07v9.78h-4.16V131.4c0-2.36-.88-4.16-3.15-4.16a3.5,3.5,0,0,0-3.25,2.44,4.38,4.38,0,0,0-.17,1.35v9.68h-4.19Z"/><path class="cls-4" d="M143.81,140.71l-.27-1.83h-.1a6.1,6.1,0,0,1-4.87,2.2,4.89,4.89,0,0,1-5.18-4.9c0-4.17,3.69-6.27,9.78-6.23v-.27c0-1.08-.44-2.88-3.35-2.88a8.69,8.69,0,0,0-4.43,1.22l-.82-2.71a11.93,11.93,0,0,1,6-1.45c5.28,0,6.8,3.35,6.8,6.93v6a26.23,26.23,0,0,0,.24,4Zm-.54-8.05c-2.94-.07-5.75.57-5.75,3.08a2.19,2.19,0,0,0,2.37,2.37,3.39,3.39,0,0,0,3.25-2.27,3.09,3.09,0,0,0,.13-.92Z"/><path class="cls-4" d="M166.8,124.23c-.07,1.12-.14,2.47-.14,4.74v9.34c0,3.45-.71,5.92-2.44,7.48a9.47,9.47,0,0,1-6.36,2,11.64,11.64,0,0,1-5.75-1.32l.91-3.14a10,10,0,0,0,4.81,1.25c2.71,0,4.74-1.42,4.74-5v-1.42h-.07a5.56,5.56,0,0,1-4.81,2.44c-4.09,0-7-3.38-7-8.05,0-5.42,3.52-8.7,7.48-8.7a5.2,5.2,0,0,1,4.77,2.57H163l.17-2.2Zm-4.3,6.6a4.14,4.14,0,0,0-.14-1.12A3.45,3.45,0,0,0,159,127c-2.34,0-4.06,2-4.06,5.38,0,2.81,1.42,5.08,4,5.08a3.56,3.56,0,0,0,3.39-2.51,7.23,7.23,0,0,0,.17-1.49Z"/><path class="cls-4" d="M174.08,133.64c.1,3,2.43,4.26,5.07,4.26a12.47,12.47,0,0,0,4.57-.74l.61,2.87a15.39,15.39,0,0,1-5.75,1c-5.35,0-8.5-3.28-8.5-8.33,0-4.56,2.78-8.86,8.06-8.86s7.11,4.4,7.11,8a9.88,9.88,0,0,1-.14,1.76Zm7.24-2.91c0-1.53-.64-4-3.42-4-2.57,0-3.65,2.34-3.82,4Z"/><path class="cls-4" d="M291.39,36a20.86,20.86,0,0,1,4-.36c2.21,0,3.63.38,4.7,1.24a3.59,3.59,0,0,1,1.42,3,4.05,4.05,0,0,1-2.89,3.75v.05a4.42,4.42,0,0,1,3.52,4.3,4.59,4.59,0,0,1-1.44,3.42c-1.2,1.09-3.13,1.6-5.92,1.6a26.35,26.35,0,0,1-3.43-.2Zm2.21,7h2c2.33,0,3.71-1.22,3.71-2.87,0-2-1.53-2.79-3.76-2.79a10.08,10.08,0,0,0-2,.15Zm0,8.2a11.23,11.23,0,0,0,1.86.11c2.28,0,4.39-.84,4.39-3.33,0-2.34-2-3.3-4.42-3.3H293.6Z"/><path class="cls-4" d="M304.37,52.84V51.47l1.75-1.7c4.21-4,6.12-6.15,6.14-8.63A2.94,2.94,0,0,0,309,37.91a5.63,5.63,0,0,0-3.51,1.4l-.71-1.58a7.29,7.29,0,0,1,4.68-1.67c3.55,0,5.05,2.43,5.05,4.8,0,3-2.21,5.51-5.69,8.86l-1.32,1.22V51h7.41v1.85Z"/><path class="cls-4" d="M318.18,36a20.75,20.75,0,0,1,4-.36c2.21,0,3.64.38,4.7,1.24a3.59,3.59,0,0,1,1.42,3,4.05,4.05,0,0,1-2.89,3.75v.05A4.43,4.43,0,0,1,329,48a4.6,4.6,0,0,1-1.45,3.42c-1.19,1.09-3.12,1.6-5.91,1.6a26.1,26.1,0,0,1-3.43-.2Zm2.21,7h2c2.34,0,3.71-1.22,3.71-2.87,0-2-1.52-2.79-3.76-2.79a10,10,0,0,0-1.95.15Zm0,8.2a11.1,11.1,0,0,0,1.85.11c2.29,0,4.39-.84,4.39-3.33,0-2.34-2-3.3-4.42-3.3h-1.82Z"/><path class="cls-4" d="M344.05,52.84l-.18-1.55h-.08A4.54,4.54,0,0,1,340,53.12a3.5,3.5,0,0,1-3.76-3.53c0-3,2.64-4.6,7.39-4.57v-.25a2.54,2.54,0,0,0-2.8-2.85,6.08,6.08,0,0,0-3.19.92l-.51-1.48a7.61,7.61,0,0,1,4-1.09c3.76,0,4.68,2.57,4.68,5v4.59a17.62,17.62,0,0,0,.2,3Zm-.33-6.27c-2.44,0-5.21.38-5.21,2.77a2,2,0,0,0,2.11,2.13,3.05,3.05,0,0,0,3-2.06,2.22,2.22,0,0,0,.13-.71Z"/><path class="cls-4" d="M349.48,43.88c0-1.27,0-2.31-.1-3.33h2l.13,2h.05a4.51,4.51,0,0,1,4.06-2.31c1.7,0,4.34,1,4.34,5.23v7.34h-2.23V45.76c0-2-.74-3.63-2.85-3.63a3.17,3.17,0,0,0-3,2.28,3.26,3.26,0,0,0-.15,1v7.39h-2.24Z"/><path class="cls-4" d="M374.19,34.81V49.67c0,1.09,0,2.33.1,3.17h-2l-.1-2.13h-.05a4.55,4.55,0,0,1-4.19,2.41c-3,0-5.26-2.51-5.26-6.25,0-4.08,2.52-6.6,5.51-6.6a4.12,4.12,0,0,1,3.71,1.88H372V34.81ZM372,45.55a3.76,3.76,0,0,0-.1-.94A3.29,3.29,0,0,0,368.62,42c-2.31,0-3.68,2-3.68,4.75,0,2.49,1.22,4.55,3.63,4.55a3.36,3.36,0,0,0,3.28-2.67,3.68,3.68,0,0,0,.1-1Z"/><path class="cls-4" d="M383.35,36a20.79,20.79,0,0,1,4-.36c2.21,0,3.63.38,4.69,1.24a3.6,3.6,0,0,1,1.43,3,4.06,4.06,0,0,1-2.9,3.75v.05a4.42,4.42,0,0,1,3.53,4.3,4.56,4.56,0,0,1-1.45,3.42c-1.19,1.09-3.12,1.6-5.91,1.6a26.23,26.23,0,0,1-3.43-.2Zm2.21,7h2c2.34,0,3.71-1.22,3.71-2.87,0-2-1.52-2.79-3.76-2.79a10,10,0,0,0-1.95.15Zm0,8.2a11.1,11.1,0,0,0,1.85.11c2.29,0,4.39-.84,4.39-3.33,0-2.34-2-3.3-4.41-3.3h-1.83Z"/><path class="cls-4" d="M396.32,52.84V51.47l1.76-1.7c4.21-4,6.11-6.15,6.14-8.63a3,3,0,0,0-3.28-3.23,5.6,5.6,0,0,0-3.5,1.4l-.71-1.58a7.26,7.26,0,0,1,4.67-1.67c3.56,0,5.05,2.43,5.05,4.8,0,3-2.21,5.51-5.68,8.86l-1.32,1.22V51h7.41v1.85Z"/><path class="cls-4" d="M422.09,52.28a10.88,10.88,0,0,1-4.52.81c-4.82,0-8.45-3-8.45-8.65,0-5.36,3.63-9,8.94-9a9.12,9.12,0,0,1,4.06.76l-.54,1.8a8.1,8.1,0,0,0-3.45-.71c-4,0-6.68,2.57-6.68,7.06,0,4.19,2.42,6.88,6.58,6.88a8.88,8.88,0,0,0,3.61-.71Z"/><path class="cls-4" d="M430.16,44.39c0-1.45,0-2.7-.1-3.84h2l.07,2.41h.11a3.67,3.67,0,0,1,3.4-2.69,2.41,2.41,0,0,1,.63.08v2.11a2.86,2.86,0,0,0-.76-.08,3.14,3.14,0,0,0-3,2.87,6.33,6.33,0,0,0-.1,1v6.55h-2.21Z"/><path class="cls-4" d="M439.46,47.1c.05,3,2,4.27,4.21,4.27a8,8,0,0,0,3.4-.64l.38,1.6a9.83,9.83,0,0,1-4.08.76c-3.79,0-6.05-2.48-6.05-6.19s2.19-6.63,5.77-6.63c4,0,5.07,3.53,5.07,5.79a10,10,0,0,1-.07,1ZM446,45.5c0-1.42-.59-3.63-3.1-3.63-2.26,0-3.25,2.08-3.43,3.63Z"/><path class="cls-4" d="M450.93,34.81h2.24v18h-2.24Z"/><path class="cls-4" d="M463.73,52.84l-.18-1.55h-.08a4.54,4.54,0,0,1-3.75,1.83A3.5,3.5,0,0,1,456,49.59c0-3,2.64-4.6,7.39-4.57v-.25a2.54,2.54,0,0,0-2.8-2.85,6.14,6.14,0,0,0-3.2.92l-.5-1.48a7.58,7.58,0,0,1,4-1.09c3.76,0,4.68,2.57,4.68,5v4.59a17.62,17.62,0,0,0,.2,3Zm-.33-6.27c-2.44,0-5.21.38-5.21,2.77a2,2,0,0,0,2.11,2.13,3.06,3.06,0,0,0,3-2.06,2.22,2.22,0,0,0,.13-.71Z"/><path class="cls-4" d="M471.75,37v3.53H475v1.7h-3.2v6.63c0,1.52.43,2.39,1.68,2.39a4.73,4.73,0,0,0,1.29-.16l.1,1.68a5.44,5.44,0,0,1-2,.3,3.09,3.09,0,0,1-2.41-.94,4.51,4.51,0,0,1-.86-3.19V42.25h-1.91v-1.7h1.91V37.61Z"/><path class="cls-4" d="M480,37.1a1.31,1.31,0,0,1-1.42,1.37,1.33,1.33,0,0,1-1.35-1.37,1.37,1.37,0,0,1,1.4-1.4A1.33,1.33,0,0,1,480,37.1Zm-2.49,15.74V40.55h2.24V52.84Z"/><path class="cls-4" d="M494.52,46.59c0,4.55-3.15,6.53-6.12,6.53-3.32,0-5.89-2.44-5.89-6.32,0-4.12,2.69-6.53,6.1-6.53S494.52,42.84,494.52,46.59Zm-9.75.13c0,2.69,1.55,4.72,3.74,4.72s3.73-2,3.73-4.77c0-2.08-1-4.72-3.68-4.72S484.77,44.39,484.77,46.72Z"/><path class="cls-4" d="M497.34,43.88c0-1.27,0-2.31-.1-3.33h2l.13,2h0a4.51,4.51,0,0,1,4.06-2.31c1.7,0,4.34,1,4.34,5.23v7.34h-2.23V45.76c0-2-.74-3.63-2.85-3.63a3.17,3.17,0,0,0-3,2.28,3.26,3.26,0,0,0-.15,1v7.39h-2.24Z"/><path class="cls-4" d="M511.13,50.56a5.84,5.84,0,0,0,2.94.88c1.63,0,2.39-.81,2.39-1.82s-.64-1.65-2.29-2.26c-2.21-.79-3.25-2-3.25-3.48,0-2,1.6-3.61,4.24-3.61a6.23,6.23,0,0,1,3,.76l-.56,1.63a4.76,4.76,0,0,0-2.52-.71c-1.32,0-2.05.76-2.05,1.67s.73,1.48,2.33,2.09c2.14.81,3.23,1.87,3.23,3.7,0,2.16-1.68,3.68-4.6,3.68a7.09,7.09,0,0,1-3.45-.83Z"/><path class="cls-4" d="M521.49,34.81h2.23v7.67h0a4.16,4.16,0,0,1,1.6-1.57,4.62,4.62,0,0,1,2.29-.64c1.65,0,4.29,1,4.29,5.26v7.31h-2.24V45.78c0-2-.73-3.65-2.84-3.65a3.21,3.21,0,0,0-3,2.23,2.64,2.64,0,0,0-.15,1.07v7.41h-2.23Z"/><path class="cls-4" d="M538.06,37.1a1.31,1.31,0,0,1-1.42,1.37,1.33,1.33,0,0,1-1.34-1.37,1.36,1.36,0,0,1,1.39-1.4A1.33,1.33,0,0,1,538.06,37.1Zm-2.48,15.74V40.55h2.23V52.84Z"/><path class="cls-4" d="M541.52,44.56c0-1.57,0-2.84-.11-4h2l.1,2.11h.05a4.84,4.84,0,0,1,4.37-2.39c3,0,5.21,2.52,5.21,6.25,0,4.42-2.7,6.6-5.59,6.6a4.29,4.29,0,0,1-3.78-1.93h0v6.68h-2.21Zm2.21,3.28a5.07,5.07,0,0,0,.1.91,3.44,3.44,0,0,0,3.35,2.62c2.36,0,3.73-1.93,3.73-4.75,0-2.46-1.29-4.57-3.66-4.57a3.56,3.56,0,0,0-3.37,2.77,3.47,3.47,0,0,0-.15.91Z"/><path class="cls-4" d="M555.66,50.56a5.87,5.87,0,0,0,2.94.88c1.63,0,2.39-.81,2.39-1.82s-.64-1.65-2.29-2.26c-2.21-.79-3.25-2-3.25-3.48,0-2,1.6-3.61,4.24-3.61a6.23,6.23,0,0,1,3,.76l-.56,1.63a4.76,4.76,0,0,0-2.52-.71c-1.32,0-2,.76-2,1.67s.73,1.48,2.33,2.09c2.14.81,3.23,1.87,3.23,3.7,0,2.16-1.68,3.68-4.6,3.68a7.09,7.09,0,0,1-3.45-.83Z"/><path class="cls-4" d="M291.39,79.93a25.46,25.46,0,0,1,4.24-.33,7,7,0,0,1,4.8,1.42,4.6,4.6,0,0,1,1.5,3.58,5.06,5.06,0,0,1-1.32,3.66,7.11,7.11,0,0,1-5.23,1.88A7.45,7.45,0,0,1,293.6,90v6.86h-2.21Zm2.21,8.25a7.24,7.24,0,0,0,1.83.18c2.67,0,4.29-1.3,4.29-3.66s-1.6-3.35-4-3.35a9.33,9.33,0,0,0-2.08.18Z"/><path class="cls-4" d="M311,96.84l-.18-1.55h-.08A4.54,4.54,0,0,1,307,97.12a3.5,3.5,0,0,1-3.76-3.53c0-3,2.64-4.6,7.39-4.57v-.25a2.54,2.54,0,0,0-2.8-2.85,6.08,6.08,0,0,0-3.19.92l-.51-1.48a7.61,7.61,0,0,1,4-1.09c3.76,0,4.68,2.57,4.68,5v4.59a17.62,17.62,0,0,0,.2,3Zm-.33-6.27c-2.44,0-5.21.38-5.21,2.77a2,2,0,0,0,2.11,2.13,3.05,3.05,0,0,0,3-2.06,2.22,2.22,0,0,0,.13-.71Z"/><path class="cls-4" d="M316.4,88.39c0-1.45,0-2.7-.1-3.84h1.95l.08,2.41h.1a3.69,3.69,0,0,1,3.4-2.69,2.43,2.43,0,0,1,.64.08v2.11a2.91,2.91,0,0,0-.76-.08,3.13,3.13,0,0,0-3,2.87,6.33,6.33,0,0,0-.1,1v6.55H316.4Z"/><path class="cls-4" d="M328,81v3.53h3.2v1.7H328v6.63c0,1.52.44,2.39,1.68,2.39a4.67,4.67,0,0,0,1.29-.16l.11,1.68a5.48,5.48,0,0,1-2,.3,3.11,3.11,0,0,1-2.42-.94,4.56,4.56,0,0,1-.86-3.19V86.25h-1.9v-1.7h1.9V81.61Z"/><path class="cls-4" d="M333.41,94.56a5.88,5.88,0,0,0,2.95.88c1.62,0,2.38-.81,2.38-1.82s-.63-1.65-2.28-2.26c-2.21-.79-3.25-2-3.25-3.48,0-2,1.6-3.61,4.24-3.61a6.22,6.22,0,0,1,3,.76l-.56,1.63A4.72,4.72,0,0,0,337.4,86c-1.32,0-2.06.76-2.06,1.67s.74,1.48,2.34,2.09c2.13.81,3.22,1.87,3.22,3.7,0,2.16-1.67,3.68-4.59,3.68a7.13,7.13,0,0,1-3.46-.83Z"/><path class="cls-4" d="M351.64,81.1a1.39,1.39,0,0,1-2.77,0,1.37,1.37,0,0,1,1.4-1.4A1.33,1.33,0,0,1,351.64,81.1Zm-2.49,15.74V84.55h2.24V96.84Z"/><path class="cls-4" d="M355.09,87.88c0-1.27,0-2.31-.1-3.33h2l.13,2h0a4.51,4.51,0,0,1,4.06-2.31c1.7,0,4.34,1,4.34,5.23v7.34h-2.23V89.76c0-2-.74-3.63-2.85-3.63a3.17,3.17,0,0,0-3,2.28,3.26,3.26,0,0,0-.15,1v7.39h-2.24Z"/><path class="cls-4" d="M369.72,84.55l2.41,6.91c.4,1.11.73,2.13,1,3.15h.07c.28-1,.64-2,1.05-3.15l2.38-6.91H379l-4.83,12.29H372l-4.67-12.29Z"/><path class="cls-4" d="M382.06,91.1c.05,3,2,4.27,4.21,4.27a8,8,0,0,0,3.4-.64l.38,1.6a9.83,9.83,0,0,1-4.08.76c-3.79,0-6.05-2.48-6.05-6.19s2.19-6.63,5.77-6.63c4,0,5.07,3.53,5.07,5.79a10,10,0,0,1-.07,1Zm6.55-1.6c0-1.42-.59-3.63-3.1-3.63-2.26,0-3.25,2.08-3.43,3.63Z"/><path class="cls-4" d="M393.53,87.88c0-1.27,0-2.31-.1-3.33h2l.13,2h0a4.51,4.51,0,0,1,4.06-2.31c1.7,0,4.34,1,4.34,5.23v7.34h-2.23V89.76c0-2-.74-3.63-2.85-3.63a3.17,3.17,0,0,0-3,2.28,3.26,3.26,0,0,0-.15,1v7.39h-2.24Z"/><path class="cls-4" d="M410.21,81v3.53h3.2v1.7h-3.2v6.63c0,1.52.43,2.39,1.68,2.39a4.73,4.73,0,0,0,1.29-.16l.1,1.68a5.4,5.4,0,0,1-2,.3,3.09,3.09,0,0,1-2.41-.94A4.56,4.56,0,0,1,408,93V86.25h-1.91v-1.7H408V81.61Z"/><path class="cls-4" d="M426.89,90.59c0,4.55-3.15,6.53-6.12,6.53-3.32,0-5.89-2.44-5.89-6.32,0-4.12,2.69-6.53,6.1-6.53S426.89,86.84,426.89,90.59Zm-9.75.13c0,2.69,1.55,4.72,3.73,4.72s3.74-2,3.74-4.77c0-2.08-1-4.72-3.68-4.72S417.14,88.39,417.14,90.72Z"/><path class="cls-4" d="M429.71,88.39c0-1.45,0-2.7-.1-3.84h1.95l.08,2.41h.1a3.69,3.69,0,0,1,3.4-2.69,2.43,2.43,0,0,1,.64.08v2.11a2.91,2.91,0,0,0-.76-.08,3.13,3.13,0,0,0-3,2.87,6.33,6.33,0,0,0-.1,1v6.55h-2.21Z"/><path class="cls-4" d="M439.46,84.55l2.69,7.26c.28.82.58,1.78.79,2.52H443c.23-.74.48-1.68.79-2.57l2.43-7.21h2.36l-3.35,8.76c-1.6,4.22-2.69,6.37-4.21,7.69a6,6,0,0,1-2.74,1.45l-.56-1.88a5.88,5.88,0,0,0,2-1.09A6.72,6.72,0,0,0,441.54,97a1.63,1.63,0,0,0,.18-.53,1.87,1.87,0,0,0-.15-.58L437,84.55Z"/><path class="cls-4" d="M293.6,123.73v7.16h8.28v-7.16h2.23v17.11h-2.23v-8H293.6v8h-2.21V123.73Z"/><path class="cls-4" d="M308,124a22.74,22.74,0,0,1,4.24-.36c2.36,0,3.88.43,4.95,1.4a4.27,4.27,0,0,1,1.34,3.25,4.48,4.48,0,0,1-3.22,4.36v.08c1.32.46,2.11,1.68,2.51,3.45a27.87,27.87,0,0,0,1.32,4.7h-2.28a22.32,22.32,0,0,1-1.15-4.09c-.5-2.36-1.42-3.25-3.42-3.32h-2.08v7.41H308Zm2.21,7.79h2.25c2.37,0,3.86-1.29,3.86-3.25,0-2.21-1.6-3.17-3.93-3.2a9.13,9.13,0,0,0-2.18.2Z"/><path class="cls-4" d="M333.72,140.84l-.18-1.55h-.08a4.55,4.55,0,0,1-3.76,1.83,3.5,3.5,0,0,1-3.75-3.53c0-3,2.64-4.6,7.38-4.57v-.25a2.53,2.53,0,0,0-2.79-2.85,6.14,6.14,0,0,0-3.2.92l-.51-1.48a7.65,7.65,0,0,1,4-1.09c3.76,0,4.67,2.57,4.67,5v4.59a16.55,16.55,0,0,0,.21,3Zm-.33-6.27c-2.44,0-5.21.38-5.21,2.77a2,2,0,0,0,2.11,2.13,3.06,3.06,0,0,0,3-2.06,2.53,2.53,0,0,0,.13-.71Z"/><path class="cls-4" d="M339.15,131.88c0-1.27,0-2.31-.1-3.33h2l.12,2h.05a4.53,4.53,0,0,1,4.07-2.31c1.7,0,4.34,1,4.34,5.23v7.34h-2.24v-7.08c0-2-.73-3.63-2.84-3.63a3.19,3.19,0,0,0-3,2.28,3.26,3.26,0,0,0-.15,1v7.39h-2.23Z"/><path class="cls-4" d="M363.85,122.81v14.86c0,1.09,0,2.33.1,3.17h-2l-.1-2.13h-.05a4.56,4.56,0,0,1-4.19,2.41c-3,0-5.26-2.51-5.26-6.25,0-4.08,2.51-6.6,5.51-6.6a4.12,4.12,0,0,1,3.71,1.88h.05v-7.34Zm-2.23,10.74a4.29,4.29,0,0,0-.1-.94,3.29,3.29,0,0,0-3.23-2.59c-2.31,0-3.68,2-3.68,4.75,0,2.49,1.22,4.55,3.63,4.55a3.36,3.36,0,0,0,3.28-2.67,4.16,4.16,0,0,0,.1-1Z"/><path class="cls-4" d="M372.94,132.56c0-1.57-.05-2.84-.1-4h2l.11,2.11H375a4.82,4.82,0,0,1,4.36-2.39c3,0,5.21,2.52,5.21,6.25,0,4.42-2.69,6.6-5.59,6.6a4.31,4.31,0,0,1-3.78-1.93h-.05v6.68h-2.21Zm2.21,3.28a5.07,5.07,0,0,0,.1.91,3.45,3.45,0,0,0,3.35,2.62c2.36,0,3.73-1.93,3.73-4.75,0-2.46-1.29-4.57-3.65-4.57a3.57,3.57,0,0,0-3.38,2.77,3.93,3.93,0,0,0-.15.91Z"/><path class="cls-4" d="M394.19,140.84l-.18-1.55h-.07a4.58,4.58,0,0,1-3.76,1.83,3.5,3.5,0,0,1-3.76-3.53c0-3,2.64-4.6,7.39-4.57v-.25a2.54,2.54,0,0,0-2.79-2.85,6.09,6.09,0,0,0-3.2.92l-.51-1.48a7.65,7.65,0,0,1,4-1.09c3.75,0,4.67,2.57,4.67,5v4.59a17.62,17.62,0,0,0,.2,3Zm-.33-6.27c-2.44,0-5.2.38-5.2,2.77a2,2,0,0,0,2.1,2.13,3.05,3.05,0,0,0,3-2.06,2.22,2.22,0,0,0,.13-.71Z"/><path class="cls-4" d="M400.23,128.55l2.69,7.26c.28.82.59,1.78.79,2.52h.05c.23-.74.48-1.68.79-2.57l2.44-7.21h2.36L406,137.31c-1.6,4.22-2.7,6.37-4.22,7.69a6,6,0,0,1-2.74,1.45l-.56-1.88a5.92,5.92,0,0,0,2-1.09,6.71,6.71,0,0,0,1.87-2.49,1.42,1.42,0,0,0,.18-.53,1.87,1.87,0,0,0-.15-.58l-4.55-11.33Z"/><path class="cls-4" d="M411.38,132.39c0-1.45,0-2.7-.1-3.84h2l.08,2.41h.1a3.68,3.68,0,0,1,3.4-2.69,2.49,2.49,0,0,1,.64.08v2.11a2.94,2.94,0,0,0-.77-.08,3.13,3.13,0,0,0-3,2.87,6.33,6.33,0,0,0-.1,1v6.55h-2.21Z"/><path class="cls-4" d="M430.55,134.59c0,4.55-3.15,6.53-6.12,6.53-3.33,0-5.89-2.44-5.89-6.32,0-4.12,2.69-6.53,6.09-6.53S430.55,130.84,430.55,134.59Zm-9.75.13c0,2.69,1.55,4.72,3.73,4.72s3.73-2,3.73-4.77c0-2.08-1-4.72-3.68-4.72S420.8,132.39,420.8,134.72Z"/><path class="cls-4" d="M433.36,122.81h2.24v18h-2.24Z"/><path class="cls-4" d="M439.36,122.81h2.23v18h-2.23Z"/><path class="cls-4" d="M97.35,302.2a36.33,36.33,0,0,1,6.37-.47c3,0,5.27.64,6.73,1.86a6.46,6.46,0,0,1,2.23,5.05,6.87,6.87,0,0,1-2,5.17c-1.66,1.66-4.26,2.44-7.21,2.44a11.91,11.91,0,0,1-2-.13v8.59H97.35Zm4.13,10.63a8.2,8.2,0,0,0,2,.17c3.12,0,5-1.52,5-4.2s-1.76-3.89-4.64-3.89a10.79,10.79,0,0,0-2.4.21Z"/><path class="cls-4" d="M116,300.68h4.2v24H116Z"/><path class="cls-4" d="M134,324.71l-.27-1.83h-.1a6.13,6.13,0,0,1-4.88,2.2,4.89,4.89,0,0,1-5.18-4.9c0-4.17,3.69-6.27,9.78-6.23v-.27c0-1.08-.44-2.88-3.35-2.88a8.75,8.75,0,0,0-4.43,1.22l-.81-2.71a11.92,11.92,0,0,1,6-1.45c5.28,0,6.81,3.35,6.81,6.93v6a27.78,27.78,0,0,0,.23,4Zm-.54-8c-2.95-.07-5.76.57-5.76,3.08a2.19,2.19,0,0,0,2.37,2.37,3.38,3.38,0,0,0,3.25-2.27,3.12,3.12,0,0,0,.14-.92Z"/><path class="cls-4" d="M141.9,313.14c0-1.9,0-3.49-.13-4.91h3.65l.2,2.47h.1a6,6,0,0,1,5.25-2.84c2.88,0,5.86,1.86,5.86,7.07v9.78h-4.17V315.4c0-2.36-.88-4.16-3.14-4.16a3.5,3.5,0,0,0-3.25,2.44,4.1,4.1,0,0,0-.17,1.35v9.68h-4.2Z"/><path class="cls-4" d="M291.39,210.93a25.46,25.46,0,0,1,4.24-.33,7,7,0,0,1,4.8,1.42,4.6,4.6,0,0,1,1.5,3.58,5.06,5.06,0,0,1-1.32,3.66,7.11,7.11,0,0,1-5.23,1.88,7.45,7.45,0,0,1-1.78-.16v6.86h-2.21Zm2.21,8.25a7.24,7.24,0,0,0,1.83.18c2.67,0,4.29-1.3,4.29-3.66s-1.6-3.35-4-3.35a9.33,9.33,0,0,0-2.08.18Z"/><path class="cls-4" d="M304.42,219.39c0-1.45,0-2.7-.1-3.84h1.95l.08,2.41h.1a3.68,3.68,0,0,1,3.4-2.69,2.49,2.49,0,0,1,.64.08v2.11a2.94,2.94,0,0,0-.77-.08,3.13,3.13,0,0,0-3,2.87,6.33,6.33,0,0,0-.1,1v6.55h-2.21Z"/><path class="cls-4" d="M313.71,222.1c.05,3,2,4.27,4.21,4.27a8,8,0,0,0,3.41-.64l.38,1.6a9.89,9.89,0,0,1-4.09.76c-3.78,0-6-2.48-6-6.19s2.18-6.63,5.76-6.63c4,0,5.08,3.53,5.08,5.79a7.43,7.43,0,0,1-.08,1Zm6.55-1.6c0-1.42-.58-3.63-3.1-3.63-2.26,0-3.25,2.08-3.42,3.63Z"/><path class="cls-4" d="M331.08,220.15v1.65H324.8v-1.65Z"/><path class="cls-4" d="M333.39,225.56a5.84,5.84,0,0,0,2.94.88c1.63,0,2.39-.81,2.39-1.82s-.64-1.65-2.29-2.26c-2.21-.79-3.25-2-3.25-3.48,0-2,1.6-3.61,4.24-3.61a6.16,6.16,0,0,1,3,.76l-.55,1.63a4.79,4.79,0,0,0-2.52-.71c-1.32,0-2.05.76-2.05,1.67s.73,1.48,2.33,2.09c2.13.81,3.23,1.87,3.23,3.7,0,2.16-1.68,3.68-4.6,3.68a7.06,7.06,0,0,1-3.45-.83Z"/><path class="cls-4" d="M350.55,227.84l-.18-1.55h-.08a4.54,4.54,0,0,1-3.75,1.83,3.5,3.5,0,0,1-3.76-3.53c0-3,2.64-4.6,7.39-4.57v-.25a2.54,2.54,0,0,0-2.8-2.85,6.08,6.08,0,0,0-3.19.92l-.51-1.48a7.61,7.61,0,0,1,4-1.09c3.76,0,4.68,2.57,4.68,5v4.59a17.62,17.62,0,0,0,.2,3Zm-.33-6.27c-2.44,0-5.21.38-5.21,2.77a2,2,0,0,0,2.11,2.13,3.05,3.05,0,0,0,3-2.06,2.22,2.22,0,0,0,.13-.71Z"/><path class="cls-4" d="M356,209.81h2.24v18H356Z"/><path class="cls-4" d="M363.22,222.1c0,3,2,4.27,4.21,4.27a8,8,0,0,0,3.4-.64l.38,1.6a9.83,9.83,0,0,1-4.08.76c-3.79,0-6.05-2.48-6.05-6.19s2.19-6.63,5.77-6.63c4,0,5.08,3.53,5.08,5.79a9.4,9.4,0,0,1-.08,1Zm6.55-1.6c0-1.42-.59-3.63-3.1-3.63-2.26,0-3.25,2.08-3.43,3.63Z"/><path class="cls-4" d="M374.39,225.56a5.87,5.87,0,0,0,2.94.88c1.63,0,2.39-.81,2.39-1.82s-.64-1.65-2.29-2.26c-2.2-.79-3.25-2-3.25-3.48,0-2,1.6-3.61,4.24-3.61a6.23,6.23,0,0,1,3,.76l-.56,1.63a4.73,4.73,0,0,0-2.52-.71c-1.32,0-2.05.76-2.05,1.67s.73,1.48,2.33,2.09c2.14.81,3.23,1.87,3.23,3.7,0,2.16-1.68,3.68-4.6,3.68a7.09,7.09,0,0,1-3.45-.83Z"/><path class="cls-4" d="M398.89,227.38a8.18,8.18,0,0,1-3.53.71c-3.71,0-6.12-2.51-6.12-6.27a6.24,6.24,0,0,1,6.6-6.52,7.57,7.57,0,0,1,3.1.63l-.51,1.73a5.1,5.1,0,0,0-2.59-.59c-2.82,0-4.34,2.09-4.34,4.65,0,2.84,1.83,4.6,4.26,4.6a6.39,6.39,0,0,0,2.75-.61Z"/><path class="cls-4" d="M408.31,227.84l-.18-1.55h-.08a4.55,4.55,0,0,1-3.76,1.83,3.5,3.5,0,0,1-3.75-3.53c0-3,2.64-4.6,7.39-4.57v-.25a2.54,2.54,0,0,0-2.8-2.85,6.14,6.14,0,0,0-3.2.92l-.5-1.48a7.58,7.58,0,0,1,4-1.09c3.76,0,4.67,2.57,4.67,5v4.59a17.55,17.55,0,0,0,.21,3Zm-.33-6.27c-2.44,0-5.21.38-5.21,2.77a2,2,0,0,0,2.11,2.13,3.06,3.06,0,0,0,3-2.06,2.22,2.22,0,0,0,.13-.71Z"/><path class="cls-4" d="M413.74,218.88c0-1.27,0-2.31-.1-3.33h1.95l.1,2h.08a4.24,4.24,0,0,1,3.86-2.26,3.63,3.63,0,0,1,3.48,2.46h.05a5,5,0,0,1,1.37-1.59,4.2,4.2,0,0,1,2.72-.87c1.62,0,4,1.07,4,5.33v7.24H429.1v-7c0-2.36-.86-3.78-2.67-3.78a2.89,2.89,0,0,0-2.64,2,3.77,3.77,0,0,0-.17,1.12v7.59h-2.19v-7.36c0-2-.86-3.38-2.56-3.38a3.33,3.33,0,0,0-2.95,3.33v7.41h-2.18Z"/><path class="cls-4" d="M434.91,219.56c0-1.57-.05-2.84-.1-4h2l.1,2.11H437a4.83,4.83,0,0,1,4.37-2.39c3,0,5.2,2.52,5.2,6.25,0,4.42-2.69,6.6-5.58,6.6a4.32,4.32,0,0,1-3.79-1.93h-.05v6.68h-2.21Zm2.21,3.28a5.07,5.07,0,0,0,.1.91,3.46,3.46,0,0,0,3.36,2.62c2.36,0,3.73-1.93,3.73-4.75,0-2.46-1.3-4.57-3.66-4.57a3.58,3.58,0,0,0-3.38,2.77,3.93,3.93,0,0,0-.15.91Z"/><path class="cls-4" d="M456.16,227.84l-.17-1.55h-.08a4.58,4.58,0,0,1-3.76,1.83,3.5,3.5,0,0,1-3.76-3.53c0-3,2.64-4.6,7.39-4.57v-.25a2.54,2.54,0,0,0-2.79-2.85,6.11,6.11,0,0,0-3.2.92l-.51-1.48a7.65,7.65,0,0,1,4-1.09c3.76,0,4.67,2.57,4.67,5v4.59a17.62,17.62,0,0,0,.2,3Zm-.33-6.27c-2.43,0-5.2.38-5.2,2.77a2,2,0,0,0,2.11,2.13,3.07,3.07,0,0,0,3-2.06,2.52,2.52,0,0,0,.12-.71Z"/><path class="cls-4" d="M464.08,212.1a1.38,1.38,0,0,1-2.76,0,1.36,1.36,0,0,1,1.39-1.4A1.33,1.33,0,0,1,464.08,212.1Zm-2.48,15.74V215.55h2.23v12.29Z"/><path class="cls-4" d="M478.12,215.55c-.05.89-.1,1.88-.1,3.38v7.13c0,2.82-.56,4.55-1.75,5.61a6.5,6.5,0,0,1-4.47,1.48,8,8,0,0,1-4.09-1l.56-1.7a6.9,6.9,0,0,0,3.61,1c2.28,0,4-1.19,4-4.29v-1.37h0a4.38,4.38,0,0,1-3.91,2.06c-3.05,0-5.23-2.59-5.23-6,0-4.17,2.71-6.53,5.53-6.53A4.11,4.11,0,0,1,476,217.4h.05l.1-1.85Zm-2.31,4.85a3.18,3.18,0,0,0-.12-1,3.23,3.23,0,0,0-3.13-2.37c-2.13,0-3.65,1.81-3.65,4.65,0,2.41,1.22,4.42,3.63,4.42a3.28,3.28,0,0,0,3.1-2.29,4.08,4.08,0,0,0,.17-1.19Z"/><path class="cls-4" d="M481.58,218.88c0-1.27,0-2.31-.11-3.33h2l.13,2h.05a4.51,4.51,0,0,1,4.06-2.31c1.71,0,4.35,1,4.35,5.23v7.34H489.8v-7.08c0-2-.73-3.63-2.84-3.63a3.18,3.18,0,0,0-3,2.28,3.26,3.26,0,0,0-.15,1v7.39h-2.23Z"/><path class="cls-4" d="M495.36,225.56a5.88,5.88,0,0,0,2.95.88c1.62,0,2.38-.81,2.38-1.82s-.63-1.65-2.28-2.26c-2.21-.79-3.25-2-3.25-3.48,0-2,1.6-3.61,4.24-3.61a6.22,6.22,0,0,1,3,.76l-.56,1.63a4.72,4.72,0,0,0-2.51-.71c-1.32,0-2.06.76-2.06,1.67s.74,1.48,2.34,2.09c2.13.81,3.22,1.87,3.22,3.7,0,2.16-1.67,3.68-4.59,3.68a7.13,7.13,0,0,1-3.46-.83Z"/><path class="cls-4" d="M517.91,227.84l-.18-1.55h-.08a4.55,4.55,0,0,1-3.76,1.83,3.5,3.5,0,0,1-3.75-3.53c0-3,2.64-4.6,7.39-4.57v-.25a2.54,2.54,0,0,0-2.8-2.85,6.14,6.14,0,0,0-3.2.92l-.5-1.48a7.58,7.58,0,0,1,4-1.09c3.76,0,4.67,2.57,4.67,5v4.59a16.55,16.55,0,0,0,.21,3Zm-.33-6.27c-2.44,0-5.21.38-5.21,2.77a2,2,0,0,0,2.11,2.13,3.06,3.06,0,0,0,3-2.06,2.22,2.22,0,0,0,.13-.71Z"/><path class="cls-4" d="M523.34,218.88c0-1.27,0-2.31-.1-3.33h2l.12,2h.06a4.5,4.5,0,0,1,4.06-2.31c1.7,0,4.34,1,4.34,5.23v7.34h-2.23v-7.08c0-2-.74-3.63-2.85-3.63a3.17,3.17,0,0,0-3,2.28,3,3,0,0,0-.16,1v7.39h-2.23Z"/><path class="cls-4" d="M548,209.81v14.86c0,1.09,0,2.33.1,3.17h-2l-.1-2.13h0a4.56,4.56,0,0,1-4.19,2.41c-3,0-5.26-2.51-5.26-6.25,0-4.08,2.51-6.6,5.51-6.6a4.12,4.12,0,0,1,3.71,1.88h0v-7.34Zm-2.23,10.74a4.29,4.29,0,0,0-.1-.94,3.29,3.29,0,0,0-3.23-2.59c-2.31,0-3.68,2-3.68,4.75,0,2.49,1.22,4.55,3.63,4.55a3.36,3.36,0,0,0,3.28-2.67,4.16,4.16,0,0,0,.1-1Z"/><path class="cls-4" d="M557.13,219.56c0-1.57,0-2.84-.1-4h2l.11,2.11h.05a4.82,4.82,0,0,1,4.36-2.39c3,0,5.21,2.52,5.21,6.25,0,4.42-2.69,6.6-5.59,6.6a4.31,4.31,0,0,1-3.78-1.93h0v6.68h-2.21Zm2.21,3.28a5.07,5.07,0,0,0,.1.91,3.45,3.45,0,0,0,3.35,2.62c2.36,0,3.74-1.93,3.74-4.75,0-2.46-1.3-4.57-3.66-4.57a3.57,3.57,0,0,0-3.38,2.77,3.93,3.93,0,0,0-.15.91Z"/><path class="cls-4" d="M571.58,219.39c0-1.45,0-2.7-.11-3.84h2l.08,2.41h.1a3.68,3.68,0,0,1,3.4-2.69,2.41,2.41,0,0,1,.63.08v2.11a2.81,2.81,0,0,0-.76-.08,3.13,3.13,0,0,0-3,2.87,6.26,6.26,0,0,0-.11,1v6.55h-2.2Z"/><path class="cls-4" d="M590.75,221.59c0,4.55-3.15,6.53-6.12,6.53-3.33,0-5.89-2.44-5.89-6.32,0-4.12,2.69-6.53,6.09-6.53S590.75,217.84,590.75,221.59Zm-9.75.13c0,2.69,1.54,4.72,3.73,4.72s3.73-2,3.73-4.77c0-2.08-1-4.72-3.68-4.72S581,219.39,581,221.72Z"/><path class="cls-4" d="M593.56,218.88c0-1.27,0-2.31-.1-3.33h2l.1,2h.07a4.24,4.24,0,0,1,3.86-2.26,3.63,3.63,0,0,1,3.48,2.46H603a5.16,5.16,0,0,1,1.37-1.59,4.2,4.2,0,0,1,2.72-.87c1.63,0,4,1.07,4,5.33v7.24h-2.19v-7c0-2.36-.86-3.78-2.66-3.78a2.89,2.89,0,0,0-2.64,2,3.75,3.75,0,0,0-.18,1.12v7.59h-2.18v-7.36c0-2-.87-3.38-2.57-3.38a3.07,3.07,0,0,0-2.77,2.23,3.29,3.29,0,0,0-.17,1.1v7.41h-2.19Z"/><path class="cls-4" d="M625.86,221.59c0,4.55-3.15,6.53-6.12,6.53-3.33,0-5.89-2.44-5.89-6.32,0-4.12,2.69-6.53,6.09-6.53S625.86,217.84,625.86,221.59Zm-9.75.13c0,2.69,1.55,4.72,3.73,4.72s3.73-2,3.73-4.77c0-2.08-1-4.72-3.68-4.72S616.11,219.39,616.11,221.72Z"/><path class="cls-4" d="M631.37,212v3.53h3.2v1.7h-3.2v6.63c0,1.52.43,2.39,1.67,2.39a4.76,4.76,0,0,0,1.3-.16l.1,1.68a5.44,5.44,0,0,1-2,.3,3.09,3.09,0,0,1-2.41-.94,4.51,4.51,0,0,1-.87-3.19v-6.71h-1.9v-1.7h1.9v-2.94Z"/><path class="cls-4" d="M639.57,212.1a1.39,1.39,0,0,1-2.77,0,1.36,1.36,0,0,1,1.4-1.4A1.33,1.33,0,0,1,639.57,212.1Zm-2.49,15.74V215.55h2.23v12.29Z"/><path class="cls-4" d="M654.14,221.59c0,4.55-3.15,6.53-6.12,6.53-3.32,0-5.89-2.44-5.89-6.32,0-4.12,2.69-6.53,6.09-6.53S654.14,217.84,654.14,221.59Zm-9.75.13c0,2.69,1.55,4.72,3.73,4.72s3.74-2,3.74-4.77c0-2.08-1.05-4.72-3.69-4.72S644.39,219.39,644.39,221.72Z"/><path class="cls-4" d="M657,218.88c0-1.27,0-2.31-.1-3.33h2l.12,2h0a4.53,4.53,0,0,1,4.07-2.31c1.7,0,4.34,1,4.34,5.23v7.34h-2.24v-7.08c0-2-.73-3.63-2.84-3.63a3.19,3.19,0,0,0-3,2.28,3.26,3.26,0,0,0-.15,1v7.39H657Z"/><path class="cls-4" d="M670.74,225.56a5.88,5.88,0,0,0,3,.88c1.62,0,2.39-.81,2.39-1.82s-.64-1.65-2.29-2.26c-2.21-.79-3.25-2-3.25-3.48,0-2,1.6-3.61,4.24-3.61a6.16,6.16,0,0,1,3,.76l-.56,1.63a4.72,4.72,0,0,0-2.51-.71c-1.32,0-2.06.76-2.06,1.67s.74,1.48,2.34,2.09c2.13.81,3.22,1.87,3.22,3.7,0,2.16-1.67,3.68-4.59,3.68a7.06,7.06,0,0,1-3.45-.83Z"/><path class="cls-4" d="M291.09,269.15a7.83,7.83,0,0,0,4,1.12c2.26,0,3.58-1.2,3.58-2.92s-.91-2.52-3.22-3.41c-2.8-1-4.52-2.43-4.52-4.85,0-2.66,2.2-4.64,5.53-4.64a7.66,7.66,0,0,1,3.78.84l-.61,1.8a6.72,6.72,0,0,0-3.25-.81c-2.33,0-3.22,1.39-3.22,2.56,0,1.6,1,2.39,3.4,3.3,2.9,1.12,4.37,2.51,4.37,5s-2,4.92-6,4.92a8.84,8.84,0,0,1-4.37-1.09Z"/><path class="cls-4" d="M310.71,271.84l-.17-1.55h-.08a4.56,4.56,0,0,1-3.76,1.83,3.49,3.49,0,0,1-3.75-3.53c0-3,2.64-4.6,7.38-4.57v-.25a2.54,2.54,0,0,0-2.79-2.85,6.11,6.11,0,0,0-3.2.92l-.51-1.48a7.65,7.65,0,0,1,4-1.09c3.76,0,4.67,2.57,4.67,5v4.59a16.55,16.55,0,0,0,.21,2.95Zm-.33-6.27c-2.43-.05-5.2.38-5.2,2.77a2,2,0,0,0,2.11,2.13,3.06,3.06,0,0,0,3-2.06,2.52,2.52,0,0,0,.12-.71Z"/><path class="cls-4" d="M316.15,253.81h2.23v18h-2.23Z"/><path class="cls-4" d="M323.38,266.1c.05,3,2,4.27,4.22,4.27a8,8,0,0,0,3.4-.64l.38,1.6a9.89,9.89,0,0,1-4.09.76c-3.78,0-6-2.48-6-6.19s2.18-6.63,5.76-6.63c4,0,5.08,3.53,5.08,5.79a10,10,0,0,1-.07,1Zm6.55-1.6c0-1.42-.58-3.63-3.09-3.63-2.26,0-3.25,2.08-3.43,3.63Z"/><path class="cls-4" d="M334.55,269.56a5.88,5.88,0,0,0,2.95.88c1.62,0,2.39-.81,2.39-1.82s-.64-1.65-2.29-2.26c-2.21-.79-3.25-2-3.25-3.48,0-2,1.6-3.61,4.24-3.61a6.19,6.19,0,0,1,3,.76l-.56,1.63a4.72,4.72,0,0,0-2.51-.71c-1.32,0-2.06.76-2.06,1.67s.74,1.48,2.34,2.09c2.13.81,3.22,1.87,3.22,3.7,0,2.16-1.67,3.68-4.59,3.68a7.13,7.13,0,0,1-3.46-.83Z"/><path class="cls-4" d="M357.1,271.84l-.18-1.55h-.08a4.54,4.54,0,0,1-3.75,1.83,3.5,3.5,0,0,1-3.76-3.53c0-3,2.64-4.6,7.39-4.57v-.25a2.54,2.54,0,0,0-2.8-2.85,6.08,6.08,0,0,0-3.19.92l-.51-1.48a7.61,7.61,0,0,1,4-1.09c3.76,0,4.68,2.57,4.68,5v4.59a17.62,17.62,0,0,0,.2,2.95Zm-.33-6.27c-2.44-.05-5.21.38-5.21,2.77a2,2,0,0,0,2.11,2.13,3.05,3.05,0,0,0,3-2.06,2.22,2.22,0,0,0,.13-.71Z"/><path class="cls-4" d="M362.53,262.88c0-1.27,0-2.31-.1-3.33h2l.13,2h0a4.51,4.51,0,0,1,4.06-2.31c1.7,0,4.34,1,4.34,5.23v7.34h-2.23v-7.08c0-2-.74-3.63-2.85-3.63a3.17,3.17,0,0,0-3,2.28,3.26,3.26,0,0,0-.15,1v7.39h-2.24Z"/><path class="cls-4" d="M387.24,253.81v14.86c0,1.09,0,2.33.1,3.17h-2l-.1-2.13h-.05a4.56,4.56,0,0,1-4.19,2.41c-3,0-5.26-2.51-5.26-6.25,0-4.08,2.52-6.6,5.51-6.6a4.12,4.12,0,0,1,3.71,1.88H385v-7.34ZM385,264.55a3.76,3.76,0,0,0-.1-.94,3.29,3.29,0,0,0-3.23-2.59c-2.31,0-3.68,2-3.68,4.75,0,2.49,1.22,4.55,3.63,4.55a3.36,3.36,0,0,0,3.28-2.67,3.68,3.68,0,0,0,.1-1Z"/><path class="cls-4" d="M406.61,268.49c0,1.27,0,2.39.1,3.35h-2l-.13-2h-.05a4.62,4.62,0,0,1-4.06,2.29c-1.93,0-4.24-1.07-4.24-5.38v-7.19h2.23v6.81c0,2.33.71,3.91,2.74,3.91a3.25,3.25,0,0,0,2.95-2,3.17,3.17,0,0,0,.2-1.14v-7.54h2.24Z"/><path class="cls-4" d="M410.31,263.56c0-1.57-.05-2.84-.1-4h2l.1,2.11h.05a4.83,4.83,0,0,1,4.37-2.39c3,0,5.2,2.52,5.2,6.25,0,4.42-2.69,6.6-5.58,6.6a4.32,4.32,0,0,1-3.79-1.93h-.05v6.68h-2.21Zm2.21,3.28a5.07,5.07,0,0,0,.1.91,3.45,3.45,0,0,0,3.35,2.62c2.37,0,3.74-1.93,3.74-4.75,0-2.46-1.3-4.57-3.66-4.57a3.58,3.58,0,0,0-3.38,2.77,3.93,3.93,0,0,0-.15.91Z"/><path class="cls-4" d="M430.32,264.15v1.65h-6.27v-1.65Z"/><path class="cls-4" d="M432.63,269.56a5.87,5.87,0,0,0,2.94.88c1.63,0,2.39-.81,2.39-1.82s-.63-1.65-2.29-2.26c-2.2-.79-3.25-2-3.25-3.48,0-2,1.6-3.61,4.24-3.61a6.23,6.23,0,0,1,3,.76l-.56,1.63a4.73,4.73,0,0,0-2.52-.71c-1.32,0-2.05.76-2.05,1.67s.73,1.48,2.33,2.09c2.14.81,3.23,1.87,3.23,3.7,0,2.16-1.68,3.68-4.6,3.68a7.09,7.09,0,0,1-3.45-.83Z"/><path class="cls-4" d="M444.23,266.1c0,3,2,4.27,4.22,4.27a8,8,0,0,0,3.4-.64l.38,1.6a9.89,9.89,0,0,1-4.09.76c-3.78,0-6-2.48-6-6.19s2.18-6.63,5.76-6.63c4,0,5.08,3.53,5.08,5.79a7.43,7.43,0,0,1-.08,1Zm6.55-1.6c0-1.42-.58-3.63-3.1-3.63-2.26,0-3.25,2.08-3.42,3.63Z"/><path class="cls-4" d="M455.71,253.81h2.23v18h-2.23Z"/><path class="cls-4" d="M461.7,253.81h2.23v18H461.7Z"/><path class="cls-4" d="M471.19,272.86l7.09-18.41H480l-7.11,18.41Z"/><path class="cls-4" d="M495.92,271.38a8.14,8.14,0,0,1-3.53.71c-3.71,0-6.12-2.51-6.12-6.27a6.24,6.24,0,0,1,6.6-6.52,7.57,7.57,0,0,1,3.1.63l-.51,1.73a5.1,5.1,0,0,0-2.59-.59c-2.82,0-4.34,2.09-4.34,4.65,0,2.84,1.83,4.6,4.27,4.6a6.34,6.34,0,0,0,2.74-.61Z"/><path class="cls-4" d="M498.53,263.39c0-1.45,0-2.7-.1-3.84h2l.07,2.41h.11a3.67,3.67,0,0,1,3.4-2.69,2.41,2.41,0,0,1,.63.08v2.11a2.86,2.86,0,0,0-.76-.08,3.14,3.14,0,0,0-3,2.87,6.33,6.33,0,0,0-.1,1v6.55h-2.21Z"/><path class="cls-4" d="M517.7,265.59c0,4.55-3.15,6.53-6.12,6.53-3.32,0-5.89-2.44-5.89-6.32,0-4.12,2.69-6.53,6.1-6.53S517.7,261.84,517.7,265.59Zm-9.75.13c0,2.69,1.55,4.72,3.74,4.72s3.73-2,3.73-4.77c0-2.08-1-4.72-3.68-4.72S508,263.39,508,265.72Z"/><path class="cls-4" d="M520.22,269.56a5.84,5.84,0,0,0,2.94.88c1.63,0,2.39-.81,2.39-1.82s-.64-1.65-2.29-2.26c-2.21-.79-3.25-2-3.25-3.48,0-2,1.6-3.61,4.24-3.61a6.16,6.16,0,0,1,3,.76l-.55,1.63a4.79,4.79,0,0,0-2.52-.71c-1.32,0-2.05.76-2.05,1.67s.73,1.48,2.33,2.09c2.13.81,3.23,1.87,3.23,3.7,0,2.16-1.68,3.68-4.6,3.68a7.06,7.06,0,0,1-3.45-.83Z"/><path class="cls-4" d="M530.27,269.56a5.87,5.87,0,0,0,2.94.88c1.63,0,2.39-.81,2.39-1.82s-.63-1.65-2.28-2.26c-2.21-.79-3.25-2-3.25-3.48,0-2,1.6-3.61,4.24-3.61a6.22,6.22,0,0,1,3,.76l-.56,1.63a4.72,4.72,0,0,0-2.51-.71c-1.32,0-2.06.76-2.06,1.67s.74,1.48,2.33,2.09c2.14.81,3.23,1.87,3.23,3.7,0,2.16-1.68,3.68-4.6,3.68a7.09,7.09,0,0,1-3.45-.83Z"/><path class="cls-4" d="M545.81,264.15v1.65h-6.27v-1.65Z"/><path class="cls-4" d="M548.12,269.56a5.87,5.87,0,0,0,2.94.88c1.63,0,2.39-.81,2.39-1.82s-.64-1.65-2.29-2.26c-2.21-.79-3.25-2-3.25-3.48,0-2,1.6-3.61,4.24-3.61a6.23,6.23,0,0,1,3,.76l-.56,1.63a4.76,4.76,0,0,0-2.52-.71c-1.32,0-2.05.76-2.05,1.67s.73,1.48,2.33,2.09c2.14.81,3.23,1.87,3.23,3.7,0,2.16-1.68,3.68-4.6,3.68a7.09,7.09,0,0,1-3.45-.83Z"/><path class="cls-4" d="M559.72,266.1c0,3,2,4.27,4.21,4.27a8,8,0,0,0,3.41-.64l.38,1.6a9.93,9.93,0,0,1-4.09.76c-3.78,0-6-2.48-6-6.19s2.18-6.63,5.76-6.63c4,0,5.08,3.53,5.08,5.79a7.43,7.43,0,0,1-.08,1Zm6.55-1.6c0-1.42-.58-3.63-3.1-3.63-2.26,0-3.25,2.08-3.43,3.63Z"/><path class="cls-4" d="M571.2,253.81h2.23v18H571.2Z"/><path class="cls-4" d="M577.19,253.81h2.23v18h-2.23Z"/><path class="cls-4" d="M291.39,299a22.9,22.9,0,0,1,4.24-.36c2.36,0,3.89.43,4.95,1.4a4.24,4.24,0,0,1,1.35,3.25,4.48,4.48,0,0,1-3.22,4.36v.08c1.32.46,2.1,1.68,2.51,3.45a26.91,26.91,0,0,0,1.32,4.7h-2.29a22.63,22.63,0,0,1-1.14-4.09c-.51-2.36-1.42-3.25-3.43-3.32H293.6v7.41h-2.21Zm2.21,7.79h2.26c2.36,0,3.86-1.29,3.86-3.25,0-2.21-1.6-3.17-3.93-3.2a9.3,9.3,0,0,0-2.19.2Z"/><path class="cls-4" d="M306.32,310.1c.05,3,2,4.27,4.22,4.27a8,8,0,0,0,3.4-.64l.38,1.6a9.89,9.89,0,0,1-4.09.76c-3.78,0-6-2.48-6-6.19s2.18-6.63,5.76-6.63c4,0,5.08,3.53,5.08,5.79a7.43,7.43,0,0,1-.08,1Zm6.55-1.6c0-1.42-.58-3.63-3.09-3.63-2.26,0-3.25,2.08-3.43,3.63Z"/><path class="cls-4" d="M317.8,306.88c0-1.27,0-2.31-.1-3.33h2l.12,2h.05a4.53,4.53,0,0,1,4.07-2.31c1.7,0,4.34,1,4.34,5.23v7.34H326v-7.08c0-2-.73-3.63-2.84-3.63a3.19,3.19,0,0,0-3,2.28,3.26,3.26,0,0,0-.15,1v7.39H317.8Z"/><path class="cls-4" d="M334.48,300v3.53h3.2v1.7h-3.2v6.63c0,1.52.43,2.39,1.67,2.39a4.76,4.76,0,0,0,1.3-.16l.1,1.68a5.44,5.44,0,0,1-2,.3,3.09,3.09,0,0,1-2.41-.94,4.51,4.51,0,0,1-.87-3.19v-6.71h-1.9v-1.7h1.9v-2.94Z"/><path class="cls-4" d="M347,315.84l-.17-1.55h-.08a4.55,4.55,0,0,1-3.76,1.83,3.49,3.49,0,0,1-3.75-3.53c0-3,2.64-4.6,7.38-4.57v-.25a2.54,2.54,0,0,0-2.79-2.85,6.14,6.14,0,0,0-3.2.92l-.51-1.48a7.65,7.65,0,0,1,4-1.09c3.76,0,4.67,2.57,4.67,5v4.59a16.55,16.55,0,0,0,.21,2.95Zm-.33-6.27c-2.43-.05-5.2.38-5.2,2.77a2,2,0,0,0,2.11,2.13,3.06,3.06,0,0,0,3-2.06,2.52,2.52,0,0,0,.12-.71Z"/><path class="cls-4" d="M352.43,297.81h2.23v18h-2.23Z"/><path class="cls-4" d="M363.5,313.56a5.84,5.84,0,0,0,2.94.88c1.63,0,2.39-.81,2.39-1.82s-.64-1.65-2.29-2.26c-2.21-.79-3.25-2-3.25-3.48,0-2,1.6-3.61,4.24-3.61a6.16,6.16,0,0,1,3,.76l-.55,1.63a4.79,4.79,0,0,0-2.52-.71c-1.32,0-2.05.76-2.05,1.67s.73,1.48,2.33,2.09c2.13.81,3.23,1.87,3.23,3.7,0,2.16-1.68,3.68-4.6,3.68a7.06,7.06,0,0,1-3.45-.83Z"/><path class="cls-4" d="M375.1,310.1c0,3,2,4.27,4.21,4.27a8,8,0,0,0,3.41-.64l.38,1.6a9.93,9.93,0,0,1-4.09.76c-3.78,0-6-2.48-6-6.19s2.18-6.63,5.76-6.63c4,0,5.08,3.53,5.08,5.79a7.43,7.43,0,0,1-.08,1Zm6.55-1.6c0-1.42-.58-3.63-3.1-3.63-2.26,0-3.25,2.08-3.43,3.63Z"/><path class="cls-4" d="M386.57,307.39c0-1.45,0-2.7-.1-3.84h2l.07,2.41h.11a3.67,3.67,0,0,1,3.4-2.69,2.41,2.41,0,0,1,.63.08v2.11a2.86,2.86,0,0,0-.76-.08,3.14,3.14,0,0,0-3,2.87,6.33,6.33,0,0,0-.1,1v6.55h-2.21Z"/><path class="cls-4" d="M396.37,303.55l2.42,6.91c.4,1.11.73,2.13,1,3.15h.07c.28-1,.64-2,1-3.15l2.39-6.91h2.34l-4.83,12.29h-2.13L394,303.55Z"/><path class="cls-4" d="M410.21,300.1a1.31,1.31,0,0,1-1.42,1.37,1.33,1.33,0,0,1-1.35-1.37,1.37,1.37,0,0,1,1.4-1.4A1.33,1.33,0,0,1,410.21,300.1Zm-2.49,15.74V303.55H410v12.29Z"/><path class="cls-4" d="M422.42,315.38a8.14,8.14,0,0,1-3.53.71c-3.7,0-6.12-2.51-6.12-6.27a6.24,6.24,0,0,1,6.61-6.52,7.52,7.52,0,0,1,3.09.63l-.5,1.73a5.16,5.16,0,0,0-2.59-.59c-2.82,0-4.35,2.09-4.35,4.65,0,2.84,1.83,4.6,4.27,4.6a6.31,6.31,0,0,0,2.74-.61Z"/><path class="cls-4" d="M426.13,310.1c.05,3,2,4.27,4.21,4.27a8,8,0,0,0,3.41-.64l.38,1.6a9.93,9.93,0,0,1-4.09.76c-3.78,0-6-2.48-6-6.19s2.18-6.63,5.76-6.63c4,0,5.08,3.53,5.08,5.79a7.43,7.43,0,0,1-.08,1Zm6.55-1.6c0-1.42-.58-3.63-3.1-3.63-2.26,0-3.25,2.08-3.43,3.63Z"/><path class="cls-4" d="M437.3,313.56a5.87,5.87,0,0,0,2.94.88c1.63,0,2.39-.81,2.39-1.82s-.63-1.65-2.28-2.26c-2.21-.79-3.25-2-3.25-3.48,0-2,1.6-3.61,4.24-3.61a6.22,6.22,0,0,1,3,.76l-.56,1.63a4.72,4.72,0,0,0-2.51-.71c-1.32,0-2.06.76-2.06,1.67s.74,1.48,2.34,2.09c2.13.81,3.22,1.87,3.22,3.7,0,2.16-1.68,3.68-4.6,3.68a7.09,7.09,0,0,1-3.45-.83Z"/><path class="cls-4" d="M80.2,494.66A22.54,22.54,0,0,1,72.86,496c-3.86,0-6.77-1-8.94-3.05a11.32,11.32,0,0,1-3.18-8.39c0-7.21,5.15-11.85,12.7-11.85a15.06,15.06,0,0,1,6,1.09l-.91,3.35a12.32,12.32,0,0,0-5.18-1c-4.87,0-8.29,2.87-8.29,8.19s3.18,8.25,7.92,8.25a8,8,0,0,0,3.15-.47V486.4h-4v-3.28h8Z"/><path class="cls-4" d="M87.45,488.64c.1,3,2.44,4.26,5.08,4.26a12.51,12.51,0,0,0,4.57-.74l.6,2.87a15.39,15.39,0,0,1-5.75,1c-5.35,0-8.49-3.28-8.49-8.33,0-4.56,2.77-8.86,8.05-8.86s7.11,4.4,7.11,8a9.88,9.88,0,0,1-.14,1.76Zm7.24-2.91c0-1.53-.64-4-3.41-4-2.58,0-3.66,2.34-3.83,4Z"/><path class="cls-4" d="M102,484.14c0-1.9,0-3.49-.13-4.91h3.65l.21,2.47h.1a5.92,5.92,0,0,1,5.24-2.84c2.88,0,5.86,1.86,5.86,7.07v9.78h-4.16V486.4c0-2.36-.88-4.16-3.15-4.16a3.5,3.5,0,0,0-3.25,2.44,4.1,4.1,0,0,0-.17,1.35v9.68H102Z"/><path class="cls-4" d="M124.28,488.64c.1,3,2.44,4.26,5.08,4.26a12.51,12.51,0,0,0,4.57-.74l.6,2.87a15.39,15.39,0,0,1-5.75,1c-5.35,0-8.49-3.28-8.49-8.33,0-4.56,2.77-8.86,8-8.86s7.11,4.4,7.11,8a9.88,9.88,0,0,1-.14,1.76Zm7.24-2.91c0-1.53-.64-4-3.41-4-2.58,0-3.66,2.34-3.83,4Z"/><path class="cls-4" d="M138.8,484.54c0-2.23,0-3.82-.13-5.31h3.62l.13,3.15h.14a4.91,4.91,0,0,1,4.5-3.52,4.22,4.22,0,0,1,1,.1v3.92a6.41,6.41,0,0,0-1.22-.13,3.67,3.67,0,0,0-3.72,3.15,6.91,6.91,0,0,0-.13,1.28v8.53H138.8Z"/><path class="cls-4" d="M159.82,495.71l-.27-1.83h-.1a6.11,6.11,0,0,1-4.87,2.2,4.89,4.89,0,0,1-5.18-4.9c0-4.17,3.69-6.27,9.78-6.23v-.27c0-1.08-.44-2.88-3.35-2.88A8.69,8.69,0,0,0,151.4,483l-.82-2.71a11.93,11.93,0,0,1,6-1.45c5.28,0,6.8,3.35,6.8,6.93v6a26.23,26.23,0,0,0,.24,4Zm-.54-8c-2.94-.07-5.75.57-5.75,3.08a2.19,2.19,0,0,0,2.37,2.37,3.4,3.4,0,0,0,3.25-2.27,3.09,3.09,0,0,0,.13-.92Z"/><path class="cls-4" d="M172.31,474.52v4.71h4v3.11h-4v7.28c0,2,.55,3.05,2.14,3.05a6.12,6.12,0,0,0,1.62-.21l.07,3.18a9,9,0,0,1-3,.41,4.84,4.84,0,0,1-3.59-1.35c-.88-.95-1.29-2.44-1.29-4.61v-7.75h-2.37v-3.11h2.37v-3.72Z"/><path class="cls-4" d="M182.16,488.64c.11,3,2.44,4.26,5.08,4.26a12.47,12.47,0,0,0,4.57-.74l.61,2.87a15.39,15.39,0,0,1-5.75,1c-5.35,0-8.5-3.28-8.5-8.33,0-4.56,2.78-8.86,8.06-8.86s7.1,4.4,7.1,8a10.09,10.09,0,0,1-.13,1.76Zm7.25-2.91c0-1.53-.65-4-3.42-4-2.57,0-3.66,2.34-3.83,4Z"/><path class="cls-4" d="M291.39,388a20.86,20.86,0,0,1,4-.36c2.21,0,3.63.38,4.7,1.24a3.59,3.59,0,0,1,1.42,3,4.05,4.05,0,0,1-2.89,3.75v.05a4.42,4.42,0,0,1,3.52,4.3,4.59,4.59,0,0,1-1.44,3.42c-1.2,1.09-3.13,1.6-5.92,1.6a26.35,26.35,0,0,1-3.43-.2Zm2.21,7h2c2.33,0,3.71-1.22,3.71-2.87,0-2-1.53-2.79-3.76-2.79a10.08,10.08,0,0,0-2,.15Zm0,8.2a11.23,11.23,0,0,0,1.86.11c2.28,0,4.39-.84,4.39-3.33,0-2.34-2-3.3-4.42-3.3H293.6Z"/><path class="cls-4" d="M307.57,389.1a1.39,1.39,0,0,1-2.77,0,1.36,1.36,0,0,1,1.4-1.4A1.33,1.33,0,0,1,307.57,389.1Zm-2.49,15.74V392.55h2.23v12.29Z"/><path class="cls-4" d="M311,386.81h2.23v18H311Z"/><path class="cls-4" d="M317,386.81h2.23v18H317Z"/><path class="cls-4" d="M322.7,402.56a5.84,5.84,0,0,0,2.94.88c1.63,0,2.39-.81,2.39-1.82s-.64-1.65-2.29-2.26c-2.21-.79-3.25-2-3.25-3.48,0-2,1.6-3.61,4.24-3.61a6.16,6.16,0,0,1,3,.76l-.55,1.63a4.76,4.76,0,0,0-2.52-.71c-1.32,0-2.05.76-2.05,1.67s.73,1.48,2.33,2.09c2.13.81,3.23,1.87,3.23,3.7,0,2.16-1.68,3.68-4.6,3.68a7.06,7.06,0,0,1-3.45-.83Z"/><path class="cls-4" d="M345.24,404.84l-.18-1.55H345a4.58,4.58,0,0,1-3.76,1.83,3.5,3.5,0,0,1-3.76-3.53c0-3,2.64-4.6,7.39-4.57v-.25a2.54,2.54,0,0,0-2.79-2.85,6.09,6.09,0,0,0-3.2.92l-.51-1.48a7.65,7.65,0,0,1,4-1.09c3.76,0,4.67,2.57,4.67,5v4.59a17.62,17.62,0,0,0,.2,2.95Zm-.33-6.27c-2.44-.05-5.2.38-5.2,2.77a2,2,0,0,0,2.1,2.13,3.05,3.05,0,0,0,3-2.06,2.22,2.22,0,0,0,.13-.71Z"/><path class="cls-4" d="M350.67,395.88c0-1.27,0-2.31-.1-3.33h2l.13,2h.05a4.51,4.51,0,0,1,4.06-2.31c1.7,0,4.34,1,4.34,5.23v7.34H358.9v-7.08c0-2-.74-3.63-2.84-3.63a3.17,3.17,0,0,0-3,2.28,3.26,3.26,0,0,0-.15,1v7.39h-2.24Z"/><path class="cls-4" d="M375.38,386.81v14.86c0,1.09,0,2.33.1,3.17h-2l-.1-2.13h-.05a4.54,4.54,0,0,1-4.19,2.41c-3,0-5.25-2.51-5.25-6.25,0-4.08,2.51-6.6,5.51-6.6a4.11,4.11,0,0,1,3.7,1.88h.05v-7.34Zm-2.24,10.74a3.76,3.76,0,0,0-.1-.94,3.29,3.29,0,0,0-3.22-2.59c-2.31,0-3.68,2-3.68,4.75,0,2.49,1.21,4.55,3.63,4.55a3.35,3.35,0,0,0,3.27-2.67,3.68,3.68,0,0,0,.1-1Z"/><path class="cls-4" d="M387,389.1a1.38,1.38,0,0,1-2.76,0,1.36,1.36,0,0,1,1.39-1.4A1.33,1.33,0,0,1,387,389.1Zm-2.48,15.74V392.55h2.23v12.29Z"/><path class="cls-4" d="M390.41,395.88c0-1.27,0-2.31-.11-3.33h2l.13,2h0a4.52,4.52,0,0,1,4.07-2.31c1.7,0,4.34,1,4.34,5.23v7.34h-2.24v-7.08c0-2-.73-3.63-2.84-3.63a3.18,3.18,0,0,0-3,2.28,3.26,3.26,0,0,0-.15,1v7.39h-2.23Z"/><path class="cls-4" d="M405,392.55l2.41,6.91a28.92,28.92,0,0,1,1,3.15h.08c.28-1,.63-2,1-3.15l2.39-6.91h2.33l-4.82,12.29h-2.13l-4.68-12.29Z"/><path class="cls-4" d="M427.25,398.59c0,4.55-3.15,6.53-6.12,6.53-3.33,0-5.89-2.44-5.89-6.32,0-4.12,2.69-6.53,6.09-6.53S427.25,394.84,427.25,398.59Zm-9.75.13c0,2.69,1.55,4.72,3.73,4.72s3.73-2,3.73-4.77c0-2.08-1-4.72-3.68-4.72S417.5,396.39,417.5,398.72Z"/><path class="cls-4" d="M432.55,389.1a1.31,1.31,0,0,1-1.42,1.37,1.33,1.33,0,0,1-1.35-1.37,1.37,1.37,0,0,1,1.4-1.4A1.33,1.33,0,0,1,432.55,389.1Zm-2.49,15.74V392.55h2.24v12.29Z"/><path class="cls-4" d="M444.76,404.38a8.09,8.09,0,0,1-3.52.71c-3.71,0-6.12-2.51-6.12-6.27a6.24,6.24,0,0,1,6.6-6.52,7.57,7.57,0,0,1,3.1.63l-.51,1.73a5.13,5.13,0,0,0-2.59-.59c-2.82,0-4.34,2.09-4.34,4.65,0,2.84,1.82,4.6,4.26,4.6a6.31,6.31,0,0,0,2.74-.61Z"/><path class="cls-4" d="M448.47,399.1c0,3,2,4.27,4.22,4.27a8,8,0,0,0,3.4-.64l.38,1.6a9.89,9.89,0,0,1-4.09.76c-3.78,0-6-2.48-6-6.19s2.18-6.63,5.76-6.63c4,0,5.08,3.53,5.08,5.79a7.43,7.43,0,0,1-.08,1Zm6.55-1.6c0-1.42-.58-3.63-3.1-3.63-2.26,0-3.25,2.08-3.42,3.63Z"/><path class="cls-4" d="M459.64,402.56a5.88,5.88,0,0,0,2.95.88c1.62,0,2.38-.81,2.38-1.82s-.63-1.65-2.28-2.26c-2.21-.79-3.25-2-3.25-3.48,0-2,1.6-3.61,4.24-3.61a6.22,6.22,0,0,1,3,.76l-.56,1.63a4.72,4.72,0,0,0-2.51-.71c-1.32,0-2.06.76-2.06,1.67s.74,1.48,2.34,2.09c2.13.81,3.22,1.87,3.22,3.7,0,2.16-1.67,3.68-4.59,3.68a7.13,7.13,0,0,1-3.46-.83Z"/><path class="cls-4" d="M291.09,446.15a7.83,7.83,0,0,0,4,1.12c2.26,0,3.58-1.2,3.58-2.92s-.91-2.52-3.22-3.41c-2.8-1-4.52-2.43-4.52-4.85,0-2.66,2.2-4.64,5.53-4.64a7.66,7.66,0,0,1,3.78.84l-.61,1.8a6.72,6.72,0,0,0-3.25-.81c-2.33,0-3.22,1.39-3.22,2.56,0,1.6,1,2.39,3.4,3.3,2.9,1.12,4.37,2.51,4.37,5s-2,4.92-6,4.92a8.84,8.84,0,0,1-4.37-1.09Z"/><path class="cls-4" d="M310.71,448.84l-.17-1.55h-.08a4.56,4.56,0,0,1-3.76,1.83,3.49,3.49,0,0,1-3.75-3.53c0-3,2.64-4.6,7.38-4.57v-.25a2.54,2.54,0,0,0-2.79-2.85,6.11,6.11,0,0,0-3.2.92l-.51-1.48a7.65,7.65,0,0,1,4-1.09c3.76,0,4.67,2.57,4.67,5v4.59a16.55,16.55,0,0,0,.21,2.95Zm-.33-6.27c-2.43-.05-5.2.38-5.2,2.77a2,2,0,0,0,2.11,2.13,3.06,3.06,0,0,0,3-2.06,2.52,2.52,0,0,0,.12-.71Z"/><path class="cls-4" d="M316.15,430.81h2.23v18h-2.23Z"/><path class="cls-4" d="M323.38,443.1c.05,3,2,4.27,4.22,4.27a8,8,0,0,0,3.4-.64l.38,1.6a9.89,9.89,0,0,1-4.09.76c-3.78,0-6-2.48-6-6.19s2.18-6.63,5.76-6.63c4,0,5.08,3.53,5.08,5.79a10,10,0,0,1-.07,1Zm6.55-1.6c0-1.42-.58-3.63-3.09-3.63-2.26,0-3.25,2.08-3.43,3.63Z"/><path class="cls-4" d="M334.55,446.56a5.88,5.88,0,0,0,2.95.88c1.62,0,2.39-.81,2.39-1.82s-.64-1.65-2.29-2.26c-2.21-.79-3.25-2-3.25-3.48,0-2,1.6-3.61,4.24-3.61a6.19,6.19,0,0,1,3,.76l-.56,1.63a4.72,4.72,0,0,0-2.51-.71c-1.32,0-2.06.76-2.06,1.67s.74,1.48,2.34,2.09c2.13.81,3.22,1.87,3.22,3.7,0,2.16-1.67,3.68-4.59,3.68a7.13,7.13,0,0,1-3.46-.83Z"/><path class="cls-4" d="M357.1,448.84l-.18-1.55h-.08a4.54,4.54,0,0,1-3.75,1.83,3.5,3.5,0,0,1-3.76-3.53c0-3,2.64-4.6,7.39-4.57v-.25a2.54,2.54,0,0,0-2.8-2.85,6.08,6.08,0,0,0-3.19.92l-.51-1.48a7.61,7.61,0,0,1,4-1.09c3.76,0,4.68,2.57,4.68,5v4.59a17.62,17.62,0,0,0,.2,2.95Zm-.33-6.27c-2.44-.05-5.21.38-5.21,2.77a2,2,0,0,0,2.11,2.13,3.05,3.05,0,0,0,3-2.06,2.22,2.22,0,0,0,.13-.71Z"/><path class="cls-4" d="M362.53,439.88c0-1.27,0-2.31-.1-3.33h2l.13,2h0a4.51,4.51,0,0,1,4.06-2.31c1.7,0,4.34,1,4.34,5.23v7.34h-2.23v-7.08c0-2-.74-3.63-2.85-3.63a3.17,3.17,0,0,0-3,2.28,3.26,3.26,0,0,0-.15,1v7.39h-2.24Z"/><path class="cls-4" d="M387.24,430.81v14.86c0,1.09,0,2.33.1,3.17h-2l-.1-2.13h-.05a4.56,4.56,0,0,1-4.19,2.41c-3,0-5.26-2.51-5.26-6.25,0-4.08,2.52-6.6,5.51-6.6a4.12,4.12,0,0,1,3.71,1.88H385v-7.34ZM385,441.55a3.76,3.76,0,0,0-.1-.94,3.29,3.29,0,0,0-3.23-2.59c-2.31,0-3.68,2-3.68,4.75,0,2.49,1.22,4.55,3.63,4.55a3.36,3.36,0,0,0,3.28-2.67,3.68,3.68,0,0,0,.1-1Z"/><path class="cls-4" d="M396,446.56a5.87,5.87,0,0,0,2.94.88c1.63,0,2.39-.81,2.39-1.82s-.63-1.65-2.28-2.26c-2.21-.79-3.25-2-3.25-3.48,0-2,1.59-3.61,4.24-3.61a6.22,6.22,0,0,1,3,.76l-.56,1.63A4.73,4.73,0,0,0,400,438c-1.32,0-2.05.76-2.05,1.67s.73,1.48,2.33,2.09c2.14.81,3.23,1.87,3.23,3.7,0,2.16-1.68,3.68-4.6,3.68a7.09,7.09,0,0,1-3.45-.83Z"/><path class="cls-4" d="M409.07,433v3.53h3.2v1.7h-3.2v6.63c0,1.52.43,2.39,1.67,2.39a4.76,4.76,0,0,0,1.3-.16l.1,1.68a5.44,5.44,0,0,1-2,.3,3.09,3.09,0,0,1-2.41-.94,4.51,4.51,0,0,1-.87-3.19v-6.71H405v-1.7h1.9v-2.94Z"/><path class="cls-4" d="M425.75,442.59c0,4.55-3.15,6.53-6.12,6.53-3.33,0-5.89-2.44-5.89-6.32,0-4.12,2.69-6.53,6.09-6.53S425.75,438.84,425.75,442.59Zm-9.75.13c0,2.69,1.55,4.72,3.73,4.72s3.73-2,3.73-4.77c0-2.08-1-4.72-3.68-4.72S416,440.39,416,442.72Z"/><path class="cls-4" d="M437.33,448.38a8.18,8.18,0,0,1-3.53.71c-3.71,0-6.12-2.51-6.12-6.27a6.24,6.24,0,0,1,6.6-6.52,7.57,7.57,0,0,1,3.1.63l-.51,1.73a5.1,5.1,0,0,0-2.59-.59c-2.82,0-4.34,2.09-4.34,4.65,0,2.84,1.83,4.6,4.26,4.6a6.39,6.39,0,0,0,2.75-.61Z"/><path class="cls-4" d="M442.15,442.19h.05c.3-.43.74-1,1.09-1.4l3.61-4.24h2.69l-4.75,5.05,5.41,7.24h-2.72L443.29,443l-1.14,1.27v4.62h-2.21v-18h2.21Z"/><path class="cls-4" d="M457.23,440.39c0-1.45,0-2.7-.1-3.84h1.95l.08,2.41h.1a3.68,3.68,0,0,1,3.4-2.69,2.49,2.49,0,0,1,.64.08v2.11a2.91,2.91,0,0,0-.76-.08,3.13,3.13,0,0,0-3,2.87,6.33,6.33,0,0,0-.1,1v6.55h-2.21Z"/><path class="cls-4" d="M466.52,443.1c.05,3,2,4.27,4.22,4.27a8,8,0,0,0,3.4-.64l.38,1.6a9.89,9.89,0,0,1-4.09.76c-3.78,0-6-2.48-6-6.19s2.18-6.63,5.76-6.63c4,0,5.08,3.53,5.08,5.79a7.43,7.43,0,0,1-.08,1Zm6.55-1.6c0-1.42-.58-3.63-3.1-3.63-2.26,0-3.25,2.08-3.42,3.63Z"/><path class="cls-4" d="M478,440.56c0-1.57-.05-2.84-.1-4h2l.1,2.11h.05a4.84,4.84,0,0,1,4.37-2.39c3,0,5.21,2.52,5.21,6.25,0,4.42-2.7,6.6-5.59,6.6a4.29,4.29,0,0,1-3.78-1.93h-.05v6.68H478Zm2.21,3.28a5.07,5.07,0,0,0,.1.91,3.44,3.44,0,0,0,3.35,2.62c2.36,0,3.73-1.93,3.73-4.75,0-2.46-1.29-4.57-3.65-4.57a3.56,3.56,0,0,0-3.38,2.77,3.47,3.47,0,0,0-.15.91Z"/><path class="cls-4" d="M503.56,442.59c0,4.55-3.15,6.53-6.12,6.53-3.32,0-5.89-2.44-5.89-6.32,0-4.12,2.69-6.53,6.1-6.53S503.56,438.84,503.56,442.59Zm-9.75.13c0,2.69,1.55,4.72,3.74,4.72s3.73-2,3.73-4.77c0-2.08-1-4.72-3.68-4.72S493.81,440.39,493.81,442.72Z"/><path class="cls-4" d="M506.38,440.39c0-1.45,0-2.7-.1-3.84h2l.08,2.41h.1a3.69,3.69,0,0,1,3.4-2.69,2.43,2.43,0,0,1,.64.08v2.11a2.91,2.91,0,0,0-.76-.08,3.13,3.13,0,0,0-3,2.87,6.33,6.33,0,0,0-.1,1v6.55h-2.21Z"/><path class="cls-4" d="M518,433v3.53h3.2v1.7H518v6.63c0,1.52.43,2.39,1.68,2.39a4.73,4.73,0,0,0,1.29-.16l.11,1.68a5.48,5.48,0,0,1-2,.3,3.11,3.11,0,0,1-2.42-.94,4.56,4.56,0,0,1-.86-3.19v-6.71h-1.9v-1.7h1.9v-2.94Z"/><path class="cls-4" d="M523.39,446.56a5.88,5.88,0,0,0,3,.88c1.62,0,2.38-.81,2.38-1.82s-.63-1.65-2.28-2.26c-2.21-.79-3.25-2-3.25-3.48,0-2,1.6-3.61,4.24-3.61a6.22,6.22,0,0,1,3,.76l-.56,1.63a4.72,4.72,0,0,0-2.51-.71c-1.32,0-2.06.76-2.06,1.67s.74,1.48,2.34,2.09c2.13.81,3.22,1.87,3.22,3.7,0,2.16-1.68,3.68-4.6,3.68a7.12,7.12,0,0,1-3.45-.83Z"/><path class="cls-4" d="M295.15,492.84l-5.58-17.11H292l2.67,8.43c.73,2.31,1.37,4.39,1.83,6.4h.05c.48-2,1.19-4.14,1.95-6.38l2.9-8.45h2.36l-6.12,17.11Z"/><path class="cls-4" d="M305.89,487.1c.05,3,2,4.27,4.22,4.27a8,8,0,0,0,3.4-.64l.38,1.6a9.89,9.89,0,0,1-4.09.76c-3.78,0-6-2.48-6-6.19s2.18-6.63,5.76-6.63c4,0,5.08,3.53,5.08,5.79a7.43,7.43,0,0,1-.08,1Zm6.55-1.6c0-1.42-.58-3.63-3.1-3.63-2.26,0-3.25,2.08-3.42,3.63Z"/><path class="cls-4" d="M317.37,474.81h2.23v7.67h0a4.23,4.23,0,0,1,1.6-1.57,4.62,4.62,0,0,1,2.29-.64c1.65,0,4.29,1,4.29,5.26v7.31h-2.24v-7.06c0-2-.73-3.65-2.84-3.65a3.21,3.21,0,0,0-3,2.23,2.82,2.82,0,0,0-.15,1.07v7.41h-2.23Z"/><path class="cls-4" d="M334,477.1a1.39,1.39,0,0,1-2.77,0,1.36,1.36,0,0,1,1.39-1.4A1.33,1.33,0,0,1,334,477.1Zm-2.49,15.74V480.55h2.23v12.29Z"/><path class="cls-4" d="M346.16,492.38a8.18,8.18,0,0,1-3.53.71c-3.71,0-6.12-2.51-6.12-6.27a6.24,6.24,0,0,1,6.6-6.52,7.57,7.57,0,0,1,3.1.63l-.51,1.73a5.1,5.1,0,0,0-2.59-.59c-2.82,0-4.34,2.09-4.34,4.65,0,2.84,1.83,4.6,4.26,4.6a6.39,6.39,0,0,0,2.75-.61Z"/><path class="cls-4" d="M348.77,474.81H351v18h-2.24Z"/><path class="cls-4" d="M356,487.1c.05,3,2,4.27,4.21,4.27a8,8,0,0,0,3.4-.64l.38,1.6a9.83,9.83,0,0,1-4.08.76c-3.79,0-6.05-2.48-6.05-6.19s2.19-6.63,5.77-6.63c4,0,5.08,3.53,5.08,5.79a9.4,9.4,0,0,1-.08,1Zm6.55-1.6c0-1.42-.59-3.63-3.1-3.63-2.26,0-3.25,2.08-3.43,3.63Z"/><path class="cls-4" d="M372.56,490.56a5.87,5.87,0,0,0,2.94.88c1.63,0,2.39-.81,2.39-1.82s-.63-1.65-2.28-2.26c-2.21-.79-3.25-2-3.25-3.48,0-2,1.6-3.61,4.24-3.61a6.22,6.22,0,0,1,3,.76l-.56,1.63a4.72,4.72,0,0,0-2.51-.71c-1.32,0-2.06.76-2.06,1.67s.74,1.48,2.34,2.09c2.13.81,3.22,1.87,3.22,3.7,0,2.16-1.68,3.68-4.6,3.68a7.09,7.09,0,0,1-3.45-.83Z"/><path class="cls-4" d="M384.16,487.1c0,3,2,4.27,4.22,4.27a8,8,0,0,0,3.4-.64l.38,1.6a9.89,9.89,0,0,1-4.09.76c-3.78,0-6-2.48-6-6.19s2.18-6.63,5.76-6.63c4,0,5.08,3.53,5.08,5.79a7.43,7.43,0,0,1-.08,1Zm6.55-1.6c0-1.42-.58-3.63-3.09-3.63-2.26,0-3.25,2.08-3.43,3.63Z"/><path class="cls-4" d="M395.64,484.39c0-1.45,0-2.7-.1-3.84h1.95l.08,2.41h.1a3.68,3.68,0,0,1,3.4-2.69,2.49,2.49,0,0,1,.64.08v2.11a2.94,2.94,0,0,0-.77-.08,3.13,3.13,0,0,0-3,2.87,6.33,6.33,0,0,0-.1,1v6.55h-2.21Z"/><path class="cls-4" d="M405.44,480.55l2.41,6.91a28.92,28.92,0,0,1,1,3.15h.08c.28-1,.63-2,1-3.15l2.38-6.91h2.34l-4.82,12.29h-2.14l-4.67-12.29Z"/><path class="cls-4" d="M419.27,477.1a1.31,1.31,0,0,1-1.42,1.37,1.33,1.33,0,0,1-1.34-1.37,1.36,1.36,0,0,1,1.39-1.4A1.33,1.33,0,0,1,419.27,477.1Zm-2.48,15.74V480.55H419v12.29Z"/><path class="cls-4" d="M431.49,492.38a8.18,8.18,0,0,1-3.53.71c-3.71,0-6.12-2.51-6.12-6.27a6.24,6.24,0,0,1,6.6-6.52,7.57,7.57,0,0,1,3.1.63l-.51,1.73a5.1,5.1,0,0,0-2.59-.59c-2.82,0-4.34,2.09-4.34,4.65,0,2.84,1.83,4.6,4.26,4.6a6.39,6.39,0,0,0,2.75-.61Z"/><path class="cls-4" d="M436.59,477.1a1.39,1.39,0,0,1-2.77,0,1.37,1.37,0,0,1,1.4-1.4A1.33,1.33,0,0,1,436.59,477.1Zm-2.49,15.74V480.55h2.23v12.29Z"/><path class="cls-4" d="M440,483.88c0-1.27,0-2.31-.1-3.33h2l.13,2h.05a4.51,4.51,0,0,1,4.06-2.31c1.7,0,4.34,1,4.34,5.23v7.34h-2.23v-7.08c0-2-.74-3.63-2.85-3.63a3.17,3.17,0,0,0-3,2.28,3.26,3.26,0,0,0-.15,1v7.39H440Z"/><path class="cls-4" d="M464.72,480.55c-.05.89-.1,1.88-.1,3.38v7.13c0,2.82-.56,4.55-1.75,5.61a6.52,6.52,0,0,1-4.47,1.48,7.92,7.92,0,0,1-4.09-1l.56-1.7a6.89,6.89,0,0,0,3.6,1c2.29,0,4-1.19,4-4.29v-1.37h-.05a4.36,4.36,0,0,1-3.91,2.06c-3,0-5.23-2.59-5.23-6,0-4.17,2.72-6.53,5.54-6.53a4.09,4.09,0,0,1,3.83,2.13h.05l.1-1.85Zm-2.31,4.85a3.17,3.17,0,0,0-.13-1,3.22,3.22,0,0,0-3.12-2.37c-2.13,0-3.66,1.81-3.66,4.65,0,2.41,1.22,4.42,3.63,4.42a3.27,3.27,0,0,0,3.1-2.29,3.78,3.78,0,0,0,.18-1.19Z"/><path class="cls-4" d="M473.7,484.39c0-1.45,0-2.7-.1-3.84h2l.07,2.41h.11a3.67,3.67,0,0,1,3.4-2.69,2.41,2.41,0,0,1,.63.08v2.11a2.86,2.86,0,0,0-.76-.08,3.13,3.13,0,0,0-3,2.87,5.35,5.35,0,0,0-.11,1v6.55H473.7Z"/><path class="cls-4" d="M483,487.1c.05,3,2,4.27,4.21,4.27a8,8,0,0,0,3.4-.64l.38,1.6a9.83,9.83,0,0,1-4.08.76c-3.79,0-6.05-2.48-6.05-6.19s2.19-6.63,5.77-6.63c4,0,5.08,3.53,5.08,5.79a7.43,7.43,0,0,1-.08,1Zm6.55-1.6c0-1.42-.59-3.63-3.1-3.63-2.26,0-3.25,2.08-3.43,3.63Z"/><path class="cls-4" d="M494.47,483.88c0-1.27,0-2.31-.1-3.33h2l.1,2h.07a4.24,4.24,0,0,1,3.86-2.26,3.63,3.63,0,0,1,3.48,2.46h.05a5.16,5.16,0,0,1,1.37-1.59,4.2,4.2,0,0,1,2.72-.87c1.63,0,4,1.07,4,5.33v7.24h-2.19v-7c0-2.36-.86-3.78-2.66-3.78a2.89,2.89,0,0,0-2.64,2,3.75,3.75,0,0,0-.18,1.12v7.59h-2.18v-7.36c0-2-.87-3.38-2.57-3.38a3.06,3.06,0,0,0-2.77,2.23,3.29,3.29,0,0,0-.17,1.1v7.41h-2.19Z"/><path class="cls-4" d="M518.13,477.1a1.31,1.31,0,0,1-1.42,1.37,1.33,1.33,0,0,1-1.34-1.37,1.36,1.36,0,0,1,1.39-1.4A1.33,1.33,0,0,1,518.13,477.1Zm-2.48,15.74V480.55h2.23v12.29Z"/><path class="cls-4" d="M521.59,483.88c0-1.27,0-2.31-.1-3.33h2l.12,2h0a4.52,4.52,0,0,1,4.07-2.31c1.7,0,4.34,1,4.34,5.23v7.34h-2.24v-7.08c0-2-.73-3.63-2.84-3.63a3.18,3.18,0,0,0-3,2.28,3.26,3.26,0,0,0-.15,1v7.39h-2.23Z"/><path class="cls-4" d="M546.29,474.81v14.86c0,1.09,0,2.33.1,3.17h-2l-.11-2.13h0a4.54,4.54,0,0,1-4.19,2.41c-3,0-5.25-2.51-5.25-6.25,0-4.08,2.51-6.6,5.51-6.6a4.12,4.12,0,0,1,3.71,1.88h0v-7.34Zm-2.23,10.74a3.77,3.77,0,0,0-.11-.94,3.28,3.28,0,0,0-3.22-2.59c-2.31,0-3.68,2-3.68,4.75,0,2.49,1.22,4.55,3.63,4.55a3.35,3.35,0,0,0,3.27-2.67,3.67,3.67,0,0,0,.11-1Z"/><path class="cls-4" d="M551.24,487.1c0,3,2,4.27,4.22,4.27a8,8,0,0,0,3.4-.64l.38,1.6a9.89,9.89,0,0,1-4.09.76c-3.78,0-6-2.48-6-6.19s2.18-6.63,5.76-6.63c4,0,5.08,3.53,5.08,5.79a7.43,7.43,0,0,1-.08,1Zm6.55-1.6c0-1.42-.58-3.63-3.1-3.63-2.26,0-3.25,2.08-3.42,3.63Z"/><path class="cls-4" d="M562.72,484.39c0-1.45,0-2.7-.1-3.84h2l.08,2.41h.1a3.68,3.68,0,0,1,3.4-2.69,2.41,2.41,0,0,1,.63.08v2.11a2.81,2.81,0,0,0-.76-.08,3.13,3.13,0,0,0-3,2.87,6.33,6.33,0,0,0-.1,1v6.55h-2.21Z"/><path class="cls-4" d="M570.71,490.56a5.88,5.88,0,0,0,2.95.88c1.62,0,2.39-.81,2.39-1.82s-.64-1.65-2.29-2.26c-2.21-.79-3.25-2-3.25-3.48,0-2,1.6-3.61,4.24-3.61a6.19,6.19,0,0,1,3,.76l-.56,1.63a4.72,4.72,0,0,0-2.51-.71c-1.32,0-2.06.76-2.06,1.67s.74,1.48,2.34,2.09c2.13.81,3.22,1.87,3.22,3.7,0,2.16-1.67,3.68-4.59,3.68a7.06,7.06,0,0,1-3.45-.83Z"/><path class="cls-4" d="M117.17,23.14l1.26.24a8,8,0,1,1-2.41-.07,4.5,4.5,0,0,0,.6-.17ZM111.35,31a5.59,5.59,0,1,0,5.81-5.46A5.63,5.63,0,0,0,111.35,31Z"/><path class="cls-4" d="M122.46,64.13c-.24.72-.26,1.54-.64,1.78A11.91,11.91,0,0,1,119,67c-.17,0-.46-.16-.63-.32-1.08-.94-1.79-.92-3,0a1.29,1.29,0,0,1-1,.28,6.58,6.58,0,0,1-2.28-.94c-.43-.35-.52-1.13-.83-1.88h-8.47c-.72,0-1.25-.33-1.25-1.07a104.56,104.56,0,0,1,.2-11.75,10.73,10.73,0,0,1,10.29-9.47,79.5,79.5,0,0,1,9.64,0c6.11.37,10.47,5.19,10.55,11.46,0,3.06,0,6.12,0,9.18,0,1.34-.33,1.65-1.64,1.65C127.87,64.14,125.09,64.13,122.46,64.13Zm-14.37-2.37a6.31,6.31,0,0,1-.43-1.44,2,2,0,0,1,.29-1.26,1.74,1.74,0,0,0,0-2.7,1.69,1.69,0,0,1-.3-1.25,5.85,5.85,0,0,1,.79-2,1.77,1.77,0,0,1,1.18-.68,2,2,0,0,0,2-2,1.82,1.82,0,0,1,.67-1.18,8.83,8.83,0,0,1,1.77-.79,1.32,1.32,0,0,1,1.64.47,1.73,1.73,0,0,0,2.46,0,1.33,1.33,0,0,1,1.64-.46,8.3,8.3,0,0,1,1.77.79,1.77,1.77,0,0,1,.68,1.17,2,2,0,0,0,2,2,2,2,0,0,1,1.24.74,7.24,7.24,0,0,1,.73,1.68,1.37,1.37,0,0,1-.44,1.66,1.65,1.65,0,0,0,0,2.25,1.44,1.44,0,0,1,.46,1.81c-.14.35-.23.72-.35,1.13H130c0-3,0-5.93,0-8.85a9,9,0,0,0-8.48-8.78c-3-.11-6.11-.1-9.17,0A8.7,8.7,0,0,0,104,51.73c-.28,3.25-.12,6.54-.15,9.81,0,.05.05.11.11.22Zm1.91-1c1.49-.59,1.92.57,2.7,1.22s1.5,1.38,1.29,2.49a5.34,5.34,0,0,1,6.05.15c-.6-1.45.46-1.94,1.16-2.7s1.34-1.58,2.57-1.29a4.85,4.85,0,0,1-.13-5.56,5.09,5.09,0,0,1-3.9-4,5.24,5.24,0,0,1-5.61,0A5.12,5.12,0,0,1,110.18,55,5,5,0,0,1,110,60.72Z"/><path class="cls-4" d="M93.05,99v3.91l-9.14-5.38,9.16-5.18v4.25h47.69v-4l9.17,5.4-9.17,5.19V99Z"/><path class="cls-4" d="M138.28,91.77c-2.47,0-4.94,0-7.41,0-.79,0-1.41-.28-1.42-1.1a50.76,50.76,0,0,1,.16-6.65A6.4,6.4,0,0,1,136,78.6h4.54A6.57,6.57,0,0,1,147.12,85c0,1.82,0,3.64,0,5.46,0,1-.39,1.35-1.44,1.36C143.22,91.78,140.75,91.77,138.28,91.77Zm6.56-2.37c0-1.37,0-2.69,0-4a4.37,4.37,0,0,0-4.31-4.52c-1.47-.06-3-.07-4.44,0-2,.1-3.58,1-4,2.95a35.23,35.23,0,0,0-.42,5.58Z"/><path class="cls-4" d="M116.84,91.77h-7.22c-1.2,0-1.53-.33-1.53-1.54,0-1.66,0-3.33,0-5a6.59,6.59,0,0,1,6.64-6.63h4.45a6.54,6.54,0,0,1,6.54,6.15c.1,1.84.08,3.7.07,5.55,0,1.12-.4,1.47-1.54,1.47Zm6.64-2.39V85.5a4.43,4.43,0,0,0-4.58-4.64c-1.36,0-2.72,0-4.08,0a4.31,4.31,0,0,0-4.39,3.85,42.66,42.66,0,0,0,0,4.67Z"/><path class="cls-4" d="M95.57,91.77H88.25c-1.22,0-1.52-.31-1.52-1.53,0-1.73,0-3.46,0-5.19a6.54,6.54,0,0,1,6.44-6.44,41.27,41.27,0,0,1,6,.19,6.32,6.32,0,0,1,5.2,6c.07,1.84,0,3.7,0,5.55,0,1-.39,1.37-1.42,1.38C100.51,91.78,98,91.77,95.57,91.77ZM89,89.38h13.12c0-1.35,0-2.64,0-3.94a4.42,4.42,0,0,0-4.37-4.57c-1.49-.06-3-.06-4.45,0a4.36,4.36,0,0,0-4.28,4C88.91,86.33,89,87.81,89,89.38Z"/><path class="cls-4" d="M116.91,68.55a4.79,4.79,0,1,1-4.77,4.75A4.77,4.77,0,0,1,116.91,68.55Zm2.49,4.74a2.52,2.52,0,0,0-2.49-2.47,2.59,2.59,0,0,0-2.49,2.5,2.53,2.53,0,0,0,2.56,2.5A2.49,2.49,0,0,0,119.4,73.29Z"/><path class="cls-4" d="M138.4,68.55a4.79,4.79,0,1,1-4.9,4.72A4.8,4.8,0,0,1,138.4,68.55Zm2.36,4.83a2.47,2.47,0,1,0-2.49,2.44A2.47,2.47,0,0,0,140.76,73.38Z"/><path class="cls-4" d="M100.33,73.37a4.76,4.76,0,0,1-4.78,4.76,4.84,4.84,0,0,1-4.8-4.84,4.79,4.79,0,0,1,9.58.08Zm-4.76,2.45a2.5,2.5,0,1,0-2.51-2.45A2.51,2.51,0,0,0,95.57,75.82Z"/><path class="cls-4" d="M122,57.71a5.06,5.06,0,0,1-5.06,5.07A5.08,5.08,0,1,1,122,57.71Zm-5,2.77a2.89,2.89,0,0,0,2.81-2.75,2.84,2.84,0,0,0-5.67,0A2.87,2.87,0,0,0,117,60.48Z"/><path class="cls-4" d="M137.59,201.14l.14,2.47H93.92v74.85h48.81V265.29h12.79V218.47h-4.37l5.67-9.81.89,1.53c1.39,2.39,2.76,4.78,4.15,7.16a7.57,7.57,0,0,0,.61.79v.41h-4.39v1.37q0,23.4,0,46.8a2.22,2.22,0,0,1-.7,1.73q-4.17,4.23-8.29,8.53c-1.31,1.36-2.56,2.77-3.84,4.16H91.38v-80Zm7.69,66.62v9.61l9.29-9.61Z"/><path class="cls-4" d="M106.25,223v17h4.37L105,249.76l-5.67-9.82h4.41v-19.5h25V214.7h18v13.9H128.71V223Zm25-5.81v9h13v-9Z"/><path class="cls-4" d="M136.48,254.55V243.86h-4.42l5.67-9.83,5.65,9.79H139c0,.37-.08.67-.08,1,0,3,0,5.94,0,8.91a1.06,1.06,0,0,0,.82,1.19,5.56,5.56,0,0,1-2.09,10.75,5.57,5.57,0,0,1-1.94-10.78Zm1.22,8.59a3.12,3.12,0,0,0,3.17-3,3.23,3.23,0,0,0-3.06-3.18,3.19,3.19,0,0,0-3.2,3.13A3.08,3.08,0,0,0,137.7,263.14Z"/><path class="cls-4" d="M116.89,258.79v-4.4l9.84,5.67-9.81,5.66v-4.44c-1.81,0-3.5,0-5.17,0-.25,0-.55.5-.69.82a5.62,5.62,0,0,1-5.6,3.48,5.57,5.57,0,1,1,5.52-7.71,1.16,1.16,0,0,0,1.33.9C113.79,258.75,115.27,258.79,116.89,258.79Zm-11.08,4.35a3.11,3.11,0,0,0,3.18-3,3.22,3.22,0,0,0-3.14-3.2,3.16,3.16,0,0,0-3.1,3.11A3.06,3.06,0,0,0,105.81,263.14Z"/><path class="cls-4" d="M153.55,382.6c-.07.22-.16.43-.21.65a4.66,4.66,0,0,1-2.51,3.42c-1.37.57-1.47,1.43-1.46,2.67q0,25.4,0,50.8a2.06,2.06,0,0,1-.53,1.27q-6.56,6.84-13.18,13.61a2.25,2.25,0,0,1-1.43.65q-22,0-44,0c-.29,0-.58,0-.92,0v-75h33.86v-5l11,6.33-10.91,6.31v-4.88H92.05V453h40.28v-14.8h14.4V388.41c0-.59,0-1-.73-1.28a5.39,5.39,0,0,1-3.41-6.26,5.5,5.5,0,0,1,10.77.09,2.53,2.53,0,0,0,.19.45ZM135,451.72,145.43,441H135Zm15.71-69.67a2.78,2.78,0,0,0-5.56-.09,2.78,2.78,0,1,0,5.56.09Z"/><path class="cls-4" d="M98.54,412.45v-3.2h41.79v3.2Z"/><path class="cls-4" d="M98.56,395.22h41.78v3.16H98.56Z"/><path class="cls-4" d="M140.36,402.22v3.17H98.54v-3.17Z"/><path class="cls-4" d="M98.54,419.43v-3.11h41.8v3.11Z"/><path class="cls-4" d="M98.54,426.45v-3.16h41.82v3.16Z"/><path class="cls-4" d="M140.32,433.5H98.56v-3.15h41.76Z"/></svg>