<svg id="Layer_1" data-name="Layer 1" xmlns="http://www.w3.org/2000/svg" viewBox="0 0 689.56 445.7"><defs><style>.cls-1,.cls-2{fill:none;}.cls-1{stroke:#061838;stroke-miterlimit:10;}.cls-3{fill:#64b5f6;}.cls-4{fill:#90caf9;}.cls-5{fill:#1e88e5;}.cls-6{fill:#2196f3;}.cls-7{fill:#42a5f5;}.cls-8{fill:#061838;}.cls-9{fill:#fff;}</style></defs><title>Artboard 1</title><polyline class="cls-1" points="344.57 63.6 414.81 14.36 688.31 14.36"/><polyline class="cls-1" points="429.31 325.91 478.45 383.6 688.31 383.6"/><polyline class="cls-1" points="258.31 325.06 211.11 383.6 1.25 383.6"/><line class="cls-1" x1="481.06" y1="164.6" x2="688.31" y2="164.6"/><line class="cls-1" x1="1.25" y1="163.37" x2="208.5" y2="163.37"/><polyline class="cls-1" points="344.99 63.89 274.75 14.66 1.25 14.66"/><polygon class="cls-2" points="344.57 93.17 234.51 173.13 276.55 302.51 412.58 302.51 454.62 173.13 344.57 93.17"/><path d="M29.56,60.05a5.22,5.22,0,0,1-2.14.39,3.77,3.77,0,0,1-4-4.09,4,4,0,0,1,4.22-4.25,4.4,4.4,0,0,1,1.92.36l-.25.85A3.85,3.85,0,0,0,27.69,53a3,3,0,0,0-3.16,3.33,2.94,2.94,0,0,0,3.11,3.25,4.08,4.08,0,0,0,1.7-.34Z"/><path d="M36,57.37a2.84,2.84,0,0,1-2.89,3.08,2.76,2.76,0,0,1-2.78-3,2.83,2.83,0,0,1,2.88-3.08A2.74,2.74,0,0,1,36,57.37Zm-4.6.05c0,1.28.73,2.24,1.76,2.24s1.76-.95,1.76-2.26c0-1-.49-2.23-1.74-2.23S31.35,56.32,31.35,57.42Z"/><path d="M42.29,54.51c0,.42,0,.89,0,1.6v3.37a3.32,3.32,0,0,1-.83,2.65,3.11,3.11,0,0,1-2.11.69,3.78,3.78,0,0,1-1.93-.48l.27-.8a3.25,3.25,0,0,0,1.7.45c1.08,0,1.87-.56,1.87-2v-.65h0a2.08,2.08,0,0,1-1.85,1,2.59,2.59,0,0,1-2.47-2.83,2.78,2.78,0,0,1,2.61-3.08,1.92,1.92,0,0,1,1.81,1h0l0-.88ZM41.2,56.8a1.47,1.47,0,0,0-.06-.48,1.52,1.52,0,0,0-1.48-1.11c-1,0-1.72.85-1.72,2.19,0,1.14.57,2.09,1.71,2.09a1.53,1.53,0,0,0,1.46-1.08,1.84,1.84,0,0,0,.09-.57Z"/><path d="M43.92,56.08c0-.6,0-1.09,0-1.57h.93l.06,1h0a2.12,2.12,0,0,1,1.91-1.09c.81,0,2.06.48,2.06,2.47v3.47H47.81V57c0-.94-.35-1.72-1.34-1.72a1.51,1.51,0,0,0-1.42,1.08,1.55,1.55,0,0,0-.07.5v3.49H43.92Z"/><path d="M51.76,52.88a.62.62,0,0,1-.67.65.63.63,0,0,1-.64-.65.65.65,0,0,1,.66-.66A.63.63,0,0,1,51.76,52.88Zm-1.18,7.44V54.51h1.06v5.81Z"/><path d="M54.66,52.84v1.67h1.51v.8H54.66v3.13c0,.72.21,1.13.79,1.13a2.29,2.29,0,0,0,.62-.07l0,.79a2.39,2.39,0,0,1-.93.15A1.46,1.46,0,0,1,54,60a2.15,2.15,0,0,1-.41-1.51V55.31h-.9v-.8h.9V53.12Z"/><path d="M58.54,52.88a.62.62,0,0,1-.67.65.63.63,0,0,1-.64-.65.65.65,0,0,1,.66-.66A.63.63,0,0,1,58.54,52.88Zm-1.18,7.44V54.51h1.06v5.81Z"/><path d="M60.58,54.51l1.14,3.26c.19.53.35,1,.47,1.49h0c.13-.48.3-1,.49-1.49l1.13-3.26H65l-2.28,5.81h-1l-2.21-5.81Z"/><path d="M66.41,57.61a1.86,1.86,0,0,0,2,2,3.8,3.8,0,0,0,1.61-.3l.18.76a4.84,4.84,0,0,1-1.93.36,2.7,2.7,0,0,1-2.86-2.93c0-1.75,1-3.13,2.73-3.13a2.46,2.46,0,0,1,2.4,2.73,4.36,4.36,0,0,1,0,.5Zm3.1-.76A1.51,1.51,0,0,0,68,55.13a1.77,1.77,0,0,0-1.62,1.72Z"/><path d="M78.52,60.1a4,4,0,0,1-1.67.34,2.76,2.76,0,0,1-2.89-3,3,3,0,0,1,3.12-3.08,3.6,3.6,0,0,1,1.46.3l-.24.82a2.37,2.37,0,0,0-1.22-.28,2.19,2.19,0,0,0,0,4.37,3,3,0,0,0,1.3-.29Z"/><path d="M79.76,51.8h1v3.62h0a1.91,1.91,0,0,1,.75-.74,2.16,2.16,0,0,1,1.08-.3c.78,0,2,.48,2,2.48v3.46H83.64V57c0-.93-.35-1.73-1.34-1.73a1.51,1.51,0,0,0-1.42,1.06,1.26,1.26,0,0,0-.07.5v3.51h-1Z"/><path d="M89.63,60.32l-.08-.74h0a2.15,2.15,0,0,1-1.77.87A1.66,1.66,0,0,1,86,58.78c0-1.4,1.25-2.17,3.49-2.16V56.5a1.19,1.19,0,0,0-1.32-1.34,2.93,2.93,0,0,0-1.51.43l-.24-.7a3.63,3.63,0,0,1,1.91-.51c1.77,0,2.2,1.21,2.2,2.37v2.17a8.44,8.44,0,0,0,.1,1.4Zm-.16-3c-1.15,0-2.45.18-2.45,1.31a.93.93,0,0,0,1,1,1.43,1.43,0,0,0,1.4-1,1,1,0,0,0,.06-.34Z"/><path d="M93.42,52.84v1.67h1.51v.8H93.42v3.13c0,.72.21,1.13.8,1.13a2.26,2.26,0,0,0,.61-.07l0,.79a2.39,2.39,0,0,1-.93.15A1.46,1.46,0,0,1,92.8,60a2.15,2.15,0,0,1-.41-1.51V55.31h-.9v-.8h.9V53.12Z"/><path d="M96.08,60.32c0-.4,0-1,0-1.5v-7h1v3.65h0a2.15,2.15,0,0,1,2-1.07c1.44,0,2.46,1.2,2.45,3,0,2.08-1.31,3.11-2.61,3.11a2.07,2.07,0,0,1-1.94-1.09h0l-.05,1ZM97.17,58a1.58,1.58,0,0,0,0,.38,1.63,1.63,0,0,0,1.58,1.24c1.1,0,1.76-.9,1.76-2.23,0-1.17-.6-2.16-1.73-2.16a1.67,1.67,0,0,0-1.6,1.29,1.8,1.8,0,0,0-.06.44Z"/><path d="M108.2,57.37a2.84,2.84,0,0,1-2.89,3.08,2.76,2.76,0,0,1-2.78-3,2.83,2.83,0,0,1,2.88-3.08A2.74,2.74,0,0,1,108.2,57.37Zm-4.6.05c0,1.28.73,2.24,1.76,2.24s1.77-.95,1.77-2.26c0-1-.5-2.23-1.74-2.23S103.6,56.32,103.6,57.42Z"/><path d="M110.81,52.84v1.67h1.51v.8h-1.51v3.13c0,.72.2,1.13.79,1.13a2.15,2.15,0,0,0,.61-.07l.05.79a2.42,2.42,0,0,1-.93.15,1.45,1.45,0,0,1-1.14-.45,2.15,2.15,0,0,1-.41-1.51V55.31h-.9v-.8h.9V53.12Z"/><path d="M113.37,59.24a2.79,2.79,0,0,0,1.39.42c.77,0,1.13-.39,1.13-.87s-.3-.78-1.08-1.07c-1-.37-1.54-.94-1.54-1.64a1.79,1.79,0,0,1,2-1.7,2.91,2.91,0,0,1,1.43.36l-.26.77a2.22,2.22,0,0,0-1.19-.34c-.62,0-1,.36-1,.79s.35.7,1.1,1c1,.38,1.53.88,1.53,1.75s-.8,1.74-2.18,1.74a3.33,3.33,0,0,1-1.63-.4Z"/><path d="M23.76,77a3.71,3.71,0,0,0,1.87.53c1.07,0,1.7-.56,1.7-1.38s-.44-1.18-1.53-1.6c-1.32-.47-2.13-1.16-2.13-2.29a2.33,2.33,0,0,1,2.61-2.2,3.6,3.6,0,0,1,1.79.4l-.29.85A3.11,3.11,0,0,0,26.25,71c-1.11,0-1.53.66-1.53,1.21,0,.76.5,1.13,1.61,1.56,1.37.53,2.06,1.19,2.06,2.38s-.92,2.33-2.83,2.33a4.13,4.13,0,0,1-2.06-.52Z"/><path d="M30.45,75.61a1.85,1.85,0,0,0,2,2,3.83,3.83,0,0,0,1.61-.3l.18.76a4.9,4.9,0,0,1-1.94.36,2.7,2.7,0,0,1-2.85-2.93c0-1.75,1-3.13,2.72-3.13a2.46,2.46,0,0,1,2.4,2.73,4.92,4.92,0,0,1,0,.5Zm3.09-.76a1.5,1.5,0,0,0-1.46-1.72,1.75,1.75,0,0,0-1.62,1.72Z"/><path d="M39.09,78.32,39,77.58h0a2.17,2.17,0,0,1-1.78.87,1.65,1.65,0,0,1-1.77-1.67c0-1.4,1.24-2.17,3.49-2.16V74.5a1.2,1.2,0,0,0-1.32-1.34,2.9,2.9,0,0,0-1.51.43l-.24-.7a3.6,3.6,0,0,1,1.9-.51c1.78,0,2.21,1.21,2.21,2.37v2.17a7.49,7.49,0,0,0,.1,1.4Zm-.16-3c-1.15,0-2.46.18-2.46,1.31a.94.94,0,0,0,1,1,1.45,1.45,0,0,0,1.4-1,1,1,0,0,0,.06-.34Z"/><path d="M41.65,74.08c0-.6,0-1.09,0-1.57h.92l0,.94h0a2,2,0,0,1,1.83-1.07,1.71,1.71,0,0,1,1.64,1.16h0a2.42,2.42,0,0,1,.65-.75A2,2,0,0,1,48,72.38c.76,0,1.9.5,1.9,2.52v3.42h-1V75c0-1.12-.41-1.79-1.26-1.79a1.38,1.38,0,0,0-1.25,1,2.11,2.11,0,0,0-.08.53v3.59h-1V74.84c0-.93-.41-1.6-1.21-1.6a1.45,1.45,0,0,0-1.31,1.06,1.4,1.4,0,0,0-.08.51v3.51h-1Z"/><path d="M51.66,69.8h1.06v8.52H51.66Z"/><path d="M55.08,75.61a1.86,1.86,0,0,0,2,2,3.8,3.8,0,0,0,1.61-.3l.18.76a4.84,4.84,0,0,1-1.93.36,2.7,2.7,0,0,1-2.86-2.93c0-1.75,1-3.13,2.73-3.13a2.46,2.46,0,0,1,2.4,2.73,4.36,4.36,0,0,1,0,.5Zm3.1-.76a1.51,1.51,0,0,0-1.47-1.72,1.77,1.77,0,0,0-1.62,1.72Z"/><path d="M60.36,77.24a2.82,2.82,0,0,0,1.39.42c.77,0,1.13-.39,1.13-.87s-.3-.78-1.08-1.07c-1-.37-1.53-.94-1.53-1.64a1.79,1.79,0,0,1,2-1.7,2.94,2.94,0,0,1,1.43.36l-.27.77a2.15,2.15,0,0,0-1.18-.34c-.63,0-1,.36-1,.79s.35.7,1.11,1c1,.38,1.52.88,1.52,1.75s-.79,1.74-2.17,1.74A3.3,3.3,0,0,1,60.1,78Z"/><path d="M65.11,77.24a2.86,2.86,0,0,0,1.4.42c.76,0,1.12-.39,1.12-.87s-.3-.78-1.08-1.07c-1-.37-1.53-.94-1.53-1.64a1.79,1.79,0,0,1,2-1.7,2.94,2.94,0,0,1,1.43.36l-.27.77A2.15,2.15,0,0,0,67,73.17c-.63,0-1,.36-1,.79s.34.7,1.1,1c1,.38,1.52.88,1.52,1.75s-.79,1.74-2.17,1.74a3.33,3.33,0,0,1-1.63-.4Z"/><path d="M79.5,74.19c0,2.78-1.69,4.26-3.76,4.26s-3.63-1.66-3.63-4.1,1.6-4.25,3.75-4.25S79.5,71.79,79.5,74.19Zm-6.27.13c0,1.73.93,3.28,2.57,3.28s2.6-1.53,2.6-3.36c0-1.61-.84-3.29-2.58-3.29S73.23,72.55,73.23,74.32Z"/><path d="M80.82,74.08c0-.6,0-1.09,0-1.57h.93l0,.94h0a2,2,0,0,1,1.83-1.07,1.71,1.71,0,0,1,1.64,1.16h0a2.42,2.42,0,0,1,.65-.75,2,2,0,0,1,1.28-.41c.77,0,1.91.5,1.91,2.52v3.42h-1V75c0-1.12-.41-1.79-1.26-1.79a1.38,1.38,0,0,0-1.25,1,1.74,1.74,0,0,0-.08.53v3.59h-1V74.84c0-.93-.41-1.6-1.21-1.6a1.45,1.45,0,0,0-1.31,1.06,1.4,1.4,0,0,0-.09.51v3.51h-1Z"/><path d="M90.83,74.08c0-.6,0-1.09,0-1.57h.94l.06,1h0a2.14,2.14,0,0,1,1.92-1.09c.8,0,2,.48,2,2.47v3.47h-1V75c0-.94-.35-1.72-1.35-1.72A1.51,1.51,0,0,0,92,74.33a1.55,1.55,0,0,0-.07.5v3.49H90.83Z"/><path d="M98.67,70.88a.63.63,0,0,1-.68.65.63.63,0,0,1-.63-.65.64.64,0,0,1,.66-.66A.63.63,0,0,1,98.67,70.88Zm-1.18,7.44V72.51h1.06v5.81Z"/><path d="M102.74,74.68v.78h-3v-.78Z"/><path d="M108.34,78.1a4,4,0,0,1-1.67.34,2.76,2.76,0,0,1-2.89-3,3,3,0,0,1,3.12-3.08,3.6,3.6,0,0,1,1.46.3l-.24.82a2.37,2.37,0,0,0-1.22-.28,2.19,2.19,0,0,0,0,4.37,3,3,0,0,0,1.3-.29Z"/><path d="M109.57,69.8h1.06v3.62h0a2,2,0,0,1,.76-.74,2.16,2.16,0,0,1,1.08-.3c.78,0,2,.48,2,2.48v3.46h-1.06V75c0-.93-.35-1.73-1.34-1.73a1.51,1.51,0,0,0-1.42,1.06,1.26,1.26,0,0,0-.07.5v3.51h-1.06Z"/><path d="M119.45,78.32l-.09-.74h0a2.16,2.16,0,0,1-1.78.87,1.65,1.65,0,0,1-1.77-1.67c0-1.4,1.25-2.17,3.49-2.16V74.5A1.19,1.19,0,0,0,118,73.16a2.93,2.93,0,0,0-1.51.43l-.24-.7a3.61,3.61,0,0,1,1.91-.51c1.77,0,2.2,1.21,2.2,2.37v2.17a8.44,8.44,0,0,0,.1,1.4Zm-.16-3c-1.15,0-2.46.18-2.46,1.31a.94.94,0,0,0,1,1,1.43,1.43,0,0,0,1.4-1,1,1,0,0,0,.06-.34Z"/><path d="M122,74.08c0-.6,0-1.09,0-1.57h.94l.06,1h0a2.14,2.14,0,0,1,1.92-1.09c.8,0,2,.48,2,2.47v3.47H125.9V75c0-.94-.34-1.72-1.34-1.72a1.51,1.51,0,0,0-1.41,1.08,1.54,1.54,0,0,0-.08.5v3.49h-1Z"/><path d="M128.68,74.08c0-.6,0-1.09-.05-1.57h.94l.06,1h0a2.14,2.14,0,0,1,1.92-1.09c.8,0,2.05.48,2.05,2.47v3.47h-1.06V75c0-.94-.34-1.72-1.34-1.72a1.51,1.51,0,0,0-1.41,1.08,1.54,1.54,0,0,0-.08.5v3.49h-1Z"/><path d="M135.93,75.61a1.85,1.85,0,0,0,2,2,3.75,3.75,0,0,0,1.6-.3l.18.76a4.8,4.8,0,0,1-1.93.36,2.7,2.7,0,0,1-2.85-2.93c0-1.75,1-3.13,2.72-3.13a2.46,2.46,0,0,1,2.4,2.73,2.85,2.85,0,0,1,0,.5Zm3.09-.76a1.5,1.5,0,0,0-1.46-1.72,1.75,1.75,0,0,0-1.62,1.72Z"/><path d="M141.35,69.8h1.06v8.52h-1.06Z"/><path d="M151,74.53h-3.14v2.91h3.5v.88h-4.55V70.23h4.37v.88h-3.32v2.55H151Z"/><path d="M153.12,72.51l.83,1.25c.22.32.4.62.59.95h0c.19-.35.39-.65.58-1l.81-1.24h1.14l-2,2.81,2,3H156L155.11,77c-.23-.34-.42-.66-.62-1h0c-.2.35-.4.66-.62,1L153,78.32h-1.16l2.06-3-2-2.84Z"/><path d="M158.19,74.41c0-.75,0-1.35-.05-1.9h1l0,1h0a2.27,2.27,0,0,1,2.06-1.13c1.4,0,2.46,1.19,2.46,3,0,2.09-1.27,3.12-2.64,3.12a2.05,2.05,0,0,1-1.79-.91h0v3.15h-1Zm1,1.54a1.88,1.88,0,0,0,.05.43,1.62,1.62,0,0,0,1.58,1.24c1.12,0,1.76-.91,1.76-2.24,0-1.17-.61-2.16-1.72-2.16a1.69,1.69,0,0,0-1.6,1.31,1.93,1.93,0,0,0-.07.43Z"/><path d="M165.6,75.61a1.86,1.86,0,0,0,2,2,3.8,3.8,0,0,0,1.61-.3l.18.76a4.84,4.84,0,0,1-1.93.36,2.7,2.7,0,0,1-2.86-2.93c0-1.75,1-3.13,2.73-3.13a2.46,2.46,0,0,1,2.4,2.73,4.36,4.36,0,0,1,0,.5Zm3.1-.76a1.51,1.51,0,0,0-1.47-1.72,1.77,1.77,0,0,0-1.62,1.72Z"/><path d="M171,74.32c0-.68,0-1.27-.05-1.81h.92l0,1.14H172a1.73,1.73,0,0,1,1.6-1.27,1.32,1.32,0,0,1,.3,0v1a1.79,1.79,0,0,0-.36,0,1.48,1.48,0,0,0-1.41,1.36,2.38,2.38,0,0,0-.05.49v3.1h-1Z"/><path d="M176.17,70.88a.62.62,0,0,1-.67.65.63.63,0,0,1-.63-.65.64.64,0,0,1,.66-.66A.62.62,0,0,1,176.17,70.88ZM175,78.32V72.51h1.05v5.81Z"/><path d="M178.39,75.61a1.86,1.86,0,0,0,2,2,3.76,3.76,0,0,0,1.61-.3l.18.76a4.84,4.84,0,0,1-1.93.36,2.69,2.69,0,0,1-2.85-2.93c0-1.75,1-3.13,2.72-3.13a2.46,2.46,0,0,1,2.4,2.73,4.36,4.36,0,0,1,0,.5Zm3.1-.76A1.51,1.51,0,0,0,180,73.13a1.75,1.75,0,0,0-1.61,1.72Z"/><path d="M183.82,74.08c0-.6,0-1.09,0-1.57h.94l.06,1h0a2.14,2.14,0,0,1,1.92-1.09c.8,0,2,.48,2,2.47v3.47H187.7V75c0-.94-.34-1.72-1.34-1.72A1.49,1.49,0,0,0,185,74.33a1.54,1.54,0,0,0-.08.5v3.49h-1.05Z"/><path d="M194.62,78.1a4,4,0,0,1-1.67.34,2.76,2.76,0,0,1-2.89-3,3,3,0,0,1,3.12-3.08,3.6,3.6,0,0,1,1.46.3l-.24.82a2.37,2.37,0,0,0-1.22-.28,2.19,2.19,0,0,0,0,4.37,3,3,0,0,0,1.3-.29Z"/><path d="M196.37,75.61a1.85,1.85,0,0,0,2,2,3.8,3.8,0,0,0,1.61-.3l.18.76a4.84,4.84,0,0,1-1.93.36,2.7,2.7,0,0,1-2.86-2.93c0-1.75,1-3.13,2.72-3.13a2.46,2.46,0,0,1,2.4,2.73,4.92,4.92,0,0,1,0,.5Zm3.09-.76A1.5,1.5,0,0,0,198,73.13a1.76,1.76,0,0,0-1.62,1.72Z"/><path d="M201.65,77.24a2.79,2.79,0,0,0,1.39.42c.77,0,1.13-.39,1.13-.87s-.3-.78-1.08-1.07c-1-.37-1.54-.94-1.54-1.64a1.8,1.8,0,0,1,2-1.7,2.9,2.9,0,0,1,1.42.36l-.26.77a2.22,2.22,0,0,0-1.19-.34c-.62,0-1,.36-1,.79s.35.7,1.1,1c1,.38,1.53.88,1.53,1.75s-.79,1.74-2.17,1.74a3.27,3.27,0,0,1-1.63-.4Z"/><path d="M29.56,96.05a5.22,5.22,0,0,1-2.14.39,3.77,3.77,0,0,1-4-4.09,4,4,0,0,1,4.22-4.25,4.4,4.4,0,0,1,1.92.36l-.25.85A3.85,3.85,0,0,0,27.69,89a3,3,0,0,0-3.16,3.33,2.94,2.94,0,0,0,3.11,3.25,4.08,4.08,0,0,0,1.7-.34Z"/><path d="M35.55,94.73c0,.6,0,1.13,0,1.59h-.93l-.06-.95h0a2.16,2.16,0,0,1-1.92,1.08c-.91,0-2-.51-2-2.55V90.51h1.06v3.21c0,1.11.33,1.85,1.29,1.85a1.5,1.5,0,0,0,1.49-1.5V90.51h1.06Z"/><path d="M37.16,95.24a2.79,2.79,0,0,0,1.39.42c.76,0,1.12-.39,1.12-.87s-.3-.78-1.08-1.07c-1-.37-1.53-.94-1.53-1.64a1.79,1.79,0,0,1,2-1.7,2.91,2.91,0,0,1,1.43.36l-.26.77A2.22,2.22,0,0,0,39,91.17c-.63,0-1,.36-1,.79s.34.7,1.1,1c1,.38,1.52.88,1.52,1.75s-.79,1.74-2.17,1.74a3.33,3.33,0,0,1-1.63-.4Z"/><path d="M43.32,88.84v1.67h1.51v.8H43.32v3.13c0,.72.21,1.13.79,1.13a2.29,2.29,0,0,0,.62-.07l0,.79a2.39,2.39,0,0,1-.93.15A1.46,1.46,0,0,1,42.7,96a2.15,2.15,0,0,1-.41-1.51V91.31h-.9v-.8h.9V89.12Z"/><path d="M51.2,93.37a2.84,2.84,0,0,1-2.89,3.08,2.76,2.76,0,0,1-2.78-3,2.83,2.83,0,0,1,2.88-3.08A2.74,2.74,0,0,1,51.2,93.37Zm-4.6,0c0,1.28.73,2.24,1.76,2.24s1.77-1,1.77-2.26c0-1-.5-2.23-1.74-2.23S46.6,92.32,46.6,93.42Z"/><path d="M52.54,92.08c0-.6,0-1.09,0-1.57h.92l.05.94h0a2,2,0,0,1,1.82-1.07A1.74,1.74,0,0,1,57,91.54h0a2.42,2.42,0,0,1,.65-.75,1.93,1.93,0,0,1,1.28-.41c.77,0,1.91.5,1.91,2.52v3.42h-1V93c0-1.12-.41-1.79-1.26-1.79a1.38,1.38,0,0,0-1.25,1,1.73,1.73,0,0,0-.09.53v3.59h-1V92.84c0-.93-.4-1.6-1.21-1.6a1.45,1.45,0,0,0-1.31,1.06,1.4,1.4,0,0,0-.08.51v3.51h-1Z"/><path d="M63.13,93.61a1.87,1.87,0,0,0,2,2,3.75,3.75,0,0,0,1.6-.3l.18.76a4.8,4.8,0,0,1-1.93.36,2.69,2.69,0,0,1-2.85-2.93c0-1.75,1-3.13,2.72-3.13a2.46,2.46,0,0,1,2.4,2.73,4.36,4.36,0,0,1,0,.5Zm3.1-.76a1.51,1.51,0,0,0-1.46-1.72,1.75,1.75,0,0,0-1.62,1.72Z"/><path d="M68.56,92.32c0-.68,0-1.27,0-1.81h.92l0,1.14h0a1.74,1.74,0,0,1,1.61-1.27,1.39,1.39,0,0,1,.3,0v1a1.88,1.88,0,0,0-.36,0,1.48,1.48,0,0,0-1.42,1.36,3.37,3.37,0,0,0-.05.49v3.1h-1Z"/><path d="M79.25,92.53H76.11v2.91h3.5v.88H75.06V88.23h4.37v.88H76.11v2.55h3.14Z"/><path d="M80.93,92.08c0-.6,0-1.09-.05-1.57h.94l.06,1h0a2.14,2.14,0,0,1,1.92-1.09c.8,0,2.05.48,2.05,2.47v3.47H84.82V93c0-.94-.35-1.72-1.35-1.72a1.51,1.51,0,0,0-1.41,1.08,1.55,1.55,0,0,0-.07.5v3.49H80.93Z"/><path d="M92.59,90.51c0,.42,0,.89,0,1.6v3.37a3.36,3.36,0,0,1-.82,2.65,3.12,3.12,0,0,1-2.11.69,3.79,3.79,0,0,1-1.94-.48l.27-.8a3.25,3.25,0,0,0,1.7.45c1.08,0,1.87-.56,1.87-2v-.65h0a2.08,2.08,0,0,1-1.85,1,2.59,2.59,0,0,1-2.47-2.83,2.78,2.78,0,0,1,2.61-3.08,2,2,0,0,1,1.82,1h0l0-.88ZM91.5,92.8a1.47,1.47,0,0,0-.06-.48A1.52,1.52,0,0,0,90,91.21c-1,0-1.72.85-1.72,2.19,0,1.14.57,2.09,1.71,2.09a1.55,1.55,0,0,0,1.47-1.08,1.83,1.83,0,0,0,.08-.57Z"/><path d="M97.51,96.32l-.08-.74h0a2.14,2.14,0,0,1-1.77.87,1.66,1.66,0,0,1-1.78-1.67c0-1.4,1.25-2.17,3.49-2.16V92.5A1.19,1.19,0,0,0,96,91.16a2.93,2.93,0,0,0-1.51.43l-.24-.7a3.63,3.63,0,0,1,1.91-.51c1.77,0,2.21,1.21,2.21,2.37v2.17a8.52,8.52,0,0,0,.09,1.4Zm-.15-3c-1.16,0-2.46.18-2.46,1.31a.93.93,0,0,0,1,1,1.45,1.45,0,0,0,1.41-1,1.35,1.35,0,0,0,.06-.34Z"/><path d="M105.08,90.51c0,.42,0,.89,0,1.6v3.37a3.36,3.36,0,0,1-.83,2.65,3.12,3.12,0,0,1-2.11.69,3.73,3.73,0,0,1-1.93-.48l.26-.8a3.25,3.25,0,0,0,1.7.45c1.08,0,1.87-.56,1.87-2v-.65h0a2.07,2.07,0,0,1-1.85,1,2.59,2.59,0,0,1-2.47-2.83,2.79,2.79,0,0,1,2.62-3.08,1.94,1.94,0,0,1,1.81,1h0l0-.88ZM104,92.8a1.47,1.47,0,0,0-.06-.48,1.52,1.52,0,0,0-1.47-1.11c-1,0-1.73.85-1.73,2.19,0,1.14.58,2.09,1.72,2.09a1.55,1.55,0,0,0,1.46-1.08,1.83,1.83,0,0,0,.08-.57Z"/><path d="M107.38,93.61a1.85,1.85,0,0,0,2,2,3.83,3.83,0,0,0,1.61-.3l.18.76a4.9,4.9,0,0,1-1.94.36,2.7,2.7,0,0,1-2.85-2.93c0-1.75,1-3.13,2.72-3.13a2.46,2.46,0,0,1,2.4,2.73,4.92,4.92,0,0,1,0,.5Zm3.09-.76A1.5,1.5,0,0,0,109,91.13a1.75,1.75,0,0,0-1.62,1.72Z"/><path d="M112.8,92.08c0-.6,0-1.09,0-1.57h.93l0,.94h0a2,2,0,0,1,1.82-1.07,1.72,1.72,0,0,1,1.65,1.16h0a2.42,2.42,0,0,1,.65-.75,2,2,0,0,1,1.28-.41c.77,0,1.91.5,1.91,2.52v3.42h-1V93c0-1.12-.41-1.79-1.26-1.79a1.38,1.38,0,0,0-1.25,1,1.74,1.74,0,0,0-.08.53v3.59h-1V92.84c0-.93-.41-1.6-1.22-1.6a1.45,1.45,0,0,0-1.3,1.06,1.4,1.4,0,0,0-.09.51v3.51h-1Z"/><path d="M123.4,93.61a1.85,1.85,0,0,0,2,2,3.83,3.83,0,0,0,1.61-.3l.18.76a4.9,4.9,0,0,1-1.94.36,2.7,2.7,0,0,1-2.85-2.93c0-1.75,1-3.13,2.72-3.13a2.46,2.46,0,0,1,2.4,2.73,4.92,4.92,0,0,1,0,.5Zm3.09-.76A1.5,1.5,0,0,0,125,91.13a1.75,1.75,0,0,0-1.62,1.72Z"/><path d="M128.82,92.08c0-.6,0-1.09,0-1.57h.94l.06,1h0a2.14,2.14,0,0,1,1.92-1.09c.81,0,2,.48,2,2.47v3.47h-1V93c0-.94-.35-1.72-1.35-1.72A1.51,1.51,0,0,0,130,92.33a1.55,1.55,0,0,0-.07.5v3.49h-1.06Z"/><path d="M136.71,88.84v1.67h1.51v.8h-1.51v3.13c0,.72.2,1.13.79,1.13a2.21,2.21,0,0,0,.61-.07l0,.79a2.48,2.48,0,0,1-.94.15,1.46,1.46,0,0,1-1.14-.45,2.15,2.15,0,0,1-.41-1.51V91.31h-.9v-.8h.9V89.12Z"/><path d="M142,88.33a11.33,11.33,0,0,1,2-.16,3.34,3.34,0,0,1,2.27.67,2.2,2.2,0,0,1,.7,1.69,2.36,2.36,0,0,1-.62,1.73,3.34,3.34,0,0,1-2.47.89,3.61,3.61,0,0,1-.84-.07v3.24h-1Zm1,3.9a3.49,3.49,0,0,0,.86.08c1.26,0,2-.61,2-1.73S145.16,89,144,89a5,5,0,0,0-1,.08Z"/><path d="M148.27,87.8h1.06v8.52h-1.06Z"/><path d="M154.32,96.32l-.08-.74h0a2.16,2.16,0,0,1-1.78.87,1.65,1.65,0,0,1-1.77-1.67c0-1.4,1.25-2.17,3.49-2.16V92.5a1.19,1.19,0,0,0-1.32-1.34,2.93,2.93,0,0,0-1.51.43l-.24-.7a3.61,3.61,0,0,1,1.91-.51c1.77,0,2.2,1.21,2.2,2.37v2.17a8.44,8.44,0,0,0,.1,1.4Zm-.16-3c-1.15,0-2.46.18-2.46,1.31a.94.94,0,0,0,1,1,1.43,1.43,0,0,0,1.4-1,1,1,0,0,0,.06-.34Z"/><path d="M158.11,88.84v1.67h1.51v.8h-1.51v3.13c0,.72.21,1.13.79,1.13a2.29,2.29,0,0,0,.62-.07l0,.79a2.39,2.39,0,0,1-.93.15,1.46,1.46,0,0,1-1.14-.45,2.15,2.15,0,0,1-.41-1.51V91.31h-.9v-.8h.9V89.12Z"/><path d="M160.92,96.32v-5h-.81v-.8h.81v-.27a2.75,2.75,0,0,1,.67-2,2,2,0,0,1,1.42-.54,2.36,2.36,0,0,1,.9.17l-.15.81a1.58,1.58,0,0,0-.67-.13c-.9,0-1.13.79-1.13,1.68v.31h1.41v.8H162v5Z"/><path d="M169.41,93.37a2.84,2.84,0,0,1-2.89,3.08,2.76,2.76,0,0,1-2.78-3,2.83,2.83,0,0,1,2.88-3.08A2.74,2.74,0,0,1,169.41,93.37Zm-4.6,0c0,1.28.73,2.24,1.76,2.24s1.77-1,1.77-2.26c0-1-.5-2.23-1.74-2.23S164.81,92.32,164.81,93.42Z"/><path d="M170.75,92.32c0-.68,0-1.27-.05-1.81h.92l0,1.14h.05a1.74,1.74,0,0,1,1.61-1.27,1.39,1.39,0,0,1,.3,0v1a1.88,1.88,0,0,0-.36,0,1.48,1.48,0,0,0-1.42,1.36,3.37,3.37,0,0,0-.05.49v3.1h-1Z"/><path d="M174.72,92.08c0-.6,0-1.09-.05-1.57h.93l0,.94h0a2,2,0,0,1,1.82-1.07,1.73,1.73,0,0,1,1.65,1.16h0a2.42,2.42,0,0,1,.65-.75,2,2,0,0,1,1.28-.41c.77,0,1.91.5,1.91,2.52v3.42h-1V93c0-1.12-.41-1.79-1.26-1.79a1.38,1.38,0,0,0-1.25,1,1.74,1.74,0,0,0-.08.53v3.59h-1V92.84c0-.93-.41-1.6-1.22-1.6a1.43,1.43,0,0,0-1.3,1.06,1.4,1.4,0,0,0-.09.51v3.51h-1Z"/><path d="M184.58,95.24a2.86,2.86,0,0,0,1.4.42c.76,0,1.12-.39,1.12-.87s-.3-.78-1.08-1.07c-1-.37-1.53-.94-1.53-1.64a1.79,1.79,0,0,1,2-1.7,2.91,2.91,0,0,1,1.43.36l-.27.77a2.15,2.15,0,0,0-1.18-.34c-.63,0-1,.36-1,.79s.34.7,1.1,1c1,.38,1.52.88,1.52,1.75s-.79,1.74-2.17,1.74a3.33,3.33,0,0,1-1.63-.4Z"/><path d="M23.91,106.34a9.65,9.65,0,0,1,1.9-.17,3.31,3.31,0,0,1,2.22.59,1.7,1.7,0,0,1,.68,1.43A1.92,1.92,0,0,1,27.34,110v0A2.07,2.07,0,0,1,29,112a2.16,2.16,0,0,1-.69,1.62,4,4,0,0,1-2.79.76,11.75,11.75,0,0,1-1.62-.1Zm1,3.31h.95c1.1,0,1.75-.58,1.75-1.35,0-1-.72-1.32-1.78-1.32a4.28,4.28,0,0,0-.92.07Zm0,3.87a5.06,5.06,0,0,0,.88,0c1.08,0,2.07-.39,2.07-1.57s-.95-1.56-2.09-1.56H25Z"/><path d="M30,114.32v-.65l.83-.81c2-1.89,2.89-2.9,2.9-4.07a1.4,1.4,0,0,0-1.55-1.53,2.66,2.66,0,0,0-1.65.66l-.34-.74a3.41,3.41,0,0,1,2.21-.79,2.19,2.19,0,0,1,2.39,2.26c0,1.44-1,2.61-2.69,4.19l-.62.58v0H35v.88Z"/><path d="M36.57,106.34a9.65,9.65,0,0,1,1.9-.17,3.31,3.31,0,0,1,2.22.59,1.69,1.69,0,0,1,.67,1.43A1.91,1.91,0,0,1,40,110v0a2.07,2.07,0,0,1,1.66,2,2.15,2.15,0,0,1-.68,1.62,4,4,0,0,1-2.79.76,11.75,11.75,0,0,1-1.62-.1Zm1,3.31h1c1.1,0,1.75-.58,1.75-1.35,0-1-.72-1.32-1.78-1.32a4.21,4.21,0,0,0-.92.07Zm0,3.87a5.06,5.06,0,0,0,.88,0c1.08,0,2.07-.39,2.07-1.57s-1-1.56-2.09-1.56h-.86Z"/><path d="M45.54,110.68v.78h-3v-.78Z"/><path d="M49.36,106.33a11.33,11.33,0,0,1,2-.16,3.34,3.34,0,0,1,2.27.67,2.21,2.21,0,0,1,.71,1.69,2.37,2.37,0,0,1-.63,1.73,3.34,3.34,0,0,1-2.47.89,3.61,3.61,0,0,1-.84-.07v3.24h-1Zm1,3.9a3.58,3.58,0,0,0,.87.08c1.26,0,2-.61,2-1.73s-.75-1.58-1.9-1.58a5.05,5.05,0,0,0-1,.08Z"/><path d="M58.61,114.32l-.08-.74h0a2.16,2.16,0,0,1-1.78.87,1.65,1.65,0,0,1-1.77-1.67c0-1.4,1.25-2.17,3.49-2.16v-.12a1.19,1.19,0,0,0-1.32-1.34,2.93,2.93,0,0,0-1.51.43l-.24-.7a3.61,3.61,0,0,1,1.91-.51c1.77,0,2.2,1.21,2.2,2.37v2.17a8.44,8.44,0,0,0,.1,1.4Zm-.16-3c-1.15,0-2.46.18-2.46,1.31a.94.94,0,0,0,1,1,1.43,1.43,0,0,0,1.4-1,1,1,0,0,0,.06-.34Z"/><path d="M61.18,110.32c0-.68,0-1.27,0-1.81h.92l0,1.14h0a1.74,1.74,0,0,1,1.61-1.27,1.39,1.39,0,0,1,.3,0v1a1.88,1.88,0,0,0-.36,0,1.48,1.48,0,0,0-1.42,1.36,3.37,3.37,0,0,0-.05.49v3.1h-1Z"/><path d="M66.66,106.84v1.67h1.51v.8H66.66v3.13c0,.72.21,1.13.79,1.13a2.29,2.29,0,0,0,.62-.07l0,.79a2.39,2.39,0,0,1-.93.15A1.46,1.46,0,0,1,66,114a2.15,2.15,0,0,1-.41-1.51v-3.17h-.9v-.8h.9v-1.39Z"/><path d="M69.36,110.08c0-.6,0-1.09,0-1.57h.94l.06,1h0a2.14,2.14,0,0,1,1.92-1.09c.81,0,2,.48,2,2.47v3.47h-1V111c0-.94-.35-1.72-1.35-1.72a1.51,1.51,0,0,0-1.41,1.08,1.55,1.55,0,0,0-.07.5v3.49H69.36Z"/><path d="M76.61,111.61a1.86,1.86,0,0,0,2,2,3.8,3.8,0,0,0,1.61-.3l.18.76a4.84,4.84,0,0,1-1.93.36,2.7,2.7,0,0,1-2.86-2.93c0-1.75,1-3.13,2.73-3.13a2.46,2.46,0,0,1,2.39,2.73,4.92,4.92,0,0,1,0,.5Zm3.09-.76a1.5,1.5,0,0,0-1.46-1.72,1.76,1.76,0,0,0-1.62,1.72Z"/><path d="M82,110.32c0-.68,0-1.27,0-1.81h.92l0,1.14h0a1.75,1.75,0,0,1,1.61-1.27,1.39,1.39,0,0,1,.3,0v1a1.88,1.88,0,0,0-.36,0,1.48,1.48,0,0,0-1.41,1.36,2.38,2.38,0,0,0,0,.49v3.1H82Z"/><path d="M92.72,110.53H89.58v2.91h3.5v.88H88.54v-8.09H92.9v.88H89.58v2.55h3.14Z"/><path d="M94.41,110.08c0-.6,0-1.09,0-1.57h.93l.06,1h0a2.13,2.13,0,0,1,1.92-1.09c.8,0,2,.48,2,2.47v3.47H98.29V111c0-.94-.35-1.72-1.34-1.72a1.51,1.51,0,0,0-1.42,1.08,1.89,1.89,0,0,0-.07.5v3.49h-1Z"/><path d="M106.07,108.51c0,.42,0,.89,0,1.6v3.37a3.32,3.32,0,0,1-.83,2.65,3.11,3.11,0,0,1-2.11.69,3.76,3.76,0,0,1-1.93-.48l.26-.8a3.32,3.32,0,0,0,1.71.45c1.08,0,1.87-.56,1.87-2v-.65h0a2.05,2.05,0,0,1-1.84,1,2.59,2.59,0,0,1-2.47-2.83,2.78,2.78,0,0,1,2.61-3.08,1.92,1.92,0,0,1,1.81,1h0l0-.88ZM105,110.8a1.8,1.8,0,0,0-.06-.48,1.53,1.53,0,0,0-1.48-1.11c-1,0-1.73.85-1.73,2.19,0,1.14.58,2.09,1.72,2.09a1.54,1.54,0,0,0,1.46-1.08,1.84,1.84,0,0,0,.09-.57Z"/><path d="M111,114.32l-.09-.74h0a2.17,2.17,0,0,1-1.78.87,1.65,1.65,0,0,1-1.77-1.67c0-1.4,1.25-2.17,3.49-2.16v-.12a1.19,1.19,0,0,0-1.32-1.34,2.93,2.93,0,0,0-1.51.43l-.24-.7a3.6,3.6,0,0,1,1.9-.51c1.78,0,2.21,1.21,2.21,2.37v2.17a8.44,8.44,0,0,0,.1,1.4Zm-.16-3c-1.15,0-2.46.18-2.46,1.31a.94.94,0,0,0,1,1,1.45,1.45,0,0,0,1.4-1,1,1,0,0,0,.06-.34Z"/><path d="M118.56,108.51c0,.42,0,.89,0,1.6v3.37a3.32,3.32,0,0,1-.83,2.65,3.11,3.11,0,0,1-2.11.69,3.78,3.78,0,0,1-1.93-.48l.27-.8a3.25,3.25,0,0,0,1.7.45c1.08,0,1.87-.56,1.87-2v-.65h0a2.08,2.08,0,0,1-1.85,1,2.59,2.59,0,0,1-2.47-2.83,2.78,2.78,0,0,1,2.61-3.08,1.92,1.92,0,0,1,1.81,1h0l0-.88Zm-1.09,2.29a1.47,1.47,0,0,0-.06-.48,1.52,1.52,0,0,0-1.48-1.11c-1,0-1.72.85-1.72,2.19,0,1.14.57,2.09,1.71,2.09a1.53,1.53,0,0,0,1.46-1.08,1.84,1.84,0,0,0,.09-.57Z"/><path d="M120.85,111.61a1.86,1.86,0,0,0,2,2,3.76,3.76,0,0,0,1.61-.3l.18.76a4.84,4.84,0,0,1-1.93.36,2.69,2.69,0,0,1-2.85-2.93c0-1.75,1-3.13,2.72-3.13a2.46,2.46,0,0,1,2.4,2.73,4.36,4.36,0,0,1,0,.5Zm3.1-.76a1.51,1.51,0,0,0-1.47-1.72,1.75,1.75,0,0,0-1.61,1.72Z"/><path d="M126.28,110.08c0-.6,0-1.09,0-1.57h.92l0,.94h0a2,2,0,0,1,1.82-1.07,1.71,1.71,0,0,1,1.64,1.16h0a2.39,2.39,0,0,1,.64-.75,2,2,0,0,1,1.29-.41c.77,0,1.91.5,1.91,2.52v3.42h-1V111c0-1.12-.4-1.79-1.26-1.79a1.37,1.37,0,0,0-1.24,1,1.73,1.73,0,0,0-.09.53v3.59h-1v-3.48c0-.93-.41-1.6-1.21-1.6a1.45,1.45,0,0,0-1.31,1.06,1.4,1.4,0,0,0-.08.51v3.51h-1Z"/><path d="M136.87,111.61a1.86,1.86,0,0,0,2,2,3.76,3.76,0,0,0,1.61-.3l.18.76a4.84,4.84,0,0,1-1.93.36,2.69,2.69,0,0,1-2.85-2.93c0-1.75,1-3.13,2.72-3.13a2.46,2.46,0,0,1,2.4,2.73,4.36,4.36,0,0,1,0,.5Zm3.1-.76a1.51,1.51,0,0,0-1.47-1.72,1.77,1.77,0,0,0-1.62,1.72Z"/><path d="M142.3,110.08c0-.6,0-1.09-.05-1.57h.93l.06,1h0a2.14,2.14,0,0,1,1.92-1.09c.8,0,2.05.48,2.05,2.47v3.47h-1.06V111c0-.94-.34-1.72-1.34-1.72a1.51,1.51,0,0,0-1.42,1.08,1.89,1.89,0,0,0-.07.5v3.49h-1Z"/><path d="M150.18,106.84v1.67h1.51v.8h-1.51v3.13c0,.72.2,1.13.79,1.13a2.15,2.15,0,0,0,.61-.07l0,.79a2.42,2.42,0,0,1-.93.15,1.45,1.45,0,0,1-1.14-.45,2.15,2.15,0,0,1-.41-1.51v-3.17h-.9v-.8h.9v-1.39Z"/><path d="M491,52.23v8.09h-1V52.23Z"/><path d="M492.86,56.08c0-.6,0-1.09-.05-1.57h.94l.06,1h0a2.14,2.14,0,0,1,1.92-1.09c.8,0,2.05.48,2.05,2.47v3.47h-1.06V57c0-.94-.34-1.72-1.34-1.72A1.51,1.51,0,0,0,494,56.33a1.54,1.54,0,0,0-.08.5v3.49h-1.05Z"/><path d="M500.74,52.84v1.67h1.51v.8h-1.51v3.13c0,.72.21,1.13.79,1.13a2.29,2.29,0,0,0,.62-.07l0,.79a2.39,2.39,0,0,1-.93.15,1.46,1.46,0,0,1-1.14-.45,2.15,2.15,0,0,1-.41-1.51V55.31h-.9v-.8h.9V53.12Z"/><path d="M504,57.61a1.85,1.85,0,0,0,2,2,3.83,3.83,0,0,0,1.61-.3l.18.76a4.88,4.88,0,0,1-1.93.36A2.7,2.7,0,0,1,503,57.51c0-1.75,1-3.13,2.72-3.13a2.46,2.46,0,0,1,2.4,2.73,4.92,4.92,0,0,1,0,.5Zm3.09-.76a1.5,1.5,0,0,0-1.46-1.72A1.75,1.75,0,0,0,504,56.85Z"/><path d="M509.38,51.8h1.06v8.52h-1.06Z"/><path d="M512.21,51.8h1.06v8.52h-1.06Z"/><path d="M516.22,52.88a.62.62,0,0,1-.67.65.63.63,0,0,1-.64-.65.65.65,0,0,1,.66-.66A.63.63,0,0,1,516.22,52.88Zm-1.17,7.44V54.51h1.05v5.81Z"/><path d="M522.86,54.51c0,.42-.05.89-.05,1.6v3.37a3.36,3.36,0,0,1-.83,2.65,3.11,3.11,0,0,1-2.11.69,3.76,3.76,0,0,1-1.93-.48l.26-.8a3.32,3.32,0,0,0,1.71.45c1.08,0,1.87-.56,1.87-2v-.65h0a2.05,2.05,0,0,1-1.84,1,2.59,2.59,0,0,1-2.47-2.83,2.78,2.78,0,0,1,2.61-3.08,1.92,1.92,0,0,1,1.81,1h0l0-.88Zm-1.1,2.29a1.47,1.47,0,0,0-.06-.48,1.51,1.51,0,0,0-1.47-1.11c-1,0-1.73.85-1.73,2.19,0,1.14.58,2.09,1.72,2.09a1.55,1.55,0,0,0,1.46-1.08,1.83,1.83,0,0,0,.08-.57Z"/><path d="M525.15,57.61a1.86,1.86,0,0,0,2,2,3.8,3.8,0,0,0,1.61-.3l.18.76a4.84,4.84,0,0,1-1.93.36,2.7,2.7,0,0,1-2.86-2.93c0-1.75,1-3.13,2.73-3.13a2.46,2.46,0,0,1,2.39,2.73,4.92,4.92,0,0,1,0,.5Zm3.09-.76a1.5,1.5,0,0,0-1.46-1.72,1.76,1.76,0,0,0-1.62,1.72Z"/><path d="M530.57,56.08c0-.6,0-1.09,0-1.57h.93l.06,1h0a2.13,2.13,0,0,1,1.92-1.09c.8,0,2,.48,2,2.47v3.47h-1.06V57c0-.94-.35-1.72-1.34-1.72a1.51,1.51,0,0,0-1.42,1.08,1.55,1.55,0,0,0-.07.5v3.49h-1.06Z"/><path d="M538.46,52.84v1.67H540v.8h-1.51v3.13c0,.72.2,1.13.79,1.13a2.15,2.15,0,0,0,.61-.07l0,.79a2.48,2.48,0,0,1-.94.15,1.47,1.47,0,0,1-1.14-.45,2.15,2.15,0,0,1-.4-1.51V55.31h-.9v-.8h.9V53.12Z"/><path d="M543.59,59a3.72,3.72,0,0,0,1.88.53c1.06,0,1.69-.56,1.69-1.38s-.44-1.18-1.53-1.6c-1.32-.47-2.13-1.16-2.13-2.29a2.33,2.33,0,0,1,2.61-2.2,3.6,3.6,0,0,1,1.79.4l-.29.85a3.11,3.11,0,0,0-1.53-.39c-1.11,0-1.53.66-1.53,1.21,0,.76.5,1.13,1.61,1.56,1.37.53,2.06,1.19,2.06,2.38s-.92,2.33-2.83,2.33a4.13,4.13,0,0,1-2.06-.52Z"/><path d="M554.48,58.73c0,.6,0,1.13,0,1.59h-.93l-.06-1h0a2.16,2.16,0,0,1-1.92,1.08c-.91,0-2-.51-2-2.55V54.51h1.06v3.21c0,1.11.33,1.85,1.29,1.85a1.5,1.5,0,0,0,1.49-1.5V54.51h1.06Z"/><path d="M556.23,56.41c0-.75,0-1.35-.05-1.9h1l0,1h0a2.28,2.28,0,0,1,2.06-1.13c1.41,0,2.46,1.19,2.46,2.95,0,2.09-1.27,3.12-2.64,3.12a2,2,0,0,1-1.78-.91h0v3.15h-1Zm1,1.54a2.68,2.68,0,0,0,.05.43,1.62,1.62,0,0,0,1.58,1.24c1.12,0,1.77-.91,1.77-2.24,0-1.17-.61-2.16-1.73-2.16a1.67,1.67,0,0,0-1.59,1.31,1.49,1.49,0,0,0-.08.43Z"/><path d="M563.06,56.41c0-.75,0-1.35,0-1.9h1l0,1h0a2.27,2.27,0,0,1,2.06-1.13c1.4,0,2.46,1.19,2.46,2.95,0,2.09-1.27,3.12-2.64,3.12a2.05,2.05,0,0,1-1.79-.91h0v3.15h-1Zm1,1.54a1.88,1.88,0,0,0,0,.43,1.62,1.62,0,0,0,1.58,1.24c1.12,0,1.76-.91,1.76-2.24,0-1.17-.61-2.16-1.72-2.16a1.69,1.69,0,0,0-1.6,1.31,1.93,1.93,0,0,0-.07.43Z"/><path d="M569.89,51.8h1.05v8.52h-1.05Z"/><path d="M573.1,54.51l1.27,3.43c.13.38.28.84.37,1.19h0c.11-.35.23-.79.37-1.21l1.15-3.41h1.12l-1.59,4.14c-.75,2-1.27,3-2,3.63a2.85,2.85,0,0,1-1.29.69l-.27-.89a2.76,2.76,0,0,0,.93-.52,3.08,3.08,0,0,0,.88-1.17.76.76,0,0,0,.09-.25,1.22,1.22,0,0,0-.07-.28L572,54.51Z"/><path d="M586.6,60.05a5.22,5.22,0,0,1-2.14.39,3.77,3.77,0,0,1-4-4.09,4,4,0,0,1,4.22-4.25,4.4,4.4,0,0,1,1.92.36l-.25.85a3.85,3.85,0,0,0-1.63-.33,3,3,0,0,0-3.16,3.33,2.94,2.94,0,0,0,3.11,3.25,4,4,0,0,0,1.7-.34Z"/><path d="M587.87,51.8h1.06v3.62h0a1.93,1.93,0,0,1,.76-.74,2.16,2.16,0,0,1,1.08-.3c.78,0,2,.48,2,2.48v3.46h-1V57c0-.93-.35-1.73-1.34-1.73A1.51,1.51,0,0,0,589,56.31a1.26,1.26,0,0,0-.07.5v3.51h-1.06Z"/><path d="M597.75,60.32l-.09-.74h0a2.17,2.17,0,0,1-1.78.87,1.65,1.65,0,0,1-1.77-1.67c0-1.4,1.24-2.17,3.49-2.16V56.5a1.19,1.19,0,0,0-1.32-1.34,2.93,2.93,0,0,0-1.51.43l-.24-.7a3.6,3.6,0,0,1,1.9-.51c1.78,0,2.21,1.21,2.21,2.37v2.17a7.49,7.49,0,0,0,.1,1.4Zm-.16-3c-1.15,0-2.46.18-2.46,1.31a.94.94,0,0,0,1,1,1.45,1.45,0,0,0,1.4-1,1,1,0,0,0,.06-.34Z"/><path d="M601.49,52.88a.65.65,0,1,1-1.3,0,.64.64,0,0,1,.66-.66A.62.62,0,0,1,601.49,52.88Zm-1.17,7.44V54.51h1v5.81Z"/><path d="M603.13,56.08c0-.6,0-1.09,0-1.57H604l.06,1h0A2.13,2.13,0,0,1,606,54.38c.8,0,2.05.48,2.05,2.47v3.47H607V57c0-.94-.35-1.72-1.34-1.72a1.51,1.51,0,0,0-1.42,1.08,1.55,1.55,0,0,0-.07.5v3.49h-1Z"/><path d="M612.36,52.34a10.77,10.77,0,0,1,2-.17,3.36,3.36,0,0,1,2.34.66,2,2,0,0,1,.63,1.54,2.13,2.13,0,0,1-1.52,2.06v0A2,2,0,0,1,617,58.1a12.89,12.89,0,0,0,.62,2.22h-1.08a11,11,0,0,1-.54-1.94c-.24-1.11-.67-1.53-1.62-1.57h-1v3.51h-1Zm1,3.68h1.07c1.11,0,1.82-.61,1.82-1.53s-.76-1.5-1.86-1.51a4.3,4.3,0,0,0-1,.09Z"/><path d="M620.08,52.88a.62.62,0,0,1-.67.65.63.63,0,0,1-.64-.65.65.65,0,0,1,.66-.66A.63.63,0,0,1,620.08,52.88Zm-1.18,7.44V54.51H620v5.81Z"/><path d="M621.57,59.24a2.79,2.79,0,0,0,1.39.42c.77,0,1.13-.39,1.13-.87s-.3-.78-1.08-1.07c-1-.37-1.54-.94-1.54-1.64a1.8,1.8,0,0,1,2-1.7,2.9,2.9,0,0,1,1.42.36l-.26.77a2.22,2.22,0,0,0-1.19-.34c-.62,0-1,.36-1,.79s.35.7,1.1,1c1,.38,1.53.88,1.53,1.75s-.79,1.74-2.17,1.74a3.27,3.27,0,0,1-1.63-.4Z"/><path d="M627.51,57.17h0l.52-.66,1.7-2H631l-2.24,2.39,2.55,3.42h-1.28l-2-2.79-.54.6v2.19h-1V51.8h1Z"/><path d="M496.72,74.77c-.06-1.13-.13-2.49-.12-3.49h0c-.27.94-.61,2-1,3.07l-1.42,3.92h-.8L492,74.42c-.39-1.14-.71-2.18-.94-3.14h0c0,1-.09,2.36-.16,3.57l-.21,3.47h-1l.56-8.09h1.34L493,74.14c.33,1,.61,1.89.81,2.72h0c.2-.81.49-1.7.85-2.72l1.44-3.91h1.33l.5,8.09h-1Z"/><path d="M502.81,78.32l-.09-.74h0a2.17,2.17,0,0,1-1.78.87,1.65,1.65,0,0,1-1.77-1.67c0-1.4,1.24-2.17,3.48-2.16V74.5a1.19,1.19,0,0,0-1.31-1.34,3,3,0,0,0-1.52.43l-.24-.7a3.63,3.63,0,0,1,1.91-.51c1.78,0,2.21,1.21,2.21,2.37v2.17a8.52,8.52,0,0,0,.09,1.4Zm-.16-3c-1.15,0-2.46.18-2.46,1.31a.94.94,0,0,0,1,1,1.45,1.45,0,0,0,1.4-1,1.35,1.35,0,0,0,.06-.34Z"/><path d="M505.37,74.08c0-.6,0-1.09,0-1.57h.93l.06,1h0a2.13,2.13,0,0,1,1.92-1.09c.8,0,2.05.48,2.05,2.47v3.47h-1.06V75c0-.94-.35-1.72-1.34-1.72a1.51,1.51,0,0,0-1.42,1.08,1.55,1.55,0,0,0-.07.5v3.49h-1.06Z"/><path d="M515.25,78.32l-.09-.74h0a2.16,2.16,0,0,1-1.78.87,1.65,1.65,0,0,1-1.77-1.67c0-1.4,1.25-2.17,3.49-2.16V74.5a1.19,1.19,0,0,0-1.32-1.34,2.93,2.93,0,0,0-1.51.43l-.24-.7a3.61,3.61,0,0,1,1.91-.51c1.77,0,2.2,1.21,2.2,2.37v2.17a8.44,8.44,0,0,0,.1,1.4Zm-.16-3c-1.15,0-2.46.18-2.46,1.31a.94.94,0,0,0,1,1,1.44,1.44,0,0,0,1.4-1,1,1,0,0,0,.06-.34Z"/><path d="M522.82,72.51c0,.42-.05.89-.05,1.6v3.37a3.36,3.36,0,0,1-.82,2.65,3.13,3.13,0,0,1-2.12.69,3.78,3.78,0,0,1-1.93-.48l.27-.8a3.25,3.25,0,0,0,1.7.45c1.08,0,1.87-.56,1.87-2v-.65h0a2.08,2.08,0,0,1-1.85,1,2.59,2.59,0,0,1-2.47-2.83A2.78,2.78,0,0,1,520,72.38a1.92,1.92,0,0,1,1.81,1h0l0-.88Zm-1.09,2.29a1.47,1.47,0,0,0-.06-.48,1.52,1.52,0,0,0-1.48-1.11c-1,0-1.72.85-1.72,2.19,0,1.14.57,2.09,1.71,2.09a1.55,1.55,0,0,0,1.47-1.08,2.18,2.18,0,0,0,.08-.57Z"/><path d="M525.11,75.61a1.87,1.87,0,0,0,2,2,3.75,3.75,0,0,0,1.6-.3l.18.76a4.8,4.8,0,0,1-1.93.36,2.69,2.69,0,0,1-2.85-2.93c0-1.75,1-3.13,2.72-3.13a2.46,2.46,0,0,1,2.4,2.73,4.36,4.36,0,0,1,0,.5Zm3.1-.76a1.51,1.51,0,0,0-1.46-1.72,1.75,1.75,0,0,0-1.62,1.72Z"/><path d="M530.54,74.08c0-.6,0-1.09,0-1.57h.92l.05.94h0a2,2,0,0,1,1.82-1.07A1.71,1.71,0,0,1,535,73.54h0a2.42,2.42,0,0,1,.65-.75,1.93,1.93,0,0,1,1.28-.41c.77,0,1.91.5,1.91,2.52v3.42h-1V75c0-1.12-.4-1.79-1.26-1.79a1.38,1.38,0,0,0-1.24,1,1.73,1.73,0,0,0-.09.53v3.59h-1V74.84c0-.93-.41-1.6-1.21-1.6a1.45,1.45,0,0,0-1.31,1.06,1.4,1.4,0,0,0-.08.51v3.51h-1Z"/><path d="M541.13,75.61a1.86,1.86,0,0,0,2,2,3.76,3.76,0,0,0,1.61-.3l.18.76a4.84,4.84,0,0,1-1.93.36,2.69,2.69,0,0,1-2.85-2.93c0-1.75,1-3.13,2.72-3.13a2.46,2.46,0,0,1,2.4,2.73,4.36,4.36,0,0,1,0,.5Zm3.1-.76a1.51,1.51,0,0,0-1.46-1.72,1.75,1.75,0,0,0-1.62,1.72Z"/><path d="M546.56,74.08c0-.6,0-1.09,0-1.57h.94l.06,1h0a2.14,2.14,0,0,1,1.92-1.09c.8,0,2,.48,2,2.47v3.47h-1.06V75c0-.94-.34-1.72-1.34-1.72a1.49,1.49,0,0,0-1.41,1.08,1.54,1.54,0,0,0-.08.5v3.49h-1.05Z"/><path d="M554.44,70.84v1.67H556v.8h-1.51v3.13c0,.72.21,1.13.79,1.13a2.29,2.29,0,0,0,.62-.07l0,.79a2.42,2.42,0,0,1-.93.15,1.46,1.46,0,0,1-1.14-.45,2.15,2.15,0,0,1-.41-1.51V73.31h-.9v-.8h.9V71.12Z"/><path d="M491,88.23v8.09h-1V88.23Z"/><path d="M498,93.37a2.84,2.84,0,0,1-2.89,3.08,2.76,2.76,0,0,1-2.78-3,2.83,2.83,0,0,1,2.88-3.08A2.75,2.75,0,0,1,498,93.37Zm-4.6,0c0,1.28.73,2.24,1.76,2.24s1.76-1,1.76-2.26c0-1-.49-2.23-1.74-2.23S493.39,92.32,493.39,93.42Z"/><path d="M500.42,89.12H498v-.89h6v.89h-2.47v7.2h-1.05Z"/><path d="M509.8,92.68v.78h-3v-.78Z"/><path d="M513.62,88.33a11.33,11.33,0,0,1,2-.16,3.34,3.34,0,0,1,2.27.67,2.21,2.21,0,0,1,.71,1.69,2.37,2.37,0,0,1-.63,1.73,3.34,3.34,0,0,1-2.47.89,3.61,3.61,0,0,1-.84-.07v3.24h-1Zm1,3.9a3.58,3.58,0,0,0,.87.08c1.25,0,2-.61,2-1.73S516.8,89,515.65,89a5.05,5.05,0,0,0-1,.08Z"/><path d="M519.78,92.32c0-.68,0-1.27,0-1.81h.92l0,1.14h0a1.75,1.75,0,0,1,1.61-1.27,1.32,1.32,0,0,1,.3,0v1a1.79,1.79,0,0,0-.36,0,1.48,1.48,0,0,0-1.41,1.36,2.38,2.38,0,0,0,0,.49v3.1h-1Z"/><path d="M524.17,93.61a1.85,1.85,0,0,0,2,2,3.75,3.75,0,0,0,1.6-.3l.19.76a4.9,4.9,0,0,1-1.94.36,2.7,2.7,0,0,1-2.85-2.93c0-1.75,1-3.13,2.72-3.13a2.46,2.46,0,0,1,2.4,2.73,2.85,2.85,0,0,1,0,.5Zm3.09-.76a1.5,1.5,0,0,0-1.46-1.72,1.75,1.75,0,0,0-1.62,1.72Z"/><path d="M534.6,87.8v7c0,.51,0,1.1,0,1.5h-.95l0-1h0a2.14,2.14,0,0,1-2,1.14c-1.4,0-2.48-1.19-2.48-3,0-1.93,1.19-3.12,2.6-3.12a2,2,0,0,1,1.76.89h0V87.8Zm-1.05,5.07a1.65,1.65,0,0,0,0-.44A1.55,1.55,0,0,0,532,91.21c-1.09,0-1.74,1-1.74,2.24s.57,2.15,1.71,2.15a1.59,1.59,0,0,0,1.55-1.26,1.71,1.71,0,0,0,0-.46Z"/><path d="M537.53,88.88a.62.62,0,0,1-.67.65.63.63,0,0,1-.63-.65.64.64,0,0,1,.66-.66A.62.62,0,0,1,537.53,88.88Zm-1.17,7.44V90.51h1v5.81Z"/><path d="M543.3,96.1a3.87,3.87,0,0,1-1.66.34,2.76,2.76,0,0,1-2.89-3,3,3,0,0,1,3.12-3.08,3.6,3.6,0,0,1,1.46.3l-.24.82a2.37,2.37,0,0,0-1.22-.28,2.19,2.19,0,0,0,0,4.37,3,3,0,0,0,1.29-.29Z"/><path d="M546,88.84v1.67h1.51v.8H546v3.13c0,.72.2,1.13.79,1.13a2.15,2.15,0,0,0,.61-.07l0,.79a2.42,2.42,0,0,1-.93.15,1.45,1.45,0,0,1-1.14-.45,2.15,2.15,0,0,1-.41-1.51V91.31H544v-.8h.9V89.12Z"/><path d="M549.85,88.88a.63.63,0,0,1-.68.65.63.63,0,0,1-.63-.65.65.65,0,0,1,.66-.66A.63.63,0,0,1,549.85,88.88Zm-1.18,7.44V90.51h1.06v5.81Z"/><path d="M551.89,90.51,553,93.77a15.54,15.54,0,0,1,.46,1.49h0c.13-.48.3-1,.49-1.49l1.13-3.26h1.1L554,96.32h-1l-2.21-5.81Z"/><path d="M557.72,93.61a1.85,1.85,0,0,0,2,2,3.83,3.83,0,0,0,1.61-.3l.18.76a4.88,4.88,0,0,1-1.93.36,2.7,2.7,0,0,1-2.86-2.93c0-1.75,1-3.13,2.72-3.13a2.46,2.46,0,0,1,2.4,2.73,4.92,4.92,0,0,1,0,.5Zm3.09-.76a1.5,1.5,0,0,0-1.46-1.72,1.75,1.75,0,0,0-1.62,1.72Z"/><path d="M572.53,92.77c-.06-1.13-.13-2.49-.12-3.49h0c-.28.94-.61,2-1,3.07l-1.43,3.92h-.79l-1.31-3.85c-.38-1.14-.7-2.18-.93-3.14h0c0,1-.08,2.36-.15,3.57l-.22,3.47h-1l.56-8.09h1.33l1.38,3.91c.34,1,.61,1.89.82,2.72h0c.21-.81.49-1.7.85-2.72l1.44-3.91h1.33l.51,8.09h-1Z"/><path d="M578.62,96.32l-.08-.74h0a2.15,2.15,0,0,1-1.77.87A1.66,1.66,0,0,1,575,94.78c0-1.4,1.25-2.17,3.49-2.16V92.5a1.19,1.19,0,0,0-1.32-1.34,2.93,2.93,0,0,0-1.51.43l-.24-.7a3.63,3.63,0,0,1,1.91-.51c1.77,0,2.2,1.21,2.2,2.37v2.17a8.44,8.44,0,0,0,.1,1.4Zm-.16-3c-1.15,0-2.45.18-2.45,1.31a.93.93,0,0,0,1,1,1.43,1.43,0,0,0,1.4-1,1,1,0,0,0,.06-.34Z"/><path d="M582.36,88.88a.62.62,0,0,1-.67.65.63.63,0,0,1-.63-.65.64.64,0,0,1,.66-.66A.62.62,0,0,1,582.36,88.88Zm-1.17,7.44V90.51h1.06v5.81Z"/><path d="M584,92.08c0-.6,0-1.09,0-1.57h.94l.06,1h0a2.14,2.14,0,0,1,1.92-1.09c.8,0,2.05.48,2.05,2.47v3.47h-1.06V93c0-.94-.34-1.72-1.34-1.72a1.51,1.51,0,0,0-1.41,1.08,1.54,1.54,0,0,0-.08.5v3.49h-1Z"/><path d="M591.88,88.84v1.67h1.51v.8h-1.51v3.13c0,.72.2,1.13.79,1.13a2.15,2.15,0,0,0,.61-.07l.05.79a2.42,2.42,0,0,1-.93.15,1.45,1.45,0,0,1-1.14-.45,2.15,2.15,0,0,1-.41-1.51V91.31H590v-.8h.9V89.12Z"/><path d="M595.1,93.61a1.85,1.85,0,0,0,2,2,3.83,3.83,0,0,0,1.61-.3l.18.76a4.9,4.9,0,0,1-1.94.36,2.7,2.7,0,0,1-2.85-2.93c0-1.75,1-3.13,2.72-3.13a2.46,2.46,0,0,1,2.4,2.73,4.92,4.92,0,0,1,0,.5Zm3.09-.76a1.5,1.5,0,0,0-1.46-1.72,1.75,1.75,0,0,0-1.62,1.72Z"/><path d="M600.52,92.08c0-.6,0-1.09,0-1.57h.94l.06,1h0a2.14,2.14,0,0,1,1.92-1.09c.81,0,2.05.48,2.05,2.47v3.47h-1.05V93c0-.94-.35-1.72-1.35-1.72a1.51,1.51,0,0,0-1.41,1.08,1.55,1.55,0,0,0-.07.5v3.49h-1.06Z"/><path d="M610.4,96.32l-.09-.74h0a2.17,2.17,0,0,1-1.78.87,1.65,1.65,0,0,1-1.77-1.67c0-1.4,1.24-2.17,3.49-2.16V92.5a1.2,1.2,0,0,0-1.32-1.34,2.9,2.9,0,0,0-1.51.43l-.24-.7a3.6,3.6,0,0,1,1.9-.51c1.78,0,2.21,1.21,2.21,2.37v2.17a7.49,7.49,0,0,0,.1,1.4Zm-.16-3c-1.15,0-2.46.18-2.46,1.31a.94.94,0,0,0,1,1,1.45,1.45,0,0,0,1.4-1,1,1,0,0,0,.06-.34Z"/><path d="M613,92.08c0-.6,0-1.09-.05-1.57h.93l.06,1h0a2.14,2.14,0,0,1,1.92-1.09c.8,0,2,.48,2,2.47v3.47h-1.06V93c0-.94-.35-1.72-1.34-1.72a1.51,1.51,0,0,0-1.42,1.08,1.89,1.89,0,0,0-.07.5v3.49h-1Z"/><path d="M623.76,96.1a3.87,3.87,0,0,1-1.66.34,2.76,2.76,0,0,1-2.89-3,3,3,0,0,1,3.11-3.08,3.61,3.61,0,0,1,1.47.3l-.24.82a2.39,2.39,0,0,0-1.23-.28,2.19,2.19,0,0,0,0,4.37,3,3,0,0,0,1.29-.29Z"/><path d="M625.52,93.61a1.85,1.85,0,0,0,2,2,3.75,3.75,0,0,0,1.6-.3l.19.76a4.9,4.9,0,0,1-1.94.36,2.7,2.7,0,0,1-2.85-2.93c0-1.75,1-3.13,2.72-3.13a2.46,2.46,0,0,1,2.4,2.73,4.92,4.92,0,0,1,0,.5Zm3.09-.76a1.5,1.5,0,0,0-1.46-1.72,1.75,1.75,0,0,0-1.62,1.72Z"/><path d="M489.79,113.1a3.41,3.41,0,0,0,1.72.5c1.36,0,1.78-.87,1.77-1.52,0-1.09-1-1.55-2-1.55h-.59v-.8h.59c.77,0,1.74-.39,1.74-1.32,0-.62-.39-1.17-1.37-1.17a2.89,2.89,0,0,0-1.56.52l-.27-.77a3.71,3.71,0,0,1,2-.6c1.53,0,2.23.91,2.23,1.86a1.94,1.94,0,0,1-1.44,1.83v0a2,2,0,0,1,1.74,2c0,1.25-1,2.34-2.84,2.34a4,4,0,0,1-2-.53Z"/><path d="M500.14,107.26a3.8,3.8,0,0,0-.79,0,3.17,3.17,0,0,0-2.71,2.77h0a2.35,2.35,0,0,1,1.89-.9,2.32,2.32,0,0,1,2.35,2.52,2.61,2.61,0,0,1-2.59,2.75c-1.67,0-2.76-1.3-2.76-3.32a4.9,4.9,0,0,1,1.32-3.52,4.28,4.28,0,0,1,2.49-1.15,4.93,4.93,0,0,1,.77-.06Zm-.3,4.5a1.59,1.59,0,0,0-1.61-1.79,1.75,1.75,0,0,0-1.51,1,.93.93,0,0,0-.12.47c0,1.28.61,2.23,1.72,2.23C499.23,113.63,499.84,112.88,499.84,111.76Z"/><path d="M507,110.33c0,2.65-1,4.12-2.71,4.12-1.53,0-2.56-1.43-2.58-4s1.13-4,2.71-4S507,107.85,507,110.33Zm-4.24.12c0,2,.63,3.18,1.59,3.18s1.59-1.26,1.59-3.25-.49-3.18-1.58-3.18C503.47,107.2,502.79,108.33,502.79,110.45Z"/><path d="M511,107.66a1.6,1.6,0,0,1-1.61,1.61,1.53,1.53,0,0,1-1.57-1.55,1.58,1.58,0,0,1,1.6-1.62A1.53,1.53,0,0,1,511,107.66Zm-2.53.06a1,1,0,0,0,.93,1,1,1,0,0,0,.95-1,.94.94,0,0,0-.95-1A1,1,0,0,0,508.46,107.72Z"/><path d="M520.38,114.05a5.16,5.16,0,0,1-2.13.39,3.78,3.78,0,0,1-4-4.09,4,4,0,0,1,4.23-4.25,4.44,4.44,0,0,1,1.92.36l-.26.85a3.82,3.82,0,0,0-1.63-.33,3,3,0,0,0-3.15,3.33,2.94,2.94,0,0,0,3.1,3.25,4.1,4.1,0,0,0,1.71-.34Z"/><path d="M526.37,112.73c0,.6,0,1.13,0,1.59h-.94l-.06-.95h0a2.19,2.19,0,0,1-1.92,1.08c-.91,0-2-.51-2-2.55v-3.39h1v3.21c0,1.11.34,1.85,1.3,1.85a1.5,1.5,0,0,0,1.49-1.5v-3.56h1Z"/><path d="M528,113.24a2.82,2.82,0,0,0,1.39.42c.77,0,1.13-.39,1.13-.87s-.3-.78-1.08-1.07c-1-.37-1.53-.94-1.53-1.64a1.79,1.79,0,0,1,2-1.7,2.94,2.94,0,0,1,1.43.36l-.27.77a2.22,2.22,0,0,0-1.19-.34c-.62,0-1,.36-1,.79s.35.7,1.11,1c1,.38,1.52.88,1.52,1.75s-.79,1.74-2.17,1.74a3.3,3.3,0,0,1-1.63-.4Z"/><path d="M534.15,106.84v1.67h1.51v.8h-1.51v3.13c0,.72.2,1.13.79,1.13a2.15,2.15,0,0,0,.61-.07l.05.79a2.44,2.44,0,0,1-.94.15,1.44,1.44,0,0,1-1.13-.45,2.15,2.15,0,0,1-.41-1.51v-3.17h-.9v-.8h.9v-1.39Z"/><path d="M542,111.37a2.84,2.84,0,0,1-2.89,3.08,2.76,2.76,0,0,1-2.78-3,2.83,2.83,0,0,1,2.88-3.08A2.75,2.75,0,0,1,542,111.37Zm-4.6,0c0,1.28.73,2.24,1.76,2.24s1.76-1,1.76-2.26c0-1-.49-2.23-1.74-2.23S537.43,110.32,537.43,111.42Z"/><path d="M543.37,110.08c0-.6,0-1.09,0-1.57h.92l0,.94h0a2,2,0,0,1,1.82-1.07,1.71,1.71,0,0,1,1.64,1.16h0a2.39,2.39,0,0,1,.64-.75,2,2,0,0,1,1.29-.41c.76,0,1.9.5,1.9,2.52v3.42h-1V111c0-1.12-.41-1.79-1.26-1.79a1.37,1.37,0,0,0-1.24,1,1.73,1.73,0,0,0-.09.53v3.59h-1v-3.48c0-.93-.41-1.6-1.21-1.6a1.45,1.45,0,0,0-1.31,1.06,1.4,1.4,0,0,0-.08.51v3.51h-1Z"/><path d="M554,111.61a1.86,1.86,0,0,0,2,2,3.8,3.8,0,0,0,1.61-.3l.18.76a4.84,4.84,0,0,1-1.93.36,2.7,2.7,0,0,1-2.86-2.93c0-1.75,1-3.13,2.73-3.13a2.46,2.46,0,0,1,2.4,2.73,4.36,4.36,0,0,1,0,.5Zm3.1-.76a1.51,1.51,0,0,0-1.47-1.72,1.77,1.77,0,0,0-1.62,1.72Z"/><path d="M559.39,110.32c0-.68,0-1.27,0-1.81h.92l0,1.14h.05a1.73,1.73,0,0,1,1.6-1.27,1.32,1.32,0,0,1,.3,0v1a1.79,1.79,0,0,0-.36,0,1.48,1.48,0,0,0-1.41,1.36,2.38,2.38,0,0,0-.05.49v3.1h-1Z"/><path d="M566.26,108.51l1.14,3.26c.19.53.35,1,.47,1.49h0c.14-.48.3-1,.5-1.49l1.12-3.26h1.11l-2.28,5.81h-1l-2.21-5.81Z"/><path d="M572.8,106.88a.62.62,0,0,1-.67.65.63.63,0,0,1-.64-.65.65.65,0,0,1,.66-.66A.63.63,0,0,1,572.8,106.88Zm-1.17,7.44v-5.81h1v5.81Z"/><path d="M575,111.61a1.86,1.86,0,0,0,2,2,3.8,3.8,0,0,0,1.61-.3l.18.76a4.84,4.84,0,0,1-1.93.36,2.7,2.7,0,0,1-2.86-2.93c0-1.75,1-3.13,2.73-3.13a2.46,2.46,0,0,1,2.4,2.73,4.36,4.36,0,0,1,0,.5Zm3.1-.76a1.51,1.51,0,0,0-1.47-1.72,1.76,1.76,0,0,0-1.62,1.72Z"/><path d="M580.86,108.51l.77,2.95c.17.65.33,1.25.43,1.85h0c.13-.59.32-1.21.52-1.84l.94-3h.89l.9,2.9c.22.7.38,1.31.52,1.9h0a17,17,0,0,1,.45-1.89l.82-2.91h1.05l-1.87,5.81h-1l-.89-2.77c-.2-.65-.37-1.23-.52-1.91h0a15.86,15.86,0,0,1-.53,1.92l-.93,2.76h-1l-1.75-5.81Z"/><path d="M28.09,229.53H25v2.91h3.5v.88H23.91v-8.09h4.36v.88H25v2.55h3.14Z"/><path d="M29.78,229.08c0-.6,0-1.09-.05-1.57h.93l.06,1h0a2.13,2.13,0,0,1,1.92-1.09c.8,0,2,.48,2,2.47v3.47H33.66V230c0-.94-.35-1.72-1.34-1.72a1.51,1.51,0,0,0-1.42,1.08,1.89,1.89,0,0,0-.07.5v3.49h-1Z"/><path d="M36.69,227.51l1.14,3.26c.19.53.34,1,.47,1.49h0c.13-.48.3-1,.49-1.49L40,227.51h1.1l-2.28,5.81h-1l-2.21-5.81Z"/><path d="M43.23,225.88a.66.66,0,0,1-1.31,0,.65.65,0,0,1,.66-.66A.63.63,0,0,1,43.23,225.88Zm-1.18,7.44v-5.81h1.06v5.81Z"/><path d="M44.86,229.32c0-.68,0-1.27,0-1.81h.93l0,1.14h0a1.74,1.74,0,0,1,1.61-1.27,1.39,1.39,0,0,1,.3,0v1a1.88,1.88,0,0,0-.36,0A1.49,1.49,0,0,0,46,229.73a3.37,3.37,0,0,0-.05.49v3.1h-1Z"/><path d="M53.92,230.37A2.84,2.84,0,0,1,51,233.45a2.77,2.77,0,0,1-2.79-3,2.84,2.84,0,0,1,2.88-3.08A2.75,2.75,0,0,1,53.92,230.37Zm-4.61.06c0,1.27.73,2.23,1.76,2.23s1.77-.95,1.77-2.26c0-1-.49-2.23-1.74-2.23S49.31,229.32,49.31,230.43Z"/><path d="M55.25,229.08c0-.6,0-1.09,0-1.57h.94l.06,1h0a2.14,2.14,0,0,1,1.92-1.09c.81,0,2,.48,2,2.47v3.47h-1V230c0-.94-.35-1.72-1.35-1.72a1.51,1.51,0,0,0-1.41,1.08,1.55,1.55,0,0,0-.07.5v3.49H55.25Z"/><path d="M61.91,229.08c0-.6,0-1.09,0-1.57h.93l.05.94h0a2,2,0,0,1,1.82-1.07,1.72,1.72,0,0,1,1.65,1.16h0a2.42,2.42,0,0,1,.65-.75,2,2,0,0,1,1.28-.41c.77,0,1.91.5,1.91,2.52v3.42h-1V230c0-1.12-.41-1.79-1.26-1.79a1.38,1.38,0,0,0-1.25,1,1.74,1.74,0,0,0-.08.53v3.59h-1v-3.48c0-.93-.41-1.6-1.22-1.6A1.44,1.44,0,0,0,63,229.3a1.4,1.4,0,0,0-.09.51v3.51h-1Z"/><path d="M72.51,230.61a1.85,1.85,0,0,0,2,2,3.83,3.83,0,0,0,1.61-.3l.18.76a4.9,4.9,0,0,1-1.94.36,2.7,2.7,0,0,1-2.85-2.93c0-1.75,1-3.13,2.72-3.13a2.46,2.46,0,0,1,2.4,2.73,4.92,4.92,0,0,1,0,.5Zm3.09-.76a1.5,1.5,0,0,0-1.46-1.72,1.75,1.75,0,0,0-1.62,1.72Z"/><path d="M77.93,229.08c0-.6,0-1.09-.05-1.57h.94l.06,1h0a2.14,2.14,0,0,1,1.92-1.09c.81,0,2.05.48,2.05,2.47v3.47H81.82V230c0-.94-.35-1.72-1.35-1.72a1.51,1.51,0,0,0-1.41,1.08,1.55,1.55,0,0,0-.07.5v3.49H77.93Z"/><path d="M85.82,225.84v1.67h1.51v.8H85.82v3.13c0,.72.2,1.13.79,1.13a2.21,2.21,0,0,0,.61-.07l0,.79a2.48,2.48,0,0,1-.94.15,1.46,1.46,0,0,1-1.14-.45,2.15,2.15,0,0,1-.41-1.51v-3.17h-.9v-.8h.9v-1.39Z"/><path d="M91.73,233.32l-.08-.74h0a2.16,2.16,0,0,1-1.78.87,1.65,1.65,0,0,1-1.77-1.67c0-1.4,1.25-2.17,3.49-2.16v-.12a1.19,1.19,0,0,0-1.32-1.34,2.93,2.93,0,0,0-1.51.43l-.24-.69a3.52,3.52,0,0,1,1.91-.52c1.77,0,2.2,1.21,2.2,2.37v2.17a8.44,8.44,0,0,0,.1,1.4Zm-.16-3c-1.15,0-2.46.18-2.46,1.31a.94.94,0,0,0,1,1,1.43,1.43,0,0,0,1.4-1,1,1,0,0,0,.06-.34Z"/><path d="M94.3,224.8h1.06v8.52H94.3Z"/><path d="M105.36,233.05a5.16,5.16,0,0,1-2.13.39,3.78,3.78,0,0,1-4-4.09,4,4,0,0,1,4.22-4.25,4.37,4.37,0,0,1,1.92.36l-.25.85a3.85,3.85,0,0,0-1.63-.33,3,3,0,0,0-3.15,3.33,2.93,2.93,0,0,0,3.1,3.25,4,4,0,0,0,1.7-.34Z"/><path d="M111.76,230.37a2.84,2.84,0,0,1-2.89,3.08,2.77,2.77,0,0,1-2.79-3,2.84,2.84,0,0,1,2.88-3.08A2.75,2.75,0,0,1,111.76,230.37Zm-4.61.06c0,1.27.73,2.23,1.76,2.23s1.77-.95,1.77-2.26c0-1-.49-2.23-1.74-2.23S107.15,229.32,107.15,230.43Z"/><path d="M113.09,229.08c0-.6,0-1.09,0-1.57H114l0,.94h0a2,2,0,0,1,1.82-1.07,1.72,1.72,0,0,1,1.65,1.16h0a2.42,2.42,0,0,1,.65-.75,2,2,0,0,1,1.28-.41c.77,0,1.91.5,1.91,2.52v3.42h-1V230c0-1.12-.41-1.79-1.26-1.79a1.38,1.38,0,0,0-1.25,1,1.74,1.74,0,0,0-.08.53v3.59h-1v-3.48c0-.93-.41-1.6-1.22-1.6a1.43,1.43,0,0,0-1.3,1.06,1.4,1.4,0,0,0-.09.51v3.51h-1Z"/><path d="M123.1,229.41c0-.75,0-1.35,0-1.9h1l0,1h0a2.28,2.28,0,0,1,2.06-1.13c1.41,0,2.46,1.19,2.46,3,0,2.09-1.27,3.12-2.64,3.12a2,2,0,0,1-1.78-.91h0v3.15h-1Zm1,1.54a2.68,2.68,0,0,0,0,.43,1.62,1.62,0,0,0,1.58,1.24c1.12,0,1.77-.91,1.77-2.24,0-1.17-.61-2.16-1.73-2.16a1.69,1.69,0,0,0-1.6,1.31,1.93,1.93,0,0,0-.07.43Z"/><path d="M129.93,224.8h1v8.52h-1Z"/><path d="M133.93,225.88a.62.62,0,0,1-.67.65.63.63,0,0,1-.63-.65.64.64,0,0,1,.66-.66A.62.62,0,0,1,133.93,225.88Zm-1.17,7.44v-5.81h1.05v5.81Z"/><path d="M138.78,233.32l-.08-.74h0a2.15,2.15,0,0,1-1.77.87,1.66,1.66,0,0,1-1.78-1.67c0-1.4,1.25-2.17,3.49-2.16v-.12a1.19,1.19,0,0,0-1.32-1.34,2.93,2.93,0,0,0-1.51.43l-.24-.69a3.55,3.55,0,0,1,1.91-.52c1.77,0,2.2,1.21,2.2,2.37v2.17a8.44,8.44,0,0,0,.1,1.4Zm-.15-3c-1.16,0-2.46.18-2.46,1.31a.93.93,0,0,0,1,1,1.45,1.45,0,0,0,1.41-1,1.35,1.35,0,0,0,.06-.34Z"/><path d="M141.35,229.08c0-.6,0-1.09,0-1.57h.94l.06,1h0a2.14,2.14,0,0,1,1.92-1.09c.81,0,2,.48,2,2.47v3.47h-1V230c0-.94-.35-1.72-1.35-1.72a1.51,1.51,0,0,0-1.41,1.08,1.55,1.55,0,0,0-.07.5v3.49h-1.06Z"/><path d="M152.15,233.1a4,4,0,0,1-1.67.34,2.76,2.76,0,0,1-2.89-3,3,3,0,0,1,3.12-3.08,3.56,3.56,0,0,1,1.46.3l-.24.82a2.35,2.35,0,0,0-1.22-.28,2,2,0,0,0-2.05,2.2,2,2,0,0,0,2,2.17,3,3,0,0,0,1.3-.29Z"/><path d="M153.9,230.61a1.86,1.86,0,0,0,2,2,3.76,3.76,0,0,0,1.61-.3l.18.76a4.84,4.84,0,0,1-1.93.36,2.69,2.69,0,0,1-2.85-2.93c0-1.75,1-3.13,2.72-3.13a2.46,2.46,0,0,1,2.4,2.73,4.36,4.36,0,0,1,0,.5Zm3.1-.76a1.51,1.51,0,0,0-1.47-1.72,1.75,1.75,0,0,0-1.61,1.72Z"/><path d="M28.09,247.53H25v2.91h3.5v.88H23.91v-8.09h4.36v.88H25v2.55h3.14Z"/><path d="M29.78,247.08c0-.6,0-1.09-.05-1.57h.93l.06,1h0a2.13,2.13,0,0,1,1.92-1.09c.8,0,2,.48,2,2.47v3.47H33.66V248c0-.94-.35-1.72-1.34-1.72a1.51,1.51,0,0,0-1.42,1.08,1.89,1.89,0,0,0-.07.5v3.49h-1Z"/><path d="M37,248.61a1.86,1.86,0,0,0,2,2,3.76,3.76,0,0,0,1.61-.3l.18.76a4.84,4.84,0,0,1-1.93.36A2.69,2.69,0,0,1,36,248.51c0-1.75,1-3.13,2.72-3.13a2.46,2.46,0,0,1,2.4,2.73,4.36,4.36,0,0,1,0,.5Zm3.1-.76a1.51,1.51,0,0,0-1.47-1.72A1.75,1.75,0,0,0,37,247.85Z"/><path d="M42.45,247.32c0-.68,0-1.27-.05-1.81h.92l0,1.14h0a1.74,1.74,0,0,1,1.6-1.27,1.32,1.32,0,0,1,.3,0v1a1.71,1.71,0,0,0-.36,0,1.48,1.48,0,0,0-1.41,1.36,2.38,2.38,0,0,0,0,.49v3.1h-1Z"/><path d="M51.28,245.51c0,.42-.05.89-.05,1.6v3.37a3.32,3.32,0,0,1-.83,2.65,3.11,3.11,0,0,1-2.11.69,3.76,3.76,0,0,1-1.93-.48l.26-.8a3.32,3.32,0,0,0,1.71.45c1.08,0,1.87-.56,1.87-2v-.65h0a2.05,2.05,0,0,1-1.84,1,2.59,2.59,0,0,1-2.47-2.83,2.78,2.78,0,0,1,2.61-3.08,1.92,1.92,0,0,1,1.81,1h0l0-.88Zm-1.09,2.29a1.8,1.8,0,0,0-.06-.48,1.53,1.53,0,0,0-1.48-1.11c-1,0-1.73.85-1.73,2.19,0,1.14.58,2.09,1.72,2.09a1.54,1.54,0,0,0,1.46-1.08,1.82,1.82,0,0,0,.09-.56Z"/><path d="M53.37,245.51l1.27,3.43c.13.38.27.84.37,1.19h0c.11-.35.23-.79.38-1.21l1.15-3.41h1.11l-1.58,4.14c-.76,2-1.27,3-2,3.63a2.87,2.87,0,0,1-1.3.69l-.26-.89a2.82,2.82,0,0,0,.92-.52,3.09,3.09,0,0,0,.89-1.17.69.69,0,0,0,.08-.25.85.85,0,0,0-.07-.28l-2.14-5.35Z"/><path d="M65.4,247.53H62.26v2.91h3.5v.88H61.22v-8.09h4.36v.88H62.26v2.55H65.4Z"/><path d="M74.35,243.83a2.23,2.23,0,0,0-1.17-.31c-1.12,0-1.46.78-1.46,1.7v.29h3.39v5.81H74.05v-5H71.74v5H70.68v-5H68.23v5h-1v-5h-.81v-.8h.81v-.21a2.63,2.63,0,0,1,.7-1.94,2,2,0,0,1,1.48-.56,2.42,2.42,0,0,1,1,.25l-.28.78a1.75,1.75,0,0,0-.74-.2,1,1,0,0,0-.75.31,2,2,0,0,0-.39,1.34v.23h2.45v-.31a2.33,2.33,0,0,1,2.54-2.53,2.78,2.78,0,0,1,1.44.37Z"/><path d="M81,251.1a4,4,0,0,1-1.67.34,2.76,2.76,0,0,1-2.89-3,3,3,0,0,1,3.12-3.08,3.56,3.56,0,0,1,1.46.3l-.24.82a2.35,2.35,0,0,0-1.22-.28,2.19,2.19,0,0,0,0,4.37,3,3,0,0,0,1.29-.29Z"/><path d="M83.41,243.88a.62.62,0,0,1-.67.65.63.63,0,0,1-.63-.65.64.64,0,0,1,.66-.66A.62.62,0,0,1,83.41,243.88Zm-1.17,7.44v-5.81h1.05v5.81Z"/><path d="M85.63,248.61a1.87,1.87,0,0,0,2,2,3.75,3.75,0,0,0,1.6-.3l.18.76a4.8,4.8,0,0,1-1.93.36,2.69,2.69,0,0,1-2.85-2.93c0-1.75,1-3.13,2.72-3.13a2.46,2.46,0,0,1,2.4,2.73,4.36,4.36,0,0,1,0,.5Zm3.1-.76a1.51,1.51,0,0,0-1.46-1.72,1.75,1.75,0,0,0-1.62,1.72Z"/><path d="M91.06,247.08c0-.6,0-1.09,0-1.57H92l.06,1h0A2.14,2.14,0,0,1,94,245.38c.8,0,2,.48,2,2.47v3.47H94.94V248c0-.94-.34-1.72-1.34-1.72a1.51,1.51,0,0,0-1.41,1.08,1.54,1.54,0,0,0-.08.5v3.49h-1Z"/><path d="M101.86,251.1a4,4,0,0,1-1.67.34,2.76,2.76,0,0,1-2.89-3,3,3,0,0,1,3.12-3.08,3.6,3.6,0,0,1,1.46.3l-.24.82a2.37,2.37,0,0,0-1.22-.28,2,2,0,0,0-2,2.2,2,2,0,0,0,2,2.17,3,3,0,0,0,1.3-.29Z"/><path d="M103.69,245.51l1.28,3.43c.13.38.27.84.37,1.19h0c.11-.35.23-.79.37-1.21l1.15-3.41H108l-1.58,4.14c-.76,2-1.27,3-2,3.63a2.92,2.92,0,0,1-1.3.69l-.26-.89a2.82,2.82,0,0,0,.92-.52,3.09,3.09,0,0,0,.89-1.17.69.69,0,0,0,.08-.25.85.85,0,0,0-.07-.28l-2.15-5.35Z"/><path d="M23.91,261.34a14.33,14.33,0,0,1,2.22-.17,4.62,4.62,0,0,1,3.27,1,3.73,3.73,0,0,1,1.14,2.9,4.28,4.28,0,0,1-1.16,3.14,5,5,0,0,1-3.58,1.17,16.72,16.72,0,0,1-1.89-.1Zm1,7.15a6.45,6.45,0,0,0,1.06.06,3.11,3.11,0,0,0,3.44-3.43c0-1.91-1.07-3.12-3.28-3.12a5.89,5.89,0,0,0-1.22.11Z"/><path d="M35.08,269.32l-.09-.74h0a2.17,2.17,0,0,1-1.78.87,1.65,1.65,0,0,1-1.77-1.67c0-1.4,1.24-2.17,3.49-2.16v-.12a1.19,1.19,0,0,0-1.32-1.34,2.93,2.93,0,0,0-1.51.43l-.24-.69a3.51,3.51,0,0,1,1.9-.52c1.78,0,2.21,1.21,2.21,2.37v2.17a8.44,8.44,0,0,0,.1,1.4Zm-.16-3c-1.15,0-2.46.18-2.46,1.31a.94.94,0,0,0,1,1,1.45,1.45,0,0,0,1.4-1,1,1,0,0,0,.06-.34Z"/><path d="M38.87,261.84v1.67h1.51v.8H38.87v3.13c0,.72.2,1.13.79,1.13a2.15,2.15,0,0,0,.61-.07l0,.79a2.42,2.42,0,0,1-.93.15,1.46,1.46,0,0,1-1.14-.45,2.15,2.15,0,0,1-.41-1.51v-3.17h-.9v-.8h.9v-1.39Z"/><path d="M44.79,269.32l-.09-.74h0a2.17,2.17,0,0,1-1.78.87,1.65,1.65,0,0,1-1.77-1.67c0-1.4,1.24-2.17,3.49-2.16v-.12a1.2,1.2,0,0,0-1.32-1.34,2.9,2.9,0,0,0-1.51.43l-.24-.69a3.51,3.51,0,0,1,1.9-.52c1.78,0,2.21,1.21,2.21,2.37v2.17a7.49,7.49,0,0,0,.1,1.4Zm-.16-3c-1.15,0-2.46.18-2.46,1.31a.94.94,0,0,0,1,1,1.45,1.45,0,0,0,1.4-1,1,1,0,0,0,.06-.34Z"/><path d="M49.94,261.33a11.33,11.33,0,0,1,2-.16,3.34,3.34,0,0,1,2.27.67,2.2,2.2,0,0,1,.7,1.69,2.36,2.36,0,0,1-.62,1.73,3.34,3.34,0,0,1-2.47.89,3.61,3.61,0,0,1-.84-.07v3.24h-1Zm1,3.9a3.49,3.49,0,0,0,.86.08c1.26,0,2-.61,2-1.73S53.11,262,52,262a5,5,0,0,0-1,.08Z"/><path d="M56.09,265.32c0-.68,0-1.27-.05-1.81H57l0,1.14h0a1.74,1.74,0,0,1,1.61-1.27,1.39,1.39,0,0,1,.3,0v1a1.88,1.88,0,0,0-.36,0,1.49,1.49,0,0,0-1.42,1.36,3.37,3.37,0,0,0,0,.49v3.1h-1Z"/><path d="M61.24,261.88a.62.62,0,0,1-.67.65.63.63,0,0,1-.64-.65.65.65,0,0,1,.66-.66A.63.63,0,0,1,61.24,261.88Zm-1.18,7.44v-5.81h1.06v5.81Z"/><path d="M63.28,263.51l1.14,3.26c.19.53.35,1,.47,1.49h0c.13-.48.3-1,.49-1.49l1.13-3.26h1.1l-2.27,5.81h-1l-2.21-5.81Z"/><path d="M71.81,269.32l-.08-.74h0a2.16,2.16,0,0,1-1.78.87,1.65,1.65,0,0,1-1.77-1.67c0-1.4,1.25-2.17,3.49-2.16v-.12a1.19,1.19,0,0,0-1.32-1.34,2.93,2.93,0,0,0-1.51.43l-.24-.69a3.55,3.55,0,0,1,1.91-.52c1.77,0,2.2,1.21,2.2,2.37v2.17a8.44,8.44,0,0,0,.1,1.4Zm-.16-3c-1.15,0-2.45.18-2.45,1.31a.93.93,0,0,0,1,1,1.43,1.43,0,0,0,1.4-1,1,1,0,0,0,.06-.34Z"/><path d="M78.52,269.1a4,4,0,0,1-1.67.34,2.76,2.76,0,0,1-2.89-3,3,3,0,0,1,3.12-3.08,3.6,3.6,0,0,1,1.46.3l-.24.82a2.37,2.37,0,0,0-1.22-.28,2,2,0,0,0-2,2.2,2,2,0,0,0,2,2.17,3,3,0,0,0,1.3-.29Z"/><path d="M80.36,263.51l1.27,3.43c.13.38.27.84.37,1.19h0c.11-.35.23-.79.37-1.21l1.16-3.41h1.11l-1.58,4.14c-.76,2-1.27,3-2,3.63a2.87,2.87,0,0,1-1.3.69l-.26-.89a2.82,2.82,0,0,0,.92-.52,3.09,3.09,0,0,0,.89-1.17.69.69,0,0,0,.08-.25.85.85,0,0,0-.07-.28l-2.15-5.35Z"/><path d="M491,225.23v8.09h-1v-8.09Z"/><path d="M492.86,229.08c0-.6,0-1.09-.05-1.57h.94l.06,1h0a2.14,2.14,0,0,1,1.92-1.09c.8,0,2.05.48,2.05,2.47v3.47h-1.06V230c0-.94-.34-1.72-1.34-1.72a1.51,1.51,0,0,0-1.41,1.08,1.54,1.54,0,0,0-.08.5v3.49h-1.05Z"/><path d="M504.53,224.8v7c0,.51,0,1.1.05,1.5h-.95l0-1h0a2.14,2.14,0,0,1-2,1.14c-1.4,0-2.48-1.19-2.48-2.95,0-1.93,1.19-3.12,2.6-3.12a1.93,1.93,0,0,1,1.75.89h0V224.8Zm-1,5.07a1.65,1.65,0,0,0-.05-.44,1.55,1.55,0,0,0-1.52-1.22c-1.09,0-1.74,1-1.74,2.24s.57,2.15,1.71,2.15a1.59,1.59,0,0,0,1.55-1.26,1.71,1.71,0,0,0,.05-.46Z"/><path d="M511.15,231.73c0,.6,0,1.13,0,1.59h-.93l-.06-.95h0a2.16,2.16,0,0,1-1.92,1.08c-.91,0-2-.51-2-2.55v-3.39h1.06v3.22c0,1.1.33,1.84,1.29,1.84a1.52,1.52,0,0,0,1.39-1,1.49,1.49,0,0,0,.1-.54v-3.56h1.06Z"/><path d="M512.76,232.24a2.79,2.79,0,0,0,1.39.42c.76,0,1.12-.39,1.12-.87s-.3-.78-1.07-1.06c-1.05-.38-1.54-.95-1.54-1.65a1.79,1.79,0,0,1,2-1.7,2.91,2.91,0,0,1,1.43.36l-.26.77a2.22,2.22,0,0,0-1.19-.34c-.63,0-1,.36-1,.79s.34.7,1.1,1c1,.38,1.52.88,1.52,1.75,0,1-.79,1.74-2.17,1.74a3.33,3.33,0,0,1-1.63-.4Z"/><path d="M518.92,225.84v1.67h1.51v.8h-1.51v3.13c0,.72.21,1.13.79,1.13a2.29,2.29,0,0,0,.62-.07l0,.79a2.39,2.39,0,0,1-.93.15,1.46,1.46,0,0,1-1.14-.45,2.15,2.15,0,0,1-.41-1.51v-3.17H517v-.8h.9v-1.39Z"/><path d="M521.62,229.32c0-.68,0-1.27,0-1.81h.93l0,1.14h.05a1.75,1.75,0,0,1,1.61-1.27,1.39,1.39,0,0,1,.3,0v1a1.88,1.88,0,0,0-.36,0,1.5,1.5,0,0,0-1.42,1.36,3.47,3.47,0,0,0,0,.49v3.1h-1Z"/><path d="M526.23,227.51l1.27,3.43c.13.38.28.84.37,1.19h0c.11-.35.23-.79.37-1.21l1.15-3.41h1.12L529,231.65c-.75,2-1.27,3-2,3.63a2.85,2.85,0,0,1-1.29.69l-.27-.89a2.85,2.85,0,0,0,.93-.52,3.18,3.18,0,0,0,.88-1.17.76.76,0,0,0,.09-.25,1.22,1.22,0,0,0-.07-.28l-2.15-5.35Z"/><path d="M537,233.32v-2.13h-3.62v-.69l3.47-5H538v4.85h1.1v.82H538v2.13Zm0-2.95v-2.61c0-.4,0-.81,0-1.22h0c-.24.46-.43.79-.65,1.15l-1.91,2.65v0Z"/><path d="M540,232.69a.71.71,0,0,1,.72-.75.69.69,0,0,1,.7.75.71.71,0,1,1-1.42,0Z"/><path d="M547.53,229.33c0,2.66-1,4.12-2.71,4.12-1.53,0-2.56-1.43-2.58-4s1.13-4.05,2.71-4.05S547.53,226.85,547.53,229.33Zm-4.24.12c0,2,.63,3.18,1.59,3.18s1.59-1.26,1.59-3.25-.49-3.18-1.58-3.18C544,226.2,543.29,227.33,543.29,229.45Z"/><path d="M489.79,250.1a3.41,3.41,0,0,0,1.72.5c1.36,0,1.78-.87,1.77-1.52,0-1.09-1-1.55-2-1.55h-.59v-.8h.59c.77,0,1.74-.39,1.74-1.32,0-.62-.39-1.17-1.37-1.17a2.89,2.89,0,0,0-1.56.52l-.27-.77a3.71,3.71,0,0,1,2-.6c1.53,0,2.23.91,2.23,1.86a1.94,1.94,0,0,1-1.44,1.83v0a2,2,0,0,1,1.74,2c0,1.25-1,2.34-2.84,2.34a4,4,0,0,1-2-.53Z"/><path d="M496.06,243.34a14.44,14.44,0,0,1,2.22-.17,4.65,4.65,0,0,1,3.28,1,3.73,3.73,0,0,1,1.14,2.9,4.25,4.25,0,0,1-1.17,3.14,4.94,4.94,0,0,1-3.57,1.17,16.77,16.77,0,0,1-1.9-.1Zm1.05,7.15a6.25,6.25,0,0,0,1.05.06,3.11,3.11,0,0,0,3.44-3.43c0-1.91-1.06-3.12-3.27-3.12a5.82,5.82,0,0,0-1.22.11Z"/><path d="M506.6,243.33a11.33,11.33,0,0,1,2-.16,3.34,3.34,0,0,1,2.27.67,2.21,2.21,0,0,1,.71,1.69,2.37,2.37,0,0,1-.63,1.73,3.34,3.34,0,0,1-2.47.89,3.61,3.61,0,0,1-.84-.07v3.24h-1Zm1,3.9a3.58,3.58,0,0,0,.87.08c1.25,0,2-.61,2-1.73s-.75-1.58-1.9-1.58a5.05,5.05,0,0,0-1,.08Z"/><path d="M512.75,247.32c0-.68,0-1.27,0-1.81h.92l0,1.14h0a1.75,1.75,0,0,1,1.61-1.27,1.32,1.32,0,0,1,.3,0v1a1.88,1.88,0,0,0-.36,0,1.48,1.48,0,0,0-1.41,1.36,2.38,2.38,0,0,0-.05.49v3.1h-1Z"/><path d="M517.9,243.88a.62.62,0,0,1-.67.65.63.63,0,0,1-.64-.65.65.65,0,0,1,.66-.66A.63.63,0,0,1,517.9,243.88Zm-1.17,7.44v-5.81h1v5.81Z"/><path d="M519.53,247.08c0-.6,0-1.09,0-1.57h.93l.06,1h0a2.12,2.12,0,0,1,1.91-1.09c.81,0,2.06.48,2.06,2.47v3.47h-1.06V248c0-.94-.35-1.72-1.34-1.72a1.51,1.51,0,0,0-1.42,1.08,1.55,1.55,0,0,0-.07.5v3.49h-1.06Z"/><path d="M527.42,243.84v1.67h1.51v.8h-1.51v3.13c0,.72.2,1.13.79,1.13a2.15,2.15,0,0,0,.61-.07l0,.79a2.48,2.48,0,0,1-.94.15,1.47,1.47,0,0,1-1.14-.45,2.15,2.15,0,0,1-.4-1.51v-3.17h-.9v-.8h.9v-1.39Z"/><path d="M531.29,243.88a.62.62,0,0,1-.67.65.63.63,0,0,1-.63-.65.64.64,0,0,1,.66-.66A.62.62,0,0,1,531.29,243.88Zm-1.17,7.44v-5.81h1v5.81Z"/><path d="M532.93,247.08c0-.6,0-1.09,0-1.57h.93l.06,1h0a2.14,2.14,0,0,1,1.92-1.09c.8,0,2,.48,2,2.47v3.47h-1.06V248c0-.94-.35-1.72-1.34-1.72a1.51,1.51,0,0,0-1.42,1.08,1.89,1.89,0,0,0-.07.5v3.49h-1.05Z"/><path d="M544.59,245.51c0,.42-.05.89-.05,1.6v3.37a3.32,3.32,0,0,1-.83,2.65,3.11,3.11,0,0,1-2.11.69,3.76,3.76,0,0,1-1.93-.48l.26-.8a3.32,3.32,0,0,0,1.71.45c1.08,0,1.87-.56,1.87-2v-.65h0a2.05,2.05,0,0,1-1.84,1,2.59,2.59,0,0,1-2.47-2.83,2.78,2.78,0,0,1,2.61-3.08,1.92,1.92,0,0,1,1.81,1h0l0-.88Zm-1.1,2.29a1.82,1.82,0,0,0,0-.48,1.53,1.53,0,0,0-1.48-1.11c-1,0-1.73.85-1.73,2.19,0,1.14.58,2.09,1.72,2.09a1.54,1.54,0,0,0,1.46-1.08,1.81,1.81,0,0,0,.08-.56Z"/><path d="M489.76,268a3.68,3.68,0,0,0,1.87.53c1.07,0,1.69-.56,1.69-1.38s-.43-1.18-1.52-1.6c-1.32-.47-2.13-1.16-2.13-2.29a2.33,2.33,0,0,1,2.61-2.2,3.6,3.6,0,0,1,1.79.4l-.29.85a3.11,3.11,0,0,0-1.53-.39c-1.11,0-1.53.66-1.53,1.22,0,.75.49,1.12,1.61,1.55,1.37.53,2.06,1.19,2.06,2.38s-.92,2.33-2.83,2.33a4.13,4.13,0,0,1-2.06-.52Z"/><path d="M495.79,265.08c0-.6,0-1.09-.05-1.57h.92l0,.94h0a2,2,0,0,1,1.82-1.07,1.71,1.71,0,0,1,1.64,1.16h0a2.39,2.39,0,0,1,.64-.75,2,2,0,0,1,1.29-.41c.77,0,1.9.5,1.9,2.52v3.42h-1V266c0-1.12-.4-1.79-1.26-1.79a1.37,1.37,0,0,0-1.24,1,1.73,1.73,0,0,0-.09.53v3.59h-1v-3.48c0-.93-.41-1.6-1.21-1.6a1.45,1.45,0,0,0-1.31,1.06,1.4,1.4,0,0,0-.08.51v3.51h-1Z"/><path d="M509,269.32l-.08-.74h0a2.16,2.16,0,0,1-1.78.87,1.65,1.65,0,0,1-1.77-1.67c0-1.4,1.25-2.17,3.49-2.16v-.12a1.19,1.19,0,0,0-1.32-1.34,2.93,2.93,0,0,0-1.51.43l-.24-.69a3.52,3.52,0,0,1,1.91-.52c1.77,0,2.2,1.21,2.2,2.37v2.17a8.44,8.44,0,0,0,.1,1.4Zm-.16-3c-1.15,0-2.46.18-2.46,1.31a.94.94,0,0,0,1,1,1.43,1.43,0,0,0,1.4-1,1,1,0,0,0,.06-.34Z"/><path d="M511.58,265.32c0-.68,0-1.27-.05-1.81h.92l0,1.14h0a1.74,1.74,0,0,1,1.61-1.27,1.39,1.39,0,0,1,.3,0v1a1.88,1.88,0,0,0-.36,0,1.48,1.48,0,0,0-1.42,1.36,3.37,3.37,0,0,0,0,.49v3.1h-1Z"/><path d="M517.06,261.84v1.67h1.51v.8h-1.51v3.13c0,.72.21,1.13.79,1.13a2.29,2.29,0,0,0,.62-.07l0,.79a2.39,2.39,0,0,1-.93.15,1.46,1.46,0,0,1-1.14-.45,2.15,2.15,0,0,1-.41-1.51v-3.17h-.9v-.8h.9v-1.39Z"/><path d="M522.34,261.33a11.55,11.55,0,0,1,2-.16,3.31,3.31,0,0,1,2.26.67,2.18,2.18,0,0,1,.71,1.69,2.4,2.4,0,0,1-.62,1.73,3.37,3.37,0,0,1-2.47.89,3.56,3.56,0,0,1-.84-.07v3.24h-1Zm1,3.9a3.44,3.44,0,0,0,.86.08c1.26,0,2-.61,2-1.73s-.76-1.58-1.91-1.58a4.93,4.93,0,0,0-1,.08Z"/><path d="M528.5,265.32c0-.68,0-1.27,0-1.81h.92l0,1.14h.05a1.74,1.74,0,0,1,1.6-1.27,1.32,1.32,0,0,1,.3,0v1a1.71,1.71,0,0,0-.36,0,1.48,1.48,0,0,0-1.41,1.36,3.37,3.37,0,0,0-.05.49v3.1h-1Z"/><path d="M537.56,266.37a2.84,2.84,0,0,1-2.9,3.08,2.76,2.76,0,0,1-2.78-3,2.83,2.83,0,0,1,2.88-3.08A2.75,2.75,0,0,1,537.56,266.37Zm-4.61.06c0,1.27.73,2.23,1.76,2.23s1.77-1,1.77-2.26c0-1-.5-2.23-1.74-2.23S533,265.32,533,266.43Z"/><path d="M543.9,260.8v7c0,.51,0,1.1.05,1.5h-1l0-1h0a2.14,2.14,0,0,1-2,1.14c-1.4,0-2.48-1.19-2.48-2.95,0-1.93,1.19-3.12,2.6-3.12a1.93,1.93,0,0,1,1.75.89h0V260.8Zm-1,5.07a1.65,1.65,0,0,0-.05-.44,1.55,1.55,0,0,0-1.52-1.22c-1.09,0-1.74,1-1.74,2.24s.57,2.15,1.71,2.15a1.59,1.59,0,0,0,1.55-1.26,1.71,1.71,0,0,0,.05-.46Z"/><path d="M550.52,267.73c0,.6,0,1.13,0,1.59h-.93l-.06-.95h0a2.16,2.16,0,0,1-1.92,1.08c-.91,0-2-.51-2-2.55v-3.39h1.06v3.22c0,1.1.33,1.84,1.29,1.84a1.52,1.52,0,0,0,1.39-1,1.49,1.49,0,0,0,.1-.54v-3.56h1.06Z"/><path d="M556.41,269.1a4,4,0,0,1-1.67.34,2.76,2.76,0,0,1-2.89-3,3,3,0,0,1,3.12-3.08,3.6,3.6,0,0,1,1.46.3l-.24.82a2.37,2.37,0,0,0-1.22-.28,2,2,0,0,0-2.05,2.2,2,2,0,0,0,2,2.17,3,3,0,0,0,1.3-.29Z"/><path d="M559.07,261.84v1.67h1.51v.8h-1.51v3.13c0,.72.21,1.13.79,1.13a2.29,2.29,0,0,0,.62-.07l0,.79a2.39,2.39,0,0,1-.93.15,1.46,1.46,0,0,1-1.14-.45,2.15,2.15,0,0,1-.41-1.51v-3.17h-.9v-.8h.9v-1.39Z"/><path d="M561.63,268.24a2.79,2.79,0,0,0,1.39.42c.77,0,1.13-.39,1.13-.87s-.3-.78-1.08-1.06c-1-.38-1.54-1-1.54-1.65a1.8,1.8,0,0,1,2-1.7,2.9,2.9,0,0,1,1.42.36l-.26.77a2.22,2.22,0,0,0-1.19-.34c-.62,0-1,.36-1,.79s.35.7,1.1,1c1,.38,1.53.88,1.53,1.75,0,1-.79,1.74-2.17,1.74a3.27,3.27,0,0,1-1.63-.4Z"/><path d="M489.76,286a3.68,3.68,0,0,0,1.87.53c1.07,0,1.69-.56,1.69-1.38s-.43-1.18-1.52-1.6c-1.32-.47-2.13-1.16-2.13-2.29a2.33,2.33,0,0,1,2.61-2.2,3.6,3.6,0,0,1,1.79.4l-.29.85a3.11,3.11,0,0,0-1.53-.39c-1.11,0-1.53.66-1.53,1.22,0,.75.49,1.12,1.61,1.55,1.37.53,2.06,1.19,2.06,2.38s-.92,2.33-2.83,2.33a4.13,4.13,0,0,1-2.06-.52Z"/><path d="M495.79,283.08c0-.6,0-1.09-.05-1.57h.92l0,.94h0a2,2,0,0,1,1.82-1.07,1.71,1.71,0,0,1,1.64,1.16h0a2.39,2.39,0,0,1,.64-.75,2,2,0,0,1,1.29-.41c.77,0,1.9.5,1.9,2.52v3.42h-1V284c0-1.12-.4-1.79-1.26-1.79a1.37,1.37,0,0,0-1.24,1,1.73,1.73,0,0,0-.09.53v3.59h-1v-3.48c0-.93-.41-1.6-1.21-1.6a1.45,1.45,0,0,0-1.31,1.06,1.4,1.4,0,0,0-.08.51v3.51h-1Z"/><path d="M509,287.32l-.08-.74h0a2.16,2.16,0,0,1-1.78.87,1.65,1.65,0,0,1-1.77-1.67c0-1.4,1.25-2.17,3.49-2.16v-.12a1.19,1.19,0,0,0-1.32-1.34,2.93,2.93,0,0,0-1.51.43l-.24-.69a3.52,3.52,0,0,1,1.91-.52c1.77,0,2.2,1.21,2.2,2.37v2.17a8.44,8.44,0,0,0,.1,1.4Zm-.16-3c-1.15,0-2.46.18-2.46,1.31a.94.94,0,0,0,1,1,1.43,1.43,0,0,0,1.4-1,1,1,0,0,0,.06-.34Z"/><path d="M511.58,283.32c0-.68,0-1.27-.05-1.81h.92l0,1.14h0a1.74,1.74,0,0,1,1.61-1.27,1.39,1.39,0,0,1,.3,0v1a1.88,1.88,0,0,0-.36,0,1.48,1.48,0,0,0-1.42,1.36,3.37,3.37,0,0,0,0,.49v3.1h-1Z"/><path d="M517.06,279.84v1.67h1.51v.8h-1.51v3.13c0,.72.21,1.13.79,1.13a2.29,2.29,0,0,0,.62-.07l0,.79a2.39,2.39,0,0,1-.93.15,1.46,1.46,0,0,1-1.14-.45,2.15,2.15,0,0,1-.41-1.51v-3.17h-.9v-.8h.9v-1.39Z"/><path d="M522.34,279.23h4.36v.88h-3.31v2.68h3.05v.87h-3.05v3.66h-1Z"/><path d="M530.82,287.32l-.08-.74h0a2.14,2.14,0,0,1-1.77.87,1.66,1.66,0,0,1-1.78-1.67c0-1.4,1.25-2.17,3.49-2.16v-.12a1.19,1.19,0,0,0-1.31-1.34,3,3,0,0,0-1.52.43l-.24-.69a3.55,3.55,0,0,1,1.91-.52c1.78,0,2.21,1.21,2.21,2.37v2.17a8.52,8.52,0,0,0,.09,1.4Zm-.15-3c-1.15,0-2.46.18-2.46,1.31a.94.94,0,0,0,1,1,1.45,1.45,0,0,0,1.4-1,1.35,1.35,0,0,0,.06-.34Z"/><path d="M537.53,287.1a3.89,3.89,0,0,1-1.67.34,2.76,2.76,0,0,1-2.89-3,3,3,0,0,1,3.12-3.08,3.61,3.61,0,0,1,1.47.3l-.24.82a2.42,2.42,0,0,0-1.23-.28,2.19,2.19,0,0,0,0,4.37,3,3,0,0,0,1.29-.29Z"/><path d="M540.2,279.84v1.67h1.51v.8H540.2v3.13c0,.72.2,1.13.79,1.13a2.15,2.15,0,0,0,.61-.07l0,.79a2.44,2.44,0,0,1-.94.15,1.47,1.47,0,0,1-1.14-.45,2.15,2.15,0,0,1-.4-1.51v-3.17h-.9v-.8h.9v-1.39Z"/><path d="M548.08,284.37a2.84,2.84,0,0,1-2.89,3.08,2.76,2.76,0,0,1-2.78-3,2.83,2.83,0,0,1,2.87-3.08A2.75,2.75,0,0,1,548.08,284.37Zm-4.61.06c0,1.27.73,2.23,1.77,2.23s1.76-1,1.76-2.26c0-1-.49-2.23-1.74-2.23S543.47,283.32,543.47,284.43Z"/><path d="M549.41,283.32c0-.68,0-1.27,0-1.81h.92l0,1.14h0a1.75,1.75,0,0,1,1.61-1.27,1.39,1.39,0,0,1,.3,0v1a1.88,1.88,0,0,0-.36,0,1.5,1.5,0,0,0-1.42,1.36,3.47,3.47,0,0,0,0,.49v3.1h-1.05Z"/><path d="M554,281.51l1.27,3.43c.13.38.28.84.37,1.19h0c.11-.35.23-.79.37-1.21l1.15-3.41h1.12l-1.59,4.14c-.75,2-1.27,3-2,3.63a2.85,2.85,0,0,1-1.29.69l-.27-.89a2.76,2.76,0,0,0,.93-.52,3.08,3.08,0,0,0,.88-1.17.76.76,0,0,0,.09-.25.85.85,0,0,0-.07-.28l-2.15-5.35Z"/><path d="M273.57,339.23v8.09h-1v-8.09Z"/><path d="M275.48,343.08c0-.6,0-1.09-.05-1.57h.94l.06,1h0a2.14,2.14,0,0,1,1.92-1.09c.8,0,2.05.48,2.05,2.47v3.47h-1.05V344c0-.94-.35-1.72-1.35-1.72a1.51,1.51,0,0,0-1.41,1.08,1.55,1.55,0,0,0-.07.5v3.49h-1.06Z"/><path d="M283.36,339.84v1.67h1.51v.8h-1.51v3.13c0,.72.21,1.13.79,1.13a2.29,2.29,0,0,0,.62-.07l0,.79a2.39,2.39,0,0,1-.93.15,1.46,1.46,0,0,1-1.14-.45,2.15,2.15,0,0,1-.41-1.51v-3.17h-.9v-.8h.9v-1.39Z"/><path d="M286.58,344.61a1.85,1.85,0,0,0,2,2,3.8,3.8,0,0,0,1.61-.3l.18.76a4.84,4.84,0,0,1-1.93.36,2.7,2.7,0,0,1-2.86-2.93c0-1.75,1-3.13,2.72-3.13a2.46,2.46,0,0,1,2.4,2.73,4.92,4.92,0,0,1,0,.5Zm3.09-.76a1.5,1.5,0,0,0-1.46-1.72,1.76,1.76,0,0,0-1.62,1.72Z"/><path d="M297,341.51c0,.42,0,.89,0,1.6v3.37a3.36,3.36,0,0,1-.83,2.65,3.11,3.11,0,0,1-2.11.69,3.76,3.76,0,0,1-1.93-.48l.26-.8a3.28,3.28,0,0,0,1.7.45c1.08,0,1.88-.56,1.88-2v-.65h0a2.07,2.07,0,0,1-1.85,1,2.59,2.59,0,0,1-2.47-2.83,2.79,2.79,0,0,1,2.62-3.08,1.92,1.92,0,0,1,1.81,1h0l.05-.88Zm-1.09,2.29a1.47,1.47,0,0,0-.06-.48,1.51,1.51,0,0,0-1.47-1.11c-1,0-1.73.85-1.73,2.19,0,1.14.58,2.09,1.72,2.09a1.55,1.55,0,0,0,1.46-1.08,1.81,1.81,0,0,0,.08-.56Z"/><path d="M298.64,343.32c0-.68,0-1.27-.05-1.81h.93l0,1.14h.05a1.74,1.74,0,0,1,1.61-1.27,1.39,1.39,0,0,1,.3,0v1a1.88,1.88,0,0,0-.36,0,1.48,1.48,0,0,0-1.42,1.36,3.37,3.37,0,0,0-.05.49v3.1h-1Z"/><path d="M305.72,347.32l-.09-.74h0a2.17,2.17,0,0,1-1.78.87,1.65,1.65,0,0,1-1.77-1.67c0-1.4,1.24-2.17,3.49-2.16v-.12a1.19,1.19,0,0,0-1.32-1.34,2.9,2.9,0,0,0-1.51.43l-.24-.69a3.51,3.51,0,0,1,1.9-.52c1.78,0,2.21,1.21,2.21,2.37v2.17a8.44,8.44,0,0,0,.1,1.4Zm-.16-3c-1.15,0-2.46.18-2.46,1.31a.94.94,0,0,0,1,1,1.45,1.45,0,0,0,1.4-1,1,1,0,0,0,.06-.34Z"/><path d="M309.51,339.84v1.67H311v.8h-1.51v3.13c0,.72.2,1.13.79,1.13a2.15,2.15,0,0,0,.61-.07l0,.79a2.42,2.42,0,0,1-.93.15,1.45,1.45,0,0,1-1.14-.45,2.15,2.15,0,0,1-.41-1.51v-3.17h-.9v-.8h.9v-1.39Z"/><path d="M312.73,344.61a1.85,1.85,0,0,0,2,2,3.75,3.75,0,0,0,1.6-.3l.18.76a4.8,4.8,0,0,1-1.93.36,2.7,2.7,0,0,1-2.85-2.93c0-1.75,1-3.13,2.72-3.13a2.46,2.46,0,0,1,2.4,2.73,2.85,2.85,0,0,1,0,.5Zm3.09-.76a1.5,1.5,0,0,0-1.46-1.72,1.75,1.75,0,0,0-1.62,1.72Z"/><path d="M323.16,338.8v7c0,.51,0,1.1,0,1.5h-.95l0-1h0a2.14,2.14,0,0,1-2,1.14c-1.4,0-2.48-1.19-2.48-2.95,0-1.93,1.19-3.12,2.6-3.12a1.93,1.93,0,0,1,1.75.89h0V338.8Zm-1.05,5.07a1.65,1.65,0,0,0-.05-.44,1.55,1.55,0,0,0-1.52-1.22c-1.09,0-1.74,1-1.74,2.24s.57,2.15,1.71,2.15a1.59,1.59,0,0,0,1.55-1.26,1.71,1.71,0,0,0,.05-.46Z"/><path d="M327.36,346a3.65,3.65,0,0,0,1.87.53c1.06,0,1.69-.56,1.69-1.38s-.43-1.18-1.53-1.6c-1.32-.47-2.13-1.16-2.13-2.29a2.33,2.33,0,0,1,2.61-2.2,3.6,3.6,0,0,1,1.79.4l-.29.85a3.11,3.11,0,0,0-1.53-.39c-1.11,0-1.53.66-1.53,1.22,0,.75.5,1.12,1.61,1.55,1.37.53,2.06,1.19,2.06,2.38s-.92,2.33-2.83,2.33a4.13,4.13,0,0,1-2.06-.52Z"/><path d="M338.24,345.73c0,.6,0,1.13,0,1.59h-.93l-.06-.95h0a2.16,2.16,0,0,1-1.91,1.08c-.92,0-2-.51-2-2.55v-3.39h1.06v3.22c0,1.1.33,1.84,1.29,1.84a1.52,1.52,0,0,0,1.39-1,1.3,1.3,0,0,0,.1-.54v-3.56h1.06Z"/><path d="M340,343.41c0-.75,0-1.35-.05-1.9h.95l.05,1h0a2.29,2.29,0,0,1,2.07-1.13c1.4,0,2.45,1.19,2.45,2.95,0,2.09-1.27,3.12-2.63,3.12a2.05,2.05,0,0,1-1.79-.91h0v3.15h-1Zm1,1.54a2.68,2.68,0,0,0,.05.43,1.62,1.62,0,0,0,1.58,1.24c1.12,0,1.77-.91,1.77-2.24,0-1.17-.61-2.16-1.73-2.16a1.67,1.67,0,0,0-1.59,1.31,1.49,1.49,0,0,0-.08.43Z"/><path d="M346.82,343.41c0-.75,0-1.35-.05-1.9h1l0,1h0a2.27,2.27,0,0,1,2.06-1.13c1.41,0,2.46,1.19,2.46,2.95,0,2.09-1.27,3.12-2.64,3.12a2,2,0,0,1-1.78-.91h0v3.15h-1Zm1,1.54a2.68,2.68,0,0,0,.05.43,1.62,1.62,0,0,0,1.58,1.24c1.12,0,1.77-.91,1.77-2.24,0-1.17-.62-2.16-1.73-2.16a1.69,1.69,0,0,0-1.6,1.31,1.93,1.93,0,0,0-.07.43Z"/><path d="M353.65,338.8h1.05v8.52h-1.05Z"/><path d="M356.86,341.51l1.27,3.43c.14.38.28.84.37,1.19h0c.11-.35.23-.79.37-1.21l1.15-3.41h1.12l-1.59,4.14c-.75,2-1.27,3-2,3.63a2.85,2.85,0,0,1-1.29.69l-.27-.89a2.76,2.76,0,0,0,.93-.52,3.09,3.09,0,0,0,.89-1.17,1,1,0,0,0,.08-.25,1.22,1.22,0,0,0-.07-.28l-2.15-5.35Z"/><path d="M370.36,347.05a5.18,5.18,0,0,1-2.14.39,3.78,3.78,0,0,1-4-4.09,4,4,0,0,1,4.22-4.25,4.4,4.4,0,0,1,1.92.36l-.25.85a3.85,3.85,0,0,0-1.63-.33,3,3,0,0,0-3.16,3.33,2.94,2.94,0,0,0,3.11,3.25,4.08,4.08,0,0,0,1.7-.34Z"/><path d="M371.63,338.8h1.06v3.62h0a2,2,0,0,1,.76-.74,2.16,2.16,0,0,1,1.08-.3c.78,0,2,.48,2,2.48v3.46h-1.05V344c0-.93-.35-1.73-1.34-1.73a1.51,1.51,0,0,0-1.42,1.06,1.26,1.26,0,0,0-.07.5v3.51h-1.06Z"/><path d="M381.51,347.32l-.09-.74h0a2.17,2.17,0,0,1-1.78.87,1.65,1.65,0,0,1-1.77-1.67c0-1.4,1.24-2.17,3.49-2.16v-.12a1.19,1.19,0,0,0-1.32-1.34,2.9,2.9,0,0,0-1.51.43l-.24-.69a3.51,3.51,0,0,1,1.9-.52c1.78,0,2.21,1.21,2.21,2.37v2.17a8.44,8.44,0,0,0,.1,1.4Zm-.16-3c-1.15,0-2.46.18-2.46,1.31a.94.94,0,0,0,1,1,1.45,1.45,0,0,0,1.4-1,1,1,0,0,0,.06-.34Z"/><path d="M385.25,339.88a.62.62,0,0,1-.67.65.63.63,0,0,1-.63-.65.64.64,0,0,1,.66-.66A.62.62,0,0,1,385.25,339.88Zm-1.17,7.44v-5.81h1.05v5.81Z"/><path d="M386.89,343.08c0-.6,0-1.09-.05-1.57h.93l.06,1h0a2.14,2.14,0,0,1,1.92-1.09c.8,0,2.05.48,2.05,2.47v3.47h-1.06V344c0-.94-.35-1.72-1.34-1.72a1.51,1.51,0,0,0-1.42,1.08,1.89,1.89,0,0,0-.07.5v3.49h-1.05Z"/><path d="M273.57,357.23v8.09h-1v-8.09Z"/><path d="M275.48,361.08c0-.6,0-1.09-.05-1.57h.94l.06,1h0a2.14,2.14,0,0,1,1.92-1.09c.8,0,2.05.48,2.05,2.47v3.47h-1.05V362c0-.94-.35-1.72-1.35-1.72a1.51,1.51,0,0,0-1.41,1.08,1.55,1.55,0,0,0-.07.5v3.49h-1.06Z"/><path d="M283.36,357.84v1.67h1.51v.8h-1.51v3.13c0,.72.21,1.13.79,1.13a2.29,2.29,0,0,0,.62-.07l0,.79a2.39,2.39,0,0,1-.93.15,1.46,1.46,0,0,1-1.14-.45,2.15,2.15,0,0,1-.41-1.51v-3.17h-.9v-.8h.9v-1.39Z"/><path d="M286.58,362.61a1.85,1.85,0,0,0,2,2,3.8,3.8,0,0,0,1.61-.3l.18.76a4.84,4.84,0,0,1-1.93.36,2.7,2.7,0,0,1-2.86-2.93c0-1.75,1-3.13,2.72-3.13a2.46,2.46,0,0,1,2.4,2.73,4.92,4.92,0,0,1,0,.5Zm3.09-.76a1.5,1.5,0,0,0-1.46-1.72,1.76,1.76,0,0,0-1.62,1.72Z"/><path d="M292,356.8h1.06v8.52H292Z"/><path d="M294.84,356.8h1.05v8.52h-1.05Z"/><path d="M298.84,357.88a.62.62,0,0,1-.67.65.63.63,0,0,1-.63-.65.64.64,0,0,1,.66-.66A.62.62,0,0,1,298.84,357.88Zm-1.17,7.44v-5.81h1.05v5.81Z"/><path d="M305.48,359.51c0,.42-.05.89-.05,1.6v3.37a3.36,3.36,0,0,1-.83,2.65,3.11,3.11,0,0,1-2.11.69,3.76,3.76,0,0,1-1.93-.48l.26-.8a3.32,3.32,0,0,0,1.71.45c1.08,0,1.87-.56,1.87-2v-.65h0a2.05,2.05,0,0,1-1.84,1,2.59,2.59,0,0,1-2.47-2.83,2.78,2.78,0,0,1,2.61-3.08,1.92,1.92,0,0,1,1.81,1h0l0-.88Zm-1.09,2.29a1.8,1.8,0,0,0-.06-.48,1.53,1.53,0,0,0-1.48-1.11c-1,0-1.73.85-1.73,2.19,0,1.14.58,2.09,1.72,2.09a1.54,1.54,0,0,0,1.46-1.08,1.82,1.82,0,0,0,.09-.56Z"/><path d="M307.77,362.61a1.86,1.86,0,0,0,2,2,3.8,3.8,0,0,0,1.61-.3l.18.76a4.84,4.84,0,0,1-1.93.36,2.7,2.7,0,0,1-2.86-2.93c0-1.75,1-3.13,2.73-3.13a2.46,2.46,0,0,1,2.4,2.73,4.36,4.36,0,0,1,0,.5Zm3.1-.76a1.51,1.51,0,0,0-1.47-1.72,1.76,1.76,0,0,0-1.62,1.72Z"/><path d="M313.2,361.08c0-.6,0-1.09-.05-1.57h.93l.06,1h0a2.13,2.13,0,0,1,1.92-1.09c.8,0,2.05.48,2.05,2.47v3.47h-1.06V362c0-.94-.35-1.72-1.34-1.72a1.51,1.51,0,0,0-1.42,1.08,1.89,1.89,0,0,0-.07.5v3.49H313.2Z"/><path d="M321.08,357.84v1.67h1.51v.8h-1.51v3.13c0,.72.2,1.13.79,1.13a2.15,2.15,0,0,0,.61-.07l0,.79a2.44,2.44,0,0,1-.94.15,1.47,1.47,0,0,1-1.14-.45,2.15,2.15,0,0,1-.4-1.51v-3.17h-.9v-.8h.9v-1.39Z"/><path d="M327.67,362.77l-.84,2.55h-1.08l2.74-8.09h1.26l2.76,8.09H331.4l-.87-2.55Zm2.65-.81-.79-2.33c-.18-.53-.3-1-.42-1.47h0c-.12.48-.25,1-.41,1.46l-.79,2.34Z"/><path d="M338.38,363.73c0,.6,0,1.13.05,1.59h-.94l-.06-.95h0a2.19,2.19,0,0,1-1.92,1.08c-.91,0-2-.51-2-2.55v-3.39h1.05v3.22c0,1.1.34,1.84,1.3,1.84a1.53,1.53,0,0,0,1.39-1,1.49,1.49,0,0,0,.09-.54v-3.56h1.06Z"/><path d="M341.41,357.84v1.67h1.51v.8h-1.51v3.13c0,.72.2,1.13.79,1.13a2.21,2.21,0,0,0,.61-.07l.05.79a2.48,2.48,0,0,1-.94.15,1.46,1.46,0,0,1-1.14-.45,2.15,2.15,0,0,1-.41-1.51v-3.17h-.9v-.8h.9v-1.39Z"/><path d="M349.29,362.37a2.84,2.84,0,0,1-2.89,3.08,2.77,2.77,0,0,1-2.79-3,2.84,2.84,0,0,1,2.88-3.08A2.75,2.75,0,0,1,349.29,362.37Zm-4.61.06c0,1.27.73,2.23,1.77,2.23s1.76-1,1.76-2.26c0-1-.49-2.23-1.74-2.23S344.68,361.32,344.68,362.43Z"/><path d="M350.62,361.08c0-.6,0-1.09-.05-1.57h.93l.05.94h0a2,2,0,0,1,1.82-1.07,1.72,1.72,0,0,1,1.65,1.16h0a2.42,2.42,0,0,1,.65-.75,2,2,0,0,1,1.28-.41c.77,0,1.91.5,1.91,2.52v3.42h-1V362c0-1.12-.41-1.79-1.26-1.79a1.38,1.38,0,0,0-1.25,1,1.74,1.74,0,0,0-.08.53v3.59h-1v-3.48c0-.93-.41-1.6-1.21-1.6a1.45,1.45,0,0,0-1.31,1.06,1.4,1.4,0,0,0-.09.51v3.51h-1Z"/><path d="M363.84,365.32l-.08-.74h0a2.14,2.14,0,0,1-1.77.87,1.66,1.66,0,0,1-1.78-1.67c0-1.4,1.25-2.17,3.49-2.16v-.12a1.19,1.19,0,0,0-1.31-1.34,3,3,0,0,0-1.52.43l-.24-.69a3.55,3.55,0,0,1,1.91-.52c1.78,0,2.21,1.21,2.21,2.37v2.17a8.52,8.52,0,0,0,.09,1.4Zm-.15-3c-1.15,0-2.46.18-2.46,1.31a.94.94,0,0,0,1,1,1.45,1.45,0,0,0,1.4-1,1.35,1.35,0,0,0,.06-.34Z"/><path d="M367.64,357.84v1.67h1.51v.8h-1.51v3.13c0,.72.2,1.13.79,1.13a2.21,2.21,0,0,0,.61-.07l0,.79a2.48,2.48,0,0,1-.94.15A1.47,1.47,0,0,1,367,365a2.15,2.15,0,0,1-.4-1.51v-3.17h-.9v-.8h.9v-1.39Z"/><path d="M370.85,362.61a1.86,1.86,0,0,0,2,2,3.76,3.76,0,0,0,1.61-.3l.18.76a4.84,4.84,0,0,1-1.93.36,2.69,2.69,0,0,1-2.85-2.93c0-1.75,1-3.13,2.72-3.13a2.46,2.46,0,0,1,2.4,2.73,4.36,4.36,0,0,1,0,.5Zm3.1-.76a1.51,1.51,0,0,0-1.46-1.72,1.75,1.75,0,0,0-1.62,1.72Z"/><path d="M381.29,356.8v7c0,.51,0,1.1,0,1.5h-.95l-.05-1h0a2.14,2.14,0,0,1-2,1.14c-1.4,0-2.48-1.19-2.48-2.95,0-1.93,1.19-3.12,2.6-3.12a1.93,1.93,0,0,1,1.75.89h0V356.8Zm-1.05,5.07a2.2,2.2,0,0,0-.05-.44,1.56,1.56,0,0,0-1.53-1.22c-1.09,0-1.73,1-1.73,2.24s.57,2.15,1.71,2.15a1.59,1.59,0,0,0,1.55-1.26,2.24,2.24,0,0,0,.05-.46Z"/><path d="M385.63,357.34a9.65,9.65,0,0,1,1.9-.17,3.31,3.31,0,0,1,2.22.59,1.69,1.69,0,0,1,.67,1.43,1.91,1.91,0,0,1-1.36,1.77v0a2.07,2.07,0,0,1,1.66,2,2.15,2.15,0,0,1-.68,1.62,4,4,0,0,1-2.8.76,11.58,11.58,0,0,1-1.61-.1Zm1,3.31h.95c1.1,0,1.75-.58,1.75-1.35,0-.95-.72-1.32-1.78-1.32a4.21,4.21,0,0,0-.92.07Zm0,3.87a5,5,0,0,0,.87.05c1.08,0,2.08-.39,2.08-1.57s-.95-1.56-2.09-1.56h-.86Z"/><path d="M397,363.73c0,.6,0,1.13.05,1.59h-.94l-.06-.95h0a2.19,2.19,0,0,1-1.92,1.08c-.91,0-2-.51-2-2.55v-3.39h1.05v3.22c0,1.1.34,1.84,1.3,1.84a1.52,1.52,0,0,0,1.39-1,1.49,1.49,0,0,0,.1-.54v-3.56H397Z"/><path d="M398.56,364.24a2.82,2.82,0,0,0,1.39.42c.77,0,1.13-.39,1.13-.87s-.3-.78-1.08-1.06c-1-.38-1.53-1-1.53-1.65a1.79,1.79,0,0,1,2-1.7,2.94,2.94,0,0,1,1.43.36l-.27.77a2.21,2.21,0,0,0-1.18-.34c-.63,0-1,.36-1,.79s.35.7,1.11,1c1,.38,1.52.88,1.52,1.75,0,1-.79,1.74-2.17,1.74a3.3,3.3,0,0,1-1.63-.4Z"/><path d="M404.63,357.88a.62.62,0,0,1-.67.65.63.63,0,0,1-.63-.65.64.64,0,0,1,.66-.66A.62.62,0,0,1,404.63,357.88Zm-1.17,7.44v-5.81h1.05v5.81Z"/><path d="M406.27,361.08c0-.6,0-1.09,0-1.57h.93l.06,1h0a2.14,2.14,0,0,1,1.92-1.09c.8,0,2,.48,2,2.47v3.47h-1.06V362c0-.94-.35-1.72-1.34-1.72a1.51,1.51,0,0,0-1.42,1.08,1.89,1.89,0,0,0-.07.5v3.49h-1.05Z"/><path d="M413.51,362.61a1.86,1.86,0,0,0,2,2,3.76,3.76,0,0,0,1.61-.3l.18.76a4.84,4.84,0,0,1-1.93.36,2.69,2.69,0,0,1-2.85-2.93c0-1.75,1-3.13,2.72-3.13a2.46,2.46,0,0,1,2.4,2.73,4.36,4.36,0,0,1,0,.5Zm3.1-.76a1.51,1.51,0,0,0-1.47-1.72,1.75,1.75,0,0,0-1.61,1.72Z"/><path d="M418.79,364.24a2.85,2.85,0,0,0,1.39.42c.77,0,1.13-.39,1.13-.87s-.3-.78-1.08-1.06c-1-.38-1.53-1-1.53-1.65a1.79,1.79,0,0,1,2-1.7,2.94,2.94,0,0,1,1.43.36l-.27.77a2.15,2.15,0,0,0-1.18-.34c-.63,0-1,.36-1,.79s.35.7,1.11,1c1,.38,1.52.88,1.52,1.75,0,1-.79,1.74-2.17,1.74a3.33,3.33,0,0,1-1.63-.4Z"/><path d="M423.54,364.24a2.86,2.86,0,0,0,1.4.42c.76,0,1.12-.39,1.12-.87s-.3-.78-1.08-1.06c-1-.38-1.53-1-1.53-1.65a1.79,1.79,0,0,1,2-1.7,2.91,2.91,0,0,1,1.43.36l-.27.77a2.15,2.15,0,0,0-1.18-.34c-.63,0-1,.36-1,.79s.34.7,1.1,1c1,.38,1.52.88,1.52,1.75,0,1-.79,1.74-2.17,1.74a3.33,3.33,0,0,1-1.63-.4Z"/><path d="M272.38,382a3.68,3.68,0,0,0,1.87.53c1.07,0,1.7-.56,1.7-1.38s-.44-1.18-1.53-1.6c-1.32-.47-2.13-1.16-2.13-2.29a2.33,2.33,0,0,1,2.61-2.2,3.6,3.6,0,0,1,1.79.4l-.29.85a3.11,3.11,0,0,0-1.53-.39c-1.11,0-1.53.66-1.53,1.22,0,.75.49,1.12,1.61,1.55,1.37.53,2.06,1.19,2.06,2.38s-.92,2.33-2.83,2.33a4.13,4.13,0,0,1-2.06-.52Z"/><path d="M279.07,380.61a1.85,1.85,0,0,0,2,2,3.75,3.75,0,0,0,1.6-.3l.19.76a4.9,4.9,0,0,1-1.94.36,2.7,2.7,0,0,1-2.85-2.93c0-1.75,1-3.13,2.72-3.13a2.46,2.46,0,0,1,2.4,2.73,4.92,4.92,0,0,1,0,.5Zm3.09-.76a1.5,1.5,0,0,0-1.46-1.72,1.75,1.75,0,0,0-1.62,1.72Z"/><path d="M284.49,379.32c0-.68,0-1.27-.05-1.81h.93l0,1.14h.05a1.74,1.74,0,0,1,1.61-1.27,1.39,1.39,0,0,1,.3,0v1a1.88,1.88,0,0,0-.36,0,1.49,1.49,0,0,0-1.42,1.36,3.37,3.37,0,0,0-.05.49v3.1h-1Z"/><path d="M289.12,377.51l1.14,3.26c.19.53.35,1,.47,1.49h0c.13-.48.3-1,.49-1.49l1.13-3.26h1.1l-2.28,5.81h-1l-2.2-5.81Z"/><path d="M295.66,375.88a.65.65,0,1,1-1.3,0,.64.64,0,0,1,.66-.66A.62.62,0,0,1,295.66,375.88Zm-1.17,7.44v-5.81h1.05v5.81Z"/><path d="M301.43,383.1a3.87,3.87,0,0,1-1.66.34,2.76,2.76,0,0,1-2.89-3,3,3,0,0,1,3.11-3.08,3.61,3.61,0,0,1,1.47.3l-.24.82a2.39,2.39,0,0,0-1.23-.28,2.19,2.19,0,0,0,0,4.37,3,3,0,0,0,1.29-.29Z"/><path d="M303.19,380.61a1.85,1.85,0,0,0,2,2,3.75,3.75,0,0,0,1.6-.3l.18.76a4.8,4.8,0,0,1-1.93.36,2.7,2.7,0,0,1-2.85-2.93c0-1.75,1-3.13,2.72-3.13a2.46,2.46,0,0,1,2.4,2.73,2.85,2.85,0,0,1,0,.5Zm3.09-.76a1.5,1.5,0,0,0-1.46-1.72,1.75,1.75,0,0,0-1.62,1.72Z"/><path d="M308.47,382.24a2.79,2.79,0,0,0,1.39.42c.77,0,1.13-.39,1.13-.87s-.3-.78-1.08-1.06c-1.05-.38-1.54-1-1.54-1.65a1.79,1.79,0,0,1,2-1.7,2.91,2.91,0,0,1,1.43.36l-.26.77a2.22,2.22,0,0,0-1.19-.34c-.62,0-1,.36-1,.79s.35.7,1.1,1c1,.38,1.52.88,1.52,1.75,0,1-.79,1.74-2.17,1.74a3.33,3.33,0,0,1-1.63-.4Z"/><path d="M272.53,393.34a10.66,10.66,0,0,1,2-.17,3.32,3.32,0,0,1,2.34.66,2,2,0,0,1,.63,1.54,2.13,2.13,0,0,1-1.52,2.06v0a2,2,0,0,1,1.19,1.63,12.89,12.89,0,0,0,.62,2.22h-1.08a11,11,0,0,1-.54-1.94c-.24-1.11-.67-1.53-1.62-1.57h-1v3.51h-1Zm1,3.68h1.07c1.11,0,1.82-.61,1.82-1.53s-.75-1.5-1.86-1.51a4.3,4.3,0,0,0-1,.09Z"/><path d="M279,393.33a11.55,11.55,0,0,1,2-.16,3.31,3.31,0,0,1,2.26.67,2.18,2.18,0,0,1,.71,1.69,2.4,2.4,0,0,1-.62,1.73,3.34,3.34,0,0,1-2.47.89,3.56,3.56,0,0,1-.84-.07v3.24h-1Zm1,3.9a3.44,3.44,0,0,0,.86.08c1.26,0,2-.61,2-1.73S282.16,394,281,394a4.93,4.93,0,0,0-1,.08Z"/><path d="M285.67,398.77l-.84,2.55h-1.08l2.74-8.09h1.26l2.76,8.09H289.4l-.87-2.55Zm2.65-.81-.79-2.33c-.18-.53-.3-1-.42-1.47h0c-.12.48-.25,1-.41,1.46l-.79,2.34Z"/><path d="M276.71,415.53h-3.14v2.91h3.5v.88h-4.54v-8.09h4.36v.88h-3.32v2.55h3.14Z"/><path d="M278.43,411.34a10.66,10.66,0,0,1,2-.17,3.32,3.32,0,0,1,2.34.66,2,2,0,0,1,.64,1.54,2.13,2.13,0,0,1-1.52,2.06v0a2,2,0,0,1,1.18,1.63,13.58,13.58,0,0,0,.63,2.22h-1.08a11,11,0,0,1-.54-1.94c-.24-1.11-.67-1.53-1.62-1.57h-1v3.51h-1.05Zm1.05,3.68h1.06c1.12,0,1.82-.61,1.82-1.53s-.75-1.5-1.85-1.51a4.18,4.18,0,0,0-1,.09Z"/><path d="M284.89,411.33a11.33,11.33,0,0,1,2-.16,3.34,3.34,0,0,1,2.27.67,2.2,2.2,0,0,1,.7,1.69,2.36,2.36,0,0,1-.62,1.73,3.34,3.34,0,0,1-2.47.89,3.61,3.61,0,0,1-.84-.07v3.24h-1Zm1,3.9a3.54,3.54,0,0,0,.86.08c1.26,0,2-.61,2-1.73s-.75-1.58-1.91-1.58a5,5,0,0,0-1,.08Z"/><path d="M294.86,412.12H292.4v-.89h6v.89h-2.47v7.2h-1.05Z"/><path d="M298.71,415.32c0-.68,0-1.27,0-1.81h.93l0,1.14h.05a1.74,1.74,0,0,1,1.61-1.27,1.39,1.39,0,0,1,.3,0v1a1.88,1.88,0,0,0-.36,0,1.49,1.49,0,0,0-1.42,1.36,3.37,3.37,0,0,0-.05.49v3.1h-1Z"/><path d="M305.79,419.32l-.08-.74h0a2.16,2.16,0,0,1-1.78.87,1.65,1.65,0,0,1-1.77-1.67c0-1.4,1.25-2.17,3.49-2.16v-.12a1.19,1.19,0,0,0-1.32-1.34,2.93,2.93,0,0,0-1.51.43l-.24-.69a3.52,3.52,0,0,1,1.91-.52c1.77,0,2.2,1.21,2.2,2.37v2.17a8.44,8.44,0,0,0,.1,1.4Zm-.16-3c-1.15,0-2.46.18-2.46,1.31a.94.94,0,0,0,1,1,1.43,1.43,0,0,0,1.4-1,1,1,0,0,0,.06-.34Z"/><path d="M308.36,415.08c0-.6,0-1.09-.05-1.57h.94l.06,1h0a2.14,2.14,0,0,1,1.92-1.09c.8,0,2.05.48,2.05,2.47v3.47h-1.06V416c0-.94-.34-1.72-1.34-1.72a1.51,1.51,0,0,0-1.41,1.08,1.54,1.54,0,0,0-.08.5v3.49h-1.05Z"/><path d="M314.87,418.24a2.86,2.86,0,0,0,1.4.42c.76,0,1.12-.39,1.12-.87s-.3-.78-1.08-1.06c-1-.38-1.53-1-1.53-1.65a1.79,1.79,0,0,1,2-1.7,2.91,2.91,0,0,1,1.43.36l-.26.77a2.22,2.22,0,0,0-1.19-.34c-.63,0-1,.36-1,.79s.34.7,1.1,1c1,.38,1.52.88,1.52,1.75,0,1-.79,1.74-2.17,1.74a3.33,3.33,0,0,1-1.63-.4Z"/><path d="M319.88,419.32v-5h-.82v-.8h.82v-.27a2.75,2.75,0,0,1,.67-2,2,2,0,0,1,1.42-.54,2.26,2.26,0,0,1,.89.17l-.14.81a1.58,1.58,0,0,0-.67-.13c-.9,0-1.13.79-1.13,1.68v.31h1.41v.8h-1.41v5Z"/><path d="M328.37,416.37a2.84,2.84,0,0,1-2.89,3.08,2.76,2.76,0,0,1-2.78-3,2.83,2.83,0,0,1,2.88-3.08A2.75,2.75,0,0,1,328.37,416.37Zm-4.6.06c0,1.27.73,2.23,1.76,2.23s1.76-1,1.76-2.26c0-1-.49-2.23-1.74-2.23S323.77,415.32,323.77,416.43Z"/><path d="M329.71,415.32c0-.68,0-1.27,0-1.81h.92l0,1.14h.05a1.74,1.74,0,0,1,1.6-1.27,1.32,1.32,0,0,1,.3,0v1a1.71,1.71,0,0,0-.36,0,1.48,1.48,0,0,0-1.41,1.36,2.38,2.38,0,0,0-.05.49v3.1h-1Z"/><path d="M333.68,415.08c0-.6,0-1.09-.05-1.57h.92l.05.94h0a2,2,0,0,1,1.82-1.07,1.71,1.71,0,0,1,1.64,1.16h0a2.42,2.42,0,0,1,.65-.75,1.93,1.93,0,0,1,1.28-.41c.77,0,1.91.5,1.91,2.52v3.42h-1V416c0-1.12-.4-1.79-1.25-1.79a1.38,1.38,0,0,0-1.25,1,1.73,1.73,0,0,0-.09.53v3.59h-1v-3.48c0-.93-.41-1.6-1.21-1.6a1.45,1.45,0,0,0-1.31,1.06,1.4,1.4,0,0,0-.08.51v3.51h-1Z"/><path d="M346.9,419.32l-.08-.74h0a2.15,2.15,0,0,1-1.77.87,1.66,1.66,0,0,1-1.78-1.67c0-1.4,1.25-2.17,3.49-2.16v-.12a1.19,1.19,0,0,0-1.32-1.34,2.93,2.93,0,0,0-1.51.43l-.24-.69a3.55,3.55,0,0,1,1.91-.52c1.77,0,2.2,1.21,2.2,2.37v2.17a8.44,8.44,0,0,0,.1,1.4Zm-.16-3c-1.15,0-2.45.18-2.45,1.31a.93.93,0,0,0,1,1,1.45,1.45,0,0,0,1.41-1,1.33,1.33,0,0,0,.05-.34Z"/><path d="M350.69,411.84v1.67h1.52v.8h-1.52v3.13c0,.72.21,1.13.8,1.13a2.21,2.21,0,0,0,.61-.07l0,.79a2.48,2.48,0,0,1-.94.15,1.46,1.46,0,0,1-1.14-.45,2.15,2.15,0,0,1-.41-1.51v-3.17h-.9v-.8h.9v-1.39Z"/><path d="M354.57,411.88a.62.62,0,0,1-.67.65.63.63,0,0,1-.64-.65.65.65,0,0,1,.66-.66A.63.63,0,0,1,354.57,411.88Zm-1.18,7.44v-5.81h1.06v5.81Z"/><path d="M361.46,416.37a2.84,2.84,0,0,1-2.89,3.08,2.76,2.76,0,0,1-2.79-3,2.83,2.83,0,0,1,2.88-3.08A2.75,2.75,0,0,1,361.46,416.37Zm-4.61.06c0,1.27.73,2.23,1.76,2.23s1.77-1,1.77-2.26c0-1-.5-2.23-1.74-2.23S356.85,415.32,356.85,416.43Z"/><path d="M362.79,415.08c0-.6,0-1.09-.05-1.57h.94l.06,1h0a2.14,2.14,0,0,1,1.92-1.09c.8,0,2.05.48,2.05,2.47v3.47h-1.05V416c0-.94-.35-1.72-1.35-1.72a1.51,1.51,0,0,0-1.41,1.08,1.55,1.55,0,0,0-.07.5v3.49h-1.06Z"/><polygon class="cls-3" points="415.52 184.68 483.16 164.6 344.54 63.16 344.57 133.13 415.52 184.68"/><polygon class="cls-4" points="388.42 268.09 429.98 326.79 483.16 164.6 415.52 184.68 388.42 268.09"/><polygon class="cls-5" points="258.66 326.03 429.98 326.79 388.42 268.09 300.71 268.09 258.66 326.03"/><polygon class="cls-6" points="205.97 163.37 273.61 184.68 300.71 268.09 258.66 326.03 205.97 163.37"/><polygon class="cls-7" points="205.97 163.37 273.61 184.68 344.57 133.13 344.54 63.16 205.97 163.37"/><polygon class="cls-8" points="344.57 130.88 271.48 183.99 299.39 269.91 389.74 269.91 417.65 183.99 344.57 130.88"/><path class="cls-9" d="M331,183.76v3.53q0,3.17-3.16,3.16h-.64q-3.17,0-3.16-3.16v-11c0-2.12,1-3.17,3.16-3.17h.64c2.09,0,3.11,1,3.11,3.12v3.06h-1.9v-3.11a1.12,1.12,0,0,0-1.29-1.29h-.48a1.12,1.12,0,0,0-1.29,1.29v11.19a1.12,1.12,0,0,0,1.29,1.29h.53a1.12,1.12,0,0,0,1.29-1.29v-3.62Z"/><path class="cls-9" d="M334.65,173.27V188.5h3.21v1.81H332.7v-17Z"/><path class="cls-9" d="M341.27,190.31h-1.95v-17h1.95Z"/><path class="cls-9" d="M348.5,173.27v1.8h-3.41v5.65h3.28v1.77h-3.28v6h3.45v1.81h-5.4v-17Z"/><path class="cls-9" d="M352,177v13.34h-1.85v-17h2.68l2.82,12.29V173.27h1.85v17h-2.43Z"/><path class="cls-9" d="M361.22,190.31V175.07h-2.55v-1.8h7.06v1.8h-2.56v15.24Z"/><path class="cls-9" d="M322,197.27h3.21c2.55,0,3.77,1.22,3.77,3.77v9.49c0,2.56-1.22,3.78-3.77,3.78H322ZM324,212.53h1.17c1.32,0,1.92-.66,1.92-2V201c0-1.32-.6-2-1.92-2H324Z"/><path class="cls-9" d="M332.76,214.31h-1.94v-17h1.94Z"/><path class="cls-9" d="M338.17,207v-1.78h3.48v6c0,2.11-1,3.16-3.17,3.16h-.73c-2.12,0-3.16-1-3.16-3.16v-11c0-2.12,1-3.17,3.16-3.17h.73c2.1,0,3.12,1,3.12,3.12v2.33h-1.9v-2.38a1.12,1.12,0,0,0-1.29-1.29h-.58a1.12,1.12,0,0,0-1.29,1.29v11.19a1.12,1.12,0,0,0,1.29,1.29h.63a1.13,1.13,0,0,0,1.29-1.29V207Z"/><path class="cls-9" d="M345.37,214.31h-1.95v-17h1.95Z"/><path class="cls-9" d="M349.12,214.31V199.07h-2.56v-1.8h7.06v1.8h-2.56v15.24Z"/><path class="cls-9" d="M359.12,214.31l-.42-2.85h-3.13l-.39,2.85H353.3l2.63-17.09h2.48L361,214.31Zm-3.31-4.6h2.65l-1.34-9.45Z"/><path class="cls-9" d="M364.33,197.27V212.5h3.21v1.81h-5.16v-17Z"/><path class="cls-9" d="M321.46,235.14c0,2.12-1,3.16-3.16,3.16h-1.2v-1.8h1.07a1.18,1.18,0,0,0,1.34-1.34V221.27h1.95Z"/><path class="cls-9" d="M327.13,238.45h-.73c-2.12,0-3.16-1-3.16-3.16v-11c0-2.12,1-3.17,3.16-3.17h.73c2.12,0,3.16,1,3.16,3.17v11C330.29,237.4,329.25,238.45,327.13,238.45Zm-.07-15.55h-.59a1.13,1.13,0,0,0-1.29,1.29v11.19a1.13,1.13,0,0,0,1.29,1.29h.59a1.13,1.13,0,0,0,1.29-1.29V224.19A1.13,1.13,0,0,0,327.06,222.9Z"/><path class="cls-9" d="M339,235.29c0,2.11-1.05,3.16-3.17,3.16h-.61q-3.17,0-3.16-3.16v-14H334v14.11a1.12,1.12,0,0,0,1.29,1.29h.46a1.12,1.12,0,0,0,1.29-1.29V221.27H339Z"/><path class="cls-9" d="M347.65,232.56v5.74H345.7v-5.67c0-1-.46-1.48-1.49-1.48h-1.43v7.15h-1.95v-17h3.63c2.11,0,3.16,1,3.16,3.16v3.17c0,1.53-.53,2.28-1.51,2.67A2,2,0,0,1,347.65,232.56ZM344.38,223h-1.6v6.38h1.46a1.25,1.25,0,0,0,1.43-1.43v-3.66A1.13,1.13,0,0,0,344.38,223Z"/><path class="cls-9" d="M351.3,225V238.3h-1.85v-17h2.67L355,233.56V221.27h1.85v17h-2.44Z"/><path class="cls-9" d="M364,221.27v1.8h-3.41v5.65h3.29v1.77h-3.29v6h3.46v1.8h-5.41v-17Z"/><path class="cls-9" d="M369.52,232.34v6h-1.94v-5.81l-2.75-11.22h2l1.73,8.35,1.8-8.35h1.92Z"/><path d="M260.91,153.6,257.59,156l1.83,2.59,3.71-2.63.94,1.32L258.75,161l-6.24-8.81,5.12-3.62.94,1.32-3.51,2.48,1.61,2.28L260,152.3Z"/><path d="M270.19,152.89,268,151.82c-.86-.41-1.45-.71-2.05-1l0,0c.15.65.25,1.29.38,2.22l.36,2.37-1.84,1.31-.54-6.31-5.59-2.57,1.84-1.31,2.24,1.14c.67.35,1.19.63,1.77,1l0,0c-.15-.71-.25-1.23-.35-2l-.35-2.49,1.84-1.3.47,6.12,5.87,2.61Z"/><path d="M267.08,142.05a17.45,17.45,0,0,1,2.32-1.92,4.93,4.93,0,0,1,3.11-1.12,3,3,0,0,1,2.24,1.33,3.31,3.31,0,0,1,.66,2.54,4.76,4.76,0,0,1-2.12,2.91,5.65,5.65,0,0,1-.82.5l2.35,3.32-1.59,1.13Zm4.5,3a4.39,4.39,0,0,0,.83-.49c1.2-.85,1.51-2,.78-3s-1.74-1-2.85-.24a5.25,5.25,0,0,0-.87.74Z"/><path d="M282.69,138.18l-3.32,2.35,1.83,2.58,3.71-2.62.93,1.31-5.31,3.77-6.24-8.8,5.12-3.63.94,1.32L276.83,137l1.61,2.27,3.32-2.35Z"/><path d="M281.1,132.12a19,19,0,0,1,2.3-1.9,5,5,0,0,1,3.21-1.22,2.72,2.72,0,0,1,2,1.23,2.86,2.86,0,0,1,0,3.33l0,0a2.75,2.75,0,0,1,2.43.83,21.85,21.85,0,0,0,2.43,2l-1.66,1.18a16.17,16.17,0,0,1-2.06-1.66c-1.06-1-1.74-1-2.67-.42l-.81.57,2.56,3.62-1.59,1.13Zm4.35,2.76.95-.67c1.09-.77,1.36-1.83.74-2.7s-1.68-.93-2.72-.19a5.73,5.73,0,0,0-.94.78Z"/><path d="M290.05,125.6l6.24,8.81-1.61,1.13-6.24-8.8Z"/><path d="M300.28,125.71,297,128.06l1.83,2.59,3.71-2.63.93,1.32-5.31,3.76-6.24-8.8,5.12-3.63L298,122l-3.52,2.49,1.61,2.27,3.32-2.35Z"/><path d="M304.85,128.34l-6.24-8.8,1.83-1.3,4.95,2.17a30.2,30.2,0,0,1,3.59,1.88l0,0c-.94-1.1-1.78-2.2-2.73-3.55l-2.18-3.07,1.49-1.06,6.24,8.81-1.66,1.17-5-2.23a37.61,37.61,0,0,1-3.74-1.93l0,0c.87,1.09,1.71,2.25,2.74,3.7l2.23,3.14Z"/><path d="M319.8,117.36a7,7,0,0,1-2,2c-2.8,2-5.74,1.43-7.64-1.25a5.43,5.43,0,0,1,1.41-8A6.18,6.18,0,0,1,314,109l.56,1.53a5.15,5.15,0,0,0-2,.88c-1.79,1.27-2.28,3.31-.79,5.42a3.54,3.54,0,0,0,5.32,1,5.41,5.41,0,0,0,1.52-1.56Z"/><path d="M323.51,109.26l-3.32,2.35,1.84,2.58,3.71-2.63.93,1.32-5.32,3.77-6.23-8.8,5.12-3.63.93,1.32L317.66,108l1.61,2.27,3.32-2.35Z"/><path d="M378.83,113.1l-6.28,8.78-1.6-1.15,6.28-8.77Z"/><path d="M374.39,123.19l6.27-8.78,1.83,1.31-.43,5.38a28.56,28.56,0,0,1-.61,4l0,0c.73-1.24,1.5-2.4,2.46-3.75l2.19-3,1.49,1.06-6.28,8.77L379.69,127l.46-5.49a36.86,36.86,0,0,1,.6-4.16l-.05,0c-.75,1.18-1.56,2.35-2.6,3.79l-2.24,3.14Z"/><path d="M384.39,127.71a5.52,5.52,0,0,0,1.72,2.08c1,.73,1.95.66,2.46-.06s.31-1.37-.52-2.57c-1.07-1.56-1.44-3-.54-4.25,1-1.43,3-1.67,4.9-.31a5.69,5.69,0,0,1,1.8,2l-1.31,1a4.72,4.72,0,0,0-1.45-1.66c-1-.73-1.85-.5-2.21,0-.49.68-.2,1.35.64,2.65,1.11,1.66,1.31,3,.4,4.22-1,1.41-2.95,1.87-5.21.25a6.49,6.49,0,0,1-2-2.24Z"/><path d="M397.82,126.68l-6.28,8.78-1.6-1.15,6.27-8.77Z"/><path d="M400.69,141.4a10.84,10.84,0,0,1-3.18-1.53,5.84,5.84,0,0,1-2.6-3.63,5.35,5.35,0,0,1,1.09-4.1c2-2.78,5.24-3.15,8.14-1.07a7.11,7.11,0,0,1,2,2.08l-1.27,1a5.84,5.84,0,0,0-1.72-1.8,3.61,3.61,0,0,0-5.45.87,3.57,3.57,0,0,0,.78,5.35,3.9,3.9,0,0,0,1.34.69l1.56-2.19L399.86,136l.91-1.26,3.1,2.22Z"/><path d="M409.92,135.34l-2.52,3.52,3.71,2.65,2.52-3.51,1.6,1.14L409,147.92l-1.6-1.15,2.77-3.87-3.71-2.65-2.77,3.87L402,143l6.28-8.77Z"/><path d="M417.78,143l-2.5-1.79,1-1.34,6.63,4.74-1,1.34-2.53-1.81-5.32,7.43-1.6-1.14Z"/><path d="M418.4,267l10.3,3.2-.58,1.88-10.3-3.2Z"/><path d="M429.37,268l-10.3-3.21.66-2.14L425,261.4a30.23,30.23,0,0,1,4-.69v0c-1.42-.3-2.76-.67-4.34-1.16l-3.59-1.12.54-1.74,10.3,3.2-.6,1.94-5.36,1.29a38.14,38.14,0,0,1-4.13.74v.05c1.35.34,2.72.75,4.41,1.27l3.69,1.15Z"/><path d="M432.58,257.7l-10.3-3.2.66-2.14,5.24-1.29a30.37,30.37,0,0,1,4-.69v0c-1.42-.3-2.76-.67-4.34-1.16l-3.59-1.11.54-1.75,10.3,3.2-.6,1.94-5.36,1.29a35.63,35.63,0,0,1-4.14.74v.05c1.35.34,2.71.75,4.41,1.27l3.68,1.15Z"/><path d="M433.37,236.59c3.45,1.07,4.77,3.78,3.89,6.63s-3.69,4.05-6.71,3.1c-3.17-1-4.78-3.66-3.88-6.56S430.43,235.68,433.37,236.59Zm-2.24,7.74c2.1.65,4.09.11,4.65-1.69s-.8-3.37-2.95-4c-1.94-.6-4.08-.21-4.66,1.67S429,243.67,431.13,244.33Z"/><path d="M439.84,234.3l-11.33.13.63-2,5.12,0c1.42,0,2.73,0,4.07.16v0a40.13,40.13,0,0,1-3.4-2.21l-4.24-3,.62-2,9.19,6.77Z"/><path d="M439.43,225.34l2.64,1.8-.6,1.94-9.28-6.51.75-2.39,11.34-.15-.63,2-3.21,0Zm-.51-3.39-2.79,0c-.69,0-1.44,0-2.09-.08v0c.54.34,1.22.72,1.77,1.09l2.29,1.58Z"/><path d="M436.22,215.15l-.91,2.93-1.57-.48,2.41-7.79,1.58.49-.92,3,8.73,2.71-.59,1.88Z"/><path d="M444.05,204.63l-1.21,3.88,3,.94,1.35-4.34,1.54.48-1.93,6.22-10.3-3.2,1.86-6,1.54.48-1.27,4.11,2.66.83,1.2-3.89Z"/><path d="M300.61,304.14l-.93,3.06h-2l3.46-10.79h2.51l3.51,10.79H305l-1-3.06Zm3.09-1.49-.85-2.66c-.21-.65-.39-1.39-.55-2h0c-.16.62-.32,1.37-.51,2l-.83,2.66Z"/><path d="M316,306.88a6.86,6.86,0,0,1-2.79.48c-3.42,0-5.51-2.15-5.51-5.43a5.43,5.43,0,0,1,5.77-5.7,6.16,6.16,0,0,1,2.62.48l-.43,1.57a5.31,5.31,0,0,0-2.11-.42c-2.2,0-3.78,1.38-3.78,4a3.54,3.54,0,0,0,3.76,3.89,5.57,5.57,0,0,0,2.15-.4Z"/><path d="M325,306.88a6.86,6.86,0,0,1-2.79.48c-3.42,0-5.5-2.15-5.5-5.43a5.43,5.43,0,0,1,5.76-5.7,6.13,6.13,0,0,1,2.62.48l-.43,1.57a5.27,5.27,0,0,0-2.11-.42c-2.19,0-3.78,1.38-3.78,4a3.54,3.54,0,0,0,3.76,3.89,5.53,5.53,0,0,0,2.15-.4Z"/><path d="M332.72,302.41h-4.07v3.17h4.55v1.62h-6.51V296.41H333V298h-4.31v2.78h4.07Z"/><path d="M334.93,296.41h2v9.14h4.44v1.65h-6.4Z"/><path d="M348.85,302.41h-4.07v3.17h4.55v1.62h-6.52V296.41h6.28V298h-4.31v2.78h4.07Z"/><path d="M351.05,296.55a18.56,18.56,0,0,1,3-.22,5,5,0,0,1,3.33.86,2.75,2.75,0,0,1,.93,2.16,2.89,2.89,0,0,1-2,2.71v.05a2.76,2.76,0,0,1,1.5,2.08,21.56,21.56,0,0,0,.85,3h-2a14.79,14.79,0,0,1-.72-2.55c-.31-1.41-.82-1.85-1.94-1.89h-1v4.44h-2Zm2,4.77h1.16c1.33,0,2.17-.7,2.17-1.77s-.84-1.73-2.12-1.73a5.61,5.61,0,0,0-1.21.09Z"/><path d="M362.43,304.14l-.93,3.06h-2l3.46-10.79h2.51L369,307.2h-2.12l-1-3.06Zm3.09-1.49-.85-2.66c-.21-.65-.38-1.39-.54-2h0c-.16.62-.31,1.37-.51,2l-.83,2.66Z"/><path d="M371.21,298.06h-3.07v-1.65h8.15v1.65h-3.11v9.14h-2Z"/><path d="M383.58,302.41h-4.06v3.17h4.54v1.62h-6.51V296.41h6.27V298h-4.3v2.78h4.06Z"/><path d="M245.61,214.74l-3.19.17-.69-1.91,11.32-.43.86,2.36-8.94,7-.73-2,2.54-2Zm2.46,2.39,2.21-1.7c.54-.42,1.17-.84,1.71-1.2l0,0c-.64.06-1.4.17-2.07.21l-2.78.12Z"/><path d="M247.48,222.54a5.48,5.48,0,0,0,.24,2.69c.43,1.18,1.23,1.64,2.06,1.34s1-.95,1-2.42c0-1.88.49-3.27,1.95-3.8,1.66-.61,3.42.32,4.22,2.52a5.63,5.63,0,0,1,.37,2.62l-1.65.09a4.68,4.68,0,0,0-.25-2.19c-.43-1.18-1.24-1.46-1.83-1.24-.78.28-.93,1-1,2.54,0,2-.59,3.18-2.05,3.71-1.63.59-3.49-.12-4.44-2.74a6.37,6.37,0,0,1-.36-3Z"/><path d="M250.31,230.34a5.38,5.38,0,0,0,.25,2.69c.43,1.19,1.23,1.65,2.05,1.35s1-1,1-2.42c0-1.89.5-3.28,2-3.81,1.65-.6,3.42.32,4.21,2.52a5.7,5.7,0,0,1,.38,2.62l-1.65.09a4.58,4.58,0,0,0-.26-2.19c-.42-1.17-1.24-1.45-1.83-1.24-.78.29-.93,1-1,2.55,0,2-.6,3.18-2.06,3.71-1.62.59-3.49-.13-4.44-2.75a6.37,6.37,0,0,1-.36-3Z"/><path d="M262,237.07,256,239.22c-2,.72-2.6,1.89-2.15,3.13s1.7,1.81,3.68,1.09l5.92-2.15.67,1.85-5.79,2.1c-3.13,1.14-5.1,0-6-2.4s-.09-4.35,3.1-5.5l5.8-2.11Z"/><path d="M264.79,245.31A18.53,18.53,0,0,1,266,248a5,5,0,0,1,.32,3.42,2.69,2.69,0,0,1-1.71,1.61,2.87,2.87,0,0,1-3.21-.91l-.05,0a2.7,2.7,0,0,1-1.44,2.12,21.55,21.55,0,0,0-2.54,1.83l-.69-1.91a15.07,15.07,0,0,1,2.15-1.55c1.22-.77,1.46-1.4,1.11-2.47l-.34-.93-4.17,1.52-.66-1.84ZM261,248.77l.4,1.1c.46,1.25,1.4,1.79,2.41,1.42s1.34-1.37.9-2.57a5.39,5.39,0,0,0-.5-1.11Z"/><path d="M264.45,261.53l-1.38-3.82-3,1.09,1.55,4.27-1.52.55-2.22-6.12L268,253.81l2.14,5.9-1.52.55-1.47-4-2.62.95L266,261Z"/><path d="M13.8,59.84l3.51-3.52a.23.23,0,0,0,.07-.17.22.22,0,0,0-.07-.17L13.8,52.46a.24.24,0,0,0-.18-.07.23.23,0,0,0-.17.07l-.38.38A.23.23,0,0,0,13,53a.26.26,0,0,0,.07.18l3,3-3,3a.24.24,0,0,0-.07.18.23.23,0,0,0,.07.17l.38.38a.23.23,0,0,0,.17.07A.24.24,0,0,0,13.8,59.84Z"/><path d="M13.8,232.84l3.51-3.52a.23.23,0,0,0,.07-.17.22.22,0,0,0-.07-.17l-3.51-3.52a.24.24,0,0,0-.18-.07.23.23,0,0,0-.17.07l-.38.38A.23.23,0,0,0,13,226a.26.26,0,0,0,.07.18l3,3-3,3a.24.24,0,0,0-.07.18.23.23,0,0,0,.07.17l.38.38a.23.23,0,0,0,.17.07A.24.24,0,0,0,13.8,232.84Z"/><path d="M479.8,59.84l3.51-3.52a.23.23,0,0,0,.07-.17.22.22,0,0,0-.07-.17l-3.51-3.52a.24.24,0,0,0-.18-.07.23.23,0,0,0-.17.07l-.38.38A.23.23,0,0,0,479,53a.26.26,0,0,0,.07.18l3,3-3,3a.24.24,0,0,0-.07.18.23.23,0,0,0,.07.17l.38.38a.23.23,0,0,0,.17.07A.24.24,0,0,0,479.8,59.84Z"/><path d="M479.8,95.52,483.31,92a.23.23,0,0,0,.07-.17.24.24,0,0,0-.07-.18l-3.51-3.51a.25.25,0,0,0-.18-.08.25.25,0,0,0-.17.08l-.38.38a.22.22,0,0,0-.07.17.23.23,0,0,0,.07.17l3,3-3,3A.23.23,0,0,0,479,95a.24.24,0,0,0,.07.18l.38.37a.25.25,0,0,0,.17.08A.25.25,0,0,0,479.8,95.52Z"/><path d="M479.8,113.77l3.51-3.51a.24.24,0,0,0,.07-.18.23.23,0,0,0-.07-.17l-3.51-3.52a.24.24,0,0,0-.18-.07.23.23,0,0,0-.17.07l-.38.38a.24.24,0,0,0-.07.18.23.23,0,0,0,.07.17l3,3-3,3a.22.22,0,0,0-.07.17.23.23,0,0,0,.07.17l.38.38a.23.23,0,0,0,.17.07A.24.24,0,0,0,479.8,113.77Z"/><path d="M479.8,232.84l3.51-3.52a.23.23,0,0,0,.07-.17.22.22,0,0,0-.07-.17l-3.51-3.52a.24.24,0,0,0-.18-.07.23.23,0,0,0-.17.07l-.38.38a.23.23,0,0,0-.07.17.26.26,0,0,0,.07.18l3,3-3,3a.24.24,0,0,0-.07.18.23.23,0,0,0,.07.17l.38.38a.23.23,0,0,0,.17.07A.24.24,0,0,0,479.8,232.84Z"/><path d="M479.8,251.2l3.51-3.51a.24.24,0,0,0,.07-.18.23.23,0,0,0-.07-.17l-3.51-3.51a.25.25,0,0,0-.18-.08.25.25,0,0,0-.17.08l-.38.37a.24.24,0,0,0-.07.18.23.23,0,0,0,.07.17l3,3-3,3a.23.23,0,0,0-.07.17.22.22,0,0,0,.07.17l.38.38a.25.25,0,0,0,.17.08A.25.25,0,0,0,479.8,251.2Z"/><path d="M479.8,268.38l3.51-3.52a.23.23,0,0,0,.07-.17.22.22,0,0,0-.07-.17L479.8,261a.24.24,0,0,0-.18-.07.23.23,0,0,0-.17.07l-.38.38a.23.23,0,0,0-.07.17.24.24,0,0,0,.07.18l3,3-3,3a.24.24,0,0,0-.07.18.23.23,0,0,0,.07.17l.38.38a.23.23,0,0,0,.17.07A.24.24,0,0,0,479.8,268.38Z"/><path d="M479.8,286.83l3.51-3.51a.24.24,0,0,0,.07-.18.23.23,0,0,0-.07-.17l-3.51-3.51a.25.25,0,0,0-.18-.08.25.25,0,0,0-.17.08l-.38.37a.24.24,0,0,0-.07.18.23.23,0,0,0,.07.17l3,3-3,3a.23.23,0,0,0-.07.17.22.22,0,0,0,.07.17l.38.38a.25.25,0,0,0,.17.08A.25.25,0,0,0,479.8,286.83Z"/><path d="M262.41,346.84l3.52-3.52a.23.23,0,0,0,.07-.17.22.22,0,0,0-.07-.17l-3.52-3.52a.22.22,0,0,0-.17-.07.23.23,0,0,0-.17.07l-.38.38a.23.23,0,0,0-.07.17.26.26,0,0,0,.07.18l3,3-3,3a.24.24,0,0,0-.07.18.23.23,0,0,0,.07.17l.38.38a.23.23,0,0,0,.17.07A.22.22,0,0,0,262.41,346.84Z"/><path d="M262.41,401l3.52-3.52a.23.23,0,0,0,.07-.17.22.22,0,0,0-.07-.17l-3.52-3.52a.22.22,0,0,0-.17-.07.23.23,0,0,0-.17.07l-.38.38a.23.23,0,0,0-.07.17.24.24,0,0,0,.07.18l3,3-3,3a.24.24,0,0,0-.07.18.23.23,0,0,0,.07.17l.38.38a.23.23,0,0,0,.17.07A.22.22,0,0,0,262.41,401Z"/><path d="M262.41,419.11l3.52-3.52a.23.23,0,0,0,.07-.17.24.24,0,0,0-.07-.18l-3.52-3.51a.22.22,0,0,0-.17-.07.23.23,0,0,0-.17.07l-.38.38a.23.23,0,0,0-.07.17.22.22,0,0,0,.07.17l3,3-3,3a.24.24,0,0,0-.07.18.23.23,0,0,0,.07.17l.38.38a.23.23,0,0,0,.17.07A.22.22,0,0,0,262.41,419.11Z"/><path d="M262.41,364.74l3.52-3.52a.23.23,0,0,0,.07-.17.24.24,0,0,0-.07-.18l-3.52-3.51a.22.22,0,0,0-.17-.07.23.23,0,0,0-.17.07l-.38.38a.23.23,0,0,0-.07.17.22.22,0,0,0,.07.17l3,3-3,3a.23.23,0,0,0-.07.17.24.24,0,0,0,.07.18l.38.38a.23.23,0,0,0,.17.07A.22.22,0,0,0,262.41,364.74Z"/><path d="M13.8,269l3.51-3.51a.23.23,0,0,0,.07-.17.24.24,0,0,0-.07-.18l-3.51-3.51a.25.25,0,0,0-.18-.08.25.25,0,0,0-.17.08l-.38.38a.22.22,0,0,0-.07.17.23.23,0,0,0,.07.17l3,3-3,3a.23.23,0,0,0-.07.17.24.24,0,0,0,.07.18l.38.37a.25.25,0,0,0,.17.08A.25.25,0,0,0,13.8,269Z"/><path d="M13.8,251l3.51-3.52a.23.23,0,0,0,.07-.17.24.24,0,0,0-.07-.18L13.8,243.6a.24.24,0,0,0-.18-.07.23.23,0,0,0-.17.07l-.38.38a.23.23,0,0,0-.07.17.22.22,0,0,0,.07.17l3,3-3,3a.23.23,0,0,0-.07.17.24.24,0,0,0,.07.18l.38.38a.23.23,0,0,0,.17.07A.24.24,0,0,0,13.8,251Z"/><path d="M13.8,78l3.51-3.51a.23.23,0,0,0,.07-.17.24.24,0,0,0-.07-.18L13.8,70.67a.25.25,0,0,0-.18-.08.25.25,0,0,0-.17.08l-.38.38a.22.22,0,0,0-.07.17.23.23,0,0,0,.07.17l3,3-3,3a.23.23,0,0,0-.07.17.24.24,0,0,0,.07.18l.38.37a.25.25,0,0,0,.17.08A.25.25,0,0,0,13.8,78Z"/><path d="M13.8,95.56l3.51-3.51a.24.24,0,0,0,.07-.18.23.23,0,0,0-.07-.17L13.8,88.19a.22.22,0,0,0-.18-.08.21.21,0,0,0-.17.08l-.38.37a.24.24,0,0,0-.07.18.23.23,0,0,0,.07.17l3,3-3,3A.22.22,0,0,0,13,95a.23.23,0,0,0,.07.17l.38.38a.25.25,0,0,0,.17.08A.25.25,0,0,0,13.8,95.56Z"/><path d="M13.8,113.63l3.51-3.51a.24.24,0,0,0,.07-.18.23.23,0,0,0-.07-.17l-3.51-3.52a.24.24,0,0,0-.18-.07.23.23,0,0,0-.17.07l-.38.38a.24.24,0,0,0-.07.18.23.23,0,0,0,.07.17l3,3-3,3a.22.22,0,0,0-.07.17.23.23,0,0,0,.07.17l.38.38a.23.23,0,0,0,.17.07A.24.24,0,0,0,13.8,113.63Z"/></svg>