<svg id="Layer_1" data-name="Layer 1" xmlns="http://www.w3.org/2000/svg" viewBox="0 0 1238 404"><defs><style>.cls-4,.cls-6{fill:none;stroke-miterlimit:10;stroke-width:3px}.cls-3{fill:#e6dbe6}.cls-4{stroke:#d0b5d5}.cls-5{fill:#372261}.cls-6{stroke:#372261}</style></defs><path fill="#d0b5d5" d="M415.36 0v404h407.97V.09L415.36 0z"/><path stroke="#963596" fill="none" stroke-miterlimit="10" stroke-width="3" d="M434.46 170.99l369.77 1.14"/><path class="cls-3" d="M830.49.11v403.8h407.97V0L830.49.11z"/><path class="cls-4" d="M849.59 170.99l369.77-.06"/><path class="cls-3" d="M.23 0v404H408.2V.09L.23 0z"/><path class="cls-4" d="M19.33 170.99l369.77-.06"/><path class="cls-5" d="M119.3 98.59a11.55 11.55 0 0 0 5.52 1.45c2.67 0 4.16-1.25 4.16-3.11s-1.15-2.74-4.06-3.79c-3.75-1.35-6.16-3.35-6.16-6.63 0-3.73 3.12-6.57 8.06-6.57a12 12 0 0 1 5.48 1.15l-1 3.35a9.72 9.72 0 0 0-4.54-1.08c-2.64 0-3.79 1.42-3.79 2.74 0 1.76 1.32 2.57 4.37 3.76 4 1.49 5.88 3.48 5.88 6.77 0 3.65-2.77 6.83-8.66 6.83a13.49 13.49 0 0 1-6.16-1.42zM146.28 103.12l-.28-1.82h-.1a6.14 6.14 0 0 1-4.87 2.2 4.9 4.9 0 0 1-5.18-4.91c0-4.16 3.69-6.26 9.78-6.23v-.27c0-1.08-.44-2.88-3.35-2.88a8.75 8.75 0 0 0-4.44 1.22l-.84-2.71a11.93 11.93 0 0 1 6-1.45c5.28 0 6.8 3.35 6.8 6.94v6a26.23 26.23 0 0 0 .24 4zm-.54-8.05c-2.94-.07-5.75.57-5.75 3.08a2.19 2.19 0 0 0 2.37 2.37 3.37 3.37 0 0 0 3.24-2.27 2.73 2.73 0 0 0 .14-.91zM154.68 103.12V89.76h-2.24v-3.12h2.24v-.71a7.72 7.72 0 0 1 2-5.62 6.31 6.31 0 0 1 4.3-1.59 8 8 0 0 1 2.68.41l-.31 3.21a4.81 4.81 0 0 0-1.76-.3c-2.06 0-2.77 1.73-2.77 3.76v.84h3.62v3.12h-3.59v13.36zM167.58 96.05c.1 3 2.43 4.27 5.07 4.27a12.45 12.45 0 0 0 4.57-.75l.61 2.88a15.61 15.61 0 0 1-5.75 1c-5.35 0-8.5-3.28-8.5-8.32 0-4.57 2.78-8.87 8.06-8.87s7.1 4.4 7.1 8a10.09 10.09 0 0 1-.13 1.76zm7.24-2.91c0-1.52-.65-4-3.42-4-2.57 0-3.66 2.34-3.82 4zM186.87 81.94v4.7h4v3.12h-4V97c0 2 .54 3 2.13 3a6.34 6.34 0 0 0 1.63-.2l.06 3.18a9.36 9.36 0 0 1-3 .4 4.82 4.82 0 0 1-3.59-1.35c-.88-1-1.28-2.44-1.28-4.6v-7.67h-2.37v-3.12h2.37v-3.72zM196.82 86.64l3 8.84c.34 1 .68 2.26.91 3.21h.11c.27-1 .57-2.17.88-3.25l2.57-8.8h4.47l-4.13 11.24c-2.27 6.16-3.79 8.9-5.76 10.59a8.26 8.26 0 0 1-4.36 2.13l-1-3.52a7 7 0 0 0 2.44-1.15 7.25 7.25 0 0 0 2.26-2.6 1.67 1.67 0 0 0 .27-.75 1.77 1.77 0 0 0-.23-.81l-6-15.13zM555.3 98.59a11.55 11.55 0 0 0 5.52 1.45c2.67 0 4.16-1.25 4.16-3.11s-1.15-2.74-4.06-3.79c-3.75-1.35-6.16-3.35-6.16-6.63 0-3.73 3.12-6.57 8.06-6.57a12 12 0 0 1 5.48 1.15l-1 3.35a9.72 9.72 0 0 0-4.54-1.08c-2.64 0-3.79 1.42-3.79 2.74 0 1.76 1.32 2.57 4.37 3.76 4 1.49 5.88 3.48 5.88 6.77 0 3.65-2.77 6.83-8.66 6.83a13.49 13.49 0 0 1-6.16-1.42zM572.8 92.13c0-2.17-.06-3.93-.13-5.49h3.66l.2 2.54h.07a6.4 6.4 0 0 1 5.65-2.91c3.79 0 6.94 3.25 6.94 8.39 0 6-3.76 8.84-7.52 8.84a5.4 5.4 0 0 1-4.63-2.2H577v8.53h-4.2zm4.2 4.09a4.32 4.32 0 0 0 .13 1.15 3.77 3.77 0 0 0 3.66 2.91c2.64 0 4.2-2.2 4.2-5.45 0-2.91-1.43-5.28-4.1-5.28a4.31 4.31 0 0 0-3.89 4.13zM595.55 96.05c.1 3 2.44 4.27 5.08 4.27a12.45 12.45 0 0 0 4.57-.75l.61 2.88a15.67 15.67 0 0 1-5.76 1c-5.34 0-8.49-3.28-8.49-8.32 0-4.57 2.77-8.87 8.05-8.87s7.11 4.4 7.11 8a11.21 11.21 0 0 1-.13 1.76zm7.24-2.91c0-1.52-.64-4-3.41-4-2.58 0-3.66 2.34-3.83 4zM613 96.05c.1 3 2.44 4.27 5.08 4.27a12.49 12.49 0 0 0 4.57-.75l.6 2.88a15.61 15.61 0 0 1-5.75 1c-5.35 0-8.49-3.28-8.49-8.32 0-4.57 2.77-8.87 8.05-8.87s7.11 4.4 7.11 8a9.88 9.88 0 0 1-.14 1.76zm7.24-2.91c0-1.52-.64-4-3.42-4-2.57 0-3.65 2.34-3.82 4zM642.74 79.09v19.4c0 1.69.07 3.52.13 4.63h-3.72l-.17-2.6h-.07a5.92 5.92 0 0 1-5.38 3c-3.92 0-7-3.35-7-8.43 0-5.52 3.42-8.8 7.38-8.8a5.26 5.26 0 0 1 4.64 2.17h.07v-9.37zm-4.16 14.42a5.65 5.65 0 0 0-.11-1.08 3.63 3.63 0 0 0-3.58-2.94c-2.68 0-4.17 2.36-4.17 5.44s1.49 5.22 4.13 5.22a3.68 3.68 0 0 0 3.59-3 4.7 4.7 0 0 0 .14-1.22zM974.41 80.62a39.41 39.41 0 0 1 6.29-.48c3.28 0 5.52.55 7 1.83a5.78 5.78 0 0 1 2 4.57 6.07 6.07 0 0 1-4.13 5.72v.1c1.63.61 2.61 2.2 3.19 4.4a46.19 46.19 0 0 0 1.79 6.36h-4.3a31.41 31.41 0 0 1-1.52-5.38c-.65-3-1.73-3.92-4.1-4h-2.09v9.37h-4.13zm4.13 10.08H981c2.8 0 4.56-1.49 4.56-3.75 0-2.51-1.76-3.66-4.46-3.66a12.08 12.08 0 0 0-2.57.2zM996.54 96.05c.1 3 2.44 4.27 5.08 4.27a12.45 12.45 0 0 0 4.57-.75l.61 2.88a15.67 15.67 0 0 1-5.76 1c-5.34 0-8.49-3.28-8.49-8.32 0-4.57 2.77-8.87 8.05-8.87s7.11 4.4 7.11 8a11.21 11.21 0 0 1-.13 1.76zm7.25-2.91c0-1.52-.65-4-3.42-4-2.58 0-3.66 2.34-3.83 4zM1010.86 99.3a9.23 9.23 0 0 0 4.23 1.18c1.83 0 2.64-.74 2.64-1.82s-.67-1.7-2.7-2.41c-3.22-1.11-4.57-2.87-4.54-4.8 0-2.91 2.4-5.18 6.23-5.18a9.62 9.62 0 0 1 4.36 1l-.81 3a7.34 7.34 0 0 0-3.48-1c-1.49 0-2.31.71-2.31 1.72s.78 1.56 2.88 2.31c3 1.08 4.37 2.6 4.4 5 0 3-2.34 5.14-6.7 5.14a10.6 10.6 0 0 1-5-1.15zM1029.62 82a2.34 2.34 0 1 1-2.34-2.27 2.23 2.23 0 0 1 2.34 2.27zm-4.44 21.08V86.64h4.2v16.48zM1033.85 79.09h4.15v24h-4.19zM1047 82a2.34 2.34 0 1 1-2.34-2.27A2.2 2.2 0 0 1 1047 82zm-4.43 21.08V86.64h4.19v16.48zM1054.16 96.05c.1 3 2.43 4.27 5.07 4.27a12.45 12.45 0 0 0 4.57-.75l.61 2.88a15.61 15.61 0 0 1-5.75 1c-5.35 0-8.5-3.28-8.5-8.32 0-4.57 2.78-8.87 8.06-8.87s7.11 4.4 7.11 8a9.88 9.88 0 0 1-.14 1.76zm7.24-2.91c0-1.52-.64-4-3.42-4-2.57 0-3.65 2.34-3.82 4zM1068.68 91.55c0-1.9 0-3.49-.14-4.91h3.66l.2 2.47h.1a6 6 0 0 1 5.25-2.84c2.88 0 5.85 1.86 5.85 7.07v9.78h-4.16v-9.3c0-2.37-.88-4.17-3.15-4.17a3.52 3.52 0 0 0-3.25 2.44 4.39 4.39 0 0 0-.16 1.35v9.68h-4.2zM1100.16 102.62a12.2 12.2 0 0 1-4.67.84c-5.15 0-8.5-3.28-8.5-8.39 0-4.94 3.39-8.8 9.17-8.8a10.38 10.38 0 0 1 4 .78l-.74 3.11a7.43 7.43 0 0 0-3.15-.64c-3.18 0-5.08 2.33-5 5.35 0 3.38 2.2 5.31 5 5.31a8.12 8.12 0 0 0 3.28-.64zM1105.88 96.05c.1 3 2.44 4.27 5.08 4.27a12.49 12.49 0 0 0 4.57-.75l.61 2.88a15.71 15.71 0 0 1-5.76 1c-5.34 0-8.49-3.28-8.49-8.32 0-4.57 2.77-8.87 8-8.87s7.11 4.4 7.11 8a9.88 9.88 0 0 1-.14 1.76zm7.24-2.91c0-1.52-.64-4-3.41-4-2.58 0-3.66 2.34-3.83 4zM79.7 218.45l-1.78 5.38h-2.28l5.81-17.12h2.67L90 223.83h-2.4l-1.83-5.38zm5.61-1.73l-1.67-4.93c-.39-1.11-.64-2.13-.89-3.12-.26 1-.54 2.06-.87 3.1l-1.67 4.95zM91.94 221.54a5.87 5.87 0 0 0 2.94.89c1.63 0 2.39-.81 2.39-1.83s-.64-1.6-2.27-2.26c-2.2-.78-3.25-2-3.25-3.47 0-2 1.6-3.61 4.24-3.61a6.23 6.23 0 0 1 3 .76l-.56 1.63a4.73 4.73 0 0 0-2.52-.71c-1.32 0-2 .76-2 1.67s.73 1.47 2.33 2.08c2.14.82 3.23 1.88 3.23 3.71 0 2.16-1.68 3.68-4.6 3.68a7 7 0 0 1-3.45-.84zM102 221.54a5.88 5.88 0 0 0 3 .89c1.62 0 2.38-.81 2.38-1.83s-.63-1.65-2.28-2.26c-2.21-.78-3.25-2-3.25-3.47 0-2 1.6-3.61 4.24-3.61a6.22 6.22 0 0 1 3 .76l-.56 1.63a4.72 4.72 0 0 0-2.51-.71c-1.32 0-2.06.76-2.06 1.67s.74 1.47 2.34 2.08c2.13.82 3.22 1.88 3.22 3.71 0 2.16-1.67 3.68-4.59 3.68a7 7 0 0 1-3.46-.84zM114.84 208.09a1.39 1.39 0 0 1-2.77 0 1.36 1.36 0 0 1 1.4-1.4 1.33 1.33 0 0 1 1.37 1.4zm-2.49 15.74v-12.29h2.23v12.29zM118 221.54a5.84 5.84 0 0 0 2.94.89c1.63 0 2.39-.81 2.39-1.83s-.64-1.65-2.29-2.26c-2.21-.78-3.25-2-3.25-3.47 0-2 1.6-3.61 4.24-3.61a6.16 6.16 0 0 1 3 .76l-.55 1.63a4.79 4.79 0 0 0-2.52-.71c-1.32 0-2 .76-2 1.67s.73 1.47 2.33 2.08c2.13.82 3.23 1.88 3.23 3.71 0 2.16-1.68 3.68-4.6 3.68a7 7 0 0 1-3.45-.84zM131 208v3.53h3.19v1.7H131v6.63c0 1.52.43 2.38 1.67 2.38a4.9 4.9 0 0 0 1.3-.15l.1 1.68a5.44 5.44 0 0 1-2 .3 3.12 3.12 0 0 1-2.42-.94 4.57 4.57 0 0 1-.86-3.2v-6.7H127v-1.7h1.9v-2.95zM137.84 218.09c0 3 2 4.27 4.21 4.27a8 8 0 0 0 3.41-.64l.38 1.6a9.93 9.93 0 0 1-4.09.76c-3.78 0-6-2.49-6-6.19s2.18-6.63 5.76-6.63c4 0 5.08 3.53 5.08 5.79a7.43 7.43 0 0 1-.08 1zm6.55-1.6c0-1.42-.58-3.63-3.1-3.63-2.26 0-3.25 2.08-3.43 3.63zM159.93 205.8v14.85c0 1.1 0 2.34.1 3.18h-2l-.1-2.13a4.54 4.54 0 0 1-4.19 2.41c-3 0-5.25-2.52-5.25-6.25 0-4.09 2.51-6.6 5.51-6.6a4.11 4.11 0 0 1 3.7 1.88h.05v-7.34zm-2.24 10.74a3.76 3.76 0 0 0-.1-.94 3.29 3.29 0 0 0-3.22-2.59c-2.31 0-3.68 2-3.68 4.75 0 2.49 1.21 4.54 3.63 4.54a3.35 3.35 0 0 0 3.27-2.66 3.75 3.75 0 0 0 .1-1zM179.63 205.8v14.85c0 1.1 0 2.34.1 3.18h-2l-.1-2.13h-.05a4.54 4.54 0 0 1-4.19 2.41c-3 0-5.25-2.52-5.25-6.25 0-4.09 2.51-6.6 5.51-6.6a4.09 4.09 0 0 1 3.7 1.88v-7.34zm-2.24 10.74a3.76 3.76 0 0 0-.1-.94 3.29 3.29 0 0 0-3.22-2.59c-2.31 0-3.68 2-3.68 4.75 0 2.49 1.22 4.54 3.63 4.54a3.35 3.35 0 0 0 3.27-2.66 3.75 3.75 0 0 0 .1-1zM183.33 215.37c0-1.44 0-2.69-.1-3.83h2l.07 2.41h.11a3.67 3.67 0 0 1 3.4-2.69 2.41 2.41 0 0 1 .63.08v2.1a3.39 3.39 0 0 0-.76-.07 3.13 3.13 0 0 0-3 2.87 5.35 5.35 0 0 0-.11 1v6.55h-2.21zM194.23 208.09a1.39 1.39 0 0 1-2.77 0 1.36 1.36 0 0 1 1.4-1.4 1.33 1.33 0 0 1 1.37 1.4zm-2.49 15.74v-12.29H194v12.29zM198.54 211.54l2.41 6.91a29.48 29.48 0 0 1 1 3.14h.05c.28-1 .64-2 1-3.14l2.39-6.91h2.33L203 223.83h-2.13l-4.67-12.29zM212.38 208.09a1.39 1.39 0 0 1-2.77 0 1.37 1.37 0 0 1 1.4-1.4 1.33 1.33 0 0 1 1.37 1.4zm-2.49 15.74v-12.29h2.24v12.29zM215.83 214.87c0-1.27 0-2.32-.1-3.33h2l.13 2a4.51 4.51 0 0 1 4.06-2.31c1.7 0 4.34 1 4.34 5.23v7.34h-2.23v-7.09c0-2-.74-3.63-2.85-3.63a3.17 3.17 0 0 0-3 2.29 3.26 3.26 0 0 0-.15 1v7.39h-2.24zM240.51 211.54c0 .89-.1 1.88-.1 3.38v7.13c0 2.82-.56 4.55-1.75 5.61a6.51 6.51 0 0 1-4.47 1.47 7.92 7.92 0 0 1-4.09-1l.56-1.7a6.89 6.89 0 0 0 3.6 1c2.29 0 4-1.19 4-4.29v-1.37h-.05a4.38 4.38 0 0 1-3.91 2.06c-3 0-5.23-2.59-5.23-6 0-4.17 2.72-6.53 5.54-6.53a4.09 4.09 0 0 1 3.83 2.13l.1-1.85zm-2.31 4.85a3.28 3.28 0 0 0-.13-1A3.22 3.22 0 0 0 235 213c-2.13 0-3.66 1.8-3.66 4.65 0 2.41 1.22 4.42 3.63 4.42a3.27 3.27 0 0 0 3.1-2.29 3.78 3.78 0 0 0 .18-1.19zM80.18 264H75v-1.9h12.65v1.9h-5.23v15.24h-2.24zM88.92 273.48c0 3 2 4.26 4.21 4.26a8.14 8.14 0 0 0 3.4-.63l.38 1.6a10 10 0 0 1-4.08.76c-3.79 0-6-2.49-6-6.19s2.19-6.63 5.77-6.63c4 0 5.08 3.53 5.08 5.79a9.62 9.62 0 0 1-.08 1zm6.55-1.6c0-1.42-.59-3.63-3.1-3.63-2.26 0-3.25 2.08-3.43 3.63zM100.39 261.19h2.24v18h-2.24zM107.63 273.48c.05 3 2 4.26 4.21 4.26a8.14 8.14 0 0 0 3.4-.63l.39 1.6a10.1 10.1 0 0 1-4.09.76c-3.79 0-6.05-2.49-6.05-6.19s2.19-6.63 5.77-6.63c4 0 5.08 3.53 5.08 5.79a7.57 7.57 0 0 1-.08 1zm6.55-1.6c0-1.42-.59-3.63-3.1-3.63-2.26 0-3.25 2.08-3.43 3.63zM119.1 270.25c0-1.27 0-2.31-.1-3.32h2l.1 2h.07a4.24 4.24 0 0 1 3.86-2.26 3.62 3.62 0 0 1 3.48 2.46h.05a5.21 5.21 0 0 1 1.37-1.6 4.2 4.2 0 0 1 2.72-.86c1.63 0 4 1.06 4 5.33v7.24h-2.19v-7c0-2.36-.86-3.78-2.66-3.78a2.89 2.89 0 0 0-2.64 2 3.7 3.7 0 0 0-.18 1.12v7.59h-2.18v-7.37c0-2-.87-3.37-2.57-3.37a3 3 0 0 0-2.77 2.23 3.23 3.23 0 0 0-.17 1.09v7.42h-2.19zM147.08 279.22l-.18-1.55h-.07a4.61 4.61 0 0 1-3.76 1.83 3.51 3.51 0 0 1-3.76-3.53c0-3 2.64-4.6 7.39-4.57v-.26a2.53 2.53 0 0 0-2.79-2.84 6.08 6.08 0 0 0-3.2.91l-.51-1.47a7.65 7.65 0 0 1 4-1.09c3.76 0 4.67 2.56 4.67 5v4.59a17.62 17.62 0 0 0 .2 3zm-.33-6.27c-2.44-.06-5.2.38-5.2 2.76a2 2 0 0 0 2.1 2.14 3.05 3.05 0 0 0 3-2.06 2.22 2.22 0 0 0 .13-.71zM155.1 263.4v3.53h3.2v1.7h-3.2v6.63c0 1.52.44 2.38 1.68 2.38a4.81 4.81 0 0 0 1.29-.15l.11 1.68a5.71 5.71 0 0 1-2 .3 3.11 3.11 0 0 1-2.42-.94 4.57 4.57 0 0 1-.86-3.2v-6.7H151v-1.7h1.9V264zM163.3 263.47a1.38 1.38 0 1 1-2.76 0 1.36 1.36 0 0 1 1.39-1.39 1.32 1.32 0 0 1 1.37 1.39zm-2.48 15.75v-12.29h2.23v12.29zM175.52 278.76a8.33 8.33 0 0 1-3.53.71c-3.71 0-6.12-2.51-6.12-6.27a6.25 6.25 0 0 1 6.6-6.53 7.39 7.39 0 0 1 3.1.64l-.51 1.73a5.1 5.1 0 0 0-2.59-.59c-2.82 0-4.34 2.08-4.34 4.65 0 2.84 1.83 4.59 4.26 4.59a6.31 6.31 0 0 0 2.74-.61zM194.13 261.19V276c0 1.09 0 2.34.1 3.18h-2l-.1-2.14h-.05a4.55 4.55 0 0 1-4.19 2.42c-3 0-5.26-2.52-5.26-6.25 0-4.09 2.52-6.6 5.51-6.6a4.12 4.12 0 0 1 3.71 1.88v-7.34zm-2.24 10.74a3.76 3.76 0 0 0-.1-.94 3.29 3.29 0 0 0-3.23-2.59c-2.31 0-3.68 2-3.68 4.75 0 2.49 1.22 4.54 3.63 4.54a3.37 3.37 0 0 0 3.28-2.66 3.75 3.75 0 0 0 .1-1zM199.08 273.48c0 3 2 4.26 4.21 4.26a8.17 8.17 0 0 0 3.4-.63l.38 1.6a10 10 0 0 1-4.08.76c-3.79 0-6.05-2.49-6.05-6.19s2.19-6.63 5.77-6.63c4 0 5.07 3.53 5.07 5.79a10.18 10.18 0 0 1-.07 1zm6.55-1.6c0-1.42-.59-3.63-3.1-3.63-2.26 0-3.25 2.08-3.43 3.63zM211.41 266.93l2.42 6.9c.4 1.12.73 2.14 1 3.15h.07c.28-1 .64-2 1-3.15l2.39-6.9h2.34l-4.83 12.29h-2.1l-4.7-12.29zM225.25 263.47a1.32 1.32 0 0 1-1.42 1.38 1.33 1.33 0 0 1-1.35-1.38 1.36 1.36 0 0 1 1.4-1.39 1.32 1.32 0 0 1 1.37 1.39zm-2.49 15.75v-12.29H225v12.29zM237.46 278.76a8.3 8.3 0 0 1-3.53.71c-3.7 0-6.12-2.51-6.12-6.27a6.25 6.25 0 0 1 6.61-6.53 7.34 7.34 0 0 1 3.09.64L237 269a5.16 5.16 0 0 0-2.59-.59c-2.82 0-4.35 2.08-4.35 4.65 0 2.84 1.83 4.59 4.27 4.59a6.31 6.31 0 0 0 2.74-.61zM241.17 273.48c.05 3 2 4.26 4.21 4.26a8.22 8.22 0 0 0 3.41-.63l.38 1.6a10.1 10.1 0 0 1-4.09.76c-3.78 0-6-2.49-6-6.19s2.18-6.63 5.76-6.63c4 0 5.08 3.53 5.08 5.79a7.57 7.57 0 0 1-.08 1zm6.55-1.6c0-1.42-.58-3.63-3.1-3.63-2.26 0-3.25 2.08-3.43 3.63zM252.34 276.93a5.88 5.88 0 0 0 2.95.89c1.62 0 2.38-.81 2.38-1.83s-.63-1.65-2.28-2.26c-2.21-.78-3.25-2-3.25-3.48 0-2 1.6-3.6 4.24-3.6a6.11 6.11 0 0 1 3 .76l-.56 1.63a4.71 4.71 0 0 0-2.51-.72c-1.32 0-2.06.77-2.06 1.68s.74 1.47 2.34 2.08c2.13.81 3.22 1.88 3.22 3.71 0 2.16-1.68 3.68-4.6 3.68a7 7 0 0 1-3.45-.84zM88.89 334.05a11.08 11.08 0 0 1-4.52.81c-4.82 0-8.45-3.05-8.45-8.66 0-5.36 3.63-9 8.93-9a9.29 9.29 0 0 1 4.07.76l-.54 1.81a8 8 0 0 0-3.45-.71c-4 0-6.68 2.56-6.68 7.06 0 4.18 2.42 6.88 6.58 6.88a8.66 8.66 0 0 0 3.6-.72zM102.42 328.36c0 4.54-3.15 6.52-6.12 6.52-3.32 0-5.89-2.43-5.89-6.32 0-4.11 2.69-6.52 6.1-6.52s5.91 2.56 5.91 6.32zm-9.75.13c0 2.69 1.55 4.72 3.74 4.72s3.73-2 3.73-4.77c0-2.09-1-4.73-3.68-4.73s-3.79 2.44-3.79 4.78zM105.24 316.58h2.23v18h-2.23zM111.23 316.58h2.24v18h-2.24zM119.71 318.86a1.31 1.31 0 0 1-1.42 1.37 1.32 1.32 0 0 1-1.35-1.37 1.36 1.36 0 0 1 1.4-1.39 1.32 1.32 0 0 1 1.37 1.39zm-2.49 15.75v-12.29h2.24v12.29zM122.86 332.32a5.87 5.87 0 0 0 2.94.89c1.63 0 2.39-.81 2.39-1.83s-.63-1.65-2.28-2.26c-2.21-.79-3.25-2-3.25-3.48 0-2 1.59-3.6 4.24-3.6a6.11 6.11 0 0 1 3 .76l-.56 1.62a4.82 4.82 0 0 0-2.52-.71c-1.32 0-2 .76-2 1.68s.73 1.47 2.33 2.08c2.14.81 3.23 1.88 3.23 3.71 0 2.16-1.68 3.68-4.6 3.68a7 7 0 0 1-3.45-.84zM135.71 318.86a1.39 1.39 0 0 1-2.77 0 1.36 1.36 0 0 1 1.39-1.39 1.33 1.33 0 0 1 1.38 1.39zm-2.49 15.75v-12.29h2.23v12.29zM150.28 328.36c0 4.54-3.15 6.52-6.12 6.52-3.33 0-5.89-2.43-5.89-6.32 0-4.11 2.69-6.52 6.09-6.52s5.92 2.56 5.92 6.32zm-9.75.13c0 2.69 1.55 4.72 3.73 4.72s3.73-2 3.73-4.77c0-2.09-1-4.73-3.68-4.73s-3.78 2.44-3.78 4.78zM153.1 325.64c0-1.27 0-2.31-.11-3.32h2l.13 2h.05a4.51 4.51 0 0 1 4.06-2.31c1.71 0 4.35 1 4.35 5.23v7.34h-2.24v-7.09c0-2-.73-3.63-2.84-3.63a3.18 3.18 0 0 0-3 2.29 3.26 3.26 0 0 0-.15 1v7.39h-2.25zM172.57 325.64c0-1.27 0-2.31-.1-3.32h1.95l.1 2h.08a4.24 4.24 0 0 1 3.86-2.26 3.64 3.64 0 0 1 3.48 2.46h.06a5 5 0 0 1 1.37-1.6 4.2 4.2 0 0 1 2.72-.86c1.62 0 4 1.06 4 5.33v7.24h-2.18v-7c0-2.36-.86-3.78-2.67-3.78a2.88 2.88 0 0 0-2.64 2 3.7 3.7 0 0 0-.17 1.11v7.6h-2.19v-7.37c0-1.95-.86-3.37-2.56-3.37a3 3 0 0 0-2.77 2.23 3 3 0 0 0-.18 1.09v7.42h-2.18zM196.23 318.86a1.31 1.31 0 0 1-1.42 1.37 1.32 1.32 0 0 1-1.35-1.37 1.36 1.36 0 0 1 1.4-1.39 1.32 1.32 0 0 1 1.37 1.39zm-2.49 15.75v-12.29H196v12.29zM202.37 318.79v3.53h3.2V324h-3.2v6.62c0 1.53.44 2.39 1.68 2.39a4.76 4.76 0 0 0 1.29-.15l.11 1.67a5.45 5.45 0 0 1-2 .31 3.11 3.11 0 0 1-2.42-.94 4.57 4.57 0 0 1-.86-3.2V324h-1.9v-1.7h1.9v-2.95zM210.57 318.86a1.38 1.38 0 0 1-2.76 0 1.36 1.36 0 0 1 1.39-1.39 1.32 1.32 0 0 1 1.37 1.39zm-2.48 15.75v-12.29h2.23v12.29zM224.61 322.32c-.05.89-.1 1.88-.1 3.37v7.14c0 2.82-.56 4.54-1.75 5.61a6.49 6.49 0 0 1-4.47 1.47 8 8 0 0 1-4.09-1l.56-1.7a7 7 0 0 0 3.61 1c2.28 0 4-1.19 4-4.29v-1.42h-.05a4.4 4.4 0 0 1-3.91 2.05c-3.05 0-5.23-2.59-5.23-6 0-4.16 2.71-6.52 5.53-6.52a4.09 4.09 0 0 1 3.84 2.13h.05l.1-1.85zm-2.31 4.85a3.29 3.29 0 0 0-.12-1 3.23 3.23 0 0 0-3.13-2.36c-2.13 0-3.65 1.8-3.65 4.65 0 2.41 1.22 4.41 3.63 4.41a3.27 3.27 0 0 0 3.1-2.28 4.08 4.08 0 0 0 .17-1.19zM235 334.61l-.17-1.55h-.08a4.6 4.6 0 0 1-3.76 1.82 3.5 3.5 0 0 1-3.76-3.52c0-3 2.64-4.6 7.39-4.57v-.26a2.53 2.53 0 0 0-2.79-2.84 6.11 6.11 0 0 0-3.2.91l-.51-1.47a7.65 7.65 0 0 1 4-1.09c3.76 0 4.67 2.56 4.67 5v4.6a17.62 17.62 0 0 0 .2 2.95zm-.33-6.28c-2.43-.05-5.2.38-5.2 2.77a2 2 0 0 0 2.11 2.13 3.06 3.06 0 0 0 3-2.05 2.52 2.52 0 0 0 .12-.71zM243.05 318.79v3.53h3.2V324h-3.2v6.62c0 1.53.43 2.39 1.67 2.39a4.84 4.84 0 0 0 1.3-.15l.1 1.67a5.41 5.41 0 0 1-2 .31 3.09 3.09 0 0 1-2.41-.94 4.52 4.52 0 0 1-.87-3.2V324H239v-1.7h1.9v-2.95zM251.25 318.86a1.39 1.39 0 0 1-2.77 0 1.36 1.36 0 0 1 1.4-1.39 1.33 1.33 0 0 1 1.37 1.39zm-2.49 15.75v-12.29H251v12.29zM265.82 328.36c0 4.54-3.15 6.52-6.12 6.52-3.33 0-5.89-2.43-5.89-6.32 0-4.11 2.69-6.52 6.09-6.52s5.92 2.56 5.92 6.32zm-9.75.13c0 2.69 1.55 4.72 3.73 4.72s3.73-2 3.73-4.77c0-2.09-1-4.73-3.68-4.73s-3.78 2.44-3.78 4.78zM268.64 325.64c0-1.27 0-2.31-.1-3.32h2l.12 2h.05a4.52 4.52 0 0 1 4.07-2.31c1.7 0 4.34 1 4.34 5.23v7.34h-2.24v-7.09c0-2-.73-3.63-2.84-3.63a3.18 3.18 0 0 0-3 2.29 3.26 3.26 0 0 0-.15 1v7.39h-2.23zM287.8 332.32a5.88 5.88 0 0 0 2.95.89c1.63 0 2.39-.81 2.39-1.83s-.64-1.65-2.29-2.26c-2.21-.79-3.25-2-3.25-3.48 0-2 1.6-3.6 4.24-3.6a6.05 6.05 0 0 1 3 .76l-.56 1.62a4.81 4.81 0 0 0-2.51-.71c-1.32 0-2.06.76-2.06 1.68s.74 1.47 2.34 2.08c2.13.81 3.22 1.88 3.22 3.71 0 2.16-1.67 3.68-4.59 3.68a7 7 0 0 1-3.45-.84zM299 322.32l2.69 7.26c.28.81.58 1.78.78 2.51h.05c.23-.73.49-1.67.79-2.56l2.44-7.21h2.36l-3.35 8.76c-1.6 4.21-2.69 6.37-4.22 7.69a6.08 6.08 0 0 1-2.74 1.45l-.56-1.88a6.11 6.11 0 0 0 2-1.09 6.89 6.89 0 0 0 1.88-2.49 1.67 1.67 0 0 0 .18-.54 2.14 2.14 0 0 0-.16-.58l-4.54-11.32zM309.67 332.32a5.84 5.84 0 0 0 2.94.89c1.63 0 2.39-.81 2.39-1.83s-.64-1.65-2.29-2.26c-2.21-.79-3.25-2-3.25-3.48 0-2 1.6-3.6 4.24-3.6a6.05 6.05 0 0 1 3 .76l-.55 1.62a4.89 4.89 0 0 0-2.52-.71c-1.32 0-2.06.76-2.06 1.68s.74 1.47 2.34 2.08c2.13.81 3.23 1.88 3.23 3.71 0 2.16-1.68 3.68-4.6 3.68a7 7 0 0 1-3.45-.84zM322.71 318.79v3.53h3.2V324h-3.2v6.62c0 1.53.44 2.39 1.68 2.39a4.9 4.9 0 0 0 1.3-.15l.1 1.67a5.41 5.41 0 0 1-2 .31 3.12 3.12 0 0 1-2.42-.94 4.57 4.57 0 0 1-.86-3.2V324h-1.9v-1.7h1.9v-2.95zM329.52 328.87c.05 3 2 4.26 4.21 4.26a8.22 8.22 0 0 0 3.41-.63l.38 1.6a10.1 10.1 0 0 1-4.09.76c-3.78 0-6-2.49-6-6.2s2.18-6.62 5.76-6.62c4 0 5.08 3.53 5.08 5.79a7.57 7.57 0 0 1-.08 1zm6.55-1.6c0-1.42-.58-3.63-3.1-3.63-2.26 0-3.25 2.08-3.43 3.63zM341 325.64c0-1.27 0-2.31-.1-3.32h2l.1 2a4.21 4.21 0 0 1 3.85-2.26 3.62 3.62 0 0 1 3.48 2.46h.05a5 5 0 0 1 1.38-1.6 4.15 4.15 0 0 1 2.71-.86c1.63 0 4 1.06 4 5.33v7.24h-2.18v-7c0-2.36-.87-3.78-2.67-3.78a2.88 2.88 0 0 0-2.64 2 3.68 3.68 0 0 0-.18 1.11v7.6h-2.18v-7.37c0-1.95-.87-3.37-2.57-3.37a3 3 0 0 0-2.76 2.23 3 3 0 0 0-.18 1.09v7.42H341zM361.86 332.32a5.88 5.88 0 0 0 2.95.89c1.62 0 2.39-.81 2.39-1.83s-.64-1.65-2.29-2.26c-2.21-.79-3.25-2-3.25-3.48 0-2 1.6-3.6 4.24-3.6a6.08 6.08 0 0 1 3 .76l-.56 1.62a4.81 4.81 0 0 0-2.51-.71c-1.32 0-2.06.76-2.06 1.68s.74 1.47 2.34 2.08c2.13.81 3.22 1.88 3.22 3.71 0 2.16-1.67 3.68-4.59 3.68a7 7 0 0 1-3.46-.84z"/><circle class="cls-6" cx="41.63" cy="217" r="4.5"/><circle class="cls-6" cx="42" cy="272" r="4.5"/><circle class="cls-6" cx="42.37" cy="327" r="4.5"/><path class="cls-5" d="M493.7 218.45l-1.78 5.38h-2.28l5.81-17.12h2.67l5.88 17.12h-2.4l-1.83-5.38zm5.61-1.73l-1.67-4.93c-.39-1.11-.64-2.13-.89-3.12h-.05c-.26 1-.54 2.06-.87 3.1l-1.67 4.95zM516.37 220.48c0 1.27 0 2.38.1 3.35h-2l-.12-2a4.64 4.64 0 0 1-4.07 2.29c-1.93 0-4.24-1.07-4.24-5.39v-7.18h2.24v6.8c0 2.34.71 3.91 2.74 3.91a3.24 3.24 0 0 0 3-2 3.4 3.4 0 0 0 .2-1.14v-7.54h2.23zM522.77 208v3.53H526v1.7h-3.2v6.63c0 1.52.43 2.38 1.68 2.38a4.81 4.81 0 0 0 1.29-.15l.1 1.68a5.4 5.4 0 0 1-2 .3 3.09 3.09 0 0 1-2.41-.94 4.57 4.57 0 0 1-.86-3.2v-6.7h-1.91v-1.7h1.91v-2.95zM539.45 217.58c0 4.55-3.15 6.53-6.12 6.53-3.32 0-5.89-2.44-5.89-6.32 0-4.12 2.69-6.53 6.1-6.53s5.91 2.56 5.91 6.32zm-9.75.13c0 2.69 1.55 4.72 3.73 4.72s3.74-2 3.74-4.77c0-2.08-1-4.72-3.69-4.72s-3.78 2.43-3.78 4.77zM542.27 214.87c0-1.27 0-2.32-.1-3.33h2l.1 2h.08a4.24 4.24 0 0 1 3.86-2.26 3.65 3.65 0 0 1 3.48 2.46h.05a5.08 5.08 0 0 1 1.37-1.6 4.2 4.2 0 0 1 2.72-.86c1.62 0 4 1.07 4 5.33v7.24h-2.18v-7c0-2.36-.86-3.78-2.67-3.78a2.89 2.89 0 0 0-2.64 2 3.72 3.72 0 0 0-.17 1.12v7.59H550v-7.37c0-2-.86-3.37-2.56-3.37a3.06 3.06 0 0 0-2.77 2.23 3 3 0 0 0-.18 1.09v7.42h-2.18zM570.25 223.83l-.18-1.55H570a4.57 4.57 0 0 1-3.75 1.83 3.5 3.5 0 0 1-3.76-3.53c0-3 2.64-4.6 7.39-4.57v-.26a2.54 2.54 0 0 0-2.8-2.84 6.23 6.23 0 0 0-3.2.91l-.5-1.47a7.58 7.58 0 0 1 4-1.09c3.76 0 4.68 2.56 4.68 5v4.59a17.62 17.62 0 0 0 .2 3zm-.33-6.27c-2.44-.05-5.21.38-5.21 2.76a2 2 0 0 0 2.11 2.14 3.06 3.06 0 0 0 3-2.06 2.22 2.22 0 0 0 .13-.71zM578.27 208v3.53h3.2v1.7h-3.2v6.63c0 1.52.43 2.38 1.68 2.38a4.81 4.81 0 0 0 1.29-.15l.1 1.68a5.44 5.44 0 0 1-2 .3 3.09 3.09 0 0 1-2.41-.94 4.53 4.53 0 0 1-.86-3.2v-6.7h-1.91v-1.7h1.91v-2.95zM585.07 218.09c.06 3 2 4.27 4.22 4.27a8 8 0 0 0 3.4-.64l.38 1.6a9.85 9.85 0 0 1-4.09.76c-3.78 0-6-2.49-6-6.19s2.19-6.63 5.77-6.63c4 0 5.07 3.53 5.07 5.79a10 10 0 0 1-.07 1zm6.56-1.6c0-1.42-.59-3.63-3.1-3.63-2.26 0-3.25 2.08-3.43 3.63zM607.16 205.8v14.85c0 1.1 0 2.34.1 3.18h-2l-.1-2.13a4.56 4.56 0 0 1-4.19 2.41c-3 0-5.26-2.52-5.26-6.25 0-4.09 2.51-6.6 5.51-6.6a4.12 4.12 0 0 1 3.71 1.88v-7.34zm-2.23 10.74a4.29 4.29 0 0 0-.1-.94 3.29 3.29 0 0 0-3.23-2.6c-2.31 0-3.68 2-3.68 4.75 0 2.49 1.22 4.54 3.63 4.54a3.37 3.37 0 0 0 3.28-2.66 4.25 4.25 0 0 0 .1-1zM616.25 215.55c0-1.57 0-2.84-.1-4h2l.11 2.11a4.82 4.82 0 0 1 4.36-2.39c3 0 5.21 2.51 5.21 6.25 0 4.41-2.69 6.6-5.59 6.6a4.31 4.31 0 0 1-3.78-1.93v6.68h-2.21zm2.21 3.28a5.07 5.07 0 0 0 .1.91 3.45 3.45 0 0 0 3.35 2.62c2.36 0 3.73-1.93 3.73-4.75 0-2.47-1.29-4.57-3.65-4.57a3.56 3.56 0 0 0-3.38 2.76 3.93 3.93 0 0 0-.15.92zM637.5 223.83l-.18-1.55h-.07a4.61 4.61 0 0 1-3.76 1.83 3.5 3.5 0 0 1-3.76-3.53c0-3 2.64-4.6 7.39-4.57v-.26a2.53 2.53 0 0 0-2.79-2.84 6.17 6.17 0 0 0-3.2.91l-.51-1.47a7.62 7.62 0 0 1 4-1.09c3.75 0 4.67 2.56 4.67 5v4.59a17.62 17.62 0 0 0 .2 3zm-.33-6.27c-2.44-.05-5.21.38-5.21 2.76a2 2 0 0 0 2.11 2.14 3.05 3.05 0 0 0 3-2.06 2.22 2.22 0 0 0 .13-.71zM642.93 215.37c0-1.44 0-2.69-.1-3.83h2l.07 2.41h.1a3.69 3.69 0 0 1 3.41-2.69 2.41 2.41 0 0 1 .63.08v2.1a3.45 3.45 0 0 0-.76-.07 3.14 3.14 0 0 0-3 2.87 6.33 6.33 0 0 0-.1 1v6.55h-2.21zM653.54 217.18h.06c.3-.44.73-1 1.09-1.4l3.6-4.24H661l-4.74 5.05 5.4 7.24h-2.71l-4.24-5.89-1.15 1.27v4.62h-2.2v-18h2.2zM666.16 208.09a1.38 1.38 0 0 1-2.76 0 1.36 1.36 0 0 1 1.39-1.4 1.33 1.33 0 0 1 1.37 1.4zm-2.49 15.74v-12.29h2.24v12.29zM669.62 214.87c0-1.27 0-2.32-.11-3.33h2l.13 2a4.51 4.51 0 0 1 4.06-2.31c1.71 0 4.35 1 4.35 5.23v7.34h-2.24v-7.09c0-2-.73-3.63-2.84-3.63a3.18 3.18 0 0 0-3 2.29 3.26 3.26 0 0 0-.15 1v7.39h-2.23zM694.29 211.54c0 .89-.1 1.88-.1 3.38v7.13c0 2.82-.56 4.55-1.75 5.61a6.49 6.49 0 0 1-4.47 1.47 8 8 0 0 1-4.09-1l.56-1.7a6.9 6.9 0 0 0 3.61 1c2.28 0 4-1.19 4-4.29v-1.37a4.4 4.4 0 0 1-3.91 2.06c-3 0-5.23-2.59-5.23-6 0-4.17 2.71-6.53 5.53-6.53a4.11 4.11 0 0 1 3.84 2.13l.1-1.85zm-2.29 4.85a3.29 3.29 0 0 0-.12-1 3.23 3.23 0 0 0-3.13-2.36c-2.13 0-3.65 1.8-3.65 4.65 0 2.41 1.22 4.42 3.63 4.42a3.28 3.28 0 0 0 3.1-2.29 4.08 4.08 0 0 0 .17-1.19zM493.7 273.83l-1.78 5.39h-2.28l5.81-17.12h2.67l5.88 17.12h-2.4l-1.83-5.39zm5.61-1.72l-1.67-4.93c-.39-1.12-.64-2.13-.89-3.12h-.05c-.26 1-.54 2.06-.87 3.1l-1.67 4.95zM516.37 275.87c0 1.26 0 2.38.1 3.35h-2l-.12-2a4.64 4.64 0 0 1-4.07 2.29c-1.93 0-4.24-1.07-4.24-5.39v-7.18h2.24v6.8c0 2.34.71 3.91 2.74 3.91a3.24 3.24 0 0 0 3-2 3.4 3.4 0 0 0 .2-1.14v-7.54h2.23zM522.77 263.4v3.53H526v1.7h-3.2v6.63c0 1.52.43 2.38 1.68 2.38a4.81 4.81 0 0 0 1.29-.15l.1 1.68a5.62 5.62 0 0 1-2 .3 3.09 3.09 0 0 1-2.41-.94 4.57 4.57 0 0 1-.86-3.2v-6.7h-1.91v-1.7h1.91V264zM539.45 273c0 4.55-3.15 6.53-6.12 6.53-3.32 0-5.89-2.44-5.89-6.33 0-4.11 2.69-6.52 6.1-6.52s5.91 2.53 5.91 6.32zm-9.75.13c0 2.69 1.55 4.72 3.73 4.72s3.74-2 3.74-4.77c0-2.09-1-4.73-3.69-4.73s-3.78 2.41-3.78 4.75zM556.41 278.76a8.3 8.3 0 0 1-3.53.71c-3.71 0-6.12-2.51-6.12-6.27a6.25 6.25 0 0 1 6.6-6.53 7.39 7.39 0 0 1 3.1.64L556 269a5.1 5.1 0 0 0-2.59-.59c-2.82 0-4.34 2.08-4.34 4.65 0 2.84 1.83 4.59 4.27 4.59a6.34 6.34 0 0 0 2.74-.61zM559 270.76c0-1.45 0-2.69-.1-3.83h2l.07 2.41h.11a3.67 3.67 0 0 1 3.4-2.69 2.43 2.43 0 0 1 .63.07v2.11a3.39 3.39 0 0 0-.76-.07 3.14 3.14 0 0 0-3 2.87 6.33 6.33 0 0 0-.1 1v6.55H559zM578.19 273c0 4.55-3.15 6.53-6.12 6.53-3.32 0-5.89-2.44-5.89-6.33 0-4.11 2.7-6.52 6.1-6.52s5.91 2.53 5.91 6.32zm-9.75.13c0 2.69 1.55 4.72 3.74 4.72s3.73-2 3.73-4.77c0-2.09-1-4.73-3.68-4.73s-3.79 2.41-3.79 4.75zM580.71 276.93a5.84 5.84 0 0 0 2.94.89c1.63 0 2.39-.81 2.39-1.83s-.64-1.65-2.29-2.26c-2.21-.78-3.25-2-3.25-3.48 0-2 1.6-3.6 4.24-3.6a6.05 6.05 0 0 1 3 .76l-.55 1.63a4.78 4.78 0 0 0-2.52-.72c-1.32 0-2.05.77-2.05 1.68s.73 1.47 2.33 2.08c2.13.81 3.23 1.88 3.23 3.71 0 2.16-1.68 3.68-4.6 3.68a7 7 0 0 1-3.45-.84zM590.76 276.93a5.88 5.88 0 0 0 3 .89c1.62 0 2.38-.81 2.38-1.83s-.63-1.65-2.28-2.26c-2.21-.78-3.25-2-3.25-3.48 0-2 1.6-3.6 4.24-3.6a6.11 6.11 0 0 1 3 .76l-.56 1.63a4.71 4.71 0 0 0-2.51-.72c-1.32 0-2.06.77-2.06 1.68s.74 1.47 2.34 2.08c2.13.81 3.22 1.88 3.22 3.71 0 2.16-1.68 3.68-4.6 3.68a7 7 0 0 1-3.45-.84zM606.3 271.52v1.65H600v-1.65zM620 261.19V276c0 1.09 0 2.34.1 3.18h-2l-.1-2.14h-.05a4.55 4.55 0 0 1-4.19 2.42c-3 0-5.26-2.52-5.26-6.25 0-4.09 2.51-6.6 5.51-6.6a4.12 4.12 0 0 1 3.71 1.88v-7.34zm-2.23 10.74a4.29 4.29 0 0 0-.1-.94 3.29 3.29 0 0 0-3.23-2.59c-2.31 0-3.68 2-3.68 4.75 0 2.49 1.22 4.54 3.63 4.54a3.37 3.37 0 0 0 3.28-2.66 4.25 4.25 0 0 0 .1-1zM634.81 273c0 4.55-3.15 6.53-6.12 6.53-3.33 0-5.89-2.44-5.89-6.33 0-4.11 2.69-6.52 6.09-6.52s5.92 2.53 5.92 6.32zm-9.75.13c0 2.69 1.55 4.72 3.73 4.72s3.73-2 3.73-4.77c0-2.09-1-4.73-3.68-4.73s-3.78 2.41-3.78 4.75zM646.39 278.76a8.33 8.33 0 0 1-3.53.71c-3.71 0-6.12-2.51-6.12-6.27a6.25 6.25 0 0 1 6.6-6.53 7.39 7.39 0 0 1 3.1.64l-.51 1.73a5.1 5.1 0 0 0-2.59-.59c-2.82 0-4.34 2.08-4.34 4.65 0 2.84 1.83 4.59 4.26 4.59a6.39 6.39 0 0 0 2.75-.61zM651.21 272.56c.31-.43.74-1 1.09-1.39l3.61-4.24h2.69l-4.7 5.07 5.41 7.24h-2.72l-4.24-5.89-1.14 1.27v4.62H649v-18h2.21zM663.83 263.47a1.39 1.39 0 0 1-2.77 0 1.36 1.36 0 0 1 1.4-1.39 1.33 1.33 0 0 1 1.37 1.39zm-2.49 15.75v-12.29h2.23v12.29zM667.28 270.25c0-1.27 0-2.31-.1-3.32h2l.13 2h.05a4.51 4.51 0 0 1 4.06-2.31c1.7 0 4.34 1 4.34 5.23v7.34h-2.23v-7.09c0-2-.74-3.63-2.85-3.63a3.17 3.17 0 0 0-3 2.29 3.25 3.25 0 0 0-.16 1v7.39h-2.23zM692 266.93c-.05.89-.1 1.88-.1 3.37v7.14c0 2.82-.56 4.54-1.75 5.61a6.51 6.51 0 0 1-4.47 1.47 7.92 7.92 0 0 1-4.09-1l.56-1.7a7 7 0 0 0 3.6 1c2.29 0 4-1.19 4-4.29v-1.37a4.38 4.38 0 0 1-3.91 2.06c-3 0-5.23-2.59-5.23-6 0-4.16 2.72-6.52 5.54-6.52a4.09 4.09 0 0 1 3.83 2.13l.1-1.85zm-2.31 4.85a3.28 3.28 0 0 0-.13-1 3.22 3.22 0 0 0-3.12-2.36c-2.13 0-3.66 1.8-3.66 4.65 0 2.41 1.22 4.41 3.63 4.41a3.27 3.27 0 0 0 3.1-2.28 3.78 3.78 0 0 0 .18-1.19zM493.73 334.61l-4.35-17.12h2.34l2 8.66c.51 2.13 1 4.27 1.27 5.92h.05c.28-1.7.81-3.74 1.4-5.94l2.28-8.64h2.31l2.09 8.69c.48 2 .93 4.06 1.19 5.86h.05c.36-1.88.84-3.78 1.37-5.91l2.26-8.64h2.26l-4.85 17.12h-2.31l-2.09-8.92a52.83 52.83 0 0 1-1.12-5.58 51.09 51.09 0 0 1-1.32 5.58l-2.56 8.92zM518.3 334.61l-.18-1.55h-.07a4.6 4.6 0 0 1-3.76 1.82 3.5 3.5 0 0 1-3.76-3.52c0-3 2.64-4.6 7.39-4.57v-.26a2.53 2.53 0 0 0-2.79-2.84 6.11 6.11 0 0 0-3.2.91l-.51-1.47a7.65 7.65 0 0 1 4-1.09c3.76 0 4.67 2.56 4.67 5v4.6a17.62 17.62 0 0 0 .2 2.95zm-.33-6.28c-2.44-.05-5.2.38-5.2 2.77a2 2 0 0 0 2.1 2.13 3 3 0 0 0 3-2.05 2.22 2.22 0 0 0 .13-.71zM523.73 326.15c0-1.45 0-2.69-.1-3.83h2l.07 2.41h.11a3.67 3.67 0 0 1 3.4-2.69 2.43 2.43 0 0 1 .63.07v2.11a3.34 3.34 0 0 0-.76-.08 3.15 3.15 0 0 0-3 2.87 6.44 6.44 0 0 0-.1 1v6.56h-2.21zM533 328.87c.05 3 2 4.26 4.21 4.26a8.14 8.14 0 0 0 3.4-.63l.39 1.6a10.1 10.1 0 0 1-4.09.76c-3.79 0-6.05-2.49-6.05-6.2s2.19-6.62 5.77-6.62c4 0 5.08 3.53 5.08 5.79a7.57 7.57 0 0 1-.08 1zm6.55-1.6c0-1.42-.59-3.63-3.1-3.63-2.26 0-3.25 2.08-3.43 3.63zM544.5 316.58h2.24v7.67a4.05 4.05 0 0 1 1.6-1.58 4.58 4.58 0 0 1 2.28-.63c1.65 0 4.29 1 4.29 5.25v7.32h-2.23v-7.06c0-2-.74-3.66-2.84-3.66a3.22 3.22 0 0 0-3 2.24 2.61 2.61 0 0 0-.15 1.06v7.42h-2.19zM569.71 328.36c0 4.54-3.14 6.52-6.11 6.52-3.33 0-5.89-2.43-5.89-6.32 0-4.11 2.69-6.52 6.09-6.52s5.91 2.56 5.91 6.32zm-9.75.13c0 2.69 1.55 4.72 3.74 4.72s3.73-2 3.73-4.77c0-2.09-1-4.73-3.68-4.73s-3.75 2.44-3.75 4.78zM582.82 331.25c0 1.27 0 2.39.1 3.36h-2l-.13-2a4.63 4.63 0 0 1-4.06 2.28c-1.93 0-4.24-1.06-4.24-5.38v-7.18h2.23v6.8c0 2.34.71 3.91 2.74 3.91a3.24 3.24 0 0 0 3-2 3.45 3.45 0 0 0 .2-1.14v-7.54h2.24zM586.22 332.32a5.84 5.84 0 0 0 2.94.89c1.63 0 2.39-.81 2.39-1.83s-.64-1.65-2.29-2.26c-2.21-.79-3.25-2-3.25-3.48 0-2 1.6-3.6 4.24-3.6a6.13 6.13 0 0 1 3 .76l-.56 1.62a4.85 4.85 0 0 0-2.52-.71c-1.32 0-2.05.76-2.05 1.68s.73 1.47 2.33 2.08c2.14.81 3.23 1.88 3.23 3.71 0 2.16-1.68 3.68-4.6 3.68a7 7 0 0 1-3.45-.84zM597.82 328.87c0 3 2 4.26 4.21 4.26a8.22 8.22 0 0 0 3.41-.63l.38 1.6a10.1 10.1 0 0 1-4.09.76c-3.78 0-6-2.49-6-6.2s2.18-6.62 5.76-6.62c4 0 5.08 3.53 5.08 5.79a7.57 7.57 0 0 1-.08 1zm6.55-1.6c0-1.42-.58-3.63-3.1-3.63-2.26 0-3.25 2.08-3.43 3.63zM614.68 326.15c0-1.45 0-2.69-.1-3.83h1.95l.08 2.41h.1a3.68 3.68 0 0 1 3.4-2.69 2.56 2.56 0 0 1 .64.07v2.11a3.44 3.44 0 0 0-.77-.08 3.13 3.13 0 0 0-3 2.87 6.44 6.44 0 0 0-.1 1v6.56h-2.21zM633.85 328.36c0 4.54-3.15 6.52-6.12 6.52-3.33 0-5.89-2.43-5.89-6.32 0-4.11 2.69-6.52 6.09-6.52s5.92 2.56 5.92 6.32zm-9.75.13c0 2.69 1.54 4.72 3.73 4.72s3.73-2 3.73-4.77c0-2.09-1-4.73-3.68-4.73s-3.78 2.44-3.78 4.78zM636.56 334.61c.05-.84.1-2.09.1-3.18v-14.85h2.21v7.72a4.58 4.58 0 0 1 4.19-2.26c3 0 5.21 2.54 5.18 6.27 0 4.39-2.77 6.57-5.51 6.57a4.36 4.36 0 0 1-4.11-2.31h-.08l-.1 2zm2.31-4.93a4.17 4.17 0 0 0 .1.81 3.46 3.46 0 0 0 3.36 2.62c2.33 0 3.73-1.91 3.73-4.73 0-2.46-1.27-4.57-3.66-4.57a3.57 3.57 0 0 0-3.4 2.75 4.41 4.41 0 0 0-.13.91zM662.23 328.36c0 4.54-3.15 6.52-6.12 6.52-3.33 0-5.89-2.43-5.89-6.32 0-4.11 2.69-6.52 6.09-6.52s5.92 2.56 5.92 6.32zm-9.75.13c0 2.69 1.55 4.72 3.73 4.72s3.73-2 3.73-4.77c0-2.09-1-4.73-3.68-4.73s-3.78 2.44-3.78 4.78zM667.74 318.79v3.53h3.2V324h-3.2v6.62c0 1.53.43 2.39 1.67 2.39a4.84 4.84 0 0 0 1.3-.15l.1 1.67a5.41 5.41 0 0 1-2 .31 3.09 3.09 0 0 1-2.41-.94 4.52 4.52 0 0 1-.87-3.2V324h-1.9v-1.7h1.9v-2.95zM675.94 318.86a1.39 1.39 0 0 1-2.77 0 1.36 1.36 0 0 1 1.4-1.39 1.32 1.32 0 0 1 1.37 1.39zm-2.49 15.75v-12.29h2.23v12.29zM688.15 334.15a8.3 8.3 0 0 1-3.53.71c-3.71 0-6.12-2.51-6.12-6.27a6.24 6.24 0 0 1 6.6-6.53 7.39 7.39 0 0 1 3.1.64l-.51 1.72a5.23 5.23 0 0 0-2.59-.58c-2.81 0-4.34 2.08-4.34 4.65 0 2.84 1.83 4.59 4.27 4.59a6.34 6.34 0 0 0 2.74-.61zM690.46 332.32a5.88 5.88 0 0 0 2.95.89c1.62 0 2.38-.81 2.38-1.83s-.63-1.65-2.28-2.26c-2.21-.79-3.25-2-3.25-3.48 0-2 1.6-3.6 4.24-3.6a6.11 6.11 0 0 1 3 .76l-.56 1.62a4.81 4.81 0 0 0-2.51-.71c-1.32 0-2.06.76-2.06 1.68s.74 1.47 2.34 2.08c2.13.81 3.22 1.88 3.22 3.71 0 2.16-1.68 3.68-4.6 3.68a7 7 0 0 1-3.45-.84z"/><circle class="cls-6" cx="455.63" cy="217" r="4.5"/><circle class="cls-6" cx="456" cy="272" r="4.5"/><circle class="cls-6" cx="456.37" cy="327" r="4.5"/><path class="cls-5" d="M904.93 206.94a21.8 21.8 0 0 1 4-.35c2.21 0 3.63.38 4.7 1.24a3.59 3.59 0 0 1 1.42 3 4.06 4.06 0 0 1-2.9 3.76 4.41 4.41 0 0 1 3.53 4.29 4.62 4.62 0 0 1-1.44 3.43c-1.2 1.09-3.13 1.6-5.92 1.6a26.35 26.35 0 0 1-3.43-.2zm2.21 7h2c2.33 0 3.7-1.22 3.7-2.87 0-2-1.52-2.79-3.75-2.79a10.08 10.08 0 0 0-2 .15zm0 8.2a11.44 11.44 0 0 0 1.86.1c2.28 0 4.39-.83 4.39-3.32s-2-3.3-4.42-3.3h-1.83zM918.62 205.8h2.23v18h-2.23zM935.73 217.58c0 4.55-3.15 6.53-6.12 6.53-3.33 0-5.89-2.44-5.89-6.32 0-4.12 2.69-6.53 6.09-6.53s5.92 2.56 5.92 6.32zm-9.75.13c0 2.69 1.55 4.72 3.73 4.72s3.73-2 3.73-4.77c0-2.08-1-4.72-3.68-4.72s-3.76 2.43-3.76 4.77zM947.31 223.37a8.18 8.18 0 0 1-3.53.71c-3.71 0-6.12-2.51-6.12-6.27a6.24 6.24 0 0 1 6.6-6.52 7.57 7.57 0 0 1 3.1.63l-.51 1.73a5.1 5.1 0 0 0-2.59-.59c-2.82 0-4.34 2.08-4.34 4.65 0 2.84 1.83 4.59 4.26 4.59a6.57 6.57 0 0 0 2.75-.6zM952.13 217.18c.31-.44.74-1 1.09-1.4l3.61-4.24h2.69l-4.75 5.05 5.41 7.24h-2.72l-4.24-5.89-1.14 1.27v4.62h-2.21v-18h2.21zM970.59 223.37a8.18 8.18 0 0 1-3.53.71c-3.71 0-6.12-2.51-6.12-6.27a6.24 6.24 0 0 1 6.6-6.52 7.57 7.57 0 0 1 3.1.63l-.51 1.73a5.1 5.1 0 0 0-2.59-.59c-2.82 0-4.34 2.08-4.34 4.65 0 2.84 1.83 4.59 4.26 4.59a6.57 6.57 0 0 0 2.75-.6zM973.2 205.8h2.24v7.67a4.12 4.12 0 0 1 1.6-1.58 4.58 4.58 0 0 1 2.28-.63c1.65 0 4.29 1 4.29 5.26v7.31h-2.23v-7.06c0-2-.74-3.66-2.85-3.66a3.22 3.22 0 0 0-3 2.24 2.61 2.61 0 0 0-.15 1.06v7.42h-2.18zM994.1 223.83l-.18-1.55h-.08a4.57 4.57 0 0 1-3.75 1.83 3.5 3.5 0 0 1-3.76-3.53c0-3 2.64-4.6 7.39-4.57v-.26a2.54 2.54 0 0 0-2.8-2.84 6.23 6.23 0 0 0-3.2.91l-.5-1.47a7.61 7.61 0 0 1 4-1.09c3.76 0 4.68 2.56 4.68 5v4.59a17.62 17.62 0 0 0 .2 3zm-.33-6.27c-2.44-.05-5.21.38-5.21 2.76a2 2 0 0 0 2.11 2.14 3.05 3.05 0 0 0 3-2.06 2.22 2.22 0 0 0 .13-.71zM1002 208.09a1.39 1.39 0 0 1-2.77 0 1.36 1.36 0 0 1 1.4-1.4 1.33 1.33 0 0 1 1.37 1.4zm-2.49 15.74v-12.29h2.23v12.29zM1005.47 214.87c0-1.27 0-2.32-.1-3.33h2l.13 2a4.51 4.51 0 0 1 4.06-2.31c1.7 0 4.34 1 4.34 5.23v7.34h-2.23v-7.09c0-2-.74-3.63-2.85-3.63a3.17 3.17 0 0 0-3 2.29 3.26 3.26 0 0 0-.15 1v7.39h-2.24zM916.89 278.66a11.08 11.08 0 0 1-4.52.81c-4.82 0-8.45-3.05-8.45-8.66 0-5.35 3.63-9 8.93-9a9.1 9.1 0 0 1 4.07.77l-.54 1.8a8 8 0 0 0-3.45-.71c-4 0-6.68 2.56-6.68 7.06 0 4.19 2.42 6.88 6.58 6.88a8.83 8.83 0 0 0 3.6-.71zM919.58 261.19h2.24v18h-2.24zM936.69 273c0 4.55-3.15 6.53-6.12 6.53-3.32 0-5.89-2.44-5.89-6.33 0-4.11 2.7-6.52 6.1-6.52s5.91 2.53 5.91 6.32zm-9.75.13c0 2.69 1.55 4.72 3.74 4.72s3.73-2 3.73-4.77c0-2.09-1-4.73-3.68-4.73s-3.79 2.41-3.79 4.75zM949.79 275.87c0 1.26 0 2.38.11 3.35h-2l-.13-2a4.64 4.64 0 0 1-4.07 2.29c-1.92 0-4.24-1.07-4.24-5.39v-7.18h2.24v6.8c0 2.34.71 3.91 2.74 3.91a3.24 3.24 0 0 0 3-2 3.4 3.4 0 0 0 .2-1.14v-7.54h2.23zM964.11 261.19V276c0 1.09 0 2.34.1 3.18h-2l-.1-2.14h-.05a4.55 4.55 0 0 1-4.19 2.42c-3 0-5.26-2.52-5.26-6.25 0-4.09 2.52-6.6 5.51-6.6a4.12 4.12 0 0 1 3.71 1.88v-7.34zm-2.23 10.74a4.29 4.29 0 0 0-.1-.94 3.29 3.29 0 0 0-3.23-2.59c-2.31 0-3.68 2-3.68 4.75 0 2.49 1.22 4.54 3.63 4.54a3.37 3.37 0 0 0 3.28-2.66 4.25 4.25 0 0 0 .1-1zM982 278.76a8.3 8.3 0 0 1-3.53.71c-3.71 0-6.12-2.51-6.12-6.27a6.25 6.25 0 0 1 6.6-6.53 7.39 7.39 0 0 1 3.1.64l-.55 1.69a5.1 5.1 0 0 0-2.59-.59c-2.81 0-4.34 2.08-4.34 4.65 0 2.84 1.83 4.59 4.27 4.59a6.31 6.31 0 0 0 2.74-.61zM995.54 273c0 4.55-3.14 6.53-6.12 6.53-3.32 0-5.89-2.44-5.89-6.33 0-4.11 2.7-6.52 6.1-6.52s5.91 2.53 5.91 6.32zm-9.75.13c0 2.69 1.55 4.72 3.74 4.72s3.73-2 3.73-4.77c0-2.09-1-4.73-3.68-4.73s-3.79 2.41-3.79 4.75zM998.36 270.25c0-1.27 0-2.31-.1-3.32h2l.11 2h.07a4.24 4.24 0 0 1 3.86-2.26 3.62 3.62 0 0 1 3.48 2.46 5.08 5.08 0 0 1 1.37-1.6 4.2 4.2 0 0 1 2.72-.86c1.62 0 4 1.06 4 5.33v7.24h-2.19v-7c0-2.36-.86-3.78-2.66-3.78a2.89 2.89 0 0 0-2.64 2 3.41 3.41 0 0 0-.18 1.12v7.59h-2.19v-7.37c0-2-.86-3.37-2.56-3.37a3 3 0 0 0-2.77 2.23 3.24 3.24 0 0 0-.18 1.09v7.42h-2.18zM1019.54 270.94c0-1.57-.06-2.84-.11-4h2l.1 2.11h.05a4.84 4.84 0 0 1 4.37-2.39c3 0 5.2 2.51 5.2 6.24 0 4.42-2.69 6.61-5.58 6.61a4.32 4.32 0 0 1-3.79-1.93v6.67h-2.2zm2.2 3.27a4.38 4.38 0 0 0 .11.92 3.43 3.43 0 0 0 3.35 2.61c2.36 0 3.73-1.93 3.73-4.74 0-2.47-1.3-4.57-3.66-4.57a3.56 3.56 0 0 0-3.37 2.76 3.48 3.48 0 0 0-.16.92zM1044.26 275.87c0 1.26 0 2.38.11 3.35h-2l-.12-2a4.64 4.64 0 0 1-4.07 2.29c-1.93 0-4.24-1.07-4.24-5.39v-7.18h2.24v6.8c0 2.34.71 3.91 2.74 3.91a3.24 3.24 0 0 0 2.95-2 3.4 3.4 0 0 0 .2-1.14v-7.54h2.23zM1050.66 263.4v3.53h3.2v1.7h-3.2v6.63c0 1.52.43 2.38 1.68 2.38a4.81 4.81 0 0 0 1.29-.15l.1 1.68a5.62 5.62 0 0 1-2 .3 3.09 3.09 0 0 1-2.41-.94 4.57 4.57 0 0 1-.86-3.2v-6.7h-1.91v-1.7h1.91V264zM1058.86 263.47a1.32 1.32 0 0 1-1.42 1.38 1.33 1.33 0 0 1-1.35-1.38 1.36 1.36 0 0 1 1.4-1.39 1.32 1.32 0 0 1 1.37 1.39zm-2.49 15.75v-12.29h2.24v12.29zM1062.31 270.25c0-1.27 0-2.31-.1-3.32h2l.13 2a4.51 4.51 0 0 1 4.06-2.31c1.7 0 4.34 1 4.34 5.23v7.34h-2.23v-7.09c0-2-.74-3.63-2.84-3.63a3.17 3.17 0 0 0-3 2.29 3.26 3.26 0 0 0-.15 1v7.39h-2.24zM1087 266.93c0 .89-.1 1.88-.1 3.37v7.14c0 2.82-.56 4.54-1.75 5.61a6.49 6.49 0 0 1-4.47 1.47 8 8 0 0 1-4.09-1l.56-1.7a7 7 0 0 0 3.61 1c2.28 0 4-1.19 4-4.29v-1.37a4.4 4.4 0 0 1-3.91 2.06c-3 0-5.23-2.59-5.23-6 0-4.16 2.71-6.52 5.53-6.52a4.09 4.09 0 0 1 3.83 2.13h.06l.1-1.85zm-2.31 4.85a3 3 0 0 0-.13-1 3.21 3.21 0 0 0-3.12-2.36c-2.13 0-3.65 1.8-3.65 4.65 0 2.41 1.21 4.41 3.63 4.41a3.25 3.25 0 0 0 3.09-2.28 3.78 3.78 0 0 0 .18-1.19zM904.93 317.72a23 23 0 0 1 4.24-.35c2.36 0 3.89.43 5 1.39a4.24 4.24 0 0 1 1.35 3.25 4.5 4.5 0 0 1-3.22 4.37v.08c1.32.45 2.1 1.67 2.51 3.45a27.2 27.2 0 0 0 1.32 4.7h-2.29a22.3 22.3 0 0 1-1.14-4.09c-.51-2.36-1.42-3.25-3.43-3.33h-2.08v7.42h-2.21zm2.21 7.8h2.26c2.36 0 3.86-1.3 3.86-3.25 0-2.21-1.6-3.18-3.93-3.2a9.3 9.3 0 0 0-2.19.2zM929.74 328.36c0 4.54-3.15 6.52-6.12 6.52-3.33 0-5.89-2.43-5.89-6.32 0-4.11 2.69-6.52 6.09-6.52s5.92 2.56 5.92 6.32zm-9.75.13c0 2.69 1.55 4.72 3.73 4.72s3.73-2 3.73-4.77c0-2.09-1-4.73-3.68-4.73s-3.77 2.44-3.77 4.78zM932.45 334.61c0-.84.11-2.09.11-3.18v-14.85h2.2v7.72h.06A4.56 4.56 0 0 1 939 322c3 0 5.21 2.54 5.18 6.27 0 4.39-2.76 6.57-5.51 6.57a4.38 4.38 0 0 1-4.11-2.31h-.07l-.11 2zm2.31-4.93a4.17 4.17 0 0 0 .11.81 3.44 3.44 0 0 0 3.35 2.62c2.33 0 3.73-1.91 3.73-4.73 0-2.46-1.27-4.57-3.66-4.57a3.57 3.57 0 0 0-3.4 2.75 4.41 4.41 0 0 0-.13.91zM958.12 328.36c0 4.54-3.15 6.52-6.12 6.52-3.32 0-5.89-2.43-5.89-6.32 0-4.11 2.69-6.52 6.1-6.52s5.91 2.56 5.91 6.32zm-9.75.13c0 2.69 1.55 4.72 3.73 4.72s3.74-2 3.74-4.77c0-2.09-1-4.73-3.68-4.73s-3.79 2.44-3.79 4.78zM963.63 318.79v3.53h3.2V324h-3.2v6.62c0 1.53.43 2.39 1.68 2.39a4.81 4.81 0 0 0 1.29-.15l.1 1.67a5.37 5.37 0 0 1-2 .31 3.09 3.09 0 0 1-2.41-.94 4.57 4.57 0 0 1-.86-3.2V324h-1.91v-1.7h1.91v-2.95zM971.83 318.86a1.31 1.31 0 0 1-1.42 1.37 1.32 1.32 0 0 1-1.35-1.37 1.36 1.36 0 0 1 1.4-1.39 1.32 1.32 0 0 1 1.37 1.39zm-2.49 15.75v-12.29h2.24v12.29zM984 334.15a8.3 8.3 0 0 1-3.53.71c-3.7 0-6.12-2.51-6.12-6.27a6.25 6.25 0 0 1 6.61-6.53 7.34 7.34 0 0 1 3.09.64l-.5 1.72a5.29 5.29 0 0 0-2.59-.58c-2.82 0-4.35 2.08-4.35 4.65 0 2.84 1.83 4.59 4.27 4.59a6.31 6.31 0 0 0 2.74-.61zM992 326.33c0-1.58 0-2.85-.1-4h2l.1 2.1h.06a4.83 4.83 0 0 1 4.36-2.38c3 0 5.21 2.51 5.21 6.24 0 4.42-2.69 6.6-5.59 6.6a4.33 4.33 0 0 1-3.74-1.89v6.67H992zm2.21 3.27a5.18 5.18 0 0 0 .1.92 3.44 3.44 0 0 0 3.35 2.61c2.36 0 3.73-1.93 3.73-4.75 0-2.46-1.29-4.57-3.65-4.57a3.57 3.57 0 0 0-3.38 2.77 3.47 3.47 0 0 0-.15.92zM1006.48 326.15c0-1.45 0-2.69-.1-3.83h2l.07 2.41h.11a3.67 3.67 0 0 1 3.4-2.69 2.43 2.43 0 0 1 .63.07v2.11a3.34 3.34 0 0 0-.76-.08 3.15 3.15 0 0 0-3 2.87 6.44 6.44 0 0 0-.1 1v6.56h-2.21zM1025.65 328.36c0 4.54-3.15 6.52-6.12 6.52-3.32 0-5.89-2.43-5.89-6.32 0-4.11 2.69-6.52 6.1-6.52s5.91 2.56 5.91 6.32zm-9.75.13c0 2.69 1.55 4.72 3.74 4.72s3.73-2 3.73-4.77c0-2.09-1-4.73-3.68-4.73s-3.79 2.44-3.79 4.78zM1037.23 334.15a8.3 8.3 0 0 1-3.53.71c-3.71 0-6.12-2.51-6.12-6.27a6.24 6.24 0 0 1 6.6-6.53 7.39 7.39 0 0 1 3.1.64l-.51 1.72a5.23 5.23 0 0 0-2.59-.58c-2.81 0-4.34 2.08-4.34 4.65 0 2.84 1.83 4.59 4.27 4.59a6.34 6.34 0 0 0 2.74-.61zM1040.94 328.87c0 3 2 4.26 4.21 4.26a8.14 8.14 0 0 0 3.4-.63l.38 1.6a10 10 0 0 1-4.08.76c-3.79 0-6-2.49-6-6.2s2.19-6.62 5.77-6.62c4 0 5.08 3.53 5.08 5.79a9.62 9.62 0 0 1-.08 1zm6.55-1.6c0-1.42-.59-3.63-3.1-3.63-2.26 0-3.25 2.08-3.43 3.63zM1052.11 332.32a5.87 5.87 0 0 0 2.94.89c1.63 0 2.39-.81 2.39-1.83s-.64-1.65-2.29-2.26c-2.2-.79-3.25-2-3.25-3.48 0-2 1.6-3.6 4.24-3.6a6.13 6.13 0 0 1 3 .76l-.56 1.62a4.82 4.82 0 0 0-2.52-.71c-1.32 0-2 .76-2 1.68s.73 1.47 2.33 2.08c2.14.81 3.23 1.88 3.23 3.71 0 2.16-1.68 3.68-4.6 3.68a7 7 0 0 1-3.45-.84zM1062.16 332.32a5.88 5.88 0 0 0 2.95.89c1.62 0 2.38-.81 2.38-1.83s-.63-1.65-2.28-2.26c-2.21-.79-3.25-2-3.25-3.48 0-2 1.6-3.6 4.24-3.6a6.11 6.11 0 0 1 3 .76l-.56 1.62a4.81 4.81 0 0 0-2.51-.71c-1.32 0-2.06.76-2.06 1.68s.74 1.47 2.34 2.08c2.13.81 3.22 1.88 3.22 3.71 0 2.16-1.67 3.68-4.59 3.68a7 7 0 0 1-3.46-.84zM1084.71 334.61l-.18-1.55h-.08a4.57 4.57 0 0 1-3.76 1.82 3.5 3.5 0 0 1-3.75-3.52c0-3 2.64-4.6 7.39-4.57v-.26a2.54 2.54 0 0 0-2.8-2.84 6.13 6.13 0 0 0-3.2.91l-.5-1.47a7.58 7.58 0 0 1 4-1.09c3.76 0 4.67 2.56 4.67 5v4.6a16.55 16.55 0 0 0 .21 2.95zm-.33-6.28c-2.44-.05-5.21.38-5.21 2.77a2 2 0 0 0 2.11 2.13 3.06 3.06 0 0 0 3-2.05 2.22 2.22 0 0 0 .13-.71zM1100.42 331.25c0 1.27 0 2.39.1 3.36h-2l-.12-2h-.05a4.63 4.63 0 0 1-4.07 2.28c-1.93 0-4.24-1.06-4.24-5.38v-7.18h2.24v6.8c0 2.34.71 3.91 2.74 3.91a3.16 3.16 0 0 0 3.15-3.17v-7.54h2.23zM1106.82 318.79v3.53h3.2V324h-3.2v6.62c0 1.53.43 2.39 1.68 2.39a4.81 4.81 0 0 0 1.29-.15l.1 1.67a5.41 5.41 0 0 1-2 .31 3.09 3.09 0 0 1-2.41-.94 4.53 4.53 0 0 1-.86-3.2V324h-1.91v-1.7h1.91v-2.95zM1123.5 328.36c0 4.54-3.15 6.52-6.12 6.52-3.33 0-5.89-2.43-5.89-6.32 0-4.11 2.69-6.52 6.09-6.52s5.92 2.56 5.92 6.32zm-9.75.13c0 2.69 1.55 4.72 3.73 4.72s3.73-2 3.73-4.77c0-2.09-1-4.73-3.68-4.73s-3.78 2.44-3.78 4.78zM1126.32 325.64c0-1.27 0-2.31-.1-3.32h2l.1 2h.08a4.23 4.23 0 0 1 3.86-2.26 3.64 3.64 0 0 1 3.48 2.46 5 5 0 0 1 1.37-1.6 4.18 4.18 0 0 1 2.72-.86c1.62 0 4 1.06 4 5.33v7.24h-2.18v-7c0-2.36-.86-3.78-2.67-3.78a2.88 2.88 0 0 0-2.64 2 3.68 3.68 0 0 0-.18 1.11v7.6H1134v-7.37c0-1.95-.86-3.37-2.56-3.37a3 3 0 0 0-2.77 2.23 3 3 0 0 0-.18 1.09v7.42h-2.18zM1154.3 334.61l-.18-1.55h-.12a4.57 4.57 0 0 1-3.76 1.82 3.5 3.5 0 0 1-3.75-3.52c0-3 2.64-4.6 7.39-4.57v-.26a2.54 2.54 0 0 0-2.8-2.84 6.13 6.13 0 0 0-3.2.91l-.5-1.47a7.58 7.58 0 0 1 4-1.09c3.76 0 4.67 2.56 4.67 5v4.6a16.55 16.55 0 0 0 .21 2.95zm-.33-6.28c-2.44-.05-5.21.38-5.21 2.77a2 2 0 0 0 2.11 2.13 3.06 3.06 0 0 0 3-2.05 2.22 2.22 0 0 0 .13-.71zM1162.32 318.79v3.53h3.2V324h-3.2v6.62c0 1.53.43 2.39 1.67 2.39a4.84 4.84 0 0 0 1.3-.15l.1 1.67a5.41 5.41 0 0 1-2 .31 3.09 3.09 0 0 1-2.41-.94 4.52 4.52 0 0 1-.87-3.2V324h-1.9v-1.7h1.9v-2.95zM1170.52 318.86a1.39 1.39 0 0 1-2.77 0 1.36 1.36 0 0 1 1.4-1.39 1.32 1.32 0 0 1 1.37 1.39zm-2.52 15.75v-12.29h2.23v12.29zM1185.09 328.36c0 4.54-3.15 6.52-6.12 6.52-3.32 0-5.89-2.43-5.89-6.32 0-4.11 2.69-6.52 6.1-6.52s5.91 2.56 5.91 6.32zm-9.75.13c0 2.69 1.55 4.72 3.73 4.72s3.74-2 3.74-4.77c0-2.09-1-4.73-3.68-4.73s-3.79 2.44-3.79 4.78zM1187.91 325.64c0-1.27 0-2.31-.1-3.32h2l.13 2A4.51 4.51 0 0 1 1194 322c1.7 0 4.34 1 4.34 5.23v7.34h-2.23v-7.09c0-2-.74-3.63-2.85-3.63a3.17 3.17 0 0 0-3 2.29 3 3 0 0 0-.16 1v7.39h-2.23z"/><circle class="cls-6" cx="869.63" cy="217" r="4.5"/><circle class="cls-6" cx="870" cy="272" r="4.5"/><circle class="cls-6" cx="870.37" cy="327" r="4.5"/><path class="cls-5" d="M81.91 129.72v-13.66c-.26.1-.5.16-.71.26-3.25 1.56-6.48 3.13-9.74 4.65a1.81 1.81 0 0 1-1.39 0c-6.14-3-12.27-5.93-18.37-9a12.93 12.93 0 0 1-7.19-9.42 11.06 11.06 0 0 1-.16-1.92V87.4H40l5.56-9.32c1.83 3.12 3.61 6.15 5.45 9.3h-4.3v12.6a10.43 10.43 0 0 0 6 9.93c4.8 2.48 9.69 4.81 14.54 7.19 1.13.56 2.28 1.48 3.42 1.48s2.29-.91 3.42-1.46c2.4-1.14 4.8-2.29 7.19-3.47a1.18 1.18 0 0 0 .63-.77c0-.23-.38-.57-.67-.7A13.68 13.68 0 0 1 84.64 86a14.31 14.31 0 0 1 9.25 1.6l.77.42V72c-2.47-.54-5-1-7.37-1.62A34.93 34.93 0 0 1 73 62.84a1.71 1.71 0 0 0-1-.25h-2.52a1.64 1.64 0 0 0-.93.2 36.5 36.5 0 0 1-17.45 8.35c-1.68.34-3.4.56-5.11.81-.91.14-1.5-.24-1.59-1s.32-1.22 1.27-1.33A43.84 43.84 0 0 0 59 66.19a29.65 29.65 0 0 0 7.9-5.13c-1.47-3-1.18-5.15.86-6.71a4.9 4.9 0 0 1 6.17.21c1.85 1.61 2.06 3.87.57 6.47a29.57 29.57 0 0 0 8.71 5.49 41.51 41.51 0 0 0 11.85 3l.7.1c1.06.17 1.35.48 1.35 1.56v18.19a2 2 0 0 0 .43 1.16 13.57 13.57 0 0 1-3.8 21 1.3 1.3 0 0 0-.8 1.35c0 5.53 0 11.06-.18 16.73l-5.35-5.13zm16.73-30.27a11.73 11.73 0 0 0-23.45.31c.09 6.4 5.47 11.37 12.15 11.25a11.58 11.58 0 0 0 11.3-11.56zm-8.07 13.68h-6.2v11.05l3.08-2.87 3.12 3zm-22.29-55a2.38 2.38 0 0 0 2.49 2.37 2.41 2.41 0 1 0-.08-4.81 2.35 2.35 0 0 0-2.41 2.4zM455 85h4.6a34.16 34.16 0 0 1 3.59-12.27 5.15 5.15 0 0 1-.73-7c1.53-2 3.91-2.39 6.53-1.19 1.46-1.2 2.84-2.45 4.35-3.54s3.07-2 4.73-3l1.14 2.29a24 24 0 0 0-2.3 1.34c-1.92 1.44-3.79 2.94-5.69 4.41a.76.76 0 0 0-.24 1 5 5 0 0 1-4.83 6.77 1.15 1.15 0 0 0-.86.39 30.2 30.2 0 0 0-3.15 10.42 3 3 0 0 0 0 .39h4.26l-5.72 9.91-4.8-8.3c-.28-.48-.6-.94-.9-1.41zm11.36-18.7a2.49 2.49 0 0 0-2.5 2.53 2.51 2.51 0 1 0 2.5-2.53zM490.74 101.86a7.1 7.1 0 0 1 .05 1.57 11.48 11.48 0 0 1-.62 1.66c-.32.88-.8 1.41-1.88 1.16-.68-.15-1.83 1-1.67 1.71.24 1.08-.32 1.54-1.17 1.87-.45.18-.9.34-1.34.54a1.32 1.32 0 0 1-2-.54 1.79 1.79 0 0 0-2.44 0 1.33 1.33 0 0 1-2 .54 24.5 24.5 0 0 0-1.19-.47c-.93-.36-1.61-.81-1.32-2 .15-.65-1-1.77-1.68-1.62a1.4 1.4 0 0 1-1.83-1.09c-.18-.47-.37-1-.57-1.41a1.39 1.39 0 0 1 .51-2 1.68 1.68 0 0 0-.06-2.3 1.25 1.25 0 0 1-.48-1.84c.2-.47.36-1 .55-1.42.34-.83.74-1.46 1.86-1.17.7.18 1.84-1 1.7-1.76a1.4 1.4 0 0 1 1.07-1.78c.39-.15.77-.34 1.17-.49s.74-.25 1.15-.39v-19h8V69.2h15v2.4h8v19.84l.89.14c-.13.18-.22.35-.34.49-2.79 3.08-5.57 6.17-8.39 9.23a1.93 1.93 0 0 1-1.22.54c-3.32.04-6.63.02-9.75.02zM481.13 92c.4-.19.82-.24 1-.47.58-1 1.33-.93 2.21-.52.46.22.93.42 1.4.6a1.27 1.27 0 0 1 .92 1.61 1.81 1.81 0 0 0 1.82 1.78 1.22 1.22 0 0 1 1.57.94 13.9 13.9 0 0 1 .63 1.57 11.57 11.57 0 0 1 .17 1.8h8.6V91.5h7.62V74.14h-5.5v2.35h-15v-2.35h-5.47zm7.12 5.69c-1.4.37-2-.37-2.61-1.28a1.18 1.18 0 0 0-.29-.3 2.26 2.26 0 0 1-1.35-2.5s-.08-.07-.12-.1l-.24-.23c-.09.21-.17.43-.28.63a1.12 1.12 0 0 1-1.41.54 4.35 4.35 0 0 0-1.76 0 1.53 1.53 0 0 1-1.91-.71c-.06-.11-.25-.14-.62-.34.62 1.55-.37 2.15-1.22 2.82a1.33 1.33 0 0 0-.35.36 1.93 1.93 0 0 1-2.26 1.12s-.07.07-.12.13a5 5 0 0 1 .93 1.43 6.68 6.68 0 0 1-.1 1.93v.08a1.56 1.56 0 0 1-.74 2.06c-.08 0-.08.24-.12.4a4.07 4.07 0 0 1 1.6.13c.43.23.67.81 1 1.22a1.22 1.22 0 0 0 .37.35 2 2 0 0 1 1.15 2.32s.07.08.17.17c.63-.21.75-1.32 1.8-1a4.33 4.33 0 0 0 2.34 0c1-.31 1.1.94 2 1-.47-1.3.29-2 1.19-2.56a1.13 1.13 0 0 0 .36-.36 2 2 0 0 1 2.37-1.22s.07-.07.2-.23c-1.27-.58-1-1.68-.94-2.75s-.42-2.35.96-3.15zm10.87-26h-9.94v2.38h9.94zM502 94.07v3.26l2.95-3.26zM508.31 118.35l-1.09-2.17c.27-.16.52-.32.78-.46a33.1 33.1 0 0 0 6.85-5 .92.92 0 0 0 .26-1.23 5 5 0 0 1 5.21-6.91.85.85 0 0 0 .71-.31 30.09 30.09 0 0 0 3.11-10.24h-4.55l5.71-9.91L531 92h-4.29a31.91 31.91 0 0 1-.77 4c-.78 2.47-1.74 4.88-2.59 7.33a1.14 1.14 0 0 0 0 1 5.08 5.08 0 0 1 .15 6.36c-1.48 1.87-3.75 2.36-6.34 1.3a34.55 34.55 0 0 1-8.85 6.36zm13.81-10.82a2.49 2.49 0 1 0-2.45 2.49 2.43 2.43 0 0 0 2.45-2.49zM495.86 57.15v4.34L486 55.8l9.87-5.7v3.39c0 1.19 0 1.15 1.16 1.3 11.72 1.57 20.38 7.58 26 17.94.07.12.11.25.21.47l-1 .54-1.13.55A31.17 31.17 0 0 0 506.49 60a30.74 30.74 0 0 0-10.63-2.85z"/><path class="cls-5" d="M463 103.43l2.21-1.11c5.21 9.61 13.16 15.28 24.08 17V115l9.86 5.69-9.85 5.69v-4.61c-11.81-1.68-20.54-7.77-26.3-18.34zM480.8 106a5.4 5.4 0 1 1 5.52-5.16 5.37 5.37 0 0 1-5.52 5.16zm.13-2.46a3 3 0 0 0 3-2.89 3 3 0 1 0-6 0 3 3 0 0 0 3 2.91zM925.65 119.52l-2.31-3.79a4.61 4.61 0 0 0-.54.23c-1.69.93-3.37 1.87-5.07 2.79a.77.77 0 0 0-.49.9 5.12 5.12 0 1 1-10.22 0 .73.73 0 0 0-.44-.85c-1.72-.93-3.42-1.9-5.15-2.82a2.9 2.9 0 0 0-1.27-.31c-2.63 0-5.26 0-7.89-.05h-1l2.4-4c-1.52-.84-3-1.69-4.5-2.46-.2-.1-.61.07-.84.23a5.39 5.39 0 0 1-7.1-.68 4.8 4.8 0 0 1 1.87-7.7 1.05 1.05 0 0 0 .79-1.21v-5.38a3.45 3.45 0 0 0-.43-1.57c-1.2-2.08-2.47-4.13-3.71-6.19-.14-.23-.26-.47-.44-.8h4.6c0-1.27-.06-2.49 0-3.71a1.89 1.89 0 0 0-1.13-2.08 4.68 4.68 0 0 1-1.78-6.41 5.16 5.16 0 0 1 6.93-2 1.58 1.58 0 0 0 1.81 0c1.55-.9 3.15-1.71 4.68-2.63a3.78 3.78 0 0 0 1.23-1.19c1.45-2.31 2.84-4.67 4.33-7.13l2.42 3.94c1.47-.81 2.9-1.58 4.3-2.4a1 1 0 0 0 .3-.81 5 5 0 0 1 4.4-5.63 5.1 5.1 0 0 1 5.78 4.27 1.51 1.51 0 0 1 0 .66c-.41 1.2.4 1.55 1.22 2.12a13.85 13.85 0 0 0 9.72 2.49 42 42 0 0 1 4.37 0l-2.37 4c1.78 1 3.5 2 5.25 2.88.17.09.56-.09.79-.24a5.21 5.21 0 0 1 5.36-.22 4.82 4.82 0 0 1-.42 8.81 1.07 1.07 0 0 0-.79 1.22v5a3.19 3.19 0 0 0 .41 1.48c1.21 2.08 2.47 4.13 3.71 6.19.14.23.26.48.44.81h-4.58v3.21a3 3 0 0 1 0 .42 2 2 0 0 0 1.38 2.47 4.56 4.56 0 0 1 2.41 5.15 5.07 5.07 0 0 1-4.26 3.87 5.13 5.13 0 0 1-4-1 .78.78 0 0 0-1-.06c-1.31.75-2.65 1.44-4 2.21a3 3 0 0 0-1 1c-1.31 2.2-2.7 4.53-4.17 6.97zm-22-35l4.6 2.48c2.5-2 5-2.19 7.51-.15a.53.53 0 0 0 .44.05c1.51-.82 3-1.66 4.57-2.52l-2-3.42h7.64a1.84 1.84 0 0 0 .88-.16c2.17-1.17 4.32-2.36 6.47-3.56a.83.83 0 0 0 .35-.56v-2.46l-5.13-2.84-2.23 3.69-.5-.77c-1.21-2-2.42-4-3.65-6a2.49 2.49 0 0 0-.78-.83q-2.73-1.58-5.51-3a.86.86 0 0 0-.78.06 5.37 5.37 0 0 1-6.69 0 .81.81 0 0 0-.64-.13c-1.48.78-2.94 1.6-4.45 2.43l2.24 3.73c-1.62 0-3.05.12-4.46 0a12.05 12.05 0 0 0-8.53 2.13 25 25 0 0 1-2.55 1.44 4.1 4.1 0 0 1 .24 1.43c-.41 1.66.64 2.26 1.88 2.78a1.64 1.64 0 0 1 .29.16 11.5 11.5 0 0 0 8.2 2.15c1.57-.16 3.17 0 4.92 0zm2.6 24.06a39.12 39.12 0 0 1 2.25-3.69 11.34 11.34 0 0 0 2.4-8.76.48.48 0 0 1 0-.17c.09-.53-.16-.77-.66-1a4.82 4.82 0 0 1-3.24-5.24c0-.21 0-.56-.2-.64-1.47-.85-3-1.65-4.48-2.49l-2.3 3.77c-.23-.34-.38-.56-.52-.8-1.25-2-2.48-4.12-3.74-6.16a2.5 2.5 0 0 0-.85-.89c-1.69-1-3.41-1.92-5.13-2.85a.84.84 0 0 0-.67-.07c-.9.47-1.77 1-2.68 1.52v4.81H891c-1.46 2.41-2.86 4.7-4.22 7a2.59 2.59 0 0 0-.36 1.24v5.88a.8.8 0 0 0 .61.91 4.83 4.83 0 0 1 3.2 5.37.87.87 0 0 0 .31.72c1.44.85 2.91 1.64 4.42 2.47l2.27-3.65c.21.33.36.55.5.78 1.19 2 2.36 4 3.56 6a2.14 2.14 0 0 0 .72.77q2.85 1.64 5.73 3.16a1.06 1.06 0 0 0 .85-.06 19.48 19.48 0 0 0 1.87-1.1c.18-.11.42-.33.42-.51v-6.37zm15.83-22c-1.54.85-3 1.63-4.42 2.45a1 1 0 0 0-.41.69c.15 2.66-.85 4.34-3.28 5.32a.73.73 0 0 0-.53.8v4.53a2.36 2.36 0 0 0 .34 1.09c1.25 2.12 2.53 4.22 3.8 6.33.14.22.25.47.44.82h-4.61v5.51c0 .81.08 1.36 1 1.61a6.47 6.47 0 0 1 1.33.85c.19.11.49.25.64.17 1.89-1 3.76-2.06 5.68-3.12l-2.28-3.85h8.51a2.31 2.31 0 0 0 1-.18q2.22-1.17 4.4-2.43a.87.87 0 0 0 .37-.69 5 5 0 0 1 3.26-5.52c.21-.07.5-.33.5-.51v-5.11h-4.58c.21-.36.34-.6.48-.83 1.25-2.09 2.52-4.16 3.75-6.26a2.56 2.56 0 0 0 .34-1.17v-5.54a.78.78 0 0 0-.57-.87 6 6 0 0 1-1.63-1 .76.76 0 0 0-1-.09c-1.3.75-2.66 1.43-3.94 2.22a4.51 4.51 0 0 0-1.41 1.34c-1.57 2.51-3.08 5.06-4.66 7.69zM936.49 76a2.66 2.66 0 0 0 2.67 2.57 2.56 2.56 0 1 0-2.67-2.57zm-53.59 0a2.64 2.64 0 0 0 2.67 2.56 2.68 2.68 0 0 0 2.66-2.56 2.71 2.71 0 0 0-2.65-2.53A2.66 2.66 0 0 0 882.9 76zm29.21 11.84a2.53 2.53 0 1 0 2.69 2.53 2.63 2.63 0 0 0-2.69-2.51zm-27 20.18a2.58 2.58 0 0 0 2.68-2.52 2.61 2.61 0 0 0-2.68-2.53 2.64 2.64 0 0 0-2.65 2.49 2.61 2.61 0 0 0 2.62 2.54zm27-44.8a2.62 2.62 0 0 0 2.71-2.51 2.67 2.67 0 0 0-5.34-.08 2.61 2.61 0 0 0 2.61 2.61zm27.1 44.8a2.53 2.53 0 1 0-2.7-2.51 2.63 2.63 0 0 0 2.68 2.49zm-27.07 9.5a2.62 2.62 0 0 0-2.66 2.57 2.67 2.67 0 0 0 5.34 0 2.63 2.63 0 0 0-2.7-2.55z"/></svg>