<svg id="Layer_1" data-name="Layer 1" xmlns="http://www.w3.org/2000/svg" viewBox="0 0 1310 448.97"><defs><style>.cls-1{fill:#d8e7da}.cls-5{fill:none}.cls-4{fill:#00321d}.cls-5{stroke:#00321d;stroke-miterlimit:10;stroke-width:3px}</style></defs><path class="cls-1" d="M0 .04V449h1310V.14L0 .04z"/><path fill="#a8d7cd" d="M405 19v413h889V19.1L405 19z"/><path stroke-width="2.13" stroke-miterlimit="10" stroke="#00b28f" fill="none" d="M434.23 171.03L804 172.16"/><path class="cls-4" d="M558 108.62l-2 6.46h-4.3l7.3-22.81h5.31l7.41 22.81h-4.42l-2.07-6.46zm6.53-3.15l-1.79-5.61c-.44-1.39-.82-3-1.15-4.27h-.07c-.34 1.32-.68 2.91-1.08 4.27l-1.76 5.61zM589.06 110.14c0 2 .07 3.59.14 4.94h-3.66l-.2-2.5h-.07a6 6 0 0 1-5.28 2.88c-3 0-5.75-1.8-5.75-7.18V98.6h4.16v9c0 2.74.88 4.5 3.08 4.5a3.5 3.5 0 0 0 3.18-2.23 3.66 3.66 0 0 0 .24-1.29v-10h4.16zM598.34 93.9v4.7h4v3.12h-4V109c0 2 .54 3.05 2.13 3.05a6.34 6.34 0 0 0 1.63-.2l.06 3.18a9.36 9.36 0 0 1-3 .4 4.82 4.82 0 0 1-3.59-1.35c-.88-.95-1.28-2.44-1.28-4.6v-7.75h-2.37V98.6h2.37v-3.72zM620.92 106.69c0 6.06-4.27 8.77-8.47 8.77-4.67 0-8.25-3.22-8.25-8.5s3.55-8.73 8.53-8.73 8.19 3.45 8.19 8.46zm-12.43.17c0 3.18 1.56 5.59 4.1 5.59 2.37 0 4-2.34 4-5.66 0-2.57-1.15-5.51-4-5.51s-4.1 2.84-4.1 5.58zM624.34 103.51c0-1.89 0-3.49-.14-4.91h3.59l.21 2.4h.1a5.69 5.69 0 0 1 5.08-2.81 4.76 4.76 0 0 1 4.57 3h.06a6.38 6.38 0 0 1 2-2.07 5.56 5.56 0 0 1 3.32-1c2.74 0 5.52 1.86 5.52 7.14v9.71h-4.06V106c0-2.74-1-4.36-3-4.36a3.17 3.17 0 0 0-2.91 2.19 6.13 6.13 0 0 0-.2 1.39v9.88h-4.06v-9.54c0-2.3-.92-3.92-2.85-3.92a3.24 3.24 0 0 0-3 2.36 3.57 3.57 0 0 0-.24 1.36v9.74h-4.06zM662.32 115.08l-.27-1.82h-.11a6.13 6.13 0 0 1-4.87 2.2 4.9 4.9 0 0 1-5.18-4.91c0-4.16 3.69-6.26 9.78-6.23v-.27c0-1.08-.44-2.88-3.35-2.88a8.75 8.75 0 0 0-4.43 1.22l-.81-2.7a11.8 11.8 0 0 1 5.92-1.46c5.28 0 6.81 3.35 6.81 6.94v6a26.32 26.32 0 0 0 .23 4zm-.55-8c-2.94-.07-5.75.58-5.75 3.08a2.19 2.19 0 0 0 2.37 2.37 3.36 3.36 0 0 0 3.25-2.27 3 3 0 0 0 .13-.91zM674.81 93.9v4.7h4v3.12h-4V109c0 2 .54 3.05 2.13 3.05a6.34 6.34 0 0 0 1.63-.2l.06 3.18a9.36 9.36 0 0 1-3 .4 4.82 4.82 0 0 1-3.59-1.35c-.88-.95-1.28-2.44-1.28-4.6v-7.75h-2.37V98.6h2.37v-3.72zM686.35 94a2.34 2.34 0 0 1-4.67 0 2.34 2.34 0 0 1 4.67 0zm-4.43 21.08V98.6h4.19v16.48zM706.25 106.69c0 6.06-4.26 8.77-8.46 8.77-4.67 0-8.26-3.22-8.26-8.5s3.56-8.73 8.53-8.73 8.19 3.45 8.19 8.46zm-12.42.17c0 3.18 1.56 5.59 4.1 5.59 2.37 0 4-2.34 4-5.66 0-2.57-1.16-5.51-4-5.51s-4.1 2.84-4.1 5.58zM709.68 103.51c0-1.89 0-3.49-.14-4.91h3.66l.2 2.47h.1a6 6 0 0 1 5.25-2.84c2.87 0 5.85 1.86 5.85 7.07v9.78h-4.16v-9.3c0-2.37-.88-4.16-3.15-4.16a3.49 3.49 0 0 0-3.25 2.43 4.41 4.41 0 0 0-.17 1.36v9.67h-4.19zM502.57 236.36c-.13-2.39-.28-5.26-.26-7.39h-.07c-.59 2-1.3 4.14-2.16 6.5l-3 8.3h-1.68l-2.77-8.15c-.81-2.41-1.49-4.62-2-6.65h-.05c-.05 2.13-.18 5-.33 7.57l-.46 7.34h-2.1l1.19-17.12h2.82l2.92 8.28c.71 2.11 1.29 4 1.73 5.76h.07c.43-1.72 1-3.6 1.8-5.76l3-8.28h2.82l1.07 17.12H503zM515.44 243.88l-.18-1.55h-.08a4.56 4.56 0 0 1-3.75 1.82 3.5 3.5 0 0 1-3.76-3.52c0-3 2.64-4.6 7.39-4.58v-.25a2.54 2.54 0 0 0-2.8-2.84 6.13 6.13 0 0 0-3.2.91l-.5-1.47a7.58 7.58 0 0 1 4-1.09c3.76 0 4.68 2.56 4.68 5v4.6a17.62 17.62 0 0 0 .2 2.95zm-.33-6.28c-2.44 0-5.21.38-5.21 2.77a2 2 0 0 0 2.1 2.13 3 3 0 0 0 3-2.05 2.27 2.27 0 0 0 .13-.71zM520.87 235.42c0-1.45 0-2.69-.1-3.83h2l.08 2.41h.1a3.69 3.69 0 0 1 3.4-2.69 2.46 2.46 0 0 1 .64.07v2.11a3.41 3.41 0 0 0-.76-.08 3.14 3.14 0 0 0-3 2.87 6.44 6.44 0 0 0-.1 1v6.56h-2.21zM531.48 237.22c.31-.43.74-1 1.1-1.39l3.6-4.24h2.69l-4.75 5 5.41 7.24h-2.71l-4.24-5.9-1.15 1.27v4.63h-2.21v-18h2.21zM542.42 238.14c.06 3 2 4.26 4.22 4.26a8.17 8.17 0 0 0 3.4-.63l.38 1.6a10 10 0 0 1-4.09.76c-3.78 0-6-2.49-6-6.2s2.19-6.62 5.77-6.62c4 0 5.07 3.53 5.07 5.79a10.18 10.18 0 0 1-.07 1zm6.56-1.6c0-1.42-.59-3.63-3.1-3.63-2.26 0-3.25 2.08-3.43 3.63zM556.59 228.06v3.53h3.2v1.7h-3.2v6.62c0 1.53.43 2.39 1.68 2.39a5.27 5.27 0 0 0 1.29-.15l.1 1.67a5.37 5.37 0 0 1-2 .31 3.09 3.09 0 0 1-2.41-.94 4.57 4.57 0 0 1-.86-3.2v-6.7h-1.89v-1.7h1.91v-3zM564.79 228.13a1.31 1.31 0 0 1-1.42 1.37 1.33 1.33 0 0 1-1.35-1.37 1.36 1.36 0 0 1 1.4-1.39 1.32 1.32 0 0 1 1.37 1.39zm-2.49 15.75v-12.29h2.24v12.29zM568.24 234.91c0-1.27 0-2.31-.1-3.32h2l.13 2a4.51 4.51 0 0 1 4.06-2.31c1.7 0 4.35 1 4.35 5.23v7.34h-2.24v-7.09c0-2-.74-3.63-2.84-3.63a3.17 3.17 0 0 0-3 2.29 3.22 3.22 0 0 0-.15 1v7.39h-2.24zM592.92 231.59c0 .88-.1 1.87-.1 3.37v7.14c0 2.82-.56 4.54-1.75 5.61a6.49 6.49 0 0 1-4.47 1.47 8 8 0 0 1-4.09-1l.56-1.71a6.9 6.9 0 0 0 3.61 1c2.28 0 4-1.19 4-4.29v-1.37a4.4 4.4 0 0 1-3.91 2c-3 0-5.23-2.59-5.23-6 0-4.16 2.71-6.52 5.53-6.52a4.1 4.1 0 0 1 3.84 2.13l.1-1.85zm-2.31 4.85a3.24 3.24 0 0 0-3.25-3.38c-2.13 0-3.65 1.8-3.65 4.65 0 2.41 1.21 4.41 3.63 4.41a3.25 3.25 0 0 0 3.09-2.28 3.8 3.8 0 0 0 .18-1.2zM608.71 243.88l-.17-1.55h-.08a4.6 4.6 0 0 1-3.76 1.82 3.5 3.5 0 0 1-3.76-3.52c0-3 2.64-4.6 7.39-4.58v-.25a2.53 2.53 0 0 0-2.79-2.84 6.11 6.11 0 0 0-3.2.91l-.51-1.47a7.65 7.65 0 0 1 4-1.09c3.76 0 4.67 2.56 4.67 5v4.6a16.55 16.55 0 0 0 .21 2.95zm-.33-6.28c-2.43 0-5.2.38-5.2 2.77a2 2 0 0 0 2.11 2.13 3.06 3.06 0 0 0 3-2.05 2.58 2.58 0 0 0 .12-.71zM614.15 234.91c0-1.27 0-2.31-.11-3.32h2l.12 2h.05a4.52 4.52 0 0 1 4.07-2.31c1.7 0 4.34 1 4.34 5.23v7.34h-2.24v-7.09c0-2-.73-3.63-2.84-3.63a3.18 3.18 0 0 0-3 2.29 3.22 3.22 0 0 0-.15 1v7.39h-2.23zM635 243.88l-.18-1.55h-.07a4.6 4.6 0 0 1-3.76 1.82 3.5 3.5 0 0 1-3.76-3.52c0-3 2.64-4.6 7.39-4.58v-.25a2.53 2.53 0 0 0-2.79-2.84 6.11 6.11 0 0 0-3.2.91l-.51-1.47a7.65 7.65 0 0 1 4-1.09c3.76 0 4.67 2.56 4.67 5v4.6a17.62 17.62 0 0 0 .2 2.95zm-.33-6.28c-2.44 0-5.2.38-5.2 2.77a2 2 0 0 0 2.1 2.13 3 3 0 0 0 3-2.05 2.27 2.27 0 0 0 .13-.71zM640.47 225.85h2.24v18h-2.24zM647.28 231.59l2.69 7.26c.28.81.58 1.78.79 2.51.23-.73.48-1.67.78-2.56l2.44-7.21h2.36l-3.34 8.76c-1.6 4.21-2.69 6.37-4.21 7.69a6.21 6.21 0 0 1-2.75 1.45l-.55-1.88a6.18 6.18 0 0 0 2-1.09 6.89 6.89 0 0 0 1.88-2.49 1.67 1.67 0 0 0 .18-.54 2 2 0 0 0-.15-.58l-4.55-11.32zM661.12 228.06v3.53h3.19v1.7h-3.19v6.62c0 1.53.43 2.39 1.67 2.39a5.29 5.29 0 0 0 1.3-.15l.1 1.67a5.41 5.41 0 0 1-2 .31 3.12 3.12 0 0 1-2.42-.94 4.57 4.57 0 0 1-.86-3.2v-6.7H657v-1.7h1.9v-3zM669.32 228.13a1.39 1.39 0 0 1-2.77 0 1.36 1.36 0 0 1 1.39-1.39 1.33 1.33 0 0 1 1.38 1.39zm-2.49 15.75v-12.29h2.23v12.29zM681.53 243.42a8.33 8.33 0 0 1-3.53.71c-3.71 0-6.12-2.51-6.12-6.27a6.24 6.24 0 0 1 6.6-6.53 7.39 7.39 0 0 1 3.1.64l-.51 1.72a5.23 5.23 0 0 0-2.59-.58c-2.82 0-4.34 2.08-4.34 4.65 0 2.84 1.83 4.59 4.26 4.59a6.39 6.39 0 0 0 2.75-.61zM683.84 241.59a5.87 5.87 0 0 0 2.94.89c1.63 0 2.39-.81 2.39-1.83s-.64-1.65-2.29-2.26c-2.21-.79-3.25-2-3.25-3.48 0-2 1.6-3.6 4.24-3.6a6.13 6.13 0 0 1 3 .76l-.56 1.62a4.85 4.85 0 0 0-2.52-.71c-1.32 0-2.05.76-2.05 1.68s.73 1.47 2.33 2.08c2.14.81 3.23 1.88 3.23 3.71 0 2.16-1.68 3.68-4.6 3.68a7 7 0 0 1-3.45-.84zM487.84 296.57a7.83 7.83 0 0 0 4 1.12c2.26 0 3.58-1.19 3.58-2.92s-.91-2.51-3.22-3.4c-2.8-1-4.52-2.44-4.52-4.85 0-2.67 2.21-4.65 5.53-4.65a7.85 7.85 0 0 1 3.79.84l-.61 1.8a6.91 6.91 0 0 0-3.25-.81c-2.34 0-3.23 1.4-3.23 2.56 0 1.6 1 2.39 3.4 3.3 2.9 1.12 4.37 2.52 4.37 5s-1.95 4.93-6 4.93a8.87 8.87 0 0 1-4.37-1.09zM507.47 299.26l-.18-1.55h-.08a4.55 4.55 0 0 1-3.76 1.83 3.5 3.5 0 0 1-3.75-3.54c0-3 2.64-4.59 7.38-4.57v-.25a2.52 2.52 0 0 0-2.79-2.84 6.13 6.13 0 0 0-3.2.91l-.51-1.47a7.65 7.65 0 0 1 4-1.09c3.76 0 4.67 2.56 4.67 5v4.6a16.44 16.44 0 0 0 .21 2.94zm-.33-6.27c-2.44-.05-5.21.38-5.21 2.77a2 2 0 0 0 2.11 2.13 3.06 3.06 0 0 0 3-2.05 2.6 2.6 0 0 0 .13-.71zM512.9 281.24h2.23v18h-2.23zM520.13 293.53a3.93 3.93 0 0 0 4.22 4.26 8.17 8.17 0 0 0 3.4-.63l.38 1.6a10.06 10.06 0 0 1-4.09.76c-3.78 0-6-2.49-6-6.2s2.18-6.62 5.76-6.62c4 0 5.08 3.52 5.08 5.78a10.2 10.2 0 0 1-.07 1zm6.55-1.6c0-1.43-.58-3.64-3.09-3.64-2.26 0-3.25 2.09-3.43 3.64zM531.3 297a5.88 5.88 0 0 0 3 .89c1.63 0 2.39-.82 2.39-1.83s-.64-1.65-2.29-2.26c-2.21-.79-3.25-2-3.25-3.48 0-2 1.6-3.6 4.24-3.6a6.05 6.05 0 0 1 3 .76l-.56 1.62a4.81 4.81 0 0 0-2.51-.71c-1.32 0-2.06.76-2.06 1.68s.74 1.47 2.34 2.08c2.13.81 3.22 1.88 3.22 3.71 0 2.15-1.67 3.68-4.59 3.68a7 7 0 0 1-3.45-.84zM553.85 299.26l-.18-1.55h-.07a4.58 4.58 0 0 1-3.76 1.83 3.5 3.5 0 0 1-3.76-3.53c0-3 2.64-4.59 7.39-4.57v-.25a2.53 2.53 0 0 0-2.79-2.84 6.08 6.08 0 0 0-3.2.91l-.51-1.47a7.62 7.62 0 0 1 4-1.09c3.75 0 4.67 2.56 4.67 5v4.6a17.49 17.49 0 0 0 .2 2.94zm-.33-6.27c-2.44-.05-5.21.38-5.21 2.77a2 2 0 0 0 2.11 2.13 3 3 0 0 0 3-2.05 2.27 2.27 0 0 0 .13-.71zM559.28 290.3c0-1.27 0-2.31-.1-3.33h2l.13 2h.05a4.51 4.51 0 0 1 4.06-2.31c1.7 0 4.34 1 4.34 5.23v7.33h-2.23v-7.08c0-2-.74-3.63-2.84-3.63a3.17 3.17 0 0 0-3 2.28 3.28 3.28 0 0 0-.15 1.05v7.38h-2.24zM584 281.24v14.85c0 1.09 0 2.34.1 3.17h-2l-.1-2.13h-.05a4.55 4.55 0 0 1-4.19 2.41c-3 0-5.26-2.51-5.26-6.24 0-4.09 2.52-6.6 5.51-6.6a4.11 4.11 0 0 1 3.71 1.87v-7.33zM581.75 292a3.76 3.76 0 0 0-.1-.94 3.29 3.29 0 0 0-3.22-2.59c-2.31 0-3.69 2-3.69 4.75 0 2.48 1.22 4.54 3.64 4.54a3.36 3.36 0 0 0 3.27-2.67 3.68 3.68 0 0 0 .1-1zM593.07 290.3c0-1.27 0-2.31-.1-3.33h2l.1 2h.08a4.21 4.21 0 0 1 3.85-2.27 3.62 3.62 0 0 1 3.48 2.46 5.11 5.11 0 0 1 1.38-1.6 4.15 4.15 0 0 1 2.71-.86c1.63 0 4 1.06 4 5.33v7.23h-2.18v-6.95c0-2.36-.87-3.79-2.67-3.79a2.89 2.89 0 0 0-2.64 2 3.81 3.81 0 0 0-.18 1.12v7.59h-2.18v-7.33c0-1.95-.87-3.38-2.57-3.38a3 3 0 0 0-2.76 2.24 3 3 0 0 0-.18 1.09v7.41h-2.19zM621.05 299.26l-.17-1.55h-.08a4.58 4.58 0 0 1-3.76 1.83 3.5 3.5 0 0 1-3.76-3.53c0-3 2.64-4.59 7.39-4.57v-.25a2.53 2.53 0 0 0-2.79-2.84 6.11 6.11 0 0 0-3.2.91l-.51-1.47a7.65 7.65 0 0 1 4-1.09c3.76 0 4.67 2.56 4.67 5v4.6a17.49 17.49 0 0 0 .2 2.94zm-.33-6.27c-2.43-.05-5.2.38-5.2 2.77a2 2 0 0 0 2.11 2.13 3.07 3.07 0 0 0 3-2.05 2.58 2.58 0 0 0 .12-.71zM626.49 290.81c0-1.45 0-2.69-.11-3.84h2l.08 2.42h.1a3.68 3.68 0 0 1 3.4-2.69 2.43 2.43 0 0 1 .63.07v2.11a3.28 3.28 0 0 0-.76-.08 3.13 3.13 0 0 0-3 2.87 6.38 6.38 0 0 0-.11 1v6.55h-2.2zM637.1 292.61c.3-.43.73-1 1.09-1.4l3.61-4.24h2.69l-4.7 5.03 5.41 7.23h-2.72l-4.24-5.89-1.14 1.27v4.62h-2.21v-18h2.21zM648 293.53c.05 3 2 4.26 4.21 4.26a8.22 8.22 0 0 0 3.41-.63l.38 1.6a10.06 10.06 0 0 1-4.09.76c-3.78 0-6-2.49-6-6.2s2.18-6.62 5.76-6.62c4 0 5.08 3.52 5.08 5.78a7.61 7.61 0 0 1-.08 1zm6.55-1.6c0-1.43-.58-3.64-3.1-3.64-2.26 0-3.25 2.09-3.42 3.64zM662.21 283.45V287h3.2v1.71h-3.2v6.62c0 1.53.43 2.39 1.67 2.39a5.29 5.29 0 0 0 1.3-.15l.1 1.67a5.41 5.41 0 0 1-2 .31 3.09 3.09 0 0 1-2.41-.94 4.52 4.52 0 0 1-.87-3.2v-6.7h-1.9V287h1.9v-3zM670.41 283.52a1.39 1.39 0 0 1-2.77 0 1.35 1.35 0 0 1 1.4-1.39 1.32 1.32 0 0 1 1.37 1.39zm-2.49 15.74V287h2.23v12.29zM673.86 290.3c0-1.27 0-2.31-.1-3.33h2l.13 2a4.51 4.51 0 0 1 4.11-2.27c1.7 0 4.34 1 4.34 5.23v7.33h-2.23v-7.08c0-2-.74-3.63-2.85-3.63a3.17 3.17 0 0 0-3 2.28 3 3 0 0 0-.16 1.05v7.38h-2.23zM698.54 287c0 .89-.1 1.88-.1 3.38v7.14c0 2.81-.56 4.54-1.76 5.61a6.53 6.53 0 0 1-4.46 1.47 7.92 7.92 0 0 1-4.09-1l.56-1.7a6.89 6.89 0 0 0 3.6 1c2.29 0 4-1.19 4-4.29v-1.37a4.37 4.37 0 0 1-3.91 2c-3 0-5.23-2.59-5.23-6 0-4.16 2.72-6.52 5.54-6.52a4.07 4.07 0 0 1 3.83 2.13h.05l.1-1.86zm-2.31 4.85a3.17 3.17 0 0 0-.13-1 3.22 3.22 0 0 0-3.12-2.36c-2.14 0-3.66 1.8-3.66 4.64 0 2.42 1.22 4.42 3.63 4.42a3.27 3.27 0 0 0 3.1-2.28 3.84 3.84 0 0 0 .18-1.2zM488.14 337.74a25.46 25.46 0 0 1 4.24-.33 7 7 0 0 1 4.8 1.42 4.62 4.62 0 0 1 1.5 3.58 5.06 5.06 0 0 1-1.32 3.66 7.11 7.11 0 0 1-5.23 1.88 8 8 0 0 1-1.78-.15v6.85h-2.21zm2.21 8.25a7.34 7.34 0 0 0 1.83.18c2.67 0 4.29-1.29 4.29-3.65s-1.6-3.36-4-3.36a9.37 9.37 0 0 0-2.09.18zM501.45 336.62h2.23v18h-2.23zM514.24 354.65l-.17-1.55H514a4.58 4.58 0 0 1-3.76 1.83 3.5 3.5 0 0 1-3.76-3.53c0-3 2.65-4.59 7.39-4.57v-.25a2.54 2.54 0 0 0-2.79-2.85 6.11 6.11 0 0 0-3.2.92l-.51-1.47a7.65 7.65 0 0 1 4-1.1c3.76 0 4.67 2.57 4.67 5v4.6a16.51 16.51 0 0 0 .21 2.94zm-.33-6.27c-2.43-.05-5.2.38-5.2 2.77a2 2 0 0 0 2.11 2.13 3.05 3.05 0 0 0 3-2.06 2.46 2.46 0 0 0 .12-.71zM519.68 345.69c0-1.27 0-2.31-.1-3.33h2l.12 2h.05a4.54 4.54 0 0 1 4.07-2.31c1.7 0 4.34 1 4.34 5.23v7.34h-2.26v-7.08c0-2-.73-3.63-2.84-3.63a3.18 3.18 0 0 0-3 2.28 3.26 3.26 0 0 0-.15 1v7.39h-2.23zM533.77 345.69c0-1.27 0-2.31-.1-3.33h2l.12 2h.05a4.55 4.55 0 0 1 4.07-2.31c1.7 0 4.34 1 4.34 5.23v7.34H542v-7.08c0-2-.73-3.63-2.84-3.63a3.19 3.19 0 0 0-3 2.28 3.26 3.26 0 0 0-.15 1v7.39h-2.23zM550.35 338.91a1.39 1.39 0 0 1-2.77 0 1.36 1.36 0 0 1 1.4-1.4 1.33 1.33 0 0 1 1.37 1.4zm-2.49 15.74v-12.29h2.23v12.29zM553.8 345.69c0-1.27 0-2.31-.1-3.33h2l.12 2h.06a4.52 4.52 0 0 1 4.06-2.31c1.7 0 4.34 1 4.34 5.23v7.34H562v-7.08c0-2-.74-3.63-2.85-3.63a3.17 3.17 0 0 0-3 2.28 3 3 0 0 0-.16 1v7.39h-2.19zM578.48 342.36c-.05.89-.1 1.88-.1 3.38v7.13c0 2.82-.56 4.55-1.76 5.62a6.53 6.53 0 0 1-4.46 1.47 7.92 7.92 0 0 1-4.09-1l.56-1.7a6.89 6.89 0 0 0 3.6 1c2.29 0 4-1.2 4-4.29v-1.38h-.05a4.36 4.36 0 0 1-3.91 2.06c-3.05 0-5.23-2.59-5.23-6 0-4.17 2.72-6.53 5.54-6.53a4.08 4.08 0 0 1 3.83 2.14l.1-1.86zm-2.31 4.85a3.17 3.17 0 0 0-.13-1 3.22 3.22 0 0 0-3.12-2.36c-2.14 0-3.66 1.8-3.66 4.64 0 2.41 1.22 4.42 3.63 4.42a3.26 3.26 0 0 0 3.1-2.29 3.78 3.78 0 0 0 .18-1.19zM594.27 354.65l-.18-1.55H594a4.54 4.54 0 0 1-3.75 1.83 3.5 3.5 0 0 1-3.76-3.53c0-3 2.64-4.59 7.39-4.57v-.25a2.54 2.54 0 0 0-2.8-2.85 6.08 6.08 0 0 0-3.19.92l-.51-1.47a7.61 7.61 0 0 1 4-1.1c3.76 0 4.68 2.57 4.68 5v4.6a17.57 17.57 0 0 0 .2 2.94zm-.33-6.27c-2.44-.05-5.21.38-5.21 2.77a2 2 0 0 0 2.11 2.13 3 3 0 0 0 3-2.06 2.17 2.17 0 0 0 .13-.71zM599.7 345.69c0-1.27 0-2.31-.1-3.33h2l.13 2a4.53 4.53 0 0 1 4.06-2.31c1.7 0 4.34 1 4.34 5.23v7.34h-2.23v-7.08c0-2-.74-3.63-2.85-3.63a3.17 3.17 0 0 0-3 2.28 3.26 3.26 0 0 0-.15 1v7.39h-2.2zM624.41 336.62v14.86c0 1.09 0 2.33.1 3.17h-2l-.1-2.13a4.55 4.55 0 0 1-4.19 2.41c-3 0-5.26-2.51-5.26-6.24 0-4.09 2.52-6.61 5.51-6.61a4.12 4.12 0 0 1 3.71 1.88v-7.34zm-2.24 10.74a3.68 3.68 0 0 0-.1-.93 3.28 3.28 0 0 0-3.23-2.59c-2.31 0-3.68 2-3.68 4.74 0 2.49 1.22 4.55 3.63 4.55a3.36 3.36 0 0 0 3.28-2.67 3.68 3.68 0 0 0 .1-1zM642.25 354.19a8.11 8.11 0 0 1-3.53.72c-3.7 0-6.12-2.52-6.12-6.28a6.24 6.24 0 0 1 6.61-6.52 7.52 7.52 0 0 1 3.09.63l-.5 1.73a5.29 5.29 0 0 0-2.59-.58c-2.82 0-4.35 2.08-4.35 4.64 0 2.85 1.83 4.6 4.27 4.6a6.31 6.31 0 0 0 2.74-.61zM655.84 348.41c0 4.54-3.15 6.52-6.12 6.52-3.33 0-5.89-2.44-5.89-6.32 0-4.11 2.69-6.53 6.09-6.53s5.92 2.57 5.92 6.33zm-9.75.12c0 2.69 1.54 4.73 3.73 4.73s3.73-2 3.73-4.78c0-2.08-1-4.72-3.68-4.72s-3.78 2.44-3.78 4.77zM658.65 345.69c0-1.27 0-2.31-.1-3.33h2l.1 2h.07a4.26 4.26 0 0 1 3.86-2.26 3.63 3.63 0 0 1 3.48 2.47h.05a5.09 5.09 0 0 1 1.37-1.6 4.2 4.2 0 0 1 2.72-.87c1.63 0 4 1.07 4 5.34v7.23H674v-7c0-2.36-.86-3.78-2.66-3.78a2.89 2.89 0 0 0-2.64 2 3.75 3.75 0 0 0-.18 1.12v7.59h-2.18v-7.36c0-2-.87-3.38-2.57-3.38a3.07 3.07 0 0 0-2.77 2.24 3.23 3.23 0 0 0-.17 1.09v7.41h-2.19zM679.83 345.69c0-1.27 0-2.31-.1-3.33h1.95l.1 2h.08a4.25 4.25 0 0 1 3.86-2.26 3.65 3.65 0 0 1 3.48 2.47 5 5 0 0 1 1.37-1.6 4.17 4.17 0 0 1 2.71-.87c1.63 0 4 1.07 4 5.34v7.23h-2.18v-7c0-2.36-.86-3.78-2.67-3.78a2.89 2.89 0 0 0-2.64 2 3.75 3.75 0 0 0-.18 1.12v7.59h-2.18v-7.36c0-2-.86-3.38-2.56-3.38a3 3 0 0 0-2.77 2.24 3 3 0 0 0-.18 1.09v7.41h-2.18zM711.28 351.3c0 1.27 0 2.39.11 3.35h-2l-.13-2a4.63 4.63 0 0 1-4.06 2.28c-1.93 0-4.25-1.07-4.25-5.38v-7.19h2.24v6.81c0 2.33.71 3.91 2.74 3.91a3.24 3.24 0 0 0 3-2 3.46 3.46 0 0 0 .2-1.15v-7.54h2.23zM715 345.69c0-1.27 0-2.31-.1-3.33h2l.13 2a4.53 4.53 0 0 1 4.06-2.31c1.7 0 4.34 1 4.34 5.23v7.34h-2.23v-7.08c0-2-.74-3.63-2.85-3.63a3.17 3.17 0 0 0-3 2.28 3.25 3.25 0 0 0-.16 1v7.39H715zM731.57 338.91a1.39 1.39 0 0 1-2.77 0 1.37 1.37 0 0 1 1.4-1.4 1.33 1.33 0 0 1 1.37 1.4zm-2.49 15.74v-12.29h2.24v12.29zM743.78 354.19a8.11 8.11 0 0 1-3.53.72c-3.71 0-6.12-2.52-6.12-6.28a6.24 6.24 0 0 1 6.6-6.52 7.57 7.57 0 0 1 3.1.63l-.51 1.73a5.23 5.23 0 0 0-2.59-.58c-2.81 0-4.34 2.08-4.34 4.64 0 2.85 1.83 4.6 4.27 4.6a6.31 6.31 0 0 0 2.74-.61zM753.2 354.65l-.2-1.55a4.58 4.58 0 0 1-3.76 1.83 3.5 3.5 0 0 1-3.76-3.53c0-3 2.64-4.59 7.39-4.57v-.25a2.54 2.54 0 0 0-2.79-2.85 6.09 6.09 0 0 0-3.2.92l-.51-1.47a7.62 7.62 0 0 1 4-1.1c3.75 0 4.67 2.57 4.67 5v4.6a17.57 17.57 0 0 0 .2 2.94zm-.33-6.27c-2.44-.05-5.2.38-5.2 2.77a2 2 0 0 0 2.1 2.13 3 3 0 0 0 3-2.06 2.17 2.17 0 0 0 .13-.71zM761.22 338.83v3.53h3.2v1.7h-3.2v6.63c0 1.52.43 2.39 1.68 2.39a5.27 5.27 0 0 0 1.29-.15l.1 1.67a5.37 5.37 0 0 1-2 .31 3.1 3.1 0 0 1-2.41-.94 4.59 4.59 0 0 1-.86-3.2v-6.71h-1.91v-1.7H759v-2.94zM769.42 338.91a1.38 1.38 0 0 1-2.76 0 1.36 1.36 0 0 1 1.39-1.4 1.33 1.33 0 0 1 1.37 1.4zm-2.49 15.74v-12.29h2.24v12.29zM784 348.41c0 4.54-3.15 6.52-6.12 6.52-3.33 0-5.89-2.44-5.89-6.32 0-4.11 2.69-6.53 6.09-6.53s5.92 2.57 5.92 6.33zm-9.75.12c0 2.69 1.54 4.73 3.73 4.73s3.73-2 3.73-4.78c0-2.08-1-4.72-3.68-4.72s-3.78 2.44-3.78 4.77zM786.81 345.69c0-1.27 0-2.31-.1-3.33h2l.13 2a4.53 4.53 0 0 1 4.06-2.31c1.7 0 4.34 1 4.34 5.23v7.34H795v-7.08c0-2-.74-3.63-2.84-3.63a3.17 3.17 0 0 0-3 2.28 3.26 3.26 0 0 0-.15 1v7.39h-2.24z"/><circle class="cls-5" cx="459.48" cy="235.04" r="4.5"/><circle class="cls-5" cx="459.48" cy="290.35" r="4.5"/><circle class="cls-5" cx="459.48" cy="345.66" r="4.5"/><path class="cls-1" d="M856 33.12V417h425V33l-425 .12z"/><path stroke="#a8d7cd" stroke-width="2.13" stroke-miterlimit="10" fill="none" d="M879.36 171.03l369.77-.07"/><path class="cls-4" d="M1013 97.48a14.37 14.37 0 0 1-5.89 1c-7.24 0-11.64-4.54-11.64-11.48 0-7.51 5.21-12 12.19-12a13.14 13.14 0 0 1 5.55 1l-.92 3.32a11 11 0 0 0-4.47-.88c-4.63 0-8 2.91-8 8.39 0 5 2.94 8.23 7.95 8.23a11.67 11.67 0 0 0 4.54-.85zM1031.5 89.77c0 6-4.26 8.76-8.46 8.76-4.67 0-8.26-3.21-8.26-8.49s3.55-8.74 8.53-8.74 8.19 3.46 8.19 8.47zm-12.42.17c0 3.18 1.56 5.58 4.09 5.58 2.37 0 4-2.34 4-5.65 0-2.58-1.15-5.52-4-5.52s-4.09 2.84-4.09 5.59zM1034.92 86.58c0-1.89 0-3.48-.13-4.9h3.65l.2 2.47h.11a5.93 5.93 0 0 1 5.25-2.85c2.88 0 5.86 1.87 5.86 7.08v9.78h-4.17v-9.31c0-2.37-.88-4.16-3.14-4.16a3.49 3.49 0 0 0-3.25 2.44 4.1 4.1 0 0 0-.17 1.35v9.68h-4.2zM1058.89 77v4.71h4v3.11h-4v7.28c0 2 .54 3 2.13 3a6.19 6.19 0 0 0 1.62-.2l.07 3.18a9 9 0 0 1-3 .41 4.82 4.82 0 0 1-3.59-1.36c-.88-.94-1.28-2.43-1.28-4.6v-7.74h-2.37v-3.11h2.37V78zM1068.74 91.09c.1 3 2.44 4.26 5.08 4.26a12.45 12.45 0 0 0 4.56-.74l.61 2.87a15.39 15.39 0 0 1-5.75 1c-5.35 0-8.49-3.29-8.49-8.33 0-4.57 2.77-8.87 8-8.87s7.11 4.4 7.11 8a10.06 10.06 0 0 1-.14 1.76zm7.24-2.92c0-1.52-.64-4-3.42-4-2.57 0-3.65 2.33-3.82 4zM1083.26 86.58c0-1.89 0-3.48-.13-4.9h3.65l.2 2.47h.11a5.93 5.93 0 0 1 5.24-2.85c2.88 0 5.86 1.87 5.86 7.08v9.78H1094v-9.31c0-2.37-.88-4.16-3.14-4.16a3.49 3.49 0 0 0-3.25 2.44 4.1 4.1 0 0 0-.17 1.35v9.68h-4.2zM1107.23 77v4.71h4v3.11h-4v7.28c0 2 .54 3 2.13 3a6.19 6.19 0 0 0 1.62-.2l.07 3.18a9 9 0 0 1-3 .41 4.82 4.82 0 0 1-3.59-1.36c-.88-.94-1.28-2.43-1.28-4.6v-7.74h-2.37v-3.11h2.37V78zM996.47 120.44c0-1.9 0-3.49-.14-4.91h3.59l.17 2.44h.1a5.69 5.69 0 0 1 5.08-2.81 4.75 4.75 0 0 1 4.56 3h.07a6.25 6.25 0 0 1 2-2.06 5.56 5.56 0 0 1 3.32-1c2.74 0 5.52 1.86 5.52 7.14V132h-4.06v-9.1c0-2.74-1-4.37-3-4.37a3.18 3.18 0 0 0-2.91 2.2 6 6 0 0 0-.2 1.39V132h-4.06v-9.54c0-2.3-.92-3.93-2.85-3.93a3.27 3.27 0 0 0-3 2.37 3.76 3.76 0 0 0-.23 1.35V132h-4.06zM1034.45 132l-.28-1.83h-.1a6.1 6.1 0 0 1-4.87 2.2 4.89 4.89 0 0 1-5.18-4.9c0-4.17 3.69-6.27 9.78-6.23V121c0-1.09-.44-2.88-3.35-2.88a8.75 8.75 0 0 0-4.43 1.22l-.81-2.71a11.89 11.89 0 0 1 6-1.45c5.28 0 6.81 3.35 6.81 6.93v6a26.38 26.38 0 0 0 .23 4zm-.55-8c-2.94-.07-5.75.57-5.75 3.08a2.18 2.18 0 0 0 2.37 2.36 3.37 3.37 0 0 0 3.25-2.26 3.09 3.09 0 0 0 .13-.92zM1042.37 120.44c0-1.9 0-3.49-.14-4.91h3.66l.2 2.47h.1a5.94 5.94 0 0 1 5.25-2.84c2.88 0 5.85 1.86 5.85 7.07V132h-4.16v-9.3c0-2.37-.88-4.16-3.15-4.16a3.5 3.5 0 0 0-3.25 2.44 4.39 4.39 0 0 0-.16 1.35V132h-4.2zM1071 132l-.27-1.83h-.1a6.1 6.1 0 0 1-4.87 2.2 4.89 4.89 0 0 1-5.18-4.9c0-4.17 3.69-6.27 9.78-6.23V121c0-1.09-.44-2.88-3.35-2.88a8.72 8.72 0 0 0-4.43 1.22l-.82-2.71a12 12 0 0 1 6-1.45c5.28 0 6.8 3.35 6.8 6.93v6a26.23 26.23 0 0 0 .24 4zm-.54-8c-2.94-.07-5.75.57-5.75 3.08a2.18 2.18 0 0 0 2.37 2.36 3.37 3.37 0 0 0 3.25-2.26 3.09 3.09 0 0 0 .13-.92zM1094 115.53c-.07 1.12-.14 2.47-.14 4.74v9.34c0 3.45-.71 5.92-2.43 7.48a9.51 9.51 0 0 1-6.37 2 11.64 11.64 0 0 1-5.75-1.32l.91-3.14a10 10 0 0 0 4.81 1.25c2.71 0 4.74-1.42 4.74-5v-1.42h-.07a5.56 5.56 0 0 1-4.81 2.44c-4.09 0-7-3.39-7-8.06 0-5.41 3.52-8.69 7.48-8.69a5.2 5.2 0 0 1 4.77 2.57h.07l.17-2.2zm-4.3 6.6a3.78 3.78 0 0 0-.14-1.12 3.45 3.45 0 0 0-3.38-2.67c-2.34 0-4.06 2-4.06 5.38 0 2.81 1.42 5.08 4 5.08a3.56 3.56 0 0 0 3.38-2.51 7.23 7.23 0 0 0 .17-1.49zM1101.27 124.94c.1 3 2.44 4.26 5.07 4.26a12.47 12.47 0 0 0 4.57-.74l.61 2.87a15.39 15.39 0 0 1-5.75 1c-5.35 0-8.5-3.28-8.5-8.33 0-4.56 2.78-8.86 8.06-8.86s7.11 4.4 7.11 8a9.88 9.88 0 0 1-.14 1.76zm7.24-2.91c0-1.53-.64-4-3.42-4-2.57 0-3.65 2.33-3.82 4zM1115.79 120.44c0-1.9 0-3.49-.13-4.91h3.58l.17 2.44h.1a5.72 5.72 0 0 1 5.08-2.81 4.75 4.75 0 0 1 4.57 3h.07a6.16 6.16 0 0 1 2-2.06 5.5 5.5 0 0 1 3.31-1c2.75 0 5.52 1.86 5.52 7.14V132H1136v-9.1c0-2.74-1-4.37-2.94-4.37a3.18 3.18 0 0 0-2.92 2.2 6 6 0 0 0-.2 1.39V132h-4.06v-9.54c0-2.3-.91-3.93-2.84-3.93a3.25 3.25 0 0 0-3 2.37 3.56 3.56 0 0 0-.24 1.35V132h-4.06zM1147.44 124.94c.1 3 2.44 4.26 5.08 4.26a12.51 12.51 0 0 0 4.57-.74l.61 2.87a15.49 15.49 0 0 1-5.76 1c-5.35 0-8.49-3.28-8.49-8.33 0-4.56 2.77-8.86 8-8.86s7.11 4.4 7.11 8a9.88 9.88 0 0 1-.14 1.76zm7.24-2.91c0-1.53-.64-4-3.41-4-2.58 0-3.66 2.33-3.83 4zM1162 120.44c0-1.9 0-3.49-.13-4.91h3.65l.21 2.47h.1a5.92 5.92 0 0 1 5.24-2.84c2.88 0 5.86 1.86 5.86 7.07V132h-4.16v-9.3c0-2.37-.88-4.16-3.15-4.16a3.5 3.5 0 0 0-3.25 2.44 4.1 4.1 0 0 0-.17 1.35V132h-4.2zM1185.93 110.82v4.71h4v3.11h-4v7.28c0 2 .54 3 2.13 3a6.34 6.34 0 0 0 1.63-.2l.06 3.18a9 9 0 0 1-3 .41 4.86 4.86 0 0 1-3.59-1.35c-.88-.95-1.28-2.44-1.28-4.61v-7.75h-2.37v-3.11h2.37v-3.72zM927.46 225a26.49 26.49 0 0 1 4.24-.33 7 7 0 0 1 4.8 1.43 4.59 4.59 0 0 1 1.5 3.58 5 5 0 0 1-1.32 3.65 7.07 7.07 0 0 1-5.23 1.88 7.48 7.48 0 0 1-1.78-.15v6.86h-2.21zm2.21 8.26a7.79 7.79 0 0 0 1.83.17c2.67 0 4.29-1.29 4.29-3.65s-1.6-3.35-4-3.35a9.5 9.5 0 0 0-2.08.17zM940.49 233.42c0-1.45 0-2.69-.11-3.83h2l.08 2.41h.1a3.68 3.68 0 0 1 3.4-2.69 2.43 2.43 0 0 1 .63.07v2.11a3.28 3.28 0 0 0-.76-.08 3.13 3.13 0 0 0-3 2.87 6.44 6.44 0 0 0-.1 1v6.56h-2.21zM959.66 235.63c0 4.54-3.15 6.52-6.12 6.52-3.33 0-5.89-2.43-5.89-6.32 0-4.11 2.69-6.52 6.09-6.52s5.92 2.56 5.92 6.32zm-9.75.13c0 2.69 1.54 4.72 3.73 4.72s3.73-2 3.73-4.77c0-2.09-1-4.73-3.68-4.73s-3.78 2.44-3.78 4.78zM973.09 223.85v14.85c0 1.09 0 2.34.1 3.18h-2l-.1-2.14H971a4.55 4.55 0 0 1-4.19 2.41c-3 0-5.26-2.51-5.26-6.24 0-4.09 2.52-6.6 5.51-6.6a4.12 4.12 0 0 1 3.71 1.88h.05v-7.34zm-2.24 10.74a3.76 3.76 0 0 0-.1-.94 3.29 3.29 0 0 0-3.22-2.59c-2.32 0-3.69 2-3.69 4.75 0 2.48 1.22 4.54 3.63 4.54a3.37 3.37 0 0 0 3.28-2.66 3.75 3.75 0 0 0 .1-1zM987.08 238.52c0 1.27 0 2.39.1 3.36h-2l-.13-2H985a4.63 4.63 0 0 1-4.06 2.28c-1.93 0-4.24-1.06-4.24-5.38v-7.18h2.3v6.8c0 2.34.71 3.91 2.74 3.91a3.24 3.24 0 0 0 2.95-2 3.45 3.45 0 0 0 .2-1.14v-7.54h2.24zM999.54 241.42a8.3 8.3 0 0 1-3.53.71c-3.71 0-6.12-2.51-6.12-6.27a6.24 6.24 0 0 1 6.6-6.53 7.39 7.39 0 0 1 3.1.64l-.51 1.72a5.23 5.23 0 0 0-2.59-.58c-2.81 0-4.34 2.08-4.34 4.65 0 2.84 1.83 4.59 4.27 4.59a6.31 6.31 0 0 0 2.74-.61zM1005.18 226.06v3.53h3.2v1.7h-3.2v6.62c0 1.53.43 2.39 1.67 2.39a5.29 5.29 0 0 0 1.3-.15l.1 1.67a5.41 5.41 0 0 1-2 .31 3.09 3.09 0 0 1-2.41-.94 4.52 4.52 0 0 1-.87-3.2v-6.7h-1.9v-1.7h1.9v-3zM1025 241.42a8.3 8.3 0 0 1-3.53.71c-3.71 0-6.12-2.51-6.12-6.27a6.24 6.24 0 0 1 6.6-6.53 7.39 7.39 0 0 1 3.1.64l-.51 1.72a5.23 5.23 0 0 0-2.59-.58c-2.81 0-4.34 2.08-4.34 4.65 0 2.84 1.83 4.59 4.27 4.59a6.34 6.34 0 0 0 2.74-.61zM1034.45 241.88l-.18-1.55h-.07a4.6 4.6 0 0 1-3.76 1.82 3.5 3.5 0 0 1-3.76-3.52c0-3 2.64-4.6 7.39-4.58v-.25a2.53 2.53 0 0 0-2.79-2.84 6.08 6.08 0 0 0-3.2.91l-.51-1.47a7.62 7.62 0 0 1 4-1.09c3.75 0 4.67 2.56 4.67 5v4.6a17.62 17.62 0 0 0 .2 2.95zm-.33-6.28c-2.44 0-5.21.38-5.21 2.77a2 2 0 0 0 2.11 2.13 3 3 0 0 0 3-2.05 2.27 2.27 0 0 0 .13-.71zM1042.47 226.06v3.53h3.2v1.7h-3.2v6.62c0 1.53.43 2.39 1.68 2.39a5.27 5.27 0 0 0 1.29-.15l.1 1.67a5.37 5.37 0 0 1-2 .31 3.09 3.09 0 0 1-2.41-.94 4.57 4.57 0 0 1-.86-3.2v-6.7h-1.91v-1.7h1.91v-3zM1055 241.88l-.18-1.55h-.08a4.56 4.56 0 0 1-3.75 1.82 3.5 3.5 0 0 1-3.76-3.52c0-3 2.64-4.6 7.39-4.58v-.25a2.54 2.54 0 0 0-2.8-2.84 6.07 6.07 0 0 0-3.19.91l-.51-1.47a7.61 7.61 0 0 1 4-1.09c3.76 0 4.68 2.56 4.68 5v4.6a17.62 17.62 0 0 0 .2 2.95zm-.33-6.28c-2.44 0-5.21.38-5.21 2.77a2 2 0 0 0 2.11 2.13 3 3 0 0 0 3-2.05 2.27 2.27 0 0 0 .13-.71zM1060.42 223.85h2.24v18h-2.24zM1077.53 235.63c0 4.54-3.15 6.52-6.12 6.52-3.32 0-5.89-2.43-5.89-6.32 0-4.11 2.69-6.52 6.1-6.52s5.91 2.56 5.91 6.32zm-9.75.13c0 2.69 1.55 4.72 3.74 4.72s3.73-2 3.73-4.77c0-2.09-1-4.73-3.68-4.73s-3.79 2.44-3.79 4.78zM1090.94 229.59c0 .88-.1 1.87-.1 3.37v7.14c0 2.82-.56 4.54-1.76 5.61a6.47 6.47 0 0 1-4.46 1.47 7.92 7.92 0 0 1-4.09-1l.56-1.71a6.89 6.89 0 0 0 3.6 1c2.29 0 4-1.19 4-4.29v-1.37h-.05a4.37 4.37 0 0 1-3.91 2c-3 0-5.23-2.59-5.23-6 0-4.16 2.72-6.52 5.54-6.52a4.07 4.07 0 0 1 3.83 2.13h.05l.1-1.85zm-2.31 4.85a3.28 3.28 0 0 0-3.25-3.38c-2.13 0-3.66 1.8-3.66 4.65 0 2.41 1.22 4.41 3.63 4.41a3.27 3.27 0 0 0 3.1-2.28 3.8 3.8 0 0 0 .18-1.2zM1094.24 239.59a5.87 5.87 0 0 0 2.94.89c1.63 0 2.39-.81 2.39-1.83s-.64-1.65-2.29-2.26c-2.2-.79-3.25-2-3.25-3.48 0-2 1.6-3.6 4.24-3.6a6.13 6.13 0 0 1 3 .76l-.56 1.62a4.85 4.85 0 0 0-2.52-.71c-1.32 0-2 .76-2 1.68s.73 1.47 2.33 2.08c2.14.81 3.23 1.88 3.23 3.71 0 2.16-1.68 3.68-4.6 3.68a7 7 0 0 1-3.45-.84zM927.46 280.38a32.13 32.13 0 0 1 4.7-.36c3.17 0 5.43.74 6.93 2.14a7.87 7.87 0 0 1 2.41 6.14 9 9 0 0 1-2.5 6.7c-1.6 1.6-4.24 2.47-7.57 2.47a34.84 34.84 0 0 1-4-.21zm2.21 15.13a14.12 14.12 0 0 0 2.24.13c4.72 0 7.28-2.64 7.28-7.26 0-4-2.26-6.6-6.93-6.6a13.18 13.18 0 0 0-2.59.22zM946.78 281.52a1.31 1.31 0 0 1-1.42 1.37 1.33 1.33 0 0 1-1.35-1.37 1.36 1.36 0 0 1 1.4-1.39 1.32 1.32 0 0 1 1.37 1.39zm-2.49 15.74V285h2.24v12.29zM960.82 285c-.05.89-.1 1.88-.1 3.38v7.14c0 2.81-.56 4.54-1.75 5.61a6.54 6.54 0 0 1-4.47 1.47 8 8 0 0 1-4.09-1l.56-1.7a6.9 6.9 0 0 0 3.61 1c2.28 0 4-1.19 4-4.29v-1.37a4.4 4.4 0 0 1-3.91 2c-3.05 0-5.23-2.59-5.23-6 0-4.16 2.71-6.52 5.53-6.52a4.07 4.07 0 0 1 3.83 2.13h.06l.1-1.86zm-2.31 4.85a2.91 2.91 0 0 0-.13-1 3.2 3.2 0 0 0-3.12-2.36c-2.13 0-3.65 1.8-3.65 4.64 0 2.42 1.21 4.42 3.63 4.42a3.25 3.25 0 0 0 3.09-2.28 3.84 3.84 0 0 0 .18-1.2zM966.76 281.52a1.38 1.38 0 0 1-2.76 0 1.35 1.35 0 0 1 1.39-1.39 1.32 1.32 0 0 1 1.37 1.39zm-2.49 15.74V285h2.24v12.29zM972.91 281.45V285h3.2v1.71h-3.2v6.62c0 1.53.43 2.39 1.67 2.39a5.29 5.29 0 0 0 1.3-.15l.1 1.67a5.41 5.41 0 0 1-2 .31 3.09 3.09 0 0 1-2.41-.94 4.52 4.52 0 0 1-.87-3.2v-6.7h-1.9V285h1.9v-3zM985.42 297.26l-.17-1.55h-.08a4.58 4.58 0 0 1-3.76 1.83 3.5 3.5 0 0 1-3.76-3.53c0-3 2.64-4.59 7.39-4.57v-.25a2.53 2.53 0 0 0-2.79-2.84 6.11 6.11 0 0 0-3.2.91l-.51-1.47a7.65 7.65 0 0 1 4-1.09c3.76 0 4.67 2.56 4.67 5v4.6a17.49 17.49 0 0 0 .2 2.94zm-.33-6.27c-2.43-.05-5.2.38-5.2 2.77a2 2 0 0 0 2.11 2.13 3.07 3.07 0 0 0 3-2.05 2.58 2.58 0 0 0 .12-.71zM990.86 279.24h2.23v18h-2.23zM1002.23 288.3c0-1.27 0-2.31-.1-3.33h2l.1 2h.08a4.24 4.24 0 0 1 3.86-2.26 3.64 3.64 0 0 1 3.48 2.46 5 5 0 0 1 1.37-1.6 4.2 4.2 0 0 1 2.72-.86c1.62 0 4 1.06 4 5.33v7.23h-2.18v-6.95c0-2.36-.86-3.79-2.67-3.79a2.89 2.89 0 0 0-2.64 2 3.82 3.82 0 0 0-.17 1.12v7.59h-2.19v-7.34c0-1.95-.86-3.38-2.56-3.38a3.06 3.06 0 0 0-2.77 2.24 3 3 0 0 0-.18 1.09v7.41h-2.18zM1030.21 297.26l-.18-1.55h-.03a4.54 4.54 0 0 1-3.75 1.83 3.5 3.5 0 0 1-3.76-3.53c0-3 2.64-4.59 7.39-4.57v-.25a2.53 2.53 0 0 0-2.8-2.84 6.13 6.13 0 0 0-3.2.91l-.5-1.47a7.58 7.58 0 0 1 4-1.09c3.76 0 4.68 2.56 4.68 5v4.6a17.49 17.49 0 0 0 .2 2.94zm-.33-6.27c-2.44-.05-5.21.38-5.21 2.77a2 2 0 0 0 2.11 2.13 3.06 3.06 0 0 0 3-2.05 2.27 2.27 0 0 0 .13-.71zM1035.64 288.81c0-1.45 0-2.69-.1-3.84h2l.08 2.42h.1a3.69 3.69 0 0 1 3.4-2.69 2.51 2.51 0 0 1 .64.07v2.11a3.41 3.41 0 0 0-.76-.08 3.14 3.14 0 0 0-3 2.87 6.44 6.44 0 0 0-.1 1v6.55h-2.21zM1046.25 290.61a21 21 0 0 1 1.09-1.4L1051 285h2.69l-4.75 5.06 5.41 7.23h-2.72l-4.24-5.89-1.14 1.27v4.62H1044v-18h2.21zM1057.19 291.53c.06 3 2 4.26 4.22 4.26a8.17 8.17 0 0 0 3.4-.63l.38 1.6a10 10 0 0 1-4.09.76c-3.78 0-6-2.49-6-6.2s2.19-6.62 5.77-6.62c4 0 5.07 3.52 5.07 5.78a10.2 10.2 0 0 1-.07 1zm6.56-1.6c0-1.43-.59-3.64-3.1-3.64-2.26 0-3.25 2.09-3.43 3.64zM1071.36 281.45V285h3.2v1.71h-3.2v6.62c0 1.53.43 2.39 1.68 2.39a5.27 5.27 0 0 0 1.29-.15l.1 1.67a5.37 5.37 0 0 1-2 .31 3.09 3.09 0 0 1-2.41-.94 4.57 4.57 0 0 1-.86-3.2v-6.7h-1.91V285h1.91v-3zM1079.56 281.52a1.31 1.31 0 0 1-1.42 1.37 1.33 1.33 0 0 1-1.35-1.37 1.36 1.36 0 0 1 1.4-1.39 1.32 1.32 0 0 1 1.37 1.39zm-2.49 15.74V285h2.24v12.29zM1083 288.3c0-1.27 0-2.31-.1-3.33h2l.13 2a4.51 4.51 0 0 1 4.06-2.31c1.7 0 4.34 1 4.34 5.23v7.33h-2.23v-7.08c0-2-.74-3.63-2.84-3.63a3.17 3.17 0 0 0-3 2.28 3.28 3.28 0 0 0-.15 1.05v7.38H1083zM1107.69 285c0 .89-.1 1.88-.1 3.38v7.14c0 2.81-.56 4.54-1.75 5.61a6.54 6.54 0 0 1-4.47 1.47 8 8 0 0 1-4.09-1l.56-1.7a6.9 6.9 0 0 0 3.61 1c2.28 0 4-1.19 4-4.29v-1.37h-.05a4.4 4.4 0 0 1-3.91 2c-3 0-5.23-2.59-5.23-6 0-4.16 2.71-6.52 5.53-6.52a4.07 4.07 0 0 1 3.83 2.13h.06l.1-1.86zm-2.31 4.85a2.91 2.91 0 0 0-.13-1 3.2 3.2 0 0 0-3.12-2.36c-2.13 0-3.65 1.8-3.65 4.64 0 2.42 1.21 4.42 3.63 4.42a3.25 3.25 0 0 0 3.09-2.28 3.84 3.84 0 0 0 .18-1.2zM941.58 355.17a85.64 85.64 0 0 1-6.55-2 3.24 3.24 0 0 0-1-.26c-4.07-.15-7.54-3.15-7.54-8.66s3.35-9 8-9 7.67 3.6 7.67 8.66c0 4.39-2 7.21-4.88 8.2v.1c1.7.43 3.56.84 5 1.09zM939.75 344c0-3.43-1.78-7-5.41-7s-5.56 3.46-5.53 7.16 2 6.91 5.43 6.91 5.51-3.14 5.51-7.07zM955.24 349.3c0 1.27 0 2.39.1 3.35h-2l-.13-2h-.05a4.62 4.62 0 0 1-4.06 2.28c-1.93 0-4.24-1.07-4.24-5.38v-7.19h2.23v6.81c0 2.33.71 3.91 2.74 3.91a3.13 3.13 0 0 0 3.17-3.18v-7.54h2.24zM965.75 352.65l-.18-1.55h-.08a4.54 4.54 0 0 1-3.75 1.83 3.5 3.5 0 0 1-3.74-3.53c0-3 2.64-4.59 7.39-4.57v-.25a2.54 2.54 0 0 0-2.8-2.85 6.08 6.08 0 0 0-3.19.92l-.51-1.47a7.61 7.61 0 0 1 4-1.1c3.76 0 4.68 2.57 4.68 5v4.6a17.57 17.57 0 0 0 .2 2.94zm-.33-6.27c-2.44-.05-5.21.38-5.21 2.77a2 2 0 0 0 2.11 2.13 3 3 0 0 0 3-2.06 2.17 2.17 0 0 0 .13-.71zM971.18 334.62h2.24v18h-2.24zM979.66 336.91a1.31 1.31 0 0 1-1.42 1.37 1.33 1.33 0 0 1-1.35-1.37 1.37 1.37 0 0 1 1.4-1.4 1.33 1.33 0 0 1 1.37 1.4zm-2.49 15.74v-12.29h2.24v12.29zM985.8 336.83v3.53h3.2v1.7h-3.2v6.63c0 1.52.44 2.39 1.68 2.39a5.2 5.2 0 0 0 1.29-.15l.11 1.67a5.45 5.45 0 0 1-2 .31 3.11 3.11 0 0 1-2.42-.94 4.59 4.59 0 0 1-.86-3.2v-6.71h-1.9v-1.7h1.9v-2.94zM992.56 340.36l2.69 7.26c.28.82.58 1.78.78 2.52h.05c.23-.74.49-1.68.79-2.57l2.44-7.21h2.36l-3.35 8.76c-1.6 4.22-2.69 6.38-4.22 7.7a6 6 0 0 1-2.74 1.44l-.56-1.88a5.74 5.74 0 0 0 2-1.09 6.72 6.72 0 0 0 1.88-2.49 1.56 1.56 0 0 0 .18-.53 2 2 0 0 0-.16-.58l-4.54-11.33zM1019.7 334.62v14.86c0 1.09 0 2.33.1 3.17h-2l-.1-2.13h-.05a4.55 4.55 0 0 1-4.19 2.41c-3 0-5.26-2.51-5.26-6.24 0-4.09 2.52-6.61 5.51-6.61a4.12 4.12 0 0 1 3.71 1.88h.05v-7.34zm-2.24 10.74a3.68 3.68 0 0 0-.1-.93 3.28 3.28 0 0 0-3.22-2.59c-2.31 0-3.69 2-3.69 4.74 0 2.49 1.22 4.55 3.63 4.55a3.36 3.36 0 0 0 3.28-2.67 3.68 3.68 0 0 0 .1-1zM1034.52 346.41c0 4.54-3.14 6.52-6.12 6.52-3.32 0-5.89-2.44-5.89-6.32 0-4.11 2.7-6.53 6.1-6.53s5.91 2.57 5.91 6.33zm-9.75.12c0 2.69 1.55 4.73 3.74 4.73s3.73-2 3.73-4.78c0-2.08-1-4.72-3.68-4.72s-3.79 2.44-3.79 4.77zM1046.1 352.19a8.11 8.11 0 0 1-3.53.72c-3.71 0-6.12-2.52-6.12-6.28a6.24 6.24 0 0 1 6.6-6.52 7.57 7.57 0 0 1 3.1.63l-.51 1.73a5.23 5.23 0 0 0-2.59-.58c-2.81 0-4.34 2.08-4.34 4.64 0 2.85 1.83 4.6 4.27 4.6a6.34 6.34 0 0 0 2.74-.61zM1059 349.3c0 1.27 0 2.39.1 3.35h-2l-.13-2a4.62 4.62 0 0 1-4.06 2.28c-1.93 0-4.24-1.07-4.24-5.38v-7.19h2.23v6.81c0 2.33.71 3.91 2.75 3.91a3.13 3.13 0 0 0 3.14-3.18v-7.54h2.21zM1062.7 343.69c0-1.27 0-2.31-.1-3.33h2l.1 2h.08a4.23 4.23 0 0 1 3.85-2.26 3.63 3.63 0 0 1 3.48 2.47 5 5 0 0 1 1.38-1.6 4.15 4.15 0 0 1 2.71-.87c1.63 0 4 1.07 4 5.34v7.23h-2.18v-7c0-2.36-.87-3.78-2.67-3.78a2.89 2.89 0 0 0-2.64 2 3.75 3.75 0 0 0-.18 1.12v7.59h-2.18v-7.36c0-2-.87-3.38-2.57-3.38a3 3 0 0 0-2.76 2.24 3 3 0 0 0-.18 1.09v7.41h-2.19zM1085.12 346.91c.05 3 2 4.27 4.22 4.27a8 8 0 0 0 3.4-.64l.38 1.6a9.85 9.85 0 0 1-4.09.77c-3.78 0-6-2.49-6-6.2s2.18-6.63 5.76-6.63c4 0 5.08 3.53 5.08 5.79a7.3 7.3 0 0 1-.08 1zm6.55-1.6c0-1.42-.58-3.63-3.09-3.63-2.26 0-3.25 2.09-3.43 3.63zM1096.6 343.69c0-1.27 0-2.31-.1-3.33h2l.12 2h.05a4.55 4.55 0 0 1 4.07-2.31c1.7 0 4.34 1 4.34 5.23v7.34h-2.24v-7.08c0-2-.73-3.63-2.84-3.63a3.19 3.19 0 0 0-3 2.28 3.26 3.26 0 0 0-.15 1v7.39h-2.23zM1113.28 336.83v3.53h3.2v1.7h-3.2v6.63c0 1.52.43 2.39 1.67 2.39a5.29 5.29 0 0 0 1.3-.15l.1 1.67a5.41 5.41 0 0 1-2 .31 3.09 3.09 0 0 1-2.35-.91 4.54 4.54 0 0 1-.87-3.2v-6.71h-1.9v-1.7h1.9v-2.94zM1125.79 352.65l-.17-1.55h-.08a4.55 4.55 0 0 1-3.76 1.83 3.49 3.49 0 0 1-3.75-3.53c0-3 2.64-4.59 7.38-4.57v-.25a2.54 2.54 0 0 0-2.79-2.85 6.14 6.14 0 0 0-3.2.92l-.51-1.47a7.65 7.65 0 0 1 4-1.1c3.76 0 4.67 2.57 4.67 5v4.6a16.51 16.51 0 0 0 .21 2.94zm-.33-6.27c-2.43-.05-5.2.38-5.2 2.77a2 2 0 0 0 2.11 2.13 3.05 3.05 0 0 0 3-2.06 2.46 2.46 0 0 0 .12-.71zM1133.82 336.83v3.53h3.2v1.7h-3.2v6.63c0 1.52.43 2.39 1.67 2.39a5.29 5.29 0 0 0 1.3-.15l.1 1.67a5.41 5.41 0 0 1-2 .31 3.09 3.09 0 0 1-2.41-.94 4.54 4.54 0 0 1-.87-3.2v-6.71h-1.9v-1.7h1.9v-2.94zM1142 336.91a1.39 1.39 0 0 1-2.77 0 1.36 1.36 0 0 1 1.4-1.4 1.33 1.33 0 0 1 1.37 1.4zm-2.49 15.74v-12.29h2.23v12.29zM1156.59 346.41c0 4.54-3.15 6.52-6.12 6.52-3.32 0-5.89-2.44-5.89-6.32 0-4.11 2.69-6.53 6.1-6.53s5.91 2.57 5.91 6.33zm-9.75.12c0 2.69 1.55 4.73 3.73 4.73s3.74-2 3.74-4.78c0-2.08-1-4.72-3.68-4.72s-3.79 2.44-3.79 4.77zM1159.41 343.69c0-1.27 0-2.31-.1-3.33h2l.13 2a4.53 4.53 0 0 1 4.06-2.31c1.7 0 4.34 1 4.34 5.23v7.34h-2.23v-7.08c0-2-.74-3.63-2.85-3.63a3.17 3.17 0 0 0-3 2.28 3 3 0 0 0-.16 1v7.39h-2.23z"/><circle class="cls-5" cx="902.42" cy="235.04" r="4.5"/><circle class="cls-5" cx="902.42" cy="290.35" r="4.5"/><circle class="cls-5" cx="902.42" cy="345.66" r="4.5"/><path class="cls-4" d="M190.27 86.52c0 7.65-4.64 12-10.93 12s-10.49-4.91-10.49-11.61c0-7 4.4-11.94 10.83-11.94 6.66.03 10.59 5.03 10.59 11.55zm-17 .34c0 4.63 2.33 8.32 6.32 8.32s6.3-3.72 6.3-8.49c0-4.3-2.13-8.36-6.3-8.36s-6.34 3.82-6.34 8.53zM193.79 86.58c0-1.89 0-3.48-.13-4.9h3.59l.16 2.43h.11a5.71 5.71 0 0 1 5.07-2.81 4.75 4.75 0 0 1 4.57 3h.07a6.16 6.16 0 0 1 2-2.06 5.45 5.45 0 0 1 3.32-1c2.74 0 5.51 1.87 5.51 7.15v9.71H214v-9.05c0-2.74-.95-4.36-2.94-4.36a3.17 3.17 0 0 0-2.91 2.2 6 6 0 0 0-.21 1.39v9.88h-4.06v-9.54c0-2.31-.91-3.93-2.84-3.93a3.25 3.25 0 0 0-3 2.37 3.52 3.52 0 0 0-.24 1.35v9.75h-4.06zM222.5 86.58c0-1.89 0-3.48-.14-4.9H226l.2 2.47h.1a6 6 0 0 1 5.25-2.85c2.88 0 5.85 1.87 5.85 7.08v9.78h-4.16v-9.31c0-2.37-.88-4.16-3.15-4.16a3.5 3.5 0 0 0-3.25 2.44 4.39 4.39 0 0 0-.16 1.35v9.68h-4.2zM246.29 77.07a2.34 2.34 0 1 1-2.29-2.26 2.2 2.2 0 0 1 2.29 2.26zm-4.43 21.09V81.68h4.2v16.48zM262.64 97.65a11.94 11.94 0 0 1-4.67.85c-5.14 0-8.49-3.29-8.49-8.4 0-4.94 3.38-8.8 9.17-8.8a10.42 10.42 0 0 1 4 .78l-.75 3.12a7.21 7.21 0 0 0-3.14-.65c-3.19 0-5.08 2.34-5.05 5.35 0 3.39 2.2 5.31 5.05 5.31a8.12 8.12 0 0 0 3.28-.64zM265.73 74.13h4.19v9.81h.08a6 6 0 0 1 4.91-2.64c2.81 0 5.75 1.87 5.75 7.15v9.71h-4.16v-9.24c0-2.4-.88-4.2-3.18-4.2a3.4 3.4 0 0 0-3.22 2.34 3.64 3.64 0 0 0-.17 1.25v9.85h-4.19zM294.36 98.16l-.27-1.83H294a6.11 6.11 0 0 1-4.87 2.2 4.89 4.89 0 0 1-5.18-4.91c0-4.16 3.69-6.26 9.78-6.22v-.27c0-1.09-.44-2.88-3.35-2.88a8.69 8.69 0 0 0-4.43 1.22l-.82-2.71a11.92 11.92 0 0 1 6-1.46c5.28 0 6.8 3.36 6.8 6.94v6a26.32 26.32 0 0 0 .24 4zm-.54-8.06c-2.94-.06-5.75.58-5.75 3.08a2.18 2.18 0 0 0 2.37 2.37 3.39 3.39 0 0 0 3.25-2.26 3.09 3.09 0 0 0 .13-.92zM302.29 86.58c0-1.89 0-3.48-.14-4.9h3.65l.21 2.47h.1a5.93 5.93 0 0 1 5.25-2.85c2.87 0 5.85 1.87 5.85 7.08v9.78h-4.16v-9.31c0-2.37-.88-4.16-3.15-4.16a3.49 3.49 0 0 0-3.25 2.44 4.38 4.38 0 0 0-.17 1.35v9.68h-4.19zM321.65 86.58c0-1.89 0-3.48-.14-4.9h3.66l.2 2.47h.1a6 6 0 0 1 5.25-2.85c2.87 0 5.85 1.87 5.85 7.08v9.78h-4.16v-9.31c0-2.37-.88-4.16-3.15-4.16a3.49 3.49 0 0 0-3.26 2.44 4.38 4.38 0 0 0-.17 1.35v9.68h-4.19zM344 91.09c.11 3 2.44 4.26 5.08 4.26a12.47 12.47 0 0 0 4.57-.74l.61 2.87a15.39 15.39 0 0 1-5.75 1c-5.35 0-8.5-3.29-8.5-8.33 0-4.57 2.78-8.87 8.06-8.87s7.1 4.4 7.1 8a10.27 10.27 0 0 1-.13 1.76zm7.25-2.92c0-1.52-.65-4-3.42-4-2.57 0-3.66 2.33-3.83 4zM358.48 74.13h4.19v24h-4.19zM169.86 121c0-2.16-.07-3.92-.13-5.48h3.65l.2 2.54h.07a6.43 6.43 0 0 1 5.65-2.91c3.79 0 6.94 3.25 6.94 8.39 0 6-3.76 8.83-7.51 8.83a5.42 5.42 0 0 1-4.64-2.2H174v8.53h-4.16zm4.16 4.1a4.42 4.42 0 0 0 .14 1.15 3.76 3.76 0 0 0 3.65 2.91c2.64 0 4.2-2.2 4.2-5.45 0-2.91-1.42-5.28-4.09-5.28a3.88 3.88 0 0 0-3.73 3.08 3.84 3.84 0 0 0-.17 1zM189.66 108h4.2v24h-4.2zM207.64 132l-.27-1.83h-.11a6.1 6.1 0 0 1-4.87 2.2 4.89 4.89 0 0 1-5.18-4.9c0-4.17 3.69-6.27 9.78-6.23V121c0-1.09-.44-2.88-3.35-2.88a8.75 8.75 0 0 0-4.43 1.22l-.81-2.71a11.92 11.92 0 0 1 5.95-1.45c5.28 0 6.81 3.35 6.81 6.93v6a26.38 26.38 0 0 0 .23 4zm-.55-8c-2.94-.07-5.75.57-5.75 3.08a2.18 2.18 0 0 0 2.37 2.36 3.37 3.37 0 0 0 3.25-2.26 3.09 3.09 0 0 0 .13-.92zM220.13 110.82v4.71h4v3.11h-4v7.28c0 2 .54 3 2.13 3a6.34 6.34 0 0 0 1.63-.2l.06 3.18a9 9 0 0 1-3 .41 4.86 4.86 0 0 1-3.59-1.35c-.88-.95-1.28-2.44-1.28-4.61v-7.75h-2.38v-3.11h2.37v-3.72zM227.71 132v-13.36h-2.23v-3.11h2.23v-.71a7.71 7.71 0 0 1 2-5.62 6.31 6.31 0 0 1 4.3-1.59 8 8 0 0 1 2.67.41l-.3 3.21a4.85 4.85 0 0 0-1.76-.3c-2.07 0-2.78 1.72-2.78 3.75v.85h3.62v3.11h-3.59V132zM253.33 123.62c0 6.06-4.26 8.76-8.46 8.76-4.67 0-8.25-3.21-8.25-8.49s3.55-8.73 8.52-8.73 8.19 3.45 8.19 8.46zm-12.42.17c0 3.18 1.56 5.58 4.1 5.58 2.37 0 4-2.33 4-5.65 0-2.57-1.15-5.52-4-5.52s-4.1 2.8-4.1 5.59zM256.76 120.84c0-2.23 0-3.82-.14-5.31h3.62l.14 3.15h.13a4.91 4.91 0 0 1 4.5-3.52 4.31 4.31 0 0 1 1 .1v3.92a6.51 6.51 0 0 0-1.22-.13 3.68 3.68 0 0 0-3.73 3.15 7.9 7.9 0 0 0-.13 1.28V132h-4.16zM268.81 120.44c0-1.9 0-3.49-.14-4.91h3.59l.17 2.44h.1a5.69 5.69 0 0 1 5.08-2.81 4.77 4.77 0 0 1 4.57 3h.06a6.35 6.35 0 0 1 2-2.06 5.56 5.56 0 0 1 3.32-1c2.74 0 5.52 1.86 5.52 7.14V132h-4.06v-9.1c0-2.74-.95-4.37-2.95-4.37a3.18 3.18 0 0 0-2.91 2.2 6 6 0 0 0-.2 1.39V132h-4.06v-9.54c0-2.3-.92-3.93-2.85-3.93a3.27 3.27 0 0 0-3 2.37 3.76 3.76 0 0 0-.23 1.35V132h-4.06zM74.75 225a26.59 26.59 0 0 1 4.24-.33 7 7 0 0 1 4.8 1.43 4.59 4.59 0 0 1 1.5 3.58 5 5 0 0 1-1.29 3.61 7.07 7.07 0 0 1-5.23 1.88A7.48 7.48 0 0 1 77 235v6.86h-2.25zm2.25 8.22a7.85 7.85 0 0 0 1.83.17c2.67 0 4.29-1.29 4.29-3.65s-1.6-3.35-4-3.35a9.5 9.5 0 0 0-2.08.17zM94.33 241.88l-.18-1.55h-.07a4.6 4.6 0 0 1-3.76 1.82 3.5 3.5 0 0 1-3.76-3.52c0-3 2.64-4.6 7.39-4.58v-.25a2.53 2.53 0 0 0-2.79-2.8 6.08 6.08 0 0 0-3.2.91l-.51-1.47a7.62 7.62 0 0 1 4-1.09c3.75 0 4.67 2.56 4.67 5v4.6a17.62 17.62 0 0 0 .2 2.95zM94 235.6c-2.44 0-5.21.38-5.21 2.77a2 2 0 0 0 2.11 2.13 3 3 0 0 0 3-2.05 2.27 2.27 0 0 0 .13-.71zM99.76 233.42c0-1.45 0-2.69-.1-3.83h2l.07 2.41h.1a3.69 3.69 0 0 1 3.41-2.69 2.43 2.43 0 0 1 .63.07v2.11a3.41 3.41 0 0 0-.76-.08 3.14 3.14 0 0 0-3 2.87 6.44 6.44 0 0 0-.1 1v6.56h-2.25zM111.36 226.06v3.53h3.2v1.7h-3.2v6.62c0 1.53.44 2.39 1.68 2.39a5.2 5.2 0 0 0 1.29-.15l.11 1.67a5.45 5.45 0 0 1-2 .31 3.12 3.12 0 0 1-2.42-.94 4.57 4.57 0 0 1-.86-3.2v-6.7h-1.9v-1.7h1.9v-3zM116.77 239.59a5.88 5.88 0 0 0 3 .89c1.62 0 2.38-.81 2.38-1.83s-.63-1.65-2.28-2.26c-2.21-.79-3.25-2-3.25-3.48 0-2 1.6-3.6 4.24-3.6a6.11 6.11 0 0 1 3 .76l-.56 1.62a4.81 4.81 0 0 0-2.51-.71c-1.32 0-2.06.76-2.06 1.68s.74 1.47 2.34 2.08c2.13.81 3.22 1.88 3.22 3.71 0 2.16-1.67 3.68-4.59 3.68a7 7 0 0 1-3.46-.84zM139.32 241.88l-.18-1.55h-.08a4.57 4.57 0 0 1-3.76 1.82 3.5 3.5 0 0 1-3.75-3.52c0-3 2.64-4.6 7.39-4.58v-.25a2.54 2.54 0 0 0-2.8-2.84 6.13 6.13 0 0 0-3.2.91l-.5-1.47a7.58 7.58 0 0 1 4-1.09c3.76 0 4.67 2.56 4.67 5v4.6a17.55 17.55 0 0 0 .21 2.95zm-.32-6.28c-2.44 0-5.21.38-5.21 2.77a2 2 0 0 0 2.11 2.13 3.06 3.06 0 0 0 3-2.05 2.27 2.27 0 0 0 .13-.71zM144.75 232.91c0-1.27 0-2.31-.1-3.32h2l.12 2h.06a4.51 4.51 0 0 1 4.06-2.31c1.7 0 4.34 1 4.34 5.23v7.34H153v-7.09c0-2-.74-3.63-2.85-3.63a3.17 3.17 0 0 0-3 2.29 3 3 0 0 0-.16 1v7.39h-2.23zM169.45 223.85v14.85c0 1.09 0 2.34.1 3.18h-2l-.1-2.14a4.56 4.56 0 0 1-4.19 2.41c-3 0-5.26-2.51-5.26-6.24 0-4.09 2.51-6.6 5.51-6.6a4.12 4.12 0 0 1 3.71 1.88h.05v-7.34zm-2.23 10.74a4.29 4.29 0 0 0-.1-.94 3.29 3.29 0 0 0-3.23-2.59c-2.31 0-3.68 2-3.68 4.75 0 2.48 1.22 4.54 3.63 4.54a3.37 3.37 0 0 0 3.28-2.66 4.25 4.25 0 0 0 .1-1zM178.24 239.59a5.84 5.84 0 0 0 2.94.89c1.63 0 2.39-.81 2.39-1.83s-.64-1.65-2.29-2.26c-2.21-.79-3.25-2-3.25-3.48 0-2 1.6-3.6 4.24-3.6a6.05 6.05 0 0 1 3 .76l-.55 1.62a4.85 4.85 0 0 0-2.52-.71c-1.32 0-2.05.76-2.05 1.68s.73 1.47 2.33 2.08c2.13.81 3.23 1.88 3.23 3.71 0 2.16-1.68 3.68-4.6 3.68a7 7 0 0 1-3.45-.84zM189.84 236.14c0 3 2 4.26 4.21 4.26a8.22 8.22 0 0 0 3.41-.63l.38 1.6a10.1 10.1 0 0 1-4.09.76c-3.78 0-6-2.49-6-6.2s2.18-6.62 5.76-6.62c4 0 5.08 3.53 5.08 5.79a7.57 7.57 0 0 1-.08 1zm6.55-1.6c0-1.42-.58-3.63-3.1-3.63-2.26 0-3.25 2.08-3.43 3.63zM201.31 233.42c0-1.45 0-2.69-.1-3.83h2l.07 2.41h.11a3.67 3.67 0 0 1 3.4-2.69 2.43 2.43 0 0 1 .63.07v2.11a3.34 3.34 0 0 0-.76-.08 3.13 3.13 0 0 0-3 2.87 5.44 5.44 0 0 0-.11 1v6.56h-2.21zM211.11 229.59l2.42 6.9c.4 1.12.73 2.14 1 3.15h.07c.28-1 .64-2 1-3.15l2.39-6.9h2.34l-4.83 12.29h-2.1l-4.67-12.29zM225 226.13a1.31 1.31 0 0 1-1.42 1.37 1.33 1.33 0 0 1-1.35-1.37 1.36 1.36 0 0 1 1.4-1.39 1.32 1.32 0 0 1 1.37 1.39zm-2.49 15.75v-12.29h2.24v12.29zM237.16 241.42a8.3 8.3 0 0 1-3.53.71c-3.7 0-6.12-2.51-6.12-6.27a6.25 6.25 0 0 1 6.61-6.53 7.34 7.34 0 0 1 3.09.64l-.5 1.72a5.29 5.29 0 0 0-2.59-.58c-2.82 0-4.35 2.08-4.35 4.65 0 2.84 1.83 4.59 4.27 4.59a6.31 6.31 0 0 0 2.74-.61zM240.87 236.14c0 3 2 4.26 4.21 4.26a8.22 8.22 0 0 0 3.41-.63l.38 1.6a10.1 10.1 0 0 1-4.09.76c-3.78 0-6-2.49-6-6.2s2.18-6.62 5.76-6.62c4 0 5.08 3.53 5.08 5.79a7.57 7.57 0 0 1-.08 1zm6.55-1.6c0-1.42-.58-3.63-3.1-3.63-2.26 0-3.25 2.08-3.43 3.63zM252 239.59a5.88 5.88 0 0 0 3 .89c1.62 0 2.38-.81 2.38-1.83s-.63-1.65-2.28-2.26c-2.21-.79-3.25-2-3.25-3.48 0-2 1.6-3.6 4.24-3.6a6.11 6.11 0 0 1 3 .76l-.56 1.62A4.81 4.81 0 0 0 256 231c-1.32 0-2.06.76-2.06 1.68s.74 1.47 2.34 2.08c2.13.81 3.22 1.88 3.22 3.71 0 2.16-1.68 3.68-4.6 3.68a7 7 0 0 1-3.45-.84zM74.45 294.57a7.83 7.83 0 0 0 4 1.12c2.26 0 3.58-1.19 3.58-2.92s-.91-2.51-3.22-3.4c-2.8-1-4.52-2.44-4.52-4.85 0-2.67 2.21-4.65 5.53-4.65a7.78 7.78 0 0 1 3.78.84l-.6 1.8a6.91 6.91 0 0 0-3.25-.81c-2.34 0-3.23 1.4-3.23 2.56 0 1.6 1 2.39 3.4 3.3 2.9 1.12 4.37 2.52 4.37 5s-2 4.93-6 4.93a8.84 8.84 0 0 1-4.37-1.09zM94.08 297.26l-.18-1.55h-.08a4.55 4.55 0 0 1-3.76 1.83 3.5 3.5 0 0 1-3.75-3.54c0-3 2.64-4.59 7.38-4.57v-.25a2.52 2.52 0 0 0-2.79-2.84 6.13 6.13 0 0 0-3.2.91l-.51-1.47a7.65 7.65 0 0 1 4-1.09c3.76 0 4.67 2.56 4.67 5v4.6a16.44 16.44 0 0 0 .21 2.94zm-.33-6.26c-2.44-.05-5.21.38-5.21 2.77a2 2 0 0 0 2.11 2.13 3.06 3.06 0 0 0 3-2.05 2.6 2.6 0 0 0 .13-.71zM99.51 279.24h2.23v18h-2.23zM106.74 291.53a3.93 3.93 0 0 0 4.22 4.26 8.17 8.17 0 0 0 3.4-.63l.38 1.6a10.06 10.06 0 0 1-4.09.76c-3.78 0-6-2.49-6-6.2s2.18-6.62 5.76-6.62c4 0 5.08 3.52 5.08 5.78a10.2 10.2 0 0 1-.07 1zm6.55-1.6c0-1.43-.58-3.64-3.09-3.64-2.26 0-3.25 2.09-3.43 3.64zM117.91 295a5.88 5.88 0 0 0 3 .89c1.62 0 2.39-.82 2.39-1.83s-.64-1.65-2.29-2.26c-2.21-.79-3.25-2-3.25-3.48 0-2 1.6-3.6 4.24-3.6a6.05 6.05 0 0 1 3 .76l-.56 1.62a4.81 4.81 0 0 0-2.51-.71c-1.32 0-2.06.76-2.06 1.68s.74 1.47 2.34 2.08c2.13.81 3.22 1.88 3.22 3.71 0 2.15-1.67 3.68-4.59 3.68a7 7 0 0 1-3.45-.84zM140.46 297.26l-.18-1.55h-.07a4.58 4.58 0 0 1-3.76 1.83 3.5 3.5 0 0 1-3.76-3.53c0-3 2.64-4.59 7.39-4.57v-.25a2.53 2.53 0 0 0-2.79-2.84 6.08 6.08 0 0 0-3.2.91l-.51-1.47a7.62 7.62 0 0 1 4-1.09c3.75 0 4.67 2.56 4.67 5v4.6a17.49 17.49 0 0 0 .2 2.94zm-.33-6.27c-2.44-.05-5.21.38-5.21 2.77a2 2 0 0 0 2.11 2.13 3 3 0 0 0 3-2.05 2.27 2.27 0 0 0 .13-.71zM145.89 288.3c0-1.27 0-2.31-.1-3.33h2l.13 2a4.51 4.51 0 0 1 4.08-2.27c1.7 0 4.34 1 4.34 5.23v7.33h-2.23v-7.08c0-2-.74-3.63-2.85-3.63a3.17 3.17 0 0 0-3 2.28 3.28 3.28 0 0 0-.15 1.05v7.38h-2.24zM170.6 279.24v14.85c0 1.09 0 2.34.1 3.17h-2l-.1-2.13h-.05a4.55 4.55 0 0 1-4.19 2.41c-3 0-5.26-2.51-5.26-6.24 0-4.09 2.52-6.6 5.51-6.6a4.11 4.11 0 0 1 3.71 1.87h.05v-7.33zM168.36 290a3.76 3.76 0 0 0-.1-.94 3.29 3.29 0 0 0-3.22-2.59c-2.32 0-3.69 2-3.69 4.75 0 2.48 1.22 4.54 3.63 4.54a3.36 3.36 0 0 0 3.28-2.67 3.68 3.68 0 0 0 .1-1zM190.3 279.24v14.85c0 1.09 0 2.34.1 3.17h-2l-.1-2.13a4.55 4.55 0 0 1-4.19 2.41c-3 0-5.26-2.51-5.26-6.24 0-4.09 2.52-6.6 5.51-6.6a4.11 4.11 0 0 1 3.71 1.87h.05v-7.33zM188.06 290a3.76 3.76 0 0 0-.1-.94 3.29 3.29 0 0 0-3.22-2.59c-2.31 0-3.69 2-3.69 4.75 0 2.48 1.22 4.54 3.64 4.54a3.36 3.36 0 0 0 3.27-2.67 3.68 3.68 0 0 0 .1-1zM196.49 281.52a1.31 1.31 0 0 1-1.42 1.37 1.33 1.33 0 0 1-1.35-1.37 1.36 1.36 0 0 1 1.4-1.39 1.32 1.32 0 0 1 1.37 1.39zM194 297.26V285h2.24v12.29zM199.64 295a5.87 5.87 0 0 0 2.94.89c1.63 0 2.39-.82 2.39-1.83s-.63-1.65-2.28-2.26c-2.21-.79-3.25-2-3.25-3.48 0-2 1.6-3.6 4.24-3.6a6.11 6.11 0 0 1 3 .76l-.56 1.62a4.81 4.81 0 0 0-2.51-.71c-1.33 0-2.06.76-2.06 1.68s.73 1.47 2.33 2.08c2.14.81 3.23 1.88 3.23 3.71 0 2.15-1.68 3.68-4.6 3.68a7 7 0 0 1-3.45-.84zM212.69 281.45V285h3.2v1.71h-3.2v6.62c0 1.53.43 2.39 1.67 2.39a5.29 5.29 0 0 0 1.3-.15l.1 1.67a5.41 5.41 0 0 1-2 .31 3.09 3.09 0 0 1-2.41-.94 4.52 4.52 0 0 1-.87-3.2v-6.7h-1.9V285h1.9v-3zM218.4 288.81c0-1.45 0-2.69-.1-3.84h1.95l.08 2.42h.1a3.69 3.69 0 0 1 3.4-2.69 2.46 2.46 0 0 1 .64.07v2.11a3.41 3.41 0 0 0-.76-.08 3.14 3.14 0 0 0-3 2.87 6.44 6.44 0 0 0-.1 1v6.55h-2.21zM229.29 281.52a1.31 1.31 0 0 1-1.42 1.37 1.33 1.33 0 0 1-1.35-1.37 1.36 1.36 0 0 1 1.4-1.39 1.32 1.32 0 0 1 1.37 1.39zm-2.49 15.74V285h2.2v12.29zM232.64 297.26c.05-.83.1-2.08.1-3.17v-14.85H235V287a4.57 4.57 0 0 1 4.19-2.26c3.05 0 5.21 2.53 5.18 6.27 0 4.39-2.76 6.57-5.51 6.57a4.37 4.37 0 0 1-4.11-2.31h-.08l-.1 2zm2.31-4.92a4.17 4.17 0 0 0 .1.81 3.46 3.46 0 0 0 3.36 2.62c2.33 0 3.73-1.91 3.73-4.73 0-2.46-1.27-4.57-3.66-4.57a3.56 3.56 0 0 0-3.4 2.74 4.52 4.52 0 0 0-.13.92zM257.47 293.91c0 1.27 0 2.39.1 3.35h-2l-.12-2h-.05a4.63 4.63 0 0 1-4.07 2.28c-1.93 0-4.24-1.06-4.24-5.38V285h2.24v6.81c0 2.34.71 3.91 2.74 3.91a3.24 3.24 0 0 0 2.95-2 3.45 3.45 0 0 0 .2-1.14V285h2.23zM263.87 281.45V285h3.2v1.71h-3.2v6.62c0 1.53.43 2.39 1.68 2.39a5.27 5.27 0 0 0 1.29-.15l.1 1.67a5.37 5.37 0 0 1-2 .31 3.09 3.09 0 0 1-2.41-.94 4.57 4.57 0 0 1-.86-3.2v-6.7h-1.91V285h1.91v-3zM272.07 281.52a1.31 1.31 0 0 1-1.42 1.37 1.33 1.33 0 0 1-1.35-1.37 1.36 1.36 0 0 1 1.4-1.39 1.32 1.32 0 0 1 1.37 1.39zm-2.49 15.74V285h2.24v12.29zM286.64 291c0 4.54-3.14 6.52-6.12 6.52-3.32 0-5.89-2.43-5.89-6.32 0-4.11 2.7-6.52 6.1-6.52s5.91 2.58 5.91 6.32zm-9.75.12c0 2.7 1.55 4.73 3.74 4.73s3.73-2 3.73-4.78c0-2.08-1-4.72-3.68-4.72s-3.79 2.46-3.79 4.79zM289.46 288.3c0-1.27 0-2.31-.1-3.33h2l.13 2a4.51 4.51 0 0 1 4.06-2.31c1.7 0 4.34 1 4.34 5.23v7.33h-2.23v-7.08c0-2-.74-3.63-2.85-3.63a3.17 3.17 0 0 0-3 2.28 3.28 3.28 0 0 0-.15 1.05v7.38h-2.24zM89.18 345.14c-.13-2.39-.28-5.26-.26-7.39h-.07c-.59 2-1.3 4.14-2.16 6.5l-3 8.3H82l-2.77-8.15c-.81-2.41-1.5-4.62-2-6.65 0 2.13-.18 5-.33 7.56l-.46 7.34H74.3l1.19-17.11h2.82l2.92 8.28c.71 2.1 1.29 4 1.73 5.76H83c.43-1.73 1-3.61 1.8-5.76l3-8.28h2.9l1.07 17.11h-2.16zM102.05 352.65l-.18-1.55h-.08a4.54 4.54 0 0 1-3.79 1.83 3.5 3.5 0 0 1-3.76-3.53c0-3 2.64-4.59 7.39-4.57v-.25a2.54 2.54 0 0 0-2.8-2.85 6.14 6.14 0 0 0-3.2.92l-.5-1.48a7.58 7.58 0 0 1 4-1.09c3.76 0 4.68 2.57 4.68 5v4.6a17.57 17.57 0 0 0 .2 2.94zm-.33-6.27c-2.44-.05-5.21.38-5.21 2.77a2 2 0 0 0 2.11 2.13 3.06 3.06 0 0 0 3-2.06 2.17 2.17 0 0 0 .13-.71zM110 336.91a1.39 1.39 0 0 1-2.77 0 1.36 1.36 0 0 1 1.4-1.4 1.33 1.33 0 0 1 1.37 1.4zm-2.49 15.74v-12.29h2.23v12.29zM113.42 343.69c0-1.27 0-2.31-.1-3.33h2l.13 2a4.53 4.53 0 0 1 4.06-2.31c1.7 0 4.34 1 4.34 5.23v7.34h-2.23v-7.08c0-2-.74-3.63-2.85-3.63a3.17 3.17 0 0 0-3 2.28 3.25 3.25 0 0 0-.16 1v7.39h-2.23zM130.1 336.83v3.53h3.2v1.7h-3.2v6.63c0 1.52.43 2.39 1.68 2.39a4.73 4.73 0 0 0 1.29-.16l.1 1.68a5.37 5.37 0 0 1-2 .31 3.09 3.09 0 0 1-2.41-.94 4.59 4.59 0 0 1-.86-3.2v-6.71H126v-1.7h1.91v-2.94zM136.9 346.91c.06 3 2 4.27 4.22 4.27a8 8 0 0 0 3.4-.64l.38 1.6a9.82 9.82 0 0 1-4.09.77c-3.78 0-6-2.49-6-6.2s2.19-6.63 5.77-6.63c4 0 5.07 3.53 5.07 5.79a10 10 0 0 1-.07 1zm6.56-1.6c0-1.42-.59-3.63-3.1-3.63-2.26 0-3.25 2.08-3.43 3.63zM148.38 343.69c0-1.27 0-2.31-.1-3.33h2l.13 2h.05a4.53 4.53 0 0 1 4.06-2.31c1.7 0 4.34 1 4.34 5.23v7.34h-2.23v-7.08c0-2-.74-3.63-2.85-3.63a3.17 3.17 0 0 0-3 2.28 3.25 3.25 0 0 0-.16 1v7.39h-2.23zM169.28 352.65l-.18-1.55h-.1a4.55 4.55 0 0 1-3.76 1.83 3.5 3.5 0 0 1-3.75-3.53c0-3 2.64-4.59 7.38-4.57v-.25a2.53 2.53 0 0 0-2.79-2.85 6.14 6.14 0 0 0-3.2.92l-.51-1.48a7.65 7.65 0 0 1 4-1.09c3.76 0 4.67 2.57 4.67 5v4.6a16.51 16.51 0 0 0 .21 2.94zm-.33-6.27c-2.44-.05-5.21.38-5.21 2.77a2 2 0 0 0 2.11 2.13 3.06 3.06 0 0 0 3-2.06 2.47 2.47 0 0 0 .13-.71zM174.71 343.69c0-1.27 0-2.31-.1-3.33h2l.12 2a4.55 4.55 0 0 1 4.07-2.31c1.7 0 4.34 1 4.34 5.23v7.34h-2.24v-7.08c0-2-.73-3.63-2.84-3.63a3.19 3.19 0 0 0-3 2.28 3.26 3.26 0 0 0-.15 1v7.39h-2.23zM197.56 352.19a8.15 8.15 0 0 1-3.53.72c-3.71 0-6.12-2.52-6.12-6.28a6.24 6.24 0 0 1 6.6-6.52 7.57 7.57 0 0 1 3.1.63l-.51 1.73a5.23 5.23 0 0 0-2.59-.58c-2.82 0-4.34 2.08-4.34 4.64 0 2.85 1.83 4.6 4.27 4.6a6.34 6.34 0 0 0 2.74-.61zM201.26 346.91c.06 3 2 4.27 4.22 4.27a8 8 0 0 0 3.4-.64l.38 1.6a9.82 9.82 0 0 1-4.09.77c-3.78 0-6-2.49-6-6.2s2.19-6.63 5.77-6.63c4 0 5.07 3.53 5.07 5.79a10 10 0 0 1-.07 1zm6.56-1.6c0-1.42-.59-3.63-3.1-3.63-2.26 0-3.25 2.08-3.43 3.63zM211 355.77a36.25 36.25 0 0 0 1.52-6.06l2.49-.26a30.66 30.66 0 0 1-2.41 6.17zM223.07 344.2c0-1.45 0-2.7-.1-3.84h2l.07 2.41h.1a3.69 3.69 0 0 1 3.41-2.69 2.41 2.41 0 0 1 .63.08v2.11a3.41 3.41 0 0 0-.76-.08 3.13 3.13 0 0 0-3 2.87 6.33 6.33 0 0 0-.1 1v6.55h-2.21zM232.37 346.91c0 3 2 4.27 4.21 4.27a8 8 0 0 0 3.4-.64l.38 1.6a9.8 9.8 0 0 1-4.08.77c-3.79 0-6.05-2.49-6.05-6.2s2.19-6.63 5.77-6.63c4 0 5.07 3.53 5.07 5.79a10 10 0 0 1-.07 1zm6.55-1.6c0-1.42-.59-3.63-3.1-3.63-2.26 0-3.25 2.08-3.43 3.63zM243.84 344.37c0-1.57-.05-2.84-.1-4h2l.1 2.11h.05a4.82 4.82 0 0 1 4.36-2.39c3 0 5.21 2.52 5.21 6.25 0 4.42-2.69 6.6-5.59 6.6a4.31 4.31 0 0 1-3.77-1.94v6.68h-2.21zm2.21 3.28a5.07 5.07 0 0 0 .1.91 3.45 3.45 0 0 0 3.35 2.62c2.36 0 3.74-1.93 3.74-4.75 0-2.46-1.3-4.57-3.66-4.57a3.57 3.57 0 0 0-3.38 2.77 3.93 3.93 0 0 0-.15.91zM265.09 352.65l-.18-1.55h-.07a4.58 4.58 0 0 1-3.76 1.83 3.5 3.5 0 0 1-3.76-3.53c0-3 2.64-4.59 7.39-4.57v-.25a2.54 2.54 0 0 0-2.79-2.85 6.09 6.09 0 0 0-3.2.92l-.51-1.48a7.65 7.65 0 0 1 4-1.09c3.75 0 4.67 2.57 4.67 5v4.6a17.57 17.57 0 0 0 .2 2.94zm-.33-6.27c-2.44-.05-5.2.38-5.2 2.77a2 2 0 0 0 2.1 2.13 3.05 3.05 0 0 0 3-2.06 2.17 2.17 0 0 0 .13-.71zM273 336.91a1.31 1.31 0 0 1-1.42 1.37 1.33 1.33 0 0 1-1.35-1.37 1.37 1.37 0 0 1 1.4-1.4 1.33 1.33 0 0 1 1.37 1.4zm-2.49 15.74v-12.29h2.24v12.29zM276.46 344.2c0-1.45 0-2.7-.1-3.84h2l.07 2.41h.11a3.67 3.67 0 0 1 3.4-2.69 2.41 2.41 0 0 1 .63.08v2.11a3.34 3.34 0 0 0-.76-.08 3.14 3.14 0 0 0-3 2.87 6.33 6.33 0 0 0-.1 1v6.55h-2.21zM297 352.65l-.18-1.55h-.07a4.58 4.58 0 0 1-3.76 1.83 3.5 3.5 0 0 1-3.76-3.53c0-3 2.64-4.59 7.39-4.57v-.25a2.54 2.54 0 0 0-2.79-2.85 6.11 6.11 0 0 0-3.2.92l-.51-1.48a7.65 7.65 0 0 1 4-1.09c3.76 0 4.67 2.57 4.67 5v4.6a17.57 17.57 0 0 0 .2 2.94zm-.33-6.27c-2.44-.05-5.2.38-5.2 2.77a2 2 0 0 0 2.1 2.13 3.08 3.08 0 0 0 3-2.06 2.46 2.46 0 0 0 .12-.71zM302.38 343.69c0-1.27 0-2.31-.1-3.33h2l.13 2h.05a4.53 4.53 0 0 1 4.06-2.31c1.71 0 4.35 1 4.35 5.23v7.34h-2.24v-7.08c0-2-.73-3.63-2.84-3.63a3.17 3.17 0 0 0-3 2.28 3.26 3.26 0 0 0-.15 1v7.39h-2.24zM327.09 334.62v14.86c0 1.09 0 2.33.1 3.17h-2l-.1-2.13H325a4.54 4.54 0 0 1-4.19 2.41c-3 0-5.25-2.51-5.25-6.25 0-4.08 2.51-6.6 5.51-6.6a4.09 4.09 0 0 1 3.7 1.88h.05v-7.34zm-2.24 10.74a3.76 3.76 0 0 0-.1-.94 3.29 3.29 0 0 0-3.22-2.59c-2.31 0-3.68 2-3.68 4.75 0 2.49 1.22 4.55 3.63 4.55a3.35 3.35 0 0 0 3.27-2.67 3.68 3.68 0 0 0 .1-1zM85.8 371.79c0 4.55-3.15 6.53-6.12 6.53-3.33 0-5.89-2.44-5.89-6.32 0-4.12 2.69-6.53 6.09-6.53s5.92 2.53 5.92 6.32zm-9.75.13c0 2.69 1.55 4.72 3.73 4.72s3.73-2 3.73-4.77c0-2.08-1-4.72-3.68-4.72s-3.78 2.43-3.78 4.77zM89.3 365.75l2.41 6.91a28.92 28.92 0 0 1 1 3.15h.08c.28-1 .64-2 1-3.15l2.39-6.91h2.33L93.72 378h-2.13l-4.67-12.29zM101.64 372.3c0 3 2 4.27 4.22 4.27a8 8 0 0 0 3.4-.64l.38 1.6a9.89 9.89 0 0 1-4.09.76c-3.78 0-6-2.48-6-6.19s2.18-6.63 5.76-6.63c4 0 5.08 3.53 5.08 5.79a7.43 7.43 0 0 1-.08 1zm6.55-1.6c0-1.42-.58-3.63-3.1-3.63-2.26 0-3.25 2.08-3.42 3.63zM113.12 369.58c0-1.44 0-2.69-.11-3.83h2l.08 2.41h.1a3.68 3.68 0 0 1 3.4-2.69 2.41 2.41 0 0 1 .63.08v2.11a2.81 2.81 0 0 0-.76-.08 3.13 3.13 0 0 0-3 2.87 6.33 6.33 0 0 0-.1 1V378h-2.21zM121.52 360h2.23v7.67a4.23 4.23 0 0 1 1.6-1.57 4.62 4.62 0 0 1 2.29-.64c1.65 0 4.29 1 4.29 5.26V378h-2.23v-7c0-2-.74-3.65-2.85-3.65a3.2 3.2 0 0 0-3 2.23 2.62 2.62 0 0 0-.16 1.07V378h-2.23zM142.42 378l-.18-1.55h-.08a4.55 4.55 0 0 1-3.76 1.83 3.5 3.5 0 0 1-3.75-3.53c0-3 2.64-4.6 7.38-4.57V370a2.54 2.54 0 0 0-2.79-2.85 6.14 6.14 0 0 0-3.2.92l-.51-1.48a7.65 7.65 0 0 1 4-1.09c3.76 0 4.67 2.57 4.67 5v4.59a16.55 16.55 0 0 0 .21 3zm-.34-6.27c-2.43 0-5.2.38-5.2 2.77a2 2 0 0 0 2.11 2.13 3.06 3.06 0 0 0 3-2.06 2.52 2.52 0 0 0 .12-.71zM158.13 374.69c0 1.27 0 2.39.1 3.35h-2l-.12-2h-.06a4.61 4.61 0 0 1-4.06 2.29c-1.93 0-4.24-1.07-4.24-5.38v-7.19H150v6.81c0 2.33.71 3.91 2.74 3.91a3.22 3.22 0 0 0 2.94-2 3.17 3.17 0 0 0 .21-1.14v-7.54h2.23zM161.84 360h2.23v18h-2.23z"/><circle class="cls-5" cx="51.4" cy="235.04" r="4.5"/><circle class="cls-5" cx="51.4" cy="290.35" r="4.5"/><circle class="cls-5" cx="51.4" cy="345.66" r="4.5"/><path stroke="#a8d7cd" stroke-width="3" stroke-miterlimit="10" fill="none" d="M19.1 171.03l369.77-.07"/><path class="cls-4" d="M475.09 97.14L472.91 96l-5.12 8.69 4 2.3-9.91 5.66v-11.2l3.71 2 5.14-8.7-2.15-1.26.56-1c3.06-5.19 6.12-10.4 9.2-15.58a1.32 1.32 0 0 0 0-1.6 9.18 9.18 0 0 1 .4-10.38A9.79 9.79 0 0 1 489 61.3a9.42 9.42 0 0 1 7.15 7.8 6.94 6.94 0 0 1 .06 2.27 2.06 2.06 0 0 0 .75 2.15c4.88 4.54 9.72 9.14 14.6 13.69a2.91 2.91 0 0 0 1.53.72 13.08 13.08 0 0 1 11.89 13.37 12.27 12.27 0 0 1-4.36 9.16 1.37 1.37 0 0 0-.44 1.69q4.27 13.92 8.48 27.85c.1.31.19.63.3 1h-34.89l.34-1.13q4.44-13.92 8.9-27.83a1.29 1.29 0 0 0-.44-1.59 12.53 12.53 0 0 1-3.73-13.57 1.62 1.62 0 0 0-.23-1.55q-5.12-7.41-10.16-14.87c-.35-.53-.7-.85-1.35-.62a.2.2 0 0 1-.1 0c-1.8-.43-2.48.72-3.25 2.06-2.73 4.78-5.56 9.5-8.36 14.24-.18.35-.38.65-.6 1zm50.53 41.48c-2.66-8.75-5.29-17.4-7.85-25.8a38.17 38.17 0 0 1-6.08.92 37.8 37.8 0 0 1-6-.94c-2.7 8.43-5.46 17.09-8.25 25.82zM501 101a10.76 10.76 0 1 0 10.49-10.68A10.68 10.68 0 0 0 501 101zm-5.86-25.84a25.53 25.53 0 0 1-2 2.21 25.49 25.49 0 0 1-2.35 1.73l9.93 14.54a13.78 13.78 0 0 1 8.21-5.48zm-1.37-4.7a7.14 7.14 0 1 0-7.16 7 7.07 7.07 0 0 0 7.13-7zm-13.19 7.6c-2.88 4.9-5.7 9.68-8.56 14.53l2.22 1.25 8.56-14.52z"/><path class="cls-4" d="M518.38 100.92a6.66 6.66 0 1 1-6.6-6.57 6.64 6.64 0 0 1 6.6 6.57zm-10.81-.06a4.16 4.16 0 1 0 4.13-4.06 4.13 4.13 0 0 0-4.13 4.06zM486.65 65.56a4.91 4.91 0 1 1-5.07 4.91 5 5 0 0 1 5.07-4.91zm2.54 4.92a2.5 2.5 0 0 0-2.58-2.54 2.56 2.56 0 0 0-2.61 2.55 2.6 2.6 0 0 0 2.56 2.5 2.55 2.55 0 0 0 2.63-2.51zM906.34 134.76h26v2.54h-28.6V136 74a1.36 1.36 0 0 0-.93-1.53 5.11 5.11 0 0 1-2.92-5.59 5.2 5.2 0 0 1 4.36-4.27 5.07 5.07 0 0 1 5.41 2.77 1.33 1.33 0 0 0 1.48.88h27.72a2.1 2.1 0 0 1 1.63.68q6.59 6.63 13.21 13.22a2 2 0 0 1 .66 1.55v16.9h4.74l-6 10.46-6-10.4h4.66v-.89-15.11a2 2 0 0 0-.51-1.22q-6-6.08-12.07-12.08a2 2 0 0 0-1.23-.51h-26.91a.93.93 0 0 0-1.07.74 4.6 4.6 0 0 1-2.85 3c-.67.25-.79.61-.79 1.25v60.98zm-1.28-64.39a2.62 2.62 0 1 0 0-5.24 2.62 2.62 0 1 0 0 5.24z"/><path class="cls-4" d="M942.48 121.52a1.58 1.58 0 0 0 1.88-.77 1.18 1.18 0 0 1 .31-.32 1.77 1.77 0 0 0 .86-2.18 1.14 1.14 0 0 1 .8-1.53c1.08-.41 2.14-.88 3.23-1.24a1 1 0 0 1 .94.29c.87 1.73 2.45 1.28 3.82 1.23.41 0 .85-.68 1.16-1.12a.94.94 0 0 1 1.29-.39c1.11.48 2.23 1 3.36 1.42.45.19.67.5.49 1-.66 1.84.92 2.57 1.86 3.55.26.27 1.08.09 1.63 0a.82.82 0 0 1 1 .54c.46 1.16.93 2.31 1.4 3.47a.78.78 0 0 1-.37 1.12c-1.61.81-1.19 2.31-1.09 3.6 0 .42.69.83 1.13 1.16a.82.82 0 0 1 .35 1.07c-.47 1.15-1 2.3-1.4 3.46a.84.84 0 0 1-1.11.57c-.52-.09-1.2-.25-1.57 0a6.7 6.7 0 0 0-1.88 1.87c-.25.36-.09 1.05 0 1.56A.9.9 0 0 1 960 141l-3.29 1.37c-.5.21-.93.17-1.19-.37-.83-1.72-2.42-1.14-3.75-1.14-.39 0-.83.7-1.15 1.15a.9.9 0 0 1-1.21.37c-1-.44-2.08-.88-3.14-1.27a1.16 1.16 0 0 1-.77-1.47c.07-.46.23-1.07 0-1.38a7.26 7.26 0 0 0-1.89-1.86c-.4-.25-1.11-.07-1.66 0a.75.75 0 0 1-1-.5c-.47-1.19-.94-2.37-1.44-3.55a.71.71 0 0 1 .34-1c1.64-.84 1.18-2.36 1.1-3.68 0-.39-.67-.78-1.08-1.1a.84.84 0 0 1-.35-1.13c.41-1 .76-2 1.15-3 .33-.81.83-1.34 1.81-.92zm6.87-3.19c-1 .08-1.3.54-1.08 1.34a1.37 1.37 0 0 1-.7 1.77 5.35 5.35 0 0 0-1.73 1.65 2.12 2.12 0 0 1-2.49 1.13c-.56-.13-1.1.62-.83 1a1.84 1.84 0 0 0 .6.54 1.43 1.43 0 0 1 .69 1.79 4.9 4.9 0 0 0-.06 2.12 2.17 2.17 0 0 1-1 2.7.75.75 0 0 0-.16.73c.1.24.48.57.65.52 1.38-.41 2.13.34 2.78 1.37a2.36 2.36 0 0 0 .61.65c1.22.84 2.33 1.71 1.53 3.35.78.71 1.29.51 1.72-.22a1.32 1.32 0 0 1 1.69-.7 4.24 4.24 0 0 0 1.94.1c1.45-.3 2.69-.22 3.29 1.32 1 0 1.25-.52 1.06-1.31a1.59 1.59 0 0 1 .84-1.9 7.12 7.12 0 0 0 1.82-1.81c.5-.72 1-1.1 1.88-.85s1.27-.17 1.29-1a7.33 7.33 0 0 0-.77-.63 1.37 1.37 0 0 1-.64-1.56 13.76 13.76 0 0 0 0-3.27 1 1 0 0 1 .39-1.06 4 4 0 0 0 .82-.69.82.82 0 0 0 .1-.68 1 1 0 0 0-.57-.53 2 2 0 0 0-1 0 1.08 1.08 0 0 1-1.25-.56 8 8 0 0 0-1.89-2 2 2 0 0 1-1-2.35c.16-.65-.25-.92-.74-.94-.25 0-.6.3-.78.56a1.54 1.54 0 0 1-1.91.78 3.76 3.76 0 0 0-1.85-.11c-1.46.42-2.6.31-3.25-1.25zM939 110.66h-27.06v-2.48H939zM911.91 117.62v-2.46H939v2.46zM939 80.24v2.44h-27.1v-2.44zM939 87.23v2.42h-27v-2.42zM939 94.2v2.43h-27.1V94.2zM911.91 103.6v-2.43H939v2.43zM911.91 124.54v-2.41h20.46v2.41z"/><path class="cls-4" d="M960.25 128.75a7.2 7.2 0 1 1-7.42-7 7.21 7.21 0 0 1 7.42 7zm-7.25 4.76a4.58 4.58 0 1 0-4.54-4.55 4.62 4.62 0 0 0 4.54 4.55zM94.87 101.58l-1.5-.6-.24-.24a7.21 7.21 0 0 1-.77 1.1q-6.8 6.64-13.61 13.25a.89.89 0 0 0-.27 1.2 6.09 6.09 0 0 1-2.12 7.71 6.55 6.55 0 0 1-8.18-.63 6.13 6.13 0 0 1-1-7.77 6.41 6.41 0 0 1 7.82-2.53 1.38 1.38 0 0 0 1.78-.37c4.51-4.44 9.06-8.85 13.59-13.27.28-.28.78-.49.42-1.08s-.38-1.17-1.34-1.16c-6.52.06-13 0-19.57 0a1.18 1.18 0 0 0-1.26.84 6.39 6.39 0 0 1-7.2 3.54 6.21 6.21 0 0 1 0-12.21 6.36 6.36 0 0 1 7.32 3.94 1.08 1.08 0 0 0 1.23.82h19.19c.48 0 1 .15 1.2-.6s.56-1.12-.17-1.81c-4.61-4.39-9.15-8.84-13.69-13.31a1.23 1.23 0 0 0-1.5-.32 6.41 6.41 0 0 1-7.93-2.75 6.14 6.14 0 0 1 1.48-7.83 6.54 6.54 0 0 1 8.2 0 6.14 6.14 0 0 1 1.59 7.74c-.06.11-.11.22-.26.55a5.47 5.47 0 0 1 .79.58q6.78 6.57 13.55 13.17c.33.32.59.76 1.19.38S95 89.58 95 88.44c-.13-1.7 0-3.42 0-5.26h-5.9l7.43-12.4 7.29 12.41H98.1v6.15l.07.06c1.72.75 1.72.75 3.08-.57q6.36-6.19 12.73-12.38a8.13 8.13 0 0 1 .82-.63 6.73 6.73 0 0 1-.81-4.48 6.41 6.41 0 0 1 8-4.91 6.26 6.26 0 0 1 4.46 7.95 6.4 6.4 0 0 1-8.45 3.88 1.42 1.42 0 0 0-1.84.43q-6.67 6.54-13.4 13c-.37.36-.75.64-.38 1.27s.35 1.15 1.32 1.14c6.36-.06 12.73 0 19.09 0a1.18 1.18 0 0 0 1.31-.88 6.4 6.4 0 0 1 7.2-3.72 6.22 6.22 0 0 1 0 12.24A6.4 6.4 0 0 1 124 98a1.07 1.07 0 0 0-1.17-.8h-19.38c-1 0-1 .63-1.33 1.17s.15.8.43 1.08c4.56 4.44 9.13 8.87 13.66 13.33a1.24 1.24 0 0 0 1.62.33 6.41 6.41 0 0 1 8.5 3.75 6.39 6.39 0 0 1-10.91 6.09 5.81 5.81 0 0 1-1-6.66.83.83 0 0 0-.21-1.13q-7.1-6.87-14.15-13.79c-.62-.61-1-.07-1.52 0s-.56.47-.56.91v19.19a.88.88 0 0 0 .66 1 6.19 6.19 0 0 1 4 7.22 6.42 6.42 0 0 1-6.67 4.86 6.36 6.36 0 0 1-6-5.66 6.23 6.23 0 0 1 4.13-6.41c.44-.17.74-.3.74-.9v-19.57c.07-.15.04-.28.03-.43zm28.72-29.15a3.31 3.31 0 1 0-3.26 3.27 3.3 3.3 0 0 0 3.26-3.27zm0 46.43a3.31 3.31 0 0 0-6.61 0 3.31 3.31 0 0 0 6.61 0zM72.66 69.05A3.24 3.24 0 1 0 76 72.29a3.34 3.34 0 0 0-3.34-3.24zm-3.29 49.84a3.28 3.28 0 0 0 3.32 3.2 3.23 3.23 0 1 0-.06-6.46 3.27 3.27 0 0 0-3.26 3.26zm-6.62-20.22a3.19 3.19 0 1 0-3.28-3.16 3.23 3.23 0 0 0 3.28 3.16zm67.21.18a3.19 3.19 0 1 0 .07-6.37 3.19 3.19 0 1 0-.07 6.37zm-30.22-3.37a3.27 3.27 0 1 0-3.29 3.18 3.14 3.14 0 0 0 3.29-3.18zm-3.29 36a3.18 3.18 0 0 0 3.29-3.21 3.28 3.28 0 0 0-6.56 0 3.18 3.18 0 0 0 3.27 3.21z"/><path class="cls-4" d="M96.51 69.1a6.24 6.24 0 1 1 6.39-6.22 6.33 6.33 0 0 1-6.39 6.22zm-3.3-6.26a3.27 3.27 0 0 0 6.53.1 3.27 3.27 0 0 0-6.53-.1z"/></svg>