<svg id="Layer_1" data-name="Layer 1" xmlns="http://www.w3.org/2000/svg" viewBox="0 0 1652.87 408.97"><defs><style>.cls-1{fill:#92d1ff;}.cls-2,.cls-4,.cls-6{fill:none;}.cls-2{stroke:#0f9ffa;}.cls-2,.cls-6{stroke-miterlimit:10;stroke-width:2px;}.cls-3{fill:#061838;}.cls-4{stroke:#061838;stroke-miterlimit:10;stroke-width:3px;}.cls-5{fill:#bee3ff;}.cls-6{stroke:#92d1ff;}</style></defs><title>blockchain</title><polygon class="cls-1" points="415.13 0 415.13 408.96 823.1 408.96 823.1 0.09 415.13 0"/><line class="cls-2" x1="434.23" y1="170.99" x2="804" y2="172.13"/><path class="cls-3" d="M562.32,96.59A11.48,11.48,0,0,0,567.83,98c2.68,0,4.17-1.25,4.17-3.11s-1.15-2.74-4.06-3.79c-3.76-1.35-6.16-3.35-6.16-6.63,0-3.73,3.11-6.57,8.05-6.57a12,12,0,0,1,5.48,1.15l-1,3.35a9.65,9.65,0,0,0-4.54-1.08c-2.64,0-3.79,1.42-3.79,2.74,0,1.76,1.32,2.57,4.37,3.76,4,1.49,5.89,3.48,5.89,6.77,0,3.65-2.78,6.83-8.67,6.83A13.52,13.52,0,0,1,561.4,100Z"/><path class="cls-3" d="M583,94.05c.1,3,2.43,4.27,5.07,4.27a12.45,12.45,0,0,0,4.57-.75l.61,2.88a15.61,15.61,0,0,1-5.75,1c-5.35,0-8.5-3.28-8.5-8.32,0-4.57,2.78-8.87,8.06-8.87s7.11,4.4,7.11,8a9.88,9.88,0,0,1-.14,1.76Zm7.24-2.91c0-1.52-.64-4-3.42-4-2.57,0-3.65,2.34-3.82,4Z"/><path class="cls-3" d="M597.49,90c0-2.24,0-3.83-.14-5.32H601l.13,3.15h.14a4.91,4.91,0,0,1,4.5-3.52,4.28,4.28,0,0,1,1,.1V88.3a5.62,5.62,0,0,0-1.22-.14,3.67,3.67,0,0,0-3.72,3.15,6.88,6.88,0,0,0-.14,1.29v8.52h-4.16Z"/><path class="cls-3" d="M612.92,84.64,615.6,93c.47,1.46.81,2.78,1.11,4.13h.11c.3-1.35.67-2.64,1.11-4.13l2.61-8.36h4.4l-6.3,16.48h-4.09l-6.13-16.48Z"/><path class="cls-3" d="M631.91,80a2.34,2.34,0,0,1-4.67,0,2.34,2.34,0,0,1,4.67,0Zm-4.43,21.08V84.64h4.2v16.48Z"/><path class="cls-3" d="M648.26,100.62a12.16,12.16,0,0,1-4.67.84c-5.14,0-8.49-3.28-8.49-8.39,0-4.94,3.38-8.8,9.17-8.8a10.42,10.42,0,0,1,4,.78l-.75,3.11a7.43,7.43,0,0,0-3.15-.64c-3.18,0-5.07,2.33-5,5.35,0,3.38,2.2,5.31,5,5.31a8.17,8.17,0,0,0,3.29-.64Z"/><path class="cls-3" d="M654,94.05c.1,3,2.43,4.27,5.07,4.27a12.45,12.45,0,0,0,4.57-.75l.61,2.88a15.61,15.61,0,0,1-5.75,1c-5.35,0-8.5-3.28-8.5-8.32,0-4.57,2.78-8.87,8.06-8.87s7.1,4.4,7.1,8a10.09,10.09,0,0,1-.13,1.76Zm7.24-2.91c0-1.52-.65-4-3.42-4-2.57,0-3.66,2.34-3.82,4Z"/><path class="cls-3" d="M668.31,97.3a9.2,9.2,0,0,0,4.23,1.18c1.82,0,2.64-.74,2.64-1.82s-.68-1.69-2.71-2.41c-3.22-1.11-4.57-2.87-4.54-4.8,0-2.91,2.41-5.18,6.23-5.18a9.67,9.67,0,0,1,4.37,1l-.82,3a7.34,7.34,0,0,0-3.48-1c-1.49,0-2.3.71-2.3,1.72s.78,1.56,2.87,2.31c3,1.08,4.37,2.6,4.4,5,0,3-2.33,5.14-6.7,5.14a10.6,10.6,0,0,1-5-1.15Z"/><path class="cls-3" d="M488.14,204.93a25.46,25.46,0,0,1,4.24-.33,7,7,0,0,1,4.8,1.42,4.6,4.6,0,0,1,1.5,3.58,5.06,5.06,0,0,1-1.32,3.66,7.11,7.11,0,0,1-5.23,1.88,7.45,7.45,0,0,1-1.78-.16v6.86h-2.21Zm2.21,8.25a7.34,7.34,0,0,0,1.83.18c2.67,0,4.29-1.3,4.29-3.66s-1.6-3.35-4-3.35a9.37,9.37,0,0,0-2.09.18Z"/><path class="cls-3" d="M501.17,213.39c0-1.45,0-2.7-.1-3.84H503l.08,2.41h.1a3.68,3.68,0,0,1,3.4-2.69,2.49,2.49,0,0,1,.64.08v2.11a2.91,2.91,0,0,0-.76-.08,3.13,3.13,0,0,0-3,2.87,6.33,6.33,0,0,0-.1,1v6.55h-2.21Z"/><path class="cls-3" d="M520.34,215.59c0,4.55-3.15,6.53-6.12,6.53-3.33,0-5.89-2.44-5.89-6.32,0-4.12,2.69-6.53,6.09-6.53S520.34,211.84,520.34,215.59Zm-9.75.13c0,2.69,1.55,4.72,3.73,4.72s3.73-2,3.73-4.77c0-2.08-1-4.72-3.68-4.72S510.59,213.39,510.59,215.72Z"/><path class="cls-3" d="M525.85,206v3.53h3.2v1.7h-3.2v6.63c0,1.52.43,2.39,1.67,2.39a4.76,4.76,0,0,0,1.3-.16l.1,1.68a5.44,5.44,0,0,1-2,.3,3.09,3.09,0,0,1-2.41-.94,4.51,4.51,0,0,1-.87-3.19v-6.71h-1.9v-1.7h1.9v-2.94Z"/><path class="cls-3" d="M542.53,215.59c0,4.55-3.15,6.53-6.12,6.53-3.33,0-5.89-2.44-5.89-6.32,0-4.12,2.69-6.53,6.09-6.53S542.53,211.84,542.53,215.59Zm-9.75.13c0,2.69,1.55,4.72,3.73,4.72s3.73-2,3.73-4.77c0-2.08-1-4.72-3.68-4.72S532.78,213.39,532.78,215.72Z"/><path class="cls-3" d="M548,206v3.53h3.2v1.7H548v6.63c0,1.52.43,2.39,1.67,2.39a4.76,4.76,0,0,0,1.3-.16l.1,1.68a5.44,5.44,0,0,1-2,.3,3.09,3.09,0,0,1-2.41-.94,4.51,4.51,0,0,1-.87-3.19v-6.71H544v-1.7h1.9v-2.94Z"/><path class="cls-3" d="M554.79,209.55l2.69,7.26c.28.82.58,1.78.79,2.52h.05c.23-.74.48-1.68.79-2.57l2.43-7.21h2.36l-3.35,8.76c-1.6,4.22-2.69,6.37-4.21,7.69a6,6,0,0,1-2.74,1.45l-.56-1.88a5.88,5.88,0,0,0,2-1.09,6.72,6.72,0,0,0,1.88-2.49,1.63,1.63,0,0,0,.18-.53,1.87,1.87,0,0,0-.15-.58l-4.55-11.33Z"/><path class="cls-3" d="M565.93,213.56c0-1.57,0-2.84-.1-4h2l.1,2.11h0a4.84,4.84,0,0,1,4.37-2.39c3,0,5.2,2.52,5.2,6.25,0,4.42-2.69,6.6-5.58,6.6a4.32,4.32,0,0,1-3.79-1.93h-.05v6.68h-2.21Zm2.21,3.28a4.28,4.28,0,0,0,.11.91,3.44,3.44,0,0,0,3.35,2.62c2.36,0,3.73-1.93,3.73-4.75,0-2.46-1.3-4.57-3.66-4.57a3.56,3.56,0,0,0-3.37,2.77,3.47,3.47,0,0,0-.16.91Z"/><path class="cls-3" d="M582.87,206.1a1.39,1.39,0,0,1-2.77,0,1.36,1.36,0,0,1,1.4-1.4A1.33,1.33,0,0,1,582.87,206.1Zm-2.49,15.74V209.55h2.23v12.29Z"/><path class="cls-3" d="M586.32,212.88c0-1.27,0-2.31-.1-3.33h2l.13,2h0a4.51,4.51,0,0,1,4.06-2.31c1.7,0,4.34,1,4.34,5.23v7.34h-2.23v-7.08c0-2-.74-3.63-2.85-3.63a3.17,3.17,0,0,0-3,2.28,3.25,3.25,0,0,0-.16,1v7.39h-2.23Z"/><path class="cls-3" d="M611,209.55c0,.89-.1,1.88-.1,3.38v7.13c0,2.82-.56,4.55-1.75,5.61a6.52,6.52,0,0,1-4.47,1.48,7.92,7.92,0,0,1-4.09-1l.56-1.7a6.89,6.89,0,0,0,3.6,1c2.29,0,4-1.19,4-4.29v-1.37h-.05a4.36,4.36,0,0,1-3.91,2.06c-3,0-5.23-2.59-5.23-6,0-4.17,2.72-6.53,5.54-6.53a4.09,4.09,0,0,1,3.83,2.13h.05l.1-1.85Zm-2.31,4.85a3.17,3.17,0,0,0-.13-1,3.22,3.22,0,0,0-3.12-2.37c-2.13,0-3.66,1.81-3.66,4.65,0,2.41,1.22,4.42,3.63,4.42a3.27,3.27,0,0,0,3.1-2.29,3.78,3.78,0,0,0,.18-1.19Z"/><path class="cls-3" d="M491.39,262h-5.2v-1.87h12.67V262h-5.23v15.24h-2.24Z"/><path class="cls-3" d="M500.13,271.49c.05,3,2,4.27,4.21,4.27a8,8,0,0,0,3.41-.64l.38,1.6a9.93,9.93,0,0,1-4.09.76c-3.79,0-6-2.49-6-6.19s2.18-6.63,5.76-6.63c4,0,5.08,3.53,5.08,5.79a7.43,7.43,0,0,1-.08,1Zm6.55-1.6c0-1.42-.59-3.63-3.1-3.63-2.26,0-3.25,2.08-3.43,3.63Z"/><path class="cls-3" d="M511.3,274.94a5.78,5.78,0,0,0,2.94.89c1.63,0,2.39-.81,2.39-1.83s-.63-1.65-2.28-2.26c-2.21-.78-3.25-2-3.25-3.47,0-2,1.6-3.61,4.24-3.61a6.22,6.22,0,0,1,3,.76l-.56,1.63a4.72,4.72,0,0,0-2.51-.71c-1.33,0-2.06.76-2.06,1.67s.73,1.47,2.33,2.08c2.14.82,3.23,1.88,3.23,3.71,0,2.16-1.68,3.68-4.6,3.68a7,7,0,0,1-3.45-.84Z"/><path class="cls-3" d="M524.35,261.41v3.53h3.2v1.7h-3.2v6.63c0,1.52.43,2.38,1.67,2.38a4.84,4.84,0,0,0,1.3-.15l.1,1.68a5.44,5.44,0,0,1-2,.3,3.09,3.09,0,0,1-2.41-.94,4.52,4.52,0,0,1-.87-3.2v-6.7h-1.9v-1.7h1.9V262Z"/><path class="cls-3" d="M532.55,261.49a1.39,1.39,0,0,1-2.77,0,1.37,1.37,0,0,1,1.4-1.4A1.33,1.33,0,0,1,532.55,261.49Zm-2.49,15.74V264.94h2.23v12.29Z"/><path class="cls-3" d="M536,268.27c0-1.27,0-2.31-.1-3.33h2l.13,2h0a4.51,4.51,0,0,1,4.06-2.31c1.7,0,4.34,1,4.34,5.23v7.34h-2.23v-7.09c0-2-.74-3.63-2.85-3.63a3.18,3.18,0,0,0-3,2.29,3.26,3.26,0,0,0-.15,1v7.39H536Z"/><path class="cls-3" d="M560.68,264.94c0,.89-.1,1.88-.1,3.38v7.13c0,2.82-.56,4.55-1.75,5.61a6.52,6.52,0,0,1-4.47,1.48,7.92,7.92,0,0,1-4.09-1l.56-1.7a6.89,6.89,0,0,0,3.6,1c2.29,0,4-1.19,4-4.29v-1.37h0a4.38,4.38,0,0,1-3.91,2.06c-3,0-5.23-2.59-5.23-6,0-4.17,2.72-6.53,5.54-6.53a4.09,4.09,0,0,1,3.83,2.13h0l.1-1.85Zm-2.31,4.85a3.28,3.28,0,0,0-.13-1,3.22,3.22,0,0,0-3.12-2.36c-2.13,0-3.66,1.81-3.66,4.65,0,2.41,1.22,4.42,3.63,4.42a3.27,3.27,0,0,0,3.1-2.29,3.78,3.78,0,0,0,.18-1.19Z"/><path class="cls-3" d="M490.35,315.5v17.12h-2.21V315.5Z"/><path class="cls-3" d="M494.39,323.65c0-1.27,0-2.31-.1-3.32h2l.13,2h.05a4.51,4.51,0,0,1,4.06-2.31c1.7,0,4.34,1,4.34,5.23v7.34h-2.23v-7.09c0-2-.74-3.63-2.85-3.63a3.17,3.17,0,0,0-3,2.29,3,3,0,0,0-.16,1v7.39h-2.23Z"/><path class="cls-3" d="M511.07,316.8v3.53h3.2V322h-3.2v6.63c0,1.52.43,2.38,1.68,2.38a4.81,4.81,0,0,0,1.29-.15l.1,1.68a5.62,5.62,0,0,1-2,.3,3.09,3.09,0,0,1-2.41-.94,4.57,4.57,0,0,1-.86-3.2V322H507v-1.7h1.91v-2.95Z"/><path class="cls-3" d="M517.87,326.88a3.93,3.93,0,0,0,4.22,4.26,8,8,0,0,0,3.4-.63l.38,1.6a10.06,10.06,0,0,1-4.09.76c-3.78,0-6-2.49-6-6.19s2.18-6.63,5.76-6.63c4,0,5.08,3.53,5.08,5.79a10.18,10.18,0,0,1-.07,1Zm6.55-1.6c0-1.42-.58-3.63-3.09-3.63-2.26,0-3.25,2.08-3.43,3.63Z"/><path class="cls-3" d="M539.94,320.33c-.05.89-.1,1.88-.1,3.37v7.14c0,2.82-.56,4.54-1.76,5.61a6.49,6.49,0,0,1-4.46,1.47,7.92,7.92,0,0,1-4.09-1l.56-1.7a7,7,0,0,0,3.6,1c2.29,0,4-1.19,4-4.29v-1.37h0a4.38,4.38,0,0,1-3.91,2.06c-3.05,0-5.23-2.59-5.23-6,0-4.16,2.72-6.52,5.54-6.52a4.09,4.09,0,0,1,3.83,2.13h0l.1-1.85Zm-2.31,4.85a3.28,3.28,0,0,0-.13-1,3.23,3.23,0,0,0-3.12-2.36c-2.14,0-3.66,1.8-3.66,4.65,0,2.41,1.22,4.42,3.63,4.42a3.27,3.27,0,0,0,3.1-2.29,3.78,3.78,0,0,0,.18-1.19Z"/><path class="cls-3" d="M543.39,324.16c0-1.45,0-2.69-.1-3.83h2l.08,2.41h.1a3.68,3.68,0,0,1,3.4-2.69,2.51,2.51,0,0,1,.64.07v2.11a3.45,3.45,0,0,0-.76-.07,3.13,3.13,0,0,0-3,2.87,6.33,6.33,0,0,0-.1,1v6.55h-2.21Z"/><path class="cls-3" d="M558.37,332.62l-.18-1.55h-.08a4.57,4.57,0,0,1-3.75,1.83,3.51,3.51,0,0,1-3.76-3.53c0-3,2.64-4.6,7.39-4.57v-.26a2.54,2.54,0,0,0-2.8-2.84,6.07,6.07,0,0,0-3.19.91l-.51-1.47a7.61,7.61,0,0,1,4-1.09c3.76,0,4.68,2.56,4.68,5v4.59a17.62,17.62,0,0,0,.2,2.95Zm-.33-6.27c-2.44-.06-5.21.38-5.21,2.76a2,2,0,0,0,2.11,2.14,3.05,3.05,0,0,0,3-2.06,2.22,2.22,0,0,0,.13-.71Z"/><path class="cls-3" d="M566.39,316.8v3.53h3.2V322h-3.2v6.63c0,1.52.43,2.38,1.68,2.38a4.81,4.81,0,0,0,1.29-.15l.1,1.68a5.62,5.62,0,0,1-2,.3,3.09,3.09,0,0,1-2.41-.94,4.57,4.57,0,0,1-.86-3.2V322H562.3v-1.7h1.91v-2.95Z"/><path class="cls-3" d="M574.59,316.87a1.32,1.32,0,0,1-1.42,1.38,1.33,1.33,0,0,1-1.35-1.38,1.36,1.36,0,0,1,1.4-1.39A1.32,1.32,0,0,1,574.59,316.87Zm-2.49,15.75V320.33h2.24v12.29Z"/><path class="cls-3" d="M589.16,326.37c0,4.55-3.14,6.53-6.12,6.53-3.32,0-5.89-2.44-5.89-6.33,0-4.11,2.7-6.52,6.1-6.52S589.16,322.61,589.16,326.37Zm-9.75.13c0,2.69,1.55,4.72,3.74,4.72s3.73-2,3.73-4.77c0-2.08-1-4.73-3.68-4.73S579.41,324.16,579.41,326.5Z"/><path class="cls-3" d="M592,323.65c0-1.27,0-2.31-.1-3.32h2l.13,2h0a4.51,4.51,0,0,1,4.06-2.31c1.7,0,4.34,1,4.34,5.23v7.34h-2.23v-7.09c0-2-.74-3.63-2.85-3.63a3.17,3.17,0,0,0-3,2.29,3.26,3.26,0,0,0-.15,1v7.39H592Z"/><circle class="cls-4" cx="459.48" cy="215" r="4.5"/><circle class="cls-4" cx="459.48" cy="270.31" r="4.5"/><circle class="cls-4" cx="459.48" cy="325.62" r="4.5"/><polygon class="cls-1" points="1245.39 0 1245.39 408.96 1653.36 408.96 1653.36 0.09 1245.39 0"/><line class="cls-2" x1="1264.49" y1="170.99" x2="1634.26" y2="172.13"/><path class="cls-3" d="M1327.93,208.26v16.32h-2.11V208.26Z"/><path class="cls-3" d="M1331.61,208.46a24.3,24.3,0,0,1,4-.32,6.71,6.71,0,0,1,4.58,1.36,4.36,4.36,0,0,1,1.43,3.41,4.83,4.83,0,0,1-1.26,3.49,6.74,6.74,0,0,1-5,1.79,7.26,7.26,0,0,1-1.69-.14v6.53h-2.11Zm2.11,7.87a7.1,7.1,0,0,0,1.74.17c2.54,0,4.09-1.24,4.09-3.49s-1.52-3.2-3.85-3.2a9.18,9.18,0,0,0-2,.17Z"/><path class="cls-3" d="M1349.63,208.48a21.69,21.69,0,0,1,4-.34c2.25,0,3.71.41,4.72,1.33a4.05,4.05,0,0,1,1.29,3.1,4.29,4.29,0,0,1-3.08,4.17v.07c1.26.44,2,1.6,2.4,3.29a25.23,25.23,0,0,0,1.26,4.48h-2.18a20.76,20.76,0,0,1-1.09-3.89c-.49-2.26-1.36-3.1-3.27-3.18h-2v7.07h-2.1Zm2.1,7.44h2.16c2.25,0,3.68-1.24,3.68-3.1,0-2.11-1.53-3-3.75-3.06a8.47,8.47,0,0,0-2.09.2Z"/><path class="cls-3" d="M1365.2,209.57a1.32,1.32,0,0,1-2.64,0,1.3,1.3,0,0,1,1.33-1.33A1.27,1.27,0,0,1,1365.2,209.57Zm-2.37,15V212.86H1365v11.72Z"/><path class="cls-3" d="M1378.59,212.86c0,.85-.1,1.8-.1,3.23v6.8c0,2.69-.53,4.33-1.67,5.35a6.19,6.19,0,0,1-4.26,1.41,7.59,7.59,0,0,1-3.9-1l.53-1.63a6.58,6.58,0,0,0,3.44.92c2.18,0,3.78-1.13,3.78-4.09v-1.31h-.05a4.18,4.18,0,0,1-3.73,2c-2.9,0-5-2.47-5-5.72,0-4,2.6-6.22,5.28-6.22a3.89,3.89,0,0,1,3.66,2h.05l.1-1.77Zm-2.2,4.63a3.26,3.26,0,0,0-.12-1,3.08,3.08,0,0,0-3-2.25c-2,0-3.49,1.72-3.49,4.43,0,2.3,1.16,4.21,3.46,4.21a3.12,3.12,0,0,0,3-2.18,3.69,3.69,0,0,0,.17-1.13Z"/><path class="cls-3" d="M1382,207.39h2.13v7.31h0a4,4,0,0,1,1.53-1.5,4.38,4.38,0,0,1,2.17-.6c1.58,0,4.1,1,4.1,5v7h-2.13v-6.73c0-1.89-.71-3.48-2.72-3.48a3,3,0,0,0-2.85,2.13,2.56,2.56,0,0,0-.15,1v7.07H1382Z"/><path class="cls-3" d="M1397.94,209.5v3.36h3v1.63h-3v6.32c0,1.45.41,2.27,1.6,2.27a4.8,4.8,0,0,0,1.23-.14l.1,1.6a5.18,5.18,0,0,1-1.89.29,3,3,0,0,1-2.3-.9,4.37,4.37,0,0,1-.82-3.05v-6.39H1394v-1.63h1.82v-2.8Z"/><path class="cls-3" d="M1403.1,222.41a5.59,5.59,0,0,0,2.81.84c1.55,0,2.28-.77,2.28-1.74s-.61-1.57-2.18-2.16c-2.11-.75-3.1-1.91-3.1-3.31,0-1.89,1.52-3.44,4-3.44a5.91,5.91,0,0,1,2.88.72l-.53,1.55a4.58,4.58,0,0,0-2.4-.67c-1.26,0-2,.72-2,1.59s.7,1.41,2.23,2c2,.78,3.07,1.79,3.07,3.54,0,2.05-1.59,3.51-4.38,3.51a6.72,6.72,0,0,1-3.29-.8Z"/><path class="cls-3" d="M1325.53,278.09a7.45,7.45,0,0,0,3.78,1.06c2.15,0,3.41-1.14,3.41-2.78s-.87-2.4-3.07-3.25c-2.67-.94-4.31-2.32-4.31-4.62,0-2.55,2.1-4.43,5.28-4.43a7.4,7.4,0,0,1,3.6.79l-.58,1.72a6.5,6.5,0,0,0-3.1-.77c-2.22,0-3.07,1.33-3.07,2.44,0,1.53,1,2.28,3.24,3.15,2.76,1.07,4.17,2.4,4.17,4.8s-1.87,4.7-5.72,4.7a8.43,8.43,0,0,1-4.16-1Z"/><path class="cls-3" d="M1337.69,272.1c0-1.21,0-2.2-.1-3.17h1.87l.09,1.89h.07a4.06,4.06,0,0,1,3.69-2.15,3.45,3.45,0,0,1,3.31,2.35h.05a4.76,4.76,0,0,1,1.31-1.53,4,4,0,0,1,2.59-.82c1.55,0,3.85,1,3.85,5.08v6.9h-2.08V274c0-2.25-.83-3.61-2.54-3.61a2.75,2.75,0,0,0-2.52,1.94,3.41,3.41,0,0,0-.17,1.06v7.24H1345v-7c0-1.86-.82-3.22-2.44-3.22a2.92,2.92,0,0,0-2.64,2.13,3,3,0,0,0-.17,1v7.07h-2.08Z"/><path class="cls-3" d="M1364.38,280.65l-.17-1.47h-.08a4.35,4.35,0,0,1-3.58,1.74,3.34,3.34,0,0,1-3.58-3.37c0-2.83,2.51-4.38,7-4.36V273a2.41,2.41,0,0,0-2.66-2.71,5.85,5.85,0,0,0-3,.87l-.49-1.4a7.29,7.29,0,0,1,3.85-1c3.59,0,4.46,2.44,4.46,4.79v4.38a17.09,17.09,0,0,0,.19,2.81Zm-.32-6c-2.32-.05-5,.37-5,2.64a1.89,1.89,0,0,0,2,2,2.92,2.92,0,0,0,2.83-2,2.25,2.25,0,0,0,.12-.67Z"/><path class="cls-3" d="M1369.56,272.59c0-1.38,0-2.57-.1-3.66h1.87l.07,2.3h.1a3.51,3.51,0,0,1,3.24-2.56,2.32,2.32,0,0,1,.61.07v2a3.17,3.17,0,0,0-.73-.07,3,3,0,0,0-2.86,2.73,5.89,5.89,0,0,0-.09,1v6.24h-2.11Z"/><path class="cls-3" d="M1380.63,265.57v3.36h3v1.63h-3v6.32c0,1.45.41,2.27,1.59,2.27a5,5,0,0,0,1.24-.14l.1,1.59a5.23,5.23,0,0,1-1.89.3,3,3,0,0,1-2.3-.9,4.32,4.32,0,0,1-.83-3.05v-6.39h-1.81v-1.63h1.81v-2.81Z"/><path class="cls-3" d="M1399.56,280.22a7.81,7.81,0,0,1-3.36.68c-3.54,0-5.84-2.4-5.84-6a6,6,0,0,1,6.3-6.22,7.09,7.09,0,0,1,2.95.61l-.48,1.64a5,5,0,0,0-2.47-.55c-2.69,0-4.14,2-4.14,4.43,0,2.71,1.74,4.38,4.06,4.38a6,6,0,0,0,2.62-.58Z"/><path class="cls-3" d="M1412.52,274.7c0,4.33-3,6.22-5.84,6.22-3.17,0-5.61-2.33-5.61-6,0-3.92,2.56-6.22,5.81-6.22S1412.52,271.11,1412.52,274.7Zm-9.3.12c0,2.56,1.48,4.5,3.56,4.5s3.56-1.91,3.56-4.55c0-2-1-4.51-3.51-4.51S1403.22,272.59,1403.22,274.82Z"/><path class="cls-3" d="M1415.21,272.1c0-1.21,0-2.2-.1-3.17H1417l.12,1.94h.05a4.32,4.32,0,0,1,3.88-2.2c1.62,0,4.14,1,4.14,5v7h-2.13V273.9c0-1.89-.71-3.47-2.72-3.47a3.14,3.14,0,0,0-3,3.18v7h-2.13Z"/><path class="cls-3" d="M1431.12,265.57v3.36h3.05v1.63h-3.05v6.32c0,1.45.41,2.27,1.6,2.27A4.8,4.8,0,0,0,1434,279l.1,1.59a5.15,5.15,0,0,1-1.89.3,3,3,0,0,1-2.3-.9A4.37,4.37,0,0,1,1429,277v-6.39h-1.82v-1.63H1429v-2.81Z"/><path class="cls-3" d="M1436.57,272.59c0-1.38,0-2.57-.1-3.66h1.87l.07,2.3h.1a3.51,3.51,0,0,1,3.24-2.56,2.32,2.32,0,0,1,.61.07v2a3.17,3.17,0,0,0-.73-.07,3,3,0,0,0-2.86,2.73,7.13,7.13,0,0,0-.09,1v6.24h-2.11Z"/><path class="cls-3" d="M1450.86,280.65l-.17-1.47h-.07a4.39,4.39,0,0,1-3.59,1.74,3.34,3.34,0,0,1-3.58-3.37c0-2.83,2.52-4.38,7-4.36V273a2.41,2.41,0,0,0-2.66-2.71,5.85,5.85,0,0,0-3,.87l-.48-1.4a7.24,7.24,0,0,1,3.85-1c3.58,0,4.45,2.44,4.45,4.79v4.38a16,16,0,0,0,.2,2.81Zm-.32-6c-2.32-.05-5,.37-5,2.64a1.89,1.89,0,0,0,2,2,2.92,2.92,0,0,0,2.83-2,2.25,2.25,0,0,0,.12-.67Z"/><path class="cls-3" d="M1464.4,280.22a7.9,7.9,0,0,1-3.37.68c-3.54,0-5.84-2.4-5.84-6a6,6,0,0,1,6.3-6.22,7.09,7.09,0,0,1,3,.61l-.48,1.64a5,5,0,0,0-2.47-.55c-2.69,0-4.14,2-4.14,4.43,0,2.71,1.74,4.38,4.07,4.38a6,6,0,0,0,2.61-.58Z"/><path class="cls-3" d="M1469.77,265.57v3.36h3v1.63h-3v6.32c0,1.45.41,2.27,1.6,2.27a5,5,0,0,0,1.24-.14l.09,1.59a5.15,5.15,0,0,1-1.89.3,3,3,0,0,1-2.3-.9,4.37,4.37,0,0,1-.82-3.05v-6.39h-1.82v-1.63h1.82v-2.81Z"/><path class="cls-3" d="M1474.93,278.47a5.5,5.5,0,0,0,2.81.85c1.55,0,2.28-.77,2.28-1.74s-.61-1.58-2.18-2.16c-2.11-.75-3.1-1.91-3.1-3.32,0-1.88,1.52-3.43,4-3.43a5.91,5.91,0,0,1,2.88.72l-.53,1.55a4.57,4.57,0,0,0-2.4-.68c-1.26,0-2,.73-2,1.6s.7,1.41,2.23,2c2,.77,3.07,1.79,3.07,3.53,0,2.06-1.59,3.52-4.38,3.52a6.72,6.72,0,0,1-3.29-.8Z"/><path class="cls-3" d="M1328.46,331.59l-1.69,5.13h-2.18l5.54-16.32h2.54l5.57,16.32H1336l-1.74-5.13Zm5.35-1.65-1.6-4.7c-.36-1.06-.6-2-.84-3h0c-.24,1-.51,2-.83,3l-1.59,4.72Z"/><path class="cls-3" d="M1350.09,333.52c0,1.22,0,2.28.09,3.2h-1.89l-.12-1.91h-.05a4.4,4.4,0,0,1-3.87,2.18c-1.84,0-4-1-4-5.14V325h2.13v6.49c0,2.23.68,3.73,2.61,3.73a3.08,3.08,0,0,0,2.81-1.94,3.11,3.11,0,0,0,.2-1.09V325h2.13Z"/><path class="cls-3" d="M1363.75,319.53v14.16c0,1.05,0,2.23.09,3h-1.91l-.1-2h0a4.34,4.34,0,0,1-4,2.3c-2.83,0-5-2.4-5-6,0-3.9,2.39-6.3,5.25-6.3a3.93,3.93,0,0,1,3.54,1.8h0v-7Zm-2.14,10.24a3.79,3.79,0,0,0-.09-.89,3.14,3.14,0,0,0-3.08-2.47c-2.2,0-3.51,1.93-3.51,4.52,0,2.38,1.16,4.34,3.46,4.34a3.22,3.22,0,0,0,3.13-2.54,3.94,3.94,0,0,0,.09-.92Z"/><path class="cls-3" d="M1369.66,321.71a1.32,1.32,0,0,1-2.64,0,1.29,1.29,0,0,1,1.33-1.33A1.27,1.27,0,0,1,1369.66,321.71Zm-2.38,15V325h2.13v11.72Z"/><path class="cls-3" d="M1375.52,321.63V325h3v1.62h-3v6.32c0,1.46.41,2.28,1.59,2.28a4.45,4.45,0,0,0,1.24-.15l.1,1.6a5.26,5.26,0,0,1-1.89.29,2.94,2.94,0,0,1-2.3-.89,4.32,4.32,0,0,1-.83-3.05v-6.4h-1.81V325h1.81v-2.81Z"/><path class="cls-3" d="M1392.59,336.72l-.17-1.48h-.07a4.39,4.39,0,0,1-3.59,1.75,3.34,3.34,0,0,1-3.58-3.37c0-2.83,2.52-4.38,7-4.36V329a2.42,2.42,0,0,0-2.67-2.71,5.85,5.85,0,0,0-3,.87l-.48-1.4a7.27,7.27,0,0,1,3.85-1c3.58,0,4.45,2.45,4.45,4.8v4.38a16,16,0,0,0,.2,2.81Zm-.32-6c-2.32-.05-5,.36-5,2.64a1.88,1.88,0,0,0,2,2,2.91,2.91,0,0,0,2.83-2,2,2,0,0,0,.12-.68Z"/><path class="cls-3" d="M1397.77,328.17c0-1.21,0-2.2-.09-3.17h1.88l.13,1.94h0a4.32,4.32,0,0,1,3.88-2.21c1.62,0,4.14,1,4.14,5v7h-2.13V330c0-1.88-.7-3.46-2.71-3.46a3,3,0,0,0-2.86,2.18,3,3,0,0,0-.15,1v7.05h-2.13Z"/><path class="cls-3" d="M1421.34,319.53v14.16c0,1.05,0,2.23.09,3h-1.91l-.1-2h-.05a4.34,4.34,0,0,1-4,2.3c-2.83,0-5-2.4-5-6,0-3.9,2.39-6.3,5.25-6.3a3.93,3.93,0,0,1,3.54,1.8h0v-7Zm-2.14,10.24a3.79,3.79,0,0,0-.09-.89,3.14,3.14,0,0,0-3.08-2.47c-2.2,0-3.51,1.93-3.51,4.52,0,2.38,1.16,4.34,3.46,4.34a3.22,3.22,0,0,0,3.13-2.54,3.94,3.94,0,0,0,.09-.92Z"/><path class="cls-3" d="M1438.36,336.29a7.89,7.89,0,0,1-3.37.67c-3.53,0-5.83-2.39-5.83-6a6,6,0,0,1,6.3-6.22,7.15,7.15,0,0,1,3,.6l-.49,1.65a4.88,4.88,0,0,0-2.46-.56c-2.69,0-4.15,2-4.15,4.44,0,2.71,1.75,4.38,4.07,4.38a6.2,6.2,0,0,0,2.62-.58Z"/><path class="cls-3" d="M1441.9,331.25a3.76,3.76,0,0,0,4,4.07,7.68,7.68,0,0,0,3.24-.61l.37,1.53a9.56,9.56,0,0,1-3.9.72c-3.61,0-5.77-2.37-5.77-5.91s2.09-6.32,5.5-6.32c3.83,0,4.84,3.37,4.84,5.53a7.17,7.17,0,0,1-.07,1Zm6.25-1.53c0-1.35-.56-3.46-3-3.46-2.15,0-3.1,2-3.27,3.46Z"/><path class="cls-3" d="M1452.84,328.66c0-1.38,0-2.57-.09-3.66h1.86l.07,2.3h.1a3.53,3.53,0,0,1,3.25-2.57,2.18,2.18,0,0,1,.6.08v2a3,3,0,0,0-.72-.08,3,3,0,0,0-2.86,2.74,5.81,5.81,0,0,0-.1,1v6.25h-2.11Z"/><path class="cls-3" d="M1463.91,321.63V325h3v1.62h-3v6.32c0,1.46.41,2.28,1.6,2.28a4.31,4.31,0,0,0,1.23-.15l.1,1.6a5.18,5.18,0,0,1-1.89.29,3,3,0,0,1-2.3-.89,4.37,4.37,0,0,1-.82-3.05v-6.4H1460V325h1.82v-2.81Z"/><path class="cls-3" d="M1471.73,321.71a1.25,1.25,0,0,1-1.35,1.31,1.28,1.28,0,0,1-1.29-1.31,1.3,1.3,0,0,1,1.34-1.33A1.26,1.26,0,0,1,1471.73,321.71Zm-2.37,15V325h2.13v11.72Z"/><path class="cls-3" d="M1475.25,336.72v-10.1h-1.65V325h1.65v-.63c0-3.1,1.81-5.11,5.11-5.11a5.8,5.8,0,0,1,3,.78l-.6,1.62a4.51,4.51,0,0,0-2.47-.68c-2.25,0-2.91,1.57-2.91,3.44V325h6.81v11.72h-2.11v-10.1h-4.7v10.1Z"/><path class="cls-3" d="M1496.05,336.29a7.89,7.89,0,0,1-3.37.67c-3.53,0-5.83-2.39-5.83-6a6,6,0,0,1,6.29-6.22,7.17,7.17,0,0,1,3,.6l-.49,1.65a5,5,0,0,0-2.47-.56c-2.69,0-4.14,2-4.14,4.44,0,2.71,1.74,4.38,4.07,4.38a6.11,6.11,0,0,0,2.61-.58Z"/><path class="cls-3" d="M1505,336.72l-.17-1.48h-.07a4.36,4.36,0,0,1-3.58,1.75,3.34,3.34,0,0,1-3.59-3.37c0-2.83,2.52-4.38,7.05-4.36V329a2.41,2.41,0,0,0-2.66-2.71,5.85,5.85,0,0,0-3,.87l-.49-1.4a7.27,7.27,0,0,1,3.85-1c3.59,0,4.46,2.45,4.46,4.8v4.38a17.09,17.09,0,0,0,.19,2.81Zm-.31-6c-2.33-.05-5,.36-5,2.64a1.88,1.88,0,0,0,2,2,2.92,2.92,0,0,0,2.84-2,2.32,2.32,0,0,0,.12-.68Z"/><path class="cls-3" d="M1512.69,321.63V325h3v1.62h-3v6.32c0,1.46.41,2.28,1.59,2.28a4.45,4.45,0,0,0,1.24-.15l.1,1.6a5.22,5.22,0,0,1-1.89.29,3,3,0,0,1-2.3-.89,4.32,4.32,0,0,1-.83-3.05v-6.4h-1.81V325h1.81v-2.81Z"/><path class="cls-3" d="M1520.51,321.71a1.32,1.32,0,0,1-2.64,0,1.3,1.3,0,0,1,1.33-1.33A1.27,1.27,0,0,1,1520.51,321.71Zm-2.37,15V325h2.13v11.72Z"/><path class="cls-3" d="M1534.41,330.76c0,4.34-3,6.23-5.84,6.23-3.17,0-5.61-2.33-5.61-6,0-3.93,2.56-6.23,5.81-6.23S1534.41,327.18,1534.41,330.76Zm-9.3.13c0,2.56,1.48,4.5,3.56,4.5s3.56-1.91,3.56-4.55c0-2-1-4.51-3.51-4.51S1525.11,328.66,1525.11,330.89Z"/><path class="cls-3" d="M1537.1,328.17c0-1.21,0-2.2-.1-3.17h1.89l.12,1.94h0a4.3,4.3,0,0,1,3.87-2.21c1.63,0,4.15,1,4.15,5v7h-2.14V330c0-1.88-.7-3.46-2.71-3.46a3,3,0,0,0-2.86,2.18,3.28,3.28,0,0,0-.14,1v7.05h-2.13Z"/><circle class="cls-4" cx="1289.74" cy="215" r="4.5"/><circle class="cls-4" cx="1289.74" cy="270.31" r="4.5"/><circle class="cls-4" cx="1289.74" cy="325.62" r="4.5"/><polygon class="cls-5" points="830.26 0.12 830.26 408.87 1238.23 408.87 1238.23 0 830.26 0.12"/><line class="cls-6" x1="849.36" y1="170.99" x2="1219.13" y2="170.93"/><path class="cls-3" d="M897.46,204.93a25.36,25.36,0,0,1,4.24-.33,7,7,0,0,1,4.8,1.42,4.6,4.6,0,0,1,1.5,3.58,5.06,5.06,0,0,1-1.32,3.66,7.11,7.11,0,0,1-5.23,1.88,7.45,7.45,0,0,1-1.78-.16v6.86h-2.21Zm2.21,8.25a7.24,7.24,0,0,0,1.83.18c2.66,0,4.29-1.3,4.29-3.66s-1.6-3.35-4-3.35a9.33,9.33,0,0,0-2.08.18Z"/><path class="cls-3" d="M917,221.84l-.18-1.55h-.08a4.54,4.54,0,0,1-3.75,1.83,3.5,3.5,0,0,1-3.76-3.53c0-3,2.64-4.6,7.39-4.57v-.25a2.54,2.54,0,0,0-2.8-2.85,6.14,6.14,0,0,0-3.2.92l-.5-1.48a7.58,7.58,0,0,1,4-1.09c3.76,0,4.68,2.57,4.68,5v4.59a17.62,17.62,0,0,0,.2,3Zm-.33-6.27c-2.44,0-5.21.38-5.21,2.77a2,2,0,0,0,2.11,2.13,3.06,3.06,0,0,0,3-2.06,2.22,2.22,0,0,0,.13-.71Z"/><path class="cls-3" d="M922.47,213.39c0-1.45,0-2.7-.1-3.84h2l.08,2.41h.1a3.69,3.69,0,0,1,3.4-2.69,2.49,2.49,0,0,1,.64.08v2.11a2.91,2.91,0,0,0-.76-.08,3.13,3.13,0,0,0-3,2.87,6.33,6.33,0,0,0-.1,1v6.55h-2.21Z"/><path class="cls-3" d="M934.07,206v3.53h3.2v1.7h-3.2v6.63c0,1.52.43,2.39,1.68,2.39a4.73,4.73,0,0,0,1.29-.16l.1,1.68a5.4,5.4,0,0,1-2,.3,3.1,3.1,0,0,1-2.41-.94,4.56,4.56,0,0,1-.86-3.19v-6.71H930v-1.7h1.91v-2.94Z"/><path class="cls-3" d="M939.48,219.56a5.87,5.87,0,0,0,2.94.88c1.63,0,2.39-.81,2.39-1.82s-.63-1.65-2.28-2.26c-2.21-.79-3.25-2-3.25-3.48,0-2,1.6-3.61,4.24-3.61a6.22,6.22,0,0,1,3,.76l-.56,1.63a4.72,4.72,0,0,0-2.51-.71c-1.32,0-2.06.76-2.06,1.67s.74,1.48,2.34,2.09c2.13.81,3.22,1.87,3.22,3.7,0,2.16-1.68,3.68-4.6,3.68a7.09,7.09,0,0,1-3.45-.83Z"/><path class="cls-3" d="M897.46,260.34a32.23,32.23,0,0,1,4.7-.35c3.17,0,5.43.73,6.93,2.13a7.91,7.91,0,0,1,2.41,6.15,9.06,9.06,0,0,1-2.46,6.65c-1.6,1.6-4.24,2.46-7.57,2.46a35.08,35.08,0,0,1-4-.2Zm2.21,15.14a14.28,14.28,0,0,0,2.24.12c4.72,0,7.28-2.64,7.28-7.26,0-4-2.26-6.6-6.93-6.6a12.31,12.31,0,0,0-2.59.23Z"/><path class="cls-3" d="M921.1,277.23l-.18-1.55h-.08a4.57,4.57,0,0,1-3.75,1.83,3.5,3.5,0,0,1-3.76-3.53c0-3,2.64-4.6,7.39-4.57v-.26a2.54,2.54,0,0,0-2.8-2.84,6.17,6.17,0,0,0-3.19.91l-.51-1.47a7.61,7.61,0,0,1,4-1.09c3.76,0,4.68,2.56,4.68,5v4.59a17.62,17.62,0,0,0,.2,3Zm-.33-6.27c-2.44,0-5.21.38-5.21,2.76a2,2,0,0,0,2.11,2.14,3.05,3.05,0,0,0,3-2.06,2.22,2.22,0,0,0,.13-.71Z"/><path class="cls-3" d="M926.53,268.27c0-1.27,0-2.31-.1-3.33h2l.11,2h.07a4.24,4.24,0,0,1,3.86-2.26,3.63,3.63,0,0,1,3.48,2.46H936a5.08,5.08,0,0,1,1.37-1.6,4.25,4.25,0,0,1,2.72-.86c1.62,0,4,1.07,4,5.33v7.24h-2.19v-7c0-2.36-.86-3.78-2.66-3.78a2.89,2.89,0,0,0-2.64,2,3.41,3.41,0,0,0-.18,1.12v7.59h-2.19v-7.36c0-2-.86-3.38-2.56-3.38a3.06,3.06,0,0,0-2.77,2.23,3.24,3.24,0,0,0-.18,1.09v7.42h-2.18Z"/><path class="cls-3" d="M954.51,277.23l-.18-1.55h-.07a4.61,4.61,0,0,1-3.76,1.83,3.5,3.5,0,0,1-3.76-3.53c0-3,2.64-4.6,7.39-4.57v-.26a2.53,2.53,0,0,0-2.79-2.84,6.17,6.17,0,0,0-3.2.91l-.51-1.47a7.62,7.62,0,0,1,4-1.09c3.75,0,4.67,2.56,4.67,5v4.59a17.62,17.62,0,0,0,.2,3Zm-.33-6.27c-2.44,0-5.21.38-5.21,2.76a2,2,0,0,0,2.11,2.14,3.05,3.05,0,0,0,3-2.06,2.22,2.22,0,0,0,.13-.71Z"/><path class="cls-3" d="M970.53,264.94c0,.89-.1,1.88-.1,3.38v7.13c0,2.82-.56,4.55-1.75,5.61a6.52,6.52,0,0,1-4.47,1.48,8,8,0,0,1-4.09-1l.56-1.7a6.89,6.89,0,0,0,3.6,1c2.29,0,4-1.19,4-4.29v-1.37h-.06a4.38,4.38,0,0,1-3.91,2.06c-3,0-5.23-2.59-5.23-6,0-4.17,2.72-6.53,5.54-6.53a4.09,4.09,0,0,1,3.83,2.13h.05l.11-1.85Zm-2.31,4.85a3.28,3.28,0,0,0-.13-1,3.22,3.22,0,0,0-3.12-2.36c-2.13,0-3.66,1.81-3.66,4.65,0,2.41,1.22,4.42,3.63,4.42a3.27,3.27,0,0,0,3.1-2.29,3.78,3.78,0,0,0,.18-1.19Z"/><path class="cls-3" d="M975.38,271.49c0,3,2,4.27,4.21,4.27a8,8,0,0,0,3.41-.64l.38,1.6a9.93,9.93,0,0,1-4.09.76c-3.79,0-6-2.49-6-6.19s2.18-6.63,5.76-6.63c4,0,5.08,3.53,5.08,5.79a7.43,7.43,0,0,1-.08,1Zm6.55-1.6c0-1.42-.59-3.63-3.1-3.63-2.26,0-3.25,2.08-3.43,3.63Z"/><path class="cls-3" d="M897.46,315.5h2.21v15.26H907v1.86h-9.52Z"/><path class="cls-3" d="M909.45,315.73a22.81,22.81,0,0,1,4.24-.35c2.36,0,3.88.43,4.95,1.39A4.28,4.28,0,0,1,920,320a4.5,4.5,0,0,1-3.22,4.37v.08c1.32.45,2.11,1.67,2.51,3.45a27.87,27.87,0,0,0,1.32,4.7h-2.28a22.87,22.87,0,0,1-1.15-4.09c-.5-2.36-1.42-3.25-3.42-3.33h-2.09v7.42h-2.2Zm2.2,7.8h2.26c2.37,0,3.86-1.3,3.86-3.25,0-2.21-1.6-3.18-3.93-3.2a9.3,9.3,0,0,0-2.19.2Z"/><path class="cls-3" d="M925.31,315.5v10.13c0,3.84,1.7,5.46,4,5.46,2.54,0,4.16-1.67,4.16-5.46V315.5h2.24v10c0,5.26-2.77,7.42-6.48,7.42-3.5,0-6.14-2-6.14-7.32V315.5Z"/><path class="cls-3" d="M944.84,314.59h2.23v18h-2.23Z"/><path class="cls-3" d="M953.32,316.87a1.39,1.39,0,0,1-2.77,0,1.36,1.36,0,0,1,1.39-1.39A1.33,1.33,0,0,1,953.32,316.87Zm-2.49,15.75V320.33h2.23v12.29Z"/><path class="cls-3" d="M957,332.62V322h-1.73v-1.7H957v-.59a5.8,5.8,0,0,1,1.42-4.29,4.27,4.27,0,0,1,3-1.14,5.14,5.14,0,0,1,1.91.36l-.31,1.72a3.34,3.34,0,0,0-1.42-.28c-1.9,0-2.38,1.68-2.38,3.56v.66h3V322h-3v10.59Z"/><path class="cls-3" d="M965.09,326.88c.06,3,2,4.26,4.22,4.26a8,8,0,0,0,3.4-.63l.38,1.6a10,10,0,0,1-4.09.76c-3.78,0-6-2.49-6-6.19s2.19-6.63,5.77-6.63c4,0,5.07,3.53,5.07,5.79a10.18,10.18,0,0,1-.07,1Zm6.56-1.6c0-1.42-.59-3.63-3.1-3.63-2.26,0-3.25,2.08-3.43,3.63Z"/><path class="cls-3" d="M985.33,332.16a8.3,8.3,0,0,1-3.53.71c-3.71,0-6.12-2.51-6.12-6.27a6.25,6.25,0,0,1,6.6-6.53,7.39,7.39,0,0,1,3.1.64l-.51,1.73a5.1,5.1,0,0,0-2.59-.59c-2.82,0-4.34,2.08-4.34,4.65,0,2.84,1.83,4.59,4.27,4.59a6.34,6.34,0,0,0,2.74-.61Z"/><path class="cls-3" d="M989.21,320.33l2.7,7.26c.27.81.58,1.78.78,2.51h0c.23-.73.49-1.67.79-2.56l2.44-7.21h2.36L995,329.09c-1.6,4.21-2.69,6.37-4.22,7.69a6,6,0,0,1-2.74,1.45l-.56-1.88a5.92,5.92,0,0,0,2-1.09,6.8,6.8,0,0,0,1.88-2.49,1.63,1.63,0,0,0,.17-.53,2,2,0,0,0-.15-.59l-4.54-11.32Z"/><path class="cls-3" d="M1008.87,332.16a8.33,8.33,0,0,1-3.53.71c-3.71,0-6.12-2.51-6.12-6.27a6.25,6.25,0,0,1,6.6-6.53,7.39,7.39,0,0,1,3.1.64l-.51,1.73a5.13,5.13,0,0,0-2.59-.59c-2.82,0-4.34,2.08-4.34,4.65,0,2.84,1.82,4.59,4.26,4.59a6.31,6.31,0,0,0,2.74-.61Z"/><path class="cls-3" d="M1011.48,314.59h2.23v18h-2.23Z"/><path class="cls-3" d="M1018.71,326.88c.06,3,2,4.26,4.22,4.26a8,8,0,0,0,3.4-.63l.38,1.6a10,10,0,0,1-4.09.76c-3.78,0-6-2.49-6-6.19s2.19-6.63,5.77-6.63c4,0,5.07,3.53,5.07,5.79a10.18,10.18,0,0,1-.07,1Zm6.56-1.6c0-1.42-.59-3.63-3.1-3.63-2.26,0-3.25,2.08-3.43,3.63Z"/><circle class="cls-4" cx="872.42" cy="215" r="4.5"/><circle class="cls-4" cx="872.42" cy="270.31" r="4.5"/><circle class="cls-4" cx="872.42" cy="325.62" r="4.5"/><polygon class="cls-5" points="0 0 0 408.96 407.97 408.96 407.97 0.09 0 0"/><line class="cls-6" x1="19.1" y1="170.99" x2="388.87" y2="170.93"/><path class="cls-3" d="M164.4,81.8h-6.5V78.31h17.22V81.8h-6.56v19.32H164.4Z"/><path class="cls-3" d="M178,94.05c.1,3,2.44,4.27,5.08,4.27a12.49,12.49,0,0,0,4.57-.75l.61,2.88a15.71,15.71,0,0,1-5.76,1c-5.35,0-8.49-3.28-8.49-8.32,0-4.57,2.77-8.87,8.05-8.87s7.11,4.4,7.11,8a9.88,9.88,0,0,1-.14,1.76Zm7.24-2.91c0-1.52-.64-4-3.41-4-2.58,0-3.66,2.34-3.83,4Z"/><path class="cls-3" d="M204.61,100.62a12.2,12.2,0,0,1-4.67.84c-5.15,0-8.5-3.28-8.5-8.39,0-4.94,3.39-8.8,9.18-8.8a10.33,10.33,0,0,1,4,.78l-.74,3.11a7.43,7.43,0,0,0-3.15-.64c-3.18,0-5.08,2.33-5,5.35,0,3.38,2.2,5.31,5,5.31a8.08,8.08,0,0,0,3.28-.64Z"/><path class="cls-3" d="M207.69,77.1h4.2v9.81H212A5.46,5.46,0,0,1,214,85a5.57,5.57,0,0,1,2.84-.75c2.81,0,5.76,1.86,5.76,7.14v9.71h-4.17V91.89c0-2.41-.88-4.2-3.18-4.2A3.39,3.39,0,0,0,212.06,90a3.43,3.43,0,0,0-.17,1.26v9.84h-4.2Z"/><path class="cls-3" d="M227.05,89.55c0-1.9,0-3.49-.13-4.91h3.65l.21,2.47h.1a6,6,0,0,1,5.25-2.84c2.87,0,5.85,1.86,5.85,7.07v9.78h-4.16v-9.3c0-2.37-.88-4.17-3.15-4.17a3.5,3.5,0,0,0-3.25,2.44,4.38,4.38,0,0,0-.17,1.35v9.68h-4.2Z"/><path class="cls-3" d="M262.09,92.73c0,6.06-4.27,8.77-8.46,8.77-4.67,0-8.26-3.22-8.26-8.5s3.55-8.73,8.53-8.73S262.09,87.72,262.09,92.73Zm-12.42.17c0,3.18,1.55,5.58,4.09,5.58,2.37,0,4-2.33,4-5.65,0-2.57-1.15-5.51-4-5.51S249.67,90.16,249.67,92.9Z"/><path class="cls-3" d="M265.51,77.1h4.2v24h-4.2Z"/><path class="cls-3" d="M289.88,92.73c0,6.06-4.27,8.77-8.46,8.77-4.67,0-8.26-3.22-8.26-8.5s3.55-8.73,8.53-8.73S289.88,87.72,289.88,92.73Zm-12.42.17c0,3.18,1.55,5.58,4.09,5.58,2.37,0,4-2.33,4-5.65,0-2.57-1.15-5.51-4-5.51S277.46,90.16,277.46,92.9Z"/><path class="cls-3" d="M308.36,84.64c-.07,1.12-.13,2.47-.13,4.74v9.34c0,3.45-.71,5.92-2.44,7.48a9.51,9.51,0,0,1-6.36,2,11.68,11.68,0,0,1-5.76-1.32l.92-3.15a9.94,9.94,0,0,0,4.8,1.25c2.71,0,4.74-1.42,4.74-5V98.59h-.07a5.56,5.56,0,0,1-4.8,2.43c-4.1,0-7-3.38-7-8,0-5.42,3.52-8.7,7.48-8.7a5.19,5.19,0,0,1,4.77,2.57h.07l.17-2.2Zm-4.3,6.6a4,4,0,0,0-.13-1.11,3.46,3.46,0,0,0-3.39-2.68c-2.33,0-4.06,2-4.06,5.38,0,2.81,1.42,5.08,4,5.08a3.55,3.55,0,0,0,3.38-2.51,6.52,6.52,0,0,0,.17-1.48Z"/><path class="cls-3" d="M315.3,84.64l3,8.84c.34,1,.68,2.26.92,3.21h.1c.27-1,.57-2.17.88-3.25l2.57-8.8h4.47l-4.13,11.24c-2.27,6.16-3.79,8.9-5.76,10.59A8.26,8.26,0,0,1,313,108.6l-1-3.52a7,7,0,0,0,2.44-1.15,7.15,7.15,0,0,0,2.26-2.6,1.71,1.71,0,0,0,.28-.75,1.83,1.83,0,0,0-.24-.81l-6-15.13Z"/><path class="cls-3" d="M76.49,120.45v5L65.05,119l11.38-6.4v4.95h12V106.05H87.38c-5.87,0-11.73,0-17.6,0a7.31,7.31,0,0,1-7.37-6.11,8.23,8.23,0,0,1-.08-1.31V58.35a7.24,7.24,0,0,1,7.35-7.42h59.84a7.23,7.23,0,0,1,7.33,7.34q0,20.13,0,40.27a7.28,7.28,0,0,1-7.47,7.5c-6.3,0-12.61,0-18.91,0H109.3v11.52h7.82v-5L128.58,119l-11.45,6.44v-5ZM99.4,103.26h29.74c3.06,0,4.89-1.85,4.89-4.94V58.62c0-3.08-1.82-4.92-4.91-4.93H70c-3.08,0-4.89,1.86-4.89,5V98.25c0,3.2,1.81,5,5,5H95.47c.33,0,.66,0,1-.05V97H80.37c-4.14,0-6.7-2.56-6.68-6.7a1.4,1.4,0,0,0-1-1.59,5.44,5.44,0,0,1-3.21-6.23,5.79,5.79,0,0,1,11.25,0,5.39,5.39,0,0,1-3.1,6.2c-1.08.44-1.17,1-1.13,2,.08,1.89,1.07,3.38,2.75,3.5,2.33.16,4.68,0,7.12,0,0-.4,0-.74,0-1.08,0-3.38,0-6.77-.06-10.16,0-1.76-.55-2.33-2.33-2.47a4.43,4.43,0,0,1-4.16-4.4c0-.5,0-1,0-1.5-.37-.11-.67-.19-1-.29A5.62,5.62,0,0,1,75,68.39a5.78,5.78,0,0,1,11.26-1,5.47,5.47,0,0,1-2.85,6.49c-.55.28-.83.57-.74,1.2,0,.37,0,.75,0,1.12a1.49,1.49,0,0,0,1.21,1.4c.78.17,1.59.24,2.5.37,0-.52,0-1,0-1.51a4.68,4.68,0,0,1,4.53-4.9c1.5-.14,2-.64,2-2.17a7.37,7.37,0,0,1,0-.94,1.32,1.32,0,0,0-1-1.59,5.43,5.43,0,0,1-3.24-6.14,5.78,5.78,0,0,1,11.15-.51,5.21,5.21,0,0,1-2.49,6.28,2.43,2.43,0,0,0-1.61,2.93.88.88,0,0,1,0,.28,4.39,4.39,0,0,1-4.29,4.56c-1.59.13-2.23.81-2.23,2.41V93.26c0,.3,0,.6.05.89h7.26c0-1.4,0-2.74,0-4.09a1.08,1.08,0,0,0-.8-1.23,5.52,5.52,0,0,1-3.44-6.38,5.79,5.79,0,0,1,11.26.13,5.59,5.59,0,0,1-3.45,6.3c-.29.12-.7.43-.71.67-.07,1.52,0,3,0,4.6h10.22V84.31a1.93,1.93,0,0,0-2-2.24c-3.13-.39-4.51-1.91-4.5-5a1,1,0,0,0-.84-1.17,5.52,5.52,0,0,1-4-6A5.66,5.66,0,0,1,103.41,65a5.73,5.73,0,0,1,6.11,4,5.49,5.49,0,0,1-2.9,6.55,1,1,0,0,0-.68,1.14c0,.31,0,.63,0,.94a1.64,1.64,0,0,0,1.46,1.69c.7.11,1.41.19,2.16.28,0-.24.05-.49.05-.73,0-3.72,1.37-5.22,5-5.71a1.59,1.59,0,0,0,1.49-1.54c0-.91,0-1.81,0-2.69-3.11-1.25-4.67-3.52-4.28-6.15a5.66,5.66,0,0,1,5.18-4.89,5.72,5.72,0,0,1,6,3.92,5.49,5.49,0,0,1-.12,3.6,6,6,0,0,1-4,3.54v2.33a4.44,4.44,0,0,1-4.11,4.64c-2,.26-2.44.73-2.44,2.79V94.22h2.87c2.77,0,4-1.24,4-4a1.26,1.26,0,0,0-.91-1.45,5.42,5.42,0,0,1-3.29-6.18,5.78,5.78,0,0,1,11.3.08,5.59,5.59,0,0,1-3.39,6.17l-.93.38a18,18,0,0,1,0,2.44A6.12,6.12,0,0,1,115.75,97c-5.08,0-10.16,0-15.24,0H99.4Zm6.88,3.12H91.55v11h14.73Zm8.37-43a3,3,0,1,0,3-2.84A2.93,2.93,0,0,0,114.65,63.37Zm6.12,23.16a2.86,2.86,0,1,0,0-5.71,2.86,2.86,0,1,0,0,5.71Zm-19.71-16a2.94,2.94,0,0,0,5.88.07A2.9,2.9,0,0,0,104,67.67,2.87,2.87,0,0,0,101.06,70.52ZM97.9,80.82a2.86,2.86,0,1,0,0,5.71,2.86,2.86,0,1,0,0-5.71Zm-17.22-9a2.83,2.83,0,0,0,3-2.83,2.95,2.95,0,0,0-5.89-.06A2.84,2.84,0,0,0,80.68,71.83Zm13.59-7.14a2.86,2.86,0,1,0-2.94-2.91A3,3,0,0,0,94.27,64.69ZM75.11,80.82a2.86,2.86,0,1,0,3,2.86A3,3,0,0,0,75.11,80.82Z"/><path class="cls-3" d="M982.79,81.8h-6.5V78.31h17.22V81.8H987v19.32h-4.16Z"/><path class="cls-3" d="M994.33,90c0-2.24,0-3.83-.13-5.32h3.62l.13,3.15h.14a4.91,4.91,0,0,1,4.5-3.52,4.28,4.28,0,0,1,1,.1V88.3a5.62,5.62,0,0,0-1.22-.14,3.67,3.67,0,0,0-3.72,3.15,6.88,6.88,0,0,0-.14,1.29v8.52h-4.16Z"/><path class="cls-3" d="M1015.35,101.12l-.27-1.82h-.1a6.15,6.15,0,0,1-4.88,2.2,4.89,4.89,0,0,1-5.17-4.91c0-4.16,3.69-6.26,9.78-6.23v-.27c0-1.08-.44-2.88-3.35-2.88a8.75,8.75,0,0,0-4.44,1.22l-.81-2.71a11.93,11.93,0,0,1,6-1.45c5.28,0,6.8,3.35,6.8,6.94v6a26.23,26.23,0,0,0,.24,4Zm-.54-8.05c-2.95-.07-5.75.57-5.75,3.08a2.18,2.18,0,0,0,2.36,2.37,3.38,3.38,0,0,0,3.25-2.27,3,3,0,0,0,.14-.91Z"/><path class="cls-3" d="M1035.39,100.62a12.2,12.2,0,0,1-4.67.84c-5.15,0-8.5-3.28-8.5-8.39,0-4.94,3.39-8.8,9.18-8.8a10.33,10.33,0,0,1,4,.78l-.74,3.11a7.43,7.43,0,0,0-3.15-.64c-3.18,0-5.08,2.33-5,5.35,0,3.38,2.2,5.31,5,5.31a8.08,8.08,0,0,0,3.28-.64Z"/><path class="cls-3" d="M1042.63,91.89h.07c.41-.65.88-1.36,1.32-1.93l4-5.32h5l-6.09,6.74,7,9.74h-5.11l-4.73-7.27-1.43,1.66v5.61h-4.16v-24h4.16Z"/><path class="cls-3" d="M1060.58,80a2.34,2.34,0,1,1-2.34-2.27A2.23,2.23,0,0,1,1060.58,80Zm-4.44,21.08V84.64h4.2v16.48Z"/><path class="cls-3" d="M1064.81,89.55c0-1.9,0-3.49-.14-4.91h3.66l.2,2.47h.1a6,6,0,0,1,5.25-2.84c2.87,0,5.85,1.86,5.85,7.07v9.78h-4.16v-9.3c0-2.37-.88-4.17-3.15-4.17a3.5,3.5,0,0,0-3.25,2.44,4.38,4.38,0,0,0-.17,1.35v9.68h-4.19Z"/><path class="cls-3" d="M1099.23,84.64c-.07,1.12-.13,2.47-.13,4.74v9.34c0,3.45-.72,5.92-2.44,7.48a9.51,9.51,0,0,1-6.36,2,11.68,11.68,0,0,1-5.76-1.32l.92-3.15a9.91,9.91,0,0,0,4.8,1.25c2.71,0,4.74-1.42,4.74-5V98.59h-.07a5.57,5.57,0,0,1-4.8,2.43c-4.1,0-7-3.38-7-8,0-5.42,3.52-8.7,7.48-8.7a5.2,5.2,0,0,1,4.77,2.57h.07l.17-2.2Zm-4.3,6.6a4,4,0,0,0-.13-1.11,3.46,3.46,0,0,0-3.39-2.68c-2.33,0-4.06,2-4.06,5.38,0,2.81,1.42,5.08,4,5.08a3.55,3.55,0,0,0,3.38-2.51,7.14,7.14,0,0,0,.17-1.48Z"/><path class="cls-3" d="M1418.68,91.82c-.14-2.95-.31-6.5-.27-9.58h-.1c-.75,2.78-1.7,5.85-2.71,8.73l-3.32,9.88h-3.21l-3-9.74c-.88-2.91-1.69-6-2.3-8.87h-.07c-.1,3-.24,6.6-.41,9.71l-.5,9.17h-3.9l1.53-22.81h5.48l3,9.18c.81,2.67,1.52,5.38,2.1,7.91h.1c.61-2.47,1.39-5.27,2.27-8l3.14-9.14h5.42l1.32,22.81h-4.06Z"/><path class="cls-3" d="M1436.65,101.12l-.27-1.82h-.1a6.13,6.13,0,0,1-4.87,2.2,4.9,4.9,0,0,1-5.18-4.91c0-4.16,3.69-6.26,9.78-6.23v-.27c0-1.08-.44-2.88-3.35-2.88a8.72,8.72,0,0,0-4.43,1.22l-.82-2.71a12,12,0,0,1,6-1.45c5.28,0,6.8,3.35,6.8,6.94v6a26.23,26.23,0,0,0,.24,4Zm-.54-8.05c-2.94-.07-5.75.57-5.75,3.08a2.19,2.19,0,0,0,2.37,2.37,3.39,3.39,0,0,0,3.25-2.27,3,3,0,0,0,.13-.91Z"/><path class="cls-3" d="M1444.58,89.55c0-1.9,0-3.49-.14-4.91h3.66l.2,2.47h.1a6,6,0,0,1,5.25-2.84c2.87,0,5.85,1.86,5.85,7.07v9.78h-4.16v-9.3c0-2.37-.88-4.17-3.15-4.17a3.5,3.5,0,0,0-3.25,2.44,4.38,4.38,0,0,0-.17,1.35v9.68h-4.19Z"/><path class="cls-3" d="M1473.21,101.12l-.27-1.82h-.1a6.13,6.13,0,0,1-4.87,2.2,4.9,4.9,0,0,1-5.18-4.91c0-4.16,3.69-6.26,9.78-6.23v-.27c0-1.08-.44-2.88-3.35-2.88a8.72,8.72,0,0,0-4.43,1.22l-.82-2.71a11.93,11.93,0,0,1,6-1.45c5.28,0,6.8,3.35,6.8,6.94v6a26.23,26.23,0,0,0,.24,4Zm-.54-8.05c-2.94-.07-5.75.57-5.75,3.08a2.19,2.19,0,0,0,2.37,2.37,3.39,3.39,0,0,0,3.25-2.27,3,3,0,0,0,.13-.91Z"/><path class="cls-3" d="M1496.2,84.64c-.07,1.12-.14,2.47-.14,4.74v9.34c0,3.45-.71,5.92-2.44,7.48a9.48,9.48,0,0,1-6.36,2,11.64,11.64,0,0,1-5.75-1.32l.91-3.15a10,10,0,0,0,4.81,1.25c2.71,0,4.74-1.42,4.74-5V98.59h-.07a5.58,5.58,0,0,1-4.81,2.43c-4.09,0-7-3.38-7-8,0-5.42,3.52-8.7,7.48-8.7a5.2,5.2,0,0,1,4.77,2.57h.07l.17-2.2Zm-4.3,6.6a4,4,0,0,0-.14-1.11,3.45,3.45,0,0,0-3.38-2.68c-2.34,0-4.06,2-4.06,5.38,0,2.81,1.42,5.08,4,5.08a3.56,3.56,0,0,0,3.39-2.51,7.14,7.14,0,0,0,.17-1.48Z"/><path class="cls-3" d="M1503.48,94.05c.1,3,2.43,4.27,5.07,4.27a12.45,12.45,0,0,0,4.57-.75l.61,2.88a15.61,15.61,0,0,1-5.75,1c-5.35,0-8.5-3.28-8.5-8.32,0-4.57,2.78-8.87,8.06-8.87s7.11,4.4,7.11,8a9.88,9.88,0,0,1-.14,1.76Zm7.24-2.91c0-1.52-.64-4-3.42-4-2.57,0-3.65,2.34-3.82,4Z"/><path class="cls-3" d="M1518,89.55c0-1.9,0-3.49-.14-4.91h3.59l.17,2.44h.1a5.7,5.7,0,0,1,5.08-2.81,4.75,4.75,0,0,1,4.57,3h.07a6.1,6.1,0,0,1,2-2.07,5.5,5.5,0,0,1,3.31-1c2.74,0,5.52,1.86,5.52,7.14v9.71h-4.06V92c0-2.74-1-4.37-3-4.37a3.18,3.18,0,0,0-2.91,2.2,6.13,6.13,0,0,0-.2,1.39v9.88h-4.06V91.58c0-2.3-.91-3.93-2.84-3.93a3.25,3.25,0,0,0-3,2.37,3.57,3.57,0,0,0-.24,1.36v9.74H1518Z"/><path class="cls-3" d="M1549.65,94.05c.1,3,2.44,4.27,5.08,4.27a12.49,12.49,0,0,0,4.57-.75l.6,2.88a15.61,15.61,0,0,1-5.75,1c-5.35,0-8.49-3.28-8.49-8.32,0-4.57,2.77-8.87,8-8.87s7.11,4.4,7.11,8a9.88,9.88,0,0,1-.14,1.76Zm7.24-2.91c0-1.52-.64-4-3.42-4-2.57,0-3.65,2.34-3.82,4Z"/><path class="cls-3" d="M1564.17,89.55c0-1.9,0-3.49-.13-4.91h3.65l.21,2.47h.1a5.94,5.94,0,0,1,5.24-2.84c2.88,0,5.86,1.86,5.86,7.07v9.78h-4.17v-9.3c0-2.37-.87-4.17-3.14-4.17a3.5,3.5,0,0,0-3.25,2.44,4.1,4.1,0,0,0-.17,1.35v9.68h-4.2Z"/><path class="cls-3" d="M1588.14,79.94v4.7h4v3.12h-4V95c0,2,.54,3,2.13,3a6.19,6.19,0,0,0,1.62-.2l.07,3.18a9.36,9.36,0,0,1-3,.4,4.82,4.82,0,0,1-3.59-1.35c-.88-1-1.28-2.44-1.28-4.6V87.76h-2.37V84.64h2.37V80.92Z"/><circle class="cls-4" cx="51.4" cy="270.31" r="4.5"/><circle class="cls-4" cx="51.4" cy="325.62" r="4.5"/><circle class="cls-4" cx="51.4" cy="215" r="4.5"/><path class="cls-3" d="M91.1,221.28a10.88,10.88,0,0,1-4.52.81c-4.82,0-8.45-3-8.45-8.65,0-5.36,3.63-9,8.94-9a9.12,9.12,0,0,1,4.06.76L90.6,207a8.19,8.19,0,0,0-3.46-.71c-4,0-6.68,2.57-6.68,7.06,0,4.19,2.42,6.88,6.58,6.88a8.88,8.88,0,0,0,3.61-.71Z"/><path class="cls-3" d="M104.63,215.59c0,4.55-3.14,6.53-6.11,6.53-3.33,0-5.9-2.44-5.9-6.32,0-4.12,2.7-6.53,6.1-6.53S104.63,211.84,104.63,215.59Zm-9.75.13c0,2.69,1.55,4.72,3.74,4.72s3.73-2,3.73-4.77c0-2.08-1-4.72-3.68-4.72S94.88,213.39,94.88,215.72Z"/><path class="cls-3" d="M107.45,212.88c0-1.27,0-2.31-.1-3.33h2l.13,2h.05a4.51,4.51,0,0,1,4.06-2.31c1.7,0,4.34,1,4.34,5.23v7.34h-2.23v-7.08c0-2-.74-3.63-2.85-3.63a3.17,3.17,0,0,0-3,2.28,3.26,3.26,0,0,0-.15,1v7.39h-2.24Z"/><path class="cls-3" d="M121.24,219.56a5.87,5.87,0,0,0,2.94.88c1.63,0,2.39-.81,2.39-1.82s-.63-1.65-2.28-2.26c-2.21-.79-3.25-2-3.25-3.48,0-2,1.59-3.61,4.24-3.61a6.22,6.22,0,0,1,3,.76l-.56,1.63a4.73,4.73,0,0,0-2.52-.71c-1.32,0-2,.76-2,1.67s.73,1.48,2.33,2.09c2.14.81,3.23,1.87,3.23,3.7,0,2.16-1.68,3.68-4.6,3.68a7.09,7.09,0,0,1-3.45-.83Z"/><path class="cls-3" d="M141.88,218.49c0,1.27,0,2.39.1,3.35h-2l-.13-2h-.05a4.62,4.62,0,0,1-4.06,2.29c-1.93,0-4.24-1.07-4.24-5.38v-7.19h2.23v6.81c0,2.33.72,3.91,2.75,3.91a3.22,3.22,0,0,0,2.94-2,3.17,3.17,0,0,0,.21-1.14v-7.54h2.23Z"/><path class="cls-3" d="M145.59,203.81h2.23v18h-2.23Z"/><path class="cls-3" d="M154.27,206v3.53h3.2v1.7h-3.2v6.63c0,1.52.43,2.39,1.67,2.39a4.76,4.76,0,0,0,1.3-.16l.1,1.68a5.44,5.44,0,0,1-2,.3,3.09,3.09,0,0,1-2.41-.94,4.51,4.51,0,0,1-.87-3.19v-6.71h-1.9v-1.7h1.9v-2.94Z"/><path class="cls-3" d="M162.47,206.1a1.39,1.39,0,0,1-2.77,0,1.37,1.37,0,0,1,1.4-1.4A1.33,1.33,0,0,1,162.47,206.1ZM160,221.84V209.55h2.23v12.29Z"/><path class="cls-3" d="M165.92,212.88c0-1.27,0-2.31-.1-3.33h2l.13,2h0a4.51,4.51,0,0,1,4.06-2.31c1.7,0,4.34,1,4.34,5.23v7.34h-2.23v-7.08c0-2-.74-3.63-2.85-3.63a3.17,3.17,0,0,0-3,2.28,3.26,3.26,0,0,0-.15,1v7.39h-2.24Z"/><path class="cls-3" d="M190.6,209.55c0,.89-.1,1.88-.1,3.38v7.13c0,2.82-.56,4.55-1.75,5.61a6.52,6.52,0,0,1-4.47,1.48,7.92,7.92,0,0,1-4.09-1l.56-1.7a6.89,6.89,0,0,0,3.6,1c2.29,0,4-1.19,4-4.29v-1.37h-.05a4.36,4.36,0,0,1-3.91,2.06c-3,0-5.23-2.59-5.23-6,0-4.17,2.72-6.53,5.54-6.53a4.09,4.09,0,0,1,3.83,2.13h0l.1-1.85Zm-2.31,4.85a3.17,3.17,0,0,0-.13-1A3.22,3.22,0,0,0,185,211c-2.13,0-3.66,1.81-3.66,4.65,0,2.41,1.22,4.42,3.63,4.42a3.27,3.27,0,0,0,3.1-2.29,3.78,3.78,0,0,0,.18-1.19Z"/><path class="cls-3" d="M81.35,260.12v10.13c0,3.83,1.7,5.46,4,5.46,2.54,0,4.16-1.68,4.16-5.46V260.12h2.24v10c0,5.26-2.77,7.42-6.48,7.42-3.5,0-6.14-2-6.14-7.31V260.12Z"/><path class="cls-3" d="M95,274.94a5.78,5.78,0,0,0,2.94.89c1.63,0,2.39-.81,2.39-1.83s-.64-1.65-2.29-2.26c-2.21-.78-3.25-2-3.25-3.47,0-2,1.6-3.61,4.24-3.61a6.23,6.23,0,0,1,3,.76l-.56,1.63a4.76,4.76,0,0,0-2.52-.71c-1.32,0-2,.76-2,1.67s.73,1.47,2.33,2.08c2.14.82,3.23,1.88,3.23,3.71,0,2.16-1.68,3.68-4.6,3.68a7,7,0,0,1-3.45-.84Z"/><path class="cls-3" d="M106.64,271.49c0,3,2,4.27,4.21,4.27a8,8,0,0,0,3.41-.64l.38,1.6a9.93,9.93,0,0,1-4.09.76c-3.78,0-6-2.49-6-6.19s2.18-6.63,5.76-6.63c4,0,5.08,3.53,5.08,5.79a7.43,7.43,0,0,1-.08,1Zm6.55-1.6c0-1.42-.58-3.63-3.1-3.63-2.26,0-3.25,2.08-3.43,3.63Z"/><path class="cls-3" d="M132.26,276.77a8.18,8.18,0,0,1-3.53.71c-3.71,0-6.12-2.51-6.12-6.27a6.24,6.24,0,0,1,6.6-6.52,7.57,7.57,0,0,1,3.1.63l-.51,1.73a5.1,5.1,0,0,0-2.59-.59c-2.82,0-4.34,2.09-4.34,4.65,0,2.84,1.83,4.6,4.26,4.6a6.39,6.39,0,0,0,2.75-.61Z"/><path class="cls-3" d="M141.68,277.23l-.18-1.55h-.08a4.58,4.58,0,0,1-3.76,1.83,3.5,3.5,0,0,1-3.75-3.53c0-3,2.64-4.6,7.38-4.57v-.26a2.53,2.53,0,0,0-2.79-2.84,6.23,6.23,0,0,0-3.2.91l-.51-1.47a7.65,7.65,0,0,1,4-1.09c3.76,0,4.67,2.56,4.67,5v4.59a16.55,16.55,0,0,0,.21,3Zm-.33-6.27c-2.44,0-5.21.38-5.21,2.76a2,2,0,0,0,2.11,2.14,3.06,3.06,0,0,0,3-2.06,2.53,2.53,0,0,0,.13-.71Z"/><path class="cls-3" d="M146.8,274.94a5.78,5.78,0,0,0,2.95.89c1.62,0,2.39-.81,2.39-1.83s-.64-1.65-2.29-2.26c-2.21-.78-3.25-2-3.25-3.47,0-2,1.6-3.61,4.24-3.61a6.19,6.19,0,0,1,3,.76l-.56,1.63a4.72,4.72,0,0,0-2.51-.71c-1.32,0-2.06.76-2.06,1.67s.74,1.47,2.34,2.08c2.13.82,3.22,1.88,3.22,3.71,0,2.16-1.67,3.68-4.59,3.68a7,7,0,0,1-3.45-.84Z"/><path class="cls-3" d="M158.41,271.49c.05,3,2,4.27,4.21,4.27a8,8,0,0,0,3.4-.64l.38,1.6a9.83,9.83,0,0,1-4.08.76c-3.79,0-6-2.49-6-6.19s2.19-6.63,5.77-6.63c4,0,5.08,3.53,5.08,5.79a9.4,9.4,0,0,1-.08,1Zm6.55-1.6c0-1.42-.59-3.63-3.1-3.63-2.26,0-3.25,2.08-3.43,3.63Z"/><path class="cls-3" d="M177.75,261.49a1.31,1.31,0,0,1-1.42,1.37,1.33,1.33,0,0,1-1.35-1.37,1.37,1.37,0,0,1,1.4-1.4A1.33,1.33,0,0,1,177.75,261.49Zm-2.49,15.74V264.94h2.24v12.29Z"/><path class="cls-3" d="M191.82,259.2v14.86c0,1.09,0,2.33.1,3.17h-2l-.1-2.13h-.05a4.54,4.54,0,0,1-4.19,2.41c-3,0-5.25-2.52-5.25-6.25,0-4.09,2.51-6.6,5.51-6.6a4.11,4.11,0,0,1,3.7,1.88h.05V259.2Zm-2.24,10.74a3.76,3.76,0,0,0-.1-.94,3.29,3.29,0,0,0-3.22-2.59c-2.31,0-3.68,2-3.68,4.75,0,2.49,1.21,4.55,3.63,4.55a3.35,3.35,0,0,0,3.27-2.67,3.75,3.75,0,0,0,.1-1Z"/><path class="cls-3" d="M196.77,271.49c0,3,2,4.27,4.21,4.27a8,8,0,0,0,3.4-.64l.39,1.6a9.93,9.93,0,0,1-4.09.76c-3.79,0-6.05-2.49-6.05-6.19s2.19-6.63,5.77-6.63c4,0,5.08,3.53,5.08,5.79a7.43,7.43,0,0,1-.08,1Zm6.55-1.6c0-1.42-.59-3.63-3.1-3.63-2.26,0-3.25,2.08-3.43,3.63Z"/><path class="cls-3" d="M208.24,268.27c0-1.27,0-2.31-.1-3.33h2l.13,2h.05a4.51,4.51,0,0,1,4.06-2.31c1.7,0,4.34,1,4.34,5.23v7.34h-2.23v-7.09c0-2-.74-3.63-2.84-3.63a3.18,3.18,0,0,0-3,2.29,3.26,3.26,0,0,0-.15,1v7.39h-2.24Z"/><path class="cls-3" d="M224.92,261.41v3.53h3.2v1.7h-3.2v6.63c0,1.52.44,2.38,1.68,2.38a4.76,4.76,0,0,0,1.29-.15l.11,1.68a5.48,5.48,0,0,1-2,.3,3.11,3.11,0,0,1-2.42-.94,4.57,4.57,0,0,1-.86-3.2v-6.7h-1.9v-1.7h1.9V262Z"/><path class="cls-3" d="M233.12,261.49a1.38,1.38,0,0,1-2.76,0,1.36,1.36,0,0,1,1.39-1.4A1.33,1.33,0,0,1,233.12,261.49Zm-2.48,15.74V264.94h2.23v12.29Z"/><path class="cls-3" d="M236.8,277.23V266.64h-1.72v-1.7h1.72v-.66c0-3.25,1.91-5.36,5.36-5.36a6.27,6.27,0,0,1,3.13.81l-.64,1.71a4.7,4.7,0,0,0-2.59-.72c-2.36,0-3.05,1.66-3.05,3.61v.61h7.14v12.29h-2.21V266.64H239v10.59Z"/><path class="cls-3" d="M258.61,276.77a8.11,8.11,0,0,1-3.53.71c-3.7,0-6.11-2.51-6.11-6.27a6.24,6.24,0,0,1,6.6-6.52,7.48,7.48,0,0,1,3.09.63l-.5,1.73a5.13,5.13,0,0,0-2.59-.59c-2.82,0-4.34,2.09-4.34,4.65,0,2.84,1.82,4.6,4.26,4.6a6.31,6.31,0,0,0,2.74-.61Z"/><path class="cls-3" d="M268,277.23l-.17-1.55h-.08a4.61,4.61,0,0,1-3.76,1.83,3.5,3.5,0,0,1-3.76-3.53c0-3,2.64-4.6,7.39-4.57v-.26a2.53,2.53,0,0,0-2.79-2.84,6.2,6.2,0,0,0-3.2.91l-.51-1.47a7.65,7.65,0,0,1,4-1.09c3.76,0,4.67,2.56,4.67,5v4.59a17.62,17.62,0,0,0,.2,3ZM267.7,271c-2.43,0-5.2.38-5.2,2.76a2,2,0,0,0,2.11,2.14,3.06,3.06,0,0,0,3-2.06,2.52,2.52,0,0,0,.12-.71Z"/><path class="cls-3" d="M276.06,261.41v3.53h3.19v1.7h-3.19v6.63c0,1.52.43,2.38,1.67,2.38a4.84,4.84,0,0,0,1.3-.15l.1,1.68a5.44,5.44,0,0,1-2,.3,3.09,3.09,0,0,1-2.41-.94,4.52,4.52,0,0,1-.87-3.2v-6.7H272v-1.7h1.9V262Z"/><path class="cls-3" d="M284.26,261.49a1.39,1.39,0,0,1-2.77,0,1.36,1.36,0,0,1,1.39-1.4A1.33,1.33,0,0,1,284.26,261.49Zm-2.49,15.74V264.94H284v12.29Z"/><path class="cls-3" d="M298.83,271c0,4.55-3.15,6.53-6.12,6.53-3.33,0-5.89-2.44-5.89-6.32,0-4.12,2.69-6.53,6.09-6.53S298.83,267.22,298.83,271Zm-9.75.13c0,2.69,1.55,4.72,3.73,4.72s3.73-2,3.73-4.77c0-2.08-1-4.72-3.68-4.72S289.08,268.77,289.08,271.11Z"/><path class="cls-3" d="M301.65,268.27c0-1.27,0-2.31-.11-3.33h2l.12,2h.05a4.52,4.52,0,0,1,4.07-2.31c1.7,0,4.34,1,4.34,5.23v7.34h-2.24v-7.09c0-2-.73-3.63-2.84-3.63a3.19,3.19,0,0,0-3,2.29,3.26,3.26,0,0,0-.15,1v7.39h-2.23Z"/><path class="cls-3" d="M79.14,315.73a32.23,32.23,0,0,1,4.7-.35c3.18,0,5.44.73,6.93,2.13a7.87,7.87,0,0,1,2.42,6.14,9.07,9.07,0,0,1-2.47,6.66c-1.6,1.6-4.24,2.46-7.56,2.46a37.6,37.6,0,0,1-4-.2Zm2.21,15.14a14.28,14.28,0,0,0,2.24.12c4.72,0,7.28-2.64,7.28-7.26,0-4-2.25-6.6-6.93-6.6a12.38,12.38,0,0,0-2.59.23Z"/><path class="cls-3" d="M97.32,326.88a3.93,3.93,0,0,0,4.22,4.26,8,8,0,0,0,3.4-.63l.38,1.6a10.06,10.06,0,0,1-4.09.76c-3.78,0-6-2.49-6-6.19s2.18-6.63,5.76-6.63c4,0,5.08,3.53,5.08,5.79a10.18,10.18,0,0,1-.07,1Zm6.55-1.6c0-1.42-.58-3.63-3.09-3.63-2.26,0-3.25,2.08-3.43,3.63Z"/><path class="cls-3" d="M109.66,320.33l2.41,6.9a30.36,30.36,0,0,1,1,3.15h.08c.28-1,.63-2,1-3.15l2.39-6.9h2.33l-4.82,12.29H112l-4.68-12.29Z"/><path class="cls-3" d="M122,326.88c0,3,2,4.26,4.21,4.26a8.06,8.06,0,0,0,3.41-.63l.38,1.6a10.06,10.06,0,0,1-4.09.76c-3.78,0-6-2.49-6-6.19s2.18-6.63,5.76-6.63c4,0,5.08,3.53,5.08,5.79a7.57,7.57,0,0,1-.08,1Zm6.55-1.6c0-1.42-.58-3.63-3.1-3.63-2.26,0-3.25,2.08-3.42,3.63Z"/><path class="cls-3" d="M133.48,314.59h2.23v18h-2.23Z"/><path class="cls-3" d="M150.59,326.37c0,4.55-3.15,6.53-6.12,6.53-3.33,0-5.89-2.44-5.89-6.33,0-4.11,2.69-6.52,6.09-6.52S150.59,322.61,150.59,326.37Zm-9.75.13c0,2.69,1.55,4.72,3.73,4.72s3.73-2,3.73-4.77c0-2.08-1-4.73-3.68-4.73S140.84,324.16,140.84,326.5Z"/><path class="cls-3" d="M153.41,324.34c0-1.57-.06-2.84-.11-4h2l.1,2.11h.05a4.84,4.84,0,0,1,4.37-2.39c3,0,5.2,2.51,5.2,6.24,0,4.42-2.69,6.61-5.58,6.61a4.32,4.32,0,0,1-3.79-1.93h0v6.67h-2.2Zm2.2,3.28a4.28,4.28,0,0,0,.11.91,3.43,3.43,0,0,0,3.35,2.61c2.36,0,3.73-1.93,3.73-4.74,0-2.47-1.3-4.57-3.66-4.57a3.56,3.56,0,0,0-3.37,2.76,3.48,3.48,0,0,0-.16.92Z"/><path class="cls-3" d="M167.85,323.65c0-1.27,0-2.31-.1-3.32h1.95l.11,2h.07a4.24,4.24,0,0,1,3.86-2.26,3.62,3.62,0,0,1,3.48,2.46h.05a5.08,5.08,0,0,1,1.37-1.6,4.2,4.2,0,0,1,2.72-.86c1.62,0,4,1.07,4,5.33v7.24h-2.19v-7c0-2.36-.86-3.78-2.66-3.78a2.89,2.89,0,0,0-2.64,2,3.41,3.41,0,0,0-.18,1.12v7.59h-2.19v-7.37c0-1.95-.86-3.37-2.56-3.37a3,3,0,0,0-2.77,2.23,3,3,0,0,0-.18,1.09v7.42h-2.18Z"/><path class="cls-3" d="M190.27,326.88c0,3,2,4.26,4.21,4.26a8.06,8.06,0,0,0,3.41-.63l.38,1.6a10.1,10.1,0,0,1-4.09.76c-3.78,0-6-2.49-6-6.19s2.18-6.63,5.76-6.63c4,0,5.08,3.53,5.08,5.79a7.57,7.57,0,0,1-.08,1Zm6.55-1.6c0-1.42-.58-3.63-3.1-3.63-2.26,0-3.25,2.08-3.43,3.63Z"/><path class="cls-3" d="M201.74,323.65c0-1.27,0-2.31-.1-3.32h2l.13,2h.05a4.51,4.51,0,0,1,4.06-2.31c1.7,0,4.35,1,4.35,5.23v7.34H210v-7.09c0-2-.74-3.63-2.84-3.63a3.17,3.17,0,0,0-3,2.29,3.26,3.26,0,0,0-.15,1v7.39h-2.24Z"/><path class="cls-3" d="M218.42,316.8v3.53h3.2V322h-3.2v6.63c0,1.52.44,2.38,1.68,2.38a4.9,4.9,0,0,0,1.3-.15l.1,1.68a5.67,5.67,0,0,1-2,.3,3.12,3.12,0,0,1-2.42-.94,4.57,4.57,0,0,1-.86-3.2V322h-1.9v-1.7h1.9v-2.95Z"/><path class="cls-3" d="M441,117.75h8.33c0-.47,0-.88,0-1.29,0-4.24,0-8.5.17-12.74a38.39,38.39,0,0,1,6.67-19.66l.58-.86a7.15,7.15,0,0,1-1.85-5.94,6.8,6.8,0,0,1,2.21-4.13,7,7,0,0,1,9.37,0c3.29-1.56,6.43-3.19,9.68-4.53a34.12,34.12,0,0,1,10.87-2.26c.52,0,.87-.08.86-.74,0-3.54,0-7.08,0-10.76h-9.68V51.19H501v3.55h-9.51v11.4c1.83.25,3.69.44,5.52.76a40.26,40.26,0,0,1,32.26,32.51c.13.76.41,1,1.17,1,1.83-.06,3.68,0,5.76,0l-8,13.88-8-13.84h5.86c-.54-2-.88-3.9-1.55-5.67-5.28-14.09-15.35-22.5-30.24-24.72-8.88-1.32-17.16.8-24.73,5.65a1.59,1.59,0,0,0-.87,1.77,6.86,6.86,0,0,1-8.18,7.71,1,1,0,0,0-1.18.54,33.1,33.1,0,0,0-6.06,15.69c-.5,5.38-.41,10.81-.58,16.35h85.51v3.42c-.36,0-.7.06-1,.06H441.87c-.29,0-.57,0-.85,0Zm20.79-35.94a3.51,3.51,0,1,0,0-7,3.51,3.51,0,1,0,0,7Z"/><path class="cls-3" d="M477.35,103.67c-2,.15-2,.16-2.85-1.69-.27-.58-.46-1.19-.73-1.76-.65-1.42-.79-2.67.88-3.53.23-.12.35-.56.41-.88s0-.79,0-1.16a2.28,2.28,0,0,0-1.23-2.55,1.06,1.06,0,0,1-.5-1.49c.55-1.34,1.1-2.68,1.61-4a1.34,1.34,0,0,1,1.73-.91c.55.1,1.28.29,1.64,0a7.75,7.75,0,0,0,2.13-2.18c.28-.44.06-1.24-.05-1.86s0-1.09.67-1.34c1.44-.58,2.87-1.17,4.3-1.79.58-.25,1.07-.17,1.33.4.92,2,2.77,1.43,4.31,1.47.44,0,1-.76,1.31-1.27a1.29,1.29,0,0,1,1.79-.54c1.26.56,2.53,1.08,3.81,1.58.78.3,1.16.82.88,1.63-.72,2.1,1.21,2.77,2.17,3.91.22.26,1.08,0,1.63,0,.78-.12,1.36,0,1.66.86.51,1.39,1.07,2.76,1.64,4.13a1,1,0,0,1-.47,1.41c-1.84.93-1.28,2.62-1.22,4.1,0,.36.59.77,1,1a1.41,1.41,0,0,1,.6,2c-.56,1.29-1.11,2.59-1.64,3.9a1,1,0,0,1-1.33.67,3.29,3.29,0,0,0-2,0,9.41,9.41,0,0,0-2.11,2.07c-.17.21-.06.68,0,1,.18,2.24.44,1.71-1.48,2.69a21.57,21.57,0,0,1-3.57,1.33,1.11,1.11,0,0,1-1-.29c-1-2-2.77-1.66-4.39-1.56-.48,0-1,.71-1.34,1.21a1.32,1.32,0,0,1-1.85.57c-1.33-.58-2.66-1.14-4-1.7a1,1,0,0,1-.69-1.32,3.24,3.24,0,0,0,0-1.95,9.62,9.62,0,0,0-2.07-2.11C478.16,103.6,477.7,103.7,477.35,103.67Zm1.58-3.58c.71-.25,1.27.1,1.8.9a6.75,6.75,0,0,0,1.94,2.07,2.59,2.59,0,0,1,1.42,3.21c0,.18.21.58.42.67a1.13,1.13,0,0,0,.8-.15,1.46,1.46,0,0,0,.48-.56,1.69,1.69,0,0,1,2.12-.8,6.2,6.2,0,0,0,2.53.13c1.5-.32,2.75-.32,3.56,1.25a.73.73,0,0,0,.69.17,1,1,0,0,0,.52-.64,2.21,2.21,0,0,0-.08-1,1.46,1.46,0,0,1,.72-1.75,8.11,8.11,0,0,0,2.25-2.07c.79-1.18,1.64-1.83,3.1-1.45a.81.81,0,0,0,.73-.36,1.3,1.3,0,0,0-.2-.9,1.82,1.82,0,0,0-.64-.55,1.41,1.41,0,0,1-.66-1.69,7.9,7.9,0,0,0,.08-3.06,2.38,2.38,0,0,1,1.17-2.91,1.08,1.08,0,0,0,.23-1c-.06-.19-.53-.28-.82-.38-.08,0-.21,0-.31,0a1.82,1.82,0,0,1-2.28-.93,7.26,7.26,0,0,0-2.12-2.19,2.23,2.23,0,0,1-1.2-2.77,1,1,0,0,0-.39-.9c-.22-.11-.63.16-1,.29-.09,0-.15.15-.2.24a2,2,0,0,1-2.39.93,7.43,7.43,0,0,0-3.15,0,2,2,0,0,1-2.49-1c-.24-.39-.58-1-1.14-.5a1.45,1.45,0,0,0-.32,1.14,2,2,0,0,1-1,2.37,6.11,6.11,0,0,0-1.91,1.81c-.79,1.19-1.63,2-3.17,1.45-.18-.06-.61.21-.68.4a1.28,1.28,0,0,0,.18.88,1.55,1.55,0,0,0,.63.56c.77.41.79,1,.67,1.79a7.48,7.48,0,0,0-.12,2.74c.33,1.42.13,2.46-1.2,3.2a.84.84,0,0,0-.2.78,1.1,1.1,0,0,0,.67.47A3.27,3.27,0,0,0,478.93,100.09Z"/><path class="cls-3" d="M489.69,86.06a8.76,8.76,0,0,1,8.72,8.73,8.78,8.78,0,1,1-8.72-8.73ZM489.48,100a5.22,5.22,0,1,0-5.1-5.51A5.27,5.27,0,0,0,489.48,100Z"/><path class="cls-3" d="M931.21,139.71a9.47,9.47,0,0,0-1.39-2.34q-14.36-13.05-28.79-26a2.13,2.13,0,0,0-.3-.21l-4.1,3.86-3.83-13.1,13.39,3.26-3.44,3.67q11,10,22,19.85l.19-.12c-.19-.35-.37-.71-.57-1l-8.24-14.26c-3-5.19-3.92-10.61-1.78-16.36a18.36,18.36,0,0,1,21.56-11.32,18.09,18.09,0,0,1,13.69,20.06,20.25,20.25,0,0,1-2.4,6.76c-5.15,9.16-10.49,18.22-15.76,27.31Zm.16-6.09a2.54,2.54,0,0,0,.33-.37c4.41-7.61,8.89-15.18,13.19-22.84,2.83-5,2.62-10.15-.37-15.09a15.26,15.26,0,0,0-19.83-5.67,15,15,0,0,0-7.44,19,36.32,36.32,0,0,0,2.34,4.56C923.47,120,927.4,126.75,931.37,133.62Z"/><path class="cls-3" d="M952.26,50.84c-1,5.24-4.51,9.23-6.87,13.78-1.3,2.51-2.82,4.91-4.31,7.48-.26-.37-.46-.64-.63-.92-2.88-5-5.71-10-8.64-14.94-4.27-7.19-.3-14.52,5.73-16.55l1.62-.54h3.74c.4.14.79.28,1.19.4A10.87,10.87,0,0,1,951.66,47c.27.8.4,1.64.6,2.46ZM941,66.13c.23-.31.33-.42.41-.55,2.18-3.77,4.44-7.5,6.51-11.33a10,10,0,0,0,1.23-4.08,8,8,0,0,0-5-7.47,8.12,8.12,0,0,0-8.82,1.9,7.62,7.62,0,0,0-1.44,8.87C936.05,57.69,938.51,61.8,941,66.13Z"/><path class="cls-3" d="M886.25,96.84,879,84.35c-1.57-2.73-3.19-5.43-4.71-8.19-3.42-6.21-2.53-13,2.22-17.59a14.29,14.29,0,0,1,18.61-1.18A14,14,0,0,1,899,75.47c-2.59,4.74-5.39,9.37-8.1,14.06-.2.35-.4.72-.75,1.35l33.72-15.41-2-4.86,13.69,1.57-8.22,11.08-2.21-5-6.81,3.08c-9.72,4.45-19.46,8.88-29.15,13.38A17.52,17.52,0,0,0,886.25,96.84Zm.24-5.57c3.54-6.19,7-12.14,10.33-18.14a9,9,0,0,0,.83-6.36,10.87,10.87,0,0,0-8.28-8.87,10.64,10.64,0,0,0-11.53,3.74,10.38,10.38,0,0,0-1.25,12.3C879.71,79.72,883.09,85.36,886.49,91.27Z"/><path class="cls-3" d="M922.09,103.57a9.41,9.41,0,1,1,9.43,9.44A9.42,9.42,0,0,1,922.09,103.57Zm3,0a6.43,6.43,0,1,0,6.36-6.42A6.48,6.48,0,0,0,925.09,103.57Z"/><path class="cls-3" d="M941.12,56.3a6,6,0,1,1,6-6A6,6,0,0,1,941.12,56.3Zm3-5.93a3,3,0,0,0-3-3.08,3,3,0,0,0-.11,6.05A3,3,0,0,0,944.07,50.37Z"/><path class="cls-3" d="M879,68.94a7.52,7.52,0,1,1,7.54,7.59A7.54,7.54,0,0,1,879,68.94Zm12,0a4.51,4.51,0,0,0-4.51-4.52,4.55,4.55,0,0,0,0,9.09A4.53,4.53,0,0,0,891,69Z"/><path class="cls-3" d="M1285.73,110.05c5.65-3.23,11.33-6.41,16.92-9.74a11,11,0,0,1,6.15-1.61q11.22.15,22.43,0a4.93,4.93,0,0,1,5.27,4.75c.11,2.73-2.09,4.74-5.16,4.82-.06,0-.13,0-.24.17,1.56.49,3.12,1,4.7,1.43a2.25,2.25,0,0,0,1.12-.3l22.46-8.66a4.32,4.32,0,0,1,6.06,3.11,4.27,4.27,0,0,1-2,4.53q-10.39,6.95-20.81,13.85l-7.51,5-1.67-2.47c.36-.25.67-.48,1-.69l26.75-17.8c1.23-.83,1.54-1.42,1.13-2.19s-1.06-.88-2.42-.36q-11.55,4.47-23.11,8.91a2.25,2.25,0,0,1-1.42.12c-7.81-2.43-15.62-4.91-23.43-7.38a.43.43,0,0,1-.32-.26h1c6.18,0,12.37,0,18.56,0a2.76,2.76,0,0,0,1.87-.8,1.71,1.71,0,0,0-1.17-2.71,4.13,4.13,0,0,0-.79,0q-12,0-24,0a3,3,0,0,0-1.4.34q-8.1,4.59-16.19,9.21a1.16,1.16,0,0,0-.76,1.13c0,5.06,0,10.12,0,15.18,0,.13,0,.26.06.51.3-.14.56-.24.81-.37,4.2-2.16,8.38-4.36,12.61-6.44a5.11,5.11,0,0,1,2.66-.38c3,.29,6,.72,9.11,1.1l.69-5,11,8.42L1313,130.75l.73-5.75c-3.18-.41-6.29-.83-9.4-1.18a2.3,2.3,0,0,0-1.2.37l-16.35,8.51a9.86,9.86,0,0,1-1,.38Z"/><path class="cls-3" d="M1365.73,85.64c-.7,1.73-1.41,3.46-2.1,5.2a1,1,0,0,1-1.31.71c-1.58-.43-2.64.09-3.85,1.28s-1.89,2.38-1.44,4.07a.94.94,0,0,1-.64,1.24l-4.75,2a.83.83,0,0,1-1.18-.34,3.89,3.89,0,0,0-3.94-2c-1.69,0-2.81.37-3.62,1.78a1,1,0,0,1-1.49.49q-2.31-1-4.64-2c-.5-.21-.76-.54-.61-1.07.51-1.83-.19-3-1.56-4.33-1.12-1.07-2.06-1.58-3.51-1.18a1.19,1.19,0,0,1-1.6-.85c-.58-1.51-1.19-3-1.8-4.5a1,1,0,0,1,.43-1.34c1.55-.84,1.78-2.12,1.78-3.81a3.23,3.23,0,0,0-1.63-3.19,1.16,1.16,0,0,1-.52-1.65c.64-1.52,1.25-3,1.88-4.57a.88.88,0,0,1,1.15-.64c1.65.46,2.77-.06,4-1.34s1.82-2.28,1.37-3.91a1.05,1.05,0,0,1,.75-1.38c1.57-.62,3.11-1.28,4.67-1.91a.83.83,0,0,1,1.17.36,3.88,3.88,0,0,0,4,2c1.65-.05,2.77-.36,3.56-1.73a1.12,1.12,0,0,1,1.64-.5c1.55.66,3.1,1.29,4.62,2a1.06,1.06,0,0,1,.48.89,4.2,4.2,0,0,0,1.53,4.35c1.18,1.1,2.18,1.62,3.68,1.23a1.08,1.08,0,0,1,1.45.77c.68,1.71,1.37,3.41,2.06,5.12v.4c-.49.37-1,.77-1.48,1.1a1.77,1.77,0,0,0-.93,1.94,20.19,20.19,0,0,1,0,2.46,1.13,1.13,0,0,0,.26.76c.69.59,1.43,1.12,2.15,1.68ZM1353.79,94c-.28-.72.14-1.19.85-1.69a8.68,8.68,0,0,0,2.38-2.21c.94-1.48,2-2.18,3.78-1.68a1,1,0,0,0,.83-.27c.81-1.06.71-1.66-.32-2.52a2.67,2.67,0,0,0-.46-.37c-.79-.41-.8-1-.69-1.83a9.36,9.36,0,0,0,.13-3.24,2.86,2.86,0,0,1,1.47-3.59,1,1,0,0,0,.42-.76c-.16-1.4-.66-1.77-2.07-1.61a6.83,6.83,0,0,0-.79.11,1.21,1.21,0,0,1-1.32-.57,14.38,14.38,0,0,0-2.91-3.06,2.57,2.57,0,0,1-1.21-3.14c.19-.8-.09-1.16-.83-1.48s-1.35-.3-1.81.47c-.18.31-.48.54-.68.85a1.23,1.23,0,0,1-1.42.55,10.37,10.37,0,0,0-3.54-.18c-1.76.37-3,.1-3.95-1.54a.93.93,0,0,0-.78-.37c-1.33.22-1.6.6-1.52,2a3.42,3.42,0,0,0,.08.79c.2.71-.07,1.1-.64,1.55a14.09,14.09,0,0,0-2.93,2.78c-.82,1.14-1.61,1.71-3,1.28-.88-.28-1.35.11-1.67,1-.25.71-.22,1.17.44,1.58.36.22.65.56,1,.8a1.14,1.14,0,0,1,.46,1.26,12,12,0,0,0-.11,3.73,2.73,2.73,0,0,1-1.42,3.33c-.61.34-.6.77-.4,1.4.3,1,.82,1.34,1.8,1.11.32-.08.66-.06,1-.13a1.1,1.1,0,0,1,1.23.53,11.56,11.56,0,0,0,2.52,2.77,3.16,3.16,0,0,1,1.64,3.81,1,1,0,0,0,.27.82c1.06.82,1.61.73,2.45-.29a7.7,7.7,0,0,0,.63-.76c.32-.53.73-.59,1.34-.51a11.74,11.74,0,0,0,3.63.19c1.72-.33,3-.12,3.87,1.5a1,1,0,0,0,.77.41c1.25-.14,1.65-.68,1.54-1.91C1353.82,94.58,1353.81,94.35,1353.79,94Z"/><path class="cls-3" d="M1319.88,45.54c1.35.57,2.7,1.15,4.06,1.71a1,1,0,0,1,.66,1.23c-.09.51-.26,1.17,0,1.54a5.94,5.94,0,0,0,1.73,1.73c.33.22,1,0,1.44,0a1,1,0,0,1,1.32.69c.31.79.71,1.56,1.06,2.34.53,1.18.68,2.2-.71,3-.68.39-.65,2.8,0,3.2,1.33.77,1.19,1.78.7,2.91-.36.82-.77,1.61-1.1,2.43a.92.92,0,0,1-1.24.64,2.19,2.19,0,0,0-2.4.8,2.23,2.23,0,0,0-.83,2.4.94.94,0,0,1-.67,1.3c-1.16.46-2.3,1-3.48,1.4a1.23,1.23,0,0,1-1.13-.34c-.83-1.57-2.29-1.21-3.56-1.14-.42,0-.85.67-1.17,1.11a1,1,0,0,1-1.27.4c-1.13-.47-2.25-.93-3.38-1.38a1,1,0,0,1-.73-1.39c.57-1.7-1-2.27-1.76-3.18-.21-.25-1,0-1.52,0a.93.93,0,0,1-1.17-.61c-.46-1.16-.94-2.31-1.42-3.47a1,1,0,0,1,.43-1.41c1.43-.72,1.1-2.05,1-3.2,0-.4-.65-.79-1.07-1.09a1,1,0,0,1-.39-1.27c.45-1.13.92-2.26,1.35-3.39a1.12,1.12,0,0,1,1.46-.78c.44.09,1.05.24,1.34,0a8.13,8.13,0,0,0,1.79-1.82c.2-.27,0-.84,0-1.25a1.26,1.26,0,0,1,.9-1.6c.67-.26,1.31-.64,2-.89,1.83-.69,1.82-.66,3.15.73a2,2,0,0,0,1,.41,2.92,2.92,0,0,0,3.48-1.81ZM1308,63.76c.64-.32,1,.13,1.47.72a8.57,8.57,0,0,0,2,2,1.82,1.82,0,0,1,.88,2,3.1,3.1,0,0,0,.29,1c.31-.18.73-.29.91-.56a1.71,1.71,0,0,1,2-.73,10.55,10.55,0,0,0,2.75,0c.75-.09,1.31-.09,1.78.62.21.31.69.44,1,.66a3.55,3.55,0,0,0,.25-1.23,1.48,1.48,0,0,1,.75-1.63,9.39,9.39,0,0,0,2-2,1.63,1.63,0,0,1,1.86-.86c.33.06.72-.22,1.08-.34a3.26,3.26,0,0,0-.63-1,1.55,1.55,0,0,1-.68-1.67,10.13,10.13,0,0,0,0-2.75,1.63,1.63,0,0,1,.69-1.85c.28-.19.39-.64.57-1a2.78,2.78,0,0,0-1.11-.29,1.58,1.58,0,0,1-1.78-.82,7,7,0,0,0-1.86-1.89,1.74,1.74,0,0,1-.93-2c.07-.29-.2-.66-.31-1-.31.18-.73.28-.9.55a1.74,1.74,0,0,1-2,.74,10.47,10.47,0,0,0-2.85,0,1.48,1.48,0,0,1-1.62-.56,3.82,3.82,0,0,0-1.1-.75,4,4,0,0,0-.25,1.24,1.54,1.54,0,0,1-.77,1.63,8.21,8.21,0,0,0-2,1.93,1.76,1.76,0,0,1-2,.92c-.28-.06-.62.17-.94.27.16.31.23.75.49.93a1.64,1.64,0,0,1,.73,2,4.55,4.55,0,0,0,0,2.17,1.91,1.91,0,0,1-.89,2.42.8.8,0,0,0-.28.71c.06.18.43.28.68.36A2,2,0,0,0,1308,63.76Z"/><path class="cls-3" d="M1346.55,91.06a9.79,9.79,0,1,1,9.93-9.73A9.8,9.8,0,0,1,1346.55,91.06Zm.08-3a6.84,6.84,0,1,0,0-13.68,6.84,6.84,0,1,0,0,13.68Z"/><path class="cls-3" d="M1316.83,65.42a6,6,0,0,1,0-12,6,6,0,1,1,0,12Zm3.05-6a3,3,0,0,0-3-3.05,3,3,0,1,0,0,6.07A3,3,0,0,0,1319.88,59.45Z"/></svg>