<svg id="Layer_1" data-name="Layer 1" xmlns="http://www.w3.org/2000/svg" viewBox="0 0 1420.87 408.97"><defs><style>.cls-1{fill:#92d1ff;}.cls-2,.cls-4,.cls-6,.cls-7{fill:none;}.cls-2{stroke:#0f9ffa;stroke-width:2.13px;}.cls-2,.cls-6,.cls-7{stroke-miterlimit:10;}.cls-3{fill:#061838;}.cls-4{stroke:#061838;stroke-miterlimit:10;stroke-width:3px;}.cls-5{fill:#bee3ff;}.cls-6,.cls-7{stroke:#92d1ff;}.cls-6{stroke-width:2.13px;}.cls-7{stroke-width:2.13px;}</style></defs><title>digital-transformation</title><polygon class="cls-1" points="477.13 0 477.13 408.96 947.13 408.96 947.13 0.09 477.13 0"/><line class="cls-2" x1="502.13" y1="170.99" x2="922.13" y2="172.13"/><path class="cls-3" d="M631.77,100.45a14.4,14.4,0,0,1-5.89,1c-7.24,0-11.64-4.53-11.64-11.47,0-7.51,5.21-12,12.18-12A13.1,13.1,0,0,1,632,79l-.91,3.31a11.21,11.21,0,0,0-4.47-.88c-4.64,0-8,2.91-8,8.4,0,5,2.95,8.22,7.95,8.22a11.59,11.59,0,0,0,4.54-.85Z"/><path class="cls-3" d="M644.12,101.12l-.27-1.82h-.1a6.13,6.13,0,0,1-4.87,2.2,4.9,4.9,0,0,1-5.18-4.91c0-4.16,3.69-6.26,9.78-6.23v-.27c0-1.08-.44-2.88-3.35-2.88a8.72,8.72,0,0,0-4.43,1.22l-.82-2.71a12,12,0,0,1,6-1.45c5.28,0,6.8,3.35,6.8,6.94v6a26.23,26.23,0,0,0,.24,4Zm-.54-8.05c-2.94-.07-5.75.57-5.75,3.08a2.19,2.19,0,0,0,2.37,2.37,3.38,3.38,0,0,0,3.25-2.27,3,3,0,0,0,.13-.91Z"/><path class="cls-3" d="M652.05,90.13c0-2.17-.07-3.93-.14-5.49h3.66l.2,2.54h.07a6.43,6.43,0,0,1,5.65-2.91c3.79,0,6.94,3.25,6.94,8.39,0,6-3.76,8.84-7.52,8.84a5.4,5.4,0,0,1-4.63-2.2h-.07v8.53h-4.16Zm4.16,4.09a3.94,3.94,0,0,0,.14,1.15A3.76,3.76,0,0,0,660,98.28c2.64,0,4.2-2.2,4.2-5.45,0-2.91-1.42-5.28-4.1-5.28a3.89,3.89,0,0,0-3.72,3.08,3.84,3.84,0,0,0-.17,1.05Z"/><path class="cls-3" d="M681.12,101.12l-.27-1.82h-.1a6.13,6.13,0,0,1-4.87,2.2,4.9,4.9,0,0,1-5.18-4.91c0-4.16,3.69-6.26,9.78-6.23v-.27c0-1.08-.44-2.88-3.35-2.88a8.72,8.72,0,0,0-4.43,1.22l-.82-2.71a11.93,11.93,0,0,1,6-1.45c5.28,0,6.8,3.35,6.8,6.94v6a26.23,26.23,0,0,0,.24,4Zm-.54-8.05c-2.94-.07-5.75.57-5.75,3.08a2.19,2.19,0,0,0,2.37,2.37,3.39,3.39,0,0,0,3.25-2.27,3,3,0,0,0,.13-.91Z"/><path class="cls-3" d="M688.91,101.12c.07-1.11.14-2.94.14-4.63V77.1h4.16v9.81h.07a6,6,0,0,1,5.28-2.64c4,0,6.9,3.35,6.87,8.36,0,5.92-3.76,8.87-7.48,8.87a5.66,5.66,0,0,1-5.21-2.85h-.07l-.21,2.47Zm4.3-6.8a4.4,4.4,0,0,0,.1,1A3.84,3.84,0,0,0,697,98.21c2.61,0,4.2-2.09,4.2-5.41,0-2.91-1.39-5.28-4.17-5.28a3.91,3.91,0,0,0-3.69,3,5.62,5.62,0,0,0-.13,1.09Z"/><path class="cls-3" d="M713.28,80a2.34,2.34,0,0,1-4.67,0,2.34,2.34,0,0,1,4.67,0Zm-4.43,21.08V84.64h4.2v16.48Z"/><path class="cls-3" d="M717.51,77.1h4.2v24h-4.2Z"/><path class="cls-3" d="M730.65,80a2.21,2.21,0,0,1-2.37,2.23A2.18,2.18,0,0,1,726,80a2.34,2.34,0,0,1,4.67,0Zm-4.44,21.08V84.64h4.2v16.48Z"/><path class="cls-3" d="M739.65,79.94v4.7h4v3.12h-4V95c0,2,.54,3,2.13,3a6.22,6.22,0,0,0,1.63-.2l.07,3.18a9.43,9.43,0,0,1-3,.4,4.79,4.79,0,0,1-3.58-1.35c-.88-1-1.29-2.44-1.29-4.6V87.76h-2.37V84.64h2.37V80.92Z"/><path class="cls-3" d="M751.2,80a2.34,2.34,0,1,1-2.34-2.27A2.23,2.23,0,0,1,751.2,80Zm-4.44,21.08V84.64H751v16.48Z"/><path class="cls-3" d="M758.37,94.05c.1,3,2.44,4.27,5.08,4.27a12.45,12.45,0,0,0,4.57-.75l.61,2.88a15.67,15.67,0,0,1-5.76,1c-5.34,0-8.49-3.28-8.49-8.32,0-4.57,2.77-8.87,8-8.87s7.11,4.4,7.11,8a11.21,11.21,0,0,1-.13,1.76Zm7.24-2.91c0-1.52-.64-4-3.41-4-2.58,0-3.66,2.34-3.83,4Z"/><path class="cls-3" d="M772.69,97.3a9.23,9.23,0,0,0,4.23,1.18c1.83,0,2.64-.74,2.64-1.82s-.68-1.69-2.71-2.41c-3.21-1.11-4.56-2.87-4.53-4.8,0-2.91,2.4-5.18,6.23-5.18a9.66,9.66,0,0,1,4.36,1l-.81,3a7.35,7.35,0,0,0-3.49-1c-1.49,0-2.3.71-2.3,1.72s.78,1.56,2.88,2.31c3,1.08,4.37,2.6,4.4,5,0,3-2.34,5.14-6.7,5.14a10.6,10.6,0,0,1-5-1.15Z"/><path class="cls-3" d="M553.9,221.84l-5.58-17.11h2.38l2.67,8.43c.74,2.31,1.37,4.39,1.83,6.4h0c.48-2,1.19-4.14,2-6.38l2.9-8.45h2.36l-6.12,17.11Z"/><path class="cls-3" d="M566.32,206.1a1.39,1.39,0,0,1-2.77,0,1.36,1.36,0,0,1,1.4-1.4A1.33,1.33,0,0,1,566.32,206.1Zm-2.49,15.74V209.55h2.23v12.29Z"/><path class="cls-3" d="M569.77,213.39c0-1.45,0-2.7-.1-3.84h2l.08,2.41h.1a3.69,3.69,0,0,1,3.4-2.69,2.49,2.49,0,0,1,.64.08v2.11a2.91,2.91,0,0,0-.76-.08,3.13,3.13,0,0,0-3,2.87,6.33,6.33,0,0,0-.1,1v6.55h-2.21Z"/><path class="cls-3" d="M581.37,206v3.53h3.2v1.7h-3.2v6.63c0,1.52.43,2.39,1.68,2.39a4.73,4.73,0,0,0,1.29-.16l.1,1.68a5.4,5.4,0,0,1-2,.3,3.09,3.09,0,0,1-2.41-.94,4.56,4.56,0,0,1-.86-3.19v-6.71h-1.91v-1.7h1.91v-2.94Z"/><path class="cls-3" d="M597.37,218.49c0,1.27,0,2.39.1,3.35h-2l-.13-2h-.05a4.62,4.62,0,0,1-4.06,2.29c-1.93,0-4.24-1.07-4.24-5.38v-7.19h2.23v6.81c0,2.33.71,3.91,2.74,3.91a3.25,3.25,0,0,0,2.95-2,3.17,3.17,0,0,0,.2-1.14v-7.54h2.24Z"/><path class="cls-3" d="M607.88,221.84l-.18-1.55h-.08a4.54,4.54,0,0,1-3.75,1.83,3.5,3.5,0,0,1-3.76-3.53c0-3,2.64-4.6,7.39-4.57v-.25a2.54,2.54,0,0,0-2.8-2.85,6.14,6.14,0,0,0-3.2.92l-.5-1.48a7.61,7.61,0,0,1,4-1.09c3.76,0,4.68,2.57,4.68,5v4.59a17.62,17.62,0,0,0,.2,3Zm-.33-6.27c-2.44,0-5.21.38-5.21,2.77a2,2,0,0,0,2.11,2.13,3.05,3.05,0,0,0,3-2.06,2.22,2.22,0,0,0,.13-.71Z"/><path class="cls-3" d="M613.31,203.81h2.23v18h-2.23Z"/><path class="cls-3" d="M621.79,206.1a1.31,1.31,0,0,1-1.42,1.37A1.33,1.33,0,0,1,619,206.1a1.37,1.37,0,0,1,1.4-1.4A1.33,1.33,0,0,1,621.79,206.1Zm-2.49,15.74V209.55h2.24v12.29Z"/><path class="cls-3" d="M623.85,220.55l5.56-7.24c.53-.66,1-1.25,1.6-1.91v-.05h-6.66v-1.8h9.37l0,1.4-5.49,7.13a24.46,24.46,0,0,1-1.57,1.93v.05h7.18v1.78h-10Z"/><path class="cls-3" d="M642.91,221.84l-.17-1.55h-.08a4.58,4.58,0,0,1-3.76,1.83,3.5,3.5,0,0,1-3.76-3.53c0-3,2.64-4.6,7.39-4.57v-.25a2.54,2.54,0,0,0-2.79-2.85,6.11,6.11,0,0,0-3.2.92l-.51-1.48a7.65,7.65,0,0,1,4-1.09c3.76,0,4.67,2.57,4.67,5v4.59a17.62,17.62,0,0,0,.2,3Zm-.33-6.27c-2.43,0-5.2.38-5.2,2.77a2,2,0,0,0,2.11,2.13,3.07,3.07,0,0,0,3-2.06,2.52,2.52,0,0,0,.12-.71Z"/><path class="cls-3" d="M650.94,206v3.53h3.19v1.7h-3.19v6.63c0,1.52.43,2.39,1.67,2.39a4.76,4.76,0,0,0,1.3-.16l.1,1.68a5.44,5.44,0,0,1-2,.3,3.09,3.09,0,0,1-2.41-.94,4.51,4.51,0,0,1-.87-3.19v-6.71h-1.9v-1.7h1.9v-2.94Z"/><path class="cls-3" d="M659.14,206.1a1.39,1.39,0,0,1-2.77,0,1.36,1.36,0,0,1,1.39-1.4A1.33,1.33,0,0,1,659.14,206.1Zm-2.49,15.74V209.55h2.23v12.29Z"/><path class="cls-3" d="M673.71,215.59c0,4.55-3.15,6.53-6.12,6.53-3.33,0-5.89-2.44-5.89-6.32,0-4.12,2.69-6.53,6.09-6.53S673.71,211.84,673.71,215.59Zm-9.75.13c0,2.69,1.55,4.72,3.73,4.72s3.73-2,3.73-4.77c0-2.08-1-4.72-3.68-4.72S664,213.39,664,215.72Z"/><path class="cls-3" d="M676.53,212.88c0-1.27,0-2.31-.11-3.33h2l.12,2h.05a4.52,4.52,0,0,1,4.07-2.31c1.7,0,4.34,1,4.34,5.23v7.34h-2.24v-7.08c0-2-.73-3.63-2.84-3.63a3.18,3.18,0,0,0-3,2.28,3.26,3.26,0,0,0-.15,1v7.39h-2.23Z"/><path class="cls-3" d="M552.91,271.85l-1.78,5.38h-2.28l5.81-17.11h2.67l5.84,17.11h-2.36L559,271.85Zm5.61-1.73-1.67-4.93c-.38-1.11-.64-2.13-.89-3.12h-.05c-.26,1-.54,2.06-.87,3.1l-1.67,4.95Z"/><path class="cls-3" d="M575.58,273.88c0,1.27,0,2.38.11,3.35h-2l-.13-2h-.05a4.64,4.64,0,0,1-4.06,2.29c-1.93,0-4.24-1.07-4.24-5.38v-7.19h2.23v6.8c0,2.34.71,3.91,2.74,3.91a3.24,3.24,0,0,0,2.95-2,3.4,3.4,0,0,0,.2-1.14v-7.54h2.23Z"/><path class="cls-3" d="M582,261.41v3.53h3.2v1.7H582v6.63c0,1.52.43,2.38,1.68,2.38a4.81,4.81,0,0,0,1.29-.15l.1,1.68a5.4,5.4,0,0,1-2,.3,3.1,3.1,0,0,1-2.41-.94,4.57,4.57,0,0,1-.86-3.2v-6.7h-1.91v-1.7h1.91V262Z"/><path class="cls-3" d="M598.66,271c0,4.55-3.15,6.53-6.12,6.53-3.32,0-5.89-2.44-5.89-6.32,0-4.12,2.69-6.53,6.1-6.53S598.66,267.22,598.66,271Zm-9.75.13c0,2.69,1.55,4.72,3.74,4.72s3.73-2,3.73-4.77c0-2.08-1-4.72-3.68-4.72S588.91,268.77,588.91,271.11Z"/><path class="cls-3" d="M601.48,268.27c0-1.27,0-2.31-.1-3.33h2l.13,2h0a4.51,4.51,0,0,1,4.06-2.31c1.7,0,4.34,1,4.34,5.23v7.34h-2.23v-7.09c0-2-.74-3.63-2.85-3.63a3.18,3.18,0,0,0-3,2.29,3.25,3.25,0,0,0-.16,1v7.39h-2.23Z"/><path class="cls-3" d="M626.69,271c0,4.55-3.15,6.53-6.12,6.53-3.32,0-5.89-2.44-5.89-6.32,0-4.12,2.69-6.53,6.1-6.53S626.69,267.22,626.69,271Zm-9.75.13c0,2.69,1.55,4.72,3.73,4.72s3.74-2,3.74-4.77c0-2.08-1-4.72-3.68-4.72S616.94,268.77,616.94,271.11Z"/><path class="cls-3" d="M629.51,268.27c0-1.27,0-2.31-.1-3.33h2l.1,2h.08a4.24,4.24,0,0,1,3.86-2.26,3.63,3.63,0,0,1,3.48,2.46h0a5.08,5.08,0,0,1,1.37-1.6,4.25,4.25,0,0,1,2.72-.86c1.62,0,4,1.07,4,5.33v7.24h-2.18v-7c0-2.36-.86-3.78-2.66-3.78a2.91,2.91,0,0,0-2.65,2,3.72,3.72,0,0,0-.17,1.12v7.59H637.2v-7.36c0-2-.86-3.38-2.56-3.38a3.06,3.06,0,0,0-2.77,2.23,3,3,0,0,0-.18,1.09v7.42h-2.18Z"/><path class="cls-3" d="M661.8,271c0,4.55-3.14,6.53-6.11,6.53-3.33,0-5.9-2.44-5.9-6.32,0-4.12,2.7-6.53,6.1-6.53S661.8,267.22,661.8,271Zm-9.75.13c0,2.69,1.55,4.72,3.74,4.72s3.73-2,3.73-4.77c0-2.08-1-4.72-3.68-4.72S652.05,268.77,652.05,271.11Z"/><path class="cls-3" d="M674.91,273.88c0,1.27,0,2.38.1,3.35h-2l-.13-2h0a4.64,4.64,0,0,1-4.06,2.29c-1.93,0-4.24-1.07-4.24-5.38v-7.19h2.23v6.8c0,2.34.71,3.91,2.74,3.91a3.24,3.24,0,0,0,3-2,3.4,3.4,0,0,0,.2-1.14v-7.54h2.24Z"/><path class="cls-3" d="M678.31,274.94a5.75,5.75,0,0,0,2.94.89c1.63,0,2.39-.81,2.39-1.83s-.64-1.65-2.29-2.26c-2.21-.78-3.25-2-3.25-3.47,0-2,1.6-3.61,4.24-3.61a6.23,6.23,0,0,1,3,.76l-.56,1.63a4.76,4.76,0,0,0-2.52-.71c-1.32,0-2,.76-2,1.67s.73,1.47,2.33,2.08c2.14.82,3.23,1.88,3.23,3.71,0,2.16-1.68,3.68-4.6,3.68a7,7,0,0,1-3.45-.84Z"/><path class="cls-3" d="M693.74,274.94a5.78,5.78,0,0,0,3,.89c1.62,0,2.38-.81,2.38-1.83s-.63-1.65-2.28-2.26c-2.21-.78-3.25-2-3.25-3.47,0-2,1.6-3.61,4.24-3.61a6.19,6.19,0,0,1,3,.76l-.56,1.63a4.72,4.72,0,0,0-2.51-.71c-1.32,0-2.06.76-2.06,1.67s.74,1.47,2.34,2.08c2.13.82,3.22,1.88,3.22,3.71,0,2.16-1.67,3.68-4.59,3.68a7,7,0,0,1-3.46-.84Z"/><path class="cls-3" d="M704.91,264.94l2.69,7.26c.28.81.59,1.78.79,2.52h.05c.23-.74.48-1.68.79-2.57l2.44-7.21H714l-3.35,8.76c-1.6,4.21-2.69,6.37-4.22,7.69a6,6,0,0,1-2.74,1.45l-.56-1.88a5.92,5.92,0,0,0,2-1.09,6.8,6.8,0,0,0,1.88-2.49,1.63,1.63,0,0,0,.17-.53,2,2,0,0,0-.15-.59l-4.54-11.32Z"/><path class="cls-3" d="M715.6,274.94a5.78,5.78,0,0,0,2.95.89c1.62,0,2.38-.81,2.38-1.83s-.63-1.65-2.28-2.26c-2.21-.78-3.25-2-3.25-3.47,0-2,1.6-3.61,4.24-3.61a6.22,6.22,0,0,1,3,.76l-.56,1.63a4.72,4.72,0,0,0-2.51-.71c-1.32,0-2.06.76-2.06,1.67s.74,1.47,2.34,2.08c2.13.82,3.22,1.88,3.22,3.71,0,2.16-1.67,3.68-4.59,3.68a7,7,0,0,1-3.46-.84Z"/><path class="cls-3" d="M728.65,261.41v3.53h3.2v1.7h-3.2v6.63c0,1.52.43,2.38,1.68,2.38a4.81,4.81,0,0,0,1.29-.15l.1,1.68a5.4,5.4,0,0,1-2,.3,3.09,3.09,0,0,1-2.41-.94,4.57,4.57,0,0,1-.86-3.2v-6.7h-1.91v-1.7h1.91V262Z"/><path class="cls-3" d="M735.46,271.49c0,3,2,4.27,4.21,4.27a8,8,0,0,0,3.4-.64l.38,1.6a9.83,9.83,0,0,1-4.08.76c-3.79,0-6-2.49-6-6.19s2.19-6.63,5.77-6.63c4,0,5.07,3.53,5.07,5.79a10,10,0,0,1-.07,1Zm6.55-1.6c0-1.42-.59-3.63-3.1-3.63-2.26,0-3.25,2.08-3.43,3.63Z"/><path class="cls-3" d="M746.93,268.27c0-1.27,0-2.31-.1-3.33h2l.1,2H749a4.24,4.24,0,0,1,3.86-2.26,3.63,3.63,0,0,1,3.48,2.46h.05a5.08,5.08,0,0,1,1.37-1.6,4.25,4.25,0,0,1,2.72-.86c1.62,0,4,1.07,4,5.33v7.24h-2.19v-7c0-2.36-.86-3.78-2.66-3.78a2.89,2.89,0,0,0-2.64,2,3.41,3.41,0,0,0-.18,1.12v7.59h-2.19v-7.36c0-2-.86-3.38-2.56-3.38a3.06,3.06,0,0,0-2.77,2.23,3.23,3.23,0,0,0-.17,1.09v7.42h-2.19Z"/><path class="cls-3" d="M767.8,274.94a5.78,5.78,0,0,0,3,.89c1.62,0,2.38-.81,2.38-1.83s-.63-1.65-2.28-2.26c-2.21-.78-3.25-2-3.25-3.47,0-2,1.6-3.61,4.24-3.61a6.22,6.22,0,0,1,3,.76l-.56,1.63a4.72,4.72,0,0,0-2.51-.71c-1.32,0-2.06.76-2.06,1.67s.74,1.47,2.34,2.08c2.13.82,3.22,1.88,3.22,3.71,0,2.16-1.67,3.68-4.59,3.68a7,7,0,0,1-3.46-.84Z"/><path class="cls-3" d="M552.35,315.5v7.16h8.28V315.5h2.24v17.12h-2.24v-8h-8.28v8h-2.21V315.5Z"/><path class="cls-3" d="M573.43,332.62l-.18-1.55h-.08a4.58,4.58,0,0,1-3.76,1.83,3.5,3.5,0,0,1-3.75-3.53c0-3,2.64-4.6,7.38-4.57v-.26a2.53,2.53,0,0,0-2.79-2.84,6.13,6.13,0,0,0-3.2.91l-.51-1.47a7.65,7.65,0,0,1,4-1.09c3.76,0,4.67,2.56,4.67,5v4.59a16.55,16.55,0,0,0,.21,2.95Zm-.33-6.27c-2.44-.06-5.21.38-5.21,2.76a2,2,0,0,0,2.11,2.14,3.06,3.06,0,0,0,3-2.06,2.53,2.53,0,0,0,.13-.71Z"/><path class="cls-3" d="M578.86,324.16c0-1.45,0-2.69-.1-3.83h2l.08,2.41h.1a3.68,3.68,0,0,1,3.4-2.69,2.51,2.51,0,0,1,.64.07v2.11a3.49,3.49,0,0,0-.77-.07,3.13,3.13,0,0,0-3,2.87,6.33,6.33,0,0,0-.1,1v6.55h-2.21Z"/><path class="cls-3" d="M597.52,314.59v14.85c0,1.1,0,2.34.1,3.18h-2l-.11-2.14h0a4.53,4.53,0,0,1-4.19,2.42c-3,0-5.25-2.52-5.25-6.25,0-4.09,2.51-6.6,5.51-6.6a4.09,4.09,0,0,1,3.7,1.88h.06v-7.34Zm-2.23,10.74a3.77,3.77,0,0,0-.11-.94A3.29,3.29,0,0,0,592,321.8c-2.31,0-3.68,2-3.68,4.75,0,2.49,1.22,4.54,3.63,4.54a3.35,3.35,0,0,0,3.27-2.66,3.74,3.74,0,0,0,.11-1Z"/><path class="cls-3" d="M602.11,320.33l1.63,6.24c.35,1.38.68,2.64.91,3.91h.08c.28-1.24.68-2.56,1.09-3.88l2-6.27h1.88l1.9,6.14c.46,1.48.81,2.77,1.09,4h.08a35.66,35.66,0,0,1,.94-4l1.75-6.17h2.21l-4,12.29h-2l-1.88-5.87a39.91,39.91,0,0,1-1.09-4h-.06a35.43,35.43,0,0,1-1.11,4.07l-2,5.84h-2l-3.71-12.29Z"/><path class="cls-3" d="M626.61,332.62l-.17-1.55h-.08a4.61,4.61,0,0,1-3.76,1.83,3.51,3.51,0,0,1-3.76-3.53c0-3,2.65-4.6,7.39-4.57v-.26a2.53,2.53,0,0,0-2.79-2.84,6.11,6.11,0,0,0-3.2.91l-.51-1.47a7.65,7.65,0,0,1,4-1.09c3.76,0,4.67,2.56,4.67,5v4.59a16.55,16.55,0,0,0,.21,2.95Zm-.33-6.27c-2.43-.06-5.2.38-5.2,2.76a2,2,0,0,0,2.11,2.14,3.06,3.06,0,0,0,3-2.06,2.52,2.52,0,0,0,.12-.71Z"/><path class="cls-3" d="M632.05,324.16c0-1.45,0-2.69-.1-3.83h1.95l.08,2.41h.1a3.68,3.68,0,0,1,3.4-2.69,2.56,2.56,0,0,1,.64.07v2.11a3.49,3.49,0,0,0-.77-.07,3.13,3.13,0,0,0-3,2.87,6.33,6.33,0,0,0-.1,1v6.55h-2.21Z"/><path class="cls-3" d="M641.34,326.88c0,3,2,4.26,4.21,4.26a8.06,8.06,0,0,0,3.41-.63l.38,1.6a10.1,10.1,0,0,1-4.09.76c-3.78,0-6-2.49-6-6.19s2.18-6.63,5.76-6.63c4,0,5.08,3.53,5.08,5.79a7.57,7.57,0,0,1-.08,1Zm6.55-1.6c0-1.42-.58-3.63-3.1-3.63-2.26,0-3.25,2.08-3.43,3.63Z"/><path class="cls-3" d="M668.81,314.59v14.85c0,1.1,0,2.34.1,3.18h-2l-.11-2.14h0a4.53,4.53,0,0,1-4.19,2.42c-3,0-5.25-2.52-5.25-6.25,0-4.09,2.51-6.6,5.51-6.6a4.09,4.09,0,0,1,3.7,1.88h.06v-7.34Zm-2.23,10.74a3.77,3.77,0,0,0-.11-.94,3.29,3.29,0,0,0-3.22-2.59c-2.31,0-3.68,2-3.68,4.75,0,2.49,1.22,4.54,3.63,4.54a3.35,3.35,0,0,0,3.27-2.66,3.74,3.74,0,0,0,.11-1Z"/><path class="cls-3" d="M673.76,326.88c0,3,2,4.26,4.21,4.26a8.06,8.06,0,0,0,3.41-.63l.38,1.6a10.1,10.1,0,0,1-4.09.76c-3.78,0-6-2.49-6-6.19s2.18-6.63,5.76-6.63c4,0,5.08,3.53,5.08,5.79a7.57,7.57,0,0,1-.08,1Zm6.55-1.6c0-1.42-.58-3.63-3.1-3.63-2.26,0-3.25,2.08-3.42,3.63Z"/><path class="cls-3" d="M684.93,330.33a5.88,5.88,0,0,0,3,.89c1.62,0,2.38-.81,2.38-1.83s-.63-1.65-2.28-2.26c-2.21-.78-3.25-2-3.25-3.48,0-2,1.6-3.6,4.24-3.6a6.11,6.11,0,0,1,3,.76l-.56,1.63a4.71,4.71,0,0,0-2.51-.72c-1.32,0-2.06.77-2.06,1.68s.74,1.47,2.34,2.08c2.13.81,3.22,1.88,3.22,3.71,0,2.16-1.67,3.68-4.59,3.68a7,7,0,0,1-3.46-.84Z"/><path class="cls-3" d="M697.78,316.87a1.39,1.39,0,0,1-2.77,0,1.36,1.36,0,0,1,1.4-1.39A1.33,1.33,0,0,1,697.78,316.87Zm-2.49,15.75V320.33h2.23v12.29Z"/><path class="cls-3" d="M711.82,320.33c-.05.89-.1,1.88-.1,3.37v7.14c0,2.82-.56,4.54-1.76,5.61a6.49,6.49,0,0,1-4.46,1.47,7.92,7.92,0,0,1-4.09-1l.56-1.7a7,7,0,0,0,3.6,1c2.29,0,4-1.19,4-4.29v-1.37h0a4.38,4.38,0,0,1-3.91,2.06c-3.05,0-5.23-2.59-5.23-6,0-4.16,2.72-6.52,5.54-6.52a4.09,4.09,0,0,1,3.83,2.13h0l.1-1.85Zm-2.31,4.85a3.28,3.28,0,0,0-.13-1,3.23,3.23,0,0,0-3.12-2.36c-2.14,0-3.66,1.8-3.66,4.65,0,2.41,1.22,4.42,3.63,4.42a3.27,3.27,0,0,0,3.1-2.29,3.78,3.78,0,0,0,.18-1.19Z"/><path class="cls-3" d="M715.27,323.65c0-1.27,0-2.31-.1-3.32h2l.13,2h.05a4.51,4.51,0,0,1,4.06-2.31c1.7,0,4.34,1,4.34,5.23v7.34H723.5v-7.09c0-2-.74-3.63-2.85-3.63a3.17,3.17,0,0,0-3,2.29,3.25,3.25,0,0,0-.16,1v7.39h-2.23Z"/><path class="cls-3" d="M741.55,332.62l-.18-1.55h-.08a4.57,4.57,0,0,1-3.75,1.83,3.51,3.51,0,0,1-3.76-3.53c0-3,2.64-4.6,7.39-4.57v-.26a2.54,2.54,0,0,0-2.8-2.84,6.13,6.13,0,0,0-3.2.91l-.5-1.47a7.61,7.61,0,0,1,4-1.09c3.76,0,4.68,2.56,4.68,5v4.59a17.62,17.62,0,0,0,.2,2.95Zm-.33-6.27c-2.44-.06-5.21.38-5.21,2.76a2,2,0,0,0,2.11,2.14,3.05,3.05,0,0,0,3-2.06,2.22,2.22,0,0,0,.13-.71Z"/><path class="cls-3" d="M747,323.65c0-1.27,0-2.31-.1-3.32h2l.13,2h0a4.51,4.51,0,0,1,4.06-2.31c1.7,0,4.34,1,4.34,5.23v7.34h-2.23v-7.09c0-2-.74-3.63-2.85-3.63a3.17,3.17,0,0,0-3,2.29,3.25,3.25,0,0,0-.16,1v7.39H747Z"/><path class="cls-3" d="M771.68,314.59v14.85c0,1.1,0,2.34.11,3.18h-2l-.1-2.14h0a4.55,4.55,0,0,1-4.19,2.42c-3,0-5.26-2.52-5.26-6.25,0-4.09,2.52-6.6,5.51-6.6a4.12,4.12,0,0,1,3.71,1.88h.05v-7.34Zm-2.23,10.74a4.29,4.29,0,0,0-.1-.94,3.29,3.29,0,0,0-3.23-2.59c-2.31,0-3.68,2-3.68,4.75,0,2.49,1.22,4.54,3.63,4.54a3.37,3.37,0,0,0,3.28-2.66,4.25,4.25,0,0,0,.1-1Z"/><path class="cls-3" d="M780.77,324.34c0-1.57,0-2.84-.1-4h2l.1,2.11h.05a4.83,4.83,0,0,1,4.37-2.39c3,0,5.2,2.51,5.2,6.24,0,4.42-2.69,6.61-5.58,6.61A4.32,4.32,0,0,1,783,331h0v6.67h-2.21Zm2.21,3.28a5.07,5.07,0,0,0,.1.91,3.44,3.44,0,0,0,3.35,2.61c2.37,0,3.74-1.93,3.74-4.74,0-2.47-1.3-4.57-3.66-4.57a3.58,3.58,0,0,0-3.38,2.76,3.93,3.93,0,0,0-.15.92Z"/><path class="cls-3" d="M795.22,324.16c0-1.45,0-2.69-.1-3.83h2l.08,2.41h.1a3.68,3.68,0,0,1,3.4-2.69,2.51,2.51,0,0,1,.64.07v2.11a3.49,3.49,0,0,0-.77-.07,3.13,3.13,0,0,0-3,2.87,6.33,6.33,0,0,0-.1,1v6.55h-2.21Z"/><path class="cls-3" d="M814.39,326.37c0,4.55-3.15,6.53-6.12,6.53-3.33,0-5.89-2.44-5.89-6.33,0-4.11,2.69-6.52,6.09-6.52S814.39,322.61,814.39,326.37Zm-9.75.13c0,2.69,1.55,4.72,3.73,4.72s3.73-2,3.73-4.77c0-2.08-1-4.73-3.68-4.73S804.64,324.16,804.64,326.5Z"/><path class="cls-3" d="M819.9,316.8v3.53h3.19V322H819.9v6.63c0,1.52.43,2.38,1.67,2.38a4.84,4.84,0,0,0,1.3-.15l.1,1.68a5.67,5.67,0,0,1-2,.3,3.09,3.09,0,0,1-2.41-.94,4.52,4.52,0,0,1-.87-3.2V322h-1.9v-1.7h1.9v-2.95Z"/><path class="cls-3" d="M836.58,326.37c0,4.55-3.15,6.53-6.12,6.53-3.33,0-5.89-2.44-5.89-6.33,0-4.11,2.69-6.52,6.09-6.52S836.58,322.61,836.58,326.37Zm-9.75.13c0,2.69,1.54,4.72,3.73,4.72s3.73-2,3.73-4.77c0-2.08-1-4.73-3.68-4.73S826.83,324.16,826.83,326.5Z"/><path class="cls-3" d="M842.08,316.8v3.53h3.2V322h-3.2v6.63c0,1.52.44,2.38,1.68,2.38a4.9,4.9,0,0,0,1.3-.15l.1,1.68a5.67,5.67,0,0,1-2,.3,3.12,3.12,0,0,1-2.42-.94,4.57,4.57,0,0,1-.86-3.2V322H838v-1.7h1.9v-2.95Z"/><path class="cls-3" d="M848.84,320.33l2.69,7.26c.28.81.58,1.78.79,2.51h0c.22-.73.48-1.67.78-2.56l2.44-7.21H858l-3.35,8.76c-1.6,4.21-2.69,6.37-4.21,7.69a6,6,0,0,1-2.75,1.45l-.56-1.88a5.92,5.92,0,0,0,2-1.09,6.8,6.8,0,0,0,1.88-2.49,1.71,1.71,0,0,0,.18-.53,1.79,1.79,0,0,0-.16-.59l-4.54-11.32Z"/><path class="cls-3" d="M860,324.34c0-1.57-.05-2.84-.1-4h2l.1,2.11h0a4.83,4.83,0,0,1,4.37-2.39c3,0,5.2,2.51,5.2,6.24,0,4.42-2.69,6.61-5.58,6.61a4.32,4.32,0,0,1-3.79-1.93h0v6.67H860Zm2.21,3.28a5.07,5.07,0,0,0,.1.91,3.44,3.44,0,0,0,3.35,2.61c2.37,0,3.74-1.93,3.74-4.74,0-2.47-1.3-4.57-3.66-4.57a3.58,3.58,0,0,0-3.38,2.76,3.93,3.93,0,0,0-.15.92Z"/><path class="cls-3" d="M876.92,316.87a1.39,1.39,0,0,1-2.77,0,1.36,1.36,0,0,1,1.39-1.39A1.33,1.33,0,0,1,876.92,316.87Zm-2.49,15.75V320.33h2.23v12.29Z"/><path class="cls-3" d="M880.37,323.65c0-1.27,0-2.31-.1-3.32h2l.12,2h0a4.53,4.53,0,0,1,4.07-2.31c1.7,0,4.34,1,4.34,5.23v7.34h-2.24v-7.09c0-2-.73-3.63-2.84-3.63a3.19,3.19,0,0,0-3,2.29,3.26,3.26,0,0,0-.15,1v7.39h-2.23Z"/><path class="cls-3" d="M905.05,320.33c0,.89-.1,1.88-.1,3.37v7.14c0,2.82-.56,4.54-1.76,5.61a6.49,6.49,0,0,1-4.47,1.47,7.91,7.91,0,0,1-4.08-1l.56-1.7a7,7,0,0,0,3.6,1c2.29,0,4-1.19,4-4.29v-1.37h0a4.38,4.38,0,0,1-3.91,2.06c-3,0-5.23-2.59-5.23-6,0-4.16,2.72-6.52,5.54-6.52a4.09,4.09,0,0,1,3.83,2.13h0l.1-1.85Zm-2.31,4.85a3.28,3.28,0,0,0-.13-1,3.23,3.23,0,0,0-3.12-2.36c-2.14,0-3.66,1.8-3.66,4.65,0,2.41,1.22,4.42,3.63,4.42a3.27,3.27,0,0,0,3.1-2.29,3.78,3.78,0,0,0,.18-1.19Z"/><circle class="cls-4" cx="521.48" cy="215" r="4.5"/><circle class="cls-4" cx="521.48" cy="270.31" r="4.5"/><circle class="cls-4" cx="521.48" cy="325.62" r="4.5"/><polygon class="cls-5" points="954.26 0.12 954.26 408.87 1424.26 408.87 1424.26 0 954.26 0.12"/><line class="cls-6" x1="973.36" y1="170.99" x2="1393.36" y2="170.93"/><path class="cls-3" d="M1021.46,204.93a25.36,25.36,0,0,1,4.24-.33,7,7,0,0,1,4.8,1.42,4.6,4.6,0,0,1,1.5,3.58,5.06,5.06,0,0,1-1.32,3.66,7.11,7.11,0,0,1-5.23,1.88,7.45,7.45,0,0,1-1.78-.16v6.86h-2.21Zm2.21,8.25a7.24,7.24,0,0,0,1.83.18c2.66,0,4.29-1.3,4.29-3.66s-1.6-3.35-4-3.35a9.33,9.33,0,0,0-2.08.18Z"/><path class="cls-3" d="M1041,221.84l-.18-1.55h-.08a4.54,4.54,0,0,1-3.75,1.83,3.5,3.5,0,0,1-3.76-3.53c0-3,2.64-4.6,7.39-4.57v-.25a2.54,2.54,0,0,0-2.8-2.85,6.14,6.14,0,0,0-3.2.92l-.5-1.48a7.58,7.58,0,0,1,4-1.09c3.76,0,4.68,2.57,4.68,5v4.59a17.62,17.62,0,0,0,.2,3Zm-.33-6.27c-2.44,0-5.21.38-5.21,2.77a2,2,0,0,0,2.11,2.13,3.06,3.06,0,0,0,3-2.06,2.22,2.22,0,0,0,.13-.71Z"/><path class="cls-3" d="M1046.47,213.56c0-1.57,0-2.84-.1-4h2l.11,2.11h0a4.82,4.82,0,0,1,4.36-2.39c3,0,5.21,2.52,5.21,6.25,0,4.42-2.69,6.6-5.59,6.6a4.31,4.31,0,0,1-3.78-1.93h0v6.68h-2.21Zm2.21,3.28a5.07,5.07,0,0,0,.1.91,3.45,3.45,0,0,0,3.35,2.62c2.36,0,3.73-1.93,3.73-4.75,0-2.46-1.29-4.57-3.65-4.57a3.56,3.56,0,0,0-3.38,2.77,3.47,3.47,0,0,0-.15.91Z"/><path class="cls-3" d="M1062.16,216.1c0,3,2,4.27,4.21,4.27a8,8,0,0,0,3.41-.64l.38,1.6a9.93,9.93,0,0,1-4.09.76c-3.78,0-6-2.48-6-6.19s2.18-6.63,5.76-6.63c4,0,5.08,3.53,5.08,5.79a7.43,7.43,0,0,1-.08,1Zm6.55-1.6c0-1.42-.58-3.63-3.1-3.63-2.26,0-3.25,2.08-3.43,3.63Z"/><path class="cls-3" d="M1073.63,213.39c0-1.45,0-2.7-.1-3.84h2l.07,2.41h.11a3.67,3.67,0,0,1,3.4-2.69,2.41,2.41,0,0,1,.63.08v2.11a2.86,2.86,0,0,0-.76-.08,3.13,3.13,0,0,0-3,2.87,5.35,5.35,0,0,0-.11,1v6.55h-2.21Z"/><path class="cls-3" d="M1082,203.81h2.23v18H1082Z"/><path class="cls-3" d="M1089.27,216.1c0,3,2,4.27,4.22,4.27a8,8,0,0,0,3.4-.64l.38,1.6a9.89,9.89,0,0,1-4.09.76c-3.78,0-6-2.48-6-6.19s2.18-6.63,5.76-6.63c4,0,5.08,3.53,5.08,5.79a10,10,0,0,1-.07,1Zm6.55-1.6c0-1.42-.58-3.63-3.09-3.63-2.26,0-3.25,2.08-3.43,3.63Z"/><path class="cls-3" d="M1100.44,219.56a5.88,5.88,0,0,0,3,.88c1.62,0,2.39-.81,2.39-1.82s-.64-1.65-2.29-2.26c-2.21-.79-3.25-2-3.25-3.48,0-2,1.6-3.61,4.24-3.61a6.16,6.16,0,0,1,3,.76l-.56,1.63a4.72,4.72,0,0,0-2.51-.71c-1.32,0-2.06.76-2.06,1.67s.74,1.48,2.34,2.09c2.13.81,3.22,1.87,3.22,3.7,0,2.16-1.67,3.68-4.59,3.68a7.06,7.06,0,0,1-3.45-.83Z"/><path class="cls-3" d="M1110.5,219.56a5.87,5.87,0,0,0,2.94.88c1.63,0,2.39-.81,2.39-1.82s-.63-1.65-2.29-2.26c-2.2-.79-3.25-2-3.25-3.48,0-2,1.6-3.61,4.25-3.61a6.22,6.22,0,0,1,3,.76l-.56,1.63a4.73,4.73,0,0,0-2.52-.71c-1.32,0-2,.76-2,1.67s.73,1.48,2.33,2.09c2.14.81,3.23,1.87,3.23,3.7,0,2.16-1.68,3.68-4.6,3.68a7.09,7.09,0,0,1-3.45-.83Z"/><path class="cls-3" d="M1137.36,215.59c0,4.55-3.15,6.53-6.12,6.53-3.33,0-5.89-2.44-5.89-6.32,0-4.12,2.69-6.53,6.09-6.53S1137.36,211.84,1137.36,215.59Zm-9.75.13c0,2.69,1.55,4.72,3.73,4.72s3.73-2,3.73-4.77c0-2.08-1-4.72-3.68-4.72S1127.61,213.39,1127.61,215.72Z"/><path class="cls-3" d="M1140.18,213.56c0-1.57,0-2.84-.1-4h2l.1,2.11h0a4.84,4.84,0,0,1,4.37-2.39c3,0,5.21,2.52,5.21,6.25,0,4.42-2.7,6.6-5.59,6.6a4.29,4.29,0,0,1-3.78-1.93h0v6.68h-2.21Zm2.21,3.28a5.07,5.07,0,0,0,.1.91,3.44,3.44,0,0,0,3.35,2.62c2.36,0,3.73-1.93,3.73-4.75,0-2.46-1.29-4.57-3.66-4.57a3.56,3.56,0,0,0-3.37,2.77,3.47,3.47,0,0,0-.15.91Z"/><path class="cls-3" d="M1155.87,216.1c.05,3,2,4.27,4.21,4.27a8,8,0,0,0,3.4-.64l.38,1.6a9.83,9.83,0,0,1-4.08.76c-3.79,0-6-2.48-6-6.19s2.19-6.63,5.77-6.63c4,0,5.08,3.53,5.08,5.79a9.4,9.4,0,0,1-.08,1Zm6.55-1.6c0-1.42-.59-3.63-3.1-3.63-2.26,0-3.25,2.08-3.43,3.63Z"/><path class="cls-3" d="M1167.34,213.39c0-1.45,0-2.7-.1-3.84h2l.07,2.41h.1a3.69,3.69,0,0,1,3.41-2.69,2.41,2.41,0,0,1,.63.08v2.11a2.91,2.91,0,0,0-.76-.08,3.13,3.13,0,0,0-3,2.87,6.33,6.33,0,0,0-.1,1v6.55h-2.21Z"/><path class="cls-3" d="M1182.32,221.84l-.18-1.55h-.07a4.58,4.58,0,0,1-3.76,1.83,3.5,3.5,0,0,1-3.76-3.53c0-3,2.64-4.6,7.39-4.57v-.25a2.54,2.54,0,0,0-2.79-2.85,6.11,6.11,0,0,0-3.2.92l-.51-1.48a7.65,7.65,0,0,1,4-1.09c3.76,0,4.67,2.57,4.67,5v4.59a17.62,17.62,0,0,0,.2,3Zm-.33-6.27c-2.44,0-5.2.38-5.2,2.77a2,2,0,0,0,2.1,2.13,3.08,3.08,0,0,0,3-2.06,2.52,2.52,0,0,0,.12-.71Z"/><path class="cls-3" d="M1190.34,206v3.53h3.2v1.7h-3.2v6.63c0,1.52.44,2.39,1.68,2.39a4.82,4.82,0,0,0,1.3-.16l.1,1.68a5.44,5.44,0,0,1-2,.3,3.12,3.12,0,0,1-2.42-.94,4.56,4.56,0,0,1-.86-3.19v-6.71h-1.9v-1.7h1.9v-2.94Z"/><path class="cls-3" d="M1198.54,206.1a1.31,1.31,0,0,1-1.42,1.37,1.33,1.33,0,0,1-1.34-1.37,1.36,1.36,0,0,1,1.39-1.4A1.33,1.33,0,0,1,1198.54,206.1Zm-2.48,15.74V209.55h2.23v12.29Z"/><path class="cls-3" d="M1213.12,215.59c0,4.55-3.15,6.53-6.12,6.53-3.33,0-5.89-2.44-5.89-6.32,0-4.12,2.69-6.53,6.09-6.53S1213.12,211.84,1213.12,215.59Zm-9.75.13c0,2.69,1.55,4.72,3.73,4.72s3.73-2,3.73-4.77c0-2.08-1-4.72-3.68-4.72S1203.37,213.39,1203.37,215.72Z"/><path class="cls-3" d="M1215.94,212.88c0-1.27,0-2.31-.11-3.33h2l.13,2h0a4.51,4.51,0,0,1,4.06-2.31c1.71,0,4.35,1,4.35,5.23v7.34h-2.24v-7.08c0-2-.73-3.63-2.84-3.63a3.18,3.18,0,0,0-3,2.28,3.26,3.26,0,0,0-.15,1v7.39h-2.23Z"/><path class="cls-3" d="M1229.72,219.56a5.88,5.88,0,0,0,3,.88c1.62,0,2.38-.81,2.38-1.82s-.63-1.65-2.28-2.26c-2.21-.79-3.25-2-3.25-3.48,0-2,1.6-3.61,4.24-3.61a6.22,6.22,0,0,1,3,.76l-.56,1.63a4.72,4.72,0,0,0-2.51-.71c-1.32,0-2.06.76-2.06,1.67s.74,1.48,2.34,2.09c2.13.81,3.22,1.87,3.22,3.7,0,2.16-1.67,3.68-4.59,3.68a7.13,7.13,0,0,1-3.46-.83Z"/><path class="cls-3" d="M1023.67,260.12v17.11h-2.21V260.12Z"/><path class="cls-3" d="M1027.71,268.27c0-1.27,0-2.31-.1-3.33h2l.12,2h0a4.52,4.52,0,0,1,4.07-2.31c1.7,0,4.34,1,4.34,5.23v7.34h-2.24v-7.09c0-2-.73-3.63-2.84-3.63a3.19,3.19,0,0,0-3,2.29,3.26,3.26,0,0,0-.15,1v7.39h-2.23Z"/><path class="cls-3" d="M1044.39,261.41v3.53h3.2v1.7h-3.2v6.63c0,1.52.43,2.38,1.67,2.38a4.84,4.84,0,0,0,1.3-.15l.1,1.68a5.44,5.44,0,0,1-2,.3,3.09,3.09,0,0,1-2.41-.94,4.52,4.52,0,0,1-.87-3.2v-6.7h-1.9v-1.7h1.9V262Z"/><path class="cls-3" d="M1051.19,271.49c0,3,2,4.27,4.22,4.27a8,8,0,0,0,3.4-.64l.38,1.6a9.89,9.89,0,0,1-4.09.76c-3.78,0-6-2.49-6-6.19s2.18-6.63,5.76-6.63c4,0,5.08,3.53,5.08,5.79a7.43,7.43,0,0,1-.08,1Zm6.55-1.6c0-1.42-.58-3.63-3.1-3.63-2.26,0-3.25,2.08-3.42,3.63Z"/><path class="cls-3" d="M1073.25,264.94c0,.89-.1,1.88-.1,3.38v7.13c0,2.82-.56,4.55-1.75,5.61a6.5,6.5,0,0,1-4.47,1.48,8,8,0,0,1-4.09-1l.56-1.7a7,7,0,0,0,3.61,1c2.28,0,4-1.19,4-4.29v-1.37h0a4.4,4.4,0,0,1-3.91,2.06c-3,0-5.23-2.59-5.23-6,0-4.17,2.72-6.53,5.53-6.53a4.11,4.11,0,0,1,3.84,2.13h0l.1-1.85Zm-2.31,4.85a3.29,3.29,0,0,0-.12-1,3.23,3.23,0,0,0-3.13-2.36c-2.13,0-3.65,1.81-3.65,4.65,0,2.41,1.22,4.42,3.63,4.42a3.28,3.28,0,0,0,3.1-2.29,4.08,4.08,0,0,0,.17-1.19Z"/><path class="cls-3" d="M1076.71,268.77c0-1.44,0-2.69-.11-3.83h2l.08,2.41h.1a3.68,3.68,0,0,1,3.4-2.69,2.41,2.41,0,0,1,.63.08v2.1a3.33,3.33,0,0,0-.76-.07,3.13,3.13,0,0,0-3,2.87,6.26,6.26,0,0,0-.11,1v6.55h-2.2Z"/><path class="cls-3" d="M1091.69,277.23l-.18-1.55h-.08a4.58,4.58,0,0,1-3.76,1.83,3.5,3.5,0,0,1-3.75-3.53c0-3,2.64-4.6,7.38-4.57v-.26a2.53,2.53,0,0,0-2.79-2.84,6.23,6.23,0,0,0-3.2.91l-.51-1.47a7.65,7.65,0,0,1,4-1.09c3.76,0,4.67,2.56,4.67,5v4.59a16.55,16.55,0,0,0,.21,3Zm-.33-6.27c-2.44,0-5.21.38-5.21,2.76a2,2,0,0,0,2.11,2.14,3.06,3.06,0,0,0,3-2.06,2.53,2.53,0,0,0,.13-.71Z"/><path class="cls-3" d="M1099.71,261.41v3.53h3.2v1.7h-3.2v6.63c0,1.52.43,2.38,1.67,2.38a4.84,4.84,0,0,0,1.3-.15l.1,1.68a5.44,5.44,0,0,1-2,.3,3.09,3.09,0,0,1-2.41-.94,4.52,4.52,0,0,1-.87-3.2v-6.7h-1.9v-1.7h1.9V262Z"/><path class="cls-3" d="M1106.51,271.49c0,3,2,4.27,4.22,4.27a8,8,0,0,0,3.4-.64l.38,1.6a9.89,9.89,0,0,1-4.09.76c-3.78,0-6-2.49-6-6.19s2.18-6.63,5.76-6.63c4,0,5.08,3.53,5.08,5.79a10,10,0,0,1-.07,1Zm6.55-1.6c0-1.42-.58-3.63-3.09-3.63-2.26,0-3.25,2.08-3.43,3.63Z"/><path class="cls-3" d="M1128.6,259.2v14.86c0,1.09,0,2.33.1,3.17h-2l-.1-2.13h-.06a4.53,4.53,0,0,1-4.18,2.41c-3,0-5.26-2.52-5.26-6.25,0-4.09,2.51-6.6,5.51-6.6a4.12,4.12,0,0,1,3.71,1.88h0V259.2Zm-2.23,10.74a4.29,4.29,0,0,0-.1-.94,3.29,3.29,0,0,0-3.23-2.59c-2.31,0-3.68,2-3.68,4.75,0,2.49,1.22,4.55,3.63,4.55a3.36,3.36,0,0,0,3.28-2.67,4.25,4.25,0,0,0,.1-1Z"/><path class="cls-3" d="M1146.45,276.77a8.14,8.14,0,0,1-3.53.71c-3.71,0-6.12-2.51-6.12-6.27a6.24,6.24,0,0,1,6.6-6.52,7.57,7.57,0,0,1,3.1.63l-.51,1.73a5.1,5.1,0,0,0-2.59-.59c-2.82,0-4.34,2.09-4.34,4.65,0,2.84,1.83,4.6,4.27,4.6a6.34,6.34,0,0,0,2.74-.61Z"/><path class="cls-3" d="M1160,271c0,4.55-3.15,6.53-6.12,6.53-3.32,0-5.89-2.44-5.89-6.32,0-4.12,2.69-6.53,6.1-6.53S1160,267.22,1160,271Zm-9.75.13c0,2.69,1.55,4.72,3.73,4.72s3.74-2,3.74-4.77c0-2.08-1-4.72-3.68-4.72S1150.28,268.77,1150.28,271.11Z"/><path class="cls-3" d="M1162.85,268.27c0-1.27,0-2.31-.1-3.33h2l.1,2h.08a4.24,4.24,0,0,1,3.86-2.26,3.63,3.63,0,0,1,3.48,2.46h0a5.08,5.08,0,0,1,1.37-1.6,4.25,4.25,0,0,1,2.72-.86c1.62,0,4,1.07,4,5.33v7.24h-2.18v-7c0-2.36-.86-3.78-2.67-3.78a2.91,2.91,0,0,0-2.64,2,3.72,3.72,0,0,0-.17,1.12v7.59h-2.19v-7.36c0-2-.86-3.38-2.56-3.38a3.06,3.06,0,0,0-2.77,2.23,3,3,0,0,0-.18,1.09v7.42h-2.18Z"/><path class="cls-3" d="M1184,268.27c0-1.27,0-2.31-.1-3.33h2l.1,2h.07a4.24,4.24,0,0,1,3.86-2.26,3.63,3.63,0,0,1,3.48,2.46h0a5.21,5.21,0,0,1,1.37-1.6,4.25,4.25,0,0,1,2.72-.86c1.63,0,4,1.07,4,5.33v7.24h-2.19v-7c0-2.36-.86-3.78-2.66-3.78a2.89,2.89,0,0,0-2.64,2,3.7,3.7,0,0,0-.18,1.12v7.59h-2.18v-7.36c0-2-.87-3.38-2.57-3.38a3.07,3.07,0,0,0-2.77,2.23,3.23,3.23,0,0,0-.17,1.09v7.42H1184Z"/><path class="cls-3" d="M1215.48,273.88c0,1.27,0,2.38.1,3.35h-2l-.13-2h0a4.62,4.62,0,0,1-4.06,2.29c-1.93,0-4.24-1.07-4.24-5.38v-7.19h2.24v6.8c0,2.34.71,3.91,2.74,3.91a3.21,3.21,0,0,0,2.94-2,3.17,3.17,0,0,0,.21-1.14v-7.54h2.23Z"/><path class="cls-3" d="M1219.19,268.27c0-1.27,0-2.31-.11-3.33h2l.12,2h0a4.52,4.52,0,0,1,4.07-2.31c1.7,0,4.34,1,4.34,5.23v7.34h-2.24v-7.09c0-2-.73-3.63-2.84-3.63a3.19,3.19,0,0,0-3,2.29,3.26,3.26,0,0,0-.15,1v7.39h-2.23Z"/><path class="cls-3" d="M1235.77,261.49a1.39,1.39,0,0,1-2.77,0,1.36,1.36,0,0,1,1.39-1.4A1.33,1.33,0,0,1,1235.77,261.49Zm-2.49,15.74V264.94h2.23v12.29Z"/><path class="cls-3" d="M1248,276.77a8.18,8.18,0,0,1-3.53.71c-3.71,0-6.12-2.51-6.12-6.27a6.24,6.24,0,0,1,6.6-6.52,7.57,7.57,0,0,1,3.1.63l-.51,1.73a5.1,5.1,0,0,0-2.59-.59c-2.82,0-4.34,2.09-4.34,4.65,0,2.84,1.83,4.6,4.26,4.6a6.39,6.39,0,0,0,2.75-.61Z"/><path class="cls-3" d="M1257.4,277.23l-.18-1.55h-.08a4.58,4.58,0,0,1-3.76,1.83,3.5,3.5,0,0,1-3.75-3.53c0-3,2.64-4.6,7.39-4.57v-.26a2.54,2.54,0,0,0-2.8-2.84,6.23,6.23,0,0,0-3.2.91l-.5-1.47a7.58,7.58,0,0,1,4-1.09c3.76,0,4.67,2.56,4.67,5v4.59a17.55,17.55,0,0,0,.21,3Zm-.33-6.27c-2.44,0-5.21.38-5.21,2.76a2,2,0,0,0,2.11,2.14,3.06,3.06,0,0,0,3-2.06,2.22,2.22,0,0,0,.13-.71Z"/><path class="cls-3" d="M1265.42,261.41v3.53h3.2v1.7h-3.2v6.63c0,1.52.43,2.38,1.67,2.38a4.84,4.84,0,0,0,1.3-.15l.1,1.68a5.44,5.44,0,0,1-2,.3,3.09,3.09,0,0,1-2.41-.94,4.53,4.53,0,0,1-.86-3.2v-6.7h-1.91v-1.7h1.91V262Z"/><path class="cls-3" d="M1273.62,261.49a1.39,1.39,0,0,1-2.77,0,1.37,1.37,0,0,1,1.4-1.4A1.33,1.33,0,0,1,1273.62,261.49Zm-2.49,15.74V264.94h2.24v12.29Z"/><path class="cls-3" d="M1288.19,271c0,4.55-3.15,6.53-6.12,6.53-3.32,0-5.89-2.44-5.89-6.32,0-4.12,2.69-6.53,6.1-6.53S1288.19,267.22,1288.19,271Zm-9.75.13c0,2.69,1.55,4.72,3.73,4.72s3.74-2,3.74-4.77c0-2.08-1-4.72-3.68-4.72S1278.44,268.77,1278.44,271.11Z"/><path class="cls-3" d="M1291,268.27c0-1.27,0-2.31-.1-3.33h2l.13,2h0a4.51,4.51,0,0,1,4.06-2.31c1.7,0,4.34,1,4.34,5.23v7.34h-2.23v-7.09c0-2-.74-3.63-2.85-3.63a3.18,3.18,0,0,0-3,2.29,3,3,0,0,0-.16,1v7.39H1291Z"/><path class="cls-3" d="M1021.46,315.73a23,23,0,0,1,4.24-.35c2.36,0,3.89.43,5,1.39A4.25,4.25,0,0,1,1032,320a4.49,4.49,0,0,1-3.23,4.37v.08c1.32.45,2.11,1.67,2.52,3.45a26.91,26.91,0,0,0,1.32,4.7h-2.29a22.3,22.3,0,0,1-1.14-4.09c-.51-2.36-1.42-3.25-3.43-3.33h-2.08v7.42h-2.21Zm2.21,7.8h2.26c2.36,0,3.86-1.3,3.86-3.25,0-2.21-1.6-3.18-3.94-3.2a9.26,9.26,0,0,0-2.18.2Z"/><path class="cls-3" d="M1036.39,326.88a3.93,3.93,0,0,0,4.22,4.26,8,8,0,0,0,3.4-.63l.38,1.6a10.06,10.06,0,0,1-4.09.76c-3.78,0-6-2.49-6-6.19s2.18-6.63,5.76-6.63c4,0,5.08,3.53,5.08,5.79a7.57,7.57,0,0,1-.08,1Zm6.55-1.6c0-1.42-.58-3.63-3.1-3.63-2.26,0-3.25,2.08-3.42,3.63Z"/><path class="cls-3" d="M1047.87,323.65c0-1.27,0-2.31-.11-3.32h2l.1,2h.08a4.23,4.23,0,0,1,3.86-2.26,3.64,3.64,0,0,1,3.48,2.46h0a5.08,5.08,0,0,1,1.37-1.6,4.17,4.17,0,0,1,2.71-.86c1.63,0,4,1.07,4,5.33v7.24h-2.18v-7c0-2.36-.87-3.78-2.67-3.78a2.89,2.89,0,0,0-2.64,2,3.7,3.7,0,0,0-.18,1.12v7.59h-2.18v-7.37c0-1.95-.86-3.37-2.56-3.37a3,3,0,0,0-2.77,2.23,3,3,0,0,0-.18,1.09v7.42h-2.18Z"/><path class="cls-3" d="M1080.16,326.37c0,4.55-3.15,6.53-6.12,6.53-3.32,0-5.89-2.44-5.89-6.33,0-4.11,2.69-6.52,6.1-6.52S1080.16,322.61,1080.16,326.37Zm-9.75.13c0,2.69,1.55,4.72,3.73,4.72s3.74-2,3.74-4.77c0-2.08-1.05-4.73-3.69-4.73S1070.41,324.16,1070.41,326.5Z"/><path class="cls-3" d="M1085.67,316.8v3.53h3.2V322h-3.2v6.63c0,1.52.43,2.38,1.68,2.38a4.81,4.81,0,0,0,1.29-.15l.1,1.68a5.67,5.67,0,0,1-2,.3,3.09,3.09,0,0,1-2.41-.94,4.53,4.53,0,0,1-.86-3.2V322h-1.91v-1.7h1.91v-2.95Z"/><path class="cls-3" d="M1092.47,326.88a3.93,3.93,0,0,0,4.22,4.26,8,8,0,0,0,3.4-.63l.38,1.6a10.06,10.06,0,0,1-4.09.76c-3.78,0-6-2.49-6-6.19s2.18-6.63,5.76-6.63c4,0,5.08,3.53,5.08,5.79a10.18,10.18,0,0,1-.07,1Zm6.55-1.6c0-1.42-.58-3.63-3.09-3.63-2.26,0-3.25,2.08-3.43,3.63Z"/><path class="cls-3" d="M1110.19,320.33l2.42,6.9c.4,1.12.73,2.14,1,3.15h.07c.28-1,.64-2,1-3.15l2.39-6.9h2.34l-4.83,12.29h-2.13l-4.67-12.29Z"/><path class="cls-3" d="M1122.53,326.88a3.93,3.93,0,0,0,4.22,4.26,8,8,0,0,0,3.4-.63l.38,1.6a10.06,10.06,0,0,1-4.09.76c-3.78,0-6-2.49-6-6.19s2.18-6.63,5.76-6.63c4,0,5.08,3.53,5.08,5.79a10.18,10.18,0,0,1-.07,1Zm6.55-1.6c0-1.42-.58-3.63-3.09-3.63-2.26,0-3.25,2.08-3.43,3.63Z"/><path class="cls-3" d="M1134,314.59h2.23v7.67h0a4.19,4.19,0,0,1,1.6-1.58,4.62,4.62,0,0,1,2.29-.63c1.65,0,4.29,1,4.29,5.25v7.32h-2.23v-7.06c0-2-.74-3.66-2.85-3.66a3.2,3.2,0,0,0-3,2.24,2.6,2.6,0,0,0-.16,1.06v7.42H1134Z"/><path class="cls-3" d="M1150.59,316.87a1.39,1.39,0,0,1-2.77,0,1.36,1.36,0,0,1,1.4-1.39A1.33,1.33,0,0,1,1150.59,316.87Zm-2.49,15.75V320.33h2.23v12.29Z"/><path class="cls-3" d="M1162.8,332.16a8.3,8.3,0,0,1-3.53.71c-3.71,0-6.12-2.51-6.12-6.27a6.25,6.25,0,0,1,6.6-6.53,7.39,7.39,0,0,1,3.1.64l-.51,1.73a5.1,5.1,0,0,0-2.59-.59c-2.82,0-4.34,2.08-4.34,4.65,0,2.84,1.83,4.59,4.27,4.59a6.34,6.34,0,0,0,2.74-.61Z"/><path class="cls-3" d="M1165.41,314.59h2.24v18h-2.24Z"/><path class="cls-3" d="M1172.65,326.88c0,3,2,4.26,4.21,4.26a8.06,8.06,0,0,0,3.41-.63l.38,1.6a10.1,10.1,0,0,1-4.09.76c-3.78,0-6-2.49-6-6.19s2.18-6.63,5.76-6.63c4,0,5.08,3.53,5.08,5.79a7.57,7.57,0,0,1-.08,1Zm6.55-1.6c0-1.42-.58-3.63-3.1-3.63-2.26,0-3.25,2.08-3.43,3.63Z"/><path class="cls-3" d="M1200.12,314.59v14.85c0,1.1,0,2.34.1,3.18h-2l-.11-2.14h0a4.53,4.53,0,0,1-4.19,2.42c-3,0-5.25-2.52-5.25-6.25,0-4.09,2.51-6.6,5.51-6.6a4.09,4.09,0,0,1,3.7,1.88h.06v-7.34Zm-2.23,10.74a3.77,3.77,0,0,0-.11-.94,3.28,3.28,0,0,0-3.22-2.59c-2.31,0-3.68,2-3.68,4.75,0,2.49,1.22,4.54,3.63,4.54a3.35,3.35,0,0,0,3.27-2.66,3.74,3.74,0,0,0,.11-1Z"/><path class="cls-3" d="M1206.31,316.87a1.32,1.32,0,0,1-1.42,1.38,1.33,1.33,0,0,1-1.34-1.38,1.36,1.36,0,0,1,1.39-1.39A1.32,1.32,0,0,1,1206.31,316.87Zm-2.48,15.75V320.33h2.23v12.29Z"/><path class="cls-3" d="M1216.57,332.62l-.18-1.55h-.07a4.61,4.61,0,0,1-3.76,1.83,3.51,3.51,0,0,1-3.76-3.53c0-3,2.64-4.6,7.39-4.57v-.26a2.53,2.53,0,0,0-2.79-2.84,6.08,6.08,0,0,0-3.2.91l-.51-1.47a7.65,7.65,0,0,1,4-1.09c3.76,0,4.67,2.56,4.67,5v4.59a17.62,17.62,0,0,0,.2,2.95Zm-.33-6.27c-2.44-.06-5.2.38-5.2,2.76a2,2,0,0,0,2.1,2.14,3.05,3.05,0,0,0,3-2.06,2.22,2.22,0,0,0,.13-.71Z"/><path class="cls-3" d="M1232.59,320.33c0,.89-.1,1.88-.1,3.37v7.14c0,2.82-.56,4.54-1.75,5.61a6.51,6.51,0,0,1-4.47,1.47,8,8,0,0,1-4.09-1l.56-1.7a7,7,0,0,0,3.61,1c2.28,0,4-1.19,4-4.29v-1.37h0a4.4,4.4,0,0,1-3.91,2.06c-3,0-5.23-2.59-5.23-6,0-4.16,2.71-6.52,5.53-6.52a4.09,4.09,0,0,1,3.83,2.13h.06l.1-1.85Zm-2.31,4.85a3,3,0,0,0-.13-1,3.21,3.21,0,0,0-3.12-2.36c-2.13,0-3.66,1.8-3.66,4.65,0,2.41,1.22,4.42,3.64,4.42a3.26,3.26,0,0,0,3.09-2.29,3.78,3.78,0,0,0,.18-1.19Z"/><path class="cls-3" d="M1236,323.65c0-1.27,0-2.31-.1-3.32h2l.13,2h0a4.51,4.51,0,0,1,4.06-2.31c1.7,0,4.34,1,4.34,5.23v7.34h-2.23v-7.09c0-2-.74-3.63-2.84-3.63a3.17,3.17,0,0,0-3,2.29,3.26,3.26,0,0,0-.15,1v7.39H1236Z"/><path class="cls-3" d="M1261.26,326.37c0,4.55-3.15,6.53-6.12,6.53-3.33,0-5.89-2.44-5.89-6.33,0-4.11,2.69-6.52,6.09-6.52S1261.26,322.61,1261.26,326.37Zm-9.75.13c0,2.69,1.54,4.72,3.73,4.72s3.73-2,3.73-4.77c0-2.08-1-4.73-3.68-4.73S1251.51,324.16,1251.51,326.5Z"/><path class="cls-3" d="M1263.77,330.33a5.87,5.87,0,0,0,2.94.89c1.63,0,2.39-.81,2.39-1.83s-.63-1.65-2.28-2.26c-2.21-.78-3.25-2-3.25-3.48,0-2,1.59-3.6,4.24-3.6a6.11,6.11,0,0,1,3,.76l-.56,1.63a4.72,4.72,0,0,0-2.52-.72c-1.32,0-2,.77-2,1.68s.73,1.47,2.33,2.08c2.14.81,3.23,1.88,3.23,3.71,0,2.16-1.68,3.68-4.6,3.68a7,7,0,0,1-3.45-.84Z"/><path class="cls-3" d="M1276.82,316.8v3.53h3.2V322h-3.2v6.63c0,1.52.43,2.38,1.67,2.38a4.84,4.84,0,0,0,1.3-.15l.1,1.68a5.67,5.67,0,0,1-2,.3,3.09,3.09,0,0,1-2.41-.94,4.52,4.52,0,0,1-.87-3.2V322h-1.9v-1.7h1.9v-2.95Z"/><path class="cls-3" d="M1285,316.87a1.39,1.39,0,0,1-2.77,0,1.36,1.36,0,0,1,1.4-1.39A1.32,1.32,0,0,1,1285,316.87Zm-2.49,15.75V320.33h2.23v12.29Z"/><path class="cls-3" d="M1297.23,332.16a8.3,8.3,0,0,1-3.53.71c-3.71,0-6.12-2.51-6.12-6.27a6.25,6.25,0,0,1,6.6-6.53,7.39,7.39,0,0,1,3.1.64l-.51,1.73a5.1,5.1,0,0,0-2.59-.59c-2.81,0-4.34,2.08-4.34,4.65,0,2.84,1.83,4.59,4.27,4.59a6.34,6.34,0,0,0,2.74-.61Z"/><path class="cls-3" d="M1299.54,330.33a5.88,5.88,0,0,0,3,.89c1.62,0,2.38-.81,2.38-1.83s-.63-1.65-2.28-2.26c-2.21-.78-3.25-2-3.25-3.48,0-2,1.6-3.6,4.24-3.6a6.11,6.11,0,0,1,3,.76l-.56,1.63a4.71,4.71,0,0,0-2.51-.72c-1.32,0-2.06.77-2.06,1.68s.74,1.47,2.34,2.08c2.13.81,3.22,1.88,3.22,3.71,0,2.16-1.68,3.68-4.6,3.68A7,7,0,0,1,1299,332Z"/><circle class="cls-4" cx="996.42" cy="215" r="4.5"/><circle class="cls-4" cx="996.42" cy="270.31" r="4.5"/><circle class="cls-4" cx="996.42" cy="325.62" r="4.5"/><polygon class="cls-5" points="0 0 0 408.96 470 408.96 470 0.09 0 0"/><line class="cls-7" x1="19.1" y1="170.99" x2="439.1" y2="170.93"/><path class="cls-3" d="M159.93,96.59A11.49,11.49,0,0,0,165.45,98c2.67,0,4.16-1.25,4.16-3.11s-1.15-2.74-4.06-3.79c-3.76-1.35-6.16-3.35-6.16-6.63,0-3.73,3.11-6.57,8.05-6.57a12,12,0,0,1,5.48,1.15l-1,3.35a9.65,9.65,0,0,0-4.54-1.08c-2.64,0-3.79,1.42-3.79,2.74,0,1.76,1.32,2.57,4.37,3.76,4,1.49,5.89,3.48,5.89,6.77,0,3.65-2.78,6.83-8.67,6.83A13.52,13.52,0,0,1,159,100Z"/><path class="cls-3" d="M180.58,94.05c.1,3,2.43,4.27,5.07,4.27a12.45,12.45,0,0,0,4.57-.75l.61,2.88a15.61,15.61,0,0,1-5.75,1c-5.35,0-8.5-3.28-8.5-8.32,0-4.57,2.78-8.87,8.06-8.87s7.11,4.4,7.11,8a9.88,9.88,0,0,1-.14,1.76Zm7.24-2.91c0-1.52-.64-4-3.42-4-2.57,0-3.65,2.34-3.82,4Z"/><path class="cls-3" d="M195.1,90c0-2.24,0-3.83-.14-5.32h3.63l.13,3.15h.14a4.91,4.91,0,0,1,4.5-3.52,4.28,4.28,0,0,1,1,.1V88.3a5.62,5.62,0,0,0-1.22-.14,3.67,3.67,0,0,0-3.72,3.15,6.88,6.88,0,0,0-.14,1.29v8.52H195.1Z"/><path class="cls-3" d="M210.53,84.64,213.21,93c.47,1.46.81,2.78,1.12,4.13h.1c.3-1.35.67-2.64,1.11-4.13l2.61-8.36h4.4l-6.3,16.48h-4.09L206,84.64Z"/><path class="cls-3" d="M229.52,80a2.34,2.34,0,0,1-4.67,0,2.34,2.34,0,0,1,4.67,0Zm-4.43,21.08V84.64h4.2v16.48Z"/><path class="cls-3" d="M245.87,100.62a12.16,12.16,0,0,1-4.67.84c-5.14,0-8.49-3.28-8.49-8.39,0-4.94,3.38-8.8,9.17-8.8a10.42,10.42,0,0,1,4,.78l-.75,3.11a7.4,7.4,0,0,0-3.15-.64c-3.18,0-5.07,2.33-5,5.35,0,3.38,2.2,5.31,5,5.31a8.13,8.13,0,0,0,3.29-.64Z"/><path class="cls-3" d="M251.6,94.05c.1,3,2.43,4.27,5.07,4.27a12.45,12.45,0,0,0,4.57-.75l.61,2.88a15.61,15.61,0,0,1-5.75,1c-5.35,0-8.5-3.28-8.5-8.32,0-4.57,2.78-8.87,8.06-8.87s7.1,4.4,7.1,8a10.09,10.09,0,0,1-.13,1.76Zm7.24-2.91c0-1.52-.64-4-3.42-4-2.57,0-3.66,2.34-3.82,4Z"/><path class="cls-3" d="M265.92,97.3a9.2,9.2,0,0,0,4.23,1.18c1.82,0,2.64-.74,2.64-1.82s-.68-1.69-2.71-2.41c-3.22-1.11-4.57-2.87-4.54-4.8,0-2.91,2.41-5.18,6.23-5.18a9.67,9.67,0,0,1,4.37,1l-.82,3a7.34,7.34,0,0,0-3.48-1c-1.49,0-2.3.71-2.3,1.72s.77,1.56,2.87,2.31c3,1.08,4.37,2.6,4.4,5,0,3-2.33,5.14-6.7,5.14a10.63,10.63,0,0,1-5-1.15Z"/><path class="cls-3" d="M1102.42,78.62a34.76,34.76,0,0,1,6.06-.48c3.08,0,5,.38,6.53,1.46a4.81,4.81,0,0,1,2.37,4.26,5.32,5.32,0,0,1-3.79,5v.06a5.76,5.76,0,0,1,4.6,5.65,5.91,5.91,0,0,1-2.2,4.71c-1.62,1.42-4.3,2.13-8.46,2.13a41.64,41.64,0,0,1-5.11-.3Zm4.13,9h2.13c2.88,0,4.5-1.35,4.5-3.28,0-2.13-1.62-3.12-4.26-3.12a11.42,11.42,0,0,0-2.37.17Zm0,10.49a17.93,17.93,0,0,0,2.2.1c2.67,0,5-1,5-3.82,0-2.64-2.3-3.72-5.18-3.72h-2.06Z"/><path class="cls-3" d="M1124.86,94.05c.1,3,2.44,4.27,5.08,4.27a12.45,12.45,0,0,0,4.57-.75l.61,2.88a15.67,15.67,0,0,1-5.76,1c-5.34,0-8.49-3.28-8.49-8.32,0-4.57,2.77-8.87,8.05-8.87s7.11,4.4,7.11,8a9.88,9.88,0,0,1-.14,1.76Zm7.24-2.91c0-1.52-.64-4-3.41-4-2.58,0-3.66,2.34-3.83,4Z"/><path class="cls-3" d="M1139.38,89.55c0-1.9,0-3.49-.13-4.91h3.65l.21,2.47h.1a6,6,0,0,1,5.25-2.84c2.87,0,5.85,1.86,5.85,7.07v9.78h-4.16v-9.3c0-2.37-.88-4.17-3.15-4.17a3.5,3.5,0,0,0-3.25,2.44,4.38,4.38,0,0,0-.17,1.35v9.68h-4.2Z"/><path class="cls-3" d="M1161.69,94.05c.1,3,2.44,4.27,5.08,4.27a12.49,12.49,0,0,0,4.57-.75l.61,2.88a15.71,15.71,0,0,1-5.76,1c-5.34,0-8.49-3.28-8.49-8.32,0-4.57,2.77-8.87,8-8.87s7.11,4.4,7.11,8a9.88,9.88,0,0,1-.14,1.76Zm7.24-2.91c0-1.52-.64-4-3.41-4-2.58,0-3.66,2.34-3.83,4Z"/><path class="cls-3" d="M1176.69,101.12V87.76h-2.24V84.64h2.24v-.78c0-4.43,3.08-7.14,8-7.14a9.74,9.74,0,0,1,4.53,1l-.91,3.15a7.58,7.58,0,0,0-3.62-.88c-2.92,0-3.86,1.76-3.86,3.93v.67h9.85v16.48h-4.2V87.76h-5.62v13.36Z"/><path class="cls-3" d="M1199.91,79.94v4.7h4v3.12h-4V95c0,2,.54,3,2.13,3a6.34,6.34,0,0,0,1.63-.2l.06,3.18a9.36,9.36,0,0,1-3,.4,4.82,4.82,0,0,1-3.59-1.35c-.88-1-1.28-2.44-1.28-4.6V87.76h-2.37V84.64h2.37V80.92Z"/><path class="cls-3" d="M1206.82,97.3a9.2,9.2,0,0,0,4.23,1.18c1.82,0,2.64-.74,2.64-1.82S1213,95,1211,94.25c-3.22-1.11-4.57-2.87-4.54-4.8,0-2.91,2.41-5.18,6.23-5.18a9.67,9.67,0,0,1,4.37,1l-.82,3a7.34,7.34,0,0,0-3.48-1c-1.49,0-2.3.71-2.3,1.72s.78,1.56,2.87,2.31c3,1.08,4.37,2.6,4.4,5,0,3-2.33,5.14-6.7,5.14a10.63,10.63,0,0,1-5-1.15Z"/><circle class="cls-4" cx="51.4" cy="270.31" r="4.5"/><circle class="cls-4" cx="51.4" cy="325.62" r="4.5"/><circle class="cls-4" cx="51.4" cy="215" r="4.5"/><path class="cls-3" d="M93.57,214.32c-.13-2.38-.28-5.25-.26-7.38h-.07c-.59,2-1.3,4.13-2.16,6.5l-3,8.3H86.38l-2.77-8.15c-.81-2.41-1.49-4.62-2-6.65h0c0,2.13-.18,5-.33,7.56l-.46,7.34h-2.1l1.19-17.11H82.7L85.62,213c.71,2.11,1.29,4,1.73,5.77h.07c.43-1.73,1-3.61,1.8-5.77l3-8.27h2.82l1.07,17.11H94Z"/><path class="cls-3" d="M106.44,221.84l-.18-1.55h-.08a4.54,4.54,0,0,1-3.75,1.83,3.5,3.5,0,0,1-3.76-3.53c0-3,2.64-4.6,7.39-4.57v-.25a2.54,2.54,0,0,0-2.8-2.85,6.14,6.14,0,0,0-3.2.92l-.5-1.48a7.58,7.58,0,0,1,4-1.09c3.76,0,4.68,2.57,4.68,5v4.59a17.62,17.62,0,0,0,.2,3Zm-.33-6.27c-2.44,0-5.21.38-5.21,2.77a2,2,0,0,0,2.11,2.13,3.06,3.06,0,0,0,3-2.06,2.22,2.22,0,0,0,.13-.71Z"/><path class="cls-3" d="M114.46,206v3.53h3.2v1.7h-3.2v6.63c0,1.52.43,2.39,1.68,2.39a4.73,4.73,0,0,0,1.29-.16l.1,1.68a5.44,5.44,0,0,1-2,.3,3.09,3.09,0,0,1-2.41-.94,4.51,4.51,0,0,1-.86-3.19v-6.71h-1.91v-1.7h1.91v-2.94Z"/><path class="cls-3" d="M130.46,218.49c0,1.27,0,2.39.1,3.35h-2l-.13-2h0a4.64,4.64,0,0,1-4.06,2.29c-1.93,0-4.24-1.07-4.24-5.38v-7.19h2.23v6.81c0,2.33.71,3.91,2.74,3.91a3.25,3.25,0,0,0,3-2,3.4,3.4,0,0,0,.2-1.14v-7.54h2.24Z"/><path class="cls-3" d="M134.16,213.39c0-1.45,0-2.7-.1-3.84H136l.08,2.41h.1a3.69,3.69,0,0,1,3.4-2.69,2.43,2.43,0,0,1,.64.08v2.11a2.91,2.91,0,0,0-.76-.08,3.13,3.13,0,0,0-3,2.87,6.33,6.33,0,0,0-.1,1v6.55h-2.21Z"/><path class="cls-3" d="M145.05,206.1a1.38,1.38,0,0,1-2.76,0,1.36,1.36,0,0,1,1.39-1.4A1.33,1.33,0,0,1,145.05,206.1Zm-2.49,15.74V209.55h2.24v12.29Z"/><path class="cls-3" d="M151.2,206v3.53h3.2v1.7h-3.2v6.63c0,1.52.43,2.39,1.67,2.39a4.76,4.76,0,0,0,1.3-.16l.1,1.68a5.44,5.44,0,0,1-2,.3,3.09,3.09,0,0,1-2.41-.94A4.51,4.51,0,0,1,149,218v-6.71h-1.9v-1.7H149v-2.94Z"/><path class="cls-3" d="M158,209.55l2.69,7.26c.28.82.58,1.78.79,2.52h0c.23-.74.48-1.68.79-2.57l2.43-7.21h2.36l-3.35,8.76c-1.6,4.22-2.69,6.37-4.21,7.69a6,6,0,0,1-2.74,1.45l-.56-1.88a5.88,5.88,0,0,0,2-1.09A6.72,6.72,0,0,0,160,222a1.63,1.63,0,0,0,.18-.53,1.87,1.87,0,0,0-.15-.58l-4.55-11.33Z"/><path class="cls-3" d="M181.28,221.84l-.18-1.55H181a4.58,4.58,0,0,1-3.76,1.83,3.5,3.5,0,0,1-3.76-3.53c0-3,2.64-4.6,7.39-4.57v-.25a2.54,2.54,0,0,0-2.79-2.85,6.09,6.09,0,0,0-3.2.92l-.51-1.48a7.65,7.65,0,0,1,4-1.09c3.76,0,4.67,2.57,4.67,5v4.59a17.62,17.62,0,0,0,.2,3Zm-.33-6.27c-2.44,0-5.2.38-5.2,2.77a2,2,0,0,0,2.1,2.13,3.05,3.05,0,0,0,3-2.06,2.22,2.22,0,0,0,.13-.71Z"/><path class="cls-3" d="M186.41,219.56a5.87,5.87,0,0,0,2.94.88c1.63,0,2.39-.81,2.39-1.82s-.63-1.65-2.28-2.26c-2.21-.79-3.25-2-3.25-3.48,0-2,1.6-3.61,4.24-3.61a6.22,6.22,0,0,1,3,.76l-.56,1.63a4.72,4.72,0,0,0-2.51-.71c-1.32,0-2.06.76-2.06,1.67s.74,1.48,2.33,2.09c2.14.81,3.23,1.87,3.23,3.7,0,2.16-1.68,3.68-4.6,3.68a7.09,7.09,0,0,1-3.45-.83Z"/><path class="cls-3" d="M196.46,219.56a5.88,5.88,0,0,0,2.95.88c1.62,0,2.38-.81,2.38-1.82s-.63-1.65-2.28-2.26c-2.21-.79-3.25-2-3.25-3.48,0-2,1.6-3.61,4.24-3.61a6.19,6.19,0,0,1,3,.76l-.56,1.63a4.72,4.72,0,0,0-2.51-.71c-1.32,0-2.06.76-2.06,1.67s.74,1.48,2.34,2.09c2.13.81,3.22,1.87,3.22,3.7,0,2.16-1.67,3.68-4.59,3.68a7.13,7.13,0,0,1-3.46-.83Z"/><path class="cls-3" d="M208.07,216.1c.05,3,2,4.27,4.21,4.27a8,8,0,0,0,3.4-.64l.38,1.6a9.83,9.83,0,0,1-4.08.76c-3.79,0-6-2.48-6-6.19s2.19-6.63,5.77-6.63c4,0,5.07,3.53,5.07,5.79a10,10,0,0,1-.07,1Zm6.55-1.6c0-1.42-.59-3.63-3.1-3.63-2.26,0-3.25,2.08-3.43,3.63Z"/><path class="cls-3" d="M219.24,219.56a5.84,5.84,0,0,0,2.94.88c1.63,0,2.39-.81,2.39-1.82s-.64-1.65-2.29-2.26c-2.21-.79-3.25-2-3.25-3.48,0-2,1.6-3.61,4.24-3.61a6.16,6.16,0,0,1,3,.76l-.55,1.63a4.76,4.76,0,0,0-2.52-.71c-1.32,0-2.05.76-2.05,1.67s.73,1.48,2.33,2.09c2.13.81,3.23,1.87,3.23,3.7,0,2.16-1.68,3.68-4.6,3.68a7.09,7.09,0,0,1-3.45-.83Z"/><path class="cls-3" d="M229.29,219.56a5.88,5.88,0,0,0,3,.88c1.62,0,2.38-.81,2.38-1.82s-.63-1.65-2.28-2.26c-2.21-.79-3.25-2-3.25-3.48,0-2,1.6-3.61,4.24-3.61a6.22,6.22,0,0,1,3,.76l-.56,1.63a4.72,4.72,0,0,0-2.51-.71c-1.32,0-2.06.76-2.06,1.67s.74,1.48,2.34,2.09c2.13.81,3.22,1.87,3.22,3.7,0,2.16-1.68,3.68-4.6,3.68a7.09,7.09,0,0,1-3.45-.83Z"/><path class="cls-3" d="M239.65,212.88c0-1.27,0-2.31-.1-3.33h1.95l.1,2h.08a4.24,4.24,0,0,1,3.86-2.26,3.65,3.65,0,0,1,3.48,2.46h0a5,5,0,0,1,1.37-1.59,4.2,4.2,0,0,1,2.72-.87c1.62,0,4,1.07,4,5.33v7.24H255v-7c0-2.36-.86-3.78-2.67-3.78a2.89,2.89,0,0,0-2.64,2,3.77,3.77,0,0,0-.17,1.12v7.59h-2.19v-7.36c0-2-.86-3.38-2.56-3.38a3.33,3.33,0,0,0-2.95,3.33v7.41h-2.18Z"/><path class="cls-3" d="M262.07,216.1c.05,3,2,4.27,4.21,4.27a8,8,0,0,0,3.4-.64l.38,1.6a9.83,9.83,0,0,1-4.08.76c-3.79,0-6.05-2.48-6.05-6.19s2.19-6.63,5.77-6.63c4,0,5.08,3.53,5.08,5.79a9.4,9.4,0,0,1-.08,1Zm6.55-1.6c0-1.42-.59-3.63-3.1-3.63-2.26,0-3.25,2.08-3.43,3.63Z"/><path class="cls-3" d="M273.54,212.88c0-1.27,0-2.31-.1-3.33h2l.13,2h.05a4.51,4.51,0,0,1,4.06-2.31c1.7,0,4.34,1,4.34,5.23v7.34h-2.23v-7.08c0-2-.74-3.63-2.85-3.63a3.17,3.17,0,0,0-3,2.28,3.26,3.26,0,0,0-.15,1v7.39h-2.24Z"/><path class="cls-3" d="M290.22,206v3.53h3.2v1.7h-3.2v6.63c0,1.52.43,2.39,1.68,2.39a4.73,4.73,0,0,0,1.29-.16l.1,1.68a5.4,5.4,0,0,1-2,.3,3.1,3.1,0,0,1-2.41-.94A4.56,4.56,0,0,1,288,218v-6.71h-1.91v-1.7H288v-2.94Z"/><path class="cls-3" d="M79.14,260.34a21.8,21.8,0,0,1,4-.35c2.21,0,3.63.38,4.7,1.24a3.59,3.59,0,0,1,1.42,3A4.07,4.07,0,0,1,86.41,268v.05a4.42,4.42,0,0,1,3.53,4.29,4.62,4.62,0,0,1-1.45,3.43c-1.2,1.09-3.12,1.6-5.92,1.6a26.35,26.35,0,0,1-3.43-.2Zm2.21,7h2c2.34,0,3.71-1.22,3.71-2.87,0-2-1.53-2.79-3.76-2.79a10.08,10.08,0,0,0-2,.15Zm0,8.2a11.51,11.51,0,0,0,1.86.1c2.28,0,4.39-.83,4.39-3.32,0-2.34-2-3.3-4.42-3.3H81.35Z"/><path class="cls-3" d="M103.11,273.88c0,1.27,0,2.38.1,3.35h-2l-.12-2h0A4.64,4.64,0,0,1,97,277.51c-1.93,0-4.24-1.07-4.24-5.38v-7.19H95v6.8c0,2.34.71,3.91,2.74,3.91a3.21,3.21,0,0,0,2.94-2,3.17,3.17,0,0,0,.21-1.14v-7.54h2.23Z"/><path class="cls-3" d="M106.51,274.94a5.78,5.78,0,0,0,2.95.89c1.62,0,2.39-.81,2.39-1.83s-.64-1.65-2.29-2.26c-2.21-.78-3.25-2-3.25-3.47,0-2,1.6-3.61,4.24-3.61a6.19,6.19,0,0,1,3,.76l-.56,1.63a4.72,4.72,0,0,0-2.51-.71c-1.32,0-2.06.76-2.06,1.67s.74,1.47,2.34,2.08c2.13.82,3.22,1.88,3.22,3.71,0,2.16-1.67,3.68-4.59,3.68a7,7,0,0,1-3.45-.84Z"/><path class="cls-3" d="M119.36,261.49a1.31,1.31,0,0,1-1.42,1.37,1.33,1.33,0,0,1-1.35-1.37,1.37,1.37,0,0,1,1.4-1.4A1.33,1.33,0,0,1,119.36,261.49Zm-2.49,15.74V264.94h2.24v12.29Z"/><path class="cls-3" d="M122.81,268.27c0-1.27,0-2.31-.1-3.33h2l.13,2h.05a4.51,4.51,0,0,1,4.06-2.31c1.7,0,4.34,1,4.34,5.23v7.34H131v-7.09c0-2-.74-3.63-2.84-3.63a3.18,3.18,0,0,0-3,2.29,3.26,3.26,0,0,0-.15,1v7.39h-2.24Z"/><path class="cls-3" d="M138.15,271.49c0,3,2,4.27,4.21,4.27a8,8,0,0,0,3.4-.64l.39,1.6a9.93,9.93,0,0,1-4.09.76c-3.79,0-6.05-2.49-6.05-6.19s2.19-6.63,5.77-6.63c4,0,5.08,3.53,5.08,5.79a7.43,7.43,0,0,1-.08,1Zm6.55-1.6c0-1.42-.59-3.63-3.1-3.63-2.26,0-3.25,2.08-3.43,3.63Z"/><path class="cls-3" d="M149.32,274.94a5.78,5.78,0,0,0,2.94.89c1.63,0,2.39-.81,2.39-1.83s-.63-1.65-2.28-2.26c-2.21-.78-3.25-2-3.25-3.47,0-2,1.59-3.61,4.24-3.61a6.22,6.22,0,0,1,3,.76l-.56,1.63a4.73,4.73,0,0,0-2.52-.71c-1.32,0-2.05.76-2.05,1.67s.73,1.47,2.33,2.08c2.14.82,3.23,1.88,3.23,3.71,0,2.16-1.68,3.68-4.6,3.68a7,7,0,0,1-3.45-.84Z"/><path class="cls-3" d="M159.37,274.94a5.78,5.78,0,0,0,2.95.89c1.62,0,2.38-.81,2.38-1.83s-.63-1.65-2.28-2.26c-2.21-.78-3.25-2-3.25-3.47,0-2,1.6-3.61,4.24-3.61a6.19,6.19,0,0,1,3,.76l-.56,1.63a4.72,4.72,0,0,0-2.51-.71c-1.32,0-2.06.76-2.06,1.67s.74,1.47,2.34,2.08c2.13.82,3.22,1.88,3.22,3.71,0,2.16-1.67,3.68-4.59,3.68a7,7,0,0,1-3.46-.84Z"/><path class="cls-3" d="M183.87,276.77a8.14,8.14,0,0,1-3.53.71c-3.7,0-6.12-2.51-6.12-6.27a6.24,6.24,0,0,1,6.61-6.52,7.52,7.52,0,0,1,3.09.63l-.51,1.73a5.09,5.09,0,0,0-2.58-.59c-2.82,0-4.35,2.09-4.35,4.65,0,2.84,1.83,4.6,4.27,4.6a6.31,6.31,0,0,0,2.74-.61Z"/><path class="cls-3" d="M193.29,277.23l-.18-1.55H193a4.61,4.61,0,0,1-3.76,1.83,3.5,3.5,0,0,1-3.76-3.53c0-3,2.64-4.6,7.39-4.57v-.26a2.53,2.53,0,0,0-2.79-2.84,6.17,6.17,0,0,0-3.2.91l-.51-1.47a7.65,7.65,0,0,1,4-1.09c3.76,0,4.67,2.56,4.67,5v4.59a17.62,17.62,0,0,0,.2,3ZM193,271c-2.44,0-5.2.38-5.2,2.76a2,2,0,0,0,2.1,2.14,3.05,3.05,0,0,0,3-2.06,2.22,2.22,0,0,0,.13-.71Z"/><path class="cls-3" d="M198.42,274.94a5.78,5.78,0,0,0,2.94.89c1.63,0,2.39-.81,2.39-1.83s-.63-1.65-2.28-2.26c-2.21-.78-3.25-2-3.25-3.47,0-2,1.6-3.61,4.24-3.61a6.22,6.22,0,0,1,3,.76l-.56,1.63a4.72,4.72,0,0,0-2.51-.71c-1.33,0-2.06.76-2.06,1.67s.73,1.47,2.33,2.08c2.14.82,3.23,1.88,3.23,3.71,0,2.16-1.68,3.68-4.6,3.68a7,7,0,0,1-3.45-.84Z"/><path class="cls-3" d="M210,271.49c0,3,2,4.27,4.22,4.27a8,8,0,0,0,3.4-.64l.38,1.6a9.89,9.89,0,0,1-4.09.76c-3.78,0-6-2.49-6-6.19s2.18-6.63,5.76-6.63c4,0,5.08,3.53,5.08,5.79a7.43,7.43,0,0,1-.08,1Zm6.55-1.6c0-1.42-.58-3.63-3.1-3.63-2.26,0-3.25,2.08-3.42,3.63Z"/><path class="cls-3" d="M233.68,277.23l-.17-1.55h-.08a4.61,4.61,0,0,1-3.76,1.83,3.5,3.5,0,0,1-3.76-3.53c0-3,2.64-4.6,7.39-4.57v-.26a2.53,2.53,0,0,0-2.79-2.84,6.2,6.2,0,0,0-3.2.91l-.51-1.47a7.65,7.65,0,0,1,4-1.09c3.76,0,4.67,2.56,4.67,5v4.59a17.62,17.62,0,0,0,.2,3Zm-.33-6.27c-2.43,0-5.2.38-5.2,2.76a2,2,0,0,0,2.11,2.14,3.06,3.06,0,0,0,3-2.06,2.52,2.52,0,0,0,.12-.71Z"/><path class="cls-3" d="M239.12,268.27c0-1.27,0-2.31-.11-3.33h2l.12,2h0a4.52,4.52,0,0,1,4.07-2.31c1.7,0,4.34,1,4.34,5.23v7.34h-2.24v-7.09c0-2-.73-3.63-2.84-3.63a3.19,3.19,0,0,0-3,2.29,3.26,3.26,0,0,0-.15,1v7.39h-2.23Z"/><path class="cls-3" d="M263.82,259.2v14.86c0,1.09,0,2.33.1,3.17h-2l-.11-2.13h-.05a4.54,4.54,0,0,1-4.19,2.41c-3,0-5.25-2.52-5.25-6.25,0-4.09,2.51-6.6,5.51-6.6a4.12,4.12,0,0,1,3.71,1.88h0V259.2Zm-2.23,10.74a3.77,3.77,0,0,0-.11-.94,3.28,3.28,0,0,0-3.22-2.59c-2.31,0-3.68,2-3.68,4.75,0,2.49,1.22,4.55,3.63,4.55a3.35,3.35,0,0,0,3.27-2.67,3.74,3.74,0,0,0,.11-1Z"/><path class="cls-3" d="M272.6,274.94a5.78,5.78,0,0,0,2.95.89c1.62,0,2.39-.81,2.39-1.83s-.64-1.65-2.29-2.26c-2.21-.78-3.25-2-3.25-3.47,0-2,1.6-3.61,4.24-3.61a6.19,6.19,0,0,1,3,.76l-.56,1.63a4.72,4.72,0,0,0-2.51-.71c-1.32,0-2.06.76-2.06,1.67s.74,1.47,2.34,2.08c2.13.82,3.22,1.88,3.22,3.71,0,2.16-1.67,3.68-4.59,3.68a7,7,0,0,1-3.46-.84Z"/><path class="cls-3" d="M285.65,261.41v3.53h3.2v1.7h-3.2v6.63c0,1.52.43,2.38,1.68,2.38a4.81,4.81,0,0,0,1.29-.15l.11,1.68a5.48,5.48,0,0,1-2,.3,3.11,3.11,0,0,1-2.42-.94,4.57,4.57,0,0,1-.86-3.2v-6.7h-1.9v-1.7h1.9V262Z"/><path class="cls-3" d="M291.37,268.77c0-1.44,0-2.69-.11-3.83h2l.07,2.41h.11a3.68,3.68,0,0,1,3.4-2.69,2.41,2.41,0,0,1,.63.08v2.1a3.33,3.33,0,0,0-.76-.07,3.13,3.13,0,0,0-3,2.87,5.35,5.35,0,0,0-.11,1v6.55h-2.2Z"/><path class="cls-3" d="M306.34,277.23l-.17-1.55h-.08a4.59,4.59,0,0,1-3.76,1.83,3.49,3.49,0,0,1-3.75-3.53c0-3,2.64-4.6,7.38-4.57v-.26a2.53,2.53,0,0,0-2.79-2.84,6.2,6.2,0,0,0-3.2.91l-.51-1.47a7.65,7.65,0,0,1,4-1.09c3.76,0,4.67,2.56,4.67,5v4.59a16.55,16.55,0,0,0,.21,3ZM306,271c-2.43,0-5.2.38-5.2,2.76a2,2,0,0,0,2.11,2.14,3.06,3.06,0,0,0,3-2.06,2.52,2.52,0,0,0,.12-.71Z"/><path class="cls-3" d="M314.37,261.41v3.53h3.2v1.7h-3.2v6.63c0,1.52.43,2.38,1.67,2.38a4.84,4.84,0,0,0,1.3-.15l.1,1.68a5.44,5.44,0,0,1-2,.3,3.09,3.09,0,0,1-2.41-.94,4.52,4.52,0,0,1-.87-3.2v-6.7h-1.9v-1.7h1.9V262Z"/><path class="cls-3" d="M321.17,271.49c.05,3,2,4.27,4.22,4.27a8,8,0,0,0,3.4-.64l.38,1.6a9.89,9.89,0,0,1-4.09.76c-3.78,0-6-2.49-6-6.19s2.18-6.63,5.76-6.63c4,0,5.08,3.53,5.08,5.79a7.43,7.43,0,0,1-.08,1Zm6.55-1.6c0-1.42-.58-3.63-3.1-3.63-2.26,0-3.25,2.08-3.42,3.63Z"/><path class="cls-3" d="M343.23,264.94c-.05.89-.1,1.88-.1,3.38v7.13c0,2.82-.56,4.55-1.75,5.61a6.5,6.5,0,0,1-4.47,1.48,8,8,0,0,1-4.09-1l.56-1.7a6.93,6.93,0,0,0,3.61,1c2.28,0,4-1.19,4-4.29v-1.37h-.05a4.4,4.4,0,0,1-3.91,2.06c-3.05,0-5.23-2.59-5.23-6,0-4.17,2.71-6.53,5.53-6.53a4.11,4.11,0,0,1,3.84,2.13h.05l.1-1.85Zm-2.31,4.85a3.29,3.29,0,0,0-.12-1,3.23,3.23,0,0,0-3.13-2.36c-2.13,0-3.65,1.81-3.65,4.65,0,2.41,1.22,4.42,3.63,4.42a3.28,3.28,0,0,0,3.1-2.29,4.08,4.08,0,0,0,.17-1.19Z"/><path class="cls-3" d="M347.65,264.94l2.69,7.26c.28.81.59,1.78.79,2.52h.05c.23-.74.48-1.68.79-2.57l2.43-7.21h2.37l-3.36,8.76c-1.6,4.21-2.69,6.37-4.21,7.69a6,6,0,0,1-2.74,1.45L345.9,281a5.88,5.88,0,0,0,2-1.09,6.8,6.8,0,0,0,1.88-2.49,1.71,1.71,0,0,0,.18-.53,2,2,0,0,0-.15-.59l-4.55-11.32Z"/><path class="cls-3" d="M91.1,332.06a11,11,0,0,1-4.52.81c-4.82,0-8.45-3.05-8.45-8.66,0-5.35,3.63-9,8.94-9a9.08,9.08,0,0,1,4.06.77l-.53,1.8a8,8,0,0,0-3.46-.71c-4,0-6.68,2.56-6.68,7.06,0,4.19,2.42,6.88,6.58,6.88a8.88,8.88,0,0,0,3.61-.71Z"/><path class="cls-3" d="M104.63,326.37c0,4.55-3.14,6.53-6.11,6.53-3.33,0-5.9-2.44-5.9-6.33,0-4.11,2.7-6.52,6.1-6.52S104.63,322.61,104.63,326.37Zm-9.75.13c0,2.69,1.55,4.72,3.74,4.72s3.73-2,3.73-4.77c0-2.08-1-4.73-3.68-4.73S94.88,324.16,94.88,326.5Z"/><path class="cls-3" d="M107.45,323.65c0-1.27,0-2.31-.1-3.32h2l.13,2h.05a4.51,4.51,0,0,1,4.06-2.31c1.7,0,4.34,1,4.34,5.23v7.34h-2.23v-7.09c0-2-.74-3.63-2.85-3.63a3.17,3.17,0,0,0-3,2.29,3.26,3.26,0,0,0-.15,1v7.39h-2.24Z"/><path class="cls-3" d="M124.13,316.8v3.53h3.2V322h-3.2v6.63c0,1.52.43,2.38,1.68,2.38a4.81,4.81,0,0,0,1.29-.15l.11,1.68a5.73,5.73,0,0,1-2,.3,3.1,3.1,0,0,1-2.41-.94,4.57,4.57,0,0,1-.86-3.2V322H120v-1.7H122v-2.95Z"/><path class="cls-3" d="M132.33,316.87a1.38,1.38,0,1,1-2.76,0,1.36,1.36,0,0,1,1.39-1.39A1.32,1.32,0,0,1,132.33,316.87Zm-2.49,15.75V320.33h2.24v12.29Z"/><path class="cls-3" d="M135.79,323.65c0-1.27,0-2.31-.11-3.32h2l.13,2h.05a4.51,4.51,0,0,1,4.06-2.31c1.71,0,4.35,1,4.35,5.23v7.34H144v-7.09c0-2-.73-3.63-2.84-3.63a3.18,3.18,0,0,0-3,2.29,3.26,3.26,0,0,0-.15,1v7.39h-2.23Z"/><path class="cls-3" d="M160.16,329.27c0,1.27,0,2.38.1,3.35h-2l-.13-2h-.05A4.62,4.62,0,0,1,154,332.9c-1.93,0-4.24-1.07-4.24-5.39v-7.18H152v6.8c0,2.34.72,3.91,2.75,3.91a3.22,3.22,0,0,0,2.94-2,3.17,3.17,0,0,0,.2-1.14v-7.54h2.24Z"/><path class="cls-3" d="M175,326.37c0,4.55-3.15,6.53-6.12,6.53-3.33,0-5.89-2.44-5.89-6.33,0-4.11,2.69-6.52,6.09-6.52S175,322.61,175,326.37Zm-9.75.13c0,2.69,1.55,4.72,3.73,4.72s3.73-2,3.73-4.77c0-2.08-1-4.73-3.68-4.73S165.24,324.16,165.24,326.5Z"/><path class="cls-3" d="M188.09,329.27c0,1.27,0,2.38.1,3.35h-2l-.13-2H186A4.62,4.62,0,0,1,182,332.9c-1.93,0-4.24-1.07-4.24-5.39v-7.18H180v6.8c0,2.34.71,3.91,2.74,3.91a3.24,3.24,0,0,0,3-2,3.17,3.17,0,0,0,.2-1.14v-7.54h2.24Z"/><path class="cls-3" d="M191.49,330.33a5.87,5.87,0,0,0,2.94.89c1.63,0,2.39-.81,2.39-1.83s-.63-1.65-2.28-2.26c-2.21-.78-3.25-2-3.25-3.48,0-2,1.59-3.6,4.24-3.6a6.11,6.11,0,0,1,3,.76l-.56,1.63a4.72,4.72,0,0,0-2.52-.72c-1.32,0-2.05.77-2.05,1.68s.73,1.47,2.33,2.08c2.14.81,3.23,1.88,3.23,3.71,0,2.16-1.68,3.68-4.6,3.68a7,7,0,0,1-3.45-.84Z"/><path class="cls-3" d="M209.72,316.87a1.39,1.39,0,0,1-2.77,0,1.36,1.36,0,0,1,1.4-1.39A1.33,1.33,0,0,1,209.72,316.87Zm-2.49,15.75V320.33h2.23v12.29Z"/><path class="cls-3" d="M213.17,323.65c0-1.27,0-2.31-.1-3.32h2l.1,2h.08a4.24,4.24,0,0,1,3.86-2.26,3.63,3.63,0,0,1,3.48,2.46h.05a5.08,5.08,0,0,1,1.37-1.6,4.2,4.2,0,0,1,2.72-.86c1.62,0,4,1.07,4,5.33v7.24h-2.18v-7c0-2.36-.86-3.78-2.67-3.78a2.89,2.89,0,0,0-2.64,2,3.72,3.72,0,0,0-.17,1.12v7.59h-2.19v-7.37c0-1.95-.86-3.37-2.56-3.37a3,3,0,0,0-2.77,2.23,3,3,0,0,0-.18,1.09v7.42h-2.18Z"/><path class="cls-3" d="M234.34,324.34c0-1.57-.05-2.84-.1-4h2l.1,2.11h.05a4.83,4.83,0,0,1,4.37-2.39c3,0,5.2,2.51,5.2,6.24,0,4.42-2.69,6.61-5.58,6.61A4.32,4.32,0,0,1,236.6,331h0v6.67h-2.21Zm2.21,3.28a5.07,5.07,0,0,0,.1.91,3.45,3.45,0,0,0,3.35,2.61c2.37,0,3.74-1.93,3.74-4.74,0-2.47-1.3-4.57-3.66-4.57a3.58,3.58,0,0,0-3.38,2.76,3.93,3.93,0,0,0-.15.92Z"/><path class="cls-3" d="M248.79,324.16c0-1.45,0-2.69-.1-3.83h1.95l.08,2.41h.1a3.68,3.68,0,0,1,3.4-2.69,2.51,2.51,0,0,1,.64.07v2.11a3.49,3.49,0,0,0-.77-.07,3.13,3.13,0,0,0-3,2.87,6.33,6.33,0,0,0-.1,1v6.55h-2.21Z"/><path class="cls-3" d="M268,326.37c0,4.55-3.15,6.53-6.12,6.53-3.33,0-5.89-2.44-5.89-6.33,0-4.11,2.69-6.52,6.09-6.52S268,322.61,268,326.37Zm-9.75.13c0,2.69,1.55,4.72,3.73,4.72s3.73-2,3.73-4.77c0-2.08-1-4.73-3.68-4.73S258.21,324.16,258.21,326.5Z"/><path class="cls-3" d="M271.46,320.33l2.41,6.9a30.36,30.36,0,0,1,1,3.15h.08c.28-1,.63-2,1-3.15l2.39-6.9h2.33l-4.82,12.29h-2.13l-4.68-12.29Z"/><path class="cls-3" d="M283.8,326.88c.05,3,2,4.26,4.21,4.26a8.06,8.06,0,0,0,3.41-.63l.38,1.6a10.1,10.1,0,0,1-4.09.76c-3.78,0-6-2.49-6-6.19s2.18-6.63,5.76-6.63c4,0,5.08,3.53,5.08,5.79a7.57,7.57,0,0,1-.08,1Zm6.55-1.6c0-1.42-.58-3.63-3.1-3.63-2.26,0-3.25,2.08-3.42,3.63Z"/><path class="cls-3" d="M295.28,323.65c0-1.27,0-2.31-.11-3.32h2l.1,2h.08a4.22,4.22,0,0,1,3.86-2.26,3.62,3.62,0,0,1,3.47,2.46h.06a5.08,5.08,0,0,1,1.37-1.6,4.17,4.17,0,0,1,2.71-.86c1.63,0,4,1.07,4,5.33v7.24h-2.18v-7c0-2.36-.87-3.78-2.67-3.78a2.89,2.89,0,0,0-2.64,2,3.7,3.7,0,0,0-.18,1.12v7.59H303v-7.37c0-1.95-.86-3.37-2.57-3.37a3,3,0,0,0-2.76,2.23,3,3,0,0,0-.18,1.09v7.42h-2.18Z"/><path class="cls-3" d="M317.69,326.88a3.93,3.93,0,0,0,4.22,4.26,8,8,0,0,0,3.4-.63l.38,1.6a10.06,10.06,0,0,1-4.09.76c-3.78,0-6-2.49-6-6.19s2.18-6.63,5.76-6.63c4,0,5.08,3.53,5.08,5.79a10.18,10.18,0,0,1-.07,1Zm6.55-1.6c0-1.42-.58-3.63-3.09-3.63-2.26,0-3.25,2.08-3.43,3.63Z"/><path class="cls-3" d="M329.17,323.65c0-1.27,0-2.31-.1-3.32h2l.12,2h.06a4.5,4.5,0,0,1,4.06-2.31c1.7,0,4.34,1,4.34,5.23v7.34H337.4v-7.09c0-2-.74-3.63-2.85-3.63a3.17,3.17,0,0,0-3,2.29,3,3,0,0,0-.16,1v7.39h-2.23Z"/><path class="cls-3" d="M345.85,316.8v3.53h3.2V322h-3.2v6.63c0,1.52.43,2.38,1.68,2.38a4.81,4.81,0,0,0,1.29-.15l.1,1.68a5.67,5.67,0,0,1-2,.3,3.09,3.09,0,0,1-2.41-.94,4.53,4.53,0,0,1-.86-3.2V322h-1.91v-1.7h1.91v-2.95Z"/><path class="cls-3" d="M47,117.75h8.33c0-.47,0-.88,0-1.29,0-4.24,0-8.5.17-12.74a38.39,38.39,0,0,1,6.67-19.66l.58-.86a7.15,7.15,0,0,1-1.85-5.94,6.8,6.8,0,0,1,2.21-4.13,7,7,0,0,1,9.37,0c3.29-1.56,6.43-3.19,9.68-4.53A34.12,34.12,0,0,1,93.05,66.3c.52,0,.87-.08.86-.74,0-3.54,0-7.08,0-10.76H84.23V51.19H107v3.55H97.48v11.4c1.83.25,3.69.44,5.52.76a40.26,40.26,0,0,1,32.26,32.51c.13.76.41,1,1.17,1,1.83-.06,3.68,0,5.76,0l-8,13.88-8-13.84h5.86c-.54-2-.88-3.9-1.55-5.67-5.28-14.09-15.35-22.5-30.24-24.72-8.88-1.32-17.16.8-24.73,5.65a1.59,1.59,0,0,0-.87,1.77,6.86,6.86,0,0,1-8.18,7.71,1,1,0,0,0-1.18.54,33.1,33.1,0,0,0-6.06,15.69c-.5,5.38-.41,10.81-.58,16.35h85.51v3.42c-.36,0-.7.06-1,.06H47.87c-.29,0-.57,0-.85,0ZM67.81,81.81a3.51,3.51,0,1,0,0-7,3.51,3.51,0,1,0,0,7Z"/><path class="cls-3" d="M83.35,103.67c-2,.15-2,.16-2.85-1.69-.27-.58-.46-1.19-.73-1.76-.65-1.42-.79-2.67.88-3.53.23-.12.35-.56.41-.88s0-.79,0-1.16a2.28,2.28,0,0,0-1.23-2.55,1.06,1.06,0,0,1-.5-1.49c.55-1.34,1.1-2.68,1.61-4a1.34,1.34,0,0,1,1.73-.91c.55.1,1.28.29,1.64,0a7.75,7.75,0,0,0,2.13-2.18c.28-.44.06-1.24,0-1.86s0-1.09.67-1.34c1.44-.58,2.87-1.17,4.3-1.79.58-.25,1.07-.17,1.33.4.92,2,2.77,1.43,4.31,1.47.44,0,1-.76,1.31-1.27a1.29,1.29,0,0,1,1.79-.54c1.26.56,2.53,1.08,3.81,1.58.78.3,1.16.82.88,1.63-.72,2.1,1.21,2.77,2.17,3.91.22.26,1.08,0,1.63,0,.78-.12,1.36,0,1.66.86.51,1.39,1.07,2.76,1.64,4.13a1,1,0,0,1-.47,1.41c-1.84.93-1.28,2.62-1.22,4.1,0,.36.59.77,1,1a1.41,1.41,0,0,1,.6,2c-.56,1.29-1.11,2.59-1.64,3.9a1,1,0,0,1-1.33.67,3.29,3.29,0,0,0-1.95,0,9.41,9.41,0,0,0-2.11,2.07c-.17.21-.06.68,0,1,.18,2.24.44,1.71-1.48,2.69a21.57,21.57,0,0,1-3.57,1.33,1.11,1.11,0,0,1-1-.29c-1-2-2.77-1.66-4.39-1.56-.48,0-1,.71-1.34,1.21a1.32,1.32,0,0,1-1.85.57c-1.33-.58-2.66-1.14-4-1.7a1,1,0,0,1-.69-1.32,3.24,3.24,0,0,0,0-1.95,9.62,9.62,0,0,0-2.07-2.11C84.16,103.6,83.7,103.7,83.35,103.67Zm1.58-3.58c.71-.25,1.27.1,1.8.9a6.75,6.75,0,0,0,1.94,2.07,2.59,2.59,0,0,1,1.42,3.21c0,.18.21.58.42.67a1.13,1.13,0,0,0,.8-.15,1.46,1.46,0,0,0,.48-.56,1.69,1.69,0,0,1,2.12-.8,6.2,6.2,0,0,0,2.53.13c1.5-.32,2.75-.32,3.56,1.25a.73.73,0,0,0,.69.17,1,1,0,0,0,.52-.64,2.21,2.21,0,0,0-.08-1,1.46,1.46,0,0,1,.72-1.75,8.11,8.11,0,0,0,2.25-2.07c.79-1.18,1.64-1.83,3.1-1.45a.81.81,0,0,0,.73-.36,1.3,1.3,0,0,0-.2-.9,1.82,1.82,0,0,0-.64-.55,1.41,1.41,0,0,1-.66-1.69,7.9,7.9,0,0,0,.08-3.06,2.38,2.38,0,0,1,1.17-2.91,1.08,1.08,0,0,0,.23-1c-.06-.19-.53-.28-.82-.38-.08,0-.21,0-.31,0a1.82,1.82,0,0,1-2.28-.93,7.26,7.26,0,0,0-2.12-2.19,2.23,2.23,0,0,1-1.2-2.77,1,1,0,0,0-.39-.9c-.22-.11-.63.16-1,.29-.09,0-.15.15-.2.24a2,2,0,0,1-2.39.93,7.43,7.43,0,0,0-3.15,0,2,2,0,0,1-2.49-1c-.24-.39-.58-1-1.14-.5a1.45,1.45,0,0,0-.32,1.14,2,2,0,0,1-1,2.37,6.11,6.11,0,0,0-1.91,1.81c-.79,1.19-1.63,2-3.17,1.45-.18-.06-.61.21-.68.4a1.28,1.28,0,0,0,.18.88,1.55,1.55,0,0,0,.63.56c.77.41.79,1,.67,1.79a7.48,7.48,0,0,0-.12,2.74c.33,1.42.13,2.46-1.2,3.2a.84.84,0,0,0-.2.78,1.1,1.1,0,0,0,.67.47A3.27,3.27,0,0,0,84.93,100.09Z"/><path class="cls-3" d="M95.69,86.06a8.76,8.76,0,0,1,8.72,8.73,8.78,8.78,0,1,1-8.72-8.73ZM95.48,100a5.22,5.22,0,1,0-5.1-5.51A5.27,5.27,0,0,0,95.48,100Z"/><path class="cls-3" d="M1075.83,107.32a6.4,6.4,0,0,1-2.92,3.46q-13.2,8.72-26.35,17.5c-.26.18-.54.34-.89.57l-1.64-2.44,1-.68,26.24-17.48c.27-.18.54-.35.81-.54a1.28,1.28,0,0,0,.57-1.76,1.3,1.3,0,0,0-1.84-.6c-2.55,1-5.11,2-7.66,3-5.25,2-10.49,4.06-15.75,6.06a2.62,2.62,0,0,1-1.54.1c-7.54-2.34-15.06-4.73-22.59-7.11a1.27,1.27,0,0,1-.69-.45h19.2a2,2,0,0,0,2-1,1.76,1.76,0,0,0-1.31-2.55,6.23,6.23,0,0,0-.75,0c-7.92,0-15.83,0-23.74,0a3.51,3.51,0,0,0-1.63.4q-7.92,4.47-15.8,9a1.6,1.6,0,0,0-.8,1.08c0,5.06,0,10.12,0,15.18a2.12,2.12,0,0,0,.14.42l4.51-2.35c2.82-1.45,5.65-2.88,8.47-4.35a4.8,4.8,0,0,1,3-.47c2.92.42,5.86.75,8.88,1.12l.69-4.92,10.87,8.35-12.65,5.24.7-5.7c-3.13-.4-6.2-.81-9.28-1.13a3.25,3.25,0,0,0-1.61.52c-5.25,2.72-10.49,5.47-15.74,8.2a7,7,0,0,1-1.09.37V111.66l16.94-9.72c-.86-1-1.66-1.92-2.37-2.87a1.41,1.41,0,0,0-1.46-.62c-1.36.18-2.73.26-4.09.41a1.72,1.72,0,0,1-2-1.11q-1.58-3.9-3.14-7.81a1.61,1.61,0,0,1,.61-2c1.09-.88,2.19-1.76,3.22-2.72a1.85,1.85,0,0,0,.53-1.24q.08-3.89,0-7.77a1.75,1.75,0,0,0-.49-1.15c-1.06-1-2.19-1.88-3.3-2.8a1.54,1.54,0,0,1-.59-1.91c1.07-2.67,2.14-5.34,3.23-8a1.61,1.61,0,0,1,1.85-1c1.44.16,2.87.33,4.31.39a1.88,1.88,0,0,0,1.24-.57c1.42-1.44,2.57-3.22,4.19-4.35,2.06-1.44,2.45-3.06,2-5.37-.53-3-.44-3.1,2.4-4.42,2.07-1,4.24-1.75,6.36-2.61h1.09c1.19,1.38,2.4,2.74,3.57,4.15a1.44,1.44,0,0,0,1.37.55c2.72-.07,5.45-.06,8.18,0a1.47,1.47,0,0,0,1.36-.54c1.2-1.42,2.48-2.78,3.73-4.16h.87l1,.41,7,3a1.77,1.77,0,0,1,1.09,2.11c-.18,1.29-.2,2.59-.37,3.88a1.77,1.77,0,0,0,.72,1.73c1.94,1.83,3.76,3.78,5.67,5.64a2,2,0,0,0,1.33.58c1.4,0,2.81-.21,4.2-.38a1.68,1.68,0,0,1,1.93,1.06c1.07,2.59,2.1,5.2,3.16,7.81a1.67,1.67,0,0,1-.62,2.09c-1.1.89-2.2,1.77-3.24,2.72a1.59,1.59,0,0,0-.5,1.16,29.63,29.63,0,0,1,0,7.87,1.48,1.48,0,0,0,.46,1.08c1.07,1,2.2,1.88,3.32,2.79a1.58,1.58,0,0,1,.64,1.9q-1.59,4-3.23,8a1.63,1.63,0,0,1-1.84,1c-1.4-.15-2.8-.25-4.2-.42a1.52,1.52,0,0,0-1.46.62c-1.66,1.8-3.34,3.58-5.14,5.25-1.35,1.25-1.62,2-.84,3.79l1.21-.44q6.56-2.53,13.12-5.07a4.31,4.31,0,0,1,5.95,2.65,2.46,2.46,0,0,0,.22.34Zm-39-42.26,5.22,1.47-1.09,2.85c-.43-.2-.78-.38-1.14-.53a8.46,8.46,0,0,0-5.6-.55,3.18,3.18,0,0,0-2.46,2.59,3,3,0,0,0,1.32,3.2,36.32,36.32,0,0,0,3.43,1.83c1.11.59,2.28,1.09,3.33,1.78a6.28,6.28,0,0,1,3,6.41,6.61,6.61,0,0,1-4.63,5.62c-.5.2-1,.32-1.63.51v4h-2.57c0-1.06,0-2,0-3,0-.76-.26-.94-1-1a16.77,16.77,0,0,1-3.37-.75c-1.93-.65-1.91-.71-1.24-2.56.12-.34.27-.66.44-1,.33.18.6.34.89.47a9.16,9.16,0,0,0,6.7.92,3.63,3.63,0,0,0,2.79-2.87,3.57,3.57,0,0,0-1.57-3.87,29.36,29.36,0,0,0-3-1.66,32.17,32.17,0,0,1-3.81-2,6,6,0,0,1,.88-10.48,24,24,0,0,1,2.48-1V63.2c-4.44-1.3-6.48-7.42-1.36-11.17a8.25,8.25,0,0,0-.92.14,2.34,2.34,0,0,1-2.81-1c-.72-1-1.63-1.93-2.4-2.93a.84.84,0,0,0-1.18-.32q-2.24,1-4.49,1.86a1,1,0,0,0-.69,1.15c.17,1.4.27,2.8.42,4.2a1.81,1.81,0,0,1-.82,1.86,31,31,0,0,0-7.13,7,2.25,2.25,0,0,1-1.6.79,34.62,34.62,0,0,1-4.31-.35.93.93,0,0,0-1.17.64q-.9,2.33-1.86,4.61a.87.87,0,0,0,.33,1.19c1.05.83,2,1.73,3.1,2.55a2.07,2.07,0,0,1,.81,2.27,25.39,25.39,0,0,0,0,9,1.86,1.86,0,0,1-.69,2c-1.1.88-2.2,1.77-3.23,2.72a1.18,1.18,0,0,0-.3,1.05c.55,1.56,1.21,3.08,1.8,4.63a1.06,1.06,0,0,0,1.33.74c1.29-.17,2.59-.26,3.88-.41a2,2,0,0,1,2,.9c.72,1,1.58,1.88,2.3,2.87a3.12,3.12,0,0,0,2.86,1.29c8-.06,16,0,24.07,0a4.74,4.74,0,0,1,1,9.4,13.74,13.74,0,0,1-1.43.16c2.62,1,5,2.16,7.69.46a8.56,8.56,0,0,1,2.11-.82.88.88,0,0,0,.7-1.12c-.13-1.07-.17-2.16-.33-3.23a2,2,0,0,1,.94-2.11,27.17,27.17,0,0,0,6.8-6.77,2.13,2.13,0,0,1,2.21-1c1.25.16,2.52.24,3.77.4a1.07,1.07,0,0,0,1.34-.72c.57-1.52,1.18-3,1.81-4.52a.93.93,0,0,0-.37-1.28c-1-.83-2-1.72-3.1-2.55a1.89,1.89,0,0,1-.77-2,26.34,26.34,0,0,0,0-9.16,2,2,0,0,1,.76-2.08c1-.83,2-1.73,3.08-2.55.46-.36.65-.68.39-1.27-.65-1.52-1.25-3.07-1.86-4.61-.22-.58-.57-.7-1.17-.62-1.4.18-2.81.26-4.21.39a1.74,1.74,0,0,1-1.75-.82,27.28,27.28,0,0,0-7-7,1.93,1.93,0,0,1-.86-2.05c.17-1.36.3-2.73.34-4.1a1.35,1.35,0,0,0-.59-1c-1.5-.71-3-1.28-4.57-1.95-.56-.24-.85,0-1.17.38-.82,1-1.73,2-2.48,3a2.23,2.23,0,0,1-2.54.94c-.7-.14-1.42-.2-2.13-.29,2.21,1.71,3.3,3.79,2.86,6.49s-2.26,4.23-4.79,4.94Zm-1.09-4.64a3.05,3.05,0,0,0,3-3,3,3,0,0,0-6,0A3.1,3.1,0,0,0,1035.71,60.42Z"/><path class="cls-3" d="M540.43,123.61h20.25V117.8l11.94,6.7-11.89,6.69v-4.65H539.65c-1.85,0-2.19-.35-2.19-2.21,0-4.52.13-9,0-13.56a17.32,17.32,0,0,1,16.63-18,142.87,142.87,0,0,1,16,.15c8.49.59,15.33,8.19,15.4,16.68,0,5,0,9.9,0,14.85,0,1.48-.47,2.19-1.46,2.2s-1.52-.72-1.52-2.26c0-4.7,0-9.4,0-14.1a14.37,14.37,0,0,0-14.41-14.67q-6.61-.11-13.23,0a14.38,14.38,0,0,0-14.45,14.63C540.41,114.67,540.43,119.08,540.43,123.61Z"/><path class="cls-3" d="M561.47,87.72a11.81,11.81,0,1,1,12.16-11.79A12,12,0,0,1,561.47,87.72Zm0-20.71a8.93,8.93,0,1,0,9.15,8.91A9,9,0,0,0,561.5,67Z"/><path class="cls-3" d="M544.51,70.67v2.79c-.38,0-.72.05-1.06.05-2.41,0-4.81,0-7.21,0a1.32,1.32,0,0,0-1.51.93,5.88,5.88,0,0,1-5.79,3.5,6,6,0,0,1-5.44-4.18A5.83,5.83,0,0,1,527,66.67a6,6,0,0,1,7.63,3,1.48,1.48,0,0,0,1.68,1C539,70.64,541.72,70.67,544.51,70.67Zm-12.15,1.41a3,3,0,0,0-3.06-3,3.07,3.07,0,1,0-.07,6.14A3,3,0,0,0,532.36,72.08Z"/><path class="cls-3" d="M578.67,73.52V70.73c.36,0,.67-.06,1-.06,1.94,0,3.87-.06,5.81,0,1.55.06,2.66-.06,3.53-1.77,1.23-2.41,4.36-3.23,7-2.31a5.79,5.79,0,0,1-.88,11.21,5.92,5.92,0,0,1-6.63-3.41A1.28,1.28,0,0,0,587,73.5C584.27,73.54,581.52,73.52,578.67,73.52Zm12.15-1.45a3,3,0,0,0,3.12,3.1,3.07,3.07,0,1,0-.05-6.14A3,3,0,0,0,590.82,72.07Z"/><path class="cls-3" d="M576.53,64.67,574.64,63c1.33-1.39,2.59-2.74,3.89-4.06a.9.9,0,0,0,.23-1.27,5.67,5.67,0,0,1,1.45-7.25,6.15,6.15,0,0,1,7.66,0,5.74,5.74,0,0,1,1.53,7.08,5.93,5.93,0,0,1-7,3,1.53,1.53,0,0,0-1.82.5C579.3,62.22,577.93,63.39,576.53,64.67Zm4.38-9.74A3.06,3.06,0,0,0,584,58a3.07,3.07,0,1,0,0-6.14A3,3,0,0,0,580.91,54.93Z"/><path class="cls-3" d="M543.87,58.29,548.32,63l-1.86,1.71c-1.4-1.27-2.79-2.46-4.09-3.74a1.47,1.47,0,0,0-1.73-.47,6,6,0,0,1-7.46-3.9,5.79,5.79,0,0,1,3.93-7.22,6,6,0,0,1,7.53,3.79A5.92,5.92,0,0,1,543.87,58.29Zm-1.81-3.42a3.06,3.06,0,0,0-3.2-3.06A3.08,3.08,0,1,0,539,58,3.06,3.06,0,0,0,542.06,54.87Z"/><path class="cls-3" d="M560,58.58c0-1.61,0-3.12,0-4.63a1.44,1.44,0,0,0-1-1.65,5.69,5.69,0,0,1-2.88-7.83,6.08,6.08,0,0,1,8.3-2.55,5.79,5.79,0,0,1,2.32,8,5.41,5.41,0,0,1-3,2.52,1.08,1.08,0,0,0-.83,1.26c.05,1.61,0,3.22,0,4.91Zm1.46-8.52a3,3,0,1,0-3.11-3A3,3,0,0,0,561.48,50.06Z"/></svg>