<svg id="Layer_1" data-name="Layer 1" xmlns="http://www.w3.org/2000/svg" width="100" height="100" viewBox="0 0 100 100"><title>editorial</title><path d="M68.47,0a9.57,9.57,0,0,0,1,.73c3.61,2.06,7.22,4.1,11,6.25L68.29,14.15V8.88h-53c0,.37-.07.7-.07,1,0,4.48,0,9,0,13.43,0,.56,0,1,.7,1.24a6.82,6.82,0,0,1,4.56,6.55,6.9,6.9,0,0,1-4.59,6.54l-.64.29V96.46h1.25q24.93,0,49.87,0a2.36,2.36,0,0,0,1.84-.74c5.24-5.33,10.52-10.62,15.76-16a2.33,2.33,0,0,0,.65-1.49c.05-4.44,0-8.88.05-13.32a1.15,1.15,0,0,0-.85-1.27,7,7,0,1,1,9.47-7.44,2.86,2.86,0,0,0,.2.53v.93a2.54,2.54,0,0,0-.2.52,6.72,6.72,0,0,1-4.45,5.51c-.69.26-.73.64-.73,1.22,0,4.82,0,9.64,0,14.46a2.45,2.45,0,0,1-.78,1.93q-6,5.93-11.84,11.9c-2.2,2.23-4.37,4.5-6.56,6.75H11.7a1.85,1.85,0,0,0,0-.23q0-30.49,0-61c0-.73-.3-1-.9-1.22a6.71,6.71,0,0,1-4.32-6.36,6.72,6.72,0,0,1,4.27-6.5,1.29,1.29,0,0,0,.95-1.45c0-5.53,0-11.06,0-16.59V5.34h56.5V0ZM86.31,60.74a3.58,3.58,0,0,0,3.61-3.51,3.56,3.56,0,0,0-7.11,0A3.61,3.61,0,0,0,86.31,60.74ZM10,31.15a3.5,3.5,0,0,0,3.47,3.5,3.53,3.53,0,1,0,.06-7A3.48,3.48,0,0,0,10,31.15Z"/><path d="M69.69,25.62l9.64,8.25c-2.85,3.33-5.63,6.57-8.4,9.82-7.18,8.4-14.39,16.78-21.51,25.23a8.53,8.53,0,0,1-2.37,1.93L32,79.54c.19-.55.29-.9.42-1.23,2.07-5.41,4.13-10.82,6.24-16.2a6.68,6.68,0,0,1,1.23-1.66Q54.5,43.32,69.15,26.2ZM42,63.34l4.36,3.74L74.41,34.25,70,30.52Zm-3.27,8.3L43.24,69l-2.67-2.26Z"/></svg>