<svg id="Layer_1" data-name="Layer 1" xmlns="http://www.w3.org/2000/svg" width="100" height="100" viewBox="0 0 100 100"><title>Technology</title><path d="M19,93.28V100L3.65,91.37l15.28-8.59v6.63H35.05V74H33.61c-7.86,0-15.73,0-23.6,0a9.81,9.81,0,0,1-9.89-8.2A10.4,10.4,0,0,1,0,64V10A9.71,9.71,0,0,1,9.87,0H90.15A9.7,9.7,0,0,1,100,9.86v54A9.76,9.76,0,0,1,90,74c-8.45,0-16.91,0-25.37,0H63V89.42H73.52V82.73l15.37,8.64L73.54,100V93.28ZM49.74,70.22H51q19.32,0,38.62,0c4.12,0,6.57-2.49,6.57-6.62V10.33c0-4.13-2.43-6.61-6.58-6.61q-39.63,0-79.27,0c-4.12,0-6.55,2.5-6.55,6.64q0,26.57,0,53.14c0,4.29,2.42,6.72,6.72,6.72h34c.45,0,.89,0,1.35-.07V61.83H44.4q-10.09,0-20.19,0c-5.56,0-9-3.43-9-9a1.89,1.89,0,0,0-1.34-2.13,7.33,7.33,0,0,1-4.31-8.37A7.77,7.77,0,0,1,24.7,42.3a7.22,7.22,0,0,1-4.15,8.32C19.1,51.21,19,52,19,53.27c.11,2.54,1.44,4.54,3.7,4.7,3.12.22,6.27.05,9.54.05V56.58c0-4.55-.05-9.09-.09-13.63,0-2.37-.74-3.13-3.13-3.31a6,6,0,0,1-5.57-5.92c0-.66,0-1.33,0-2l-1.29-.39A7.55,7.55,0,0,1,17,23.44a7.77,7.77,0,0,1,15.11-1.31,7.34,7.34,0,0,1-3.83,8.71c-.74.38-1.11.76-1,1.61.07.49,0,1,0,1.51a2,2,0,0,0,1.62,1.87c1,.23,2.13.33,3.35.51,0-.71,0-1.37,0-2a6.3,6.3,0,0,1,6.09-6.58c2-.18,2.63-.86,2.65-2.9a9,9,0,0,1,0-1.27,1.77,1.77,0,0,0-1.32-2.14,7.29,7.29,0,0,1-4.34-8.23,7.75,7.75,0,0,1,15-.69A7,7,0,0,1,47,20.93c-1.93.92-2.43,2.07-2.16,3.93a1.61,1.61,0,0,1,0,.38,5.88,5.88,0,0,1-5.75,6.11c-2.14.18-3,1.09-3,3.24V56.8c0,.4,0,.81.07,1.2h9.74c0-1.88,0-3.68,0-5.48a1.44,1.44,0,0,0-1.07-1.66,7.39,7.39,0,0,1-4.61-8.56,7.76,7.76,0,0,1,7.69-5.89,7.68,7.68,0,0,1,7.41,6.06,7.51,7.51,0,0,1-4.63,8.46c-.39.16-.94.58-.95.9-.09,2-.05,4.09-.05,6.17H63.4V44.79c0-1.91-.76-2.77-2.64-3-4.19-.53-6-2.56-6-6.73,0-.88-.18-1.29-1.13-1.57a7.43,7.43,0,0,1-5.37-8.11,7.61,7.61,0,0,1,6.88-6.49,7.7,7.7,0,0,1,8.2,5.32A7.39,7.39,0,0,1,59.43,33a1.32,1.32,0,0,0-.91,1.53c0,.42,0,.84,0,1.26a2.19,2.19,0,0,0,2,2.26c.94.15,1.89.25,2.9.38,0-.33.06-.66.06-1,.07-5,1.84-7,6.77-7.66a2.12,2.12,0,0,0,2-2.06c.06-1.22,0-2.43,0-3.61-4.17-1.68-6.26-4.72-5.74-8.25a7.78,7.78,0,0,1,15.06-1.29,7.25,7.25,0,0,1-.16,4.82,8.05,8.05,0,0,1-5.34,4.75v3.12a6,6,0,0,1-5.52,6.24c-2.7.33-3.26,1-3.26,3.74q0,9.27,0,18.54v2.3h3.84c3.72,0,5.34-1.66,5.39-5.39a1.7,1.7,0,0,0-1.23-1.94,7.29,7.29,0,0,1-4.41-8.3,7.76,7.76,0,0,1,15.16.1,7.49,7.49,0,0,1-4.55,8.28l-1.25.52a25.46,25.46,0,0,1,0,3.27c-.57,4.27-4,7.16-8.53,7.19-6.81,0-13.63,0-20.44,0H49.74ZM59,74.4H39.21V89.18H59ZM70.2,16.71a4,4,0,1,0,4-3.82A4,4,0,0,0,70.2,16.71Zm8.21,31.07a3.84,3.84,0,1,0-3.94-3.85A3.78,3.78,0,0,0,78.41,47.78ZM52,26.3a4,4,0,0,0,7.9.09A4,4,0,0,0,52,26.3ZM47.73,40.11a3.84,3.84,0,1,0,.07,7.67,3.84,3.84,0,1,0-.07-7.67ZM24.62,28.05a3.81,3.81,0,0,0,4-3.79,4,4,0,0,0-7.91-.09A3.81,3.81,0,0,0,24.62,28.05Zm18.24-9.58a3.94,3.94,0,0,0,4.07-3.76,4,4,0,0,0-8-.14A3.93,3.93,0,0,0,42.86,18.47ZM17.16,40.11a3.84,3.84,0,1,0,0,7.67,3.84,3.84,0,1,0,0-7.67Z"/></svg>