<svg id="Layer_1" data-name="Layer 1" xmlns="http://www.w3.org/2000/svg" width="100" height="100" viewBox="0 0 100 100"><title>enabled-USG</title><path d="M101,38.58a19.3,19.3,0,0,1-1.54,3.28,7.43,7.43,0,1,1-11.19-9.69c.33-.33.7-.64,1-1C84.18,18.41,69.65,5.5,49.74,6.12A41.63,41.63,0,0,0,11.06,35.46l6.13,2.27L4.1,48.73l-3-16.84,6.35,2.27c.22-.56.4-1.06.6-1.56C14.91,15.25,27.53,5,46.06,2.74A45,45,0,0,1,92.48,29a1.48,1.48,0,0,0,1.56,1,7.33,7.33,0,0,1,6.7,5.62c.07.26.17.51.26.77ZM93.49,41.2a3.76,3.76,0,0,0,3.77-3.77,3.84,3.84,0,0,0-3.81-3.76,3.8,3.8,0,0,0-3.69,3.75A3.72,3.72,0,0,0,93.49,41.2Z"/><path d="M101,68l-6.33-2.2c-1,2.22-1.74,4.42-2.8,6.47C84.78,86,73.64,94.28,58.52,96.93A45.43,45.43,0,0,1,9.59,71,1.52,1.52,0,0,0,8,69.9a7.38,7.38,0,0,1-6.81-6.08A6.25,6.25,0,0,0,1,63.05V61.86c.2-.66.36-1.34.6-2a7.49,7.49,0,0,1,7-4.86,7.54,7.54,0,0,1,6.93,4.73A7.45,7.45,0,0,1,13.58,68l-.81.68C17.1,79.91,30.31,93.56,50.5,93.85A41.7,41.7,0,0,0,91,64.5l-6.14-2.28L98,51.22c.41,2.27.78,4.31,1.14,6.36.56,3.15,1.11,6.31,1.68,9.46a2.14,2.14,0,0,0,.22.52ZM8.58,58.75A3.78,3.78,0,0,0,4.8,62.51a3.87,3.87,0,0,0,3.81,3.77,3.87,3.87,0,0,0,3.72-3.75A3.75,3.75,0,0,0,8.58,58.75Z"/><path d="M82.64,71.78H18.22c0-.8,0-1.59,0-2.37,0-3.36-.09-6.73.11-10.09a10.85,10.85,0,0,1,10.76-10c3,0,6.08.11,9.13.13a1.67,1.67,0,0,0,.93-.37,12.74,12.74,0,0,1,8.19-2.66c3.24.06,6.48,0,9.72.21a10.91,10.91,0,0,1,5.35,2.09,3.72,3.72,0,0,0,1.83.57c2.34.06,4.67,0,7,0,6.22,0,11,4.2,11.35,10.42C82.85,63.67,82.64,67.64,82.64,71.78ZM63.93,68.1c0-3.31.06-6.4,0-9.48a8.67,8.67,0,0,0-8.65-8.47c-2.85,0-5.7,0-8.55,0a8.42,8.42,0,0,0-7.18,3.93,8.28,8.28,0,0,0-1.46,4.8V68.1ZM35.78,53c-2.31,0-4.45,0-6.58,0a7,7,0,0,0-7.08,6.09,81.28,81.28,0,0,0-.07,9H34.32C34.94,63.07,33.46,58,35.78,53Zm43.14,15c0-2.81.1-5.45,0-8.09a6.89,6.89,0,0,0-4.63-6.42c-2.56-1-5.25-.34-8-.55,2.37,5,1,10.11,1.53,15.06Z"/><path d="M50.87,44.87a8.84,8.84,0,1,1,.41-17.68,8.84,8.84,0,0,1-.41,17.68Zm-5-8.85A5.13,5.13,0,1,0,51,30.91,5.12,5.12,0,0,0,45.89,36Z"/><path d="M32.93,32.65A7.9,7.9,0,1,1,25,40.52,7.84,7.84,0,0,1,32.93,32.65Zm4.17,7.89a4.21,4.21,0,1,0-4.24,4.21A4.25,4.25,0,0,0,37.1,40.54Z"/><path d="M75.86,40.56A7.88,7.88,0,1,1,68,32.65,7.82,7.82,0,0,1,75.86,40.56Zm-3.65-.09a4.23,4.23,0,0,0-8.46.07,4.23,4.23,0,1,0,8.46-.07Z"/></svg>