<svg id="Layer_1" data-name="Layer 1" xmlns="http://www.w3.org/2000/svg" width="100" height="100" viewBox="0 0 100 100"><title>reference-design</title><path d="M5.4,88.32V86.89q0-25.27,0-50.54a1.69,1.69,0,0,0-1.18-1.87A7,7,0,0,1,.08,27a7.19,7.19,0,0,1,13.78-1.77c.11.27.21.55.35.9h1.18q28.14,0,56.29,0a2.71,2.71,0,0,0,2.12-.86c4.29-4.34,8.62-8.65,12.94-13,.25-.26.52-.5.72-.69L100,24.22A10.2,10.2,0,0,0,99,25Q80.5,43.54,62,62.09a13.09,13.09,0,0,1-3.7,2.64c-6.88,3.23-13.74,6.52-20.6,9.79-.29.14-.59.26-1.15.51.59-1.25,1.07-2.29,1.57-3.33q4.74-9.95,9.49-19.88a4.51,4.51,0,0,1,.89-1.2l20.29-20.3c.09-.09.17-.21.38-.47-.54,0-.92-.07-1.3-.07q-26.26,0-52.53,0a1.33,1.33,0,0,0-1.53,1,6.63,6.63,0,0,1-4,3.89A1.06,1.06,0,0,0,9,35.83q0,24,0,48c0,.28,0,.57.06.91H87.41V57H81L89.3,42.61c2.75,4.77,5.44,9.42,8.24,14.25h-6.4V88.32ZM58.1,60.64,94.7,24l-7.13-7.17L51,53.49Zm-3.71,1.94L49,57.17c-1.57,3.31-3.18,6.69-4.91,10.32ZM7.21,24.37A3.65,3.65,0,0,0,3.55,28a3.75,3.75,0,0,0,3.69,3.64A3.64,3.64,0,0,0,10.8,28,3.57,3.57,0,0,0,7.21,24.37Z"/></svg>