<svg id="Layer_1" data-name="Layer 1" xmlns="http://www.w3.org/2000/svg" width="100" height="100" viewBox="0 0 100 100"><title>customer-satisfaction</title><path d="M32.39,72.87,21.61,83.65l12.63-3.37-3.6,13.49-3.73-4-9,9.07c-1.52,1.52-2.06,1.51-3.61,0s-3.19-3.18-4.77-4.78c-1.08-1.09-1.07-1.81,0-2.9q10-10,20-20A1.46,1.46,0,0,0,29.92,69,23.78,23.78,0,1,1,54,81.37a23.33,23.33,0,0,1-21.13-8Zm18.45,5.67A20.79,20.79,0,0,0,71.61,58c0-11.4-9.19-20.84-20.36-20.86-11.77,0-21.1,9.07-21.12,20.57A20.74,20.74,0,0,0,50.84,78.54Zm-30,5.85-8.25,8.24,3.47,3.47,8.21-8.27Z"/><path d="M51.1,30.92H41.25c-1.54,0-2-.43-2-2,0-2.57-.1-5.15.11-7.7a8.61,8.61,0,0,1,8.53-7.8q3.15,0,6.29,0A8.77,8.77,0,0,1,62.82,22c0,2.37,0,4.74,0,7.11,0,1.35-.51,1.84-1.89,1.84Zm8.67-3.06c0-2.1.09-4.08,0-6a5.6,5.6,0,0,0-5.07-5.25,58,58,0,0,0-7.1,0,5.25,5.25,0,0,0-4.78,3.52c-1,2.53-.37,5.19-.55,7.8Z"/><path d="M79.44,30.92h-10c-1.21,0-1.79-.5-1.79-1.71,0-2.68-.1-5.38.14-8a8.59,8.59,0,0,1,8.62-7.71c1.9,0,3.8,0,5.7,0a8.84,8.84,0,0,1,9.16,9c0,2.17,0,4.35,0,6.52,0,1.49-.52,2-2,2Zm8.78-3.06V22.53a5.82,5.82,0,0,0-5.79-6.06c-2-.08-4-.07-5.92,0-2.61.09-4.93,1.61-5.39,4a57.75,57.75,0,0,0-.51,7.38Z"/><path d="M22.59,30.92H13c-1.8,0-2.11-.33-2.11-2.16,0-2.22,0-4.43,0-6.64a8.7,8.7,0,0,1,8.68-8.67c2.05,0,4.11,0,6.16,0a8.77,8.77,0,0,1,8.67,8.47c.07,2.41,0,4.82,0,7.23,0,1.27-.52,1.76-1.84,1.77ZM14,27.83H31.31v-5.3a5.76,5.76,0,0,0-5.77-6.06c-2-.08-3.95-.07-5.92,0A5.53,5.53,0,0,0,14.09,21,54.32,54.32,0,0,0,14,27.83Z"/><path d="M79.49,12.77a6.33,6.33,0,0,1-6.38-6.39,6.39,6.39,0,1,1,6.38,6.39ZM82.8,6.45a3.32,3.32,0,1,0-6.64-.09,3.32,3.32,0,0,0,6.64.09Z"/><path d="M57.41,6.41A6.3,6.3,0,0,1,51,12.77a6.38,6.38,0,0,1-6.37-6.42A6.5,6.5,0,0,1,51,0,6.4,6.4,0,0,1,57.41,6.41ZM51,9.72a3.33,3.33,0,0,0,3.34-3.29A3.32,3.32,0,1,0,51,9.72Z"/><path d="M29,6.47a6.37,6.37,0,0,1-12.74-.06A6.37,6.37,0,1,1,29,6.47ZM25.89,6.4A3.31,3.31,0,0,0,22.6,3.08a3.45,3.45,0,0,0-3.34,3.33,3.4,3.4,0,0,0,3.35,3.31A3.27,3.27,0,0,0,25.89,6.4Z"/><path d="M51,71.58H41.28c-1.52,0-2-.46-2-2,0-2.57-.11-5.15.1-7.71A8.64,8.64,0,0,1,48,54.06c2,0,4,0,6,0a8.82,8.82,0,0,1,8.78,8.74c0,2.21,0,4.43,0,6.64,0,1.65-.48,2.13-2.1,2.14Zm8.78-3.09c0-1.79,0-3.48,0-5.17a9.38,9.38,0,0,0,0-1.06,5.83,5.83,0,0,0-5.61-5.15c-2,0-4.11,0-6.16,0a5.41,5.41,0,0,0-5.34,4.09,60.29,60.29,0,0,0-.5,7.29Z"/><path d="M51,53.38A6.35,6.35,0,0,1,44.64,47,6.44,6.44,0,0,1,51,40.65,6.35,6.35,0,0,1,57.41,47,6.29,6.29,0,0,1,51,53.38ZM54.36,47a3.32,3.32,0,0,0-6.63.09,3.38,3.38,0,0,0,3.36,3.28A3.34,3.34,0,0,0,54.36,47Z"/></svg>