<svg id="Layer_1" data-name="Layer 1" xmlns="http://www.w3.org/2000/svg" width="100" height="100" viewBox="0 0 100 100"><title>enterprise</title><path d="M4.33,12.62a2,2,0,0,0,.19-.39A6.57,6.57,0,0,1,16.58,9.74c.08.13.17.25.34.48l3-1c9-3,18-6.08,26.95-9.08A2.83,2.83,0,0,1,48.49.08c2.79.71,5.56,1.49,8.33,2.25,1.23.34,1.73,1,1.48,2.09S57.21,5.8,56,5.48l-6.5-1.72V96.67H92.29V15.21L74.2,10.37l-1.26,5.27-11-10.3L76.34.94c-.47,2.13-.92,4.12-1.4,6.22l8.91,2.4c3.3.89,6.62,1.72,9.9,2.68a7.49,7.49,0,0,1,1.92,1.32V100H10.4a2.37,2.37,0,0,1-1.06-2.29c0-4.75,0-9.5,0-14.24q0-16.41,0-32.81c0-5.06-.05-10.11-.05-15.17q0-7.3.07-14.59a1.51,1.51,0,0,0-1.08-1.74,6,6,0,0,1-3.49-3.84c-.17-.51-.31-1-.46-1.53Zm8.35,84H46.07V84.05L12.68,87.11ZM46.11,3.88,42.33,5.16q-11.86,4-23.73,8c-.43.15-1,.58-1.07,1a6.7,6.7,0,0,1-4.26,5.29,1,1,0,0,0-.61.69c-.07,1,0,2.08,0,3.26l33.48-9.14Zm0,68.47c-.59.06-1.1.09-1.6.16Q29.77,74.6,15,76.66c-2.42.34-2.42.31-2.42,2.76v4.41L46.1,80.76Zm0-11.21-8.47,1.47q-12,2.1-24.1,4.22c-.32,0-.84.35-.85.54-.06,2.08,0,4.16,0,6.35L46.1,69Zm-33.47,2.5,33.43-5.83V50L31.24,53.05c-5.9,1.22-11.8,2.44-17.69,3.7-.35.07-.87.48-.88.76C12.59,59.48,12.63,61.46,12.63,63.64Zm33.46-46c-.41.1-.75.16-1.08.25L34.45,20.8c-6.93,1.89-13.87,3.77-20.79,5.69-.38.1-1,.46-1,.72-.08,2,0,4.09,0,6.24l33.46-8ZM12.63,53.49c.37-.05.6-.07.82-.12l13-2.68q9.36-1.94,18.7-3.9c.36-.08.94-.44,1-.69.07-2.19,0-4.4,0-6.67-.44.07-.75.11-1,.18L29.74,43c-5.41,1.22-10.83,2.43-16.24,3.68-.33.08-.83.45-.83.69C12.6,49.4,12.63,51.41,12.63,53.49Zm0-10L46.08,36v-7.2l-1.32.29L30.7,32.48q-8.55,2.06-17.1,4.13c-.35.09-.91.4-.92.62C12.61,39.28,12.64,41.33,12.64,43.5ZM11,9.89a3.41,3.41,0,0,0-3.32,3.37A3.45,3.45,0,0,0,11,16.56a3.46,3.46,0,0,0,3.38-3.33A3.41,3.41,0,0,0,11,9.89Z"/></svg>