<?xml version="1.0" encoding="utf-8"?>
<!-- Generator: Adobe Illustrator 22.1.0, SVG Export Plug-In . SVG Version: 6.00 Build 0)  -->
<svg version="1.1" xmlns="http://www.w3.org/2000/svg" xmlns:xlink="http://www.w3.org/1999/xlink" x="0px" y="0px" width="350px"
	 height="350px" viewBox="0 0 350 350" style="enable-background:new 0 0 350 350;" xml:space="preserve">
<style type="text/css">
	.st0{fill:#FCDDD6;}
	.st1{fill:#FBC2BA;}
	.st2{fill:#F16C51;}
	.st3{fill:#ECE1CE;}
	.st4{fill:#EAC8A5;}
	.st5{fill:#DF9926;}
	.st6{fill:#D8E7DA;}
	.st7{fill:#A8D7CD;}
	.st8{fill:#00B28F;}
	.st9{fill:#92D1FF;}
	.st10{fill:#0F9FFA;}
	.st11{fill:none;}
	.st12{fill:none;stroke:#FFFFFF;stroke-width:1.5;stroke-miterlimit:10;}
	.st13{display:none;}
	.st14{display:inline;}
	.st15{fill:none;stroke:#061838;stroke-width:0.5887;stroke-miterlimit:10;}
	.st16{fill:none;stroke:#000000;stroke-width:0.1397;stroke-miterlimit:10;}
	.st17{fill:none;stroke:#020204;stroke-width:0.216;stroke-miterlimit:10;}
	.st18{fill:none;stroke:#FFFFFF;stroke-width:1.5;stroke-linejoin:bevel;stroke-miterlimit:10;}
	.st19{fill:#FFFFFF;}
	.st20{fill:none;stroke:#FFFFFF;stroke-width:1.5;stroke-linecap:square;stroke-miterlimit:10;}
	.st21{fill:none;stroke:#FFFFFF;stroke-width:1.4995;stroke-miterlimit:22.9256;}
	.st22{fill:none;stroke:#FFFFFF;stroke-width:1.4992;stroke-miterlimit:22.9256;}
	.st23{fill:none;stroke:#FFFFFF;stroke-width:1.4992;stroke-miterlimit:10;}
	.st24{fill:none;stroke:#FFFFFF;stroke-width:1.4995;stroke-linecap:square;stroke-miterlimit:10;}
	.st25{fill:none;stroke:#FFFFFF;stroke-width:1.4992;}
	.st26{fill:none;stroke:#FFFFFF;stroke-width:1.5001;stroke-linecap:square;stroke-miterlimit:10;}
	.st27{fill:none;stroke:#FFFFFF;stroke-width:1.5;stroke-linejoin:bevel;}
	.st28{fill:none;stroke:#FFFFFF;stroke-width:1.5;stroke-miterlimit:10;stroke-dasharray:5,5;}
</style>
<g id="Layer_3">
	<path class="st3" d="M342.9,175c0,54.5-26,103-66.2,133.6c-2,1.5-4,3-6,4.4c-27.2,18.9-60.1,29.9-95.7,29.9
		c-35.6,0-68.5-11.1-95.7-29.9c-2-1.4-4-2.9-6-4.4C33.1,278,7.1,229.5,7.1,175c0-16.8,2.5-33.1,7.1-48.4c0.7-2.4,1.5-4.7,2.3-7.1
		C39,55.2,99.6,8.7,171.3,7.1c1.2,0,2.5,0,3.7,0c1.2,0,2.5,0,3.7,0c71.7,1.6,132.3,48,154.8,112.4c0.8,2.3,1.6,4.7,2.3,7v0
		C340.4,141.9,342.9,158.2,342.9,175z"/>
	<path class="st4" d="M171.3,0v7.1C99.6,8.7,39,55.2,16.4,119.6l-6.7-2.2c5.6-16,13.5-31.2,23.5-45c10.6-14.6,23.4-27.5,37.9-38.3
		C100.4,12.5,134.9,0.8,171.3,0z"/>
	<path class="st5" d="M171.3,7.1v117.3c-19.2,1.4-35.9,13.5-43.2,31.4L16.4,119.6C39,55.2,99.6,8.7,171.3,7.1z"/>
	<path class="st4" d="M340.3,117.4l-6.7,2.2C311,55.2,250.4,8.7,178.7,7.1V0c36.3,0.7,70.9,12.5,100.1,34.1
		c14.6,10.7,27.3,23.6,37.9,38.3C326.8,86.2,334.7,101.3,340.3,117.4z"/>
	<path class="st5" d="M333.5,119.6l-111.6,36.3c-7.3-17.9-24-30-43.2-31.4V7.1C250.4,8.7,311,55.2,333.5,119.6z"/>
	<path class="st4" d="M73.3,308.6l-4.1,5.7c-20.5-15.6-37.6-35.9-49.5-58.7C6.8,230.9,0,203,0,175c0-17.2,2.5-34.2,7.4-50.5l6.7,2.2
		c-4.6,15.3-7.1,31.6-7.1,48.4C7.1,229.5,33.1,278,73.3,308.6z"/>
	<path class="st5" d="M142.3,213.7l-69,95C33.1,278,7.1,229.5,7.1,175c0-16.8,2.5-33.1,7.1-48.4l111.6,36.3c-1,3.9-1.5,8-1.5,12.1
		C124.3,189.9,131,204.1,142.3,213.7z"/>
	<path class="st4" d="M274.8,318.7C245.5,339.2,211,350,175,350c-36,0-70.4-10.8-99.8-31.3l4.2-5.7c27.1,18.9,60.1,29.9,95.7,29.9
		c35.6,0,68.5-11.1,95.7-29.9L274.8,318.7z"/>
	<path class="st5" d="M270.7,313c-27.2,18.9-60.1,29.9-95.7,29.9c-35.6,0-68.5-11.1-95.7-29.9l69-95c8,5,17.2,7.6,26.7,7.6
		c9.5,0,18.7-2.6,26.7-7.6L270.7,313z"/>
	<path class="st4" d="M350,175c0,28.1-6.8,56-19.7,80.7c-11.9,22.8-29,43.1-49.5,58.7l-4.2-5.7c40.3-30.7,66.2-79.1,66.2-133.6
		c0-16.8-2.5-33.1-7.1-48.4v0l6.7-2.2C347.5,140.8,350,157.8,350,175z"/>
	<path class="st5" d="M342.9,175c0,54.5-26,103-66.2,133.6l-69-95c11.3-9.6,18-23.8,18-38.7c0-4.1-0.5-8.1-1.5-12.1l111.6-36.3
		C340.4,141.9,342.9,158.2,342.9,175z"/>
	<path class="st3" d="M238.2,175c0,20.5-9.8,38.7-24.9,50.3c-0.7,0.6-1.5,1.1-2.3,1.6c-10.2,7.1-22.6,11.3-36,11.3
		c-13.4,0-25.8-4.2-36-11.3c-0.8-0.5-1.5-1.1-2.3-1.6c-15.1-11.5-24.9-29.8-24.9-50.3c0-6.3,0.9-12.4,2.7-18.2
		c0.3-0.9,0.6-1.8,0.9-2.7c8.5-24.2,31.3-41.7,58.2-42.3c0.5,0,0.9,0,1.4,0c0.5,0,0.9,0,1.4,0c27,0.6,49.8,18.1,58.2,42.3
		c0.3,0.9,0.6,1.8,0.9,2.7v0C237.2,162.6,238.2,168.7,238.2,175z"/>
</g>
<g id="Layer_1" class="st13">
	<g class="st14">
		<rect x="218.2" y="42.1" class="st16" width="10" height="10"/>
		<rect x="228.2" y="42.1" class="st16" width="10" height="10"/>
		<rect x="238.2" y="42.1" class="st16" width="10" height="10"/>
		<rect x="248.2" y="42.1" class="st16" width="10" height="10"/>
		<rect x="258.2" y="42.1" class="st16" width="10" height="10"/>
		<rect x="268.2" y="42.1" class="st16" width="10" height="10"/>
		<rect x="218.2" y="52.1" class="st16" width="10" height="10"/>
		<rect x="228.2" y="52.1" class="st16" width="10" height="10"/>
		<rect x="238.2" y="52.1" class="st16" width="10" height="10"/>
		<rect x="248.2" y="52.1" class="st16" width="10" height="10"/>
		<rect x="258.2" y="52.1" class="st16" width="10" height="10"/>
		<rect x="268.2" y="52.1" class="st16" width="10" height="10"/>
		<rect x="218.2" y="62.1" class="st16" width="10" height="10"/>
		<rect x="228.2" y="62.1" class="st16" width="10" height="10"/>
		<rect x="238.2" y="62.1" class="st16" width="10" height="10"/>
		<rect x="248.2" y="62.1" class="st16" width="10" height="10"/>
		<rect x="258.2" y="62.1" class="st16" width="10" height="10"/>
		<rect x="268.2" y="62.1" class="st16" width="10" height="10"/>
		<rect x="218.2" y="72.1" class="st16" width="10" height="10"/>
		<rect x="228.2" y="72.1" class="st16" width="10" height="10"/>
		<rect x="238.2" y="72.1" class="st16" width="10" height="10"/>
		<rect x="248.2" y="72.1" class="st16" width="10" height="10"/>
		<rect x="258.2" y="72.1" class="st16" width="10" height="10"/>
		<rect x="268.2" y="72.1" class="st16" width="10" height="10"/>
		<rect x="218.2" y="82.1" class="st16" width="10" height="10"/>
		<rect x="228.2" y="82.1" class="st16" width="10" height="10"/>
		<rect x="238.2" y="82.1" class="st16" width="10" height="10"/>
		<rect x="248.2" y="82.1" class="st16" width="10" height="10"/>
		<rect x="258.2" y="82.1" class="st16" width="10" height="10"/>
		<rect x="268.2" y="82.1" class="st16" width="10" height="10"/>
		<rect x="218.2" y="92.1" class="st16" width="10" height="10"/>
		<rect x="228.2" y="92.1" class="st16" width="10" height="10"/>
		<rect x="238.2" y="92.1" class="st16" width="10" height="10"/>
		<rect x="248.2" y="92.1" class="st16" width="10" height="10"/>
		<rect x="258.2" y="92.1" class="st16" width="10" height="10"/>
		<rect x="268.2" y="92.1" class="st16" width="10" height="10"/>
		<rect x="218.2" y="102.1" class="st16" width="10" height="10"/>
		<rect x="228.2" y="102.1" class="st16" width="10" height="10"/>
		<rect x="238.2" y="102.1" class="st16" width="10" height="10"/>
		<rect x="248.2" y="102.1" class="st16" width="10" height="10"/>
		<rect x="258.2" y="102.1" class="st16" width="10" height="10"/>
		<rect x="268.2" y="102.1" class="st16" width="10" height="10"/>
	</g>
	<g class="st14">
		<g>
			<rect x="77.5" y="34.2" class="st16" width="10" height="10"/>
			<rect x="87.5" y="34.2" class="st16" width="10" height="10"/>
			<rect x="97.5" y="34.2" class="st16" width="10" height="10"/>
			<rect x="107.5" y="34.2" class="st16" width="10" height="10"/>
			<rect x="117.5" y="34.2" class="st16" width="10" height="10"/>
			<rect x="127.5" y="34.2" class="st16" width="10" height="10"/>
			<rect x="77.5" y="44.2" class="st16" width="10" height="10"/>
			<rect x="87.5" y="44.2" class="st16" width="10" height="10"/>
			<rect x="97.5" y="44.2" class="st16" width="10" height="10"/>
			<rect x="107.5" y="44.2" class="st16" width="10" height="10"/>
			<rect x="117.5" y="44.2" class="st16" width="10" height="10"/>
			<rect x="127.5" y="44.2" class="st16" width="10" height="10"/>
			<rect x="77.5" y="54.2" class="st16" width="10" height="10"/>
			<rect x="87.5" y="54.2" class="st16" width="10" height="10"/>
			<rect x="97.5" y="54.2" class="st16" width="10" height="10"/>
			<rect x="107.5" y="54.2" class="st16" width="10" height="10"/>
			<rect x="117.5" y="54.2" class="st16" width="10" height="10"/>
			<rect x="127.5" y="54.2" class="st16" width="10" height="10"/>
			<rect x="77.5" y="64.2" class="st16" width="10" height="10"/>
			<rect x="87.5" y="64.2" class="st16" width="10" height="10"/>
			<rect x="97.5" y="64.2" class="st16" width="10" height="10"/>
			<rect x="107.5" y="64.2" class="st16" width="10" height="10"/>
			<rect x="117.5" y="64.2" class="st16" width="10" height="10"/>
			<rect x="127.5" y="64.2" class="st16" width="10" height="10"/>
			<rect x="77.5" y="74.2" class="st16" width="10" height="10"/>
			<rect x="87.5" y="74.2" class="st16" width="10" height="10"/>
			<rect x="97.5" y="74.2" class="st16" width="10" height="10"/>
			<rect x="107.5" y="74.2" class="st16" width="10" height="10"/>
			<rect x="117.5" y="74.2" class="st16" width="10" height="10"/>
			<rect x="127.5" y="74.2" class="st16" width="10" height="10"/>
			<rect x="77.5" y="84.2" class="st16" width="10" height="10"/>
			<rect x="87.5" y="84.2" class="st16" width="10" height="10"/>
			<rect x="97.5" y="84.2" class="st16" width="10" height="10"/>
			<rect x="107.5" y="84.2" class="st16" width="10" height="10"/>
			<rect x="117.5" y="84.2" class="st16" width="10" height="10"/>
			<rect x="127.5" y="84.2" class="st16" width="10" height="10"/>
			<rect x="77.5" y="94.2" class="st16" width="10" height="10"/>
			<rect x="87.5" y="94.2" class="st16" width="10" height="10"/>
			<rect x="97.5" y="94.2" class="st16" width="10" height="10"/>
			<rect x="107.5" y="94.2" class="st16" width="10" height="10"/>
			<rect x="117.5" y="94.2" class="st16" width="10" height="10"/>
			<rect x="127.5" y="94.2" class="st16" width="10" height="10"/>
		</g>
	</g>
	<g class="st14">
		<rect x="145" y="233.8" class="st16" width="10" height="10"/>
		<rect x="155" y="233.8" class="st16" width="10" height="10"/>
		<rect x="165" y="233.8" class="st16" width="10" height="10"/>
		<rect x="175" y="233.8" class="st16" width="10" height="10"/>
		<rect x="185" y="233.8" class="st16" width="10" height="10"/>
		<rect x="195" y="233.8" class="st16" width="10" height="10"/>
		<rect x="145" y="243.8" class="st16" width="10" height="10"/>
		<rect x="155" y="243.8" class="st16" width="10" height="10"/>
		<rect x="165" y="243.8" class="st16" width="10" height="10"/>
		<rect x="175" y="243.8" class="st16" width="10" height="10"/>
		<rect x="185" y="243.8" class="st16" width="10" height="10"/>
		<rect x="195" y="243.8" class="st16" width="10" height="10"/>
		<rect x="145" y="253.8" class="st16" width="10" height="10"/>
		<rect x="155" y="253.8" class="st16" width="10" height="10"/>
		<rect x="165" y="253.8" class="st16" width="10" height="10"/>
		<rect x="175" y="253.8" class="st16" width="10" height="10"/>
		<rect x="185" y="253.8" class="st16" width="10" height="10"/>
		<rect x="195" y="253.8" class="st16" width="10" height="10"/>
		<rect x="145" y="263.8" class="st16" width="10" height="10"/>
		<rect x="155" y="263.8" class="st16" width="10" height="10"/>
		<rect x="165" y="263.8" class="st16" width="10" height="10"/>
		<rect x="175" y="263.8" class="st16" width="10" height="10"/>
		<rect x="185" y="263.8" class="st16" width="10" height="10"/>
		<rect x="195" y="263.8" class="st16" width="10" height="10"/>
		<rect x="145" y="273.8" class="st16" width="10" height="10"/>
		<rect x="155" y="273.8" class="st16" width="10" height="10"/>
		<rect x="165" y="273.8" class="st16" width="10" height="10"/>
		<rect x="175" y="273.8" class="st16" width="10" height="10"/>
		<rect x="185" y="273.8" class="st16" width="10" height="10"/>
		<rect x="195" y="273.8" class="st16" width="10" height="10"/>
		<rect x="145" y="283.8" class="st16" width="10" height="10"/>
		<rect x="155" y="283.8" class="st16" width="10" height="10"/>
		<rect x="165" y="283.8" class="st16" width="10" height="10"/>
		<rect x="175" y="283.8" class="st16" width="10" height="10"/>
		<rect x="185" y="283.8" class="st16" width="10" height="10"/>
		<rect x="195" y="283.8" class="st16" width="10" height="10"/>
		<rect x="145" y="293.8" class="st16" width="10" height="10"/>
		<rect x="155" y="293.8" class="st16" width="10" height="10"/>
		<rect x="165" y="293.8" class="st16" width="10" height="10"/>
		<rect x="175" y="293.8" class="st16" width="10" height="10"/>
		<rect x="185" y="293.8" class="st16" width="10" height="10"/>
		<rect x="195" y="293.8" class="st16" width="10" height="10"/>
	</g>
	<g class="st14">
		<rect x="252.3" y="149.7" class="st16" width="10" height="10"/>
		<rect x="262.3" y="149.7" class="st16" width="10" height="10"/>
		<rect x="272.3" y="149.7" class="st16" width="10" height="10"/>
		<rect x="282.3" y="149.7" class="st16" width="10" height="10"/>
		<rect x="292.3" y="149.7" class="st16" width="10" height="10"/>
		<rect x="302.3" y="149.7" class="st16" width="10" height="10"/>
		<rect x="252.3" y="159.7" class="st16" width="10" height="10"/>
		<rect x="262.3" y="159.7" class="st16" width="10" height="10"/>
		<rect x="272.3" y="159.7" class="st16" width="10" height="10"/>
		<rect x="282.3" y="159.7" class="st16" width="10" height="10"/>
		<rect x="292.3" y="159.7" class="st16" width="10" height="10"/>
		<rect x="302.3" y="159.7" class="st16" width="10" height="10"/>
		<rect x="252.3" y="169.7" class="st16" width="10" height="10"/>
		<rect x="262.3" y="169.7" class="st16" width="10" height="10"/>
		<rect x="272.3" y="169.7" class="st16" width="10" height="10"/>
		<rect x="282.3" y="169.7" class="st16" width="10" height="10"/>
		<rect x="292.3" y="169.7" class="st16" width="10" height="10"/>
		<rect x="302.3" y="169.7" class="st16" width="10" height="10"/>
		<rect x="252.3" y="179.7" class="st16" width="10" height="10"/>
		<rect x="262.3" y="179.7" class="st16" width="10" height="10"/>
		<rect x="272.3" y="179.7" class="st16" width="10" height="10"/>
		<rect x="282.3" y="179.7" class="st16" width="10" height="10"/>
		<rect x="292.3" y="179.7" class="st16" width="10" height="10"/>
		<rect x="302.3" y="179.7" class="st16" width="10" height="10"/>
		<rect x="252.3" y="189.7" class="st16" width="10" height="10"/>
		<rect x="262.3" y="189.7" class="st16" width="10" height="10"/>
		<rect x="272.3" y="189.7" class="st16" width="10" height="10"/>
		<rect x="282.3" y="189.7" class="st16" width="10" height="10"/>
		<rect x="292.3" y="189.7" class="st16" width="10" height="10"/>
		<rect x="302.3" y="189.7" class="st16" width="10" height="10"/>
		<rect x="252.3" y="199.7" class="st16" width="10" height="10"/>
		<rect x="262.3" y="199.7" class="st16" width="10" height="10"/>
		<rect x="272.3" y="199.7" class="st16" width="10" height="10"/>
		<rect x="282.3" y="199.7" class="st16" width="10" height="10"/>
		<rect x="292.3" y="199.7" class="st16" width="10" height="10"/>
		<rect x="302.3" y="199.7" class="st16" width="10" height="10"/>
		<rect x="252.3" y="209.7" class="st16" width="10" height="10"/>
		<rect x="262.3" y="209.7" class="st16" width="10" height="10"/>
		<rect x="272.3" y="209.7" class="st16" width="10" height="10"/>
		<rect x="282.3" y="209.7" class="st16" width="10" height="10"/>
		<rect x="292.3" y="209.7" class="st16" width="10" height="10"/>
		<rect x="302.3" y="209.7" class="st16" width="10" height="10"/>
	</g>
	<g class="st14">
		<rect x="36.6" y="146.9" class="st16" width="10" height="10"/>
		<rect x="46.6" y="146.9" class="st16" width="10" height="10"/>
		<rect x="56.6" y="146.9" class="st16" width="10" height="10"/>
		<rect x="66.6" y="146.9" class="st16" width="10" height="10"/>
		<rect x="76.6" y="146.9" class="st16" width="10" height="10"/>
		<rect x="86.6" y="146.9" class="st16" width="10" height="10"/>
		<rect x="36.6" y="156.9" class="st16" width="10" height="10"/>
		<rect x="46.6" y="156.9" class="st16" width="10" height="10"/>
		<rect x="56.6" y="156.9" class="st16" width="10" height="10"/>
		<rect x="66.6" y="156.9" class="st16" width="10" height="10"/>
		<rect x="76.6" y="156.9" class="st16" width="10" height="10"/>
		<rect x="86.6" y="156.9" class="st16" width="10" height="10"/>
		<rect x="36.6" y="166.9" class="st16" width="10" height="10"/>
		<rect x="46.6" y="166.9" class="st16" width="10" height="10"/>
		<rect x="56.6" y="166.9" class="st16" width="10" height="10"/>
		<rect x="66.6" y="166.9" class="st16" width="10" height="10"/>
		<rect x="76.6" y="166.9" class="st16" width="10" height="10"/>
		<rect x="86.6" y="166.9" class="st16" width="10" height="10"/>
		<rect x="36.6" y="176.9" class="st16" width="10" height="10"/>
		<rect x="46.6" y="176.9" class="st16" width="10" height="10"/>
		<rect x="56.6" y="176.9" class="st16" width="10" height="10"/>
		<rect x="66.6" y="176.9" class="st16" width="10" height="10"/>
		<rect x="76.6" y="176.9" class="st16" width="10" height="10"/>
		<rect x="86.6" y="176.9" class="st16" width="10" height="10"/>
		<rect x="36.6" y="186.9" class="st16" width="10" height="10"/>
		<rect x="46.6" y="186.9" class="st16" width="10" height="10"/>
		<rect x="56.6" y="186.9" class="st16" width="10" height="10"/>
		<rect x="66.6" y="186.9" class="st16" width="10" height="10"/>
		<rect x="76.6" y="186.9" class="st16" width="10" height="10"/>
		<rect x="86.6" y="186.9" class="st16" width="10" height="10"/>
		<rect x="36.6" y="196.9" class="st16" width="10" height="10"/>
		<rect x="46.6" y="196.9" class="st16" width="10" height="10"/>
		<rect x="56.6" y="196.9" class="st16" width="10" height="10"/>
		<rect x="66.6" y="196.9" class="st16" width="10" height="10"/>
		<rect x="76.6" y="196.9" class="st16" width="10" height="10"/>
		<rect x="86.6" y="196.9" class="st16" width="10" height="10"/>
		<rect x="36.6" y="206.9" class="st16" width="10" height="10"/>
		<rect x="46.6" y="206.9" class="st16" width="10" height="10"/>
		<rect x="56.6" y="206.9" class="st16" width="10" height="10"/>
		<rect x="66.6" y="206.9" class="st16" width="10" height="10"/>
		<rect x="76.6" y="206.9" class="st16" width="10" height="10"/>
		<rect x="86.6" y="206.9" class="st16" width="10" height="10"/>
	</g>
</g>
<g id="Layer_4">
	<line class="st12" x1="246.6" y1="64.9" x2="246.6" y2="78.1"/>
	<circle class="st12" cx="246.6" cy="83.9" r="2.3"/>
	<polyline class="st12" points="295.1,199.7 297.8,202.4 303.8,196.4 	"/>
	<g>
		<g>
			<polyline class="st20" points="262.5,83.4 246.5,55.7 226.6,90.2 262.1,90.2 			"/>
			<g>
				<polygon class="st19" points="261.2,93.2 266.4,90.2 261.2,87.2 				"/>
			</g>
		</g>
	</g>
	<path class="st12" d="M307.2,192.9c-4.9-0.3-8.3-2.7-8.3-2.7s-3.4,2.4-8.3,2.7c0,0-2,12.1,8.3,17.3
		C309.1,205,307.2,192.9,307.2,192.9z"/>
	<polygon class="st12" points="277,166.9 271.8,175.6 274.4,175.6 268.4,185.1 272.3,185.1 266.4,195.8 287.6,195.8 281.7,185.1 
		285.4,185.1 279.4,175.6 282.2,175.6 	"/>
	<polyline class="st12" points="261.7,163.8 261.7,209.3 261.7,210.7 264.4,210.7 275,210.7 275,195.4 	"/>
	<g>
		<g>
			<polyline class="st12" points="299.1,183.4 299.1,160.9 264.3,160.9 			"/>
			<g>
				<polygon class="st19" points="302.1,182.5 299.1,187.7 296.1,182.5 				"/>
			</g>
		</g>
	</g>
	<g>
		<g>
			<g>
				<g>
					<g>
						<g>
							<polyline class="st12" points="89,204.4 89,169 80.2,160 59.6,160 							"/>
							<g>
								<polygon class="st19" points="92,203.6 89,208.7 86,203.6 								"/>
							</g>
						</g>
					</g>
					<polyline class="st12" points="53.8,162.8 53.8,208.7 76.3,208.7 					"/>
					<line class="st12" x1="69.7" y1="170.2" x2="77.2" y2="170.3"/>
					<line class="st12" x1="69.9" y1="179.4" x2="83.1" y2="179.4"/>
				</g>
				<rect x="59.9" y="168" class="st12" width="5.3" height="4.5"/>
				<rect x="59.9" y="177.2" class="st12" width="5.3" height="4.5"/>
				<circle class="st12" cx="69.3" cy="194.6" r="9.2"/>
				<path class="st12" d="M75.2,193.1c0.1,0.5,0.2,1,0.2,1.5c0,3.4-2.7,6.1-6.1,6.1s-6.1-2.7-6.1-6.1c0-3.4,2.7-6.1,6.1-6.1
					c1.2,0,2.3,0.4,3.3,1"/>
				<polyline class="st12" points="65.9,193.4 68.6,196.1 74.6,190.6 				"/>
			</g>
		</g>
		<circle class="st12" cx="53.9" cy="160.5" r="2.2"/>
		<polyline class="st12" points="80.2,160 80.2,169 89,169 		"/>
	</g>
	<path class="st12" d="M77.1,200l5.8,5.9c0.7,0.7,0.7,1.7,0,2.4l0,0c-0.7,0.7-1.7,0.7-2.4,0l-5.8-5.9"/>
	<polygon class="st12" points="117.3,73.8 104.6,93.9 130,93.9 	"/>
	<polygon class="st18" points="105.6,81.2 96.3,81.2 94.1,63.9 108.1,63.9 	"/>
	<line class="st18" x1="108.6" y1="61" x2="93.6" y2="61"/>
	<rect x="98.9" y="58.2" class="st18" width="4.5" height="2.8"/>
	<line class="st18" x1="99" y1="66.3" x2="99.9" y2="78.6"/>
	<line class="st18" x1="103.9" y1="66.3" x2="102.5" y2="78.8"/>
	<line class="st18" x1="117.3" y1="80.3" x2="117.3" y2="86.9"/>
	<line class="st18" x1="117.3" y1="88.2" x2="117.3" y2="90.4"/>
	<g>
		<g>
			<polyline class="st27" points="98.4,87.9 83.8,87.9 83.8,54 123.7,54 130.2,54 130.2,83.6 			"/>
			<g>
				<polygon class="st19" points="127.3,82.7 130.2,87.9 133.2,82.7 				"/>
			</g>
		</g>
	</g>
	<circle class="st18" cx="101" cy="88.1" r="2.3"/>
	<g>
		<g>
			<path class="st19" d="M56.8,101.7v7.7h-1.4v-7.7H56.8z"/>
			<path class="st19" d="M58.2,105.5c0-0.6,0-1.2,0-1.6h1.2l0.1,0.8h0c0.2-0.4,0.8-1,1.8-1c1,0,2,0.6,2,2.4v3.3h-1.4v-3.1
				c0-0.8-0.3-1.4-1.1-1.4c-0.6,0-0.9,0.4-1.1,0.8c0,0.1-0.1,0.3-0.1,0.5v3.3h-1.4V105.5z"/>
			<path class="st19" d="M68.6,109.2c-0.3,0.1-0.9,0.3-1.6,0.3c-1.7,0-2.9-1.1-2.9-2.8c0-1.7,1.1-3,3.1-3c0.5,0,1,0.1,1.4,0.3
				l-0.3,1c-0.2-0.1-0.6-0.2-1.1-0.2c-1.1,0-1.7,0.8-1.7,1.8c0,1.1,0.7,1.8,1.7,1.8c0.5,0,0.8-0.1,1.1-0.2L68.6,109.2z"/>
			<path class="st19" d="M70.9,102.3c0,0.4-0.3,0.8-0.8,0.8c-0.5,0-0.8-0.3-0.8-0.8c0-0.4,0.3-0.8,0.8-0.8
				C70.6,101.6,70.9,101.9,70.9,102.3z M69.4,109.4v-5.5h1.4v5.5H69.4z"/>
			<path class="st19" d="M77.2,101.3v6.5c0,0.6,0,1.2,0,1.6H76l-0.1-0.9h0c-0.3,0.6-1,1-1.8,1c-1.3,0-2.4-1.1-2.4-2.8
				c0-1.9,1.1-3,2.5-3c0.8,0,1.3,0.3,1.6,0.7h0v-3.1H77.2z M75.8,106.2c0-0.1,0-0.3,0-0.4c-0.1-0.5-0.6-1-1.2-1
				c-0.9,0-1.4,0.8-1.4,1.8c0,1,0.5,1.8,1.4,1.8c0.6,0,1.1-0.4,1.2-1c0-0.1,0-0.3,0-0.4V106.2z"/>
			<path class="st19" d="M79.4,107c0,1,0.8,1.4,1.7,1.4c0.6,0,1.1-0.1,1.5-0.3l0.2,1c-0.5,0.2-1.1,0.3-1.9,0.3
				c-1.8,0-2.9-1.1-2.9-2.8c0-1.5,0.9-3,2.7-3c1.8,0,2.4,1.5,2.4,2.7c0,0.3,0,0.5,0,0.6H79.4z M81.9,106.1c0-0.5-0.2-1.4-1.1-1.4
				c-0.9,0-1.2,0.8-1.3,1.4H81.9z"/>
			<path class="st19" d="M84.1,105.5c0-0.6,0-1.2,0-1.6h1.2l0.1,0.8h0c0.2-0.4,0.8-1,1.8-1c1,0,2,0.6,2,2.4v3.3h-1.4v-3.1
				c0-0.8-0.3-1.4-1.1-1.4c-0.6,0-0.9,0.4-1.1,0.8c0,0.1-0.1,0.3-0.1,0.5v3.3h-1.4V105.5z"/>
			<path class="st19" d="M91.9,102.3v1.6h1.3v1h-1.3v2.4c0,0.7,0.2,1,0.7,1c0.2,0,0.4,0,0.5-0.1l0,1.1c-0.2,0.1-0.6,0.1-1,0.1
				c-0.5,0-0.9-0.2-1.2-0.5c-0.3-0.3-0.4-0.8-0.4-1.5v-2.6h-0.8v-1h0.8v-1.3L91.9,102.3z"/>
			<path class="st19" d="M99.3,109.4l-0.1-0.6h0c-0.3,0.4-0.9,0.7-1.6,0.7c-1.1,0-1.7-0.8-1.7-1.6c0-1.4,1.2-2.1,3.3-2.1v-0.1
				c0-0.4-0.1-1-1.1-1c-0.5,0-1.1,0.2-1.5,0.4l-0.3-0.9c0.4-0.3,1.1-0.5,2-0.5c1.8,0,2.3,1.1,2.3,2.3v2c0,0.5,0,1,0.1,1.3H99.3z
				 M99.1,106.7c-1,0-1.9,0.2-1.9,1c0,0.5,0.4,0.8,0.8,0.8c0.6,0,1-0.4,1.1-0.8c0-0.1,0-0.2,0-0.3V106.7z"/>
			<path class="st19" d="M101.8,105.5c0-0.6,0-1.2,0-1.6h1.2l0.1,0.8h0c0.2-0.4,0.8-1,1.8-1c1,0,2,0.6,2,2.4v3.3h-1.4v-3.1
				c0-0.8-0.3-1.4-1.1-1.4c-0.6,0-0.9,0.4-1.1,0.8c0,0.1-0.1,0.3-0.1,0.5v3.3h-1.4V105.5z"/>
			<path class="st19" d="M113.1,101.3v6.5c0,0.6,0,1.2,0,1.6h-1.3l-0.1-0.9h0c-0.3,0.6-1,1-1.8,1c-1.3,0-2.4-1.1-2.4-2.8
				c0-1.9,1.1-3,2.5-3c0.8,0,1.3,0.3,1.6,0.7h0v-3.1H113.1z M111.7,106.2c0-0.1,0-0.3,0-0.4c-0.1-0.5-0.6-1-1.2-1
				c-0.9,0-1.4,0.8-1.4,1.8c0,1,0.5,1.8,1.4,1.8c0.6,0,1.1-0.4,1.2-1c0-0.1,0-0.3,0-0.4V106.2z"/>
			<path class="st19" d="M117.5,107c0,1,0.8,1.4,1.7,1.4c0.6,0,1.1-0.1,1.5-0.3l0.2,1c-0.5,0.2-1.1,0.3-1.9,0.3
				c-1.8,0-2.9-1.1-2.9-2.8c0-1.5,0.9-3,2.7-3c1.8,0,2.4,1.5,2.4,2.7c0,0.3,0,0.5,0,0.6H117.5z M120,106.1c0-0.5-0.2-1.4-1.1-1.4
				c-0.9,0-1.2,0.8-1.3,1.4H120z"/>
			<path class="st19" d="M123,103.9l0.9,2.8c0.2,0.5,0.3,0.9,0.4,1.4h0c0.1-0.5,0.2-0.9,0.4-1.4l0.9-2.8h1.5l-2.1,5.5h-1.4l-2.1-5.5
				H123z"/>
			<path class="st19" d="M128.5,107c0,1,0.8,1.4,1.7,1.4c0.6,0,1.1-0.1,1.5-0.3l0.2,1c-0.5,0.2-1.1,0.3-1.9,0.3
				c-1.8,0-2.9-1.1-2.9-2.8c0-1.5,0.9-3,2.7-3c1.8,0,2.4,1.5,2.4,2.7c0,0.3,0,0.5,0,0.6H128.5z M131,106.1c0-0.5-0.2-1.4-1.1-1.4
				c-0.9,0-1.2,0.8-1.3,1.4H131z"/>
			<path class="st19" d="M133.2,105.5c0-0.6,0-1.2,0-1.6h1.2l0.1,0.8h0c0.2-0.4,0.8-1,1.8-1c1,0,2,0.6,2,2.4v3.3h-1.4v-3.1
				c0-0.8-0.3-1.4-1.1-1.4c-0.6,0-0.9,0.4-1.1,0.8c0,0.1-0.1,0.3-0.1,0.5v3.3h-1.4V105.5z"/>
			<path class="st19" d="M141,102.3v1.6h1.3v1H141v2.4c0,0.7,0.2,1,0.7,1c0.2,0,0.4,0,0.5-0.1l0,1.1c-0.2,0.1-0.6,0.1-1,0.1
				c-0.5,0-0.9-0.2-1.2-0.5c-0.3-0.3-0.4-0.8-0.4-1.5v-2.6h-0.8v-1h0.8v-1.3L141,102.3z"/>
			<path class="st19" d="M67.4,117.2c0-0.6,0-1.2,0-1.6h1.2l0.1,0.8h0c0.3-0.4,0.8-0.9,1.7-0.9c0.7,0,1.3,0.4,1.5,1h0
				c0.2-0.3,0.4-0.5,0.7-0.7c0.3-0.2,0.7-0.3,1.1-0.3c0.9,0,1.9,0.6,1.9,2.4v3.3h-1.4V118c0-0.9-0.3-1.5-1-1.5c-0.5,0-0.8,0.3-1,0.7
				c0,0.1-0.1,0.3-0.1,0.5v3.3h-1.4v-3.2c0-0.8-0.3-1.3-1-1.3c-0.5,0-0.9,0.4-1,0.8c-0.1,0.1-0.1,0.3-0.1,0.5v3.3h-1.4V117.2z"/>
			<path class="st19" d="M79.9,121.1l-0.1-0.6h0c-0.3,0.4-0.9,0.7-1.6,0.7c-1.1,0-1.7-0.8-1.7-1.6c0-1.4,1.2-2.1,3.3-2.1v-0.1
				c0-0.4-0.1-1-1.1-1c-0.5,0-1.1,0.2-1.5,0.4l-0.3-0.9c0.4-0.3,1.1-0.5,2-0.5c1.8,0,2.3,1.1,2.3,2.3v2c0,0.5,0,1,0.1,1.3H79.9z
				 M79.7,118.4c-1,0-1.9,0.2-1.9,1c0,0.5,0.4,0.8,0.8,0.8c0.6,0,1-0.4,1.1-0.8c0-0.1,0-0.2,0-0.3V118.4z"/>
			<path class="st19" d="M82.4,117.2c0-0.6,0-1.2,0-1.6h1.2l0.1,0.8h0c0.2-0.4,0.8-1,1.8-1c1,0,2,0.6,2,2.4v3.3H86V118
				c0-0.8-0.3-1.4-1.1-1.4c-0.6,0-0.9,0.4-1.1,0.8c0,0.1-0.1,0.3-0.1,0.5v3.3h-1.4V117.2z"/>
			<path class="st19" d="M91.8,121.1l-0.1-0.6h0c-0.3,0.4-0.9,0.7-1.6,0.7c-1.1,0-1.7-0.8-1.7-1.6c0-1.4,1.2-2.1,3.3-2.1v-0.1
				c0-0.4-0.1-1-1.1-1c-0.5,0-1.1,0.2-1.5,0.4l-0.3-0.9c0.4-0.3,1.1-0.5,2-0.5c1.8,0,2.3,1.1,2.3,2.3v2c0,0.5,0,1,0.1,1.3H91.8z
				 M91.6,118.4c-1,0-1.9,0.2-1.9,1c0,0.5,0.4,0.8,0.8,0.8c0.6,0,1-0.4,1.1-0.8c0-0.1,0-0.2,0-0.3V118.4z"/>
			<path class="st19" d="M99.2,115.5c0,0.4,0,0.8,0,1.6v3.1c0,1.2-0.2,2-0.8,2.5c-0.6,0.5-1.4,0.7-2.1,0.7c-0.7,0-1.5-0.1-1.9-0.4
				l0.3-1.1c0.4,0.2,0.9,0.4,1.6,0.4c0.9,0,1.6-0.5,1.6-1.7v-0.5h0c-0.3,0.5-0.9,0.8-1.6,0.8c-1.4,0-2.4-1.1-2.4-2.7
				c0-1.8,1.2-2.9,2.5-2.9c0.8,0,1.3,0.4,1.6,0.9h0l0.1-0.7H99.2z M97.8,117.8c0-0.1,0-0.3,0-0.4c-0.1-0.5-0.5-0.9-1.1-0.9
				c-0.8,0-1.4,0.7-1.4,1.8c0,0.9,0.5,1.7,1.4,1.7c0.5,0,1-0.3,1.1-0.8c0-0.1,0.1-0.3,0.1-0.5V117.8z"/>
			<path class="st19" d="M101.5,118.7c0,1,0.8,1.4,1.7,1.4c0.6,0,1.1-0.1,1.5-0.3l0.2,1c-0.5,0.2-1.1,0.3-1.9,0.3
				c-1.8,0-2.9-1.1-2.9-2.8c0-1.5,0.9-3,2.7-3c1.8,0,2.4,1.5,2.4,2.7c0,0.3,0,0.5,0,0.6H101.5z M103.9,117.7c0-0.5-0.2-1.4-1.1-1.4
				c-0.9,0-1.2,0.8-1.3,1.4H103.9z"/>
			<path class="st19" d="M106.1,117.2c0-0.6,0-1.2,0-1.6h1.2l0.1,0.8h0c0.3-0.4,0.8-0.9,1.7-0.9c0.7,0,1.3,0.4,1.5,1h0
				c0.2-0.3,0.4-0.5,0.7-0.7c0.3-0.2,0.7-0.3,1.1-0.3c0.9,0,1.9,0.6,1.9,2.4v3.3h-1.4V118c0-0.9-0.3-1.5-1-1.5c-0.5,0-0.8,0.3-1,0.7
				c0,0.1-0.1,0.3-0.1,0.5v3.3h-1.4v-3.2c0-0.8-0.3-1.3-1-1.3c-0.5,0-0.9,0.4-1,0.8c-0.1,0.1-0.1,0.3-0.1,0.5v3.3h-1.4V117.2z"/>
			<path class="st19" d="M116.5,118.7c0,1,0.8,1.4,1.7,1.4c0.6,0,1.1-0.1,1.5-0.3l0.2,1c-0.5,0.2-1.1,0.3-1.9,0.3
				c-1.8,0-2.9-1.1-2.9-2.8c0-1.5,0.9-3,2.7-3c1.8,0,2.4,1.5,2.4,2.7c0,0.3,0,0.5,0,0.6H116.5z M119,117.7c0-0.5-0.2-1.4-1.1-1.4
				c-0.9,0-1.2,0.8-1.3,1.4H119z"/>
			<path class="st19" d="M121.2,117.2c0-0.6,0-1.2,0-1.6h1.2l0.1,0.8h0c0.2-0.4,0.8-1,1.8-1c1,0,2,0.6,2,2.4v3.3h-1.4V118
				c0-0.8-0.3-1.4-1.1-1.4c-0.6,0-0.9,0.4-1.1,0.8c0,0.1-0.1,0.3-0.1,0.5v3.3h-1.4V117.2z"/>
			<path class="st19" d="M129,114v1.6h1.3v1H129v2.4c0,0.7,0.2,1,0.7,1c0.2,0,0.4,0,0.5-0.1l0,1.1c-0.2,0.1-0.6,0.1-1,0.1
				c-0.5,0-0.9-0.2-1.2-0.5c-0.3-0.3-0.4-0.8-0.4-1.5v-2.6h-0.8v-1h0.8v-1.3L129,114z"/>
		</g>
		<g>
			<path class="st19" d="M221.4,101.7h1.4v5c0,2.1-1,2.8-2.5,2.8c-0.4,0-0.9-0.1-1.2-0.2l0.2-1.1c0.2,0.1,0.5,0.1,0.9,0.1
				c0.8,0,1.3-0.4,1.3-1.7V101.7z"/>
			<path class="st19" d="M229.6,106.6c0,2-1.4,2.9-2.8,2.9c-1.6,0-2.8-1.1-2.8-2.9c0-1.8,1.2-2.9,2.9-2.9
				C228.5,103.7,229.6,104.9,229.6,106.6z M225.4,106.6c0,1.1,0.5,1.9,1.4,1.9c0.8,0,1.4-0.8,1.4-1.9c0-0.9-0.4-1.9-1.3-1.9
				C225.8,104.8,225.4,105.7,225.4,106.6z"/>
			<path class="st19" d="M230.7,109.4c0-0.4,0-1,0-1.6v-6.5h1.4v3.3h0c0.3-0.5,0.9-0.9,1.8-0.9c1.4,0,2.3,1.1,2.3,2.8
				c0,2-1.3,3-2.5,3c-0.7,0-1.4-0.3-1.8-1h0l-0.1,0.8H230.7z M232.1,107.1c0,0.1,0,0.2,0,0.3c0.1,0.6,0.6,1,1.2,1
				c0.9,0,1.4-0.7,1.4-1.8c0-1-0.5-1.8-1.4-1.8c-0.6,0-1.1,0.4-1.2,1c0,0.1,0,0.2,0,0.4V107.1z"/>
			<path class="st19" d="M239.7,101.3h1.4v3.3h0c0.2-0.3,0.4-0.5,0.7-0.6c0.3-0.2,0.6-0.3,1-0.3c0.9,0,1.9,0.6,1.9,2.4v3.3h-1.4
				v-3.1c0-0.8-0.3-1.4-1.1-1.4c-0.5,0-0.9,0.4-1.1,0.8c0,0.1-0.1,0.3-0.1,0.4v3.3h-1.4V101.3z"/>
			<path class="st19" d="M249.3,109.4l-0.1-0.6h0c-0.3,0.4-0.9,0.7-1.6,0.7c-1.1,0-1.7-0.8-1.7-1.6c0-1.4,1.2-2.1,3.3-2.1v-0.1
				c0-0.4-0.1-1-1.1-1c-0.5,0-1.1,0.2-1.5,0.4l-0.3-0.9c0.4-0.3,1.1-0.5,2-0.5c1.8,0,2.3,1.1,2.3,2.3v2c0,0.5,0,1,0.1,1.3H249.3z
				 M249.2,106.7c-1,0-1.9,0.2-1.9,1c0,0.5,0.4,0.8,0.8,0.8c0.6,0,1-0.4,1.1-0.8c0-0.1,0-0.2,0-0.3V106.7z"/>
			<path class="st19" d="M251.5,108.6l2.1-2.7c0.3-0.3,0.5-0.6,0.8-0.9v0h-2.7v-1.1h4.4v0.9l-2,2.6c-0.3,0.3-0.5,0.6-0.8,0.9v0h2.9
				v1.1h-4.7V108.6z"/>
			<path class="st19" d="M260.2,109.4l-0.1-0.6h0c-0.3,0.4-0.9,0.7-1.6,0.7c-1.1,0-1.7-0.8-1.7-1.6c0-1.4,1.2-2.1,3.3-2.1v-0.1
				c0-0.4-0.1-1-1.1-1c-0.5,0-1.1,0.2-1.5,0.4l-0.3-0.9c0.4-0.3,1.1-0.5,2-0.5c1.8,0,2.3,1.1,2.3,2.3v2c0,0.5,0,1,0.1,1.3H260.2z
				 M260.1,106.7c-1,0-1.9,0.2-1.9,1c0,0.5,0.4,0.8,0.8,0.8c0.6,0,1-0.4,1.1-0.8c0-0.1,0-0.2,0-0.3V106.7z"/>
			<path class="st19" d="M262.9,105.7c0-0.8,0-1.3,0-1.8h1.2l0,1.1h0c0.3-0.8,0.9-1.2,1.5-1.2c0.1,0,0.2,0,0.3,0v1.3
				c-0.1,0-0.2,0-0.4,0c-0.7,0-1.1,0.4-1.3,1.1c0,0.1,0,0.3,0,0.4v2.9h-1.4V105.7z"/>
			<path class="st19" d="M272,101.3v6.5c0,0.6,0,1.2,0,1.6h-1.3l-0.1-0.9h0c-0.3,0.6-1,1-1.8,1c-1.3,0-2.4-1.1-2.4-2.8
				c0-1.9,1.1-3,2.5-3c0.8,0,1.3,0.3,1.6,0.7h0v-3.1H272z M270.6,106.2c0-0.1,0-0.3,0-0.4c-0.1-0.5-0.6-1-1.2-1
				c-0.9,0-1.4,0.8-1.4,1.8c0,1,0.5,1.8,1.4,1.8c0.6,0,1.1-0.4,1.2-1c0-0.1,0-0.3,0-0.4V106.2z"/>
			<path class="st19" d="M222.7,121.1l-0.1-0.6h0c-0.3,0.4-0.9,0.7-1.6,0.7c-1.1,0-1.7-0.8-1.7-1.6c0-1.4,1.2-2.1,3.3-2.1v-0.1
				c0-0.4-0.1-1-1.1-1c-0.5,0-1.1,0.2-1.5,0.4l-0.3-0.9c0.4-0.3,1.1-0.5,2-0.5c1.8,0,2.3,1.1,2.3,2.3v2c0,0.5,0,1,0.1,1.3H222.7z
				 M222.5,118.4c-1,0-1.9,0.2-1.9,1c0,0.5,0.4,0.8,0.8,0.8c0.6,0,1-0.4,1.1-0.8c0-0.1,0-0.2,0-0.3V118.4z"/>
			<path class="st19" d="M225.3,119.8c0.3,0.2,0.9,0.4,1.4,0.4c0.6,0,0.9-0.3,0.9-0.6c0-0.4-0.2-0.6-0.9-0.8c-1.1-0.4-1.5-1-1.5-1.6
				c0-1,0.8-1.7,2.1-1.7c0.6,0,1.1,0.2,1.5,0.3l-0.3,1c-0.2-0.1-0.7-0.3-1.2-0.3c-0.5,0-0.8,0.2-0.8,0.6c0,0.4,0.3,0.5,1,0.8
				c1,0.4,1.5,0.9,1.5,1.7c0,1-0.8,1.7-2.3,1.7c-0.7,0-1.3-0.2-1.7-0.4L225.3,119.8z"/>
			<path class="st19" d="M230,119.8c0.3,0.2,0.9,0.4,1.4,0.4c0.6,0,0.9-0.3,0.9-0.6c0-0.4-0.2-0.6-0.9-0.8c-1.1-0.4-1.5-1-1.5-1.6
				c0-1,0.8-1.7,2.1-1.7c0.6,0,1.1,0.2,1.5,0.3l-0.3,1c-0.2-0.1-0.7-0.3-1.2-0.3c-0.5,0-0.8,0.2-0.8,0.6c0,0.4,0.3,0.5,1,0.8
				c1,0.4,1.5,0.9,1.5,1.7c0,1-0.8,1.7-2.3,1.7c-0.7,0-1.3-0.2-1.7-0.4L230,119.8z"/>
			<path class="st19" d="M235.8,118.7c0,1,0.8,1.4,1.7,1.4c0.6,0,1.1-0.1,1.5-0.3l0.2,1c-0.5,0.2-1.1,0.3-1.9,0.3
				c-1.8,0-2.9-1.1-2.9-2.8c0-1.5,0.9-3,2.7-3c1.8,0,2.4,1.5,2.4,2.7c0,0.3,0,0.5,0,0.6H235.8z M238.2,117.7c0-0.5-0.2-1.4-1.1-1.4
				c-0.9,0-1.2,0.8-1.3,1.4H238.2z"/>
			<path class="st19" d="M240.6,119.8c0.3,0.2,0.9,0.4,1.4,0.4c0.6,0,0.9-0.3,0.9-0.6c0-0.4-0.2-0.6-0.9-0.8c-1.1-0.4-1.5-1-1.5-1.6
				c0-1,0.8-1.7,2.1-1.7c0.6,0,1.1,0.2,1.5,0.3l-0.3,1c-0.2-0.1-0.7-0.3-1.2-0.3c-0.5,0-0.8,0.2-0.8,0.6c0,0.4,0.3,0.5,1,0.8
				c1,0.4,1.5,0.9,1.5,1.7c0,1-0.8,1.7-2.3,1.7c-0.7,0-1.3-0.2-1.7-0.4L240.6,119.8z"/>
			<path class="st19" d="M245.4,119.8c0.3,0.2,0.9,0.4,1.4,0.4c0.6,0,0.9-0.3,0.9-0.6c0-0.4-0.2-0.6-0.9-0.8c-1.1-0.4-1.5-1-1.5-1.6
				c0-1,0.8-1.7,2.1-1.7c0.6,0,1.1,0.2,1.5,0.3l-0.3,1c-0.2-0.1-0.7-0.3-1.2-0.3c-0.5,0-0.8,0.2-0.8,0.6c0,0.4,0.3,0.5,1,0.8
				c1,0.4,1.5,0.9,1.5,1.7c0,1-0.8,1.7-2.3,1.7c-0.7,0-1.3-0.2-1.7-0.4L245.4,119.8z"/>
			<path class="st19" d="M250.2,117.2c0-0.6,0-1.2,0-1.6h1.2l0.1,0.8h0c0.3-0.4,0.8-0.9,1.7-0.9c0.7,0,1.3,0.4,1.5,1h0
				c0.2-0.3,0.4-0.5,0.7-0.7c0.3-0.2,0.7-0.3,1.1-0.3c0.9,0,1.9,0.6,1.9,2.4v3.3H257V118c0-0.9-0.3-1.5-1-1.5c-0.5,0-0.8,0.3-1,0.7
				c0,0.1-0.1,0.3-0.1,0.5v3.3h-1.4v-3.2c0-0.8-0.3-1.3-1-1.3c-0.5,0-0.9,0.4-1,0.8c-0.1,0.1-0.1,0.3-0.1,0.5v3.3h-1.4V117.2z"/>
			<path class="st19" d="M260.8,118.7c0,1,0.8,1.4,1.7,1.4c0.6,0,1.1-0.1,1.5-0.3l0.2,1c-0.5,0.2-1.1,0.3-1.9,0.3
				c-1.8,0-2.9-1.1-2.9-2.8c0-1.5,0.9-3,2.7-3c1.8,0,2.4,1.5,2.4,2.7c0,0.3,0,0.5,0,0.6H260.8z M263.2,117.7c0-0.5-0.2-1.4-1.1-1.4
				c-0.9,0-1.2,0.8-1.3,1.4H263.2z"/>
			<path class="st19" d="M265.7,117.2c0-0.6,0-1.2,0-1.6h1.2l0.1,0.8h0c0.2-0.4,0.8-1,1.8-1c1,0,2,0.6,2,2.4v3.3h-1.4V118
				c0-0.8-0.3-1.4-1.1-1.4c-0.6,0-0.9,0.4-1.1,0.8c0,0.1-0.1,0.3-0.1,0.5v3.3h-1.4V117.2z"/>
			<path class="st19" d="M273.7,114v1.6h1.3v1h-1.3v2.4c0,0.7,0.2,1,0.7,1c0.2,0,0.4,0,0.5-0.1l0,1.1c-0.2,0.1-0.6,0.1-1,0.1
				c-0.5,0-0.9-0.2-1.2-0.5c-0.3-0.3-0.4-0.8-0.4-1.5v-2.6h-0.8v-1h0.8v-1.3L273.7,114z"/>
		</g>
		<g>
			<path class="st19" d="M65.6,225.8h-2.9v2.3H66v1.1h-4.6v-7.7h4.5v1.1h-3.1v2h2.9V225.8z"/>
			<path class="st19" d="M68.6,221.6v3.1h3.2v-3.1h1.4v7.7h-1.4v-3.4h-3.2v3.4h-1.4v-7.7H68.6z"/>
			<path class="st19" d="M74.8,227.7c0.5,0.3,1.1,0.5,1.9,0.5c0.9,0,1.4-0.4,1.4-1c0-0.6-0.4-0.9-1.4-1.3c-1.3-0.5-2.1-1.1-2.1-2.2
				c0-1.3,1-2.2,2.7-2.2c0.8,0,1.4,0.2,1.8,0.4l-0.3,1.1c-0.3-0.1-0.8-0.4-1.5-0.4c-0.9,0-1.3,0.5-1.3,0.9c0,0.6,0.4,0.9,1.5,1.3
				c1.3,0.5,2,1.2,2,2.3c0,1.2-0.9,2.3-2.9,2.3c-0.8,0-1.6-0.2-2.1-0.5L74.8,227.7z"/>
			<path class="st19" d="M50.6,240.9l-0.1-0.6h0c-0.3,0.4-0.9,0.7-1.6,0.7c-1.1,0-1.7-0.8-1.7-1.6c0-1.4,1.2-2.1,3.3-2.1v-0.1
				c0-0.4-0.1-1-1.1-1c-0.5,0-1.1,0.2-1.5,0.4l-0.3-0.9c0.4-0.3,1.1-0.5,2-0.5c1.8,0,2.3,1.1,2.3,2.3v2c0,0.5,0,1,0.1,1.3H50.6z
				 M50.4,238.2c-1,0-1.9,0.2-1.9,1c0,0.5,0.4,0.8,0.8,0.8c0.6,0,1-0.4,1.1-0.8c0-0.1,0-0.2,0-0.3V238.2z"/>
			<path class="st19" d="M58.2,239.2c0,0.7,0,1.2,0,1.7H57l-0.1-0.8h0c-0.2,0.4-0.8,1-1.8,1c-1,0-1.9-0.6-1.9-2.4v-3.3h1.4v3
				c0,0.9,0.3,1.5,1,1.5c0.6,0,0.9-0.4,1.1-0.8c0-0.1,0.1-0.3,0.1-0.4v-3.3h1.4V239.2z"/>
			<path class="st19" d="M64.8,232.8v6.5c0,0.6,0,1.2,0,1.6h-1.3l-0.1-0.9h0c-0.3,0.6-1,1-1.8,1c-1.3,0-2.4-1.1-2.4-2.8
				c0-1.9,1.1-3,2.5-3c0.8,0,1.3,0.3,1.6,0.7h0v-3.1H64.8z M63.4,237.7c0-0.1,0-0.3,0-0.4c-0.1-0.5-0.6-1-1.2-1
				c-0.9,0-1.4,0.8-1.4,1.8c0,1,0.5,1.8,1.4,1.8c0.6,0,1.1-0.4,1.2-1c0-0.1,0-0.3,0-0.4V237.7z"/>
			<path class="st19" d="M67.8,233.8c0,0.4-0.3,0.8-0.8,0.8c-0.5,0-0.8-0.3-0.8-0.8c0-0.4,0.3-0.8,0.8-0.8
				C67.5,233.1,67.8,233.4,67.8,233.8z M66.3,240.9v-5.5h1.4v5.5H66.3z"/>
			<path class="st19" d="M70.8,233.8v1.6h1.3v1h-1.3v2.4c0,0.7,0.2,1,0.7,1c0.2,0,0.4,0,0.5-0.1l0,1.1c-0.2,0.1-0.6,0.1-1,0.1
				c-0.5,0-0.9-0.2-1.2-0.5c-0.3-0.3-0.4-0.8-0.4-1.5v-2.6h-0.8v-1h0.8v-1.3L70.8,233.8z"/>
			<path class="st19" d="M78.7,240.9l-0.1-0.6h0c-0.3,0.4-0.9,0.7-1.6,0.7c-1.1,0-1.7-0.8-1.7-1.6c0-1.4,1.2-2.1,3.3-2.1v-0.1
				c0-0.4-0.1-1-1.1-1c-0.5,0-1.1,0.2-1.5,0.4l-0.3-0.9c0.4-0.3,1.1-0.5,2-0.5c1.8,0,2.3,1.1,2.3,2.3v2c0,0.5,0,1,0.1,1.3H78.7z
				 M78.5,238.2c-1,0-1.9,0.2-1.9,1c0,0.5,0.4,0.8,0.8,0.8c0.6,0,1-0.4,1.1-0.8c0-0.1,0-0.2,0-0.3V238.2z"/>
			<path class="st19" d="M81.4,237c0-0.6,0-1.2,0-1.6h1.2l0.1,0.8h0c0.2-0.4,0.8-1,1.8-1c1,0,2,0.6,2,2.4v3.3H85v-3.1
				c0-0.8-0.3-1.4-1.1-1.4c-0.6,0-0.9,0.4-1.1,0.8c0,0.1-0.1,0.3-0.1,0.5v3.3h-1.4V237z"/>
			<path class="st19" d="M93,232.8v6.5c0,0.6,0,1.2,0,1.6h-1.3l-0.1-0.9h0c-0.3,0.6-1,1-1.8,1c-1.3,0-2.4-1.1-2.4-2.8
				c0-1.9,1.1-3,2.5-3c0.8,0,1.3,0.3,1.6,0.7h0v-3.1H93z M91.6,237.7c0-0.1,0-0.3,0-0.4c-0.1-0.5-0.6-1-1.2-1
				c-0.9,0-1.4,0.8-1.4,1.8c0,1,0.5,1.8,1.4,1.8c0.6,0,1.1-0.4,1.2-1c0-0.1,0-0.3,0-0.4V237.7z"/>
			<path class="st19" d="M47.7,245.5c0,0.4-0.3,0.8-0.8,0.8c-0.5,0-0.8-0.3-0.8-0.8c0-0.4,0.3-0.8,0.8-0.8
				C47.4,244.7,47.7,245,47.7,245.5z M46.3,252.6V247h1.4v5.5H46.3z"/>
			<path class="st19" d="M49.2,248.7c0-0.6,0-1.2,0-1.6h1.2l0.1,0.8h0c0.2-0.4,0.8-1,1.8-1c1,0,2,0.6,2,2.4v3.3h-1.4v-3.1
				c0-0.8-0.3-1.4-1.1-1.4c-0.6,0-0.9,0.4-1.1,0.8c0,0.1-0.1,0.3-0.1,0.5v3.3h-1.4V248.7z"/>
			<path class="st19" d="M55.6,251.3c0.3,0.2,0.9,0.4,1.4,0.4c0.6,0,0.9-0.3,0.9-0.6c0-0.4-0.2-0.6-0.9-0.8c-1.1-0.4-1.5-1-1.5-1.6
				c0-1,0.8-1.7,2.1-1.7c0.6,0,1.1,0.2,1.5,0.3l-0.3,1c-0.2-0.1-0.7-0.3-1.2-0.3c-0.5,0-0.8,0.2-0.8,0.6c0,0.4,0.3,0.5,1,0.8
				c1,0.4,1.5,0.9,1.5,1.7c0,1-0.8,1.7-2.3,1.7c-0.7,0-1.3-0.2-1.7-0.4L55.6,251.3z"/>
			<path class="st19" d="M60.4,248.9c0-0.7,0-1.3,0-1.8h1.2l0.1,0.9h0c0.4-0.6,1.1-1,1.9-1c1.3,0,2.3,1.1,2.3,2.8c0,2-1.3,3-2.5,3
				c-0.7,0-1.3-0.3-1.6-0.7h0v2.9h-1.4V248.9z M61.8,250.2c0,0.1,0,0.3,0,0.4c0.1,0.6,0.6,1,1.2,1c0.9,0,1.4-0.7,1.4-1.8
				c0-1-0.5-1.8-1.4-1.8c-0.6,0-1.1,0.4-1.3,1c0,0.1-0.1,0.2-0.1,0.4V250.2z"/>
			<path class="st19" d="M68.1,250.2c0,1,0.8,1.4,1.7,1.4c0.6,0,1.1-0.1,1.5-0.3l0.2,1c-0.5,0.2-1.1,0.3-1.9,0.3
				c-1.8,0-2.9-1.1-2.9-2.8c0-1.5,0.9-3,2.7-3c1.8,0,2.4,1.5,2.4,2.7c0,0.3,0,0.5,0,0.6H68.1z M70.5,249.2c0-0.5-0.2-1.4-1.1-1.4
				c-0.9,0-1.2,0.8-1.3,1.4H70.5z"/>
			<path class="st19" d="M77,252.4c-0.3,0.1-0.9,0.3-1.6,0.3c-1.7,0-2.9-1.1-2.9-2.8c0-1.7,1.1-3,3.1-3c0.5,0,1,0.1,1.4,0.3l-0.3,1
				c-0.2-0.1-0.6-0.2-1.1-0.2c-1.1,0-1.7,0.8-1.7,1.8c0,1.1,0.7,1.8,1.7,1.8c0.5,0,0.8-0.1,1.1-0.2L77,252.4z"/>
			<path class="st19" d="M79.8,245.4v1.6h1.3v1h-1.3v2.4c0,0.7,0.2,1,0.7,1c0.2,0,0.4,0,0.5-0.1l0,1.1c-0.2,0.1-0.6,0.1-1,0.1
				c-0.5,0-0.9-0.2-1.2-0.5c-0.3-0.3-0.4-0.8-0.4-1.5v-2.6h-0.8v-1h0.8v-1.3L79.8,245.4z"/>
			<path class="st19" d="M83.7,245.5c0,0.4-0.3,0.8-0.8,0.8c-0.5,0-0.8-0.3-0.8-0.8c0-0.4,0.3-0.8,0.8-0.8
				C83.4,244.7,83.7,245,83.7,245.5z M82.2,252.6V247h1.4v5.5H82.2z"/>
			<path class="st19" d="M90.4,249.7c0,2-1.4,2.9-2.8,2.9c-1.6,0-2.8-1.1-2.8-2.9c0-1.8,1.2-2.9,2.9-2.9
				C89.3,246.9,90.4,248.1,90.4,249.7z M86.2,249.8c0,1.1,0.5,1.9,1.4,1.9c0.8,0,1.4-0.8,1.4-1.9c0-0.9-0.4-1.9-1.3-1.9
				C86.6,247.9,86.2,248.9,86.2,249.8z"/>
			<path class="st19" d="M91.5,248.7c0-0.6,0-1.2,0-1.6h1.2l0.1,0.8h0c0.2-0.4,0.8-1,1.8-1c1,0,2,0.6,2,2.4v3.3h-1.4v-3.1
				c0-0.8-0.3-1.4-1.1-1.4c-0.6,0-0.9,0.4-1.1,0.8c0,0.1-0.1,0.3-0.1,0.5v3.3h-1.4V248.7z"/>
		</g>
		<g>
			<path class="st19" d="M256.3,229.2l-1.9-7.7h1.5l0.7,3.5c0.2,0.9,0.4,1.9,0.5,2.7h0c0.1-0.8,0.3-1.7,0.6-2.7l0.8-3.5h1.5l0.8,3.5
				c0.2,0.9,0.4,1.8,0.5,2.6h0c0.1-0.8,0.3-1.7,0.5-2.6l0.8-3.5h1.4l-2.1,7.7h-1.5l-0.8-3.6c-0.2-0.9-0.3-1.6-0.4-2.4h0
				c-0.1,0.8-0.3,1.6-0.5,2.4l-0.9,3.6H256.3z"/>
			<path class="st19" d="M269.7,226.4c0,2-1.4,2.9-2.8,2.9c-1.6,0-2.8-1.1-2.8-2.9c0-1.8,1.2-2.9,2.9-2.9
				C268.6,223.6,269.7,224.7,269.7,226.4z M265.5,226.5c0,1.1,0.5,1.9,1.4,1.9c0.8,0,1.4-0.8,1.4-1.9c0-0.9-0.4-1.9-1.3-1.9
				C265.9,224.6,265.5,225.5,265.5,226.5z"/>
			<path class="st19" d="M270.8,225.5c0-0.8,0-1.3,0-1.8h1.2l0,1.1h0c0.3-0.8,0.9-1.2,1.5-1.2c0.1,0,0.2,0,0.3,0v1.3
				c-0.1,0-0.2,0-0.4,0c-0.7,0-1.1,0.4-1.3,1.1c0,0.1,0,0.3,0,0.4v2.9h-1.4V225.5z"/>
			<path class="st19" d="M276.3,226.1L276.3,226.1c0.2-0.2,0.3-0.5,0.5-0.6l1.3-1.8h1.7l-2,2.3l2.3,3.3h-1.7l-1.6-2.4l-0.5,0.6v1.9
				h-1.4v-8.1h1.4V226.1z"/>
			<path class="st19" d="M280.8,225.5c0-0.7,0-1.3,0-1.8h1.2l0.1,0.9h0c0.4-0.6,1.1-1,1.9-1c1.3,0,2.3,1.1,2.3,2.8c0,2-1.3,3-2.5,3
				c-0.7,0-1.3-0.3-1.6-0.7h0v2.9h-1.4V225.5z M282.2,226.9c0,0.1,0,0.3,0,0.4c0.1,0.6,0.6,1,1.2,1c0.9,0,1.4-0.7,1.4-1.8
				c0-1-0.5-1.8-1.4-1.8c-0.6,0-1.1,0.4-1.3,1c0,0.1-0.1,0.2-0.1,0.4V226.9z"/>
			<path class="st19" d="M287.5,221.2h1.4v8.1h-1.4V221.2z"/>
			<path class="st19" d="M293.5,229.2l-0.1-0.6h0c-0.3,0.4-0.9,0.7-1.6,0.7c-1.1,0-1.7-0.8-1.7-1.6c0-1.4,1.2-2.1,3.3-2.1v-0.1
				c0-0.4-0.1-1-1.1-1c-0.5,0-1.1,0.2-1.5,0.4l-0.3-0.9c0.4-0.3,1.1-0.5,2-0.5c1.8,0,2.3,1.1,2.3,2.3v2c0,0.5,0,1,0.1,1.3H293.5z
				 M293.3,226.5c-1,0-1.9,0.2-1.9,1c0,0.5,0.4,0.8,0.8,0.8c0.6,0,1-0.4,1.1-0.8c0-0.1,0-0.2,0-0.3V226.5z"/>
			<path class="st19" d="M300.2,229.1c-0.3,0.1-0.9,0.3-1.6,0.3c-1.7,0-2.9-1.1-2.9-2.8c0-1.7,1.1-3,3.1-3c0.5,0,1,0.1,1.4,0.3
				l-0.3,1c-0.2-0.1-0.6-0.2-1.1-0.2c-1.1,0-1.7,0.8-1.7,1.8c0,1.1,0.7,1.8,1.7,1.8c0.5,0,0.8-0.1,1.1-0.2L300.2,229.1z"/>
			<path class="st19" d="M302.2,226.9c0,1,0.8,1.4,1.7,1.4c0.6,0,1.1-0.1,1.5-0.3l0.2,1c-0.5,0.2-1.1,0.3-1.9,0.3
				c-1.8,0-2.9-1.1-2.9-2.8c0-1.5,0.9-3,2.7-3c1.8,0,2.4,1.5,2.4,2.7c0,0.3,0,0.5,0,0.6H302.2z M304.6,225.9c0-0.5-0.2-1.4-1.1-1.4
				c-0.9,0-1.2,0.8-1.3,1.4H304.6z"/>
			<path class="st19" d="M266.1,239.6c0.3,0.2,0.9,0.4,1.4,0.4c0.6,0,0.9-0.3,0.9-0.6c0-0.4-0.2-0.6-0.9-0.8c-1.1-0.4-1.5-1-1.5-1.6
				c0-1,0.8-1.7,2.1-1.7c0.6,0,1.1,0.2,1.5,0.3l-0.3,1c-0.2-0.1-0.7-0.3-1.2-0.3c-0.5,0-0.8,0.2-0.8,0.6c0,0.4,0.3,0.5,1,0.8
				c1,0.4,1.5,0.9,1.5,1.7c0,1-0.8,1.7-2.3,1.7c-0.7,0-1.3-0.2-1.7-0.4L266.1,239.6z"/>
			<path class="st19" d="M274,240.9l-0.1-0.6h0c-0.3,0.4-0.9,0.7-1.6,0.7c-1.1,0-1.7-0.8-1.7-1.6c0-1.4,1.2-2.1,3.3-2.1v-0.1
				c0-0.4-0.1-1-1.1-1c-0.5,0-1.1,0.2-1.5,0.4l-0.3-0.9c0.4-0.3,1.1-0.5,2-0.5c1.8,0,2.3,1.1,2.3,2.3v2c0,0.5,0,1,0.1,1.3H274z
				 M273.9,238.2c-1,0-1.9,0.2-1.9,1c0,0.5,0.4,0.8,0.8,0.8c0.6,0,1-0.4,1.1-0.8c0-0.1,0-0.2,0-0.3V238.2z"/>
			<path class="st19" d="M276.9,240.9v-4.5h-0.8v-1h0.8v-0.2c0-0.7,0.2-1.4,0.7-1.9c0.4-0.4,1-0.5,1.4-0.5c0.4,0,0.7,0.1,0.9,0.1
				l-0.1,1.1c-0.1-0.1-0.3-0.1-0.6-0.1c-0.7,0-0.9,0.6-0.9,1.3v0.3h1.2v1h-1.2v4.5H276.9z"/>
			<path class="st19" d="M281.2,238.5c0,1,0.8,1.4,1.7,1.4c0.6,0,1.1-0.1,1.5-0.3l0.2,1c-0.5,0.2-1.1,0.3-1.9,0.3
				c-1.8,0-2.9-1.1-2.9-2.8c0-1.5,0.9-3,2.7-3c1.8,0,2.4,1.5,2.4,2.7c0,0.3,0,0.5,0,0.6H281.2z M283.6,237.5c0-0.5-0.2-1.4-1.1-1.4
				c-0.9,0-1.2,0.8-1.3,1.4H283.6z"/>
			<path class="st19" d="M287.7,233.8v1.6h1.3v1h-1.3v2.4c0,0.7,0.2,1,0.7,1c0.2,0,0.4,0,0.5-0.1l0,1.1c-0.2,0.1-0.6,0.1-1,0.1
				c-0.5,0-0.9-0.2-1.2-0.5c-0.3-0.3-0.4-0.8-0.4-1.5v-2.6h-0.8v-1h0.8v-1.3L287.7,233.8z"/>
			<path class="st19" d="M291,235.4l1,3c0.1,0.3,0.2,0.8,0.3,1.1h0c0.1-0.3,0.2-0.7,0.3-1.1l0.9-3h1.5l-1.4,3.8
				c-0.8,2.1-1.3,3-1.9,3.6c-0.5,0.5-1.1,0.7-1.5,0.7l-0.3-1.2c0.2-0.1,0.5-0.2,0.8-0.4c0.3-0.2,0.6-0.5,0.8-0.9
				c0.1-0.1,0.1-0.2,0.1-0.3c0-0.1,0-0.1-0.1-0.3l-2-5.1H291z"/>
			<path class="st19" d="M265.8,252.6l-0.1-0.6h0c-0.3,0.4-0.9,0.7-1.6,0.7c-1.1,0-1.7-0.8-1.7-1.6c0-1.4,1.2-2.1,3.3-2.1v-0.1
				c0-0.4-0.1-1-1.1-1c-0.5,0-1.1,0.2-1.5,0.4l-0.3-0.9c0.4-0.3,1.1-0.5,2-0.5c1.8,0,2.3,1.1,2.3,2.3v2c0,0.5,0,1,0.1,1.3H265.8z
				 M265.6,249.9c-1,0-1.9,0.2-1.9,1c0,0.5,0.4,0.8,0.8,0.8c0.6,0,1-0.4,1.1-0.8c0-0.1,0-0.2,0-0.3V249.9z"/>
			<path class="st19" d="M268.5,248.7c0-0.6,0-1.2,0-1.6h1.2l0.1,0.8h0c0.2-0.4,0.8-1,1.8-1c1,0,2,0.6,2,2.4v3.3h-1.4v-3.1
				c0-0.8-0.3-1.4-1.1-1.4c-0.6,0-0.9,0.4-1.1,0.8c0,0.1-0.1,0.3-0.1,0.5v3.3h-1.4V248.7z"/>
			<path class="st19" d="M278.1,252.6L278,252h0c-0.3,0.4-0.9,0.7-1.6,0.7c-1.1,0-1.7-0.8-1.7-1.6c0-1.4,1.2-2.1,3.3-2.1v-0.1
				c0-0.4-0.1-1-1.1-1c-0.5,0-1.1,0.2-1.5,0.4l-0.3-0.9c0.4-0.3,1.1-0.5,2-0.5c1.8,0,2.3,1.1,2.3,2.3v2c0,0.5,0,1,0.1,1.3H278.1z
				 M277.9,249.9c-1,0-1.9,0.2-1.9,1c0,0.5,0.4,0.8,0.8,0.8c0.6,0,1-0.4,1.1-0.8c0-0.1,0-0.2,0-0.3V249.9z"/>
			<path class="st19" d="M280.8,244.5h1.4v8.1h-1.4V244.5z"/>
			<path class="st19" d="M284.6,247l1,3c0.1,0.3,0.2,0.8,0.3,1.1h0c0.1-0.3,0.2-0.7,0.3-1.1l0.9-3h1.5l-1.4,3.8
				c-0.8,2.1-1.3,3-1.9,3.6c-0.5,0.5-1.1,0.7-1.5,0.7l-0.3-1.2c0.2-0.1,0.5-0.2,0.8-0.4c0.3-0.2,0.6-0.5,0.8-0.9
				c0.1-0.1,0.1-0.2,0.1-0.3c0-0.1,0-0.1-0.1-0.3l-2-5.1H284.6z"/>
			<path class="st19" d="M289.2,251.3c0.3,0.2,0.9,0.4,1.4,0.4c0.6,0,0.9-0.3,0.9-0.6c0-0.4-0.2-0.6-0.9-0.8c-1.1-0.4-1.5-1-1.5-1.6
				c0-1,0.8-1.7,2.1-1.7c0.6,0,1.1,0.2,1.5,0.3l-0.3,1c-0.2-0.1-0.7-0.3-1.2-0.3c-0.5,0-0.8,0.2-0.8,0.6c0,0.4,0.3,0.5,1,0.8
				c1,0.4,1.5,0.9,1.5,1.7c0,1-0.8,1.7-2.3,1.7c-0.7,0-1.3-0.2-1.7-0.4L289.2,251.3z"/>
			<path class="st19" d="M295.5,245.5c0,0.4-0.3,0.8-0.8,0.8c-0.5,0-0.8-0.3-0.8-0.8c0-0.4,0.3-0.8,0.8-0.8
				C295.2,244.7,295.5,245,295.5,245.5z M294,252.6V247h1.4v5.5H294z"/>
			<path class="st19" d="M296.8,251.3c0.3,0.2,0.9,0.4,1.4,0.4c0.6,0,0.9-0.3,0.9-0.6c0-0.4-0.2-0.6-0.9-0.8c-1.1-0.4-1.5-1-1.5-1.6
				c0-1,0.8-1.7,2.1-1.7c0.6,0,1.1,0.2,1.5,0.3l-0.3,1c-0.2-0.1-0.7-0.3-1.2-0.3c-0.5,0-0.8,0.2-0.8,0.6c0,0.4,0.3,0.5,1,0.8
				c1,0.4,1.5,0.9,1.5,1.7c0,1-0.8,1.7-2.3,1.7c-0.7,0-1.3-0.2-1.7-0.4L296.8,251.3z"/>
		</g>
		<g>
			<path class="st19" d="M138.9,310.8c0.5,0.3,1.1,0.5,1.9,0.5c0.9,0,1.4-0.4,1.4-1c0-0.6-0.4-0.9-1.4-1.3c-1.3-0.5-2.1-1.1-2.1-2.2
				c0-1.3,1-2.2,2.7-2.2c0.8,0,1.4,0.2,1.8,0.4l-0.3,1.1c-0.3-0.1-0.8-0.4-1.5-0.4c-0.9,0-1.3,0.5-1.3,0.9c0,0.6,0.4,0.9,1.5,1.3
				c1.3,0.5,2,1.2,2,2.3c0,1.2-0.9,2.3-2.9,2.3c-0.8,0-1.6-0.2-2.1-0.5L138.9,310.8z"/>
			<path class="st19" d="M149.7,310.7c0,0.7,0,1.2,0,1.7h-1.2l-0.1-0.8h0c-0.2,0.4-0.8,1-1.8,1c-1,0-1.9-0.6-1.9-2.4v-3.3h1.4v3
				c0,0.9,0.3,1.5,1,1.5c0.6,0,0.9-0.4,1.1-0.8c0-0.1,0.1-0.3,0.1-0.4v-3.3h1.4V310.7z"/>
			<path class="st19" d="M151.1,311c0.3,0.2,0.9,0.4,1.4,0.4c0.6,0,0.9-0.3,0.9-0.6c0-0.4-0.2-0.6-0.9-0.8c-1.1-0.4-1.5-1-1.5-1.6
				c0-1,0.8-1.7,2.1-1.7c0.6,0,1.1,0.2,1.5,0.3l-0.3,1c-0.2-0.1-0.7-0.3-1.2-0.3c-0.5,0-0.8,0.2-0.8,0.6c0,0.4,0.3,0.5,1,0.8
				c1,0.4,1.5,0.9,1.5,1.7c0,1-0.8,1.7-2.3,1.7c-0.7,0-1.3-0.2-1.7-0.4L151.1,311z"/>
			<path class="st19" d="M157.6,305.2v1.6h1.3v1h-1.3v2.4c0,0.7,0.2,1,0.7,1c0.2,0,0.4,0,0.5-0.1l0,1.1c-0.2,0.1-0.6,0.1-1,0.1
				c-0.5,0-0.9-0.2-1.2-0.5c-0.3-0.3-0.4-0.8-0.4-1.5v-2.6h-0.8v-1h0.8v-1.3L157.6,305.2z"/>
			<path class="st19" d="M163.1,312.3l-0.1-0.6h0c-0.3,0.4-0.9,0.7-1.6,0.7c-1.1,0-1.7-0.8-1.7-1.6c0-1.4,1.2-2.1,3.3-2.1v-0.1
				c0-0.4-0.1-1-1.1-1c-0.5,0-1.1,0.2-1.5,0.4l-0.3-0.9c0.4-0.3,1.1-0.5,2-0.5c1.8,0,2.3,1.1,2.3,2.3v2c0,0.5,0,1,0.1,1.3H163.1z
				 M162.9,309.6c-1,0-1.9,0.2-1.9,1c0,0.5,0.4,0.8,0.8,0.8c0.6,0,1-0.4,1.1-0.8c0-0.1,0-0.2,0-0.3V309.6z"/>
			<path class="st19" d="M167.2,305.2c0,0.4-0.3,0.8-0.8,0.8c-0.5,0-0.8-0.3-0.8-0.8c0-0.4,0.3-0.8,0.8-0.8
				C166.9,304.5,167.2,304.8,167.2,305.2z M165.7,312.3v-5.5h1.4v5.5H165.7z"/>
			<path class="st19" d="M168.6,308.4c0-0.6,0-1.2,0-1.6h1.2l0.1,0.8h0c0.2-0.4,0.8-1,1.8-1c1,0,2,0.6,2,2.4v3.3h-1.4v-3.1
				c0-0.8-0.3-1.4-1.1-1.4c-0.6,0-0.9,0.4-1.1,0.8c0,0.1-0.1,0.3-0.1,0.5v3.3h-1.4V308.4z"/>
			<path class="st19" d="M178.3,312.3l-0.1-0.6h0c-0.3,0.4-0.9,0.7-1.6,0.7c-1.1,0-1.7-0.8-1.7-1.6c0-1.4,1.2-2.1,3.3-2.1v-0.1
				c0-0.4-0.1-1-1.1-1c-0.5,0-1.1,0.2-1.5,0.4l-0.3-0.9c0.4-0.3,1.1-0.5,2-0.5c1.8,0,2.3,1.1,2.3,2.3v2c0,0.5,0,1,0.1,1.3H178.3z
				 M178.1,309.6c-1,0-1.9,0.2-1.9,1c0,0.5,0.4,0.8,0.8,0.8c0.6,0,1-0.4,1.1-0.8c0-0.1,0-0.2,0-0.3V309.6z"/>
			<path class="st19" d="M180.9,312.3c0-0.4,0-1,0-1.6v-6.5h1.4v3.3h0c0.3-0.5,0.9-0.9,1.8-0.9c1.4,0,2.3,1.1,2.3,2.8
				c0,2-1.3,3-2.5,3c-0.7,0-1.4-0.3-1.8-1h0l-0.1,0.8H180.9z M182.3,310c0,0.1,0,0.2,0,0.3c0.1,0.6,0.6,1,1.2,1
				c0.9,0,1.4-0.7,1.4-1.8c0-1-0.5-1.8-1.4-1.8c-0.6,0-1.1,0.4-1.2,1c0,0.1,0,0.2,0,0.4V310z"/>
			<path class="st19" d="M189.1,305.2c0,0.4-0.3,0.8-0.8,0.8c-0.5,0-0.8-0.3-0.8-0.8c0-0.4,0.3-0.8,0.8-0.8
				C188.8,304.5,189.1,304.8,189.1,305.2z M187.6,312.3v-5.5h1.4v5.5H187.6z"/>
			<path class="st19" d="M190.5,304.3h1.4v8.1h-1.4V304.3z"/>
			<path class="st19" d="M194.9,305.2c0,0.4-0.3,0.8-0.8,0.8c-0.5,0-0.8-0.3-0.8-0.8c0-0.4,0.3-0.8,0.8-0.8
				C194.6,304.5,194.9,304.8,194.9,305.2z M193.4,312.3v-5.5h1.4v5.5H193.4z"/>
			<path class="st19" d="M197.9,305.2v1.6h1.3v1h-1.3v2.4c0,0.7,0.2,1,0.7,1c0.2,0,0.4,0,0.5-0.1l0,1.1c-0.2,0.1-0.6,0.1-1,0.1
				c-0.5,0-0.9-0.2-1.2-0.5c-0.3-0.3-0.4-0.8-0.4-1.5v-2.6h-0.8v-1h0.8v-1.3L197.9,305.2z"/>
			<path class="st19" d="M201.3,306.8l1,3c0.1,0.3,0.2,0.8,0.3,1.1h0c0.1-0.3,0.2-0.7,0.3-1.1l0.9-3h1.5l-1.4,3.8
				c-0.8,2.1-1.3,3-1.9,3.6c-0.5,0.5-1.1,0.7-1.5,0.7l-0.3-1.2c0.2-0.1,0.5-0.2,0.8-0.4c0.3-0.2,0.6-0.5,0.8-0.9
				c0.1-0.1,0.1-0.2,0.1-0.3c0-0.1,0-0.1-0.1-0.3l-2-5.1H201.3z"/>
			<path class="st19" d="M147.3,324l-0.1-0.6h0c-0.3,0.4-0.9,0.7-1.6,0.7c-1.1,0-1.7-0.8-1.7-1.6c0-1.4,1.2-2.1,3.3-2.1v-0.1
				c0-0.4-0.1-1-1.1-1c-0.5,0-1.1,0.2-1.5,0.4l-0.3-0.9c0.4-0.3,1.1-0.5,2-0.5c1.8,0,2.3,1.1,2.3,2.3v2c0,0.5,0,1,0.1,1.3H147.3z
				 M147.1,321.3c-1,0-1.9,0.2-1.9,1c0,0.5,0.4,0.8,0.8,0.8c0.6,0,1-0.4,1.1-0.8c0-0.1,0-0.2,0-0.3V321.3z"/>
			<path class="st19" d="M149.9,322.7c0.3,0.2,0.9,0.4,1.4,0.4c0.6,0,0.9-0.3,0.9-0.6c0-0.4-0.2-0.6-0.9-0.8c-1.1-0.4-1.5-1-1.5-1.6
				c0-1,0.8-1.7,2.1-1.7c0.6,0,1.1,0.2,1.5,0.3l-0.3,1c-0.2-0.1-0.7-0.3-1.2-0.3c-0.5,0-0.8,0.2-0.8,0.6c0,0.4,0.3,0.5,1,0.8
				c1,0.4,1.5,0.9,1.5,1.7c0,1-0.8,1.7-2.3,1.7c-0.7,0-1.3-0.2-1.7-0.4L149.9,322.7z"/>
			<path class="st19" d="M154.6,322.7c0.3,0.2,0.9,0.4,1.4,0.4c0.6,0,0.9-0.3,0.9-0.6c0-0.4-0.2-0.6-0.9-0.8c-1.1-0.4-1.5-1-1.5-1.6
				c0-1,0.8-1.7,2.1-1.7c0.6,0,1.1,0.2,1.5,0.3l-0.3,1c-0.2-0.1-0.7-0.3-1.2-0.3c-0.5,0-0.8,0.2-0.8,0.6c0,0.4,0.3,0.5,1,0.8
				c1,0.4,1.5,0.9,1.5,1.7c0,1-0.8,1.7-2.3,1.7c-0.7,0-1.3-0.2-1.7-0.4L154.6,322.7z"/>
			<path class="st19" d="M160.4,321.6c0,1,0.8,1.4,1.7,1.4c0.6,0,1.1-0.1,1.5-0.3l0.2,1c-0.5,0.2-1.1,0.3-1.9,0.3
				c-1.8,0-2.9-1.1-2.9-2.8c0-1.5,0.9-3,2.7-3c1.8,0,2.4,1.5,2.4,2.7c0,0.3,0,0.5,0,0.6H160.4z M162.9,320.6c0-0.5-0.2-1.4-1.1-1.4
				c-0.9,0-1.2,0.8-1.3,1.4H162.9z"/>
			<path class="st19" d="M165.2,322.7c0.3,0.2,0.9,0.4,1.4,0.4c0.6,0,0.9-0.3,0.9-0.6c0-0.4-0.2-0.6-0.9-0.8c-1.1-0.4-1.5-1-1.5-1.6
				c0-1,0.8-1.7,2.1-1.7c0.6,0,1.1,0.2,1.5,0.3l-0.3,1c-0.2-0.1-0.7-0.3-1.2-0.3c-0.5,0-0.8,0.2-0.8,0.6c0,0.4,0.3,0.5,1,0.8
				c1,0.4,1.5,0.9,1.5,1.7c0,1-0.8,1.7-2.3,1.7c-0.7,0-1.3-0.2-1.7-0.4L165.2,322.7z"/>
			<path class="st19" d="M170,322.7c0.3,0.2,0.9,0.4,1.4,0.4c0.6,0,0.9-0.3,0.9-0.6c0-0.4-0.2-0.6-0.9-0.8c-1.1-0.4-1.5-1-1.5-1.6
				c0-1,0.8-1.7,2.1-1.7c0.6,0,1.1,0.2,1.5,0.3l-0.3,1c-0.2-0.1-0.7-0.3-1.2-0.3c-0.5,0-0.8,0.2-0.8,0.6c0,0.4,0.3,0.5,1,0.8
				c1,0.4,1.5,0.9,1.5,1.7c0,1-0.8,1.7-2.3,1.7c-0.7,0-1.3-0.2-1.7-0.4L170,322.7z"/>
			<path class="st19" d="M174.8,320.1c0-0.6,0-1.2,0-1.6h1.2l0.1,0.8h0c0.3-0.4,0.8-0.9,1.7-0.9c0.7,0,1.3,0.4,1.5,1h0
				c0.2-0.3,0.4-0.5,0.7-0.7c0.3-0.2,0.7-0.3,1.1-0.3c0.9,0,1.9,0.6,1.9,2.4v3.3h-1.4v-3.1c0-0.9-0.3-1.5-1-1.5
				c-0.5,0-0.8,0.3-1,0.7c0,0.1-0.1,0.3-0.1,0.5v3.3h-1.4v-3.2c0-0.8-0.3-1.3-1-1.3c-0.5,0-0.9,0.4-1,0.8c-0.1,0.1-0.1,0.3-0.1,0.5
				v3.3h-1.4V320.1z"/>
			<path class="st19" d="M185.4,321.6c0,1,0.8,1.4,1.7,1.4c0.6,0,1.1-0.1,1.5-0.3l0.2,1c-0.5,0.2-1.1,0.3-1.9,0.3
				c-1.8,0-2.9-1.1-2.9-2.8c0-1.5,0.9-3,2.7-3c1.8,0,2.4,1.5,2.4,2.7c0,0.3,0,0.5,0,0.6H185.4z M187.9,320.6c0-0.5-0.2-1.4-1.1-1.4
				c-0.9,0-1.2,0.8-1.3,1.4H187.9z"/>
			<path class="st19" d="M190.3,320.1c0-0.6,0-1.2,0-1.6h1.2l0.1,0.8h0c0.2-0.4,0.8-1,1.8-1c1,0,2,0.6,2,2.4v3.3h-1.4v-3.1
				c0-0.8-0.3-1.4-1.1-1.4c-0.6,0-0.9,0.4-1.1,0.8c0,0.1-0.1,0.3-0.1,0.5v3.3h-1.4V320.1z"/>
			<path class="st19" d="M198.4,316.9v1.6h1.3v1h-1.3v2.4c0,0.7,0.2,1,0.7,1c0.2,0,0.4,0,0.5-0.1l0,1.1c-0.2,0.1-0.6,0.1-1,0.1
				c-0.5,0-0.9-0.2-1.2-0.5c-0.3-0.3-0.4-0.8-0.4-1.5v-2.6h-0.8v-1h0.8v-1.3L198.4,316.9z"/>
		</g>
	</g>
	<line class="st12" x1="278.4" y1="195.8" x2="278.4" y2="211.2"/>
	<circle class="st12" cx="262.1" cy="160.9" r="2.3"/>
	<path class="st18" d="M172.6,286.5c-4.9,0-8.8-6.4-8.8-14.4s3.9-14.4,8.8-14.4s8.8,6.4,8.8,14.4"/>
	<line class="st18" x1="172.6" y1="257.7" x2="172.6" y2="286.5"/>
	<path class="st18" d="M158.2,272.1H187c0-8-6.4-14.4-14.4-14.4C164.7,257.7,158.2,264.2,158.2,272.1s6.4,14.4,14.4,14.4"/>
	<path class="st18" d="M160.6,264.2c0,0,11.3,2.4,24.3,0"/>
	<path class="st18" d="M160.6,279.4c0,0,5-1.1,12.1-1.1"/>
	<line class="st18" x1="163.3" y1="298.7" x2="183.3" y2="298.7"/>
	<rect x="176.2" y="275.1" class="st18" width="13.1" height="13.1"/>
	<g>
		<g>
			<polyline class="st27" points="171.2,291.5 153.3,291.5 153.3,248.8 172.6,248.8 173.3,248.8 173.3,251.9 			"/>
			<g>
				<polygon class="st19" points="170.3,251 173.3,256.2 176.3,251 				"/>
			</g>
		</g>
	</g>
	<line class="st18" x1="173.4" y1="298.7" x2="173.4" y2="293.8"/>
	<polyline class="st18" points="178.6,281.9 181.3,284.6 186.6,279.3 	"/>
	<circle class="st18" cx="173.4" cy="291.5" r="2.3"/>
</g>
</svg>
