<svg id="Layer_1" data-name="Layer 1" xmlns="http://www.w3.org/2000/svg" width="100" height="100" viewBox="0 0 100 100"><title>review-process</title><path d="M0,24.82a11.38,11.38,0,0,1,3-5.91A9.15,9.15,0,0,1,9.26,16.2c4.54-.06,9.08,0,13.7,0v3.65c-.4,0-.81.05-1.22.05H10A6,6,0,0,0,3.77,26q0,22.2,0,44.41A6,6,0,0,0,10,76.6c3.22,0,6.45,0,9.67,0a4.88,4.88,0,0,1,2.27.64c3.31,1.94,6.58,4,9.86,6,.32.19.66.35,1.14.61V76.61h1.46q19.17,0,38.34,0a1.32,1.32,0,0,0,1.56-1.07,7.33,7.33,0,0,1,7.12-5,7.46,7.46,0,0,1,7,5.12c.1.29.19.58.28.85,4,.43,6.79-1.31,7.54-4.65a9.15,9.15,0,0,0,.15-2c0-14.46,0-28.91,0-43.36a6.49,6.49,0,0,0-6.77-6.72c-12.24.15-24.48.06-36.72.06h-1.5v6.68L36.54,17.94,51.4,9.45v6.71H89.17c5.87,0,9,2.38,10.7,8a.55.55,0,0,0,.13.18V72.14c0,.06-.12.11-.14.17-1.55,5.52-4.74,8-10.45,8a1.39,1.39,0,0,0-1.47.93,7.41,7.41,0,0,1-13.32.09,1.55,1.55,0,0,0-1.65-1q-17.53,0-35.06,0H36.6V90.55h-.24a2.85,2.85,0,0,0-.47-.45q-7.76-4.72-15.54-9.4a3.18,3.18,0,0,0-1.52-.39c-3,0-6.06,0-9.09,0A9.66,9.66,0,0,1,.56,73.67c-.22-.66-.38-1.33-.56-2ZM85,78.06a3.79,3.79,0,1,0-3.87,3.7A3.83,3.83,0,0,0,85,78.06Z"/><path d="M40.08,61c.52-3,.91-6,1.54-8.81a3.36,3.36,0,0,0-1.14-3.73,56,56,0,0,1-4-4.39c-2.13,2.08-4,3.86-5.79,5.71-.23.24-.14.88-.07,1.31.47,2.87,1,5.74,1.47,8.61.07.37.11.75.19,1.33-2.6-1.36-5.12-2.5-7.43-3.94a4.05,4.05,0,0,0-4.94,0c-2,1.28-4.15,2.25-6.25,3.35-.36.19-.75.34-1.25.57.59-3.46,1.12-6.78,1.74-10.09a1.59,1.59,0,0,0-.55-1.61C11.22,46.92,9,44.47,6.7,42.08c1.25-.19,2.82-.45,4.39-.68,1.81-.26,3.62-.46,5.41-.79a1.9,1.9,0,0,0,1.17-.89c1.55-3,3-6.08,4.63-9.3,1.07,2.13,2.05,4.1,3,6.07a11.6,11.6,0,0,1,.89,1.89,3.32,3.32,0,0,0,3.5,2.52,21.18,21.18,0,0,1,3.8.52c3.78.81,7.38-.51,11.06-.88.33,0,.7-.56.89-.94,1.5-3,3-6,4.52-9.1.24.41.43.68.57,1,1.34,2.71,2.69,5.42,4,8.15A1.69,1.69,0,0,0,56,40.68c2,.24,4,.5,6,.88,2.45.47,4.77-.48,7.15-.48,2.87,0,4.34-1.38,5.3-3.94a69.32,69.32,0,0,1,3.11-6.37c0-.07.1-.11.23-.24,1.19,2.43,2.53,4.76,3.5,7.24A4.52,4.52,0,0,0,85.86,41a77.13,77.13,0,0,1,7.7,1.1,66.6,66.6,0,0,1-5.09,5.25c-2,1.7-3,3.41-2.1,6.13a52.46,52.46,0,0,1,1.26,7.1,1.64,1.64,0,0,1,0,.39c-.39-.18-.75-.34-1.1-.52-2.57-1.35-5.16-2.68-7.71-4.08a1.83,1.83,0,0,0-2,0c-2.89,1.58-5.81,3.08-8.94,4.73.35-2.13.67-4.05,1-6a16.77,16.77,0,0,1,.51-2.86c.62-1.74,0-2.85-1.33-4a51.45,51.45,0,0,1-3.89-4.13c-2,2-3.86,3.75-5.62,5.55a1.53,1.53,0,0,0-.2,1.15c.48,3,1,6,1.51,8.95,0,.34.1.68.18,1.25l-1.34-.68C56,59,53.46,57.68,50.9,56.3a1.58,1.58,0,0,0-1.71,0c-2.62,1.43-5.27,2.8-7.92,4.19C40.94,60.64,40.58,60.8,40.08,61ZM69.79,44.7C70.94,45.89,72,47,73,48.05a1.45,1.45,0,0,1,.49,1.52c-.33,1.5-.52,3-.8,4.73,1.45-.77,2.77-1.42,4-2.15a1.7,1.7,0,0,1,1.92,0c1.27.74,2.62,1.38,4.11,2.16-.26-1.53-.43-2.84-.73-4.11a2.21,2.21,0,0,1,.8-2.53c1-.84,2-1.81,3.14-2.91-1.83-.27-3.27-.56-4.72-.69a1.68,1.68,0,0,1-1.53-1.16c-.61-1.33-1.29-2.63-2-4.08C77,40.3,76.32,41.64,75.69,43a1.54,1.54,0,0,1-1.36,1C72.84,44.2,71.35,44.46,69.79,44.7ZM55.06,54.3c-.28-1.75-.58-3.27-.75-4.8a2,2,0,0,1,.43-1.38c1-1.13,2.17-2.17,3.42-3.39-1.72-.26-3.19-.54-4.68-.69a1.58,1.58,0,0,1-1.42-1.11c-.61-1.33-1.29-2.63-2-4.12-.71,1.43-1.4,2.65-1.91,3.93a2,2,0,0,1-1.89,1.37c-1.37.13-2.72.37-4.42.62C43.1,46,44.16,47,45.27,48a1.49,1.49,0,0,1,.53,1.62c-.32,1.46-.51,3-.8,4.65,1.53-.8,2.86-1.56,4.26-2.18a2.08,2.08,0,0,1,1.55,0C52.19,52.72,53.5,53.48,55.06,54.3ZM22.31,38.83c-.77,1.54-1.42,2.94-2.18,4.29A2,2,0,0,1,19,44c-1.5.32-3,.5-4.71.76,1.15,1.16,2.15,2.23,3.22,3.22a1.68,1.68,0,0,1,.59,1.82c-.33,1.42-.5,2.88-.77,4.53,1.47-.77,2.8-1.4,4-2.14a1.78,1.78,0,0,1,2,0c1.24.71,2.53,1.34,4,2.11-.28-1.57-.45-2.87-.75-4.15a2.26,2.26,0,0,1,.83-2.52,32.34,32.34,0,0,0,2.66-2.95c-1.37-.2-2.81-.46-4.27-.62A1.6,1.6,0,0,1,24.37,43C23.75,41.62,23,40.29,22.31,38.83Z"/></svg>