<svg id="Layer_1" data-name="Layer 1" xmlns="http://www.w3.org/2000/svg" width="100" height="100" viewBox="0 0 100 100"><title>Experience</title><path d="M85.93,56c-.86,2.27-2.57,3.06-4.9,3-3-.08-3,0-3,3,0,3.28,0,6.56,0,9.84a8.42,8.42,0,0,1-8.71,8.67c-1.93,0-3.86,0-5.79,0-1,0-1.43.25-1.4,1.35.08,2.47,0,4.94,0,7.41,0,3.89-2,5.94-5.91,5.94-8,0-16,0-24,0a1.42,1.42,0,0,0-1.62,1,5.91,5.91,0,0,1-4.62,3.61,4.57,4.57,0,0,0-.62.22h-.93l-1.28-.39a6.22,6.22,0,0,1-4.47-6.3,6.31,6.31,0,0,1,4.86-5.78,6.14,6.14,0,0,1,7,3.45,1.6,1.6,0,0,0,1.79,1.12c7.91,0,15.83,0,23.74,0,2.22,0,2.89-.67,2.89-2.91,0-2.62,0-5.25,0-7.88a3.63,3.63,0,0,1,3.86-4c2.16,0,4.33,0,6.49,0a5.21,5.21,0,0,0,5.51-5.52c0-3.93,0-7.87-.06-11.81,0-2.78,1.42-4.22,4.19-4.22.85,0,1.7,0,2.55,0,1.23,0,1.44-.36.87-1.49-.92-1.87-1.82-3.75-2.81-5.58a46.45,46.45,0,0,1-5.08-16.23C72.87,19.71,64.4,11.05,51.64,9a46.88,46.88,0,0,0-6.9-.57c-5.56-.08-11.13,0-16.69,0H26.5v6L14.07,7.1,26.47,0V5.26h1.42c6.06,0,12.13-.17,18.18,0,8.56.31,16.42,2.75,22.83,8.75A27.29,27.29,0,0,1,77.45,31a53.66,53.66,0,0,0,6.47,19.27c.7,1.27,1.34,2.58,2,3.88ZM25,96.76a3.13,3.13,0,1,0-3.21-3.13A3.21,3.21,0,0,0,25,96.76Z"/><path d="M46.38,11.67c1.72,3.48,3.4,6.77,5,10.12a2.39,2.39,0,0,0,2.15,1.53c3.37.43,6.72.95,10.08,1.43.3.05.59.13.6,0-2.25,2.42-4.4,4.95-6.8,7.22a4.15,4.15,0,0,0-1.47,4.49c.75,3.21,1.16,6.51,1.76,10l-4.43-2.31c-2-1.06-4-2.1-6-3.2a1.6,1.6,0,0,0-1.7,0c-3,1.6-5.93,3.15-8.9,4.71-.43.23-.87.44-1.55.77.42-2.47.79-4.7,1.17-6.92.26-1.52.51-3.05.81-4.56A1.89,1.89,0,0,0,36.37,33c-2.64-2.48-5.22-5-7.81-7.57a5.76,5.76,0,0,1-.43-.51L34.36,24c1.79-.26,3.59-.53,5.38-.75a1.61,1.61,0,0,0,1.38-1c1.52-3.16,3.09-6.29,4.65-9.44C45.93,12.46,46.12,12.14,46.38,11.67Zm0,7a48.19,48.19,0,0,0-2.3,4.71,4,4,0,0,1-4.16,3,39.24,39.24,0,0,0-4.78.7c1.61,1.7,3.14,3.37,4.74,5a1.56,1.56,0,0,1,.55,1.6c-.44,2.29-.79,4.59-1.21,7.08,2.1-1.1,4-2,5.9-3.12a2.2,2.2,0,0,1,2.52,0c1.87,1.09,3.83,2,5.92,3.13-.33-1.88-.5-3.58-1-5.2a4,4,0,0,1,1.56-4.76,40.63,40.63,0,0,0,3.77-3.69c-2.5-.36-4.75-.72-7-1a1.57,1.57,0,0,1-1.4-1C48.53,23,47.48,21,46.35,18.7Z"/></svg>