<svg id="Layer_1" data-name="Layer 1" xmlns="http://www.w3.org/2000/svg" viewBox="0 0 350.5 351"><defs><style>.cls-1{fill:#fbc2ba;}.cls-2{fill:#f16c51;}.cls-3{fill:#fff;}</style></defs><title>fan-engagement</title><path class="cls-1" d="M221.2,135.15l-5.6-5.6L296.2,49A175,175,0,0,0,54.3,49l82,82-5.6,5.6-82-82a175,175,0,0,0,0,241.9l80.6-80.6,5.6,5.6-80.6,80.6a175,175,0,0,0,241.9,0L217,222.85l5.6-5.6,79.2,79.2a175,175,0,0,0,0-241.9l-80.6,80.6Z"/><circle id="_Path_" data-name="&lt;Path&gt;" class="cls-1" cx="175.3" cy="175.45" r="167.9"/><path class="cls-2" d="M128,133.75,53.8,59.55a167.88,167.88,0,0,0,0,231.8l74.2-74.2a63.08,63.08,0,0,1,0-83.4Zm89-5.6L291.2,54A167.88,167.88,0,0,0,59.4,54l74.2,74.2a63.08,63.08,0,0,1,83.4,0Zm-83.4,94.6L59.4,297a167.88,167.88,0,0,0,231.8,0L217,222.75a63.08,63.08,0,0,1-83.4,0Zm89-5.6,74.2,74.2a167.88,167.88,0,0,0,0-231.8l-74.2,74.2a63.08,63.08,0,0,1,0,83.4Z"/><path class="cls-3" d="M23.18,192.33a11.68,11.68,0,0,1,2-.14,3.18,3.18,0,0,1,2.09.57,2,2,0,0,1,.69,1.57,2.15,2.15,0,0,1-.6,1.6,3.12,3.12,0,0,1-2.24.76,3.85,3.85,0,0,1-.63,0v2.66H23.18Zm1.28,3.3a2.76,2.76,0,0,0,.63.05c1,0,1.55-.47,1.55-1.3s-.54-1.21-1.43-1.21a3,3,0,0,0-.75.07Z"/><path class="cls-3" d="M33.57,197.78c0,.61,0,1.11,0,1.53H32.48l-.06-.77h0a1.87,1.87,0,0,1-1.64.89c-.94,0-1.79-.56-1.79-2.23v-3h1.3V197c0,.85.27,1.4.95,1.4a1.1,1.1,0,0,0,1-.69,1.29,1.29,0,0,0,.07-.4V194.2h1.29Z"/><path class="cls-3" d="M34.91,198.13a2.85,2.85,0,0,0,1.31.37c.57,0,.82-.24.82-.57s-.21-.53-.84-.75c-1-.34-1.42-.89-1.41-1.49a1.71,1.71,0,0,1,1.93-1.6,3,3,0,0,1,1.36.3l-.25.91a2.42,2.42,0,0,0-1.09-.29c-.46,0-.71.22-.71.53s.24.49.89.72c.93.33,1.36.81,1.37,1.56,0,.93-.73,1.6-2.08,1.6a3.33,3.33,0,0,1-1.56-.36Z"/><path class="cls-3" d="M39.35,191.86h1.3v3h0a1.86,1.86,0,0,1,1.52-.81c.87,0,1.79.57,1.79,2.21v3H42.69v-2.86c0-.75-.28-1.3-1-1.3a1.06,1.06,0,0,0-1,.72,1.15,1.15,0,0,0-.05.39v3.05h-1.3Z"/><path class="cls-3" d="M47.53,195.72c0-.58,0-1.08,0-1.52h1.13l.06.77h0a1.85,1.85,0,0,1,1.63-.88c.89,0,1.82.57,1.82,2.19v3H50.87v-2.88c0-.74-.28-1.29-1-1.29a1.09,1.09,0,0,0-1,.75,1.38,1.38,0,0,0-.05.42v3h-1.3Z"/><path class="cls-3" d="M58.39,196.71a2.53,2.53,0,0,1-2.62,2.72,2.47,2.47,0,0,1-2.56-2.64,2.52,2.52,0,0,1,2.64-2.7A2.45,2.45,0,0,1,58.39,196.71Zm-3.85,0c0,1,.48,1.74,1.27,1.74s1.25-.73,1.25-1.76c0-.8-.36-1.71-1.24-1.71S54.54,195.91,54.54,196.76Z"/><path class="cls-3" d="M60.94,192.74v1.46h1.22v1H60.94v2.25c0,.62.16,1,.66,1a1.93,1.93,0,0,0,.5-.06l0,1a2.63,2.63,0,0,1-.93.13,1.52,1.52,0,0,1-1.12-.42,2.06,2.06,0,0,1-.39-1.43v-2.4h-.74v-1h.74v-1.15Z"/><path class="cls-3" d="M64.52,192.77a.69.69,0,0,1-.74.7.68.68,0,0,1-.71-.7.69.69,0,0,1,.72-.7A.7.7,0,0,1,64.52,192.77Zm-1.38,6.54V194.2h1.3v5.11Z"/><path class="cls-3" d="M66,199.31v-4.14h-.7v-1H66V194a2.17,2.17,0,0,1,2.47-2.21,3,3,0,0,1,1.41.32l-.28,1a2.33,2.33,0,0,0-1.13-.28A1.08,1.08,0,0,0,67.26,194v.21h3v5.11H69v-4.14H67.27v4.14Z"/><path class="cls-3" d="M75.46,199.16a3.9,3.9,0,0,1-1.45.26,2.46,2.46,0,0,1-2.64-2.6,2.64,2.64,0,0,1,2.85-2.73,3.2,3.2,0,0,1,1.25.24l-.23,1a2.37,2.37,0,0,0-1-.2,1.66,1.66,0,0,0,0,3.31,2.45,2.45,0,0,0,1-.2Z"/><path class="cls-3" d="M79.29,199.31l-.08-.56h0a1.89,1.89,0,0,1-1.51.68,1.51,1.51,0,0,1-1.6-1.52c0-1.29,1.14-1.95,3-1.93v-.09c0-.33-.14-.89-1-.89a2.75,2.75,0,0,0-1.38.38l-.25-.84a3.7,3.7,0,0,1,1.85-.45,1.91,1.91,0,0,1,2.11,2.15v1.85a8.45,8.45,0,0,0,.07,1.22Zm-.17-2.49c-.91,0-1.78.17-1.78,1a.68.68,0,0,0,.73.74,1,1,0,0,0,1-.71,1,1,0,0,0,0-.28Z"/><path class="cls-3" d="M83.23,192.74v1.46h1.23v1H83.23v2.25c0,.62.16,1,.66,1a1.93,1.93,0,0,0,.5-.06l0,1a2.63,2.63,0,0,1-.93.13,1.5,1.5,0,0,1-1.11-.42,2,2,0,0,1-.4-1.43v-2.4h-.74v-1H82v-1.15Z"/><path class="cls-3" d="M86.81,192.77a.69.69,0,0,1-.74.7.68.68,0,0,1-.71-.7.69.69,0,0,1,.72-.7A.7.7,0,0,1,86.81,192.77Zm-1.38,6.54V194.2h1.3v5.11Z"/><path class="cls-3" d="M93,196.71a2.53,2.53,0,0,1-2.62,2.72,2.48,2.48,0,0,1-2.57-2.64,2.53,2.53,0,0,1,2.65-2.7A2.45,2.45,0,0,1,93,196.71Zm-3.85,0c0,1,.48,1.74,1.27,1.74s1.25-.73,1.25-1.76c0-.8-.36-1.71-1.24-1.71S89.13,195.91,89.13,196.76Z"/><path class="cls-3" d="M94,195.72c0-.58,0-1.08,0-1.52h1.13l.07.77h0a1.83,1.83,0,0,1,1.63-.88c.89,0,1.81.57,1.81,2.19v3H97.38v-2.88c0-.74-.27-1.29-1-1.29a1.06,1.06,0,0,0-1,.75,1.12,1.12,0,0,0-.06.42v3H94Z"/><path class="cls-3" d="M100,198.13a2.89,2.89,0,0,0,1.32.37c.56,0,.82-.24.82-.57s-.21-.53-.84-.75c-1-.34-1.42-.89-1.41-1.49,0-.9.74-1.6,1.93-1.6a3,3,0,0,1,1.36.3l-.26.91a2.37,2.37,0,0,0-1.08-.29c-.46,0-.71.22-.71.53s.24.49.89.72c.92.33,1.35.81,1.37,1.56,0,.93-.73,1.6-2.08,1.6a3.33,3.33,0,0,1-1.56-.36Z"/><path class="cls-3" d="M117.54,316.31l-2.29-7.07h1.41l1,3.21c.27.89.5,1.72.69,2.58h0c.19-.84.44-1.7.72-2.56l1-3.23h1.38L119,316.31Z"/><path class="cls-3" d="M123.1,314.12a1.38,1.38,0,0,0,1.57,1.32,3.8,3.8,0,0,0,1.42-.23l.19.89a4.78,4.78,0,0,1-1.79.32,2.41,2.41,0,0,1-2.63-2.58,2.53,2.53,0,0,1,2.5-2.75,2.21,2.21,0,0,1,2.2,2.48,3.35,3.35,0,0,1,0,.55Zm2.24-.9a1.1,1.1,0,0,0-1.06-1.25,1.26,1.26,0,0,0-1.18,1.25Z"/><path class="cls-3" d="M127.6,312.72c0-.58,0-1.08,0-1.52h1.13l.07.77h0a1.83,1.83,0,0,1,1.63-.88c.89,0,1.81.57,1.81,2.19v3h-1.29v-2.88c0-.74-.27-1.29-1-1.29a1.06,1.06,0,0,0-1,.75,1.12,1.12,0,0,0-.06.42v3h-1.3Z"/><path class="cls-3" d="M138.19,314.78c0,.61,0,1.11,0,1.53h-1.14l-.06-.77h0a1.86,1.86,0,0,1-1.64.89c-.93,0-1.78-.56-1.78-2.23v-3h1.29V314c0,.85.27,1.4,1,1.4a1.1,1.1,0,0,0,1-.69,1.29,1.29,0,0,0,.07-.4V311.2h1.3Z"/><path class="cls-3" d="M140.5,314.12a1.38,1.38,0,0,0,1.57,1.32,3.8,3.8,0,0,0,1.42-.23l.19.89a4.78,4.78,0,0,1-1.79.32,2.41,2.41,0,0,1-2.63-2.58,2.53,2.53,0,0,1,2.49-2.75,2.22,2.22,0,0,1,2.21,2.48,3.35,3.35,0,0,1,0,.55Zm2.24-.9a1.1,1.1,0,0,0-1.06-1.25,1.25,1.25,0,0,0-1.18,1.25Z"/><path class="cls-3" d="M150.05,316.31l-.08-.56h0a1.89,1.89,0,0,1-1.51.68,1.51,1.51,0,0,1-1.6-1.52c0-1.29,1.14-2,3-1.93v-.09c0-.33-.14-.89-1-.89a2.69,2.69,0,0,0-1.37.38l-.26-.84a3.7,3.7,0,0,1,1.85-.45,1.91,1.91,0,0,1,2.11,2.15v1.85a8.45,8.45,0,0,0,.07,1.22Zm-.17-2.49c-.91,0-1.78.17-1.78.95a.68.68,0,0,0,.73.74,1,1,0,0,0,1-.71,1,1,0,0,0,0-.28Z"/><path class="cls-3" d="M156.27,316.16a3.9,3.9,0,0,1-1.45.26,2.46,2.46,0,0,1-2.64-2.6,2.64,2.64,0,0,1,2.85-2.73,3.2,3.2,0,0,1,1.25.24l-.24,1a2.32,2.32,0,0,0-1-.2,1.66,1.66,0,0,0,0,3.31,2.48,2.48,0,0,0,1-.2Z"/><path class="cls-3" d="M161,316.16a3.86,3.86,0,0,1-1.45.26,2.45,2.45,0,0,1-2.63-2.6,2.64,2.64,0,0,1,2.84-2.73,3.16,3.16,0,0,1,1.25.24l-.23,1a2.33,2.33,0,0,0-1-.2,1.66,1.66,0,0,0,0,3.31,2.45,2.45,0,0,0,1-.2Z"/><path class="cls-3" d="M162.85,314.12a1.39,1.39,0,0,0,1.57,1.32,3.8,3.8,0,0,0,1.42-.23l.19.89a4.76,4.76,0,0,1-1.78.32,2.42,2.42,0,0,1-2.64-2.58,2.53,2.53,0,0,1,2.5-2.75,2.21,2.21,0,0,1,2.2,2.48,3.35,3.35,0,0,1,0,.55Zm2.25-.9A1.1,1.1,0,0,0,164,312a1.26,1.26,0,0,0-1.19,1.25Z"/><path class="cls-3" d="M167.29,315.13a2.85,2.85,0,0,0,1.31.37c.57,0,.82-.24.82-.57s-.21-.53-.84-.75c-1-.34-1.41-.89-1.4-1.49,0-.9.74-1.6,1.93-1.6a3,3,0,0,1,1.35.3l-.25.91a2.37,2.37,0,0,0-1.08-.29c-.46,0-.72.22-.72.53s.25.49.9.72c.92.33,1.35.81,1.36,1.56,0,.93-.72,1.6-2.08,1.6a3.28,3.28,0,0,1-1.55-.36Z"/><path class="cls-3" d="M171.67,315.13a2.85,2.85,0,0,0,1.31.37c.57,0,.82-.24.82-.57s-.21-.53-.84-.75c-1-.34-1.42-.89-1.41-1.49,0-.9.75-1.6,1.94-1.6a3,3,0,0,1,1.35.3l-.25.91a2.37,2.37,0,0,0-1.08-.29c-.47,0-.72.22-.72.53s.24.49.9.72c.92.33,1.35.81,1.36,1.56,0,.93-.72,1.6-2.08,1.6a3.25,3.25,0,0,1-1.55-.36Z"/><path class="cls-3" d="M181.16,316.31l-.08-.56h0a1.87,1.87,0,0,1-1.51.68,1.51,1.51,0,0,1-1.6-1.52c0-1.29,1.14-2,3-1.93v-.09c0-.33-.14-.89-1-.89a2.69,2.69,0,0,0-1.37.38l-.26-.84a3.7,3.7,0,0,1,1.85-.45,1.91,1.91,0,0,1,2.11,2.15v1.85a7.11,7.11,0,0,0,.08,1.22Zm-.17-2.49c-.91,0-1.78.17-1.78.95a.68.68,0,0,0,.73.74,1,1,0,0,0,1-.71,1,1,0,0,0,0-.28Z"/><path class="cls-3" d="M183.62,312.72c0-.58,0-1.08,0-1.52h1.13l.06.77h0a1.86,1.86,0,0,1,1.63-.88c.89,0,1.82.57,1.82,2.19v3H187v-2.88c0-.74-.28-1.29-1-1.29a1.09,1.09,0,0,0-1,.75,1.38,1.38,0,0,0-.05.42v3h-1.3Z"/><path class="cls-3" d="M194.34,308.86v6c0,.52,0,1.09,0,1.43h-1.16l-.05-.8h0a1.84,1.84,0,0,1-1.67.92,2.34,2.34,0,0,1-2.18-2.61,2.43,2.43,0,0,1,2.29-2.73,1.64,1.64,0,0,1,1.44.67h0v-2.9Zm-1.29,4.47a1.24,1.24,0,0,0,0-.33,1.12,1.12,0,0,0-1.11-.92c-.83,0-1.29.74-1.29,1.69s.46,1.62,1.28,1.62a1.13,1.13,0,0,0,1.11-.91,1.17,1.17,0,0,0,.05-.38Z"/><path class="cls-3" d="M197.9,312.72c0-.58,0-1.08,0-1.52H199l.06.77h0a1.85,1.85,0,0,1,1.63-.88c.89,0,1.82.57,1.82,2.19v3h-1.29v-2.88c0-.74-.28-1.29-1-1.29a1.09,1.09,0,0,0-1,.75,1.38,1.38,0,0,0-.05.42v3h-1.3Z"/><path class="cls-3" d="M204.82,314.12a1.38,1.38,0,0,0,1.57,1.32,3.8,3.8,0,0,0,1.42-.23l.19.89a4.78,4.78,0,0,1-1.79.32,2.41,2.41,0,0,1-2.63-2.58,2.53,2.53,0,0,1,2.5-2.75,2.21,2.21,0,0,1,2.2,2.48,3.35,3.35,0,0,1,0,.55Zm2.24-.9A1.1,1.1,0,0,0,206,312a1.26,1.26,0,0,0-1.18,1.25Z"/><path class="cls-3" d="M210.8,309.74v1.46H212v1H210.8v2.25c0,.62.17.95.66.95a2.09,2.09,0,0,0,.51-.06l0,1a2.69,2.69,0,0,1-.94.13,1.5,1.5,0,0,1-1.11-.42,2.05,2.05,0,0,1-.4-1.43v-2.4h-.73v-1h.73v-1.15Z"/><path class="cls-3" d="M213.78,311.2l.54,2.32c.11.55.23,1.1.32,1.66h0c.1-.56.27-1.12.42-1.65l.66-2.33h1.05l.64,2.27c.15.6.29,1.15.41,1.71h0c.08-.56.2-1.11.33-1.71l.57-2.27H220l-1.61,5.11h-1.19l-.61-2.07a16.49,16.49,0,0,1-.39-1.64h0a14.19,14.19,0,0,1-.39,1.64l-.65,2.07H214l-1.51-5.11Z"/><path class="cls-3" d="M225.73,313.71a2.53,2.53,0,0,1-2.62,2.72,2.47,2.47,0,0,1-2.56-2.64,2.52,2.52,0,0,1,2.64-2.7A2.45,2.45,0,0,1,225.73,313.71Zm-3.85.05c0,1,.48,1.74,1.27,1.74s1.25-.73,1.25-1.76c0-.8-.36-1.71-1.24-1.71S221.88,312.91,221.88,313.76Z"/><path class="cls-3" d="M226.79,312.85c0-.69,0-1.19,0-1.65h1.13l0,1h0a1.51,1.51,0,0,1,1.4-1.09,1.45,1.45,0,0,1,.3,0v1.21a1.92,1.92,0,0,0-.38,0,1.13,1.13,0,0,0-1.15,1,2.18,2.18,0,0,0,0,.4v2.64h-1.29Z"/><path class="cls-3" d="M231.82,313.45h0c.13-.2.28-.42.41-.6l1.24-1.65H235l-1.88,2.09,2.16,3h-1.59l-1.47-2.25-.44.51v1.74h-1.29v-7.45h1.29Z"/><path class="cls-3" d="M145.36,323.72c0-.58,0-1.08,0-1.52h1.11l.06.76h0a1.76,1.76,0,0,1,1.57-.87,1.47,1.47,0,0,1,1.42.94h0a2,2,0,0,1,.63-.64,1.7,1.7,0,0,1,1-.3c.85,0,1.71.57,1.71,2.21v3h-1.26v-2.82c0-.85-.29-1.35-.91-1.35a1,1,0,0,0-.91.68,1.86,1.86,0,0,0-.06.43v3.06H148.5v-3c0-.71-.28-1.21-.88-1.21a1.17,1.17,0,0,0-1,1.15v3h-1.26Z"/><path class="cls-3" d="M157.14,327.31l-.08-.56h0a1.9,1.9,0,0,1-1.51.68,1.52,1.52,0,0,1-1.61-1.52c0-1.29,1.14-2,3-1.93v-.09c0-.33-.13-.89-1-.89a2.71,2.71,0,0,0-1.37.38l-.25-.84a3.66,3.66,0,0,1,1.84-.45,1.91,1.91,0,0,1,2.11,2.15v1.85a7.11,7.11,0,0,0,.08,1.22Zm-.17-2.49c-.91,0-1.78.17-1.78.95a.68.68,0,0,0,.73.74,1,1,0,0,0,1-.71,1,1,0,0,0,0-.28Z"/><path class="cls-3" d="M159.6,323.72c0-.58,0-1.08,0-1.52h1.13l.06.77h0a1.83,1.83,0,0,1,1.62-.88c.9,0,1.82.57,1.82,2.19v3h-1.29v-2.88c0-.74-.27-1.29-1-1.29a1.09,1.09,0,0,0-1,.75,1.38,1.38,0,0,0,0,.42v3h-1.3Z"/><path class="cls-3" d="M168.48,327.31l-.08-.56h0a1.9,1.9,0,0,1-1.51.68,1.52,1.52,0,0,1-1.61-1.52c0-1.29,1.14-2,3-1.93v-.09c0-.33-.13-.89-1-.89a2.69,2.69,0,0,0-1.37.38l-.25-.84a3.66,3.66,0,0,1,1.84-.45,1.91,1.91,0,0,1,2.11,2.15v1.85a8.29,8.29,0,0,0,.08,1.22Zm-.17-2.49c-.91,0-1.78.17-1.78.95a.68.68,0,0,0,.73.74,1,1,0,0,0,1-.71,1,1,0,0,0,0-.28Z"/><path class="cls-3" d="M175.61,322.2c0,.35,0,.77,0,1.47v2.9a2.47,2.47,0,0,1-2.73,2.94,3.7,3.7,0,0,1-1.79-.41l.29-1a3.05,3.05,0,0,0,1.49.39A1.36,1.36,0,0,0,174.3,327v-.44h0a1.73,1.73,0,0,1-1.49.75,2.27,2.27,0,0,1-2.18-2.5,2.45,2.45,0,0,1,2.32-2.69,1.6,1.6,0,0,1,1.48.79h0l.05-.68Zm-1.33,2.05a1.34,1.34,0,0,0,0-.35,1.08,1.08,0,0,0-1.05-.83c-.73,0-1.26.63-1.26,1.67,0,.87.44,1.58,1.25,1.58a1.11,1.11,0,0,0,1-.78,2.4,2.4,0,0,0,.05-.46Z"/><path class="cls-3" d="M177.87,325.12a1.39,1.39,0,0,0,1.57,1.32,3.8,3.8,0,0,0,1.42-.23l.19.89a4.76,4.76,0,0,1-1.78.32,2.42,2.42,0,0,1-2.64-2.58,2.53,2.53,0,0,1,2.5-2.75,2.21,2.21,0,0,1,2.2,2.48,3.35,3.35,0,0,1,0,.55Zm2.25-.9a1.1,1.1,0,0,0-1.06-1.25,1.26,1.26,0,0,0-1.19,1.25Z"/><path class="cls-3" d="M182.37,323.72c0-.58,0-1.08,0-1.52h1.12l.05.76h0a1.76,1.76,0,0,1,1.57-.87,1.46,1.46,0,0,1,1.42.94h0a2,2,0,0,1,.63-.64,1.72,1.72,0,0,1,1-.3c.85,0,1.71.57,1.71,2.21v3h-1.26v-2.82c0-.85-.29-1.35-.91-1.35a1,1,0,0,0-.9.68,1.43,1.43,0,0,0-.07.43v3.06h-1.26v-3c0-.71-.28-1.21-.88-1.21a1,1,0,0,0-.92.73,1.16,1.16,0,0,0-.08.42v3h-1.26Z"/><path class="cls-3" d="M192.19,325.12a1.39,1.39,0,0,0,1.58,1.32,3.78,3.78,0,0,0,1.41-.23l.19.89a4.76,4.76,0,0,1-1.78.32,2.42,2.42,0,0,1-2.64-2.58,2.53,2.53,0,0,1,2.5-2.75,2.22,2.22,0,0,1,2.21,2.48,3.12,3.12,0,0,1,0,.55Zm2.25-.9a1.1,1.1,0,0,0-1.06-1.25,1.26,1.26,0,0,0-1.19,1.25Z"/><path class="cls-3" d="M196.7,323.72c0-.58,0-1.08,0-1.52h1.14l.06.77h0a1.85,1.85,0,0,1,1.63-.88c.89,0,1.82.57,1.82,2.19v3H200v-2.88c0-.74-.27-1.29-1-1.29a1.08,1.08,0,0,0-1,.75,1.38,1.38,0,0,0-.05.42v3h-1.3Z"/><path class="cls-3" d="M204.18,320.74v1.46h1.23v1h-1.23v2.25c0,.62.17.95.66.95a2.09,2.09,0,0,0,.51-.06l0,1a2.69,2.69,0,0,1-.94.13,1.5,1.5,0,0,1-1.11-.42,2.05,2.05,0,0,1-.4-1.43v-2.4h-.73v-1h.73v-1.15Z"/><path class="cls-3" d="M260.43,199a6.93,6.93,0,0,1-2.28.4,3.8,3.8,0,0,1-2.77-.95,3.5,3.5,0,0,1-1-2.6c0-2.24,1.6-3.67,3.94-3.67a4.7,4.7,0,0,1,1.88.33l-.29,1a3.75,3.75,0,0,0-1.6-.3,2.37,2.37,0,0,0-2.57,2.54,2.34,2.34,0,0,0,2.45,2.56,2.54,2.54,0,0,0,1-.15v-1.76h-1.25v-1h2.5Z"/><path class="cls-3" d="M264.58,199.31l-.09-.56h0a1.89,1.89,0,0,1-1.51.68,1.52,1.52,0,0,1-1.61-1.52c0-1.29,1.15-1.95,3-1.93v-.09c0-.33-.14-.89-1-.89a2.72,2.72,0,0,0-1.38.38l-.25-.84a3.7,3.7,0,0,1,1.85-.45,1.91,1.91,0,0,1,2.11,2.15v1.85a8.45,8.45,0,0,0,.07,1.22Zm-.17-2.49c-.91,0-1.79.17-1.79,1a.69.69,0,0,0,.74.74,1.06,1.06,0,0,0,1-.71,1,1,0,0,0,0-.28Z"/><path class="cls-3" d="M267,195.72c0-.58,0-1.08,0-1.52h1.12l.05.76h0a1.76,1.76,0,0,1,1.57-.87,1.46,1.46,0,0,1,1.42.94h0a2,2,0,0,1,.63-.64,1.72,1.72,0,0,1,1-.3c.85,0,1.71.57,1.71,2.21v3h-1.26v-2.82c0-.85-.29-1.35-.91-1.35a1,1,0,0,0-.9.68,1.43,1.43,0,0,0-.07.43v3.06h-1.26v-3c0-.71-.28-1.21-.88-1.21a1.17,1.17,0,0,0-1,1.15v3H267Z"/><path class="cls-3" d="M277.31,192.77a.73.73,0,0,1-1.45,0,.7.7,0,0,1,.73-.7A.69.69,0,0,1,277.31,192.77Zm-1.37,6.54V194.2h1.3v5.11Z"/><path class="cls-3" d="M278.77,199.31v-4.14h-.69v-1h.69V194a2.18,2.18,0,0,1,2.48-2.21,3.06,3.06,0,0,1,1.41.32l-.29,1a2.29,2.29,0,0,0-1.12-.28,1.08,1.08,0,0,0-1.2,1.22v.21h3.06v5.11h-1.3v-4.14h-1.75v4.14Z"/><path class="cls-3" d="M288.25,199.16a3.82,3.82,0,0,1-1.45.26,2.45,2.45,0,0,1-2.63-2.6,2.64,2.64,0,0,1,2.84-2.73,3.12,3.12,0,0,1,1.25.24l-.23,1a2.32,2.32,0,0,0-1-.2,1.66,1.66,0,0,0,0,3.31,2.48,2.48,0,0,0,1-.2Z"/><path class="cls-3" d="M292.09,199.31l-.09-.56h0a1.89,1.89,0,0,1-1.51.68,1.52,1.52,0,0,1-1.61-1.52c0-1.29,1.15-1.95,3-1.93v-.09c0-.33-.14-.89-1-.89a2.72,2.72,0,0,0-1.38.38l-.25-.84a3.7,3.7,0,0,1,1.85-.45,1.91,1.91,0,0,1,2.11,2.15v1.85a8.45,8.45,0,0,0,.07,1.22Zm-.17-2.49c-.92,0-1.79.17-1.79,1a.69.69,0,0,0,.74.74,1.06,1.06,0,0,0,1-.71,1,1,0,0,0,0-.28Z"/><path class="cls-3" d="M296,192.74v1.46h1.23v1H296v2.25c0,.62.17,1,.67,1a2,2,0,0,0,.5-.06l0,1a2.63,2.63,0,0,1-.93.13,1.51,1.51,0,0,1-1.12-.42,2.05,2.05,0,0,1-.4-1.43v-2.4H294v-1h.73v-1.15Z"/><path class="cls-3" d="M299.6,192.77a.72.72,0,1,1-.72-.7A.69.69,0,0,1,299.6,192.77Zm-1.37,6.54V194.2h1.3v5.11Z"/><path class="cls-3" d="M305.78,196.71a2.53,2.53,0,0,1-2.63,2.72,2.47,2.47,0,0,1-2.56-2.64,2.52,2.52,0,0,1,2.65-2.7A2.45,2.45,0,0,1,305.78,196.71Zm-3.86,0c0,1,.49,1.74,1.28,1.74s1.24-.73,1.24-1.76c0-.8-.35-1.71-1.23-1.71S301.92,195.91,301.92,196.76Z"/><path class="cls-3" d="M306.84,195.72c0-.58,0-1.08,0-1.52h1.13l.06.77h0a1.83,1.83,0,0,1,1.62-.88c.89,0,1.82.57,1.82,2.19v3h-1.29v-2.88c0-.74-.28-1.29-1-1.29a1.09,1.09,0,0,0-1,.75,1.38,1.38,0,0,0-.05.42v3h-1.3Z"/><path class="cls-3" d="M141.08,88.91a3.59,3.59,0,0,0,1.71.45c.83,0,1.29-.39,1.29-1s-.36-.85-1.26-1.17c-1.16-.42-1.91-1-1.91-2.06s1-2,2.5-2a3.71,3.71,0,0,1,1.7.36l-.32,1a2.91,2.91,0,0,0-1.4-.34c-.82,0-1.18.44-1.18.85s.41.8,1.36,1.17c1.22.46,1.82,1.08,1.82,2.1s-.86,2.12-2.68,2.12a4.25,4.25,0,0,1-1.92-.44Z"/><path class="cls-3" d="M151.37,87.71a2.54,2.54,0,0,1-2.63,2.72,2.47,2.47,0,0,1-2.56-2.64,2.52,2.52,0,0,1,2.65-2.7A2.45,2.45,0,0,1,151.37,87.71Zm-3.86.05c0,1,.49,1.74,1.28,1.74s1.24-.73,1.24-1.76c0-.8-.35-1.71-1.23-1.71S147.51,86.91,147.51,87.76Z"/><path class="cls-3" d="M156.19,90.16a3.9,3.9,0,0,1-1.45.26,2.46,2.46,0,0,1-2.64-2.6A2.64,2.64,0,0,1,155,85.09a3.2,3.2,0,0,1,1.25.24l-.23,1a2.37,2.37,0,0,0-1-.2,1.66,1.66,0,0,0,0,3.31,2.45,2.45,0,0,0,1-.2Z"/><path class="cls-3" d="M158.52,83.77a.69.69,0,0,1-.74.7.68.68,0,0,1-.71-.7.73.73,0,0,1,1.45,0Zm-1.38,6.54V85.2h1.31v5.11Z"/><path class="cls-3" d="M162.71,90.31l-.09-.56h0a1.89,1.89,0,0,1-1.51.68,1.52,1.52,0,0,1-1.61-1.52c0-1.29,1.15-2,3-1.93v-.09c0-.33-.14-.89-1-.89a2.72,2.72,0,0,0-1.38.38l-.25-.84a3.7,3.7,0,0,1,1.85-.45,1.91,1.91,0,0,1,2.11,2.15v1.85a8.45,8.45,0,0,0,.07,1.22Zm-.17-2.49c-.91,0-1.79.17-1.79,1a.69.69,0,0,0,.74.74,1.06,1.06,0,0,0,1-.71,1,1,0,0,0,0-.28Z"/><path class="cls-3" d="M165.17,82.86h1.3v7.45h-1.3Z"/><path class="cls-3" d="M174.9,87.71a2.53,2.53,0,0,1-2.63,2.72,2.47,2.47,0,0,1-2.56-2.64,2.52,2.52,0,0,1,2.65-2.7A2.45,2.45,0,0,1,174.9,87.71Zm-3.86.05c0,1,.49,1.74,1.28,1.74s1.24-.73,1.24-1.76c0-.8-.35-1.71-1.23-1.71S171,86.91,171,87.76Z"/><path class="cls-3" d="M180.54,88.78c0,.61,0,1.11,0,1.53h-1.14l-.06-.77h0a1.86,1.86,0,0,1-1.64.89c-.93,0-1.78-.56-1.78-2.23v-3h1.29V88c0,.85.27,1.4,1,1.4a1.08,1.08,0,0,0,1-.69,1.29,1.29,0,0,0,.08-.4V85.2h1.29Z"/><path class="cls-3" d="M183.41,83.74V85.2h1.23v1h-1.23v2.25c0,.62.17,1,.67,1a2.06,2.06,0,0,0,.5-.06l0,1a2.63,2.63,0,0,1-.93.13,1.51,1.51,0,0,1-1.12-.42,2.05,2.05,0,0,1-.4-1.43v-2.4h-.73v-1h.73V84.05Z"/><path class="cls-3" d="M185.62,86.85c0-.69,0-1.19,0-1.65h1.12l0,1h0a1.52,1.52,0,0,1,1.4-1.09,1.32,1.32,0,0,1,.3,0v1.21a1.82,1.82,0,0,0-.37,0,1.15,1.15,0,0,0-1.16,1,2.25,2.25,0,0,0,0,.4v2.64h-1.29Z"/><path class="cls-3" d="M190.27,88.12a1.39,1.39,0,0,0,1.57,1.32,3.8,3.8,0,0,0,1.42-.23l.19.89a4.76,4.76,0,0,1-1.78.32A2.42,2.42,0,0,1,189,87.84a2.53,2.53,0,0,1,2.5-2.75,2.21,2.21,0,0,1,2.2,2.48,3.35,3.35,0,0,1,0,.55Zm2.25-.9A1.1,1.1,0,0,0,191.46,86a1.26,1.26,0,0,0-1.19,1.25Z"/><path class="cls-3" d="M197.65,90.31l-.08-.56h0a1.91,1.91,0,0,1-1.52.68,1.52,1.52,0,0,1-1.6-1.52c0-1.29,1.14-2,3-1.93v-.09c0-.33-.13-.89-1-.89a2.69,2.69,0,0,0-1.37.38l-.25-.84a3.63,3.63,0,0,1,1.84-.45,1.91,1.91,0,0,1,2.11,2.15v1.85a7.11,7.11,0,0,0,.08,1.22Zm-.17-2.49c-.91,0-1.78.17-1.78,1a.68.68,0,0,0,.73.74,1,1,0,0,0,1-.71,1,1,0,0,0,0-.28Z"/><path class="cls-3" d="M203.87,90.16a3.9,3.9,0,0,1-1.45.26,2.46,2.46,0,0,1-2.64-2.6,2.64,2.64,0,0,1,2.85-2.73,3.2,3.2,0,0,1,1.25.24l-.23,1a2.37,2.37,0,0,0-1-.2,1.66,1.66,0,0,0,0,3.31,2.45,2.45,0,0,0,1-.2Z"/><path class="cls-3" d="M204.82,82.86h1.31v3h0a1.57,1.57,0,0,1,.64-.58,1.7,1.7,0,0,1,.88-.23c.87,0,1.78.57,1.78,2.21v3h-1.29V87.45c0-.75-.27-1.3-1-1.3a1,1,0,0,0-1,.72,1,1,0,0,0-.05.39v3h-1.31Z"/><path class="cls-3" d="M277,159.13c-.57-.64-1.08-1.24-1.62-1.81a1.41,1.41,0,0,0-.59-.35,24.22,24.22,0,0,1-12.4-8.31,2.49,2.49,0,0,0-.23-.24l-2.52,1.45v-7.68l6.72,3.77-2.7,1.59a22.29,22.29,0,0,0,9.79,7.2,36.86,36.86,0,0,1-5.62-16.17h-8.93a4.34,4.34,0,0,1-.51,0,.82.82,0,0,1,0-1.64,2.9,2.9,0,0,1,.51,0h8.77c0-.65,0-1.25,0-1.86s.16-.95.85-1.09a22.17,22.17,0,0,0,10.45-4.88c.47-.42.89-.9,1.32-1.33-1.27-1.94-1.17-3.73.24-4.94a3.41,3.41,0,0,1,4.68,4.94c.67.62,1.3,1.3,2,1.88A22.5,22.5,0,0,0,297,134a.9.9,0,0,1,.86,1c0,.62,0,1.23,0,1.91h8.52c.19,0,.44-.07.56,0a1.73,1.73,0,0,1,.65.81c.09.44-.25.75-.71.8a11,11,0,0,1-1.15,0h-8.07a36.87,36.87,0,0,1-5.54,16,22.13,22.13,0,0,0,9.45-7l-2.7-1.59,6.73-3.78v7.7L303,148.42c-.1.11-.21.21-.3.32a24,24,0,0,1-11.65,8,2.48,2.48,0,0,0-1.28.87c-.41.51-.88,1-1.36,1.52l3.26,2.76c.76.64,1.51,1.3,2.29,1.93a1.35,1.35,0,0,1,.55,1.15c0,3.47,0,6.93,0,10.4,0,.84-.28,1.11-1.11,1.11q-10.73,0-21.44,0c-.81,0-1.1-.26-1.1-1,0-3.51,0-7,0-10.53a1.7,1.7,0,0,1,.54-1.07C273.26,162.25,275.1,160.72,277,159.13Zm-7.63-23.46c0,.46,0,.86,0,1.26a38.47,38.47,0,0,0,1.38,7.83,30.46,30.46,0,0,0,7.36,13.09,1.44,1.44,0,0,0,1.16.5c2.36,0,4.72,0,7.08,0a1.34,1.34,0,0,0,.88-.36,38.38,38.38,0,0,0,2.58-3,33.85,33.85,0,0,0,6.2-16.9c.08-.79.11-1.59.17-2.4Zm3.29,39.1h20.22c0-3.17,0-6.29,0-9.42a1,1,0,0,0-.37-.61q-2.61-2.25-5.25-4.45a1.35,1.35,0,0,0-.74-.28q-3.76,0-7.52,0a1.17,1.17,0,0,0-.69.23q-2.7,2.25-5.36,4.53a1,1,0,0,0-.32.64c0,3,0,6.08,0,9.12A1,1,0,0,0,272.63,174.77Zm2-40.83h16.42l-.16-.13a19.32,19.32,0,0,1-7-5,5.12,5.12,0,0,0-2.43,0l-.13.15a17.5,17.5,0,0,1-2,1.87C277.79,132,276.14,133,274.64,133.94Zm9.86-8.59a1.79,1.79,0,0,0-3.58,0,1.79,1.79,0,0,0,3.58,0Z"/><path class="cls-3" d="M163.29,35.14l4.11-6,1.34,2.5a23.18,23.18,0,0,1,21.7,2.75l-1,1.29a21.26,21.26,0,0,0-19.91-2.53l1.21,2.42Z"/><path class="cls-3" d="M158.64,47.07h-5.31c-1,0-1.19-.26-1.19-1.23V42.7a4.72,4.72,0,0,1,4.5-5,24.42,24.42,0,0,1,4.36,0,4.69,4.69,0,0,1,4.22,4.73v3.38c0,1-.24,1.19-1.21,1.19Zm4.87-1.67c0-1.12.06-2.19,0-3.25a3,3,0,0,0-2.66-2.78,34.27,34.27,0,0,0-4.3,0,2.86,2.86,0,0,0-2.6,2.34,28.57,28.57,0,0,0,0,3.7Z"/><path class="cls-3" d="M154.81,48.91l1.63.2A19.8,19.8,0,0,0,163.74,67l.79-1.12.79-1.14c1.12,2.19,2.18,4.27,3.3,6.5l-7.45-.5,1.63-2.38A21.37,21.37,0,0,1,154.81,48.91Z"/><path class="cls-3" d="M197.29,55.57l-2.94-.25,4.22-6,3.23,6.5L199,55.68c-1.77,7.61-6.31,12.78-13.43,15.89l-.65-1.5a21,21,0,0,0,8-5.69A19.57,19.57,0,0,0,197.29,55.57Z"/><path class="cls-3" d="M195.59,47.48h-5.41c-.84,0-1.09-.26-1.1-1.1V43.06a4.6,4.6,0,0,1,4-4.82,20.1,20.1,0,0,1,5.14,0A4.59,4.59,0,0,1,202.14,43v3.44c0,.8-.27,1.06-1.08,1.06Zm4.86-1.64c0-1.07.05-2.11,0-3.15a3.1,3.1,0,0,0-3-3q-1.81-.07-3.63,0A3,3,0,0,0,190.92,42a32.66,32.66,0,0,0-.22,3.83Z"/><path class="cls-3" d="M177,77h-5.42c-.84,0-1.08-.24-1.09-1.1V72.47a4.77,4.77,0,0,1,4.74-4.81h.07a27.63,27.63,0,0,1,4.36.13,4.62,4.62,0,0,1,3.89,4.58c0,1.21,0,2.42,0,3.63,0,.75-.3,1-1.07,1Zm4.87-1.62v-3a3.16,3.16,0,0,0-3.07-3.14q-1.78,0-3.57,0a3,3,0,0,0-2.88,2.18,29,29,0,0,0-.27,4Z"/><path class="cls-3" d="M158.64,37.29a3.41,3.41,0,1,1,0-6.81,3.5,3.5,0,0,1,3.5,3.4,3.46,3.46,0,0,1-3.51,3.41Zm0-1.61a1.82,1.82,0,0,0,1.83-1.79v0a1.86,1.86,0,0,0-3.71,0,1.82,1.82,0,0,0,1.84,1.78h0Z"/><path class="cls-3" d="M180.48,63.86a3.5,3.5,0,1,1-3.63-3.37H177A3.44,3.44,0,0,1,180.48,63.86ZM177,62.1a1.8,1.8,0,0,0-1.84,1.77h0A1.83,1.83,0,0,0,177,65.68a1.87,1.87,0,0,0,1.86-1.76A1.82,1.82,0,0,0,177,62.1H177Z"/><path class="cls-3" d="M195.59,30.94a3.45,3.45,0,0,1,3.54,3.37v0a3.54,3.54,0,0,1-7.07,0,3.45,3.45,0,0,1,3.51-3.41Zm0,1.61a1.8,1.8,0,0,0-1.84,1.77v0a1.85,1.85,0,0,0,3.7,0,1.81,1.81,0,0,0-1.83-1.79h0Z"/><path class="cls-3" d="M167.3,249l.38.14a3.46,3.46,0,0,1-1.26,6.79l-.52-.05,1.76,8.58h14.49a.86.86,0,0,1,.82.87.82.82,0,0,1-.8.83,4.87,4.87,0,0,1-.54,0H168l.58,2.78c.34,1.69.7,3.38,1,5.08.08.37.21.53.63.52q6,0,12,0l3.19,0c.95,0,1.11.13,1.37,1q2.08,7.2,4.18,14.4c.06.23.15.45.24.71l4.08-1.36c.86-.28,1-.22,1.56.51v.36c-.24.23-.45.55-.73.65-1.68.6-3.38,1.16-5.08,1.71-.72.24-1.11,0-1.32-.71-.45-1.51-.89-3-1.32-4.52-1-3.51-2-7-3.07-10.53-.05-.19-.23-.45-.39-.48a6.39,6.39,0,0,0-1.17,0c.11.24.17.39.23.53a15.85,15.85,0,0,1-11,21.74c-.81.19-1.64.3-2.46.45h-2.18c-.82-.15-1.65-.27-2.46-.45A15.87,15.87,0,0,1,156.47,274l.31-.46-2.54-1.79,7.22-3.35-.7,7.92-2.54-1.76A13.43,13.43,0,0,0,155.7,280a14.13,14.13,0,1,0,27.8,4.87,14.45,14.45,0,0,0-1.36-8,.83.83,0,0,0-.87-.54c-4,0-7.93,0-11.89,0-.89,0-1.07-.15-1.25-1Q166,265,163.89,254.77c-.12-.61-.45-1.17-.55-1.78a3.46,3.46,0,0,1,2.43-3.83,3.89,3.89,0,0,0,.44-.16Zm1.2,3.5a1.74,1.74,0,1,0-3.48,0,1.75,1.75,0,0,0,1.76,1.76A1.73,1.73,0,0,0,168.5,252.5Z"/><path class="cls-3" d="M63.86,172.81H52V154.45a12.67,12.67,0,0,1,11.54-12.82l.29,0V139H60.66l4.12-7.06,4.12,7H65.72v2.56c.85.17,1.7.3,2.52.52a12.6,12.6,0,0,1,9.3,12.2q0,9,0,17.94v.61H65.69c0,.57,0,1.09,0,1.59,0,.14.26.3.44.37a3.69,3.69,0,0,1,1.78,5.47,3.79,3.79,0,0,1-4.14,1.57A3.74,3.74,0,0,1,61,178.46a3.6,3.6,0,0,1,2.34-3.66c.36-.14.52-.3.49-.7S63.86,173.3,63.86,172.81ZM75.73,171a2.75,2.75,0,0,0,0-.34c0-5.56,0-11.12,0-16.68a10.16,10.16,0,0,0-4-8.16,10.57,10.57,0,0,0-11.7-1.44,10.38,10.38,0,0,0-6.29,9.94c0,5.36,0,10.71,0,16.07V171Zm-11,9.12a1.9,1.9,0,1,0,0-3.8,1.91,1.91,0,0,0-1.9,1.88A1.94,1.94,0,0,0,64.76,180.16Z"/></svg>