<svg id="Layer_1" data-name="Layer 1" xmlns="http://www.w3.org/2000/svg" width="100" height="100" viewBox="0 0 100 100"><title>flexible-pricing</title><path d="M9.39,1.94c.57.14,1.14.27,1.7.43a7.79,7.79,0,0,1,5.74,7.08A7.7,7.7,0,0,1,12,17.14a1.42,1.42,0,0,0-1,1.6Q11,49,11,79.28v1.33H18L9,96.22C7.16,93,5.41,90,3.63,87c-1.18-2-2.42-4-3.63-6v-.24H7c0-.52.06-.84.06-1.15q0-30.49,0-61c0-.88-.37-1.13-1.07-1.42a7.82,7.82,0,0,1,2-15,4.09,4.09,0,0,0,.65-.21ZM5.06,9.88a4,4,0,0,0,3.93,4,4,4,0,0,0,4-4A4,4,0,0,0,9.07,6,4,4,0,0,0,5.06,9.88Z"/><path d="M76.45,50.44a27,27,0,1,1-26.89-27A27,27,0,0,1,76.45,50.44ZM49.5,27.35A23.1,23.1,0,1,0,72.59,50.49,23.13,23.13,0,0,0,49.5,27.35Z"/><path d="M100,19.54H93V20.9q0,30.29,0,60.55a1.35,1.35,0,0,0,1,1.57A7.83,7.83,0,1,1,88,83c.7-.29,1.07-.55,1.07-1.43q0-30.45,0-60.91c0-.31,0-.63,0-1.1H82L91,4ZM91,86.3a4,4,0,1,0,0,7.91,4,4,0,0,0,0-7.91Z"/><path d="M51.23,61.09v3.18h-3.3v-2.8c-1.74-.45-3.33-.83-4.88-1.32a1.21,1.21,0,0,1-.6-1,31.19,31.19,0,0,1,.77-3.1c1.44.41,2.79.89,4.18,1.15a8.71,8.71,0,0,0,2.74-.07c.94-.12,1.82-.7,1.73-1.67a3.54,3.54,0,0,0-1.25-2,8.21,8.21,0,0,0-2-1c-1.06-.47-2.16-.87-3.18-1.42a5.07,5.07,0,0,1-2.94-4.86,5.15,5.15,0,0,1,3.48-5c1.73-.6,2.48-1.43,2.12-3.22a2.15,2.15,0,0,1,.1-.62h3.16V40l4.9,1.13-1,3.77c-1.51-.32-2.89-.69-4.3-.88a4.21,4.21,0,0,0-2.11.26,1.92,1.92,0,0,0-1.12,1.22,2,2,0,0,0,.74,1.58,19.84,19.84,0,0,0,3,1.49c.77.36,1.56.64,2.31,1a5.45,5.45,0,0,1,3.32,5.5,5.8,5.8,0,0,1-3.65,5.22C52.78,60.6,52.08,60.79,51.23,61.09Z"/></svg>