<?xml version="1.0" encoding="utf-8"?>
<!-- Generator: Adobe Illustrator 22.1.0, SVG Export Plug-In . SVG Version: 6.00 Build 0)  -->
<svg version="1.1" xmlns="http://www.w3.org/2000/svg" xmlns:xlink="http://www.w3.org/1999/xlink" x="0px" y="0px" width="350px"
	 height="350px" viewBox="0 0 350 350" style="enable-background:new 0 0 350 350;" xml:space="preserve">
<style type="text/css">
	.st0{fill:#FCDDD6;}
	.st1{fill:#FBC2BA;}
	.st2{fill:#F16C51;}
	.st3{fill:#ECE1CE;}
	.st4{fill:#EAC8A5;}
	.st5{fill:#DF9926;}
	.st6{fill:#D8E7DA;}
	.st7{fill:#A8D7CD;}
	.st8{fill:#00B28F;}
	.st9{fill:#92D1FF;}
	.st10{fill:#0F9FFA;}
	.st11{fill:none;}
	.st12{fill:none;stroke:#FFFFFF;stroke-width:1.5;stroke-miterlimit:10;}
	.st13{display:none;}
	.st14{display:inline;}
	.st15{fill:none;stroke:#061838;stroke-width:0.5887;stroke-miterlimit:10;}
	.st16{fill:none;stroke:#000000;stroke-width:0.1397;stroke-miterlimit:10;}
	.st17{fill:none;stroke:#020204;stroke-width:0.216;stroke-miterlimit:10;}
	.st18{fill:none;stroke:#FFFFFF;stroke-width:1.5;stroke-linejoin:bevel;stroke-miterlimit:10;}
	.st19{fill:#FFFFFF;}
	.st20{fill:none;stroke:#FFFFFF;stroke-width:1.5;stroke-linecap:square;stroke-miterlimit:10;}
	.st21{fill:none;stroke:#FFFFFF;stroke-width:1.4995;stroke-miterlimit:22.9256;}
	.st22{fill:none;stroke:#FFFFFF;stroke-width:1.4992;stroke-miterlimit:22.9256;}
	.st23{fill:none;stroke:#FFFFFF;stroke-width:1.4992;stroke-miterlimit:10;}
	.st24{fill:none;stroke:#FFFFFF;stroke-width:1.4995;stroke-linecap:square;stroke-miterlimit:10;}
	.st25{fill:none;stroke:#FFFFFF;stroke-width:1.4992;}
	.st26{fill:none;stroke:#FFFFFF;stroke-width:1.5001;stroke-linecap:square;stroke-miterlimit:10;}
	.st27{fill:none;stroke:#FFFFFF;stroke-width:1.5;stroke-linejoin:bevel;}
	.st28{fill:none;stroke:#FFFFFF;stroke-width:1.5;stroke-miterlimit:10;stroke-dasharray:5,5;}
</style>
<g id="Layer_3">
	<path class="st0" d="M342.9,175c0,54.5-26,103-66.2,133.6c-2,1.5-4,3-6,4.4c-27.2,18.9-60.1,29.9-95.7,29.9
		c-35.6,0-68.5-11.1-95.7-29.9c-2-1.4-4-2.9-6-4.4C33.1,278,7.1,229.5,7.1,175c0-16.8,2.5-33.1,7.1-48.4c0.7-2.4,1.5-4.7,2.3-7.1
		C39,55.2,99.6,8.7,171.3,7.1c1.2,0,2.5,0,3.7,0c1.2,0,2.5,0,3.7,0C250.4,8.7,311,55.2,333.5,119.6c0.8,2.3,1.6,4.7,2.3,7v0
		C340.4,141.9,342.9,158.2,342.9,175z"/>
	<path class="st1" d="M171.3,0v7.1C99.6,8.7,39,55.2,16.4,119.6l-6.7-2.2c5.6-16,13.5-31.2,23.5-45c10.6-14.7,23.4-27.5,37.9-38.3
		C100.4,12.5,134.9,0.7,171.3,0z"/>
	<path class="st2" d="M171.3,7.1v117.3c-19.2,1.4-35.9,13.5-43.2,31.4L16.4,119.6C39,55.2,99.6,8.7,171.3,7.1z"/>
	<path class="st1" d="M340.3,117.4l-6.7,2.2C311,55.2,250.4,8.7,178.7,7.1V0c36.3,0.7,70.9,12.5,100.1,34.1
		c14.6,10.7,27.3,23.6,37.9,38.3C326.8,86.2,334.7,101.3,340.3,117.4z"/>
	<path class="st2" d="M333.5,119.6l-111.6,36.3c-7.3-17.9-24-30-43.2-31.4V7.1C250.4,8.7,311,55.2,333.5,119.6z"/>
	<path class="st1" d="M73.3,308.6l-4.1,5.7c-20.5-15.6-37.6-35.9-49.5-58.7C6.8,231,0,203.1,0,175c0-17.2,2.5-34.2,7.4-50.5l6.7,2.2
		c-4.6,15.3-7.1,31.6-7.1,48.4C7.1,229.5,33.1,278,73.3,308.6z"/>
	<path class="st2" d="M142.3,213.7l-69,95C33.1,278,7.1,229.5,7.1,175c0-16.8,2.5-33.1,7.1-48.4l111.6,36.3c-1,3.9-1.5,8-1.5,12.1
		C124.3,189.9,131,204.1,142.3,213.7z"/>
	<path class="st1" d="M274.8,318.7C245.5,339.2,211,350,175,350c-36,0-70.4-10.8-99.8-31.3l4.2-5.7c27.1,18.9,60.1,29.9,95.7,29.9
		c35.6,0,68.5-11.1,95.7-29.9L274.8,318.7z"/>
	<path class="st2" d="M270.7,313c-27.2,18.9-60.1,29.9-95.7,29.9c-35.6,0-68.5-11.1-95.7-29.9l69-95c8,5,17.2,7.6,26.7,7.6
		c9.5,0,18.7-2.6,26.7-7.6L270.7,313z"/>
	<path class="st1" d="M350,175c0,28.1-6.8,56-19.7,80.7c-11.9,22.8-29,43.1-49.5,58.7l-4.2-5.7c40.3-30.7,66.2-79.1,66.2-133.6
		c0-16.8-2.5-33.1-7.1-48.4v0l6.7-2.2C347.5,140.8,350,157.8,350,175z"/>
	<path class="st2" d="M342.9,175c0,54.5-26,103-66.2,133.6l-69-95c11.3-9.6,18-23.8,18-38.7c0-4.1-0.5-8.1-1.5-12.1l111.6-36.3
		C340.4,141.9,342.9,158.2,342.9,175z"/>
	<path class="st0" d="M238.2,175c0,20.5-9.8,38.7-24.9,50.3c-0.7,0.6-1.5,1.1-2.3,1.6c-10.2,7.1-22.6,11.3-36,11.3
		c-13.4,0-25.8-4.2-36-11.3c-0.8-0.5-1.5-1.1-2.3-1.6c-15.1-11.5-24.9-29.8-24.9-50.3c0-6.3,0.9-12.4,2.7-18.2
		c0.3-0.9,0.6-1.8,0.9-2.7c8.5-24.2,31.3-41.7,58.2-42.3c0.5,0,0.9,0,1.4,0c0.5,0,0.9,0,1.4,0c27,0.6,49.8,18.1,58.2,42.3
		c0.3,0.9,0.6,1.8,0.9,2.7v0C237.2,162.6,238.2,168.7,238.2,175z"/>
</g>
<g id="Layer_1" class="st13">
	<g class="st14">
		<rect x="216.1" y="28.3" class="st16" width="10" height="10"/>
		<rect x="226.1" y="28.3" class="st16" width="10" height="10"/>
		<rect x="236.1" y="28.3" class="st16" width="10" height="10"/>
		<rect x="246.1" y="28.3" class="st16" width="10" height="10"/>
		<rect x="256.1" y="28.3" class="st16" width="10" height="10"/>
		<rect x="266.1" y="28.3" class="st16" width="10" height="10"/>
		<rect x="216.1" y="38.3" class="st16" width="10" height="10"/>
		<rect x="226.1" y="38.3" class="st16" width="10" height="10"/>
		<rect x="236.1" y="38.3" class="st16" width="10" height="10"/>
		<rect x="246.1" y="38.3" class="st16" width="10" height="10"/>
		<rect x="256.1" y="38.3" class="st16" width="10" height="10"/>
		<rect x="266.1" y="38.3" class="st16" width="10" height="10"/>
		<rect x="216.1" y="48.3" class="st16" width="10" height="10"/>
		<rect x="226.1" y="48.3" class="st16" width="10" height="10"/>
		<rect x="236.1" y="48.3" class="st16" width="10" height="10"/>
		<rect x="246.1" y="48.3" class="st16" width="10" height="10"/>
		<rect x="256.1" y="48.3" class="st16" width="10" height="10"/>
		<rect x="266.1" y="48.3" class="st16" width="10" height="10"/>
		<rect x="216.1" y="58.3" class="st16" width="10" height="10"/>
		<rect x="226.1" y="58.3" class="st16" width="10" height="10"/>
		<rect x="236.1" y="58.3" class="st16" width="10" height="10"/>
		<rect x="246.1" y="58.3" class="st16" width="10" height="10"/>
		<rect x="256.1" y="58.3" class="st16" width="10" height="10"/>
		<rect x="266.1" y="58.3" class="st16" width="10" height="10"/>
		<rect x="216.1" y="68.3" class="st16" width="10" height="10"/>
		<rect x="226.1" y="68.3" class="st16" width="10" height="10"/>
		<rect x="236.1" y="68.3" class="st16" width="10" height="10"/>
		<rect x="246.1" y="68.3" class="st16" width="10" height="10"/>
		<rect x="256.1" y="68.3" class="st16" width="10" height="10"/>
		<rect x="266.1" y="68.3" class="st16" width="10" height="10"/>
		<rect x="216.1" y="78.3" class="st16" width="10" height="10"/>
		<rect x="226.1" y="78.3" class="st16" width="10" height="10"/>
		<rect x="236.1" y="78.3" class="st16" width="10" height="10"/>
		<rect x="246.1" y="78.3" class="st16" width="10" height="10"/>
		<rect x="256.1" y="78.3" class="st16" width="10" height="10"/>
		<rect x="266.1" y="78.3" class="st16" width="10" height="10"/>
		<rect x="216.1" y="88.3" class="st16" width="10" height="10"/>
		<rect x="226.1" y="88.3" class="st16" width="10" height="10"/>
		<rect x="236.1" y="88.3" class="st16" width="10" height="10"/>
		<rect x="246.1" y="88.3" class="st16" width="10" height="10"/>
		<rect x="256.1" y="88.3" class="st16" width="10" height="10"/>
		<rect x="266.1" y="88.3" class="st16" width="10" height="10"/>
	</g>
	<g class="st14">
		<rect x="78.5" y="36.3" class="st16" width="10" height="10"/>
		<rect x="88.5" y="36.3" class="st16" width="10" height="10"/>
		<rect x="98.5" y="36.3" class="st16" width="10" height="10"/>
		<rect x="108.5" y="36.3" class="st16" width="10" height="10"/>
		<rect x="118.5" y="36.3" class="st16" width="10" height="10"/>
		<rect x="128.5" y="36.3" class="st16" width="10" height="10"/>
		<rect x="78.5" y="46.3" class="st16" width="10" height="10"/>
		<rect x="88.5" y="46.3" class="st16" width="10" height="10"/>
		<rect x="98.5" y="46.3" class="st16" width="10" height="10"/>
		<rect x="108.5" y="46.3" class="st16" width="10" height="10"/>
		<rect x="118.5" y="46.3" class="st16" width="10" height="10"/>
		<rect x="128.5" y="46.3" class="st16" width="10" height="10"/>
		<rect x="78.5" y="56.3" class="st16" width="10" height="10"/>
		<rect x="88.5" y="56.3" class="st16" width="10" height="10"/>
		<rect x="98.5" y="56.3" class="st16" width="10" height="10"/>
		<rect x="108.5" y="56.3" class="st16" width="10" height="10"/>
		<rect x="118.5" y="56.3" class="st16" width="10" height="10"/>
		<rect x="128.5" y="56.3" class="st16" width="10" height="10"/>
		<rect x="78.5" y="66.3" class="st16" width="10" height="10"/>
		<rect x="88.5" y="66.3" class="st16" width="10" height="10"/>
		<rect x="98.5" y="66.3" class="st16" width="10" height="10"/>
		<rect x="108.5" y="66.3" class="st16" width="10" height="10"/>
		<rect x="118.5" y="66.3" class="st16" width="10" height="10"/>
		<rect x="128.5" y="66.3" class="st16" width="10" height="10"/>
		<rect x="78.5" y="76.3" class="st16" width="10" height="10"/>
		<rect x="88.5" y="76.3" class="st16" width="10" height="10"/>
		<rect x="98.5" y="76.3" class="st16" width="10" height="10"/>
		<rect x="108.5" y="76.3" class="st16" width="10" height="10"/>
		<rect x="118.5" y="76.3" class="st16" width="10" height="10"/>
		<rect x="128.5" y="76.3" class="st16" width="10" height="10"/>
		<rect x="78.5" y="86.3" class="st16" width="10" height="10"/>
		<rect x="88.5" y="86.3" class="st16" width="10" height="10"/>
		<rect x="98.5" y="86.3" class="st16" width="10" height="10"/>
		<rect x="108.5" y="86.3" class="st16" width="10" height="10"/>
		<rect x="118.5" y="86.3" class="st16" width="10" height="10"/>
		<rect x="128.5" y="86.3" class="st16" width="10" height="10"/>
		<rect x="78.5" y="96.3" class="st16" width="10" height="10"/>
		<rect x="88.5" y="96.3" class="st16" width="10" height="10"/>
		<rect x="98.5" y="96.3" class="st16" width="10" height="10"/>
		<rect x="108.5" y="96.3" class="st16" width="10" height="10"/>
		<rect x="118.5" y="96.3" class="st16" width="10" height="10"/>
		<rect x="128.5" y="96.3" class="st16" width="10" height="10"/>
	</g>
	<g class="st14">
		<rect x="39.5" y="149.9" class="st16" width="10" height="10"/>
		<rect x="49.5" y="149.9" class="st16" width="10" height="10"/>
		<rect x="59.5" y="149.9" class="st16" width="10" height="10"/>
		<rect x="69.5" y="149.9" class="st16" width="10" height="10"/>
		<rect x="79.5" y="149.9" class="st16" width="10" height="10"/>
		<rect x="89.5" y="149.9" class="st16" width="10" height="10"/>
		<rect x="39.5" y="159.9" class="st16" width="10" height="10"/>
		<rect x="49.5" y="159.9" class="st16" width="10" height="10"/>
		<rect x="59.5" y="159.9" class="st16" width="10" height="10"/>
		<rect x="69.5" y="159.9" class="st16" width="10" height="10"/>
		<rect x="79.5" y="159.9" class="st16" width="10" height="10"/>
		<rect x="89.5" y="159.9" class="st16" width="10" height="10"/>
		<rect x="39.5" y="169.9" class="st16" width="10" height="10"/>
		<rect x="49.5" y="169.9" class="st16" width="10" height="10"/>
		<rect x="59.5" y="169.9" class="st16" width="10" height="10"/>
		<rect x="69.5" y="169.9" class="st16" width="10" height="10"/>
		<rect x="79.5" y="169.9" class="st16" width="10" height="10"/>
		<rect x="89.5" y="169.9" class="st16" width="10" height="10"/>
		<rect x="39.5" y="179.9" class="st16" width="10" height="10"/>
		<rect x="49.5" y="179.9" class="st16" width="10" height="10"/>
		<rect x="59.5" y="179.9" class="st16" width="10" height="10"/>
		<rect x="69.5" y="179.9" class="st16" width="10" height="10"/>
		<rect x="79.5" y="179.9" class="st16" width="10" height="10"/>
		<rect x="89.5" y="179.9" class="st16" width="10" height="10"/>
		<rect x="39.5" y="189.9" class="st16" width="10" height="10"/>
		<rect x="49.5" y="189.9" class="st16" width="10" height="10"/>
		<rect x="59.5" y="189.9" class="st16" width="10" height="10"/>
		<rect x="69.5" y="189.9" class="st16" width="10" height="10"/>
		<rect x="79.5" y="189.9" class="st16" width="10" height="10"/>
		<rect x="89.5" y="189.9" class="st16" width="10" height="10"/>
		<rect x="39.5" y="199.9" class="st16" width="10" height="10"/>
		<rect x="49.5" y="199.9" class="st16" width="10" height="10"/>
		<rect x="59.5" y="199.9" class="st16" width="10" height="10"/>
		<rect x="69.5" y="199.9" class="st16" width="10" height="10"/>
		<rect x="79.5" y="199.9" class="st16" width="10" height="10"/>
		<rect x="89.5" y="199.9" class="st16" width="10" height="10"/>
		<rect x="39.5" y="209.9" class="st16" width="10" height="10"/>
		<rect x="49.5" y="209.9" class="st16" width="10" height="10"/>
		<rect x="59.5" y="209.9" class="st16" width="10" height="10"/>
		<rect x="69.5" y="209.9" class="st16" width="10" height="10"/>
		<rect x="79.5" y="209.9" class="st16" width="10" height="10"/>
		<rect x="89.5" y="209.9" class="st16" width="10" height="10"/>
	</g>
	<g class="st14">
		<rect x="140.7" y="236.5" class="st16" width="10" height="10"/>
		<rect x="150.7" y="236.5" class="st16" width="10" height="10"/>
		<rect x="160.7" y="236.5" class="st16" width="10" height="10"/>
		<rect x="170.7" y="236.5" class="st16" width="10" height="10"/>
		<rect x="180.7" y="236.5" class="st16" width="10" height="10"/>
		<rect x="190.7" y="236.5" class="st16" width="10" height="10"/>
		<rect x="140.7" y="246.5" class="st16" width="10" height="10"/>
		<rect x="150.7" y="246.5" class="st16" width="10" height="10"/>
		<rect x="160.7" y="246.5" class="st16" width="10" height="10"/>
		<rect x="170.7" y="246.5" class="st16" width="10" height="10"/>
		<rect x="180.7" y="246.5" class="st16" width="10" height="10"/>
		<rect x="190.7" y="246.5" class="st16" width="10" height="10"/>
		<rect x="140.7" y="256.5" class="st16" width="10" height="10"/>
		<rect x="150.7" y="256.5" class="st16" width="10" height="10"/>
		<rect x="160.7" y="256.5" class="st16" width="10" height="10"/>
		<rect x="170.7" y="256.5" class="st16" width="10" height="10"/>
		<rect x="180.7" y="256.5" class="st16" width="10" height="10"/>
		<rect x="190.7" y="256.5" class="st16" width="10" height="10"/>
		<rect x="140.7" y="266.5" class="st16" width="10" height="10"/>
		<rect x="150.7" y="266.5" class="st16" width="10" height="10"/>
		<rect x="160.7" y="266.5" class="st16" width="10" height="10"/>
		<rect x="170.7" y="266.5" class="st16" width="10" height="10"/>
		<rect x="180.7" y="266.5" class="st16" width="10" height="10"/>
		<rect x="190.7" y="266.5" class="st16" width="10" height="10"/>
		<rect x="140.7" y="276.5" class="st16" width="10" height="10"/>
		<rect x="150.7" y="276.5" class="st16" width="10" height="10"/>
		<rect x="160.7" y="276.5" class="st16" width="10" height="10"/>
		<rect x="170.7" y="276.5" class="st16" width="10" height="10"/>
		<rect x="180.7" y="276.5" class="st16" width="10" height="10"/>
		<rect x="190.7" y="276.5" class="st16" width="10" height="10"/>
		<rect x="140.7" y="286.5" class="st16" width="10" height="10"/>
		<rect x="150.7" y="286.5" class="st16" width="10" height="10"/>
		<rect x="160.7" y="286.5" class="st16" width="10" height="10"/>
		<rect x="170.7" y="286.5" class="st16" width="10" height="10"/>
		<rect x="180.7" y="286.5" class="st16" width="10" height="10"/>
		<rect x="190.7" y="286.5" class="st16" width="10" height="10"/>
		<rect x="140.7" y="296.5" class="st16" width="10" height="10"/>
		<rect x="150.7" y="296.5" class="st16" width="10" height="10"/>
		<rect x="160.7" y="296.5" class="st16" width="10" height="10"/>
		<rect x="170.7" y="296.5" class="st16" width="10" height="10"/>
		<rect x="180.7" y="296.5" class="st16" width="10" height="10"/>
		<rect x="190.7" y="296.5" class="st16" width="10" height="10"/>
	</g>
	<g class="st14">
		<rect x="247.4" y="149.2" class="st16" width="10" height="10"/>
		<rect x="257.4" y="149.2" class="st16" width="10" height="10"/>
		<rect x="267.4" y="149.2" class="st16" width="10" height="10"/>
		<rect x="277.4" y="149.2" class="st16" width="10" height="10"/>
		<rect x="287.4" y="149.2" class="st16" width="10" height="10"/>
		<rect x="297.4" y="149.2" class="st16" width="10" height="10"/>
		<rect x="247.4" y="159.2" class="st16" width="10" height="10"/>
		<rect x="257.4" y="159.2" class="st16" width="10" height="10"/>
		<rect x="267.4" y="159.2" class="st16" width="10" height="10"/>
		<rect x="277.4" y="159.2" class="st16" width="10" height="10"/>
		<rect x="287.4" y="159.2" class="st16" width="10" height="10"/>
		<rect x="297.4" y="159.2" class="st16" width="10" height="10"/>
		<rect x="247.4" y="169.2" class="st16" width="10" height="10"/>
		<rect x="257.4" y="169.2" class="st16" width="10" height="10"/>
		<rect x="267.4" y="169.2" class="st16" width="10" height="10"/>
		<rect x="277.4" y="169.2" class="st16" width="10" height="10"/>
		<rect x="287.4" y="169.2" class="st16" width="10" height="10"/>
		<rect x="297.4" y="169.2" class="st16" width="10" height="10"/>
		<rect x="247.4" y="179.2" class="st16" width="10" height="10"/>
		<rect x="257.4" y="179.2" class="st16" width="10" height="10"/>
		<rect x="267.4" y="179.2" class="st16" width="10" height="10"/>
		<rect x="277.4" y="179.2" class="st16" width="10" height="10"/>
		<rect x="287.4" y="179.2" class="st16" width="10" height="10"/>
		<rect x="297.4" y="179.2" class="st16" width="10" height="10"/>
		<rect x="247.4" y="189.2" class="st16" width="10" height="10"/>
		<rect x="257.4" y="189.2" class="st16" width="10" height="10"/>
		<rect x="267.4" y="189.2" class="st16" width="10" height="10"/>
		<rect x="277.4" y="189.2" class="st16" width="10" height="10"/>
		<rect x="287.4" y="189.2" class="st16" width="10" height="10"/>
		<rect x="297.4" y="189.2" class="st16" width="10" height="10"/>
		<rect x="247.4" y="199.2" class="st16" width="10" height="10"/>
		<rect x="257.4" y="199.2" class="st16" width="10" height="10"/>
		<rect x="267.4" y="199.2" class="st16" width="10" height="10"/>
		<rect x="277.4" y="199.2" class="st16" width="10" height="10"/>
		<rect x="287.4" y="199.2" class="st16" width="10" height="10"/>
		<rect x="297.4" y="199.2" class="st16" width="10" height="10"/>
		<rect x="247.4" y="209.2" class="st16" width="10" height="10"/>
		<rect x="257.4" y="209.2" class="st16" width="10" height="10"/>
		<rect x="267.4" y="209.2" class="st16" width="10" height="10"/>
		<rect x="277.4" y="209.2" class="st16" width="10" height="10"/>
		<rect x="287.4" y="209.2" class="st16" width="10" height="10"/>
		<rect x="297.4" y="209.2" class="st16" width="10" height="10"/>
	</g>
</g>
<g id="Layer_4">
	<g>
		<g>
			<path class="st19" d="M208.2,97.8v7.7h-1.4v-7.7H208.2z"/>
			<path class="st19" d="M209.9,101.6c0-0.6,0-1.2,0-1.7h1.2l0.1,0.8h0c0.2-0.4,0.8-1,1.8-1c1,0,2,0.6,2,2.4v3.3h-1.4v-3.1
				c0-0.8-0.3-1.4-1.1-1.4c-0.6,0-0.9,0.4-1.1,0.8c0,0.1-0.1,0.3-0.1,0.5v3.3h-1.4V101.6z"/>
			<path class="st19" d="M217.9,98.3v1.6h1.3v1h-1.3v2.4c0,0.7,0.2,1,0.7,1c0.2,0,0.4,0,0.5-0.1l0,1.1c-0.2,0.1-0.6,0.1-1,0.1
				c-0.5,0-0.9-0.2-1.2-0.5c-0.3-0.3-0.4-0.8-0.4-1.5V101h-0.8v-1h0.8v-1.3L217.9,98.3z"/>
			<path class="st19" d="M221.2,103.1c0,1,0.8,1.4,1.7,1.4c0.6,0,1.1-0.1,1.5-0.3l0.2,1c-0.5,0.2-1.1,0.3-1.9,0.3
				c-1.8,0-2.9-1.1-2.9-2.8c0-1.5,0.9-3,2.7-3c1.8,0,2.4,1.5,2.4,2.7c0,0.3,0,0.5,0,0.6H221.2z M223.7,102.1c0-0.5-0.2-1.4-1.1-1.4
				c-0.9,0-1.2,0.8-1.3,1.4H223.7z"/>
			<path class="st19" d="M226.1,101.7c0-0.8,0-1.3,0-1.8h1.2l0,1.1h0c0.3-0.8,0.9-1.2,1.5-1.2c0.1,0,0.2,0,0.3,0v1.3
				c-0.1,0-0.2,0-0.4,0c-0.7,0-1.1,0.4-1.3,1.1c0,0.1,0,0.3,0,0.4v2.9h-1.4V101.7z"/>
			<path class="st19" d="M230.2,101.6c0-0.6,0-1.2,0-1.7h1.2l0.1,0.8h0c0.2-0.4,0.8-1,1.8-1c1,0,2,0.6,2,2.4v3.3h-1.4v-3.1
				c0-0.8-0.3-1.4-1.1-1.4c-0.6,0-0.9,0.4-1.1,0.8c0,0.1-0.1,0.3-0.1,0.5v3.3h-1.4V101.6z"/>
			<path class="st19" d="M237.7,103.1c0,1,0.8,1.4,1.7,1.4c0.6,0,1.1-0.1,1.5-0.3l0.2,1c-0.5,0.2-1.1,0.3-1.9,0.3
				c-1.8,0-2.9-1.1-2.9-2.8c0-1.5,0.9-3,2.7-3c1.8,0,2.4,1.5,2.4,2.7c0,0.3,0,0.5,0,0.6H237.7z M240.1,102.1c0-0.5-0.2-1.4-1.1-1.4
				c-0.9,0-1.2,0.8-1.3,1.4H240.1z"/>
			<path class="st19" d="M244.1,98.3v1.6h1.3v1h-1.3v2.4c0,0.7,0.2,1,0.7,1c0.2,0,0.4,0,0.5-0.1l0,1.1c-0.2,0.1-0.6,0.1-1,0.1
				c-0.5,0-0.9-0.2-1.2-0.5c-0.3-0.3-0.4-0.8-0.4-1.5V101H242v-1h0.8v-1.3L244.1,98.3z"/>
			<path class="st19" d="M254.1,102.6c0,2-1.4,2.9-2.8,2.9c-1.6,0-2.8-1.1-2.8-2.9c0-1.8,1.2-2.9,2.9-2.9
				C253,99.8,254.1,101,254.1,102.6z M250,102.7c0,1.1,0.5,1.9,1.4,1.9c0.8,0,1.4-0.8,1.4-1.9c0-0.9-0.4-1.9-1.3-1.9
				C250.4,100.8,250,101.8,250,102.7z"/>
			<path class="st19" d="M255.5,105.5V101h-0.8v-1h0.8v-0.2c0-0.7,0.2-1.4,0.7-1.9c0.4-0.4,1-0.5,1.4-0.5c0.4,0,0.7,0.1,0.9,0.1
				l-0.1,1.1c-0.1-0.1-0.3-0.1-0.6-0.1c-0.7,0-0.9,0.6-0.9,1.3v0.3h1.2v1h-1.2v4.5H255.5z"/>
			<path class="st19" d="M264.7,99h-2.2v-1.2h5.8V99h-2.2v6.5h-1.4V99z"/>
			<path class="st19" d="M269,97.4h1.4v3.3h0c0.2-0.3,0.4-0.5,0.7-0.6c0.3-0.2,0.6-0.3,1-0.3c0.9,0,1.9,0.6,1.9,2.4v3.3h-1.4v-3.1
				c0-0.8-0.3-1.4-1.1-1.4c-0.5,0-0.9,0.4-1.1,0.8c0,0.1-0.1,0.3-0.1,0.4v3.3H269V97.4z"/>
			<path class="st19" d="M277,98.4c0,0.4-0.3,0.8-0.8,0.8c-0.5,0-0.8-0.3-0.8-0.8c0-0.4,0.3-0.8,0.8-0.8
				C276.7,97.6,277,97.9,277,98.4z M275.5,105.5v-5.5h1.4v5.5H275.5z"/>
			<path class="st19" d="M278.5,101.6c0-0.6,0-1.2,0-1.7h1.2l0.1,0.8h0c0.2-0.4,0.8-1,1.8-1c1,0,2,0.6,2,2.4v3.3h-1.4v-3.1
				c0-0.8-0.3-1.4-1.1-1.4c-0.6,0-0.9,0.4-1.1,0.8c0,0.1-0.1,0.3-0.1,0.5v3.3h-1.4V101.6z"/>
			<path class="st19" d="M290,99.9c0,0.4,0,0.8,0,1.6v3.1c0,1.2-0.2,2-0.8,2.5c-0.6,0.5-1.4,0.7-2.1,0.7c-0.7,0-1.5-0.1-1.9-0.4
				l0.3-1.1c0.4,0.2,0.9,0.4,1.6,0.4c0.9,0,1.6-0.5,1.6-1.7v-0.5h0c-0.3,0.5-0.9,0.8-1.6,0.8c-1.4,0-2.4-1.1-2.4-2.7
				c0-1.8,1.2-2.9,2.5-2.9c0.8,0,1.3,0.4,1.6,0.9h0l0.1-0.7H290z M288.6,102.1c0-0.1,0-0.3,0-0.4c-0.1-0.5-0.5-0.9-1.1-0.9
				c-0.8,0-1.4,0.7-1.4,1.8c0,0.9,0.5,1.7,1.4,1.7c0.5,0,1-0.3,1.1-0.8c0-0.1,0.1-0.3,0.1-0.5V102.1z"/>
			<path class="st19" d="M291.4,104.2c0.3,0.2,0.9,0.4,1.4,0.4c0.6,0,0.9-0.3,0.9-0.6c0-0.4-0.2-0.6-0.9-0.8c-1.1-0.4-1.5-1-1.5-1.6
				c0-1,0.8-1.7,2.1-1.7c0.6,0,1.1,0.2,1.5,0.3l-0.3,1c-0.2-0.1-0.7-0.3-1.2-0.3c-0.5,0-0.8,0.2-0.8,0.6c0,0.4,0.3,0.5,1,0.8
				c1,0.4,1.5,0.9,1.5,1.7c0,1-0.8,1.7-2.3,1.7c-0.7,0-1.3-0.2-1.7-0.4L291.4,104.2z"/>
			<path class="st19" d="M215.7,109.2c-0.7,1.1-1.3,2.6-1.3,4.6c0,2,0.6,3.5,1.3,4.6h-1c-0.6-0.9-1.4-2.4-1.4-4.6
				c0-2.2,0.7-3.7,1.4-4.6H215.7z"/>
			<path class="st19" d="M218.3,110c0,0.4-0.3,0.8-0.8,0.8c-0.5,0-0.8-0.3-0.8-0.8c0-0.4,0.3-0.8,0.8-0.8
				C218,109.3,218.3,109.6,218.3,110z M216.8,117.1v-5.5h1.4v5.5H216.8z"/>
			<path class="st19" d="M225,114.3c0,2-1.4,2.9-2.8,2.9c-1.6,0-2.8-1.1-2.8-2.9c0-1.8,1.2-2.9,2.9-2.9
				C223.9,111.5,225,112.6,225,114.3z M220.8,114.4c0,1.1,0.5,1.9,1.4,1.9c0.8,0,1.4-0.8,1.4-1.9c0-0.9-0.4-1.9-1.3-1.9
				C221.2,112.5,220.8,113.4,220.8,114.4z"/>
			<path class="st19" d="M227.1,110.6H225v-1.2h5.8v1.2h-2.2v6.5h-1.4V110.6z"/>
			<path class="st19" d="M231.7,118.5c0.7-1.1,1.3-2.6,1.3-4.6s-0.6-3.5-1.3-4.6h1c0.7,0.9,1.4,2.4,1.4,4.6c0,2.2-0.7,3.7-1.4,4.6
				H231.7z"/>
			<path class="st19" d="M238.9,114.8c0,1,0.8,1.4,1.7,1.4c0.6,0,1.1-0.1,1.5-0.3l0.2,1c-0.5,0.2-1.1,0.3-1.9,0.3
				c-1.8,0-2.9-1.1-2.9-2.8c0-1.5,0.9-3,2.7-3c1.8,0,2.4,1.5,2.4,2.7c0,0.3,0,0.5,0,0.6H238.9z M241.3,113.8c0-0.5-0.2-1.4-1.1-1.4
				c-0.9,0-1.2,0.8-1.3,1.4H241.3z"/>
			<path class="st19" d="M247.8,117c-0.3,0.1-0.9,0.3-1.6,0.3c-1.7,0-2.9-1.1-2.9-2.8c0-1.7,1.1-3,3.1-3c0.5,0,1,0.1,1.4,0.3l-0.3,1
				c-0.2-0.1-0.6-0.2-1.1-0.2c-1.1,0-1.7,0.8-1.7,1.8c0,1.1,0.7,1.8,1.7,1.8c0.5,0,0.8-0.1,1.1-0.2L247.8,117z"/>
			<path class="st19" d="M254,114.3c0,2-1.4,2.9-2.8,2.9c-1.6,0-2.8-1.1-2.8-2.9c0-1.8,1.2-2.9,2.9-2.9
				C252.9,111.5,254,112.6,254,114.3z M249.8,114.4c0,1.1,0.5,1.9,1.4,1.9c0.8,0,1.4-0.8,1.4-1.9c0-0.9-0.4-1.9-1.3-1.9
				C250.2,112.5,249.8,113.4,249.8,114.4z"/>
			<path class="st19" d="M255.1,115.8c0.3,0.2,0.9,0.4,1.4,0.4c0.6,0,0.9-0.3,0.9-0.6c0-0.4-0.2-0.6-0.9-0.8c-1.1-0.4-1.5-1-1.5-1.6
				c0-1,0.8-1.7,2.1-1.7c0.6,0,1.1,0.2,1.5,0.3l-0.3,1c-0.2-0.1-0.7-0.3-1.2-0.3c-0.5,0-0.8,0.2-0.8,0.6c0,0.4,0.3,0.5,1,0.8
				c1,0.4,1.5,0.9,1.5,1.7c0,1-0.8,1.7-2.3,1.7c-0.7,0-1.3-0.2-1.7-0.4L255.1,115.8z"/>
			<path class="st19" d="M260.8,111.6l1,3c0.1,0.3,0.2,0.8,0.3,1.1h0c0.1-0.3,0.2-0.7,0.3-1.1l0.9-3h1.5l-1.4,3.8
				c-0.8,2.1-1.3,3-1.9,3.6c-0.5,0.5-1.1,0.7-1.5,0.7l-0.3-1.2c0.2-0.1,0.5-0.2,0.8-0.4c0.3-0.2,0.6-0.5,0.8-0.9
				c0.1-0.1,0.1-0.2,0.1-0.3c0-0.1,0-0.1-0.1-0.3l-2-5.1H260.8z"/>
			<path class="st19" d="M265.4,115.8c0.3,0.2,0.9,0.4,1.4,0.4c0.6,0,0.9-0.3,0.9-0.6c0-0.4-0.2-0.6-0.9-0.8c-1.1-0.4-1.5-1-1.5-1.6
				c0-1,0.8-1.7,2.1-1.7c0.6,0,1.1,0.2,1.5,0.3l-0.3,1c-0.2-0.1-0.7-0.3-1.2-0.3c-0.5,0-0.8,0.2-0.8,0.6c0,0.4,0.3,0.5,1,0.8
				c1,0.4,1.5,0.9,1.5,1.7c0,1-0.8,1.7-2.3,1.7c-0.7,0-1.3-0.2-1.7-0.4L265.4,115.8z"/>
			<path class="st19" d="M271.8,110v1.6h1.3v1h-1.3v2.4c0,0.7,0.2,1,0.7,1c0.2,0,0.4,0,0.5-0.1l0,1.1c-0.2,0.1-0.6,0.1-1,0.1
				c-0.5,0-0.9-0.2-1.2-0.5c-0.3-0.3-0.4-0.8-0.4-1.5v-2.6h-0.8v-1h0.8v-1.3L271.8,110z"/>
			<path class="st19" d="M275.1,114.8c0,1,0.8,1.4,1.7,1.4c0.6,0,1.1-0.1,1.5-0.3l0.2,1c-0.5,0.2-1.1,0.3-1.9,0.3
				c-1.8,0-2.9-1.1-2.9-2.8c0-1.5,0.9-3,2.7-3c1.8,0,2.4,1.5,2.4,2.7c0,0.3,0,0.5,0,0.6H275.1z M277.5,113.8c0-0.5-0.2-1.4-1.1-1.4
				c-0.9,0-1.2,0.8-1.3,1.4H277.5z"/>
			<path class="st19" d="M280,113.2c0-0.6,0-1.2,0-1.7h1.2l0.1,0.8h0c0.3-0.4,0.8-0.9,1.7-0.9c0.7,0,1.3,0.4,1.5,1h0
				c0.2-0.3,0.4-0.5,0.7-0.7c0.3-0.2,0.7-0.3,1.1-0.3c0.9,0,1.9,0.6,1.9,2.4v3.3h-1.4v-3.1c0-0.9-0.3-1.5-1-1.5
				c-0.5,0-0.8,0.3-1,0.7c0,0.1-0.1,0.3-0.1,0.5v3.3h-1.4v-3.2c0-0.8-0.3-1.3-1-1.3c-0.5,0-0.9,0.4-1,0.8c-0.1,0.1-0.1,0.3-0.1,0.5
				v3.3H280V113.2z"/>
		</g>
		<g>
			<path class="st19" d="M89.6,107.6c0.5,0.3,1.1,0.5,1.9,0.5c0.9,0,1.4-0.4,1.4-1c0-0.6-0.4-0.9-1.4-1.3c-1.3-0.5-2.1-1.1-2.1-2.2
				c0-1.3,1-2.2,2.7-2.2c0.8,0,1.4,0.2,1.8,0.4l-0.3,1.1c-0.3-0.1-0.8-0.4-1.5-0.4c-0.9,0-1.3,0.5-1.3,0.9c0,0.6,0.4,0.9,1.5,1.3
				c1.3,0.5,2,1.2,2,2.3c0,1.2-0.9,2.3-2.9,2.3c-0.8,0-1.6-0.2-2.1-0.5L89.6,107.6z"/>
			<path class="st19" d="M95.4,101.1h1.4v3.3h0c0.2-0.3,0.4-0.5,0.7-0.6c0.3-0.2,0.6-0.3,1-0.3c0.9,0,1.9,0.6,1.9,2.4v3.3H99V106
				c0-0.8-0.3-1.4-1.1-1.4c-0.5,0-0.9,0.4-1.1,0.8c0,0.1-0.1,0.3-0.1,0.4v3.3h-1.4V101.1z"/>
			<path class="st19" d="M105,109.1l-0.1-0.6h0c-0.3,0.4-0.9,0.7-1.6,0.7c-1.1,0-1.7-0.8-1.7-1.7c0-1.4,1.2-2.1,3.3-2.1v-0.1
				c0-0.4-0.1-1-1.1-1c-0.5,0-1.1,0.2-1.5,0.4l-0.3-0.9c0.4-0.3,1.1-0.5,2-0.5c1.8,0,2.3,1.1,2.3,2.3v2c0,0.5,0,1,0.1,1.3H105z
				 M104.8,106.4c-1,0-1.9,0.2-1.9,1c0,0.5,0.4,0.8,0.8,0.8c0.6,0,1-0.4,1.1-0.8c0-0.1,0-0.2,0-0.3V106.4z"/>
			<path class="st19" d="M107.7,105.4c0-0.8,0-1.3,0-1.8h1.2l0,1.1h0c0.3-0.8,0.9-1.2,1.5-1.2c0.1,0,0.2,0,0.3,0v1.3
				c-0.1,0-0.2,0-0.4,0c-0.7,0-1.1,0.4-1.3,1.1c0,0.1,0,0.3,0,0.4v2.9h-1.4V105.4z"/>
			<path class="st19" d="M112.6,106.8c0,1,0.8,1.4,1.7,1.4c0.6,0,1.1-0.1,1.5-0.3l0.2,1c-0.5,0.2-1.1,0.3-1.9,0.3
				c-1.8,0-2.9-1.1-2.9-2.8c0-1.5,0.9-3,2.7-3c1.8,0,2.4,1.5,2.4,2.7c0,0.3,0,0.5,0,0.6H112.6z M115.1,105.8c0-0.5-0.2-1.4-1.1-1.4
				c-0.9,0-1.2,0.8-1.3,1.4H115.1z"/>
			<path class="st19" d="M122.6,101.1v6.5c0,0.6,0,1.2,0,1.6h-1.3l-0.1-0.9h0c-0.3,0.6-1,1-1.8,1c-1.3,0-2.4-1.1-2.4-2.8
				c0-1.9,1.1-3,2.5-3c0.8,0,1.3,0.3,1.6,0.7h0v-3.1H122.6z M121.2,105.9c0-0.1,0-0.3,0-0.4c-0.1-0.5-0.6-1-1.2-1
				c-0.9,0-1.4,0.8-1.4,1.8c0,1,0.5,1.8,1.4,1.8c0.6,0,1.1-0.4,1.2-1c0-0.1,0-0.3,0-0.4V105.9z"/>
			<path class="st19" d="M90.9,112.7h1.4v8.1h-1.4V112.7z"/>
			<path class="st19" d="M94.8,118.4c0,1,0.8,1.4,1.7,1.4c0.6,0,1.1-0.1,1.5-0.3l0.2,1c-0.5,0.2-1.1,0.3-1.9,0.3
				c-1.8,0-2.9-1.1-2.9-2.8c0-1.5,0.9-3,2.7-3c1.8,0,2.4,1.5,2.4,2.7c0,0.3,0,0.5,0,0.6H94.8z M97.2,117.5c0-0.5-0.2-1.4-1.1-1.4
				c-0.9,0-1.2,0.8-1.3,1.4H97.2z"/>
			<path class="st19" d="M104.8,112.7v6.5c0,0.6,0,1.2,0,1.6h-1.3l-0.1-0.9h0c-0.3,0.6-1,1-1.8,1c-1.3,0-2.4-1.1-2.4-2.8
				c0-1.9,1.1-3,2.5-3c0.8,0,1.3,0.3,1.6,0.7h0v-3.1H104.8z M103.4,117.6c0-0.1,0-0.3,0-0.4c-0.1-0.5-0.6-1-1.2-1
				c-0.9,0-1.4,0.8-1.4,1.8c0,1,0.5,1.8,1.4,1.8c0.6,0,1.1-0.4,1.2-1c0-0.1,0-0.3,0-0.4V117.6z"/>
			<path class="st19" d="M111.4,115.3c0,0.4,0,0.8,0,1.6v3.1c0,1.2-0.2,2-0.8,2.5c-0.6,0.5-1.4,0.7-2.1,0.7c-0.7,0-1.5-0.1-1.9-0.4
				l0.3-1.1c0.4,0.2,0.9,0.4,1.6,0.4c0.9,0,1.6-0.5,1.6-1.7V120h0c-0.3,0.5-0.9,0.8-1.6,0.8c-1.4,0-2.4-1.1-2.4-2.7
				c0-1.8,1.2-2.9,2.5-2.9c0.8,0,1.3,0.4,1.6,0.9h0l0.1-0.7H111.4z M109.9,117.5c0-0.1,0-0.3,0-0.4c-0.1-0.5-0.5-0.9-1.1-0.9
				c-0.8,0-1.4,0.7-1.4,1.8c0,0.9,0.5,1.7,1.4,1.7c0.5,0,1-0.3,1.1-0.8c0-0.1,0.1-0.3,0.1-0.5V117.5z"/>
			<path class="st19" d="M113.8,118.4c0,1,0.8,1.4,1.7,1.4c0.6,0,1.1-0.1,1.5-0.3l0.2,1c-0.5,0.2-1.1,0.3-1.9,0.3
				c-1.8,0-2.9-1.1-2.9-2.8c0-1.5,0.9-3,2.7-3c1.8,0,2.4,1.5,2.4,2.7c0,0.3,0,0.5,0,0.6H113.8z M116.2,117.5c0-0.5-0.2-1.4-1.1-1.4
				c-0.9,0-1.2,0.8-1.3,1.4H116.2z"/>
			<path class="st19" d="M118.7,117.1c0-0.8,0-1.3,0-1.8h1.2l0,1.1h0c0.3-0.8,0.9-1.2,1.5-1.2c0.1,0,0.2,0,0.3,0v1.3
				c-0.1,0-0.2,0-0.4,0c-0.7,0-1.1,0.4-1.3,1.1c0,0.1,0,0.3,0,0.4v2.9h-1.4V117.1z"/>
		</g>
		<g>
			<path class="st19" d="M38.3,218.6c0.5-0.1,1.2-0.2,2.1-0.2c1,0,1.8,0.2,2.3,0.6c0.5,0.4,0.8,1,0.8,1.7c0,0.7-0.2,1.3-0.7,1.7
				c-0.6,0.6-1.4,0.8-2.4,0.8c-0.3,0-0.5,0-0.7,0v2.9h-1.4V218.6z M39.7,222.1c0.2,0,0.4,0.1,0.7,0.1c1,0,1.7-0.5,1.7-1.4
				c0-0.9-0.6-1.3-1.6-1.3c-0.4,0-0.7,0-0.8,0.1V222.1z"/>
			<path class="st19" d="M44.5,222.4c0-0.8,0-1.3,0-1.8h1.2l0,1.1h0c0.3-0.8,0.9-1.2,1.5-1.2c0.1,0,0.2,0,0.3,0v1.3
				c-0.1,0-0.2,0-0.4,0c-0.7,0-1.1,0.4-1.3,1.1c0,0.1,0,0.3,0,0.4v2.9h-1.4V222.4z"/>
			<path class="st19" d="M53.7,223.3c0,2-1.4,2.9-2.8,2.9c-1.6,0-2.8-1.1-2.8-2.9c0-1.8,1.2-2.9,2.9-2.9
				C52.6,220.5,53.7,221.6,53.7,223.3z M49.5,223.4c0,1.1,0.5,1.9,1.4,1.9c0.8,0,1.4-0.8,1.4-1.9c0-0.9-0.4-1.9-1.3-1.9
				C49.9,221.5,49.5,222.5,49.5,223.4z"/>
			<path class="st19" d="M59.9,218.1v6.5c0,0.6,0,1.2,0,1.6h-1.3l-0.1-0.9h0c-0.3,0.6-1,1-1.8,1c-1.3,0-2.4-1.1-2.4-2.8
				c0-1.9,1.1-3,2.5-3c0.8,0,1.3,0.3,1.6,0.7h0v-3.1H59.9z M58.5,222.9c0-0.1,0-0.3,0-0.4c-0.1-0.5-0.6-1-1.2-1
				c-0.9,0-1.4,0.8-1.4,1.8c0,1,0.5,1.8,1.4,1.8c0.6,0,1.1-0.4,1.2-1c0-0.1,0-0.3,0-0.4V222.9z"/>
			<path class="st19" d="M66.4,224.5c0,0.7,0,1.2,0,1.7h-1.2l-0.1-0.8h0c-0.2,0.4-0.8,1-1.8,1c-1,0-1.9-0.6-1.9-2.4v-3.3h1.4v3
				c0,0.9,0.3,1.5,1,1.5c0.6,0,0.9-0.4,1.1-0.8c0-0.1,0.1-0.3,0.1-0.4v-3.3h1.4V224.5z"/>
			<path class="st19" d="M72,226c-0.3,0.1-0.9,0.3-1.6,0.3c-1.7,0-2.9-1.1-2.9-2.8c0-1.7,1.1-3,3.1-3c0.5,0,1,0.1,1.4,0.3l-0.3,1
				c-0.2-0.1-0.6-0.2-1.1-0.2c-1.1,0-1.7,0.8-1.7,1.8c0,1.1,0.7,1.8,1.7,1.8c0.5,0,0.8-0.1,1.1-0.2L72,226z"/>
			<path class="st19" d="M74.8,219v1.6h1.3v1h-1.3v2.4c0,0.7,0.2,1,0.7,1c0.2,0,0.4,0,0.5-0.1l0,1.1c-0.2,0.1-0.6,0.1-1,0.1
				c-0.5,0-0.9-0.2-1.2-0.5c-0.3-0.3-0.4-0.8-0.4-1.5v-2.6h-0.8v-1h0.8v-1.3L74.8,219z"/>
			<path class="st19" d="M79.5,222.4c0-0.8,0-1.3,0-1.8h1.2l0,1.1h0c0.3-0.8,0.9-1.2,1.5-1.2c0.1,0,0.2,0,0.3,0v1.3
				c-0.1,0-0.2,0-0.4,0c-0.7,0-1.1,0.4-1.3,1.1c0,0.1,0,0.3,0,0.4v2.9h-1.4V222.4z"/>
			<path class="st19" d="M84.5,223.8c0,1,0.8,1.4,1.7,1.4c0.6,0,1.1-0.1,1.5-0.3l0.2,1c-0.5,0.2-1.1,0.3-1.9,0.3
				c-1.8,0-2.9-1.1-2.9-2.8c0-1.5,0.9-3,2.7-3c1.8,0,2.4,1.5,2.4,2.7c0,0.3,0,0.5,0,0.6H84.5z M86.9,222.8c0-0.5-0.2-1.4-1.1-1.4
				c-0.9,0-1.2,0.8-1.3,1.4H86.9z"/>
			<path class="st19" d="M93.4,226c-0.3,0.1-0.9,0.3-1.6,0.3c-1.7,0-2.9-1.1-2.9-2.8c0-1.7,1.1-3,3.1-3c0.5,0,1,0.1,1.4,0.3l-0.3,1
				c-0.2-0.1-0.6-0.2-1.1-0.2c-1.1,0-1.7,0.8-1.7,1.8c0,1.1,0.7,1.8,1.7,1.8c0.5,0,0.8-0.1,1.1-0.2L93.4,226z"/>
			<path class="st19" d="M97.6,226.1l-0.1-0.6h0c-0.3,0.4-0.9,0.7-1.6,0.7c-1.1,0-1.7-0.8-1.7-1.7c0-1.4,1.2-2.1,3.3-2.1v-0.1
				c0-0.4-0.1-1-1.1-1c-0.5,0-1.1,0.2-1.5,0.4l-0.3-0.9c0.4-0.3,1.1-0.5,2-0.5c1.8,0,2.3,1.1,2.3,2.3v2c0,0.5,0,1,0.1,1.3H97.6z
				 M97.4,223.4c-1,0-1.9,0.2-1.9,1c0,0.5,0.4,0.8,0.8,0.8c0.6,0,1-0.4,1.1-0.8c0-0.1,0-0.2,0-0.3V223.4z"/>
			<path class="st19" d="M100.2,218.1h1.4v8.1h-1.4V218.1z"/>
			<path class="st19" d="M103.1,218.1h1.4v8.1h-1.4V218.1z"/>
			<path class="st19" d="M50.8,237.8l-0.1-0.6h0c-0.3,0.4-0.9,0.7-1.6,0.7c-1.1,0-1.7-0.8-1.7-1.7c0-1.4,1.2-2.1,3.3-2.1v-0.1
				c0-0.4-0.1-1-1.1-1c-0.5,0-1.1,0.2-1.5,0.4l-0.3-0.9c0.4-0.3,1.1-0.5,2-0.5c1.8,0,2.3,1.1,2.3,2.3v2c0,0.5,0,1,0.1,1.3H50.8z
				 M50.6,235.1c-1,0-1.9,0.2-1.9,1c0,0.5,0.4,0.8,0.8,0.8c0.6,0,1-0.4,1.1-0.8c0-0.1,0-0.2,0-0.3V235.1z"/>
			<path class="st19" d="M53.4,233.9c0-0.6,0-1.2,0-1.7h1.2l0.1,0.8h0c0.2-0.4,0.8-1,1.8-1c1,0,2,0.6,2,2.4v3.3H57v-3.1
				c0-0.8-0.3-1.4-1.1-1.4c-0.6,0-0.9,0.4-1.1,0.8c0,0.1-0.1,0.3-0.1,0.5v3.3h-1.4V233.9z"/>
			<path class="st19" d="M65,229.7v6.5c0,0.6,0,1.2,0,1.6h-1.3l-0.1-0.9h0c-0.3,0.6-1,1-1.8,1c-1.3,0-2.4-1.1-2.4-2.8
				c0-1.9,1.1-3,2.5-3c0.8,0,1.3,0.3,1.6,0.7h0v-3.1H65z M63.6,234.6c0-0.1,0-0.3,0-0.4c-0.1-0.5-0.6-1-1.2-1
				c-0.9,0-1.4,0.8-1.4,1.8c0,1,0.5,1.8,1.4,1.8c0.6,0,1.1-0.4,1.2-1c0-0.1,0-0.3,0-0.4V234.6z"/>
			<path class="st19" d="M69.9,235.4c0,1,0.8,1.4,1.7,1.4c0.6,0,1.1-0.1,1.5-0.3l0.2,1c-0.5,0.2-1.1,0.3-1.9,0.3
				c-1.8,0-2.9-1.1-2.9-2.8c0-1.5,0.9-3,2.7-3c1.8,0,2.4,1.5,2.4,2.7c0,0.3,0,0.5,0,0.6H69.9z M72.3,234.5c0-0.5-0.2-1.4-1.1-1.4
				c-0.9,0-1.2,0.8-1.3,1.4H72.3z"/>
			<path class="st19" d="M75.6,232.3l0.9,2.8c0.2,0.5,0.3,0.9,0.4,1.4h0c0.1-0.5,0.2-0.9,0.4-1.4l0.9-2.8h1.5l-2.1,5.5h-1.4
				l-2.1-5.5H75.6z"/>
			<path class="st19" d="M81.3,235.4c0,1,0.8,1.4,1.7,1.4c0.6,0,1.1-0.1,1.5-0.3l0.2,1c-0.5,0.2-1.1,0.3-1.9,0.3
				c-1.8,0-2.9-1.1-2.9-2.8c0-1.5,0.9-3,2.7-3c1.8,0,2.4,1.5,2.4,2.7c0,0.3,0,0.5,0,0.6H81.3z M83.8,234.5c0-0.5-0.2-1.4-1.1-1.4
				c-0.9,0-1.2,0.8-1.3,1.4H83.8z"/>
			<path class="st19" d="M86.2,233.9c0-0.6,0-1.2,0-1.7h1.2l0.1,0.8h0c0.2-0.4,0.8-1,1.8-1c1,0,2,0.6,2,2.4v3.3h-1.4v-3.1
				c0-0.8-0.3-1.4-1.1-1.4c-0.6,0-0.9,0.4-1.1,0.8c0,0.1-0.1,0.3-0.1,0.5v3.3h-1.4V233.9z"/>
			<path class="st19" d="M94.3,230.7v1.6h1.3v1h-1.3v2.4c0,0.7,0.2,1,0.7,1c0.2,0,0.4,0,0.5-0.1l0,1.1c-0.2,0.1-0.6,0.1-1,0.1
				c-0.5,0-0.9-0.2-1.2-0.5c-0.3-0.3-0.4-0.8-0.4-1.5v-2.6h-0.8v-1h0.8V231L94.3,230.7z"/>
			<path class="st19" d="M39.1,245.6c0-0.6,0-1.2,0-1.7h1.2l0.1,0.8h0c0.3-0.4,0.8-0.9,1.7-0.9c0.7,0,1.3,0.4,1.5,1h0
				c0.2-0.3,0.4-0.5,0.7-0.7c0.3-0.2,0.7-0.3,1.1-0.3c0.9,0,1.9,0.6,1.9,2.4v3.3h-1.4v-3.1c0-0.9-0.3-1.5-1-1.5
				c-0.5,0-0.8,0.3-1,0.7c0,0.1-0.1,0.3-0.1,0.5v3.3h-1.4v-3.2c0-0.8-0.3-1.3-1-1.3c-0.5,0-0.9,0.4-1,0.8c-0.1,0.1-0.1,0.3-0.1,0.5
				v3.3h-1.4V245.6z"/>
			<path class="st19" d="M51.9,249.5l-0.1-0.6h0c-0.3,0.4-0.9,0.7-1.6,0.7c-1.1,0-1.7-0.8-1.7-1.7c0-1.4,1.2-2.1,3.3-2.1v-0.1
				c0-0.4-0.1-1-1.1-1c-0.5,0-1.1,0.2-1.5,0.4l-0.3-0.9c0.4-0.3,1.1-0.5,2-0.5c1.8,0,2.3,1.1,2.3,2.3v2c0,0.5,0,1,0.1,1.3H51.9z
				 M51.7,246.8c-1,0-1.9,0.2-1.9,1c0,0.5,0.4,0.8,0.8,0.8c0.6,0,1-0.4,1.1-0.8c0-0.1,0-0.2,0-0.3V246.8z"/>
			<path class="st19" d="M54.5,245.6c0-0.6,0-1.2,0-1.7h1.2l0.1,0.8h0c0.2-0.4,0.8-1,1.8-1c1,0,2,0.6,2,2.4v3.3h-1.4v-3.1
				c0-0.8-0.3-1.4-1.1-1.4c-0.6,0-0.9,0.4-1.1,0.8c0,0.1-0.1,0.3-0.1,0.5v3.3h-1.4V245.6z"/>
			<path class="st19" d="M64.2,249.5l-0.1-0.6h0c-0.3,0.4-0.9,0.7-1.6,0.7c-1.1,0-1.7-0.8-1.7-1.7c0-1.4,1.2-2.1,3.3-2.1v-0.1
				c0-0.4-0.1-1-1.1-1c-0.5,0-1.1,0.2-1.5,0.4l-0.3-0.9c0.4-0.3,1.1-0.5,2-0.5c1.8,0,2.3,1.1,2.3,2.3v2c0,0.5,0,1,0.1,1.3H64.2z
				 M64,246.8c-1,0-1.9,0.2-1.9,1c0,0.5,0.4,0.8,0.8,0.8c0.6,0,1-0.4,1.1-0.8c0-0.1,0-0.2,0-0.3V246.8z"/>
			<path class="st19" d="M71.9,243.9c0,0.4,0,0.8,0,1.6v3.1c0,1.2-0.2,2-0.8,2.5c-0.6,0.5-1.4,0.7-2.1,0.7c-0.7,0-1.5-0.1-1.9-0.4
				l0.3-1.1c0.4,0.2,0.9,0.4,1.6,0.4c0.9,0,1.6-0.5,1.6-1.7v-0.5h0c-0.3,0.5-0.9,0.8-1.6,0.8c-1.4,0-2.4-1.1-2.4-2.7
				c0-1.8,1.2-2.9,2.5-2.9c0.8,0,1.3,0.4,1.6,0.9h0l0.1-0.7H71.9z M70.4,246.2c0-0.1,0-0.3,0-0.4c-0.1-0.5-0.5-0.9-1.1-0.9
				c-0.8,0-1.4,0.7-1.4,1.8c0,0.9,0.5,1.7,1.4,1.7c0.5,0,1-0.3,1.1-0.8c0-0.1,0.1-0.3,0.1-0.5V246.2z"/>
			<path class="st19" d="M74.3,247.1c0,1,0.8,1.4,1.7,1.4c0.6,0,1.1-0.1,1.5-0.3l0.2,1c-0.5,0.2-1.1,0.3-1.9,0.3
				c-1.8,0-2.9-1.1-2.9-2.8c0-1.5,0.9-3,2.7-3c1.8,0,2.4,1.5,2.4,2.7c0,0.3,0,0.5,0,0.6H74.3z M76.8,246.1c0-0.5-0.2-1.4-1.1-1.4
				c-0.9,0-1.2,0.8-1.3,1.4H76.8z"/>
			<path class="st19" d="M79.2,245.6c0-0.6,0-1.2,0-1.7h1.2l0.1,0.8h0c0.3-0.4,0.8-0.9,1.7-0.9c0.7,0,1.3,0.4,1.5,1h0
				c0.2-0.3,0.4-0.5,0.7-0.7c0.3-0.2,0.7-0.3,1.1-0.3c0.9,0,1.9,0.6,1.9,2.4v3.3H86v-3.1c0-0.9-0.3-1.5-1-1.5c-0.5,0-0.8,0.3-1,0.7
				c0,0.1-0.1,0.3-0.1,0.5v3.3h-1.4v-3.2c0-0.8-0.3-1.3-1-1.3c-0.5,0-0.9,0.4-1,0.8c-0.1,0.1-0.1,0.3-0.1,0.5v3.3h-1.4V245.6z"/>
			<path class="st19" d="M89.9,247.1c0,1,0.8,1.4,1.7,1.4c0.6,0,1.1-0.1,1.5-0.3l0.2,1c-0.5,0.2-1.1,0.3-1.9,0.3
				c-1.8,0-2.9-1.1-2.9-2.8c0-1.5,0.9-3,2.7-3c1.8,0,2.4,1.5,2.4,2.7c0,0.3,0,0.5,0,0.6H89.9z M92.3,246.1c0-0.5-0.2-1.4-1.1-1.4
				c-0.9,0-1.2,0.8-1.3,1.4H92.3z"/>
			<path class="st19" d="M94.7,245.6c0-0.6,0-1.2,0-1.7h1.2l0.1,0.8h0c0.2-0.4,0.8-1,1.8-1c1,0,2,0.6,2,2.4v3.3h-1.4v-3.1
				c0-0.8-0.3-1.4-1.1-1.4c-0.6,0-0.9,0.4-1.1,0.8c0,0.1-0.1,0.3-0.1,0.5v3.3h-1.4V245.6z"/>
			<path class="st19" d="M102.8,242.4v1.6h1.3v1h-1.3v2.4c0,0.7,0.2,1,0.7,1c0.2,0,0.4,0,0.5-0.1l0,1.1c-0.2,0.1-0.6,0.1-1,0.1
				c-0.5,0-0.9-0.2-1.2-0.5c-0.3-0.3-0.4-0.8-0.4-1.5V245h-0.8v-1h0.8v-1.3L102.8,242.4z"/>
		</g>
		<g>
			<path class="st19" d="M266.1,219.3c0.6-0.1,1.4-0.2,2.2-0.2c1.4,0,2.4,0.3,3.1,0.9c0.7,0.6,1.2,1.5,1.2,2.8
				c0,1.4-0.5,2.4-1.2,3.1c-0.8,0.7-2,1-3.5,1c-0.8,0-1.4,0-1.9-0.1V219.3z M267.5,225.8c0.2,0,0.5,0,0.8,0c1.8,0,2.9-1,2.9-2.9
				c0-1.7-1-2.7-2.7-2.7c-0.4,0-0.8,0-1,0.1V225.8z"/>
			<path class="st19" d="M275.4,219.8c0,0.4-0.3,0.8-0.8,0.8c-0.5,0-0.8-0.3-0.8-0.8c0-0.4,0.3-0.8,0.8-0.8
				C275.1,219,275.4,219.4,275.4,219.8z M273.9,226.9v-5.5h1.4v5.5H273.9z"/>
			<path class="st19" d="M281.9,221.3c0,0.4,0,0.8,0,1.6v3.1c0,1.2-0.2,2-0.8,2.5c-0.6,0.5-1.4,0.7-2.1,0.7c-0.7,0-1.5-0.1-1.9-0.4
				l0.3-1.1c0.4,0.2,0.9,0.4,1.6,0.4c0.9,0,1.6-0.5,1.6-1.7V226h0c-0.3,0.5-0.9,0.8-1.6,0.8c-1.4,0-2.4-1.1-2.4-2.7
				c0-1.8,1.2-2.9,2.5-2.9c0.8,0,1.3,0.4,1.6,0.9h0l0.1-0.7H281.9z M280.4,223.6c0-0.1,0-0.3,0-0.4c-0.1-0.5-0.5-0.9-1.1-0.9
				c-0.8,0-1.4,0.7-1.4,1.8c0,0.9,0.5,1.7,1.4,1.7c0.5,0,1-0.3,1.1-0.8c0-0.1,0.1-0.3,0.1-0.5V223.6z"/>
			<path class="st19" d="M284.8,219.8c0,0.4-0.3,0.8-0.8,0.8c-0.5,0-0.8-0.3-0.8-0.8c0-0.4,0.3-0.8,0.8-0.8
				C284.5,219,284.7,219.4,284.8,219.8z M283.3,226.9v-5.5h1.4v5.5H283.3z"/>
			<path class="st19" d="M287.8,219.7v1.6h1.3v1h-1.3v2.4c0,0.7,0.2,1,0.7,1c0.2,0,0.4,0,0.5-0.1l0,1.1c-0.2,0.1-0.6,0.1-1,0.1
				c-0.5,0-0.9-0.2-1.2-0.5c-0.3-0.3-0.4-0.8-0.4-1.5v-2.6h-0.8v-1h0.8v-1.3L287.8,219.7z"/>
			<path class="st19" d="M293.3,226.9l-0.1-0.6h0c-0.3,0.4-0.9,0.7-1.6,0.7c-1.1,0-1.7-0.8-1.7-1.7c0-1.4,1.2-2.1,3.3-2.1v-0.1
				c0-0.4-0.1-1-1.1-1c-0.5,0-1.1,0.2-1.5,0.4l-0.3-0.9c0.4-0.3,1.1-0.5,2-0.5c1.8,0,2.3,1.1,2.3,2.3v2c0,0.5,0,1,0.1,1.3H293.3z
				 M293.1,224.2c-1,0-1.9,0.2-1.9,1c0,0.5,0.4,0.8,0.8,0.8c0.6,0,1-0.4,1.1-0.8c0-0.1,0-0.2,0-0.3V224.2z"/>
			<path class="st19" d="M296,218.8h1.4v8.1H296V218.8z"/>
			<path class="st19" d="M262.8,234.8c0-0.7,0-1.3,0-1.8h1.2l0.1,0.9h0c0.4-0.6,1.1-1,1.9-1c1.3,0,2.3,1.1,2.3,2.8c0,2-1.3,3-2.5,3
				c-0.7,0-1.3-0.3-1.6-0.7h0v2.9h-1.4V234.8z M264.2,236.2c0,0.1,0,0.3,0,0.4c0.1,0.6,0.6,1,1.2,1c0.9,0,1.4-0.7,1.4-1.8
				c0-1-0.5-1.8-1.4-1.8c-0.6,0-1.1,0.4-1.3,1c0,0.1-0.1,0.2-0.1,0.4V236.2z"/>
			<path class="st19" d="M269.5,234.8c0-0.8,0-1.3,0-1.8h1.2l0,1.1h0c0.3-0.8,0.9-1.2,1.5-1.2c0.1,0,0.2,0,0.3,0v1.3
				c-0.1,0-0.2,0-0.4,0c-0.7,0-1.1,0.4-1.3,1.1c0,0.1,0,0.3,0,0.4v2.9h-1.4V234.8z"/>
			<path class="st19" d="M278.7,235.7c0,2-1.4,2.9-2.8,2.9c-1.6,0-2.8-1.1-2.8-2.9c0-1.8,1.2-2.9,2.9-2.9
				C277.6,232.9,278.7,234,278.7,235.7z M274.5,235.8c0,1.1,0.5,1.9,1.4,1.9c0.8,0,1.4-0.8,1.4-1.9c0-0.9-0.4-1.9-1.3-1.9
				C274.9,233.9,274.5,234.9,274.5,235.8z"/>
			<path class="st19" d="M284.9,230.5v6.5c0,0.6,0,1.2,0,1.6h-1.3l-0.1-0.9h0c-0.3,0.6-1,1-1.8,1c-1.3,0-2.4-1.1-2.4-2.8
				c0-1.9,1.1-3,2.5-3c0.8,0,1.3,0.3,1.6,0.7h0v-3.1H284.9z M283.5,235.3c0-0.1,0-0.3,0-0.4c-0.1-0.5-0.6-1-1.2-1
				c-0.9,0-1.4,0.8-1.4,1.8c0,1,0.5,1.8,1.4,1.8c0.6,0,1.1-0.4,1.2-1c0-0.1,0-0.3,0-0.4V235.3z"/>
			<path class="st19" d="M291.4,236.9c0,0.7,0,1.2,0,1.7h-1.2l-0.1-0.8h0c-0.2,0.4-0.8,1-1.8,1c-1,0-1.9-0.6-1.9-2.4V233h1.4v3
				c0,0.9,0.3,1.5,1,1.5c0.6,0,0.9-0.4,1.1-0.8c0-0.1,0.1-0.3,0.1-0.4V233h1.4V236.9z"/>
			<path class="st19" d="M297,238.4c-0.3,0.1-0.9,0.3-1.6,0.3c-1.7,0-2.9-1.1-2.9-2.8c0-1.7,1.1-3,3.1-3c0.5,0,1,0.1,1.4,0.3l-0.3,1
				c-0.2-0.1-0.6-0.2-1.1-0.2c-1.1,0-1.7,0.8-1.7,1.8c0,1.1,0.7,1.8,1.7,1.8c0.5,0,0.8-0.1,1.1-0.2L297,238.4z"/>
			<path class="st19" d="M299.8,231.4v1.6h1.3v1h-1.3v2.4c0,0.7,0.2,1,0.7,1c0.2,0,0.4,0,0.5-0.1l0,1.1c-0.2,0.1-0.6,0.1-1,0.1
				c-0.5,0-0.9-0.2-1.2-0.5c-0.3-0.3-0.4-0.8-0.4-1.5V234h-0.8v-1h0.8v-1.3L299.8,231.4z"/>
			<path class="st19" d="M264.2,246.5c0-0.8,0-1.3,0-1.8h1.2l0,1.1h0c0.3-0.8,0.9-1.2,1.5-1.2c0.1,0,0.2,0,0.3,0v1.3
				c-0.1,0-0.2,0-0.4,0c-0.7,0-1.1,0.4-1.3,1.1c0,0.1,0,0.3,0,0.4v2.9h-1.4V246.5z"/>
			<path class="st19" d="M269.1,247.8c0,1,0.8,1.4,1.7,1.4c0.6,0,1.1-0.1,1.5-0.3l0.2,1c-0.5,0.2-1.1,0.3-1.9,0.3
				c-1.8,0-2.9-1.1-2.9-2.8c0-1.5,0.9-3,2.7-3c1.8,0,2.4,1.5,2.4,2.7c0,0.3,0,0.5,0,0.6H269.1z M271.6,246.9c0-0.5-0.2-1.4-1.1-1.4
				c-0.9,0-1.2,0.8-1.3,1.4H271.6z"/>
			<path class="st19" d="M278.1,250c-0.3,0.1-0.9,0.3-1.6,0.3c-1.7,0-2.9-1.1-2.9-2.8c0-1.7,1.1-3,3.1-3c0.5,0,1,0.1,1.4,0.3l-0.3,1
				c-0.2-0.1-0.6-0.2-1.1-0.2c-1.1,0-1.7,0.8-1.7,1.8c0,1.1,0.7,1.8,1.7,1.8c0.5,0,0.8-0.1,1.1-0.2L278.1,250z"/>
			<path class="st19" d="M284.3,247.4c0,2-1.4,2.9-2.8,2.9c-1.6,0-2.8-1.1-2.8-2.9c0-1.8,1.2-2.9,2.9-2.9
				C283.2,244.5,284.3,245.7,284.3,247.4z M280.1,247.4c0,1.1,0.5,1.9,1.4,1.9c0.8,0,1.4-0.8,1.4-1.9c0-0.9-0.4-1.9-1.3-1.9
				C280.5,245.6,280.1,246.5,280.1,247.4z"/>
			<path class="st19" d="M285.4,246.5c0-0.8,0-1.3,0-1.8h1.2l0,1.1h0c0.3-0.8,0.9-1.2,1.5-1.2c0.1,0,0.2,0,0.3,0v1.3
				c-0.1,0-0.2,0-0.4,0c-0.7,0-1.1,0.4-1.3,1.1c0,0.1,0,0.3,0,0.4v2.9h-1.4V246.5z"/>
			<path class="st19" d="M294.5,242.1v6.5c0,0.6,0,1.2,0,1.6h-1.3l-0.1-0.9h0c-0.3,0.6-1,1-1.8,1c-1.3,0-2.4-1.1-2.4-2.8
				c0-1.9,1.1-3,2.5-3c0.8,0,1.3,0.3,1.6,0.7h0v-3.1H294.5z M293.1,247c0-0.1,0-0.3,0-0.4c-0.1-0.5-0.6-1-1.2-1
				c-0.9,0-1.4,0.8-1.4,1.8c0,1,0.5,1.8,1.4,1.8c0.6,0,1.1-0.4,1.2-1c0-0.1,0-0.3,0-0.4V247z"/>
			<path class="st19" d="M295.9,248.9c0.3,0.2,0.9,0.4,1.4,0.4c0.6,0,0.9-0.3,0.9-0.6c0-0.4-0.2-0.6-0.9-0.8c-1.1-0.4-1.5-1-1.5-1.6
				c0-1,0.8-1.7,2.1-1.7c0.6,0,1.1,0.2,1.5,0.3l-0.3,1c-0.2-0.1-0.7-0.3-1.2-0.3c-0.5,0-0.8,0.2-0.8,0.6c0,0.4,0.3,0.5,1,0.8
				c1,0.4,1.5,0.9,1.5,1.7c0,1-0.8,1.7-2.3,1.7c-0.7,0-1.3-0.2-1.7-0.4L295.9,248.9z"/>
		</g>
		<g>
			<path class="st19" d="M159.1,304.5c-1.1-0.3-2-0.6-3-1c-0.2-0.1-0.3-0.1-0.5-0.1c-1.8-0.1-3.4-1.4-3.4-3.9c0-2.4,1.5-4,3.7-4
				c2.2,0,3.5,1.7,3.5,3.9c0,1.9-0.9,3.1-2,3.5v0c0.7,0.2,1.4,0.3,2,0.5L159.1,304.5z M158,299.4c0-1.5-0.7-2.8-2.1-2.8
				c-1.4,0-2.1,1.3-2.1,2.9c0,1.5,0.8,2.8,2.1,2.8C157.2,302.3,158,301,158,299.4z"/>
			<path class="st19" d="M165.6,301.6c0,0.7,0,1.2,0,1.7h-1.2l-0.1-0.8h0c-0.2,0.4-0.8,1-1.8,1c-1,0-1.9-0.6-1.9-2.4v-3.3h1.4v3
				c0,0.9,0.3,1.5,1,1.5c0.6,0,0.9-0.4,1.1-0.8c0-0.1,0.1-0.3,0.1-0.4v-3.3h1.4V301.6z"/>
			<path class="st19" d="M170.3,303.3l-0.1-0.6h0c-0.3,0.4-0.9,0.7-1.6,0.7c-1.1,0-1.7-0.8-1.7-1.7c0-1.4,1.2-2.1,3.3-2.1v-0.1
				c0-0.4-0.1-1-1.1-1c-0.5,0-1.1,0.2-1.5,0.4l-0.3-0.9c0.4-0.3,1.1-0.5,2-0.5c1.8,0,2.3,1.1,2.3,2.3v2c0,0.5,0,1,0.1,1.3H170.3z
				 M170.1,300.6c-1,0-1.9,0.2-1.9,1c0,0.5,0.4,0.8,0.8,0.8c0.6,0,1-0.4,1.1-0.8c0-0.1,0-0.2,0-0.3V300.6z"/>
			<path class="st19" d="M172.9,295.2h1.4v8.1h-1.4V295.2z"/>
			<path class="st19" d="M177.3,296.2c0,0.4-0.3,0.8-0.8,0.8c-0.5,0-0.8-0.3-0.8-0.8c0-0.4,0.3-0.8,0.8-0.8
				C177,295.4,177.3,295.8,177.3,296.2z M175.9,303.3v-5.5h1.4v5.5H175.9z"/>
			<path class="st19" d="M180.4,296.2v1.6h1.3v1h-1.3v2.4c0,0.7,0.2,1,0.7,1c0.2,0,0.4,0,0.5-0.1l0,1.1c-0.2,0.1-0.6,0.1-1,0.1
				c-0.5,0-0.9-0.2-1.2-0.5c-0.3-0.3-0.4-0.8-0.4-1.5v-2.6h-0.8v-1h0.8v-1.3L180.4,296.2z"/>
			<path class="st19" d="M183.7,297.8l1,3c0.1,0.3,0.2,0.8,0.3,1.1h0c0.1-0.3,0.2-0.7,0.3-1.1l0.9-3h1.5l-1.4,3.8
				c-0.8,2.1-1.3,3-1.9,3.6c-0.5,0.5-1.1,0.7-1.5,0.7l-0.3-1.2c0.2-0.1,0.5-0.2,0.8-0.4c0.3-0.2,0.6-0.5,0.8-0.9
				c0.1-0.1,0.1-0.2,0.1-0.3c0-0.1,0-0.1-0.1-0.3l-2-5.1H183.7z"/>
			<path class="st19" d="M137.5,311.1c0-0.6,0-1.2,0-1.7h1.2l0.1,0.8h0c0.3-0.4,0.8-0.9,1.7-0.9c0.7,0,1.3,0.4,1.5,1h0
				c0.2-0.3,0.4-0.5,0.7-0.7c0.3-0.2,0.7-0.3,1.1-0.3c0.9,0,1.9,0.6,1.9,2.4v3.3h-1.4v-3.1c0-0.9-0.3-1.5-1-1.5
				c-0.5,0-0.8,0.3-1,0.7c0,0.1-0.1,0.3-0.1,0.5v3.3h-1.4v-3.2c0-0.8-0.3-1.3-1-1.3c-0.5,0-0.9,0.4-1,0.8c-0.1,0.1-0.1,0.3-0.1,0.5
				v3.3h-1.4V311.1z"/>
			<path class="st19" d="M150.3,315l-0.1-0.6h0c-0.3,0.4-0.9,0.7-1.6,0.7c-1.1,0-1.7-0.8-1.7-1.7c0-1.4,1.2-2.1,3.3-2.1v-0.1
				c0-0.4-0.1-1-1.1-1c-0.5,0-1.1,0.2-1.5,0.4l-0.3-0.9c0.4-0.3,1.1-0.5,2-0.5c1.8,0,2.3,1.1,2.3,2.3v2c0,0.5,0,1,0.1,1.3H150.3z
				 M150.1,312.3c-1,0-1.9,0.2-1.9,1c0,0.5,0.4,0.8,0.8,0.8c0.6,0,1-0.4,1.1-0.8c0-0.1,0-0.2,0-0.3V312.3z"/>
			<path class="st19" d="M153,311.1c0-0.6,0-1.2,0-1.7h1.2l0.1,0.8h0c0.2-0.4,0.8-1,1.8-1c1,0,2,0.6,2,2.4v3.3h-1.4v-3.1
				c0-0.8-0.3-1.4-1.1-1.4c-0.6,0-0.9,0.4-1.1,0.8c0,0.1-0.1,0.3-0.1,0.5v3.3H153V311.1z"/>
			<path class="st19" d="M162.6,315l-0.1-0.6h0c-0.3,0.4-0.9,0.7-1.6,0.7c-1.1,0-1.7-0.8-1.7-1.7c0-1.4,1.2-2.1,3.3-2.1v-0.1
				c0-0.4-0.1-1-1.1-1c-0.5,0-1.1,0.2-1.5,0.4l-0.3-0.9c0.4-0.3,1.1-0.5,2-0.5c1.8,0,2.3,1.1,2.3,2.3v2c0,0.5,0,1,0.1,1.3H162.6z
				 M162.4,312.3c-1,0-1.9,0.2-1.9,1c0,0.5,0.4,0.8,0.8,0.8c0.6,0,1-0.4,1.1-0.8c0-0.1,0-0.2,0-0.3V312.3z"/>
			<path class="st19" d="M170.3,309.4c0,0.4,0,0.8,0,1.6v3.1c0,1.2-0.2,2-0.8,2.5c-0.6,0.5-1.4,0.7-2.1,0.7c-0.7,0-1.5-0.1-1.9-0.4
				l0.3-1.1c0.4,0.2,0.9,0.4,1.6,0.4c0.9,0,1.6-0.5,1.6-1.7v-0.5h0c-0.3,0.5-0.9,0.8-1.6,0.8c-1.4,0-2.4-1.1-2.4-2.7
				c0-1.8,1.2-2.9,2.5-2.9c0.8,0,1.3,0.4,1.6,0.9h0l0.1-0.7H170.3z M168.9,311.6c0-0.1,0-0.3,0-0.4c-0.1-0.5-0.5-0.9-1.1-0.9
				c-0.8,0-1.4,0.7-1.4,1.8c0,0.9,0.5,1.7,1.4,1.7c0.5,0,1-0.3,1.1-0.8c0-0.1,0.1-0.3,0.1-0.5V311.6z"/>
			<path class="st19" d="M172.8,312.6c0,1,0.8,1.4,1.7,1.4c0.6,0,1.1-0.1,1.5-0.3l0.2,1c-0.5,0.2-1.1,0.3-1.9,0.3
				c-1.8,0-2.9-1.1-2.9-2.8c0-1.5,0.9-3,2.7-3c1.8,0,2.4,1.5,2.4,2.7c0,0.3,0,0.5,0,0.6H172.8z M175.2,311.6c0-0.5-0.2-1.4-1.1-1.4
				c-0.9,0-1.2,0.8-1.3,1.4H175.2z"/>
			<path class="st19" d="M177.6,311.1c0-0.6,0-1.2,0-1.7h1.2l0.1,0.8h0c0.3-0.4,0.8-0.9,1.7-0.9c0.7,0,1.3,0.4,1.5,1h0
				c0.2-0.3,0.4-0.5,0.7-0.7c0.3-0.2,0.7-0.3,1.1-0.3c0.9,0,1.9,0.6,1.9,2.4v3.3h-1.4v-3.1c0-0.9-0.3-1.5-1-1.5
				c-0.5,0-0.8,0.3-1,0.7c0,0.1-0.1,0.3-0.1,0.5v3.3H181v-3.2c0-0.8-0.3-1.3-1-1.3c-0.5,0-0.9,0.4-1,0.8c-0.1,0.1-0.1,0.3-0.1,0.5
				v3.3h-1.4V311.1z"/>
			<path class="st19" d="M188.3,312.6c0,1,0.8,1.4,1.7,1.4c0.6,0,1.1-0.1,1.5-0.3l0.2,1c-0.5,0.2-1.1,0.3-1.9,0.3
				c-1.8,0-2.9-1.1-2.9-2.8c0-1.5,0.9-3,2.7-3c1.8,0,2.4,1.5,2.4,2.7c0,0.3,0,0.5,0,0.6H188.3z M190.7,311.6c0-0.5-0.2-1.4-1.1-1.4
				c-0.9,0-1.2,0.8-1.3,1.4H190.7z"/>
			<path class="st19" d="M193.2,311.1c0-0.6,0-1.2,0-1.7h1.2l0.1,0.8h0c0.2-0.4,0.8-1,1.8-1c1,0,2,0.6,2,2.4v3.3h-1.4v-3.1
				c0-0.8-0.3-1.4-1.1-1.4c-0.6,0-0.9,0.4-1.1,0.8c0,0.1-0.1,0.3-0.1,0.5v3.3h-1.4V311.1z"/>
			<path class="st19" d="M201.2,307.8v1.6h1.3v1h-1.3v2.4c0,0.7,0.2,1,0.7,1c0.2,0,0.4,0,0.5-0.1l0,1.1c-0.2,0.1-0.6,0.1-1,0.1
				c-0.5,0-0.9-0.2-1.2-0.5c-0.3-0.3-0.4-0.8-0.4-1.5v-2.6h-0.8v-1h0.8v-1.3L201.2,307.8z"/>
		</g>
	</g>
	<g>
		<polyline class="st12" points="122.6,90.6 122.6,93.3 89.4,93.3 89.4,83.6 		"/>
		<g>
			<g>
				<polyline class="st12" points="89.4,56 89.4,46.3 122.6,46.3 122.6,56.9 				"/>
				<g>
					<polygon class="st19" points="119.6,56 122.6,61.2 125.5,56 					"/>
				</g>
			</g>
		</g>
		<line class="st12" x1="89.4" y1="67.4" x2="89.4" y2="60.4"/>
		<line class="st12" x1="89.4" y1="79.2" x2="89.4" y2="71.9"/>
		<rect x="87.3" y="56" class="st12" width="4.9" height="4.4"/>
		<rect x="87.3" y="79.2" class="st12" width="4.9" height="4.4"/>
		<rect x="87.3" y="67.4" class="st12" width="4.9" height="4.4"/>
		<circle class="st12" cx="122.3" cy="66.5" r="2.2"/>
		<circle class="st12" cx="122.3" cy="85.3" r="2.2"/>
		<circle class="st12" cx="107.2" cy="75.9" r="2.2"/>
		<line class="st12" x1="119.9" y1="85.3" x2="109.2" y2="77.1"/>
		<line class="st12" x1="109.2" y1="74.7" x2="120.1" y2="67.5"/>
	</g>
	<g>
		<g>
			<g>
				<line class="st12" x1="260.2" y1="42.3" x2="260.2" y2="49.1"/>
				<g>
					<polygon class="st19" points="257.2,43.2 260.2,38 263.2,43.2 					"/>
				</g>
			</g>
		</g>
		<polyline class="st12" points="247.8,79.8 260.2,79.8 260.2,87 229.9,87 229.9,63.2 		"/>
		<line class="st12" x1="229.9" y1="79.8" x2="242.9" y2="79.8"/>
		<polyline class="st12" points="229.9,44.3 229.9,38.8 256.4,38.8 		"/>
	</g>
	<circle class="st12" cx="245.3" cy="79.8" r="2.3"/>
	<circle class="st12" cx="260.2" cy="64" r="11.6"/>
	<ellipse class="st12" cx="260.2" cy="64" rx="5.3" ry="11.6"/>
	<ellipse class="st12" cx="260.2" cy="64" rx="11.6" ry="5.3"/>
	<path class="st12" d="M239.7,60.9c1.9,0,3.4-1.5,3.4-3.4c0-1.9-1.5-3.4-3.4-3.4c-0.1,0-0.3,0-0.4,0c0.3-0.6,0.4-1.3,0.4-2
		c0-2.6-2.1-4.8-4.8-4.8c-2,0-3.7,1.2-4.4,3c-0.3-0.1-0.6-0.1-0.8-0.1c-1.9,0-3.4,1.5-3.4,3.4c0,0.2,0,0.3,0,0.5
		c-1.7,0.2-3,1.6-3,3.4c0,1.9,1.5,3.4,3.4,3.4H239.7z"/>
	<rect x="184.5" y="273.9" class="st12" width="11.2" height="12"/>
	<polyline class="st12" points="187.1,280 189.5,282.5 193.6,278.2 	"/>
	<g>
		<polyline class="st12" points="54.7,210.5 54.7,190 63.5,191.6 63.5,196.3 		"/>
		<line class="st12" x1="50.1" y1="210.5" x2="86.3" y2="210.5"/>
		<polygon class="st12" points="69.2,194.5 69.2,210.5 61.3,210.5 61.3,197.6 		"/>
		<line class="st12" x1="63.2" y1="200.7" x2="64.6" y2="200.7"/>
		<line class="st12" x1="65.8" y1="200.7" x2="67.2" y2="200.7"/>
		<line class="st12" x1="63.2" y1="204.1" x2="64.6" y2="204.1"/>
		<polygon class="st12" points="77.2,194.5 77.2,210.5 69.3,210.5 69.3,197.6 		"/>
		<line class="st12" x1="71.2" y1="200.7" x2="72.6" y2="200.7"/>
		<line class="st12" x1="73.8" y1="200.7" x2="75.1" y2="200.7"/>
		<line class="st12" x1="71.2" y1="204.1" x2="72.6" y2="204.1"/>
		<line class="st12" x1="56.9" y1="194.7" x2="58.3" y2="194.7"/>
		<line class="st12" x1="59.5" y1="194.7" x2="60.8" y2="194.7"/>
		<line class="st12" x1="56.9" y1="198.8" x2="58.3" y2="198.8"/>
		<line class="st12" x1="56.9" y1="202.7" x2="58.3" y2="202.7"/>
	</g>
	<polyline class="st12" points="78,169.4 85.6,169.4 85.6,181.6 	"/>
	<polyline class="st12" points="82.8,186.5 84.6,188.3 88,184.9 	"/>
	<g>
		<g>
			<polyline class="st12" points="85.8,191.7 85.8,201.9 82.6,201.9 			"/>
			<g>
				<polygon class="st19" points="83.4,198.9 78.2,201.9 83.4,204.9 				"/>
			</g>
		</g>
	</g>
	<circle class="st12" cx="85.6" cy="186.6" r="5"/>
	<polygon class="st12" points="73.8,169.5 48.6,169.5 51.2,182.7 71.2,182.7 	"/>
	<line class="st12" x1="50.8" y1="169.5" x2="54.7" y2="162.6"/>
	<line class="st12" x1="71.9" y1="169.5" x2="68" y2="162.6"/>
	<polygon class="st12" points="62.3,179.2 59.7,179.2 59.5,172.4 62.6,172.4 	"/>
	<polygon class="st12" points="56.8,179.2 54.5,179.2 53.8,172.4 56.2,172.4 	"/>
	<polygon class="st12" points="65.3,179.2 67.7,179.2 68.4,172.4 66,172.4 	"/>
	<g>
		<polygon class="st12" points="172.9,275.7 177.9,275.7 180.9,260.7 152.1,260.7 155.1,275.7 		"/>
		<line class="st12" x1="154.6" y1="260.7" x2="159.2" y2="252.8"/>
		<line class="st12" x1="178.8" y1="260.7" x2="174.2" y2="252.8"/>
		<polygon class="st12" points="164.8,271.8 164.6,264 168.1,264 167.9,271.8 		"/>
		<polygon class="st12" points="161.6,271.8 158.8,271.8 158.1,264 160.8,264 		"/>
		<polygon class="st12" points="171.2,271.8 174,271.8 174.7,264 172,264 		"/>
	</g>
	<g>
		<g>
			<polyline class="st12" points="300.9,172.1 300.9,202.7 255.5,202.7 255.5,168.6 290,168.6 			"/>
			<g>
				<polygon class="st19" points="297.9,172.9 300.9,167.8 303.9,172.9 				"/>
			</g>
		</g>
	</g>
	<circle class="st12" cx="292.9" cy="168.6" r="2.4"/>
	<line class="st12" x1="278.5" y1="202.7" x2="278.5" y2="210.7"/>
	<line class="st12" x1="269.6" y1="210.7" x2="286.7" y2="210.7"/>
	<polygon class="st12" points="288.1,191.3 282.3,197.3 268.3,197.3 268.3,173.2 288.1,173.2 	"/>
	<polyline class="st12" points="288.1,191.3 282.3,191.3 282.3,197.3 	"/>
	<line class="st12" x1="272.9" y1="179.2" x2="284.3" y2="179.2"/>
	<line class="st12" x1="272.9" y1="185.2" x2="284.3" y2="185.2"/>
	<polyline class="st12" points="182,281.4 147.1,281.4 147.1,247.4 181.7,247.4 	"/>
	<g>
		<g>
			<polyline class="st12" points="191.3,267.2 191.3,260.7 185.7,260.7 			"/>
			<g>
				<polygon class="st19" points="194.3,266.3 191.3,271.5 188.3,266.3 				"/>
			</g>
		</g>
	</g>
	<circle class="st12" cx="184.5" cy="247.4" r="2.3"/>
	<line class="st12" x1="170.2" y1="281.4" x2="170.2" y2="289.4"/>
	<line class="st12" x1="161.3" y1="289.4" x2="178.4" y2="289.4"/>
	<line class="st12" x1="190.7" y1="246.5" x2="190.7" y2="258.5"/>
</g>
</svg>
