<svg id="Layer_1" data-name="Layer 1" xmlns="http://www.w3.org/2000/svg" width="100" height="100" viewBox="0 0 100 100"><title>managing-cost</title><path d="M39.37,0c2,.83,3.89,1.68,5.85,2.48A1.22,1.22,0,0,1,46,4.12c-.47,1.84-.18,3.4,1.59,4.46a2.8,2.8,0,0,1,.89.92c.74,1.31,1.86,1.35,3.18,1.14,1.87-.31,1.94-.28,2.71,1.43.69,1.55,1.21,3.19,1.84,4.77a1,1,0,0,1-.41,1.37c-1.85,1.05-2.22,2.56-2.25,4.67A4.14,4.14,0,0,0,55.7,27a1.15,1.15,0,0,1,.52,1.65c-.76,1.79-1.47,3.59-2.19,5.38-.25.63-.66,1-1.34.76a4.12,4.12,0,0,0-5,1.92,2.57,2.57,0,0,1-.85.79A1.93,1.93,0,0,0,46,40.06c2.05-.44,4.07-1.06,6.13-1.3,12.29-1.4,22,3.05,29,13.24a1.93,1.93,0,0,0,1.83,1,6.1,6.1,0,0,1,5.81,4.08c.13.36.28.71.42,1.07v2.57a17.65,17.65,0,0,1-1.58,2.79A6.4,6.4,0,1,1,78,55c.2-.23.41-.45.61-.67-4.16-7.57-14.28-14.15-26.11-12.44-12.41,1.79-19.62,11.3-21.38,18.53l4.92,2L24.59,71.59,22.36,57l5.36,2a80.43,80.43,0,0,1,4.38-8A79.46,79.46,0,0,1,38,44.26a16.84,16.84,0,0,0-1.31-1.58,1.6,1.6,0,0,0-1-.33,11,11,0,0,1-2.55.09,3,3,0,0,0-3.72,1.7,1.74,1.74,0,0,1-2.6.76c-1.57-.74-3.19-1.41-4.79-2.08-.6-.25-.88-.63-.7-1.26.65-2.25-.33-3.7-1.94-5.27-1.35-1.32-2.52-2-4.31-1.48a1.48,1.48,0,0,1-1.94-1.11c-.74-1.9-1.54-3.77-2.31-5.66v-.47c.91-.7,1.84-1.39,2.72-2.13a1.15,1.15,0,0,0,.27-.81c0-1.3,0-2.6,0-3.9a1.37,1.37,0,0,0-.35-.89c-.85-.73-1.75-1.39-2.63-2.08v-.24c.82-2,1.65-4.07,2.45-6.11a1.21,1.21,0,0,1,1.62-.86c2,.6,3.22-.28,4.66-1.68S22,6.08,21.37,4c-.24-.84.19-1.3.91-1.59L28.15,0h.47c1.09,1.69,2,3.61,4.64,3a13.25,13.25,0,0,1,2.43,0,1.71,1.71,0,0,0,1.1-.39C37.54,1.78,38.2.87,38.9,0Zm9.87,14c-.88.39-1.41-.19-2-1a9.81,9.81,0,0,0-2.52-2.72c-1.9-1.16-2.65-2.59-2.07-4.75a1.14,1.14,0,0,0-.36-1c-1.55-1.11-2.15-1-3.34.44a10.15,10.15,0,0,0-.66.81,1.32,1.32,0,0,1-1.48.56A18.06,18.06,0,0,0,32,6.27c-1.71.28-2.93.08-3.75-1.5-.55-1.06-1.28-1-2.29-.59s-1.46,1-1.14,2.07c.12.4,0,.86.13,1.28.15.75-.19,1.15-.77,1.62a19,19,0,0,0-3.59,3.46A2.81,2.81,0,0,1,17.27,14c-.08,0-.17,0-.24,0-1.09-.39-1.55.16-2,1.11s-.46,1.81.62,2.4c.34.18.59.52.91.73a1.47,1.47,0,0,1,.64,1.67,15.55,15.55,0,0,0-.13,4.51c.29,1.59.06,2.7-1.37,3.48-.1.06-.17.16-.27.22-.79.43-.89,1-.53,1.81.7,1.63.65,1.65,2.4,1.47a7.17,7.17,0,0,0,.81-.07,1.78,1.78,0,0,1,1.93.87,16.57,16.57,0,0,0,3.39,3.5c1.28.91,1.75,1.88,1.34,3.29s.09,1.86,1.29,2.3c.92.34,1.5.32,2-.54.29-.46.73-.82,1-1.27s.75-.55,1.36-.52a41.79,41.79,0,0,0,5.92,0,2,2,0,0,1,2.2.94c.12.19.32.35.44.55.63,1.12,1.44,1.23,2.58.66.75-.38,1.22-.72,1-1.64-.11-.48,0-1-.15-1.5a1.53,1.53,0,0,1,.72-1.75,13,13,0,0,0,3.24-3,3.62,3.62,0,0,1,4.45-1.79,1.1,1.1,0,0,0,1-.32c1.12-1.55,1-2.26-.44-3.47-.24-.2-.57-.34-.71-.59a3.39,3.39,0,0,1-.55-1.48c0-1.59.39-3.24.08-4.76a2.84,2.84,0,0,1,1.52-3.43c1-.58,1-1.24.58-2.22s-.83-1.63-2-1.22A5.49,5.49,0,0,1,49.24,14ZM82.69,62.59a3.2,3.2,0,0,0,3.25-3.13,3.23,3.23,0,1,0-3.25,3.13Z"/><path d="M54.09,100c-1.21-.22-2.42-.41-3.62-.66A29,29,0,0,1,31.63,86.65a1.62,1.62,0,0,0-1.55-.91,6.24,6.24,0,0,1-6.21-5.13,6.41,6.41,0,1,1,11.12,3,8.85,8.85,0,0,1-.84.79c3.14,6,12.12,13,23.72,12.33s20-8.85,22.7-16.44l-5.32-2.12,11.51-9.21c.75,4.92,1.47,9.66,2.22,14.57l-5.26-2-.5,1c-4.89,10.12-12.89,15.9-24.07,17.26a3.78,3.78,0,0,0-.62.21ZM30.19,76.17a3.21,3.21,0,0,0-3.27,3.23,3.34,3.34,0,0,0,3.2,3.23,3.28,3.28,0,0,0,3.25-3.29A3.14,3.14,0,0,0,30.19,76.17Z"/><path d="M55.45,52.13H58v3.69l4,1c1,.28,1.51.83.88,1.91a11.68,11.68,0,0,0-.61,1.47,10.22,10.22,0,0,0-5.9-1.31c-2.33.21-3.84,1.83-3.43,3.93A4,4,0,0,0,54.3,65a22.14,22.14,0,0,0,3.35,1.84c1.11.57,2.27,1.05,3.32,1.7a6.55,6.55,0,0,1,3.12,7.12c-.48,2.84-2.35,4.55-5,5.43-.37.12-.75.21-1.23.34v4.12H55.19v-3.7L48.78,80l1-2.78c1.85.49,3.57,1.08,5.34,1.37a6.12,6.12,0,0,0,3-.39,3.71,3.71,0,0,0,1.1-6.48A18.44,18.44,0,0,0,56,69.87c-1.17-.61-2.42-1.09-3.54-1.77a5.89,5.89,0,0,1-3.15-5.81,6.07,6.07,0,0,1,4.52-5.64c1.43-.43,1.86-1,1.67-2.39A15,15,0,0,1,55.45,52.13Z"/><path d="M33.72,34.31A11.64,11.64,0,1,1,45.44,22.69,11.66,11.66,0,0,1,33.72,34.31ZM42.2,22.66a8.51,8.51,0,1,0-8.48,8.45A8.51,8.51,0,0,0,42.2,22.66Z"/></svg>