<svg id="Layer_1" data-name="Layer 1" xmlns="http://www.w3.org/2000/svg" viewBox="0 0 601.9 671.15">
  <defs>
    <style>
      .cls-1{fill:#a8d7cd}.cls-3{fill:#00321d}.cls-4{fill:none;stroke:#00321d;stroke-miterlimit:10;stroke-width:3px}
    </style>
  </defs>
  <path class="cls-1" d="M0 0h602.75v219.97H0z"/>
  <path fill="#d8e7da" d="M0 227.13h602.75V447.1H0z"/>
  <path class="cls-1" d="M0 454.27h602.75v219.97H0z"/>
  <path class="cls-3" d="M88.46 147.2a36.33 36.33 0 0 1 6.37-.47c3 0 5.28.64 6.73 1.86a6.44 6.44 0 0 1 2.24 5 6.88 6.88 0 0 1-2 5.17c-1.66 1.66-4.26 2.44-7.21 2.44a12 12 0 0 1-2-.13v8.59h-4.13zm4.13 10.63a8.2 8.2 0 0 0 2 .17c3.12 0 5-1.52 5-4.2s-1.76-3.89-4.63-3.89a10.9 10.9 0 0 0-2.41.21zM106.81 158.54c0-2.23 0-3.82-.13-5.31h3.62l.13 3.15h.14a4.91 4.91 0 0 1 4.5-3.52 4.22 4.22 0 0 1 1 .1v3.92a6.41 6.41 0 0 0-1.22-.13 3.67 3.67 0 0 0-3.72 3.15 6.86 6.86 0 0 0-.14 1.28v8.53h-4.16zM123.3 148.63a2.21 2.21 0 0 1-2.37 2.23 2.18 2.18 0 0 1-2.3-2.23 2.34 2.34 0 0 1 4.67 0zm-4.44 21.08v-16.48h4.2v16.48zM139.64 169.2a11.94 11.94 0 0 1-4.67.85c-5.14 0-8.49-3.28-8.49-8.39 0-4.94 3.38-8.8 9.17-8.8a10.42 10.42 0 0 1 4 .78l-.75 3.11a7.19 7.19 0 0 0-3.14-.64c-3.18 0-5.08 2.33-5 5.34 0 3.39 2.2 5.32 5 5.32a8.1 8.1 0 0 0 3.28-.65zM147.16 148.63a2.34 2.34 0 1 1-2.34-2.27 2.2 2.2 0 0 1 2.34 2.27zm-4.43 21.08v-16.48h4.19v16.48zM151.39 158.14c0-1.9 0-3.49-.13-4.91h3.65l.2 2.47h.11a5.92 5.92 0 0 1 5.24-2.84c2.88 0 5.86 1.86 5.86 7.07v9.78h-4.17v-9.31c0-2.36-.87-4.16-3.14-4.16a3.5 3.5 0 0 0-3.25 2.44 4.1 4.1 0 0 0-.17 1.35v9.68h-4.2zM185.82 153.23c-.07 1.12-.14 2.47-.14 4.74v9.34c0 3.45-.71 5.92-2.44 7.48a9.47 9.47 0 0 1-6.36 2 11.64 11.64 0 0 1-5.75-1.32l.91-3.14a10 10 0 0 0 4.81 1.25c2.7 0 4.73-1.42 4.73-5v-1.42h-.06a5.56 5.56 0 0 1-4.81 2.44c-4.09 0-7-3.38-7-8.05 0-5.42 3.52-8.7 7.48-8.7a5.2 5.2 0 0 1 4.77 2.57h.04l.16-2.2zm-4.3 6.6a4.14 4.14 0 0 0-.14-1.12A3.45 3.45 0 0 0 178 156c-2.34 0-4.06 2-4.06 5.38 0 2.81 1.42 5.08 4 5.08a3.57 3.57 0 0 0 3.39-2.51 7.23 7.23 0 0 0 .17-1.49zM305.51 55.35c-2.31-.61-4.57-1.29-6.55-2a3.49 3.49 0 0 0-1-.25c-4.06-.15-7.54-3.15-7.54-8.66s3.35-9 8-9 7.67 3.6 7.67 8.66c0 4.39-2 7.21-4.88 8.2v.1c1.7.43 3.56.84 5 1.09zm-1.83-11.14c0-3.43-1.78-7-5.41-7s-5.56 3.45-5.53 7.16 2 6.91 5.43 6.91 5.51-3.16 5.51-7.07zM319.17 49.49c0 1.27 0 2.39.1 3.35h-2l-.13-2h-.05a4.62 4.62 0 0 1-4.06 2.29c-1.93 0-4.24-1.07-4.24-5.38v-7.2H311v6.81c0 2.33.71 3.91 2.75 3.91a3.24 3.24 0 0 0 2.94-2 3.17 3.17 0 0 0 .2-1.14v-7.58h2.24zM334 46.59c0 4.55-3.15 6.53-6.12 6.53-3.33 0-5.89-2.44-5.89-6.32 0-4.12 2.69-6.53 6.09-6.53s5.92 2.57 5.92 6.32zm-9.75.13c0 2.69 1.54 4.72 3.73 4.72s3.73-2 3.73-4.77c0-2.08-1-4.72-3.68-4.72s-3.78 2.44-3.78 4.77zM339.5 37v3.53h3.2v1.7h-3.2v6.63c0 1.52.44 2.39 1.68 2.39a4.82 4.82 0 0 0 1.3-.16l.1 1.68a5.44 5.44 0 0 1-2 .3 3.12 3.12 0 0 1-2.42-.94 4.56 4.56 0 0 1-.86-3.19v-6.69h-1.9v-1.7h1.9v-2.94zM347.7 37.1a1.31 1.31 0 0 1-1.42 1.37 1.33 1.33 0 0 1-1.34-1.37 1.36 1.36 0 0 1 1.39-1.4 1.33 1.33 0 0 1 1.37 1.4zm-2.48 15.74V40.55h2.23v12.29zM351.16 43.88c0-1.27 0-2.31-.1-3.33h2l.12 2a4.52 4.52 0 0 1 4.07-2.31c1.7 0 4.34 1 4.34 5.23v7.34h-2.24v-7.05c0-2-.73-3.63-2.84-3.63a3.18 3.18 0 0 0-3 2.28 3.26 3.26 0 0 0-.15 1v7.39h-2.23zM375.84 40.55c-.06.89-.11 1.88-.11 3.38v7.13c0 2.82-.55 4.55-1.75 5.61a6.5 6.5 0 0 1-4.47 1.48 7.91 7.91 0 0 1-4.08-1l.55-1.7a7 7 0 0 0 3.61 1c2.28 0 4-1.19 4-4.29v-1.43h-.05a4.38 4.38 0 0 1-3.91 2.06c-3 0-5.23-2.59-5.23-6 0-4.17 2.72-6.53 5.53-6.53a4.11 4.11 0 0 1 3.84 2.13l.1-1.85zm-2.31 4.85a3.17 3.17 0 0 0-.13-1 3.22 3.22 0 0 0-3.12-2.4c-2.14 0-3.66 1.81-3.66 4.65 0 2.41 1.22 4.42 3.63 4.42a3.28 3.28 0 0 0 3.1-2.29 4.09 4.09 0 0 0 .18-1.19zM387.51 37v3.53h3.2v1.7h-3.2v6.63c0 1.52.43 2.39 1.68 2.39a4.73 4.73 0 0 0 1.29-.16l.11 1.68a5.48 5.48 0 0 1-2 .3 3.11 3.11 0 0 1-2.42-.94 4.56 4.56 0 0 1-.86-3.19v-6.69h-1.9v-1.7h1.9v-2.94zM404.19 46.59c0 4.55-3.14 6.53-6.12 6.53-3.32 0-5.89-2.44-5.89-6.32 0-4.12 2.7-6.53 6.1-6.53s5.91 2.57 5.91 6.32zm-9.75.13c0 2.69 1.55 4.72 3.74 4.72s3.73-2 3.73-4.77c0-2.08-1-4.72-3.68-4.72s-3.79 2.44-3.79 4.77zM418.13 46.59c0 4.55-3.15 6.53-6.12 6.53-3.32 0-5.89-2.44-5.89-6.32 0-4.12 2.69-6.53 6.1-6.53s5.91 2.57 5.91 6.32zm-9.75.13c0 2.69 1.55 4.72 3.73 4.72s3.74-2 3.74-4.77c0-2.08-1-4.72-3.68-4.72s-3.79 2.44-3.79 4.77zM421 34.81h2.23v18H421zM426.64 50.56a5.84 5.84 0 0 0 2.94.88c1.63 0 2.39-.81 2.39-1.82s-.64-1.65-2.29-2.26c-2.21-.79-3.25-2-3.25-3.48 0-2 1.6-3.61 4.24-3.61a6.16 6.16 0 0 1 3 .76l-.55 1.63a4.76 4.76 0 0 0-2.52-.71c-1.32 0-2.05.76-2.05 1.67s.73 1.48 2.33 2.09c2.13.81 3.23 1.87 3.23 3.7 0 2.16-1.68 3.68-4.6 3.68a7.09 7.09 0 0 1-3.45-.83zM304.42 96.08a16.12 16.12 0 0 1-5.26.94 8 8 0 0 1-8.78-8.63c0-5.11 3.53-8.84 9.27-8.84a10.47 10.47 0 0 1 4.26.79l-.53 1.8a8.85 8.85 0 0 0-3.79-.74c-4.16 0-6.88 2.59-6.88 6.88s2.62 6.91 6.61 6.91a7.09 7.09 0 0 0 2.94-.46v-5.1h-3.48v-1.78h5.64zM318 93.49c0 1.27 0 2.39.1 3.35h-2l-.13-2h-.05a4.61 4.61 0 0 1-4.06 2.29c-1.93 0-4.24-1.07-4.24-5.38v-7.2h2.24v6.81c0 2.33.71 3.91 2.74 3.91a3.22 3.22 0 0 0 2.94-2 3.17 3.17 0 0 0 .21-1.14v-7.58H318zM324.19 81.1a1.31 1.31 0 0 1-1.42 1.37 1.33 1.33 0 0 1-1.34-1.37 1.36 1.36 0 0 1 1.39-1.4 1.33 1.33 0 0 1 1.37 1.4zm-2.48 15.74V84.55h2.23v12.29zM338.26 78.81v14.86c0 1.09 0 2.33.1 3.17h-2l-.11-2.13h-.05a4.54 4.54 0 0 1-4.2 2.41c-3 0-5.25-2.51-5.25-6.25 0-4.08 2.51-6.6 5.51-6.6a4.12 4.12 0 0 1 3.74 1.88v-7.34zM336 89.55a3.77 3.77 0 0 0-.11-.94A3.28 3.28 0 0 0 332.7 86c-2.31 0-3.68 2-3.68 4.75 0 2.49 1.22 4.55 3.63 4.55a3.35 3.35 0 0 0 3.27-2.67 3.67 3.67 0 0 0 .11-1zM343.21 91.1c.05 3 2 4.27 4.22 4.27a8 8 0 0 0 3.4-.64l.38 1.6a9.89 9.89 0 0 1-4.09.76c-3.78 0-6-2.48-6-6.19s2.18-6.63 5.76-6.63c4 0 5.08 3.53 5.08 5.79a7.43 7.43 0 0 1-.08 1zm6.55-1.6c0-1.42-.58-3.63-3.1-3.63-2.26 0-3.25 2.08-3.42 3.63zM365.3 78.81v14.86c0 1.09 0 2.33.1 3.17h-2l-.11-2.13h-.05a4.54 4.54 0 0 1-4.19 2.41c-3 0-5.25-2.51-5.25-6.25 0-4.08 2.51-6.6 5.51-6.6a4.09 4.09 0 0 1 3.7 1.88h.06v-7.34zm-2.23 10.74a3.77 3.77 0 0 0-.11-.94 3.29 3.29 0 0 0-3.22-2.61c-2.31 0-3.68 2-3.68 4.75 0 2.49 1.22 4.55 3.63 4.55a3.35 3.35 0 0 0 3.31-2.65 3.67 3.67 0 0 0 .11-1zM374.08 94.56a5.88 5.88 0 0 0 2.95.88c1.62 0 2.38-.81 2.38-1.82s-.63-1.65-2.28-2.26c-2.21-.79-3.25-2-3.25-3.48 0-2 1.6-3.61 4.24-3.61a6.19 6.19 0 0 1 3 .76l-.56 1.63a4.72 4.72 0 0 0-2.51-.71c-1.32 0-2.06.76-2.06 1.67s.74 1.48 2.34 2.09c2.13.81 3.22 1.87 3.22 3.7 0 2.16-1.67 3.68-4.59 3.68a7.13 7.13 0 0 1-3.46-.83zM385.69 91.1c.05 3 2 4.27 4.21 4.27a8 8 0 0 0 3.4-.64l.38 1.6a9.83 9.83 0 0 1-4.08.76c-3.79 0-6.05-2.48-6.05-6.19s2.19-6.63 5.77-6.63c4 0 5.07 3.53 5.07 5.79a10 10 0 0 1-.07 1zm6.55-1.6c0-1.42-.59-3.63-3.1-3.63-2.26 0-3.25 2.08-3.43 3.63zM397.16 78.81h2.24v18h-2.24zM403.15 78.81h2.24v18h-2.24zM411.63 81.1a1.31 1.31 0 0 1-1.42 1.37 1.33 1.33 0 0 1-1.35-1.37 1.37 1.37 0 0 1 1.4-1.4 1.33 1.33 0 0 1 1.37 1.4zm-2.49 15.74V84.55h2.24v12.29zM415.08 87.88c0-1.27 0-2.31-.1-3.33h2l.13 2h.05a4.51 4.51 0 0 1 4.06-2.31c1.7 0 4.34 1 4.34 5.23v7.34h-2.23v-7.05c0-2-.74-3.63-2.84-3.63a3.17 3.17 0 0 0-3 2.28 3.26 3.26 0 0 0-.15 1v7.39h-2.24zM439.76 84.55c-.05.89-.1 1.88-.1 3.38v7.13c0 2.82-.56 4.55-1.75 5.61a6.5 6.5 0 0 1-4.47 1.48 8 8 0 0 1-4.09-1l.56-1.7a6.9 6.9 0 0 0 3.61 1c2.28 0 4-1.19 4-4.29v-1.43h-.05a4.38 4.38 0 0 1-3.91 2.06c-3 0-5.23-2.59-5.23-6 0-4.17 2.71-6.53 5.53-6.53a4.09 4.09 0 0 1 3.83 2.13h.06l.1-1.85zm-2.31 4.85a2.91 2.91 0 0 0-.13-1 3.21 3.21 0 0 0-3.12-2.4c-2.13 0-3.65 1.81-3.65 4.65 0 2.41 1.21 4.42 3.63 4.42a3.26 3.26 0 0 0 3.09-2.29 3.78 3.78 0 0 0 .18-1.19zM305.82 133.32c-.13-2.38-.28-5.25-.26-7.38h-.08c-.58 2-1.29 4.13-2.15 6.5l-3 8.3h-1.68l-2.77-8.15c-.81-2.41-1.5-4.62-2-6.65h-.05c-.05 2.13-.18 5-.33 7.56l-.46 7.34h-2.1l1.19-17.11H295l2.92 8.27c.71 2.11 1.29 4 1.72 5.77h.08c.43-1.73 1-3.61 1.8-5.77l3-8.27h2.82l1.06 17.11h-2.15zM318.69 140.84l-.18-1.55h-.08a4.55 4.55 0 0 1-3.76 1.83 3.5 3.5 0 0 1-3.75-3.53c0-3 2.64-4.6 7.39-4.57v-.25a2.54 2.54 0 0 0-2.8-2.85 6.14 6.14 0 0 0-3.2.92l-.5-1.48a7.58 7.58 0 0 1 4-1.09c3.76 0 4.67 2.57 4.67 5v4.59a17.55 17.55 0 0 0 .21 3zm-.33-6.27c-2.44 0-5.21.38-5.21 2.77a2 2 0 0 0 2.11 2.13 3.06 3.06 0 0 0 3-2.06 2.22 2.22 0 0 0 .13-.71zM323.81 138.56a5.88 5.88 0 0 0 2.95.88c1.62 0 2.39-.81 2.39-1.82s-.64-1.65-2.29-2.26c-2.21-.79-3.25-2-3.25-3.48 0-2 1.6-3.61 4.24-3.61a6.16 6.16 0 0 1 3 .76l-.56 1.63a4.72 4.72 0 0 0-2.51-.71c-1.32 0-2.06.76-2.06 1.67s.74 1.48 2.34 2.09c2.13.81 3.22 1.87 3.22 3.7 0 2.16-1.67 3.68-4.59 3.68a7.06 7.06 0 0 1-3.45-.83zM336.86 125v3.53h3.2v1.7h-3.2v6.63c0 1.52.44 2.39 1.68 2.39a4.67 4.67 0 0 0 1.29-.16l.11 1.68a5.48 5.48 0 0 1-2 .3 3.11 3.11 0 0 1-2.42-.94 4.56 4.56 0 0 1-.86-3.19v-6.71h-1.9v-1.7h1.9v-2.94zM343.67 135.1c.05 3 2 4.27 4.21 4.27a8 8 0 0 0 3.4-.64l.39 1.6a9.93 9.93 0 0 1-4.09.76c-3.79 0-6.05-2.48-6.05-6.19s2.19-6.63 5.77-6.63c4 0 5.08 3.53 5.08 5.79a7.43 7.43 0 0 1-.08 1zm6.55-1.6c0-1.42-.59-3.63-3.1-3.63-2.26 0-3.25 2.08-3.43 3.63zM355.14 132.39c0-1.45 0-2.7-.1-3.84h2l.07 2.41h.1a3.69 3.69 0 0 1 3.41-2.69 2.41 2.41 0 0 1 .63.08v2.11a2.91 2.91 0 0 0-.76-.08 3.14 3.14 0 0 0-3 2.87 6.33 6.33 0 0 0-.1 1v6.55h-2.21zM379.44 122.81v14.86c0 1.09 0 2.33.1 3.17h-2l-.11-2.13h-.05a4.54 4.54 0 0 1-4.19 2.41c-3 0-5.25-2.51-5.25-6.25 0-4.08 2.51-6.6 5.51-6.6a4.09 4.09 0 0 1 3.7 1.88h.06v-7.34zm-2.23 10.74a3.77 3.77 0 0 0-.11-.94 3.28 3.28 0 0 0-3.22-2.59c-2.31 0-3.68 2-3.68 4.75 0 2.49 1.22 4.55 3.63 4.55a3.35 3.35 0 0 0 3.27-2.67 3.67 3.67 0 0 0 .11-1zM390 140.84l-.18-1.55h-.07a4.58 4.58 0 0 1-3.76 1.83 3.5 3.5 0 0 1-3.76-3.53c0-3 2.64-4.6 7.39-4.57v-.25a2.54 2.54 0 0 0-2.79-2.85 6.09 6.09 0 0 0-3.2.92l-.51-1.48a7.65 7.65 0 0 1 4-1.09c3.75 0 4.67 2.57 4.67 5v4.59a17.62 17.62 0 0 0 .2 3zm-.33-6.27c-2.44 0-5.2.38-5.2 2.77a2 2 0 0 0 2.1 2.13 3.05 3.05 0 0 0 3-2.06 2.22 2.22 0 0 0 .13-.71zM398 125v3.53h3.2v1.7H398v6.63c0 1.52.43 2.39 1.68 2.39a4.73 4.73 0 0 0 1.29-.16l.11 1.68a5.48 5.48 0 0 1-2 .3 3.11 3.11 0 0 1-2.42-.94 4.56 4.56 0 0 1-.86-3.19v-6.71h-1.9v-1.7h1.9v-2.94zM410.49 140.84l-.18-1.55h-.07a4.58 4.58 0 0 1-3.76 1.83 3.5 3.5 0 0 1-3.76-3.53c0-3 2.64-4.6 7.39-4.57v-.25a2.54 2.54 0 0 0-2.79-2.85 6.09 6.09 0 0 0-3.2.92l-.51-1.48a7.62 7.62 0 0 1 4-1.09c3.75 0 4.67 2.57 4.67 5v4.59a17.62 17.62 0 0 0 .2 3zm-.33-6.27c-2.44 0-5.21.38-5.21 2.77a2 2 0 0 0 2.11 2.13 3.05 3.05 0 0 0 3-2.06 2.22 2.22 0 0 0 .13-.71zM421.3 131.88c0-1.27 0-2.31-.1-3.33h2l.1 2h.08a4.21 4.21 0 0 1 3.85-2.26 3.63 3.63 0 0 1 3.48 2.46h.05a5.18 5.18 0 0 1 1.38-1.59 4.15 4.15 0 0 1 2.71-.87c1.63 0 4 1.07 4 5.33v7.24h-2.18v-7c0-2.36-.87-3.78-2.67-3.78a2.89 2.89 0 0 0-2.64 2 3.75 3.75 0 0 0-.18 1.12v7.59H429v-7.36c0-2-.87-3.38-2.57-3.38a3.33 3.33 0 0 0-2.94 3.33v7.41h-2.19zM449.28 140.84l-.17-1.55H449a4.58 4.58 0 0 1-3.76 1.83 3.5 3.5 0 0 1-3.76-3.53c0-3 2.64-4.6 7.39-4.57v-.25a2.54 2.54 0 0 0-2.79-2.85 6.11 6.11 0 0 0-3.2.92l-.51-1.48a7.65 7.65 0 0 1 4-1.09c3.76 0 4.67 2.57 4.67 5v4.59a17.62 17.62 0 0 0 .2 3zm-.33-6.27c-2.43 0-5.2.38-5.2 2.77a2 2 0 0 0 2.11 2.13 3.07 3.07 0 0 0 3-2.06 2.52 2.52 0 0 0 .12-.71zM454.72 131.88c0-1.27 0-2.31-.11-3.33h2l.13 2a4.51 4.51 0 0 1 4.06-2.31c1.71 0 4.35 1 4.35 5.23v7.34h-2.24v-7.08c0-2-.73-3.63-2.84-3.63a3.18 3.18 0 0 0-3 2.28 3.26 3.26 0 0 0-.15 1v7.39h-2.23zM475.61 140.84l-.18-1.55h-.07a4.58 4.58 0 0 1-3.76 1.83 3.5 3.5 0 0 1-3.76-3.53c0-3 2.64-4.6 7.39-4.57v-.25a2.54 2.54 0 0 0-2.79-2.85 6.09 6.09 0 0 0-3.2.92l-.51-1.48a7.65 7.65 0 0 1 4-1.09c3.76 0 4.67 2.57 4.67 5v4.59a17.62 17.62 0 0 0 .2 3zm-.33-6.27c-2.44 0-5.2.38-5.2 2.77a2 2 0 0 0 2.1 2.13 3.05 3.05 0 0 0 3-2.06 2.22 2.22 0 0 0 .13-.71zM491.63 128.55c-.05.89-.1 1.88-.1 3.38v7.13c0 2.82-.56 4.55-1.75 5.61a6.52 6.52 0 0 1-4.47 1.48 8 8 0 0 1-4.09-1l.56-1.7a6.9 6.9 0 0 0 3.61 1c2.28 0 4-1.19 4-4.29v-1.37h-.05a4.38 4.38 0 0 1-3.91 2.06c-3.05 0-5.24-2.59-5.24-6 0-4.17 2.72-6.53 5.54-6.53a4.09 4.09 0 0 1 3.83 2.13h.05l.11-1.85zm-2.31 4.85a2.91 2.91 0 0 0-.13-1 3.21 3.21 0 0 0-3.12-2.37c-2.13 0-3.66 1.81-3.66 4.65 0 2.41 1.22 4.42 3.64 4.42a3.26 3.26 0 0 0 3.09-2.29 3.78 3.78 0 0 0 .18-1.19zM496.48 135.1c0 3 2 4.27 4.21 4.27a8 8 0 0 0 3.41-.64l.38 1.6a9.93 9.93 0 0 1-4.09.76c-3.78 0-6-2.48-6-6.19s2.18-6.63 5.76-6.63c4 0 5.08 3.53 5.08 5.79a7.43 7.43 0 0 1-.08 1zm6.55-1.6c0-1.42-.58-3.63-3.1-3.63-2.26 0-3.25 2.08-3.43 3.63zM508 131.88c0-1.27 0-2.31-.1-3.33h2l.1 2a4.22 4.22 0 0 1 3.86-2.26 3.63 3.63 0 0 1 3.47 2.46 5.18 5.18 0 0 1 1.38-1.59 4.15 4.15 0 0 1 2.71-.87c1.63 0 4 1.07 4 5.33v7.24h-2.18v-7c0-2.36-.87-3.78-2.67-3.78a2.89 2.89 0 0 0-2.64 2 3.75 3.75 0 0 0-.18 1.12v7.59h-2.18v-7.36c0-2-.87-3.38-2.57-3.38a3.33 3.33 0 0 0-2.94 3.33v7.41H508zM530.37 135.1c0 3 2 4.27 4.22 4.27a8 8 0 0 0 3.4-.64l.38 1.6a9.89 9.89 0 0 1-4.09.76c-3.78 0-6-2.48-6-6.19s2.18-6.63 5.76-6.63c4 0 5.08 3.53 5.08 5.79a10 10 0 0 1-.07 1zm6.55-1.6c0-1.42-.58-3.63-3.09-3.63-2.26 0-3.25 2.08-3.43 3.63zM541.85 131.88c0-1.27 0-2.31-.1-3.33h2l.12 2a4.53 4.53 0 0 1 4.07-2.31c1.7 0 4.34 1 4.34 5.23v7.34h-2.24v-7.08c0-2-.73-3.63-2.84-3.63a3.19 3.19 0 0 0-3 2.28 3.26 3.26 0 0 0-.15 1v7.39h-2.23zM558.53 125v3.53h3.2v1.7h-3.2v6.63c0 1.52.43 2.39 1.67 2.39a4.76 4.76 0 0 0 1.3-.16l.1 1.68a5.44 5.44 0 0 1-2 .3 3.09 3.09 0 0 1-2.41-.94 4.51 4.51 0 0 1-.86-3.19v-6.71h-1.91v-1.7h1.91v-2.94zM291.39 168a22.9 22.9 0 0 1 4.24-.36c2.36 0 3.89.43 4.95 1.4a4.24 4.24 0 0 1 1.35 3.25 4.48 4.48 0 0 1-3.22 4.36v.08c1.32.46 2.1 1.68 2.51 3.45a26.91 26.91 0 0 0 1.32 4.7h-2.29a22.63 22.63 0 0 1-1.14-4.09c-.51-2.36-1.42-3.25-3.43-3.32h-2.08v7.41h-2.21zm2.21 7.79h2.26c2.36 0 3.86-1.29 3.86-3.25 0-2.21-1.6-3.17-3.93-3.2a9.3 9.3 0 0 0-2.19.2zM306.32 179.1c.05 3 2 4.27 4.22 4.27a8 8 0 0 0 3.4-.64l.38 1.6a9.89 9.89 0 0 1-4.09.76c-3.78 0-6-2.48-6-6.19s2.18-6.63 5.76-6.63c4 0 5.08 3.53 5.08 5.79a7.43 7.43 0 0 1-.08 1zm6.55-1.6c0-1.42-.58-3.63-3.09-3.63-2.26 0-3.25 2.08-3.43 3.63zM326.56 184.38a8.18 8.18 0 0 1-3.53.71c-3.71 0-6.12-2.51-6.12-6.27a6.24 6.24 0 0 1 6.6-6.52 7.57 7.57 0 0 1 3.1.63l-.51 1.73a5.1 5.1 0 0 0-2.59-.59c-2.82 0-4.34 2.09-4.34 4.65 0 2.84 1.83 4.6 4.26 4.6a6.39 6.39 0 0 0 2.75-.61zM340.14 178.59c0 4.55-3.15 6.53-6.12 6.53-3.33 0-5.89-2.44-5.89-6.32 0-4.12 2.69-6.53 6.09-6.53s5.92 2.57 5.92 6.32zm-9.75.13c0 2.69 1.55 4.72 3.73 4.72s3.74-2 3.74-4.77c0-2.08-1.05-4.72-3.69-4.72s-3.78 2.44-3.78 4.77zM343 175.88c0-1.27 0-2.31-.1-3.33h1.95l.1 2h.05a4.23 4.23 0 0 1 3.86-2.26 3.65 3.65 0 0 1 3.48 2.46h.05a5 5 0 0 1 1.37-1.59 4.18 4.18 0 0 1 2.72-.87c1.62 0 4 1.07 4 5.33v7.24h-2.18v-7c0-2.36-.86-3.78-2.67-3.78a2.89 2.89 0 0 0-2.64 2 3.75 3.75 0 0 0-.18 1.12v7.59h-2.18v-7.36c0-2-.86-3.38-2.56-3.38a3.33 3.33 0 0 0-2.95 3.33v7.41H343zM364.13 175.88c0-1.27 0-2.31-.1-3.33h2l.11 2h.07a4.24 4.24 0 0 1 3.86-2.26 3.63 3.63 0 0 1 3.48 2.46h.05a5 5 0 0 1 1.37-1.59 4.2 4.2 0 0 1 2.72-.87c1.62 0 4 1.07 4 5.33v7.24h-2.19v-7c0-2.36-.86-3.78-2.66-3.78a2.89 2.89 0 0 0-2.64 2 3.46 3.46 0 0 0-.18 1.12v7.59h-2.19v-7.36c0-2-.86-3.38-2.56-3.38a3.06 3.06 0 0 0-2.77 2.23 3.29 3.29 0 0 0-.17 1.1v7.41h-2.19zM386.55 179.1c.05 3 2 4.27 4.21 4.27a8 8 0 0 0 3.41-.64l.38 1.6a9.93 9.93 0 0 1-4.09.76c-3.78 0-6-2.48-6-6.19s2.18-6.63 5.76-6.63c4 0 5.08 3.53 5.08 5.79a7.43 7.43 0 0 1-.08 1zm6.55-1.6c0-1.42-.58-3.63-3.1-3.63-2.26 0-3.25 2.08-3.43 3.63zM398 175.88c0-1.27 0-2.31-.11-3.33h2l.13 2h.05a4.51 4.51 0 0 1 4.06-2.31c1.71 0 4.35 1 4.35 5.23v7.34h-2.24v-7.08c0-2-.73-3.63-2.84-3.63a3.18 3.18 0 0 0-3 2.28 3.26 3.26 0 0 0-.15 1v7.39H398zM422.73 166.81v14.86c0 1.09 0 2.33.1 3.17h-2l-.1-2.13h-.05a4.54 4.54 0 0 1-4.19 2.41c-3 0-5.25-2.51-5.25-6.25 0-4.08 2.51-6.6 5.51-6.6a4.09 4.09 0 0 1 3.7 1.88h.05v-7.34zm-2.24 10.74a3.76 3.76 0 0 0-.1-.94 3.29 3.29 0 0 0-3.22-2.59c-2.31 0-3.68 2-3.68 4.75 0 2.49 1.22 4.55 3.63 4.55a3.35 3.35 0 0 0 3.27-2.67 3.68 3.68 0 0 0 .1-1zM433.24 184.84l-.18-1.55H433a4.58 4.58 0 0 1-3.76 1.83 3.5 3.5 0 0 1-3.76-3.53c0-3 2.64-4.6 7.39-4.57v-.25a2.54 2.54 0 0 0-2.79-2.85 6.09 6.09 0 0 0-3.2.92l-.51-1.48a7.62 7.62 0 0 1 4-1.09c3.75 0 4.67 2.57 4.67 5v4.59a17.62 17.62 0 0 0 .2 3zm-.33-6.27c-2.44 0-5.21.38-5.21 2.77a2 2 0 0 0 2.11 2.13 3.05 3.05 0 0 0 3-2.06 2.22 2.22 0 0 0 .13-.71zM441.26 169v3.53h3.2v1.7h-3.2v6.63c0 1.52.43 2.39 1.68 2.39a4.73 4.73 0 0 0 1.29-.16l.1 1.68a5.4 5.4 0 0 1-2 .3 3.1 3.1 0 0 1-2.41-.94 4.56 4.56 0 0 1-.86-3.19v-6.71h-1.91v-1.7h1.91v-2.94zM449.46 169.1a1.31 1.31 0 0 1-1.42 1.37 1.33 1.33 0 0 1-1.35-1.37 1.37 1.37 0 0 1 1.4-1.4 1.33 1.33 0 0 1 1.37 1.4zM447 184.84v-12.29h2.24v12.29zM464 178.59c0 4.55-3.15 6.53-6.12 6.53-3.33 0-5.89-2.44-5.89-6.32 0-4.12 2.69-6.53 6.09-6.53s5.92 2.57 5.92 6.32zm-9.75.13c0 2.69 1.54 4.72 3.73 4.72s3.73-2 3.73-4.77c0-2.08-1-4.72-3.68-4.72s-3.74 2.44-3.74 4.77zM466.85 175.88c0-1.27 0-2.31-.1-3.33h2l.13 2h.05a4.51 4.51 0 0 1 4.06-2.31c1.7 0 4.34 1 4.34 5.23v7.34h-2.23v-7.08c0-2-.74-3.63-2.84-3.63a3.17 3.17 0 0 0-3 2.28 3.26 3.26 0 0 0-.15 1v7.39h-2.24zM487.57 179.1c.05 3 2 4.27 4.21 4.27a8 8 0 0 0 3.41-.64l.38 1.6a9.89 9.89 0 0 1-4.09.76c-3.78 0-6-2.48-6-6.19s2.18-6.63 5.76-6.63c4 0 5.08 3.53 5.08 5.79a7.43 7.43 0 0 1-.08 1zm6.55-1.6c0-1.42-.58-3.63-3.1-3.63-2.26 0-3.25 2.08-3.42 3.63zM499.05 175.88c0-1.27 0-2.31-.11-3.33h2l.13 2h.05a4.51 4.51 0 0 1 4.06-2.31c1.71 0 4.35 1 4.35 5.23v7.34h-2.24v-7.08c0-2-.73-3.63-2.84-3.63a3.18 3.18 0 0 0-3 2.28 3.26 3.26 0 0 0-.15 1v7.39h-2.23zM523.72 172.55c-.05.89-.1 1.88-.1 3.38v7.13c0 2.82-.56 4.55-1.75 5.61a6.5 6.5 0 0 1-4.47 1.48 8 8 0 0 1-4.09-1l.56-1.7a6.93 6.93 0 0 0 3.61 1c2.28 0 4-1.19 4-4.29v-1.37h-.05a4.38 4.38 0 0 1-3.91 2.06c-3.05 0-5.23-2.59-5.23-6 0-4.17 2.71-6.53 5.53-6.53a4.11 4.11 0 0 1 3.84 2.13l.1-1.85zm-2.31 4.85a3.18 3.18 0 0 0-.12-1 3.23 3.23 0 0 0-3.13-2.37c-2.13 0-3.65 1.81-3.65 4.65 0 2.41 1.22 4.42 3.63 4.42a3.28 3.28 0 0 0 3.1-2.29 4.08 4.08 0 0 0 .17-1.19zM529.66 169.1a1.31 1.31 0 0 1-1.42 1.37 1.33 1.33 0 0 1-1.34-1.37 1.36 1.36 0 0 1 1.39-1.4 1.33 1.33 0 0 1 1.37 1.4zm-2.48 15.74v-12.29h2.23v12.29zM533.12 175.88c0-1.27 0-2.31-.1-3.33h2l.12 2a4.52 4.52 0 0 1 4.07-2.31c1.7 0 4.34 1 4.34 5.23v7.34h-2.24v-7.08c0-2-.73-3.63-2.84-3.63a3.18 3.18 0 0 0-3 2.28 3.26 3.26 0 0 0-.15 1v7.39h-2.23zM548.45 179.1c0 3 2 4.27 4.22 4.27a8 8 0 0 0 3.4-.64l.38 1.6a9.89 9.89 0 0 1-4.09.76c-3.78 0-6-2.48-6-6.19s2.18-6.63 5.76-6.63c4 0 5.08 3.53 5.08 5.79a7.43 7.43 0 0 1-.08 1zm6.55-1.6c0-1.42-.58-3.63-3.1-3.63-2.25 0-3.25 2.08-3.42 3.63z"/>
  <circle class="cls-4" cx="266.36" cy="46" r="4.5"/>
  <circle class="cls-4" cx="266.37" cy="88.97" r="4.5"/>
  <circle class="cls-4" cx="266.39" cy="131.93" r="4.5"/>
  <circle class="cls-4" cx="266.4" cy="176.89" r="4.5"/>
  <circle class="cls-4" cx="266.36" cy="269" r="4.5"/>
  <circle class="cls-4" cx="266.37" cy="311.97" r="4.5"/>
  <circle class="cls-4" cx="266.39" cy="354.93" r="4.5"/>
  <circle class="cls-4" cx="266.4" cy="399.89" r="4.5"/>
  <circle class="cls-4" cx="266.36" cy="500" r="4.5"/>
  <circle class="cls-4" cx="266.37" cy="542.97" r="4.5"/>
  <circle class="cls-4" cx="266.39" cy="585.93" r="4.5"/>
  <circle class="cls-4" cx="266.4" cy="630.89" r="4.5"/>
  <path class="cls-3" d="M53.28 372.2a36.2 36.2 0 0 1 6.36-.47c3 0 5.28.64 6.73 1.86a6.44 6.44 0 0 1 2.24 5.05 6.91 6.91 0 0 1-2 5.17c-1.66 1.66-4.27 2.44-7.21 2.44a11.91 11.91 0 0 1-2-.13v8.59h-4.12zm4.13 10.63a8.1 8.1 0 0 0 2 .17c3.11 0 5-1.52 5-4.2s-1.75-3.89-4.63-3.89a10.79 10.79 0 0 0-2.4.21zM71.62 383.54c0-2.23 0-3.82-.13-5.31h3.62l.14 3.15h.13a4.91 4.91 0 0 1 4.5-3.52 4.16 4.16 0 0 1 1 .1v3.92a6.3 6.3 0 0 0-1.21-.13 3.68 3.68 0 0 0-3.73 3.15 6.91 6.91 0 0 0-.13 1.28v8.53h-4.19zM99 386.32c0 6.06-4.26 8.76-8.46 8.76-4.67 0-8.26-3.21-8.26-8.49s3.55-8.73 8.53-8.73 8.19 3.45 8.19 8.46zm-12.42.17c0 3.18 1.56 5.58 4.09 5.58 2.37 0 4-2.33 4-5.65 0-2.57-1.15-5.52-4-5.52s-4.05 2.85-4.05 5.59zM102.94 394.71v-13.37h-2.24v-3.11h2.24v-.78c0-4.43 3.08-7.14 8-7.14a9.76 9.76 0 0 1 4.54 1.05l-.92 3.15a7.52 7.52 0 0 0-3.62-.88c-2.91 0-3.85 1.76-3.85 3.92v.68h9.84v16.48h-4.19v-13.37h-5.64v13.37zM126.16 373.52v4.71h4v3.11h-4v7.28c0 2 .54 3.05 2.13 3.05a6.12 6.12 0 0 0 1.62-.21l.07 3.18a9 9 0 0 1-3 .41 4.86 4.86 0 0 1-3.59-1.35c-.88-.95-1.28-2.44-1.28-4.61v-7.75h-2.37v-3.11h2.37v-3.72zM142.54 394.71l-.27-1.83h-.1a6.12 6.12 0 0 1-4.88 2.2 4.89 4.89 0 0 1-5.17-4.9c0-4.17 3.69-6.27 9.78-6.23v-.27c0-1.08-.44-2.88-3.35-2.88a8.75 8.75 0 0 0-4.44 1.22l-.81-2.71a11.93 11.93 0 0 1 6-1.45c5.28 0 6.8 3.35 6.8 6.93v6a26.23 26.23 0 0 0 .24 4zm-.54-8c-2.95-.07-5.76.57-5.76 3.08a2.19 2.19 0 0 0 2.37 2.37 3.38 3.38 0 0 0 3.25-2.27 3.12 3.12 0 0 0 .14-.92zM150.33 394.71c.07-1.12.13-2.94.13-4.64v-19.39h4.17v9.82h.06a6 6 0 0 1 5.28-2.64c4 0 6.91 3.35 6.87 8.36 0 5.92-3.75 8.86-7.48 8.86a5.67 5.67 0 0 1-5.21-2.84h-.07l-.2 2.47zm4.3-6.8a4.4 4.4 0 0 0 .1 1 3.83 3.83 0 0 0 3.69 2.91c2.6 0 4.19-2.1 4.19-5.41 0-2.92-1.38-5.28-4.16-5.28a3.89 3.89 0 0 0-3.69 3 4.91 4.91 0 0 0-.13 1.08zM174.7 373.63a2.34 2.34 0 1 1-2.34-2.27 2.2 2.2 0 0 1 2.34 2.27zm-4.43 21.08v-16.48h4.19v16.48zM178.93 370.68h4.2v24h-4.2zM192.06 373.63a2.34 2.34 0 0 1-4.67 0 2.34 2.34 0 0 1 4.67 0zm-4.43 21.08v-16.48h4.2v16.48zM201.07 373.52v4.71h4v3.11h-4v7.28c0 2 .54 3.05 2.13 3.05a6.27 6.27 0 0 0 1.63-.21l.06 3.18a9 9 0 0 1-3 .41 4.86 4.86 0 0 1-3.59-1.35c-.88-.95-1.28-2.44-1.28-4.61v-7.75h-2.37v-3.11H197v-3.72zM211 378.23l3 8.83c.34 1 .68 2.27.91 3.22h.1c.28-.95.58-2.17.88-3.25l2.58-8.8h4.46l-4.12 11.24c-2.27 6.15-3.8 8.9-5.76 10.59a8.37 8.37 0 0 1-4.36 2.13l-.95-3.52a7.06 7.06 0 0 0 2.43-1.15 7.21 7.21 0 0 0 2.27-2.61 1.64 1.64 0 0 0 .27-.74 1.74 1.74 0 0 0-.23-.81l-6-15.13zM293.6 261.73v17.11h-2.21v-17.11zM297.64 269.88c0-1.27 0-2.31-.1-3.33h2l.12 2h.05a4.53 4.53 0 0 1 4.07-2.31c1.7 0 4.34 1 4.34 5.23v7.34h-2.24v-7.08c0-2-.73-3.63-2.84-3.63a3.17 3.17 0 0 0-3 2.28 3 3 0 0 0-.16 1v7.39h-2.23zM312.26 266.55l2.41 6.91a28.92 28.92 0 0 1 1 3.15h.08c.28-1 .64-2 1-3.15l2.39-6.91h2.33l-4.82 12.29h-2.13l-4.67-12.29zM334.48 272.59c0 4.55-3.15 6.53-6.12 6.53-3.33 0-5.89-2.44-5.89-6.32 0-4.12 2.69-6.53 6.09-6.53s5.92 2.57 5.92 6.32zm-9.75.13c0 2.69 1.55 4.72 3.73 4.72s3.73-2 3.73-4.77c0-2.08-1-4.72-3.68-4.72s-3.78 2.44-3.78 4.77zM339.78 263.1a1.38 1.38 0 0 1-2.76 0 1.36 1.36 0 0 1 1.39-1.4 1.33 1.33 0 0 1 1.37 1.4zm-2.48 15.74v-12.29h2.23v12.29zM352 278.38a8.18 8.18 0 0 1-3.53.71c-3.71 0-6.12-2.51-6.12-6.27a6.24 6.24 0 0 1 6.6-6.52 7.57 7.57 0 0 1 3.1.63l-.51 1.73a5.1 5.1 0 0 0-2.59-.59c-2.82 0-4.34 2.09-4.34 4.65 0 2.84 1.83 4.6 4.26 4.6a6.31 6.31 0 0 0 2.74-.61zM355.7 273.1c.05 3 2 4.27 4.22 4.27a8 8 0 0 0 3.4-.64l.38 1.6a9.89 9.89 0 0 1-4.09.76c-3.78 0-6-2.48-6-6.19s2.18-6.63 5.76-6.63c4 0 5.08 3.53 5.08 5.79a10 10 0 0 1-.07 1zm6.55-1.6c0-1.42-.58-3.63-3.09-3.63-2.26 0-3.25 2.08-3.43 3.63zM375.25 263v3.53h3.2v1.7h-3.2v6.63c0 1.52.43 2.39 1.68 2.39a4.73 4.73 0 0 0 1.29-.16l.1 1.68a5.4 5.4 0 0 1-2 .3 3.09 3.09 0 0 1-2.41-.94 4.56 4.56 0 0 1-.86-3.19v-6.71h-1.91v-1.7h1.91v-2.94zM381 270.39c0-1.45 0-2.7-.1-3.84h2l.07 2.41h.1a3.69 3.69 0 0 1 3.41-2.69 2.41 2.41 0 0 1 .63.08v2.11a2.91 2.91 0 0 0-.76-.08 3.14 3.14 0 0 0-3 2.87 6.33 6.33 0 0 0-.1 1v6.55H381zM395.94 278.84l-.17-1.55h-.08a4.58 4.58 0 0 1-3.76 1.83 3.5 3.5 0 0 1-3.76-3.53c0-3 2.64-4.6 7.39-4.57v-.25a2.54 2.54 0 0 0-2.79-2.85 6.11 6.11 0 0 0-3.2.92l-.51-1.48a7.65 7.65 0 0 1 4-1.09c3.76 0 4.67 2.57 4.67 5v4.59a17.62 17.62 0 0 0 .2 2.95zm-.33-6.27c-2.43-.05-5.2.38-5.2 2.77a2 2 0 0 0 2.11 2.13 3.07 3.07 0 0 0 3-2.06 2.52 2.52 0 0 0 .12-.71zM410.14 278.38a8.18 8.18 0 0 1-3.53.71c-3.71 0-6.12-2.51-6.12-6.27a6.24 6.24 0 0 1 6.6-6.52 7.57 7.57 0 0 1 3.1.63l-.51 1.73a5.1 5.1 0 0 0-2.59-.59c-2.82 0-4.34 2.09-4.34 4.65 0 2.84 1.82 4.6 4.26 4.6a6.31 6.31 0 0 0 2.74-.61zM413.84 273.1c.05 3 2 4.27 4.22 4.27a8 8 0 0 0 3.4-.64l.38 1.6a9.89 9.89 0 0 1-4.09.76c-3.78 0-6-2.48-6-6.19s2.18-6.63 5.76-6.63c4 0 5.08 3.53 5.08 5.79a7.43 7.43 0 0 1-.08 1zm6.55-1.6c0-1.42-.58-3.63-3.1-3.63-2.26 0-3.25 2.08-3.42 3.63zM432.12 278.84l-.18-1.55h-.07a4.58 4.58 0 0 1-3.76 1.83 3.5 3.5 0 0 1-3.76-3.53c0-3 2.64-4.6 7.39-4.57v-.25a2.54 2.54 0 0 0-2.79-2.85 6.11 6.11 0 0 0-3.2.92l-.51-1.48a7.65 7.65 0 0 1 4-1.09c3.76 0 4.67 2.57 4.67 5v4.59a17.62 17.62 0 0 0 .2 2.95zm-.33-6.27c-2.44-.05-5.2.38-5.2 2.77a2 2 0 0 0 2.1 2.13 3.05 3.05 0 0 0 3-2.06 2.22 2.22 0 0 0 .13-.71zM437.45 278.84c.05-.84.1-2.08.1-3.17v-14.86h2.21v7.72h.05a4.58 4.58 0 0 1 4.19-2.26c3.05 0 5.21 2.54 5.18 6.27 0 4.4-2.76 6.58-5.51 6.58a4.38 4.38 0 0 1-4.11-2.31h-.08l-.1 2zm2.31-4.93a4.38 4.38 0 0 0 .1.82 3.45 3.45 0 0 0 3.36 2.61c2.33 0 3.73-1.9 3.73-4.72 0-2.46-1.27-4.57-3.66-4.57a3.56 3.56 0 0 0-3.4 2.74 4.52 4.52 0 0 0-.13.92zM454.49 263.1a1.39 1.39 0 0 1-2.77 0 1.36 1.36 0 0 1 1.4-1.4 1.33 1.33 0 0 1 1.37 1.4zM452 278.84v-12.29h2.23v12.29zM457.94 260.81h2.23v18h-2.23zM466.42 263.1a1.39 1.39 0 0 1-2.77 0 1.37 1.37 0 0 1 1.4-1.4 1.33 1.33 0 0 1 1.37 1.4zm-2.49 15.74v-12.29h2.24v12.29zM472.56 263v3.53h3.2v1.7h-3.2v6.63c0 1.52.43 2.39 1.68 2.39a4.73 4.73 0 0 0 1.29-.16l.11 1.68a5.5 5.5 0 0 1-2 .3 3.1 3.1 0 0 1-2.41-.94 4.56 4.56 0 0 1-.86-3.19v-6.71h-1.9v-1.7h1.9v-2.94zM479.32 266.55l2.69 7.26c.28.82.58 1.78.78 2.52h.06c.22-.74.48-1.68.78-2.57l2.44-7.21h2.36l-3.35 8.76c-1.6 4.22-2.69 6.37-4.22 7.69a6 6 0 0 1-2.74 1.45l-.56-1.88a5.92 5.92 0 0 0 2-1.09 6.72 6.72 0 0 0 1.84-2.48 1.63 1.63 0 0 0 .18-.53 1.69 1.69 0 0 0-.16-.58l-4.54-11.33zM291.39 305.73h9.22v1.85h-7v5.69h6.48v1.83h-6.49v7.74h-2.21zM305.51 307.1a1.39 1.39 0 0 1-2.77 0 1.37 1.37 0 0 1 1.4-1.4 1.33 1.33 0 0 1 1.37 1.4zM303 322.84v-12.29h2.24v12.29zM309 313.88c0-1.27 0-2.31-.1-3.33h2l.13 2a4.51 4.51 0 0 1 4.06-2.31c1.7 0 4.34 1 4.34 5.23v7.34h-2.23v-7.08c0-2-.74-3.63-2.85-3.63a3.17 3.17 0 0 0-3 2.28 3.26 3.26 0 0 0-.15 1v7.39H309zM329.86 322.84l-.18-1.55h-.08a4.54 4.54 0 0 1-3.75 1.83 3.5 3.5 0 0 1-3.76-3.53c0-3 2.64-4.6 7.39-4.57v-.25a2.54 2.54 0 0 0-2.8-2.85 6.14 6.14 0 0 0-3.2.92l-.5-1.48a7.58 7.58 0 0 1 4-1.09c3.76 0 4.68 2.57 4.68 5v4.59a17.62 17.62 0 0 0 .2 2.95zm-.33-6.27c-2.44-.05-5.21.38-5.21 2.77a2 2 0 0 0 2.11 2.13 3.06 3.06 0 0 0 3-2.06 2.22 2.22 0 0 0 .13-.71zM335.29 313.88c0-1.27 0-2.31-.1-3.33h2l.13 2h.05a4.51 4.51 0 0 1 4.06-2.31c1.7 0 4.34 1 4.34 5.23v7.34h-2.23v-7.08c0-2-.74-3.63-2.85-3.63a3.17 3.17 0 0 0-3 2.28 3 3 0 0 0-.16 1v7.39h-2.23zM358.14 322.38a8.14 8.14 0 0 1-3.53.71c-3.71 0-6.12-2.51-6.12-6.27a6.24 6.24 0 0 1 6.6-6.52 7.57 7.57 0 0 1 3.1.63l-.51 1.73a5.1 5.1 0 0 0-2.59-.59c-2.81 0-4.34 2.09-4.34 4.65 0 2.84 1.83 4.6 4.27 4.6a6.34 6.34 0 0 0 2.74-.61zM363.24 307.1a1.38 1.38 0 0 1-2.76 0 1.36 1.36 0 0 1 1.39-1.4 1.33 1.33 0 0 1 1.37 1.4zm-2.49 15.74v-12.29H363v12.29zM373.5 322.84l-.18-1.55h-.07a4.58 4.58 0 0 1-3.76 1.83 3.5 3.5 0 0 1-3.76-3.53c0-3 2.64-4.6 7.39-4.57v-.25a2.54 2.54 0 0 0-2.79-2.85 6.09 6.09 0 0 0-3.2.92l-.51-1.48a7.62 7.62 0 0 1 4-1.09c3.75 0 4.67 2.57 4.67 5v4.59a17.62 17.62 0 0 0 .2 2.95zm-.33-6.27c-2.44-.05-5.21.38-5.21 2.77a2 2 0 0 0 2.11 2.13 3.05 3.05 0 0 0 3-2.06 2.22 2.22 0 0 0 .13-.71zM378.93 304.81h2.24v18h-2.24zM390.31 314.56c0-1.57-.06-2.84-.11-4h2l.1 2.11h.05a4.84 4.84 0 0 1 4.37-2.39c3 0 5.2 2.52 5.2 6.25 0 4.42-2.69 6.6-5.58 6.6a4.29 4.29 0 0 1-3.78-1.93h-.06v6.68h-2.2zm2.2 3.28a5 5 0 0 0 .11.91 3.44 3.44 0 0 0 3.35 2.62c2.36 0 3.73-1.93 3.73-4.75 0-2.46-1.3-4.57-3.66-4.57a3.56 3.56 0 0 0-3.37 2.77 3.47 3.47 0 0 0-.16.91zM404.75 304.81H407v18h-2.23zM417.55 322.84l-.18-1.55h-.08a4.55 4.55 0 0 1-3.76 1.83 3.5 3.5 0 0 1-3.75-3.53c0-3 2.64-4.6 7.39-4.57v-.25a2.54 2.54 0 0 0-2.8-2.85 6.14 6.14 0 0 0-3.2.92l-.5-1.48a7.58 7.58 0 0 1 4-1.09c3.76 0 4.67 2.57 4.67 5v4.59a17.55 17.55 0 0 0 .21 2.95zm-.33-6.27c-2.44-.05-5.21.38-5.21 2.77a2 2 0 0 0 2.11 2.13 3.06 3.06 0 0 0 3-2.06 2.22 2.22 0 0 0 .13-.71zM423 313.88c0-1.27 0-2.31-.1-3.33h2l.12 2H425a4.51 4.51 0 0 1 4.06-2.31c1.7 0 4.34 1 4.34 5.23v7.34h-2.23v-7.08c0-2-.74-3.63-2.85-3.63a3.17 3.17 0 0 0-3 2.28 3 3 0 0 0-.16 1v7.39H423zM437.07 313.88c0-1.27 0-2.31-.1-3.33h2l.13 2h.05a4.51 4.51 0 0 1 4.06-2.31c1.7 0 4.34 1 4.34 5.23v7.34h-2.25v-7.08c0-2-.74-3.63-2.85-3.63a3.17 3.17 0 0 0-3 2.28 3.25 3.25 0 0 0-.16 1v7.39h-2.23zM453.65 307.1a1.39 1.39 0 0 1-2.77 0 1.37 1.37 0 0 1 1.4-1.4 1.33 1.33 0 0 1 1.37 1.4zm-2.49 15.74v-12.29h2.24v12.29zM457.1 313.88c0-1.27 0-2.31-.1-3.33h2l.13 2h.05a4.51 4.51 0 0 1 4.06-2.31c1.7 0 4.34 1 4.34 5.23v7.34h-2.23v-7.08c0-2-.74-3.63-2.85-3.63a3.17 3.17 0 0 0-3 2.28 3.26 3.26 0 0 0-.15 1v7.39h-2.25zM481.78 310.55c0 .89-.1 1.88-.1 3.38v7.13c0 2.82-.56 4.55-1.75 5.61a6.52 6.52 0 0 1-4.47 1.48 7.92 7.92 0 0 1-4.09-1l.56-1.7a6.89 6.89 0 0 0 3.6 1c2.29 0 4-1.19 4-4.29v-1.37h-.05a4.36 4.36 0 0 1-3.91 2.06c-3 0-5.23-2.59-5.23-6 0-4.17 2.72-6.53 5.54-6.53a4.09 4.09 0 0 1 3.83 2.13h.05l.1-1.85zm-2.31 4.85a3.17 3.17 0 0 0-.13-1 3.22 3.22 0 0 0-3.12-2.37c-2.13 0-3.66 1.81-3.66 4.65 0 2.41 1.22 4.42 3.63 4.42a3.27 3.27 0 0 0 3.1-2.29 3.78 3.78 0 0 0 .18-1.19zM291.09 364.15a7.83 7.83 0 0 0 4 1.12c2.26 0 3.58-1.2 3.58-2.92s-.91-2.52-3.23-3.41c-2.79-1-4.51-2.43-4.51-4.85 0-2.66 2.2-4.64 5.53-4.64a7.66 7.66 0 0 1 3.78.84l-.61 1.8a6.72 6.72 0 0 0-3.25-.81c-2.33 0-3.22 1.39-3.22 2.56 0 1.6 1 2.39 3.4 3.3 2.9 1.12 4.37 2.51 4.37 5s-2 4.92-6 4.92a8.84 8.84 0 0 1-4.37-1.09zM315.11 360.59c0 4.55-3.15 6.53-6.12 6.53-3.33 0-5.89-2.44-5.89-6.32 0-4.12 2.69-6.53 6.09-6.53s5.92 2.57 5.92 6.32zm-9.75.13c0 2.69 1.55 4.72 3.73 4.72s3.73-2 3.73-4.77c0-2.08-1-4.72-3.68-4.72s-3.78 2.44-3.78 4.77zM328.21 363.49c0 1.27 0 2.39.1 3.35h-2l-.13-2h-.05a4.62 4.62 0 0 1-4.06 2.29c-1.93 0-4.24-1.07-4.24-5.38v-7.19h2.23v6.81c0 2.33.71 3.91 2.74 3.91a3.25 3.25 0 0 0 2.95-2 3.17 3.17 0 0 0 .2-1.14v-7.54h2.24zM331.91 358.39c0-1.45 0-2.7-.1-3.84h2l.07 2.41h.1a3.69 3.69 0 0 1 3.41-2.69 2.41 2.41 0 0 1 .63.08v2.11a2.86 2.86 0 0 0-.76-.08 3.14 3.14 0 0 0-3 2.87 6.33 6.33 0 0 0-.1 1v6.55h-2.21zM348.72 366.38a8.14 8.14 0 0 1-3.53.71c-3.71 0-6.12-2.51-6.12-6.27a6.24 6.24 0 0 1 6.6-6.52 7.57 7.57 0 0 1 3.1.63l-.51 1.73a5.1 5.1 0 0 0-2.59-.59c-2.81 0-4.34 2.09-4.34 4.65 0 2.84 1.83 4.6 4.27 4.6a6.31 6.31 0 0 0 2.74-.61zM353.82 351.1a1.38 1.38 0 0 1-2.76 0 1.36 1.36 0 0 1 1.39-1.4 1.33 1.33 0 0 1 1.37 1.4zm-2.48 15.74v-12.29h2.23v12.29zM357.28 357.88c0-1.27 0-2.31-.11-3.33h2l.13 2h.05a4.52 4.52 0 0 1 4.07-2.31c1.7 0 4.34 1 4.34 5.23v7.34h-2.26v-7.08c0-2-.73-3.63-2.84-3.63a3.18 3.18 0 0 0-3 2.28 3.26 3.26 0 0 0-.15 1v7.39h-2.23zM382 354.55c-.05.89-.1 1.88-.1 3.38v7.13c0 2.82-.56 4.55-1.75 5.61a6.5 6.5 0 0 1-4.47 1.48 8 8 0 0 1-4.09-1l.56-1.7a7 7 0 0 0 3.61 1c2.28 0 4-1.19 4-4.29v-1.37h-.05a4.38 4.38 0 0 1-3.91 2.06c-3 0-5.23-2.59-5.23-6 0-4.17 2.71-6.53 5.53-6.53a4.11 4.11 0 0 1 3.84 2.13l.1-1.85zm-2.31 4.85a3.18 3.18 0 0 0-.12-1 3.23 3.23 0 0 0-3.13-2.37c-2.13 0-3.65 1.81-3.65 4.65 0 2.41 1.22 4.42 3.63 4.42a3.28 3.28 0 0 0 3.1-2.29 4.08 4.08 0 0 0 .17-1.19zM397.75 366.84l-.18-1.55h-.08a4.55 4.55 0 0 1-3.76 1.83 3.5 3.5 0 0 1-3.75-3.53c0-3 2.64-4.6 7.38-4.57v-.25a2.53 2.53 0 0 0-2.79-2.85 6.14 6.14 0 0 0-3.2.92l-.51-1.48a7.65 7.65 0 0 1 4-1.09c3.76 0 4.67 2.57 4.67 5v4.59a16.55 16.55 0 0 0 .21 2.95zm-.33-6.27c-2.44-.05-5.21.38-5.21 2.77a2 2 0 0 0 2.11 2.13 3.06 3.06 0 0 0 3-2.06 2.53 2.53 0 0 0 .13-.71zM403.18 357.88c0-1.27 0-2.31-.1-3.33h2l.12 2h.05a4.53 4.53 0 0 1 4.07-2.31c1.7 0 4.34 1 4.34 5.23v7.34h-2.26v-7.08c0-2-.73-3.63-2.84-3.63a3.17 3.17 0 0 0-3 2.28 3 3 0 0 0-.16 1v7.39h-2.23zM424.07 366.84l-.17-1.55h-.08a4.58 4.58 0 0 1-3.76 1.83 3.5 3.5 0 0 1-3.76-3.53c0-3 2.64-4.6 7.39-4.57v-.25a2.54 2.54 0 0 0-2.79-2.85 6.11 6.11 0 0 0-3.2.92l-.51-1.48a7.65 7.65 0 0 1 4-1.09c3.76 0 4.67 2.57 4.67 5v4.59a16.55 16.55 0 0 0 .21 2.95zm-.33-6.27c-2.43-.05-5.2.38-5.2 2.77a2 2 0 0 0 2.11 2.13 3.06 3.06 0 0 0 3-2.06 2.52 2.52 0 0 0 .12-.71zM429.51 348.81h2.23v18h-2.23zM436.31 354.55l2.69 7.26c.28.82.59 1.78.79 2.52.23-.74.48-1.68.79-2.57l2.43-7.21h2.37l-3.36 8.76c-1.6 4.22-2.69 6.37-4.21 7.69a6 6 0 0 1-2.74 1.45l-.56-1.88a5.88 5.88 0 0 0 1.95-1.09 6.72 6.72 0 0 0 1.88-2.49 1.63 1.63 0 0 0 .18-.53 1.87 1.87 0 0 0-.15-.58l-4.55-11.33zM450.15 351v3.53h3.2v1.7h-3.2v6.63c0 1.52.43 2.39 1.67 2.39a4.76 4.76 0 0 0 1.3-.16l.1 1.68a5.44 5.44 0 0 1-2 .3 3.09 3.09 0 0 1-2.41-.94A4.51 4.51 0 0 1 448 363v-6.71h-1.9v-1.7h1.9v-2.94zM458.35 351.1a1.39 1.39 0 0 1-2.77 0 1.36 1.36 0 0 1 1.4-1.4 1.33 1.33 0 0 1 1.37 1.4zm-2.49 15.74v-12.29h2.23v12.29zM470.56 366.38a8.14 8.14 0 0 1-3.53.71c-3.71 0-6.12-2.51-6.12-6.27a6.24 6.24 0 0 1 6.6-6.52 7.57 7.57 0 0 1 3.1.63l-.51 1.73a5.1 5.1 0 0 0-2.59-.59c-2.82 0-4.34 2.09-4.34 4.65 0 2.84 1.83 4.6 4.27 4.6a6.34 6.34 0 0 0 2.74-.61zM472.87 364.56a5.87 5.87 0 0 0 2.94.88c1.63 0 2.39-.81 2.39-1.82s-.63-1.65-2.28-2.26c-2.21-.79-3.25-2-3.25-3.48 0-2 1.6-3.61 4.24-3.61a6.22 6.22 0 0 1 3 .76l-.56 1.63a4.72 4.72 0 0 0-2.51-.71c-1.33 0-2.06.76-2.06 1.67s.73 1.48 2.33 2.09c2.14.81 3.23 1.87 3.23 3.7 0 2.16-1.68 3.68-4.6 3.68a7.09 7.09 0 0 1-3.45-.83zM291.39 393.73h9.22v1.85h-7v5.69h6.48v1.83h-6.49v7.74h-2.21zM303 402.39c0-1.45 0-2.7-.1-3.84h1.95L305 401h.1a3.69 3.69 0 0 1 3.4-2.69 2.43 2.43 0 0 1 .64.08v2.11a2.91 2.91 0 0 0-.76-.08 3.13 3.13 0 0 0-3 2.87 6.33 6.33 0 0 0-.1 1v6.55H303zM318 410.84l-.18-1.55h-.07a4.58 4.58 0 0 1-3.76 1.83 3.5 3.5 0 0 1-3.76-3.53c0-3 2.64-4.6 7.39-4.57v-.25a2.54 2.54 0 0 0-2.79-2.85 6.11 6.11 0 0 0-3.2.92l-.51-1.48a7.65 7.65 0 0 1 4-1.09c3.76 0 4.67 2.57 4.67 5v4.59a17.62 17.62 0 0 0 .2 2.95zm-.33-6.27c-2.44-.05-5.2.38-5.2 2.77a2 2 0 0 0 2.1 2.13 3.05 3.05 0 0 0 3-2.06 2.22 2.22 0 0 0 .13-.71zM333.72 407.49c0 1.27 0 2.39.1 3.35h-2l-.13-2a4.62 4.62 0 0 1-4.06 2.29c-1.93 0-4.24-1.07-4.24-5.38v-7.19h2.23v6.81c0 2.33.71 3.91 2.74 3.91a3.25 3.25 0 0 0 2.95-2 3.17 3.17 0 0 0 .2-1.14v-7.54h2.24zM348 392.81v14.86c0 1.09 0 2.33.1 3.17h-2l-.1-2.13a4.55 4.55 0 0 1-4.19 2.41c-3 0-5.26-2.51-5.26-6.25 0-4.08 2.52-6.6 5.51-6.6a4.12 4.12 0 0 1 3.71 1.88h.05v-7.34zm-2.24 10.74a3.76 3.76 0 0 0-.1-.94 3.29 3.29 0 0 0-3.22-2.59c-2.31 0-3.69 2-3.69 4.75 0 2.49 1.22 4.55 3.64 4.55a3.36 3.36 0 0 0 3.27-2.67 3.68 3.68 0 0 0 .1-1zM367.74 392.81v14.86c0 1.09 0 2.33.1 3.17h-2l-.1-2.13h-.05a4.54 4.54 0 0 1-4.19 2.41c-3 0-5.25-2.51-5.25-6.25 0-4.08 2.51-6.6 5.51-6.6a4.11 4.11 0 0 1 3.7 1.88h.05v-7.34zm-2.24 10.74a3.76 3.76 0 0 0-.1-.94 3.29 3.29 0 0 0-3.22-2.59c-2.31 0-3.68 2-3.68 4.75 0 2.49 1.21 4.55 3.63 4.55a3.35 3.35 0 0 0 3.27-2.67 3.68 3.68 0 0 0 .1-1zM372.69 405.1c.05 3 2 4.27 4.21 4.27a8 8 0 0 0 3.41-.64l.38 1.6a9.93 9.93 0 0 1-4.09.76c-3.78 0-6-2.48-6-6.19s2.18-6.63 5.76-6.63c4 0 5.08 3.53 5.08 5.79a7.43 7.43 0 0 1-.08 1zm6.55-1.6c0-1.42-.59-3.63-3.1-3.63-2.26 0-3.25 2.08-3.43 3.63zM386.86 395v3.53h3.19v1.7h-3.19v6.63c0 1.52.43 2.39 1.67 2.39a4.82 4.82 0 0 0 1.3-.16l.1 1.68a5.44 5.44 0 0 1-2 .3 3.12 3.12 0 0 1-2.42-.94 4.56 4.56 0 0 1-.86-3.19v-6.71h-1.9v-1.7h1.9v-2.94zM393.66 405.1c0 3 2 4.27 4.21 4.27a8 8 0 0 0 3.41-.64l.38 1.6a9.93 9.93 0 0 1-4.09.76c-3.78 0-6-2.48-6-6.19s2.18-6.63 5.76-6.63c4 0 5.08 3.53 5.08 5.79a7.43 7.43 0 0 1-.08 1zm6.55-1.6c0-1.42-.58-3.63-3.1-3.63-2.26 0-3.25 2.08-3.43 3.63zM413.89 410.38a8.11 8.11 0 0 1-3.53.71c-3.7 0-6.11-2.51-6.11-6.27a6.24 6.24 0 0 1 6.6-6.52 7.48 7.48 0 0 1 3.09.63l-.5 1.73a5.13 5.13 0 0 0-2.59-.59c-2.82 0-4.34 2.09-4.34 4.65 0 2.84 1.82 4.6 4.26 4.6a6.31 6.31 0 0 0 2.74-.61zM419.53 395v3.53h3.2v1.7h-3.2v6.63c0 1.52.43 2.39 1.67 2.39a4.76 4.76 0 0 0 1.3-.16l.1 1.68a5.44 5.44 0 0 1-2 .3 3.09 3.09 0 0 1-2.41-.94 4.51 4.51 0 0 1-.86-3.19v-6.71h-1.91v-1.7h1.91v-2.94zM427.73 395.1a1.39 1.39 0 0 1-2.77 0 1.37 1.37 0 0 1 1.4-1.4 1.33 1.33 0 0 1 1.37 1.4zm-2.49 15.74v-12.29h2.24v12.29zM442.3 404.59c0 4.55-3.15 6.53-6.12 6.53-3.32 0-5.89-2.44-5.89-6.32 0-4.12 2.69-6.53 6.1-6.53s5.91 2.57 5.91 6.32zm-9.75.13c0 2.69 1.55 4.72 3.73 4.72s3.74-2 3.74-4.77c0-2.08-1-4.72-3.68-4.72s-3.79 2.44-3.79 4.77zM445.12 401.88c0-1.27 0-2.31-.1-3.33h2l.13 2h.05a4.51 4.51 0 0 1 4.06-2.31c1.7 0 4.34 1 4.34 5.23v7.34h-2.23v-7.08c0-2-.74-3.63-2.85-3.63a3.17 3.17 0 0 0-3 2.28 3 3 0 0 0-.16 1v7.39h-2.23zM53.92 594.2a36.2 36.2 0 0 1 6.36-.47c3 0 5.28.64 6.74 1.86a6.46 6.46 0 0 1 2.23 5 6.91 6.91 0 0 1-2 5.17c-1.66 1.66-4.27 2.44-7.21 2.44a11.91 11.91 0 0 1-2-.13v8.59h-4.12zm4.13 10.63a8.15 8.15 0 0 0 2 .17c3.11 0 5-1.52 5-4.2 0-2.53-1.76-3.89-4.64-3.89a10.79 10.79 0 0 0-2.4.21zM81.24 616.71l-.24-1.83h-.11a6.1 6.1 0 0 1-4.87 2.2 4.89 4.89 0 0 1-5.18-4.9c0-4.17 3.69-6.27 9.78-6.23v-.27c0-1.08-.44-2.88-3.35-2.88a8.75 8.75 0 0 0-4.46 1.2l-.81-2.69a11.92 11.92 0 0 1 6-1.45c5.28 0 6.81 3.35 6.81 6.93v6a26.38 26.38 0 0 0 .23 4zm-.55-8.05c-2.94-.07-5.75.57-5.75 3.08a2.19 2.19 0 0 0 2.37 2.37 3.38 3.38 0 0 0 3.25-2.27 3.09 3.09 0 0 0 .13-.92zM89.16 605.54c0-2.23 0-3.82-.14-5.31h3.63l.13 3.15h.14a4.91 4.91 0 0 1 4.5-3.52 4.28 4.28 0 0 1 1 .1v3.92a6.41 6.41 0 0 0-1.22-.13 3.67 3.67 0 0 0-3.72 3.15 6.86 6.86 0 0 0-.14 1.28v8.53h-4.18zM106.76 595.52v4.71h4v3.11h-4v7.28c0 2 .54 3 2.13 3a6.27 6.27 0 0 0 1.63-.21l.06 3.18a9 9 0 0 1-3 .41 4.86 4.86 0 0 1-3.58-1.3c-.87-1-1.28-2.44-1.28-4.61v-7.75h-2.37v-3.11h2.37v-3.72zM113.87 605.14c0-1.9 0-3.49-.14-4.91h3.66l.2 2.47h.1a5.94 5.94 0 0 1 5.25-2.84c2.88 0 5.86 1.86 5.86 7.07v9.78h-4.17v-9.31c0-2.36-.88-4.16-3.15-4.16a3.5 3.5 0 0 0-3.24 2.44 4.1 4.1 0 0 0-.17 1.35v9.68h-4.2zM136.18 609.64c.1 3 2.43 4.26 5.07 4.26a12.47 12.47 0 0 0 4.57-.74l.61 2.87a15.39 15.39 0 0 1-5.75 1c-5.35 0-8.5-3.28-8.5-8.33 0-4.56 2.78-8.86 8.06-8.86s7.11 4.4 7.11 8a9.88 9.88 0 0 1-.14 1.76zm7.24-2.91c0-1.53-.64-4-3.42-4-2.57 0-3.65 2.34-3.82 4zM150.7 605.54c0-2.23 0-3.82-.14-5.31h3.63l.13 3.15h.14a4.91 4.91 0 0 1 4.5-3.52 4.28 4.28 0 0 1 1 .1v3.92a6.41 6.41 0 0 0-1.22-.13 3.67 3.67 0 0 0-3.74 3.15 6.86 6.86 0 0 0-.14 1.28v8.53h-4.16zM162.55 612.89a9.32 9.32 0 0 0 4.23 1.18c1.83 0 2.64-.74 2.64-1.83s-.68-1.69-2.71-2.4c-3.22-1.12-4.57-2.88-4.54-4.8 0-2.92 2.41-5.18 6.23-5.18a9.67 9.67 0 0 1 4.37 1l-.81 2.94a7.55 7.55 0 0 0-3.49-.94c-1.49 0-2.3.71-2.3 1.72s.78 1.56 2.87 2.3c3 1.09 4.37 2.61 4.4 5 0 3-2.33 5.14-6.7 5.14a10.63 10.63 0 0 1-5-1.15zM176.86 592.68h4.2v9.82h.07a5.64 5.64 0 0 1 2.06-1.9 5.73 5.73 0 0 1 2.85-.74c2.81 0 5.75 1.86 5.75 7.14v9.71h-4.16v-9.24c0-2.4-.88-4.19-3.18-4.19a3.39 3.39 0 0 0-3.22 2.33 3.64 3.64 0 0 0-.17 1.25v9.85h-4.2zM200.66 595.63a2.34 2.34 0 0 1-4.67 0 2.34 2.34 0 0 1 4.67 0zm-4.43 21.08v-16.48h4.2v16.48zM204.89 605.71c0-2.16-.06-3.92-.13-5.48h3.65l.21 2.54h.07a6.4 6.4 0 0 1 5.65-2.91c3.79 0 6.94 3.25 6.94 8.39 0 6-3.76 8.83-7.52 8.83a5.43 5.43 0 0 1-4.64-2.2h-.06v8.53h-4.17zm4.17 4.1a4.36 4.36 0 0 0 .13 1.15 3.77 3.77 0 0 0 3.66 2.91c2.64 0 4.19-2.2 4.19-5.45 0-2.91-1.42-5.28-4.09-5.28a3.87 3.87 0 0 0-3.72 3.08 3.49 3.49 0 0 0-.17 1zM293.6 492.73v17.11h-2.21v-17.11zM297.64 500.88c0-1.27 0-2.31-.1-3.33h2l.12 2h.05a4.53 4.53 0 0 1 4.07-2.31c1.7 0 4.34 1 4.34 5.23v7.34h-2.24v-7.08c0-2-.73-3.63-2.84-3.63a3.17 3.17 0 0 0-3 2.28 3 3 0 0 0-.16 1v7.39h-2.23zM320.49 509.38a8.18 8.18 0 0 1-3.53.71c-3.71 0-6.12-2.51-6.12-6.27a6.24 6.24 0 0 1 6.6-6.52 7.57 7.57 0 0 1 3.1.63l-.51 1.73a5.1 5.1 0 0 0-2.59-.59c-2.82 0-4.34 2.09-4.34 4.65 0 2.84 1.83 4.6 4.27 4.6a6.34 6.34 0 0 0 2.74-.61zM324.19 504.1c.06 3 2 4.27 4.22 4.27a8 8 0 0 0 3.4-.64l.38 1.6a9.83 9.83 0 0 1-4.08.76c-3.79 0-6.05-2.48-6.05-6.19s2.19-6.63 5.77-6.63c4 0 5.07 3.53 5.07 5.79a10 10 0 0 1-.07 1zm6.56-1.6c0-1.42-.59-3.63-3.1-3.63-2.26 0-3.25 2.08-3.43 3.63zM335.67 500.88c0-1.27 0-2.31-.1-3.33h2l.13 2h.05a4.51 4.51 0 0 1 4.06-2.31c1.7 0 4.34 1 4.34 5.23v7.34h-2.25v-7.08c0-2-.74-3.63-2.85-3.63a3.17 3.17 0 0 0-3 2.28 3.25 3.25 0 0 0-.16 1v7.39h-2.23zM352.35 494v3.53h3.2v1.7h-3.2v6.63c0 1.52.43 2.39 1.68 2.39a4.73 4.73 0 0 0 1.29-.16l.1 1.68a5.4 5.4 0 0 1-2 .3 3.09 3.09 0 0 1-2.41-.94 4.56 4.56 0 0 1-.86-3.19v-6.71h-1.91v-1.7h1.91v-2.94zM360.55 494.1a1.31 1.31 0 0 1-1.42 1.37 1.33 1.33 0 0 1-1.35-1.37 1.37 1.37 0 0 1 1.4-1.4 1.33 1.33 0 0 1 1.37 1.4zm-2.49 15.74v-12.29h2.24v12.29zM364.87 497.55l2.41 6.91a28.92 28.92 0 0 1 1 3.15h.08c.27-1 .63-2 1-3.15l2.38-6.91h2.34l-4.83 12.29h-2.13l-4.67-12.29zM377.21 504.1c.05 3 2 4.27 4.21 4.27a8 8 0 0 0 3.4-.64l.38 1.6a9.83 9.83 0 0 1-4.08.76c-3.79 0-6.05-2.48-6.05-6.19s2.19-6.63 5.77-6.63c4 0 5.07 3.53 5.07 5.79a10 10 0 0 1-.07 1zm6.55-1.6c0-1.42-.59-3.63-3.1-3.63-2.26 0-3.25 2.08-3.43 3.63zM394.06 501.56c0-1.57-.05-2.84-.1-4h2l.1 2.11h.05a4.83 4.83 0 0 1 4.37-2.39c3 0 5.2 2.52 5.2 6.25 0 4.42-2.69 6.6-5.58 6.6a4.32 4.32 0 0 1-3.79-1.93h-.05v6.68h-2.21zm2.21 3.28a5.07 5.07 0 0 0 .1.91 3.46 3.46 0 0 0 3.36 2.62c2.36 0 3.73-1.93 3.73-4.75 0-2.46-1.3-4.57-3.66-4.57a3.58 3.58 0 0 0-3.38 2.77 3.93 3.93 0 0 0-.15.91zM408.51 501.39c0-1.45 0-2.7-.1-3.84h1.95l.08 2.41h.1a3.68 3.68 0 0 1 3.4-2.69 2.49 2.49 0 0 1 .64.08v2.11a2.91 2.91 0 0 0-.76-.08 3.13 3.13 0 0 0-3 2.87 6.33 6.33 0 0 0-.1 1v6.55h-2.21zM427.68 503.59c0 4.55-3.15 6.53-6.12 6.53-3.33 0-5.89-2.44-5.89-6.32 0-4.12 2.69-6.53 6.09-6.53s5.92 2.57 5.92 6.32zm-9.75.13c0 2.69 1.55 4.72 3.73 4.72s3.73-2 3.73-4.77c0-2.08-1-4.72-3.68-4.72s-3.78 2.44-3.78 4.77zM441.08 497.55c-.05.89-.1 1.88-.1 3.38v7.13c0 2.82-.56 4.55-1.75 5.61a6.5 6.5 0 0 1-4.47 1.48 8 8 0 0 1-4.09-1l.56-1.7a6.9 6.9 0 0 0 3.61 1c2.28 0 4-1.19 4-4.29v-1.37h-.05a4.38 4.38 0 0 1-3.91 2.06c-3 0-5.23-2.59-5.23-6 0-4.17 2.71-6.53 5.53-6.53a4.12 4.12 0 0 1 3.82 2.08l.1-1.85zm-2.31 4.85a3.18 3.18 0 0 0-.12-1 3.23 3.23 0 0 0-3.13-2.37c-2.13 0-3.65 1.81-3.65 4.65 0 2.41 1.21 4.42 3.63 4.42a3.26 3.26 0 0 0 3.09-2.29 3.78 3.78 0 0 0 .18-1.19zM444.53 501.39c0-1.45 0-2.7-.1-3.84h2l.07 2.41h.11a3.67 3.67 0 0 1 3.4-2.69 2.41 2.41 0 0 1 .63.08v2.11a2.86 2.86 0 0 0-.76-.08 3.14 3.14 0 0 0-3 2.87 6.33 6.33 0 0 0-.1 1v6.55h-2.21zM459.51 509.84l-.17-1.55h-.08a4.58 4.58 0 0 1-3.76 1.83 3.5 3.5 0 0 1-3.76-3.53c0-3 2.65-4.6 7.39-4.57v-.25a2.54 2.54 0 0 0-2.79-2.85 6.11 6.11 0 0 0-3.2.92l-.51-1.48a7.65 7.65 0 0 1 4-1.09c3.76 0 4.67 2.57 4.67 5v4.59a16.55 16.55 0 0 0 .21 2.95zm-.33-6.27c-2.43-.05-5.2.38-5.2 2.77a2 2 0 0 0 2.11 2.13 3.06 3.06 0 0 0 3-2.06 2.52 2.52 0 0 0 .12-.71zM465 500.88c0-1.27 0-2.31-.1-3.33h1.95l.1 2h.05a4.23 4.23 0 0 1 3.86-2.26 3.65 3.65 0 0 1 3.48 2.46h.05a5 5 0 0 1 1.37-1.59 4.17 4.17 0 0 1 2.71-.87c1.63 0 4 1.07 4 5.33v7.24h-2.18v-7c0-2.36-.87-3.78-2.67-3.78a2.89 2.89 0 0 0-2.64 2 3.75 3.75 0 0 0-.18 1.12v7.59h-2.18v-7.36c0-2-.86-3.38-2.56-3.38a3.33 3.33 0 0 0-2.95 3.33v7.41H465zM485.82 507.56a5.84 5.84 0 0 0 2.94.88c1.63 0 2.39-.81 2.39-1.82s-.64-1.65-2.29-2.26c-2.21-.79-3.25-2-3.25-3.48 0-2 1.6-3.61 4.24-3.61a6.16 6.16 0 0 1 3 .76l-.55 1.63a4.79 4.79 0 0 0-2.52-.71c-1.32 0-2.05.76-2.05 1.67s.73 1.48 2.33 2.09c2.13.81 3.23 1.87 3.23 3.7 0 2.16-1.68 3.68-4.6 3.68a7.06 7.06 0 0 1-3.45-.83zM291.39 537a22.9 22.9 0 0 1 4.24-.36c2.36 0 3.89.43 4.95 1.4a4.24 4.24 0 0 1 1.35 3.25 4.48 4.48 0 0 1-3.22 4.36v.08c1.32.46 2.1 1.68 2.51 3.45a26.91 26.91 0 0 0 1.32 4.7h-2.29a22.63 22.63 0 0 1-1.14-4.09c-.51-2.36-1.42-3.25-3.43-3.32h-2.08v7.41h-2.21zm2.21 7.79h2.26c2.36 0 3.86-1.29 3.86-3.25 0-2.21-1.6-3.17-3.93-3.2a9.3 9.3 0 0 0-2.19.2zM306.32 548.1c.05 3 2 4.27 4.22 4.27a8 8 0 0 0 3.4-.64l.38 1.6a9.89 9.89 0 0 1-4.09.76c-3.78 0-6-2.48-6-6.19s2.18-6.63 5.76-6.63c4 0 5.08 3.53 5.08 5.79a7.43 7.43 0 0 1-.08 1zm6.55-1.6c0-1.42-.58-3.63-3.09-3.63-2.26 0-3.25 2.08-3.43 3.63zM317.7 553.84c.05-.84.1-2.08.1-3.17v-14.86h2.2v7.72h.05a4.57 4.57 0 0 1 4.19-2.26c3 0 5.2 2.54 5.18 6.27 0 4.4-2.77 6.58-5.51 6.58a4.4 4.4 0 0 1-4.12-2.31h-.07l-.1 2zm2.31-4.93a4.38 4.38 0 0 0 .1.82 3.43 3.43 0 0 0 3.35 2.61c2.34 0 3.73-1.9 3.73-4.72 0-2.46-1.27-4.57-3.65-4.57a3.57 3.57 0 0 0-3.41 2.74 4.58 4.58 0 0 0-.12.92zM339.05 553.84l-.18-1.55h-.08a4.54 4.54 0 0 1-3.75 1.83 3.5 3.5 0 0 1-3.76-3.53c0-3 2.64-4.6 7.39-4.57v-.25a2.54 2.54 0 0 0-2.8-2.85 6.14 6.14 0 0 0-3.2.92l-.5-1.48a7.58 7.58 0 0 1 4-1.09c3.76 0 4.68 2.57 4.68 5v4.59a17.62 17.62 0 0 0 .2 3zm-.33-6.27c-2.44-.05-5.21.38-5.21 2.77a2 2 0 0 0 2.11 2.13 3.06 3.06 0 0 0 3-2.06 2.22 2.22 0 0 0 .13-.71zM347.07 538v3.53h3.2v1.7h-3.2v6.63c0 1.52.43 2.39 1.68 2.39a4.73 4.73 0 0 0 1.29-.16l.1 1.68a5.4 5.4 0 0 1-2 .3 3.09 3.09 0 0 1-2.41-.94 4.51 4.51 0 0 1-.86-3.19v-6.71H343v-1.7h1.91v-2.94zM353.87 548.1c.05 3 2 4.27 4.22 4.27a8 8 0 0 0 3.4-.64l.38 1.6a9.89 9.89 0 0 1-4.09.76c-3.78 0-6-2.48-6-6.19s2.18-6.63 5.76-6.63c4 0 5.08 3.53 5.08 5.79a10 10 0 0 1-.07 1zm6.55-1.6c0-1.42-.58-3.63-3.09-3.63-2.26 0-3.25 2.08-3.43 3.63zM370.73 544.88c0-1.27 0-2.31-.1-3.33h1.95l.11 2h.07a4.24 4.24 0 0 1 3.86-2.26 3.63 3.63 0 0 1 3.48 2.46 5 5 0 0 1 1.37-1.59 4.2 4.2 0 0 1 2.72-.87c1.62 0 4 1.07 4 5.33v7.24H386v-7c0-2.36-.86-3.78-2.66-3.78a2.89 2.89 0 0 0-2.64 2 3.46 3.46 0 0 0-.18 1.12v7.59h-2.19v-7.36c0-2-.86-3.38-2.56-3.38a3.06 3.06 0 0 0-2.77 2.23 3.3 3.3 0 0 0-.18 1.1v7.41h-2.18zM398.71 553.84l-.18-1.55h-.07a4.58 4.58 0 0 1-3.76 1.83 3.5 3.5 0 0 1-3.76-3.53c0-3 2.64-4.6 7.39-4.57v-.25a2.54 2.54 0 0 0-2.79-2.85 6.09 6.09 0 0 0-3.2.92l-.51-1.48a7.62 7.62 0 0 1 4-1.09c3.75 0 4.67 2.57 4.67 5v4.59a17.62 17.62 0 0 0 .2 3zm-.33-6.27c-2.44-.05-5.21.38-5.21 2.77a2 2 0 0 0 2.11 2.13 3.05 3.05 0 0 0 3-2.06 2.22 2.22 0 0 0 .13-.71zM404.14 544.88c0-1.27 0-2.31-.1-3.33h2l.13 2h.05a4.51 4.51 0 0 1 4.06-2.31c1.7 0 4.34 1 4.34 5.23v7.34h-2.23v-7.08c0-2-.74-3.63-2.84-3.63a3.17 3.17 0 0 0-3 2.28 3.26 3.26 0 0 0-.15 1v7.39h-2.24zM425 553.84l-.18-1.55h-.08a4.54 4.54 0 0 1-3.75 1.83 3.5 3.5 0 0 1-3.76-3.53c0-3 2.64-4.6 7.39-4.57v-.25a2.54 2.54 0 0 0-2.8-2.85 6.14 6.14 0 0 0-3.2.92l-.5-1.48a7.61 7.61 0 0 1 4-1.09c3.76 0 4.68 2.57 4.68 5v4.59a17.62 17.62 0 0 0 .2 3zm-.33-6.27c-2.44-.05-5.21.38-5.21 2.77a2 2 0 0 0 2.11 2.13 3.05 3.05 0 0 0 3-2.06 2.22 2.22 0 0 0 .13-.71zM441.06 541.55c-.05.89-.1 1.88-.1 3.38v7.13c0 2.82-.56 4.55-1.76 5.61a6.49 6.49 0 0 1-4.46 1.48 7.92 7.92 0 0 1-4.09-1l.56-1.7a6.89 6.89 0 0 0 3.6 1c2.29 0 4-1.19 4-4.29v-1.37a4.36 4.36 0 0 1-3.91 2.06c-3 0-5.23-2.59-5.23-6 0-4.17 2.72-6.53 5.54-6.53a4.09 4.09 0 0 1 3.79 2.08l.1-1.85zm-2.31 4.85a3.17 3.17 0 0 0-.13-1 3.22 3.22 0 0 0-3.12-2.4c-2.14 0-3.66 1.81-3.66 4.65 0 2.41 1.22 4.42 3.63 4.42a3.27 3.27 0 0 0 3.1-2.29 3.78 3.78 0 0 0 .18-1.19zM445.91 548.1c0 3 2 4.27 4.21 4.27a8 8 0 0 0 3.4-.64l.38 1.6a9.83 9.83 0 0 1-4.08.76c-3.79 0-6.05-2.48-6.05-6.19s2.19-6.63 5.77-6.63c4 0 5.08 3.53 5.08 5.79a7.43 7.43 0 0 1-.08 1zm6.55-1.6c0-1.42-.59-3.63-3.1-3.63-2.26 0-3.25 2.08-3.43 3.63zM457.38 544.88c0-1.27 0-2.31-.1-3.33h2l.1 2h.07a4.24 4.24 0 0 1 3.86-2.26 3.63 3.63 0 0 1 3.48 2.46h.05a5.16 5.16 0 0 1 1.37-1.59 4.2 4.2 0 0 1 2.72-.87c1.63 0 4 1.07 4 5.33v7.24h-2.19v-7c0-2.36-.86-3.78-2.66-3.78a2.89 2.89 0 0 0-2.64 2 3.75 3.75 0 0 0-.18 1.12v7.59h-2.18v-7.36c0-2-.87-3.38-2.57-3.38a3.06 3.06 0 0 0-2.77 2.23 3.29 3.29 0 0 0-.17 1.1v7.41h-2.19zM479.8 548.1c.05 3 2 4.27 4.22 4.27a8 8 0 0 0 3.4-.64l.38 1.6a9.89 9.89 0 0 1-4.09.76c-3.78 0-6-2.48-6-6.19s2.18-6.63 5.76-6.63c4 0 5.08 3.53 5.08 5.79a7.43 7.43 0 0 1-.08 1zm6.55-1.6c0-1.42-.58-3.63-3.1-3.63-2.26 0-3.25 2.08-3.42 3.63zM491.28 544.88c0-1.27 0-2.31-.11-3.33h2l.13 2h.05a4.52 4.52 0 0 1 4.07-2.31c1.7 0 4.34 1 4.34 5.23v7.34h-2.26v-7.08c0-2-.73-3.63-2.84-3.63a3.18 3.18 0 0 0-3 2.28 3.26 3.26 0 0 0-.15 1v7.39h-2.23zM508 538v3.53h3.2v1.7H508v6.63c0 1.52.43 2.39 1.67 2.39a4.76 4.76 0 0 0 1.3-.16l.1 1.68a5.44 5.44 0 0 1-2 .3 3.09 3.09 0 0 1-2.41-.94 4.51 4.51 0 0 1-.87-3.19v-6.71h-1.9v-1.7h1.9v-2.94zM291.09 595.15a7.83 7.83 0 0 0 4 1.12c2.26 0 3.58-1.2 3.58-2.92s-.91-2.52-3.23-3.41c-2.79-1-4.51-2.43-4.51-4.85 0-2.66 2.2-4.64 5.53-4.64a7.66 7.66 0 0 1 3.78.84l-.61 1.8a6.72 6.72 0 0 0-3.25-.81c-2.33 0-3.22 1.39-3.22 2.56 0 1.6 1 2.39 3.4 3.3 2.9 1.12 4.37 2.51 4.37 5s-2 4.92-6 4.92a8.84 8.84 0 0 1-4.37-1.09zM305.23 592.1c0 3 2 4.27 4.21 4.27a8 8 0 0 0 3.41-.64l.38 1.6a9.89 9.89 0 0 1-4.09.76c-3.78 0-6-2.48-6-6.19s2.18-6.63 5.76-6.63c4 0 5.08 3.53 5.08 5.79a7.43 7.43 0 0 1-.08 1zm6.55-1.6c0-1.42-.58-3.63-3.1-3.63-2.26 0-3.25 2.08-3.42 3.63zM316.71 588.88c0-1.27 0-2.31-.11-3.33h2l.13 2h.05a4.51 4.51 0 0 1 4.06-2.31c1.71 0 4.35 1 4.35 5.23v7.34h-2.24v-7.08c0-2-.73-3.63-2.84-3.63a3.18 3.18 0 0 0-3 2.28 3.26 3.26 0 0 0-.15 1v7.39h-2.23zM333.39 582v3.53h3.2v1.7h-3.2v6.63c0 1.52.43 2.39 1.67 2.39a4.76 4.76 0 0 0 1.3-.16l.1 1.68a5.44 5.44 0 0 1-2 .3 3.09 3.09 0 0 1-2.41-.94 4.51 4.51 0 0 1-.87-3.19v-6.71h-1.9v-1.7h1.9v-2.94zM341.59 582.1a1.39 1.39 0 0 1-2.77 0 1.36 1.36 0 0 1 1.4-1.4 1.33 1.33 0 0 1 1.37 1.4zm-2.49 15.74v-12.29h2.23v12.29zM345 588.88c0-1.27 0-2.31-.1-3.33h1.95l.1 2h.08a4.24 4.24 0 0 1 3.86-2.26 3.64 3.64 0 0 1 3.48 2.46 5 5 0 0 1 1.37-1.59 4.2 4.2 0 0 1 2.72-.87c1.62 0 4 1.07 4 5.33v7.24h-2.06v-7c0-2.36-.86-3.78-2.67-3.78a2.89 2.89 0 0 0-2.64 2 3.77 3.77 0 0 0-.17 1.12v7.59h-2.19v-7.36c0-2-.86-3.38-2.56-3.38a3.33 3.33 0 0 0-2.95 3.33v7.41H345zM367.46 592.1c.05 3 2 4.27 4.21 4.27a8 8 0 0 0 3.4-.64l.38 1.6a9.83 9.83 0 0 1-4.08.76c-3.79 0-6.05-2.48-6.05-6.19s2.19-6.63 5.77-6.63c4 0 5.08 3.53 5.08 5.79a9.4 9.4 0 0 1-.08 1zm6.55-1.6c0-1.42-.59-3.63-3.1-3.63-2.26 0-3.25 2.08-3.43 3.63zM378.93 588.88c0-1.27 0-2.31-.1-3.33h2l.13 2h.04a4.51 4.51 0 0 1 4.06-2.31c1.7 0 4.34 1 4.34 5.23v7.34h-2.23v-7.08c0-2-.74-3.63-2.84-3.63a3.17 3.17 0 0 0-3 2.28 3.26 3.26 0 0 0-.15 1v7.39h-2.24zM395.61 582v3.53h3.2v1.7h-3.2v6.63c0 1.52.43 2.39 1.68 2.39a4.73 4.73 0 0 0 1.29-.16l.11 1.68a5.5 5.5 0 0 1-2 .3 3.1 3.1 0 0 1-2.41-.94 4.56 4.56 0 0 1-.86-3.19v-6.71h-1.9v-1.7h1.9v-2.94zM413.51 597.84l-.18-1.55h-.07a4.58 4.58 0 0 1-3.76 1.83 3.5 3.5 0 0 1-3.76-3.53c0-3 2.64-4.6 7.39-4.57v-.25a2.54 2.54 0 0 0-2.79-2.85 6.09 6.09 0 0 0-3.2.92l-.51-1.48a7.65 7.65 0 0 1 4-1.09c3.76 0 4.67 2.57 4.67 5v4.59a17.62 17.62 0 0 0 .2 3zm-.33-6.27c-2.44-.05-5.2.38-5.2 2.77a2 2 0 0 0 2.1 2.13 3.05 3.05 0 0 0 3-2.06 2.22 2.22 0 0 0 .13-.71zM418.94 588.88c0-1.27 0-2.31-.1-3.33h2l.13 2h.03a4.51 4.51 0 0 1 4.06-2.31c1.7 0 4.34 1 4.34 5.23v7.34h-2.23v-7.08c0-2-.74-3.63-2.84-3.63a3.17 3.17 0 0 0-3 2.28 3.26 3.26 0 0 0-.15 1v7.39h-2.24zM439.84 597.84l-.18-1.55h-.07a4.58 4.58 0 0 1-3.76 1.83 3.5 3.5 0 0 1-3.76-3.53c0-3 2.64-4.6 7.39-4.57v-.25a2.54 2.54 0 0 0-2.79-2.85 6.09 6.09 0 0 0-3.2.92l-.51-1.48a7.62 7.62 0 0 1 4-1.09c3.75 0 4.67 2.57 4.67 5v4.59a17.62 17.62 0 0 0 .2 3zm-.33-6.27c-2.44-.05-5.21.38-5.21 2.77a2 2 0 0 0 2.11 2.13 3.05 3.05 0 0 0 3-2.06 2.22 2.22 0 0 0 .13-.71zM445.27 579.81h2.24v18h-2.24zM452.08 585.55l2.69 7.26c.28.82.58 1.78.78 2.52h.06c.22-.74.48-1.68.78-2.57l2.44-7.21h2.36l-3.35 8.76c-1.6 4.22-2.69 6.37-4.22 7.69a6 6 0 0 1-2.74 1.45l-.56-1.88a5.92 5.92 0 0 0 2-1.09 6.72 6.72 0 0 0 1.88-2.49 1.63 1.63 0 0 0 .18-.53 2 2 0 0 0-.16-.58l-4.54-11.33zM462.76 595.56a5.88 5.88 0 0 0 2.95.88c1.62 0 2.39-.81 2.39-1.82s-.64-1.65-2.29-2.26c-2.21-.79-3.25-2-3.25-3.48 0-2 1.6-3.61 4.24-3.61a6.16 6.16 0 0 1 3 .76l-.56 1.63a4.72 4.72 0 0 0-2.51-.71c-1.32 0-2.06.76-2.06 1.67s.74 1.48 2.34 2.09c2.13.81 3.22 1.87 3.22 3.7 0 2.16-1.67 3.68-4.59 3.68a7.06 7.06 0 0 1-3.45-.83zM475.61 582.1a1.31 1.31 0 0 1-1.42 1.37 1.33 1.33 0 0 1-1.35-1.37 1.37 1.37 0 0 1 1.4-1.4 1.33 1.33 0 0 1 1.37 1.4zm-2.49 15.74v-12.29h2.24v12.29zM478.76 595.56a5.87 5.87 0 0 0 2.94.88c1.63 0 2.39-.81 2.39-1.82s-.63-1.65-2.28-2.26c-2.21-.79-3.25-2-3.25-3.48 0-2 1.59-3.61 4.24-3.61a6.22 6.22 0 0 1 3 .76l-.56 1.63a4.73 4.73 0 0 0-2.52-.71c-1.32 0-2.05.76-2.05 1.67s.73 1.48 2.33 2.09c2.14.81 3.23 1.87 3.23 3.7 0 2.16-1.68 3.68-4.6 3.68a7.09 7.09 0 0 1-3.45-.83zM304.42 641.08a16.12 16.12 0 0 1-5.26.94 8 8 0 0 1-8.78-8.63c0-5.11 3.53-8.84 9.27-8.84a10.47 10.47 0 0 1 4.26.79l-.53 1.8a8.85 8.85 0 0 0-3.79-.74c-4.16 0-6.88 2.59-6.88 6.88s2.62 6.91 6.61 6.91a7.09 7.09 0 0 0 2.94-.46v-5.1h-3.48v-1.78h5.64zM314.73 641.84l-.18-1.55h-.08a4.55 4.55 0 0 1-3.76 1.83 3.5 3.5 0 0 1-3.75-3.53c0-3 2.64-4.6 7.38-4.57v-.25a2.53 2.53 0 0 0-2.79-2.85 6.14 6.14 0 0 0-3.2.92l-.51-1.48a7.65 7.65 0 0 1 4-1.09c3.76 0 4.67 2.57 4.67 5v4.59a16.55 16.55 0 0 0 .21 3zm-.33-6.27c-2.44-.05-5.21.38-5.21 2.77a2 2 0 0 0 2.11 2.13 3.06 3.06 0 0 0 3-2.06 2.53 2.53 0 0 0 .13-.71zM320.16 632.88c0-1.27 0-2.31-.1-3.33H322l.1 2h.08a4.23 4.23 0 0 1 3.86-2.26 3.65 3.65 0 0 1 3.48 2.46h.05a5 5 0 0 1 1.37-1.59 4.2 4.2 0 0 1 2.72-.87c1.62 0 4 1.07 4 5.33v7.24h-2.18v-7c0-2.36-.86-3.78-2.67-3.78a2.89 2.89 0 0 0-2.64 2 3.75 3.75 0 0 0-.18 1.12v7.59h-2.18v-7.36c0-2-.86-3.38-2.56-3.38a3.33 3.33 0 0 0-3 3.33v7.41h-2.18zM343.82 626.1a1.31 1.31 0 0 1-1.42 1.37 1.33 1.33 0 0 1-1.35-1.37 1.37 1.37 0 0 1 1.4-1.4 1.33 1.33 0 0 1 1.37 1.4zm-2.49 15.74v-12.29h2.24v12.29zM347.5 641.84v-10.59h-1.73v-1.7h1.73v-.66c0-3.25 1.9-5.36 5.36-5.36a6.1 6.1 0 0 1 3.12.82l-.63 1.7a4.73 4.73 0 0 0-2.59-.71c-2.36 0-3.05 1.65-3.05 3.6v.61h7.13v12.29h-2.2v-10.59h-4.93v10.59zM369.31 641.38a8.14 8.14 0 0 1-3.53.71c-3.71 0-6.12-2.51-6.12-6.27a6.24 6.24 0 0 1 6.6-6.52 7.57 7.57 0 0 1 3.1.63l-.51 1.73a5.1 5.1 0 0 0-2.59-.59c-2.82 0-4.34 2.09-4.34 4.65 0 2.84 1.83 4.6 4.27 4.6a6.34 6.34 0 0 0 2.74-.61zM378.73 641.84l-.18-1.55h-.07a4.58 4.58 0 0 1-3.76 1.83 3.5 3.5 0 0 1-3.76-3.53c0-3 2.64-4.6 7.39-4.57v-.25a2.54 2.54 0 0 0-2.79-2.85 6.09 6.09 0 0 0-3.2.92l-.51-1.48a7.62 7.62 0 0 1 4-1.09c3.75 0 4.67 2.57 4.67 5v4.59a17.62 17.62 0 0 0 .2 3zm-.33-6.27c-2.44-.05-5.21.38-5.21 2.77a2 2 0 0 0 2.11 2.13 3.05 3.05 0 0 0 3-2.06 2.22 2.22 0 0 0 .13-.71zM386.75 626v3.53H390v1.7h-3.2v6.63c0 1.52.43 2.39 1.68 2.39a4.73 4.73 0 0 0 1.29-.16l.1 1.68a5.4 5.4 0 0 1-2 .3 3.09 3.09 0 0 1-2.41-.94 4.56 4.56 0 0 1-.86-3.19v-6.71h-1.91v-1.7h1.91v-2.94zM395 626.1a1.31 1.31 0 0 1-1.42 1.37 1.33 1.33 0 0 1-1.35-1.37 1.37 1.37 0 0 1 1.4-1.4 1.33 1.33 0 0 1 1.37 1.4zm-2.49 15.74v-12.29h2.24v12.29zM409.53 635.59c0 4.55-3.15 6.53-6.12 6.53-3.33 0-5.89-2.44-5.89-6.32 0-4.12 2.69-6.53 6.09-6.53s5.92 2.57 5.92 6.32zm-9.75.13c0 2.69 1.54 4.72 3.73 4.72s3.73-2 3.73-4.77c0-2.08-1-4.72-3.68-4.72s-3.78 2.44-3.78 4.77zM412.34 632.88c0-1.27 0-2.31-.1-3.33h2l.13 2a4.51 4.51 0 0 1 4.06-2.31c1.7 0 4.34 1 4.34 5.23v7.34h-2.23v-7.08c0-2-.74-3.63-2.84-3.63a3.17 3.17 0 0 0-3 2.28 3.26 3.26 0 0 0-.15 1v7.39h-2.24zM109 54.9c.39.1.78.18 1.17.29a5.39 5.39 0 0 1 .6 10.2 1 1 0 0 0-.7 1.1v42.71h4.87l-6.25 10.8c-1.27-2.2-2.48-4.31-3.71-6.4-.82-1.4-1.67-2.78-2.5-4.16v-.17h4.8v-.8-42.09c0-.6-.25-.78-.73-1A5.39 5.39 0 0 1 108 55a2.59 2.59 0 0 0 .45-.14zm-3 5.48a2.74 2.74 0 0 0 2.71 2.77 2.81 2.81 0 0 0 2.75-2.76 2.78 2.78 0 0 0-2.69-2.72 2.73 2.73 0 0 0-2.77 2.71z"/>
  <path class="cls-3" d="M155.25 88.37a18.65 18.65 0 1 1-18.56-18.65 18.62 18.62 0 0 1 18.56 18.65zm-18.6-15.94a15.95 15.95 0 1 0 15.93 16 16 16 0 0 0-15.93-16zM171.5 67h-4.86v42.79a1 1 0 0 0 .69 1.09 5.4 5.4 0 1 1-4.09 0c.48-.2.74-.38.74-1v-42-.76h-4.85l6.23-10.8zm-6.2 46.09a2.73 2.73 0 1 0 0 5.46 2.73 2.73 0 0 0 0-5.46z"/>
  <path class="cls-3" d="M137.84 95.73v2.19h-2.28V96c-1.2-.32-2.3-.57-3.37-.91a.84.84 0 0 1-.41-.7 21.57 21.57 0 0 1 .53-2.14c1 .28 1.93.62 2.89.79a6.32 6.32 0 0 0 1.89 0c.65-.09 1.25-.49 1.19-1.16a2.42 2.42 0 0 0-.86-1.37 5.14 5.14 0 0 0-1.42-.71c-.73-.33-1.49-.61-2.19-1a3.75 3.75 0 0 1 .37-6.83c1.2-.42 1.71-1 1.47-2.23a1.15 1.15 0 0 1 .07-.42h2.17v1.82l3.39.78-.66 2.6c-1.05-.22-2-.47-3-.61a3 3 0 0 0-1.46.18 1.35 1.35 0 0 0-.77.84 1.4 1.4 0 0 0 .5 1.1 14.78 14.78 0 0 0 2.07 1c.53.24 1.08.44 1.6.7a3.77 3.77 0 0 1 2.29 3.8 4 4 0 0 1-2.52 3.6c-.42.26-.9.39-1.49.6zM106.61 305.28c.3-1.07.51-2.18.91-3.21a12.41 12.41 0 0 1 15.07-7.32 1.25 1.25 0 0 0 1.39-.34c2.42-2.24 4.88-4.45 7.4-6.74l4.82 5.07 4.8 5 17.57-15.37-2.94-2.58.14-.27 5-1.36 5.55-1.48a4.87 4.87 0 0 0 .71-.3h.35l-3 11.6-3.77-3.81-19.73 17.24-9.58-10.05-5.28 4.8c.74.66 1.49 1.24 2.12 1.92 3.51 3.85 4.46 8.29 2.58 13.12a11.68 11.68 0 0 1-10.72 7.89 12.27 12.27 0 0 1-13.22-10.58 1.93 1.93 0 0 0-.15-.4zm2.66 1.39a9.83 9.83 0 1 0 9.88-9.84 9.87 9.87 0 0 0-9.88 9.84zM154.26 349.74v-53.62h12.9v53.62zm2.72-51V347h7.51v-48.24z"/>
  <path class="cls-3" d="M134.07 349.74v-43.1h12.87v42.11c0 .32-.06.64-.09 1zm10.1-2.69v-37.7h-7.46v37.7zM126.62 326.46v23h-12.84v-1.06-14.25a1 1 0 0 0-.71-1.11 5.23 5.23 0 0 1-3.26-5.44 5.28 5.28 0 0 1 4.4-4.67 5.19 5.19 0 0 1 5.6 2.82 1 1 0 0 0 1.08.62h5.49a.91.91 0 0 1 .24.09zm-10.18 20.31H124V329h-3c-.45 0-.65.13-.78.6a4.92 4.92 0 0 1-3 3.44 1 1 0 0 0-.74 1.18v11.67zm1.33-18.57a2.66 2.66 0 1 0-5.31-.1 2.64 2.64 0 0 0 2.64 2.73 2.67 2.67 0 0 0 2.67-2.63zM115.89 311l.4-1.66c.89.17 1.71.37 2.54.45.56.05 1.28-.06 1.28-.75 0-.38-.48-.86-.87-1.13a10.17 10.17 0 0 0-1.54-.65 2.45 2.45 0 0 1-1.71-2.42 2.53 2.53 0 0 1 1.92-2.38l.53-.2.07-1.32h1.36l.09 1.17 2.12.52-.42 1.61a11 11 0 0 0-2.15-.34c-.41 0-.81.41-1.22.63.27.34.47.8.82 1 .68.41 1.48.6 2.15 1a2.51 2.51 0 0 1-.13 4.41c-.88.44-1.62.77-1.27 2h-1.39l-.09-1.23zM97.3 527.43c1.36.49 2.73 1 4.08 1.48 2.48.94 4.94 1.92 7.59 3l-3.7 3 4.41 5.78a4.86 4.86 0 0 1 3.84-2.72 4.69 4.69 0 0 1 4.28 1.94c2.81-3.07 8.26-1.71 8.32 3.42 3.46.56 5 3.23 4.15 6.47a4.72 4.72 0 0 1 3.74 3.08 5 5 0 0 1-1 4.85c2.12.47 4.1 1 6.12 1.34a7.11 7.11 0 0 0 2.64 0 10.6 10.6 0 0 0 2.25-1.09l-8.19-5 1.37-2.32 2.16 1.28c2 1.23 4.07 2.47 6.12 3.69a3.29 3.29 0 0 0 4.59-2.28 1.23 1.23 0 0 0-.73-1.34c-2.69-1.59-5.36-3.21-8-4.83-.29-.17-.57-.35-.9-.56l1.38-2.31 8.33 5c.87.52 1.75 1 2.67 1.49a3 3 0 0 0 4-1.78 1.47 1.47 0 0 0-.76-1.85c-3.86-2.28-7.69-4.61-11.6-7l1.38-2.31 1.13.65c3.58 2.16 7.2 4.24 10.72 6.49 2.18 1.4 5 .25 5.54-2.86.09-.57-.23-.82-.66-1.08q-11.85-7-23.69-14.08c-.88-.52-1.78-1-2.62-1.58a1.37 1.37 0 0 0-1.6 0c-3.24 1.68-6.5 3.31-9.76 5a4.13 4.13 0 0 1-5.18-6.32c.66-.85 1.34-1.7 2-2.53s1.39-1.65 2.18-2.57a5.87 5.87 0 0 0-.77-.11h-2.6c-2.07.1-4.11.1-5.65-1.64a5.61 5.61 0 0 1-5.29 1.28 5.41 5.41 0 0 1 .43-10.53 6.13 6.13 0 0 0 .61-.18h.93a6 6 0 0 0 .6.19 5.15 5.15 0 0 1 4.15 4 13.8 13.8 0 0 1 0 3c1.6 1.13 1.6 1.12 3.55 1.13h6.51a3.89 3.89 0 0 0 1.72-.41c1.62-.85 3.21-1.76 4.75-2.72 3.49-2.18 7.15-2.11 10.9-.88 2.82.92 5.61 1.9 8.42 2.85a1.35 1.35 0 0 0 .8.1c1.56-.63 3.1-1.32 4.67-2l-2.2-4.45 12.45.75-6.83 10.27-2.05-4.25c-1.77.77-3.48 1.54-5.22 2.23a2.29 2.29 0 0 1-1.46.1c-3.15-1-6.28-2.11-9.43-3.15s-5.92-1.09-8.69.76c-1 .66-2.11 1.17-3.14 1.79-1.83 1.12-3.85 2-5.26 3.73-1.28 1.59-2.58 3.16-3.89 4.73-.56.68-.88 1.37-.22 2.15s1.38.61 2.16.21c3.71-1.89 7.43-3.78 11.16-5.63a1.47 1.47 0 0 1 1.23 0c3 1.7 5.91 3.47 8.86 5.22 6 3.56 12 7.14 18 10.69a1.32 1.32 0 0 0 1 .17 22.36 22.36 0 0 0 2-1.06 5.5 5.5 0 0 1 3.76-6.72c3-.85 5.73.86 6.69 4a1 1 0 0 0 .17.2v1.86c-.08.23-.17.46-.24.69a5.36 5.36 0 0 1-4.66 3.83 5.46 5.46 0 0 1-4.39-1.52c-1.45.67-1.45.67-1.46 2.21a6.5 6.5 0 0 1-5 6.24c-.41.08-.84.12-1.28.18a5.1 5.1 0 0 1-2.16 4.27 7.38 7.38 0 0 1-4.67 1c-.68 3-2.66 4.48-5.54 4.93a1.77 1.77 0 0 0-1.06.56 7 7 0 0 1-4.54 2.64l-1.06.2h-.74c-2.5-.57-5-1.11-7.49-1.71a1.51 1.51 0 0 0-1.5.32 4.28 4.28 0 0 1-4.71.55 14.39 14.39 0 0 1-2.08-1.48c-2.47 2.24-4.81 2-7.57-.85a4.7 4.7 0 0 1-6.77-5.8c-3.85-1.11-5-4.25-3-7.6.37-.61.78-1.2 1.09-1.83a1 1 0 0 0 0-.88c-1.53-2.06-3.1-4.09-4.7-6.17l-3.9 3.08c-.35-2.34-.67-4.5-1-6.66-.29-1.79-.62-3.57-.93-5.36zm17.15 29.37a4.52 4.52 0 0 0 1.29-1.06c2.45-3.89 4.84-7.83 7.23-11.76a1.93 1.93 0 1 0-3.28-2c-.77 1.23-1.5 2.49-2.26 3.73-1.65 2.69-3.32 5.36-5 8-.79 1.46.06 3.07 2.02 3.09zm13.39-8.59a2 2 0 0 0-1.4-2.09 1.9 1.9 0 0 0-2.21 1q-2.57 4.14-5.08 8.3a1.93 1.93 0 1 0 3.29 2q2.5-4.05 5-8.14a6.35 6.35 0 0 0 .4-1.07zm-11.93-5.52a2 2 0 0 0-1.35-2 1.86 1.86 0 0 0-2.24.87q-1.8 2.87-3.54 5.78a1.9 1.9 0 0 0 .62 2.74 1.93 1.93 0 0 0 2.7-.82q1.73-2.76 3.39-5.55a5.89 5.89 0 0 0 .42-1.02zm13.41 9.74a3.73 3.73 0 0 0-1.16.8 24.69 24.69 0 0 0-1.81 2.9 1.84 1.84 0 0 0 .64 2.44 1.86 1.86 0 0 0 2.57-.42 24.65 24.65 0 0 0 1.83-3 2 2 0 0 0-2.07-2.72zm-18.15-41.92a2.71 2.71 0 0 0-2.77 2.65 2.74 2.74 0 0 0 2.74 2.79 2.71 2.71 0 0 0 2.71-2.72 2.66 2.66 0 0 0-2.68-2.72zm60.05 28.07a2.7 2.7 0 0 0 2.74-2.67 2.73 2.73 0 0 0-2.76-2.77 2.76 2.76 0 0 0-2.7 2.73 2.71 2.71 0 0 0 2.72 2.71z"/>
</svg>
