<svg id="Layer_1" data-name="Layer 1" xmlns="http://www.w3.org/2000/svg" viewBox="0 0 1652.87 438.97">
  <defs>
    <style>
      .cls-1{fill:#92d1ff}.cls-2,.cls-4,.cls-6{fill:none}.cls-2{stroke:#0f9ffa}.cls-2,.cls-6{stroke-miterlimit:10;stroke-width:2px}.cls-3{fill:#061838}.cls-4{stroke:#061838;stroke-miterlimit:10;stroke-width:3px}.cls-5{fill:#bee3ff}.cls-6{stroke:#92d1ff}
    </style>
  </defs>
  <path class="cls-1" d="M415.13 0v438.96H823.1V.1L415.13 0z"/>
  <path class="cls-2" d="M434.23 170.99L804 172.13"/>
  <path class="cls-3" d="M594.91 97.57a11.12 11.12 0 0 1-4.52.81c-4.83 0-8.46-3-8.46-8.66 0-5.36 3.63-9 8.94-9a9.23 9.23 0 0 1 4.06.76l-.53 1.81a8 8 0 0 0-3.46-.71c-4 0-6.67 2.56-6.67 7 0 4.19 2.41 6.88 6.57 6.88a8.72 8.72 0 0 0 3.61-.71zM608.44 91.88c0 4.54-3.15 6.52-6.12 6.52-3.33 0-5.89-2.43-5.89-6.32 0-4.11 2.69-6.52 6.09-6.52s5.92 2.56 5.92 6.32zm-9.75.13c0 2.69 1.55 4.72 3.73 4.72s3.73-2 3.73-4.78c0-2.08-1-4.72-3.68-4.72s-3.78 2.44-3.78 4.77zM611.25 89.16c0-1.27 0-2.31-.1-3.32h2l.13 2a4.51 4.51 0 0 1 4.06-2.31c1.71 0 4.35 1 4.35 5.23v7.33h-2.24V91c0-2-.73-3.63-2.84-3.63a3.17 3.17 0 0 0-3 2.28 3.28 3.28 0 0 0-.15 1v7.38h-2.24zM627.93 82.31v3.53h3.2v1.7h-3.2v6.62c0 1.53.44 2.39 1.68 2.39a5.36 5.36 0 0 0 1.3-.15l.1 1.67a5.41 5.41 0 0 1-2 .31 3.12 3.12 0 0 1-2.42-.94 4.57 4.57 0 0 1-.86-3.2v-6.7h-1.9v-1.7h1.9v-3zM633.65 89.67c0-1.45 0-2.69-.1-3.83h2l.08 2.41h.1a3.68 3.68 0 0 1 3.4-2.69 2.56 2.56 0 0 1 .64.07v2.11a3.44 3.44 0 0 0-.77-.08 3.13 3.13 0 0 0-3 2.87 6.44 6.44 0 0 0-.1 1v6.55h-2.21zM648.63 98.12l-.18-1.54h-.08a4.56 4.56 0 0 1-3.75 1.82 3.5 3.5 0 0 1-3.76-3.53c0-3 2.64-4.59 7.39-4.57v-.25a2.53 2.53 0 0 0-2.8-2.84 6.13 6.13 0 0 0-3.2.91l-.5-1.47a7.58 7.58 0 0 1 4-1.09c3.76 0 4.68 2.56 4.68 5v4.6a17.41 17.41 0 0 0 .2 2.94zm-.33-6.27c-2.44 0-5.21.38-5.21 2.77a2 2 0 0 0 2.11 2.13 3.06 3.06 0 0 0 3-2 2.27 2.27 0 0 0 .13-.71zM662.82 97.67a8.3 8.3 0 0 1-3.53.71c-3.71 0-6.12-2.52-6.12-6.27a6.24 6.24 0 0 1 6.6-6.53 7.39 7.39 0 0 1 3.1.64l-.51 1.72a5.23 5.23 0 0 0-2.59-.58c-2.82 0-4.34 2.08-4.34 4.65 0 2.84 1.83 4.59 4.27 4.59a6.34 6.34 0 0 0 2.74-.61zM668.45 82.31v3.53h3.2v1.7h-3.2v6.62c0 1.53.44 2.39 1.68 2.39a5.36 5.36 0 0 0 1.3-.15l.1 1.67a5.41 5.41 0 0 1-2 .31 3.12 3.12 0 0 1-2.42-.94 4.57 4.57 0 0 1-.86-3.2v-6.7h-1.9v-1.7h1.9v-3zM488.14 205a30.8 30.8 0 0 1 4.7-.36c3.18 0 5.44.74 6.93 2.13a7.88 7.88 0 0 1 2.42 6.15 9 9 0 0 1-2.47 6.65c-1.6 1.6-4.24 2.46-7.56 2.46a35.14 35.14 0 0 1-4-.2zm2.21 15.13a14.12 14.12 0 0 0 2.24.13c4.72 0 7.28-2.65 7.28-7.27 0-4-2.25-6.6-6.93-6.6a12.38 12.38 0 0 0-2.59.23zM506.14 209.55l2.7 7.26c.28.82.58 1.78.78 2.52h.05c.23-.74.49-1.68.79-2.57l2.44-7.21h2.36l-3.35 8.76c-1.6 4.22-2.69 6.37-4.22 7.69a6 6 0 0 1-2.74 1.45l-.56-1.88a5.92 5.92 0 0 0 2-1.09 6.72 6.72 0 0 0 1.88-2.49 1.56 1.56 0 0 0 .17-.53 1.87 1.87 0 0 0-.15-.58l-4.54-11.33zM517.29 212.88c0-1.27 0-2.31-.1-3.33h2l.13 2h.05a4.51 4.51 0 0 1 4.06-2.31c1.7 0 4.34 1 4.34 5.23v7.34h-2.23v-7.08c0-2-.74-3.63-2.85-3.63a3.17 3.17 0 0 0-3 2.28 3.25 3.25 0 0 0-.16 1v7.39h-2.23zM538.19 221.84l-.18-1.55h-.08a4.55 4.55 0 0 1-3.76 1.83 3.5 3.5 0 0 1-3.75-3.53c0-3 2.64-4.6 7.38-4.57v-.25a2.53 2.53 0 0 0-2.79-2.85 6.14 6.14 0 0 0-3.2.92l-.51-1.48a7.65 7.65 0 0 1 4-1.09c3.76 0 4.67 2.57 4.67 5v4.59a16.55 16.55 0 0 0 .21 3zm-.33-6.27c-2.44 0-5.21.38-5.21 2.77a2 2 0 0 0 2.11 2.13 3.06 3.06 0 0 0 3-2.06 2.53 2.53 0 0 0 .13-.71zM543.62 212.88c0-1.27 0-2.31-.1-3.33h2l.1 2h.08a4.23 4.23 0 0 1 3.86-2.26 3.65 3.65 0 0 1 3.48 2.46 5 5 0 0 1 1.37-1.59 4.2 4.2 0 0 1 2.72-.87c1.62 0 4 1.07 4 5.33v7.24H559v-7c0-2.36-.86-3.78-2.67-3.78a2.89 2.89 0 0 0-2.64 2 3.77 3.77 0 0 0-.17 1.12v7.59h-2.19v-7.36c0-2-.86-3.38-2.56-3.38a3.33 3.33 0 0 0-3 3.33v7.41h-2.18zM567.28 206.1a1.31 1.31 0 0 1-1.42 1.37 1.33 1.33 0 0 1-1.35-1.37 1.37 1.37 0 0 1 1.4-1.4 1.33 1.33 0 0 1 1.37 1.4zm-2.49 15.74v-12.29H567v12.29zM579.49 221.38a8.14 8.14 0 0 1-3.53.71c-3.7 0-6.12-2.51-6.12-6.27a6.24 6.24 0 0 1 6.61-6.52 7.52 7.52 0 0 1 3.09.63l-.5 1.73a5.16 5.16 0 0 0-2.59-.59c-2.82 0-4.35 2.09-4.35 4.65 0 2.84 1.83 4.6 4.27 4.6a6.31 6.31 0 0 0 2.74-.61zM587.49 213.56c0-1.57 0-2.84-.1-4h2l.1 2.11a4.85 4.85 0 0 1 4.37-2.39c3 0 5.21 2.52 5.21 6.25 0 4.42-2.69 6.6-5.59 6.6a4.3 4.3 0 0 1-3.78-1.93v6.68h-2.21zm2.21 3.28a5.07 5.07 0 0 0 .1.91 3.45 3.45 0 0 0 3.35 2.62c2.36 0 3.73-1.93 3.73-4.75 0-2.46-1.29-4.57-3.65-4.57a3.56 3.56 0 0 0-3.38 2.77 3.47 3.47 0 0 0-.15.91zM601.93 213.39c0-1.45 0-2.7-.1-3.84h2l.07 2.41h.1a3.69 3.69 0 0 1 3.41-2.69 2.41 2.41 0 0 1 .63.08v2.11a2.91 2.91 0 0 0-.76-.08 3.14 3.14 0 0 0-3 2.87 6.33 6.33 0 0 0-.1 1v6.55h-2.21zM612.83 206.1a1.39 1.39 0 0 1-2.77 0 1.36 1.36 0 0 1 1.39-1.4 1.33 1.33 0 0 1 1.38 1.4zm-2.49 15.74v-12.29h2.23v12.29zM625 221.38a8.18 8.18 0 0 1-3.53.71c-3.71 0-6.12-2.51-6.12-6.27a6.24 6.24 0 0 1 6.6-6.52 7.57 7.57 0 0 1 3.1.63l-.51 1.73a5.1 5.1 0 0 0-2.59-.59c-2.82 0-4.34 2.09-4.34 4.65 0 2.84 1.83 4.6 4.26 4.6a6.39 6.39 0 0 0 2.75-.61zM630.14 206.1a1.39 1.39 0 0 1-2.77 0 1.37 1.37 0 0 1 1.4-1.4 1.33 1.33 0 0 1 1.37 1.4zm-2.49 15.74v-12.29h2.24v12.29zM633.59 212.88c0-1.27 0-2.31-.1-3.33h2l.13 2a4.51 4.51 0 0 1 4.06-2.31c1.7 0 4.34 1 4.34 5.23v7.34h-2.23v-7.08c0-2-.74-3.63-2.85-3.63a3.17 3.17 0 0 0-3 2.28 3.26 3.26 0 0 0-.15 1v7.39h-2.24zM658.27 209.55c0 .89-.1 1.88-.1 3.38v7.13c0 2.82-.56 4.55-1.75 5.61a6.52 6.52 0 0 1-4.47 1.48 8 8 0 0 1-4.09-1l.56-1.7a6.89 6.89 0 0 0 3.6 1c2.29 0 4-1.19 4-4.29v-1.37h-.06a4.36 4.36 0 0 1-3.91 2.06c-3 0-5.23-2.59-5.23-6 0-4.17 2.72-6.53 5.54-6.53a4.09 4.09 0 0 1 3.83 2.13h.05l.11-1.85zM656 214.4a3.17 3.17 0 0 0-.13-1 3.22 3.22 0 0 0-3.12-2.37c-2.13 0-3.66 1.81-3.66 4.65 0 2.41 1.22 4.42 3.63 4.42a3.27 3.27 0 0 0 3.1-2.29 3.78 3.78 0 0 0 .18-1.19zM488.14 260.34a23.87 23.87 0 0 1 4.24-.35c2.37 0 3.89.43 5 1.4a4.25 4.25 0 0 1 1.34 3.25 4.49 4.49 0 0 1-3.22 4.36v.08c1.32.46 2.1 1.67 2.51 3.45a27.87 27.87 0 0 0 1.32 4.7H497a22.59 22.59 0 0 1-1.15-4.09c-.5-2.36-1.42-3.25-3.42-3.33h-2.09v7.42h-2.21zm2.21 7.8h2.26c2.36 0 3.86-1.3 3.86-3.25 0-2.21-1.6-3.17-3.93-3.2a9.3 9.3 0 0 0-2.19.2zM503.07 271.49c.05 3 2 4.27 4.22 4.27a8 8 0 0 0 3.4-.64l.38 1.6a9.89 9.89 0 0 1-4.09.76c-3.78 0-6-2.49-6-6.19s2.18-6.63 5.76-6.63c4 0 5.08 3.53 5.08 5.79a10 10 0 0 1-.07 1zm6.55-1.6c0-1.42-.58-3.63-3.09-3.63-2.26 0-3.25 2.08-3.43 3.63zM514.55 268.27c0-1.27 0-2.31-.1-3.33h2l.12 2h.06a4.5 4.5 0 0 1 4.06-2.31c1.7 0 4.34 1 4.34 5.23v7.34h-2.23v-7.09c0-2-.74-3.63-2.85-3.63a3.18 3.18 0 0 0-3 2.29 3 3 0 0 0-.16 1v7.39h-2.23zM529.88 271.49c0 3 2 4.27 4.22 4.27a8 8 0 0 0 3.4-.64l.38 1.6a9.89 9.89 0 0 1-4.09.76c-3.78 0-6-2.49-6-6.19s2.18-6.63 5.76-6.63c4 0 5.08 3.53 5.08 5.79a10 10 0 0 1-.07 1zm6.55-1.6c0-1.42-.58-3.63-3.09-3.63-2.26 0-3.25 2.08-3.43 3.63zM542.25 264.94l1.62 6.25c.36 1.37.69 2.64.92 3.91h.07c.28-1.25.69-2.57 1.1-3.89l2-6.27h1.88l1.9 6.14c.46 1.48.82 2.77 1.1 4h.07a40.22 40.22 0 0 1 .94-4l1.75-6.17h2.21l-4 12.29h-2l-1.88-5.87a40.44 40.44 0 0 1-1.09-4h-.05a38 38 0 0 1-1.12 4.06l-2 5.84h-2L540 264.94zM566.75 277.23l-.18-1.55h-.08a4.57 4.57 0 0 1-3.75 1.83A3.5 3.5 0 0 1 559 274c0-3 2.64-4.6 7.39-4.57v-.26a2.54 2.54 0 0 0-2.8-2.84 6.23 6.23 0 0 0-3.2.91l-.5-1.47a7.61 7.61 0 0 1 4-1.09c3.76 0 4.68 2.56 4.68 5v4.59a17.62 17.62 0 0 0 .2 3zm-.33-6.27c-2.44 0-5.21.38-5.21 2.76a2 2 0 0 0 2.11 2.14 3.05 3.05 0 0 0 3-2.06 2.22 2.22 0 0 0 .13-.71zM572.18 259.2h2.23v18h-2.23zM590.36 277.23l-.18-1.55h-.08a4.57 4.57 0 0 1-3.75 1.83 3.5 3.5 0 0 1-3.76-3.53c0-3 2.64-4.6 7.39-4.57v-.26a2.54 2.54 0 0 0-2.8-2.84 6.17 6.17 0 0 0-3.19.91l-.51-1.47a7.61 7.61 0 0 1 4-1.09c3.76 0 4.68 2.56 4.68 5v4.59a17.62 17.62 0 0 0 .2 3zM590 271c-2.44 0-5.21.38-5.21 2.76a2 2 0 0 0 2.11 2.14 3.05 3.05 0 0 0 3-2.06 2.22 2.22 0 0 0 .13-.71zM595.79 259.2H598v18h-2.24zM603 271.49c.05 3 2 4.27 4.21 4.27a8 8 0 0 0 3.4-.64l.38 1.6a9.83 9.83 0 0 1-4.08.76c-3.79 0-6.05-2.49-6.05-6.19s2.19-6.63 5.77-6.63c4 0 5.08 3.53 5.08 5.79a9.4 9.4 0 0 1-.08 1zm6.55-1.6c0-1.42-.59-3.63-3.1-3.63-2.26 0-3.25 2.08-3.43 3.63zM614.5 268.77c0-1.44 0-2.69-.1-3.83h2l.07 2.41h.1a3.69 3.69 0 0 1 3.41-2.69 2.41 2.41 0 0 1 .63.08v2.1a3.45 3.45 0 0 0-.76-.07 3.13 3.13 0 0 0-3 2.87 6.33 6.33 0 0 0-.1 1v6.55h-2.25zM626.1 261.41v3.53h3.2v1.7h-3.2v6.63c0 1.52.44 2.38 1.68 2.38a4.9 4.9 0 0 0 1.3-.15l.1 1.68a5.44 5.44 0 0 1-2 .3 3.12 3.12 0 0 1-2.42-.94 4.57 4.57 0 0 1-.86-3.2v-6.7H622v-1.7h1.9V262zM631.51 274.94a5.78 5.78 0 0 0 3 .89c1.62 0 2.38-.81 2.38-1.83s-.63-1.65-2.28-2.26c-2.21-.78-3.25-2-3.25-3.47 0-2 1.6-3.61 4.24-3.61a6.22 6.22 0 0 1 3 .76l-.56 1.63a4.72 4.72 0 0 0-2.51-.71c-1.32 0-2.06.76-2.06 1.67s.74 1.47 2.34 2.08c2.13.82 3.22 1.88 3.22 3.71 0 2.16-1.67 3.68-4.59 3.68a7 7 0 0 1-3.46-.84zM489.31 326.88a3.93 3.93 0 0 0 4.22 4.26 8 8 0 0 0 3.4-.63l.38 1.6a10.06 10.06 0 0 1-4.09.76c-3.78 0-6-2.49-6-6.19s2.18-6.63 5.76-6.63c4 0 5.08 3.53 5.08 5.79a10.18 10.18 0 0 1-.07 1zm6.55-1.6c0-1.42-.58-3.63-3.09-3.63-2.26 0-3.25 2.08-3.43 3.63zM506.68 324.92v1.65h-6.27v-1.65zM509.06 329.93a7.84 7.84 0 0 0 4 1.11c2.26 0 3.58-1.19 3.58-2.92s-.92-2.51-3.23-3.4c-2.79-1-4.52-2.44-4.52-4.85 0-2.67 2.21-4.65 5.54-4.65a7.78 7.78 0 0 1 3.78.84l-.61 1.81a6.74 6.74 0 0 0-3.25-.82c-2.34 0-3.22 1.4-3.22 2.57 0 1.6 1 2.38 3.4 3.3 2.89 1.12 4.37 2.51 4.37 5s-2 4.92-6 4.92a8.8 8.8 0 0 1-4.36-1.09zM524.3 316.87a1.39 1.39 0 0 1-2.77 0 1.36 1.36 0 0 1 1.4-1.39 1.33 1.33 0 0 1 1.37 1.39zm-2.49 15.75v-12.29H524v12.29zM538.34 320.33c-.05.89-.1 1.88-.1 3.37v7.14c0 2.82-.56 4.54-1.76 5.61a6.49 6.49 0 0 1-4.46 1.47 7.92 7.92 0 0 1-4.09-1l.56-1.7a7 7 0 0 0 3.6 1c2.29 0 4-1.19 4-4.29v-1.37a4.38 4.38 0 0 1-3.91 2.06c-3.05 0-5.23-2.59-5.23-6 0-4.16 2.72-6.52 5.54-6.52a4.09 4.09 0 0 1 3.83 2.13l.1-1.85zm-2.34 4.85a3.28 3.28 0 0 0-.13-1 3.23 3.23 0 0 0-3.12-2.36c-2.14 0-3.66 1.8-3.66 4.65 0 2.41 1.22 4.42 3.63 4.42a3.27 3.27 0 0 0 3.1-2.29 3.78 3.78 0 0 0 .18-1.19zM541.79 323.65c0-1.27 0-2.31-.1-3.32h2l.12 2h.06a4.51 4.51 0 0 1 4.06-2.31c1.7 0 4.34 1 4.34 5.23v7.34H550v-7.09c0-2-.74-3.63-2.85-3.63a3.17 3.17 0 0 0-3 2.29 3 3 0 0 0-.16 1v7.39h-2.23zM562.68 332.62l-.17-1.55h-.08a4.59 4.59 0 0 1-3.76 1.83 3.51 3.51 0 0 1-3.76-3.53c0-3 2.65-4.6 7.39-4.57v-.26a2.53 2.53 0 0 0-2.79-2.84 6.11 6.11 0 0 0-3.2.91l-.51-1.47a7.65 7.65 0 0 1 4-1.09c3.76 0 4.67 2.56 4.67 5v4.59a16.55 16.55 0 0 0 .21 2.95zm-.33-6.27c-2.43-.06-5.2.38-5.2 2.76a2 2 0 0 0 2.11 2.14 3.06 3.06 0 0 0 3-2.06 2.52 2.52 0 0 0 .12-.71zM570.71 316.8v3.53h3.2V322h-3.2v6.63c0 1.52.43 2.38 1.67 2.38a4.84 4.84 0 0 0 1.3-.15l.1 1.68a5.67 5.67 0 0 1-2 .3 3.09 3.09 0 0 1-2.41-.94 4.52 4.52 0 0 1-.87-3.2V322h-1.9v-1.7h1.9v-2.95zM586.7 329.27c0 1.27 0 2.38.1 3.35h-2l-.12-2h-.05a4.64 4.64 0 0 1-4.07 2.29c-1.93 0-4.24-1.07-4.24-5.39v-7.18h2.24v6.8c0 2.34.71 3.91 2.74 3.91a3.21 3.21 0 0 0 2.94-2 3.17 3.17 0 0 0 .21-1.14v-7.54h2.23zM590.41 324.16c0-1.45 0-2.69-.1-3.83h2l.08 2.41h.1a3.68 3.68 0 0 1 3.4-2.69 2.51 2.51 0 0 1 .64.07v2.11a3.49 3.49 0 0 0-.77-.07 3.13 3.13 0 0 0-3 2.87 6.33 6.33 0 0 0-.1 1v6.55h-2.21zM599.7 326.88c0 3 2 4.26 4.21 4.26a8.06 8.06 0 0 0 3.41-.63l.38 1.6a10.06 10.06 0 0 1-4.09.76c-3.78 0-6-2.49-6-6.19s2.18-6.63 5.76-6.63c4 0 5.08 3.53 5.08 5.79a7.57 7.57 0 0 1-.08 1zm6.55-1.6c0-1.42-.58-3.63-3.1-3.63-2.26 0-3.25 2.08-3.42 3.63zM488.14 371.12a23 23 0 0 1 4.24-.35c2.37 0 3.89.43 5 1.39a4.27 4.27 0 0 1 1.34 3.25 4.5 4.5 0 0 1-3.22 4.37v.08c1.32.45 2.1 1.67 2.51 3.45a27.87 27.87 0 0 0 1.32 4.7H497a22.87 22.87 0 0 1-1.15-4.09c-.5-2.36-1.42-3.25-3.42-3.33h-2.09V388h-2.21zm2.21 7.8h2.26c2.36 0 3.86-1.3 3.86-3.25 0-2.21-1.6-3.18-3.93-3.2a9.3 9.3 0 0 0-2.19.2zM503.07 382.27a3.93 3.93 0 0 0 4.22 4.26 8.17 8.17 0 0 0 3.4-.63l.38 1.6a10.06 10.06 0 0 1-4.09.76c-3.78 0-6-2.49-6-6.2s2.18-6.62 5.76-6.62c4 0 5.08 3.53 5.08 5.79a10.18 10.18 0 0 1-.07 1zm6.55-1.6c0-1.42-.58-3.63-3.09-3.63-2.26 0-3.25 2.08-3.43 3.63zM514.55 379.73c0-1.58 0-2.85-.1-4h2l.1 2.1h.06a4.83 4.83 0 0 1 4.36-2.38c3 0 5.21 2.51 5.21 6.24 0 4.42-2.69 6.61-5.59 6.61a4.32 4.32 0 0 1-3.78-1.93V393h-2.21zm2.21 3.27a5.18 5.18 0 0 0 .1.92 3.44 3.44 0 0 0 3.35 2.61c2.36 0 3.73-1.93 3.73-4.74 0-2.47-1.29-4.58-3.65-4.58a3.57 3.57 0 0 0-3.38 2.77 3.47 3.47 0 0 0-.15.92zM540.12 381.76c0 4.54-3.15 6.53-6.12 6.53-3.33 0-5.89-2.44-5.89-6.33 0-4.11 2.69-6.52 6.09-6.52s5.92 2.56 5.92 6.32zm-9.75.13c0 2.69 1.54 4.72 3.73 4.72s3.73-2 3.73-4.77c0-2.09-1-4.73-3.68-4.73s-3.78 2.44-3.78 4.78zM542.93 379.55c0-1.45 0-2.69-.1-3.83h2l.07 2.41h.1a3.69 3.69 0 0 1 3.41-2.69 2.43 2.43 0 0 1 .63.07v2.11a3.41 3.41 0 0 0-.76-.08 3.14 3.14 0 0 0-3 2.87 6.44 6.44 0 0 0-.1 1V388h-2.21zM554.54 372.19v3.53h3.19v1.7h-3.19V384c0 1.53.43 2.39 1.67 2.39a4.9 4.9 0 0 0 1.3-.15l.1 1.67a5.41 5.41 0 0 1-2 .31 3.12 3.12 0 0 1-2.42-.94 4.57 4.57 0 0 1-.86-3.2v-6.7h-1.9v-1.7h1.9v-3zM562.74 372.26a1.39 1.39 0 0 1-2.77 0 1.36 1.36 0 0 1 1.39-1.39 1.33 1.33 0 0 1 1.38 1.39zM560.25 388v-12.28h2.23V388zM566.19 379c0-1.27 0-2.31-.1-3.32h2l.12 2a4.53 4.53 0 0 1 4.07-2.31c1.7 0 4.34 1 4.34 5.23v7.4h-2.24v-7.09c0-2-.73-3.63-2.84-3.63a3.19 3.19 0 0 0-3 2.29 3.26 3.26 0 0 0-.15 1V388h-2.23zM590.87 375.72c0 .89-.11 1.88-.11 3.37v7.14c0 2.82-.55 4.54-1.75 5.61a6.49 6.49 0 0 1-4.47 1.47 7.91 7.91 0 0 1-4.08-1l.55-1.7a7.06 7.06 0 0 0 3.61 1c2.29 0 4-1.19 4-4.29v-1.42h-.05a4.4 4.4 0 0 1-3.91 2.05c-3 0-5.23-2.58-5.23-6 0-4.16 2.72-6.52 5.53-6.52a4.08 4.08 0 0 1 3.84 2.13l.1-1.85zm-2.31 4.85a3.28 3.28 0 0 0-.13-1 3.23 3.23 0 0 0-3.12-2.36c-2.14 0-3.66 1.8-3.66 4.65 0 2.41 1.22 4.41 3.63 4.41a3.27 3.27 0 0 0 3.1-2.28 4.09 4.09 0 0 0 .18-1.19zM606.66 388l-.18-1.55h-.08a4.57 4.57 0 0 1-3.75 1.83 3.51 3.51 0 0 1-3.76-3.53c0-3 2.64-4.6 7.39-4.57v-.26a2.54 2.54 0 0 0-2.8-2.84 6.13 6.13 0 0 0-3.2.91l-.5-1.47a7.58 7.58 0 0 1 4-1.09c3.76 0 4.68 2.56 4.68 5v4.6a17.62 17.62 0 0 0 .2 2.95zm-.33-6.28c-2.44-.05-5.21.39-5.21 2.77a2 2 0 0 0 2.11 2.13 3.06 3.06 0 0 0 3-2.05 2.22 2.22 0 0 0 .13-.71zM612.09 379c0-1.27 0-2.31-.1-3.32h2l.13 2a4.51 4.51 0 0 1 4.06-2.31c1.7 0 4.34 1 4.34 5.23v7.4h-2.23v-7.09c0-2-.74-3.63-2.85-3.63a3.17 3.17 0 0 0-3 2.29 3 3 0 0 0-.16 1V388h-2.23zM636.79 370v14.85c0 1.09 0 2.34.11 3.18h-2l-.1-2.14a4.57 4.57 0 0 1-4.19 2.42c-3 0-5.26-2.52-5.26-6.25 0-4.09 2.52-6.6 5.51-6.6a4.12 4.12 0 0 1 3.71 1.88V370zm-2.23 10.74a4.29 4.29 0 0 0-.1-.94 3.29 3.29 0 0 0-3.23-2.59c-2.31 0-3.68 2-3.68 4.75 0 2.49 1.22 4.54 3.63 4.54a3.37 3.37 0 0 0 3.28-2.66 4.25 4.25 0 0 0 .1-1zM652.69 388l-.18-1.55h-.08a4.58 4.58 0 0 1-3.76 1.83 3.5 3.5 0 0 1-3.75-3.53c0-3 2.64-4.6 7.39-4.57v-.26a2.54 2.54 0 0 0-2.8-2.84 6.13 6.13 0 0 0-3.2.91l-.5-1.47a7.58 7.58 0 0 1 4-1.09c3.76 0 4.67 2.56 4.67 5v4.6a17.55 17.55 0 0 0 .21 2.95zm-.33-6.28c-2.44-.05-5.21.39-5.21 2.77a2 2 0 0 0 2.11 2.13 3.06 3.06 0 0 0 3-2.05 2.22 2.22 0 0 0 .13-.71zM658.12 379c0-1.27 0-2.31-.1-3.32h2l.12 2h.06a4.51 4.51 0 0 1 4.06-2.31c1.7 0 4.34 1 4.34 5.23v7.4h-2.23v-7.09c0-2-.74-3.63-2.85-3.63a3.17 3.17 0 0 0-3 2.29 3 3 0 0 0-.16 1V388h-2.23zM679 388l-.17-1.55h-.08a4.59 4.59 0 0 1-3.76 1.83 3.5 3.5 0 0 1-3.75-3.53c0-3 2.64-4.6 7.38-4.57v-.26a2.53 2.53 0 0 0-2.79-2.84 6.11 6.11 0 0 0-3.2.91l-.51-1.47a7.65 7.65 0 0 1 4-1.09c3.76 0 4.67 2.56 4.67 5v4.6a16.55 16.55 0 0 0 .21 2.95zm-.33-6.28c-2.43-.05-5.2.39-5.2 2.77a2 2 0 0 0 2.11 2.13 3.06 3.06 0 0 0 3-2.05 2.52 2.52 0 0 0 .12-.71zM684.45 370h2.23v18h-2.23zM691.25 375.72l2.69 7.26c.28.81.59 1.78.79 2.51.23-.73.48-1.67.79-2.56l2.43-7.21h2.37l-3.32 8.76c-1.6 4.21-2.69 6.37-4.21 7.69a6.08 6.08 0 0 1-2.74 1.45l-.56-1.88a6.07 6.07 0 0 0 2-1.09 6.78 6.78 0 0 0 1.88-2.49 1.67 1.67 0 0 0 .18-.54 2 2 0 0 0-.15-.58l-4.55-11.32zM705.09 372.19v3.53h3.2v1.7h-3.2V384c0 1.53.43 2.39 1.67 2.39a4.84 4.84 0 0 0 1.3-.15l.1 1.67a5.41 5.41 0 0 1-2 .31 3.09 3.09 0 0 1-2.41-.94 4.52 4.52 0 0 1-.87-3.2v-6.7H701v-1.7h1.9v-3zM713.29 372.26a1.39 1.39 0 0 1-2.77 0 1.36 1.36 0 0 1 1.4-1.39 1.33 1.33 0 0 1 1.37 1.39zM710.8 388v-12.28h2.2V388zM725.5 387.55a8.3 8.3 0 0 1-3.53.71c-3.71 0-6.12-2.51-6.12-6.27a6.24 6.24 0 0 1 6.6-6.53 7.39 7.39 0 0 1 3.1.64l-.51 1.72a5.23 5.23 0 0 0-2.59-.58c-2.82 0-4.34 2.08-4.34 4.65 0 2.84 1.83 4.59 4.27 4.59a6.34 6.34 0 0 0 2.74-.61zM727.81 385.72a5.87 5.87 0 0 0 2.94.89c1.63 0 2.39-.81 2.39-1.83s-.63-1.65-2.28-2.26c-2.21-.79-3.25-2-3.25-3.48 0-2 1.6-3.6 4.24-3.6a6.11 6.11 0 0 1 3 .76l-.56 1.62a4.81 4.81 0 0 0-2.51-.71c-1.32 0-2.06.76-2.06 1.68s.74 1.47 2.34 2.08c2.13.81 3.22 1.88 3.22 3.71 0 2.16-1.68 3.68-4.6 3.68a7 7 0 0 1-3.45-.84z"/>
  <circle class="cls-4" cx="459.48" cy="215" r="4.5"/>
  <circle class="cls-4" cx="459.48" cy="270.31" r="4.5"/>
  <circle class="cls-4" cx="459.48" cy="325.62" r="4.5"/>
  <circle class="cls-4" cx="459.48" cy="380.93" r="4.5"/>
  <path class="cls-1" d="M1245.39 0v438.96h407.97V.1L1245.39 0z"/>
  <path class="cls-2" d="M1264.49 170.99l369.77 1.14"/>
  <path class="cls-3" d="M1413.21 81.24a21.49 21.49 0 0 1 4-.36c2.21 0 3.63.39 4.7 1.25a3.57 3.57 0 0 1 1.42 3 4.07 4.07 0 0 1-2.89 3.76 4.41 4.41 0 0 1 3.53 4.29 4.64 4.64 0 0 1-1.45 3.43c-1.19 1.09-3.12 1.6-5.92 1.6a24 24 0 0 1-3.42-.21zm2.2 7h2c2.34 0 3.71-1.22 3.71-2.87 0-2-1.53-2.79-3.76-2.79a9.31 9.31 0 0 0-2 .15zm0 8.2a12.8 12.8 0 0 0 1.86.1c2.28 0 4.39-.84 4.39-3.33 0-2.33-2-3.3-4.42-3.3h-1.83zM1433.69 98.12l-.17-1.54h-.08a4.58 4.58 0 0 1-3.76 1.82 3.49 3.49 0 0 1-3.75-3.53c0-3 2.64-4.59 7.38-4.57v-.25a2.53 2.53 0 0 0-2.79-2.84 6.11 6.11 0 0 0-3.2.91l-.51-1.47a7.65 7.65 0 0 1 4-1.09c3.76 0 4.67 2.56 4.67 5v4.6a16.37 16.37 0 0 0 .21 2.94zm-.33-6.27c-2.43 0-5.2.38-5.2 2.77a2 2 0 0 0 2.11 2.13 3.06 3.06 0 0 0 3-2 2.58 2.58 0 0 0 .12-.71zM1447.89 97.67a8.33 8.33 0 0 1-3.53.71c-3.71 0-6.12-2.52-6.12-6.27a6.24 6.24 0 0 1 6.6-6.53 7.39 7.39 0 0 1 3.1.64l-.51 1.72a5.23 5.23 0 0 0-2.59-.58c-2.82 0-4.34 2.08-4.34 4.65 0 2.84 1.83 4.59 4.26 4.59a6.39 6.39 0 0 0 2.75-.61zM1452.71 91.47c.31-.43.74-1 1.09-1.39l3.61-4.24h2.69l-4.75 5 5.41 7.23h-2.72l-4.24-5.89-1.14 1.27v4.62h-2.21v-18h2.21zM1469 92.39a3.93 3.93 0 0 0 4.22 4.26 8.17 8.17 0 0 0 3.4-.63l.38 1.6a10 10 0 0 1-4.09.76c-3.78 0-6-2.49-6-6.2s2.18-6.62 5.76-6.62c4 0 5.08 3.53 5.08 5.79a10.18 10.18 0 0 1-.07 1zm6.55-1.6c0-1.43-.58-3.63-3.09-3.63-2.26 0-3.25 2.08-3.43 3.63zM1480.51 89.16c0-1.27 0-2.31-.1-3.32h2l.13 2a4.51 4.51 0 0 1 4.06-2.31c1.7 0 4.34 1 4.34 5.23v7.33h-2.23V91c0-2-.74-3.63-2.85-3.63a3.17 3.17 0 0 0-3 2.28 3 3 0 0 0-.16 1v7.38h-2.23zM1505.21 80.1V95c0 1.09 0 2.34.1 3.17h-2l-.1-2.13a4.56 4.56 0 0 1-4.21 2.36c-3 0-5.26-2.51-5.26-6.24 0-4.09 2.52-6.6 5.51-6.6a4.11 4.11 0 0 1 3.71 1.87V80.1zM1503 90.84a4.29 4.29 0 0 0-.1-.94 3.29 3.29 0 0 0-3.23-2.59c-2.31 0-3.68 2-3.68 4.75 0 2.48 1.22 4.54 3.63 4.54a3.36 3.36 0 0 0 3.28-2.67 4.1 4.1 0 0 0 .1-1zM1318.4 205a20.86 20.86 0 0 1 4-.36c2.21 0 3.63.38 4.7 1.24a3.59 3.59 0 0 1 1.42 3 4.05 4.05 0 0 1-2.9 3.75 4.42 4.42 0 0 1 3.53 4.3 4.59 4.59 0 0 1-1.44 3.42c-1.2 1.09-3.13 1.6-5.92 1.6a26.35 26.35 0 0 1-3.43-.2zm2.21 7h2c2.33 0 3.71-1.22 3.71-2.87 0-2-1.53-2.79-3.76-2.79a10.08 10.08 0 0 0-2 .15zm0 8.2a11.23 11.23 0 0 0 1.86.11c2.28 0 4.39-.84 4.39-3.33 0-2.34-2-3.3-4.42-3.3h-1.83zM1342.37 218.49c0 1.27 0 2.39.1 3.35h-2l-.12-2h-.06a4.61 4.61 0 0 1-4.06 2.29c-1.93 0-4.24-1.07-4.24-5.38v-7.19h2.24v6.81c0 2.33.71 3.91 2.74 3.91a3.22 3.22 0 0 0 2.94-2 3.17 3.17 0 0 0 .21-1.14v-7.54h2.23zM1345.77 219.56a5.88 5.88 0 0 0 3 .88c1.62 0 2.38-.81 2.38-1.82s-.63-1.65-2.28-2.26c-2.21-.79-3.25-2-3.25-3.48 0-2 1.6-3.61 4.24-3.61a6.19 6.19 0 0 1 3 .76l-.56 1.63a4.72 4.72 0 0 0-2.51-.71c-1.32 0-2.06.76-2.06 1.67s.74 1.48 2.34 2.09c2.13.81 3.22 1.87 3.22 3.7 0 2.16-1.67 3.68-4.59 3.68a7.13 7.13 0 0 1-3.46-.83zM1358.62 206.1a1.39 1.39 0 0 1-2.77 0 1.37 1.37 0 0 1 1.4-1.4 1.33 1.33 0 0 1 1.37 1.4zm-2.49 15.74v-12.29h2.24v12.29zM1362.07 212.88c0-1.27 0-2.31-.1-3.33h2l.13 2h.05a4.51 4.51 0 0 1 4.06-2.31c1.7 0 4.34 1 4.34 5.23v7.34h-2.23v-7.08c0-2-.74-3.63-2.85-3.63a3.17 3.17 0 0 0-3 2.28 3.26 3.26 0 0 0-.15 1v7.39h-2.24zM1377.41 216.1c0 3 2 4.27 4.21 4.27a8 8 0 0 0 3.4-.64l.38 1.6a9.83 9.83 0 0 1-4.08.76c-3.79 0-6-2.48-6-6.19s2.19-6.63 5.77-6.63c4 0 5.08 3.53 5.08 5.79a9.4 9.4 0 0 1-.08 1zm6.55-1.6c0-1.42-.59-3.63-3.1-3.63-2.26 0-3.25 2.08-3.43 3.63zM1388.58 219.56a5.87 5.87 0 0 0 2.94.88c1.63 0 2.39-.81 2.39-1.82s-.64-1.65-2.29-2.26c-2.21-.79-3.25-2-3.25-3.48 0-2 1.6-3.61 4.24-3.61a6.23 6.23 0 0 1 3 .76l-.56 1.63a4.76 4.76 0 0 0-2.52-.71c-1.32 0-2 .76-2 1.67s.73 1.48 2.33 2.09c2.14.81 3.23 1.87 3.23 3.7 0 2.16-1.68 3.68-4.6 3.68a7.09 7.09 0 0 1-3.45-.83zM1398.63 219.56a5.88 5.88 0 0 0 2.95.88c1.62 0 2.38-.81 2.38-1.82s-.63-1.65-2.28-2.26c-2.21-.79-3.25-2-3.25-3.48 0-2 1.6-3.61 4.24-3.61a6.22 6.22 0 0 1 3 .76l-.56 1.63a4.72 4.72 0 0 0-2.51-.71c-1.32 0-2.06.76-2.06 1.67s.74 1.48 2.34 2.09c2.13.81 3.22 1.87 3.22 3.7 0 2.16-1.67 3.68-4.59 3.68a7.13 7.13 0 0 1-3.46-.83zM1414.37 203.81h2.24v18h-2.24zM1431.48 215.59c0 4.55-3.15 6.53-6.12 6.53-3.32 0-5.89-2.44-5.89-6.32 0-4.12 2.69-6.53 6.1-6.53s5.91 2.57 5.91 6.32zm-9.75.13c0 2.69 1.55 4.72 3.74 4.72s3.73-2 3.73-4.77c0-2.08-1-4.72-3.68-4.72s-3.79 2.44-3.79 4.77zM1444.89 209.55c-.05.89-.1 1.88-.1 3.38v7.13c0 2.82-.56 4.55-1.75 5.61a6.52 6.52 0 0 1-4.47 1.48 7.92 7.92 0 0 1-4.09-1l.56-1.7a6.89 6.89 0 0 0 3.6 1c2.29 0 4-1.19 4-4.29v-1.37a4.36 4.36 0 0 1-3.91 2.06c-3 0-5.23-2.59-5.23-6 0-4.17 2.72-6.53 5.54-6.53a4.09 4.09 0 0 1 3.83 2.13l.1-1.85zm-2.31 4.85a3.17 3.17 0 0 0-.13-1 3.22 3.22 0 0 0-3.12-2.37c-2.13 0-3.66 1.81-3.66 4.65 0 2.41 1.22 4.42 3.63 4.42a3.27 3.27 0 0 0 3.1-2.29 3.78 3.78 0 0 0 .18-1.19zM1450.83 206.1a1.39 1.39 0 0 1-2.77 0 1.37 1.37 0 0 1 1.4-1.4 1.33 1.33 0 0 1 1.37 1.4zm-2.49 15.74v-12.29h2.24v12.29zM1463 221.38a8.14 8.14 0 0 1-3.53.71c-3.71 0-6.12-2.51-6.12-6.27a6.24 6.24 0 0 1 6.6-6.52 7.57 7.57 0 0 1 3.1.63l-.51 1.73a5.1 5.1 0 0 0-2.59-.59c-2.81 0-4.34 2.09-4.34 4.65 0 2.84 1.83 4.6 4.27 4.6a6.31 6.31 0 0 0 2.74-.61zM1318.4 260.34a32.23 32.23 0 0 1 4.7-.35c3.17 0 5.43.73 6.93 2.13a7.87 7.87 0 0 1 2.41 6.15 9.06 9.06 0 0 1-2.46 6.65c-1.6 1.6-4.24 2.46-7.57 2.46a35.08 35.08 0 0 1-4-.2zm2.21 15.14a14.28 14.28 0 0 0 2.24.12c4.72 0 7.28-2.64 7.28-7.26 0-4-2.26-6.6-6.93-6.6a12.38 12.38 0 0 0-2.59.23zM1342 277.23l-.18-1.55h-.07a4.61 4.61 0 0 1-3.76 1.83 3.5 3.5 0 0 1-3.76-3.53c0-3 2.64-4.6 7.39-4.57v-.26a2.53 2.53 0 0 0-2.79-2.84 6.17 6.17 0 0 0-3.2.91l-.51-1.47a7.62 7.62 0 0 1 4-1.09c3.75 0 4.67 2.56 4.67 5v4.59a17.62 17.62 0 0 0 .2 3zm-.33-6.27c-2.44 0-5.21.38-5.21 2.76a2 2 0 0 0 2.11 2.14 3.05 3.05 0 0 0 3-2.06 2.22 2.22 0 0 0 .13-.71zM1350.06 261.41v3.53h3.2v1.7h-3.2v6.63c0 1.52.43 2.38 1.68 2.38a4.81 4.81 0 0 0 1.29-.15l.1 1.68a5.4 5.4 0 0 1-2 .3 3.1 3.1 0 0 1-2.41-.94 4.57 4.57 0 0 1-.86-3.2v-6.7H1346v-1.7h1.91V262zM1362.58 277.23l-.18-1.55h-.07a4.61 4.61 0 0 1-3.76 1.83 3.5 3.5 0 0 1-3.76-3.53c0-3 2.64-4.6 7.39-4.57v-.26a2.53 2.53 0 0 0-2.79-2.84 6.17 6.17 0 0 0-3.2.91l-.51-1.47a7.62 7.62 0 0 1 4-1.09c3.75 0 4.67 2.56 4.67 5v4.59a17.62 17.62 0 0 0 .2 3zm-.33-6.27c-2.44 0-5.21.38-5.21 2.76a2 2 0 0 0 2.11 2.14 3.05 3.05 0 0 0 3-2.06 2.22 2.22 0 0 0 .13-.71zM1373.16 274.54a7.86 7.86 0 0 0 4 1.11c2.26 0 3.58-1.19 3.58-2.92s-.92-2.51-3.23-3.4c-2.79-1-4.52-2.44-4.52-4.85 0-2.66 2.21-4.64 5.54-4.64a7.79 7.79 0 0 1 3.78.83l-.61 1.81a6.74 6.74 0 0 0-3.25-.82c-2.34 0-3.22 1.4-3.22 2.57 0 1.6 1 2.39 3.4 3.3 2.89 1.12 4.37 2.51 4.37 5s-2 4.92-6 4.92a8.8 8.8 0 0 1-4.36-1.09zM1387.31 271.49c0 3 2 4.27 4.21 4.27a8 8 0 0 0 3.4-.64l.38 1.6a9.83 9.83 0 0 1-4.08.76c-3.79 0-6-2.49-6-6.19s2.19-6.63 5.77-6.63c4 0 5.08 3.53 5.08 5.79a9.4 9.4 0 0 1-.08 1zm6.55-1.6c0-1.42-.59-3.63-3.1-3.63-2.26 0-3.25 2.08-3.43 3.63zM1407.54 276.77a8.14 8.14 0 0 1-3.53.71c-3.7 0-6.12-2.51-6.12-6.27a6.24 6.24 0 0 1 6.61-6.52 7.52 7.52 0 0 1 3.09.63l-.51 1.73a5.09 5.09 0 0 0-2.58-.59c-2.82 0-4.35 2.09-4.35 4.65 0 2.84 1.83 4.6 4.27 4.6a6.31 6.31 0 0 0 2.74-.61zM1420.44 273.88c0 1.27 0 2.38.1 3.35h-2l-.13-2a4.62 4.62 0 0 1-4.06 2.29c-1.93 0-4.24-1.07-4.24-5.38v-7.19h2.23v6.8c0 2.34.72 3.91 2.75 3.91a3.22 3.22 0 0 0 2.94-2 3.17 3.17 0 0 0 .21-1.14v-7.54h2.23zM1424.15 268.77c0-1.44 0-2.69-.11-3.83h2l.08 2.41h.1a3.68 3.68 0 0 1 3.4-2.69 2.41 2.41 0 0 1 .63.08v2.1a3.33 3.33 0 0 0-.76-.07 3.13 3.13 0 0 0-3 2.87 6.26 6.26 0 0 0-.11 1v6.55h-2.2zM1435 261.49a1.39 1.39 0 0 1-2.77 0 1.36 1.36 0 0 1 1.4-1.4 1.33 1.33 0 0 1 1.37 1.4zm-2.49 15.74v-12.29h2.23v12.29zM1441.18 261.41v3.53h3.2v1.7h-3.2v6.63c0 1.52.43 2.38 1.68 2.38a4.81 4.81 0 0 0 1.29-.15l.1 1.68a5.4 5.4 0 0 1-2 .3 3.09 3.09 0 0 1-2.41-.94 4.57 4.57 0 0 1-.86-3.2v-6.7h-1.91v-1.7h1.93V262zM1447.93 264.94l2.69 7.26c.28.81.59 1.78.79 2.52.23-.74.49-1.68.79-2.57l2.44-7.21h2.36l-3.35 8.76c-1.6 4.21-2.69 6.37-4.22 7.69a6 6 0 0 1-2.74 1.45l-.56-1.88a5.92 5.92 0 0 0 2-1.09 6.8 6.8 0 0 0 1.88-2.49 1.63 1.63 0 0 0 .17-.53 2 2 0 0 0-.15-.59l-4.54-11.32zM1318.4 315.71a25.46 25.46 0 0 1 4.24-.33 7 7 0 0 1 4.8 1.42 4.6 4.6 0 0 1 1.5 3.58 5.06 5.06 0 0 1-1.32 3.66 7.1 7.1 0 0 1-5.23 1.87 7.48 7.48 0 0 1-1.78-.15v6.86h-2.21zm2.21 8.25a7.24 7.24 0 0 0 1.83.18c2.67 0 4.29-1.3 4.29-3.66s-1.6-3.35-4-3.35a8.76 8.76 0 0 0-2.08.18zM1331.43 324.16c0-1.45 0-2.69-.1-3.83h2l.08 2.41h.1a3.68 3.68 0 0 1 3.4-2.69 2.51 2.51 0 0 1 .64.07v2.11a3.49 3.49 0 0 0-.77-.07 3.13 3.13 0 0 0-3 2.87 6.33 6.33 0 0 0-.1 1v6.55h-2.21zM1350.6 326.37c0 4.55-3.15 6.53-6.12 6.53-3.33 0-5.89-2.44-5.89-6.33 0-4.11 2.69-6.52 6.09-6.52s5.92 2.56 5.92 6.32zm-9.75.13c0 2.69 1.55 4.72 3.73 4.72s3.73-2 3.73-4.77c0-2.08-1-4.73-3.68-4.73s-3.78 2.44-3.78 4.78zM1364 314.59v14.85c0 1.1 0 2.34.1 3.18h-2l-.1-2.14a4.53 4.53 0 0 1-4.19 2.42c-3 0-5.25-2.52-5.25-6.25 0-4.09 2.51-6.6 5.51-6.6a4.11 4.11 0 0 1 3.7 1.88v-7.34zm-2.24 10.74a3.76 3.76 0 0 0-.1-.94 3.29 3.29 0 0 0-3.22-2.59c-2.31 0-3.68 2-3.68 4.75 0 2.49 1.21 4.54 3.63 4.54a3.35 3.35 0 0 0 3.27-2.66 3.75 3.75 0 0 0 .1-1zM1378 329.27c0 1.27 0 2.38.1 3.35h-2l-.13-2a4.62 4.62 0 0 1-4.06 2.29c-1.93 0-4.24-1.07-4.24-5.39v-7.18h2.23v6.8c0 2.34.71 3.91 2.74 3.91a3.24 3.24 0 0 0 2.95-2 3.17 3.17 0 0 0 .2-1.14v-7.54h2.21zM1390.48 332.16a8.3 8.3 0 0 1-3.53.71c-3.7 0-6.12-2.51-6.12-6.27a6.25 6.25 0 0 1 6.61-6.53 7.34 7.34 0 0 1 3.09.64l-.5 1.73a5.16 5.16 0 0 0-2.59-.59c-2.82 0-4.35 2.08-4.35 4.65 0 2.84 1.83 4.59 4.27 4.59a6.31 6.31 0 0 0 2.74-.61zM1396.12 316.8v3.53h3.2V322h-3.2v6.63c0 1.52.43 2.38 1.67 2.38a4.84 4.84 0 0 0 1.3-.15l.1 1.68a5.67 5.67 0 0 1-2 .3 3.09 3.09 0 0 1-2.41-.94 4.52 4.52 0 0 1-.87-3.2V322H1392v-1.7h1.9v-2.95zM1400.31 335.74a36.38 36.38 0 0 0 1.52-6.07l2.49-.25a31.52 31.52 0 0 1-2.41 6.17zM1421.15 332.16a8.3 8.3 0 0 1-3.53.71c-3.71 0-6.12-2.51-6.12-6.27a6.25 6.25 0 0 1 6.6-6.53 7.39 7.39 0 0 1 3.1.64l-.51 1.73a5.1 5.1 0 0 0-2.59-.59c-2.81 0-4.34 2.08-4.34 4.65 0 2.84 1.83 4.59 4.27 4.59a6.34 6.34 0 0 0 2.74-.61zM1434.05 329.27c0 1.27 0 2.38.1 3.35h-2l-.13-2a4.62 4.62 0 0 1-4.06 2.29c-1.93 0-4.24-1.07-4.24-5.39v-7.18h2.23v6.8c0 2.34.71 3.91 2.74 3.91a3.24 3.24 0 0 0 2.95-2 3.17 3.17 0 0 0 .2-1.14v-7.54h2.24zM1437.45 330.33a5.87 5.87 0 0 0 2.94.89c1.63 0 2.39-.81 2.39-1.83s-.63-1.65-2.28-2.26c-2.21-.78-3.25-2-3.25-3.48 0-2 1.6-3.6 4.24-3.6a6.11 6.11 0 0 1 3 .76l-.56 1.63a4.71 4.71 0 0 0-2.51-.72c-1.32 0-2.06.77-2.06 1.68s.74 1.47 2.33 2.08c2.14.81 3.23 1.88 3.23 3.71 0 2.16-1.68 3.68-4.6 3.68a7 7 0 0 1-3.45-.84zM1450.5 316.8v3.53h3.2V322h-3.2v6.63c0 1.52.43 2.38 1.67 2.38a4.84 4.84 0 0 0 1.3-.15l.1 1.68a5.67 5.67 0 0 1-2 .3 3.09 3.09 0 0 1-2.41-.94 4.53 4.53 0 0 1-.86-3.2V322h-1.91v-1.7h1.91v-2.95zM1467.18 326.37c0 4.55-3.15 6.53-6.12 6.53-3.33 0-5.89-2.44-5.89-6.33 0-4.11 2.69-6.52 6.09-6.52s5.92 2.56 5.92 6.32zm-9.75.13c0 2.69 1.55 4.72 3.73 4.72s3.73-2 3.73-4.77c0-2.08-1-4.73-3.68-4.73s-3.78 2.44-3.78 4.78zM1470 323.65c0-1.27 0-2.31-.1-3.32h1.95l.1 2h.08a4.23 4.23 0 0 1 3.86-2.26 3.64 3.64 0 0 1 3.48 2.46h.05a5.08 5.08 0 0 1 1.37-1.6 4.17 4.17 0 0 1 2.71-.86c1.63 0 4 1.07 4 5.33v7.24h-2.18v-7c0-2.36-.86-3.78-2.67-3.78a2.89 2.89 0 0 0-2.64 2 3.7 3.7 0 0 0-.18 1.12v7.59h-2.18v-7.37c0-1.95-.86-3.37-2.56-3.37a3 3 0 0 0-2.77 2.23 3 3 0 0 0-.18 1.09v7.42H1470zM1492.41 326.88c.06 3 2 4.26 4.22 4.26a8 8 0 0 0 3.4-.63l.38 1.6a10 10 0 0 1-4.08.76c-3.79 0-6-2.49-6-6.19s2.19-6.63 5.77-6.63c4 0 5.07 3.53 5.07 5.79a10.18 10.18 0 0 1-.07 1zm6.56-1.6c0-1.42-.59-3.63-3.1-3.63-2.26 0-3.25 2.08-3.43 3.63zM1503.89 324.16c0-1.45 0-2.69-.1-3.83h2l.08 2.41h.1a3.69 3.69 0 0 1 3.4-2.69 2.46 2.46 0 0 1 .64.07v2.11a3.45 3.45 0 0 0-.76-.07 3.13 3.13 0 0 0-3 2.87 6.33 6.33 0 0 0-.1 1v6.55h-2.21zM1524.38 332.62l-.18-1.55h-.08a4.57 4.57 0 0 1-3.75 1.83 3.51 3.51 0 0 1-3.76-3.53c0-3 2.64-4.6 7.39-4.57v-.26a2.53 2.53 0 0 0-2.79-2.84 6.08 6.08 0 0 0-3.2.91l-.51-1.47a7.62 7.62 0 0 1 4-1.09c3.75 0 4.67 2.56 4.67 5v4.59a17.62 17.62 0 0 0 .2 2.95zm-.33-6.27c-2.44-.06-5.21.38-5.21 2.76a2 2 0 0 0 2.11 2.14 3.05 3.05 0 0 0 3-2.06 2.22 2.22 0 0 0 .13-.71zM1529.81 323.65c0-1.27 0-2.31-.1-3.32h2l.13 2a4.51 4.51 0 0 1 4.06-2.31c1.7 0 4.34 1 4.34 5.23v7.34H1538v-7.09c0-2-.74-3.63-2.85-3.63a3.17 3.17 0 0 0-3 2.29 3.26 3.26 0 0 0-.15 1v7.39h-2.24zM1554.52 314.59v14.85c0 1.1 0 2.34.1 3.18h-2l-.1-2.14a4.54 4.54 0 0 1-4.19 2.42c-3 0-5.26-2.52-5.26-6.25 0-4.09 2.52-6.6 5.51-6.6a4.12 4.12 0 0 1 3.71 1.88v-7.34zm-2.24 10.74a3.76 3.76 0 0 0-.1-.94 3.29 3.29 0 0 0-3.22-2.59c-2.32 0-3.69 2-3.69 4.75 0 2.49 1.22 4.54 3.63 4.54a3.37 3.37 0 0 0 3.28-2.66 3.75 3.75 0 0 0 .1-1zM1574.72 326.37c0 4.55-3.14 6.53-6.11 6.53-3.33 0-5.9-2.44-5.9-6.33 0-4.11 2.7-6.52 6.1-6.52s5.91 2.56 5.91 6.32zm-9.75.13c0 2.69 1.55 4.72 3.74 4.72s3.73-2 3.73-4.77c0-2.08-1-4.73-3.68-4.73s-3.76 2.44-3.76 4.78zM1577.54 324.16c0-1.45 0-2.69-.1-3.83h2l.07 2.41h.1a3.69 3.69 0 0 1 3.41-2.69 2.43 2.43 0 0 1 .63.07v2.11a3.45 3.45 0 0 0-.76-.07 3.13 3.13 0 0 0-3 2.87 6.33 6.33 0 0 0-.1 1v6.55h-2.21zM1596.2 314.59v14.85c0 1.1 0 2.34.11 3.18h-2l-.1-2.14a4.55 4.55 0 0 1-4.19 2.42c-3 0-5.26-2.52-5.26-6.25 0-4.09 2.52-6.6 5.51-6.6a4.12 4.12 0 0 1 3.71 1.88v-7.34zm-2.2 10.74a4.29 4.29 0 0 0-.1-.94 3.29 3.29 0 0 0-3.23-2.59c-2.31 0-3.68 2-3.68 4.75 0 2.49 1.22 4.54 3.63 4.54a3.37 3.37 0 0 0 3.28-2.66 4.25 4.25 0 0 0 .1-1zM1601.15 326.88c.06 3 2 4.26 4.22 4.26a8 8 0 0 0 3.4-.63l.38 1.6a10 10 0 0 1-4.09.76c-3.78 0-6-2.49-6-6.19s2.19-6.63 5.77-6.63c4 0 5.07 3.53 5.07 5.79a10.18 10.18 0 0 1-.07 1zm6.56-1.6c0-1.42-.59-3.63-3.1-3.63-2.26 0-3.25 2.08-3.43 3.63zM1612.63 324.16c0-1.45 0-2.69-.1-3.83h2l.08 2.41h.1a3.69 3.69 0 0 1 3.4-2.69 2.46 2.46 0 0 1 .64.07v2.11a3.45 3.45 0 0 0-.76-.07 3.13 3.13 0 0 0-3 2.87 6.33 6.33 0 0 0-.1 1v6.55h-2.21zM1318.33 349.73c0-1.58 0-2.85-.1-4h2l.1 2.1h.05a4.86 4.86 0 0 1 4.37-2.38c3 0 5.21 2.51 5.21 6.24 0 4.42-2.7 6.61-5.59 6.61a4.32 4.32 0 0 1-3.78-1.93V363h-2.21zm2.21 3.27a5.18 5.18 0 0 0 .1.92 3.43 3.43 0 0 0 3.35 2.61c2.36 0 3.73-1.93 3.73-4.74 0-2.47-1.29-4.58-3.65-4.58a3.57 3.57 0 0 0-3.38 2.77 3.47 3.47 0 0 0-.15.92zM1332.77 349.55c0-1.45 0-2.69-.1-3.83h2l.07 2.41h.1a3.69 3.69 0 0 1 3.41-2.69 2.43 2.43 0 0 1 .63.07v2.11a3.41 3.41 0 0 0-.76-.08 3.14 3.14 0 0 0-3 2.87 6.44 6.44 0 0 0-.1 1V358h-2.21zM1351.94 351.76c0 4.54-3.15 6.53-6.12 6.53-3.32 0-5.89-2.44-5.89-6.33 0-4.11 2.69-6.52 6.1-6.52s5.91 2.56 5.91 6.32zm-9.75.13c0 2.69 1.55 4.72 3.73 4.72s3.74-2 3.74-4.77c0-2.09-1-4.73-3.69-4.73s-3.78 2.44-3.78 4.78zM1363.52 357.55a8.33 8.33 0 0 1-3.53.71c-3.71 0-6.12-2.51-6.12-6.27a6.24 6.24 0 0 1 6.6-6.53 7.39 7.39 0 0 1 3.1.64l-.51 1.72a5.23 5.23 0 0 0-2.59-.58c-2.82 0-4.34 2.08-4.34 4.65 0 2.84 1.83 4.59 4.27 4.59a6.38 6.38 0 0 0 2.74-.61zM1367.22 352.27c.06 3 2 4.26 4.22 4.26a8.17 8.17 0 0 0 3.4-.63l.38 1.6a10 10 0 0 1-4.09.76c-3.78 0-6-2.49-6-6.2s2.19-6.62 5.77-6.62c4 0 5.07 3.53 5.07 5.79a10.18 10.18 0 0 1-.07 1zm6.56-1.6c0-1.42-.59-3.63-3.1-3.63-2.26 0-3.25 2.08-3.43 3.63zM1378.4 355.72a5.84 5.84 0 0 0 2.94.89c1.63 0 2.39-.81 2.39-1.83s-.64-1.65-2.29-2.26c-2.21-.79-3.25-2-3.25-3.48 0-2 1.6-3.6 4.24-3.6a6.05 6.05 0 0 1 3 .76l-.55 1.62a4.89 4.89 0 0 0-2.52-.71c-1.32 0-2.05.76-2.05 1.68s.73 1.47 2.33 2.08c2.13.81 3.23 1.88 3.23 3.71 0 2.16-1.68 3.68-4.6 3.68a7 7 0 0 1-3.45-.84zM1388.45 355.72a5.87 5.87 0 0 0 2.94.89c1.63 0 2.39-.81 2.39-1.83s-.63-1.65-2.28-2.26c-2.21-.79-3.25-2-3.25-3.48 0-2 1.6-3.6 4.24-3.6a6.11 6.11 0 0 1 3 .76l-.56 1.62a4.81 4.81 0 0 0-2.51-.71c-1.32 0-2.06.76-2.06 1.68s.74 1.47 2.33 2.08c2.14.81 3.23 1.88 3.23 3.71 0 2.16-1.68 3.68-4.6 3.68a7 7 0 0 1-3.45-.84zM1404.19 349.55c0-1.45 0-2.69-.1-3.83h2l.08 2.41h.1a3.68 3.68 0 0 1 3.4-2.69 2.51 2.51 0 0 1 .64.07v2.11a3.41 3.41 0 0 0-.76-.08 3.14 3.14 0 0 0-3 2.87 6.44 6.44 0 0 0-.1 1V358h-2.21zM1413.48 352.27a3.93 3.93 0 0 0 4.22 4.26 8.17 8.17 0 0 0 3.4-.63l.38 1.6a10.06 10.06 0 0 1-4.09.76c-3.78 0-6-2.49-6-6.2s2.18-6.62 5.76-6.62c4 0 5.08 3.53 5.08 5.79a7.57 7.57 0 0 1-.08 1zm6.55-1.6c0-1.42-.58-3.63-3.1-3.63-2.26 0-3.25 2.08-3.42 3.63zM1430.85 350.31V352h-6.27v-1.65zM1435.16 352.27a3.93 3.93 0 0 0 4.22 4.26 8.17 8.17 0 0 0 3.4-.63l.38 1.6a10.06 10.06 0 0 1-4.09.76c-3.78 0-6-2.49-6-6.2s2.18-6.62 5.76-6.62c4 0 5.08 3.53 5.08 5.79a10.18 10.18 0 0 1-.07 1zm6.55-1.6c0-1.42-.58-3.63-3.09-3.63-2.26 0-3.25 2.08-3.43 3.63zM1446.64 349c0-1.27 0-2.31-.1-3.32h2l.12 2h.06a4.5 4.5 0 0 1 4.06-2.31c1.7 0 4.34 1 4.34 5.23v7.4h-2.23v-7.09c0-2-.74-3.63-2.85-3.63a3.17 3.17 0 0 0-3 2.29 3 3 0 0 0-.16 1V358h-2.23zM1471.32 345.72c0 .89-.1 1.88-.1 3.37v7.14c0 2.82-.56 4.54-1.76 5.61a6.49 6.49 0 0 1-4.46 1.47 7.92 7.92 0 0 1-4.09-1l.56-1.7a7 7 0 0 0 3.6 1c2.29 0 4-1.19 4-4.29v-1.42a4.37 4.37 0 0 1-3.91 2.05c-3 0-5.23-2.58-5.23-6 0-4.16 2.72-6.52 5.54-6.52a4.07 4.07 0 0 1 3.83 2.13l.1-1.85zm-2.31 4.85a3.28 3.28 0 0 0-.13-1 3.23 3.23 0 0 0-3.12-2.36c-2.14 0-3.66 1.8-3.66 4.65 0 2.41 1.22 4.41 3.63 4.41a3.27 3.27 0 0 0 3.1-2.28 3.78 3.78 0 0 0 .18-1.19zM1477.26 342.26a1.39 1.39 0 0 1-2.77 0 1.36 1.36 0 0 1 1.4-1.39 1.33 1.33 0 0 1 1.37 1.39zm-2.49 15.74v-12.28h2.23V358zM1480.71 349c0-1.27 0-2.31-.1-3.32h2l.12 2h.06a4.5 4.5 0 0 1 4.06-2.31c1.7 0 4.34 1 4.34 5.23v7.4h-2.23v-7.09c0-2-.74-3.63-2.85-3.63a3.17 3.17 0 0 0-3 2.29 3 3 0 0 0-.16 1V358h-2.23zM1496 352.27a3.93 3.93 0 0 0 4.22 4.26 8.17 8.17 0 0 0 3.4-.63l.38 1.6a10.06 10.06 0 0 1-4.09.76c-3.78 0-6-2.49-6-6.2s2.18-6.62 5.76-6.62c4 0 5.08 3.53 5.08 5.79a10.18 10.18 0 0 1-.07 1zm6.55-1.6c0-1.42-.58-3.63-3.09-3.63-2.26 0-3.25 2.08-3.43 3.63zM1508.76 352.27a3.93 3.93 0 0 0 4.22 4.26 8.17 8.17 0 0 0 3.4-.63l.38 1.6a10.06 10.06 0 0 1-4.09.76c-3.78 0-6-2.49-6-6.2s2.18-6.62 5.76-6.62c4 0 5.08 3.53 5.08 5.79a10.18 10.18 0 0 1-.07 1zm6.55-1.6c0-1.42-.58-3.63-3.09-3.63-2.26 0-3.25 2.08-3.43 3.63zM1520.24 349.55c0-1.45 0-2.69-.1-3.83h1.95l.08 2.41h.1a3.68 3.68 0 0 1 3.4-2.69 2.51 2.51 0 0 1 .64.07v2.11a3.41 3.41 0 0 0-.76-.08 3.14 3.14 0 0 0-3 2.87 6.44 6.44 0 0 0-.1 1V358h-2.21zM1531.13 342.26a1.31 1.31 0 0 1-1.42 1.37 1.32 1.32 0 0 1-1.35-1.37 1.36 1.36 0 0 1 1.4-1.39 1.32 1.32 0 0 1 1.37 1.39zm-2.49 15.74v-12.28h2.24V358zM1534.58 349c0-1.27 0-2.31-.1-3.32h2l.13 2h.05a4.51 4.51 0 0 1 4.06-2.31c1.7 0 4.34 1 4.34 5.23v7.4h-2.23v-7.09c0-2-.74-3.63-2.84-3.63a3.17 3.17 0 0 0-3 2.29 3.26 3.26 0 0 0-.15 1V358h-2.24zM1559.26 345.72c0 .89-.1 1.88-.1 3.37v7.14c0 2.82-.56 4.54-1.75 5.61a6.51 6.51 0 0 1-4.47 1.47 8 8 0 0 1-4.09-1l.56-1.7a7 7 0 0 0 3.61 1c2.28 0 4-1.19 4-4.29v-1.42a4.4 4.4 0 0 1-4.02 2.1c-3 0-5.23-2.58-5.23-6 0-4.16 2.71-6.52 5.53-6.52a4.07 4.07 0 0 1 3.83 2.13h.06l.1-1.85zm-2.31 4.85a3 3 0 0 0-.13-1 3.21 3.21 0 0 0-3.12-2.36c-2.13 0-3.66 1.8-3.66 4.65 0 2.41 1.22 4.41 3.64 4.41a3.25 3.25 0 0 0 3.09-2.28 3.78 3.78 0 0 0 .18-1.19z"/>
  <circle class="cls-4" cx="1289.74" cy="215" r="4.5"/>
  <circle class="cls-4" cx="1289.74" cy="270.31" r="4.5"/>
  <circle class="cls-4" cx="1289.74" cy="325.62" r="4.5"/>
  <path class="cls-5" d="M830.26.12v438.75h407.97V0L830.26.12z"/>
  <path class="cls-6" d="M849.36 170.99l369.77-.06"/>
  <path class="cls-3" d="M986.86 95.43a7.83 7.83 0 0 0 4 1.12c2.26 0 3.58-1.19 3.58-2.92s-.92-2.51-3.23-3.4c-2.79-1-4.52-2.44-4.52-4.85 0-2.67 2.21-4.65 5.54-4.65a7.78 7.78 0 0 1 3.78.84l-.61 1.8a6.84 6.84 0 0 0-3.25-.81c-2.33 0-3.22 1.4-3.22 2.56 0 1.6 1 2.39 3.4 3.31 2.9 1.11 4.37 2.51 4.37 5s-2 4.93-6 4.93a8.84 8.84 0 0 1-4.37-1.09zM1006.48 98.12l-.17-1.54h-.08a4.6 4.6 0 0 1-3.76 1.82 3.5 3.5 0 0 1-3.76-3.53c0-3 2.64-4.59 7.39-4.57v-.25a2.53 2.53 0 0 0-2.79-2.84 6.11 6.11 0 0 0-3.2.91l-.51-1.47a7.65 7.65 0 0 1 4-1.09c3.76 0 4.67 2.56 4.67 5v4.6a17.41 17.41 0 0 0 .2 2.94zm-.33-6.27c-2.43 0-5.2.38-5.2 2.77a2 2 0 0 0 2.11 2.13 3.06 3.06 0 0 0 3-2 2.58 2.58 0 0 0 .12-.71zM1011.92 80.1h2.23v18h-2.23zM1019.15 92.39a3.93 3.93 0 0 0 4.22 4.26 8.17 8.17 0 0 0 3.4-.63l.38 1.6a10.06 10.06 0 0 1-4.09.76c-3.78 0-6-2.49-6-6.2s2.18-6.62 5.76-6.62c4 0 5.08 3.53 5.08 5.79a7.57 7.57 0 0 1-.08 1zm6.55-1.6c0-1.43-.58-3.63-3.1-3.63-2.26 0-3.25 2.08-3.42 3.63zM1030.32 95.84a5.88 5.88 0 0 0 3 .89c1.62 0 2.38-.81 2.38-1.83s-.63-1.65-2.28-2.26c-2.21-.79-3.25-2-3.25-3.48 0-2 1.6-3.6 4.24-3.6a6.08 6.08 0 0 1 3 .76l-.56 1.62a4.81 4.81 0 0 0-2.51-.71c-1.32 0-2.06.76-2.06 1.68s.74 1.47 2.34 2.08c2.13.81 3.22 1.88 3.22 3.71 0 2.15-1.67 3.68-4.59 3.68a7 7 0 0 1-3.46-.84zM897.16 219.15a7.8 7.8 0 0 0 4 1.12c2.26 0 3.58-1.2 3.58-2.92s-.92-2.52-3.23-3.41c-2.79-1-4.52-2.43-4.52-4.85 0-2.66 2.21-4.64 5.54-4.64a7.66 7.66 0 0 1 3.78.84l-.61 1.8a6.76 6.76 0 0 0-3.25-.81c-2.33 0-3.22 1.39-3.22 2.56 0 1.6 1 2.39 3.4 3.3 2.9 1.12 4.37 2.51 4.37 5s-2 4.92-6 4.92a8.84 8.84 0 0 1-4.4-1.06zM911.3 216.1c.05 3 2 4.27 4.21 4.27a8 8 0 0 0 3.41-.64l.38 1.6a9.93 9.93 0 0 1-4.09.76c-3.78 0-6-2.48-6-6.19s2.18-6.63 5.76-6.63c4 0 5.08 3.53 5.08 5.79a7.43 7.43 0 0 1-.08 1zm6.55-1.6c0-1.42-.58-3.63-3.1-3.63-2.26 0-3.25 2.08-3.43 3.63zM922.77 203.81H925v18h-2.24zM929 221.84v-10.59h-1.72v-1.7H929V209a5.75 5.75 0 0 1 1.43-4.29 4.22 4.22 0 0 1 3-1.15 5.18 5.18 0 0 1 1.91.36l-.31 1.73a3.23 3.23 0 0 0-1.42-.28c-1.9 0-2.39 1.67-2.39 3.55v.66h3v1.7h-3v10.59zM941.36 214.15v1.65h-6.27v-1.65zM943.67 219.56a5.87 5.87 0 0 0 2.94.88c1.63 0 2.39-.81 2.39-1.82s-.63-1.65-2.29-2.26c-2.2-.79-3.25-2-3.25-3.48 0-2 1.6-3.61 4.25-3.61a6.22 6.22 0 0 1 3 .76l-.56 1.63a4.73 4.73 0 0 0-2.52-.71c-1.32 0-2 .76-2 1.67s.73 1.48 2.33 2.09c2.14.81 3.23 1.87 3.23 3.7 0 2.16-1.68 3.68-4.6 3.68a7.09 7.09 0 0 1-3.45-.83zM955.27 216.1c.05 3 2 4.27 4.22 4.27a8 8 0 0 0 3.4-.64l.38 1.6a9.89 9.89 0 0 1-4.09.76c-3.78 0-6-2.48-6-6.19s2.18-6.63 5.76-6.63c4 0 5.08 3.53 5.08 5.79a7.43 7.43 0 0 1-.08 1zm6.55-1.6c0-1.42-.58-3.63-3.1-3.63-2.26 0-3.25 2.08-3.42 3.63zM966.75 213.39c0-1.45 0-2.7-.11-3.84h2l.08 2.41h.1a3.68 3.68 0 0 1 3.4-2.69 2.41 2.41 0 0 1 .63.08v2.11a2.81 2.81 0 0 0-.76-.08 3.13 3.13 0 0 0-3 2.87 6.33 6.33 0 0 0-.1 1v6.55h-2.21zM976.55 209.55l2.41 6.91c.4 1.11.73 2.13 1 3.15h.04c.28-1 .64-2 1.05-3.15l2.38-6.91h2.34L981 221.84h-2.13l-4.67-12.29zM990.38 206.1a1.38 1.38 0 0 1-2.76 0 1.36 1.36 0 0 1 1.39-1.4 1.33 1.33 0 0 1 1.37 1.4zm-2.49 15.74v-12.29h2.24v12.29zM1002.59 221.38a8.09 8.09 0 0 1-3.52.71c-3.71 0-6.12-2.51-6.12-6.27a6.24 6.24 0 0 1 6.6-6.52 7.57 7.57 0 0 1 3.1.63l-.51 1.73a5.13 5.13 0 0 0-2.59-.59c-2.82 0-4.34 2.09-4.34 4.65 0 2.84 1.82 4.6 4.26 4.6a6.31 6.31 0 0 0 2.74-.61zM1006.3 216.1c.05 3 2 4.27 4.22 4.27a8 8 0 0 0 3.4-.64l.38 1.6a9.89 9.89 0 0 1-4.09.76c-3.78 0-6-2.48-6-6.19s2.18-6.63 5.76-6.63c4 0 5.08 3.53 5.08 5.79a7.43 7.43 0 0 1-.08 1zm6.55-1.6c0-1.42-.58-3.63-3.1-3.63-2.26 0-3.25 2.08-3.42 3.63zM1023.16 213.56c0-1.57 0-2.84-.1-4h2l.1 2.11a4.85 4.85 0 0 1 4.37-2.39c3 0 5.21 2.52 5.21 6.25 0 4.42-2.69 6.6-5.59 6.6a4.3 4.3 0 0 1-3.78-1.93h-.05v6.68h-2.21zm2.21 3.28a5.07 5.07 0 0 0 .1.91 3.44 3.44 0 0 0 3.35 2.62c2.36 0 3.73-1.93 3.73-4.75 0-2.46-1.29-4.57-3.65-4.57a3.56 3.56 0 0 0-3.38 2.77 3.47 3.47 0 0 0-.15.91zM1048.72 215.59c0 4.55-3.14 6.53-6.11 6.53-3.33 0-5.9-2.44-5.9-6.32 0-4.12 2.7-6.53 6.1-6.53s5.91 2.57 5.91 6.32zm-9.75.13c0 2.69 1.55 4.72 3.74 4.72s3.73-2 3.73-4.77c0-2.08-1-4.72-3.68-4.72s-3.76 2.44-3.76 4.77zM1051.54 213.39c0-1.45 0-2.7-.1-3.84h2l.07 2.41h.1a3.69 3.69 0 0 1 3.41-2.69 2.41 2.41 0 0 1 .63.08v2.11a2.91 2.91 0 0 0-.76-.08 3.13 3.13 0 0 0-3 2.87 6.33 6.33 0 0 0-.1 1v6.55h-2.21zM1063.14 206v3.53h3.2v1.7h-3.2v6.63c0 1.52.44 2.39 1.68 2.39a4.73 4.73 0 0 0 1.29-.16l.11 1.68a5.48 5.48 0 0 1-2 .3 3.11 3.11 0 0 1-2.42-.94 4.56 4.56 0 0 1-.8-3.13v-6.71h-1.9v-1.7h1.9v-2.94zM1075.66 221.84l-.18-1.55h-.07a4.58 4.58 0 0 1-3.76 1.83 3.5 3.5 0 0 1-3.76-3.53c0-3 2.64-4.6 7.39-4.57v-.25a2.54 2.54 0 0 0-2.79-2.85 6.09 6.09 0 0 0-3.2.92l-.51-1.48a7.62 7.62 0 0 1 4-1.09c3.75 0 4.67 2.57 4.67 5v4.59a17.62 17.62 0 0 0 .2 3zm-.33-6.27c-2.44 0-5.21.38-5.21 2.77a2 2 0 0 0 2.11 2.13 3.05 3.05 0 0 0 3-2.06 2.22 2.22 0 0 0 .13-.71zM1081.09 203.81h2.24v18h-2.24zM1086.78 219.56a5.87 5.87 0 0 0 2.94.88c1.63 0 2.39-.81 2.39-1.82s-.63-1.65-2.28-2.26c-2.21-.79-3.25-2-3.25-3.48 0-2 1.6-3.61 4.24-3.61a6.22 6.22 0 0 1 3 .76l-.56 1.63a4.72 4.72 0 0 0-2.51-.71c-1.32 0-2.06.76-2.06 1.67s.74 1.48 2.33 2.09c2.14.81 3.23 1.87 3.23 3.7 0 2.16-1.68 3.68-4.6 3.68a7.09 7.09 0 0 1-3.45-.83zM897.46 260.32a25.36 25.36 0 0 1 4.24-.33 7 7 0 0 1 4.8 1.42A4.6 4.6 0 0 1 908 265a5.06 5.06 0 0 1-1.32 3.66 7.11 7.11 0 0 1-5.23 1.88 7.45 7.45 0 0 1-1.78-.16v6.86h-2.21zm2.21 8.25a7.24 7.24 0 0 0 1.83.18c2.66 0 4.29-1.3 4.29-3.66s-1.6-3.35-4-3.35a9.33 9.33 0 0 0-2.08.18zM910.49 268.77c0-1.44 0-2.69-.11-3.83h2l.08 2.41h.1a3.68 3.68 0 0 1 3.4-2.69 2.41 2.41 0 0 1 .63.08v2.1a3.33 3.33 0 0 0-.76-.07 3.13 3.13 0 0 0-3 2.87 6.33 6.33 0 0 0-.1 1v6.55h-2.21zM929.66 271c0 4.55-3.15 6.53-6.12 6.53-3.33 0-5.89-2.44-5.89-6.32 0-4.12 2.69-6.53 6.09-6.53s5.92 2.54 5.92 6.32zm-9.75.13c0 2.69 1.54 4.72 3.73 4.72s3.73-2 3.73-4.77c0-2.08-1-4.72-3.68-4.72s-3.78 2.41-3.78 4.75zM943.09 259.2v14.86c0 1.09 0 2.33.1 3.17h-2l-.1-2.13H941a4.55 4.55 0 0 1-4.19 2.41c-3 0-5.26-2.52-5.26-6.25 0-4.09 2.52-6.6 5.51-6.6a4.12 4.12 0 0 1 3.71 1.88h.05v-7.34zm-2.24 10.74a3.76 3.76 0 0 0-.1-.94 3.29 3.29 0 0 0-3.22-2.59c-2.32 0-3.69 2-3.69 4.75 0 2.49 1.22 4.55 3.63 4.55a3.36 3.36 0 0 0 3.28-2.67 3.75 3.75 0 0 0 .1-1zM957.08 273.88c0 1.27 0 2.38.1 3.35h-2l-.13-2H955a4.64 4.64 0 0 1-4.06 2.29c-1.93 0-4.24-1.07-4.24-5.38v-7.19h2.3v6.8c0 2.34.71 3.91 2.74 3.91a3.24 3.24 0 0 0 2.95-2 3.4 3.4 0 0 0 .2-1.14v-7.54h2.24zM969.54 276.77a8.14 8.14 0 0 1-3.53.71c-3.71 0-6.12-2.51-6.12-6.27a6.24 6.24 0 0 1 6.6-6.52 7.57 7.57 0 0 1 3.1.63l-.51 1.73a5.1 5.1 0 0 0-2.59-.59c-2.81 0-4.34 2.09-4.34 4.65 0 2.84 1.83 4.6 4.27 4.6a6.31 6.31 0 0 0 2.74-.61zM975.18 261.41v3.53h3.2v1.7h-3.2v6.63c0 1.52.43 2.38 1.67 2.38a4.84 4.84 0 0 0 1.3-.15l.1 1.68a5.44 5.44 0 0 1-2 .3 3.09 3.09 0 0 1-2.41-.94 4.52 4.52 0 0 1-.87-3.2v-6.7h-1.9v-1.7H973V262zM986.27 268.77c0-1.44 0-2.69-.1-3.83h2l.08 2.41h.1a3.69 3.69 0 0 1 3.4-2.69 2.43 2.43 0 0 1 .64.08v2.1a3.45 3.45 0 0 0-.76-.07 3.13 3.13 0 0 0-3 2.87 6.33 6.33 0 0 0-.1 1v6.55h-2.21zM995.56 271.49c.05 3 2 4.27 4.22 4.27a8 8 0 0 0 3.4-.64l.38 1.6a9.89 9.89 0 0 1-4.09.76c-3.78 0-6-2.49-6-6.19s2.18-6.63 5.76-6.63c4 0 5.08 3.53 5.08 5.79a10 10 0 0 1-.07 1zm6.55-1.6c0-1.42-.58-3.63-3.09-3.63-2.26 0-3.25 2.08-3.43 3.63zM1015.8 276.77a8.18 8.18 0 0 1-3.53.71c-3.71 0-6.12-2.51-6.12-6.27a6.24 6.24 0 0 1 6.6-6.52 7.57 7.57 0 0 1 3.1.63l-.51 1.73a5.1 5.1 0 0 0-2.59-.59c-2.82 0-4.34 2.09-4.34 4.65 0 2.84 1.83 4.6 4.26 4.6a6.39 6.39 0 0 0 2.75-.61zM1029.38 271c0 4.55-3.15 6.53-6.12 6.53-3.32 0-5.89-2.44-5.89-6.32 0-4.12 2.69-6.53 6.09-6.53s5.92 2.54 5.92 6.32zm-9.75.13c0 2.69 1.55 4.72 3.73 4.72s3.74-2 3.74-4.77c0-2.08-1-4.72-3.69-4.72s-3.78 2.41-3.78 4.75zM1032.2 268.27c0-1.27 0-2.31-.1-3.33h2l.1 2h.08a4.23 4.23 0 0 1 3.86-2.26 3.65 3.65 0 0 1 3.48 2.46 5.08 5.08 0 0 1 1.37-1.6 4.25 4.25 0 0 1 2.72-.86c1.62 0 4 1.07 4 5.33v7.24h-2.18v-7c0-2.36-.86-3.78-2.67-3.78a2.89 2.89 0 0 0-2.64 2 3.72 3.72 0 0 0-.17 1.12v7.59h-2.19v-7.36c0-2-.86-3.38-2.56-3.38a3.05 3.05 0 0 0-2.77 2.23 3 3 0 0 0-.18 1.09v7.42h-2.18zM1053.37 268.27c0-1.27 0-2.31-.1-3.33h2l.1 2h.07a4.24 4.24 0 0 1 3.86-2.26 3.63 3.63 0 0 1 3.48 2.46 5.21 5.21 0 0 1 1.37-1.6 4.25 4.25 0 0 1 2.72-.86c1.62 0 4 1.07 4 5.33v7.24h-2.19v-7c0-2.36-.86-3.78-2.66-3.78a2.89 2.89 0 0 0-2.64 2 3.7 3.7 0 0 0-.18 1.12v7.59h-2.18v-7.36c0-2-.87-3.38-2.57-3.38a3.06 3.06 0 0 0-2.77 2.23 3.23 3.23 0 0 0-.17 1.09v7.42h-2.19zM1075.79 271.49c0 3 2 4.27 4.21 4.27a8 8 0 0 0 3.41-.64l.38 1.6a9.89 9.89 0 0 1-4.09.76c-3.78 0-6-2.49-6-6.19s2.18-6.63 5.76-6.63c4 0 5.08 3.53 5.08 5.79a7.43 7.43 0 0 1-.08 1zm6.55-1.6c0-1.42-.58-3.63-3.1-3.63-2.26 0-3.25 2.08-3.42 3.63zM1087.27 268.27c0-1.27 0-2.31-.11-3.33h2l.13 2a4.51 4.51 0 0 1 4.06-2.31c1.71 0 4.35 1 4.35 5.23v7.34h-2.24v-7.09c0-2-.73-3.63-2.84-3.63a3.19 3.19 0 0 0-3 2.29 3.26 3.26 0 0 0-.15 1v7.39h-2.23zM1112 259.2v14.86c0 1.09 0 2.33.1 3.17h-2l-.11-2.13a4.54 4.54 0 0 1-4.19 2.41c-3 0-5.25-2.52-5.25-6.25 0-4.09 2.51-6.6 5.51-6.6a4.09 4.09 0 0 1 3.7 1.88h.06v-7.34zm-2.23 10.74a3.77 3.77 0 0 0-.11-.94 3.29 3.29 0 0 0-3.22-2.59c-2.31 0-3.68 2-3.68 4.75 0 2.49 1.22 4.55 3.63 4.55a3.35 3.35 0 0 0 3.27-2.67 3.74 3.74 0 0 0 .11-1zM1122.48 277.23l-.18-1.55h-.07a4.61 4.61 0 0 1-3.76 1.83 3.5 3.5 0 0 1-3.76-3.53c0-3 2.64-4.6 7.39-4.57v-.26a2.53 2.53 0 0 0-2.79-2.84 6.17 6.17 0 0 0-3.2.91l-.51-1.47a7.65 7.65 0 0 1 4-1.09c3.75 0 4.67 2.56 4.67 5v4.59a17.62 17.62 0 0 0 .2 3zm-.33-6.27c-2.44 0-5.2.38-5.2 2.76a2 2 0 0 0 2.1 2.14 3.05 3.05 0 0 0 3-2.06 2.22 2.22 0 0 0 .13-.71zM1130.5 261.41v3.53h3.2v1.7h-3.2v6.63c0 1.52.43 2.38 1.68 2.38a4.81 4.81 0 0 0 1.29-.15l.11 1.68a5.5 5.5 0 0 1-2 .3 3.1 3.1 0 0 1-2.41-.94 4.57 4.57 0 0 1-.86-3.2v-6.7h-1.91v-1.7h1.91V262zM1138.7 261.49a1.38 1.38 0 0 1-2.76 0 1.36 1.36 0 0 1 1.39-1.4 1.33 1.33 0 0 1 1.37 1.4zm-2.49 15.74v-12.29h2.24v12.29zM1153.28 271c0 4.55-3.15 6.53-6.12 6.53-3.33 0-5.89-2.44-5.89-6.32 0-4.12 2.69-6.53 6.09-6.53s5.92 2.54 5.92 6.32zm-9.75.13c0 2.69 1.55 4.72 3.73 4.72s3.73-2 3.73-4.77c0-2.08-1-4.72-3.68-4.72s-3.78 2.41-3.78 4.75zM1156.09 268.27c0-1.27 0-2.31-.1-3.33h2l.13 2h.05a4.51 4.51 0 0 1 4.06-2.31c1.7 0 4.34 1 4.34 5.23v7.34h-2.23v-7.09c0-2-.74-3.63-2.84-3.63a3.18 3.18 0 0 0-3 2.29 3.26 3.26 0 0 0-.15 1v7.39h-2.24zM912.09 323.88c0 5.89-3.58 9-8 9s-7.69-3.51-7.69-8.69c0-5.43 3.37-9 7.94-9s7.75 3.61 7.75 8.69zm-13.28.28c0 3.66 2 6.93 5.46 6.93s5.48-3.22 5.48-7.11c0-3.4-1.78-7-5.46-7s-5.48 3.42-5.48 7.18zM914.88 323.65c0-1.27 0-2.31-.1-3.32h2l.1 2h.08a4.23 4.23 0 0 1 3.86-2.26 3.64 3.64 0 0 1 3.48 2.46 5.08 5.08 0 0 1 1.37-1.6 4.2 4.2 0 0 1 2.72-.86c1.62 0 4 1.07 4 5.33v7.24h-2.18v-7c0-2.36-.86-3.78-2.67-3.78a2.89 2.89 0 0 0-2.64 2 3.7 3.7 0 0 0-.18 1.12v7.59h-2.18v-7.37c0-1.95-.86-3.37-2.56-3.37a3 3 0 0 0-2.77 2.23 3 3 0 0 0-.18 1.09v7.42h-2.18zM936.05 323.65c0-1.27 0-2.31-.1-3.32h2l.13 2h.05a4.51 4.51 0 0 1 4.06-2.31c1.7 0 4.34 1 4.34 5.23v7.34h-2.23v-7.09c0-2-.74-3.63-2.85-3.63a3.17 3.17 0 0 0-3 2.29 3.26 3.26 0 0 0-.15 1v7.39h-2.24zM952.63 316.87a1.32 1.32 0 0 1-1.42 1.38 1.33 1.33 0 0 1-1.35-1.38 1.36 1.36 0 0 1 1.4-1.39 1.32 1.32 0 0 1 1.37 1.39zm-2.49 15.75v-12.29h2.24v12.29zM961.26 324.92v1.65H955v-1.65zM973.09 332.16a8.3 8.3 0 0 1-3.53.71c-3.7 0-6.11-2.51-6.11-6.27a6.25 6.25 0 0 1 6.6-6.53 7.3 7.3 0 0 1 3.09.64l-.5 1.73a5.13 5.13 0 0 0-2.59-.59c-2.82 0-4.34 2.08-4.34 4.65 0 2.84 1.82 4.59 4.26 4.59a6.31 6.31 0 0 0 2.74-.61zM975.71 314.59h2.23v7.67a4.19 4.19 0 0 1 1.6-1.58 4.62 4.62 0 0 1 2.29-.63c1.65 0 4.29 1 4.29 5.25v7.32h-2.24v-7.06c0-2-.73-3.66-2.84-3.66a3.22 3.22 0 0 0-3 2.24 2.8 2.8 0 0 0-.15 1.06v7.42h-2.23zM996.6 332.62l-.17-1.55h-.08a4.61 4.61 0 0 1-3.76 1.83 3.51 3.51 0 0 1-3.76-3.53c0-3 2.64-4.6 7.39-4.57v-.26a2.53 2.53 0 0 0-2.79-2.84 6.11 6.11 0 0 0-3.2.91l-.51-1.47a7.65 7.65 0 0 1 4-1.09c3.76 0 4.67 2.56 4.67 5v4.59a17.62 17.62 0 0 0 .2 2.95zm-.33-6.27c-2.43-.06-5.2.38-5.2 2.76a2 2 0 0 0 2.11 2.14 3.06 3.06 0 0 0 3-2.06 2.52 2.52 0 0 0 .12-.71zM1002 323.65c0-1.27 0-2.31-.11-3.32h2l.13 2h.05a4.52 4.52 0 0 1 4.07-2.31c1.7 0 4.34 1 4.34 5.23v7.34h-2.24v-7.09c0-2-.73-3.63-2.84-3.63a3.18 3.18 0 0 0-3 2.29 3.26 3.26 0 0 0-.15 1v7.39H1002zM1016.13 323.65c0-1.27 0-2.31-.1-3.32h2l.12 2a4.52 4.52 0 0 1 4.07-2.31c1.7 0 4.34 1 4.34 5.23v7.34h-2.24v-7.09c0-2-.73-3.63-2.84-3.63a3.18 3.18 0 0 0-3 2.29 3.26 3.26 0 0 0-.15 1v7.39h-2.23zM1031.46 326.88a3.93 3.93 0 0 0 4.22 4.26 8 8 0 0 0 3.4-.63l.38 1.6a10.06 10.06 0 0 1-4.09.76c-3.78 0-6-2.49-6-6.19s2.18-6.63 5.76-6.63c4 0 5.08 3.53 5.08 5.79a7.57 7.57 0 0 1-.08 1zm6.55-1.6c0-1.42-.58-3.63-3.1-3.63-2.25 0-3.25 2.08-3.42 3.63zM1042.94 314.59h2.23v18h-2.23zM1054 330.33a5.84 5.84 0 0 0 2.94.89c1.63 0 2.39-.81 2.39-1.83s-.64-1.65-2.29-2.26c-2.21-.78-3.25-2-3.25-3.48 0-2 1.6-3.6 4.24-3.6a6.05 6.05 0 0 1 3 .76l-.55 1.63a4.78 4.78 0 0 0-2.52-.72c-1.32 0-2 .77-2 1.68s.73 1.47 2.33 2.08c2.13.81 3.23 1.88 3.23 3.71 0 2.16-1.68 3.68-4.6 3.68a7 7 0 0 1-3.45-.84zM1067.06 316.8v3.53h3.19V322h-3.19v6.63c0 1.52.43 2.38 1.67 2.38a4.84 4.84 0 0 0 1.3-.15l.1 1.68a5.67 5.67 0 0 1-2 .3 3.09 3.09 0 0 1-2.41-.94 4.52 4.52 0 0 1-.87-3.2V322H1063v-1.7h1.9v-2.95zM1072.77 324.16c0-1.45 0-2.69-.1-3.83h1.95l.08 2.41h.1a3.68 3.68 0 0 1 3.4-2.69 2.51 2.51 0 0 1 .64.07v2.11a3.49 3.49 0 0 0-.77-.07 3.13 3.13 0 0 0-3 2.87 6.33 6.33 0 0 0-.1 1v6.55h-2.21zM1087.75 332.62l-.18-1.55h-.08a4.57 4.57 0 0 1-3.75 1.83 3.51 3.51 0 0 1-3.76-3.53c0-3 2.64-4.6 7.39-4.57v-.26a2.54 2.54 0 0 0-2.8-2.84 6.13 6.13 0 0 0-3.2.91l-.5-1.47a7.58 7.58 0 0 1 4-1.09c3.76 0 4.68 2.56 4.68 5v4.59a17.62 17.62 0 0 0 .2 2.95zm-.33-6.27c-2.44-.06-5.21.38-5.21 2.76a2 2 0 0 0 2.11 2.14 3.06 3.06 0 0 0 3-2.06 2.22 2.22 0 0 0 .13-.71zM1095.77 316.8v3.53h3.2V322h-3.2v6.63c0 1.52.43 2.38 1.68 2.38a4.81 4.81 0 0 0 1.29-.15l.1 1.68a5.67 5.67 0 0 1-2 .3 3.09 3.09 0 0 1-2.41-.94 4.53 4.53 0 0 1-.86-3.2V322h-1.91v-1.7h1.91v-2.95zM1102.57 326.88a3.93 3.93 0 0 0 4.22 4.26 8 8 0 0 0 3.4-.63l.38 1.6a10.06 10.06 0 0 1-4.09.76c-3.78 0-6-2.49-6-6.19s2.18-6.63 5.76-6.63c4 0 5.08 3.53 5.08 5.79a10.18 10.18 0 0 1-.07 1zm6.55-1.6c0-1.42-.58-3.63-3.09-3.63-2.26 0-3.25 2.08-3.43 3.63zM1124.64 320.33c-.05.89-.1 1.88-.1 3.37v7.14c0 2.82-.56 4.54-1.76 5.61a6.49 6.49 0 0 1-4.47 1.47 7.91 7.91 0 0 1-4.08-1l.56-1.7a7 7 0 0 0 3.6 1c2.29 0 4-1.19 4-4.29v-1.37a4.39 4.39 0 0 1-3.91 2.06c-3.05 0-5.23-2.59-5.23-6 0-4.16 2.72-6.52 5.54-6.52a4.09 4.09 0 0 1 3.83 2.13l.1-1.85zm-2.31 4.85a3.28 3.28 0 0 0-.13-1 3.23 3.23 0 0 0-3.12-2.36c-2.14 0-3.66 1.8-3.66 4.65 0 2.41 1.22 4.42 3.63 4.42a3.27 3.27 0 0 0 3.1-2.29 3.78 3.78 0 0 0 .18-1.19zM1129.05 320.33l2.7 7.26c.27.81.58 1.78.78 2.51.23-.73.49-1.67.79-2.56l2.44-7.21h2.36l-3.35 8.76c-1.6 4.21-2.69 6.37-4.22 7.69a6 6 0 0 1-2.74 1.45l-.56-1.88a5.92 5.92 0 0 0 2-1.09 6.8 6.8 0 0 0 1.88-2.49 1.63 1.63 0 0 0 .17-.53 2 2 0 0 0-.15-.59l-4.54-11.32zM897.08 355.72a5.88 5.88 0 0 0 2.95.89c1.62 0 2.38-.81 2.38-1.83s-.63-1.65-2.28-2.26c-2.21-.79-3.25-2-3.25-3.48 0-2 1.6-3.6 4.24-3.6a6.11 6.11 0 0 1 3 .76l-.56 1.62a4.81 4.81 0 0 0-2.51-.71c-1.32 0-2.06.76-2.06 1.68s.74 1.47 2.34 2.08c2.13.81 3.22 1.88 3.22 3.71 0 2.16-1.67 3.68-4.59 3.68a7 7 0 0 1-3.46-.84zM908.68 352.27a3.93 3.93 0 0 0 4.22 4.26 8.17 8.17 0 0 0 3.4-.63l.38 1.6a10.06 10.06 0 0 1-4.09.76c-3.78 0-6-2.49-6-6.2s2.18-6.62 5.76-6.62c4 0 5.08 3.53 5.08 5.79a10.18 10.18 0 0 1-.07 1zm6.55-1.6c0-1.42-.58-3.63-3.09-3.63-2.26 0-3.25 2.08-3.43 3.63zM920.16 349.55c0-1.45 0-2.69-.1-3.83h2l.08 2.41h.1a3.68 3.68 0 0 1 3.4-2.69 2.51 2.51 0 0 1 .64.07v2.11a3.41 3.41 0 0 0-.76-.08 3.14 3.14 0 0 0-3 2.87 6.44 6.44 0 0 0-.1 1V358h-2.21zM930 345.72l2.41 6.9a30.36 30.36 0 0 1 1 3.15h.08c.28-1 .63-2 1-3.15l2.39-6.9h2.33L934.38 358h-2.14l-4.67-12.29zM943.8 342.26a1.39 1.39 0 0 1-2.77 0 1.36 1.36 0 0 1 1.39-1.39 1.33 1.33 0 0 1 1.38 1.39zM941.31 358v-12.28h2.23V358zM956 357.55a8.33 8.33 0 0 1-3.53.71c-3.71 0-6.12-2.51-6.12-6.27a6.24 6.24 0 0 1 6.6-6.53 7.39 7.39 0 0 1 3.1.64l-.51 1.72a5.23 5.23 0 0 0-2.59-.58c-2.82 0-4.34 2.08-4.34 4.65 0 2.84 1.83 4.59 4.26 4.59a6.39 6.39 0 0 0 2.75-.61zM959.71 352.27a3.93 3.93 0 0 0 4.22 4.26 8.17 8.17 0 0 0 3.4-.63l.38 1.6a10.06 10.06 0 0 1-4.09.76c-3.78 0-6-2.49-6-6.2s2.18-6.62 5.76-6.62c4 0 5.08 3.53 5.08 5.79a10.18 10.18 0 0 1-.07 1zm6.55-1.6c0-1.42-.58-3.63-3.09-3.63-2.26 0-3.25 2.08-3.43 3.63z"/>
  <circle class="cls-4" cx="872.42" cy="215" r="4.5"/>
  <circle class="cls-4" cx="872.42" cy="270.31" r="4.5"/>
  <circle class="cls-4" cx="872.42" cy="325.62" r="4.5"/>
  <path class="cls-5" d="M0 0v438.96h407.97V.1L0 0z"/>
  <path class="cls-6" d="M19.1 170.99l369.77-.06"/>
  <path class="cls-3" d="M183.67 100.64c-2.31-.61-4.57-1.3-6.55-2a3.18 3.18 0 0 0-1-.26c-4.06-.15-7.54-3.14-7.54-8.65s3.35-9 8-9 7.67 3.61 7.67 8.66c0 4.39-2 7.21-4.87 8.2v.1c1.7.43 3.55.84 5 1.09zm-1.82-11.15c0-3.43-1.78-7-5.41-7s-5.56 3.46-5.54 7.16 2 6.91 5.44 6.91 5.51-3.16 5.51-7.07zM197.33 94.77c0 1.27 0 2.39.1 3.35h-2l-.12-2h-.05a4.63 4.63 0 0 1-4.07 2.28c-1.93 0-4.24-1.06-4.24-5.38v-7.18h2.24v6.8c0 2.34.71 3.91 2.74 3.91a3.16 3.16 0 0 0 3.15-3.17v-7.54h2.23zM212.16 91.88c0 4.54-3.15 6.52-6.12 6.52-3.33 0-5.89-2.43-5.89-6.32 0-4.11 2.69-6.52 6.09-6.52s5.92 2.56 5.92 6.32zm-9.75.13c0 2.69 1.55 4.72 3.73 4.72s3.73-2 3.73-4.78c0-2.08-1-4.72-3.68-4.72s-3.78 2.44-3.78 4.77zM217.67 82.31v3.53h3.2v1.7h-3.2v6.62c0 1.53.43 2.39 1.67 2.39a5.29 5.29 0 0 0 1.3-.15l.1 1.67a5.41 5.41 0 0 1-2 .31 3.09 3.09 0 0 1-2.41-.94 4.52 4.52 0 0 1-.87-3.2v-6.7h-1.9v-1.7h1.9v-3zM224.47 92.39a3.93 3.93 0 0 0 4.22 4.26 8.17 8.17 0 0 0 3.4-.63l.38 1.6a10.06 10.06 0 0 1-4.09.76c-3.78 0-6-2.49-6-6.2s2.18-6.62 5.76-6.62c4 0 5.08 3.53 5.08 5.79a7.57 7.57 0 0 1-.08 1zm6.55-1.6c0-1.43-.58-3.63-3.1-3.63-2.26 0-3.25 2.08-3.42 3.63zM74.75 204.93a25.46 25.46 0 0 1 4.25-.33 7 7 0 0 1 4.8 1.42 4.6 4.6 0 0 1 1.5 3.58 5.06 5.06 0 0 1-1.3 3.66 7.11 7.11 0 0 1-5.23 1.88A7.45 7.45 0 0 1 77 215v6.86h-2.25zm2.25 8.25a7.29 7.29 0 0 0 1.83.18c2.67 0 4.29-1.3 4.29-3.66s-1.6-3.35-4-3.35a9.33 9.33 0 0 0-2.08.18zM87.78 213.38c0-1.44 0-2.69-.1-3.83h1.95l.08 2.41h.1a3.68 3.68 0 0 1 3.4-2.69 2.49 2.49 0 0 1 .64.08v2.11a2.94 2.94 0 0 0-.77-.08 3.13 3.13 0 0 0-3 2.87 6.33 6.33 0 0 0-.1 1v6.55h-2.2zM107 215.59c0 4.55-3.15 6.53-6.12 6.53-3.33 0-5.89-2.44-5.89-6.32 0-4.12 2.69-6.53 6.09-6.53s5.92 2.57 5.92 6.32zm-9.75.13c0 2.69 1.55 4.72 3.73 4.72s3.73-2 3.73-4.77c0-2.08-1-4.72-3.68-4.72s-3.83 2.43-3.83 4.77zM120.38 203.81v14.86c0 1.09 0 2.33.1 3.17h-2l-.1-2.13h-.05a4.54 4.54 0 0 1-4.19 2.41c-3 0-5.25-2.51-5.25-6.25 0-4.08 2.51-6.6 5.51-6.6a4.11 4.11 0 0 1 3.7 1.88v-7.34zm-2.24 10.74a3.76 3.76 0 0 0-.1-.94 3.29 3.29 0 0 0-3.22-2.59c-2.31 0-3.68 2-3.68 4.75 0 2.49 1.21 4.55 3.63 4.55a3.35 3.35 0 0 0 3.27-2.67 3.68 3.68 0 0 0 .1-1zM134.37 218.49c0 1.27 0 2.39.1 3.35h-2l-.13-2h-.05a4.62 4.62 0 0 1-4.06 2.29c-1.93 0-4.24-1.07-4.24-5.38v-7.19h2.23v6.81c0 2.33.71 3.91 2.74 3.91a3.25 3.25 0 0 0 3-2 3.17 3.17 0 0 0 .2-1.14v-7.54h2.24zM146.83 221.38a8.14 8.14 0 0 1-3.53.71c-3.7 0-6.12-2.51-6.12-6.27a6.24 6.24 0 0 1 6.61-6.52 7.52 7.52 0 0 1 3.09.63l-.5 1.73a5.16 5.16 0 0 0-2.59-.59c-2.82 0-4.35 2.09-4.35 4.65 0 2.84 1.83 4.6 4.27 4.6a6.31 6.31 0 0 0 2.74-.61zM152.47 206v3.53h3.2v1.7h-3.2v6.63c0 1.52.43 2.39 1.67 2.39a4.76 4.76 0 0 0 1.3-.16l.1 1.68a5.44 5.44 0 0 1-2 .3 3.09 3.09 0 0 1-2.41-.94 4.51 4.51 0 0 1-.86-3.19v-6.71h-1.91v-1.7h1.91v-2.94zM172.32 221.38a8.14 8.14 0 0 1-3.53.71c-3.7 0-6.12-2.51-6.12-6.27a6.24 6.24 0 0 1 6.61-6.52 7.52 7.52 0 0 1 3.09.63l-.5 1.73a5.16 5.16 0 0 0-2.59-.59c-2.82 0-4.35 2.09-4.35 4.65 0 2.84 1.83 4.6 4.27 4.6a6.31 6.31 0 0 0 2.74-.61zM185.91 215.59c0 4.55-3.15 6.53-6.12 6.53-3.33 0-5.89-2.44-5.89-6.32 0-4.12 2.69-6.53 6.09-6.53s5.92 2.57 5.92 6.32zm-9.75.13c0 2.69 1.54 4.72 3.73 4.72s3.73-2 3.73-4.77c0-2.08-1-4.72-3.68-4.72s-3.78 2.43-3.78 4.77zM188.72 212.88c0-1.27 0-2.31-.1-3.33h2l.13 2h.05a4.51 4.51 0 0 1 4.06-2.31c1.7 0 4.34 1 4.34 5.23v7.34H197v-7.08c0-2-.74-3.63-2.84-3.63a3.17 3.17 0 0 0-3 2.28 3.26 3.26 0 0 0-.15 1v7.39h-2.24zM203 221.84v-10.59h-1.72v-1.7H203v-.66c0-3.25 1.91-5.36 5.36-5.36a6.1 6.1 0 0 1 3.12.82l-.63 1.7a4.73 4.73 0 0 0-2.59-.71c-2.36 0-3.05 1.65-3.05 3.6v.61h7.14v12.29h-2.21v-10.59h-4.93v10.59zM226.68 209.55c-.05.89-.1 1.88-.1 3.38v7.13c0 2.82-.56 4.55-1.75 5.61a6.52 6.52 0 0 1-4.47 1.48 7.92 7.92 0 0 1-4.09-1l.56-1.7a6.89 6.89 0 0 0 3.6 1c2.29 0 4-1.19 4-4.29v-1.37a4.36 4.36 0 0 1-3.91 2.06c-3 0-5.23-2.59-5.23-6 0-4.17 2.72-6.53 5.54-6.53a4.09 4.09 0 0 1 3.83 2.13h.05l.1-1.85zm-2.31 4.85a3.28 3.28 0 0 0-.13-1 3.22 3.22 0 0 0-3.12-2.36c-2.13 0-3.66 1.81-3.66 4.65 0 2.41 1.22 4.42 3.63 4.42a3.27 3.27 0 0 0 3.1-2.29 3.78 3.78 0 0 0 .18-1.19zM240.57 218.49c0 1.27 0 2.39.1 3.35h-2l-.13-2h-.05a4.62 4.62 0 0 1-4.06 2.29c-1.93 0-4.24-1.07-4.24-5.38v-7.19h2.23v6.81c0 2.33.71 3.91 2.74 3.91a3.25 3.25 0 0 0 2.95-2 3.17 3.17 0 0 0 .2-1.14v-7.54h2.24zM244.27 213.38c0-1.44 0-2.69-.1-3.83h2l.07 2.41h.1a3.69 3.69 0 0 1 3.41-2.69 2.41 2.41 0 0 1 .63.08v2.11a2.91 2.91 0 0 0-.76-.08 3.14 3.14 0 0 0-3 2.87 6.33 6.33 0 0 0-.1 1v6.55h-2.21zM259.25 221.84l-.17-1.55H259a4.58 4.58 0 0 1-3.76 1.83 3.5 3.5 0 0 1-3.76-3.53c0-3 2.64-4.6 7.39-4.57v-.25a2.54 2.54 0 0 0-2.79-2.85 6.11 6.11 0 0 0-3.2.92l-.51-1.48a7.65 7.65 0 0 1 4-1.09c3.76 0 4.67 2.57 4.67 5v4.59a17.62 17.62 0 0 0 .2 3zm-.33-6.27c-2.43 0-5.2.38-5.2 2.77a2 2 0 0 0 2.11 2.13 3.07 3.07 0 0 0 3-2.06 2.52 2.52 0 0 0 .12-.71zM267.28 206v3.53h3.19v1.7h-3.19v6.63c0 1.52.43 2.39 1.67 2.39a4.76 4.76 0 0 0 1.3-.16l.1 1.68a5.44 5.44 0 0 1-2 .3 3.09 3.09 0 0 1-2.41-.94 4.51 4.51 0 0 1-.87-3.19v-6.71h-1.9v-1.7h1.9v-2.94zM275.48 206.1a1.39 1.39 0 0 1-2.77 0 1.36 1.36 0 0 1 1.39-1.4 1.33 1.33 0 0 1 1.38 1.4zM273 221.84v-12.29h2.23v12.29zM290.05 215.59c0 4.55-3.15 6.53-6.12 6.53-3.33 0-5.89-2.44-5.89-6.32 0-4.12 2.69-6.53 6.09-6.53s5.92 2.57 5.92 6.32zm-9.75.13c0 2.69 1.55 4.72 3.73 4.72s3.73-2 3.73-4.77c0-2.08-1-4.72-3.68-4.72s-3.78 2.43-3.78 4.77zM292.87 212.88c0-1.27 0-2.31-.11-3.33h2l.12 2h.05a4.52 4.52 0 0 1 4.07-2.31c1.7 0 4.34 1 4.34 5.23v7.34h-2.24v-7.08c0-2-.73-3.63-2.84-3.63a3.18 3.18 0 0 0-3 2.28 3.26 3.26 0 0 0-.15 1v7.39h-2.23zM319.14 221.84l-.17-1.55h-.08a4.58 4.58 0 0 1-3.76 1.83 3.5 3.5 0 0 1-3.76-3.53c0-3 2.64-4.6 7.39-4.57v-.25a2.54 2.54 0 0 0-2.79-2.85 6.11 6.11 0 0 0-3.2.92l-.51-1.48a7.65 7.65 0 0 1 4-1.09c3.76 0 4.67 2.57 4.67 5v4.59a17.62 17.62 0 0 0 .2 3zm-.33-6.27c-2.43 0-5.2.38-5.2 2.77a2 2 0 0 0 2.11 2.13 3.06 3.06 0 0 0 3-2.06 2.52 2.52 0 0 0 .12-.71zM324.58 212.88c0-1.27 0-2.31-.11-3.33h2l.12 2h.05a4.52 4.52 0 0 1 4.07-2.31c1.7 0 4.34 1 4.34 5.23v7.34h-2.25v-7.08c0-2-.73-3.63-2.84-3.63a3.18 3.18 0 0 0-3 2.28 3.26 3.26 0 0 0-.15 1v7.39h-2.23zM349.28 203.81v14.86c0 1.09 0 2.33.1 3.17h-2l-.11-2.13a4.54 4.54 0 0 1-4.19 2.41c-3 0-5.25-2.51-5.25-6.25 0-4.08 2.51-6.6 5.51-6.6a4.12 4.12 0 0 1 3.71 1.88h.05v-7.34zm-2.23 10.74a3.77 3.77 0 0 0-.11-.94 3.28 3.28 0 0 0-3.22-2.59c-2.31 0-3.68 2-3.68 4.75 0 2.49 1.22 4.55 3.63 4.55a3.35 3.35 0 0 0 3.27-2.67 3.67 3.67 0 0 0 .11-1zM74.58 247.23c0-.84.1-2.08.1-3.18V229.2h2.21v7.72a4.57 4.57 0 0 1 4.19-2.26c3 0 5.2 2.54 5.18 6.27 0 4.39-2.77 6.58-5.51 6.58a4.4 4.4 0 0 1-4.12-2.31h-.07l-.1 2zm2.31-4.93a4.38 4.38 0 0 0 .1.82 3.45 3.45 0 0 0 3.35 2.61c2.34 0 3.73-1.9 3.73-4.72 0-2.46-1.27-4.57-3.65-4.57a3.57 3.57 0 0 0-3.42 2.74 4.47 4.47 0 0 0-.12.91zM99.41 243.88c0 1.27 0 2.38.1 3.35h-2l-.13-2h-.05a4.62 4.62 0 0 1-4.06 2.29c-1.93 0-4.24-1.07-4.24-5.38v-7.19h2.23v6.8c0 2.34.71 3.91 2.74 3.91a3.24 3.24 0 0 0 3-2 3.17 3.17 0 0 0 .2-1.14v-7.54h2.24zM103.11 238.27c0-1.27 0-2.31-.1-3.33h2l.13 2a4.51 4.51 0 0 1 4.06-2.31c1.7 0 4.34 1 4.34 5.23v7.34h-2.23v-7.09c0-2-.74-3.63-2.84-3.63a3.17 3.17 0 0 0-3 2.29 3.26 3.26 0 0 0-.15 1v7.39h-2.24zM127.82 229.2v14.85c0 1.1 0 2.34.1 3.18h-2l-.1-2.13a4.55 4.55 0 0 1-4.19 2.41c-3 0-5.26-2.52-5.26-6.25 0-4.09 2.52-6.6 5.51-6.6a4.12 4.12 0 0 1 3.71 1.88v-7.34zm-2.24 10.74a3.76 3.76 0 0 0-.1-.94 3.29 3.29 0 0 0-3.22-2.59c-2.31 0-3.69 2-3.69 4.75 0 2.49 1.22 4.55 3.64 4.55a3.37 3.37 0 0 0 3.27-2.67 3.75 3.75 0 0 0 .1-1zM131.52 229.2h2.24v18h-2.24zM140 231.49a1.31 1.31 0 0 1-1.42 1.37 1.33 1.33 0 0 1-1.35-1.37 1.37 1.37 0 0 1 1.4-1.4 1.33 1.33 0 0 1 1.37 1.4zm-2.49 15.74v-12.29h2.24v12.29zM143.45 238.27c0-1.27 0-2.31-.1-3.33h2l.13 2a4.51 4.51 0 0 1 4.06-2.31c1.7 0 4.34 1 4.34 5.23v7.34h-2.23v-7.09c0-2-.74-3.63-2.84-3.63a3.17 3.17 0 0 0-3 2.29 3.26 3.26 0 0 0-.15 1v7.39h-2.24zM168.13 234.94c0 .89-.1 1.88-.1 3.38v7.13c0 2.82-.56 4.55-1.75 5.61a6.5 6.5 0 0 1-4.47 1.48 8 8 0 0 1-4.09-1l.56-1.7a6.9 6.9 0 0 0 3.61 1c2.28 0 4-1.19 4-4.29v-1.37a4.4 4.4 0 0 1-3.91 2.06c-3 0-5.23-2.59-5.23-6 0-4.17 2.71-6.53 5.53-6.53a4.12 4.12 0 0 1 3.84 2.13h.05l.1-1.85zm-2.31 4.85a3.29 3.29 0 0 0-.12-1 3.23 3.23 0 0 0-3.13-2.36c-2.13 0-3.65 1.8-3.65 4.65 0 2.41 1.21 4.42 3.63 4.42a3.26 3.26 0 0 0 3.09-2.29 3.78 3.78 0 0 0 .18-1.19zM86.71 302.06a11 11 0 0 1-4.52.81c-4.82 0-8.45-3.05-8.45-8.66 0-5.35 3.63-9 8.94-9a9.08 9.08 0 0 1 4.06.77l-.53 1.8a8 8 0 0 0-3.46-.71c-4 0-6.68 2.56-6.68 7.06 0 4.19 2.42 6.88 6.58 6.88a8.88 8.88 0 0 0 3.61-.71zM100.24 296.37c0 4.55-3.14 6.53-6.12 6.53-3.32 0-5.89-2.44-5.89-6.33 0-4.11 2.7-6.52 6.1-6.52s5.91 2.56 5.91 6.32zm-9.75.13c0 2.69 1.55 4.72 3.74 4.72s3.73-2 3.73-4.77c0-2.09-1-4.73-3.68-4.73s-3.79 2.44-3.79 4.78zM103.06 293.65c0-1.27 0-2.31-.1-3.32h2l.13 2h.05a4.51 4.51 0 0 1 4.06-2.31c1.7 0 4.34 1 4.34 5.23v7.34h-2.23v-7.09c0-2-.74-3.63-2.85-3.63a3.17 3.17 0 0 0-3 2.29 3.26 3.26 0 0 0-.15 1v7.39h-2.24zM119.74 286.8v3.53h3.2V292h-3.2v6.63c0 1.52.43 2.38 1.68 2.38a4.81 4.81 0 0 0 1.29-.15l.1 1.68a5.62 5.62 0 0 1-2 .3 3.1 3.1 0 0 1-2.41-.94 4.57 4.57 0 0 1-.86-3.2V292h-1.91v-1.7h1.91v-2.95zM125.45 294.16c0-1.45 0-2.69-.1-3.83h2l.07 2.41h.11a3.67 3.67 0 0 1 3.4-2.69 2.43 2.43 0 0 1 .63.07v2.11a3.39 3.39 0 0 0-.76-.07 3.14 3.14 0 0 0-3 2.87 6.33 6.33 0 0 0-.1 1v6.55h-2.21zM140.43 302.62l-.17-1.55h-.08a4.59 4.59 0 0 1-3.76 1.83 3.51 3.51 0 0 1-3.76-3.53c0-3 2.65-4.6 7.39-4.57v-.26a2.53 2.53 0 0 0-2.79-2.84 6.11 6.11 0 0 0-3.2.91l-.51-1.47a7.65 7.65 0 0 1 4-1.09c3.76 0 4.67 2.56 4.67 5v4.59a16.55 16.55 0 0 0 .21 2.95zm-.33-6.27c-2.43-.06-5.2.38-5.2 2.76a2 2 0 0 0 2.11 2.14 3.06 3.06 0 0 0 3-2.06 2.52 2.52 0 0 0 .12-.71zM154.63 302.16a8.33 8.33 0 0 1-3.53.71c-3.71 0-6.12-2.51-6.12-6.27a6.25 6.25 0 0 1 6.6-6.53 7.39 7.39 0 0 1 3.1.64l-.51 1.73a5.1 5.1 0 0 0-2.59-.59c-2.82 0-4.34 2.08-4.34 4.65 0 2.84 1.83 4.59 4.26 4.59a6.39 6.39 0 0 0 2.75-.61zM160.26 286.8v3.53h3.2V292h-3.2v6.63c0 1.52.43 2.38 1.68 2.38a4.81 4.81 0 0 0 1.29-.15l.1 1.68a5.62 5.62 0 0 1-2 .3 3.09 3.09 0 0 1-2.41-.94 4.57 4.57 0 0 1-.86-3.2V292h-1.91v-1.7h1.91v-2.95zM178.16 302.62l-.18-1.55h-.07a4.61 4.61 0 0 1-3.76 1.83 3.51 3.51 0 0 1-3.76-3.53c0-3 2.64-4.6 7.39-4.57v-.26a2.53 2.53 0 0 0-2.78-2.84 6.08 6.08 0 0 0-3.2.91l-.51-1.47a7.62 7.62 0 0 1 4-1.09c3.75 0 4.67 2.56 4.67 5v4.59a17.62 17.62 0 0 0 .2 2.95zm-.33-6.27c-2.44-.06-5.21.38-5.21 2.76a2 2 0 0 0 2.11 2.14 3.05 3.05 0 0 0 3-2.06 2.22 2.22 0 0 0 .13-.71zM183.59 293.65c0-1.27 0-2.31-.1-3.32h2l.13 2h.05a4.51 4.51 0 0 1 4.06-2.31c1.7 0 4.34 1 4.34 5.23v7.34h-2.23v-7.09c0-2-.74-3.63-2.84-3.63a3.17 3.17 0 0 0-3 2.29 3.26 3.26 0 0 0-.15 1v7.39h-2.24zM208.3 284.59v14.85c0 1.09 0 2.34.1 3.18h-2l-.1-2.14a4.54 4.54 0 0 1-4.19 2.42c-3 0-5.26-2.52-5.26-6.25 0-4.09 2.52-6.6 5.51-6.6a4.12 4.12 0 0 1 3.71 1.88h.05v-7.34zm-2.24 10.74a3.76 3.76 0 0 0-.1-.94 3.29 3.29 0 0 0-3.22-2.59c-2.31 0-3.69 2-3.69 4.75 0 2.49 1.22 4.54 3.64 4.54a3.36 3.36 0 0 0 3.27-2.66 3.75 3.75 0 0 0 .1-1zM225.76 300.71a4.37 4.37 0 0 1-4 2.19c-2.87 0-5.2-2.49-5.2-6.22 0-4.6 3-6.63 5.56-6.63a4 4 0 0 1 3.78 2.13l.08-1.85h2.1c0 1-.07 2.11-.07 3.37v13.94h-2.24zm0-5.41a3.66 3.66 0 0 0-.1-.94 3.26 3.26 0 0 0-3.2-2.53c-2.31 0-3.7 1.95-3.7 4.72 0 2.44 1.16 4.57 3.63 4.57a3.34 3.34 0 0 0 3.2-2.44 3.8 3.8 0 0 0 .17-1.07zM242 299.27c0 1.26 0 2.38.1 3.35h-2l-.12-2h-.06a4.61 4.61 0 0 1-4.06 2.29c-1.93 0-4.24-1.07-4.24-5.39v-7.18h2.24v6.8c0 2.34.71 3.91 2.74 3.91a3.21 3.21 0 0 0 2.94-2 3.17 3.17 0 0 0 .21-1.14v-7.54H242zM256.79 296.37c0 4.55-3.15 6.53-6.12 6.53-3.33 0-5.89-2.44-5.89-6.33 0-4.11 2.69-6.52 6.09-6.52s5.92 2.56 5.92 6.32zm-9.75.13c0 2.69 1.55 4.72 3.73 4.72s3.73-2 3.73-4.77c0-2.09-1-4.73-3.68-4.73s-3.82 2.44-3.82 4.78zM262.3 286.8v3.53h3.2V292h-3.2v6.63c0 1.52.43 2.38 1.67 2.38a4.84 4.84 0 0 0 1.3-.15l.1 1.68a5.67 5.67 0 0 1-2 .3 3.09 3.09 0 0 1-2.41-.94 4.52 4.52 0 0 1-.87-3.2V292h-1.9v-1.7h1.9v-2.95zM269.1 296.88a3.93 3.93 0 0 0 4.22 4.26 8.21 8.21 0 0 0 3.4-.63l.38 1.6a10.06 10.06 0 0 1-4.09.76c-3.78 0-6-2.49-6-6.19s2.18-6.63 5.76-6.63c4 0 5.08 3.53 5.08 5.79a7.57 7.57 0 0 1-.08 1zm6.55-1.6c0-1.42-.58-3.63-3.1-3.63-2.26 0-3.25 2.08-3.42 3.63zM85.27 315.72c-.06.89-.11 1.88-.11 3.37v7.14c0 2.82-.55 4.54-1.75 5.61a6.49 6.49 0 0 1-4.47 1.47 7.91 7.91 0 0 1-4.08-1l.55-1.7a7.06 7.06 0 0 0 3.61 1c2.28 0 4-1.19 4-4.29v-1.42A4.4 4.4 0 0 1 79 328c-3 0-5.23-2.59-5.23-6 0-4.16 2.72-6.52 5.53-6.52a4.09 4.09 0 0 1 3.84 2.13l.1-1.85zM83 320.57a3.28 3.28 0 0 0-.13-1 3.23 3.23 0 0 0-3.12-2.36c-2.14 0-3.66 1.8-3.66 4.65 0 2.41 1.22 4.41 3.63 4.41a3.27 3.27 0 0 0 3.1-2.28 4.09 4.09 0 0 0 .18-1.19zM90.11 322.27a3.93 3.93 0 0 0 4.22 4.26 8.17 8.17 0 0 0 3.4-.63l.38 1.6a10 10 0 0 1-4.09.76c-3.78 0-6-2.49-6-6.2s2.18-6.62 5.77-6.62c4 0 5.07 3.53 5.07 5.79a10.18 10.18 0 0 1-.07 1zm6.55-1.6c0-1.42-.58-3.63-3.09-3.63-2.26 0-3.25 2.08-3.43 3.63zM101.59 319c0-1.27 0-2.31-.1-3.32h2l.13 2h.05a4.51 4.51 0 0 1 4.06-2.31c1.7 0 4.34 1 4.34 5.23v7.4h-2.23v-7.09c0-2-.74-3.63-2.85-3.63a3.17 3.17 0 0 0-3 2.29 3 3 0 0 0-.16 1V328h-2.23zM116.92 322.27c.06 3 2 4.26 4.22 4.26a8.17 8.17 0 0 0 3.4-.63l.38 1.6a10 10 0 0 1-4.09.76c-3.78 0-6-2.49-6-6.2s2.19-6.62 5.77-6.62c4 0 5.07 3.53 5.07 5.79a10.18 10.18 0 0 1-.07 1zm6.56-1.6c0-1.42-.59-3.63-3.1-3.63-2.26 0-3.25 2.08-3.43 3.63zM128.4 319.55c0-1.45 0-2.69-.1-3.83h1.95l.08 2.41h.1a3.69 3.69 0 0 1 3.4-2.69 2.46 2.46 0 0 1 .64.07v2.11a3.41 3.41 0 0 0-.76-.08 3.14 3.14 0 0 0-3 2.87 6.44 6.44 0 0 0-.1 1V328h-2.21zM143.38 328l-.18-1.55h-.07a4.6 4.6 0 0 1-3.76 1.82 3.5 3.5 0 0 1-3.76-3.52c0-3 2.64-4.6 7.39-4.57v-.26a2.53 2.53 0 0 0-2.79-2.84 6.08 6.08 0 0 0-3.2.91l-.51-1.47a7.62 7.62 0 0 1 4-1.09c3.75 0 4.67 2.56 4.67 5v4.6a17.62 17.62 0 0 0 .2 2.95zm-.33-6.28c-2.44-.05-5.21.38-5.21 2.77a2 2 0 0 0 2.11 2.13 3 3 0 0 0 3-2.05 2.22 2.22 0 0 0 .13-.71zM151.4 312.19v3.53h3.2v1.7h-3.2V324c0 1.53.43 2.39 1.68 2.39a4.81 4.81 0 0 0 1.29-.15l.1 1.67a5.37 5.37 0 0 1-2 .31 3.1 3.1 0 0 1-2.41-.94 4.57 4.57 0 0 1-.86-3.2v-6.7h-1.91v-1.7h1.91v-3zM159.6 312.26a1.31 1.31 0 0 1-1.42 1.37 1.32 1.32 0 0 1-1.35-1.37 1.36 1.36 0 0 1 1.4-1.39 1.32 1.32 0 0 1 1.37 1.39zM157.11 328v-12.28h2.24V328zM174.18 321.76c0 4.54-3.15 6.52-6.12 6.52-3.33 0-5.89-2.43-5.89-6.32 0-4.11 2.69-6.52 6.09-6.52s5.92 2.56 5.92 6.32zm-9.75.13c0 2.69 1.54 4.72 3.73 4.72s3.73-2 3.73-4.77c0-2.09-1-4.73-3.68-4.73s-3.78 2.44-3.78 4.78zM177 319c0-1.27 0-2.31-.1-3.32h2l.13 2h.05a4.51 4.51 0 0 1 4.06-2.31c1.7 0 4.34 1 4.34 5.23v7.4h-2.23v-7.09c0-2-.74-3.63-2.84-3.63a3.17 3.17 0 0 0-3 2.29 3.26 3.26 0 0 0-.15 1V328H177zM74.75 366.51a22.9 22.9 0 0 1 4.24-.36c2.37 0 3.89.44 5 1.4a4.27 4.27 0 0 1 1.34 3.25 4.5 4.5 0 0 1-3.22 4.37v.07c1.32.46 2.1 1.68 2.51 3.46a27 27 0 0 0 1.32 4.69h-2.32a22.38 22.38 0 0 1-1.15-4.08c-.47-2.37-1.42-3.25-3.47-3.31h-2v7.41h-2.25zM77 374.3h2.26c2.36 0 3.86-1.29 3.86-3.25 0-2.21-1.6-3.17-3.93-3.2a9.13 9.13 0 0 0-2.19.21zM89.68 377.66a3.93 3.93 0 0 0 4.22 4.26 8.17 8.17 0 0 0 3.4-.63l.38 1.6a10.06 10.06 0 0 1-4.09.76c-3.78 0-6-2.49-6-6.2s2.18-6.62 5.76-6.62c4 0 5.08 3.52 5.08 5.78a10.2 10.2 0 0 1-.07 1.05zm6.55-1.6c0-1.43-.58-3.64-3.09-3.64-2.26 0-3.25 2.09-3.43 3.64zM102 371.1l2.41 6.91a29.62 29.62 0 0 1 1 3.15h.08c.28-1 .63-2 1-3.15l2.39-6.91h2.33l-4.82 12.29h-2.13l-4.63-12.29zM115.86 367.65a1.39 1.39 0 0 1-2.77 0 1.35 1.35 0 0 1 1.4-1.39 1.32 1.32 0 0 1 1.37 1.39zm-2.49 15.74V371.1h2.23v12.29zM120.55 377.66c.06 3 2 4.26 4.22 4.26a8.17 8.17 0 0 0 3.4-.63l.38 1.6a10 10 0 0 1-4.09.76c-3.78 0-6-2.49-6-6.2s2.19-6.62 5.77-6.62c4 0 5.07 3.52 5.07 5.78a10.2 10.2 0 0 1-.07 1.05zm6.56-1.6c0-1.43-.59-3.64-3.1-3.64-2.26 0-3.25 2.09-3.43 3.64zM132.92 371.1l1.62 6.25c.36 1.37.69 2.64.92 3.91h.07c.28-1.24.69-2.56 1.1-3.88l2-6.28h1.88l1.9 6.15c.46 1.47.82 2.77 1.1 4h.07a40.89 40.89 0 0 1 .94-4l1.75-6.17h2.21l-4 12.29h-2l-1.88-5.86c-.43-1.37-.78-2.59-1.09-4h-.05a38 38 0 0 1-1.12 4.06l-2 5.84h-2l-3.71-12.29zM162.9 383.39l-.18-1.55h-.07a4.58 4.58 0 0 1-3.76 1.83 3.5 3.5 0 0 1-3.76-3.53c0-3 2.64-4.59 7.39-4.57v-.25a2.53 2.53 0 0 0-2.79-2.84 6.11 6.11 0 0 0-3.2.91l-.51-1.47a7.65 7.65 0 0 1 4-1.09c3.76 0 4.67 2.56 4.67 5v4.6a17.49 17.49 0 0 0 .2 2.94zm-.33-6.27c-2.44-.05-5.2.38-5.2 2.77a2 2 0 0 0 2.1 2.13 3.07 3.07 0 0 0 3-2 2.58 2.58 0 0 0 .12-.71zM168.33 374.43c0-1.27 0-2.31-.1-3.33h2l.13 2a4.51 4.51 0 0 1 4.06-2.31c1.71 0 4.35 1 4.35 5.23v7.33h-2.24v-7.08c0-2-.73-3.63-2.84-3.63a3.18 3.18 0 0 0-3 2.28 3.28 3.28 0 0 0-.15 1.05v7.38h-2.24zM193 365.37v14.85c0 1.09 0 2.34.1 3.17h-2l-.1-2.13a4.54 4.54 0 0 1-4.19 2.41c-3 0-5.25-2.51-5.25-6.24 0-4.09 2.51-6.6 5.51-6.6a4.08 4.08 0 0 1 3.7 1.87h.05v-7.33zm-2.24 10.74a3.76 3.76 0 0 0-.1-.94 3.29 3.29 0 0 0-3.22-2.59c-2.31 0-3.68 2-3.68 4.75 0 2.48 1.22 4.54 3.63 4.54a3.35 3.35 0 0 0 3.27-2.67 3.68 3.68 0 0 0 .1-1zM208.93 383.39l-.18-1.55h-.07a4.58 4.58 0 0 1-3.76 1.83 3.5 3.5 0 0 1-3.76-3.53c0-3 2.64-4.59 7.39-4.57v-.25a2.53 2.53 0 0 0-2.79-2.84 6.11 6.11 0 0 0-3.2.91l-.51-1.47a7.65 7.65 0 0 1 4-1.09c3.76 0 4.67 2.56 4.67 5v4.6a17.49 17.49 0 0 0 .2 2.94zm-.33-6.27c-2.44-.05-5.2.38-5.2 2.77a2 2 0 0 0 2.1 2.13 3 3 0 0 0 3-2 2.27 2.27 0 0 0 .13-.71zM214.36 375.12c0-1.58-.05-2.85-.1-4h2l.1 2.11a4.82 4.82 0 0 1 4.37-2.38c3 0 5.2 2.51 5.2 6.24 0 4.42-2.69 6.6-5.58 6.6a4.32 4.32 0 0 1-3.79-1.93h-.05v6.68h-2.21zm2.21 3.27a5.18 5.18 0 0 0 .1.92 3.47 3.47 0 0 0 3.36 2.61c2.36 0 3.73-1.93 3.73-4.75 0-2.46-1.3-4.57-3.66-4.57a3.56 3.56 0 0 0-3.37 2.77 3.47 3.47 0 0 0-.16.91zM228.81 375.12c0-1.58-.05-2.85-.1-4h2l.11 2.11h.05a4.81 4.81 0 0 1 4.36-2.38c3 0 5.21 2.51 5.21 6.24 0 4.42-2.69 6.6-5.59 6.6a4.31 4.31 0 0 1-3.78-1.93v6.68h-2.21zm2.21 3.27a5.18 5.18 0 0 0 .1.92 3.45 3.45 0 0 0 3.35 2.61c2.36 0 3.73-1.93 3.73-4.75 0-2.46-1.29-4.57-3.65-4.57a3.56 3.56 0 0 0-3.38 2.77 3.47 3.47 0 0 0-.15.91zM243.25 374.94c0-1.45 0-2.69-.1-3.84h2l.07 2.42h.11a3.67 3.67 0 0 1 3.4-2.69 2.43 2.43 0 0 1 .63.07v2.1a3.34 3.34 0 0 0-.76-.08 3.13 3.13 0 0 0-3 2.87 5.44 5.44 0 0 0-.11 1v6.55h-2.21zM262.42 377.15c0 4.54-3.14 6.52-6.12 6.52-3.32 0-5.89-2.43-5.89-6.32 0-4.11 2.7-6.52 6.1-6.52s5.91 2.56 5.91 6.32zm-9.75.12c0 2.7 1.55 4.73 3.74 4.73s3.73-2 3.73-4.78c0-2.08-1-4.72-3.68-4.72s-3.79 2.44-3.79 4.77zM265.93 371.1l2.41 6.91a29.62 29.62 0 0 1 1 3.15h.08c.27-1 .63-2 1-3.15l2.38-6.91h2.34l-4.83 12.29h-2.13l-4.67-12.29zM284 383.39l-.18-1.55h-.07a4.58 4.58 0 0 1-3.76 1.83 3.5 3.5 0 0 1-3.76-3.53c0-3 2.64-4.59 7.39-4.57v-.25a2.53 2.53 0 0 0-2.79-2.84 6.08 6.08 0 0 0-3.2.91l-.51-1.47a7.62 7.62 0 0 1 4-1.09c3.75 0 4.67 2.56 4.67 5v4.6a17.49 17.49 0 0 0 .2 2.94zm-.33-6.27c-2.44-.05-5.21.38-5.21 2.77a2 2 0 0 0 2.11 2.13 3 3 0 0 0 3-2 2.27 2.27 0 0 0 .13-.71zM289.41 365.37h2.24v18h-2.24zM81.48 408.78l-.18-1.55h-.07a4.58 4.58 0 0 1-3.76 1.83 3.5 3.5 0 0 1-3.76-3.53c0-3 2.64-4.59 7.39-4.57v-.25a2.54 2.54 0 0 0-2.79-2.85 6.11 6.11 0 0 0-3.2.92l-.51-1.47a7.65 7.65 0 0 1 4-1.1c3.76 0 4.67 2.57 4.67 5v4.6a17.57 17.57 0 0 0 .2 2.94zm-.33-6.27c-2.44-.05-5.2.38-5.2 2.77a2 2 0 0 0 2.1 2.13 3.07 3.07 0 0 0 3-2.06 2.46 2.46 0 0 0 .12-.71zM97.2 405.43c0 1.27 0 2.39.1 3.35h-2l-.13-2a4.62 4.62 0 0 1-4.06 2.28c-1.93 0-4.24-1.06-4.24-5.38v-7.19h2.23v6.81c0 2.33.71 3.91 2.75 3.91A3.13 3.13 0 0 0 95 404v-7.54h2.2zM103.6 393v3.53h3.19v1.7h-3.19v6.63c0 1.52.43 2.39 1.67 2.39a5.29 5.29 0 0 0 1.3-.15l.1 1.67a5.41 5.41 0 0 1-2 .31 3.09 3.09 0 0 1-2.41-.94 4.54 4.54 0 0 1-.87-3.2v-6.71h-1.9v-1.7h1.9v-2.94zM120.28 402.54c0 4.54-3.15 6.52-6.12 6.52-3.33 0-5.89-2.44-5.89-6.32 0-4.11 2.69-6.53 6.09-6.53s5.92 2.57 5.92 6.33zm-9.75.12c0 2.69 1.55 4.73 3.73 4.73s3.73-2 3.73-4.78c0-2.08-1-4.72-3.68-4.72s-3.78 2.44-3.78 4.77zM123.09 399.82c0-1.27 0-2.31-.1-3.33h2l.1 2h.07a4.26 4.26 0 0 1 3.86-2.26 3.63 3.63 0 0 1 3.48 2.47 5.09 5.09 0 0 1 1.37-1.6 4.2 4.2 0 0 1 2.72-.87c1.63 0 4 1.07 4 5.34v7.23h-2.18v-6.95c0-2.37-.87-3.79-2.67-3.79a2.89 2.89 0 0 0-2.64 2 3.75 3.75 0 0 0-.18 1.12v7.59h-2.18v-7.36c0-2-.87-3.38-2.57-3.38a3 3 0 0 0-2.76 2.24 3 3 0 0 0-.18 1.09v7.41h-2.19zM151.07 408.78l-.18-1.55h-.07a4.58 4.58 0 0 1-3.76 1.83 3.5 3.5 0 0 1-3.76-3.53c0-3 2.64-4.59 7.39-4.57v-.25a2.54 2.54 0 0 0-2.79-2.85 6.11 6.11 0 0 0-3.2.92l-.51-1.47a7.65 7.65 0 0 1 4-1.1c3.76 0 4.67 2.57 4.67 5v4.6a17.57 17.57 0 0 0 .2 2.94zm-.33-6.27c-2.44-.05-5.2.38-5.2 2.77a2 2 0 0 0 2.1 2.13 3.07 3.07 0 0 0 3-2.06 2.46 2.46 0 0 0 .12-.71zM159.09 393v3.53h3.2v1.7h-3.2v6.63c0 1.52.44 2.39 1.68 2.39a5.36 5.36 0 0 0 1.3-.15l.1 1.67a5.41 5.41 0 0 1-2 .31 3.12 3.12 0 0 1-2.42-.94 4.59 4.59 0 0 1-.86-3.2v-6.71H155v-1.7h1.9v-2.94zM167.29 393a1.31 1.31 0 0 1-1.42 1.37 1.33 1.33 0 0 1-1.34-1.37 1.36 1.36 0 0 1 1.39-1.4 1.33 1.33 0 0 1 1.37 1.4zm-2.48 15.74v-12.25H167v12.29zM181.87 402.54c0 4.54-3.15 6.52-6.12 6.52-3.33 0-5.89-2.44-5.89-6.32 0-4.11 2.69-6.53 6.09-6.53s5.92 2.57 5.92 6.33zm-9.75.12c0 2.69 1.55 4.73 3.73 4.73s3.73-2 3.73-4.78c0-2.08-1-4.72-3.68-4.72s-3.78 2.44-3.78 4.77zM184.69 399.82c0-1.27 0-2.31-.11-3.33h2l.13 2h.05a4.53 4.53 0 0 1 4.06-2.31c1.71 0 4.35 1 4.35 5.23v7.34h-2.24v-7.05c0-2-.73-3.63-2.84-3.63a3.18 3.18 0 0 0-3 2.28 3.26 3.26 0 0 0-.15 1v7.39h-2.23z"/>
  <circle class="cls-4" cx="51.4" cy="215" r="4.5"/>
  <circle class="cls-4" cx="51.4" cy="294.62" r="4.5"/>
  <circle class="cls-4" cx="51.4" cy="380.93" r="4.5"/>
  <path class="cls-3" d="M61.31 50h17.18v-5.16h9c.74-3.16 2.59-5.11 5.87-5.12s5.15 1.93 5.91 5.08h8.87v5.14h17.16V75h5.31l-6.69 11.39L117.23 75h5.18V52.88c-.34 0-.64-.08-1-.08h-12.2c-.87 0-1.16.25-1.12 1.12.06 1.34 0 2.69 0 4.07H78.54v-5.11H64.26v52c5.88-1.37 11.24-.45 15.78 3.59s6.12 9.15 5.2 15.16h20.67v-16.41h22.48a5.83 5.83 0 0 1-.57.68q-9.61 9-19.28 18a2.61 2.61 0 0 1-1.66.55q-10.69.06-21.39 0a1.56 1.56 0 0 0-1.66 1 16.55 16.55 0 0 1-17.93 8.88A16.17 16.17 0 0 1 52.56 122c-.61-6.66 2.17-11.82 7.8-15.39a1.76 1.76 0 0 0 1-1.73V51.52zM69 133.88a13.44 13.44 0 1 0-13.69-13.47A13.57 13.57 0 0 0 69 133.88zm12.4-78.69h23.86v-7.61h-6a1.27 1.27 0 0 0-.85.59 5.82 5.82 0 0 1-10 0c-.16-.24-.39-.6-.6-.61h-6.37zm27.47 66.6c4.27-4 8.33-7.81 12.54-11.74h-12.59zM93.3 48.31a3 3 0 0 0 3.07-2.93 3 3 0 0 0-3-2.92 2.91 2.91 0 0 0-3 3 2.86 2.86 0 0 0 2.93 2.85z"/>
  <path class="cls-3" d="M77.84 94.94v-2.65h30.74v2.65zM77.85 70v-2.61h30.73V70zM108.57 79.82v2.67H77.89v-2.67zM63.91 118.64l2.81 4 10.47-7.29 1.61 2.18c-4.27 3-8.49 5.92-12.78 8.92-1.45-2.08-2.86-4.11-4.36-6.25zM525.32 125.31v-6.43c0-.23-.47-.53-.78-.66a5.68 5.68 0 0 1-3.48-5.39 5.62 5.62 0 0 1 3.93-5 5.72 5.72 0 0 1 7.1 3.41 5.53 5.53 0 0 1-3.33 7.08l-.62.26v9.55h-54.81v-1.43-66.18a1.47 1.47 0 0 0-1-1.66 5.38 5.38 0 0 1-3.22-5.68 5.63 5.63 0 0 1 4.62-4.78 5.72 5.72 0 0 1 6 2.75c.19.34.35.7.55 1.1h31.39a2.12 2.12 0 0 1 1.64.67c3.34 3.31 6.71 6.6 10.07 9.89.23.23.47.45.73.69l4.16-3.29 2.08 12.56-12.16-4.52 3.78-3c-.49-.43-.92-.78-1.31-1.16-2.88-2.81-5.73-5.63-8.63-8.42a2.15 2.15 0 0 0-1.34-.58h-29.53a.93.93 0 0 0-1 .74 5.57 5.57 0 0 1-3.87 3.53v66zm-53.56-71.43a2.93 2.93 0 0 0 3 2.92 3 3 0 0 0 3-2.93 3 3 0 0 0-5.93 0zm55 62.05a2.84 2.84 0 0 0 2.92-2.91 3 3 0 0 0-3-2.87 2.89 2.89 0 0 0-2.89 3 2.79 2.79 0 0 0 2.98 2.78z"/>
  <path class="cls-3" d="M512.12 97.43l25.47-25c2.46 2.61 4.86 5.17 7.3 7.75l-12.38 12.18c-4.82 4.73-9.67 9.42-14.43 14.19a9.29 9.29 0 0 1-2.78 1.9c-3.87 1.8-7.76 3.57-11.59 5.46a6.66 6.66 0 0 1-3.08.66h-18.42v-2.68h20.49l.17 1.45 6.63-13.64h-27.29V97h28.57a4.84 4.84 0 0 1 1.34.43zm25.37-21c-8.6 8.43-17.17 16.84-25.6 25.09l3.45 3.73L541 80.17zm-24.9 30.18l-2.22-2.32-2.11 4.35zM511.68 67.16v2.62h-29.49v-2.62zM511.68 74.64v2.61h-29.45v-2.61z"/>
  <path class="cls-3" d="M482.18 92.13v-2.59h29.46v2.59zM482.18 84.69V82.1h29.46v2.59zM482.21 104.42h20.49v2.63h-20.49zM955.24 121.32l-9.68 5.59v-4.29h-57.47V56.45h-4.45l5.62-9.76 5.61 9.72h-4.34v51.51c4.2-5.43 8.27-10.7 12.38-16l7.09 5.17 15.1-19 8.43 5.13c2.14-2.66 4.25-5.27 6.35-7.89 1.17-1.45 2.31-2.92 3.5-4.34a1.17 1.17 0 0 0 .19-1.57 4.85 4.85 0 0 1 2.45-6.73 4.91 4.91 0 0 1 6.5 2.92 4.83 4.83 0 0 1-3.42 6.29 5.73 5.73 0 0 1-2.37 0 1.15 1.15 0 0 0-1.36.48c-3.49 4.38-7 8.75-10.52 13.12l-.76.92-8.41-5.13-15.23 19.16-7.08-5.18-3.67 4.73c-2.91 3.78-5.83 7.55-8.72 11.35a2.55 2.55 0 0 0-.48 1.38v7.26h55v-4.34zm-7.3-56.57a2.46 2.46 0 1 0 0 4.91 2.46 2.46 0 0 0 0-4.91z"/>
  <path class="cls-3" d="M923.35 93.49c-.22-.66.13-1.1.82-1.37.51-.2 1-.47 1.49-.67 1.55-.59 1.56-.58 2.7.63.53.56 2.61.52 3-.16a1.53 1.53 0 0 1 2.25-.61c.44.2.88.37 1.33.55 1 .38 1.57.9 1.31 2.13-.19.93 1.39 2.34 2.34 2.15a1.3 1.3 0 0 1 1.74 1c.19.55.46 1.06.68 1.59.38.94.51 1.76-.6 2.41-.69.4-.54 2.49.19 3a1.27 1.27 0 0 1 .53 1.83c-.22.5-.36 1-.58 1.53-.62 1.44-.63 1.43-2.22 1.36-.74 0-2.24 1.43-2.08 2.18.26 1.24-.32 1.82-1.37 2.19-.42.14-.83.32-1.24.5a1.54 1.54 0 0 1-2.26-.56c-.52-.81-2.67-.79-3.18 0a1.46 1.46 0 0 1-2.09.6c-.38-.17-.77-.32-1.16-.46-1.14-.41-1.94-1-1.6-2.43.18-.77-1.5-2.19-2.32-2a1.3 1.3 0 0 1-1.75-.94c-.18-.51-.42-1-.64-1.5-.43-1-.61-1.82.55-2.5.63-.38.52-2.51-.13-2.92a1.39 1.39 0 0 1-.55-2c.21-.47.35-1 .56-1.43.64-1.43.65-1.42 2.22-1.33.9 0 2.13-1.57 2.06-2.77zm-1.26 12.94l.23-.37a9.81 9.81 0 0 1 1.16.84 14.11 14.11 0 0 0 1.23 1.32c.84.61 1.6 1.16 1.18 2.38 0 .12.14.41.29.48a.63.63 0 0 0 .55-.07c.56-1.23 1.57-1 2.59-.89a3.49 3.49 0 0 0 1.33 0 1.67 1.67 0 0 1 2.16.82.69.69 0 0 0 .62.17.57.57 0 0 0 .29-.48c-.36-1.2.36-1.79 1.2-2.39A4.3 4.3 0 0 0 936 107a1.36 1.36 0 0 1 1.57-.76c.28 0 .61-.16.91-.24-.16-.31-.26-.71-.51-.89a1.32 1.32 0 0 1-.55-1.48 7.26 7.26 0 0 0 0-2.28 1.35 1.35 0 0 1 .6-1.54c.23-.17.32-.54.48-.82-.3-.1-.61-.31-.89-.27A1.48 1.48 0 0 1 936 98a7.44 7.44 0 0 0-1.68-1.68 1.31 1.31 0 0 1-.68-1.42 2.94 2.94 0 0 0-.28-1.06 3.25 3.25 0 0 0-.86.55 1.24 1.24 0 0 1-1.45.55 5.44 5.44 0 0 0-2.09 0c-.93.16-1.66.11-2.17-.8a.66.66 0 0 0-.61-.23c-.16.06-.37.41-.32.55.38 1.12-.25 1.68-1.07 2.23a3.71 3.71 0 0 0-1.06 1.1 1.66 1.66 0 0 1-2 .94.67.67 0 0 0-.6.27.68.68 0 0 0 .17.63c1 .53 1 1.34.82 2.28a7.21 7.21 0 0 0 .07 1.91 1.19 1.19 0 0 1-.52 1.3 3 3 0 0 0-.59.87zM915.83 59.38a1.3 1.3 0 0 1 0 .4c-.56 1.41.38 2.21 1.29 2.94a1.85 1.85 0 0 0 1.33.14.94.94 0 0 1 1.2.62c.26.62.54 1.23.82 1.84.48 1 .57 1.88-.59 2.58-.65.4-.56 2.38.11 2.81a1.5 1.5 0 0 1 .6 2.18c-.2.44-.34.9-.54 1.34-.65 1.42-.66 1.41-2.24 1.33-.18 0-.46 0-.54.07-.64.85-2 1.31-1.46 2.79a.77.77 0 0 1-.54 1c-.65.27-1.29.57-1.92.87-1 .48-1.87.57-2.57-.6-.4-.68-2.55-.63-3 .06-.65 1.07-1.45 1-2.41.59-.38-.17-.78-.3-1.15-.47-1.4-.66-1.4-.66-1.32-2.25 0-.71-1.51-2.26-2.19-2.07-1.15.31-1.72-.21-2.08-1.19a12.86 12.86 0 0 0-.53-1.34 1.62 1.62 0 0 1 .59-2.42 2.19 2.19 0 0 0 0-2.8 1.57 1.57 0 0 1-.59-2.34c.19-.4.33-.83.48-1.25.37-1 .87-1.68 2.17-1.33.81.22 2.32-1.43 2.12-2.28a1.41 1.41 0 0 1 1-1.89q.72-.27 1.41-.6c1-.48 1.82-.52 2.5.58.44.7 2.59.64 3.06-.07a1.54 1.54 0 0 1 2.26-.58c.4.19.84.32 1.24.51s.99.56 1.49.83zm-10.47 2a1.28 1.28 0 0 1-.6 1.68 5.3 5.3 0 0 0-1.45 1.38 1.86 1.86 0 0 1-2.11 1 .72.72 0 0 0-.57.31.56.56 0 0 0 .14.54c1 .54 1 1.38.86 2.35a3.23 3.23 0 0 0 0 1.24c.19.94.15 1.74-.84 2.25a.55.55 0 0 0-.16.53c.09.17.39.4.52.36 1.12-.36 1.7.26 2.24 1.09a3.15 3.15 0 0 0 1 .94c.85.54 1.4 1.16 1.06 2.25a.61.61 0 0 0 .28.51c.14.07.5 0 .55-.09.59-1.19 1.56-1 2.61-.87a3.7 3.7 0 0 0 1.62-.08 1.38 1.38 0 0 1 1.69.67c.15.21.48.29.73.43.11-.3.33-.61.29-.89a1.51 1.51 0 0 1 .76-1.67 5.87 5.87 0 0 0 1.61-1.61 1.41 1.41 0 0 1 1.58-.72c.27 0 .59-.16.88-.25-.14-.27-.21-.65-.43-.81a1.36 1.36 0 0 1-.61-1.61 5.22 5.22 0 0 0 0-2.19 1.4 1.4 0 0 1 .63-1.61c.22-.16.28-.53.42-.81a2.44 2.44 0 0 0-.9-.25 1.44 1.44 0 0 1-1.58-.73 6.4 6.4 0 0 0-1.62-1.62 1.43 1.43 0 0 1-.73-1.58 2.6 2.6 0 0 0-.23-.91c-.3.16-.69.25-.88.5a1.35 1.35 0 0 1-1.54.56 6.84 6.84 0 0 0-2.47 0 1.3 1.3 0 0 1-1.46-.54 3.55 3.55 0 0 0-.86-.56z"/>
  <path class="cls-3" d="M929.82 108.59a6.11 6.11 0 1 1 6.2-6 6.18 6.18 0 0 1-6.2 6zm3.72-6.07a3.73 3.73 0 1 0-3.7 3.68 3.8 3.8 0 0 0 3.7-3.68zM909.31 63.15a6.12 6.12 0 1 1-6.15 6.06 6.12 6.12 0 0 1 6.15-6.06zm3.69 6.13a3.7 3.7 0 0 0-7.39 0 3.7 3.7 0 1 0 7.39 0zM1300.21 98.73c.1-.26.21-.52.29-.78a4.5 4.5 0 0 1 2.57-3c1-.39 1.13-1 1.12-1.92a8.22 8.22 0 0 1 8.55-8.55c2 0 4.11-.07 6.15.08a8.09 8.09 0 0 1 7.33 8v5h.23c1.52-.85 2.6-.35 3.38 1.09.26.46.64.51 1.15.46a9.08 9.08 0 0 1 2.21 0 1.25 1.25 0 0 0 1.29-.55c1.36-1.68 1.37-1.67 3.4-.93.32.12.64.24.95.38 2.17 1 2.19 1 2.05 3.29a1.15 1.15 0 0 0 .5 1.16 3.37 3.37 0 0 1 .93.87 2.41 2.41 0 0 0 3.29 1v-31h9.13v-4.68h.17l.56.38 9 5.21c.18.11.34.24.59.42l-10.35 6V76h-6.44v30h13.66v-9.87h9.71v-21.5h2.57v24.1a9.3 9.3 0 0 0-.83.7q-4.2 4.32-8.36 8.66a1.65 1.65 0 0 1-1.33.56h-15.61a1.17 1.17 0 0 1-.5 1.86c-1 .56-1.11 1.43-1.2 2.52a3.12 3.12 0 0 0 1.6 3.35.64.64 0 0 1 .31.92c-.58 1.39-1.13 2.79-1.68 4.18a.79.79 0 0 1-1 .57c-1.31-.3-2.52-.25-3.26 1.14a1.13 1.13 0 0 1-.43.41 2 2 0 0 0-.89 2.47c0 .14 0 .28.06.42a.92.92 0 0 1-.64 1.2c-1.43.59-2.86 1.2-4.29 1.81h-.34c-.48-.59-.94-1.21-1.47-1.76a1.39 1.39 0 0 0-.84-.35h-2.71c-.21 0-.5 0-.61.14-.54.63-1 1.31-1.55 2h-.51c-1.42-.61-2.84-1.23-4.27-1.82a.86.86 0 0 1-.6-1.12 3.2 3.2 0 0 0-1.08-3.33 3.45 3.45 0 0 0-3.55-1.2 1 1 0 0 1-.84-.42c-.61-1.34-1.15-2.71-1.72-4.07a.89.89 0 0 1 .4-1.28 2.92 2.92 0 0 0 1.48-2.9 3.1 3.1 0 0 0-1.55-3.11.81.81 0 0 1-.35-1.15c.55-1.37 1.12-2.73 1.67-4.09a.72.72 0 0 1 .94-.49c1.42.33 2.66.15 3.46-1.27a1.71 1.71 0 0 1 .62-.57 1.27 1.27 0 0 0 .5-1.82 1.86 1.86 0 0 0-.33 0h-11.69c-.5 0-.67.19-.84.62a5.13 5.13 0 0 1-8.6 1.63 13 13 0 0 1-1.51-2.78zm20.62 20.54c.91-.39 1.42.11 2 .86a7 7 0 0 0 2 2.05 2.3 2.3 0 0 1 1.16 2.9.79.79 0 0 0 .55 1c.72.34 1.26.38 1.69-.39.13-.25.39-.42.54-.66a1 1 0 0 1 1.22-.47 9.16 9.16 0 0 0 3.12.14 2.6 2.6 0 0 1 3.25 1.3.81.81 0 0 0 .59.36c1 0 1.46-.62 1.33-1.64 0-.26 0-.52-.08-.77a1.16 1.16 0 0 1 .59-1.26 9.72 9.72 0 0 0 2.29-2.13 2.57 2.57 0 0 1 3.16-1.31.76.76 0 0 0 .65-.19c.69-.83.6-1.43-.23-2.12-.2-.16-.38-.35-.59-.49a1 1 0 0 1-.45-1.14 9.75 9.75 0 0 0 .13-3.13 2.27 2.27 0 0 1 1.16-2.87c.53-.29.52-.68.33-1.22-.24-.71-.59-1-1.36-.87-.3.08-.63 0-.93.11a1 1 0 0 1-1.13-.5 11 11 0 0 0-2.17-2.37c-1.22-.82-1.75-1.73-1.33-3.16a.84.84 0 0 0-.14-.69 1.31 1.31 0 0 0-2.06.11 6.88 6.88 0 0 0-.54.67c-.34.53-.77.57-1.38.5a11.36 11.36 0 0 0-3.39-.08 2.18 2.18 0 0 1-2.66-1.13c-.3-.52-.69-.78-1.32-.42s-1 .57-.82 1.34c.09.32 0 .68.09 1 .11.53-.13.8-.53 1.12a10.74 10.74 0 0 0-2.36 2.19 2.53 2.53 0 0 1-3.08 1.31.82.82 0 0 0-.73.2c-.69.84-.6 1.4.26 2.1a3.81 3.81 0 0 1 .71.61 1.62 1.62 0 0 1 .32.86 23.18 23.18 0 0 0-.06 3.72 1.87 1.87 0 0 1-1 2.22c-.77.45-.77 1-.46 1.75.37 1.04 1.06.44 1.66.59zm2.79-21.08c0-2.11.11-4.13 0-6.13a5.57 5.57 0 0 0-5.4-5h-6a4.45 4.45 0 0 0-1.09.13c-3 .8-4.67 3.3-4.39 6.88a.69.69 0 0 0 .39.45 5.42 5.42 0 0 1 3.42 3.64zm-15.53 1.32a2.64 2.64 0 0 0-2.57-2.64 2.64 2.64 0 1 0-.09 5.27 2.62 2.62 0 0 0 2.66-2.63zm56.46-.76v6l5.85-6z"/>
  <path class="cls-3" d="M1321.09 77.63a5.81 5.81 0 0 1-5.87 5.92 5.9 5.9 0 1 1 5.87-5.92zm-5.92 3.37a3.3 3.3 0 0 0 3.35-3.25 3.3 3.3 0 1 0-6.6-.09 3.28 3.28 0 0 0 3.25 3.34zM1332.11 121.66a8.39 8.39 0 1 1 8.44-8.38 8.45 8.45 0 0 1-8.44 8.38zm0-2.59a5.8 5.8 0 1 0-5.9-5.83 5.91 5.91 0 0 0 5.93 5.83z"/>
</svg>
