<svg id="Layer_1" data-name="Layer 1" xmlns="http://www.w3.org/2000/svg" viewBox="0 0 915.57 673.12"><defs><style>.cls-1{fill:#a8d7cd}.cls-3{fill:none;stroke:#00321d;stroke-miterlimit:10;stroke-width:3px}.cls-4{fill:#00321d}</style></defs><path class="cls-1" d="M0 0h915.85v219.7H0z"/><path fill="#d8e7da" d="M0 226.86h915.85v219.7H0z"/><path class="cls-1" d="M0 453.73h915.85v219.7H0z"/><circle class="cls-3" cx="266.36" cy="46" r="4.5"/><circle class="cls-3" cx="266.37" cy="88.97" r="4.5"/><circle class="cls-3" cx="266.39" cy="131.93" r="4.5"/><circle class="cls-3" cx="266.4" cy="176.89" r="4.5"/><circle class="cls-3" cx="266.36" cy="269" r="4.5"/><circle class="cls-3" cx="266.37" cy="311.97" r="4.5"/><circle class="cls-3" cx="266.39" cy="354.93" r="4.5"/><circle class="cls-3" cx="266.4" cy="399.89" r="4.5"/><circle class="cls-3" cx="266.36" cy="500" r="4.5"/><circle class="cls-3" cx="266.37" cy="542.97" r="4.5"/><circle class="cls-3" cx="266.39" cy="585.93" r="4.5"/><circle class="cls-3" cx="266.4" cy="630.89" r="4.5"/><path class="cls-4" d="M55.1 155.18a11.66 11.66 0 0 0 5.52 1.45c2.67 0 4.16-1.25 4.16-3.11s-1.15-2.74-4.06-3.79c-3.75-1.36-6.16-3.35-6.16-6.64 0-3.72 3.12-6.56 8.06-6.56a12 12 0 0 1 5.48 1.15l-1 3.35a9.64 9.64 0 0 0-4.55-1.03c-2.64 0-3.79 1.42-3.79 2.74 0 1.76 1.32 2.57 4.36 3.75 4 1.49 5.89 3.49 5.89 6.77 0 3.66-2.77 6.84-8.66 6.84a13.61 13.61 0 0 1-6.16-1.42zM87.36 154.77c0 2 .07 3.59.14 4.94h-3.66l-.2-2.5h-.07a6 6 0 0 1-5.28 2.87c-3 0-5.75-1.79-5.75-7.17v-9.68h4.16v9c0 2.74.88 4.5 3.08 4.5a3.51 3.51 0 0 0 3.22-2.26 3.75 3.75 0 0 0 .24-1.29v-10h4.16zM91.66 155.89a9.36 9.36 0 0 0 4.23 1.18c1.83 0 2.64-.74 2.64-1.83s-.67-1.69-2.7-2.4c-3.22-1.12-4.57-2.88-4.54-4.8 0-2.92 2.4-5.18 6.23-5.18a9.62 9.62 0 0 1 4.36 1l-.81 2.94a7.48 7.48 0 0 0-3.49-.94c-1.48 0-2.3.71-2.3 1.72s.78 1.56 2.88 2.3c3 1.09 4.37 2.61 4.4 5 0 3-2.34 5.14-6.7 5.14a10.6 10.6 0 0 1-5-1.15zM110.75 138.52v4.71h4v3.11h-4v7.28c0 2 .54 3 2.14 3a6.12 6.12 0 0 0 1.62-.21l.07 3.18a9 9 0 0 1-3 .41 4.84 4.84 0 0 1-3.58-1.3c-.88-.95-1.29-2.44-1.29-4.61v-7.75h-2.37v-3.11h2.37v-3.72zM120.6 152.64c.11 3 2.44 4.26 5.08 4.26a12.47 12.47 0 0 0 4.57-.74l.61 2.87a15.39 15.39 0 0 1-5.75 1c-5.35 0-8.5-3.28-8.5-8.33 0-4.56 2.78-8.86 8.06-8.86s7.1 4.4 7.1 8a10.09 10.09 0 0 1-.13 1.76zm7.25-2.91c0-1.53-.65-4-3.42-4-2.57 0-3.66 2.34-3.83 4zM135.13 148.14c0-1.9 0-3.49-.14-4.91h3.66l.2 2.47h.1a5.94 5.94 0 0 1 5.25-2.84c2.87 0 5.85 1.86 5.85 7.07v9.78h-4.16v-9.31c0-2.36-.88-4.16-3.15-4.16a3.5 3.5 0 0 0-3.25 2.44 4.38 4.38 0 0 0-.17 1.35v9.68h-4.19zM163.76 159.71l-.27-1.83h-.1a6.11 6.11 0 0 1-4.87 2.2 4.89 4.89 0 0 1-5.18-4.9c0-4.17 3.69-6.27 9.78-6.23v-.27c0-1.08-.44-2.88-3.35-2.88a8.69 8.69 0 0 0-4.43 1.22l-.82-2.71a11.93 11.93 0 0 1 6-1.45c5.28 0 6.8 3.35 6.8 6.93v6a26.23 26.23 0 0 0 .24 4zm-.54-8.05c-2.94-.07-5.75.57-5.75 3.08a2.19 2.19 0 0 0 2.37 2.37 3.4 3.4 0 0 0 3.25-2.27 3.09 3.09 0 0 0 .13-.92zM171.69 148.14c0-1.9 0-3.49-.14-4.91h3.66l.2 2.47h.1a5.93 5.93 0 0 1 5.25-2.84c2.87 0 5.85 1.86 5.85 7.07v9.78h-4.16v-9.31c0-2.36-.88-4.16-3.15-4.16a3.5 3.5 0 0 0-3.25 2.44 4.38 4.38 0 0 0-.17 1.35v9.68h-4.19zM203.16 159.2a11.94 11.94 0 0 1-4.67.85c-5.14 0-8.49-3.28-8.49-8.39 0-4.94 3.38-8.8 9.17-8.8a10.42 10.42 0 0 1 4 .78l-.75 3.11a7.19 7.19 0 0 0-3.14-.64c-3.18 0-5.08 2.33-5.05 5.34 0 3.39 2.2 5.32 5.05 5.32a8.1 8.1 0 0 0 3.28-.65zM208.89 152.64c.1 3 2.44 4.26 5.07 4.26a12.47 12.47 0 0 0 4.57-.74l.61 2.87a15.39 15.39 0 0 1-5.75 1c-5.35 0-8.5-3.28-8.5-8.33 0-4.56 2.78-8.86 8.06-8.86s7.11 4.4 7.11 8a9.88 9.88 0 0 1-.14 1.76zm7.24-2.91c0-1.53-.64-4-3.42-4-2.57 0-3.65 2.34-3.82 4zM52.9 186.49c.1 3 2.44 4.26 5.08 4.26a12.47 12.47 0 0 0 4.57-.74l.61 2.88a15.65 15.65 0 0 1-5.75 1c-5.35 0-8.5-3.28-8.5-8.32 0-4.57 2.78-8.87 8.05-8.87s7.11 4.4 7.11 8a11.21 11.21 0 0 1-.13 1.76zm7.25-2.91c0-1.52-.65-4-3.42-4-2.57 0-3.66 2.34-3.83 4zM67.43 182c0-1.9 0-3.49-.14-4.91H71l.2 2.47h.1a6 6 0 0 1 5.25-2.84c2.87 0 5.85 1.86 5.85 7.07v9.78h-4.21v-9.3c0-2.37-.88-4.17-3.15-4.17a3.5 3.5 0 0 0-3.25 2.44 4.38 4.38 0 0 0-.17 1.35v9.68h-4.19zM101.85 177.08c-.07 1.12-.14 2.47-.14 4.74v9.34c0 3.45-.71 5.92-2.43 7.48a9.52 9.52 0 0 1-6.37 2 11.67 11.67 0 0 1-5.75-1.32l.91-3.15a10 10 0 0 0 4.81 1.25c2.71 0 4.74-1.42 4.74-5V191h-.07a5.56 5.56 0 0 1-4.81 2.44c-4.09 0-7-3.38-7-8.05 0-5.42 3.52-8.7 7.48-8.7a5.2 5.2 0 0 1 4.78 2.59h.07l.17-2.2zm-4.3 6.6a3.78 3.78 0 0 0-.14-1.12 3.44 3.44 0 0 0-3.41-2.67c-2.33 0-4.06 2-4.06 5.38 0 2.81 1.42 5.08 4 5.08a3.56 3.56 0 0 0 3.38-2.51 7.23 7.23 0 0 0 .17-1.49zM110.48 172.48a2.34 2.34 0 0 1-4.67 0 2.34 2.34 0 0 1 4.67 0zm-4.43 21.08v-16.48h4.2v16.48zM114.72 182c0-1.9 0-3.49-.14-4.91h3.66l.2 2.47h.1a6 6 0 0 1 5.25-2.84c2.87 0 5.85 1.86 5.85 7.07v9.78h-4.16v-9.3c0-2.37-.88-4.17-3.15-4.17a3.5 3.5 0 0 0-3.25 2.44 4.38 4.38 0 0 0-.17 1.35v9.68h-4.19zM137 186.49c.1 3 2.44 4.26 5.08 4.26a12.47 12.47 0 0 0 4.57-.74l.61 2.88a15.67 15.67 0 0 1-5.76 1c-5.34 0-8.49-3.28-8.49-8.32 0-4.57 2.77-8.87 8.05-8.87s7.11 4.4 7.11 8a11.21 11.21 0 0 1-.13 1.76zm7.25-2.91c0-1.52-.65-4-3.42-4-2.57 0-3.66 2.34-3.83 4zM154.49 186.49c.1 3 2.44 4.26 5.08 4.26a12.45 12.45 0 0 0 4.56-.74l.61 2.88a15.61 15.61 0 0 1-5.75 1c-5.35 0-8.49-3.28-8.49-8.32 0-4.57 2.77-8.87 8.05-8.87s7.11 4.4 7.11 8a9.88 9.88 0 0 1-.14 1.76zm7.24-2.91c0-1.52-.64-4-3.42-4-2.57 0-3.65 2.34-3.82 4zM169 182.39c0-2.23 0-3.82-.13-5.31h3.62l.13 3.15h.14a4.91 4.91 0 0 1 4.5-3.52 4.22 4.22 0 0 1 1 .1v3.93a5.62 5.62 0 0 0-1.22-.14 3.67 3.67 0 0 0-3.72 3.15 6.91 6.91 0 0 0-.13 1.28v8.53H169zM185.5 172.48a2.21 2.21 0 0 1-2.37 2.23 2.18 2.18 0 0 1-2.3-2.23 2.34 2.34 0 0 1 4.67 0zm-4.44 21.08v-16.48h4.2v16.48zM189.73 182c0-1.9 0-3.49-.14-4.91h3.66l.2 2.47h.1a6 6 0 0 1 5.25-2.84c2.88 0 5.85 1.86 5.85 7.07v9.78h-4.16v-9.3c0-2.37-.88-4.17-3.15-4.17a3.51 3.51 0 0 0-3.25 2.44 4.39 4.39 0 0 0-.16 1.35v9.68h-4.2zM224.15 177.08c-.07 1.12-.13 2.47-.13 4.74v9.34c0 3.45-.71 5.92-2.44 7.48a9.51 9.51 0 0 1-6.36 2 11.68 11.68 0 0 1-5.76-1.32l.92-3.15a9.94 9.94 0 0 0 4.8 1.25c2.71 0 4.74-1.42 4.74-5V191h-.07a5.54 5.54 0 0 1-4.8 2.44c-4.1 0-7-3.38-7-8.05 0-5.42 3.52-8.7 7.48-8.7a5.19 5.19 0 0 1 4.77 2.57h.07l.17-2.2zm-4.3 6.6a4.14 4.14 0 0 0-.13-1.12 3.46 3.46 0 0 0-3.39-2.67c-2.33 0-4.06 2-4.06 5.38 0 2.81 1.42 5.08 4 5.08a3.55 3.55 0 0 0 3.38-2.51 6.61 6.61 0 0 0 .17-1.49zM293.6 35.73v17.11h-2.21V35.73zM309.42 52.28a10.91 10.91 0 0 1-4.52.81c-4.82 0-8.45-3-8.45-8.65 0-5.36 3.63-9 8.93-9a9.14 9.14 0 0 1 4.07.76l-.54 1.8a8.14 8.14 0 0 0-3.45-.71c-4 0-6.68 2.57-6.68 7.06 0 4.19 2.41 6.88 6.58 6.88a8.87 8.87 0 0 0 3.6-.71zM317.49 44.56c0-1.57-.05-2.84-.1-4h2l.1 2.11h.05a4.82 4.82 0 0 1 4.36-2.39c3 0 5.21 2.52 5.21 6.25 0 4.42-2.69 6.6-5.59 6.6a4.31 4.31 0 0 1-3.78-1.93h-.05v6.68h-2.21zm2.21 3.28a5.07 5.07 0 0 0 .1.91 3.45 3.45 0 0 0 3.35 2.62c2.36 0 3.74-1.93 3.74-4.75 0-2.46-1.3-4.57-3.66-4.57a3.57 3.57 0 0 0-3.38 2.77 3.93 3.93 0 0 0-.15.91zM338.74 52.84l-.18-1.55h-.07a4.58 4.58 0 0 1-3.76 1.83 3.5 3.5 0 0 1-3.73-3.53c0-3 2.64-4.6 7.39-4.57v-.25a2.54 2.54 0 0 0-2.79-2.85 6.09 6.09 0 0 0-3.2.92l-.51-1.48a7.65 7.65 0 0 1 4-1.09c3.76 0 4.67 2.57 4.67 5v4.59a17.62 17.62 0 0 0 .2 3zm-.33-6.27c-2.44 0-5.2.38-5.2 2.77a2 2 0 0 0 2.1 2.13 3.05 3.05 0 0 0 3-2.06 2.22 2.22 0 0 0 .13-.71zM352.93 52.38a8.14 8.14 0 0 1-3.53.71c-3.7 0-6.12-2.51-6.12-6.27a6.24 6.24 0 0 1 6.61-6.52 7.52 7.52 0 0 1 3.09.63l-.5 1.73a5.13 5.13 0 0 0-2.59-.59c-2.82 0-4.35 2.09-4.35 4.65 0 2.84 1.83 4.6 4.27 4.6a6.31 6.31 0 0 0 2.74-.61zM357.76 46.19h.05c.3-.43.73-1 1.09-1.4l3.6-4.24h2.7l-4.75 5.05 5.41 7.24h-2.72L358.9 47l-1.14 1.27v4.62h-2.21v-18h2.21zM374.72 52.84l-.18-1.55h-.08a4.55 4.55 0 0 1-3.76 1.83 3.5 3.5 0 0 1-3.7-3.53c0-3 2.64-4.6 7.39-4.57v-.25a2.54 2.54 0 0 0-2.8-2.85 6.14 6.14 0 0 0-3.2.92l-.5-1.48a7.58 7.58 0 0 1 4-1.09c3.76 0 4.67 2.57 4.67 5v4.59a17.55 17.55 0 0 0 .21 3zm-.33-6.27c-2.44 0-5.21.38-5.21 2.77a2 2 0 0 0 2.11 2.13 3.06 3.06 0 0 0 3-2.06 2.22 2.22 0 0 0 .13-.71zM390.74 40.55c-.05.89-.1 1.88-.1 3.38v7.13c0 2.82-.56 4.55-1.76 5.61a6.5 6.5 0 0 1-4.47 1.48 7.91 7.91 0 0 1-4.08-1l.56-1.7a6.89 6.89 0 0 0 3.6 1c2.29 0 4-1.19 4-4.29v-1.43h-.05a4.36 4.36 0 0 1-3.91 2.06c-3.05 0-5.23-2.59-5.23-6 0-4.17 2.72-6.53 5.54-6.53a4.09 4.09 0 0 1 3.83 2.13h.05l.1-1.85zm-2.31 4.85a3.17 3.17 0 0 0-.13-1 3.22 3.22 0 0 0-3.12-2.4c-2.14 0-3.66 1.81-3.66 4.65 0 2.41 1.22 4.42 3.63 4.42a3.27 3.27 0 0 0 3.1-2.29 3.78 3.78 0 0 0 .18-1.19zM395.58 47.1c.06 3 2 4.27 4.22 4.27a8 8 0 0 0 3.4-.64l.38 1.6a9.85 9.85 0 0 1-4.09.76c-3.78 0-6-2.48-6-6.19s2.19-6.63 5.77-6.63c4 0 5.07 3.53 5.07 5.79a10 10 0 0 1-.07 1zm6.56-1.6c0-1.42-.59-3.63-3.1-3.63-2.26 0-3.25 2.08-3.43 3.63zM419.25 52.84l-.18-1.55H419a4.54 4.54 0 0 1-3.75 1.83 3.5 3.5 0 0 1-3.76-3.53c0-3 2.64-4.6 7.39-4.57v-.25a2.54 2.54 0 0 0-2.8-2.85 6.14 6.14 0 0 0-3.2.92l-.5-1.48a7.58 7.58 0 0 1 4-1.09c3.76 0 4.68 2.57 4.68 5v4.59a17.62 17.62 0 0 0 .2 3zm-.33-6.27c-2.44 0-5.21.38-5.21 2.77a2 2 0 0 0 2.11 2.13 3.06 3.06 0 0 0 3-2.06 2.22 2.22 0 0 0 .13-.71zM424.68 43.88c0-1.27 0-2.31-.1-3.33h2l.13 2h.05a4.51 4.51 0 0 1 4.06-2.31c1.7 0 4.34 1 4.34 5.23v7.34h-2.23v-7.05c0-2-.74-3.63-2.85-3.63a3.17 3.17 0 0 0-3 2.28 3 3 0 0 0-.16 1v7.39h-2.23zM445.58 52.84l-.18-1.55h-.08a4.55 4.55 0 0 1-3.76 1.83 3.5 3.5 0 0 1-3.75-3.53c0-3 2.64-4.6 7.38-4.57v-.25a2.54 2.54 0 0 0-2.79-2.85 6.14 6.14 0 0 0-3.2.92l-.51-1.48a7.65 7.65 0 0 1 4-1.09c3.76 0 4.67 2.57 4.67 5v4.59a16.55 16.55 0 0 0 .21 3zm-.34-6.27c-2.43 0-5.2.38-5.2 2.77a2 2 0 0 0 2.11 2.13 3.06 3.06 0 0 0 3-2.06 2.52 2.52 0 0 0 .12-.71zM451 34.81h2.23v18H451zM457.81 40.55l2.69 7.26c.28.82.59 1.78.79 2.52.23-.74.48-1.68.79-2.57l2.44-7.21h2.36l-3.35 8.76c-1.6 4.22-2.7 6.37-4.22 7.69a6 6 0 0 1-2.74 1.45l-.56-1.88a5.88 5.88 0 0 0 1.99-1.09 6.61 6.61 0 0 0 1.89-2.48 1.63 1.63 0 0 0 .18-.53 1.87 1.87 0 0 0-.15-.58l-4.55-11.33zM468.5 50.56a5.88 5.88 0 0 0 2.95.88c1.62 0 2.38-.81 2.38-1.82s-.63-1.65-2.28-2.26c-2.21-.79-3.25-2-3.25-3.48 0-2 1.6-3.61 4.24-3.61a6.22 6.22 0 0 1 3 .76l-.54 1.63a4.72 4.72 0 0 0-2.51-.71c-1.32 0-2.06.76-2.06 1.67s.74 1.48 2.34 2.09c2.13.81 3.22 1.87 3.22 3.7 0 2.16-1.68 3.68-4.6 3.68a7.09 7.09 0 0 1-3.45-.83zM481.35 37.1a1.39 1.39 0 0 1-2.77 0 1.36 1.36 0 0 1 1.4-1.4 1.33 1.33 0 0 1 1.37 1.4zm-2.49 15.74V40.55h2.23v12.29zM484.49 50.56a5.88 5.88 0 0 0 2.95.88c1.62 0 2.39-.81 2.39-1.82s-.64-1.65-2.29-2.26c-2.21-.79-3.25-2-3.25-3.48 0-2 1.6-3.61 4.24-3.61a6.16 6.16 0 0 1 3 .76l-.53 1.63a4.72 4.72 0 0 0-2.51-.71c-1.32 0-2.06.76-2.06 1.67s.74 1.48 2.34 2.09c2.13.81 3.22 1.87 3.22 3.7 0 2.16-1.67 3.68-4.59 3.68a7.06 7.06 0 0 1-3.45-.83zM306 88.11c0 5.89-3.58 9-7.95 9s-7.69-3.5-7.69-8.68c0-5.44 3.37-9 7.95-9S306 83 306 88.11zm-13.28.28c0 3.65 2 6.93 5.46 6.93s5.48-3.23 5.48-7.11c0-3.4-1.77-7-5.46-7s-5.46 3.42-5.46 7.18zM308.71 96.84c.05-.84.1-2.08.1-3.17V78.81H311v7.72h.05a4.58 4.58 0 0 1 4.19-2.26c3.05 0 5.2 2.54 5.18 6.27 0 4.4-2.77 6.58-5.51 6.58a4.37 4.37 0 0 1-4.11-2.31h-.08l-.1 2zm2.29-4.93a4.38 4.38 0 0 0 .1.82 3.44 3.44 0 0 0 3.35 2.61c2.34 0 3.73-1.9 3.73-4.72 0-2.46-1.27-4.57-3.65-4.57a3.55 3.55 0 0 0-3.4 2.74 3.91 3.91 0 0 0-.13.92zM323 94.56a5.88 5.88 0 0 0 2.95.88c1.62 0 2.38-.81 2.38-1.82s-.68-1.62-2.33-2.26c-2.21-.79-3.25-2-3.25-3.48 0-2 1.6-3.61 4.24-3.61a6.22 6.22 0 0 1 3 .76l-.56 1.63a4.72 4.72 0 0 0-2.51-.71c-1.32 0-2.06.76-2.06 1.67s.74 1.48 2.34 2.09c2.13.81 3.22 1.87 3.22 3.7 0 2.16-1.68 3.68-4.6 3.68a7.09 7.09 0 0 1-3.45-.83zM344.43 90.59c0 4.55-3.15 6.53-6.12 6.53-3.33 0-5.89-2.44-5.89-6.32 0-4.12 2.69-6.53 6.09-6.53s5.92 2.57 5.92 6.32zm-9.75.13c0 2.69 1.55 4.72 3.73 4.72s3.73-2 3.73-4.77c0-2.08-1-4.72-3.68-4.72s-3.78 2.44-3.78 4.77zM347.25 78.81h2.23v18h-2.23zM354.48 91.1c0 3 2 4.27 4.22 4.27a8 8 0 0 0 3.4-.64l.38 1.6a9.89 9.89 0 0 1-4.09.76c-3.78 0-6-2.48-6-6.19s2.18-6.63 5.76-6.63c4 0 5.08 3.53 5.08 5.79a10 10 0 0 1-.07 1zm6.52-1.6c0-1.42-.58-3.63-3.09-3.63-2.26 0-3.25 2.08-3.43 3.63zM365.65 94.56a5.88 5.88 0 0 0 3 .88c1.62 0 2.39-.81 2.39-1.82s-.64-1.65-2.29-2.26c-2.21-.79-3.25-2-3.25-3.48 0-2 1.6-3.61 4.24-3.61a6.19 6.19 0 0 1 3 .76l-.56 1.63a4.72 4.72 0 0 0-2.51-.71c-1.32 0-2.06.76-2.06 1.67s.74 1.48 2.34 2.09c2.13.81 3.22 1.87 3.22 3.7 0 2.16-1.67 3.68-4.59 3.68a7.13 7.13 0 0 1-3.46-.83zM384.77 96.38a8.14 8.14 0 0 1-3.53.71c-3.71 0-6.12-2.51-6.12-6.27a6.24 6.24 0 0 1 6.6-6.52 7.57 7.57 0 0 1 3.1.63l-.51 1.73a5.1 5.1 0 0 0-2.59-.59c-2.81 0-4.34 2.09-4.34 4.65 0 2.84 1.83 4.6 4.27 4.6a6.31 6.31 0 0 0 2.74-.61zM388.48 91.1c0 3 2 4.27 4.21 4.27a8 8 0 0 0 3.4-.64l.39 1.6a9.93 9.93 0 0 1-4.09.76c-3.79 0-6.05-2.48-6.05-6.19s2.19-6.63 5.77-6.63c4 0 5.08 3.53 5.08 5.79a7.43 7.43 0 0 1-.08 1zm6.52-1.6c0-1.42-.59-3.63-3.1-3.63-2.26 0-3.25 2.08-3.43 3.63zM400 87.88c0-1.27 0-2.31-.1-3.33h2l.13 2H402a4.51 4.51 0 0 1 4.06-2.31c1.7 0 4.34 1 4.34 5.23v7.34h-2.23v-7.05c0-2-.74-3.63-2.84-3.63a3.17 3.17 0 0 0-3 2.28 3.26 3.26 0 0 0-.15 1v7.39H400zM422.8 96.38a8.14 8.14 0 0 1-3.53.71c-3.7 0-6.11-2.51-6.11-6.27a6.24 6.24 0 0 1 6.6-6.52 7.52 7.52 0 0 1 3.09.63l-.5 1.73a5.13 5.13 0 0 0-2.59-.59c-2.82 0-4.35 2.09-4.35 4.65 0 2.84 1.83 4.6 4.27 4.6a6.31 6.31 0 0 0 2.74-.61zM426.51 91.1c.05 3 2 4.27 4.21 4.27a8 8 0 0 0 3.41-.64l.38 1.6a9.93 9.93 0 0 1-4.09.76c-3.78 0-6-2.48-6-6.19s2.18-6.63 5.76-6.63c4 0 5.08 3.53 5.08 5.79a7.43 7.43 0 0 1-.08 1zm6.55-1.6c0-1.42-.58-3.63-3.1-3.63-2.26 0-3.25 2.08-3.43 3.63zM443.37 87.88c0-1.27 0-2.31-.1-3.33h2l.1 2h.08a4.23 4.23 0 0 1 3.86-2.26 3.65 3.65 0 0 1 3.48 2.46h.05a5 5 0 0 1 1.37-1.59 4.17 4.17 0 0 1 2.71-.87c1.63 0 4 1.07 4 5.33v7.24h-2.18v-7c0-2.36-.86-3.78-2.67-3.78a2.89 2.89 0 0 0-2.64 2 3.75 3.75 0 0 0-.18 1.12v7.59h-2.18v-7.31c0-2-.86-3.38-2.56-3.38a3.33 3.33 0 0 0-2.95 3.33v7.41h-2.18zM471.35 96.84l-.18-1.55h-.08a4.55 4.55 0 0 1-3.76 1.83 3.5 3.5 0 0 1-3.75-3.53c0-3 2.64-4.6 7.38-4.57v-.25a2.53 2.53 0 0 0-2.79-2.85 6.14 6.14 0 0 0-3.2.92l-.51-1.48a7.65 7.65 0 0 1 4-1.09c3.76 0 4.67 2.57 4.67 5v4.59a16.55 16.55 0 0 0 .21 3zm-.35-6.27c-2.44 0-5.21.38-5.21 2.77a2 2 0 0 0 2.11 2.13 3.06 3.06 0 0 0 3-2.06 2.53 2.53 0 0 0 .13-.71zM476.78 87.88c0-1.27 0-2.31-.1-3.33h2l.12 2h.05a4.53 4.53 0 0 1 4.07-2.31c1.7 0 4.34 1 4.34 5.23v7.34H485v-7.05c0-2-.73-3.63-2.84-3.63a3.19 3.19 0 0 0-3 2.28 3.26 3.26 0 0 0-.15 1v7.39h-2.23zM497.67 96.84l-.17-1.55h-.08a4.58 4.58 0 0 1-3.76 1.83 3.5 3.5 0 0 1-3.76-3.53c0-3 2.64-4.6 7.39-4.57v-.25a2.54 2.54 0 0 0-2.79-2.85 6.11 6.11 0 0 0-3.2.92l-.51-1.48a7.65 7.65 0 0 1 4-1.09c3.76 0 4.67 2.57 4.67 5v4.59a17.62 17.62 0 0 0 .2 3zm-.33-6.27c-2.43 0-5.2.38-5.2 2.77a2 2 0 0 0 2.11 2.13 3.06 3.06 0 0 0 3-2.06 2.52 2.52 0 0 0 .12-.71zM513.69 84.55c-.05.89-.1 1.88-.1 3.38v7.13c0 2.82-.56 4.55-1.75 5.61a6.5 6.5 0 0 1-4.47 1.48 8 8 0 0 1-4.09-1l.56-1.7a6.93 6.93 0 0 0 3.61 1c2.28 0 4-1.19 4-4.29v-1.43h-.05a4.38 4.38 0 0 1-3.91 2.06c-3.05 0-5.23-2.59-5.23-6 0-4.17 2.71-6.53 5.53-6.53a4.11 4.11 0 0 1 3.84 2.13h.05l.1-1.85zm-2.31 4.85a3.18 3.18 0 0 0-.12-1 3.23 3.23 0 0 0-3.13-2.4c-2.13 0-3.65 1.81-3.65 4.65 0 2.41 1.22 4.42 3.63 4.42a3.28 3.28 0 0 0 3.1-2.29 4.08 4.08 0 0 0 .17-1.19zM518.54 91.1c.05 3 2 4.27 4.22 4.27a8 8 0 0 0 3.4-.64l.38 1.6a9.89 9.89 0 0 1-4.09.76c-3.78 0-6-2.48-6-6.19s2.18-6.63 5.76-6.63c4 0 5.08 3.53 5.08 5.79a7.43 7.43 0 0 1-.08 1zm6.55-1.6c0-1.42-.58-3.63-3.1-3.63-2.25 0-3.25 2.08-3.42 3.63zM530 87.88c0-1.27 0-2.31-.1-3.33h2l.1 2h.08a4.23 4.23 0 0 1 3.86-2.26 3.65 3.65 0 0 1 3.48 2.46h.05a5 5 0 0 1 1.37-1.59 4.18 4.18 0 0 1 2.72-.87c1.62 0 4 1.07 4 5.33v7.24h-2.18v-7c0-2.36-.86-3.78-2.67-3.78a2.89 2.89 0 0 0-2.64 2 3.75 3.75 0 0 0-.18 1.12v7.59h-2.18v-7.31c0-2-.86-3.38-2.56-3.38a3.33 3.33 0 0 0-2.95 3.33v7.41H530zM552.44 91.1c0 3 2 4.27 4.21 4.27a8 8 0 0 0 3.4-.64l.38 1.6a9.83 9.83 0 0 1-4.08.76c-3.79 0-6.05-2.48-6.05-6.19s2.19-6.63 5.77-6.63c4 0 5.07 3.53 5.07 5.79a10 10 0 0 1-.07 1zm6.56-1.6c0-1.42-.59-3.63-3.1-3.63-2.26 0-3.25 2.08-3.43 3.63zM563.91 87.88c0-1.27 0-2.31-.1-3.33h2l.13 2h.06a4.51 4.51 0 0 1 4-2.28c1.7 0 4.34 1 4.34 5.23v7.34h-2.23v-7.08c0-2-.74-3.63-2.85-3.63a3.17 3.17 0 0 0-3 2.28 3.26 3.26 0 0 0-.15 1v7.39h-2.24zM580.59 81v3.53h3.2v1.7h-3.2v6.63c0 1.52.43 2.39 1.68 2.39a4.73 4.73 0 0 0 1.29-.16l.1 1.68a5.4 5.4 0 0 1-2 .3 3.09 3.09 0 0 1-2.41-.94 4.56 4.56 0 0 1-.86-3.19v-6.69h-1.89v-1.7h1.91v-2.94zM291.09 138.15a7.83 7.83 0 0 0 4 1.12c2.26 0 3.58-1.2 3.58-2.92s-.91-2.52-3.22-3.41c-2.8-1-4.52-2.43-4.52-4.85 0-2.66 2.2-4.64 5.53-4.64a7.66 7.66 0 0 1 3.78.84l-.61 1.8a6.72 6.72 0 0 0-3.25-.81c-2.33 0-3.22 1.39-3.22 2.56 0 1.6 1 2.39 3.4 3.3 2.9 1.12 4.37 2.51 4.37 5s-2 4.92-6 4.92a8.84 8.84 0 0 1-4.37-1.09zM315.11 134.59c0 4.55-3.15 6.53-6.12 6.53-3.33 0-5.89-2.44-5.89-6.32 0-4.12 2.69-6.53 6.09-6.53s5.92 2.57 5.92 6.32zm-9.75.13c0 2.69 1.55 4.72 3.73 4.72s3.73-2 3.73-4.77c0-2.08-1-4.72-3.68-4.72s-3.78 2.44-3.78 4.77zM318.15 140.84v-10.59h-1.72v-1.7h1.72V128a5.75 5.75 0 0 1 1.43-4.29 4.22 4.22 0 0 1 3-1.15 5.18 5.18 0 0 1 1.91.36l-.31 1.73a3.23 3.23 0 0 0-1.42-.28c-1.91 0-2.39 1.67-2.39 3.55v.66h3v1.7h-3v10.59zM328.31 125v3.53h3.2v1.7h-3.2v6.63c0 1.52.43 2.39 1.67 2.39a4.76 4.76 0 0 0 1.3-.16l.1 1.68a5.44 5.44 0 0 1-2 .3 3.09 3.09 0 0 1-2.41-.94 4.51 4.51 0 0 1-.87-3.19v-6.71h-1.9v-1.7h1.9v-2.94zM335.14 128.55l1.62 6.25c.36 1.37.69 2.64.92 3.91h.07c.28-1.25.69-2.57 1.09-3.89l2-6.27h1.88l1.9 6.15c.46 1.47.82 2.76 1.09 4h.08a35.29 35.29 0 0 1 .94-4l1.75-6.17h2.21l-4 12.29h-2l-1.86-5.82a39.71 39.71 0 0 1-1.09-4h-.05a38 38 0 0 1-1.12 4.06l-2 5.84h-2l-3.71-12.29zM359.64 140.84l-.18-1.55h-.08a4.55 4.55 0 0 1-3.76 1.83 3.5 3.5 0 0 1-3.75-3.53c0-3 2.64-4.6 7.39-4.57v-.25a2.54 2.54 0 0 0-2.8-2.85 6.14 6.14 0 0 0-3.2.92l-.5-1.48a7.58 7.58 0 0 1 4-1.09c3.76 0 4.67 2.57 4.67 5v4.59a17.55 17.55 0 0 0 .21 3zm-.33-6.27c-2.44 0-5.21.38-5.21 2.77a2 2 0 0 0 2.11 2.13 3.06 3.06 0 0 0 3-2.06 2.22 2.22 0 0 0 .13-.71zM365.07 132.39c0-1.45 0-2.7-.1-3.84h1.95L367 131h.1a3.68 3.68 0 0 1 3.4-2.69 2.49 2.49 0 0 1 .64.08v2.11a2.91 2.91 0 0 0-.76-.08 3.13 3.13 0 0 0-3 2.87 6.33 6.33 0 0 0-.1 1v6.55h-2.21zM374.36 135.1c.05 3 2 4.27 4.22 4.27a8 8 0 0 0 3.4-.64l.38 1.6a9.89 9.89 0 0 1-4.09.76c-3.78 0-6-2.48-6-6.19s2.18-6.63 5.76-6.63c4 0 5.08 3.53 5.08 5.79a7.43 7.43 0 0 1-.08 1zm6.55-1.6c0-1.42-.58-3.63-3.1-3.63-2.26 0-3.25 2.08-3.42 3.63zM391.73 133.15v1.65h-6.27v-1.65zM405.41 122.81v14.86c0 1.09 0 2.33.1 3.17h-2l-.1-2.13h-.05a4.56 4.56 0 0 1-4.19 2.41c-3 0-5.26-2.51-5.26-6.25 0-4.08 2.51-6.6 5.51-6.6a4.12 4.12 0 0 1 3.71 1.88h.05v-7.34zm-2.23 10.74a4.29 4.29 0 0 0-.1-.94 3.29 3.29 0 0 0-3.23-2.59c-2.31 0-3.68 2-3.68 4.75 0 2.49 1.22 4.55 3.63 4.55a3.36 3.36 0 0 0 3.28-2.67 4.16 4.16 0 0 0 .1-1zM410.36 135.1c.05 3 2 4.27 4.22 4.27a8 8 0 0 0 3.4-.64l.38 1.6a9.89 9.89 0 0 1-4.09.76c-3.78 0-6-2.48-6-6.19s2.18-6.63 5.76-6.63c4 0 5.08 3.53 5.08 5.79a7.43 7.43 0 0 1-.08 1zm6.55-1.6c0-1.42-.58-3.63-3.09-3.63-2.26 0-3.25 2.08-3.43 3.63zM422.07 140.84v-10.59h-1.73v-1.7h1.73v-.66c0-3.25 1.9-5.36 5.35-5.36a6.14 6.14 0 0 1 3.13.82l-.64 1.7a4.7 4.7 0 0 0-2.59-.71c-2.36 0-3 1.65-3 3.6v.61h7.13v12.29h-2.25v-10.59h-4.92v10.59zM435.12 131.88c0-1.27 0-2.31-.11-3.33h2l.13 2h.05a4.52 4.52 0 0 1 4.07-2.31c1.7 0 4.34 1 4.34 5.23v7.34h-2.24v-7.08c0-2-.73-3.63-2.84-3.63a3.18 3.18 0 0 0-3 2.28 3.26 3.26 0 0 0-.15 1v7.39h-2.23zM450.45 135.1c.05 3 2 4.27 4.22 4.27a8 8 0 0 0 3.4-.64l.38 1.6a9.89 9.89 0 0 1-4.09.76c-3.78 0-6-2.48-6-6.19s2.18-6.63 5.76-6.63c4 0 5.08 3.53 5.08 5.79a7.43 7.43 0 0 1-.08 1zm6.55-1.6c0-1.42-.58-3.63-3.1-3.63-2.26 0-3.25 2.08-3.42 3.63zM472.54 122.81v14.86c0 1.09 0 2.33.1 3.17h-2l-.11-2.13a4.54 4.54 0 0 1-4.19 2.41c-3 0-5.25-2.51-5.25-6.25 0-4.08 2.51-6.6 5.51-6.6a4.09 4.09 0 0 1 3.7 1.88h.06v-7.34zm-2.23 10.74a3.77 3.77 0 0 0-.11-.94A3.28 3.28 0 0 0 467 130c-2.31 0-3.68 2-3.68 4.75 0 2.49 1.22 4.55 3.63 4.55a3.35 3.35 0 0 0 3.27-2.67 3.67 3.67 0 0 0 .11-1zM484.32 125v3.53h3.2v1.7h-3.2v6.63c0 1.52.43 2.39 1.67 2.39a4.76 4.76 0 0 0 1.3-.16l.1 1.68a5.44 5.44 0 0 1-2 .3 3.09 3.09 0 0 1-2.41-.94 4.51 4.51 0 0 1-.86-3.19v-6.71h-1.91v-1.7h1.91v-2.94zM491.12 135.1c.05 3 2 4.27 4.22 4.27a8 8 0 0 0 3.4-.64l.38 1.6a9.89 9.89 0 0 1-4.09.76c-3.78 0-6-2.48-6-6.19s2.18-6.63 5.76-6.63c4 0 5.08 3.53 5.08 5.79a10 10 0 0 1-.07 1zm6.55-1.6c0-1.42-.58-3.63-3.09-3.63-2.26 0-3.25 2.08-3.43 3.63zM511.36 140.38a8.18 8.18 0 0 1-3.53.71c-3.71 0-6.12-2.51-6.12-6.27a6.24 6.24 0 0 1 6.6-6.52 7.57 7.57 0 0 1 3.1.63l-.51 1.73a5.1 5.1 0 0 0-2.59-.59c-2.82 0-4.34 2.09-4.34 4.65 0 2.84 1.83 4.6 4.27 4.6a6.38 6.38 0 0 0 2.74-.61zM514 122.81h2.24v7.67a4.1 4.1 0 0 1 1.6-1.57 4.59 4.59 0 0 1 2.28-.64c1.65 0 4.29 1 4.29 5.26v7.31h-2.21v-7.06c0-2-.74-3.65-2.84-3.65a3.21 3.21 0 0 0-3 2.23 2.64 2.64 0 0 0-.15 1.07v7.41H514zM528.06 131.88c0-1.27 0-2.31-.1-3.33h2l.13 2a4.51 4.51 0 0 1 4.06-2.31c1.7 0 4.34 1 4.34 5.23v7.34h-2.23v-7.08c0-2-.74-3.63-2.84-3.63a3.17 3.17 0 0 0-3 2.28 3.26 3.26 0 0 0-.15 1v7.39h-2.24zM553.28 134.59c0 4.55-3.15 6.53-6.12 6.53-3.33 0-5.89-2.44-5.89-6.32 0-4.12 2.69-6.53 6.09-6.53s5.92 2.57 5.92 6.32zm-9.75.13c0 2.69 1.54 4.72 3.73 4.72s3.73-2 3.73-4.77c0-2.08-1-4.72-3.68-4.72s-3.78 2.44-3.78 4.77zM556.09 122.81h2.24v18h-2.24zM573.2 134.59c0 4.55-3.14 6.53-6.11 6.53-3.33 0-5.89-2.44-5.89-6.32 0-4.12 2.69-6.53 6.09-6.53s5.91 2.57 5.91 6.32zm-9.75.13c0 2.69 1.55 4.72 3.74 4.72s3.73-2 3.73-4.77c0-2.08-1-4.72-3.68-4.72s-3.79 2.44-3.79 4.77zM586.61 128.55c-.05.89-.1 1.88-.1 3.38v7.13c0 2.82-.56 4.55-1.75 5.61a6.52 6.52 0 0 1-4.47 1.48 8 8 0 0 1-4.09-1l.56-1.7a6.89 6.89 0 0 0 3.6 1c2.29 0 4-1.19 4-4.29v-1.37h-.06a4.36 4.36 0 0 1-3.91 2.06c-3 0-5.23-2.59-5.23-6 0-4.17 2.72-6.53 5.54-6.53a4.09 4.09 0 0 1 3.83 2.13l.11-1.85zm-2.31 4.85a3.17 3.17 0 0 0-.13-1 3.22 3.22 0 0 0-3.12-2.37c-2.13 0-3.66 1.81-3.66 4.65 0 2.41 1.22 4.42 3.63 4.42a3.27 3.27 0 0 0 3.1-2.29 3.78 3.78 0 0 0 .18-1.19zM591 128.55l2.69 7.26c.28.82.58 1.78.79 2.52.22-.74.48-1.68.78-2.57l2.44-7.21h2.36l-3.35 8.76c-1.6 4.22-2.69 6.37-4.21 7.69a6 6 0 0 1-2.75 1.45l-.55-1.88a6 6 0 0 0 2-1.09 6.72 6.72 0 0 0 1.88-2.49 1.63 1.63 0 0 0 .18-.53 1.69 1.69 0 0 0-.16-.58l-4.54-11.33zM300.25 176.82h-6.65V183h7.4v1.85h-9.63v-17.12h9.25v1.85h-7V175h6.65zM303.81 175.88c0-1.27 0-2.31-.1-3.33h2l.12 2h.06a4.5 4.5 0 0 1 4.06-2.31c1.7 0 4.34 1 4.34 5.23v7.34H312v-7.08c0-2-.73-3.63-2.84-3.63a3.17 3.17 0 0 0-3 2.28 3 3 0 0 0-.16 1v7.39h-2.23zM318.43 172.55l2.41 6.91a28.92 28.92 0 0 1 1 3.15h.08c.28-1 .64-2 1-3.15l2.39-6.91h2.33l-4.82 12.29h-2.13l-4.67-12.29zM332.27 169.1a1.39 1.39 0 0 1-2.77 0 1.37 1.37 0 0 1 1.4-1.4 1.33 1.33 0 0 1 1.37 1.4zm-2.49 15.74v-12.29H332v12.29zM335.72 176.39c0-1.45 0-2.7-.1-3.84h2l.07 2.41h.1a3.69 3.69 0 0 1 3.41-2.69 2.41 2.41 0 0 1 .63.08v2.11a2.91 2.91 0 0 0-.76-.08 3.13 3.13 0 0 0-3 2.87 6.33 6.33 0 0 0-.1 1v6.55h-2.21zM354.89 178.59c0 4.55-3.15 6.53-6.12 6.53-3.32 0-5.89-2.44-5.89-6.32 0-4.12 2.69-6.53 6.1-6.53s5.91 2.57 5.91 6.32zm-9.75.13c0 2.69 1.55 4.72 3.73 4.72s3.74-2 3.74-4.77c0-2.08-1-4.72-3.69-4.72s-3.78 2.44-3.78 4.77zM357.71 175.88c0-1.27 0-2.31-.1-3.33h2l.12 2h.06a4.5 4.5 0 0 1 4.06-2.31c1.7 0 4.34 1 4.34 5.23v7.34h-2.23v-7.08c0-2-.74-3.63-2.85-3.63a3.17 3.17 0 0 0-3 2.28 3 3 0 0 0-.16 1v7.39h-2.23zM371.8 175.88c0-1.27 0-2.31-.1-3.33h1.95l.1 2h.08a4.24 4.24 0 0 1 3.86-2.26 3.63 3.63 0 0 1 3.48 2.46h.05a5 5 0 0 1 1.37-1.59 4.2 4.2 0 0 1 2.72-.87c1.62 0 4 1.07 4 5.33v7.24h-2.18v-7c0-2.36-.86-3.78-2.67-3.78a2.91 2.91 0 0 0-2.64 2 3.77 3.77 0 0 0-.17 1.12v7.59h-2.19v-7.36c0-2-.86-3.38-2.56-3.38a3.33 3.33 0 0 0-2.95 3.33v7.41h-2.15zM394.22 179.1c0 3 2 4.27 4.21 4.27a8 8 0 0 0 3.4-.64l.39 1.6a9.93 9.93 0 0 1-4.09.76c-3.79 0-6.05-2.48-6.05-6.19s2.19-6.63 5.77-6.63c4 0 5.08 3.53 5.08 5.79a7.43 7.43 0 0 1-.08 1zm6.55-1.6c0-1.42-.59-3.63-3.1-3.63-2.26 0-3.25 2.08-3.43 3.63zM405.69 175.88c0-1.27 0-2.31-.1-3.33h2l.13 2h.05a4.51 4.51 0 0 1 4.06-2.31c1.7 0 4.34 1 4.34 5.23v7.34h-2.23v-7.08c0-2-.74-3.63-2.84-3.63a3.17 3.17 0 0 0-3 2.28 3.26 3.26 0 0 0-.15 1v7.39h-2.24zM422.37 169v3.53h3.2v1.7h-3.2v6.63c0 1.52.44 2.39 1.68 2.39a4.67 4.67 0 0 0 1.29-.16l.11 1.68a5.48 5.48 0 0 1-2 .3 3.11 3.11 0 0 1-2.42-.94 4.56 4.56 0 0 1-.86-3.19v-6.71h-1.9v-1.7h1.9v-2.94zM434.89 184.84l-.18-1.55h-.07a4.58 4.58 0 0 1-3.76 1.83 3.5 3.5 0 0 1-3.76-3.53c0-3 2.64-4.6 7.39-4.57v-.25a2.54 2.54 0 0 0-2.79-2.85 6.09 6.09 0 0 0-3.2.92l-.51-1.48a7.65 7.65 0 0 1 4-1.09c3.75 0 4.67 2.57 4.67 5v4.59a17.62 17.62 0 0 0 .2 3zm-.33-6.27c-2.44 0-5.2.38-5.2 2.77a2 2 0 0 0 2.1 2.13 3.05 3.05 0 0 0 3-2.06 2.22 2.22 0 0 0 .13-.71zM440.32 166.81h2.24v18h-2.24zM454.39 169v3.53h3.2v1.7h-3.2v6.63c0 1.52.43 2.39 1.67 2.39a4.76 4.76 0 0 0 1.3-.16l.1 1.68a5.44 5.44 0 0 1-2 .3 3.09 3.09 0 0 1-2.41-.94 4.51 4.51 0 0 1-.87-3.19v-6.71h-1.9v-1.7h1.9v-2.94zM461.19 179.1c.05 3 2 4.27 4.22 4.27a8 8 0 0 0 3.4-.64l.38 1.6a9.89 9.89 0 0 1-4.09.76c-3.78 0-6-2.48-6-6.19s2.18-6.63 5.76-6.63c4 0 5.08 3.53 5.08 5.79a7.43 7.43 0 0 1-.08 1zm6.55-1.6c0-1.42-.58-3.63-3.1-3.63-2.26 0-3.25 2.08-3.42 3.63zM472.36 182.56a5.88 5.88 0 0 0 2.95.88c1.62 0 2.38-.81 2.38-1.82s-.63-1.65-2.28-2.26c-2.21-.79-3.25-2-3.25-3.48 0-2 1.6-3.61 4.24-3.61a6.19 6.19 0 0 1 3 .76l-.56 1.63a4.72 4.72 0 0 0-2.51-.71c-1.32 0-2.06.76-2.06 1.67s.74 1.48 2.34 2.09c2.13.81 3.22 1.87 3.22 3.7 0 2.16-1.67 3.68-4.59 3.68a7.13 7.13 0 0 1-3.46-.83zM485.41 169v3.53h3.2v1.7h-3.2v6.63c0 1.52.43 2.39 1.68 2.39a4.73 4.73 0 0 0 1.29-.16l.1 1.68a5.4 5.4 0 0 1-2 .3 3.09 3.09 0 0 1-2.41-.94 4.56 4.56 0 0 1-.86-3.19v-6.71h-1.91v-1.7h1.91v-2.94zM493.61 169.1a1.31 1.31 0 0 1-1.42 1.37 1.33 1.33 0 0 1-1.35-1.37 1.37 1.37 0 0 1 1.4-1.4 1.33 1.33 0 0 1 1.37 1.4zm-2.49 15.74v-12.29h2.24v12.29zM497.06 175.88c0-1.27 0-2.31-.1-3.33h2l.13 2h.05a4.51 4.51 0 0 1 4.06-2.31c1.7 0 4.35 1 4.35 5.23v7.34h-2.24v-7.08c0-2-.74-3.63-2.84-3.63a3.17 3.17 0 0 0-3 2.28 3.26 3.26 0 0 0-.15 1v7.39h-2.24zM521.74 172.55c0 .89-.1 1.88-.1 3.38v7.13c0 2.82-.56 4.55-1.75 5.61a6.5 6.5 0 0 1-4.47 1.48 8 8 0 0 1-4.09-1l.56-1.7a6.9 6.9 0 0 0 3.61 1c2.28 0 4-1.19 4-4.29v-1.37h-.05a4.38 4.38 0 0 1-3.91 2.06c-3 0-5.23-2.59-5.23-6 0-4.17 2.71-6.53 5.53-6.53a4.12 4.12 0 0 1 3.84 2.13h.05l.1-1.85zm-2.31 4.85a3.18 3.18 0 0 0-.12-1 3.23 3.23 0 0 0-3.13-2.37c-2.13 0-3.65 1.81-3.65 4.65 0 2.41 1.21 4.42 3.63 4.42a3.26 3.26 0 0 0 3.09-2.29 3.78 3.78 0 0 0 .18-1.19zM535.58 167.22a16.77 16.77 0 0 0-3.2 10.38 17.14 17.14 0 0 0 3.2 10.31h-1.75a16.38 16.38 0 0 1-3.33-10.31 16.77 16.77 0 0 1 3.33-10.38zM540.22 167.73v7.16h8.28v-7.16h2.24v17.11h-2.24v-8h-8.28v8H538v-17.11zM557.34 179.46l-1.78 5.38h-2.29l5.82-17.11h2.66l5.84 17.11h-2.36l-1.83-5.38zm5.61-1.73l-1.68-4.92c-.38-1.12-.63-2.14-.89-3.13-.25 1-.53 2.06-.86 3.1l-1.68 4.95zM570.11 167.73h2.21V183h7.31v1.85h-9.52zM583.11 169.61h-5.21v-1.88h12.67v1.88h-5.23v15.23h-2.23zM595.9 185.86l7.1-18.41h1.73l-7.11 18.41zM614.15 167.73v7.16h8.28v-7.16h2.24v17.11h-2.24v-8h-8.28v8H612v-17.11zM631.27 179.46l-1.78 5.38h-2.29l5.8-17.11h2.66l5.84 17.11h-2.36l-1.83-5.38zm5.61-1.73l-1.68-4.92c-.38-1.12-.63-2.14-.89-3.13-.25 1-.53 2.06-.86 3.1l-1.68 4.95zM643.73 182.15a7.83 7.83 0 0 0 4 1.12c2.26 0 3.58-1.2 3.58-2.92s-.91-2.52-3.22-3.41c-2.8-1-4.52-2.43-4.52-4.85 0-2.66 2.21-4.64 5.53-4.64a7.71 7.71 0 0 1 3.79.84l-.61 1.8a6.76 6.76 0 0 0-3.25-.81c-2.34 0-3.23 1.39-3.23 2.56 0 1.6 1 2.39 3.4 3.3 2.9 1.12 4.37 2.51 4.37 5s-1.95 4.92-6 4.92a8.87 8.87 0 0 1-4.37-1.09zM656.25 182.15a7.83 7.83 0 0 0 4 1.12c2.26 0 3.58-1.2 3.58-2.92s-.92-2.52-3.23-3.41c-2.79-1-4.52-2.43-4.52-4.85 0-2.66 2.21-4.64 5.54-4.64a7.66 7.66 0 0 1 3.78.84l-.61 1.8a6.72 6.72 0 0 0-3.25-.81c-2.33 0-3.22 1.39-3.22 2.56 0 1.6 1 2.39 3.4 3.3 2.9 1.12 4.37 2.51 4.37 5s-2 4.92-6 4.92a8.84 8.84 0 0 1-4.37-1.09zM672.5 185.86l7.08-18.41h1.73l-7.11 18.41zM691.16 169v3.53h3.2v1.7h-3.2v6.63c0 1.52.43 2.39 1.67 2.39a4.76 4.76 0 0 0 1.3-.16l.1 1.68a5.44 5.44 0 0 1-2 .3 3.09 3.09 0 0 1-2.41-.94A4.51 4.51 0 0 1 689 181v-6.71h-1.9v-1.7h1.9v-2.94zM696.87 166.81h2.23v7.67a4.23 4.23 0 0 1 1.6-1.57 4.62 4.62 0 0 1 2.29-.64c1.65 0 4.29 1 4.29 5.26v7.31h-2.24v-7.06c0-2-.73-3.65-2.84-3.65a3.21 3.21 0 0 0-3 2.23 2.82 2.82 0 0 0-.15 1.07v7.41h-2.23zM712.2 179.1c0 3 2 4.27 4.22 4.27a8 8 0 0 0 3.4-.64l.38 1.6a9.89 9.89 0 0 1-4.09.76c-3.78 0-6-2.48-6-6.19s2.18-6.63 5.76-6.63c4 0 5.08 3.53 5.08 5.79a10 10 0 0 1-.07 1zm6.55-1.6c0-1.42-.58-3.63-3.09-3.63-2.26 0-3.25 2.08-3.43 3.63zM723.68 176.39c0-1.45 0-2.7-.1-3.84h1.95l.08 2.41h.1a3.68 3.68 0 0 1 3.4-2.69 2.49 2.49 0 0 1 .64.08v2.11a2.91 2.91 0 0 0-.76-.08 3.13 3.13 0 0 0-3 2.87 6.33 6.33 0 0 0-.1 1v6.55h-2.21zM732.08 175.88c0-1.27 0-2.31-.1-3.33h2l.1 2h.07a4.24 4.24 0 0 1 3.86-2.26 3.63 3.63 0 0 1 3.48 2.46 5.16 5.16 0 0 1 1.37-1.59 4.2 4.2 0 0 1 2.72-.87c1.62 0 4 1.07 4 5.33v7.24h-2.19v-7c0-2.36-.86-3.78-2.66-3.78a2.89 2.89 0 0 0-2.64 2 3.46 3.46 0 0 0-.18 1.12v7.59h-2.18v-7.36c0-2-.87-3.38-2.57-3.38a3.06 3.06 0 0 0-2.77 2.23 3.29 3.29 0 0 0-.17 1.1v7.41h-2.19zM760.06 184.84l-.18-1.55h-.07a4.58 4.58 0 0 1-3.76 1.83 3.5 3.5 0 0 1-3.76-3.53c0-3 2.64-4.6 7.39-4.57v-.25a2.54 2.54 0 0 0-2.79-2.85 6.09 6.09 0 0 0-3.2.92l-.51-1.48a7.65 7.65 0 0 1 4-1.09c3.75 0 4.67 2.57 4.67 5v4.59a17.62 17.62 0 0 0 .2 3zm-.33-6.27c-2.44 0-5.2.38-5.2 2.77a2 2 0 0 0 2.1 2.13 3.05 3.05 0 0 0 3-2.06 2.22 2.22 0 0 0 .13-.71zM765.49 166.81h2.24v18h-2.24zM770.14 187.91a17.18 17.18 0 0 0 3.2-10.38 16.8 16.8 0 0 0-3.2-10.31h1.73a16.19 16.19 0 0 1 3.32 10.33 16.51 16.51 0 0 1-3.32 10.36zM123.51 377a14.33 14.33 0 0 1-5.89 1c-7.24 0-11.64-4.54-11.64-11.47 0-7.52 5.21-12.05 12.19-12.05a13.14 13.14 0 0 1 5.55 1l-.92 3.32a11.13 11.13 0 0 0-4.47-.88c-4.63 0-8 2.91-8 8.39 0 5 2.94 8.23 8 8.23a11.67 11.67 0 0 0 4.54-.85zM142 369.32c0 6.06-4.26 8.76-8.46 8.76-4.67 0-8.26-3.21-8.26-8.49s3.56-8.73 8.53-8.73 8.19 3.45 8.19 8.46zm-12.42.17c0 3.18 1.56 5.58 4.09 5.58 2.37 0 4-2.33 4-5.65 0-2.57-1.15-5.52-4-5.52s-4.06 2.85-4.06 5.59zM145.25 373.89a9.36 9.36 0 0 0 4.23 1.18c1.83 0 2.64-.74 2.64-1.83s-.68-1.69-2.71-2.4c-3.21-1.12-4.57-2.88-4.53-4.8 0-2.92 2.4-5.18 6.22-5.18a9.67 9.67 0 0 1 4.37 1l-.81 2.94a7.48 7.48 0 0 0-3.49-.94c-1.49 0-2.3.71-2.3 1.72s.78 1.56 2.88 2.3c3 1.09 4.36 2.61 4.4 5.05 0 3-2.34 5.14-6.7 5.14a10.6 10.6 0 0 1-5-1.15zM164.34 356.52v4.71h4v3.11h-4v7.28c0 2 .54 3.05 2.13 3.05a6.27 6.27 0 0 0 1.63-.21l.06 3.18a9 9 0 0 1-3 .41 4.86 4.86 0 0 1-3.59-1.35c-.88-.95-1.28-2.44-1.28-4.61v-7.75h-2.37v-3.11h2.37v-3.72zM67.8 400.39c0-2.23 0-3.82-.14-5.31h3.62l.14 3.15h.14a4.91 4.91 0 0 1 4.5-3.52 4.28 4.28 0 0 1 1 .1v3.93a5.62 5.62 0 0 0-1.22-.14 3.67 3.67 0 0 0-3.72 3.15A6.86 6.86 0 0 0 72 403v8.53h-4.2zM82.49 404.49c.1 3 2.44 4.26 5.08 4.26a12.45 12.45 0 0 0 4.56-.74l.61 2.88a15.61 15.61 0 0 1-5.75 1c-5.35 0-8.49-3.28-8.49-8.32 0-4.57 2.77-8.87 8-8.87s7.11 4.4 7.11 8a9.88 9.88 0 0 1-.14 1.76zm7.24-2.91c0-1.52-.64-4-3.42-4-2.57 0-3.65 2.34-3.82 4zM112.21 387.53v19.4c0 1.69.07 3.52.13 4.63h-3.72l-.17-2.6h-.07a5.93 5.93 0 0 1-5.38 3c-3.92 0-7-3.35-7-8.42 0-5.52 3.42-8.8 7.38-8.8a5.28 5.28 0 0 1 4.64 2.16H108v-9.34zM108 402a5.64 5.64 0 0 0-.1-1.08 3.64 3.64 0 0 0-3.58-2.95c-2.68 0-4.17 2.37-4.17 5.45s1.49 5.21 4.13 5.21a3.68 3.68 0 0 0 3.59-2.94 4.71 4.71 0 0 0 .13-1.22zM131.44 406.62c0 2 .06 3.59.13 4.94h-3.65l-.21-2.5h-.06a6 6 0 0 1-5.28 2.87c-3 0-5.76-1.79-5.76-7.17v-9.68h4.17v9c0 2.74.88 4.5 3.07 4.5a3.51 3.51 0 0 0 3.19-2.23 4 4 0 0 0 .23-1.29v-9.95h4.17zM148.06 411.05a12 12 0 0 1-4.67.85c-5.15 0-8.5-3.28-8.5-8.39 0-4.94 3.39-8.8 9.17-8.8a10.38 10.38 0 0 1 4 .78l-.74 3.11a7.43 7.43 0 0 0-3.15-.64c-3.18 0-5.08 2.33-5 5.34 0 3.39 2.2 5.32 5 5.32a8.1 8.1 0 0 0 3.28-.65zM156.42 390.38v4.7h4v3.11h-4v7.28c0 2 .54 3 2.13 3a6.27 6.27 0 0 0 1.63-.21l.06 3.18a9 9 0 0 1-3 .41 4.86 4.86 0 0 1-3.59-1.35c-.88-.95-1.28-2.44-1.28-4.61v-7.75H150v-3.11h2.37v-3.72zM168 390.48a2.34 2.34 0 0 1-4.67 0 2.34 2.34 0 0 1 4.67 0zm-4.43 21.08v-16.48h4.2v16.48zM187.86 403.17c0 6.06-4.26 8.76-8.46 8.76-4.67 0-8.25-3.21-8.25-8.49s3.55-8.73 8.52-8.73 8.19 3.45 8.19 8.46zm-12.42.17c0 3.18 1.56 5.58 4.1 5.58 2.37 0 4-2.33 4-5.65 0-2.57-1.15-5.52-4-5.52s-4.1 2.85-4.1 5.59zM191.29 400c0-1.9 0-3.49-.14-4.91h3.66l.2 2.47h.1a6 6 0 0 1 5.25-2.84c2.87 0 5.85 1.86 5.85 7.07v9.78h-4.16v-9.3c0-2.37-.88-4.17-3.15-4.17a3.5 3.5 0 0 0-3.25 2.44 4.38 4.38 0 0 0-.17 1.35v9.68h-4.19zM303.35 277.28a10.91 10.91 0 0 1-4.52.81c-4.82 0-8.45-3-8.45-8.65 0-5.36 3.63-9 8.94-9a9.12 9.12 0 0 1 4.06.76l-.54 1.8a8.1 8.1 0 0 0-3.45-.71c-4 0-6.68 2.57-6.68 7.06 0 4.19 2.42 6.88 6.58 6.88a8.88 8.88 0 0 0 3.61-.71zM306 259.81h2.24v18H306zM323.15 271.59c0 4.55-3.14 6.53-6.12 6.53-3.32 0-5.89-2.44-5.89-6.32 0-4.12 2.7-6.53 6.1-6.53s5.91 2.57 5.91 6.32zm-9.75.13c0 2.69 1.55 4.72 3.74 4.72s3.73-2 3.73-4.77c0-2.08-1-4.72-3.68-4.72s-3.79 2.44-3.79 4.77zM336.25 274.49c0 1.27 0 2.39.11 3.35h-2l-.13-2h-.05a4.64 4.64 0 0 1-4.06 2.29c-1.93 0-4.24-1.07-4.24-5.38v-7.19h2.23v6.81c0 2.33.71 3.91 2.74 3.91a3.25 3.25 0 0 0 2.95-2 3.4 3.4 0 0 0 .2-1.14v-7.54h2.23zM350.57 259.81v14.86c0 1.09 0 2.33.11 3.17h-2l-.1-2.13h-.05a4.56 4.56 0 0 1-4.19 2.41c-3 0-5.26-2.51-5.26-6.25 0-4.08 2.52-6.6 5.51-6.6a4.12 4.12 0 0 1 3.71 1.88v-7.34zm-2.23 10.74a4.29 4.29 0 0 0-.1-.94A3.29 3.29 0 0 0 345 267c-2.31 0-3.68 2-3.68 4.75 0 2.49 1.22 4.55 3.63 4.55a3.36 3.36 0 0 0 3.28-2.67 4.16 4.16 0 0 0 .1-1zM359.66 268.88c0-1.27 0-2.31-.1-3.33h2l.1 2h.07a4.24 4.24 0 0 1 3.86-2.26 3.63 3.63 0 0 1 3.48 2.46h.05a5.16 5.16 0 0 1 1.37-1.59 4.2 4.2 0 0 1 2.72-.87c1.62 0 4 1.07 4 5.33v7.24H375v-7c0-2.36-.86-3.78-2.66-3.78a2.89 2.89 0 0 0-2.64 2 3.75 3.75 0 0 0-.18 1.12v7.59h-2.18v-7.36c0-2-.87-3.38-2.57-3.38a3.06 3.06 0 0 0-2.77 2.23 3.29 3.29 0 0 0-.17 1.1v7.41h-2.19zM383.32 262.1a1.31 1.31 0 0 1-1.42 1.37 1.33 1.33 0 0 1-1.34-1.37 1.36 1.36 0 0 1 1.39-1.4 1.33 1.33 0 0 1 1.37 1.4zm-2.48 15.74v-12.29h2.23v12.29zM397.36 265.55c-.05.89-.1 1.88-.1 3.38v7.13c0 2.82-.56 4.55-1.75 5.61a6.5 6.5 0 0 1-4.47 1.48 8 8 0 0 1-4.09-1l.56-1.7a6.93 6.93 0 0 0 3.61 1c2.28 0 4-1.19 4-4.29v-1.37H395a4.38 4.38 0 0 1-3.91 2.06c-3.05 0-5.23-2.59-5.23-6 0-4.17 2.71-6.53 5.53-6.53a4.11 4.11 0 0 1 3.84 2.13h.05l.1-1.85zm-2.31 4.85a3.18 3.18 0 0 0-.12-1 3.23 3.23 0 0 0-3.13-2.4c-2.13 0-3.65 1.81-3.65 4.65 0 2.41 1.22 4.42 3.63 4.42a3.28 3.28 0 0 0 3.1-2.29 4.08 4.08 0 0 0 .17-1.19zM400.82 269.39c0-1.45 0-2.7-.11-3.84h2l.07 2.41h.11a3.68 3.68 0 0 1 3.4-2.69 2.41 2.41 0 0 1 .63.08v2.11a2.81 2.81 0 0 0-.76-.08 3.13 3.13 0 0 0-3 2.87 6.26 6.26 0 0 0-.11 1v6.55h-2.2zM415.79 277.84l-.17-1.55h-.08a4.56 4.56 0 0 1-3.76 1.83 3.49 3.49 0 0 1-3.75-3.53c0-3 2.64-4.6 7.38-4.57v-.25a2.54 2.54 0 0 0-2.79-2.85 6.11 6.11 0 0 0-3.2.92l-.51-1.48a7.65 7.65 0 0 1 4-1.09c3.76 0 4.67 2.57 4.67 5v4.59a16.55 16.55 0 0 0 .21 2.95zm-.33-6.27c-2.43-.05-5.2.38-5.2 2.77a2 2 0 0 0 2.11 2.13 3.06 3.06 0 0 0 3-2.06 2.52 2.52 0 0 0 .12-.71zM423.82 262v3.53H427v1.7h-3.2v6.63c0 1.52.43 2.39 1.67 2.39a4.76 4.76 0 0 0 1.3-.16l.1 1.68a5.44 5.44 0 0 1-2 .3 3.09 3.09 0 0 1-2.41-.94 4.51 4.51 0 0 1-.87-3.19v-6.71h-1.9v-1.7h1.9v-2.94zM432 262.1a1.39 1.39 0 0 1-2.77 0 1.36 1.36 0 0 1 1.4-1.4 1.33 1.33 0 0 1 1.37 1.4zm-2.49 15.74v-12.29h2.23v12.29zM446.59 271.59c0 4.55-3.15 6.53-6.12 6.53-3.32 0-5.89-2.44-5.89-6.32 0-4.12 2.69-6.53 6.09-6.53s5.92 2.57 5.92 6.32zm-9.75.13c0 2.69 1.55 4.72 3.73 4.72s3.74-2 3.74-4.77c0-2.08-1.05-4.72-3.69-4.72s-3.78 2.44-3.78 4.77zM449.41 268.88c0-1.27 0-2.31-.1-3.33h2l.12 2a4.53 4.53 0 0 1 4.07-2.31c1.7 0 4.34 1 4.34 5.23v7.34h-2.24v-7.08c0-2-.73-3.63-2.84-3.63a3.19 3.19 0 0 0-3 2.28 3.26 3.26 0 0 0-.15 1v7.39h-2.23zM293.6 304.73v7.16h8.28v-7.16h2.23v17.11h-2.23v-8h-8.28v8h-2.21v-17.11zM314.67 321.84l-.17-1.55h-.08a4.56 4.56 0 0 1-3.76 1.83 3.49 3.49 0 0 1-3.75-3.53c0-3 2.64-4.6 7.38-4.57v-.25a2.54 2.54 0 0 0-2.79-2.85 6.11 6.11 0 0 0-3.2.92l-.51-1.48a7.65 7.65 0 0 1 4-1.09c3.76 0 4.67 2.57 4.67 5v4.59a16.55 16.55 0 0 0 .21 2.95zm-.33-6.27c-2.43-.05-5.2.38-5.2 2.77a2 2 0 0 0 2.11 2.13 3.06 3.06 0 0 0 3-2.06 2.52 2.52 0 0 0 .12-.71zM320.11 313.39c0-1.45 0-2.7-.1-3.84H322V312h.1a3.68 3.68 0 0 1 3.4-2.69 2.55 2.55 0 0 1 .64.08v2.11a2.94 2.94 0 0 0-.77-.08 3.13 3.13 0 0 0-3 2.87 6.33 6.33 0 0 0-.1 1v6.55h-2.21zM338.77 303.81v14.86c0 1.09 0 2.33.1 3.17h-2l-.1-2.13h-.05a4.54 4.54 0 0 1-4.19 2.41c-3 0-5.25-2.51-5.25-6.25 0-4.08 2.51-6.6 5.51-6.6a4.1 4.1 0 0 1 3.7 1.88v-7.34zm-2.24 10.74a3.76 3.76 0 0 0-.1-.94 3.29 3.29 0 0 0-3.22-2.59c-2.31 0-3.68 2-3.68 4.75 0 2.49 1.21 4.55 3.63 4.55a3.35 3.35 0 0 0 3.27-2.67 3.68 3.68 0 0 0 .1-1zM343.36 309.55l1.64 6.25c.35 1.37.68 2.64.91 3.91h.09c.28-1.25.68-2.57 1.09-3.89l2-6.27H351l1.91 6.15c.46 1.47.81 2.76 1.09 4a35.29 35.29 0 0 1 .94-4l1.75-6.17h2.21l-4 12.29h-2l-1.84-5.82a39.74 39.74 0 0 1-1.1-4 35.82 35.82 0 0 1-1.16 4l-2 5.84h-2l-3.7-12.29zM367.86 321.84l-.17-1.55h-.08a4.58 4.58 0 0 1-3.76 1.83 3.5 3.5 0 0 1-3.76-3.53c0-3 2.64-4.6 7.39-4.57v-.25a2.54 2.54 0 0 0-2.79-2.85 6.11 6.11 0 0 0-3.2.92l-.51-1.48a7.65 7.65 0 0 1 4-1.09c3.76 0 4.67 2.57 4.67 5v4.59a17.62 17.62 0 0 0 .2 2.95zm-.33-6.27c-2.43-.05-5.2.38-5.2 2.77a2 2 0 0 0 2.11 2.13 3.07 3.07 0 0 0 3-2.06 2.52 2.52 0 0 0 .12-.71zM373.3 313.39c0-1.45 0-2.7-.11-3.84h2l.08 2.41h.1a3.68 3.68 0 0 1 3.4-2.69 2.41 2.41 0 0 1 .63.08v2.11a2.81 2.81 0 0 0-.76-.08 3.13 3.13 0 0 0-3 2.87 6.26 6.26 0 0 0-.11 1v6.55h-2.2zM382.59 316.1c.05 3 2 4.27 4.21 4.27a8 8 0 0 0 3.4-.64l.39 1.6a9.93 9.93 0 0 1-4.09.76c-3.79 0-6.05-2.48-6.05-6.19s2.19-6.63 5.77-6.63c4 0 5.08 3.53 5.08 5.79a7.43 7.43 0 0 1-.08 1zm6.55-1.6c0-1.42-.59-3.63-3.1-3.63-2.26 0-3.25 2.08-3.43 3.63zM397.57 322.86l7.08-18.41h1.73l-7.11 18.41zM413.53 313.56c0-1.57 0-2.84-.1-4h2l.1 2.11a4.84 4.84 0 0 1 4.37-2.39c3 0 5.2 2.52 5.2 6.25 0 4.42-2.69 6.6-5.58 6.6a4.32 4.32 0 0 1-3.79-1.93h-.05v6.68h-2.21zm2.21 3.28a4.28 4.28 0 0 0 .11.91 3.44 3.44 0 0 0 3.35 2.62c2.36 0 3.73-1.93 3.73-4.75 0-2.46-1.3-4.57-3.66-4.57a3.56 3.56 0 0 0-3.37 2.77 3.47 3.47 0 0 0-.16.91zM428 313.39c0-1.45 0-2.7-.1-3.84h1.95l.08 2.41h.1a3.69 3.69 0 0 1 3.4-2.69 2.43 2.43 0 0 1 .64.08v2.11a2.91 2.91 0 0 0-.76-.08 3.13 3.13 0 0 0-3 2.87 6.33 6.33 0 0 0-.1 1v6.55H428zM447.15 315.59c0 4.55-3.15 6.53-6.12 6.53-3.33 0-5.89-2.44-5.89-6.32 0-4.12 2.69-6.53 6.09-6.53s5.92 2.57 5.92 6.32zm-9.75.13c0 2.69 1.55 4.72 3.73 4.72s3.74-2 3.74-4.77c0-2.08-1.05-4.72-3.69-4.72s-3.78 2.44-3.78 4.77zM460.58 303.81v14.86c0 1.09 0 2.33.1 3.17h-2l-.1-2.13h-.06a4.54 4.54 0 0 1-4.19 2.41c-3 0-5.25-2.51-5.25-6.25 0-4.08 2.51-6.6 5.51-6.6a4.12 4.12 0 0 1 3.71 1.88h.05v-7.34zm-2.23 10.74a3.77 3.77 0 0 0-.11-.94A3.28 3.28 0 0 0 455 311c-2.31 0-3.68 2-3.68 4.75 0 2.49 1.22 4.55 3.63 4.55a3.35 3.35 0 0 0 3.27-2.67 3.67 3.67 0 0 0 .11-1zM474.57 318.49c0 1.27 0 2.39.1 3.35h-2l-.13-2h-.05a4.62 4.62 0 0 1-4.06 2.29c-1.93 0-4.24-1.07-4.24-5.38v-7.19h2.24v6.81c0 2.33.71 3.91 2.74 3.91a3.22 3.22 0 0 0 2.94-2 3.17 3.17 0 0 0 .21-1.14v-7.54h2.23zM487 321.38a8.18 8.18 0 0 1-3.53.71c-3.71 0-6.12-2.51-6.12-6.27a6.24 6.24 0 0 1 6.6-6.52 7.57 7.57 0 0 1 3.1.63l-.51 1.73a5.1 5.1 0 0 0-2.59-.59c-2.82 0-4.34 2.09-4.34 4.65 0 2.84 1.83 4.6 4.26 4.6a6.39 6.39 0 0 0 2.75-.61zM492.67 306v3.53h3.2v1.7h-3.2v6.63c0 1.52.43 2.39 1.68 2.39a4.73 4.73 0 0 0 1.29-.16l.1 1.68a5.4 5.4 0 0 1-2 .3 3.09 3.09 0 0 1-2.41-.94 4.56 4.56 0 0 1-.86-3.19v-6.71h-1.91v-1.7h1.91v-2.94zM514.89 315.59c0 4.55-3.15 6.53-6.12 6.53-3.33 0-5.89-2.44-5.89-6.32 0-4.12 2.69-6.53 6.09-6.53s5.92 2.57 5.92 6.32zm-9.75.13c0 2.69 1.54 4.72 3.73 4.72s3.73-2 3.73-4.77c0-2.08-1-4.72-3.68-4.72s-3.78 2.44-3.78 4.77zM517.7 313.56c0-1.57-.05-2.84-.1-4h2l.1 2.11a4.83 4.83 0 0 1 4.37-2.39c3 0 5.2 2.52 5.2 6.25 0 4.42-2.69 6.6-5.58 6.6a4.32 4.32 0 0 1-3.79-1.93h-.05v6.68h-2.15zm2.21 3.28a5.07 5.07 0 0 0 .1.91 3.46 3.46 0 0 0 3.36 2.62c2.36 0 3.73-1.93 3.73-4.75 0-2.46-1.3-4.57-3.66-4.57a3.58 3.58 0 0 0-3.38 2.77 3.93 3.93 0 0 0-.15.91zM534.84 306v3.53H538v1.7h-3.2v6.63c0 1.52.43 2.39 1.68 2.39a4.73 4.73 0 0 0 1.29-.16l.1 1.68a5.44 5.44 0 0 1-2 .3 3.09 3.09 0 0 1-2.41-.94 4.51 4.51 0 0 1-.86-3.19v-6.71h-1.91v-1.7h1.91v-2.94zM543 306.1a1.31 1.31 0 0 1-1.42 1.37 1.33 1.33 0 0 1-1.35-1.37 1.37 1.37 0 0 1 1.4-1.4 1.33 1.33 0 0 1 1.37 1.4zm-2.49 15.74v-12.29h2.24v12.29zM546.49 312.88c0-1.27 0-2.31-.1-3.33h2l.1 2h.07a4.24 4.24 0 0 1 3.86-2.26 3.63 3.63 0 0 1 3.48 2.46 5.16 5.16 0 0 1 1.37-1.59 4.2 4.2 0 0 1 2.72-.87c1.62 0 4 1.07 4 5.33v7.24h-2.19v-7c0-2.36-.86-3.78-2.66-3.78a2.89 2.89 0 0 0-2.64 2 3.75 3.75 0 0 0-.18 1.12v7.59h-2.18v-7.36c0-2-.87-3.38-2.57-3.38a3.06 3.06 0 0 0-2.77 2.23 3.29 3.29 0 0 0-.17 1.1v7.41h-2.19zM570.15 306.1a1.31 1.31 0 0 1-1.42 1.37 1.33 1.33 0 0 1-1.34-1.37 1.36 1.36 0 0 1 1.39-1.4 1.33 1.33 0 0 1 1.37 1.4zm-2.48 15.74v-12.29h2.23v12.29zM572.21 320.55l5.56-7.24c.53-.66 1-1.25 1.6-1.91h-6.65v-1.8h9.37v1.4l-5.48 7.13c-.51.69-1 1.3-1.58 1.93v.05h7.19v1.78h-10zM591.28 321.84l-.18-1.55h-.1a4.54 4.54 0 0 1-3.75 1.83 3.5 3.5 0 0 1-3.76-3.53c0-3 2.64-4.6 7.39-4.57v-.25a2.54 2.54 0 0 0-2.8-2.85 6.14 6.14 0 0 0-3.2.92l-.5-1.48a7.58 7.58 0 0 1 4-1.09c3.76 0 4.68 2.57 4.68 5v4.59a17.62 17.62 0 0 0 .2 2.95zm-.33-6.27c-2.44-.05-5.21.38-5.21 2.77a2 2 0 0 0 2.11 2.13 3.06 3.06 0 0 0 3-2.06 2.22 2.22 0 0 0 .13-.71zM599.3 306v3.53h3.2v1.7h-3.2v6.63c0 1.52.43 2.39 1.68 2.39a4.73 4.73 0 0 0 1.29-.16l.1 1.68a5.44 5.44 0 0 1-2 .3 3.09 3.09 0 0 1-2.41-.94 4.51 4.51 0 0 1-.86-3.19v-6.71h-1.91v-1.7h1.91v-2.94zM607.5 306.1a1.31 1.31 0 0 1-1.42 1.37 1.33 1.33 0 0 1-1.35-1.37 1.37 1.37 0 0 1 1.4-1.4 1.33 1.33 0 0 1 1.37 1.4zm-2.5 15.74v-12.29h2.24v12.29zM622.07 315.59c0 4.55-3.15 6.53-6.12 6.53-3.32 0-5.89-2.44-5.89-6.32 0-4.12 2.69-6.53 6.1-6.53s5.91 2.57 5.91 6.32zm-9.75.13c0 2.69 1.55 4.72 3.74 4.72s3.73-2 3.73-4.77c0-2.08-1-4.72-3.68-4.72s-3.79 2.44-3.79 4.77zM624.89 312.88c0-1.27 0-2.31-.1-3.33h2l.13 2h.08a4.51 4.51 0 0 1 4.06-2.31c1.7 0 4.34 1 4.34 5.23v7.34h-2.23v-7.08c0-2-.74-3.63-2.85-3.63a3.17 3.17 0 0 0-3 2.28 3.25 3.25 0 0 0-.16 1v7.39h-2.23zM291.09 363.15a7.83 7.83 0 0 0 4 1.12c2.26 0 3.58-1.2 3.58-2.92s-.91-2.52-3.22-3.41c-2.8-1-4.52-2.43-4.52-4.85 0-2.66 2.2-4.64 5.53-4.64a7.66 7.66 0 0 1 3.78.84l-.61 1.8a6.72 6.72 0 0 0-3.25-.81c-2.33 0-3.22 1.39-3.22 2.56 0 1.6 1 2.39 3.4 3.3 2.9 1.12 4.37 2.51 4.37 5s-2 4.92-6 4.92a8.84 8.84 0 0 1-4.37-1.09zM305.23 360.1c0 3 2 4.27 4.22 4.27a8 8 0 0 0 3.4-.64l.38 1.6a9.89 9.89 0 0 1-4.09.76c-3.78 0-6-2.48-6-6.19s2.18-6.63 5.76-6.63c4 0 5.08 3.53 5.08 5.79a7.43 7.43 0 0 1-.08 1zm6.55-1.6c0-1.42-.58-3.63-3.1-3.63-2.26 0-3.25 2.08-3.42 3.63zM316.71 357.39c0-1.45 0-2.7-.11-3.84h2l.08 2.41h.1a3.68 3.68 0 0 1 3.4-2.69 2.41 2.41 0 0 1 .63.08v2.11a2.81 2.81 0 0 0-.76-.08 3.13 3.13 0 0 0-3 2.87 6.26 6.26 0 0 0-.11 1v6.55h-2.2zM326.51 353.55l2.41 6.91c.4 1.11.73 2.13 1 3.15h.08c.28-1 .64-2 1-3.15l2.38-6.91h2.34l-4.83 12.29h-2.13l-4.67-12.29zM338.84 360.1c.06 3 2 4.27 4.22 4.27a8 8 0 0 0 3.4-.64l.38 1.6a9.85 9.85 0 0 1-4.09.76c-3.78 0-6-2.48-6-6.19s2.19-6.63 5.77-6.63c4 0 5.07 3.53 5.07 5.79a10 10 0 0 1-.07 1zm6.56-1.6c0-1.42-.59-3.63-3.1-3.63-2.26 0-3.25 2.08-3.43 3.63zM350.32 357.39c0-1.45 0-2.7-.1-3.84h1.95l.08 2.41h.1a3.69 3.69 0 0 1 3.4-2.69 2.43 2.43 0 0 1 .64.08v2.11a2.91 2.91 0 0 0-.76-.08 3.13 3.13 0 0 0-3 2.87 6.33 6.33 0 0 0-.1 1v6.55h-2.21zM370.81 365.84l-.18-1.55h-.08a4.54 4.54 0 0 1-3.75 1.83 3.5 3.5 0 0 1-3.76-3.53c0-3 2.64-4.6 7.39-4.57v-.25a2.54 2.54 0 0 0-2.8-2.85 6.08 6.08 0 0 0-3.19.92l-.51-1.48a7.61 7.61 0 0 1 4-1.09c3.76 0 4.68 2.57 4.68 5v4.59a17.62 17.62 0 0 0 .2 2.95zm-.33-6.27c-2.44-.05-5.21.38-5.21 2.77a2 2 0 0 0 2.11 2.13 3.05 3.05 0 0 0 3-2.06 2.22 2.22 0 0 0 .13-.71zM376.24 356.88c0-1.27 0-2.31-.1-3.33h2l.13 2h.05a4.51 4.51 0 0 1 4.06-2.31c1.7 0 4.34 1 4.34 5.23v7.34h-2.23v-7.08c0-2-.74-3.63-2.85-3.63a3.17 3.17 0 0 0-3 2.28 3.26 3.26 0 0 0-.15 1v7.39h-2.24zM401 347.81v14.86c0 1.09 0 2.33.1 3.17h-2l-.1-2.13h-.05a4.56 4.56 0 0 1-4.19 2.41c-3 0-5.26-2.51-5.26-6.25 0-4.08 2.52-6.6 5.51-6.6a4.12 4.12 0 0 1 3.71 1.88v-7.34zm-2.24 10.74a3.76 3.76 0 0 0-.1-.94 3.29 3.29 0 0 0-3.23-2.59c-2.31 0-3.68 2-3.68 4.75 0 2.49 1.22 4.55 3.63 4.55a3.36 3.36 0 0 0 3.28-2.67 3.68 3.68 0 0 0 .1-1zM410 347.81h2.24v18H410zM418.51 350.1a1.31 1.31 0 0 1-1.42 1.37 1.33 1.33 0 0 1-1.35-1.37 1.37 1.37 0 0 1 1.4-1.4 1.33 1.33 0 0 1 1.37 1.4zM416 365.84v-12.29h2.24v12.29zM430.72 365.38a8.09 8.09 0 0 1-3.52.71c-3.71 0-6.12-2.51-6.12-6.27a6.24 6.24 0 0 1 6.6-6.52 7.57 7.57 0 0 1 3.1.63l-.51 1.73a5.13 5.13 0 0 0-2.59-.59c-2.82 0-4.34 2.09-4.34 4.65 0 2.84 1.82 4.6 4.26 4.6a6.31 6.31 0 0 0 2.74-.61zM434.43 360.1c.05 3 2 4.27 4.22 4.27a8 8 0 0 0 3.4-.64l.38 1.6a9.89 9.89 0 0 1-4.09.76c-3.78 0-6-2.48-6-6.19s2.18-6.63 5.76-6.63c4 0 5.08 3.53 5.08 5.79a7.43 7.43 0 0 1-.08 1zm6.55-1.6c0-1.42-.58-3.63-3.1-3.63-2.26 0-3.25 2.08-3.42 3.63zM445.91 356.88c0-1.27 0-2.31-.11-3.33h2l.13 2a4.52 4.52 0 0 1 4.07-2.31c1.7 0 4.34 1 4.34 5.23v7.34h-2.24v-7.08c0-2-.73-3.63-2.84-3.63a3.18 3.18 0 0 0-3 2.28 3.26 3.26 0 0 0-.15 1v7.39h-2.23zM459.69 363.56a5.88 5.88 0 0 0 2.95.88c1.62 0 2.38-.81 2.38-1.82s-.63-1.65-2.28-2.26c-2.21-.79-3.25-2-3.25-3.48 0-2 1.6-3.61 4.24-3.61a6.19 6.19 0 0 1 3 .76l-.56 1.63a4.72 4.72 0 0 0-2.51-.71c-1.32 0-2.06.76-2.06 1.67s.74 1.48 2.34 2.09c2.13.81 3.22 1.87 3.22 3.7 0 2.16-1.67 3.68-4.59 3.68a7.13 7.13 0 0 1-3.46-.83zM471.29 360.1c.06 3 2 4.27 4.22 4.27a8 8 0 0 0 3.4-.64l.38 1.6a9.85 9.85 0 0 1-4.09.76c-3.78 0-6-2.48-6-6.19s2.19-6.63 5.77-6.63c4 0 5.07 3.53 5.07 5.79a10 10 0 0 1-.07 1zm6.56-1.6c0-1.42-.59-3.63-3.1-3.63-2.26 0-3.25 2.08-3.43 3.63zM496.91 365.38a8.14 8.14 0 0 1-3.53.71c-3.7 0-6.12-2.51-6.12-6.27a6.24 6.24 0 0 1 6.61-6.52 7.52 7.52 0 0 1 3.09.63l-.51 1.73a5.09 5.09 0 0 0-2.58-.59c-2.82 0-4.35 2.09-4.35 4.65 0 2.84 1.83 4.6 4.27 4.6a6.31 6.31 0 0 0 2.74-.61zM510.49 359.59c0 4.55-3.14 6.53-6.11 6.53-3.33 0-5.89-2.44-5.89-6.32 0-4.12 2.69-6.53 6.09-6.53s5.91 2.57 5.91 6.32zm-9.75.13c0 2.69 1.55 4.72 3.74 4.72s3.73-2 3.73-4.77c0-2.08-1-4.72-3.68-4.72s-3.79 2.44-3.79 4.77zM513.31 356.88c0-1.27 0-2.31-.1-3.33h2l.13 2a4.51 4.51 0 0 1 4.06-2.31c1.7 0 4.34 1 4.34 5.23v7.34h-2.23v-7.08c0-2-.74-3.63-2.84-3.63a3.17 3.17 0 0 0-3 2.28 3.26 3.26 0 0 0-.15 1v7.39h-2.24zM527.1 363.56a5.87 5.87 0 0 0 2.94.88c1.63 0 2.39-.81 2.39-1.82s-.63-1.65-2.28-2.26c-2.21-.79-3.25-2-3.25-3.48 0-2 1.59-3.61 4.24-3.61a6.22 6.22 0 0 1 3 .76l-.56 1.63a4.73 4.73 0 0 0-2.52-.71c-1.32 0-2.05.76-2.05 1.67s.73 1.48 2.33 2.09c2.14.81 3.23 1.87 3.23 3.7 0 2.16-1.68 3.68-4.6 3.68a7.09 7.09 0 0 1-3.45-.83zM548.58 359.59c0 4.55-3.15 6.53-6.12 6.53-3.33 0-5.89-2.44-5.89-6.32 0-4.12 2.69-6.53 6.09-6.53s5.92 2.57 5.92 6.32zm-9.75.13c0 2.69 1.55 4.72 3.73 4.72s3.73-2 3.73-4.77c0-2.08-1-4.72-3.68-4.72s-3.78 2.44-3.78 4.77zM551.4 347.81h2.23v18h-2.23zM559.87 350.1a1.31 1.31 0 0 1-1.42 1.37 1.33 1.33 0 0 1-1.34-1.37 1.36 1.36 0 0 1 1.39-1.4 1.33 1.33 0 0 1 1.37 1.4zm-2.48 15.74v-12.29h2.23v12.29zM573.94 347.81v14.86c0 1.09 0 2.33.1 3.17h-2l-.11-2.13a4.54 4.54 0 0 1-4.19 2.41c-3 0-5.25-2.51-5.25-6.25 0-4.08 2.51-6.6 5.51-6.6a4.12 4.12 0 0 1 3.71 1.88h.05v-7.34zm-2.23 10.74a3.77 3.77 0 0 0-.11-.94 3.28 3.28 0 0 0-3.22-2.59c-2.31 0-3.68 2-3.68 4.75 0 2.49 1.22 4.55 3.63 4.55a3.35 3.35 0 0 0 3.27-2.67 3.67 3.67 0 0 0 .11-1zM584.45 365.84l-.18-1.55h-.07a4.58 4.58 0 0 1-3.76 1.83 3.5 3.5 0 0 1-3.76-3.53c0-3 2.64-4.6 7.39-4.57v-.25a2.54 2.54 0 0 0-2.79-2.85 6.09 6.09 0 0 0-3.2.92l-.51-1.48a7.65 7.65 0 0 1 4-1.09c3.76 0 4.67 2.57 4.67 5v4.59a17.62 17.62 0 0 0 .2 2.95zm-.33-6.27c-2.44-.05-5.2.38-5.2 2.77a2 2 0 0 0 2.1 2.13 3.05 3.05 0 0 0 3-2.06 2.22 2.22 0 0 0 .13-.71zM592.47 350v3.53h3.2v1.7h-3.2v6.63c0 1.52.44 2.39 1.68 2.39a4.73 4.73 0 0 0 1.29-.16l.11 1.68a5.48 5.48 0 0 1-2 .3 3.11 3.11 0 0 1-2.42-.94 4.56 4.56 0 0 1-.86-3.19v-6.71h-1.9v-1.7h1.9v-2.94zM600.67 350.1a1.38 1.38 0 0 1-2.76 0 1.36 1.36 0 0 1 1.39-1.4 1.33 1.33 0 0 1 1.37 1.4zm-2.48 15.74v-12.29h2.23v12.29zM615.25 359.59c0 4.55-3.15 6.53-6.12 6.53-3.33 0-5.89-2.44-5.89-6.32 0-4.12 2.69-6.53 6.09-6.53s5.92 2.57 5.92 6.32zm-9.75.13c0 2.69 1.55 4.72 3.73 4.72s3.73-2 3.73-4.77c0-2.08-1-4.72-3.68-4.72s-3.78 2.44-3.78 4.77zM618.06 356.88c0-1.27 0-2.31-.1-3.33h2l.13 2a4.51 4.51 0 0 1 4.06-2.31c1.7 0 4.35 1 4.35 5.23v7.34h-2.24v-7.08c0-2-.74-3.63-2.84-3.63a3.17 3.17 0 0 0-3 2.28 3.26 3.26 0 0 0-.15 1v7.39h-2.24zM294.16 404.46l-1.78 5.38h-2.28l5.81-17.11h2.67l5.84 17.11h-2.36l-1.83-5.38zm5.61-1.73l-1.67-4.92c-.38-1.12-.64-2.14-.89-3.13-.26 1-.54 2.06-.87 3.1l-1.67 5zM306.78 401.39c0-1.45 0-2.7-.1-3.84h1.95l.08 2.41h.1a3.68 3.68 0 0 1 3.4-2.69 2.49 2.49 0 0 1 .64.08v2.11a2.91 2.91 0 0 0-.76-.08 3.13 3.13 0 0 0-3 2.87 6.33 6.33 0 0 0-.1 1v6.55h-2.21zM323.59 409.38a8.18 8.18 0 0 1-3.53.71c-3.71 0-6.12-2.51-6.12-6.27a6.24 6.24 0 0 1 6.6-6.52 7.57 7.57 0 0 1 3.1.63l-.51 1.73a5.1 5.1 0 0 0-2.59-.59c-2.82 0-4.34 2.09-4.34 4.65 0 2.84 1.83 4.6 4.26 4.6a6.39 6.39 0 0 0 2.75-.61zM326.2 391.81h2.24v7.67h.05a4.1 4.1 0 0 1 1.6-1.57 4.59 4.59 0 0 1 2.28-.64c1.65 0 4.29 1 4.29 5.26v7.31h-2.23v-7.06c0-2-.74-3.65-2.85-3.65a3.2 3.2 0 0 0-3 2.23 2.64 2.64 0 0 0-.15 1.07v7.41h-2.23zM342.78 394.1a1.31 1.31 0 0 1-1.42 1.37 1.33 1.33 0 0 1-1.36-1.37 1.37 1.37 0 0 1 1.4-1.4 1.33 1.33 0 0 1 1.38 1.4zm-2.49 15.74v-12.29h2.24v12.29zM348.92 394v3.53h3.2v1.7h-3.2v6.63c0 1.52.44 2.39 1.68 2.39a4.67 4.67 0 0 0 1.29-.16l.11 1.68a5.48 5.48 0 0 1-2 .3 3.11 3.11 0 0 1-2.42-.94 4.56 4.56 0 0 1-.86-3.19v-6.71h-1.9v-1.7h1.9v-2.94zM355.73 404.1c0 3 2 4.27 4.21 4.27a8 8 0 0 0 3.41-.64l.38 1.6a9.93 9.93 0 0 1-4.09.76c-3.78 0-6-2.48-6-6.19s2.18-6.63 5.76-6.63c4 0 5.08 3.53 5.08 5.79a7.43 7.43 0 0 1-.08 1zm6.55-1.6c0-1.42-.58-3.63-3.1-3.63-2.26 0-3.25 2.08-3.43 3.63zM376 409.38a8.14 8.14 0 0 1-3.53.71c-3.7 0-6.11-2.51-6.11-6.27a6.24 6.24 0 0 1 6.6-6.52 7.48 7.48 0 0 1 3.09.63l-.5 1.73a5.13 5.13 0 0 0-2.59-.59c-2.82 0-4.34 2.09-4.34 4.65 0 2.84 1.82 4.6 4.26 4.6a6.31 6.31 0 0 0 2.74-.61zM381.6 394v3.53h3.2v1.7h-3.2v6.63c0 1.52.43 2.39 1.67 2.39a4.76 4.76 0 0 0 1.3-.16l.1 1.68a5.44 5.44 0 0 1-2 .3 3.09 3.09 0 0 1-2.41-.94 4.51 4.51 0 0 1-.87-3.19v-6.71h-1.9v-1.7h1.9v-2.94zM397.59 406.49c0 1.27 0 2.39.11 3.35h-2l-.12-2a4.64 4.64 0 0 1-4.07 2.29c-1.93 0-4.24-1.07-4.24-5.38v-7.19h2.24v6.81c0 2.33.71 3.91 2.74 3.91a3.25 3.25 0 0 0 3-2 3.4 3.4 0 0 0 .2-1.14v-7.54h2.23zM401.3 401.39c0-1.45 0-2.7-.1-3.84h1.95l.08 2.41h.1a3.69 3.69 0 0 1 3.4-2.69 2.49 2.49 0 0 1 .64.08v2.11a2.91 2.91 0 0 0-.76-.08 3.13 3.13 0 0 0-3 2.87 6.33 6.33 0 0 0-.1 1v6.55h-2.21zM410.59 404.1c.05 3 2 4.27 4.22 4.27a8 8 0 0 0 3.4-.64l.38 1.6a9.89 9.89 0 0 1-4.09.76c-3.78 0-6-2.48-6-6.19s2.18-6.63 5.76-6.63c4 0 5.08 3.53 5.08 5.79a7.43 7.43 0 0 1-.08 1zm6.55-1.6c0-1.42-.58-3.63-3.1-3.63-2.26 0-3.25 2.08-3.42 3.63zM438.57 403.59c0 4.55-3.15 6.53-6.12 6.53-3.33 0-5.89-2.44-5.89-6.32 0-4.12 2.69-6.53 6.09-6.53s5.92 2.57 5.92 6.32zm-9.75.13c0 2.69 1.55 4.72 3.73 4.72s3.73-2 3.73-4.77c0-2.08-1-4.72-3.68-4.72s-3.78 2.44-3.78 4.77zM441.39 401.56c0-1.57-.05-2.84-.1-4h2l.1 2.11h.05a4.85 4.85 0 0 1 4.37-2.39c3 0 5.21 2.52 5.21 6.25 0 4.42-2.69 6.6-5.59 6.6a4.3 4.3 0 0 1-3.78-1.93v6.68h-2.21zm2.21 3.28a5.07 5.07 0 0 0 .1.91 3.44 3.44 0 0 0 3.35 2.62c2.36 0 3.73-1.93 3.73-4.75 0-2.46-1.29-4.57-3.65-4.57a3.56 3.56 0 0 0-3.38 2.77 3.47 3.47 0 0 0-.15.91zM458.52 394v3.53h3.2v1.7h-3.2v6.63c0 1.52.44 2.39 1.68 2.39a4.67 4.67 0 0 0 1.29-.16l.11 1.68a5.48 5.48 0 0 1-2 .3 3.12 3.12 0 0 1-2.42-.94 4.56 4.56 0 0 1-.86-3.19v-6.71h-1.9v-1.7h1.9v-2.94zM466.72 394.1a1.31 1.31 0 0 1-1.42 1.37 1.33 1.33 0 0 1-1.3-1.37 1.36 1.36 0 0 1 1.39-1.4 1.33 1.33 0 0 1 1.33 1.4zm-2.48 15.74v-12.29h2.23v12.29zM470.18 400.88c0-1.27 0-2.31-.1-3.33H472l.1 2h.08a4.23 4.23 0 0 1 3.86-2.26 3.65 3.65 0 0 1 3.48 2.46h.05a5 5 0 0 1 1.37-1.59 4.17 4.17 0 0 1 2.71-.87c1.63 0 4 1.07 4 5.33v7.24h-2.18v-7c0-2.36-.87-3.78-2.67-3.78a2.89 2.89 0 0 0-2.64 2 3.75 3.75 0 0 0-.18 1.12v7.59h-2.18v-7.36c0-2-.86-3.38-2.56-3.38a3.33 3.33 0 0 0-2.95 3.33v7.41h-2.18zM493.84 394.1a1.39 1.39 0 0 1-2.77 0 1.37 1.37 0 0 1 1.4-1.4 1.33 1.33 0 0 1 1.37 1.4zm-2.49 15.74v-12.29h2.23v12.29zM495.89 408.55l5.56-7.24c.54-.66 1.05-1.25 1.6-1.91h-6.65v-1.8h9.37v1.4l-5.49 7.13c-.51.69-1 1.3-1.57 1.93v.05h7.18v1.78h-10zM515 409.84l-.18-1.55h-.07a4.58 4.58 0 0 1-3.76 1.83 3.5 3.5 0 0 1-3.76-3.53c0-3 2.64-4.6 7.39-4.57v-.25a2.54 2.54 0 0 0-2.79-2.85 6.11 6.11 0 0 0-3.2.92l-.51-1.48a7.65 7.65 0 0 1 4-1.09c3.76 0 4.67 2.57 4.67 5v4.59a17.62 17.62 0 0 0 .2 2.95zm-.33-6.27c-2.44-.05-5.2.38-5.2 2.77a2 2 0 0 0 2.1 2.13 3.05 3.05 0 0 0 3-2.06 2.22 2.22 0 0 0 .13-.71zM523 394v3.53h3.2v1.7H523v6.63c0 1.52.44 2.39 1.68 2.39a4.67 4.67 0 0 0 1.29-.16l.11 1.68a5.48 5.48 0 0 1-2 .3 3.11 3.11 0 0 1-2.42-.94 4.56 4.56 0 0 1-.86-3.19v-6.71h-1.9v-1.7h1.9v-2.94zM531.18 394.1a1.31 1.31 0 0 1-1.42 1.37 1.33 1.33 0 0 1-1.34-1.37 1.36 1.36 0 0 1 1.39-1.4 1.33 1.33 0 0 1 1.37 1.4zm-2.48 15.74v-12.29h2.23v12.29zM545.76 403.59c0 4.55-3.15 6.53-6.12 6.53-3.33 0-5.89-2.44-5.89-6.32 0-4.12 2.69-6.53 6.09-6.53s5.92 2.57 5.92 6.32zm-9.75.13c0 2.69 1.55 4.72 3.73 4.72s3.73-2 3.73-4.77c0-2.08-1-4.72-3.68-4.72s-3.79 2.44-3.79 4.77zM548.58 400.88c0-1.27 0-2.31-.11-3.33h2l.13 2a4.51 4.51 0 0 1 4.06-2.31c1.71 0 4.35 1 4.35 5.23v7.34h-2.21v-7.08c0-2-.73-3.63-2.84-3.63a3.18 3.18 0 0 0-3 2.28 3.26 3.26 0 0 0-.15 1v7.39h-2.23zM574.85 409.84l-.18-1.55h-.07a4.58 4.58 0 0 1-3.76 1.83 3.5 3.5 0 0 1-3.76-3.53c0-3 2.64-4.6 7.39-4.57v-.25a2.54 2.54 0 0 0-2.79-2.85 6.11 6.11 0 0 0-3.2.92l-.51-1.48a7.65 7.65 0 0 1 4-1.09c3.76 0 4.67 2.57 4.67 5v4.59a17.62 17.62 0 0 0 .2 2.95zm-.33-6.27c-2.44-.05-5.2.38-5.2 2.77a2 2 0 0 0 2.1 2.13 3.08 3.08 0 0 0 3-2.06 2.52 2.52 0 0 0 .12-.71zM580.28 400.88c0-1.27 0-2.31-.1-3.33h2l.13 2h.05a4.51 4.51 0 0 1 4.06-2.31c1.71 0 4.35 1 4.35 5.23v7.34h-2.24v-7.08c0-2-.73-3.63-2.84-3.63a3.18 3.18 0 0 0-3 2.28 3.26 3.26 0 0 0-.15 1v7.39h-2.24zM605 391.81v14.86c0 1.09 0 2.33.1 3.17h-2l-.1-2.13h-.05a4.54 4.54 0 0 1-4.19 2.41c-3 0-5.25-2.51-5.25-6.25 0-4.08 2.51-6.6 5.51-6.6a4.09 4.09 0 0 1 3.7 1.88v-7.34zm-2.24 10.74a3.76 3.76 0 0 0-.1-.94 3.29 3.29 0 0 0-3.22-2.59c-2.31 0-3.68 2-3.68 4.75 0 2.49 1.22 4.55 3.63 4.55a3.35 3.35 0 0 0 3.27-2.67 3.68 3.68 0 0 0 .1-1zM620.88 409.84l-.18-1.55h-.07a4.58 4.58 0 0 1-3.76 1.83 3.5 3.5 0 0 1-3.76-3.53c0-3 2.64-4.6 7.39-4.57v-.25a2.54 2.54 0 0 0-2.79-2.85 6.11 6.11 0 0 0-3.2.92l-.51-1.48a7.65 7.65 0 0 1 4-1.09c3.76 0 4.67 2.57 4.67 5v4.59a17.62 17.62 0 0 0 .2 2.95zm-.33-6.27c-2.44-.05-5.2.38-5.2 2.77a2 2 0 0 0 2.1 2.13 3.05 3.05 0 0 0 3-2.06 2.22 2.22 0 0 0 .13-.71zM626.31 401.56c0-1.57 0-2.84-.1-4h2l.1 2.11a4.83 4.83 0 0 1 4.37-2.39c3 0 5.2 2.52 5.2 6.25 0 4.42-2.69 6.6-5.58 6.6a4.32 4.32 0 0 1-3.79-1.93h-.05v6.68h-2.21zm2.21 3.28a5.07 5.07 0 0 0 .1.91 3.46 3.46 0 0 0 3.36 2.62c2.36 0 3.73-1.93 3.73-4.75 0-2.46-1.3-4.57-3.66-4.57a3.56 3.56 0 0 0-3.37 2.77 3.47 3.47 0 0 0-.16.91zM640.76 401.56c0-1.57 0-2.84-.1-4h2l.11 2.11h.05a4.82 4.82 0 0 1 4.36-2.39c3 0 5.21 2.52 5.21 6.25 0 4.42-2.69 6.6-5.59 6.6a4.31 4.31 0 0 1-3.78-1.93v6.68h-2.21zm2.21 3.28a5.07 5.07 0 0 0 .1.91 3.45 3.45 0 0 0 3.35 2.62c2.36 0 3.73-1.93 3.73-4.75 0-2.46-1.29-4.57-3.65-4.57a3.56 3.56 0 0 0-3.38 2.77 3.47 3.47 0 0 0-.15.91zM655.2 391.81h2.24v18h-2.24zM663.68 394.1a1.31 1.31 0 0 1-1.42 1.37 1.33 1.33 0 0 1-1.34-1.37 1.36 1.36 0 0 1 1.39-1.4 1.33 1.33 0 0 1 1.37 1.4zm-2.48 15.74v-12.29h2.23v12.29zM675.9 409.38a8.18 8.18 0 0 1-3.53.71c-3.71 0-6.12-2.51-6.12-6.27a6.24 6.24 0 0 1 6.6-6.52 7.57 7.57 0 0 1 3.1.63l-.51 1.73a5.1 5.1 0 0 0-2.59-.59c-2.82 0-4.34 2.09-4.34 4.65 0 2.84 1.83 4.6 4.26 4.6a6.39 6.39 0 0 0 2.75-.61zM685.32 409.84l-.18-1.55h-.08a4.55 4.55 0 0 1-3.76 1.83 3.5 3.5 0 0 1-3.75-3.53c0-3 2.64-4.6 7.38-4.57v-.25a2.53 2.53 0 0 0-2.79-2.85 6.14 6.14 0 0 0-3.2.92l-.51-1.48a7.65 7.65 0 0 1 4-1.09c3.76 0 4.67 2.57 4.67 5v4.59a16.55 16.55 0 0 0 .21 2.95zm-.33-6.27c-2.44-.05-5.21.38-5.21 2.77a2 2 0 0 0 2.11 2.13 3.06 3.06 0 0 0 3-2.06 2.53 2.53 0 0 0 .13-.71zM693.34 394v3.53h3.2v1.7h-3.2v6.63c0 1.52.43 2.39 1.67 2.39a4.76 4.76 0 0 0 1.3-.16l.1 1.68a5.44 5.44 0 0 1-2 .3 3.09 3.09 0 0 1-2.41-.94 4.51 4.51 0 0 1-.87-3.19v-6.71h-1.9v-1.7h1.9v-2.94zM701.54 394.1a1.39 1.39 0 0 1-2.77 0 1.36 1.36 0 0 1 1.4-1.4 1.33 1.33 0 0 1 1.37 1.4zm-2.49 15.74v-12.29h2.23v12.29zM716.11 403.59c0 4.55-3.15 6.53-6.12 6.53-3.32 0-5.89-2.44-5.89-6.32 0-4.12 2.69-6.53 6.1-6.53s5.91 2.57 5.91 6.32zm-9.75.13c0 2.69 1.55 4.72 3.73 4.72s3.74-2 3.74-4.77c0-2.08-1.05-4.72-3.69-4.72s-3.78 2.44-3.78 4.77zM718.93 400.88c0-1.27 0-2.31-.1-3.33h2l.12 2h.05a4.5 4.5 0 0 1 4.06-2.31c1.7 0 4.34 1 4.34 5.23v7.34h-2.23v-7.08c0-2-.74-3.63-2.85-3.63a3.17 3.17 0 0 0-3 2.28 3 3 0 0 0-.16 1v7.39h-2.23zM738.4 401.39c0-1.45 0-2.7-.1-3.84h2l.08 2.41h.1a3.69 3.69 0 0 1 3.4-2.69 2.43 2.43 0 0 1 .64.08v2.11a2.91 2.91 0 0 0-.76-.08 3.13 3.13 0 0 0-3 2.87 6.33 6.33 0 0 0-.1 1v6.55h-2.26zM753.38 409.84l-.18-1.55h-.07a4.58 4.58 0 0 1-3.76 1.83 3.5 3.5 0 0 1-3.76-3.53c0-3 2.64-4.6 7.39-4.57v-.25a2.54 2.54 0 0 0-2.79-2.85 6.11 6.11 0 0 0-3.2.92l-.51-1.48a7.65 7.65 0 0 1 4-1.09c3.76 0 4.67 2.57 4.67 5v4.59a17.62 17.62 0 0 0 .2 2.95zm-.33-6.27c-2.44-.05-5.2.38-5.2 2.77a2 2 0 0 0 2.1 2.13 3.05 3.05 0 0 0 3-2.06 2.22 2.22 0 0 0 .13-.71zM761.4 394v3.53h3.2v1.7h-3.2v6.63c0 1.52.44 2.39 1.68 2.39a4.67 4.67 0 0 0 1.29-.16l.11 1.68a5.48 5.48 0 0 1-2 .3 3.11 3.11 0 0 1-2.42-.94 4.56 4.56 0 0 1-.86-3.19v-6.71h-1.9v-1.7h1.9v-2.94zM769.6 394.1a1.31 1.31 0 0 1-1.42 1.37 1.33 1.33 0 0 1-1.34-1.37 1.36 1.36 0 0 1 1.39-1.4 1.33 1.33 0 0 1 1.37 1.4zm-2.48 15.74v-12.29h2.23v12.29zM784.18 403.59c0 4.55-3.15 6.53-6.12 6.53-3.33 0-5.89-2.44-5.89-6.32 0-4.12 2.69-6.53 6.09-6.53s5.92 2.57 5.92 6.32zm-9.75.13c0 2.69 1.55 4.72 3.73 4.72s3.73-2 3.73-4.77c0-2.08-1-4.72-3.68-4.72s-3.78 2.44-3.78 4.77zM787 400.88c0-1.27 0-2.31-.1-3.33h2l.13 2a4.51 4.51 0 0 1 4.06-2.31c1.71 0 4.35 1 4.35 5.23v7.34h-2.24v-7.08c0-2-.73-3.63-2.84-3.63a3.18 3.18 0 0 0-3 2.28 3.26 3.26 0 0 0-.15 1v7.39H787zM807.89 409.84l-.18-1.55h-.07a4.58 4.58 0 0 1-3.76 1.83 3.5 3.5 0 0 1-3.76-3.53c0-3 2.64-4.6 7.39-4.57v-.25a2.54 2.54 0 0 0-2.79-2.85 6.09 6.09 0 0 0-3.2.92l-.51-1.48a7.65 7.65 0 0 1 4-1.09c3.75 0 4.67 2.57 4.67 5v4.59a17.62 17.62 0 0 0 .2 2.95zm-.33-6.27c-2.44-.05-5.2.38-5.2 2.77a2 2 0 0 0 2.1 2.13 3.05 3.05 0 0 0 3-2.06 2.22 2.22 0 0 0 .13-.71zM813.32 391.81h2.24v18h-2.24zM821.8 394.1a1.31 1.31 0 0 1-1.42 1.37 1.33 1.33 0 0 1-1.38-1.37 1.37 1.37 0 0 1 1.4-1.4 1.33 1.33 0 0 1 1.4 1.4zm-2.49 15.74v-12.29h2.24v12.29zM823.86 408.55l5.56-7.24c.53-.66 1-1.25 1.6-1.91h-6.65v-1.8h9.37v1.4l-5.48 7.13c-.51.69-1 1.3-1.58 1.93v.05h7.19v1.78h-10zM842.93 409.84l-.18-1.55h-.08a4.55 4.55 0 0 1-3.76 1.83 3.5 3.5 0 0 1-3.75-3.53c0-3 2.64-4.6 7.38-4.57v-.25a2.53 2.53 0 0 0-2.79-2.85 6.14 6.14 0 0 0-3.2.92l-.51-1.48a7.65 7.65 0 0 1 4-1.09c3.76 0 4.67 2.57 4.67 5v4.59a16.55 16.55 0 0 0 .21 2.95zm-.33-6.27c-2.44-.05-5.21.38-5.21 2.77a2 2 0 0 0 2.11 2.13 3.06 3.06 0 0 0 3-2.06 2.53 2.53 0 0 0 .13-.71zM851 394v3.53h3.2v1.7H851v6.63c0 1.52.43 2.39 1.67 2.39a4.76 4.76 0 0 0 1.3-.16l.1 1.68a5.44 5.44 0 0 1-2 .3 3.09 3.09 0 0 1-2.41-.94 4.51 4.51 0 0 1-.87-3.19v-6.71h-1.9v-1.7h1.9v-2.94zM859.15 394.1a1.39 1.39 0 0 1-2.77 0 1.36 1.36 0 0 1 1.4-1.4 1.33 1.33 0 0 1 1.37 1.4zm-2.49 15.74v-12.29h2.23v12.29zM873.72 403.59c0 4.55-3.15 6.53-6.12 6.53-3.32 0-5.89-2.44-5.89-6.32 0-4.12 2.69-6.53 6.1-6.53s5.91 2.57 5.91 6.32zm-9.75.13c0 2.69 1.55 4.72 3.73 4.72s3.74-2 3.74-4.77c0-2.08-1-4.72-3.69-4.72s-3.75 2.44-3.75 4.77zM876.54 400.88c0-1.27 0-2.31-.1-3.33h2l.12 2h.06a4.5 4.5 0 0 1 4.06-2.31c1.7 0 4.34 1 4.34 5.23v7.34h-2.23v-7.08c0-2-.74-3.63-2.85-3.63a3.17 3.17 0 0 0-3 2.28 3 3 0 0 0-.16 1v7.39h-2.23zM81.46 583.2a36.2 36.2 0 0 1 6.36-.47c3.05 0 5.28.64 6.74 1.86a6.46 6.46 0 0 1 2.23 5 6.91 6.91 0 0 1-2 5.17c-1.66 1.66-4.27 2.44-7.21 2.44a11.91 11.91 0 0 1-2-.13v8.59h-4.12zm4.13 10.63a8.1 8.1 0 0 0 2 .17c3.11 0 5-1.52 5-4.2 0-2.53-1.76-3.89-4.64-3.89a10.79 10.79 0 0 0-2.4.21zM99.8 594.54c0-2.23 0-3.82-.13-5.31h3.62l.14 3.15h.13a4.91 4.91 0 0 1 4.5-3.52 4.16 4.16 0 0 1 1 .1v3.92a6.3 6.3 0 0 0-1.21-.13 3.68 3.68 0 0 0-3.73 3.15 6.91 6.91 0 0 0-.13 1.28v8.53H99.8zM127.22 597.32c0 6.06-4.26 8.76-8.46 8.76-4.67 0-8.26-3.21-8.26-8.49s3.56-8.73 8.53-8.73 8.19 3.45 8.19 8.46zm-12.42.17c0 3.18 1.56 5.58 4.1 5.58 2.36 0 4-2.33 4-5.65 0-2.57-1.15-5.52-4-5.52s-4.1 2.85-4.1 5.59zM145.84 581.68v19.39c0 1.7.07 3.52.13 4.64h-3.72l-.17-2.6H142a5.93 5.93 0 0 1-5.38 3c-3.92 0-7-3.35-7-8.42 0-5.52 3.42-8.8 7.38-8.8a5.25 5.25 0 0 1 4.64 2.16h.07v-9.34zm-4.16 14.42a5.57 5.57 0 0 0-.11-1.08 3.64 3.64 0 0 0-3.58-2.95c-2.68 0-4.17 2.37-4.17 5.45s1.49 5.21 4.13 5.21a3.67 3.67 0 0 0 3.59-2.94 4.7 4.7 0 0 0 .14-1.22zM165.07 600.77c0 2 .06 3.59.13 4.94h-3.65l-.21-2.5h-.06a6 6 0 0 1-5.28 2.87c-3 0-5.76-1.79-5.76-7.17v-9.68h4.17v9c0 2.74.88 4.5 3.08 4.5a3.53 3.53 0 0 0 3.18-2.23 4 4 0 0 0 .23-1.29v-9.95h4.17zM181.69 605.2a12 12 0 0 1-4.67.85c-5.15 0-8.5-3.28-8.5-8.39 0-4.94 3.39-8.8 9.17-8.8a10.38 10.38 0 0 1 4 .78l-.74 3.11a7.28 7.28 0 0 0-3.15-.64c-3.18 0-5.08 2.33-5 5.34 0 3.39 2.2 5.32 5 5.32a8.1 8.1 0 0 0 3.28-.65zM190.05 584.52v4.71h4v3.11h-4v7.28c0 2 .54 3 2.13 3a6.27 6.27 0 0 0 1.63-.21l.06 3.18a9 9 0 0 1-3 .41 4.86 4.86 0 0 1-3.59-1.35c-.88-1-1.28-2.44-1.28-4.61v-7.75h-2.37v-3.11H186v-3.72zM41 632.49c.1 3 2.43 4.26 5.07 4.26a12.47 12.47 0 0 0 4.57-.74l.61 2.88a15.61 15.61 0 0 1-5.75 1c-5.35 0-8.5-3.28-8.5-8.32 0-4.57 2.78-8.87 8.06-8.87s7.11 4.4 7.11 8a9.88 9.88 0 0 1-.14 1.76zm7.24-2.91c0-1.52-.64-4-3.42-4-2.57 0-3.65 2.34-3.82 4zM55.51 628c0-1.9 0-3.49-.14-4.91H59l.2 2.47h.1a6 6 0 0 1 5.25-2.84c2.88 0 5.86 1.86 5.86 7.07v9.78h-4.14v-9.3c0-2.37-.88-4.17-3.15-4.17a3.5 3.5 0 0 0-3.24 2.44 4.1 4.1 0 0 0-.17 1.35v9.68h-4.2zM74.87 615.53h4.2v9.82h.07a5.56 5.56 0 0 1 2.06-1.9 5.66 5.66 0 0 1 2.84-.74c2.81 0 5.76 1.86 5.76 7.14v9.71h-4.17v-9.24c0-2.4-.88-4.19-3.18-4.19a3.41 3.41 0 0 0-3.38 3.58v9.85h-4.2zM103.51 639.56l-.27-1.83h-.1a6.12 6.12 0 0 1-4.88 2.2 4.9 4.9 0 0 1-5.18-4.9c0-4.17 3.69-6.26 9.79-6.23v-.27c0-1.08-.44-2.88-3.35-2.88a8.75 8.75 0 0 0-4.44 1.22l-.81-2.71a11.93 11.93 0 0 1 6-1.45c5.28 0 6.8 3.35 6.8 6.94v6a26.23 26.23 0 0 0 .24 4zm-.54-8c-3-.07-5.76.57-5.76 3.08a2.19 2.19 0 0 0 2.37 2.36 3.38 3.38 0 0 0 3.25-2.27 3.06 3.06 0 0 0 .14-.91zM111.43 628c0-1.9 0-3.49-.13-4.91h3.7l.2 2.47h.11a5.94 5.94 0 0 1 5.24-2.84c2.88 0 5.86 1.86 5.86 7.07v9.78h-4.17v-9.3c0-2.37-.88-4.17-3.14-4.17a3.5 3.5 0 0 0-3.25 2.44 4.1 4.1 0 0 0-.17 1.35v9.68h-4.2zM142.91 639.05a12 12 0 0 1-4.67.85c-5.14 0-8.5-3.28-8.5-8.39 0-4.94 3.39-8.8 9.18-8.8a10.33 10.33 0 0 1 4 .78l-.74 3.11a7.43 7.43 0 0 0-3.15-.64c-3.18 0-5.07 2.33-5 5.34 0 3.39 2.2 5.32 5 5.32a8.06 8.06 0 0 0 3.28-.65zM148.63 632.49c.1 3 2.44 4.26 5.08 4.26a12.47 12.47 0 0 0 4.57-.74l.61 2.88a15.67 15.67 0 0 1-5.76 1c-5.34 0-8.49-3.28-8.49-8.32 0-4.57 2.77-8.87 8.05-8.87s7.11 4.4 7.11 8a11.21 11.21 0 0 1-.13 1.76zm7.25-2.91c0-1.52-.65-4-3.42-4-2.57 0-3.66 2.34-3.83 4zM163.16 628c0-1.9 0-3.49-.14-4.91h3.59l.17 2.44h.1a5.69 5.69 0 0 1 5.07-2.81 4.75 4.75 0 0 1 4.57 3h.07a6.25 6.25 0 0 1 2-2.06 5.53 5.53 0 0 1 3.32-1c2.74 0 5.51 1.86 5.51 7.14v9.71h-4.06v-9.1c0-2.74-.94-4.37-2.94-4.37a3.18 3.18 0 0 0-2.91 2.2 6.13 6.13 0 0 0-.2 1.39v9.88h-4.06V630c0-2.3-.92-3.93-2.85-3.93a3.26 3.26 0 0 0-3 2.37 3.57 3.57 0 0 0-.23 1.36v9.74h-4.06zM194.81 632.49c.1 3 2.43 4.26 5.07 4.26a12.47 12.47 0 0 0 4.57-.74l.61 2.88a15.61 15.61 0 0 1-5.75 1c-5.35 0-8.5-3.28-8.5-8.32 0-4.57 2.78-8.87 8.06-8.87s7.1 4.4 7.1 8a10.09 10.09 0 0 1-.13 1.76zm7.24-2.91c0-1.52-.64-4-3.42-4-2.57 0-3.65 2.34-3.82 4zM209.33 628c0-1.9 0-3.49-.14-4.91h3.66l.2 2.47h.1a6 6 0 0 1 5.25-2.84c2.88 0 5.85 1.86 5.85 7.07v9.78h-4.16v-9.3c0-2.37-.88-4.17-3.15-4.17a3.5 3.5 0 0 0-3.25 2.44 4.39 4.39 0 0 0-.16 1.35v9.68h-4.2zM233.29 618.38v4.7h4v3.11h-4v7.28c0 2 .54 3 2.14 3a6.12 6.12 0 0 0 1.62-.21l.07 3.18a9 9 0 0 1-3 .41 4.84 4.84 0 0 1-3.59-1.35c-.88-.95-1.29-2.44-1.29-4.61v-7.75h-2.37v-3.11h2.37v-3.72zM291.39 491.93a25.46 25.46 0 0 1 4.24-.33 7 7 0 0 1 4.8 1.42 4.6 4.6 0 0 1 1.5 3.58 5.06 5.06 0 0 1-1.32 3.66 7.11 7.11 0 0 1-5.23 1.88 7.45 7.45 0 0 1-1.78-.16v6.86h-2.21zm2.21 8.25a7.24 7.24 0 0 0 1.83.18c2.67 0 4.29-1.3 4.29-3.66s-1.6-3.35-4-3.35a9.33 9.33 0 0 0-2.08.18zM304.42 500.39c0-1.45 0-2.7-.1-3.84h1.95l.08 2.41h.1a3.68 3.68 0 0 1 3.4-2.69 2.49 2.49 0 0 1 .64.08v2.11a2.94 2.94 0 0 0-.77-.08 3.13 3.13 0 0 0-3 2.87 6.33 6.33 0 0 0-.1 1v6.55h-2.21zM323.59 502.59c0 4.55-3.15 6.53-6.12 6.53-3.33 0-5.89-2.44-5.89-6.32 0-4.12 2.69-6.53 6.09-6.53s5.92 2.57 5.92 6.32zm-9.75.13c0 2.69 1.55 4.72 3.73 4.72s3.73-2 3.73-4.77c0-2.08-1-4.72-3.68-4.72s-3.78 2.44-3.78 4.77zM337 490.81v14.86c0 1.09 0 2.33.1 3.17h-2l-.1-2.13a4.54 4.54 0 0 1-4.19 2.41c-3 0-5.25-2.51-5.25-6.25 0-4.08 2.51-6.6 5.51-6.6a4.11 4.11 0 0 1 3.7 1.88v-7.34zm-2.24 10.74a3.76 3.76 0 0 0-.1-.94 3.29 3.29 0 0 0-3.22-2.59c-2.31 0-3.68 2-3.68 4.75 0 2.49 1.21 4.55 3.63 4.55a3.35 3.35 0 0 0 3.27-2.67 3.68 3.68 0 0 0 .1-1zM351 505.49c0 1.27 0 2.39.1 3.35h-2l-.13-2h.03a4.62 4.62 0 0 1-4.06 2.29c-1.93 0-4.24-1.07-4.24-5.38v-7.19h2.23v6.81c0 2.33.71 3.91 2.74 3.91a3.25 3.25 0 0 0 2.95-2 3.17 3.17 0 0 0 .2-1.14v-7.54H351zM363.47 508.38a8.14 8.14 0 0 1-3.53.71c-3.7 0-6.12-2.51-6.12-6.27a6.24 6.24 0 0 1 6.61-6.52 7.52 7.52 0 0 1 3.09.63l-.5 1.73a5.16 5.16 0 0 0-2.59-.59c-2.82 0-4.35 2.09-4.35 4.65 0 2.84 1.83 4.6 4.27 4.6a6.31 6.31 0 0 0 2.74-.61zM369.11 493v3.53h3.2v1.7h-3.2v6.63c0 1.52.43 2.39 1.67 2.39a4.76 4.76 0 0 0 1.3-.16l.1 1.68a5.44 5.44 0 0 1-2 .3 3.09 3.09 0 0 1-2.41-.94 4.51 4.51 0 0 1-.87-3.19v-6.71H365v-1.7h1.9v-2.94zM380.2 490.81h2.24v18h-2.24zM397.31 502.59c0 4.55-3.14 6.53-6.11 6.53-3.33 0-5.9-2.44-5.9-6.32 0-4.12 2.7-6.53 6.1-6.53s5.91 2.57 5.91 6.32zm-9.75.13c0 2.69 1.55 4.72 3.74 4.72s3.73-2 3.73-4.77c0-2.08-1-4.72-3.68-4.72s-3.79 2.44-3.79 4.77zM408.89 508.38a8.14 8.14 0 0 1-3.53.71c-3.7 0-6.12-2.51-6.12-6.27a6.24 6.24 0 0 1 6.6-6.52 7.57 7.57 0 0 1 3.1.63l-.51 1.73a5.1 5.1 0 0 0-2.59-.59c-2.81 0-4.34 2.09-4.34 4.65 0 2.84 1.83 4.6 4.27 4.6a6.31 6.31 0 0 0 2.74-.61zM418.31 508.84l-.18-1.55h-.07a4.58 4.58 0 0 1-3.76 1.83 3.5 3.5 0 0 1-3.76-3.53c0-3 2.64-4.6 7.39-4.57v-.25a2.54 2.54 0 0 0-2.79-2.85 6.09 6.09 0 0 0-3.2.92l-.51-1.48a7.65 7.65 0 0 1 4-1.09c3.75 0 4.67 2.57 4.67 5v4.59a17.62 17.62 0 0 0 .2 2.95zm-.33-6.27c-2.44-.05-5.2.38-5.2 2.77a2 2 0 0 0 2.1 2.13 3.05 3.05 0 0 0 3-2.06 2.22 2.22 0 0 0 .13-.71zM423.74 490.81H426v18h-2.24zM432.22 493.1a1.31 1.31 0 0 1-1.42 1.37 1.33 1.33 0 0 1-1.35-1.37 1.37 1.37 0 0 1 1.4-1.4 1.33 1.33 0 0 1 1.37 1.4zm-2.49 15.74v-12.29H432v12.29zM434.28 507.55l5.56-7.24c.53-.66 1-1.25 1.6-1.91h-6.65v-1.8h9.37v1.4l-5.48 7.13c-.51.69-1 1.3-1.58 1.93v.05h7.19v1.78h-10zM453.35 508.84l-.18-1.55h-.08a4.55 4.55 0 0 1-3.76 1.83 3.5 3.5 0 0 1-3.75-3.53c0-3 2.64-4.6 7.38-4.57v-.25a2.53 2.53 0 0 0-2.79-2.85 6.14 6.14 0 0 0-3.2.92l-.51-1.48a7.65 7.65 0 0 1 4-1.09c3.76 0 4.67 2.57 4.67 5v4.59a16.55 16.55 0 0 0 .21 2.95zm-.33-6.27c-2.44-.05-5.21.38-5.21 2.77a2 2 0 0 0 2.11 2.13 3.06 3.06 0 0 0 3-2.06 2.53 2.53 0 0 0 .13-.71zM461.37 493v3.53h3.2v1.7h-3.2v6.63c0 1.52.43 2.39 1.67 2.39a4.76 4.76 0 0 0 1.3-.16l.1 1.68a5.44 5.44 0 0 1-2 .3 3.09 3.09 0 0 1-2.41-.94 4.51 4.51 0 0 1-.87-3.19v-6.71h-1.9v-1.7h1.9v-2.94zM469.57 493.1a1.39 1.39 0 0 1-2.77 0 1.36 1.36 0 0 1 1.4-1.4 1.33 1.33 0 0 1 1.37 1.4zm-2.49 15.74v-12.29h2.23v12.29zM484.14 502.59c0 4.55-3.15 6.53-6.12 6.53-3.32 0-5.89-2.44-5.89-6.32 0-4.12 2.69-6.53 6.1-6.53s5.91 2.57 5.91 6.32zm-9.75.13c0 2.69 1.55 4.72 3.73 4.72s3.74-2 3.74-4.77c0-2.08-1-4.72-3.69-4.72s-3.78 2.44-3.78 4.77zM487 499.88c0-1.27 0-2.31-.1-3.33h2l.12 2H489a4.5 4.5 0 0 1 4.06-2.31c1.7 0 4.34 1 4.34 5.23v7.34h-2.23v-7.08c0-2-.74-3.63-2.85-3.63a3.17 3.17 0 0 0-3 2.28 3 3 0 0 0-.16 1v7.39H487zM294.64 537.61h-5.2v-1.88h12.67v1.88h-5.23v15.23h-2.24zM313.25 546.59c0 4.55-3.14 6.53-6.12 6.53-3.32 0-5.89-2.44-5.89-6.32 0-4.12 2.7-6.53 6.1-6.53s5.91 2.57 5.91 6.32zm-9.75.13c0 2.69 1.55 4.72 3.74 4.72s3.73-2 3.73-4.77c0-2.08-1-4.72-3.68-4.72s-3.79 2.44-3.79 4.77zM316.07 544.56c0-1.57-.05-2.84-.1-4h2l.1 2.11h.05a4.82 4.82 0 0 1 4.36-2.39c3 0 5.21 2.52 5.21 6.25 0 4.42-2.69 6.6-5.59 6.6a4.31 4.31 0 0 1-3.78-1.93h-.05v6.68h-2.21zm2.21 3.28a5.07 5.07 0 0 0 .1.91 3.45 3.45 0 0 0 3.35 2.62c2.36 0 3.74-1.93 3.74-4.75 0-2.46-1.3-4.57-3.66-4.57a3.57 3.57 0 0 0-3.38 2.77 3.93 3.93 0 0 0-.15.91zM341.64 546.59c0 4.55-3.15 6.53-6.12 6.53-3.33 0-5.89-2.44-5.89-6.32 0-4.12 2.69-6.53 6.09-6.53s5.92 2.57 5.92 6.32zm-9.75.13c0 2.69 1.55 4.72 3.73 4.72s3.73-2 3.73-4.77c0-2.08-1-4.72-3.68-4.72s-3.78 2.44-3.78 4.77zM344.45 534.81h2.24v18h-2.24zM361.57 546.59c0 4.55-3.15 6.53-6.12 6.53-3.33 0-5.89-2.44-5.89-6.32 0-4.12 2.69-6.53 6.09-6.53s5.92 2.57 5.92 6.32zm-9.75.13c0 2.69 1.55 4.72 3.73 4.72s3.73-2 3.73-4.77c0-2.08-1-4.72-3.68-4.72s-3.78 2.44-3.78 4.77zM375 540.55c-.05.89-.1 1.88-.1 3.38v7.13c0 2.82-.56 4.55-1.75 5.61a6.5 6.5 0 0 1-4.47 1.48 8 8 0 0 1-4.09-1l.56-1.7a6.9 6.9 0 0 0 3.61 1c2.28 0 4-1.19 4-4.29v-1.37h-.05a4.38 4.38 0 0 1-3.91 2.06c-3.05 0-5.23-2.59-5.23-6 0-4.17 2.71-6.53 5.53-6.53a4.12 4.12 0 0 1 3.84 2.13h.05l.1-1.85zm-2.31 4.85a2.91 2.91 0 0 0-.13-1 3.21 3.21 0 0 0-3.12-2.37c-2.13 0-3.65 1.81-3.65 4.65 0 2.41 1.21 4.42 3.63 4.42a3.26 3.26 0 0 0 3.09-2.29 3.78 3.78 0 0 0 .18-1.19zM380.91 537.1a1.38 1.38 0 0 1-2.76 0 1.36 1.36 0 0 1 1.39-1.4 1.33 1.33 0 0 1 1.37 1.4zm-2.49 15.74v-12.29h2.24v12.29zM393.12 552.38a8.09 8.09 0 0 1-3.52.71c-3.71 0-6.12-2.51-6.12-6.27a6.24 6.24 0 0 1 6.6-6.52 7.57 7.57 0 0 1 3.1.63l-.51 1.73a5.13 5.13 0 0 0-2.59-.59c-2.82 0-4.34 2.09-4.34 4.65 0 2.84 1.82 4.6 4.26 4.6a6.31 6.31 0 0 0 2.74-.61zM402.54 552.84l-.17-1.55h-.08a4.58 4.58 0 0 1-3.76 1.83 3.5 3.5 0 0 1-3.76-3.53c0-3 2.64-4.6 7.39-4.57v-.25a2.54 2.54 0 0 0-2.79-2.85 6.11 6.11 0 0 0-3.2.92l-.51-1.48a7.65 7.65 0 0 1 4-1.09c3.76 0 4.67 2.57 4.67 5v4.59a16.55 16.55 0 0 0 .21 3zm-.33-6.27c-2.43-.05-5.2.38-5.2 2.77a2 2 0 0 0 2.11 2.13 3.06 3.06 0 0 0 3-2.06 2.52 2.52 0 0 0 .12-.71zM408 534.81h2.23v18H408zM430.47 546.59c0 4.55-3.15 6.53-6.12 6.53-3.32 0-5.89-2.44-5.89-6.32 0-4.12 2.69-6.53 6.09-6.53s5.92 2.57 5.92 6.32zm-9.75.13c0 2.69 1.55 4.72 3.73 4.72s3.74-2 3.74-4.77c0-2.08-1.05-4.72-3.69-4.72s-3.78 2.44-3.78 4.77zM433.29 544.56c0-1.57-.05-2.84-.1-4h2l.1 2.11a4.85 4.85 0 0 1 4.37-2.39c3 0 5.21 2.52 5.21 6.25 0 4.42-2.69 6.6-5.59 6.6a4.3 4.3 0 0 1-3.78-1.93h-.05v6.68h-2.21zm2.21 3.28a5.07 5.07 0 0 0 .1.91 3.44 3.44 0 0 0 3.35 2.62c2.36 0 3.73-1.93 3.73-4.75 0-2.46-1.29-4.57-3.65-4.57a3.56 3.56 0 0 0-3.38 2.77 3.47 3.47 0 0 0-.15.91zM450.42 537v3.53h3.2v1.7h-3.2v6.63c0 1.52.44 2.39 1.68 2.39a4.82 4.82 0 0 0 1.3-.16l.1 1.68a5.44 5.44 0 0 1-2 .3 3.12 3.12 0 0 1-2.42-.94 4.56 4.56 0 0 1-.86-3.19v-6.71h-1.9v-1.7h1.9v-2.94zM458.62 537.1a1.31 1.31 0 0 1-1.42 1.37 1.33 1.33 0 0 1-1.34-1.37 1.36 1.36 0 0 1 1.39-1.4 1.33 1.33 0 0 1 1.37 1.4zm-2.48 15.74v-12.29h2.23v12.29zM462.08 543.88c0-1.27 0-2.31-.1-3.33h1.95l.1 2h.08a4.23 4.23 0 0 1 3.86-2.26 3.65 3.65 0 0 1 3.48 2.46h.05a5 5 0 0 1 1.37-1.59 4.17 4.17 0 0 1 2.71-.87c1.63 0 4 1.07 4 5.33v7.24h-2.18v-7c0-2.36-.86-3.78-2.67-3.78a2.89 2.89 0 0 0-2.64 2 3.75 3.75 0 0 0-.18 1.12v7.59h-2.18v-7.36c0-2-.86-3.38-2.56-3.38a3.33 3.33 0 0 0-2.95 3.33v7.41h-2.18zM485.74 537.1a1.39 1.39 0 0 1-2.77 0 1.37 1.37 0 0 1 1.4-1.4 1.33 1.33 0 0 1 1.37 1.4zm-2.49 15.74v-12.29h2.24v12.29zM487.79 551.55l5.57-7.24c.53-.66 1-1.25 1.59-1.91h-6.65v-1.8h9.37v1.4l-5.49 7.13c-.51.69-1 1.3-1.57 1.93h7.18v1.78h-10zM506.86 552.84l-.18-1.55h-.07a4.58 4.58 0 0 1-3.76 1.83 3.5 3.5 0 0 1-3.76-3.53c0-3 2.64-4.6 7.39-4.57v-.25a2.54 2.54 0 0 0-2.79-2.85 6.11 6.11 0 0 0-3.2.92l-.51-1.48a7.65 7.65 0 0 1 4-1.09c3.76 0 4.67 2.57 4.67 5v4.59a17.62 17.62 0 0 0 .2 3zm-.33-6.27c-2.44-.05-5.2.38-5.2 2.77a2 2 0 0 0 2.1 2.13 3.08 3.08 0 0 0 3-2.06 2.52 2.52 0 0 0 .12-.71zM514.88 537v3.53h3.2v1.7h-3.2v6.63c0 1.52.44 2.39 1.68 2.39a4.82 4.82 0 0 0 1.3-.16l.1 1.68a5.44 5.44 0 0 1-2 .3 3.12 3.12 0 0 1-2.42-.94 4.56 4.56 0 0 1-.86-3.19v-6.71h-1.9v-1.7h1.9v-2.94zM523.08 537.1a1.31 1.31 0 0 1-1.42 1.37 1.33 1.33 0 0 1-1.34-1.37 1.36 1.36 0 0 1 1.39-1.4 1.33 1.33 0 0 1 1.37 1.4zm-2.48 15.74v-12.29h2.23v12.29zM537.66 546.59c0 4.55-3.15 6.53-6.12 6.53-3.33 0-5.89-2.44-5.89-6.32 0-4.12 2.69-6.53 6.09-6.53s5.92 2.57 5.92 6.32zm-9.75.13c0 2.69 1.55 4.72 3.73 4.72s3.73-2 3.73-4.77c0-2.08-1-4.72-3.68-4.72s-3.78 2.44-3.78 4.77zM540.48 543.88c0-1.27 0-2.31-.11-3.33h2l.13 2a4.51 4.51 0 0 1 4.06-2.31c1.71 0 4.35 1 4.35 5.23v7.34h-2.21v-7.08c0-2-.73-3.63-2.84-3.63a3.18 3.18 0 0 0-3 2.28 3.26 3.26 0 0 0-.15 1v7.39h-2.23zM291.39 579.93a25.46 25.46 0 0 1 4.24-.33 7 7 0 0 1 4.8 1.42 4.6 4.6 0 0 1 1.5 3.58 5.06 5.06 0 0 1-1.32 3.66 7.11 7.11 0 0 1-5.23 1.88 7.45 7.45 0 0 1-1.78-.16v6.86h-2.21zm2.21 8.25a7.24 7.24 0 0 0 1.83.18c2.67 0 4.29-1.3 4.29-3.66s-1.6-3.35-4-3.35a9.33 9.33 0 0 0-2.08.18zM316.86 596.28a10.91 10.91 0 0 1-4.52.81c-4.82 0-8.46-3-8.46-8.65 0-5.36 3.64-9 8.94-9a9.08 9.08 0 0 1 4.06.76l-.53 1.8a8.14 8.14 0 0 0-3.45-.71c-4 0-6.68 2.57-6.68 7.06 0 4.19 2.41 6.88 6.58 6.88a8.87 8.87 0 0 0 3.6-.71zM319.62 580a20.86 20.86 0 0 1 4-.36c2.21 0 3.63.38 4.7 1.24a3.59 3.59 0 0 1 1.42 3 4.05 4.05 0 0 1-2.89 3.75 4.43 4.43 0 0 1 3.53 4.3 4.6 4.6 0 0 1-1.45 3.42c-1.19 1.09-3.12 1.6-5.92 1.6a26.35 26.35 0 0 1-3.43-.2zm2.21 7h2c2.34 0 3.71-1.22 3.71-2.87 0-2-1.53-2.79-3.76-2.79a10.08 10.08 0 0 0-2 .15zm0 8.2a11.31 11.31 0 0 0 1.86.11c2.28 0 4.39-.84 4.39-3.33s-2-3.3-4.42-3.3h-1.83zM338.39 594.56a5.84 5.84 0 0 0 2.94.88c1.63 0 2.39-.81 2.39-1.82s-.64-1.65-2.29-2.26c-2.21-.79-3.25-2-3.25-3.48 0-2 1.6-3.61 4.24-3.61a6.23 6.23 0 0 1 3 .76l-.56 1.63a4.76 4.76 0 0 0-2.52-.71c-1.32 0-2.05.76-2.05 1.67s.73 1.48 2.33 2.09c2.13.81 3.23 1.87 3.23 3.7 0 2.16-1.68 3.68-4.6 3.68a7.09 7.09 0 0 1-3.45-.83zM351.23 581.1a1.38 1.38 0 0 1-2.76 0 1.36 1.36 0 0 1 1.39-1.4 1.33 1.33 0 0 1 1.37 1.4zm-2.49 15.74v-12.29H351v12.29zM353.29 595.55l5.56-7.24c.53-.66 1-1.25 1.6-1.91h-6.65v-1.8h9.37v1.4l-5.48 7.13c-.51.69-1 1.3-1.58 1.93h7.19v1.78h-10zM366.62 591.1c.05 3 2 4.27 4.21 4.27a8 8 0 0 0 3.41-.64l.38 1.6a9.93 9.93 0 0 1-4.09.76c-3.79 0-6-2.48-6-6.19s2.18-6.63 5.76-6.63c4 0 5.08 3.53 5.08 5.79a7.43 7.43 0 0 1-.08 1zm6.55-1.6c0-1.42-.59-3.63-3.1-3.63-2.26 0-3.25 2.08-3.43 3.63zM390.28 596.84l-.18-1.55h-.1a4.58 4.58 0 0 1-3.76 1.83 3.5 3.5 0 0 1-3.76-3.53c0-3 2.64-4.6 7.39-4.57v-.25a2.54 2.54 0 0 0-2.79-2.85 6.09 6.09 0 0 0-3.2.92l-.51-1.48a7.62 7.62 0 0 1 4-1.09c3.75 0 4.67 2.57 4.67 5v4.59a17.62 17.62 0 0 0 .2 3zm-.33-6.27c-2.44-.05-5.21.38-5.21 2.77a2 2 0 0 0 2.11 2.13 3.05 3.05 0 0 0 3-2.06 2.22 2.22 0 0 0 .13-.71zM395.71 587.88c0-1.27 0-2.31-.1-3.33h2l.13 2a4.51 4.51 0 0 1 4.06-2.31c1.7 0 4.34 1 4.34 5.23v7.34h-2.23v-7.08c0-2-.74-3.63-2.84-3.63a3.17 3.17 0 0 0-3 2.28 3.26 3.26 0 0 0-.15 1v7.39h-2.24zM420.42 578.81v14.86c0 1.09 0 2.33.1 3.17h-2l-.1-2.13h-.05a4.55 4.55 0 0 1-4.19 2.41c-3 0-5.26-2.51-5.26-6.25 0-4.08 2.52-6.6 5.51-6.6a4.12 4.12 0 0 1 3.71 1.88h.05v-7.34zm-2.24 10.74a3.76 3.76 0 0 0-.1-.94 3.29 3.29 0 0 0-3.22-2.59c-2.31 0-3.69 2-3.69 4.75 0 2.49 1.22 4.55 3.64 4.55a3.36 3.36 0 0 0 3.27-2.67 3.68 3.68 0 0 0 .1-1zM429.2 594.56a5.88 5.88 0 0 0 2.95.88c1.62 0 2.38-.81 2.38-1.82s-.63-1.65-2.28-2.26c-2.21-.79-3.25-2-3.25-3.48 0-2 1.6-3.61 4.24-3.61a6.22 6.22 0 0 1 3 .76l-.56 1.63a4.72 4.72 0 0 0-2.51-.71c-1.32 0-2.06.76-2.06 1.67s.74 1.48 2.34 2.09c2.13.81 3.22 1.87 3.22 3.7 0 2.16-1.68 3.68-4.6 3.68a7.09 7.09 0 0 1-3.45-.83zM439.56 578.81h2.23v7.67a4.23 4.23 0 0 1 1.6-1.57 4.62 4.62 0 0 1 2.29-.64c1.65 0 4.29 1 4.29 5.26v7.31h-2.24v-7.06c0-2-.73-3.65-2.84-3.65a3.19 3.19 0 0 0-3 2.23 2.62 2.62 0 0 0-.16 1.07v7.41h-2.23zM460.45 596.84l-.17-1.55h-.08a4.58 4.58 0 0 1-3.76 1.83 3.5 3.5 0 0 1-3.76-3.53c0-3 2.65-4.6 7.39-4.57v-.25a2.54 2.54 0 0 0-2.79-2.85 6.11 6.11 0 0 0-3.2.92l-.51-1.48a7.65 7.65 0 0 1 4-1.09c3.76 0 4.67 2.57 4.67 5v4.59a16.55 16.55 0 0 0 .21 3zm-.33-6.27c-2.43-.05-5.2.38-5.2 2.77a2 2 0 0 0 2.11 2.13 3.06 3.06 0 0 0 3-2.06 2.52 2.52 0 0 0 .12-.71zM465.89 588.56c0-1.57-.05-2.84-.11-4h2l.1 2.11h.05a4.84 4.84 0 0 1 4.37-2.39c3 0 5.21 2.52 5.21 6.25 0 4.42-2.7 6.6-5.59 6.6a4.29 4.29 0 0 1-3.78-1.93v6.68h-2.21zm2.21 3.28a5.07 5.07 0 0 0 .1.91 3.44 3.44 0 0 0 3.35 2.62c2.36 0 3.73-1.93 3.73-4.75 0-2.46-1.29-4.57-3.66-4.57a3.56 3.56 0 0 0-3.37 2.77 3.47 3.47 0 0 0-.15.91zM481.58 591.1c.05 3 2 4.27 4.21 4.27a8 8 0 0 0 3.4-.64l.38 1.6a9.83 9.83 0 0 1-4.08.76c-3.79 0-6.05-2.48-6.05-6.19s2.19-6.63 5.77-6.63c4 0 5.07 3.53 5.07 5.79a10 10 0 0 1-.07 1zm6.55-1.6c0-1.42-.59-3.63-3.1-3.63-2.26 0-3.25 2.08-3.43 3.63zM509.55 590.59c0 4.55-3.14 6.53-6.11 6.53-3.33 0-5.9-2.44-5.9-6.32 0-4.12 2.7-6.53 6.1-6.53s5.91 2.57 5.91 6.32zm-9.75.13c0 2.69 1.55 4.72 3.74 4.72s3.73-2 3.73-4.77c0-2.08-1-4.72-3.68-4.72s-3.79 2.44-3.79 4.77zM512.37 588.56c0-1.57 0-2.84-.1-4h2l.1 2.11a4.83 4.83 0 0 1 4.37-2.39c3 0 5.2 2.52 5.2 6.25 0 4.42-2.69 6.6-5.59 6.6a4.31 4.31 0 0 1-3.78-1.93v6.68h-2.21zm2.21 3.28a5.07 5.07 0 0 0 .1.91 3.45 3.45 0 0 0 3.35 2.62c2.37 0 3.74-1.93 3.74-4.75 0-2.46-1.3-4.57-3.66-4.57a3.57 3.57 0 0 0-3.38 2.77 3.93 3.93 0 0 0-.15.91zM529.51 581v3.53h3.2v1.7h-3.2v6.63c0 1.52.43 2.39 1.67 2.39a4.76 4.76 0 0 0 1.3-.16l.1 1.68a5.44 5.44 0 0 1-2 .3 3.09 3.09 0 0 1-2.41-.94 4.51 4.51 0 0 1-.86-3.19v-6.71h-1.91v-1.7h1.91v-2.94zM537.71 581.1a1.39 1.39 0 0 1-2.77 0 1.37 1.37 0 0 1 1.4-1.4 1.33 1.33 0 0 1 1.37 1.4zm-2.49 15.74v-12.29h2.23v12.29zM541.16 587.88c0-1.27 0-2.31-.1-3.33h2l.11 2h.07a4.24 4.24 0 0 1 3.86-2.26 3.63 3.63 0 0 1 3.48 2.46h.05a5 5 0 0 1 1.37-1.59 4.2 4.2 0 0 1 2.72-.87c1.62 0 4 1.07 4 5.33v7.24h-2.19v-7c0-2.36-.86-3.78-2.66-3.78a2.89 2.89 0 0 0-2.64 2 3.46 3.46 0 0 0-.18 1.12v7.59h-2.19v-7.36c0-2-.86-3.38-2.56-3.38a3.06 3.06 0 0 0-2.77 2.23 3.3 3.3 0 0 0-.18 1.1v7.41h-2.18zM564.82 581.1a1.38 1.38 0 0 1-2.76 0 1.36 1.36 0 0 1 1.39-1.4 1.33 1.33 0 0 1 1.37 1.4zm-2.49 15.74v-12.29h2.24v12.29zM566.88 595.55l5.56-7.24c.53-.66 1-1.25 1.6-1.91h-6.65v-1.8h9.37v1.4l-5.48 7.13c-.51.69-1 1.3-1.58 1.93h7.19v1.78h-10zM586 596.84l-.18-1.55h-.08a4.55 4.55 0 0 1-3.76 1.83 3.5 3.5 0 0 1-3.75-3.53c0-3 2.64-4.6 7.39-4.57v-.25a2.54 2.54 0 0 0-2.8-2.85 6.14 6.14 0 0 0-3.2.92l-.5-1.48a7.58 7.58 0 0 1 4-1.09c3.76 0 4.67 2.57 4.67 5v4.59a17.55 17.55 0 0 0 .21 3zm-.33-6.27c-2.44-.05-5.21.38-5.21 2.77a2 2 0 0 0 2.11 2.13 3.06 3.06 0 0 0 3-2.06 2.22 2.22 0 0 0 .13-.71zM594 581v3.53h3.2v1.7H594v6.63c0 1.52.43 2.39 1.67 2.39a4.76 4.76 0 0 0 1.3-.16l.1 1.68a5.44 5.44 0 0 1-2 .3 3.09 3.09 0 0 1-2.41-.94 4.51 4.51 0 0 1-.87-3.19v-6.71h-1.9v-1.7h1.9v-2.94zM602.17 581.1a1.39 1.39 0 0 1-2.77 0 1.37 1.37 0 0 1 1.4-1.4 1.33 1.33 0 0 1 1.37 1.4zm-2.49 15.74v-12.29h2.23v12.29zM616.74 590.59c0 4.55-3.15 6.53-6.12 6.53-3.32 0-5.89-2.44-5.89-6.32 0-4.12 2.69-6.53 6.1-6.53s5.91 2.57 5.91 6.32zm-9.75.13c0 2.69 1.55 4.72 3.73 4.72s3.74-2 3.74-4.77c0-2.08-1-4.72-3.68-4.72s-3.78 2.44-3.78 4.77zM619.56 587.88c0-1.27 0-2.31-.1-3.33h2l.13 2a4.51 4.51 0 0 1 4.06-2.31c1.7 0 4.34 1 4.34 5.23v7.34h-2.23v-7.08c0-2-.74-3.63-2.85-3.63a3.17 3.17 0 0 0-3 2.28 3 3 0 0 0-.16 1v7.39h-2.23zM291.09 638.15a7.83 7.83 0 0 0 4 1.12c2.26 0 3.58-1.2 3.58-2.92s-.91-2.52-3.22-3.41c-2.8-1-4.52-2.43-4.52-4.85 0-2.66 2.2-4.64 5.53-4.64a7.66 7.66 0 0 1 3.78.84l-.61 1.8a6.72 6.72 0 0 0-3.25-.81c-2.33 0-3.22 1.39-3.22 2.56 0 1.6 1 2.39 3.4 3.3 2.9 1.12 4.37 2.51 4.37 5s-2 4.92-6 4.92a8.84 8.84 0 0 1-4.37-1.09zM306.45 625v3.53h3.2v1.7h-3.2v6.63c0 1.52.43 2.39 1.67 2.39a4.76 4.76 0 0 0 1.3-.16l.1 1.68a5.44 5.44 0 0 1-2 .3 3.09 3.09 0 0 1-2.41-.94 4.51 4.51 0 0 1-.86-3.19v-6.71h-1.91v-1.7h1.91v-2.94zM319 640.84l-.18-1.55h-.08a4.55 4.55 0 0 1-3.76 1.83 3.5 3.5 0 0 1-3.75-3.53c0-3 2.64-4.6 7.38-4.57v-.25a2.53 2.53 0 0 0-2.79-2.85 6.14 6.14 0 0 0-3.2.92l-.51-1.48a7.65 7.65 0 0 1 4-1.09c3.76 0 4.67 2.57 4.67 5v4.59a16.55 16.55 0 0 0 .21 3zm-.33-6.27c-2.44-.05-5.21.38-5.21 2.77a2 2 0 0 0 2.11 2.13 3.06 3.06 0 0 0 3-2.06 2.53 2.53 0 0 0 .13-.71zM327 625v3.53h3.2v1.7H327v6.63c0 1.52.43 2.39 1.67 2.39a4.76 4.76 0 0 0 1.3-.16l.1 1.68a5.44 5.44 0 0 1-2 .3 3.09 3.09 0 0 1-2.41-.94 4.51 4.51 0 0 1-.87-3.19v-6.71h-1.9v-1.7h1.9v-2.94zM335.19 625.1a1.39 1.39 0 0 1-2.77 0 1.36 1.36 0 0 1 1.4-1.4 1.33 1.33 0 0 1 1.37 1.4zm-2.49 15.74v-12.29h2.23v12.29zM338.34 638.56a5.84 5.84 0 0 0 2.94.88c1.63 0 2.39-.81 2.39-1.82s-.64-1.65-2.29-2.26c-2.21-.79-3.25-2-3.25-3.48 0-2 1.6-3.61 4.24-3.61a6.16 6.16 0 0 1 3 .76l-.55 1.63a4.79 4.79 0 0 0-2.52-.71c-1.32 0-2.05.76-2.05 1.67s.73 1.48 2.33 2.09c2.13.81 3.23 1.87 3.23 3.7 0 2.16-1.68 3.68-4.6 3.68a7.06 7.06 0 0 1-3.45-.83zM351.39 625v3.53h3.19v1.7h-3.19v6.63c0 1.52.43 2.39 1.67 2.39a4.76 4.76 0 0 0 1.3-.16l.1 1.68a5.44 5.44 0 0 1-2 .3 3.09 3.09 0 0 1-2.41-.94 4.51 4.51 0 0 1-.87-3.19v-6.71h-1.9v-1.7h1.9v-2.94zM359.59 625.1a1.39 1.39 0 0 1-2.77 0 1.36 1.36 0 0 1 1.39-1.4 1.33 1.33 0 0 1 1.38 1.4zm-2.49 15.74v-12.29h2.23v12.29zM371.8 640.38a8.18 8.18 0 0 1-3.53.71c-3.71 0-6.12-2.51-6.12-6.27a6.24 6.24 0 0 1 6.6-6.52 7.57 7.57 0 0 1 3.1.63l-.51 1.73a5.1 5.1 0 0 0-2.59-.59c-2.82 0-4.34 2.09-4.34 4.65 0 2.84 1.83 4.6 4.26 4.6a6.39 6.39 0 0 0 2.75-.61zM381.22 640.84l-.18-1.55H381a4.55 4.55 0 0 1-3.76 1.83 3.5 3.5 0 0 1-3.75-3.53c0-3 2.64-4.6 7.39-4.57v-.25a2.54 2.54 0 0 0-2.8-2.85 6.14 6.14 0 0 0-3.2.92l-.5-1.48a7.58 7.58 0 0 1 4-1.09c3.76 0 4.67 2.57 4.67 5v4.59a17.55 17.55 0 0 0 .21 3zm-.33-6.27c-2.44-.05-5.21.38-5.21 2.77a2 2 0 0 0 2.11 2.13 3.06 3.06 0 0 0 3-2.06 2.22 2.22 0 0 0 .13-.71zM386.65 622.81h2.23v18h-2.23zM408.64 622.81v14.86c0 1.09 0 2.33.1 3.17h-2l-.1-2.13h-.05a4.55 4.55 0 0 1-4.19 2.41c-3 0-5.26-2.51-5.26-6.25 0-4.08 2.52-6.6 5.51-6.6a4.12 4.12 0 0 1 3.71 1.88v-7.34zm-2.24 10.74a3.76 3.76 0 0 0-.1-.94 3.29 3.29 0 0 0-3.22-2.59c-2.32 0-3.69 2-3.69 4.75 0 2.49 1.22 4.55 3.63 4.55a3.36 3.36 0 0 0 3.28-2.67 3.68 3.68 0 0 0 .1-1zM419.15 640.84l-.18-1.55h-.08a4.55 4.55 0 0 1-3.76 1.83 3.5 3.5 0 0 1-3.75-3.53c0-3 2.64-4.6 7.39-4.57v-.25a2.54 2.54 0 0 0-2.8-2.85 6.14 6.14 0 0 0-3.2.92l-.5-1.48a7.58 7.58 0 0 1 4-1.09c3.76 0 4.67 2.57 4.67 5v4.59a17.55 17.55 0 0 0 .21 3zm-.33-6.27c-2.44-.05-5.21.38-5.21 2.77a2 2 0 0 0 2.11 2.13 3.06 3.06 0 0 0 3-2.06 2.22 2.22 0 0 0 .13-.71zM427.17 625v3.53h3.2v1.7h-3.2v6.63c0 1.52.43 2.39 1.67 2.39a4.76 4.76 0 0 0 1.3-.16l.1 1.68a5.44 5.44 0 0 1-2 .3 3.09 3.09 0 0 1-2.41-.94A4.51 4.51 0 0 1 425 637v-6.71h-1.91v-1.7H425v-2.94zM439.69 640.84l-.18-1.55h-.08a4.55 4.55 0 0 1-3.76 1.83 3.5 3.5 0 0 1-3.75-3.53c0-3 2.64-4.6 7.38-4.57v-.25a2.53 2.53 0 0 0-2.79-2.85 6.14 6.14 0 0 0-3.2.92l-.51-1.48a7.65 7.65 0 0 1 4-1.09c3.76 0 4.67 2.57 4.67 5v4.59a16.55 16.55 0 0 0 .21 3zm-.33-6.27c-2.44-.05-5.21.38-5.21 2.77a2 2 0 0 0 2.11 2.13 3.06 3.06 0 0 0 3-2.06 2.53 2.53 0 0 0 .13-.71zM457.3 640.84l-.17-1.55h-.08a4.56 4.56 0 0 1-3.76 1.83 3.5 3.5 0 0 1-3.76-3.53c0-3 2.65-4.6 7.39-4.57v-.25a2.54 2.54 0 0 0-2.79-2.85 6.11 6.11 0 0 0-3.2.92l-.51-1.48a7.65 7.65 0 0 1 4-1.09c3.76 0 4.67 2.57 4.67 5v4.59a16.55 16.55 0 0 0 .21 3zm-.33-6.27c-2.43-.05-5.2.38-5.2 2.77a2 2 0 0 0 2.11 2.13 3.06 3.06 0 0 0 3-2.06 2.52 2.52 0 0 0 .12-.71zM462.74 631.88c0-1.27 0-2.31-.1-3.33h2l.12 2h.05a4.53 4.53 0 0 1 4.07-2.31c1.7 0 4.34 1 4.34 5.23v7.34H471v-7.08c0-2-.73-3.63-2.84-3.63a3.18 3.18 0 0 0-3 2.28 3.26 3.26 0 0 0-.15 1v7.39h-2.23zM483.63 640.84l-.18-1.55h-.07a4.58 4.58 0 0 1-3.76 1.83 3.5 3.5 0 0 1-3.76-3.53c0-3 2.64-4.6 7.39-4.57v-.25a2.54 2.54 0 0 0-2.79-2.85 6.11 6.11 0 0 0-3.2.92l-.51-1.48a7.65 7.65 0 0 1 4-1.09c3.76 0 4.67 2.57 4.67 5v4.59a17.62 17.62 0 0 0 .2 3zm-.33-6.27c-2.43-.05-5.2.38-5.2 2.77a2 2 0 0 0 2.1 2.13 3.08 3.08 0 0 0 3-2.06 2.52 2.52 0 0 0 .12-.71zM489.07 622.81h2.23v18h-2.23zM495.87 628.55l2.69 7.26c.28.82.58 1.78.79 2.52.23-.74.48-1.68.79-2.57l2.43-7.21H505l-3.35 8.76c-1.6 4.22-2.69 6.37-4.21 7.69a6 6 0 0 1-2.74 1.45l-.56-1.88a5.88 5.88 0 0 0 1.95-1.09A6.72 6.72 0 0 0 498 641a1.63 1.63 0 0 0 .18-.53 1.87 1.87 0 0 0-.15-.58l-4.55-11.33zM506.56 638.56a5.87 5.87 0 0 0 2.94.88c1.63 0 2.39-.81 2.39-1.82s-.63-1.65-2.28-2.26c-2.21-.79-3.25-2-3.25-3.48 0-2 1.59-3.61 4.24-3.61a6.22 6.22 0 0 1 3 .76l-.56 1.63a4.73 4.73 0 0 0-2.52-.71c-1.32 0-2.05.76-2.05 1.67s.73 1.48 2.33 2.09c2.14.81 3.23 1.87 3.23 3.7 0 2.16-1.68 3.68-4.6 3.68a7.09 7.09 0 0 1-3.45-.83zM519.41 625.1a1.39 1.39 0 0 1-2.77 0 1.36 1.36 0 0 1 1.39-1.4 1.33 1.33 0 0 1 1.38 1.4zm-2.49 15.74v-12.29h2.23v12.29zM522.55 638.56a5.88 5.88 0 0 0 3 .88c1.62 0 2.38-.81 2.38-1.82s-.63-1.65-2.28-2.26c-2.21-.79-3.25-2-3.25-3.48 0-2 1.6-3.61 4.24-3.61a6.19 6.19 0 0 1 3 .76l-.56 1.63a4.72 4.72 0 0 0-2.51-.71c-1.32 0-2.06.76-2.06 1.67s.74 1.48 2.34 2.09c2.13.81 3.22 1.87 3.22 3.7 0 2.16-1.67 3.68-4.59 3.68a7.13 7.13 0 0 1-3.46-.83zM538.09 633.15v1.65h-6.27v-1.65zM540.6 640.84c0-.84.1-2.08.1-3.17v-14.86h2.21v7.72h.09a4.58 4.58 0 0 1 4.19-2.26c3.05 0 5.21 2.54 5.18 6.27 0 4.4-2.76 6.58-5.51 6.58a4.38 4.38 0 0 1-4.11-2.31h-.08l-.1 2zm2.31-4.93a3.68 3.68 0 0 0 .11.82 3.43 3.43 0 0 0 3.35 2.61c2.33 0 3.73-1.9 3.73-4.72 0-2.46-1.27-4.57-3.66-4.57a3.56 3.56 0 0 0-3.4 2.74 4.52 4.52 0 0 0-.13.92zM562 640.84l-.17-1.55h-.08a4.55 4.55 0 0 1-3.76 1.83 3.49 3.49 0 0 1-3.75-3.53c0-3 2.64-4.6 7.38-4.57v-.25a2.54 2.54 0 0 0-2.79-2.85 6.14 6.14 0 0 0-3.2.92l-.51-1.48a7.65 7.65 0 0 1 4-1.09c3.76 0 4.67 2.57 4.67 5v4.59a16.55 16.55 0 0 0 .21 3zm-.33-6.27c-2.43-.05-5.2.38-5.2 2.77a2 2 0 0 0 2.11 2.13 3.06 3.06 0 0 0 3-2.06 2.52 2.52 0 0 0 .12-.71zM567.08 638.56a5.88 5.88 0 0 0 2.95.88c1.62 0 2.38-.81 2.38-1.82s-.63-1.65-2.28-2.26c-2.21-.79-3.25-2-3.25-3.48 0-2 1.6-3.61 4.24-3.61a6.19 6.19 0 0 1 3 .76l-.56 1.63a4.72 4.72 0 0 0-2.51-.71c-1.32 0-2.06.76-2.06 1.67s.74 1.48 2.34 2.09c2.13.81 3.22 1.87 3.22 3.7 0 2.16-1.67 3.68-4.59 3.68a7.13 7.13 0 0 1-3.46-.83zM578.69 635.1c0 3 2 4.27 4.21 4.27a8 8 0 0 0 3.4-.64l.38 1.6a9.83 9.83 0 0 1-4.08.76c-3.79 0-6.05-2.48-6.05-6.19s2.19-6.63 5.77-6.63c4 0 5.07 3.53 5.07 5.79a10 10 0 0 1-.07 1zm6.55-1.6c0-1.42-.59-3.63-3.1-3.63-2.26 0-3.25 2.08-3.43 3.63zM600.77 622.81v14.86c0 1.09 0 2.33.11 3.17h-2l-.1-2.13a4.56 4.56 0 0 1-4.19 2.41c-3 0-5.26-2.51-5.26-6.25 0-4.08 2.52-6.6 5.51-6.6a4.12 4.12 0 0 1 3.71 1.88v-7.34zm-2.23 10.74a4.29 4.29 0 0 0-.1-.94 3.29 3.29 0 0 0-3.23-2.59c-2.31 0-3.68 2-3.68 4.75 0 2.49 1.22 4.55 3.63 4.55a3.36 3.36 0 0 0 3.28-2.67 4.16 4.16 0 0 0 .1-1zM620.15 637.49c0 1.27 0 2.39.1 3.35h-2l-.13-2a4.64 4.64 0 0 1-4.06 2.29c-1.93 0-4.24-1.07-4.24-5.38v-7.19H612v6.81c0 2.33.71 3.91 2.74 3.91a3.25 3.25 0 0 0 3-2 3.4 3.4 0 0 0 .2-1.14v-7.54h2.24zM623.85 632.56c0-1.57-.05-2.84-.1-4h2l.1 2.11a4.83 4.83 0 0 1 4.37-2.39c3 0 5.2 2.52 5.2 6.25 0 4.42-2.69 6.6-5.59 6.6a4.31 4.31 0 0 1-3.78-1.93H626v6.68h-2.21zm2.21 3.28a5.07 5.07 0 0 0 .1.91 3.45 3.45 0 0 0 3.35 2.62c2.36 0 3.74-1.93 3.74-4.75 0-2.46-1.3-4.57-3.66-4.57a3.57 3.57 0 0 0-3.38 2.77 3.93 3.93 0 0 0-.15.91zM648.88 628.55c0 .89-.1 1.88-.1 3.38v7.13c0 2.82-.56 4.55-1.75 5.61a6.5 6.5 0 0 1-4.47 1.48 8 8 0 0 1-4.09-1l.56-1.7a7 7 0 0 0 3.61 1c2.28 0 4-1.19 4-4.29v-1.37h-.05a4.38 4.38 0 0 1-3.91 2.06c-3 0-5.23-2.59-5.23-6 0-4.17 2.71-6.53 5.53-6.53a4.11 4.11 0 0 1 3.84 2.13h.05l.1-1.85zm-2.31 4.85a3.18 3.18 0 0 0-.12-1 3.23 3.23 0 0 0-3.13-2.37c-2.13 0-3.65 1.81-3.65 4.65 0 2.41 1.22 4.42 3.63 4.42a3.28 3.28 0 0 0 3.1-2.29 4.08 4.08 0 0 0 .17-1.19zM652.34 632.39c0-1.45 0-2.7-.11-3.84h2l.08 2.41h.1a3.68 3.68 0 0 1 3.4-2.69 2.41 2.41 0 0 1 .63.08v2.11a2.81 2.81 0 0 0-.76-.08 3.13 3.13 0 0 0-3 2.87 6.26 6.26 0 0 0-.11 1v6.55h-2.2zM667.32 640.84l-.18-1.55h-.08a4.55 4.55 0 0 1-3.76 1.83 3.5 3.5 0 0 1-3.75-3.53c0-3 2.64-4.6 7.38-4.57v-.25a2.53 2.53 0 0 0-2.79-2.85 6.14 6.14 0 0 0-3.2.92l-.51-1.48a7.65 7.65 0 0 1 4-1.09c3.76 0 4.67 2.57 4.67 5v4.59a16.55 16.55 0 0 0 .21 3zm-.33-6.27c-2.44-.05-5.21.38-5.21 2.77a2 2 0 0 0 2.11 2.13 3.06 3.06 0 0 0 3-2.06 2.53 2.53 0 0 0 .13-.71zM683.36 622.81v14.86c0 1.09 0 2.33.1 3.17h-2l-.1-2.13h-.06a4.53 4.53 0 0 1-4.18 2.41c-3 0-5.26-2.51-5.26-6.25 0-4.08 2.51-6.6 5.51-6.6a4.12 4.12 0 0 1 3.71 1.88v-7.34zm-2.23 10.74a4.29 4.29 0 0 0-.1-.94 3.29 3.29 0 0 0-3.23-2.61c-2.31 0-3.68 2-3.68 4.75 0 2.49 1.22 4.55 3.63 4.55a3.36 3.36 0 0 0 3.28-2.67 4.16 4.16 0 0 0 .1-1zM688.31 635.1c.05 3 2 4.27 4.22 4.27a8 8 0 0 0 3.4-.64l.38 1.6a9.89 9.89 0 0 1-4.09.76c-3.78 0-6-2.48-6-6.19s2.18-6.63 5.76-6.63c4 0 5.08 3.53 5.08 5.79a7.43 7.43 0 0 1-.08 1zm6.55-1.6c0-1.42-.58-3.63-3.1-3.63-2.26 0-3.25 2.08-3.42 3.63zM91.37 82.17h6c1.38-16.36 9-28.87 23.94-36s29.45-5.28 43.19 3.94a6.51 6.51 0 0 1 9.4 8.46 1.26 1.26 0 0 0 .1 1.55 41.11 41.11 0 0 1 7.32 21.23c.05.76.3 1 1 1h5v3.16h-15.11c-.16 1.28-.36 2.46-.43 3.64 0 .29.32.67.59.9 1.27 1.1 2.59 2.12 3.83 3.24a1.54 1.54 0 0 1 .44 1.22 35 35 0 0 1-3.87 9.58 1.52 1.52 0 0 1-1.17.58c-1.67-.08-3.33-.33-5-.39a2.24 2.24 0 0 0-1.45.6q-3.18 3.07-6.25 6.25a2 2 0 0 0-.56 1.34c.08 1.74.33 3.48.42 5.23a1.32 1.32 0 0 1-.57 1.06q-4.74 2.06-9.55 4a1.32 1.32 0 0 1-1.14-.39c-1.14-1.27-2.17-2.65-3.33-3.91a2.21 2.21 0 0 0-1.44-.63c-2.95-.06-5.9 0-8.84 0a2.08 2.08 0 0 0-1.36.58c-1.15 1.26-2.22 2.6-3.28 3.94a1 1 0 0 1-1.39.4c-3.07-1.3-6.16-2.56-9.24-3.83a1.08 1.08 0 0 1-.73-1.35c.24-1.73.38-3.48.49-5.23a1.57 1.57 0 0 0-.44-1.06c-2.15-2.18-4.31-4.36-6.52-6.48a2 2 0 0 0-1.39-.49c-1.66.08-3.33.32-5 .4a1.4 1.4 0 0 1-1.14-.61q-2-4.71-3.85-9.48a1.42 1.42 0 0 1 .38-1.23c1.26-1.15 2.63-2.19 3.9-3.34a1.81 1.81 0 0 0 .52-1.25c0-1-.22-2.07-.36-3.25H91.37zm9.41.09h77.35A38.28 38.28 0 0 0 171 61.41a1.78 1.78 0 0 0-.36 0 6.52 6.52 0 0 1-8.55-8.16 1.37 1.37 0 0 0-.52-1.17c-2.38-1.38-4.76-2.8-7.24-4a58.12 58.12 0 0 0-5.76-2v21.51h5.74l-7.41 12.82-7.44-12.89h5.8V45.59a36.09 36.09 0 0 0-11.55 0v22h5.71L132 80.41l-7.46-13h5.78V46.29C112.49 50.42 101 66.8 100.78 82.26zm56.92 3.25a19.52 19.52 0 0 1-17.63 18.14 18.89 18.89 0 0 1-12-2.91 19.32 19.32 0 0 1-9-15.17h-11.33c.2 1.54.44 3 .56 4.38a1.74 1.74 0 0 1-.44 1.27c-1.2 1.1-2.48 2.13-3.76 3.14a1 1 0 0 0-.37 1.39c.66 1.57 1.3 3.16 1.91 4.75.27.73.73.86 1.45.77 1.54-.19 3.09-.36 4.64-.4a1.86 1.86 0 0 1 1.39.67 31.06 31.06 0 0 0 7.92 7.84 1.44 1.44 0 0 1 .72 1.53c-.19 1.63-.37 3.25-.44 4.88a1.48 1.48 0 0 0 .66 1.12c1.58.74 3.19 1.42 4.83 2a1.47 1.47 0 0 0 1.25-.37c1.07-1.17 2.09-2.41 3.06-3.67a1.47 1.47 0 0 1 1.68-.64 27.23 27.23 0 0 0 11.12 0 1.42 1.42 0 0 1 1.59.6c1 1.28 2 2.55 3.14 3.76a1.37 1.37 0 0 0 1.15.36c1.68-.61 3.33-1.3 4.95-2a1.31 1.31 0 0 0 .59-1.05c-.08-1.63-.26-3.25-.43-4.87a1.44 1.44 0 0 1 .68-1.56 31 31 0 0 0 8-7.93 1.81 1.81 0 0 1 1.31-.63c1.59.06 3.18.24 4.76.41.66.08 1.1 0 1.36-.72.62-1.63 1.33-3.23 1.91-4.88a1.43 1.43 0 0 0-.34-1.24c-1.17-1.08-2.42-2.08-3.66-3.07a1.29 1.29 0 0 1-.58-1.46c.3-1.42.4-2.88.59-4.39zm-3.41 0h-31.91c.07 6.69 6.16 15 16 14.94 9.74.01 15.84-8.2 15.91-14.9zM165 55.45a3.26 3.26 0 0 0 3.22 3.28 3.31 3.31 0 1 0 0-6.61 3.27 3.27 0 0 0-3.22 3.33zM111.17 318v-61.09c0-1.93.36-2.3 2.26-2.3h47.12c1.89 0 2.24.35 2.24 2.2v61.1c.48 0 .85.06 1.23.06h9.23c.92 0 1.74.14 2 1.18s-.38 1.48-1.15 1.91q-17.94 10.05-35.86 20.13a2.26 2.26 0 0 1-2.47 0q-17.91-10.08-35.86-20.13c-.77-.43-1.37-.95-1.14-1.91s1.07-1.17 2-1.17c3.4.02 6.83.02 10.4.02zm56.33 3.26v-.22h-5.35c-1.89 0-2.29-.41-2.29-2.3v-61h-45.68v61c0 1.89-.43 2.31-2.31 2.31h-5.35a2.07 2.07 0 0 0 .82.71q14.32 8.06 28.64 16.11a1.78 1.78 0 0 0 2 0q13.11-7.39 26.25-14.74c1.1-.64 2.19-1.27 3.27-1.89z"/><path class="cls-4" d="M143.36 284.35l-1 2.76a9.67 9.67 0 0 0-5.3-1.08c-2.37.21-3.85 1.82-3.66 3.94a3.35 3.35 0 0 0 1.72 2.65c.94.56 2 1 2.94 1.46s2 .89 2.93 1.45a6.06 6.06 0 0 1 3.17 6.13 6.31 6.31 0 0 1-4.3 5.65c-.42.17-.86.31-1.34.48v6.47H144c-2.37 4.11-4.61 8-7 12.12l-7-12.05h5.37v-5.88c0-.19-.54-.43-.86-.51-1.29-.35-2.6-.62-3.89-1-.73-.19-1-.63-.66-1.42a12.5 12.5 0 0 0 .53-1.69 11 11 0 0 0 6.43 1.49 4.07 4.07 0 0 0 4-3.43 3.51 3.51 0 0 0-1.43-3.64 23.7 23.7 0 0 0-3.07-1.64c-1-.52-2.15-.92-3.14-1.52a6.08 6.08 0 0 1 1-11.05 1.41 1.41 0 0 0 1.13-1.68 21 21 0 0 1 0-3.07 1.1 1.1 0 0 0-.83-1.24 6.06 6.06 0 0 1 1-11.49 6.09 6.09 0 0 1 6.58 2.79 5.93 5.93 0 0 1-.65 7.09 19 19 0 0 1-2.38 1.71 1.5 1.5 0 0 0-.61.9c-.07 1.16 0 2.33 0 3.5 0 .64.22.8.84.9 1.29.23 2.57.55 4 .9zM137 269.47a3.07 3.07 0 0 0-3.11 3 3.15 3.15 0 0 0 3.1 3.12 3.06 3.06 0 0 0 3-3.06 3 3 0 0 0-2.99-3.06zM105 503.79v-1.39a16.36 16.36 0 0 1 1.58-1q11.08-5.55 22.19-11.06c1-.51 2-1 3.07-1.55a5.15 5.15 0 0 1 2.21-5.92 6.92 6.92 0 0 1 7.73-.27 5.2 5.2 0 0 1 2.67 6.09l1.09.55q12.33 6.15 24.66 12.32a6.65 6.65 0 0 1 1.43 1.38v.18a4.84 4.84 0 0 0-.19.65q-3.13 17.88-6.27 35.75a2 2 0 0 1-1.08 1.58c-1 .57-2.06 1.18-3.09 1.78l-5.91 3.45c.3.26.53.42.73.62 1.5 1.57 3 3.15 4.5 4.71a.65.65 0 0 1 0 1 50 50 0 0 1-4.26 4.46 29 29 0 0 1-33.63 1.56 24.41 24.41 0 0 1-6.79-6.73l5.57-5.75-.61-.38c-2.69-1.57-5.36-3.15-8.06-4.68a2.33 2.33 0 0 1-1.25-1.74q-2.61-15.15-5.28-30.27c-.29-1.77-.66-3.55-1.01-5.34zm62.82 1.85l-1 .51c-9 4.51-18.07 9-27.09 13.54a2.91 2.91 0 0 1-2.87 0q-13.58-6.83-27.18-13.58c-.27-.14-.55-.25-.92-.42.06.44.09.75.15 1.06q2.76 15.74 5.55 31.47a1.57 1.57 0 0 0 .67 1c2.81 1.68 5.66 3.31 8.48 5a1.36 1.36 0 0 0 1.35 0c2.3-.88 4.59-1.79 6.95-2.48a34.53 34.53 0 0 1 4.71-.77v-6h-5.93l7.47-11.17 7.49 11.21h-5.71v6c.13 0 .21.07.29.08a29.37 29.37 0 0 1 11.59 3.18 1.31 1.31 0 0 0 1.09-.08c2.7-1.53 5.36-3.14 8.07-4.64a2.34 2.34 0 0 0 1.28-1.87c1.39-8.12 2.83-16.24 4.25-24.36.41-2.51.85-5.02 1.31-7.68zm-1.23-2.64a4.64 4.64 0 0 0-.5-.31q-11.37-5.69-22.73-11.37a.87.87 0 0 0-1.07.15 7.2 7.2 0 0 1-8.18.09 1.1 1.1 0 0 0-1.32-.07q-11.05 5.55-22.11 11.05c-.24.12-.47.26-.75.42.19.12.29.19.39.24q13.68 6.8 27.36 13.63a1.63 1.63 0 0 0 1.26-.05c5.08-2.5 10.14-5 15.2-7.56zm-46.87 49.15c9.06 11.27 28.42 11 37.05 0-8.91-11.15-28.32-11.03-37.05.03zm18.33-62l.08-.2a3 3 0 0 0 .52 0 3.14 3.14 0 0 0 2.62-2 2.39 2.39 0 0 0-.73-2.69 3.61 3.61 0 0 0-4.77-.05 2.49 2.49 0 0 0 .11 4 10.63 10.63 0 0 0 2.17.99z"/><path class="cls-4" d="M138.24 557.88a7.45 7.45 0 0 1-4.52-1.69A5.09 5.09 0 0 1 134 548a7 7 0 0 1 7.73-.53 5.06 5.06 0 0 1 3 5.17 5.4 5.4 0 0 1-3.94 4.74 16.26 16.26 0 0 1-2.55.5zm.11-8.54c-2.17 0-3.78 1.66-3.3 3.49a3.31 3.31 0 0 0 3.23 2.19 3.24 3.24 0 0 0 3.17-2.26 2.94 2.94 0 0 0-3.1-3.42z"/></svg>