<svg id="Layer_1" data-name="Layer 1" xmlns="http://www.w3.org/2000/svg" viewBox="0 0 1238 516.36"><defs><style>.cls-4,.cls-6,.cls-7{fill:none}.cls-6{stroke-miterlimit:10;stroke-width:2px}.cls-3{fill:#4c0519}.cls-4{stroke:#4c0519;stroke-miterlimit:10;stroke-width:3px}.cls-5{fill:#fbc2ba}.cls-6{stroke:#f16c51}</style></defs><path fill="#fcddd6" d="M415.13 0v516.97H823.1V.12L415.13 0z"/><path stroke-miterlimit="10" stroke-width="2" stroke="#fbc2ba" fill="none" d="M434.23 170.99L804 172.13"/><path class="cls-3" d="M563.42 78.62a34.76 34.76 0 0 1 6.06-.48c3.08 0 5 .38 6.53 1.46a4.81 4.81 0 0 1 2.37 4.26 5.32 5.32 0 0 1-3.79 5v.06a5.76 5.76 0 0 1 4.6 5.65 5.91 5.91 0 0 1-2.2 4.71c-1.62 1.42-4.3 2.13-8.46 2.13a41.64 41.64 0 0 1-5.11-.3zm4.13 9h2.13c2.88 0 4.5-1.35 4.5-3.28 0-2.13-1.62-3.12-4.26-3.12a11.42 11.42 0 0 0-2.37.17zm0 10.49a17.93 17.93 0 0 0 2.2.1c2.67 0 5-1 5-3.82 0-2.64-2.3-3.72-5.18-3.72h-2.06zM582.75 90c0-2.24 0-3.83-.14-5.32h3.62l.14 3.15h.14a4.91 4.91 0 0 1 4.5-3.52 4.28 4.28 0 0 1 1 .1v3.89a5.62 5.62 0 0 0-1.22-.14 3.67 3.67 0 0 0-3.72 3.15 6.88 6.88 0 0 0-.14 1.29v8.52h-4.16zM603.77 101.12l-.27-1.82h-.1a6.16 6.16 0 0 1-4.88 2.2 4.9 4.9 0 0 1-5.18-4.91c0-4.16 3.69-6.26 9.79-6.23v-.27c0-1.08-.44-2.88-3.36-2.88a8.75 8.75 0 0 0-4.43 1.22l-.81-2.71a11.93 11.93 0 0 1 6-1.45c5.28 0 6.8 3.35 6.8 6.94v6a26.23 26.23 0 0 0 .24 4zm-.54-8.05c-3-.07-5.76.57-5.76 3.08a2.19 2.19 0 0 0 2.37 2.37 3.38 3.38 0 0 0 3.25-2.27 3 3 0 0 0 .14-.91zM611.69 89.55c0-1.9 0-3.49-.13-4.91h3.65l.2 2.47h.11a5.94 5.94 0 0 1 5.24-2.84c2.88 0 5.86 1.86 5.86 7.07v9.78h-4.17v-9.3c0-2.37-.88-4.17-3.14-4.17a3.5 3.5 0 0 0-3.25 2.44 4.1 4.1 0 0 0-.17 1.35v9.68h-4.2zM646.25 77.1v19.39c0 1.69.07 3.52.14 4.63h-3.73l-.17-2.6h-.06a6 6 0 0 1-5.39 3c-3.92 0-7-3.35-7-8.43 0-5.52 3.42-8.8 7.38-8.8a5.26 5.26 0 0 1 4.58 2.15h.07V77.1zm-4.16 14.41a6.57 6.57 0 0 0-.1-1.08 3.66 3.66 0 0 0-3.59-2.94c-2.68 0-4.16 2.36-4.16 5.44s1.48 5.22 4.12 5.22a3.66 3.66 0 0 0 3.59-3 4.7 4.7 0 0 0 .14-1.22zM655.16 80a2.34 2.34 0 1 1-2.34-2.27 2.23 2.23 0 0 1 2.34 2.27zm-4.44 21.08V84.64h4.2v16.48zM659.39 89.55c0-1.9 0-3.49-.14-4.91h3.66l.2 2.47h.1a6 6 0 0 1 5.25-2.84c2.87 0 5.85 1.86 5.85 7.07v9.78h-4.16v-9.3c0-2.37-.88-4.17-3.15-4.17a3.5 3.5 0 0 0-3.25 2.44 4.38 4.38 0 0 0-.17 1.35v9.68h-4.19zM693.81 84.64c-.07 1.12-.14 2.47-.14 4.74v9.34c0 3.45-.71 5.92-2.43 7.48a9.51 9.51 0 0 1-6.36 2 11.68 11.68 0 0 1-5.76-1.32l.92-3.15a9.88 9.88 0 0 0 4.8 1.25c2.71 0 4.74-1.42 4.74-5v-1.39h-.07a5.57 5.57 0 0 1-4.8 2.43c-4.1 0-7-3.38-7-8 0-5.42 3.52-8.7 7.48-8.7a5.2 5.2 0 0 1 4.81 2.52l.17-2.2zm-4.3 6.6a4 4 0 0 0-.13-1.11 3.46 3.46 0 0 0-3.38-2.68c-2.33 0-4.06 2-4.06 5.38 0 2.81 1.42 5.08 4 5.08a3.55 3.55 0 0 0 3.38-2.51 7.14 7.14 0 0 0 .17-1.48zM490.35 204.73v10.13c0 3.83 1.7 5.46 4 5.46 2.54 0 4.16-1.68 4.16-5.46v-10.13h2.24v10c0 5.25-2.77 7.41-6.48 7.41-3.5 0-6.14-2-6.14-7.31v-10.1zM504 219.56a5.87 5.87 0 0 0 2.94.88c1.63 0 2.39-.81 2.39-1.82s-.64-1.65-2.29-2.26c-2.21-.79-3.25-2-3.25-3.48 0-2 1.6-3.61 4.24-3.61a6.23 6.23 0 0 1 3 .76l-.56 1.63A4.76 4.76 0 0 0 508 211c-1.32 0-2 .76-2 1.67s.73 1.48 2.33 2.09c2.14.81 3.23 1.87 3.23 3.7 0 2.16-1.68 3.68-4.6 3.68a7.09 7.09 0 0 1-3.45-.83zM515.64 216.1c.05 3 2 4.27 4.21 4.27a8 8 0 0 0 3.41-.64l.38 1.6a9.93 9.93 0 0 1-4.09.76c-3.78 0-6-2.48-6-6.19s2.18-6.63 5.76-6.63c4 0 5.08 3.53 5.08 5.79a7.43 7.43 0 0 1-.08 1zm6.55-1.6c0-1.42-.58-3.63-3.1-3.63-2.26 0-3.25 2.08-3.43 3.63zM527.12 213.39c0-1.45 0-2.7-.11-3.84h2L529 212h.11a3.68 3.68 0 0 1 3.4-2.69 2.41 2.41 0 0 1 .63.08v2.11a2.81 2.81 0 0 0-.76-.08 3.13 3.13 0 0 0-3 2.87 5.35 5.35 0 0 0-.11 1v6.55h-2.2zM542 216.1c.05 3 2 4.27 4.22 4.27a8 8 0 0 0 3.4-.64l.38 1.6a9.89 9.89 0 0 1-4.09.76c-3.78 0-6-2.48-6-6.19s2.18-6.63 5.76-6.63c4 0 5.08 3.53 5.08 5.79a10 10 0 0 1-.07 1zm6.55-1.6c0-1.42-.58-3.63-3.09-3.63-2.26 0-3.25 2.08-3.43 3.63zM554.48 209.55l1.76 2.64c.45.69.83 1.32 1.24 2h.08c.4-.74.81-1.37 1.21-2l1.73-2.62h2.41l-4.19 5.94 4.32 6.35h-2.54l-1.8-2.77c-.48-.71-.89-1.39-1.32-2.13-.41.74-.84 1.4-1.3 2.13l-1.78 2.77h-2.46l4.37-6.27-4.16-6zM565.2 213.56c0-1.57-.05-2.84-.1-4h2l.1 2.11a4.85 4.85 0 0 1 4.37-2.39c3 0 5.21 2.52 5.21 6.25 0 4.42-2.7 6.6-5.59 6.6a4.3 4.3 0 0 1-3.78-1.93h-.05v6.68h-2.16zm2.21 3.28a5.07 5.07 0 0 0 .1.91 3.44 3.44 0 0 0 3.35 2.62c2.36 0 3.73-1.93 3.73-4.75 0-2.46-1.29-4.57-3.65-4.57a3.56 3.56 0 0 0-3.38 2.77 3.47 3.47 0 0 0-.15.91zM580.89 216.1c.05 3 2 4.27 4.21 4.27a8 8 0 0 0 3.4-.64l.38 1.6a9.83 9.83 0 0 1-4.08.76c-3.79 0-6-2.48-6-6.19s2.19-6.63 5.77-6.63c4 0 5.08 3.53 5.08 5.79a9.4 9.4 0 0 1-.08 1zm6.55-1.6c0-1.42-.59-3.63-3.1-3.63-2.26 0-3.25 2.08-3.43 3.63zM592.36 213.39c0-1.45 0-2.7-.1-3.84h2l.07 2.41h.1a3.69 3.69 0 0 1 3.41-2.69 2.41 2.41 0 0 1 .63.08v2.11a2.91 2.91 0 0 0-.76-.08 3.13 3.13 0 0 0-3 2.87 6.33 6.33 0 0 0-.1 1v6.55h-2.21zM603.25 206.1a1.38 1.38 0 0 1-2.76 0 1.36 1.36 0 0 1 1.39-1.4 1.33 1.33 0 0 1 1.37 1.4zm-2.48 15.74v-12.29H603v12.29zM608 216.1c0 3 2 4.27 4.21 4.27a8 8 0 0 0 3.41-.64l.38 1.6a9.89 9.89 0 0 1-4.09.76c-3.78 0-6-2.48-6-6.19s2.18-6.63 5.76-6.63c4 0 5.08 3.53 5.08 5.79a7.43 7.43 0 0 1-.08 1zm6.55-1.6c0-1.42-.58-3.63-3.1-3.63-2.26 0-3.25 2.08-3.42 3.63zM619.43 212.88c0-1.27 0-2.31-.11-3.33h2l.13 2h.05a4.51 4.51 0 0 1 4.06-2.31c1.71 0 4.35 1 4.35 5.23v7.34h-2.24v-7.08c0-2-.73-3.63-2.84-3.63a3.18 3.18 0 0 0-3 2.28 3.26 3.26 0 0 0-.15 1v7.39h-2.23zM642.28 221.38a8.18 8.18 0 0 1-3.53.71c-3.71 0-6.12-2.51-6.12-6.27a6.24 6.24 0 0 1 6.6-6.52 7.57 7.57 0 0 1 3.1.63l-.51 1.73a5.1 5.1 0 0 0-2.59-.59c-2.82 0-4.34 2.09-4.34 4.65 0 2.84 1.83 4.6 4.26 4.6a6.39 6.39 0 0 0 2.75-.61zM646 216.1c0 3 2 4.27 4.22 4.27a8 8 0 0 0 3.4-.64l.38 1.6a9.89 9.89 0 0 1-4.09.76c-3.78 0-6-2.48-6-6.19s2.18-6.63 5.76-6.63c4 0 5.08 3.53 5.08 5.79a10 10 0 0 1-.07 1zm6.55-1.6c0-1.42-.58-3.63-3.09-3.63-2.26 0-3.25 2.08-3.43 3.63zM673.45 203.81v14.86c0 1.09 0 2.33.1 3.17h-2l-.1-2.13h-.05a4.56 4.56 0 0 1-4.19 2.41c-3 0-5.26-2.51-5.26-6.25 0-4.08 2.51-6.6 5.51-6.6a4.12 4.12 0 0 1 3.71 1.88h.05v-7.34zm-2.23 10.74a4.29 4.29 0 0 0-.1-.94 3.29 3.29 0 0 0-3.23-2.59c-2.31 0-3.68 2-3.68 4.75 0 2.49 1.22 4.55 3.63 4.55a3.36 3.36 0 0 0 3.28-2.67 4.16 4.16 0 0 0 .1-1zM678.4 216.1c.05 3 2 4.27 4.22 4.27a8 8 0 0 0 3.4-.64l.38 1.6a9.89 9.89 0 0 1-4.09.76c-3.78 0-6-2.48-6-6.19s2.18-6.63 5.76-6.63c4 0 5.08 3.53 5.08 5.79a10 10 0 0 1-.07 1zm6.55-1.6c0-1.42-.58-3.63-3.09-3.63-2.26 0-3.25 2.08-3.43 3.63zM689.57 219.56a5.88 5.88 0 0 0 2.95.88c1.62 0 2.39-.81 2.39-1.82s-.64-1.65-2.29-2.26c-2.21-.79-3.25-2-3.25-3.48 0-2 1.6-3.61 4.24-3.61a6.16 6.16 0 0 1 3 .76l-.56 1.63a4.72 4.72 0 0 0-2.51-.71c-1.32 0-2.06.76-2.06 1.67s.74 1.48 2.34 2.09c2.13.81 3.22 1.87 3.22 3.7 0 2.16-1.67 3.68-4.59 3.68a7.06 7.06 0 0 1-3.45-.83zM702.42 206.1a1.31 1.31 0 0 1-1.42 1.37 1.33 1.33 0 0 1-1.35-1.37 1.37 1.37 0 0 1 1.4-1.4 1.33 1.33 0 0 1 1.37 1.4zm-2.49 15.74v-12.29h2.24v12.29zM716.46 209.55c-.05.89-.1 1.88-.1 3.38v7.13c0 2.82-.56 4.55-1.75 5.61a6.52 6.52 0 0 1-4.47 1.48 8 8 0 0 1-4.09-1l.56-1.7a6.89 6.89 0 0 0 3.6 1c2.29 0 4-1.19 4-4.29v-1.37h-.06a4.36 4.36 0 0 1-3.91 2.06c-3 0-5.23-2.59-5.23-6 0-4.17 2.72-6.53 5.54-6.53a4.09 4.09 0 0 1 3.83 2.13l.11-1.85zm-2.31 4.85a3.17 3.17 0 0 0-.13-1 3.21 3.21 0 0 0-3.12-2.4c-2.13 0-3.66 1.81-3.66 4.65 0 2.41 1.22 4.42 3.63 4.42a3.27 3.27 0 0 0 3.1-2.29 3.78 3.78 0 0 0 .18-1.19zM719.91 212.88c0-1.27 0-2.31-.1-3.33h2l.13 2h.06a4.51 4.51 0 0 1 4.06-2.31c1.7 0 4.34 1 4.34 5.23v7.34h-2.23v-7.08c0-2-.74-3.63-2.85-3.63a3.17 3.17 0 0 0-3 2.28 3.26 3.26 0 0 0-.15 1v7.39h-2.24zM488.14 260.32a25.46 25.46 0 0 1 4.24-.33 7 7 0 0 1 4.8 1.42 4.6 4.6 0 0 1 1.5 3.58 5.06 5.06 0 0 1-1.32 3.66 7.11 7.11 0 0 1-5.23 1.88 7.45 7.45 0 0 1-1.78-.16v6.86h-2.21zm2.21 8.25a7.34 7.34 0 0 0 1.83.18c2.67 0 4.29-1.3 4.29-3.66s-1.6-3.35-4-3.35a9.37 9.37 0 0 0-2.09.18zM512.06 271c0 4.55-3.15 6.53-6.12 6.53-3.32 0-5.89-2.44-5.89-6.32 0-4.12 2.69-6.53 6.1-6.53s5.91 2.54 5.91 6.32zm-9.75.13c0 2.69 1.55 4.72 3.73 4.72s3.74-2 3.74-4.77c0-2.08-1-4.72-3.69-4.72s-3.78 2.41-3.78 4.75zM514.88 268.77c0-1.44 0-2.69-.1-3.83h2l.08 2.41h.1a3.68 3.68 0 0 1 3.4-2.69 2.49 2.49 0 0 1 .64.08v2.1a3.45 3.45 0 0 0-.76-.07 3.13 3.13 0 0 0-3 2.87 6.33 6.33 0 0 0-.1 1v6.55h-2.21zM526.48 261.41v3.53h3.2v1.7h-3.2v6.63c0 1.52.43 2.38 1.68 2.38a4.81 4.81 0 0 0 1.29-.15l.1 1.68a5.4 5.4 0 0 1-2 .3 3.09 3.09 0 0 1-2.41-.94 4.57 4.57 0 0 1-.86-3.2v-6.7h-1.91v-1.7h1.91V262zM539 277.23l-.18-1.55h-.08a4.57 4.57 0 0 1-3.75 1.83 3.5 3.5 0 0 1-3.76-3.53c0-3 2.64-4.6 7.39-4.57v-.26a2.54 2.54 0 0 0-2.8-2.84 6.23 6.23 0 0 0-3.2.91l-.5-1.47a7.61 7.61 0 0 1 4-1.09c3.76 0 4.68 2.56 4.68 5v4.59a17.62 17.62 0 0 0 .2 3zm-.33-6.27c-2.44 0-5.21.38-5.21 2.76a2 2 0 0 0 2.11 2.14 3.05 3.05 0 0 0 3-2.06 2.22 2.22 0 0 0 .13-.71zM544.43 259.2h2.23v18h-2.23zM550.12 274.94a5.78 5.78 0 0 0 2.94.89c1.63 0 2.39-.81 2.39-1.83s-.64-1.65-2.29-2.26c-2.2-.78-3.25-2-3.25-3.47 0-2 1.6-3.61 4.24-3.61a6.23 6.23 0 0 1 3 .76l-.56 1.63a4.76 4.76 0 0 0-2.52-.71c-1.32 0-2.05.76-2.05 1.67s.73 1.47 2.33 2.08c2.14.82 3.23 1.88 3.23 3.71 0 2.16-1.68 3.68-4.6 3.68a7 7 0 0 1-3.45-.84zM572.66 277.23l-.18-1.55h-.07a4.61 4.61 0 0 1-3.76 1.83 3.5 3.5 0 0 1-3.76-3.53c0-3 2.64-4.6 7.39-4.57v-.26a2.53 2.53 0 0 0-2.79-2.84 6.2 6.2 0 0 0-3.2.91l-.51-1.47a7.65 7.65 0 0 1 4-1.09c3.76 0 4.67 2.56 4.67 5v4.59a17.62 17.62 0 0 0 .2 3zm-.33-6.27c-2.44 0-5.2.38-5.2 2.76a2 2 0 0 0 2.1 2.14 3.08 3.08 0 0 0 3-2.06 2.52 2.52 0 0 0 .12-.71zM578.09 268.27c0-1.27 0-2.31-.1-3.33h2l.13 2a4.51 4.51 0 0 1 4.06-2.31c1.7 0 4.35 1 4.35 5.23v7.34h-2.24v-7.09c0-2-.74-3.63-2.84-3.63a3.18 3.18 0 0 0-3 2.29 3.26 3.26 0 0 0-.15 1v7.39h-2.24zM602.8 259.2v14.86c0 1.09 0 2.33.1 3.17h-2l-.1-2.13a4.54 4.54 0 0 1-4.19 2.41c-3 0-5.25-2.52-5.25-6.25 0-4.09 2.51-6.6 5.51-6.6a4.09 4.09 0 0 1 3.7 1.88v-7.34zm-2.24 10.74a3.76 3.76 0 0 0-.1-.94 3.29 3.29 0 0 0-3.22-2.59c-2.31 0-3.68 2-3.68 4.75 0 2.49 1.22 4.55 3.63 4.55a3.35 3.35 0 0 0 3.27-2.67 3.75 3.75 0 0 0 .1-1zM612.12 277.23v-10.59h-1.73v-1.7h1.73v-.58a5.83 5.83 0 0 1 1.42-4.3 4.26 4.26 0 0 1 3-1.14 5.14 5.14 0 0 1 1.91.36l-.31 1.72a3.34 3.34 0 0 0-1.42-.28c-1.9 0-2.39 1.68-2.39 3.56v.66h3v1.7h-3v10.59zM619.3 268.77c0-1.44 0-2.69-.1-3.83h1.95l.08 2.41h.1a3.69 3.69 0 0 1 3.4-2.69 2.49 2.49 0 0 1 .64.08v2.1a3.45 3.45 0 0 0-.76-.07 3.13 3.13 0 0 0-3 2.87 6.33 6.33 0 0 0-.1 1v6.55h-2.21zM638.47 271c0 4.55-3.15 6.53-6.12 6.53-3.33 0-5.89-2.44-5.89-6.32 0-4.12 2.69-6.53 6.09-6.53s5.92 2.54 5.92 6.32zm-9.75.13c0 2.69 1.55 4.72 3.73 4.72s3.73-2 3.73-4.77c0-2.08-1-4.72-3.68-4.72s-3.78 2.41-3.78 4.75zM641.29 268.27c0-1.27 0-2.31-.11-3.33h2l.13 2h.05a4.52 4.52 0 0 1 4.07-2.31c1.7 0 4.34 1 4.34 5.23v7.34h-2.24v-7.09c0-2-.73-3.63-2.84-3.63a3.19 3.19 0 0 0-3 2.29 3.26 3.26 0 0 0-.15 1v7.39h-2.23zM658 261.41v3.53h3.2v1.7H658v6.63c0 1.52.43 2.38 1.67 2.38a4.84 4.84 0 0 0 1.3-.15l.1 1.68a5.44 5.44 0 0 1-2 .3 3.09 3.09 0 0 1-2.41-.94 4.52 4.52 0 0 1-.87-3.2v-6.7h-1.9v-1.7h1.9V262zM670.3 271.49c.06 3 2 4.27 4.22 4.27a8 8 0 0 0 3.4-.64l.38 1.6a9.85 9.85 0 0 1-4.09.76c-3.78 0-6-2.49-6-6.19s2.19-6.63 5.77-6.63c4 0 5.07 3.53 5.07 5.79a10 10 0 0 1-.07 1zm6.56-1.6c0-1.42-.59-3.63-3.1-3.63-2.26 0-3.25 2.08-3.43 3.63zM681.78 268.27c0-1.27 0-2.31-.1-3.33h2l.13 2h.05a4.51 4.51 0 0 1 4.06-2.31c1.7 0 4.34 1 4.34 5.23v7.34H690v-7.09c0-2-.74-3.63-2.85-3.63a3.18 3.18 0 0 0-3 2.29 3.25 3.25 0 0 0-.16 1v7.39h-2.23zM706.48 259.2v14.86c0 1.09 0 2.33.11 3.17h-2l-.1-2.13h-.05a4.56 4.56 0 0 1-4.19 2.41c-3 0-5.26-2.52-5.26-6.25 0-4.09 2.52-6.6 5.51-6.6a4.12 4.12 0 0 1 3.71 1.88v-7.34zm-2.23 10.74a4.29 4.29 0 0 0-.1-.94 3.29 3.29 0 0 0-3.23-2.59c-2.31 0-3.68 2-3.68 4.75 0 2.49 1.22 4.55 3.63 4.55a3.36 3.36 0 0 0 3.28-2.67 4.25 4.25 0 0 0 .1-1zM490.76 286.8v3.53H494V292h-3.2v6.63c0 1.52.43 2.38 1.68 2.38a4.81 4.81 0 0 0 1.29-.15l.1 1.68a5.67 5.67 0 0 1-2 .3 3.09 3.09 0 0 1-2.41-.94 4.53 4.53 0 0 1-.86-3.2V292h-1.91v-1.7h1.91v-2.95zM497.56 296.88a3.93 3.93 0 0 0 4.22 4.26 8 8 0 0 0 3.4-.63l.38 1.6a10.06 10.06 0 0 1-4.09.76c-3.78 0-6-2.49-6-6.19s2.18-6.63 5.76-6.63c4 0 5.08 3.53 5.08 5.79a10.18 10.18 0 0 1-.07 1zm6.55-1.6c0-1.42-.58-3.63-3.09-3.63-2.26 0-3.25 2.08-3.43 3.63zM517.8 302.16a8.33 8.33 0 0 1-3.53.71c-3.71 0-6.12-2.51-6.12-6.27a6.25 6.25 0 0 1 6.6-6.53 7.39 7.39 0 0 1 3.1.64l-.51 1.73a5.1 5.1 0 0 0-2.59-.59c-2.82 0-4.34 2.08-4.34 4.65 0 2.84 1.83 4.59 4.27 4.59a6.34 6.34 0 0 0 2.74-.61zM520.41 284.59h2.24v7.67h.05a4.05 4.05 0 0 1 1.6-1.58 4.61 4.61 0 0 1 2.28-.63c1.65 0 4.29 1 4.29 5.25v7.32h-2.23v-7.06c0-2-.74-3.66-2.84-3.66a3.22 3.22 0 0 0-3 2.24 2.61 2.61 0 0 0-.15 1.06v7.42h-2.24zM534.5 293.65c0-1.27 0-2.31-.1-3.32h2l.13 2a4.51 4.51 0 0 1 4.06-2.31c1.7 0 4.34 1 4.34 5.23v7.34h-2.23v-7.09c0-2-.74-3.63-2.84-3.63a3.17 3.17 0 0 0-3 2.29 3.26 3.26 0 0 0-.15 1v7.39h-2.21zM559.72 296.37c0 4.55-3.15 6.53-6.12 6.53-3.33 0-5.89-2.44-5.89-6.33 0-4.11 2.69-6.52 6.09-6.52s5.92 2.56 5.92 6.32zm-9.75.13c0 2.69 1.54 4.72 3.73 4.72s3.73-2 3.73-4.77c0-2.08-1-4.73-3.68-4.73s-3.75 2.44-3.75 4.78zM562.53 284.59h2.24v18h-2.24zM579.65 296.37c0 4.55-3.15 6.53-6.12 6.53-3.33 0-5.89-2.44-5.89-6.33 0-4.11 2.69-6.52 6.09-6.52s5.92 2.56 5.92 6.32zm-9.75.13c0 2.69 1.54 4.72 3.73 4.72s3.73-2 3.73-4.77c0-2.08-1-4.73-3.68-4.73s-3.78 2.44-3.78 4.78zM593.05 290.33c0 .89-.1 1.88-.1 3.37v7.14c0 2.82-.56 4.54-1.75 5.61a6.51 6.51 0 0 1-4.47 1.47 8 8 0 0 1-4.09-1l.56-1.7a7 7 0 0 0 3.6 1c2.29 0 4-1.19 4-4.29v-1.37h-.06a4.38 4.38 0 0 1-3.91 2.06c-3 0-5.23-2.59-5.23-6 0-4.16 2.72-6.52 5.54-6.52a4.09 4.09 0 0 1 3.83 2.13l.11-1.85zm-2.31 4.85a3.28 3.28 0 0 0-.13-1 3.21 3.21 0 0 0-3.12-2.36c-2.13 0-3.66 1.8-3.66 4.65 0 2.41 1.22 4.42 3.63 4.42a3.27 3.27 0 0 0 3.1-2.29 3.78 3.78 0 0 0 .18-1.19zM599 286.87a1.32 1.32 0 0 1-1.42 1.38 1.33 1.33 0 0 1-1.35-1.38 1.36 1.36 0 0 1 1.4-1.39 1.32 1.32 0 0 1 1.37 1.39zm-2.49 15.75v-12.29h2.24v12.29zM603.69 296.88c0 3 2 4.26 4.21 4.26a8 8 0 0 0 3.4-.63l.38 1.6a10 10 0 0 1-4.08.76c-3.79 0-6.05-2.49-6.05-6.19s2.19-6.63 5.77-6.63c4 0 5.08 3.53 5.08 5.79a9.62 9.62 0 0 1-.08 1zm6.55-1.6c0-1.42-.59-3.63-3.1-3.63-2.26 0-3.25 2.08-3.43 3.63zM614.86 300.33a5.87 5.87 0 0 0 2.94.89c1.63 0 2.39-.81 2.39-1.83s-.64-1.65-2.29-2.26c-2.2-.78-3.25-2-3.25-3.48 0-2 1.6-3.6 4.24-3.6a6.13 6.13 0 0 1 3 .76l-.56 1.63a4.75 4.75 0 0 0-2.52-.72c-1.32 0-2.05.77-2.05 1.68s.73 1.47 2.33 2.08c2.14.81 3.23 1.88 3.23 3.71 0 2.16-1.68 3.68-4.6 3.68a7 7 0 0 1-3.45-.84zM500.1 357.45a11 11 0 0 1-4.52.81c-4.82 0-8.45-3.05-8.45-8.66 0-5.36 3.63-9 8.94-9a9.27 9.27 0 0 1 4.06.76l-.53 1.81a8 8 0 0 0-3.46-.71c-4 0-6.68 2.56-6.68 7.06 0 4.18 2.42 6.88 6.58 6.88a8.88 8.88 0 0 0 3.61-.71zM513.63 351.76c0 4.54-3.14 6.53-6.11 6.53-3.33 0-5.9-2.44-5.9-6.33 0-4.11 2.7-6.52 6.1-6.52s5.91 2.56 5.91 6.32zm-9.75.13c0 2.69 1.55 4.72 3.74 4.72s3.73-2 3.73-4.77c0-2.09-1-4.73-3.68-4.73s-3.79 2.44-3.79 4.78zM516.45 349c0-1.27 0-2.31-.1-3.32h2l.13 2a4.51 4.51 0 0 1 4.06-2.31c1.7 0 4.34 1 4.34 5.23v7.4h-2.23v-7.09c0-2-.74-3.63-2.85-3.63a3.17 3.17 0 0 0-3 2.29 3.26 3.26 0 0 0-.15 1V358h-2.24zM533.13 342.19v3.53h3.2v1.7h-3.2V354c0 1.53.43 2.39 1.68 2.39a4.81 4.81 0 0 0 1.29-.15l.11 1.67a5.47 5.47 0 0 1-2 .31 3.1 3.1 0 0 1-2.41-.94 4.57 4.57 0 0 1-.86-3.2v-6.7H529v-1.7h2v-3zM539.94 352.27c0 3 2 4.26 4.21 4.26a8.14 8.14 0 0 0 3.4-.63l.39 1.6a10.1 10.1 0 0 1-4.09.76c-3.79 0-6.05-2.49-6.05-6.2s2.19-6.62 5.77-6.62c4 0 5.08 3.53 5.08 5.79a7.57 7.57 0 0 1-.08 1zm6.55-1.6c0-1.42-.59-3.63-3.1-3.63-2.26 0-3.25 2.08-3.43 3.63zM551.41 349c0-1.27 0-2.31-.1-3.32h2l.13 2h.05a4.51 4.51 0 0 1 4.06-2.31c1.7 0 4.34 1 4.34 5.23v7.4h-2.23v-7.09c0-2-.74-3.63-2.84-3.63a3.17 3.17 0 0 0-3 2.29 3.26 3.26 0 0 0-.15 1V358h-2.24zM568.09 342.19v3.53h3.2v1.7h-3.2V354c0 1.53.44 2.39 1.68 2.39a4.76 4.76 0 0 0 1.29-.15l.11 1.67a5.45 5.45 0 0 1-2 .31 3.11 3.11 0 0 1-2.42-.94 4.57 4.57 0 0 1-.86-3.2v-6.7H564v-1.7h1.9v-3zM579.19 349c0-1.27 0-2.31-.1-3.32H581l.1 2h.08a4.23 4.23 0 0 1 3.86-2.26 3.64 3.64 0 0 1 3.48 2.46h.05a5 5 0 0 1 1.37-1.6 4.18 4.18 0 0 1 2.72-.86c1.62 0 4 1.06 4 5.33V358h-2.18v-7c0-2.36-.86-3.78-2.67-3.78a2.88 2.88 0 0 0-2.64 2 3.68 3.68 0 0 0-.18 1.11V358h-2.18v-7.37c0-1.95-.86-3.37-2.56-3.37a3 3 0 0 0-2.77 2.23 3 3 0 0 0-.18 1.09V358h-2.18zM607.17 358l-.18-1.55h-.08a4.58 4.58 0 0 1-3.76 1.83 3.5 3.5 0 0 1-3.75-3.53c0-3 2.64-4.6 7.39-4.57v-.26a2.54 2.54 0 0 0-2.8-2.84 6.13 6.13 0 0 0-3.2.91l-.5-1.47a7.58 7.58 0 0 1 4-1.09c3.76 0 4.67 2.56 4.67 5v4.6a16.55 16.55 0 0 0 .21 2.95zm-.33-6.28c-2.44-.05-5.21.39-5.21 2.77a2 2 0 0 0 2.11 2.13 3.06 3.06 0 0 0 3-2.05 2.22 2.22 0 0 0 .13-.71zM612.6 349c0-1.27 0-2.31-.1-3.32h2l.12 2h.06a4.5 4.5 0 0 1 4.06-2.31c1.7 0 4.34 1 4.34 5.23v7.4h-2.23v-7.09c0-2-.74-3.63-2.85-3.63a3.17 3.17 0 0 0-3 2.29 3 3 0 0 0-.16 1V358h-2.24zM633.49 358l-.17-1.55h-.08a4.61 4.61 0 0 1-3.76 1.83 3.51 3.51 0 0 1-3.76-3.53c0-3 2.65-4.6 7.39-4.57v-.26a2.53 2.53 0 0 0-2.79-2.84 6.11 6.11 0 0 0-3.2.91l-.51-1.47a7.65 7.65 0 0 1 4-1.09c3.76 0 4.67 2.56 4.67 5v4.6a16.55 16.55 0 0 0 .21 2.95zm-.33-6.28c-2.43-.05-5.2.39-5.2 2.77a2 2 0 0 0 2.11 2.13 3.06 3.06 0 0 0 3-2.05 2.52 2.52 0 0 0 .12-.71zM649.51 345.72c0 .89-.1 1.88-.1 3.37v7.14c0 2.82-.56 4.54-1.75 5.61a6.49 6.49 0 0 1-4.47 1.47 8 8 0 0 1-4.09-1l.56-1.7a7.06 7.06 0 0 0 3.61 1c2.28 0 4-1.19 4-4.29v-1.42h-.05a4.4 4.4 0 0 1-3.91 2.05c-3 0-5.23-2.58-5.23-6 0-4.16 2.71-6.52 5.53-6.52a4.09 4.09 0 0 1 3.84 2.13h.05l.1-1.85zm-2.31 4.85a3.29 3.29 0 0 0-.12-1 3.23 3.23 0 0 0-3.13-2.36c-2.13 0-3.65 1.8-3.65 4.65 0 2.41 1.22 4.41 3.63 4.41A3.27 3.27 0 0 0 647 354a4.08 4.08 0 0 0 .17-1.19zM654.36 352.27a3.93 3.93 0 0 0 4.22 4.26 8.17 8.17 0 0 0 3.4-.63l.38 1.6a10.06 10.06 0 0 1-4.09.76c-3.78 0-6-2.49-6-6.2s2.18-6.62 5.76-6.62c4 0 5.08 3.53 5.08 5.79a10.18 10.18 0 0 1-.07 1zm6.55-1.6c0-1.42-.58-3.63-3.09-3.63-2.26 0-3.25 2.08-3.43 3.63zM665.84 349c0-1.27 0-2.31-.1-3.32h2l.1 2h.08a4.23 4.23 0 0 1 3.86-2.26 3.64 3.64 0 0 1 3.48 2.46 5 5 0 0 1 1.37-1.6 4.2 4.2 0 0 1 2.72-.86c1.62 0 4 1.06 4 5.33V358h-2.15v-7c0-2.36-.86-3.78-2.67-3.78a2.88 2.88 0 0 0-2.64 2 3.68 3.68 0 0 0-.18 1.11V358h-2.18v-7.37c0-1.95-.86-3.37-2.56-3.37a3 3 0 0 0-2.77 2.23 3 3 0 0 0-.18 1.09V358h-2.18zM688.26 352.27c0 3 2 4.26 4.21 4.26a8.14 8.14 0 0 0 3.4-.63l.38 1.6a10 10 0 0 1-4.08.76c-3.79 0-6-2.49-6-6.2s2.19-6.62 5.77-6.62c4 0 5.07 3.53 5.07 5.79a10.18 10.18 0 0 1-.07 1zm6.55-1.6c0-1.42-.59-3.63-3.1-3.63-2.26 0-3.25 2.08-3.43 3.63zM699.73 349c0-1.27 0-2.31-.1-3.32h2l.13 2a4.51 4.51 0 0 1 4.06-2.31c1.7 0 4.34 1 4.34 5.23v7.4H708v-7.09c0-2-.74-3.63-2.85-3.63a3.17 3.17 0 0 0-3 2.29 3.26 3.26 0 0 0-.15 1V358h-2.24zM716.41 342.19v3.53h3.2v1.7h-3.2V354c0 1.53.43 2.39 1.68 2.39a4.81 4.81 0 0 0 1.29-.15l.1 1.67a5.37 5.37 0 0 1-2 .31 3.09 3.09 0 0 1-2.41-.94 4.57 4.57 0 0 1-.86-3.2v-6.7h-1.91v-1.7h1.91v-3zM500.1 412.84a11 11 0 0 1-4.52.81c-4.82 0-8.45-3-8.45-8.66 0-5.36 3.63-9 8.94-9a9.27 9.27 0 0 1 4.06.76l-.53 1.81a8 8 0 0 0-3.46-.72c-4 0-6.68 2.57-6.68 7.06 0 4.19 2.42 6.88 6.58 6.88a8.72 8.72 0 0 0 3.61-.71zM513.63 407.15c0 4.54-3.14 6.52-6.11 6.52-3.33 0-5.9-2.43-5.9-6.32 0-4.11 2.7-6.52 6.1-6.52s5.91 2.56 5.91 6.32zm-9.75.12c0 2.7 1.55 4.73 3.74 4.73s3.73-2 3.73-4.78c0-2.08-1-4.72-3.68-4.72s-3.79 2.44-3.79 4.77zM516.45 404.43c0-1.27 0-2.31-.1-3.33h2l.1 2h.07a4.24 4.24 0 0 1 3.86-2.26 3.62 3.62 0 0 1 3.48 2.46 5.09 5.09 0 0 1 1.37-1.6 4.2 4.2 0 0 1 2.72-.86c1.62 0 4 1.06 4 5.33v7.23h-2.19v-6.95c0-2.36-.86-3.79-2.66-3.79a2.89 2.89 0 0 0-2.64 2 3.81 3.81 0 0 0-.18 1.12v7.59h-2.18V406c0-1.95-.87-3.38-2.57-3.38a3.06 3.06 0 0 0-2.77 2.24 3.23 3.23 0 0 0-.17 1.09v7.41h-2.19zM537.63 404.43c0-1.27 0-2.31-.11-3.33h2l.1 2h.08a4.23 4.23 0 0 1 3.86-2.26 3.64 3.64 0 0 1 3.48 2.46 5 5 0 0 1 1.37-1.6 4.17 4.17 0 0 1 2.71-.86c1.63 0 4 1.06 4 5.33v7.23H553v-6.95c0-2.36-.87-3.79-2.67-3.79a2.89 2.89 0 0 0-2.64 2 3.81 3.81 0 0 0-.18 1.12v7.59h-2.18V406c0-1.95-.86-3.38-2.57-3.38a3 3 0 0 0-2.76 2.24 3 3 0 0 0-.18 1.09v7.41h-2.18zM569.08 410c0 1.27 0 2.39.1 3.35h-2l-.12-2H567a4.63 4.63 0 0 1-4.07 2.28c-1.93 0-4.24-1.06-4.24-5.38v-7.15H561v6.81c0 2.34.71 3.91 2.74 3.91a3.24 3.24 0 0 0 2.95-2 3.45 3.45 0 0 0 .2-1.14v-7.58h2.23zM572.79 404.43c0-1.27 0-2.31-.1-3.33h2l.12 2h.06a4.51 4.51 0 0 1 4.06-2.31c1.7 0 4.34 1 4.34 5.23v7.33H581v-7.08c0-2-.74-3.63-2.85-3.63a3.17 3.17 0 0 0-3 2.28A3 3 0 0 0 575 406v7.38h-2.23zM589.37 397.65a1.39 1.39 0 0 1-2.77 0 1.35 1.35 0 0 1 1.4-1.39 1.32 1.32 0 0 1 1.37 1.39zm-2.49 15.74V401.1h2.23v12.29zM601.58 412.94a8.3 8.3 0 0 1-3.53.71c-3.71 0-6.12-2.52-6.12-6.27a6.24 6.24 0 0 1 6.6-6.53 7.39 7.39 0 0 1 3.1.64l-.51 1.72a5.23 5.23 0 0 0-2.59-.58c-2.82 0-4.34 2.08-4.34 4.64 0 2.85 1.83 4.6 4.27 4.6a6.34 6.34 0 0 0 2.74-.61zM611 413.39l-.18-1.54h-.07a4.6 4.6 0 0 1-3.76 1.82 3.5 3.5 0 0 1-3.76-3.53c0-3 2.64-4.59 7.39-4.57v-.25a2.53 2.53 0 0 0-2.79-2.84 6.08 6.08 0 0 0-3.2.91l-.51-1.47a7.62 7.62 0 0 1 4-1.09c3.75 0 4.67 2.56 4.67 5v4.6a17.41 17.41 0 0 0 .2 2.94zm-.33-6.27c-2.44-.05-5.21.38-5.21 2.77a2 2 0 0 0 2.11 2.13 3 3 0 0 0 3-2 2.27 2.27 0 0 0 .13-.71zM619 397.58v3.52h3.2v1.71H619v6.62c0 1.53.43 2.39 1.68 2.39a5.27 5.27 0 0 0 1.29-.15l.1 1.67a5.37 5.37 0 0 1-2 .31 3.09 3.09 0 0 1-2.41-.94 4.57 4.57 0 0 1-.86-3.2v-6.7h-1.91v-1.71h1.91v-2.94zM627.22 397.65a1.31 1.31 0 0 1-1.42 1.35 1.33 1.33 0 0 1-1.35-1.37 1.36 1.36 0 0 1 1.4-1.39 1.32 1.32 0 0 1 1.37 1.41zm-2.49 15.74V401.1H627v12.29zM641.79 407.15c0 4.54-3.14 6.52-6.11 6.52-3.33 0-5.89-2.43-5.89-6.32 0-4.11 2.69-6.52 6.09-6.52s5.91 2.56 5.91 6.32zm-9.75.12c0 2.7 1.55 4.73 3.74 4.73s3.73-2 3.73-4.78c0-2.08-1-4.72-3.68-4.72s-3.83 2.44-3.83 4.77zM644.61 404.43c0-1.27 0-2.31-.1-3.33h2l.13 2a4.51 4.51 0 0 1 4.06-2.31c1.7 0 4.34 1 4.34 5.23v7.33h-2.23v-7.08c0-2-.74-3.63-2.84-3.63a3.17 3.17 0 0 0-3 2.28 3.28 3.28 0 0 0-.15 1.05v7.38h-2.24zM658.4 411.11a5.87 5.87 0 0 0 2.94.89c1.63 0 2.39-.82 2.39-1.83s-.63-1.65-2.28-2.26c-2.21-.79-3.25-2-3.25-3.48 0-2 1.59-3.6 4.24-3.6a6.11 6.11 0 0 1 3 .76l-.56 1.62a4.82 4.82 0 0 0-2.52-.71c-1.32 0-2 .76-2 1.68s.73 1.47 2.33 2.08c2.14.81 3.23 1.88 3.23 3.71 0 2.15-1.68 3.68-4.6 3.68a7 7 0 0 1-3.45-.84z"/><circle class="cls-4" cx="459.48" cy="215" r="4.5"/><circle class="cls-4" cx="459.48" cy="267.31" r="4.5"/><circle class="cls-4" cx="459.48" cy="346.62" r="4.5"/><circle class="cls-4" cx="459.48" cy="402.62" r="4.5"/><path class="cls-5" d="M830.26.14v516.71h407.97V0L830.26.14z"/><path class="cls-6" d="M849.36 170.99l369.77-.06"/><path class="cls-3" d="M990.41 94.05c.1 3 2.44 4.27 5.08 4.27a12.49 12.49 0 0 0 4.57-.75l.61 2.88a15.71 15.71 0 0 1-5.76 1c-5.35 0-8.49-3.28-8.49-8.32 0-4.57 2.77-8.87 8.05-8.87s7.11 4.4 7.11 8a9.88 9.88 0 0 1-.14 1.76zm7.24-2.91c0-1.52-.64-4-3.41-4-2.58 0-3.66 2.34-3.83 4zM1013.33 90.67v2.87h-8.63v-2.87zM1033.53 100.45a14.37 14.37 0 0 1-5.89 1c-7.24 0-11.64-4.53-11.64-11.47 0-7.51 5.21-12 12.19-12a13.1 13.1 0 0 1 5.55 1l-.92 3.31a11.13 11.13 0 0 0-4.47-.88c-4.63 0-8 2.91-8 8.4 0 5 2.94 8.22 7.95 8.22a11.67 11.67 0 0 0 4.54-.85zM1052.05 92.73c0 6.06-4.26 8.77-8.46 8.77-4.67 0-8.26-3.22-8.26-8.5s3.55-8.73 8.53-8.73 8.19 3.45 8.19 8.46zm-12.42.17c0 3.18 1.56 5.58 4.09 5.58 2.37 0 4-2.33 4-5.65 0-2.57-1.15-5.51-4-5.51s-4.09 2.84-4.09 5.58zM1055.47 89.55c0-1.9 0-3.49-.13-4.91h3.58l.17 2.44h.11a5.69 5.69 0 0 1 5.07-2.81 4.75 4.75 0 0 1 4.57 3h.07a6.1 6.1 0 0 1 2-2.07 5.51 5.51 0 0 1 3.32-1c2.74 0 5.51 1.86 5.51 7.14v9.71h-4.06V92c0-2.74-1-4.37-2.94-4.37a3.17 3.17 0 0 0-2.91 2.2 5.61 5.61 0 0 0-.21 1.39v9.88h-4.06v-9.52c0-2.3-.91-3.93-2.84-3.93a3.25 3.25 0 0 0-3 2.37 3.57 3.57 0 0 0-.24 1.36v9.74h-4.06zM1084.18 89.55c0-1.9 0-3.49-.14-4.91h3.59l.17 2.44h.1a5.69 5.69 0 0 1 5.08-2.81 4.76 4.76 0 0 1 4.57 3h.06a6.29 6.29 0 0 1 2-2.07 5.56 5.56 0 0 1 3.32-1c2.74 0 5.52 1.86 5.52 7.14v9.71h-4.06V92c0-2.74-1-4.37-3-4.37a3.18 3.18 0 0 0-2.91 2.2 6.13 6.13 0 0 0-.2 1.39v9.88h-4.06v-9.52c0-2.3-.92-3.93-2.85-3.93a3.25 3.25 0 0 0-3 2.37 3.57 3.57 0 0 0-.24 1.36v9.74h-4.06zM1115.83 94.05c.1 3 2.43 4.27 5.07 4.27a12.45 12.45 0 0 0 4.57-.75l.61 2.88a15.61 15.61 0 0 1-5.75 1c-5.35 0-8.5-3.28-8.5-8.32 0-4.57 2.78-8.87 8.06-8.87s7.11 4.4 7.11 8a9.88 9.88 0 0 1-.14 1.76zm7.24-2.91c0-1.52-.64-4-3.42-4-2.57 0-3.65 2.34-3.82 4zM1130.35 90c0-2.24 0-3.83-.14-5.32h3.63l.13 3.15h.14a4.91 4.91 0 0 1 4.5-3.52 4.28 4.28 0 0 1 1 .1v3.89a5.62 5.62 0 0 0-1.22-.14 3.67 3.67 0 0 0-3.72 3.15 6.88 6.88 0 0 0-.14 1.29v8.52h-4.16zM1154.21 100.62a12.16 12.16 0 0 1-4.67.84c-5.14 0-8.49-3.28-8.49-8.39 0-4.94 3.38-8.8 9.17-8.8a10.42 10.42 0 0 1 4 .78l-.75 3.11a7.4 7.4 0 0 0-3.15-.64c-3.18 0-5.07 2.33-5 5.35 0 3.38 2.2 5.31 5 5.31a8.13 8.13 0 0 0 3.29-.64zM1159.94 94.05c.1 3 2.43 4.27 5.07 4.27a12.45 12.45 0 0 0 4.57-.75l.61 2.88a15.61 15.61 0 0 1-5.75 1c-5.35 0-8.5-3.28-8.5-8.32 0-4.57 2.78-8.87 8.06-8.87s7.1 4.4 7.1 8a10.09 10.09 0 0 1-.13 1.76zm7.24-2.91c0-1.52-.64-4-3.42-4-2.57 0-3.65 2.34-3.82 4zM897.46 204.93a25.36 25.36 0 0 1 4.24-.33 7 7 0 0 1 4.8 1.42 4.6 4.6 0 0 1 1.5 3.58 5.06 5.06 0 0 1-1.32 3.66 7.11 7.11 0 0 1-5.23 1.88 7.45 7.45 0 0 1-1.78-.16v6.86h-2.21zm2.21 8.25a7.24 7.24 0 0 0 1.83.18c2.66 0 4.29-1.3 4.29-3.66s-1.6-3.35-4-3.35a9.33 9.33 0 0 0-2.08.18zM910.77 203.81H913v18h-2.23zM923.56 221.84l-.18-1.55h-.07a4.58 4.58 0 0 1-3.76 1.83 3.5 3.5 0 0 1-3.76-3.53c0-3 2.64-4.6 7.39-4.57v-.25a2.54 2.54 0 0 0-2.79-2.85 6.11 6.11 0 0 0-3.2.92l-.51-1.48a7.65 7.65 0 0 1 4-1.09c3.76 0 4.67 2.57 4.67 5v4.59a17.62 17.62 0 0 0 .2 3zm-.33-6.27c-2.44 0-5.2.38-5.2 2.77a2 2 0 0 0 2.1 2.13 3.05 3.05 0 0 0 3-2.06 2.22 2.22 0 0 0 .13-.71zM931.58 206v3.53h3.2v1.7h-3.2v6.63c0 1.52.44 2.39 1.68 2.39a4.67 4.67 0 0 0 1.29-.16l.11 1.68a5.48 5.48 0 0 1-2 .3 3.11 3.11 0 0 1-2.42-.94 4.56 4.56 0 0 1-.86-3.19v-6.71h-1.9v-1.7h1.9v-2.94zM937.52 221.84v-10.59h-1.72v-1.7h1.72V209a5.79 5.79 0 0 1 1.43-4.29 4.22 4.22 0 0 1 3-1.15 5.18 5.18 0 0 1 1.91.36l-.31 1.73a3.23 3.23 0 0 0-1.42-.28c-1.9 0-2.39 1.67-2.39 3.55v.66h3v1.7h-3v10.59zM955.5 215.59c0 4.55-3.15 6.53-6.12 6.53-3.32 0-5.89-2.44-5.89-6.32 0-4.12 2.69-6.53 6.09-6.53s5.92 2.57 5.92 6.32zm-9.75.13c0 2.69 1.55 4.72 3.73 4.72s3.74-2 3.74-4.77c0-2.08-1.05-4.72-3.69-4.72s-3.78 2.44-3.78 4.77zM958.32 213.39c0-1.45 0-2.7-.1-3.84h1.95l.08 2.41h.1a3.68 3.68 0 0 1 3.4-2.69 2.49 2.49 0 0 1 .64.08v2.11a2.94 2.94 0 0 0-.77-.08 3.13 3.13 0 0 0-3 2.87 6.33 6.33 0 0 0-.1 1v6.55h-2.21zM966.72 212.88c0-1.27 0-2.31-.1-3.33h2l.1 2h.07a4.24 4.24 0 0 1 3.86-2.26 3.63 3.63 0 0 1 3.48 2.46 5 5 0 0 1 1.37-1.59 4.2 4.2 0 0 1 2.72-.87c1.62 0 4 1.07 4 5.33v7.24h-2.19v-7c0-2.36-.86-3.78-2.66-3.78a2.89 2.89 0 0 0-2.64 2 3.46 3.46 0 0 0-.18 1.12v7.59h-2.19v-7.36c0-2-.86-3.38-2.56-3.38a3.06 3.06 0 0 0-2.77 2.23 3.29 3.29 0 0 0-.17 1.1v7.41h-2.19zM1003.89 203.81v14.86c0 1.09 0 2.33.1 3.17h-2l-.11-2.13a4.54 4.54 0 0 1-4.19 2.41c-3 0-5.25-2.51-5.25-6.25 0-4.08 2.51-6.6 5.51-6.6a4.12 4.12 0 0 1 3.71 1.88v-7.34zm-2.23 10.74a3.77 3.77 0 0 0-.11-.94 3.28 3.28 0 0 0-3.22-2.59c-2.31 0-3.68 2-3.68 4.75 0 2.49 1.22 4.55 3.63 4.55a3.35 3.35 0 0 0 3.27-2.67 3.67 3.67 0 0 0 .11-1zM1008.84 216.1c0 3 2 4.27 4.22 4.27a8 8 0 0 0 3.4-.64l.38 1.6a9.89 9.89 0 0 1-4.09.76c-3.78 0-6-2.48-6-6.19s2.18-6.63 5.76-6.63c4 0 5.08 3.53 5.08 5.79a7.43 7.43 0 0 1-.08 1zm6.55-1.6c0-1.42-.58-3.63-3.1-3.63-2.26 0-3.25 2.08-3.42 3.63zM1021.18 209.55l2.41 6.91a28.92 28.92 0 0 1 1 3.15h.08c.28-1 .63-2 1-3.15l2.39-6.91h2.33l-4.82 12.29h-2.14l-4.67-12.29zM1033.52 216.1c0 3 2 4.27 4.21 4.27a8 8 0 0 0 3.41-.64l.38 1.6a9.93 9.93 0 0 1-4.09.76c-3.78 0-6-2.48-6-6.19s2.18-6.63 5.76-6.63c4 0 5.08 3.53 5.08 5.79a7.43 7.43 0 0 1-.08 1zm6.55-1.6c0-1.42-.58-3.63-3.1-3.63-2.26 0-3.25 2.08-3.43 3.63zM1045 203.81h2.24v18H1045zM1062.11 215.59c0 4.55-3.15 6.53-6.12 6.53-3.33 0-5.89-2.44-5.89-6.32 0-4.12 2.69-6.53 6.09-6.53s5.92 2.57 5.92 6.32zm-9.75.13c0 2.69 1.55 4.72 3.73 4.72s3.73-2 3.73-4.77c0-2.08-1-4.72-3.68-4.72s-3.78 2.44-3.78 4.77zM1064.92 213.56c0-1.57-.05-2.84-.1-4h2l.1 2.11a4.83 4.83 0 0 1 4.37-2.39c3 0 5.2 2.52 5.2 6.25 0 4.42-2.69 6.6-5.58 6.6a4.32 4.32 0 0 1-3.79-1.93v6.68h-2.21zm2.21 3.28a5.07 5.07 0 0 0 .1.91 3.46 3.46 0 0 0 3.36 2.62c2.36 0 3.73-1.93 3.73-4.75 0-2.46-1.3-4.57-3.66-4.57a3.56 3.56 0 0 0-3.37 2.77 3.47 3.47 0 0 0-.16.91zM1079.37 212.88c0-1.27 0-2.31-.1-3.33h2l.1 2h.08a4.24 4.24 0 0 1 3.86-2.26 3.63 3.63 0 0 1 3.48 2.46 5 5 0 0 1 1.37-1.59 4.2 4.2 0 0 1 2.72-.87c1.62 0 4 1.07 4 5.33v7.24h-2.18v-7c0-2.36-.86-3.78-2.67-3.78a2.89 2.89 0 0 0-2.64 2 3.77 3.77 0 0 0-.17 1.12v7.59h-2.19v-7.36c0-2-.86-3.38-2.56-3.38a3.33 3.33 0 0 0-3 3.33v7.41h-2.18zM1101.79 216.1c0 3 2 4.27 4.21 4.27a8 8 0 0 0 3.4-.64l.39 1.6a9.93 9.93 0 0 1-4.09.76c-3.79 0-6-2.48-6-6.19s2.19-6.63 5.77-6.63c4 0 5.08 3.53 5.08 5.79a7.43 7.43 0 0 1-.08 1zm6.55-1.6c0-1.42-.59-3.63-3.1-3.63-2.26 0-3.25 2.08-3.43 3.63zM1113.26 212.88c0-1.27 0-2.31-.1-3.33h2l.13 2a4.51 4.51 0 0 1 4.06-2.31c1.7 0 4.34 1 4.34 5.23v7.34h-2.23v-7.08c0-2-.74-3.63-2.84-3.63a3.17 3.17 0 0 0-3 2.28 3.26 3.26 0 0 0-.15 1v7.39h-2.24zM1129.94 206v3.53h3.2v1.7h-3.2v6.63c0 1.52.43 2.39 1.68 2.39a4.73 4.73 0 0 0 1.29-.16l.11 1.68a5.48 5.48 0 0 1-2 .3 3.11 3.11 0 0 1-2.42-.94 4.56 4.56 0 0 1-.86-3.19v-6.71h-1.9v-1.7h1.9v-2.94zM1147.84 221.84l-.18-1.55h-.07a4.58 4.58 0 0 1-3.76 1.83 3.5 3.5 0 0 1-3.76-3.53c0-3 2.64-4.6 7.39-4.57v-.25a2.54 2.54 0 0 0-2.79-2.85 6.11 6.11 0 0 0-3.2.92l-.51-1.48a7.65 7.65 0 0 1 4-1.09c3.76 0 4.67 2.57 4.67 5v4.59a17.62 17.62 0 0 0 .2 3zm-.33-6.27c-2.44 0-5.2.38-5.2 2.77a2 2 0 0 0 2.1 2.13 3.05 3.05 0 0 0 3-2.06 2.22 2.22 0 0 0 .13-.71zM1153.27 212.88c0-1.27 0-2.31-.1-3.33h2l.13 2a4.51 4.51 0 0 1 4.06-2.31c1.7 0 4.35 1 4.35 5.23v7.34h-2.24v-7.08c0-2-.74-3.63-2.84-3.63a3.17 3.17 0 0 0-3 2.28 3.26 3.26 0 0 0-.15 1v7.39h-2.24zM1178 203.81v14.86c0 1.09 0 2.33.1 3.17h-2l-.1-2.13a4.54 4.54 0 0 1-4.19 2.41c-3 0-5.25-2.51-5.25-6.25 0-4.08 2.51-6.6 5.51-6.6a4.1 4.1 0 0 1 3.7 1.88v-7.34zm-2.24 10.74a3.76 3.76 0 0 0-.1-.94 3.29 3.29 0 0 0-3.22-2.59c-2.31 0-3.68 2-3.68 4.75 0 2.49 1.22 4.55 3.63 4.55a3.35 3.35 0 0 0 3.27-2.67 3.68 3.68 0 0 0 .1-1zM899.87 231.49a1.38 1.38 0 0 1-2.76 0 1.36 1.36 0 0 1 1.39-1.4 1.33 1.33 0 0 1 1.37 1.4zm-2.48 15.74v-12.29h2.23v12.29zM903.33 238.27c0-1.27 0-2.31-.11-3.33h2l.12 2a4.52 4.52 0 0 1 4.07-2.31c1.7 0 4.34 1 4.34 5.23v7.34h-2.24v-7.09c0-2-.73-3.63-2.84-3.63a3.19 3.19 0 0 0-3 2.29 3.26 3.26 0 0 0-.15 1v7.39h-2.23zM920 231.41v3.53h3.2v1.7H920v6.63c0 1.52.43 2.38 1.67 2.38a4.84 4.84 0 0 0 1.3-.15l.1 1.68a5.44 5.44 0 0 1-2 .3 3.09 3.09 0 0 1-2.41-.94 4.52 4.52 0 0 1-.87-3.2v-6.7h-1.9v-1.7h1.9V232zM926.81 241.49c.05 3 2 4.27 4.22 4.27a8 8 0 0 0 3.4-.64l.38 1.6a9.89 9.89 0 0 1-4.09.76c-3.78 0-6-2.49-6-6.19s2.18-6.63 5.76-6.63c4 0 5.08 3.53 5.08 5.79a7.43 7.43 0 0 1-.08 1zm6.55-1.6c0-1.42-.58-3.63-3.1-3.63-2.26 0-3.25 2.08-3.42 3.63zM948.87 234.94c0 .89-.1 1.88-.1 3.38v7.13c0 2.82-.56 4.55-1.75 5.61a6.5 6.5 0 0 1-4.47 1.48 8 8 0 0 1-4.09-1l.56-1.7a6.9 6.9 0 0 0 3.61 1c2.28 0 4-1.19 4-4.29v-1.37h-.05a4.4 4.4 0 0 1-3.91 2.06c-3 0-5.23-2.59-5.23-6 0-4.17 2.71-6.53 5.53-6.53a4.11 4.11 0 0 1 3.84 2.13h.05l.1-1.85zm-2.31 4.85a3.29 3.29 0 0 0-.12-1 3.23 3.23 0 0 0-3.13-2.36c-2.13 0-3.65 1.81-3.65 4.65 0 2.41 1.22 4.42 3.63 4.42a3.28 3.28 0 0 0 3.1-2.29 4.08 4.08 0 0 0 .17-1.19zM952.33 238.77c0-1.44 0-2.69-.11-3.83h2l.07 2.41h.11a3.67 3.67 0 0 1 3.4-2.69 2.41 2.41 0 0 1 .63.08v2.1a3.39 3.39 0 0 0-.76-.07 3.13 3.13 0 0 0-3 2.87 5.35 5.35 0 0 0-.11 1v6.55h-2.2zM967.31 247.23l-.18-1.55h-.08a4.58 4.58 0 0 1-3.76 1.83 3.5 3.5 0 0 1-3.75-3.53c0-3 2.64-4.6 7.38-4.57v-.26a2.53 2.53 0 0 0-2.79-2.84 6.23 6.23 0 0 0-3.2.91l-.51-1.47a7.65 7.65 0 0 1 4-1.09c3.76 0 4.67 2.56 4.67 5v4.59a16.55 16.55 0 0 0 .21 2.95zM967 241c-2.44-.05-5.21.38-5.21 2.76a2 2 0 0 0 2.11 2.14 3.06 3.06 0 0 0 3-2.06 2.53 2.53 0 0 0 .13-.71zM975.33 231.41v3.53h3.2v1.7h-3.2v6.63c0 1.52.43 2.38 1.67 2.38a4.84 4.84 0 0 0 1.3-.15l.1 1.68a5.44 5.44 0 0 1-2 .3 3.09 3.09 0 0 1-2.41-.94 4.52 4.52 0 0 1-.87-3.2v-6.7h-1.9v-1.7h1.9V232zM983.53 231.49a1.39 1.39 0 0 1-2.77 0 1.36 1.36 0 0 1 1.4-1.4 1.33 1.33 0 0 1 1.37 1.4zM981 247.23v-12.29h2.23v12.29zM998.1 241c0 4.55-3.15 6.53-6.12 6.53-3.32 0-5.89-2.44-5.89-6.32 0-4.12 2.69-6.53 6.1-6.53s5.91 2.54 5.91 6.32zm-9.75.13c0 2.69 1.55 4.72 3.73 4.72s3.74-2 3.74-4.77c0-2.08-1-4.72-3.69-4.72s-3.78 2.41-3.78 4.75zM1000.92 238.27c0-1.27 0-2.31-.1-3.33h2l.12 2h.06a4.5 4.5 0 0 1 4.06-2.31c1.7 0 4.34 1 4.34 5.23v7.34h-2.23v-7.09c0-2-.74-3.63-2.85-3.63a3.18 3.18 0 0 0-3 2.29 3 3 0 0 0-.16 1v7.39h-2.23zM897.46 285.73a32.23 32.23 0 0 1 4.7-.35c3.17 0 5.43.73 6.93 2.13a7.9 7.9 0 0 1 2.41 6.14 9.06 9.06 0 0 1-2.46 6.66c-1.6 1.6-4.24 2.46-7.57 2.46a37.54 37.54 0 0 1-4-.2zm2.21 15.14a14.28 14.28 0 0 0 2.24.12c4.72 0 7.28-2.64 7.28-7.26 0-4-2.26-6.6-6.93-6.6a12.31 12.31 0 0 0-2.59.23zM921.1 302.62l-.18-1.55h-.08a4.57 4.57 0 0 1-3.75 1.83 3.51 3.51 0 0 1-3.76-3.53c0-3 2.64-4.6 7.39-4.57v-.26a2.54 2.54 0 0 0-2.8-2.84 6.07 6.07 0 0 0-3.19.91l-.51-1.47a7.61 7.61 0 0 1 4-1.09c3.76 0 4.68 2.56 4.68 5v4.59a17.62 17.62 0 0 0 .2 2.95zm-.33-6.27c-2.44-.06-5.21.38-5.21 2.76a2 2 0 0 0 2.11 2.14 3.05 3.05 0 0 0 3-2.06 2.22 2.22 0 0 0 .13-.71zM929.12 286.8v3.53h3.2V292h-3.2v6.63c0 1.52.43 2.38 1.68 2.38a4.81 4.81 0 0 0 1.29-.15l.1 1.68a5.62 5.62 0 0 1-2 .3 3.09 3.09 0 0 1-2.41-.94 4.57 4.57 0 0 1-.86-3.2V292H925v-1.7h1.91v-2.95zM941.64 302.62l-.18-1.55h-.08a4.57 4.57 0 0 1-3.75 1.83 3.51 3.51 0 0 1-3.76-3.53c0-3 2.64-4.6 7.39-4.57v-.26a2.54 2.54 0 0 0-2.8-2.84 6.13 6.13 0 0 0-3.2.91l-.5-1.47a7.61 7.61 0 0 1 4-1.09c3.76 0 4.68 2.56 4.68 5v4.59a17.62 17.62 0 0 0 .2 2.95zm-.33-6.27c-2.44-.06-5.21.38-5.21 2.76a2 2 0 0 0 2.11 2.14 3.05 3.05 0 0 0 3-2.06 2.22 2.22 0 0 0 .13-.71zM952.45 293.65c0-1.27 0-2.31-.1-3.32h2l.1 2h.07a4.24 4.24 0 0 1 3.86-2.26 3.62 3.62 0 0 1 3.48 2.46 5.21 5.21 0 0 1 1.37-1.6 4.2 4.2 0 0 1 2.72-.86c1.62 0 4 1.07 4 5.33v7.24h-2.19v-7c0-2.36-.86-3.78-2.66-3.78a2.89 2.89 0 0 0-2.64 2 3.7 3.7 0 0 0-.18 1.12v7.59h-2.18v-7.37c0-1.95-.87-3.37-2.57-3.37a3 3 0 0 0-2.77 2.23 3.23 3.23 0 0 0-.17 1.09v7.42h-2.19zM976.11 286.87a1.32 1.32 0 0 1-1.42 1.38 1.33 1.33 0 0 1-1.34-1.38 1.36 1.36 0 0 1 1.39-1.39 1.32 1.32 0 0 1 1.37 1.39zm-2.48 15.75v-12.29h2.23v12.29zM990.15 290.33c0 .89-.1 1.88-.1 3.37v7.14c0 2.82-.56 4.54-1.75 5.61a6.49 6.49 0 0 1-4.47 1.47 8 8 0 0 1-4.09-1l.56-1.7a7 7 0 0 0 3.61 1c2.28 0 4-1.19 4-4.29v-1.37a4.4 4.4 0 0 1-3.91 2.06c-3 0-5.23-2.59-5.23-6 0-4.16 2.71-6.52 5.53-6.52a4.11 4.11 0 0 1 3.84 2.13h.05l.1-1.85zm-2.31 4.85a3.29 3.29 0 0 0-.12-1 3.23 3.23 0 0 0-3.13-2.36c-2.13 0-3.65 1.8-3.65 4.65 0 2.41 1.22 4.42 3.63 4.42a3.28 3.28 0 0 0 3.1-2.29 4.08 4.08 0 0 0 .17-1.19zM993.61 294.16c0-1.45 0-2.69-.11-3.83h2l.08 2.41h.1a3.68 3.68 0 0 1 3.4-2.69 2.43 2.43 0 0 1 .63.07v2.11a3.33 3.33 0 0 0-.76-.07 3.13 3.13 0 0 0-3 2.87 6.33 6.33 0 0 0-.1 1v6.55h-2.21zM1008.59 302.62l-.18-1.55h-.08a4.58 4.58 0 0 1-3.76 1.83 3.5 3.5 0 0 1-3.75-3.53c0-3 2.64-4.6 7.39-4.57v-.26a2.54 2.54 0 0 0-2.8-2.84 6.13 6.13 0 0 0-3.2.91l-.5-1.47a7.58 7.58 0 0 1 4-1.09c3.76 0 4.67 2.56 4.67 5v4.59a16.55 16.55 0 0 0 .21 2.95zm-.33-6.27c-2.44-.06-5.21.38-5.21 2.76a2 2 0 0 0 2.11 2.14 3.06 3.06 0 0 0 3-2.06 2.22 2.22 0 0 0 .13-.71zM1016.61 286.8v3.53h3.2V292h-3.2v6.63c0 1.52.43 2.38 1.68 2.38a4.81 4.81 0 0 0 1.29-.15l.1 1.68a5.67 5.67 0 0 1-2 .3 3.09 3.09 0 0 1-2.41-.94 4.53 4.53 0 0 1-.86-3.2V292h-1.91v-1.7h1.91v-2.95zM1024.81 286.87a1.39 1.39 0 0 1-2.77 0 1.36 1.36 0 0 1 1.4-1.39 1.32 1.32 0 0 1 1.37 1.39zm-2.49 15.75v-12.29h2.24v12.29zM1039.38 296.37c0 4.55-3.15 6.53-6.12 6.53-3.32 0-5.89-2.44-5.89-6.33 0-4.11 2.69-6.52 6.1-6.52s5.91 2.56 5.91 6.32zm-9.75.13c0 2.69 1.55 4.72 3.74 4.72s3.73-2 3.73-4.77c0-2.08-1-4.73-3.68-4.73s-3.79 2.44-3.79 4.78zM1042.2 293.65c0-1.27 0-2.31-.1-3.32h2l.13 2a4.51 4.51 0 0 1 4.06-2.31c1.7 0 4.34 1 4.34 5.23v7.34h-2.23v-7.09c0-2-.74-3.63-2.85-3.63a3.17 3.17 0 0 0-3 2.29 3.25 3.25 0 0 0-.16 1v7.39h-2.23zM897.16 355.31a7.8 7.8 0 0 0 4 1.12c2.26 0 3.58-1.19 3.58-2.92s-.92-2.51-3.23-3.4c-2.79-1-4.52-2.44-4.52-4.85 0-2.67 2.21-4.65 5.54-4.65a7.78 7.78 0 0 1 3.78.84l-.61 1.8a6.88 6.88 0 0 0-3.25-.81c-2.33 0-3.22 1.4-3.22 2.57 0 1.6 1 2.38 3.4 3.3 2.9 1.11 4.37 2.51 4.37 5s-2 4.93-6 4.93a8.84 8.84 0 0 1-4.37-1.09zM911.3 352.27c.05 3 2 4.26 4.21 4.26a8.22 8.22 0 0 0 3.41-.63l.38 1.6a10.1 10.1 0 0 1-4.09.76c-3.78 0-6-2.49-6-6.2s2.18-6.62 5.76-6.62c4 0 5.08 3.53 5.08 5.79a7.57 7.57 0 0 1-.08 1zm6.55-1.6c0-1.42-.58-3.63-3.1-3.63-2.26 0-3.25 2.08-3.43 3.63zM929.58 358l-.18-1.55h-.07a4.61 4.61 0 0 1-3.76 1.83 3.51 3.51 0 0 1-3.76-3.53c0-3 2.64-4.6 7.39-4.57v-.26a2.53 2.53 0 0 0-2.79-2.84 6.08 6.08 0 0 0-3.2.91l-.51-1.47a7.62 7.62 0 0 1 4-1.09c3.75 0 4.67 2.56 4.67 5v4.6a17.62 17.62 0 0 0 .2 2.95zm-.33-6.28c-2.44-.05-5.21.39-5.21 2.77a2 2 0 0 0 2.11 2.13 3 3 0 0 0 3-2.05 2.22 2.22 0 0 0 .13-.71zM935 349.55c0-1.45 0-2.69-.1-3.83h2l.07 2.41h.1a3.69 3.69 0 0 1 3.41-2.69 2.43 2.43 0 0 1 .63.07v2.11a3.41 3.41 0 0 0-.76-.08 3.14 3.14 0 0 0-3 2.87 6.44 6.44 0 0 0-.1 1V358H935zM951.82 357.55a8.3 8.3 0 0 1-3.53.71c-3.71 0-6.12-2.51-6.12-6.27a6.24 6.24 0 0 1 6.6-6.53 7.39 7.39 0 0 1 3.1.64l-.51 1.72a5.23 5.23 0 0 0-2.59-.58c-2.82 0-4.34 2.08-4.34 4.65 0 2.84 1.83 4.59 4.27 4.59a6.34 6.34 0 0 0 2.74-.61zM954.43 340h2.24v7.67h.05a4.05 4.05 0 0 1 1.6-1.58 4.61 4.61 0 0 1 2.28-.63c1.65 0 4.29 1 4.29 5.25V358h-2.23v-7c0-2-.74-3.66-2.84-3.66a3.22 3.22 0 0 0-3 2.24 2.61 2.61 0 0 0-.15 1.06V358h-2.24zM975.15 352.27a3.93 3.93 0 0 0 4.22 4.26 8.21 8.21 0 0 0 3.4-.63l.38 1.6a10.06 10.06 0 0 1-4.09.76c-3.78 0-6-2.49-6-6.2s2.18-6.62 5.76-6.62c4 0 5.08 3.53 5.08 5.79a7.57 7.57 0 0 1-.08 1zm6.55-1.6c0-1.42-.58-3.63-3.1-3.63-2.26 0-3.25 2.08-3.42 3.63zM986.63 349c0-1.27 0-2.31-.11-3.32h2l.13 2a4.52 4.52 0 0 1 4.07-2.31c1.7 0 4.34 1 4.34 5.23v7.4h-2.24v-7.09c0-2-.73-3.63-2.84-3.63a3.18 3.18 0 0 0-3 2.29 3.26 3.26 0 0 0-.15 1V358h-2.23zM1011.3 345.72c0 .89-.1 1.88-.1 3.37v7.14c0 2.82-.56 4.54-1.75 5.61a6.49 6.49 0 0 1-4.47 1.47 8 8 0 0 1-4.09-1l.56-1.7a7.06 7.06 0 0 0 3.61 1c2.28 0 4-1.19 4-4.29v-1.42a4.4 4.4 0 0 1-3.91 2.05c-3 0-5.23-2.58-5.23-6 0-4.16 2.71-6.52 5.53-6.52a4.09 4.09 0 0 1 3.84 2.13l.1-1.85zm-2.31 4.85a3.29 3.29 0 0 0-.12-1 3.23 3.23 0 0 0-3.13-2.36c-2.13 0-3.65 1.8-3.65 4.65 0 2.41 1.22 4.41 3.63 4.41a3.27 3.27 0 0 0 3.1-2.28 4.08 4.08 0 0 0 .17-1.19zM1017.25 342.26a1.39 1.39 0 0 1-2.77 0 1.36 1.36 0 0 1 1.39-1.39 1.33 1.33 0 0 1 1.38 1.39zm-2.49 15.74v-12.28h2.24V358zM1020.7 349c0-1.27 0-2.31-.1-3.32h2l.12 2a4.53 4.53 0 0 1 4.07-2.31c1.7 0 4.34 1 4.34 5.23v7.4h-2.24v-7.09c0-2-.73-3.63-2.84-3.63a3.18 3.18 0 0 0-3 2.29 3.26 3.26 0 0 0-.15 1V358h-2.23zM1036 352.27a3.93 3.93 0 0 0 4.22 4.26 8.17 8.17 0 0 0 3.4-.63l.38 1.6a10.06 10.06 0 0 1-4.09.76c-3.78 0-6-2.49-6-6.2s2.18-6.62 5.76-6.62c4 0 5.08 3.53 5.08 5.79a7.57 7.57 0 0 1-.08 1zm6.55-1.6c0-1.42-.58-3.63-3.09-3.63-2.26 0-3.25 2.08-3.43 3.63zM1064 351.76c0 4.54-3.15 6.53-6.12 6.53-3.32 0-5.89-2.44-5.89-6.33 0-4.11 2.69-6.52 6.09-6.52s5.92 2.56 5.92 6.32zm-9.75.13c0 2.69 1.55 4.72 3.73 4.72s3.74-2 3.74-4.77c0-2.09-1-4.73-3.69-4.73s-3.77 2.44-3.77 4.78zM1066.83 349.73c0-1.58 0-2.85-.1-4h2l.1 2.1h.05a4.86 4.86 0 0 1 4.37-2.38c3 0 5.21 2.51 5.21 6.24 0 4.42-2.69 6.61-5.59 6.61a4.32 4.32 0 0 1-3.78-1.93V363h-2.21zM1069 353a5.18 5.18 0 0 0 .1.92 3.43 3.43 0 0 0 3.35 2.61c2.36 0 3.73-1.93 3.73-4.74 0-2.47-1.29-4.58-3.65-4.58a3.57 3.57 0 0 0-3.38 2.77 3.47 3.47 0 0 0-.15.92zM1084 342.19v3.53h3.2v1.7h-3.2V354c0 1.53.44 2.39 1.68 2.39a4.9 4.9 0 0 0 1.3-.15l.1 1.67a5.41 5.41 0 0 1-2 .31 3.12 3.12 0 0 1-2.42-.94 4.57 4.57 0 0 1-.86-3.2v-6.7h-1.9v-1.7h1.9v-3zM1092.16 342.26a1.38 1.38 0 0 1-2.76 0 1.36 1.36 0 0 1 1.39-1.39 1.32 1.32 0 0 1 1.37 1.39zm-2.48 15.74v-12.28h2.23V358zM1095.62 349c0-1.27 0-2.31-.1-3.32h2l.1 2h.08a4.23 4.23 0 0 1 3.86-2.26 3.64 3.64 0 0 1 3.48 2.46 5 5 0 0 1 1.37-1.6 4.17 4.17 0 0 1 2.71-.86c1.63 0 4 1.06 4 5.33V358H1111v-7c0-2.36-.86-3.78-2.67-3.78a2.88 2.88 0 0 0-2.64 2 3.68 3.68 0 0 0-.18 1.11V358h-2.18v-7.37c0-1.95-.86-3.37-2.56-3.37a3 3 0 0 0-2.77 2.23 3 3 0 0 0-.18 1.09V358h-2.18zM1119.28 342.26a1.39 1.39 0 0 1-2.77 0 1.36 1.36 0 0 1 1.4-1.39 1.32 1.32 0 0 1 1.37 1.39zm-2.49 15.74v-12.28h2.21V358zM1121.33 356.71l5.57-7.24c.53-.66 1-1.24 1.6-1.9v-.05h-6.66v-1.8h9.37v1.39l-5.49 7.14c-.51.68-1 1.29-1.57 1.93v.05h7.18V358h-10zM1140.4 358l-.18-1.55h-.07a4.61 4.61 0 0 1-3.76 1.83 3.51 3.51 0 0 1-3.76-3.53c0-3 2.64-4.6 7.39-4.57v-.26a2.53 2.53 0 0 0-2.79-2.84 6.11 6.11 0 0 0-3.2.91l-.51-1.47a7.65 7.65 0 0 1 4-1.09c3.76 0 4.67 2.56 4.67 5v4.6a17.62 17.62 0 0 0 .2 2.95zm-.33-6.28c-2.44-.05-5.2.39-5.2 2.77a2 2 0 0 0 2.1 2.13 3.07 3.07 0 0 0 3-2.05 2.52 2.52 0 0 0 .12-.71zM1148.42 342.19v3.53h3.2v1.7h-3.2V354c0 1.53.44 2.39 1.68 2.39a4.9 4.9 0 0 0 1.3-.15l.1 1.67a5.41 5.41 0 0 1-2 .31 3.12 3.12 0 0 1-2.42-.94 4.57 4.57 0 0 1-.86-3.2v-6.7h-1.9v-1.7h1.9v-3zM1156.62 342.26a1.38 1.38 0 0 1-2.76 0 1.36 1.36 0 0 1 1.39-1.39 1.32 1.32 0 0 1 1.37 1.39zm-2.48 15.74v-12.28h2.23V358zM1171.2 351.76c0 4.54-3.15 6.53-6.12 6.53-3.33 0-5.89-2.44-5.89-6.33 0-4.11 2.69-6.52 6.09-6.52s5.92 2.56 5.92 6.32zm-9.75.13c0 2.69 1.55 4.72 3.73 4.72s3.73-2 3.73-4.77c0-2.09-1-4.73-3.68-4.73s-3.78 2.44-3.78 4.78zM1174 349c0-1.27 0-2.31-.11-3.32h2l.13 2a4.51 4.51 0 0 1 4.06-2.31c1.71 0 4.35 1 4.35 5.23v7.4h-2.24v-7.09c0-2-.73-3.63-2.84-3.63a3.18 3.18 0 0 0-3 2.29 3.26 3.26 0 0 0-.15 1V358h-2.2zM897.16 410.7a7.8 7.8 0 0 0 4 1.12c2.26 0 3.58-1.19 3.58-2.92s-.92-2.51-3.23-3.4c-2.79-1-4.52-2.44-4.52-4.85 0-2.67 2.21-4.65 5.54-4.65a7.78 7.78 0 0 1 3.78.84l-.61 1.8a6.88 6.88 0 0 0-3.25-.81c-2.33 0-3.22 1.4-3.22 2.56 0 1.6 1 2.39 3.4 3.3 2.9 1.12 4.37 2.52 4.37 5s-2 4.93-6 4.93a8.84 8.84 0 0 1-4.37-1.09zM921.18 407.15c0 4.54-3.15 6.52-6.12 6.52-3.33 0-5.89-2.43-5.89-6.32 0-4.11 2.69-6.52 6.09-6.52s5.92 2.56 5.92 6.32zm-9.75.12c0 2.7 1.54 4.73 3.73 4.73s3.73-2 3.73-4.78c0-2.08-1-4.72-3.68-4.72s-3.78 2.44-3.78 4.77zM932.75 412.94a8.3 8.3 0 0 1-3.53.71c-3.7 0-6.12-2.52-6.12-6.27a6.25 6.25 0 0 1 6.61-6.53 7.34 7.34 0 0 1 3.09.64l-.5 1.72a5.29 5.29 0 0 0-2.59-.58c-2.82 0-4.35 2.08-4.35 4.64 0 2.85 1.83 4.6 4.27 4.6a6.31 6.31 0 0 0 2.74-.61zM937.86 397.65a1.39 1.39 0 0 1-2.77 0 1.35 1.35 0 0 1 1.39-1.39 1.33 1.33 0 0 1 1.38 1.39zm-2.49 15.74V401.1h2.23v12.29zM948.11 413.39l-.18-1.54h-.07a4.6 4.6 0 0 1-3.76 1.82 3.5 3.5 0 0 1-3.76-3.53c0-3 2.64-4.59 7.39-4.57v-.25a2.53 2.53 0 0 0-2.79-2.84 6.11 6.11 0 0 0-3.2.91l-.51-1.47a7.65 7.65 0 0 1 4-1.09c3.76 0 4.67 2.56 4.67 5v4.6a17.41 17.41 0 0 0 .2 2.94zm-.33-6.27c-2.44-.05-5.2.38-5.2 2.77a2 2 0 0 0 2.1 2.13 3.07 3.07 0 0 0 3-2 2.58 2.58 0 0 0 .12-.71zM953.54 395.37h2.24v18h-2.24zM964.92 404.43c0-1.27 0-2.31-.1-3.33h1.95l.1 2h.13a4.23 4.23 0 0 1 3.86-2.26 3.64 3.64 0 0 1 3.48 2.46h.05a5 5 0 0 1 1.37-1.6 4.2 4.2 0 0 1 2.72-.86c1.62 0 4 1.06 4 5.33v7.23h-2.18v-6.95c0-2.36-.86-3.79-2.67-3.79a2.89 2.89 0 0 0-2.64 2 3.81 3.81 0 0 0-.18 1.12v7.59h-2.18V406c0-1.95-.86-3.38-2.56-3.38a3 3 0 0 0-2.77 2.24 3 3 0 0 0-.18 1.09v7.41h-2.18zM992.9 413.39l-.18-1.54h-.08a4.57 4.57 0 0 1-3.76 1.82 3.5 3.5 0 0 1-3.75-3.53c0-3 2.64-4.59 7.39-4.57v-.25a2.53 2.53 0 0 0-2.8-2.84 6.13 6.13 0 0 0-3.2.91l-.5-1.47a7.58 7.58 0 0 1 4-1.09c3.76 0 4.67 2.56 4.67 5v4.6a17.34 17.34 0 0 0 .21 2.94zm-.33-6.27c-2.44-.05-5.21.38-5.21 2.77a2 2 0 0 0 2.11 2.13 3.06 3.06 0 0 0 3-2 2.27 2.27 0 0 0 .13-.71zM998.33 404.94c0-1.45 0-2.69-.1-3.84h1.95l.08 2.42h.1a3.68 3.68 0 0 1 3.4-2.69 2.51 2.51 0 0 1 .64.07v2.1a3.41 3.41 0 0 0-.76-.08 3.14 3.14 0 0 0-3 2.87 6.44 6.44 0 0 0-.1 1v6.55h-2.21zM1008.94 406.74c.31-.43.74-1 1.09-1.39l3.61-4.25h2.69l-4.75 5.06 5.41 7.23h-2.72l-4.24-5.89-1.14 1.27v4.62h-2.21v-18h2.21zM1019.88 407.66a3.93 3.93 0 0 0 4.22 4.26 8.17 8.17 0 0 0 3.4-.63l.38 1.6a10.06 10.06 0 0 1-4.09.76c-3.78 0-6-2.49-6-6.2s2.18-6.62 5.76-6.62c4 0 5.08 3.52 5.08 5.78a10.2 10.2 0 0 1-.07 1.05zm6.55-1.6c0-1.43-.58-3.63-3.09-3.63-2.26 0-3.25 2.08-3.43 3.63zM1034.05 397.58v3.52h3.2v1.71h-3.2v6.62c0 1.53.43 2.39 1.68 2.39a5.27 5.27 0 0 0 1.29-.15l.1 1.67a5.37 5.37 0 0 1-2 .31 3.09 3.09 0 0 1-2.41-.94 4.57 4.57 0 0 1-.86-3.2v-6.7H1030v-1.71h1.91v-2.94zM1042.25 397.65a1.31 1.31 0 0 1-1.42 1.37 1.33 1.33 0 0 1-1.35-1.37 1.36 1.36 0 0 1 1.4-1.39 1.32 1.32 0 0 1 1.37 1.39zm-2.49 15.74V401.1h2.24v12.29zM1045.7 404.43c0-1.27 0-2.31-.1-3.33h2l.13 2a4.51 4.51 0 0 1 4.06-2.31c1.7 0 4.34 1 4.34 5.23v7.33h-2.23v-7.08c0-2-.74-3.63-2.84-3.63a3.17 3.17 0 0 0-3 2.28 3.28 3.28 0 0 0-.15 1.05v7.38h-2.24zM1070.38 401.1c-.05.89-.1 1.88-.1 3.38v7.14c0 2.81-.56 4.54-1.75 5.61a6.51 6.51 0 0 1-4.47 1.47 7.85 7.85 0 0 1-4.09-1l.56-1.7a6.9 6.9 0 0 0 3.61 1c2.28 0 4-1.19 4-4.29v-1.37a4.4 4.4 0 0 1-3.91 2c-3.05 0-5.23-2.59-5.23-6 0-4.16 2.71-6.52 5.53-6.52a4.07 4.07 0 0 1 3.83 2.13h.06l.1-1.86zm-2.31 4.85a2.91 2.91 0 0 0-.13-1 3.2 3.2 0 0 0-3.12-2.36c-2.13 0-3.66 1.8-3.66 4.64 0 2.42 1.22 4.42 3.64 4.42a3.25 3.25 0 0 0 3.09-2.28 3.84 3.84 0 0 0 .18-1.2zM1086.17 413.39l-.18-1.54h-.07a4.6 4.6 0 0 1-3.76 1.82 3.5 3.5 0 0 1-3.76-3.53c0-3 2.64-4.59 7.39-4.57v-.25a2.53 2.53 0 0 0-2.79-2.84 6.11 6.11 0 0 0-3.2.91l-.51-1.47a7.65 7.65 0 0 1 4-1.09c3.76 0 4.67 2.56 4.67 5v4.6a17.41 17.41 0 0 0 .2 2.94zm-.33-6.27c-2.44-.05-5.2.38-5.2 2.77a2 2 0 0 0 2.1 2.13 3 3 0 0 0 3-2 2.27 2.27 0 0 0 .13-.71zM1091.6 404.43c0-1.27 0-2.31-.1-3.33h2l.13 2h.05a4.51 4.51 0 0 1 4.06-2.31c1.7 0 4.35 1 4.35 5.23v7.33h-2.24v-7.08c0-2-.74-3.63-2.84-3.63a3.17 3.17 0 0 0-3 2.28 3.28 3.28 0 0 0-.15 1.05v7.38h-2.24zM1112.5 413.39l-.18-1.54h-.07a4.6 4.6 0 0 1-3.76 1.82 3.5 3.5 0 0 1-3.76-3.53c0-3 2.64-4.59 7.39-4.57v-.25a2.53 2.53 0 0 0-2.79-2.84 6.08 6.08 0 0 0-3.2.91l-.51-1.47a7.62 7.62 0 0 1 4-1.09c3.75 0 4.67 2.56 4.67 5v4.6a17.41 17.41 0 0 0 .2 2.94zm-.33-6.27c-2.44-.05-5.21.38-5.21 2.77a2 2 0 0 0 2.11 2.13 3 3 0 0 0 3-2 2.27 2.27 0 0 0 .13-.71zM1117.93 395.37h2.24v18h-2.24zM1124.74 401.1l2.69 7.27c.28.81.58 1.77.78 2.51h.06c.22-.74.48-1.68.78-2.56l2.44-7.22h2.36l-3.35 8.76c-1.6 4.22-2.69 6.38-4.21 7.7a6.26 6.26 0 0 1-2.75 1.45l-.56-1.88a6 6 0 0 0 2-1.1 6.76 6.76 0 0 0 1.88-2.48 1.67 1.67 0 0 0 .18-.54 1.81 1.81 0 0 0-.16-.58l-4.54-11.33zM1138.57 397.58v3.52h3.2v1.71h-3.2v6.62c0 1.53.43 2.39 1.68 2.39a5.27 5.27 0 0 0 1.29-.15l.11 1.67a5.47 5.47 0 0 1-2 .31 3.1 3.1 0 0 1-2.41-.94 4.57 4.57 0 0 1-.86-3.2v-6.7h-1.9v-1.71h1.9v-2.94zM1146.77 397.65a1.38 1.38 0 0 1-2.76 0 1.35 1.35 0 0 1 1.39-1.39 1.32 1.32 0 0 1 1.37 1.39zm-2.48 15.74V401.1h2.23v12.29zM1159 412.94a8.33 8.33 0 0 1-3.53.71c-3.71 0-6.12-2.52-6.12-6.27a6.24 6.24 0 0 1 6.6-6.53 7.39 7.39 0 0 1 3.1.64l-.51 1.72a5.23 5.23 0 0 0-2.59-.58c-2.82 0-4.34 2.08-4.34 4.64 0 2.85 1.82 4.6 4.26 4.6a6.31 6.31 0 0 0 2.74-.61zM1161.29 411.11a5.91 5.91 0 0 0 3 .89c1.63 0 2.39-.82 2.39-1.83s-.64-1.65-2.29-2.26c-2.21-.79-3.25-2-3.25-3.48 0-2 1.6-3.6 4.24-3.6a6.05 6.05 0 0 1 3 .76l-.56 1.62a4.81 4.81 0 0 0-2.51-.71c-1.32 0-2.06.76-2.06 1.68s.74 1.47 2.34 2.08c2.13.81 3.23 1.88 3.23 3.71 0 2.15-1.68 3.68-4.6 3.68a7 7 0 0 1-3.45-.84z"/><circle class="cls-4" cx="872.42" cy="215" r="4.5"/><circle class="cls-4" cx="872.24" cy="294.97" r="4.5"/><circle class="cls-4" cx="872.06" cy="350.93" r="4.5"/><circle class="cls-4" cx="871.87" cy="405.89" r="4.5"/><path class="cls-5" d="M0 0v516.97h407.97V.12L0 0z"/><path class="cls-6" d="M19.1 170.99l369.77-.06"/><path class="cls-3" d="M150 58.62a41.31 41.31 0 0 1 6.63-.48c4.27 0 7.21.88 9.31 2.64s3.55 4.51 3.55 8.4c0 4.06-1.38 7.1-3.55 9.07s-5.89 3.11-10.32 3.11a45.42 45.42 0 0 1-5.62-.3zm4.16 19.32a15.8 15.8 0 0 0 2.3.1c5.42 0 8.63-2.94 8.63-8.73 0-5-2.87-7.92-8.08-7.92a13.08 13.08 0 0 0-2.85.24zM177.52 60a2.21 2.21 0 0 1-2.37 2.23 2.18 2.18 0 0 1-2.3-2.23 2.34 2.34 0 0 1 4.67 0zm-4.44 21.08V64.64h4.2v16.48zM196.81 64.64c-.07 1.12-.14 2.47-.14 4.74v9.34c0 3.45-.71 5.92-2.43 7.48a9.52 9.52 0 0 1-6.37 2 11.67 11.67 0 0 1-5.75-1.32l.91-3.15a10 10 0 0 0 4.81 1.27c2.71 0 4.74-1.42 4.74-5v-1.41h-.07a5.57 5.57 0 0 1-4.8 2.43c-4.1 0-7-3.38-7-8 0-5.42 3.52-8.7 7.48-8.7a5.2 5.2 0 0 1 4.81 2.52l.17-2.2zm-4.3 6.6a4 4 0 0 0-.13-1.11 3.46 3.46 0 0 0-3.38-2.68c-2.33 0-4.06 2-4.06 5.38 0 2.81 1.42 5.08 4 5.08a3.56 3.56 0 0 0 3.38-2.51 7.14 7.14 0 0 0 .17-1.48zM205.44 60a2.34 2.34 0 0 1-4.67 0 2.34 2.34 0 0 1 4.67 0zM201 81.12V64.64h4.2v16.48zM214.45 59.94v4.7h4v3.12h-4V75c0 2 .54 3 2.13 3a6.19 6.19 0 0 0 1.62-.2l.07 3.18a9.36 9.36 0 0 1-3 .4 4.82 4.82 0 0 1-3.59-1.35c-.88-1-1.28-2.44-1.28-4.6v-7.67H208v-3.12h2.37v-3.72zM230.83 81.12l-.27-1.82h-.1a6.15 6.15 0 0 1-4.88 2.2 4.89 4.89 0 0 1-5.17-4.91c0-4.16 3.69-6.26 9.78-6.23v-.27c0-1.08-.44-2.88-3.35-2.88a8.75 8.75 0 0 0-4.44 1.22l-.81-2.71a11.93 11.93 0 0 1 6-1.45c5.28 0 6.8 3.35 6.8 6.94v6a26.23 26.23 0 0 0 .24 4zm-.54-8.05c-2.95-.07-5.75.57-5.75 3.08a2.18 2.18 0 0 0 2.36 2.37 3.38 3.38 0 0 0 3.25-2.27 2.73 2.73 0 0 0 .14-.91zM238.75 57.1H243v24h-4.2zM149.86 103.4c0-1.89 0-3.48-.13-4.91h3.58l.17 2.44h.1a5.72 5.72 0 0 1 5.08-2.81 4.75 4.75 0 0 1 4.57 3h.07a6.19 6.19 0 0 1 2-2.07 5.5 5.5 0 0 1 3.31-1c2.75 0 5.52 1.86 5.52 7.14V115h-4.03v-9.11c0-2.74-.95-4.36-2.94-4.36a3.17 3.17 0 0 0-2.92 2.2 6 6 0 0 0-.2 1.38V115H160v-9.55c0-2.3-.91-3.92-2.84-3.92a3.24 3.24 0 0 0-3 2.37 3.52 3.52 0 0 0-.24 1.35V115h-4.06zM187.84 115l-.27-1.83h-.1a6.15 6.15 0 0 1-4.88 2.2 4.89 4.89 0 0 1-5.17-4.91c0-4.16 3.68-6.26 9.78-6.23v-.27c0-1.08-.44-2.87-3.35-2.87a8.75 8.75 0 0 0-4.44 1.21l-.81-2.7a11.81 11.81 0 0 1 6-1.46c5.28 0 6.8 3.35 6.8 6.94v6a26.32 26.32 0 0 0 .24 4zm-.54-8.06c-3-.07-5.76.58-5.76 3.08a2.18 2.18 0 0 0 2.37 2.37 3.36 3.36 0 0 0 3.25-2.27 3 3 0 0 0 .14-.91zM195.76 103.81c0-2.24 0-3.83-.13-5.32h3.62l.13 3.15h.14a4.92 4.92 0 0 1 4.5-3.52 4.84 4.84 0 0 1 1 .1v3.93a5.62 5.62 0 0 0-1.22-.14 3.67 3.67 0 0 0-3.72 3.15 6.94 6.94 0 0 0-.13 1.29V115h-4.17zM212 105.74c.41-.65.88-1.36 1.32-1.93l4-5.32h5l-6.1 6.74 7 9.75h-5.11l-4.74-7.28-1.37 1.66V115h-4.17V91H212zM227.75 107.9c.1 3 2.44 4.27 5.08 4.27a12.28 12.28 0 0 0 4.57-.75l.61 2.88a15.71 15.71 0 0 1-5.76 1c-5.34 0-8.49-3.28-8.49-8.32 0-4.57 2.77-8.87 8.05-8.87s7.11 4.4 7.11 8a9.88 9.88 0 0 1-.14 1.76zM235 105c0-1.52-.64-4-3.41-4-2.58 0-3.66 2.34-3.83 4zM247.05 93.79v4.7h4v3.12h-4v7.27c0 2 .54 3.05 2.13 3.05a6.19 6.19 0 0 0 1.62-.2l.07 3.18a9.36 9.36 0 0 1-3 .4 4.8 4.8 0 0 1-3.59-1.35c-.88-.95-1.29-2.44-1.29-4.6v-7.75h-2.36v-3.12H243v-3.72zM258.59 93.89a2.34 2.34 0 1 1-2.34-2.27 2.2 2.2 0 0 1 2.34 2.27zM254.16 115V98.49h4.19V115zM262.82 103.4c0-1.89 0-3.48-.13-4.91h3.65l.2 2.47h.11a5.94 5.94 0 0 1 5.24-2.84c2.88 0 5.86 1.86 5.86 7.07V115h-4.17v-9.31c0-2.37-.88-4.16-3.14-4.16a3.49 3.49 0 0 0-3.25 2.43 4.12 4.12 0 0 0-.17 1.36V115h-4.2zM297.24 98.49c-.06 1.12-.13 2.47-.13 4.74v9.34c0 3.45-.71 5.93-2.44 7.48a9.42 9.42 0 0 1-6.36 2 11.64 11.64 0 0 1-5.75-1.32l.91-3.15a10 10 0 0 0 4.81 1.25c2.7 0 4.73-1.42 4.73-5v-1.42H293a5.58 5.58 0 0 1-4.81 2.43c-4.09 0-7-3.38-7-8.05 0-5.42 3.52-8.7 7.48-8.7a5.2 5.2 0 0 1 4.78 2.57h.06l.17-2.2zm-4.29 6.6a4 4 0 0 0-.14-1.11 3.45 3.45 0 0 0-3.38-2.68c-2.34 0-4.06 2-4.06 5.38 0 2.81 1.42 5.08 4 5.08a3.56 3.56 0 0 0 3.39-2.5 7.31 7.31 0 0 0 .17-1.49zM74.75 205a20.86 20.86 0 0 1 4-.36c2.21 0 3.63.38 4.7 1.24a3.59 3.59 0 0 1 1.42 3 4.05 4.05 0 0 1-2.87 3.74 4.42 4.42 0 0 1 3.54 4.38 4.62 4.62 0 0 1-1.44 3.43c-1.2 1.09-3.13 1.6-5.92 1.6a26.35 26.35 0 0 1-3.43-.2zm2.25 7h2c2.33 0 3.71-1.22 3.71-2.87 0-2-1.53-2.79-3.76-2.79a10.08 10.08 0 0 0-2 .15zm0 8.2a11.23 11.23 0 0 0 1.86.11c2.28 0 4.39-.84 4.39-3.33 0-2.34-2-3.3-4.42-3.3H77zM98.72 218.49c0 1.27 0 2.39.1 3.35h-2l-.12-2h-.06a4.61 4.61 0 0 1-4.06 2.29c-1.93 0-4.24-1.07-4.24-5.38v-7.19h2.26v6.81c0 2.33.71 3.91 2.74 3.91a3.22 3.22 0 0 0 2.94-2 3.17 3.17 0 0 0 .21-1.14v-7.54h2.23zM113 203.81v14.86c0 1.09 0 2.33.1 3.17h-2l-.1-2.13a4.54 4.54 0 0 1-4.19 2.41c-3 0-5.25-2.51-5.25-6.25 0-4.08 2.51-6.6 5.51-6.6a4.12 4.12 0 0 1 3.71 1.88v-7.34zm-2.23 10.74a4.29 4.29 0 0 0-.1-.94 3.3 3.3 0 0 0-3.23-2.59c-2.31 0-3.68 2-3.68 4.75 0 2.49 1.22 4.55 3.63 4.55a3.36 3.36 0 0 0 3.28-2.67 4.16 4.16 0 0 0 .1-1zM127.33 209.55c0 .89-.1 1.88-.1 3.38v7.13c0 2.82-.56 4.55-1.75 5.61a6.5 6.5 0 0 1-4.47 1.48 8 8 0 0 1-4.09-1l.56-1.7a7 7 0 0 0 3.61 1c2.28 0 4-1.19 4-4.29v-1.37a4.38 4.38 0 0 1-3.91 2.06c-3 0-5.23-2.59-5.23-6 0-4.17 2.72-6.53 5.53-6.53a4.11 4.11 0 0 1 3.84 2.13l.1-1.85zM125 214.4a3.29 3.29 0 0 0-.12-1 3.23 3.23 0 0 0-3.13-2.36c-2.13 0-3.65 1.81-3.65 4.65 0 2.41 1.22 4.42 3.63 4.42a3.28 3.28 0 0 0 3.1-2.29 4.08 4.08 0 0 0 .17-1.19zM132.18 216.1c0 3 2 4.27 4.22 4.27a8 8 0 0 0 3.4-.64l.38 1.6a9.89 9.89 0 0 1-4.09.76c-3.78 0-6-2.48-6-6.19s2.18-6.63 5.76-6.63c4 0 5.08 3.53 5.08 5.79a10 10 0 0 1-.07 1zm6.55-1.6c0-1.42-.58-3.63-3.09-3.63-2.26 0-3.25 2.08-3.43 3.63zM146.35 206v3.53h3.2v1.7h-3.2v6.63c0 1.52.43 2.39 1.68 2.39a4.73 4.73 0 0 0 1.29-.16l.1 1.68a5.44 5.44 0 0 1-2 .3 3.09 3.09 0 0 1-2.41-.94 4.51 4.51 0 0 1-.86-3.19v-6.71h-1.91v-1.7h1.91v-2.94zM154.55 206.1a1.31 1.31 0 0 1-1.42 1.37 1.33 1.33 0 0 1-1.35-1.37 1.37 1.37 0 0 1 1.4-1.4 1.33 1.33 0 0 1 1.37 1.4zm-2.49 15.74v-12.29h2.24v12.29zM158 212.88c0-1.27 0-2.31-.1-3.33h2l.13 2h.05a4.51 4.51 0 0 1 4.06-2.31c1.7 0 4.34 1 4.34 5.23v7.34h-2.23v-7.08c0-2-.74-3.63-2.85-3.63a3.17 3.17 0 0 0-3 2.28 3.26 3.26 0 0 0-.15 1v7.39H158zM182.68 209.55c-.05.89-.1 1.88-.1 3.38v7.13c0 2.82-.56 4.55-1.75 5.61a6.52 6.52 0 0 1-4.47 1.48 8 8 0 0 1-4.09-1l.56-1.7a6.89 6.89 0 0 0 3.6 1c2.29 0 4-1.19 4-4.29v-1.37h-.06a4.36 4.36 0 0 1-3.91 2.06c-3 0-5.23-2.59-5.23-6 0-4.17 2.72-6.53 5.54-6.53a4.09 4.09 0 0 1 3.83 2.13h.05l.11-1.85zm-2.31 4.85a3.28 3.28 0 0 0-.13-1 3.21 3.21 0 0 0-3.12-2.36c-2.13 0-3.66 1.81-3.66 4.65 0 2.41 1.22 4.42 3.63 4.42a3.27 3.27 0 0 0 3.1-2.29 3.78 3.78 0 0 0 .18-1.19zM198.47 221.84l-.18-1.55h-.07a4.58 4.58 0 0 1-3.76 1.83 3.5 3.5 0 0 1-3.76-3.53c0-3 2.64-4.6 7.39-4.57v-.25a2.54 2.54 0 0 0-2.79-2.85 6.09 6.09 0 0 0-3.2.92l-.51-1.48a7.65 7.65 0 0 1 4-1.09c3.75 0 4.67 2.57 4.67 5v4.59a17.62 17.62 0 0 0 .2 3zm-.33-6.27c-2.44 0-5.2.38-5.2 2.77a2 2 0 0 0 2.1 2.13 3.05 3.05 0 0 0 3-2.06 2.22 2.22 0 0 0 .13-.71zM203.9 212.88c0-1.27 0-2.31-.1-3.33h2l.13 2h.07a4.51 4.51 0 0 1 4.06-2.31c1.7 0 4.34 1 4.34 5.23v7.34h-2.23v-7.08c0-2-.74-3.63-2.84-3.63a3.17 3.17 0 0 0-3 2.28 3.26 3.26 0 0 0-.15 1v7.39h-2.28zM228.61 203.81v14.86c0 1.09 0 2.33.1 3.17h-2l-.1-2.13a4.54 4.54 0 0 1-4.19 2.41c-3 0-5.25-2.51-5.25-6.25 0-4.08 2.51-6.6 5.51-6.6a4.11 4.11 0 0 1 3.7 1.88h.05v-7.34zm-2.24 10.74a3.76 3.76 0 0 0-.1-.94 3.29 3.29 0 0 0-3.22-2.59c-2.31 0-3.68 2-3.68 4.75 0 2.49 1.21 4.55 3.63 4.55a3.35 3.35 0 0 0 3.27-2.67 3.68 3.68 0 0 0 .1-1zM237.7 213.56c0-1.57-.06-2.84-.11-4h2l.1 2.11h.05a4.84 4.84 0 0 1 4.37-2.39c3 0 5.2 2.52 5.2 6.25 0 4.42-2.69 6.6-5.58 6.6a4.29 4.29 0 0 1-3.78-1.93h-.06v6.68h-2.2zm2.2 3.28a5 5 0 0 0 .11.91 3.44 3.44 0 0 0 3.35 2.62c2.36 0 3.73-1.93 3.73-4.75 0-2.46-1.3-4.57-3.66-4.57a3.56 3.56 0 0 0-3.37 2.77 3.47 3.47 0 0 0-.16.91zM252.14 203.81h2.23v18h-2.23zM264.94 221.84l-.18-1.55h-.08a4.55 4.55 0 0 1-3.76 1.83 3.5 3.5 0 0 1-3.75-3.53c0-3 2.64-4.6 7.39-4.57v-.25a2.54 2.54 0 0 0-2.8-2.85 6.14 6.14 0 0 0-3.2.92l-.5-1.48a7.58 7.58 0 0 1 4-1.09c3.76 0 4.67 2.57 4.67 5v4.59a17.55 17.55 0 0 0 .21 3zm-.33-6.27c-2.44 0-5.21.38-5.21 2.77a2 2 0 0 0 2.11 2.13 3.06 3.06 0 0 0 3-2.06 2.22 2.22 0 0 0 .13-.71zM270.37 212.88c0-1.27 0-2.31-.1-3.33h2l.12 2h.06a4.51 4.51 0 0 1 4.06-2.31c1.7 0 4.34 1 4.34 5.23v7.34h-2.25v-7.08c0-2-.74-3.63-2.85-3.63a3.17 3.17 0 0 0-3 2.28 3 3 0 0 0-.16 1v7.39h-2.23zM284.46 212.88c0-1.27 0-2.31-.1-3.33h2l.13 2a4.51 4.51 0 0 1 4.06-2.31c1.7 0 4.34 1 4.34 5.23v7.34h-2.23v-7.08c0-2-.74-3.63-2.85-3.63a3.17 3.17 0 0 0-3 2.28 3.25 3.25 0 0 0-.16 1v7.39h-2.23zM301 206.1a1.39 1.39 0 0 1-2.77 0 1.37 1.37 0 0 1 1.4-1.4 1.33 1.33 0 0 1 1.37 1.4zm-2.49 15.74v-12.29h2.24v12.29zM304.49 212.88c0-1.27 0-2.31-.1-3.33h2l.13 2h.05a4.51 4.51 0 0 1 4.06-2.31c1.7 0 4.34 1 4.34 5.23v7.34h-2.23v-7.08c0-2-.74-3.63-2.85-3.63a3.17 3.17 0 0 0-3 2.28 3.26 3.26 0 0 0-.15 1v7.39h-2.24zM329.17 209.55c-.05.89-.1 1.88-.1 3.38v7.13c0 2.82-.56 4.55-1.75 5.61a6.52 6.52 0 0 1-4.47 1.48 7.92 7.92 0 0 1-4.09-1l.56-1.7a6.89 6.89 0 0 0 3.6 1c2.29 0 4-1.19 4-4.29v-1.37h-.05a4.36 4.36 0 0 1-3.91 2.06c-3 0-5.23-2.59-5.23-6 0-4.17 2.72-6.53 5.54-6.53a4.09 4.09 0 0 1 3.83 2.13h.05l.1-1.85zm-2.31 4.85a3.28 3.28 0 0 0-.13-1 3.22 3.22 0 0 0-3.12-2.36c-2.13 0-3.66 1.81-3.66 4.65 0 2.41 1.22 4.42 3.63 4.42a3.27 3.27 0 0 0 3.1-2.29 3.78 3.78 0 0 0 .18-1.19zM89.18 269.71c-.13-2.38-.28-5.25-.26-7.39h-.07c-.59 2-1.3 4.14-2.16 6.5l-3 8.31H82L79.22 269c-.81-2.42-1.5-4.62-2-6.66 0 2.14-.18 5-.33 7.57l-.46 7.34H74.3l1.19-17.11h2.82l2.92 8.27c.71 2.11 1.29 4 1.73 5.77H83c.43-1.73 1-3.61 1.8-5.77l3-8.27h2.9l1.07 17.11h-2.16zM102.05 277.23l-.18-1.55h-.08a4.57 4.57 0 0 1-3.79 1.83 3.5 3.5 0 0 1-3.72-3.51c0-3 2.64-4.6 7.39-4.57v-.26a2.54 2.54 0 0 0-2.8-2.84 6.23 6.23 0 0 0-3.2.91l-.5-1.47a7.58 7.58 0 0 1 4-1.09c3.76 0 4.67 2.56 4.67 5v4.59a17.55 17.55 0 0 0 .21 3zm-.33-6.27c-2.44 0-5.21.38-5.21 2.76a2 2 0 0 0 2.11 2.14 3.06 3.06 0 0 0 3-2.06 2.22 2.22 0 0 0 .13-.71zM107.48 268.77c0-1.44 0-2.69-.1-3.83h2l.08 2.41h.1a3.68 3.68 0 0 1 3.4-2.69 2.49 2.49 0 0 1 .64.08v2.1a3.45 3.45 0 0 0-.76-.07 3.13 3.13 0 0 0-3 2.87 6.33 6.33 0 0 0-.1 1v6.55h-2.21zM118.09 270.58c.31-.44.74-1 1.09-1.4l3.61-4.24h2.69l-4.7 5.06 5.41 7.24h-2.72l-4.24-5.89-1.14 1.27v4.62h-2.21v-18h2.21zM129 271.49c.05 3 2 4.27 4.22 4.27a8 8 0 0 0 3.4-.64l.38 1.6a9.85 9.85 0 0 1-4.09.76c-3.78 0-6-2.49-6-6.19s2.18-6.63 5.76-6.63c4 0 5.08 3.53 5.08 5.79a10 10 0 0 1-.07 1zm6.55-1.6c0-1.42-.58-3.63-3.09-3.63-2.26 0-3.25 2.08-3.43 3.63zM143.2 261.41v3.53h3.2v1.7h-3.2v6.63c0 1.52.43 2.38 1.68 2.38a4.81 4.81 0 0 0 1.29-.15l.1 1.68a5.4 5.4 0 0 1-2 .3 3.09 3.09 0 0 1-2.41-.94 4.57 4.57 0 0 1-.86-3.2v-6.7h-1.91v-1.7H141V262zM151.4 261.49a1.31 1.31 0 0 1-1.42 1.37 1.33 1.33 0 0 1-1.35-1.37 1.37 1.37 0 0 1 1.4-1.4 1.33 1.33 0 0 1 1.37 1.4zm-2.49 15.74v-12.29h2.24v12.29zM154.85 268.27c0-1.27 0-2.31-.1-3.33h2l.13 2a4.51 4.51 0 0 1 4.06-2.31c1.7 0 4.34 1 4.34 5.23v7.34h-2.23v-7.09c0-2-.74-3.63-2.84-3.63a3.17 3.17 0 0 0-3 2.29 3.26 3.26 0 0 0-.15 1v7.39h-2.24zM179.53 264.94c-.05.89-.1 1.88-.1 3.38v7.13c0 2.82-.56 4.55-1.75 5.61a6.5 6.5 0 0 1-4.47 1.48 8 8 0 0 1-4.09-1l.56-1.7a6.9 6.9 0 0 0 3.61 1c2.28 0 4-1.19 4-4.29v-1.37h-.05a4.4 4.4 0 0 1-3.91 2.06c-3 0-5.23-2.59-5.23-6 0-4.17 2.71-6.53 5.53-6.53a4.09 4.09 0 0 1 3.83 2.13h.06l.1-1.85zm-2.31 4.85a3 3 0 0 0-.13-1 3.21 3.21 0 0 0-3.12-2.36c-2.13 0-3.65 1.8-3.65 4.65 0 2.41 1.21 4.42 3.63 4.42a3.26 3.26 0 0 0 3.09-2.29 3.78 3.78 0 0 0 .18-1.19zM195.32 277.23l-.18-1.55h-.07a4.61 4.61 0 0 1-3.76 1.83 3.5 3.5 0 0 1-3.76-3.53c0-3 2.64-4.6 7.39-4.57v-.26a2.53 2.53 0 0 0-2.79-2.84 6.2 6.2 0 0 0-3.2.91l-.51-1.47a7.65 7.65 0 0 1 4-1.09c3.76 0 4.67 2.56 4.67 5v4.59a17.62 17.62 0 0 0 .2 3zM195 271c-2.44 0-5.2.38-5.2 2.76a2 2 0 0 0 2.1 2.14 3.08 3.08 0 0 0 3-2.06 2.52 2.52 0 0 0 .12-.71zM211 273.88c0 1.27 0 2.38.1 3.35h-2l-.13-2h.03a4.62 4.62 0 0 1-4.06 2.29c-1.93 0-4.24-1.07-4.24-5.38v-7.19h2.23v6.8c0 2.34.71 3.91 2.75 3.91a3.24 3.24 0 0 0 2.94-2 3.17 3.17 0 0 0 .2-1.14v-7.54H211zM217.44 261.41v3.53h3.19v1.7h-3.19v6.63c0 1.52.43 2.38 1.67 2.38a4.84 4.84 0 0 0 1.3-.15l.1 1.68a5.44 5.44 0 0 1-2 .3 3.09 3.09 0 0 1-2.41-.94 4.52 4.52 0 0 1-.87-3.2v-6.7h-1.9v-1.7h1.9V262zM234.12 271c0 4.55-3.15 6.53-6.12 6.53-3.33 0-5.89-2.44-5.89-6.32 0-4.12 2.69-6.53 6.09-6.53s5.92 2.54 5.92 6.32zm-9.75.13c0 2.69 1.54 4.72 3.73 4.72s3.73-2 3.73-4.77c0-2.08-1-4.72-3.68-4.72s-3.78 2.41-3.78 4.75zM236.93 268.27c0-1.27 0-2.31-.1-3.33h2l.1 2h.07a4.24 4.24 0 0 1 3.86-2.26 3.63 3.63 0 0 1 3.48 2.46 5.21 5.21 0 0 1 1.37-1.6 4.2 4.2 0 0 1 2.72-.86c1.63 0 4 1.07 4 5.33v7.24h-2.19v-7c0-2.36-.86-3.78-2.66-3.78a2.89 2.89 0 0 0-2.64 2 3.7 3.7 0 0 0-.18 1.12v7.59h-2.18v-7.36c0-2-.87-3.38-2.57-3.38a3.07 3.07 0 0 0-2.77 2.23 3.23 3.23 0 0 0-.17 1.09v7.42h-2.19zM264.91 277.23l-.18-1.55h-.07a4.61 4.61 0 0 1-3.76 1.83 3.5 3.5 0 0 1-3.76-3.53c0-3 2.64-4.6 7.39-4.57v-.26a2.53 2.53 0 0 0-2.79-2.84 6.2 6.2 0 0 0-3.2.91l-.51-1.47a7.65 7.65 0 0 1 4-1.09c3.76 0 4.67 2.56 4.67 5v4.59a17.62 17.62 0 0 0 .2 3zm-.33-6.27c-2.44 0-5.2.38-5.2 2.76a2 2 0 0 0 2.1 2.14 3.08 3.08 0 0 0 3-2.06 2.52 2.52 0 0 0 .12-.71zM272.93 261.41v3.53h3.2v1.7h-3.2v6.63c0 1.52.44 2.38 1.68 2.38a4.9 4.9 0 0 0 1.3-.15l.1 1.68a5.44 5.44 0 0 1-2 .3 3.12 3.12 0 0 1-2.42-.94 4.57 4.57 0 0 1-.86-3.2v-6.7h-1.9v-1.7h1.9V262zM281.13 261.49a1.31 1.31 0 0 1-1.42 1.37 1.33 1.33 0 0 1-1.34-1.37 1.36 1.36 0 0 1 1.39-1.4 1.33 1.33 0 0 1 1.37 1.4zm-2.48 15.74v-12.29h2.23v12.29zM295.71 271c0 4.55-3.15 6.53-6.12 6.53-3.33 0-5.89-2.44-5.89-6.32 0-4.12 2.69-6.53 6.09-6.53s5.92 2.54 5.92 6.32zm-9.75.13c0 2.69 1.55 4.72 3.73 4.72s3.73-2 3.73-4.77c0-2.08-1-4.72-3.68-4.72s-3.74 2.41-3.74 4.75zM298.53 268.27c0-1.27 0-2.31-.11-3.33h2l.13 2h.05a4.51 4.51 0 0 1 4.06-2.31c1.71 0 4.35 1 4.35 5.23v7.34h-2.24v-7.09c0-2-.73-3.63-2.84-3.63a3.18 3.18 0 0 0-3 2.29 3.26 3.26 0 0 0-.15 1v7.39h-2.23zM74.45 329.93a7.93 7.93 0 0 0 4 1.11c2.26 0 3.58-1.19 3.58-2.92s-.91-2.51-3.22-3.4c-2.8-1-4.52-2.44-4.52-4.85 0-2.67 2.21-4.65 5.53-4.65a7.78 7.78 0 0 1 3.78.84l-.6 1.8a6.91 6.91 0 0 0-3.25-.81c-2.34 0-3.23 1.4-3.23 2.57 0 1.6 1 2.38 3.4 3.3 2.9 1.11 4.37 2.51 4.37 5s-2 4.93-6 4.93a8.84 8.84 0 0 1-4.37-1.09zM89.68 316.87a1.32 1.32 0 0 1-1.42 1.38 1.33 1.33 0 0 1-1.35-1.38 1.36 1.36 0 0 1 1.4-1.39 1.32 1.32 0 0 1 1.37 1.39zm-2.49 15.75v-12.29h2.24v12.29zM93.13 323.65c0-1.27 0-2.31-.1-3.32h2l.1 2h.08a4.22 4.22 0 0 1 3.79-2.28 3.62 3.62 0 0 1 3.47 2.46 5.23 5.23 0 0 1 1.38-1.6 4.15 4.15 0 0 1 2.71-.86c1.63 0 4 1.06 4 5.33v7.24h-2.06v-7c0-2.36-.87-3.78-2.67-3.78a2.89 2.89 0 0 0-2.64 2A3.7 3.7 0 0 0 103 325v7.59h-2.18v-7.37c0-1.95-.87-3.37-2.57-3.37a3 3 0 0 0-2.76 2.23 3 3 0 0 0-.18 1.09v7.42h-2.18zM124.59 329.27c0 1.26 0 2.38.1 3.35h-2l-.12-2a4.64 4.64 0 0 1-4.07 2.29c-1.93 0-4.24-1.07-4.24-5.39v-7.18h2.24v6.8c0 2.34.71 3.91 2.74 3.91a3.21 3.21 0 0 0 2.94-2 3.17 3.17 0 0 0 .21-1.14v-7.54h2.23zM128.3 314.59h2.23v18h-2.23zM141.09 332.62l-.17-1.55h-.08a4.61 4.61 0 0 1-3.76 1.83 3.51 3.51 0 0 1-3.76-3.53c0-3 2.64-4.6 7.39-4.57v-.26a2.53 2.53 0 0 0-2.79-2.84 6.11 6.11 0 0 0-3.2.91l-.51-1.47a7.65 7.65 0 0 1 4-1.09c3.76 0 4.67 2.56 4.67 5v4.59a17.62 17.62 0 0 0 .2 2.95zm-.33-6.27c-2.43-.06-5.2.38-5.2 2.76a2 2 0 0 0 2.11 2.14 3.06 3.06 0 0 0 3-2.06 2.52 2.52 0 0 0 .12-.71zM149.12 316.8v3.53h3.2V322h-3.2v6.63c0 1.52.43 2.38 1.67 2.38a4.84 4.84 0 0 0 1.3-.15l.1 1.68a5.67 5.67 0 0 1-2 .3 3.09 3.09 0 0 1-2.41-.94 4.52 4.52 0 0 1-.87-3.2V322H145v-1.7h1.9v-2.95zM157.32 316.87a1.39 1.39 0 0 1-2.77 0 1.36 1.36 0 0 1 1.4-1.39 1.33 1.33 0 0 1 1.37 1.39zm-2.49 15.75v-12.29h2.23v12.29zM171.89 326.37c0 4.55-3.15 6.53-6.12 6.53-3.33 0-5.89-2.44-5.89-6.33 0-4.11 2.69-6.52 6.09-6.52s5.92 2.56 5.92 6.32zm-9.75.13c0 2.69 1.55 4.72 3.73 4.72s3.73-2 3.73-4.77c0-2.09-1-4.73-3.68-4.73s-3.78 2.44-3.78 4.78zM174.71 323.65c0-1.27 0-2.31-.1-3.32h2l.12 2a4.52 4.52 0 0 1 4.07-2.31c1.7 0 4.34 1 4.34 5.23v7.34h-2.24v-7.09c0-2-.73-3.63-2.84-3.63a3.18 3.18 0 0 0-3 2.29 3.26 3.26 0 0 0-.15 1v7.39h-2.23zM193.87 330.33a5.91 5.91 0 0 0 2.95.89c1.63 0 2.39-.81 2.39-1.83s-.64-1.65-2.29-2.26c-2.21-.78-3.25-2-3.25-3.48 0-2 1.6-3.6 4.24-3.6a6.05 6.05 0 0 1 3 .76l-.56 1.63a4.71 4.71 0 0 0-2.51-.72c-1.32 0-2.06.77-2.06 1.68s.74 1.47 2.34 2.08c2.13.81 3.23 1.88 3.23 3.71 0 2.16-1.68 3.68-4.6 3.68a7 7 0 0 1-3.45-.84zM205.48 326.88c.05 3 2 4.26 4.21 4.26a8.14 8.14 0 0 0 3.4-.63l.39 1.6a10.1 10.1 0 0 1-4.09.76c-3.79 0-6-2.49-6-6.19s2.19-6.63 5.77-6.63c4 0 5.08 3.53 5.08 5.79a7.57 7.57 0 0 1-.08 1zm6.55-1.6c0-1.42-.59-3.63-3.1-3.63-2.26 0-3.25 2.08-3.43 3.63zM217 324.16c0-1.45 0-2.69-.1-3.83h2l.07 2.41h.1a3.69 3.69 0 0 1 3.41-2.69 2.43 2.43 0 0 1 .63.07v2.11a3.45 3.45 0 0 0-.76-.07 3.14 3.14 0 0 0-3 2.87 6.33 6.33 0 0 0-.1 1v6.55H217zM226.75 320.33l2.41 6.9c.41 1.12.74 2.14 1 3.15h.07c.28-1 .64-2 1-3.15l2.39-6.9H236l-4.83 12.29H229l-4.67-12.29zM240.59 316.87a1.32 1.32 0 0 1-1.42 1.38 1.33 1.33 0 0 1-1.35-1.38 1.36 1.36 0 0 1 1.4-1.39 1.32 1.32 0 0 1 1.37 1.39zm-2.49 15.75v-12.29h2.24v12.29zM252.8 332.16a8.3 8.3 0 0 1-3.53.71c-3.7 0-6.12-2.51-6.12-6.27a6.25 6.25 0 0 1 6.6-6.53 7.35 7.35 0 0 1 3.1.64l-.51 1.73a5.1 5.1 0 0 0-2.59-.59c-2.81 0-4.34 2.08-4.34 4.65 0 2.84 1.83 4.59 4.27 4.59a6.31 6.31 0 0 0 2.74-.61zM256.51 326.88c.05 3 2 4.26 4.21 4.26a8.14 8.14 0 0 0 3.4-.63l.39 1.6a10.1 10.1 0 0 1-4.09.76c-3.79 0-6.05-2.49-6.05-6.19s2.19-6.63 5.77-6.63c4 0 5.08 3.53 5.08 5.79a7.57 7.57 0 0 1-.08 1zm6.55-1.6c0-1.42-.59-3.63-3.1-3.63-2.26 0-3.25 2.08-3.43 3.63zM267.68 330.33a5.87 5.87 0 0 0 2.94.89c1.63 0 2.39-.81 2.39-1.83s-.63-1.65-2.28-2.26c-2.21-.78-3.25-2-3.25-3.48 0-2 1.6-3.6 4.24-3.6a6.11 6.11 0 0 1 3 .76l-.56 1.63a4.72 4.72 0 0 0-2.52-.72c-1.32 0-2.05.77-2.05 1.68s.73 1.47 2.33 2.08c2.14.81 3.23 1.88 3.23 3.71 0 2.16-1.68 3.68-4.6 3.68a7 7 0 0 1-3.45-.84zM89.18 380.49c-.13-2.39-.28-5.26-.26-7.39h-.07c-.59 2-1.3 4.14-2.16 6.5l-3 8.3H82l-2.77-8.15c-.81-2.41-1.5-4.62-2-6.65 0 2.13-.18 5-.33 7.57l-.5 7.33h-2.1l1.19-17.12h2.82l2.92 8.28c.71 2.11 1.29 4 1.73 5.76H83c.43-1.72 1-3.6 1.8-5.76l3-8.28h2.9L91.77 388h-2.16zM106.36 381.76c0 4.54-3.15 6.52-6.12 6.52-3.32 0-5.89-2.43-5.89-6.32 0-4.11 2.69-6.52 6.1-6.52s5.91 2.56 5.91 6.32zm-9.75.13c0 2.69 1.55 4.72 3.74 4.72s3.73-2 3.73-4.77c0-2.09-1-4.73-3.68-4.73s-3.79 2.44-3.79 4.78zM109.08 388c0-.84.1-2.09.1-3.18V370h2.21v7.72a4.58 4.58 0 0 1 4.19-2.26c3.05 0 5.2 2.54 5.18 6.27 0 4.39-2.77 6.57-5.51 6.57a4.36 4.36 0 0 1-4.11-2.31h-.08l-.1 2zm2.31-4.93a4.17 4.17 0 0 0 .1.81 3.45 3.45 0 0 0 3.35 2.62c2.34 0 3.74-1.91 3.74-4.73 0-2.46-1.27-4.57-3.66-4.57a3.57 3.57 0 0 0-3.4 2.75 4.41 4.41 0 0 0-.13.91zM126.11 372.26a1.38 1.38 0 0 1-2.76 0 1.36 1.36 0 0 1 1.39-1.39 1.32 1.32 0 0 1 1.37 1.39zM123.63 388v-12.28h2.23V388zM129.57 370h2.23v18h-2.23zM136.8 382.27a3.93 3.93 0 0 0 4.22 4.26 8.17 8.17 0 0 0 3.4-.63l.38 1.6a10.06 10.06 0 0 1-4.09.76c-3.78 0-6-2.49-6-6.2s2.18-6.62 5.76-6.62c4 0 5.08 3.53 5.08 5.79a7.57 7.57 0 0 1-.08 1zm6.55-1.6c0-1.42-.58-3.63-3.1-3.63-2.25 0-3.25 2.08-3.42 3.63zM160.46 388l-.17-1.55h-.08a4.6 4.6 0 0 1-3.76 1.82 3.5 3.5 0 0 1-3.76-3.52c0-3 2.64-4.6 7.39-4.57v-.26a2.53 2.53 0 0 0-2.79-2.84 6.11 6.11 0 0 0-3.2.91l-.51-1.47a7.65 7.65 0 0 1 4-1.09c3.76 0 4.67 2.56 4.67 5v4.6a16.55 16.55 0 0 0 .21 2.95zm-.33-6.28c-2.43-.05-5.2.38-5.2 2.77a2 2 0 0 0 2.11 2.13 3.06 3.06 0 0 0 3-2.05 2.52 2.52 0 0 0 .12-.71zM165.9 379c0-1.27 0-2.31-.11-3.32h2l.12 2a4.52 4.52 0 0 1 4.07-2.31c1.7 0 4.34 1 4.34 5.23v7.4h-2.24v-7.09c0-2-.73-3.63-2.84-3.63a3.18 3.18 0 0 0-3 2.29 3.26 3.26 0 0 0-.15 1V388h-2.19zM190.6 370v14.85c0 1.09 0 2.34.1 3.18h-2l-.11-2.14h-.05a4.54 4.54 0 0 1-4.19 2.41c-3 0-5.25-2.51-5.25-6.24 0-4.09 2.51-6.6 5.51-6.6a4.12 4.12 0 0 1 3.71 1.88h.05V370zm-2.23 10.74a3.77 3.77 0 0 0-.11-.94 3.28 3.28 0 0 0-3.22-2.59c-2.31 0-3.68 2-3.68 4.75 0 2.49 1.22 4.54 3.63 4.54a3.35 3.35 0 0 0 3.27-2.66 3.74 3.74 0 0 0 .11-1zM199.38 385.72a5.88 5.88 0 0 0 3 .89c1.62 0 2.39-.81 2.39-1.83s-.64-1.65-2.29-2.26c-2.21-.79-3.25-2-3.25-3.48 0-2 1.6-3.6 4.24-3.6a6.08 6.08 0 0 1 3 .76l-.56 1.62a4.81 4.81 0 0 0-2.51-.71c-1.32 0-2.06.76-2.06 1.68s.74 1.47 2.34 2.08c2.13.81 3.22 1.88 3.22 3.71 0 2.16-1.67 3.68-4.59 3.68a7 7 0 0 1-3.45-.84zM220.86 381.76c0 4.54-3.15 6.52-6.12 6.52-3.32 0-5.89-2.43-5.89-6.32 0-4.11 2.69-6.52 6.1-6.52s5.91 2.56 5.91 6.32zm-9.75.13c0 2.69 1.55 4.72 3.74 4.72s3.73-2 3.73-4.77c0-2.09-1-4.73-3.68-4.73s-3.79 2.44-3.79 4.78zM232.44 387.55a8.3 8.3 0 0 1-3.53.71c-3.71 0-6.12-2.51-6.12-6.27a6.24 6.24 0 0 1 6.6-6.53 7.39 7.39 0 0 1 3.1.64l-.51 1.72a5.23 5.23 0 0 0-2.59-.58c-2.81 0-4.34 2.08-4.34 4.65 0 2.84 1.83 4.59 4.27 4.59a6.34 6.34 0 0 0 2.74-.61zM237.54 372.26a1.38 1.38 0 0 1-2.76 0 1.36 1.36 0 0 1 1.39-1.39 1.32 1.32 0 0 1 1.37 1.39zM235.05 388v-12.28h2.24V388zM247.8 388l-.18-1.55h-.07a4.6 4.6 0 0 1-3.76 1.82 3.5 3.5 0 0 1-3.76-3.52c0-3 2.64-4.6 7.39-4.57v-.26a2.53 2.53 0 0 0-2.79-2.84 6.08 6.08 0 0 0-3.2.91l-.51-1.47a7.62 7.62 0 0 1 4-1.09c3.75 0 4.67 2.56 4.67 5v4.6a17.62 17.62 0 0 0 .2 2.95zm-.33-6.28c-2.44-.05-5.21.38-5.21 2.77a2 2 0 0 0 2.11 2.13 3 3 0 0 0 3-2.05 2.22 2.22 0 0 0 .13-.71zM253.23 370h2.24v18h-2.24zM264.61 379c0-1.27 0-2.31-.11-3.32h2l.1 2h.08a4.22 4.22 0 0 1 3.86-2.26 3.62 3.62 0 0 1 3.46 2.48 5 5 0 0 1 1.37-1.6 4.17 4.17 0 0 1 2.71-.86c1.63 0 4 1.06 4 5.33V388H280v-7c0-2.36-.87-3.78-2.67-3.78a2.88 2.88 0 0 0-2.64 2 3.68 3.68 0 0 0-.18 1.11V388h-2.21v-7.37c0-1.95-.86-3.37-2.57-3.37a3 3 0 0 0-2.73 2.24 3 3 0 0 0-.18 1.09V388h-2.18zM287 382.27a3.93 3.93 0 0 0 4.22 4.26 8.17 8.17 0 0 0 3.4-.63l.38 1.6a10.06 10.06 0 0 1-4.09.76c-3.78 0-6-2.49-6-6.2s2.18-6.62 5.76-6.62c4 0 5.08 3.53 5.08 5.79a10.18 10.18 0 0 1-.07 1zm6.55-1.6c0-1.42-.58-3.63-3.09-3.63-2.26 0-3.25 2.08-3.43 3.63zM309.11 370v14.85c0 1.09 0 2.34.1 3.18h-2l-.1-2.14h-.05a4.56 4.56 0 0 1-4.19 2.41c-3 0-5.26-2.51-5.26-6.24 0-4.09 2.51-6.6 5.51-6.6a4.12 4.12 0 0 1 3.71 1.88h.05V370zm-2.23 10.74a4.29 4.29 0 0 0-.1-.94 3.29 3.29 0 0 0-3.23-2.59c-2.31 0-3.68 2-3.68 4.75 0 2.49 1.22 4.54 3.63 4.54a3.37 3.37 0 0 0 3.28-2.66 4.25 4.25 0 0 0 .1-1zM315.31 372.26a1.39 1.39 0 0 1-2.77 0 1.36 1.36 0 0 1 1.4-1.39 1.33 1.33 0 0 1 1.37 1.39zM312.82 388v-12.28h2.23V388zM325.56 388l-.17-1.55h-.08a4.6 4.6 0 0 1-3.76 1.82 3.5 3.5 0 0 1-3.76-3.52c0-3 2.64-4.6 7.39-4.57v-.26a2.53 2.53 0 0 0-2.79-2.84 6.11 6.11 0 0 0-3.2.91l-.51-1.47a7.65 7.65 0 0 1 4-1.09c3.76 0 4.67 2.56 4.67 5v4.6a17.62 17.62 0 0 0 .2 2.95zm-.33-6.28c-2.43-.05-5.2.38-5.2 2.77a2 2 0 0 0 2.11 2.13 3.06 3.06 0 0 0 3-2.05 2.52 2.52 0 0 0 .12-.71zM74.68 404.43c0-1.27 0-2.31-.1-3.33h2l.1 2h.08a4.23 4.23 0 0 1 3.86-2.26 3.64 3.64 0 0 1 3.48 2.46 5 5 0 0 1 1.37-1.6 4.2 4.2 0 0 1 2.72-.86c1.62 0 4 1.06 4 5.33v7.23H90v-6.95c0-2.36-.86-3.79-2.67-3.79a2.89 2.89 0 0 0-2.64 2 3.81 3.81 0 0 0-.18 1.12v7.59h-2.14V406c0-1.95-.86-3.38-2.56-3.38a3 3 0 0 0-2.81 2.27 3 3 0 0 0-.18 1.09v7.41h-2.14zM102.66 413.39l-.18-1.55h-.08a4.55 4.55 0 0 1-3.76 1.83 3.5 3.5 0 0 1-3.75-3.53c0-3 2.64-4.59 7.39-4.57v-.25a2.53 2.53 0 0 0-2.8-2.84 6.13 6.13 0 0 0-3.2.91l-.5-1.47a7.58 7.58 0 0 1 4-1.09c3.76 0 4.67 2.56 4.67 5v4.6a17.42 17.42 0 0 0 .21 2.94zm-.33-6.27c-2.44-.05-5.21.38-5.21 2.77a2 2 0 0 0 2.11 2.11 3.06 3.06 0 0 0 3-2 2.27 2.27 0 0 0 .13-.71zM108.09 404.94c0-1.45 0-2.69-.1-3.84h2l.08 2.42h.1a3.68 3.68 0 0 1 3.4-2.69 2.51 2.51 0 0 1 .64.07v2.1a3.41 3.41 0 0 0-.76-.08 3.14 3.14 0 0 0-3 2.87 6.44 6.44 0 0 0-.1 1v6.55h-2.21zM118.7 406.74a21 21 0 0 1 1.09-1.4l3.61-4.24h2.69l-4.75 5.06 5.41 7.23h-2.72l-4.24-5.89-1.14 1.27v4.62h-2.21v-18h2.21zM129.64 407.66a3.93 3.93 0 0 0 4.22 4.26 8.17 8.17 0 0 0 3.4-.63l.38 1.6a10.06 10.06 0 0 1-4.09.76c-3.78 0-6-2.49-6-6.2s2.18-6.62 5.76-6.62c4 0 5.08 3.52 5.08 5.78a10.2 10.2 0 0 1-.07 1.05zm6.55-1.6c0-1.43-.58-3.64-3.09-3.64-2.26 0-3.25 2.09-3.43 3.64zM143.81 397.58v3.52H147v1.71h-3.2v6.62c0 1.53.43 2.39 1.68 2.39a5.27 5.27 0 0 0 1.29-.15l.1 1.67a5.37 5.37 0 0 1-2 .31 3.09 3.09 0 0 1-2.41-.94 4.57 4.57 0 0 1-.86-3.2v-6.7h-1.91v-1.71h1.91v-2.94zM152 397.65a1.31 1.31 0 0 1-1.42 1.37 1.33 1.33 0 0 1-1.35-1.37 1.36 1.36 0 0 1 1.4-1.39 1.32 1.32 0 0 1 1.37 1.39zm-2.49 15.74V401.1h2.24v12.29zM155.46 404.43c0-1.27 0-2.31-.1-3.33h2l.13 2h.05a4.51 4.51 0 0 1 4.06-2.31c1.7 0 4.34 1 4.34 5.23v7.33h-2.23v-7.08c0-2-.74-3.63-2.84-3.63a3.17 3.17 0 0 0-3 2.28 3.28 3.28 0 0 0-.15 1.05v7.38h-2.24zM180.14 401.1c0 .89-.1 1.88-.1 3.38v7.14c0 2.81-.56 4.54-1.75 5.61a6.56 6.56 0 0 1-4.47 1.47 8 8 0 0 1-4.09-1l.56-1.7a6.9 6.9 0 0 0 3.61 1c2.28 0 4-1.19 4-4.29v-1.37h-.05a4.4 4.4 0 0 1-3.91 2c-3.05 0-5.24-2.59-5.24-6 0-4.16 2.72-6.52 5.54-6.52A4.07 4.07 0 0 1 178 403h.05l.11-1.86zm-2.31 4.9a2.91 2.91 0 0 0-.13-1 3.2 3.2 0 0 0-3.12-2.36c-2.13 0-3.66 1.8-3.66 4.64 0 2.42 1.22 4.42 3.64 4.42a3.25 3.25 0 0 0 3.09-2.28 3.84 3.84 0 0 0 .18-1.2zM74.45 466.09a7.83 7.83 0 0 0 4 1.12c2.26 0 3.58-1.2 3.58-2.92s-.91-2.52-3.22-3.4c-2.8-1-4.52-2.44-4.52-4.85 0-2.67 2.21-4.65 5.53-4.65a7.78 7.78 0 0 1 3.78.84L83 454a6.91 6.91 0 0 0-3.25-.81c-2.34 0-3.23 1.39-3.23 2.56 0 1.6 1 2.39 3.4 3.3 2.9 1.12 4.37 2.52 4.37 5s-2 4.93-6 4.93a8.83 8.83 0 0 1-4.37-1.1zM94.08 468.78l-.18-1.55h-.08a4.55 4.55 0 0 1-3.76 1.83 3.5 3.5 0 0 1-3.75-3.53c0-3 2.64-4.59 7.38-4.57v-.25a2.54 2.54 0 0 0-2.79-2.85 6.14 6.14 0 0 0-3.2.92l-.51-1.47a7.65 7.65 0 0 1 4-1.1c3.76 0 4.67 2.57 4.67 5v4.6a16.51 16.51 0 0 0 .21 2.94zm-.33-6.27c-2.44-.05-5.21.38-5.21 2.77a2 2 0 0 0 2.11 2.13 3.05 3.05 0 0 0 3-2.06 2.47 2.47 0 0 0 .13-.71zM99.51 450.76h2.23v18h-2.23zM106.74 463c.05 3 2 4.27 4.22 4.27a8 8 0 0 0 3.4-.64l.38 1.6a9.85 9.85 0 0 1-4.09.77c-3.78 0-6-2.49-6-6.2s2.18-6.63 5.76-6.63c4 0 5.08 3.53 5.08 5.79a9.75 9.75 0 0 1-.07 1zm6.55-1.6c0-1.42-.58-3.63-3.09-3.63-2.26 0-3.25 2.09-3.43 3.63zM117.91 466.5a5.88 5.88 0 0 0 3 .89c1.62 0 2.39-.82 2.39-1.83s-.64-1.65-2.29-2.26c-2.21-.79-3.25-2-3.25-3.48 0-2 1.6-3.61 4.24-3.61a6 6 0 0 1 3 .77l-.56 1.62a4.81 4.81 0 0 0-2.51-.71c-1.32 0-2.06.76-2.06 1.68s.74 1.47 2.34 2.08c2.13.81 3.22 1.88 3.22 3.7 0 2.16-1.67 3.69-4.59 3.69a7 7 0 0 1-3.45-.84zM133.65 460.51c0-1.58-.05-2.85-.1-4h2l.1 2.11h.05a4.83 4.83 0 0 1 4.37-2.39c3 0 5.2 2.52 5.2 6.25 0 4.42-2.69 6.6-5.58 6.6a4.32 4.32 0 0 1-3.79-1.93v6.68h-2.21zm2.21 3.27a5 5 0 0 0 .1.91 3.46 3.46 0 0 0 3.36 2.62c2.36 0 3.73-1.93 3.73-4.75 0-2.46-1.3-4.57-3.66-4.57a3.56 3.56 0 0 0-3.37 2.77 3.47 3.47 0 0 0-.16.91zM148.1 460.33c0-1.45 0-2.69-.1-3.84h2l.08 2.42h.1a3.7 3.7 0 0 1 3.4-2.7 2.49 2.49 0 0 1 .64.08v2.11a3.41 3.41 0 0 0-.76-.08 3.13 3.13 0 0 0-3 2.87 6.44 6.44 0 0 0-.1 1v6.55h-2.26zM167.27 462.54c0 4.54-3.15 6.52-6.12 6.52-3.33 0-5.89-2.44-5.89-6.32 0-4.11 2.69-6.53 6.09-6.53s5.92 2.57 5.92 6.33zm-9.75.12c0 2.69 1.55 4.73 3.73 4.73s3.73-2 3.73-4.78c0-2.08-1-4.72-3.68-4.72s-3.78 2.44-3.78 4.77zM178.85 468.33a8.33 8.33 0 0 1-3.53.71c-3.71 0-6.12-2.52-6.12-6.28a6.24 6.24 0 0 1 6.6-6.52 7.57 7.57 0 0 1 3.1.63l-.51 1.73a5.23 5.23 0 0 0-2.59-.58c-2.82 0-4.34 2.08-4.34 4.64 0 2.85 1.83 4.6 4.26 4.6a6.31 6.31 0 0 0 2.74-.61zM182.55 463c0 3 2 4.27 4.22 4.27a8 8 0 0 0 3.4-.64l.38 1.6a9.85 9.85 0 0 1-4.09.77c-3.78 0-6-2.49-6-6.2s2.18-6.63 5.76-6.63c4 0 5.08 3.53 5.08 5.79a7.3 7.3 0 0 1-.08 1zm6.55-1.6c0-1.42-.58-3.63-3.1-3.63-2.25 0-3.25 2.09-3.42 3.63zM193.72 466.5a5.88 5.88 0 0 0 2.95.89c1.62 0 2.38-.82 2.38-1.83s-.63-1.65-2.28-2.26c-2.21-.79-3.25-2-3.25-3.48 0-2 1.6-3.61 4.24-3.61a6.08 6.08 0 0 1 3 .77l-.56 1.62a4.81 4.81 0 0 0-2.51-.71c-1.32 0-2.06.76-2.06 1.68s.74 1.47 2.34 2.08c2.13.81 3.22 1.88 3.22 3.7 0 2.16-1.67 3.69-4.59 3.69a7 7 0 0 1-3.46-.84zM203.78 466.5a5.84 5.84 0 0 0 2.94.89c1.63 0 2.39-.82 2.39-1.83s-.64-1.65-2.29-2.26c-2.21-.79-3.25-2-3.25-3.48 0-2 1.6-3.61 4.24-3.61a6 6 0 0 1 3 .77l-.55 1.62a4.85 4.85 0 0 0-2.52-.71c-1.32 0-2 .76-2 1.68s.73 1.47 2.33 2.08c2.13.81 3.23 1.88 3.23 3.7 0 2.16-1.68 3.69-4.6 3.69a7 7 0 0 1-3.45-.84zM226.32 468.78l-.18-1.55h-.07a4.58 4.58 0 0 1-3.76 1.83 3.5 3.5 0 0 1-3.76-3.53c0-3 2.64-4.59 7.39-4.57v-.25a2.54 2.54 0 0 0-2.79-2.85 6.09 6.09 0 0 0-3.2.92l-.51-1.47a7.65 7.65 0 0 1 4-1.1c3.76 0 4.67 2.57 4.67 5v4.6a17.57 17.57 0 0 0 .2 2.94zm-.33-6.27c-2.44-.05-5.2.38-5.2 2.77a2 2 0 0 0 2.1 2.13 3 3 0 0 0 3-2.06 2.17 2.17 0 0 0 .13-.71zM242 465.43c0 1.27 0 2.39.1 3.35h-2l-.13-2h.03a4.62 4.62 0 0 1-4.06 2.28c-1.93 0-4.24-1.06-4.24-5.38v-7.19h2.23v6.81c0 2.33.71 3.91 2.74 3.91a3.13 3.13 0 0 0 3.13-3.21v-7.54h2.2zM248.43 453v3.53h3.2v1.7h-3.2v6.63c0 1.52.44 2.39 1.68 2.39a5.36 5.36 0 0 0 1.3-.15l.1 1.67a5.41 5.41 0 0 1-2 .31 3.12 3.12 0 0 1-2.42-.94 4.59 4.59 0 0 1-.86-3.2v-6.71h-1.9v-1.7h1.9v-2.94zM265.12 462.54c0 4.54-3.15 6.52-6.12 6.52-3.33 0-5.89-2.44-5.89-6.32 0-4.11 2.69-6.53 6.09-6.53s5.92 2.57 5.92 6.33zm-9.75.12c0 2.69 1.54 4.73 3.73 4.73s3.73-2 3.73-4.78c0-2.08-1-4.72-3.68-4.72s-3.78 2.44-3.78 4.77zM267.93 459.82c0-1.27 0-2.31-.1-3.33h2l.1 2h.07a4.26 4.26 0 0 1 3.86-2.26 3.63 3.63 0 0 1 3.48 2.47h.05a5.09 5.09 0 0 1 1.37-1.6 4.2 4.2 0 0 1 2.72-.87c1.63 0 4 1.07 4 5.34v7.23h-2.19v-6.95c0-2.37-.86-3.79-2.66-3.79a2.89 2.89 0 0 0-2.64 2 3.75 3.75 0 0 0-.18 1.12v7.59h-2.18v-7.36c0-2-.87-3.38-2.57-3.38a3.06 3.06 0 0 0-2.77 2.24 3.23 3.23 0 0 0-.17 1.09v7.41h-2.19zM295.91 468.78l-.18-1.55h-.07a4.58 4.58 0 0 1-3.76 1.83 3.5 3.5 0 0 1-3.76-3.53c0-3 2.64-4.59 7.39-4.57v-.25a2.54 2.54 0 0 0-2.79-2.85 6.09 6.09 0 0 0-3.2.92l-.51-1.47a7.65 7.65 0 0 1 4-1.1c3.76 0 4.67 2.57 4.67 5v4.6a17.57 17.57 0 0 0 .2 2.94zm-.33-6.27c-2.44-.05-5.2.38-5.2 2.77a2 2 0 0 0 2.1 2.13 3 3 0 0 0 3-2.06 2.17 2.17 0 0 0 .13-.71zM303.93 453v3.53h3.2v1.7h-3.2v6.63c0 1.52.44 2.39 1.68 2.39a5.27 5.27 0 0 0 1.29-.15l.11 1.67a5.45 5.45 0 0 1-2 .31 3.11 3.11 0 0 1-2.42-.94 4.59 4.59 0 0 1-.86-3.2v-6.71h-1.9v-1.7h1.9v-2.94zM312.13 453a1.38 1.38 0 0 1-2.76 0 1.36 1.36 0 0 1 1.39-1.4 1.33 1.33 0 0 1 1.37 1.4zm-2.48 15.74v-12.25h2.23v12.29zM326.71 462.54c0 4.54-3.15 6.52-6.12 6.52-3.33 0-5.89-2.44-5.89-6.32 0-4.11 2.69-6.53 6.09-6.53s5.92 2.57 5.92 6.33zm-9.75.12c0 2.69 1.55 4.73 3.73 4.73s3.73-2 3.73-4.78c0-2.08-1-4.72-3.68-4.72s-3.74 2.44-3.74 4.77zM329.52 459.82c0-1.27 0-2.31-.1-3.33h2l.13 2h.05a4.53 4.53 0 0 1 4.06-2.31c1.7 0 4.35 1 4.35 5.23v7.34h-2.24v-7.05c0-2-.74-3.63-2.84-3.63a3.17 3.17 0 0 0-3 2.28 3.26 3.26 0 0 0-.15 1v7.39h-2.24z"/><circle class="cls-4" cx="51.4" cy="215" r="4.5"/><circle class="cls-4" cx="51.4" cy="267.62" r="4.5"/><circle class="cls-4" cx="51.4" cy="324.62" r="4.5"/><circle class="cls-4" cx="51.4" cy="380.93" r="4.5"/><circle class="cls-4" cx="51.24" cy="460.97" r="4.5"/><path class="cls-3" d="M98 109.42v8.94h5.33v2.54H74.22v-2.47h5.33v-9H58.69a6 6 0 0 1-6.31-5.19 7.12 7.12 0 0 1-.06-1V59.86a6 6 0 0 1 6.18-6.2h42.21c.64 0 1-.1 1.25-.8a5.09 5.09 0 0 1 9.56.09.9.9 0 0 0 1 .71H119a5.85 5.85 0 0 1 6.16 5.86c.1 6 0 12 0 17.95a2.27 2.27 0 0 1-.08.37h-2.45V60.36c0-2.82-1.35-4.17-4.18-4.17h-6.13a.89.89 0 0 0-1 .61 5.13 5.13 0 0 1-9.39 0 .9.9 0 0 0-1-.61H58.37a3.44 3.44 0 0 0-3.62 3.72V103a3.52 3.52 0 0 0 3.85 3.86h59.74a6.08 6.08 0 0 0 2.55-.57 3 3 0 0 0 1.65-2.76v-9.75H118c2-3.5 4-6.84 6-10.28l5.85 10.23h-4.56v9.28a6 6 0 0 1-6.38 6.4H99.14zm-15.8 8.88h13.17v-8.81H82.21zm24.49-61a2.58 2.58 0 0 0 2.62-2.52 2.61 2.61 0 0 0-2.6-2.65 2.65 2.65 0 0 0-2.6 2.58 2.62 2.62 0 0 0 2.59 2.6z"/><path class="cls-3" d="M61.45 74.29l38.83-10.14v35.09l-10.82-2.81v5H68.07V90.84c-2-.52-3.89-1-5.82-1.51-.61-.15-.82-.37-.82-1V75.12zM64 87.13l33.67 8.79V67.5l-.48.1L84.37 71 64.7 76.09c-.37.1-.7.14-.7.67v10.37zM86.92 98.9v-2.42c0-.57-.2-.79-.74-.92-3.67-.93-7.33-1.9-11-2.86l-4.54-1.18v7.38zM103.43 90.91v-2.44h11.1v2.44zM103.43 72.48h11.13v2.41h-11.13zM103.41 82.9v-2.42h11.13v2.42zM533.88 125.72a14.59 14.59 0 0 1-1.49 2.66 4.89 4.89 0 0 1-5.61 1.33 5.08 5.08 0 0 1-3.29-4.65 4.92 4.92 0 0 1 3.08-4.88 1.18 1.18 0 0 0 .82-1.31V63.75h-13.9c-1.36 0-1.73-.36-1.73-1.72V47.7H467.6v75.83h37v-4.61l10.35 6-10.29 6v-4.67H466.85a1.82 1.82 0 0 1-2.05-1.3V45h48.41a7.09 7.09 0 0 1 1 .74c5 5.11 9.89 10.25 14.87 15.35a2.71 2.71 0 0 1 .87 2.09v56.61c2.74 1.42 2.94 1.65 4 4.5zm-19.52-64.61h11.09l-11.09-11.44zm16.87 63.75a2.61 2.61 0 0 0-2.59-2.58 2.68 2.68 0 0 0-2.62 2.59 2.73 2.73 0 0 0 2.67 2.65 2.66 2.66 0 0 0 2.54-2.66z"/><path class="cls-3" d="M492 56.54h17.5v58.63H492zm6.52 21.4v2.63h-3.87v4h7.47v2.6h-7.5v3.93h3.9v2.52h-3.19c-.27 0-.72.34-.73.55-.07 1.16 0 2.33 0 3.63h7.59v2.62h-7.52v4.17h3.89v2.56h-3.89v5.44h12.23V59.2h-12.27v4.42h3.9v2.56h-3.91v5.15h7.52V74h-7.51v4zM473.47 56.53h12.66v43.78a10 10 0 0 1-.54 3.11c-1.74 5-3.55 10.08-5.33 15.12-.1.28-.23.55-.42 1-.18-.43-.31-.69-.41-1-1.82-5.13-3.66-10.26-5.43-15.41a8.7 8.7 0 0 1-.49-2.81V56.53zm10.07 44.94V59.19h-7.41v42.28zm-3.84 10.17h.24l2.64-7.49H477z"/><path class="cls-7" d="M933.45 87.4a13.47 13.47 0 1 0-22.76 9.74h18.59a13.47 13.47 0 0 0 4.17-9.74zm-12.89 5v2.08h-1.66v-2a6.82 6.82 0 0 1-3.28-.89l.54-1.91a6.37 6.37 0 0 0 3.16.9c1.28 0 2.15-.63 2.15-1.6s-.71-1.5-2.21-2c-2.13-.77-3.5-1.74-3.5-3.62s1.24-3.08 3.24-3.44v-2h1.66v1.89a6.55 6.55 0 0 1 2.79.66l-.55 1.87a5.87 5.87 0 0 0-2.75-.69c-1.42 0-1.92.73-1.92 1.42s.73 1.29 2.45 2C923 85.91 924 87 924 88.8a3.7 3.7 0 0 1-3.44 3.61zM913.28 115.5h13.4v9.12h-13.4z"/><path class="cls-3" d="M955.51 89.44l-6 10.22h4.65v9.76a3.53 3.53 0 0 1-3.52 3.52h-61.35a3.53 3.53 0 0 1-3.52-3.52V65.36a3.53 3.53 0 0 1 3.52-3.52h43.85a5.16 5.16 0 0 0 9.9 0h7.64a3.53 3.53 0 0 1 3.52 3.52v18.35h2.53V65.36a6.05 6.05 0 0 0-6.05-6h-7.54a5.16 5.16 0 0 0-10.09 0h-43.76a6.06 6.06 0 0 0-6 6v44.08a6.07 6.07 0 0 0 6 6.06h21.46v9.12h-5.5v2.53h29.47v-2.53h-5.5v-9.12h21.46a6.06 6.06 0 0 0 6.05-6.06v-9.75h4.65zm-17.42-31.68a2.63 2.63 0 0 1 2.39 1.55 2.58 2.58 0 0 1-.2 2.53 2.63 2.63 0 0 1-4.38 0 2.69 2.69 0 0 1-.44-1.45 2.59 2.59 0 0 1 .24-1.08 2.63 2.63 0 0 1 2.39-1.55zm-11.4 66.86h-13.41v-9.12h13.41z"/><path class="cls-3" d="M900.47 99.67h38.7v-2.53h-6.49a16 16 0 1 0-25.39 0h-6.82zm6-12.27a13.47 13.47 0 1 1 22.76 9.74h-18.54a13.51 13.51 0 0 1-4.17-9.74z"/><path class="cls-3" d="M920.7 85.06c-1.72-.69-2.45-1.15-2.45-2s.5-1.42 1.92-1.42a5.87 5.87 0 0 1 2.75.69l.55-1.87a6.55 6.55 0 0 0-2.79-.66v-1.87H919v2c-2 .36-3.26 1.7-3.26 3.44s1.37 2.85 3.5 3.62c1.5.55 2.21 1.14 2.21 2s-.87 1.6-2.15 1.6a6.37 6.37 0 0 1-3.16-.9l-.54 1.91a6.82 6.82 0 0 0 3.28.89v2h1.66v-2.08A3.7 3.7 0 0 0 924 88.8c0-1.8-1-2.89-3.3-3.74z"/></svg>