<svg id="Layer_1" data-name="Layer 1" xmlns="http://www.w3.org/2000/svg" viewBox="0 0 1237.65 522.97"><defs><style>.cls-4{fill:none}.cls-3{fill:#00321d}.cls-4{stroke:#00321d;stroke-miterlimit:10;stroke-width:3px}.cls-5{fill:#d8e7da}</style></defs><path fill="#a8d7cd" d="M415.13 0v525.97H823.1V.12L415.13 0z"/><path stroke-width="2.13" stroke-miterlimit="10" stroke="#00b28f" fill="none" d="M434.23 170.99L804 172.13"/><path class="cls-3" d="M583.42 81.85a36 36 0 0 1 6.36-.48c3.05 0 5.28.65 6.74 1.87a6.44 6.44 0 0 1 2.23 5 7 7 0 0 1-2 5.18c-1.66 1.66-4.27 2.43-7.21 2.43a11.91 11.91 0 0 1-2-.13v8.59h-4.13zm4.13 10.63a8.74 8.74 0 0 0 2 .16c3.11 0 5-1.52 5-4.19s-1.76-3.89-4.64-3.89a11.64 11.64 0 0 0-2.4.2zM604.27 97.28c.1 3 2.44 4.27 5.08 4.27a12.45 12.45 0 0 0 4.57-.75l.61 2.88a15.71 15.71 0 0 1-5.76 1c-5.34 0-8.49-3.28-8.49-8.32 0-4.57 2.77-8.87 8.05-8.87s7.11 4.4 7.11 8a9.88 9.88 0 0 1-.14 1.76zm7.24-2.91c0-1.52-.64-4-3.41-4-2.58 0-3.66 2.34-3.83 4zM618.79 93.19c0-2.24 0-3.83-.13-5.32h3.62l.14 3.15h.13a4.91 4.91 0 0 1 4.5-3.52 4.16 4.16 0 0 1 1 .1v3.93a5.51 5.51 0 0 0-1.21-.14 3.68 3.68 0 0 0-3.73 3.15 6.94 6.94 0 0 0-.13 1.29v8.52h-4.17zM632.27 104.35V91H630v-3.13h2.24v-.71a7.72 7.72 0 0 1 2-5.62 6.31 6.31 0 0 1 4.3-1.59 8 8 0 0 1 2.68.41l-.31 3.21a5 5 0 0 0-1.76-.3c-2.06 0-2.77 1.73-2.77 3.76v.84H640V91h-3.59v13.36zM657.89 96c0 6.06-4.27 8.77-8.46 8.77-4.67 0-8.26-3.22-8.26-8.5s3.55-8.73 8.53-8.73 8.19 3.46 8.19 8.46zm-12.42.17c0 3.18 1.55 5.59 4.09 5.59 2.37 0 4-2.34 4-5.66 0-2.57-1.15-5.51-4-5.51s-4.09 2.8-4.09 5.54zM661.31 93.19c0-2.24 0-3.83-.13-5.32h3.62l.13 3.15h.14a4.91 4.91 0 0 1 4.5-3.52 4.28 4.28 0 0 1 1 .1v3.93a5.62 5.62 0 0 0-1.22-.14 3.67 3.67 0 0 0-3.72 3.15 6.88 6.88 0 0 0-.14 1.29v8.52h-4.16zM673.36 92.78c0-1.89 0-3.49-.13-4.91h3.58l.17 2.44h.1a5.72 5.72 0 0 1 5.08-2.81 4.75 4.75 0 0 1 4.57 3h.07a6.19 6.19 0 0 1 2-2.07 5.5 5.5 0 0 1 3.31-1c2.75 0 5.52 1.86 5.52 7.14v9.71h-4.03v-9.1c0-2.74-1-4.36-2.94-4.36a3.16 3.16 0 0 0-2.91 2.19 5.61 5.61 0 0 0-.21 1.39v9.88h-4.06v-9.47c0-2.3-.91-3.92-2.84-3.92a3.24 3.24 0 0 0-3 2.36 3.57 3.57 0 0 0-.24 1.36v9.74h-4.06zM711.34 104.35l-.27-1.82H711a6.15 6.15 0 0 1-4.88 2.2 4.89 4.89 0 0 1-5.17-4.91c0-4.16 3.69-6.26 9.78-6.23v-.27c0-1.08-.44-2.88-3.35-2.88a8.75 8.75 0 0 0-4.44 1.22L702.1 89a11.81 11.81 0 0 1 6-1.46c5.28 0 6.8 3.35 6.8 6.94v6a26.23 26.23 0 0 0 .24 4zm-.54-8c-2.95-.07-5.75.58-5.75 3.08a2.18 2.18 0 0 0 2.36 2.37 3.36 3.36 0 0 0 3.25-2.27 3 3 0 0 0 .14-.91zM719.26 92.78c0-1.89 0-3.49-.13-4.91h3.65l.21 2.47h.1a5.94 5.94 0 0 1 5.24-2.84c2.88 0 5.86 1.86 5.86 7.07v9.78H730v-9.3c0-2.37-.88-4.16-3.15-4.16a3.49 3.49 0 0 0-3.25 2.43 4.12 4.12 0 0 0-.17 1.36v9.67h-4.2zM750.74 103.85a12.16 12.16 0 0 1-4.67.84c-5.14 0-8.49-3.28-8.49-8.39 0-4.94 3.38-8.8 9.17-8.8a10.42 10.42 0 0 1 4 .78l-.75 3.11a7.43 7.43 0 0 0-3.15-.64c-3.18 0-5.07 2.33-5 5.35 0 3.38 2.2 5.31 5 5.31a8.17 8.17 0 0 0 3.29-.64zM756.46 97.28c.11 3 2.44 4.27 5.08 4.27a12.45 12.45 0 0 0 4.57-.75l.61 2.88a15.61 15.61 0 0 1-5.75 1c-5.35 0-8.5-3.28-8.5-8.32 0-4.57 2.78-8.87 8.06-8.87s7.1 4.4 7.1 8a10.09 10.09 0 0 1-.13 1.76zm7.25-2.91c0-1.52-.65-4-3.42-4-2.57 0-3.66 2.34-3.83 4zM491.39 206.61h-5.2v-1.88h12.67v1.88h-5.23v15.23h-2.24zM502.87 206.1a1.31 1.31 0 0 1-1.42 1.37 1.33 1.33 0 0 1-1.35-1.37 1.37 1.37 0 0 1 1.4-1.4 1.33 1.33 0 0 1 1.37 1.4zm-2.49 15.74v-12.29h2.24v12.29zM506.32 212.88c0-1.27 0-2.31-.1-3.33h2l.1 2h.07a4.24 4.24 0 0 1 3.86-2.26 3.63 3.63 0 0 1 3.48 2.46 5.16 5.16 0 0 1 1.37-1.59 4.2 4.2 0 0 1 2.72-.87c1.63 0 4 1.07 4 5.33v7.24h-2.19v-7c0-2.36-.86-3.78-2.66-3.78a2.89 2.89 0 0 0-2.64 2 3.75 3.75 0 0 0-.18 1.12v7.59H514v-7.36c0-2-.87-3.38-2.57-3.38a3.06 3.06 0 0 0-2.77 2.23 3.29 3.29 0 0 0-.17 1.1v7.41h-2.19zM528.74 216.1c0 3 2 4.27 4.22 4.27a8 8 0 0 0 3.4-.64l.38 1.6a9.89 9.89 0 0 1-4.09.76c-3.78 0-6-2.48-6-6.19s2.18-6.63 5.76-6.63c4 0 5.08 3.53 5.08 5.79a7.43 7.43 0 0 1-.08 1zm6.55-1.6c0-1.42-.58-3.63-3.1-3.63-2.26 0-3.25 2.08-3.42 3.63zM552.4 221.84l-.18-1.55h-.07a4.58 4.58 0 0 1-3.76 1.83 3.5 3.5 0 0 1-3.76-3.53c0-3 2.64-4.6 7.39-4.57v-.25a2.54 2.54 0 0 0-2.79-2.85 6.11 6.11 0 0 0-3.2.92l-.51-1.48a7.65 7.65 0 0 1 4-1.09c3.76 0 4.67 2.57 4.67 5v4.59a17.62 17.62 0 0 0 .2 3zm-.33-6.27c-2.44 0-5.2.38-5.2 2.77a2 2 0 0 0 2.1 2.13 3.08 3.08 0 0 0 3-2.06 2.52 2.52 0 0 0 .12-.71zM557.83 212.88c0-1.27 0-2.31-.1-3.33h2l.13 2a4.51 4.51 0 0 1 4.06-2.31c1.71 0 4.35 1 4.35 5.23v7.34h-2.24v-7.08c0-2-.73-3.63-2.84-3.63a3.18 3.18 0 0 0-3 2.28 3.26 3.26 0 0 0-.15 1v7.39h-2.24zM582.54 203.81v14.86c0 1.09 0 2.33.1 3.17h-2l-.1-2.13a4.54 4.54 0 0 1-4.19 2.41c-3 0-5.25-2.51-5.25-6.25 0-4.08 2.51-6.6 5.51-6.6a4.09 4.09 0 0 1 3.7 1.88v-7.34zm-2.24 10.74a3.76 3.76 0 0 0-.1-.94A3.29 3.29 0 0 0 577 211c-2.31 0-3.68 2-3.68 4.75 0 2.49 1.22 4.55 3.63 4.55a3.35 3.35 0 0 0 3.27-2.67 3.68 3.68 0 0 0 .1-1zM600.39 221.38a8.18 8.18 0 0 1-3.53.71c-3.71 0-6.12-2.51-6.12-6.27a6.24 6.24 0 0 1 6.6-6.52 7.57 7.57 0 0 1 3.1.63l-.51 1.73a5.1 5.1 0 0 0-2.59-.59c-2.82 0-4.34 2.09-4.34 4.65 0 2.84 1.83 4.6 4.26 4.6a6.39 6.39 0 0 0 2.75-.61zM614 215.59c0 4.55-3.15 6.53-6.12 6.53-3.33 0-5.89-2.44-5.89-6.32 0-4.12 2.69-6.53 6.09-6.53s5.92 2.57 5.92 6.32zm-9.75.13c0 2.69 1.55 4.72 3.73 4.72s3.73-2 3.73-4.77c0-2.08-1-4.72-3.68-4.72s-3.81 2.44-3.81 4.77zM616.48 219.56a5.88 5.88 0 0 0 2.95.88c1.62 0 2.38-.81 2.38-1.82s-.63-1.65-2.28-2.26c-2.21-.79-3.25-2-3.25-3.48 0-2 1.6-3.61 4.24-3.61a6.19 6.19 0 0 1 3 .76l-.56 1.63a4.72 4.72 0 0 0-2.51-.71c-1.32 0-2.06.76-2.06 1.67s.74 1.48 2.34 2.09c2.13.81 3.22 1.87 3.22 3.7 0 2.16-1.67 3.68-4.59 3.68a7.13 7.13 0 0 1-3.46-.83zM629.53 206v3.53h3.2v1.7h-3.2v6.63c0 1.52.43 2.39 1.68 2.39a4.73 4.73 0 0 0 1.29-.16l.1 1.68a5.4 5.4 0 0 1-2 .3 3.1 3.1 0 0 1-2.41-.94 4.56 4.56 0 0 1-.86-3.19v-6.71h-1.91v-1.7h1.91v-2.94zM640.63 212.88c0-1.27 0-2.31-.11-3.33h2l.1 2h.08a4.23 4.23 0 0 1 3.86-2.26 3.65 3.65 0 0 1 3.48 2.46 5 5 0 0 1 1.37-1.59 4.17 4.17 0 0 1 2.71-.87c1.63 0 4 1.07 4 5.33v7.24H656v-7c0-2.36-.87-3.78-2.67-3.78a2.89 2.89 0 0 0-2.64 2 3.75 3.75 0 0 0-.18 1.12v7.59h-2.18v-7.36c0-2-.86-3.38-2.57-3.38a3.33 3.33 0 0 0-2.94 3.33v7.41h-2.18zM668.6 221.84l-.17-1.55h-.08a4.56 4.56 0 0 1-3.76 1.83 3.5 3.5 0 0 1-3.76-3.53c0-3 2.65-4.6 7.39-4.57v-.25a2.54 2.54 0 0 0-2.79-2.85 6.11 6.11 0 0 0-3.2.92l-.51-1.48a7.65 7.65 0 0 1 4-1.09c3.76 0 4.67 2.57 4.67 5v4.59a16.55 16.55 0 0 0 .21 3zm-.33-6.27c-2.43 0-5.2.38-5.2 2.77a2 2 0 0 0 2.11 2.13 3.06 3.06 0 0 0 3-2.06 2.52 2.52 0 0 0 .12-.71zM674 212.88c0-1.27 0-2.31-.1-3.33h2l.12 2h.05a4.53 4.53 0 0 1 4.07-2.31c1.7 0 4.34 1 4.34 5.23v7.34h-2.24v-7.08c0-2-.73-3.63-2.84-3.63a3.18 3.18 0 0 0-3 2.28 3.26 3.26 0 0 0-.15 1v7.39H674zM694.93 221.84l-.18-1.55h-.07a4.58 4.58 0 0 1-3.76 1.83 3.5 3.5 0 0 1-3.76-3.53c0-3 2.64-4.6 7.39-4.57v-.25a2.54 2.54 0 0 0-2.79-2.85 6.11 6.11 0 0 0-3.2.92l-.51-1.48a7.65 7.65 0 0 1 4-1.09c3.76 0 4.67 2.57 4.67 5v4.59a17.62 17.62 0 0 0 .2 3zm-.33-6.27c-2.43 0-5.2.38-5.2 2.77a2 2 0 0 0 2.1 2.13 3.08 3.08 0 0 0 3-2.06 2.52 2.52 0 0 0 .12-.71zM711 209.55c-.05.89-.1 1.88-.1 3.38v7.13c0 2.82-.56 4.55-1.75 5.61a6.5 6.5 0 0 1-4.47 1.48 8 8 0 0 1-4.09-1l.56-1.7a6.9 6.9 0 0 0 3.61 1c2.28 0 4-1.19 4-4.29v-1.37a4.38 4.38 0 0 1-3.91 2.06c-3.05 0-5.23-2.59-5.23-6 0-4.17 2.71-6.53 5.53-6.53a4.12 4.12 0 0 1 3.84 2.13l.1-1.85zm-2.31 4.85a3.18 3.18 0 0 0-.12-1 3.23 3.23 0 0 0-3.13-2.37c-2.13 0-3.65 1.81-3.65 4.65 0 2.41 1.22 4.42 3.63 4.42a3.26 3.26 0 0 0 3.09-2.29 3.78 3.78 0 0 0 .18-1.19zM715.8 216.1c.05 3 2 4.27 4.22 4.27a8 8 0 0 0 3.4-.64l.38 1.6a9.89 9.89 0 0 1-4.09.76c-3.78 0-6-2.48-6-6.19s2.18-6.63 5.76-6.63c4 0 5.08 3.53 5.08 5.79a7.43 7.43 0 0 1-.08 1zm6.55-1.6c0-1.42-.58-3.63-3.1-3.63-2.26 0-3.25 2.08-3.42 3.63zM727.28 212.88c0-1.27 0-2.31-.11-3.33h2l.1 2h.08a4.23 4.23 0 0 1 3.86-2.26 3.65 3.65 0 0 1 3.48 2.46h.05a5 5 0 0 1 1.37-1.59 4.17 4.17 0 0 1 2.71-.87c1.63 0 4 1.07 4 5.33v7.24h-2.18v-7c0-2.36-.87-3.78-2.67-3.78a2.89 2.89 0 0 0-2.64 2 3.75 3.75 0 0 0-.18 1.12v7.59H735v-7.36c0-2-.86-3.38-2.56-3.38a3.33 3.33 0 0 0-2.95 3.33v7.41h-2.18zM749.69 216.1c.06 3 2 4.27 4.22 4.27a8 8 0 0 0 3.4-.64l.38 1.6a9.85 9.85 0 0 1-4.09.76c-3.78 0-6-2.48-6-6.19s2.19-6.63 5.77-6.63c4 0 5.07 3.53 5.07 5.79a10 10 0 0 1-.07 1zm6.56-1.6c0-1.42-.59-3.63-3.1-3.63-2.26 0-3.25 2.08-3.43 3.63zM761.17 212.88c0-1.27 0-2.31-.1-3.33h2l.13 2h.05a4.51 4.51 0 0 1 4.06-2.31c1.7 0 4.34 1 4.34 5.23v7.34h-2.25v-7.08c0-2-.74-3.63-2.85-3.63a3.17 3.17 0 0 0-3 2.28 3.25 3.25 0 0 0-.16 1v7.39h-2.23zM777.85 206v3.53h3.2v1.7h-3.2v6.63c0 1.52.43 2.39 1.68 2.39a4.73 4.73 0 0 0 1.29-.16l.1 1.68a5.4 5.4 0 0 1-2 .3 3.09 3.09 0 0 1-2.41-.94 4.56 4.56 0 0 1-.86-3.19v-6.71h-1.91v-1.7h1.91v-2.94zM488.14 260.12h9.22V262h-7v5.69h6.48v1.82h-6.48v7.75h-2.21zM506.09 277.23l-.17-1.55h-.08a4.59 4.59 0 0 1-3.76 1.83 3.49 3.49 0 0 1-3.75-3.53c0-3 2.64-4.6 7.38-4.57v-.26a2.53 2.53 0 0 0-2.79-2.84 6.2 6.2 0 0 0-3.2.91l-.51-1.47a7.65 7.65 0 0 1 4-1.09c3.76 0 4.67 2.56 4.67 5v4.59a16.55 16.55 0 0 0 .21 3zm-.33-6.27c-2.43 0-5.2.38-5.2 2.76a2 2 0 0 0 2.11 2.14 3.06 3.06 0 0 0 3-2.06 2.52 2.52 0 0 0 .12-.71zM514 261.49a1.39 1.39 0 0 1-2.77 0 1.36 1.36 0 0 1 1.39-1.4 1.33 1.33 0 0 1 1.38 1.4zm-2.49 15.74v-12.29h2.23v12.29zM517.47 259.2h2.23v18h-2.23zM533.74 273.88c0 1.27 0 2.38.1 3.35h-2l-.12-2a4.64 4.64 0 0 1-4.07 2.29c-1.93 0-4.24-1.07-4.24-5.38v-7.19h2.24v6.8c0 2.34.71 3.91 2.74 3.91a3.21 3.21 0 0 0 2.94-2 3.17 3.17 0 0 0 .21-1.14v-7.54h2.23zM537.45 268.77c0-1.44 0-2.69-.1-3.83h1.95l.08 2.41h.1a3.68 3.68 0 0 1 3.4-2.69 2.49 2.49 0 0 1 .64.08v2.1a3.49 3.49 0 0 0-.77-.07 3.13 3.13 0 0 0-3 2.87 6.33 6.33 0 0 0-.1 1v6.55h-2.21zM546.74 271.49c0 3 2 4.27 4.22 4.27a8 8 0 0 0 3.4-.64l.38 1.6a9.89 9.89 0 0 1-4.09.76c-3.78 0-6-2.49-6-6.19s2.18-6.63 5.76-6.63c4 0 5.08 3.53 5.08 5.79a7.43 7.43 0 0 1-.08 1zm6.55-1.6c0-1.42-.58-3.63-3.1-3.63-2.26 0-3.25 2.08-3.42 3.63zM570.4 277.23l-.18-1.55h-.07a4.61 4.61 0 0 1-3.76 1.83 3.5 3.5 0 0 1-3.76-3.53c0-3 2.64-4.6 7.39-4.57v-.26a2.53 2.53 0 0 0-2.79-2.84 6.2 6.2 0 0 0-3.2.91l-.51-1.47a7.65 7.65 0 0 1 4-1.09c3.76 0 4.67 2.56 4.67 5v4.59a17.62 17.62 0 0 0 .2 3zm-.33-6.27c-2.44 0-5.2.38-5.2 2.76a2 2 0 0 0 2.1 2.14 3.08 3.08 0 0 0 3-2.06 2.52 2.52 0 0 0 .12-.71zM575.83 268.27c0-1.27 0-2.31-.1-3.33h2l.13 2a4.51 4.51 0 0 1 4.06-2.31c1.71 0 4.35 1 4.35 5.23v7.34h-2.24v-7.09c0-2-.73-3.63-2.84-3.63a3.19 3.19 0 0 0-3 2.29 3.26 3.26 0 0 0-.15 1v7.39h-2.24zM596.73 277.23l-.18-1.55h-.07a4.61 4.61 0 0 1-3.76 1.83A3.5 3.5 0 0 1 589 274c0-3 2.64-4.6 7.39-4.57v-.26a2.53 2.53 0 0 0-2.79-2.84 6.17 6.17 0 0 0-3.2.91l-.51-1.47a7.65 7.65 0 0 1 4-1.09c3.75 0 4.67 2.56 4.67 5v4.59a17.62 17.62 0 0 0 .2 3zm-.33-6.23c-2.44 0-5.2.38-5.2 2.76a2 2 0 0 0 2.1 2.14 3.05 3.05 0 0 0 3-2.06 2.22 2.22 0 0 0 .13-.71zM602.16 259.2h2.24v18h-2.24zM609 264.94l2.69 7.26c.28.81.58 1.78.79 2.52.22-.74.48-1.68.78-2.57l2.44-7.21h2.36l-3.35 8.76c-1.6 4.21-2.69 6.37-4.21 7.69a6 6 0 0 1-2.75 1.45l-.56-1.88a5.92 5.92 0 0 0 2-1.09 6.8 6.8 0 0 0 1.88-2.49 1.71 1.71 0 0 0 .18-.53 1.79 1.79 0 0 0-.16-.59l-4.54-11.32zM619.66 274.94a5.75 5.75 0 0 0 2.94.89c1.63 0 2.39-.81 2.39-1.83s-.64-1.65-2.29-2.26c-2.21-.78-3.25-2-3.25-3.47 0-2 1.6-3.61 4.24-3.61a6.16 6.16 0 0 1 3 .76l-.55 1.63a4.79 4.79 0 0 0-2.52-.71c-1.32 0-2.06.76-2.06 1.67s.74 1.47 2.34 2.08c2.13.82 3.23 1.88 3.23 3.71 0 2.16-1.68 3.68-4.6 3.68a7 7 0 0 1-3.45-.84zM632.5 261.49a1.31 1.31 0 0 1-1.42 1.37 1.33 1.33 0 0 1-1.35-1.37 1.37 1.37 0 0 1 1.4-1.4 1.33 1.33 0 0 1 1.37 1.4zm-2.5 15.74v-12.29h2.24v12.29zM635.65 274.94a5.78 5.78 0 0 0 2.94.89c1.63 0 2.39-.81 2.39-1.83s-.63-1.65-2.28-2.26c-2.21-.78-3.25-2-3.25-3.47 0-2 1.6-3.61 4.24-3.61a6.22 6.22 0 0 1 3 .76l-.56 1.63a4.72 4.72 0 0 0-2.51-.71c-1.32 0-2.06.76-2.06 1.67s.74 1.47 2.34 2.08c2.13.82 3.22 1.88 3.22 3.71 0 2.16-1.68 3.68-4.6 3.68a7 7 0 0 1-3.45-.84zM488.14 315.73a32.23 32.23 0 0 1 4.7-.35c3.18 0 5.44.73 6.93 2.13a7.87 7.87 0 0 1 2.42 6.14 9.07 9.07 0 0 1-2.47 6.66c-1.6 1.6-4.24 2.46-7.56 2.46a37.6 37.6 0 0 1-4-.2zm2.21 15.14a14.28 14.28 0 0 0 2.24.12c4.72 0 7.29-2.64 7.29-7.26 0-4-2.26-6.6-6.94-6.6a12.38 12.38 0 0 0-2.59.23zM516.2 326.37c0 4.55-3.15 6.53-6.12 6.53-3.33 0-5.89-2.44-5.89-6.33 0-4.11 2.69-6.52 6.09-6.52s5.92 2.56 5.92 6.32zm-9.75.13c0 2.69 1.55 4.72 3.73 4.72s3.73-2 3.73-4.77c0-2.08-1-4.73-3.68-4.73s-3.78 2.44-3.78 4.78zM519.73 320.33l1.62 6.24c.36 1.38.69 2.64.92 3.91h.07c.28-1.24.69-2.56 1.09-3.88l2-6.27h1.88l1.9 6.14c.46 1.48.82 2.77 1.1 4h.07a35.66 35.66 0 0 1 .94-4l1.75-6.17h2.21l-4 12.29h-2l-1.88-5.87a39.91 39.91 0 0 1-1.09-4h-.05a37.57 37.57 0 0 1-1.12 4.07l-2 5.84h-2l-3.71-12.29zM537.52 323.65c0-1.27 0-2.31-.1-3.32h2l.13 2h.05a4.51 4.51 0 0 1 4.06-2.31c1.7 0 4.35 1 4.35 5.23v7.34h-2.24v-7.09c0-2-.74-3.63-2.84-3.63a3.17 3.17 0 0 0-3 2.29 3.26 3.26 0 0 0-.15 1v7.39h-2.24zM554.21 316.8v3.53h3.19V322h-3.19v6.63c0 1.52.43 2.38 1.67 2.38a4.9 4.9 0 0 0 1.3-.15l.1 1.68a5.67 5.67 0 0 1-2 .3 3.12 3.12 0 0 1-2.42-.94 4.57 4.57 0 0 1-.86-3.2V322h-1.9v-1.7h1.9v-2.95zM562.41 316.87a1.39 1.39 0 0 1-2.77 0 1.36 1.36 0 0 1 1.39-1.39 1.33 1.33 0 0 1 1.38 1.39zm-2.49 15.75v-12.29h2.23v12.29zM565.86 323.65c0-1.27 0-2.31-.1-3.32h2l.1 2h.08a4.23 4.23 0 0 1 3.86-2.26 3.64 3.64 0 0 1 3.48 2.46 5.08 5.08 0 0 1 1.37-1.6 4.18 4.18 0 0 1 2.72-.86c1.62 0 4 1.07 4 5.33v7.24h-2.18v-7c0-2.36-.86-3.78-2.67-3.78a2.89 2.89 0 0 0-2.64 2 3.7 3.7 0 0 0-.18 1.12v7.59h-2.18v-7.37c0-1.95-.86-3.37-2.56-3.37a3 3 0 0 0-2.77 2.23 3 3 0 0 0-.18 1.09v7.42h-2.18zM588.28 326.88c.05 3 2 4.26 4.21 4.26a8 8 0 0 0 3.4-.63l.38 1.6a10 10 0 0 1-4.08.76c-3.79 0-6.05-2.49-6.05-6.19s2.19-6.63 5.77-6.63c4 0 5.07 3.53 5.07 5.79a10.18 10.18 0 0 1-.07 1zm6.55-1.6c0-1.42-.59-3.63-3.1-3.63-2.26 0-3.25 2.08-3.43 3.63zM611.94 332.62l-.18-1.55h-.08a4.57 4.57 0 0 1-3.75 1.83 3.51 3.51 0 0 1-3.76-3.53c0-3 2.64-4.6 7.39-4.57v-.26a2.54 2.54 0 0 0-2.8-2.84 6.13 6.13 0 0 0-3.2.91l-.5-1.47a7.58 7.58 0 0 1 4-1.09c3.76 0 4.68 2.56 4.68 5v4.59a17.62 17.62 0 0 0 .2 2.95zm-.33-6.27c-2.44-.06-5.21.38-5.21 2.76a2 2 0 0 0 2.11 2.14 3.05 3.05 0 0 0 3-2.06 2.22 2.22 0 0 0 .13-.71zM617.37 323.65c0-1.27 0-2.31-.1-3.32h2l.13 2a4.51 4.51 0 0 1 4.06-2.31c1.7 0 4.34 1 4.34 5.23v7.34h-2.2v-7.09c0-2-.74-3.63-2.85-3.63a3.17 3.17 0 0 0-3 2.29 3.25 3.25 0 0 0-.16 1v7.39h-2.23zM642.07 314.59v14.85c0 1.1 0 2.34.11 3.18h-2l-.1-2.14H640a4.55 4.55 0 0 1-4.19 2.42c-3 0-5.26-2.52-5.26-6.25 0-4.09 2.52-6.6 5.51-6.6a4.12 4.12 0 0 1 3.71 1.88h.05v-7.34zm-2.23 10.74a4.29 4.29 0 0 0-.1-.94 3.29 3.29 0 0 0-3.23-2.59c-2.31 0-3.68 2-3.68 4.75 0 2.49 1.22 4.54 3.63 4.54a3.37 3.37 0 0 0 3.28-2.66 4.25 4.25 0 0 0 .1-1zM652 320.33l2.7 7.26c.28.81.58 1.78.78 2.51.23-.73.49-1.67.79-2.56l2.44-7.21h2.36l-3.35 8.76c-1.6 4.21-2.69 6.37-4.22 7.69a6 6 0 0 1-2.74 1.45l-.56-1.88a5.92 5.92 0 0 0 2-1.09 6.8 6.8 0 0 0 1.88-2.49 1.63 1.63 0 0 0 .17-.53 2 2 0 0 0-.15-.59l-4.54-11.32zM665.61 316.87a1.39 1.39 0 0 1-2.77 0 1.36 1.36 0 0 1 1.4-1.39 1.32 1.32 0 0 1 1.37 1.39zm-2.49 15.75v-12.29h2.23v12.29zM670.3 326.88c.06 3 2 4.26 4.22 4.26a8 8 0 0 0 3.4-.63l.38 1.6a10 10 0 0 1-4.09.76c-3.78 0-6-2.49-6-6.19s2.19-6.63 5.77-6.63c4 0 5.07 3.53 5.07 5.79a10.18 10.18 0 0 1-.07 1zm6.56-1.6c0-1.42-.59-3.63-3.1-3.63-2.26 0-3.25 2.08-3.43 3.63zM681.78 314.59H684v18h-2.23zM698.38 314.59v14.85c0 1.1 0 2.34.11 3.18h-2l-.1-2.14a4.55 4.55 0 0 1-4.19 2.42c-3 0-5.26-2.52-5.26-6.25 0-4.09 2.52-6.6 5.51-6.6a4.12 4.12 0 0 1 3.71 1.88v-7.34zm-2.23 10.74a3.76 3.76 0 0 0-.1-.94 3.29 3.29 0 0 0-3.23-2.59c-2.31 0-3.68 2-3.68 4.75 0 2.49 1.22 4.54 3.63 4.54a3.37 3.37 0 0 0 3.28-2.66 3.75 3.75 0 0 0 .1-1zM707.47 314.59h2.24v18h-2.24zM724.58 326.37c0 4.55-3.14 6.53-6.11 6.53-3.33 0-5.89-2.44-5.89-6.33 0-4.11 2.69-6.52 6.09-6.52s5.91 2.56 5.91 6.32zm-9.75.13c0 2.69 1.55 4.72 3.74 4.72s3.73-2 3.73-4.77c0-2.08-1-4.73-3.68-4.73s-3.79 2.44-3.79 4.78zM727.1 330.33a5.87 5.87 0 0 0 2.94.89c1.63 0 2.39-.81 2.39-1.83s-.64-1.65-2.29-2.26c-2.2-.78-3.25-2-3.25-3.48 0-2 1.6-3.6 4.24-3.6a6.13 6.13 0 0 1 3 .76l-.56 1.63a4.72 4.72 0 0 0-2.52-.72c-1.32 0-2.05.77-2.05 1.68s.73 1.47 2.33 2.08c2.14.81 3.23 1.88 3.23 3.71 0 2.16-1.68 3.68-4.6 3.68a7 7 0 0 1-3.45-.84zM737.15 330.33a5.88 5.88 0 0 0 3 .89c1.62 0 2.38-.81 2.38-1.83s-.63-1.65-2.28-2.26c-2.21-.78-3.25-2-3.25-3.48 0-2 1.6-3.6 4.24-3.6a6.11 6.11 0 0 1 3 .76l-.56 1.63a4.71 4.71 0 0 0-2.51-.72c-1.32 0-2.06.77-2.06 1.68s.74 1.47 2.34 2.08c2.13.81 3.22 1.88 3.22 3.71 0 2.16-1.67 3.68-4.59 3.68a7 7 0 0 1-3.46-.84zM494.87 358l-.17-1.55h-.08a4.61 4.61 0 0 1-3.76 1.83 3.51 3.51 0 0 1-3.76-3.53c0-3 2.64-4.6 7.39-4.57v-.26a2.53 2.53 0 0 0-2.79-2.84 6.11 6.11 0 0 0-3.2.91l-.51-1.47a7.65 7.65 0 0 1 4-1.09c3.76 0 4.67 2.56 4.67 5v4.6a17.62 17.62 0 0 0 .2 2.95zm-.33-6.28c-2.43-.05-5.2.39-5.2 2.77a2 2 0 0 0 2.11 2.13 3.07 3.07 0 0 0 3-2.05 2.52 2.52 0 0 0 .12-.71zM500.31 349c0-1.27 0-2.31-.11-3.32h2l.13 2h.05a4.51 4.51 0 0 1 4.06-2.31c1.71 0 4.35 1 4.35 5.23v7.4h-2.24v-7.09c0-2-.73-3.63-2.84-3.63a3.18 3.18 0 0 0-3 2.29 3.26 3.26 0 0 0-.15 1V358h-2.23zM521.2 358l-.18-1.55H521a4.61 4.61 0 0 1-3.76 1.83 3.51 3.51 0 0 1-3.76-3.53c0-3 2.64-4.6 7.39-4.57v-.26a2.53 2.53 0 0 0-2.79-2.84 6.08 6.08 0 0 0-3.2.91l-.51-1.47a7.65 7.65 0 0 1 4-1.09c3.76 0 4.67 2.56 4.67 5v4.6a17.62 17.62 0 0 0 .2 2.95zm-.33-6.28c-2.44-.05-5.2.39-5.2 2.77a2 2 0 0 0 2.1 2.13 3 3 0 0 0 3-2.05 2.22 2.22 0 0 0 .13-.71zM526.63 340h2.24v18h-2.24zM533.44 345.72l2.69 7.26c.28.81.58 1.78.79 2.51h.08c.23-.73.48-1.67.78-2.56l2.44-7.21h2.36l-3.35 8.76c-1.6 4.21-2.69 6.37-4.21 7.69a6.15 6.15 0 0 1-2.75 1.45l-.55-1.88a6.18 6.18 0 0 0 1.95-1.09 6.89 6.89 0 0 0 1.88-2.49 1.67 1.67 0 0 0 .18-.54 1.81 1.81 0 0 0-.16-.58L531 345.72zM544.13 355.72a5.84 5.84 0 0 0 2.94.89c1.63 0 2.39-.81 2.39-1.83s-.64-1.65-2.29-2.26c-2.21-.79-3.25-2-3.25-3.48 0-2 1.6-3.6 4.24-3.6a6.05 6.05 0 0 1 3 .76l-.55 1.62a4.89 4.89 0 0 0-2.52-.71c-1.32 0-2.05.76-2.05 1.68s.73 1.47 2.33 2.08c2.13.81 3.23 1.88 3.23 3.71 0 2.16-1.68 3.68-4.6 3.68a7 7 0 0 1-3.45-.84zM557 342.26a1.38 1.38 0 0 1-2.76 0 1.36 1.36 0 0 1 1.39-1.39 1.32 1.32 0 0 1 1.37 1.39zM554.48 358v-12.28h2.24V358zM560.12 355.72a5.88 5.88 0 0 0 3 .89c1.62 0 2.38-.81 2.38-1.83s-.63-1.65-2.28-2.26c-2.21-.79-3.25-2-3.25-3.48 0-2 1.6-3.6 4.24-3.6a6.11 6.11 0 0 1 3 .76l-.56 1.62a4.81 4.81 0 0 0-2.51-.71c-1.32 0-2.06.76-2.06 1.68s.74 1.47 2.34 2.08c2.13.81 3.22 1.88 3.22 3.71 0 2.16-1.68 3.68-4.6 3.68a7 7 0 0 1-3.45-.84zM500.1 412.84a11 11 0 0 1-4.52.81c-4.82 0-8.45-3-8.45-8.66 0-5.36 3.63-9 8.94-9a9.27 9.27 0 0 1 4.06.76l-.53 1.81a8 8 0 0 0-3.46-.72c-4 0-6.68 2.57-6.68 7.06 0 4.19 2.42 6.88 6.58 6.88a8.72 8.72 0 0 0 3.61-.71zM513.63 407.15c0 4.54-3.14 6.52-6.11 6.52-3.33 0-5.89-2.43-5.89-6.32 0-4.11 2.69-6.52 6.09-6.52s5.91 2.56 5.91 6.32zm-9.75.12c0 2.7 1.55 4.73 3.74 4.73s3.73-2 3.73-4.78c0-2.08-1-4.72-3.68-4.72s-3.79 2.44-3.79 4.77zM516.45 404.43c0-1.27 0-2.31-.1-3.33h2l.1 2h.07a4.24 4.24 0 0 1 3.86-2.26 3.62 3.62 0 0 1 3.48 2.46 5.09 5.09 0 0 1 1.37-1.6 4.2 4.2 0 0 1 2.72-.86c1.62 0 4 1.06 4 5.33v7.23h-2.19v-6.95c0-2.36-.86-3.79-2.66-3.79a2.89 2.89 0 0 0-2.64 2 3.81 3.81 0 0 0-.18 1.12v7.59h-2.18V406c0-1.95-.87-3.38-2.57-3.38a3.06 3.06 0 0 0-2.77 2.24 3.23 3.23 0 0 0-.17 1.09v7.41h-2.19zM537.63 405.12c0-1.58 0-2.85-.11-4h2l.1 2.11a4.83 4.83 0 0 1 4.37-2.38c3 0 5.2 2.51 5.2 6.24 0 4.42-2.69 6.6-5.58 6.6a4.29 4.29 0 0 1-3.78-1.93h-.06v6.68h-2.2zm2.2 3.27a5.15 5.15 0 0 0 .11.92 3.45 3.45 0 0 0 3.35 2.61c2.36 0 3.73-1.93 3.73-4.75 0-2.46-1.29-4.57-3.66-4.57a3.56 3.56 0 0 0-3.37 2.77 3.47 3.47 0 0 0-.16.91zM552.07 395.37h2.24v18h-2.24zM560.55 397.65a1.31 1.31 0 0 1-1.42 1.37 1.33 1.33 0 0 1-1.35-1.37 1.36 1.36 0 0 1 1.4-1.39 1.32 1.32 0 0 1 1.37 1.39zm-2.49 15.74V401.1h2.24v12.29zM570.81 413.39l-.18-1.54h-.08a4.56 4.56 0 0 1-3.75 1.82 3.5 3.5 0 0 1-3.76-3.53c0-3 2.64-4.59 7.39-4.57v-.25a2.53 2.53 0 0 0-2.8-2.84 6.13 6.13 0 0 0-3.2.91l-.5-1.47a7.61 7.61 0 0 1 4-1.09c3.76 0 4.68 2.56 4.68 5v4.6a17.41 17.41 0 0 0 .2 2.94zm-.33-6.27c-2.44-.05-5.21.38-5.21 2.77a2 2 0 0 0 2.11 2.13 3 3 0 0 0 3-2 2.27 2.27 0 0 0 .13-.71zM576.24 404.43c0-1.27 0-2.31-.1-3.33h2l.13 2a4.51 4.51 0 0 1 4.06-2.31c1.7 0 4.34 1 4.34 5.23v7.33h-2.23v-7.08c0-2-.74-3.63-2.85-3.63a3.17 3.17 0 0 0-3 2.28 3.27 3.27 0 0 0-.16 1.05v7.38h-2.23zM599.09 412.94a8.3 8.3 0 0 1-3.53.71c-3.71 0-6.12-2.52-6.12-6.27a6.24 6.24 0 0 1 6.6-6.53 7.39 7.39 0 0 1 3.1.64l-.51 1.72a5.23 5.23 0 0 0-2.59-.58c-2.81 0-4.34 2.08-4.34 4.64 0 2.85 1.83 4.6 4.27 4.6a6.31 6.31 0 0 0 2.74-.61zM602.8 407.66c.05 3 2 4.26 4.21 4.26a8.14 8.14 0 0 0 3.4-.63l.38 1.6a10 10 0 0 1-4.08.76c-3.79 0-6.05-2.49-6.05-6.2s2.19-6.62 5.77-6.62c4 0 5.08 3.52 5.08 5.78a7.61 7.61 0 0 1-.08 1.05zm6.55-1.6c0-1.43-.59-3.63-3.1-3.63-2.26 0-3.25 2.08-3.43 3.63zM619.65 404.43c0-1.27 0-2.31-.1-3.33h2l.1 2h.08a4.21 4.21 0 0 1 3.85-2.26 3.62 3.62 0 0 1 3.48 2.46h.05a5.11 5.11 0 0 1 1.38-1.6 4.15 4.15 0 0 1 2.71-.86c1.63 0 4 1.06 4 5.33v7.23H635v-6.95c0-2.36-.87-3.79-2.67-3.79a2.89 2.89 0 0 0-2.64 2 3.81 3.81 0 0 0-.18 1.12v7.59h-2.18V406c0-1.95-.87-3.38-2.57-3.38a3 3 0 0 0-2.76 2.24 3 3 0 0 0-.18 1.09v7.41h-2.19zM647.63 413.39l-.17-1.54h-.08a4.6 4.6 0 0 1-3.76 1.82 3.5 3.5 0 0 1-3.76-3.53c0-3 2.64-4.59 7.39-4.57v-.25a2.53 2.53 0 0 0-2.79-2.84 6.11 6.11 0 0 0-3.2.91l-.51-1.47a7.65 7.65 0 0 1 4-1.09c3.76 0 4.67 2.56 4.67 5v4.6a17.41 17.41 0 0 0 .2 2.94zm-.33-6.27c-2.43-.05-5.2.38-5.2 2.77a2 2 0 0 0 2.11 2.13 3.07 3.07 0 0 0 3-2 2.58 2.58 0 0 0 .12-.71zM653.07 404.43c0-1.27 0-2.31-.11-3.33h2l.12 2a4.52 4.52 0 0 1 4.07-2.31c1.7 0 4.34 1 4.34 5.23v7.33h-2.24v-7.08c0-2-.73-3.63-2.84-3.63a3.18 3.18 0 0 0-3 2.28 3.28 3.28 0 0 0-.15 1.05v7.38h-2.23zM674 413.39l-.18-1.54h-.07a4.6 4.6 0 0 1-3.76 1.82 3.5 3.5 0 0 1-3.76-3.53c0-3 2.64-4.59 7.39-4.57v-.25a2.53 2.53 0 0 0-2.79-2.84 6.08 6.08 0 0 0-3.2.91l-.51-1.47a7.65 7.65 0 0 1 4-1.09c3.76 0 4.67 2.56 4.67 5v4.6a17.41 17.41 0 0 0 .2 2.94zm-.33-6.27c-2.44-.05-5.2.38-5.2 2.77a2 2 0 0 0 2.1 2.13 3 3 0 0 0 3-2 2.27 2.27 0 0 0 .13-.71zM690 401.1c-.05.89-.1 1.88-.1 3.38v7.14c0 2.81-.56 4.54-1.75 5.61a6.49 6.49 0 0 1-4.47 1.47 7.85 7.85 0 0 1-4.09-1l.56-1.7a6.9 6.9 0 0 0 3.61 1c2.28 0 4-1.19 4-4.29v-1.37h-.05a4.4 4.4 0 0 1-3.91 2c-3 0-5.23-2.59-5.23-6 0-4.16 2.71-6.52 5.53-6.52a4.1 4.1 0 0 1 3.84 2.13l.1-1.86zm-2.33 4.9a2.91 2.91 0 0 0-.13-1 3.2 3.2 0 0 0-3.12-2.36c-2.13 0-3.65 1.8-3.65 4.64 0 2.42 1.21 4.42 3.63 4.42a3.25 3.25 0 0 0 3.09-2.28 3.84 3.84 0 0 0 .18-1.2zM694.83 407.66c0 3 2 4.26 4.21 4.26a8.22 8.22 0 0 0 3.41-.63l.38 1.6a10.06 10.06 0 0 1-4.09.76c-3.78 0-6-2.49-6-6.2s2.18-6.62 5.76-6.62c4 0 5.08 3.52 5.08 5.78a7.61 7.61 0 0 1-.08 1.05zm6.55-1.6c0-1.43-.58-3.63-3.1-3.63-2.26 0-3.25 2.08-3.42 3.63zM706.31 404.43c0-1.27 0-2.31-.1-3.33h1.95l.1 2h.08a4.23 4.23 0 0 1 3.86-2.26 3.64 3.64 0 0 1 3.48 2.46h.05a5 5 0 0 1 1.37-1.6 4.17 4.17 0 0 1 2.71-.86c1.63 0 4 1.06 4 5.33v7.23h-2.18v-6.95c0-2.36-.87-3.79-2.67-3.79a2.89 2.89 0 0 0-2.64 2 3.81 3.81 0 0 0-.18 1.12v7.59H714V406c0-1.95-.86-3.38-2.56-3.38a3 3 0 0 0-2.77 2.24 3 3 0 0 0-.18 1.09v7.41h-2.18zM728.72 407.66c.06 3 2 4.26 4.22 4.26a8.17 8.17 0 0 0 3.4-.63l.38 1.6a10 10 0 0 1-4.09.76c-3.78 0-6-2.49-6-6.2s2.19-6.62 5.77-6.62c4 0 5.07 3.52 5.07 5.78a10.2 10.2 0 0 1-.07 1.05zm6.56-1.6c0-1.43-.59-3.63-3.1-3.63-2.26 0-3.25 2.08-3.43 3.63zM740.2 404.43c0-1.27 0-2.31-.1-3.33h2l.13 2a4.51 4.51 0 0 1 4.06-2.31c1.7 0 4.34 1 4.34 5.23v7.33h-2.23v-7.08c0-2-.74-3.63-2.85-3.63a3.17 3.17 0 0 0-3 2.28 3 3 0 0 0-.16 1.05v7.38h-2.19zM756.88 397.58v3.52h3.2v1.71h-3.2v6.62c0 1.53.43 2.39 1.68 2.39a5.27 5.27 0 0 0 1.29-.15l.1 1.67a5.37 5.37 0 0 1-2 .31 3.09 3.09 0 0 1-2.41-.94 4.57 4.57 0 0 1-.86-3.2v-6.7h-1.91v-1.71h1.91v-2.94z"/><circle class="cls-4" cx="459.48" cy="215" r="4.5"/><circle class="cls-4" cx="459.48" cy="268.31" r="4.5"/><circle class="cls-4" cx="459.48" cy="324.62" r="4.5"/><circle class="cls-4" cx="459.48" cy="404.93" r="4.5"/><path class="cls-5" d="M830.26.15v525.7h407.97V0L830.26.15z"/><path stroke="#a8d7cd" stroke-width="2.13" stroke-miterlimit="10" fill="none" d="M849.36 170.99l369.77-.06"/><path class="cls-3" d="M1006.83 108a93 93 0 0 1-8.91-2.94 5.66 5.66 0 0 0-1.48-.34c-5.28-.27-10-4.17-10-11.58 0-7 4.37-12 10.9-12s10.52 5.08 10.52 11.51c0 5.52-2.53 9.2-5.88 10.52v.14c2 .54 4.16 1 6 1.39zm-3.36-15.13c0-4.36-2.13-8.36-6.26-8.36s-6.39 4-6.36 8.53 2.3 8.33 6.3 8.33 6.32-3.72 6.32-8.49zM1026.19 99.41c0 2 .07 3.59.13 4.94h-3.65l-.2-2.5h-.07a6 6 0 0 1-5.28 2.88c-3 0-5.75-1.8-5.75-7.18v-9.68h4.16v9c0 2.74.88 4.5 3.08 4.5a3.5 3.5 0 0 0 3.18-2.23 3.9 3.9 0 0 0 .24-1.29v-9.98h4.16zM1040 104.35l-.27-1.82h-.11a6.13 6.13 0 0 1-4.87 2.2 4.9 4.9 0 0 1-5.18-4.91c0-4.16 3.69-6.26 9.78-6.23v-.27c0-1.08-.44-2.88-3.35-2.88a8.75 8.75 0 0 0-4.43 1.22l-.81-2.7a11.8 11.8 0 0 1 6-1.46c5.28 0 6.81 3.35 6.81 6.94v6a26.38 26.38 0 0 0 .23 4zm-.54-8c-3-.07-5.76.58-5.76 3.08a2.19 2.19 0 0 0 2.37 2.37 3.36 3.36 0 0 0 3.25-2.27 3 3 0 0 0 .14-.91zM1047.89 80.33h4.2v24h-4.2zM1061 83.27a2.34 2.34 0 0 1-4.67 0 2.34 2.34 0 0 1 4.67 0zm-4.43 21.08V87.87h4.2v16.48zM1070 83.17v4.7h4V91h-4v7.27c0 2 .54 3 2.13 3a6.19 6.19 0 0 0 1.62-.2l.07 3.18a9.36 9.36 0 0 1-3 .4 4.82 4.82 0 0 1-3.59-1.35c-.88-1-1.28-2.44-1.28-4.6V91h-2.37v-3.13h2.42v-3.72zM1080 87.87l3 8.84c.34 1 .67 2.26.91 3.21h.1c.27-1 .58-2.16.88-3.25l2.58-8.8h4.46l-4.13 11.24c-2.26 6.16-3.79 8.9-5.75 10.59a8.28 8.28 0 0 1-4.37 2.13l-.94-3.52a6.88 6.88 0 0 0 2.43-1.15 7.09 7.09 0 0 0 2.27-2.6 1.67 1.67 0 0 0 .27-.75 1.7 1.7 0 0 0-.24-.81l-6-15.13zM897.16 219.15a7.8 7.8 0 0 0 4 1.12c2.26 0 3.58-1.2 3.58-2.92s-.92-2.52-3.23-3.41c-2.79-1-4.52-2.43-4.52-4.85 0-2.66 2.21-4.64 5.54-4.64a7.66 7.66 0 0 1 3.78.84l-.61 1.8a6.76 6.76 0 0 0-3.25-.81c-2.33 0-3.22 1.39-3.22 2.56 0 1.6 1 2.39 3.4 3.3 2.9 1.12 4.37 2.51 4.37 5s-2 4.92-6 4.92a8.84 8.84 0 0 1-4.4-1.06zM912.52 206v3.53h3.2v1.7h-3.2v6.63c0 1.52.43 2.39 1.67 2.39a4.76 4.76 0 0 0 1.3-.16l.1 1.68a5.44 5.44 0 0 1-2 .3 3.09 3.09 0 0 1-2.41-.94 4.51 4.51 0 0 1-.87-3.19v-6.71h-1.9v-1.7h1.9v-2.94zM925 221.84l-.17-1.55h-.08a4.58 4.58 0 0 1-3.76 1.83 3.5 3.5 0 0 1-3.76-3.53c0-3 2.65-4.6 7.39-4.57v-.25a2.54 2.54 0 0 0-2.79-2.85 6.11 6.11 0 0 0-3.2.92l-.51-1.48a7.65 7.65 0 0 1 4-1.09c3.76 0 4.67 2.57 4.67 5v4.59a16.55 16.55 0 0 0 .21 3zm-.33-6.27c-2.43 0-5.2.38-5.2 2.77a2 2 0 0 0 2.11 2.13 3.06 3.06 0 0 0 3-2.06 2.52 2.52 0 0 0 .12-.71zM930.47 212.88c0-1.27 0-2.31-.1-3.33h2l.12 2a4.52 4.52 0 0 1 4.07-2.31c1.7 0 4.34 1 4.34 5.23v7.34h-2.24v-7.08c0-2-.73-3.63-2.84-3.63a3.18 3.18 0 0 0-3 2.28 3.26 3.26 0 0 0-.15 1v7.39h-2.23zM955.17 203.81v14.86c0 1.09 0 2.33.1 3.17h-2l-.1-2.13h-.06a4.54 4.54 0 0 1-4.19 2.41c-3 0-5.25-2.51-5.25-6.25 0-4.08 2.51-6.6 5.51-6.6a4.12 4.12 0 0 1 3.71 1.88h.05v-7.34zm-2.23 10.74a3.77 3.77 0 0 0-.11-.94 3.28 3.28 0 0 0-3.22-2.59c-2.31 0-3.68 2-3.68 4.75 0 2.49 1.22 4.55 3.63 4.55a3.35 3.35 0 0 0 3.27-2.67 3.67 3.67 0 0 0 .11-1zM965.68 221.84l-.18-1.55h-.07a4.58 4.58 0 0 1-3.76 1.83 3.5 3.5 0 0 1-3.76-3.53c0-3 2.64-4.6 7.39-4.57v-.25a2.54 2.54 0 0 0-2.79-2.85 6.11 6.11 0 0 0-3.2.92l-.51-1.48a7.65 7.65 0 0 1 4-1.09c3.76 0 4.67 2.57 4.67 5v4.59a17.62 17.62 0 0 0 .2 3zm-.33-6.27c-2.44 0-5.2.38-5.2 2.77a2 2 0 0 0 2.1 2.13 3.05 3.05 0 0 0 3-2.06 2.22 2.22 0 0 0 .13-.71zM971.11 213.39c0-1.45 0-2.7-.1-3.84h2L973 212h.11a3.67 3.67 0 0 1 3.4-2.69 2.41 2.41 0 0 1 .63.08v2.11a2.86 2.86 0 0 0-.76-.08 3.14 3.14 0 0 0-3 2.87 6.33 6.33 0 0 0-.1 1v6.55h-2.21zM989.78 203.81v14.86c0 1.09 0 2.33.1 3.17h-2l-.1-2.13a4.55 4.55 0 0 1-4.19 2.41c-3 0-5.26-2.51-5.26-6.25 0-4.08 2.52-6.6 5.51-6.6a4.12 4.12 0 0 1 3.71 1.88v-7.34zm-2.24 10.74a3.76 3.76 0 0 0-.1-.94 3.29 3.29 0 0 0-3.23-2.59c-2.31 0-3.68 2-3.68 4.75 0 2.49 1.22 4.55 3.63 4.55a3.36 3.36 0 0 0 3.28-2.67 3.68 3.68 0 0 0 .1-1zM1010 215.59c0 4.55-3.14 6.53-6.11 6.53-3.33 0-5.9-2.44-5.9-6.32 0-4.12 2.7-6.53 6.1-6.53s5.91 2.57 5.91 6.32zm-9.75.13c0 2.69 1.55 4.72 3.74 4.72s3.73-2 3.73-4.77c0-2.08-1-4.72-3.68-4.72s-3.81 2.44-3.81 4.77zM1012.8 213.56c0-1.57 0-2.84-.1-4h2l.1 2.11h.05a4.83 4.83 0 0 1 4.37-2.39c3 0 5.2 2.52 5.2 6.25 0 4.42-2.69 6.6-5.59 6.6a4.31 4.31 0 0 1-3.78-1.93v6.68h-2.21zm2.21 3.28a5.07 5.07 0 0 0 .1.91 3.45 3.45 0 0 0 3.35 2.62c2.37 0 3.74-1.93 3.74-4.75 0-2.46-1.3-4.57-3.66-4.57a3.57 3.57 0 0 0-3.38 2.77 3.93 3.93 0 0 0-.15.91zM1028.49 216.1c0 3 2 4.27 4.22 4.27a8 8 0 0 0 3.4-.64l.38 1.6a9.89 9.89 0 0 1-4.09.76c-3.78 0-6-2.48-6-6.19s2.18-6.63 5.76-6.63c4 0 5.08 3.53 5.08 5.79a7.43 7.43 0 0 1-.08 1zm6.55-1.6c0-1.42-.58-3.63-3.1-3.63-2.26 0-3.25 2.08-3.42 3.63zM1040 213.39c0-1.45 0-2.7-.1-3.84h2l.08 2.41h.1a3.68 3.68 0 0 1 3.4-2.69 2.55 2.55 0 0 1 .64.08v2.11a2.94 2.94 0 0 0-.77-.08 3.13 3.13 0 0 0-3 2.87 6.33 6.33 0 0 0-.1 1v6.55H1040zM1055 221.84l-.18-1.55h-.08a4.54 4.54 0 0 1-3.75 1.83 3.5 3.5 0 0 1-3.76-3.53c0-3 2.64-4.6 7.39-4.57v-.25a2.54 2.54 0 0 0-2.8-2.85 6.14 6.14 0 0 0-3.2.92l-.5-1.48a7.58 7.58 0 0 1 4-1.09c3.76 0 4.68 2.57 4.68 5v4.59a17.62 17.62 0 0 0 .2 3zm-.33-6.27c-2.44 0-5.21.38-5.21 2.77a2 2 0 0 0 2.11 2.13 3.06 3.06 0 0 0 3-2.06 2.22 2.22 0 0 0 .13-.71zM1063 206v3.53h3.2v1.7h-3.2v6.63c0 1.52.43 2.39 1.68 2.39a4.73 4.73 0 0 0 1.29-.16l.1 1.68a5.44 5.44 0 0 1-2 .3 3.09 3.09 0 0 1-2.41-.94 4.51 4.51 0 0 1-.86-3.19v-6.71h-1.91v-1.7h1.91v-2.94zM1071.17 206.1a1.31 1.31 0 0 1-1.42 1.37 1.33 1.33 0 0 1-1.35-1.37 1.37 1.37 0 0 1 1.4-1.4 1.33 1.33 0 0 1 1.37 1.4zm-2.49 15.74v-12.29h2.24v12.29zM1074.62 212.88c0-1.27 0-2.31-.1-3.33h2l.13 2a4.51 4.51 0 0 1 4.06-2.31c1.7 0 4.34 1 4.34 5.23v7.34h-2.23v-7.08c0-2-.74-3.63-2.85-3.63a3.17 3.17 0 0 0-3 2.28 3.26 3.26 0 0 0-.15 1v7.39h-2.24zM1099.3 209.55c0 .89-.1 1.88-.1 3.38v7.13c0 2.82-.56 4.55-1.75 5.61a6.52 6.52 0 0 1-4.47 1.48 8 8 0 0 1-4.09-1l.56-1.7a6.89 6.89 0 0 0 3.6 1c2.29 0 4-1.19 4-4.29v-1.37h-.05a4.36 4.36 0 0 1-3.91 2.06c-3 0-5.23-2.59-5.23-6 0-4.17 2.72-6.53 5.54-6.53a4.09 4.09 0 0 1 3.83 2.13l.11-1.85zm-2.3 4.85a3.17 3.17 0 0 0-.13-1 3.21 3.21 0 0 0-3.12-2.37c-2.13 0-3.66 1.81-3.66 4.65 0 2.41 1.22 4.42 3.63 4.42a3.27 3.27 0 0 0 3.1-2.29 3.78 3.78 0 0 0 .18-1.19zM1108.29 213.56c0-1.57 0-2.84-.11-4h2l.1 2.11a4.84 4.84 0 0 1 4.37-2.39c3 0 5.21 2.52 5.21 6.25 0 4.42-2.7 6.6-5.59 6.6a4.29 4.29 0 0 1-3.78-1.93v6.68h-2.21zm2.21 3.28a5.07 5.07 0 0 0 .1.91 3.44 3.44 0 0 0 3.35 2.62c2.36 0 3.73-1.93 3.73-4.75 0-2.46-1.29-4.57-3.66-4.57a3.56 3.56 0 0 0-3.37 2.77 3.47 3.47 0 0 0-.15.91zM1122.73 213.39c0-1.45 0-2.7-.1-3.84h1.95l.08 2.41h.1a3.69 3.69 0 0 1 3.41-2.69 2.41 2.41 0 0 1 .63.08v2.11a2.91 2.91 0 0 0-.76-.08 3.13 3.13 0 0 0-3 2.87 6.33 6.33 0 0 0-.1 1v6.55h-2.21zM1141.9 215.59c0 4.55-3.15 6.53-6.12 6.53-3.32 0-5.89-2.44-5.89-6.32 0-4.12 2.69-6.53 6.09-6.53s5.92 2.57 5.92 6.32zm-9.75.13c0 2.69 1.55 4.72 3.73 4.72s3.74-2 3.74-4.77c0-2.08-1-4.72-3.69-4.72s-3.78 2.44-3.78 4.77zM1153.48 221.38a8.18 8.18 0 0 1-3.53.71c-3.71 0-6.12-2.51-6.12-6.27a6.24 6.24 0 0 1 6.6-6.52 7.57 7.57 0 0 1 3.1.63l-.51 1.73a5.1 5.1 0 0 0-2.59-.59c-2.82 0-4.34 2.09-4.34 4.65 0 2.84 1.83 4.6 4.26 4.6a6.39 6.39 0 0 0 2.75-.61zM1157.18 216.1c0 3 2 4.27 4.22 4.27a8 8 0 0 0 3.4-.64l.38 1.6a9.89 9.89 0 0 1-4.09.76c-3.78 0-6-2.48-6-6.19s2.18-6.63 5.76-6.63c4 0 5.08 3.53 5.08 5.79a10 10 0 0 1-.07 1zm6.55-1.6c0-1.42-.58-3.63-3.09-3.63-2.26 0-3.25 2.08-3.43 3.63zM1179.27 203.81v14.86c0 1.09 0 2.33.1 3.17h-2l-.1-2.13a4.56 4.56 0 0 1-4.19 2.41c-3 0-5.26-2.51-5.26-6.25 0-4.08 2.51-6.6 5.51-6.6a4.12 4.12 0 0 1 3.71 1.88v-7.34zm-2.27 10.74a4.29 4.29 0 0 0-.1-.94 3.29 3.29 0 0 0-3.23-2.59c-2.31 0-3.68 2-3.68 4.75 0 2.49 1.22 4.55 3.63 4.55a3.36 3.36 0 0 0 3.28-2.67 4.16 4.16 0 0 0 .1-1zM1193.26 218.49c0 1.27 0 2.39.1 3.35h-2l-.12-2a4.64 4.64 0 0 1-4.07 2.29c-1.93 0-4.24-1.07-4.24-5.38v-7.19h2.24v6.81c0 2.33.71 3.91 2.74 3.91a3.22 3.22 0 0 0 2.94-2 3.17 3.17 0 0 0 .21-1.14v-7.54h2.23zM1197 213.39c0-1.45 0-2.7-.1-3.84h2l.08 2.41h.1a3.68 3.68 0 0 1 3.4-2.69 2.49 2.49 0 0 1 .64.08v2.11a2.94 2.94 0 0 0-.77-.08 3.13 3.13 0 0 0-3 2.87 6.33 6.33 0 0 0-.1 1v6.55H1197zM1206.26 216.1c0 3 2 4.27 4.21 4.27a8 8 0 0 0 3.41-.64l.38 1.6a9.89 9.89 0 0 1-4.09.76c-3.78 0-6-2.48-6-6.19s2.18-6.63 5.76-6.63c4 0 5.08 3.53 5.08 5.79a7.43 7.43 0 0 1-.08 1zm6.55-1.6c0-1.42-.58-3.63-3.1-3.63-2.26 0-3.25 2.08-3.42 3.63zM897.16 274.54a7.8 7.8 0 0 0 4 1.11c2.26 0 3.58-1.19 3.58-2.92s-.92-2.51-3.23-3.4c-2.79-1-4.52-2.44-4.52-4.85 0-2.66 2.21-4.64 5.54-4.64a7.79 7.79 0 0 1 3.78.83l-.61 1.81a6.74 6.74 0 0 0-3.25-.82c-2.33 0-3.22 1.4-3.22 2.57 0 1.6 1 2.39 3.4 3.3 2.9 1.12 4.37 2.51 4.37 5s-2 4.92-6 4.92a8.84 8.84 0 0 1-4.37-1.09zM912.39 261.49a1.31 1.31 0 0 1-1.42 1.37 1.33 1.33 0 0 1-1.35-1.37 1.37 1.37 0 0 1 1.4-1.4 1.33 1.33 0 0 1 1.37 1.4zm-2.49 15.74v-12.29h2.24v12.29zM916.88 264.94l1.76 2.64c.45.69.83 1.32 1.24 2h.12c.4-.74.81-1.37 1.21-2l1.73-2.62h2.41l-4.19 5.94 4.32 6.35h-2.58l-1.8-2.77c-.48-.71-.89-1.4-1.32-2.13-.41.73-.84 1.39-1.3 2.13l-1.77 2.77h-2.47l4.37-6.27-4.16-6zM932.75 274.54a7.83 7.83 0 0 0 4 1.11c2.26 0 3.58-1.19 3.58-2.92s-.91-2.51-3.22-3.4c-2.8-1-4.52-2.44-4.52-4.85 0-2.66 2.21-4.64 5.53-4.64a7.87 7.87 0 0 1 3.79.83l-.61 1.81a6.74 6.74 0 0 0-3.25-.82c-2.34 0-3.23 1.4-3.23 2.57 0 1.6 1 2.39 3.4 3.3 2.9 1.12 4.37 2.51 4.37 5s-1.95 4.92-6 4.92a8.87 8.87 0 0 1-4.37-1.09zM948 261.49a1.31 1.31 0 0 1-1.42 1.37 1.33 1.33 0 0 1-1.34-1.37 1.36 1.36 0 0 1 1.39-1.4 1.33 1.33 0 0 1 1.37 1.4zm-2.48 15.74v-12.29h2.23v12.29zM962 264.94c0 .89-.1 1.88-.1 3.38v7.13c0 2.82-.56 4.55-1.75 5.61a6.5 6.5 0 0 1-4.47 1.48 8 8 0 0 1-4.09-1l.56-1.7a6.93 6.93 0 0 0 3.61 1c2.28 0 4-1.19 4-4.29v-1.37a4.4 4.4 0 0 1-3.91 2.06c-3 0-5.23-2.59-5.23-6 0-4.17 2.71-6.53 5.53-6.53a4.11 4.11 0 0 1 3.84 2.13h.01l.1-1.85zm-2.31 4.85a3.29 3.29 0 0 0-.12-1 3.23 3.23 0 0 0-3.13-2.36c-2.13 0-3.65 1.81-3.65 4.65 0 2.41 1.22 4.42 3.63 4.42a3.28 3.28 0 0 0 3.1-2.29 4.08 4.08 0 0 0 .17-1.19zM965.48 268.27c0-1.27 0-2.31-.11-3.33h2l.1 2h.08a4.22 4.22 0 0 1 3.86-2.26 3.63 3.63 0 0 1 3.47 2.46h.06a5.08 5.08 0 0 1 1.37-1.6 4.22 4.22 0 0 1 2.71-.86c1.63 0 4 1.07 4 5.33v7.24h-2.18v-7c0-2.36-.87-3.78-2.67-3.78a2.89 2.89 0 0 0-2.64 2 3.7 3.7 0 0 0-.18 1.12v7.59h-2.18v-7.36c0-2-.86-3.38-2.57-3.38a3 3 0 0 0-2.76 2.23 3 3 0 0 0-.18 1.09v7.42h-2.18zM993.45 277.23l-.17-1.55h-.08a4.61 4.61 0 0 1-3.76 1.83 3.5 3.5 0 0 1-3.76-3.53c0-3 2.65-4.6 7.39-4.57v-.26a2.53 2.53 0 0 0-2.79-2.84 6.2 6.2 0 0 0-3.2.91l-.51-1.47a7.65 7.65 0 0 1 4-1.09c3.76 0 4.67 2.56 4.67 5v4.59a16.55 16.55 0 0 0 .21 3zm-.33-6.27c-2.43 0-5.2.38-5.2 2.76a2 2 0 0 0 2.11 2.14 3.06 3.06 0 0 0 3-2.06 2.52 2.52 0 0 0 .12-.71zM911.88 325.1c-.12-2.39-.28-5.25-.25-7.39h-.08c-.58 2-1.29 4.14-2.15 6.5l-3 8.31h-1.7l-2.77-8.15c-.81-2.42-1.5-4.63-2-6.66h-.05c0 2.14-.18 5-.33 7.57l-.46 7.34H897l1.2-17.12h2.8l2.92 8.28c.71 2.11 1.29 4 1.72 5.76h.08c.43-1.72 1-3.6 1.8-5.76l3.05-8.28h2.82l1.06 17.12h-2.15zM919.19 326.88c.06 3 2 4.26 4.22 4.26a8 8 0 0 0 3.4-.63l.38 1.6a10 10 0 0 1-4.09.76c-3.78 0-6-2.49-6-6.19s2.19-6.63 5.77-6.63c4 0 5.07 3.53 5.07 5.79a10.18 10.18 0 0 1-.07 1zm6.56-1.6c0-1.42-.59-3.63-3.1-3.63-2.26 0-3.25 2.08-3.43 3.63zM933.36 316.8v3.53h3.2V322h-3.2v6.63c0 1.52.43 2.38 1.68 2.38a4.81 4.81 0 0 0 1.29-.15l.1 1.68a5.62 5.62 0 0 1-2 .3 3.09 3.09 0 0 1-2.41-.94 4.57 4.57 0 0 1-.86-3.2V322h-1.91v-1.7h1.91v-2.95zM939.07 324.16c0-1.45 0-2.69-.1-3.83h2l.07 2.41h.1a3.69 3.69 0 0 1 3.41-2.69 2.43 2.43 0 0 1 .63.07v2.11a3.45 3.45 0 0 0-.76-.07 3.14 3.14 0 0 0-3 2.87 6.33 6.33 0 0 0-.1 1v6.55h-2.21zM950 316.87a1.32 1.32 0 0 1-1.42 1.38 1.33 1.33 0 0 1-1.34-1.38 1.36 1.36 0 0 1 1.39-1.39 1.32 1.32 0 0 1 1.37 1.39zm-2.48 15.75v-12.29h2.23v12.29zM962.18 332.16a8.33 8.33 0 0 1-3.53.71c-3.71 0-6.12-2.51-6.12-6.27a6.25 6.25 0 0 1 6.6-6.53 7.39 7.39 0 0 1 3.1.64l-.51 1.73a5.1 5.1 0 0 0-2.59-.59c-2.82 0-4.34 2.08-4.34 4.65 0 2.84 1.83 4.59 4.26 4.59a6.39 6.39 0 0 0 2.75-.61zM964.49 330.33a5.84 5.84 0 0 0 2.94.89c1.63 0 2.39-.81 2.39-1.83s-.64-1.65-2.29-2.26c-2.21-.78-3.25-2-3.25-3.48 0-2 1.6-3.6 4.24-3.6a6.05 6.05 0 0 1 3 .76l-.55 1.63a4.75 4.75 0 0 0-2.52-.72c-1.32 0-2.05.77-2.05 1.68s.73 1.47 2.33 2.08c2.13.81 3.23 1.88 3.23 3.71 0 2.16-1.68 3.68-4.6 3.68a7 7 0 0 1-3.45-.84zM980.23 323.65c0-1.27 0-2.31-.1-3.32h2l.1 2h.08a4.23 4.23 0 0 1 3.86-2.26 3.64 3.64 0 0 1 3.48 2.46 5.08 5.08 0 0 1 1.37-1.6 4.17 4.17 0 0 1 2.71-.86c1.63 0 4 1.07 4 5.33v7.24h-2.18v-7c0-2.36-.87-3.78-2.67-3.78a2.89 2.89 0 0 0-2.64 2 3.7 3.7 0 0 0-.18 1.12v7.59h-2.18v-7.37c0-1.95-.86-3.37-2.56-3.37a3 3 0 0 0-2.77 2.23 3 3 0 0 0-.18 1.09v7.42h-2.18zM1008.21 332.62l-.18-1.55h-.03a4.58 4.58 0 0 1-3.76 1.83 3.5 3.5 0 0 1-3.75-3.53c0-3 2.64-4.6 7.38-4.57v-.26a2.53 2.53 0 0 0-2.79-2.84 6.13 6.13 0 0 0-3.2.91l-.51-1.47a7.65 7.65 0 0 1 4-1.09c3.76 0 4.67 2.56 4.67 5v4.59a16.55 16.55 0 0 0 .21 2.95zm-.33-6.27c-2.44-.06-5.21.38-5.21 2.76a2 2 0 0 0 2.11 2.14 3.06 3.06 0 0 0 3-2.06 2.53 2.53 0 0 0 .13-.71zM1013.64 323.65c0-1.27 0-2.31-.1-3.32h2l.12 2h.05a4.53 4.53 0 0 1 4.07-2.31c1.7 0 4.34 1 4.34 5.23v7.34h-2.24v-7.09c0-2-.73-3.63-2.84-3.63a3.19 3.19 0 0 0-3 2.29 3.26 3.26 0 0 0-.15 1v7.39h-2.23zM1034.53 332.62l-.17-1.55h-.08a4.61 4.61 0 0 1-3.76 1.83 3.51 3.51 0 0 1-3.76-3.53c0-3 2.64-4.6 7.39-4.57v-.26a2.53 2.53 0 0 0-2.79-2.84 6.11 6.11 0 0 0-3.2.91l-.51-1.47a7.65 7.65 0 0 1 4-1.09c3.76 0 4.67 2.56 4.67 5v4.59a17.62 17.62 0 0 0 .2 2.95zm-.33-6.27c-2.43-.06-5.2.38-5.2 2.76a2 2 0 0 0 2.11 2.14 3.06 3.06 0 0 0 3-2.06 2.52 2.52 0 0 0 .12-.71zM1050.55 320.33c0 .89-.1 1.88-.1 3.37v7.14c0 2.82-.56 4.54-1.75 5.61a6.49 6.49 0 0 1-4.47 1.47 8 8 0 0 1-4.09-1l.56-1.7a7 7 0 0 0 3.61 1c2.28 0 4-1.19 4-4.29v-1.37a4.4 4.4 0 0 1-3.91 2.06c-3 0-5.23-2.59-5.23-6 0-4.16 2.71-6.52 5.53-6.52a4.11 4.11 0 0 1 3.84 2.13l.1-1.85zm-2.31 4.85a3.29 3.29 0 0 0-.12-1 3.23 3.23 0 0 0-3.13-2.36c-2.13 0-3.65 1.8-3.65 4.65 0 2.41 1.22 4.42 3.63 4.42a3.28 3.28 0 0 0 3.1-2.29 4.08 4.08 0 0 0 .17-1.19zM1055.4 326.88a3.93 3.93 0 0 0 4.22 4.26 8 8 0 0 0 3.4-.63l.38 1.6a10.06 10.06 0 0 1-4.09.76c-3.78 0-6-2.49-6-6.19s2.18-6.63 5.76-6.63c4 0 5.08 3.53 5.08 5.79a7.57 7.57 0 0 1-.08 1zm6.55-1.6c0-1.42-.58-3.63-3.1-3.63-2.26 0-3.25 2.08-3.42 3.63zM1066.88 323.65c0-1.27 0-2.31-.1-3.32h2l.1 2h.08a4.23 4.23 0 0 1 3.86-2.26 3.64 3.64 0 0 1 3.48 2.46 5.08 5.08 0 0 1 1.37-1.6 4.17 4.17 0 0 1 2.71-.86c1.63 0 4 1.07 4 5.33v7.24h-2.18v-7c0-2.36-.86-3.78-2.67-3.78a2.89 2.89 0 0 0-2.64 2 3.7 3.7 0 0 0-.18 1.12v7.59h-2.18v-7.37c0-1.95-.86-3.37-2.56-3.37a3 3 0 0 0-2.77 2.23 3 3 0 0 0-.18 1.09v7.42h-2.18zM1089.29 326.88c.06 3 2 4.26 4.22 4.26a8 8 0 0 0 3.4-.63l.38 1.6a10 10 0 0 1-4.08.76c-3.79 0-6-2.49-6-6.19s2.19-6.63 5.77-6.63c4 0 5.07 3.53 5.07 5.79a10.18 10.18 0 0 1-.07 1zm6.56-1.6c0-1.42-.59-3.63-3.1-3.63-2.26 0-3.25 2.08-3.43 3.63zM1100.77 323.65c0-1.27 0-2.31-.1-3.32h2l.13 2a4.51 4.51 0 0 1 4.06-2.31c1.7 0 4.34 1 4.34 5.23v7.34h-2.2v-7.09c0-2-.74-3.63-2.85-3.63a3.17 3.17 0 0 0-3 2.29 3.25 3.25 0 0 0-.16 1v7.39h-2.23zM1117.45 316.8v3.53h3.2V322h-3.2v6.63c0 1.52.43 2.38 1.68 2.38a4.81 4.81 0 0 0 1.29-.15l.1 1.68a5.62 5.62 0 0 1-2 .3 3.09 3.09 0 0 1-2.41-.94 4.57 4.57 0 0 1-.86-3.2V322h-1.91v-1.7h1.91v-2.95zM909.42 387.45a11.08 11.08 0 0 1-4.52.81c-4.82 0-8.45-3.05-8.45-8.66 0-5.36 3.63-9 8.93-9a9.29 9.29 0 0 1 4.07.76l-.54 1.81a8 8 0 0 0-3.45-.71c-4 0-6.68 2.56-6.68 7.06 0 4.18 2.41 6.88 6.58 6.88a8.83 8.83 0 0 0 3.6-.71zM923 381.76c0 4.54-3.15 6.53-6.12 6.53-3.32 0-5.89-2.44-5.89-6.33 0-4.11 2.69-6.52 6.1-6.52S923 378 923 381.76zm-9.75.13c0 2.69 1.55 4.72 3.73 4.72s3.74-2 3.74-4.77c0-2.09-1-4.73-3.68-4.73s-3.84 2.44-3.84 4.78zM925.77 379c0-1.27 0-2.31-.1-3.32h2l.1 2h.08a4.24 4.24 0 0 1 3.86-2.26 3.62 3.62 0 0 1 3.48 2.46h.05a5 5 0 0 1 1.37-1.6 4.2 4.2 0 0 1 2.72-.86c1.62 0 4 1.06 4 5.33V388h-2.18v-7c0-2.36-.86-3.78-2.67-3.78a2.9 2.9 0 0 0-2.64 2 3.7 3.7 0 0 0-.17 1.11V388h-2.19v-7.37c0-1.95-.86-3.37-2.56-3.37a3 3 0 0 0-2.77 2.23 3 3 0 0 0-.18 1.09V388h-2.18zM946.94 379.73c0-1.58-.05-2.85-.1-4h2l.1 2.1a4.84 4.84 0 0 1 4.37-2.38c3 0 5.2 2.51 5.2 6.24 0 4.42-2.69 6.61-5.58 6.61a4.34 4.34 0 0 1-3.79-1.93h-.05V393h-2.21zm2.21 3.27a5.18 5.18 0 0 0 .1.92 3.45 3.45 0 0 0 3.36 2.61c2.36 0 3.73-1.93 3.73-4.74 0-2.47-1.3-4.58-3.66-4.58a3.59 3.59 0 0 0-3.38 2.79 3.93 3.93 0 0 0-.15.92zM972.51 381.76c0 4.54-3.15 6.53-6.12 6.53-3.33 0-5.89-2.44-5.89-6.33 0-4.11 2.69-6.52 6.09-6.52s5.92 2.56 5.92 6.32zm-9.75.13c0 2.69 1.55 4.72 3.73 4.72s3.73-2 3.73-4.77c0-2.09-1-4.73-3.68-4.73s-3.78 2.44-3.78 4.78zM975.33 379c0-1.27 0-2.31-.1-3.32h2l.12 2a4.53 4.53 0 0 1 4.07-2.31c1.7 0 4.34 1 4.34 5.23v7.4h-2.24v-7.09c0-2-.73-3.63-2.84-3.63a3.18 3.18 0 0 0-3 2.29 3.26 3.26 0 0 0-.15 1V388h-2.23zM990.66 382.27a3.93 3.93 0 0 0 4.22 4.26 8.17 8.17 0 0 0 3.4-.63l.38 1.6a10.06 10.06 0 0 1-4.09.76c-3.78 0-6-2.49-6-6.2s2.18-6.62 5.76-6.62c4 0 5.08 3.53 5.08 5.79a7.57 7.57 0 0 1-.08 1zm6.55-1.6c0-1.42-.58-3.63-3.09-3.63-2.26 0-3.25 2.08-3.43 3.63zM1002.14 379c0-1.27 0-2.31-.1-3.32h2l.12 2h.05a4.53 4.53 0 0 1 4.07-2.31c1.7 0 4.34 1 4.34 5.23v7.4h-2.24v-7.09c0-2-.73-3.63-2.84-3.63a3.19 3.19 0 0 0-3 2.29 3.26 3.26 0 0 0-.15 1V388h-2.23zM1018.82 372.19v3.53h3.2v1.7h-3.2V384c0 1.53.43 2.39 1.67 2.39a4.84 4.84 0 0 0 1.3-.15l.1 1.67a5.41 5.41 0 0 1-2 .31 3.09 3.09 0 0 1-2.41-.94 4.52 4.52 0 0 1-.87-3.2v-6.7h-1.9v-1.7h1.9v-3zM1038.29 386.1a4.37 4.37 0 0 1-4 2.19c-2.87 0-5.21-2.49-5.21-6.23 0-4.59 3-6.62 5.56-6.62a4 4 0 0 1 3.79 2.13h.05l.07-1.85h2.11c0 1-.07 2.1-.07 3.37V393h-2.24zm0-5.41a3.66 3.66 0 0 0-.1-.94 3.26 3.26 0 0 0-3.2-2.54c-2.31 0-3.71 2-3.71 4.73 0 2.43 1.17 4.57 3.63 4.57a3.32 3.32 0 0 0 3.2-2.44 3.81 3.81 0 0 0 .18-1.07zM1054.49 384.65c0 1.27 0 2.39.1 3.36h-2l-.13-2a4.62 4.62 0 0 1-4.06 2.29c-1.93 0-4.24-1.07-4.24-5.39v-7.18h2.23v6.8c0 2.34.71 3.91 2.75 3.91a3.13 3.13 0 0 0 3.14-3.17v-7.54h2.24zM1065 388l-.18-1.55h-.07a4.61 4.61 0 0 1-3.76 1.83 3.51 3.51 0 0 1-3.76-3.53c0-3 2.64-4.6 7.39-4.57v-.26a2.53 2.53 0 0 0-2.79-2.84 6.08 6.08 0 0 0-3.2.91l-.51-1.47a7.62 7.62 0 0 1 4-1.09c3.75 0 4.67 2.56 4.67 5v4.6a17.62 17.62 0 0 0 .2 2.95zm-.33-6.28c-2.44-.05-5.21.39-5.21 2.77a2 2 0 0 0 2.11 2.13 3 3 0 0 0 3-2.05 2.22 2.22 0 0 0 .13-.71zM1070.43 370h2.24v18h-2.24zM1078.91 372.26a1.31 1.31 0 0 1-1.42 1.37 1.32 1.32 0 0 1-1.35-1.37 1.36 1.36 0 0 1 1.4-1.39 1.32 1.32 0 0 1 1.37 1.39zm-2.49 15.74v-12.28h2.24V388zM1085.05 372.19v3.53h3.2v1.7h-3.2V384c0 1.53.44 2.39 1.68 2.39a4.9 4.9 0 0 0 1.3-.15l.1 1.67a5.41 5.41 0 0 1-2 .31 3.12 3.12 0 0 1-2.42-.94 4.57 4.57 0 0 1-.86-3.2v-6.7H1081v-1.7h1.9v-3zM1091.81 375.72l2.69 7.26c.28.81.58 1.78.79 2.51.23-.73.48-1.67.78-2.56l2.44-7.21h2.36l-3.35 8.76c-1.6 4.21-2.69 6.37-4.21 7.69a6.15 6.15 0 0 1-2.75 1.45l-.55-1.88a6.18 6.18 0 0 0 2-1.09 6.89 6.89 0 0 0 1.88-2.49 1.67 1.67 0 0 0 .18-.54 2 2 0 0 0-.15-.58l-4.55-11.32zM906.15 412.94a8.33 8.33 0 0 1-3.53.71c-3.71 0-6.12-2.52-6.12-6.27a6.24 6.24 0 0 1 6.6-6.53 7.39 7.39 0 0 1 3.1.64l-.51 1.72a5.23 5.23 0 0 0-2.59-.58c-2.82 0-4.34 2.08-4.34 4.64 0 2.85 1.82 4.6 4.26 4.6a6.31 6.31 0 0 0 2.74-.61zM909.85 407.66a3.93 3.93 0 0 0 4.22 4.26 8.17 8.17 0 0 0 3.4-.63l.38 1.6a10.06 10.06 0 0 1-4.09.76c-3.78 0-6-2.49-6-6.2s2.18-6.62 5.76-6.62c4 0 5.08 3.52 5.08 5.78a7.61 7.61 0 0 1-.08 1.05zm6.55-1.6c0-1.43-.58-3.63-3.1-3.63-2.26 0-3.25 2.08-3.42 3.63zM921.33 404.94c0-1.45 0-2.69-.1-3.84h1.95l.08 2.42h.1a3.68 3.68 0 0 1 3.4-2.69 2.56 2.56 0 0 1 .64.07v2.1a3.44 3.44 0 0 0-.77-.08 3.13 3.13 0 0 0-3 2.87 6.44 6.44 0 0 0-.1 1v6.55h-2.21zM932.93 397.58v3.52h3.2v1.71h-3.2v6.62c0 1.53.43 2.39 1.68 2.39a5.27 5.27 0 0 0 1.29-.15l.1 1.67a5.41 5.41 0 0 1-2 .31 3.09 3.09 0 0 1-2.41-.94 4.53 4.53 0 0 1-.86-3.2v-6.7h-1.91v-1.71h1.91v-2.94zM941.13 397.65a1.31 1.31 0 0 1-1.42 1.37 1.33 1.33 0 0 1-1.35-1.37 1.36 1.36 0 0 1 1.4-1.39 1.32 1.32 0 0 1 1.37 1.39zm-2.49 15.74V401.1h2.24v12.29zM944.81 413.39v-10.58h-1.73v-1.71h1.73v-.66c0-3.25 1.9-5.35 5.36-5.35a6.1 6.1 0 0 1 3.12.81l-.63 1.7a4.73 4.73 0 0 0-2.59-.71c-2.36 0-3.05 1.65-3.05 3.61v.6h7.13v12.29H952v-10.58h-5v10.58zM966.62 412.94a8.3 8.3 0 0 1-3.53.71c-3.71 0-6.12-2.52-6.12-6.27a6.24 6.24 0 0 1 6.6-6.53 7.39 7.39 0 0 1 3.1.64l-.51 1.72a5.23 5.23 0 0 0-2.59-.58c-2.82 0-4.34 2.08-4.34 4.64 0 2.85 1.83 4.6 4.27 4.6a6.34 6.34 0 0 0 2.74-.61zM976 413.39l-.18-1.54h-.07a4.6 4.6 0 0 1-3.76 1.82 3.5 3.5 0 0 1-3.76-3.53c0-3 2.64-4.59 7.39-4.57v-.25a2.53 2.53 0 0 0-2.79-2.84 6.08 6.08 0 0 0-3.2.91l-.51-1.47a7.62 7.62 0 0 1 4-1.09c3.75 0 4.67 2.56 4.67 5v4.6a17.41 17.41 0 0 0 .2 2.94zm-.33-6.27c-2.44-.05-5.21.38-5.21 2.77a2 2 0 0 0 2.11 2.13 3 3 0 0 0 3-2 2.27 2.27 0 0 0 .13-.71zM984.06 397.58v3.52h3.2v1.71h-3.2v6.62c0 1.53.43 2.39 1.68 2.39a5.27 5.27 0 0 0 1.29-.15l.1 1.67a5.37 5.37 0 0 1-2 .31 3.09 3.09 0 0 1-2.41-.94 4.57 4.57 0 0 1-.86-3.2v-6.7H980v-1.71h1.91v-2.94zM992.26 397.65a1.31 1.31 0 0 1-1.42 1.37 1.33 1.33 0 0 1-1.35-1.37 1.36 1.36 0 0 1 1.4-1.39 1.32 1.32 0 0 1 1.37 1.39zm-2.49 15.74V401.1H992v12.29zM1006.83 407.15c0 4.54-3.14 6.52-6.11 6.52-3.33 0-5.89-2.43-5.89-6.32 0-4.11 2.69-6.52 6.09-6.52s5.91 2.56 5.91 6.32zm-9.75.12c0 2.7 1.55 4.73 3.74 4.73s3.73-2 3.73-4.78c0-2.08-1-4.72-3.68-4.72s-3.79 2.44-3.79 4.77zM1009.65 404.43c0-1.27 0-2.31-.1-3.33h2l.13 2h.05a4.51 4.51 0 0 1 4.06-2.31c1.7 0 4.34 1 4.34 5.23v7.33h-2.23v-7.08c0-2-.74-3.63-2.84-3.63a3.17 3.17 0 0 0-3 2.28 3.28 3.28 0 0 0-.15 1.05v7.38h-2.24z"/><circle class="cls-4" cx="872.42" cy="214" r="4.5"/><circle class="cls-4" cx="872.42" cy="269.31" r="4.5"/><circle class="cls-4" cx="872.42" cy="323.62" r="4.5"/><circle class="cls-4" cx="872.42" cy="379.93" r="4.5"/><path class="cls-5" d="M0 0v525.97h407.97V.12L0 0z"/><path class="cls-3" d="M170 81.85a36 36 0 0 1 6.36-.48c3.05 0 5.28.65 6.74 1.87a6.44 6.44 0 0 1 2.23 5 7 7 0 0 1-2 5.18c-1.66 1.66-4.27 2.43-7.21 2.43a11.91 11.91 0 0 1-2-.13v8.59H170zm4.13 10.63a8.74 8.74 0 0 0 2 .16c3.11 0 5-1.52 5-4.19s-1.76-3.89-4.64-3.89a11.64 11.64 0 0 0-2.4.2zM188.38 93.19c0-2.24 0-3.83-.14-5.32h3.62L192 91h.13a4.93 4.93 0 0 1 4.51-3.52 4.28 4.28 0 0 1 1 .1v3.93a5.62 5.62 0 0 0-1.22-.14 3.67 3.67 0 0 0-3.72 3.15 6.88 6.88 0 0 0-.14 1.29v8.52h-4.16zM215.79 96c0 6.06-4.26 8.77-8.46 8.77-4.67 0-8.26-3.22-8.26-8.5s3.56-8.73 8.53-8.73 8.19 3.46 8.19 8.46zm-12.42.17c0 3.18 1.56 5.59 4.1 5.59 2.37 0 4-2.34 4-5.66 0-2.57-1.16-5.51-4-5.51s-4.1 2.8-4.1 5.54zM234.41 80.33v19.39c0 1.69.07 3.52.14 4.63h-3.73l-.16-2.6h-.07a5.93 5.93 0 0 1-5.38 3c-3.93 0-7-3.35-7-8.43 0-5.52 3.41-8.8 7.37-8.8a5.25 5.25 0 0 1 4.64 2.17h.07v-9.36zm-4.16 14.41a5.64 5.64 0 0 0-.1-1.08 3.64 3.64 0 0 0-3.59-2.94c-2.67 0-4.16 2.36-4.16 5.44s1.49 5.22 4.13 5.22a3.66 3.66 0 0 0 3.58-2.95 4.3 4.3 0 0 0 .14-1.22zM253.64 99.41c0 2 .07 3.59.13 4.94h-3.65l-.2-2.5h-.07a6 6 0 0 1-5.28 2.88c-3 0-5.75-1.8-5.75-7.18v-9.68H243v9c0 2.74.88 4.5 3.08 4.5a3.5 3.5 0 0 0 3.18-2.23 3.66 3.66 0 0 0 .24-1.29v-9.98h4.16zM270.26 103.85a12.2 12.2 0 0 1-4.67.84c-5.14 0-8.5-3.28-8.5-8.39 0-4.94 3.39-8.8 9.18-8.8a10.33 10.33 0 0 1 4 .78l-.74 3.11a7.43 7.43 0 0 0-3.15-.64c-3.18 0-5.07 2.33-5 5.35 0 3.38 2.2 5.31 5 5.31a8.17 8.17 0 0 0 3.29-.64zM278.62 83.17v4.7h4V91h-4v7.27c0 2 .54 3 2.13 3a6.22 6.22 0 0 0 1.63-.2l.07 3.18a9.4 9.4 0 0 1-3 .4 4.8 4.8 0 0 1-3.59-1.35c-.88-1-1.29-2.44-1.29-4.6V91h-2.37v-3.13h2.37v-3.72zM290.17 83.27a2.21 2.21 0 0 1-2.37 2.23 2.18 2.18 0 0 1-2.3-2.23 2.34 2.34 0 0 1 4.67 0zm-4.44 21.08V87.87h4.2v16.48zM310.07 96c0 6.06-4.27 8.77-8.46 8.77-4.67 0-8.26-3.22-8.26-8.5s3.55-8.73 8.53-8.73 8.19 3.46 8.19 8.46zm-12.42.17c0 3.18 1.55 5.59 4.09 5.59 2.37 0 4-2.34 4-5.66 0-2.57-1.15-5.51-4-5.51s-4.09 2.8-4.09 5.54zM313.49 92.78c0-1.89 0-3.49-.14-4.91H317l.2 2.47h.1a6 6 0 0 1 5.25-2.84c2.88 0 5.86 1.86 5.86 7.07v9.78h-4.17v-9.3c0-2.37-.88-4.16-3.15-4.16a3.49 3.49 0 0 0-3.24 2.43 4.12 4.12 0 0 0-.17 1.36v9.67h-4.2zM89.18 214.32c-.13-2.38-.28-5.25-.26-7.38h-.07c-.59 2-1.3 4.13-2.16 6.5l-3 8.3H82l-2.77-8.15c-.81-2.41-1.5-4.62-2-6.65 0 2.13-.18 5-.33 7.56l-.46 7.34H74.3l1.19-17.11h2.82l2.92 8.27c.71 2.11 1.29 4 1.73 5.77H83c.43-1.73 1-3.61 1.8-5.77l3-8.27h2.9l1.07 17.11h-2.16zM104 213.82h-6.62V220h7.41v1.85h-9.62v-17.12h9.24v1.85h-7V212H104zM107.35 219.15a7.83 7.83 0 0 0 4 1.12c2.26 0 3.58-1.2 3.58-2.92s-.91-2.52-3.22-3.41c-2.79-1-4.52-2.43-4.52-4.85 0-2.66 2.21-4.64 5.53-4.64a7.68 7.68 0 0 1 3.79.84l-.61 1.8a6.76 6.76 0 0 0-3.25-.81c-2.34 0-3.23 1.39-3.23 2.56 0 1.6 1 2.39 3.41 3.3 2.89 1.12 4.36 2.51 4.36 5s-2 4.92-6 4.92a8.87 8.87 0 0 1-4.37-1.09zM134.24 221.38a8.14 8.14 0 0 1-3.53.71c-3.71 0-6.12-2.51-6.12-6.27a6.24 6.24 0 0 1 6.6-6.52 7.57 7.57 0 0 1 3.1.63l-.51 1.73a5.1 5.1 0 0 0-2.59-.59c-2.82 0-4.34 2.09-4.34 4.65 0 2.84 1.83 4.6 4.27 4.6a6.34 6.34 0 0 0 2.74-.61zM147.82 215.59c0 4.55-3.15 6.53-6.12 6.53-3.32 0-5.89-2.44-5.89-6.32 0-4.12 2.69-6.53 6.1-6.53s5.91 2.57 5.91 6.32zm-9.75.13c0 2.69 1.55 4.72 3.73 4.72s3.74-2 3.74-4.77c0-2.08-1-4.72-3.68-4.72s-3.79 2.43-3.79 4.77zM150.64 212.88c0-1.27 0-2.31-.1-3.33h2l.13 2a4.51 4.51 0 0 1 4.06-2.31c1.7 0 4.34 1 4.34 5.23v7.34h-2.23v-7.08c0-2-.74-3.63-2.85-3.63a3.17 3.17 0 0 0-3 2.28 3 3 0 0 0-.16 1v7.39h-2.23zM164.43 219.55a5.75 5.75 0 0 0 2.94.89c1.63 0 2.39-.81 2.39-1.82s-.64-1.66-2.29-2.26c-2.21-.79-3.25-2-3.25-3.48 0-2 1.6-3.61 4.24-3.61a6.16 6.16 0 0 1 3 .76l-.55 1.63a4.79 4.79 0 0 0-2.52-.71c-1.32 0-2 .76-2 1.67s.73 1.48 2.33 2.09c2.13.81 3.23 1.87 3.23 3.7 0 2.16-1.68 3.68-4.6 3.68a7.06 7.06 0 0 1-3.45-.83zM185.07 218.49c0 1.27 0 2.39.1 3.35h-2l-.13-2H183a4.62 4.62 0 0 1-4.06 2.29c-1.93 0-4.24-1.07-4.24-5.38v-7.19h2.23v6.81c0 2.33.71 3.91 2.74 3.91a3.25 3.25 0 0 0 2.95-2 3.17 3.17 0 0 0 .2-1.14v-7.54h2.24zM188.77 203.81H191v18h-2.24zM197.46 206v3.53h3.2v1.7h-3.2v6.63c0 1.52.43 2.39 1.67 2.39a4.76 4.76 0 0 0 1.3-.16l.1 1.68a5.44 5.44 0 0 1-2 .3 3.09 3.09 0 0 1-2.41-.94 4.51 4.51 0 0 1-.87-3.19v-6.71h-1.9v-1.7h1.9v-2.94zM205.66 206.1a1.39 1.39 0 0 1-2.77 0 1.36 1.36 0 0 1 1.4-1.4 1.33 1.33 0 0 1 1.37 1.4zm-2.49 15.74v-12.29h2.23v12.29zM209.11 212.88c0-1.27 0-2.31-.1-3.33h2l.12 2h.06a4.5 4.5 0 0 1 4.06-2.31c1.7 0 4.34 1 4.34 5.23v7.34h-2.24v-7.08c0-2-.73-3.63-2.84-3.63a3.17 3.17 0 0 0-3 2.28 3 3 0 0 0-.16 1v7.39h-2.23zM233.79 209.55c0 .89-.1 1.88-.1 3.38v7.13c0 2.82-.56 4.55-1.76 5.61a6.5 6.5 0 0 1-4.47 1.48 7.91 7.91 0 0 1-4.08-1l.56-1.7a6.89 6.89 0 0 0 3.6 1c2.29 0 4-1.19 4-4.29v-1.37h-.05a4.36 4.36 0 0 1-3.91 2.06c-3 0-5.23-2.59-5.23-6 0-4.17 2.72-6.53 5.54-6.53a4.09 4.09 0 0 1 3.83 2.13l.1-1.85zm-2.31 4.85a3.28 3.28 0 0 0-.13-1 3.23 3.23 0 0 0-3.12-2.36c-2.14 0-3.66 1.81-3.66 4.65 0 2.41 1.22 4.42 3.63 4.42a3.27 3.27 0 0 0 3.1-2.29 3.78 3.78 0 0 0 .18-1.19zM89.18 269.71c-.13-2.38-.28-5.25-.26-7.39h-.07c-.59 2-1.3 4.14-2.16 6.5l-3 8.31H82L79.22 269c-.81-2.42-1.5-4.62-2-6.66 0 2.14-.18 5-.33 7.57l-.46 7.34H74.3l1.19-17.11h2.82l2.92 8.27c.71 2.11 1.29 4 1.73 5.77H83c.43-1.73 1-3.61 1.8-5.77l3-8.27h2.9l1.07 17.11h-2.16zM104 269.21h-6.62v6.17h7.41v1.85h-9.62v-17.11h9.24V262h-7v5.41H104zM107.35 274.54a7.83 7.83 0 0 0 4 1.11c2.26 0 3.58-1.19 3.58-2.92s-.91-2.51-3.22-3.4c-2.79-1-4.52-2.44-4.52-4.85 0-2.66 2.21-4.64 5.53-4.64a7.81 7.81 0 0 1 3.79.83l-.61 1.81a6.74 6.74 0 0 0-3.25-.82c-2.34 0-3.23 1.4-3.23 2.57 0 1.6 1 2.39 3.41 3.3 2.89 1.12 4.36 2.51 4.36 5s-2 4.92-6 4.92a8.87 8.87 0 0 1-4.37-1.09zM128 261.49a1.39 1.39 0 0 1-2.77 0 1.36 1.36 0 0 1 1.4-1.4 1.33 1.33 0 0 1 1.37 1.4zm-2.49 15.74v-12.29h2.23v12.29zM131.42 268.27c0-1.27 0-2.31-.1-3.33h2l.11 2h.07a4.24 4.24 0 0 1 3.86-2.26 3.63 3.63 0 0 1 3.48 2.46h.05a5.08 5.08 0 0 1 1.37-1.6 4.2 4.2 0 0 1 2.72-.86c1.62 0 4 1.07 4 5.33v7.24h-2.18v-7c0-2.36-.86-3.78-2.66-3.78a2.91 2.91 0 0 0-2.65 2 3.72 3.72 0 0 0-.17 1.12v7.59h-2.19v-7.36c0-2-.86-3.38-2.56-3.38a3.06 3.06 0 0 0-2.77 2.23 3 3 0 0 0-.18 1.09v7.42h-2.18zM152.59 269c0-1.57-.05-2.84-.1-4h2l.1 2.11h.05a4.83 4.83 0 0 1 4.37-2.39c3 0 5.2 2.51 5.2 6.25 0 4.41-2.69 6.6-5.58 6.6a4.32 4.32 0 0 1-3.79-1.93v6.68h-2.21zm2.21 3.28a5.07 5.07 0 0 0 .1.91 3.46 3.46 0 0 0 3.36 2.62c2.36 0 3.73-1.93 3.73-4.75 0-2.46-1.3-4.57-3.66-4.57a3.56 3.56 0 0 0-3.37 2.77 3.33 3.33 0 0 0-.16.91zM167 259.2h2.23v18H167zM174.27 271.49c.06 3 2 4.27 4.22 4.27a8 8 0 0 0 3.4-.64l.38 1.6a9.85 9.85 0 0 1-4.09.76c-3.78 0-6-2.49-6-6.19s2.19-6.63 5.77-6.63c4 0 5.07 3.53 5.07 5.79a10 10 0 0 1-.07 1zm6.56-1.6c0-1.42-.59-3.63-3.1-3.63-2.26 0-3.25 2.08-3.43 3.63zM185.75 268.27c0-1.27 0-2.31-.1-3.33h1.95l.11 2h.07a4.24 4.24 0 0 1 3.86-2.26 3.63 3.63 0 0 1 3.48 2.46 5.08 5.08 0 0 1 1.37-1.6 4.2 4.2 0 0 1 2.72-.86c1.62 0 4 1.07 4 5.33v7.24h-2.18v-7c0-2.36-.86-3.78-2.66-3.78a2.91 2.91 0 0 0-2.65 2 3.72 3.72 0 0 0-.17 1.12v7.59h-2.19v-7.36c0-2-.86-3.38-2.56-3.38a3.06 3.06 0 0 0-2.77 2.23 3 3 0 0 0-.18 1.09v7.42h-2.18zM208.17 271.49c.05 3 2 4.27 4.21 4.27a8 8 0 0 0 3.41-.64l.38 1.6a9.93 9.93 0 0 1-4.09.76c-3.79 0-6-2.49-6-6.19s2.18-6.63 5.76-6.63c4 0 5.08 3.53 5.08 5.79a7.43 7.43 0 0 1-.08 1zm6.55-1.6c0-1.42-.59-3.63-3.1-3.63-2.26 0-3.25 2.08-3.43 3.63zM219.64 268.27c0-1.27 0-2.31-.1-3.33h2l.13 2a4.51 4.51 0 0 1 4.06-2.31c1.7 0 4.34 1 4.34 5.23v7.34h-2.23v-7.09c0-2-.74-3.63-2.84-3.63a3.17 3.17 0 0 0-3 2.29 3.26 3.26 0 0 0-.15 1v7.39h-2.24zM236.32 261.41v3.53h3.2v1.7h-3.2v6.63c0 1.52.44 2.38 1.68 2.38a4.76 4.76 0 0 0 1.29-.15l.11 1.68a5.48 5.48 0 0 1-2 .3 3.12 3.12 0 0 1-2.42-.94 4.57 4.57 0 0 1-.86-3.2v-6.7h-1.9v-1.7h1.9V262zM248.84 277.23l-.18-1.55h-.07a4.61 4.61 0 0 1-3.76 1.83 3.5 3.5 0 0 1-3.76-3.53c0-3 2.64-4.6 7.39-4.57v-.26a2.53 2.53 0 0 0-2.79-2.84 6.17 6.17 0 0 0-3.2.91l-.51-1.47a7.65 7.65 0 0 1 4-1.09c3.75 0 4.67 2.56 4.67 5v4.59a17.62 17.62 0 0 0 .2 3zm-.33-6.27c-2.44 0-5.2.38-5.2 2.76a2 2 0 0 0 2.1 2.14 3.05 3.05 0 0 0 3-2.06 2.22 2.22 0 0 0 .13-.71zM256.86 261.41v3.53h3.2v1.7h-3.2v6.63c0 1.52.43 2.38 1.68 2.38a4.81 4.81 0 0 0 1.29-.15l.11 1.68a5.48 5.48 0 0 1-2 .3 3.11 3.11 0 0 1-2.42-.94 4.57 4.57 0 0 1-.86-3.2v-6.7h-1.9v-1.7h1.9V262zM265.06 261.49a1.38 1.38 0 0 1-2.76 0 1.36 1.36 0 0 1 1.39-1.4 1.33 1.33 0 0 1 1.37 1.4zm-2.48 15.74v-12.29h2.23v12.29zM279.64 271c0 4.55-3.15 6.53-6.12 6.53-3.33 0-5.89-2.44-5.89-6.32 0-4.12 2.69-6.53 6.09-6.53s5.92 2.54 5.92 6.32zm-9.75.13c0 2.69 1.55 4.72 3.73 4.72s3.73-2 3.73-4.77c0-2.08-1-4.72-3.68-4.72s-3.78 2.41-3.78 4.75zM282.45 268.27c0-1.27 0-2.31-.1-3.33h2l.13 2h.05a4.51 4.51 0 0 1 4.06-2.31c1.7 0 4.35 1 4.35 5.23v7.34h-2.24v-7.09c0-2-.74-3.63-2.84-3.63a3.17 3.17 0 0 0-3 2.29 3.26 3.26 0 0 0-.15 1v7.39h-2.24zM308.73 277.23l-.18-1.55h-.07a4.61 4.61 0 0 1-3.76 1.83A3.5 3.5 0 0 1 301 274c0-3 2.64-4.6 7.39-4.57v-.26a2.53 2.53 0 0 0-2.79-2.84 6.2 6.2 0 0 0-3.2.91l-.51-1.47a7.65 7.65 0 0 1 4-1.09c3.76 0 4.67 2.56 4.67 5v4.59a17.62 17.62 0 0 0 .2 3zm-.33-6.23c-2.44 0-5.2.38-5.2 2.76a2 2 0 0 0 2.1 2.14 3.05 3.05 0 0 0 3-2.06 2.22 2.22 0 0 0 .13-.71zM314.16 268.27c0-1.27 0-2.31-.1-3.33h2l.13 2h.05a4.51 4.51 0 0 1 4.06-2.31c1.7 0 4.35 1 4.35 5.23v7.34h-2.24v-7.09c0-2-.74-3.63-2.84-3.63a3.17 3.17 0 0 0-3 2.29 3.26 3.26 0 0 0-.15 1v7.39h-2.24zM338.87 259.2v14.85c0 1.1 0 2.34.1 3.18h-2l-.1-2.13h-.05a4.54 4.54 0 0 1-4.19 2.41c-3 0-5.25-2.52-5.25-6.25 0-4.09 2.51-6.6 5.51-6.6a4.11 4.11 0 0 1 3.7 1.88h.05v-7.34zm-2.24 10.74a3.76 3.76 0 0 0-.1-.94 3.29 3.29 0 0 0-3.22-2.59c-2.31 0-3.68 2-3.68 4.75 0 2.49 1.21 4.55 3.63 4.55a3.36 3.36 0 0 0 3.27-2.67 3.75 3.75 0 0 0 .1-1zM85 299.27c0 1.26 0 2.38.1 3.35h-2l-.12-2h-.08a4.61 4.61 0 0 1-4.06 2.29c-1.93 0-4.24-1.07-4.24-5.39v-7.18h2.24v6.8c0 2.34.71 3.91 2.74 3.91a3.21 3.21 0 0 0 2.94-2 3.17 3.17 0 0 0 .21-1.14v-7.54H85zM88.67 294.34c0-1.57 0-2.84-.1-4h2l.1 2.11a4.84 4.84 0 0 1 4.37-2.39c3 0 5.21 2.51 5.21 6.24 0 4.42-2.7 6.61-5.59 6.61a4.29 4.29 0 0 1-3.73-1.91h-.05v6.67h-2.21zm2.21 3.27a5.18 5.18 0 0 0 .1.92 3.43 3.43 0 0 0 3.35 2.61c2.36 0 3.73-1.93 3.73-4.74 0-2.47-1.29-4.57-3.65-4.57a3.56 3.56 0 0 0-3.41 2.76 3.47 3.47 0 0 0-.15.92zM113.7 290.33c0 .89-.1 1.88-.1 3.37v7.14c0 2.82-.56 4.54-1.75 5.61a6.51 6.51 0 0 1-4.47 1.47 8 8 0 0 1-4.09-1l.56-1.7a7 7 0 0 0 3.6 1c2.29 0 4-1.19 4-4.29v-1.37h-.06a4.38 4.38 0 0 1-3.91 2.06c-3 0-5.23-2.59-5.23-6 0-4.16 2.72-6.52 5.54-6.52a4.09 4.09 0 0 1 3.83 2.13l.11-1.85zm-2.31 4.85a3.28 3.28 0 0 0-.13-1 3.22 3.22 0 0 0-3.12-2.36c-2.13 0-3.66 1.8-3.66 4.65 0 2.41 1.22 4.41 3.63 4.41a3.26 3.26 0 0 0 3.1-2.28 3.78 3.78 0 0 0 .18-1.19zM117.15 294.16c0-1.45 0-2.69-.1-3.83h2l.08 2.41h.1a3.69 3.69 0 0 1 3.4-2.69 2.46 2.46 0 0 1 .64.07v2.11a3.45 3.45 0 0 0-.76-.07 3.13 3.13 0 0 0-3 2.87 6.33 6.33 0 0 0-.1 1v6.55h-2.21zM132.13 302.62l-.18-1.55h-.07a4.61 4.61 0 0 1-3.76 1.83 3.51 3.51 0 0 1-3.76-3.53c0-3 2.64-4.6 7.39-4.57v-.26a2.53 2.53 0 0 0-2.75-2.84 6.08 6.08 0 0 0-3.2.91l-.51-1.47a7.65 7.65 0 0 1 4-1.09c3.75 0 4.67 2.56 4.67 5v4.59a17.62 17.62 0 0 0 .2 2.95zm-.33-6.27c-2.44-.06-5.2.38-5.2 2.76a2 2 0 0 0 2.1 2.14 3.05 3.05 0 0 0 3-2.06 2.22 2.22 0 0 0 .13-.71zM148.18 284.59v14.85c0 1.09 0 2.34.1 3.18h-2l-.1-2.14a4.54 4.54 0 0 1-4.19 2.42c-3 0-5.26-2.52-5.26-6.25 0-4.09 2.52-6.6 5.51-6.6a4.12 4.12 0 0 1 3.71 1.88h.05v-7.34zm-2.24 10.74a3.76 3.76 0 0 0-.1-.94 3.29 3.29 0 0 0-3.22-2.59c-2.31 0-3.69 2-3.69 4.75 0 2.49 1.22 4.54 3.64 4.54a3.36 3.36 0 0 0 3.27-2.66 3.75 3.75 0 0 0 .1-1zM153.13 296.88c.05 3 2 4.26 4.21 4.26a8.14 8.14 0 0 0 3.4-.63l.39 1.6a10.1 10.1 0 0 1-4.09.76c-3.79 0-6-2.49-6-6.19s2.19-6.63 5.77-6.63c4 0 5.08 3.53 5.08 5.79a7.57 7.57 0 0 1-.08 1zm6.55-1.6c0-1.42-.59-3.63-3.1-3.63-2.26 0-3.25 2.08-3.43 3.63zM89.18 350.49c-.13-2.39-.28-5.26-.26-7.39h-.07c-.59 2-1.3 4.14-2.16 6.5l-3 8.3H82l-2.77-8.15c-.81-2.41-1.5-4.62-2-6.65 0 2.13-.18 5-.33 7.57l-.5 7.33h-2.1l1.19-17.12h2.82l2.92 8.28c.71 2.11 1.29 4 1.73 5.76H83c.43-1.72 1-3.6 1.8-5.76l3-8.28h2.9L91.77 358h-2.16zM104 350h-6.62v6.17h7.41V358h-9.62v-17.11h9.24v1.86h-7v5.4H104zM107.35 355.31a7.83 7.83 0 0 0 4 1.12c2.26 0 3.58-1.19 3.58-2.92s-.91-2.51-3.22-3.4c-2.79-1-4.52-2.44-4.52-4.85 0-2.67 2.21-4.65 5.53-4.65a7.79 7.79 0 0 1 3.79.84l-.61 1.8a6.88 6.88 0 0 0-3.25-.81c-2.34 0-3.23 1.4-3.23 2.57 0 1.6 1 2.38 3.41 3.3 2.89 1.11 4.36 2.51 4.36 5s-2 4.93-6 4.93a8.87 8.87 0 0 1-4.37-1.09zM125.48 349.73c0-1.58 0-2.85-.1-4h2l.11 2.1h.05a4.83 4.83 0 0 1 4.36-2.38c3 0 5.21 2.51 5.21 6.24 0 4.42-2.69 6.6-5.59 6.6a4.33 4.33 0 0 1-3.78-1.92V363h-2.21zm2.21 3.27a5.18 5.18 0 0 0 .1.92 3.44 3.44 0 0 0 3.35 2.61c2.36 0 3.73-1.93 3.73-4.75 0-2.46-1.29-4.57-3.65-4.57a3.57 3.57 0 0 0-3.38 2.77 3.47 3.47 0 0 0-.15.92zM139.92 340h2.24v18h-2.24zM152.72 358l-.18-1.55h-.07a4.6 4.6 0 0 1-3.76 1.82 3.5 3.5 0 0 1-3.76-3.52c0-3 2.64-4.6 7.39-4.57v-.26a2.53 2.53 0 0 0-2.79-2.84 6.08 6.08 0 0 0-3.2.91l-.51-1.47a7.65 7.65 0 0 1 4-1.09c3.75 0 4.67 2.56 4.67 5v4.6a17.62 17.62 0 0 0 .2 2.95zm-.33-6.28c-2.44-.05-5.2.38-5.2 2.77a2 2 0 0 0 2.1 2.13 3 3 0 0 0 3-2.05 2.22 2.22 0 0 0 .13-.71zM160.74 342.19v3.53h3.2v1.7h-3.2V354c0 1.53.43 2.39 1.68 2.39a4.81 4.81 0 0 0 1.29-.15l.11 1.67a5.47 5.47 0 0 1-2 .31 3.1 3.1 0 0 1-2.41-.94 4.57 4.57 0 0 1-.86-3.2v-6.7h-1.9v-1.7h1.9v-3zM166.68 358v-10.58H165v-1.7h1.72v-.59a5.77 5.77 0 0 1 1.43-4.29 4.26 4.26 0 0 1 3-1.14 5.42 5.42 0 0 1 1.91.35l-.31 1.73a3.38 3.38 0 0 0-1.42-.28c-1.9 0-2.39 1.68-2.39 3.56v.66h3v1.7h-3V358zM184.66 351.76c0 4.54-3.15 6.52-6.12 6.52-3.33 0-5.89-2.43-5.89-6.32 0-4.11 2.69-6.52 6.09-6.52s5.92 2.56 5.92 6.32zm-9.75.13c0 2.69 1.55 4.72 3.73 4.72s3.73-2 3.73-4.77c0-2.09-1-4.73-3.68-4.73s-3.78 2.44-3.78 4.78zM187.48 349.55c0-1.45 0-2.69-.1-3.83h2l.08 2.41h.1a3.68 3.68 0 0 1 3.4-2.69 2.51 2.51 0 0 1 .64.07v2.11a3.44 3.44 0 0 0-.77-.08 3.13 3.13 0 0 0-3 2.87 6.44 6.44 0 0 0-.1 1V358h-2.21zM195.88 349c0-1.27 0-2.31-.1-3.32h1.95l.1 2h.08a4.24 4.24 0 0 1 3.86-2.26 3.62 3.62 0 0 1 3.48 2.46h.05a5 5 0 0 1 1.37-1.6 4.2 4.2 0 0 1 2.72-.86c1.62 0 4 1.06 4 5.33V358h-2.18v-7c0-2.36-.86-3.78-2.66-3.78a2.9 2.9 0 0 0-2.65 2 3.7 3.7 0 0 0-.17 1.11V358h-2.19v-7.37c0-1.95-.86-3.37-2.56-3.37a3 3 0 0 0-2.77 2.23 3 3 0 0 0-.18 1.09V358h-2.18zM222.44 340h2.23v7.67h.05a4.12 4.12 0 0 1 1.6-1.58 4.62 4.62 0 0 1 2.29-.63c1.65 0 4.29 1 4.29 5.25V358h-2.24v-7c0-2-.73-3.66-2.84-3.66a3.22 3.22 0 0 0-3 2.24 2.8 2.8 0 0 0-.15 1.06V358h-2.23zM243.33 358l-.18-1.55h-.07a4.6 4.6 0 0 1-3.76 1.82 3.5 3.5 0 0 1-3.76-3.52c0-3 2.64-4.6 7.39-4.57v-.26a2.53 2.53 0 0 0-2.79-2.84 6.08 6.08 0 0 0-3.2.91l-.51-1.47a7.65 7.65 0 0 1 4-1.09c3.76 0 4.67 2.56 4.67 5v4.6a17.62 17.62 0 0 0 .2 2.95zm-.33-6.28c-2.44-.05-5.2.38-5.2 2.77a2 2 0 0 0 2.1 2.13 3 3 0 0 0 3-2.05 2.22 2.22 0 0 0 .13-.71zM248.76 349.55c0-1.45 0-2.69-.1-3.83h2l.07 2.41h.1a3.69 3.69 0 0 1 3.41-2.69 2.43 2.43 0 0 1 .63.07v2.11a3.34 3.34 0 0 0-.76-.08 3.15 3.15 0 0 0-3 2.87 6.44 6.44 0 0 0-.1 1V358h-2.21zM257.17 349c0-1.27 0-2.31-.1-3.32H259l.1 2h.08a4.23 4.23 0 0 1 3.86-2.26 3.64 3.64 0 0 1 3.48 2.46 5 5 0 0 1 1.37-1.6 4.17 4.17 0 0 1 2.71-.86c1.63 0 4 1.06 4 5.33V358h-2.18v-7c0-2.36-.86-3.78-2.67-3.78a2.88 2.88 0 0 0-2.64 2 3.68 3.68 0 0 0-.18 1.11V358h-2.18v-7.37c0-1.95-.86-3.37-2.56-3.37a3 3 0 0 0-2.77 2.23 3 3 0 0 0-.18 1.09V358h-2.18zM289.46 351.76c0 4.54-3.15 6.52-6.12 6.52-3.32 0-5.89-2.43-5.89-6.32 0-4.11 2.69-6.52 6.1-6.52s5.91 2.56 5.91 6.32zm-9.75.13c0 2.69 1.55 4.72 3.73 4.72s3.74-2 3.74-4.77c0-2.09-1-4.73-3.68-4.73s-3.79 2.44-3.79 4.78zM292.28 349c0-1.27 0-2.31-.1-3.32h2l.13 2a4.51 4.51 0 0 1 4.06-2.31c1.7 0 4.34 1 4.34 5.23v7.4h-2.23v-7.09c0-2-.74-3.63-2.85-3.63a3.17 3.17 0 0 0-3 2.29 3 3 0 0 0-.16 1V358h-2.23zM308.86 342.26a1.39 1.39 0 0 1-2.77 0 1.36 1.36 0 0 1 1.4-1.39 1.32 1.32 0 0 1 1.37 1.39zM306.37 358v-12.28h2.23V358zM310.91 356.71l5.56-7.24c.54-.66 1-1.24 1.6-1.9v-.05h-6.65v-1.8h9.37v1.39l-5.49 7.14c-.51.68-1 1.29-1.57 1.93v.05h7.18V358h-10zM330 358l-.18-1.55h-.07a4.6 4.6 0 0 1-3.76 1.82 3.5 3.5 0 0 1-3.76-3.52c0-3 2.64-4.6 7.39-4.57v-.26a2.53 2.53 0 0 0-2.79-2.84 6.11 6.11 0 0 0-3.2.91l-.51-1.47a7.65 7.65 0 0 1 4-1.09c3.76 0 4.67 2.56 4.67 5v4.6A17.62 17.62 0 0 0 332 358zm-.33-6.28c-2.44-.05-5.2.38-5.2 2.77a2 2 0 0 0 2.1 2.13 3 3 0 0 0 3-2.05 2.22 2.22 0 0 0 .13-.71zM338 342.19v3.53h3.2v1.7H338V354c0 1.53.44 2.39 1.68 2.39a4.76 4.76 0 0 0 1.29-.15l.11 1.67a5.45 5.45 0 0 1-2 .31 3.11 3.11 0 0 1-2.42-.94 4.57 4.57 0 0 1-.86-3.2v-6.7h-1.9v-1.7h1.9v-3zM346.2 342.26a1.38 1.38 0 0 1-2.76 0 1.36 1.36 0 0 1 1.39-1.39 1.32 1.32 0 0 1 1.37 1.39zM343.72 358v-12.28H346V358zM360.78 351.76c0 4.54-3.15 6.52-6.12 6.52-3.33 0-5.89-2.43-5.89-6.32 0-4.11 2.69-6.52 6.09-6.52s5.92 2.56 5.92 6.32zm-9.75.13c0 2.69 1.55 4.72 3.73 4.72s3.73-2 3.73-4.77c0-2.09-1-4.73-3.68-4.73s-3.81 2.44-3.81 4.78zM363.59 349c0-1.27 0-2.31-.1-3.32h2l.13 2a4.51 4.51 0 0 1 4.06-2.31c1.71 0 4.35 1 4.35 5.23v7.4h-2.24v-7.09c0-2-.74-3.63-2.84-3.63a3.17 3.17 0 0 0-3 2.29 3.26 3.26 0 0 0-.15 1V358h-2.24zM74.75 396.48a26.59 26.59 0 0 1 4.24-.33 7 7 0 0 1 4.8 1.43 4.59 4.59 0 0 1 1.5 3.58 5.05 5.05 0 0 1-1.29 3.65 7.07 7.07 0 0 1-5.23 1.88 7.48 7.48 0 0 1-1.78-.15v6.85h-2.24zm2.25 8.26a7.85 7.85 0 0 0 1.83.17c2.67 0 4.29-1.29 4.29-3.65s-1.6-3.35-4-3.35a9.5 9.5 0 0 0-2.08.17zM87.78 404.94c0-1.45 0-2.69-.1-3.84h1.95l.08 2.42h.1a3.68 3.68 0 0 1 3.4-2.69 2.51 2.51 0 0 1 .64.07v2.1a3.44 3.44 0 0 0-.77-.08 3.13 3.13 0 0 0-3 2.87 6.44 6.44 0 0 0-.1 1v6.55h-2.2zM107 407.15c0 4.54-3.15 6.52-6.12 6.52-3.33 0-5.89-2.43-5.89-6.32 0-4.11 2.69-6.52 6.09-6.52s5.92 2.56 5.92 6.32zm-9.75.12c0 2.7 1.55 4.73 3.73 4.73s3.73-2 3.73-4.78c0-2.08-1-4.72-3.68-4.72s-3.83 2.44-3.83 4.77zM118.52 412.94a8.24 8.24 0 0 1-3.52.71c-3.71 0-6.12-2.52-6.12-6.27a6.24 6.24 0 0 1 6.6-6.53 7.39 7.39 0 0 1 3.1.64l-.51 1.72a5.26 5.26 0 0 0-2.59-.58c-2.82 0-4.34 2.08-4.34 4.64 0 2.85 1.82 4.6 4.26 4.6a6.31 6.31 0 0 0 2.74-.61zM122.23 407.66a3.93 3.93 0 0 0 4.22 4.26 8.17 8.17 0 0 0 3.4-.63l.38 1.6a10.06 10.06 0 0 1-4.09.76c-3.78 0-6-2.49-6-6.2s2.18-6.62 5.76-6.62c4 0 5.08 3.52 5.08 5.78a7.61 7.61 0 0 1-.08 1.05zm6.55-1.6c0-1.43-.58-3.64-3.1-3.64-2.26 0-3.25 2.09-3.42 3.64zM133.4 411.11a5.88 5.88 0 0 0 2.95.89c1.62 0 2.38-.82 2.38-1.83s-.63-1.65-2.28-2.26c-2.21-.79-3.25-2-3.25-3.48 0-2 1.6-3.6 4.24-3.6a6.08 6.08 0 0 1 3 .76l-.56 1.62a4.81 4.81 0 0 0-2.51-.71c-1.32 0-2.06.76-2.06 1.68s.74 1.47 2.34 2.08c2.13.81 3.22 1.88 3.22 3.71 0 2.15-1.67 3.68-4.59 3.68a7 7 0 0 1-3.46-.84zM143.46 411.11a5.84 5.84 0 0 0 2.94.89c1.63 0 2.39-.82 2.39-1.83s-.64-1.65-2.29-2.26c-2.21-.79-3.25-2-3.25-3.48 0-2 1.6-3.6 4.24-3.6a6.05 6.05 0 0 1 3 .76l-.55 1.62a4.89 4.89 0 0 0-2.52-.71c-1.32 0-2.05.76-2.05 1.68s.73 1.47 2.33 2.08c2.13.81 3.23 1.88 3.23 3.71 0 2.15-1.68 3.68-4.6 3.68a7 7 0 0 1-3.45-.84zM170.32 407.15c0 4.54-3.15 6.52-6.12 6.52-3.33 0-5.89-2.43-5.89-6.32 0-4.11 2.69-6.52 6.09-6.52s5.92 2.56 5.92 6.32zm-9.75.12c0 2.7 1.55 4.73 3.73 4.73s3.73-2 3.73-4.78c0-2.08-1-4.72-3.68-4.72s-3.78 2.44-3.78 4.77zM173.13 405.12c0-1.58 0-2.85-.1-4h2l.1 2.11h.05a4.83 4.83 0 0 1 4.37-2.38c3 0 5.2 2.51 5.2 6.24 0 4.42-2.69 6.6-5.58 6.6a4.32 4.32 0 0 1-3.79-1.93v6.68h-2.21zm2.21 3.27a4.38 4.38 0 0 0 .11.92 3.45 3.45 0 0 0 3.35 2.61c2.36 0 3.73-1.93 3.73-4.75 0-2.46-1.3-4.57-3.66-4.57a3.56 3.56 0 0 0-3.37 2.77 3.47 3.47 0 0 0-.16.91zM190.27 397.58v3.52h3.2v1.71h-3.2v6.62c0 1.53.43 2.39 1.68 2.39a5.27 5.27 0 0 0 1.29-.15l.1 1.67a5.37 5.37 0 0 1-2 .31 3.09 3.09 0 0 1-2.41-.94 4.57 4.57 0 0 1-.86-3.2v-6.7h-1.91v-1.71h1.91v-2.94zM198.47 397.65a1.31 1.31 0 0 1-1.42 1.37 1.33 1.33 0 0 1-1.35-1.37 1.36 1.36 0 0 1 1.4-1.39 1.32 1.32 0 0 1 1.37 1.39zM196 413.39V401.1h2.24v12.29zM201.92 404.43c0-1.27 0-2.31-.1-3.33h2l.1 2h.08a4.21 4.21 0 0 1 3.85-2.26 3.62 3.62 0 0 1 3.48 2.46h.05a5.09 5.09 0 0 1 1.37-1.6 4.2 4.2 0 0 1 2.72-.86c1.63 0 4 1.06 4 5.33v7.23h-2.18v-6.95c0-2.36-.87-3.79-2.67-3.79a2.89 2.89 0 0 0-2.64 2 3.81 3.81 0 0 0-.18 1.12v7.59h-2.18V406c0-1.95-.87-3.38-2.57-3.38a3 3 0 0 0-2.76 2.24 3 3 0 0 0-.18 1.09v7.41h-2.19zM225.59 397.65a1.39 1.39 0 0 1-2.77 0 1.35 1.35 0 0 1 1.39-1.39 1.33 1.33 0 0 1 1.38 1.39zm-2.49 15.74V401.1h2.23v12.29zM227.64 412.1l5.56-7.24c.54-.66 1-1.24 1.6-1.9h-6.65v-1.86h9.37v1.4l-5.52 7.14c-.51.68-1 1.29-1.58 1.93v.05h7.19v1.77h-10zM246.71 413.39l-.18-1.55h-.07a4.58 4.58 0 0 1-3.76 1.83 3.5 3.5 0 0 1-3.76-3.53c0-3 2.64-4.59 7.39-4.57v-.25a2.53 2.53 0 0 0-2.79-2.84 6.08 6.08 0 0 0-3.2.91l-.51-1.47a7.62 7.62 0 0 1 4-1.09c3.75 0 4.67 2.56 4.67 5v4.6a17.49 17.49 0 0 0 .2 2.94zm-.33-6.27c-2.44-.05-5.21.38-5.21 2.77a2 2 0 0 0 2.11 2.13 3 3 0 0 0 3-2 2.27 2.27 0 0 0 .13-.71zM254.73 397.58v3.52h3.2v1.71h-3.2v6.62c0 1.53.43 2.39 1.68 2.39a5.27 5.27 0 0 0 1.29-.15l.1 1.67a5.37 5.37 0 0 1-2 .31 3.09 3.09 0 0 1-2.41-.94 4.57 4.57 0 0 1-.86-3.2v-6.7h-1.91v-1.71h1.91v-2.94zM262.93 397.65a1.31 1.31 0 0 1-1.42 1.37 1.33 1.33 0 0 1-1.35-1.37 1.36 1.36 0 0 1 1.4-1.39 1.32 1.32 0 0 1 1.37 1.39zm-2.49 15.74V401.1h2.24v12.29zM277.5 407.15c0 4.54-3.14 6.52-6.11 6.52-3.33 0-5.89-2.43-5.89-6.32 0-4.11 2.69-6.52 6.09-6.52s5.91 2.56 5.91 6.32zm-9.75.12c0 2.7 1.55 4.73 3.74 4.73s3.73-2 3.73-4.78c0-2.08-1-4.72-3.68-4.72s-3.79 2.44-3.79 4.77zM280.32 404.43c0-1.27 0-2.31-.1-3.33h2l.13 2h.05a4.51 4.51 0 0 1 4.06-2.31c1.7 0 4.34 1 4.34 5.23v7.33h-2.23v-7.08c0-2-.74-3.63-2.84-3.63a3.17 3.17 0 0 0-3 2.28 3.28 3.28 0 0 0-.15 1.05v7.38h-2.24zM306.6 413.39l-.18-1.55h-.07a4.58 4.58 0 0 1-3.76 1.83 3.5 3.5 0 0 1-3.76-3.53c0-3 2.64-4.59 7.39-4.57v-.25a2.53 2.53 0 0 0-2.79-2.84 6.08 6.08 0 0 0-3.2.91l-.51-1.47a7.62 7.62 0 0 1 4-1.09c3.75 0 4.67 2.56 4.67 5v4.6a17.49 17.49 0 0 0 .2 2.94zm-.33-6.27c-2.44-.05-5.21.38-5.21 2.77a2 2 0 0 0 2.11 2.13 3 3 0 0 0 3-2 2.27 2.27 0 0 0 .13-.71zM312 404.43c0-1.27 0-2.31-.1-3.33h2l.13 2a4.51 4.51 0 0 1 4.06-2.31c1.7 0 4.34 1 4.34 5.23v7.33h-2.23v-7.08c0-2-.74-3.63-2.84-3.63a3.17 3.17 0 0 0-3 2.28 3.28 3.28 0 0 0-.15 1.05v7.38H312zM336.74 395.37v14.85c0 1.09 0 2.34.1 3.17h-2l-.1-2.13h-.05a4.55 4.55 0 0 1-4.19 2.41c-3 0-5.26-2.51-5.26-6.24 0-4.09 2.52-6.6 5.51-6.6a4.11 4.11 0 0 1 3.71 1.87h.05v-7.33zm-2.24 10.74a3.76 3.76 0 0 0-.1-.94 3.29 3.29 0 0 0-3.22-2.59c-2.31 0-3.69 2-3.69 4.75 0 2.48 1.22 4.54 3.64 4.54a3.36 3.36 0 0 0 3.27-2.67 3.68 3.68 0 0 0 .1-1zM81.48 438.78l-.18-1.55h-.07a4.58 4.58 0 0 1-3.76 1.83 3.5 3.5 0 0 1-3.76-3.53c0-3 2.64-4.59 7.39-4.57v-.25a2.54 2.54 0 0 0-2.79-2.85 6.11 6.11 0 0 0-3.2.92l-.51-1.47a7.65 7.65 0 0 1 4-1.1c3.76 0 4.67 2.57 4.67 5v4.6a17.57 17.57 0 0 0 .2 2.94zm-.33-6.27c-2.44-.05-5.2.38-5.2 2.77a2 2 0 0 0 2.1 2.13 3.07 3.07 0 0 0 3-2.06 2.46 2.46 0 0 0 .12-.71zM97.2 435.43c0 1.27 0 2.39.1 3.35h-2l-.13-2a4.62 4.62 0 0 1-4.06 2.28c-1.93 0-4.24-1.06-4.24-5.38v-7.19h2.23v6.81c0 2.33.71 3.91 2.75 3.91A3.13 3.13 0 0 0 95 434v-7.54h2.2zM103.6 423v3.53h3.19v1.7h-3.19v6.63c0 1.52.43 2.39 1.67 2.39a5.29 5.29 0 0 0 1.3-.15l.1 1.67a5.41 5.41 0 0 1-2 .31 3.09 3.09 0 0 1-2.41-.94 4.54 4.54 0 0 1-.87-3.2v-6.71h-1.9v-1.7h1.9v-2.94zM120.28 432.54c0 4.54-3.15 6.52-6.12 6.52-3.33 0-5.89-2.44-5.89-6.32 0-4.11 2.69-6.53 6.09-6.53s5.92 2.57 5.92 6.33zm-9.75.12c0 2.69 1.55 4.73 3.73 4.73s3.73-2 3.73-4.78c0-2.08-1-4.72-3.68-4.72s-3.78 2.44-3.78 4.77zM123.09 429.82c0-1.27 0-2.31-.1-3.33h2l.1 2h.08a4.23 4.23 0 0 1 3.85-2.26 3.63 3.63 0 0 1 3.48 2.47 5.09 5.09 0 0 1 1.37-1.6 4.2 4.2 0 0 1 2.72-.87c1.63 0 4 1.07 4 5.34v7.23h-2.18v-6.95c0-2.37-.87-3.79-2.67-3.79a2.89 2.89 0 0 0-2.64 2 3.75 3.75 0 0 0-.18 1.12v7.59h-2.18v-7.36c0-2-.87-3.38-2.57-3.38a3 3 0 0 0-2.76 2.24 3 3 0 0 0-.18 1.09v7.41h-2.19zM151.07 438.78l-.18-1.55h-.07a4.58 4.58 0 0 1-3.76 1.83 3.5 3.5 0 0 1-3.76-3.53c0-3 2.64-4.59 7.39-4.57v-.25a2.54 2.54 0 0 0-2.79-2.85 6.11 6.11 0 0 0-3.2.92l-.51-1.47a7.65 7.65 0 0 1 4-1.1c3.76 0 4.67 2.57 4.67 5v4.6a17.57 17.57 0 0 0 .2 2.94zm-.33-6.27c-2.44-.05-5.2.38-5.2 2.77a2 2 0 0 0 2.1 2.13 3.07 3.07 0 0 0 3-2.06 2.46 2.46 0 0 0 .12-.71zM159.09 423v3.53h3.2v1.7h-3.2v6.63c0 1.52.44 2.39 1.68 2.39a5.36 5.36 0 0 0 1.3-.15l.1 1.67a5.41 5.41 0 0 1-2 .31 3.12 3.12 0 0 1-2.42-.94 4.59 4.59 0 0 1-.86-3.2v-6.71H155v-1.7h1.9v-2.94zM167.29 423a1.31 1.31 0 0 1-1.42 1.37 1.33 1.33 0 0 1-1.34-1.37 1.36 1.36 0 0 1 1.39-1.4 1.33 1.33 0 0 1 1.37 1.4zm-2.48 15.74v-12.25H167v12.29zM181.87 432.54c0 4.54-3.15 6.52-6.12 6.52-3.33 0-5.89-2.44-5.89-6.32 0-4.11 2.69-6.53 6.09-6.53s5.92 2.57 5.92 6.33zm-9.75.12c0 2.69 1.55 4.73 3.73 4.73s3.73-2 3.73-4.78c0-2.08-1-4.72-3.68-4.72s-3.78 2.44-3.78 4.77zM184.69 429.82c0-1.27 0-2.31-.11-3.33h2l.13 2h.05a4.53 4.53 0 0 1 4.06-2.31c1.71 0 4.35 1 4.35 5.23v7.34h-2.24v-7.05c0-2-.73-3.63-2.84-3.63a3.18 3.18 0 0 0-3 2.28 3.26 3.26 0 0 0-.15 1v7.39h-2.23z"/><circle class="cls-4" cx="51.4" cy="215" r="4.5"/><circle class="cls-4" cx="51.4" cy="270.31" r="4.5"/><circle class="cls-4" cx="51.4" cy="349.62" r="4.5"/><circle class="cls-4" cx="51.4" cy="404.93" r="4.5"/><path stroke="#a8d7cd" stroke-width="3" stroke-miterlimit="10" fill="none" d="M19.1 170.99l369.77-.06"/><path class="cls-3" d="M69.92 126.5a2 2 0 0 0-.38-.15 6.28 6.28 0 0 1 1.2-12.48h54.66a6.22 6.22 0 0 1 6.31 5.43 1.69 1.69 0 0 0 .15.37v.86a3.68 3.68 0 0 0-.15.47 6.26 6.26 0 0 1-4.94 5.32c-.18 0-.36.12-.54.18zm51.45-2.5h4a6.06 6.06 0 0 0 .85 0 3.85 3.85 0 0 0 3.12-3.56 3.62 3.62 0 0 0-2.89-3.87 38.62 38.62 0 0 0-4.93 0c2.06 2.77 2.07 4.68-.15 7.43zM74 116.4a38.42 38.42 0 0 0-4 0 3.78 3.78 0 0 0-.19 7.44 31.84 31.84 0 0 0 4.15 0c-2.31-2.69-1.91-5.34.04-7.44zm14.08 0h-7.49c2.25 2.53 2.19 5 .08 7.55H88c-2.36-2.87-1.83-5.53.08-7.59zm6.54 0c2.25 2.54 2.25 5.06.1 7.56h6.7c-2.25-2.55-2.1-5 0-7.56zm13.34.06a5.11 5.11 0 0 1 1.72 3.81 5.49 5.49 0 0 1-1.65 3.72h6.75c-2.2-2.58-2.16-5.09.1-7.63h-6.54zm-.73 3.75a2.5 2.5 0 0 0-5 0 2.52 2.52 0 0 0 2.52 2.47 2.48 2.48 0 0 0 2.48-2.54zm13.37 0a2.55 2.55 0 0 0-2.5-2.49 2.53 2.53 0 0 0-2.48 2.51 2.49 2.49 0 0 0 5 0zm-43.28 2.49a2.48 2.48 0 0 0 2.49-2.48 2.49 2.49 0 1 0-5 0 2.49 2.49 0 0 0 2.51 2.41zm14 0a2.51 2.51 0 0 0 2.51-2.47 2.49 2.49 0 1 0-5 0 2.47 2.47 0 0 0 2.52 2.4zM84.76 54.15c.92.38 1.82.77 2.74 1.14a1.47 1.47 0 0 1 1 1.81 1.71 1.71 0 0 0 .77 2 1.57 1.57 0 0 1 .48.48 1.61 1.61 0 0 0 1.88.76 1.48 1.48 0 0 1 1.87 1.06l1 2.46a1.3 1.3 0 0 1-.54 1.7 1.61 1.61 0 0 0-.86 2 .75.75 0 0 1 0 .42 1.55 1.55 0 0 0 .81 1.91 1.39 1.39 0 0 1 .56 1.86c-.31.82-.65 1.63-1 2.44a1.46 1.46 0 0 1-1.84 1 1.41 1.41 0 0 0-1.74.64 1.37 1.37 0 0 1-.36.36 2.15 2.15 0 0 0-1 2.46 1.17 1.17 0 0 1-.75 1.38c-.88.39-1.77.78-2.66 1.12a1.35 1.35 0 0 1-1.8-.53 1.8 1.8 0 0 0-2-.93 2.7 2.7 0 0 1-.94 0 1.3 1.3 0 0 0-1.36.6c-.86 1.13-1.15 1.2-2.46.73-.72-.26-1.41-.6-2.11-.91a1.34 1.34 0 0 1-.9-1.63 1.82 1.82 0 0 0-.88-2.15.86.86 0 0 1-.3-.3 1.71 1.71 0 0 0-2.08-.84 1.3 1.3 0 0 1-1.63-.89c-.35-.84-.7-1.67-1-2.52a1.42 1.42 0 0 1 .55-1.86 2 2 0 0 0 .79-1.99 2.75 2.75 0 0 0-1.19-2.71 1.37 1.37 0 0 1-.26-1.22 28.92 28.92 0 0 1 1.21-3.08 1.25 1.25 0 0 1 1.53-.63 1.71 1.71 0 0 0 2-.82 1.86 1.86 0 0 1 .55-.53 1.51 1.51 0 0 0 .68-1.66c-.17-1.26 0-1.52 1.14-2.06.84-.39 1.72-.72 2.58-1.07h.68c.41.41.81.83 1.23 1.24.17.16.41.43.58.41 1.34-.18 3 .55 3.83-1.23.09-.18.33-.29.5-.42zM77.2 78.48a2.89 2.89 0 0 0 .31-.37 2.11 2.11 0 0 1 2.54-1 5.17 5.17 0 0 0 2.11 0 1.9 1.9 0 0 1 2.21.83c.25.37.48.72 1.09.44a.8.8 0 0 0 .54-1.1 2 2 0 0 1 .94-2.18 7.52 7.52 0 0 0 1.73-1.74 1.78 1.78 0 0 1 2-.83c.48.09.88.12 1.15-.51s-.08-.89-.47-1.16a1.76 1.76 0 0 1-.78-2 6.51 6.51 0 0 0 0-2.37 1.8 1.8 0 0 1 .84-2c.34-.23.67-.43.45-1a.85.85 0 0 0-1.11-.6 2 2 0 0 1-2.16-1 6.74 6.74 0 0 0-1.62-1.62A2 2 0 0 1 86 58.1a.8.8 0 0 0-.54-1.1c-.62-.27-.84.08-1.09.45a1.83 1.83 0 0 1-2.12.83 5.11 5.11 0 0 0-2.2 0 2.16 2.16 0 0 1-2.55-1c-.12-.19-.55-.26-.82-.24-.55.06-.74.45-.62 1a2 2 0 0 1-1 2.31A6.84 6.84 0 0 0 73.41 62a1.85 1.85 0 0 1-1.89.85c-1.13-.11-1.15-.06-1.34 1.17a3 3 0 0 0 .39.32 1.93 1.93 0 0 1 1 2.31 5.49 5.49 0 0 0 0 2.21 1.72 1.72 0 0 1-.78 2c-.39.27-.75.52-.48 1.16s.66.61 1.15.52a1.8 1.8 0 0 1 2 .82 10 10 0 0 0 1.93 1.91 1.64 1.64 0 0 1 .69 1.73c-.2.92.16 1.39 1.12 1.48z"/><path class="cls-3" d="M90.15 91.7H73.72v4.53l-9.85-5.67 9.81-5.67v4.25H90a1.8 1.8 0 0 0-.64-2.34c-1.82-1.4-1.8-1.47-1-3.63.36-1 .83-1.87 1.25-2.8a1.17 1.17 0 0 1 1.42-.81c1.82.52 2.87-.4 4.12-1.59s2-2.32 1.53-4.06a1.18 1.18 0 0 1 .78-1.44c1.36-.58 2.71-1.15 4.09-1.69a1.19 1.19 0 0 1 1.57.48A3.15 3.15 0 0 0 107 73a1.55 1.55 0 0 1 .77 0c1.36.42 2.18-.22 3-1.28s1.09-1.22 2.46-.73c1.17.43 2.29 1 3.44 1.47a1.26 1.26 0 0 1 .89 1.55c-.52 1.79.38 2.82 1.56 4s2.29 2 4 1.55a1.23 1.23 0 0 1 1.49.86c.54 1.31 1.09 2.62 1.59 3.94a1.35 1.35 0 0 1-.55 1.79c-1.35.79-1.65 1.85-1.65 3.42 0 1.83.27 3.13 1.87 4.11a1.5 1.5 0 0 1 .33 1.32 33.13 33.13 0 0 1-1.76 4.32 1.52 1.52 0 0 1-1.3.65c-1.85-.52-2.9.44-4.12 1.63s-2 2.24-1.51 4a1.27 1.27 0 0 1-.88 1.56l-3.93 1.61a1.22 1.22 0 0 1-1.65-.47 3.21 3.21 0 0 0-3.87-1.7 1.54 1.54 0 0 1-.77 0c-1.37-.42-2.2.25-3 1.31s-1.07 1.19-2.38.72-2.3-1-3.45-1.44a1.32 1.32 0 0 1-.93-1.61c.45-1.69-.25-2.74-1.47-3.91s-2.3-2.22-4.17-1.65a1.17 1.17 0 0 1-1.43-.81c-.56-1.37-1.1-2.73-1.65-4.1a1.34 1.34 0 0 1 .52-1.65c.62-.5 1.21-1 1.81-1.55zm9.13 12.3c-.07 1.28-.07 1.28.79 1.66 1.54.68 1.54.68 2.62-.62a2.91 2.91 0 0 0 .26-.33 1.71 1.71 0 0 1 1.83-.75 10 10 0 0 0 3.3.14 3.43 3.43 0 0 1 4.13 1.74.91.91 0 0 0 .83.22c2-.61 2-.62 1.79-2.73a.91.91 0 0 0 0-.17 1.72 1.72 0 0 1 .76-1.75 16.39 16.39 0 0 0 2.87-2.77 2.51 2.51 0 0 1 3-1.18c.9.24 1.38-.11 1.69-1 .5-1.41.56-1.39-.57-2.35-.18-.14-.34-.3-.53-.43a1.63 1.63 0 0 1-.65-1.62c.07-1.5.08-3 0-4.5a1.72 1.72 0 0 1 .69-1.7c.3-.21.55-.5.86-.69.67-.39.7-.86.4-1.54-.89-2-.34-1.53-2.36-1.45a2.83 2.83 0 0 0-.42.06 1.63 1.63 0 0 1-1.69-.73 11.05 11.05 0 0 0-2.23-2.43c-1.54-1-2.24-2.22-1.71-4 .13-.46 0-.75-.54-1-1.79-.82-1.83-.88-3 .66a2.19 2.19 0 0 1-2.36.86 10.85 10.85 0 0 0-3.55 0 2.64 2.64 0 0 1-3-1.22c-.78-1.1-.85-1-2.06-.54s-1.22.51-1.11 1.84a3.82 3.82 0 0 0 .07.68 1.73 1.73 0 0 1-.78 1.9 10.11 10.11 0 0 0-2.47 2.31 3.18 3.18 0 0 1-3.86 1.6c-.52-.14-.81.06-1 .57-.8 1.8-.86 1.83.69 3a2 2 0 0 1 .82 2.22 7.25 7.25 0 0 0-.09 2.7 3.34 3.34 0 0 1-1.7 4.07 1 1 0 0 0-.23.84c.6 2 .61 2 2.7 1.81a2 2 0 0 1 2 .91 11.37 11.37 0 0 0 2.33 2.46c1.27.89 2.07 1.87 1.48 3.25zM81 74.82a7.14 7.14 0 1 1 7.2-7.13 7.15 7.15 0 0 1-7.2 7.13zm4.72-7.14a4.73 4.73 0 0 0-9.45 0 4.78 4.78 0 0 0 4.73 4.7 4.73 4.73 0 0 0 4.74-4.7z"/><path class="cls-3" d="M97.18 89.79a9.92 9.92 0 1 1 9.92 9.83 9.95 9.95 0 0 1-9.92-9.83zm10-7.38a7.38 7.38 0 1 0-.37 14.76 7.38 7.38 0 1 0 .37-14.76zM483.18 124.78h47.3V121l8.42 4.85-8.35 4.82V127h-49.41V70.07h-3.85l4.85-8.4L487 70h-3.74v44.35l10.66-13.81L500 105l13-16.35 7.24 4.42c.71-.88 1.42-1.74 2.12-2.62 2.14-2.66 4.27-5.33 6.43-8a.9.9 0 0 0 .12-1.21 4.19 4.19 0 0 1 2-5.83 4.24 4.24 0 0 1 5.66 2.5 4.17 4.17 0 0 1-3 5.41 4.75 4.75 0 0 1-2 0 1 1 0 0 0-1.25.4c-3 3.8-6.07 7.57-9.1 11.36l-.6.71-7.23-4.41-13.1 16.48-6.09-4.46c-1.07 1.38-2.14 2.75-3.19 4.12-2.51 3.25-5 6.49-7.51 9.76a2.2 2.2 0 0 0-.4 1.19c.06 2.12.08 4.18.08 6.31zm49.46-43.36a2.12 2.12 0 1 0-2.15-2.06 2.15 2.15 0 0 0 2.15 2.06z"/><path class="cls-3" d="M511.46 101.92c-.18-.57.11-.94.71-1.18.44-.17.85-.4 1.28-.57 1.34-.51 1.34-.5 2.32.54.46.48 2.25.45 2.6-.14a1.31 1.31 0 0 1 1.93-.52c.37.17.76.32 1.14.47.84.32 1.35.78 1.13 1.83-.16.8 1.2 2 2 1.85a1.12 1.12 0 0 1 1.5.83c.16.47.39.91.58 1.37.34.81.44 1.51-.51 2.07-.59.34-.46 2.14.16 2.55a1.1 1.1 0 0 1 .46 1.58c-.2.43-.31.89-.5 1.32-.54 1.23-.54 1.23-1.91 1.16-.64 0-1.93 1.24-1.79 1.88.22 1.07-.27 1.57-1.18 1.88-.36.13-.72.28-1.07.44a1.32 1.32 0 0 1-1.94-.49 2.06 2.06 0 0 0-2.74 0 1.24 1.24 0 0 1-1.79.51c-.33-.15-.66-.28-1-.4-1-.35-1.67-.83-1.38-2.09.16-.66-1.29-1.88-2-1.71a1.12 1.12 0 0 1-1.51-.81c-.16-.44-.36-.86-.55-1.29-.37-.83-.53-1.56.47-2.15.55-.33.45-2.16-.11-2.51a1.2 1.2 0 0 1-.47-1.73c.18-.4.3-.83.48-1.23.55-1.23.56-1.23 1.91-1.15.78.08 1.84-1.23 1.78-2.31zm9 14.42a1 1 0 0 1 .47-1.35 4.4 4.4 0 0 0 1.25-1.18 1.57 1.57 0 0 1 1.81-.88.65.65 0 0 0 .51-.25.49.49 0 0 0-.12-.49c-.93-.48-.87-1.25-.68-2.11a2 2 0 0 0 0-1c-.2-.79-.17-1.45.64-1.89a.62.62 0 0 0 .18-.54c0-.12-.3-.31-.41-.27-1 .29-1.52-.23-2-1a2.47 2.47 0 0 0-.76-.75c-.73-.46-1.22-1-.94-1.94 0-.13-.15-.39-.3-.47a.47.47 0 0 0-.46.14c-.47.94-1.24.89-2.08.72a2.69 2.69 0 0 0-1 0c-.86.14-1.68.24-2.16-.73a.52.52 0 0 0-.48-.12c-.13 0-.3.31-.27.4.37 1.08-.29 1.59-1 2.11a2.61 2.61 0 0 0-.79.83 1.41 1.41 0 0 1-1.75.8.58.58 0 0 0-.51.25.57.57 0 0 0 .16.54c.85.45.83 1.17.69 2a3 3 0 0 0 0 1c.15.82.21 1.58-.71 2a.54.54 0 0 0-.15.48c0 .13.31.32.41.29 1-.32 1.54.31 2.06 1a3.69 3.69 0 0 0 1.09 1 1.1 1.1 0 0 1 .58 1.36c0 .23.14.51.22.76.24-.11.56-.17.69-.35a1.2 1.2 0 0 1 1.45-.56 5.46 5.46 0 0 0 2.13 0 1.07 1.07 0 0 1 1.18.46 3.15 3.15 0 0 0 .8.48zM505 72.58a1.29 1.29 0 0 1 0 .34c-.49 1.22.32 1.91 1.11 2.53a1.66 1.66 0 0 0 1.14.13.8.8 0 0 1 1 .53c.22.53.47 1 .71 1.57.41.88.49 1.62-.51 2.23-.56.35-.48 2 .1 2.42a1.3 1.3 0 0 1 .51 1.87c-.17.38-.29.78-.46 1.15-.57 1.23-.57 1.22-1.93 1.15-.16 0-.4 0-.46.06-.56.73-1.74 1.12-1.27 2.4a.66.66 0 0 1-.46.9c-.56.24-1.1.5-1.65.75-.88.42-1.61.49-2.21-.51-.35-.59-2.19-.55-2.56.05-.56.92-1.24.89-2.07.5-.32-.15-.67-.25-1-.4-1.21-.57-1.2-.57-1.13-1.93 0-.61-1.3-1.95-1.89-1.79-1 .27-1.47-.18-1.78-1a11.48 11.48 0 0 0-.46-1.15 1.4 1.4 0 0 1 .5-2.09 1.87 1.87 0 0 0 0-2.41c-.88-.54-.88-1.19-.5-2 .16-.34.28-.71.42-1.07.31-.88.74-1.45 1.86-1.15.7.19 2-1.23 1.82-2a1.22 1.22 0 0 1 .89-1.63c.41-.15.81-.32 1.21-.51.86-.42 1.57-.45 2.16.5.37.6 2.23.55 2.63-.06a1.31 1.31 0 0 1 1.94-.5c.35.16.72.27 1.07.44s.83.45 1.27.68zm-9 1.76a1.09 1.09 0 0 1-.51 1.44 4.27 4.27 0 0 0-1.26 1.22 1.59 1.59 0 0 1-1.83.85.62.62 0 0 0-.48.27.51.51 0 0 0 .12.47c.87.46.89 1.18.73 2a2.91 2.91 0 0 0 0 1.06c.16.81.12 1.51-.72 1.94a.49.49 0 0 0-.15.46c.08.15.34.35.46.31 1-.31 1.46.23 1.92.94a2.88 2.88 0 0 0 .82.81c.73.46 1.2 1 .91 1.93a.57.57 0 0 0 .24.44c.12.06.43 0 .47-.08.51-1 1.35-.89 2.25-.74a3.25 3.25 0 0 0 1.39-.07 1.17 1.17 0 0 1 1.45.57c.14.18.42.25.64.37.09-.26.28-.52.25-.76a1.3 1.3 0 0 1 .64-1.44 5 5 0 0 0 1.39-1.39 1.22 1.22 0 0 1 1.36-.62 1.85 1.85 0 0 0 .76-.21c-.12-.24-.18-.56-.37-.7A1.17 1.17 0 0 1 506 82a4.63 4.63 0 0 0 0-1.89 1.18 1.18 0 0 1 .54-1.38c.19-.14.24-.46.36-.7-.26-.07-.53-.25-.77-.21a1.24 1.24 0 0 1-1.36-.64 5.73 5.73 0 0 0-1.39-1.39 1.23 1.23 0 0 1-.64-1.36 2 2 0 0 0-.2-.78c-.25.14-.59.22-.75.43a1.15 1.15 0 0 1-1.32.49 5.87 5.87 0 0 0-2.13 0 1.11 1.11 0 0 1-1.25-.46 2.7 2.7 0 0 0-.74-.48z"/><path class="cls-3" d="M517.06 104.41a5.26 5.26 0 1 1-5.38 5.26 5.34 5.34 0 0 1 5.38-5.26zm-3.24 5.21a3.21 3.21 0 1 0 3.21-3.14 3.26 3.26 0 0 0-3.21 3.14zM499.35 75.82a5.27 5.27 0 1 1-5.25 5.33 5.26 5.26 0 0 1 5.25-5.33zm3.21 5.26a3.18 3.18 0 0 0-6.36 0 3.18 3.18 0 1 0 6.36 0zM920.25 51.42c1.21 1.13 2.42 2.28 3.65 3.39a1.67 1.67 0 0 0 .88.34c1.33.15 2.67.28 4 .37a1.6 1.6 0 0 1 1.49 1.08c.51 1.2 1 2.42 1.56 3.6a2.42 2.42 0 0 0 .87 1c1.09.66 2.21 1.27 3.34 1.86a1.74 1.74 0 0 1 1 1.84c0 .27-.05.53-.06.79-.12 3.55-.18 3.6 2.06 6.38 1 1.29 1.41 2.44.43 3.87a6.71 6.71 0 0 0-.72 6.59c.12.3.12.64.23.95a1.71 1.71 0 0 1-.69 2.06c-1 .79-1.89 1.62-2.81 2.46a1.8 1.8 0 0 0-.57.76c-.32 1.4-.6 2.82-.84 4.24a1.77 1.77 0 0 0 .29.9q7.33 15.16 14.7 30.31c.11.23.2.47.38.88l-11.29-3.78-4.13 11.22-15.46-32.28c-1 .61-2 1.17-3 1.77a1.67 1.67 0 0 1-2 0 12.15 12.15 0 0 1-1.09-.66 6.74 6.74 0 0 0-6.41-1.27 2.74 2.74 0 0 1-1.16.12 4 4 0 0 1-1.49-.71 3.7 3.7 0 0 1-.91-1.26c-1.12-2.33-3.08-3.34-5.65-3.59l-12.48 25.7 7.64-2.53 2.8 7.57 6-12.24-4.34-2.15 10.53-7.17 1 12.71-4.63-2.2-8.83 18.14-4.12-11.18-11.42 3.79 2.85-5.88q6.41-13.12 12.75-26.21a4.36 4.36 0 0 0 .11-1.78 5.88 5.88 0 0 0-2.62-4.65c-2.51-2-2.4-1.47-1.52-4.67a6.93 6.93 0 0 0-.55-5.31c-1.51-3-1.64-2.28.53-5a6.87 6.87 0 0 0 1.62-5c-.18-3.4-.37-2.72 2.48-4.36.71-.41 1.42-.8 2.14-1.2-2-2.68-2.26-5.44-.34-7.55a14.5 14.5 0 0 1 3.14-2h2.16a6.17 6.17 0 0 1 3.9 3l3.38-3h1l4.3 1.55a.79.79 0 0 0 .48 0l4.27-1.56zm14 16.65a9.92 9.92 0 0 1 0-1.27 1.82 1.82 0 0 0-1.35-2.32c-2.56-.84-3.82-2.8-4.51-5.23a1.42 1.42 0 0 0-1.65-1.15 7 7 0 0 1-6.36-2.71c-.13-.18-.36-.3-.49-.48a1 1 0 0 0-1.38-.27 19.85 19.85 0 0 1-2.88 1 4.82 4.82 0 0 1-2.07 0c-1.05-.24-2-.71-3.08-1a1.34 1.34 0 0 0-1.08.23c-1 .84-1.95 1.75-2.9 2.65a1.48 1.48 0 0 0-.4.64c-.94 3-2.82 4.4-6 4.33a1.54 1.54 0 0 0-.75.07c-1.32.77-2.6 1.61-3.94 2.37-.46.27-.68.53-.59 1.07a8.18 8.18 0 0 1-2.45 7.65.94.94 0 0 0-.14 1.32 8 8 0 0 1 .84 7.89 1 1 0 0 0 .42 1.35 7.83 7.83 0 0 1 4 6.79 1.11 1.11 0 0 0 1.07 1.16 7.71 7.71 0 0 1 6.21 4.47 1.12 1.12 0 0 0 1.49.69 7.87 7.87 0 0 1 7.58 1.64 1 1 0 0 0 1.49 0c2.17-1.71 4.54-2.53 7.29-1.66h.19a1.22 1.22 0 0 0 1.65-.76 7.48 7.48 0 0 1 6-4.34 1.34 1.34 0 0 0 1.29-1.42 7.24 7.24 0 0 1 3.54-6.26 1.53 1.53 0 0 0 .69-2.14 6.79 6.79 0 0 1 .66-6.78c.68-1 .41-1.71-.3-2.57-1.26-1.52-2.8-2.97-2.09-4.96zm2.25 49.74l7.64 2.54-12.44-25.6c-3.1.7-3.1.7-4.81 3.14-.34.49-.71 1-1 1.45a1.72 1.72 0 0 1-1.91.88c-.75-.11-1.51-.16-2.43-.26l12.17 25.42zm-35.8-63.64a2.84 2.84 0 0 0-2.82 2.8 2.8 2.8 0 0 0 2.74 2.77 2.79 2.79 0 1 0 .08-5.57z"/><path class="cls-3" d="M914.6 93.76a16.89 16.89 0 1 1 16.87-16.66 16.9 16.9 0 0 1-16.87 16.66zm0-31a14.1 14.1 0 1 0 14.11 14.11A14.06 14.06 0 0 0 914.6 62.8z"/><path class="cls-3" d="M906.15 76.23l5.06 5.11 12-12 1.82 2.14-13.51 13.7-7.19-7.18z"/></svg>