<svg id="Layer_1" data-name="Layer 1" xmlns="http://www.w3.org/2000/svg" viewBox="0 0 707.6 673.12"><defs><style>.cls-1{fill:#a8d7cd}.cls-3{fill:none;stroke:#00321d;stroke-miterlimit:10;stroke-width:3px}.cls-4{fill:#00321d}</style></defs><path class="cls-1" d="M0 0h708.1v219.7H0z"/><path fill="#d8e7da" d="M0 226.86h708.1v219.7H0z"/><path class="cls-1" d="M0 453.73h708.1v219.7H0z"/><circle class="cls-3" cx="266.36" cy="46" r="4.5"/><circle class="cls-3" cx="266.37" cy="88.97" r="4.5"/><circle class="cls-3" cx="266.39" cy="131.93" r="4.5"/><circle class="cls-3" cx="266.4" cy="176.89" r="4.5"/><circle class="cls-3" cx="266.36" cy="269" r="4.5"/><circle class="cls-3" cx="266.37" cy="311.97" r="4.5"/><circle class="cls-3" cx="266.39" cy="354.93" r="4.5"/><circle class="cls-3" cx="266.4" cy="399.89" r="4.5"/><circle class="cls-3" cx="266.36" cy="500" r="4.5"/><circle class="cls-3" cx="266.37" cy="542.97" r="4.5"/><circle class="cls-3" cx="266.39" cy="585.93" r="4.5"/><circle class="cls-3" cx="266.4" cy="630.89" r="4.5"/><path class="cls-4" d="M31.87 148.2a42.6 42.6 0 0 1 6.63-.47c4.27 0 7.21.88 9.31 2.64s3.55 4.5 3.55 8.39c0 4.07-1.38 7.11-3.55 9.07S41.92 171 37.49 171a45.05 45.05 0 0 1-5.62-.31zM36 167.53a15.8 15.8 0 0 0 2.3.1c5.42 0 8.63-2.94 8.63-8.73 0-5-2.87-7.92-8.09-7.92a13 13 0 0 0-2.84.24zM64.09 170.71l-.27-1.83h-.1a6.1 6.1 0 0 1-4.87 2.2 4.89 4.89 0 0 1-5.18-4.9c0-4.17 3.69-6.27 9.78-6.23v-.27c0-1.08-.44-2.88-3.35-2.88a8.69 8.69 0 0 0-4.43 1.2l-.82-2.71a11.93 11.93 0 0 1 6-1.45c5.28 0 6.8 3.35 6.8 6.93v6a26.23 26.23 0 0 0 .24 4zm-.54-8.05c-2.94-.07-5.75.57-5.75 3.08a2.19 2.19 0 0 0 2.37 2.37 3.39 3.39 0 0 0 3.25-2.27 3.09 3.09 0 0 0 .13-.92zM76.59 149.52v4.71h4v3.11h-4v7.28c0 2 .54 3 2.13 3a6.12 6.12 0 0 0 1.62-.21l.07 3.18a9 9 0 0 1-3 .41 4.84 4.84 0 0 1-3.59-1.35c-.88-.95-1.29-2.44-1.29-4.61v-7.75h-2.38v-3.11h2.37v-3.72zM93 170.71l-.27-1.83h-.1a6.13 6.13 0 0 1-4.88 2.2 4.9 4.9 0 0 1-5.18-4.9c0-4.17 3.69-6.27 9.79-6.23v-.27c0-1.08-.44-2.88-3.36-2.88a8.75 8.75 0 0 0-4.46 1.2l-.81-2.71a11.92 11.92 0 0 1 6-1.45c5.29 0 6.81 3.35 6.81 6.93v6a27.78 27.78 0 0 0 .23 4zm-.54-8.05c-3-.07-5.76.57-5.76 3.08a2.19 2.19 0 0 0 2.3 2.37 3.38 3.38 0 0 0 3.25-2.27 3.12 3.12 0 0 0 .14-.92zM107.9 146.68h4.2v24h-4.2zM121 149.63a2.34 2.34 0 0 1-4.67 0 2.34 2.34 0 0 1 4.67 0zm-4.43 21.08v-16.48h4.19v16.48zM125.74 170.71v-13.37h-2.24v-3.11h2.24v-.71a7.7 7.7 0 0 1 2-5.62 6.31 6.31 0 0 1 4.3-1.59 8 8 0 0 1 2.68.41l-.31 3.21a4.81 4.81 0 0 0-1.76-.3c-2.06 0-2.77 1.72-2.77 3.75v.85h3.62v3.11h-3.6v13.37zM138.63 163.64c.1 3 2.44 4.26 5.08 4.26a12.47 12.47 0 0 0 4.57-.74l.61 2.87a15.43 15.43 0 0 1-5.75 1c-5.35 0-8.5-3.28-8.5-8.33 0-4.56 2.78-8.86 8.05-8.86s7.11 4.4 7.11 8a11.21 11.21 0 0 1-.13 1.76zm7.25-2.91c0-1.53-.65-4-3.42-4-2.57 0-3.66 2.34-3.83 4zM165.27 170.2a11.94 11.94 0 0 1-4.67.85c-5.14 0-8.49-3.28-8.49-8.39 0-4.94 3.38-8.8 9.17-8.8a10.42 10.42 0 0 1 4 .78l-.75 3.11a7.25 7.25 0 0 0-3.15-.64c-3.18 0-5.07 2.33-5 5.34 0 3.39 2.2 5.32 5 5.32a8.11 8.11 0 0 0 3.29-.65zM171.5 154.23l3 8.83c.34 1 .68 2.27.91 3.22h.11c.27-.95.57-2.17.88-3.25l2.57-8.8h4.47l-4.13 11.24c-2.27 6.15-3.79 8.9-5.76 10.59a8.33 8.33 0 0 1-4.36 2.13l-.95-3.52a7.44 7.44 0 0 0 4.7-3.76 1.68 1.68 0 0 0 .28-.74 1.79 1.79 0 0 0-.24-.81l-6-15.13zM197.5 170.2a12 12 0 0 1-4.67.85c-5.15 0-8.5-3.28-8.5-8.39 0-4.94 3.39-8.8 9.18-8.8a10.33 10.33 0 0 1 4 .78l-.74 3.11a7.28 7.28 0 0 0-3.15-.64c-3.18 0-5.08 2.33-5 5.34 0 3.39 2.2 5.32 5 5.32a8.06 8.06 0 0 0 3.28-.65zM200.58 146.68h4.2v24h-4.2zM212.22 163.64c.11 3 2.44 4.26 5.08 4.26a12.47 12.47 0 0 0 4.57-.74l.61 2.87a15.39 15.39 0 0 1-5.75 1c-5.35 0-8.5-3.28-8.5-8.33 0-4.56 2.78-8.86 8.06-8.86s7.1 4.4 7.1 8a10.09 10.09 0 0 1-.13 1.76zm7.25-2.91c0-1.53-.65-4-3.42-4-2.57 0-3.66 2.34-3.83 4zM291.39 36a30.8 30.8 0 0 1 4.7-.36c3.17 0 5.43.74 6.93 2.13a7.87 7.87 0 0 1 2.41 6.15 9 9 0 0 1-2.43 6.61c-1.6 1.6-4.24 2.46-7.56 2.46a35.14 35.14 0 0 1-4-.2zm2.21 15.13a14.12 14.12 0 0 0 2.24.13c4.72 0 7.28-2.65 7.28-7.27 0-4-2.26-6.6-6.93-6.6a12.38 12.38 0 0 0-2.59.23zM315 52.84l-.18-1.55h-.07a4.58 4.58 0 0 1-3.75 1.83 3.5 3.5 0 0 1-3.76-3.53c0-3 2.64-4.6 7.39-4.57v-.25a2.54 2.54 0 0 0-2.79-2.85 6.09 6.09 0 0 0-3.2.92l-.51-1.48a7.62 7.62 0 0 1 4-1.09c3.75 0 4.67 2.57 4.67 5v4.59a17.62 17.62 0 0 0 .2 3zm-.33-6.27c-2.44 0-5.21.38-5.21 2.77a2 2 0 0 0 2.11 2.13 3.05 3.05 0 0 0 3-2.06 2.22 2.22 0 0 0 .13-.71zM323.05 37v3.53h3.2v1.7h-3.2v6.63c0 1.52.43 2.39 1.68 2.39a4.73 4.73 0 0 0 1.29-.16l.1 1.68a5.4 5.4 0 0 1-2 .3 3.1 3.1 0 0 1-2.41-.94 4.56 4.56 0 0 1-.86-3.19v-6.69H319v-1.7h1.91v-2.94zM335.57 52.84l-.18-1.55h-.07a4.58 4.58 0 0 1-3.76 1.83 3.5 3.5 0 0 1-3.76-3.53c0-3 2.64-4.6 7.39-4.57v-.25a2.54 2.54 0 0 0-2.79-2.85 6.09 6.09 0 0 0-3.2.92l-.51-1.48a7.62 7.62 0 0 1 4-1.09c3.75 0 4.67 2.57 4.67 5v4.59a17.62 17.62 0 0 0 .2 3zm-.33-6.27c-2.44 0-5.21.38-5.21 2.77a2 2 0 0 0 2.11 2.13 3.05 3.05 0 0 0 3-2.06 2.22 2.22 0 0 0 .13-.71zM346.38 43.88c0-1.27 0-2.31-.1-3.33h2l.1 2h.07a4.24 4.24 0 0 1 3.86-2.26 3.63 3.63 0 0 1 3.48 2.46h.05a5.16 5.16 0 0 1 1.37-1.59 4.2 4.2 0 0 1 2.72-.87c1.63 0 4 1.07 4 5.33v7.24h-2.19v-7c0-2.36-.86-3.78-2.66-3.78a2.89 2.89 0 0 0-2.64 2 3.75 3.75 0 0 0-.18 1.12v7.59h-2.18v-7.31c0-2-.87-3.38-2.57-3.38a3.07 3.07 0 0 0-2.77 2.23 3.29 3.29 0 0 0-.17 1.1v7.41h-2.19zM370.05 37.1a1.39 1.39 0 0 1-2.77 0 1.36 1.36 0 0 1 1.39-1.4 1.33 1.33 0 0 1 1.38 1.4zm-2.49 15.74V40.55h2.23v12.29zM373.5 43.88c0-1.27 0-2.31-.1-3.33h2l.12 2h.05a4.53 4.53 0 0 1 4.07-2.31c1.7 0 4.34 1 4.34 5.23v7.34h-2.24v-7.05c0-2-.73-3.63-2.84-3.63a3.19 3.19 0 0 0-3 2.28 3.26 3.26 0 0 0-.15 1v7.39h-2.25zM390.08 37.1a1.39 1.39 0 0 1-2.77 0 1.36 1.36 0 0 1 1.4-1.4 1.33 1.33 0 0 1 1.37 1.4zm-2.49 15.74V40.55h2.23v12.29zM393.53 43.88c0-1.27 0-2.31-.1-3.33h2l.12 2h.06a4.51 4.51 0 0 1 4.06-2.31c1.7 0 4.34 1 4.34 5.23v7.34h-2.23v-7.05c0-2-.74-3.63-2.85-3.63a3.17 3.17 0 0 0-3 2.28 3 3 0 0 0-.16 1v7.39h-2.23zM418.21 40.55c0 .89-.1 1.88-.1 3.38v7.13c0 2.82-.56 4.55-1.76 5.61a6.49 6.49 0 0 1-4.46 1.48 7.92 7.92 0 0 1-4.09-1l.56-1.7a6.89 6.89 0 0 0 3.6 1c2.29 0 4-1.19 4-4.29v-1.43h-.05a4.36 4.36 0 0 1-3.91 2.06c-3 0-5.23-2.59-5.23-6 0-4.17 2.72-6.53 5.54-6.53a4.09 4.09 0 0 1 3.83 2.13l.1-1.85zm-2.31 4.85a3.17 3.17 0 0 0-.13-1 3.22 3.22 0 0 0-3.12-2.4c-2.14 0-3.66 1.81-3.66 4.65 0 2.41 1.22 4.42 3.63 4.42a3.27 3.27 0 0 0 3.1-2.29 3.78 3.78 0 0 0 .18-1.19zM291.39 80a30.8 30.8 0 0 1 4.7-.36c3.17 0 5.43.74 6.93 2.13a7.87 7.87 0 0 1 2.41 6.15 9 9 0 0 1-2.43 6.61c-1.6 1.6-4.24 2.46-7.56 2.46a35.14 35.14 0 0 1-4-.2zm2.21 15.13a14.12 14.12 0 0 0 2.24.13c4.72 0 7.28-2.65 7.28-7.27 0-4-2.26-6.6-6.93-6.6a12.38 12.38 0 0 0-2.59.23zM315 96.84l-.18-1.55h-.07a4.58 4.58 0 0 1-3.75 1.83 3.5 3.5 0 0 1-3.76-3.53c0-3 2.64-4.6 7.39-4.57v-.25a2.54 2.54 0 0 0-2.79-2.85 6.09 6.09 0 0 0-3.2.92l-.51-1.48a7.62 7.62 0 0 1 4-1.09c3.75 0 4.67 2.57 4.67 5v4.59a17.62 17.62 0 0 0 .2 3zm-.33-6.27c-2.44 0-5.21.38-5.21 2.77a2 2 0 0 0 2.11 2.13 3.05 3.05 0 0 0 3-2.06 2.22 2.22 0 0 0 .13-.71zM323.05 81v3.53h3.2v1.7h-3.2v6.63c0 1.52.43 2.39 1.68 2.39a4.73 4.73 0 0 0 1.29-.16l.1 1.68a5.4 5.4 0 0 1-2 .3 3.1 3.1 0 0 1-2.41-.94 4.56 4.56 0 0 1-.86-3.19v-6.69H319v-1.7h1.91v-2.94zM335.57 96.84l-.18-1.55h-.07a4.58 4.58 0 0 1-3.76 1.83 3.5 3.5 0 0 1-3.76-3.53c0-3 2.64-4.6 7.39-4.57v-.25a2.54 2.54 0 0 0-2.79-2.85 6.09 6.09 0 0 0-3.2.92l-.51-1.48a7.62 7.62 0 0 1 4-1.09c3.75 0 4.67 2.57 4.67 5v4.59a17.62 17.62 0 0 0 .2 3zm-.33-6.27c-2.44 0-5.21.38-5.21 2.77a2 2 0 0 0 2.11 2.13 3.05 3.05 0 0 0 3-2.06 2.22 2.22 0 0 0 .13-.71zM348.87 81.1a1.31 1.31 0 0 1-1.42 1.37 1.33 1.33 0 0 1-1.35-1.37 1.37 1.37 0 0 1 1.4-1.4 1.33 1.33 0 0 1 1.37 1.4zm-2.49 15.74V84.55h2.24v12.29zM352.32 87.88c0-1.27 0-2.31-.1-3.33h2l.13 2h.05a4.51 4.51 0 0 1 4.06-2.31c1.7 0 4.34 1 4.34 5.23v7.34h-2.23v-7.05c0-2-.74-3.63-2.84-3.63a3.17 3.17 0 0 0-3 2.28 3.26 3.26 0 0 0-.15 1v7.39h-2.24zM369 81v3.53h3.2v1.7H369v6.63c0 1.52.44 2.39 1.68 2.39a4.82 4.82 0 0 0 1.3-.16l.1 1.68a5.44 5.44 0 0 1-2 .3 3.12 3.12 0 0 1-2.42-.94 4.56 4.56 0 0 1-.86-3.19v-6.69h-1.9v-1.7h1.9v-2.94zM375.81 91.1c.05 3 2 4.27 4.21 4.27a8 8 0 0 0 3.41-.64l.38 1.6a9.93 9.93 0 0 1-4.09.76c-3.78 0-6-2.48-6-6.19s2.18-6.63 5.76-6.63c4 0 5.08 3.53 5.08 5.79a7.43 7.43 0 0 1-.08 1zm6.55-1.6c0-1.42-.58-3.63-3.1-3.63-2.26 0-3.25 2.08-3.43 3.63zM397.87 84.55c-.05.89-.1 1.88-.1 3.38v7.13c0 2.82-.56 4.55-1.75 5.61a6.5 6.5 0 0 1-4.47 1.48 8 8 0 0 1-4.09-1l.56-1.7a6.9 6.9 0 0 0 3.61 1c2.28 0 4-1.19 4-4.29v-1.43a4.38 4.38 0 0 1-3.91 2.06c-3.05 0-5.23-2.59-5.23-6 0-4.17 2.71-6.53 5.53-6.53a4.09 4.09 0 0 1 3.83 2.13h.06l.1-1.85zm-2.31 4.85a2.91 2.91 0 0 0-.13-1 3.21 3.21 0 0 0-3.12-2.4c-2.13 0-3.65 1.81-3.65 4.65 0 2.41 1.21 4.42 3.63 4.42a3.26 3.26 0 0 0 3.09-2.29 3.78 3.78 0 0 0 .18-1.19zM401.32 88.39c0-1.45 0-2.7-.1-3.84h2l.07 2.41h.1a3.69 3.69 0 0 1 3.41-2.69 2.41 2.41 0 0 1 .63.08v2.11a2.91 2.91 0 0 0-.76-.08 3.14 3.14 0 0 0-3 2.87 6.33 6.33 0 0 0-.1 1v6.55h-2.21zM412.21 81.1a1.31 1.31 0 0 1-1.42 1.37 1.33 1.33 0 0 1-1.34-1.37 1.36 1.36 0 0 1 1.39-1.4 1.33 1.33 0 0 1 1.37 1.4zm-2.48 15.74V84.55H412v12.29zM418.36 81v3.53h3.2v1.7h-3.2v6.63c0 1.52.43 2.39 1.67 2.39a4.76 4.76 0 0 0 1.3-.16l.1 1.68a5.44 5.44 0 0 1-2 .3 3.09 3.09 0 0 1-2.41-.94 4.51 4.51 0 0 1-.87-3.19v-6.69h-1.9v-1.7h1.9v-2.94zM425.11 84.55l2.69 7.26c.28.82.59 1.78.79 2.52h.05c.23-.74.48-1.68.79-2.57l2.44-7.21h2.36l-3.36 8.76c-1.59 4.22-2.69 6.37-4.21 7.69a6 6 0 0 1-2.74 1.45l-.56-1.88a5.88 5.88 0 0 0 1.95-1.09 6.61 6.61 0 0 0 1.88-2.48 1.63 1.63 0 0 0 .18-.53 1.87 1.87 0 0 0-.15-.58l-4.55-11.33zM303.35 140.28a10.91 10.91 0 0 1-4.52.81c-4.82 0-8.45-3-8.45-8.65 0-5.36 3.63-9 8.94-9a9.12 9.12 0 0 1 4.06.76l-.54 1.8a8.1 8.1 0 0 0-3.45-.71c-4 0-6.68 2.57-6.68 7.06 0 4.19 2.42 6.88 6.58 6.88a8.88 8.88 0 0 0 3.61-.71zM306.35 128.55l2.69 7.26c.28.82.58 1.78.79 2.52h.05c.22-.74.48-1.68.78-2.57l2.44-7.21h2.36l-3.35 8.76c-1.6 4.22-2.69 6.37-4.21 7.69a6 6 0 0 1-2.75 1.45l-.56-1.88a5.92 5.92 0 0 0 2-1.09 6.72 6.72 0 0 0 1.88-2.49 1.63 1.63 0 0 0 .18-.53 1.69 1.69 0 0 0-.16-.58l-4.54-11.33zM317.39 140.84c.05-.84.1-2.08.1-3.17v-14.86h2.21v7.72h.05a4.58 4.58 0 0 1 4.19-2.26c3.05 0 5.21 2.54 5.18 6.27 0 4.4-2.77 6.58-5.51 6.58a4.37 4.37 0 0 1-4.11-2.31h-.08l-.1 2zm2.31-4.93a4.38 4.38 0 0 0 .1.82 3.44 3.44 0 0 0 3.35 2.61c2.34 0 3.74-1.9 3.74-4.72 0-2.46-1.27-4.57-3.66-4.57a3.56 3.56 0 0 0-3.4 2.74 4.52 4.52 0 0 0-.13.92zM333.18 135.1c.05 3 2 4.27 4.22 4.27a8 8 0 0 0 3.4-.64l.38 1.6a9.89 9.89 0 0 1-4.09.76c-3.78 0-6-2.48-6-6.19s2.18-6.63 5.76-6.63c4 0 5.08 3.53 5.08 5.79a7.43 7.43 0 0 1-.08 1zm6.55-1.6c0-1.42-.58-3.63-3.1-3.63-2.26 0-3.25 2.08-3.42 3.63zM344.66 132.39c0-1.45 0-2.7-.1-3.84h1.95l.08 2.41h.1a3.68 3.68 0 0 1 3.4-2.69 2.55 2.55 0 0 1 .64.08v2.11a2.94 2.94 0 0 0-.77-.08 3.13 3.13 0 0 0-3 2.87 6.33 6.33 0 0 0-.1 1v6.55h-2.21zM358 138.56a5.84 5.84 0 0 0 2.94.88c1.63 0 2.39-.81 2.39-1.82s-.64-1.65-2.29-2.26c-2.21-.79-3.25-2-3.25-3.48 0-2 1.6-3.61 4.24-3.61a6.16 6.16 0 0 1 3 .76l-.55 1.63A4.79 4.79 0 0 0 362 130c-1.32 0-2 .76-2 1.67s.73 1.48 2.33 2.09c2.13.81 3.23 1.87 3.23 3.7 0 2.16-1.68 3.68-4.6 3.68a7.06 7.06 0 0 1-3.45-.83zM369.64 135.1c.05 3 2 4.27 4.21 4.27a8 8 0 0 0 3.41-.64l.38 1.6a9.93 9.93 0 0 1-4.09.76c-3.78 0-6-2.48-6-6.19s2.18-6.63 5.76-6.63c4 0 5.08 3.53 5.08 5.79a7.43 7.43 0 0 1-.08 1zm6.55-1.6c0-1.42-.58-3.63-3.1-3.63-2.26 0-3.25 2.08-3.43 3.63zM389.87 140.38a8.14 8.14 0 0 1-3.53.71c-3.7 0-6.11-2.51-6.11-6.27a6.24 6.24 0 0 1 6.6-6.52 7.48 7.48 0 0 1 3.09.63l-.5 1.73a5.13 5.13 0 0 0-2.59-.59c-2.82 0-4.34 2.09-4.34 4.65 0 2.84 1.82 4.6 4.26 4.6a6.31 6.31 0 0 0 2.74-.61zM402.77 137.49c0 1.27 0 2.39.1 3.35h-2l-.12-2h-.06a4.61 4.61 0 0 1-4.06 2.29c-1.93 0-4.24-1.07-4.24-5.38v-7.19h2.24v6.81c0 2.33.71 3.91 2.74 3.91a3.22 3.22 0 0 0 2.94-2 3.17 3.17 0 0 0 .21-1.14v-7.54h2.23zM406.48 132.39c0-1.45 0-2.7-.1-3.84h1.95l.08 2.41h.1a3.68 3.68 0 0 1 3.4-2.69 2.55 2.55 0 0 1 .64.08v2.11a2.94 2.94 0 0 0-.77-.08 3.13 3.13 0 0 0-3 2.87 6.33 6.33 0 0 0-.1 1v6.55h-2.21zM417.37 125.1a1.39 1.39 0 0 1-2.77 0 1.37 1.37 0 0 1 1.4-1.4 1.33 1.33 0 0 1 1.37 1.4zm-2.49 15.74v-12.29h2.24v12.29zM423.51 125v3.53h3.2v1.7h-3.2v6.63c0 1.52.43 2.39 1.68 2.39a4.73 4.73 0 0 0 1.29-.16l.1 1.68a5.4 5.4 0 0 1-2 .3 3.1 3.1 0 0 1-2.41-.94 4.56 4.56 0 0 1-.86-3.19v-6.71h-1.91v-1.7h1.91v-2.94zM430.27 128.55l2.69 7.26c.28.82.58 1.78.78 2.52h.05c.23-.74.49-1.68.79-2.57l2.44-7.21h2.36l-3.38 8.76c-1.6 4.22-2.69 6.37-4.22 7.69a6 6 0 0 1-2.74 1.45l-.56-1.88a5.92 5.92 0 0 0 2-1.09 6.72 6.72 0 0 0 1.88-2.49 1.63 1.63 0 0 0 .18-.53 2 2 0 0 0-.16-.58l-4.54-11.33zM291.39 168a20.86 20.86 0 0 1 4-.36c2.21 0 3.63.38 4.7 1.24a3.59 3.59 0 0 1 1.42 3 4.05 4.05 0 0 1-2.89 3.75 4.42 4.42 0 0 1 3.52 4.3 4.59 4.59 0 0 1-1.44 3.42c-1.2 1.09-3.13 1.6-5.92 1.6a26.35 26.35 0 0 1-3.43-.2zm2.21 7h2c2.33 0 3.71-1.22 3.71-2.87 0-2-1.53-2.79-3.76-2.79a10.08 10.08 0 0 0-2 .15zm0 8.2a11.23 11.23 0 0 0 1.86.11c2.28 0 4.39-.84 4.39-3.33 0-2.34-2-3.3-4.42-3.3h-1.83zM307.57 169.1a1.39 1.39 0 0 1-2.77 0 1.36 1.36 0 0 1 1.4-1.4 1.33 1.33 0 0 1 1.37 1.4zm-2.49 15.74v-12.29h2.23v12.29zM321.61 172.55c-.05.89-.11 1.88-.11 3.38v7.13c0 2.82-.55 4.55-1.75 5.61a6.5 6.5 0 0 1-4.47 1.48 7.91 7.91 0 0 1-4.08-1l.55-1.7a7 7 0 0 0 3.61 1c2.29 0 4-1.19 4-4.29v-1.37h-.05a4.38 4.38 0 0 1-3.91 2.06c-3.05 0-5.23-2.59-5.23-6 0-4.17 2.72-6.53 5.53-6.53a4.09 4.09 0 0 1 3.84 2.13h.05l.1-1.85zm-2.31 4.85a3.17 3.17 0 0 0-.13-1 3.22 3.22 0 0 0-3.12-2.37c-2.14 0-3.66 1.81-3.66 4.65 0 2.41 1.22 4.42 3.63 4.42a3.27 3.27 0 0 0 3.1-2.29 4.09 4.09 0 0 0 .18-1.19zM341.2 166.81v14.86c0 1.09 0 2.33.11 3.17h-2l-.1-2.13h-.05a4.56 4.56 0 0 1-4.19 2.41c-3 0-5.26-2.51-5.26-6.25 0-4.08 2.52-6.6 5.51-6.6a4.12 4.12 0 0 1 3.71 1.88h.07v-7.34zm-2.2 10.74a3.76 3.76 0 0 0-.1-.94 3.29 3.29 0 0 0-3.23-2.59c-2.31 0-3.68 2-3.68 4.75 0 2.49 1.22 4.55 3.63 4.55a3.36 3.36 0 0 0 3.28-2.67 3.68 3.68 0 0 0 .1-1zM351.72 184.84l-.18-1.55h-.08a4.55 4.55 0 0 1-3.76 1.83 3.5 3.5 0 0 1-3.75-3.53c0-3 2.64-4.6 7.38-4.57v-.25a2.53 2.53 0 0 0-2.79-2.85 6.14 6.14 0 0 0-3.2.92l-.51-1.48a7.65 7.65 0 0 1 4-1.09c3.76 0 4.67 2.57 4.67 5v4.59a16.55 16.55 0 0 0 .21 3zm-.33-6.27c-2.44 0-5.21.38-5.21 2.77a2 2 0 0 0 2.11 2.13 3.06 3.06 0 0 0 3-2.06 2.53 2.53 0 0 0 .13-.71zM359.74 169v3.53h3.2v1.7h-3.2v6.63c0 1.52.43 2.39 1.67 2.39a4.76 4.76 0 0 0 1.3-.16l.1 1.68a5.44 5.44 0 0 1-2 .3 3.09 3.09 0 0 1-2.41-.94 4.51 4.51 0 0 1-.87-3.19v-6.71h-1.9v-1.7h1.9v-2.94zM372.25 184.84l-.17-1.55H372a4.56 4.56 0 0 1-3.76 1.83 3.49 3.49 0 0 1-3.75-3.53c0-3 2.64-4.6 7.38-4.57v-.25a2.54 2.54 0 0 0-2.79-2.85 6.11 6.11 0 0 0-3.2.92l-.51-1.48a7.65 7.65 0 0 1 4-1.09c3.76 0 4.67 2.57 4.67 5v4.59a16.55 16.55 0 0 0 .21 3zm-.33-6.27c-2.43 0-5.2.38-5.2 2.77a2 2 0 0 0 2.11 2.13 3.06 3.06 0 0 0 3-2.06 2.52 2.52 0 0 0 .12-.71zM389.87 184.84l-.17-1.55h-.08a4.58 4.58 0 0 1-3.76 1.83 3.5 3.5 0 0 1-3.76-3.53c0-3 2.64-4.6 7.39-4.57v-.25a2.54 2.54 0 0 0-2.79-2.85 6.11 6.11 0 0 0-3.2.92l-.51-1.48a7.65 7.65 0 0 1 4-1.09c3.76 0 4.67 2.57 4.67 5v4.59a16.55 16.55 0 0 0 .21 3zm-.33-6.27c-2.43 0-5.2.38-5.2 2.77a2 2 0 0 0 2.11 2.13 3.06 3.06 0 0 0 3-2.06 2.52 2.52 0 0 0 .12-.71zM395.31 175.88c0-1.27 0-2.31-.11-3.33h2l.12 2h.05a4.52 4.52 0 0 1 4.07-2.31c1.7 0 4.34 1 4.34 5.23v7.34h-2.24v-7.08c0-2-.73-3.63-2.84-3.63a3.18 3.18 0 0 0-3 2.28 3.26 3.26 0 0 0-.15 1v7.39h-2.23zM416.2 184.84l-.18-1.55H416a4.58 4.58 0 0 1-3.76 1.83 3.5 3.5 0 0 1-3.76-3.53c0-3 2.64-4.6 7.39-4.57v-.25a2.54 2.54 0 0 0-2.79-2.85 6.11 6.11 0 0 0-3.2.92l-.51-1.48a7.65 7.65 0 0 1 4-1.09c3.76 0 4.67 2.57 4.67 5v4.59a17.62 17.62 0 0 0 .2 3zm-.33-6.27c-2.44 0-5.2.38-5.2 2.77a2 2 0 0 0 2.1 2.13 3.05 3.05 0 0 0 3-2.06 2.22 2.22 0 0 0 .13-.71zM421.63 166.81h2.24v18h-2.24zM428.44 172.55l2.69 7.26c.28.82.58 1.78.79 2.52h.08c.23-.74.48-1.68.78-2.57l2.44-7.21h2.36l-3.35 8.76c-1.6 4.22-2.69 6.37-4.21 7.69a6 6 0 0 1-2.75 1.45l-.55-1.88a6 6 0 0 0 1.95-1.09 6.72 6.72 0 0 0 1.88-2.49 1.63 1.63 0 0 0 .18-.53 1.87 1.87 0 0 0-.15-.58L426 172.55zM442.28 169v3.53h3.19v1.7h-3.19v6.63c0 1.52.43 2.39 1.67 2.39a4.82 4.82 0 0 0 1.3-.16l.1 1.68a5.44 5.44 0 0 1-2 .3 3.12 3.12 0 0 1-2.42-.94 4.56 4.56 0 0 1-.86-3.19v-6.71h-1.9v-1.7h1.9v-2.94zM450.48 169.1a1.39 1.39 0 0 1-2.77 0 1.36 1.36 0 0 1 1.39-1.4 1.33 1.33 0 0 1 1.38 1.4zM448 184.84v-12.29h2.23v12.29zM462.69 184.38a8.18 8.18 0 0 1-3.53.71c-3.71 0-6.12-2.51-6.12-6.27a6.24 6.24 0 0 1 6.6-6.52 7.57 7.57 0 0 1 3.1.63l-.51 1.73a5.1 5.1 0 0 0-2.59-.59c-2.82 0-4.34 2.09-4.34 4.65 0 2.84 1.83 4.6 4.26 4.6a6.39 6.39 0 0 0 2.75-.61zM465 182.56a5.87 5.87 0 0 0 2.94.88c1.63 0 2.39-.81 2.39-1.82s-.64-1.65-2.29-2.26c-2.21-.79-3.25-2-3.25-3.48 0-2 1.6-3.61 4.24-3.61a6.23 6.23 0 0 1 3 .76l-.56 1.63A4.76 4.76 0 0 0 469 174c-1.32 0-2.05.76-2.05 1.67s.73 1.48 2.33 2.09c2.14.81 3.23 1.87 3.23 3.7 0 2.16-1.68 3.68-4.6 3.68a7.09 7.09 0 0 1-3.45-.83zM67.26 391.25l-2 6.46H61l7.31-22.81h5.31L81 397.71h-4.43l-2.07-6.46zm6.53-3.15L72 382.48c-.44-1.39-.82-2.94-1.15-4.26h-.07c-.34 1.32-.68 2.91-1.08 4.26l-1.76 5.62zM83.88 386.14c0-1.9 0-3.49-.13-4.91h3.65l.2 2.47h.1a6 6 0 0 1 5.3-2.84c2.88 0 5.86 1.86 5.86 7.07v9.78h-4.22v-9.31c0-2.36-.88-4.16-3.14-4.16a3.5 3.5 0 0 0-3.25 2.44 4.1 4.1 0 0 0-.17 1.35v9.68h-4.2zM112.52 397.71l-.27-1.83h-.11a6.1 6.1 0 0 1-4.87 2.2 4.89 4.89 0 0 1-5.18-4.9c0-4.17 3.69-6.27 9.78-6.23v-.27c0-1.08-.44-2.88-3.35-2.88a8.75 8.75 0 0 0-4.43 1.22l-.81-2.71a11.92 11.92 0 0 1 6-1.45c5.28 0 6.81 3.35 6.81 6.93v6a26.38 26.38 0 0 0 .23 4zm-.54-8c-3-.07-5.76.57-5.76 3.08a2.19 2.19 0 0 0 2.37 2.37 3.38 3.38 0 0 0 3.25-2.27 3.12 3.12 0 0 0 .14-.92zM120.44 373.68h4.2v24h-4.2zM131.74 381.23l3 8.83c.34 1 .68 2.27.92 3.22h.1c.27-.95.57-2.17.88-3.25l2.57-8.8h4.47l-4.13 11.24c-2.27 6.15-3.79 8.9-5.75 10.59a8.39 8.39 0 0 1-4.37 2.13l-.95-3.52a7.18 7.18 0 0 0 2.44-1.15 7.3 7.3 0 0 0 2.27-2.61 1.64 1.64 0 0 0 .27-.74 1.79 1.79 0 0 0-.24-.81l-6-15.13zM150.84 376.52v4.71h4v3.11h-4v7.28c0 2 .54 3.05 2.13 3.05a6.12 6.12 0 0 0 1.62-.21l.07 3.18a9 9 0 0 1-3 .41 4.86 4.86 0 0 1-3.59-1.35c-.88-.95-1.28-2.44-1.28-4.61v-7.75h-2.37v-3.11h2.37v-3.72zM162.38 376.63a2.34 2.34 0 1 1-2.34-2.27 2.2 2.2 0 0 1 2.34 2.27zM158 397.71v-16.48h4.19v16.48zM178.73 397.2a12 12 0 0 1-4.67.85c-5.15 0-8.5-3.28-8.5-8.39 0-4.94 3.39-8.8 9.18-8.8a10.33 10.33 0 0 1 4 .78l-.74 3.11a7.28 7.28 0 0 0-3.15-.64c-3.18 0-5.08 2.33-5 5.34 0 3.39 2.2 5.32 5 5.32a8.06 8.06 0 0 0 3.28-.65zM181.61 393.89a9.36 9.36 0 0 0 4.23 1.18c1.83 0 2.64-.74 2.64-1.83s-.68-1.69-2.71-2.4c-3.21-1.12-4.57-2.88-4.53-4.8 0-2.92 2.4-5.18 6.22-5.18a9.67 9.67 0 0 1 4.37 1l-.81 2.94a7.48 7.48 0 0 0-3.49-.94c-1.49 0-2.3.71-2.3 1.72s.78 1.56 2.88 2.3c3 1.09 4.36 2.61 4.4 5.05 0 3-2.34 5.14-6.71 5.14a10.55 10.55 0 0 1-5-1.15zM294.16 272.46l-1.78 5.38h-2.28l5.81-17.11h2.67l5.84 17.11h-2.36l-1.83-5.38zm5.61-1.73l-1.67-4.92c-.38-1.12-.64-2.14-.89-3.13-.26 1-.54 2.06-.87 3.1l-1.67 5zM306.4 275.56a5.87 5.87 0 0 0 2.94.88c1.63 0 2.39-.81 2.39-1.82s-.63-1.65-2.28-2.26c-2.21-.79-3.25-2-3.25-3.48 0-2 1.59-3.61 4.24-3.61a6.22 6.22 0 0 1 3 .76l-.56 1.63a4.73 4.73 0 0 0-2.52-.71c-1.32 0-2.05.76-2.05 1.67s.73 1.48 2.33 2.09c2.14.81 3.23 1.87 3.23 3.7 0 2.16-1.68 3.68-4.6 3.68a7.09 7.09 0 0 1-3.45-.83zM316.45 275.56a5.88 5.88 0 0 0 2.95.88c1.62 0 2.38-.81 2.38-1.82s-.63-1.65-2.28-2.26c-2.21-.79-3.25-2-3.25-3.48 0-2 1.6-3.61 4.24-3.61a6.19 6.19 0 0 1 3 .76l-.56 1.63a4.72 4.72 0 0 0-2.51-.71c-1.32 0-2.06.76-2.06 1.67s.74 1.48 2.34 2.09c2.13.81 3.22 1.87 3.22 3.7 0 2.16-1.67 3.68-4.59 3.68a7.13 7.13 0 0 1-3.46-.83zM328.05 272.1c.06 3 2 4.27 4.22 4.27a8 8 0 0 0 3.4-.64l.38 1.6a9.85 9.85 0 0 1-4.09.76c-3.78 0-6-2.48-6-6.19s2.19-6.63 5.77-6.63c4 0 5.07 3.53 5.07 5.79a10 10 0 0 1-.07 1zm6.56-1.6c0-1.42-.59-3.63-3.1-3.63-2.26 0-3.25 2.08-3.43 3.63zM342.22 262v3.53h3.2v1.7h-3.2v6.63c0 1.52.43 2.39 1.68 2.39a4.73 4.73 0 0 0 1.29-.16l.1 1.68a5.4 5.4 0 0 1-2 .3 3.09 3.09 0 0 1-2.41-.94A4.56 4.56 0 0 1 340 274v-6.71h-1.91v-1.7H340v-2.94zM291.39 304.93a25.46 25.46 0 0 1 4.24-.33 7 7 0 0 1 4.8 1.42 4.6 4.6 0 0 1 1.5 3.58 5.06 5.06 0 0 1-1.32 3.66 7.11 7.11 0 0 1-5.23 1.88 7.45 7.45 0 0 1-1.78-.16v6.86h-2.21zm2.21 8.25a7.24 7.24 0 0 0 1.83.18c2.67 0 4.29-1.3 4.29-3.66s-1.6-3.35-4-3.35a9.33 9.33 0 0 0-2.08.18zM304.42 313.39c0-1.45 0-2.7-.1-3.84h1.95l.08 2.41h.1a3.68 3.68 0 0 1 3.4-2.69 2.49 2.49 0 0 1 .64.08v2.11a2.94 2.94 0 0 0-.77-.08 3.13 3.13 0 0 0-3 2.87 6.33 6.33 0 0 0-.1 1v6.55h-2.21zM323.59 315.59c0 4.55-3.15 6.53-6.12 6.53-3.33 0-5.89-2.44-5.89-6.32 0-4.12 2.69-6.53 6.09-6.53s5.92 2.57 5.92 6.32zm-9.75.13c0 2.69 1.55 4.72 3.73 4.72s3.73-2 3.73-4.77c0-2.08-1-4.72-3.68-4.72s-3.78 2.44-3.78 4.77zM335.16 321.38a8.14 8.14 0 0 1-3.53.71c-3.7 0-6.11-2.51-6.11-6.27a6.24 6.24 0 0 1 6.6-6.52 7.48 7.48 0 0 1 3.09.63l-.5 1.73a5.13 5.13 0 0 0-2.59-.59c-2.82 0-4.34 2.09-4.34 4.65 0 2.84 1.82 4.6 4.26 4.6a6.31 6.31 0 0 0 2.74-.61zM338.87 316.1c.05 3 2 4.27 4.22 4.27a8 8 0 0 0 3.4-.64l.38 1.6a9.89 9.89 0 0 1-4.09.76c-3.78 0-6-2.48-6-6.19s2.18-6.63 5.76-6.63c4 0 5.08 3.53 5.08 5.79a7.43 7.43 0 0 1-.08 1zm6.55-1.6c0-1.42-.58-3.63-3.1-3.63-2.26 0-3.25 2.08-3.42 3.63zM350 319.56a5.88 5.88 0 0 0 2.95.88c1.62 0 2.38-.81 2.38-1.82s-.63-1.65-2.28-2.26c-2.21-.79-3.25-2-3.25-3.48 0-2 1.6-3.61 4.24-3.61a6.22 6.22 0 0 1 3 .76l-.56 1.63A4.72 4.72 0 0 0 354 311c-1.32 0-2.06.76-2.06 1.67s.74 1.48 2.34 2.09c2.13.81 3.22 1.87 3.22 3.7 0 2.16-1.67 3.68-4.59 3.68a7.13 7.13 0 0 1-3.46-.83zM360.1 319.56a5.84 5.84 0 0 0 2.94.88c1.63 0 2.39-.81 2.39-1.82s-.64-1.65-2.29-2.26c-2.21-.79-3.25-2-3.25-3.48 0-2 1.6-3.61 4.24-3.61a6.16 6.16 0 0 1 3 .76l-.55 1.63a4.79 4.79 0 0 0-2.52-.71c-1.32 0-2.05.76-2.05 1.67s.73 1.48 2.33 2.09c2.13.81 3.23 1.87 3.23 3.7 0 2.16-1.68 3.68-4.6 3.68a7.06 7.06 0 0 1-3.45-.83zM291.09 363.15a7.83 7.83 0 0 0 4 1.12c2.26 0 3.58-1.2 3.58-2.92s-.91-2.52-3.22-3.41c-2.8-1-4.52-2.43-4.52-4.85 0-2.66 2.2-4.64 5.53-4.64a7.66 7.66 0 0 1 3.78.84l-.61 1.8a6.72 6.72 0 0 0-3.25-.81c-2.33 0-3.22 1.39-3.22 2.56 0 1.6 1 2.39 3.4 3.3 2.9 1.12 4.37 2.51 4.37 5s-2 4.92-6 4.92a8.84 8.84 0 0 1-4.37-1.09zM314.12 362.49c0 1.27 0 2.39.1 3.35h-2l-.13-2h-.05a4.62 4.62 0 0 1-4.06 2.29c-1.93 0-4.24-1.07-4.24-5.38v-7.19H306v6.81c0 2.33.71 3.91 2.74 3.91a3.25 3.25 0 0 0 2.95-2 3.17 3.17 0 0 0 .2-1.14v-7.54h2.24zM317.82 357.56c0-1.57-.05-2.84-.1-4h2l.1 2.11h.05a4.83 4.83 0 0 1 4.37-2.39c3 0 5.2 2.52 5.2 6.25 0 4.42-2.69 6.6-5.58 6.6a4.32 4.32 0 0 1-3.79-1.93H320v6.68h-2.21zm2.21 3.28a5.07 5.07 0 0 0 .1.91 3.46 3.46 0 0 0 3.36 2.62c2.36 0 3.73-1.93 3.73-4.75 0-2.46-1.3-4.57-3.66-4.57a3.58 3.58 0 0 0-3.38 2.77 3.93 3.93 0 0 0-.15.91zM332.27 357.56c0-1.57 0-2.84-.1-4h2l.1 2.11h.06a4.82 4.82 0 0 1 4.36-2.39c3 0 5.21 2.52 5.21 6.25 0 4.42-2.69 6.6-5.59 6.6a4.3 4.3 0 0 1-3.78-1.93v6.68h-2.21zm2.21 3.28a5.07 5.07 0 0 0 .1.91 3.45 3.45 0 0 0 3.35 2.62c2.36 0 3.73-1.93 3.73-4.75 0-2.46-1.29-4.57-3.65-4.57a3.56 3.56 0 0 0-3.38 2.77 3.47 3.47 0 0 0-.15.91zM346.71 347.81H349v18h-2.24zM353.52 353.55l2.69 7.26c.28.82.58 1.78.79 2.52h.05c.23-.74.48-1.68.78-2.57l2.44-7.21h2.36l-3.35 8.76c-1.6 4.22-2.69 6.37-4.21 7.69a6 6 0 0 1-2.75 1.45l-.55-1.88a6 6 0 0 0 2-1.09 6.72 6.72 0 0 0 1.83-2.48 1.63 1.63 0 0 0 .18-.53 1.69 1.69 0 0 0-.16-.58l-4.54-11.33zM378.8 365.38a8.09 8.09 0 0 1-3.52.71c-3.71 0-6.12-2.51-6.12-6.27a6.24 6.24 0 0 1 6.6-6.52 7.57 7.57 0 0 1 3.1.63l-.51 1.73a5.13 5.13 0 0 0-2.59-.59c-2.82 0-4.34 2.09-4.34 4.65 0 2.84 1.82 4.6 4.26 4.6a6.31 6.31 0 0 0 2.74-.61zM381.42 347.81h2.23v7.67h.05a4.23 4.23 0 0 1 1.6-1.57 4.62 4.62 0 0 1 2.29-.64c1.65 0 4.29 1 4.29 5.26v7.31h-2.23v-7.06c0-2-.74-3.65-2.85-3.65a3.19 3.19 0 0 0-3 2.23 2.62 2.62 0 0 0-.16 1.07v7.41h-2.23zM402.31 365.84l-.17-1.55h-.08a4.58 4.58 0 0 1-3.76 1.83 3.5 3.5 0 0 1-3.76-3.53c0-3 2.65-4.6 7.39-4.57v-.25a2.54 2.54 0 0 0-2.79-2.85 6.11 6.11 0 0 0-3.2.92l-.51-1.48a7.65 7.65 0 0 1 4-1.09c3.76 0 4.67 2.57 4.67 5v4.59a16.55 16.55 0 0 0 .21 2.95zm-.33-6.27c-2.43-.05-5.2.38-5.2 2.77a2 2 0 0 0 2.11 2.13 3.06 3.06 0 0 0 3-2.06 2.52 2.52 0 0 0 .12-.71zM410.24 350.1a1.39 1.39 0 0 1-2.77 0 1.36 1.36 0 0 1 1.39-1.4 1.33 1.33 0 0 1 1.38 1.4zm-2.49 15.74v-12.29H410v12.29zM413.69 356.88c0-1.27 0-2.31-.1-3.33h2l.12 2h.05a4.53 4.53 0 0 1 4.07-2.31c1.7 0 4.34 1 4.34 5.23v7.34h-2.24v-7.08c0-2-.73-3.63-2.84-3.63a3.18 3.18 0 0 0-3 2.28 3.26 3.26 0 0 0-.15 1v7.39h-2.23zM293.6 392.73v17.11h-2.21v-17.11zM297.64 400.88c0-1.27 0-2.31-.1-3.33h2l.12 2h.06a4.5 4.5 0 0 1 4.06-2.31c1.7 0 4.34 1 4.34 5.23v7.34h-2.23v-7.08c0-2-.74-3.63-2.85-3.63a3.17 3.17 0 0 0-3 2.28 3 3 0 0 0-.16 1v7.39h-2.23zM322.34 391.81v14.86c0 1.09 0 2.33.1 3.17h-2l-.1-2.13a4.56 4.56 0 0 1-4.19 2.41c-3 0-5.26-2.51-5.26-6.25 0-4.08 2.51-6.6 5.51-6.6a4.12 4.12 0 0 1 3.71 1.88h.05v-7.34zm-2.23 10.74a4.29 4.29 0 0 0-.1-.94 3.29 3.29 0 0 0-3.23-2.59c-2.31 0-3.68 2-3.68 4.75 0 2.49 1.22 4.55 3.63 4.55a3.36 3.36 0 0 0 3.28-2.67 4.16 4.16 0 0 0 .1-1zM336.33 406.49c0 1.27 0 2.39.1 3.35h-2l-.12-2h-.05a4.64 4.64 0 0 1-4.07 2.29c-1.93 0-4.24-1.07-4.24-5.38v-7.19h2.24v6.81c0 2.33.71 3.91 2.74 3.91a3.22 3.22 0 0 0 2.94-2 3.17 3.17 0 0 0 .21-1.14v-7.54h2.23zM339.73 407.56a5.88 5.88 0 0 0 2.95.88c1.62 0 2.39-.81 2.39-1.82s-.64-1.65-2.29-2.26c-2.21-.79-3.25-2-3.25-3.48 0-2 1.6-3.61 4.24-3.61a6.19 6.19 0 0 1 3 .76l-.56 1.63a4.72 4.72 0 0 0-2.51-.71c-1.32 0-2.06.76-2.06 1.67s.74 1.48 2.34 2.09c2.13.81 3.22 1.87 3.22 3.7 0 2.16-1.67 3.68-4.59 3.68a7.13 7.13 0 0 1-3.46-.83zM352.78 394v3.53H356v1.7h-3.2v6.63c0 1.52.43 2.39 1.68 2.39a4.73 4.73 0 0 0 1.29-.16l.11 1.68a5.5 5.5 0 0 1-2 .3 3.1 3.1 0 0 1-2.41-.94 4.56 4.56 0 0 1-.86-3.19v-6.71h-1.9v-1.7h1.9v-2.94zM358.49 401.39c0-1.45 0-2.7-.1-3.84h2l.07 2.41h.11a3.67 3.67 0 0 1 3.4-2.69 2.41 2.41 0 0 1 .63.08v2.11a2.86 2.86 0 0 0-.76-.08 3.13 3.13 0 0 0-3 2.87 5.35 5.35 0 0 0-.11 1v6.55h-2.21zM369.39 394.1a1.39 1.39 0 0 1-2.77 0 1.36 1.36 0 0 1 1.4-1.4 1.33 1.33 0 0 1 1.37 1.4zm-2.49 15.74v-12.29h2.23v12.29zM379.64 409.84l-.17-1.55h-.08a4.58 4.58 0 0 1-3.76 1.83 3.5 3.5 0 0 1-3.76-3.53c0-3 2.64-4.6 7.39-4.57v-.25a2.54 2.54 0 0 0-2.79-2.85 6.11 6.11 0 0 0-3.2.92l-.51-1.48a7.65 7.65 0 0 1 4-1.09c3.76 0 4.67 2.57 4.67 5v4.59a17.62 17.62 0 0 0 .2 2.95zm-.33-6.27c-2.43-.05-5.2.38-5.2 2.77a2 2 0 0 0 2.11 2.13 3.06 3.06 0 0 0 3-2.06 2.52 2.52 0 0 0 .12-.71zM385.08 391.81h2.23v18h-2.23zM398.73 392.73v17.11h-2.2v-17.11zM402.77 400.88c0-1.27 0-2.31-.1-3.33h2l.13 2h.05a4.51 4.51 0 0 1 4.06-2.31c1.7 0 4.34 1 4.34 5.23v7.34H411v-7.08c0-2-.74-3.63-2.85-3.63a3.17 3.17 0 0 0-3 2.28 3.25 3.25 0 0 0-.16 1v7.39h-2.23zM419.45 394v3.53h3.2v1.7h-3.2v6.63c0 1.52.43 2.39 1.68 2.39a4.73 4.73 0 0 0 1.29-.16l.1 1.68a5.4 5.4 0 0 1-2 .3 3.09 3.09 0 0 1-2.41-.94 4.56 4.56 0 0 1-.86-3.19v-6.71h-1.91v-1.7h1.91v-2.94zM426.25 404.1c.06 3 2 4.27 4.22 4.27a8 8 0 0 0 3.4-.64l.38 1.6a9.85 9.85 0 0 1-4.09.76c-3.78 0-6-2.48-6-6.19s2.19-6.63 5.77-6.63c4 0 5.07 3.53 5.07 5.79a10 10 0 0 1-.07 1zm6.56-1.6c0-1.42-.59-3.63-3.1-3.63-2.26 0-3.25 2.08-3.43 3.63zM437.73 401.39c0-1.45 0-2.7-.1-3.84h1.95l.08 2.41h.1a3.69 3.69 0 0 1 3.4-2.69 2.43 2.43 0 0 1 .64.08v2.11a2.91 2.91 0 0 0-.76-.08 3.13 3.13 0 0 0-3 2.87 6.33 6.33 0 0 0-.1 1v6.55h-2.21zM446.13 400.88c0-1.27 0-2.31-.1-3.33h2l.13 2h.05a4.51 4.51 0 0 1 4.06-2.31c1.7 0 4.34 1 4.34 5.23v7.34h-2.23v-7.08c0-2-.74-3.63-2.84-3.63a3.17 3.17 0 0 0-3 2.28 3.26 3.26 0 0 0-.15 1v7.39h-2.24zM461.47 404.1c0 3 2 4.27 4.21 4.27a8 8 0 0 0 3.41-.64l.38 1.6a9.93 9.93 0 0 1-4.09.76c-3.78 0-6-2.48-6-6.19s2.18-6.63 5.76-6.63c4 0 5.08 3.53 5.08 5.79a7.43 7.43 0 0 1-.08 1zm6.55-1.6c0-1.42-.58-3.63-3.1-3.63-2.26 0-3.25 2.08-3.43 3.63zM475.64 394v3.53h3.19v1.7h-3.19v6.63c0 1.52.43 2.39 1.67 2.39a4.76 4.76 0 0 0 1.3-.16l.1 1.68a5.44 5.44 0 0 1-2 .3 3.09 3.09 0 0 1-2.41-.94 4.51 4.51 0 0 1-.87-3.19v-6.71h-1.9v-1.7h1.9v-2.94zM497.85 403.59c0 4.55-3.15 6.53-6.12 6.53-3.32 0-5.89-2.44-5.89-6.32 0-4.12 2.69-6.53 6.09-6.53s5.92 2.57 5.92 6.32zm-9.75.13c0 2.69 1.55 4.72 3.73 4.72s3.74-2 3.74-4.77c0-2.08-1.05-4.72-3.69-4.72s-3.78 2.44-3.78 4.77zM500.9 409.84v-10.59h-1.73v-1.7h1.73V397a5.79 5.79 0 0 1 1.42-4.29 4.24 4.24 0 0 1 3-1.15 5.14 5.14 0 0 1 1.91.36l-.31 1.73a3.2 3.2 0 0 0-1.42-.28c-1.9 0-2.38 1.67-2.38 3.55v.66h3v1.7h-3v10.59zM515.75 394.61h-5.21v-1.88h12.67v1.88H518v15.23h-2.23zM524.86 391.81h2.24v7.67a4.1 4.1 0 0 1 1.6-1.57 4.59 4.59 0 0 1 2.28-.64c1.65 0 4.29 1 4.29 5.26v7.31h-2.23v-7.06c0-2-.74-3.65-2.85-3.65a3.21 3.21 0 0 0-3 2.23 2.64 2.64 0 0 0-.15 1.07v7.41h-2.24zM541.44 394.1a1.31 1.31 0 0 1-1.42 1.37 1.33 1.33 0 0 1-1.35-1.37 1.37 1.37 0 0 1 1.4-1.4 1.33 1.33 0 0 1 1.37 1.4zM539 409.84v-12.29h2.24v12.29zM544.89 400.88c0-1.27 0-2.31-.1-3.33h2l.13 2h.08a4.51 4.51 0 0 1 4.06-2.31c1.7 0 4.34 1 4.34 5.23v7.34h-2.23v-7.08c0-2-.74-3.63-2.84-3.63a3.17 3.17 0 0 0-3 2.28 3.26 3.26 0 0 0-.15 1v7.39h-2.24zM569.57 397.55c-.05.89-.1 1.88-.1 3.38v7.13c0 2.82-.56 4.55-1.75 5.61a6.5 6.5 0 0 1-4.47 1.48 8 8 0 0 1-4.09-1l.56-1.7a6.9 6.9 0 0 0 3.61 1c2.28 0 4-1.19 4-4.29v-1.37a4.38 4.38 0 0 1-3.91 2.06c-3.05 0-5.23-2.59-5.23-6 0-4.17 2.71-6.53 5.53-6.53a4.12 4.12 0 0 1 3.84 2.13l.1-1.85zm-2.31 4.85a3.18 3.18 0 0 0-.12-1A3.23 3.23 0 0 0 564 399c-2.13 0-3.65 1.81-3.65 4.65 0 2.41 1.22 4.42 3.63 4.42a3.26 3.26 0 0 0 3.09-2.29 3.78 3.78 0 0 0 .18-1.19zM572.87 407.56a5.88 5.88 0 0 0 3 .88c1.62 0 2.38-.81 2.38-1.82s-.63-1.65-2.28-2.26c-2.21-.79-3.25-2-3.25-3.48 0-2 1.6-3.61 4.24-3.61a6.22 6.22 0 0 1 3 .76l-.56 1.63a4.72 4.72 0 0 0-2.51-.71c-1.32 0-2.06.76-2.06 1.67s.74 1.48 2.34 2.09c2.13.81 3.22 1.87 3.22 3.7 0 2.16-1.67 3.68-4.59 3.68a7.13 7.13 0 0 1-3.46-.83zM593.46 392.22a16.77 16.77 0 0 0-3.2 10.38 17.14 17.14 0 0 0 3.2 10.31h-1.75a16.38 16.38 0 0 1-3.33-10.31 16.77 16.77 0 0 1 3.33-10.38zM598.11 392.73v17.11h-2.21v-17.11zM604.17 392.73v17.11H602v-17.11zM619.08 403.59c0 4.55-3.15 6.53-6.12 6.53-3.33 0-5.89-2.44-5.89-6.32 0-4.12 2.69-6.53 6.09-6.53s5.92 2.57 5.92 6.32zm-9.75.13c0 2.69 1.55 4.72 3.73 4.72s3.73-2 3.73-4.77c0-2.08-1-4.72-3.68-4.72s-3.78 2.44-3.78 4.77zM624.21 394.61H619v-1.88h12.67v1.88h-5.23v15.23h-2.23zM633.68 412.91a17.18 17.18 0 0 0 3.2-10.38 16.87 16.87 0 0 0-3.2-10.31h1.72a16.13 16.13 0 0 1 3.33 10.33 16.45 16.45 0 0 1-3.33 10.36zM35.53 602.2a36.11 36.11 0 0 1 6.36-.47c3 0 5.28.64 6.73 1.86a6.44 6.44 0 0 1 2.24 5 6.88 6.88 0 0 1-2 5.17c-1.65 1.66-4.26 2.44-7.21 2.44a12.06 12.06 0 0 1-2-.13v8.59h-4.12zm4.12 10.63a8.2 8.2 0 0 0 2 .17c3.12 0 5-1.52 5-4.2 0-2.53-1.76-3.89-4.63-3.89a10.9 10.9 0 0 0-2.41.21zM56.38 617.64c.1 3 2.43 4.26 5.07 4.26a12.47 12.47 0 0 0 4.57-.74l.61 2.87a15.39 15.39 0 0 1-5.75 1c-5.35 0-8.5-3.28-8.5-8.33 0-4.56 2.78-8.86 8.06-8.86s7.1 4.4 7.1 8a10.09 10.09 0 0 1-.13 1.76zm7.24-2.91c0-1.53-.64-4-3.42-4-2.57 0-3.65 2.34-3.82 4zM70.9 613.54c0-2.23 0-3.82-.14-5.31h3.62l.14 3.15h.14a4.91 4.91 0 0 1 4.5-3.52 4.28 4.28 0 0 1 1 .1v3.92a6.41 6.41 0 0 0-1.22-.13 3.67 3.67 0 0 0-3.72 3.15 6.86 6.86 0 0 0-.14 1.28v8.53H70.9zM84.37 624.71v-13.37h-2.23v-3.11h2.23v-.71a7.71 7.71 0 0 1 2-5.62 6.29 6.29 0 0 1 4.3-1.59 8 8 0 0 1 2.67.41l-.34 3.21a4.75 4.75 0 0 0-1.75-.3c-2.07 0-2.78 1.72-2.78 3.75v.85h3.62v3.11h-3.56v13.37zM110 616.32c0 6.06-4.26 8.76-8.46 8.76-4.67 0-8.26-3.21-8.26-8.49s3.56-8.73 8.53-8.73 8.19 3.45 8.19 8.46zm-12.42.17c0 3.18 1.56 5.58 4.1 5.58 2.37 0 4-2.33 4-5.65 0-2.57-1.16-5.52-4-5.52s-4.11 2.85-4.11 5.59zM113.41 613.54c0-2.23 0-3.82-.13-5.31h3.62l.14 3.15h.13a4.91 4.91 0 0 1 4.5-3.52 4.16 4.16 0 0 1 1 .1v3.92a6.3 6.3 0 0 0-1.21-.13 3.68 3.68 0 0 0-3.73 3.15 7.9 7.9 0 0 0-.13 1.28v8.53h-4.17zM125.47 613.14c0-1.9 0-3.49-.14-4.91h3.59l.17 2.44h.1a5.69 5.69 0 0 1 5.08-2.81 4.75 4.75 0 0 1 4.56 3h.07a6.25 6.25 0 0 1 2-2.06 5.56 5.56 0 0 1 3.32-1c2.74 0 5.52 1.86 5.52 7.14v9.71h-4.04v-9.1c0-2.74-.94-4.37-2.94-4.37a3.18 3.18 0 0 0-2.91 2.2 6 6 0 0 0-.2 1.39v9.88h-4.06v-9.54c0-2.3-.92-3.93-2.85-3.93a3.27 3.27 0 0 0-3 2.37 3.55 3.55 0 0 0-.23 1.35v9.75h-4.06zM163.45 624.71l-.28-1.83h-.1a6.1 6.1 0 0 1-4.87 2.2 4.89 4.89 0 0 1-5.18-4.9c0-4.17 3.69-6.27 9.78-6.23v-.27c0-1.08-.44-2.88-3.35-2.88A8.72 8.72 0 0 0 155 612l-.81-2.71a11.89 11.89 0 0 1 5.95-1.45c5.28 0 6.8 3.35 6.8 6.93v6a26.23 26.23 0 0 0 .24 4zm-.55-8.05c-2.94-.07-5.75.57-5.75 3.08a2.19 2.19 0 0 0 2.37 2.37 3.38 3.38 0 0 0 3.25-2.27 3.09 3.09 0 0 0 .13-.92zM171.37 613.14c0-1.9 0-3.49-.14-4.91h3.66l.2 2.47h.1a5.94 5.94 0 0 1 5.25-2.84c2.88 0 5.85 1.86 5.85 7.07v9.78h-4.16v-9.31c0-2.36-.88-4.16-3.15-4.16a3.51 3.51 0 0 0-3.25 2.44 4.39 4.39 0 0 0-.16 1.35v9.68h-4.2zM202.85 624.2a12 12 0 0 1-4.67.85c-5.15 0-8.5-3.28-8.5-8.39 0-4.94 3.39-8.8 9.17-8.8a10.38 10.38 0 0 1 4 .78l-.74 3.11a7.28 7.28 0 0 0-3.15-.64c-3.18 0-5.08 2.33-5 5.34 0 3.39 2.2 5.32 5 5.32a8.1 8.1 0 0 0 3.28-.65zM208.57 617.64c.1 3 2.44 4.26 5.08 4.26a12.41 12.41 0 0 0 4.56-.74l.61 2.87a15.39 15.39 0 0 1-5.75 1c-5.35 0-8.49-3.28-8.49-8.33 0-4.56 2.77-8.86 8-8.86s7.11 4.4 7.11 8a9.88 9.88 0 0 1-.14 1.76zm7.24-2.91c0-1.53-.64-4-3.42-4-2.57 0-3.65 2.34-3.82 4zM291.39 491.93a25.46 25.46 0 0 1 4.24-.33 7 7 0 0 1 4.8 1.42 4.6 4.6 0 0 1 1.5 3.58 5.06 5.06 0 0 1-1.32 3.66 7.11 7.11 0 0 1-5.23 1.88 7.45 7.45 0 0 1-1.78-.16v6.86h-2.21zm2.21 8.25a7.24 7.24 0 0 0 1.83.18c2.67 0 4.29-1.3 4.29-3.66s-1.6-3.35-4-3.35a9.33 9.33 0 0 0-2.08.18zM304.42 500.39c0-1.45 0-2.7-.1-3.84h1.95l.08 2.41h.1a3.68 3.68 0 0 1 3.4-2.69 2.49 2.49 0 0 1 .64.08v2.11a2.94 2.94 0 0 0-.77-.08 3.13 3.13 0 0 0-3 2.87 6.33 6.33 0 0 0-.1 1v6.55h-2.21zM313.71 503.1c.05 3 2 4.27 4.21 4.27a8 8 0 0 0 3.41-.64l.38 1.6a9.89 9.89 0 0 1-4.09.76c-3.78 0-6-2.48-6-6.19s2.18-6.63 5.76-6.63c4 0 5.08 3.53 5.08 5.79a7.43 7.43 0 0 1-.08 1zm6.55-1.6c0-1.42-.58-3.63-3.1-3.63-2.26 0-3.25 2.08-3.42 3.63zM335.8 490.81v14.86c0 1.09 0 2.33.1 3.17h-2l-.1-2.13h-.05a4.54 4.54 0 0 1-4.19 2.41c-3 0-5.25-2.51-5.25-6.25 0-4.08 2.51-6.6 5.51-6.6a4.1 4.1 0 0 1 3.7 1.88h.05v-7.34zm-2.24 10.74a3.76 3.76 0 0 0-.1-.94 3.29 3.29 0 0 0-3.22-2.59c-2.31 0-3.68 2-3.68 4.75 0 2.49 1.22 4.55 3.63 4.55a3.35 3.35 0 0 0 3.27-2.67 3.68 3.68 0 0 0 .1-1zM342 493.1a1.38 1.38 0 0 1-2.76 0 1.36 1.36 0 0 1 1.39-1.4 1.33 1.33 0 0 1 1.37 1.4zm-2.49 15.74v-12.29h2.24v12.29zM354.2 508.38a8.09 8.09 0 0 1-3.52.71c-3.71 0-6.12-2.51-6.12-6.27a6.24 6.24 0 0 1 6.6-6.52 7.57 7.57 0 0 1 3.1.63l-.51 1.73a5.13 5.13 0 0 0-2.59-.59c-2.82 0-4.34 2.09-4.34 4.65 0 2.84 1.82 4.6 4.26 4.6a6.31 6.31 0 0 0 2.74-.61zM359.84 493v3.53H363v1.7h-3.2v6.63c0 1.52.43 2.39 1.68 2.39a4.73 4.73 0 0 0 1.29-.16l.1 1.68a5.4 5.4 0 0 1-2 .3 3.09 3.09 0 0 1-2.41-.94 4.56 4.56 0 0 1-.86-3.19v-6.71h-1.91v-1.7h1.91v-2.94zM368 493.1a1.31 1.31 0 0 1-1.42 1.37 1.33 1.33 0 0 1-1.35-1.37 1.37 1.37 0 0 1 1.4-1.4 1.33 1.33 0 0 1 1.37 1.4zm-2.49 15.74v-12.29h2.24v12.29zM372.36 496.55l2.41 6.91c.4 1.11.73 2.13 1 3.15h.07c.28-1 .64-2 1.05-3.15l2.38-6.91h2.34l-4.83 12.29h-2.13L370 496.55zM384.7 503.1c.05 3 2 4.27 4.21 4.27a8 8 0 0 0 3.4-.64l.38 1.6a9.83 9.83 0 0 1-4.08.76c-3.79 0-6.05-2.48-6.05-6.19s2.19-6.63 5.77-6.63c4 0 5.07 3.53 5.07 5.79a10 10 0 0 1-.07 1zm6.55-1.6c0-1.42-.59-3.63-3.1-3.63-2.26 0-3.25 2.08-3.43 3.63zM401.55 499.88c0-1.27 0-2.31-.1-3.33h2l.1 2h.07a4.24 4.24 0 0 1 3.86-2.26 3.63 3.63 0 0 1 3.48 2.46h.04a5.16 5.16 0 0 1 1.37-1.59 4.2 4.2 0 0 1 2.72-.87c1.63 0 4 1.07 4 5.33v7.24h-2.19v-7c0-2.36-.86-3.78-2.66-3.78a2.89 2.89 0 0 0-2.64 2 3.75 3.75 0 0 0-.18 1.12v7.59h-2.18v-7.36c0-2-.87-3.38-2.57-3.38a3.06 3.06 0 0 0-2.77 2.23 3.29 3.29 0 0 0-.17 1.1v7.41h-2.19zM429.53 508.84l-.18-1.55h-.07a4.58 4.58 0 0 1-3.76 1.83 3.5 3.5 0 0 1-3.76-3.53c0-3 2.64-4.6 7.39-4.57v-.25a2.54 2.54 0 0 0-2.79-2.85 6.09 6.09 0 0 0-3.2.92l-.51-1.48a7.65 7.65 0 0 1 4-1.09c3.76 0 4.67 2.57 4.67 5v4.59a17.62 17.62 0 0 0 .2 2.95zm-.33-6.27c-2.44-.05-5.2.38-5.2 2.77a2 2 0 0 0 2.1 2.13 3.05 3.05 0 0 0 3-2.06 2.22 2.22 0 0 0 .13-.71zM437.45 493.1a1.31 1.31 0 0 1-1.42 1.37 1.33 1.33 0 0 1-1.35-1.37 1.37 1.37 0 0 1 1.4-1.4 1.33 1.33 0 0 1 1.37 1.4zM435 508.84v-12.29h2.24v12.29zM440.9 499.88c0-1.27 0-2.31-.1-3.33h2l.13 2a4.51 4.51 0 0 1 4.06-2.31c1.7 0 4.35 1 4.35 5.23v7.34h-2.24v-7.08c0-2-.74-3.63-2.84-3.63a3.17 3.17 0 0 0-3 2.28 3.26 3.26 0 0 0-.15 1v7.39h-2.21zM457.58 493v3.53h3.2v1.7h-3.2v6.63c0 1.52.44 2.39 1.68 2.39a4.82 4.82 0 0 0 1.3-.16l.1 1.68a5.44 5.44 0 0 1-2 .3 3.12 3.12 0 0 1-2.42-.94 4.56 4.56 0 0 1-.86-3.19v-6.71h-1.9v-1.7h1.9v-2.94zM464.39 503.1c.05 3 2 4.27 4.21 4.27a8 8 0 0 0 3.41-.64l.38 1.6a9.93 9.93 0 0 1-4.09.76c-3.78 0-6-2.48-6-6.19s2.18-6.63 5.76-6.63c4 0 5.08 3.53 5.08 5.79a7.43 7.43 0 0 1-.08 1zm6.55-1.6c0-1.42-.58-3.63-3.1-3.63-2.26 0-3.25 2.08-3.43 3.63zM475.86 499.88c0-1.27 0-2.31-.1-3.33h2l.13 2h.05a4.51 4.51 0 0 1 4.06-2.31c1.7 0 4.35 1 4.35 5.23v7.34h-2.24v-7.08c0-2-.74-3.63-2.84-3.63a3.17 3.17 0 0 0-3 2.28 3.26 3.26 0 0 0-.15 1v7.39h-2.24zM496.76 508.84l-.18-1.55h-.07a4.58 4.58 0 0 1-3.76 1.83 3.5 3.5 0 0 1-3.76-3.53c0-3 2.64-4.6 7.39-4.57v-.25a2.54 2.54 0 0 0-2.79-2.85 6.09 6.09 0 0 0-3.2.92l-.51-1.48a7.62 7.62 0 0 1 4-1.09c3.75 0 4.67 2.57 4.67 5v4.59a17.62 17.62 0 0 0 .2 2.95zm-.33-6.27c-2.44-.05-5.21.38-5.21 2.77a2 2 0 0 0 2.11 2.13 3.05 3.05 0 0 0 3-2.06 2.22 2.22 0 0 0 .13-.71zM502.19 499.88c0-1.27 0-2.31-.1-3.33h2l.13 2h.05a4.51 4.51 0 0 1 4.06-2.31c1.7 0 4.34 1 4.34 5.23v7.34h-2.23v-7.08c0-2-.74-3.63-2.84-3.63a3.17 3.17 0 0 0-3 2.28 3.26 3.26 0 0 0-.15 1v7.39h-2.24zM525 508.38a8.14 8.14 0 0 1-3.53.71c-3.7 0-6.12-2.51-6.12-6.27a6.24 6.24 0 0 1 6.65-6.52 7.52 7.52 0 0 1 3.09.63l-.5 1.73a5.16 5.16 0 0 0-2.59-.59c-2.82 0-4.35 2.09-4.35 4.65 0 2.84 1.83 4.6 4.27 4.6a6.31 6.31 0 0 0 2.74-.61zM528.75 503.1c0 3 2 4.27 4.21 4.27a8 8 0 0 0 3.41-.64l.38 1.6a9.93 9.93 0 0 1-4.09.76c-3.78 0-6-2.48-6-6.19s2.18-6.63 5.76-6.63c4 0 5.08 3.53 5.08 5.79a7.43 7.43 0 0 1-.08 1zm6.55-1.6c0-1.42-.58-3.63-3.1-3.63-2.26 0-3.25 2.08-3.43 3.63zM294.16 547.46l-1.78 5.38h-2.28l5.81-17.11h2.67l5.84 17.11h-2.36l-1.83-5.38zm5.61-1.73l-1.67-4.92c-.38-1.12-.64-2.14-.89-3.13-.26 1-.54 2.06-.87 3.1l-1.67 5zM316.83 549.49c0 1.27 0 2.39.11 3.35h-2l-.12-2h-.05a4.64 4.64 0 0 1-4.07 2.29c-1.93 0-4.24-1.07-4.24-5.38v-7.19h2.24v6.81c0 2.33.71 3.91 2.74 3.91a3.25 3.25 0 0 0 2.95-2 3.4 3.4 0 0 0 .2-1.14v-7.54h2.23zM323.23 537v3.53h3.2v1.7h-3.2v6.63c0 1.52.43 2.39 1.68 2.39a4.73 4.73 0 0 0 1.29-.16l.1 1.68a5.4 5.4 0 0 1-2 .3 3.09 3.09 0 0 1-2.41-.94 4.56 4.56 0 0 1-.86-3.19v-6.71h-1.91v-1.7h1.91v-2.94zM339.91 546.59c0 4.55-3.15 6.53-6.12 6.53-3.32 0-5.89-2.44-5.89-6.32 0-4.12 2.69-6.53 6.1-6.53s5.91 2.57 5.91 6.32zm-9.75.13c0 2.69 1.55 4.72 3.73 4.72s3.74-2 3.74-4.77c0-2.08-1-4.72-3.68-4.72s-3.79 2.44-3.79 4.77zM342.73 543.88c0-1.27 0-2.31-.1-3.33h1.95l.1 2h.08a4.24 4.24 0 0 1 3.86-2.26 3.63 3.63 0 0 1 3.48 2.46 5 5 0 0 1 1.37-1.59 4.2 4.2 0 0 1 2.72-.87c1.62 0 4 1.07 4 5.33v7.24h-2.18v-7c0-2.36-.86-3.78-2.67-3.78a2.9 2.9 0 0 0-2.64 2 3.77 3.77 0 0 0-.17 1.12v7.59h-2.19v-7.36c0-2-.86-3.38-2.56-3.38a3.33 3.33 0 0 0-2.95 3.33v7.41h-2.18zM370.71 552.84l-.18-1.55h-.08a4.54 4.54 0 0 1-3.75 1.83 3.5 3.5 0 0 1-3.76-3.53c0-3 2.64-4.6 7.39-4.57v-.25a2.54 2.54 0 0 0-2.8-2.85 6.14 6.14 0 0 0-3.2.92l-.5-1.48a7.61 7.61 0 0 1 4-1.09c3.76 0 4.68 2.57 4.68 5v4.59a17.62 17.62 0 0 0 .2 3zm-.33-6.27c-2.44-.05-5.21.38-5.21 2.77a2 2 0 0 0 2.11 2.13 3.05 3.05 0 0 0 3-2.06 2.22 2.22 0 0 0 .13-.71zM378.73 537v3.53h3.2v1.7h-3.2v6.63c0 1.52.43 2.39 1.68 2.39a4.73 4.73 0 0 0 1.29-.16l.1 1.68a5.4 5.4 0 0 1-2 .3 3.09 3.09 0 0 1-2.41-.94 4.56 4.56 0 0 1-.86-3.19v-6.71h-1.91v-1.7h1.91v-2.94zM385.53 547.1c.05 3 2 4.27 4.22 4.27a8 8 0 0 0 3.4-.64l.38 1.6a9.89 9.89 0 0 1-4.09.76c-3.78 0-6-2.48-6-6.19s2.18-6.63 5.76-6.63c4 0 5.08 3.53 5.08 5.79a10 10 0 0 1-.07 1zm6.55-1.6c0-1.42-.58-3.63-3.09-3.63-2.26 0-3.25 2.08-3.43 3.63zM407.62 534.81v14.86c0 1.09 0 2.33.11 3.17h-2l-.1-2.13h-.05a4.56 4.56 0 0 1-4.19 2.41c-3 0-5.26-2.51-5.26-6.25 0-4.08 2.52-6.6 5.51-6.6a4.12 4.12 0 0 1 3.71 1.88h.05v-7.34zm-2.23 10.74a4.29 4.29 0 0 0-.1-.94 3.29 3.29 0 0 0-3.23-2.59c-2.31 0-3.68 2-3.68 4.75 0 2.49 1.22 4.55 3.63 4.55a3.36 3.36 0 0 0 3.28-2.67 4.16 4.16 0 0 0 .1-1zM416.71 544.56c0-1.57 0-2.84-.1-4h2l.1 2.11a4.83 4.83 0 0 1 4.37-2.39c3 0 5.2 2.52 5.2 6.25 0 4.42-2.69 6.6-5.59 6.6a4.31 4.31 0 0 1-3.78-1.93h-.05v6.68h-2.21zm2.21 3.28a5.07 5.07 0 0 0 .1.91 3.45 3.45 0 0 0 3.35 2.62c2.37 0 3.74-1.93 3.74-4.75 0-2.46-1.3-4.57-3.66-4.57a3.57 3.57 0 0 0-3.38 2.77 3.93 3.93 0 0 0-.15.91zM431.16 544.39c0-1.45 0-2.7-.1-3.84H433l.08 2.41h.1a3.68 3.68 0 0 1 3.4-2.69 2.55 2.55 0 0 1 .64.08v2.11a2.94 2.94 0 0 0-.77-.08 3.13 3.13 0 0 0-3 2.87 6.33 6.33 0 0 0-.1 1v6.55h-2.21zM450.33 546.59c0 4.55-3.15 6.53-6.12 6.53-3.33 0-5.89-2.44-5.89-6.32 0-4.12 2.69-6.53 6.09-6.53s5.92 2.57 5.92 6.32zm-9.75.13c0 2.69 1.54 4.72 3.73 4.72s3.73-2 3.73-4.77c0-2.08-1-4.72-3.68-4.72s-3.78 2.44-3.78 4.77zM461.9 552.38a8.14 8.14 0 0 1-3.53.71c-3.7 0-6.12-2.51-6.12-6.27a6.24 6.24 0 0 1 6.61-6.52 7.52 7.52 0 0 1 3.09.63l-.5 1.73a5.13 5.13 0 0 0-2.59-.59c-2.82 0-4.35 2.09-4.35 4.65 0 2.84 1.83 4.6 4.27 4.6a6.31 6.31 0 0 0 2.74-.61zM465.61 547.1c.05 3 2 4.27 4.21 4.27a8 8 0 0 0 3.41-.64l.38 1.6a9.93 9.93 0 0 1-4.09.76c-3.78 0-6-2.48-6-6.19s2.18-6.63 5.76-6.63c4 0 5.08 3.53 5.08 5.79a7.43 7.43 0 0 1-.08 1zm6.55-1.6c0-1.42-.58-3.63-3.1-3.63-2.26 0-3.25 2.08-3.43 3.63zM476.78 550.56a5.88 5.88 0 0 0 3 .88c1.62 0 2.38-.81 2.38-1.82s-.63-1.65-2.28-2.26c-2.21-.79-3.25-2-3.25-3.48 0-2 1.6-3.61 4.24-3.61a6.22 6.22 0 0 1 3 .76l-.56 1.63a4.72 4.72 0 0 0-2.51-.71c-1.32 0-2.06.76-2.06 1.67s.74 1.48 2.34 2.09c2.13.81 3.22 1.87 3.22 3.7 0 2.16-1.68 3.68-4.6 3.68a7.09 7.09 0 0 1-3.45-.83zM486.83 550.56a5.88 5.88 0 0 0 2.95.88c1.62 0 2.39-.81 2.39-1.82s-.64-1.65-2.29-2.26c-2.21-.79-3.25-2-3.25-3.48 0-2 1.6-3.61 4.24-3.61a6.16 6.16 0 0 1 3 .76l-.56 1.63a4.72 4.72 0 0 0-2.51-.71c-1.32 0-2.06.76-2.06 1.67s.74 1.48 2.34 2.09c2.13.81 3.22 1.87 3.22 3.7 0 2.16-1.67 3.68-4.59 3.68a7.06 7.06 0 0 1-3.45-.83zM511.33 552.38a8.14 8.14 0 0 1-3.53.71c-3.7 0-6.11-2.51-6.11-6.27a6.24 6.24 0 0 1 6.6-6.52 7.48 7.48 0 0 1 3.09.63l-.5 1.73a5.13 5.13 0 0 0-2.59-.59c-2.82 0-4.34 2.09-4.34 4.65 0 2.84 1.82 4.6 4.26 4.6a6.31 6.31 0 0 0 2.74-.61zM524.92 546.59c0 4.55-3.15 6.53-6.12 6.53-3.33 0-5.89-2.44-5.89-6.32 0-4.12 2.69-6.53 6.09-6.53s5.92 2.57 5.92 6.32zm-9.75.13c0 2.69 1.55 4.72 3.73 4.72s3.73-2 3.73-4.77c0-2.08-1-4.72-3.68-4.72s-3.78 2.44-3.78 4.77zM527.73 543.88c0-1.27 0-2.31-.1-3.33h2l.13 2a4.51 4.51 0 0 1 4.06-2.31c1.7 0 4.35 1 4.35 5.23v7.34H536v-7.08c0-2-.74-3.63-2.84-3.63a3.17 3.17 0 0 0-3 2.28 3.26 3.26 0 0 0-.15 1v7.39h-2.24zM544.41 537v3.53h3.2v1.7h-3.2v6.63c0 1.52.44 2.39 1.68 2.39a4.82 4.82 0 0 0 1.3-.16l.1 1.68a5.44 5.44 0 0 1-2 .3 3.12 3.12 0 0 1-2.42-.94 4.56 4.56 0 0 1-.86-3.19v-6.71h-1.9v-1.7h1.9v-2.94zM550.13 544.39c0-1.45 0-2.7-.1-3.84h2l.08 2.41h.1a3.68 3.68 0 0 1 3.4-2.69 2.55 2.55 0 0 1 .64.08v2.11a2.94 2.94 0 0 0-.77-.08 3.13 3.13 0 0 0-3 2.87 6.33 6.33 0 0 0-.1 1v6.55h-2.21zM569.3 546.59c0 4.55-3.15 6.53-6.12 6.53-3.33 0-5.89-2.44-5.89-6.32 0-4.12 2.69-6.53 6.09-6.53s5.92 2.57 5.92 6.32zm-9.75.13c0 2.69 1.54 4.72 3.73 4.72s3.73-2 3.73-4.77c0-2.08-1-4.72-3.68-4.72s-3.78 2.44-3.78 4.77zM572.11 534.81h2.24v18h-2.24zM303.35 596.28a10.91 10.91 0 0 1-4.52.81c-4.82 0-8.45-3-8.45-8.65 0-5.36 3.63-9 8.94-9a9.12 9.12 0 0 1 4.06.76l-.54 1.8a8.1 8.1 0 0 0-3.45-.71c-4 0-6.68 2.57-6.68 7.06 0 4.19 2.42 6.88 6.58 6.88a8.88 8.88 0 0 0 3.61-.71zM316.88 590.59c0 4.55-3.14 6.53-6.12 6.53-3.32 0-5.89-2.44-5.89-6.32 0-4.12 2.7-6.53 6.1-6.53s5.91 2.57 5.91 6.32zm-9.75.13c0 2.69 1.55 4.72 3.74 4.72s3.73-2 3.73-4.77c0-2.08-1-4.72-3.68-4.72s-3.79 2.44-3.79 4.77zM319.7 587.88c0-1.27 0-2.31-.1-3.33h2l.13 2h.05a4.51 4.51 0 0 1 4.06-2.31c1.7 0 4.34 1 4.34 5.23v7.34h-2.23v-7.08c0-2-.74-3.63-2.85-3.63a3.17 3.17 0 0 0-3 2.28 3.26 3.26 0 0 0-.15 1v7.39h-2.25zM336.38 581v3.53h3.2v1.7h-3.2v6.63c0 1.52.43 2.39 1.68 2.39a4.73 4.73 0 0 0 1.29-.16l.1 1.68a5.4 5.4 0 0 1-2 .3 3.09 3.09 0 0 1-2.41-.94 4.56 4.56 0 0 1-.86-3.19v-6.71h-1.91v-1.7h1.91v-2.94zM344.58 581.1a1.31 1.31 0 0 1-1.42 1.37 1.33 1.33 0 0 1-1.35-1.37 1.37 1.37 0 0 1 1.4-1.4 1.33 1.33 0 0 1 1.37 1.4zm-2.49 15.74v-12.29h2.24v12.29zM348 587.88c0-1.27 0-2.31-.1-3.33h2l.13 2a4.51 4.51 0 0 1 4.06-2.31c1.7 0 4.34 1 4.34 5.23v7.34h-2.23v-7.08c0-2-.74-3.63-2.84-3.63a3.17 3.17 0 0 0-3 2.28 3.26 3.26 0 0 0-.15 1v7.39H348zM372.41 593.49c0 1.27 0 2.39.1 3.35h-2l-.13-2a4.62 4.62 0 0 1-4.06 2.29c-1.93 0-4.24-1.07-4.24-5.38v-7.19h2.23v6.81c0 2.33.71 3.91 2.75 3.91a3.24 3.24 0 0 0 2.94-2 3.17 3.17 0 0 0 .2-1.14v-7.54h2.24zM387.24 590.59c0 4.55-3.15 6.53-6.12 6.53-3.33 0-5.89-2.44-5.89-6.32 0-4.12 2.69-6.53 6.09-6.53s5.92 2.57 5.92 6.32zm-9.75.13c0 2.69 1.54 4.72 3.73 4.72s3.73-2 3.73-4.77c0-2.08-1-4.72-3.68-4.72s-3.78 2.44-3.78 4.77zM400.34 593.49c0 1.27 0 2.39.1 3.35h-2l-.13-2h-.05a4.62 4.62 0 0 1-4.06 2.29c-1.93 0-4.24-1.07-4.24-5.38v-7.19h2.23v6.81c0 2.33.71 3.91 2.74 3.91a3.25 3.25 0 0 0 2.95-2 3.17 3.17 0 0 0 .2-1.14v-7.54h2.24zM403.74 594.56a5.87 5.87 0 0 0 2.94.88c1.63 0 2.39-.81 2.39-1.82s-.64-1.65-2.29-2.26c-2.2-.79-3.25-2-3.25-3.48 0-2 1.6-3.61 4.24-3.61a6.23 6.23 0 0 1 3 .76l-.56 1.63a4.76 4.76 0 0 0-2.52-.71c-1.32 0-2.05.76-2.05 1.67s.73 1.48 2.33 2.09c2.14.81 3.23 1.87 3.23 3.7 0 2.16-1.68 3.68-4.6 3.68a7.09 7.09 0 0 1-3.45-.83zM422 581.1a1.39 1.39 0 0 1-2.77 0 1.36 1.36 0 0 1 1.39-1.4 1.33 1.33 0 0 1 1.38 1.4zm-2.49 15.74v-12.29h2.23v12.29zM425.42 587.88c0-1.27 0-2.31-.1-3.33h1.95l.1 2h.08a4.23 4.23 0 0 1 3.86-2.26 3.65 3.65 0 0 1 3.48 2.46 5 5 0 0 1 1.37-1.59 4.2 4.2 0 0 1 2.72-.87c1.62 0 4 1.07 4 5.33v7.24h-2.18v-7c0-2.36-.86-3.78-2.67-3.78a2.89 2.89 0 0 0-2.64 2 3.75 3.75 0 0 0-.18 1.12v7.59h-2.18v-7.36c0-2-.86-3.38-2.56-3.38a3.33 3.33 0 0 0-2.95 3.33v7.41h-2.18zM446.59 588.56c0-1.57 0-2.84-.1-4h2l.1 2.11a4.83 4.83 0 0 1 4.37-2.39c3 0 5.2 2.52 5.2 6.25 0 4.42-2.69 6.6-5.59 6.6a4.31 4.31 0 0 1-3.78-1.93h-.05v6.68h-2.21zm2.21 3.28a5.07 5.07 0 0 0 .1.91 3.45 3.45 0 0 0 3.35 2.62c2.37 0 3.74-1.93 3.74-4.75 0-2.46-1.3-4.57-3.66-4.57a3.57 3.57 0 0 0-3.38 2.77 3.93 3.93 0 0 0-.15.91zM461 588.39c0-1.45 0-2.7-.1-3.84h1.95L463 587h.1a3.68 3.68 0 0 1 3.4-2.69 2.55 2.55 0 0 1 .64.08v2.11a2.94 2.94 0 0 0-.77-.08 3.13 3.13 0 0 0-3 2.87 6.33 6.33 0 0 0-.1 1v6.55H461zM480.21 590.59c0 4.55-3.15 6.53-6.12 6.53-3.33 0-5.89-2.44-5.89-6.32 0-4.12 2.69-6.53 6.09-6.53s5.92 2.57 5.92 6.32zm-9.75.13c0 2.69 1.55 4.72 3.73 4.72s3.73-2 3.73-4.77c0-2.08-1-4.72-3.68-4.72s-3.78 2.44-3.78 4.77zM483.71 584.55l2.41 6.91a28.92 28.92 0 0 1 1 3.15h.08c.28-1 .63-2 1-3.15l2.39-6.91H493l-4.82 12.29H486l-4.67-12.29zM496.05 591.1c.05 3 2 4.27 4.21 4.27a8 8 0 0 0 3.41-.64l.38 1.6a9.93 9.93 0 0 1-4.09.76c-3.78 0-6-2.48-6-6.19s2.18-6.63 5.76-6.63c4 0 5.08 3.53 5.08 5.79a7.43 7.43 0 0 1-.08 1zm6.55-1.6c0-1.42-.58-3.63-3.1-3.63-2.26 0-3.25 2.08-3.43 3.63zM507.52 587.88c0-1.27 0-2.31-.1-3.33h2l.1 2h.08a4.21 4.21 0 0 1 3.85-2.26 3.63 3.63 0 0 1 3.48 2.46h.05a5.18 5.18 0 0 1 1.38-1.59 4.15 4.15 0 0 1 2.71-.87c1.63 0 4 1.07 4 5.33v7.24h-2.18v-7c0-2.36-.87-3.78-2.67-3.78a2.89 2.89 0 0 0-2.64 2 3.75 3.75 0 0 0-.18 1.12v7.59h-2.18v-7.36c0-2-.87-3.38-2.57-3.38a3.33 3.33 0 0 0-2.94 3.33v7.41h-2.19zM529.94 591.1c0 3 2 4.27 4.22 4.27a8 8 0 0 0 3.4-.64l.38 1.6a9.89 9.89 0 0 1-4.09.76c-3.78 0-6-2.48-6-6.19s2.18-6.63 5.76-6.63c4 0 5.08 3.53 5.08 5.79a10 10 0 0 1-.07 1zm6.55-1.6c0-1.42-.58-3.63-3.09-3.63-2.26 0-3.25 2.08-3.43 3.63zM541.42 587.88c0-1.27 0-2.31-.1-3.33h2l.12 2h.05a4.53 4.53 0 0 1 4.07-2.31c1.7 0 4.34 1 4.34 5.23v7.34h-2.24v-7.08c0-2-.73-3.63-2.84-3.63a3.19 3.19 0 0 0-3 2.28 3.26 3.26 0 0 0-.15 1v7.39h-2.23zM558.1 581v3.53h3.2v1.7h-3.2v6.63c0 1.52.43 2.39 1.67 2.39a4.76 4.76 0 0 0 1.3-.16l.1 1.68a5.44 5.44 0 0 1-2 .3 3.09 3.09 0 0 1-2.41-.94 4.51 4.51 0 0 1-.87-3.19v-6.71H554v-1.7h1.9v-2.94zM306 632.11c0 5.89-3.58 9-7.95 9s-7.69-3.5-7.69-8.68c0-5.44 3.37-9 7.95-9S306 627 306 632.11zm-13.28.28c0 3.65 2 6.93 5.46 6.93s5.48-3.23 5.48-7.11c0-3.4-1.77-7-5.46-7s-5.46 3.42-5.46 7.18zM310 628.55l2.41 6.91a28.92 28.92 0 0 1 1 3.15h.08c.28-1 .63-2 1-3.15l2.38-6.91h2.34l-4.82 12.29h-2.14l-4.67-12.29zM322.37 635.1c.05 3 2 4.27 4.21 4.27a8 8 0 0 0 3.4-.64l.39 1.6a9.93 9.93 0 0 1-4.09.76c-3.79 0-6-2.48-6-6.19s2.19-6.63 5.77-6.63c4 0 5.08 3.53 5.08 5.79a7.43 7.43 0 0 1-.08 1zm6.55-1.6c0-1.42-.59-3.63-3.1-3.63-2.26 0-3.25 2.08-3.43 3.63zM333.84 632.39c0-1.45 0-2.7-.1-3.84h2l.07 2.41h.1a3.69 3.69 0 0 1 3.41-2.69 2.41 2.41 0 0 1 .63.08v2.11a2.91 2.91 0 0 0-.76-.08 3.14 3.14 0 0 0-3 2.87 6.33 6.33 0 0 0-.1 1v6.55h-2.21zM348.82 640.84l-.18-1.55h-.07a4.58 4.58 0 0 1-3.76 1.83 3.5 3.5 0 0 1-3.76-3.53c0-3 2.64-4.6 7.39-4.57v-.25a2.54 2.54 0 0 0-2.79-2.85 6.11 6.11 0 0 0-3.2.92l-.51-1.48a7.65 7.65 0 0 1 4-1.09c3.76 0 4.67 2.57 4.67 5v4.59a17.62 17.62 0 0 0 .2 3zm-.33-6.27c-2.44-.05-5.2.38-5.2 2.77a2 2 0 0 0 2.1 2.13 3.08 3.08 0 0 0 3-2.06 2.52 2.52 0 0 0 .12-.71zM354.25 622.81h2.24v18h-2.24zM360.25 622.81h2.23v18h-2.23zM380.56 632.82h-6.66V639h7.42v1.85h-9.62v-17.12h9.24v1.85h-7V631h6.66zM392.39 638.94h-.05a4.39 4.39 0 0 1-4 2.18c-2.87 0-5.21-2.49-5.21-6.22 0-4.6 3-6.63 5.56-6.63a4 4 0 0 1 3.78 2.13h.05l.08-1.85h2.11c-.05 1-.08 2.11-.08 3.38v13.94h-2.23zm0-5.41a4.11 4.11 0 0 0-.1-.94 3.27 3.27 0 0 0-3.2-2.54c-2.31 0-3.71 2-3.71 4.72 0 2.44 1.17 4.57 3.63 4.57a3.33 3.33 0 0 0 3.2-2.44 3.74 3.74 0 0 0 .18-1.06zM408.58 637.49c0 1.27 0 2.39.11 3.35h-2l-.13-2h-.05a4.64 4.64 0 0 1-4.06 2.29c-1.93 0-4.24-1.07-4.24-5.38v-7.19h2.23v6.81c0 2.33.71 3.91 2.74 3.91a3.25 3.25 0 0 0 2.95-2 3.4 3.4 0 0 0 .2-1.14v-7.54h2.23zM414.78 625.1a1.39 1.39 0 0 1-2.77 0 1.37 1.37 0 0 1 1.4-1.4 1.33 1.33 0 0 1 1.37 1.4zm-2.49 15.74v-12.29h2.24v12.29zM418.23 632.56c0-1.57-.05-2.84-.1-4h2l.1 2.11h.05a4.83 4.83 0 0 1 4.37-2.39c3 0 5.2 2.52 5.2 6.25 0 4.42-2.69 6.6-5.59 6.6a4.31 4.31 0 0 1-3.78-1.93h-.05v6.68h-2.21zm2.21 3.28a5.07 5.07 0 0 0 .1.91 3.45 3.45 0 0 0 3.35 2.62c2.36 0 3.74-1.93 3.74-4.75 0-2.46-1.3-4.57-3.66-4.57a3.57 3.57 0 0 0-3.38 2.77 3.93 3.93 0 0 0-.15.91zM432.68 631.88c0-1.27 0-2.31-.1-3.33h1.95l.1 2h.08a4.23 4.23 0 0 1 3.86-2.26 3.65 3.65 0 0 1 3.48 2.46h.05a5 5 0 0 1 1.37-1.59 4.17 4.17 0 0 1 2.71-.87c1.63 0 4 1.07 4 5.33v7.24H448v-7c0-2.36-.87-3.78-2.67-3.78a2.89 2.89 0 0 0-2.64 2 3.75 3.75 0 0 0-.18 1.12v7.59h-2.18v-7.36c0-2-.86-3.38-2.56-3.38a3.33 3.33 0 0 0-2.95 3.33v7.41h-2.18zM455.09 635.1c.06 3 2 4.27 4.22 4.27a8 8 0 0 0 3.4-.64l.38 1.6a9.85 9.85 0 0 1-4.09.76c-3.78 0-6-2.48-6-6.19s2.19-6.63 5.77-6.63c4 0 5.07 3.53 5.07 5.79a10 10 0 0 1-.07 1zm6.56-1.6c0-1.42-.59-3.63-3.1-3.63-2.26 0-3.25 2.08-3.43 3.63zM466.57 631.88c0-1.27 0-2.31-.1-3.33h2l.13 2h.05a4.51 4.51 0 0 1 4.06-2.31c1.7 0 4.34 1 4.34 5.23v7.34h-2.25v-7.08c0-2-.74-3.63-2.85-3.63a3.17 3.17 0 0 0-3 2.28 3.25 3.25 0 0 0-.16 1v7.39h-2.23zM483.25 625v3.53h3.2v1.7h-3.2v6.63c0 1.52.43 2.39 1.68 2.39a4.73 4.73 0 0 0 1.29-.16l.1 1.68a5.4 5.4 0 0 1-2 .3 3.09 3.09 0 0 1-2.41-.94 4.56 4.56 0 0 1-.86-3.19v-6.71h-1.91v-1.7h1.91v-2.94zM503.28 632.82h-6.65V639H504v1.85h-9.62v-17.12h9.24v1.85h-7V631h6.65zM514.43 640.84v-10.59h-5.16v10.59h-2.21v-10.59h-1.72v-1.7h1.72v-.41a5.76 5.76 0 0 1 1.38-4.18 4.15 4.15 0 0 1 3.09-1.15 4 4 0 0 1 1.75.43l-.45 1.65a3.3 3.3 0 0 0-1.32-.3c-1.75 0-2.24 1.5-2.24 3.43v.53h5.16V628a5.8 5.8 0 0 1 1.44-4.29 4.25 4.25 0 0 1 3-1.15 5 5 0 0 1 1.9.36l-.28 1.73a3.34 3.34 0 0 0-1.45-.28c-1.88 0-2.38 1.67-2.38 3.55v.66h3v1.7h-3v10.59zM522.55 635.1c.05 3 2 4.27 4.22 4.27a8 8 0 0 0 3.4-.64l.38 1.6a9.89 9.89 0 0 1-4.09.76c-3.78 0-6-2.48-6-6.19s2.18-6.63 5.76-6.63c4 0 5.08 3.53 5.08 5.79a10 10 0 0 1-.07 1zm6.55-1.6c0-1.42-.58-3.63-3.09-3.63-2.26 0-3.25 2.08-3.43 3.63zM542.79 640.38a8.18 8.18 0 0 1-3.53.71c-3.71 0-6.12-2.51-6.12-6.27a6.24 6.24 0 0 1 6.6-6.52 7.57 7.57 0 0 1 3.1.63l-.51 1.73a5.1 5.1 0 0 0-2.59-.59c-2.82 0-4.34 2.09-4.34 4.65 0 2.84 1.83 4.6 4.26 4.6a6.39 6.39 0 0 0 2.75-.61zM548.42 625v3.53h3.2v1.7h-3.2v6.63c0 1.52.43 2.39 1.68 2.39a4.73 4.73 0 0 0 1.29-.16l.1 1.68a5.4 5.4 0 0 1-2 .3 3.1 3.1 0 0 1-2.41-.94 4.56 4.56 0 0 1-.86-3.19v-6.71h-1.91v-1.7h1.91v-2.94zM556.62 625.1a1.38 1.38 0 0 1-2.76 0 1.36 1.36 0 0 1 1.39-1.4 1.33 1.33 0 0 1 1.37 1.4zm-2.49 15.74v-12.29h2.24v12.29zM560.94 628.55l2.41 6.91a28.92 28.92 0 0 1 1 3.15h.08c.28-1 .63-2 1-3.15l2.38-6.91h2.34l-4.82 12.29h-2.14l-4.67-12.29zM573.28 635.1c.05 3 2 4.27 4.21 4.27a8 8 0 0 0 3.41-.64l.38 1.6a9.93 9.93 0 0 1-4.09.76c-3.78 0-6-2.48-6-6.19s2.18-6.63 5.76-6.63c4 0 5.08 3.53 5.08 5.79a7.43 7.43 0 0 1-.08 1zm6.55-1.6c0-1.42-.59-3.63-3.1-3.63-2.26 0-3.25 2.08-3.43 3.63zM584.75 631.88c0-1.27 0-2.31-.1-3.33h2l.13 2a4.51 4.51 0 0 1 4.06-2.31c1.7 0 4.34 1 4.34 5.23v7.34H593v-7.08c0-2-.74-3.63-2.84-3.63a3.17 3.17 0 0 0-3 2.28 3.26 3.26 0 0 0-.15 1v7.39h-2.24zM600.09 635.1c0 3 2 4.27 4.21 4.27a8 8 0 0 0 3.41-.64l.38 1.6a9.93 9.93 0 0 1-4.09.76c-3.78 0-6-2.48-6-6.19s2.18-6.63 5.76-6.63c4 0 5.08 3.53 5.08 5.79a7.43 7.43 0 0 1-.08 1zm6.55-1.6c0-1.42-.58-3.63-3.1-3.63-2.26 0-3.25 2.08-3.43 3.63zM611.26 638.56a5.87 5.87 0 0 0 2.94.88c1.63 0 2.39-.81 2.39-1.82s-.63-1.65-2.28-2.26c-2.21-.79-3.25-2-3.25-3.48 0-2 1.6-3.61 4.24-3.61a6.22 6.22 0 0 1 3 .76l-.56 1.63a4.72 4.72 0 0 0-2.51-.71c-1.32 0-2.06.76-2.06 1.67s.74 1.48 2.34 2.09c2.13.81 3.22 1.87 3.22 3.7 0 2.16-1.68 3.68-4.6 3.68a7.09 7.09 0 0 1-3.45-.83zM621.31 638.56a5.88 5.88 0 0 0 3 .88c1.62 0 2.39-.81 2.39-1.82s-.64-1.65-2.29-2.26c-2.21-.79-3.25-2-3.25-3.48 0-2 1.6-3.61 4.24-3.61a6.19 6.19 0 0 1 3 .76l-.56 1.63a4.72 4.72 0 0 0-2.51-.71c-1.32 0-2.06.76-2.06 1.67s.74 1.48 2.34 2.09c2.13.81 3.22 1.87 3.22 3.7 0 2.16-1.67 3.68-4.59 3.68a7.13 7.13 0 0 1-3.46-.83zM641.9 623.22a16.77 16.77 0 0 0-3.2 10.38 17.14 17.14 0 0 0 3.2 10.31h-1.75a16.38 16.38 0 0 1-3.32-10.31 16.71 16.71 0 0 1 3.32-10.38zM658.66 632.11c0 5.89-3.58 9-7.95 9s-7.69-3.5-7.69-8.68c0-5.44 3.38-9 8-9s7.64 3.57 7.64 8.68zm-13.28.28c0 3.65 2 6.93 5.46 6.93s5.48-3.23 5.48-7.11c0-3.4-1.77-7-5.45-7s-5.49 3.42-5.49 7.18zM670.39 632.82h-6.65V639h7.41v1.85h-9.62v-17.12h9.24v1.85h-7V631h6.65zM682.88 632.82h-6.65V639h7.41v1.85H674v-17.12h9.24v1.85h-7V631h6.65zM685.09 643.91a17.18 17.18 0 0 0 3.2-10.38 16.8 16.8 0 0 0-3.2-10.31h1.72a16.13 16.13 0 0 1 3.33 10.33 16.45 16.45 0 0 1-3.33 10.36zM158.14 108.93v12.77a3.15 3.15 0 0 1-1.86 3.24 28.58 28.58 0 0 1-6 2 55.4 55.4 0 0 1-23-.45 18.19 18.19 0 0 1-4-1.58 3.44 3.44 0 0 1-1.87-3.37V95.91a3.45 3.45 0 0 1 2.28-3.42 31.83 31.83 0 0 1 6.35-1.93 55.77 55.77 0 0 1 21.88.46 20.75 20.75 0 0 1 4.51 1.78 3.17 3.17 0 0 1 1.73 3.2c-.06 4.28-.02 8.61-.02 12.93zm-2.77 7.73a55.82 55.82 0 0 1-31.12 0v4.81a1.27 1.27 0 0 0 .87 1.39 26.76 26.76 0 0 0 3.2 1.08 53.49 53.49 0 0 0 20.6.47 39.06 39.06 0 0 0 5.54-1.56 1.49 1.49 0 0 0 .89-1c.08-1.75.02-3.47.02-5.19zm-31.12-9.22v4.94a1.26 1.26 0 0 0 .87 1.39 30.69 30.69 0 0 0 3.59 1.17 54.21 54.21 0 0 0 19.3.53 44 44 0 0 0 6.33-1.65c.4-.12 1-.6 1-.95.1-1.79.05-3.6.05-5.44-9.39 3.11-20.66 3.11-31.14.01zm0-8.47v4.7a1.37 1.37 0 0 0 .72.93 19.28 19.28 0 0 0 3.27 1.16 53.79 53.79 0 0 0 20.58.49 40.34 40.34 0 0 0 5.54-1.54c.39-.13.92-.63.94-1 .1-1.61 0-3.22 0-4.76a55.37 55.37 0 0 1-31.05.05zm31.1-3.16v-.57a28.1 28.1 0 0 0-3-1.2 48.64 48.64 0 0 0-14.81-1.44 38.33 38.33 0 0 0-10.9 1.64 22.85 22.85 0 0 0-2.38 1.07v.46a28.62 28.62 0 0 0 3.29 1.23 53.1 53.1 0 0 0 23.4.25 41.7 41.7 0 0 0 4.4-1.44zM81.72 62.47V49.41a3.46 3.46 0 0 1 1.82-3.11 16 16 0 0 1 6-2 56.91 56.91 0 0 1 23.14.48 17.25 17.25 0 0 1 3.78 1.48 3.56 3.56 0 0 1 2 3.49q-.08 12.66 0 25.34a3.57 3.57 0 0 1-2.3 3.7 34.66 34.66 0 0 1-6.55 2A55.78 55.78 0 0 1 88 80.21a20.51 20.51 0 0 1-4.44-1.72 3.32 3.32 0 0 1-1.86-3.35c.06-4.22 0-8.44 0-12.67zM84.5 61v5a1.63 1.63 0 0 0 .72 1.22 17.15 17.15 0 0 0 3.46 1.22 54 54 0 0 0 19.8.55 41.37 41.37 0 0 0 6-1.6c.42-.13 1-.65 1-1 .11-1.77 0-3.55 0-5.4-5.12 1.91-10.33 2.31-15.59 2.31A43.5 43.5 0 0 1 84.5 61zm0 9.26v5.09a1.31 1.31 0 0 0 .66 1 17.08 17.08 0 0 0 3.16 1.15 54 54 0 0 0 21.07.49 36.39 36.39 0 0 0 5.16-1.46c.4-.13 1-.6 1-.94.1-1.8 0-3.6 0-5.29a56.19 56.19 0 0 1-31.05-.08zm0-17.7V55c0 3.22 0 3.23 3.12 4.09h.1a53.29 53.29 0 0 0 21.67.64 36.45 36.45 0 0 0 5.34-1.54 1.43 1.43 0 0 0 .86-.93c.09-1.61 0-3.23 0-4.76a55.5 55.5 0 0 1-31.09.02zm0-3.8v.6a32.08 32.08 0 0 0 3.09 1.17 49.66 49.66 0 0 0 14.82 1.39 37.17 37.17 0 0 0 11.17-1.78 14.86 14.86 0 0 0 2-1v-.33a11.31 11.31 0 0 0-2-.92 63.9 63.9 0 0 0-7.21-1.45 51.85 51.85 0 0 0-17.82.89 41.29 41.29 0 0 0-4.03 1.39zM95.43 116.8V96.33h-4.76l6.17-10.69L103 96.26h-4.69v17.68c.29 0 .57.06.86.06 1.6 0 3.2-.07 4.79 0a2.54 2.54 0 0 0 2.92-1.53 5.25 5.25 0 0 1 6.36-2.38 5.59 5.59 0 0 1-.6 10.81 5.46 5.46 0 0 1-6.14-3.18 1.36 1.36 0 0 0-1.55-1c-3.12.1-6.24.08-9.52.08zm18.94-1.32a2.87 2.87 0 0 0-2.72-2.88 2.84 2.84 0 1 0 2.72 2.88zM141.28 74.32V56.6c-.31 0-.6-.07-.88-.07h-4.39c-1.46 0-2.6 0-3.42 1.72-1.08 2.27-4 3.05-6.43 2.22a5.66 5.66 0 0 1-3.72-5.76 5.56 5.56 0 0 1 4.65-5 5.45 5.45 0 0 1 6 3.23 1.23 1.23 0 0 0 1.37.92h9.64v20.4h4.79L142.73 85l-6.15-10.64zm-10.46-19.17a2.81 2.81 0 1 0-2.74 2.85 2.85 2.85 0 0 0 2.74-2.85zM126 340.05h4.81l-6.56 11-6.57-11.05h5.21v-1.11-16.12c0-.73-.13-1.08-.94-1.26-2.06-.45-3.27-1.3-5.37-3.48-.22.12-.47.24-.7.39q-8.26 5.15-16.53 10.29a1 1 0 0 0-.56 1.17 5.7 5.7 0 0 1-3.55 6.49 6.11 6.11 0 0 1-7.24-2.11 5.68 5.68 0 0 1 .56-7.16 6 6 0 0 1 7.54-1 1.59 1.59 0 0 0 2 0c5.38-3.4 10.79-6.75 16.2-10.12l.9-.57a9.67 9.67 0 0 1 .52-6.86.91.91 0 0 0-.24-.76c-2.69-2.43-5.41-4.82-8.09-7.26-.43-.38-.71-.15-1.07 0A6 6 0 0 1 98 297a5.68 5.68 0 0 1 2.26-6.34 6.13 6.13 0 0 1 7.18.18 5.61 5.61 0 0 1 1.9 6.46 1.11 1.11 0 0 0 .35 1.49c2.69 2.33 5.33 4.72 7.8 6.93a42.05 42.05 0 0 1 4.6-2 9.08 9.08 0 0 1 5.79.33 1.13 1.13 0 0 0 1-.15q7-8.55 14-17.14a.67.67 0 0 0 .09-.19 5.67 5.67 0 0 1-.14-6.72 6 6 0 0 1 7.81-1.88 5.69 5.69 0 0 1 2.74 7.1 5.92 5.92 0 0 1-7.19 3.55 1.17 1.17 0 0 0-1.46.48c-4.42 5.47-8.87 10.91-13.3 16.36-.14.17-.26.34-.43.56a9.34 9.34 0 0 1 2.83 7.8l6.94 1.3c4.54.84 9.08 1.67 13.61 2.53a1.4 1.4 0 0 0 1.71-.61 6 6 0 0 1 6.88-2 5.77 5.77 0 0 1 3.86 5.72 5.83 5.83 0 0 1-4.44 5.3 5.93 5.93 0 0 1-7.4-4.65c-.1-.55-.26-.83-.89-.95-6.84-1.24-13.68-2.54-20.52-3.78a1 1 0 0 0-.85.4 9.79 9.79 0 0 1-6.34 4.61.9.9 0 0 0-.56.64v17.52c.02.01.05.03.17.2zm-1.65-21a6.52 6.52 0 0 0 6.65-6.45 6.64 6.64 0 0 0-13.27 0 6.49 6.49 0 0 0 6.63 6.4zm20.37-36a3 3 0 0 0 3.08 3 3.11 3.11 0 0 0 3.08-3 3 3 0 0 0-3.1-3 3 3 0 0 0-3.05 2.95zm-44 12.34a3.07 3.07 0 0 0 3.07 3 3.12 3.12 0 0 0 3.1-3 3.09 3.09 0 0 0-6.17 0zM96 331a3 3 0 0 0-3-3 3.11 3.11 0 0 0-3.08 3 3.05 3.05 0 0 0 3.1 3 3 3 0 0 0 2.98-3zm61.81-10.6a3 3 0 0 0 3 3 3.08 3.08 0 0 0 3.11-3 3 3 0 0 0-3.07-3 2.91 2.91 0 0 0-3.02 3.02zM162.85 539.78c-.25 1.6-.46 3.2-.75 4.79a41.39 41.39 0 0 1-77.38 11.29 39.8 39.8 0 0 1-4.55-16A5.42 5.42 0 0 0 80 539v-4.51c.18-1.35.33-2.71.54-4a41.37 41.37 0 0 1 36.64-34.87l3.4-.34h1.69a4.18 4.18 0 0 0 .61.15c2.29.27 4.62.38 6.88.81 16.12 3.08 29.51 16.66 32.34 32.76.28 1.59.5 3.19.75 4.79zm-2.85-3a38.53 38.53 0 1 0-38.55 38.54A38.68 38.68 0 0 0 160 536.74z"/><path class="cls-4" d="M147.88 518.19c-1.18 4.38-2.3 8.56-3.46 12.89l-3.52-3.62-20.81 18.19-5.74-6-4.49 4.06c-1 .93-2 1.87-3.06 2.77a1.15 1.15 0 0 0-.41 1.42 5.79 5.79 0 1 1-9.28-2.83 5.83 5.83 0 0 1 6.42-.7c.25.13.48.28.79.46l10.18-9.24 5.77 6 18.46-16.13-3.89-3.81zm-47.07 34.23a3 3 0 0 0 3-2.87 3.05 3.05 0 0 0-2.92-3 3 3 0 0 0-3 2.91 2.9 2.9 0 0 0 2.92 2.96z"/></svg>