<svg id="Layer_1" data-name="Layer 1" xmlns="http://www.w3.org/2000/svg" viewBox="0 0 601.9 541.71">
  <defs>
    <style>
      .cls-1{fill:#fbc2ba}.cls-3{fill:#4c0519}.cls-4{fill:none;stroke:#4c0519;stroke-miterlimit:10;stroke-width:3px}
    </style>
  </defs>
  <path class="cls-1" d="M0 0h602.75v176.97H0z"/>
  <path fill="#fcddd6" d="M0 183.63h602.75V360.6H0z"/>
  <path class="cls-1" d="M0 367.27h602.75v176.97H0z"/>
  <path class="cls-3" d="M56.14 145a14.37 14.37 0 0 1-5.89 1c-7.24 0-11.64-4.54-11.64-11.47 0-7.52 5.21-12.05 12.18-12.05a13.11 13.11 0 0 1 5.55 1l-.91 3.32A11.13 11.13 0 0 0 51 126c-4.64 0-8 2.91-8 8.39 0 5 3 8.23 8 8.23a11.58 11.58 0 0 0 4.53-.85zM74.66 137.32c0 6.06-4.27 8.76-8.47 8.76-4.67 0-8.25-3.21-8.25-8.49s3.55-8.73 8.53-8.73 8.19 3.45 8.19 8.46zm-12.43.17c0 3.18 1.56 5.58 4.1 5.58 2.37 0 4-2.33 4-5.65 0-2.57-1.15-5.52-4-5.52s-4.1 2.85-4.1 5.59zM78.08 134.14c0-1.9 0-3.49-.14-4.91h3.66l.2 2.47h.1a5.94 5.94 0 0 1 5.25-2.84c2.87 0 5.85 1.86 5.85 7.07v9.78h-4.16v-9.31c0-2.36-.88-4.16-3.15-4.16a3.5 3.5 0 0 0-3.25 2.44 4.38 4.38 0 0 0-.17 1.35v9.68h-4.19zM97.24 141.89a9.32 9.32 0 0 0 4.23 1.18c1.83 0 2.64-.74 2.64-1.83s-.68-1.69-2.71-2.4c-3.22-1.12-4.57-2.88-4.54-4.8 0-2.92 2.41-5.18 6.23-5.18a9.67 9.67 0 0 1 4.37 1l-.81 2.94a7.55 7.55 0 0 0-3.49-.94c-1.49 0-2.3.71-2.3 1.72s.78 1.56 2.87 2.3c3 1.09 4.37 2.61 4.41 5 0 3-2.34 5.14-6.71 5.14a10.55 10.55 0 0 1-5-1.15zM126.31 140.77c0 2 .07 3.59.14 4.94h-3.66l-.2-2.5h-.07a6 6 0 0 1-5.28 2.87c-3 0-5.75-1.79-5.75-7.17v-9.68h4.16v9c0 2.74.88 4.5 3.08 4.5a3.51 3.51 0 0 0 3.18-2.23 3.75 3.75 0 0 0 .24-1.29v-10h4.16zM130.82 121.68H135v24h-4.19zM144.29 124.52v4.71h4v3.11h-4v7.28c0 2 .54 3 2.13 3a6.27 6.27 0 0 0 1.63-.21l.06 3.18a9 9 0 0 1-3 .41 4.86 4.86 0 0 1-3.59-1.35c-.88-.95-1.28-2.44-1.28-4.61v-7.75h-2.37v-3.11h2.37v-3.72zM155.83 124.63a2.34 2.34 0 0 1-4.67 0 2.34 2.34 0 0 1 4.67 0zm-4.43 21.08v-16.48h4.2v16.48zM160.06 134.14c0-1.9 0-3.49-.13-4.91h3.65l.21 2.47h.1a5.92 5.92 0 0 1 5.24-2.84c2.88 0 5.86 1.86 5.86 7.07v9.78h-4.16v-9.31c0-2.36-.88-4.16-3.15-4.16a3.5 3.5 0 0 0-3.25 2.44 4.1 4.1 0 0 0-.17 1.35v9.68h-4.2zM194.49 129.23c-.07 1.12-.14 2.47-.14 4.74v9.34c0 3.45-.71 5.92-2.44 7.48a9.47 9.47 0 0 1-6.36 2 11.64 11.64 0 0 1-5.75-1.32l.91-3.14a10 10 0 0 0 4.81 1.25c2.71 0 4.74-1.42 4.74-5v-1.42h-.07a5.56 5.56 0 0 1-4.81 2.44c-4.09 0-7-3.38-7-8.05 0-5.42 3.52-8.7 7.48-8.7a5.2 5.2 0 0 1 4.77 2.57h.07l.17-2.2zm-4.3 6.6a4.14 4.14 0 0 0-.14-1.12 3.45 3.45 0 0 0-3.38-2.67c-2.34 0-4.06 2-4.06 5.38 0 2.81 1.42 5.08 4 5.08A3.56 3.56 0 0 0 190 140a7.23 7.23 0 0 0 .17-1.49zM280.25 44.82h-6.65V51h7.4v1.85h-9.63V35.73h9.25v1.85h-7V43h6.65zM283.88 36a22.9 22.9 0 0 1 4.24-.36c2.37 0 3.89.43 5 1.4a4.27 4.27 0 0 1 1.34 3.25 4.48 4.48 0 0 1-3.22 4.36v.08c1.32.46 2.1 1.68 2.51 3.45a27.87 27.87 0 0 0 1.32 4.7h-2.28a22.32 22.32 0 0 1-1.15-4.09c-.5-2.36-1.42-3.25-3.42-3.32h-2.09v7.41h-2.21zm2.21 7.79h2.26c2.36 0 3.86-1.29 3.86-3.25 0-2.21-1.6-3.17-3.93-3.2a9.3 9.3 0 0 0-2.19.2zM297.54 35.93a25.46 25.46 0 0 1 4.24-.33 7 7 0 0 1 4.8 1.42 4.6 4.6 0 0 1 1.5 3.58 5.06 5.06 0 0 1-1.32 3.66 7.11 7.11 0 0 1-5.23 1.88 7.45 7.45 0 0 1-1.78-.16v6.86h-2.21zm2.21 8.25a7.24 7.24 0 0 0 1.83.18c2.67 0 4.29-1.3 4.29-3.66s-1.6-3.35-4-3.35a9.33 9.33 0 0 0-2.08.18zM326.64 49.49c0 1.27 0 2.39.1 3.35h-2l-.13-2h-.05a4.62 4.62 0 0 1-4.06 2.29c-1.93 0-4.24-1.07-4.24-5.38v-7.2h2.23v6.81c0 2.33.71 3.91 2.75 3.91a3.23 3.23 0 0 0 2.94-2 3.17 3.17 0 0 0 .2-1.14v-7.58h2.24zM330.35 44.56c0-1.57-.06-2.84-.11-4h2l.1 2.11a4.84 4.84 0 0 1 4.37-2.39c3 0 5.2 2.52 5.2 6.25 0 4.42-2.69 6.6-5.58 6.6a4.32 4.32 0 0 1-3.79-1.93h-.05v6.68h-2.2zm2.2 3.28a4.28 4.28 0 0 0 .11.91 3.44 3.44 0 0 0 3.34 2.62c2.36 0 3.73-1.93 3.73-4.75 0-2.46-1.3-4.57-3.66-4.57a3.56 3.56 0 0 0-3.37 2.77 3.47 3.47 0 0 0-.16.91zM355.38 40.55c-.05.89-.1 1.88-.1 3.38v7.13c0 2.82-.56 4.55-1.76 5.61a6.49 6.49 0 0 1-4.46 1.48 7.92 7.92 0 0 1-4.09-1l.56-1.7a6.89 6.89 0 0 0 3.6 1c2.29 0 4-1.19 4-4.29v-1.43a4.36 4.36 0 0 1-3.91 2.06c-3 0-5.23-2.59-5.23-6 0-4.17 2.72-6.53 5.54-6.53a4.09 4.09 0 0 1 3.83 2.13h.05l.1-1.85zm-2.31 4.85a3.17 3.17 0 0 0-.13-1 3.22 3.22 0 0 0-3.12-2.4c-2.14 0-3.66 1.81-3.66 4.65 0 2.41 1.22 4.42 3.63 4.42a3.27 3.27 0 0 0 3.1-2.29 3.78 3.78 0 0 0 .18-1.19zM358.83 44.39c0-1.45 0-2.7-.1-3.84h1.95l.08 2.41h.1a3.69 3.69 0 0 1 3.4-2.69 2.43 2.43 0 0 1 .64.08v2.11a2.91 2.91 0 0 0-.76-.08 3.13 3.13 0 0 0-3 2.87 6.33 6.33 0 0 0-.1 1v6.55h-2.21zM373.81 52.84l-.18-1.55h-.07a4.58 4.58 0 0 1-3.76 1.83 3.5 3.5 0 0 1-3.8-3.53c0-3 2.64-4.6 7.39-4.57v-.25a2.54 2.54 0 0 0-2.79-2.85 6.09 6.09 0 0 0-3.2.92l-.51-1.48a7.62 7.62 0 0 1 4-1.09c3.75 0 4.67 2.57 4.67 5v4.59a17.62 17.62 0 0 0 .2 3zm-.33-6.27c-2.44 0-5.21.38-5.21 2.77a2 2 0 0 0 2.11 2.13 3.05 3.05 0 0 0 3-2.06 2.22 2.22 0 0 0 .13-.71zM389.86 34.81v14.86c0 1.09 0 2.33.1 3.17h-2l-.1-2.13h-.05a4.55 4.55 0 0 1-4.19 2.41c-3 0-5.26-2.51-5.26-6.25 0-4.08 2.52-6.6 5.51-6.6a4.12 4.12 0 0 1 3.71 1.88h.05v-7.34zm-2.24 10.74a3.76 3.76 0 0 0-.1-.94A3.29 3.29 0 0 0 384.3 42c-2.32 0-3.69 2-3.69 4.75 0 2.49 1.22 4.55 3.63 4.55a3.36 3.36 0 0 0 3.28-2.67 3.68 3.68 0 0 0 .1-1zM394.81 47.1c.05 3 2 4.27 4.21 4.27a8 8 0 0 0 3.4-.64l.38 1.6a9.83 9.83 0 0 1-4.08.76c-3.79 0-6.05-2.48-6.05-6.19s2.19-6.63 5.77-6.63c4 0 5.08 3.53 5.08 5.79a9.4 9.4 0 0 1-.08 1zm6.55-1.6c0-1.42-.59-3.63-3.1-3.63-2.26 0-3.25 2.08-3.43 3.63zM271.09 94.15a7.83 7.83 0 0 0 4 1.12c2.26 0 3.58-1.2 3.58-2.92s-.91-2.52-3.23-3.41c-2.79-1-4.51-2.43-4.51-4.85 0-2.66 2.2-4.64 5.53-4.64a7.66 7.66 0 0 1 3.78.84l-.61 1.8a6.72 6.72 0 0 0-3.25-.81c-2.33 0-3.22 1.39-3.22 2.56 0 1.6 1 2.39 3.4 3.3 2.9 1.12 4.37 2.51 4.37 5s-2 4.92-6 4.92a8.84 8.84 0 0 1-4.4-1.06zM294.12 93.49c0 1.27 0 2.39.1 3.35h-2l-.13-2h-.05a4.62 4.62 0 0 1-4.04 2.28c-1.93 0-4.24-1.07-4.24-5.38v-7.19H286v6.81c0 2.33.71 3.91 2.74 3.91a3.25 3.25 0 0 0 2.95-2 3.17 3.17 0 0 0 .2-1.14v-7.58h2.24zM297.82 88.56c0-1.57-.05-2.84-.1-4h2l.1 2.11h.05a4.83 4.83 0 0 1 4.37-2.39c3 0 5.2 2.52 5.2 6.25 0 4.42-2.69 6.6-5.58 6.6a4.32 4.32 0 0 1-3.79-1.93H300v6.68h-2.21zm2.18 3.28a5.07 5.07 0 0 0 .1.91 3.46 3.46 0 0 0 3.35 2.62c2.37 0 3.74-1.93 3.74-4.75 0-2.46-1.3-4.57-3.66-4.57a3.58 3.58 0 0 0-3.38 2.77 3.93 3.93 0 0 0-.15.91zM312.27 88.56c0-1.57 0-2.84-.1-4h2l.1 2.11h.05a4.85 4.85 0 0 1 4.37-2.39c3 0 5.21 2.52 5.21 6.25 0 4.42-2.69 6.6-5.59 6.6a4.3 4.3 0 0 1-3.78-1.93v6.68h-2.21zm2.21 3.28a5.07 5.07 0 0 0 .1.91 3.44 3.44 0 0 0 3.35 2.62c2.36 0 3.73-1.93 3.73-4.75 0-2.46-1.29-4.57-3.65-4.57a3.56 3.56 0 0 0-3.38 2.77 3.47 3.47 0 0 0-.15.91zM326.71 78.81H329v18h-2.24zM333.52 84.55l2.69 7.26c.28.82.58 1.78.79 2.52h.05c.22-.74.48-1.68.78-2.57l2.44-7.21h2.36l-3.35 8.76c-1.6 4.22-2.69 6.37-4.21 7.69a6 6 0 0 1-2.75 1.45l-.55-1.88a6 6 0 0 0 2-1.09A6.72 6.72 0 0 0 335.6 97a1.63 1.63 0 0 0 .18-.53 1.69 1.69 0 0 0-.16-.58l-4.54-11.33zM358.8 96.38a8.11 8.11 0 0 1-3.53.71c-3.7 0-6.11-2.51-6.11-6.27a6.24 6.24 0 0 1 6.6-6.52 7.48 7.48 0 0 1 3.09.63l-.5 1.73a5.13 5.13 0 0 0-2.59-.59c-2.82 0-4.34 2.09-4.34 4.65 0 2.84 1.82 4.6 4.26 4.6a6.31 6.31 0 0 0 2.74-.61zM361.42 78.81h2.23v7.67h.05a4.23 4.23 0 0 1 1.6-1.57 4.62 4.62 0 0 1 2.29-.64c1.65 0 4.29 1 4.29 5.26v7.31h-2.24v-7.06c0-2-.73-3.65-2.84-3.65a3.19 3.19 0 0 0-3 2.23 2.62 2.62 0 0 0-.16 1.07v7.41h-2.23zM382.31 96.84l-.17-1.55h-.08a4.58 4.58 0 0 1-3.76 1.83 3.5 3.5 0 0 1-3.76-3.53c0-3 2.64-4.6 7.39-4.57v-.25a2.54 2.54 0 0 0-2.79-2.85 6.11 6.11 0 0 0-3.2.92l-.51-1.48a7.65 7.65 0 0 1 4-1.09c3.76 0 4.67 2.57 4.67 5v4.59a16.55 16.55 0 0 0 .21 3zm-.31-6.27c-2.43 0-5.2.38-5.2 2.77a2 2 0 0 0 2.11 2.13 3.06 3.06 0 0 0 3-2.06 2.52 2.52 0 0 0 .12-.71zM390.23 81.1a1.31 1.31 0 0 1-1.42 1.37 1.33 1.33 0 0 1-1.34-1.37 1.36 1.36 0 0 1 1.39-1.4 1.33 1.33 0 0 1 1.37 1.4zm-2.48 15.74V84.55H390v12.29zM393.69 87.88c0-1.27 0-2.31-.1-3.33h2l.12 2h.05a4.52 4.52 0 0 1 4.07-2.31c1.7 0 4.34 1 4.34 5.23v7.34h-2.24v-7.05c0-2-.73-3.63-2.84-3.63a3.18 3.18 0 0 0-3 2.28 3.26 3.26 0 0 0-.15 1v7.39h-2.23zM413.16 88.56c0-1.57-.05-2.84-.1-4h2l.11 2.11h.05a4.82 4.82 0 0 1 4.36-2.39c3 0 5.21 2.52 5.21 6.25 0 4.42-2.69 6.6-5.59 6.6a4.31 4.31 0 0 1-3.78-1.93h-.05v6.68h-2.21zm2.21 3.28a5.07 5.07 0 0 0 .1.91 3.45 3.45 0 0 0 3.35 2.62c2.36 0 3.73-1.93 3.73-4.75 0-2.46-1.29-4.57-3.65-4.57a3.56 3.56 0 0 0-3.38 2.77 3.47 3.47 0 0 0-.15.91zM427.6 78.81h2.24v18h-2.24zM440.4 96.84l-.18-1.55h-.07a4.58 4.58 0 0 1-3.76 1.83 3.5 3.5 0 0 1-3.76-3.53c0-3 2.64-4.6 7.39-4.57v-.25a2.54 2.54 0 0 0-2.79-2.85 6.09 6.09 0 0 0-3.2.92l-.51-1.48a7.65 7.65 0 0 1 4-1.09c3.75 0 4.67 2.57 4.67 5v4.59a17.62 17.62 0 0 0 .2 3zm-.33-6.27c-2.44 0-5.2.38-5.2 2.77a2 2 0 0 0 2.1 2.13 3.05 3.05 0 0 0 3-2.06 2.22 2.22 0 0 0 .13-.71zM445.83 87.88c0-1.27 0-2.31-.1-3.33h2l.13 2h.05a4.51 4.51 0 0 1 4.09-2.28c1.7 0 4.34 1 4.34 5.23v7.34h-2.23v-7.08c0-2-.74-3.63-2.84-3.63a3.17 3.17 0 0 0-3 2.28 3.26 3.26 0 0 0-.15 1v7.39h-2.24zM459.92 87.88c0-1.27 0-2.31-.1-3.33h2l.13 2h.05a4.51 4.51 0 0 1 4-2.28c1.7 0 4.35 1 4.35 5.23v7.34h-2.24v-7.08c0-2-.74-3.63-2.84-3.63a3.17 3.17 0 0 0-3 2.28 3.26 3.26 0 0 0-.15 1v7.39h-2.24zM476.5 81.1a1.38 1.38 0 0 1-2.76 0 1.36 1.36 0 0 1 1.39-1.4 1.33 1.33 0 0 1 1.37 1.4zM474 96.84V84.55h2.23v12.29zM480 87.88c0-1.27 0-2.31-.11-3.33h2l.13 2H482a4.51 4.51 0 0 1 4.06-2.31c1.71 0 4.35 1 4.35 5.23v7.34h-2.24v-7.05c0-2-.73-3.63-2.84-3.63a3.18 3.18 0 0 0-3 2.28 3.26 3.26 0 0 0-.15 1v7.39H480zM504.63 84.55c-.05.89-.1 1.88-.1 3.38v7.13c0 2.82-.56 4.55-1.75 5.61a6.5 6.5 0 0 1-4.47 1.48 8 8 0 0 1-4.09-1l.56-1.7a6.93 6.93 0 0 0 3.61 1c2.28 0 4-1.19 4-4.29v-1.43h-.05a4.38 4.38 0 0 1-3.91 2.06c-3.05 0-5.23-2.59-5.23-6 0-4.17 2.71-6.53 5.53-6.53a4.11 4.11 0 0 1 3.84 2.13h.05l.1-1.85zm-2.31 4.85a3.18 3.18 0 0 0-.12-1 3.23 3.23 0 0 0-3.13-2.4c-2.13 0-3.65 1.81-3.65 4.65 0 2.41 1.22 4.42 3.63 4.42a3.28 3.28 0 0 0 3.1-2.29 4.08 4.08 0 0 0 .17-1.19zM273.6 123.73v17.11h-2.21v-17.11zM277.64 131.88c0-1.27 0-2.31-.1-3.33h2l.12 2h.05a4.53 4.53 0 0 1 4.07-2.31c1.7 0 4.34 1 4.34 5.23v7.34h-2.24v-7.08c0-2-.73-3.63-2.84-3.63a3.19 3.19 0 0 0-3 2.28 3.26 3.26 0 0 0-.15 1v7.39h-2.23zM292.26 128.55l2.41 6.91a28.92 28.92 0 0 1 1 3.15h.08c.28-1 .64-2 1-3.15l2.39-6.91h2.33l-4.82 12.29h-2.13l-4.67-12.29zM304.6 135.1c0 3 2 4.27 4.22 4.27a8 8 0 0 0 3.4-.64l.38 1.6a9.89 9.89 0 0 1-4.09.76c-3.78 0-6-2.48-6-6.19s2.18-6.63 5.76-6.63c4 0 5.08 3.53 5.08 5.79a7.43 7.43 0 0 1-.08 1zm6.55-1.6c0-1.42-.58-3.63-3.1-3.63-2.26 0-3.25 2.08-3.42 3.63zM316.08 131.88c0-1.27 0-2.31-.11-3.33h2l.12 2h.05a4.52 4.52 0 0 1 4.07-2.31c1.7 0 4.34 1 4.34 5.23v7.34h-2.25v-7.08c0-2-.73-3.63-2.84-3.63a3.18 3.18 0 0 0-3 2.28 3.26 3.26 0 0 0-.15 1v7.39h-2.23zM332.76 125v3.53H336v1.7h-3.2v6.63c0 1.52.43 2.39 1.67 2.39a4.76 4.76 0 0 0 1.3-.16l.1 1.68a5.44 5.44 0 0 1-2 .3 3.09 3.09 0 0 1-2.41-.94 4.51 4.51 0 0 1-.87-3.19v-6.71h-1.9v-1.7h1.9v-2.94zM349.44 134.59c0 4.55-3.15 6.53-6.12 6.53-3.33 0-5.89-2.44-5.89-6.32 0-4.12 2.69-6.53 6.09-6.53s5.92 2.57 5.92 6.32zm-9.75.13c0 2.69 1.55 4.72 3.73 4.72s3.73-2 3.73-4.77c0-2.08-1-4.72-3.68-4.72s-3.78 2.44-3.78 4.77zM352.26 132.39c0-1.45 0-2.7-.11-3.84h2l.08 2.41h.1a3.68 3.68 0 0 1 3.4-2.69 2.41 2.41 0 0 1 .63.08v2.11a2.81 2.81 0 0 0-.76-.08 3.13 3.13 0 0 0-3 2.87 6.33 6.33 0 0 0-.1 1v6.55h-2.21zM362 128.55l2.7 7.26c.27.82.58 1.78.78 2.52.23-.74.49-1.68.79-2.57l2.44-7.21h2.36l-3.35 8.76c-1.6 4.22-2.69 6.37-4.22 7.69a6 6 0 0 1-2.74 1.45l-.56-1.88a5.92 5.92 0 0 0 2-1.09 6.72 6.72 0 0 0 1.88-2.49 1.56 1.56 0 0 0 .17-.53 1.87 1.87 0 0 0-.15-.58l-4.54-11.33zM389.65 134.59c0 4.55-3.15 6.53-6.12 6.53-3.32 0-5.89-2.44-5.89-6.32 0-4.12 2.69-6.53 6.1-6.53s5.91 2.57 5.91 6.32zm-9.75.13c0 2.69 1.55 4.72 3.74 4.72s3.73-2 3.73-4.77c0-2.08-1-4.72-3.68-4.72s-3.79 2.44-3.79 4.77zM392.47 132.56c0-1.57-.05-2.84-.1-4h2l.11 2.11a4.82 4.82 0 0 1 4.36-2.39c3 0 5.21 2.52 5.21 6.25 0 4.42-2.69 6.6-5.59 6.6a4.31 4.31 0 0 1-3.78-1.93h-.05v6.68h-2.21zm2.21 3.28a5.07 5.07 0 0 0 .1.91 3.45 3.45 0 0 0 3.35 2.62c2.36 0 3.73-1.93 3.73-4.75 0-2.46-1.29-4.57-3.65-4.57a3.56 3.56 0 0 0-3.38 2.77 3.93 3.93 0 0 0-.15.91zM409.61 125v3.53h3.2v1.7h-3.2v6.63c0 1.52.43 2.39 1.67 2.39a4.76 4.76 0 0 0 1.3-.16l.1 1.68a5.44 5.44 0 0 1-2 .3 3.09 3.09 0 0 1-2.41-.94 4.51 4.51 0 0 1-.87-3.19v-6.71h-1.9v-1.7h1.9v-2.94zM417.81 125.1a1.39 1.39 0 0 1-2.77 0 1.36 1.36 0 0 1 1.4-1.4 1.33 1.33 0 0 1 1.37 1.4zm-2.49 15.74v-12.29h2.23v12.29zM421.26 131.88c0-1.27 0-2.31-.1-3.33h1.95l.1 2h.08a4.24 4.24 0 0 1 3.86-2.26 3.63 3.63 0 0 1 3.48 2.46h.05a5 5 0 0 1 1.37-1.59 4.2 4.2 0 0 1 2.72-.87c1.62 0 4 1.07 4 5.33v7.24h-2.18v-7c0-2.36-.86-3.78-2.67-3.78a2.89 2.89 0 0 0-2.64 2 3.77 3.77 0 0 0-.17 1.12v7.59H429v-7.36c0-2-.86-3.38-2.56-3.38a3.33 3.33 0 0 0-2.95 3.33v7.41h-2.18zM444.92 125.1a1.31 1.31 0 0 1-1.42 1.37 1.33 1.33 0 0 1-1.35-1.37 1.37 1.37 0 0 1 1.4-1.4 1.33 1.33 0 0 1 1.37 1.4zm-2.49 15.74v-12.29h2.24v12.29zM447 139.55l5.56-7.24c.53-.66 1-1.25 1.6-1.91v-.05h-6.66v-1.8h9.37v1.4l-5.49 7.13a24.46 24.46 0 0 1-1.57 1.93v.05H457v1.78h-10zM466 140.84l-.17-1.55h-.08a4.58 4.58 0 0 1-3.76 1.83 3.5 3.5 0 0 1-3.76-3.53c0-3 2.65-4.6 7.39-4.57v-.25a2.54 2.54 0 0 0-2.79-2.85 6.11 6.11 0 0 0-3.2.92l-.51-1.48a7.65 7.65 0 0 1 4-1.09c3.76 0 4.67 2.57 4.67 5v4.59a16.55 16.55 0 0 0 .21 3zm-.33-6.27c-2.43 0-5.2.38-5.2 2.77a2 2 0 0 0 2.11 2.13 3.06 3.06 0 0 0 3-2.06 2.52 2.52 0 0 0 .12-.71zM474.07 125v3.53h3.2v1.7h-3.2v6.63c0 1.52.43 2.39 1.67 2.39a4.76 4.76 0 0 0 1.3-.16l.1 1.68a5.44 5.44 0 0 1-2 .3 3.09 3.09 0 0 1-2.41-.94 4.51 4.51 0 0 1-.87-3.19v-6.71H470v-1.7h1.9v-2.94zM482.27 125.1a1.39 1.39 0 0 1-2.77 0 1.36 1.36 0 0 1 1.4-1.4 1.33 1.33 0 0 1 1.37 1.4zm-2.49 15.74v-12.29H482v12.29zM496.84 134.59c0 4.55-3.15 6.53-6.12 6.53-3.33 0-5.89-2.44-5.89-6.32 0-4.12 2.69-6.53 6.09-6.53s5.92 2.57 5.92 6.32zm-9.75.13c0 2.69 1.55 4.72 3.73 4.72s3.74-2 3.74-4.77c0-2.08-1.05-4.72-3.69-4.72s-3.78 2.44-3.78 4.77zM499.66 131.88c0-1.27 0-2.31-.1-3.33h2l.12 2a4.53 4.53 0 0 1 4.07-2.31c1.7 0 4.34 1 4.34 5.23v7.34h-2.24v-7.08c0-2-.73-3.63-2.84-3.63a3.19 3.19 0 0 0-3 2.28 3.26 3.26 0 0 0-.15 1v7.39h-2.23z"/>
  <circle class="cls-4" cx="246.36" cy="46" r="4.5"/>
  <circle class="cls-4" cx="246.37" cy="88.97" r="4.5"/>
  <circle class="cls-4" cx="246.39" cy="131.93" r="4.5"/>
  <circle class="cls-4" cx="246.36" cy="225" r="4.5"/>
  <circle class="cls-4" cx="246.37" cy="267.97" r="4.5"/>
  <circle class="cls-4" cx="246.39" cy="310.93" r="4.5"/>
  <circle class="cls-4" cx="246.36" cy="409" r="4.5"/>
  <circle class="cls-4" cx="246.37" cy="451.97" r="4.5"/>
  <circle class="cls-4" cx="246.39" cy="494.93" r="4.5"/>
  <path class="cls-3" d="M57.63 323.18a11.66 11.66 0 0 0 5.52 1.45c2.67 0 4.16-1.25 4.16-3.11s-1.15-2.74-4.06-3.79c-3.76-1.36-6.16-3.35-6.16-6.64 0-3.72 3.11-6.56 8-6.56a12.06 12.06 0 0 1 5.49 1.15l-1 3.35a9.64 9.64 0 0 0-4.5-1.03c-2.64 0-3.79 1.42-3.79 2.74 0 1.76 1.32 2.57 4.36 3.75 4 1.49 5.89 3.49 5.89 6.77 0 3.66-2.77 6.84-8.66 6.84a13.58 13.58 0 0 1-6.16-1.42zM89.89 322.77c0 2 .07 3.59.13 4.94h-3.65l-.2-2.5h-.07a6 6 0 0 1-5.28 2.87c-3 0-5.76-1.79-5.76-7.17v-9.68h4.17v9c0 2.74.88 4.5 3.08 4.5a3.51 3.51 0 0 0 3.18-2.23 4 4 0 0 0 .24-1.29v-9.95h4.16zM94.39 316.71c0-2.16-.06-3.92-.13-5.48h3.65l.21 2.54h.06a6.43 6.43 0 0 1 5.66-2.91c3.79 0 6.93 3.25 6.93 8.39 0 6-3.75 8.83-7.51 8.83a5.43 5.43 0 0 1-4.64-2.2h-.06v8.53h-4.17zm4.17 4.1a4.36 4.36 0 0 0 .13 1.15 3.77 3.77 0 0 0 3.66 2.91c2.64 0 4.19-2.2 4.19-5.45 0-2.91-1.42-5.28-4.09-5.28a3.88 3.88 0 0 0-3.73 3.08 3.82 3.82 0 0 0-.16 1zM114.2 316.71c0-2.16-.07-3.92-.14-5.48h3.66l.2 2.54h.08a6.4 6.4 0 0 1 5.65-2.91c3.79 0 6.94 3.25 6.94 8.39 0 6-3.76 8.83-7.52 8.83a5.4 5.4 0 0 1-4.63-2.2h-.07v8.53h-4.17zm4.16 4.1a4.36 4.36 0 0 0 .13 1.15 3.77 3.77 0 0 0 3.66 2.91c2.64 0 4.2-2.2 4.2-5.45 0-2.91-1.43-5.28-4.1-5.28a4.31 4.31 0 0 0-3.89 4.13zM134 303.68h4.2v24H134zM147.13 306.63a2.34 2.34 0 0 1-4.67 0 2.34 2.34 0 0 1 4.67 0zm-4.43 21.08v-16.48h4.2v16.48zM154.31 320.64c.1 3 2.44 4.26 5.08 4.26a12.45 12.45 0 0 0 4.56-.74l.61 2.87a15.39 15.39 0 0 1-5.75 1c-5.35 0-8.5-3.28-8.5-8.33 0-4.56 2.78-8.86 8.06-8.86s7.11 4.4 7.11 8a9.88 9.88 0 0 1-.14 1.76zm7.24-2.91c0-1.53-.64-4-3.42-4-2.57 0-3.65 2.34-3.82 4zM168.83 316.54c0-2.23 0-3.82-.13-5.31h3.62l.13 3.15h.14a4.91 4.91 0 0 1 4.5-3.52 4.28 4.28 0 0 1 1 .1v3.92a6.41 6.41 0 0 0-1.22-.13 3.67 3.67 0 0 0-3.72 3.15 6.86 6.86 0 0 0-.14 1.28v8.53h-4.16zM271.09 232.15a7.83 7.83 0 0 0 4 1.12c2.26 0 3.58-1.2 3.58-2.92s-.91-2.52-3.23-3.41c-2.79-1-4.51-2.43-4.51-4.85 0-2.66 2.2-4.64 5.53-4.64a7.66 7.66 0 0 1 3.78.84l-.61 1.8a6.72 6.72 0 0 0-3.25-.81c-2.33 0-3.22 1.39-3.22 2.56 0 1.6 1 2.39 3.4 3.3 2.9 1.12 4.37 2.51 4.37 5s-2 4.92-6 4.92a8.84 8.84 0 0 1-4.37-1.09zM294.12 231.49c0 1.27 0 2.39.1 3.35h-2l-.13-2h-.05a4.62 4.62 0 0 1-4.06 2.29c-1.93 0-4.24-1.07-4.24-5.38v-7.19H286v6.81c0 2.33.71 3.91 2.74 3.91a3.25 3.25 0 0 0 2.95-2 3.17 3.17 0 0 0 .2-1.14v-7.54h2.24zM297.82 226.56c0-1.57-.05-2.84-.1-4h2l.1 2.11h.05a4.83 4.83 0 0 1 4.37-2.39c3 0 5.2 2.52 5.2 6.25 0 4.42-2.69 6.6-5.58 6.6a4.32 4.32 0 0 1-3.79-1.93H300v6.68h-2.21zm2.21 3.28a5.07 5.07 0 0 0 .1.91 3.46 3.46 0 0 0 3.35 2.62c2.37 0 3.74-1.93 3.74-4.75 0-2.46-1.3-4.57-3.66-4.57a3.58 3.58 0 0 0-3.38 2.77 3.93 3.93 0 0 0-.15.91zM312.27 226.56c0-1.57 0-2.84-.1-4h2l.1 2.11h.05a4.85 4.85 0 0 1 4.37-2.39c3 0 5.21 2.52 5.21 6.25 0 4.42-2.69 6.6-5.59 6.6a4.3 4.3 0 0 1-3.78-1.93v6.68h-2.21zm2.21 3.28a5.07 5.07 0 0 0 .1.91 3.44 3.44 0 0 0 3.35 2.62c2.36 0 3.73-1.93 3.73-4.75 0-2.46-1.29-4.57-3.65-4.57a3.56 3.56 0 0 0-3.38 2.77 3.47 3.47 0 0 0-.15.91zM326.71 216.81H329v18h-2.24zM335.19 219.1a1.38 1.38 0 0 1-2.76 0 1.36 1.36 0 0 1 1.39-1.4 1.33 1.33 0 0 1 1.37 1.4zm-2.49 15.74v-12.29h2.24v12.29zM339.89 229.1c.05 3 2 4.27 4.21 4.27a8 8 0 0 0 3.41-.64l.38 1.6a9.93 9.93 0 0 1-4.09.76c-3.78 0-6-2.48-6-6.19s2.18-6.63 5.76-6.63c4 0 5.08 3.53 5.08 5.79a7.43 7.43 0 0 1-.08 1zm6.55-1.6c0-1.42-.58-3.63-3.1-3.63-2.26 0-3.25 2.08-3.43 3.63zM351.36 226.39c0-1.45 0-2.7-.1-3.84h2l.07 2.41h.11a3.67 3.67 0 0 1 3.4-2.69 2.41 2.41 0 0 1 .63.08v2.11a2.86 2.86 0 0 0-.76-.08 3.13 3.13 0 0 0-3 2.87 5.35 5.35 0 0 0-.11 1v6.55h-2.21zM366.29 229.1c0 3 2 4.27 4.22 4.27a8 8 0 0 0 3.4-.64l.38 1.6a9.89 9.89 0 0 1-4.09.76c-3.78 0-6-2.48-6-6.19s2.18-6.63 5.76-6.63c4 0 5.08 3.53 5.08 5.79a10 10 0 0 1-.07 1zm6.55-1.6c0-1.42-.58-3.63-3.09-3.63-2.26 0-3.25 2.08-3.43 3.63zM378.63 222.55l2.41 6.91a28.92 28.92 0 0 1 1 3.15h.08c.28-1 .63-2 1-3.15l2.39-6.91h2.33l-4.82 12.29h-2.13l-4.68-12.29zM396.68 234.84l-.17-1.55h-.08a4.58 4.58 0 0 1-3.76 1.83 3.5 3.5 0 0 1-3.76-3.53c0-3 2.64-4.6 7.39-4.57v-.25a2.54 2.54 0 0 0-2.79-2.85 6.11 6.11 0 0 0-3.2.92l-.51-1.48a7.65 7.65 0 0 1 4-1.09c3.76 0 4.67 2.57 4.67 5v4.59a17.62 17.62 0 0 0 .2 3zm-.33-6.27c-2.43 0-5.2.38-5.2 2.77a2 2 0 0 0 2.11 2.13 3.07 3.07 0 0 0 3-2.06 2.52 2.52 0 0 0 .12-.71zM402.12 216.81h2.23v18h-2.23zM418.39 231.49c0 1.27 0 2.39.1 3.35h-2l-.13-2h-.05a4.62 4.62 0 0 1-4.06 2.29c-1.93 0-4.24-1.07-4.24-5.38v-7.19h2.24v6.81c0 2.33.71 3.91 2.74 3.91a3.22 3.22 0 0 0 2.94-2 3.17 3.17 0 0 0 .21-1.14v-7.54h2.23zM428.9 234.84l-.18-1.55h-.07a4.58 4.58 0 0 1-3.76 1.83 3.5 3.5 0 0 1-3.76-3.53c0-3 2.64-4.6 7.39-4.57v-.25a2.54 2.54 0 0 0-2.79-2.85 6.09 6.09 0 0 0-3.2.92l-.51-1.48a7.65 7.65 0 0 1 4-1.09c3.75 0 4.67 2.57 4.67 5v4.59a17.62 17.62 0 0 0 .2 3zm-.33-6.27c-2.44 0-5.2.38-5.2 2.77a2 2 0 0 0 2.1 2.13 3.05 3.05 0 0 0 3-2.06 2.22 2.22 0 0 0 .13-.71zM436.92 219v3.53h3.2v1.7h-3.2v6.63c0 1.52.43 2.39 1.68 2.39a4.73 4.73 0 0 0 1.29-.16l.11 1.68a5.48 5.48 0 0 1-2 .3 3.11 3.11 0 0 1-2.42-.94 4.56 4.56 0 0 1-.86-3.19v-6.71h-1.9v-1.7h1.9v-2.94zM445.12 219.1a1.38 1.38 0 0 1-2.76 0 1.36 1.36 0 0 1 1.39-1.4 1.33 1.33 0 0 1 1.37 1.4zm-2.48 15.74v-12.29h2.23v12.29zM459.7 228.59c0 4.55-3.15 6.53-6.12 6.53-3.33 0-5.89-2.44-5.89-6.32 0-4.12 2.69-6.53 6.09-6.53s5.92 2.57 5.92 6.32zm-9.75.13c0 2.69 1.55 4.72 3.73 4.72s3.73-2 3.73-4.77c0-2.08-1-4.72-3.68-4.72s-3.73 2.44-3.73 4.77zM462.51 225.88c0-1.27 0-2.31-.1-3.33h2l.13 2h.05a4.51 4.51 0 0 1 4.06-2.31c1.7 0 4.34 1 4.34 5.23v7.34h-2.23v-7.08c0-2-.74-3.63-2.84-3.63a3.17 3.17 0 0 0-3 2.28 3.26 3.26 0 0 0-.15 1v7.39h-2.24zM271.09 276.15a7.83 7.83 0 0 0 4 1.12c2.26 0 3.58-1.2 3.58-2.92s-.91-2.52-3.23-3.41c-2.79-1-4.51-2.43-4.51-4.85 0-2.66 2.2-4.64 5.53-4.64a7.66 7.66 0 0 1 3.78.84l-.61 1.8a6.72 6.72 0 0 0-3.25-.81c-2.33 0-3.22 1.39-3.22 2.56 0 1.6 1 2.39 3.4 3.3 2.9 1.12 4.37 2.51 4.37 5s-2 4.92-6 4.92a8.84 8.84 0 0 1-4.37-1.09zM294.12 275.49c0 1.27 0 2.39.1 3.35h-2l-.13-2h-.05a4.62 4.62 0 0 1-4.06 2.29c-1.93 0-4.24-1.07-4.24-5.38v-7.19H286v6.81c0 2.33.71 3.91 2.74 3.91a3.25 3.25 0 0 0 2.95-2 3.17 3.17 0 0 0 .2-1.14v-7.54h2.24zM297.82 270.56c0-1.57-.05-2.84-.1-4h2l.1 2.11h.05a4.83 4.83 0 0 1 4.37-2.39c3 0 5.2 2.52 5.2 6.25 0 4.42-2.69 6.6-5.58 6.6a4.32 4.32 0 0 1-3.79-1.93H300v6.68h-2.21zm2.21 3.28a5.07 5.07 0 0 0 .1.91 3.46 3.46 0 0 0 3.35 2.62c2.37 0 3.74-1.93 3.74-4.75 0-2.46-1.3-4.57-3.66-4.57a3.58 3.58 0 0 0-3.38 2.77 3.93 3.93 0 0 0-.15.91zM312.27 270.56c0-1.57 0-2.84-.1-4h2l.1 2.11h.05a4.85 4.85 0 0 1 4.37-2.39c3 0 5.21 2.52 5.21 6.25 0 4.42-2.69 6.6-5.59 6.6a4.3 4.3 0 0 1-3.78-1.93v6.68h-2.21zm2.21 3.28a5.07 5.07 0 0 0 .1.91 3.44 3.44 0 0 0 3.35 2.62c2.36 0 3.73-1.93 3.73-4.75 0-2.46-1.29-4.57-3.65-4.57a3.56 3.56 0 0 0-3.38 2.77 3.47 3.47 0 0 0-.15.91zM326.71 260.81H329v18h-2.24zM335.19 263.1a1.38 1.38 0 0 1-2.76 0 1.36 1.36 0 0 1 1.39-1.4 1.33 1.33 0 0 1 1.37 1.4zm-2.49 15.74v-12.29h2.24v12.29zM339.89 273.1c.05 3 2 4.27 4.21 4.27a8 8 0 0 0 3.41-.64l.38 1.6a9.93 9.93 0 0 1-4.09.76c-3.78 0-6-2.48-6-6.19s2.18-6.63 5.76-6.63c4 0 5.08 3.53 5.08 5.79a7.43 7.43 0 0 1-.08 1zm6.55-1.6c0-1.42-.58-3.63-3.1-3.63-2.26 0-3.25 2.08-3.43 3.63zM351.36 270.39c0-1.45 0-2.7-.1-3.84h2l.07 2.41h.11a3.67 3.67 0 0 1 3.4-2.69 2.41 2.41 0 0 1 .63.08v2.11a2.86 2.86 0 0 0-.76-.08 3.13 3.13 0 0 0-3 2.87 5.35 5.35 0 0 0-.11 1v6.55h-2.21zM364.74 276.56a5.88 5.88 0 0 0 2.95.88c1.62 0 2.39-.81 2.39-1.82s-.64-1.65-2.29-2.26c-2.21-.79-3.25-2-3.25-3.48 0-2 1.6-3.61 4.24-3.61a6.19 6.19 0 0 1 3 .76l-.56 1.63a4.72 4.72 0 0 0-2.51-.71c-1.32 0-2.06.76-2.06 1.67s.74 1.48 2.34 2.09c2.13.81 3.22 1.87 3.22 3.7 0 2.16-1.67 3.68-4.59 3.68a7.13 7.13 0 0 1-3.46-.83zM376.35 273.1c0 3 2 4.27 4.21 4.27a8 8 0 0 0 3.4-.64l.38 1.6a9.83 9.83 0 0 1-4.08.76c-3.79 0-6.05-2.48-6.05-6.19s2.19-6.63 5.77-6.63c4 0 5.08 3.53 5.08 5.79a9.4 9.4 0 0 1-.08 1zm6.55-1.6c0-1.42-.59-3.63-3.1-3.63-2.26 0-3.25 2.08-3.43 3.63zM387.82 260.81h2.24v18h-2.24zM395.06 273.1c.05 3 2 4.27 4.21 4.27a8 8 0 0 0 3.4-.64l.39 1.6a9.93 9.93 0 0 1-4.09.76c-3.79 0-6.05-2.48-6.05-6.19s2.19-6.63 5.77-6.63c4 0 5.08 3.53 5.08 5.79a7.43 7.43 0 0 1-.08 1zm6.55-1.6c0-1.42-.59-3.63-3.1-3.63-2.26 0-3.25 2.08-3.43 3.63zM415.29 278.38a8.14 8.14 0 0 1-3.53.71c-3.7 0-6.12-2.51-6.12-6.27a6.24 6.24 0 0 1 6.61-6.52 7.52 7.52 0 0 1 3.09.63l-.5 1.73a5.16 5.16 0 0 0-2.59-.59c-2.82 0-4.35 2.09-4.35 4.65 0 2.84 1.83 4.6 4.27 4.6a6.31 6.31 0 0 0 2.74-.61zM420.93 263v3.53h3.2v1.7h-3.2v6.63c0 1.52.43 2.39 1.67 2.39a4.76 4.76 0 0 0 1.3-.16l.1 1.68a5.44 5.44 0 0 1-2 .3 3.09 3.09 0 0 1-2.41-.94 4.51 4.51 0 0 1-.87-3.19v-6.71h-1.9v-1.7h1.9v-2.94zM429.13 263.1a1.39 1.39 0 0 1-2.77 0 1.36 1.36 0 0 1 1.4-1.4 1.33 1.33 0 0 1 1.37 1.4zm-2.49 15.74v-12.29h2.23v12.29zM443.7 272.59c0 4.55-3.15 6.53-6.12 6.53-3.32 0-5.89-2.44-5.89-6.32 0-4.12 2.69-6.53 6.1-6.53s5.91 2.57 5.91 6.32zm-9.75.13c0 2.69 1.55 4.72 3.73 4.72s3.74-2 3.74-4.77c0-2.08-1-4.72-3.69-4.72s-3.73 2.44-3.73 4.77zM446.52 269.88c0-1.27 0-2.31-.1-3.33h2l.12 2h.06a4.5 4.5 0 0 1 4.06-2.31c1.7 0 4.34 1 4.34 5.23v7.34h-2.23v-7.08c0-2-.74-3.63-2.85-3.63a3.17 3.17 0 0 0-3 2.28 3 3 0 0 0-.16 1v7.39h-2.23zM271.39 306a22.9 22.9 0 0 1 4.24-.36c2.36 0 3.89.43 4.95 1.4a4.24 4.24 0 0 1 1.35 3.25 4.48 4.48 0 0 1-3.22 4.36v.08c1.32.46 2.1 1.68 2.51 3.45a26.91 26.91 0 0 0 1.32 4.7h-2.29a21.78 21.78 0 0 1-1.14-4.09c-.51-2.36-1.42-3.25-3.43-3.32h-2.08v7.41h-2.21zm2.21 7.79h2.26c2.36 0 3.86-1.29 3.86-3.25 0-2.21-1.6-3.17-3.93-3.2a9.3 9.3 0 0 0-2.19.2zM286.32 317.1c.05 3 2 4.27 4.22 4.27a8 8 0 0 0 3.4-.64l.38 1.6a9.89 9.89 0 0 1-4.09.76c-3.78 0-6-2.48-6-6.19s2.18-6.63 5.76-6.63c4 0 5.08 3.53 5.08 5.79a7.43 7.43 0 0 1-.08 1zm6.55-1.6c0-1.42-.58-3.63-3.1-3.63-2.25 0-3.25 2.08-3.42 3.63zM297.8 304.81h2.2v18h-2.2zM310.59 322.84l-.17-1.55h-.08a4.58 4.58 0 0 1-3.76 1.83 3.5 3.5 0 0 1-3.76-3.53c0-3 2.64-4.6 7.39-4.57v-.25a2.54 2.54 0 0 0-2.79-2.85 6.11 6.11 0 0 0-3.2.92l-.51-1.48a7.65 7.65 0 0 1 4-1.09c3.76 0 4.67 2.57 4.67 5v4.59a17.62 17.62 0 0 0 .2 2.95zm-.33-6.27c-2.43-.05-5.2.38-5.2 2.77a2 2 0 0 0 2.11 2.13 3.06 3.06 0 0 0 3-2.06 2.52 2.52 0 0 0 .12-.71zM318.62 307v3.53h3.19v1.7h-3.19v6.63c0 1.52.43 2.39 1.67 2.39a4.76 4.76 0 0 0 1.3-.16l.1 1.68a5.44 5.44 0 0 1-2 .3 3.09 3.09 0 0 1-2.41-.94 4.51 4.51 0 0 1-.87-3.19v-6.71h-1.9v-1.7h1.9v-2.94zM326.82 307.1a1.39 1.39 0 0 1-2.77 0 1.36 1.36 0 0 1 1.39-1.4 1.33 1.33 0 0 1 1.38 1.4zm-2.49 15.74v-12.29h2.23v12.29zM341.39 316.59c0 4.55-3.15 6.53-6.12 6.53-3.33 0-5.89-2.44-5.89-6.32 0-4.12 2.69-6.53 6.09-6.53s5.92 2.57 5.92 6.32zm-9.75.13c0 2.69 1.55 4.72 3.73 4.72s3.73-2 3.73-4.77c0-2.08-1-4.72-3.68-4.72s-3.78 2.44-3.78 4.77zM344.21 313.88c0-1.27 0-2.31-.11-3.33h2l.12 2h.05a4.52 4.52 0 0 1 4.07-2.31c1.7 0 4.34 1 4.34 5.23v7.34h-2.24v-7.08c0-2-.73-3.63-2.84-3.63a3.18 3.18 0 0 0-3 2.28 3.26 3.26 0 0 0-.15 1v7.39h-2.23zM358 320.56a5.88 5.88 0 0 0 2.95.88c1.62 0 2.38-.81 2.38-1.82s-.63-1.65-2.28-2.26c-2.21-.79-3.25-2-3.25-3.48 0-2 1.6-3.61 4.24-3.61a6.19 6.19 0 0 1 3 .76l-.56 1.63A4.72 4.72 0 0 0 362 312c-1.32 0-2.06.76-2.06 1.67s.74 1.48 2.34 2.09c2.13.81 3.22 1.87 3.22 3.7 0 2.16-1.67 3.68-4.59 3.68a7.13 7.13 0 0 1-3.46-.83zM368.35 304.81h2.24v7.67h.05a4.1 4.1 0 0 1 1.6-1.57 4.59 4.59 0 0 1 2.28-.64c1.65 0 4.29 1 4.29 5.26v7.31h-2.23v-7.06c0-2-.74-3.65-2.85-3.65a3.2 3.2 0 0 0-3 2.23 2.64 2.64 0 0 0-.15 1.07v7.41h-2.24zM384.93 307.1a1.31 1.31 0 0 1-1.42 1.37 1.33 1.33 0 0 1-1.35-1.37 1.37 1.37 0 0 1 1.4-1.4 1.33 1.33 0 0 1 1.37 1.4zm-2.49 15.74v-12.29h2.24v12.29zM388.38 314.56c0-1.57-.05-2.84-.1-4h2l.1 2.11h.05a4.83 4.83 0 0 1 4.37-2.39c3 0 5.2 2.52 5.2 6.25 0 4.42-2.69 6.6-5.58 6.6a4.32 4.32 0 0 1-3.79-1.93h-.05v6.68h-2.21zm2.21 3.28a5.07 5.07 0 0 0 .1.91 3.45 3.45 0 0 0 3.35 2.62c2.37 0 3.74-1.93 3.74-4.75 0-2.46-1.3-4.57-3.66-4.57a3.58 3.58 0 0 0-3.38 2.77 3.93 3.93 0 0 0-.15.91zM408.21 313.88c0-1.27 0-2.31-.1-3.33h1.95l.1 2h.08a4.24 4.24 0 0 1 3.86-2.26 3.63 3.63 0 0 1 3.48 2.46h.05a5 5 0 0 1 1.37-1.59 4.2 4.2 0 0 1 2.72-.87c1.62 0 4 1.07 4 5.33v7.24h-2.18v-7c0-2.36-.86-3.78-2.67-3.78a2.9 2.9 0 0 0-2.64 2 3.77 3.77 0 0 0-.17 1.12v7.59h-2.16v-7.36c0-2-.86-3.38-2.56-3.38a3.33 3.33 0 0 0-2.95 3.33v7.41h-2.18zM436.19 322.84l-.18-1.55h-.08a4.54 4.54 0 0 1-3.75 1.83 3.5 3.5 0 0 1-3.76-3.53c0-3 2.64-4.6 7.39-4.57v-.25a2.54 2.54 0 0 0-2.8-2.85 6.14 6.14 0 0 0-3.2.92l-.5-1.48a7.61 7.61 0 0 1 4-1.09c3.76 0 4.68 2.57 4.68 5v4.59a17.62 17.62 0 0 0 .2 2.95zm-.33-6.27c-2.44-.05-5.21.38-5.21 2.77a2 2 0 0 0 2.11 2.13 3.05 3.05 0 0 0 3-2.06 2.22 2.22 0 0 0 .13-.71zM441.62 313.88c0-1.27 0-2.31-.1-3.33h2l.13 2h.05a4.51 4.51 0 0 1 4.06-2.31c1.7 0 4.34 1 4.34 5.23v7.34h-2.23v-7.08c0-2-.74-3.63-2.85-3.63a3.17 3.17 0 0 0-3 2.28 3.25 3.25 0 0 0-.16 1v7.39h-2.23zM462.52 322.84l-.18-1.55h-.08a4.55 4.55 0 0 1-3.76 1.83 3.5 3.5 0 0 1-3.75-3.53c0-3 2.64-4.6 7.39-4.57v-.25a2.54 2.54 0 0 0-2.8-2.85 6.14 6.14 0 0 0-3.2.92l-.5-1.48a7.58 7.58 0 0 1 4-1.09c3.76 0 4.67 2.57 4.67 5v4.59a16.55 16.55 0 0 0 .21 2.95zm-.33-6.27c-2.44-.05-5.21.38-5.21 2.77a2 2 0 0 0 2.11 2.13 3.06 3.06 0 0 0 3-2.06 2.22 2.22 0 0 0 .13-.71zM478.54 310.55c-.05.89-.11 1.88-.11 3.38v7.13c0 2.82-.55 4.55-1.75 5.61a6.5 6.5 0 0 1-4.47 1.48 7.91 7.91 0 0 1-4.08-1l.55-1.7a7 7 0 0 0 3.61 1c2.29 0 4-1.19 4-4.29v-1.37h-.05a4.37 4.37 0 0 1-3.91 2.06c-3.05 0-5.23-2.59-5.23-6 0-4.17 2.72-6.53 5.54-6.53a4.09 4.09 0 0 1 3.83 2.13h.05l.1-1.85zm-2.31 4.85a3.17 3.17 0 0 0-.13-1 3.22 3.22 0 0 0-3.1-2.4c-2.14 0-3.66 1.81-3.66 4.65 0 2.41 1.22 4.42 3.63 4.42a3.27 3.27 0 0 0 3.1-2.29 3.78 3.78 0 0 0 .18-1.19zM483.39 317.1c.05 3 2 4.27 4.21 4.27a8 8 0 0 0 3.4-.64l.38 1.6a9.83 9.83 0 0 1-4.08.76c-3.79 0-6.05-2.48-6.05-6.19s2.19-6.63 5.77-6.63c4 0 5.07 3.53 5.07 5.79a10 10 0 0 1-.07 1zm6.55-1.6c0-1.42-.59-3.63-3.1-3.63-2.26 0-3.25 2.08-3.43 3.63zM494.86 313.88c0-1.27 0-2.31-.1-3.33h1.95l.11 2h.07a4.24 4.24 0 0 1 3.86-2.26 3.63 3.63 0 0 1 3.48 2.46 5 5 0 0 1 1.37-1.59 4.2 4.2 0 0 1 2.72-.87c1.62 0 4 1.07 4 5.33v7.24h-2.19v-7c0-2.36-.86-3.78-2.66-3.78a2.89 2.89 0 0 0-2.64 2 3.46 3.46 0 0 0-.18 1.12v7.59h-2.19v-7.36c0-2-.86-3.38-2.56-3.38a3.06 3.06 0 0 0-2.77 2.23 3.3 3.3 0 0 0-.18 1.1v7.41h-2.18zM517.28 317.1c.05 3 2 4.27 4.21 4.27a8 8 0 0 0 3.41-.64l.38 1.6a9.93 9.93 0 0 1-4.09.76c-3.78 0-6-2.48-6-6.19s2.18-6.63 5.76-6.63c4 0 5.08 3.53 5.08 5.79a7.43 7.43 0 0 1-.08 1zm6.55-1.6c0-1.42-.58-3.63-3.1-3.63-2.26 0-3.25 2.08-3.43 3.63zM528.75 313.88c0-1.27 0-2.31-.1-3.33h2l.13 2a4.51 4.51 0 0 1 4.06-2.31c1.7 0 4.35 1 4.35 5.23v7.34H537v-7.08c0-2-.74-3.63-2.84-3.63a3.17 3.17 0 0 0-3 2.28 3.26 3.26 0 0 0-.15 1v7.39h-2.24zM545.43 307v3.53h3.2v1.7h-3.2v6.63c0 1.52.44 2.39 1.68 2.39a4.82 4.82 0 0 0 1.3-.16l.1 1.68a5.44 5.44 0 0 1-2 .3 3.12 3.12 0 0 1-2.42-.94 4.56 4.56 0 0 1-.86-3.19v-6.71h-1.9v-1.7h1.9v-2.94zM59.93 505.59h-8.6v6.7H61v3.42H47.17V492.9h13.27v3.42h-9.11v5.89h8.6zM67.21 499.23l2 3.11c.55.88 1 1.7 1.49 2.54h.11c.47-.91.94-1.76 1.42-2.6l1.82-3h4.54L73 507.15l5.62 8.56H74l-2-3.28c-.55-.88-1-1.76-1.49-2.68h-.07c-.47.95-1 1.76-1.49 2.68L67 515.71h-4.6l5.72-8.39-5.52-8.09zM83.46 508.64c.1 3 2.44 4.26 5.08 4.26a12.41 12.41 0 0 0 4.56-.74l.61 2.87a15.39 15.39 0 0 1-5.75 1c-5.35 0-8.49-3.28-8.49-8.33 0-4.56 2.77-8.86 8-8.86s7.11 4.4 7.11 8a9.88 9.88 0 0 1-.14 1.76zm7.24-2.91c0-1.53-.64-4-3.42-4-2.57 0-3.65 2.34-3.82 4zM110.1 515.2a12 12 0 0 1-4.67.85c-5.15 0-8.5-3.28-8.5-8.39 0-4.94 3.39-8.8 9.17-8.8a10.38 10.38 0 0 1 4 .78l-.74 3.11a7.28 7.28 0 0 0-3.15-.64c-3.18 0-5.08 2.33-5 5.34 0 3.39 2.2 5.32 5 5.32a8.06 8.06 0 0 0 3.28-.65zM127.94 510.77c0 2 .06 3.59.13 4.94h-3.65l-.21-2.5h-.06a6 6 0 0 1-5.28 2.87c-3 0-5.76-1.79-5.76-7.17v-9.68h4.17v9c0 2.74.88 4.5 3.07 4.5a3.53 3.53 0 0 0 3.19-2.23 4 4 0 0 0 .23-1.29v-9.95h4.17zM137.21 494.52v4.71h4v3.11h-4v7.28c0 2 .55 3 2.14 3a6.12 6.12 0 0 0 1.62-.21l.07 3.18a9 9 0 0 1-3 .41 4.84 4.84 0 0 1-3.59-1.35c-.88-1-1.29-2.44-1.29-4.61v-7.75h-2.37v-3.11h2.37v-3.72zM148.76 494.63a2.21 2.21 0 0 1-2.37 2.23 2.18 2.18 0 0 1-2.3-2.23 2.34 2.34 0 0 1 4.67 0zm-4.44 21.08v-16.48h4.2v16.48zM168.66 507.32c0 6.06-4.27 8.76-8.46 8.76-4.67 0-8.26-3.21-8.26-8.49s3.55-8.73 8.53-8.73 8.19 3.45 8.19 8.46zm-12.42.17c0 3.18 1.55 5.58 4.09 5.58 2.37 0 4-2.33 4-5.65 0-2.57-1.15-5.52-4-5.52s-4.09 2.85-4.09 5.59zM172.08 504.14c0-1.9 0-3.49-.13-4.91h3.65l.2 2.47h.1a6 6 0 0 1 5.25-2.84c2.88 0 5.86 1.86 5.86 7.07v9.78h-4.17v-9.31c0-2.36-.88-4.16-3.14-4.16a3.5 3.5 0 0 0-3.25 2.44 4.1 4.1 0 0 0-.17 1.35v9.68h-4.2zM271.39 402a22.9 22.9 0 0 1 4.24-.36c2.36 0 3.89.43 4.95 1.4a4.24 4.24 0 0 1 1.35 3.25 4.48 4.48 0 0 1-3.22 4.36v.08c1.32.46 2.1 1.68 2.51 3.45a26.91 26.91 0 0 0 1.32 4.7h-2.29a21.78 21.78 0 0 1-1.14-4.09c-.51-2.36-1.42-3.25-3.43-3.32h-2.08v7.41h-2.21zm2.21 7.79h2.26c2.36 0 3.86-1.29 3.86-3.25 0-2.21-1.6-3.17-3.93-3.2a9.3 9.3 0 0 0-2.19.2zM286.32 413.1c.05 3 2 4.27 4.22 4.27a8 8 0 0 0 3.4-.64l.38 1.6a9.89 9.89 0 0 1-4.09.76c-3.78 0-6-2.48-6-6.19s2.18-6.63 5.76-6.63c4 0 5.08 3.53 5.08 5.79a7.43 7.43 0 0 1-.08 1zm6.55-1.6c0-1.42-.58-3.63-3.1-3.63-2.25 0-3.25 2.08-3.42 3.63zM304.6 418.84l-.18-1.55h-.07a4.58 4.58 0 0 1-3.76 1.83 3.5 3.5 0 0 1-3.76-3.53c0-3 2.64-4.6 7.39-4.57v-.25a2.54 2.54 0 0 0-2.79-2.85 6.11 6.11 0 0 0-3.2.92l-.51-1.48a7.65 7.65 0 0 1 4-1.09c3.76 0 4.67 2.57 4.67 5v4.59a17.62 17.62 0 0 0 .2 2.95zm-.33-6.27c-2.44-.05-5.2.38-5.2 2.77a2 2 0 0 0 2.1 2.13 3.05 3.05 0 0 0 3-2.06 2.22 2.22 0 0 0 .13-.71zM310 400.81h2.24v18H310zM321.21 411.15v1.65h-6.28v-1.65zM326.51 403v3.53h3.2v1.7h-3.2v6.63c0 1.52.43 2.39 1.68 2.39a4.73 4.73 0 0 0 1.29-.16l.1 1.68a5.4 5.4 0 0 1-2 .3 3.09 3.09 0 0 1-2.41-.94 4.56 4.56 0 0 1-.86-3.19v-6.71h-1.91v-1.7h1.91v-2.94zM334.71 403.1a1.31 1.31 0 0 1-1.42 1.37 1.33 1.33 0 0 1-1.35-1.37 1.37 1.37 0 0 1 1.4-1.4 1.33 1.33 0 0 1 1.37 1.4zm-2.49 15.74v-12.29h2.24v12.29zM338.16 409.88c0-1.27 0-2.31-.1-3.33h2l.1 2h.07a4.24 4.24 0 0 1 3.86-2.26 3.63 3.63 0 0 1 3.48 2.46h.05a5.16 5.16 0 0 1 1.37-1.59 4.2 4.2 0 0 1 2.72-.87c1.63 0 4 1.07 4 5.33v7.24h-2.19v-7c0-2.36-.86-3.78-2.66-3.78a2.89 2.89 0 0 0-2.64 2 3.75 3.75 0 0 0-.18 1.12v7.59h-2.18v-7.36c0-2-.87-3.38-2.57-3.38a3.07 3.07 0 0 0-2.77 2.23 3.29 3.29 0 0 0-.17 1.1v7.41h-2.19zM360.58 413.1c.05 3 2 4.27 4.22 4.27a8 8 0 0 0 3.4-.64l.38 1.6a9.89 9.89 0 0 1-4.09.76c-3.78 0-6-2.48-6-6.19s2.18-6.63 5.76-6.63c4 0 5.08 3.53 5.08 5.79a7.43 7.43 0 0 1-.08 1zm6.55-1.6c0-1.42-.58-3.63-3.1-3.63-2.26 0-3.25 2.08-3.42 3.63zM380.13 403v3.53h3.2v1.7h-3.2v6.63c0 1.52.43 2.39 1.68 2.39a4.73 4.73 0 0 0 1.29-.16l.1 1.68a5.4 5.4 0 0 1-2 .3 3.09 3.09 0 0 1-2.41-.94A4.56 4.56 0 0 1 378 415v-6.71h-2v-1.7h2v-2.94zM385.84 410.39c0-1.45 0-2.7-.1-3.84h2l.07 2.41h.1a3.69 3.69 0 0 1 3.41-2.69 2.41 2.41 0 0 1 .63.08v2.11a2.91 2.91 0 0 0-.76-.08 3.13 3.13 0 0 0-3 2.87 6.33 6.33 0 0 0-.1 1v6.55h-2.21zM400.82 418.84l-.18-1.55h-.07a4.58 4.58 0 0 1-3.76 1.83 3.5 3.5 0 0 1-3.76-3.53c0-3 2.64-4.6 7.39-4.57v-.25a2.54 2.54 0 0 0-2.79-2.85 6.11 6.11 0 0 0-3.2.92l-.51-1.48a7.65 7.65 0 0 1 4-1.09c3.76 0 4.67 2.57 4.67 5v4.59a17.62 17.62 0 0 0 .2 2.95zm-.33-6.27c-2.44-.05-5.2.38-5.2 2.77a2 2 0 0 0 2.1 2.13 3.05 3.05 0 0 0 3-2.06 2.22 2.22 0 0 0 .13-.71zM415 418.38a8.11 8.11 0 0 1-3.53.71c-3.7 0-6.11-2.51-6.11-6.27a6.24 6.24 0 0 1 6.6-6.52 7.48 7.48 0 0 1 3.09.63l-.5 1.73a5.13 5.13 0 0 0-2.59-.59c-2.82 0-4.34 2.09-4.34 4.65 0 2.84 1.82 4.6 4.26 4.6a6.31 6.31 0 0 0 2.74-.61zM419.84 412.19h.05c.3-.43.73-1 1.09-1.4l3.61-4.24h2.69l-4.75 5.05 5.41 7.24h-2.72L421 413l-1.14 1.27v4.62h-2.21v-18h2.21zM432.46 403.1a1.39 1.39 0 0 1-2.77 0 1.36 1.36 0 0 1 1.39-1.4 1.33 1.33 0 0 1 1.38 1.4zM430 418.84v-12.29h2.23v12.29zM435.91 409.88c0-1.27 0-2.31-.1-3.33h2l.12 2a4.53 4.53 0 0 1 4.07-2.31c1.7 0 4.34 1 4.34 5.23v7.34h-2.24v-7.08c0-2-.73-3.63-2.84-3.63a3.19 3.19 0 0 0-3 2.28 3.26 3.26 0 0 0-.15 1v7.39h-2.23zM460.59 406.55c0 .89-.11 1.88-.11 3.38v7.13c0 2.82-.55 4.55-1.75 5.61a6.5 6.5 0 0 1-4.47 1.48 7.91 7.91 0 0 1-4.08-1l.55-1.7a7 7 0 0 0 3.61 1c2.29 0 4-1.19 4-4.29v-1.37h-.05a4.38 4.38 0 0 1-3.91 2.06c-3 0-5.23-2.59-5.23-6 0-4.17 2.72-6.53 5.53-6.53a4.09 4.09 0 0 1 3.84 2.13l.1-1.85zm-2.31 4.85a3.17 3.17 0 0 0-.13-1A3.22 3.22 0 0 0 455 408c-2.14 0-3.66 1.81-3.66 4.65 0 2.41 1.22 4.42 3.63 4.42a3.27 3.27 0 0 0 3.1-2.29 4.09 4.09 0 0 0 .18-1.19zM271.39 445.73h2.21V461h7.31v1.85h-9.52zM294.07 456.59c0 4.55-3.15 6.53-6.12 6.53-3.33 0-5.89-2.44-5.89-6.32 0-4.12 2.69-6.53 6.09-6.53s5.92 2.57 5.92 6.32zm-9.75.13c0 2.69 1.54 4.72 3.73 4.72s3.73-2 3.73-4.77c0-2.08-1-4.72-3.68-4.72s-3.78 2.44-3.78 4.77zM307.47 450.55c-.05.89-.1 1.88-.1 3.38v7.13c0 2.82-.56 4.55-1.75 5.61a6.52 6.52 0 0 1-4.47 1.48 8 8 0 0 1-4.09-1l.56-1.7a6.89 6.89 0 0 0 3.6 1c2.29 0 4-1.19 4-4.29v-1.37h-.05a4.39 4.39 0 0 1-3.92 2.06c-3 0-5.23-2.59-5.23-6 0-4.17 2.72-6.53 5.54-6.53a4.09 4.09 0 0 1 3.83 2.13h.05l.11-1.85zm-2.31 4.85a2.91 2.91 0 0 0-.13-1 3.21 3.21 0 0 0-3.12-2.37c-2.13 0-3.66 1.81-3.66 4.65 0 2.41 1.22 4.42 3.64 4.42a3.26 3.26 0 0 0 3.11-2.3 3.78 3.78 0 0 0 .18-1.19zM313.41 447.1a1.31 1.31 0 0 1-1.42 1.37 1.33 1.33 0 0 1-1.35-1.37 1.37 1.37 0 0 1 1.4-1.4 1.33 1.33 0 0 1 1.37 1.4zm-2.49 15.74v-12.29h2.24v12.29zM316.56 460.56a5.87 5.87 0 0 0 2.94.88c1.63 0 2.39-.81 2.39-1.82s-.63-1.65-2.29-2.26c-2.2-.79-3.25-2-3.25-3.48 0-2 1.6-3.61 4.25-3.61a6.22 6.22 0 0 1 3 .76l-.56 1.63a4.73 4.73 0 0 0-2.52-.71c-1.32 0-2.05.76-2.05 1.67s.73 1.48 2.33 2.09c2.14.81 3.23 1.87 3.23 3.7 0 2.16-1.68 3.68-4.6 3.68a7.09 7.09 0 0 1-3.45-.83zM329.61 447v3.53h3.2v1.7h-3.2v6.63c0 1.52.43 2.39 1.67 2.39a4.76 4.76 0 0 0 1.3-.16l.1 1.68a5.44 5.44 0 0 1-2 .3 3.09 3.09 0 0 1-2.41-.94 4.51 4.51 0 0 1-.87-3.19v-6.71h-1.9v-1.7h1.9v-2.94zM337.81 447.1a1.39 1.39 0 0 1-2.77 0 1.36 1.36 0 0 1 1.4-1.4 1.33 1.33 0 0 1 1.37 1.4zm-2.49 15.74v-12.29h2.23v12.29zM350 462.38a8.14 8.14 0 0 1-3.53.71c-3.71 0-6.12-2.51-6.12-6.27a6.24 6.24 0 0 1 6.6-6.52 7.57 7.57 0 0 1 3.1.63l-.51 1.73a5.1 5.1 0 0 0-2.59-.59c-2.82 0-4.34 2.09-4.34 4.65 0 2.84 1.83 4.6 4.27 4.6a6.34 6.34 0 0 0 2.74-.61zM352.33 460.56a5.87 5.87 0 0 0 2.94.88c1.63 0 2.39-.81 2.39-1.82s-.63-1.65-2.28-2.26c-2.21-.79-3.25-2-3.25-3.48 0-2 1.6-3.61 4.24-3.61a6.22 6.22 0 0 1 3 .76l-.56 1.63a4.72 4.72 0 0 0-2.51-.71c-1.32 0-2.06.76-2.06 1.67s.74 1.48 2.34 2.09c2.13.81 3.22 1.87 3.22 3.7 0 2.16-1.68 3.68-4.6 3.68a7.09 7.09 0 0 1-3.45-.83zM379.19 456.59c0 4.55-3.15 6.53-6.12 6.53-3.32 0-5.89-2.44-5.89-6.32 0-4.12 2.69-6.53 6.09-6.53s5.92 2.57 5.92 6.32zm-9.75.13c0 2.69 1.55 4.72 3.73 4.72s3.74-2 3.74-4.77c0-2.08-1.05-4.72-3.69-4.72s-3.78 2.44-3.78 4.77zM382 454.56c0-1.57-.05-2.84-.1-4h2l.1 2.11h.05a4.85 4.85 0 0 1 4.37-2.39c3 0 5.21 2.52 5.21 6.25 0 4.42-2.69 6.6-5.59 6.6a4.3 4.3 0 0 1-3.78-1.93v6.68H382zm2.21 3.28a5.07 5.07 0 0 0 .1.91 3.44 3.44 0 0 0 3.35 2.62c2.36 0 3.73-1.93 3.73-4.75 0-2.46-1.29-4.57-3.65-4.57a3.56 3.56 0 0 0-3.38 2.77 3.47 3.47 0 0 0-.15.91zM397.7 457.1c.05 3 2 4.27 4.21 4.27a8 8 0 0 0 3.4-.64l.39 1.6a9.93 9.93 0 0 1-4.09.76c-3.79 0-6.05-2.48-6.05-6.19s2.19-6.63 5.77-6.63c4 0 5.08 3.53 5.08 5.79a7.43 7.43 0 0 1-.08 1zm6.55-1.6c0-1.42-.59-3.63-3.1-3.63-2.26 0-3.25 2.08-3.43 3.63zM409.17 454.39c0-1.45 0-2.7-.1-3.84h2l.07 2.41h.1a3.69 3.69 0 0 1 3.41-2.69 2.41 2.41 0 0 1 .63.08v2.11a2.91 2.91 0 0 0-.76-.08 3.14 3.14 0 0 0-3 2.87 6.33 6.33 0 0 0-.1 1v6.55h-2.21zM424.15 462.84l-.17-1.55h-.08a4.58 4.58 0 0 1-3.76 1.83 3.5 3.5 0 0 1-3.76-3.53c0-3 2.64-4.6 7.39-4.57v-.25a2.54 2.54 0 0 0-2.79-2.85 6.11 6.11 0 0 0-3.2.92l-.51-1.48a7.65 7.65 0 0 1 4-1.09c3.76 0 4.67 2.57 4.67 5v4.59a17.62 17.62 0 0 0 .2 2.95zm-.33-6.27c-2.43-.05-5.2.38-5.2 2.77a2 2 0 0 0 2.11 2.13 3.06 3.06 0 0 0 3-2.06 2.52 2.52 0 0 0 .12-.71zM432.18 447v3.53h3.2v1.7h-3.2v6.63c0 1.52.43 2.39 1.67 2.39a4.76 4.76 0 0 0 1.3-.16l.1 1.68a5.44 5.44 0 0 1-2 .3 3.09 3.09 0 0 1-2.41-.94A4.51 4.51 0 0 1 430 459v-6.71h-1.9v-1.7h1.9v-2.94zM440.38 447.1a1.39 1.39 0 0 1-2.77 0 1.36 1.36 0 0 1 1.4-1.4 1.33 1.33 0 0 1 1.37 1.4zm-2.49 15.74v-12.29h2.23v12.29zM455 456.59c0 4.55-3.15 6.53-6.12 6.53-3.33 0-5.89-2.44-5.89-6.32 0-4.12 2.69-6.53 6.09-6.53s5.92 2.57 5.92 6.32zm-9.75.13c0 2.69 1.55 4.72 3.73 4.72s3.73-2 3.73-4.77c0-2.08-1-4.72-3.68-4.72s-3.83 2.44-3.83 4.77zM457.77 453.88c0-1.27 0-2.31-.1-3.33h2l.12 2h.05a4.52 4.52 0 0 1 4.07-2.31c1.7 0 4.34 1 4.34 5.23v7.34H466v-7.08c0-2-.73-3.63-2.84-3.63a3.18 3.18 0 0 0-3 2.28 3.26 3.26 0 0 0-.15 1v7.39h-2.23zM471.55 460.56a5.88 5.88 0 0 0 2.95.88c1.62 0 2.39-.81 2.39-1.82s-.64-1.65-2.29-2.26c-2.21-.79-3.25-2-3.25-3.48 0-2 1.6-3.61 4.24-3.61a6.19 6.19 0 0 1 3 .76l-.56 1.63a4.72 4.72 0 0 0-2.51-.71c-1.32 0-2.06.76-2.06 1.67s.74 1.48 2.34 2.09c2.13.81 3.22 1.87 3.22 3.7 0 2.16-1.67 3.68-4.59 3.68a7.13 7.13 0 0 1-3.46-.83zM274.64 491.61h-5.2v-1.88h12.67v1.88h-5.23v15.23h-2.24zM282.79 498.39c0-1.45 0-2.7-.1-3.84h2l.07 2.41h.1a3.69 3.69 0 0 1 3.41-2.69 2.41 2.41 0 0 1 .63.08v2.11a2.91 2.91 0 0 0-.76-.08 3.13 3.13 0 0 0-3 2.87 6.33 6.33 0 0 0-.1 1v6.55h-2.21zM297.77 506.84l-.18-1.55h-.07a4.58 4.58 0 0 1-3.76 1.83 3.5 3.5 0 0 1-3.76-3.53c0-3 2.64-4.6 7.39-4.57v-.25a2.54 2.54 0 0 0-2.79-2.85 6.11 6.11 0 0 0-3.2.92l-.51-1.48a7.65 7.65 0 0 1 4-1.09c3.76 0 4.67 2.57 4.67 5v4.59a17.62 17.62 0 0 0 .2 2.95zm-.33-6.27c-2.44-.05-5.2.38-5.2 2.77a2 2 0 0 0 2.1 2.13 3.05 3.05 0 0 0 3-2.06 2.22 2.22 0 0 0 .13-.71zM303.2 497.88c0-1.27 0-2.31-.1-3.33h2l.13 2h.05a4.51 4.51 0 0 1 4.06-2.31c1.7 0 4.35 1 4.35 5.23v7.34h-2.24v-7.08c0-2-.74-3.63-2.84-3.63a3.17 3.17 0 0 0-3 2.28 3.26 3.26 0 0 0-.15 1v7.39h-2.26zM317 504.56a5.88 5.88 0 0 0 2.95.88c1.62 0 2.38-.81 2.38-1.82s-.63-1.65-2.28-2.26c-2.21-.79-3.25-2-3.25-3.48 0-2 1.6-3.61 4.24-3.61a6.22 6.22 0 0 1 3 .76l-.56 1.63A4.72 4.72 0 0 0 321 496c-1.32 0-2.06.76-2.06 1.67s.74 1.48 2.34 2.09c2.13.81 3.22 1.87 3.22 3.7 0 2.16-1.67 3.68-4.59 3.68a7.13 7.13 0 0 1-3.46-.83zM327.35 498.56c0-1.57-.05-2.84-.1-4h2l.1 2.11h.06a4.82 4.82 0 0 1 4.36-2.39c3 0 5.21 2.52 5.21 6.25 0 4.42-2.69 6.6-5.59 6.6a4.31 4.31 0 0 1-3.78-1.93h-.05v6.68h-2.21zm2.21 3.28a5.07 5.07 0 0 0 .1.91 3.45 3.45 0 0 0 3.35 2.62c2.36 0 3.73-1.93 3.73-4.75 0-2.46-1.29-4.57-3.65-4.57a3.56 3.56 0 0 0-3.38 2.77 3.47 3.47 0 0 0-.15.91zM352.92 500.59c0 4.55-3.15 6.53-6.12 6.53-3.33 0-5.89-2.44-5.89-6.32 0-4.12 2.69-6.53 6.09-6.53s5.92 2.57 5.92 6.32zm-9.75.13c0 2.69 1.54 4.72 3.73 4.72s3.73-2 3.73-4.77c0-2.08-1-4.72-3.68-4.72s-3.78 2.44-3.78 4.77zM355.73 498.39c0-1.45 0-2.7-.1-3.84h2l.07 2.41h.1a3.69 3.69 0 0 1 3.41-2.69 2.41 2.41 0 0 1 .63.08v2.11a2.91 2.91 0 0 0-.76-.08 3.14 3.14 0 0 0-3 2.87 6.33 6.33 0 0 0-.1 1v6.55h-2.21zM367.34 491v3.53h3.19v1.7h-3.19v6.63c0 1.52.43 2.39 1.67 2.39a4.76 4.76 0 0 0 1.3-.16l.1 1.68a5.44 5.44 0 0 1-2 .3 3.09 3.09 0 0 1-2.41-.94 4.51 4.51 0 0 1-.87-3.19v-6.71h-1.9v-1.7h1.9v-2.94zM379.85 506.84l-.18-1.55h-.07a4.58 4.58 0 0 1-3.76 1.83 3.5 3.5 0 0 1-3.76-3.53c0-3 2.64-4.6 7.39-4.57v-.25a2.54 2.54 0 0 0-2.79-2.85 6.11 6.11 0 0 0-3.2.92l-.51-1.48a7.65 7.65 0 0 1 4-1.09c3.76 0 4.67 2.57 4.67 5v4.59a17.62 17.62 0 0 0 .2 2.95zm-.33-6.27c-2.44-.05-5.2.38-5.2 2.77a2 2 0 0 0 2.1 2.13 3.05 3.05 0 0 0 3-2.06 2.22 2.22 0 0 0 .13-.71zM387.87 491v3.53h3.2v1.7h-3.2v6.63c0 1.52.44 2.39 1.68 2.39a4.82 4.82 0 0 0 1.3-.16l.1 1.68a5.44 5.44 0 0 1-2 .3 3.12 3.12 0 0 1-2.42-.94 4.56 4.56 0 0 1-.86-3.19v-6.71h-1.9v-1.7h1.9v-2.94zM396.07 491.1a1.31 1.31 0 0 1-1.42 1.37 1.33 1.33 0 0 1-1.34-1.37 1.36 1.36 0 0 1 1.39-1.4 1.33 1.33 0 0 1 1.37 1.4zm-2.48 15.74v-12.29h2.23v12.29zM410.65 500.59c0 4.55-3.15 6.53-6.12 6.53-3.33 0-5.89-2.44-5.89-6.32 0-4.12 2.69-6.53 6.09-6.53s5.92 2.57 5.92 6.32zm-9.75.13c0 2.69 1.55 4.72 3.73 4.72s3.73-2 3.73-4.77c0-2.08-1-4.72-3.68-4.72s-3.78 2.44-3.78 4.77zM413.47 497.88c0-1.27 0-2.31-.11-3.33h2l.13 2a4.51 4.51 0 0 1 4.06-2.31c1.71 0 4.35 1 4.35 5.23v7.34h-2.24v-7.08c0-2-.73-3.63-2.84-3.63a3.18 3.18 0 0 0-3 2.28 3.26 3.26 0 0 0-.15 1v7.39h-2.23zM432.94 497.88c0-1.27 0-2.31-.1-3.33h2l.1 2h.06a4.23 4.23 0 0 1 3.86-2.26 3.65 3.65 0 0 1 3.48 2.46h.05a5 5 0 0 1 1.37-1.59 4.2 4.2 0 0 1 2.72-.87c1.62 0 4 1.07 4 5.33v7.24h-2.18v-7c0-2.36-.86-3.78-2.67-3.78a2.89 2.89 0 0 0-2.64 2 3.75 3.75 0 0 0-.18 1.12v7.59h-2.18v-7.36c0-2-.86-3.38-2.56-3.38a3.33 3.33 0 0 0-2.95 3.33v7.41h-2.18zM460.92 506.84l-.18-1.55h-.08a4.55 4.55 0 0 1-3.76 1.83 3.5 3.5 0 0 1-3.75-3.53c0-3 2.64-4.6 7.39-4.57v-.25a2.54 2.54 0 0 0-2.8-2.85 6.14 6.14 0 0 0-3.2.92l-.5-1.48a7.58 7.58 0 0 1 4-1.09c3.76 0 4.67 2.57 4.67 5v4.59a17.55 17.55 0 0 0 .21 2.95zm-.33-6.27c-2.44-.05-5.21.38-5.21 2.77a2 2 0 0 0 2.11 2.13 3.06 3.06 0 0 0 3-2.06 2.22 2.22 0 0 0 .13-.71zM466.35 497.88c0-1.27 0-2.31-.1-3.33h2l.12 2h.06a4.51 4.51 0 0 1 4.06-2.31c1.7 0 4.34 1 4.34 5.23v7.34h-2.23v-7.08c0-2-.74-3.63-2.85-3.63a3.17 3.17 0 0 0-3 2.28 3 3 0 0 0-.16 1v7.39h-2.23zM487.24 506.84l-.17-1.55H487a4.56 4.56 0 0 1-3.76 1.83 3.5 3.5 0 0 1-3.76-3.53c0-3 2.65-4.6 7.39-4.57v-.25a2.54 2.54 0 0 0-2.79-2.85 6.11 6.11 0 0 0-3.2.92l-.51-1.48a7.65 7.65 0 0 1 4-1.09c3.76 0 4.67 2.57 4.67 5v4.59a16.55 16.55 0 0 0 .21 2.95zm-.33-6.27c-2.43-.05-5.2.38-5.2 2.77a2 2 0 0 0 2.11 2.13 3.06 3.06 0 0 0 3-2.06 2.52 2.52 0 0 0 .12-.71zM503.27 494.55c-.06.89-.11 1.88-.11 3.38v7.13c0 2.82-.56 4.55-1.75 5.61a6.5 6.5 0 0 1-4.47 1.48 8 8 0 0 1-4.09-1l.56-1.7a7 7 0 0 0 3.61 1c2.28 0 4-1.19 4-4.29v-1.37h-.05a4.38 4.38 0 0 1-3.91 2.06c-3 0-5.23-2.59-5.23-6 0-4.17 2.72-6.53 5.53-6.53a4.11 4.11 0 0 1 3.84 2.13l.1-1.85zM501 499.4a3.18 3.18 0 0 0-.12-1 3.23 3.23 0 0 0-3.18-2.4c-2.13 0-3.65 1.81-3.65 4.65 0 2.41 1.22 4.42 3.63 4.42a3.28 3.28 0 0 0 3.1-2.29 4.08 4.08 0 0 0 .17-1.19zM508.11 501.1c.05 3 2 4.27 4.22 4.27a8 8 0 0 0 3.4-.64l.38 1.6a9.89 9.89 0 0 1-4.09.76c-3.78 0-6-2.48-6-6.19s2.18-6.63 5.76-6.63c4 0 5.08 3.53 5.08 5.79a10 10 0 0 1-.07 1zm6.55-1.6c0-1.42-.58-3.63-3.09-3.63-2.26 0-3.25 2.08-3.43 3.63zM519.59 497.88c0-1.27 0-2.31-.1-3.33h2l.1 2h.08a4.24 4.24 0 0 1 3.86-2.26 3.63 3.63 0 0 1 3.48 2.46 5 5 0 0 1 1.37-1.59 4.2 4.2 0 0 1 2.72-.87c1.62 0 4 1.07 4 5.33v7.24H535v-7c0-2.36-.86-3.78-2.67-3.78a2.9 2.9 0 0 0-2.64 2 3.77 3.77 0 0 0-.17 1.12v7.59h-2.19v-7.36c0-2-.86-3.38-2.56-3.38a3.33 3.33 0 0 0-3 3.33v7.41h-2.18zM542 501.1c0 3 2 4.27 4.21 4.27a8 8 0 0 0 3.4-.64l.39 1.6a9.93 9.93 0 0 1-4.09.76c-3.79 0-6-2.48-6-6.19s2.19-6.63 5.77-6.63c4 0 5.08 3.53 5.08 5.79a7.43 7.43 0 0 1-.08 1zm6.55-1.6c0-1.42-.59-3.63-3.1-3.63-2.26 0-3.25 2.08-3.43 3.63zM553.48 497.88c0-1.27 0-2.31-.1-3.33h2l.13 2a4.51 4.51 0 0 1 4.06-2.31c1.7 0 4.34 1 4.34 5.23v7.34h-2.23v-7.08c0-2-.74-3.63-2.84-3.63a3.17 3.17 0 0 0-3 2.28 3.26 3.26 0 0 0-.15 1v7.39h-2.24zM570.16 491v3.53h3.2v1.7h-3.2v6.63c0 1.52.44 2.39 1.68 2.39a4.73 4.73 0 0 0 1.29-.16l.11 1.68a5.48 5.48 0 0 1-2 .3 3.11 3.11 0 0 1-2.42-.94A4.56 4.56 0 0 1 568 503v-6.71h-1.9v-1.7h1.9v-2.94zM136.41 93.92v5.29l-11.68-6.74 11.7-6.75V91h17.94V65.06h-38.74a1.11 1.11 0 0 0-1.23.68 5.31 5.31 0 0 1-3.09 2.73c-.42.15-.64.32-.64.84v21.21c0 .15 0 .3.07.55 1.68 0 3.33-.06 5 0a1.92 1.92 0 0 1 1.35.76 1.65 1.65 0 0 1-.07 1.45 1.86 1.86 0 0 1-1.34.63c-2.06.07-4.13 0-6.19 0-1.2 0-1.73-.51-1.75-1.7v-4.32V69.5a1 1 0 0 0-.74-1.17 5.83 5.83 0 0 1-3.58-6.52 5.89 5.89 0 0 1 11.44-.54c.08.23.15.47.23.72h3.5v-6.11a10.49 10.49 0 0 1 1-4.72c1.7-3.42 4.41-5.59 8.22-5.89a55.34 55.34 0 0 1 9.46 0 10.15 10.15 0 0 1 9.21 10.32v6.43h8.65c1.75 0 2.17.42 2.17 2.13v27.7c0 1.71-.36 2.07-2.09 2.07h-18.8zM143.53 62c0-2.41.13-4.72 0-7a7.34 7.34 0 0 0-7.16-6.86c-2.59-.07-5.19-.07-7.78 0a7.36 7.36 0 0 0-7 7.31v5.72c0 .27 0 .54.06.83zm-34.24-2a3 3 0 1 0-.13 6 3 3 0 0 0 .13-6zM100.42 82.91v-6.19c0-2.06-.93-3-3-3.07H86.06c-6 0-9.08-4.25-9.26-9-.14-3.66-.08-7.32 0-11a8.44 8.44 0 0 1 8.2-8.14 8.35 8.35 0 0 1 8.62 7.9c.15 3.59.06 7.19.05 10.79a1.46 1.46 0 0 1-1.42 1.56 1.5 1.5 0 0 1-1.53-1.65V56.6v-2.63a5.46 5.46 0 0 0-5.16-5.51 5.32 5.32 0 0 0-5.75 5.07c-.14 3.84-.15 7.69 0 11.53.16 3.5 2.66 5.64 6.23 5.67h11.27a6 6 0 0 1 4.92 2.08 5.53 5.53 0 0 1 1.17 3.59v12.95c0 1.21-.54 1.86-1.5 1.84s-1.44-.65-1.44-1.8c-.05-2.16-.04-4.32-.04-6.48zM132.52 28.93a7.34 7.34 0 1 1-7.35 7.3 7.31 7.31 0 0 1 7.35-7.3zm-4.38 7.29a4.42 4.42 0 0 0 4.44 4.47 4.44 4.44 0 0 0 0-8.88 4.44 4.44 0 0 0-4.44 4.41zM85.12 28.93a7.34 7.34 0 1 1-7.36 7.28 7.27 7.27 0 0 1 7.36-7.28zm4.41 7.31a4.46 4.46 0 0 0-4.4-4.43 4.44 4.44 0 1 0 0 8.88 4.43 4.43 0 0 0 4.4-4.45zM127.34 467.25c-1.35-.56-2.69-1.13-4-1.68a.8.8 0 0 1-.56-1.05 2.94 2.94 0 0 0-1.08-3.13c-1-.87-1.73-1.48-3-1.09a.88.88 0 0 1-1.18-.64c-.46-1.2-1-2.4-1.44-3.59a.79.79 0 0 1 .35-1.13 2.85 2.85 0 0 0 1.4-2.9 2.76 2.76 0 0 0-1.36-2.67.84.84 0 0 1-.39-1.19l1.5-3.67a.77.77 0 0 1 1-.55h.25a2.73 2.73 0 0 0 2.64-.91 3.41 3.41 0 0 0 1.3-3.56.9.9 0 0 1 .37-.71c1.31-.59 2.63-1.15 4-1.65a1 1 0 0 1 .89.31 3.24 3.24 0 0 0 3.23 1.52 2.79 2.79 0 0 0 2.7-1.34.93.93 0 0 1 1.34-.44c1.18.53 2.37 1 3.57 1.5a.74.74 0 0 1 .53 1 2.75 2.75 0 0 0 1.26 3.3 5.72 5.72 0 0 1 .75.8c.48.5.86.43 1-.26a41.33 41.33 0 0 0 .65-4.93A26.38 26.38 0 0 0 123.31 412a19 19 0 0 0-4.75-.63 38.39 38.39 0 0 0-7.74.4A26.28 26.28 0 0 0 90.4 433.5c-1.29 9.06 1.42 16.8 7.9 23.25l.56.49 2.65-3.46 4.34 10.31-11.09-1.39 2.59-3.47c-6.63-6.18-10-13.76-9.66-22.84s4.39-16.3 11.51-22L94.74 409l-3 2.52-1.56-1.86 7.82-6.59 1.57 1.85-3 2.51 4.54 5.5c1.75-.82 3.4-1.75 5.16-2.38s3.86-1 5.78-1.58a.9.9 0 0 0 .56-.6v-9.57a1 1 0 0 0-.09-.26h-5.39v-2.44h18.63v2.43h-5.35v10.2c2.11.59 4.15 1 6.1 1.76s3.77 1.71 5.7 2.6l4.67-5.66-3-2.51 1.55-1.86 7.91 6.6-1.56 1.85-2.97-2.51-4.65 5.62.75.64c8.65 7.57 12 17 9.88 28.32a2.68 2.68 0 0 0 .23 1.84c.39.77.62 1.63 1 2.43a1.17 1.17 0 0 1-.51 1.7c-.88.49-1 1.22-1.12 2.24a3.13 3.13 0 0 0 1.63 3.37 4 4 0 0 1 .33.24v.17c-.53 1.32-1.08 2.63-1.59 3.95a1.07 1.07 0 0 1-1.42.78 2.16 2.16 0 0 0-2.7 1l-.06.06a2.55 2.55 0 0 0-1.19 3.14c.17.55-.1.89-.62 1.1-1.32.54-2.63 1.1-3.94 1.65h-.34c-.9-.9-1.38-2.06-3.19-2a3.8 3.8 0 0 0-3.5 1.87 1 1 0 0 0-.08.14zm-2.1-4.6c.07.41 0 1 .23 1.28.66.68 1.32.56 1.94-.19a4.24 4.24 0 0 0 .43-.52c.31-.52.71-.56 1.28-.49a8.53 8.53 0 0 0 2.93.1 2.34 2.34 0 0 1 2.87 1.18.82.82 0 0 0 .65.36c1-.1 1.3-.5 1.22-1.48a4.66 4.66 0 0 0-.09-.75 1 1 0 0 1 .47-1.13 11 11 0 0 0 2.33-2.18 2.08 2.08 0 0 1 2.55-1.08c.72.21 1-.21 1.21-.79a.87.87 0 0 0-.39-1.26 2.32 2.32 0 0 1-.71-.6 2.25 2.25 0 0 1-.37-1.07 15.32 15.32 0 0 0 .05-3 2.05 2.05 0 0 1 1.08-2.5c.51-.31.54-.66.34-1.2-.25-.71-.6-1-1.36-.79a1.75 1.75 0 0 1-2.24-.9 5 5 0 0 0-1.62-1.7 2.28 2.28 0 0 1-1.25-2.82.93.93 0 0 0-.23-.79c-.8-.65-1.23-.57-1.87.21a5.64 5.64 0 0 0-.54.65.89.89 0 0 1-1 .39 9.79 9.79 0 0 0-3.18-.13 2.27 2.27 0 0 1-2.79-1.14.91.91 0 0 0-.64-.42 1.2 1.2 0 0 0-1.24 1.44 4.86 4.86 0 0 0 .06.85c.12.51-.09.78-.5 1.11a11.91 11.91 0 0 0-2.42 2.33 2 2 0 0 1-2.4.91.86.86 0 0 0-1.16.61c-.27.63-.3 1.09.36 1.48a2.31 2.31 0 0 1 .77.65 1.54 1.54 0 0 1 .3.85 21 21 0 0 0 0 3.36 1.81 1.81 0 0 1-.93 2.14 1 1 0 0 0-.49 1.46c.29.77.76.77 1.38.69a4.23 4.23 0 0 0 .5-.05c.68-.23 1 .12 1.44.63a15.9 15.9 0 0 0 2.29 2.35c.62.52 1.21.95.74 1.95zm-7.31-54v-10h-2.77v10z"/>
  <path class="cls-3" d="M99.66 428.56l1.24-2.06 3.25 1.94c3.12 1.87 6.24 3.73 9.34 5.62a1 1 0 0 0 1.13 0 3.92 3.92 0 0 1 4.87.79 4 4 0 0 1-4.1 6.5 3.79 3.79 0 0 1-2.78-4 1.34 1.34 0 0 0-.84-1.49q-5.62-3.34-11.24-6.73zm18.44 8.95a1.55 1.55 0 0 0-1.61-1.5 1.61 1.61 0 0 0-1.52 1.61 1.64 1.64 0 0 0 1.63 1.51 1.61 1.61 0 0 0 1.5-1.62zM131.08 444.33a7.82 7.82 0 1 1 0 15.64 7.82 7.82 0 1 1 0-15.64zm0 2.4a5.53 5.53 0 0 0-5.49 5.4 5.48 5.48 0 0 0 11 0 5.48 5.48 0 0 0-5.59-5.4zM82.51 266.67v-45.26h42.89c.21 0 .42 0 .71.05V230h14a1.18 1.18 0 0 1 1.12.57c3.26 4.78 6.55 9.53 9.81 14.3a2.44 2.44 0 0 1 .4 1.26v20.46h-9.76a.94.94 0 0 0-1.05.71 5.51 5.51 0 0 1-10.25-.05.88.88 0 0 0-1-.66h-24.57a.89.89 0 0 0-1 .67 5.51 5.51 0 0 1-10.28 0 .84.84 0 0 0-.94-.63H83.1c-.17-.03-.38.01-.59.04zm10.79-2.83c.07-.15.15-.32.22-.49a5.51 5.51 0 0 1 10.35-.07.8.8 0 0 0 .94.61h25.32c.9-2.58 2.63-4.15 5.39-4.16s4.55 1.55 5.43 4.09h7.72a3.39 3.39 0 0 0 0-.37v-16.71a1.78 1.78 0 0 0-.35-1c-2.85-4.17-5.72-8.32-8.57-12.49a1.11 1.11 0 0 0-1.06-.54H126.06v22.69H85.31v8.33zm-8-11.18h38v-28.52h-38zm16.17 12.61a2.76 2.76 0 0 0-2.71-2.82 2.79 2.79 0 1 0-.06 5.57 2.73 2.73 0 0 0 2.78-2.75zm31.3-.09a2.76 2.76 0 0 0 2.7 2.84 2.79 2.79 0 1 0 .11-5.57 2.76 2.76 0 0 0-2.8 2.73z"/>
  <path class="cls-3" d="M108 231.83v-4.28l11 6.34-11 6.33v-5.6H92.38v-2.79z"/>
  <path class="cls-3" d="M92.3 244.56l11-6.34v5.66h15.6v2.67h-15.57v4.38z"/>
</svg>
