<svg id="Layer_1" data-name="Layer 1" xmlns="http://www.w3.org/2000/svg" viewBox="0 0 350.5 351"><defs><style>.cls-1{fill:#fbc2ba;}.cls-2{fill:#f16c51;}.cls-3{fill:#fff;}</style></defs><title>immersive-entertainment</title><path class="cls-1" d="M221.2,135.15l-5.6-5.6L296.2,49A175,175,0,0,0,54.3,49l82,82-5.6,5.6-82-82a175,175,0,0,0,0,241.9l80.6-80.6,5.6,5.6-80.6,80.6a175,175,0,0,0,241.9,0L217,222.85l5.6-5.6,79.2,79.2a175,175,0,0,0,0-241.9l-80.6,80.6Z"/><circle id="_Path_" data-name="&lt;Path&gt;" class="cls-1" cx="175.3" cy="175.45" r="167.9"/><path class="cls-2" d="M128,133.75,53.8,59.55a167.88,167.88,0,0,0,0,231.8l74.2-74.2a63.08,63.08,0,0,1,0-83.4Zm89-5.6L291.2,54A167.88,167.88,0,0,0,59.4,54l74.2,74.2a63.08,63.08,0,0,1,83.4,0Zm-83.4,94.6L59.4,297a167.88,167.88,0,0,0,231.8,0L217,222.75a63.08,63.08,0,0,1-83.4,0Zm89-5.6,74.2,74.2a167.88,167.88,0,0,0,0-231.8l-74.2,74.2a63.08,63.08,0,0,1,0,83.4Z"/><path class="cls-3" d="M28.77,199.1a4.45,4.45,0,0,1-1.83.32,3.34,3.34,0,0,1-3.61-3.56,3.56,3.56,0,0,1,3.78-3.74,4,4,0,0,1,1.72.32l-.28,1a3.41,3.41,0,0,0-1.39-.28,2.36,2.36,0,0,0-2.47,2.61,2.32,2.32,0,0,0,2.46,2.55,3.77,3.77,0,0,0,1.41-.26Z"/><path class="cls-3" d="M34.68,196.71a2.53,2.53,0,0,1-2.62,2.72,2.48,2.48,0,0,1-2.57-2.64,2.53,2.53,0,0,1,2.65-2.7A2.45,2.45,0,0,1,34.68,196.71Zm-3.85,0c0,1,.48,1.74,1.27,1.74s1.25-.73,1.25-1.76c0-.8-.36-1.71-1.24-1.71S30.83,195.91,30.83,196.76Z"/><path class="cls-3" d="M35.74,195.72c0-.58,0-1.08,0-1.52h1.13l.07.77h0a1.84,1.84,0,0,1,1.62-.88c.9,0,1.82.57,1.82,2.19v3H39.08v-2.88c0-.74-.27-1.29-1-1.29a1.06,1.06,0,0,0-1,.75,1.12,1.12,0,0,0-.06.42v3h-1.3Z"/><path class="cls-3" d="M42.57,194.2l.83,2.59c.14.46.25.87.34,1.29h0c.1-.42.21-.82.35-1.29l.81-2.59h1.36l-1.95,5.11H43.07l-1.9-5.11Z"/><path class="cls-3" d="M48,197.12a1.38,1.38,0,0,0,1.57,1.32,3.8,3.8,0,0,0,1.42-.23l.19.89a4.82,4.82,0,0,1-1.79.32,2.41,2.41,0,0,1-2.63-2.58,2.53,2.53,0,0,1,2.49-2.75,2.22,2.22,0,0,1,2.21,2.48,3.35,3.35,0,0,1,0,.55Zm2.24-.9A1.1,1.1,0,0,0,49.18,195,1.25,1.25,0,0,0,48,196.22Z"/><path class="cls-3" d="M52.5,195.85c0-.69,0-1.19,0-1.65h1.12l0,1h.05a1.51,1.51,0,0,1,1.39-1.09,1.48,1.48,0,0,1,.31,0v1.21a2,2,0,0,0-.38,0,1.15,1.15,0,0,0-1.16,1,2.25,2.25,0,0,0,0,.4v2.64H52.5Z"/><path class="cls-3" d="M56.17,198.13a2.89,2.89,0,0,0,1.32.37c.56,0,.82-.24.82-.57s-.21-.53-.84-.75c-1-.34-1.42-.89-1.41-1.49,0-.9.74-1.6,1.93-1.6a2.93,2.93,0,0,1,1.35.3l-.25.91A2.37,2.37,0,0,0,58,195c-.46,0-.71.22-.71.53s.24.49.89.72c.92.33,1.35.81,1.36,1.56,0,.93-.72,1.6-2.07,1.6a3.33,3.33,0,0,1-1.56-.36Z"/><path class="cls-3" d="M63.49,199.31l-.08-.56h0a1.9,1.9,0,0,1-1.51.68,1.52,1.52,0,0,1-1.61-1.52c0-1.29,1.14-1.95,3-1.93v-.09c0-.33-.13-.89-1-.89a2.69,2.69,0,0,0-1.37.38l-.25-.84a3.66,3.66,0,0,1,1.84-.45,1.91,1.91,0,0,1,2.11,2.15v1.85a8.29,8.29,0,0,0,.08,1.22Zm-.17-2.49c-.91,0-1.78.17-1.78,1a.68.68,0,0,0,.73.74,1,1,0,0,0,1-.71,1,1,0,0,0,0-.28Z"/><path class="cls-3" d="M67.43,192.74v1.46h1.23v1H67.43v2.25c0,.62.17,1,.66,1a2.09,2.09,0,0,0,.51-.06l0,1a2.69,2.69,0,0,1-.94.13,1.5,1.5,0,0,1-1.11-.42,2.05,2.05,0,0,1-.4-1.43v-2.4h-.73v-1h.73v-1.15Z"/><path class="cls-3" d="M71,192.77a.73.73,0,0,1-1.45,0,.7.7,0,0,1,.73-.7A.69.69,0,0,1,71,192.77Zm-1.38,6.54V194.2h1.31v5.11Z"/><path class="cls-3" d="M77.18,196.71a2.53,2.53,0,0,1-2.62,2.72A2.47,2.47,0,0,1,72,196.79a2.52,2.52,0,0,1,2.64-2.7A2.45,2.45,0,0,1,77.18,196.71Zm-3.85,0c0,1,.48,1.74,1.27,1.74s1.25-.73,1.25-1.76c0-.8-.36-1.71-1.24-1.71S73.33,195.91,73.33,196.76Z"/><path class="cls-3" d="M78.25,195.72c0-.58,0-1.08,0-1.52h1.14l.06.77h0a1.85,1.85,0,0,1,1.63-.88c.89,0,1.82.57,1.82,2.19v3h-1.3v-2.88c0-.74-.27-1.29-1-1.29a1.08,1.08,0,0,0-1,.75,1.38,1.38,0,0,0,0,.42v3h-1.3Z"/><path class="cls-3" d="M87.13,199.31l-.09-.56h0a1.89,1.89,0,0,1-1.51.68,1.52,1.52,0,0,1-1.61-1.52c0-1.29,1.15-1.95,3-1.93v-.09c0-.33-.14-.89-1-.89a2.72,2.72,0,0,0-1.38.38l-.25-.84a3.7,3.7,0,0,1,1.85-.45,1.91,1.91,0,0,1,2.11,2.15v1.85a8.45,8.45,0,0,0,.07,1.22ZM87,196.82c-.91,0-1.79.17-1.79,1a.69.69,0,0,0,.74.74,1.06,1.06,0,0,0,1-.71,1,1,0,0,0,0-.28Z"/><path class="cls-3" d="M89.58,191.86h1.31v7.45H89.58Z"/><path class="cls-3" d="M95.93,197.31l-.61,2H94l2.27-7.07H97.9l2.3,7.07H98.81l-.64-2Zm2-1-.55-1.74c-.14-.43-.26-.91-.36-1.32h0c-.11.41-.21.9-.34,1.32l-.54,1.74Z"/><path class="cls-3" d="M102.48,192.24v7.07h-1.29v-7.07Z"/><path class="cls-3" d="M118.31,309.24v7.07H117v-7.07Z"/><path class="cls-3" d="M119.74,312.72c0-.58,0-1.08,0-1.52h1.11l0,.76h0a1.77,1.77,0,0,1,1.58-.87,1.46,1.46,0,0,1,1.41.94h0a1.84,1.84,0,0,1,.63-.64,1.67,1.67,0,0,1,1-.3c.85,0,1.72.57,1.72,2.21v3H126v-2.82c0-.85-.3-1.35-.92-1.35a1,1,0,0,0-.9.68,1.86,1.86,0,0,0-.06.43v3.06h-1.26v-3c0-.71-.29-1.21-.89-1.21a1,1,0,0,0-.92.73,1.16,1.16,0,0,0-.07.42v3h-1.26Z"/><path class="cls-3" d="M131.52,316.31l-.09-.56h0a1.89,1.89,0,0,1-1.51.68,1.52,1.52,0,0,1-1.61-1.52c0-1.29,1.15-2,3-1.93v-.09c0-.33-.14-.89-1-.89a2.75,2.75,0,0,0-1.38.38l-.25-.84a3.7,3.7,0,0,1,1.85-.45,1.91,1.91,0,0,1,2.11,2.15v1.85a8.45,8.45,0,0,0,.07,1.22Zm-.17-2.49c-.91,0-1.78.17-1.78.95a.68.68,0,0,0,.73.74,1.06,1.06,0,0,0,1-.71,1,1,0,0,0,0-.28Z"/><path class="cls-3" d="M138.65,311.2c0,.35,0,.77,0,1.47v2.9a2.47,2.47,0,0,1-2.73,2.94,3.64,3.64,0,0,1-1.79-.41l.28-1a3.13,3.13,0,0,0,1.5.39,1.35,1.35,0,0,0,1.46-1.54v-.44h0a1.71,1.71,0,0,1-1.49.75,2.27,2.27,0,0,1-2.17-2.5,2.44,2.44,0,0,1,2.32-2.69,1.6,1.6,0,0,1,1.48.79h0l.05-.68Zm-1.34,2.05a1.34,1.34,0,0,0,0-.35,1.08,1.08,0,0,0-1.05-.83c-.72,0-1.26.63-1.26,1.67,0,.87.44,1.58,1.25,1.58a1.11,1.11,0,0,0,1-.78,2.4,2.4,0,0,0,.05-.46Z"/><path class="cls-3" d="M140.91,314.12a1.38,1.38,0,0,0,1.57,1.32,3.8,3.8,0,0,0,1.42-.23l.19.89a4.78,4.78,0,0,1-1.79.32,2.41,2.41,0,0,1-2.63-2.58,2.53,2.53,0,0,1,2.5-2.75,2.22,2.22,0,0,1,2.2,2.48,3.35,3.35,0,0,1,0,.55Zm2.24-.9a1.1,1.1,0,0,0-1.06-1.25,1.25,1.25,0,0,0-1.18,1.25Z"/><path class="cls-3" d="M150.46,316.31l-.08-.56h0a1.89,1.89,0,0,1-1.51.68,1.51,1.51,0,0,1-1.6-1.52c0-1.29,1.14-2,3-1.93v-.09c0-.33-.14-.89-1-.89a2.69,2.69,0,0,0-1.37.38l-.26-.84a3.7,3.7,0,0,1,1.85-.45,1.91,1.91,0,0,1,2.11,2.15v1.85a7.11,7.11,0,0,0,.08,1.22Zm-.17-2.49c-.91,0-1.78.17-1.78.95a.68.68,0,0,0,.73.74,1,1,0,0,0,1-.71,1,1,0,0,0,0-.28Z"/><path class="cls-3" d="M152.92,312.72c0-.58,0-1.08,0-1.52H154l.06.77h0a1.85,1.85,0,0,1,1.63-.88c.89,0,1.82.57,1.82,2.19v3h-1.29v-2.88c0-.74-.28-1.29-1-1.29a1.08,1.08,0,0,0-1,.75,1.38,1.38,0,0,0-.05.42v3h-1.3Z"/><path class="cls-3" d="M163.64,308.86v6c0,.52,0,1.09,0,1.43h-1.16l-.05-.8h0a1.84,1.84,0,0,1-1.67.92,2.34,2.34,0,0,1-2.18-2.61,2.43,2.43,0,0,1,2.29-2.73,1.61,1.61,0,0,1,1.43.67h0v-2.9Zm-1.29,4.47a1.86,1.86,0,0,0,0-.33,1.12,1.12,0,0,0-1.11-.92c-.83,0-1.29.74-1.29,1.69s.46,1.62,1.28,1.62a1.14,1.14,0,0,0,1.11-.91,1.52,1.52,0,0,0,0-.38Z"/><path class="cls-3" d="M168,311.2l.82,2.59a12.55,12.55,0,0,1,.35,1.29h0c.1-.42.21-.82.35-1.29l.81-2.59h1.36l-2,5.11h-1.27l-1.9-5.11Z"/><path class="cls-3" d="M173.91,309.77a.69.69,0,0,1-.74.7.68.68,0,0,1-.71-.7.69.69,0,0,1,.72-.7A.7.7,0,0,1,173.91,309.77Zm-1.38,6.54V311.2h1.3v5.11Z"/><path class="cls-3" d="M179.93,308.86v6c0,.52,0,1.09,0,1.43h-1.15l0-.8h0a1.86,1.86,0,0,1-1.67.92,2.34,2.34,0,0,1-2.19-2.61,2.43,2.43,0,0,1,2.29-2.73,1.63,1.63,0,0,1,1.44.67h0v-2.9Zm-1.29,4.47a1.84,1.84,0,0,0,0-.33,1.14,1.14,0,0,0-1.11-.92c-.83,0-1.29.74-1.29,1.69s.46,1.62,1.28,1.62a1.15,1.15,0,0,0,1.11-.91,1.53,1.53,0,0,0,0-.38Z"/><path class="cls-3" d="M182.23,314.12a1.39,1.39,0,0,0,1.58,1.32,3.71,3.71,0,0,0,1.41-.23l.19.89a4.76,4.76,0,0,1-1.78.32,2.42,2.42,0,0,1-2.64-2.58,2.53,2.53,0,0,1,2.5-2.75,2.22,2.22,0,0,1,2.21,2.48,2.38,2.38,0,0,1,0,.55Zm2.25-.9a1.1,1.1,0,0,0-1.06-1.25,1.27,1.27,0,0,0-1.19,1.25Z"/><path class="cls-3" d="M191.6,313.71a2.53,2.53,0,0,1-2.63,2.72,2.47,2.47,0,0,1-2.56-2.64,2.52,2.52,0,0,1,2.65-2.7A2.45,2.45,0,0,1,191.6,313.71Zm-3.85.05c0,1,.48,1.74,1.27,1.74s1.24-.73,1.24-1.76c0-.8-.35-1.71-1.23-1.71S187.75,312.91,187.75,313.76Z"/><path class="cls-3" d="M197.71,316.31l-.08-.56h0a1.89,1.89,0,0,1-1.51.68,1.51,1.51,0,0,1-1.6-1.52c0-1.29,1.14-2,3-1.93v-.09c0-.33-.14-.89-1-.89a2.75,2.75,0,0,0-1.38.38l-.25-.84a3.7,3.7,0,0,1,1.85-.45,1.91,1.91,0,0,1,2.11,2.15v1.85a8.45,8.45,0,0,0,.07,1.22Zm-.17-2.49c-.91,0-1.78.17-1.78.95a.68.68,0,0,0,.73.74,1,1,0,0,0,1-.71,1,1,0,0,0,0-.28Z"/><path class="cls-3" d="M200.17,312.72c0-.58,0-1.08,0-1.52h1.14l.06.77h0a1.85,1.85,0,0,1,1.63-.88c.89,0,1.82.57,1.82,2.19v3h-1.3v-2.88c0-.74-.27-1.29-1-1.29a1.08,1.08,0,0,0-1,.75,1.38,1.38,0,0,0-.05.42v3h-1.3Z"/><path class="cls-3" d="M209.05,316.31l-.09-.56h0a1.89,1.89,0,0,1-1.51.68,1.51,1.51,0,0,1-1.6-1.52c0-1.29,1.14-2,3-1.93v-.09c0-.33-.14-.89-1-.89a2.75,2.75,0,0,0-1.38.38l-.25-.84a3.7,3.7,0,0,1,1.85-.45,1.91,1.91,0,0,1,2.11,2.15v1.85a8.45,8.45,0,0,0,.07,1.22Zm-.17-2.49c-.91,0-1.78.17-1.78.95a.68.68,0,0,0,.73.74,1,1,0,0,0,1-.71,1,1,0,0,0,0-.28Z"/><path class="cls-3" d="M211.51,308.86h1.3v7.45h-1.3Z"/><path class="cls-3" d="M215,311.2l.93,2.74c.1.32.21.7.28,1h0c.09-.3.18-.67.27-1l.8-2.73h1.39l-1.28,3.49c-.71,1.91-1.18,2.76-1.79,3.28a2.58,2.58,0,0,1-1.35.66l-.3-1.09a2.31,2.31,0,0,0,.76-.35,2.26,2.26,0,0,0,.7-.81.48.48,0,0,0,.09-.23.51.51,0,0,0-.08-.26l-1.86-4.69Z"/><path class="cls-3" d="M220.93,309.74v1.46h1.23v1h-1.23v2.25c0,.62.17.95.67.95a2,2,0,0,0,.5-.06l0,1a2.63,2.63,0,0,1-.93.13,1.52,1.52,0,0,1-1.12-.42,2.05,2.05,0,0,1-.4-1.43v-2.4h-.73v-1h.73v-1.15Z"/><path class="cls-3" d="M224.52,309.77a.69.69,0,0,1-.74.7.68.68,0,0,1-.71-.7.69.69,0,0,1,.72-.7A.7.7,0,0,1,224.52,309.77Zm-1.38,6.54V311.2h1.3v5.11Z"/><path class="cls-3" d="M229.59,316.16a3.9,3.9,0,0,1-1.45.26,2.46,2.46,0,0,1-2.64-2.6,2.64,2.64,0,0,1,2.85-2.73,3.2,3.2,0,0,1,1.25.24l-.23,1a2.37,2.37,0,0,0-1-.2,1.66,1.66,0,0,0,0,3.31,2.45,2.45,0,0,0,1-.2Z"/><path class="cls-3" d="M230.48,315.13a2.85,2.85,0,0,0,1.31.37c.57,0,.82-.24.82-.57s-.21-.53-.84-.75c-1-.34-1.42-.89-1.41-1.49a1.71,1.71,0,0,1,1.93-1.6,3,3,0,0,1,1.36.3l-.25.91a2.37,2.37,0,0,0-1.08-.29c-.47,0-.72.22-.72.53s.24.49.9.72c.92.33,1.35.81,1.36,1.56,0,.93-.73,1.6-2.08,1.6a3.28,3.28,0,0,1-1.55-.36Z"/><path class="cls-3" d="M241.92,192.24v7.07h-1.29v-7.07Z"/><path class="cls-3" d="M243.35,195.72c0-.58,0-1.08,0-1.52h1.14l.06.77h0a1.85,1.85,0,0,1,1.63-.88c.89,0,1.82.57,1.82,2.19v3h-1.29v-2.88c0-.74-.28-1.29-1-1.29a1.08,1.08,0,0,0-1,.75,1.38,1.38,0,0,0,0,.42v3h-1.3Z"/><path class="cls-3" d="M250.83,192.74v1.46h1.23v1h-1.23v2.25c0,.62.17,1,.66,1a2.09,2.09,0,0,0,.51-.06l0,1a2.69,2.69,0,0,1-.94.13A1.5,1.5,0,0,1,250,199a2.05,2.05,0,0,1-.4-1.43v-2.4h-.73v-1h.73v-1.15Z"/><path class="cls-3" d="M254,197.12a1.39,1.39,0,0,0,1.58,1.32,3.74,3.74,0,0,0,1.41-.23l.19.89a4.76,4.76,0,0,1-1.78.32,2.42,2.42,0,0,1-2.64-2.58,2.53,2.53,0,0,1,2.5-2.75,2.22,2.22,0,0,1,2.21,2.48,3.12,3.12,0,0,1-.05.55Zm2.25-.9a1.1,1.1,0,0,0-1.06-1.25,1.26,1.26,0,0,0-1.19,1.25Z"/><path class="cls-3" d="M258.46,195.85c0-.69,0-1.19,0-1.65h1.13l0,1h0a1.51,1.51,0,0,1,1.4-1.09,1.39,1.39,0,0,1,.3,0v1.21a1.84,1.84,0,0,0-.38,0,1.13,1.13,0,0,0-1.15,1,2.25,2.25,0,0,0,0,.4v2.64h-1.29Z"/><path class="cls-3" d="M265.07,199.31l-.08-.56h0a1.92,1.92,0,0,1-1.52.68,1.51,1.51,0,0,1-1.6-1.52c0-1.29,1.14-1.95,3-1.93v-.09c0-.33-.14-.89-1-.89a2.69,2.69,0,0,0-1.37.38l-.26-.84a3.7,3.7,0,0,1,1.85-.45,1.91,1.91,0,0,1,2.11,2.15v1.85a7.11,7.11,0,0,0,.08,1.22Zm-.17-2.49c-.91,0-1.78.17-1.78,1a.68.68,0,0,0,.73.74,1,1,0,0,0,1-.71,1,1,0,0,0,0-.28Z"/><path class="cls-3" d="M271.29,199.16a3.9,3.9,0,0,1-1.45.26,2.46,2.46,0,0,1-2.64-2.6,2.64,2.64,0,0,1,2.85-2.73,3.2,3.2,0,0,1,1.25.24l-.23,1a2.37,2.37,0,0,0-1-.2,1.66,1.66,0,0,0,0,3.31,2.45,2.45,0,0,0,1-.2Z"/><path class="cls-3" d="M273.72,192.74v1.46H275v1h-1.23v2.25c0,.62.17,1,.66,1a2.09,2.09,0,0,0,.51-.06l0,1a2.69,2.69,0,0,1-.94.13,1.5,1.5,0,0,1-1.11-.42,2.05,2.05,0,0,1-.4-1.43v-2.4h-.73v-1h.73v-1.15Z"/><path class="cls-3" d="M277.3,192.77a.73.73,0,0,1-1.45,0,.7.7,0,0,1,.73-.7A.69.69,0,0,1,277.3,192.77Zm-1.37,6.54V194.2h1.3v5.11Z"/><path class="cls-3" d="M279.43,194.2l.83,2.59a12.55,12.55,0,0,1,.35,1.29h0c.1-.42.21-.82.35-1.29l.81-2.59h1.36l-2,5.11h-1.27L278,194.2Z"/><path class="cls-3" d="M284.86,197.12a1.39,1.39,0,0,0,1.58,1.32,3.71,3.71,0,0,0,1.41-.23l.19.89a4.76,4.76,0,0,1-1.78.32,2.42,2.42,0,0,1-2.64-2.58,2.53,2.53,0,0,1,2.5-2.75,2.22,2.22,0,0,1,2.21,2.48,3.35,3.35,0,0,1,0,.55Zm2.25-.9a1.1,1.1,0,0,0-1.06-1.25,1.27,1.27,0,0,0-1.19,1.25Z"/><path class="cls-3" d="M295.3,199.16a3.86,3.86,0,0,1-1.45.26,2.46,2.46,0,0,1-2.64-2.6,2.65,2.65,0,0,1,2.85-2.73,3.16,3.16,0,0,1,1.25.24l-.23,1a2.37,2.37,0,0,0-1-.2,1.66,1.66,0,0,0,0,3.31,2.45,2.45,0,0,0,1-.2Z"/><path class="cls-3" d="M301.12,196.71a2.54,2.54,0,0,1-2.63,2.72,2.47,2.47,0,0,1-2.56-2.64,2.52,2.52,0,0,1,2.65-2.7A2.45,2.45,0,0,1,301.12,196.71Zm-3.86,0c0,1,.49,1.74,1.27,1.74s1.25-.73,1.25-1.76c0-.8-.35-1.71-1.24-1.71S297.26,195.91,297.26,196.76Z"/><path class="cls-3" d="M302.18,195.72c0-.58,0-1.08-.05-1.52h1.14l.06.77h0a1.85,1.85,0,0,1,1.63-.88c.89,0,1.82.57,1.82,2.19v3h-1.29v-2.88c0-.74-.28-1.29-1-1.29a1.08,1.08,0,0,0-1,.75,1.38,1.38,0,0,0,0,.42v3h-1.3Z"/><path class="cls-3" d="M309.66,192.74v1.46h1.23v1h-1.23v2.25c0,.62.17,1,.66,1a2.09,2.09,0,0,0,.51-.06l0,1a2.67,2.67,0,0,1-.93.13,1.51,1.51,0,0,1-1.12-.42,2.05,2.05,0,0,1-.4-1.43v-2.4h-.73v-1h.73v-1.15Z"/><path class="cls-3" d="M312.78,197.12a1.39,1.39,0,0,0,1.58,1.32,3.74,3.74,0,0,0,1.41-.23l.19.89a4.76,4.76,0,0,1-1.78.32,2.42,2.42,0,0,1-2.64-2.58,2.53,2.53,0,0,1,2.5-2.75,2.22,2.22,0,0,1,2.21,2.48,3.12,3.12,0,0,1-.05.55Zm2.25-.9A1.1,1.1,0,0,0,314,195a1.26,1.26,0,0,0-1.19,1.25Z"/><path class="cls-3" d="M317.29,195.72c0-.58,0-1.08-.05-1.52h1.14l.06.77h0a1.85,1.85,0,0,1,1.63-.88c.89,0,1.82.57,1.82,2.19v3h-1.29v-2.88c0-.74-.28-1.29-1-1.29a1.08,1.08,0,0,0-1,.75,1.38,1.38,0,0,0-.05.42v3h-1.3Z"/><path class="cls-3" d="M324.77,192.74v1.46H326v1h-1.23v2.25c0,.62.17,1,.66,1a2.09,2.09,0,0,0,.51-.06l0,1a2.69,2.69,0,0,1-.94.13,1.5,1.5,0,0,1-1.11-.42,2.05,2.05,0,0,1-.4-1.43v-2.4h-.73v-1h.73v-1.15Z"/><path class="cls-3" d="M266.72,202.86v6c0,.52,0,1.09,0,1.43h-1.15l-.06-.8h0a1.84,1.84,0,0,1-1.67.92,2.34,2.34,0,0,1-2.18-2.61,2.43,2.43,0,0,1,2.29-2.73,1.64,1.64,0,0,1,1.44.67h0v-2.9Zm-1.29,4.47a1.84,1.84,0,0,0,0-.33,1.14,1.14,0,0,0-1.12-.92c-.83,0-1.29.74-1.29,1.69s.46,1.62,1.28,1.62a1.13,1.13,0,0,0,1.11-.91,1.17,1.17,0,0,0,.05-.38Z"/><path class="cls-3" d="M269.48,203.77a.73.73,0,0,1-1.45,0,.7.7,0,0,1,.73-.7A.69.69,0,0,1,269.48,203.77Zm-1.37,6.54V205.2h1.3v5.11Z"/><path class="cls-3" d="M270.73,209.13a2.85,2.85,0,0,0,1.31.37c.57,0,.82-.24.82-.57s-.21-.53-.84-.75c-1-.34-1.42-.89-1.41-1.49,0-.9.75-1.6,1.94-1.6a3,3,0,0,1,1.35.3l-.25.91a2.37,2.37,0,0,0-1.08-.29c-.46,0-.72.22-.72.53s.24.49.9.72c.92.33,1.35.81,1.36,1.56,0,.93-.72,1.6-2.08,1.6a3.28,3.28,0,0,1-1.55-.36Z"/><path class="cls-3" d="M278.93,210.16a3.86,3.86,0,0,1-1.45.26,2.45,2.45,0,0,1-2.63-2.6,2.64,2.64,0,0,1,2.84-2.73,3.16,3.16,0,0,1,1.25.24l-.23,1a2.33,2.33,0,0,0-1-.2,1.66,1.66,0,0,0,0,3.31,2.45,2.45,0,0,0,1-.2Z"/><path class="cls-3" d="M284.75,207.71a2.54,2.54,0,0,1-2.63,2.72,2.47,2.47,0,0,1-2.56-2.64,2.52,2.52,0,0,1,2.65-2.7A2.45,2.45,0,0,1,284.75,207.71Zm-3.86,0c0,1,.49,1.74,1.27,1.74s1.25-.73,1.25-1.76c0-.8-.35-1.71-1.24-1.71S280.89,206.91,280.89,207.76Z"/><path class="cls-3" d="M286.63,205.2l.83,2.59c.14.46.25.87.34,1.29h0c.1-.42.21-.82.35-1.29l.81-2.59h1.36l-2,5.11h-1.27l-1.9-5.11Z"/><path class="cls-3" d="M292.05,208.12a1.4,1.4,0,0,0,1.58,1.32,3.8,3.8,0,0,0,1.42-.23l.19.89a4.82,4.82,0,0,1-1.79.32,2.41,2.41,0,0,1-2.63-2.58,2.53,2.53,0,0,1,2.49-2.75,2.22,2.22,0,0,1,2.21,2.48,3.35,3.35,0,0,1,0,.55Zm2.25-.9a1.1,1.1,0,0,0-1.06-1.25,1.27,1.27,0,0,0-1.19,1.25Z"/><path class="cls-3" d="M296.56,206.85c0-.69,0-1.19,0-1.65h1.12l0,1h0a1.53,1.53,0,0,1,1.4-1.09,1.48,1.48,0,0,1,.31,0v1.21a1.92,1.92,0,0,0-.38,0,1.15,1.15,0,0,0-1.16,1,2.25,2.25,0,0,0,0,.4v2.64h-1.29Z"/><path class="cls-3" d="M301.11,205.2l.92,2.74c.1.32.21.7.28,1h0c.09-.3.18-.67.28-1l.8-2.73h1.38l-1.28,3.49c-.7,1.91-1.18,2.76-1.78,3.28a2.61,2.61,0,0,1-1.36.66l-.29-1.09a2.27,2.27,0,0,0,.75-.35,2.38,2.38,0,0,0,.71-.81.57.57,0,0,0,.08-.23.58.58,0,0,0-.07-.26l-1.87-4.69Z"/><path class="cls-3" d="M142.78,90.31l-2.29-7.07h1.41l1,3.21c.28.89.51,1.72.7,2.58h0c.19-.84.44-1.7.72-2.56l1-3.23h1.38l-2.45,7.07Z"/><path class="cls-3" d="M148.8,83.77a.69.69,0,0,1-.74.7.68.68,0,0,1-.71-.7.69.69,0,0,1,.72-.7A.7.7,0,0,1,148.8,83.77Zm-1.38,6.54V85.2h1.3v5.11Z"/><path class="cls-3" d="M150.11,86.85c0-.69,0-1.19,0-1.65h1.12l0,1h0a1.52,1.52,0,0,1,1.4-1.09,1.32,1.32,0,0,1,.3,0v1.21a1.82,1.82,0,0,0-.37,0,1.15,1.15,0,0,0-1.16,1,2.25,2.25,0,0,0,0,.4v2.64h-1.29Z"/><path class="cls-3" d="M155.33,83.74V85.2h1.22v1h-1.22v2.25c0,.62.16,1,.66,1a1.93,1.93,0,0,0,.5-.06l0,1a2.63,2.63,0,0,1-.93.13,1.5,1.5,0,0,1-1.11-.42,2,2,0,0,1-.4-1.43v-2.4h-.74v-1h.74V84.05Z"/><path class="cls-3" d="M162.11,88.78c0,.61,0,1.11,0,1.53H161l-.07-.77h0a1.86,1.86,0,0,1-1.64.89c-.93,0-1.78-.56-1.78-2.23v-3h1.29V88c0,.85.28,1.4,1,1.4a1.08,1.08,0,0,0,1-.69,1.06,1.06,0,0,0,.08-.4V85.2h1.29Z"/><path class="cls-3" d="M166.38,90.31l-.08-.56h0a1.91,1.91,0,0,1-1.52.68,1.52,1.52,0,0,1-1.6-1.52c0-1.29,1.14-2,3-1.93v-.09c0-.33-.13-.89-1-.89a2.71,2.71,0,0,0-1.37.38l-.25-.84a3.66,3.66,0,0,1,1.84-.45,1.91,1.91,0,0,1,2.11,2.15v1.85a8.29,8.29,0,0,0,.08,1.22Zm-.17-2.49c-.91,0-1.78.17-1.78,1a.68.68,0,0,0,.73.74,1,1,0,0,0,1-.71,1,1,0,0,0,0-.28Z"/><path class="cls-3" d="M168.84,82.86h1.3v7.45h-1.3Z"/><path class="cls-3" d="M173.65,89.13a2.85,2.85,0,0,0,1.31.37c.57,0,.82-.24.82-.57s-.21-.53-.84-.75c-1-.34-1.42-.89-1.41-1.49a1.71,1.71,0,0,1,1.93-1.6,3,3,0,0,1,1.36.3l-.25.91a2.37,2.37,0,0,0-1.08-.29c-.47,0-.72.22-.72.53s.24.49.89.72c.93.33,1.36.81,1.37,1.56,0,.93-.73,1.6-2.08,1.6a3.25,3.25,0,0,1-1.55-.36Z"/><path class="cls-3" d="M179.57,83.74V85.2h1.23v1h-1.23v2.25c0,.62.17,1,.66,1a2.09,2.09,0,0,0,.51-.06l0,1a2.69,2.69,0,0,1-.94.13,1.5,1.5,0,0,1-1.11-.42,2.05,2.05,0,0,1-.4-1.43v-2.4h-.73v-1h.73V84.05Z"/><path class="cls-3" d="M184.65,90.31l-.08-.56h0a1.9,1.9,0,0,1-1.51.68,1.52,1.52,0,0,1-1.61-1.52c0-1.29,1.14-2,3-1.93v-.09c0-.33-.13-.89-1-.89a2.69,2.69,0,0,0-1.37.38l-.25-.84a3.66,3.66,0,0,1,1.84-.45,1.91,1.91,0,0,1,2.11,2.15v1.85a7.11,7.11,0,0,0,.08,1.22Zm-.17-2.49c-.91,0-1.78.17-1.78,1a.68.68,0,0,0,.73.74,1,1,0,0,0,1-.71,1,1,0,0,0,0-.28Z"/><path class="cls-3" d="M191.82,82.86v6c0,.52,0,1.09.05,1.43h-1.16l-.05-.8h0a1.86,1.86,0,0,1-1.67.92,2.34,2.34,0,0,1-2.19-2.61,2.43,2.43,0,0,1,2.29-2.73,1.62,1.62,0,0,1,1.44.67h0v-2.9Zm-1.29,4.47a1.84,1.84,0,0,0,0-.33,1.13,1.13,0,0,0-1.11-.92c-.83,0-1.29.74-1.29,1.69s.46,1.62,1.28,1.62a1.15,1.15,0,0,0,1.11-.91,1.53,1.53,0,0,0,0-.38Z"/><path class="cls-3" d="M194.58,83.77a.72.72,0,1,1-.72-.7A.69.69,0,0,1,194.58,83.77Zm-1.37,6.54V85.2h1.3v5.11Z"/><path class="cls-3" d="M200.47,88.78c0,.61,0,1.11.05,1.53h-1.14l-.06-.77h0a1.86,1.86,0,0,1-1.64.89c-.93,0-1.78-.56-1.78-2.23v-3h1.29V88c0,.85.27,1.4,1,1.4a1.1,1.1,0,0,0,1-.69,1.29,1.29,0,0,0,.07-.4V85.2h1.29Z"/><path class="cls-3" d="M201.87,86.72c0-.58,0-1.08,0-1.52h1.11L203,86h0a1.76,1.76,0,0,1,1.57-.87A1.47,1.47,0,0,1,206,86h0a2,2,0,0,1,.63-.64,1.7,1.7,0,0,1,1-.3c.85,0,1.71.57,1.71,2.21v3h-1.26V87.49c0-.85-.29-1.35-.91-1.35a1,1,0,0,0-.91.68,1.86,1.86,0,0,0-.06.43v3.06H205v-3c0-.71-.28-1.21-.88-1.21a1.17,1.17,0,0,0-1,1.15v3h-1.26Z"/><path class="cls-3" d="M162.92,74l.11-1.71h7.47V64.9H153.38V47.64h-3.13l4-6.92,4,6.91h-3.08v15.5h43.27v-30c-.21,0-.43,0-.65,0H158.9a.79.79,0,0,0-.86.57,3.42,3.42,0,0,1-3.89,2,3.49,3.49,0,0,1,0-6.8,3.4,3.4,0,0,1,3.88,1.9,1,1,0,0,0,1.06.65h40.32l.87,0V64.87l-.81,0H182.88v7.37h6.88V74Zm9.39-1.78h8.77V65h-8.77ZM156.64,32.28a1.76,1.76,0,0,0-3.51-.1,1.76,1.76,0,1,0,3.51.1Z"/><path class="cls-3" d="M160.18,45.22V37.67h8v7.55Zm1.39-1.38h5.24V39.07h-5.24Z"/><path class="cls-3" d="M180.61,45.22h-8V37.66h8Zm-6.6-1.4h5.22V39.06H174Z"/><path class="cls-3" d="M160.21,50.19h8v7.54h-8Zm1.36,6.14h5.23V51.57h-5.23Z"/><path class="cls-3" d="M180.62,57.72h-8V50.2h8Zm-1.38-1.38V51.57H174v4.77Z"/><path class="cls-3" d="M185,45.21V37.68h8v7.53Zm1.4-6.15v4.77h5.26V39.06Z"/><path class="cls-3" d="M185.06,50.19h8v7.52h-8Zm6.64,6.17V51.57h-5.26v4.79Z"/><path class="cls-3" d="M171.88,269.46a5.33,5.33,0,0,1,5.58-1,.55.55,0,0,0,.45-.17c2.5-3.07,5-6.16,7.44-9.18a9.92,9.92,0,0,1-.51-1.83,3,3,0,0,1,2-3.11,3.24,3.24,0,0,1,3.69,1,3.08,3.08,0,0,1,.22,3.6,3.2,3.2,0,0,1-3.51,1.36.73.73,0,0,0-.9.28c-2.3,2.89-4.62,5.75-6.94,8.62l-.38.47a5.1,5.1,0,0,1,1.51,4.22l4.14.78c2.32.44,4.64.85,7,1.31a.73.73,0,0,0,.86-.37,3.24,3.24,0,0,1,4.42-.67,3.1,3.1,0,0,1,.87,4.18,3.26,3.26,0,0,1-3.33,1.45,3.14,3.14,0,0,1-2.56-2.56c-.05-.29-.12-.45-.46-.51-3.68-.67-7.35-1.37-11-2.05a.47.47,0,0,0-.41.14,5.3,5.3,0,0,1-3.73,2.63v9.83h2.67l-3.53,6-3.51-5.93h2.73v-9.85c-2.12-.78-2.12-.78-3.35-2.06l-2.69,1.68c-2.16,1.36-4.31,2.72-6.49,4.06a.62.62,0,0,0-.33.77,3,3,0,0,1-1.59,3.24,3.26,3.26,0,0,1-3.74-.44,3.06,3.06,0,0,1-.76-3.53,3.09,3.09,0,0,1,3.15-1.86,11.21,11.21,0,0,1,1.69.57c.18.06.45.12.58,0,3.12-1.93,6.22-3.88,9.33-5.83l.15-.1a5,5,0,0,1,.26-3.67.48.48,0,0,0-.11-.42q-2.16-2-4.36-3.89c-.12-.11-.45-.06-.63,0a3.28,3.28,0,0,1-4.2-1.44,3.12,3.12,0,0,1,.7-3.73,3.29,3.29,0,0,1,3.95-.28,3,3,0,0,1,1.24,3.57.72.72,0,0,0,.27.94C169.07,266.92,170.46,268.18,171.88,269.46Zm0,3.62a3.49,3.49,0,0,0,3.52,3.51A3.54,3.54,0,0,0,179,273.1a3.49,3.49,0,0,0-3.54-3.49A3.45,3.45,0,0,0,171.87,273.08ZM188,258.74a1.66,1.66,0,0,0,1.68-1.63,1.68,1.68,0,0,0-1.67-1.65,1.64,1.64,0,1,0,0,3.28Zm-22,5a1.66,1.66,0,0,0-3.32,0,1.64,1.64,0,0,0,1.68,1.62A1.62,1.62,0,0,0,166,263.78Zm30.64,13.54a1.62,1.62,0,0,0-1.64-1.65,1.65,1.65,0,0,0-1.68,1.63,1.63,1.63,0,0,0,1.66,1.64A1.6,1.6,0,0,0,196.67,277.32Zm-38,4.09a1.62,1.62,0,1,0-.09,3.24,1.62,1.62,0,1,0,.09-3.24Z"/><path class="cls-3" d="M150.25,297.76l7.71-7.41,1,1.15-4.86,4.68h42L191,291.44l1.07-1.13,8.15,7.45Z"/><path class="cls-3" d="M73.71,170.69H66.37c0,.24,0,.43,0,.61,0,.93,0,1.86,0,2.79,0,.54.1.8.66,1a3.51,3.51,0,0,1,2.36,4.13A3.59,3.59,0,1,1,64.92,175l.32-.07v-4.18l-.59,0H51.34c-.4,0-.61.07-.76.5A2.81,2.81,0,0,1,47.32,173a2.93,2.93,0,0,1-2.27-2.8,2.9,2.9,0,0,1,2.22-2.77,2.79,2.79,0,0,1,3.29,1.72.69.69,0,0,0,.79.54c.83,0,1.66,0,2.52,0V148.48H48.43c0,1,0,2,0,3,0,.13.3.3.49.37a2.85,2.85,0,0,1,1.82,2.66A2.8,2.8,0,0,1,49,157.15a2.86,2.86,0,0,1-2.18-5.29,5.29,5.29,0,0,1,.57-.21V151c0-4.2,0-8.41,0-12.61,0-.43-.07-.67-.54-.84a2.81,2.81,0,0,1-1.79-2.84,2.93,2.93,0,0,1,2.65-2.66,2.85,2.85,0,0,1,2.84,1.79.7.7,0,0,0,.78.55c2.25,0,4.5,0,6.78,0a2.9,2.9,0,0,1,5.68,0c1.11,0,2.19,0,3.27,0A6.77,6.77,0,0,1,73.82,140a7.12,7.12,0,0,1,.09,1.39c0,1.74,0,3.48,0,5.23a.9.9,0,0,0,.19.62,13.18,13.18,0,0,1,3.77,6.47c.19.63.33,1.27.5,2H73.71Zm3.37-16.1c-.22-.71-.4-1.35-.64-2a10,10,0,0,0-3.16-4.7.88.88,0,0,1-.41-.81c0-2.11,0-4.22,0-6.33a5.35,5.35,0,0,0-4.24-5.1,28.92,28.92,0,0,0-4.57-.22c-.12,0-.31.25-.37.41a2.77,2.77,0,0,1-1.7,1.72.65.65,0,0,0-.52.73c0,2.83,0,5.66,0,8.49v.57h2.18c.06-.16.1-.3.16-.45a2.89,2.89,0,0,1,3.3-1.74A2.94,2.94,0,0,1,69.33,148,2.89,2.89,0,0,1,67,150.76a2.8,2.8,0,0,1-3.24-1.82.63.63,0,0,0-.74-.5H55V169.6H72.64v-15Zm-23.17-7.23c0-.83,0-1.64,0-2.45a.69.69,0,0,0-.54-.83,2.82,2.82,0,0,1-1.59-3.68,2.88,2.88,0,0,1,3.74-1.61,2.88,2.88,0,0,1-.07,5.34c-.19.08-.47.25-.48.39,0,.94,0,1.88,0,2.84h5.42v-9.59a3.1,3.1,0,0,1-2.19-2.08.75.75,0,0,0-.55-.25c-2.13,0-4.26,0-6.39,0a.58.58,0,0,0-.65.49,2.57,2.57,0,0,1-1.65,1.67.65.65,0,0,0-.52.74c0,2.82,0,5.65,0,8.48v.56Zm9.39,31.07A2.57,2.57,0,0,0,65.85,181a2.55,2.55,0,0,0,0-5.09A2.55,2.55,0,0,0,63.3,178.43Zm3.22-32.28a1.82,1.82,0,0,0-.13,3.64,1.82,1.82,0,1,0,.13-3.64ZM49.71,170.22A1.82,1.82,0,0,0,48,168.35a1.88,1.88,0,0,0-1.86,1.78A1.86,1.86,0,0,0,47.87,172,1.79,1.79,0,0,0,49.71,170.22Zm6.53-28.77a1.84,1.84,0,0,0-1.8-1.83,1.87,1.87,0,0,0-1.82,1.82,1.85,1.85,0,0,0,1.82,1.82A1.79,1.79,0,0,0,56.24,141.45Zm-6.53,13.08A1.75,1.75,0,0,0,48,152.69a1.83,1.83,0,0,0-1.86,1.77,1.87,1.87,0,0,0,1.78,1.86A1.82,1.82,0,0,0,49.71,154.53Zm0-19.57A1.8,1.8,0,0,0,48,133.1a1.87,1.87,0,0,0-1.86,1.78,1.83,1.83,0,0,0,1.78,1.84A1.75,1.75,0,0,0,49.71,135Zm13,0A1.81,1.81,0,0,0,61,133.1a1.87,1.87,0,0,0-1.83,1.81,1.82,1.82,0,0,0,1.81,1.81A1.75,1.75,0,0,0,62.74,134.93Z"/><path class="cls-3" d="M288.79,181v-6.42a6,6,0,0,1,6.09-6.06,49,49,0,0,1,5,.1,5.89,5.89,0,0,1,5.15,5.43,2.12,2.12,0,0,0,.09.31v6.53l-6.46,0a3.15,3.15,0,0,0-.52.09Zm14.51-1.85v-.77c0-1.41.08-2.82,0-4.22a4.21,4.21,0,0,0-3.94-3.86c-1.6-.05-3.19-.05-4.78,0a4.17,4.17,0,0,0-3.92,3.63c-.13,1.72,0,3.45-.05,5.17,0,0,0,.05,0,.05Z"/><path class="cls-3" d="M269.54,131a11.43,11.43,0,0,1,2.2,1.14,4.19,4.19,0,0,1,.93,5.22,4.31,4.31,0,1,1-4.95-6.2l.46-.16Zm-.68,1.78a2.51,2.51,0,0,0-2.53,2.53,2.55,2.55,0,0,0,2.52,2.56,2.55,2.55,0,1,0,0-5.09Z"/><path class="cls-3" d="M268.66,157l4.06,7h-3.15V173h.52c2.88,0,5.75,0,8.62,0a.64.64,0,0,0,.73-.49,3.53,3.53,0,1,1,0,2.78.74.74,0,0,0-.82-.54c-3.36,0-6.72,0-10.08,0h-.74V164.12h-3.25Zm12.25,16.85a1.79,1.79,0,0,0,1.8,1.78,1.86,1.86,0,0,0,1.77-1.78,1.8,1.8,0,0,0-1.79-1.79A1.77,1.77,0,0,0,280.91,173.88Z"/><path class="cls-3" d="M286.35,137.86h11.43v10.67H301l-4.07,7.05-4.06-7H296v-8.89l-.58,0h-8.56a.65.65,0,0,0-.73.49,3.5,3.5,0,0,1-3.93,2.12,3.54,3.54,0,1,1,3.93-4.85C286.21,137.52,286.27,137.68,286.35,137.86ZM283,137a1.79,1.79,0,0,0-.11,3.57,1.84,1.84,0,0,0,1.85-1.74A1.81,1.81,0,0,0,283,137Z"/><path class="cls-3" d="M277,152.87H260.77a2.61,2.61,0,0,1,0-.31c0-2,0-4.05,0-6.07a5.9,5.9,0,0,1,5.42-6,29.89,29.89,0,0,1,5.83.06,5.9,5.9,0,0,1,5,5.35c0,.26,0,.52,0,.78Zm-14.45-1.76.15,0q6.07,0,12.15,0c.36,0,.43-.16.42-.48,0-1.37,0-2.74,0-4.11a4.31,4.31,0,0,0-4.36-4.28h-4.16a4.17,4.17,0,0,0-4.16,3.69C262.44,147.64,262.54,149.37,262.54,151.11Z"/><path class="cls-3" d="M292.62,163.34a4.31,4.31,0,1,1,8.62,0,4.31,4.31,0,1,1-8.62,0Zm4.32-2.52a2.55,2.55,0,0,0-.06,5.09,2.55,2.55,0,1,0,.06-5.09Z"/></svg>