<svg id="Layer_1" data-name="Layer 1" xmlns="http://www.w3.org/2000/svg" width="100" height="100" viewBox="0 0 100 100"><title>improved-security</title><path d="M54.13,0a3.12,3.12,0,0,0,.49.23,6.52,6.52,0,0,1,3.57,10.16c-.11.15-.21.31-.43.65,1.51,1.22,3,2.51,4.54,3.64a52.73,52.73,0,0,0,22.25,8.84c1.56.27,3.13.44,4.7.65,1.14.15,1.57.61,1.57,1.79,0,15,.21,30-.09,45-.14,6.86-4,12-10,15.24s-12.12,6.22-18.2,9.29c-3,1.52-6,3-9.07,4.51H52.32l-4.79-2.44C40,93.73,32.27,90.08,24.81,86,18.33,82.48,15,76.76,15,69.3c0-6.22,0-12.43,0-18.64V49.32H9.11V49.1q3.41-5.79,6.82-11.57c.21-.35.44-.69.73-1.15l7.39,12.93H18.2V69.13c0,6.3,2.77,11.15,8.24,14.06,8.5,4.53,17.19,8.7,25.82,13a1.71,1.71,0,0,0,1.33,0c8.46-4.21,16.93-8.39,25.33-12.7a15.68,15.68,0,0,0,8.57-11.8,7.5,7.5,0,0,0,.12-1.34q0-21,0-42.08c0-.29,0-.59,0-.9-2.44-.44-4.86-.81-7.23-1.34-8.89-2-17-5.53-23.82-11.75-1-.94-1.94-1.75-3.41-1.18a.5.5,0,0,1-.34,0c-1.73-.7-2.71.43-3.85,1.44a50.38,50.38,0,0,1-22.5,11.24c-2.88.68-5.84,1-8.77,1.56a5.46,5.46,0,0,1-.9.07A1.6,1.6,0,0,1,15,25.91a1.63,1.63,0,0,1,1.55-1.74c3.62-.66,7.3-1.13,10.86-2.06A46,46,0,0,0,47.23,11.58l.49-.47c.05,0,.08-.12,0,0A21.51,21.51,0,0,1,46.45,7,6.29,6.29,0,0,1,51.16.23,3,3,0,0,0,51.64,0Zm2,6.53a3.3,3.3,0,0,0-3.3-3.31,3.37,3.37,0,0,0-3.26,3.26,3.35,3.35,0,0,0,3.27,3.36A3.3,3.3,0,0,0,56.17,6.53Z"/></svg>