<svg id="Layer_1" data-name="Layer 1" xmlns="http://www.w3.org/2000/svg" width="100" height="100" viewBox="0 0 100 100"><title>increase-the-monitoring</title><path d="M3.28,52.73l17-13.23,8.06,7.38L46.9,31l8.7,8.48,4.45-3.66c.65-.54,1.28-1.12,2-1.61,1.33-1,2.18-1.85,1.69-3.87-.71-2.9,1.21-5.8,3.93-6.89a6.64,6.64,0,1,1-.21,12.17c-.36-.16-.71-.36-1.18-.61L55.49,43.87,47,35.25,28.27,51.32l-8.15-7.47L11.4,50.62c-2.46,1.91-4.93,3.8-7.35,5.76a2.23,2.23,0,0,0-.74,1.47c-.05,5-.05,9.94,0,14.91A4.46,4.46,0,0,0,8,77.46c10.18,0,20.37,0,30.55,0a1.79,1.79,0,0,0,1.61-.8,25.25,25.25,0,0,1,39.44-.17,2.19,2.19,0,0,0,2,1c1.49-.08,3,0,4.49,0a4.37,4.37,0,0,0,4.61-4.32c.12-4.11,0-8.23,0-12.58h-6l7.71-13.22L100,60.55H94V62c0,3.64,0,7.28,0,10.92a7.67,7.67,0,0,1-7.91,7.85c-1.74,0-3.65-.45-5.16.14s-2.41,2.21-3.62,3.35a25.26,25.26,0,0,1-37.14-2.69,1.94,1.94,0,0,0-1.73-.81q-15.15,0-30.31,0A7.72,7.72,0,0,1,0,72.65V17A7.75,7.75,0,0,1,8.14,8.85H85.86A7.72,7.72,0,0,1,94,17V36.71H90.77V26.87c0-3.19,0-6.38,0-9.58S89,12.16,85.7,12.16H8.34c-3.29,0-5.06,1.81-5.06,5.12V52.73Zm39.2,26.51c4.81,5.92,11,9,18.68,8.58a21.49,21.49,0,0,0,16.32-8.64C68.25,67,50.43,68,42.48,79.24Zm27.64-53a3.34,3.34,0,1,0,3.39,3.27A3.36,3.36,0,0,0,70.12,26.21Z"/><path d="M60,85.71a6.58,6.58,0,0,1,0-13.16,6.58,6.58,0,1,1,0,13.16Zm0-3.22a3.36,3.36,0,0,0,0-6.72,3.36,3.36,0,0,0,0,6.72Z"/></svg>