<svg id="Layer_1" data-name="Layer 1" xmlns="http://www.w3.org/2000/svg" viewBox="0 0 350 350"><defs><style>.cls-1{fill:#fbc2ba;}.cls-2{fill:#fcddd6;}.cls-3{fill:#f16c51;}.cls-4{fill:#fff;}.cls-5{fill:none;stroke:#f16c51;stroke-miterlimit:2;stroke-width:2px;stroke-dasharray:7 7;}</style></defs><title>channel-partner-solution</title><path class="cls-1" d="M4.05,210.13A175.36,175.36,0,0,1,.5,175,172.47,172.47,0,0,1,36.67,68.63l130.7,104.21Z"/><path class="cls-1" d="M40.61,63.69A173.77,173.77,0,0,1,171.3.53V167.9Z"/><path class="cls-1" d="M177.63.51A173.74,173.74,0,0,1,309,63.17L177.64,167.89Z"/><path class="cls-1" d="M181.58,172.84,312.92,68.1a174.8,174.8,0,0,1,33,142.25Z"/><path class="cls-1" d="M180.17,179l164.35,37.51a174.86,174.86,0,0,1-91.15,114.42Z"/><path class="cls-1" d="M95.83,330.53A174.87,174.87,0,0,1,5.43,216.31L168.77,179Z"/><path class="cls-1" d="M175,349.49a172.75,172.75,0,0,1-73.49-16.19l73-151.55,73.2,151.94A172.87,172.87,0,0,1,175,349.49Z"/><circle class="cls-2" cx="175" cy="174.99" r="167.5"/><path class="cls-3" d="M10.89,208.73A168.88,168.88,0,0,1,7.48,175,165.68,165.68,0,0,1,42.2,72.88L167.67,172.93Z"/><path class="cls-3" d="M46,68.14A166.81,166.81,0,0,1,171.45,7.51V168.18Z"/><path class="cls-3" d="M177.52,7.49A166.83,166.83,0,0,1,303.59,67.64L177.53,168.18Z"/><path class="cls-3" d="M181.32,172.93,307.4,72.37a167.76,167.76,0,0,1,31.67,136.56Z"/><path class="cls-3" d="M180,178.85l157.77,36A167.84,167.84,0,0,1,250.23,324.7Z"/><path class="cls-3" d="M99,324.31A167.85,167.85,0,0,1,12.22,214.66L169,178.85Z"/><path class="cls-3" d="M175,342.51A166,166,0,0,1,104.45,327l70-145.49,70.27,145.86A165.91,165.91,0,0,1,175,342.51Z"/><circle class="cls-2" cx="175" cy="174.99" r="62.5"/><path class="cls-4" d="M181.71,76.67a11.71,11.71,0,0,1,2.07-.15,3.39,3.39,0,0,1,2.19.6,2.11,2.11,0,0,1,.73,1.64,2.25,2.25,0,0,1-.64,1.69,3.32,3.32,0,0,1-2.34.79,3.11,3.11,0,0,1-.66,0V84h-1.35Zm1.35,3.46a2.94,2.94,0,0,0,.66.05c1,0,1.63-.49,1.63-1.36s-.58-1.27-1.51-1.27a3.18,3.18,0,0,0-.78.07Z"/><path class="cls-4" d="M190.59,84l-.09-.6h0a2,2,0,0,1-1.58.72,1.6,1.6,0,0,1-1.69-1.6c0-1.35,1.2-2,3.18-2V80.4c0-.35-.14-.93-1.09-.93a2.88,2.88,0,0,0-1.44.39l-.26-.88a3.86,3.86,0,0,1,1.93-.47,2,2,0,0,1,2.22,2.25V82.7a9.52,9.52,0,0,0,.07,1.29Zm-.17-2.62c-1,0-1.87.19-1.87,1a.71.71,0,0,0,.76.77,1.07,1.07,0,0,0,1.11-1Z"/><path class="cls-4" d="M193.17,80.36c0-.73,0-1.25,0-1.73h1.18l0,1h0a1.53,1.53,0,0,1,1.78-1.11v1.28a2,2,0,0,0-.4,0,1.19,1.19,0,0,0-1.21,1,2.5,2.5,0,0,0,0,.42V84h-1.35Z"/><path class="cls-4" d="M198.89,77.1v1.53h1.28v1h-1.28V82c0,.65.17,1,.69,1a2.12,2.12,0,0,0,.53-.07l0,1a3.2,3.2,0,0,1-1,.13,1.6,1.6,0,0,1-1.17-.44,2.17,2.17,0,0,1-.42-1.5V79.64h-.76v-1h.76V77.42Z"/><path class="cls-4" d="M201.2,80.23c0-.62,0-1.14,0-1.6h1.19l.07.8h0a1.94,1.94,0,0,1,1.7-.92c.94,0,1.91.6,1.91,2.3V84h-1.36V81c0-.77-.28-1.35-1-1.35a1.14,1.14,0,0,0-1.06.79,1.52,1.52,0,0,0-.05.44V84H201.2Z"/><path class="cls-4" d="M208.44,81.69a1.46,1.46,0,0,0,1.65,1.38,3.94,3.94,0,0,0,1.49-.24l.2.94a5.23,5.23,0,0,1-1.87.33,2.53,2.53,0,0,1-2.76-2.71,2.65,2.65,0,0,1,2.61-2.88,2.33,2.33,0,0,1,2.31,2.61,3.65,3.65,0,0,1,0,.57Zm2.36-1a1.16,1.16,0,0,0-1.11-1.31,1.33,1.33,0,0,0-1.25,1.31Z"/><path class="cls-4" d="M213.16,80.36c0-.73,0-1.25,0-1.73h1.18l0,1h0a1.61,1.61,0,0,1,1.47-1.14,1.58,1.58,0,0,1,.32,0v1.28a2,2,0,0,0-.4,0,1.19,1.19,0,0,0-1.21,1,2.5,2.5,0,0,0,0,.42V84h-1.36Z"/><path class="cls-4" d="M224.45,81.26a2.66,2.66,0,0,1-2.75,2.85A2.6,2.6,0,0,1,219,81.35a2.65,2.65,0,0,1,2.78-2.84A2.57,2.57,0,0,1,224.45,81.26Zm-4,0c0,1,.51,1.82,1.33,1.82s1.31-.76,1.31-1.84c0-.83-.37-1.79-1.3-1.79S220.41,80.42,220.41,81.31Z"/><path class="cls-4" d="M225.56,80.23c0-.62,0-1.14,0-1.6h1.18l.07.8h0a2,2,0,0,1,1.71-.92c.93,0,1.9.6,1.9,2.3V84h-1.35V81c0-.77-.29-1.35-1-1.35a1.13,1.13,0,0,0-1.05.79,1.51,1.51,0,0,0-.06.44V84h-1.36Z"/><path class="cls-4" d="M231.81,84c0-.37,0-1,0-1.51v-6.3h1.35v3.19h0a1.93,1.93,0,0,1,1.71-.86c1.31,0,2.25,1.09,2.24,2.72,0,1.92-1.22,2.88-2.44,2.88a1.85,1.85,0,0,1-1.69-.93h0L233,84Zm1.39-2.21a1.65,1.65,0,0,0,0,.32,1.24,1.24,0,0,0,1.2.94c.84,0,1.36-.68,1.36-1.76s-.45-1.72-1.35-1.72a1.27,1.27,0,0,0-1.2,1,1.63,1.63,0,0,0-.05.35Z"/><path class="cls-4" d="M243.38,81.26a2.66,2.66,0,0,1-2.75,2.85,2.6,2.6,0,0,1-2.69-2.76,2.65,2.65,0,0,1,2.78-2.84A2.57,2.57,0,0,1,243.38,81.26Zm-4,0c0,1,.51,1.82,1.33,1.82s1.31-.76,1.31-1.84c0-.83-.37-1.79-1.3-1.79S239.34,80.42,239.34,81.31Z"/><path class="cls-4" d="M247.5,84l-.08-.6h0a2,2,0,0,1-1.58.72,1.59,1.59,0,0,1-1.68-1.6c0-1.35,1.19-2,3.18-2V80.4c0-.35-.15-.93-1.09-.93a2.83,2.83,0,0,0-1.44.39L244.5,79a3.9,3.9,0,0,1,1.94-.47,2,2,0,0,1,2.21,2.25V82.7a8,8,0,0,0,.08,1.29Zm-.17-2.62c-1,0-1.87.19-1.87,1a.71.71,0,0,0,.77.77,1.08,1.08,0,0,0,1.05-.74.8.8,0,0,0,.05-.29Z"/><path class="cls-4" d="M250.08,80.36c0-.73,0-1.25-.05-1.73h1.18l0,1h0a1.59,1.59,0,0,1,1.46-1.14,1.51,1.51,0,0,1,.32,0v1.28a2,2,0,0,0-.39,0,1.19,1.19,0,0,0-1.21,1,1.73,1.73,0,0,0,0,.42V84h-1.35Z"/><path class="cls-4" d="M258.83,76.18v6.3c0,.55,0,1.14.05,1.51h-1.21l-.06-.85h0a1.94,1.94,0,0,1-1.75,1,2.46,2.46,0,0,1-2.29-2.74,2.55,2.55,0,0,1,2.4-2.86,1.72,1.72,0,0,1,1.51.7h0v-3Zm-1.35,4.68a2.07,2.07,0,0,0,0-.35,1.19,1.19,0,0,0-1.17-1c-.87,0-1.35.77-1.35,1.78s.48,1.69,1.34,1.69a1.19,1.19,0,0,0,1.17-1,1.61,1.61,0,0,0,0-.39Z"/><path class="cls-4" d="M261.73,77.13a.76.76,0,1,1-.76-.73A.72.72,0,0,1,261.73,77.13ZM260.29,84V78.63h1.36V84Z"/><path class="cls-4" d="M263.1,80.23c0-.62,0-1.14,0-1.6h1.19l.06.8h0a1.94,1.94,0,0,1,1.7-.92c.93,0,1.9.6,1.9,2.3V84H266.6V81c0-.77-.29-1.35-1-1.35a1.13,1.13,0,0,0-1.06.79,1.52,1.52,0,0,0,0,.44V84H263.1Z"/><path class="cls-4" d="M274.29,78.63c0,.36,0,.8,0,1.54v3a2.59,2.59,0,0,1-2.86,3.08,3.9,3.9,0,0,1-1.88-.43l.3-1a3.23,3.23,0,0,0,1.56.41,1.42,1.42,0,0,0,1.54-1.62v-.46h0a1.79,1.79,0,0,1-1.56.79,2.38,2.38,0,0,1-2.28-2.61,2.57,2.57,0,0,1,2.43-2.83,1.68,1.68,0,0,1,1.55.84h0l.05-.72Zm-1.4,2.15a1.45,1.45,0,0,0,0-.37,1.14,1.14,0,0,0-1.1-.87c-.76,0-1.32.66-1.32,1.75,0,.92.46,1.65,1.31,1.65a1.17,1.17,0,0,0,1.1-.81,2.54,2.54,0,0,0,.05-.49Z"/><path class="cls-4" d="M192.62,95.65l-.09-.59h0a2,2,0,0,1-1.58.72,1.6,1.6,0,0,1-1.69-1.6c0-1.35,1.2-2,3.18-2v-.09c0-.35-.14-.94-1.09-.94a2.83,2.83,0,0,0-1.44.4l-.26-.88a3.86,3.86,0,0,1,1.93-.47,2,2,0,0,1,2.22,2.25v1.94a9.37,9.37,0,0,0,.07,1.28ZM192.44,93c-.95,0-1.87.18-1.87,1a.72.72,0,0,0,.77.77,1.1,1.1,0,0,0,1.06-.74,1.08,1.08,0,0,0,0-.3Z"/><path class="cls-4" d="M195.19,91.89c0-.61,0-1.13,0-1.59h1.19l.06.8h0a1.92,1.92,0,0,1,1.7-.92c.94,0,1.91.6,1.91,2.29v3.18h-1.36v-3c0-.77-.28-1.35-1-1.35a1.14,1.14,0,0,0-1.06.79,1.48,1.48,0,0,0-.05.44v3.14h-1.37Z"/><path class="cls-4" d="M206.43,87.84v6.31c0,.55,0,1.14,0,1.5h-1.21l-.06-.84h0a1.94,1.94,0,0,1-1.75,1A2.45,2.45,0,0,1,201.15,93a2.54,2.54,0,0,1,2.39-2.86,1.7,1.7,0,0,1,1.51.7h0v-3Zm-1.36,4.69a2.07,2.07,0,0,0,0-.35,1.19,1.19,0,0,0-1.17-1c-.87,0-1.35.77-1.35,1.77s.48,1.7,1.34,1.7a1.2,1.2,0,0,0,1.17-1,1.64,1.64,0,0,0,0-.4Z"/><path class="cls-4" d="M211.11,93.35a1.45,1.45,0,0,0,1.65,1.39,4.14,4.14,0,0,0,1.49-.24l.19.93a4.94,4.94,0,0,1-1.87.33,2.53,2.53,0,0,1-2.76-2.7,2.65,2.65,0,0,1,2.62-2.88,2.33,2.33,0,0,1,2.31,2.6,3.54,3.54,0,0,1,0,.57Zm2.36-.94a1.15,1.15,0,0,0-1.12-1.31,1.33,1.33,0,0,0-1.24,1.31Z"/><path class="cls-4" d="M215.83,91.89c0-.61,0-1.13,0-1.59H217l.07.8h0a1.93,1.93,0,0,1,1.71-.92c.93,0,1.9.6,1.9,2.29v3.18h-1.35v-3c0-.77-.29-1.35-1-1.35a1.13,1.13,0,0,0-1.06.79,1.46,1.46,0,0,0-.06.44v3.14h-1.36Z"/><path class="cls-4" d="M225.14,95.65l-.09-.59h0a2,2,0,0,1-1.59.72,1.59,1.59,0,0,1-1.68-1.6c0-1.35,1.2-2,3.18-2v-.09c0-.35-.15-.94-1.09-.94a2.83,2.83,0,0,0-1.44.4l-.27-.88a3.9,3.9,0,0,1,1.94-.47,2,2,0,0,1,2.21,2.25v1.94a7.87,7.87,0,0,0,.08,1.28ZM225,93c-1,0-1.87.18-1.87,1a.71.71,0,0,0,.77.77,1.1,1.1,0,0,0,1.06-.74,1.08,1.08,0,0,0,0-.3Z"/><path class="cls-4" d="M227.67,95.65c0-.36,0-1,0-1.5V87.84h1.35V91h0a1.94,1.94,0,0,1,1.71-.85c1.31,0,2.25,1.08,2.23,2.71,0,1.93-1.22,2.89-2.43,2.89a1.84,1.84,0,0,1-1.69-.93h0l-.07.8Zm1.39-2.21a1.12,1.12,0,0,0,0,.32,1.24,1.24,0,0,0,1.2.95c.84,0,1.36-.68,1.36-1.76s-.45-1.72-1.35-1.72a1.27,1.27,0,0,0-1.2,1,1.73,1.73,0,0,0-.05.35Z"/><path class="cls-4" d="M234.15,87.84h1.36v7.81h-1.36Z"/><path class="cls-4" d="M237.93,93.35a1.45,1.45,0,0,0,1.65,1.39,4,4,0,0,0,1.48-.24l.2.93a5,5,0,0,1-1.87.33,2.53,2.53,0,0,1-2.76-2.7,2.65,2.65,0,0,1,2.62-2.88,2.33,2.33,0,0,1,2.31,2.6,3.54,3.54,0,0,1,0,.57Zm2.35-.94a1.15,1.15,0,0,0-1.11-1.31,1.32,1.32,0,0,0-1.24,1.31Z"/><path class="cls-4" d="M242.65,91.89c0-.61,0-1.13-.05-1.59h1.17l0,.79h0a1.84,1.84,0,0,1,1.65-.91,1.53,1.53,0,0,1,1.48,1h0a2,2,0,0,1,.66-.68,1.81,1.81,0,0,1,1.07-.31c.89,0,1.8.6,1.8,2.32v3.15h-1.32v-3c0-.89-.31-1.41-1-1.41a1,1,0,0,0-1,.71,2.13,2.13,0,0,0-.06.45v3.21h-1.32v-3.1c0-.75-.3-1.27-.93-1.27a1.07,1.07,0,0,0-1,.77,1.23,1.23,0,0,0-.07.44v3.16h-1.32Z"/><path class="cls-4" d="M252.93,93.35a1.46,1.46,0,0,0,1.65,1.39,4.14,4.14,0,0,0,1.49-.24l.2.93a5,5,0,0,1-1.87.33,2.54,2.54,0,0,1-2.77-2.7,2.65,2.65,0,0,1,2.62-2.88,2.33,2.33,0,0,1,2.31,2.6,3.54,3.54,0,0,1,0,.57Zm2.36-.94a1.15,1.15,0,0,0-1.11-1.31,1.33,1.33,0,0,0-1.25,1.31Z"/><path class="cls-4" d="M257.65,91.89c0-.61,0-1.13,0-1.59h1.19l.06.8h0a1.92,1.92,0,0,1,1.7-.92c.93,0,1.9.6,1.9,2.29v3.18h-1.35v-3c0-.77-.29-1.35-1-1.35a1.13,1.13,0,0,0-1.06.79,1.48,1.48,0,0,0-.05.44v3.14h-1.37Z"/><path class="cls-4" d="M265.44,88.77V90.3h1.29v1h-1.29v2.36c0,.65.18,1,.69,1a2.21,2.21,0,0,0,.53-.06l0,1a2.91,2.91,0,0,1-1,.13,1.54,1.54,0,0,1-1.16-.44,2.09,2.09,0,0,1-.42-1.49V91.31h-.77v-1h.77V89.09Z"/><path class="cls-4" d="M267.34,153.67a13.54,13.54,0,0,1,2.16-.15,4.46,4.46,0,0,1,3,.86,3.29,3.29,0,0,1,1.16,2.72,3.83,3.83,0,0,1-1.16,3,5,5,0,0,1-3.35,1,16.21,16.21,0,0,1-1.83-.09Zm1.35,6.28a4.24,4.24,0,0,0,.75,0,2.55,2.55,0,0,0,2.81-2.84,2.36,2.36,0,0,0-2.63-2.58,4.65,4.65,0,0,0-.93.08Z"/><path class="cls-4" d="M275.75,158.69a1.46,1.46,0,0,0,1.65,1.38,3.94,3.94,0,0,0,1.49-.24l.2.94a5.18,5.18,0,0,1-1.87.33,2.53,2.53,0,0,1-2.76-2.71,2.65,2.65,0,0,1,2.61-2.88,2.33,2.33,0,0,1,2.31,2.61,3.65,3.65,0,0,1,0,.57Zm2.36-.95a1.16,1.16,0,0,0-1.11-1.31,1.33,1.33,0,0,0-1.25,1.31Z"/><path class="cls-4" d="M280.47,157.23c0-.62,0-1.14,0-1.6h1.17l0,.79h0a1.86,1.86,0,0,1,1.65-.91,1.55,1.55,0,0,1,1.49,1h0a2,2,0,0,1,.66-.67,1.8,1.8,0,0,1,1.08-.32c.89,0,1.79.6,1.79,2.32V161h-1.32v-3c0-.89-.31-1.42-1-1.42a1,1,0,0,0-.94.71,2.21,2.21,0,0,0-.07.46V161h-1.32v-3.1c0-.75-.29-1.28-.92-1.28a1.06,1.06,0,0,0-1,.77,1.08,1.08,0,0,0-.08.44V161h-1.32Z"/><path class="cls-4" d="M292.81,161l-.08-.6h0a2,2,0,0,1-1.58.72,1.59,1.59,0,0,1-1.68-1.6c0-1.35,1.2-2,3.18-2v-.09c0-.35-.15-.93-1.09-.93a2.83,2.83,0,0,0-1.44.39l-.27-.88a3.9,3.9,0,0,1,1.94-.47,2,2,0,0,1,2.21,2.25v1.94A8,8,0,0,0,294,161Zm-.17-2.62c-1,0-1.87.19-1.87,1a.71.71,0,0,0,.77.77,1.11,1.11,0,0,0,1.06-.74,1.06,1.06,0,0,0,0-.29Z"/><path class="cls-4" d="M295.39,157.23c0-.62,0-1.14-.05-1.6h1.19l.07.8h0a2,2,0,0,1,1.71-.92c.93,0,1.9.6,1.9,2.3V161h-1.35v-3c0-.77-.29-1.35-1-1.35a1.12,1.12,0,0,0-1.05.79,1.23,1.23,0,0,0-.06.44V161h-1.36Z"/><path class="cls-4" d="M306.62,153.18v6.3c0,.55,0,1.14,0,1.51h-1.21l-.05-.85h0a1.94,1.94,0,0,1-1.75,1,2.45,2.45,0,0,1-2.29-2.74,2.55,2.55,0,0,1,2.4-2.86,1.74,1.74,0,0,1,1.51.7h0v-3Zm-1.35,4.68a1.39,1.39,0,0,0,0-.35,1.18,1.18,0,0,0-1.16-1c-.87,0-1.35.77-1.35,1.78s.48,1.69,1.34,1.69a1.18,1.18,0,0,0,1.16-1,1.23,1.23,0,0,0,0-.39Z"/><path class="cls-4" d="M266.34,167.3c0,.36,0,.8,0,1.54v3a3.09,3.09,0,0,1-.79,2.43,3.05,3.05,0,0,1-2.07.65,3.75,3.75,0,0,1-1.87-.43l.3-1a3.2,3.2,0,0,0,1.56.41,1.42,1.42,0,0,0,1.54-1.62v-.46h0a1.82,1.82,0,0,1-1.57.79,2.37,2.37,0,0,1-2.27-2.62,2.56,2.56,0,0,1,2.43-2.82,1.68,1.68,0,0,1,1.55.83h0l.06-.71ZM265,169.44a1.08,1.08,0,0,0-.05-.36,1.12,1.12,0,0,0-1.1-.87c-.76,0-1.32.66-1.32,1.75,0,.91.46,1.65,1.31,1.65a1.15,1.15,0,0,0,1.1-.82,2.52,2.52,0,0,0,.06-.48Z"/><path class="cls-4" d="M268.71,170.35a1.45,1.45,0,0,0,1.65,1.39,4,4,0,0,0,1.48-.24l.2.93a5,5,0,0,1-1.87.33,2.53,2.53,0,0,1-2.76-2.7,2.65,2.65,0,0,1,2.62-2.88,2.33,2.33,0,0,1,2.31,2.6,2.52,2.52,0,0,1,0,.57Zm2.35-.94A1.15,1.15,0,0,0,270,168.1a1.31,1.31,0,0,0-1.24,1.31Z"/><path class="cls-4" d="M273.43,168.89c0-.61,0-1.13-.05-1.59h1.19l.07.8h0a1.92,1.92,0,0,1,1.71-.92c.93,0,1.9.6,1.9,2.29v3.18h-1.35v-3c0-.77-.29-1.35-1-1.35a1.12,1.12,0,0,0-1,.79,1.2,1.2,0,0,0-.06.44v3.14h-1.36Z"/><path class="cls-4" d="M280.68,170.35a1.45,1.45,0,0,0,1.65,1.39,4.12,4.12,0,0,0,1.48-.24l.2.93a5,5,0,0,1-1.87.33,2.53,2.53,0,0,1-2.76-2.7,2.65,2.65,0,0,1,2.62-2.88,2.33,2.33,0,0,1,2.31,2.6,3.29,3.29,0,0,1-.05.57Zm2.35-.94a1.15,1.15,0,0,0-1.11-1.31,1.31,1.31,0,0,0-1.24,1.31Z"/><path class="cls-4" d="M285.4,169c0-.72,0-1.24,0-1.72h1.18l0,1h.05a1.53,1.53,0,0,1,1.78-1.11v1.27a2.06,2.06,0,0,0-.4,0,1.19,1.19,0,0,0-1.21,1,2.61,2.61,0,0,0,0,.42v2.77H285.4Z"/><path class="cls-4" d="M292.23,172.65l-.09-.59h0a2,2,0,0,1-1.58.72,1.59,1.59,0,0,1-1.68-1.6c0-1.35,1.2-2,3.18-2v-.09c0-.35-.15-.94-1.09-.94a2.83,2.83,0,0,0-1.44.4l-.27-.88a3.9,3.9,0,0,1,1.94-.47,2,2,0,0,1,2.21,2.25v1.94a7.87,7.87,0,0,0,.08,1.28Zm-.18-2.61c-1,0-1.87.18-1.87,1a.71.71,0,0,0,.77.77,1.1,1.1,0,0,0,1.06-.74,1.08,1.08,0,0,0,0-.3Z"/><path class="cls-4" d="M296.29,165.77v1.53h1.28v1h-1.28v2.36c0,.65.17,1,.69,1a2.21,2.21,0,0,0,.53-.06l0,1a2.91,2.91,0,0,1-1,.13,1.56,1.56,0,0,1-1.17-.44,2.14,2.14,0,0,1-.41-1.49v-2.52h-.77v-1H295v-1.21Z"/><path class="cls-4" d="M300,165.8a.72.72,0,0,1-.77.73.71.71,0,0,1-.75-.73.76.76,0,0,1,1.52,0Zm-1.44,6.85V167.3H300v5.35Z"/><path class="cls-4" d="M306.5,169.93a2.65,2.65,0,0,1-2.75,2.85,2.6,2.6,0,0,1-2.68-2.77,2.64,2.64,0,0,1,2.77-2.83A2.56,2.56,0,0,1,306.5,169.93Zm-4,0c0,1,.5,1.82,1.33,1.82s1.31-.76,1.31-1.84c0-.84-.38-1.79-1.3-1.79S302.47,169.09,302.47,170Z"/><path class="cls-4" d="M307.62,168.89c0-.61,0-1.13-.05-1.59h1.19l.07.8h0a1.92,1.92,0,0,1,1.7-.92c.94,0,1.91.6,1.91,2.29v3.18h-1.36v-3c0-.77-.28-1.35-1-1.35a1.14,1.14,0,0,0-1.06.79,1.48,1.48,0,0,0,0,.44v3.14h-1.36Z"/><path class="cls-4" d="M244.47,268.2c0,2.49-1.51,3.91-3.55,3.91s-3.41-1.6-3.41-3.77,1.43-3.89,3.52-3.89S244.47,266.09,244.47,268.2Zm-5.53.11c0,1.51.75,2.71,2.05,2.71s2-1.21,2-2.76c0-1.4-.69-2.72-2-2.72S238.94,266.78,238.94,268.31Z"/><path class="cls-4" d="M245.61,268.41c0-.7,0-1.27,0-1.78h1.19l.06.83h0a2.09,2.09,0,0,1,1.84-.95c1.23,0,2.26,1.05,2.26,2.73,0,1.93-1.22,2.87-2.45,2.87a1.74,1.74,0,0,1-1.5-.72h0v2.78h-1.35Zm1.35,1.33a1.52,1.52,0,0,0,0,.38,1.21,1.21,0,0,0,1.19.94c.86,0,1.36-.71,1.36-1.77s-.46-1.71-1.33-1.71a1.25,1.25,0,0,0-1.21,1,1.35,1.35,0,0,0-.06.34Z"/><path class="cls-4" d="M252.05,268.41c0-.7,0-1.27-.05-1.78h1.19l.07.83h0a2.08,2.08,0,0,1,1.84-.95c1.23,0,2.25,1.05,2.25,2.73,0,1.93-1.22,2.87-2.44,2.87a1.77,1.77,0,0,1-1.51-.72h0v2.78h-1.35Zm1.35,1.33a1.53,1.53,0,0,0,0,.38,1.23,1.23,0,0,0,1.19.94c.86,0,1.37-.71,1.37-1.77s-.47-1.71-1.33-1.71a1.24,1.24,0,0,0-1.21,1,1,1,0,0,0-.06.34Z"/><path class="cls-4" d="M263.58,269.26a2.66,2.66,0,0,1-2.76,2.85,2.59,2.59,0,0,1-2.68-2.76,2.65,2.65,0,0,1,2.77-2.84A2.57,2.57,0,0,1,263.58,269.26Zm-4,.05c0,1,.5,1.82,1.33,1.82s1.31-.76,1.31-1.84c0-.83-.38-1.79-1.3-1.79S259.54,268.42,259.54,269.31Z"/><path class="cls-4" d="M264.69,268.36c0-.73,0-1.25-.05-1.73h1.18l0,1h.05a1.53,1.53,0,0,1,1.78-1.11v1.28a2,2,0,0,0-.4-.05,1.19,1.19,0,0,0-1.21,1,2.5,2.5,0,0,0,0,.42V272h-1.35Z"/><path class="cls-4" d="M270.41,265.1v1.53h1.28v1h-1.28V270c0,.65.17,1,.69,1a2.12,2.12,0,0,0,.53-.07l0,1a3.2,3.2,0,0,1-1,.13,1.6,1.6,0,0,1-1.17-.44,2.17,2.17,0,0,1-.41-1.5v-2.52h-.77v-1h.77v-1.21Z"/><path class="cls-4" d="M277.51,270.38c0,.64,0,1.17.05,1.61h-1.19l-.07-.82h0a1.93,1.93,0,0,1-1.72.94c-1,0-1.87-.58-1.87-2.33v-3.15h1.36v2.92c0,.89.28,1.46,1,1.46a1.13,1.13,0,0,0,1-.73,1.08,1.08,0,0,0,.08-.42v-3.23h1.35Z"/><path class="cls-4" d="M279,268.23c0-.62,0-1.14-.05-1.6h1.19l.07.8h0a1.94,1.94,0,0,1,1.7-.92c.94,0,1.91.6,1.91,2.3V272h-1.36v-3c0-.77-.28-1.35-1-1.35a1.14,1.14,0,0,0-1.06.79,1.52,1.52,0,0,0-.05.44V272H279Z"/><path class="cls-4" d="M286.71,265.13a.76.76,0,1,1-.76-.73A.72.72,0,0,1,286.71,265.13ZM285.27,272v-5.36h1.36V272Z"/><path class="cls-4" d="M289.63,265.1v1.53h1.29v1h-1.29V270c0,.65.18,1,.7,1a2,2,0,0,0,.52-.07l0,1a3.2,3.2,0,0,1-1,.13,1.58,1.58,0,0,1-1.17-.44,2.12,2.12,0,0,1-.42-1.5v-2.52h-.77v-1h.77v-1.21Z"/><path class="cls-4" d="M292.87,266.63l1,2.87c.11.33.23.74.3,1.05h0c.09-.31.19-.71.29-1.06l.84-2.86h1.45l-1.34,3.65c-.74,2-1.24,2.9-1.87,3.45a2.72,2.72,0,0,1-1.42.69l-.31-1.15a2.14,2.14,0,0,0,.79-.37,2.33,2.33,0,0,0,.74-.85.6.6,0,0,0,.09-.24.54.54,0,0,0-.08-.26l-2-4.92Z"/><path class="cls-4" d="M235.74,279.89c0-.61,0-1.13-.05-1.59h1.17l.06.79h0a1.84,1.84,0,0,1,1.65-.91,1.53,1.53,0,0,1,1.48,1h0a2,2,0,0,1,.66-.68,1.82,1.82,0,0,1,1.08-.31c.89,0,1.79.6,1.79,2.32v3.15h-1.32v-3c0-.89-.31-1.41-1-1.41a1,1,0,0,0-1,.71,2.13,2.13,0,0,0-.06.45v3.21H239v-3.1c0-.75-.3-1.27-.93-1.27a1.22,1.22,0,0,0-1,1.21v3.16h-1.32Z"/><path class="cls-4" d="M248.08,283.65l-.09-.59h0a2,2,0,0,1-1.58.72,1.6,1.6,0,0,1-1.69-1.6c0-1.35,1.2-2,3.18-2v-.09c0-.35-.14-.94-1.09-.94a2.89,2.89,0,0,0-1.44.4l-.26-.88a3.87,3.87,0,0,1,1.94-.47,2,2,0,0,1,2.21,2.25v1.94a9.37,9.37,0,0,0,.07,1.28Zm-.17-2.61c-1,0-1.87.18-1.87,1a.71.71,0,0,0,.77.77,1.08,1.08,0,0,0,1.05-.74.82.82,0,0,0,0-.3Z"/><path class="cls-4" d="M250.66,279.89c0-.61,0-1.13,0-1.59h1.19l.07.8h0a1.92,1.92,0,0,1,1.7-.92c.94,0,1.91.6,1.91,2.29v3.18h-1.36v-3c0-.77-.28-1.35-1-1.35a1.14,1.14,0,0,0-1.06.79,1.48,1.48,0,0,0,0,.44v3.14h-1.36Z"/><path class="cls-4" d="M260,283.65l-.09-.59h0a2,2,0,0,1-1.58.72,1.6,1.6,0,0,1-1.69-1.6c0-1.35,1.2-2,3.18-2v-.09c0-.35-.14-.94-1.09-.94a2.89,2.89,0,0,0-1.44.4l-.26-.88a3.87,3.87,0,0,1,1.94-.47,2,2,0,0,1,2.21,2.25v1.94a9.37,9.37,0,0,0,.07,1.28Zm-.17-2.61c-1,0-1.87.18-1.87,1a.71.71,0,0,0,.77.77,1.08,1.08,0,0,0,1.05-.74,1.11,1.11,0,0,0,.05-.3Z"/><path class="cls-4" d="M267.43,278.3c0,.36,0,.8,0,1.54v3a2.58,2.58,0,0,1-2.86,3.08,3.72,3.72,0,0,1-1.87-.43l.29-1a3.24,3.24,0,0,0,1.57.41,1.42,1.42,0,0,0,1.54-1.62v-.46h0a1.79,1.79,0,0,1-1.56.79,2.38,2.38,0,0,1-2.28-2.62,2.56,2.56,0,0,1,2.44-2.82,1.69,1.69,0,0,1,1.55.83h0l.05-.71Zm-1.4,2.14a1.42,1.42,0,0,0,0-.36,1.12,1.12,0,0,0-1.1-.87c-.76,0-1.32.66-1.32,1.75,0,.91.46,1.65,1.31,1.65a1.16,1.16,0,0,0,1.1-.82,2.52,2.52,0,0,0,0-.48Z"/><path class="cls-4" d="M269.8,281.35a1.45,1.45,0,0,0,1.64,1.39,4.14,4.14,0,0,0,1.49-.24l.2.93a5,5,0,0,1-1.87.33,2.53,2.53,0,0,1-2.76-2.7,2.65,2.65,0,0,1,2.62-2.88,2.33,2.33,0,0,1,2.31,2.6,3.29,3.29,0,0,1-.05.57Zm2.35-.94A1.15,1.15,0,0,0,271,279.1a1.31,1.31,0,0,0-1.24,1.31Z"/><path class="cls-4" d="M274.51,279.89c0-.61,0-1.13,0-1.59h1.17l.05.79h0a1.86,1.86,0,0,1,1.65-.91,1.54,1.54,0,0,1,1.49,1h0a2.15,2.15,0,0,1,.66-.68,1.86,1.86,0,0,1,1.08-.31c.89,0,1.79.6,1.79,2.32v3.15h-1.32v-3c0-.89-.31-1.41-.95-1.41a1,1,0,0,0-.95.71,2.12,2.12,0,0,0-.07.45v3.21H277.8v-3.1c0-.75-.29-1.27-.92-1.27a1,1,0,0,0-1,.77,1.23,1.23,0,0,0-.08.44v3.16h-1.32Z"/><path class="cls-4" d="M284.8,281.35a1.45,1.45,0,0,0,1.65,1.39,4,4,0,0,0,1.48-.24l.2.93a5,5,0,0,1-1.87.33,2.53,2.53,0,0,1-2.76-2.7,2.65,2.65,0,0,1,2.62-2.88,2.33,2.33,0,0,1,2.31,2.6,3.54,3.54,0,0,1,0,.57Zm2.35-.94A1.15,1.15,0,0,0,286,279.1a1.32,1.32,0,0,0-1.24,1.31Z"/><path class="cls-4" d="M289.52,279.89c0-.61,0-1.13,0-1.59h1.19l.07.8h0a1.92,1.92,0,0,1,1.71-.92c.93,0,1.9.6,1.9,2.29v3.18H293v-3c0-.77-.29-1.35-1-1.35a1.12,1.12,0,0,0-1.05.79,1.2,1.2,0,0,0-.06.44v3.14h-1.36Z"/><path class="cls-4" d="M297.31,276.77v1.53h1.28v1h-1.28v2.36c0,.65.17,1,.69,1a2.21,2.21,0,0,0,.53-.06l0,1a2.91,2.91,0,0,1-1,.13,1.56,1.56,0,0,1-1.17-.44,2.14,2.14,0,0,1-.41-1.49v-2.52h-.77v-1H296v-1.21Z"/><path class="cls-4" d="M147.26,310.18c-1-.29-1.95-.6-2.89-1a1.67,1.67,0,0,0-.48-.11,3.43,3.43,0,0,1-3.25-3.76c0-2.29,1.42-3.9,3.54-3.9s3.42,1.65,3.42,3.74a3.42,3.42,0,0,1-1.91,3.42v.05c.64.17,1.35.33,2,.45Zm-1.09-4.92c0-1.42-.69-2.72-2-2.72s-2.08,1.29-2.07,2.77.75,2.71,2.05,2.71S146.17,306.81,146.17,305.26Z"/><path class="cls-4" d="M153.56,307.38c0,.64,0,1.17,0,1.61h-1.19l-.06-.82h0a1.93,1.93,0,0,1-1.71.94c-1,0-1.87-.58-1.87-2.33v-3.15h1.35v2.92c0,.89.29,1.46,1,1.46a1.16,1.16,0,0,0,1-.73,1.32,1.32,0,0,0,.07-.42v-3.23h1.36Z"/><path class="cls-4" d="M160.11,306.26a2.65,2.65,0,0,1-2.75,2.85,2.59,2.59,0,0,1-2.68-2.76,2.64,2.64,0,0,1,2.77-2.84A2.57,2.57,0,0,1,160.11,306.26Zm-4,.05c0,1,.51,1.82,1.33,1.82s1.31-.76,1.31-1.84c0-.83-.37-1.79-1.29-1.79S156.07,305.42,156.07,306.31Z"/><path class="cls-4" d="M162.77,302.1v1.53h1.29v1h-1.29V307c0,.65.18,1,.7,1a2,2,0,0,0,.52-.07l0,1a3.2,3.2,0,0,1-1,.13,1.58,1.58,0,0,1-1.17-.44,2.12,2.12,0,0,1-.42-1.5v-2.52h-.77v-1h.77v-1.21Z"/><path class="cls-4" d="M166,306.69a1.46,1.46,0,0,0,1.65,1.38,3.94,3.94,0,0,0,1.49-.24l.2.94a5.18,5.18,0,0,1-1.87.33,2.53,2.53,0,0,1-2.76-2.71,2.65,2.65,0,0,1,2.61-2.88,2.33,2.33,0,0,1,2.31,2.61,3.65,3.65,0,0,1,0,.57Zm2.36-.95a1.16,1.16,0,0,0-1.11-1.31,1.33,1.33,0,0,0-1.25,1.31Z"/><path class="cls-4" d="M173.42,305.59v.93h-2.8v-.93Z"/><path class="cls-4" d="M176,302.1v1.53h1.28v1H176V307c0,.65.17,1,.69,1a2.12,2.12,0,0,0,.53-.07l0,1a3.2,3.2,0,0,1-1,.13,1.57,1.57,0,0,1-1.16-.44,2.12,2.12,0,0,1-.42-1.5v-2.52h-.77v-1h.77v-1.21Z"/><path class="cls-4" d="M183.37,306.26a2.66,2.66,0,0,1-2.76,2.85,2.59,2.59,0,0,1-2.68-2.76,2.65,2.65,0,0,1,2.77-2.84A2.57,2.57,0,0,1,183.37,306.26Zm-4,.05c0,1,.5,1.82,1.33,1.82s1.31-.76,1.31-1.84c0-.83-.38-1.79-1.3-1.79S179.33,305.42,179.33,306.31Z"/><path class="cls-4" d="M187.05,305.59v.93h-2.81v-.93Z"/><path class="cls-4" d="M192.23,308.82a4,4,0,0,1-1.52.28,2.57,2.57,0,0,1-2.76-2.73,2.77,2.77,0,0,1,3-2.86,3.43,3.43,0,0,1,1.31.25l-.24,1a2.52,2.52,0,0,0-1-.21,1.74,1.74,0,0,0,0,3.47,2.6,2.6,0,0,0,1.06-.21Z"/><path class="cls-4" d="M196.24,309l-.08-.6h0a2,2,0,0,1-1.58.72,1.59,1.59,0,0,1-1.68-1.6c0-1.35,1.2-2,3.18-2v-.09c0-.35-.15-.93-1.09-.93a2.83,2.83,0,0,0-1.44.39l-.27-.88a3.9,3.9,0,0,1,1.94-.47,2,2,0,0,1,2.21,2.25v1.94a8,8,0,0,0,.08,1.29Zm-.17-2.62c-1,0-1.87.19-1.87,1a.71.71,0,0,0,.77.77,1.08,1.08,0,0,0,1.05-.74.8.8,0,0,0,0-.29Z"/><path class="cls-4" d="M198.75,307.74a3,3,0,0,0,1.38.39c.59,0,.86-.24.86-.59s-.22-.55-.88-.79c-1.05-.36-1.49-.93-1.48-1.56a1.8,1.8,0,0,1,2-1.68,3,3,0,0,1,1.41.32l-.26,1a2.31,2.31,0,0,0-1.13-.31c-.49,0-.75.23-.75.56s.25.5.93.75c1,.35,1.42.84,1.43,1.64,0,1-.75,1.67-2.17,1.67a3.44,3.44,0,0,1-1.63-.38Z"/><path class="cls-4" d="M203.41,301.18h1.36v3.19h0a1.92,1.92,0,0,1,1.6-.86c.91,0,1.87.6,1.87,2.32V309H206.9v-3c0-.78-.28-1.36-1-1.36a1.11,1.11,0,0,0-1.05.76,1.24,1.24,0,0,0,0,.41V309h-1.36Z"/><path class="cls-4" d="M59.05,264.67a11.5,11.5,0,0,1,2.06-.15,3.39,3.39,0,0,1,2.19.6,2.11,2.11,0,0,1,.73,1.64,2.25,2.25,0,0,1-.64,1.69,3.32,3.32,0,0,1-2.34.79,3.11,3.11,0,0,1-.66-.05V272H59.05Zm1.34,3.46a2.94,2.94,0,0,0,.66.05c1,0,1.63-.49,1.63-1.36s-.58-1.27-1.51-1.27a3.18,3.18,0,0,0-.78.07Z"/><path class="cls-4" d="M70,269.26a2.66,2.66,0,0,1-2.75,2.85,2.6,2.6,0,0,1-2.69-2.76,2.65,2.65,0,0,1,2.78-2.84A2.57,2.57,0,0,1,70,269.26Zm-4,.05c0,1,.51,1.82,1.33,1.82s1.31-.76,1.31-1.84c0-.83-.37-1.79-1.3-1.79S65.92,268.42,65.92,269.31Z"/><path class="cls-4" d="M71,270.74a3,3,0,0,0,1.38.39c.59,0,.86-.24.86-.59s-.22-.55-.88-.79c-1-.36-1.49-.93-1.48-1.56a1.8,1.8,0,0,1,2-1.68,3,3,0,0,1,1.41.32l-.26,1a2.31,2.31,0,0,0-1.13-.31c-.49,0-.75.23-.75.56s.25.5.93.75c1,.35,1.42.84,1.43,1.64,0,1-.75,1.67-2.17,1.67a3.44,3.44,0,0,1-1.63-.38Z"/><path class="cls-4" d="M77.21,265.1v1.53h1.28v1H77.21V270c0,.65.17,1,.69,1a2.12,2.12,0,0,0,.53-.07l0,1a3.2,3.2,0,0,1-1,.13,1.62,1.62,0,0,1-1.17-.44,2.17,2.17,0,0,1-.41-1.5v-2.52h-.77v-1h.77v-1.21Z"/><path class="cls-4" d="M81.89,268.59v.93h-2.8v-.93Z"/><path class="cls-4" d="M82.88,270.74a3,3,0,0,0,1.38.39c.59,0,.86-.24.86-.59s-.22-.55-.88-.79c-1-.36-1.49-.93-1.48-1.56a1.8,1.8,0,0,1,2-1.68,3,3,0,0,1,1.41.32l-.26,1a2.31,2.31,0,0,0-1.13-.31c-.49,0-.75.23-.75.56s.25.5.93.75c1,.35,1.42.84,1.43,1.64,0,1-.75,1.67-2.17,1.67a3.44,3.44,0,0,1-1.63-.38Z"/><path class="cls-4" d="M90.55,272l-.09-.6h0a2,2,0,0,1-1.59.72,1.59,1.59,0,0,1-1.68-1.6c0-1.35,1.2-2,3.18-2v-.09c0-.35-.14-.93-1.09-.93a2.83,2.83,0,0,0-1.44.39l-.26-.88a3.86,3.86,0,0,1,1.93-.47,2,2,0,0,1,2.21,2.25v1.94a9.35,9.35,0,0,0,.08,1.29Zm-.18-2.62c-1,0-1.87.19-1.87,1a.71.71,0,0,0,.77.77,1.1,1.1,0,0,0,1.06-.74,1.06,1.06,0,0,0,0-.29Z"/><path class="cls-4" d="M93.12,264.18h1.37V272H93.12Z"/><path class="cls-4" d="M96.91,269.69c0,1,.79,1.38,1.65,1.38a3.85,3.85,0,0,0,1.48-.24l.2.94a5.18,5.18,0,0,1-1.87.33,2.53,2.53,0,0,1-2.76-2.71,2.65,2.65,0,0,1,2.62-2.88,2.33,2.33,0,0,1,2.31,2.61,2.58,2.58,0,0,1-.05.57Zm2.35-.95a1.16,1.16,0,0,0-1.11-1.31,1.31,1.31,0,0,0-1.24,1.31Z"/><path class="cls-4" d="M101.56,270.74a3,3,0,0,0,1.38.39c.59,0,.85-.24.85-.59s-.22-.55-.88-.79c-1-.36-1.48-.93-1.47-1.56a1.79,1.79,0,0,1,2-1.68,3.07,3.07,0,0,1,1.42.32l-.26,1a2.32,2.32,0,0,0-1.14-.31c-.48,0-.74.23-.74.56s.25.5.93.75c1,.35,1.42.84,1.43,1.64,0,1-.76,1.67-2.18,1.67a3.4,3.4,0,0,1-1.62-.38Z"/><path class="cls-4" d="M108.62,268.59v.93h-2.8v-.93Z"/><path class="cls-4" d="M65.29,282.41a3,3,0,0,0,1.38.39c.59,0,.86-.25.86-.6s-.22-.55-.88-.78c-1.05-.36-1.49-.93-1.48-1.56,0-.95.78-1.68,2-1.68a3.25,3.25,0,0,1,1.42.31l-.27,1a2.42,2.42,0,0,0-1.13-.31c-.49,0-.75.23-.75.56s.25.51.94.75c1,.35,1.41.85,1.43,1.64,0,1-.76,1.67-2.18,1.67a3.48,3.48,0,0,1-1.63-.37Z"/><path class="cls-4" d="M74.74,282.05c0,.64,0,1.16.05,1.6H73.6l-.07-.81h0a1.93,1.93,0,0,1-1.72.94c-1,0-1.87-.59-1.87-2.34V278.3h1.36v2.91c0,.89.28,1.47,1,1.47a1.13,1.13,0,0,0,1-.73,1.08,1.08,0,0,0,.08-.42V278.3h1.35Z"/><path class="cls-4" d="M76.21,280.08c0-.71,0-1.28,0-1.78h1.19l.07.82h0a2.08,2.08,0,0,1,1.83-.94c1.24,0,2.26,1.05,2.26,2.72,0,1.94-1.22,2.88-2.44,2.88a1.76,1.76,0,0,1-1.51-.72h0v2.77H76.21Zm1.35,1.33a1.5,1.5,0,0,0,0,.37,1.23,1.23,0,0,0,1.19,1c.86,0,1.36-.71,1.36-1.77s-.46-1.72-1.33-1.72a1.27,1.27,0,0,0-1.21,1,1.33,1.33,0,0,0,0,.34Z"/><path class="cls-4" d="M82.64,280.08c0-.71,0-1.28,0-1.78h1.18l.07.82h0a2.11,2.11,0,0,1,1.84-.94c1.23,0,2.25,1.05,2.25,2.72,0,1.94-1.22,2.88-2.44,2.88a1.74,1.74,0,0,1-1.5-.72h0v2.77H82.64ZM84,281.41a1.14,1.14,0,0,0,.05.37,1.22,1.22,0,0,0,1.19,1c.85,0,1.36-.71,1.36-1.77s-.46-1.72-1.33-1.72a1.26,1.26,0,0,0-1.21,1,1.35,1.35,0,0,0-.06.34Z"/><path class="cls-4" d="M94.17,280.93a2.66,2.66,0,0,1-2.75,2.85A2.6,2.6,0,0,1,88.73,281a2.64,2.64,0,0,1,2.78-2.83A2.57,2.57,0,0,1,94.17,280.93Zm-4,.05c0,1,.51,1.82,1.33,1.82s1.31-.76,1.31-1.84c0-.84-.37-1.79-1.3-1.79S90.13,280.09,90.13,281Z"/><path class="cls-4" d="M95.28,280c0-.72,0-1.24,0-1.72h1.18l0,1h0A1.59,1.59,0,0,1,98,278.18a1.51,1.51,0,0,1,.32,0v1.27a2,2,0,0,0-.39,0,1.19,1.19,0,0,0-1.21,1,1.79,1.79,0,0,0-.05.42v2.77H95.28Z"/><path class="cls-4" d="M101,276.77v1.53h1.29v1H101v2.36c0,.65.17,1,.69,1a2.21,2.21,0,0,0,.53-.06l0,1a2.91,2.91,0,0,1-1,.13,1.54,1.54,0,0,1-1.16-.44,2.09,2.09,0,0,1-.42-1.49v-2.52h-.77v-1h.77v-1.21Z"/><path class="cls-4" d="M41.68,162.67a11.55,11.55,0,0,1,2.07-.15,3.41,3.41,0,0,1,2.19.6,2.11,2.11,0,0,1,.72,1.64,2.25,2.25,0,0,1-.64,1.69,3.28,3.28,0,0,1-2.34.79,3.22,3.22,0,0,1-.66-.05V170H41.68ZM43,166.13a3.05,3.05,0,0,0,.66.05c1,0,1.63-.49,1.63-1.36s-.57-1.27-1.51-1.27a3.24,3.24,0,0,0-.78.07Z"/><path class="cls-4" d="M50.56,170l-.09-.6h0a2,2,0,0,1-1.59.72,1.59,1.59,0,0,1-1.68-1.6c0-1.35,1.2-2,3.18-2v-.09c0-.35-.15-.93-1.09-.93a2.83,2.83,0,0,0-1.44.39l-.27-.88a3.9,3.9,0,0,1,1.94-.47,2,2,0,0,1,2.21,2.25v1.94a8,8,0,0,0,.08,1.29Zm-.18-2.62c-1,0-1.87.19-1.87,1a.71.71,0,0,0,.77.77,1.1,1.1,0,0,0,1.06-.74,1.06,1.06,0,0,0,0-.29Z"/><path class="cls-4" d="M53.13,166.36c0-.73,0-1.25,0-1.73h1.17l.05,1h0a1.59,1.59,0,0,1,1.46-1.14,1.51,1.51,0,0,1,.32,0v1.28a2,2,0,0,0-.39,0,1.19,1.19,0,0,0-1.21,1,2.42,2.42,0,0,0-.05.42V170H53.13Z"/><path class="cls-4" d="M58.85,163.1v1.53h1.29v1H58.85V168c0,.65.18,1,.69,1a2.12,2.12,0,0,0,.53-.07l0,1a3.15,3.15,0,0,1-1,.13,1.57,1.57,0,0,1-1.16-.44,2.12,2.12,0,0,1-.42-1.5v-2.52h-.77v-1h.77v-1.21Z"/><path class="cls-4" d="M61.16,166.23c0-.62,0-1.14,0-1.6H62.3l.07.8h0a2,2,0,0,1,1.71-.92c.93,0,1.9.6,1.9,2.3V170H64.66v-3c0-.77-.29-1.35-1-1.35a1.13,1.13,0,0,0-1.06.79,1.51,1.51,0,0,0-.06.44V170H61.16Z"/><path class="cls-4" d="M68.41,167.69c0,1,.79,1.38,1.65,1.38a3.85,3.85,0,0,0,1.48-.24l.2.94a5.18,5.18,0,0,1-1.87.33,2.53,2.53,0,0,1-2.76-2.71,2.65,2.65,0,0,1,2.62-2.88A2.33,2.33,0,0,1,72,167.12a2.58,2.58,0,0,1-.05.57Zm2.35-.95a1.16,1.16,0,0,0-1.11-1.31,1.31,1.31,0,0,0-1.24,1.31Z"/><path class="cls-4" d="M73.13,166.36c0-.73,0-1.25,0-1.73h1.18l0,1h0a1.53,1.53,0,0,1,1.78-1.11v1.28a2,2,0,0,0-.4,0,1.21,1.21,0,0,0-1.21,1,2.5,2.5,0,0,0,0,.42V170H73.13Z"/><path class="cls-4" d="M29.24,181.49a3.9,3.9,0,0,1-1.51.27A2.57,2.57,0,0,1,25,179a2.77,2.77,0,0,1,3-2.86,3.47,3.47,0,0,1,1.31.25l-.25,1a2.37,2.37,0,0,0-1-.21,1.74,1.74,0,0,0,0,3.47,2.7,2.7,0,0,0,1.07-.21Z"/><path class="cls-4" d="M35.24,178.93a2.66,2.66,0,0,1-2.75,2.85A2.6,2.6,0,0,1,29.8,179a2.64,2.64,0,0,1,2.78-2.83A2.57,2.57,0,0,1,35.24,178.93Zm-4,0c0,1,.51,1.82,1.33,1.82s1.31-.76,1.31-1.84c0-.84-.37-1.79-1.3-1.79S31.2,178.09,31.2,179Z"/><path class="cls-4" d="M36.35,177.89c0-.61,0-1.13,0-1.59h1.16l.06.79h0a1.84,1.84,0,0,1,1.65-.91,1.53,1.53,0,0,1,1.48,1h0a2,2,0,0,1,.66-.68,1.84,1.84,0,0,1,1.08-.31c.89,0,1.79.6,1.79,2.32v3.15H42.93v-3c0-.89-.31-1.41-1-1.41A1,1,0,0,0,41,178a2.13,2.13,0,0,0-.06.45v3.21H39.64v-3.1c0-.75-.3-1.27-.92-1.27a1.21,1.21,0,0,0-1,1.21v3.16H36.35Z"/><path class="cls-4" d="M45.68,178.08c0-.71,0-1.28,0-1.78h1.19l.07.82h0a2.1,2.1,0,0,1,1.84-.94c1.23,0,2.25,1,2.25,2.72,0,1.94-1.22,2.88-2.44,2.88a1.77,1.77,0,0,1-1.51-.72h0v2.77H45.68ZM47,179.41a1.5,1.5,0,0,0,0,.37,1.24,1.24,0,0,0,1.19.95c.86,0,1.37-.71,1.37-1.77s-.46-1.72-1.33-1.72a1.25,1.25,0,0,0-1.21,1,1,1,0,0,0-.06.34Z"/><path class="cls-4" d="M53.07,179.35a1.45,1.45,0,0,0,1.65,1.39,4,4,0,0,0,1.48-.24l.2.93a5,5,0,0,1-1.87.33,2.53,2.53,0,0,1-2.76-2.7,2.65,2.65,0,0,1,2.62-2.88,2.33,2.33,0,0,1,2.31,2.6,3.54,3.54,0,0,1,0,.57Zm2.35-.94a1.15,1.15,0,0,0-1.11-1.31,1.32,1.32,0,0,0-1.24,1.31Z"/><path class="cls-4" d="M57.79,177.89c0-.61,0-1.13,0-1.59h1.19l.07.8h0a1.93,1.93,0,0,1,1.71-.92c.93,0,1.9.6,1.9,2.29v3.18H61.29v-3c0-.77-.29-1.35-1-1.35a1.12,1.12,0,0,0-1,.79,1.2,1.2,0,0,0-.06.44v3.14H57.79Z"/><path class="cls-4" d="M64,180.41a3,3,0,0,0,1.38.39c.59,0,.86-.25.86-.6s-.22-.55-.88-.78c-1.05-.36-1.49-.93-1.48-1.56,0-1,.78-1.68,2-1.68a3.25,3.25,0,0,1,1.42.31l-.27,1a2.42,2.42,0,0,0-1.13-.31c-.48,0-.75.23-.75.56s.25.51.94.75c1,.35,1.42.85,1.43,1.64,0,1-.76,1.67-2.18,1.67a3.48,3.48,0,0,1-1.63-.37Z"/><path class="cls-4" d="M71.68,181.65l-.09-.59h0a2,2,0,0,1-1.58.72,1.6,1.6,0,0,1-1.69-1.6c0-1.35,1.2-2,3.18-2v-.09c0-.35-.14-.94-1.09-.94a2.86,2.86,0,0,0-1.44.4l-.26-.88a3.86,3.86,0,0,1,1.93-.47,2,2,0,0,1,2.22,2.25v1.94a9.37,9.37,0,0,0,.07,1.28ZM71.51,179c-1,0-1.87.18-1.87,1a.71.71,0,0,0,.76.77,1.1,1.1,0,0,0,1.06-.74,1.11,1.11,0,0,0,.05-.3Z"/><path class="cls-4" d="M75.74,174.77v1.53H77v1H75.74v2.36c0,.65.18,1,.69,1a2.21,2.21,0,0,0,.53-.06l0,1a2.87,2.87,0,0,1-1,.13,1.54,1.54,0,0,1-1.16-.44,2.09,2.09,0,0,1-.42-1.49v-2.52h-.77v-1h.77v-1.21Z"/><path class="cls-4" d="M79.49,174.8a.76.76,0,1,1-.76-.74A.72.72,0,0,1,79.49,174.8Zm-1.44,6.85V176.3h1.36v5.35Z"/><path class="cls-4" d="M86,178.93a2.66,2.66,0,0,1-2.75,2.85A2.6,2.6,0,0,1,80.52,179a2.64,2.64,0,0,1,2.78-2.83A2.57,2.57,0,0,1,86,178.93Zm-4,0c0,1,.51,1.82,1.33,1.82s1.31-.76,1.31-1.84c0-.84-.37-1.79-1.3-1.79S81.92,178.09,81.92,179Z"/><path class="cls-4" d="M87.07,177.89c0-.61,0-1.13,0-1.59h1.18l.07.8h0a1.93,1.93,0,0,1,1.71-.92c.93,0,1.9.6,1.9,2.29v3.18H90.57v-3c0-.77-.29-1.35-1-1.35a1.13,1.13,0,0,0-1.06.79,1.46,1.46,0,0,0-.06.44v3.14H87.07Z"/><path class="cls-4" d="M96.89,80.67A11.5,11.5,0,0,1,99,80.52a3.39,3.39,0,0,1,2.19.6,2.11,2.11,0,0,1,.73,1.64,2.25,2.25,0,0,1-.64,1.69,3.3,3.3,0,0,1-2.34.79,3.16,3.16,0,0,1-.66,0V88H96.89Zm1.34,3.46a2.94,2.94,0,0,0,.66.05c1,0,1.63-.49,1.63-1.36s-.58-1.27-1.51-1.27a3.24,3.24,0,0,0-.78.07Z"/><path class="cls-4" d="M103.66,85.69c0,1,.79,1.38,1.65,1.38a3.94,3.94,0,0,0,1.49-.24l.2.94a5.23,5.23,0,0,1-1.87.33,2.54,2.54,0,0,1-2.77-2.71A2.66,2.66,0,0,1,105,82.51a2.33,2.33,0,0,1,2.31,2.61,3.65,3.65,0,0,1,0,.57Zm2.36-1a1.16,1.16,0,0,0-1.11-1.31,1.33,1.33,0,0,0-1.25,1.31Z"/><path class="cls-4" d="M108.38,84.36c0-.73,0-1.25,0-1.73h1.17l0,1h0a1.6,1.6,0,0,1,1.46-1.14,1.51,1.51,0,0,1,.32,0v1.28a2,2,0,0,0-.39,0,1.19,1.19,0,0,0-1.21,1,2.42,2.42,0,0,0,0,.42V88h-1.35Z"/><path class="cls-4" d="M112.76,88V83.64H112v-1h.73V82.4a2.53,2.53,0,0,1,.65-1.83,2,2,0,0,1,1.4-.51,2.51,2.51,0,0,1,.86.13l-.1,1a1.67,1.67,0,0,0-.57-.1c-.67,0-.9.56-.9,1.22v.28h1.18v1h-1.17V88Z"/><path class="cls-4" d="M121.09,85.26a2.66,2.66,0,0,1-2.75,2.85,2.6,2.6,0,0,1-2.69-2.76,2.65,2.65,0,0,1,2.77-2.84A2.57,2.57,0,0,1,121.09,85.26Zm-4,0c0,1,.51,1.82,1.33,1.82s1.31-.76,1.31-1.84c0-.83-.37-1.79-1.3-1.79S117.05,84.42,117.05,85.31Z"/><path class="cls-4" d="M122.2,84.36c0-.73,0-1.25,0-1.73h1.18l0,1h0a1.53,1.53,0,0,1,1.78-1.11v1.28a2,2,0,0,0-.4,0,1.19,1.19,0,0,0-1.21,1,2.5,2.5,0,0,0,0,.42V88H122.2Z"/><path class="cls-4" d="M126.11,84.23c0-.62,0-1.14,0-1.6h1.16l.06.79h0a1.86,1.86,0,0,1,1.65-.91,1.55,1.55,0,0,1,1.49,1h0a2,2,0,0,1,.66-.67,1.8,1.8,0,0,1,1.08-.32c.89,0,1.79.6,1.79,2.32V88h-1.32V85c0-.89-.31-1.42-1-1.42a1,1,0,0,0-.94.71,2.21,2.21,0,0,0-.07.46V88H129.4v-3.1c0-.75-.3-1.28-.92-1.28a1.06,1.06,0,0,0-1,.77,1.08,1.08,0,0,0-.08.44V88h-1.32Z"/><path class="cls-4" d="M138.45,88l-.08-.6h0a2,2,0,0,1-1.58.72,1.59,1.59,0,0,1-1.68-1.6c0-1.35,1.2-2,3.18-2V84.4c0-.35-.15-.93-1.09-.93a2.83,2.83,0,0,0-1.44.39l-.27-.88a3.9,3.9,0,0,1,1.94-.47,2,2,0,0,1,2.21,2.25V86.7a8,8,0,0,0,.08,1.29Zm-.17-2.62c-1,0-1.87.19-1.87,1a.71.71,0,0,0,.77.77,1.08,1.08,0,0,0,1-.74.8.8,0,0,0,.05-.29Z"/><path class="cls-4" d="M141,84.23c0-.62,0-1.14-.05-1.6h1.19l.07.8h0a2,2,0,0,1,1.71-.92c.93,0,1.9.6,1.9,2.3V88h-1.35V85c0-.77-.29-1.35-1-1.35a1.12,1.12,0,0,0-1.05.79,1.23,1.23,0,0,0-.06.44V88H141Z"/><path class="cls-4" d="M151.26,87.82a4,4,0,0,1-1.52.28A2.57,2.57,0,0,1,147,85.37a2.77,2.77,0,0,1,3-2.86,3.43,3.43,0,0,1,1.31.25l-.24,1a2.54,2.54,0,0,0-1-.21A1.74,1.74,0,0,0,150,87a2.62,2.62,0,0,0,1.07-.21Z"/><path class="cls-4" d="M153.12,85.69c0,1,.79,1.38,1.65,1.38a3.85,3.85,0,0,0,1.48-.24l.2.94a5.18,5.18,0,0,1-1.87.33,2.53,2.53,0,0,1-2.76-2.71,2.65,2.65,0,0,1,2.62-2.88,2.33,2.33,0,0,1,2.31,2.61,2.58,2.58,0,0,1-.05.57Zm2.35-1a1.16,1.16,0,0,0-1.11-1.31,1.31,1.31,0,0,0-1.24,1.31Z"/><path class="cls-4" d="M95.4,95.89c0-.61,0-1.13-.05-1.59h1.17l0,.79h0a1.83,1.83,0,0,1,1.65-.91,1.53,1.53,0,0,1,1.48,1h0a2.15,2.15,0,0,1,.66-.68,1.86,1.86,0,0,1,1.08-.31c.89,0,1.79.6,1.79,2.32v3.15H102v-3c0-.89-.3-1.41-1-1.41a1,1,0,0,0-1,.71,2.13,2.13,0,0,0-.06.45v3.21H98.69v-3.1c0-.75-.3-1.27-.93-1.27a1,1,0,0,0-1,.77,1.23,1.23,0,0,0-.07.44v3.16H95.4Z"/><path class="cls-4" d="M107.74,99.65l-.09-.59h0a2,2,0,0,1-1.59.72,1.59,1.59,0,0,1-1.68-1.6c0-1.35,1.2-2,3.18-2v-.09c0-.35-.14-.94-1.09-.94a2.83,2.83,0,0,0-1.44.4l-.27-.88a3.9,3.9,0,0,1,1.94-.47,2,2,0,0,1,2.21,2.25v1.94a7.87,7.87,0,0,0,.08,1.28ZM107.56,97c-1,0-1.87.18-1.87,1a.71.71,0,0,0,.77.77,1.1,1.1,0,0,0,1.06-.74,1.08,1.08,0,0,0,0-.3Z"/><path class="cls-4" d="M110.31,95.89c0-.61,0-1.13,0-1.59h1.19l.06.8h0a1.92,1.92,0,0,1,1.7-.92c.93,0,1.9.6,1.9,2.29v3.18h-1.35v-3c0-.77-.29-1.35-1-1.35a1.13,1.13,0,0,0-1.06.79,1.48,1.48,0,0,0,0,.44v3.14h-1.37Z"/><path class="cls-4" d="M119.62,99.65l-.09-.59h0a2,2,0,0,1-1.59.72,1.59,1.59,0,0,1-1.68-1.6c0-1.35,1.2-2,3.18-2v-.09c0-.35-.14-.94-1.09-.94a2.83,2.83,0,0,0-1.44.4l-.27-.88a3.9,3.9,0,0,1,1.94-.47,2,2,0,0,1,2.21,2.25v1.94a7.87,7.87,0,0,0,.08,1.28ZM119.44,97c-1,0-1.87.18-1.87,1a.71.71,0,0,0,.77.77,1.1,1.1,0,0,0,1.06-.74,1.08,1.08,0,0,0,0-.3Z"/><path class="cls-4" d="M127.09,94.3c0,.36,0,.8,0,1.54v3a3.09,3.09,0,0,1-.79,2.43,3.05,3.05,0,0,1-2.07.65,3.75,3.75,0,0,1-1.87-.43l.3-1a3.2,3.2,0,0,0,1.56.41,1.42,1.42,0,0,0,1.54-1.62v-.46h0a1.82,1.82,0,0,1-1.56.79A2.38,2.38,0,0,1,121.85,97a2.56,2.56,0,0,1,2.43-2.82,1.67,1.67,0,0,1,1.55.83h0l.06-.71Zm-1.4,2.14a1.42,1.42,0,0,0,0-.36,1.13,1.13,0,0,0-1.1-.87c-.76,0-1.32.66-1.32,1.75,0,.91.46,1.65,1.3,1.65a1.17,1.17,0,0,0,1.11-.82,2.52,2.52,0,0,0,0-.48Z"/><path class="cls-4" d="M129.45,97.35a1.45,1.45,0,0,0,1.65,1.39,4.14,4.14,0,0,0,1.49-.24l.19.93a4.94,4.94,0,0,1-1.87.33,2.53,2.53,0,0,1-2.76-2.7,2.65,2.65,0,0,1,2.62-2.88,2.33,2.33,0,0,1,2.31,2.6,3.54,3.54,0,0,1,0,.57Zm2.36-.94a1.15,1.15,0,0,0-1.12-1.31,1.33,1.33,0,0,0-1.24,1.31Z"/><path class="cls-4" d="M134.17,95.89c0-.61,0-1.13,0-1.59h1.16l.06.79h0a1.84,1.84,0,0,1,1.65-.91,1.56,1.56,0,0,1,1.49,1h0a2.05,2.05,0,0,1,.66-.68,1.84,1.84,0,0,1,1.08-.31c.89,0,1.79.6,1.79,2.32v3.15h-1.32v-3c0-.89-.31-1.41-1-1.41a1,1,0,0,0-.94.71,1.63,1.63,0,0,0-.07.45v3.21h-1.32v-3.1c0-.75-.3-1.27-.92-1.27a1.21,1.21,0,0,0-1,1.21v3.16h-1.32Z"/><path class="cls-4" d="M144.46,97.35a1.45,1.45,0,0,0,1.64,1.39,4.14,4.14,0,0,0,1.49-.24l.2.93a5,5,0,0,1-1.87.33,2.53,2.53,0,0,1-2.76-2.7,2.65,2.65,0,0,1,2.62-2.88,2.33,2.33,0,0,1,2.31,2.6,3.29,3.29,0,0,1-.05.57Zm2.35-.94a1.15,1.15,0,0,0-1.11-1.31,1.31,1.31,0,0,0-1.24,1.31Z"/><path class="cls-4" d="M149.17,95.89c0-.61,0-1.13,0-1.59h1.19l.06.8h0a1.92,1.92,0,0,1,1.7-.92c.94,0,1.91.6,1.91,2.29v3.18h-1.36v-3c0-.77-.28-1.35-1-1.35a1.14,1.14,0,0,0-1.06.79,1.48,1.48,0,0,0-.05.44v3.14h-1.37Z"/><path class="cls-4" d="M157,92.77V94.3h1.29v1H157v2.36c0,.65.18,1,.7,1a2.11,2.11,0,0,0,.52-.06l0,1a2.91,2.91,0,0,1-1,.13,1.54,1.54,0,0,1-1.17-.44,2.09,2.09,0,0,1-.42-1.49V95.31h-.77v-1h.77V93.09Z"/><path class="cls-5" d="M190.12,128.89A48.52,48.52,0,1,1,152.5,132"/><polygon class="cls-3" points="153.34 138.34 160.45 128.71 148.56 127.36 153.34 138.34"/><path class="cls-4" d="M197.5,46.85c.82.29,1.65.58,2.47.89,1.49.57,3,1.17,4.58,1.79l-2.23,1.81L205,54.83a2.93,2.93,0,0,1,2.33-1.64,2.82,2.82,0,0,1,2.59,1.17,2.87,2.87,0,0,1,5,2.07,2.91,2.91,0,0,1,2.51,3.91,2.86,2.86,0,0,1,2.26,1.86,3,3,0,0,1-.59,2.93c1.28.29,2.48.6,3.7.82a4.3,4.3,0,0,0,1.6,0,6.66,6.66,0,0,0,1.36-.66l-5-3,.82-1.4,1.31.78,3.7,2.22a2,2,0,0,0,2.78-1.37.74.74,0,0,0-.44-.81c-1.63-1-3.24-2-4.86-2.92l-.55-.34.84-1.4,5,3c.53.32,1.06.63,1.61.9a1.79,1.79,0,0,0,2.44-1.07.89.89,0,0,0-.46-1.12c-2.34-1.38-4.65-2.79-7-4.21l.83-1.4.68.4c2.17,1.3,4.36,2.56,6.48,3.92a2.19,2.19,0,0,0,3.36-1.73c.05-.34-.14-.5-.4-.65l-14.33-8.52c-.53-.31-1.08-.61-1.59-1a.83.83,0,0,0-1,0c-2,1-3.93,2-5.9,3a2.49,2.49,0,0,1-3.14-3.81c.4-.52.81-1,1.23-1.54l1.32-1.55a3.72,3.72,0,0,0-.46-.07c-.53,0-1,0-1.58,0-1.25.07-2.48.06-3.41-1a3.43,3.43,0,0,1-3.2.78,3.28,3.28,0,0,1,.26-6.37,2.47,2.47,0,0,0,.36-.11h.57l.36.11A3.13,3.13,0,0,1,209,37.48a8.58,8.58,0,0,1,0,1.83,2.52,2.52,0,0,0,2.15.68c1.31,0,2.62,0,3.94,0a2.22,2.22,0,0,0,1-.25c1-.51,1.94-1.06,2.87-1.64a7.44,7.44,0,0,1,6.59-.54c1.71.56,3.4,1.16,5.1,1.73a.75.75,0,0,0,.48.06c.94-.38,1.87-.8,2.83-1.21l-1.34-2.69,7.53.45-4.13,6.22-1.31-2.56c-1.08.47-2.11.93-3.16,1.35a1.37,1.37,0,0,1-.89.06c-1.9-.61-3.8-1.28-5.7-1.91a5.74,5.74,0,0,0-5.26.46c-.6.41-1.27.71-1.89,1.09a11.11,11.11,0,0,0-3.18,2.26c-.78,1-1.57,1.91-2.36,2.85-.34.41-.53.83-.13,1.3s.83.37,1.3.13c2.25-1.14,4.5-2.29,6.76-3.4a.91.91,0,0,1,.74,0c1.8,1,3.57,2.1,5.36,3.16l10.88,6.46a.77.77,0,0,0,.6.1,9.94,9.94,0,0,0,1.21-.64,3.33,3.33,0,0,1,2.27-4.06,3.26,3.26,0,0,1,4.05,2.43c0,.05.07.08.1.12v1.13c-.05.14-.1.27-.14.41a3.23,3.23,0,0,1-2.82,2.32,3.31,3.31,0,0,1-2.66-.92c-.87.41-.87.41-.88,1.34a3.91,3.91,0,0,1-3,3.77c-.25,0-.51.07-.77.11a3.09,3.09,0,0,1-1.31,2.58,4.47,4.47,0,0,1-2.83.64,3.63,3.63,0,0,1-3.34,3,1.06,1.06,0,0,0-.64.34,4.21,4.21,0,0,1-2.75,1.59l-.64.13h-.45c-1.51-.35-3-.68-4.52-1a.94.94,0,0,0-.92.19,2.59,2.59,0,0,1-2.85.34,8.75,8.75,0,0,1-1.25-.9c-1.5,1.36-2.91,1.21-4.58-.51A2.84,2.84,0,0,1,205,62.33c-2.33-.67-3.06-2.57-1.81-4.6a10.33,10.33,0,0,0,.66-1.1.58.58,0,0,0,0-.53C203,54.85,202,53.62,201,52.36l-2.36,1.86c-.21-1.41-.4-2.72-.61-4-.18-1.08-.37-2.16-.56-3.24Zm10.37,17.76a2.78,2.78,0,0,0,.78-.64c1.48-2.35,2.93-4.74,4.37-7.12a1.16,1.16,0,0,0-.31-1.67,1.14,1.14,0,0,0-1.67.48c-.47.74-.91,1.5-1.37,2.25-1,1.62-2,3.24-3,4.87C206.17,63.62,206.68,64.6,207.87,64.61Zm8.1-5.2a1.24,1.24,0,0,0-.85-1.26,1.14,1.14,0,0,0-1.33.58c-1,1.67-2.06,3.34-3.08,5a1.16,1.16,0,1,0,2,1.18q1.52-2.45,3-4.92A3.54,3.54,0,0,0,216,59.41Zm-7.22-3.33a1.21,1.21,0,0,0-.82-1.23,1.12,1.12,0,0,0-1.35.53c-.73,1.16-1.44,2.32-2.14,3.5a1.13,1.13,0,0,0,.38,1.65,1.16,1.16,0,0,0,1.63-.49c.69-1.12,1.37-2.23,2.05-3.36A3.23,3.23,0,0,0,208.75,56.08ZM216.86,62a2,2,0,0,0-.7.48,15,15,0,0,0-1.09,1.75A1.15,1.15,0,0,0,217,65.43a14.63,14.63,0,0,0,1.11-1.81A1.18,1.18,0,0,0,216.86,62Zm-11-25.35a1.64,1.64,0,0,0-1.67,1.6,1.67,1.67,0,0,0,1.66,1.69,1.64,1.64,0,0,0,1.63-1.65A1.6,1.6,0,0,0,205.88,36.62Zm36.32,17A1.63,1.63,0,0,0,243.86,52a1.65,1.65,0,1,0-3.3,0A1.63,1.63,0,0,0,242.2,53.59Z"/><path class="cls-4" d="M280.4,145.44l.21-.16,4.75-2.72v2.21h6.4V137.3c0-.81.11-.94.91-1l3.92,0h.61a3.22,3.22,0,0,0,0-.39v-11a1.26,1.26,0,0,0-1.4-1.34,1.27,1.27,0,0,0-1.11,1.37v6.18c0,.83-.14,1-1,1h-11.1a4.92,4.92,0,0,0-5.07,5.07c0,2.65,0,5.29,0,7.94,0,.15,0,.3,0,.45,0,.36-.29.6-.6.54s-.45-.31-.63-.52,0-.29,0-.44v-8a6.11,6.11,0,0,1,6.28-6.28h10.85v-.65c0-1.72,0-3.45,0-5.17a2.57,2.57,0,0,1,1.61-2.59.44.44,0,0,0,.24-.3c0-1.31,0-2.61,0-4H285c-.94,0-1.08-.14-1.08-1.07V105.5c0-.86.15-1,1-1H307c.88,0,1,.11,1,1v11.7c0,.78-.16,1-.94,1H296.65a3.49,3.49,0,0,0-.06.37c0,1.15,0,2.31,0,3.46a.67.67,0,0,0,.31.47,2.47,2.47,0,0,1,1.58,2.35c0,4,0,8,0,12,0,.57-.21.76-.81.77H293v7.62c0,.72-.19.91-.93.91h-6.68v2.27Zm4.81-39.68v11.08h21.53V105.76Z"/><path class="cls-4" d="M289,125a4.27,4.27,0,1,1-4.27-4.27A4.28,4.28,0,0,1,289,125Zm-1.26,0a3,3,0,0,0-3-3,3,3,0,0,0-.07,6A3,3,0,0,0,287.69,125Z"/><path class="cls-4" d="M295.33,110.39v-3.17c0-.62.19-.89.61-.9s.65.28.65.93c0,.92,0,1.84,0,2.76a.51.51,0,0,0,.37.55,2.5,2.5,0,0,1,1.47,2.88,2.48,2.48,0,0,1-2.48,1.94,2.44,2.44,0,0,1-2.45-2,2.49,2.49,0,0,1,1.51-2.81Zm.65,1.22a1.27,1.27,0,0,0-.07,2.53,1.27,1.27,0,1,0,.07-2.53Z"/><path class="cls-4" d="M279.24,251.37l-9.21,0h-.6v-1.1h7.34l0-.09-.38-.28c-2.2-1.57-4.39-3.14-6.6-4.7a1,1,0,0,1-.47-.88q0-11.36,0-22.72a1,1,0,0,1,.47-.88q3.27-2.31,6.52-4.64l.48-.36H251.24l.46.34c2.18,1.56,4.36,3.12,6.55,4.66a1,1,0,0,1,.47.89q0,11.34,0,22.68a1,1,0,0,1-.48.92q-3.26,2.3-6.49,4.61l-.56.41H263v-2l4.5,2.6-4.49,2.6v-2H248.86c0-.34-.05-.64-.05-.94V226.12c0-.36,0-.58-.43-.74a2.29,2.29,0,0,1-1.26-1.67v-.65a2.4,2.4,0,0,1,1.35-1.71.48.48,0,0,0,.34-.55q0-2.72,0-5.43a8.46,8.46,0,0,1,.08-.88h30.35Zm-1.13-35.15-.38.25-6.89,4.9a.73.73,0,0,0-.36.68q0,10.89,0,21.78a.74.74,0,0,0,.36.68c2.32,1.63,4.63,3.29,6.94,4.93.09.07.2.12.33.2ZM250,249.64l.24-.15c2.36-1.68,4.73-3.35,7.08-5.06a.83.83,0,0,0,.27-.62q0-10.86,0-21.74a.78.78,0,0,0-.39-.72c-2.11-1.49-4.22-3-6.33-4.5-.27-.2-.55-.38-.89-.62v.53c0,1.32,0,2.64,0,4a.59.59,0,0,0,.41.66,2.07,2.07,0,0,1,1.26,2,2,2,0,0,1-1.22,2,.7.7,0,0,0-.45.78q0,11.46,0,22.91Zm-1.72-26.23a1.15,1.15,0,0,0,1.13,1.12,1.14,1.14,0,1,0,0-2.28A1.15,1.15,0,0,0,248.27,223.41Z"/><path class="cls-4" d="M266.72,222.14a1,1,0,0,0,.93,1,.66.66,0,0,1,.77.45c.11.25.21.51.31.77a.66.66,0,0,1-.24.86.86.86,0,0,0,0,1.2.67.67,0,0,1,.24.86c-.11.27-.21.55-.32.82a.66.66,0,0,1-.71.42,1,1,0,0,0-1,1,.65.65,0,0,1-.42.7l-.77.32a.69.69,0,0,1-.9-.24.93.93,0,0,0-1.29,0,.7.7,0,0,1-.9.23l-.77-.33a.63.63,0,0,1-.41-.7,1,1,0,0,0-1-1,.64.64,0,0,1-.68-.39,8.88,8.88,0,0,1-.36-.9.66.66,0,0,1,.23-.79.86.86,0,0,0,0-1.24.65.65,0,0,1-.22-.78c.1-.29.23-.58.34-.86a.64.64,0,0,1,.74-.42,1,1,0,0,0,.95-.94.71.71,0,0,1,.48-.8l.78-.31a.65.65,0,0,1,.79.22.93.93,0,0,0,1.35,0,.67.67,0,0,1,.83-.22l.77.32A.64.64,0,0,1,266.72,222.14Zm.77,5.22a1.47,1.47,0,0,0,.05-.17s0-.1-.05-.12a.89.89,0,0,1-.36-1,1.73,1.73,0,0,0,0-.6.77.77,0,0,1,.29-.82c.06,0,.08-.18.12-.27l-.29-.07c-.19,0-.48,0-.55-.15-.37-.63-1.39-.84-1.11-2a3.85,3.85,0,0,0-.4.31,3.63,3.63,0,0,1-2.23.15l-.1-.09-.36-.22a2.47,2.47,0,0,0-.05.38,3.07,3.07,0,0,1-1.61,1.6h-.45a2.58,2.58,0,0,1,0,3.09,1.07,1.07,0,0,1,1.29.53,1.12,1.12,0,0,0,.33.32.8.8,0,0,1,.42.86c0,.07.05.15.08.23l.26-.12c.16-.1.35-.32.48-.3.72.15,1.57-.31,2.16.43,0,0,.06,0,.17-.05-.26-.63.24-.89.62-1.26S266.84,227.12,267.49,227.36Z"/><path class="cls-4" d="M264,239.78c-.68,0-1.37,0-2.05,0a1.16,1.16,0,0,1-.67-.24,4.28,4.28,0,1,1,5.52,0,1.3,1.3,0,0,1-.76.27C265.4,239.8,264.72,239.78,264,239.78Zm0-1.12c.58,0,1.15,0,1.72,0a1,1,0,0,0,.57-.24,3.12,3.12,0,0,0,0-4.36,3.15,3.15,0,0,0-4.44-.11,3.1,3.1,0,0,0-.18,4.39,1.19,1.19,0,0,0,.71.31C263,238.69,263.51,238.66,264.05,238.66Z"/><path class="cls-4" d="M264.11,241.36h-2c-.39,0-.69-.11-.7-.56s.2-.56.68-.56h4.14c.39,0,.66.14.66.55s-.27.57-.65.57Z"/><path class="cls-4" d="M264.11,241.76c.7,0,1.4,0,2.09,0,.4,0,.65.15.65.55a.54.54,0,0,1-.61.56H262a.52.52,0,0,1-.59-.57c0-.38.23-.54.6-.54Z"/><path class="cls-4" d="M264.13,244.43H263c-.36,0-.61-.16-.62-.54a.53.53,0,0,1,.59-.57h2.23a.53.53,0,0,1,.59.57c0,.37-.25.54-.61.54Z"/><path class="cls-4" d="M264,223.23a2.6,2.6,0,0,1,2.62,2.58,2.63,2.63,0,1,1-2.62-2.58Zm0,1.12a1.47,1.47,0,1,0,1.46,1.47A1.47,1.47,0,0,0,264,224.35Z"/><path class="cls-4" d="M169.25,247.88l2.61,1.11a.54.54,0,0,1,.37.73,1.62,1.62,0,0,0,.71,2,1.12,1.12,0,0,1,.4.41c.33.58.83.6,1.42.51.84-.14.87-.13,1.21.64s.54,1.42.83,2.13a.43.43,0,0,1-.19.61,2.09,2.09,0,0,0-1,2.09,1.84,1.84,0,0,0,.94,1.85.52.52,0,0,1,.23.74c-.34.8-.66,1.61-1,2.41-.11.28-.29.43-.6.34a1.82,1.82,0,0,0-2.24.86,1.07,1.07,0,0,1-.38.35.86.86,0,0,0-.38,1.13c.92-.2,1.82-.47,2.74-.58a12.93,12.93,0,0,1,13,5.92.85.85,0,0,0,.82.46,2.71,2.71,0,0,1,2.59,1.82c.06.17.13.32.19.48V275a7,7,0,0,1-.71,1.25,2.86,2.86,0,1,1-4.25-3.82l.27-.3a11.68,11.68,0,0,0-21.23,2.72l2.2.88-5.14,4.12-1-6.51,2.4.92a33.14,33.14,0,0,1,2-3.58,32.48,32.48,0,0,1,2.65-3.05,6.1,6.1,0,0,0-.59-.7.63.63,0,0,0-.45-.15,4.88,4.88,0,0,1-1.14,0,1.35,1.35,0,0,0-1.66.76.78.78,0,0,1-1.16.34c-.71-.33-1.43-.63-2.15-.93a.44.44,0,0,1-.31-.57,2.16,2.16,0,0,0-.87-2.35,1.83,1.83,0,0,0-1.92-.67.66.66,0,0,1-.87-.49c-.33-.85-.69-1.69-1-2.53v-.21c.41-.32.82-.62,1.21-1a.53.53,0,0,0,.13-.36c0-.58,0-1.16,0-1.74a.58.58,0,0,0-.16-.4c-.37-.33-.78-.62-1.17-.93v-.11c.37-.91.74-1.82,1.09-2.73a.54.54,0,0,1,.73-.38c.89.27,1.44-.13,2.08-.76a2,2,0,0,0,.8-2.17c-.11-.37.08-.57.41-.71l2.62-1.08h.21c.49.75.89,1.61,2.08,1.32a5.6,5.6,0,0,1,1.08,0,.74.74,0,0,0,.49-.18c.34-.36.64-.77.95-1.16Zm4.41,6.28c-.39.17-.63-.09-.89-.45a4.38,4.38,0,0,0-1.13-1.21,1.74,1.74,0,0,1-.93-2.13.51.51,0,0,0-.16-.43c-.69-.49-1-.44-1.49.2-.1.12-.21.24-.3.36a.57.57,0,0,1-.66.25,7.92,7.92,0,0,0-2.17-.07c-.76.13-1.31,0-1.68-.67-.24-.47-.57-.44-1-.26s-.66.43-.51.92a5.48,5.48,0,0,1,.05.57c.07.34-.08.52-.34.73a8.72,8.72,0,0,0-1.6,1.55,1.26,1.26,0,0,1-1.47.61h-.1c-.49-.18-.7.07-.88.49s-.21.81.27,1.08c.15.08.27.23.41.32s.33.4.29.75a6.54,6.54,0,0,0-.06,2,1.25,1.25,0,0,1-.61,1.55l-.13.1c-.35.19-.39.44-.23.81.31.73.29.74,1.07.66.12,0,.25,0,.37,0a.79.79,0,0,1,.86.39,7.46,7.46,0,0,0,1.51,1.56,1.2,1.2,0,0,1,.6,1.47c-.17.57,0,.83.58,1s.67.14.91-.24c.12-.21.32-.37.46-.57s.33-.25.61-.23a17.9,17.9,0,0,0,2.64,0,.91.91,0,0,1,1,.42c.05.09.14.16.19.25.29.5.65.55,1.16.3.33-.17.54-.33.45-.74-.05-.21,0-.45-.07-.67a.68.68,0,0,1,.32-.78,5.79,5.79,0,0,0,1.45-1.33,1.61,1.61,0,0,1,2-.8.51.51,0,0,0,.44-.15c.49-.69.44-1-.2-1.55-.11-.09-.26-.15-.32-.26a1.73,1.73,0,0,1-.25-.66,10.89,10.89,0,0,0,0-2.13,1.26,1.26,0,0,1,.68-1.53c.44-.26.45-.56.26-1s-.37-.73-.9-.55A1.76,1.76,0,0,1,173.66,254.16Zm15,21.71a1.44,1.44,0,0,0,1.45-1.4,1.44,1.44,0,1,0-1.45,1.4Z"/><path class="cls-4" d="M175.83,292.6l-1.62-.3a13,13,0,0,1-8.43-5.68.71.71,0,0,0-.69-.4,2.79,2.79,0,0,1-2.77-2.3,2.87,2.87,0,1,1,5,1.33,4.27,4.27,0,0,1-.38.36,11.66,11.66,0,0,0,20.76-1.84l-2.38-.95,5.15-4.12,1,6.52-2.35-.91c-.08.17-.15.32-.23.47a13,13,0,0,1-10.76,7.72,1.19,1.19,0,0,0-.28.1Zm-10.69-10.66a1.42,1.42,0,0,0-1.46,1.44,1.5,1.5,0,0,0,1.43,1.45,1.47,1.47,0,0,0,1.45-1.47A1.39,1.39,0,0,0,165.14,281.94Z"/><path class="cls-4" d="M176.44,271.19h1.15v1.65l1.78.44c.47.12.67.37.39.85a5.29,5.29,0,0,0-.27.66,4.68,4.68,0,0,0-2.64-.59,1.5,1.5,0,0,0-1.53,1.76,1.71,1.71,0,0,0,.6,1,10.42,10.42,0,0,0,1.5.83c.5.25,1,.47,1.48.76a2.91,2.91,0,0,1,1.4,3.18,3,3,0,0,1-2.25,2.43,4.24,4.24,0,0,1-.55.15v1.85h-1.18v-1.66l-2.86-.82.44-1.24c.83.22,1.6.49,2.39.62a2.86,2.86,0,0,0,1.32-.18,1.66,1.66,0,0,0,.49-2.9,8.09,8.09,0,0,0-1.43-.83c-.52-.27-1.08-.48-1.58-.79a2.64,2.64,0,0,1-1.41-2.6,2.71,2.71,0,0,1,2-2.52c.64-.19.83-.46.75-1.07A6,6,0,0,1,176.44,271.19Z"/><path class="cls-4" d="M166.72,263.22a5.21,5.21,0,1,1,0-10.41,5.21,5.21,0,1,1,0,10.41Zm3.79-5.21a3.81,3.81,0,1,0-3.79,3.78A3.81,3.81,0,0,0,170.51,258Z"/><path class="cls-4" d="M87.86,249.84v2.65L82.4,249.4l5.45-3.09v2.21c.9-.29,1.74-.51,2.53-.84a13.21,13.21,0,0,0,8.26-12.38v-7a13.33,13.33,0,0,0-10.42-13.08.52.52,0,0,0-.7.28,2.75,2.75,0,0,1-4.79,0,.49.49,0,0,0-.65-.29,13.35,13.35,0,0,0-10.29,10.88,14.91,14.91,0,0,0-.15,2.32c0,3.11,0,6.23,0,9.34v.58a6.39,6.39,0,1,1-1.22-12.71c.28-.91.49-1.83.85-2.69a14.5,14.5,0,0,1,10.66-9,.75.75,0,0,0,.62-.56,2.75,2.75,0,0,1,5.19,0,.65.65,0,0,0,.56.5c6,1.5,9.87,5.2,11.38,11.26.08.34.18.5.58.54a6.36,6.36,0,0,1,.11,12.64c-.55.07-.71.3-.86.8a14.57,14.57,0,0,1-11.13,10.56ZM100,227.05v10a4.94,4.94,0,0,0,4.64-4.66A5,5,0,0,0,100,227.05Zm-29.7,0a5,5,0,0,0,0,9.95Zm14.87-11.45a1.38,1.38,0,0,0,1.44-1.36,1.44,1.44,0,0,0-2.88,0A1.39,1.39,0,0,0,85.13,215.63Z"/><path class="cls-4" d="M92.33,225.1l.3,0c.94-.06,1-.07,1.34.77.26.57.45,1.17.68,1.75a.45.45,0,0,1-.19.63,1.82,1.82,0,0,0-.92,1.77,1.84,1.84,0,0,0,.92,1.88.44.44,0,0,1,.19.63c-.31.74-.62,1.48-.92,2.23a.47.47,0,0,1-.62.33,2,2,0,0,0-2.08.74,1.76,1.76,0,0,0-.68,1.89.55.55,0,0,1-.39.73l-2.24.89a.41.41,0,0,1-.58-.18,2.53,2.53,0,0,0-4,0,.43.43,0,0,1-.59.19l-2.32-.94a.44.44,0,0,1-.31-.58,1.93,1.93,0,0,0-.75-2.06,1.85,1.85,0,0,0-2-.67.52.52,0,0,1-.69-.37c-.29-.74-.59-1.46-.89-2.19a.44.44,0,0,1,.18-.63,1.84,1.84,0,0,0,.92-1.88,1.9,1.9,0,0,0-.91-1.78.62.62,0,0,1-.19-.56c.29-.8.64-1.58,1-2.37a.41.41,0,0,1,.55-.26,1.91,1.91,0,0,0,2-.65c.61-.64,1-1.18.76-2.06-.09-.31.05-.49.34-.61.75-.29,1.49-.59,2.23-.9a.47.47,0,0,1,.67.19,1.93,1.93,0,0,0,1.9.94,2.1,2.1,0,0,0,2.05-1,.57.57,0,0,1,.52-.19c.82.3,1.63.62,2.42,1a.57.57,0,0,1,.25.49,1.75,1.75,0,0,0,.83,2.12,1.07,1.07,0,0,1,.34.36C91.73,225.05,92,225.23,92.33,225.1Zm.88,2.5c-.35-1.19-.35-1.19-1.44-1.11a.38.38,0,0,0-.15,0c-.32.1-.48-.09-.69-.32a13.94,13.94,0,0,0-1.64-1.62.94.94,0,0,1-.43-.93c.11-1.07.08-1.07-1-1.38h-.08c-.24.28-.51.57-.75.89a.54.54,0,0,1-.58.21,5.91,5.91,0,0,0-2-.08,1.43,1.43,0,0,1-1.79-.73c-.17-.31-.39-.31-.7-.18-.7.3-.7.28-.62,1a2,2,0,0,0,0,.34c.09.38-.09.58-.38.81a5,5,0,0,0-1.36,1.27,1.4,1.4,0,0,1-1.69.66.47.47,0,0,0-.64.33c-.29.72-.31.71.29,1.2a3.3,3.3,0,0,0,.35.28c.22.14.25.31.21.58a4.46,4.46,0,0,0-.09,1.62,1.56,1.56,0,0,1-.79,1.95.38.38,0,0,0-.17.34c.11.78.37,1,1.16.88l.25,0a.73.73,0,0,1,.82.35,4.51,4.51,0,0,0,1.17,1.25,1.52,1.52,0,0,1,.8,1.91.42.42,0,0,0,.12.37.87.87,0,0,0,1.43-.15,2,2,0,0,0,.19-.22c.22-.38.53-.37.92-.34a10.4,10.4,0,0,0,2.16,0,1,1,0,0,1,1.06.39c.63.79.65.77,1.55.33l.15-.11c0-.31,0-.63-.1-1a.8.8,0,0,1,.39-.85,7.57,7.57,0,0,0,1.52-1.47,1.12,1.12,0,0,1,1.24-.49c.85.11.67.19,1-.58a.52.52,0,0,0-.22-.77c-.19-.13-.35-.31-.54-.43a.51.51,0,0,1-.21-.59,4.07,4.07,0,0,0,.11-1.42C92,228.81,92.11,228,93.21,227.6Z"/><path class="cls-4" d="M85.15,225.26a4.88,4.88,0,0,1,4.95,4.79,4.95,4.95,0,1,1-4.95-4.79Zm0,8.26a3.47,3.47,0,1,0-3.59-3.45A3.54,3.54,0,0,0,85.16,233.52Z"/><path class="cls-4" d="M59.17,106.49a7.61,7.61,0,0,1,1.69,1,2.92,2.92,0,0,1-.45,4.42l-.23.18c1,2.74,3,3.45,5.47,2a3,3,0,0,1-.22-2.81,3,3,0,0,1,3.4-1.75,3,3,0,0,1,2.34,2.93,3,3,0,0,1-2.4,2.92c-.35.06-.45.2-.52.52q-1.43,6.74-2.89,13.47c-.13.62-.33.79-1,.79H53c-.67,0-.85-.16-1-.81q-1.44-6.72-2.89-13.42c0-.16-.07-.32-.11-.46-2.19-.27-3.39-1.74-3-3.65a3,3,0,0,1,3.8-2.22c1.82.55,2.53,2.34,1.74,4.38,2.56,1.61,4.55,1,5.67-1.86a3.18,3.18,0,0,1-1.33-1.66,3,3,0,0,1,1.92-3.8l.41-.15Zm-.5,6.05c-.76,1.62-1.6,3.12-3.38,3.6a6.13,6.13,0,0,1-4.84-1l2.91,13.49H64l2.9-13.48C62.73,117.45,60.22,116.15,58.67,112.54Zm0-4.55a1.5,1.5,0,0,0,0,3,1.5,1.5,0,1,0,0-3Zm-8.29,4.42a1.51,1.51,0,0,0-1.5-1.49,1.53,1.53,0,0,0-1.51,1.54,1.57,1.57,0,0,0,1.51,1.5A1.53,1.53,0,0,0,50.38,112.41Zm19.29,0a1.51,1.51,0,0,0-1.47-1.52,1.53,1.53,0,0,0-1.53,1.51A1.55,1.55,0,0,0,68.2,114,1.52,1.52,0,0,0,69.67,112.44Z"/><path class="cls-4" d="M75.87,154.49V152H42.49V121.08H39.8l3.47-6,3.41,6H44v29.43H75.92V147.6l5.93,3.46-.49.31-5,2.84c-.14.08-.26.19-.4.28Z"/><path class="cls-4" d="M51.66,143.26a3.14,3.14,0,0,1,.18,2.36,3,3,0,1,1-5.6-2.1,3,3,0,0,1,4-1.57.62.62,0,0,0,.81-.12c2.14-2,4.3-3.94,6.45-5.9l.45-.37,3.81,4,13.67-11.94-2-1.94,6.68-1.79-1.76,6.59-1.76-1.88-14.91,13-3.81-4ZM49,146.18a1.53,1.53,0,0,0,1.48-1.56A1.5,1.5,0,0,0,49,143.16a1.52,1.52,0,0,0-1.49,1.55A1.55,1.55,0,0,0,49,146.18Z"/><path class="cls-4" d="M61,118l-.34,1.15c-.66-.11-1.27-.22-1.89-.3a1.2,1.2,0,0,0-.58.11A.77.77,0,0,0,58,120.3a7.84,7.84,0,0,0,1.15.6c.3.14.61.26.9.42a2.12,2.12,0,0,1,1.2,2.27,2.25,2.25,0,0,1-1.58,1.88c-.17.06-.35.1-.57.16v1.27H58v-1.13l-1.65-.42c-.35-.1-.5-.29-.32-.66a5.9,5.9,0,0,0,.2-.68c.69.15,1.34.32,2,.42a1.65,1.65,0,0,0,.82-.15.89.89,0,0,0,.19-1.58,5,5,0,0,0-.91-.5c-.37-.18-.77-.31-1.13-.51a2,2,0,0,1-1.18-2,2.1,2.1,0,0,1,1.49-1.87c.16-.07.34-.11.55-.18v-1.2h1.08v1.08Z"/><path class="cls-4" d="M111.77,68.54H143V66.06l5.55,3.2L143,72.43V70H110.43V32.48h-2.54l3.19-5.54,3.18,5.49H111.8V61.66l7-9.1,4,3,8.57-10.78,4.77,2.91,1.4-1.72c1.41-1.76,2.81-3.52,4.24-5.27a.61.61,0,0,0,.08-.8A2.76,2.76,0,0,1,143.25,36,2.79,2.79,0,0,1,147,37.67a2.76,2.76,0,0,1-2,3.57,3.29,3.29,0,0,1-1.29,0,.68.68,0,0,0-.82.27c-2,2.5-4,5-6,7.48l-.39.47-4.77-2.91-8.63,10.87-4-2.94L117,57.2c-1.65,2.14-3.31,4.28-5,6.44a1.44,1.44,0,0,0-.27.78C111.76,65.78,111.77,67.14,111.77,68.54ZM144.37,40A1.4,1.4,0,1,0,143,38.6,1.41,1.41,0,0,0,144.37,40Z"/><path class="cls-4" d="M130.41,53.47c-.12-.37.08-.62.47-.78s.56-.26.85-.37c.88-.34.88-.33,1.53.36.29.31,1.48.29,1.71-.1a.86.86,0,0,1,1.27-.34l.75.31c.56.21.89.51.75,1.21-.11.52.79,1.33,1.32,1.22a.74.74,0,0,1,1,.54c.11.31.26.6.38.9.22.54.29,1-.34,1.37-.38.22-.3,1.41.11,1.68a.72.72,0,0,1,.3,1c-.12.28-.2.59-.32.87-.36.81-.36.81-1.26.77-.42,0-1.28.81-1.19,1.24.15.7-.17,1-.77,1.24-.24.08-.47.18-.7.28a.88.88,0,0,1-1.29-.32,1.35,1.35,0,0,0-1.8,0,.81.81,0,0,1-1.18.33l-.66-.26c-.65-.23-1.1-.55-.91-1.37.1-.44-.85-1.24-1.31-1.13a.74.74,0,0,1-1-.54,9,9,0,0,0-.36-.85c-.25-.55-.35-1,.31-1.42.36-.21.3-1.42-.07-1.65a.78.78,0,0,1-.31-1.14c.11-.26.2-.54.31-.81.37-.81.37-.81,1.26-.76C129.76,55,130.45,54.16,130.41,53.47ZM136.34,63a.66.66,0,0,1,.3-.9,2.91,2.91,0,0,0,.83-.77,1,1,0,0,1,1.19-.58.45.45,0,0,0,.34-.17.35.35,0,0,0-.08-.32c-.62-.32-.58-.83-.45-1.39a1.58,1.58,0,0,0,0-.65c-.14-.52-.12-1,.42-1.24a.41.41,0,0,0,.12-.36.32.32,0,0,0-.27-.18c-.66.2-1-.15-1.32-.64a1.49,1.49,0,0,0-.5-.5c-.48-.3-.8-.65-.62-1.28,0-.08-.1-.25-.19-.31a.36.36,0,0,0-.31.1c-.31.62-.81.58-1.37.47a1.78,1.78,0,0,0-.65,0c-.56.09-1.1.16-1.42-.48a.31.31,0,0,0-.31-.08c-.09,0-.21.2-.18.26.24.71-.2,1-.69,1.39a1.7,1.7,0,0,0-.52.55.94.94,0,0,1-1.15.53.38.38,0,0,0-.34.16.37.37,0,0,0,.1.35c.57.3.55.77.46,1.3a1.78,1.78,0,0,0,0,.65c.1.54.13,1-.47,1.34a.36.36,0,0,0-.1.32c0,.08.2.2.27.18.68-.21,1,.21,1.35.68a2.66,2.66,0,0,0,.72.66.73.73,0,0,1,.39.89c0,.15.09.34.14.51.16-.08.37-.12.46-.24a.8.8,0,0,1,1-.37,3.47,3.47,0,0,0,1.4,0,.69.69,0,0,1,.78.3,1.85,1.85,0,0,0,.53.31Z"/><path class="cls-4" d="M126.15,34.13a.81.81,0,0,1,0,.22c-.32.81.21,1.26.73,1.67a1,1,0,0,0,.75.09.53.53,0,0,1,.68.35c.15.35.31.69.47,1,.27.57.32,1.06-.34,1.46-.37.23-.32,1.35.07,1.6a.85.85,0,0,1,.33,1.23c-.11.25-.19.51-.3.76-.37.81-.38.8-1.27.76-.1,0-.26,0-.31,0-.36.47-1.14.74-.83,1.58.11.28,0,.48-.31.59l-1.08.5c-.58.27-1.06.32-1.46-.34-.23-.39-1.45-.36-1.68,0-.37.61-.82.59-1.37.33-.21-.09-.44-.16-.65-.26-.8-.38-.8-.38-.75-1.28,0-.4-.85-1.28-1.24-1.17-.66.17-1-.12-1.18-.68a6.9,6.9,0,0,0-.3-.75c-.27-.56-.27-1,.33-1.38a1.24,1.24,0,0,0,0-1.59.89.89,0,0,1-.33-1.32c.1-.23.18-.47.27-.71.21-.58.49-1,1.23-.76.46.13,1.32-.81,1.2-1.29a.8.8,0,0,1,.58-1.07c.28-.1.54-.22.8-.34.57-.27,1-.3,1.43.33.24.4,1.46.36,1.73,0a.87.87,0,0,1,1.28-.33c.23.11.48.18.7.29S125.87,34,126.15,34.13Zm-5.94,1.16a.72.72,0,0,1-.34,1,3,3,0,0,0-.82.78,1.06,1.06,0,0,1-1.2.57.4.4,0,0,0-.32.18.33.33,0,0,0,.08.3c.57.31.59.78.49,1.33a1.7,1.7,0,0,0,0,.71c.11.53.08,1-.48,1.27a.31.31,0,0,0-.09.3c0,.1.22.23.3.21.63-.2,1,.15,1.27.62a1.68,1.68,0,0,0,.53.53c.49.3.8.66.61,1.28a.33.33,0,0,0,.16.28.36.36,0,0,0,.31,0c.33-.68.88-.59,1.48-.5a2.15,2.15,0,0,0,.91,0,.78.78,0,0,1,1,.37c.09.12.28.17.42.25a1.31,1.31,0,0,0,.16-.51.86.86,0,0,1,.43-.94,3.07,3.07,0,0,0,.91-.92.8.8,0,0,1,.9-.4,1.24,1.24,0,0,0,.5-.15c-.08-.15-.12-.36-.24-.46a.77.77,0,0,1-.35-.91,3,3,0,0,0,0-1.24.77.77,0,0,1,.35-.91c.13-.1.16-.3.24-.46-.17-.05-.35-.17-.51-.14a.84.84,0,0,1-.9-.42,3.62,3.62,0,0,0-.91-.92.82.82,0,0,1-.42-.89,1.25,1.25,0,0,0-.13-.52c-.17.09-.39.14-.5.28a.74.74,0,0,1-.87.32,3.88,3.88,0,0,0-1.4,0,.74.74,0,0,1-.83-.31,1.71,1.71,0,0,0-.49-.31Z"/><path class="cls-4" d="M134.11,55.11a3.47,3.47,0,1,1-3.55,3.47A3.52,3.52,0,0,1,134.11,55.11ZM132,58.54a2.11,2.11,0,1,0,2.12-2.06A2.16,2.16,0,0,0,132,58.54Z"/><path class="cls-4" d="M122.43,36.27A3.47,3.47,0,1,1,119,39.78,3.48,3.48,0,0,1,122.43,36.27Zm2.12,3.47a2.1,2.1,0,0,0-4.19,0,2.1,2.1,0,1,0,4.19,0Z"/></svg>