<svg id="Layer_1" data-name="Layer 1" xmlns="http://www.w3.org/2000/svg" viewBox="0 0 350 350"><defs><style>.cls-1{fill:#d8e7da;}.cls-2{fill:#a8d7cd;}.cls-3{fill:#00b28f;}.cls-4{fill:#fff;}</style></defs><title>CarePlus</title><path class="cls-1" d="M342.91,175a167.63,167.63,0,0,1-66.22,133.63c-2,1.5-4,2.95-6,4.36a168,168,0,0,1-191.38,0c-2-1.41-4-2.87-6-4.37a168.22,168.22,0,0,1-59.17-182c.72-2.37,1.48-4.72,2.3-7A168,168,0,0,1,171.3,7.12c1.23,0,2.46,0,3.7,0s2.48,0,3.71,0A168,168,0,0,1,333.55,119.57q1.21,3.48,2.29,7h0A168,168,0,0,1,342.91,175Z"/><path class="cls-2" d="M171.3,0v7.1A168,168,0,0,0,16.45,119.58l-6.74-2.19A175.08,175.08,0,0,1,171.3,0Z"/><path class="cls-3" d="M171.3,7.12V124.46a50.48,50.48,0,0,0-43.21,31.38L16.45,119.58A168,168,0,0,1,171.3,7.12Z"/><path class="cls-2" d="M340.29,117.37l-6.74,2.2A168,168,0,0,0,178.71,7.12V0a173.47,173.47,0,0,1,100.14,34.1,175.45,175.45,0,0,1,61.44,83.25Z"/><path class="cls-3" d="M333.55,119.57,221.92,155.84a50.51,50.51,0,0,0-43.21-31.38V7.12A168,168,0,0,1,333.55,119.57Z"/><path class="cls-2" d="M73.32,308.63l-4.15,5.72A175.18,175.18,0,0,1,7.42,124.44l6.73,2.19a168.22,168.22,0,0,0,59.17,182Z"/><path class="cls-3" d="M142.31,215l-69,95a168.24,168.24,0,0,1-59.17-182L125.8,164.21A50.73,50.73,0,0,0,142.31,215Z"/><path class="cls-3" d="M270.7,313a168,168,0,0,1-191.38,0l69-95a50.68,50.68,0,0,0,53.39,0Z"/><path class="cls-2" d="M350,175a174.69,174.69,0,0,1-69.16,139.36l-4.15-5.71a168.2,168.2,0,0,0,59.15-182h0l6.74-2.18A175.11,175.11,0,0,1,350,175Z"/><path class="cls-3" d="M342.91,175a167.63,167.63,0,0,1-66.22,133.63l-69-95a50.67,50.67,0,0,0,16.51-50.78l111.64-36.27A168,168,0,0,1,342.91,175Z"/><path class="cls-1" d="M238.16,175a63.06,63.06,0,0,1-24.91,50.26c-.74.56-1.49,1.11-2.26,1.64a63.15,63.15,0,0,1-72,0c-.76-.53-1.52-1.07-2.25-1.64a63.23,63.23,0,0,1-22.26-68.45c.27-.89.56-1.78.87-2.66a63.17,63.17,0,0,1,58.24-42.29l1.39,0,1.4,0a63.17,63.17,0,0,1,58.23,42.29c.31.88.6,1.76.86,2.65h0A62.89,62.89,0,0,1,238.16,175Z"/><path class="cls-2" d="M274.85,318.71a175,175,0,0,1-199.69,0L79.32,313a168,168,0,0,0,191.38,0Z"/><path class="cls-4" d="M77.23,106.58a4.45,4.45,0,0,1-1.83.31,3.33,3.33,0,0,1-3.61-3.55,3.56,3.56,0,0,1,3.78-3.74,4.18,4.18,0,0,1,1.72.31l-.28,1a3.42,3.42,0,0,0-1.39-.27,2.35,2.35,0,0,0-2.47,2.6,2.32,2.32,0,0,0,2.46,2.55,3.58,3.58,0,0,0,1.41-.26Z"/><path class="cls-4" d="M83.14,104.19a2.53,2.53,0,0,1-2.62,2.71A2.46,2.46,0,0,1,78,104.27a2.52,2.52,0,0,1,2.64-2.71A2.45,2.45,0,0,1,83.14,104.19Zm-3.85,0c0,1,.48,1.73,1.27,1.73s1.25-.72,1.25-1.75c0-.8-.36-1.71-1.24-1.71S79.29,103.39,79.29,104.24Z"/><path class="cls-4" d="M84.2,99.34h1.3v7.45H84.2Z"/><path class="cls-4" d="M86.9,99.34h1.3v7.45H86.9Z"/><path class="cls-4" d="M92.48,106.79l-.09-.57h0a1.89,1.89,0,0,1-1.51.68,1.52,1.52,0,0,1-1.61-1.52c0-1.29,1.15-1.94,3-1.93v-.08c0-.34-.14-.9-1-.9a2.72,2.72,0,0,0-1.38.38l-.25-.84a3.7,3.7,0,0,1,1.85-.45,1.91,1.91,0,0,1,2.11,2.15v1.85a8.69,8.69,0,0,0,.07,1.23Zm-.17-2.5c-.91,0-1.79.18-1.79,1a.68.68,0,0,0,.74.73,1.05,1.05,0,0,0,1-.7,1,1,0,0,0,0-.29Z"/><path class="cls-4" d="M94.89,106.79c0-.35,0-.91,0-1.44v-6h1.3v3h0a1.85,1.85,0,0,1,1.63-.82c1.25,0,2.15,1,2.13,2.59a2.44,2.44,0,0,1-2.32,2.75,1.75,1.75,0,0,1-1.61-.88h0l-.07.77Zm1.34-2.11a1.45,1.45,0,0,0,0,.3,1.18,1.18,0,0,0,1.14.91c.81,0,1.3-.65,1.3-1.68s-.43-1.64-1.29-1.64a1.21,1.21,0,0,0-1.14.94,1.67,1.67,0,0,0,0,.34Z"/><path class="cls-4" d="M105.94,104.19a2.54,2.54,0,0,1-2.63,2.71,2.46,2.46,0,0,1-2.56-2.63,2.53,2.53,0,0,1,2.65-2.71A2.45,2.45,0,0,1,105.94,104.19Zm-3.86,0c0,1,.49,1.73,1.27,1.73s1.25-.72,1.25-1.75c0-.8-.35-1.71-1.24-1.71S102.08,103.39,102.08,104.24Z"/><path class="cls-4" d="M107,103.32c0-.69,0-1.18,0-1.64h1.12l0,1h0a1.54,1.54,0,0,1,1.4-1.09,1.32,1.32,0,0,1,.3,0v1.22a1.82,1.82,0,0,0-.37,0,1.15,1.15,0,0,0-1.16,1,2.46,2.46,0,0,0,0,.4v2.65H107Z"/><path class="cls-4" d="M113.61,106.79l-.08-.57h0a1.9,1.9,0,0,1-1.51.68,1.52,1.52,0,0,1-1.61-1.52c0-1.29,1.14-1.94,3-1.93v-.08c0-.34-.13-.9-1-.9a2.69,2.69,0,0,0-1.37.38l-.25-.84a3.66,3.66,0,0,1,1.84-.45,1.91,1.91,0,0,1,2.11,2.15v1.85a8.54,8.54,0,0,0,.08,1.23Zm-.17-2.5c-.91,0-1.78.18-1.78,1a.68.68,0,0,0,.73.73,1,1,0,0,0,1-.7,1,1,0,0,0,0-.29Z"/><path class="cls-4" d="M117.55,100.22v1.46h1.23v1h-1.23v2.26c0,.62.17.94.66.94a2.09,2.09,0,0,0,.51-.06l0,1a3,3,0,0,1-.94.12,1.46,1.46,0,0,1-1.11-.42,2,2,0,0,1-.4-1.42v-2.41h-.73v-1h.73v-1.16Z"/><path class="cls-4" d="M121.13,100.25a.73.73,0,0,1-1.45,0,.69.69,0,0,1,.73-.7A.68.68,0,0,1,121.13,100.25Zm-1.37,6.54v-5.11h1.3v5.11Z"/><path class="cls-4" d="M123.26,101.68l.83,2.59c.15.45.25.86.35,1.28h0c.09-.42.21-.82.35-1.28l.8-2.59H127L125,106.79h-1.27l-1.9-5.11Z"/><path class="cls-4" d="M128.69,104.6a1.39,1.39,0,0,0,1.58,1.32,4,4,0,0,0,1.41-.23l.19.89a4.78,4.78,0,0,1-1.78.31,2.42,2.42,0,0,1-2.64-2.58,2.53,2.53,0,0,1,2.5-2.75,2.23,2.23,0,0,1,2.21,2.49,3.22,3.22,0,0,1,0,.55Zm2.25-.91a1.1,1.1,0,0,0-1.06-1.25,1.27,1.27,0,0,0-1.19,1.25Z"/><path class="cls-4" d="M82.76,114.38c0-.67,0-1.22,0-1.7h1.14l.06.78h0a2,2,0,0,1,1.75-.9,2.33,2.33,0,0,1,2.16,2.6,2.44,2.44,0,0,1-2.34,2.74,1.66,1.66,0,0,1-1.43-.68h0v2.65h-1.3Zm1.3,1.27a1.34,1.34,0,0,0,0,.35,1.16,1.16,0,0,0,1.13.91c.82,0,1.3-.68,1.3-1.69s-.44-1.64-1.27-1.64a1.2,1.2,0,0,0-1.15,1,1.32,1.32,0,0,0,0,.33Z"/><path class="cls-4" d="M88.91,110.34h1.3v7.45h-1.3Z"/><path class="cls-4" d="M94.48,117.79l-.08-.57h0a1.91,1.91,0,0,1-1.52.68,1.51,1.51,0,0,1-1.6-1.52c0-1.29,1.14-1.94,3-1.93v-.08c0-.34-.13-.9-1-.9a2.69,2.69,0,0,0-1.37.38l-.25-.84a3.66,3.66,0,0,1,1.84-.45,1.91,1.91,0,0,1,2.11,2.15v1.85a7.31,7.31,0,0,0,.08,1.23Zm-.17-2.5c-.91,0-1.78.18-1.78,1a.67.67,0,0,0,.73.73,1,1,0,0,0,1-.7,1,1,0,0,0,0-.29Z"/><path class="cls-4" d="M98.42,111.22v1.46h1.23v1H98.42v2.26c0,.62.17.94.66.94a1.93,1.93,0,0,0,.5-.06l0,1a3,3,0,0,1-.94.12,1.46,1.46,0,0,1-1.11-.42,2,2,0,0,1-.4-1.42v-2.41h-.74v-1h.74v-1.16Z"/><path class="cls-4" d="M100.77,117.79v-4.15h-.69v-1h.69v-.22a2.4,2.4,0,0,1,.62-1.75,2,2,0,0,1,1.33-.49,2.33,2.33,0,0,1,.83.13l-.09,1a1.61,1.61,0,0,0-.55-.09c-.64,0-.86.53-.86,1.16v.27h1.13v1h-1.12v4.15Z"/><path class="cls-4" d="M108.83,115.19a2.53,2.53,0,0,1-2.62,2.71,2.46,2.46,0,0,1-2.56-2.63,2.52,2.52,0,0,1,2.64-2.71A2.45,2.45,0,0,1,108.83,115.19Zm-3.85,0c0,1,.48,1.73,1.27,1.73s1.25-.72,1.25-1.75c0-.8-.36-1.71-1.24-1.71S105,114.39,105,115.24Z"/><path class="cls-4" d="M109.9,114.32c0-.69,0-1.18-.05-1.64H111l0,1h0a1.53,1.53,0,0,1,1.4-1.09,1.39,1.39,0,0,1,.3,0v1.22a1.84,1.84,0,0,0-.38,0,1.13,1.13,0,0,0-1.15,1,2.46,2.46,0,0,0,0,.4v2.65H109.9Z"/><path class="cls-4" d="M113.63,114.2c0-.59,0-1.08,0-1.52h1.11l.06.75h0a1.76,1.76,0,0,1,1.57-.87,1.47,1.47,0,0,1,1.42,1h0a1.84,1.84,0,0,1,.63-.64,1.7,1.7,0,0,1,1-.31c.85,0,1.71.58,1.71,2.22v3h-1.26V115c0-.86-.29-1.36-.91-1.36a1,1,0,0,0-.9.68,1.55,1.55,0,0,0-.07.43v3.07h-1.26v-3c0-.72-.28-1.22-.88-1.22a1,1,0,0,0-.92.74,1,1,0,0,0-.08.42v3h-1.26Z"/><path class="cls-4" d="M223.57,108.23a4.4,4.4,0,0,1-1.82.31,3.34,3.34,0,0,1-3.62-3.56,3.56,3.56,0,0,1,3.78-3.73,4.28,4.28,0,0,1,1.73.31l-.29,1a3.37,3.37,0,0,0-1.38-.27,2.35,2.35,0,0,0-2.48,2.6,2.32,2.32,0,0,0,2.47,2.55,3.53,3.53,0,0,0,1.4-.26Z"/><path class="cls-4" d="M229.48,105.84a2.53,2.53,0,0,1-2.62,2.71,2.46,2.46,0,0,1-2.56-2.63,2.52,2.52,0,0,1,2.64-2.71A2.45,2.45,0,0,1,229.48,105.84Zm-3.85,0c0,1,.48,1.73,1.27,1.73s1.25-.72,1.25-1.75c0-.8-.36-1.71-1.24-1.71S225.63,105,225.63,105.89Z"/><path class="cls-4" d="M230.55,104.85c0-.59,0-1.08-.05-1.52h1.14l.06.76h0a1.85,1.85,0,0,1,1.63-.88c.89,0,1.82.58,1.82,2.19v3h-1.3v-2.89c0-.73-.27-1.29-1-1.29a1.09,1.09,0,0,0-1,.76,1.34,1.34,0,0,0-.05.42v3h-1.3Z"/><path class="cls-4" d="M236.55,104.85c0-.59,0-1.08,0-1.52h1.13l.07.76h0a1.83,1.83,0,0,1,1.63-.88c.89,0,1.81.58,1.81,2.19v3h-1.29v-2.89c0-.73-.27-1.29-1-1.29a1.07,1.07,0,0,0-1,.76,1.09,1.09,0,0,0-.06.42v3h-1.3Z"/><path class="cls-4" d="M243.47,106.24a1.39,1.39,0,0,0,1.58,1.33,4,4,0,0,0,1.41-.23l.19.89a4.78,4.78,0,0,1-1.78.31,2.42,2.42,0,0,1-2.64-2.58,2.53,2.53,0,0,1,2.5-2.75,2.23,2.23,0,0,1,2.21,2.49,3,3,0,0,1-.05.54Zm2.25-.9a1.1,1.1,0,0,0-1.06-1.25,1.27,1.27,0,0,0-1.19,1.25Z"/><path class="cls-4" d="M251.73,108.28a3.61,3.61,0,0,1-1.44.26,2.45,2.45,0,0,1-2.64-2.6,2.65,2.65,0,0,1,2.85-2.73,3.29,3.29,0,0,1,1.24.24l-.23,1a2.17,2.17,0,0,0-1-.2,1.66,1.66,0,0,0,0,3.31,2.66,2.66,0,0,0,1-.2Z"/><path class="cls-4" d="M254.17,101.87v1.46h1.23v1h-1.23v2.26c0,.62.17.94.66.94a1.93,1.93,0,0,0,.5-.06l0,1a3,3,0,0,1-.94.12,1.46,1.46,0,0,1-1.11-.42,2,2,0,0,1-.4-1.42v-2.41h-.73v-1h.73v-1.16Z"/><path class="cls-4" d="M257.29,106.24a1.39,1.39,0,0,0,1.57,1.33,4,4,0,0,0,1.42-.23l.19.89a4.8,4.8,0,0,1-1.79.31,2.41,2.41,0,0,1-2.63-2.58,2.53,2.53,0,0,1,2.5-2.75,2.22,2.22,0,0,1,2.2,2.49,3.21,3.21,0,0,1,0,.54Zm2.25-.9a1.1,1.1,0,0,0-1.07-1.25,1.27,1.27,0,0,0-1.18,1.25Z"/><path class="cls-4" d="M266.51,101v6c0,.53,0,1.09,0,1.44h-1.16l-.05-.81h0a1.82,1.82,0,0,1-1.67.92,2.33,2.33,0,0,1-2.18-2.61,2.43,2.43,0,0,1,2.29-2.73,1.61,1.61,0,0,1,1.43.67h0V101Zm-1.29,4.47a1.32,1.32,0,0,0,0-.34,1.12,1.12,0,0,0-1.11-.91c-.83,0-1.29.73-1.29,1.69s.46,1.62,1.28,1.62a1.28,1.28,0,0,0,1.16-1.3Z"/><path class="cls-4" d="M224.5,116c0-.68,0-1.22,0-1.7h1.13l.07.78h0a2,2,0,0,1,1.75-.9,2.32,2.32,0,0,1,2.15,2.6,2.43,2.43,0,0,1-2.33,2.74,1.66,1.66,0,0,1-1.43-.68h0v2.65H224.5Zm1.29,1.27a1,1,0,0,0,.05.35,1.16,1.16,0,0,0,1.13.91c.82,0,1.3-.69,1.3-1.69s-.44-1.64-1.27-1.64a1.2,1.2,0,0,0-1.15,1,1.28,1.28,0,0,0-.06.33Z"/><path class="cls-4" d="M233.52,119.44l-.08-.57h0a1.91,1.91,0,0,1-1.52.68,1.51,1.51,0,0,1-1.6-1.52c0-1.29,1.14-1.94,3-1.93V116c0-.34-.13-.9-1-.9a2.69,2.69,0,0,0-1.37.38l-.25-.84a3.66,3.66,0,0,1,1.84-.45,1.91,1.91,0,0,1,2.11,2.15v1.85a7.31,7.31,0,0,0,.08,1.23Zm-.17-2.5c-.91,0-1.78.18-1.78,1a.67.67,0,0,0,.73.73,1,1,0,0,0,1-.7,1,1,0,0,0,0-.29Z"/><path class="cls-4" d="M237.46,112.87v1.46h1.23v1h-1.23v2.26c0,.62.17.94.66.94a2.09,2.09,0,0,0,.51-.06l0,1a3,3,0,0,1-.94.12,1.46,1.46,0,0,1-1.11-.42,2,2,0,0,1-.4-1.42v-2.41h-.74v-1h.74v-1.16Z"/><path class="cls-4" d="M241,112.9a.73.73,0,0,1-1.45,0,.69.69,0,0,1,.73-.7A.68.68,0,0,1,241,112.9Zm-1.37,6.54v-5.11H241v5.11Z"/><path class="cls-4" d="M243.27,117.24a1.39,1.39,0,0,0,1.57,1.33,4,4,0,0,0,1.42-.23l.19.89a4.8,4.8,0,0,1-1.79.31A2.41,2.41,0,0,1,242,117a2.53,2.53,0,0,1,2.5-2.75,2.23,2.23,0,0,1,2.2,2.49,3.21,3.21,0,0,1,0,.54Zm2.24-.9a1.1,1.1,0,0,0-1.06-1.25,1.26,1.26,0,0,0-1.18,1.25Z"/><path class="cls-4" d="M247.77,115.85c0-.59,0-1.08,0-1.52h1.13l.07.76h0a1.83,1.83,0,0,1,1.62-.88c.9,0,1.82.58,1.82,2.19v3h-1.29v-2.89c0-.73-.27-1.29-1-1.29a1.07,1.07,0,0,0-1,.76,1.09,1.09,0,0,0-.06.42v3h-1.3Z"/><path class="cls-4" d="M255.26,112.87v1.46h1.23v1h-1.23v2.26c0,.62.16.94.66.94a1.93,1.93,0,0,0,.5-.06l0,1a2.94,2.94,0,0,1-.93.12,1.46,1.46,0,0,1-1.11-.42,2,2,0,0,1-.4-1.42v-2.41h-.74v-1H254v-1.16Z"/><path class="cls-4" d="M257.4,118.25a2.85,2.85,0,0,0,1.31.37c.57,0,.82-.23.82-.57s-.21-.52-.84-.74c-1-.35-1.42-.89-1.41-1.49a1.71,1.71,0,0,1,1.93-1.61,3,3,0,0,1,1.36.31l-.25.91a2.24,2.24,0,0,0-1.08-.3c-.47,0-.72.22-.72.54s.24.48.89.71c.93.34,1.36.81,1.37,1.57,0,.92-.73,1.59-2.08,1.59a3.26,3.26,0,0,1-1.55-.35Z"/><path class="cls-4" d="M138.62,308v2.83h3V308h1.29v7.08h-1.29v-3.12h-3v3.12h-1.29V308Z"/><path class="cls-4" d="M148.91,313.52c0,.61,0,1.12,0,1.54h-1.13l-.07-.78h0a1.84,1.84,0,0,1-1.64.89c-.93,0-1.78-.56-1.78-2.22v-3h1.29v2.79c0,.85.27,1.39,1,1.39a1.08,1.08,0,0,0,1-.69,1.24,1.24,0,0,0,.08-.4v-3.09h1.29Z"/><path class="cls-4" d="M150.31,311.47c0-.59,0-1.09-.05-1.53h1.12l.05.76h0a1.76,1.76,0,0,1,1.57-.87,1.47,1.47,0,0,1,1.42.94h0a2,2,0,0,1,.63-.64,1.72,1.72,0,0,1,1-.3c.85,0,1.71.57,1.71,2.21v3h-1.26v-2.83c0-.85-.29-1.35-.91-1.35a1,1,0,0,0-.9.68,1.93,1.93,0,0,0-.07.43v3.07h-1.26v-3c0-.72-.28-1.22-.88-1.22a1,1,0,0,0-.92.73,1.2,1.2,0,0,0-.08.42v3h-1.25Z"/><path class="cls-4" d="M162.09,315.06l-.09-.57h0a1.89,1.89,0,0,1-1.51.68,1.52,1.52,0,0,1-1.61-1.52c0-1.29,1.15-1.94,3-1.93v-.09c0-.33-.14-.89-1-.89a2.72,2.72,0,0,0-1.38.38l-.25-.84a3.7,3.7,0,0,1,1.85-.45,1.91,1.91,0,0,1,2.11,2.15v1.85a8.69,8.69,0,0,0,.07,1.23Zm-.17-2.5c-.92,0-1.79.18-1.79.95a.68.68,0,0,0,.74.74,1.06,1.06,0,0,0,1-.71,1,1,0,0,0,0-.28Z"/><path class="cls-4" d="M164.54,311.47c0-.59,0-1.09,0-1.53h1.13l.07.77h0a1.85,1.85,0,0,1,1.63-.88c.89,0,1.81.57,1.81,2.19v3h-1.29v-2.89c0-.74-.27-1.29-1-1.29a1.07,1.07,0,0,0-1,.75,1.42,1.42,0,0,0-.06.42v3h-1.3Z"/><path class="cls-4" d="M172.85,311.81v.89h-2.68v-.89Z"/><path class="cls-4" d="M177.61,314.9a3.8,3.8,0,0,1-1.44.26,2.46,2.46,0,0,1-2.64-2.6,2.64,2.64,0,0,1,2.85-2.73,3.2,3.2,0,0,1,1.25.24l-.24,1a2.34,2.34,0,0,0-1-.19,1.65,1.65,0,0,0,0,3.3,2.48,2.48,0,0,0,1-.2Z"/><path class="cls-4" d="M179.48,312.86a1.39,1.39,0,0,0,1.58,1.32,3.8,3.8,0,0,0,1.42-.23l.19.9a5.05,5.05,0,0,1-1.79.31,2.41,2.41,0,0,1-2.63-2.58,2.53,2.53,0,0,1,2.49-2.75,2.22,2.22,0,0,1,2.21,2.49,3.21,3.21,0,0,1,0,.54Zm2.25-.9a1.1,1.1,0,0,0-1.06-1.25,1.27,1.27,0,0,0-1.19,1.25Z"/><path class="cls-4" d="M184,311.47c0-.59,0-1.09,0-1.53h1.13l.06.77h0a1.86,1.86,0,0,1,1.63-.88c.89,0,1.82.57,1.82,2.19v3h-1.29v-2.89c0-.74-.28-1.29-1-1.29a1.09,1.09,0,0,0-1,.75,1.42,1.42,0,0,0-.05.42v3H184Z"/><path class="cls-4" d="M191.47,308.48v1.46h1.23v1h-1.23v2.26c0,.62.17.94.67.94a2,2,0,0,0,.5-.06l0,1a2.63,2.63,0,0,1-.93.13,1.52,1.52,0,0,1-1.12-.42,2.05,2.05,0,0,1-.4-1.43v-2.4h-.73v-1h.73v-1.15Z"/><path class="cls-4" d="M194.59,312.86a1.39,1.39,0,0,0,1.58,1.32,3.71,3.71,0,0,0,1.41-.23l.19.9a5,5,0,0,1-1.78.31,2.42,2.42,0,0,1-2.64-2.58,2.54,2.54,0,0,1,2.5-2.75,2.22,2.22,0,0,1,2.21,2.49,3.21,3.21,0,0,1,0,.54Zm2.25-.9a1.1,1.1,0,0,0-1.06-1.25,1.27,1.27,0,0,0-1.19,1.25Z"/><path class="cls-4" d="M199.1,311.59c0-.69,0-1.19,0-1.65h1.12l0,1h0a1.52,1.52,0,0,1,1.4-1.09,1.32,1.32,0,0,1,.3,0v1.22a1.74,1.74,0,0,0-.37-.05,1.15,1.15,0,0,0-1.16,1,2.35,2.35,0,0,0,0,.4v2.65H199.1Z"/><path class="cls-4" d="M203.75,312.86c0,.93.75,1.32,1.57,1.32a3.8,3.8,0,0,0,1.42-.23l.19.9a5,5,0,0,1-1.78.31,2.42,2.42,0,0,1-2.64-2.58,2.53,2.53,0,0,1,2.5-2.75,2.22,2.22,0,0,1,2.2,2.49,3.21,3.21,0,0,1,0,.54ZM206,312a1.1,1.1,0,0,0-1.06-1.25,1.26,1.26,0,0,0-1.19,1.25Z"/><path class="cls-4" d="M213,307.6v6c0,.52,0,1.09,0,1.44h-1.16l0-.81h0a1.84,1.84,0,0,1-1.67.92,2.34,2.34,0,0,1-2.18-2.61,2.43,2.43,0,0,1,2.29-2.73,1.64,1.64,0,0,1,1.44.67h0v-2.9Zm-1.29,4.47a1.24,1.24,0,0,0,0-.33,1.12,1.12,0,0,0-1.11-.92c-.83,0-1.29.74-1.29,1.7s.46,1.61,1.28,1.61a1.13,1.13,0,0,0,1.11-.91,1.17,1.17,0,0,0,.05-.38Z"/><path class="cls-4" d="M165.22,318.6v6c0,.52,0,1.09.05,1.44h-1.16l-.05-.81h0a1.86,1.86,0,0,1-1.67.92,2.34,2.34,0,0,1-2.18-2.61,2.43,2.43,0,0,1,2.28-2.73,1.62,1.62,0,0,1,1.44.67h0v-2.9Zm-1.29,4.47a1.84,1.84,0,0,0,0-.33,1.12,1.12,0,0,0-1.11-.92c-.83,0-1.29.74-1.29,1.7s.46,1.61,1.28,1.61a1.14,1.14,0,0,0,1.11-.91,1.53,1.53,0,0,0,0-.38Z"/><path class="cls-4" d="M167.52,323.86a1.39,1.39,0,0,0,1.58,1.32,3.8,3.8,0,0,0,1.42-.23l.19.9a5.05,5.05,0,0,1-1.79.31,2.41,2.41,0,0,1-2.63-2.58,2.53,2.53,0,0,1,2.49-2.75,2.22,2.22,0,0,1,2.21,2.49,3.21,3.21,0,0,1,0,.54Zm2.25-.9a1.1,1.1,0,0,0-1.06-1.25,1.27,1.27,0,0,0-1.19,1.25Z"/><path class="cls-4" d="M172,324.87a2.85,2.85,0,0,0,1.31.37c.57,0,.82-.23.82-.57s-.21-.52-.84-.75c-1-.34-1.42-.89-1.41-1.49a1.71,1.71,0,0,1,1.93-1.6,3,3,0,0,1,1.36.3l-.26.92a2.24,2.24,0,0,0-1.08-.3c-.46,0-.71.22-.71.54s.24.48.89.71c.93.34,1.36.81,1.37,1.56,0,.93-.73,1.6-2.08,1.6a3.33,3.33,0,0,1-1.56-.36Z"/><path class="cls-4" d="M177.78,319.52a.73.73,0,0,1-1.45,0,.7.7,0,0,1,.73-.71A.69.69,0,0,1,177.78,319.52Zm-1.37,6.54v-5.12h1.3v5.12Z"/><path class="cls-4" d="M183.77,320.94c0,.35,0,.77,0,1.47v2.9a2.47,2.47,0,0,1-2.73,2.94,3.64,3.64,0,0,1-1.79-.41l.28-1a3.13,3.13,0,0,0,1.5.39,1.36,1.36,0,0,0,1.47-1.54v-.44h0a1.71,1.71,0,0,1-1.49.75,2.26,2.26,0,0,1-2.17-2.49,2.45,2.45,0,0,1,2.32-2.7,1.6,1.6,0,0,1,1.48.8h0l0-.69ZM182.43,323a1.34,1.34,0,0,0,0-.35,1.07,1.07,0,0,0-1-.83c-.72,0-1.26.63-1.26,1.67,0,.87.44,1.58,1.25,1.58a1.11,1.11,0,0,0,1-.78,2.24,2.24,0,0,0,.05-.46Z"/><path class="cls-4" d="M185.11,322.47c0-.59,0-1.09,0-1.53h1.13l.07.77h0a1.85,1.85,0,0,1,1.63-.88c.89,0,1.81.57,1.81,2.19v3h-1.29v-2.89c0-.74-.27-1.29-1-1.29a1.06,1.06,0,0,0-1,.75,1.16,1.16,0,0,0-.06.42v3h-1.3Z"/><path class="cls-4" d="M49.46,224.48v2.84h3v-2.84h1.29v7.08H52.45v-3.12h-3v3.12H48.17v-7.08Z"/><path class="cls-4" d="M60,229a2.53,2.53,0,0,1-2.62,2.72A2.47,2.47,0,0,1,54.85,229a2.52,2.52,0,0,1,2.64-2.71A2.45,2.45,0,0,1,60,229Zm-3.85.06c0,1,.48,1.73,1.27,1.73S58.7,230,58.7,229c0-.79-.36-1.71-1.24-1.71S56.18,228.16,56.18,229Z"/><path class="cls-4" d="M61.09,224.1H62.4v7.46H61.09Z"/><path class="cls-4" d="M65.17,225a.69.69,0,0,1-.74.69.68.68,0,0,1-.71-.69.69.69,0,0,1,.72-.71A.7.7,0,0,1,65.17,225Zm-1.38,6.54v-5.12h1.3v5.12Z"/><path class="cls-4" d="M66.42,230.37a2.85,2.85,0,0,0,1.31.37c.57,0,.82-.23.82-.57s-.21-.52-.84-.74c-1-.35-1.42-.9-1.41-1.49a1.71,1.71,0,0,1,1.93-1.61,3.15,3.15,0,0,1,1.36.3l-.25.92a2.25,2.25,0,0,0-1.09-.3c-.46,0-.71.22-.71.54s.24.48.89.71c.93.34,1.36.81,1.37,1.57,0,.92-.73,1.59-2.08,1.59a3.25,3.25,0,0,1-1.55-.36Z"/><path class="cls-4" d="M72.34,225v1.46h1.23v1H72.34v2.26c0,.62.17.94.66.94a1.93,1.93,0,0,0,.5-.06l0,1a3,3,0,0,1-.94.12,1.5,1.5,0,0,1-1.11-.42,2,2,0,0,1-.4-1.43v-2.4h-.74v-1h.74v-1.15Z"/><path class="cls-4" d="M75.92,225a.73.73,0,0,1-1.45,0,.7.7,0,0,1,.73-.71A.69.69,0,0,1,75.92,225Zm-1.38,6.54v-5.12h1.31v5.12Z"/><path class="cls-4" d="M81,231.4a3.86,3.86,0,0,1-1.45.26,2.45,2.45,0,0,1-2.63-2.6,2.64,2.64,0,0,1,2.84-2.73,3.16,3.16,0,0,1,1.25.24l-.23,1a2.18,2.18,0,0,0-1-.2,1.65,1.65,0,0,0,0,3.3,2.41,2.41,0,0,0,1-.2Z"/><path class="cls-4" d="M59.19,242.4a3.86,3.86,0,0,1-1.45.26,2.46,2.46,0,0,1-2.64-2.6A2.65,2.65,0,0,1,58,237.33a3.2,3.2,0,0,1,1.25.24l-.23,1a2.22,2.22,0,0,0-1-.2,1.65,1.65,0,0,0,0,3.3,2.45,2.45,0,0,0,1-.2Z"/><path class="cls-4" d="M63,242.56l-.08-.57h0a1.92,1.92,0,0,1-1.52.68,1.51,1.51,0,0,1-1.6-1.52c0-1.29,1.14-1.94,3-1.93v-.09c0-.33-.14-.89-1-.89a2.69,2.69,0,0,0-1.37.38l-.26-.84a3.7,3.7,0,0,1,1.85-.45,1.91,1.91,0,0,1,2.11,2.15v1.85a7.31,7.31,0,0,0,.08,1.23Zm-.17-2.5c-.91,0-1.78.18-1.78.95a.67.67,0,0,0,.73.74,1,1,0,0,0,1-.71.9.9,0,0,0,0-.28Z"/><path class="cls-4" d="M65.48,239.09c0-.69,0-1.18,0-1.65h1.12l0,1h0a1.54,1.54,0,0,1,1.4-1.09,1.32,1.32,0,0,1,.3,0v1.22a1.82,1.82,0,0,0-.37,0,1.15,1.15,0,0,0-1.16,1,2.35,2.35,0,0,0,0,.4v2.65H65.48Z"/><path class="cls-4" d="M70.13,240.36a1.39,1.39,0,0,0,1.57,1.33,3.78,3.78,0,0,0,1.42-.24l.19.9a5,5,0,0,1-1.78.31,2.42,2.42,0,0,1-2.64-2.58,2.53,2.53,0,0,1,2.5-2.75,2.22,2.22,0,0,1,2.2,2.49,3.21,3.21,0,0,1,0,.54Zm2.25-.9a1.1,1.1,0,0,0-1.06-1.25,1.27,1.27,0,0,0-1.19,1.25Z"/><path class="cls-4" d="M257.81,231.65l-.61,2h-1.33l2.26-7.08h1.65l2.3,7.08H260.7l-.64-2Zm2-1-.56-1.74c-.14-.43-.25-.91-.36-1.32h0c-.1.41-.21.9-.33,1.32l-.55,1.74Z"/><path class="cls-4" d="M266.78,233.5a3.9,3.9,0,0,1-1.45.26,2.46,2.46,0,0,1-2.64-2.6,2.65,2.65,0,0,1,2.85-2.73,3.2,3.2,0,0,1,1.25.24l-.23,1a2.22,2.22,0,0,0-1-.2,1.65,1.65,0,0,0,0,3.3,2.45,2.45,0,0,0,1-.2Z"/><path class="cls-4" d="M269.21,227.08v1.46h1.23v1h-1.23v2.26c0,.62.17.94.66.94a2.09,2.09,0,0,0,.51-.06l0,1a3,3,0,0,1-.94.12,1.5,1.5,0,0,1-1.11-.42,2,2,0,0,1-.4-1.43v-2.4h-.73v-1H268v-1.15Z"/><path class="cls-4" d="M272.79,227.12a.73.73,0,0,1-1.45,0,.7.7,0,0,1,.73-.71A.69.69,0,0,1,272.79,227.12Zm-1.37,6.54v-5.12h1.3v5.12Z"/><path class="cls-4" d="M279,231.05a2.54,2.54,0,0,1-2.63,2.72,2.47,2.47,0,0,1-2.56-2.63,2.53,2.53,0,0,1,2.65-2.71A2.45,2.45,0,0,1,279,231.05Zm-3.86,0c0,1,.49,1.74,1.27,1.74s1.25-.73,1.25-1.76c0-.79-.35-1.71-1.24-1.71S275.11,230.25,275.11,231.1Z"/><path class="cls-4" d="M280,230.07c0-.59,0-1.09,0-1.53h1.13l.06.77h0a1.85,1.85,0,0,1,1.63-.88c.89,0,1.82.58,1.82,2.19v3h-1.29v-2.89c0-.74-.28-1.29-1-1.29a1.1,1.1,0,0,0-1,.75,1.42,1.42,0,0,0-.05.42v3H280Z"/><path class="cls-4" d="M288.91,233.66l-.08-.57h0a1.89,1.89,0,0,1-1.51.68,1.51,1.51,0,0,1-1.6-1.52c0-1.29,1.14-1.94,3-1.93v-.09c0-.33-.14-.89-1-.89a2.69,2.69,0,0,0-1.37.38l-.26-.84a3.7,3.7,0,0,1,1.85-.45,1.91,1.91,0,0,1,2.11,2.15v1.85a7.31,7.31,0,0,0,.08,1.23Zm-.17-2.5c-.91,0-1.78.18-1.78,1a.67.67,0,0,0,.73.74,1,1,0,0,0,1-.71,1,1,0,0,0,0-.28Z"/><path class="cls-4" d="M291.33,233.66c0-.35,0-.92,0-1.44v-6h1.29v3.05h0a1.83,1.83,0,0,1,1.64-.82c1.25,0,2.14,1,2.13,2.59a2.45,2.45,0,0,1-2.32,2.75,1.77,1.77,0,0,1-1.62-.88h0l-.06.77Zm1.33-2.11a1.45,1.45,0,0,0,0,.3,1.2,1.2,0,0,0,1.14.9c.81,0,1.31-.65,1.31-1.68s-.43-1.63-1.3-1.63a1.2,1.2,0,0,0-1.14.94,1.67,1.67,0,0,0,0,.34Z"/><path class="cls-4" d="M297.51,226.2h1.3v7.46h-1.3Z"/><path class="cls-4" d="M301.12,231.46c0,.93.76,1.32,1.58,1.32a3.78,3.78,0,0,0,1.41-.23l.19.9a5,5,0,0,1-1.78.31,2.42,2.42,0,0,1-2.64-2.58,2.53,2.53,0,0,1,2.5-2.75,2.22,2.22,0,0,1,2.21,2.49,3,3,0,0,1,0,.54Zm2.25-.9a1.1,1.1,0,0,0-1.06-1.25,1.26,1.26,0,0,0-1.19,1.25Z"/><path class="cls-4" d="M263.82,244.66l-.09-.57h0a1.9,1.9,0,0,1-1.51.68,1.52,1.52,0,0,1-1.61-1.52c0-1.29,1.15-1.94,3-1.93v-.09c0-.33-.14-.89-1-.89a2.72,2.72,0,0,0-1.38.38l-.25-.84a3.7,3.7,0,0,1,1.85-.45,1.92,1.92,0,0,1,2.11,2.15v1.85a8.69,8.69,0,0,0,.07,1.23Zm-.17-2.5c-.92,0-1.79.18-1.79,1a.68.68,0,0,0,.74.74,1.06,1.06,0,0,0,1-.71,1,1,0,0,0,0-.28Z"/><path class="cls-4" d="M266.27,241.07c0-.59,0-1.09,0-1.53h1.13l.07.77h0a1.85,1.85,0,0,1,1.63-.88c.89,0,1.81.58,1.81,2.19v3h-1.29v-2.89c0-.74-.27-1.29-1-1.29a1.08,1.08,0,0,0-1,.75,1.16,1.16,0,0,0-.06.42v3h-1.3Z"/><path class="cls-4" d="M275.16,244.66l-.09-.57h0a1.9,1.9,0,0,1-1.51.68,1.52,1.52,0,0,1-1.61-1.52c0-1.29,1.15-1.94,3-1.93v-.09c0-.33-.14-.89-1-.89a2.72,2.72,0,0,0-1.38.38l-.25-.84a3.7,3.7,0,0,1,1.85-.45,1.92,1.92,0,0,1,2.11,2.15v1.85a8.69,8.69,0,0,0,.07,1.23Zm-.17-2.5c-.92,0-1.79.18-1.79,1a.68.68,0,0,0,.74.74,1.06,1.06,0,0,0,1-.71,1,1,0,0,0,0-.28Z"/><path class="cls-4" d="M277.61,237.2h1.3v7.46h-1.3Z"/><path class="cls-4" d="M281.12,239.54l.92,2.74c.11.32.21.71.29,1h0l.27-1,.8-2.73h1.38L283.53,243c-.7,1.91-1.17,2.76-1.78,3.28a2.62,2.62,0,0,1-1.35.67l-.3-1.1a2.2,2.2,0,0,0,.76-.35,2.27,2.27,0,0,0,.7-.81.57.57,0,0,0,.08-.23.55.55,0,0,0-.07-.25l-1.87-4.7Z"/><path class="cls-4" d="M287,238.08v1.46h1.23v1H287v2.26c0,.62.17.94.66.94a2.09,2.09,0,0,0,.51-.06l0,1a3,3,0,0,1-.94.12,1.5,1.5,0,0,1-1.11-.42,2,2,0,0,1-.4-1.43v-2.4h-.73v-1h.73v-1.15Z"/><path class="cls-4" d="M290.62,238.12a.73.73,0,0,1-1.45,0,.7.7,0,0,1,.73-.71A.69.69,0,0,1,290.62,238.12Zm-1.37,6.54v-5.12h1.3v5.12Z"/><path class="cls-4" d="M295.69,244.5a3.86,3.86,0,0,1-1.45.26,2.45,2.45,0,0,1-2.63-2.6,2.64,2.64,0,0,1,2.84-2.73,3.12,3.12,0,0,1,1.25.24l-.23,1a2.17,2.17,0,0,0-1-.2,1.65,1.65,0,0,0,0,3.3,2.4,2.4,0,0,0,1-.2Z"/><path class="cls-4" d="M296.59,243.47a2.85,2.85,0,0,0,1.31.37c.56,0,.82-.23.82-.57s-.21-.52-.84-.75c-1-.34-1.42-.89-1.41-1.49a1.71,1.71,0,0,1,1.93-1.6,3.15,3.15,0,0,1,1.36.3l-.26.92a2.24,2.24,0,0,0-1.08-.3c-.46,0-.71.22-.71.54s.24.48.89.71c.93.34,1.36.81,1.37,1.57,0,.92-.73,1.59-2.08,1.59a3.33,3.33,0,0,1-1.56-.36Z"/><path id="_Compound_Path_" data-name="&lt;Compound Path&gt;" class="cls-4" d="M67.44,226.34h0Z"/><path class="cls-4" d="M89.26,52l3.79-5.54,1.22,2.32a21.36,21.36,0,0,1,20,2.53l-.93,1.19A19.58,19.58,0,0,0,95,50.19l1.12,2.23Z"/><path class="cls-4" d="M85,63H80.1c-.89,0-1.1-.22-1.1-1.12V59a4.33,4.33,0,0,1,4.12-4.59,23.34,23.34,0,0,1,4,0A4.32,4.32,0,0,1,91,58.77c0,1,0,2.07,0,3.11,0,.88-.21,1.09-1.11,1.1Zm4.48-1.54c0-1,0-2,0-3A2.73,2.73,0,0,0,87,55.89a30.63,30.63,0,0,0-3.95,0A2.62,2.62,0,0,0,80.64,58a29.59,29.59,0,0,0,0,3.4Z"/><path class="cls-4" d="M81.46,64.69l1.5.18a18.19,18.19,0,0,0,6.72,16.42l.72-1c.23-.32.45-.64.73-1.05l3,6-6.86-.43,1.5-2.2A19.65,19.65,0,0,1,81.46,64.69Z"/><path class="cls-4" d="M120.55,70.84l-2.71-.23,3.89-5.47,3,6L122.13,71c-1.63,7-5.81,11.73-12.35,14.59l-.6-1.38a19.3,19.3,0,0,0,7.36-5.24A18,18,0,0,0,120.55,70.84Z"/><path class="cls-4" d="M119,63.37h-5c-.77,0-1-.24-1-1V59.3a4.23,4.23,0,0,1,3.69-4.44,18.72,18.72,0,0,1,4.73,0A4.23,4.23,0,0,1,125,59.23V62.4c0,.72-.25,1-1,1Zm4.48-1.51c0-1,.05-1.94,0-2.89a2.85,2.85,0,0,0-2.79-2.73c-1.11-.05-2.23,0-3.34,0a2.72,2.72,0,0,0-2.64,2.09,29.36,29.36,0,0,0-.2,3.53Z"/><path class="cls-4" d="M101.83,90.56h-5c-.78,0-1-.23-1-1,0-1.06,0-2.12,0-3.17A4.39,4.39,0,0,1,100.27,82a25.49,25.49,0,0,1,4,.12,4.24,4.24,0,0,1,3.58,4.21c0,1.11,0,2.23,0,3.34,0,.69-.27.94-1,.94Zm4.48-1.49c0-.95,0-1.85,0-2.75a2.9,2.9,0,0,0-2.82-2.89c-1.09,0-2.19,0-3.28,0a2.73,2.73,0,0,0-2.66,2,29,29,0,0,0-.24,3.64Z"/><path class="cls-4" d="M85,54a3.14,3.14,0,1,1,0-6.27A3.14,3.14,0,1,1,85,54Zm0-1.49a1.66,1.66,0,0,0,1.68-1.68,1.71,1.71,0,0,0-3.41.05A1.67,1.67,0,0,0,85,52.51Z"/><path class="cls-4" d="M105.08,78.45a3.24,3.24,0,1,1-3.23-3.11A3.17,3.17,0,0,1,105.08,78.45Zm-3.21-1.62a1.67,1.67,0,0,0-1.73,1.63,1.69,1.69,0,0,0,1.71,1.66,1.72,1.72,0,0,0,1.71-1.61A1.67,1.67,0,0,0,101.87,76.83Z"/><path class="cls-4" d="M119,48.16a3.13,3.13,0,1,1,0,6.25,3.13,3.13,0,1,1,0-6.25Zm0,1.48a1.66,1.66,0,0,0-1.69,1.66,1.71,1.71,0,0,0,3.41,0A1.66,1.66,0,0,0,119,49.64Z"/><path class="cls-4" d="M244.48,43a2,2,0,0,0,.21.1A2.68,2.68,0,0,1,247,46V63.08a2.68,2.68,0,0,1-2.81,2.85h-8v2.91H238V70.5H226.39V68.88h1.77V65.93h-7.27c-2.21,0-2.76-.36-3.59-2.33V45.44a5.17,5.17,0,0,1,.83-1.48,7.62,7.62,0,0,1,1.73-1Zm-12.3,21.26h11.76c1.1,0,1.41-.32,1.41-1.41V46.15c0-1.08-.34-1.42-1.41-1.42H220.48c-1.11,0-1.45.35-1.45,1.45V62.76c0,1.2.31,1.5,1.52,1.5Zm-2.27,4.54h4.55V66h-4.55Z"/><path class="cls-4" d="M262.76,91.26l-.23.48a2.56,2.56,0,0,1-2.44,1.61c-2.27,0-4.54-.07-6.81,0a2.86,2.86,0,0,1-3.07-3.1c0-4.85,0-9.7,0-14.55a5.48,5.48,0,0,1,0-.91A2.68,2.68,0,0,1,253,72.4c2.33,0,4.67,0,7,0a2.83,2.83,0,0,1,2.75,2.16ZM261,88.33V76.57H252V88.33Zm-9.1,1.74c-.08,1.29.22,1.61,1.46,1.61h6.27c1.16,0,1.49-.39,1.35-1.61ZM261,74.83a1,1,0,0,0-.94-.74c-2.39,0-4.79,0-7.18,0a.84.84,0,0,0-.86.74Z"/><path class="cls-4" d="M217.3,70.91c.07-.19.14-.37.2-.55a3.36,3.36,0,0,1,6.52.38,3.33,3.33,0,0,1-2,3.71c-.27.12-.48.19-.48.57,0,4,0,7.92,0,11.88a1,1,0,0,0,0,.23h18.7v-3L247,88l-6.69,3.87v-3H219.88v-.78q0-6.43,0-12.86a.7.7,0,0,0-.52-.79,3.26,3.26,0,0,1-1.94-2.28,3,3,0,0,0-.13-.39Zm1.72.47a1.7,1.7,0,0,0,3.39,0,1.7,1.7,0,1,0-3.39,0Z"/><path class="cls-4" d="M249.07,50.56l6.7-3.87v3h3.35v.77c0,4.27,0,8.53,0,12.8a.8.8,0,0,0,.57.89A3.35,3.35,0,1,1,255,68.12a3.34,3.34,0,0,1,2-4c.33-.14.48-.28.47-.65,0-3.88,0-7.76,0-11.63,0-.12,0-.24,0-.39H255.8v3Zm9.19,15a1.67,1.67,0,0,0-1.68,1.71,1.73,1.73,0,0,0,1.69,1.66,1.7,1.7,0,0,0,1.7-1.7A1.65,1.65,0,0,0,258.26,65.55Z"/><path class="cls-4" d="M277,206.11h2.83l-3.85,6.49-3.88-6.51h3.07v-.65c0-3.16,0-6.32,0-9.49,0-.42-.08-.63-.56-.74a5.72,5.72,0,0,1-3.16-2c-.13.07-.28.14-.41.22l-9.73,6.06a.56.56,0,0,0-.33.69,3.37,3.37,0,0,1-2.09,3.82,3.62,3.62,0,0,1-4.27-1.26,3.34,3.34,0,0,1,.34-4.21,3.52,3.52,0,0,1,4.44-.57.92.92,0,0,0,1.19,0c3.17-2,6.36-4,9.54-6l.53-.34a5.72,5.72,0,0,1,.3-4,.5.5,0,0,0-.14-.45c-1.58-1.43-3.18-2.84-4.76-4.28-.25-.22-.42-.09-.63,0a3.54,3.54,0,0,1-4.91-2.11,3.37,3.37,0,0,1,1.34-3.74,3.6,3.6,0,0,1,4.22.11,3.3,3.3,0,0,1,1.12,3.8.66.66,0,0,0,.21.88c1.58,1.37,3.13,2.78,4.59,4.08a26.06,26.06,0,0,1,2.7-1.2,5.33,5.33,0,0,1,3.41.2.69.69,0,0,0,.6-.09q4.13-5,8.22-10.09a.58.58,0,0,0,.05-.11,3.35,3.35,0,0,1-.08-4,3.54,3.54,0,0,1,4.6-1.1,3.35,3.35,0,0,1,1.61,4.18,3.5,3.5,0,0,1-4.23,2.09.68.68,0,0,0-.86.28c-2.6,3.22-5.22,6.42-7.83,9.63l-.25.33a5.47,5.47,0,0,1,1.66,4.59l4.09.76c2.67.5,5.34,1,8,1.5a.85.85,0,0,0,1-.36,3.51,3.51,0,0,1,4-1.17,3.38,3.38,0,0,1-.34,6.49,3.49,3.49,0,0,1-4.35-2.74c-.06-.32-.15-.49-.52-.55-4-.74-8.06-1.5-12.08-2.23a.61.61,0,0,0-.51.24,5.72,5.72,0,0,1-3.73,2.71.52.52,0,0,0-.32.37c0,3.44,0,6.88,0,10.32A.94.94,0,0,0,277,206.11Zm-1-12.38a3.85,3.85,0,0,0,3.92-3.78,3.9,3.9,0,0,0-3.94-3.78,3.78,3.78,0,1,0,0,7.56Zm12-21.19a1.8,1.8,0,0,0,1.82,1.76,1.84,1.84,0,0,0,1.81-1.77,1.79,1.79,0,0,0-1.83-1.75A1.77,1.77,0,0,0,288,172.54Zm-25.92,7.26a1.81,1.81,0,0,0,1.8,1.78,1.86,1.86,0,0,0,1.83-1.77,1.8,1.8,0,0,0-1.82-1.76A1.77,1.77,0,0,0,262.06,179.8Zm-2.75,21a1.78,1.78,0,0,0-1.8-1.76,1.83,1.83,0,0,0-1.81,1.77,1.79,1.79,0,0,0,1.82,1.75A1.74,1.74,0,0,0,259.31,200.79Zm36.38-6.24a1.76,1.76,0,0,0,1.78,1.78,1.82,1.82,0,0,0,1.83-1.75,1.77,1.77,0,0,0-1.8-1.76A1.73,1.73,0,0,0,295.69,194.55Z"/><path class="cls-4" d="M200.62,270.33a9.44,9.44,0,0,1-.78,1.67,3.79,3.79,0,1,1-5.71-4.94c.17-.17.35-.32.53-.48a21.33,21.33,0,0,0-39.91,2.16l3.13,1.16-6.68,5.61-1.52-8.59,3.24,1.16.3-.8c3.5-8.84,9.93-14.07,19.38-15.23a23,23,0,0,1,23.68,13.4.75.75,0,0,0,.79.54,3.74,3.74,0,0,1,3.42,2.86l.13.39Zm-3.83,1.34a1.93,1.93,0,0,0,1.93-1.92,2,2,0,0,0-1.95-1.92,1.93,1.93,0,0,0-1.88,1.91A1.89,1.89,0,0,0,196.79,271.67Z"/><path class="cls-4" d="M200.62,285.36l-3.23-1.13c-.48,1.14-.88,2.26-1.43,3.3a22.73,22.73,0,0,1-17,12.56,23.17,23.17,0,0,1-25-13.24.78.78,0,0,0-.79-.55,3.74,3.74,0,0,1-3.47-3.1,2.91,2.91,0,0,0-.12-.39v-.6c.1-.34.19-.69.31-1a3.8,3.8,0,1,1,6.11,4.14l-.41.36a21,21,0,0,0,19.24,12.83,21.27,21.27,0,0,0,20.66-15l-3.13-1.16,6.67-5.61c.21,1.15.4,2.2.58,3.24.29,1.61.57,3.22.86,4.83a1,1,0,0,0,.11.26Zm-47.13-4.74a1.92,1.92,0,0,0-1.93,1.92,1.92,1.92,0,0,0,3.84,0A1.92,1.92,0,0,0,153.49,280.62Z"/><path class="cls-4" d="M191.26,287.26H158.4v-1.21c0-1.71,0-3.43.06-5.14a5.53,5.53,0,0,1,5.49-5.1c1.55,0,3.1.05,4.65.07a.87.87,0,0,0,.48-.19,6.49,6.49,0,0,1,4.17-1.36c1.66,0,3.31,0,5,.11a5.55,5.55,0,0,1,2.73,1.06,1.85,1.85,0,0,0,.94.29c1.19,0,2.38,0,3.57,0a5.56,5.56,0,0,1,5.79,5.31C191.36,283.13,191.26,285.15,191.26,287.26Zm-9.54-1.87c0-1.69,0-3.26,0-4.84a4.42,4.42,0,0,0-4.41-4.32c-1.45,0-2.91,0-4.36,0a4.27,4.27,0,0,0-3.66,2,4.22,4.22,0,0,0-.75,2.45v4.7Zm-14.36-7.69c-1.18,0-2.27,0-3.36,0a3.56,3.56,0,0,0-3.61,3.1,41.13,41.13,0,0,0,0,4.58h6.26C166.93,282.82,166.17,280.23,167.36,277.7Zm22,7.67c0-1.43,0-2.78,0-4.12A3.52,3.52,0,0,0,187,278c-1.3-.52-2.67-.17-4.1-.28,1.21,2.55.49,5.16.78,7.68Z"/><path class="cls-4" d="M175.05,273.54a4.51,4.51,0,1,1,.21-9,4.51,4.51,0,0,1-.21,9ZM172.52,269a2.62,2.62,0,1,0,2.6-2.61A2.6,2.6,0,0,0,172.52,269Z"/><path class="cls-4" d="M165.91,267.31a4,4,0,1,1-4,4A4,4,0,0,1,165.91,267.31Zm2.12,4a2.15,2.15,0,0,0-4.29,0,2.15,2.15,0,1,0,4.29,0Z"/><path class="cls-4" d="M187.8,271.34a4,4,0,1,1-4-4A4,4,0,0,1,187.8,271.34Zm-1.86,0a2.16,2.16,0,0,0-4.31,0,2.16,2.16,0,1,0,4.31,0Z"/><path class="cls-4" d="M88,204.1H79v.69c0,.92,0,1.85,0,2.78s0,1.41,1,1.85a3.15,3.15,0,0,1,1.51,3.72,3.42,3.42,0,0,1-3,2.53A3.36,3.36,0,0,1,75,213.55a.59.59,0,0,0-.65-.45c-1.59,0-3.18,0-4.77,0l-.17,0v-8.94c-1.19,0-2.32.06-3.43,0a2.12,2.12,0,0,0-2,.89c-1.15,1.41-2.39,2.74-3.6,4.11-.11.13-.24.25-.39.41l-7.84-8.89-2.21,2L48.13,195l7.53,2.24-2.27,2.17,6.62,7.5,2.48-2.8H60.44v-9.61h8.93v-9h7.72a9,9,0,0,0-11.45-10.19A9.45,9.45,0,0,0,60,180.08,9.26,9.26,0,0,0,52.8,175a8.73,8.73,0,0,0-6.86,2.08,9,9,0,0,0-.46,13.42l-1.16,1.22a9.46,9.46,0,0,1-2.44-3.55,28.68,28.68,0,0,1-.78-2.93l-.1-.3V183c0-.12.08-.23.1-.35A10.76,10.76,0,0,1,60,177c.05,0,.09,0,.11-.07a2.39,2.39,0,0,0,.22-.23,10.79,10.79,0,0,1,18.33,4.45,17.34,17.34,0,0,1,.36,4.92c0,2.61,0,5.21,0,7.81v.58H88l0,0Zm-10.67-1.69h9v-6.23h-9v-8.94H71.06v9H62.14v6.23h9v9c1.21,0,2.36,0,3.52,0a.5.5,0,0,0,.3-.29A3.58,3.58,0,0,1,77,209a.64.64,0,0,0,.31-.49c0-1,0-1.93,0-2.89Zm2.55,9.92A1.72,1.72,0,1,0,78.13,214,1.75,1.75,0,0,0,79.88,212.33Z"/></svg>