<svg id="Layer_1" data-name="Layer 1" xmlns="http://www.w3.org/2000/svg" viewBox="0 0 1238 484.97"><defs><style>.cls-1{fill:#fcddd6;}.cls-2,.cls-4,.cls-6{fill:none;}.cls-2{stroke:#fbc2ba;}.cls-2,.cls-6{stroke-miterlimit:10;stroke-width:2px;}.cls-3{fill:#4c0519;}.cls-4{stroke:#4c0519;stroke-miterlimit:10;stroke-width:3px;}.cls-5{fill:#fbc2ba;}.cls-6{stroke:#f16c51;}</style></defs><title>IT-infrastructure-management</title><polygon class="cls-1" points="415.13 0 415.13 484.96 823.1 484.96 823.1 0.11 415.13 0"/><line class="cls-2" x1="434.23" y1="170.99" x2="804" y2="172.13"/><path class="cls-3" d="M583.66,86.19c0,7.65-4.64,12-10.93,12S562.24,93.3,562.24,86.6c0-7,4.4-11.95,10.83-11.95C579.73,74.65,583.66,79.7,583.66,86.19Zm-17,.34c0,4.64,2.33,8.33,6.32,8.33s6.3-3.72,6.3-8.5c0-4.3-2.13-8.36-6.3-8.36S566.64,81.83,566.64,86.53Z"/><path class="cls-3" d="M587.18,86.84c0-2.17-.06-3.93-.13-5.49h3.65l.21,2.54H591A6.43,6.43,0,0,1,596.63,81c3.79,0,6.93,3.25,6.93,8.4,0,6-3.75,8.83-7.51,8.83a5.43,5.43,0,0,1-4.64-2.2h-.06v8.53h-4.17Zm4.17,4.09a4.32,4.32,0,0,0,.13,1.15A3.77,3.77,0,0,0,595.14,95c2.64,0,4.19-2.2,4.19-5.45,0-2.91-1.42-5.27-4.09-5.27a3.87,3.87,0,0,0-3.72,3.08,3.43,3.43,0,0,0-.17,1Z"/><path class="cls-3" d="M611.76,76.65v4.7h4v3.12h-4v7.27c0,2,.54,3.05,2.13,3.05a6.19,6.19,0,0,0,1.62-.2l.07,3.18a9,9,0,0,1-3,.41A4.82,4.82,0,0,1,609,96.82c-.88-.95-1.28-2.44-1.28-4.6V84.47h-2.37V81.35h2.37V77.63Z"/><path class="cls-3" d="M623.3,76.75a2.34,2.34,0,0,1-4.67,0,2.34,2.34,0,0,1,4.67,0Zm-4.43,21.09V81.35h4.19V97.84Z"/><path class="cls-3" d="M627.53,86.26c0-1.89,0-3.48-.13-4.91H631l.16,2.44h.11A5.71,5.71,0,0,1,636.33,81a4.75,4.75,0,0,1,4.57,3H641A6.19,6.19,0,0,1,643,82a5.51,5.51,0,0,1,3.32-1c2.74,0,5.51,1.86,5.51,7.14v9.72h-4.06V88.73c0-2.74-.95-4.36-2.94-4.36a3.17,3.17,0,0,0-2.91,2.2,6,6,0,0,0-.21,1.38v9.89h-4.06V88.29c0-2.3-.91-3.92-2.84-3.92a3.24,3.24,0,0,0-3,2.37,3.52,3.52,0,0,0-.24,1.35v9.75h-4.06Z"/><path class="cls-3" d="M660.67,76.75a2.34,2.34,0,0,1-4.67,0,2.34,2.34,0,0,1,4.67,0Zm-4.43,21.09V81.35h4.2V97.84Z"/><path class="cls-3" d="M663.35,95.43l6.19-7.92c.85-1,1.56-1.82,2.44-2.77v-.07h-8V81.35h13.09v2.54l-6,7.75c-.82,1-1.59,1.93-2.44,2.81v.07h8.7v3.32H663.35Z"/><path class="cls-3" d="M689.41,97.84,689.14,96H689a6.12,6.12,0,0,1-4.88,2.2A4.89,4.89,0,0,1,679,93.3c0-4.16,3.69-6.26,9.78-6.23V86.8c0-1.08-.44-2.87-3.35-2.87A8.75,8.75,0,0,0,681,85.14l-.81-2.7a11.81,11.81,0,0,1,6-1.46c5.28,0,6.8,3.35,6.8,6.94v6a26.32,26.32,0,0,0,.24,4Zm-.54-8.06c-3-.07-5.75.58-5.75,3.08a2.18,2.18,0,0,0,2.37,2.37A3.36,3.36,0,0,0,688.73,93a2.73,2.73,0,0,0,.14-.91Z"/><path class="cls-3" d="M701.9,76.65v4.7h4v3.12h-4v7.27c0,2,.54,3.05,2.14,3.05a6.19,6.19,0,0,0,1.62-.2l.07,3.18a9.06,9.06,0,0,1-3,.41,4.8,4.8,0,0,1-3.58-1.36c-.88-.95-1.29-2.44-1.29-4.6V84.47h-2.37V81.35h2.37V77.63Z"/><path class="cls-3" d="M713.45,76.75A2.21,2.21,0,0,1,711.08,79a2.18,2.18,0,0,1-2.3-2.23,2.34,2.34,0,0,1,4.67,0ZM709,97.84V81.35h4.2V97.84Z"/><path class="cls-3" d="M733.35,89.44c0,6.06-4.27,8.77-8.46,8.77-4.67,0-8.26-3.22-8.26-8.5S720.18,81,725.16,81,733.35,84.43,733.35,89.44Zm-12.42.17c0,3.18,1.55,5.59,4.09,5.59,2.37,0,4-2.34,4-5.66,0-2.57-1.15-5.51-4-5.51S720.93,86.87,720.93,89.61Z"/><path class="cls-3" d="M736.77,86.26c0-1.89,0-3.48-.14-4.91h3.66l.2,2.47h.1A6,6,0,0,1,745.84,81c2.88,0,5.86,1.86,5.86,7.08v9.78h-4.17V88.53c0-2.37-.88-4.16-3.14-4.16a3.49,3.49,0,0,0-3.25,2.43,4.16,4.16,0,0,0-.17,1.36v9.68h-4.2Z"/><path class="cls-3" d="M490.91,216.46l-1.78,5.38h-2.28l5.81-17.11h2.67l5.84,17.11h-2.36L497,216.46Zm5.61-1.73-1.67-4.92c-.38-1.12-.64-2.14-.89-3.13h0c-.26,1-.54,2.06-.87,3.1l-1.67,4.95Z"/><path class="cls-3" d="M503.15,219.56a5.87,5.87,0,0,0,2.94.88c1.63,0,2.39-.81,2.39-1.82s-.63-1.65-2.28-2.26c-2.21-.79-3.25-2-3.25-3.48,0-2,1.6-3.61,4.24-3.61a6.22,6.22,0,0,1,3,.76l-.56,1.63a4.72,4.72,0,0,0-2.51-.71c-1.32,0-2.06.76-2.06,1.67s.74,1.48,2.33,2.09c2.14.81,3.23,1.87,3.23,3.7,0,2.16-1.68,3.68-4.6,3.68a7.09,7.09,0,0,1-3.45-.83Z"/><path class="cls-3" d="M513.2,219.56a5.88,5.88,0,0,0,2.95.88c1.62,0,2.39-.81,2.39-1.82s-.64-1.65-2.29-2.26c-2.21-.79-3.25-2-3.25-3.48,0-2,1.6-3.61,4.24-3.61a6.19,6.19,0,0,1,3,.76l-.56,1.63a4.72,4.72,0,0,0-2.51-.71c-1.32,0-2.06.76-2.06,1.67s.74,1.48,2.34,2.09c2.13.81,3.22,1.87,3.22,3.7,0,2.16-1.67,3.68-4.59,3.68a7.13,7.13,0,0,1-3.46-.83Z"/><path class="cls-3" d="M524.81,216.1c.05,3,2,4.27,4.21,4.27a8,8,0,0,0,3.4-.64l.38,1.6a9.83,9.83,0,0,1-4.08.76c-3.79,0-6.05-2.48-6.05-6.19s2.19-6.63,5.77-6.63c4,0,5.07,3.53,5.07,5.79a10,10,0,0,1-.07,1Zm6.55-1.6c0-1.42-.59-3.63-3.1-3.63-2.26,0-3.25,2.08-3.43,3.63Z"/><path class="cls-3" d="M539,206v3.53h3.2v1.7H539v6.63c0,1.52.43,2.39,1.68,2.39a4.73,4.73,0,0,0,1.29-.16l.1,1.68a5.4,5.4,0,0,1-2,.3,3.1,3.1,0,0,1-2.41-.94,4.56,4.56,0,0,1-.86-3.19v-6.71h-1.91v-1.7h1.91v-2.94Z"/><path class="cls-3" d="M550.07,203.81h2.23v18h-2.23Z"/><path class="cls-3" d="M558.55,206.1a1.39,1.39,0,0,1-2.77,0,1.36,1.36,0,0,1,1.39-1.4A1.33,1.33,0,0,1,558.55,206.1Zm-2.49,15.74V209.55h2.23v12.29Z"/><path class="cls-3" d="M562.23,221.84V211.25H560.5v-1.7h1.73V209a5.79,5.79,0,0,1,1.42-4.29,4.24,4.24,0,0,1,3-1.15,5.14,5.14,0,0,1,1.91.36l-.31,1.73a3.2,3.2,0,0,0-1.42-.28c-1.9,0-2.38,1.67-2.38,3.55v.66h3v1.7h-3v10.59Z"/><path class="cls-3" d="M570.33,216.1c0,3,2,4.27,4.21,4.27a8,8,0,0,0,3.4-.64l.38,1.6a9.83,9.83,0,0,1-4.08.76c-3.79,0-6-2.48-6-6.19s2.19-6.63,5.77-6.63c4,0,5.08,3.53,5.08,5.79a9.4,9.4,0,0,1-.08,1Zm6.55-1.6c0-1.42-.59-3.63-3.1-3.63-2.26,0-3.25,2.08-3.43,3.63Z"/><path class="cls-3" d="M590.56,221.38a8.14,8.14,0,0,1-3.53.71c-3.7,0-6.12-2.51-6.12-6.27a6.24,6.24,0,0,1,6.6-6.52,7.57,7.57,0,0,1,3.1.63l-.51,1.73a5.1,5.1,0,0,0-2.59-.59c-2.81,0-4.34,2.09-4.34,4.65,0,2.84,1.83,4.6,4.27,4.6a6.31,6.31,0,0,0,2.74-.61Z"/><path class="cls-3" d="M594.44,209.55l2.7,7.26c.27.82.58,1.78.78,2.52H598c.23-.74.49-1.68.79-2.57l2.44-7.21h2.36l-3.35,8.76c-1.6,4.22-2.69,6.37-4.22,7.69a6,6,0,0,1-2.74,1.45l-.56-1.88a5.92,5.92,0,0,0,2-1.09,6.72,6.72,0,0,0,1.88-2.49,1.56,1.56,0,0,0,.17-.53,1.87,1.87,0,0,0-.15-.58L592,209.55Z"/><path class="cls-3" d="M614.1,221.38a8.18,8.18,0,0,1-3.53.71c-3.71,0-6.12-2.51-6.12-6.27a6.24,6.24,0,0,1,6.6-6.52,7.57,7.57,0,0,1,3.1.63l-.51,1.73a5.1,5.1,0,0,0-2.59-.59c-2.82,0-4.34,2.09-4.34,4.65,0,2.84,1.83,4.6,4.26,4.6a6.31,6.31,0,0,0,2.74-.61Z"/><path class="cls-3" d="M616.71,203.81h2.23v18h-2.23Z"/><path class="cls-3" d="M624,216.1c0,3,2,4.27,4.21,4.27a8,8,0,0,0,3.4-.64l.38,1.6a9.83,9.83,0,0,1-4.08.76c-3.79,0-6.05-2.48-6.05-6.19s2.19-6.63,5.77-6.63c4,0,5.07,3.53,5.07,5.79a10,10,0,0,1-.07,1Zm6.55-1.6c0-1.42-.59-3.63-3.1-3.63-2.26,0-3.25,2.08-3.43,3.63Z"/><path class="cls-3" d="M490.35,260.12v10.13c0,3.83,1.7,5.46,4,5.46,2.54,0,4.16-1.68,4.16-5.46V260.12h2.24v10c0,5.26-2.77,7.42-6.48,7.42-3.5,0-6.14-2-6.14-7.31V260.12Z"/><path class="cls-3" d="M504,274.94a5.78,5.78,0,0,0,2.94.89c1.63,0,2.39-.81,2.39-1.83s-.64-1.65-2.29-2.26c-2.21-.78-3.25-2-3.25-3.47,0-2,1.6-3.61,4.24-3.61a6.23,6.23,0,0,1,3,.76l-.56,1.63a4.76,4.76,0,0,0-2.52-.71c-1.32,0-2,.76-2,1.67s.73,1.47,2.33,2.08c2.14.82,3.23,1.88,3.23,3.71,0,2.16-1.68,3.68-4.6,3.68a7,7,0,0,1-3.45-.84Z"/><path class="cls-3" d="M515.64,271.49c.05,3,2,4.27,4.21,4.27a8,8,0,0,0,3.41-.64l.38,1.6a9.93,9.93,0,0,1-4.09.76c-3.78,0-6-2.49-6-6.19s2.18-6.63,5.76-6.63c4,0,5.08,3.53,5.08,5.79a7.43,7.43,0,0,1-.08,1Zm6.55-1.6c0-1.42-.58-3.63-3.1-3.63-2.26,0-3.25,2.08-3.43,3.63Z"/><path class="cls-3" d="M527.12,268.77c0-1.44,0-2.69-.11-3.83h2l.07,2.41h.11a3.68,3.68,0,0,1,3.4-2.69,2.41,2.41,0,0,1,.63.08v2.1a3.33,3.33,0,0,0-.76-.07,3.13,3.13,0,0,0-3,2.87,5.35,5.35,0,0,0-.11,1v6.55h-2.2Z"/><path class="cls-3" d="M542,271.49c.05,3,2,4.27,4.22,4.27a8,8,0,0,0,3.4-.64l.38,1.6a9.89,9.89,0,0,1-4.09.76c-3.78,0-6-2.49-6-6.19s2.18-6.63,5.76-6.63c4,0,5.08,3.53,5.08,5.79a10,10,0,0,1-.07,1Zm6.55-1.6c0-1.42-.58-3.63-3.09-3.63-2.26,0-3.25,2.08-3.43,3.63Z"/><path class="cls-3" d="M554.48,264.94l1.76,2.64c.45.69.83,1.32,1.24,2h.08c.4-.74.81-1.37,1.21-2l1.73-2.62h2.41l-4.19,5.94,4.32,6.35H560.5l-1.8-2.77c-.48-.71-.89-1.4-1.32-2.13h0c-.41.73-.84,1.39-1.3,2.13l-1.78,2.77h-2.46l4.37-6.27-4.16-6Z"/><path class="cls-3" d="M565.2,269c0-1.57-.05-2.84-.1-4h2l.1,2.11h0a4.85,4.85,0,0,1,4.37-2.39c3,0,5.21,2.51,5.21,6.25,0,4.41-2.7,6.6-5.59,6.6a4.3,4.3,0,0,1-3.78-1.93h-.05v6.68H565.2Zm2.21,3.28a5.07,5.07,0,0,0,.1.91,3.44,3.44,0,0,0,3.35,2.62c2.36,0,3.73-1.93,3.73-4.75,0-2.46-1.29-4.57-3.65-4.57a3.56,3.56,0,0,0-3.38,2.77,3.33,3.33,0,0,0-.15.91Z"/><path class="cls-3" d="M580.89,271.49c.05,3,2,4.27,4.21,4.27a8,8,0,0,0,3.4-.64l.38,1.6a9.83,9.83,0,0,1-4.08.76c-3.79,0-6-2.49-6-6.19s2.19-6.63,5.77-6.63c4,0,5.08,3.53,5.08,5.79a9.4,9.4,0,0,1-.08,1Zm6.55-1.6c0-1.42-.59-3.63-3.1-3.63-2.26,0-3.25,2.08-3.43,3.63Z"/><path class="cls-3" d="M592.36,268.77c0-1.44,0-2.69-.1-3.83h2l.07,2.41h.1a3.69,3.69,0,0,1,3.41-2.69,2.41,2.41,0,0,1,.63.08v2.1a3.45,3.45,0,0,0-.76-.07,3.13,3.13,0,0,0-3,2.87,6.33,6.33,0,0,0-.1,1v6.55h-2.21Z"/><path class="cls-3" d="M603.25,261.49a1.38,1.38,0,0,1-2.76,0,1.36,1.36,0,0,1,1.39-1.4A1.33,1.33,0,0,1,603.25,261.49Zm-2.48,15.74V264.94H603v12.29Z"/><path class="cls-3" d="M608,271.49c0,3,2,4.27,4.21,4.27a8,8,0,0,0,3.41-.64l.38,1.6a9.89,9.89,0,0,1-4.09.76c-3.78,0-6-2.49-6-6.19s2.18-6.63,5.76-6.63c4,0,5.08,3.53,5.08,5.79a7.43,7.43,0,0,1-.08,1Zm6.55-1.6c0-1.42-.58-3.63-3.1-3.63-2.26,0-3.25,2.08-3.42,3.63Z"/><path class="cls-3" d="M619.43,268.27c0-1.27,0-2.31-.11-3.33h2l.13,2h.05a4.51,4.51,0,0,1,4.06-2.31c1.71,0,4.35,1,4.35,5.23v7.34h-2.24v-7.09c0-2-.73-3.63-2.84-3.63a3.19,3.19,0,0,0-3,2.29,3.26,3.26,0,0,0-.15,1v7.39h-2.23Z"/><path class="cls-3" d="M642.28,276.77a8.18,8.18,0,0,1-3.53.71c-3.71,0-6.12-2.51-6.12-6.27a6.24,6.24,0,0,1,6.6-6.52,7.57,7.57,0,0,1,3.1.63l-.51,1.73a5.1,5.1,0,0,0-2.59-.59c-2.82,0-4.34,2.09-4.34,4.65,0,2.84,1.83,4.6,4.26,4.6a6.39,6.39,0,0,0,2.75-.61Z"/><path class="cls-3" d="M646,271.49c0,3,2,4.27,4.22,4.27a8,8,0,0,0,3.4-.64l.38,1.6a9.89,9.89,0,0,1-4.09.76c-3.78,0-6-2.49-6-6.19s2.18-6.63,5.76-6.63c4,0,5.08,3.53,5.08,5.79a10,10,0,0,1-.07,1Zm6.55-1.6c0-1.42-.58-3.63-3.09-3.63-2.26,0-3.25,2.08-3.43,3.63Z"/><path class="cls-3" d="M500.1,332.06a11,11,0,0,1-4.52.81c-4.82,0-8.45-3.05-8.45-8.66,0-5.35,3.63-9,8.94-9a9.08,9.08,0,0,1,4.06.77l-.53,1.8a8,8,0,0,0-3.46-.71c-4,0-6.68,2.56-6.68,7.06,0,4.19,2.42,6.88,6.58,6.88a8.88,8.88,0,0,0,3.61-.71Z"/><path class="cls-3" d="M509.42,332.62l-.18-1.55h-.07a4.61,4.61,0,0,1-3.76,1.83,3.51,3.51,0,0,1-3.76-3.53c0-3,2.64-4.6,7.39-4.57v-.26a2.53,2.53,0,0,0-2.79-2.84,6.08,6.08,0,0,0-3.2.91l-.51-1.47a7.62,7.62,0,0,1,4-1.09c3.75,0,4.67,2.56,4.67,5v4.59a17.62,17.62,0,0,0,.2,2.95Zm-.33-6.27c-2.44-.06-5.21.38-5.21,2.76a2,2,0,0,0,2.11,2.14,3.05,3.05,0,0,0,3-2.06,2.22,2.22,0,0,0,.13-.71Z"/><path class="cls-3" d="M514.85,324.34c0-1.57-.05-2.84-.1-4h2l.1,2.11h0a4.83,4.83,0,0,1,4.37-2.39c3,0,5.2,2.51,5.2,6.24,0,4.42-2.69,6.61-5.58,6.61a4.32,4.32,0,0,1-3.79-1.93h-.05v6.67h-2.21Zm2.21,3.28a5.07,5.07,0,0,0,.1.91,3.44,3.44,0,0,0,3.35,2.61c2.37,0,3.74-1.93,3.74-4.74,0-2.47-1.3-4.57-3.66-4.57a3.58,3.58,0,0,0-3.38,2.76,3.93,3.93,0,0,0-.15.92Z"/><path class="cls-3" d="M536.1,332.62l-.18-1.55h-.07a4.61,4.61,0,0,1-3.76,1.83,3.51,3.51,0,0,1-3.76-3.53c0-3,2.64-4.6,7.39-4.57v-.26a2.53,2.53,0,0,0-2.79-2.84,6.11,6.11,0,0,0-3.2.91l-.51-1.47a7.65,7.65,0,0,1,4-1.09c3.76,0,4.67,2.56,4.67,5v4.59a17.62,17.62,0,0,0,.2,2.95Zm-.33-6.27c-2.44-.06-5.2.38-5.2,2.76a2,2,0,0,0,2.1,2.14,3.08,3.08,0,0,0,3-2.06,2.52,2.52,0,0,0,.12-.71Z"/><path class="cls-3" d="M550.29,332.16a8.24,8.24,0,0,1-3.52.71c-3.71,0-6.12-2.51-6.12-6.27a6.25,6.25,0,0,1,6.6-6.53,7.39,7.39,0,0,1,3.1.64l-.51,1.73a5.13,5.13,0,0,0-2.59-.59c-2.82,0-4.34,2.08-4.34,4.65,0,2.84,1.82,4.59,4.26,4.59a6.31,6.31,0,0,0,2.74-.61Z"/><path class="cls-3" d="M555.4,316.87a1.39,1.39,0,0,1-2.77,0,1.36,1.36,0,0,1,1.4-1.39A1.33,1.33,0,0,1,555.4,316.87Zm-2.49,15.75V320.33h2.23v12.29Z"/><path class="cls-3" d="M561.54,316.8v3.53h3.2V322h-3.2v6.63c0,1.52.43,2.38,1.68,2.38a4.81,4.81,0,0,0,1.29-.15l.1,1.68a5.62,5.62,0,0,1-2,.3,3.09,3.09,0,0,1-2.41-.94,4.57,4.57,0,0,1-.86-3.2V322h-1.91v-1.7h1.91v-2.95Z"/><path class="cls-3" d="M568.29,320.33l2.7,7.26c.27.81.58,1.78.78,2.51h.05c.23-.73.49-1.67.79-2.56l2.44-7.21h2.36l-3.35,8.76c-1.6,4.21-2.69,6.37-4.22,7.69a6,6,0,0,1-2.74,1.45l-.56-1.88a5.92,5.92,0,0,0,2-1.09,6.8,6.8,0,0,0,1.88-2.49,1.63,1.63,0,0,0,.17-.53,2,2,0,0,0-.15-.59l-4.54-11.32Z"/><path class="cls-3" d="M595.1,329.27c0,1.27,0,2.38.11,3.35h-2l-.13-2h-.05A4.64,4.64,0,0,1,589,332.9c-1.93,0-4.24-1.07-4.24-5.39v-7.18H587v6.8c0,2.34.71,3.91,2.74,3.91a3.24,3.24,0,0,0,2.95-2,3.4,3.4,0,0,0,.2-1.14v-7.54h2.23Z"/><path class="cls-3" d="M601.5,316.8v3.53h3.2V322h-3.2v6.63c0,1.52.43,2.38,1.68,2.38a4.81,4.81,0,0,0,1.29-.15l.1,1.68a5.62,5.62,0,0,1-2,.3,3.09,3.09,0,0,1-2.41-.94,4.57,4.57,0,0,1-.86-3.2V322h-1.91v-1.7h1.91v-2.95Z"/><path class="cls-3" d="M609.7,316.87a1.32,1.32,0,0,1-1.42,1.38,1.33,1.33,0,0,1-1.35-1.38,1.36,1.36,0,0,1,1.4-1.39A1.32,1.32,0,0,1,609.7,316.87Zm-2.49,15.75V320.33h2.24v12.29Z"/><path class="cls-3" d="M613.15,314.59h2.24v18h-2.24Z"/><path class="cls-3" d="M621.63,316.87a1.38,1.38,0,1,1-2.76,0,1.36,1.36,0,0,1,1.39-1.39A1.32,1.32,0,0,1,621.63,316.87Zm-2.48,15.75V320.33h2.23v12.29Z"/><path class="cls-3" d="M623.69,331.32l5.56-7.23c.53-.66,1-1.25,1.6-1.91v-.05H624.2v-1.8h9.37l0,1.39-5.48,7.14c-.51.68-1,1.29-1.58,1.93v0h7.19v1.78h-10Z"/><path class="cls-3" d="M642.76,332.62l-.18-1.55h-.08a4.57,4.57,0,0,1-3.75,1.83,3.51,3.51,0,0,1-3.76-3.53c0-3,2.64-4.6,7.39-4.57v-.26a2.54,2.54,0,0,0-2.8-2.84,6.13,6.13,0,0,0-3.2.91l-.5-1.47a7.58,7.58,0,0,1,4-1.09c3.76,0,4.67,2.56,4.67,5v4.59a17.55,17.55,0,0,0,.21,2.95Zm-.33-6.27c-2.44-.06-5.21.38-5.21,2.76a2,2,0,0,0,2.11,2.14,3.06,3.06,0,0,0,3-2.06,2.22,2.22,0,0,0,.13-.71Z"/><path class="cls-3" d="M650.78,316.8v3.53H654V322h-3.2v6.63c0,1.52.43,2.38,1.68,2.38a4.81,4.81,0,0,0,1.29-.15l.1,1.68a5.67,5.67,0,0,1-2,.3,3.09,3.09,0,0,1-2.41-.94,4.53,4.53,0,0,1-.86-3.2V322h-1.91v-1.7h1.91v-2.95Z"/><path class="cls-3" d="M659,316.87a1.39,1.39,0,0,1-2.77,0,1.36,1.36,0,0,1,1.4-1.39A1.32,1.32,0,0,1,659,316.87Zm-2.49,15.75V320.33h2.24v12.29Z"/><path class="cls-3" d="M673.55,326.37c0,4.55-3.15,6.53-6.12,6.53-3.32,0-5.89-2.44-5.89-6.33,0-4.11,2.69-6.52,6.1-6.52S673.55,322.61,673.55,326.37Zm-9.75.13c0,2.69,1.55,4.72,3.74,4.72s3.73-2,3.73-4.77c0-2.08-1-4.73-3.68-4.73S663.8,324.16,663.8,326.5Z"/><path class="cls-3" d="M676.37,323.65c0-1.27,0-2.31-.1-3.32h2l.13,2h0a4.51,4.51,0,0,1,4.06-2.31c1.7,0,4.34,1,4.34,5.23v7.34H684.6v-7.09c0-2-.74-3.63-2.85-3.63a3.17,3.17,0,0,0-3,2.29,3.25,3.25,0,0,0-.16,1v7.39h-2.23Z"/><path class="cls-3" d="M497,380h-6.66v6.17h7.42V388h-9.63V370.89h9.25v1.86h-7v5.4H497Z"/><path class="cls-3" d="M500.56,379c0-1.27,0-2.31-.1-3.32h2l.13,2h.05a4.51,4.51,0,0,1,4.06-2.31c1.7,0,4.34,1,4.34,5.23V388h-2.23v-7.09c0-2-.74-3.63-2.85-3.63a3.17,3.17,0,0,0-3,2.29,3,3,0,0,0-.16,1V388h-2.23Z"/><path class="cls-3" d="M515.89,382.27c.06,3,2,4.26,4.22,4.26a8.17,8.17,0,0,0,3.4-.63l.38,1.6a10,10,0,0,1-4.09.76c-3.78,0-6-2.49-6-6.2s2.19-6.62,5.77-6.62c4,0,5.07,3.53,5.07,5.79a10.18,10.18,0,0,1-.07,1Zm6.56-1.6c0-1.42-.59-3.63-3.1-3.63-2.26,0-3.25,2.08-3.43,3.63Z"/><path class="cls-3" d="M527.37,379.55c0-1.45,0-2.69-.1-3.83h2l.08,2.41h.1a3.69,3.69,0,0,1,3.4-2.69,2.46,2.46,0,0,1,.64.07v2.11a3.41,3.41,0,0,0-.76-.08,3.14,3.14,0,0,0-3,2.87,6.44,6.44,0,0,0-.1,1V388h-2.21Z"/><path class="cls-3" d="M546.06,375.72c0,.89-.1,1.88-.1,3.37v7.14c0,2.82-.56,4.54-1.76,5.61a6.49,6.49,0,0,1-4.47,1.47,7.91,7.91,0,0,1-4.08-1l.56-1.7a7,7,0,0,0,3.6,1c2.29,0,4-1.19,4-4.29V385.9h0a4.39,4.39,0,0,1-3.91,2.05c-3,0-5.23-2.58-5.23-6,0-4.16,2.72-6.52,5.54-6.52a4.07,4.07,0,0,1,3.83,2.13h0l.1-1.85Zm-2.31,4.85a3.28,3.28,0,0,0-.13-1,3.23,3.23,0,0,0-3.12-2.36c-2.14,0-3.66,1.8-3.66,4.65,0,2.41,1.22,4.41,3.63,4.41a3.27,3.27,0,0,0,3.1-2.28,3.78,3.78,0,0,0,.18-1.19Z"/><path class="cls-3" d="M550.47,375.72l2.69,7.26c.28.81.59,1.78.79,2.51h0c.23-.73.48-1.67.79-2.56l2.44-7.21h2.36l-3.35,8.76c-1.6,4.21-2.7,6.37-4.22,7.69a6.08,6.08,0,0,1-2.74,1.45l-.56-1.88a6.11,6.11,0,0,0,2-1.09,6.77,6.77,0,0,0,1.87-2.49,1.46,1.46,0,0,0,.18-.54,2,2,0,0,0-.15-.58L548,375.72Z"/><path class="cls-3" d="M575.76,387.55a8.3,8.3,0,0,1-3.53.71c-3.71,0-6.12-2.51-6.12-6.27a6.24,6.24,0,0,1,6.6-6.53,7.39,7.39,0,0,1,3.1.64l-.51,1.72a5.23,5.23,0,0,0-2.59-.58c-2.82,0-4.34,2.08-4.34,4.65,0,2.84,1.83,4.59,4.27,4.59a6.34,6.34,0,0,0,2.74-.61Z"/><path class="cls-3" d="M589.34,381.76c0,4.54-3.15,6.53-6.12,6.53-3.32,0-5.89-2.44-5.89-6.33,0-4.11,2.69-6.52,6.1-6.52S589.34,378,589.34,381.76Zm-9.75.13c0,2.69,1.55,4.72,3.74,4.72s3.73-2,3.73-4.77c0-2.09-1-4.73-3.68-4.73S579.59,379.55,579.59,381.89Z"/><path class="cls-3" d="M592.16,379c0-1.27,0-2.31-.1-3.32h2l.13,2h.05a4.51,4.51,0,0,1,4.06-2.31c1.7,0,4.34,1,4.34,5.23V388h-2.23v-7.09c0-2-.74-3.63-2.85-3.63a3.17,3.17,0,0,0-3,2.29,3.25,3.25,0,0,0-.16,1V388h-2.23Z"/><path class="cls-3" d="M606,385.72a5.84,5.84,0,0,0,2.94.89c1.63,0,2.39-.81,2.39-1.83s-.64-1.65-2.29-2.26c-2.21-.79-3.25-2-3.25-3.48,0-2,1.6-3.6,4.24-3.6a6.05,6.05,0,0,1,3,.76l-.55,1.62a4.85,4.85,0,0,0-2.52-.71c-1.32,0-2,.76-2,1.68s.73,1.47,2.33,2.08c2.13.81,3.23,1.88,3.23,3.71,0,2.16-1.68,3.68-4.6,3.68a7,7,0,0,1-3.45-.84Z"/><path class="cls-3" d="M626.59,384.65c0,1.27,0,2.39.1,3.36h-2l-.13-2h-.05a4.62,4.62,0,0,1-4.06,2.29c-1.93,0-4.24-1.07-4.24-5.39v-7.18h2.23v6.8c0,2.34.71,3.91,2.75,3.91a3.13,3.13,0,0,0,3.14-3.17v-7.54h2.24Z"/><path class="cls-3" d="M630.29,379c0-1.27,0-2.31-.1-3.32h2l.1,2h.08a4.21,4.21,0,0,1,3.85-2.26,3.62,3.62,0,0,1,3.48,2.46h.05a5.09,5.09,0,0,1,1.37-1.6,4.2,4.2,0,0,1,2.72-.86c1.63,0,4,1.06,4,5.33V388h-2.18v-7c0-2.36-.87-3.78-2.67-3.78a2.88,2.88,0,0,0-2.64,2,3.68,3.68,0,0,0-.18,1.11V388H638v-7.37c0-1.95-.87-3.37-2.57-3.37a3,3,0,0,0-2.76,2.23,3,3,0,0,0-.18,1.09V388h-2.19Z"/><path class="cls-3" d="M651.47,379.73c0-1.58-.05-2.85-.1-4h2l.1,2.1h0a4.86,4.86,0,0,1,4.37-2.38c3,0,5.21,2.51,5.21,6.24,0,4.42-2.69,6.61-5.59,6.61a4.32,4.32,0,0,1-3.78-1.93h-.05V393h-2.21Zm2.21,3.27a5.18,5.18,0,0,0,.1.92,3.43,3.43,0,0,0,3.35,2.61c2.36,0,3.73-1.93,3.73-4.74,0-2.47-1.29-4.58-3.65-4.58a3.57,3.57,0,0,0-3.38,2.77,3.47,3.47,0,0,0-.15.92Z"/><path class="cls-3" d="M668.6,372.19v3.53h3.2v1.7h-3.2V384c0,1.53.44,2.39,1.68,2.39a4.9,4.9,0,0,0,1.3-.15l.1,1.67a5.41,5.41,0,0,1-2,.31,3.12,3.12,0,0,1-2.42-.94,4.57,4.57,0,0,1-.86-3.2v-6.7h-1.9v-1.7h1.9v-3Z"/><path class="cls-3" d="M676.8,372.26a1.38,1.38,0,0,1-2.76,0,1.36,1.36,0,0,1,1.39-1.39A1.32,1.32,0,0,1,676.8,372.26ZM674.32,388V375.72h2.23V388Z"/><path class="cls-3" d="M691.38,381.76c0,4.54-3.15,6.53-6.12,6.53-3.33,0-5.89-2.44-5.89-6.33,0-4.11,2.69-6.52,6.09-6.52S691.38,378,691.38,381.76Zm-9.75.13c0,2.69,1.55,4.72,3.73,4.72s3.73-2,3.73-4.77c0-2.09-1-4.73-3.68-4.73S681.63,379.55,681.63,381.89Z"/><path class="cls-3" d="M694.2,379c0-1.27,0-2.31-.11-3.32h2l.13,2h0a4.51,4.51,0,0,1,4.06-2.31c1.71,0,4.35,1,4.35,5.23V388h-2.24v-7.09c0-2-.73-3.63-2.84-3.63a3.18,3.18,0,0,0-3,2.29,3.26,3.26,0,0,0-.15,1V388H694.2Z"/><circle class="cls-4" cx="459.48" cy="215" r="4.5"/><circle class="cls-4" cx="459.48" cy="267.31" r="4.5"/><circle class="cls-4" cx="459.48" cy="324.62" r="4.5"/><circle class="cls-4" cx="459.48" cy="380.62" r="4.5"/><polygon class="cls-5" points="830.26 0.14 830.26 484.86 1238.23 484.86 1238.23 0 830.26 0.14"/><line class="cls-6" x1="849.36" y1="170.99" x2="1219.13" y2="170.93"/><path class="cls-3" d="M984,80.23a14.37,14.37,0,0,1-5.89,1c-7.24,0-11.64-4.54-11.64-11.47,0-7.52,5.21-12.05,12.19-12.05a13.14,13.14,0,0,1,5.55,1l-.92,3.32a11.13,11.13,0,0,0-4.47-.88c-4.63,0-8,2.91-8,8.39,0,5,2.94,8.23,7.95,8.23a11.67,11.67,0,0,0,4.54-.85Z"/><path class="cls-3" d="M989.06,64.43l3,8.83c.34,1,.68,2.27.92,3.22h.1c.27-1,.57-2.17.88-3.25l2.57-8.8H1001l-4.13,11.23c-2.27,6.16-3.79,8.91-5.76,10.6a8.41,8.41,0,0,1-4.36,2.13l-1-3.52a7.44,7.44,0,0,0,4.7-3.76,1.68,1.68,0,0,0,.28-.74,1.79,1.79,0,0,0-.24-.81l-6-15.13Z"/><path class="cls-3" d="M1003.25,80.91c.07-1.12.13-2.94.13-4.64V56.88h4.17V66.7h.06a6,6,0,0,1,5.28-2.64c4,0,6.91,3.35,6.87,8.36,0,5.92-3.75,8.86-7.48,8.86a5.67,5.67,0,0,1-5.21-2.84H1007l-.2,2.47Zm4.3-6.8a4.46,4.46,0,0,0,.1,1,3.83,3.83,0,0,0,3.69,2.91c2.6,0,4.19-2.1,4.19-5.41,0-2.92-1.38-5.28-4.16-5.28a3.89,3.89,0,0,0-3.69,3,4.91,4.91,0,0,0-.13,1.08Z"/><path class="cls-3" d="M1026.13,73.84c.1,3,2.44,4.26,5.08,4.26a12.51,12.51,0,0,0,4.57-.74l.6,2.87a15.39,15.39,0,0,1-5.75,1c-5.35,0-8.49-3.28-8.49-8.33,0-4.57,2.77-8.86,8.05-8.86s7.11,4.4,7.11,8a9.88,9.88,0,0,1-.14,1.76Zm7.24-2.91c0-1.53-.64-4-3.42-4-2.57,0-3.65,2.33-3.82,4Z"/><path class="cls-3" d="M1040.65,69.74c0-2.23,0-3.82-.13-5.31h3.62l.13,3.15h.14a4.91,4.91,0,0,1,4.5-3.52,4.22,4.22,0,0,1,1,.1v3.92a6.41,6.41,0,0,0-1.22-.13A3.67,3.67,0,0,0,1045,71.1a6.91,6.91,0,0,0-.13,1.28v8.53h-4.17Z"/><path class="cls-3" d="M967.26,110.94a9.36,9.36,0,0,0,4.23,1.18c1.83,0,2.64-.74,2.64-1.83s-.67-1.69-2.7-2.4c-3.22-1.12-4.57-2.87-4.54-4.8,0-2.91,2.4-5.18,6.23-5.18a9.59,9.59,0,0,1,4.36,1l-.81,2.94a7.47,7.47,0,0,0-3.48-.94c-1.49,0-2.31.71-2.31,1.72s.78,1.56,2.88,2.3c3,1.09,4.37,2.61,4.4,5,0,3-2.33,5.14-6.7,5.14a10.6,10.6,0,0,1-5-1.15Z"/><path class="cls-3" d="M984.53,107.69c.1,3,2.43,4.26,5.07,4.26a12.47,12.47,0,0,0,4.57-.74l.61,2.88a15.61,15.61,0,0,1-5.75,1c-5.35,0-8.5-3.28-8.5-8.33,0-4.56,2.78-8.86,8.06-8.86s7.11,4.4,7.11,8a9.88,9.88,0,0,1-.14,1.76Zm7.24-2.91c0-1.52-.64-4-3.42-4-2.57,0-3.65,2.34-3.82,4Z"/><path class="cls-3" d="M1011.17,114.25a12,12,0,0,1-4.67.85c-5.15,0-8.5-3.28-8.5-8.39,0-4.94,3.38-8.8,9.17-8.8a10.42,10.42,0,0,1,4,.78l-.74,3.11a7.43,7.43,0,0,0-3.15-.64c-3.18,0-5.08,2.33-5,5.34,0,3.39,2.2,5.32,5,5.32a8.1,8.1,0,0,0,3.28-.65Z"/><path class="cls-3" d="M1029,109.82c0,2,.07,3.59.14,4.94h-3.66l-.2-2.5h-.07a6,6,0,0,1-5.28,2.87c-3,0-5.75-1.79-5.75-7.17V98.28h4.16v9c0,2.74.88,4.5,3.08,4.5a3.5,3.5,0,0,0,3.18-2.23,3.75,3.75,0,0,0,.24-1.29v-10H1029Z"/><path class="cls-3" d="M1033.51,103.59c0-2.23,0-3.82-.14-5.31H1037l.13,3.15h.14a4.91,4.91,0,0,1,4.5-3.52,4.28,4.28,0,0,1,1,.1v3.92a6.41,6.41,0,0,0-1.22-.13,3.67,3.67,0,0,0-3.72,3.15,6.86,6.86,0,0,0-.14,1.28v8.53h-4.16Z"/><path class="cls-3" d="M1050,93.68a2.34,2.34,0,0,1-4.67,0,2.34,2.34,0,0,1,4.67,0Zm-4.43,21.08V98.28h4.2v16.48Z"/><path class="cls-3" d="M1059,93.58v4.7h4v3.11h-4v7.28c0,2,.54,3,2.13,3a6.12,6.12,0,0,0,1.62-.21l.07,3.18a9,9,0,0,1-3,.41,4.86,4.86,0,0,1-3.59-1.35c-.88-1-1.28-2.44-1.28-4.61v-7.75h-2.37V98.28h2.37V94.56Z"/><path class="cls-3" d="M1069,98.28l3,8.83c.34,1,.67,2.27.91,3.22h.1c.27-1,.58-2.17.88-3.25l2.58-8.8h4.46l-4.13,11.24c-2.26,6.16-3.79,8.9-5.75,10.59a8.36,8.36,0,0,1-4.37,2.13l-.94-3.52a7.06,7.06,0,0,0,2.43-1.15,7.25,7.25,0,0,0,2.27-2.6,1.71,1.71,0,0,0,.27-.75,1.67,1.67,0,0,0-.24-.81l-6-15.13Z"/><path class="cls-3" d="M900.23,216.46l-1.78,5.38h-2.28L902,204.73h2.67l5.84,17.11h-2.36l-1.83-5.38Zm5.61-1.73-1.68-4.92c-.38-1.12-.63-2.14-.88-3.13h0c-.26,1-.54,2.06-.87,3.1l-1.67,4.95Z"/><path class="cls-3" d="M912.85,213.56c0-1.57-.05-2.84-.1-4h2l.1,2.11h0a4.85,4.85,0,0,1,4.37-2.39c3,0,5.21,2.52,5.21,6.25,0,4.42-2.69,6.6-5.59,6.6a4.3,4.3,0,0,1-3.78-1.93h-.05v6.68h-2.21Zm2.21,3.28a5.07,5.07,0,0,0,.1.91,3.44,3.44,0,0,0,3.35,2.62c2.36,0,3.73-1.93,3.73-4.75,0-2.46-1.29-4.57-3.65-4.57a3.56,3.56,0,0,0-3.38,2.77,3.47,3.47,0,0,0-.15.91Z"/><path class="cls-3" d="M927.29,213.56c0-1.57,0-2.84-.1-4h2l.1,2.11h.05a4.83,4.83,0,0,1,4.37-2.39c3,0,5.2,2.52,5.2,6.25,0,4.42-2.69,6.6-5.58,6.6a4.32,4.32,0,0,1-3.79-1.93h0v6.68h-2.21Zm2.21,3.28a5.07,5.07,0,0,0,.1.91,3.46,3.46,0,0,0,3.36,2.62c2.36,0,3.73-1.93,3.73-4.75,0-2.46-1.3-4.57-3.66-4.57a3.58,3.58,0,0,0-3.38,2.77,3.93,3.93,0,0,0-.15.91Z"/><path class="cls-3" d="M941.74,203.81H944v18h-2.23Z"/><path class="cls-3" d="M950.22,206.1a1.39,1.39,0,0,1-2.77,0,1.36,1.36,0,0,1,1.4-1.4A1.33,1.33,0,0,1,950.22,206.1Zm-2.49,15.74V209.55H950v12.29Z"/><path class="cls-3" d="M962.43,221.38a8.14,8.14,0,0,1-3.53.71c-3.71,0-6.12-2.51-6.12-6.27a6.24,6.24,0,0,1,6.6-6.52,7.57,7.57,0,0,1,3.1.63l-.51,1.73a5.1,5.1,0,0,0-2.59-.59c-2.82,0-4.34,2.09-4.34,4.65,0,2.84,1.83,4.6,4.27,4.6a6.34,6.34,0,0,0,2.74-.61Z"/><path class="cls-3" d="M971.85,221.84l-.18-1.55h-.08a4.54,4.54,0,0,1-3.75,1.83,3.5,3.5,0,0,1-3.76-3.53c0-3,2.64-4.6,7.39-4.57v-.25a2.54,2.54,0,0,0-2.8-2.85,6.08,6.08,0,0,0-3.19.92l-.51-1.48a7.61,7.61,0,0,1,4-1.09c3.76,0,4.68,2.57,4.68,5v4.59a17.62,17.62,0,0,0,.2,3Zm-.33-6.27c-2.44,0-5.21.38-5.21,2.77a2,2,0,0,0,2.11,2.13,3.05,3.05,0,0,0,3-2.06,2.22,2.22,0,0,0,.13-.71Z"/><path class="cls-3" d="M979.87,206v3.53h3.2v1.7h-3.2v6.63c0,1.52.43,2.39,1.68,2.39a4.73,4.73,0,0,0,1.29-.16l.1,1.68a5.4,5.4,0,0,1-2,.3,3.09,3.09,0,0,1-2.41-.94,4.56,4.56,0,0,1-.86-3.19v-6.71h-1.91v-1.7h1.91v-2.94Z"/><path class="cls-3" d="M988.07,206.1a1.31,1.31,0,0,1-1.42,1.37,1.33,1.33,0,0,1-1.35-1.37,1.37,1.37,0,0,1,1.4-1.4A1.33,1.33,0,0,1,988.07,206.1Zm-2.49,15.74V209.55h2.24v12.29Z"/><path class="cls-3" d="M1002.64,215.59c0,4.55-3.14,6.53-6.11,6.53-3.33,0-5.9-2.44-5.9-6.32,0-4.12,2.7-6.53,6.1-6.53S1002.64,211.84,1002.64,215.59Zm-9.75.13c0,2.69,1.55,4.72,3.74,4.72s3.73-2,3.73-4.77c0-2.08-1-4.72-3.68-4.72S992.89,213.39,992.89,215.72Z"/><path class="cls-3" d="M1005.46,212.88c0-1.27,0-2.31-.1-3.33h2l.13,2h0a4.51,4.51,0,0,1,4.06-2.31c1.7,0,4.34,1,4.34,5.23v7.34h-2.23v-7.08c0-2-.74-3.63-2.85-3.63a3.17,3.17,0,0,0-3,2.28,3.26,3.26,0,0,0-.15,1v7.39h-2.24Z"/><path class="cls-3" d="M1025.16,221.84V211.25h-1.72v-1.7h1.72v-.66c0-3.25,1.91-5.36,5.36-5.36a6.1,6.1,0,0,1,3.12.82l-.63,1.7a4.7,4.7,0,0,0-2.59-.71c-2.36,0-3.05,1.65-3.05,3.6v.61h7.14v12.29h-2.21V211.25h-4.93v10.59Z"/><path class="cls-3" d="M1038.21,213.39c0-1.45,0-2.7-.1-3.84h2l.07,2.41h.1a3.69,3.69,0,0,1,3.41-2.69,2.41,2.41,0,0,1,.63.08v2.11a2.91,2.91,0,0,0-.76-.08,3.14,3.14,0,0,0-3,2.87,6.33,6.33,0,0,0-.1,1v6.55h-2.21Z"/><path class="cls-3" d="M1047.5,216.1c.06,3,2,4.27,4.22,4.27a8,8,0,0,0,3.4-.64l.38,1.6a9.85,9.85,0,0,1-4.09.76c-3.78,0-6-2.48-6-6.19s2.19-6.63,5.77-6.63c4,0,5.07,3.53,5.07,5.79a10,10,0,0,1-.07,1Zm6.56-1.6c0-1.42-.59-3.63-3.1-3.63-2.26,0-3.25,2.08-3.43,3.63Z"/><path class="cls-3" d="M1059.87,209.55l1.63,6.25c.35,1.37.68,2.64.91,3.91h.08c.27-1.25.68-2.57,1.09-3.89l2-6.27h1.88l1.91,6.15c.45,1.47.81,2.76,1.09,4h.07a40.22,40.22,0,0,1,.94-4l1.76-6.17h2.2l-4,12.29h-2l-1.88-5.87c-.43-1.37-.78-2.58-1.09-4h0a33.84,33.84,0,0,1-1.12,4.06l-2,5.84h-2l-3.71-12.29Z"/><path class="cls-3" d="M1084.37,221.84l-.18-1.55h-.07a4.58,4.58,0,0,1-3.76,1.83,3.5,3.5,0,0,1-3.76-3.53c0-3,2.64-4.6,7.39-4.57v-.25a2.54,2.54,0,0,0-2.79-2.85,6.09,6.09,0,0,0-3.2.92l-.51-1.48a7.62,7.62,0,0,1,4-1.09c3.75,0,4.67,2.57,4.67,5v4.59a17.62,17.62,0,0,0,.2,3Zm-.33-6.27c-2.44,0-5.21.38-5.21,2.77a2,2,0,0,0,2.11,2.13,3.05,3.05,0,0,0,3-2.06,2.22,2.22,0,0,0,.13-.71Z"/><path class="cls-3" d="M1089.8,203.81H1092v18h-2.24Z"/><path class="cls-3" d="M1095.79,203.81H1098v18h-2.24Z"/><path class="cls-3" d="M1101.48,219.56a5.88,5.88,0,0,0,3,.88c1.62,0,2.38-.81,2.38-1.82s-.63-1.65-2.28-2.26c-2.21-.79-3.25-2-3.25-3.48,0-2,1.6-3.61,4.24-3.61a6.22,6.22,0,0,1,3,.76l-.56,1.63a4.72,4.72,0,0,0-2.51-.71c-1.32,0-2.06.76-2.06,1.67s.74,1.48,2.34,2.09c2.13.81,3.22,1.87,3.22,3.7,0,2.16-1.68,3.68-4.6,3.68a7.12,7.12,0,0,1-3.45-.83Z"/><path class="cls-3" d="M897.46,260.34a32.23,32.23,0,0,1,4.7-.35c3.17,0,5.43.73,6.93,2.13a7.91,7.91,0,0,1,2.41,6.15,9.06,9.06,0,0,1-2.46,6.65c-1.6,1.6-4.24,2.46-7.57,2.46a35.08,35.08,0,0,1-4-.2Zm2.21,15.14a14.28,14.28,0,0,0,2.24.12c4.72,0,7.28-2.64,7.28-7.26,0-4-2.26-6.6-6.93-6.6a12.31,12.31,0,0,0-2.59.23Z"/><path class="cls-3" d="M921.1,277.23l-.18-1.55h-.08a4.57,4.57,0,0,1-3.75,1.83,3.5,3.5,0,0,1-3.76-3.53c0-3,2.64-4.6,7.39-4.57v-.26a2.54,2.54,0,0,0-2.8-2.84,6.17,6.17,0,0,0-3.19.91l-.51-1.47a7.61,7.61,0,0,1,4-1.09c3.76,0,4.68,2.56,4.68,5v4.59a17.62,17.62,0,0,0,.2,3Zm-.33-6.27c-2.44,0-5.21.38-5.21,2.76a2,2,0,0,0,2.11,2.14,3.05,3.05,0,0,0,3-2.06,2.22,2.22,0,0,0,.13-.71Z"/><path class="cls-3" d="M929.12,261.41v3.53h3.2v1.7h-3.2v6.63c0,1.52.43,2.38,1.68,2.38a4.81,4.81,0,0,0,1.29-.15l.1,1.68a5.4,5.4,0,0,1-2,.3,3.09,3.09,0,0,1-2.41-.94,4.57,4.57,0,0,1-.86-3.2v-6.7H925v-1.7h1.91V262Z"/><path class="cls-3" d="M941.64,277.23l-.18-1.55h-.08a4.57,4.57,0,0,1-3.75,1.83,3.5,3.5,0,0,1-3.76-3.53c0-3,2.64-4.6,7.39-4.57v-.26a2.54,2.54,0,0,0-2.8-2.84,6.23,6.23,0,0,0-3.2.91l-.5-1.47a7.61,7.61,0,0,1,4-1.09c3.76,0,4.68,2.56,4.68,5v4.59a17.62,17.62,0,0,0,.2,3Zm-.33-6.27c-2.44,0-5.21.38-5.21,2.76a2,2,0,0,0,2.11,2.14,3.05,3.05,0,0,0,3-2.06,2.22,2.22,0,0,0,.13-.71Z"/><path class="cls-3" d="M953.7,271.49c0,3,2,4.27,4.21,4.27a8,8,0,0,0,3.4-.64l.38,1.6a9.83,9.83,0,0,1-4.08.76c-3.79,0-6.05-2.49-6.05-6.19s2.19-6.63,5.77-6.63c4,0,5.08,3.53,5.08,5.79a9.4,9.4,0,0,1-.08,1Zm6.55-1.6c0-1.42-.59-3.63-3.1-3.63-2.26,0-3.25,2.08-3.43,3.63Z"/><path class="cls-3" d="M965.17,268.27c0-1.27,0-2.31-.1-3.33h2l.13,2h.05a4.51,4.51,0,0,1,4.06-2.31c1.7,0,4.34,1,4.34,5.23v7.34H973.4v-7.09c0-2-.74-3.63-2.85-3.63a3.18,3.18,0,0,0-3,2.29,3.26,3.26,0,0,0-.15,1v7.39h-2.24Z"/><path class="cls-3" d="M988,276.77a8.14,8.14,0,0,1-3.53.71c-3.7,0-6.12-2.51-6.12-6.27a6.24,6.24,0,0,1,6.61-6.52,7.52,7.52,0,0,1,3.09.63l-.5,1.73a5.16,5.16,0,0,0-2.59-.59c-2.82,0-4.35,2.09-4.35,4.65,0,2.84,1.83,4.6,4.27,4.6a6.31,6.31,0,0,0,2.74-.61Z"/><path class="cls-3" d="M990.64,268.77c0-1.44,0-2.69-.1-3.83h2l.08,2.41h.1a3.68,3.68,0,0,1,3.4-2.69,2.55,2.55,0,0,1,.64.08v2.1a3.49,3.49,0,0,0-.77-.07,3.13,3.13,0,0,0-3,2.87,6.33,6.33,0,0,0-.1,1v6.55h-2.21Z"/><path class="cls-3" d="M1000.39,264.94l2.69,7.26c.28.81.58,1.78.78,2.52h0c.23-.74.49-1.68.79-2.57l2.44-7.21h2.36l-3.35,8.76c-1.6,4.21-2.69,6.37-4.22,7.69a6,6,0,0,1-2.74,1.45l-.56-1.88a5.92,5.92,0,0,0,2-1.09,6.8,6.8,0,0,0,1.88-2.49,1.71,1.71,0,0,0,.18-.53,2.09,2.09,0,0,0-.16-.59L998,264.94Z"/><path class="cls-3" d="M1011.53,269c0-1.57,0-2.84-.1-4h2l.1,2.11h.05a4.83,4.83,0,0,1,4.37-2.39c3,0,5.2,2.51,5.2,6.25,0,4.41-2.69,6.6-5.59,6.6a4.31,4.31,0,0,1-3.78-1.93h0v6.68h-2.21Zm2.21,3.28a5.07,5.07,0,0,0,.1.91,3.45,3.45,0,0,0,3.35,2.62c2.36,0,3.74-1.93,3.74-4.75,0-2.46-1.3-4.57-3.66-4.57a3.57,3.57,0,0,0-3.38,2.77,3.76,3.76,0,0,0-.15.91Z"/><path class="cls-3" d="M1028.67,261.41v3.53h3.2v1.7h-3.2v6.63c0,1.52.43,2.38,1.67,2.38a4.84,4.84,0,0,0,1.3-.15l.1,1.68a5.44,5.44,0,0,1-2,.3,3.09,3.09,0,0,1-2.41-.94,4.52,4.52,0,0,1-.87-3.2v-6.7h-1.9v-1.7h1.9V262Z"/><path class="cls-3" d="M1036.87,261.49a1.39,1.39,0,0,1-2.77,0,1.36,1.36,0,0,1,1.4-1.4A1.33,1.33,0,0,1,1036.87,261.49Zm-2.49,15.74V264.94h2.23v12.29Z"/><path class="cls-3" d="M1051.44,271c0,4.55-3.15,6.53-6.12,6.53-3.32,0-5.89-2.44-5.89-6.32,0-4.12,2.69-6.53,6.1-6.53S1051.44,267.22,1051.44,271Zm-9.75.13c0,2.69,1.55,4.72,3.73,4.72s3.74-2,3.74-4.77c0-2.08-1-4.72-3.69-4.72S1041.69,268.77,1041.69,271.11Z"/><path class="cls-3" d="M1054.26,268.27c0-1.27,0-2.31-.1-3.33h2l.12,2h.06a4.5,4.5,0,0,1,4.06-2.31c1.7,0,4.34,1,4.34,5.23v7.34h-2.23v-7.09c0-2-.74-3.63-2.85-3.63a3.18,3.18,0,0,0-3,2.29,3,3,0,0,0-.16,1v7.39h-2.23Z"/><path class="cls-3" d="M1080.54,277.23l-.18-1.55h-.08a4.58,4.58,0,0,1-3.76,1.83,3.5,3.5,0,0,1-3.75-3.53c0-3,2.64-4.6,7.39-4.57v-.26a2.54,2.54,0,0,0-2.8-2.84,6.23,6.23,0,0,0-3.2.91l-.5-1.47a7.58,7.58,0,0,1,4-1.09c3.76,0,4.67,2.56,4.67,5v4.59a16.55,16.55,0,0,0,.21,3Zm-.33-6.27c-2.44,0-5.21.38-5.21,2.76a2,2,0,0,0,2.11,2.14,3.06,3.06,0,0,0,3-2.06,2.22,2.22,0,0,0,.13-.71Z"/><path class="cls-3" d="M1086,268.27c0-1.27,0-2.31-.1-3.33h2l.12,2h.06a4.5,4.5,0,0,1,4.06-2.31c1.7,0,4.34,1,4.34,5.23v7.34h-2.23v-7.09c0-2-.74-3.63-2.85-3.63a3.18,3.18,0,0,0-3,2.29,3,3,0,0,0-.16,1v7.39H1086Z"/><path class="cls-3" d="M1110.67,259.2v14.86c0,1.09,0,2.33.1,3.17h-2l-.1-2.13h-.05a4.56,4.56,0,0,1-4.19,2.41c-3,0-5.26-2.52-5.26-6.25,0-4.09,2.51-6.6,5.51-6.6a4.12,4.12,0,0,1,3.71,1.88h0V259.2Zm-2.23,10.74a4.29,4.29,0,0,0-.1-.94,3.29,3.29,0,0,0-3.23-2.59c-2.31,0-3.68,2-3.68,4.75,0,2.49,1.22,4.55,3.63,4.55a3.36,3.36,0,0,0,3.28-2.67,4.25,4.25,0,0,0,.1-1Z"/><path class="cls-3" d="M897.39,293.65c0-1.27,0-2.31-.11-3.32h2l.1,2h.08a4.23,4.23,0,0,1,3.86-2.26,3.62,3.62,0,0,1,3.47,2.46h.06a5.08,5.08,0,0,1,1.37-1.6,4.17,4.17,0,0,1,2.71-.86c1.63,0,4,1.07,4,5.33v7.24h-2.18v-7c0-2.36-.87-3.78-2.67-3.78a2.89,2.89,0,0,0-2.64,2,3.7,3.7,0,0,0-.18,1.12v7.59h-2.18v-7.37c0-1.95-.86-3.37-2.57-3.37a3,3,0,0,0-2.76,2.23,3,3,0,0,0-.18,1.09v7.42h-2.18Z"/><path class="cls-3" d="M925.36,302.62l-.17-1.55h-.08a4.61,4.61,0,0,1-3.76,1.83,3.51,3.51,0,0,1-3.76-3.53c0-3,2.65-4.6,7.39-4.57v-.26a2.53,2.53,0,0,0-2.79-2.84,6.11,6.11,0,0,0-3.2.91l-.51-1.47a7.65,7.65,0,0,1,4-1.09c3.76,0,4.67,2.56,4.67,5v4.59a16.55,16.55,0,0,0,.21,2.95Zm-.33-6.27c-2.43-.06-5.2.38-5.2,2.76a2,2,0,0,0,2.11,2.14,3.06,3.06,0,0,0,3-2.06,2.52,2.52,0,0,0,.12-.71Z"/><path class="cls-3" d="M930.49,300.33a5.88,5.88,0,0,0,3,.89c1.62,0,2.38-.81,2.38-1.83s-.63-1.65-2.28-2.26c-2.21-.78-3.25-2-3.25-3.48,0-2,1.6-3.6,4.24-3.6a6.08,6.08,0,0,1,3,.76l-.56,1.63a4.71,4.71,0,0,0-2.51-.72c-1.32,0-2.06.77-2.06,1.68s.74,1.47,2.34,2.08c2.13.81,3.22,1.88,3.22,3.71,0,2.16-1.67,3.68-4.59,3.68a7,7,0,0,1-3.46-.84Z"/><path class="cls-3" d="M943.06,296h.05c.3-.43.74-1,1.09-1.39l3.61-4.24h2.69l-4.75,5.05,5.41,7.24h-2.72l-4.24-5.89L943.06,298v4.62h-2.21v-18h2.21Z"/><path class="cls-3" d="M955.68,286.87a1.39,1.39,0,0,1-2.77,0,1.36,1.36,0,0,1,1.4-1.39A1.33,1.33,0,0,1,955.68,286.87Zm-2.49,15.75V290.33h2.23v12.29Z"/><path class="cls-3" d="M959.13,293.65c0-1.27,0-2.31-.1-3.32h2l.13,2h.05a4.51,4.51,0,0,1,4.06-2.31c1.7,0,4.34,1,4.34,5.23v7.34h-2.23v-7.09c0-2-.74-3.63-2.85-3.63a3.17,3.17,0,0,0-3,2.29,3,3,0,0,0-.16,1v7.39h-2.23Z"/><path class="cls-3" d="M983.81,290.33c0,.89-.1,1.88-.1,3.37v7.14c0,2.82-.56,4.54-1.75,5.61a6.51,6.51,0,0,1-4.47,1.47,7.92,7.92,0,0,1-4.09-1l.56-1.7a7,7,0,0,0,3.6,1c2.29,0,4-1.19,4-4.29v-1.37h0a4.38,4.38,0,0,1-3.91,2.06c-3,0-5.23-2.59-5.23-6,0-4.16,2.72-6.52,5.54-6.52a4.09,4.09,0,0,1,3.83,2.13h0l.1-1.85Zm-2.31,4.85a3.28,3.28,0,0,0-.13-1,3.23,3.23,0,0,0-3.12-2.36c-2.13,0-3.66,1.8-3.66,4.65,0,2.41,1.22,4.42,3.63,4.42a3.27,3.27,0,0,0,3.1-2.29,3.78,3.78,0,0,0,.18-1.19Z"/><path class="cls-3" d="M900.23,352.62,898.45,358h-2.28L902,340.89h2.67L910.49,358h-2.36l-1.83-5.39Zm5.61-1.72L904.16,346c-.38-1.12-.63-2.13-.88-3.12h0c-.26,1-.54,2-.87,3.1l-1.67,4.95Z"/><path class="cls-3" d="M921.38,357.55a8.33,8.33,0,0,1-3.53.71c-3.71,0-6.12-2.51-6.12-6.27a6.24,6.24,0,0,1,6.6-6.53,7.39,7.39,0,0,1,3.1.64l-.51,1.72a5.23,5.23,0,0,0-2.59-.58c-2.82,0-4.34,2.08-4.34,4.65,0,2.84,1.83,4.59,4.27,4.59a6.34,6.34,0,0,0,2.74-.61Z"/><path class="cls-3" d="M927,342.19v3.53h3.2v1.7H927V354c0,1.53.44,2.39,1.68,2.39a4.9,4.9,0,0,0,1.3-.15l.1,1.67a5.41,5.41,0,0,1-2,.31,3.12,3.12,0,0,1-2.42-.94,4.57,4.57,0,0,1-.86-3.2v-6.7h-1.9v-1.7h1.9v-3Z"/><path class="cls-3" d="M935.21,342.26a1.38,1.38,0,0,1-2.76,0,1.36,1.36,0,0,1,1.39-1.39A1.32,1.32,0,0,1,935.21,342.26ZM932.73,358V345.72H935V358Z"/><path class="cls-3" d="M939.53,345.72l2.41,6.9a30.36,30.36,0,0,1,1,3.15H943c.28-1,.63-2,1-3.15l2.39-6.9h2.33L944,358h-2.13l-4.68-12.29Z"/><path class="cls-3" d="M953.37,342.26a1.39,1.39,0,0,1-2.77,0,1.36,1.36,0,0,1,1.4-1.39A1.33,1.33,0,0,1,953.37,342.26ZM950.88,358V345.72h2.23V358Z"/><path class="cls-3" d="M959.51,342.19v3.53h3.2v1.7h-3.2V354c0,1.53.43,2.39,1.68,2.39a4.81,4.81,0,0,0,1.29-.15l.1,1.67a5.37,5.37,0,0,1-2,.31,3.09,3.09,0,0,1-2.41-.94,4.57,4.57,0,0,1-.86-3.2v-6.7h-1.91v-1.7h1.91v-3Z"/><path class="cls-3" d="M966.26,345.72,969,353c.28.81.59,1.78.79,2.51h0c.23-.73.48-1.67.79-2.56l2.44-7.21h2.36L972,354.48c-1.6,4.21-2.7,6.37-4.22,7.69a6.08,6.08,0,0,1-2.74,1.45l-.56-1.88a6.11,6.11,0,0,0,2-1.09,6.77,6.77,0,0,0,1.87-2.49,1.46,1.46,0,0,0,.18-.54,2,2,0,0,0-.15-.58l-4.54-11.32Z"/><path class="cls-3" d="M989.59,358l-.17-1.55h-.08a4.59,4.59,0,0,1-3.76,1.83,3.5,3.5,0,0,1-3.75-3.53c0-3,2.64-4.6,7.38-4.57v-.26a2.53,2.53,0,0,0-2.79-2.84,6.11,6.11,0,0,0-3.2.91l-.51-1.47a7.65,7.65,0,0,1,4-1.09c3.76,0,4.67,2.56,4.67,5v4.6a16.55,16.55,0,0,0,.21,2.95Zm-.33-6.28c-2.43-.05-5.2.39-5.2,2.77a2,2,0,0,0,2.11,2.13,3.06,3.06,0,0,0,3-2.05,2.52,2.52,0,0,0,.12-.71Z"/><path class="cls-3" d="M995,349c0-1.27,0-2.31-.1-3.32h2l.12,2h.05a4.53,4.53,0,0,1,4.07-2.31c1.7,0,4.34,1,4.34,5.23V358h-2.24v-7.09c0-2-.73-3.63-2.84-3.63a3.18,3.18,0,0,0-3,2.29,3.26,3.26,0,0,0-.15,1V358H995Z"/><path class="cls-3" d="M1019.73,340v14.85c0,1.09,0,2.34.1,3.18h-2l-.1-2.14h-.06a4.54,4.54,0,0,1-4.18,2.42c-3,0-5.26-2.52-5.26-6.25,0-4.09,2.51-6.6,5.51-6.6a4.12,4.12,0,0,1,3.71,1.88h0V340Zm-2.23,10.74a4.29,4.29,0,0,0-.1-.94,3.29,3.29,0,0,0-3.23-2.59c-2.31,0-3.68,2-3.68,4.75,0,2.49,1.22,4.54,3.63,4.54a3.37,3.37,0,0,0,3.28-2.66,4.25,4.25,0,0,0,.1-1Z"/><path class="cls-3" d="M1028.82,349c0-1.27,0-2.31-.1-3.32h2l.1,2h.08a4.24,4.24,0,0,1,3.86-2.26,3.62,3.62,0,0,1,3.48,2.46h0a5,5,0,0,1,1.37-1.6,4.2,4.2,0,0,1,2.72-.86c1.62,0,4,1.06,4,5.33V358h-2.18v-7c0-2.36-.86-3.78-2.67-3.78a2.89,2.89,0,0,0-2.64,2,3.7,3.7,0,0,0-.17,1.11V358h-2.19v-7.37c0-1.95-.86-3.37-2.56-3.37a3,3,0,0,0-2.77,2.23,3,3,0,0,0-.18,1.09V358h-2.18Z"/><path class="cls-3" d="M1056.8,358l-.18-1.55h-.08a4.57,4.57,0,0,1-3.75,1.83,3.51,3.51,0,0,1-3.76-3.53c0-3,2.64-4.6,7.39-4.57v-.26a2.54,2.54,0,0,0-2.8-2.84,6.13,6.13,0,0,0-3.2.91l-.5-1.47a7.61,7.61,0,0,1,4-1.09c3.76,0,4.68,2.56,4.68,5v4.6a17.62,17.62,0,0,0,.2,2.95Zm-.33-6.28c-2.44-.05-5.21.39-5.21,2.77a2,2,0,0,0,2.11,2.13,3,3,0,0,0,3-2.05,2.22,2.22,0,0,0,.13-.71Z"/><path class="cls-3" d="M1062.23,340h2.23v18h-2.23Z"/><path class="cls-3" d="M1069.11,345.72l1.63,6.24c.35,1.37.68,2.64.91,3.91h.08c.27-1.24.68-2.56,1.09-3.88l2-6.27h1.88l1.91,6.14c.45,1.47.81,2.77,1.09,4h.07a40.07,40.07,0,0,1,.94-4l1.76-6.17h2.2l-4,12.29h-2l-1.88-5.87c-.43-1.37-.78-2.59-1.09-4h0a33.49,33.49,0,0,1-1.12,4.07l-2,5.84h-2l-3.7-12.29Z"/><path class="cls-3" d="M1093.61,358l-.18-1.55h-.07a4.61,4.61,0,0,1-3.76,1.83,3.51,3.51,0,0,1-3.76-3.53c0-3,2.64-4.6,7.39-4.57v-.26a2.53,2.53,0,0,0-2.79-2.84,6.08,6.08,0,0,0-3.2.91l-.51-1.47a7.65,7.65,0,0,1,4-1.09c3.75,0,4.67,2.56,4.67,5v4.6a17.62,17.62,0,0,0,.2,2.95Zm-.33-6.28c-2.44-.05-5.2.39-5.2,2.77a2,2,0,0,0,2.1,2.13,3,3,0,0,0,3-2.05,2.22,2.22,0,0,0,.13-.71Z"/><path class="cls-3" d="M1099,349.55c0-1.45,0-2.69-.1-3.83h2l.07,2.41h.11a3.67,3.67,0,0,1,3.4-2.69,2.43,2.43,0,0,1,.63.07v2.11a3.34,3.34,0,0,0-.76-.08,3.15,3.15,0,0,0-3,2.87,6.44,6.44,0,0,0-.1,1V358H1099Z"/><path class="cls-3" d="M1108.34,352.27c.05,3,2,4.26,4.21,4.26a8.14,8.14,0,0,0,3.4-.63l.38,1.6a10,10,0,0,1-4.08.76c-3.79,0-6-2.49-6-6.2s2.19-6.62,5.77-6.62c4,0,5.07,3.53,5.07,5.79a10.18,10.18,0,0,1-.07,1Zm6.55-1.6c0-1.42-.59-3.63-3.1-3.63-2.26,0-3.25,2.08-3.43,3.63Z"/><path class="cls-3" d="M897.39,374.43c0-1.27,0-2.31-.11-3.33h2l.1,2h.08a4.23,4.23,0,0,1,3.86-2.26,3.62,3.62,0,0,1,3.47,2.46h.06a5,5,0,0,1,1.37-1.6,4.17,4.17,0,0,1,2.71-.86c1.63,0,4,1.06,4,5.33v7.23h-2.18v-6.95c0-2.36-.87-3.79-2.67-3.79a2.89,2.89,0,0,0-2.64,2,3.81,3.81,0,0,0-.18,1.12v7.59h-2.18V376c0-1.95-.86-3.38-2.57-3.38a3,3,0,0,0-2.76,2.24,3,3,0,0,0-.18,1.09v7.41h-2.18Z"/><path class="cls-3" d="M929.68,377.15c0,4.54-3.15,6.52-6.12,6.52-3.32,0-5.89-2.43-5.89-6.32,0-4.11,2.69-6.52,6.09-6.52S929.68,373.39,929.68,377.15Zm-9.75.12c0,2.7,1.55,4.73,3.73,4.73s3.74-2,3.74-4.78c0-2.08-1-4.72-3.69-4.72S919.93,374.94,919.93,377.27Z"/><path class="cls-3" d="M932.5,374.43c0-1.27,0-2.31-.1-3.33h2l.12,2h0a4.53,4.53,0,0,1,4.07-2.31c1.7,0,4.34,1,4.34,5.23v7.33h-2.24v-7.08c0-2-.73-3.63-2.84-3.63a3.19,3.19,0,0,0-3,2.28,3.28,3.28,0,0,0-.15,1.05v7.38H932.5Z"/><path class="cls-3" d="M949.08,367.65a1.39,1.39,0,0,1-2.77,0,1.35,1.35,0,0,1,1.4-1.39A1.32,1.32,0,0,1,949.08,367.65Zm-2.49,15.74V371.1h2.23v12.29Z"/><path class="cls-3" d="M955.22,367.58v3.52h3.2v1.71h-3.2v6.62c0,1.53.43,2.39,1.68,2.39a5.27,5.27,0,0,0,1.29-.15l.1,1.67a5.37,5.37,0,0,1-2,.31,3.09,3.09,0,0,1-2.41-.94,4.57,4.57,0,0,1-.86-3.2v-6.7h-1.91V371.1H953v-2.94Z"/><path class="cls-3" d="M971.9,377.15c0,4.54-3.15,6.52-6.12,6.52-3.32,0-5.89-2.43-5.89-6.32,0-4.11,2.69-6.52,6.1-6.52S971.9,373.39,971.9,377.15Zm-9.75.12c0,2.7,1.55,4.73,3.73,4.73s3.74-2,3.74-4.78c0-2.08-1-4.72-3.69-4.72S962.15,374.94,962.15,377.27Z"/><path class="cls-3" d="M974.72,374.94c0-1.45,0-2.69-.1-3.84h2l.08,2.42h.1a3.68,3.68,0,0,1,3.4-2.69,2.51,2.51,0,0,1,.64.07V373a3.41,3.41,0,0,0-.76-.08,3.14,3.14,0,0,0-3,2.87,6.44,6.44,0,0,0-.1,1v6.55h-2.21Z"/><path class="cls-3" d="M985.61,367.65a1.31,1.31,0,0,1-1.42,1.37,1.33,1.33,0,0,1-1.35-1.37,1.36,1.36,0,0,1,1.4-1.39A1.32,1.32,0,0,1,985.61,367.65Zm-2.49,15.74V371.1h2.24v12.29Z"/><path class="cls-3" d="M989.06,374.43c0-1.27,0-2.31-.1-3.33h2l.13,2h0a4.51,4.51,0,0,1,4.06-2.31c1.7,0,4.34,1,4.34,5.23v7.33h-2.23v-7.08c0-2-.74-3.63-2.84-3.63a3.17,3.17,0,0,0-3,2.28,3.28,3.28,0,0,0-.15,1.05v7.38h-2.24Z"/><path class="cls-3" d="M1013.74,371.1c0,.89-.1,1.88-.1,3.38v7.14c0,2.81-.56,4.54-1.75,5.61a6.51,6.51,0,0,1-4.47,1.47,7.85,7.85,0,0,1-4.09-1l.56-1.7a6.9,6.9,0,0,0,3.61,1c2.28,0,4-1.19,4-4.29v-1.37h-.05a4.4,4.4,0,0,1-3.91,2c-3,0-5.24-2.59-5.24-6,0-4.16,2.72-6.52,5.54-6.52a4.07,4.07,0,0,1,3.83,2.13h0l.11-1.86Zm-2.31,4.85a2.91,2.91,0,0,0-.13-1,3.2,3.2,0,0,0-3.12-2.36c-2.13,0-3.66,1.8-3.66,4.64,0,2.42,1.22,4.42,3.64,4.42a3.25,3.25,0,0,0,3.09-2.28,3.84,3.84,0,0,0,.18-1.2Z"/><circle class="cls-4" cx="872.42" cy="215" r="4.5"/><circle class="cls-4" cx="872.24" cy="267.31" r="4.5"/><circle class="cls-4" cx="872.06" cy="352.62" r="4.5"/><polygon class="cls-5" points="0 0 0 484.96 407.97 484.96 407.97 0.11 0 0"/><line class="cls-6" x1="19.1" y1="170.99" x2="388.87" y2="170.93"/><path class="cls-3" d="M169,71.6c-.14-2.94-.31-6.49-.27-9.57h-.1c-.75,2.77-1.7,5.85-2.72,8.73l-3.33,9.88h-3.22l-3.06-9.75c-.88-2.91-1.7-6-2.31-8.86h-.06c-.11,3-.24,6.6-.41,9.71L153,80.91h-3.91L150.6,58.1h5.5l3,9.17c.81,2.68,1.53,5.38,2.1,7.92h.11c.61-2.47,1.39-5.28,2.27-8l3.16-9.14h5.43l1.33,22.81h-4.08Z"/><path class="cls-3" d="M187,80.91l-.27-1.83h-.1a6.14,6.14,0,0,1-4.89,2.2,4.89,4.89,0,0,1-5.19-4.9c0-4.17,3.7-6.27,9.81-6.23v-.27c0-1.09-.44-2.88-3.36-2.88a8.79,8.79,0,0,0-4.45,1.22l-.81-2.71a12,12,0,0,1,6-1.45c5.3,0,6.82,3.35,6.82,6.93v6a26.23,26.23,0,0,0,.24,4Zm-.54-8c-3-.07-5.77.57-5.77,3.08a2.18,2.18,0,0,0,2.38,2.36A3.37,3.37,0,0,0,186.32,76a2.82,2.82,0,0,0,.14-.92Z"/><path class="cls-3" d="M195,69.34c0-1.9,0-3.49-.13-4.91h3.66l.21,2.47h.1a6,6,0,0,1,5.26-2.84c2.89,0,5.87,1.86,5.87,7.07v9.78h-4.17V71.6c0-2.37-.88-4.16-3.16-4.16a3.51,3.51,0,0,0-3.26,2.44,4.38,4.38,0,0,0-.17,1.35v9.68H195Z"/><path class="cls-3" d="M223.68,80.91l-.27-1.83h-.11a6.12,6.12,0,0,1-4.88,2.2,4.9,4.9,0,0,1-5.2-4.9c0-4.17,3.7-6.27,9.81-6.23v-.27c0-1.09-.44-2.88-3.36-2.88a8.79,8.79,0,0,0-4.45,1.22l-.81-2.71a12,12,0,0,1,6-1.45c5.3,0,6.83,3.35,6.83,6.93v6a26.23,26.23,0,0,0,.24,4Zm-.55-8c-2.95-.07-5.77.57-5.77,3.08a2.19,2.19,0,0,0,2.38,2.36A3.38,3.38,0,0,0,223,76a3.09,3.09,0,0,0,.13-.92Z"/><path class="cls-3" d="M246.73,64.43c-.06,1.12-.13,2.47-.13,4.74v9.34c0,3.45-.71,5.92-2.45,7.48a9.52,9.52,0,0,1-6.38,2A11.75,11.75,0,0,1,232,86.66l.92-3.14a10,10,0,0,0,4.82,1.25c2.71,0,4.75-1.42,4.75-5V78.37h-.07a5.58,5.58,0,0,1-4.82,2.44c-4.11,0-7-3.39-7-8.06,0-5.41,3.53-8.69,7.51-8.69a5.18,5.18,0,0,1,4.78,2.57h.07l.17-2.2ZM242.42,71a4.14,4.14,0,0,0-.13-1.12,3.47,3.47,0,0,0-3.4-2.67c-2.34,0-4.07,2-4.07,5.38,0,2.81,1.42,5.08,4,5.08a3.56,3.56,0,0,0,3.39-2.51,7.23,7.23,0,0,0,.17-1.49Z"/><path class="cls-3" d="M254,73.84c.1,3,2.44,4.26,5.09,4.26a12.49,12.49,0,0,0,4.58-.74l.62,2.87a15.56,15.56,0,0,1-5.78,1c-5.36,0-8.52-3.28-8.52-8.33,0-4.57,2.79-8.86,8.08-8.86s7.13,4.4,7.13,8a11.32,11.32,0,0,1-.13,1.76Zm7.26-2.91c0-1.53-.64-4-3.43-4-2.58,0-3.66,2.33-3.83,4Z"/><path class="cls-3" d="M283.85,56.88V76.27c0,1.7.07,3.52.14,4.64h-3.74l-.17-2.61H280a5.93,5.93,0,0,1-5.39,3c-3.94,0-7.07-3.35-7.07-8.42,0-5.52,3.43-8.8,7.41-8.8a5.27,5.27,0,0,1,4.65,2.16h.06V56.88ZM279.67,71.3a5.57,5.57,0,0,0-.1-1.08,3.65,3.65,0,0,0-3.6-3c-2.68,0-4.17,2.37-4.17,5.45s1.49,5.21,4.14,5.21a3.68,3.68,0,0,0,3.6-2.94,4.71,4.71,0,0,0,.13-1.22Z"/><path class="cls-3" d="M149.28,110.94a9.4,9.4,0,0,0,4.24,1.18c1.84,0,2.65-.74,2.65-1.83s-.68-1.69-2.72-2.4c-3.22-1.12-4.58-2.88-4.55-4.8,0-2.91,2.42-5.18,6.25-5.18a9.72,9.72,0,0,1,4.38,1l-.81,2.94a7.56,7.56,0,0,0-3.5-.94c-1.49,0-2.31.71-2.31,1.72s.78,1.56,2.89,2.3c3,1.09,4.38,2.61,4.41,5,0,3-2.34,5.14-6.72,5.14a10.68,10.68,0,0,1-5-1.15Z"/><path class="cls-3" d="M166.6,107.69c.1,3,2.44,4.26,5.09,4.26a12.53,12.53,0,0,0,4.58-.74l.61,2.87a15.46,15.46,0,0,1-5.77,1c-5.36,0-8.52-3.28-8.52-8.33,0-4.56,2.78-8.86,8.08-8.86s7.13,4.4,7.13,8a9.88,9.88,0,0,1-.14,1.76Zm7.26-2.91c0-1.53-.64-4-3.43-4-2.58,0-3.66,2.34-3.83,4Z"/><path class="cls-3" d="M181.16,103.59c0-2.23,0-3.82-.13-5.31h3.63l.14,3.15h.13a4.93,4.93,0,0,1,4.52-3.52,4.22,4.22,0,0,1,1,.1v3.92a6.41,6.41,0,0,0-1.22-.13,3.68,3.68,0,0,0-3.73,3.15,6.86,6.86,0,0,0-.14,1.28v8.53h-4.18Z"/><path class="cls-3" d="M196.65,98.28l2.68,8.36c.48,1.45.81,2.77,1.12,4.13h.1c.31-1.36.68-2.64,1.12-4.13l2.62-8.36h4.41l-6.31,16.48h-4.11l-6.15-16.48Z"/><path class="cls-3" d="M215.7,93.68a2.35,2.35,0,1,1-2.34-2.27A2.21,2.21,0,0,1,215.7,93.68Zm-4.45,21.08V98.28h4.21v16.48Z"/><path class="cls-3" d="M232.1,114.25a12.06,12.06,0,0,1-4.69.85c-5.16,0-8.52-3.28-8.52-8.39,0-4.94,3.4-8.8,9.2-8.8a10.43,10.43,0,0,1,4,.78l-.74,3.11a7.33,7.33,0,0,0-3.16-.64c-3.19,0-5.09,2.33-5.06,5.34,0,3.39,2.21,5.32,5.06,5.32a8.11,8.11,0,0,0,3.29-.65Z"/><path class="cls-3" d="M237.84,107.69c.1,3,2.44,4.26,5.09,4.26a12.58,12.58,0,0,0,4.59-.74l.61,2.87a15.56,15.56,0,0,1-5.78,1c-5.36,0-8.52-3.28-8.52-8.33,0-4.56,2.79-8.86,8.08-8.86s7.13,4.4,7.13,8a10.09,10.09,0,0,1-.13,1.76Zm7.26-2.91c0-1.53-.64-4-3.42-4-2.58,0-3.67,2.34-3.84,4Z"/><path class="cls-3" d="M252.2,110.94a9.41,9.41,0,0,0,4.25,1.18c1.83,0,2.65-.74,2.65-1.83s-.68-1.69-2.72-2.4c-3.23-1.12-4.58-2.88-4.55-4.8,0-2.91,2.41-5.18,6.25-5.18a9.72,9.72,0,0,1,4.38,1l-.82,2.94a7.48,7.48,0,0,0-3.49-.94c-1.5,0-2.31.71-2.31,1.72s.78,1.56,2.88,2.3c3,1.09,4.38,2.61,4.42,5,0,3-2.35,5.14-6.73,5.14a10.64,10.64,0,0,1-5-1.15Z"/><path class="cls-3" d="M77.52,216.46l-1.78,5.38H73.46l5.81-17.11h2.67l5.84,17.11H85.42l-1.83-5.38Zm5.61-1.73-1.67-4.93c-.38-1.11-.64-2.13-.89-3.12h0c-.26,1-.54,2.06-.87,3.1L78,214.73Z"/><path class="cls-3" d="M90.14,213.56c0-1.57,0-2.84-.1-4h2l.11,2.11h0a4.82,4.82,0,0,1,4.36-2.39c3,0,5.21,2.52,5.21,6.25,0,4.42-2.69,6.6-5.59,6.6a4.31,4.31,0,0,1-3.78-1.93h-.05v6.68H90.14Zm2.21,3.28a5.07,5.07,0,0,0,.1.91,3.45,3.45,0,0,0,3.35,2.62c2.36,0,3.73-1.93,3.73-4.75,0-2.46-1.29-4.57-3.65-4.57a3.56,3.56,0,0,0-3.38,2.77,3.47,3.47,0,0,0-.15.91Z"/><path class="cls-3" d="M104.58,213.56c0-1.57,0-2.84-.1-4h2l.1,2.11h0a4.84,4.84,0,0,1,4.37-2.39c3,0,5.2,2.52,5.2,6.25,0,4.42-2.69,6.6-5.58,6.6a4.32,4.32,0,0,1-3.79-1.93h0v6.68h-2.21Zm2.21,3.28a4.28,4.28,0,0,0,.11.91,3.44,3.44,0,0,0,3.35,2.62c2.36,0,3.73-1.93,3.73-4.75,0-2.46-1.3-4.57-3.66-4.57a3.56,3.56,0,0,0-3.37,2.77,3.47,3.47,0,0,0-.16.91Z"/><path class="cls-3" d="M119,203.81h2.23v18H119Z"/><path class="cls-3" d="M127.51,206.1a1.31,1.31,0,0,1-1.42,1.37,1.33,1.33,0,0,1-1.35-1.37,1.37,1.37,0,0,1,1.4-1.4A1.33,1.33,0,0,1,127.51,206.1ZM125,221.84V209.55h2.24v12.29Z"/><path class="cls-3" d="M139.72,221.38a8.14,8.14,0,0,1-3.53.71c-3.7,0-6.12-2.51-6.12-6.27a6.24,6.24,0,0,1,6.6-6.52,7.53,7.53,0,0,1,3.1.63l-.51,1.73a5.1,5.1,0,0,0-2.59-.59c-2.81,0-4.34,2.09-4.34,4.65,0,2.84,1.83,4.6,4.27,4.6a6.31,6.31,0,0,0,2.74-.61Z"/><path class="cls-3" d="M149.14,221.84l-.18-1.55h-.07a4.58,4.58,0,0,1-3.76,1.83,3.5,3.5,0,0,1-3.76-3.53c0-3,2.64-4.6,7.39-4.57v-.25a2.54,2.54,0,0,0-2.79-2.85,6.09,6.09,0,0,0-3.2.92l-.51-1.48a7.65,7.65,0,0,1,4-1.09c3.75,0,4.67,2.57,4.67,5v4.59a17.62,17.62,0,0,0,.2,3Zm-.33-6.27c-2.44,0-5.2.38-5.2,2.77a2,2,0,0,0,2.1,2.13,3.05,3.05,0,0,0,3-2.06,2.22,2.22,0,0,0,.13-.71Z"/><path class="cls-3" d="M157.16,206v3.53h3.2v1.7h-3.2v6.63c0,1.52.43,2.39,1.68,2.39a4.73,4.73,0,0,0,1.29-.16l.11,1.68a5.5,5.5,0,0,1-2,.3,3.1,3.1,0,0,1-2.41-.94A4.56,4.56,0,0,1,155,218v-6.71h-1.9v-1.7H155v-2.94Z"/><path class="cls-3" d="M165.36,206.1a1.38,1.38,0,0,1-2.76,0,1.36,1.36,0,0,1,1.39-1.4A1.33,1.33,0,0,1,165.36,206.1Zm-2.49,15.74V209.55h2.24v12.29Z"/><path class="cls-3" d="M179.94,215.59c0,4.55-3.15,6.53-6.12,6.53-3.33,0-5.89-2.44-5.89-6.32,0-4.12,2.69-6.53,6.09-6.53S179.94,211.84,179.94,215.59Zm-9.75.13c0,2.69,1.55,4.72,3.73,4.72s3.73-2,3.73-4.77c0-2.08-1-4.72-3.68-4.72S170.19,213.38,170.19,215.72Z"/><path class="cls-3" d="M182.75,212.88c0-1.27,0-2.31-.1-3.33h2l.13,2h.05a4.51,4.51,0,0,1,4.06-2.31c1.7,0,4.34,1,4.34,5.23v7.34H191v-7.08c0-2-.74-3.63-2.84-3.63a3.17,3.17,0,0,0-3,2.28,3.26,3.26,0,0,0-.15,1v7.39h-2.24Z"/><path class="cls-3" d="M196.54,219.55a5.78,5.78,0,0,0,3,.89c1.62,0,2.38-.81,2.38-1.82s-.63-1.66-2.28-2.26c-2.21-.79-3.25-2-3.25-3.48,0-2,1.6-3.61,4.24-3.61a6.22,6.22,0,0,1,3,.76l-.56,1.63a4.72,4.72,0,0,0-2.51-.71c-1.32,0-2.06.76-2.06,1.67s.74,1.48,2.34,2.09c2.13.81,3.22,1.87,3.22,3.7,0,2.16-1.68,3.68-4.6,3.68a7.09,7.09,0,0,1-3.45-.83Z"/><path class="cls-3" d="M74.75,260.34a32.23,32.23,0,0,1,4.7-.35c3.17,0,5.43.73,6.93,2.13a7.87,7.87,0,0,1,2.41,6.15,9.06,9.06,0,0,1-2.46,6.65c-1.6,1.6-4.24,2.46-7.56,2.46a37.6,37.6,0,0,1-4-.2ZM77,275.48a14.28,14.28,0,0,0,2.24.12c4.72,0,7.28-2.64,7.28-7.26,0-4-2.26-6.6-6.93-6.6A12.38,12.38,0,0,0,77,262Z"/><path class="cls-3" d="M98.39,277.23l-.18-1.55h-.07a4.61,4.61,0,0,1-3.76,1.83A3.5,3.5,0,0,1,90.62,274c0-3,2.64-4.6,7.39-4.57v-.26a2.53,2.53,0,0,0-2.79-2.84,6.17,6.17,0,0,0-3.2.91l-.51-1.47a7.65,7.65,0,0,1,4-1.09c3.75,0,4.67,2.56,4.67,5v4.59a17.62,17.62,0,0,0,.2,3ZM98.06,271c-2.44,0-5.2.38-5.2,2.76a2,2,0,0,0,2.1,2.14,3.05,3.05,0,0,0,3-2.06,2.22,2.22,0,0,0,.13-.71Z"/><path class="cls-3" d="M106.41,261.41v3.53h3.2v1.7h-3.2v6.63c0,1.52.43,2.38,1.68,2.38a4.81,4.81,0,0,0,1.29-.15l.11,1.68a5.5,5.5,0,0,1-2,.3,3.1,3.1,0,0,1-2.41-.94,4.57,4.57,0,0,1-.86-3.2v-6.7h-1.9v-1.7h1.9V262Z"/><path class="cls-3" d="M118.93,277.23l-.18-1.55h-.07a4.61,4.61,0,0,1-3.76,1.83,3.5,3.5,0,0,1-3.76-3.53c0-3,2.64-4.6,7.39-4.57v-.26a2.53,2.53,0,0,0-2.79-2.84,6.17,6.17,0,0,0-3.2.91l-.51-1.47a7.62,7.62,0,0,1,4-1.09c3.75,0,4.67,2.56,4.67,5v4.59a17.62,17.62,0,0,0,.2,3ZM118.6,271c-2.44,0-5.21.38-5.21,2.76a2,2,0,0,0,2.11,2.14,3.05,3.05,0,0,0,3-2.06,2.22,2.22,0,0,0,.13-.71Z"/><path class="cls-3" d="M138.5,276.77a8.14,8.14,0,0,1-3.53.71c-3.7,0-6.11-2.51-6.11-6.27a6.24,6.24,0,0,1,6.6-6.52,7.48,7.48,0,0,1,3.09.63l-.5,1.73a5.13,5.13,0,0,0-2.59-.59c-2.82,0-4.34,2.09-4.34,4.65,0,2.84,1.82,4.6,4.26,4.6a6.31,6.31,0,0,0,2.74-.61Z"/><path class="cls-3" d="M142.21,271.49c0,3,2,4.27,4.21,4.27a8,8,0,0,0,3.41-.64l.38,1.6a9.89,9.89,0,0,1-4.09.76c-3.78,0-6-2.49-6-6.19s2.18-6.63,5.76-6.63c4,0,5.08,3.53,5.08,5.79a7.43,7.43,0,0,1-.08,1Zm6.55-1.6c0-1.42-.58-3.63-3.1-3.63-2.26,0-3.25,2.08-3.42,3.63Z"/><path class="cls-3" d="M153.69,268.27c0-1.27,0-2.31-.11-3.33h2l.13,2h.05a4.51,4.51,0,0,1,4.06-2.31c1.71,0,4.35,1,4.35,5.23v7.34h-2.24v-7.09c0-2-.73-3.63-2.84-3.63a3.18,3.18,0,0,0-3,2.29,3.26,3.26,0,0,0-.15,1v7.39h-2.23Z"/><path class="cls-3" d="M170.37,261.41v3.53h3.2v1.7h-3.2v6.63c0,1.52.43,2.38,1.67,2.38a4.84,4.84,0,0,0,1.3-.15l.1,1.68a5.44,5.44,0,0,1-2,.3,3.09,3.09,0,0,1-2.41-.94,4.52,4.52,0,0,1-.87-3.2v-6.7h-1.9v-1.7h1.9V262Z"/><path class="cls-3" d="M177.17,271.49c.05,3,2,4.27,4.21,4.27a8,8,0,0,0,3.41-.64l.38,1.6a9.89,9.89,0,0,1-4.09.76c-3.78,0-6-2.49-6-6.19s2.18-6.63,5.76-6.63c4,0,5.08,3.53,5.08,5.79a7.43,7.43,0,0,1-.08,1Zm6.55-1.6c0-1.42-.58-3.63-3.1-3.63-2.26,0-3.25,2.08-3.42,3.63Z"/><path class="cls-3" d="M188.65,268.77c0-1.44,0-2.69-.11-3.83h2l.08,2.41h.1a3.68,3.68,0,0,1,3.4-2.69,2.41,2.41,0,0,1,.63.08v2.1a3.33,3.33,0,0,0-.76-.07,3.13,3.13,0,0,0-3,2.87,6.26,6.26,0,0,0-.11,1v6.55h-2.2Z"/><path class="cls-3" d="M196.64,274.94a5.78,5.78,0,0,0,3,.89c1.62,0,2.38-.81,2.38-1.83s-.63-1.65-2.28-2.26c-2.21-.78-3.25-2-3.25-3.47,0-2,1.6-3.61,4.24-3.61a6.19,6.19,0,0,1,3,.76l-.56,1.63a4.72,4.72,0,0,0-2.51-.71c-1.32,0-2.06.76-2.06,1.67s.74,1.47,2.34,2.08c2.13.82,3.22,1.88,3.22,3.71,0,2.16-1.67,3.68-4.59,3.68a7,7,0,0,1-3.46-.84Z"/><path class="cls-3" d="M74.75,332.62V315.5h2.42l5.48,8.66a48.45,48.45,0,0,1,3.07,5.56l0,0c-.2-2.29-.25-4.37-.25-7V315.5H87.6v17.12H85.37l-5.44-8.69a56.09,56.09,0,0,1-3.2-5.71l-.07,0c.13,2.15.18,4.21.18,7.05v7.32Z"/><path class="cls-3" d="M92.63,326.88c.05,3,2,4.26,4.21,4.26a8.14,8.14,0,0,0,3.4-.63l.38,1.6a10,10,0,0,1-4.08.76c-3.79,0-6.05-2.49-6.05-6.19s2.19-6.63,5.77-6.63c4,0,5.08,3.53,5.08,5.79a7.57,7.57,0,0,1-.08,1Zm6.55-1.6c0-1.42-.59-3.63-3.1-3.63-2.26,0-3.25,2.08-3.43,3.63Z"/><path class="cls-3" d="M106.79,316.8v3.53H110V322h-3.2v6.63c0,1.52.44,2.38,1.68,2.38a4.76,4.76,0,0,0,1.29-.15l.11,1.68a5.71,5.71,0,0,1-2,.3,3.11,3.11,0,0,1-2.42-.94,4.57,4.57,0,0,1-.86-3.2V322h-1.9v-1.7h1.9v-2.95Z"/><path class="cls-3" d="M113.62,320.33l1.63,6.24c.35,1.37.68,2.64.91,3.91h.08c.28-1.24.68-2.56,1.09-3.88l2-6.27h1.87l1.91,6.14c.46,1.47.81,2.77,1.09,4h.08a35.15,35.15,0,0,1,.94-4l1.75-6.17h2.21l-4,12.29h-2l-1.88-5.87a39.93,39.93,0,0,1-1.1-4h0a35.43,35.43,0,0,1-1.11,4.07l-2,5.84h-2l-3.7-12.29Z"/><path class="cls-3" d="M142.29,326.37c0,4.55-3.15,6.53-6.12,6.53-3.33,0-5.89-2.44-5.89-6.33,0-4.11,2.69-6.52,6.09-6.52S142.29,322.61,142.29,326.37Zm-9.75.13c0,2.69,1.55,4.72,3.73,4.72s3.73-2,3.73-4.77c0-2.09-1-4.73-3.68-4.73S132.54,324.16,132.54,326.5Z"/><path class="cls-3" d="M145.1,324.16c0-1.45,0-2.69-.1-3.83h2l.07,2.41h.11a3.67,3.67,0,0,1,3.4-2.69,2.43,2.43,0,0,1,.63.07v2.11a3.39,3.39,0,0,0-.76-.07,3.14,3.14,0,0,0-3,2.87,6.33,6.33,0,0,0-.1,1v6.55H145.1Z"/><path class="cls-3" d="M155.72,326h.05c.3-.43.73-1,1.09-1.39l3.6-4.24h2.7l-4.75,5.05,5.41,7.24H161.1l-4.24-5.89L155.72,328v4.62h-2.21v-18h2.21Z"/><path class="cls-3" d="M177.6,332.62l-.18-1.55h-.07a4.61,4.61,0,0,1-3.76,1.83,3.51,3.51,0,0,1-3.76-3.53c0-3,2.64-4.6,7.39-4.57v-.26a2.53,2.53,0,0,0-2.79-2.84,6.11,6.11,0,0,0-3.2.91l-.51-1.47a7.65,7.65,0,0,1,4-1.09c3.76,0,4.67,2.56,4.67,5v4.59a17.62,17.62,0,0,0,.2,2.95Zm-.33-6.27c-2.44-.06-5.2.38-5.2,2.76a2,2,0,0,0,2.1,2.14,3.05,3.05,0,0,0,3-2.06,2.22,2.22,0,0,0,.13-.71Z"/><path class="cls-3" d="M183,323.65c0-1.27,0-2.31-.1-3.32h2l.13,2h.05a4.51,4.51,0,0,1,4.06-2.31c1.7,0,4.35,1,4.35,5.23v7.34h-2.24v-7.09c0-2-.74-3.63-2.84-3.63a3.17,3.17,0,0,0-3,2.29,3.26,3.26,0,0,0-.15,1v7.39H183Z"/><path class="cls-3" d="M207.74,314.59v14.85c0,1.09,0,2.34.1,3.18h-2l-.1-2.14h0a4.53,4.53,0,0,1-4.19,2.42c-3,0-5.25-2.52-5.25-6.25,0-4.09,2.51-6.6,5.51-6.6a4.11,4.11,0,0,1,3.7,1.88h.05v-7.34Zm-2.24,10.74a3.76,3.76,0,0,0-.1-.94,3.29,3.29,0,0,0-3.22-2.59c-2.31,0-3.68,2-3.68,4.75,0,2.49,1.21,4.54,3.63,4.54a3.35,3.35,0,0,0,3.27-2.66,3.75,3.75,0,0,0,.1-1Z"/><path class="cls-3" d="M216.52,330.33a5.88,5.88,0,0,0,2.95.89c1.62,0,2.38-.81,2.38-1.83s-.63-1.65-2.28-2.26c-2.21-.78-3.25-2-3.25-3.48,0-2,1.6-3.6,4.24-3.6a6.11,6.11,0,0,1,3,.76l-.56,1.63a4.71,4.71,0,0,0-2.51-.72c-1.32,0-2.06.77-2.06,1.68s.74,1.47,2.34,2.08c2.13.81,3.22,1.88,3.22,3.71,0,2.16-1.67,3.68-4.59,3.68A7,7,0,0,1,216,332Z"/><path class="cls-3" d="M229.57,316.8v3.53h3.2V322h-3.2v6.63c0,1.52.43,2.38,1.68,2.38a4.81,4.81,0,0,0,1.29-.15l.1,1.68a5.62,5.62,0,0,1-2,.3,3.09,3.09,0,0,1-2.41-.94,4.57,4.57,0,0,1-.86-3.2V322h-1.91v-1.7h1.91v-2.95Z"/><path class="cls-3" d="M246.25,326.37c0,4.55-3.15,6.53-6.12,6.53-3.32,0-5.89-2.44-5.89-6.33,0-4.11,2.69-6.52,6.1-6.52S246.25,322.61,246.25,326.37Zm-9.75.13c0,2.69,1.55,4.72,3.73,4.72s3.74-2,3.74-4.77c0-2.09-1-4.73-3.68-4.73S236.5,324.16,236.5,326.5Z"/><path class="cls-3" d="M249.07,324.16c0-1.45,0-2.69-.1-3.83h1.95l.08,2.41h.1a3.68,3.68,0,0,1,3.4-2.69,2.51,2.51,0,0,1,.64.07v2.11a3.45,3.45,0,0,0-.76-.07,3.13,3.13,0,0,0-3,2.87,6.33,6.33,0,0,0-.1,1v6.55h-2.21Z"/><path class="cls-3" d="M264.05,332.62l-.18-1.55h-.08A4.57,4.57,0,0,1,260,332.9a3.51,3.51,0,0,1-3.76-3.53c0-3,2.64-4.6,7.39-4.57v-.26a2.54,2.54,0,0,0-2.8-2.84,6.07,6.07,0,0,0-3.19.91l-.51-1.47a7.62,7.62,0,0,1,4-1.09c3.75,0,4.67,2.56,4.67,5v4.59a17.62,17.62,0,0,0,.2,2.95Zm-.33-6.27c-2.44-.06-5.21.38-5.21,2.76a2,2,0,0,0,2.11,2.14,3.05,3.05,0,0,0,3-2.06,2.22,2.22,0,0,0,.13-.71Z"/><path class="cls-3" d="M280.07,320.33c-.05.89-.1,1.88-.1,3.37v7.14c0,2.82-.56,4.54-1.75,5.61a6.51,6.51,0,0,1-4.47,1.47,7.92,7.92,0,0,1-4.09-1l.56-1.7a7,7,0,0,0,3.6,1c2.29,0,4-1.19,4-4.29v-1.37h0a4.38,4.38,0,0,1-3.91,2.06c-3,0-5.23-2.59-5.23-6,0-4.16,2.72-6.52,5.54-6.52a4.09,4.09,0,0,1,3.83,2.13H278l.1-1.85Zm-2.31,4.85a3.28,3.28,0,0,0-.13-1,3.22,3.22,0,0,0-3.12-2.36c-2.13,0-3.66,1.8-3.66,4.65,0,2.41,1.22,4.41,3.63,4.41a3.27,3.27,0,0,0,3.1-2.28,3.78,3.78,0,0,0,.18-1.19Z"/><path class="cls-3" d="M284.92,326.88c.05,3,2,4.26,4.21,4.26a8.14,8.14,0,0,0,3.4-.63l.38,1.6a10,10,0,0,1-4.08.76c-3.79,0-6.05-2.49-6.05-6.19s2.19-6.63,5.77-6.63c4,0,5.08,3.53,5.08,5.79a7.57,7.57,0,0,1-.08,1Zm6.55-1.6c0-1.42-.59-3.63-3.1-3.63-2.26,0-3.25,2.08-3.43,3.63Z"/><path class="cls-3" d="M301.47,330.33a5.87,5.87,0,0,0,2.94.89c1.63,0,2.39-.81,2.39-1.83s-.63-1.65-2.28-2.26c-2.21-.78-3.25-2-3.25-3.48,0-2,1.6-3.6,4.24-3.6a6.11,6.11,0,0,1,3,.76l-.56,1.63a4.71,4.71,0,0,0-2.51-.72c-1.32,0-2.06.77-2.06,1.68s.74,1.47,2.34,2.08c2.13.81,3.22,1.88,3.22,3.71,0,2.16-1.68,3.68-4.6,3.68a7,7,0,0,1-3.45-.84Z"/><path class="cls-3" d="M312.64,320.33l2.69,7.26c.28.81.59,1.78.79,2.51h.05c.23-.73.48-1.67.79-2.56l2.43-7.21h2.37l-3.36,8.76c-1.6,4.21-2.69,6.37-4.21,7.69a6,6,0,0,1-2.74,1.45l-.56-1.88a5.88,5.88,0,0,0,1.95-1.09,6.8,6.8,0,0,0,1.88-2.49,1.71,1.71,0,0,0,.18-.53,2,2,0,0,0-.15-.59l-4.55-11.32Z"/><path class="cls-3" d="M323.33,330.33a5.87,5.87,0,0,0,2.94.89c1.63,0,2.39-.81,2.39-1.83s-.63-1.65-2.28-2.26c-2.21-.78-3.25-2-3.25-3.48,0-2,1.6-3.6,4.24-3.6a6.11,6.11,0,0,1,3,.76l-.56,1.63a4.71,4.71,0,0,0-2.51-.72c-1.32,0-2.06.77-2.06,1.68s.74,1.47,2.33,2.08c2.14.81,3.23,1.88,3.23,3.71,0,2.16-1.68,3.68-4.6,3.68a7,7,0,0,1-3.45-.84Z"/><path class="cls-3" d="M336.38,316.8v3.53h3.2V322h-3.2v6.63c0,1.52.43,2.38,1.67,2.38a4.84,4.84,0,0,0,1.3-.15l.1,1.68a5.67,5.67,0,0,1-2,.3,3.09,3.09,0,0,1-2.41-.94,4.53,4.53,0,0,1-.86-3.2V322h-1.91v-1.7h1.91v-2.95Z"/><path class="cls-3" d="M343.18,326.88a3.93,3.93,0,0,0,4.22,4.26,8.17,8.17,0,0,0,3.4-.63l.38,1.6a10.06,10.06,0,0,1-4.09.76c-3.78,0-6-2.49-6-6.19s2.18-6.63,5.76-6.63c4,0,5.08,3.53,5.08,5.79a10.18,10.18,0,0,1-.07,1Zm6.55-1.6c0-1.42-.58-3.63-3.09-3.63-2.26,0-3.25,2.08-3.43,3.63Z"/><path class="cls-3" d="M354.66,323.65c0-1.27,0-2.31-.1-3.32h1.95l.1,2h.08a4.23,4.23,0,0,1,3.86-2.26,3.64,3.64,0,0,1,3.48,2.46h.05a5.08,5.08,0,0,1,1.37-1.6,4.2,4.2,0,0,1,2.72-.86c1.62,0,4,1.06,4,5.33v7.24H370v-7c0-2.36-.86-3.78-2.67-3.78a2.89,2.89,0,0,0-2.64,2,3.72,3.72,0,0,0-.17,1.12v7.59h-2.19v-7.37c0-1.95-.86-3.37-2.56-3.37a3,3,0,0,0-2.77,2.23,3,3,0,0,0-.18,1.09v7.42h-2.18Z"/><path class="cls-3" d="M375.53,330.33a5.87,5.87,0,0,0,2.94.89c1.63,0,2.39-.81,2.39-1.83s-.64-1.65-2.29-2.26c-2.2-.78-3.25-2-3.25-3.48,0-2,1.6-3.6,4.24-3.6a6.13,6.13,0,0,1,3,.76l-.56,1.63a4.75,4.75,0,0,0-2.52-.72c-1.32,0-2.05.77-2.05,1.68s.73,1.47,2.33,2.08c2.14.81,3.23,1.88,3.23,3.71,0,2.16-1.68,3.68-4.6,3.68A7,7,0,0,1,375,332Z"/><path class="cls-3" d="M74.45,385.31a7.83,7.83,0,0,0,4,1.12c2.26,0,3.58-1.19,3.58-2.92s-.91-2.51-3.22-3.4c-2.8-1-4.52-2.44-4.52-4.85,0-2.67,2.21-4.65,5.53-4.65a7.78,7.78,0,0,1,3.78.84l-.6,1.8a6.91,6.91,0,0,0-3.25-.81c-2.34,0-3.23,1.4-3.23,2.57,0,1.6,1,2.38,3.4,3.3,2.9,1.11,4.37,2.51,4.37,5s-2,4.93-6,4.93a8.84,8.84,0,0,1-4.37-1.09Z"/><path class="cls-3" d="M98.47,381.76c0,4.54-3.15,6.52-6.12,6.52-3.33,0-5.89-2.43-5.89-6.32,0-4.11,2.69-6.52,6.09-6.52S98.47,378,98.47,381.76Zm-9.75.13c0,2.69,1.55,4.72,3.73,4.72s3.73-2,3.73-4.77c0-2.09-1-4.73-3.68-4.73S88.72,379.55,88.72,381.89Z"/><path class="cls-3" d="M101.51,388V377.42H99.79v-1.7h1.72v-.59a5.77,5.77,0,0,1,1.43-4.29,4.26,4.26,0,0,1,3-1.14,5.42,5.42,0,0,1,1.91.35l-.31,1.73a3.38,3.38,0,0,0-1.42-.28c-1.9,0-2.39,1.68-2.39,3.56v.66h3v1.7h-3V388Z"/><path class="cls-3" d="M111.67,372.19v3.53h3.2v1.7h-3.2V384c0,1.53.43,2.39,1.67,2.39a4.84,4.84,0,0,0,1.3-.15l.1,1.67a5.41,5.41,0,0,1-2,.31,3.09,3.09,0,0,1-2.41-.94,4.53,4.53,0,0,1-.86-3.2v-6.7h-1.91v-1.7h1.91v-3Z"/><path class="cls-3" d="M118.5,375.72l1.62,6.24c.36,1.37.69,2.64.92,3.91h.07c.28-1.24.69-2.56,1.09-3.88l2-6.27h1.88l1.9,6.14c.46,1.47.82,2.77,1.09,4h.08a35.15,35.15,0,0,1,.94-4l1.75-6.17h2.21l-4,12.29h-2l-1.88-5.87a39.91,39.91,0,0,1-1.09-4h0a37.57,37.57,0,0,1-1.12,4.07L122,388h-2l-3.71-12.29Z"/><path class="cls-3" d="M143,388l-.18-1.55h-.08a4.56,4.56,0,0,1-3.75,1.82,3.5,3.5,0,0,1-3.76-3.52c0-3,2.64-4.6,7.39-4.57v-.26a2.54,2.54,0,0,0-2.8-2.84,6.13,6.13,0,0,0-3.2.91l-.5-1.47a7.58,7.58,0,0,1,4-1.09c3.76,0,4.68,2.56,4.68,5v4.6A17.62,17.62,0,0,0,145,388Zm-.33-6.28c-2.44-.05-5.21.38-5.21,2.77a2,2,0,0,0,2.11,2.13,3.06,3.06,0,0,0,3-2.05,2.22,2.22,0,0,0,.13-.71Z"/><path class="cls-3" d="M148.43,379.55c0-1.45,0-2.69-.1-3.83h1.95l.08,2.41h.1a3.69,3.69,0,0,1,3.4-2.69,2.51,2.51,0,0,1,.64.07v2.11a3.41,3.41,0,0,0-.76-.08,3.14,3.14,0,0,0-3,2.87,6.44,6.44,0,0,0-.1,1V388h-2.21Z"/><path class="cls-3" d="M157.72,382.27a3.93,3.93,0,0,0,4.22,4.26,8.17,8.17,0,0,0,3.4-.63l.38,1.6a10.06,10.06,0,0,1-4.09.76c-3.78,0-6-2.49-6-6.2s2.18-6.62,5.76-6.62c4,0,5.08,3.53,5.08,5.79a7.57,7.57,0,0,1-.08,1Zm6.55-1.6c0-1.42-.58-3.63-3.1-3.63-2.26,0-3.25,2.08-3.42,3.63Z"/><path class="cls-3" d="M184.86,384.65c0,1.27,0,2.39.1,3.36h-2l-.12-2h-.05a4.63,4.63,0,0,1-4.07,2.28c-1.93,0-4.24-1.06-4.24-5.38v-7.18h2.24v6.8c0,2.34.71,3.91,2.74,3.91a3.16,3.16,0,0,0,3.15-3.17v-7.54h2.23Z"/><path class="cls-3" d="M188.57,379.73c0-1.58,0-2.85-.1-4h2l.1,2.1h.05a4.86,4.86,0,0,1,4.37-2.38c3,0,5.21,2.51,5.21,6.24,0,4.42-2.69,6.6-5.59,6.6a4.31,4.31,0,0,1-3.78-1.92h-.05V393h-2.21Zm2.21,3.27a5.18,5.18,0,0,0,.1.92,3.44,3.44,0,0,0,3.35,2.61c2.36,0,3.73-1.93,3.73-4.75,0-2.46-1.29-4.57-3.65-4.57a3.57,3.57,0,0,0-3.38,2.77,3.47,3.47,0,0,0-.15.92Z"/><path class="cls-3" d="M213.63,370v14.85c0,1.09,0,2.34.1,3.18h-2l-.1-2.14h-.05a4.55,4.55,0,0,1-4.19,2.41c-3,0-5.26-2.51-5.26-6.24,0-4.09,2.52-6.6,5.51-6.6a4.12,4.12,0,0,1,3.71,1.88h0V370Zm-2.24,10.74a3.76,3.76,0,0,0-.1-.94,3.29,3.29,0,0,0-3.22-2.59c-2.31,0-3.69,2-3.69,4.75,0,2.49,1.22,4.54,3.64,4.54a3.36,3.36,0,0,0,3.27-2.66,3.75,3.75,0,0,0,.1-1Z"/><path class="cls-3" d="M224.14,388l-.18-1.55h-.08a4.56,4.56,0,0,1-3.75,1.82,3.5,3.5,0,0,1-3.76-3.52c0-3,2.64-4.6,7.39-4.57v-.26a2.54,2.54,0,0,0-2.8-2.84,6.13,6.13,0,0,0-3.2.91l-.5-1.47a7.61,7.61,0,0,1,4-1.09c3.76,0,4.68,2.56,4.68,5v4.6a17.62,17.62,0,0,0,.2,2.95Zm-.33-6.28c-2.44-.05-5.21.38-5.21,2.77a2,2,0,0,0,2.11,2.13,3,3,0,0,0,3-2.05,2.22,2.22,0,0,0,.13-.71Z"/><path class="cls-3" d="M232.16,372.19v3.53h3.2v1.7h-3.2V384c0,1.53.43,2.39,1.68,2.39a4.81,4.81,0,0,0,1.29-.15l.1,1.67a5.37,5.37,0,0,1-2,.31,3.09,3.09,0,0,1-2.41-.94,4.57,4.57,0,0,1-.86-3.2v-6.7h-1.91v-1.7H230v-3Z"/><path class="cls-3" d="M239,382.27c.06,3,2,4.26,4.22,4.26a8.17,8.17,0,0,0,3.4-.63l.38,1.6a10,10,0,0,1-4.09.76c-3.78,0-6-2.49-6-6.2s2.19-6.62,5.77-6.62c4,0,5.07,3.53,5.07,5.79a10.18,10.18,0,0,1-.07,1Zm6.56-1.6c0-1.42-.59-3.63-3.1-3.63-2.26,0-3.25,2.08-3.43,3.63Z"/><path class="cls-3" d="M250.14,385.72a5.84,5.84,0,0,0,2.94.89c1.63,0,2.39-.81,2.39-1.83s-.64-1.65-2.29-2.26c-2.21-.79-3.25-2-3.25-3.48,0-2,1.6-3.6,4.24-3.6a6.05,6.05,0,0,1,3,.76l-.55,1.62a4.89,4.89,0,0,0-2.52-.71c-1.32,0-2.05.76-2.05,1.68s.73,1.47,2.33,2.08c2.13.81,3.23,1.88,3.23,3.71,0,2.16-1.68,3.68-4.6,3.68a7,7,0,0,1-3.45-.84Z"/><circle class="cls-4" cx="51.4" cy="215" r="4.5"/><circle class="cls-4" cx="51.4" cy="266.62" r="4.5"/><circle class="cls-4" cx="51.4" cy="323.62" r="4.5"/><circle class="cls-4" cx="51.4" cy="381.93" r="4.5"/><path class="cls-3" d="M43.74,113.89H50.6v-1.06c0-3.5,0-7,.14-10.49a31.62,31.62,0,0,1,5.5-16.19c.14-.22.29-.44.48-.71a5.89,5.89,0,0,1-1.53-4.89A5.63,5.63,0,0,1,57,77.15a5.76,5.76,0,0,1,7.72,0c2.71-1.28,5.29-2.62,8-3.72a27.88,27.88,0,0,1,9-1.87c.43,0,.71-.06.71-.61,0-2.91,0-5.83,0-8.86h-8v-3H93.13V62H85.3v9.39c1.51.21,3,.37,4.54.63a33.16,33.16,0,0,1,26.57,26.77c.11.62.34.8,1,.79,1.51,0,3,0,4.75,0L115.52,111l-6.58-11.4h4.83c-.45-1.66-.73-3.21-1.28-4.66C108.14,83.32,99.85,76.4,87.58,74.57a28.94,28.94,0,0,0-20.36,4.66,1.29,1.29,0,0,0-.71,1.45A5.65,5.65,0,0,1,59.77,87a.81.81,0,0,0-1,.44,27.23,27.23,0,0,0-5,12.92c-.42,4.43-.34,8.91-.48,13.47h70.41v2.82c-.29,0-.57,0-.85,0H44.44l-.7,0ZM60.86,84.3A2.89,2.89,0,1,0,58,81.41,2.92,2.92,0,0,0,60.86,84.3Z"/><path class="cls-3" d="M73.67,102.29c-1.65.13-1.65.14-2.36-1.39-.21-.47-.37-1-.59-1.45-.54-1.16-.65-2.19.72-2.9.19-.1.29-.46.34-.72s0-.65,0-1a1.87,1.87,0,0,0-1-2.1.87.87,0,0,1-.41-1.23c.45-1.1.91-2.2,1.32-3.32a1.11,1.11,0,0,1,1.43-.74c.45.07,1.05.23,1.35,0a6.34,6.34,0,0,0,1.75-1.79c.23-.36,0-1,0-1.53a.86.86,0,0,1,.55-1.11c1.18-.47,2.37-1,3.54-1.46.48-.21.89-.15,1.1.32.76,1.67,2.28,1.18,3.55,1.21.36,0,.79-.63,1.08-1a1.06,1.06,0,0,1,1.47-.45c1,.46,2.09.89,3.14,1.3.64.25,1,.68.73,1.35-.6,1.73,1,2.27,1.78,3.21.18.22.89,0,1.34,0,.65-.09,1.12,0,1.37.71.42,1.15.88,2.28,1.35,3.4a.79.79,0,0,1-.38,1.16c-1.53.77-1.06,2.16-1,3.38,0,.29.48.64.81.84a1.17,1.17,0,0,1,.5,1.68c-.46,1.07-.92,2.14-1.35,3.21a.85.85,0,0,1-1.1.56,2.66,2.66,0,0,0-1.61,0,7.74,7.74,0,0,0-1.73,1.7c-.14.17,0,.56,0,.84.15,1.84.37,1.41-1.22,2.22a18.75,18.75,0,0,1-2.93,1.1.94.94,0,0,1-.85-.25c-.79-1.63-2.27-1.36-3.61-1.28-.39,0-.83.59-1.1,1a1.08,1.08,0,0,1-1.53.46c-1.09-.47-2.19-.94-3.29-1.39a.85.85,0,0,1-.57-1.09,2.68,2.68,0,0,0,0-1.61,7.74,7.74,0,0,0-1.7-1.73C74.33,102.24,74,102.32,73.67,102.29ZM75,99.35c.59-.21,1.05.08,1.48.74a5.57,5.57,0,0,0,1.61,1.7,2.14,2.14,0,0,1,1.16,2.65c0,.15.18.47.35.55a.91.91,0,0,0,.66-.13,1.23,1.23,0,0,0,.39-.45,1.39,1.39,0,0,1,1.75-.66,5.42,5.42,0,0,0,2.08.11c1.24-.27,2.27-.27,2.93,1A.62.62,0,0,0,88,105a.87.87,0,0,0,.42-.53,1.85,1.85,0,0,0-.07-.77,1.21,1.21,0,0,1,.6-1.45,6.57,6.57,0,0,0,1.85-1.71,2.15,2.15,0,0,1,2.56-1.18.68.68,0,0,0,.59-.31,1.07,1.07,0,0,0-.16-.74,1.44,1.44,0,0,0-.53-.44,1.18,1.18,0,0,1-.54-1.4A6.69,6.69,0,0,0,92.74,94a2,2,0,0,1,1-2.4.84.84,0,0,0,.18-.79c0-.16-.43-.22-.67-.31-.07,0-.17,0-.25,0a1.49,1.49,0,0,1-1.88-.76,5.78,5.78,0,0,0-1.75-1.8,1.85,1.85,0,0,1-1-2.29.85.85,0,0,0-.32-.74c-.19-.09-.53.13-.79.24-.07,0-.12.12-.17.2a1.59,1.59,0,0,1-2,.76,6.16,6.16,0,0,0-2.6,0,1.65,1.65,0,0,1-2-.79c-.2-.33-.49-.8-.94-.41a1.15,1.15,0,0,0-.27.93,1.66,1.66,0,0,1-.84,2,5.11,5.11,0,0,0-1.58,1.49c-.65,1-1.34,1.62-2.61,1.2a.66.66,0,0,0-.56.33,1.08,1.08,0,0,0,.15.73,1.34,1.34,0,0,0,.52.45c.63.34.65.84.55,1.48a6.13,6.13,0,0,0-.1,2.25,2.07,2.07,0,0,1-1,2.64.7.7,0,0,0-.16.64.92.92,0,0,0,.55.39A2.74,2.74,0,0,0,75,99.35Z"/><path class="cls-3" d="M83.82,87.8A7.21,7.21,0,0,1,91,95a7.23,7.23,0,0,1-14.46-.08A7.22,7.22,0,0,1,83.82,87.8Zm-.17,11.43a4.3,4.3,0,1,0,.31-8.6,4.38,4.38,0,0,0-4.51,4.07A4.32,4.32,0,0,0,83.65,99.23Z"/><path class="cls-3" d="M469.81,88.48c.22-1.47.38-3,.69-4.41A29.11,29.11,0,0,1,481,67c.15-.12.3-.24.44-.37a1.2,1.2,0,0,0,.17-.23L477.11,61,474,63.51l-1.58-1.89,8-6.71L482,56.8l-3,2.56,4.7,5.68a27.79,27.79,0,0,1,10.38-4c1.07-.17,1.31-.57,1.28-1.58-.07-2.69,0-5.39,0-8.08V50.29h-5.51V47.9h18.85v2.39h-5.44c0,.38-.07.66-.07.94,0,2.88,0,5.77,0,8.65,0,.77.22,1,1,1.14a28.3,28.3,0,0,1,10.13,3.7l.87.5L520,59.35l-3-2.53,1.57-1.92,8,6.71-1.57,1.9L522,61l-4.65,5.6c11.51,10.29,14.27,22.51,8.38,36.84,1.19-.47,1.45.5,1.78,1.26.52,1.2.95,2.43,1.42,3.65v.39c-1.1.68-2,1.25-2.06,2.93a3.75,3.75,0,0,0,2.06,3.8v.39c-.54,1.32-1.1,2.63-1.62,4-.28.7-.72,1-1.47.83a2.34,2.34,0,0,0-2.92,1.09.67.67,0,0,1-.2.21,2.47,2.47,0,0,0-1.13,3.09,1,1,0,0,1-.67,1.27q-1.87.73-3.72,1.53a.86.86,0,0,1-1.21-.38c-.05-.08-.14-.14-.18-.23a2.14,2.14,0,0,0-2.67-1.21.17.17,0,0,1-.1,0,2.92,2.92,0,0,0-3.49,1.54,1,1,0,0,1-.94.28c-1.32-.47-2.61-1-3.91-1.56-.52-.21-.78-.53-.62-1.11a2.65,2.65,0,0,0-1.25-3.31l-.07-.07a2.3,2.3,0,0,0-2.89-1.15,1.1,1.1,0,0,1-1.49-.78q-.68-1.8-1.41-3.57a.88.88,0,0,1,.39-1.28,2.52,2.52,0,0,0,1.36-3,.61.61,0,0,1,0-.19,2.19,2.19,0,0,0-1.25-2.64,1.05,1.05,0,0,1-.48-1.52c.53-1.23,1-2.47,1.55-3.71a.78.78,0,0,1,1.05-.54c.13,0,.26,0,.38,0,1,.22,2,.2,2.54-.9a.44.44,0,0,1,.14-.13,3.08,3.08,0,0,0,1.46-3.65,1,1,0,0,1,.47-.87c1.3-.61,2.64-1.12,4-1.68a.78.78,0,0,1,1.12.38c.72,1.37,1.87,1.58,3.34,1.58a2.91,2.91,0,0,0,2.9-1.46,1,1,0,0,1,1.45-.44c1.23.53,2.46,1.06,3.7,1.56a.84.84,0,0,1,.56,1.06,2.58,2.58,0,0,1,0,.29c-.56,1.61.37,2.47,1.59,3.2,5.69-10,4-25.82-8.61-34.54a27,27,0,0,0-37.43,7c-8.51,12.52-4.69,28.16,4.86,35.71l3.22-2.91,3.14,10.76-11.06-2.71,3-3.19a30.08,30.08,0,0,1-6.42-7.7A28.87,28.87,0,0,1,470,92a3.6,3.6,0,0,0-.15-.63ZM526,107.8c-.57-1.94-.57-1.94-2.34-1.73h-.1c-.57.18-.9-.07-1.27-.53a10.62,10.62,0,0,0-2.29-2.43,2.22,2.22,0,0,1-1.11-2.69c.19-.79-.24-1.05-.86-1.33a.9.9,0,0,0-1.33.42c-.15.24-.4.42-.55.67-.33.55-.73.61-1.36.53a9.56,9.56,0,0,0-3.24-.08,2.31,2.31,0,0,1-2.83-1.22c-.3-.51-.65-.53-1.2-.34-.8.28-1.12.69-.88,1.55a1.84,1.84,0,0,1-.92,2.31,7.18,7.18,0,0,0-2.1,2.08,1.94,1.94,0,0,1-2.36,1,1.06,1.06,0,0,0-1.47.77c-.25.66-.19,1.09.41,1.44a2,2,0,0,1,1,2.62,4.28,4.28,0,0,0,0,2.19,2.16,2.16,0,0,1-1.1,2.78c-.54.3-.56.7-.36,1.29.27.78.65,1.07,1.47.86a1.94,1.94,0,0,1,2.39,1,6.23,6.23,0,0,0,2,2,2.06,2.06,0,0,1,1,2.56c-.14.59-.08,1,.62,1.26s1.13.5,1.54-.29c.15-.27.44-.47.61-.74a1.11,1.11,0,0,1,1.29-.49,9.19,9.19,0,0,0,3,.14c1.39-.28,2.42-.13,3.1,1.2.33.66.82.42,1.31.22s1-.37.77-1.09c-.09-.33,0-.71-.09-1a1.25,1.25,0,0,1,.6-1.35,11.64,11.64,0,0,0,2.47-2.38,2.08,2.08,0,0,1,2.48-1c.74.18,1.08-.08,1.36-.77s.23-1.07-.39-1.43a2,2,0,0,1-1.09-2.5,3.41,3.41,0,0,0,.09-1.62C524,110,524.08,108.48,526,107.8ZM497.94,50.4V60.55h2.76V50.4Z"/><path class="cls-3" d="M482.12,80.84l1.24-2.07c.32.17.6.31.86.47,3.52,2.11,7,4.21,10.53,6.34a1,1,0,0,0,1.48-.08,4.93,4.93,0,0,1,8,4.37,4.94,4.94,0,0,1-9.85-.81,1.09,1.09,0,0,0-.62-1.21c-3.61-2.14-7.19-4.31-10.79-6.48C482.69,81.21,482.43,81,482.12,80.84Zm17.13,6a2.52,2.52,0,0,0-2.47,2.54,2.51,2.51,0,0,0,5-.07A2.5,2.5,0,0,0,499.25,86.88Z"/><path class="cls-3" d="M512.74,120.23a8.26,8.26,0,1,1,8.38-8.24A8.3,8.3,0,0,1,512.74,120.23Zm0-2.47a5.85,5.85,0,0,0,5.9-5.82A5.85,5.85,0,0,0,507,112,5.82,5.82,0,0,0,512.74,117.76Z"/><path class="cls-3" d="M925.87,68.07c0,3,0,6,0,8.92a1.87,1.87,0,0,0,.43,1.18A30.11,30.11,0,1,1,876,104.84c-1.63-10.24,1.48-19.11,8.83-26.47a2.45,2.45,0,0,0,.61-1.51c0-5.39,0-10.79,0-16.19a20.21,20.21,0,0,1,15.83-20c11.41-2.66,23.1,5.39,24.39,17a94.15,94.15,0,0,1,.06,10.36Zm3.45,18.71a27.22,27.22,0,1,0-25.75,40.51,26.1,26.1,0,0,0,17.72-4.87,26.59,26.59,0,0,0,8.11-9c-7.42,0-14.65,0-21.88,0-.7,0-.74.45-.93.87a5.69,5.69,0,0,1-6.4,3.28,5.69,5.69,0,1,1,6.33-8,1.34,1.34,0,0,0,1.51,1c7.06,0,14.12,0,21.18,0,2,0,1.53.35,2.21-1.55a24.34,24.34,0,0,0,1.46-7.43c-.38,0-.68-.07-1-.07-3.19,0-6.37,0-9.55,0a1.17,1.17,0,0,0-1.29.86,5.68,5.68,0,1,1,0-4.5,1.16,1.16,0,0,0,1.29.83c3.19,0,6.37,0,9.55,0,.31,0,.61,0,.9-.05a23.08,23.08,0,0,0-2.05-9H896.85c-.16.38-.29.74-.46,1.08a5.69,5.69,0,1,1-6.18-8.12,5.65,5.65,0,0,1,6.27,3.33,1.22,1.22,0,0,0,1.37.88q15.21,0,30.41,0ZM923,75.34c0-.28.07-.48.07-.68,0-4.81,0-9.61,0-14.42a16.91,16.91,0,0,0-3-9.54,17.36,17.36,0,0,0-31.74,9.09c-.13,5,0,10.09,0,15.14a3.24,3.24,0,0,0,.06.4C899.88,68.17,911.37,68.15,923,75.34ZM904.26,112a2.93,2.93,0,0,0-2.87-2.84,3,3,0,0,0-2.89,2.94,2.88,2.88,0,0,0,5.76-.1Zm-10.1-23.78a2.94,2.94,0,0,0-2.91-2.9,2.9,2.9,0,0,0-2.81,2.87A2.84,2.84,0,0,0,891.23,91,2.89,2.89,0,0,0,894.16,88.19Zm21.72,9.08a2.82,2.82,0,0,0-2.87,2.88,2.87,2.87,0,1,0,5.74-.09A2.84,2.84,0,0,0,915.88,97.27Z"/></svg>