<svg id="Layer_1" data-name="Layer 1" xmlns="http://www.w3.org/2000/svg" width="100" height="100" viewBox="0 0 100 100"><title>user-experience</title><path d="M100,73.68H81.58v3.75l-9.9-5.75,9.82-5.63v3.59H95.77V22.76H48.17a15.81,15.81,0,0,1-7.72,11.48,15.39,15.39,0,0,1-9.22,2.07A15.83,15.83,0,0,1,16.94,22.75H15v21.7a36.79,36.79,0,0,1,3.61-1A32.82,32.82,0,0,1,24,42.75c5.94-.09,11.88-.06,17.82,0,11.35.05,22,8.4,24.46,19.17a17.92,17.92,0,0,1,.44,3.86c.05,7.8,0,15.61,0,23.41a10.58,10.58,0,0,1-.09,1.06H34.24v-4H62.75V84.67c0-5.55-.07-11.1,0-16.65.14-8.77-4.24-14.73-11.6-18.82A20.34,20.34,0,0,0,41,46.75c-6.33,0-12.68-.2-19,.18A19.73,19.73,0,0,0,4.12,64.14,51.91,51.91,0,0,0,4,69.86C4,75.23,4,80.6,4,86.09H12.5a6.77,6.77,0,0,1,5.29-4.42,6.69,6.69,0,0,1,3.48,12.86c-.39.14-.77.32-1.16.49H17.77a7.62,7.62,0,0,1-5.18-4.33c-.11-.25-.72-.38-1.09-.38-3.34,0-6.68,0-10,0H0V88.66c0-7.33.11-14.66,0-22-.15-8.2,3.41-14.41,9.81-19.19a2.29,2.29,0,0,0,1.08-2.13c0-8.37,0-16.74,0-25.11v-1.6c1.77,0,3.33-.05,4.88,0,.89,0,1.28-.2,1.49-1.13A15.34,15.34,0,0,1,27.44,5.86c1-.38,2-.59,3.08-.88h4.17c.35.12.7.25,1.06.34,6.39,1.57,10.48,5.53,12.07,11.9.3,1.23.76,1.45,1.88,1.44q24.26,0,48.5,0c.6,0,1.2.08,1.8.12ZM32.5,32.31A11.64,11.64,0,1,0,32.55,9a11.64,11.64,0,0,0,0,23.28ZM18.85,90.89a2.61,2.61,0,0,0,2.68-2.58,2.66,2.66,0,0,0-2.6-2.69,2.74,2.74,0,0,0-2.71,2.61A2.67,2.67,0,0,0,18.85,90.89Z"/></svg>