<svg id="Layer_1" data-name="Layer 1" xmlns="http://www.w3.org/2000/svg" width="100" height="100" viewBox="0 0 100 100"><title>latency</title><path d="M76.48,71.49V97.77c0,1.81-.41,2.23-2.24,2.23H25.82c-1.9,0-2.3-.41-2.3-2.3V45.16c0-2,.34-2.38,2.43-2.38H74.24c1.85,0,2.24.38,2.24,2.21ZM73.25,59.55H26.76V69.68H73.25Zm0,13.5H26.76V83.16H73.27Zm-46.54-17H73.27v-10H26.73Zm0,40.58H73.27v-10H26.73Z"/><path d="M76.16,15.11,74.05,17.4A35.61,35.61,0,0,0,56.27,8.48c-3.94,5.76-9.3,5.76-12.33-.05a35.45,35.45,0,0,0-18,8.89l-2.13-2.25c.24-.26.42-.49.63-.68A38,38,0,0,1,42.56,5.45a1.76,1.76,0,0,0,1.57-1.33,6.13,6.13,0,0,1,6-4.12A6.22,6.22,0,0,1,56.1,4.3a1.46,1.46,0,0,0,1.29,1.17C64.39,6.8,71.9,10.67,76.16,15.11Zm-26.08-12a3.22,3.22,0,0,0,0,6.43,3.27,3.27,0,0,0,3.24-3.21A3.29,3.29,0,0,0,50.08,3.14Z"/><path d="M34.78,27l-2-2.18c8.35-8.49,24.25-9.65,34.35,0l-2.06,2.26A22.52,22.52,0,0,0,34.78,27Z"/><path d="M57.57,35.14l-2,2.19c-3.73-2.86-7.43-2.86-11.18,0l-2-2.18C45.65,31,54,31,57.57,35.14Z"/><path d="M35,60a4.45,4.45,0,0,1,4.55,4.6A4.54,4.54,0,0,1,35,69.25a4.64,4.64,0,0,1-4.66-4.58A4.57,4.57,0,0,1,35,60Zm-.17,6a1.42,1.42,0,0,0,1.54-1.34,1.33,1.33,0,0,0-1.23-1.5,1.42,1.42,0,0,0-1.62,1.25A1.49,1.49,0,0,0,34.87,66.06Z"/><path d="M39.59,78.16A4.55,4.55,0,0,1,35,82.77a4.65,4.65,0,1,1,0-9.29A4.58,4.58,0,0,1,39.59,78.16Zm-3.17,0A1.45,1.45,0,0,0,35,76.68a1.5,1.5,0,0,0-1.42,1.5,1.43,1.43,0,0,0,2.86,0Z"/><path d="M39.59,51A4.51,4.51,0,0,1,35,55.72a4.6,4.6,0,0,1-4.61-4.61A4.65,4.65,0,0,1,35,46.47,4.55,4.55,0,0,1,39.59,51Zm-3.17.07a1.43,1.43,0,1,0-2.86,0,1.43,1.43,0,0,0,2.86,0Z"/><path d="M39.59,91.62a4.53,4.53,0,0,1-4.54,4.65A4.63,4.63,0,1,1,35,87,4.52,4.52,0,0,1,39.59,91.62Zm-3.17.07a1.43,1.43,0,1,0-2.86,0,1.44,1.44,0,0,0,1.54,1.37A1.35,1.35,0,0,0,36.42,91.69Z"/></svg>