<svg id="Layer_1" data-name="Layer 1" xmlns="http://www.w3.org/2000/svg" width="100" height="100" viewBox="0 0 100 100"><title>learning</title><path d="M93.22,59.86C92.63,62,92,64,91.46,66.13c-1.21,4.57-2.39,9.14-3.58,13.71,0,.19,0,.38-.1.69l5.13,1.36-9.62,9.92L79.51,78.52l5.28,1.31c1.57-6,3.12-12,4.73-18.15-1.62-.33-3.19-.71-4.78-1-7.72-1.26-15.41-1.32-23,.82a32.23,32.23,0,0,0-9.54,4.36,1.88,1.88,0,0,0-.73,1.28c0,9.74,0,19.47,0,29.21,0,.15,0,.31.05.6h30v3H17.16c-1.28-5-2.55-10.06-3.85-15.09q-3.2-12.3-6.4-24.6a8.69,8.69,0,0,1-.13-.87c3.07-.65,6.1-1.34,9.15-1.91,1.5-.28,3-.39,4.54-.52a1,1,0,0,0,1.12-.91,21.24,21.24,0,0,1,3.6-7.7,1.64,1.64,0,0,0,.16-1.32,6.07,6.07,0,0,1,9.84-6.66,1.87,1.87,0,0,0,1.32.31c2-.19,4-.65,6-.67,5.82-.07,11.66-.18,17.47.11A19.88,19.88,0,0,1,78.49,56c.09.39.53,1,.85,1a67.56,67.56,0,0,1,13.88,2.67ZM10.4,61.7c.08.33.12.51.16.7q4.38,16.89,8.74,33.79c.22.85.73.84,1.38.84H47.21c.37,0,.74,0,1.1-.07a3.27,3.27,0,0,0,.08-.44c0-9.82,0-19.64,0-29.46a1.65,1.65,0,0,0-.7-1.17,37.93,37.93,0,0,0-4-2.26c-6.39-3-13.2-4-20.2-3.75A61.51,61.51,0,0,0,10.4,61.7Zm13.8-4.89h1.43c8.5,0,16.51,1.83,23.7,6.54.63.41,1,.13,1.45-.17a38.94,38.94,0,0,1,16.63-5.9c2.67-.33,5.36-.43,8.12-.64-.1-.39-.19-.84-.32-1.29C73.05,48,66.2,43,58.12,43c-5.43,0-10.87,0-16.3,0a43.56,43.56,0,0,0-4.88.59c.21,2.64-.51,4.7-2.58,6.12S30,51,27.57,49.91ZM31,41.72a3,3,0,0,0-.07,6.09A3,3,0,1,0,31,41.72Z"/><path d="M52.37,0l2.11.53a18.72,18.72,0,0,1-6.66,36.75c-9-1-16.31-8.73-16.57-17.45C31,10,37.24,2,46.71.25A6.28,6.28,0,0,0,47.44,0ZM65.59,18.79A15.7,15.7,0,0,0,50.28,3c-8.62-.14-15.88,6.68-16,15a15.67,15.67,0,1,0,31.33.74Z"/></svg>