<svg id="Layer_1" data-name="Layer 1" xmlns="http://www.w3.org/2000/svg" viewBox="0 0 1238 485"><defs><style>.cls-1{fill:#fcddd6;}.cls-2,.cls-4,.cls-6{fill:none;}.cls-2{stroke:#fbc2ba;}.cls-2,.cls-6{stroke-miterlimit:10;stroke-width:2px;}.cls-3{fill:#4c0519;}.cls-4{stroke:#4c0519;stroke-miterlimit:10;stroke-width:3px;}.cls-5{fill:#fbc2ba;}.cls-6{stroke:#f16c51;}</style></defs><title>legacy-modernization</title><polygon class="cls-1" points="414.89 0.04 414.89 485 822.86 485 822.86 0.14 414.89 0.04"/><line class="cls-2" x1="433.99" y1="171.03" x2="803.76" y2="172.16"/><path class="cls-3" d="M562.54,61.62h-6.49V58.13h17.22v3.49h-6.56V81h-4.17Z"/><path class="cls-3" d="M574.09,69.78c0-2.24,0-3.83-.14-5.32h3.63l.13,3.15h.14a4.66,4.66,0,0,1,5.48-3.42v3.93a5.62,5.62,0,0,0-1.22-.14,3.67,3.67,0,0,0-3.72,3.15,6.88,6.88,0,0,0-.14,1.29V81h-4.16Z"/><path class="cls-3" d="M595.11,81l-.27-1.83h-.1a6.15,6.15,0,0,1-4.88,2.2,4.9,4.9,0,0,1-5.18-4.91c0-4.16,3.69-6.26,9.79-6.23v-.27c0-1.08-.44-2.87-3.35-2.87a8.75,8.75,0,0,0-4.44,1.21l-.81-2.7a11.81,11.81,0,0,1,6-1.46c5.28,0,6.8,3.35,6.8,6.94v6a26.41,26.41,0,0,0,.24,4Zm-.54-8.06c-3-.07-5.76.58-5.76,3.08a2.19,2.19,0,0,0,2.37,2.37,3.36,3.36,0,0,0,3.25-2.27,3,3,0,0,0,.14-.91Z"/><path class="cls-3" d="M603,69.37c0-1.89,0-3.49-.13-4.91h3.65l.2,2.47h.11a5.94,5.94,0,0,1,5.24-2.84C615,64.09,618,66,618,71.16V81h-4.17V71.64c0-2.37-.88-4.16-3.14-4.16a3.49,3.49,0,0,0-3.25,2.43,4.12,4.12,0,0,0-.17,1.36V81H603Z"/><path class="cls-3" d="M622.19,77.12a9.23,9.23,0,0,0,4.23,1.19c1.83,0,2.64-.75,2.64-1.83s-.68-1.69-2.71-2.4c-3.21-1.12-4.56-2.88-4.53-4.81,0-2.91,2.4-5.18,6.23-5.18a9.66,9.66,0,0,1,4.36,1l-.81,3a7.35,7.35,0,0,0-3.49-1c-1.48,0-2.3.71-2.3,1.72s.78,1.56,2.88,2.31c3,1.08,4.37,2.6,4.4,5,0,3-2.34,5.14-6.7,5.14a10.6,10.6,0,0,1-5-1.15Z"/><path class="cls-3" d="M637,81V67.58h-2.23V64.46H637v-.71a7.72,7.72,0,0,1,2-5.62,6.31,6.31,0,0,1,4.3-1.59A7.92,7.92,0,0,1,646,57l-.3,3.22a4.83,4.83,0,0,0-1.76-.31c-2.07,0-2.78,1.73-2.78,3.76v.84h3.62v3.12h-3.58V81Z"/><path class="cls-3" d="M662.61,72.55c0,6.06-4.27,8.77-8.46,8.77-4.68,0-8.26-3.22-8.26-8.5s3.55-8.73,8.53-8.73S662.61,67.54,662.61,72.55Zm-12.42.17c0,3.18,1.55,5.59,4.09,5.59,2.37,0,4-2.34,4-5.66,0-2.57-1.15-5.51-4-5.51S650.19,70,650.19,72.72Z"/><path class="cls-3" d="M666,69.78c0-2.24,0-3.83-.14-5.32h3.62l.14,3.15h.14a4.66,4.66,0,0,1,5.48-3.42v3.93a5.62,5.62,0,0,0-1.22-.14,3.67,3.67,0,0,0-3.72,3.15,6.88,6.88,0,0,0-.14,1.29V81H666Z"/><path class="cls-3" d="M678.08,69.37c0-1.89,0-3.49-.14-4.91h3.59l.17,2.44h.1a5.69,5.69,0,0,1,5.08-2.81,4.76,4.76,0,0,1,4.57,3h.06a6.31,6.31,0,0,1,2-2.07,5.5,5.5,0,0,1,3.31-1c2.74,0,5.52,1.86,5.52,7.14V81h-4.06V71.84c0-2.74-1-4.36-3-4.36a3.17,3.17,0,0,0-2.91,2.19,6.13,6.13,0,0,0-.2,1.39V81H688.2V71.4c0-2.3-.92-3.92-2.84-3.92a3.24,3.24,0,0,0-3,2.36,3.57,3.57,0,0,0-.24,1.36V81h-4.06Z"/><path class="cls-3" d="M716.06,81l-.27-1.83h-.1a6.16,6.16,0,0,1-4.88,2.2,4.9,4.9,0,0,1-5.18-4.91c0-4.16,3.69-6.26,9.79-6.23v-.27c0-1.08-.45-2.87-3.36-2.87a8.74,8.74,0,0,0-4.43,1.21l-.81-2.7a11.8,11.8,0,0,1,5.95-1.46c5.28,0,6.81,3.35,6.81,6.94v6a28,28,0,0,0,.23,4Zm-.54-8.06c-2.95-.07-5.76.58-5.76,3.08a2.19,2.19,0,0,0,2.37,2.37,3.36,3.36,0,0,0,3.25-2.27,3,3,0,0,0,.14-.91Z"/><path class="cls-3" d="M728.55,59.76v4.7h4v3.12h-4v7.27c0,2,.54,3.05,2.13,3.05a6.34,6.34,0,0,0,1.63-.2l.06,3.18a9.36,9.36,0,0,1-3,.4,4.82,4.82,0,0,1-3.59-1.35c-.88-1-1.28-2.44-1.28-4.6V67.58h-2.37V64.46h2.37V60.74Z"/><path class="cls-3" d="M740.09,59.86a2.34,2.34,0,0,1-4.67,0,2.34,2.34,0,0,1,4.67,0ZM735.66,81V64.46h4.2V81Z"/><path class="cls-3" d="M760,72.55c0,6.06-4.27,8.77-8.47,8.77-4.67,0-8.25-3.22-8.25-8.5s3.55-8.73,8.52-8.73S760,67.54,760,72.55Zm-12.43.17c0,3.18,1.56,5.59,4.1,5.59,2.37,0,4-2.34,4-5.66,0-2.57-1.15-5.51-4-5.51S747.57,70,747.57,72.72Z"/><path class="cls-3" d="M763.42,69.37c0-1.89,0-3.49-.14-4.91h3.66l.2,2.47h.1a6,6,0,0,1,5.25-2.84c2.87,0,5.85,1.86,5.85,7.07V81h-4.16V71.64c0-2.37-.88-4.16-3.15-4.16a3.49,3.49,0,0,0-3.25,2.43,4.41,4.41,0,0,0-.17,1.36V81h-4.19Z"/><path class="cls-3" d="M557.81,111a9.2,9.2,0,0,0,4.23,1.19c1.82,0,2.64-.75,2.64-1.83s-.68-1.69-2.71-2.4c-3.22-1.12-4.57-2.88-4.54-4.81,0-2.91,2.41-5.18,6.23-5.18a9.8,9.8,0,0,1,4.37,1l-.82,3a7.34,7.34,0,0,0-3.48-1c-1.49,0-2.3.71-2.3,1.73s.78,1.55,2.87,2.3c3,1.08,4.37,2.6,4.4,5,0,3-2.33,5.15-6.7,5.15a10.62,10.62,0,0,1-5-1.16Z"/><path class="cls-3" d="M575.07,107.72c.1,3,2.44,4.27,5.08,4.27a12.28,12.28,0,0,0,4.57-.75l.6,2.88a15.39,15.39,0,0,1-5.75,1c-5.35,0-8.49-3.29-8.49-8.33,0-4.57,2.77-8.87,8-8.87s7.11,4.4,7.11,8a9.88,9.88,0,0,1-.14,1.76Zm7.24-2.91c0-1.52-.64-4-3.42-4-2.57,0-3.65,2.33-3.82,4Z"/><path class="cls-3" d="M589.59,103.63c0-2.24,0-3.83-.13-5.32h3.62l.13,3.15h.14a4.92,4.92,0,0,1,4.5-3.52,4.84,4.84,0,0,1,1,.1V102a5.62,5.62,0,0,0-1.22-.14,3.67,3.67,0,0,0-3.72,3.15,6.88,6.88,0,0,0-.14,1.29v8.53h-4.16Z"/><path class="cls-3" d="M605,98.31l2.67,8.36c.47,1.46.81,2.78,1.12,4.13h.1c.3-1.35.68-2.64,1.12-4.13l2.6-8.36H617l-6.29,16.49h-4.1l-6.12-16.49Z"/><path class="cls-3" d="M624,93.71A2.22,2.22,0,0,1,621.65,96a2.19,2.19,0,0,1-2.3-2.24,2.34,2.34,0,0,1,4.67,0Zm-4.44,21.09V98.31h4.2V114.8Z"/><path class="cls-3" d="M640.37,114.29a12,12,0,0,1-4.67.85c-5.15,0-8.5-3.29-8.5-8.4,0-4.94,3.38-8.8,9.17-8.8a10.42,10.42,0,0,1,4,.78l-.75,3.11a7.34,7.34,0,0,0-3.14-.64c-3.18,0-5.08,2.34-5,5.35,0,3.38,2.2,5.31,5,5.31a8.12,8.12,0,0,0,3.28-.64Z"/><path class="cls-3" d="M646.09,107.72c.1,3,2.44,4.27,5.08,4.27a12.23,12.23,0,0,0,4.56-.75l.61,2.88a15.39,15.39,0,0,1-5.75,1c-5.35,0-8.5-3.29-8.5-8.33,0-4.57,2.78-8.87,8.06-8.87s7.11,4.4,7.11,8a9.88,9.88,0,0,1-.14,1.76Zm7.24-2.91c0-1.52-.64-4-3.42-4-2.57,0-3.65,2.33-3.82,4Z"/><path class="cls-3" d="M660.41,111a9.23,9.23,0,0,0,4.23,1.19c1.83,0,2.64-.75,2.64-1.83s-.68-1.69-2.71-2.4c-3.21-1.12-4.57-2.88-4.53-4.81,0-2.91,2.4-5.18,6.22-5.18a9.8,9.8,0,0,1,4.37,1l-.81,3a7.35,7.35,0,0,0-3.49-1c-1.49,0-2.3.71-2.3,1.73s.78,1.55,2.88,2.3c3,1.08,4.36,2.6,4.4,5,0,3-2.34,5.15-6.71,5.15a10.55,10.55,0,0,1-5-1.16Z"/><path class="cls-3" d="M490.67,216.49l-1.78,5.39h-2.28l5.81-17.12h2.67l5.84,17.12h-2.36l-1.83-5.39Zm5.61-1.72-1.67-4.93c-.38-1.12-.64-2.13-.89-3.12h-.05c-.26,1-.54,2.05-.87,3.09l-1.67,5Z"/><path class="cls-3" d="M503.44,205a26.49,26.49,0,0,1,4.24-.33,7,7,0,0,1,4.8,1.43,4.59,4.59,0,0,1,1.5,3.58,5,5,0,0,1-1.32,3.65,7.07,7.07,0,0,1-5.23,1.88,7.48,7.48,0,0,1-1.78-.15v6.86h-2.21Zm2.21,8.26a7.79,7.79,0,0,0,1.83.17c2.66,0,4.29-1.29,4.29-3.65s-1.6-3.35-4-3.35a9.5,9.5,0,0,0-2.08.17Z"/><path class="cls-3" d="M519.16,204.76v17.12H517V204.76Z"/><path class="cls-3" d="M529.57,216.14c0,3,2,4.26,4.21,4.26a8.17,8.17,0,0,0,3.4-.63l.38,1.6a10,10,0,0,1-4.08.76c-3.79,0-6.05-2.49-6.05-6.2s2.19-6.62,5.77-6.62c4,0,5.07,3.53,5.07,5.79a10.18,10.18,0,0,1-.07,1Zm6.55-1.6c0-1.42-.59-3.63-3.1-3.63-2.26,0-3.25,2.08-3.43,3.63Z"/><path class="cls-3" d="M541,212.91c0-1.27,0-2.31-.1-3.32h2l.13,2h.05a4.51,4.51,0,0,1,4.06-2.31c1.7,0,4.34,1,4.34,5.23v7.34h-2.23v-7.09c0-2-.74-3.63-2.85-3.63a3.17,3.17,0,0,0-3,2.29,3.22,3.22,0,0,0-.15,1v7.39H541Z"/><path class="cls-3" d="M561.94,221.88l-.18-1.55h-.08a4.57,4.57,0,0,1-3.76,1.82,3.5,3.5,0,0,1-3.75-3.52c0-3,2.64-4.6,7.39-4.58v-.25a2.54,2.54,0,0,0-2.8-2.84,6.13,6.13,0,0,0-3.2.91l-.5-1.47a7.58,7.58,0,0,1,4-1.09c3.76,0,4.67,2.56,4.67,5v4.6a17.55,17.55,0,0,0,.21,2.95Zm-.33-6.28c-2.44,0-5.21.38-5.21,2.77a2,2,0,0,0,2.11,2.13,3.06,3.06,0,0,0,3-2.05,2.27,2.27,0,0,0,.13-.71Z"/><path class="cls-3" d="M567.27,221.88c.05-.84.1-2.09.1-3.18V203.85h2.21v7.72h0a4.58,4.58,0,0,1,4.19-2.26c3,0,5.2,2.54,5.18,6.27,0,4.39-2.77,6.57-5.51,6.57a4.36,4.36,0,0,1-4.11-2.31h-.08l-.1,2Zm2.31-4.93a4.17,4.17,0,0,0,.1.81,3.45,3.45,0,0,0,3.35,2.62c2.34,0,3.73-1.91,3.73-4.73,0-2.46-1.27-4.57-3.65-4.57a3.56,3.56,0,0,0-3.4,2.75,3.75,3.75,0,0,0-.13.91Z"/><path class="cls-3" d="M581.81,203.85h2.24v18h-2.24Z"/><path class="cls-3" d="M589.05,216.14c.05,3,2,4.26,4.21,4.26a8.22,8.22,0,0,0,3.41-.63l.38,1.6a10.06,10.06,0,0,1-4.09.76c-3.78,0-6-2.49-6-6.2s2.18-6.62,5.76-6.62c4,0,5.08,3.53,5.08,5.79a7.57,7.57,0,0,1-.08,1Zm6.55-1.6c0-1.42-.58-3.63-3.1-3.63-2.26,0-3.25,2.08-3.42,3.63Z"/><path class="cls-3" d="M600.53,212.91c0-1.27,0-2.31-.11-3.32h2l.1,2h.08a4.22,4.22,0,0,1,3.86-2.26,3.62,3.62,0,0,1,3.47,2.46H610a5,5,0,0,1,1.37-1.6,4.17,4.17,0,0,1,2.71-.86c1.63,0,4,1.06,4,5.33v7.24h-2.18v-7c0-2.36-.87-3.79-2.67-3.79a2.89,2.89,0,0,0-2.64,2,3.68,3.68,0,0,0-.18,1.11v7.6h-2.18v-7.37c0-1.95-.86-3.38-2.57-3.38a3,3,0,0,0-2.76,2.24,3,3,0,0,0-.18,1.09v7.42h-2.18Z"/><path class="cls-3" d="M622.94,216.14a3.93,3.93,0,0,0,4.22,4.26,8.17,8.17,0,0,0,3.4-.63l.38,1.6a10.06,10.06,0,0,1-4.09.76c-3.78,0-6-2.49-6-6.2s2.18-6.62,5.76-6.62c4,0,5.08,3.53,5.08,5.79a10.18,10.18,0,0,1-.07,1Zm6.55-1.6c0-1.42-.58-3.63-3.09-3.63-2.26,0-3.25,2.08-3.43,3.63Z"/><path class="cls-3" d="M634.42,212.91c0-1.27,0-2.31-.1-3.32h2l.12,2h.06a4.5,4.5,0,0,1,4.06-2.31c1.7,0,4.34,1,4.34,5.23v7.34h-2.23v-7.09c0-2-.74-3.63-2.85-3.63a3.17,3.17,0,0,0-3,2.29,3,3,0,0,0-.16,1v7.39h-2.23Z"/><path class="cls-3" d="M651.1,206.06v3.53h3.2v1.7h-3.2v6.62c0,1.53.43,2.39,1.68,2.39a5.27,5.27,0,0,0,1.29-.15l.1,1.67a5.41,5.41,0,0,1-2,.31,3.09,3.09,0,0,1-2.41-.94,4.53,4.53,0,0,1-.86-3.2v-6.7H647v-1.7h1.91v-3Z"/><path class="cls-3" d="M487.9,260.15h2.21v15.26h7.31v1.85H487.9Z"/><path class="cls-3" d="M500.7,271.53c.05,3,2,4.26,4.21,4.26a8.22,8.22,0,0,0,3.41-.63l.38,1.6a10.1,10.1,0,0,1-4.09.76c-3.78,0-6-2.49-6-6.2s2.18-6.62,5.76-6.62c4,0,5.08,3.52,5.08,5.78a7.61,7.61,0,0,1-.08,1Zm6.55-1.6c0-1.43-.58-3.64-3.1-3.64-2.26,0-3.25,2.09-3.43,3.64Z"/><path class="cls-3" d="M522.76,265c0,.89-.1,1.88-.1,3.38v7.14c0,2.81-.56,4.54-1.75,5.61a6.54,6.54,0,0,1-4.47,1.47,8,8,0,0,1-4.09-1l.56-1.7a6.9,6.9,0,0,0,3.61,1c2.28,0,4-1.19,4-4.29v-1.37h-.05a4.4,4.4,0,0,1-3.91,2c-3,0-5.23-2.59-5.23-6,0-4.16,2.71-6.52,5.53-6.52a4.1,4.1,0,0,1,3.84,2.13h.05l.1-1.86Zm-2.31,4.85a3.18,3.18,0,0,0-.12-1,3.22,3.22,0,0,0-3.13-2.36c-2.13,0-3.65,1.8-3.65,4.64,0,2.42,1.21,4.42,3.63,4.42a3.25,3.25,0,0,0,3.09-2.28,3.84,3.84,0,0,0,.18-1.2Z"/><path class="cls-3" d="M533.17,277.26l-.18-1.55h-.07a4.58,4.58,0,0,1-3.76,1.83A3.5,3.5,0,0,1,525.4,274c0-3,2.64-4.59,7.39-4.57v-.25a2.53,2.53,0,0,0-2.79-2.84,6.08,6.08,0,0,0-3.2.91l-.51-1.47a7.65,7.65,0,0,1,4-1.09c3.75,0,4.67,2.56,4.67,5v4.6a17.49,17.49,0,0,0,.2,2.94Zm-.33-6.27c-2.44-.05-5.2.38-5.2,2.77a2,2,0,0,0,2.1,2.13,3,3,0,0,0,3-2.05,2.27,2.27,0,0,0,.13-.71Z"/><path class="cls-3" d="M547.36,276.81a8.3,8.3,0,0,1-3.53.71c-3.7,0-6.12-2.52-6.12-6.27a6.25,6.25,0,0,1,6.61-6.53,7.34,7.34,0,0,1,3.09.64l-.5,1.72a5.26,5.26,0,0,0-2.59-.58c-2.82,0-4.35,2.08-4.35,4.64,0,2.85,1.83,4.6,4.27,4.6a6.31,6.31,0,0,0,2.74-.61Z"/><path class="cls-3" d="M551.25,265l2.69,7.27c.28.81.58,1.77.79,2.51h0c.22-.74.48-1.68.78-2.56L558,265h2.36L557,273.73c-1.6,4.22-2.69,6.38-4.21,7.7a6.26,6.26,0,0,1-2.75,1.45L549.5,281a6,6,0,0,0,2-1.1,6.76,6.76,0,0,0,1.88-2.48,1.67,1.67,0,0,0,.18-.54,1.81,1.81,0,0,0-.16-.58L548.81,265Z"/><path class="cls-3" d="M578.39,259.24v14.85c0,1.09,0,2.34.1,3.17h-2l-.1-2.13h0a4.54,4.54,0,0,1-4.19,2.41c-3,0-5.25-2.51-5.25-6.24,0-4.09,2.51-6.6,5.51-6.6a4.1,4.1,0,0,1,3.7,1.87h0v-7.33ZM576.15,270a3.76,3.76,0,0,0-.1-.94,3.29,3.29,0,0,0-3.22-2.59c-2.31,0-3.68,2-3.68,4.75,0,2.48,1.21,4.54,3.63,4.54a3.35,3.35,0,0,0,3.27-2.67,3.68,3.68,0,0,0,.1-1Z"/><path class="cls-3" d="M583.34,271.53c0,3,2,4.26,4.21,4.26a8.22,8.22,0,0,0,3.41-.63l.38,1.6a10.1,10.1,0,0,1-4.09.76c-3.79,0-6-2.49-6-6.2s2.18-6.62,5.76-6.62c4,0,5.08,3.52,5.08,5.78a7.61,7.61,0,0,1-.08,1Zm6.55-1.6c0-1.43-.59-3.64-3.1-3.64-2.26,0-3.25,2.09-3.43,3.64Z"/><path class="cls-3" d="M603.57,276.81a8.3,8.3,0,0,1-3.53.71c-3.7,0-6.12-2.52-6.12-6.27a6.25,6.25,0,0,1,6.61-6.53,7.34,7.34,0,0,1,3.09.64l-.5,1.72a5.26,5.26,0,0,0-2.59-.58c-2.82,0-4.35,2.08-4.35,4.64,0,2.85,1.83,4.6,4.27,4.6a6.31,6.31,0,0,0,2.74-.61Z"/><path class="cls-3" d="M617.16,271c0,4.54-3.15,6.52-6.12,6.52-3.33,0-5.89-2.43-5.89-6.32,0-4.11,2.69-6.52,6.09-6.52S617.16,267.26,617.16,271Zm-9.75.12c0,2.7,1.55,4.73,3.73,4.73s3.73-2,3.73-4.78c0-2.08-1-4.72-3.68-4.72S607.41,268.81,607.41,271.14Z"/><path class="cls-3" d="M620,268.3c0-1.27,0-2.31-.1-3.33h2l.1,2H622a4.24,4.24,0,0,1,3.86-2.26,3.62,3.62,0,0,1,3.48,2.46h0a5.09,5.09,0,0,1,1.37-1.6,4.2,4.2,0,0,1,2.72-.86c1.63,0,4,1.06,4,5.33v7.23h-2.19v-6.95c0-2.36-.86-3.79-2.66-3.79a2.89,2.89,0,0,0-2.64,2,3.81,3.81,0,0,0-.18,1.12v7.59h-2.18V269.9c0-1.95-.87-3.38-2.57-3.38a3.07,3.07,0,0,0-2.77,2.24,3.23,3.23,0,0,0-.17,1.09v7.41H620Z"/><path class="cls-3" d="M641.15,268.3c0-1.27,0-2.31-.1-3.33h2l.1,2h.08A4.23,4.23,0,0,1,647,264.7a3.64,3.64,0,0,1,3.48,2.46h.05a5,5,0,0,1,1.37-1.6,4.18,4.18,0,0,1,2.72-.86c1.62,0,4,1.06,4,5.33v7.23h-2.18v-6.95c0-2.36-.86-3.79-2.67-3.79a2.89,2.89,0,0,0-2.64,2,3.81,3.81,0,0,0-.18,1.12v7.59h-2.18V269.9c0-1.95-.86-3.38-2.56-3.38a3,3,0,0,0-2.77,2.24,3,3,0,0,0-.18,1.09v7.41h-2.18Z"/><path class="cls-3" d="M664.81,261.52a1.39,1.39,0,0,1-2.77,0,1.36,1.36,0,0,1,1.4-1.39A1.32,1.32,0,0,1,664.81,261.52Zm-2.49,15.74V265h2.24v12.29Z"/><path class="cls-3" d="M668,275a5.87,5.87,0,0,0,2.94.89c1.63,0,2.39-.82,2.39-1.83s-.64-1.65-2.29-2.26c-2.21-.79-3.25-2-3.25-3.48,0-2,1.6-3.6,4.24-3.6a6.13,6.13,0,0,1,3,.76l-.56,1.62a4.85,4.85,0,0,0-2.52-.71c-1.32,0-2.05.76-2.05,1.68s.73,1.47,2.33,2.08c2.14.81,3.23,1.88,3.23,3.71,0,2.15-1.68,3.68-4.6,3.68a7,7,0,0,1-3.45-.84Z"/><path class="cls-3" d="M678,275a5.88,5.88,0,0,0,3,.89c1.62,0,2.38-.82,2.38-1.83s-.63-1.65-2.28-2.26c-2.21-.79-3.25-2-3.25-3.48,0-2,1.6-3.6,4.24-3.6a6.11,6.11,0,0,1,3,.76l-.56,1.62a4.81,4.81,0,0,0-2.51-.71c-1.32,0-2.06.76-2.06,1.68s.74,1.47,2.34,2.08c2.13.81,3.22,1.88,3.22,3.71,0,2.15-1.67,3.68-4.59,3.68a7,7,0,0,1-3.46-.84Z"/><path class="cls-3" d="M690.86,261.52a1.39,1.39,0,0,1-2.77,0,1.35,1.35,0,0,1,1.4-1.39A1.32,1.32,0,0,1,690.86,261.52Zm-2.49,15.74V265h2.23v12.29Z"/><path class="cls-3" d="M705.43,271c0,4.54-3.15,6.52-6.12,6.52-3.32,0-5.89-2.43-5.89-6.32,0-4.11,2.69-6.52,6.09-6.52S705.43,267.26,705.43,271Zm-9.75.12c0,2.7,1.55,4.73,3.73,4.73s3.74-2,3.74-4.78c0-2.08-1-4.72-3.69-4.72S695.68,268.81,695.68,271.14Z"/><path class="cls-3" d="M708.25,268.3c0-1.27,0-2.31-.1-3.33h2l.12,2h0a4.53,4.53,0,0,1,4.07-2.31c1.7,0,4.34,1,4.34,5.23v7.33h-2.24v-7.08c0-2-.73-3.63-2.84-3.63a3.19,3.19,0,0,0-3,2.28,3.28,3.28,0,0,0-.15,1.05v7.38h-2.23Z"/><path class="cls-3" d="M724.83,261.52a1.39,1.39,0,0,1-2.77,0,1.35,1.35,0,0,1,1.4-1.39A1.32,1.32,0,0,1,724.83,261.52Zm-2.49,15.74V265h2.23v12.29Z"/><path class="cls-3" d="M728.28,268.3c0-1.27,0-2.31-.1-3.33h2l.13,2h.05a4.51,4.51,0,0,1,4.06-2.31c1.7,0,4.34,1,4.34,5.23v7.33h-2.23v-7.08c0-2-.74-3.63-2.85-3.63a3.17,3.17,0,0,0-3,2.28,3,3,0,0,0-.16,1.05v7.38h-2.23Z"/><path class="cls-3" d="M753,265c-.05.89-.1,1.88-.1,3.38v7.14c0,2.81-.56,4.54-1.76,5.61a6.53,6.53,0,0,1-4.46,1.47,7.92,7.92,0,0,1-4.09-1l.56-1.7a6.89,6.89,0,0,0,3.6,1c2.29,0,4-1.19,4-4.29v-1.37h0a4.37,4.37,0,0,1-3.91,2c-3,0-5.23-2.59-5.23-6,0-4.16,2.72-6.52,5.54-6.52a4.07,4.07,0,0,1,3.83,2.13h0L751,265Zm-2.31,4.85a3.17,3.17,0,0,0-.13-1,3.22,3.22,0,0,0-3.12-2.36c-2.14,0-3.66,1.8-3.66,4.64,0,2.42,1.22,4.42,3.63,4.42a3.27,3.27,0,0,0,3.1-2.28,3.84,3.84,0,0,0,.18-1.2Z"/><path class="cls-3" d="M487.9,315.74a25.46,25.46,0,0,1,4.24-.33,7,7,0,0,1,4.8,1.42,4.62,4.62,0,0,1,1.5,3.58,5.06,5.06,0,0,1-1.32,3.66,7.11,7.11,0,0,1-5.23,1.88,8,8,0,0,1-1.78-.15v6.85H487.9Zm2.21,8.25a7.24,7.24,0,0,0,1.83.18c2.67,0,4.29-1.29,4.29-3.65s-1.6-3.36-4-3.36a9.33,9.33,0,0,0-2.08.18Z"/><path class="cls-3" d="M501.21,314.62h2.23v18h-2.23Z"/><path class="cls-3" d="M514,332.65l-.17-1.55h-.08a4.58,4.58,0,0,1-3.76,1.83,3.5,3.5,0,0,1-3.76-3.53c0-3,2.64-4.59,7.39-4.57v-.25a2.54,2.54,0,0,0-2.79-2.85,6.11,6.11,0,0,0-3.2.92l-.51-1.47a7.65,7.65,0,0,1,4-1.1c3.76,0,4.67,2.57,4.67,5v4.6a17.57,17.57,0,0,0,.2,2.94Zm-.33-6.27c-2.43-.05-5.2.38-5.2,2.77a2,2,0,0,0,2.11,2.13,3.06,3.06,0,0,0,3-2.06,2.46,2.46,0,0,0,.12-.71Z"/><path class="cls-3" d="M522,316.83v3.53h3.19v1.7H522v6.63c0,1.52.43,2.39,1.67,2.39a5.29,5.29,0,0,0,1.3-.15l.1,1.67a5.41,5.41,0,0,1-2,.31,3.09,3.09,0,0,1-2.41-.94,4.54,4.54,0,0,1-.87-3.2v-6.71h-1.9v-1.7h1.9v-2.94Z"/><path class="cls-3" d="M528,332.65V322.06h-1.73v-1.7H528v-.58a5.79,5.79,0,0,1,1.42-4.29,4.27,4.27,0,0,1,3-1.14,5.16,5.16,0,0,1,1.91.35l-.31,1.73a3.2,3.2,0,0,0-1.42-.28c-1.9,0-2.39,1.67-2.39,3.55v.66h3v1.7h-3v10.59Z"/><path class="cls-3" d="M545.94,326.41c0,4.54-3.15,6.52-6.12,6.52-3.32,0-5.89-2.44-5.89-6.32,0-4.11,2.69-6.53,6.1-6.53S545.94,322.65,545.94,326.41Zm-9.75.12c0,2.69,1.55,4.73,3.73,4.73s3.74-2,3.74-4.78c0-2.08-1-4.72-3.68-4.72S536.19,324.2,536.19,326.53Z"/><path class="cls-3" d="M548.76,324.2c0-1.45,0-2.69-.1-3.84h2l.08,2.41h.1a3.69,3.69,0,0,1,3.4-2.69,2.43,2.43,0,0,1,.64.08v2.11a3.41,3.41,0,0,0-.76-.08,3.13,3.13,0,0,0-3,2.87,6.33,6.33,0,0,0-.1,1v6.55h-2.21Z"/><path class="cls-3" d="M557.16,323.69c0-1.27,0-2.31-.1-3.33h2l.1,2h.07a4.26,4.26,0,0,1,3.86-2.26,3.63,3.63,0,0,1,3.48,2.47h.05A5.09,5.09,0,0,1,568,321a4.2,4.2,0,0,1,2.72-.87c1.63,0,4,1.07,4,5.34v7.23h-2.19v-7c0-2.36-.86-3.78-2.66-3.78a2.89,2.89,0,0,0-2.64,2,3.75,3.75,0,0,0-.18,1.12v7.59h-2.18v-7.36c0-2-.87-3.38-2.57-3.38a3.07,3.07,0,0,0-2.77,2.24,3.23,3.23,0,0,0-.17,1.09v7.41h-2.19Z"/><path class="cls-3" d="M583.72,324.2c0-1.45,0-2.69-.1-3.84h2l.08,2.41h.1a3.68,3.68,0,0,1,3.4-2.69,2.49,2.49,0,0,1,.64.08v2.11a3.41,3.41,0,0,0-.76-.08,3.13,3.13,0,0,0-3,2.87,6.33,6.33,0,0,0-.1,1v6.55h-2.21Z"/><path class="cls-3" d="M593,326.91c0,3,2,4.27,4.22,4.27a8,8,0,0,0,3.4-.64l.38,1.6a9.85,9.85,0,0,1-4.09.77c-3.78,0-6-2.49-6-6.2s2.18-6.63,5.76-6.63c4,0,5.08,3.53,5.08,5.79a7.3,7.3,0,0,1-.08,1Zm6.55-1.6c0-1.42-.58-3.63-3.1-3.63-2.26,0-3.25,2.09-3.42,3.63Z"/><path class="cls-3" d="M605.73,326.91c0,3,2,4.27,4.22,4.27a8,8,0,0,0,3.4-.64l.38,1.6a9.85,9.85,0,0,1-4.09.77c-3.78,0-6-2.49-6-6.2s2.18-6.63,5.76-6.63c4,0,5.08,3.53,5.08,5.79a7.3,7.3,0,0,1-.08,1Zm6.55-1.6c0-1.42-.58-3.63-3.1-3.63-2.26,0-3.25,2.09-3.42,3.63Z"/><path class="cls-3" d="M617.21,323.69c0-1.27,0-2.31-.11-3.33h2l.13,2h0a4.54,4.54,0,0,1,4.07-2.31c1.7,0,4.34,1,4.34,5.23v7.34h-2.24v-7.08c0-2-.73-3.63-2.84-3.63a3.18,3.18,0,0,0-3,2.28,3.26,3.26,0,0,0-.15,1v7.39h-2.23Z"/><path class="cls-3" d="M641.88,320.36c0,.89-.1,1.88-.1,3.38v7.13c0,2.82-.56,4.55-1.75,5.62a6.54,6.54,0,0,1-4.47,1.47,8,8,0,0,1-4.09-1l.56-1.7a7,7,0,0,0,3.61,1c2.28,0,4-1.2,4-4.29v-1.38h-.05a4.38,4.38,0,0,1-3.91,2.06c-3,0-5.23-2.59-5.23-6,0-4.17,2.72-6.53,5.53-6.53a4.09,4.09,0,0,1,3.84,2.14h.05l.1-1.86Zm-2.31,4.85a3.18,3.18,0,0,0-.12-1,3.22,3.22,0,0,0-3.13-2.36c-2.13,0-3.65,1.8-3.65,4.64,0,2.41,1.22,4.42,3.63,4.42a3.27,3.27,0,0,0,3.1-2.29,4.08,4.08,0,0,0,.17-1.19Z"/><path class="cls-3" d="M647.82,316.91a1.31,1.31,0,0,1-1.42,1.37,1.33,1.33,0,0,1-1.34-1.37,1.36,1.36,0,0,1,1.39-1.4A1.33,1.33,0,0,1,647.82,316.91Zm-2.48,15.74V320.36h2.23v12.29Z"/><path class="cls-3" d="M651.28,323.69c0-1.27,0-2.31-.11-3.33h2l.12,2h.05a4.54,4.54,0,0,1,4.07-2.31c1.7,0,4.34,1,4.34,5.23v7.34H659.5v-7.08c0-2-.73-3.63-2.84-3.63a3.18,3.18,0,0,0-3,2.28,3.26,3.26,0,0,0-.15,1v7.39h-2.23Z"/><path class="cls-3" d="M666.61,326.91c0,3,2,4.27,4.22,4.27a8,8,0,0,0,3.4-.64l.38,1.6a9.85,9.85,0,0,1-4.09.77c-3.78,0-6-2.49-6-6.2s2.18-6.63,5.76-6.63c4,0,5.08,3.53,5.08,5.79a7.3,7.3,0,0,1-.08,1Zm6.55-1.6c0-1.42-.58-3.63-3.1-3.63-2.26,0-3.25,2.09-3.42,3.63Z"/><path class="cls-3" d="M679.33,326.91c0,3,2,4.27,4.22,4.27a8,8,0,0,0,3.4-.64l.38,1.6a9.85,9.85,0,0,1-4.09.77c-3.78,0-6-2.49-6-6.2s2.18-6.63,5.76-6.63c4,0,5.08,3.53,5.08,5.79a7.3,7.3,0,0,1-.08,1Zm6.55-1.6c0-1.42-.58-3.63-3.1-3.63-2.26,0-3.25,2.09-3.42,3.63Z"/><path class="cls-3" d="M690.81,324.2c0-1.45,0-2.69-.1-3.84h1.95l.08,2.41h.1a3.68,3.68,0,0,1,3.4-2.69,2.55,2.55,0,0,1,.64.08v2.11a3.44,3.44,0,0,0-.77-.08,3.13,3.13,0,0,0-3,2.87,6.33,6.33,0,0,0-.1,1v6.55h-2.21Z"/><path class="cls-3" d="M701.7,316.91a1.39,1.39,0,0,1-2.77,0,1.36,1.36,0,0,1,1.4-1.4A1.33,1.33,0,0,1,701.7,316.91Zm-2.49,15.74V320.36h2.23v12.29Z"/><path class="cls-3" d="M705.15,323.69c0-1.27,0-2.31-.1-3.33h2l.13,2h.05a4.53,4.53,0,0,1,4.06-2.31c1.7,0,4.34,1,4.34,5.23v7.34h-2.23v-7.08c0-2-.74-3.63-2.85-3.63a3.17,3.17,0,0,0-3,2.28,3.25,3.25,0,0,0-.16,1v7.39h-2.23Z"/><path class="cls-3" d="M729.83,320.36c-.05.89-.1,1.88-.1,3.38v7.13c0,2.82-.56,4.55-1.75,5.62a6.56,6.56,0,0,1-4.47,1.47,7.92,7.92,0,0,1-4.09-1l.56-1.7a6.89,6.89,0,0,0,3.6,1c2.29,0,4-1.2,4-4.29v-1.38h0a4.36,4.36,0,0,1-3.91,2.06c-3,0-5.23-2.59-5.23-6,0-4.17,2.72-6.53,5.54-6.53a4.08,4.08,0,0,1,3.83,2.14h0l.1-1.86Zm-2.31,4.85a3.17,3.17,0,0,0-.13-1,3.21,3.21,0,0,0-3.12-2.36c-2.13,0-3.66,1.8-3.66,4.64,0,2.41,1.22,4.42,3.63,4.42a3.26,3.26,0,0,0,3.1-2.29,3.78,3.78,0,0,0,.18-1.19Z"/><path class="cls-3" d="M490.67,382.66,488.89,388h-2.28l5.81-17.11h2.67L500.93,388h-2.36l-1.83-5.38Zm5.61-1.73L494.61,376c-.38-1.12-.64-2.14-.89-3.13h-.05c-.26,1-.54,2.06-.87,3.1l-1.67,4.95Z"/><path class="cls-3" d="M503.29,379.76c0-1.57-.05-2.84-.1-4h2l.1,2.11h.06a4.82,4.82,0,0,1,4.36-2.39c3,0,5.21,2.52,5.21,6.25,0,4.42-2.69,6.6-5.59,6.6a4.31,4.31,0,0,1-3.78-1.93h-.05v6.68h-2.21ZM505.5,383a5.07,5.07,0,0,0,.1.91,3.45,3.45,0,0,0,3.35,2.62c2.36,0,3.73-1.93,3.73-4.75,0-2.46-1.29-4.57-3.65-4.57a3.56,3.56,0,0,0-3.38,2.77,3.47,3.47,0,0,0-.15.91Z"/><path class="cls-3" d="M517.73,379.76c0-1.57-.05-2.84-.1-4h2l.1,2.11h0a4.84,4.84,0,0,1,4.37-2.39c3,0,5.2,2.52,5.2,6.25,0,4.42-2.69,6.6-5.58,6.6a4.32,4.32,0,0,1-3.79-1.93h0v6.68h-2.21Zm2.21,3.28a5.07,5.07,0,0,0,.1.91,3.46,3.46,0,0,0,3.36,2.62c2.36,0,3.73-1.93,3.73-4.75,0-2.46-1.3-4.57-3.66-4.57A3.56,3.56,0,0,0,520.1,380a3.47,3.47,0,0,0-.16.91Z"/><path class="cls-3" d="M532.18,370h2.23v18h-2.23Z"/><path class="cls-3" d="M540.66,372.3a1.39,1.39,0,0,1-2.77,0,1.37,1.37,0,0,1,1.4-1.4A1.33,1.33,0,0,1,540.66,372.3ZM538.17,388V375.75h2.24V388Z"/><path class="cls-3" d="M552.87,387.58a8.14,8.14,0,0,1-3.53.71c-3.71,0-6.12-2.51-6.12-6.27a6.24,6.24,0,0,1,6.6-6.52,7.57,7.57,0,0,1,3.1.63l-.51,1.73a5.1,5.1,0,0,0-2.59-.59c-2.81,0-4.34,2.09-4.34,4.65,0,2.85,1.83,4.6,4.27,4.6a6.31,6.31,0,0,0,2.74-.61Z"/><path class="cls-3" d="M562.29,388l-.18-1.55H562a4.58,4.58,0,0,1-3.76,1.83,3.5,3.5,0,0,1-3.76-3.53c0-3,2.64-4.6,7.39-4.57V380a2.54,2.54,0,0,0-2.79-2.85,6.09,6.09,0,0,0-3.2.92l-.51-1.48a7.62,7.62,0,0,1,4-1.09c3.75,0,4.67,2.57,4.67,5v4.6a17.57,17.57,0,0,0,.2,2.94Zm-.33-6.27c-2.44,0-5.21.38-5.21,2.77a2,2,0,0,0,2.11,2.13,3.05,3.05,0,0,0,3-2.06,2.22,2.22,0,0,0,.13-.71Z"/><path class="cls-3" d="M570.31,372.22v3.53h3.2v1.7h-3.2v6.63c0,1.52.43,2.39,1.68,2.39a4.73,4.73,0,0,0,1.29-.16l.1,1.68a5.4,5.4,0,0,1-2,.3,3.1,3.1,0,0,1-2.41-.94,4.56,4.56,0,0,1-.86-3.19v-6.71h-1.91v-1.7h1.91v-2.94Z"/><path class="cls-3" d="M578.51,372.3a1.38,1.38,0,0,1-2.76,0,1.36,1.36,0,0,1,1.39-1.4A1.33,1.33,0,0,1,578.51,372.3ZM576,388V375.75h2.24V388Z"/><path class="cls-3" d="M593.09,381.79c0,4.55-3.15,6.53-6.12,6.53-3.33,0-5.89-2.44-5.89-6.32,0-4.12,2.69-6.53,6.09-6.53S593.09,378,593.09,381.79Zm-9.75.13c0,2.69,1.54,4.72,3.73,4.72s3.73-2,3.73-4.77c0-2.08-1-4.72-3.68-4.72S583.34,379.59,583.34,381.92Z"/><path class="cls-3" d="M595.9,379.08c0-1.27,0-2.31-.1-3.33h2l.13,2H598a4.51,4.51,0,0,1,4.06-2.31c1.7,0,4.34,1,4.34,5.23V388h-2.23V381c0-2-.74-3.63-2.84-3.63a3.17,3.17,0,0,0-3,2.28,3.26,3.26,0,0,0-.15,1V388H595.9Z"/><path class="cls-3" d="M615.38,379.59c0-1.45,0-2.7-.11-3.84h2l.08,2.41h.1a3.68,3.68,0,0,1,3.4-2.69,2.41,2.41,0,0,1,.63.08v2.11a2.81,2.81,0,0,0-.76-.08,3.13,3.13,0,0,0-3,2.87,6.26,6.26,0,0,0-.11,1V388h-2.2Z"/><path class="cls-3" d="M624.67,382.3c.05,3,2,4.27,4.21,4.27a8,8,0,0,0,3.41-.64l.38,1.6a9.93,9.93,0,0,1-4.09.76c-3.78,0-6-2.48-6-6.19s2.18-6.63,5.76-6.63c4,0,5.08,3.53,5.08,5.79a7.43,7.43,0,0,1-.08,1Zm6.55-1.6c0-1.42-.58-3.63-3.1-3.63-2.26,0-3.25,2.08-3.43,3.63Z"/><path class="cls-3" d="M642,380.35V382h-6.27v-1.65Z"/><path class="cls-3" d="M644.65,370h2.23v7.67h0a4.23,4.23,0,0,1,1.6-1.57,4.62,4.62,0,0,1,2.29-.64c1.65,0,4.29,1,4.29,5.26V388h-2.23V381c0-2-.74-3.65-2.85-3.65a3.19,3.19,0,0,0-3,2.23,2.62,2.62,0,0,0-.16,1.07V388h-2.23Z"/><path class="cls-3" d="M669.86,381.79c0,4.55-3.15,6.53-6.12,6.53-3.32,0-5.89-2.44-5.89-6.32,0-4.12,2.69-6.53,6.09-6.53S669.86,378,669.86,381.79Zm-9.75.13c0,2.69,1.55,4.72,3.73,4.72s3.74-2,3.74-4.77c0-2.08-1.05-4.72-3.69-4.72S660.11,379.59,660.11,381.92Z"/><path class="cls-3" d="M672.37,385.76a5.88,5.88,0,0,0,3,.88c1.62,0,2.39-.81,2.39-1.82s-.64-1.65-2.29-2.26c-2.21-.79-3.25-2-3.25-3.48,0-2,1.6-3.61,4.24-3.61a6.19,6.19,0,0,1,3,.76l-.56,1.63a4.72,4.72,0,0,0-2.51-.71c-1.32,0-2.06.76-2.06,1.67s.74,1.48,2.34,2.09c2.13.81,3.22,1.87,3.22,3.7,0,2.16-1.67,3.68-4.59,3.68a7.13,7.13,0,0,1-3.46-.83Z"/><path class="cls-3" d="M685.42,372.22v3.53h3.2v1.7h-3.2v6.63c0,1.52.43,2.39,1.68,2.39a4.73,4.73,0,0,0,1.29-.16l.11,1.68a5.5,5.5,0,0,1-2,.3,3.1,3.1,0,0,1-2.41-.94,4.56,4.56,0,0,1-.86-3.19v-6.71h-1.91v-1.7h1.91v-2.94Z"/><path class="cls-3" d="M693.62,372.3a1.38,1.38,0,0,1-2.76,0,1.36,1.36,0,0,1,1.39-1.4A1.33,1.33,0,0,1,693.62,372.3ZM691.13,388V375.75h2.24V388Z"/><path class="cls-3" d="M697.08,379.08c0-1.27,0-2.31-.11-3.33h2l.13,2h0a4.51,4.51,0,0,1,4.06-2.31c1.71,0,4.35,1,4.35,5.23V388H705.3V381c0-2-.73-3.63-2.84-3.63a3.18,3.18,0,0,0-3,2.28,3.26,3.26,0,0,0-.15,1V388h-2.23Z"/><path class="cls-3" d="M721.75,375.75c0,.89-.1,1.88-.1,3.38v7.13c0,2.82-.56,4.55-1.75,5.61a6.5,6.5,0,0,1-4.47,1.48,8,8,0,0,1-4.09-1l.56-1.7a6.9,6.9,0,0,0,3.61,1c2.28,0,4-1.2,4-4.3v-1.37h-.05a4.38,4.38,0,0,1-3.91,2.06c-3,0-5.23-2.59-5.23-6,0-4.17,2.71-6.53,5.53-6.53a4.11,4.11,0,0,1,3.84,2.13h.05l.1-1.85Zm-2.31,4.85a3.18,3.18,0,0,0-.12-1,3.23,3.23,0,0,0-3.13-2.37c-2.13,0-3.65,1.81-3.65,4.65,0,2.41,1.22,4.42,3.63,4.42a3.27,3.27,0,0,0,3.1-2.29,4.08,4.08,0,0,0,.17-1.19Z"/><circle class="cls-4" cx="459.24" cy="215.04" r="4.5"/><circle class="cls-4" cx="459.24" cy="267.35" r="4.5"/><circle class="cls-4" cx="459.24" cy="324.66" r="4.5"/><circle class="cls-4" cx="459.24" cy="380.66" r="4.5"/><polygon class="cls-5" points="830.02 0.17 830.02 484.89 1237.99 484.89 1237.99 0.04 830.02 0.17"/><line class="cls-6" x1="849.12" y1="171.03" x2="1218.89" y2="170.96"/><path class="cls-3" d="M1003.74,80.27a14.4,14.4,0,0,1-5.89,1c-7.24,0-11.64-4.53-11.64-11.47,0-7.51,5.21-12.05,12.18-12.05a13,13,0,0,1,5.55,1l-.91,3.31a11.13,11.13,0,0,0-4.47-.88c-4.63,0-8,2.92-8,8.4,0,5,2.94,8.22,7.95,8.22a11.77,11.77,0,0,0,4.53-.84Z"/><path class="cls-3" d="M1007,56.92h4.2V81H1007Z"/><path class="cls-3" d="M1031.4,72.55c0,6.06-4.27,8.77-8.46,8.77-4.67,0-8.26-3.22-8.26-8.5s3.55-8.73,8.53-8.73S1031.4,67.54,1031.4,72.55Zm-12.42.17c0,3.18,1.55,5.59,4.09,5.59,2.37,0,4-2.34,4-5.66,0-2.57-1.15-5.51-4-5.51S1019,70,1019,72.72Z"/><path class="cls-3" d="M1049.58,76c0,2,.06,3.59.13,5h-3.65l-.21-2.51h-.06a6,6,0,0,1-5.28,2.88c-3,0-5.76-1.8-5.76-7.18V64.46h4.17v9c0,2.74.87,4.5,3.08,4.5a3.51,3.51,0,0,0,3.18-2.23,3.9,3.9,0,0,0,.23-1.29v-10h4.17Z"/><path class="cls-3" d="M1069.28,56.92V76.31c0,1.69.06,3.52.13,4.64h-3.72l-.17-2.61h-.07a5.93,5.93,0,0,1-5.38,3c-3.92,0-7-3.35-7-8.43,0-5.52,3.42-8.8,7.38-8.8a5.26,5.26,0,0,1,4.64,2.17h.06V56.92Zm-4.17,14.41a5.71,5.71,0,0,0-.1-1.08,3.64,3.64,0,0,0-3.59-2.94c-2.67,0-4.16,2.36-4.16,5.44s1.49,5.22,4.13,5.22a3.68,3.68,0,0,0,3.59-3,4.71,4.71,0,0,0,.13-1.22Z"/><path class="cls-3" d="M987.23,103.22c0-1.89,0-3.48-.14-4.91h3.59l.17,2.44h.1A5.71,5.71,0,0,1,996,97.94a4.75,4.75,0,0,1,4.57,3h.07a6.38,6.38,0,0,1,2-2.07,5.56,5.56,0,0,1,3.32-1c2.74,0,5.52,1.86,5.52,7.14v9.72h-4.07v-9.11c0-2.74-.94-4.36-2.94-4.36a3.17,3.17,0,0,0-2.91,2.2,6,6,0,0,0-.2,1.38v9.89h-4.07v-9.55c0-2.3-.91-3.92-2.84-3.92a3.26,3.26,0,0,0-3,2.37,3.52,3.52,0,0,0-.23,1.35v9.75h-4.06Z"/><path class="cls-3" d="M1025.2,114.8l-.27-1.83h-.1a6.1,6.1,0,0,1-4.87,2.2,4.89,4.89,0,0,1-5.18-4.91c0-4.16,3.69-6.26,9.78-6.23v-.27c0-1.08-.44-2.87-3.35-2.87a8.62,8.62,0,0,0-4.43,1.22L1016,99.4a11.84,11.84,0,0,1,6-1.46c5.28,0,6.8,3.35,6.8,6.94v6a26.32,26.32,0,0,0,.24,4Zm-.54-8.06c-2.94-.07-5.75.58-5.75,3.08a2.18,2.18,0,0,0,2.37,2.37,3.36,3.36,0,0,0,3.25-2.27,3,3,0,0,0,.13-.91Z"/><path class="cls-3" d="M1033.13,103.22c0-1.89,0-3.48-.14-4.91h3.66l.2,2.48h.1a6,6,0,0,1,5.25-2.85c2.87,0,5.85,1.86,5.85,7.08v9.78h-4.16v-9.31c0-2.37-.88-4.16-3.15-4.16a3.49,3.49,0,0,0-3.25,2.43,4.45,4.45,0,0,0-.17,1.36v9.68h-4.19Z"/><path class="cls-3" d="M1061.76,114.8l-.27-1.83h-.1a6.1,6.1,0,0,1-4.87,2.2,4.89,4.89,0,0,1-5.18-4.91c0-4.16,3.69-6.26,9.78-6.23v-.27c0-1.08-.44-2.87-3.35-2.87a8.62,8.62,0,0,0-4.43,1.22l-.82-2.71a11.81,11.81,0,0,1,6-1.46c5.28,0,6.8,3.35,6.8,6.94v6a26.32,26.32,0,0,0,.24,4Zm-.54-8.06c-2.94-.07-5.75.58-5.75,3.08a2.18,2.18,0,0,0,2.37,2.37,3.37,3.37,0,0,0,3.25-2.27,3,3,0,0,0,.13-.91Z"/><path class="cls-3" d="M1084.75,98.31c-.07,1.12-.14,2.48-.14,4.74v9.34c0,3.46-.71,5.93-2.44,7.48a9.42,9.42,0,0,1-6.36,2,11.64,11.64,0,0,1-5.75-1.32l.91-3.15a10,10,0,0,0,4.81,1.26c2.71,0,4.74-1.43,4.74-5v-1.42h-.07a5.58,5.58,0,0,1-4.81,2.44c-4.09,0-7-3.39-7-8.06,0-5.41,3.52-8.7,7.48-8.7a5.2,5.2,0,0,1,4.77,2.57h.07l.17-2.2Zm-4.3,6.6a4.07,4.07,0,0,0-.14-1.11,3.45,3.45,0,0,0-3.38-2.68c-2.34,0-4.06,2-4.06,5.38,0,2.81,1.42,5.08,4,5.08a3.55,3.55,0,0,0,3.39-2.5,7.31,7.31,0,0,0,.17-1.49Z"/><path class="cls-3" d="M1092,107.72c.1,3,2.43,4.27,5.07,4.27a12.24,12.24,0,0,0,4.57-.75l.61,2.88a15.39,15.39,0,0,1-5.75,1c-5.35,0-8.5-3.29-8.5-8.33,0-4.57,2.78-8.87,8.06-8.87s7.11,4.4,7.11,8a9.88,9.88,0,0,1-.14,1.76Zm7.24-2.91c0-1.52-.64-4-3.42-4-2.57,0-3.65,2.33-3.82,4Z"/><path class="cls-3" d="M1106.55,103.22c0-1.89,0-3.48-.14-4.91H1110l.17,2.44h.1a5.71,5.71,0,0,1,5.08-2.81,4.75,4.75,0,0,1,4.57,3h.07a6.29,6.29,0,0,1,2-2.07,5.5,5.5,0,0,1,3.31-1c2.74,0,5.52,1.86,5.52,7.14v9.72h-4.06v-9.11c0-2.74-1-4.36-3-4.36a3.17,3.17,0,0,0-2.91,2.2,6,6,0,0,0-.2,1.38v9.89h-4.06v-9.55c0-2.3-.91-3.92-2.84-3.92a3.24,3.24,0,0,0-3,2.37,3.52,3.52,0,0,0-.24,1.35v9.75h-4.06Z"/><path class="cls-3" d="M1138.2,107.72c.1,3,2.44,4.27,5.08,4.27a12.28,12.28,0,0,0,4.57-.75l.6,2.88a15.39,15.39,0,0,1-5.75,1c-5.35,0-8.49-3.29-8.49-8.33,0-4.57,2.77-8.87,8-8.87s7.11,4.4,7.11,8a9.88,9.88,0,0,1-.14,1.76Zm7.24-2.91c0-1.52-.64-4-3.42-4-2.57,0-3.65,2.33-3.82,4Z"/><path class="cls-3" d="M1152.72,103.22c0-1.89,0-3.48-.13-4.91h3.65l.21,2.48h.1a5.93,5.93,0,0,1,5.24-2.85c2.88,0,5.86,1.86,5.86,7.08v9.78h-4.17v-9.31c0-2.37-.88-4.16-3.14-4.16a3.49,3.49,0,0,0-3.25,2.43,4.16,4.16,0,0,0-.17,1.36v9.68h-4.2Z"/><path class="cls-3" d="M1176.69,93.61v4.7h4v3.12h-4v7.28c0,2,.54,3,2.13,3a6.19,6.19,0,0,0,1.62-.2l.07,3.18a9,9,0,0,1-3,.41,4.82,4.82,0,0,1-3.59-1.36c-.88-1-1.28-2.44-1.28-4.6v-7.75h-2.37V98.31h2.37V94.59Z"/><path class="cls-3" d="M911.64,214.36c-.12-2.39-.28-5.26-.25-7.39h-.08c-.58,2-1.29,4.14-2.16,6.5l-3,8.3h-1.67l-2.77-8.15c-.81-2.41-1.5-4.62-2-6.65h-.05c0,2.13-.18,5-.33,7.57l-.46,7.34h-2.11l1.2-17.12h2.82L903.7,213c.71,2.11,1.29,4,1.72,5.76h.08c.43-1.72,1-3.6,1.8-5.76l3.05-8.28h2.82l1.06,17.12h-2.16Z"/><path class="cls-3" d="M920.35,206.13a1.31,1.31,0,0,1-1.42,1.37,1.33,1.33,0,0,1-1.35-1.37,1.36,1.36,0,0,1,1.4-1.39A1.32,1.32,0,0,1,920.35,206.13Zm-2.49,15.75V209.59h2.24v12.29Z"/><path class="cls-3" d="M934.39,209.59c0,.88-.1,1.87-.1,3.37v7.14c0,2.82-.56,4.54-1.75,5.61a6.51,6.51,0,0,1-4.47,1.47,7.92,7.92,0,0,1-4.09-1l.56-1.71a6.89,6.89,0,0,0,3.6,1c2.29,0,4-1.19,4-4.29v-1.37h-.05a4.37,4.37,0,0,1-3.91,2c-3,0-5.23-2.59-5.23-6,0-4.16,2.72-6.52,5.54-6.52a4.07,4.07,0,0,1,3.83,2.13h.05l.1-1.85Zm-2.31,4.85a3.28,3.28,0,0,0-3.25-3.38c-2.13,0-3.66,1.8-3.66,4.65,0,2.41,1.22,4.41,3.63,4.41a3.27,3.27,0,0,0,3.1-2.28,3.8,3.8,0,0,0,.18-1.2Z"/><path class="cls-3" d="M937.84,213.42c0-1.45,0-2.69-.1-3.83h2l.07,2.41h.1a3.69,3.69,0,0,1,3.41-2.69,2.43,2.43,0,0,1,.63.07v2.11a3.41,3.41,0,0,0-.76-.08,3.14,3.14,0,0,0-3,2.87,6.44,6.44,0,0,0-.1,1v6.56h-2.21Z"/><path class="cls-3" d="M952.82,221.88l-.18-1.55h-.07a4.6,4.6,0,0,1-3.76,1.82,3.5,3.5,0,0,1-3.76-3.52c0-3,2.64-4.6,7.39-4.58v-.25a2.53,2.53,0,0,0-2.79-2.84,6.08,6.08,0,0,0-3.2.91l-.51-1.47a7.65,7.65,0,0,1,4-1.09c3.76,0,4.67,2.56,4.67,5v4.6a17.62,17.62,0,0,0,.2,2.95Zm-.33-6.28c-2.44,0-5.2.38-5.2,2.77a2,2,0,0,0,2.1,2.13,3,3,0,0,0,3-2.05,2.27,2.27,0,0,0,.13-.71Z"/><path class="cls-3" d="M960.84,206.06v3.53H964v1.7h-3.2v6.62c0,1.53.44,2.39,1.68,2.39a5.2,5.2,0,0,0,1.29-.15l.11,1.67a5.45,5.45,0,0,1-2,.31,3.11,3.11,0,0,1-2.42-.94,4.57,4.57,0,0,1-.86-3.2v-6.7h-1.9v-1.7h1.9v-3Z"/><path class="cls-3" d="M969,206.13a1.38,1.38,0,0,1-2.76,0,1.36,1.36,0,0,1,1.39-1.39A1.32,1.32,0,0,1,969,206.13Zm-2.48,15.75V209.59h2.23v12.29Z"/><path class="cls-3" d="M983.62,215.63c0,4.54-3.15,6.52-6.12,6.52-3.33,0-5.89-2.43-5.89-6.32,0-4.11,2.69-6.52,6.09-6.52S983.62,211.87,983.62,215.63Zm-9.75.13c0,2.69,1.55,4.72,3.73,4.72s3.73-2,3.73-4.77c0-2.09-1-4.73-3.68-4.73S973.87,213.42,973.87,215.76Z"/><path class="cls-3" d="M986.43,212.91c0-1.27,0-2.31-.1-3.32h2l.13,2h0a4.51,4.51,0,0,1,4.06-2.31c1.7,0,4.35,1,4.35,5.23v7.34h-2.24v-7.09c0-2-.74-3.63-2.84-3.63a3.17,3.17,0,0,0-3,2.29,3.22,3.22,0,0,0-.15,1v7.39h-2.24Z"/><path class="cls-3" d="M1012.71,221.88l-.18-1.55h-.07a4.6,4.6,0,0,1-3.76,1.82,3.5,3.5,0,0,1-3.76-3.52c0-3,2.64-4.6,7.39-4.58v-.25a2.53,2.53,0,0,0-2.79-2.84,6.11,6.11,0,0,0-3.2.91l-.51-1.47a7.65,7.65,0,0,1,4-1.09c3.76,0,4.67,2.56,4.67,5v4.6a17.62,17.62,0,0,0,.2,2.95Zm-.33-6.28c-2.44,0-5.2.38-5.2,2.77a2,2,0,0,0,2.1,2.13,3,3,0,0,0,3-2.05,2.27,2.27,0,0,0,.13-.71Z"/><path class="cls-3" d="M1018.14,212.91c0-1.27,0-2.31-.1-3.32h2l.13,2h.05a4.51,4.51,0,0,1,4.06-2.31c1.7,0,4.35,1,4.35,5.23v7.34h-2.24v-7.09c0-2-.74-3.63-2.84-3.63a3.17,3.17,0,0,0-3,2.29,3.22,3.22,0,0,0-.15,1v7.39h-2.24Z"/><path class="cls-3" d="M1042.85,203.85V218.7c0,1.09,0,2.34.1,3.18h-2l-.1-2.14h0a4.54,4.54,0,0,1-4.19,2.41c-3,0-5.25-2.51-5.25-6.24,0-4.09,2.51-6.6,5.51-6.6a4.1,4.1,0,0,1,3.7,1.88h0v-7.34Zm-2.24,10.74a3.76,3.76,0,0,0-.1-.94,3.29,3.29,0,0,0-3.22-2.59c-2.31,0-3.68,2-3.68,4.75,0,2.48,1.22,4.54,3.63,4.54a3.35,3.35,0,0,0,3.27-2.66,3.75,3.75,0,0,0,.1-1Z"/><path class="cls-3" d="M1062.52,209.59c0,.88-.1,1.87-.1,3.37v7.14c0,2.82-.56,4.54-1.75,5.61a6.49,6.49,0,0,1-4.47,1.47,8,8,0,0,1-4.09-1l.56-1.71a6.93,6.93,0,0,0,3.61,1c2.28,0,4-1.19,4-4.29v-1.37h0a4.4,4.4,0,0,1-3.91,2c-3,0-5.23-2.59-5.23-6,0-4.16,2.71-6.52,5.53-6.52a4.09,4.09,0,0,1,3.84,2.13h0l.1-1.85Zm-2.31,4.85a3.24,3.24,0,0,0-3.25-3.38c-2.13,0-3.65,1.8-3.65,4.65,0,2.41,1.22,4.41,3.63,4.41a3.27,3.27,0,0,0,3.1-2.28,4.1,4.1,0,0,0,.17-1.2Z"/><path class="cls-3" d="M1077.25,215.63c0,4.54-3.15,6.52-6.12,6.52-3.33,0-5.89-2.43-5.89-6.32,0-4.11,2.69-6.52,6.09-6.52S1077.25,211.87,1077.25,215.63Zm-9.75.13c0,2.69,1.55,4.72,3.73,4.72s3.73-2,3.73-4.77c0-2.09-1-4.73-3.68-4.73S1067.5,213.42,1067.5,215.76Z"/><path class="cls-3" d="M1080.75,209.59l2.42,6.9c.4,1.12.73,2.14,1,3.15h.07c.28-1,.64-2,1-3.15l2.39-6.9H1090l-4.83,12.29H1083l-4.67-12.29Z"/><path class="cls-3" d="M1093.09,216.14a3.93,3.93,0,0,0,4.22,4.26,8.17,8.17,0,0,0,3.4-.63l.38,1.6a10.06,10.06,0,0,1-4.09.76c-3.78,0-6-2.49-6-6.2s2.18-6.62,5.76-6.62c4,0,5.08,3.53,5.08,5.79a10.18,10.18,0,0,1-.07,1Zm6.55-1.6c0-1.42-.58-3.63-3.09-3.63-2.26,0-3.25,2.08-3.43,3.63Z"/><path class="cls-3" d="M1104.57,213.42c0-1.45,0-2.69-.1-3.83h2l.08,2.41h.1a3.68,3.68,0,0,1,3.4-2.69,2.51,2.51,0,0,1,.64.07v2.11a3.41,3.41,0,0,0-.76-.08,3.14,3.14,0,0,0-3,2.87,6.44,6.44,0,0,0-.1,1v6.56h-2.21Z"/><path class="cls-3" d="M1113,212.91c0-1.27,0-2.31-.1-3.32h2l.13,2h0a4.51,4.51,0,0,1,4.06-2.31c1.7,0,4.34,1,4.34,5.23v7.34h-2.23v-7.09c0-2-.74-3.63-2.85-3.63a3.17,3.17,0,0,0-3,2.29,3.22,3.22,0,0,0-.15,1v7.39H1113Z"/><path class="cls-3" d="M1133.87,221.88l-.18-1.55h-.08a4.56,4.56,0,0,1-3.75,1.82,3.5,3.5,0,0,1-3.76-3.52c0-3,2.64-4.6,7.39-4.58v-.25a2.54,2.54,0,0,0-2.8-2.84,6.13,6.13,0,0,0-3.2.91l-.5-1.47a7.58,7.58,0,0,1,4-1.09c3.76,0,4.68,2.56,4.68,5v4.6a17.62,17.62,0,0,0,.2,2.95Zm-.33-6.28c-2.44,0-5.21.38-5.21,2.77a2,2,0,0,0,2.11,2.13,3.06,3.06,0,0,0,3-2.05,2.27,2.27,0,0,0,.13-.71Z"/><path class="cls-3" d="M1139.3,212.91c0-1.27,0-2.31-.1-3.32h2l.13,2h0a4.51,4.51,0,0,1,4.06-2.31c1.7,0,4.34,1,4.34,5.23v7.34h-2.23v-7.09c0-2-.74-3.63-2.85-3.63a3.17,3.17,0,0,0-3,2.29,3,3,0,0,0-.16,1v7.39h-2.23Z"/><path class="cls-3" d="M1162.15,221.42a8.3,8.3,0,0,1-3.53.71c-3.71,0-6.12-2.51-6.12-6.27a6.24,6.24,0,0,1,6.6-6.53,7.39,7.39,0,0,1,3.1.64l-.51,1.72a5.23,5.23,0,0,0-2.59-.58c-2.81,0-4.34,2.08-4.34,4.65,0,2.84,1.83,4.59,4.27,4.59a6.34,6.34,0,0,0,2.74-.61Z"/><path class="cls-3" d="M1165.86,216.14c.05,3,2,4.26,4.21,4.26a8.14,8.14,0,0,0,3.4-.63l.38,1.6a10,10,0,0,1-4.08.76c-3.79,0-6-2.49-6-6.2s2.19-6.62,5.77-6.62c4,0,5.08,3.53,5.08,5.79a9.62,9.62,0,0,1-.08,1Zm6.55-1.6c0-1.42-.59-3.63-3.1-3.63-2.26,0-3.25,2.08-3.43,3.63Z"/><path class="cls-3" d="M896.92,274.57a7.8,7.8,0,0,0,4,1.12c2.26,0,3.58-1.19,3.58-2.92s-.92-2.51-3.23-3.4c-2.79-1-4.52-2.44-4.52-4.85,0-2.67,2.21-4.65,5.54-4.65a7.78,7.78,0,0,1,3.78.84l-.61,1.8a6.88,6.88,0,0,0-3.25-.81c-2.33,0-3.22,1.4-3.22,2.56,0,1.6,1,2.39,3.4,3.3,2.89,1.12,4.37,2.52,4.37,5s-2,4.93-6,4.93a8.8,8.8,0,0,1-4.36-1.09Z"/><path class="cls-3" d="M919.94,273.91c0,1.27,0,2.39.11,3.35h-2l-.13-2h-.05a4.63,4.63,0,0,1-4.06,2.28c-1.93,0-4.25-1.06-4.25-5.38V265h2.24v6.81c0,2.34.71,3.91,2.74,3.91a3.24,3.24,0,0,0,3-2,3.45,3.45,0,0,0,.2-1.14V265h2.23Z"/><path class="cls-3" d="M923.65,269c0-1.58,0-2.85-.1-4h2l.11,2.11h.05a4.81,4.81,0,0,1,4.36-2.38c3,0,5.21,2.51,5.21,6.24,0,4.42-2.69,6.6-5.59,6.6a4.31,4.31,0,0,1-3.78-1.93h0v6.68h-2.21Zm2.21,3.27a5.18,5.18,0,0,0,.1.92,3.45,3.45,0,0,0,3.35,2.61c2.36,0,3.73-1.93,3.73-4.75,0-2.46-1.29-4.57-3.65-4.57a3.57,3.57,0,0,0-3.38,2.77,3.93,3.93,0,0,0-.15.91Z"/><path class="cls-3" d="M938.1,269c0-1.58-.06-2.85-.11-4h2l.1,2.11h0a4.83,4.83,0,0,1,4.37-2.38c3,0,5.2,2.51,5.2,6.24,0,4.42-2.69,6.6-5.58,6.6a4.29,4.29,0,0,1-3.78-1.93h-.06v6.68h-2.2Zm2.2,3.27a5.15,5.15,0,0,0,.11.92,3.45,3.45,0,0,0,3.35,2.61c2.36,0,3.73-1.93,3.73-4.75,0-2.46-1.29-4.57-3.66-4.57a3.56,3.56,0,0,0-3.37,2.77,3.47,3.47,0,0,0-.16.91Z"/><path class="cls-3" d="M963.66,271c0,4.54-3.15,6.52-6.12,6.52-3.32,0-5.89-2.43-5.89-6.32,0-4.11,2.69-6.52,6.1-6.52S963.66,267.26,963.66,271Zm-9.75.12c0,2.7,1.55,4.73,3.73,4.73s3.74-2,3.74-4.78c0-2.08-1-4.72-3.68-4.72S953.91,268.81,953.91,271.14Z"/><path class="cls-3" d="M966.48,268.81c0-1.45,0-2.69-.1-3.84h2l.08,2.42h.1a3.69,3.69,0,0,1,3.4-2.69,2.51,2.51,0,0,1,.64.07v2.11a3.41,3.41,0,0,0-.76-.08,3.14,3.14,0,0,0-3,2.87,6.44,6.44,0,0,0-.1,1v6.55h-2.21Z"/><path class="cls-3" d="M978.08,261.45V265h3.2v1.71h-3.2v6.62c0,1.53.43,2.39,1.68,2.39a5.27,5.27,0,0,0,1.29-.15l.1,1.67a5.37,5.37,0,0,1-2,.31,3.09,3.09,0,0,1-2.41-.94,4.57,4.57,0,0,1-.86-3.2v-6.7H974V265h1.91V262Z"/><path class="cls-3" d="M996,277.26l-.18-1.55h-.07a4.58,4.58,0,0,1-3.76,1.83,3.5,3.5,0,0,1-3.76-3.53c0-3,2.64-4.59,7.39-4.57v-.25a2.53,2.53,0,0,0-2.79-2.84,6.08,6.08,0,0,0-3.2.91l-.51-1.47a7.65,7.65,0,0,1,4-1.09c3.75,0,4.67,2.56,4.67,5v4.6a17.49,17.49,0,0,0,.2,2.94Zm-.33-6.27c-2.44-.05-5.2.38-5.2,2.77a2,2,0,0,0,2.1,2.13,3,3,0,0,0,3-2.05,2.27,2.27,0,0,0,.13-.71Z"/><path class="cls-3" d="M1001.41,268.3c0-1.27,0-2.31-.1-3.33h2l.13,2h.05a4.51,4.51,0,0,1,4.06-2.31c1.7,0,4.34,1,4.34,5.23v7.33h-2.23v-7.08c0-2-.74-3.63-2.84-3.63a3.17,3.17,0,0,0-3,2.28,3.28,3.28,0,0,0-.15,1.05v7.38h-2.24Z"/><path class="cls-3" d="M1026.12,259.24v14.85c0,1.09,0,2.34.1,3.17h-2l-.1-2.13h0a4.54,4.54,0,0,1-4.19,2.41c-3,0-5.25-2.51-5.25-6.24,0-4.09,2.51-6.6,5.51-6.6a4.1,4.1,0,0,1,3.7,1.87h0v-7.33ZM1023.88,270a3.76,3.76,0,0,0-.1-.94,3.29,3.29,0,0,0-3.22-2.59c-2.31,0-3.68,2-3.68,4.75,0,2.48,1.21,4.54,3.63,4.54a3.35,3.35,0,0,0,3.27-2.67,3.68,3.68,0,0,0,.1-1Z"/><path class="cls-3" d="M1034.9,275a5.88,5.88,0,0,0,2.95.89c1.62,0,2.38-.82,2.38-1.83s-.63-1.65-2.28-2.26c-2.21-.79-3.25-2-3.25-3.48,0-2,1.6-3.6,4.24-3.6a6.11,6.11,0,0,1,3,.76l-.56,1.62a4.81,4.81,0,0,0-2.51-.71c-1.32,0-2.06.76-2.06,1.68s.74,1.47,2.34,2.08c2.13.81,3.22,1.88,3.22,3.71,0,2.15-1.68,3.68-4.6,3.68a7,7,0,0,1-3.45-.84Z"/><path class="cls-3" d="M1055.54,273.91c0,1.27,0,2.39.1,3.35h-2l-.12-2h0a4.63,4.63,0,0,1-4.07,2.28c-1.93,0-4.24-1.06-4.24-5.38V265h2.24v6.81c0,2.34.71,3.91,2.74,3.91a3.16,3.16,0,0,0,3.15-3.17V265h2.23Z"/><path class="cls-3" d="M1058.94,275a5.88,5.88,0,0,0,3,.89c1.62,0,2.39-.82,2.39-1.83s-.64-1.65-2.29-2.26c-2.21-.79-3.25-2-3.25-3.48,0-2,1.6-3.6,4.24-3.6a6.08,6.08,0,0,1,3,.76l-.56,1.62a4.81,4.81,0,0,0-2.51-.71c-1.32,0-2.06.76-2.06,1.68s.74,1.47,2.34,2.08c2.13.81,3.22,1.88,3.22,3.71,0,2.15-1.67,3.68-4.59,3.68a7,7,0,0,1-3.46-.84Z"/><path class="cls-3" d="M1072,261.45V265h3.2v1.71H1072v6.62c0,1.53.43,2.39,1.68,2.39a5.27,5.27,0,0,0,1.29-.15l.11,1.67a5.47,5.47,0,0,1-2,.31,3.1,3.1,0,0,1-2.41-.94,4.57,4.57,0,0,1-.86-3.2v-6.7h-1.9V265h1.9V262Z"/><path class="cls-3" d="M1078.8,271.53c0,3,2,4.26,4.21,4.26a8.14,8.14,0,0,0,3.4-.63l.38,1.6a10,10,0,0,1-4.08.76c-3.79,0-6-2.49-6-6.2s2.19-6.62,5.77-6.62c4,0,5.08,3.52,5.08,5.78a7.61,7.61,0,0,1-.08,1Zm6.55-1.6c0-1.43-.59-3.64-3.1-3.64-2.26,0-3.25,2.09-3.43,3.64Z"/><path class="cls-3" d="M1090.27,268.3c0-1.27,0-2.31-.1-3.33h2l.13,2h0a4.51,4.51,0,0,1,4.06-2.31c1.7,0,4.34,1,4.34,5.23v7.33h-2.23v-7.08c0-2-.74-3.63-2.84-3.63a3.17,3.17,0,0,0-3,2.28,3.28,3.28,0,0,0-.15,1.05v7.38h-2.24Z"/><path class="cls-3" d="M1111.17,277.26l-.18-1.55h-.08a4.54,4.54,0,0,1-3.75,1.83,3.5,3.5,0,0,1-3.76-3.53c0-3,2.64-4.59,7.39-4.57v-.25a2.53,2.53,0,0,0-2.8-2.84,6.13,6.13,0,0,0-3.2.91l-.5-1.47a7.61,7.61,0,0,1,4-1.09c3.76,0,4.68,2.56,4.68,5v4.6a17.49,17.49,0,0,0,.2,2.94Zm-.33-6.27c-2.44-.05-5.21.38-5.21,2.77a2,2,0,0,0,2.11,2.13,3,3,0,0,0,3-2.05,2.27,2.27,0,0,0,.13-.71Z"/><path class="cls-3" d="M1116.6,268.3c0-1.27,0-2.31-.1-3.33h2l.13,2h.05a4.51,4.51,0,0,1,4.06-2.31c1.7,0,4.34,1,4.34,5.23v7.33h-2.23v-7.08c0-2-.74-3.63-2.85-3.63a3.17,3.17,0,0,0-3,2.28,3.27,3.27,0,0,0-.16,1.05v7.38h-2.23Z"/><path class="cls-3" d="M1139.45,276.81a8.3,8.3,0,0,1-3.53.71c-3.71,0-6.12-2.52-6.12-6.27a6.24,6.24,0,0,1,6.6-6.53,7.39,7.39,0,0,1,3.1.64l-.51,1.72a5.23,5.23,0,0,0-2.59-.58c-2.81,0-4.34,2.08-4.34,4.64,0,2.85,1.83,4.6,4.27,4.6a6.31,6.31,0,0,0,2.74-.61Z"/><path class="cls-3" d="M1143.16,271.53c0,3,2,4.26,4.21,4.26a8.14,8.14,0,0,0,3.4-.63l.39,1.6a10.1,10.1,0,0,1-4.09.76c-3.79,0-6-2.49-6-6.2s2.19-6.62,5.77-6.62c4,0,5.08,3.52,5.08,5.78a7.61,7.61,0,0,1-.08,1Zm6.55-1.6c0-1.43-.59-3.64-3.1-3.64-2.26,0-3.25,2.09-3.43,3.64Z"/><path class="cls-3" d="M897.22,332.65V315.54h2.41l5.49,8.66a47.63,47.63,0,0,1,3.07,5.56l0,0c-.2-2.28-.25-4.37-.25-7v-7.16h2.08v17.11h-2.24L902.4,324a55.25,55.25,0,0,1-3.2-5.71l-.07,0c.12,2.16.17,4.22.17,7.06v7.31Z"/><path class="cls-3" d="M920.65,332.65l-.17-1.55h-.08a4.58,4.58,0,0,1-3.76,1.83,3.5,3.5,0,0,1-3.76-3.53c0-3,2.65-4.59,7.39-4.57v-.25a2.54,2.54,0,0,0-2.79-2.85,6.11,6.11,0,0,0-3.2.92l-.51-1.47a7.65,7.65,0,0,1,4-1.1c3.76,0,4.67,2.57,4.67,5v4.6a16.51,16.51,0,0,0,.21,2.94Zm-.33-6.27c-2.43-.05-5.2.38-5.2,2.77a2,2,0,0,0,2.11,2.13,3.05,3.05,0,0,0,3-2.06,2.46,2.46,0,0,0,.12-.71Z"/><path class="cls-3" d="M928.68,316.83v3.53h3.2v1.7h-3.2v6.63c0,1.52.43,2.39,1.67,2.39a5.29,5.29,0,0,0,1.3-.15l.1,1.67a5.41,5.41,0,0,1-2,.31,3.09,3.09,0,0,1-2.41-.94,4.54,4.54,0,0,1-.87-3.2v-6.71h-1.9v-1.7h1.9v-2.94Z"/><path class="cls-3" d="M936.88,316.91a1.39,1.39,0,0,1-2.77,0,1.36,1.36,0,0,1,1.4-1.4A1.33,1.33,0,0,1,936.88,316.91Zm-2.49,15.74V320.36h2.23v12.29Z"/><path class="cls-3" d="M941.19,320.36l2.41,6.91a29.62,29.62,0,0,1,1,3.15h.08c.28-1,.64-2,1-3.15l2.39-6.91h2.33l-4.82,12.29h-2.13l-4.67-12.29Z"/><path class="cls-3" d="M953.53,326.91c.05,3,2,4.27,4.22,4.27a8,8,0,0,0,3.4-.64l.38,1.6a9.85,9.85,0,0,1-4.09.77c-3.78,0-6-2.49-6-6.2s2.18-6.63,5.76-6.63c4,0,5.08,3.53,5.08,5.79a7.3,7.3,0,0,1-.08,1Zm6.55-1.6c0-1.42-.58-3.63-3.1-3.63-2.26,0-3.25,2.09-3.42,3.63Z"/><path class="cls-3" d="M977.19,332.65,977,331.1h-.08a4.58,4.58,0,0,1-3.76,1.83,3.5,3.5,0,0,1-3.76-3.53c0-3,2.64-4.59,7.39-4.57v-.25a2.54,2.54,0,0,0-2.79-2.85,6.11,6.11,0,0,0-3.2.92l-.51-1.47a7.65,7.65,0,0,1,4-1.1c3.76,0,4.67,2.57,4.67,5v4.6a17.57,17.57,0,0,0,.2,2.94Zm-.33-6.27c-2.43-.05-5.2.38-5.2,2.77a2,2,0,0,0,2.11,2.13,3.05,3.05,0,0,0,3-2.06,2.46,2.46,0,0,0,.12-.71Z"/><path class="cls-3" d="M982.63,324.37c0-1.57,0-2.84-.11-4h2l.1,2.11h0a4.84,4.84,0,0,1,4.37-2.39c3,0,5.2,2.52,5.2,6.25,0,4.42-2.69,6.6-5.58,6.6a4.29,4.29,0,0,1-3.78-1.93h-.06v6.68h-2.2Zm2.2,3.28a5,5,0,0,0,.11.91,3.44,3.44,0,0,0,3.35,2.62c2.36,0,3.73-1.93,3.73-4.75,0-2.46-1.29-4.57-3.66-4.57a3.56,3.56,0,0,0-3.37,2.77,3.47,3.47,0,0,0-.16.91Z"/><path class="cls-3" d="M997.07,324.37c0-1.57-.05-2.84-.1-4h2l.1,2.11h0a4.83,4.83,0,0,1,4.37-2.39c3,0,5.2,2.52,5.2,6.25,0,4.42-2.69,6.6-5.59,6.6a4.31,4.31,0,0,1-3.78-1.93h-.05v6.68h-2.21Zm2.21,3.28a5.07,5.07,0,0,0,.1.91,3.45,3.45,0,0,0,3.35,2.62c2.36,0,3.74-1.93,3.74-4.75,0-2.46-1.3-4.57-3.66-4.57a3.57,3.57,0,0,0-3.38,2.77,3.93,3.93,0,0,0-.15.91Z"/><path class="cls-3" d="M1011.21,330.37a5.88,5.88,0,0,0,2.95.89c1.62,0,2.38-.82,2.38-1.83s-.63-1.65-2.28-2.26c-2.21-.79-3.25-2-3.25-3.48,0-2,1.6-3.61,4.24-3.61a6.11,6.11,0,0,1,3,.77l-.56,1.62a4.81,4.81,0,0,0-2.51-.71c-1.32,0-2.06.76-2.06,1.68s.74,1.47,2.34,2.08c2.13.81,3.22,1.88,3.22,3.7,0,2.16-1.67,3.69-4.59,3.69a7,7,0,0,1-3.46-.84Z"/><path class="cls-3" d="M1033.76,332.65l-.18-1.55h-.08a4.54,4.54,0,0,1-3.75,1.83,3.5,3.5,0,0,1-3.76-3.53c0-3,2.64-4.59,7.39-4.57v-.25a2.54,2.54,0,0,0-2.8-2.85,6.14,6.14,0,0,0-3.2.92l-.5-1.47a7.59,7.59,0,0,1,4-1.1c3.76,0,4.67,2.57,4.67,5v4.6a17.5,17.5,0,0,0,.21,2.94Zm-.33-6.27c-2.44-.05-5.21.38-5.21,2.77a2,2,0,0,0,2.11,2.13,3.05,3.05,0,0,0,3-2.06,2.17,2.17,0,0,0,.13-.71Z"/><path class="cls-3" d="M1039.19,323.69c0-1.27,0-2.31-.1-3.33h2l.13,2h0a4.53,4.53,0,0,1,4.06-2.31c1.7,0,4.34,1,4.34,5.23v7.34h-2.23v-7.08c0-2-.74-3.63-2.85-3.63a3.17,3.17,0,0,0-3,2.28,3,3,0,0,0-.16,1v7.39h-2.23Z"/><path class="cls-3" d="M1063.89,314.62v14.86c0,1.09,0,2.33.11,3.17h-2l-.1-2.13h-.05a4.56,4.56,0,0,1-4.19,2.41c-3,0-5.26-2.51-5.26-6.24,0-4.09,2.52-6.61,5.51-6.61a4.12,4.12,0,0,1,3.71,1.88h.05v-7.34Zm-2.23,10.74a4.2,4.2,0,0,0-.1-.93,3.28,3.28,0,0,0-3.23-2.59c-2.31,0-3.68,2-3.68,4.74,0,2.49,1.22,4.55,3.63,4.55a3.36,3.36,0,0,0,3.28-2.67,4.16,4.16,0,0,0,.1-1Z"/><path class="cls-3" d="M1073,324.2c0-1.45,0-2.69-.1-3.84h1.95l.08,2.41h.1a3.69,3.69,0,0,1,3.41-2.69,2.41,2.41,0,0,1,.63.08v2.11a3.41,3.41,0,0,0-.76-.08,3.13,3.13,0,0,0-3,2.87,6.33,6.33,0,0,0-.1,1v6.55H1073Z"/><path class="cls-3" d="M1082.27,326.91c0,3,2,4.27,4.22,4.27a8,8,0,0,0,3.4-.64l.38,1.6a9.85,9.85,0,0,1-4.09.77c-3.78,0-6-2.49-6-6.2s2.18-6.63,5.76-6.63c4,0,5.08,3.53,5.08,5.79a9.75,9.75,0,0,1-.07,1Zm6.55-1.6c0-1.42-.58-3.63-3.09-3.63-2.26,0-3.25,2.09-3.43,3.63Z"/><path class="cls-3" d="M1093.75,324.37c0-1.57,0-2.84-.1-4h2l.1,2.11h.06a4.82,4.82,0,0,1,4.36-2.39c3,0,5.21,2.52,5.21,6.25,0,4.42-2.69,6.6-5.59,6.6A4.31,4.31,0,0,1,1096,331h0v6.68h-2.21Zm2.21,3.28a5.07,5.07,0,0,0,.1.91,3.45,3.45,0,0,0,3.35,2.62c2.36,0,3.73-1.93,3.73-4.75,0-2.46-1.29-4.57-3.65-4.57a3.56,3.56,0,0,0-3.38,2.77,3.47,3.47,0,0,0-.15.91Z"/><path class="cls-3" d="M1119.32,326.41c0,4.54-3.15,6.52-6.12,6.52-3.33,0-5.89-2.44-5.89-6.32,0-4.11,2.69-6.53,6.09-6.53S1119.32,322.65,1119.32,326.41Zm-9.75.12c0,2.69,1.54,4.73,3.73,4.73s3.73-2,3.73-4.78c0-2.08-1-4.72-3.68-4.72S1109.57,324.2,1109.57,326.53Z"/><path class="cls-3" d="M1122.13,324.2c0-1.45,0-2.69-.1-3.84h2l.07,2.41h.1a3.69,3.69,0,0,1,3.41-2.69,2.41,2.41,0,0,1,.63.08v2.11a3.41,3.41,0,0,0-.76-.08,3.14,3.14,0,0,0-3,2.87,6.33,6.33,0,0,0-.1,1v6.55h-2.21Z"/><path class="cls-3" d="M1133.74,316.83v3.53h3.19v1.7h-3.19v6.63c0,1.52.43,2.39,1.67,2.39a5.29,5.29,0,0,0,1.3-.15l.1,1.67a5.41,5.41,0,0,1-2,.31,3.09,3.09,0,0,1-2.41-.94,4.54,4.54,0,0,1-.87-3.2v-6.71h-1.9v-1.7h1.9v-2.94Z"/><path class="cls-3" d="M1141.94,316.91a1.39,1.39,0,0,1-2.77,0,1.36,1.36,0,0,1,1.39-1.4A1.33,1.33,0,0,1,1141.94,316.91Zm-2.49,15.74V320.36h2.23v12.29Z"/><path class="cls-3" d="M1145.39,323.69c0-1.27,0-2.31-.1-3.33h2l.12,2h0a4.55,4.55,0,0,1,4.07-2.31c1.7,0,4.34,1,4.34,5.23v7.34h-2.24v-7.08c0-2-.73-3.63-2.84-3.63a3.19,3.19,0,0,0-3,2.28,3.26,3.26,0,0,0-.15,1v7.39h-2.23Z"/><path class="cls-3" d="M1170.07,320.36c0,.89-.11,1.88-.11,3.38v7.13c0,2.82-.55,4.55-1.75,5.62a6.54,6.54,0,0,1-4.47,1.47,7.91,7.91,0,0,1-4.08-1l.55-1.7a7,7,0,0,0,3.61,1c2.29,0,4-1.2,4-4.29v-1.38h0a4.38,4.38,0,0,1-3.91,2.06c-3,0-5.23-2.59-5.23-6,0-4.17,2.72-6.53,5.54-6.53a4.08,4.08,0,0,1,3.83,2.14h0l.1-1.86Zm-2.31,4.85a3.17,3.17,0,0,0-.13-1,3.22,3.22,0,0,0-3.12-2.36c-2.14,0-3.66,1.8-3.66,4.64,0,2.41,1.22,4.42,3.63,4.42a3.26,3.26,0,0,0,3.1-2.29,3.78,3.78,0,0,0,.18-1.19Z"/><path class="cls-3" d="M907.76,340v14.86c0,1.09,0,2.33.1,3.17h-2l-.1-2.13h0a4.54,4.54,0,0,1-4.19,2.41c-3,0-5.25-2.51-5.25-6.25,0-4.08,2.51-6.6,5.51-6.6a4.11,4.11,0,0,1,3.7,1.88h0V340Zm-2.24,10.74a3.76,3.76,0,0,0-.1-.94,3.29,3.29,0,0,0-3.22-2.59c-2.31,0-3.68,2-3.68,4.75,0,2.49,1.21,4.55,3.63,4.55a3.35,3.35,0,0,0,3.27-2.67,3.68,3.68,0,0,0,.1-1Z"/><path class="cls-3" d="M918.27,358l-.18-1.55H918a4.54,4.54,0,0,1-3.75,1.83,3.5,3.5,0,0,1-3.76-3.53c0-3,2.64-4.6,7.39-4.57V350a2.54,2.54,0,0,0-2.8-2.85,6.08,6.08,0,0,0-3.19.92l-.51-1.48a7.61,7.61,0,0,1,4-1.09c3.76,0,4.68,2.57,4.68,5v4.6a17.57,17.57,0,0,0,.2,2.94Zm-.33-6.27c-2.44,0-5.21.38-5.21,2.77a2,2,0,0,0,2.11,2.13,3.05,3.05,0,0,0,3-2.06,2.22,2.22,0,0,0,.13-.71Z"/><path class="cls-3" d="M923.4,355.76a5.84,5.84,0,0,0,2.94.88c1.63,0,2.39-.81,2.39-1.82s-.64-1.65-2.29-2.26c-2.21-.79-3.25-2-3.25-3.48,0-2,1.6-3.61,4.24-3.61a6.23,6.23,0,0,1,3,.76l-.56,1.63a4.76,4.76,0,0,0-2.52-.71c-1.32,0-2,.76-2,1.67s.73,1.48,2.33,2.09c2.13.81,3.23,1.87,3.23,3.7,0,2.16-1.68,3.68-4.6,3.68a7.09,7.09,0,0,1-3.45-.83Z"/><path class="cls-3" d="M933.75,340H936v7.67h0a4.16,4.16,0,0,1,1.6-1.57,4.61,4.61,0,0,1,2.28-.64c1.66,0,4.3,1,4.3,5.26V358H942V351c0-2-.73-3.65-2.84-3.65a3.21,3.21,0,0,0-3,2.23,2.64,2.64,0,0,0-.15,1.07V358h-2.24Z"/><path class="cls-3" d="M947.74,358c0-.84.11-2.08.11-3.17V340h2.2v7.72h.06a4.56,4.56,0,0,1,4.18-2.26c3.05,0,5.21,2.54,5.18,6.27,0,4.4-2.76,6.58-5.51,6.58a4.39,4.39,0,0,1-4.11-2.31h-.07l-.11,2Zm2.31-4.93a4.38,4.38,0,0,0,.11.82,3.43,3.43,0,0,0,3.35,2.61c2.33,0,3.73-1.9,3.73-4.72,0-2.46-1.27-4.57-3.66-4.57a3.56,3.56,0,0,0-3.4,2.74,4.52,4.52,0,0,0-.13.92Z"/><path class="cls-3" d="M973.41,351.79c0,4.55-3.15,6.53-6.12,6.53-3.32,0-5.89-2.44-5.89-6.32,0-4.12,2.69-6.53,6.1-6.53S973.41,348,973.41,351.79Zm-9.75.13c0,2.69,1.55,4.72,3.73,4.72s3.74-2,3.74-4.77c0-2.08-1-4.72-3.68-4.72S963.66,349.59,963.66,351.92Z"/><path class="cls-3" d="M983,358l-.17-1.55h-.08a4.58,4.58,0,0,1-3.76,1.83,3.5,3.5,0,0,1-3.76-3.53c0-3,2.65-4.6,7.39-4.57V350a2.54,2.54,0,0,0-2.79-2.85,6.11,6.11,0,0,0-3.2.92l-.51-1.48a7.65,7.65,0,0,1,4-1.09c3.76,0,4.67,2.57,4.67,5v4.6a16.51,16.51,0,0,0,.21,2.94Zm-.33-6.27c-2.43,0-5.2.38-5.2,2.77a2,2,0,0,0,2.11,2.13,3.06,3.06,0,0,0,3-2.06,2.52,2.52,0,0,0,.12-.71Z"/><path class="cls-3" d="M988.47,349.59c0-1.45,0-2.7-.1-3.84h2l.08,2.41h.1a3.68,3.68,0,0,1,3.4-2.69,2.55,2.55,0,0,1,.64.08v2.11a2.94,2.94,0,0,0-.77-.08,3.13,3.13,0,0,0-3,2.87,6.33,6.33,0,0,0-.1,1V358h-2.21Z"/><path class="cls-3" d="M1007.13,340v14.86c0,1.09,0,2.33.1,3.17h-2l-.1-2.13h0a4.54,4.54,0,0,1-4.19,2.41c-3,0-5.25-2.51-5.25-6.25,0-4.08,2.51-6.6,5.51-6.6a4.11,4.11,0,0,1,3.7,1.88h0V340Zm-2.24,10.74a3.76,3.76,0,0,0-.1-.94,3.29,3.29,0,0,0-3.22-2.59c-2.31,0-3.68,2-3.68,4.75,0,2.49,1.21,4.55,3.63,4.55a3.35,3.35,0,0,0,3.27-2.67,3.68,3.68,0,0,0,.1-1Z"/><path class="cls-3" d="M1010.53,355.76a5.87,5.87,0,0,0,2.94.88c1.63,0,2.39-.81,2.39-1.82s-.63-1.65-2.28-2.26c-2.21-.79-3.25-2-3.25-3.48,0-2,1.6-3.61,4.24-3.61a6.22,6.22,0,0,1,3,.76l-.56,1.63a4.72,4.72,0,0,0-2.51-.71c-1.32,0-2.06.76-2.06,1.67s.74,1.48,2.33,2.09c2.14.81,3.23,1.87,3.23,3.7,0,2.16-1.68,3.68-4.6,3.68a7.09,7.09,0,0,1-3.45-.83Z"/><circle class="cls-4" cx="872.18" cy="215.04" r="4.5"/><circle class="cls-4" cx="872" cy="267.35" r="4.5"/><circle class="cls-4" cx="871.82" cy="325.66" r="4.5"/><polygon class="cls-5" points="-0.24 0.04 -0.24 485 407.73 485 407.73 0.14 -0.24 0.04"/><line class="cls-6" x1="18.86" y1="171.03" x2="388.63" y2="170.96"/><path class="cls-3" d="M168.73,71.64c-.14-3-.31-6.5-.27-9.58h-.11c-.74,2.78-1.69,5.86-2.71,8.73l-3.33,9.88h-3.22L156,70.93c-.88-2.91-1.7-6-2.31-8.87h-.07c-.1,3-.23,6.6-.4,9.71L152.74,81h-3.91l1.53-22.82h5.5l3,9.18c.81,2.67,1.53,5.38,2.1,7.92h.11c.61-2.48,1.39-5.28,2.27-8l3.16-9.14h5.43L173.24,81h-4.07Z"/><path class="cls-3" d="M193.21,72.55c0,6.06-4.27,8.77-8.48,8.77-4.69,0-8.29-3.22-8.29-8.5S180,64.09,185,64.09,193.21,67.54,193.21,72.55Zm-12.46.17c0,3.18,1.56,5.59,4.11,5.59,2.38,0,4-2.34,4-5.66,0-2.57-1.15-5.51-4-5.51S180.75,70,180.75,72.72Z"/><path class="cls-3" d="M211.89,56.92V76.31c0,1.69.07,3.52.14,4.64h-3.74l-.17-2.61h-.07a5.93,5.93,0,0,1-5.39,3c-3.94,0-7.07-3.35-7.07-8.43,0-5.52,3.43-8.8,7.4-8.8a5.29,5.29,0,0,1,4.66,2.17h.06V56.92Zm-4.18,14.41a5.64,5.64,0,0,0-.1-1.08,3.66,3.66,0,0,0-3.6-2.94c-2.68,0-4.17,2.37-4.17,5.44S201.33,78,204,78a3.68,3.68,0,0,0,3.6-3,4.71,4.71,0,0,0,.13-1.22Z"/><path class="cls-3" d="M219.33,73.87c.1,3,2.44,4.27,5.09,4.27a12.36,12.36,0,0,0,4.59-.75l.61,2.88a15.79,15.79,0,0,1-5.78,1c-5.36,0-8.52-3.28-8.52-8.32,0-4.57,2.79-8.87,8.08-8.87s7.13,4.4,7.13,8a10.09,10.09,0,0,1-.13,1.76ZM226.59,71c0-1.52-.64-4-3.42-4-2.58,0-3.67,2.34-3.84,4Z"/><path class="cls-3" d="M233.9,69.78c0-2.24,0-3.83-.14-5.32h3.63l.14,3.15h.14a4.93,4.93,0,0,1,4.51-3.52,4.31,4.31,0,0,1,1,.1v3.93a5.72,5.72,0,0,0-1.23-.14,3.68,3.68,0,0,0-3.73,3.15,6.88,6.88,0,0,0-.14,1.29V81H233.9Z"/><path class="cls-3" d="M246,69.37c0-1.89,0-3.49-.14-4.91h3.67l.2,2.47h.1a6,6,0,0,1,5.26-2.84C258,64.09,261,66,261,71.16V81h-4.18V71.64c0-2.37-.88-4.16-3.15-4.16a3.49,3.49,0,0,0-3.26,2.43,4.12,4.12,0,0,0-.17,1.36V81H246Z"/><path class="cls-3" d="M269.86,59.86a2.35,2.35,0,1,1-2.34-2.27A2.21,2.21,0,0,1,269.86,59.86ZM265.41,81V64.46h4.21V81Z"/><path class="cls-3" d="M272.54,78.54l6.21-7.92c.85-1,1.57-1.82,2.45-2.77v-.07h-8.05V64.46h13.14V67l-6.08,7.75c-.81,1-1.59,1.93-2.44,2.81v.07h8.73V81h-14Z"/><path class="cls-3" d="M298.69,81l-.27-1.83h-.11a6.17,6.17,0,0,1-4.89,2.2,4.91,4.91,0,0,1-5.19-4.91c0-4.16,3.7-6.26,9.81-6.23v-.27c0-1.08-.44-2.87-3.36-2.87a8.79,8.79,0,0,0-4.45,1.21l-.81-2.7a11.86,11.86,0,0,1,6-1.46c5.3,0,6.83,3.35,6.83,6.94v6a26.41,26.41,0,0,0,.24,4Zm-.55-8.06c-2.95-.07-5.77.58-5.77,3.08a2.19,2.19,0,0,0,2.38,2.37A3.39,3.39,0,0,0,298,76.07a3,3,0,0,0,.13-.91Z"/><path class="cls-3" d="M311.22,59.76v4.7h4v3.12h-4v7.27c0,2,.54,3.05,2.14,3.05a6.34,6.34,0,0,0,1.63-.2l.07,3.18a9.5,9.5,0,0,1-3,.4,4.86,4.86,0,0,1-3.6-1.35c-.88-1-1.29-2.44-1.29-4.6V67.58h-2.37V64.46h2.37V60.74Z"/><path class="cls-3" d="M322.8,59.86a2.35,2.35,0,1,1-2.34-2.27A2.21,2.21,0,0,1,322.8,59.86ZM318.35,81V64.46h4.21V81Z"/><path class="cls-3" d="M342.76,72.55c0,6.06-4.27,8.77-8.48,8.77-4.69,0-8.29-3.22-8.29-8.5s3.57-8.73,8.56-8.73S342.76,67.54,342.76,72.55Zm-12.46.17c0,3.18,1.57,5.59,4.11,5.59,2.38,0,4-2.34,4-5.66,0-2.57-1.15-5.51-4-5.51S330.3,70,330.3,72.72Z"/><path class="cls-3" d="M346.2,69.37c0-1.89,0-3.49-.14-4.91h3.67l.2,2.47h.1a6,6,0,0,1,5.26-2.84c2.89,0,5.88,1.86,5.88,7.07V81H357V71.64c0-2.37-.88-4.16-3.15-4.16a3.49,3.49,0,0,0-3.26,2.43,4.12,4.12,0,0,0-.17,1.36V81H346.2Z"/><path class="cls-3" d="M149.24,103.63c0-2.24,0-3.83-.14-5.32h3.64l.13,3.15H153a4.68,4.68,0,0,1,5.5-3.42V102a5.62,5.62,0,0,0-1.22-.14,3.69,3.69,0,0,0-3.74,3.15,6.94,6.94,0,0,0-.13,1.29v8.53h-4.18Z"/><path class="cls-3" d="M176.74,106.4c0,6.06-4.27,8.77-8.48,8.77-4.69,0-8.29-3.22-8.29-8.5s3.57-8.73,8.56-8.73S176.74,101.39,176.74,106.4Zm-12.46.17c0,3.18,1.57,5.59,4.11,5.59,2.38,0,4-2.34,4-5.66,0-2.57-1.15-5.51-4-5.51S164.28,103.83,164.28,106.57Z"/><path class="cls-3" d="M189.48,114.8l-.27-1.83h-.1a6.17,6.17,0,0,1-4.89,2.2,4.9,4.9,0,0,1-5.2-4.91c0-4.16,3.7-6.26,9.81-6.23v-.27c0-1.08-.44-2.87-3.36-2.87A8.75,8.75,0,0,0,181,102.1l-.82-2.7a11.87,11.87,0,0,1,6-1.46c5.29,0,6.82,3.35,6.82,6.94v6a26.32,26.32,0,0,0,.24,4Zm-.54-8.06c-3-.07-5.78.58-5.78,3.08a2.19,2.19,0,0,0,2.38,2.37,3.38,3.38,0,0,0,3.26-2.27,3,3,0,0,0,.14-.91Z"/><path class="cls-3" d="M212.67,90.77v19.39c0,1.69.07,3.52.14,4.64h-3.74l-.17-2.61h-.07a5.93,5.93,0,0,1-5.39,3c-3.94,0-7.06-3.35-7.06-8.43,0-5.52,3.42-8.8,7.4-8.8a5.28,5.28,0,0,1,4.65,2.17h.07V90.77Zm-4.17,14.41a5.74,5.74,0,0,0-.11-1.08,3.65,3.65,0,0,0-3.6-2.94c-2.68,0-4.17,2.37-4.17,5.45s1.49,5.21,4.14,5.21a3.68,3.68,0,0,0,3.6-2.95,4.62,4.62,0,0,0,.14-1.21Z"/><path class="cls-3" d="M224.19,103.22c0-1.89,0-3.48-.14-4.91h3.6l.17,2.44h.1A5.73,5.73,0,0,1,233,97.94a4.78,4.78,0,0,1,4.59,3h.06a6.31,6.31,0,0,1,2-2.07,5.57,5.57,0,0,1,3.33-1c2.75,0,5.53,1.86,5.53,7.14v9.72h-4.07v-9.11c0-2.74-1-4.36-3-4.36a3.19,3.19,0,0,0-2.92,2.2,6,6,0,0,0-.2,1.38v9.89h-4.07v-9.55c0-2.3-.92-3.92-2.86-3.92a3.24,3.24,0,0,0-3,2.37,3.52,3.52,0,0,0-.24,1.35v9.75h-4.07Z"/><path class="cls-3" d="M262.28,114.8,262,113h-.1a6.17,6.17,0,0,1-4.89,2.2,4.89,4.89,0,0,1-5.19-4.91c0-4.16,3.7-6.26,9.81-6.23v-.27c0-1.08-.44-2.87-3.36-2.87a8.79,8.79,0,0,0-4.45,1.21L253,99.4a11.86,11.86,0,0,1,6-1.46c5.3,0,6.83,3.35,6.83,6.94v6a26.46,26.46,0,0,0,.23,4Zm-.54-8.06c-2.95-.07-5.77.58-5.77,3.08a2.19,2.19,0,0,0,2.38,2.37,3.39,3.39,0,0,0,3.26-2.27,3,3,0,0,0,.13-.91Z"/><path class="cls-3" d="M270.23,103.8c0-2.17-.06-3.93-.13-5.49h3.66l.21,2.54H274a6.44,6.44,0,0,1,5.67-2.91c3.8,0,7,3.25,7,8.4,0,6-3.77,8.83-7.54,8.83a5.44,5.44,0,0,1-4.65-2.2h-.07v8.53h-4.18Zm4.18,4.09a4.32,4.32,0,0,0,.13,1.15,3.78,3.78,0,0,0,3.67,2.91c2.65,0,4.21-2.2,4.21-5.45,0-2.91-1.42-5.28-4.11-5.28a4.31,4.31,0,0,0-3.9,4.13Z"/><path class="cls-3" d="M74.51,205a26.59,26.59,0,0,1,4.24-.33,7,7,0,0,1,4.8,1.43,4.59,4.59,0,0,1,1.5,3.58,5,5,0,0,1-1.32,3.65,7.07,7.07,0,0,1-5.23,1.88,7.48,7.48,0,0,1-1.78-.15v6.85H74.51Zm2.21,8.26a7.79,7.79,0,0,0,1.83.17c2.67,0,4.29-1.29,4.29-3.65s-1.6-3.35-4-3.35a9.5,9.5,0,0,0-2.08.17Z"/><path class="cls-3" d="M98.43,215.63c0,4.54-3.15,6.52-6.12,6.52-3.33,0-5.89-2.43-5.89-6.32,0-4.11,2.69-6.52,6.09-6.52S98.43,211.87,98.43,215.63Zm-9.75.13c0,2.69,1.55,4.72,3.73,4.72s3.73-2,3.73-4.78c0-2.08-1-4.72-3.68-4.72S88.68,213.42,88.68,215.76Z"/><path class="cls-3" d="M101.25,213.42c0-1.45,0-2.69-.1-3.83h1.95l.08,2.41h.1a3.68,3.68,0,0,1,3.4-2.69,2.56,2.56,0,0,1,.64.07v2.11a3.44,3.44,0,0,0-.77-.08,3.13,3.13,0,0,0-3,2.87,6.44,6.44,0,0,0-.1,1v6.55h-2.21Z"/><path class="cls-3" d="M112.85,206.06v3.53h3.2v1.7h-3.2v6.62c0,1.53.43,2.39,1.68,2.39a5.27,5.27,0,0,0,1.29-.15l.1,1.67a5.41,5.41,0,0,1-2,.31,3.09,3.09,0,0,1-2.41-.94,4.53,4.53,0,0,1-.86-3.2v-6.7h-1.91v-1.7h1.91v-3Z"/><path class="cls-3" d="M118.79,221.87V211.29h-1.73v-1.7h1.73V209a5.8,5.8,0,0,1,1.42-4.29,4.3,4.3,0,0,1,3-1.14,5.31,5.31,0,0,1,1.9.35l-.3,1.73a3.38,3.38,0,0,0-1.42-.28c-1.91,0-2.39,1.68-2.39,3.56v.66h3v1.7h-3v10.58Z"/><path class="cls-3" d="M136.77,215.63c0,4.54-3.15,6.52-6.12,6.52-3.33,0-5.89-2.43-5.89-6.32,0-4.11,2.69-6.52,6.09-6.52S136.77,211.87,136.77,215.63Zm-9.75.13c0,2.69,1.54,4.72,3.73,4.72s3.73-2,3.73-4.78c0-2.08-1-4.72-3.68-4.72S127,213.42,127,215.76Z"/><path class="cls-3" d="M139.58,203.85h2.24v18h-2.24Z"/><path class="cls-3" d="M148.06,206.13a1.31,1.31,0,0,1-1.42,1.37,1.33,1.33,0,0,1-1.35-1.37,1.36,1.36,0,0,1,1.4-1.39A1.32,1.32,0,0,1,148.06,206.13Zm-2.49,15.74V209.59h2.24v12.28Z"/><path class="cls-3" d="M162.64,215.63c0,4.54-3.15,6.52-6.12,6.52-3.33,0-5.89-2.43-5.89-6.32,0-4.11,2.69-6.52,6.09-6.52S162.64,211.87,162.64,215.63Zm-9.75.13c0,2.69,1.54,4.72,3.73,4.72s3.73-2,3.73-4.78c0-2.08-1-4.72-3.68-4.72S152.89,213.42,152.89,215.76Z"/><path class="cls-3" d="M177.64,221.87l-.18-1.54h-.07a4.6,4.6,0,0,1-3.76,1.82,3.5,3.5,0,0,1-3.76-3.53c0-3,2.64-4.59,7.39-4.57v-.25a2.53,2.53,0,0,0-2.79-2.84,6.08,6.08,0,0,0-3.2.91l-.51-1.47a7.62,7.62,0,0,1,4-1.09c3.75,0,4.67,2.56,4.67,5v4.6a17.41,17.41,0,0,0,.2,2.94Zm-.33-6.27c-2.44,0-5.21.38-5.21,2.77a2,2,0,0,0,2.11,2.13,3,3,0,0,0,3-2.05,2.27,2.27,0,0,0,.13-.71Z"/><path class="cls-3" d="M183.07,212.91c0-1.27,0-2.31-.1-3.32h2l.13,2h0a4.51,4.51,0,0,1,4.06-2.31c1.7,0,4.34,1,4.34,5.23v7.33H191.3v-7.08c0-2-.74-3.63-2.84-3.63a3.17,3.17,0,0,0-3,2.29,3.22,3.22,0,0,0-.15,1v7.38h-2.24Z"/><path class="cls-3" d="M204,221.87l-.18-1.54h-.08a4.56,4.56,0,0,1-3.75,1.82,3.5,3.5,0,0,1-3.76-3.53c0-3,2.64-4.59,7.39-4.57v-.25a2.53,2.53,0,0,0-2.8-2.84,6.13,6.13,0,0,0-3.2.91l-.5-1.47a7.61,7.61,0,0,1,4-1.09c3.76,0,4.68,2.56,4.68,5v4.6a17.41,17.41,0,0,0,.2,2.94Zm-.33-6.27c-2.44,0-5.21.38-5.21,2.77a2,2,0,0,0,2.11,2.13,3,3,0,0,0,3-2.05,2.27,2.27,0,0,0,.13-.71Z"/><path class="cls-3" d="M209.4,203.85h2.23v18H209.4Z"/><path class="cls-3" d="M216.2,209.59l2.7,7.26c.27.81.58,1.77.78,2.51h0c.23-.74.49-1.67.79-2.56l2.44-7.21h2.36L222,218.35c-1.6,4.21-2.69,6.37-4.22,7.69a6.19,6.19,0,0,1-2.74,1.45l-.56-1.88a6.11,6.11,0,0,0,2-1.09,6.89,6.89,0,0,0,1.88-2.49,1.6,1.6,0,0,0,.17-.54,2,2,0,0,0-.15-.58l-4.54-11.32Z"/><path class="cls-3" d="M226.89,219.59a5.88,5.88,0,0,0,3,.89c1.62,0,2.38-.81,2.38-1.83s-.63-1.65-2.28-2.26c-2.21-.79-3.25-2-3.25-3.48,0-2,1.6-3.6,4.24-3.6a6.08,6.08,0,0,1,3,.76l-.56,1.62a4.81,4.81,0,0,0-2.51-.71c-1.32,0-2.06.76-2.06,1.68s.74,1.47,2.34,2.08c2.13.81,3.22,1.88,3.22,3.71,0,2.16-1.67,3.68-4.59,3.68a7,7,0,0,1-3.46-.84Z"/><path class="cls-3" d="M239.74,206.13a1.39,1.39,0,0,1-2.77,0,1.36,1.36,0,0,1,1.4-1.39A1.32,1.32,0,0,1,239.74,206.13Zm-2.49,15.74V209.59h2.24v12.28Z"/><path class="cls-3" d="M242.89,219.59a5.84,5.84,0,0,0,2.94.89c1.63,0,2.39-.81,2.39-1.83s-.64-1.65-2.29-2.26c-2.21-.79-3.25-2-3.25-3.48,0-2,1.6-3.6,4.24-3.6a6.13,6.13,0,0,1,3,.76l-.56,1.62a4.85,4.85,0,0,0-2.52-.71c-1.32,0-2.05.76-2.05,1.68s.73,1.47,2.33,2.08c2.14.81,3.23,1.88,3.23,3.71,0,2.16-1.68,3.68-4.6,3.68a7,7,0,0,1-3.45-.84Z"/><path class="cls-3" d="M88.93,269.75c-.12-2.39-.27-5.26-.25-7.39H88.6c-.58,2-1.29,4.14-2.15,6.5l-3,8.3H81.75L79,269c-.81-2.41-1.5-4.62-2-6.65h0c0,2.13-.18,5-.33,7.57l-.46,7.33h-2.1l1.19-17.11h2.82L81,268.43c.71,2.1,1.29,4,1.72,5.76h.08c.43-1.73,1-3.6,1.8-5.76l3-8.28h2.82l1.06,17.11H89.37Z"/><path class="cls-3" d="M101.81,277.26l-.18-1.55h-.08a4.55,4.55,0,0,1-3.76,1.83A3.5,3.5,0,0,1,94,274c0-3,2.64-4.59,7.38-4.57v-.25a2.52,2.52,0,0,0-2.79-2.84,6.13,6.13,0,0,0-3.2.91l-.51-1.47a7.65,7.65,0,0,1,4-1.09c3.76,0,4.67,2.56,4.67,5v4.6a16.44,16.44,0,0,0,.21,2.94Zm-.33-6.27c-2.44-.05-5.21.38-5.21,2.77a2,2,0,0,0,2.11,2.13,3.06,3.06,0,0,0,3-2.05,2.6,2.6,0,0,0,.13-.72Z"/><path class="cls-3" d="M109.83,261.45V265H113v1.71h-3.2v6.62c0,1.53.43,2.39,1.67,2.39a5.29,5.29,0,0,0,1.3-.15l.1,1.67a5.41,5.41,0,0,1-2,.31,3.09,3.09,0,0,1-2.41-.94,4.52,4.52,0,0,1-.87-3.2v-6.7h-1.9V265h1.9V262Z"/><path class="cls-3" d="M125.82,273.91c0,1.27,0,2.39.1,3.35h-2l-.12-2h0a4.63,4.63,0,0,1-4.07,2.28c-1.93,0-4.24-1.06-4.24-5.38V265h2.24v6.81c0,2.33.71,3.91,2.74,3.91a3.24,3.24,0,0,0,3-2,3.45,3.45,0,0,0,.2-1.14V265h2.23Z"/><path class="cls-3" d="M129.53,268.81c0-1.45,0-2.69-.1-3.84h1.95l.08,2.42h.1a3.68,3.68,0,0,1,3.4-2.69,2.51,2.51,0,0,1,.64.07v2.11a3.41,3.41,0,0,0-.76-.08,3.14,3.14,0,0,0-3,2.87,6.44,6.44,0,0,0-.1,1v6.55h-2.21Z"/><path class="cls-3" d="M140.42,261.52a1.31,1.31,0,0,1-1.42,1.37,1.33,1.33,0,0,1-1.35-1.37,1.37,1.37,0,0,1,1.4-1.4A1.33,1.33,0,0,1,140.42,261.52Zm-2.49,15.74V265h2.24v12.29Z"/><path class="cls-3" d="M146.56,261.45V265h3.2v1.71h-3.2v6.62c0,1.53.44,2.39,1.68,2.39a5.36,5.36,0,0,0,1.3-.15l.1,1.67a5.41,5.41,0,0,1-2,.31,3.12,3.12,0,0,1-2.42-.94,4.57,4.57,0,0,1-.86-3.2v-6.7h-1.9V265h1.9V262Z"/><path class="cls-3" d="M153.32,265l2.69,7.27c.28.81.58,1.77.79,2.51h0c.23-.74.48-1.68.78-2.56l2.44-7.22h2.36l-3.35,8.76c-1.6,4.22-2.69,6.38-4.21,7.7a6.1,6.1,0,0,1-2.75,1.44l-.55-1.87a6,6,0,0,0,2-1.1,6.76,6.76,0,0,0,1.88-2.48,1.67,1.67,0,0,0,.18-.54,1.81,1.81,0,0,0-.16-.58L150.88,265Z"/><path class="cls-3" d="M176.65,277.26l-.18-1.55h-.07a4.58,4.58,0,0,1-3.76,1.83,3.5,3.5,0,0,1-3.76-3.53c0-3,2.64-4.59,7.39-4.57v-.25a2.53,2.53,0,0,0-2.79-2.84,6.08,6.08,0,0,0-3.2.91l-.51-1.47a7.62,7.62,0,0,1,4-1.09c3.75,0,4.67,2.56,4.67,5v4.6a17.49,17.49,0,0,0,.2,2.94Zm-.33-6.27c-2.44-.05-5.21.38-5.21,2.77a2,2,0,0,0,2.11,2.13,3,3,0,0,0,3-2.05,2.28,2.28,0,0,0,.13-.72Z"/><path class="cls-3" d="M181.78,275a5.87,5.87,0,0,0,2.94.89c1.63,0,2.39-.82,2.39-1.83s-.64-1.65-2.29-2.26c-2.2-.79-3.25-2-3.25-3.48,0-2,1.6-3.6,4.24-3.6a6.13,6.13,0,0,1,3,.76l-.56,1.62a4.85,4.85,0,0,0-2.52-.71c-1.32,0-2,.76-2,1.68s.73,1.47,2.33,2.08c2.14.81,3.23,1.88,3.23,3.71,0,2.15-1.68,3.68-4.6,3.68a7,7,0,0,1-3.45-.84Z"/><path class="cls-3" d="M191.83,275a5.88,5.88,0,0,0,2.95.89c1.62,0,2.38-.82,2.38-1.83s-.63-1.65-2.28-2.26c-2.21-.79-3.25-2-3.25-3.48,0-2,1.6-3.6,4.24-3.6a6.11,6.11,0,0,1,3,.76l-.56,1.62a4.81,4.81,0,0,0-2.51-.71c-1.32,0-2.06.76-2.06,1.68s.74,1.47,2.34,2.08c2.13.81,3.22,1.88,3.22,3.71,0,2.15-1.67,3.68-4.59,3.68a7,7,0,0,1-3.46-.84Z"/><path class="cls-3" d="M203.43,271.53a3.93,3.93,0,0,0,4.22,4.26,8.17,8.17,0,0,0,3.4-.63l.38,1.6a10.06,10.06,0,0,1-4.09.76c-3.78,0-6-2.49-6-6.2s2.18-6.62,5.76-6.62c4,0,5.08,3.52,5.08,5.78a10.2,10.2,0,0,1-.07,1Zm6.55-1.6c0-1.43-.58-3.64-3.09-3.64-2.26,0-3.25,2.09-3.43,3.64Z"/><path class="cls-3" d="M214.6,275a5.88,5.88,0,0,0,3,.89c1.62,0,2.39-.82,2.39-1.83s-.64-1.65-2.29-2.26c-2.21-.79-3.25-2-3.25-3.48,0-2,1.6-3.6,4.24-3.6a6.05,6.05,0,0,1,3,.76l-.56,1.62a4.81,4.81,0,0,0-2.51-.71c-1.32,0-2.06.76-2.06,1.68s.74,1.47,2.34,2.08c2.13.81,3.22,1.88,3.22,3.71,0,2.15-1.67,3.68-4.59,3.68a7,7,0,0,1-3.45-.84Z"/><path class="cls-3" d="M224.66,275a5.87,5.87,0,0,0,2.94.89c1.63,0,2.39-.82,2.39-1.83s-.63-1.65-2.28-2.26c-2.21-.79-3.25-2-3.25-3.48,0-2,1.59-3.6,4.24-3.6a6.11,6.11,0,0,1,3,.76l-.56,1.62a4.82,4.82,0,0,0-2.52-.71c-1.32,0-2,.76-2,1.68s.73,1.47,2.33,2.08c2.14.81,3.23,1.88,3.23,3.71,0,2.15-1.68,3.68-4.6,3.68a7,7,0,0,1-3.45-.84Z"/><path class="cls-3" d="M235,268.3c0-1.27,0-2.31-.1-3.33h2l.1,2h.08a4.24,4.24,0,0,1,3.86-2.25,3.64,3.64,0,0,1,3.48,2.46h.05a5,5,0,0,1,1.37-1.6,4.17,4.17,0,0,1,2.71-.86c1.63,0,4,1.06,4,5.33v7.23h-2.18v-6.95c0-2.36-.87-3.79-2.67-3.79a2.89,2.89,0,0,0-2.64,2,3.81,3.81,0,0,0-.18,1.12v7.59h-2.18V269.9c0-1.95-.86-3.38-2.56-3.38a3,3,0,0,0-2.77,2.24,3,3,0,0,0-.18,1.09v7.41H235Z"/><path class="cls-3" d="M257.43,271.53c.06,3,2,4.26,4.22,4.26a8.17,8.17,0,0,0,3.4-.63l.38,1.6a10,10,0,0,1-4.09.76c-3.78,0-6-2.49-6-6.2s2.19-6.62,5.77-6.62c4,0,5.07,3.52,5.07,5.78a10.2,10.2,0,0,1-.07,1Zm6.56-1.6c0-1.43-.59-3.64-3.1-3.64-2.26,0-3.25,2.09-3.43,3.64Z"/><path class="cls-3" d="M268.91,268.3c0-1.27,0-2.31-.1-3.33h2l.13,2H271A4.51,4.51,0,0,1,275,264.7c1.7,0,4.34,1,4.34,5.23v7.33h-2.23v-7.08c0-2-.74-3.63-2.85-3.63a3.17,3.17,0,0,0-3,2.28,3.25,3.25,0,0,0-.16,1v7.39h-2.23Z"/><path class="cls-3" d="M285.59,261.45V265h3.2v1.71h-3.2v6.62c0,1.53.43,2.39,1.68,2.39a5.27,5.27,0,0,0,1.29-.15l.1,1.67a5.37,5.37,0,0,1-2,.31,3.09,3.09,0,0,1-2.41-.94,4.57,4.57,0,0,1-.86-3.2v-6.7H281.5V265h1.91V262Z"/><path class="cls-3" d="M86.47,332.09a10.88,10.88,0,0,1-4.52.82c-4.82,0-8.45-3.05-8.45-8.66,0-5.36,3.63-9,8.93-9a9.29,9.29,0,0,1,4.07.76l-.54,1.8a8.1,8.1,0,0,0-3.45-.71c-4,0-6.68,2.57-6.68,7.06,0,4.19,2.42,6.88,6.58,6.88a8.83,8.83,0,0,0,3.6-.71Z"/><path class="cls-3" d="M89.16,314.62H91.4v18H89.16Z"/><path class="cls-3" d="M106.27,326.41c0,4.54-3.14,6.52-6.12,6.52-3.32,0-5.89-2.44-5.89-6.32,0-4.11,2.7-6.53,6.1-6.53S106.27,322.65,106.27,326.41Zm-9.75.12c0,2.69,1.55,4.73,3.74,4.73s3.73-2,3.73-4.78c0-2.08-1-4.72-3.68-4.72S96.52,324.2,96.52,326.53Z"/><path class="cls-3" d="M119.37,329.3c0,1.27,0,2.39.11,3.35h-2l-.13-2h-.05a4.63,4.63,0,0,1-4.07,2.28c-1.92,0-4.24-1.07-4.24-5.38v-7.19h2.24v6.81c0,2.33.71,3.91,2.74,3.91a3.24,3.24,0,0,0,3-2,3.46,3.46,0,0,0,.2-1.15v-7.54h2.23Z"/><path class="cls-3" d="M133.69,314.62v14.86c0,1.09,0,2.33.1,3.17h-2l-.1-2.13h-.05a4.56,4.56,0,0,1-4.19,2.41c-3,0-5.26-2.51-5.26-6.25,0-4.08,2.52-6.6,5.51-6.6a4.12,4.12,0,0,1,3.71,1.88h.05v-7.34Zm-2.23,10.74a4.2,4.2,0,0,0-.1-.93,3.28,3.28,0,0,0-3.23-2.59c-2.31,0-3.68,2-3.68,4.74,0,2.49,1.22,4.55,3.63,4.55a3.36,3.36,0,0,0,3.28-2.67,4.16,4.16,0,0,0,.1-1Z"/><path class="cls-3" d="M143,332.65V322.06h-1.73v-1.7H143v-.66c0-3.25,1.9-5.36,5.36-5.36a6.1,6.1,0,0,1,3.12.82l-.63,1.7a4.73,4.73,0,0,0-2.59-.71c-2.37,0-3.05,1.65-3.05,3.6v.61h7.13v12.29h-2.21V322.06h-4.92v10.59Z"/><path class="cls-3" d="M158.75,316.83v3.53H162v1.7h-3.2v6.63c0,1.52.43,2.39,1.68,2.39a5.27,5.27,0,0,0,1.29-.15l.1,1.67a5.37,5.37,0,0,1-2,.31,3.09,3.09,0,0,1-2.41-.94,4.59,4.59,0,0,1-.86-3.2v-6.71h-1.91v-1.7h1.91v-2.94Z"/><path class="cls-3" d="M164.46,323.69c0-1.27,0-2.31-.1-3.33h2l.1,2h.07a4.26,4.26,0,0,1,3.86-2.26,3.63,3.63,0,0,1,3.48,2.47h0a5.09,5.09,0,0,1,1.37-1.6,4.2,4.2,0,0,1,2.72-.87c1.63,0,4,1.07,4,5.34v7.23h-2.19v-7c0-2.36-.86-3.78-2.66-3.78a2.89,2.89,0,0,0-2.64,2,3.75,3.75,0,0,0-.18,1.12v7.59h-2.18v-7.36c0-2-.87-3.38-2.57-3.38a3.07,3.07,0,0,0-2.77,2.24,3.23,3.23,0,0,0-.17,1.09v7.41h-2.19Z"/><path class="cls-3" d="M186.88,326.91c.05,3,2,4.27,4.22,4.27a8,8,0,0,0,3.4-.64l.38,1.6a9.85,9.85,0,0,1-4.09.77c-3.78,0-6-2.49-6-6.2s2.18-6.63,5.76-6.63c4,0,5.08,3.53,5.08,5.79a7.43,7.43,0,0,1-.08,1Zm6.55-1.6c0-1.42-.58-3.63-3.1-3.63-2.26,0-3.25,2.08-3.42,3.63Z"/><path class="cls-3" d="M198.36,323.69c0-1.27,0-2.31-.11-3.33h2l.12,2h0a4.54,4.54,0,0,1,4.07-2.31c1.7,0,4.34,1,4.34,5.23v7.34h-2.24v-7.08c0-2-.73-3.63-2.84-3.63a3.18,3.18,0,0,0-3,2.28,3.26,3.26,0,0,0-.15,1v7.39h-2.23Z"/><path class="cls-3" d="M215,316.83v3.53h3.2v1.7H215v6.63c0,1.52.43,2.39,1.67,2.39a5.29,5.29,0,0,0,1.3-.15l.1,1.67a5.41,5.41,0,0,1-2,.31,3.09,3.09,0,0,1-2.41-.94,4.54,4.54,0,0,1-.87-3.2v-6.71H211v-1.7h1.9v-2.94Z"/><path class="cls-3" d="M232.94,332.65l-.18-1.55h-.08a4.55,4.55,0,0,1-3.76,1.83,3.5,3.5,0,0,1-3.75-3.53c0-3,2.64-4.59,7.38-4.57v-.25a2.53,2.53,0,0,0-2.79-2.85,6.14,6.14,0,0,0-3.2.92l-.51-1.47a7.56,7.56,0,0,1,4-1.1c3.76,0,4.67,2.57,4.67,5v4.6a16.51,16.51,0,0,0,.21,2.94Zm-.33-6.27c-2.44-.05-5.21.38-5.21,2.77a2,2,0,0,0,2.11,2.13,3.06,3.06,0,0,0,3-2.06,2.47,2.47,0,0,0,.13-.71Z"/><path class="cls-3" d="M238.37,323.69c0-1.27,0-2.31-.1-3.33h2l.12,2h0a4.55,4.55,0,0,1,4.07-2.31c1.7,0,4.34,1,4.34,5.23v7.34h-2.24v-7.08c0-2-.73-3.63-2.84-3.63a3.19,3.19,0,0,0-3,2.28,3.26,3.26,0,0,0-.15,1v7.39h-2.23Z"/><path class="cls-3" d="M259.26,332.65l-.17-1.55H259a4.58,4.58,0,0,1-3.76,1.83,3.5,3.5,0,0,1-3.76-3.53c0-3,2.64-4.59,7.39-4.57v-.25a2.54,2.54,0,0,0-2.79-2.85,6.11,6.11,0,0,0-3.2.92l-.51-1.47a7.56,7.56,0,0,1,4-1.1c3.76,0,4.67,2.57,4.67,5v4.6a17.57,17.57,0,0,0,.2,2.94Zm-.33-6.27c-2.43-.05-5.2.38-5.2,2.77a2,2,0,0,0,2.11,2.13,3.06,3.06,0,0,0,3-2.06,2.46,2.46,0,0,0,.12-.71Z"/><path class="cls-3" d="M264.7,314.62h2.23v18H264.7Z"/><path class="cls-3" d="M271.5,320.36l2.69,7.26c.28.82.59,1.78.79,2.52h0c.23-.74.48-1.68.79-2.57l2.43-7.21h2.37l-3.36,8.76c-1.6,4.22-2.69,6.38-4.21,7.7a6,6,0,0,1-2.74,1.44l-.56-1.88a5.71,5.71,0,0,0,1.95-1.09,6.72,6.72,0,0,0,1.88-2.49,1.56,1.56,0,0,0,.18-.53,1.94,1.94,0,0,0-.15-.58l-4.55-11.33Z"/><path class="cls-3" d="M282.19,330.37a5.87,5.87,0,0,0,2.94.89c1.63,0,2.39-.82,2.39-1.83s-.63-1.65-2.28-2.26c-2.21-.79-3.25-2-3.25-3.48,0-2,1.59-3.61,4.24-3.61a6.22,6.22,0,0,1,3,.76l-.56,1.63a4.82,4.82,0,0,0-2.52-.71c-1.32,0-2.05.76-2.05,1.67s.73,1.48,2.33,2.09c2.14.81,3.23,1.88,3.23,3.7,0,2.16-1.68,3.69-4.6,3.69a7,7,0,0,1-3.45-.84Z"/><path class="cls-3" d="M295,316.91a1.39,1.39,0,0,1-2.77,0,1.36,1.36,0,0,1,1.39-1.4A1.33,1.33,0,0,1,295,316.91Zm-2.49,15.74V320.36h2.23v12.29Z"/><path class="cls-3" d="M298.18,330.37a5.88,5.88,0,0,0,2.95.89c1.62,0,2.38-.82,2.38-1.83s-.63-1.65-2.28-2.26c-2.21-.79-3.25-2-3.25-3.48,0-2,1.6-3.61,4.24-3.61a6.19,6.19,0,0,1,3,.76l-.56,1.63a4.81,4.81,0,0,0-2.51-.71c-1.32,0-2.06.76-2.06,1.67s.74,1.48,2.34,2.09c2.13.81,3.22,1.88,3.22,3.7,0,2.16-1.67,3.69-4.59,3.69a7,7,0,0,1-3.46-.84Z"/><path class="cls-3" d="M74.51,371.16a30.8,30.8,0,0,1,4.7-.36c3.17,0,5.43.74,6.93,2.13a7.87,7.87,0,0,1,2.41,6.15,9,9,0,0,1-2.46,6.65c-1.6,1.6-4.24,2.46-7.57,2.46a35.08,35.08,0,0,1-4-.2Zm2.21,15.13a14.12,14.12,0,0,0,2.24.13c4.72,0,7.28-2.65,7.28-7.27,0-4-2.26-6.6-6.93-6.6a12.38,12.38,0,0,0-2.59.23Z"/><path class="cls-3" d="M92.69,382.3c0,3,2,4.27,4.22,4.27a8,8,0,0,0,3.4-.64l.38,1.6a9.89,9.89,0,0,1-4.09.76c-3.78,0-6-2.48-6-6.19s2.18-6.63,5.76-6.63c4,0,5.08,3.53,5.08,5.79a7.43,7.43,0,0,1-.08,1Zm6.55-1.6c0-1.42-.58-3.63-3.1-3.63-2.26,0-3.25,2.08-3.42,3.63Z"/><path class="cls-3" d="M105,375.75l2.41,6.91a28.92,28.92,0,0,1,1,3.15h.08c.28-1,.63-2,1-3.15l2.39-6.91h2.33L109.45,388h-2.14l-4.67-12.29Z"/><path class="cls-3" d="M131.08,379.31c0,5.89-3.58,9-8,9s-7.69-3.5-7.69-8.68c0-5.44,3.38-9,8-9S131.08,374.23,131.08,379.31Zm-13.28.28c0,3.65,2,6.93,5.46,6.93s5.48-3.23,5.48-7.11c0-3.4-1.77-7-5.46-7S117.8,375.83,117.8,379.59Z"/><path class="cls-3" d="M133.87,379.76c0-1.57-.05-2.84-.1-4h2l.11,2.11h.05a4.82,4.82,0,0,1,4.36-2.39c3,0,5.21,2.52,5.21,6.25,0,4.42-2.69,6.6-5.59,6.6a4.31,4.31,0,0,1-3.78-1.93h0v6.68h-2.21Zm2.21,3.28a5.07,5.07,0,0,0,.1.91,3.45,3.45,0,0,0,3.35,2.62c2.36,0,3.73-1.93,3.73-4.75,0-2.46-1.29-4.57-3.65-4.57a3.56,3.56,0,0,0-3.38,2.77,3.93,3.93,0,0,0-.15.91Z"/><path class="cls-3" d="M148,385.76a5.88,5.88,0,0,0,3,.88c1.62,0,2.38-.81,2.38-1.82s-.63-1.65-2.28-2.26c-2.21-.79-3.25-2-3.25-3.48,0-2,1.6-3.61,4.24-3.61a6.22,6.22,0,0,1,3,.76l-.56,1.63a4.72,4.72,0,0,0-2.51-.71c-1.32,0-2.06.76-2.06,1.67s.74,1.48,2.34,2.09c2.13.81,3.22,1.87,3.22,3.7,0,2.16-1.67,3.68-4.59,3.68a7.13,7.13,0,0,1-3.46-.83Z"/><path class="cls-3" d="M170.56,388l-.18-1.55h-.08a4.55,4.55,0,0,1-3.76,1.83,3.5,3.5,0,0,1-3.75-3.53c0-3,2.64-4.6,7.38-4.57V380a2.53,2.53,0,0,0-2.79-2.85,6.14,6.14,0,0,0-3.2.92l-.51-1.48a7.65,7.65,0,0,1,4-1.09c3.76,0,4.67,2.57,4.67,5v4.59a16.55,16.55,0,0,0,.21,3Zm-.33-6.27c-2.44,0-5.21.38-5.21,2.77a2,2,0,0,0,2.11,2.13,3.06,3.06,0,0,0,3-2.06,2.53,2.53,0,0,0,.13-.71Z"/><path class="cls-3" d="M176,379.08c0-1.27,0-2.31-.1-3.33h2l.12,2h0a4.53,4.53,0,0,1,4.07-2.31c1.7,0,4.34,1,4.34,5.23V388h-2.24V381c0-2-.73-3.63-2.84-3.63a3.17,3.17,0,0,0-3,2.28,3,3,0,0,0-.16,1V388H176Z"/><path class="cls-3" d="M200.69,370v14.86c0,1.09,0,2.33.1,3.17h-2l-.1-2.13h-.05a4.56,4.56,0,0,1-4.19,2.41c-3,0-5.26-2.51-5.26-6.25,0-4.08,2.51-6.6,5.51-6.6a4.12,4.12,0,0,1,3.71,1.88h.05V370Zm-2.23,10.74a4.29,4.29,0,0,0-.1-.94,3.29,3.29,0,0,0-3.23-2.59c-2.31,0-3.68,2-3.68,4.75,0,2.49,1.22,4.55,3.63,4.55a3.36,3.36,0,0,0,3.28-2.67,4.16,4.16,0,0,0,.1-1Z"/><path class="cls-3" d="M209.48,385.76a5.84,5.84,0,0,0,2.94.88c1.63,0,2.39-.81,2.39-1.82s-.64-1.65-2.29-2.26c-2.21-.79-3.25-2-3.25-3.48,0-2,1.6-3.61,4.24-3.61a6.16,6.16,0,0,1,3,.76l-.55,1.63a4.79,4.79,0,0,0-2.52-.71c-1.32,0-2.05.76-2.05,1.67s.73,1.48,2.33,2.09c2.13.81,3.23,1.87,3.23,3.7,0,2.16-1.68,3.68-4.6,3.68a7.06,7.06,0,0,1-3.45-.83Z"/><path class="cls-3" d="M231,381.79c0,4.55-3.15,6.53-6.12,6.53-3.33,0-5.89-2.44-5.89-6.32,0-4.12,2.69-6.53,6.09-6.53S231,378,231,381.79Zm-9.75.13c0,2.69,1.54,4.72,3.73,4.72s3.73-2,3.73-4.77c0-2.08-1-4.72-3.68-4.72S221.21,379.59,221.21,381.92Z"/><path class="cls-3" d="M234,388V377.45h-1.73v-1.7H234v-.58a5.79,5.79,0,0,1,1.42-4.29,4.26,4.26,0,0,1,3-1.15,5.08,5.08,0,0,1,1.9.36l-.3,1.73a3.23,3.23,0,0,0-1.42-.28c-1.91,0-2.39,1.67-2.39,3.55v.66h3v1.7h-3V388Z"/><path class="cls-3" d="M244.16,372.22v3.53h3.2v1.7h-3.2v6.63c0,1.52.43,2.39,1.67,2.39a4.76,4.76,0,0,0,1.3-.16l.1,1.68a5.44,5.44,0,0,1-2,.3,3.09,3.09,0,0,1-2.41-.94,4.51,4.51,0,0,1-.87-3.19v-6.71h-1.9v-1.7H242v-2.94Z"/><path class="cls-3" d="M251,375.75l1.63,6.25c.35,1.37.68,2.64.91,3.91h.08c.28-1.25.69-2.57,1.09-3.89l2-6.27h1.88l1.9,6.15c.46,1.47.81,2.76,1.09,4h.08a35.29,35.29,0,0,1,.94-4l1.75-6.17h2.21l-4,12.29h-2l-1.88-5.86a40.63,40.63,0,0,1-1.09-4h0a38,38,0,0,1-1.12,4.06l-2,5.84h-2l-3.71-12.29Z"/><path class="cls-3" d="M275.48,388l-.17-1.55h-.08a4.58,4.58,0,0,1-3.76,1.83,3.5,3.5,0,0,1-3.76-3.53c0-3,2.65-4.6,7.39-4.57V380a2.54,2.54,0,0,0-2.79-2.85,6.11,6.11,0,0,0-3.2.92l-.51-1.48a7.65,7.65,0,0,1,4-1.09c3.76,0,4.67,2.57,4.67,5v4.59a16.55,16.55,0,0,0,.21,3Zm-.33-6.27c-2.43,0-5.2.38-5.2,2.77a2,2,0,0,0,2.11,2.13,3.06,3.06,0,0,0,3-2.06,2.52,2.52,0,0,0,.12-.71Z"/><path class="cls-3" d="M280.92,379.59c0-1.45,0-2.7-.1-3.84h1.95l.08,2.41h.1a3.68,3.68,0,0,1,3.4-2.69,2.55,2.55,0,0,1,.64.08v2.11a2.94,2.94,0,0,0-.77-.08,3.13,3.13,0,0,0-3,2.87,6.33,6.33,0,0,0-.1,1V388h-2.21Z"/><path class="cls-3" d="M290.21,382.3c.05,3,2,4.27,4.21,4.27a8,8,0,0,0,3.41-.64l.38,1.6a9.93,9.93,0,0,1-4.09.76c-3.78,0-6-2.48-6-6.19s2.18-6.63,5.76-6.63c4,0,5.08,3.53,5.08,5.79a7.43,7.43,0,0,1-.08,1Zm6.55-1.6c0-1.42-.58-3.63-3.1-3.63-2.26,0-3.25,2.08-3.43,3.63Z"/><path class="cls-3" d="M307.07,379.59c0-1.45,0-2.7-.11-3.84h2l.08,2.41h.1a3.68,3.68,0,0,1,3.4-2.69,2.41,2.41,0,0,1,.63.08v2.11a2.81,2.81,0,0,0-.76-.08,3.13,3.13,0,0,0-3,2.87,6.33,6.33,0,0,0-.1,1V388h-2.21Z"/><path class="cls-3" d="M316.36,382.3c.05,3,2,4.27,4.21,4.27a8,8,0,0,0,3.41-.64l.38,1.6a9.93,9.93,0,0,1-4.09.76c-3.78,0-6-2.48-6-6.19s2.18-6.63,5.76-6.63c4,0,5.08,3.53,5.08,5.79a7.43,7.43,0,0,1-.08,1Zm6.55-1.6c0-1.42-.58-3.63-3.1-3.63-2.26,0-3.25,2.08-3.43,3.63Z"/><path class="cls-3" d="M327.83,370h2.24v18h-2.24Z"/><path class="cls-3" d="M335.07,382.3c.05,3,2,4.27,4.22,4.27a8,8,0,0,0,3.4-.64l.38,1.6a9.89,9.89,0,0,1-4.09.76c-3.78,0-6-2.48-6-6.19s2.18-6.63,5.76-6.63c4,0,5.08,3.53,5.08,5.79a7.43,7.43,0,0,1-.08,1Zm6.55-1.6c0-1.42-.58-3.63-3.1-3.63-2.26,0-3.25,2.08-3.42,3.63Z"/><path class="cls-3" d="M353.35,388l-.18-1.55h-.07a4.58,4.58,0,0,1-3.76,1.83,3.5,3.5,0,0,1-3.76-3.53c0-3,2.64-4.6,7.39-4.57V380a2.54,2.54,0,0,0-2.79-2.85,6.09,6.09,0,0,0-3.2.92l-.51-1.48a7.65,7.65,0,0,1,4-1.09c3.75,0,4.67,2.57,4.67,5v4.59a17.62,17.62,0,0,0,.2,3Zm-.33-6.27c-2.44,0-5.2.38-5.2,2.77a2,2,0,0,0,2.1,2.13,3.05,3.05,0,0,0,3-2.06,2.22,2.22,0,0,0,.13-.71Z"/><path class="cls-3" d="M358.48,385.76a5.87,5.87,0,0,0,2.94.88c1.63,0,2.39-.81,2.39-1.82s-.63-1.65-2.28-2.26c-2.21-.79-3.25-2-3.25-3.48,0-2,1.6-3.61,4.24-3.61a6.22,6.22,0,0,1,3,.76l-.56,1.63a4.73,4.73,0,0,0-2.52-.71c-1.32,0-2,.76-2,1.67s.73,1.48,2.33,2.09c2.14.81,3.23,1.87,3.23,3.7,0,2.16-1.68,3.68-4.6,3.68a7.09,7.09,0,0,1-3.45-.83Z"/><path class="cls-3" d="M370.08,382.3c.05,3,2,4.27,4.22,4.27a8,8,0,0,0,3.4-.64l.38,1.6a9.89,9.89,0,0,1-4.09.76c-3.78,0-6-2.48-6-6.19s2.18-6.63,5.76-6.63c4,0,5.08,3.53,5.08,5.79a7.43,7.43,0,0,1-.08,1Zm6.55-1.6c0-1.42-.58-3.63-3.1-3.63-2.26,0-3.25,2.08-3.42,3.63Z"/><path class="cls-3" d="M74.44,404.47c0-1.27,0-2.31-.11-3.33h2l.1,2h.08a4.23,4.23,0,0,1,3.86-2.26,3.65,3.65,0,0,1,3.48,2.46h0a5.08,5.08,0,0,1,1.37-1.6,4.17,4.17,0,0,1,2.71-.86c1.63,0,4,1.07,4,5.33v7.24H89.8v-7c0-2.36-.87-3.78-2.67-3.78a2.89,2.89,0,0,0-2.64,2,3.7,3.7,0,0,0-.18,1.12v7.59H82.13v-7.36c0-2-.86-3.38-2.56-3.38a3.05,3.05,0,0,0-2.77,2.23,3,3,0,0,0-.18,1.09v7.42H74.44Z"/><path class="cls-3" d="M102.42,413.43l-.18-1.55h-.08a4.58,4.58,0,0,1-3.76,1.83,3.5,3.5,0,0,1-3.75-3.53c0-3,2.64-4.6,7.38-4.57v-.26a2.53,2.53,0,0,0-2.79-2.84,6.23,6.23,0,0,0-3.2.91L95.53,402a7.65,7.65,0,0,1,4-1.09c3.76,0,4.67,2.56,4.67,5v4.59a16.55,16.55,0,0,0,.21,2.95Zm-.34-6.27c-2.43-.05-5.2.38-5.2,2.76A2,2,0,0,0,99,412.06a3.06,3.06,0,0,0,3-2.06,2.52,2.52,0,0,0,.12-.71Z"/><path class="cls-3" d="M107.85,404.47c0-1.27,0-2.31-.1-3.33h2l.12,2h.05a4.53,4.53,0,0,1,4.07-2.31c1.7,0,4.34,1,4.34,5.23v7.34h-2.24v-7.09c0-2-.73-3.63-2.84-3.63a3.19,3.19,0,0,0-3,2.29,3.26,3.26,0,0,0-.15,1v7.39h-2.23Z"/><path class="cls-3" d="M128.74,413.43l-.17-1.55h-.08a4.61,4.61,0,0,1-3.76,1.83,3.5,3.5,0,0,1-3.76-3.53c0-3,2.64-4.6,7.39-4.57v-.26a2.53,2.53,0,0,0-2.79-2.84,6.2,6.2,0,0,0-3.2.91l-.51-1.47a7.65,7.65,0,0,1,4-1.09c3.76,0,4.67,2.56,4.67,5v4.59a17.62,17.62,0,0,0,.2,2.95Zm-.33-6.27c-2.43-.05-5.2.38-5.2,2.76a2,2,0,0,0,2.11,2.14,3.06,3.06,0,0,0,3-2.06,2.52,2.52,0,0,0,.12-.71Z"/><path class="cls-3" d="M144.76,401.14c0,.89-.1,1.88-.1,3.38v7.13c0,2.82-.56,4.55-1.75,5.61a6.5,6.5,0,0,1-4.47,1.48,8,8,0,0,1-4.09-1l.56-1.7a6.9,6.9,0,0,0,3.61,1c2.28,0,4-1.19,4-4.29v-1.37h0a4.4,4.4,0,0,1-3.91,2.06c-3.05,0-5.23-2.59-5.23-6,0-4.17,2.71-6.53,5.53-6.53a4.11,4.11,0,0,1,3.84,2.13h.05l.1-1.85ZM142.45,406a3.29,3.29,0,0,0-.12-1,3.23,3.23,0,0,0-3.13-2.36c-2.13,0-3.65,1.8-3.65,4.65,0,2.41,1.22,4.42,3.63,4.42a3.28,3.28,0,0,0,3.1-2.29,4.08,4.08,0,0,0,.17-1.19Z"/><path class="cls-3" d="M149.61,407.69c0,3,2,4.27,4.22,4.27a8,8,0,0,0,3.4-.64l.38,1.6a9.89,9.89,0,0,1-4.09.76c-3.78,0-6-2.49-6-6.19s2.18-6.63,5.76-6.63c4,0,5.08,3.53,5.08,5.79a7.43,7.43,0,0,1-.08,1Zm6.55-1.6c0-1.42-.58-3.63-3.1-3.63-2.26,0-3.25,2.08-3.42,3.63Z"/><path class="cls-3" d="M161.09,404.47c0-1.27,0-2.31-.1-3.33h1.95l.1,2h.08a4.23,4.23,0,0,1,3.86-2.26,3.65,3.65,0,0,1,3.48,2.46h0a5.08,5.08,0,0,1,1.37-1.6,4.17,4.17,0,0,1,2.71-.86c1.63,0,4,1.07,4,5.33v7.24h-2.18v-7c0-2.36-.87-3.78-2.67-3.78a2.89,2.89,0,0,0-2.64,2,3.7,3.7,0,0,0-.18,1.12v7.59h-2.18v-7.36c0-2-.86-3.38-2.56-3.38a3.05,3.05,0,0,0-2.77,2.23,3,3,0,0,0-.18,1.09v7.42h-2.18Z"/><path class="cls-3" d="M183.5,407.69c.06,3,2,4.27,4.22,4.27a8,8,0,0,0,3.4-.64l.38,1.6a9.83,9.83,0,0,1-4.08.76c-3.79,0-6-2.49-6-6.19s2.19-6.63,5.77-6.63c4,0,5.07,3.53,5.07,5.79a10,10,0,0,1-.07,1Zm6.56-1.6c0-1.42-.59-3.63-3.1-3.63-2.26,0-3.25,2.08-3.43,3.63Z"/><path class="cls-3" d="M195,404.47c0-1.27,0-2.31-.1-3.33h2l.13,2h0a4.51,4.51,0,0,1,4.06-2.31c1.7,0,4.34,1,4.34,5.23v7.34h-2.23v-7.09c0-2-.74-3.63-2.85-3.63a3.17,3.17,0,0,0-3,2.29,3.25,3.25,0,0,0-.16,1v7.39H195Z"/><path class="cls-3" d="M211.66,397.61v3.53h3.2v1.7h-3.2v6.63c0,1.52.43,2.38,1.68,2.38a4.81,4.81,0,0,0,1.29-.15l.1,1.68a5.4,5.4,0,0,1-2,.3,3.09,3.09,0,0,1-2.41-.94,4.57,4.57,0,0,1-.86-3.2v-6.7h-1.91v-1.7h1.91v-2.95Z"/><circle class="cls-4" cx="51.16" cy="215.04" r="4.5"/><circle class="cls-4" cx="51.16" cy="266.66" r="4.5"/><circle class="cls-4" cx="51.16" cy="323.66" r="4.5"/><circle class="cls-4" cx="51.16" cy="381.97" r="4.5"/><path class="cls-3" d="M123.92,55.89H53.57v53.82h60.84V105l11,6.16-11,6.15v-4.79H50.85V53.27h75.8v1.18q0,17.46,0,34.92a1.23,1.23,0,0,0,.9,1.4,5.21,5.21,0,0,1,3.2,5.91,5.57,5.57,0,0,1-10.85.08,5.3,5.3,0,0,1,3.21-6c.56-.23.85-.43.85-1.13q0-16.44,0-32.9Zm1.37,42.53a2.77,2.77,0,0,0,2.85-2.73,2.83,2.83,0,0,0-2.88-2.83,2.93,2.93,0,0,0-2.84,2.81A2.87,2.87,0,0,0,125.29,98.42Z"/><path class="cls-3" d="M56.64,67.85h64.53V87h-2.62V70.54H59.4v34h48.27v2.55h-51Z"/><path class="cls-3" d="M67.69,82.5c.35-.16.63-.3.92-.41,6.5-2.69,13-5.39,19.52-8A2,2,0,0,1,89.56,74c6.66,2.71,13.31,5.47,20,8.21.2.09.39.2.67.35l-14.1,5.83c-2.15.89-4.31,1.79-6.48,2.65a1.72,1.72,0,0,1-1.16.07c-6.81-2.78-13.6-5.6-20.4-8.41A3.45,3.45,0,0,1,67.69,82.5Zm6.88,0c4.78,2,9.33,3.86,13.89,5.72a1.18,1.18,0,0,0,.8.06c4.62-1.88,9.23-3.79,13.93-5.73a5.26,5.26,0,0,0-.57-.32c-4.37-1.81-8.74-3.63-13.13-5.4a1.83,1.83,0,0,0-1.26,0c-2.94,1.18-5.86,2.4-8.78,3.61Z"/><path class="cls-3" d="M110.25,84.67a21.23,21.23,0,0,1,0,2.42c0,.27-.42.59-.72.71q-7.47,3.12-15,6.2c-1.63.67-3.24,1.38-4.89,2a2.07,2.07,0,0,1-1.41,0c-6.52-2.65-13-5.35-19.53-8-.62-.25-.94-.55-.86-1.25s0-1.21,0-2c.49.18.86.32,1.22.47,6.39,2.63,12.77,5.28,19.17,7.89a2.1,2.1,0,0,0,1.42,0c6.51-2.65,13-5.34,19.52-8Z"/><path class="cls-3" d="M67.84,89.94c.49.18.85.3,1.2.45q9.54,3.93,19.07,7.88a1.91,1.91,0,0,0,1.62,0c6.47-2.7,13-5.36,19.43-8l1.09-.43a16.91,16.91,0,0,1,0,2.38,1.37,1.37,0,0,1-.76.79c-6.2,2.58-12.43,5.1-18.61,7.74a4.46,4.46,0,0,1-3.86,0c-6-2.56-12-5-18.1-7.48-.81-.33-1.19-.71-1.06-1.6A13.63,13.63,0,0,0,67.84,89.94Z"/><path class="cls-3" d="M73.84,62.05a3.67,3.67,0,0,1,3.69-3.64,3.65,3.65,0,1,1,0,7.29A3.67,3.67,0,0,1,73.84,62.05Zm4.88.25v-.45c-.37-.25-.76-.74-1.11-.71a1.4,1.4,0,0,0-1,.86.79.79,0,0,0,.95,1C78,62.94,78.34,62.54,78.72,62.3Z"/><path class="cls-3" d="M69,58.41A3.65,3.65,0,1,1,65.22,62,3.7,3.7,0,0,1,69,58.41Zm1.15,3.9,0-.42c-.37-.27-.7-.68-1.1-.77A.81.81,0,0,0,68,62a1.33,1.33,0,0,0,.9,1C69.28,63,69.71,62.55,70.13,62.31Z"/><path class="cls-3" d="M64.1,62.1a3.68,3.68,0,0,1-3.73,3.6,3.65,3.65,0,1,1,0-7.29A3.67,3.67,0,0,1,64.1,62.1Zm-4,1.07.44,0c.28-.38.79-.75.79-1.12s-.51-.85-.88-.95a.8.8,0,0,0-1,.9C59.44,62.42,59.84,62.79,60.08,63.17Z"/><path class="cls-3" d="M483.64,53.66q9.14,16.13,18.26,32.28a1,1,0,0,0,1.07.53q14.71,0,29.42,0h1.71v32.18H501.92c0-.81,0-1.61,0-2.42v-29l-37.79-.29c.17-.31.29-.56.43-.79l18.61-31.68a7.35,7.35,0,0,0,.34-.76Zm47.43,62V89.41H504.78v26.27Zm-47.5-56.25c-4.84,8.23-9.61,16.34-14.5,24.67h28.47Z"/><path class="cls-3" d="M497.17,109l-.58,2.81a25.1,25.1,0,0,1-9.36-4,25.73,25.73,0,0,1-7-7.32l-4.29,2.38V89.51l11.55,6.86L482.74,99a22.47,22.47,0,0,0,6.23,6.43A23.07,23.07,0,0,0,497.17,109Z"/><path class="cls-3" d="M518.66,72c-5.89-6.24-13-8.63-21.53-7.23l-.59-2.82c1-.14,2-.34,3-.4a25.22,25.22,0,0,1,21.12,8.37,1.07,1.07,0,0,0,1.18.4,6.39,6.39,0,1,1-1.13,12.13,6.41,6.41,0,0,1-3.89-6.36A6.54,6.54,0,0,1,518.66,72ZM523.18,73a3.53,3.53,0,0,0-3.55,3.5,3.54,3.54,0,0,0,7.08,0A3.52,3.52,0,0,0,523.18,73Z"/><path class="cls-3" d="M922,121.22l-6.78-11.49h5.25V91.47c-2.57,0-5.12,0-7.68,0a1,1,0,0,0-.59.3l-13.67,13.38a.79.79,0,0,0-.08.16l3.64,3.76L889,112.52l3.51-12.88,3.46,4,12.34-12.07-1.09-.06a82.5,82.5,0,0,1-8.48-.21c-6.32-.8-11.78-6.43-12.65-12.76-.67-4.88.22-9.35,3.65-13.07a14,14,0,0,1,8.37-4.33,1,1,0,0,0,1-1,14.22,14.22,0,0,1,12.5-11.86,1.66,1.66,0,0,0,1.08-.55c3.76-6.4,12.27-8.49,19.38-4.4,5.1,2.93,7.45,7.51,7.14,13.41,0,.1,0,.2,0,.3s0,.06.1.17c3.28-1.08,6.39-.75,8.92,1.79s2.94,5.64,1.82,9a2.08,2.08,0,0,0,.26.18c7.92,2.4,9.4,11.28,6.51,16.57-2.25,4.13-5.61,6.63-10.56,6.53-2.77-.06-5.54,0-8.3.06-.26,0-.52,0-1.06.06l12.59,12.31,3.42-4.06.33.21,3.46,12.67-12.86-3.37,3.45-3.48c-.33-.35-.51-.58-.72-.78Q940,98.45,933.42,92a2.42,2.42,0,0,0-1.48-.58c-2.76-.06-5.52,0-8.35,0v18.21h5.26Zm1.71-32.62v-.2c7.78,0,15.57,0,23.36,0a6.45,6.45,0,0,0,1.8-.24,9.49,9.49,0,0,0,6.36-9.44c-.39-4.87-2.84-7.47-7.67-8.1a1.38,1.38,0,0,1-1.31-1.67,4,4,0,0,1,.57-1,5.36,5.36,0,0,0-3.6-8.34A6.05,6.05,0,0,0,938,61.49c-.65.63-1.34,1-2.15.44s-.68-1.34-.36-2.16a11.1,11.1,0,0,0-4.92-14c-6-3.32-13.06-1.5-15.78,4.3a1.73,1.73,0,0,1-1.72,1A11.4,11.4,0,0,0,901.9,62.1c-.07,1.12-.56,1.57-1.75,1.63a11.65,11.65,0,0,0-8.35,3.76c-2.63,2.9-3.24,6.42-2.84,10.19a12.52,12.52,0,0,0,12.1,10.92Q912.4,88.62,923.73,88.6Z"/></svg>