<?xml version="1.0" encoding="utf-8"?>
<!-- Generator: Adobe Illustrator 22.1.0, SVG Export Plug-In . SVG Version: 6.00 Build 0)  -->
<svg version="1.1" xmlns="http://www.w3.org/2000/svg" xmlns:xlink="http://www.w3.org/1999/xlink" x="0px" y="0px" width="350px"
	 height="350px" viewBox="0 0 350 350" style="enable-background:new 0 0 350 350;" xml:space="preserve">
<style type="text/css">
	.st0{fill:#FCDDD6;}
	.st1{fill:#FBC2BA;}
	.st2{fill:#F16C51;}
	.st3{fill:#ECE1CE;}
	.st4{fill:#EAC8A5;}
	.st5{fill:#DF9926;}
	.st6{fill:#D8E7DA;}
	.st7{fill:#A8D7CD;}
	.st8{fill:#00B28F;}
	.st9{fill:#92D1FF;}
	.st10{fill:#0F9FFA;}
	.st11{fill:none;}
	.st12{fill:none;stroke:#FFFFFF;stroke-width:1.5;stroke-miterlimit:10;}
	.st13{display:none;}
	.st14{display:inline;}
	.st15{fill:none;stroke:#061838;stroke-width:0.5887;stroke-miterlimit:10;}
	.st16{fill:none;stroke:#000000;stroke-width:0.1397;stroke-miterlimit:10;}
	.st17{fill:none;stroke:#020204;stroke-width:0.216;stroke-miterlimit:10;}
	.st18{fill:none;stroke:#FFFFFF;stroke-width:1.5;stroke-linejoin:bevel;stroke-miterlimit:10;}
	.st19{fill:#FFFFFF;}
	.st20{fill:none;stroke:#FFFFFF;stroke-width:1.5;stroke-linecap:square;stroke-miterlimit:10;}
	.st21{fill:none;stroke:#FFFFFF;stroke-width:1.4995;stroke-miterlimit:22.9256;}
	.st22{fill:none;stroke:#FFFFFF;stroke-width:1.4992;stroke-miterlimit:22.9256;}
	.st23{fill:none;stroke:#FFFFFF;stroke-width:1.4992;stroke-miterlimit:10;}
	.st24{fill:none;stroke:#FFFFFF;stroke-width:1.4995;stroke-linecap:square;stroke-miterlimit:10;}
	.st25{fill:none;stroke:#FFFFFF;stroke-width:1.4992;}
	.st26{fill:none;stroke:#FFFFFF;stroke-width:1.5001;stroke-linecap:square;stroke-miterlimit:10;}
	.st27{fill:none;stroke:#FFFFFF;stroke-width:1.5;stroke-linejoin:bevel;}
	.st28{fill:none;stroke:#FFFFFF;stroke-width:1.5;stroke-miterlimit:10;stroke-dasharray:5,5;}
</style>
<g id="Layer_3">
	<path class="st4" d="M220.9,134.7l-5.6-5.6l80.6-80.6c-67.6-64.7-174.3-64.7-241.9,0l82,82l-5.6,5.6l-82-82
		c-64.7,67.6-64.7,174.3,0,241.9l80.6-80.6l5.6,5.6l-80.6,80.6c67.6,64.7,174.3,64.7,241.9,0l-79.2-79.2l5.6-5.6l79.2,79.2
		c64.7-67.6,64.7-174.3,0-241.9L220.9,134.7z"/>
	<circle id="XMLID_1_" class="st3" cx="175" cy="175" r="167.9"/>
	<g>
		<path class="st5" d="M127.7,133.3L53.5,59.1c-61.9,64.8-61.9,167,0,231.8l74.2-74.2C106.7,192.9,106.7,157.1,127.7,133.3z"/>
		<path class="st5" d="M216.7,127.7l74.2-74.2c-64.8-61.9-167-61.9-231.8,0l74.2,74.2C157.1,106.7,192.9,106.7,216.7,127.7z"/>
		<path class="st5" d="M133.3,222.3l-74.2,74.2c64.8,61.9,167,61.9,231.8,0l-74.2-74.2C192.9,243.3,157.1,243.3,133.3,222.3z"/>
		<path class="st5" d="M222.3,216.7l74.2,74.2c61.9-64.8,61.9-167,0-231.8l-74.2,74.2C243.3,157.1,243.3,192.9,222.3,216.7z"/>
	</g>
</g>
<g id="Layer_1" class="st13">
	<g class="st14">
		<rect x="33.9" y="128.2" class="st16" width="10" height="10"/>
		<rect x="43.9" y="128.2" class="st16" width="10" height="10"/>
		<rect x="53.9" y="128.2" class="st16" width="10" height="10"/>
		<rect x="63.9" y="128.2" class="st16" width="10" height="10"/>
		<rect x="73.9" y="128.2" class="st16" width="10" height="10"/>
		<rect x="83.9" y="128.2" class="st16" width="10" height="10"/>
		<rect x="33.9" y="138.2" class="st16" width="10" height="10"/>
		<rect x="43.9" y="138.2" class="st16" width="10" height="10"/>
		<rect x="53.9" y="138.2" class="st16" width="10" height="10"/>
		<rect x="63.9" y="138.2" class="st16" width="10" height="10"/>
		<rect x="73.9" y="138.2" class="st16" width="10" height="10"/>
		<rect x="83.9" y="138.2" class="st16" width="10" height="10"/>
		<rect x="33.9" y="148.2" class="st16" width="10" height="10"/>
		<rect x="43.9" y="148.2" class="st16" width="10" height="10"/>
		<rect x="53.9" y="148.2" class="st16" width="10" height="10"/>
		<rect x="63.9" y="148.2" class="st16" width="10" height="10"/>
		<rect x="73.9" y="148.2" class="st16" width="10" height="10"/>
		<rect x="83.9" y="148.2" class="st16" width="10" height="10"/>
		<rect x="33.9" y="158.2" class="st16" width="10" height="10"/>
		<rect x="43.9" y="158.2" class="st16" width="10" height="10"/>
		<rect x="53.9" y="158.2" class="st16" width="10" height="10"/>
		<rect x="63.9" y="158.2" class="st16" width="10" height="10"/>
		<rect x="73.9" y="158.2" class="st16" width="10" height="10"/>
		<rect x="83.9" y="158.2" class="st16" width="10" height="10"/>
		<rect x="33.9" y="168.2" class="st16" width="10" height="10"/>
		<rect x="43.9" y="168.2" class="st16" width="10" height="10"/>
		<rect x="53.9" y="168.2" class="st16" width="10" height="10"/>
		<rect x="63.9" y="168.2" class="st16" width="10" height="10"/>
		<rect x="73.9" y="168.2" class="st16" width="10" height="10"/>
		<rect x="83.9" y="168.2" class="st16" width="10" height="10"/>
		<rect x="33.9" y="178.2" class="st16" width="10" height="10"/>
		<rect x="43.9" y="178.2" class="st16" width="10" height="10"/>
		<rect x="53.9" y="178.2" class="st16" width="10" height="10"/>
		<rect x="63.9" y="178.2" class="st16" width="10" height="10"/>
		<rect x="73.9" y="178.2" class="st16" width="10" height="10"/>
		<rect x="83.9" y="178.2" class="st16" width="10" height="10"/>
		<rect x="33.9" y="188.2" class="st16" width="10" height="10"/>
		<rect x="43.9" y="188.2" class="st16" width="10" height="10"/>
		<rect x="53.9" y="188.2" class="st16" width="10" height="10"/>
		<rect x="63.9" y="188.2" class="st16" width="10" height="10"/>
		<rect x="73.9" y="188.2" class="st16" width="10" height="10"/>
		<rect x="83.9" y="188.2" class="st16" width="10" height="10"/>
	</g>
	<g class="st14">
		<rect x="141.2" y="13.6" class="st16" width="10" height="10"/>
		<rect x="151.2" y="13.6" class="st16" width="10" height="10"/>
		<rect x="161.2" y="13.6" class="st16" width="10" height="10"/>
		<rect x="171.2" y="13.6" class="st16" width="10" height="10"/>
		<rect x="181.2" y="13.6" class="st16" width="10" height="10"/>
		<rect x="191.2" y="13.6" class="st16" width="10" height="10"/>
		<rect x="141.2" y="23.6" class="st16" width="10" height="10"/>
		<rect x="151.2" y="23.6" class="st16" width="10" height="10"/>
		<rect x="161.2" y="23.6" class="st16" width="10" height="10"/>
		<rect x="171.2" y="23.6" class="st16" width="10" height="10"/>
		<rect x="181.2" y="23.6" class="st16" width="10" height="10"/>
		<rect x="191.2" y="23.6" class="st16" width="10" height="10"/>
		<rect x="141.2" y="33.6" class="st16" width="10" height="10"/>
		<rect x="151.2" y="33.6" class="st16" width="10" height="10"/>
		<rect x="161.2" y="33.6" class="st16" width="10" height="10"/>
		<rect x="171.2" y="33.6" class="st16" width="10" height="10"/>
		<rect x="181.2" y="33.6" class="st16" width="10" height="10"/>
		<rect x="191.2" y="33.6" class="st16" width="10" height="10"/>
		<rect x="141.2" y="43.6" class="st16" width="10" height="10"/>
		<rect x="151.2" y="43.6" class="st16" width="10" height="10"/>
		<rect x="161.2" y="43.6" class="st16" width="10" height="10"/>
		<rect x="171.2" y="43.6" class="st16" width="10" height="10"/>
		<rect x="181.2" y="43.6" class="st16" width="10" height="10"/>
		<rect x="191.2" y="43.6" class="st16" width="10" height="10"/>
		<rect x="141.2" y="53.6" class="st16" width="10" height="10"/>
		<rect x="151.2" y="53.6" class="st16" width="10" height="10"/>
		<rect x="161.2" y="53.6" class="st16" width="10" height="10"/>
		<rect x="171.2" y="53.6" class="st16" width="10" height="10"/>
		<rect x="181.2" y="53.6" class="st16" width="10" height="10"/>
		<rect x="191.2" y="53.6" class="st16" width="10" height="10"/>
		<rect x="141.2" y="63.6" class="st16" width="10" height="10"/>
		<rect x="151.2" y="63.6" class="st16" width="10" height="10"/>
		<rect x="161.2" y="63.6" class="st16" width="10" height="10"/>
		<rect x="171.2" y="63.6" class="st16" width="10" height="10"/>
		<rect x="181.2" y="63.6" class="st16" width="10" height="10"/>
		<rect x="191.2" y="63.6" class="st16" width="10" height="10"/>
		<rect x="141.2" y="73.6" class="st16" width="10" height="10"/>
		<rect x="151.2" y="73.6" class="st16" width="10" height="10"/>
		<rect x="161.2" y="73.6" class="st16" width="10" height="10"/>
		<rect x="171.2" y="73.6" class="st16" width="10" height="10"/>
		<rect x="181.2" y="73.6" class="st16" width="10" height="10"/>
		<rect x="191.2" y="73.6" class="st16" width="10" height="10"/>
	</g>
	<g class="st14">
		<rect x="259.4" y="138.2" class="st16" width="10" height="10"/>
		<rect x="269.4" y="138.2" class="st16" width="10" height="10"/>
		<rect x="279.4" y="138.2" class="st16" width="10" height="10"/>
		<rect x="289.4" y="138.2" class="st16" width="10" height="10"/>
		<rect x="299.4" y="138.2" class="st16" width="10" height="10"/>
		<rect x="309.4" y="138.2" class="st16" width="10" height="10"/>
		<rect x="259.4" y="148.2" class="st16" width="10" height="10"/>
		<rect x="269.4" y="148.2" class="st16" width="10" height="10"/>
		<rect x="279.4" y="148.2" class="st16" width="10" height="10"/>
		<rect x="289.4" y="148.2" class="st16" width="10" height="10"/>
		<rect x="299.4" y="148.2" class="st16" width="10" height="10"/>
		<rect x="309.4" y="148.2" class="st16" width="10" height="10"/>
		<rect x="259.4" y="158.2" class="st16" width="10" height="10"/>
		<rect x="269.4" y="158.2" class="st16" width="10" height="10"/>
		<rect x="279.4" y="158.2" class="st16" width="10" height="10"/>
		<rect x="289.4" y="158.2" class="st16" width="10" height="10"/>
		<rect x="299.4" y="158.2" class="st16" width="10" height="10"/>
		<rect x="309.4" y="158.2" class="st16" width="10" height="10"/>
		<rect x="259.4" y="168.2" class="st16" width="10" height="10"/>
		<rect x="269.4" y="168.2" class="st16" width="10" height="10"/>
		<rect x="279.4" y="168.2" class="st16" width="10" height="10"/>
		<rect x="289.4" y="168.2" class="st16" width="10" height="10"/>
		<rect x="299.4" y="168.2" class="st16" width="10" height="10"/>
		<rect x="309.4" y="168.2" class="st16" width="10" height="10"/>
		<rect x="259.4" y="178.2" class="st16" width="10" height="10"/>
		<rect x="269.4" y="178.2" class="st16" width="10" height="10"/>
		<rect x="279.4" y="178.2" class="st16" width="10" height="10"/>
		<rect x="289.4" y="178.2" class="st16" width="10" height="10"/>
		<rect x="299.4" y="178.2" class="st16" width="10" height="10"/>
		<rect x="309.4" y="178.2" class="st16" width="10" height="10"/>
		<rect x="259.4" y="188.2" class="st16" width="10" height="10"/>
		<rect x="269.4" y="188.2" class="st16" width="10" height="10"/>
		<rect x="279.4" y="188.2" class="st16" width="10" height="10"/>
		<rect x="289.4" y="188.2" class="st16" width="10" height="10"/>
		<rect x="299.4" y="188.2" class="st16" width="10" height="10"/>
		<rect x="309.4" y="188.2" class="st16" width="10" height="10"/>
		<rect x="259.4" y="198.2" class="st16" width="10" height="10"/>
		<rect x="269.4" y="198.2" class="st16" width="10" height="10"/>
		<rect x="279.4" y="198.2" class="st16" width="10" height="10"/>
		<rect x="289.4" y="198.2" class="st16" width="10" height="10"/>
		<rect x="299.4" y="198.2" class="st16" width="10" height="10"/>
		<rect x="309.4" y="198.2" class="st16" width="10" height="10"/>
	</g>
	<g class="st14">
		<rect x="142.7" y="237.9" class="st16" width="10" height="10"/>
		<rect x="152.7" y="237.9" class="st16" width="10" height="10"/>
		<rect x="162.7" y="237.9" class="st16" width="10" height="10"/>
		<rect x="172.7" y="237.9" class="st16" width="10" height="10"/>
		<rect x="182.7" y="237.9" class="st16" width="10" height="10"/>
		<rect x="192.7" y="237.9" class="st16" width="10" height="10"/>
		<rect x="142.7" y="247.9" class="st16" width="10" height="10"/>
		<rect x="152.7" y="247.9" class="st16" width="10" height="10"/>
		<rect x="162.7" y="247.9" class="st16" width="10" height="10"/>
		<rect x="172.7" y="247.9" class="st16" width="10" height="10"/>
		<rect x="182.7" y="247.9" class="st16" width="10" height="10"/>
		<rect x="192.7" y="247.9" class="st16" width="10" height="10"/>
		<rect x="142.7" y="257.9" class="st16" width="10" height="10"/>
		<rect x="152.7" y="257.9" class="st16" width="10" height="10"/>
		<rect x="162.7" y="257.9" class="st16" width="10" height="10"/>
		<rect x="172.7" y="257.9" class="st16" width="10" height="10"/>
		<rect x="182.7" y="257.9" class="st16" width="10" height="10"/>
		<rect x="192.7" y="257.9" class="st16" width="10" height="10"/>
		<rect x="142.7" y="267.9" class="st16" width="10" height="10"/>
		<rect x="152.7" y="267.9" class="st16" width="10" height="10"/>
		<rect x="162.7" y="267.9" class="st16" width="10" height="10"/>
		<rect x="172.7" y="267.9" class="st16" width="10" height="10"/>
		<rect x="182.7" y="267.9" class="st16" width="10" height="10"/>
		<rect x="192.7" y="267.9" class="st16" width="10" height="10"/>
		<rect x="142.7" y="277.9" class="st16" width="10" height="10"/>
		<rect x="152.7" y="277.9" class="st16" width="10" height="10"/>
		<rect x="162.7" y="277.9" class="st16" width="10" height="10"/>
		<rect x="172.7" y="277.9" class="st16" width="10" height="10"/>
		<rect x="182.7" y="277.9" class="st16" width="10" height="10"/>
		<rect x="192.7" y="277.9" class="st16" width="10" height="10"/>
		<rect x="142.7" y="287.9" class="st16" width="10" height="10"/>
		<rect x="152.7" y="287.9" class="st16" width="10" height="10"/>
		<rect x="162.7" y="287.9" class="st16" width="10" height="10"/>
		<rect x="172.7" y="287.9" class="st16" width="10" height="10"/>
		<rect x="182.7" y="287.9" class="st16" width="10" height="10"/>
		<rect x="192.7" y="287.9" class="st16" width="10" height="10"/>
		<rect x="142.7" y="297.9" class="st16" width="10" height="10"/>
		<rect x="152.7" y="297.9" class="st16" width="10" height="10"/>
		<rect x="162.7" y="297.9" class="st16" width="10" height="10"/>
		<rect x="172.7" y="297.9" class="st16" width="10" height="10"/>
		<rect x="182.7" y="297.9" class="st16" width="10" height="10"/>
		<rect x="192.7" y="297.9" class="st16" width="10" height="10"/>
	</g>
	<g class="st14">
		<rect x="161.7" y="111.9" class="st16" width="10" height="10"/>
		<rect x="171.7" y="111.9" class="st16" width="10" height="10"/>
		<rect x="181.7" y="111.9" class="st16" width="10" height="10"/>
		<rect x="191.7" y="111.9" class="st16" width="10" height="10"/>
		<rect x="201.7" y="111.9" class="st16" width="10" height="10"/>
		<rect x="211.7" y="111.9" class="st16" width="10" height="10"/>
		<rect x="161.7" y="121.9" class="st16" width="10" height="10"/>
		<rect x="171.7" y="121.9" class="st16" width="10" height="10"/>
		<rect x="181.7" y="121.9" class="st16" width="10" height="10"/>
		<rect x="191.7" y="121.9" class="st16" width="10" height="10"/>
		<rect x="201.7" y="121.9" class="st16" width="10" height="10"/>
		<rect x="211.7" y="121.9" class="st16" width="10" height="10"/>
		<rect x="161.7" y="131.9" class="st16" width="10" height="10"/>
		<rect x="171.7" y="131.9" class="st16" width="10" height="10"/>
		<rect x="181.7" y="131.9" class="st16" width="10" height="10"/>
		<rect x="191.7" y="131.9" class="st16" width="10" height="10"/>
		<rect x="201.7" y="131.9" class="st16" width="10" height="10"/>
		<rect x="211.7" y="131.9" class="st16" width="10" height="10"/>
		<rect x="161.7" y="141.9" class="st16" width="10" height="10"/>
		<rect x="171.7" y="141.9" class="st16" width="10" height="10"/>
		<rect x="181.7" y="141.9" class="st16" width="10" height="10"/>
		<rect x="191.7" y="141.9" class="st16" width="10" height="10"/>
		<rect x="201.7" y="141.9" class="st16" width="10" height="10"/>
		<rect x="211.7" y="141.9" class="st16" width="10" height="10"/>
		<rect x="161.7" y="151.9" class="st16" width="10" height="10"/>
		<rect x="171.7" y="151.9" class="st16" width="10" height="10"/>
		<rect x="181.7" y="151.9" class="st16" width="10" height="10"/>
		<rect x="191.7" y="151.9" class="st16" width="10" height="10"/>
		<rect x="201.7" y="151.9" class="st16" width="10" height="10"/>
		<rect x="211.7" y="151.9" class="st16" width="10" height="10"/>
		<rect x="161.7" y="161.9" class="st16" width="10" height="10"/>
		<rect x="171.7" y="161.9" class="st16" width="10" height="10"/>
		<rect x="181.7" y="161.9" class="st16" width="10" height="10"/>
		<rect x="191.7" y="161.9" class="st16" width="10" height="10"/>
		<rect x="201.7" y="161.9" class="st16" width="10" height="10"/>
		<rect x="211.7" y="161.9" class="st16" width="10" height="10"/>
		<rect x="161.7" y="171.9" class="st16" width="10" height="10"/>
		<rect x="171.7" y="171.9" class="st16" width="10" height="10"/>
		<rect x="181.7" y="171.9" class="st16" width="10" height="10"/>
		<rect x="191.7" y="171.9" class="st16" width="10" height="10"/>
		<rect x="201.7" y="171.9" class="st16" width="10" height="10"/>
		<rect x="211.7" y="171.9" class="st16" width="10" height="10"/>
	</g>
	<g class="st14">
		<rect x="290.9" y="239.6" class="st16" width="10" height="10"/>
		<rect x="300.9" y="239.6" class="st16" width="10" height="10"/>
		<rect x="310.9" y="239.6" class="st16" width="10" height="10"/>
		<rect x="320.9" y="239.6" class="st16" width="10" height="10"/>
		<rect x="330.9" y="239.6" class="st16" width="10" height="10"/>
		<rect x="340.9" y="239.6" class="st16" width="10" height="10"/>
		<rect x="290.9" y="249.6" class="st16" width="10" height="10"/>
		<rect x="300.9" y="249.6" class="st16" width="10" height="10"/>
		<rect x="310.9" y="249.6" class="st16" width="10" height="10"/>
		<rect x="320.9" y="249.6" class="st16" width="10" height="10"/>
		<rect x="330.9" y="249.6" class="st16" width="10" height="10"/>
		<rect x="340.9" y="249.6" class="st16" width="10" height="10"/>
		<rect x="290.9" y="259.6" class="st16" width="10" height="10"/>
		<rect x="300.9" y="259.6" class="st16" width="10" height="10"/>
		<rect x="310.9" y="259.6" class="st16" width="10" height="10"/>
		<rect x="320.9" y="259.6" class="st16" width="10" height="10"/>
		<rect x="330.9" y="259.6" class="st16" width="10" height="10"/>
		<rect x="340.9" y="259.6" class="st16" width="10" height="10"/>
		<rect x="290.9" y="269.6" class="st16" width="10" height="10"/>
		<rect x="300.9" y="269.6" class="st16" width="10" height="10"/>
		<rect x="310.9" y="269.6" class="st16" width="10" height="10"/>
		<rect x="320.9" y="269.6" class="st16" width="10" height="10"/>
		<rect x="330.9" y="269.6" class="st16" width="10" height="10"/>
		<rect x="340.9" y="269.6" class="st16" width="10" height="10"/>
		<rect x="290.9" y="279.6" class="st16" width="10" height="10"/>
		<rect x="300.9" y="279.6" class="st16" width="10" height="10"/>
		<rect x="310.9" y="279.6" class="st16" width="10" height="10"/>
		<rect x="320.9" y="279.6" class="st16" width="10" height="10"/>
		<rect x="330.9" y="279.6" class="st16" width="10" height="10"/>
		<rect x="340.9" y="279.6" class="st16" width="10" height="10"/>
		<rect x="290.9" y="289.6" class="st16" width="10" height="10"/>
		<rect x="300.9" y="289.6" class="st16" width="10" height="10"/>
		<rect x="310.9" y="289.6" class="st16" width="10" height="10"/>
		<rect x="320.9" y="289.6" class="st16" width="10" height="10"/>
		<rect x="330.9" y="289.6" class="st16" width="10" height="10"/>
		<rect x="340.9" y="289.6" class="st16" width="10" height="10"/>
		<rect x="290.9" y="299.6" class="st16" width="10" height="10"/>
		<rect x="300.9" y="299.6" class="st16" width="10" height="10"/>
		<rect x="310.9" y="299.6" class="st16" width="10" height="10"/>
		<rect x="320.9" y="299.6" class="st16" width="10" height="10"/>
		<rect x="330.9" y="299.6" class="st16" width="10" height="10"/>
		<rect x="340.9" y="299.6" class="st16" width="10" height="10"/>
	</g>
</g>
<g id="Layer_4">
	<g>
		<path class="st19" d="M147,79c0.6-0.1,1.4-0.2,2.2-0.2c1.4,0,2.4,0.3,3.1,0.9c0.7,0.6,1.2,1.5,1.2,2.8c0,1.4-0.5,2.4-1.2,3.1
			c-0.8,0.7-2,1-3.5,1c-0.8,0-1.4,0-1.9-0.1V79z M148.4,85.5c0.2,0,0.5,0,0.8,0c1.8,0,2.9-1,2.9-2.9c0-1.7-1-2.7-2.7-2.7
			c-0.4,0-0.8,0-1,0.1V85.5z"/>
		<path class="st19" d="M156.3,79.5c0,0.4-0.3,0.8-0.8,0.8c-0.5,0-0.8-0.3-0.8-0.8c0-0.4,0.3-0.8,0.8-0.8
			C156,78.7,156.3,79,156.3,79.5z M154.8,86.6V81h1.4v5.5H154.8z"/>
		<path class="st19" d="M157.6,85.3c0.3,0.2,0.9,0.4,1.4,0.4c0.6,0,0.9-0.3,0.9-0.6c0-0.4-0.2-0.6-0.9-0.8c-1.1-0.4-1.5-1-1.5-1.6
			c0-1,0.8-1.7,2.1-1.7c0.6,0,1.2,0.2,1.5,0.3l-0.3,1c-0.2-0.1-0.7-0.3-1.2-0.3c-0.5,0-0.8,0.2-0.8,0.6c0,0.4,0.3,0.5,1,0.8
			c1,0.4,1.5,0.9,1.5,1.7c0,1-0.8,1.7-2.3,1.7c-0.7,0-1.3-0.2-1.7-0.4L157.6,85.3z"/>
		<path class="st19" d="M164.1,79.4V81h1.3v1h-1.3v2.4c0,0.7,0.2,1,0.7,1c0.2,0,0.4,0,0.5-0.1l0,1.1c-0.2,0.1-0.6,0.1-1,0.1
			c-0.5,0-0.9-0.2-1.2-0.5c-0.3-0.3-0.4-0.8-0.4-1.5v-2.6h-0.8v-1h0.8v-1.3L164.1,79.4z"/>
		<path class="st19" d="M166.4,82.8c0-0.8,0-1.3,0-1.8h1.2l0,1.1h0c0.3-0.8,0.9-1.2,1.5-1.2c0.1,0,0.2,0,0.3,0v1.3
			c-0.1,0-0.2,0-0.4,0c-0.7,0-1.1,0.4-1.3,1.1c0,0.1,0,0.3,0,0.4v2.9h-1.4V82.8z"/>
		<path class="st19" d="M172,79.5c0,0.4-0.3,0.8-0.8,0.8c-0.5,0-0.8-0.3-0.8-0.8c0-0.4,0.3-0.8,0.8-0.8C171.7,78.7,172,79,172,79.5z
			 M170.5,86.6V81h1.4v5.5H170.5z"/>
		<path class="st19" d="M173.4,86.6c0-0.4,0-1,0-1.6v-6.5h1.4v3.3h0c0.3-0.5,0.9-0.9,1.8-0.9c1.4,0,2.3,1.1,2.3,2.8c0,2-1.3,3-2.5,3
			c-0.7,0-1.4-0.3-1.8-1h0l-0.1,0.8H173.4z M174.8,84.3c0,0.1,0,0.2,0,0.3c0.1,0.6,0.6,1,1.2,1c0.9,0,1.4-0.7,1.4-1.8
			c0-1-0.5-1.8-1.4-1.8c-0.6,0-1.1,0.4-1.2,1c0,0.1,0,0.2,0,0.4V84.3z"/>
		<path class="st19" d="M185,84.9c0,0.7,0,1.2,0,1.7h-1.2l-0.1-0.8h0c-0.2,0.4-0.8,1-1.8,1c-1,0-1.9-0.6-1.9-2.4V81h1.4v3
			c0,0.9,0.3,1.5,1,1.5c0.6,0,0.9-0.4,1.1-0.8c0-0.1,0.1-0.3,0.1-0.4V81h1.4V84.9z"/>
		<path class="st19" d="M188.2,79.4V81h1.3v1h-1.3v2.4c0,0.7,0.2,1,0.7,1c0.2,0,0.4,0,0.5-0.1l0,1.1c-0.2,0.1-0.6,0.1-1,0.1
			c-0.5,0-0.9-0.2-1.2-0.5c-0.3-0.3-0.4-0.8-0.4-1.5v-2.6H186v-1h0.8v-1.3L188.2,79.4z"/>
		<path class="st19" d="M191.5,84.2c0,1,0.8,1.4,1.7,1.4c0.6,0,1.1-0.1,1.5-0.3l0.2,1c-0.5,0.2-1.1,0.3-1.9,0.3
			c-1.8,0-2.9-1.1-2.9-2.8c0-1.5,0.9-3,2.7-3c1.8,0,2.4,1.5,2.4,2.7c0,0.3,0,0.5,0,0.6H191.5z M193.9,83.2c0-0.5-0.2-1.4-1.1-1.4
			c-0.9,0-1.2,0.8-1.3,1.4H193.9z"/>
		<path class="st19" d="M201.5,78.5V85c0,0.6,0,1.2,0,1.6h-1.3l-0.1-0.9h0c-0.3,0.6-1,1-1.8,1c-1.3,0-2.4-1.1-2.4-2.8
			c0-1.9,1.1-3,2.5-3c0.8,0,1.3,0.3,1.6,0.7h0v-3.1H201.5z M200.1,83.3c0-0.1,0-0.3,0-0.4c-0.1-0.5-0.6-1-1.2-1
			c-0.9,0-1.4,0.8-1.4,1.8c0,1,0.5,1.8,1.4,1.8c0.6,0,1.1-0.4,1.2-1c0-0.1,0-0.3,0-0.4V83.3z"/>
		<path class="st19" d="M159,90.2h1.4v8.1H159V90.2z"/>
		<path class="st19" d="M163,95.9c0,1,0.8,1.4,1.7,1.4c0.6,0,1.1-0.1,1.5-0.3l0.2,1c-0.5,0.2-1.1,0.3-1.9,0.3
			c-1.8,0-2.9-1.1-2.9-2.8c0-1.5,0.9-3,2.7-3c1.8,0,2.4,1.5,2.4,2.7c0,0.3,0,0.5,0,0.6H163z M165.4,94.9c0-0.5-0.2-1.4-1.1-1.4
			c-0.9,0-1.2,0.8-1.3,1.4H165.4z"/>
		<path class="st19" d="M172.9,90.2v6.5c0,0.6,0,1.2,0,1.6h-1.3l-0.1-0.9h0c-0.3,0.6-1,1-1.8,1c-1.3,0-2.4-1.1-2.4-2.8
			c0-1.9,1.1-3,2.5-3c0.8,0,1.3,0.3,1.6,0.7h0v-3.1H172.9z M171.5,95c0-0.1,0-0.3,0-0.4c-0.1-0.5-0.6-1-1.2-1
			c-0.9,0-1.4,0.8-1.4,1.8c0,1,0.5,1.8,1.4,1.8c0.6,0,1.1-0.4,1.2-1c0-0.1,0-0.3,0-0.4V95z"/>
		<path class="st19" d="M179.5,92.7c0,0.4,0,0.8,0,1.6v3.1c0,1.2-0.2,2-0.8,2.5c-0.6,0.5-1.4,0.7-2.1,0.7c-0.7,0-1.5-0.1-1.9-0.4
			l0.3-1.1c0.4,0.2,0.9,0.4,1.6,0.4c0.9,0,1.6-0.5,1.6-1.7v-0.5h0c-0.3,0.5-0.9,0.8-1.6,0.8c-1.4,0-2.4-1.1-2.4-2.7
			c0-1.8,1.2-2.9,2.5-2.9c0.8,0,1.3,0.4,1.6,0.9h0l0.1-0.7H179.5z M178.1,94.9c0-0.1,0-0.3,0-0.4c-0.1-0.5-0.5-0.9-1.1-0.9
			c-0.8,0-1.4,0.7-1.4,1.8c0,0.9,0.5,1.7,1.4,1.7c0.5,0,1-0.3,1.1-0.8c0-0.1,0.1-0.3,0.1-0.5V94.9z"/>
		<path class="st19" d="M182,95.9c0,1,0.8,1.4,1.7,1.4c0.6,0,1.1-0.1,1.5-0.3l0.2,1c-0.5,0.2-1.1,0.3-1.9,0.3
			c-1.8,0-2.9-1.1-2.9-2.8c0-1.5,0.9-3,2.7-3c1.8,0,2.4,1.5,2.4,2.7c0,0.3,0,0.5,0,0.6H182z M184.4,94.9c0-0.5-0.2-1.4-1.1-1.4
			c-0.9,0-1.2,0.8-1.3,1.4H184.4z"/>
		<path class="st19" d="M186.9,94.5c0-0.8,0-1.3,0-1.8h1.2l0,1.1h0c0.3-0.8,0.9-1.2,1.5-1.2c0.1,0,0.2,0,0.3,0v1.3
			c-0.1,0-0.2,0-0.4,0c-0.7,0-1.1,0.4-1.3,1.1c0,0.1,0,0.3,0,0.4v2.9h-1.4V94.5z"/>
	</g>
	<g>
		<path class="st19" d="M262.3,203.4h-2.2v-1.2h5.8v1.2h-2.2v6.5h-1.4V203.4z"/>
		<path class="st19" d="M266.2,206.2c0-0.8,0-1.3,0-1.8h1.2l0,1.1h0c0.3-0.8,0.9-1.2,1.5-1.2c0.1,0,0.2,0,0.3,0v1.3
			c-0.1,0-0.2,0-0.4,0c-0.7,0-1.1,0.4-1.3,1.1c0,0.1,0,0.3,0,0.4v2.9h-1.4V206.2z"/>
		<path class="st19" d="M273.2,209.9l-0.1-0.6h0c-0.3,0.4-0.9,0.7-1.6,0.7c-1.1,0-1.7-0.8-1.7-1.7c0-1.4,1.2-2.1,3.3-2.1v-0.1
			c0-0.4-0.1-1-1.1-1c-0.5,0-1.1,0.2-1.5,0.4l-0.3-0.9c0.4-0.3,1.1-0.5,2-0.5c1.8,0,2.3,1.1,2.3,2.3v2c0,0.5,0,1,0.1,1.3H273.2z
			 M273,207.2c-1,0-1.9,0.2-1.9,1c0,0.5,0.4,0.8,0.8,0.8c0.6,0,1-0.4,1.1-0.8c0-0.1,0-0.2,0-0.3V207.2z"/>
		<path class="st19" d="M280,209.7c-0.3,0.1-0.9,0.3-1.6,0.3c-1.7,0-2.9-1.1-2.9-2.8c0-1.7,1.1-3,3.1-3c0.5,0,1,0.1,1.4,0.3l-0.3,1
			c-0.2-0.1-0.6-0.2-1.1-0.2c-1.1,0-1.7,0.8-1.7,1.8c0,1.1,0.7,1.8,1.7,1.8c0.5,0,0.8-0.1,1.1-0.2L280,209.7z"/>
		<path class="st19" d="M281.9,207.5c0,1,0.8,1.4,1.7,1.4c0.6,0,1.1-0.1,1.5-0.3l0.2,1c-0.5,0.2-1.1,0.3-1.9,0.3
			c-1.8,0-2.9-1.1-2.9-2.8c0-1.5,0.9-3,2.7-3c1.8,0,2.4,1.5,2.4,2.7c0,0.3,0,0.5,0,0.6H281.9z M284.3,206.5c0-0.5-0.2-1.4-1.1-1.4
			c-0.9,0-1.2,0.8-1.3,1.4H284.3z"/>
		<path class="st19" d="M289.9,209.9l-0.1-0.6h0c-0.3,0.4-0.9,0.7-1.6,0.7c-1.1,0-1.7-0.8-1.7-1.7c0-1.4,1.2-2.1,3.3-2.1v-0.1
			c0-0.4-0.1-1-1.1-1c-0.5,0-1.1,0.2-1.5,0.4l-0.3-0.9c0.4-0.3,1.1-0.5,2-0.5c1.8,0,2.3,1.1,2.3,2.3v2c0,0.5,0,1,0.1,1.3H289.9z
			 M289.7,207.2c-1,0-1.9,0.2-1.9,1c0,0.5,0.4,0.8,0.8,0.8c0.6,0,1-0.4,1.1-0.8c0-0.1,0-0.2,0-0.3V207.2z"/>
		<path class="st19" d="M292.5,209.9c0-0.4,0-1,0-1.6v-6.5h1.4v3.3h0c0.3-0.5,0.9-0.9,1.8-0.9c1.4,0,2.3,1.1,2.3,2.8
			c0,2-1.3,3-2.5,3c-0.7,0-1.4-0.3-1.8-1h0l-0.1,0.8H292.5z M294,207.6c0,0.1,0,0.2,0,0.3c0.1,0.6,0.6,1,1.2,1
			c0.9,0,1.4-0.7,1.4-1.8c0-1-0.5-1.8-1.4-1.8c-0.6,0-1.1,0.4-1.2,1c0,0.1,0,0.2,0,0.4V207.6z"/>
		<path class="st19" d="M300.7,202.8c0,0.4-0.3,0.8-0.8,0.8c-0.5,0-0.8-0.3-0.8-0.8c0-0.4,0.3-0.8,0.8-0.8
			C300.4,202.1,300.7,202.4,300.7,202.8z M299.2,209.9v-5.5h1.4v5.5H299.2z"/>
		<path class="st19" d="M302.1,201.8h1.4v8.1h-1.4V201.8z"/>
		<path class="st19" d="M306.6,202.8c0,0.4-0.3,0.8-0.8,0.8c-0.5,0-0.8-0.3-0.8-0.8c0-0.4,0.3-0.8,0.8-0.8
			C306.3,202.1,306.5,202.4,306.6,202.8z M305.1,209.9v-5.5h1.4v5.5H305.1z"/>
		<path class="st19" d="M309.6,202.8v1.6h1.3v1h-1.3v2.4c0,0.7,0.2,1,0.7,1c0.2,0,0.4,0,0.5-0.1l0,1.1c-0.2,0.1-0.6,0.1-1,0.1
			c-0.5,0-0.9-0.2-1.2-0.5c-0.3-0.3-0.4-0.8-0.4-1.5v-2.6h-0.8v-1h0.8v-1.3L309.6,202.8z"/>
		<path class="st19" d="M312.9,204.4l1,3c0.1,0.3,0.2,0.8,0.3,1.1h0c0.1-0.3,0.2-0.7,0.3-1.1l0.9-3h1.5l-1.4,3.8
			c-0.8,2.1-1.3,3-1.9,3.6c-0.5,0.5-1.1,0.7-1.5,0.7l-0.3-1.2c0.2-0.1,0.5-0.2,0.8-0.4c0.3-0.2,0.6-0.5,0.8-0.9
			c0.1-0.1,0.1-0.2,0.1-0.3c0-0.1,0-0.1-0.1-0.3l-2-5.1H312.9z"/>
		<path class="st19" d="M266.6,220.3c0.3,0.2,0.9,0.4,1.4,0.4c0.6,0,0.9-0.3,0.9-0.6c0-0.4-0.2-0.6-0.9-0.8c-1.1-0.4-1.5-1-1.5-1.6
			c0-1,0.8-1.7,2.1-1.7c0.6,0,1.1,0.2,1.5,0.3l-0.3,1c-0.2-0.1-0.7-0.3-1.2-0.3c-0.5,0-0.8,0.2-0.8,0.6c0,0.4,0.3,0.5,1,0.8
			c1,0.4,1.5,0.9,1.5,1.7c0,1-0.8,1.7-2.3,1.7c-0.7,0-1.3-0.2-1.7-0.4L266.6,220.3z"/>
		<path class="st19" d="M276.7,218.8c0,2-1.4,2.9-2.8,2.9c-1.6,0-2.8-1.1-2.8-2.9c0-1.8,1.2-2.9,2.9-2.9
			C275.6,215.9,276.7,217.1,276.7,218.8z M272.5,218.8c0,1.1,0.5,1.9,1.4,1.9c0.8,0,1.4-0.8,1.4-1.9c0-0.9-0.4-1.9-1.3-1.9
			C272.9,216.9,272.5,217.9,272.5,218.8z"/>
		<path class="st19" d="M277.8,213.5h1.4v8.1h-1.4V213.5z"/>
		<path class="st19" d="M285.7,219.9c0,0.7,0,1.2,0,1.7h-1.2l-0.1-0.8h0c-0.2,0.4-0.8,1-1.8,1c-1,0-1.9-0.6-1.9-2.4V216h1.4v3
			c0,0.9,0.3,1.5,1,1.5c0.6,0,0.9-0.4,1.1-0.8c0-0.1,0.1-0.3,0.1-0.4V216h1.4V219.9z"/>
		<path class="st19" d="M288.8,214.5v1.6h1.3v1h-1.3v2.4c0,0.7,0.2,1,0.7,1c0.2,0,0.4,0,0.5-0.1l0,1.1c-0.2,0.1-0.6,0.1-1,0.1
			c-0.5,0-0.9-0.2-1.2-0.5c-0.3-0.3-0.4-0.8-0.4-1.5v-2.6h-0.8v-1h0.8v-1.3L288.8,214.5z"/>
		<path class="st19" d="M292.7,214.5c0,0.4-0.3,0.8-0.8,0.8c-0.5,0-0.8-0.3-0.8-0.8c0-0.4,0.3-0.8,0.8-0.8
			C292.4,213.7,292.7,214.1,292.7,214.5z M291.2,221.6V216h1.4v5.5H291.2z"/>
		<path class="st19" d="M299.4,218.8c0,2-1.4,2.9-2.8,2.9c-1.6,0-2.8-1.1-2.8-2.9c0-1.8,1.2-2.9,2.9-2.9
			C298.3,215.9,299.4,217.1,299.4,218.8z M295.2,218.8c0,1.1,0.5,1.9,1.4,1.9c0.8,0,1.4-0.8,1.4-1.9c0-0.9-0.4-1.9-1.3-1.9
			C295.6,216.9,295.2,217.9,295.2,218.8z"/>
		<path class="st19" d="M300.6,217.7c0-0.6,0-1.2,0-1.7h1.2l0.1,0.8h0c0.2-0.4,0.8-1,1.8-1c1,0,2,0.6,2,2.4v3.3h-1.4v-3.1
			c0-0.8-0.3-1.4-1.1-1.4c-0.6,0-0.9,0.4-1.1,0.8c0,0.1-0.1,0.3-0.1,0.5v3.3h-1.4V217.7z"/>
		<path class="st19" d="M307,220.3c0.3,0.2,0.9,0.4,1.4,0.4c0.6,0,0.9-0.3,0.9-0.6c0-0.4-0.2-0.6-0.9-0.8c-1.1-0.4-1.5-1-1.5-1.6
			c0-1,0.8-1.7,2.1-1.7c0.6,0,1.1,0.2,1.5,0.3l-0.3,1c-0.2-0.1-0.7-0.3-1.2-0.3c-0.5,0-0.8,0.2-0.8,0.6c0,0.4,0.3,0.5,1,0.8
			c1,0.4,1.5,0.9,1.5,1.7c0,1-0.8,1.7-2.3,1.7c-0.7,0-1.3-0.2-1.7-0.4L307,220.3z"/>
	</g>
	<g>
		<path class="st19" d="M135.5,309.4c0,2.6-1.6,4-3.7,4c-2.2,0-3.5-1.7-3.5-3.9c0-2.4,1.5-4,3.6-4
			C134.2,305.5,135.5,307.2,135.5,309.4z M129.8,309.5c0,1.6,0.8,2.8,2.1,2.8c1.4,0,2.1-1.3,2.1-2.9c0-1.4-0.7-2.8-2.1-2.8
			C130.5,306.6,129.8,307.9,129.8,309.5z"/>
		<path class="st19" d="M136.7,309.4c0-0.6,0-1.2,0-1.7h1.2l0.1,0.8h0c0.2-0.4,0.8-1,1.8-1c1,0,2,0.6,2,2.4v3.3h-1.4v-3.1
			c0-0.8-0.3-1.4-1.1-1.4c-0.6,0-0.9,0.4-1.1,0.8c0,0.1-0.1,0.3-0.1,0.5v3.3h-1.4V309.4z"/>
		<path class="st19" d="M143.2,305.2h1.4v8.1h-1.4V305.2z"/>
		<path class="st19" d="M147.6,306.2c0,0.4-0.3,0.8-0.8,0.8c-0.5,0-0.8-0.3-0.8-0.8c0-0.4,0.3-0.8,0.8-0.8
			C147.3,305.4,147.6,305.8,147.6,306.2z M146.1,313.3v-5.5h1.4v5.5H146.1z"/>
		<path class="st19" d="M149,309.4c0-0.6,0-1.2,0-1.7h1.2l0.1,0.8h0c0.2-0.4,0.8-1,1.8-1c1,0,2,0.6,2,2.4v3.3h-1.4v-3.1
			c0-0.8-0.3-1.4-1.1-1.4c-0.6,0-0.9,0.4-1.1,0.8c0,0.1-0.1,0.3-0.1,0.5v3.3H149V309.4z"/>
		<path class="st19" d="M156.5,310.9c0,1,0.8,1.4,1.7,1.4c0.6,0,1.1-0.1,1.5-0.3l0.2,1c-0.5,0.2-1.1,0.3-1.9,0.3
			c-1.8,0-2.9-1.1-2.9-2.8c0-1.5,0.9-3,2.7-3c1.8,0,2.4,1.5,2.4,2.7c0,0.3,0,0.5,0,0.6H156.5z M159,309.9c0-0.5-0.2-1.4-1.1-1.4
			c-0.9,0-1.2,0.8-1.3,1.4H159z"/>
		<path class="st19" d="M165.4,306.2v1.6h1.3v1h-1.3v2.4c0,0.7,0.2,1,0.7,1c0.2,0,0.4,0,0.5-0.1l0,1.1c-0.2,0.1-0.6,0.1-1,0.1
			c-0.5,0-0.9-0.2-1.2-0.5c-0.3-0.3-0.4-0.8-0.4-1.5v-2.6h-0.8v-1h0.8v-1.3L165.4,306.2z"/>
		<path class="st19" d="M167.8,309.5c0-0.8,0-1.3,0-1.8h1.2l0,1.1h0c0.3-0.8,0.9-1.2,1.5-1.2c0.1,0,0.2,0,0.3,0v1.3
			c-0.1,0-0.2,0-0.4,0c-0.7,0-1.1,0.4-1.3,1.1c0,0.1,0,0.3,0,0.4v2.9h-1.4V309.5z"/>
		<path class="st19" d="M174.8,313.3l-0.1-0.6h0c-0.3,0.4-0.9,0.7-1.6,0.7c-1.1,0-1.7-0.8-1.7-1.7c0-1.4,1.2-2.1,3.3-2.1v-0.1
			c0-0.4-0.1-1-1.1-1c-0.5,0-1.1,0.2-1.5,0.4l-0.3-0.9c0.4-0.3,1.1-0.5,2-0.5c1.8,0,2.3,1.1,2.3,2.3v2c0,0.5,0,1,0.1,1.3H174.8z
			 M174.6,310.6c-1,0-1.9,0.2-1.9,1c0,0.5,0.4,0.8,0.8,0.8c0.6,0,1-0.4,1.1-0.8c0-0.1,0-0.2,0-0.3V310.6z"/>
		<path class="st19" d="M182.6,305.2v6.5c0,0.6,0,1.2,0,1.6h-1.3l-0.1-0.9h0c-0.3,0.6-1,1-1.8,1c-1.3,0-2.4-1.1-2.4-2.8
			c0-1.9,1.1-3,2.5-3c0.8,0,1.3,0.3,1.6,0.7h0v-3.1H182.6z M181.2,310c0-0.1,0-0.3,0-0.4c-0.1-0.5-0.6-1-1.2-1
			c-0.9,0-1.4,0.8-1.4,1.8c0,1,0.5,1.8,1.4,1.8c0.6,0,1.1-0.4,1.2-1c0-0.1,0-0.3,0-0.4V310z"/>
		<path class="st19" d="M185.6,306.2c0,0.4-0.3,0.8-0.8,0.8c-0.5,0-0.8-0.3-0.8-0.8c0-0.4,0.3-0.8,0.8-0.8
			C185.3,305.4,185.6,305.8,185.6,306.2z M184.1,313.3v-5.5h1.4v5.5H184.1z"/>
		<path class="st19" d="M187,309.4c0-0.6,0-1.2,0-1.7h1.2l0.1,0.8h0c0.2-0.4,0.8-1,1.8-1c1,0,2,0.6,2,2.4v3.3h-1.4v-3.1
			c0-0.8-0.3-1.4-1.1-1.4c-0.6,0-0.9,0.4-1.1,0.8c0,0.1-0.1,0.3-0.1,0.5v3.3H187V309.4z"/>
		<path class="st19" d="M198.6,307.7c0,0.4,0,0.8,0,1.6v3.1c0,1.2-0.2,2-0.8,2.5c-0.6,0.5-1.4,0.7-2.1,0.7c-0.7,0-1.5-0.1-1.9-0.4
			l0.3-1.1c0.4,0.2,0.9,0.4,1.6,0.4c0.9,0,1.6-0.5,1.6-1.7v-0.5h0c-0.3,0.5-0.9,0.8-1.6,0.8c-1.4,0-2.4-1.1-2.4-2.7
			c0-1.8,1.2-2.9,2.5-2.9c0.8,0,1.3,0.4,1.6,0.9h0l0.1-0.7H198.6z M197.2,310c0-0.1,0-0.3,0-0.4c-0.1-0.5-0.5-0.9-1.1-0.9
			c-0.8,0-1.4,0.7-1.4,1.8c0,0.9,0.5,1.7,1.4,1.7c0.5,0,1-0.3,1.1-0.8c0-0.1,0.1-0.3,0.1-0.5V310z"/>
		<path class="st19" d="M205.5,313.3l-0.1-0.6h0c-0.3,0.4-0.9,0.7-1.6,0.7c-1.1,0-1.7-0.8-1.7-1.7c0-1.4,1.2-2.1,3.3-2.1v-0.1
			c0-0.4-0.1-1-1.1-1c-0.5,0-1.1,0.2-1.5,0.4l-0.3-0.9c0.4-0.3,1.1-0.5,2-0.5c1.8,0,2.3,1.1,2.3,2.3v2c0,0.5,0,1,0.1,1.3H205.5z
			 M205.4,310.6c-1,0-1.9,0.2-1.9,1c0,0.5,0.4,0.8,0.8,0.8c0.6,0,1-0.4,1.1-0.8c0-0.1,0-0.2,0-0.3V310.6z"/>
		<path class="st19" d="M208.2,309.4c0-0.6,0-1.2,0-1.7h1.2l0.1,0.8h0c0.2-0.4,0.8-1,1.8-1c1,0,2,0.6,2,2.4v3.3h-1.4v-3.1
			c0-0.8-0.3-1.4-1.1-1.4c-0.6,0-0.9,0.4-1.1,0.8c0,0.1-0.1,0.3-0.1,0.5v3.3h-1.4V309.4z"/>
		<path class="st19" d="M219.8,305.2v6.5c0,0.6,0,1.2,0,1.6h-1.3l-0.1-0.9h0c-0.3,0.6-1,1-1.8,1c-1.3,0-2.4-1.1-2.4-2.8
			c0-1.9,1.1-3,2.5-3c0.8,0,1.3,0.3,1.6,0.7h0v-3.1H219.8z M218.4,310c0-0.1,0-0.3,0-0.4c-0.1-0.5-0.6-1-1.2-1
			c-0.9,0-1.4,0.8-1.4,1.8c0,1,0.5,1.8,1.4,1.8c0.6,0,1.1-0.4,1.2-1c0-0.1,0-0.3,0-0.4V310z"/>
		<path class="st19" d="M157,325l-0.1-0.6h0c-0.3,0.4-0.9,0.7-1.6,0.7c-1.1,0-1.7-0.8-1.7-1.7c0-1.4,1.2-2.1,3.3-2.1v-0.1
			c0-0.4-0.1-1-1.1-1c-0.5,0-1.1,0.2-1.5,0.4l-0.3-0.9c0.4-0.3,1.1-0.5,2-0.5c1.8,0,2.3,1.1,2.3,2.3v2c0,0.5,0,1,0.1,1.3H157z
			 M156.8,322.3c-1,0-1.9,0.2-1.9,1c0,0.5,0.4,0.8,0.8,0.8c0.6,0,1-0.4,1.1-0.8c0-0.1,0-0.2,0-0.3V322.3z"/>
		<path class="st19" d="M164.6,323.3c0,0.7,0,1.2,0,1.7h-1.2l-0.1-0.8h0c-0.2,0.4-0.8,1-1.8,1c-1,0-1.9-0.6-1.9-2.4v-3.3h1.4v3
			c0,0.9,0.3,1.5,1,1.5c0.6,0,0.9-0.4,1.1-0.8c0-0.1,0.1-0.3,0.1-0.4v-3.3h1.4V323.3z"/>
		<path class="st19" d="M170.2,324.8c-0.3,0.1-0.9,0.3-1.6,0.3c-1.7,0-2.9-1.1-2.9-2.8c0-1.7,1.1-3,3.1-3c0.5,0,1,0.1,1.4,0.3
			l-0.3,1c-0.2-0.1-0.6-0.2-1.1-0.2c-1.1,0-1.7,0.8-1.7,1.8c0,1.1,0.7,1.8,1.7,1.8c0.5,0,0.8-0.1,1.1-0.2L170.2,324.8z"/>
		<path class="st19" d="M173.1,317.8v1.6h1.3v1h-1.3v2.4c0,0.7,0.2,1,0.7,1c0.2,0,0.4,0,0.5-0.1l0,1.1c-0.2,0.1-0.6,0.1-1,0.1
			c-0.5,0-0.9-0.2-1.2-0.5c-0.3-0.3-0.4-0.8-0.4-1.5v-2.6h-0.8v-1h0.8v-1.3L173.1,317.8z"/>
		<path class="st19" d="M176.9,317.9c0,0.4-0.3,0.8-0.8,0.8c-0.5,0-0.8-0.3-0.8-0.8c0-0.4,0.3-0.8,0.8-0.8
			C176.6,317.1,176.9,317.4,176.9,317.9z M175.4,325v-5.5h1.4v5.5H175.4z"/>
		<path class="st19" d="M183.6,322.1c0,2-1.4,2.9-2.8,2.9c-1.6,0-2.8-1.1-2.8-2.9c0-1.8,1.2-2.9,2.9-2.9
			C182.5,319.3,183.6,320.5,183.6,322.1z M179.5,322.2c0,1.1,0.5,1.9,1.4,1.9c0.8,0,1.4-0.8,1.4-1.9c0-0.9-0.4-1.9-1.3-1.9
			C179.9,320.3,179.5,321.3,179.5,322.2z"/>
		<path class="st19" d="M184.8,321.1c0-0.6,0-1.2,0-1.7h1.2l0.1,0.8h0c0.2-0.4,0.8-1,1.8-1c1,0,2,0.6,2,2.4v3.3h-1.4v-3.1
			c0-0.8-0.3-1.4-1.1-1.4c-0.6,0-0.9,0.4-1.1,0.8c0,0.1-0.1,0.3-0.1,0.5v3.3h-1.4V321.1z"/>
		<path class="st19" d="M191.2,323.7c0.3,0.2,0.9,0.4,1.4,0.4c0.6,0,0.9-0.3,0.9-0.6c0-0.4-0.2-0.6-0.9-0.8c-1.1-0.4-1.5-1-1.5-1.6
			c0-1,0.8-1.7,2.1-1.7c0.6,0,1.1,0.2,1.5,0.3l-0.3,1c-0.2-0.1-0.7-0.3-1.2-0.3c-0.5,0-0.8,0.2-0.8,0.6c0,0.4,0.3,0.5,1,0.8
			c1,0.4,1.5,0.9,1.5,1.7c0,1-0.8,1.7-2.3,1.7c-0.7,0-1.3-0.2-1.7-0.4L191.2,323.7z"/>
	</g>
	<g>
		<path class="st19" d="M45,199.4c0.6-0.1,1.4-0.2,2.2-0.2c1.4,0,2.4,0.3,3.1,0.9c0.7,0.6,1.2,1.5,1.2,2.8c0,1.4-0.5,2.4-1.2,3
			c-0.8,0.7-2,1-3.5,1c-0.8,0-1.4,0-1.9-0.1V199.4z M46.4,205.9c0.2,0,0.5,0,0.8,0c1.8,0,2.9-1,2.9-2.9c0-1.7-1-2.7-2.7-2.7
			c-0.4,0-0.8,0-1,0.1V205.9z"/>
		<path class="st19" d="M54.2,199.8c0,0.4-0.3,0.8-0.8,0.8c-0.5,0-0.8-0.3-0.8-0.8c0-0.4,0.3-0.8,0.8-0.8
			C53.9,199.1,54.2,199.4,54.2,199.8z M52.7,206.9v-5.5h1.4v5.5H52.7z"/>
		<path class="st19" d="M60.7,201.4c0,0.4,0,0.8,0,1.6v3.1c0,1.2-0.2,2-0.8,2.5c-0.6,0.5-1.4,0.7-2.1,0.7c-0.7,0-1.5-0.1-1.9-0.4
			l0.3-1.1c0.4,0.2,0.9,0.4,1.6,0.4c0.9,0,1.6-0.5,1.6-1.7v-0.5h0c-0.3,0.5-0.9,0.8-1.6,0.8c-1.4,0-2.4-1.1-2.4-2.7
			c0-1.8,1.2-2.9,2.5-2.9c0.8,0,1.3,0.4,1.6,0.9h0l0.1-0.7H60.7z M59.3,203.6c0-0.1,0-0.3,0-0.4c-0.1-0.5-0.5-0.9-1.1-0.9
			c-0.8,0-1.4,0.7-1.4,1.8c0,0.9,0.5,1.7,1.4,1.7c0.5,0,1-0.3,1.1-0.8c0-0.1,0.1-0.3,0.1-0.5V203.6z"/>
		<path class="st19" d="M63.6,199.8c0,0.4-0.3,0.8-0.8,0.8c-0.5,0-0.8-0.3-0.8-0.8c0-0.4,0.3-0.8,0.8-0.8
			C63.3,199.1,63.6,199.4,63.6,199.8z M62.1,206.9v-5.5h1.4v5.5H62.1z"/>
		<path class="st19" d="M66.6,199.8v1.6H68v1h-1.3v2.4c0,0.7,0.2,1,0.7,1c0.2,0,0.4,0,0.5-0.1l0,1.1c-0.2,0.1-0.6,0.1-1,0.1
			c-0.5,0-0.9-0.2-1.2-0.5c-0.3-0.3-0.4-0.8-0.4-1.5v-2.6h-0.8v-1h0.8v-1.3L66.6,199.8z"/>
		<path class="st19" d="M72.1,206.9l-0.1-0.6h0c-0.3,0.4-0.9,0.7-1.6,0.7c-1.1,0-1.7-0.8-1.7-1.7c0-1.4,1.2-2.1,3.3-2.1v-0.1
			c0-0.4-0.1-1-1.1-1c-0.5,0-1.1,0.2-1.5,0.4l-0.3-0.9c0.4-0.3,1.1-0.5,2-0.5c1.8,0,2.3,1.1,2.3,2.3v2c0,0.5,0,1,0.1,1.3H72.1z
			 M72,204.2c-1,0-1.9,0.2-1.9,1c0,0.5,0.4,0.8,0.8,0.8c0.6,0,1-0.4,1.1-0.8c0-0.1,0-0.2,0-0.3V204.2z"/>
		<path class="st19" d="M74.8,198.8h1.4v8.1h-1.4V198.8z"/>
		<path class="st19" d="M44.8,218.4c-0.3,0.1-0.9,0.3-1.6,0.3c-1.7,0-2.9-1.1-2.9-2.8c0-1.7,1.1-3,3.1-3c0.5,0,1,0.1,1.4,0.3l-0.3,1
			c-0.2-0.1-0.6-0.2-1.1-0.2c-1.1,0-1.7,0.8-1.7,1.8c0,1.1,0.7,1.8,1.7,1.8c0.5,0,0.8-0.1,1.1-0.2L44.8,218.4z"/>
		<path class="st19" d="M48.9,218.6l-0.1-0.6h0c-0.3,0.4-0.9,0.7-1.6,0.7c-1.1,0-1.7-0.8-1.7-1.7c0-1.4,1.2-2.1,3.3-2.1v-0.1
			c0-0.4-0.1-1-1.1-1c-0.5,0-1.1,0.2-1.5,0.4l-0.3-0.9c0.4-0.3,1.1-0.5,2-0.5c1.8,0,2.3,1.1,2.3,2.3v2c0,0.5,0,1,0.1,1.3H48.9z
			 M48.8,215.9c-1,0-1.9,0.2-1.9,1c0,0.5,0.4,0.8,0.8,0.8c0.6,0,1-0.4,1.1-0.8c0-0.1,0-0.2,0-0.3V215.9z"/>
		<path class="st19" d="M53.1,211.5v1.6h1.3v1h-1.3v2.4c0,0.7,0.2,1,0.7,1c0.2,0,0.4,0,0.5-0.1l0,1.1c-0.2,0.1-0.6,0.1-1,0.1
			c-0.5,0-0.9-0.2-1.2-0.5c-0.3-0.3-0.4-0.8-0.4-1.5v-2.6H51v-1h0.8v-1.3L53.1,211.5z"/>
		<path class="st19" d="M58.7,218.6l-0.1-0.6h0c-0.3,0.4-0.9,0.7-1.6,0.7c-1.1,0-1.7-0.8-1.7-1.7c0-1.4,1.2-2.1,3.3-2.1v-0.1
			c0-0.4-0.1-1-1.1-1c-0.5,0-1.1,0.2-1.5,0.4l-0.3-0.9c0.4-0.3,1.1-0.5,2-0.5c1.8,0,2.3,1.1,2.3,2.3v2c0,0.5,0,1,0.1,1.3H58.7z
			 M58.5,215.9c-1,0-1.9,0.2-1.9,1c0,0.5,0.4,0.8,0.8,0.8c0.6,0,1-0.4,1.1-0.8c0-0.1,0-0.2,0-0.3V215.9z"/>
		<path class="st19" d="M61.3,210.5h1.4v8.1h-1.4V210.5z"/>
		<path class="st19" d="M69.5,215.8c0,2-1.4,2.9-2.8,2.9c-1.6,0-2.8-1.1-2.8-2.9c0-1.8,1.2-2.9,2.9-2.9
			C68.4,212.9,69.5,214.1,69.5,215.8z M65.3,215.8c0,1.1,0.5,1.9,1.4,1.9c0.8,0,1.4-0.8,1.4-1.9c0-0.9-0.4-1.9-1.3-1.9
			C65.7,214,65.3,214.9,65.3,215.8z"/>
		<path class="st19" d="M75.7,213.1c0,0.4,0,0.8,0,1.6v3.1c0,1.2-0.2,2-0.8,2.5c-0.6,0.5-1.4,0.7-2.1,0.7c-0.7,0-1.5-0.1-1.9-0.4
			l0.3-1.1c0.4,0.2,0.9,0.4,1.6,0.4c0.9,0,1.6-0.5,1.6-1.7v-0.5h0c-0.3,0.5-0.9,0.8-1.6,0.8c-1.4,0-2.4-1.1-2.4-2.7
			c0-1.8,1.2-2.9,2.5-2.9c0.8,0,1.3,0.4,1.6,0.9h0l0.1-0.7H75.7z M74.3,215.3c0-0.1,0-0.3,0-0.4c-0.1-0.5-0.5-0.9-1.1-0.9
			c-0.8,0-1.4,0.7-1.4,1.8c0,0.9,0.5,1.7,1.4,1.7c0.5,0,1-0.3,1.1-0.8c0-0.1,0.1-0.3,0.1-0.5V215.3z"/>
		<path class="st19" d="M77.1,217.3c0.3,0.2,0.9,0.4,1.4,0.4c0.6,0,0.9-0.3,0.9-0.6c0-0.4-0.2-0.6-0.9-0.8c-1.1-0.4-1.5-1-1.5-1.6
			c0-1,0.8-1.7,2.1-1.7c0.6,0,1.1,0.2,1.5,0.3l-0.3,1c-0.2-0.1-0.7-0.3-1.2-0.3c-0.5,0-0.8,0.2-0.8,0.6c0,0.4,0.3,0.5,1,0.8
			c1,0.4,1.5,0.9,1.5,1.7c0,1-0.8,1.7-2.3,1.7c-0.7,0-1.3-0.2-1.7-0.4L77.1,217.3z"/>
	</g>
	<g>
		<g>
			<g>
			</g>
			<polygon class="st12" points="176.1,23.8 161.7,23.8 161.7,40.3 161.7,42.7 161.7,44.9 180.6,44.9 180.6,28.3 			"/>
			<line class="st12" x1="170.4" y1="37.9" x2="177.1" y2="37.8"/>
			<line class="st12" x1="170.5" y1="30.7" x2="176.6" y2="30.7"/>
		</g>
		<rect x="165.1" y="36.7" class="st12" width="2.8" height="2.3"/>
		<rect x="165.1" y="29.7" class="st12" width="2.8" height="2.3"/>
		<line class="st12" x1="170.5" y1="44.9" x2="170.5" y2="49.4"/>
		<g>
			<g>
				<polyline class="st12" points="157.7,53.9 157.7,49.4 184.1,49.4 184.1,53.9 				"/>
				<g>
					<polygon class="st19" points="160.7,53 157.7,58.2 154.7,53 					"/>
				</g>
				<g>
					<polygon class="st19" points="181.1,53 184.1,58.2 187.1,53 					"/>
				</g>
			</g>
		</g>
		<g>
			<g>
				<g>
					<g>
						<g>
							<g>
								<g>
									<circle class="st20" cx="184.3" cy="61.9" r="2.8"/>
									<path class="st20" d="M188.8,70.2v-1.5c0-1.3-1.1-2.4-2.4-2.4h-2.2h-2.2c-1.3,0-2.4,1.1-2.4,2.4v1.5H188.8z"/>
								</g>
							</g>
						</g>
					</g>
				</g>
			</g>
		</g>
		<g>
			<g>
				<g>
					<g>
						<g>
							<g>
								<g>
									<circle class="st20" cx="157.9" cy="61.9" r="2.8"/>
									<path class="st20" d="M162.4,70.2v-1.5c0-1.3-1.1-2.4-2.4-2.4h-2.2h-2.2c-1.3,0-2.4,1.1-2.4,2.4v1.5H162.4z"/>
								</g>
							</g>
						</g>
					</g>
				</g>
			</g>
		</g>
	</g>
	<g>
		<g>
			<rect x="267.6" y="149.3" class="st12" width="28.8" height="39.8"/>
			<g>
				<g>
					<g>
						<g>
							<g>
								<g>
									<g>
										<circle class="st20" cx="282.2" cy="158" r="3.3"/>
									</g>
								</g>
							</g>
						</g>
					</g>
				</g>
				<g>
					<g>
						<g>
							<g>
								<g>
									<g>
										<path class="st12" d="M287.1,169.5v-3.8c0-1.3-1.1-2.3-2.3-2.3H282h-2.8c-1.3,0-2.3,1.1-2.3,2.3v3.8H287.1z"/>
									</g>
								</g>
							</g>
						</g>
					</g>
				</g>
			</g>
			<rect x="273.3" y="176" class="st12" width="17.3" height="4.3"/>
		</g>
		<g>
			<rect x="300" y="161.2" class="st12" width="14.7" height="22.1"/>
			<g>
				<g>
					<g>
						<g>
							<g>
								<g>
									<g>
										<circle class="st20" cx="307.5" cy="166.7" r="2.2"/>
									</g>
								</g>
							</g>
						</g>
					</g>
				</g>
				<g>
					<g>
						<g>
							<g>
								<g>
									<g>
										<path class="st12" d="M310.8,174.3v-1.9c0-0.9-0.7-1.6-1.6-1.6h-1.9h-1.9c-0.9,0-1.6,0.7-1.6,1.6v1.9H310.8z"/>
									</g>
								</g>
							</g>
						</g>
					</g>
				</g>
			</g>
		</g>
		<g>
			<g>
				<polyline class="st12" points="280.8,149.4 280.8,144 311.7,144 311.7,155 				"/>
				<g>
					<polygon class="st19" points="308.7,154.1 311.7,159.3 314.7,154.1 					"/>
				</g>
			</g>
		</g>
	</g>
	<g>
		<line id="XMLID_2159_" class="st20" x1="62.4" y1="178.4" x2="62.4" y2="187.7"/>
		<line id="XMLID_2158_" class="st20" x1="54.2" y1="187.7" x2="70.5" y2="187.7"/>
		<g>
			<line id="XMLID_15_" class="st20" x1="70.6" y1="145" x2="73.9" y2="145"/>
			<g id="XMLID_31_">
				<g>
					<polyline class="st20" points="84.3,149 84.3,178.4 40.4,178.4 40.4,145 45.6,145 					"/>
					<g>
						<polygon class="st19" points="81.3,149.9 84.3,144.7 87.3,149.9 						"/>
					</g>
				</g>
			</g>
		</g>
	</g>
	<circle id="XMLID_2151_" class="st20" cx="76.6" cy="145" r="2.3"/>
	<line id="XMLID_2150_" class="st20" x1="40.7" y1="171.3" x2="84.3" y2="171.3"/>
	<g>
		<rect id="XMLID_14_" x="46.1" y="158.8" class="st12" width="7.7" height="8"/>
	</g>
	<line id="XMLID_4_" class="st20" x1="59.1" y1="160.7" x2="78.6" y2="160.7"/>
	<line id="XMLID_16_" class="st20" x1="59.1" y1="165.1" x2="69.9" y2="165.1"/>
	<g>
		<circle class="st12" cx="58" cy="145.2" r="9.4"/>
		<ellipse class="st12" cx="58" cy="145.2" rx="4.3" ry="9.4"/>
		<ellipse class="st12" cx="58" cy="145.2" rx="9.4" ry="4.3"/>
	</g>
	<g>
		<g id="XMLID_6_">
			<g>
				<line id="XMLID_12_" class="st20" x1="174.2" y1="286.7" x2="174.2" y2="296.1"/>
				<line id="XMLID_11_" class="st20" x1="166.1" y1="296.1" x2="182.4" y2="296.1"/>
				<g>
					<g id="XMLID_9_">
						<g>
							<polyline class="st20" points="196.2,257.3 196.2,286.7 152.3,286.7 152.3,253.4 184.9,253.4 							"/>
							<g>
								<polygon class="st19" points="193.2,258.2 196.2,253 199.2,258.2 								"/>
							</g>
						</g>
					</g>
				</g>
			</g>
			<circle id="XMLID_8_" class="st20" cx="187.6" cy="253.4" r="2.3"/>
			<line id="XMLID_7_" class="st20" x1="152.6" y1="279.7" x2="196.2" y2="279.7"/>
		</g>
		<g id="XMLID_13_">
			<path id="XMLID_2163_" class="st20" d="M191.1,265.4h-2.2c-0.8,0-1.4,0.6-1.4,1.4v0c0,0.8,0.6,1.4,1.4,1.4h1.4
				c0.8,0,1.4,0.6,1.4,1.4l0,0c0,0.8-0.6,1.4-1.4,1.4h-2.8"/>
			<line id="XMLID_2162_" class="st20" x1="189.4" y1="265.4" x2="189.4" y2="263.6"/>
			<line id="XMLID_2161_" class="st20" x1="189.4" y1="272.7" x2="189.4" y2="270.9"/>
		</g>
		<g>
			<g>
				<line class="st20" x1="176.9" y1="267.8" x2="180" y2="267.8"/>
				<g>
					<polygon class="st19" points="179.1,270.8 184.3,267.8 179.1,264.8 					"/>
				</g>
			</g>
		</g>
	</g>
	<polygon class="st12" points="174,264.2 157.5,264.2 159.2,272.9 172.3,272.9 	"/>
	<line class="st12" x1="158.9" y1="264.2" x2="161.5" y2="259.7"/>
	<line class="st12" x1="172.8" y1="264.2" x2="170.2" y2="259.7"/>
	<line class="st12" x1="165.7" y1="265.7" x2="165.7" y2="271.1"/>
	<line class="st12" x1="169.8" y1="265.7" x2="169.2" y2="271.1"/>
	<line class="st12" x1="161.7" y1="265.7" x2="162.3" y2="271.1"/>
</g>
</svg>
