<svg id="Layer_1" data-name="Layer 1" xmlns="http://www.w3.org/2000/svg" width="100" height="100" viewBox="0 0 100 100"><defs><style>.cls-1{fill:none;}</style></defs><title>cost-optimized</title><path class="cls-1" d="M76.28,74.57V3.4H23.72V74.57a1.7,1.7,0,0,1-1.7,1.7h-7.8L50,96.35,85.78,76.27H78A1.7,1.7,0,0,1,76.28,74.57ZM58,68.65l-8,13.77-8-13.77H48.3V61.33a13.88,13.88,0,0,1-6.59-1.74l.89-3a12.52,12.52,0,0,0,6.34,1.79c3.62,0,5.74-1.91,5.74-4.67,0-2.57-1.47-4-5.17-5.45-4.47-1.59-7.23-3.9-7.23-7.77,0-3.45,2.31-6.18,6-7.1V27.26a6.94,6.94,0,1,1,3.4,0V33.1a12,12,0,0,1,5.5,1.33l-1,2.88A11,11,0,0,0,51,36c-3.74,0-5.16,2.24-5.16,4.11,0,2.56,1.66,3.82,5.44,5.28,4.64,1.79,7,4,7,8.05,0,3.51-2.16,6.63-6.59,7.58v7.62Z"/><path d="M58.29,53.45c0-4-2.35-6.26-7-8.05-3.78-1.46-5.44-2.72-5.44-5.28C45.86,38.25,47.28,36,51,36a11,11,0,0,1,5.2,1.3l1-2.88a12,12,0,0,0-5.5-1.33V27.26a6.94,6.94,0,1,0-3.4,0v6.16c-3.71.92-6,3.65-6,7.1,0,3.87,2.76,6.18,7.23,7.77,3.7,1.42,5.17,2.88,5.17,5.45,0,2.76-2.12,4.67-5.74,4.67a12.52,12.52,0,0,1-6.34-1.79l-.89,3a13.88,13.88,0,0,0,6.59,1.74v7.32H42.11l8,13.77,8-13.77H51.7V61C56.13,60.08,58.29,57,58.29,53.45ZM46.47,20.54A3.53,3.53,0,1,1,50,24.07,3.54,3.54,0,0,1,46.47,20.54Z"/><path d="M93.94,74.14a1.69,1.69,0,0,0-1.64-1.27H79.68V1.7A1.7,1.7,0,0,0,78,0H22a1.7,1.7,0,0,0-1.7,1.7V72.87H7.71a1.7,1.7,0,0,0-.84,3.18l42.3,23.73A1.64,1.64,0,0,0,50,100a1.61,1.61,0,0,0,.83-.22l42.3-23.73A1.69,1.69,0,0,0,93.94,74.14ZM50,96.35,14.22,76.27H22a1.7,1.7,0,0,0,1.7-1.7V3.4H76.28V74.57a1.7,1.7,0,0,0,1.7,1.7h7.8Z"/></svg>