<svg id="Layer_1" data-name="Layer 1" xmlns="http://www.w3.org/2000/svg" width="100" height="100" viewBox="0 0 100 100"><title>data-center</title><path d="M.1,92c2.36-1.32,4.72-2.63,7.07-4,2.18-1.24,4.34-2.51,6.68-3.85V90.3H27.51V77.81H12.22V0H46.38V77.68H31.08V90.29H69V77.78H53.68V0H87.89V77.7H72.53V90.29H86.15V84c.55.3.94.49,1.32.71l11.41,6.58a9.35,9.35,0,0,0,1,.46V92L86.15,99.88v-6H13.86V100h-.22c-1.37-.82-2.72-1.67-4.11-2.46C6.4,95.74,3.24,94,.1,92.2Zm84.36-17.7V3.45H57.12V74.27ZM15.69,3.43V74.24H43V3.43Z"/><path d="M59.24,21.49V8.5h23v13ZM78.87,12H62.69v6H78.87Z"/><path d="M59.25,23.86h23v13h-23Zm3.45,3.48v6H78.83v-6Z"/><path d="M70.73,65.62a6.78,6.78,0,0,1-6.85-6.92,6.9,6.9,0,1,1,13.8.09A6.8,6.8,0,0,1,70.73,65.62Zm.06-3.41a3.46,3.46,0,0,0,3.48-3.48,3.51,3.51,0,0,0-3.51-3.47,3.43,3.43,0,0,0-3.44,3.5A3.38,3.38,0,0,0,70.79,62.21Z"/><path d="M60.93,43.67V40.41H80.57v3.26Z"/><path d="M17.85,8.49h23v13h-23ZM21.26,18H37.38V12H21.26Z"/><path d="M40.81,36.81h-23V23.9h23Zm-3.42-3.43v-6H21.29v6Z"/><path d="M29.3,65.62a6.84,6.84,0,0,1-6.91-6.9,6.92,6.92,0,1,1,13.84,0A6.83,6.83,0,0,1,29.3,65.62Zm.07-3.41a3.51,3.51,0,0,0,3.46-3.51,3.56,3.56,0,0,0-3.56-3.44,3.48,3.48,0,1,0,.1,7Z"/><path d="M39.14,40.38v3.33H19.5V40.38Z"/></svg>