<svg id="Layer_1" data-name="Layer 1" xmlns="http://www.w3.org/2000/svg" viewBox="0 0 633.24 724.74"><defs><style>.cls-1{fill:#fbc2ba;}.cls-2{fill:#fcddd6;}.cls-3{fill:#4c0519;}.cls-4{fill:none;stroke:#4c0519;stroke-miterlimit:10;stroke-width:3px;}</style></defs><title>maintenance</title><rect class="cls-1" width="633.24" height="233.97"/><rect class="cls-2" y="239.78" width="633.24" height="235.97"/><rect class="cls-1" y="481.78" width="633.24" height="242.97"/><path class="cls-3" d="M75.62,153.9v22.81H71.46V153.9Z"/><path class="cls-3" d="M80.43,165.14c0-1.9,0-3.49-.14-4.91H84l.2,2.47h.1a5.94,5.94,0,0,1,5.25-2.84c2.87,0,5.85,1.86,5.85,7.07v9.78H91.19V167.4c0-2.37-.88-4.16-3.15-4.16a3.5,3.5,0,0,0-3.25,2.44,4.38,4.38,0,0,0-.17,1.35v9.68H80.43Z"/><path class="cls-3" d="M99.59,172.89a9.32,9.32,0,0,0,4.23,1.18c1.82,0,2.64-.74,2.64-1.83s-.68-1.69-2.71-2.4c-3.22-1.12-4.57-2.88-4.54-4.81,0-2.91,2.41-5.17,6.23-5.17a9.67,9.67,0,0,1,4.37,1l-.81,2.94a7.55,7.55,0,0,0-3.49-.94c-1.49,0-2.3.71-2.3,1.72s.78,1.56,2.87,2.3c3,1.09,4.37,2.61,4.4,5,0,3-2.33,5.14-6.7,5.14a10.63,10.63,0,0,1-5-1.15Z"/><path class="cls-3" d="M118.34,155.63a2.34,2.34,0,1,1-2.34-2.27A2.2,2.2,0,0,1,118.34,155.63Zm-4.43,21.08V160.23h4.19v16.48Z"/><path class="cls-3" d="M137.63,160.23c-.07,1.12-.13,2.47-.13,4.74v9.34c0,3.45-.71,5.92-2.44,7.48a9.5,9.5,0,0,1-6.36,2,11.68,11.68,0,0,1-5.76-1.32l.92-3.14a9.94,9.94,0,0,0,4.8,1.25c2.71,0,4.74-1.42,4.74-5v-1.42h-.07a5.54,5.54,0,0,1-4.8,2.44c-4.1,0-7-3.38-7-8.05,0-5.42,3.52-8.7,7.48-8.7a5.19,5.19,0,0,1,4.77,2.57h.07l.17-2.2Zm-4.3,6.6a4.14,4.14,0,0,0-.13-1.12,3.46,3.46,0,0,0-3.39-2.67c-2.33,0-4.06,2-4.06,5.38,0,2.81,1.42,5.08,4,5.08a3.55,3.55,0,0,0,3.38-2.51,6.61,6.61,0,0,0,.17-1.49Z"/><path class="cls-3" d="M142,152.68h4.19v9.82h.07a5.95,5.95,0,0,1,4.91-2.64c2.81,0,5.75,1.86,5.75,7.14v9.71h-4.16v-9.24c0-2.4-.88-4.19-3.18-4.19a3.39,3.39,0,0,0-3.22,2.33,3.64,3.64,0,0,0-.17,1.25v9.85H142Z"/><path class="cls-3" d="M165.93,155.52v4.71h4v3.11h-4v7.28c0,2,.54,3,2.14,3a6.12,6.12,0,0,0,1.62-.21l.07,3.18a9,9,0,0,1-3,.41,4.84,4.84,0,0,1-3.59-1.35c-.88-.95-1.29-2.44-1.29-4.61v-7.75H159.5v-3.11h2.37v-3.72Z"/><path class="cls-3" d="M172.84,172.89a9.36,9.36,0,0,0,4.23,1.18c1.83,0,2.64-.74,2.64-1.83s-.68-1.69-2.71-2.4c-3.21-1.12-4.57-2.88-4.53-4.81,0-2.91,2.4-5.17,6.23-5.17a9.66,9.66,0,0,1,4.36,1l-.81,2.94a7.48,7.48,0,0,0-3.49-.94c-1.49,0-2.3.71-2.3,1.72s.78,1.56,2.88,2.3c3,1.09,4.36,2.61,4.4,5,0,3-2.34,5.14-6.7,5.14a10.6,10.6,0,0,1-5-1.15Z"/><path class="cls-3" d="M316,37.11c0,5.89-3.58,9-7.95,9s-7.69-3.5-7.69-8.68c0-5.44,3.37-9,7.95-9S316,32,316,37.11Zm-13.28.28c0,3.65,2,6.93,5.46,6.93s5.48-3.23,5.48-7.11c0-3.4-1.77-7-5.46-7S302.74,33.63,302.74,37.39Z"/><path class="cls-3" d="M318.71,45.84c.05-.84.1-2.08.1-3.17V27.81H321v7.72h.05a4.58,4.58,0,0,1,4.19-2.26c3.05,0,5.2,2.54,5.18,6.27,0,4.4-2.77,6.58-5.51,6.58a4.37,4.37,0,0,1-4.11-2.31h-.08l-.1,2ZM321,40.91a4.38,4.38,0,0,0,.1.82,3.44,3.44,0,0,0,3.35,2.61c2.34,0,3.73-1.9,3.73-4.72,0-2.46-1.27-4.57-3.65-4.57a3.55,3.55,0,0,0-3.4,2.74,3.91,3.91,0,0,0-.13.92Z"/><path class="cls-3" d="M333,43.56a5.88,5.88,0,0,0,2.95.88c1.62,0,2.38-.81,2.38-1.82S337.65,41,336,40.36c-2.21-.79-3.25-2-3.25-3.48,0-2,1.6-3.61,4.24-3.61a6.22,6.22,0,0,1,3,.76l-.56,1.63a4.72,4.72,0,0,0-2.51-.71c-1.32,0-2.06.76-2.06,1.67s.74,1.48,2.34,2.09c2.13.81,3.22,1.87,3.22,3.7,0,2.16-1.68,3.68-4.6,3.68a7.09,7.09,0,0,1-3.45-.83Z"/><path class="cls-3" d="M354.43,39.59c0,4.55-3.15,6.53-6.12,6.53-3.33,0-5.89-2.44-5.89-6.32,0-4.12,2.69-6.53,6.09-6.53S354.43,35.84,354.43,39.59Zm-9.75.13c0,2.69,1.55,4.72,3.73,4.72s3.73-2,3.73-4.77c0-2.08-1-4.72-3.68-4.72S344.68,37.39,344.68,39.72Z"/><path class="cls-3" d="M357.25,27.81h2.23v18h-2.23Z"/><path class="cls-3" d="M364.48,40.1c0,3,2,4.27,4.22,4.27a8,8,0,0,0,3.4-.64l.38,1.6a9.89,9.89,0,0,1-4.09.76c-3.78,0-6-2.48-6-6.19s2.18-6.63,5.76-6.63c4,0,5.08,3.53,5.08,5.79a10,10,0,0,1-.07,1ZM371,38.5c0-1.42-.58-3.63-3.09-3.63-2.26,0-3.25,2.08-3.43,3.63Z"/><path class="cls-3" d="M375.65,43.56a5.88,5.88,0,0,0,3,.88c1.62,0,2.39-.81,2.39-1.82s-.64-1.65-2.29-2.26c-2.21-.79-3.25-2-3.25-3.48,0-2,1.6-3.61,4.24-3.61a6.19,6.19,0,0,1,3,.76l-.56,1.63a4.72,4.72,0,0,0-2.51-.71c-1.32,0-2.06.76-2.06,1.67s.74,1.48,2.34,2.09c2.13.81,3.22,1.87,3.22,3.7,0,2.16-1.67,3.68-4.59,3.68a7.13,7.13,0,0,1-3.46-.83Z"/><path class="cls-3" d="M394.77,45.38a8.14,8.14,0,0,1-3.53.71c-3.7,0-6.12-2.51-6.12-6.27a6.24,6.24,0,0,1,6.6-6.52,7.57,7.57,0,0,1,3.1.63l-.51,1.73a5.1,5.1,0,0,0-2.59-.59c-2.81,0-4.34,2.09-4.34,4.65,0,2.84,1.83,4.6,4.27,4.6a6.31,6.31,0,0,0,2.74-.61Z"/><path class="cls-3" d="M398.48,40.1c0,3,2,4.27,4.21,4.27a8,8,0,0,0,3.4-.64l.39,1.6a9.93,9.93,0,0,1-4.09.76c-3.79,0-6.05-2.48-6.05-6.19s2.19-6.63,5.77-6.63c4,0,5.08,3.53,5.08,5.79a7.43,7.43,0,0,1-.08,1ZM405,38.5c0-1.42-.59-3.63-3.1-3.63-2.26,0-3.25,2.08-3.43,3.63Z"/><path class="cls-3" d="M410,36.88c0-1.27,0-2.31-.1-3.33h2l.13,2H412a4.51,4.51,0,0,1,4.06-2.31c1.7,0,4.34,1,4.34,5.23v7.34h-2.23V38.76c0-2-.74-3.63-2.84-3.63a3.17,3.17,0,0,0-3,2.28,3.26,3.26,0,0,0-.15,1v7.39H410Z"/><path class="cls-3" d="M432.8,45.38a8.14,8.14,0,0,1-3.53.71c-3.7,0-6.11-2.51-6.11-6.27a6.24,6.24,0,0,1,6.6-6.52,7.48,7.48,0,0,1,3.09.63l-.5,1.73a5.13,5.13,0,0,0-2.59-.59c-2.82,0-4.35,2.09-4.35,4.65,0,2.84,1.83,4.6,4.27,4.6a6.31,6.31,0,0,0,2.74-.61Z"/><path class="cls-3" d="M436.51,40.1c.05,3,2,4.27,4.21,4.27a8,8,0,0,0,3.41-.64l.38,1.6a9.93,9.93,0,0,1-4.09.76c-3.78,0-6-2.48-6-6.19s2.18-6.63,5.76-6.63c4,0,5.08,3.53,5.08,5.79a7.43,7.43,0,0,1-.08,1Zm6.55-1.6c0-1.42-.58-3.63-3.1-3.63-2.26,0-3.25,2.08-3.42,3.63Z"/><path class="cls-3" d="M453.37,37.39c0-1.45,0-2.7-.1-3.84h2L455.3,36h.1a3.68,3.68,0,0,1,3.4-2.69,2.55,2.55,0,0,1,.64.08v2.11a2.94,2.94,0,0,0-.77-.08,3.13,3.13,0,0,0-3,2.87,6.33,6.33,0,0,0-.1,1v6.55h-2.21Z"/><path class="cls-3" d="M464.26,30.1a1.39,1.39,0,0,1-2.77,0,1.37,1.37,0,0,1,1.4-1.4A1.33,1.33,0,0,1,464.26,30.1Zm-2.49,15.74V33.55H464V45.84Z"/><path class="cls-3" d="M467.41,43.56a5.84,5.84,0,0,0,2.94.88c1.63,0,2.39-.81,2.39-1.82s-.64-1.65-2.29-2.26c-2.21-.79-3.25-2-3.25-3.48,0-2,1.6-3.61,4.24-3.61a6.16,6.16,0,0,1,3,.76l-.55,1.63a4.76,4.76,0,0,0-2.52-.71c-1.32,0-2.05.76-2.05,1.67s.73,1.48,2.33,2.09c2.13.81,3.23,1.87,3.23,3.7,0,2.16-1.68,3.68-4.6,3.68a7.09,7.09,0,0,1-3.45-.83Z"/><path class="cls-3" d="M480,39.19h0c.31-.43.74-1,1.1-1.4l3.6-4.24h2.69l-4.75,5.05,5.41,7.24h-2.71L481.12,40,480,41.22v4.62h-2.21v-18H480Z"/><path class="cls-3" d="M301.39,84a22.9,22.9,0,0,1,4.24-.36c2.37,0,3.89.43,4.95,1.4a4.24,4.24,0,0,1,1.35,3.25,4.48,4.48,0,0,1-3.22,4.36v.08c1.32.46,2.1,1.68,2.51,3.45a26.91,26.91,0,0,0,1.32,4.7h-2.29a22.63,22.63,0,0,1-1.14-4.09c-.51-2.36-1.42-3.25-3.43-3.32H303.6v7.41h-2.21Zm2.21,7.79h2.26c2.36,0,3.86-1.29,3.86-3.25,0-2.21-1.6-3.17-3.93-3.2a9.3,9.3,0,0,0-2.19.2Z"/><path class="cls-3" d="M326.2,94.59c0,4.55-3.15,6.53-6.12,6.53-3.33,0-5.89-2.44-5.89-6.32,0-4.12,2.69-6.53,6.09-6.53S326.2,90.84,326.2,94.59Zm-9.75.13c0,2.69,1.55,4.72,3.73,4.72s3.73-2,3.73-4.77c0-2.08-1-4.72-3.68-4.72S316.45,92.39,316.45,94.72Z"/><path class="cls-3" d="M340.14,94.59c0,4.55-3.15,6.53-6.12,6.53-3.33,0-5.89-2.44-5.89-6.32,0-4.12,2.69-6.53,6.09-6.53S340.14,90.84,340.14,94.59Zm-9.75.13c0,2.69,1.55,4.72,3.73,4.72s3.73-2,3.73-4.77c0-2.08-1-4.72-3.68-4.72S330.39,92.39,330.39,94.72Z"/><path class="cls-3" d="M345.65,85v3.53h3.2v1.7h-3.2v6.63c0,1.52.43,2.39,1.67,2.39a4.76,4.76,0,0,0,1.3-.16l.1,1.68a5.44,5.44,0,0,1-2,.3,3.09,3.09,0,0,1-2.41-.94,4.51,4.51,0,0,1-.87-3.19V90.25h-1.9v-1.7h1.9V85.61Z"/><path class="cls-3" d="M365.5,100.38a8.14,8.14,0,0,1-3.53.71c-3.71,0-6.12-2.51-6.12-6.27a6.24,6.24,0,0,1,6.6-6.52,7.57,7.57,0,0,1,3.1.63L365,90.66a5.1,5.1,0,0,0-2.59-.59c-2.82,0-4.34,2.09-4.34,4.65,0,2.84,1.83,4.6,4.27,4.6a6.34,6.34,0,0,0,2.74-.61Z"/><path class="cls-3" d="M374.92,100.84l-.18-1.55h-.08a4.54,4.54,0,0,1-3.75,1.83,3.5,3.5,0,0,1-3.76-3.53c0-3,2.64-4.6,7.39-4.57v-.25a2.54,2.54,0,0,0-2.79-2.85,6.09,6.09,0,0,0-3.2.92L368,89.36a7.62,7.62,0,0,1,4-1.09c3.75,0,4.67,2.57,4.67,5v4.59a17.62,17.62,0,0,0,.2,3Zm-.33-6.27c-2.44,0-5.21.38-5.21,2.77a2,2,0,0,0,2.11,2.13,3.05,3.05,0,0,0,3-2.06,2.22,2.22,0,0,0,.13-.71Z"/><path class="cls-3" d="M390.63,97.49c0,1.27,0,2.39.11,3.35h-2l-.13-2h-.05a4.64,4.64,0,0,1-4.06,2.29c-1.93,0-4.24-1.07-4.24-5.38V88.55h2.23v6.81c0,2.33.71,3.91,2.74,3.91a3.25,3.25,0,0,0,2.95-2,3.4,3.4,0,0,0,.2-1.14V88.55h2.23Z"/><path class="cls-3" d="M394,98.56a5.84,5.84,0,0,0,2.94.88c1.63,0,2.39-.81,2.39-1.82s-.64-1.65-2.29-2.26c-2.21-.79-3.25-2-3.25-3.48,0-2,1.6-3.61,4.24-3.61a6.16,6.16,0,0,1,3,.76l-.55,1.63A4.79,4.79,0,0,0,398,90c-1.32,0-2,.76-2,1.67s.73,1.48,2.33,2.09c2.13.81,3.23,1.87,3.23,3.7,0,2.16-1.68,3.68-4.6,3.68a7.06,7.06,0,0,1-3.45-.83Z"/><path class="cls-3" d="M405.64,95.1c.05,3,2,4.27,4.21,4.27a8,8,0,0,0,3.41-.64l.38,1.6a9.93,9.93,0,0,1-4.09.76c-3.78,0-6-2.48-6-6.19s2.18-6.63,5.76-6.63c4,0,5.08,3.53,5.08,5.79a7.43,7.43,0,0,1-.08,1Zm6.55-1.6c0-1.42-.58-3.63-3.1-3.63-2.26,0-3.25,2.08-3.43,3.63Z"/><path class="cls-3" d="M433.62,94.59c0,4.55-3.15,6.53-6.12,6.53-3.33,0-5.89-2.44-5.89-6.32,0-4.12,2.69-6.53,6.09-6.53S433.62,90.84,433.62,94.59Zm-9.75.13c0,2.69,1.55,4.72,3.73,4.72s3.73-2,3.73-4.77c0-2.08-1-4.72-3.68-4.72S423.87,92.39,423.87,94.72Z"/><path class="cls-3" d="M436.66,100.84V90.25h-1.72v-1.7h1.72V88a5.79,5.79,0,0,1,1.42-4.29,4.26,4.26,0,0,1,3-1.15,5.18,5.18,0,0,1,1.91.36l-.31,1.73a3.23,3.23,0,0,0-1.42-.28c-1.91,0-2.39,1.67-2.39,3.55v.66h3v1.7h-3v10.59Z"/><path class="cls-3" d="M449.46,100.84V90.25h-1.73v-1.7h1.73V88a5.79,5.79,0,0,1,1.42-4.29,4.25,4.25,0,0,1,3-1.15,5.12,5.12,0,0,1,1.9.36l-.3,1.73a3.25,3.25,0,0,0-1.43-.28c-1.9,0-2.38,1.67-2.38,3.55v.66h3v1.7h-3v10.59Z"/><path class="cls-3" d="M463.45,100.84l-.18-1.55h-.08a4.54,4.54,0,0,1-3.75,1.83,3.5,3.5,0,0,1-3.76-3.53c0-3,2.64-4.6,7.39-4.57v-.25a2.54,2.54,0,0,0-2.8-2.85,6.14,6.14,0,0,0-3.2.92l-.5-1.48a7.58,7.58,0,0,1,4-1.09c3.76,0,4.68,2.57,4.68,5v4.59a17.62,17.62,0,0,0,.2,3Zm-.33-6.27c-2.44,0-5.21.38-5.21,2.77A2,2,0,0,0,460,99.47a3.06,3.06,0,0,0,3-2.06,2.22,2.22,0,0,0,.13-.71Z"/><path class="cls-3" d="M471.37,85.1a1.39,1.39,0,0,1-2.77,0,1.36,1.36,0,0,1,1.4-1.4A1.33,1.33,0,0,1,471.37,85.1Zm-2.49,15.74V88.55h2.23v12.29Z"/><path class="cls-3" d="M474.82,82.81h2.23v18h-2.23Z"/><path class="cls-3" d="M491.09,97.49c0,1.27,0,2.39.11,3.35h-2l-.13-2h0a4.64,4.64,0,0,1-4.06,2.29c-1.93,0-4.24-1.07-4.24-5.38V88.55H483v6.81c0,2.33.71,3.91,2.74,3.91a3.25,3.25,0,0,0,3-2,3.4,3.4,0,0,0,.2-1.14V88.55h2.23Z"/><path class="cls-3" d="M494.8,92.39c0-1.45,0-2.7-.1-3.84h1.95l.08,2.41h.1a3.69,3.69,0,0,1,3.4-2.69,2.43,2.43,0,0,1,.64.08v2.11a2.91,2.91,0,0,0-.76-.08,3.13,3.13,0,0,0-3,2.87,6.33,6.33,0,0,0-.1,1v6.55H494.8Z"/><path class="cls-3" d="M504.09,95.1c.05,3,2,4.27,4.22,4.27a8,8,0,0,0,3.4-.64l.38,1.6a9.89,9.89,0,0,1-4.09.76c-3.78,0-6-2.48-6-6.19s2.18-6.63,5.76-6.63c4,0,5.08,3.53,5.08,5.79a10,10,0,0,1-.07,1Zm6.55-1.6c0-1.42-.58-3.63-3.09-3.63-2.26,0-3.25,2.08-3.43,3.63Z"/><path class="cls-3" d="M303.6,138.73v10.13c0,3.83,1.7,5.46,4,5.46,2.54,0,4.16-1.68,4.16-5.46V138.73H314v10c0,5.25-2.77,7.41-6.48,7.41-3.5,0-6.14-2-6.14-7.31V138.73Z"/><path class="cls-3" d="M317.74,146.88c0-1.27,0-2.31-.1-3.33h2l.13,2h.05a4.51,4.51,0,0,1,4.06-2.31c1.7,0,4.34,1,4.34,5.23v7.34H326v-7.08c0-2-.74-3.63-2.84-3.63a3.17,3.17,0,0,0-3,2.28,3.26,3.26,0,0,0-.15,1v7.39h-2.24Z"/><path class="cls-3" d="M334.32,140.1a1.31,1.31,0,0,1-1.42,1.37,1.33,1.33,0,0,1-1.35-1.37,1.37,1.37,0,0,1,1.4-1.4A1.33,1.33,0,0,1,334.32,140.1Zm-2.49,15.74V143.55h2.24v12.29Z"/><path class="cls-3" d="M340.47,140v3.53h3.19v1.7h-3.19v6.63c0,1.52.43,2.39,1.67,2.39a4.76,4.76,0,0,0,1.3-.16l.1,1.68a5.44,5.44,0,0,1-2,.3,3.09,3.09,0,0,1-2.41-.94,4.51,4.51,0,0,1-.87-3.19v-6.71h-1.9v-1.7h1.9v-2.94Z"/><path class="cls-3" d="M351.56,146.88c0-1.27,0-2.31-.1-3.33h2l.1,2h.08a4.24,4.24,0,0,1,3.86-2.26,3.63,3.63,0,0,1,3.48,2.46H361a5,5,0,0,1,1.37-1.59,4.2,4.2,0,0,1,2.72-.87c1.62,0,4,1.07,4,5.33v7.24h-2.18v-7c0-2.36-.86-3.78-2.67-3.78a2.91,2.91,0,0,0-2.64,2,3.77,3.77,0,0,0-.17,1.12v7.59h-2.19v-7.36c0-2-.86-3.38-2.56-3.38a3.33,3.33,0,0,0-2.95,3.33v7.41h-2.18Z"/><path class="cls-3" d="M379.54,155.84l-.18-1.55h-.08a4.54,4.54,0,0,1-3.75,1.83,3.5,3.5,0,0,1-3.76-3.53c0-3,2.64-4.6,7.39-4.57v-.25a2.54,2.54,0,0,0-2.8-2.85,6.14,6.14,0,0,0-3.2.92l-.5-1.48a7.61,7.61,0,0,1,4-1.09c3.76,0,4.68,2.57,4.68,5v4.59a17.62,17.62,0,0,0,.2,3Zm-.33-6.27c-2.44,0-5.21.38-5.21,2.77a2,2,0,0,0,2.11,2.13,3.05,3.05,0,0,0,3-2.06,2.22,2.22,0,0,0,.13-.71Z"/><path class="cls-3" d="M387.46,140.1a1.39,1.39,0,0,1-2.77,0,1.37,1.37,0,0,1,1.4-1.4A1.33,1.33,0,0,1,387.46,140.1ZM385,155.84V143.55h2.24v12.29Z"/><path class="cls-3" d="M390.91,146.88c0-1.27,0-2.31-.1-3.33h2l.13,2H393a4.51,4.51,0,0,1,4.06-2.31c1.7,0,4.34,1,4.34,5.23v7.34h-2.23v-7.08c0-2-.74-3.63-2.85-3.63a3.17,3.17,0,0,0-3,2.28,3.26,3.26,0,0,0-.15,1v7.39h-2.24Z"/><path class="cls-3" d="M407.59,140v3.53h3.2v1.7h-3.2v6.63c0,1.52.43,2.39,1.68,2.39a4.73,4.73,0,0,0,1.29-.16l.1,1.68a5.4,5.4,0,0,1-2,.3,3.09,3.09,0,0,1-2.41-.94,4.56,4.56,0,0,1-.86-3.19v-6.71H403.5v-1.7h1.91v-2.94Z"/><path class="cls-3" d="M414.4,150.1c.05,3,2,4.27,4.21,4.27a8,8,0,0,0,3.4-.64l.38,1.6a9.83,9.83,0,0,1-4.08.76c-3.79,0-6.05-2.48-6.05-6.19s2.19-6.63,5.77-6.63c4,0,5.07,3.53,5.07,5.79a10,10,0,0,1-.07,1Zm6.55-1.6c0-1.42-.59-3.63-3.1-3.63-2.26,0-3.25,2.08-3.43,3.63Z"/><path class="cls-3" d="M425.87,146.88c0-1.27,0-2.31-.1-3.33h2l.13,2h.05a4.51,4.51,0,0,1,4.06-2.31c1.7,0,4.34,1,4.34,5.23v7.34H434.1v-7.08c0-2-.74-3.63-2.85-3.63a3.17,3.17,0,0,0-3,2.28,3.26,3.26,0,0,0-.15,1v7.39h-2.24Z"/><path class="cls-3" d="M446.77,155.84l-.18-1.55h-.08a4.55,4.55,0,0,1-3.76,1.83,3.5,3.5,0,0,1-3.75-3.53c0-3,2.64-4.6,7.39-4.57v-.25a2.54,2.54,0,0,0-2.8-2.85,6.14,6.14,0,0,0-3.2.92l-.5-1.48a7.58,7.58,0,0,1,4-1.09c3.76,0,4.67,2.57,4.67,5v4.59a17.55,17.55,0,0,0,.21,3Zm-.33-6.27c-2.44,0-5.21.38-5.21,2.77a2,2,0,0,0,2.11,2.13,3.06,3.06,0,0,0,3-2.06,2.22,2.22,0,0,0,.13-.71Z"/><path class="cls-3" d="M452.2,146.88c0-1.27,0-2.31-.1-3.33h2l.13,2h.05a4.51,4.51,0,0,1,4.06-2.31c1.7,0,4.34,1,4.34,5.23v7.34h-2.23v-7.08c0-2-.74-3.63-2.85-3.63a3.17,3.17,0,0,0-3,2.28,3,3,0,0,0-.16,1v7.39H452.2Z"/><path class="cls-3" d="M475.05,155.38a8.14,8.14,0,0,1-3.53.71c-3.71,0-6.12-2.51-6.12-6.27a6.24,6.24,0,0,1,6.6-6.52,7.57,7.57,0,0,1,3.1.63l-.51,1.73a5.1,5.1,0,0,0-2.59-.59c-2.82,0-4.34,2.09-4.34,4.65,0,2.84,1.83,4.6,4.27,4.6a6.34,6.34,0,0,0,2.74-.61Z"/><path class="cls-3" d="M478.76,150.1c.05,3,2,4.27,4.21,4.27a8,8,0,0,0,3.4-.64l.38,1.6a9.83,9.83,0,0,1-4.08.76c-3.79,0-6.05-2.48-6.05-6.19s2.19-6.63,5.77-6.63c4,0,5.07,3.53,5.07,5.79a10,10,0,0,1-.07,1Zm6.55-1.6c0-1.42-.59-3.63-3.1-3.63-2.26,0-3.25,2.08-3.43,3.63Z"/><path class="cls-3" d="M504.37,155.38a8.14,8.14,0,0,1-3.53.71c-3.7,0-6.12-2.51-6.12-6.27a6.24,6.24,0,0,1,6.61-6.52,7.52,7.52,0,0,1,3.09.63l-.5,1.73a5.16,5.16,0,0,0-2.59-.59c-2.82,0-4.35,2.09-4.35,4.65,0,2.84,1.83,4.6,4.27,4.6a6.31,6.31,0,0,0,2.74-.61Z"/><path class="cls-3" d="M518,149.59c0,4.55-3.15,6.53-6.12,6.53-3.33,0-5.89-2.44-5.89-6.32,0-4.12,2.69-6.53,6.09-6.53S518,145.84,518,149.59Zm-9.75.13c0,2.69,1.54,4.72,3.73,4.72s3.73-2,3.73-4.77c0-2.08-1-4.72-3.68-4.72S508.21,147.39,508.21,149.72Z"/><path class="cls-3" d="M520.47,153.56a5.87,5.87,0,0,0,2.94.88c1.63,0,2.39-.81,2.39-1.82s-.63-1.65-2.28-2.26c-2.21-.79-3.25-2-3.25-3.48,0-2,1.6-3.61,4.24-3.61a6.22,6.22,0,0,1,3,.76l-.56,1.63a4.72,4.72,0,0,0-2.51-.71c-1.33,0-2.06.76-2.06,1.67s.73,1.48,2.33,2.09c2.14.81,3.23,1.87,3.23,3.7,0,2.16-1.68,3.68-4.6,3.68a7.09,7.09,0,0,1-3.45-.83Z"/><path class="cls-3" d="M533.52,140v3.53h3.2v1.7h-3.2v6.63c0,1.52.43,2.39,1.67,2.39a4.76,4.76,0,0,0,1.3-.16l.1,1.68a5.44,5.44,0,0,1-2,.3,3.09,3.09,0,0,1-2.41-.94,4.51,4.51,0,0,1-.87-3.19v-6.71h-1.9v-1.7h1.9v-2.94Z"/><path class="cls-3" d="M301.09,208.15a7.83,7.83,0,0,0,4,1.12c2.26,0,3.58-1.2,3.58-2.92s-.91-2.52-3.22-3.41c-2.8-1-4.52-2.43-4.52-4.85,0-2.66,2.2-4.64,5.53-4.64a7.66,7.66,0,0,1,3.78.84l-.61,1.8a6.72,6.72,0,0,0-3.25-.81c-2.33,0-3.22,1.39-3.22,2.56,0,1.6,1,2.39,3.4,3.3,2.9,1.12,4.37,2.51,4.37,5s-2,4.92-6,4.92a8.84,8.84,0,0,1-4.37-1.09Z"/><path class="cls-3" d="M324.12,207.49c0,1.27,0,2.39.1,3.35h-2l-.13-2h-.05a4.62,4.62,0,0,1-4.06,2.29c-1.93,0-4.24-1.07-4.24-5.38v-7.19H316v6.81c0,2.33.71,3.91,2.74,3.91a3.25,3.25,0,0,0,2.95-2,3.17,3.17,0,0,0,.2-1.14v-7.54h2.24Z"/><path class="cls-3" d="M327.82,202.56c0-1.57-.05-2.84-.1-4h2l.1,2.11h.05a4.83,4.83,0,0,1,4.37-2.39c3,0,5.2,2.52,5.2,6.25,0,4.42-2.69,6.6-5.58,6.6a4.32,4.32,0,0,1-3.79-1.93H330v6.68h-2.21Zm2.21,3.28a5.07,5.07,0,0,0,.1.91,3.46,3.46,0,0,0,3.36,2.62c2.36,0,3.73-1.93,3.73-4.75,0-2.46-1.3-4.57-3.66-4.57a3.58,3.58,0,0,0-3.38,2.77,3.93,3.93,0,0,0-.15.91Z"/><path class="cls-3" d="M342.27,202.56c0-1.57,0-2.84-.1-4h2l.1,2.11h.06a4.82,4.82,0,0,1,4.36-2.39c3,0,5.21,2.52,5.21,6.25,0,4.42-2.69,6.6-5.59,6.6a4.3,4.3,0,0,1-3.78-1.93h0v6.68h-2.21Zm2.21,3.28a5.07,5.07,0,0,0,.1.91,3.45,3.45,0,0,0,3.35,2.62c2.36,0,3.73-1.93,3.73-4.75,0-2.46-1.29-4.57-3.65-4.57a3.56,3.56,0,0,0-3.38,2.77,3.47,3.47,0,0,0-.15.91Z"/><path class="cls-3" d="M356.71,192.81H359v18h-2.24Z"/><path class="cls-3" d="M363.52,198.55l2.69,7.26c.28.82.58,1.78.79,2.52h.05c.23-.74.48-1.68.78-2.57l2.44-7.21h2.36l-3.35,8.76c-1.6,4.22-2.69,6.37-4.21,7.69a6,6,0,0,1-2.75,1.45l-.55-1.88a6,6,0,0,0,2-1.09A6.72,6.72,0,0,0,365.6,211a1.63,1.63,0,0,0,.18-.53,1.69,1.69,0,0,0-.16-.58l-4.54-11.33Z"/><path class="cls-3" d="M388.8,210.38a8.09,8.09,0,0,1-3.52.71c-3.71,0-6.12-2.51-6.12-6.27a6.24,6.24,0,0,1,6.6-6.52,7.57,7.57,0,0,1,3.1.63l-.51,1.73a5.13,5.13,0,0,0-2.59-.59c-2.82,0-4.34,2.09-4.34,4.65,0,2.84,1.82,4.6,4.26,4.6a6.31,6.31,0,0,0,2.74-.61Z"/><path class="cls-3" d="M391.42,192.81h2.23v7.67h.05a4.23,4.23,0,0,1,1.6-1.57,4.62,4.62,0,0,1,2.29-.64c1.65,0,4.29,1,4.29,5.26v7.31h-2.23v-7.06c0-2-.74-3.65-2.85-3.65a3.19,3.19,0,0,0-3,2.23,2.62,2.62,0,0,0-.16,1.07v7.41h-2.23Z"/><path class="cls-3" d="M412.31,210.84l-.17-1.55h-.08a4.58,4.58,0,0,1-3.76,1.83,3.5,3.5,0,0,1-3.76-3.53c0-3,2.65-4.6,7.39-4.57v-.25a2.54,2.54,0,0,0-2.79-2.85,6.11,6.11,0,0,0-3.2.92l-.51-1.48a7.65,7.65,0,0,1,4-1.09c3.76,0,4.67,2.57,4.67,5v4.59a16.55,16.55,0,0,0,.21,3Zm-.33-6.27c-2.43,0-5.2.38-5.2,2.77a2,2,0,0,0,2.11,2.13,3.06,3.06,0,0,0,3-2.06,2.52,2.52,0,0,0,.12-.71Z"/><path class="cls-3" d="M420.24,195.1a1.39,1.39,0,0,1-2.77,0,1.36,1.36,0,0,1,1.39-1.4A1.33,1.33,0,0,1,420.24,195.1Zm-2.49,15.74V198.55H420v12.29Z"/><path class="cls-3" d="M423.69,201.88c0-1.27,0-2.31-.1-3.33h2l.12,2h.05a4.53,4.53,0,0,1,4.07-2.31c1.7,0,4.34,1,4.34,5.23v7.34h-2.24v-7.08c0-2-.73-3.63-2.84-3.63a3.19,3.19,0,0,0-3,2.28,3.26,3.26,0,0,0-.15,1v7.39h-2.23Z"/><path class="cls-3" d="M443.06,210.84c.05-.84.1-2.08.1-3.17V192.81h2.21v7.72h.05a4.58,4.58,0,0,1,4.19-2.26c3.05,0,5.2,2.54,5.18,6.27,0,4.4-2.77,6.58-5.51,6.58a4.37,4.37,0,0,1-4.11-2.31h-.08l-.1,2Zm2.31-4.93a4.38,4.38,0,0,0,.1.82,3.44,3.44,0,0,0,3.35,2.61c2.34,0,3.73-1.9,3.73-4.72,0-2.46-1.26-4.57-3.65-4.57a3.55,3.55,0,0,0-3.4,2.74,4.52,4.52,0,0,0-.13.92Z"/><path class="cls-3" d="M468.73,204.59c0,4.55-3.15,6.53-6.12,6.53-3.33,0-5.89-2.44-5.89-6.32,0-4.12,2.69-6.53,6.09-6.53S468.73,200.84,468.73,204.59Zm-9.75.13c0,2.69,1.55,4.72,3.73,4.72s3.73-2,3.73-4.77c0-2.08-1-4.72-3.68-4.72S459,202.39,459,204.72Z"/><path class="cls-3" d="M474.24,195v3.53h3.19v1.7h-3.19v6.63c0,1.52.43,2.39,1.67,2.39a4.76,4.76,0,0,0,1.3-.16l.1,1.68a5.44,5.44,0,0,1-2,.3,3.12,3.12,0,0,1-2.42-.94,4.56,4.56,0,0,1-.86-3.19v-6.71h-1.9v-1.7h1.9v-2.94Z"/><path class="cls-3" d="M482.64,195v3.53h3.2v1.7h-3.2v6.63c0,1.52.43,2.39,1.67,2.39a4.76,4.76,0,0,0,1.3-.16l.1,1.68a5.44,5.44,0,0,1-2,.3,3.09,3.09,0,0,1-2.41-.94,4.51,4.51,0,0,1-.86-3.19v-6.71h-1.91v-1.7h1.91v-2.94Z"/><path class="cls-3" d="M488.35,192.81h2.23v18h-2.23Z"/><path class="cls-3" d="M495.59,205.1c.05,3,2,4.27,4.21,4.27a8,8,0,0,0,3.4-.64l.38,1.6a9.83,9.83,0,0,1-4.08.76c-3.79,0-6.05-2.48-6.05-6.19s2.19-6.63,5.77-6.63c4,0,5.07,3.53,5.07,5.79a10,10,0,0,1-.07,1Zm6.55-1.6c0-1.42-.59-3.63-3.1-3.63-2.26,0-3.25,2.08-3.43,3.63Z"/><path class="cls-3" d="M507.06,201.88c0-1.27,0-2.31-.1-3.33h2l.13,2h.05a4.51,4.51,0,0,1,4.06-2.31c1.7,0,4.34,1,4.34,5.23v7.34h-2.23v-7.08c0-2-.74-3.63-2.85-3.63a3.17,3.17,0,0,0-3,2.28,3.26,3.26,0,0,0-.15,1v7.39h-2.24Z"/><path class="cls-3" d="M522.4,205.1c.05,3,2,4.27,4.21,4.27a8,8,0,0,0,3.4-.64l.38,1.6a9.83,9.83,0,0,1-4.08.76c-3.79,0-6-2.48-6-6.19s2.19-6.63,5.77-6.63c4,0,5.08,3.53,5.08,5.79a9.4,9.4,0,0,1-.08,1Zm6.55-1.6c0-1.42-.59-3.63-3.1-3.63-2.26,0-3.25,2.08-3.43,3.63Z"/><path class="cls-3" d="M542.63,210.38a8.14,8.14,0,0,1-3.53.71c-3.7,0-6.12-2.51-6.12-6.27a6.24,6.24,0,0,1,6.6-6.52,7.53,7.53,0,0,1,3.1.63l-.51,1.73a5.1,5.1,0,0,0-2.59-.59c-2.81,0-4.34,2.09-4.34,4.65,0,2.84,1.83,4.6,4.27,4.6a6.31,6.31,0,0,0,2.74-.61Z"/><path class="cls-3" d="M547.46,204.19h0c.3-.43.73-1,1.09-1.4l3.6-4.24h2.69l-4.74,5,5.4,7.24h-2.71L548.6,205l-1.14,1.27v4.62h-2.21v-18h2.21Z"/><path class="cls-3" d="M556.85,208.56a5.87,5.87,0,0,0,2.94.88c1.63,0,2.39-.81,2.39-1.82s-.63-1.65-2.28-2.26c-2.21-.79-3.25-2-3.25-3.48,0-2,1.6-3.61,4.24-3.61a6.22,6.22,0,0,1,3,.76l-.56,1.63a4.73,4.73,0,0,0-2.52-.71c-1.32,0-2.05.76-2.05,1.67s.73,1.48,2.33,2.09c2.14.81,3.23,1.87,3.23,3.7,0,2.16-1.68,3.68-4.6,3.68a7.09,7.09,0,0,1-3.45-.83Z"/><circle class="cls-4" cx="276.36" cy="39" r="4.5"/><circle class="cls-4" cx="276.37" cy="91.97" r="4.5"/><circle class="cls-4" cx="276.39" cy="144.93" r="4.5"/><circle class="cls-4" cx="276.39" cy="201.93" r="4.5"/><circle class="cls-4" cx="276.36" cy="275" r="4.5"/><circle class="cls-4" cx="276.37" cy="330.97" r="4.5"/><circle class="cls-4" cx="276.39" cy="383.93" r="4.5"/><circle class="cls-4" cx="276.39" cy="438.93" r="4.5"/><circle class="cls-4" cx="276.36" cy="519" r="4.5"/><circle class="cls-4" cx="276.37" cy="573.97" r="4.5"/><circle class="cls-4" cx="276.39" cy="626.93" r="4.5"/><circle class="cls-4" cx="276.39" cy="683.93" r="4.5"/><path class="cls-3" d="M71.1,395.39H64.6V391.9H81.83v3.49H75.26v19.32H71.1Z"/><path class="cls-3" d="M82.64,403.54c0-2.23,0-3.82-.13-5.31h3.62l.14,3.15h.13a4.91,4.91,0,0,1,4.5-3.52,4.22,4.22,0,0,1,1,.1v3.92a6.41,6.41,0,0,0-1.22-.13,3.67,3.67,0,0,0-3.72,3.15,6.91,6.91,0,0,0-.13,1.28v8.53H82.64Z"/><path class="cls-3" d="M103.66,414.71l-.27-1.83h-.1a6.1,6.1,0,0,1-4.87,2.2,4.89,4.89,0,0,1-5.18-4.9c0-4.17,3.69-6.27,9.78-6.23v-.27c0-1.08-.44-2.88-3.35-2.88A8.72,8.72,0,0,0,95.24,402l-.82-2.71a12,12,0,0,1,6-1.45c5.28,0,6.8,3.35,6.8,6.93v6a26.23,26.23,0,0,0,.24,4Zm-.54-8c-2.94-.07-5.75.57-5.75,3.08a2.19,2.19,0,0,0,2.37,2.37,3.38,3.38,0,0,0,3.25-2.27,3.09,3.09,0,0,0,.13-.92Z"/><path class="cls-3" d="M123.7,414.2a11.94,11.94,0,0,1-4.67.85c-5.14,0-8.49-3.28-8.49-8.39,0-4.94,3.38-8.8,9.17-8.8a10.42,10.42,0,0,1,4,.78l-.75,3.11a7.25,7.25,0,0,0-3.15-.64c-3.18,0-5.07,2.33-5,5.34,0,3.39,2.2,5.32,5,5.32a8.11,8.11,0,0,0,3.29-.65Z"/><path class="cls-3" d="M131,405.47H131c.4-.64.88-1.35,1.32-1.93l4-5.31h5L135.25,405l7,9.75h-5.11l-4.74-7.28L131,409.09v5.62h-4.16v-24H131Z"/><path class="cls-3" d="M148.89,393.63a2.34,2.34,0,1,1-2.34-2.27A2.2,2.2,0,0,1,148.89,393.63Zm-4.43,21.08V398.23h4.19v16.48Z"/><path class="cls-3" d="M153.12,403.14c0-1.9,0-3.49-.13-4.91h3.65l.2,2.47H157a5.92,5.92,0,0,1,5.24-2.84c2.88,0,5.86,1.86,5.86,7.07v9.78h-4.17V405.4c0-2.37-.88-4.16-3.14-4.16a3.5,3.5,0,0,0-3.25,2.44,4.1,4.1,0,0,0-.17,1.35v9.68h-4.2Z"/><path class="cls-3" d="M187.54,398.23c-.06,1.12-.13,2.47-.13,4.74v9.34c0,3.45-.71,5.92-2.44,7.48a9.47,9.47,0,0,1-6.36,2,11.64,11.64,0,0,1-5.75-1.32l.91-3.14a10,10,0,0,0,4.81,1.25c2.7,0,4.73-1.42,4.73-5v-1.42h-.06a5.56,5.56,0,0,1-4.81,2.44c-4.1,0-7-3.38-7-8.05,0-5.42,3.52-8.7,7.48-8.7a5.2,5.2,0,0,1,4.78,2.57h.06l.17-2.2Zm-4.29,6.6a4.14,4.14,0,0,0-.14-1.12,3.45,3.45,0,0,0-3.38-2.67c-2.34,0-4.07,2-4.07,5.38,0,2.81,1.43,5.08,4,5.08a3.57,3.57,0,0,0,3.39-2.51,7.23,7.23,0,0,0,.17-1.49Z"/><path class="cls-3" d="M304.16,279.46l-1.78,5.38H300.1l5.81-17.11h2.67l5.84,17.11h-2.36l-1.83-5.38Zm5.61-1.73-1.67-4.92c-.38-1.12-.64-2.14-.89-3.13h0c-.26,1-.54,2.06-.87,3.1l-1.67,5Z"/><path class="cls-3" d="M319.27,269.1a1.39,1.39,0,0,1-2.77,0,1.36,1.36,0,0,1,1.4-1.4A1.33,1.33,0,0,1,319.27,269.1Zm-2.49,15.74V272.55H319v12.29Z"/><path class="cls-3" d="M322.72,276.39c0-1.45,0-2.7-.1-3.84h1.95l.08,2.41h.1a3.69,3.69,0,0,1,3.4-2.69,2.49,2.49,0,0,1,.64.08v2.11a2.91,2.91,0,0,0-.76-.08,3.13,3.13,0,0,0-3,2.87,6.33,6.33,0,0,0-.1,1v6.55h-2.21Z"/><path class="cls-3" d="M339.53,284.38a8.18,8.18,0,0,1-3.53.71c-3.71,0-6.12-2.51-6.12-6.27a6.24,6.24,0,0,1,6.6-6.52,7.57,7.57,0,0,1,3.1.63l-.51,1.73a5.1,5.1,0,0,0-2.59-.59c-2.82,0-4.34,2.09-4.34,4.65,0,2.84,1.83,4.6,4.26,4.6a6.39,6.39,0,0,0,2.75-.61Z"/><path class="cls-3" d="M342.14,276.39c0-1.45,0-2.7-.1-3.84h2l.07,2.41h.1a3.69,3.69,0,0,1,3.41-2.69,2.41,2.41,0,0,1,.63.08v2.11a2.91,2.91,0,0,0-.76-.08,3.13,3.13,0,0,0-3,2.87,6.33,6.33,0,0,0-.1,1v6.55h-2.21Z"/><path class="cls-3" d="M357.12,284.84l-.18-1.55h-.07a4.58,4.58,0,0,1-3.76,1.83,3.5,3.5,0,0,1-3.76-3.53c0-3,2.64-4.6,7.39-4.57v-.25a2.54,2.54,0,0,0-2.79-2.85,6.11,6.11,0,0,0-3.2.92l-.51-1.48a7.65,7.65,0,0,1,4-1.09c3.76,0,4.67,2.57,4.67,5v4.59a17.62,17.62,0,0,0,.2,2.95Zm-.33-6.27c-2.44-.05-5.2.38-5.2,2.77a2,2,0,0,0,2.1,2.13,3.05,3.05,0,0,0,3-2.06,2.22,2.22,0,0,0,.13-.71Z"/><path class="cls-3" d="M362.78,284.84V274.25h-1.72v-1.7h1.72V272a5.75,5.75,0,0,1,1.43-4.29,4.22,4.22,0,0,1,3-1.15,5.18,5.18,0,0,1,1.91.36l-.31,1.73a3.23,3.23,0,0,0-1.42-.28c-1.91,0-2.39,1.67-2.39,3.55v.66h3v1.7h-3v10.59Z"/><path class="cls-3" d="M372.94,269v3.53h3.2v1.7h-3.2v6.63c0,1.52.43,2.39,1.67,2.39a4.76,4.76,0,0,0,1.3-.16l.1,1.68a5.44,5.44,0,0,1-2,.3,3.09,3.09,0,0,1-2.41-.94,4.51,4.51,0,0,1-.87-3.19v-6.71h-1.9v-1.7h1.9v-2.94Z"/><path class="cls-3" d="M389.41,266.81h2.24v7.67h.05a4.1,4.1,0,0,1,1.6-1.57,4.61,4.61,0,0,1,2.28-.64c1.65,0,4.29,1,4.29,5.26v7.31h-2.23v-7.06c0-2-.74-3.65-2.84-3.65a3.21,3.21,0,0,0-3,2.23,2.64,2.64,0,0,0-.15,1.07v7.41h-2.24Z"/><path class="cls-3" d="M404.75,279.1c.05,3,2,4.27,4.21,4.27a8,8,0,0,0,3.41-.64l.38,1.6a9.93,9.93,0,0,1-4.09.76c-3.79,0-6-2.48-6-6.19s2.18-6.63,5.76-6.63c4,0,5.08,3.53,5.08,5.79a7.43,7.43,0,0,1-.08,1Zm6.55-1.6c0-1.42-.59-3.63-3.1-3.63-2.26,0-3.25,2.08-3.43,3.63Z"/><path class="cls-3" d="M423,284.84l-.18-1.55h-.08a4.54,4.54,0,0,1-3.75,1.83,3.5,3.5,0,0,1-3.76-3.53c0-3,2.64-4.6,7.39-4.57v-.25a2.54,2.54,0,0,0-2.8-2.85,6.08,6.08,0,0,0-3.19.92l-.51-1.48a7.61,7.61,0,0,1,4-1.09c3.76,0,4.68,2.57,4.68,5v4.59a17.62,17.62,0,0,0,.2,2.95Zm-.33-6.27c-2.44-.05-5.21.38-5.21,2.77a2,2,0,0,0,2.11,2.13,3.05,3.05,0,0,0,3-2.06,2.22,2.22,0,0,0,.13-.71Z"/><path class="cls-3" d="M428.46,266.81h2.24v18h-2.24Z"/><path class="cls-3" d="M437.14,269v3.53h3.2v1.7h-3.2v6.63c0,1.52.44,2.39,1.68,2.39a4.73,4.73,0,0,0,1.29-.16l.11,1.68a5.48,5.48,0,0,1-2,.3,3.11,3.11,0,0,1-2.42-.94A4.56,4.56,0,0,1,435,281v-6.71h-1.9v-1.7H435v-2.94Z"/><path class="cls-3" d="M442.86,266.81h2.23v7.67h.05a4.16,4.16,0,0,1,1.6-1.57,4.62,4.62,0,0,1,2.29-.64c1.65,0,4.29,1,4.29,5.26v7.31h-2.24v-7.06c0-2-.73-3.65-2.84-3.65a3.21,3.21,0,0,0-3,2.23,2.82,2.82,0,0,0-.15,1.07v7.41h-2.23Z"/><path class="cls-3" d="M313.35,339.28a10.91,10.91,0,0,1-4.52.81c-4.82,0-8.45-3-8.45-8.65,0-5.36,3.63-9,8.94-9a9.12,9.12,0,0,1,4.06.76l-.54,1.8a8.1,8.1,0,0,0-3.45-.71c-4,0-6.68,2.57-6.68,7.06,0,4.19,2.42,6.88,6.58,6.88a8.88,8.88,0,0,0,3.61-.71Z"/><path class="cls-3" d="M326.88,333.59c0,4.55-3.14,6.53-6.12,6.53-3.32,0-5.89-2.44-5.89-6.32,0-4.12,2.7-6.53,6.1-6.53S326.88,329.84,326.88,333.59Zm-9.75.13c0,2.69,1.55,4.72,3.74,4.72s3.73-2,3.73-4.77c0-2.08-1-4.72-3.68-4.72S317.13,331.39,317.13,333.72Z"/><path class="cls-3" d="M329.7,330.88c0-1.27,0-2.31-.1-3.33h1.95l.11,2h.07a4.24,4.24,0,0,1,3.86-2.26,3.63,3.63,0,0,1,3.48,2.46h.05a5,5,0,0,1,1.37-1.59,4.2,4.2,0,0,1,2.72-.87c1.62,0,4,1.07,4,5.33v7.24h-2.19v-7c0-2.36-.86-3.78-2.66-3.78a2.89,2.89,0,0,0-2.64,2,3.46,3.46,0,0,0-.18,1.12v7.59h-2.19v-7.36c0-2-.86-3.38-2.56-3.38a3.06,3.06,0,0,0-2.77,2.23,3.3,3.3,0,0,0-.18,1.1v7.41H329.7Z"/><path class="cls-3" d="M350.87,331.56c0-1.57-.05-2.84-.1-4h2l.1,2.11h.05a4.84,4.84,0,0,1,4.37-2.39c3,0,5.2,2.52,5.2,6.25,0,4.42-2.69,6.6-5.58,6.6a4.32,4.32,0,0,1-3.79-1.93h-.05v6.68h-2.21Zm2.21,3.28a4.28,4.28,0,0,0,.11.91,3.44,3.44,0,0,0,3.35,2.62c2.36,0,3.73-1.93,3.73-4.75,0-2.46-1.3-4.57-3.66-4.57a3.56,3.56,0,0,0-3.37,2.77,3.47,3.47,0,0,0-.16.91Z"/><path class="cls-3" d="M376.44,333.59c0,4.55-3.15,6.53-6.12,6.53-3.32,0-5.89-2.44-5.89-6.32,0-4.12,2.69-6.53,6.1-6.53S376.44,329.84,376.44,333.59Zm-9.75.13c0,2.69,1.55,4.72,3.73,4.72s3.74-2,3.74-4.77c0-2.08-1-4.72-3.69-4.72S366.69,331.39,366.69,333.72Z"/><path class="cls-3" d="M379.26,330.88c0-1.27,0-2.31-.1-3.33h2l.12,2h.06a4.5,4.5,0,0,1,4.06-2.31c1.7,0,4.34,1,4.34,5.23v7.34h-2.23v-7.08c0-2-.74-3.63-2.85-3.63a3.17,3.17,0,0,0-3,2.28,3,3,0,0,0-.16,1v7.39h-2.23Z"/><path class="cls-3" d="M394.59,334.1c.05,3,2,4.27,4.22,4.27a8,8,0,0,0,3.4-.64l.38,1.6a9.89,9.89,0,0,1-4.09.76c-3.78,0-6-2.48-6-6.19s2.18-6.63,5.76-6.63c4,0,5.08,3.53,5.08,5.79a10,10,0,0,1-.07,1Zm6.55-1.6c0-1.42-.58-3.63-3.09-3.63-2.26,0-3.25,2.08-3.43,3.63Z"/><path class="cls-3" d="M406.07,330.88c0-1.27,0-2.31-.1-3.33h2l.13,2h.05a4.51,4.51,0,0,1,4.06-2.31c1.7,0,4.34,1,4.34,5.23v7.34H414.3v-7.08c0-2-.74-3.63-2.85-3.63a3.17,3.17,0,0,0-3,2.28,3,3,0,0,0-.16,1v7.39h-2.23Z"/><path class="cls-3" d="M422.75,324v3.53H426v1.7h-3.2v6.63c0,1.52.43,2.39,1.68,2.39a4.73,4.73,0,0,0,1.29-.16l.1,1.68a5.4,5.4,0,0,1-2,.3,3.09,3.09,0,0,1-2.41-.94,4.51,4.51,0,0,1-.86-3.19v-6.71h-1.91v-1.7h1.91v-2.94Z"/><path class="cls-3" d="M434.07,339.84V329.25h-1.72v-1.7h1.72V327a5.79,5.79,0,0,1,1.42-4.29,4.26,4.26,0,0,1,3-1.15,5.08,5.08,0,0,1,1.9.36l-.3,1.73a3.23,3.23,0,0,0-1.42-.28c-1.91,0-2.39,1.67-2.39,3.55v.66h3v1.7h-3v10.59Z"/><path class="cls-3" d="M448.06,339.84l-.18-1.55h-.07a4.58,4.58,0,0,1-3.76,1.83,3.5,3.5,0,0,1-3.76-3.53c0-3,2.64-4.6,7.39-4.57v-.25a2.54,2.54,0,0,0-2.79-2.85,6.11,6.11,0,0,0-3.2.92l-.51-1.48a7.65,7.65,0,0,1,4-1.09c3.76,0,4.67,2.57,4.67,5v4.59a17.62,17.62,0,0,0,.2,2.95Zm-.33-6.27c-2.44-.05-5.2.38-5.2,2.77a2,2,0,0,0,2.1,2.13,3.05,3.05,0,0,0,3-2.06,2.22,2.22,0,0,0,.13-.71Z"/><path class="cls-3" d="M456,324.1a1.31,1.31,0,0,1-1.42,1.37,1.33,1.33,0,0,1-1.35-1.37,1.37,1.37,0,0,1,1.4-1.4A1.33,1.33,0,0,1,456,324.1Zm-2.49,15.74V327.55h2.24v12.29Z"/><path class="cls-3" d="M459.43,321.81h2.24v18h-2.24Z"/><path class="cls-3" d="M475.71,336.49c0,1.27,0,2.39.1,3.35h-2l-.13-2h-.05a4.62,4.62,0,0,1-4.06,2.29c-1.93,0-4.24-1.07-4.24-5.38v-7.19h2.23v6.81c0,2.33.71,3.91,2.75,3.91a3.23,3.23,0,0,0,2.94-2,3.17,3.17,0,0,0,.2-1.14v-7.54h2.24Z"/><path class="cls-3" d="M479.41,331.39c0-1.45,0-2.7-.1-3.84h2l.07,2.41h.11a3.67,3.67,0,0,1,3.4-2.69,2.41,2.41,0,0,1,.63.08v2.11a2.86,2.86,0,0,0-.76-.08,3.13,3.13,0,0,0-3,2.87,5.35,5.35,0,0,0-.11,1v6.55h-2.21Z"/><path class="cls-3" d="M488.71,334.1c.05,3,2,4.27,4.21,4.27a8,8,0,0,0,3.41-.64l.38,1.6a9.93,9.93,0,0,1-4.09.76c-3.79,0-6-2.48-6-6.19s2.18-6.63,5.76-6.63c4,0,5.08,3.53,5.08,5.79a7.43,7.43,0,0,1-.08,1Zm6.55-1.6c0-1.42-.59-3.63-3.1-3.63-2.26,0-3.25,2.08-3.43,3.63Z"/><path class="cls-3" d="M304.16,389.46l-1.78,5.38H300.1l5.81-17.11h2.67l5.84,17.11h-2.36l-1.83-5.38Zm5.61-1.73-1.67-4.92c-.38-1.12-.64-2.14-.89-3.13h0c-.26,1-.54,2.06-.87,3.1l-1.67,5Z"/><path class="cls-3" d="M319.27,379.1a1.39,1.39,0,0,1-2.77,0,1.36,1.36,0,0,1,1.4-1.4A1.33,1.33,0,0,1,319.27,379.1Zm-2.49,15.74V382.55H319v12.29Z"/><path class="cls-3" d="M322.72,386.39c0-1.45,0-2.7-.1-3.84h1.95l.08,2.41h.1a3.69,3.69,0,0,1,3.4-2.69,2.49,2.49,0,0,1,.64.08v2.11a2.91,2.91,0,0,0-.76-.08,3.13,3.13,0,0,0-3,2.87,6.33,6.33,0,0,0-.1,1v6.55h-2.21Z"/><path class="cls-3" d="M339.53,394.38a8.18,8.18,0,0,1-3.53.71c-3.71,0-6.12-2.51-6.12-6.27a6.24,6.24,0,0,1,6.6-6.52,7.57,7.57,0,0,1,3.1.63l-.51,1.73a5.1,5.1,0,0,0-2.59-.59c-2.82,0-4.34,2.09-4.34,4.65,0,2.84,1.83,4.6,4.26,4.6a6.39,6.39,0,0,0,2.75-.61Z"/><path class="cls-3" d="M342.14,386.39c0-1.45,0-2.7-.1-3.84h2l.07,2.41h.1a3.69,3.69,0,0,1,3.41-2.69,2.41,2.41,0,0,1,.63.08v2.11a2.91,2.91,0,0,0-.76-.08,3.13,3.13,0,0,0-3,2.87,6.33,6.33,0,0,0-.1,1v6.55h-2.21Z"/><path class="cls-3" d="M357.12,394.84l-.18-1.55h-.07a4.58,4.58,0,0,1-3.76,1.83,3.5,3.5,0,0,1-3.76-3.53c0-3,2.64-4.6,7.39-4.57v-.25a2.54,2.54,0,0,0-2.79-2.85,6.11,6.11,0,0,0-3.2.92l-.51-1.48a7.65,7.65,0,0,1,4-1.09c3.76,0,4.67,2.57,4.67,5v4.59a17.62,17.62,0,0,0,.2,2.95Zm-.33-6.27c-2.44-.05-5.2.38-5.2,2.77a2,2,0,0,0,2.1,2.13,3.05,3.05,0,0,0,3-2.06,2.22,2.22,0,0,0,.13-.71Z"/><path class="cls-3" d="M362.78,394.84V384.25h-1.72v-1.7h1.72V382a5.75,5.75,0,0,1,1.43-4.29,4.22,4.22,0,0,1,3-1.15,5.18,5.18,0,0,1,1.91.36l-.31,1.73a3.23,3.23,0,0,0-1.42-.28c-1.91,0-2.39,1.67-2.39,3.55v.66h3v1.7h-3v10.59Z"/><path class="cls-3" d="M372.94,379v3.53h3.2v1.7h-3.2v6.63c0,1.52.43,2.39,1.67,2.39a4.76,4.76,0,0,0,1.3-.16l.1,1.68a5.44,5.44,0,0,1-2,.3,3.09,3.09,0,0,1-2.41-.94,4.51,4.51,0,0,1-.87-3.19v-6.71h-1.9v-1.7h1.9v-2.94Z"/><path class="cls-3" d="M394.31,391.49c0,1.27,0,2.39.11,3.35h-2l-.13-2h-.05a4.64,4.64,0,0,1-4.06,2.29c-1.93,0-4.24-1.07-4.24-5.38v-7.19h2.23v6.81c0,2.33.71,3.91,2.74,3.91a3.25,3.25,0,0,0,2.95-2,3.4,3.4,0,0,0,.2-1.14v-7.54h2.23Z"/><path class="cls-3" d="M400.71,379v3.53h3.2v1.7h-3.2v6.63c0,1.52.43,2.39,1.68,2.39a4.73,4.73,0,0,0,1.29-.16l.1,1.68a5.4,5.4,0,0,1-2,.3,3.09,3.09,0,0,1-2.41-.94,4.56,4.56,0,0,1-.86-3.19v-6.71h-1.91v-1.7h1.91v-2.94Z"/><path class="cls-3" d="M408.91,379.1a1.31,1.31,0,0,1-1.42,1.37,1.33,1.33,0,0,1-1.35-1.37,1.37,1.37,0,0,1,1.4-1.4A1.33,1.33,0,0,1,408.91,379.1Zm-2.49,15.74V382.55h2.24v12.29Z"/><path class="cls-3" d="M412.36,376.81h2.24v18h-2.24Z"/><path class="cls-3" d="M420.84,379.1a1.38,1.38,0,0,1-2.76,0,1.36,1.36,0,0,1,1.39-1.4A1.33,1.33,0,0,1,420.84,379.1Zm-2.48,15.74V382.55h2.23v12.29Z"/><path class="cls-3" d="M422.9,393.55l5.56-7.24c.53-.66,1-1.25,1.6-1.91v0h-6.65v-1.8h9.37l0,1.4-5.48,7.13c-.51.69-1,1.3-1.58,1.93v.05h7.19v1.78h-10Z"/><path class="cls-3" d="M442,394.84l-.18-1.55h-.08a4.54,4.54,0,0,1-3.75,1.83,3.5,3.5,0,0,1-3.76-3.53c0-3,2.64-4.6,7.39-4.57v-.25a2.54,2.54,0,0,0-2.8-2.85,6.14,6.14,0,0,0-3.2.92l-.5-1.48a7.58,7.58,0,0,1,4-1.09c3.76,0,4.67,2.57,4.67,5v4.59a17.55,17.55,0,0,0,.21,2.95Zm-.33-6.27c-2.44-.05-5.21.38-5.21,2.77a2,2,0,0,0,2.11,2.13,3.06,3.06,0,0,0,3-2.06,2.22,2.22,0,0,0,.13-.71Z"/><path class="cls-3" d="M450,379v3.53h3.2v1.7H450v6.63c0,1.52.43,2.39,1.67,2.39a4.76,4.76,0,0,0,1.3-.16l.1,1.68a5.44,5.44,0,0,1-2,.3,3.09,3.09,0,0,1-2.41-.94,4.51,4.51,0,0,1-.86-3.19v-6.71H445.9v-1.7h1.91v-2.94Z"/><path class="cls-3" d="M458.19,379.1a1.39,1.39,0,0,1-2.77,0,1.37,1.37,0,0,1,1.4-1.4A1.33,1.33,0,0,1,458.19,379.1Zm-2.49,15.74V382.55h2.24v12.29Z"/><path class="cls-3" d="M472.76,388.59c0,4.55-3.15,6.53-6.12,6.53-3.32,0-5.89-2.44-5.89-6.32,0-4.12,2.69-6.53,6.1-6.53S472.76,384.84,472.76,388.59Zm-9.75.13c0,2.69,1.55,4.72,3.74,4.72s3.73-2,3.73-4.77c0-2.08-1-4.72-3.68-4.72S463,386.39,463,388.72Z"/><path class="cls-3" d="M475.58,385.88c0-1.27,0-2.31-.1-3.33h2l.13,2h.05a4.51,4.51,0,0,1,4.06-2.31c1.7,0,4.34,1,4.34,5.23v7.34h-2.23v-7.08c0-2-.74-3.63-2.85-3.63a3.17,3.17,0,0,0-3,2.28,3.25,3.25,0,0,0-.16,1v7.39h-2.23Z"/><path class="cls-3" d="M301.09,447.15a7.83,7.83,0,0,0,4,1.12c2.26,0,3.58-1.2,3.58-2.92s-.91-2.52-3.22-3.41c-2.8-1-4.52-2.43-4.52-4.85,0-2.66,2.2-4.64,5.53-4.64a7.66,7.66,0,0,1,3.78.84l-.61,1.8a6.72,6.72,0,0,0-3.25-.81c-2.33,0-3.22,1.39-3.22,2.56,0,1.6,1,2.39,3.4,3.3,2.9,1.12,4.37,2.51,4.37,5s-2,4.92-6,4.92a8.84,8.84,0,0,1-4.37-1.09Z"/><path class="cls-3" d="M313.83,441.56c0-1.57-.05-2.84-.1-4h2l.1,2.11h.05a4.83,4.83,0,0,1,4.37-2.39c3,0,5.2,2.52,5.2,6.25,0,4.42-2.69,6.6-5.58,6.6a4.32,4.32,0,0,1-3.79-1.93h0v6.68h-2.21Zm2.21,3.28a5.07,5.07,0,0,0,.1.91,3.46,3.46,0,0,0,3.36,2.62c2.36,0,3.73-1.93,3.73-4.75,0-2.46-1.3-4.57-3.66-4.57a3.56,3.56,0,0,0-3.37,2.77,3.47,3.47,0,0,0-.16.91Z"/><path class="cls-3" d="M335.08,449.84l-.17-1.55h-.08a4.58,4.58,0,0,1-3.76,1.83,3.5,3.5,0,0,1-3.76-3.53c0-3,2.65-4.6,7.39-4.57v-.25a2.54,2.54,0,0,0-2.79-2.85,6.11,6.11,0,0,0-3.2.92l-.51-1.48a7.65,7.65,0,0,1,4-1.09c3.76,0,4.67,2.57,4.67,5v4.59a16.55,16.55,0,0,0,.21,2.95Zm-.33-6.27c-2.43-.05-5.2.38-5.2,2.77a2,2,0,0,0,2.11,2.13,3.06,3.06,0,0,0,3-2.06,2.52,2.52,0,0,0,.12-.71Z"/><path class="cls-3" d="M340.52,441.39c0-1.45,0-2.7-.11-3.84h2l.08,2.41h.1a3.68,3.68,0,0,1,3.4-2.69,2.41,2.41,0,0,1,.63.08v2.11a2.81,2.81,0,0,0-.76-.08,3.13,3.13,0,0,0-3,2.87,6.33,6.33,0,0,0-.1,1v6.55h-2.21Z"/><path class="cls-3" d="M349.81,444.1c.05,3,2,4.27,4.21,4.27a8,8,0,0,0,3.41-.64l.38,1.6a9.93,9.93,0,0,1-4.09.76c-3.78,0-6-2.48-6-6.19s2.18-6.63,5.76-6.63c4,0,5.08,3.53,5.08,5.79a7.43,7.43,0,0,1-.08,1Zm6.55-1.6c0-1.42-.58-3.63-3.1-3.63-2.26,0-3.25,2.08-3.43,3.63Z"/><path class="cls-3" d="M366.67,441.56c0-1.57-.05-2.84-.11-4h2l.1,2.11h.05a4.84,4.84,0,0,1,4.37-2.39c3,0,5.2,2.52,5.2,6.25,0,4.42-2.69,6.6-5.58,6.6a4.29,4.29,0,0,1-3.78-1.93h-.06v6.68h-2.2Zm2.2,3.28a5,5,0,0,0,.11.91,3.44,3.44,0,0,0,3.35,2.62c2.36,0,3.73-1.93,3.73-4.75,0-2.46-1.29-4.57-3.66-4.57a3.56,3.56,0,0,0-3.37,2.77,3.47,3.47,0,0,0-.16.91Z"/><path class="cls-3" d="M387.92,449.84l-.18-1.55h-.08a4.55,4.55,0,0,1-3.76,1.83,3.5,3.5,0,0,1-3.75-3.53c0-3,2.64-4.6,7.39-4.57v-.25a2.54,2.54,0,0,0-2.8-2.85,6.14,6.14,0,0,0-3.2.92l-.5-1.48a7.58,7.58,0,0,1,4-1.09c3.76,0,4.67,2.57,4.67,5v4.59a16.55,16.55,0,0,0,.21,2.95Zm-.33-6.27c-2.44-.05-5.21.38-5.21,2.77a2,2,0,0,0,2.11,2.13,3.06,3.06,0,0,0,3-2.06,2.22,2.22,0,0,0,.13-.71Z"/><path class="cls-3" d="M393.35,441.39c0-1.45,0-2.7-.1-3.84h1.95l.08,2.41h.1a3.68,3.68,0,0,1,3.4-2.69,2.49,2.49,0,0,1,.64.08v2.11a2.91,2.91,0,0,0-.76-.08,3.13,3.13,0,0,0-3,2.87,6.33,6.33,0,0,0-.1,1v6.55h-2.21Z"/><path class="cls-3" d="M405,434v3.53h3.2v1.7H405v6.63c0,1.52.43,2.39,1.68,2.39a4.73,4.73,0,0,0,1.29-.16l.1,1.68a5.4,5.4,0,0,1-2,.3,3.09,3.09,0,0,1-2.41-.94,4.56,4.56,0,0,1-.86-3.19v-6.71h-1.91v-1.7h1.91v-2.94Z"/><path class="cls-3" d="M418.53,434.1a1.38,1.38,0,0,1-2.76,0,1.36,1.36,0,0,1,1.39-1.4A1.33,1.33,0,0,1,418.53,434.1ZM416,449.84V437.55h2.24v12.29Z"/><path class="cls-3" d="M422,440.88c0-1.27,0-2.31-.11-3.33h2l.13,2H424a4.51,4.51,0,0,1,4.06-2.31c1.71,0,4.35,1,4.35,5.23v7.34h-2.24v-7.08c0-2-.73-3.63-2.84-3.63a3.18,3.18,0,0,0-3,2.28,3.26,3.26,0,0,0-.15,1v7.39H422Z"/><path class="cls-3" d="M436.61,437.55l2.41,6.91a28.92,28.92,0,0,1,1,3.15h.08c.28-1,.63-2,1-3.15l2.39-6.91h2.33L441,449.84h-2.14l-4.67-12.29Z"/><path class="cls-3" d="M449,444.1c.05,3,2,4.27,4.21,4.27a8,8,0,0,0,3.41-.64l.38,1.6a9.93,9.93,0,0,1-4.09.76c-3.78,0-6-2.48-6-6.19s2.18-6.63,5.76-6.63c4,0,5.08,3.53,5.08,5.79a7.43,7.43,0,0,1-.08,1Zm6.55-1.6c0-1.42-.59-3.63-3.1-3.63-2.26,0-3.25,2.08-3.43,3.63Z"/><path class="cls-3" d="M460.42,440.88c0-1.27,0-2.31-.1-3.33h2l.13,2h.05a4.51,4.51,0,0,1,4.06-2.31c1.7,0,4.34,1,4.34,5.23v7.34h-2.23v-7.08c0-2-.74-3.63-2.84-3.63a3.17,3.17,0,0,0-3,2.28,3.26,3.26,0,0,0-.15,1v7.39h-2.24Z"/><path class="cls-3" d="M477.1,434v3.53h3.2v1.7h-3.2v6.63c0,1.52.44,2.39,1.68,2.39a4.82,4.82,0,0,0,1.3-.16l.1,1.68a5.44,5.44,0,0,1-2,.3,3.12,3.12,0,0,1-2.42-.94,4.56,4.56,0,0,1-.86-3.19v-6.71H473v-1.7h1.9v-2.94Z"/><path class="cls-3" d="M493.79,443.59c0,4.55-3.15,6.53-6.12,6.53-3.33,0-5.89-2.44-5.89-6.32,0-4.12,2.69-6.53,6.09-6.53S493.79,439.84,493.79,443.59Zm-9.75.13c0,2.69,1.54,4.72,3.73,4.72s3.73-2,3.73-4.77c0-2.08-1-4.72-3.68-4.72S484,441.39,484,443.72Z"/><path class="cls-3" d="M496.6,441.39c0-1.45,0-2.7-.1-3.84h2l.07,2.41h.1a3.69,3.69,0,0,1,3.41-2.69,2.41,2.41,0,0,1,.63.08v2.11a2.91,2.91,0,0,0-.76-.08,3.14,3.14,0,0,0-3,2.87,6.33,6.33,0,0,0-.1,1v6.55H496.6Z"/><path class="cls-3" d="M506.35,437.55l2.69,7.26c.28.82.59,1.78.79,2.52h.05c.23-.74.48-1.68.79-2.57l2.44-7.21h2.36l-3.35,8.76c-1.6,4.22-2.7,6.37-4.22,7.69a6,6,0,0,1-2.74,1.45l-.56-1.88a5.88,5.88,0,0,0,1.95-1.09,6.61,6.61,0,0,0,1.88-2.49,1.42,1.42,0,0,0,.18-.53,1.87,1.87,0,0,0-.15-.58l-4.55-11.33Z"/><path class="cls-3" d="M33.36,632.2a42.51,42.51,0,0,1,6.63-.47c4.26,0,7.21.88,9.31,2.64s3.55,4.5,3.55,8.39c0,4.07-1.39,7.11-3.55,9.07S43.41,655,39,655a45.05,45.05,0,0,1-5.62-.31Zm4.16,19.33a15.73,15.73,0,0,0,2.3.1c5.42,0,8.63-2.94,8.63-8.73,0-5-2.87-7.92-8.09-7.92a12.9,12.9,0,0,0-2.84.24Z"/><path class="cls-3" d="M65.58,654.71l-.27-1.83h-.1a6.12,6.12,0,0,1-4.88,2.2,4.89,4.89,0,0,1-5.17-4.9c0-4.17,3.69-6.27,9.78-6.23v-.27c0-1.08-.44-2.88-3.35-2.88A8.75,8.75,0,0,0,57.15,642l-.81-2.71a11.93,11.93,0,0,1,6-1.45c5.28,0,6.8,3.35,6.8,6.93v6a26.23,26.23,0,0,0,.24,4ZM65,646.66c-2.94-.07-5.75.57-5.75,3.08a2.18,2.18,0,0,0,2.37,2.37,3.37,3.37,0,0,0,3.24-2.27,2.82,2.82,0,0,0,.14-.92Z"/><path class="cls-3" d="M78.07,633.52v4.71h4v3.11h-4v7.28c0,2,.54,3,2.14,3a6.12,6.12,0,0,0,1.62-.21l.07,3.18a9,9,0,0,1-3,.41,4.84,4.84,0,0,1-3.59-1.35c-.88-1-1.29-2.44-1.29-4.61v-7.75H71.64v-3.11H74v-3.72Z"/><path class="cls-3" d="M94.46,654.71l-.27-1.83h-.11a6.1,6.1,0,0,1-4.87,2.2,4.89,4.89,0,0,1-5.18-4.9c0-4.17,3.69-6.27,9.78-6.23v-.27c0-1.08-.44-2.88-3.35-2.88A8.75,8.75,0,0,0,86,642l-.81-2.71a11.92,11.92,0,0,1,6-1.45c5.28,0,6.81,3.35,6.81,6.93v6a26.38,26.38,0,0,0,.23,4Zm-.55-8.05c-2.94-.07-5.75.57-5.75,3.08a2.19,2.19,0,0,0,2.37,2.37,3.38,3.38,0,0,0,3.25-2.27,3.09,3.09,0,0,0,.13-.92Z"/><path class="cls-3" d="M118.66,654.71l-.27-1.83h-.1a6.12,6.12,0,0,1-4.88,2.2,4.89,4.89,0,0,1-5.17-4.9c0-4.17,3.68-6.27,9.78-6.23v-.27c0-1.08-.44-2.88-3.35-2.88a8.75,8.75,0,0,0-4.44,1.22l-.81-2.71a11.93,11.93,0,0,1,6-1.45c5.28,0,6.8,3.35,6.8,6.93v6a26.23,26.23,0,0,0,.24,4Zm-.54-8.05c-3-.07-5.76.57-5.76,3.08a2.19,2.19,0,0,0,2.37,2.37,3.38,3.38,0,0,0,3.25-2.27,3.12,3.12,0,0,0,.14-.92Z"/><path class="cls-3" d="M126.58,643.14c0-1.9,0-3.49-.13-4.91h3.65l.21,2.47h.1a5.92,5.92,0,0,1,5.24-2.84c2.88,0,5.86,1.86,5.86,7.07v9.78h-4.17V645.4c0-2.37-.88-4.16-3.14-4.16a3.5,3.5,0,0,0-3.25,2.44,4.1,4.1,0,0,0-.17,1.35v9.68h-4.2Z"/><path class="cls-3" d="M155.22,654.71l-.27-1.83h-.1a6.13,6.13,0,0,1-4.88,2.2,4.9,4.9,0,0,1-5.18-4.9c0-4.17,3.69-6.27,9.79-6.23v-.27c0-1.08-.45-2.88-3.36-2.88a8.75,8.75,0,0,0-4.43,1.22l-.81-2.71a11.92,11.92,0,0,1,6-1.45c5.28,0,6.81,3.35,6.81,6.93v6a27.78,27.78,0,0,0,.23,4Zm-.54-8.05c-3-.07-5.76.57-5.76,3.08a2.19,2.19,0,0,0,2.37,2.37,3.38,3.38,0,0,0,3.25-2.27,3.12,3.12,0,0,0,.14-.92Z"/><path class="cls-3" d="M163.14,630.68h4.2v24h-4.2Z"/><path class="cls-3" d="M174.45,638.23l3,8.83c.33,1,.67,2.27.91,3.22h.1c.27-.95.58-2.17.88-3.25l2.57-8.8h4.47l-4.13,11.24c-2.27,6.15-3.79,8.9-5.75,10.59a8.39,8.39,0,0,1-4.37,2.13l-1-3.52a7.18,7.18,0,0,0,2.44-1.15,7.3,7.3,0,0,0,2.27-2.61,1.64,1.64,0,0,0,.27-.74,1.67,1.67,0,0,0-.24-.81l-6-15.13Z"/><path class="cls-3" d="M188.16,650.89a9.36,9.36,0,0,0,4.23,1.18c1.83,0,2.64-.74,2.64-1.83s-.68-1.69-2.71-2.4c-3.21-1.12-4.57-2.88-4.53-4.81,0-2.91,2.4-5.17,6.22-5.17a9.67,9.67,0,0,1,4.37,1l-.81,2.94a7.48,7.48,0,0,0-3.49-.94c-1.49,0-2.3.71-2.3,1.72s.78,1.56,2.88,2.3c3,1.09,4.36,2.61,4.4,5,0,3-2.34,5.14-6.71,5.14a10.55,10.55,0,0,1-5-1.15Z"/><path class="cls-3" d="M206.91,633.63a2.34,2.34,0,1,1-2.34-2.27A2.2,2.2,0,0,1,206.91,633.63Zm-4.43,21.08V638.23h4.19v16.48Z"/><path class="cls-3" d="M210.94,650.89a9.36,9.36,0,0,0,4.23,1.18c1.83,0,2.64-.74,2.64-1.83s-.68-1.69-2.71-2.4c-3.21-1.12-4.57-2.88-4.53-4.81,0-2.91,2.4-5.17,6.22-5.17a9.67,9.67,0,0,1,4.37,1l-.81,2.94a7.48,7.48,0,0,0-3.49-.94c-1.49,0-2.3.71-2.3,1.72s.78,1.56,2.88,2.3c3,1.09,4.36,2.61,4.4,5,0,3-2.34,5.14-6.7,5.14a10.57,10.57,0,0,1-5-1.15Z"/><path class="cls-3" d="M304.64,513.61h-5.2v-1.88h12.67v1.88h-5.23v15.23h-2.24Z"/><path class="cls-3" d="M313.38,523.1c.05,3,2,4.27,4.21,4.27a8,8,0,0,0,3.4-.64l.38,1.6a9.83,9.83,0,0,1-4.08.76c-3.79,0-6.05-2.48-6.05-6.19s2.19-6.63,5.77-6.63c4,0,5.08,3.53,5.08,5.79a7.43,7.43,0,0,1-.08,1Zm6.55-1.6c0-1.42-.59-3.63-3.1-3.63-2.26,0-3.25,2.08-3.43,3.63Z"/><path class="cls-3" d="M325.82,516.55l1.75,2.64c.46.69.84,1.32,1.24,2h.08c.41-.74.81-1.37,1.22-2l1.72-2.62h2.42l-4.19,5.94,4.31,6.35h-2.54l-1.8-2.77c-.48-.71-.89-1.39-1.32-2.13h0c-.41.74-.84,1.4-1.29,2.13l-1.78,2.77h-2.46l4.36-6.27-4.16-6Z"/><path class="cls-3" d="M339.55,513v3.53h3.2v1.7h-3.2v6.63c0,1.52.43,2.39,1.68,2.39a4.73,4.73,0,0,0,1.29-.16l.1,1.68a5.4,5.4,0,0,1-2,.3,3.1,3.1,0,0,1-2.41-.94,4.56,4.56,0,0,1-.86-3.19v-6.71h-1.91v-1.7h1.91v-2.94Z"/><path class="cls-3" d="M303.6,566.73v17.11h-2.21V566.73Z"/><path class="cls-3" d="M307.64,574.88c0-1.27,0-2.31-.1-3.33h1.95l.1,2h.08a4.24,4.24,0,0,1,3.86-2.26,3.64,3.64,0,0,1,3.48,2.46h.05a5,5,0,0,1,1.37-1.59,4.2,4.2,0,0,1,2.72-.87c1.62,0,4,1.07,4,5.33v7.24H323v-7c0-2.36-.86-3.78-2.67-3.78a2.89,2.89,0,0,0-2.64,2,3.77,3.77,0,0,0-.17,1.12v7.59h-2.19v-7.36c0-2-.86-3.38-2.56-3.38a3.33,3.33,0,0,0-2.95,3.33v7.41h-2.18Z"/><path class="cls-3" d="M335.62,583.84l-.18-1.55h-.08a4.54,4.54,0,0,1-3.75,1.83,3.5,3.5,0,0,1-3.76-3.53c0-3,2.64-4.6,7.39-4.57v-.25a2.54,2.54,0,0,0-2.8-2.85,6.14,6.14,0,0,0-3.2.92l-.5-1.48a7.58,7.58,0,0,1,4-1.09c3.76,0,4.68,2.57,4.68,5v4.59a17.62,17.62,0,0,0,.2,3Zm-.33-6.27c-2.44-.05-5.21.38-5.21,2.77a2,2,0,0,0,2.11,2.13,3.06,3.06,0,0,0,3-2.06,2.22,2.22,0,0,0,.13-.71Z"/><path class="cls-3" d="M351.64,571.55c-.05.89-.1,1.88-.1,3.38v7.13c0,2.82-.56,4.55-1.76,5.61a6.49,6.49,0,0,1-4.46,1.48,7.92,7.92,0,0,1-4.09-1l.56-1.7a6.89,6.89,0,0,0,3.6,1c2.29,0,4-1.19,4-4.29v-1.37h-.05a4.36,4.36,0,0,1-3.91,2.06c-3.05,0-5.23-2.59-5.23-6,0-4.17,2.72-6.53,5.54-6.53a4.09,4.09,0,0,1,3.83,2.13h.05l.1-1.85Zm-2.31,4.85a3.17,3.17,0,0,0-.13-1,3.22,3.22,0,0,0-3.12-2.37c-2.14,0-3.66,1.81-3.66,4.65,0,2.41,1.22,4.42,3.63,4.42a3.27,3.27,0,0,0,3.1-2.29,3.78,3.78,0,0,0,.18-1.19Z"/><path class="cls-3" d="M356.49,578.1c.05,3,2,4.27,4.21,4.27a8,8,0,0,0,3.4-.64l.38,1.6a9.83,9.83,0,0,1-4.08.76c-3.79,0-6-2.48-6-6.19s2.19-6.63,5.77-6.63c4,0,5.07,3.53,5.07,5.79a10,10,0,0,1-.07,1Zm6.55-1.6c0-1.42-.59-3.63-3.1-3.63-2.26,0-3.25,2.08-3.43,3.63Z"/><path class="cls-3" d="M367.66,581.56a5.84,5.84,0,0,0,2.94.88c1.63,0,2.39-.81,2.39-1.82s-.64-1.65-2.29-2.26c-2.21-.79-3.25-2-3.25-3.48,0-2,1.6-3.61,4.24-3.61a6.16,6.16,0,0,1,3,.76l-.55,1.63a4.76,4.76,0,0,0-2.52-.71c-1.32,0-2.05.76-2.05,1.67s.73,1.48,2.33,2.09c2.13.81,3.23,1.87,3.23,3.7,0,2.16-1.68,3.68-4.6,3.68a7.09,7.09,0,0,1-3.45-.83Z"/><path class="cls-3" d="M301.09,636.15a7.83,7.83,0,0,0,4,1.12c2.26,0,3.58-1.2,3.58-2.92s-.91-2.52-3.22-3.41c-2.8-1-4.52-2.43-4.52-4.85,0-2.66,2.2-4.64,5.53-4.64a7.66,7.66,0,0,1,3.78.84l-.61,1.8a6.72,6.72,0,0,0-3.25-.81c-2.33,0-3.22,1.39-3.22,2.56,0,1.6,1,2.39,3.4,3.3,2.9,1.12,4.37,2.51,4.37,5s-2,4.92-6,4.92a8.84,8.84,0,0,1-4.37-1.09Z"/><path class="cls-3" d="M315.23,633.1c0,3,2,4.27,4.22,4.27a8,8,0,0,0,3.4-.64l.38,1.6a9.89,9.89,0,0,1-4.09.76c-3.78,0-6-2.48-6-6.19s2.18-6.63,5.76-6.63c4,0,5.08,3.53,5.08,5.79a7.43,7.43,0,0,1-.08,1Zm6.55-1.6c0-1.42-.58-3.63-3.1-3.63-2.26,0-3.25,2.08-3.42,3.63Z"/><path class="cls-3" d="M326.71,629.88c0-1.27,0-2.31-.11-3.33h2l.13,2h.05a4.52,4.52,0,0,1,4.07-2.31c1.7,0,4.34,1,4.34,5.23v7.34h-2.24v-7.08c0-2-.73-3.63-2.84-3.63a3.18,3.18,0,0,0-3,2.28,3.26,3.26,0,0,0-.15,1v7.39h-2.23Z"/><path class="cls-3" d="M340.49,636.56a5.88,5.88,0,0,0,2.95.88c1.62,0,2.38-.81,2.38-1.82s-.63-1.65-2.28-2.26c-2.21-.79-3.25-2-3.25-3.48,0-2,1.6-3.61,4.24-3.61a6.19,6.19,0,0,1,3,.76l-.56,1.63a4.72,4.72,0,0,0-2.51-.71c-1.32,0-2.06.76-2.06,1.67s.74,1.48,2.34,2.09c2.13.81,3.22,1.87,3.22,3.7,0,2.16-1.67,3.68-4.59,3.68a7.13,7.13,0,0,1-3.46-.83Z"/><path class="cls-3" d="M362,632.59c0,4.55-3.15,6.53-6.12,6.53-3.32,0-5.89-2.44-5.89-6.32,0-4.12,2.69-6.53,6.1-6.53S362,628.84,362,632.59Zm-9.75.13c0,2.69,1.55,4.72,3.73,4.72s3.74-2,3.74-4.77c0-2.08-1-4.72-3.69-4.72S352.22,630.39,352.22,632.72Z"/><path class="cls-3" d="M364.79,630.39c0-1.45,0-2.7-.1-3.84h1.95l.08,2.41h.1a3.68,3.68,0,0,1,3.4-2.69,2.49,2.49,0,0,1,.64.08v2.11a2.91,2.91,0,0,0-.76-.08,3.13,3.13,0,0,0-3,2.87,6.33,6.33,0,0,0-.1,1v6.55h-2.21Z"/><path class="cls-3" d="M389.59,632.59c0,4.55-3.14,6.53-6.12,6.53-3.32,0-5.89-2.44-5.89-6.32,0-4.12,2.7-6.53,6.1-6.53S389.59,628.84,389.59,632.59Zm-9.75.13c0,2.69,1.55,4.72,3.74,4.72s3.73-2,3.73-4.77c0-2.08-1-4.72-3.68-4.72S379.84,630.39,379.84,632.72Z"/><path class="cls-3" d="M402.69,635.49c0,1.27,0,2.39.11,3.35h-2l-.13-2h-.05a4.64,4.64,0,0,1-4.06,2.29c-1.93,0-4.25-1.07-4.25-5.38v-7.19h2.24v6.81c0,2.33.71,3.91,2.74,3.91a3.25,3.25,0,0,0,2.95-2,3.4,3.4,0,0,0,.2-1.14v-7.54h2.23Z"/><path class="cls-3" d="M409.09,623v3.53h3.2v1.7h-3.2v6.63c0,1.52.43,2.39,1.68,2.39a4.73,4.73,0,0,0,1.29-.16l.1,1.68a5.4,5.4,0,0,1-2,.3,3.09,3.09,0,0,1-2.41-.94,4.56,4.56,0,0,1-.86-3.19v-6.71H405v-1.7h1.91v-2.94Z"/><path class="cls-3" d="M414.8,630.56c0-1.57-.05-2.84-.1-4h2l.1,2.11h.05a4.83,4.83,0,0,1,4.37-2.39c3,0,5.2,2.52,5.2,6.25,0,4.42-2.69,6.6-5.58,6.6a4.32,4.32,0,0,1-3.79-1.93H417v6.68H414.8Zm2.21,3.28a5.07,5.07,0,0,0,.1.91,3.46,3.46,0,0,0,3.36,2.62c2.36,0,3.73-1.93,3.73-4.75,0-2.46-1.3-4.57-3.66-4.57a3.58,3.58,0,0,0-3.38,2.77,3.93,3.93,0,0,0-.15.91Z"/><path class="cls-3" d="M439.53,635.49c0,1.27,0,2.39.1,3.35h-2l-.12-2h0a4.64,4.64,0,0,1-4.07,2.29c-1.93,0-4.24-1.07-4.24-5.38v-7.19h2.24v6.81c0,2.33.71,3.91,2.74,3.91a3.22,3.22,0,0,0,2.94-2,3.17,3.17,0,0,0,.21-1.14v-7.54h2.23Z"/><path class="cls-3" d="M445.93,623v3.53h3.2v1.7h-3.2v6.63c0,1.52.43,2.39,1.68,2.39a4.73,4.73,0,0,0,1.29-.16l.1,1.68a5.44,5.44,0,0,1-2,.3,3.09,3.09,0,0,1-2.41-.94,4.51,4.51,0,0,1-.86-3.19v-6.71h-1.91v-1.7h1.91v-2.94Z"/><path class="cls-3" d="M304.16,688.46l-1.78,5.38H300.1l5.81-17.11h2.67l5.84,17.11h-2.36l-1.83-5.38Zm5.61-1.73-1.67-4.92c-.38-1.12-.64-2.14-.89-3.13h0c-.26,1-.54,2.06-.87,3.1l-1.67,5Z"/><path class="cls-3" d="M326.83,690.49c0,1.27,0,2.39.11,3.35h-2l-.13-2h-.05a4.64,4.64,0,0,1-4.07,2.29c-1.92,0-4.24-1.07-4.24-5.38v-7.19h2.24v6.81c0,2.33.71,3.91,2.74,3.91a3.25,3.25,0,0,0,2.95-2,3.4,3.4,0,0,0,.2-1.14v-7.54h2.23Z"/><path class="cls-3" d="M341.15,675.81v14.86c0,1.09,0,2.33.1,3.17h-2l-.1-2.13h0a4.56,4.56,0,0,1-4.19,2.41c-3,0-5.26-2.51-5.26-6.25,0-4.08,2.51-6.6,5.51-6.6a4.12,4.12,0,0,1,3.71,1.88h.05v-7.34Zm-2.23,10.74a4.29,4.29,0,0,0-.1-.94,3.29,3.29,0,0,0-3.23-2.59c-2.31,0-3.68,2-3.68,4.75,0,2.49,1.22,4.55,3.63,4.55a3.36,3.36,0,0,0,3.28-2.67,4.16,4.16,0,0,0,.1-1Z"/><path class="cls-3" d="M347.35,678.1a1.39,1.39,0,0,1-2.77,0,1.36,1.36,0,0,1,1.4-1.4A1.33,1.33,0,0,1,347.35,678.1Zm-2.49,15.74V681.55h2.23v12.29Z"/><path class="cls-3" d="M361.92,687.59c0,4.55-3.15,6.53-6.12,6.53-3.32,0-5.89-2.44-5.89-6.32,0-4.12,2.69-6.53,6.09-6.53S361.92,683.84,361.92,687.59Zm-9.75.13c0,2.69,1.55,4.72,3.73,4.72s3.74-2,3.74-4.77c0-2.08-1.05-4.72-3.69-4.72S352.17,685.39,352.17,687.72Z"/><path class="cls-3" d="M376.92,693.84l-.17-1.55h-.08a4.56,4.56,0,0,1-3.76,1.83,3.49,3.49,0,0,1-3.75-3.53c0-3,2.64-4.6,7.38-4.57v-.25a2.54,2.54,0,0,0-2.79-2.85,6.11,6.11,0,0,0-3.2.92l-.51-1.48a7.65,7.65,0,0,1,4-1.09c3.76,0,4.67,2.57,4.67,5v4.59a16.55,16.55,0,0,0,.21,3Zm-.33-6.27c-2.43-.05-5.2.38-5.2,2.77a2,2,0,0,0,2.11,2.13,3.06,3.06,0,0,0,3-2.06,2.52,2.52,0,0,0,.12-.71Z"/><path class="cls-3" d="M382.36,684.88c0-1.27,0-2.31-.1-3.33h2l.12,2h.05a4.53,4.53,0,0,1,4.07-2.31c1.7,0,4.34,1,4.34,5.23v7.34h-2.24v-7.08c0-2-.73-3.63-2.84-3.63a3.18,3.18,0,0,0-3,2.28,3.26,3.26,0,0,0-.15,1v7.39h-2.23Z"/><path class="cls-3" d="M407.06,675.81v14.86c0,1.09,0,2.33.1,3.17h-2l-.1-2.13H405a4.53,4.53,0,0,1-4.18,2.41c-3,0-5.26-2.51-5.26-6.25,0-4.08,2.51-6.6,5.51-6.6a4.12,4.12,0,0,1,3.71,1.88h.05v-7.34Zm-2.23,10.74a4.29,4.29,0,0,0-.1-.94A3.29,3.29,0,0,0,401.5,683c-2.31,0-3.68,2-3.68,4.75,0,2.49,1.22,4.55,3.63,4.55a3.36,3.36,0,0,0,3.28-2.67,4.16,4.16,0,0,0,.1-1Z"/><path class="cls-3" d="M417,681.55l2.41,6.91a28.92,28.92,0,0,1,1,3.15h.08c.28-1,.64-2,1-3.15l2.39-6.91h2.33l-4.82,12.29H419.3l-4.67-12.29Z"/><path class="cls-3" d="M430.85,678.1a1.39,1.39,0,0,1-2.77,0,1.37,1.37,0,0,1,1.4-1.4A1.33,1.33,0,0,1,430.85,678.1Zm-2.49,15.74V681.55h2.24v12.29Z"/><path class="cls-3" d="M444.91,675.81v14.86c0,1.09,0,2.33.11,3.17h-2l-.1-2.13h-.05a4.56,4.56,0,0,1-4.19,2.41c-3,0-5.26-2.51-5.26-6.25,0-4.08,2.52-6.6,5.51-6.6a4.12,4.12,0,0,1,3.71,1.88h.05v-7.34Zm-2.23,10.74a3.76,3.76,0,0,0-.1-.94,3.29,3.29,0,0,0-3.23-2.59c-2.31,0-3.68,2-3.68,4.75,0,2.49,1.22,4.55,3.63,4.55a3.36,3.36,0,0,0,3.28-2.67,3.68,3.68,0,0,0,.1-1Z"/><path class="cls-3" d="M449.87,688.1c.05,3,2,4.27,4.21,4.27a8,8,0,0,0,3.4-.64l.38,1.6a9.83,9.83,0,0,1-4.08.76c-3.79,0-6-2.48-6-6.19s2.19-6.63,5.77-6.63c4,0,5.07,3.53,5.07,5.79a10,10,0,0,1-.07,1Zm6.55-1.6c0-1.42-.59-3.63-3.1-3.63-2.26,0-3.25,2.08-3.43,3.63Z"/><path class="cls-3" d="M472.46,687.59c0,4.55-3.15,6.53-6.12,6.53-3.32,0-5.89-2.44-5.89-6.32,0-4.12,2.69-6.53,6.1-6.53S472.46,683.84,472.46,687.59Zm-9.75.13c0,2.69,1.55,4.72,3.73,4.72s3.74-2,3.74-4.77c0-2.08-1-4.72-3.68-4.72S462.71,685.39,462.71,687.72Z"/><path class="cls-3" d="M149.31,383.35a9.47,9.47,0,0,0-1.39-2.34q-14.35-13-28.79-26a2.13,2.13,0,0,0-.3-.21l-4.1,3.86-3.83-13.1,13.38,3.26-3.43,3.67,22,19.85.19-.12c-.19-.35-.38-.71-.58-1q-4.11-7.14-8.24-14.26c-3-5.19-3.91-10.61-1.77-16.36A18.36,18.36,0,0,1,154,329.22a18.09,18.09,0,0,1,13.69,20.06,20.27,20.27,0,0,1-2.41,6.76c-5.14,9.16-10.48,18.22-15.75,27.31Zm.15-6.09a2.23,2.23,0,0,0,.34-.37c4.41-7.61,8.88-15.18,13.19-22.84,2.83-5,2.62-10.15-.37-15.09a15.26,15.26,0,0,0-19.83-5.67,15,15,0,0,0-7.44,19,35,35,0,0,0,2.33,4.56C141.57,363.62,145.49,370.39,149.46,377.26Z"/><path class="cls-3" d="M170.35,294.48c-1,5.24-4.5,9.23-6.86,13.78-1.31,2.51-2.82,4.91-4.31,7.48-.26-.37-.47-.64-.63-.92-2.88-5-5.71-10-8.65-14.94-4.26-7.19-.3-14.52,5.73-16.55l1.63-.54H161c.4.14.79.28,1.19.4a10.89,10.89,0,0,1,7.57,7.43c.27.8.4,1.64.59,2.46Zm-11.28,15.29a6.1,6.1,0,0,0,.4-.55c2.19-3.77,4.44-7.5,6.52-11.33a10,10,0,0,0,1.23-4.08,8,8,0,0,0-5-7.47,8.13,8.13,0,0,0-8.83,1.9,7.64,7.64,0,0,0-1.44,8.87C154.15,301.33,156.61,305.44,159.07,309.77Z"/><path class="cls-3" d="M104.35,340.48,97.13,328c-1.57-2.73-3.19-5.43-4.71-8.19-3.42-6.21-2.54-13,2.22-17.59A14.29,14.29,0,0,1,113.25,301a14,14,0,0,1,3.89,18.08c-2.59,4.74-5.39,9.37-8.1,14.06-.21.35-.4.72-.75,1.35L142,319.11l-2-4.86,13.68,1.57-8.21,11.08-2.22-5-6.8,3.08c-9.72,4.45-19.46,8.88-29.16,13.38A17.88,17.88,0,0,0,104.35,340.48Zm.24-5.57c3.54-6.19,7-12.14,10.33-18.14a9,9,0,0,0,.82-6.36,10.86,10.86,0,0,0-8.27-8.87,10.64,10.64,0,0,0-11.53,3.74,10.38,10.38,0,0,0-1.25,12.3C97.81,323.36,101.19,329,104.59,334.91Z"/><path class="cls-3" d="M140.19,347.21a9.41,9.41,0,1,1,9.43,9.44A9.42,9.42,0,0,1,140.19,347.21Zm3,0a6.47,6.47,0,0,0,6.34,6.44,6.43,6.43,0,1,0,0-12.86A6.46,6.46,0,0,0,143.19,347.21Z"/><path class="cls-3" d="M159.22,299.94a6,6,0,1,1,5.95-6A6,6,0,0,1,159.22,299.94Zm2.95-5.93a3,3,0,0,0-3-3.08,3,3,0,0,0-.12,6.05A3,3,0,0,0,162.17,294Z"/><path class="cls-3" d="M97.12,312.58a7.52,7.52,0,1,1,7.54,7.59A7.54,7.54,0,0,1,97.12,312.58Zm12,0a4.51,4.51,0,0,0-4.51-4.52,4.54,4.54,0,0,0,0,9.08A4.51,4.51,0,0,0,109.12,312.6Z"/><path class="cls-3" d="M160.11,597v19.55h-12.8V570.61l-.17-.05a7.4,7.4,0,0,0-.44.65,19.94,19.94,0,0,1-5.35,6.1,2,2,0,0,0-.86,1.82q0,18.06,0,36.12v1.28H127.69V582a21,21,0,0,1-11-3.08L96.24,598.7l-7.37-7.14c6.8-6.58,13.56-13.14,20.19-19.57a60.27,60.27,0,0,1-2.27-6.12,20.47,20.47,0,0,1,8.52-22,1.49,1.49,0,0,0,.82-1.57,5.44,5.44,0,0,1,3.9-5.45,5.7,5.7,0,0,1,6.58,2.3,1.64,1.64,0,0,0,1.65.88A21.41,21.41,0,0,1,149,556.93a20.05,20.05,0,0,1,0,8c-.05.28-.09.55-.16,1,1.33,0,2.59.05,3.84,0,.26,0,.56-.44.72-.74a6,6,0,0,1,9.83-.87,5.6,5.6,0,0,1-2.39,8.79,1,1,0,0,0-.78,1.15c0,2.06,0,4.12,0,6.18v1.08h-2.92V578c0-.66-.05-1.33,0-2,.14-1.6.08-2.92-1.86-3.59a4,4,0,0,1-2.3-3,.85.85,0,0,0-1.06-.75c-.56,0-1.13,0-1.76,0v45h6.91V597.07h-5l6.47-10.87,6.44,10.8Zm-23.18-41.65v21.31c6.09-1.79,10.82-11.52,9.31-19a18.44,18.44,0,0,0-18.72-14.75,5.61,5.61,0,0,1-4.11,4.51,5.87,5.87,0,0,1-5.89-1.57,17.87,17.87,0,0,0-8.25,17.89c.91,5.53,3.93,9.62,8.74,12.74V555.35ZM121,558.12c0,.3-.07.52-.07.74,0,6.07,0,12.15,0,18.23,0,.71.35.92.91,1.1a20.11,20.11,0,0,0,11.3.19c.7-.18.91-.52.9-1.25,0-6,0-12,0-18,0-.31,0-.61-.05-1Zm16.54,55.61V580l-6.93,2v31.68Zm-26.62-39.55L93.14,591.41l3,3.35L113.9,577.6Zm47.79-9.29a3,3,0,0,0-3.08,2.94,3,3,0,0,0,3,2.94,3,3,0,0,0,3.06-3A3,3,0,0,0,158.7,564.89Zm-34.06-22.84a2.76,2.76,0,0,0-2.8-2.73,2.85,2.85,0,0,0-2.9,2.78,2.92,2.92,0,0,0,2.9,2.8A2.79,2.79,0,0,0,124.64,542.05Z"/><path class="cls-3" d="M108.14,594.39h12.72v22H108.14ZM111,613.52H118V597.23H111Z"/><path class="cls-3" d="M119.1,81.36h-4.49l5.81-10.06,5.79,10h-4.5V91c1.19.18,2.4.31,3.59.56a24.39,24.39,0,0,1,16.15,11.18,1.36,1.36,0,0,0,1.33.74c2.17,0,4.34,0,6.51,0,.29,0,.57,0,1,0V98.82l10.12,5.84-10.08,5.83V106a5.45,5.45,0,0,0-.67-.09c-2.38,0-4.76,0-7.13,0a1.38,1.38,0,0,0-1,.52,24.66,24.66,0,0,1-19.36,11.66l-.26,0c-.06,0-.1.06-.2.11v9h4.57l-5.85,10.13-5.82-10.07h4.56v-2.65c0-1.93,0-3.87,0-5.8,0-.56-.14-.75-.72-.81A24.54,24.54,0,0,1,99.26,106.5c-.16-.24-.46-.53-.7-.53-2.66,0-5.32,0-8.07,0v4.57l-10.13-5.84,10.08-5.83v4.51c.37,0,.62.06.87.06,2.26,0,4.52,0,6.78,0a1.17,1.17,0,0,0,1.13-.61,24.65,24.65,0,0,1,17.56-11.57c.75-.12,1.51-.17,2.32-.26Zm-.41,34.32c9.36,0,16.44-3.89,20.55-10.36a1,1,0,0,0,.07-1.33c-4.46-6.71-10.72-10.38-18.76-10.44s-14.47,3.56-19,10.31a1.12,1.12,0,0,0,0,1.47C106,112.05,112.31,115.42,118.69,115.68Z"/><path class="cls-3" d="M120.33,109.66a5.06,5.06,0,1,1,5.11-5A5,5,0,0,1,120.33,109.66Zm2.56-5.06a2.54,2.54,0,0,0-2.56-2.55,2.57,2.57,0,0,0,0,5.13A2.55,2.55,0,0,0,122.89,104.6Z"/></svg>