<svg id="Layer_1" data-name="Layer 1" xmlns="http://www.w3.org/2000/svg" width="100" height="100" viewBox="0 0 100 100"><title>reduction-in-license-cost</title><path d="M20.3,72.88V2.65C20.3.42,20.71,0,22.9,0H77.1c2.17,0,2.57.4,2.57,2.53V72.81c.55,0,1,.07,1.42.07,3.54,0,7.08,0,10.62,0,1.06,0,2,.16,2.28,1.35s-.44,1.7-1.33,2.2Q72,88,51.42,99.59a2.59,2.59,0,0,1-2.84,0Q28,88,7.33,76.42c-.89-.5-1.58-1.09-1.31-2.2s1.23-1.35,2.28-1.34C12.25,72.89,16.19,72.88,20.3,72.88Zm64.8,3.76L85,76.38c-2.05,0-4.1,0-6.15,0s-2.64-.46-2.64-2.65V3.57H23.76V73.73c0,2.17-.49,2.65-2.65,2.65s-4.11,0-6.16,0a2.45,2.45,0,0,0,.94.82q16.49,9.26,33,18.52a2,2,0,0,0,2.31,0q15.08-8.52,30.19-17Z"/><path d="M57.32,34.2l-1.09,3.18a11,11,0,0,0-6.09-1.24c-2.73.24-4.43,2.09-4.22,4.53a3.84,3.84,0,0,0,2,3c1.07.65,2.24,1.13,3.37,1.68s2.3,1,3.38,1.67a7,7,0,0,1,3.65,7,7.26,7.26,0,0,1-5,6.5c-.49.2-1,.35-1.54.55V68.6h6.29l-8,14-8-13.86h6.18c0-2.34,0-4.55-.05-6.77,0-.21-.61-.49-1-.59-1.49-.39-3-.71-4.48-1.11-.84-.22-1.18-.72-.76-1.63a15.53,15.53,0,0,0,.61-2A12.67,12.67,0,0,0,50,58.36c2.53-.24,4.24-1.67,4.6-4a4,4,0,0,0-1.65-4.19,28.27,28.27,0,0,0-3.53-1.88c-1.19-.6-2.47-1.06-3.61-1.75A7,7,0,0,1,47,33.88c1-.38,1.39-.85,1.29-1.93a26,26,0,0,1,0-3.53,1.27,1.27,0,0,0-1-1.43,6.89,6.89,0,0,1-4.27-7A7,7,0,0,1,56,17a6.83,6.83,0,0,1-.75,8.16,20.55,20.55,0,0,1-2.74,2,1.72,1.72,0,0,0-.7,1c-.08,1.34,0,2.69,0,4,0,.74.26.92,1,1C54.21,33.44,55.68,33.84,57.32,34.2ZM50,17.09a3.52,3.52,0,0,0-3.58,3.42A3.6,3.6,0,0,0,50,24.09a3.53,3.53,0,0,0,3.49-3.51A3.45,3.45,0,0,0,50,17.09Z"/></svg>