<svg id="Layer_1" data-name="Layer 1" xmlns="http://www.w3.org/2000/svg" viewBox="0 0 350.5 351"><defs><style>.cls-1{fill:#92d1ff;}.cls-2{fill:#0f9ffa;}.cls-3{fill:#fff;}</style></defs><title>marketing</title><path class="cls-1" d="M221.2,135.15l-5.6-5.6L296.2,49A175,175,0,0,0,54.3,49l82,82-5.6,5.6-82-82a175,175,0,0,0,0,241.9l80.6-80.6,5.6,5.6-80.6,80.6a175,175,0,0,0,241.9,0L217,222.85l5.6-5.6,79.2,79.2a175,175,0,0,0,0-241.9l-80.6,80.6Z"/><circle id="_Path_" data-name="&lt;Path&gt;" class="cls-1" cx="175.3" cy="175.45" r="167.9"/><path class="cls-2" d="M128,133.75,53.8,59.55a167.88,167.88,0,0,0,0,231.8l74.2-74.2a63.08,63.08,0,0,1,0-83.4Zm89-5.6L291.2,54A167.88,167.88,0,0,0,59.4,54l74.2,74.2a63.08,63.08,0,0,1,83.4,0Zm-83.4,94.6L59.4,297a167.88,167.88,0,0,0,231.8,0L217,222.75a63.08,63.08,0,0,1-83.4,0Zm89-5.6,74.2,74.2a167.88,167.88,0,0,0,0-231.8l-74.2,74.2a63.08,63.08,0,0,1,0,83.4Z"/><path class="cls-3" d="M33.26,206.83a3.59,3.59,0,0,0,1.71.45c.83,0,1.29-.38,1.29-1s-.35-.85-1.26-1.18c-1.16-.42-1.91-1-1.91-2.06s1-2,2.5-2a3.87,3.87,0,0,1,1.7.35l-.31,1a3.14,3.14,0,0,0-1.41-.33c-.82,0-1.18.44-1.18.85s.41.8,1.36,1.16c1.23.47,1.82,1.09,1.82,2.1s-.86,2.12-2.68,2.12A4.2,4.2,0,0,1,33,207.9Z"/><path class="cls-3" d="M43.55,205.64a2.53,2.53,0,0,1-2.63,2.71,2.47,2.47,0,0,1-2.56-2.63A2.53,2.53,0,0,1,41,203,2.45,2.45,0,0,1,43.55,205.64Zm-3.85.05c0,1,.48,1.73,1.27,1.73s1.25-.72,1.25-1.75c0-.8-.36-1.71-1.24-1.71S39.7,204.84,39.7,205.69Z"/><path class="cls-3" d="M48.37,208.08a3.67,3.67,0,0,1-1.45.26,2.44,2.44,0,0,1-2.63-2.6A2.64,2.64,0,0,1,47.13,203a3.39,3.39,0,0,1,1.25.24l-.23,1a2.22,2.22,0,0,0-1-.2,1.66,1.66,0,0,0,0,3.31,2.62,2.62,0,0,0,1-.2Z"/><path class="cls-3" d="M50.7,201.7A.73.73,0,1,1,50,201,.68.68,0,0,1,50.7,201.7Zm-1.38,6.54v-5.11h1.31v5.11Z"/><path class="cls-3" d="M54.89,208.24l-.09-.57h0a1.89,1.89,0,0,1-1.51.68,1.51,1.51,0,0,1-1.6-1.52c0-1.29,1.14-1.94,3-1.93v-.08c0-.34-.14-.9-1-.9a2.69,2.69,0,0,0-1.37.38l-.26-.84a3.7,3.7,0,0,1,1.85-.45A1.91,1.91,0,0,1,56,205.16V207a8.69,8.69,0,0,0,.07,1.23Zm-.17-2.5c-.91,0-1.78.18-1.78,1a.67.67,0,0,0,.73.73,1.05,1.05,0,0,0,1-.7,1,1,0,0,0,0-.29Z"/><path class="cls-3" d="M57.35,200.79h1.3v7.45h-1.3Z"/><path class="cls-3" d="M62.22,204.65c0-.59,0-1.08,0-1.52h1.11l.05.75h0A1.79,1.79,0,0,1,65,203a1.49,1.49,0,0,1,1.42,1h0A2,2,0,0,1,68,203c.86,0,1.72.58,1.72,2.22v3H68.5v-2.82c0-.86-.3-1.36-.92-1.36a1,1,0,0,0-.9.68,2,2,0,0,0-.06.43v3.07H65.36v-3c0-.72-.29-1.22-.88-1.22a1,1,0,0,0-.93.74,1.12,1.12,0,0,0-.07.42v3H62.22Z"/><path class="cls-3" d="M72,206a1.39,1.39,0,0,0,1.57,1.33,4,4,0,0,0,1.42-.23l.19.89a4.8,4.8,0,0,1-1.79.31,2.41,2.41,0,0,1-2.63-2.58A2.53,2.53,0,0,1,73.29,203a2.23,2.23,0,0,1,2.21,2.49,3.21,3.21,0,0,1,0,.54Zm2.24-.9a1.1,1.1,0,0,0-1.06-1.25A1.26,1.26,0,0,0,72,205.14Z"/><path class="cls-3" d="M81.25,200.79v6c0,.53,0,1.09,0,1.44H80.14l0-.81h0a1.84,1.84,0,0,1-1.67.92,2.34,2.34,0,0,1-2.19-2.61A2.44,2.44,0,0,1,78.5,203a1.62,1.62,0,0,1,1.44.67h0v-2.89ZM80,205.26a2,2,0,0,0,0-.34,1.12,1.12,0,0,0-1.11-.91c-.83,0-1.29.73-1.29,1.69s.46,1.62,1.28,1.62a1.15,1.15,0,0,0,1.11-.92,1.48,1.48,0,0,0,0-.38Z"/><path class="cls-3" d="M84,201.7a.69.69,0,0,1-.74.69.67.67,0,0,1-.71-.69.68.68,0,0,1,.72-.7A.69.69,0,0,1,84,201.7Zm-1.38,6.54v-5.11h1.3v5.11Z"/><path class="cls-3" d="M88.21,208.24l-.09-.57h0a1.9,1.9,0,0,1-1.51.68A1.52,1.52,0,0,1,85,206.83c0-1.29,1.15-1.94,3-1.93v-.08c0-.34-.14-.9-1-.9a2.72,2.72,0,0,0-1.38.38l-.25-.84a3.7,3.7,0,0,1,1.85-.45,1.92,1.92,0,0,1,2.11,2.15V207a8.69,8.69,0,0,0,.07,1.23Zm-.17-2.5c-.92,0-1.79.18-1.79,1a.68.68,0,0,0,.74.73,1.06,1.06,0,0,0,1-.7,1,1,0,0,0,0-.29Z"/><path class="cls-3" d="M44.78,219.24l-.08-.57h0a1.9,1.9,0,0,1-1.51.68,1.52,1.52,0,0,1-1.61-1.52c0-1.29,1.14-1.94,3-1.93v-.08c0-.34-.13-.9-1-.9a2.71,2.71,0,0,0-1.37.38l-.25-.84a3.66,3.66,0,0,1,1.84-.45,1.92,1.92,0,0,1,2.12,2.15V218a8.69,8.69,0,0,0,.07,1.23Zm-.16-2.5c-.92,0-1.79.18-1.79,1a.68.68,0,0,0,.74.73,1,1,0,0,0,1-1Z"/><path class="cls-3" d="M47.24,215.65c0-.59,0-1.08,0-1.52h1.13l.07.76h0a1.83,1.83,0,0,1,1.62-.88c.9,0,1.82.58,1.82,2.2v3H50.58v-2.89c0-.73-.27-1.29-1-1.29a1.1,1.1,0,0,0-1,.76,1.34,1.34,0,0,0-.05.42v3h-1.3Z"/><path class="cls-3" d="M56.12,219.24l-.08-.57h0a1.9,1.9,0,0,1-1.51.68,1.52,1.52,0,0,1-1.61-1.52c0-1.29,1.14-1.94,3-1.93v-.08c0-.34-.13-.9-1-.9a2.71,2.71,0,0,0-1.37.38l-.25-.84A3.66,3.66,0,0,1,55.1,214a1.91,1.91,0,0,1,2.11,2.15V218a8.54,8.54,0,0,0,.08,1.23Zm-.16-2.5c-.92,0-1.79.18-1.79,1a.68.68,0,0,0,.74.73,1,1,0,0,0,1.05-1Z"/><path class="cls-3" d="M58.58,211.79h1.3v7.45h-1.3Z"/><path class="cls-3" d="M62.09,214.13l.92,2.74c.11.31.21.7.28,1h0c.08-.29.17-.67.27-1l.8-2.73h1.38l-1.28,3.48c-.7,1.91-1.17,2.76-1.78,3.29a2.61,2.61,0,0,1-1.36.66l-.29-1.09a2.12,2.12,0,0,0,.75-.36,2.2,2.2,0,0,0,.71-.81.53.53,0,0,0,.08-.23.58.58,0,0,0-.07-.25l-1.87-4.69Z"/><path class="cls-3" d="M68,212.67v1.46h1.23v1H68v2.26c0,.62.17.94.66.94a1.93,1.93,0,0,0,.5-.06l0,1a3,3,0,0,1-.94.12,1.46,1.46,0,0,1-1.11-.42,2,2,0,0,1-.4-1.42v-2.41H66v-1h.74V213Z"/><path class="cls-3" d="M71.59,212.7a.68.68,0,0,1-.74.69.67.67,0,0,1-.71-.69.73.73,0,0,1,1.45,0Zm-1.38,6.54v-5.11h1.31v5.11Z"/><path class="cls-3" d="M76.66,219.08a3.67,3.67,0,0,1-1.45.26,2.45,2.45,0,0,1-2.63-2.6A2.64,2.64,0,0,1,75.42,214a3.35,3.35,0,0,1,1.25.24l-.23,1a2.18,2.18,0,0,0-1-.2,1.66,1.66,0,0,0,0,3.31,2.58,2.58,0,0,0,1-.2Z"/><path class="cls-3" d="M77.55,218.05a2.89,2.89,0,0,0,1.32.37c.56,0,.81-.23.81-.57s-.21-.52-.84-.74c-1-.35-1.41-.89-1.4-1.49A1.71,1.71,0,0,1,79.37,214a2.92,2.92,0,0,1,1.35.31l-.25.91a2.24,2.24,0,0,0-1.08-.3c-.46,0-.71.23-.71.54s.24.48.89.71c.92.34,1.35.81,1.36,1.57,0,.92-.72,1.59-2.07,1.59A3.33,3.33,0,0,1,77.3,219Z"/><path class="cls-3" d="M126.17,316a4.49,4.49,0,0,1-1.83.31,3.33,3.33,0,0,1-3.61-3.55,3.56,3.56,0,0,1,3.78-3.74,4.18,4.18,0,0,1,1.72.31l-.28,1a3.42,3.42,0,0,0-1.39-.27,2.35,2.35,0,0,0-2.48,2.6,2.32,2.32,0,0,0,2.47,2.55A3.58,3.58,0,0,0,126,315Z"/><path class="cls-3" d="M130.09,316.24l-.08-.57h0a1.9,1.9,0,0,1-1.51.68,1.52,1.52,0,0,1-1.61-1.52c0-1.29,1.15-1.94,3-1.93v-.08c0-.34-.14-.9-1-.9a2.72,2.72,0,0,0-1.38.38l-.25-.84a3.7,3.7,0,0,1,1.85-.45,1.92,1.92,0,0,1,2.11,2.15V315a8.69,8.69,0,0,0,.07,1.23Zm-.16-2.5c-.92,0-1.79.18-1.79,1a.68.68,0,0,0,.74.73,1,1,0,0,0,1-.7.77.77,0,0,0,.05-.29Z"/><path class="cls-3" d="M132.55,312.65c0-.59,0-1.08,0-1.52h1.11l.06.75h0a1.76,1.76,0,0,1,1.57-.87,1.48,1.48,0,0,1,1.42.95h0a1.84,1.84,0,0,1,.63-.64,1.7,1.7,0,0,1,1-.31c.85,0,1.71.58,1.71,2.22v3h-1.26v-2.82c0-.86-.29-1.36-.91-1.36a1,1,0,0,0-.91.68,2,2,0,0,0-.06.43v3.07h-1.26v-3c0-.72-.28-1.22-.88-1.22a1,1,0,0,0-.92.74,1,1,0,0,0-.08.42v3h-1.26Z"/><path class="cls-3" d="M141.46,312.83c0-.67,0-1.22-.05-1.7h1.14l.06.78h0a2,2,0,0,1,1.75-.9,2.33,2.33,0,0,1,2.16,2.6,2.43,2.43,0,0,1-2.33,2.74,1.68,1.68,0,0,1-1.44-.68h0v2.65h-1.29Zm1.29,1.27a1.34,1.34,0,0,0,0,.35,1.17,1.17,0,0,0,1.13.91c.82,0,1.3-.69,1.3-1.69S144.78,312,144,312a1.21,1.21,0,0,0-1.16,1,1.32,1.32,0,0,0-.05.33Z"/><path class="cls-3" d="M150.47,316.24l-.08-.57h0a1.9,1.9,0,0,1-1.51.68,1.52,1.52,0,0,1-1.61-1.52c0-1.29,1.15-1.94,3-1.93v-.08c0-.34-.14-.9-1-.9a2.72,2.72,0,0,0-1.38.38l-.25-.84a3.7,3.7,0,0,1,1.85-.45,1.92,1.92,0,0,1,2.11,2.15V315a8.69,8.69,0,0,0,.07,1.23Zm-.16-2.5c-.92,0-1.79.18-1.79,1a.68.68,0,0,0,.74.73,1.06,1.06,0,0,0,1-.7,1,1,0,0,0,0-.29Z"/><path class="cls-3" d="M154.31,309.7a.69.69,0,0,1-.74.69.67.67,0,0,1-.71-.69.68.68,0,0,1,.72-.7A.69.69,0,0,1,154.31,309.7Zm-1.38,6.54v-5.11h1.3v5.11Z"/><path class="cls-3" d="M160.29,311.13c0,.34,0,.76,0,1.47v2.89a2.94,2.94,0,0,1-.76,2.32,2.89,2.89,0,0,1-2,.62,3.52,3.52,0,0,1-1.78-.41l.28-1a3.05,3.05,0,0,0,1.49.39,1.36,1.36,0,0,0,1.47-1.55v-.44h0a1.73,1.73,0,0,1-1.49.76,2.27,2.27,0,0,1-2.18-2.5,2.46,2.46,0,0,1,2.33-2.7,1.63,1.63,0,0,1,1.48.8h0l0-.68Zm-1.33,2a1.27,1.27,0,0,0,0-.34,1.07,1.07,0,0,0-1-.83c-.73,0-1.26.63-1.26,1.67,0,.87.44,1.57,1.25,1.57a1.1,1.1,0,0,0,1-.78A2.24,2.24,0,0,0,159,314Z"/><path class="cls-3" d="M161.64,312.65c0-.59,0-1.08,0-1.52h1.14l.06.76h0a1.85,1.85,0,0,1,1.63-.88c.89,0,1.82.58,1.82,2.2v3H165v-2.89c0-.73-.28-1.29-1-1.29a1.09,1.09,0,0,0-1,.76,1.34,1.34,0,0,0-.05.42v3h-1.3Z"/><path class="cls-3" d="M169.82,312.65c0-.59,0-1.08,0-1.52h1.12l.05.75h0a1.77,1.77,0,0,1,1.58-.87A1.47,1.47,0,0,1,174,312h0a1.84,1.84,0,0,1,.63-.64,1.72,1.72,0,0,1,1-.31c.85,0,1.71.58,1.71,2.22v3h-1.26v-2.82c0-.86-.29-1.36-.91-1.36a1,1,0,0,0-.9.68,2,2,0,0,0-.07.43v3.07H173v-3c0-.72-.29-1.22-.89-1.22a1,1,0,0,0-.92.74,1.12,1.12,0,0,0-.07.42v3h-1.26Z"/><path class="cls-3" d="M181.6,316.24l-.09-.57h0a1.89,1.89,0,0,1-1.51.68,1.52,1.52,0,0,1-1.61-1.52c0-1.29,1.15-1.94,3-1.93v-.08c0-.34-.14-.9-1-.9a2.72,2.72,0,0,0-1.38.38l-.25-.84a3.7,3.7,0,0,1,1.85-.45,1.91,1.91,0,0,1,2.11,2.15V315a8.69,8.69,0,0,0,.07,1.23Zm-.17-2.5c-.91,0-1.79.18-1.79,1a.68.68,0,0,0,.74.73,1.06,1.06,0,0,0,1-.7,1,1,0,0,0,0-.29Z"/><path class="cls-3" d="M184.05,312.65c0-.59,0-1.08,0-1.52h1.14l.06.76h0a1.85,1.85,0,0,1,1.63-.88c.89,0,1.81.58,1.81,2.2v3h-1.29v-2.89c0-.73-.27-1.29-1-1.29a1.08,1.08,0,0,0-1,.76,1.34,1.34,0,0,0,0,.42v3h-1.31Z"/><path class="cls-3" d="M192.94,316.24l-.09-.57h0a1.89,1.89,0,0,1-1.51.68,1.52,1.52,0,0,1-1.61-1.52c0-1.29,1.15-1.94,3-1.93v-.08c0-.34-.14-.9-1-.9a2.72,2.72,0,0,0-1.38.38l-.25-.84a3.7,3.7,0,0,1,1.85-.45,1.91,1.91,0,0,1,2.11,2.15V315a8.69,8.69,0,0,0,.07,1.23Zm-.17-2.5c-.91,0-1.79.18-1.79,1a.68.68,0,0,0,.74.73,1.06,1.06,0,0,0,1-.7,1,1,0,0,0,0-.29Z"/><path class="cls-3" d="M200.07,311.13c0,.34,0,.76,0,1.47v2.89a3,3,0,0,1-.75,2.32,2.92,2.92,0,0,1-2,.62,3.52,3.52,0,0,1-1.78-.41l.28-1a3.08,3.08,0,0,0,1.49.39,1.36,1.36,0,0,0,1.47-1.55v-.44h0a1.73,1.73,0,0,1-1.49.76,2.27,2.27,0,0,1-2.17-2.5,2.45,2.45,0,0,1,2.32-2.7,1.6,1.6,0,0,1,1.48.8h0l.05-.68Zm-1.34,2a1.27,1.27,0,0,0,0-.34,1.06,1.06,0,0,0-1.05-.83c-.72,0-1.26.63-1.26,1.67,0,.87.44,1.57,1.25,1.57a1.1,1.1,0,0,0,1.05-.78,2.24,2.24,0,0,0,0-.46Z"/><path class="cls-3" d="M202.32,314a1.4,1.4,0,0,0,1.58,1.33,4,4,0,0,0,1.42-.23l.18.89a4.74,4.74,0,0,1-1.78.31,2.42,2.42,0,0,1-2.64-2.58,2.54,2.54,0,0,1,2.5-2.75,2.23,2.23,0,0,1,2.21,2.49,3.21,3.21,0,0,1,0,.54Zm2.25-.9a1.1,1.1,0,0,0-1.06-1.25,1.27,1.27,0,0,0-1.19,1.25Z"/><path class="cls-3" d="M206.83,312.65c0-.59,0-1.08,0-1.52h1.11l0,.75h0a1.79,1.79,0,0,1,1.58-.87A1.47,1.47,0,0,1,211,312h0a2,2,0,0,1,1.65-.95c.85,0,1.72.58,1.72,2.22v3h-1.26v-2.82c0-.86-.3-1.36-.92-1.36a1,1,0,0,0-.9.68,2,2,0,0,0-.06.43v3.07H210v-3c0-.72-.29-1.22-.88-1.22a1,1,0,0,0-.93.74,1.12,1.12,0,0,0-.07.42v3h-1.26Z"/><path class="cls-3" d="M216.65,314a1.39,1.39,0,0,0,1.57,1.33,4,4,0,0,0,1.42-.23l.19.89a4.8,4.8,0,0,1-1.79.31,2.41,2.41,0,0,1-2.63-2.58,2.53,2.53,0,0,1,2.5-2.75,2.23,2.23,0,0,1,2.2,2.49,3.21,3.21,0,0,1,0,.54Zm2.24-.9a1.1,1.1,0,0,0-1.06-1.25,1.26,1.26,0,0,0-1.18,1.25Z"/><path class="cls-3" d="M221.15,312.65c0-.59,0-1.08,0-1.52h1.13l.06.76h0A1.83,1.83,0,0,1,224,311c.9,0,1.82.58,1.82,2.2v3h-1.29v-2.89c0-.73-.27-1.29-1-1.29a1.1,1.1,0,0,0-1,.76,1.34,1.34,0,0,0-.05.42v3h-1.3Z"/><path class="cls-3" d="M228.64,309.67v1.46h1.23v1h-1.23v2.26c0,.62.16.94.66.94a1.93,1.93,0,0,0,.5-.06l0,1a2.94,2.94,0,0,1-.93.12,1.46,1.46,0,0,1-1.11-.42,2,2,0,0,1-.4-1.42v-2.41h-.74v-1h.74V310Z"/><path class="cls-3" d="M249,198.26a10.54,10.54,0,0,1,2-.15,3.2,3.2,0,0,1,2.09.58,2,2,0,0,1,.69,1.56,2.16,2.16,0,0,1-.61,1.61,3.12,3.12,0,0,1-2.23.75,3.77,3.77,0,0,1-.63,0v2.67H249Zm1.28,3.29a2.15,2.15,0,0,0,.63.06c1,0,1.55-.48,1.55-1.31s-.55-1.2-1.44-1.2a3.68,3.68,0,0,0-.74.06Z"/><path class="cls-3" d="M254.79,201.77c0-.69,0-1.18,0-1.64h1.12l0,1h0a1.53,1.53,0,0,1,1.39-1.09,1.48,1.48,0,0,1,.31,0v1.22a1.92,1.92,0,0,0-.38,0,1.13,1.13,0,0,0-1.15,1,2.43,2.43,0,0,0-.05.4v2.65h-1.29Z"/><path class="cls-3" d="M263.39,202.64a2.53,2.53,0,0,1-2.62,2.71,2.46,2.46,0,0,1-2.56-2.63,2.52,2.52,0,0,1,2.64-2.71A2.45,2.45,0,0,1,263.39,202.64Zm-3.85.05c0,1,.48,1.73,1.27,1.73s1.25-.72,1.25-1.75c0-.8-.36-1.71-1.24-1.71S259.54,201.84,259.54,202.69Z"/><path class="cls-3" d="M269.17,197.79v6c0,.53,0,1.09,0,1.44h-1.16l-.05-.81h0a1.82,1.82,0,0,1-1.67.92,2.33,2.33,0,0,1-2.18-2.61,2.43,2.43,0,0,1,2.29-2.73,1.61,1.61,0,0,1,1.43.67h0v-2.89Zm-1.29,4.47a1.32,1.32,0,0,0,0-.34,1.12,1.12,0,0,0-1.11-.91c-.83,0-1.29.73-1.29,1.69s.46,1.62,1.28,1.62a1.28,1.28,0,0,0,1.16-1.3Z"/><path class="cls-3" d="M275.13,203.71c0,.61,0,1.11,0,1.53H274l-.06-.78h0a1.86,1.86,0,0,1-1.64.89c-.94,0-1.79-.55-1.79-2.22v-3h1.29v2.78c0,.85.28,1.39,1,1.39a1.09,1.09,0,0,0,1-.69,1.19,1.19,0,0,0,.07-.4v-3.08h1.29Z"/><path class="cls-3" d="M280.29,205.08a3.71,3.71,0,0,1-1.45.26,2.45,2.45,0,0,1-2.64-2.6,2.65,2.65,0,0,1,2.85-2.73,3.39,3.39,0,0,1,1.25.24l-.23,1a2.22,2.22,0,0,0-1-.2,1.66,1.66,0,0,0,0,3.31,2.62,2.62,0,0,0,1-.2Z"/><path class="cls-3" d="M282.72,198.67v1.46H284v1h-1.23v2.26c0,.62.17.94.66.94a2.09,2.09,0,0,0,.51-.06l0,1a3,3,0,0,1-.94.12,1.46,1.46,0,0,1-1.11-.42,2,2,0,0,1-.4-1.42v-2.41h-.73v-1h.73V199Z"/><path class="cls-3" d="M288.58,198.67v1.46h1.23v1h-1.23v2.26c0,.62.17.94.66.94a2.09,2.09,0,0,0,.51-.06l0,1a3,3,0,0,1-.94.12,1.46,1.46,0,0,1-1.11-.42,2,2,0,0,1-.4-1.42v-2.41h-.73v-1h.73V199Z"/><path class="cls-3" d="M291.7,203a1.39,1.39,0,0,0,1.57,1.33,4,4,0,0,0,1.42-.23l.19.89a4.78,4.78,0,0,1-1.78.31,2.42,2.42,0,0,1-2.64-2.58A2.53,2.53,0,0,1,293,200a2.22,2.22,0,0,1,2.2,2.49,3.21,3.21,0,0,1,0,.54Zm2.25-.9a1.1,1.1,0,0,0-1.06-1.25,1.27,1.27,0,0,0-1.19,1.25Z"/><path class="cls-3" d="M296.14,204.05a2.88,2.88,0,0,0,1.31.37c.57,0,.82-.23.82-.57s-.21-.52-.84-.74c-1-.35-1.41-.89-1.4-1.49A1.71,1.71,0,0,1,298,200a3,3,0,0,1,1.35.31l-.25.91a2.24,2.24,0,0,0-1.08-.3c-.46,0-.72.23-.72.54s.25.48.9.71c.92.34,1.35.81,1.36,1.57,0,.92-.72,1.59-2.08,1.59a3.29,3.29,0,0,1-1.55-.35Z"/><path class="cls-3" d="M302.06,198.67v1.46h1.23v1h-1.23v2.26c0,.62.17.94.66.94a2.09,2.09,0,0,0,.51-.06l0,1a3,3,0,0,1-.94.12,1.46,1.46,0,0,1-1.11-.42,2,2,0,0,1-.4-1.42v-2.41h-.73v-1h.73V199Z"/><path class="cls-3" d="M305.64,198.7a.73.73,0,0,1-1.45,0,.69.69,0,0,1,.73-.7A.68.68,0,0,1,305.64,198.7Zm-1.37,6.54v-5.11h1.3v5.11Z"/><path class="cls-3" d="M307,201.65c0-.59,0-1.08,0-1.52h1.14l.06.76h0a1.85,1.85,0,0,1,1.63-.88c.89,0,1.82.58,1.82,2.2v3h-1.3v-2.89c0-.73-.27-1.29-1-1.29a1.09,1.09,0,0,0-1,.76,1.34,1.34,0,0,0-.05.42v3H307Z"/><path class="cls-3" d="M317.63,200.13c0,.34,0,.76,0,1.47v2.89a3,3,0,0,1-.75,2.32,2.92,2.92,0,0,1-2,.62,3.52,3.52,0,0,1-1.78-.41l.28-1a3.08,3.08,0,0,0,1.49.39,1.36,1.36,0,0,0,1.47-1.55v-.44h0a1.73,1.73,0,0,1-1.49.76,2.27,2.27,0,0,1-2.17-2.5A2.45,2.45,0,0,1,315,200a1.62,1.62,0,0,1,1.48.8h0l.05-.68Zm-1.33,2a1.27,1.27,0,0,0,0-.34,1.07,1.07,0,0,0-1.05-.83c-.73,0-1.26.63-1.26,1.67,0,.87.44,1.57,1.25,1.57a1.1,1.1,0,0,0,1.05-.78,2.24,2.24,0,0,0,.05-.46Z"/><path class="cls-3" d="M261.65,216.24l-.08-.57h0a1.9,1.9,0,0,1-1.51.68,1.52,1.52,0,0,1-1.61-1.52c0-1.29,1.14-1.94,3-1.93v-.08c0-.34-.14-.9-1-.9a2.72,2.72,0,0,0-1.38.38l-.25-.84a3.7,3.7,0,0,1,1.85-.45,1.92,1.92,0,0,1,2.11,2.15V215a8.69,8.69,0,0,0,.07,1.23Zm-.16-2.5c-.92,0-1.79.18-1.79,1a.68.68,0,0,0,.74.73,1,1,0,0,0,1-.7.77.77,0,0,0,.05-.29Z"/><path class="cls-3" d="M264.11,212.65c0-.59,0-1.08,0-1.52h1.13l.07.76h0a1.83,1.83,0,0,1,1.62-.88c.9,0,1.82.58,1.82,2.2v3h-1.29v-2.89c0-.73-.27-1.29-1-1.29a1.07,1.07,0,0,0-1,.76,1.09,1.09,0,0,0-.06.42v3h-1.3Z"/><path class="cls-3" d="M274.83,208.79v6c0,.53,0,1.09,0,1.44h-1.15l-.05-.81h0a1.82,1.82,0,0,1-1.66.92,2.34,2.34,0,0,1-2.19-2.61,2.43,2.43,0,0,1,2.29-2.73,1.63,1.63,0,0,1,1.44.67h0v-2.89Zm-1.29,4.47a2,2,0,0,0,0-.34,1.14,1.14,0,0,0-1.11-.91c-.83,0-1.3.73-1.3,1.69s.47,1.62,1.28,1.62a1.15,1.15,0,0,0,1.12-.92,1.48,1.48,0,0,0,0-.38Z"/><path class="cls-3" d="M278.39,208.79h1.3v7.45h-1.3Z"/><path class="cls-3" d="M284,216.24l-.09-.57h0a1.89,1.89,0,0,1-1.51.68,1.52,1.52,0,0,1-1.61-1.52c0-1.29,1.15-1.94,3-1.93v-.08c0-.34-.14-.9-1-.9a2.72,2.72,0,0,0-1.38.38l-.25-.84A3.7,3.7,0,0,1,283,211a1.91,1.91,0,0,1,2.11,2.15V215a8.69,8.69,0,0,0,.07,1.23Zm-.17-2.5c-.92,0-1.79.18-1.79,1a.68.68,0,0,0,.74.73,1.06,1.06,0,0,0,1-.7,1,1,0,0,0,0-.29Z"/><path class="cls-3" d="M291,214.71c0,.61,0,1.11,0,1.53h-1.13l-.06-.78h0a1.86,1.86,0,0,1-1.64.89c-.94,0-1.79-.55-1.79-2.22v-3h1.29v2.78c0,.85.28,1.39,1,1.39a1.09,1.09,0,0,0,1-.69,1.19,1.19,0,0,0,.07-.4v-3.08H291Z"/><path class="cls-3" d="M292.4,212.65c0-.59,0-1.08,0-1.52h1.13l.06.76h0a1.85,1.85,0,0,1,1.63-.88c.89,0,1.82.58,1.82,2.2v3h-1.29v-2.89c0-.73-.28-1.29-1-1.29a1.1,1.1,0,0,0-1,.76,1.34,1.34,0,0,0-.05.42v3h-1.3Z"/><path class="cls-3" d="M302.16,216.08a3.67,3.67,0,0,1-1.45.26,2.45,2.45,0,0,1-2.63-2.6,2.64,2.64,0,0,1,2.84-2.73,3.3,3.3,0,0,1,1.25.24l-.23,1a2.18,2.18,0,0,0-1-.2,1.66,1.66,0,0,0,0,3.31,2.58,2.58,0,0,0,1-.2Z"/><path class="cls-3" d="M303.12,208.79h1.3v3h0a1.82,1.82,0,0,1,.64-.59A1.72,1.72,0,0,1,306,211c.87,0,1.79.58,1.79,2.22v3h-1.29v-2.87c0-.74-.28-1.3-1-1.3a1.07,1.07,0,0,0-1,.73,1.09,1.09,0,0,0-.05.38v3.06h-1.3Z"/><path class="cls-3" d="M130.41,83.26a10.54,10.54,0,0,1,2-.15,3.18,3.18,0,0,1,2.09.58,2,2,0,0,1,.7,1.56,2.16,2.16,0,0,1-.61,1.61,3.16,3.16,0,0,1-2.24.75,3.85,3.85,0,0,1-.63,0v2.67h-1.28Zm1.28,3.29a2.24,2.24,0,0,0,.63.06c1,0,1.56-.48,1.56-1.31s-.55-1.2-1.44-1.2a3.8,3.8,0,0,0-.75.06Z"/><path class="cls-3" d="M141.09,87.64a2.53,2.53,0,0,1-2.63,2.71,2.46,2.46,0,0,1-2.56-2.63A2.53,2.53,0,0,1,138.55,85,2.45,2.45,0,0,1,141.09,87.64Zm-3.85,0c0,1,.48,1.73,1.27,1.73s1.24-.72,1.24-1.75c0-.8-.35-1.71-1.23-1.71S137.24,86.84,137.24,87.69Z"/><path class="cls-3" d="M142.15,86.77c0-.69,0-1.18,0-1.64h1.12l0,1h0a1.55,1.55,0,0,1,1.4-1.09,1.48,1.48,0,0,1,.31,0v1.22a2,2,0,0,0-.38,0,1.15,1.15,0,0,0-1.16,1,2.46,2.46,0,0,0,0,.4v2.65h-1.29Z"/><path class="cls-3" d="M147.37,83.67v1.46h1.23v1h-1.23v2.26c0,.62.17.94.66.94a1.93,1.93,0,0,0,.5-.06l0,1a2.89,2.89,0,0,1-.93.12,1.46,1.46,0,0,1-1.11-.42,2,2,0,0,1-.4-1.42V86.09h-.74v-1h.74V84Z"/><path class="cls-3" d="M152.45,90.24l-.08-.57h0a1.89,1.89,0,0,1-1.51.68,1.51,1.51,0,0,1-1.6-1.52c0-1.29,1.14-1.94,3-1.93v-.08c0-.34-.14-.9-1-.9a2.75,2.75,0,0,0-1.38.38l-.25-.84a3.7,3.7,0,0,1,1.85-.45,1.91,1.91,0,0,1,2.11,2.15V89a8.69,8.69,0,0,0,.07,1.23Zm-.17-2.5c-.91,0-1.78.18-1.78,1a.67.67,0,0,0,.73.73,1.05,1.05,0,0,0,1-.7,1,1,0,0,0,0-.29Z"/><path class="cls-3" d="M154.91,82.79h1.3v7.45h-1.3Z"/><path class="cls-3" d="M162.66,90.24l-.09-.57h0a1.9,1.9,0,0,1-1.51.68,1.52,1.52,0,0,1-1.61-1.52c0-1.29,1.15-1.94,3-1.93v-.08c0-.34-.14-.9-1-.9a2.72,2.72,0,0,0-1.38.38l-.25-.84a3.7,3.7,0,0,1,1.85-.45,1.92,1.92,0,0,1,2.11,2.15V89a8.69,8.69,0,0,0,.07,1.23Zm-.17-2.5c-.92,0-1.79.18-1.79,1a.68.68,0,0,0,.74.73,1.06,1.06,0,0,0,1-.7,1,1,0,0,0,0-.29Z"/><path class="cls-3" d="M165.11,86.65c0-.59,0-1.08,0-1.52h1.13l.07.76h0a1.85,1.85,0,0,1,1.63-.88c.89,0,1.81.58,1.81,2.2v3h-1.29V87.35c0-.73-.27-1.29-1-1.29a1.07,1.07,0,0,0-1,.76,1.09,1.09,0,0,0-.06.42v3h-1.3Z"/><path class="cls-3" d="M175.83,82.79v6c0,.53,0,1.09,0,1.44h-1.15l-.05-.81h0a1.84,1.84,0,0,1-1.67.92,2.34,2.34,0,0,1-2.19-2.61A2.43,2.43,0,0,1,173.08,85a1.62,1.62,0,0,1,1.44.67h0V82.79Zm-1.29,4.47a2,2,0,0,0,0-.34A1.14,1.14,0,0,0,173.4,86c-.83,0-1.29.73-1.29,1.69s.46,1.62,1.28,1.62a1.15,1.15,0,0,0,1.11-.92,1.48,1.48,0,0,0,0-.38Z"/><path class="cls-3" d="M179.39,86.65c0-.59,0-1.08,0-1.52h1.11l.06.75h0a1.76,1.76,0,0,1,1.57-.87,1.48,1.48,0,0,1,1.42.95h0a1.84,1.84,0,0,1,.63-.64,1.7,1.7,0,0,1,1-.31c.85,0,1.71.58,1.71,2.22v3h-1.26V87.42c0-.86-.29-1.36-.91-1.36a1,1,0,0,0-.91.68,2,2,0,0,0-.06.43v3.07h-1.26v-3c0-.72-.28-1.22-.88-1.22a1,1,0,0,0-.92.74,1,1,0,0,0-.08.42v3h-1.26Z"/><path class="cls-3" d="M189.67,83.7a.73.73,0,0,1-1.45,0A.69.69,0,0,1,189,83,.68.68,0,0,1,189.67,83.7Zm-1.37,6.54V85.13h1.3v5.11Z"/><path class="cls-3" d="M194.74,90.08a3.67,3.67,0,0,1-1.45.26,2.45,2.45,0,0,1-2.63-2.6A2.64,2.64,0,0,1,193.5,85a3.3,3.3,0,0,1,1.25.24l-.23,1a2.17,2.17,0,0,0-1-.2,1.66,1.66,0,0,0,0,3.31,2.56,2.56,0,0,0,1-.2Z"/><path class="cls-3" d="M195.7,86.77c0-.69,0-1.18,0-1.64h1.12l0,1h0a1.54,1.54,0,0,1,1.4-1.09,1.32,1.32,0,0,1,.3,0v1.22a1.82,1.82,0,0,0-.37,0,1.15,1.15,0,0,0-1.16,1,2.46,2.46,0,0,0,0,.4v2.65H195.7Z"/><path class="cls-3" d="M204.3,87.64a2.54,2.54,0,0,1-2.63,2.71,2.46,2.46,0,0,1-2.56-2.63A2.53,2.53,0,0,1,201.76,85,2.45,2.45,0,0,1,204.3,87.64Zm-3.86,0c0,1,.49,1.73,1.27,1.73S203,88.7,203,87.67c0-.8-.35-1.71-1.24-1.71S200.44,86.84,200.44,87.69Z"/><path class="cls-3" d="M205.29,89.05a2.92,2.92,0,0,0,1.32.37c.56,0,.82-.23.82-.57s-.21-.52-.84-.74c-1-.35-1.42-.89-1.41-1.49A1.71,1.71,0,0,1,207.11,85a3,3,0,0,1,1.36.31l-.26.91a2.24,2.24,0,0,0-1.08-.3c-.46,0-.71.23-.71.54s.24.48.89.71c.92.34,1.36.81,1.37,1.57,0,.92-.73,1.59-2.08,1.59A3.33,3.33,0,0,1,205,90Z"/><path class="cls-3" d="M211.11,83.7a.73.73,0,0,1-1.45,0,.69.69,0,0,1,.73-.7A.68.68,0,0,1,211.11,83.7Zm-1.37,6.54V85.13H211v5.11Z"/><path class="cls-3" d="M213.9,83.67v1.46h1.23v1H213.9v2.26c0,.62.17.94.67.94a1.93,1.93,0,0,0,.5-.06l0,1a2.94,2.94,0,0,1-.93.12,1.48,1.48,0,0,1-1.12-.42,2,2,0,0,1-.4-1.42V86.09h-.73v-1h.73V84Z"/><path class="cls-3" d="M217,88a1.39,1.39,0,0,0,1.58,1.33,4,4,0,0,0,1.42-.23l.18.89a4.78,4.78,0,0,1-1.78.31,2.41,2.41,0,0,1-2.63-2.58A2.53,2.53,0,0,1,218.28,85a2.23,2.23,0,0,1,2.21,2.49,3.21,3.21,0,0,1,0,.54Zm2.25-.9a1.1,1.1,0,0,0-1.06-1.25A1.27,1.27,0,0,0,217,87.14Z"/><path class="cls-3" d="M150.13,93.79v6c0,.53,0,1.09.05,1.44H149l-.05-.81h0a1.84,1.84,0,0,1-1.67.92,2.34,2.34,0,0,1-2.19-2.61A2.43,2.43,0,0,1,147.38,96a1.62,1.62,0,0,1,1.44.67h0V93.79Zm-1.29,4.47a2,2,0,0,0,0-.34A1.12,1.12,0,0,0,147.7,97c-.83,0-1.29.73-1.29,1.69s.46,1.62,1.28,1.62a1.15,1.15,0,0,0,1.11-.92,1.48,1.48,0,0,0,0-.38Z"/><path class="cls-3" d="M152.43,99a1.39,1.39,0,0,0,1.58,1.33,4,4,0,0,0,1.42-.23l.18.89a4.78,4.78,0,0,1-1.78.31,2.41,2.41,0,0,1-2.63-2.58A2.53,2.53,0,0,1,153.69,96a2.23,2.23,0,0,1,2.21,2.49,3.21,3.21,0,0,1,0,.54Zm2.25-.9a1.1,1.1,0,0,0-1.06-1.25,1.27,1.27,0,0,0-1.19,1.25Z"/><path class="cls-3" d="M157.76,96.13l.83,2.59c.14.45.25.86.34,1.28h0c.1-.42.21-.82.35-1.28l.81-2.59h1.36l-1.95,5.11h-1.27l-1.9-5.11Z"/><path class="cls-3" d="M163.19,99a1.39,1.39,0,0,0,1.57,1.33,4,4,0,0,0,1.42-.23l.19.89a4.8,4.8,0,0,1-1.79.31A2.41,2.41,0,0,1,162,98.76a2.53,2.53,0,0,1,2.5-2.75,2.23,2.23,0,0,1,2.2,2.49,3.21,3.21,0,0,1,0,.54Zm2.24-.9a1.1,1.1,0,0,0-1.06-1.25,1.26,1.26,0,0,0-1.18,1.25Z"/><path class="cls-3" d="M167.69,93.79H169v7.45h-1.3Z"/><path class="cls-3" d="M175.25,98.64a2.53,2.53,0,0,1-2.62,2.71,2.47,2.47,0,0,1-2.57-2.63A2.53,2.53,0,0,1,172.71,96,2.45,2.45,0,0,1,175.25,98.64Zm-3.85,0c0,1,.48,1.73,1.27,1.73s1.25-.72,1.25-1.75c0-.8-.36-1.71-1.24-1.71S171.4,97.84,171.4,98.69Z"/><path class="cls-3" d="M176.31,97.83c0-.67,0-1.22,0-1.7h1.13l.06.78h0a2,2,0,0,1,1.75-.9,2.32,2.32,0,0,1,2.15,2.6,2.43,2.43,0,0,1-2.33,2.74,1.68,1.68,0,0,1-1.44-.68h0v2.65h-1.29Zm1.29,1.27a1.34,1.34,0,0,0,0,.35,1.18,1.18,0,0,0,1.14.91c.82,0,1.3-.69,1.3-1.69S179.64,97,178.81,97a1.21,1.21,0,0,0-1.16,1,1.32,1.32,0,0,0-.05.33Z"/><path class="cls-3" d="M182.45,97.65c0-.59,0-1.08,0-1.52h1.11l.06.75h0a1.76,1.76,0,0,1,1.57-.87,1.48,1.48,0,0,1,1.42.95h0a1.84,1.84,0,0,1,.63-.64,1.7,1.7,0,0,1,1-.31c.85,0,1.71.58,1.71,2.22v3h-1.26V98.42c0-.86-.29-1.36-.91-1.36a1,1,0,0,0-.91.68,2,2,0,0,0-.06.43v3.07h-1.26v-3c0-.72-.28-1.22-.88-1.22a1,1,0,0,0-.92.74,1,1,0,0,0-.08.42v3h-1.26Z"/><path class="cls-3" d="M192.27,99a1.39,1.39,0,0,0,1.57,1.33,4,4,0,0,0,1.42-.23l.19.89a4.78,4.78,0,0,1-1.78.31A2.42,2.42,0,0,1,191,98.76a2.53,2.53,0,0,1,2.5-2.75,2.22,2.22,0,0,1,2.2,2.49,3.21,3.21,0,0,1,0,.54Zm2.25-.9a1.1,1.1,0,0,0-1.06-1.25,1.27,1.27,0,0,0-1.19,1.25Z"/><path class="cls-3" d="M196.77,97.65c0-.59,0-1.08,0-1.52h1.14l.06.76h0a1.85,1.85,0,0,1,1.63-.88c.89,0,1.81.58,1.81,2.2v3h-1.29V98.35c0-.73-.27-1.29-1-1.29a1.09,1.09,0,0,0-1,.76,1.34,1.34,0,0,0,0,.42v3h-1.31Z"/><path class="cls-3" d="M204.26,94.67v1.46h1.23v1h-1.23v2.26c0,.62.17.94.66.94a2.09,2.09,0,0,0,.51-.06l0,1a3,3,0,0,1-.94.12,1.46,1.46,0,0,1-1.11-.42,2,2,0,0,1-.4-1.42V97.09h-.73v-1H203V95Z"/><path class="cls-3" d="M187.66,251l.79.28a4.75,4.75,0,0,1,3.16,4.37,4.7,4.7,0,0,1-2.92,4.39.85.85,0,0,0-.64,1q0,16.13,0,32.26v1l-10.27-3.42c-.48,2-1,3.89-3.32,4.45h-1.13a.88.88,0,0,0-.17-.12l-15.75-5a3.25,3.25,0,0,1-2.19-4.43c.23-.71.45-1.42.69-2.16l-5.24-1.74c-.6-.21-1.39-.27-1.73-.69s-.14-1.17-.12-1.78c0-.39-.16-.52-.48-.65a4.46,4.46,0,0,1-2.7-2.64c-.15-.38-.27-.78-.4-1.18V273.7a15.51,15.51,0,0,1,1.33-2.6,5,5,0,0,1,1.77-1.22c.36-.18.5-.34.48-.73s0-.9,0-1.34c-.09-.65.22-.88.79-1.07q9.93-3.24,19.83-6.52a2.87,2.87,0,0,0,.37-.15l-1.38-3.91,10.63,1.95-7,8.22-1.45-4-9.93,3.28c-2.89,1-5.78,1.92-8.68,2.84-.67.21-1,.5-.71,1.27.08,0,.22.1.37.15a4.74,4.74,0,0,1,3.08,4.36,4.8,4.8,0,0,1-2.92,4.41,3,3,0,0,0-.61.53,2.83,2.83,0,0,0,.69.53l32.94,11c.27.09.53.15.85.24v-30.6a10.88,10.88,0,0,1-1.32-.67,4.71,4.71,0,0,1,1.11-8.42l.64-.24Zm-29.5,33.26c-.25.77-.49,1.48-.71,2.2s0,1.16.76,1.43l2.42.79,12.65,4.05c.82.26,1.33.15,1.58-.46s.5-1.44.75-2.2Zm26.38-28.55a2.34,2.34,0,0,0,2.36,2.38,2.39,2.39,0,0,0,2.36-2.4,2.42,2.42,0,0,0-2.34-2.37A2.39,2.39,0,0,0,184.54,255.71ZM150,276.65a2.39,2.39,0,1,0-2.36-2.43A2.44,2.44,0,0,0,150,276.65Z"/><path class="cls-3" d="M205.25,263.62h-12v-2.41h12Z"/><path class="cls-3" d="M205.25,287.31h-12V284.9h12Z"/><path class="cls-3" d="M205.25,275.4h-12v-2.27h12Z"/><path class="cls-3" d="M55.33,176.9l-6.47,6.46,7.58-2-2.16,8.1L52,187.06l-5.43,5.44c-.91.91-1.24.9-2.16,0l-2.87-2.87c-.65-.66-.64-1.09,0-1.75q6-6,12-12a.87.87,0,0,0,.21-1.24A14.27,14.27,0,1,1,68.26,182a14,14,0,0,1-12.67-4.83Zm11.06,3.4A12.44,12.44,0,1,0,54,167.77,12.48,12.48,0,0,0,66.39,180.3Zm-18,3.51-4.95,4.94,2.08,2.09,4.93-5Z"/><path class="cls-3" d="M66.55,151.73h-5.9c-.93,0-1.2-.26-1.2-1.19,0-1.54-.06-3.09.07-4.62a5.17,5.17,0,0,1,5.12-4.68c1.26,0,2.52,0,3.77,0a5.28,5.28,0,0,1,5.18,5.11c0,1.43,0,2.85,0,4.27,0,.81-.31,1.1-1.13,1.11Zm5.2-1.84c0-1.26.06-2.45,0-3.63a3.36,3.36,0,0,0-3-3.15,35.61,35.61,0,0,0-4.26,0,3.14,3.14,0,0,0-2.87,2.11c-.61,1.52-.22,3.11-.33,4.68Z"/><path class="cls-3" d="M83.56,151.73c-2,0-4,0-6,0-.73,0-1.08-.3-1.08-1,0-1.61-.06-3.23.09-4.83a5.15,5.15,0,0,1,5.17-4.63h3.42a5.29,5.29,0,0,1,5.49,5.39c0,1.3,0,2.61,0,3.91,0,.89-.31,1.19-1.21,1.19Zm5.26-1.84c0-1.12,0-2.16,0-3.2a3.48,3.48,0,0,0-3.47-3.63c-1.18-.05-2.37,0-3.55,0a3.21,3.21,0,0,0-3.23,2.4,34.09,34.09,0,0,0-.31,4.43Z"/><path class="cls-3" d="M49.45,151.73H43.68c-1.08,0-1.27-.2-1.27-1.3v-4a5.23,5.23,0,0,1,5.21-5.2c1.23,0,2.47,0,3.7,0a5.27,5.27,0,0,1,5.2,5.09c0,1.44,0,2.89,0,4.34,0,.76-.32,1.05-1.11,1.06C53.43,151.74,51.44,151.73,49.45,151.73Zm-5.14-1.86H54.68V146.7a3.46,3.46,0,0,0-3.46-3.64c-1.19-.05-2.37,0-3.56,0a3.3,3.3,0,0,0-3.31,2.69A31.37,31.37,0,0,0,44.31,149.87Z"/><path class="cls-3" d="M83.59,140.84A3.8,3.8,0,0,1,79.76,137a3.83,3.83,0,1,1,3.83,3.83Zm2-3.79a2,2,0,1,0-2,2A2,2,0,0,0,85.57,137.05Z"/><path class="cls-3" d="M70.34,137a3.83,3.83,0,1,1-7.66,0,3.89,3.89,0,0,1,3.83-3.8A3.85,3.85,0,0,1,70.34,137Zm-3.84,2a2,2,0,1,0-2-2A2,2,0,0,0,66.5,139Z"/><path class="cls-3" d="M53.28,137.06a3.82,3.82,0,0,1-7.64,0,3.82,3.82,0,1,1,7.64,0Zm-1.85,0a2,2,0,0,0-2-2,2,2,0,1,0,0,4A2,2,0,0,0,51.43,137Z"/><path class="cls-3" d="M66.5,176.12H60.66c-.91,0-1.21-.28-1.21-1.18,0-1.54-.06-3.09.07-4.62a5.17,5.17,0,0,1,5.17-4.71h3.63a5.29,5.29,0,0,1,5.27,5.25c0,1.32,0,2.65,0,4,0,1-.28,1.28-1.26,1.28Zm5.26-1.85c0-1.07,0-2.09,0-3.1a4.52,4.52,0,0,0,0-.64,3.5,3.5,0,0,0-3.36-3.09c-1.23,0-2.47,0-3.7,0a3.24,3.24,0,0,0-3.2,2.46,36.7,36.7,0,0,0-.3,4.37Z"/><path class="cls-3" d="M66.51,165.21a3.82,3.82,0,1,1,3.83-3.82A3.78,3.78,0,0,1,66.51,165.21Zm2-3.84a2,2,0,0,0-4,0,2,2,0,0,0,2,2A2,2,0,0,0,68.51,161.37Z"/><path class="cls-3" d="M256,184.31a5.87,5.87,0,0,1,1.55-3.16,4.71,4.71,0,0,1,3.3-1.38q21.54,0,43.08,0a4.9,4.9,0,0,1,0,9.79c-4.17,0-8.34,0-12.51,0H261.56c-3.17,0-4.8-1.31-5.48-4.43,0,0-.05-.07-.08-.11Zm44.63,3.37h3.12a3.86,3.86,0,0,0,.49-.06,3,3,0,0,0,2.6-2.91,2.92,2.92,0,0,0-2.51-3,31.21,31.21,0,0,0-3.62,0C302.37,184.31,302.37,185.25,300.63,187.68Zm-31.84-.05h5.83a4.07,4.07,0,0,1,0-5.93h-5.79A4.11,4.11,0,0,1,268.79,187.63Zm-5.19-5.94a28.77,28.77,0,0,0-2.94,0,3,3,0,0,0,0,5.9,26.18,26.18,0,0,0,2.94,0C261.92,185.17,261.92,184.29,263.6,181.69Zm31.94,5.95a4.21,4.21,0,0,1-1.32-3,4.28,4.28,0,0,1,1.3-3h-5.26c1.68,2.73,1.68,3.15,0,5.95Zm-15.79-6a4.08,4.08,0,0,1,0,5.95h5.3a4.06,4.06,0,0,1,0-5.95Zm18.28,1a1.95,1.95,0,0,0,.05,3.89,1.95,1.95,0,1,0-.05-3.89Zm-10.41,3.89a1.95,1.95,0,1,0-1.93-1.94A2,2,0,0,0,287.62,186.61Zm-10.43,0a1.95,1.95,0,1,0-2-1.93A2,2,0,0,0,277.19,186.61Zm-11,0a1.95,1.95,0,1,0-1.9-2A1.94,1.94,0,0,0,266.19,186.61Z"/><path class="cls-3" d="M312.94,134.86h-8.6c0,.26,0,.49,0,.71,0,2.85,0,5.7,0,8.55a1.81,1.81,0,0,0,.44,1.1c2.58,2.87,5.18,5.71,7.81,8.6-1,1-1.95,2-2.93,2.94-1.63,1.59-3.29,3.17-4.9,4.78a1.69,1.69,0,0,0-.42,1c-.05,1.38,0,2.77,0,4.2H291.72a14.81,14.81,0,0,1,0-2.21,4.52,4.52,0,0,0-1.8-4.38c-2.26-2-4.34-4.18-6.55-6.33l4.23-4.63c1.25-1.37,2.51-2.74,3.75-4.13a1.24,1.24,0,0,0,.34-.72c0-3.13,0-6.26,0-9.45h-7.17v3.53L276.83,134l7.67-4.43V133h.91c3.63,0,7.25,0,10.88,0,5.32,0,10.63,0,15.95,0,.24,0,.47.05.7.07Zm-3.18,18.73-5.32-5.81-.16.06v1.93H291.7v-2.16l-5.37,5.89,5.25,5.65.16-.07v-4.82h12.58v4.83l.19.1Zm-7.45-5.74V134.9h-8.66v12.95Zm-8.66,8.36v8.67h8.68v-8.67Z"/><path class="cls-3" d="M260.16,176.36v-12.5H272.7v12.5Zm1.92-2h8.71v-8.66h-8.71Z"/><path class="cls-3" d="M288.47,176.38H276V163.85h12.5Zm-1.92-2v-8.69h-8.66v8.69Z"/><path class="cls-3" d="M191.45,68.14V64.89L199,69.12l-7.54,4.24V70H147.75V29.32h52.13v.9c0,8,0,15.91,0,23.87a1,1,0,0,0,.69,1.07,3.57,3.57,0,0,1,2.1,4.08,3.83,3.83,0,0,1-7.46,0,3.67,3.67,0,0,1,2.16-4.07c.38-.17.65-.27.65-.81q0-11.32,0-22.67a4.77,4.77,0,0,0,0-.51H149.62v37Zm9.46-9.66A2,2,0,0,0,199,56.57a1.92,1.92,0,0,0-2,1.93,2,2,0,0,0,1.92,1.91A2,2,0,0,0,200.91,58.48Z"/><path class="cls-3" d="M151.74,66.38v-27H196.1V52.53h-1.78V41.2H153.64V64.59h33.19v1.79Z"/><path class="cls-3" d="M180.11,58.05l-.71-2L187,53.54l-7.15-3.43.95-1.89c.24.1.45.18.65.28l8.54,4.07c.53.25,1,.53,1,1.21s-.56.89-1.12,1.08c-3,1-6.08,2-9.12,3C180.52,57.94,180.34,58,180.11,58.05Z"/><path class="cls-3" d="M167,48.2l1,1.92-7.15,3.41L168.3,56l-.7,2-2.66-.87-7-2.33c-.56-.19-1.07-.4-1.1-1.09s.4-.94.92-1.18Z"/><path class="cls-3" d="M172.53,61.51l-2.12-.59,5-16.68,2.12.57Z"/><path class="cls-3" d="M163.55,35.33a2.51,2.51,0,0,1,2.6-2.46,2.5,2.5,0,1,1-.06,5A2.5,2.5,0,0,1,163.55,35.33Zm2.74-.73H166c-.19.26-.53.52-.53.78s.38.56.64.63a.55.55,0,0,0,.69-.64C166.75,35.09,166.46,34.85,166.29,34.6Z"/><path class="cls-3" d="M160.17,37.86a2.5,2.5,0,1,1,2.61-2.46A2.5,2.5,0,0,1,160.17,37.86Zm.83-2.3v-.31c-.25-.18-.47-.47-.75-.52a.55.55,0,0,0-.72.61.93.93,0,0,0,.61.64C160.41,36,160.71,35.72,161,35.56Z"/><path class="cls-3" d="M154.26,37.86a2.5,2.5,0,1,1,2.6-2.46A2.52,2.52,0,0,1,154.26,37.86Zm.84-2.4v-.3c-.29-.15-.59-.44-.86-.41a.94.94,0,0,0-.6.65.55.55,0,0,0,.73.6C154.63,35.94,154.85,35.65,155.1,35.46Z"/></svg>