<svg id="Layer_1" data-name="Layer 1" xmlns="http://www.w3.org/2000/svg" viewBox="0 0 350 350"><defs><style>.cls-1{fill:#a8d7cd;}.cls-2{fill:#d8e7da;}.cls-3{fill:#00b28f;}.cls-4{fill:#fff;}</style></defs><title>master-data-management</title><path class="cls-1" d="M321.82,256.93l6,3.43a175.46,175.46,0,0,0,14.83-135.78h0c-.74-2.47-1.53-4.91-2.38-7.34A175.09,175.09,0,0,0,178.87,0h-1.61V7.1h-5V0h-1.12A175.08,175.08,0,0,0,9.76,117.24q-1.28,3.65-2.39,7.35a175.45,175.45,0,0,0,15,136L28,257.36c.81,1.45,1.65,2.9,2.5,4.32l-5.58,3.23A175.81,175.81,0,0,0,69,314.27q3.07,2.36,6.25,4.55a175.08,175.08,0,0,0,199.45,0c2.12-1.47,4.2-3,6.25-4.55a175.74,175.74,0,0,0,44.3-49.59l-5.95-3.42C320.18,259.83,321,258.38,321.82,256.93Z"/><path class="cls-2" d="M342.91,175a167.64,167.64,0,0,1-66.22,133.63q-3,2.25-6,4.36a168,168,0,0,1-191.38,0q-3-2.12-6-4.37a168.22,168.22,0,0,1-59.17-182c.72-2.37,1.48-4.72,2.3-7A168,168,0,0,1,171.3,7.12h7.41A168,168,0,0,1,333.55,119.57q1.21,3.48,2.29,7h0A167.94,167.94,0,0,1,342.91,175Z"/><path class="cls-3" d="M172.26,7.12A168.2,168.2,0,0,0,27.93,257.35l144.33-83.52Z"/><path class="cls-3" d="M321.82,256.93A168.21,168.21,0,0,0,177.26,7.12V173.83Z"/><path class="cls-3" d="M30.43,261.67a168.24,168.24,0,0,0,288.9-.41l-144.57-83.1Z"/><path class="cls-2" d="M238.16,175a63,63,0,0,1-24.91,50.26c-.74.56-1.49,1.11-2.26,1.64a63.16,63.16,0,0,1-72,0c-.76-.53-1.52-1.07-2.25-1.64a63.23,63.23,0,0,1-22.26-68.45c.27-.89.56-1.78.87-2.66a63.17,63.17,0,0,1,58.24-42.29h2.79a63.16,63.16,0,0,1,58.23,42.29c.31.88.6,1.76.86,2.65h0A63,63,0,0,1,238.16,175Z"/><path class="cls-4" d="M253,159.93v-8.09h1.68l2.09,3.47a23.91,23.91,0,0,1,1.38,2.71h0c-.1-1.08-.13-2.12-.13-3.36v-2.82h1.37v8.09h-1.53l-2.11-3.55a29.75,29.75,0,0,1-1.45-2.8l0,0c.06,1,.08,2.11.08,3.44v2.89Z"/><path class="cls-4" d="M262.06,157.42c0,1.06.86,1.51,1.8,1.51a4.3,4.3,0,0,0,1.61-.26l.22,1a5.57,5.57,0,0,1-2,.36,2.77,2.77,0,0,1-3-3A2.89,2.89,0,0,1,263.5,154c1.89,0,2.51,1.55,2.51,2.84a4.32,4.32,0,0,1,0,.62Zm2.56-1a1.26,1.26,0,0,0-1.21-1.43,1.44,1.44,0,0,0-1.35,1.43Z"/><path class="cls-4" d="M268.9,152.42v1.67h1.4v1.1h-1.4v2.58c0,.71.19,1.08.75,1.08a2.61,2.61,0,0,0,.58-.07l0,1.12a3,3,0,0,1-1.07.15,1.71,1.71,0,0,1-1.27-.48,2.34,2.34,0,0,1-.45-1.63v-2.75h-.84v-1.1h.84v-1.32Z"/><path class="cls-4" d="M272.3,154.09l.62,2.65c.13.62.26,1.26.37,1.89h0c.12-.63.31-1.28.48-1.88l.76-2.66h1.2l.73,2.59c.18.68.33,1.32.47,1.95h0c.1-.63.23-1.27.38-1.95l.65-2.59h1.45l-1.83,5.84h-1.37l-.7-2.38c-.17-.61-.31-1.16-.44-1.87h0a14.71,14.71,0,0,1-.45,1.87l-.74,2.38h-1.38l-1.73-5.84Z"/><path class="cls-4" d="M286,157a2.89,2.89,0,0,1-3,3.11,2.82,2.82,0,0,1-2.93-3,2.88,2.88,0,0,1,3-3.09A2.8,2.8,0,0,1,286,157Zm-4.4.06c0,1.13.55,2,1.45,2s1.42-.82,1.42-2c0-.91-.4-2-1.41-2S281.56,156,281.56,157Z"/><path class="cls-4" d="M287.17,156c0-.79,0-1.35,0-1.88h1.28l0,1.11h0a1.76,1.76,0,0,1,1.6-1.24,1.9,1.9,0,0,1,.35,0v1.39a2.31,2.31,0,0,0-.43,0,1.3,1.3,0,0,0-1.32,1.12,2.09,2.09,0,0,0-.05.46v3h-1.48Z"/><path class="cls-4" d="M292.92,156.65h0c.15-.22.32-.48.47-.68l1.42-1.88h1.77l-2.16,2.38,2.47,3.46H295.1l-1.68-2.58-.5.59v2h-1.48v-8.52h1.48Z"/><path class="cls-4" d="M301,154.09l.95,3a13.28,13.28,0,0,1,.39,1.46h0c.11-.48.24-.93.4-1.46l.92-3h1.56L303,159.93h-1.45l-2.17-5.84Z"/><path class="cls-4" d="M307.7,152.46a.78.78,0,0,1-.84.79.77.77,0,0,1-.81-.79.83.83,0,0,1,1.65,0Zm-1.57,7.47v-5.84h1.49v5.84Z"/><path class="cls-4" d="M310.25,157.42c0,1.06.86,1.51,1.8,1.51a4.39,4.39,0,0,0,1.62-.26l.21,1a5.57,5.57,0,0,1-2,.36,2.77,2.77,0,0,1-3-3,2.89,2.89,0,0,1,2.86-3.14c1.89,0,2.52,1.55,2.52,2.84a4,4,0,0,1,0,.62Zm2.56-1A1.25,1.25,0,0,0,311.6,155a1.44,1.44,0,0,0-1.35,1.43Z"/><path class="cls-4" d="M316.28,154.09l.62,2.65c.13.62.26,1.26.37,1.89h0c.12-.63.31-1.28.48-1.88l.76-2.66h1.2l.73,2.59c.18.68.33,1.32.46,1.95h0c.09-.63.23-1.27.38-1.95l.65-2.59h1.45l-1.83,5.84h-1.37l-.7-2.38a17.18,17.18,0,0,1-.44-1.87h0a14.71,14.71,0,0,1-.45,1.87l-.74,2.38H316.5l-1.73-5.84Z"/><path class="cls-4" d="M24,151.54a4.15,4.15,0,0,0,1.95.51c.95,0,1.48-.44,1.48-1.1S27,150,26,149.6c-1.33-.48-2.19-1.18-2.19-2.35,0-1.32,1.11-2.32,2.86-2.32a4.37,4.37,0,0,1,1.94.4l-.36,1.19a3.5,3.5,0,0,0-1.6-.38c-.94,0-1.35.5-1.35,1s.47.91,1.55,1.33c1.4.53,2.09,1.24,2.09,2.4s-1,2.42-3.07,2.42a4.88,4.88,0,0,1-2.19-.5Z"/><path class="cls-4" d="M31.78,145.67a.78.78,0,0,1-.84.79.77.77,0,0,1-.81-.79.83.83,0,0,1,1.65,0Zm-1.57,7.47V147.3H31.7v5.84Z"/><path class="cls-4" d="M33.28,149c0-.67,0-1.23-.05-1.74h1.3l.07.88h0a2.1,2.1,0,0,1,1.86-1c1,0,2.07.66,2.07,2.51v3.46H37.1v-3.3c0-.84-.31-1.47-1.12-1.47a1.24,1.24,0,0,0-1.15.86,1.44,1.44,0,0,0-.06.48v3.43H33.28Z"/><path class="cls-4" d="M45.48,147.3c0,.4,0,.88,0,1.68v3.31a3.39,3.39,0,0,1-.87,2.65,3.35,3.35,0,0,1-2.25.71,4.13,4.13,0,0,1-2-.47l.32-1.11a3.61,3.61,0,0,0,1.71.44A1.54,1.54,0,0,0,44,152.75v-.51h0a2,2,0,0,1-1.7.87,2.59,2.59,0,0,1-2.48-2.86,2.79,2.79,0,0,1,2.65-3.08,1.85,1.85,0,0,1,1.69.91h0l.06-.78ZM44,149.64a1.33,1.33,0,0,0-.05-.4,1.21,1.21,0,0,0-1.2-.94c-.82,0-1.44.72-1.44,1.9,0,1,.51,1.8,1.43,1.8a1.27,1.27,0,0,0,1.2-.88,2.33,2.33,0,0,0,.06-.53Z"/><path class="cls-4" d="M47,144.63h1.49v8.51H47Z"/><path class="cls-4" d="M51.15,150.64a1.59,1.59,0,0,0,1.8,1.51,4.38,4.38,0,0,0,1.62-.27l.21,1a5.35,5.35,0,0,1-2,.36,2.77,2.77,0,0,1-3-2.95,2.89,2.89,0,0,1,2.86-3.14A2.54,2.54,0,0,1,55.11,150a4.18,4.18,0,0,1,0,.63Zm2.57-1a1.25,1.25,0,0,0-1.22-1.42,1.43,1.43,0,0,0-1.35,1.42Z"/><path class="cls-4" d="M59.72,147.3l1,3c.16.52.28,1,.39,1.47h0c.11-.48.24-.94.39-1.47l.93-3H64l-2.24,5.84H60.29l-2.17-5.84Z"/><path class="cls-4" d="M65.92,150.64a1.59,1.59,0,0,0,1.8,1.51,4.34,4.34,0,0,0,1.62-.27l.22,1a5.41,5.41,0,0,1-2,.36,2.76,2.76,0,0,1-3-2.95,2.89,2.89,0,0,1,2.85-3.14c1.9,0,2.52,1.56,2.52,2.84a3.17,3.17,0,0,1,0,.63Zm2.57-1a1.25,1.25,0,0,0-1.21-1.42,1.44,1.44,0,0,0-1.36,1.42Z"/><path class="cls-4" d="M71.07,149.18c0-.79,0-1.35,0-1.88h1.29l0,1.12h.05a1.74,1.74,0,0,1,1.6-1.25,1.22,1.22,0,0,1,.34,0v1.39a1.69,1.69,0,0,0-.43,0,1.3,1.3,0,0,0-1.32,1.11,3.08,3.08,0,0,0,0,.46v3H71.07Z"/><path class="cls-4" d="M75.27,151.79a3.35,3.35,0,0,0,1.5.42c.65,0,.94-.27.94-.65s-.25-.6-1-.85c-1.14-.4-1.62-1-1.61-1.71a2,2,0,0,1,2.2-1.83,3.41,3.41,0,0,1,1.55.35l-.29,1a2.66,2.66,0,0,0-1.23-.34c-.53,0-.82.26-.82.62s.28.55,1,.81c1.06.39,1.55.93,1.56,1.79,0,1.05-.83,1.82-2.37,1.82a3.77,3.77,0,0,1-1.78-.41Z"/><path class="cls-4" d="M81.92,145.67a.83.83,0,1,1-.83-.8A.79.79,0,0,1,81.92,145.67Zm-1.57,7.47V147.3h1.48v5.84Z"/><path class="cls-4" d="M89,150.17a2.89,2.89,0,0,1-3,3.1,2.82,2.82,0,0,1-2.92-3,2.88,2.88,0,0,1,3-3.09A2.8,2.8,0,0,1,89,150.17Zm-4.4.06c0,1.12.55,2,1.45,2s1.43-.83,1.43-2c0-.91-.41-1.95-1.42-1.95S84.57,149.26,84.57,150.23Z"/><path class="cls-4" d="M90.19,149c0-.67,0-1.23,0-1.74h1.29l.07.88h0a2.1,2.1,0,0,1,1.86-1c1,0,2.07.66,2.07,2.51v3.46H94v-3.3c0-.84-.31-1.47-1.12-1.47a1.25,1.25,0,0,0-1.15.86,1.75,1.75,0,0,0-.06.48v3.43H90.19Z"/><path class="cls-4" d="M36.46,162.17a2.89,2.89,0,0,1-3,3.1,2.82,2.82,0,0,1-2.92-3,2.87,2.87,0,0,1,3-3.09A2.8,2.8,0,0,1,36.46,162.17Zm-4.4.06c0,1.12.55,2,1.45,2s1.43-.83,1.43-2c0-.91-.41-1.95-1.42-1.95S32.06,161.26,32.06,162.23Z"/><path class="cls-4" d="M37.84,165.14V160.4h-.79v-1.1h.79v-.25a2.74,2.74,0,0,1,.71-2,2.22,2.22,0,0,1,1.52-.57,2.7,2.7,0,0,1,1,.15l-.11,1.14a1.68,1.68,0,0,0-.62-.11c-.73,0-1,.61-1,1.33v.3h1.28v1.1H39.32v4.74Z"/><path class="cls-4" d="M45.68,157.63v1.67h1.4v1.1h-1.4V163c0,.71.19,1.08.75,1.08A2,2,0,0,0,47,164l0,1.13a3.33,3.33,0,0,1-1.06.14,1.73,1.73,0,0,1-1.28-.48,2.32,2.32,0,0,1-.45-1.63V160.4H43.4v-1.1h.84V158Z"/><path class="cls-4" d="M48.2,156.63h1.49v3.47h0a2.05,2.05,0,0,1,.73-.67,2.1,2.1,0,0,1,1-.26c1,0,2,.66,2,2.53v3.44H52v-3.27c0-.85-.31-1.49-1.13-1.49a1.19,1.19,0,0,0-1.13.83,1.17,1.17,0,0,0-.06.44v3.49H48.2Z"/><path class="cls-4" d="M56.11,162.64a1.58,1.58,0,0,0,1.8,1.51,4.28,4.28,0,0,0,1.61-.27l.22,1a5.37,5.37,0,0,1-2,.36,2.76,2.76,0,0,1-3-2.95,2.89,2.89,0,0,1,2.85-3.14c1.9,0,2.52,1.56,2.52,2.84a4.49,4.49,0,0,1,0,.63Zm2.56-1a1.25,1.25,0,0,0-1.21-1.42,1.43,1.43,0,0,0-1.35,1.42Z"/><path class="cls-4" d="M65.43,157.63v1.67h1.4v1.1h-1.4V163c0,.71.19,1.08.76,1.08a2,2,0,0,0,.57-.07l0,1.13a3.4,3.4,0,0,1-1.07.14,1.69,1.69,0,0,1-1.27-.48,2.27,2.27,0,0,1-.46-1.63V160.4h-.84v-1.1H64V158Z"/><path class="cls-4" d="M68,161.18c0-.79,0-1.35,0-1.88h1.29l0,1.12h0a1.74,1.74,0,0,1,1.6-1.25,1.22,1.22,0,0,1,.34,0v1.39a1.69,1.69,0,0,0-.43,0,1.3,1.3,0,0,0-1.32,1.11,3.15,3.15,0,0,0,0,.46v3H68Z"/><path class="cls-4" d="M77.45,163.39c0,.7,0,1.27,0,1.75H76.2l-.07-.89h0a2.11,2.11,0,0,1-1.87,1c-1.07,0-2-.63-2-2.54V159.3h1.47v3.18c0,1,.32,1.59,1.09,1.59A1.26,1.26,0,0,0,76,162.83V159.3h1.47Z"/><path class="cls-4" d="M80.74,157.63v1.67h1.4v1.1h-1.4V163c0,.71.19,1.08.76,1.08a2,2,0,0,0,.57-.07l0,1.13a3.4,3.4,0,0,1-1.07.14,1.69,1.69,0,0,1-1.27-.48,2.32,2.32,0,0,1-.46-1.63V160.4h-.84v-1.1h.84V158Z"/><path class="cls-4" d="M83.26,156.63h1.49v3.47h0a2.05,2.05,0,0,1,.73-.67,2.1,2.1,0,0,1,1-.26c1,0,2,.66,2,2.53v3.44H87.08v-3.27c0-.85-.32-1.49-1.13-1.49a1.19,1.19,0,0,0-1.14.83,1.17,1.17,0,0,0-.06.44v3.49H83.26Z"/><path class="cls-4" d="M184.27,277.46a5.32,5.32,0,0,1-2.09.36,3.82,3.82,0,0,1-4.12-4.07,4.06,4.06,0,0,1,4.32-4.27,4.55,4.55,0,0,1,2,.36L184,271a4.1,4.1,0,0,0-1.59-.31,2.69,2.69,0,0,0-2.83,3,2.66,2.66,0,0,0,2.82,2.91,4.13,4.13,0,0,0,1.61-.3Z"/><path class="cls-4" d="M186.52,275.19a1.58,1.58,0,0,0,1.8,1.51,4.51,4.51,0,0,0,1.61-.26l.22,1a5.57,5.57,0,0,1-2,.36,2.77,2.77,0,0,1-3-3,2.89,2.89,0,0,1,2.86-3.14c1.89,0,2.51,1.56,2.51,2.84a4.37,4.37,0,0,1,0,.63Zm2.56-1a1.25,1.25,0,0,0-1.21-1.43,1.44,1.44,0,0,0-1.35,1.43Z"/><path class="cls-4" d="M191.66,273.59c0-.67,0-1.23,0-1.74h1.29l.07.88h0a2.1,2.1,0,0,1,1.86-1c1,0,2.07.66,2.07,2.51v3.47h-1.47v-3.3c0-.84-.31-1.48-1.12-1.48a1.25,1.25,0,0,0-1.15.87,1.41,1.41,0,0,0-.06.47v3.44h-1.49Z"/><path class="cls-4" d="M200.22,270.19v1.66h1.4V273h-1.4v2.58c0,.7.19,1.08.76,1.08a1.93,1.93,0,0,0,.57-.08l0,1.13a3.35,3.35,0,0,1-1.07.15,1.7,1.7,0,0,1-1.27-.49,2.27,2.27,0,0,1-.46-1.63V273h-.84v-1.11h.84v-1.31Z"/><path class="cls-4" d="M202.74,273.74c0-.79,0-1.36-.05-1.89H204l0,1.12h0a1.74,1.74,0,0,1,1.6-1.25,1.22,1.22,0,0,1,.34,0v1.39a2.31,2.31,0,0,0-.43,0,1.32,1.32,0,0,0-1.32,1.12,2.89,2.89,0,0,0,0,.45v3h-1.48Z"/><path class="cls-4" d="M210.3,277.7l-.1-.65h0a2.19,2.19,0,0,1-1.73.78,1.73,1.73,0,0,1-1.84-1.74c0-1.48,1.31-2.22,3.47-2.21v-.09c0-.39-.16-1-1.19-1a3.14,3.14,0,0,0-1.57.43l-.29-1a4.17,4.17,0,0,1,2.11-.52,2.19,2.19,0,0,1,2.42,2.46v2.11a9.59,9.59,0,0,0,.08,1.41Zm-.19-2.86c-1.05,0-2,.2-2,1.09a.77.77,0,0,0,.84.84,1.19,1.19,0,0,0,1.15-.8,1.32,1.32,0,0,0,.05-.33Z"/><path class="cls-4" d="M213.11,269.18h1.49v8.52h-1.49Z"/><path class="cls-4" d="M217.76,270.22a.78.78,0,0,1-.84.79.77.77,0,0,1-.81-.79.83.83,0,0,1,1.65,0Zm-1.57,7.48v-5.85h1.49v5.85Z"/><path class="cls-4" d="M218.71,276.84l2.2-2.8c.3-.36.55-.65.86-1v0h-2.84v-1.18h4.64v.9l-2.15,2.75c-.29.35-.56.68-.86,1v0h3.08v1.18h-4.93Z"/><path class="cls-4" d="M225.71,275.19a1.58,1.58,0,0,0,1.8,1.51,4.61,4.61,0,0,0,1.62-.26l.21,1a5.57,5.57,0,0,1-2,.36,2.77,2.77,0,0,1-3-3,2.9,2.9,0,0,1,2.86-3.14,2.54,2.54,0,0,1,2.52,2.84,4.06,4.06,0,0,1,0,.63Zm2.56-1a1.25,1.25,0,0,0-1.21-1.43,1.44,1.44,0,0,0-1.35,1.43Z"/><path class="cls-4" d="M236.24,269.18v6.87c0,.6,0,1.25,0,1.65H235l-.06-.93h0a2.11,2.11,0,0,1-1.91,1.06c-1.39,0-2.5-1.19-2.5-3s1.22-3.12,2.62-3.12a1.86,1.86,0,0,1,1.64.77h0v-3.31Zm-1.47,5.11a2.45,2.45,0,0,0,0-.38,1.29,1.29,0,0,0-1.27-1.05c-1,0-1.48.84-1.48,1.93s.53,1.85,1.47,1.85a1.31,1.31,0,0,0,1.27-1,2,2,0,0,0,.05-.44Z"/><path class="cls-4" d="M181.33,285.74c0-.79,0-1.36,0-1.89h1.28l.05,1.12h0a1.75,1.75,0,0,1,1.6-1.25,1.29,1.29,0,0,1,.35,0v1.39a2.31,2.31,0,0,0-.43,0,1.3,1.3,0,0,0-1.32,1.12,2,2,0,0,0-.05.45v3h-1.48Z"/><path class="cls-4" d="M186.65,287.19a1.58,1.58,0,0,0,1.8,1.51,4.61,4.61,0,0,0,1.62-.26l.21,1a5.57,5.57,0,0,1-2,.36,2.77,2.77,0,0,1-3-3,2.9,2.9,0,0,1,2.86-3.14,2.54,2.54,0,0,1,2.52,2.84,4.06,4.06,0,0,1-.05.63Zm2.56-1a1.25,1.25,0,0,0-1.21-1.43,1.44,1.44,0,0,0-1.35,1.43Z"/><path class="cls-4" d="M191.8,285.8c0-.77,0-1.39-.05-1.95H193l.08.9h0a2.26,2.26,0,0,1,2-1c1.35,0,2.46,1.15,2.46,3,0,2.11-1.33,3.13-2.66,3.13a1.91,1.91,0,0,1-1.64-.78h0v3H191.8Zm1.47,1.45a1.44,1.44,0,0,0,0,.41,1.33,1.33,0,0,0,1.3,1c.93,0,1.48-.78,1.48-1.93s-.5-1.87-1.45-1.87a1.38,1.38,0,0,0-1.32,1.09,1.59,1.59,0,0,0-.06.37Z"/><path class="cls-4" d="M204.37,286.72a2.89,2.89,0,0,1-3,3.11,2.83,2.83,0,0,1-2.93-3,2.89,2.89,0,0,1,3-3.1A2.8,2.8,0,0,1,204.37,286.72Zm-4.4.06c0,1.13.55,2,1.45,2s1.43-.83,1.43-2c0-.92-.41-2-1.42-2S200,285.81,200,286.78Z"/><path class="cls-4" d="M205.51,288.34a3.35,3.35,0,0,0,1.5.42c.65,0,.94-.26.94-.65s-.24-.6-1-.85c-1.14-.4-1.62-1-1.61-1.7a2,2,0,0,1,2.21-1.84,3.36,3.36,0,0,1,1.54.35l-.28,1a2.71,2.71,0,0,0-1.24-.33c-.53,0-.81.25-.81.61s.27.55,1,.82c1.05.38,1.54.92,1.56,1.78,0,1.06-.83,1.83-2.38,1.83a3.8,3.8,0,0,1-1.78-.41Z"/><path class="cls-4" d="M212.16,282.22a.83.83,0,0,1-1.66,0,.83.83,0,0,1,1.66,0Zm-1.57,7.48v-5.85h1.49v5.85Z"/><path class="cls-4" d="M215.35,282.19v1.66h1.4V285h-1.4v2.58c0,.7.19,1.08.76,1.08a1.93,1.93,0,0,0,.57-.08l0,1.13a3.35,3.35,0,0,1-1.07.15,1.7,1.7,0,0,1-1.27-.49,2.32,2.32,0,0,1-.46-1.63V285h-.84v-1.11h.84v-1.31Z"/><path class="cls-4" d="M223.42,286.72a2.89,2.89,0,0,1-3,3.11,2.82,2.82,0,0,1-2.93-3,2.89,2.89,0,0,1,3-3.1A2.8,2.8,0,0,1,223.42,286.72Zm-4.4.06c0,1.13.56,2,1.45,2s1.43-.83,1.43-2c0-.92-.41-2-1.41-2S219,285.81,219,286.78Z"/><path class="cls-4" d="M224.64,285.74c0-.79,0-1.36,0-1.89h1.29l0,1.12H226a1.74,1.74,0,0,1,1.6-1.25,1.22,1.22,0,0,1,.34,0v1.39a2.31,2.31,0,0,0-.43,0,1.31,1.31,0,0,0-1.32,1.12,2.89,2.89,0,0,0,0,.45v3h-1.48Z"/><path class="cls-4" d="M229.84,283.85l1,3.13c.12.36.24.81.32,1.14h0c.1-.33.21-.76.31-1.15l.91-3.12h1.59l-1.47,4c-.8,2.18-1.34,3.15-2,3.75a2.93,2.93,0,0,1-1.54.76l-.34-1.25a2.5,2.5,0,0,0,.87-.41,2.62,2.62,0,0,0,.8-.92.6.6,0,0,0,.1-.27.65.65,0,0,0-.09-.28l-2.13-5.37Z"/><path class="cls-4" d="M195.45,298.72a2.89,2.89,0,0,1-3,3.11,2.82,2.82,0,0,1-2.93-3,2.89,2.89,0,0,1,3-3.1A2.81,2.81,0,0,1,195.45,298.72Zm-4.4.06c0,1.13.55,2,1.45,2s1.42-.83,1.42-2c0-.92-.4-2-1.41-2S191.05,297.81,191.05,298.78Z"/><path class="cls-4" d="M196.83,301.7V297H196v-1.11h.79v-.25a2.71,2.71,0,0,1,.71-2,2.21,2.21,0,0,1,1.52-.56,3,3,0,0,1,.95.14l-.11,1.14a1.68,1.68,0,0,0-.62-.11c-.73,0-1,.61-1,1.33v.3h1.29V297h-1.27v4.74Z"/><path class="cls-4" d="M208.36,293.18v6.87c0,.6,0,1.25,0,1.65h-1.32l-.06-.93h0a2.08,2.08,0,0,1-1.9,1.06c-1.39,0-2.5-1.19-2.5-3s1.21-3.12,2.62-3.12a1.86,1.86,0,0,1,1.64.77h0v-3.31Zm-1.48,5.11a2.43,2.43,0,0,0,0-.38,1.29,1.29,0,0,0-1.27-1.05c-1,0-1.48.84-1.48,1.93s.53,1.85,1.46,1.85a1.32,1.32,0,0,0,1.28-1,2.06,2.06,0,0,0,0-.44Z"/><path class="cls-4" d="M213.23,301.7l-.09-.65h0a2.19,2.19,0,0,1-1.73.78,1.73,1.73,0,0,1-1.83-1.74c0-1.48,1.31-2.22,3.46-2.21v-.09c0-.39-.15-1-1.18-1a3.08,3.08,0,0,0-1.57.43l-.29-1a4.14,4.14,0,0,1,2.11-.52,2.19,2.19,0,0,1,2.41,2.46v2.11a9.59,9.59,0,0,0,.08,1.41Zm-.19-2.86c-1,0-2,.2-2,1.09a.77.77,0,0,0,.84.84A1.19,1.19,0,0,0,213,300a1,1,0,0,0,0-.33Z"/><path class="cls-4" d="M217.73,294.19v1.66h1.41V297h-1.41v2.58c0,.7.19,1.08.76,1.08a1.93,1.93,0,0,0,.57-.08l0,1.13a3.35,3.35,0,0,1-1.07.15,1.72,1.72,0,0,1-1.27-.49,2.32,2.32,0,0,1-.46-1.63V297h-.84v-1.11h.84v-1.31Z"/><path class="cls-4" d="M223.54,301.7l-.1-.65h0a2.19,2.19,0,0,1-1.73.78,1.73,1.73,0,0,1-1.83-1.74c0-1.48,1.3-2.22,3.46-2.21v-.09c0-.39-.15-1-1.18-1a3.14,3.14,0,0,0-1.58.43l-.28-1a4.11,4.11,0,0,1,2.11-.52,2.19,2.19,0,0,1,2.41,2.46v2.11a9.59,9.59,0,0,0,.08,1.41Zm-.19-2.86c-1,0-2,.2-2,1.09a.77.77,0,0,0,.84.84,1.19,1.19,0,0,0,1.15-.8,1,1,0,0,0,0-.33Z"/><path class="cls-4" d="M290.12,98.78a3.08,3.08,0,0,1-3.47,2.28c-2-.09-4.1,0-6.19,0v2l1.28.07v2h-10.3v-2l1.28-.08v-2c-.24,0-.48,0-.72,0h-6a2.72,2.72,0,0,1-2.91-2.9c0-1.82,0-3.64,0-5.52h-5.9v.65c0,1.64,0,3.28,0,4.92A2.69,2.69,0,0,1,254.3,101h-6.74v2l1.27.1v2H238.51v-2l1.29-.08v-2c-.23,0-.47,0-.71,0h-5.81c-1.82,0-2.64-.65-3.07-2.44,0,0-.06-.06-.09-.09V82.65c.79-2.16,1.27-2.48,3.67-2.48h20.5a2.66,2.66,0,0,1,2.89,2.89v7.36h5.9v-.8c0-2.18,0-4.37,0-6.56a2.69,2.69,0,0,1,2.9-2.89h21.26a2.64,2.64,0,0,1,2.75,2,1.59,1.59,0,0,0,.13.22Zm-13.5-16.56H266.24c-.94,0-1.11.16-1.11,1.12V97.82c0,1,.17,1.17,1.14,1.16l13.26,0c2.48,0,5,0,7.44,0,.9,0,1.07-.18,1.08-1.08V83.27c0-.87-.19-1-1-1Zm-32.89,0H233.34c-1,0-1.06.08-1.06,1V97.89c0,1,.11,1.1,1.1,1.09l12.91,0c2.52,0,5.05,0,7.58,0,1.16,0,1.26-.1,1.26-1.23V83.41c0-1.09-.1-1.19-1.15-1.19Zm-1.79,18.9V103h3.46v-1.87Zm32.93,0V103h3.44v-1.9Z"/><path class="cls-4" d="M264.19,131.06v2h1.28v2H255.18v-2h1.27v-2.07h-6.89a2.61,2.61,0,0,1-2.69-2.67c0-1.62,0-3.24,0-4.85v-.8h-9.35v-6.67h-3.77l4.81-8.25,4.7,8.22h-3.66v4.55h7.24c0-.24,0-.48,0-.72V113a2.66,2.66,0,0,1,2.87-2.85h5.81a.67.67,0,0,0,.75-.49,4.12,4.12,0,0,1,7.7,0,.67.67,0,0,0,.77.47h6.15a2.7,2.7,0,0,1,2.92,2.94v7.48h6.92V116.1H277c1.65-2.84,3.22-5.52,4.83-8.28l4.7,8.23h-3.67v6.65h-9.05v1.57c0,1.34,0,2.69,0,4a2.66,2.66,0,0,1-2.76,2.76ZM260.32,129h10.46c.79,0,1-.19,1-.94v-14.9c0-.74-.19-.92-.94-.92h-6.15a.63.63,0,0,0-.7.46,4,4,0,0,1-3.87,2.63,3.92,3.92,0,0,1-3.81-2.6.69.69,0,0,0-.76-.49H250c-.89,0-1,.14-1,1V128c0,.89.15,1,1,1Zm-.21-15.74a2.07,2.07,0,1,0,.06-4.14,2.07,2.07,0,1,0-.06,4.14ZM258.61,133h3.46v-1.9h-3.46Z"/><path class="cls-4" d="M143.07,289.56v-5.78c0-1.4,0-2.8,0-4.2,0-1,.26-1.25,1.27-1.26,1.51,0,3-.06,4.54-.06a.67.67,0,0,0,.76-.53,3.72,3.72,0,0,1,6.92-.07.71.71,0,0,0,.83.53,4.76,4.76,0,0,0,4.33-5.31,4.08,4.08,0,0,0-3.91-3.88c-.87-.1-1.18-.78-.67-1.53a2.9,2.9,0,0,0,.43-2.5,2.69,2.69,0,0,0-4-1.47,4.29,4.29,0,0,0-.84.63,1,1,0,0,1-1.35.2.91.91,0,0,1-.23-1.26,5.48,5.48,0,0,0,.36-3.34,6.08,6.08,0,0,0-5.2-4.77,5.54,5.54,0,0,0-6,3,1.4,1.4,0,0,1-1.37.68,6,6,0,0,0-5.48,4.66,10.56,10.56,0,0,0-.13,1.13,1,1,0,0,1-1,.94,9.87,9.87,0,0,0-1.88.33c-4.87,1.46-5.46,7.85-2,10.91a6.15,6.15,0,0,0,3.69,1.69V275l7.57,4.22-7.52,4.2v-3.29a8.56,8.56,0,0,1-7.77-8.83c.11-4.06,2.53-6.76,7.07-7.76a7.64,7.64,0,0,1,2.86-5,8.36,8.36,0,0,1,3.93-1.7,1.22,1.22,0,0,0,.74-.41A8,8,0,0,1,153.45,261v.51a4.79,4.79,0,0,1,4.82,1.1,4.59,4.59,0,0,1,1,4.77c.12.06.21.13.31.17,4.33,1.46,5.23,7.17,2.29,10.33a5.7,5.7,0,0,1-4.62,2.1.87.87,0,0,0-.91.58,3.73,3.73,0,0,1-6.51,0,.89.89,0,0,0-.93-.53c-1.3,0-2.59,0-3.94,0v9.5c1.58.15,3.14.22,4.67.48a28,28,0,0,1,4.17,1.08,2.57,2.57,0,0,1,1.84,2.77c-.07,5-.06,10,0,15a2.41,2.41,0,0,1-1.61,2.55,18.72,18.72,0,0,1-3.66,1.07,36.25,36.25,0,0,1-14.45-.35,10.87,10.87,0,0,1-2.42-1,2.13,2.13,0,0,1-1.18-2.09c0-5.12,0-10.23,0-15.35a2.41,2.41,0,0,1,1.63-2.54,27.25,27.25,0,0,1,4.36-1.18C139.86,289.78,141.43,289.72,143.07,289.56Zm-8.84,11.08v1.17c0,2.57,0,2.59,2.51,3.14a35.31,35.31,0,0,0,12.84.32,25.85,25.85,0,0,0,3.62-1,.91.91,0,0,0,.57-.6c.06-1,0-2.06,0-3.05A36.33,36.33,0,0,1,134.23,300.64Zm0,5.46v1.25c0,2.57,0,2.59,2.51,3.14a35.09,35.09,0,0,0,12.84.32,24.06,24.06,0,0,0,3.61-1c.24-.08.57-.39.58-.61.06-1,0-2.05,0-3.13a29.22,29.22,0,0,1-9.8,1.39A28.87,28.87,0,0,1,134.23,306.1Zm19.57-10.81a28.55,28.55,0,0,1-9.78,1.4,29,29,0,0,1-9.79-1.39v.8c0,2.73,0,2.76,2.7,3.35a34.08,34.08,0,0,0,11.57.41,37,37,0,0,0,4.61-1.06.9.9,0,0,0,.71-1.06C153.76,297,153.8,296.18,153.8,295.29Zm0-2.23a19.82,19.82,0,0,0-2-.76,33,33,0,0,0-10.15-.78,22.05,22.05,0,0,0-6.13,1,13,13,0,0,0-1.21.58C137.55,295.45,150.94,295.42,153.78,293.06Zm-2.55-14.16a1.87,1.87,0,0,0,1.9,1.87,1.93,1.93,0,0,0,1.91-1.89,1.87,1.87,0,0,0-1.9-1.8A1.8,1.8,0,0,0,151.23,278.9Z"/><path class="cls-4" d="M86.46,86.14V80.62H83L87.42,73l4.44,7.58H88.41v5.57h.78c4.34,0,8.68,0,13,0,.57,0,.75.18.89.71,2.7,10.44,5.42,20.87,8.1,31.17a4.9,4.9,0,0,0-.62.86,8.27,8.27,0,0,1-15.3,0,5.91,5.91,0,0,0-.62-.89l7.79-29.89H88.37v.62q0,6.34,0,12.68a.73.73,0,0,0,.58.81,3.79,3.79,0,0,1,0,7.07c-.34.14-.55.25-.55.69q0,10.38,0,20.75c0,.13,0,.26,0,.46H98.54V133H76.3v-1.82H86.44c0-.28,0-.5,0-.72q0-10.17,0-20.34a.78.78,0,0,0-.57-.89,3.71,3.71,0,0,1-2.37-3.55,3.76,3.76,0,0,1,2.38-3.49c.32-.14.57-.21.56-.68,0-4.36,0-8.72,0-13.08,0-.11,0-.22,0-.36h-14c2.61,10,5.22,20,7.79,29.9a5.48,5.48,0,0,0-.64,1,8.28,8.28,0,0,1-15.26,0,5.16,5.16,0,0,0-.51-.8l-.18.06,2.58-9.94Q69,97.5,71.77,86.76c.13-.5.31-.63.81-.63,4.33,0,8.67,0,13,0Zm22.36,30.23Q105.9,105.14,103,94h-.14c-1.94,7.44-3.88,14.87-5.83,22.36ZM72,94l-.13,0L66,116.34H77.81C75.85,108.84,73.92,101.41,72,94ZM66.3,118.53c.59,2,3.21,3.63,5.73,3.58s5-1.69,5.5-3.58Zm31,0c.71,2.17,3.39,3.73,6,3.58,2.35-.13,4.83-1.83,5.21-3.58Zm-9.9-14.8a2,2,0,1,0,.08,4,2,2,0,1,0-.08-4Z"/></svg>