<svg id="Layer_1" data-name="Layer 1" xmlns="http://www.w3.org/2000/svg" width="100" height="100" viewBox="0 0 100 100"><title>media</title><path d="M0,10.11c.86,0,1.71.11,2.57.11H15.12v3.54H3.57V82H4.8q34.46,0,68.91,0a1.41,1.41,0,0,0,1.54-1,6.65,6.65,0,0,1,6.41-4.29,6.83,6.83,0,0,1,6.55,4.12c.17.34.28.7.44,1.1H96.3V13.83H39.85v6.34L25.7,12,39.8,3.85v6.37H98.44c.52,0,1,.07,1.56.11v75a9.82,9.82,0,0,1-1.31.18c-3,0-6,0-9,0a1.24,1.24,0,0,0-1.39.9,7.06,7.06,0,0,1-13,.25,1.63,1.63,0,0,0-1.79-1.16q-36.15,0-72.28,0c-.42,0-.83,0-1.24,0Zm85.33,73.6a3.59,3.59,0,0,0-7.17.06,3.59,3.59,0,1,0,7.17-.06Z"/><path d="M31.31,96.15V92.61H68.47v3.54Z"/><path d="M65,64.33a9.93,9.93,0,0,1-4.77,4.8,13.24,13.24,0,0,1-4.64,1.11c-8.25.1-16.51.05-24.77.05-5.74,0-10.13-3.67-10.6-9.35a71.77,71.77,0,0,1,0-11.91c.37-4.46,3.07-7.35,7.32-8.76l.47-.2c-2.2-3.89-2.09-7.59,1.2-10.75,2.89-2.77,6-2.77,10.73-.35a10.56,10.56,0,0,1,15.18-5c5.09,3.1,7,10.27,2.37,16A10.71,10.71,0,0,1,65,45.86l7.79-2.8,7.91-2.82v29.7ZM43.09,43.41H30.48a6.79,6.79,0,0,0-6.83,6.88c0,3,0,6,0,9,0,4.64,2.86,7.53,7.48,7.53q11.88,0,23.76,0a12.31,12.31,0,0,0,2-.18c2.8-.47,5.48-3.45,5.31-6.36-.2-3.6,0-7.21-.07-10.81a5.46,5.46,0,0,0-.56-2.36,6.46,6.46,0,0,0-6-3.69C51.43,43.39,47.26,43.41,43.09,43.41Zm33.64,2.48c-3.45,1.24-6.76,2.41-10,3.65-.26.1-.47.69-.48,1.05,0,3,0,6,0,9a1.12,1.12,0,0,0,.93,1.25c2.91,1,5.78,2.06,8.67,3.1.3.1.61.16,1,.26Zm-20.09-13A6.91,6.91,0,0,0,49.78,26a6.92,6.92,0,1,0,0,13.84A6.91,6.91,0,0,0,56.64,32.88ZM30.15,35.25a4.56,4.56,0,1,0,4.61-4.53A4.56,4.56,0,0,0,30.15,35.25Z"/></svg>