<svg id="Layer_1" data-name="Layer 1" xmlns="http://www.w3.org/2000/svg" viewBox="0 0 350.5 351"><defs><style>.cls-1{fill:#92d1ff;}.cls-2{fill:#0f9ffa;}.cls-3{fill:#fff;}</style></defs><title>media-function-virtualization</title><path class="cls-1" d="M221.2,135.15l-5.6-5.6L296.2,49A175,175,0,0,0,54.3,49l82,82-5.6,5.6-82-82a175,175,0,0,0,0,241.9l80.6-80.6,5.6,5.6-80.6,80.6a175,175,0,0,0,241.9,0L217,222.85l5.6-5.6,79.2,79.2a175,175,0,0,0,0-241.9l-80.6,80.6Z"/><circle id="_Path_" data-name="&lt;Path&gt;" class="cls-1" cx="175.3" cy="175.45" r="167.9"/><path class="cls-2" d="M128,133.75,53.8,59.55a167.88,167.88,0,0,0,0,231.8l74.2-74.2a63.08,63.08,0,0,1,0-83.4Zm89-5.6L291.2,54A167.88,167.88,0,0,0,59.4,54l74.2,74.2a63.08,63.08,0,0,1,83.4,0Zm-83.4,94.6L59.4,297a167.88,167.88,0,0,0,231.8,0L217,222.75a63.08,63.08,0,0,1-83.4,0Zm89-5.6,74.2,74.2a167.88,167.88,0,0,0,0-231.8l-74.2,74.2a63.08,63.08,0,0,1,0,83.4Z"/><path class="cls-3" d="M44.29,198.16h1.29v6h2.91v1.08h-4.2Z"/><path class="cls-3" d="M50.79,198.7a.68.68,0,0,1-.74.69.67.67,0,0,1-.71-.69.73.73,0,0,1,1.45,0Zm-1.38,6.54v-5.11h1.31v5.11Z"/><path class="cls-3" d="M52.25,205.24v-4.15h-.69v-1h.69v-.22a2.4,2.4,0,0,1,.62-1.75,2,2,0,0,1,1.33-.49,2.33,2.33,0,0,1,.83.13l-.09,1a1.61,1.61,0,0,0-.55-.09c-.64,0-.86.53-.86,1.16v.27h1.12v1H53.54v4.15Z"/><path class="cls-3" d="M56.36,203a1.4,1.4,0,0,0,1.58,1.33,4,4,0,0,0,1.42-.23l.18.89a4.74,4.74,0,0,1-1.78.31,2.41,2.41,0,0,1-2.63-2.58A2.53,2.53,0,0,1,57.62,200a2.23,2.23,0,0,1,2.21,2.49,3.21,3.21,0,0,1,0,.54Zm2.25-.9a1.1,1.1,0,0,0-1.06-1.25,1.27,1.27,0,0,0-1.19,1.25Z"/><path class="cls-3" d="M64.63,205.08a3.71,3.71,0,0,1-1.45.26,2.45,2.45,0,0,1-2.64-2.6A2.65,2.65,0,0,1,63.39,200a3.39,3.39,0,0,1,1.25.24l-.23,1a2.22,2.22,0,0,0-1-.2,1.66,1.66,0,0,0,0,3.31,2.62,2.62,0,0,0,1-.2Z"/><path class="cls-3" d="M66.39,200.13l.93,2.74c.1.31.21.7.28,1h0l.27-1,.8-2.73h1.39l-1.28,3.48c-.71,1.91-1.18,2.76-1.79,3.29a2.58,2.58,0,0,1-1.35.66l-.3-1.09a2.16,2.16,0,0,0,.76-.36,2.27,2.27,0,0,0,.7-.81.57.57,0,0,0,.09-.23.51.51,0,0,0-.08-.25L65,200.13Z"/><path class="cls-3" d="M74.59,205.08a3.67,3.67,0,0,1-1.45.26,2.45,2.45,0,0,1-2.63-2.6A2.64,2.64,0,0,1,73.35,200a3.3,3.3,0,0,1,1.25.24l-.23,1a2.18,2.18,0,0,0-1-.2,1.66,1.66,0,0,0,0,3.31,2.58,2.58,0,0,0,1-.2Z"/><path class="cls-3" d="M75.55,197.79h1.3v7.45h-1.3Z"/><path class="cls-3" d="M79.16,203a1.39,1.39,0,0,0,1.57,1.33,4,4,0,0,0,1.42-.23l.19.89a4.78,4.78,0,0,1-1.78.31,2.42,2.42,0,0,1-2.64-2.58,2.53,2.53,0,0,1,2.5-2.75,2.22,2.22,0,0,1,2.2,2.49,3.21,3.21,0,0,1,0,.54Zm2.25-.9a1.1,1.1,0,0,0-1.06-1.25,1.27,1.27,0,0,0-1.19,1.25Z"/><path class="cls-3" d="M33.44,212.65c0-.59,0-1.08,0-1.52h1.11l.05.75h0a1.77,1.77,0,0,1,1.58-.87,1.47,1.47,0,0,1,1.41,1h0a2,2,0,0,1,1.65-1c.86,0,1.72.58,1.72,2.22v3H39.72v-2.82c0-.86-.3-1.36-.92-1.36a1,1,0,0,0-.9.68,2,2,0,0,0-.06.43v3.07H36.58v-3c0-.72-.29-1.22-.88-1.22a1,1,0,0,0-.93.74,1.12,1.12,0,0,0-.07.42v3H33.44Z"/><path class="cls-3" d="M45.22,216.24l-.09-.57h0a1.89,1.89,0,0,1-1.51.68,1.51,1.51,0,0,1-1.6-1.52c0-1.29,1.14-1.94,3-1.93v-.08c0-.34-.14-.9-1-.9a2.75,2.75,0,0,0-1.38.38l-.25-.84A3.7,3.7,0,0,1,44.2,211a1.91,1.91,0,0,1,2.11,2.15V215a8.69,8.69,0,0,0,.07,1.23Zm-.17-2.5c-.91,0-1.78.18-1.78,1a.67.67,0,0,0,.73.73,1.05,1.05,0,0,0,1-.7,1,1,0,0,0,0-.29Z"/><path class="cls-3" d="M47.68,212.65c0-.59,0-1.08,0-1.52h1.14l.06.76h0a1.85,1.85,0,0,1,1.63-.88c.89,0,1.82.58,1.82,2.2v3H51v-2.89c0-.73-.27-1.29-1-1.29a1.09,1.09,0,0,0-1,.76,1.34,1.34,0,0,0-.05.42v3h-1.3Z"/><path class="cls-3" d="M56.56,216.24l-.09-.57h0a1.89,1.89,0,0,1-1.51.68,1.51,1.51,0,0,1-1.6-1.52c0-1.29,1.14-1.94,3-1.93v-.08c0-.34-.14-.9-1-.9a2.75,2.75,0,0,0-1.38.38l-.25-.84a3.7,3.7,0,0,1,1.85-.45,1.91,1.91,0,0,1,2.11,2.15V215a8.69,8.69,0,0,0,.07,1.23Zm-.17-2.5c-.91,0-1.78.18-1.78,1a.67.67,0,0,0,.73.73,1.05,1.05,0,0,0,1-.7,1,1,0,0,0,0-.29Z"/><path class="cls-3" d="M63.69,211.13c0,.34,0,.76,0,1.47v2.89a3,3,0,0,1-.76,2.32,2.91,2.91,0,0,1-2,.62,3.56,3.56,0,0,1-1.79-.41l.29-1a3.05,3.05,0,0,0,1.49.39,1.36,1.36,0,0,0,1.47-1.55v-.44h0a1.72,1.72,0,0,1-1.49.76,2.27,2.27,0,0,1-2.17-2.5A2.45,2.45,0,0,1,61,211a1.6,1.6,0,0,1,1.48.8h0l.05-.68Zm-1.34,2a1.27,1.27,0,0,0,0-.34,1.06,1.06,0,0,0-1.05-.83c-.72,0-1.26.63-1.26,1.67,0,.87.44,1.57,1.25,1.57a1.1,1.1,0,0,0,1-.78,2.24,2.24,0,0,0,.05-.46Z"/><path class="cls-3" d="M66,214a1.39,1.39,0,0,0,1.57,1.33,4,4,0,0,0,1.42-.23l.19.89a4.8,4.8,0,0,1-1.79.31,2.41,2.41,0,0,1-2.63-2.58,2.53,2.53,0,0,1,2.5-2.75,2.23,2.23,0,0,1,2.2,2.49,3.21,3.21,0,0,1,0,.54Zm2.24-.9a1.1,1.1,0,0,0-1.06-1.25A1.26,1.26,0,0,0,66,213.14Z"/><path class="cls-3" d="M70.45,212.65c0-.59,0-1.08,0-1.52h1.11l0,.75h0a1.76,1.76,0,0,1,1.57-.87,1.48,1.48,0,0,1,1.42,1h0a1.84,1.84,0,0,1,.63-.64,1.7,1.7,0,0,1,1-.31c.85,0,1.71.58,1.71,2.22v3H76.73v-2.82c0-.86-.3-1.36-.92-1.36a1,1,0,0,0-.9.68,2,2,0,0,0-.06.43v3.07H73.59v-3c0-.72-.28-1.22-.88-1.22a1,1,0,0,0-.93.74,1.12,1.12,0,0,0-.07.42v3H70.45Z"/><path class="cls-3" d="M80.27,214a1.39,1.39,0,0,0,1.57,1.33,4,4,0,0,0,1.42-.23l.19.89a4.8,4.8,0,0,1-1.79.31A2.41,2.41,0,0,1,79,213.76a2.53,2.53,0,0,1,2.5-2.75,2.22,2.22,0,0,1,2.2,2.49,3.21,3.21,0,0,1,0,.54Zm2.24-.9a1.1,1.1,0,0,0-1.06-1.25,1.27,1.27,0,0,0-1.18,1.25Z"/><path class="cls-3" d="M84.77,212.65c0-.59,0-1.08,0-1.52h1.13l.07.76h0a1.85,1.85,0,0,1,1.63-.88c.89,0,1.81.58,1.81,2.2v3H88.11v-2.89c0-.73-.27-1.29-1-1.29a1.07,1.07,0,0,0-1,.76,1.09,1.09,0,0,0-.06.42v3h-1.3Z"/><path class="cls-3" d="M92.26,209.67v1.46h1.23v1H92.26v2.26c0,.62.17.94.66.94a1.93,1.93,0,0,0,.5-.06l0,1a2.89,2.89,0,0,1-.93.12,1.46,1.46,0,0,1-1.11-.42,2,2,0,0,1-.4-1.42v-2.41h-.74v-1H91V210Z"/><path class="cls-3" d="M124,317.24h-2v-1.08h5.35v1.08h-2v6H124Z"/><path class="cls-3" d="M129,321a1.39,1.39,0,0,0,1.57,1.33,4,4,0,0,0,1.42-.23l.19.89a4.78,4.78,0,0,1-1.78.31,2.42,2.42,0,0,1-2.64-2.58,2.53,2.53,0,0,1,2.5-2.75,2.22,2.22,0,0,1,2.2,2.49,3.21,3.21,0,0,1,0,.54Zm2.25-.9a1.1,1.1,0,0,0-1.06-1.25,1.27,1.27,0,0,0-1.19,1.25Z"/><path class="cls-3" d="M133.47,322.05a2.85,2.85,0,0,0,1.31.37c.57,0,.82-.23.82-.57s-.21-.52-.84-.74c-1-.35-1.42-.89-1.4-1.49a1.71,1.71,0,0,1,1.93-1.61,3,3,0,0,1,1.35.31l-.25.91a2.24,2.24,0,0,0-1.08-.3c-.46,0-.72.23-.72.54s.25.48.9.71c.92.34,1.35.81,1.36,1.57,0,.92-.72,1.59-2.08,1.59a3.29,3.29,0,0,1-1.55-.35Z"/><path class="cls-3" d="M139.39,316.67v1.46h1.23v1h-1.23v2.26c0,.62.17.94.66.94a2.09,2.09,0,0,0,.51-.06l0,1a3,3,0,0,1-.94.12,1.46,1.46,0,0,1-1.11-.42,2,2,0,0,1-.4-1.42v-2.41h-.73v-1h.73V317Z"/><path class="cls-3" d="M143,316.7a.73.73,0,0,1-1.45,0,.69.69,0,0,1,.73-.7A.68.68,0,0,1,143,316.7Zm-1.37,6.54v-5.11h1.3v5.11Z"/><path class="cls-3" d="M144.29,319.65c0-.59,0-1.08,0-1.52h1.14l.06.76h0a1.85,1.85,0,0,1,1.63-.88c.89,0,1.82.58,1.82,2.2v3h-1.3v-2.89c0-.73-.27-1.29-1-1.29a1.09,1.09,0,0,0-1,.76,1.34,1.34,0,0,0,0,.42v3h-1.3Z"/><path class="cls-3" d="M155,318.13c0,.34,0,.76,0,1.47v2.89a3,3,0,0,1-.75,2.32,2.93,2.93,0,0,1-2,.62,3.52,3.52,0,0,1-1.78-.41l.28-1a3.08,3.08,0,0,0,1.49.39,1.36,1.36,0,0,0,1.47-1.55v-.44h0a1.73,1.73,0,0,1-1.49.76,2.27,2.27,0,0,1-2.17-2.5,2.45,2.45,0,0,1,2.32-2.7,1.62,1.62,0,0,1,1.48.8h0l.05-.68Zm-1.33,2a1.27,1.27,0,0,0,0-.34,1.07,1.07,0,0,0-1.05-.83c-.73,0-1.26.63-1.26,1.67,0,.87.44,1.57,1.25,1.57a1.1,1.1,0,0,0,1.05-.78,2.24,2.24,0,0,0,0-.46Z"/><path class="cls-3" d="M161.36,323.24l-.09-.57h0a1.89,1.89,0,0,1-1.51.68,1.51,1.51,0,0,1-1.6-1.52c0-1.29,1.14-1.94,3-1.93v-.08c0-.34-.14-.9-1-.9a2.75,2.75,0,0,0-1.38.38l-.25-.84a3.7,3.7,0,0,1,1.85-.45,1.91,1.91,0,0,1,2.11,2.15V322a8.69,8.69,0,0,0,.07,1.23Zm-.17-2.5c-.91,0-1.78.18-1.78,1a.67.67,0,0,0,.73.73,1.06,1.06,0,0,0,1-.7,1,1,0,0,0,0-.29Z"/><path class="cls-3" d="M163.82,319.65c0-.59,0-1.08,0-1.52h1.14l.06.76h0a1.85,1.85,0,0,1,1.63-.88c.89,0,1.82.58,1.82,2.2v3h-1.3v-2.89c0-.73-.27-1.29-1-1.29a1.09,1.09,0,0,0-1,.76,1.34,1.34,0,0,0,0,.42v3h-1.3Z"/><path class="cls-3" d="M174.54,315.79v6c0,.53,0,1.09,0,1.44h-1.16l0-.81h0a1.84,1.84,0,0,1-1.67.92,2.33,2.33,0,0,1-2.18-2.61,2.43,2.43,0,0,1,2.28-2.73,1.62,1.62,0,0,1,1.44.67h0v-2.89Zm-1.3,4.47a2,2,0,0,0,0-.34,1.12,1.12,0,0,0-1.11-.91c-.83,0-1.29.73-1.29,1.69s.46,1.62,1.28,1.62a1.14,1.14,0,0,0,1.11-.92,1.48,1.48,0,0,0,0-.38Z"/><path class="cls-3" d="M179.47,316.7a.73.73,0,0,1-1.45,0,.69.69,0,0,1,.73-.7A.68.68,0,0,1,179.47,316.7Zm-1.38,6.54v-5.11h1.31v5.11Z"/><path class="cls-3" d="M180.78,319.65c0-.59,0-1.08,0-1.52h1.14l.06.76h0a1.85,1.85,0,0,1,1.63-.88c.89,0,1.81.58,1.81,2.2v3h-1.29v-2.89c0-.73-.27-1.29-1-1.29a1.07,1.07,0,0,0-1,.76,1.33,1.33,0,0,0-.06.42v3h-1.3Z"/><path class="cls-3" d="M188.27,316.67v1.46h1.23v1h-1.23v2.26c0,.62.17.94.66.94a1.93,1.93,0,0,0,.5-.06l0,1a3,3,0,0,1-.94.12,1.46,1.46,0,0,1-1.11-.42,2,2,0,0,1-.4-1.42v-2.41h-.74v-1H187V317Z"/><path class="cls-3" d="M191.39,321a1.39,1.39,0,0,0,1.57,1.33,4,4,0,0,0,1.42-.23l.19.89a4.8,4.8,0,0,1-1.79.31,2.41,2.41,0,0,1-2.63-2.58,2.53,2.53,0,0,1,2.5-2.75,2.22,2.22,0,0,1,2.2,2.49,3.21,3.21,0,0,1,0,.54Zm2.24-.9a1.1,1.1,0,0,0-1.06-1.25,1.27,1.27,0,0,0-1.18,1.25Z"/><path class="cls-3" d="M200.56,318.13c0,.34,0,.76,0,1.47v2.89a3,3,0,0,1-.75,2.32,2.92,2.92,0,0,1-2,.62A3.52,3.52,0,0,1,196,325l.28-1a3.08,3.08,0,0,0,1.49.39,1.36,1.36,0,0,0,1.47-1.55v-.44h0a1.73,1.73,0,0,1-1.49.76,2.27,2.27,0,0,1-2.17-2.5,2.45,2.45,0,0,1,2.32-2.7,1.62,1.62,0,0,1,1.48.8h0l.05-.68Zm-1.33,2a1.27,1.27,0,0,0,0-.34,1.07,1.07,0,0,0-1.05-.83c-.73,0-1.26.63-1.26,1.67,0,.87.44,1.57,1.25,1.57a1.1,1.1,0,0,0,1.05-.78,2.24,2.24,0,0,0,0-.46Z"/><path class="cls-3" d="M201.91,319.77c0-.69,0-1.18,0-1.64H203l0,1h0a1.54,1.54,0,0,1,1.4-1.09,1.32,1.32,0,0,1,.3,0v1.22a1.82,1.82,0,0,0-.37,0,1.15,1.15,0,0,0-1.16,1,2.46,2.46,0,0,0,0,.4v2.65h-1.29Z"/><path class="cls-3" d="M208.52,323.24l-.08-.57h0a1.9,1.9,0,0,1-1.51.68,1.52,1.52,0,0,1-1.61-1.52c0-1.29,1.14-1.94,3-1.93v-.08c0-.34-.13-.9-1-.9a2.71,2.71,0,0,0-1.37.38l-.25-.84a3.69,3.69,0,0,1,1.84-.45,1.92,1.92,0,0,1,2.12,2.15V322a8.69,8.69,0,0,0,.07,1.23Zm-.16-2.5c-.92,0-1.79.18-1.79,1a.68.68,0,0,0,.74.73,1,1,0,0,0,1.05-1Z"/><path class="cls-3" d="M212.46,316.67v1.46h1.23v1h-1.23v2.26c0,.62.17.94.66.94a2.09,2.09,0,0,0,.51-.06l0,1a3,3,0,0,1-.94.12,1.46,1.46,0,0,1-1.11-.42,2,2,0,0,1-.4-1.42v-2.41h-.73v-1h.73V317Z"/><path class="cls-3" d="M216,316.7a.73.73,0,0,1-1.45,0,.69.69,0,0,1,.73-.7A.68.68,0,0,1,216,316.7Zm-1.37,6.54v-5.11H216v5.11Z"/><path class="cls-3" d="M222.21,320.64a2.53,2.53,0,0,1-2.62,2.71,2.46,2.46,0,0,1-2.56-2.63,2.52,2.52,0,0,1,2.64-2.71A2.45,2.45,0,0,1,222.21,320.64Zm-3.85.05c0,1,.48,1.73,1.27,1.73s1.25-.72,1.25-1.75c0-.8-.36-1.71-1.24-1.71S218.36,319.84,218.36,320.69Z"/><path class="cls-3" d="M223.28,319.65c0-.59,0-1.08-.05-1.52h1.14l.06.76h0a1.85,1.85,0,0,1,1.63-.88c.89,0,1.82.58,1.82,2.2v3h-1.3v-2.89c0-.73-.27-1.29-1-1.29a1.09,1.09,0,0,0-1,.76,1.34,1.34,0,0,0,0,.42v3h-1.3Z"/><path class="cls-3" d="M244.31,203.83a3.6,3.6,0,0,0,1.72.45c.82,0,1.29-.38,1.29-1s-.36-.85-1.26-1.18c-1.17-.42-1.91-1-1.91-2.06s1-2,2.49-2a3.92,3.92,0,0,1,1.71.35l-.32,1a3.07,3.07,0,0,0-1.41-.33c-.82,0-1.17.44-1.17.85s.41.8,1.35,1.16c1.23.47,1.83,1.09,1.83,2.1s-.86,2.12-2.69,2.12a4.24,4.24,0,0,1-1.91-.44Z"/><path class="cls-3" d="M250.66,203a1.39,1.39,0,0,0,1.57,1.33,4,4,0,0,0,1.42-.23l.19.89a4.8,4.8,0,0,1-1.79.31,2.41,2.41,0,0,1-2.63-2.58,2.53,2.53,0,0,1,2.5-2.75,2.23,2.23,0,0,1,2.2,2.49,3.21,3.21,0,0,1,0,.54Zm2.24-.9a1.1,1.1,0,0,0-1.06-1.25,1.26,1.26,0,0,0-1.18,1.25Z"/><path class="cls-3" d="M255.16,201.77c0-.69,0-1.18,0-1.64h1.12l0,1h.05a1.53,1.53,0,0,1,1.39-1.09,1.48,1.48,0,0,1,.31,0v1.22a1.92,1.92,0,0,0-.38,0,1.15,1.15,0,0,0-1.16,1,2.46,2.46,0,0,0,0,.4v2.65h-1.29Z"/><path class="cls-3" d="M259.72,200.13l.83,2.59c.14.45.25.86.34,1.28h0c.1-.42.21-.82.35-1.28l.81-2.59h1.36l-1.95,5.11h-1.27l-1.9-5.11Z"/><path class="cls-3" d="M265.61,198.7a.69.69,0,0,1-.74.69.67.67,0,0,1-.71-.69.68.68,0,0,1,.72-.7A.69.69,0,0,1,265.61,198.7Zm-1.38,6.54v-5.11h1.3v5.11Z"/><path class="cls-3" d="M270.68,205.08a3.67,3.67,0,0,1-1.45.26,2.45,2.45,0,0,1-2.64-2.6,2.65,2.65,0,0,1,2.85-2.73,3.39,3.39,0,0,1,1.25.24l-.23,1a2.22,2.22,0,0,0-1-.2,1.66,1.66,0,0,0,0,3.31,2.62,2.62,0,0,0,1-.2Z"/><path class="cls-3" d="M272.55,203a1.39,1.39,0,0,0,1.57,1.33,4,4,0,0,0,1.42-.23l.19.89a4.8,4.8,0,0,1-1.79.31,2.41,2.41,0,0,1-2.63-2.58,2.53,2.53,0,0,1,2.5-2.75,2.22,2.22,0,0,1,2.2,2.49,3.21,3.21,0,0,1,0,.54Zm2.24-.9a1.1,1.1,0,0,0-1.06-1.25,1.27,1.27,0,0,0-1.18,1.25Z"/><path class="cls-3" d="M283.94,197.79v6c0,.53,0,1.09,0,1.44h-1.15l-.06-.81h0a1.82,1.82,0,0,1-1.67.92,2.34,2.34,0,0,1-2.18-2.61,2.43,2.43,0,0,1,2.29-2.73,1.63,1.63,0,0,1,1.44.67h0v-2.89Zm-1.29,4.47a2,2,0,0,0,0-.34,1.14,1.14,0,0,0-1.12-.91c-.83,0-1.29.73-1.29,1.69s.46,1.62,1.28,1.62a1.15,1.15,0,0,0,1.12-.92,1.48,1.48,0,0,0,0-.38Z"/><path class="cls-3" d="M286.24,203a1.39,1.39,0,0,0,1.57,1.33,4,4,0,0,0,1.42-.23l.19.89a4.78,4.78,0,0,1-1.78.31,2.42,2.42,0,0,1-2.64-2.58,2.53,2.53,0,0,1,2.5-2.75,2.22,2.22,0,0,1,2.2,2.49,3.21,3.21,0,0,1,0,.54Zm2.25-.9a1.1,1.1,0,0,0-1.06-1.25,1.27,1.27,0,0,0-1.19,1.25Z"/><path class="cls-3" d="M290.89,205.24v-4.15h-.69v-1h.69v-.25a2.19,2.19,0,0,1,2.48-2.21,3.06,3.06,0,0,1,1.41.33l-.29,1a2.3,2.3,0,0,0-1.12-.27,1.08,1.08,0,0,0-1.2,1.22v.21h3.06v5.11h-1.31v-4.15h-1.74v4.15Z"/><path class="cls-3" d="M296.61,201.65c0-.59,0-1.08,0-1.52h1.14l.06.76h0a1.85,1.85,0,0,1,1.63-.88c.89,0,1.81.58,1.81,2.2v3H300v-2.89c0-.73-.27-1.29-1-1.29a1.08,1.08,0,0,0-1,.76,1.34,1.34,0,0,0-.05.42v3h-1.31Z"/><path class="cls-3" d="M304,198.7a.72.72,0,1,1-.72-.7A.68.68,0,0,1,304,198.7Zm-1.37,6.54v-5.11h1.3v5.11Z"/><path class="cls-3" d="M306.79,198.67v1.46H308v1h-1.23v2.26c0,.62.17.94.66.94a1.93,1.93,0,0,0,.5-.06l0,1a2.89,2.89,0,0,1-.93.12,1.46,1.46,0,0,1-1.11-.42,2,2,0,0,1-.4-1.42v-2.41h-.74v-1h.74V199Z"/><path class="cls-3" d="M310.37,198.7a.69.69,0,0,1-.74.69.67.67,0,0,1-.71-.69.68.68,0,0,1,.72-.7A.69.69,0,0,1,310.37,198.7ZM309,205.24v-5.11h1.3v5.11Z"/><path class="cls-3" d="M316.54,202.64a2.53,2.53,0,0,1-2.62,2.71,2.46,2.46,0,0,1-2.56-2.63A2.52,2.52,0,0,1,314,200,2.45,2.45,0,0,1,316.54,202.64Zm-3.85.05c0,1,.48,1.73,1.27,1.73s1.25-.72,1.25-1.75c0-.8-.36-1.71-1.24-1.71S312.69,201.84,312.69,202.69Z"/><path class="cls-3" d="M317.6,201.65c0-.59,0-1.08,0-1.52h1.13l.07.76h0a1.85,1.85,0,0,1,1.63-.88c.89,0,1.81.58,1.81,2.2v3h-1.29v-2.89c0-.73-.27-1.29-1-1.29a1.07,1.07,0,0,0-1,.76,1.33,1.33,0,0,0-.06.42v3h-1.3Z"/><path class="cls-3" d="M261.72,216.24l-.09-.57h0a1.89,1.89,0,0,1-1.51.68,1.52,1.52,0,0,1-1.61-1.52c0-1.29,1.15-1.94,3-1.93v-.08c0-.34-.14-.9-1-.9a2.72,2.72,0,0,0-1.38.38l-.25-.84a3.7,3.7,0,0,1,1.85-.45,1.91,1.91,0,0,1,2.11,2.15V215a8.69,8.69,0,0,0,.07,1.23Zm-.17-2.5c-.91,0-1.79.18-1.79,1a.68.68,0,0,0,.74.73,1.06,1.06,0,0,0,1-.7,1,1,0,0,0,0-.29Z"/><path class="cls-3" d="M264.17,212.65c0-.59,0-1.08,0-1.52h1.14l.06.76h0A1.85,1.85,0,0,1,267,211c.89,0,1.81.58,1.81,2.2v3h-1.29v-2.89c0-.73-.27-1.29-1-1.29a1.09,1.09,0,0,0-1,.76,1.34,1.34,0,0,0,0,.42v3h-1.31Z"/><path class="cls-3" d="M274.89,208.79v6c0,.53,0,1.09.05,1.44h-1.16l0-.81h0a1.84,1.84,0,0,1-1.67.92,2.33,2.33,0,0,1-2.18-2.61,2.43,2.43,0,0,1,2.28-2.73,1.62,1.62,0,0,1,1.44.67h0v-2.89Zm-1.29,4.47a2,2,0,0,0,0-.34,1.12,1.12,0,0,0-1.11-.91c-.83,0-1.29.73-1.29,1.69s.46,1.62,1.28,1.62a1.15,1.15,0,0,0,1.11-.92,1.48,1.48,0,0,0,0-.38Z"/><path class="cls-3" d="M283.17,208.79v6c0,.53,0,1.09,0,1.44h-1.16l-.05-.81h0a1.82,1.82,0,0,1-1.67.92,2.33,2.33,0,0,1-2.18-2.61,2.43,2.43,0,0,1,2.29-2.73,1.63,1.63,0,0,1,1.44.67h0v-2.89Zm-1.29,4.47a1.32,1.32,0,0,0,0-.34,1.12,1.12,0,0,0-1.11-.91c-.83,0-1.29.73-1.29,1.69s.46,1.62,1.28,1.62a1.28,1.28,0,0,0,1.16-1.3Z"/><path class="cls-3" d="M285.47,214a1.39,1.39,0,0,0,1.57,1.33,4,4,0,0,0,1.42-.23l.19.89a4.8,4.8,0,0,1-1.79.31,2.41,2.41,0,0,1-2.63-2.58,2.53,2.53,0,0,1,2.5-2.75,2.22,2.22,0,0,1,2.2,2.49,3.21,3.21,0,0,1,0,.54Zm2.24-.9a1.1,1.1,0,0,0-1.06-1.25,1.27,1.27,0,0,0-1.18,1.25Z"/><path class="cls-3" d="M289.91,215.05a2.85,2.85,0,0,0,1.31.37c.57,0,.82-.23.82-.57s-.21-.52-.84-.74c-1-.35-1.42-.89-1.41-1.49,0-.91.75-1.61,1.94-1.61a3,3,0,0,1,1.35.31l-.25.91a2.24,2.24,0,0,0-1.08-.3c-.46,0-.72.23-.72.54s.24.48.9.71c.92.34,1.35.81,1.36,1.57,0,.92-.72,1.59-2.08,1.59a3.29,3.29,0,0,1-1.55-.35Z"/><path class="cls-3" d="M295.73,209.7a.69.69,0,0,1-.74.69.67.67,0,0,1-.71-.69.68.68,0,0,1,.72-.7A.69.69,0,0,1,295.73,209.7Zm-1.38,6.54v-5.11h1.3v5.11Z"/><path class="cls-3" d="M301.71,211.13c0,.34,0,.76,0,1.47v2.89a2.94,2.94,0,0,1-.76,2.32,2.89,2.89,0,0,1-2,.62,3.59,3.59,0,0,1-1.79-.41l.29-1a3.05,3.05,0,0,0,1.49.39,1.36,1.36,0,0,0,1.47-1.55v-.44h0a1.74,1.74,0,0,1-1.49.76,2.27,2.27,0,0,1-2.18-2.5A2.45,2.45,0,0,1,299,211a1.6,1.6,0,0,1,1.48.8h0l0-.68Zm-1.33,2a1,1,0,0,0-.05-.34,1.05,1.05,0,0,0-1-.83c-.73,0-1.26.63-1.26,1.67,0,.87.44,1.57,1.25,1.57a1.08,1.08,0,0,0,1-.78,1.7,1.7,0,0,0,.06-.46Z"/><path class="cls-3" d="M303.06,212.65c0-.59,0-1.08-.05-1.52h1.14l.06.76h0a1.85,1.85,0,0,1,1.63-.88c.89,0,1.82.58,1.82,2.2v3h-1.3v-2.89c0-.73-.27-1.29-1-1.29a1.09,1.09,0,0,0-1,.76,1.34,1.34,0,0,0-.05.42v3h-1.3Z"/><path class="cls-3" d="M151.91,99a4.49,4.49,0,0,1-1.83.31,3.33,3.33,0,0,1-3.61-3.55,3.56,3.56,0,0,1,3.78-3.74,4.18,4.18,0,0,1,1.72.31l-.28,1a3.42,3.42,0,0,0-1.39-.27,2.35,2.35,0,0,0-2.48,2.6,2.32,2.32,0,0,0,2.47,2.55A3.58,3.58,0,0,0,151.7,98Z"/><path class="cls-3" d="M157.82,96.64a2.53,2.53,0,0,1-2.62,2.71,2.47,2.47,0,0,1-2.57-2.63A2.53,2.53,0,0,1,155.28,94,2.45,2.45,0,0,1,157.82,96.64Zm-3.85,0c0,1,.48,1.73,1.27,1.73s1.25-.72,1.25-1.75c0-.8-.36-1.71-1.24-1.71S154,95.84,154,96.69Z"/><path class="cls-3" d="M158.88,95.65c0-.59,0-1.08,0-1.52H160l.07.76h0a1.83,1.83,0,0,1,1.62-.88c.9,0,1.82.58,1.82,2.2v3h-1.29V96.35c0-.73-.27-1.29-1-1.29a1.07,1.07,0,0,0-1,.76,1.09,1.09,0,0,0-.06.42v3h-1.3Z"/><path class="cls-3" d="M164.82,98.05a2.89,2.89,0,0,0,1.32.37c.56,0,.82-.23.82-.57s-.21-.52-.84-.74c-1-.35-1.42-.89-1.41-1.49A1.71,1.71,0,0,1,166.64,94a2.92,2.92,0,0,1,1.35.31l-.25.91a2.24,2.24,0,0,0-1.08-.3c-.46,0-.71.23-.71.54s.24.48.89.71c.92.34,1.35.81,1.36,1.57,0,.92-.72,1.59-2.07,1.59a3.33,3.33,0,0,1-1.56-.35Z"/><path class="cls-3" d="M173.84,97.71c0,.61,0,1.11,0,1.53h-1.13l-.06-.78h0a1.85,1.85,0,0,1-1.64.89c-.94,0-1.79-.55-1.79-2.22v-3h1.3v2.78c0,.85.27,1.39,1,1.39a1.08,1.08,0,0,0,1-.69,1.19,1.19,0,0,0,.07-.4V94.13h1.29Z"/><path class="cls-3" d="M175.24,91.79h1.3v7.45h-1.3Z"/><path class="cls-3" d="M179.42,92.67v1.46h1.23v1h-1.23v2.26c0,.62.17.94.66.94a1.93,1.93,0,0,0,.5-.06l0,1a2.89,2.89,0,0,1-.93.12,1.46,1.46,0,0,1-1.11-.42,2,2,0,0,1-.4-1.42V95.09h-.74v-1h.74V93Z"/><path class="cls-3" d="M184.5,99.24l-.08-.57h0a1.89,1.89,0,0,1-1.51.68,1.51,1.51,0,0,1-1.6-1.52c0-1.29,1.14-1.94,3-1.93v-.08c0-.34-.14-.9-1-.9a2.69,2.69,0,0,0-1.37.38l-.26-.84a3.7,3.7,0,0,1,1.85-.45,1.91,1.91,0,0,1,2.11,2.15V98a7.31,7.31,0,0,0,.08,1.23Zm-.17-2.5c-.91,0-1.78.18-1.78,1a.67.67,0,0,0,.73.73,1.05,1.05,0,0,0,1-.7,1,1,0,0,0,0-.29Z"/><path class="cls-3" d="M187,95.65c0-.59,0-1.08,0-1.52h1.13l.06.76h0a1.85,1.85,0,0,1,1.63-.88c.89,0,1.82.58,1.82,2.2v3H190.3V96.35c0-.73-.28-1.29-1-1.29a1.09,1.09,0,0,0-1,.76,1.34,1.34,0,0,0-.05.42v3H187Z"/><path class="cls-3" d="M196.72,99.08a3.67,3.67,0,0,1-1.45.26,2.45,2.45,0,0,1-2.63-2.6A2.64,2.64,0,0,1,195.48,94a3.3,3.3,0,0,1,1.25.24l-.23,1a2.17,2.17,0,0,0-1-.2,1.66,1.66,0,0,0,0,3.31,2.56,2.56,0,0,0,1-.2Z"/><path class="cls-3" d="M198.49,94.13l.92,2.74c.1.31.21.7.28,1h0c.09-.29.18-.67.28-1l.8-2.73h1.38l-1.28,3.48a7.8,7.8,0,0,1-1.78,3.29,2.61,2.61,0,0,1-1.36.66l-.29-1.09a2.12,2.12,0,0,0,.75-.36,2.29,2.29,0,0,0,.71-.81.53.53,0,0,0,.08-.23.58.58,0,0,0-.07-.25l-1.87-4.69Z"/><path class="cls-3" d="M189.7,83.2v3.93l-8.69-5,8.7-5V81h13.35V61.72c-.23,0-.45,0-.68,0H174.24a.84.84,0,0,0-.92.51,4,4,0,0,1-2.29,2c-.32.12-.48.24-.48.63q0,7.89,0,15.78c0,.11,0,.23.05.41,1.25,0,2.48,0,3.71,0a1.41,1.41,0,0,1,1,.57,1.19,1.19,0,0,1,0,1.07,1.38,1.38,0,0,1-1,.47c-1.54,0-3.08,0-4.61,0-.89,0-1.29-.37-1.3-1.26,0-1.07,0-2.14,0-3.21,0-4.57,0-9.13,0-13.69a.76.76,0,0,0-.55-.87,4.32,4.32,0,0,1-2.66-4.85,4.38,4.38,0,0,1,8.52-.4c0,.17.1.35.16.53h2.61c0-1.53,0-3,0-4.54a7.74,7.74,0,0,1,.74-3.52A7.25,7.25,0,0,1,183.3,47a41.38,41.38,0,0,1,7,0,7.55,7.55,0,0,1,6.85,7.68c0,1.56,0,3.11,0,4.79h6.44c1.31,0,1.62.31,1.62,1.58V81.66c0,1.27-.27,1.54-1.56,1.54h-14ZM195,59.43c0-1.79.09-3.52,0-5.23a5.47,5.47,0,0,0-5.33-5.1c-1.93-.05-3.87-.06-5.79,0a5.47,5.47,0,0,0-5.2,5.43c0,1.42,0,2.84,0,4.26,0,.2,0,.4.05.62Zm-25.48-1.52a2.21,2.21,0,1,0-.1,4.42,2.21,2.21,0,1,0,.1-4.42Z"/><path class="cls-3" d="M162.92,75V70.39c0-1.55-.7-2.27-2.26-2.28q-4.23,0-8.45,0c-4.45,0-6.76-3.16-6.9-6.7-.1-2.72-.05-5.45,0-8.17a6.27,6.27,0,0,1,12.52-.19c.12,2.67.05,5.35,0,8a1.08,1.08,0,0,1-1.06,1.16A1.12,1.12,0,0,1,155.66,61c0-1.86,0-3.72,0-5.58,0-.66,0-1.31,0-2a4.06,4.06,0,0,0-3.84-4.1,4,4,0,0,0-4.28,3.77c-.11,2.86-.11,5.72,0,8.58.12,2.6,2,4.2,4.64,4.22s5.59,0,8.38,0a4.43,4.43,0,0,1,3.66,1.55,4,4,0,0,1,.87,2.67q0,4.82,0,9.64c0,.9-.41,1.38-1.12,1.37s-1.07-.49-1.07-1.35C162.91,78.22,162.92,76.61,162.92,75Z"/><path class="cls-3" d="M186.81,34.83a5.46,5.46,0,1,1-5.47,5.44A5.44,5.44,0,0,1,186.81,34.83Zm-3.26,5.43a3.28,3.28,0,0,0,3.3,3.32,3.3,3.3,0,0,0,0-6.6A3.3,3.3,0,0,0,183.55,40.26Z"/><path class="cls-3" d="M151.54,34.83a5.46,5.46,0,1,1-5.48,5.42A5.41,5.41,0,0,1,151.54,34.83Zm3.27,5.45a3.3,3.3,0,0,0-3.27-3.3,3.3,3.3,0,1,0,0,6.6A3.28,3.28,0,0,0,154.81,40.28Z"/><path class="cls-3" d="M67.11,132v3.59c9.74,1.11,16.93,6,21.63,14.65l-.88.44-.88.44a24.69,24.69,0,0,0-11.39-11.21,24,24,0,0,0-8.46-2.31v3.46l-7.87-4.54c1.16-.67,2.24-1.28,3.3-1.91,1.48-.86,3-1.74,4.42-2.61Z"/><path class="cls-3" d="M40.47,159.6h3.32l-4.5,7.81-4.5-7.79h3.63a27.3,27.3,0,0,1,2.84-9.72c-1.66-1.93-1.87-3.84-.61-5.48a3.92,3.92,0,0,1,5.05-1c1.93-1.41,3.77-2.77,5.63-4.1a16.63,16.63,0,0,1,1.7-.95l.86,1.7c-.82.49-1.64.89-2.37,1.43-1.34,1-2.63,2.06-3.92,3.13a.83.83,0,0,0-.2.71,3.93,3.93,0,0,1-4,5.41.61.61,0,0,0-.44.18C42,152.2,40.36,157.73,40.47,159.6Zm3.31-10.82a2,2,0,0,0,2-2,2,2,0,0,0-2-2,2,2,0,0,0,0,3.95Z"/><path class="cls-3" d="M90.29,157.32l4.5,7.8c-1,0-1.92,0-2.82,0-.47,0-.67.11-.73.6a25.53,25.53,0,0,1-2.5,8.28c-.14.29-.23.5,0,.82a3.87,3.87,0,0,1,.16,4.94,3.94,3.94,0,0,1-4.75,1.18l-.29-.11a27,27,0,0,1-7,5.07l-.85-1.7c.22-.13.42-.25.63-.36a25.21,25.21,0,0,0,5.43-4,.68.68,0,0,0,.17-.91,3.9,3.9,0,0,1,4-5.45c.31,0,.53.06.71-.29a25.2,25.2,0,0,0,2.37-7.76,1.44,1.44,0,0,0,0-.32H85.79Zm-6.43,20.05a2,2,0,0,0,2,2,2,2,0,1,0-.07-3.93A1.9,1.9,0,0,0,83.86,177.37Z"/><path class="cls-3" d="M41.12,174.14l.44-.25,1.29-.64a24.8,24.8,0,0,0,19,13.38v-3.37l7.81,4.51-7.77,4.48v-3.64A26.75,26.75,0,0,1,41.12,174.14Z"/><path class="cls-3" d="M256,184.11h5.14v-.79c0-2.63,0-5.26.11-7.88a23.76,23.76,0,0,1,4.12-12.14l.36-.53a4.44,4.44,0,0,1-1.15-3.67,4.26,4.26,0,0,1,1.37-2.55,4.33,4.33,0,0,1,5.79,0c2-1,4-2,6-2.79a21,21,0,0,1,6.71-1.4c.32,0,.54-.05.53-.45,0-2.19,0-4.38,0-6.65h-6V143H293v2.19h-5.88v7c1.14.16,2.28.28,3.42.48a24.86,24.86,0,0,1,19.92,20.07c.08.47.26.61.72.59,1.14,0,2.27,0,3.56,0l-4.95,8.57-4.93-8.54h3.62c-.34-1.25-.55-2.41-1-3.5-3.26-8.71-9.48-13.9-18.68-15.27a21.73,21.73,0,0,0-15.27,3.49,1,1,0,0,0-.54,1.09A4.23,4.23,0,0,1,268,164a.61.61,0,0,0-.73.33,20.44,20.44,0,0,0-3.74,9.69c-.31,3.33-.25,6.69-.36,10.1H316v2.12l-.64,0H256.52l-.52,0Zm12.84-22.2a2.17,2.17,0,1,0,0-4.33,2.17,2.17,0,1,0,0,4.33Z"/><path class="cls-3" d="M278.44,175.41c-1.23.1-1.23.1-1.76-1-.17-.36-.29-.73-.45-1.09-.4-.87-.49-1.64.54-2.18.14-.07.22-.34.26-.54s0-.49,0-.72a1.39,1.39,0,0,0-.75-1.57.64.64,0,0,1-.31-.92c.34-.83.68-1.66,1-2.49a.83.83,0,0,1,1.07-.56c.34.06.79.18,1,0a4.85,4.85,0,0,0,1.32-1.35c.17-.27,0-.76,0-1.14s0-.67.41-.83l2.65-1.1c.36-.16.67-.11.83.24.56,1.25,1.71.89,2.66.9.27,0,.59-.46.81-.77a.79.79,0,0,1,1.1-.34c.78.34,1.57.66,2.36,1,.48.19.71.51.54,1-.44,1.3.75,1.71,1.34,2.42.14.16.67,0,1,0s.83,0,1,.53c.32.86.66,1.7,1,2.55a.61.61,0,0,1-.29.87c-1.14.58-.79,1.62-.76,2.53,0,.22.36.48.61.63a.87.87,0,0,1,.38,1.26c-.35.8-.69,1.6-1,2.41-.16.4-.41.48-.82.42a2,2,0,0,0-1.21,0,6.07,6.07,0,0,0-1.3,1.28c-.11.13,0,.42,0,.63.11,1.38.28,1.05-.91,1.66a14.32,14.32,0,0,1-2.21.83.71.71,0,0,1-.63-.19c-.59-1.22-1.71-1-2.71-1-.29,0-.62.44-.82.75a.82.82,0,0,1-1.15.35c-.82-.36-1.64-.71-2.47-1.05a.63.63,0,0,1-.43-.81,2,2,0,0,0,0-1.21,5.84,5.84,0,0,0-1.28-1.3C278.94,175.37,278.66,175.43,278.44,175.41Zm1-2.21c.44-.15.79.07,1.11.56a4.23,4.23,0,0,0,1.21,1.28,1.6,1.6,0,0,1,.87,2,.5.5,0,0,0,.26.41.63.63,0,0,0,.49-.09.83.83,0,0,0,.3-.34,1,1,0,0,1,1.31-.5,3.76,3.76,0,0,0,1.56.08c.93-.19,1.7-.19,2.2.77a.46.46,0,0,0,.43.11.65.65,0,0,0,.32-.4,1.45,1.45,0,0,0-.05-.58.89.89,0,0,1,.45-1.08,4.86,4.86,0,0,0,1.38-1.29,1.63,1.63,0,0,1,1.92-.89.51.51,0,0,0,.45-.22.82.82,0,0,0-.12-.56,1.09,1.09,0,0,0-.4-.33.9.9,0,0,1-.41-1.05,5,5,0,0,0,.06-1.89,1.46,1.46,0,0,1,.72-1.8.66.66,0,0,0,.14-.59c0-.12-.33-.17-.51-.24a.33.33,0,0,0-.19,0,1.12,1.12,0,0,1-1.41-.57,4.36,4.36,0,0,0-1.31-1.36,1.38,1.38,0,0,1-.74-1.71.63.63,0,0,0-.24-.56c-.14-.06-.39.1-.59.18s-.09.1-.12.15a1.21,1.21,0,0,1-1.48.58,4.53,4.53,0,0,0-1.94,0,1.24,1.24,0,0,1-1.54-.59c-.15-.24-.36-.6-.7-.31a.85.85,0,0,0-.2.7,1.25,1.25,0,0,1-.64,1.47,3.9,3.9,0,0,0-1.18,1.11c-.49.74-1,1.22-2,.9-.1,0-.37.13-.41.25a.75.75,0,0,0,.11.54,1,1,0,0,0,.39.35c.47.25.48.63.41,1.1a4.61,4.61,0,0,0-.07,1.69,1.56,1.56,0,0,1-.74,2,.51.51,0,0,0-.13.48.67.67,0,0,0,.41.29A1.74,1.74,0,0,0,279.41,173.2Z"/><path class="cls-3" d="M286.06,164.54a5.37,5.37,0,1,1-5.45,5.33A5.42,5.42,0,0,1,286.06,164.54Zm-.13,8.58a3.23,3.23,0,1,0,.23-6.46,3.3,3.3,0,0,0-3.38,3.05A3.25,3.25,0,0,0,285.93,173.12Z"/><path class="cls-3" d="M179.42,248a13.74,13.74,0,0,1,1.66.74,3.77,3.77,0,0,1,1.68,2.72h5.84V255h11.29v16.61h3.42l-4.4,7.63-4.4-7.62h3.4V256.91h-9.29v3.34H169.27V256.9H160v26.33c.61,0,1.22.13,1.83.12a1.05,1.05,0,0,0,.59-.41c1.21-1.44,1.21-1.44,3-.75l.53.21c1.79.77,1.8.77,1.65,2.66a1,1,0,0,0,.41,1,3.4,3.4,0,0,1,.92.89,1.94,1.94,0,0,0,2.39.84.83.83,0,0,1,1.14.6c.39,1,.78,2,1.19,3a.7.7,0,0,1-.29,1,8.7,8.7,0,0,0-1.09.92.48.48,0,0,0-.14.41c0,.11.23.19.37.24a.7.7,0,0,0,.29,0h13.82l.58,0v-11h14.76a3.17,3.17,0,0,1-.21.31q-6.45,6.15-12.91,12.28a1.49,1.49,0,0,1-1,.3c-5,0-9.93,0-14.89,0a3.94,3.94,0,0,0-.88.23,4.06,4.06,0,0,0,.51.7c1.26,1.09,1.27,1.08.71,2.64q-.15.44-.33.87c-.73,1.69-.73,1.71-2.55,1.58a1.14,1.14,0,0,0-1.09.48,6,6,0,0,1-1.15,1.16,1.36,1.36,0,0,0-.58,1.46c.2,1.7.39,1.26-1.11,2.08a8.56,8.56,0,0,1-1,.43c-1.86.73-1.85.72-3.16-.77a1.33,1.33,0,0,0-.84-.31,7.85,7.85,0,0,1-1.28,0,1.87,1.87,0,0,0-2.28,1.05.93.93,0,0,1-1.36.42c-1-.43-1.92-.83-2.89-1.24a.63.63,0,0,1-.45-.83c.37-1.22-.15-2-1-2.88a2.57,2.57,0,0,0-2.77-1,.62.62,0,0,1-.84-.43c-.42-1.08-.86-2.16-1.31-3.23a.65.65,0,0,1,.29-.91,2.6,2.6,0,0,0,1.26-2.63,2.34,2.34,0,0,0-1.17-2.39.79.79,0,0,1-.34-1.14c.46-1.05.86-2.12,1.34-3.15a.74.74,0,0,1,.65-.33,2.81,2.81,0,0,0,3-1c.79-.83,1.3-1.55.95-2.7a.76.76,0,0,1,.53-1c.95-.38,1.87-.82,2.83-1.18.72-.27.73-.23,1.4.35V255h11.24v-3.48h5.87a3.87,3.87,0,0,1,1.71-2.76,13,13,0,0,1,1.76-.73ZM150,300c.46-.05.93-.08,1.4-.15a1,1,0,0,1,1.08.47,8.44,8.44,0,0,0,1.85,2,1.81,1.81,0,0,1,.93,2.23c-.14.52,0,.84.58,1.09s1.11.27,1.48-.37a6.4,6.4,0,0,1,.4-.51.89.89,0,0,1,1-.39,7,7,0,0,0,2.4.11,2.22,2.22,0,0,1,2.74,1.07.68.68,0,0,0,.55.3c1.05-.15,1.31-.51,1.22-1.55a3.7,3.7,0,0,0-.07-.57c-.13-.44.09-.66.42-.93a13.39,13.39,0,0,0,2.19-2.13,1.48,1.48,0,0,1,1.78-.72c.77.24,1.16-.05,1.41-.8.17-.51.18-.84-.31-1.13-.26-.16-.46-.41-.72-.58s-.34-.47-.31-.85a12.25,12.25,0,0,0,0-2.9,1.5,1.5,0,0,1,.75-1.76c.08-.05.15-.13.23-.18.47-.28.5-.61.32-1.13-.26-.74-.64-1-1.41-.81a1.36,1.36,0,0,1-1.73-.66,4.61,4.61,0,0,0-1.46-1.55,2.13,2.13,0,0,1-1.13-2.64.69.69,0,0,0-.18-.6c-.8-.62-1.28-.55-1.93.23a2.3,2.3,0,0,0-.32.38.92.92,0,0,1-1.09.42,7.55,7.55,0,0,0-2.41-.1,2.22,2.22,0,0,1-2.73-1.11.76.76,0,0,0-.69-.19c-1.14.34-1.15.38-1,1.58a1.35,1.35,0,0,0,0,.29,1,1,0,0,1-.48,1.18,10.59,10.59,0,0,0-2.09,2,1.52,1.52,0,0,1-1.84.74c-.74-.21-1.12.05-1.37.78-.18.54-.16.88.34,1.19a2.54,2.54,0,0,1,.71.59,1.43,1.43,0,0,1,.26.78c0,1-.12,2.09,0,3.12a1.34,1.34,0,0,1-.56,1.42c-1.06.83-1,.86-.46,2.07A2.1,2.1,0,0,0,150,300Zm21.19-41.64h15.51v-5c-1.17,0-2.29,0-3.41,0a1.13,1.13,0,0,0-1.14.61,3.73,3.73,0,0,1-6.18.24,1.79,1.79,0,0,0-1.81-.85c-1,0-2,0-3,0Zm17.92,26.46v7.76l8.17-7.79H189.7Zm-8.23-32.9a1.91,1.91,0,0,0-1.91-2,2,2,0,0,0-1.94,1.89,2,2,0,0,0,1.93,2A1.94,1.94,0,0,0,180.85,251.92Z"/><path class="cls-3" d="M191.27,266.16l1.12,1.55L173.5,281.15l-6.15-9,1.57-1.08,5.06,7.4Z"/><path class="cls-3" d="M160.46,301.61a6.78,6.78,0,1,1,6.8-6.73A6.79,6.79,0,0,1,160.46,301.61Zm0-11.65a4.89,4.89,0,1,0,4.94,4.92A5,5,0,0,0,160.44,290Z"/></svg>