<svg id="Layer_1" data-name="Layer 1" xmlns="http://www.w3.org/2000/svg" width="100" height="100" viewBox="0 0 100 100"><title>Migration</title><path d="M2.07,47.38c.13-.59.25-1.18.38-1.77C3.73,39.73,7.22,35.74,13,34.11S23.9,34,28.09,38.43a5.74,5.74,0,0,1,.42.51L64.84,18l-3.4-5.09,16.85-1.19L70.91,26.87l-4-5.86L30.57,42a15.77,15.77,0,0,1,0,12.77L69.08,77l3.75-5.51,7.39,15.2-16.84-1.2L67,80.05,28.54,57.84a15.33,15.33,0,0,1-7,4.71A14.88,14.88,0,0,1,2.27,50a3.9,3.9,0,0,0-.2-.7Zm26.2,1A11.23,11.23,0,1,0,17,59.61,11.26,11.26,0,0,0,28.27,48.38Z"/><path d="M89.41,100a19.09,19.09,0,0,1-3.71-1.91,7.14,7.14,0,0,1-1.92-8.4A7.37,7.37,0,0,1,97.67,90.8c.07.23.17.46.26.68v2.19a36.14,36.14,0,0,1-2.08,4c-1,1.42-2.67,1.89-4.26,2.38Zm1-3.71a3.61,3.61,0,0,0,3.77-3.54,3.7,3.7,0,0,0-3.6-3.86,3.75,3.75,0,0,0-3.79,3.69A3.68,3.68,0,0,0,90.44,96.29Z"/><path d="M97.93,8.52c-.22.6-.41,1.22-.67,1.8a7.35,7.35,0,1,1-8.94-10c.3-.1.58-.24.87-.36h2.62c1.76.59,3.51,1.27,4.54,2.92a29.34,29.34,0,0,1,1.58,3.41ZM94.21,7.36a3.68,3.68,0,0,0-3.64-3.71,3.74,3.74,0,0,0-3.75,3.73,3.8,3.8,0,0,0,3.67,3.73A3.71,3.71,0,0,0,94.21,7.36Z"/></svg>