<svg id="Layer_1" data-name="Layer 1" xmlns="http://www.w3.org/2000/svg" viewBox="0 0 350.5 351"><defs><style>.cls-1{fill:#d8e7da;}.cls-2{fill:#a8d7cd;}.cls-3{fill:#00b28f;}.cls-4{fill:#fff;}</style></defs><title>monetization</title><path class="cls-1" d="M343.16,175.5a167.63,167.63,0,0,1-66.22,133.63c-2,1.5-4,2.95-6,4.36a168,168,0,0,1-191.38,0c-2-1.41-4-2.87-6-4.37a168.22,168.22,0,0,1-59.17-182c.72-2.37,1.48-4.72,2.3-7A168,168,0,0,1,171.55,7.62c1.23,0,2.46,0,3.7,0s2.48,0,3.71,0A168,168,0,0,1,333.8,120.07q1.21,3.48,2.29,7h0A168,168,0,0,1,343.16,175.5Z"/><path class="cls-2" d="M171.55.52v7.1A168,168,0,0,0,16.7,120.08L10,117.89A175.08,175.08,0,0,1,171.55.52Z"/><path class="cls-3" d="M171.55,7.62V125a50.48,50.48,0,0,0-43.21,31.38L16.7,120.08A168,168,0,0,1,171.55,7.62Z"/><path class="cls-2" d="M340.54,117.87l-6.74,2.2A168,168,0,0,0,179,7.62V.52A173.47,173.47,0,0,1,279.1,34.62a175.45,175.45,0,0,1,61.44,83.25Z"/><path class="cls-3" d="M333.8,120.07,222.17,156.34A50.51,50.51,0,0,0,179,125V7.62A168,168,0,0,1,333.8,120.07Z"/><path class="cls-2" d="M73.57,309.13l-4.15,5.72A175.18,175.18,0,0,1,7.67,124.94l6.73,2.19a168.22,168.22,0,0,0,59.17,182Z"/><path class="cls-3" d="M142.56,215.48l-69,95a168.24,168.24,0,0,1-59.17-182l111.65,36.27a50.73,50.73,0,0,0,16.51,50.77Z"/><path class="cls-3" d="M271,313.49a168,168,0,0,1-191.38,0l69-95a50.68,50.68,0,0,0,53.39,0Z"/><path class="cls-2" d="M350.25,175.48a174.69,174.69,0,0,1-69.16,139.36l-4.15-5.71a168.2,168.2,0,0,0,59.15-182h0l6.74-2.18A175.11,175.11,0,0,1,350.25,175.48Z"/><path class="cls-3" d="M343.16,175.5a167.63,167.63,0,0,1-66.22,133.63l-69-95a50.67,50.67,0,0,0,16.51-50.78l111.64-36.27A168,168,0,0,1,343.16,175.5Z"/><path class="cls-2" d="M275.1,319.21a175,175,0,0,1-199.69,0l4.16-5.71a168,168,0,0,0,191.38,0Z"/><path class="cls-4" d="M51.08,110.28l-.6,2H49.14l2.27-7.08h1.65l2.3,7.08H54l-.64-2Zm2-1-.56-1.75c-.13-.43-.25-.91-.35-1.32h0c-.11.41-.21.9-.34,1.32l-.55,1.75Z"/><path class="cls-4" d="M61,104.84v6c0,.53,0,1.09,0,1.44H59.89l0-.81h0a1.82,1.82,0,0,1-1.67.92A2.33,2.33,0,0,1,56,109.79a2.43,2.43,0,0,1,2.29-2.73,1.63,1.63,0,0,1,1.43.67h0v-2.89Zm-1.3,4.47a2,2,0,0,0,0-.34,1.12,1.12,0,0,0-1.11-.91c-.83,0-1.29.73-1.29,1.69s.46,1.62,1.28,1.62a1.14,1.14,0,0,0,1.11-.92,1.48,1.48,0,0,0,0-.38Z"/><path class="cls-4" d="M63.21,107.18l.83,2.59c.15.45.25.86.35,1.28h0c.09-.42.21-.82.35-1.28l.8-2.59h1.37l-2,5.11H63.72l-1.9-5.11Z"/><path class="cls-4" d="M68.64,110.1a1.39,1.39,0,0,0,1.57,1.32,4,4,0,0,0,1.42-.23l.19.89a4.78,4.78,0,0,1-1.78.31,2.42,2.42,0,0,1-2.64-2.58,2.53,2.53,0,0,1,2.5-2.75,2.22,2.22,0,0,1,2.2,2.49,3.45,3.45,0,0,1,0,.55Zm2.25-.91a1.1,1.1,0,0,0-1.06-1.25,1.27,1.27,0,0,0-1.19,1.25Z"/><path class="cls-4" d="M73.14,108.82c0-.69,0-1.18,0-1.64h1.13l0,1h0a1.53,1.53,0,0,1,1.4-1.09,1.39,1.39,0,0,1,.3,0v1.22a1.84,1.84,0,0,0-.38,0,1.13,1.13,0,0,0-1.15,1,2.46,2.46,0,0,0,0,.4v2.65h-1.3Z"/><path class="cls-4" d="M78.36,105.72v1.46h1.23v1H78.36v2.26c0,.62.17.94.66.94a2,2,0,0,0,.51-.06l0,1a3,3,0,0,1-.93.12A1.47,1.47,0,0,1,77.5,112a2,2,0,0,1-.4-1.42v-2.41h-.73v-1h.73V106Z"/><path class="cls-4" d="M81.94,105.75a.72.72,0,0,1-1.44,0,.72.72,0,0,1,1.44,0Zm-1.37,6.54v-5.11h1.3v5.11Z"/><path class="cls-4" d="M83.19,111.1a2.89,2.89,0,0,0,1.32.37c.56,0,.81-.23.81-.57s-.21-.52-.84-.74c-1-.35-1.41-.89-1.4-1.49A1.71,1.71,0,0,1,85,107.06a2.92,2.92,0,0,1,1.35.31l-.25.91A2.24,2.24,0,0,0,85,108c-.46,0-.71.23-.71.54s.24.48.89.71c.92.34,1.35.81,1.36,1.57,0,.92-.72,1.59-2.07,1.59a3.33,3.33,0,0,1-1.56-.35Z"/><path class="cls-4" d="M88.55,110.1a1.38,1.38,0,0,0,1.57,1.32,4,4,0,0,0,1.42-.23l.19.89a4.8,4.8,0,0,1-1.79.31,2.41,2.41,0,0,1-2.63-2.58,2.53,2.53,0,0,1,2.5-2.75,2.22,2.22,0,0,1,2.2,2.49,3.45,3.45,0,0,1,0,.55Zm2.24-.91a1.1,1.1,0,0,0-1.06-1.25,1.27,1.27,0,0,0-1.18,1.25Z"/><path class="cls-4" d="M93.05,108.7c0-.59,0-1.08,0-1.52h1.11l.06.75h0a1.76,1.76,0,0,1,1.57-.87,1.48,1.48,0,0,1,1.42,1h0a1.84,1.84,0,0,1,.63-.64,1.7,1.7,0,0,1,1-.31c.85,0,1.71.58,1.71,2.22v3H99.33v-2.83c0-.84-.29-1.35-.91-1.35a1,1,0,0,0-.91.68,2,2,0,0,0-.06.43v3.07H96.19v-3c0-.71-.28-1.22-.88-1.22a1,1,0,0,0-.92.74,1,1,0,0,0-.08.42v3H93.05Z"/><path class="cls-4" d="M102.87,110.1a1.39,1.39,0,0,0,1.57,1.32,4,4,0,0,0,1.42-.23l.19.89a4.78,4.78,0,0,1-1.78.31,2.42,2.42,0,0,1-2.64-2.58,2.53,2.53,0,0,1,2.5-2.75,2.22,2.22,0,0,1,2.2,2.49,3.45,3.45,0,0,1,0,.55Zm2.25-.91a1.1,1.1,0,0,0-1.06-1.25,1.27,1.27,0,0,0-1.19,1.25Z"/><path class="cls-4" d="M107.37,108.7c0-.59,0-1.08,0-1.52h1.14l.06.76h0a1.85,1.85,0,0,1,1.63-.88c.89,0,1.81.58,1.81,2.2v3h-1.29V109.4c0-.73-.27-1.29-1-1.29a1.09,1.09,0,0,0-1,.76,1.34,1.34,0,0,0,0,.42v3h-1.31Z"/><path class="cls-4" d="M114.86,105.72v1.46h1.23v1h-1.23v2.26c0,.62.17.94.66.94a2.09,2.09,0,0,0,.51-.06l0,1a3,3,0,0,1-.94.12A1.46,1.46,0,0,1,114,112a2,2,0,0,1-.4-1.42v-2.41h-.73v-1h.73V106Z"/><path class="cls-4" d="M119.24,104.84h1.3v7.45h-1.3Z"/><path class="cls-4" d="M123.31,105.75a.73.73,0,0,1-1.45,0,.7.7,0,0,1,.73-.71A.69.69,0,0,1,123.31,105.75Zm-1.37,6.54v-5.11h1.3v5.11Z"/><path class="cls-4" d="M124.77,112.29v-4.15h-.69v-1h.69V107a2.4,2.4,0,0,1,.62-1.75,2,2,0,0,1,1.33-.49,2.33,2.33,0,0,1,.83.13l-.09,1a1.61,1.61,0,0,0-.55-.09c-.64,0-.86.53-.86,1.16v.27h1.13v1h-1.12v4.15Z"/><path class="cls-4" d="M128.89,110.1a1.38,1.38,0,0,0,1.57,1.32,4,4,0,0,0,1.42-.23l.19.89a4.8,4.8,0,0,1-1.79.31,2.41,2.41,0,0,1-2.63-2.58,2.53,2.53,0,0,1,2.5-2.75,2.22,2.22,0,0,1,2.2,2.49,3.45,3.45,0,0,1,0,.55Zm2.24-.91a1.1,1.1,0,0,0-1.06-1.25,1.27,1.27,0,0,0-1.18,1.25Z"/><path class="cls-4" d="M137.15,112.13a3.67,3.67,0,0,1-1.45.26,2.45,2.45,0,0,1-2.63-2.6,2.64,2.64,0,0,1,2.84-2.73,3.35,3.35,0,0,1,1.25.24l-.23,1a2.18,2.18,0,0,0-1-.2,1.66,1.66,0,0,0,0,3.31,2.58,2.58,0,0,0,1-.2Z"/><path class="cls-4" d="M138.92,107.18l.92,2.74c.1.31.21.7.28,1h0c.09-.29.18-.67.28-1l.79-2.73h1.39l-1.28,3.48c-.7,1.91-1.18,2.76-1.79,3.29a2.55,2.55,0,0,1-1.35.66l-.29-1.09a2.38,2.38,0,0,0,1.46-1.17.53.53,0,0,0,.08-.23.58.58,0,0,0-.07-.25l-1.87-4.69Z"/><path class="cls-4" d="M147.12,112.13a3.71,3.71,0,0,1-1.45.26,2.45,2.45,0,0,1-2.64-2.6,2.65,2.65,0,0,1,2.85-2.73,3.39,3.39,0,0,1,1.25.24l-.24,1a2.17,2.17,0,0,0-1-.2,1.66,1.66,0,0,0,0,3.31,2.66,2.66,0,0,0,1-.2Z"/><path class="cls-4" d="M148.07,104.84h1.3v7.45h-1.3Z"/><path class="cls-4" d="M151.68,110.1a1.39,1.39,0,0,0,1.58,1.32,3.91,3.91,0,0,0,1.41-.23l.19.89a4.78,4.78,0,0,1-1.78.31,2.42,2.42,0,0,1-2.64-2.58,2.53,2.53,0,0,1,2.5-2.75,2.23,2.23,0,0,1,2.21,2.49,3.45,3.45,0,0,1,0,.55Zm2.25-.91a1.1,1.1,0,0,0-1.06-1.25,1.27,1.27,0,0,0-1.19,1.25Z"/><path class="cls-4" d="M72.39,119.7c0-.59,0-1.08,0-1.52h1.11l.05.75h0a1.77,1.77,0,0,1,1.58-.87,1.49,1.49,0,0,1,1.42,1h0a2,2,0,0,1,1.65-1c.86,0,1.72.58,1.72,2.22v3H78.67v-2.83c0-.84-.3-1.35-.92-1.35a1,1,0,0,0-.9.68,2,2,0,0,0-.06.43v3.07H75.53v-3c0-.71-.29-1.22-.88-1.22a1,1,0,0,0-.93.74,1.12,1.12,0,0,0-.07.42v3H72.39Z"/><path class="cls-4" d="M84.17,123.29l-.09-.57h0a1.89,1.89,0,0,1-1.51.68,1.51,1.51,0,0,1-1.6-1.52c0-1.29,1.14-1.94,3-1.93v-.08c0-.34-.14-.9-1-.9a2.75,2.75,0,0,0-1.38.38l-.25-.84a3.7,3.7,0,0,1,1.85-.45,1.91,1.91,0,0,1,2.11,2.15v1.85a8.69,8.69,0,0,0,.07,1.23Zm-.17-2.5c-.91,0-1.78.18-1.78,1a.67.67,0,0,0,.73.73,1.06,1.06,0,0,0,1-.7,1,1,0,0,0,0-.29Z"/><path class="cls-4" d="M86.63,119.7c0-.59,0-1.08,0-1.52h1.14l.06.76h0a1.85,1.85,0,0,1,1.63-.88c.89,0,1.82.58,1.82,2.2v3H90V120.4c0-.73-.27-1.29-1-1.29a1.09,1.09,0,0,0-1,.76,1.34,1.34,0,0,0,0,.42v3h-1.3Z"/><path class="cls-4" d="M95.51,123.29l-.09-.57h0a1.89,1.89,0,0,1-1.51.68,1.51,1.51,0,0,1-1.6-1.52c0-1.29,1.14-1.94,3-1.93v-.08c0-.34-.14-.9-1-.9a2.75,2.75,0,0,0-1.38.38l-.25-.84a3.7,3.7,0,0,1,1.85-.45,1.91,1.91,0,0,1,2.11,2.15v1.85a8.69,8.69,0,0,0,.07,1.23Zm-.17-2.5c-.91,0-1.78.18-1.78,1a.67.67,0,0,0,.73.73,1.05,1.05,0,0,0,1-.7,1,1,0,0,0,0-.29Z"/><path class="cls-4" d="M102.64,118.18c0,.34,0,.76,0,1.47v2.89a2.47,2.47,0,0,1-2.73,2.94,3.54,3.54,0,0,1-1.79-.41l.29-1a3.05,3.05,0,0,0,1.49.39,1.37,1.37,0,0,0,1.47-1.55v-.44h0a1.72,1.72,0,0,1-1.49.76,2.27,2.27,0,0,1-2.17-2.5,2.45,2.45,0,0,1,2.32-2.7,1.6,1.6,0,0,1,1.48.8h0l.05-.68Zm-1.34,2a1.27,1.27,0,0,0,0-.34,1.06,1.06,0,0,0-1.05-.83c-.72,0-1.26.63-1.26,1.67,0,.87.44,1.57,1.25,1.57a1.09,1.09,0,0,0,1-.77,2.42,2.42,0,0,0,0-.47Z"/><path class="cls-4" d="M104.9,121.1a1.38,1.38,0,0,0,1.57,1.32,4,4,0,0,0,1.42-.23l.19.89a4.8,4.8,0,0,1-1.79.31,2.41,2.41,0,0,1-2.63-2.58,2.53,2.53,0,0,1,2.5-2.75,2.23,2.23,0,0,1,2.2,2.49,3.45,3.45,0,0,1,0,.55Zm2.24-.91a1.1,1.1,0,0,0-1.06-1.25,1.26,1.26,0,0,0-1.18,1.25Z"/><path class="cls-4" d="M109.4,119.7c0-.59,0-1.08,0-1.52h1.11l0,.75h0a1.76,1.76,0,0,1,1.57-.87,1.48,1.48,0,0,1,1.42,1h0a1.84,1.84,0,0,1,.63-.64,1.7,1.7,0,0,1,1-.31c.85,0,1.71.58,1.71,2.22v3h-1.26v-2.83c0-.84-.3-1.35-.91-1.35a1,1,0,0,0-.91.68,2,2,0,0,0-.06.43v3.07h-1.26v-3c0-.71-.28-1.22-.88-1.22a1,1,0,0,0-.93.74,1.12,1.12,0,0,0-.07.42v3H109.4Z"/><path class="cls-4" d="M119.22,121.1a1.38,1.38,0,0,0,1.57,1.32,4,4,0,0,0,1.42-.23l.19.89a4.8,4.8,0,0,1-1.79.31,2.41,2.41,0,0,1-2.63-2.58,2.53,2.53,0,0,1,2.5-2.75,2.22,2.22,0,0,1,2.2,2.49,3.45,3.45,0,0,1,0,.55Zm2.24-.91a1.1,1.1,0,0,0-1.06-1.25,1.27,1.27,0,0,0-1.18,1.25Z"/><path class="cls-4" d="M123.72,119.7c0-.59,0-1.08,0-1.52h1.13l.07.76h0a1.85,1.85,0,0,1,1.63-.88c.89,0,1.81.58,1.81,2.2v3h-1.29V120.4c0-.73-.27-1.29-1-1.29a1.07,1.07,0,0,0-1,.76,1.33,1.33,0,0,0-.06.42v3h-1.3Z"/><path class="cls-4" d="M131.21,116.72v1.46h1.23v1h-1.23v2.26c0,.62.17.94.66.94a1.93,1.93,0,0,0,.5-.06l0,1a2.89,2.89,0,0,1-.93.12,1.46,1.46,0,0,1-1.11-.42,2,2,0,0,1-.4-1.42v-2.41h-.74v-1H130V117Z"/><path class="cls-4" d="M196.21,104a11.67,11.67,0,0,1,2-.15,3.25,3.25,0,0,1,2.18.57,1.78,1.78,0,0,1,.61,1.41,1.89,1.89,0,0,1-1.28,1.78v0a1.81,1.81,0,0,1,1,1.36,15.05,15.05,0,0,0,.55,2h-1.33a9.71,9.71,0,0,1-.47-1.67c-.2-.92-.54-1.22-1.27-1.24h-.65v2.91h-1.29Zm1.29,3.13h.76c.87,0,1.42-.46,1.42-1.17s-.55-1.13-1.39-1.13a3.75,3.75,0,0,0-.79.06Z"/><path class="cls-4" d="M203.05,108.74a1.39,1.39,0,0,0,1.57,1.33,4,4,0,0,0,1.42-.23l.19.89a4.78,4.78,0,0,1-1.78.31,2.42,2.42,0,0,1-2.64-2.58,2.53,2.53,0,0,1,2.5-2.75,2.22,2.22,0,0,1,2.2,2.49,3.21,3.21,0,0,1,0,.54Zm2.25-.9a1.1,1.1,0,0,0-1.06-1.25,1.27,1.27,0,0,0-1.19,1.25Z"/><path class="cls-4" d="M208.37,105.83l.83,2.59c.15.45.25.86.35,1.28h0c.09-.42.21-.82.35-1.28l.81-2.59h1.36l-1.95,5.11h-1.27l-1.9-5.11Z"/><path class="cls-4" d="M213.8,108.74a1.39,1.39,0,0,0,1.58,1.33,4,4,0,0,0,1.41-.23l.19.89a4.78,4.78,0,0,1-1.78.31,2.42,2.42,0,0,1-2.64-2.58,2.53,2.53,0,0,1,2.5-2.75,2.23,2.23,0,0,1,2.21,2.49,2.28,2.28,0,0,1-.05.54Zm2.25-.9a1.1,1.1,0,0,0-1.06-1.25,1.27,1.27,0,0,0-1.19,1.25Z"/><path class="cls-4" d="M218.31,107.35c0-.59,0-1.08-.05-1.52h1.14l.06.76h0a1.85,1.85,0,0,1,1.63-.88c.89,0,1.82.58,1.82,2.19v3h-1.3v-2.89c0-.73-.27-1.29-1-1.29a1.09,1.09,0,0,0-1,.76,1.34,1.34,0,0,0,0,.42v3h-1.3Z"/><path class="cls-4" d="M228.89,109.41c0,.61,0,1.11,0,1.53H227.8l-.07-.78h0a1.83,1.83,0,0,1-1.63.89c-.94,0-1.79-.55-1.79-2.22v-3h1.29v2.78c0,.85.28,1.39,1,1.39a1.07,1.07,0,0,0,1-.69,1,1,0,0,0,.08-.4v-3.08h1.29Z"/><path class="cls-4" d="M231.2,108.74a1.39,1.39,0,0,0,1.57,1.33,4,4,0,0,0,1.42-.23l.19.89a4.78,4.78,0,0,1-1.78.31,2.42,2.42,0,0,1-2.64-2.58,2.53,2.53,0,0,1,2.5-2.75,2.22,2.22,0,0,1,2.2,2.49,3.21,3.21,0,0,1,0,.54Zm2.25-.9a1.1,1.1,0,0,0-1.06-1.25,1.27,1.27,0,0,0-1.19,1.25Z"/><path class="cls-4" d="M237.88,107.47c0-.69,0-1.18,0-1.64H239l0,1h0a1.53,1.53,0,0,1,1.4-1.09,1.39,1.39,0,0,1,.3,0V107a1.82,1.82,0,0,0-.37,0,1.15,1.15,0,0,0-1.16,1,2.46,2.46,0,0,0,0,.4v2.65h-1.29Z"/><path class="cls-4" d="M242.53,108.74a1.39,1.39,0,0,0,1.57,1.33,4,4,0,0,0,1.42-.23l.19.89a4.8,4.8,0,0,1-1.79.31,2.41,2.41,0,0,1-2.63-2.58,2.53,2.53,0,0,1,2.5-2.75,2.22,2.22,0,0,1,2.2,2.49,3.21,3.21,0,0,1,0,.54Zm2.25-.9a1.1,1.1,0,0,0-1.07-1.25,1.27,1.27,0,0,0-1.18,1.25Z"/><path class="cls-4" d="M250.79,110.78a3.67,3.67,0,0,1-1.45.26,2.45,2.45,0,0,1-2.63-2.6,2.64,2.64,0,0,1,2.84-2.73,3.3,3.3,0,0,1,1.25.24l-.23,1a2.18,2.18,0,0,0-1-.2,1.66,1.66,0,0,0,0,3.31,2.58,2.58,0,0,0,1-.2Z"/><path class="cls-4" d="M256.61,108.34a2.53,2.53,0,0,1-2.63,2.71,2.47,2.47,0,0,1-2.56-2.63,2.53,2.53,0,0,1,2.65-2.71A2.45,2.45,0,0,1,256.61,108.34Zm-3.85,0c0,1,.48,1.73,1.27,1.73s1.25-.72,1.25-1.75c0-.8-.36-1.71-1.24-1.71S252.76,107.54,252.76,108.39Z"/><path class="cls-4" d="M262.34,105.83c0,.34,0,.76,0,1.47v2.89a2.94,2.94,0,0,1-.76,2.32,2.89,2.89,0,0,1-2,.62,3.52,3.52,0,0,1-1.78-.41l.28-1a3.05,3.05,0,0,0,1.49.39,1.36,1.36,0,0,0,1.47-1.55v-.44h0a1.74,1.74,0,0,1-1.49.76,2.27,2.27,0,0,1-2.18-2.5,2.46,2.46,0,0,1,2.32-2.7,1.6,1.6,0,0,1,1.48.8h0l.05-.68Zm-1.33,2a1.27,1.27,0,0,0,0-.34,1.07,1.07,0,0,0-1.05-.83c-.73,0-1.26.63-1.26,1.67,0,.87.44,1.57,1.25,1.57a1.1,1.1,0,0,0,1-.78,2.24,2.24,0,0,0,.05-.46Z"/><path class="cls-4" d="M263.69,107.35c0-.59,0-1.08-.05-1.52h1.14l.06.76h0a1.85,1.85,0,0,1,1.63-.88c.89,0,1.82.58,1.82,2.19v3H267v-2.89c0-.73-.27-1.29-1-1.29a1.09,1.09,0,0,0-1,.76,1.34,1.34,0,0,0-.05.42v3h-1.3Z"/><path class="cls-4" d="M271.07,104.4a.69.69,0,0,1-.74.69.67.67,0,0,1-.71-.69.68.68,0,0,1,.72-.7A.69.69,0,0,1,271.07,104.4Zm-1.38,6.54v-5.11H271v5.11Z"/><path class="cls-4" d="M273.86,104.37v1.46h1.23v1h-1.23v2.26c0,.62.17.94.66.94a2.09,2.09,0,0,0,.51-.06l0,1a3,3,0,0,1-.94.12,1.46,1.46,0,0,1-1.11-.42,2,2,0,0,1-.4-1.42v-2.41h-.73v-1h.73v-1.16Z"/><path class="cls-4" d="M277.44,104.4a.73.73,0,0,1-1.45,0,.69.69,0,0,1,.73-.7A.68.68,0,0,1,277.44,104.4Zm-1.37,6.54v-5.11h1.3v5.11Z"/><path class="cls-4" d="M283.61,108.34a2.53,2.53,0,0,1-2.62,2.71,2.46,2.46,0,0,1-2.56-2.63,2.52,2.52,0,0,1,2.64-2.71A2.45,2.45,0,0,1,283.61,108.34Zm-3.85,0c0,1,.48,1.73,1.27,1.73s1.25-.72,1.25-1.75c0-.8-.36-1.71-1.24-1.71S279.76,107.54,279.76,108.39Z"/><path class="cls-4" d="M284.68,107.35c0-.59,0-1.08-.05-1.52h1.14l.06.76h0a1.85,1.85,0,0,1,1.63-.88c.89,0,1.81.58,1.81,2.19v3H288v-2.89c0-.73-.27-1.29-1-1.29a1.09,1.09,0,0,0-1,.76,1.34,1.34,0,0,0,0,.42v3h-1.3Z"/><path class="cls-4" d="M213.5,121.94l-.09-.57h0a1.89,1.89,0,0,1-1.51.68,1.52,1.52,0,0,1-1.61-1.52c0-1.29,1.15-1.94,3-1.93v-.08c0-.34-.14-.89-1-.89a2.72,2.72,0,0,0-1.38.37l-.25-.84a3.7,3.7,0,0,1,1.85-.45,1.91,1.91,0,0,1,2.11,2.15v1.85a8.69,8.69,0,0,0,.07,1.23Zm-.17-2.5c-.91,0-1.79.18-1.79,1a.68.68,0,0,0,.74.73,1.06,1.06,0,0,0,1-.7,1,1,0,0,0,0-.29Z"/><path class="cls-4" d="M216,118.35c0-.59,0-1.08,0-1.52h1.14l.06.76h0a1.85,1.85,0,0,1,1.63-.88c.89,0,1.81.58,1.81,2.19v3h-1.29v-2.89c0-.73-.27-1.29-1-1.29a1.09,1.09,0,0,0-1,.76,1.34,1.34,0,0,0-.05.42v3H216Z"/><path class="cls-4" d="M226.67,114.49v6c0,.53,0,1.09.05,1.44h-1.16l-.05-.81h0a1.84,1.84,0,0,1-1.67.92,2.34,2.34,0,0,1-2.19-2.61,2.44,2.44,0,0,1,2.29-2.73,1.62,1.62,0,0,1,1.44.67h0v-2.89ZM225.38,119a2,2,0,0,0,0-.34,1.12,1.12,0,0,0-1.11-.91c-.83,0-1.29.73-1.29,1.69s.46,1.62,1.28,1.62a1.15,1.15,0,0,0,1.11-.92,1.48,1.48,0,0,0,0-.38Z"/><path class="cls-4" d="M230.19,121.94c0-.35,0-.91,0-1.44v-6h1.3v3h0a1.85,1.85,0,0,1,1.63-.82c1.25,0,2.15,1,2.13,2.59a2.44,2.44,0,0,1-2.32,2.75,1.75,1.75,0,0,1-1.61-.88h0l-.07.77Zm1.34-2.11a1.45,1.45,0,0,0,0,.3,1.18,1.18,0,0,0,1.14.91c.81,0,1.3-.66,1.3-1.68s-.43-1.64-1.29-1.64a1.21,1.21,0,0,0-1.14.94,1.67,1.67,0,0,0,0,.34Z"/><path class="cls-4" d="M241,120.41c0,.61,0,1.11.05,1.53h-1.14l-.06-.78h0a1.85,1.85,0,0,1-1.64.89c-.93,0-1.78-.55-1.78-2.22v-3h1.29v2.78c0,.85.27,1.39.95,1.39a1.08,1.08,0,0,0,1-.69,1.19,1.19,0,0,0,.07-.4v-3.08H241Z"/><path class="cls-4" d="M246.11,121.78a3.67,3.67,0,0,1-1.45.26,2.44,2.44,0,0,1-2.63-2.6,2.64,2.64,0,0,1,2.84-2.73,3.35,3.35,0,0,1,1.25.24l-.23,1a2.22,2.22,0,0,0-1-.2,1.66,1.66,0,0,0,0,3.31,2.62,2.62,0,0,0,1-.2Z"/><path class="cls-4" d="M248.36,119.07h0a6.34,6.34,0,0,1,.41-.6l1.24-1.64h1.55l-1.89,2.09,2.16,3h-1.58l-1.47-2.26-.44.52v1.74h-1.3v-7.45h1.3Z"/><path class="cls-4" d="M253.32,119.74a1.39,1.39,0,0,0,1.58,1.33,3.91,3.91,0,0,0,1.41-.23l.19.89a4.78,4.78,0,0,1-1.78.31,2.42,2.42,0,0,1-2.64-2.58,2.53,2.53,0,0,1,2.5-2.75,2.23,2.23,0,0,1,2.21,2.49,3.21,3.21,0,0,1,0,.54Zm2.25-.9a1.1,1.1,0,0,0-1.06-1.25,1.27,1.27,0,0,0-1.19,1.25Z"/><path class="cls-4" d="M259.31,115.37v1.46h1.23v1h-1.23v2.26c0,.62.17.94.66.94a1.93,1.93,0,0,0,.5-.06l0,1a2.94,2.94,0,0,1-.93.12,1.46,1.46,0,0,1-1.11-.42,2,2,0,0,1-.4-1.42v-2.41h-.74v-1h.74v-1.16Z"/><path class="cls-4" d="M262.89,115.4a.69.69,0,0,1-.74.69.67.67,0,0,1-.71-.69.68.68,0,0,1,.72-.7A.69.69,0,0,1,262.89,115.4Zm-1.38,6.54v-5.11h1.3v5.11Z"/><path class="cls-4" d="M264.2,118.35c0-.59,0-1.08,0-1.52h1.13l.07.76h0a1.83,1.83,0,0,1,1.62-.88c.9,0,1.82.58,1.82,2.19v3h-1.29v-2.89c0-.73-.27-1.29-1-1.29a1.1,1.1,0,0,0-1,.76,1.34,1.34,0,0,0-.05.42v3h-1.3Z"/><path class="cls-4" d="M274.88,116.83c0,.34,0,.76,0,1.47v2.89a2.94,2.94,0,0,1-.76,2.32,2.91,2.91,0,0,1-2,.62,3.56,3.56,0,0,1-1.79-.41l.29-1a3.05,3.05,0,0,0,1.49.39,1.36,1.36,0,0,0,1.47-1.55v-.44h0a1.72,1.72,0,0,1-1.49.76,2.27,2.27,0,0,1-2.17-2.5,2.45,2.45,0,0,1,2.32-2.7,1.6,1.6,0,0,1,1.48.8h0l.05-.68Zm-1.34,2a1.27,1.27,0,0,0,0-.34,1.06,1.06,0,0,0-1.05-.83c-.72,0-1.26.63-1.26,1.67,0,.87.44,1.57,1.25,1.57a1.08,1.08,0,0,0,1.05-.78,2.24,2.24,0,0,0,.05-.46Z"/><path class="cls-4" d="M129.84,314.15a3.59,3.59,0,0,0,1.71.45c.83,0,1.29-.39,1.29-1s-.36-.85-1.26-1.17c-1.16-.42-1.91-1-1.91-2.06s1-2,2.5-2a3.73,3.73,0,0,1,1.7.35l-.32,1a3,3,0,0,0-1.4-.34c-.82,0-1.18.45-1.18.86s.41.79,1.36,1.16c1.22.46,1.82,1.08,1.82,2.1s-.86,2.12-2.69,2.12a4.24,4.24,0,0,1-1.91-.44Z"/><path class="cls-4" d="M135.27,312c0-.58,0-1.08-.05-1.52h1.12l0,.76h0a1.76,1.76,0,0,1,1.58-.87,1.47,1.47,0,0,1,1.41.94h0a2,2,0,0,1,.63-.64,1.72,1.72,0,0,1,1-.3c.85,0,1.71.57,1.71,2.21v3h-1.26v-2.83c0-.85-.29-1.35-.91-1.35a1,1,0,0,0-.9.68,1.94,1.94,0,0,0-.06.43v3.07h-1.26v-3c0-.72-.29-1.22-.89-1.22a1,1,0,0,0-.92.73,1.16,1.16,0,0,0-.07.42v3h-1.26Z"/><path class="cls-4" d="M147.05,315.56,147,315h0a1.89,1.89,0,0,1-1.51.68,1.52,1.52,0,0,1-1.61-1.52c0-1.29,1.15-1.94,3-1.93v-.09c0-.33-.14-.89-1-.89a2.72,2.72,0,0,0-1.38.38l-.25-.84a3.7,3.7,0,0,1,1.85-.45,1.91,1.91,0,0,1,2.11,2.15v1.85a8.69,8.69,0,0,0,.07,1.23Zm-.17-2.5c-.91,0-1.79.18-1.79.95a.68.68,0,0,0,.74.74,1.06,1.06,0,0,0,1-.71,1,1,0,0,0,0-.28Z"/><path class="cls-4" d="M149.5,312.09c0-.69,0-1.19,0-1.65h1.13l0,1h0a1.53,1.53,0,0,1,1.4-1.09,1.39,1.39,0,0,1,.3,0v1.22a1.84,1.84,0,0,0-.38,0,1.12,1.12,0,0,0-1.15,1,2.35,2.35,0,0,0,0,.4v2.65h-1.3Z"/><path class="cls-4" d="M154.72,309v1.46H156v1h-1.23v2.26c0,.62.17.94.66.94a2.09,2.09,0,0,0,.51-.06l0,1a3,3,0,0,1-.94.12,1.5,1.5,0,0,1-1.11-.42,2.05,2.05,0,0,1-.4-1.43v-2.4h-.73v-1h.73v-1.15Z"/><path class="cls-4" d="M159.1,312.09c0-.69,0-1.19,0-1.65h1.12l0,1h.05a1.53,1.53,0,0,1,1.39-1.09,1.48,1.48,0,0,1,.31,0v1.22a1.92,1.92,0,0,0-.38,0,1.14,1.14,0,0,0-1.16,1,2.35,2.35,0,0,0,0,.4v2.65H159.1Z"/><path class="cls-4" d="M163.75,313.36c0,.93.76,1.32,1.58,1.32a3.71,3.71,0,0,0,1.41-.23l.19.9a5,5,0,0,1-1.78.31,2.42,2.42,0,0,1-2.64-2.58,2.54,2.54,0,0,1,2.5-2.75,2.22,2.22,0,0,1,2.21,2.49,2.28,2.28,0,0,1-.05.54Zm2.25-.9a1.1,1.1,0,0,0-1.06-1.25,1.26,1.26,0,0,0-1.19,1.25Z"/><path class="cls-4" d="M168.26,312.14c0-.67,0-1.21,0-1.7h1.14l.06.79h0a2,2,0,0,1,1.76-.9,2.32,2.32,0,0,1,2.15,2.6,2.43,2.43,0,0,1-2.33,2.74,1.68,1.68,0,0,1-1.44-.68h0v2.64h-1.29Zm1.29,1.27a1.37,1.37,0,0,0,0,.36,1.16,1.16,0,0,0,1.13.9c.82,0,1.31-.68,1.31-1.69s-.45-1.63-1.27-1.63a1.2,1.2,0,0,0-1.16.95,1.26,1.26,0,0,0,0,.33Z"/><path class="cls-4" d="M179.26,313a2.53,2.53,0,0,1-2.62,2.72,2.48,2.48,0,0,1-2.57-2.63,2.53,2.53,0,0,1,2.65-2.71A2.45,2.45,0,0,1,179.26,313Zm-3.85.05c0,1,.48,1.74,1.27,1.74s1.25-.73,1.25-1.76c0-.79-.36-1.71-1.24-1.71S175.41,312.15,175.41,313Z"/><path class="cls-4" d="M180.32,312.09c0-.69,0-1.19,0-1.65h1.12l0,1h.05a1.53,1.53,0,0,1,1.39-1.09,1.48,1.48,0,0,1,.31,0v1.22a1.92,1.92,0,0,0-.38,0,1.14,1.14,0,0,0-1.16,1,2.35,2.35,0,0,0,0,.4v2.65h-1.29Z"/><path class="cls-4" d="M185.54,309v1.46h1.23v1h-1.23v2.26c0,.62.17.94.66.94a2.09,2.09,0,0,0,.51-.06l0,1a3,3,0,0,1-.94.12,1.5,1.5,0,0,1-1.11-.42,2.05,2.05,0,0,1-.4-1.43v-2.4h-.74v-1h.74v-1.15Z"/><path class="cls-4" d="M189.12,309a.73.73,0,0,1-1.45,0,.73.73,0,0,1,1.45,0Zm-1.38,6.54v-5.12h1.31v5.12Z"/><path class="cls-4" d="M190.43,312c0-.58,0-1.08,0-1.52h1.13l.07.77h0a1.85,1.85,0,0,1,1.63-.88c.89,0,1.81.57,1.81,2.19v3h-1.29v-2.89c0-.74-.27-1.29-1-1.29a1.06,1.06,0,0,0-1,.75,1.42,1.42,0,0,0-.06.42v3h-1.3Z"/><path class="cls-4" d="M201.11,310.44c0,.35,0,.77,0,1.47v2.9a2.47,2.47,0,0,1-2.73,2.94,3.7,3.7,0,0,1-1.79-.41l.29-1a3.05,3.05,0,0,0,1.49.39,1.36,1.36,0,0,0,1.47-1.54v-.44h0a1.73,1.73,0,0,1-1.49.75,2.27,2.27,0,0,1-2.18-2.49,2.46,2.46,0,0,1,2.32-2.7,1.6,1.6,0,0,1,1.48.8h0l.06-.69Zm-1.33,2.05a1.17,1.17,0,0,0-1.09-1.18c-.73,0-1.26.63-1.26,1.67,0,.88.44,1.58,1.24,1.58a1.1,1.1,0,0,0,1.05-.78,1.76,1.76,0,0,0,.06-.46Z"/><path class="cls-4" d="M207.5,315.56l-.08-.57h0a1.9,1.9,0,0,1-1.51.68,1.52,1.52,0,0,1-1.61-1.52c0-1.29,1.15-1.94,3-1.93v-.09c0-.33-.14-.89-1-.89a2.72,2.72,0,0,0-1.38.38l-.25-.84a3.7,3.7,0,0,1,1.85-.45,1.92,1.92,0,0,1,2.11,2.15v1.85a8.69,8.69,0,0,0,.07,1.23Zm-.16-2.5c-.92,0-1.79.18-1.79.95a.68.68,0,0,0,.74.74,1,1,0,0,0,1-.71.72.72,0,0,0,.05-.28Z"/><path class="cls-4" d="M210,312c0-.58,0-1.08,0-1.52h1.13l.07.77h0a1.85,1.85,0,0,1,1.63-.88c.89,0,1.81.57,1.81,2.19v3H213.3v-2.89c0-.74-.27-1.29-1-1.29a1.06,1.06,0,0,0-1,.75,1.16,1.16,0,0,0-.06.42v3H210Z"/><path class="cls-4" d="M220.68,308.1v6c0,.52,0,1.09,0,1.44h-1.15l0-.81h0a1.86,1.86,0,0,1-1.67.92,2.34,2.34,0,0,1-2.19-2.61,2.43,2.43,0,0,1,2.29-2.73,1.63,1.63,0,0,1,1.44.67h0v-2.9Zm-1.29,4.47a1.84,1.84,0,0,0,0-.33,1.14,1.14,0,0,0-1.11-.92c-.83,0-1.29.74-1.29,1.7s.46,1.61,1.28,1.61a1.14,1.14,0,0,0,1.11-.91,1.53,1.53,0,0,0,0-.38Z"/><path class="cls-4" d="M131.85,323.14c0-.67,0-1.21,0-1.7h1.13l.06.79h0a2,2,0,0,1,1.76-.9,2.32,2.32,0,0,1,2.15,2.6,2.43,2.43,0,0,1-2.33,2.74,1.68,1.68,0,0,1-1.44-.68h0v2.64h-1.29Zm1.29,1.27a1.37,1.37,0,0,0,0,.36,1.17,1.17,0,0,0,1.14.9c.81,0,1.3-.68,1.3-1.69s-.44-1.63-1.27-1.63a1.2,1.2,0,0,0-1.16.95,1.26,1.26,0,0,0-.05.33Z"/><path class="cls-4" d="M138,323.09c0-.69,0-1.19,0-1.65h1.12l0,1h0a1.53,1.53,0,0,1,1.39-1.09,1.48,1.48,0,0,1,.31,0v1.22a1.92,1.92,0,0,0-.38,0,1.14,1.14,0,0,0-1.16,1,2.35,2.35,0,0,0,0,.4v2.65H138Z"/><path class="cls-4" d="M142.64,324.36c0,.93.76,1.32,1.58,1.32a3.71,3.71,0,0,0,1.41-.23l.19.9a5,5,0,0,1-1.78.31,2.42,2.42,0,0,1-2.64-2.58,2.53,2.53,0,0,1,2.5-2.75,2.22,2.22,0,0,1,2.21,2.49,2.28,2.28,0,0,1-.05.54Zm2.25-.9a1.1,1.1,0,0,0-1.06-1.25,1.27,1.27,0,0,0-1.19,1.25Z"/><path class="cls-4" d="M151.86,319.1v6c0,.52,0,1.09,0,1.44h-1.15l-.05-.81h0a1.84,1.84,0,0,1-1.67.92,2.34,2.34,0,0,1-2.18-2.61,2.43,2.43,0,0,1,2.29-2.73,1.63,1.63,0,0,1,1.44.67h0v-2.9Zm-1.29,4.47a1.84,1.84,0,0,0,0-.33,1.14,1.14,0,0,0-1.12-.92c-.82,0-1.29.74-1.29,1.7s.47,1.61,1.28,1.61a1.14,1.14,0,0,0,1.12-.91,1.53,1.53,0,0,0,0-.38Z"/><path class="cls-4" d="M154.62,320a.73.73,0,0,1-1.45,0,.7.7,0,0,1,.73-.71A.69.69,0,0,1,154.62,320Zm-1.37,6.54v-5.12h1.3v5.12Z"/><path class="cls-4" d="M159.69,326.4a3.8,3.8,0,0,1-1.44.26,2.46,2.46,0,0,1-2.64-2.6,2.64,2.64,0,0,1,2.85-2.73,3.11,3.11,0,0,1,1.24.24l-.23,1a2.17,2.17,0,0,0-1-.2,1.65,1.65,0,0,0,0,3.3,2.48,2.48,0,0,0,1-.2Z"/><path class="cls-4" d="M162.13,320v1.46h1.23v1h-1.23v2.26c0,.62.17.94.66.94a1.93,1.93,0,0,0,.5-.06l0,1a3,3,0,0,1-.94.12,1.5,1.5,0,0,1-1.11-.42,2.05,2.05,0,0,1-.4-1.43v-2.4h-.73v-1h.73v-1.15Z"/><path class="cls-4" d="M165.71,320a.73.73,0,0,1-1.45,0,.7.7,0,0,1,.73-.71A.69.69,0,0,1,165.71,320Zm-1.38,6.54v-5.12h1.31v5.12Z"/><path class="cls-4" d="M167.84,321.44l.83,2.6c.15.45.25.86.35,1.28h0c.09-.42.21-.82.35-1.28l.8-2.6h1.37l-1.95,5.12h-1.27l-1.9-5.12Z"/><path class="cls-4" d="M173.27,324.36c0,.93.76,1.32,1.58,1.32a3.78,3.78,0,0,0,1.41-.23l.19.9a5,5,0,0,1-1.78.31,2.42,2.42,0,0,1-2.64-2.58,2.53,2.53,0,0,1,2.5-2.75,2.22,2.22,0,0,1,2.2,2.49,3.21,3.21,0,0,1,0,.54Zm2.25-.9a1.1,1.1,0,0,0-1.06-1.25,1.26,1.26,0,0,0-1.19,1.25Z"/><path class="cls-4" d="M182.83,326.56l-.09-.57h0a1.9,1.9,0,0,1-1.51.68,1.52,1.52,0,0,1-1.61-1.52c0-1.29,1.15-1.94,3-1.93v-.09c0-.33-.14-.89-1-.89a2.72,2.72,0,0,0-1.38.38l-.25-.84a3.7,3.7,0,0,1,1.85-.45,1.92,1.92,0,0,1,2.11,2.15v1.85a8.69,8.69,0,0,0,.07,1.23Zm-.17-2.5c-.92,0-1.79.18-1.79.95a.68.68,0,0,0,.74.74,1.06,1.06,0,0,0,1-.71,1,1,0,0,0,0-.28Z"/><path class="cls-4" d="M185.28,323c0-.58,0-1.08,0-1.52h1.13l.07.77h0a1.85,1.85,0,0,1,1.63-.88c.89,0,1.81.57,1.81,2.19v3h-1.29v-2.89c0-.74-.27-1.29-1-1.29a1.06,1.06,0,0,0-1,.75,1.16,1.16,0,0,0-.06.42v3h-1.3Z"/><path class="cls-4" d="M194.17,326.56l-.09-.57h0a1.9,1.9,0,0,1-1.51.68,1.52,1.52,0,0,1-1.61-1.52c0-1.29,1.15-1.94,3-1.93v-.09c0-.33-.13-.89-1-.89a2.72,2.72,0,0,0-1.38.38l-.25-.84a3.7,3.7,0,0,1,1.85-.45,1.92,1.92,0,0,1,2.11,2.15v1.85a8.69,8.69,0,0,0,.07,1.23Zm-.17-2.5c-.92,0-1.79.18-1.79.95a.68.68,0,0,0,.74.74,1.06,1.06,0,0,0,1-.71,1,1,0,0,0,0-.28Z"/><path class="cls-4" d="M196.62,319.1h1.3v7.46h-1.3Z"/><path class="cls-4" d="M200.13,321.44l.92,2.74c.11.32.21.71.29,1h0l.27-1,.8-2.73h1.38l-1.28,3.49c-.7,1.91-1.17,2.76-1.78,3.28a2.64,2.64,0,0,1-1.36.67l-.29-1.1a2.2,2.2,0,0,0,.76-.35,2.36,2.36,0,0,0,.7-.81.57.57,0,0,0,.08-.23.55.55,0,0,0-.07-.25l-1.87-4.7Z"/><path class="cls-4" d="M206.05,320v1.46h1.23v1h-1.23v2.26c0,.62.17.94.66.94a2.09,2.09,0,0,0,.51-.06l0,1a3,3,0,0,1-.94.12,1.5,1.5,0,0,1-1.11-.42,2.05,2.05,0,0,1-.4-1.43v-2.4h-.73v-1h.73v-1.15Z"/><path class="cls-4" d="M209.63,320a.73.73,0,0,1-1.45,0,.7.7,0,0,1,.73-.71A.69.69,0,0,1,209.63,320Zm-1.37,6.54v-5.12h1.3v5.12Z"/><path class="cls-4" d="M214.7,326.4a3.86,3.86,0,0,1-1.45.26,2.45,2.45,0,0,1-2.63-2.6,2.64,2.64,0,0,1,2.84-2.73,3.12,3.12,0,0,1,1.25.24l-.23,1a2.17,2.17,0,0,0-1-.2,1.65,1.65,0,0,0,0,3.3,2.4,2.4,0,0,0,1-.2Z"/><path class="cls-4" d="M215.6,325.37a2.85,2.85,0,0,0,1.31.37c.56,0,.82-.23.82-.57s-.21-.53-.84-.75c-1-.34-1.42-.89-1.41-1.49a1.71,1.71,0,0,1,1.93-1.6,3,3,0,0,1,1.36.3l-.26.91a2.37,2.37,0,0,0-1.08-.29c-.46,0-.71.22-.71.54s.24.48.89.71c.93.34,1.35.81,1.37,1.56,0,.93-.73,1.6-2.08,1.6a3.33,3.33,0,0,1-1.56-.36Z"/><path class="cls-4" d="M22,225h1.29v6H26.2v1.09H22Z"/><path class="cls-4" d="M28.5,225.52a.69.69,0,0,1-.74.69.68.68,0,0,1-.71-.69.69.69,0,0,1,.72-.71A.7.7,0,0,1,28.5,225.52Zm-1.38,6.54v-5.12h1.3v5.12Z"/><path class="cls-4" d="M33.57,231.9a3.9,3.9,0,0,1-1.45.26,2.46,2.46,0,0,1-2.64-2.6,2.65,2.65,0,0,1,2.85-2.73,3.16,3.16,0,0,1,1.25.24l-.23,1a2.22,2.22,0,0,0-1-.2,1.65,1.65,0,0,0,0,3.3,2.45,2.45,0,0,0,1-.2Z"/><path class="cls-4" d="M35.44,229.86c0,.93.75,1.32,1.57,1.32a3.8,3.8,0,0,0,1.42-.23l.19.9a5,5,0,0,1-1.79.31,2.42,2.42,0,0,1-2.63-2.58,2.53,2.53,0,0,1,2.5-2.75,2.22,2.22,0,0,1,2.2,2.49,3.21,3.21,0,0,1,0,.54Zm2.24-.9a1.1,1.1,0,0,0-1.06-1.25A1.26,1.26,0,0,0,35.44,229Z"/><path class="cls-4" d="M39.94,228.47c0-.59,0-1.09,0-1.53H41l.07.77h0a1.85,1.85,0,0,1,1.63-.88c.89,0,1.81.58,1.81,2.19v3H43.28v-2.89c0-.74-.27-1.29-1-1.29a1.08,1.08,0,0,0-1,.75,1.16,1.16,0,0,0-.06.42v3h-1.3Z"/><path class="cls-4" d="M45.88,230.87a2.92,2.92,0,0,0,1.32.37c.56,0,.82-.23.82-.57s-.21-.52-.84-.75c-1-.34-1.42-.89-1.41-1.49a1.71,1.71,0,0,1,1.93-1.6,3.15,3.15,0,0,1,1.36.3l-.26.92a2.24,2.24,0,0,0-1.08-.3c-.46,0-.71.22-.71.54s.24.48.89.71c.92.34,1.35.81,1.37,1.57,0,.92-.73,1.59-2.08,1.59a3.33,3.33,0,0,1-1.56-.36Z"/><path class="cls-4" d="M51.7,225.52a.73.73,0,0,1-1.45,0,.7.7,0,0,1,.73-.71A.69.69,0,0,1,51.7,225.52Zm-1.37,6.54v-5.12h1.3v5.12Z"/><path class="cls-4" d="M53,228.47c0-.59,0-1.09,0-1.53h1.14l.06.77h0a1.85,1.85,0,0,1,1.63-.88c.89,0,1.81.58,1.81,2.19v3H56.35v-2.89c0-.74-.27-1.29-1-1.29a1.09,1.09,0,0,0-1,.75,1.42,1.42,0,0,0,0,.42v3H53Z"/><path class="cls-4" d="M63.69,226.94c0,.35,0,.77,0,1.47v2.9a2.47,2.47,0,0,1-2.73,2.94,3.63,3.63,0,0,1-1.78-.41l.28-1a3.08,3.08,0,0,0,1.49.39,1.36,1.36,0,0,0,1.47-1.54v-.44h0a1.73,1.73,0,0,1-1.49.75,2.26,2.26,0,0,1-2.17-2.49,2.45,2.45,0,0,1,2.32-2.7,1.63,1.63,0,0,1,1.48.8h0l0-.69ZM62.36,229a1.39,1.39,0,0,0,0-.35,1.07,1.07,0,0,0-1-.82c-.73,0-1.26.63-1.26,1.66s.44,1.58,1.25,1.58a1.11,1.11,0,0,0,1.05-.78,2.24,2.24,0,0,0,0-.46Z"/><path class="cls-4" d="M66.6,232.48l2.56-7.61h.91l-2.57,7.61Z"/><path class="cls-4" d="M77.64,224.6v6c0,.52,0,1.09,0,1.44H76.52l0-.81h0a1.85,1.85,0,0,1-1.67.92,2.34,2.34,0,0,1-2.18-2.61,2.43,2.43,0,0,1,2.28-2.73,1.62,1.62,0,0,1,1.44.67h0v-2.9Zm-1.3,4.48a1.87,1.87,0,0,0,0-.34,1.12,1.12,0,0,0-1.11-.91c-.83,0-1.29.73-1.29,1.69s.46,1.61,1.28,1.61a1.13,1.13,0,0,0,1.11-.91,1.53,1.53,0,0,0,0-.38Z"/><path class="cls-4" d="M80.4,225.52a.69.69,0,0,1-.74.69.68.68,0,0,1-.71-.69.69.69,0,0,1,.72-.71A.7.7,0,0,1,80.4,225.52ZM79,232.06v-5.12h1.3v5.12Z"/><path class="cls-4" d="M81.65,230.87a2.85,2.85,0,0,0,1.31.37c.57,0,.82-.23.82-.57s-.21-.52-.84-.75c-1-.34-1.42-.89-1.41-1.49a1.71,1.71,0,0,1,1.93-1.6,3.15,3.15,0,0,1,1.36.3l-.25.92a2.25,2.25,0,0,0-1.09-.3c-.46,0-.71.22-.71.54s.24.48.89.71c.93.34,1.36.81,1.37,1.57,0,.92-.73,1.59-2.08,1.59a3.25,3.25,0,0,1-1.55-.36Z"/><path class="cls-4" d="M87.57,225.48v1.46H88.8v1H87.57v2.26c0,.62.17.94.66.94a1.93,1.93,0,0,0,.5-.06l0,1a3,3,0,0,1-.94.12,1.5,1.5,0,0,1-1.11-.42,2,2,0,0,1-.4-1.43v-2.4h-.74v-1h.74v-1.15Z"/><path class="cls-4" d="M89.77,228.59c0-.69,0-1.18,0-1.65h1.13l0,1h0a1.53,1.53,0,0,1,1.4-1.09,1.39,1.39,0,0,1,.3,0v1.22a1.84,1.84,0,0,0-.38,0,1.12,1.12,0,0,0-1.15,1,2.35,2.35,0,0,0,0,.4v2.65h-1.3Z"/><path class="cls-4" d="M94.89,225.52a.69.69,0,0,1-.74.69.68.68,0,0,1-.71-.69.69.69,0,0,1,.72-.71A.7.7,0,0,1,94.89,225.52Zm-1.38,6.54v-5.12h1.3v5.12Z"/><path class="cls-4" d="M96.16,232.06c0-.35,0-.92,0-1.44v-6h1.29v3.05h0a1.84,1.84,0,0,1,1.64-.82c1.25,0,2.14,1,2.13,2.59A2.44,2.44,0,0,1,99,232.17a1.77,1.77,0,0,1-1.62-.88h0l-.06.77ZM97.49,230a1.45,1.45,0,0,0,0,.3,1.2,1.2,0,0,0,1.15.9c.81,0,1.3-.65,1.3-1.68s-.43-1.63-1.29-1.63a1.21,1.21,0,0,0-1.15.94,1.67,1.67,0,0,0,0,.34Z"/><path class="cls-4" d="M106.92,230.52c0,.61,0,1.12,0,1.54h-1.13l-.07-.78h0a1.83,1.83,0,0,1-1.63.89c-.94,0-1.79-.55-1.79-2.22v-3h1.29v2.79c0,.85.28,1.39,1,1.39a1.08,1.08,0,0,0,1-.69,1,1,0,0,0,.08-.4v-3.09h1.29Z"/><path class="cls-4" d="M109.8,225.48v1.46H111v1H109.8v2.26c0,.62.16.94.66.94a1.93,1.93,0,0,0,.5-.06l0,1a2.94,2.94,0,0,1-.93.12,1.5,1.5,0,0,1-1.11-.42,2,2,0,0,1-.4-1.43v-2.4h-.74v-1h.74v-1.15Z"/><path class="cls-4" d="M113.38,225.52a.69.69,0,0,1-.74.69.68.68,0,0,1-.71-.69.69.69,0,0,1,.72-.71A.7.7,0,0,1,113.38,225.52ZM112,232.06v-5.12h1.3v5.12Z"/><path class="cls-4" d="M119.55,229.45a2.53,2.53,0,0,1-2.62,2.72,2.47,2.47,0,0,1-2.56-2.63,2.52,2.52,0,0,1,2.64-2.71A2.45,2.45,0,0,1,119.55,229.45Zm-3.85.05c0,1,.48,1.74,1.27,1.74s1.25-.73,1.25-1.76c0-.79-.36-1.71-1.24-1.71S115.7,228.66,115.7,229.5Z"/><path class="cls-4" d="M120.61,228.47c0-.59,0-1.09,0-1.53h1.13l.07.77h0a1.85,1.85,0,0,1,1.63-.88c.89,0,1.81.58,1.81,2.19v3H124v-2.89c0-.74-.27-1.29-1-1.29a1.08,1.08,0,0,0-1,.75,1.16,1.16,0,0,0-.06.42v3h-1.3Z"/><path class="cls-4" d="M57,242.9a3.86,3.86,0,0,1-1.45.26,2.45,2.45,0,0,1-2.63-2.6,2.64,2.64,0,0,1,2.84-2.73,3.16,3.16,0,0,1,1.25.24l-.23,1a2.18,2.18,0,0,0-1-.2,1.65,1.65,0,0,0,0,3.3,2.41,2.41,0,0,0,1-.2Z"/><path class="cls-4" d="M62.77,240.45a2.53,2.53,0,0,1-2.63,2.72,2.47,2.47,0,0,1-2.56-2.63,2.53,2.53,0,0,1,2.65-2.71A2.45,2.45,0,0,1,62.77,240.45Zm-3.85.05c0,1,.48,1.74,1.27,1.74s1.24-.73,1.24-1.76c0-.79-.35-1.71-1.23-1.71S58.92,239.66,58.92,240.5Z"/><path class="cls-4" d="M63.83,239.47c0-.59,0-1.09,0-1.53h1.13l.06.77h0a1.83,1.83,0,0,1,1.62-.88c.9,0,1.82.58,1.82,2.19v3H67.17v-2.89c0-.74-.28-1.29-1-1.29a1.1,1.1,0,0,0-1,.75,1.42,1.42,0,0,0-.05.42v3h-1.3Z"/><path class="cls-4" d="M71.32,236.48v1.46h1.22v1H71.32v2.26c0,.62.16.94.66.94a1.93,1.93,0,0,0,.5-.06l0,1a2.94,2.94,0,0,1-.93.12,1.48,1.48,0,0,1-1.11-.42,2,2,0,0,1-.4-1.43v-2.4h-.74v-1h.74v-1.15Z"/><path class="cls-4" d="M73.52,239.59c0-.69,0-1.18,0-1.65H74.6l0,1h0a1.53,1.53,0,0,1,1.39-1.09,1.48,1.48,0,0,1,.31,0v1.22a1.92,1.92,0,0,0-.38,0,1.14,1.14,0,0,0-1.16,1,2.35,2.35,0,0,0,0,.4v2.65H73.52Z"/><path class="cls-4" d="M80.13,243.06l-.08-.57h0a1.89,1.89,0,0,1-1.51.68,1.52,1.52,0,0,1-1.61-1.52c0-1.29,1.15-1.94,3-1.93v-.09c0-.33-.14-.89-1-.89a2.72,2.72,0,0,0-1.38.38l-.25-.84a3.7,3.7,0,0,1,1.85-.45A1.92,1.92,0,0,1,81.23,240v1.85a8.69,8.69,0,0,0,.07,1.23Zm-.16-2.5c-.92,0-1.79.18-1.79.95a.68.68,0,0,0,.74.74,1,1,0,0,0,1-.71.72.72,0,0,0,0-.28Z"/><path class="cls-4" d="M86.35,242.9a3.86,3.86,0,0,1-1.45.26,2.45,2.45,0,0,1-2.63-2.6,2.64,2.64,0,0,1,2.84-2.73,3.16,3.16,0,0,1,1.25.24l-.23,1a2.18,2.18,0,0,0-1-.2,1.65,1.65,0,0,0,0,3.3,2.41,2.41,0,0,0,1-.2Z"/><path class="cls-4" d="M88.79,236.48v1.46H90v1H88.79v2.26c0,.62.17.94.66.94a1.93,1.93,0,0,0,.5-.06l0,1a2.94,2.94,0,0,1-.93.12,1.5,1.5,0,0,1-1.11-.42,2,2,0,0,1-.4-1.43v-2.4h-.74v-1h.74v-1.15Z"/><path class="cls-4" d="M90.93,241.87a2.85,2.85,0,0,0,1.31.37c.57,0,.82-.23.82-.57s-.21-.52-.84-.75c-1-.34-1.42-.89-1.41-1.49,0-.9.75-1.6,1.94-1.6a3.1,3.1,0,0,1,1.35.3l-.25.92a2.24,2.24,0,0,0-1.08-.3c-.47,0-.72.22-.72.54s.24.48.9.71c.92.34,1.35.81,1.36,1.57,0,.92-.73,1.59-2.08,1.59a3.25,3.25,0,0,1-1.55-.36Z"/><path class="cls-4" d="M43.77,250.47c0-.59,0-1.09,0-1.53h1.11l0,.76h0a1.79,1.79,0,0,1,1.58-.87,1.48,1.48,0,0,1,1.42.94h0a2,2,0,0,1,.63-.64,1.7,1.7,0,0,1,1-.3c.85,0,1.71.58,1.71,2.21v3H50.05v-2.83c0-.85-.3-1.35-.92-1.35a1,1,0,0,0-.9.68,1.94,1.94,0,0,0-.06.43v3.07H46.91v-3c0-.72-.28-1.22-.88-1.22a1,1,0,0,0-.93.73A1.2,1.2,0,0,0,45,251v3H43.77Z"/><path class="cls-4" d="M55.55,254.06l-.09-.57h0a1.89,1.89,0,0,1-1.51.68,1.51,1.51,0,0,1-1.6-1.52c0-1.29,1.14-1.94,3-1.93v-.09c0-.33-.14-.89-1-.89a2.69,2.69,0,0,0-1.37.38l-.26-.84a3.7,3.7,0,0,1,1.85-.45A1.91,1.91,0,0,1,56.64,251v1.85a8.69,8.69,0,0,0,.07,1.23Zm-.17-2.5c-.91,0-1.78.18-1.78.95a.67.67,0,0,0,.73.74,1,1,0,0,0,1-.71,1,1,0,0,0,0-.28Z"/><path class="cls-4" d="M58,250.47c0-.59,0-1.09,0-1.53H59.1l.06.77h0a1.85,1.85,0,0,1,1.63-.88c.89,0,1.82.58,1.82,2.19v3H61.35v-2.89c0-.74-.28-1.29-1-1.29a1.09,1.09,0,0,0-1,.75,1.42,1.42,0,0,0,0,.42v3H58Z"/><path class="cls-4" d="M66.89,254.06l-.09-.57h0a1.89,1.89,0,0,1-1.51.68,1.51,1.51,0,0,1-1.6-1.52c0-1.29,1.14-1.94,3-1.93v-.09c0-.33-.14-.89-1-.89a2.69,2.69,0,0,0-1.37.38l-.26-.84a3.7,3.7,0,0,1,1.85-.45A1.91,1.91,0,0,1,68,251v1.85a8.69,8.69,0,0,0,.07,1.23Zm-.17-2.5c-.91,0-1.78.18-1.78.95a.67.67,0,0,0,.73.74,1,1,0,0,0,1-.71,1,1,0,0,0,0-.28Z"/><path class="cls-4" d="M74,248.94c0,.35,0,.77,0,1.47v2.9a2.47,2.47,0,0,1-2.73,2.94,3.67,3.67,0,0,1-1.79-.41l.29-1a3.05,3.05,0,0,0,1.49.39,1.36,1.36,0,0,0,1.47-1.54v-.44h0a1.74,1.74,0,0,1-1.5.75A2.26,2.26,0,0,1,69,251.53a2.45,2.45,0,0,1,2.32-2.7,1.6,1.6,0,0,1,1.48.8h0l0-.69ZM72.69,251a1.41,1.41,0,0,0,0-.35,1.06,1.06,0,0,0-1-.82c-.72,0-1.26.63-1.26,1.66s.44,1.58,1.25,1.58a1.1,1.1,0,0,0,1-.78,2.22,2.22,0,0,0,.06-.46Z"/><path class="cls-4" d="M76.28,251.86c0,.93.75,1.32,1.57,1.32a3.8,3.8,0,0,0,1.42-.23l.19.9a5,5,0,0,1-1.79.31A2.41,2.41,0,0,1,75,251.58a2.53,2.53,0,0,1,2.5-2.75,2.22,2.22,0,0,1,2.2,2.49,3.21,3.21,0,0,1,0,.54Zm2.24-.9a1.1,1.1,0,0,0-1.06-1.25A1.26,1.26,0,0,0,76.28,251Z"/><path class="cls-4" d="M80.78,250.47c0-.59,0-1.09,0-1.53h1.11l.05.76h0a1.76,1.76,0,0,1,1.57-.87,1.48,1.48,0,0,1,1.42.94h0a2,2,0,0,1,.63-.64,1.7,1.7,0,0,1,1-.3c.85,0,1.71.58,1.71,2.21v3H87.06v-2.83c0-.85-.29-1.35-.91-1.35a1,1,0,0,0-.91.68,1.94,1.94,0,0,0-.06.43v3.07H83.92v-3c0-.72-.28-1.22-.88-1.22a1,1,0,0,0-.93.73A1.2,1.2,0,0,0,82,251v3H80.78Z"/><path class="cls-4" d="M90.6,251.86c0,.93.75,1.32,1.57,1.32a3.8,3.8,0,0,0,1.42-.23l.19.9a5,5,0,0,1-1.79.31,2.42,2.42,0,0,1-2.63-2.58,2.53,2.53,0,0,1,2.5-2.75,2.22,2.22,0,0,1,2.2,2.49,3.21,3.21,0,0,1,0,.54Zm2.24-.9a1.09,1.09,0,0,0-1-1.25A1.26,1.26,0,0,0,90.6,251Z"/><path class="cls-4" d="M95.1,250.47c0-.59,0-1.09,0-1.53H96.2l.06.77h0a1.85,1.85,0,0,1,1.63-.88c.89,0,1.81.58,1.81,2.19v3H98.44v-2.89c0-.74-.27-1.29-1-1.29a1.08,1.08,0,0,0-1,.75,1.42,1.42,0,0,0-.06.42v3H95.1Z"/><path class="cls-4" d="M102.59,247.48v1.46h1.23v1h-1.23v2.26c0,.62.17.94.66.94a1.93,1.93,0,0,0,.5-.06l0,1a3,3,0,0,1-.94.12,1.5,1.5,0,0,1-1.11-.42,2,2,0,0,1-.4-1.43v-2.4h-.74v-1h.74v-1.15Z"/><path class="cls-4" d="M265.47,242.27c0-.91-.09-2-.08-3h0c-.23.86-.53,1.82-.84,2.71l-1,3.06h-1l-.95-3c-.27-.9-.52-1.87-.71-2.75h0c0,.92-.07,2-.13,3l-.15,2.85h-1.21l.47-7.08h1.7l.93,2.85c.25.82.47,1.66.65,2.45h0c.19-.76.43-1.63.7-2.46l1-2.84h1.68l.41,7.08h-1.26Z"/><path class="cls-4" d="M269,243a1.39,1.39,0,0,0,1.58,1.33,3.73,3.73,0,0,0,1.41-.24l.19.9a4.78,4.78,0,0,1-1.78.31,2.42,2.42,0,0,1-2.64-2.58,2.53,2.53,0,0,1,2.5-2.75,2.22,2.22,0,0,1,2.21,2.49,2.28,2.28,0,0,1-.05.54Zm2.25-.9a1.1,1.1,0,0,0-1.06-1.25,1.27,1.27,0,0,0-1.19,1.25Z"/><path class="cls-4" d="M275,238.58V240h1.23v1H275v2.26c0,.62.17.94.66.94a1.93,1.93,0,0,0,.5-.06l0,1a2.94,2.94,0,0,1-.93.12,1.5,1.5,0,0,1-1.11-.42,2,2,0,0,1-.4-1.43V241H273v-1h.74v-1.15Z"/><path class="cls-4" d="M280.11,245.16l-.08-.57h0a1.89,1.89,0,0,1-1.51.68,1.51,1.51,0,0,1-1.6-1.52c0-1.29,1.14-1.94,3-1.93v-.09c0-.33-.14-.89-1-.89a2.69,2.69,0,0,0-1.37.38l-.26-.84a3.7,3.7,0,0,1,1.85-.45,1.91,1.91,0,0,1,2.11,2.15v1.85a8.69,8.69,0,0,0,.07,1.23Zm-.17-2.5c-.91,0-1.78.18-1.78,1a.67.67,0,0,0,.73.74,1,1,0,0,0,1-.71.9.9,0,0,0,0-.28Z"/><path class="cls-4" d="M287.28,237.7v6c0,.52,0,1.09,0,1.44h-1.15l-.05-.81h0a1.82,1.82,0,0,1-1.67.92,2.34,2.34,0,0,1-2.18-2.61,2.43,2.43,0,0,1,2.29-2.73,1.63,1.63,0,0,1,1.44.67h0v-2.9ZM286,242.17a1.84,1.84,0,0,0,0-.33,1.13,1.13,0,0,0-1.12-.91c-.82,0-1.29.73-1.29,1.69s.47,1.61,1.28,1.61a1.14,1.14,0,0,0,1.12-.91,1.53,1.53,0,0,0,0-.38Z"/><path class="cls-4" d="M291.54,245.16l-.08-.57h0a1.9,1.9,0,0,1-1.51.68,1.52,1.52,0,0,1-1.61-1.52c0-1.29,1.14-1.94,3-1.93v-.09c0-.33-.13-.89-1-.89a2.71,2.71,0,0,0-1.37.38l-.25-.84a3.67,3.67,0,0,1,1.85-.45,1.91,1.91,0,0,1,2.1,2.15v1.85a8.54,8.54,0,0,0,.08,1.23Zm-.16-2.5c-.92,0-1.79.18-1.79,1a.68.68,0,0,0,.74.74,1,1,0,0,0,1-.71.69.69,0,0,0,.05-.28Z"/><path class="cls-4" d="M295.48,238.58V240h1.23v1h-1.23v2.26c0,.62.17.94.66.94a2.09,2.09,0,0,0,.51-.06l0,1a3,3,0,0,1-.94.12,1.5,1.5,0,0,1-1.11-.42,2,2,0,0,1-.4-1.43V241h-.73v-1h.73v-1.15Z"/><path class="cls-4" d="M300.56,245.16l-.08-.57h0a1.9,1.9,0,0,1-1.51.68,1.52,1.52,0,0,1-1.61-1.52c0-1.29,1.14-1.94,3-1.93v-.09c0-.33-.13-.89-1-.89a2.69,2.69,0,0,0-1.37.38l-.25-.84a3.66,3.66,0,0,1,1.84-.45,1.91,1.91,0,0,1,2.11,2.15v1.85a8.54,8.54,0,0,0,.08,1.23Zm-.17-2.5c-.91,0-1.78.18-1.78,1a.68.68,0,0,0,.73.74,1,1,0,0,0,1-.71.9.9,0,0,0,0-.28Z"/><path class="cls-4" d="M263.16,255a2.85,2.85,0,0,0,1.31.37c.57,0,.82-.23.82-.57s-.21-.52-.84-.74c-1-.35-1.42-.9-1.41-1.49a1.71,1.71,0,0,1,1.93-1.61,3.15,3.15,0,0,1,1.36.3l-.25.92a2.25,2.25,0,0,0-1.09-.3c-.46,0-.71.22-.71.54s.24.48.89.71c.93.34,1.36.81,1.37,1.57,0,.92-.73,1.59-2.08,1.59a3.25,3.25,0,0,1-1.55-.36Z"/><path class="cls-4" d="M268.51,254a1.39,1.39,0,0,0,1.58,1.33,3.69,3.69,0,0,0,1.41-.24l.19.9a4.78,4.78,0,0,1-1.78.31,2.42,2.42,0,0,1-2.64-2.58,2.53,2.53,0,0,1,2.5-2.75,2.22,2.22,0,0,1,2.21,2.49,2.28,2.28,0,0,1-.05.54Zm2.25-.9a1.1,1.1,0,0,0-1.06-1.25,1.27,1.27,0,0,0-1.19,1.25Z"/><path class="cls-4" d="M273.93,254a1.39,1.39,0,0,0,1.57,1.33,3.78,3.78,0,0,0,1.42-.24l.19.9a4.78,4.78,0,0,1-1.78.31,2.42,2.42,0,0,1-2.64-2.58,2.53,2.53,0,0,1,2.5-2.75,2.22,2.22,0,0,1,2.2,2.49,3.21,3.21,0,0,1,0,.54Zm2.25-.9a1.1,1.1,0,0,0-1.06-1.25,1.27,1.27,0,0,0-1.19,1.25Z"/><path class="cls-4" d="M283.15,248.7v6c0,.52,0,1.09,0,1.44H282l-.06-.81h0a1.82,1.82,0,0,1-1.67.92,2.34,2.34,0,0,1-2.18-2.61,2.43,2.43,0,0,1,2.29-2.73,1.63,1.63,0,0,1,1.44.67h0v-2.9Zm-1.29,4.47a1.84,1.84,0,0,0,0-.33,1.13,1.13,0,0,0-1.12-.91c-.83,0-1.29.73-1.29,1.69s.46,1.61,1.28,1.61a1.12,1.12,0,0,0,1.11-.91,1.17,1.17,0,0,0,.05-.38Z"/><path class="cls-4" d="M285.91,249.62a.73.73,0,0,1-1.45,0,.7.7,0,0,1,.73-.71A.69.69,0,0,1,285.91,249.62Zm-1.37,6.54V251h1.3v5.12Z"/><path class="cls-4" d="M287.22,252.57c0-.59,0-1.08,0-1.53h1.13l.07.77h0a1.85,1.85,0,0,1,1.63-.88c.89,0,1.81.58,1.81,2.19v3h-1.29v-2.89c0-.73-.27-1.29-1-1.29a1.08,1.08,0,0,0-1,.75,1.42,1.42,0,0,0-.05.42v3h-1.31Z"/><path class="cls-4" d="M297.9,251c0,.35,0,.77,0,1.47v2.9a2.47,2.47,0,0,1-2.73,2.94,3.7,3.7,0,0,1-1.79-.41l.29-1a3.05,3.05,0,0,0,1.49.39,1.36,1.36,0,0,0,1.47-1.54v-.44h0a1.74,1.74,0,0,1-1.49.76,2.27,2.27,0,0,1-2.18-2.5,2.46,2.46,0,0,1,2.32-2.7,1.6,1.6,0,0,1,1.48.8h0l.06-.69Zm-1.33,2.05a1.27,1.27,0,0,0,0-.34,1.07,1.07,0,0,0-1-.83c-.73,0-1.26.62-1.26,1.66,0,.88.44,1.58,1.24,1.58a1.1,1.1,0,0,0,1.05-.78,1.7,1.7,0,0,0,.06-.46Z"/><path class="cls-4" d="M114.11,39v3.59c9.74,1.11,16.93,6,21.63,14.65l-.88.44-.88.44a24.69,24.69,0,0,0-11.39-11.21,24,24,0,0,0-8.46-2.31v3.46l-7.87-4.54c1.16-.67,2.24-1.28,3.3-1.91,1.48-.86,3-1.74,4.42-2.61Z"/><path class="cls-4" d="M87.47,66.6h3.32l-4.5,7.81-4.5-7.79h3.63a27.3,27.3,0,0,1,2.84-9.72c-1.66-1.93-1.87-3.84-.61-5.48a3.92,3.92,0,0,1,5-1c1.93-1.41,3.77-2.77,5.63-4.1a16.63,16.63,0,0,1,1.7-1l.86,1.7c-.82.49-1.64.89-2.37,1.43-1.34,1-2.63,2.06-3.92,3.13a.83.83,0,0,0-.2.71,3.93,3.93,0,0,1-4,5.41.61.61,0,0,0-.44.18C89,59.2,87.36,64.73,87.47,66.6Zm3.31-10.82a2,2,0,0,0,2-2,2,2,0,0,0-2-2,2,2,0,0,0,0,4Z"/><path class="cls-4" d="M137.29,64.32l4.5,7.8c-1,0-1.92,0-2.82,0-.47,0-.67.11-.73.6a25.53,25.53,0,0,1-2.5,8.28c-.14.29-.23.5,0,.82a3.87,3.87,0,0,1,.16,4.94,3.94,3.94,0,0,1-4.75,1.18l-.29-.11a27,27,0,0,1-7,5.07l-.85-1.7.63-.36a25.21,25.21,0,0,0,5.43-4,.68.68,0,0,0,.17-.91,3.9,3.9,0,0,1,4-5.45c.31,0,.53.06.71-.29a25.2,25.2,0,0,0,2.37-7.76,1.44,1.44,0,0,0,0-.32h-3.52Zm-6.43,20.05a2,2,0,0,0,2,2,2,2,0,1,0-.07-3.93A1.9,1.9,0,0,0,130.86,84.37Z"/><path class="cls-4" d="M88.12,81.14l.44-.25,1.29-.64a24.8,24.8,0,0,0,19,13.38V90.26l7.81,4.51-7.77,4.48V95.61A26.75,26.75,0,0,1,88.12,81.14Z"/><path class="cls-4" d="M289.6,230.32a8.93,8.93,0,0,1-2-1,10.41,10.41,0,0,1-1.44-1.93c-1.57,0-3.34.06-5.1,0a29.89,29.89,0,0,1-8.19-1.31,11.14,11.14,0,0,1-2.13-1,2.42,2.42,0,0,1-1.25-2.28q0-13.15,0-26.31c0-2.34.44-3,2.63-3.86a24.58,24.58,0,0,1,7.24-1.44c1.78-.14,3.58-.21,5.37-.18s3.57.2,5.48.32a9.2,9.2,0,0,0-.81-.76,5.47,5.47,0,0,0-2.95-1c-1-.06-1.37-.72-.81-1.61,1.24-2,.67-4.34-1.28-5.16a3.52,3.52,0,0,0-3.83.76c-.14.11-.25.25-.38.37a.87.87,0,0,1-1.19.13.85.85,0,0,1-.31-1.15,7.48,7.48,0,0,0,.55-4,7.34,7.34,0,0,0-5.95-6,6.48,6.48,0,0,0-7.26,3.55c-.32.64-.82.69-1.4.74a7.05,7.05,0,0,0-6.45,5.44,9.25,9.25,0,0,0-.21,1.48c-.06.78-.31,1.07-1.08,1.09a7.4,7.4,0,0,0-3.32.91c-2.87,1.6-3.83,4.21-3.65,7.3a8.82,8.82,0,0,0,8.57,8.25,9.86,9.86,0,0,1,2,.47v-3.61l7,4.06-7,4v-3.53a13,13,0,0,1-2.37.36,10.68,10.68,0,0,1-10-9.61,1.57,1.57,0,0,0-.11-.35v-1.18a1.08,1.08,0,0,0,.11-.28c.42-4.72,3-7.64,7.62-8.53.36-.07.48-.23.54-.59a9,9,0,0,1,7.79-7.54,1,1,0,0,0,.69-.45,8.2,8.2,0,0,1,4.91-3.67c.43-.12.87-.22,1.31-.33h1.83c.17,0,.33.11.49.13a9,9,0,0,1,7.58,6.78,25.07,25.07,0,0,1,.38,3.19,5,5,0,0,1,5.49,1.2,5.49,5.49,0,0,1,1.13,5.65c.46.15.86.26,1.25.41a4.26,4.26,0,0,1,2.66,2.09,2.81,2.81,0,0,0,2.49,1.85,6.82,6.82,0,0,1,1.41.51,4,4,0,0,1,2.32,2.07v28.74c-.83,1.83-2.62,2.21-4.28,2.8a3.73,3.73,0,0,1-2.3,3.57c-.29.13-.6.22-.9.33Zm-18.24-25.79c0,1.3,0,2.68,0,4.05a1,1,0,0,0,.65,1.08,24.85,24.85,0,0,0,3.22,1.08,44.08,44.08,0,0,0,14.22.5,19.47,19.47,0,0,0,5.71-1.38c.69-.3,1.12-.7,1-1.54a11.74,11.74,0,0,1,0-1.57v-2.2A42.86,42.86,0,0,1,271.36,204.53Zm0,7.06c0,1.33,0,2.73,0,4.13a.86.86,0,0,0,.55.93,19.65,19.65,0,0,0,2.89,1,42.7,42.7,0,0,0,17,.19,23.18,23.18,0,0,0,3.6-1.15c.29-.1.66-.45.67-.71.07-1.51,0-3,0-4.42A42.86,42.86,0,0,1,271.36,211.59Zm0-13.81c0,1.22,0,2.51,0,3.8a.92.92,0,0,0,.58,1,19.76,19.76,0,0,0,2.63,1,42.54,42.54,0,0,0,17,.31,24.83,24.83,0,0,0,3.75-1.12c.33-.12.8-.48.81-.75.09-1.42,0-2.85,0-4.18A42.49,42.49,0,0,1,271.36,197.78Zm24.78,20.87a42.69,42.69,0,0,1-24.78,0c0,1.42,0,2.92,0,4.42a.87.87,0,0,0,.44.58,11.8,11.8,0,0,0,2,.87,38.76,38.76,0,0,0,12.28,1.09.7.7,0,0,0,.44-.36,3.68,3.68,0,0,1,6.37-.88.64.64,0,0,0,.53.18,18.59,18.59,0,0,0,2.17-.88,1,1,0,0,0,.47-.7C296.16,221.5,296.14,220,296.14,218.65Zm-24.78-23.5v.25a4.75,4.75,0,0,0,1,.62,27.86,27.86,0,0,0,3.63,1.07,42.81,42.81,0,0,0,14.15.24,37.9,37.9,0,0,0,5.17-1.37c.31-.09.54-.44.81-.67-.28-.23-.52-.56-.84-.66a31.65,31.65,0,0,0-4-1.17,44.68,44.68,0,0,0-12.33-.38,21.64,21.64,0,0,0-6.06,1.29A12.3,12.3,0,0,0,271.36,195.15Zm20.51,31.44a1.86,1.86,0,1,0-3.71,0,1.86,1.86,0,1,0,3.71,0Z"/><path class="cls-4" d="M200.25,261c-.23,1.26-.41,2.54-.71,3.78a24.57,24.57,0,0,1-9.79,14.5.87.87,0,0,0-.38,1.21c1.92,5.16,3.81,10.34,5.71,15.51.08.21.15.41.25.69h-9.08v-1.86h6.32c-1.74-4.74-3.43-9.35-5.14-14a25.2,25.2,0,0,1-24.31,0l-5.13,14h16.26v-3.49l7.75,4.47c-.28.18-.47.32-.67.44L175,299.84a4.83,4.83,0,0,0-.58.43h-.15v-3.51h-19.1l6.23-17-.35-.25A24.87,24.87,0,0,1,150.63,263c-.15-.86-.25-1.74-.38-2.61v-2.84a2,2,0,0,0,.12-.4,24.48,24.48,0,0,1,5.28-13.62.84.84,0,0,0,.12-1,3.88,3.88,0,0,1,5.56-4.95.83.83,0,0,0,1,0,24.3,24.3,0,0,1,7.87-3.09c1-.2,2-.34,3-.51h4c.54.09,1.07.2,1.6.27a25,25,0,0,1,20.8,19.37c.23,1.11.39,2.23.59,3.35ZM163,239.53c0,.18.09.3.11.41a3.88,3.88,0,0,1-5.18,4.62c-.54-.18-.67.14-.88.41a22.55,22.55,0,0,0-4.48,17.56,23,23,0,0,0,26.3,19.2c14.79-2.27,23.63-18.18,17.54-31.85-3.78-8.5-10.54-13.13-19.8-13.88A21.91,21.91,0,0,0,163,239.53ZM161.27,241a2,2,0,1,0-2,1.95A2,2,0,0,0,161.27,241Z"/><path class="cls-4" d="M182.88,252.29h4.21v21.82h-5.86V256c-.7.67-1.29,1.19-1.81,1.77a1.3,1.3,0,0,0-.18.83q0,7.26,0,14.54v1h-5.92v-.87c0-4.2,0-8.4,0-12.6,0-.66-.12-.92-.87-1a10.27,10.27,0,0,1-2.6-.8.79.79,0,0,0-1,.18c-2.39,2.43-4.8,4.83-7.21,7.24-.19.19-.39.37-.54.51l-3.5-3.5c.1-.12.28-.31.46-.5,2.43-2.42,4.85-4.86,7.29-7.27a.75.75,0,0,0,.17-1,8.78,8.78,0,0,1,1.26-9.7,9.1,9.1,0,0,1,15.93,4.15A24.1,24.1,0,0,1,182.88,252.29Zm-13.48,3.92v-8.29h8.47v8.47a7.08,7.08,0,0,0,2.8-7.69,7.17,7.17,0,0,0-13.63-.64A7,7,0,0,0,169.4,256.21Zm13.83-2v17.92h1.91V254.25Zm-11.85-4.43c0,2.45,0,4.83,0,7.21a.65.65,0,0,0,.44.44c1.18.06,2.35.1,3.52.07.17,0,.46-.38.46-.59,0-2.29,0-4.57,0-6.85a1.09,1.09,0,0,0-.08-.28Zm3.87,22.34h2V259.11a11.06,11.06,0,0,1-1.39.4c-.49.06-.61.29-.61.74,0,1.69,0,3.38,0,5.06ZM167,256.79l-6.65,6.66.48.46,6.64-6.63Z"/><path class="cls-4" d="M165.47,264.17h5.86V274h-5.86Zm3.86,7.94v-6h-1.92v6Z"/><path class="cls-4" d="M63.63,199.91h-9.8c-1,0-1.24-.25-1.24-1.23q0-7.31,0-14.62a1.89,1.89,0,0,1,.27-.92c1-1.62,2-3.22,3-4.84a1.11,1.11,0,0,1,1.06-.6q6.79,0,13.58,0a1.13,1.13,0,0,1,1.06.61c1,1.6,2,3.18,2.92,4.79a2.32,2.32,0,0,1,.3,1.1c0,4.76,0,9.53,0,14.3,0,1.19-.22,1.41-1.39,1.41ZM72.94,185H54.38v13.15H72.94Zm-.65-2.05c-.7-1.13-1.32-2.17-2-3.2a.71.71,0,0,0-.5-.28q-6.14,0-12.28,0a.64.64,0,0,0-.48.22c-.67,1.06-1.32,2.13-2,3.27Z"/><path class="cls-4" d="M84.2,191.24H77v-1.71h7.11v-3.18l7,4-6.92,4Z"/><path class="cls-4" d="M62.8,168H59.65l4-6.94,4,6.92H64.53v7.18H62.8Z"/><path class="cls-4" d="M62.77,202.55h1.74v7.14h3.16l-4,6.95-4-6.91h3.1Z"/><path class="cls-4" d="M50.21,189.49v1.75H43.07v3.15l-7-4,6.91-4v3.1Z"/><path class="cls-4" d="M63.56,194.6a3.42,3.42,0,0,1-3.42-3.52,3.48,3.48,0,1,1,7,.12A3.39,3.39,0,0,1,63.56,194.6Zm.06-1.72a1.71,1.71,0,0,0,1.75-1.72,1.77,1.77,0,0,0-1.77-1.79,1.83,1.83,0,0,0-1.74,1.78A1.75,1.75,0,0,0,63.62,192.88Z"/><path class="cls-4" d="M215,82.4l4.59-2.56c1-.55,1.95-1.14,2.95-1.67a1.47,1.47,0,0,0,.82-1.08q2.1-9.51,4.23-19c.36-1.59.76-3.18,1.19-4.76a7.57,7.57,0,0,1,4.61-5l.77-.32-2.93-6.74,4.37-.66L235,37h10.12l-1.3,3.77,4.53.4-3.59,6.66c.46.19.85.35,1.24.53a7.55,7.55,0,0,1,4.61,5.37q2.1,8.93,4.2,17.84c.54,2.34,1.05,4.68,1.59,7.1,1.74-.67,3.41-1.33,5.09-2a2.71,2.71,0,0,1,3.73,2.88,2.44,2.44,0,0,1-1.1,1.87c-6,4-11.94,8-18,12L245,91.88l8.16-5.44,9.26-6.16.36-.24c.43-.29.67-.66.41-1.16a.85.85,0,0,0-1.19-.36L258.12,80c-3.61,1.4-7.22,2.8-10.84,4.17a2.14,2.14,0,0,1-1.3,0q-7.09-2.19-14.18-4.44a1.08,1.08,0,0,1-.5-.29h12.1a3.51,3.51,0,0,0,.65,0,1.06,1.06,0,0,0,1-1,1,1,0,0,0-.8-1.14,3.49,3.49,0,0,0-.86-.07q-7.34,0-14.67,0a2.82,2.82,0,0,0-1.36.36c-3.29,1.84-6.56,3.74-9.86,5.59a1,1,0,0,0-.6,1c0,3,0,6,0,9v.75l4-2.07c1.31-.68,2.64-1.31,3.91-2a4.3,4.3,0,0,1,2.92-.45c1.66.26,3.34.43,5.11.66l.46-3.13,6.9,5.3-8.05,3.33.45-3.61c-1.5-.2-3-.31-4.39-.6a5,5,0,0,0-3.56.71c-3,1.63-6,3.17-9,4.73a4.31,4.31,0,0,1-.6.22Zm28.54-.9c.82.26,1.63.55,2.46.76a2,2,0,0,0,1.09,0c2.3-.85,4.58-1.76,6.88-2.62.44-.17.58-.38.47-.85q-2.87-12.29-5.73-24.59a5.37,5.37,0,0,0-3.11-3.84,13.73,13.73,0,0,0-11.81-.08,5.63,5.63,0,0,0-3.33,4.09c-1.18,5.18-2.41,10.35-3.6,15.53-.5,2.17-1,4.36-1.46,6.64a6.61,6.61,0,0,0,.79-.44,4.15,4.15,0,0,1,2.64-.7c4.87,0,9.74,0,14.6,0a6.33,6.33,0,0,1,.87,0,3,3,0,0,1,2.28,4.35A3.23,3.23,0,0,1,243.54,81.5Zm-2.39-39,1.2-3.45h-5.09l.51,3.17-3.8.58c.66,1.52,1.25,2.94,1.9,4.33a.8.8,0,0,0,.67.28,18.63,18.63,0,0,1,5.82-.06c.17,0,.44,0,.5-.11.8-1.44,1.58-2.89,2.39-4.38Z"/><path class="cls-4" d="M240.51,54.78l3.36.94-.64,1.71a18.11,18.11,0,0,0-2.6-.67,4.59,4.59,0,0,0-2,.22,2,2,0,0,0-.57,3.4,13.78,13.78,0,0,0,2.25,1.28c.7.37,1.44.67,2.11,1.09a4.05,4.05,0,0,1,1.94,4.34,4,4,0,0,1-3.05,3.39,1,1,0,0,0-.89,1.3c0,.52,0,1,0,1.59h-1.64v-2.5a8.09,8.09,0,0,1-3.89-1.19l.54-1.53a23.33,23.33,0,0,0,3.28.85,4.28,4.28,0,0,0,2.22-.41,2.22,2.22,0,0,0,.55-3.64,10.12,10.12,0,0,0-2.18-1.36c-.77-.43-1.62-.75-2.36-1.22a3.61,3.61,0,0,1-1.79-3.75,3.88,3.88,0,0,1,2.5-3.19c.4-.17.82-.27,1.29-.43V52.54h1.62Z"/></svg>