<svg xmlns="http://www.w3.org/2000/svg" width="350" height="350"><defs><style>.cls-1{fill:#ece1ce}.cls-2{fill:#eac8a5}.cls-3{fill:#df9926}.cls-4,.cls-6,.cls-7,.cls-8,.cls-9{fill:none;stroke:#fff;stroke-miterlimit:10}.cls-4{stroke-width:1.5px}.cls-5{fill:#fff}.cls-6{stroke-linecap:square}.cls-6,.cls-7{stroke-width:1.57px}.cls-8{stroke-width:1.61px}.cls-9{stroke-width:1.55px}</style></defs><g id="Layer_3" data-name="Layer 3"><path class="cls-1" d="M342.91 175a167.63 167.63 0 0 1-66.22 133.63c-2 1.5-4 2.95-6 4.36a168 168 0 0 1-191.38 0c-2-1.41-4-2.87-6-4.37a168.22 168.22 0 0 1-59.17-182c.72-2.37 1.48-4.72 2.3-7A168 168 0 0 1 171.3 7.12h7.41a168 168 0 0 1 154.84 112.45q1.21 3.48 2.29 7a168 168 0 0 1 7.07 48.43z"/><path class="cls-2" d="M171.3 0v7.1A168 168 0 0 0 16.45 119.58l-6.74-2.19A175.08 175.08 0 0 1 171.3 0z"/><path class="cls-3" d="M171.3 7.12v117.34a50.48 50.48 0 0 0-43.21 31.38L16.45 119.58A168 168 0 0 1 171.3 7.12z"/><path class="cls-2" d="M340.29 117.37l-6.74 2.2A168 168 0 0 0 178.71 7.12V0a173.47 173.47 0 0 1 100.14 34.1 175.45 175.45 0 0 1 61.44 83.25z"/><path class="cls-3" d="M333.55 119.57l-111.63 36.27a50.51 50.51 0 0 0-43.21-31.38V7.12a168 168 0 0 1 154.84 112.45z"/><path class="cls-2" d="M73.32 308.63l-4.15 5.72A175.18 175.18 0 0 1 7.42 124.44l6.73 2.19a168.22 168.22 0 0 0 59.17 182z"/><path class="cls-3" d="M142.31 213.67l-69 95a168.22 168.22 0 0 1-59.17-182l111.66 36.22a50.75 50.75 0 0 0 16.51 50.78z"/><path class="cls-2" d="M274.85 318.71a175 175 0 0 1-199.69 0l4.16-5.71a168 168 0 0 0 191.38 0z"/><path class="cls-3" d="M270.7 313a168 168 0 0 1-191.38 0l69-95a50.68 50.68 0 0 0 53.39 0z"/><path class="cls-2" d="M350 175a174.69 174.69 0 0 1-69.16 139.36l-4.15-5.71a168.2 168.2 0 0 0 59.15-182l6.74-2.18A175.11 175.11 0 0 1 350 175z"/><path class="cls-3" d="M342.91 175a167.63 167.63 0 0 1-66.22 133.63l-69-95a50.67 50.67 0 0 0 16.51-50.78l111.64-36.27a168 168 0 0 1 7.07 48.42z"/><path class="cls-1" d="M238.16 175a63.06 63.06 0 0 1-24.91 50.26c-.74.56-1.49 1.11-2.26 1.64a63.15 63.15 0 0 1-72 0c-.76-.53-1.52-1.07-2.25-1.64a63.23 63.23 0 0 1-22.26-68.45c.27-.89.56-1.78.87-2.66a63.17 63.17 0 0 1 58.24-42.29h2.79a63.17 63.17 0 0 1 58.23 42.29c.31.88.6 1.76.86 2.65a62.89 62.89 0 0 1 2.69 18.2z"/></g><g id="Layer_4" data-name="Layer 4"><path class="cls-4" d="M248.47 76.08V40.66l-8.86-9.04h-20.52"/><path class="cls-5" d="M251.46 75.2l-2.99 5.18-2.99-5.18h5.98z"/><path class="cls-4" d="M213.26 34.43v45.92l22.49.03M229.14 41.83l7.57.15M229.36 51.08h13.18M219.32 39.62h5.34v4.49h-5.34z"/><path class="cls-4" d="M219.32 48.83h5.34v4.49h-5.34z"/><circle class="cls-4" cx="228.76" cy="66.2" r="9.25"/><path class="cls-4" d="M234.71 64.73a6.5 6.5 0 0 1 .18 1.47 6.12 6.12 0 1 1-2.83-5.2"/><path class="cls-4" d="M225.33 65l2.7 2.69 6.01-5.48"/><circle class="cls-4" cx="213.34" cy="32.14" r="2.19"/><path class="cls-4" d="M239.61 31.62v9.04h8.86M236.52 71.67l5.83 5.89a1.68 1.68 0 0 1 0 2.37 1.68 1.68 0 0 1-2.38 0L234.15 74"/><path class="cls-5" d="M55.9 93.92h-2.18v-1.17h5.78v1.17h-2.2v6.49h-1.4zM60.23 98a1.51 1.51 0 0 0 1.71 1.44 4.11 4.11 0 0 0 1.53-.25l.21 1a5.1 5.1 0 0 1-1.93.34 2.62 2.62 0 0 1-2.86-2.79 2.74 2.74 0 0 1 2.71-3 2.41 2.41 0 0 1 2.4 2.7 3.47 3.47 0 0 1-.05.59zm2.44-1a1.2 1.2 0 0 0-1.15-1.36A1.38 1.38 0 0 0 60.23 97zM69 100.24a4 4 0 0 1-1.57.28 2.66 2.66 0 0 1-2.86-2.81 2.87 2.87 0 0 1 3.09-3A3.45 3.45 0 0 1 69 95l-.25 1a2.37 2.37 0 0 0-1.06-.22 1.79 1.79 0 0 0 0 3.58 2.78 2.78 0 0 0 1.1-.21zM69.77 92.34h1.41v3.3a1.85 1.85 0 0 1 .69-.64 1.91 1.91 0 0 1 1-.25c.94 0 1.93.62 1.93 2.4v3.26h-1.4v-3.1c0-.81-.29-1.41-1.07-1.41a1.15 1.15 0 0 0-1.08.78 1.34 1.34 0 0 0 0 .42v3.31h-1.48zM76 96.52v-1.65h1.23l.06.83a2 2 0 0 1 1.76-1c1 0 2 .62 2 2.38v3.28h-1.4v-3.08c0-.79-.29-1.39-1.06-1.39a1.17 1.17 0 0 0-1.09.81 1.66 1.66 0 0 0-.05.46v3.25H76zM87.59 97.59a2.75 2.75 0 0 1-2.84 3A2.68 2.68 0 0 1 82 97.68a2.73 2.73 0 0 1 2.87-2.93 2.66 2.66 0 0 1 2.72 2.84zm-4.17.06c0 1.07.52 1.87 1.37 1.87s1.35-.78 1.35-1.89c0-.87-.38-1.86-1.34-1.86s-1.38.96-1.38 1.88zM91.17 96.9v1h-2.9v-1zM92.2 100.41v-4.49h-.75v-1h.75v-.23a2.57 2.57 0 0 1 .67-1.89 2.09 2.09 0 0 1 1.44-.54 2.69 2.69 0 0 1 .9.14l-.1 1.08a1.57 1.57 0 0 0-.59-.1c-.7 0-.94.58-.94 1.26v.28h1.22v1h-1.2v4.49zM100.4 98.75v1.66h-1.19l-.07-.84a2 2 0 0 1-1.77 1c-1 0-1.93-.61-1.93-2.41v-3.29h1.39v3c0 .92.3 1.51 1 1.51a1.18 1.18 0 0 0 1.07-.75 1.43 1.43 0 0 0 .08-.43v-3.33h1.4zM101.68 96.52v-1.65h1.23l.06.83a2 2 0 0 1 1.76-1c1 0 2 .62 2 2.38v3.28h-1.4v-3.08c0-.79-.3-1.39-1.06-1.39a1.16 1.16 0 0 0-1.09.81 1.65 1.65 0 0 0-.06.46v3.25h-1.41zM112 100.24a4 4 0 0 1-1.57.28 2.66 2.66 0 0 1-2.85-2.81 2.87 2.87 0 0 1 3.08-3A3.41 3.41 0 0 1 112 95l-.25 1a2.28 2.28 0 0 0-1.05-.22 1.79 1.79 0 0 0 0 3.58 2.82 2.82 0 0 0 1.1-.21zM114.62 93.29v1.58H116v1h-1.33v2.44c0 .68.18 1 .71 1a2.31 2.31 0 0 0 .55-.07v1.07a3.08 3.08 0 0 1-1 .13 1.66 1.66 0 0 1-1.21-.45 2.24 2.24 0 0 1-.43-1.55v-2.6h-.79v-1h.79v-1.22zM118.27 93.33a.74.74 0 0 1-.8.75.74.74 0 0 1-.77-.75.79.79 0 0 1 1.57 0zm-1.49 7.08v-5.54h1.41v5.54zM124.73 97.59a2.75 2.75 0 0 1-2.85 3 2.68 2.68 0 0 1-2.77-2.86 2.73 2.73 0 0 1 2.89-2.98 2.66 2.66 0 0 1 2.73 2.84zm-4.18.06c0 1.07.53 1.87 1.38 1.87s1.35-.78 1.35-1.89c0-.87-.38-1.86-1.34-1.86s-1.39.96-1.39 1.88zM125.65 96.52v-1.65h1.22l.07.83a2 2 0 0 1 1.76-1c1 0 2 .62 2 2.38v3.28h-1.39v-3.08c0-.79-.3-1.39-1.06-1.39a1.16 1.16 0 0 0-1.09.81 1.35 1.35 0 0 0-.06.46v3.25h-1.41zM135 100.41v-.61a2.06 2.06 0 0 1-1.64.74 1.65 1.65 0 0 1-1.74-1.65c0-1.4 1.24-2.11 3.29-2.09v-.1c0-.36-.15-1-1.13-1a3 3 0 0 0-1.49.41l-.27-.91a4 4 0 0 1 2-.49 2.08 2.08 0 0 1 2.29 2.33v2a8.46 8.46 0 0 0 .08 1.33zm-.18-2.7c-1 0-1.93.19-1.93 1a.74.74 0 0 0 .8.8 1.15 1.15 0 0 0 1.09-.77 1.08 1.08 0 0 0 0-.3zM137.48 92.34h1.41v8.07h-1.41zM53.33 108.38v-1.84h1.23l.07.85a2.17 2.17 0 0 1 1.9-1c1.27 0 2.33 1.09 2.33 2.82 0 2-1.26 3-2.52 3a1.81 1.81 0 0 1-1.56-.74v2.87h-1.4zm1.4 1.38a1.58 1.58 0 0 0 0 .38 1.27 1.27 0 0 0 1.23 1c.89 0 1.41-.74 1.41-1.83s-.48-1.77-1.37-1.77a1.3 1.3 0 0 0-1.25 1 1.13 1.13 0 0 0-.06.36zM59.76 108.33v-1.79h1.22v1.06H61a1.64 1.64 0 0 1 1.51-1.18 1.61 1.61 0 0 1 .33 0v1.32a2.08 2.08 0 0 0-.41 0 1.24 1.24 0 0 0-1.25 1.06 2.68 2.68 0 0 0-.05.43v2.87h-1.37zM68.74 109.26a2.74 2.74 0 0 1-2.84 2.94 2.68 2.68 0 0 1-2.78-2.85 2.73 2.73 0 0 1 2.88-2.93 2.65 2.65 0 0 1 2.74 2.84zm-4.17 0c0 1.07.52 1.88 1.37 1.88s1.35-.78 1.35-1.9c0-.86-.38-1.85-1.34-1.85s-1.38 1-1.38 1.92zM73.73 111.91a4.14 4.14 0 0 1-1.57.28 2.66 2.66 0 0 1-2.85-2.82 2.86 2.86 0 0 1 3.08-3 3.5 3.5 0 0 1 1.36.26l-.26 1a2.45 2.45 0 0 0-1-.21 1.79 1.79 0 0 0 0 3.58 2.6 2.6 0 0 0 1.1-.22zM75.43 109.7a1.5 1.5 0 0 0 1.7 1.43 4.16 4.16 0 0 0 1.54-.25l.21 1a5.32 5.32 0 0 1-1.94.34 2.62 2.62 0 0 1-2.85-2.8 2.73 2.73 0 0 1 2.7-3 2.4 2.4 0 0 1 2.39 2.69 3.85 3.85 0 0 1 0 .59zm2.43-1a1.18 1.18 0 0 0-1.15-1.35 1.37 1.37 0 0 0-1.28 1.35zM80 110.79a3 3 0 0 0 1.42.4c.61 0 .88-.25.88-.61s-.22-.57-.91-.81c-1.08-.38-1.53-1-1.52-1.61a1.85 1.85 0 0 1 2.13-1.74 3.26 3.26 0 0 1 1.47.33l-.27 1a2.62 2.62 0 0 0-1.18-.31c-.5 0-.77.24-.77.58s.26.52 1 .77c1 .36 1.46.87 1.48 1.69 0 1-.79 1.73-2.26 1.73a3.53 3.53 0 0 1-1.68-.39zM84.53 110.79a3 3 0 0 0 1.42.4c.62 0 .89-.25.89-.61s-.23-.57-.91-.81c-1.08-.38-1.54-1-1.52-1.61a1.85 1.85 0 0 1 2.09-1.74 3.21 3.21 0 0 1 1.46.33l-.27 1a2.57 2.57 0 0 0-1.17-.31c-.5 0-.77.24-.77.58s.26.52 1 .77c1 .36 1.47.87 1.48 1.69 0 1-.78 1.73-2.25 1.73a3.53 3.53 0 0 1-1.68-.39zM92.23 109.7c0 1 .82 1.43 1.71 1.43a4.14 4.14 0 0 0 1.53-.25l.2 1a5.22 5.22 0 0 1-1.93.34 2.62 2.62 0 0 1-2.85-2.8 2.73 2.73 0 0 1 2.7-3 2.4 2.4 0 0 1 2.41 2.69 3.85 3.85 0 0 1 0 .59zm2.43-1a1.18 1.18 0 0 0-1.14-1.35 1.37 1.37 0 0 0-1.29 1.35zM97.74 106.54l.89 2.81a13.85 13.85 0 0 1 .38 1.39c.11-.46.23-.89.38-1.39l.87-2.81h1.48l-2.11 5.54h-1.35l-2.06-5.54zM105.45 112.08l-.09-.62a2 2 0 0 1-1.63.74 1.64 1.64 0 0 1-1.74-1.65c0-1.39 1.24-2.1 3.28-2.09v-.09c0-.36-.15-1-1.12-1a3 3 0 0 0-1.49.41l-.28-.91a4 4 0 0 1 2-.48 2.07 2.07 0 0 1 2.29 2.33v2a8.46 8.46 0 0 0 .08 1.33zm-.18-2.71c-1 0-1.94.19-1.94 1a.74.74 0 0 0 .8.79 1.13 1.13 0 0 0 1.09-.76 1.18 1.18 0 0 0 0-.31zM107.88 104h1.41v8.07h-1.41zM115.54 110.42v1.66h-1.23l-.06-.84a2 2 0 0 1-1.77 1c-1 0-1.93-.6-1.93-2.41v-3.25H112v3c0 .92.29 1.52 1 1.52a1.18 1.18 0 0 0 1.07-.76 1.37 1.37 0 0 0 .08-.43v-3.34h1.4zM119.94 112.08l-.09-.62a2 2 0 0 1-1.63.74 1.64 1.64 0 0 1-1.74-1.65c0-1.39 1.24-2.1 3.28-2.09v-.09c0-.36-.15-1-1.12-1a3 3 0 0 0-1.49.41l-.28-.91a4 4 0 0 1 2-.48 2.07 2.07 0 0 1 2.28 2.33v2a8.46 8.46 0 0 0 .08 1.33zm-.18-2.71c-1 0-1.94.19-1.94 1a.74.74 0 0 0 .8.79 1.12 1.12 0 0 0 1.09-.76.87.87 0 0 0 .05-.31zM123.91 105v1.58h1.33v1h-1.33V110c0 .67.18 1 .72 1a2.3 2.3 0 0 0 .54-.06V112a3 3 0 0 1-1 .14 1.62 1.62 0 0 1-1.2-.45 2.19 2.19 0 0 1-.44-1.55v-2.6h-.79v-1h.79v-1.25zM127.56 105a.79.79 0 0 1-1.57 0 .79.79 0 0 1 1.57 0zm-1.49 7.08v-5.54h1.41v5.54zM134 109.26a2.74 2.74 0 0 1-2.84 2.94 2.68 2.68 0 0 1-2.78-2.85 2.73 2.73 0 0 1 2.87-2.93 2.65 2.65 0 0 1 2.75 2.84zm-4.17 0c0 1.07.52 1.88 1.37 1.88s1.36-.78 1.36-1.9c0-.86-.39-1.85-1.35-1.85s-1.36 1-1.36 1.92zM134.94 108.19v-1.65h1.23l.07.83a2 2 0 0 1 1.76-1c1 0 2 .62 2 2.37v3.29h-1.4V109c0-.79-.3-1.4-1.06-1.4a1.18 1.18 0 0 0-1.09.82 1.65 1.65 0 0 0-.06.46v3.25h-1.41zM193 98.41v-7.66h1.59l2 3.28a21.52 21.52 0 0 1 1.31 2.57c-.09-1-.12-2-.12-3.18v-2.67h1.29v7.66h-1.44l-2-3.36a29.14 29.14 0 0 1-1.38-2.65c.05 1 .07 2 .07 3.26v2.74zM200.73 90.85a14.47 14.47 0 0 1 2.23-.16 4.7 4.7 0 0 1 3.13.89 3.45 3.45 0 0 1 1.19 2.82 4 4 0 0 1-1.19 3 5.1 5.1 0 0 1-3.47 1 17 17 0 0 1-1.89-.1zm1.4 6.49a4.42 4.42 0 0 0 .77 0 2.63 2.63 0 0 0 2.9-2.94 2.43 2.43 0 0 0-2.72-2.66 4.81 4.81 0 0 0-1 .08zM214 98.18a4.87 4.87 0 0 1-2 .34 3.61 3.61 0 0 1-3.91-3.85 3.86 3.86 0 0 1 4.1-4 4.5 4.5 0 0 1 1.86.34l-.31 1.12a3.67 3.67 0 0 0-1.5-.3 2.55 2.55 0 0 0-2.68 2.82 2.51 2.51 0 0 0 2.67 2.76 3.89 3.89 0 0 0 1.52-.28zM217.42 97.13a3.16 3.16 0 0 0 1.42.39c.61 0 .89-.25.89-.61s-.23-.57-.91-.81c-1.08-.37-1.54-1-1.53-1.61a1.85 1.85 0 0 1 2.09-1.74 3.26 3.26 0 0 1 1.47.33l-.27 1a2.44 2.44 0 0 0-1.17-.32c-.5 0-.78.24-.78.58s.27.52 1 .77c1 .37 1.47.88 1.48 1.7 0 1-.79 1.72-2.25 1.72a3.51 3.51 0 0 1-1.68-.38zM223.22 96a1.5 1.5 0 0 0 1.7 1.44 4.16 4.16 0 0 0 1.54-.25l.2 1a5 5 0 0 1-1.93.34 2.61 2.61 0 0 1-2.85-2.79 2.74 2.74 0 0 1 2.7-3 2.41 2.41 0 0 1 2.42 2.7 2.66 2.66 0 0 1-.05.59zm2.43-1a1.19 1.19 0 0 0-1.15-1.36 1.37 1.37 0 0 0-1.28 1.36zM228.1 94.66v-1.79h1.22v1.06a1.65 1.65 0 0 1 1.51-1.18 1.61 1.61 0 0 1 .33 0v1.35a2.18 2.18 0 0 0-.41 0 1.23 1.23 0 0 0-1.25 1 2.87 2.87 0 0 0 0 .44v2.86h-1.4zM233.29 92.87l.89 2.81a13.85 13.85 0 0 1 .38 1.39c.11-.46.23-.89.38-1.39l.87-2.81h1.48l-2.11 5.54h-1.38l-2.06-5.54zM239.67 91.33a.74.74 0 0 1-.8.75.73.73 0 0 1-.77-.75.75.75 0 0 1 .78-.76.75.75 0 0 1 .79.76zm-1.49 7.08v-5.54h1.41v5.54zM245.16 98.24a4 4 0 0 1-1.57.28 2.65 2.65 0 0 1-2.85-2.81 2.86 2.86 0 0 1 3.08-3 3.45 3.45 0 0 1 1.35.26l-.25 1a2.37 2.37 0 0 0-1.06-.22 1.79 1.79 0 0 0 0 3.58 2.78 2.78 0 0 0 1.1-.21zM247.08 96a1.51 1.51 0 0 0 1.71 1.44 4.11 4.11 0 0 0 1.53-.25l.21 1a5.12 5.12 0 0 1-1.94.34 2.62 2.62 0 0 1-2.85-2.79 2.74 2.74 0 0 1 2.71-3 2.4 2.4 0 0 1 2.38 2.69 3.74 3.74 0 0 1 0 .59zm2.44-1a1.2 1.2 0 0 0-1.15-1.36 1.38 1.38 0 0 0-1.29 1.36zM259.42 90.34v6.51c0 .57 0 1.19.05 1.56h-1.25l-.06-.87a2 2 0 0 1-1.81 1c-1.32 0-2.36-1.13-2.36-2.83 0-1.86 1.14-3 2.47-3a1.76 1.76 0 0 1 1.56.73v-3.1zM258 95.18a2.19 2.19 0 0 0 0-.36 1.22 1.22 0 0 0-1.2-1c-.9 0-1.4.8-1.4 1.83s.5 1.75 1.38 1.75a1.24 1.24 0 0 0 1.21-1 1.73 1.73 0 0 0 0-.41zM261.92 96a1.5 1.5 0 0 0 1.7 1.44 4.16 4.16 0 0 0 1.54-.25l.2 1a5.1 5.1 0 0 1-1.93.34 2.62 2.62 0 0 1-2.86-2.79 2.75 2.75 0 0 1 2.71-3 2.41 2.41 0 0 1 2.39 2.69 3.47 3.47 0 0 1-.05.59zm2.43-1a1.2 1.2 0 0 0-1.15-1.36 1.37 1.37 0 0 0-1.28 1.36zM266.73 97.13a3.16 3.16 0 0 0 1.42.39c.61 0 .89-.25.89-.61s-.23-.57-.91-.81c-1.08-.37-1.54-1-1.53-1.61 0-1 .81-1.74 2.1-1.74a3.25 3.25 0 0 1 1.46.33l-.27 1a2.44 2.44 0 0 0-1.17-.32c-.5 0-.78.24-.78.58s.27.52 1 .77c1 .37 1.47.88 1.48 1.7 0 1-.79 1.72-2.25 1.72a3.51 3.51 0 0 1-1.68-.38zM273 91.33a.74.74 0 0 1-.8.75.74.74 0 0 1-.77-.75.79.79 0 0 1 1.57 0zm-1.49 7.08v-5.54H273v5.54zM279.51 92.87c0 .38-.05.83-.05 1.6v3.13a2.66 2.66 0 0 1-2.95 3.19 3.83 3.83 0 0 1-1.93-.45l.3-1a3.45 3.45 0 0 0 1.62.42 1.47 1.47 0 0 0 1.59-1.76v-.48a1.88 1.88 0 0 1-1.62.82 2.46 2.46 0 0 1-2.35-2.71 2.65 2.65 0 0 1 2.51-2.92 1.74 1.74 0 0 1 1.6.86l.05-.74zm-1.44 2.22a1.5 1.5 0 0 0-.05-.37 1.16 1.16 0 0 0-1.14-.9c-.78 0-1.36.68-1.36 1.81 0 .94.48 1.7 1.35 1.7a1.19 1.19 0 0 0 1.14-.84 2.73 2.73 0 0 0 .06-.5zM280.92 94.52v-1.65h1.23l.06.83a2 2 0 0 1 1.76-1c1 0 2 .62 2 2.38v3.28h-1.4v-3.08c0-.79-.3-1.39-1.06-1.39a1.16 1.16 0 0 0-1.09.81 1.35 1.35 0 0 0-.06.46v3.25h-1.41zM292.9 98.41l-.09-.61a2.06 2.06 0 0 1-1.63.74 1.64 1.64 0 0 1-1.74-1.65c0-1.4 1.24-2.11 3.28-2.09v-.1c0-.36-.14-1-1.12-1a2.9 2.9 0 0 0-1.49.41l-.27-.91a4 4 0 0 1 2-.49 2.07 2.07 0 0 1 2.28 2.33v2a8.46 8.46 0 0 0 .08 1.33zm-.18-2.7c-1 0-1.93.19-1.93 1a.73.73 0 0 0 .79.8 1.13 1.13 0 0 0 1.09-.77.82.82 0 0 0 .05-.3zM295.56 94.52v-1.65h1.23l.06.83a2 2 0 0 1 1.76-1c1 0 2 .62 2 2.38v3.28h-1.4v-3.08c0-.79-.3-1.39-1.06-1.39a1.16 1.16 0 0 0-1.09.81 1.35 1.35 0 0 0-.06.46v3.25h-1.41zM307.17 90.34v6.51c0 .57 0 1.19.05 1.56H306l-.06-.87a2 2 0 0 1-1.81 1c-1.32 0-2.36-1.13-2.36-2.83 0-1.86 1.15-3 2.48-3a1.75 1.75 0 0 1 1.55.73v-3.1zm-1.39 4.84a2.2 2.2 0 0 0 0-.36 1.22 1.22 0 0 0-1.2-1c-.9 0-1.4.8-1.4 1.83s.5 1.75 1.39 1.75a1.24 1.24 0 0 0 1.2-1 1.7 1.7 0 0 0 0-.41zM200.63 109.91a4.14 4.14 0 0 1-1.57.28 2.66 2.66 0 0 1-2.85-2.82 2.86 2.86 0 0 1 3.08-3 3.41 3.41 0 0 1 1.35.26l-.25 1a2.45 2.45 0 0 0-1-.21 1.79 1.79 0 0 0 0 3.58 2.63 2.63 0 0 0 1.1-.22zM206.83 107.26a2.74 2.74 0 0 1-2.83 2.94 2.68 2.68 0 0 1-2.78-2.85 2.73 2.73 0 0 1 2.87-2.93 2.65 2.65 0 0 1 2.74 2.84zm-4.17 0c0 1.07.52 1.88 1.37 1.88s1.36-.78 1.36-1.9c0-.86-.39-1.85-1.35-1.85s-1.38 1-1.38 1.92zM208 106.19v-1.65h1.2l.06.82a1.94 1.94 0 0 1 1.71-.94 1.59 1.59 0 0 1 1.53 1 2 2 0 0 1 .68-.69 1.81 1.81 0 0 1 1.11-.33c.92 0 1.85.62 1.85 2.39v3.27h-1.36V107c0-.92-.32-1.47-1-1.47a1.07 1.07 0 0 0-1 .74 2.32 2.32 0 0 0-.06.47v3.32h-1.37v-3.21c0-.77-.31-1.32-.95-1.32a1.08 1.08 0 0 0-1 .8 1.09 1.09 0 0 0-.08.45v3.28H208zM217.63 106.38v-1.84h1.23l.07.85a2.17 2.17 0 0 1 1.9-1c1.27 0 2.33 1.09 2.33 2.82 0 2-1.26 3-2.52 3a1.79 1.79 0 0 1-1.56-.74v2.87h-1.4zm1.4 1.38a1.58 1.58 0 0 0 0 .38 1.27 1.27 0 0 0 1.23 1c.89 0 1.41-.74 1.41-1.83s-.48-1.77-1.38-1.77a1.31 1.31 0 0 0-1.25 1 1.49 1.49 0 0 0-.05.36zM224.28 102h1.41v8.07h-1.41zM228.7 103a.74.74 0 0 1-.8.75.73.73 0 0 1-.77-.75.75.75 0 0 1 .78-.77.76.76 0 0 1 .79.77zm-1.49 7.08v-5.54h1.41v5.54zM233.23 110.08l-.09-.62a2 2 0 0 1-1.64.74 1.64 1.64 0 0 1-1.74-1.65c0-1.39 1.24-2.1 3.29-2.09v-.09c0-.36-.15-1-1.13-1a3.06 3.06 0 0 0-1.49.41l-.27-.91a4 4 0 0 1 2-.48 2.07 2.07 0 0 1 2.29 2.33v2a10.07 10.07 0 0 0 .07 1.33zm-.18-2.71c-1 0-1.93.19-1.93 1a.73.73 0 0 0 .79.79 1.05 1.05 0 0 0 1.14-1.07zM235.9 106.19c0-.64 0-1.17-.05-1.65h1.23l.07.83a2 2 0 0 1 1.76-1c1 0 2 .62 2 2.37v3.29h-1.4V107c0-.79-.29-1.4-1-1.4a1.19 1.19 0 0 0-1.1.82 1.66 1.66 0 0 0-.05.46v3.25h-1.46zM246.47 109.91a4.14 4.14 0 0 1-1.57.28 2.66 2.66 0 0 1-2.85-2.82 2.86 2.86 0 0 1 3.08-3 3.41 3.41 0 0 1 1.35.26l-.25 1a2.45 2.45 0 0 0-1-.21 1.79 1.79 0 0 0 0 3.58 2.6 2.6 0 0 0 1.1-.22zM248.4 107.7a1.49 1.49 0 0 0 1.7 1.43 4.16 4.16 0 0 0 1.54-.25l.2 1a5.26 5.26 0 0 1-1.93.34 2.61 2.61 0 0 1-2.85-2.8 2.73 2.73 0 0 1 2.7-3 2.4 2.4 0 0 1 2.39 2.69 2.73 2.73 0 0 1-.05.59zm2.43-1a1.19 1.19 0 0 0-1.15-1.35 1.36 1.36 0 0 0-1.28 1.35zM256.52 104.54l.9 2.81a13.72 13.72 0 0 1 .37 1.39c.1-.46.22-.89.37-1.39l.88-2.81h1.47l-2.11 5.54h-1.38l-2.02-5.54zM264.46 110.08l-.09-.62a2 2 0 0 1-1.63.74 1.64 1.64 0 0 1-1.74-1.65c0-1.39 1.24-2.1 3.28-2.09v-.09c0-.36-.15-1-1.12-1a3 3 0 0 0-1.49.41l-.28-.91a4 4 0 0 1 2-.48 2.07 2.07 0 0 1 2.29 2.33v2a8.46 8.46 0 0 0 .08 1.33zm-.18-2.71c-1 0-1.94.19-1.94 1a.74.74 0 0 0 .8.79 1.13 1.13 0 0 0 1.09-.76 1.18 1.18 0 0 0 0-.31zM267.12 102h1.41v8.07h-1.41zM271.53 103a.79.79 0 0 1-1.57 0 .75.75 0 0 1 .79-.77.74.74 0 0 1 .78.77zm-1.53 7.08v-5.54h1.41v5.54zM278.06 102v6.51c0 .57 0 1.18.05 1.56h-1.25l-.06-.88a2 2 0 0 1-1.81 1c-1.32 0-2.37-1.12-2.37-2.83s1.15-3 2.48-3a1.77 1.77 0 0 1 1.56.72V102zm-1.4 4.84a2.31 2.31 0 0 0 0-.37 1.23 1.23 0 0 0-1.21-1c-.9 0-1.4.79-1.4 1.83s.5 1.75 1.39 1.75a1.24 1.24 0 0 0 1.21-1 1.78 1.78 0 0 0 0-.41zM282.68 110.08l-.09-.62a2 2 0 0 1-1.63.74 1.64 1.64 0 0 1-1.74-1.65c0-1.39 1.24-2.1 3.28-2.09v-.09c0-.36-.14-1-1.12-1a3 3 0 0 0-1.49.41l-.27-.91a4 4 0 0 1 2-.48 2.07 2.07 0 0 1 2.28 2.33v2a8.46 8.46 0 0 0 .08 1.33zm-.18-2.71c-1 0-1.94.19-1.94 1a.74.74 0 0 0 .8.79 1.12 1.12 0 0 0 1.09-.76.87.87 0 0 0 .05-.31zM286.88 103v1.58h1.33v1h-1.33V108c0 .67.18 1 .71 1a2.4 2.4 0 0 0 .55-.06V110a3 3 0 0 1-1 .14 1.62 1.62 0 0 1-1.2-.45 2.19 2.19 0 0 1-.44-1.55v-2.6h-.79v-1h.79v-1.25zM290.76 103a.74.74 0 0 1-.8.75.73.73 0 0 1-.77-.75.79.79 0 0 1 1.57 0zm-1.49 7.08v-5.54h1.41v5.54zM297.44 107.26a2.74 2.74 0 0 1-2.84 2.94 2.67 2.67 0 0 1-2.77-2.85 2.73 2.73 0 0 1 2.86-2.93 2.65 2.65 0 0 1 2.75 2.84zm-4.17 0c0 1.07.52 1.88 1.38 1.88s1.35-.78 1.35-1.9c0-.86-.39-1.85-1.34-1.85s-1.39 1-1.39 1.92zM298.59 106.19v-1.65h1.23l.07.83a2 2 0 0 1 1.76-1c1 0 2 .62 2 2.37v3.29h-1.4V107c0-.79-.3-1.4-1.06-1.4a1.18 1.18 0 0 0-1.09.82 1.65 1.65 0 0 0-.06.46v3.25h-1.41zM32.36 239.23v-7.66H34l2 3.28a23.12 23.12 0 0 1 1.31 2.57c-.09-1-.13-2-.13-3.18v-2.67h1.3v7.66H37l-2-3.36a29 29 0 0 1-1.37-2.65c.06 1 .07 2 .07 3.26v2.74zM40.05 231.67a14.38 14.38 0 0 1 2.23-.16 4.65 4.65 0 0 1 3.12.89 3.42 3.42 0 0 1 1.2 2.82 4 4 0 0 1-1.2 3 5.08 5.08 0 0 1-3.46 1.05 16.84 16.84 0 0 1-1.89-.1zm1.4 6.49a4.42 4.42 0 0 0 .77 0 2.63 2.63 0 0 0 2.9-2.94 2.44 2.44 0 0 0-2.72-2.66 4.81 4.81 0 0 0-.95.08zM53.31 239a4.87 4.87 0 0 1-2 .34 3.61 3.61 0 0 1-3.91-3.85 3.86 3.86 0 0 1 4.09-4.05 4.6 4.6 0 0 1 1.87.34l-.31 1.12a3.67 3.67 0 0 0-1.5-.3 2.56 2.56 0 0 0-2.69 2.82 2.52 2.52 0 0 0 2.68 2.76 3.89 3.89 0 0 0 1.52-.28zM56.94 235.72v1H54v-1zM62.29 239.06a3.94 3.94 0 0 1-1.56.28 2.66 2.66 0 0 1-2.86-2.82 2.86 2.86 0 0 1 3.08-3 3.5 3.5 0 0 1 1.36.26l-.25 1a2.37 2.37 0 0 0-1.06-.22 1.79 1.79 0 0 0 0 3.58 2.78 2.78 0 0 0 1.1-.21zM68.49 236.41a2.74 2.74 0 0 1-2.84 3 2.68 2.68 0 0 1-2.77-2.86 2.73 2.73 0 0 1 2.86-2.93 2.65 2.65 0 0 1 2.75 2.79zm-4.17.06c0 1.07.52 1.87 1.38 1.87s1.35-.78 1.35-1.89c0-.87-.39-1.86-1.34-1.86s-1.39.96-1.39 1.88zM69.65 235.34c0-.63 0-1.17-.05-1.65h1.2l.06.82a1.91 1.91 0 0 1 1.7-.94 1.6 1.6 0 0 1 1.54 1 2.14 2.14 0 0 1 .68-.69 1.84 1.84 0 0 1 1.12-.33c.92 0 1.85.62 1.85 2.4v3.26h-1.31v-3.06c0-.92-.31-1.46-1-1.46a1.07 1.07 0 0 0-1 .73 1.78 1.78 0 0 0-.07.47v3.32H73V236c0-.77-.3-1.31-1-1.31a1.09 1.09 0 0 0-1 .79 1.17 1.17 0 0 0 0 .52v3.27h-1.35zM79.29 235.54v-1.85h1.22l.07.86a2.15 2.15 0 0 1 1.9-1c1.28 0 2.33 1.09 2.33 2.82 0 2-1.26 3-2.52 3a1.84 1.84 0 0 1-1.56-.74v2.86h-1.4zm1.4 1.37a1.67 1.67 0 0 0 0 .39 1.27 1.27 0 0 0 1.23 1c.89 0 1.41-.74 1.41-1.83s-.48-1.78-1.37-1.78a1.3 1.3 0 0 0-1.25 1 1.07 1.07 0 0 0-.06.35zM86 231.16h1.41v8.07H86zM90.36 232.15a.74.74 0 0 1-.8.75.74.74 0 0 1-.77-.75.79.79 0 0 1 1.57 0zm-1.49 7.08v-5.54h1.41v5.54zM94.9 239.23l-.1-.61a2.06 2.06 0 0 1-1.64.74 1.65 1.65 0 0 1-1.74-1.65c0-1.4 1.24-2.11 3.29-2.09v-.1c0-.36-.15-1-1.13-1a3 3 0 0 0-1.49.41l-.27-.91a4 4 0 0 1 2-.49 2.07 2.07 0 0 1 2.29 2.33v2a8.46 8.46 0 0 0 .08 1.33zm-.19-2.71c-1 0-1.93.2-1.93 1a.73.73 0 0 0 .8.79 1.14 1.14 0 0 0 1.09-.76 1.08 1.08 0 0 0 0-.3zM97.56 235.34v-1.65h1.23l.07.83a2 2 0 0 1 1.77-1c1 0 2 .62 2 2.38v3.28h-1.4v-3.08c0-.79-.29-1.39-1-1.39a1.15 1.15 0 0 0-1.09.81 1.35 1.35 0 0 0-.14.48v3.25h-1.44zM105.61 232.11v1.58h1.33v1.05h-1.33v2.44c0 .67.18 1 .72 1a2.14 2.14 0 0 0 .54-.07v1.07a3.15 3.15 0 0 1-1 .13 1.62 1.62 0 0 1-1.2-.45 2.19 2.19 0 0 1-.43-1.55v-2.6h-.8v-1.05h.8v-1.25zM43 250.9l-.09-.62a2 2 0 0 1-1.64.74 1.64 1.64 0 0 1-1.73-1.65c0-1.39 1.23-2.1 3.28-2.09v-.09c0-.36-.15-1-1.12-1a3 3 0 0 0-1.49.41l-.28-.91a4 4 0 0 1 2-.48 2.07 2.07 0 0 1 2.29 2.33v2a8.46 8.46 0 0 0 .08 1.33zm-.19-2.71c-1 0-1.93.19-1.93 1a.73.73 0 0 0 .8.79 1.13 1.13 0 0 0 1.09-.76 1.15 1.15 0 0 0 0-.31zM50.67 245.36c0 .38-.05.83-.05 1.59v3.14a2.67 2.67 0 0 1-2.95 3.18 3.83 3.83 0 0 1-1.93-.44l.3-1.06a3.3 3.3 0 0 0 1.62.42 1.47 1.47 0 0 0 1.59-1.67V250a1.85 1.85 0 0 1-1.61.82 2.45 2.45 0 0 1-2.35-2.7 2.65 2.65 0 0 1 2.51-2.92 1.74 1.74 0 0 1 1.6.86l.05-.74zm-1.45 2.22a1.58 1.58 0 0 0 0-.38 1.17 1.17 0 0 0-1.14-.9c-.78 0-1.36.69-1.36 1.81 0 .95.48 1.71 1.35 1.71a1.2 1.2 0 0 0 1.14-.84 2.83 2.83 0 0 0 0-.5zM57.19 245.36v4.73a2.67 2.67 0 0 1-3 3.18 3.89 3.89 0 0 1-1.94-.44l.31-1.06a3.26 3.26 0 0 0 1.61.42 1.47 1.47 0 0 0 1.6-1.67V250a1.86 1.86 0 0 1-1.61.82 2.45 2.45 0 0 1-2.35-2.7 2.65 2.65 0 0 1 2.51-2.92 1.74 1.74 0 0 1 1.6.86l.06-.74zm-1.45 2.22a1.58 1.58 0 0 0 0-.38 1.17 1.17 0 0 0-1.14-.9c-.78 0-1.36.69-1.36 1.81 0 .95.47 1.71 1.35 1.71a1.2 1.2 0 0 0 1.14-.84 2.83 2.83 0 0 0 .05-.5zM58.6 247.15c0-.75 0-1.29-.05-1.79h1.22v1.06a1.64 1.64 0 0 1 1.51-1.18 1.61 1.61 0 0 1 .33 0v1.32a2.08 2.08 0 0 0-.41-.05 1.24 1.24 0 0 0-1.2 1.09 2.74 2.74 0 0 0 0 .43v2.87h-1.4zM63.54 248.52a1.5 1.5 0 0 0 1.7 1.43 4.16 4.16 0 0 0 1.54-.25l.2 1a5.3 5.3 0 0 1-1.93.34 2.61 2.61 0 0 1-2.85-2.8 2.73 2.73 0 0 1 2.7-3 2.4 2.4 0 0 1 2.39 2.69 2.73 2.73 0 0 1-.05.59zm2.43-1a1.19 1.19 0 0 0-1.15-1.35 1.36 1.36 0 0 0-1.28 1.35zM73.48 245.36v4.73a2.67 2.67 0 0 1-3 3.18 3.88 3.88 0 0 1-1.93-.44l.31-1.06a3.26 3.26 0 0 0 1.61.42 1.47 1.47 0 0 0 1.59-1.67V250a1.87 1.87 0 0 1-1.61.82 2.45 2.45 0 0 1-2.36-2.7 2.65 2.65 0 0 1 2.52-2.92 1.74 1.74 0 0 1 1.6.86l.06-.74zM72 247.58a1.58 1.58 0 0 0 0-.38 1.17 1.17 0 0 0-1.14-.9c-.79 0-1.36.69-1.36 1.81 0 .95.47 1.71 1.35 1.71A1.18 1.18 0 0 0 72 249a2.14 2.14 0 0 0 .06-.5zM78.05 250.9l-.09-.62a2 2 0 0 1-1.63.74 1.64 1.64 0 0 1-1.74-1.65c0-1.39 1.24-2.1 3.28-2.09v-.09c0-.36-.14-1-1.12-1a3 3 0 0 0-1.49.41l-.27-.91a4 4 0 0 1 2-.48 2.07 2.07 0 0 1 2.28 2.33v2a8.46 8.46 0 0 0 .08 1.33zm-.18-2.71c-1 0-1.93.19-1.93 1a.73.73 0 0 0 .79.79 1.12 1.12 0 0 0 1.09-.76.87.87 0 0 0 .05-.31zM82.25 243.78v1.58h1.33v1h-1.33v2.44c0 .67.18 1 .71 1a2.4 2.4 0 0 0 .55-.06v1.06a3 3 0 0 1-1 .14 1.62 1.62 0 0 1-1.2-.45 2.19 2.19 0 0 1-.44-1.55v-2.6h-.79v-1h.79v-1.25zM86.13 243.81a.74.74 0 0 1-.8.75.73.73 0 0 1-.77-.75.79.79 0 0 1 1.57 0zm-1.49 7.09v-5.54h1.41v5.54zM92.81 248.08A2.74 2.74 0 0 1 90 251a2.67 2.67 0 0 1-2.77-2.85 2.73 2.73 0 0 1 2.86-2.93 2.65 2.65 0 0 1 2.72 2.86zm-4.17 0c0 1.07.52 1.88 1.38 1.88s1.35-.78 1.35-1.9c0-.86-.39-1.85-1.34-1.85s-1.39 1-1.39 1.92zM94 247v-1.65h1.23l.06.83a2 2 0 0 1 1.76-.95c1 0 2 .62 2 2.37v3.29h-1.4v-3.13c0-.79-.29-1.4-1.06-1.4a1.18 1.18 0 0 0-1.09.82 1.66 1.66 0 0 0-.05.46v3.25H94zM51.7 260.19a1.51 1.51 0 0 0 1.71 1.43 4.14 4.14 0 0 0 1.53-.25l.21 1a5.32 5.32 0 0 1-1.94.34 2.62 2.62 0 0 1-2.85-2.8 2.74 2.74 0 0 1 2.71-3 2.41 2.41 0 0 1 2.38 2.7 4 4 0 0 1 0 .59zm2.43-1a1.18 1.18 0 0 0-1.13-1.33 1.37 1.37 0 0 0-1.29 1.35zM56.58 258.68v-1.65h1.22l.07.83a2 2 0 0 1 1.76-1c1 0 2 .63 2 2.38v3.28H60.2v-3.12c0-.8-.3-1.4-1.06-1.4a1.17 1.17 0 0 0-1.09.82 1.26 1.26 0 0 0-.06.45v3.25h-1.41zM68.15 257c0 .37-.05.83-.05 1.59v3.14a2.67 2.67 0 0 1-2.95 3.18 4 4 0 0 1-1.94-.44l.31-1.06a3.37 3.37 0 0 0 1.61.42 1.48 1.48 0 0 0 1.6-1.67v-.48a1.86 1.86 0 0 1-1.61.82 2.45 2.45 0 0 1-2.35-2.71 2.65 2.65 0 0 1 2.51-2.92 1.73 1.73 0 0 1 1.6.87l.06-.74zm-1.45 2.21a1.5 1.5 0 0 0 0-.37 1.17 1.17 0 0 0-1.14-.9c-.78 0-1.36.68-1.36 1.81 0 .94.47 1.7 1.35 1.7a1.2 1.2 0 0 0 1.14-.84 2.65 2.65 0 0 0 0-.5zM71.05 255.48a.74.74 0 0 1-.8.75.74.74 0 0 1-.77-.75.79.79 0 0 1 1.57 0zm-1.49 7.08V257H71v5.53zM72.47 258.68v-1.65h1.22l.07.83a2 2 0 0 1 1.76-1c1 0 2 .63 2 2.38v3.28h-1.4v-3.12c0-.8-.3-1.4-1.06-1.4a1.17 1.17 0 0 0-1.09.82 1.26 1.26 0 0 0-.06.45v3.25h-1.44zM80 260.19a1.5 1.5 0 0 0 1.7 1.43 4.16 4.16 0 0 0 1.54-.25l.2 1a5.26 5.26 0 0 1-1.93.34 2.61 2.61 0 0 1-2.85-2.8 2.74 2.74 0 0 1 2.7-3 2.41 2.41 0 0 1 2.39 2.7 2.79 2.79 0 0 1 0 .59zm2.43-1a1.19 1.19 0 0 0-1.15-1.35 1.36 1.36 0 0 0-1.28 1.37zM84.78 261.28a3.16 3.16 0 0 0 1.42.4c.61 0 .89-.25.89-.62s-.23-.56-.91-.8c-1.08-.38-1.54-1-1.53-1.62 0-1 .81-1.74 2.1-1.74a3.25 3.25 0 0 1 1.46.33l-.27 1a2.44 2.44 0 0 0-1.17-.32c-.5 0-.77.24-.77.58s.26.53 1 .78c1 .36 1.47.87 1.48 1.69 0 1-.78 1.73-2.25 1.73a3.53 3.53 0 0 1-1.68-.39zM243.56 233.06l-.66 2.17h-1.45l2.46-7.66h1.78l2.49 7.66h-1.5l-.69-2.17zm2.19-1.06l-.6-1.89c-.15-.46-.27-1-.39-1.43-.11.45-.23 1-.36 1.43l-.6 1.89zM249.26 227.67a12.13 12.13 0 0 1 2.13-.16 3.48 3.48 0 0 1 2.27.63 2.16 2.16 0 0 1 .75 1.69 2.33 2.33 0 0 1-.66 1.74 3.38 3.38 0 0 1-2.42.82 3.48 3.48 0 0 1-.69 0v2.89h-1.38zm1.38 3.57a2.63 2.63 0 0 0 .69.06c1 0 1.68-.51 1.68-1.41s-.59-1.31-1.56-1.31a3.48 3.48 0 0 0-.81.07zM257 227.57v7.66h-1.39v-7.66zM258.49 234a3.16 3.16 0 0 0 1.42.39c.62 0 .89-.25.89-.61s-.23-.57-.91-.81c-1.08-.37-1.53-1-1.52-1.61a1.85 1.85 0 0 1 2.09-1.74 3.29 3.29 0 0 1 1.47.33l-.28 1a2.44 2.44 0 0 0-1.17-.32c-.5 0-.77.24-.77.58s.26.52 1 .77c1 .37 1.46.88 1.47 1.7 0 1-.78 1.72-2.25 1.72a3.54 3.54 0 0 1-1.68-.38zM265.82 235.23v-4.49h-.75v-1.05h.75v-.23a2.57 2.57 0 0 1 .67-1.89 2.11 2.11 0 0 1 1.44-.54 2.69 2.69 0 0 1 .9.14l-.1 1.08a1.57 1.57 0 0 0-.59-.1c-.7 0-.93.58-.93 1.26v.28h1.21v1.05h-1.2v4.49zM274.43 232.41a2.75 2.75 0 0 1-2.85 3 2.68 2.68 0 0 1-2.77-2.86 2.73 2.73 0 0 1 2.86-2.93 2.66 2.66 0 0 1 2.76 2.79zm-4.18.06c0 1.07.53 1.87 1.38 1.87s1.35-.78 1.35-1.89c0-.87-.38-1.86-1.34-1.86s-1.39.96-1.39 1.88zM275.58 231.48c0-.75 0-1.29-.05-1.79h1.22v1.06a1.65 1.65 0 0 1 1.51-1.18 1.61 1.61 0 0 1 .33 0v1.32a2.18 2.18 0 0 0-.41 0 1.23 1.23 0 0 0-1.25 1.05 2.87 2.87 0 0 0 0 .44v2.86h-1.4zM283.47 228.15a.74.74 0 0 1-.8.75.74.74 0 0 1-.77-.75.79.79 0 0 1 1.57 0zm-1.47 7.08v-5.54h1.41v5.54zM284.89 231.34v-1.65h1.23l.06.83a2 2 0 0 1 1.76-1c1 0 2 .62 2 2.38v3.28h-1.4v-3.08c0-.79-.3-1.39-1.06-1.39a1.16 1.16 0 0 0-1.09.81 1.35 1.35 0 0 0-.06.46v3.25h-1.41zM293 228.11v1.58h1.33v1.05H293v2.44c0 .67.18 1 .71 1a2.31 2.31 0 0 0 .55-.07v1.07a3.08 3.08 0 0 1-1 .13 1.66 1.66 0 0 1-1.21-.45 2.24 2.24 0 0 1-.43-1.55v-2.6h-.79v-1.05h.79v-1.25zM296.26 232.85a1.5 1.5 0 0 0 1.7 1.44 4.16 4.16 0 0 0 1.54-.25l.2 1a5.1 5.1 0 0 1-1.93.34 2.61 2.61 0 0 1-2.85-2.79 2.74 2.74 0 0 1 2.7-3 2.41 2.41 0 0 1 2.39 2.69 3.57 3.57 0 0 1-.05.59zm2.43-1a1.2 1.2 0 0 0-1.15-1.36 1.37 1.37 0 0 0-1.28 1.36zM301.14 231.48c0-.75 0-1.29-.05-1.79h1.22v1.06a1.65 1.65 0 0 1 1.51-1.18 1.61 1.61 0 0 1 .33 0v1.32a2.18 2.18 0 0 0-.41 0 1.23 1.23 0 0 0-1.25 1.05 2.87 2.87 0 0 0 0 .44v2.86h-1.4zM305.19 231.34c0-.63 0-1.17-.05-1.65h1.23l.07.83a2 2 0 0 1 1.76-1c1 0 2 .62 2 2.38v3.28h-1.4v-3.08c0-.79-.29-1.39-1.06-1.39a1.17 1.17 0 0 0-1.09.81 1.66 1.66 0 0 0 0 .46v3.25h-1.41zM314.81 235.23l-.09-.61a2.06 2.06 0 0 1-1.64.74 1.64 1.64 0 0 1-1.73-1.65c0-1.4 1.23-2.11 3.28-2.09v-.1c0-.36-.15-1-1.12-1a2.9 2.9 0 0 0-1.51.48l-.28-.91a4 4 0 0 1 2-.49 2.07 2.07 0 0 1 2.28 2.3v2a8.46 8.46 0 0 0 .08 1.33zm-.18-2.71c-1 0-1.94.2-1.94 1a.73.73 0 0 0 .8.79 1.12 1.12 0 0 0 1.09-.76 1.11 1.11 0 0 0 .05-.3zM317.47 227.16h1.41v8.07h-1.41zM253.37 246.9l-.09-.62a2 2 0 0 1-1.64.74 1.65 1.65 0 0 1-1.74-1.65c0-1.39 1.24-2.1 3.29-2.09v-.09c0-.36-.15-1-1.13-1a3 3 0 0 0-1.49.41l-.27-.91a4 4 0 0 1 2-.48 2.07 2.07 0 0 1 2.28 2.33v2a9.88 9.88 0 0 0 .08 1.33zm-.18-2.71c-1 0-1.93.19-1.93 1a.73.73 0 0 0 .79.79 1.12 1.12 0 0 0 1.09-.76.87.87 0 0 0 .05-.31zM256 243c0-.64 0-1.17-.05-1.65h1.23l.07.83a2 2 0 0 1 1.76-.95c1 0 2 .62 2 2.37v3.29h-1.4v-3.13c0-.79-.29-1.4-1.06-1.4a1.18 1.18 0 0 0-1.09.82 1.66 1.66 0 0 0-.05.46v3.25H256zM267.65 238.83v8.07h-1.25l-.06-.88a2 2 0 0 1-1.81 1c-1.31 0-2.36-1.12-2.36-2.83s1.15-2.95 2.48-2.95a1.75 1.75 0 0 1 1.55.72v-3.13zm-1.4 4.84a1.55 1.55 0 0 0 0-.37 1.22 1.22 0 0 0-1.2-1c-.9 0-1.4.79-1.4 1.83s.5 1.75 1.39 1.75a1.22 1.22 0 0 0 1.2-1 1.36 1.36 0 0 0 .05-.41zM272.49 244.52a1.51 1.51 0 0 0 1.71 1.48 4.11 4.11 0 0 0 1.53-.25l.21 1a5.3 5.3 0 0 1-1.94.25 2.62 2.62 0 0 1-2.86-2.8 2.74 2.74 0 0 1 2.71-3 2.41 2.41 0 0 1 2.39 2.69 3.57 3.57 0 0 1-.05.59zm2.44-1a1.19 1.19 0 0 0-1.15-1.35 1.37 1.37 0 0 0-1.29 1.35zM278.22 241.36l.66 1c.18.29.34.57.5.85.16-.31.32-.59.48-.88l.61-1H282l-1.83 2.67 1.89 2.88h-1.58l-.68-1.11c-.19-.29-.34-.59-.51-.89-.16.31-.31.59-.5.89l-.63 1.11h-1.55l1.92-2.82-1.85-2.72zM284.65 239.78v1.58H286v1h-1.33v2.44c0 .67.19 1 .72 1a2.4 2.4 0 0 0 .55-.06v1.06a3.07 3.07 0 0 1-1 .14 1.63 1.63 0 0 1-1.21-.45 2.24 2.24 0 0 1-.43-1.55v-2.6h-.8v-1h.8v-1.25zM288 244.52a1.51 1.51 0 0 0 1.71 1.43 4.11 4.11 0 0 0 1.53-.25l.21 1a5.3 5.3 0 0 1-1.93.34 2.62 2.62 0 0 1-2.86-2.8 2.74 2.74 0 0 1 2.71-3 2.4 2.4 0 0 1 2.38 2.69 3.85 3.85 0 0 1 0 .59zm2.44-1a1.19 1.19 0 0 0-1.15-1.35 1.37 1.37 0 0 0-1.29 1.35zM292.84 243.15v-1.79H294v1.06h.05a1.64 1.64 0 0 1 1.51-1.18 1.76 1.76 0 0 1 .33 0v1.32a2.18 2.18 0 0 0-.41-.05 1.24 1.24 0 0 0-1.25 1.06 2.68 2.68 0 0 0-.05.43v2.87h-1.4zM296.89 243v-1.65h1.23l.06.83a2 2 0 0 1 1.76-.95c1 0 2 .62 2 2.37v3.29h-1.4v-3.13c0-.79-.3-1.4-1.06-1.4a1.17 1.17 0 0 0-1.09.82 1.35 1.35 0 0 0-.06.46v3.25h-1.41zM306.52 246.9l-.1-.62a2 2 0 0 1-1.64.74 1.65 1.65 0 0 1-1.74-1.65c0-1.39 1.24-2.1 3.29-2.09v-.09c0-.36-.15-1-1.13-1a3.06 3.06 0 0 0-1.49.41l-.27-.91a4 4 0 0 1 2-.48 2.07 2.07 0 0 1 2.29 2.33v2a8.46 8.46 0 0 0 .08 1.33zm-.19-2.71c-1 0-1.93.19-1.93 1a.73.73 0 0 0 .8.79 1.05 1.05 0 0 0 1.13-1.07zM309.18 238.83h1.41v8.07h-1.41zM261.5 257.28a3.16 3.16 0 0 0 1.42.4c.62 0 .89-.25.89-.62s-.23-.56-.91-.8c-1.08-.38-1.53-1-1.52-1.62a1.85 1.85 0 0 1 2.09-1.74 3.21 3.21 0 0 1 1.46.33l-.27 1a2.44 2.44 0 0 0-1.17-.32c-.5 0-.77.24-.77.58s.26.53 1 .78c1 .36 1.47.87 1.48 1.69 0 1-.78 1.73-2.25 1.73a3.53 3.53 0 0 1-1.68-.39zM267.19 253l1 3c.11.35.23.77.31 1.08.09-.31.19-.72.29-1.09l.87-2.95h1.5l-1.39 3.77c-.76 2.07-1.27 3-1.93 3.56a2.85 2.85 0 0 1-1.47.72l-.32-1.19a2.29 2.29 0 0 0 .82-.38 2.41 2.41 0 0 0 .77-.88.63.63 0 0 0 .09-.25.77.77 0 0 0-.08-.27l-2-5.08zM271.79 257.28a3.21 3.21 0 0 0 1.43.4c.61 0 .88-.25.88-.62s-.22-.56-.91-.8c-1.08-.38-1.53-1-1.52-1.62a1.85 1.85 0 0 1 2.09-1.74 3.26 3.26 0 0 1 1.47.33l-.27 1a2.47 2.47 0 0 0-1.17-.32c-.5 0-.78.24-.78.58s.26.53 1 .78c1 .36 1.46.87 1.48 1.69 0 1-.79 1.73-2.25 1.73a3.55 3.55 0 0 1-1.69-.39zM278.21 251.45V253h1.33v1h-1.33v2.45c0 .67.18 1 .72 1a1.81 1.81 0 0 0 .54-.07v1.07a3 3 0 0 1-1 .14 1.59 1.59 0 0 1-1.2-.46 2.18 2.18 0 0 1-.43-1.54v-2.61h-.8v-1h.8v-1.25zM281.52 256.19a1.5 1.5 0 0 0 1.7 1.43 4.16 4.16 0 0 0 1.54-.25l.2 1a5.22 5.22 0 0 1-1.93.34 2.62 2.62 0 0 1-2.85-2.8 2.74 2.74 0 0 1 2.7-3 2.41 2.41 0 0 1 2.39 2.7 4 4 0 0 1 0 .59zm2.43-1a1.19 1.19 0 0 0-1.15-1.35 1.37 1.37 0 0 0-1.28 1.35zM286.4 254.68v-1.65h1.2l.06.82a1.9 1.9 0 0 1 1.71-.95 1.6 1.6 0 0 1 1.53 1 2.1 2.1 0 0 1 .69-.7 1.85 1.85 0 0 1 1.11-.33c.92 0 1.85.63 1.85 2.4v3.26h-1.35v-3.05c0-.92-.32-1.47-1-1.47a1.07 1.07 0 0 0-1 .74 2.32 2.32 0 0 0-.07.46v3.32h-1.33v-3.2c0-.77-.31-1.32-1-1.32a1.1 1.1 0 0 0-1 .8 1.29 1.29 0 0 0-.08.45v3.27h-1.32zM296 257.28a3.16 3.16 0 0 0 1.42.4c.61 0 .89-.25.89-.62s-.23-.56-.91-.8c-1.08-.38-1.54-1-1.53-1.62 0-1 .81-1.74 2.1-1.74a3.25 3.25 0 0 1 1.46.33l-.27 1a2.44 2.44 0 0 0-1.17-.32c-.5 0-.77.24-.77.58s.26.53 1 .78c1 .36 1.47.87 1.48 1.69 0 1-.79 1.73-2.25 1.73a3.53 3.53 0 0 1-1.68-.39zM112 312.32v-7.66h1.59l2 3.29a23 23 0 0 1 1.31 2.56c-.09-1-.13-2-.13-3.18v-2.67h1.3v7.66h-1.44l-2-3.36a27.88 27.88 0 0 1-1.38-2.65c0 1 .06 2 .06 3.26v2.74zM124.94 309.5a2.75 2.75 0 0 1-2.85 2.95 2.68 2.68 0 0 1-2.77-2.86 2.73 2.73 0 0 1 2.86-2.93 2.66 2.66 0 0 1 2.76 2.84zm-4.18.06c0 1.07.53 1.88 1.38 1.88s1.35-.79 1.35-1.9c0-.87-.39-1.86-1.34-1.86s-1.39.96-1.39 1.88zM126.09 308.43v-1.64h1.23l.07.83a2 2 0 0 1 1.76-1c1 0 2 .63 2 2.38v3.28h-1.4v-3.08c0-.8-.29-1.4-1-1.4a1.19 1.19 0 0 0-1.1.82 1.55 1.55 0 0 0 0 .45v3.25h-1.41zM135.08 308.81v1h-2.9v-1zM136.23 312.32v-7.66h1.6l2 3.29a21.42 21.42 0 0 1 1.31 2.56c-.09-1-.12-2-.12-3.18v-2.67h1.29v7.66h-1.44l-2-3.36a27.88 27.88 0 0 1-1.38-2.65c.06 1 .07 2 .07 3.26v2.74zM143.92 304.76a14.47 14.47 0 0 1 2.23-.16 4.7 4.7 0 0 1 3.13.89 3.42 3.42 0 0 1 1.19 2.82 4 4 0 0 1-1.19 3.05 5.14 5.14 0 0 1-3.47 1 14.84 14.84 0 0 1-1.89-.1zm1.4 6.49a4.42 4.42 0 0 0 .77 0 2.63 2.63 0 0 0 2.9-2.94 2.43 2.43 0 0 0-2.71-2.66 4.85 4.85 0 0 0-1 .08zM157.18 312.09a4.61 4.61 0 0 1-2 .35 3.62 3.62 0 0 1-3.92-3.86 3.85 3.85 0 0 1 4.1-4 4.33 4.33 0 0 1 1.86.34l-.31 1.11a3.67 3.67 0 0 0-1.5-.3 2.55 2.55 0 0 0-2.68 2.82 2.52 2.52 0 0 0 2.67 2.77 4 4 0 0 0 1.6-.32zM162.27 310.15l-.66 2.17h-1.44l2.45-7.66h1.79l2.49 7.66h-1.5l-.7-2.17zm2.19-1.06l-.6-1.88c-.15-.47-.27-1-.39-1.44-.11.45-.23 1-.36 1.44l-.59 1.88zM168 304.76a12.18 12.18 0 0 1 2.14-.16 3.46 3.46 0 0 1 2.26.63 2.17 2.17 0 0 1 .75 1.69 2.33 2.33 0 0 1-.66 1.74 3.37 3.37 0 0 1-2.42.82 4.44 4.44 0 0 1-.68 0v2.88H168zm1.39 3.57a2.54 2.54 0 0 0 .68.06c1 0 1.68-.51 1.68-1.41s-.59-1.31-1.56-1.31a4 4 0 0 0-.8.07zM175.73 304.66v7.66h-1.4v-7.66zM177.21 311a3.13 3.13 0 0 0 1.42.4c.61 0 .88-.25.88-.62s-.22-.57-.91-.81c-1.08-.37-1.53-1-1.52-1.61a1.85 1.85 0 0 1 2.09-1.74 3.26 3.26 0 0 1 1.47.33l-.27 1a2.47 2.47 0 0 0-1.17-.32c-.5 0-.78.24-.78.58s.26.52 1 .77c1 .37 1.46.88 1.48 1.7 0 1-.79 1.73-2.25 1.73a3.55 3.55 0 0 1-1.69-.39zM184.53 312.32v-4.49h-.75v-1h.75v-.24a2.58 2.58 0 0 1 .67-1.89 2.11 2.11 0 0 1 1.45-.53 2.66 2.66 0 0 1 .89.13l-.1 1.08a1.8 1.8 0 0 0-.59-.1c-.69 0-.93.58-.93 1.26v.29h1.21v1h-1.2v4.49zM193.14 309.5a2.74 2.74 0 0 1-2.84 2.95 2.68 2.68 0 0 1-2.78-2.86 2.74 2.74 0 0 1 2.87-2.93 2.65 2.65 0 0 1 2.75 2.84zm-4.17.06c0 1.07.52 1.88 1.37 1.88s1.35-.79 1.35-1.9c0-.87-.38-1.86-1.34-1.86s-1.35.96-1.35 1.88zM194.29 308.57v-1.78h1.21v1a1.66 1.66 0 0 1 1.51-1.18 1.11 1.11 0 0 1 .33 0V308a2.09 2.09 0 0 0-.41 0 1.23 1.23 0 0 0-1.25 1.06 2.63 2.63 0 0 0 0 .43v2.86h-1.4zM200.69 304.25h1.41v3.3a1.86 1.86 0 0 1 .69-.64 1.88 1.88 0 0 1 1-.25c.94 0 1.93.63 1.93 2.4v3.26h-1.4v-3.1c0-.81-.3-1.41-1.07-1.41a1.15 1.15 0 0 0-1.08.78 1.33 1.33 0 0 0-.06.42v3.31h-1.41zM207.89 306.79l1 3c.12.34.23.76.31 1.08.09-.32.19-.72.29-1.09l.87-2.95h1.5l-1.39 3.77c-.76 2.07-1.27 3-1.93 3.56a2.77 2.77 0 0 1-1.47.71l-.32-1.18a2.29 2.29 0 0 0 .82-.38 2.39 2.39 0 0 0 .76-.88.51.51 0 0 0 .09-.25.54.54 0 0 0-.08-.27l-2-5.08zM212.66 312.32c0-.37.05-1 .05-1.56v-6.51h1.39v3.3a2 2 0 0 1 1.77-.89c1.35 0 2.32 1.13 2.31 2.81 0 2-1.26 3-2.51 3a1.9 1.9 0 0 1-1.75-1l-.07.83zm1.44-2.32a1.86 1.86 0 0 0 0 .33 1.3 1.3 0 0 0 1.24 1c.87 0 1.41-.7 1.41-1.81s-.47-1.78-1.4-1.78a1.31 1.31 0 0 0-1.24 1 1.73 1.73 0 0 0-.05.36zM219.36 308.57c0-.75 0-1.28-.05-1.78h1.22l.05 1a1.66 1.66 0 0 1 1.51-1.18 1.11 1.11 0 0 1 .33 0V308a2.18 2.18 0 0 0-.41 0 1.23 1.23 0 0 0-1.21 1 2.63 2.63 0 0 0 0 .43v2.86h-1.4zM224.9 305.24a.74.74 0 0 1-.8.75.74.74 0 0 1-.77-.75.79.79 0 0 1 1.57 0zm-1.49 7.08v-5.53h1.41v5.53zM231.43 304.25v8.07h-1.25l-.06-.87a2 2 0 0 1-1.81 1c-1.31 0-2.36-1.13-2.36-2.83 0-1.86 1.15-3 2.48-3a1.75 1.75 0 0 1 1.55.73v-3.14zm-1.4 4.84a1.47 1.47 0 0 0 0-.36 1.22 1.22 0 0 0-1.2-1c-.9 0-1.4.8-1.4 1.83s.5 1.75 1.39 1.75a1.22 1.22 0 0 0 1.2-1 1.32 1.32 0 0 0 .05-.41zM129.2 315.92v8.07H128l-.06-.88a2 2 0 0 1-1.81 1c-1.32 0-2.36-1.12-2.36-2.83s1.15-2.95 2.48-2.95a1.75 1.75 0 0 1 1.55.73v-3.14zm-1.4 4.84a1.47 1.47 0 0 0 0-.36 1.22 1.22 0 0 0-1.2-1c-.9 0-1.4.79-1.4 1.83s.5 1.75 1.39 1.75a1.23 1.23 0 0 0 1.2-1 1.36 1.36 0 0 0 0-.41zM132.19 316.91a.74.74 0 0 1-.8.75.76.76 0 1 1 0-1.51.74.74 0 0 1 .8.76zM130.7 324v-5.54h1.41V324zM133.54 322.7a3 3 0 0 0 1.42.4c.62 0 .89-.25.89-.61s-.23-.57-.91-.81c-1.08-.37-1.53-1-1.52-1.61a1.85 1.85 0 0 1 2.09-1.74 3.29 3.29 0 0 1 1.47.33l-.28 1a2.44 2.44 0 0 0-1.17-.32c-.5 0-.77.24-.77.58s.26.52 1 .77c1 .36 1.46.88 1.47 1.69 0 1-.78 1.73-2.25 1.73a3.66 3.66 0 0 1-1.68-.38zM140 316.87v1.58h1.33v1.05H140v2.44c0 .67.18 1 .71 1a2.31 2.31 0 0 0 .55-.07v1.07a3.08 3.08 0 0 1-1 .13 1.62 1.62 0 0 1-1.2-.45 2.19 2.19 0 0 1-.44-1.55v-2.6h-.79v-1.05h.79v-1.22zM142.35 320.24v-1.79h1.22v1.06h.05a1.65 1.65 0 0 1 1.51-1.18 1.61 1.61 0 0 1 .33 0v1.32a2.08 2.08 0 0 0-.41-.05 1.24 1.24 0 0 0-1.25 1.06 2.74 2.74 0 0 0 0 .43V324h-1.4zM147.89 316.91a.74.74 0 0 1-.8.75.73.73 0 0 1-.77-.75.79.79 0 0 1 1.57 0zM146.4 324v-5.54h1.41V324zM149.26 324c0-.38.05-1 .05-1.56v-6.51h1.4v3.29a2 2 0 0 1 1.77-.88c1.36 0 2.32 1.12 2.31 2.81 0 2-1.26 3-2.51 3a1.9 1.9 0 0 1-1.75-.95l-.07.83zm1.45-2.29a1.69 1.69 0 0 0 0 .33 1.29 1.29 0 0 0 1.24 1c.88 0 1.41-.7 1.41-1.82s-.47-1.77-1.4-1.77a1.31 1.31 0 0 0-1.24 1 1.9 1.9 0 0 0 0 .37zM160.92 322.33v1.66h-1.22l-.07-.84a2 2 0 0 1-1.78 1c-1 0-1.93-.6-1.93-2.41v-3.25h1.4v3c0 .92.29 1.51 1 1.51a1.18 1.18 0 0 0 1.07-.75 1.23 1.23 0 0 0 .08-.44v-3.34h1.4zM164 316.87v1.58h1.33v1.05H164v2.44c0 .67.18 1 .71 1a2.31 2.31 0 0 0 .55-.07v1.07a3.08 3.08 0 0 1-1 .13 1.62 1.62 0 0 1-1.2-.45 2.19 2.19 0 0 1-.44-1.55v-2.6h-.79v-1.05h.79v-1.22zM167.92 316.91a.74.74 0 0 1-.8.75.76.76 0 1 1 0-1.51.74.74 0 0 1 .8.76zm-1.49 7.09v-5.54h1.41V324zM174.6 321.17a2.74 2.74 0 0 1-2.84 2.94 2.67 2.67 0 0 1-2.77-2.85 2.73 2.73 0 0 1 2.86-2.93 2.65 2.65 0 0 1 2.75 2.84zm-4.17.06c0 1.06.52 1.87 1.38 1.87s1.35-.78 1.35-1.9c0-.86-.39-1.85-1.34-1.85s-1.39.96-1.39 1.88zM175.76 320.1v-1.65h1.23l.07.83a2 2 0 0 1 1.76-.95c1 0 2 .62 2 2.37v3.3h-1.4v-3.13c0-.79-.29-1.4-1.06-1.4a1.18 1.18 0 0 0-1.09.82 1.66 1.66 0 0 0-.05.46V324h-1.41zM184.62 320.1c0-.64 0-1.17-.05-1.65h1.21l.05.82a1.91 1.91 0 0 1 1.7-.94 1.6 1.6 0 0 1 1.54 1 2 2 0 0 1 .68-.69 1.84 1.84 0 0 1 1.12-.33c.92 0 1.85.62 1.85 2.4V324h-1.37v-3.06c0-.92-.31-1.47-1-1.47a1.08 1.08 0 0 0-1 .74 1.78 1.78 0 0 0-.07.47V324H188v-3.21c0-.77-.31-1.32-1-1.32a1.09 1.09 0 0 0-1 .8 1.16 1.16 0 0 0-.08.45V324h-1.36zM199.53 321.17a2.75 2.75 0 0 1-2.85 2.94 2.68 2.68 0 0 1-2.77-2.85 2.73 2.73 0 0 1 2.86-2.93 2.66 2.66 0 0 1 2.76 2.84zm-4.18.06c0 1.06.53 1.87 1.38 1.87s1.35-.78 1.35-1.9c0-.86-.38-1.85-1.34-1.85s-1.39.96-1.39 1.88zM205.78 315.92v6.51c0 .57 0 1.18.05 1.56h-1.25l-.06-.88a2 2 0 0 1-1.81 1c-1.32 0-2.36-1.12-2.36-2.83s1.14-2.95 2.47-2.95a1.77 1.77 0 0 1 1.56.73v-3.14zm-1.4 4.84a2.19 2.19 0 0 0 0-.36 1.23 1.23 0 0 0-1.21-1c-.89 0-1.39.79-1.39 1.83s.5 1.75 1.38 1.75a1.24 1.24 0 0 0 1.21-1 1.78 1.78 0 0 0 0-.41zM208.28 321.61a1.5 1.5 0 0 0 1.7 1.44 4.09 4.09 0 0 0 1.53-.26l.21 1a5.3 5.3 0 0 1-1.93.34 2.62 2.62 0 0 1-2.86-2.79 2.75 2.75 0 0 1 2.71-3A2.41 2.41 0 0 1 212 321a3.57 3.57 0 0 1-.05.59zm2.43-1a1.2 1.2 0 0 0-1.15-1.36 1.37 1.37 0 0 0-1.28 1.36zM213.16 315.92h1.41V324h-1.41zM216 322.7a3 3 0 0 0 1.42.4c.61 0 .89-.25.89-.61s-.23-.57-.91-.81c-1.08-.37-1.54-1-1.52-1.61a1.85 1.85 0 0 1 2.09-1.74 3.21 3.21 0 0 1 1.46.33l-.27 1a2.44 2.44 0 0 0-1.17-.32c-.5 0-.77.24-.77.58s.26.52 1 .77c1 .36 1.47.88 1.48 1.69 0 1-.78 1.73-2.25 1.73a3.66 3.66 0 0 1-1.68-.38z"/><path class="cls-6" d="M291.33 207.69h-31.25v-33.26h41.78V204"/><path class="cls-5" d="M298.73 203.08l3.13 5.42 3.14-5.42h-6.27z"/><path class="cls-6" d="M268.08 173.64v-5.74h33.43M260.08 182.34h41.78"/><path class="cls-7" d="M263.33 178.55h1.61M266.9 178.55h1.61M270.46 178.55h1.62"/><path class="cls-6" d="M277.54 178.55h19.96"/><circle class="cls-6" cx="293.96" cy="207.69" r="2.62"/><path class="cls-7" d="M271.41 171.35h1.62M274.98 171.35h1.61M278.54 171.35h1.62M275.98 199.76l-4.69-4.69 4.69-4.69M286.04 190.38l4.69 4.69-4.69 4.69M284.79 187.85l-7.46 14.23"/><g id="_Group_" data-name="Group"><g id="_Group_2" data-name="Group 2"><g id="_Group_3" data-name="Group 3"><path class="cls-8" d="M194.71 264.63l-20.35.11"/><path class="cls-5" d="M193.75 261.42l5.58 3.19-5.55 3.24-.03-6.43z"/></g><g id="_Group_4" data-name="Group 4"><path class="cls-8" d="M190.4 255.7l-3.5 3.38-9.11.06"/><path class="cls-5" d="M187.49 254.04l6.23-1.55-1.76 6.17-4.47-4.62z"/></g><g id="_Group_5" data-name="Group 5"><path class="cls-8" d="M190.5 273.2l-3.54-3.35-9.11.06"/><path class="cls-5" d="M192.03 270.22l1.83 6.16-6.26-1.49 4.43-4.67z"/></g></g><path id="_Path_" data-name="Path" class="cls-8" d="M186.84 277.76v18.03h-31.42v-47.24h30.66v3.59"/><path id="_Path_2" data-name="Path 2" class="cls-8" d="M155.42 287.2h12.18"/><path id="_Path_3" data-name="Path 3" class="cls-8" d="M174.13 287.2h12.56"/><circle id="_Ellipse_" data-name="Ellipse" class="cls-8" cx="170.75" cy="287.12" r="2.69"/></g><path class="cls-9" d="M100.39 48.66a27.21 27.21 0 0 0-3.09 3.26l-3.89-.36a22.45 22.45 0 0 0-2.06 5.09l3 2.48a18.31 18.31 0 0 0-.35 3.22v.23a18.31 18.31 0 0 0 .32 3.22l-3 2.48a22 22 0 0 0 2.06 5.09L97.3 73a19.06 19.06 0 0 0 4.88 4.89l-.36 3.93a22.71 22.71 0 0 0 5 2.1l2.55-3.06a18.2 18.2 0 0 0 6.9 0l2.54 3a22.44 22.44 0 0 0 5-2.09"/><path class="cls-5" d="M97.68 46.98l6.04-1.27-1.92 5.87-4.12-4.6z"/><path class="cls-9" d="M126.44 74.82l1.94-1.82 3.89.36a22 22 0 0 0 2.06-5.09l-3-2.48a18.31 18.31 0 0 0 .32-3.22v-.23a18.31 18.31 0 0 0-.32-3.22l3-2.48a22 22 0 0 0-2.06-5.09l-3.89.36a19.1 19.1 0 0 0-4.89-4.91l.36-3.93a21.73 21.73 0 0 0-5-2.09l-2.53 3.05a18.25 18.25 0 0 0-6.91 0L106.83 41a22 22 0 0 0-5 2.09"/><path class="cls-9" d="M120.01 71.71h-14.36l-1.42-1.42V55.92l1.42-1.41h14.36l1.42 1.41v14.37l-1.42 1.42zM104.23 58.16H99.8M104.23 63.11H99.8M104.23 68.05H99.8M125.73 58.16h-4.43M125.73 63.11h-4.43M125.73 68.05h-4.43M107.82 71.64v4.44M112.76 71.64v4.44M117.71 71.64v4.44M107.82 50.15v4.42M112.76 50.15v4.42M117.71 50.15v4.42"/><circle class="cls-9" cx="125.06" cy="77" r="2.58"/><path class="cls-5" d="M71.22 213.8v2.82h8.31a3.86 3.86 0 0 0 4.14-4.14v-8a.87.87 0 0 0-.46-.85 8 8 0 0 1 0-13.5.93.93 0 0 0 .48-.9v-8.39a3.84 3.84 0 0 0-4.18-4.14H76.9v2.72H58.53v-2.72c-1.51.12-3-.25-4.42.31a3.71 3.71 0 0 0-2.34 2.87c-.05.26-.11.5.27.65a3 3 0 0 1 2.06 3 3.06 3.06 0 0 1-2.17 2.91l-.21.1V212.35a4.05 4.05 0 0 0 4.28 4.31c1.6-.06 3.21 0 4.86 0v1.49H55.58a5.37 5.37 0 0 1-5.45-5.49V186.52l-.15.12a9.77 9.77 0 0 1-1.7-1.48 3.05 3.05 0 0 1 1.36-4.59.75.75 0 0 0 .54-.65 5.41 5.41 0 0 1 5.67-4.81h2.63v-2.77h5a4.44 4.44 0 0 1 1.88-2.79 4.35 4.35 0 0 1 2.6-.71c1.92.08 3.35 1.29 4.06 3.48h4.89v2.79h2.61a5.45 5.45 0 0 1 5.79 5.8v8.19c4-.8 7.22.21 9.35 3.69a7.4 7.4 0 0 1-.24 8.54c-2.19 3.17-5.33 4.07-9.11 3.28v8a5.38 5.38 0 0 1-5.57 5.56h-8.48v2.87l-3.17-1.79-3.22-1.84zm23-16.92a6.58 6.58 0 1 0-6.54 6.51 6.55 6.55 0 0 0 6.51-6.51zm-34-22.94v4h15.01v-4zM51 181.86a1.64 1.64 0 0 0-1.68 1.63 1.67 1.67 0 0 0 3.33 0 1.64 1.64 0 0 0-1.71-1.63zm19.31-9.51a2.63 2.63 0 0 0-2.64-1.93 2.51 2.51 0 0 0-2.44 1.93z"/><path class="cls-5" d="M57.64 190.82h5.69v5.64h-5.69zm1.58 1.58v2.48h2.55v-2.48zM57.64 211.08v-5.62h5.69v5.62zm1.58-4.08v2.48h2.54V207zM63.34 183.54v5.6h-5.7v-5.6zm-4.13 4.05h2.54v-2.5h-2.54zM63.33 203.76h-5.68v-5.59h5.68zm-4.11-1.55h2.53v-2.52h-2.53zM78.73 185.63v1.45h-12.2v-1.45zM78.73 199.82v1.46H66.54v-1.46zM66.52 194.35v-1.43H78.7v1.43zM66.53 209v-1.46H78.7V209zM83.51 196.92l1-1.09 2 2.26 4.23-4.49 1 1.09-5.19 5.4z"/></g></svg>