<svg id="Layer_1" data-name="Layer 1" xmlns="http://www.w3.org/2000/svg" viewBox="0 0 350.5 351"><defs><style>.cls-1{fill:#d0b5d5;}.cls-2{fill:#e6dbe6;}.cls-3{fill:#963596;}.cls-4{fill:#fff;}.cls-5{fill:#372261;}</style></defs><title>over-the-top</title><path class="cls-1" d="M221.2,135.15l-5.6-5.6L296.2,49A175,175,0,0,0,54.3,49l82,82-5.6,5.6-82-82a175,175,0,0,0,0,241.9l80.6-80.6,5.6,5.6-80.6,80.6a175,175,0,0,0,241.9,0L217,222.85l5.6-5.6,79.2,79.2a175,175,0,0,0,0-241.9l-80.6,80.6Z"/><circle id="_Path_" data-name="&lt;Path&gt;" class="cls-2" cx="175.3" cy="175.45" r="167.9"/><path class="cls-3" d="M128,133.75,53.8,59.55a167.88,167.88,0,0,0,0,231.8l74.2-74.2a63.08,63.08,0,0,1,0-83.4Zm89-5.6L291.2,54A167.88,167.88,0,0,0,59.4,54l74.2,74.2a63.08,63.08,0,0,1,83.4,0Zm-83.4,94.6L59.4,297a167.88,167.88,0,0,0,231.8,0L217,222.75a63.08,63.08,0,0,1-83.4,0Zm89-5.6,74.2,74.2a167.88,167.88,0,0,0,0-231.8l-74.2,74.2a63.08,63.08,0,0,1,0,83.4Z"/><path class="cls-4" d="M25.94,193.24h-2v-1.08h5.34v1.08h-2v6H25.94Z"/><path class="cls-4" d="M32.92,199.24l-.08-.57h0a1.9,1.9,0,0,1-1.51.68,1.52,1.52,0,0,1-1.61-1.52c0-1.29,1.14-1.94,3-1.93v-.08c0-.34-.13-.9-1-.9a2.71,2.71,0,0,0-1.37.38l-.25-.84a3.7,3.7,0,0,1,1.85-.45A1.92,1.92,0,0,1,34,196.16V198a8.69,8.69,0,0,0,.07,1.23Zm-.16-2.5c-.92,0-1.79.18-1.79,1a.68.68,0,0,0,.74.73,1,1,0,0,0,1-.7.77.77,0,0,0,0-.29Z"/><path class="cls-4" d="M35.38,195.77c0-.69,0-1.18,0-1.64h1.12l0,1h0A1.53,1.53,0,0,1,37.94,194a1.48,1.48,0,0,1,.31,0v1.22a1.92,1.92,0,0,0-.38,0,1.15,1.15,0,0,0-1.16,1,2.46,2.46,0,0,0,0,.4v2.65H35.38Z"/><path class="cls-4" d="M43.79,194.13c0,.34,0,.76,0,1.47v2.89a2.94,2.94,0,0,1-.76,2.32,2.89,2.89,0,0,1-2,.62,3.56,3.56,0,0,1-1.79-.41l.29-1a3.05,3.05,0,0,0,1.49.39,1.36,1.36,0,0,0,1.47-1.55v-.44h0a1.74,1.74,0,0,1-1.49.76,2.27,2.27,0,0,1-2.18-2.5,2.45,2.45,0,0,1,2.32-2.7,1.6,1.6,0,0,1,1.48.8h0l.06-.68Zm-1.33,2a1.27,1.27,0,0,0,0-.34,1.07,1.07,0,0,0-1.05-.83c-.73,0-1.26.63-1.26,1.67,0,.87.44,1.57,1.24,1.57a1.08,1.08,0,0,0,1-.78,1.7,1.7,0,0,0,.06-.46Z"/><path class="cls-4" d="M46.05,197a1.39,1.39,0,0,0,1.57,1.33,4,4,0,0,0,1.42-.23l.19.89a4.78,4.78,0,0,1-1.78.31,2.42,2.42,0,0,1-2.64-2.58,2.53,2.53,0,0,1,2.5-2.75,2.22,2.22,0,0,1,2.2,2.49,3.21,3.21,0,0,1,0,.54Zm2.24-.9a1.09,1.09,0,0,0-1.06-1.25,1.27,1.27,0,0,0-1.18,1.25Z"/><path class="cls-4" d="M52,192.67v1.46h1.23v1H52v2.26c0,.62.17.94.66.94a2,2,0,0,0,.51-.06l0,1a3,3,0,0,1-.93.12,1.47,1.47,0,0,1-1.12-.42,2,2,0,0,1-.4-1.42v-2.41H50v-1h.73V193Z"/><path class="cls-4" d="M55.15,197a1.39,1.39,0,0,0,1.58,1.33,3.91,3.91,0,0,0,1.41-.23l.19.89a4.78,4.78,0,0,1-1.78.31,2.42,2.42,0,0,1-2.64-2.58,2.53,2.53,0,0,1,2.5-2.75,2.23,2.23,0,0,1,2.21,2.49,2.28,2.28,0,0,1,0,.54Zm2.25-.9a1.1,1.1,0,0,0-1.06-1.25,1.27,1.27,0,0,0-1.19,1.25Z"/><path class="cls-4" d="M64.37,191.79v6c0,.53,0,1.09,0,1.44H63.26l0-.81h0a1.82,1.82,0,0,1-1.67.92,2.34,2.34,0,0,1-2.18-2.61A2.43,2.43,0,0,1,61.62,194a1.63,1.63,0,0,1,1.44.67h0v-2.89Zm-1.29,4.47a2,2,0,0,0,0-.34,1.14,1.14,0,0,0-1.12-.91c-.82,0-1.29.73-1.29,1.69s.47,1.62,1.28,1.62A1.15,1.15,0,0,0,63,197.4a1.48,1.48,0,0,0,0-.38Z"/><path class="cls-4" d="M71.69,199.08a3.67,3.67,0,0,1-1.45.26,2.45,2.45,0,0,1-2.64-2.6A2.65,2.65,0,0,1,70.45,194a3.35,3.35,0,0,1,1.25.24l-.23,1a2.22,2.22,0,0,0-1-.2,1.66,1.66,0,0,0,0,3.31,2.62,2.62,0,0,0,1-.2Z"/><path class="cls-4" d="M77.5,196.64a2.53,2.53,0,0,1-2.62,2.71,2.46,2.46,0,0,1-2.56-2.63A2.52,2.52,0,0,1,75,194,2.45,2.45,0,0,1,77.5,196.64Zm-3.85.05c0,1,.48,1.73,1.27,1.73s1.25-.72,1.25-1.75c0-.8-.36-1.71-1.24-1.71S73.65,195.84,73.65,196.69Z"/><path class="cls-4" d="M78.57,195.65c0-.59,0-1.08,0-1.52h1.14l.06.76h0a1.85,1.85,0,0,1,1.63-.88c.89,0,1.82.58,1.82,2.2v3H81.91v-2.89c0-.73-.28-1.29-1-1.29a1.09,1.09,0,0,0-1,.76,1.34,1.34,0,0,0,0,.42v3h-1.3Z"/><path class="cls-4" d="M86.05,192.67v1.46h1.23v1H86.05v2.26c0,.62.17.94.66.94a2.09,2.09,0,0,0,.51-.06l0,1a3,3,0,0,1-.94.12,1.46,1.46,0,0,1-1.11-.42,2,2,0,0,1-.4-1.42v-2.41h-.73v-1h.73V193Z"/><path class="cls-4" d="M89.17,197a1.39,1.39,0,0,0,1.58,1.33,4,4,0,0,0,1.41-.23l.19.89a4.78,4.78,0,0,1-1.78.31,2.42,2.42,0,0,1-2.64-2.58,2.53,2.53,0,0,1,2.5-2.75,2.23,2.23,0,0,1,2.21,2.49,3,3,0,0,1,0,.54Zm2.25-.9a1.1,1.1,0,0,0-1.06-1.25,1.27,1.27,0,0,0-1.19,1.25Z"/><path class="cls-4" d="M93.68,195.65c0-.59,0-1.08-.05-1.52h1.14l.06.76h0a1.85,1.85,0,0,1,1.63-.88c.89,0,1.82.58,1.82,2.2v3H97v-2.89c0-.73-.27-1.29-1-1.29a1.09,1.09,0,0,0-1,.76,1.34,1.34,0,0,0,0,.42v3h-1.3Z"/><path class="cls-4" d="M101.16,192.67v1.46h1.23v1h-1.23v2.26c0,.62.17.94.66.94a2.09,2.09,0,0,0,.51-.06l0,1a3,3,0,0,1-.94.12,1.46,1.46,0,0,1-1.11-.42,2,2,0,0,1-.4-1.42v-2.41h-.73v-1h.73V193Z"/><path class="cls-4" d="M31.89,210.24l-.08-.57h0a1.9,1.9,0,0,1-1.51.68,1.52,1.52,0,0,1-1.61-1.52c0-1.29,1.15-1.94,3-1.93v-.08c0-.34-.14-.9-1-.9a2.72,2.72,0,0,0-1.38.38l-.25-.84a3.7,3.7,0,0,1,1.85-.45A1.92,1.92,0,0,1,33,207.16V209a8.69,8.69,0,0,0,.07,1.23Zm-.16-2.5c-.92,0-1.79.18-1.79,1a.68.68,0,0,0,.74.73,1,1,0,0,0,1-.7.77.77,0,0,0,.05-.29Z"/><path class="cls-4" d="M34.35,206.65c0-.59,0-1.08,0-1.52h1.13l.07.76h0a1.85,1.85,0,0,1,1.63-.88c.89,0,1.81.58,1.81,2.2v3H37.69v-2.89c0-.73-.27-1.29-1-1.29a1.07,1.07,0,0,0-1,.76,1.09,1.09,0,0,0-.06.42v3h-1.3Z"/><path class="cls-4" d="M45.07,202.79v6c0,.53,0,1.09,0,1.44H44l-.05-.81h0a1.82,1.82,0,0,1-1.66.92A2.34,2.34,0,0,1,40,207.74,2.43,2.43,0,0,1,42.32,205a1.63,1.63,0,0,1,1.44.67h0v-2.89Zm-1.29,4.47a2,2,0,0,0,0-.34,1.14,1.14,0,0,0-1.11-.91c-.83,0-1.3.73-1.3,1.69s.47,1.62,1.29,1.62a1.15,1.15,0,0,0,1.11-.92,1.48,1.48,0,0,0,0-.38Z"/><path class="cls-4" d="M51.51,210.24l-.09-.57h0a1.89,1.89,0,0,1-1.51.68,1.52,1.52,0,0,1-1.61-1.52c0-1.29,1.15-1.94,3-1.93v-.08c0-.34-.14-.9-1-.9a2.75,2.75,0,0,0-1.38.38l-.25-.84a3.7,3.7,0,0,1,1.85-.45,1.91,1.91,0,0,1,2.11,2.15V209a8.69,8.69,0,0,0,.07,1.23Zm-.17-2.5c-.91,0-1.78.18-1.78,1a.67.67,0,0,0,.73.73,1.06,1.06,0,0,0,1-.7,1,1,0,0,0,0-.29Z"/><path class="cls-4" d="M58.68,202.79v6c0,.53,0,1.09,0,1.44H57.57l-.06-.81h0a1.82,1.82,0,0,1-1.67.92,2.34,2.34,0,0,1-2.18-2.61A2.43,2.43,0,0,1,55.93,205a1.63,1.63,0,0,1,1.44.67h0v-2.89Zm-1.29,4.47a2,2,0,0,0,0-.34,1.14,1.14,0,0,0-1.12-.91c-.83,0-1.29.73-1.29,1.69s.46,1.62,1.28,1.62a1.15,1.15,0,0,0,1.12-.92,1.48,1.48,0,0,0,0-.38Z"/><path class="cls-4" d="M67,202.79v6c0,.53,0,1.09,0,1.44H65.84l0-.81h0a1.84,1.84,0,0,1-1.67.92,2.34,2.34,0,0,1-2.19-2.61A2.43,2.43,0,0,1,64.2,205a1.62,1.62,0,0,1,1.44.67h0v-2.89Zm-1.29,4.47a2,2,0,0,0,0-.34,1.13,1.13,0,0,0-1.11-.91c-.83,0-1.29.73-1.29,1.69s.46,1.62,1.28,1.62a1.15,1.15,0,0,0,1.11-.92,1.48,1.48,0,0,0,0-.38Z"/><path class="cls-4" d="M69.25,208a1.4,1.4,0,0,0,1.58,1.33,4,4,0,0,0,1.42-.23l.18.89a4.78,4.78,0,0,1-1.78.31A2.42,2.42,0,0,1,68,207.76a2.54,2.54,0,0,1,2.5-2.75,2.23,2.23,0,0,1,2.21,2.49,3.21,3.21,0,0,1,0,.54Zm2.25-.9a1.1,1.1,0,0,0-1.06-1.25,1.27,1.27,0,0,0-1.19,1.25Z"/><path class="cls-4" d="M73.76,202.79h1.3v7.45h-1.3Z"/><path class="cls-4" d="M77.83,203.7a.73.73,0,0,1-1.45,0,.69.69,0,0,1,.73-.7A.68.68,0,0,1,77.83,203.7Zm-1.37,6.54v-5.11h1.3v5.11Z"/><path class="cls-4" d="M80,205.13l.83,2.59c.15.45.25.86.35,1.28h0c.09-.42.21-.82.35-1.28l.81-2.59h1.36l-2,5.11H80.47l-1.9-5.11Z"/><path class="cls-4" d="M85.39,208A1.39,1.39,0,0,0,87,209.37a4,4,0,0,0,1.41-.23l.19.89a4.78,4.78,0,0,1-1.78.31,2.42,2.42,0,0,1-2.64-2.58,2.53,2.53,0,0,1,2.5-2.75,2.23,2.23,0,0,1,2.21,2.49,3,3,0,0,1,0,.54Zm2.25-.9a1.1,1.1,0,0,0-1.06-1.25,1.27,1.27,0,0,0-1.19,1.25Z"/><path class="cls-4" d="M89.9,206.77c0-.69,0-1.18-.05-1.64H91l0,1h0a1.53,1.53,0,0,1,1.4-1.09,1.39,1.39,0,0,1,.3,0v1.22a1.84,1.84,0,0,0-.38,0,1.13,1.13,0,0,0-1.15,1,2.46,2.46,0,0,0,0,.4v2.65H89.9Z"/><path class="cls-4" d="M94.44,205.13l.93,2.74c.1.31.21.7.28,1h0l.27-1,.8-2.73h1.39l-1.28,3.48c-.71,1.91-1.18,2.76-1.79,3.29a2.58,2.58,0,0,1-1.35.66l-.3-1.09a2.32,2.32,0,0,0,1.46-1.17.45.45,0,0,0,.09-.23.51.51,0,0,0-.08-.25L93,205.13Z"/><path class="cls-4" d="M111.65,314.23l-.61,2h-1.33l2.26-7.08h1.65l2.3,7.08h-1.39l-.64-2Zm2-1-.55-1.75c-.14-.43-.25-.91-.36-1.32h0c-.11.41-.21.9-.34,1.32l-.54,1.75Z"/><path class="cls-4" d="M120.61,316.08a3.61,3.61,0,0,1-1.44.26,2.45,2.45,0,0,1-2.64-2.6,2.65,2.65,0,0,1,2.85-2.73,3.29,3.29,0,0,1,1.24.24l-.23,1a2.17,2.17,0,0,0-1-.2,1.66,1.66,0,0,0,0,3.31,2.66,2.66,0,0,0,1-.2Z"/><path class="cls-4" d="M125,315.54h0a1.76,1.76,0,0,1-1.58.81,2.32,2.32,0,0,1-2.15-2.59,2.45,2.45,0,0,1,2.29-2.75,1.6,1.6,0,0,1,1.49.79h0l0-.68h1.25c0,.46,0,.94,0,1.48v5.71H125Zm0-2.3a1.66,1.66,0,0,0,0-.32,1.12,1.12,0,0,0-1.1-.89c-.83,0-1.3.7-1.3,1.67s.45,1.64,1.27,1.64a1.14,1.14,0,0,0,1.1-.85,1.44,1.44,0,0,0,.06-.4Z"/><path class="cls-4" d="M132.25,314.71c0,.61,0,1.11,0,1.53h-1.13l-.07-.78h0a1.84,1.84,0,0,1-1.64.89c-.93,0-1.78-.55-1.78-2.22v-3h1.29v2.78c0,.85.27,1.39,1,1.39a1.07,1.07,0,0,0,1-.69,1.18,1.18,0,0,0,.08-.4v-3.08h1.29Z"/><path class="cls-4" d="M135,309.7a.73.73,0,0,1-1.45,0,.73.73,0,0,1,1.45,0Zm-1.38,6.54v-5.11H135v5.11Z"/><path class="cls-4" d="M136.27,315.05a2.85,2.85,0,0,0,1.31.37c.57,0,.82-.23.82-.57s-.21-.52-.84-.74c-1-.35-1.42-.89-1.41-1.49,0-.91.75-1.61,1.94-1.61a3,3,0,0,1,1.35.31l-.25.91a2.24,2.24,0,0,0-1.08-.3c-.47,0-.72.23-.72.54s.24.48.9.71c.92.34,1.35.81,1.36,1.57,0,.92-.72,1.59-2.08,1.59A3.29,3.29,0,0,1,136,316Z"/><path class="cls-4" d="M142.09,309.7a.69.69,0,0,1-.74.69.67.67,0,0,1-.71-.69.68.68,0,0,1,.72-.7A.69.69,0,0,1,142.09,309.7Zm-1.38,6.54v-5.11H142v5.11Z"/><path class="cls-4" d="M144.88,309.67v1.46h1.23v1h-1.23v2.26c0,.62.17.94.66.94a1.93,1.93,0,0,0,.5-.06l0,1a3,3,0,0,1-.94.12,1.46,1.46,0,0,1-1.11-.42,2,2,0,0,1-.4-1.42v-2.41h-.74v-1h.74V310Z"/><path class="cls-4" d="M148.46,309.7a.68.68,0,0,1-.74.69.67.67,0,0,1-.71-.69.73.73,0,0,1,1.45,0Zm-1.38,6.54v-5.11h1.31v5.11Z"/><path class="cls-4" d="M154.63,313.64a2.53,2.53,0,0,1-2.62,2.71,2.46,2.46,0,0,1-2.56-2.63,2.52,2.52,0,0,1,2.64-2.71A2.45,2.45,0,0,1,154.63,313.64Zm-3.85.05c0,1,.48,1.73,1.27,1.73s1.25-.72,1.25-1.75c0-.8-.36-1.71-1.24-1.71S150.78,312.84,150.78,313.69Z"/><path class="cls-4" d="M155.69,312.65c0-.59,0-1.08,0-1.52h1.14l.06.76h0a1.85,1.85,0,0,1,1.63-.88c.89,0,1.81.58,1.81,2.2v3H159v-2.89c0-.73-.27-1.29-1-1.29a1.09,1.09,0,0,0-1,.76,1.34,1.34,0,0,0-.05.42v3h-1.31Z"/><path class="cls-4" d="M166.75,316.24l-.08-.57h0a1.89,1.89,0,0,1-1.51.68,1.51,1.51,0,0,1-1.6-1.52c0-1.29,1.14-1.94,3-1.93v-.08c0-.34-.14-.9-1-.9a2.69,2.69,0,0,0-1.37.38l-.26-.84a3.7,3.7,0,0,1,1.85-.45,1.91,1.91,0,0,1,2.11,2.15V315a7.31,7.31,0,0,0,.08,1.23Zm-.17-2.5c-.91,0-1.78.18-1.78,1a.67.67,0,0,0,.73.73,1.05,1.05,0,0,0,1-.7,1,1,0,0,0,0-.29Z"/><path class="cls-4" d="M169.21,312.65c0-.59,0-1.08,0-1.52h1.13l.06.76h0A1.85,1.85,0,0,1,172,311c.89,0,1.82.58,1.82,2.2v3h-1.29v-2.89c0-.73-.28-1.29-1-1.29a1.09,1.09,0,0,0-1,.76,1.34,1.34,0,0,0-.05.42v3h-1.3Z"/><path class="cls-4" d="M179.93,308.79v6c0,.53,0,1.09,0,1.44h-1.16l-.05-.81h0a1.82,1.82,0,0,1-1.67.92,2.33,2.33,0,0,1-2.18-2.61,2.43,2.43,0,0,1,2.29-2.73,1.64,1.64,0,0,1,1.44.67h0v-2.89Zm-1.29,4.47a1.32,1.32,0,0,0,0-.34,1.12,1.12,0,0,0-1.11-.91c-.83,0-1.29.73-1.29,1.69s.46,1.62,1.28,1.62a1.28,1.28,0,0,0,1.16-1.3Z"/><path class="cls-4" d="M184.4,314a1.39,1.39,0,0,0,1.57,1.33,4,4,0,0,0,1.42-.23l.19.89a4.78,4.78,0,0,1-1.78.31,2.42,2.42,0,0,1-2.64-2.58,2.53,2.53,0,0,1,2.5-2.75,2.23,2.23,0,0,1,2.21,2.49,3,3,0,0,1-.05.54Zm2.25-.9a1.1,1.1,0,0,0-1.06-1.25,1.27,1.27,0,0,0-1.19,1.25Z"/><path class="cls-4" d="M188.91,312.65c0-.59,0-1.08,0-1.52H190l.06.76h0a1.85,1.85,0,0,1,1.63-.88c.89,0,1.82.58,1.82,2.2v3h-1.3v-2.89c0-.73-.27-1.29-1-1.29a1.09,1.09,0,0,0-1,.76,1.34,1.34,0,0,0,0,.42v3h-1.3Z"/><path class="cls-4" d="M199.58,311.13c0,.34,0,.76,0,1.47v2.89a3,3,0,0,1-.75,2.32,2.93,2.93,0,0,1-2,.62A3.52,3.52,0,0,1,195,318l.28-1a3.05,3.05,0,0,0,1.49.39,1.36,1.36,0,0,0,1.47-1.55v-.44h0a1.73,1.73,0,0,1-1.49.76,2.27,2.27,0,0,1-2.17-2.5,2.45,2.45,0,0,1,2.32-2.7,1.63,1.63,0,0,1,1.48.8h0l.05-.68Zm-1.33,2a1.27,1.27,0,0,0,0-.34,1.07,1.07,0,0,0-1.05-.83c-.73,0-1.26.63-1.26,1.67,0,.87.44,1.57,1.25,1.57a1.1,1.1,0,0,0,1-.78,2.24,2.24,0,0,0,.05-.46Z"/><path class="cls-4" d="M203.8,316.24l-.08-.57h0a1.9,1.9,0,0,1-1.51.68,1.52,1.52,0,0,1-1.61-1.52c0-1.29,1.14-1.94,3-1.93v-.08c0-.34-.13-.9-1-.9a2.72,2.72,0,0,0-1.38.38l-.25-.84a3.7,3.7,0,0,1,1.85-.45,1.92,1.92,0,0,1,2.11,2.15V315a8.69,8.69,0,0,0,.07,1.23Zm-.16-2.5c-.92,0-1.79.18-1.79,1a.68.68,0,0,0,.74.73,1,1,0,0,0,1-.7.77.77,0,0,0,0-.29Z"/><path class="cls-4" d="M210.93,311.13c0,.34,0,.76,0,1.47v2.89a2.94,2.94,0,0,1-.76,2.32,2.87,2.87,0,0,1-2,.62,3.52,3.52,0,0,1-1.78-.41l.28-1a3.08,3.08,0,0,0,1.49.39,1.36,1.36,0,0,0,1.47-1.55v-.44h0a1.73,1.73,0,0,1-1.49.76,2.27,2.27,0,0,1-2.17-2.5,2.45,2.45,0,0,1,2.32-2.7,1.63,1.63,0,0,1,1.48.8h0l.05-.68Zm-1.33,2a1.27,1.27,0,0,0,0-.34,1.07,1.07,0,0,0-1.05-.83c-.73,0-1.26.63-1.26,1.67,0,.87.44,1.57,1.25,1.57a1.1,1.1,0,0,0,1.05-.78,2.24,2.24,0,0,0,0-.46Z"/><path class="cls-4" d="M213.19,314a1.39,1.39,0,0,0,1.58,1.33,4,4,0,0,0,1.41-.23l.19.89a4.78,4.78,0,0,1-1.78.31,2.42,2.42,0,0,1-2.64-2.58,2.53,2.53,0,0,1,2.5-2.75,2.23,2.23,0,0,1,2.21,2.49,3,3,0,0,1,0,.54Zm2.25-.9a1.1,1.1,0,0,0-1.06-1.25,1.27,1.27,0,0,0-1.19,1.25Z"/><path class="cls-4" d="M217.7,312.65c0-.59,0-1.08,0-1.52h1.12l0,.75h0a1.76,1.76,0,0,1,1.58-.87,1.47,1.47,0,0,1,1.41.95h0a1.84,1.84,0,0,1,.63-.64,1.72,1.72,0,0,1,1-.31c.85,0,1.71.58,1.71,2.22v3H224v-2.82c0-.86-.29-1.36-.91-1.36a1,1,0,0,0-.9.68,2,2,0,0,0-.07.43v3.07h-1.26v-3c0-.72-.28-1.22-.88-1.22a1,1,0,0,0-.92.74,1.12,1.12,0,0,0-.07.42v3H217.7Z"/><path class="cls-4" d="M227.51,314a1.39,1.39,0,0,0,1.58,1.33,3.91,3.91,0,0,0,1.41-.23l.19.89a4.78,4.78,0,0,1-1.78.31,2.42,2.42,0,0,1-2.64-2.58,2.53,2.53,0,0,1,2.5-2.75A2.23,2.23,0,0,1,231,313.5a3.21,3.21,0,0,1,0,.54Zm2.25-.9a1.1,1.1,0,0,0-1.06-1.25,1.27,1.27,0,0,0-1.19,1.25Z"/><path class="cls-4" d="M232,312.65c0-.59,0-1.08,0-1.52h1.13l.06.76h0a1.85,1.85,0,0,1,1.63-.88c.89,0,1.82.58,1.82,2.2v3h-1.29v-2.89c0-.73-.28-1.29-1-1.29a1.1,1.1,0,0,0-1,.76,1.34,1.34,0,0,0-.05.42v3H232Z"/><path class="cls-4" d="M239.5,309.67v1.46h1.23v1H239.5v2.26c0,.62.17.94.67.94a2,2,0,0,0,.5-.06l0,1a2.94,2.94,0,0,1-.93.12,1.47,1.47,0,0,1-1.12-.42,2,2,0,0,1-.4-1.42v-2.41h-.73v-1h.73V310Z"/><path class="cls-4" d="M261.62,200.35c0-.91-.09-2-.08-3h0c-.23.86-.53,1.82-.84,2.71l-1,3.07h-1l-.94-3c-.28-.9-.53-1.87-.72-2.75h0c0,.92-.07,2.05-.13,3l-.15,2.85h-1.21l.47-7.08h1.7l.93,2.85c.25.83.47,1.67.65,2.45h0c.19-.76.43-1.63.7-2.46l1-2.84h1.68l.41,7.08h-1.26Z"/><path class="cls-4" d="M268.86,201.71c0,.61,0,1.11,0,1.53h-1.14l-.06-.78h0a1.84,1.84,0,0,1-1.64.89c-.93,0-1.78-.55-1.78-2.22v-3h1.29v2.78c0,.85.27,1.39.95,1.39a1.07,1.07,0,0,0,1-.69,1.18,1.18,0,0,0,.08-.4v-3.08h1.29Z"/><path class="cls-4" d="M270.25,195.79h1.31v7.45h-1.31Z"/><path class="cls-4" d="M274.43,196.67v1.46h1.23v1h-1.23v2.26c0,.62.17.94.66.94a2.09,2.09,0,0,0,.51-.06l0,1a3,3,0,0,1-.94.12,1.46,1.46,0,0,1-1.11-.42,2,2,0,0,1-.4-1.42v-2.41h-.73v-1h.73V197Z"/><path class="cls-4" d="M278,196.7a.73.73,0,0,1-1.45,0,.69.69,0,0,1,.73-.7A.68.68,0,0,1,278,196.7Zm-1.37,6.54v-5.11h1.3v5.11Z"/><path class="cls-4" d="M281.63,200v.89H279V200Z"/><path class="cls-4" d="M282.57,202.05a2.85,2.85,0,0,0,1.31.37c.57,0,.82-.23.82-.57s-.21-.52-.84-.74c-1-.35-1.42-.89-1.4-1.49a1.71,1.71,0,0,1,1.93-1.61,3,3,0,0,1,1.35.31l-.25.91a2.24,2.24,0,0,0-1.08-.3c-.46,0-.72.23-.72.54s.24.48.9.71c.92.34,1.35.81,1.36,1.57,0,.92-.72,1.59-2.08,1.59a3.29,3.29,0,0,1-1.55-.35Z"/><path class="cls-4" d="M290.77,203.08a3.67,3.67,0,0,1-1.45.26,2.45,2.45,0,0,1-2.63-2.6,2.64,2.64,0,0,1,2.84-2.73,3.35,3.35,0,0,1,1.25.24l-.23,1a2.18,2.18,0,0,0-1-.2,1.66,1.66,0,0,0,0,3.31,2.62,2.62,0,0,0,1-.2Z"/><path class="cls-4" d="M291.73,199.77c0-.69,0-1.18-.05-1.64h1.13l0,1h0a1.53,1.53,0,0,1,1.4-1.09,1.39,1.39,0,0,1,.3,0v1.22a1.84,1.84,0,0,0-.38,0,1.13,1.13,0,0,0-1.15,1,2.46,2.46,0,0,0,0,.4v2.65h-1.29Z"/><path class="cls-4" d="M296.38,201a1.39,1.39,0,0,0,1.57,1.33,4,4,0,0,0,1.42-.23l.19.89a4.8,4.8,0,0,1-1.79.31,2.41,2.41,0,0,1-2.63-2.58,2.53,2.53,0,0,1,2.5-2.75,2.22,2.22,0,0,1,2.2,2.49,3.21,3.21,0,0,1,0,.54Zm2.24-.9a1.1,1.1,0,0,0-1.06-1.25,1.27,1.27,0,0,0-1.18,1.25Z"/><path class="cls-4" d="M301.79,201a1.4,1.4,0,0,0,1.58,1.33,4,4,0,0,0,1.42-.23l.19.89a4.8,4.8,0,0,1-1.79.31,2.41,2.41,0,0,1-2.63-2.58,2.53,2.53,0,0,1,2.49-2.75,2.23,2.23,0,0,1,2.21,2.49,3.21,3.21,0,0,1,0,.54Zm2.25-.9a1.1,1.1,0,0,0-1.06-1.25,1.27,1.27,0,0,0-1.19,1.25Z"/><path class="cls-4" d="M306.3,199.65c0-.59,0-1.08,0-1.52h1.13l.06.76h0a1.83,1.83,0,0,1,1.62-.88c.9,0,1.82.58,1.82,2.2v3h-1.29v-2.89c0-.73-.27-1.29-1-1.29a1.1,1.1,0,0,0-1,.76,1.34,1.34,0,0,0,0,.42v3h-1.3Z"/><path class="cls-4" d="M248.86,213.05a2.85,2.85,0,0,0,1.31.37c.57,0,.82-.23.82-.57s-.21-.52-.84-.74c-1-.35-1.42-.89-1.4-1.49a1.71,1.71,0,0,1,1.93-1.61,3,3,0,0,1,1.35.31l-.25.91a2.24,2.24,0,0,0-1.08-.3c-.46,0-.72.23-.72.54s.25.48.9.71c.92.34,1.35.81,1.36,1.57,0,.92-.72,1.59-2.08,1.59a3.29,3.29,0,0,1-1.55-.35Z"/><path class="cls-4" d="M258.16,211.64a2.53,2.53,0,0,1-2.62,2.71,2.46,2.46,0,0,1-2.56-2.63,2.52,2.52,0,0,1,2.64-2.71A2.45,2.45,0,0,1,258.16,211.64Zm-3.85.05c0,1,.48,1.73,1.27,1.73s1.25-.72,1.25-1.75c0-.8-.36-1.71-1.24-1.71S254.31,210.84,254.31,211.69Z"/><path class="cls-4" d="M259.22,206.79h1.31v7.45h-1.31Z"/><path class="cls-4" d="M266.5,212.71c0,.61,0,1.11,0,1.53h-1.13l-.07-.78h0a1.83,1.83,0,0,1-1.63.89c-.94,0-1.79-.55-1.79-2.22v-3h1.29v2.78c0,.85.28,1.39,1,1.39a1.07,1.07,0,0,0,1-.69,1,1,0,0,0,.08-.4v-3.08h1.29Z"/><path class="cls-4" d="M269.38,207.67v1.46h1.23v1h-1.23v2.26c0,.62.16.94.66.94a1.93,1.93,0,0,0,.5-.06l0,1a2.94,2.94,0,0,1-.93.12,1.46,1.46,0,0,1-1.11-.42,2,2,0,0,1-.4-1.42v-2.41h-.74v-1h.74V208Z"/><path class="cls-4" d="M273,207.7a.69.69,0,0,1-.74.69.67.67,0,0,1-.71-.69.68.68,0,0,1,.72-.7A.69.69,0,0,1,273,207.7Zm-1.38,6.54v-5.11h1.3v5.11Z"/><path class="cls-4" d="M279.13,211.64a2.53,2.53,0,0,1-2.62,2.71,2.47,2.47,0,0,1-2.57-2.63,2.53,2.53,0,0,1,2.65-2.71A2.45,2.45,0,0,1,279.13,211.64Zm-3.85.05c0,1,.48,1.73,1.27,1.73s1.25-.72,1.25-1.75c0-.8-.36-1.71-1.24-1.71S275.28,210.84,275.28,211.69Z"/><path class="cls-4" d="M280.19,210.65c0-.59,0-1.08,0-1.52h1.13l.07.76h0A1.85,1.85,0,0,1,283,209c.89,0,1.81.58,1.81,2.2v3h-1.29v-2.89c0-.73-.27-1.29-1-1.29a1.07,1.07,0,0,0-1,.76,1.09,1.09,0,0,0-.06.42v3h-1.3Z"/><path class="cls-4" d="M293.08,206.79v6c0,.53,0,1.09.05,1.44H292l-.05-.81h0a1.84,1.84,0,0,1-1.67.92,2.33,2.33,0,0,1-2.18-2.61,2.43,2.43,0,0,1,2.28-2.73,1.62,1.62,0,0,1,1.44.67h0v-2.89Zm-1.29,4.47a2,2,0,0,0,0-.34,1.12,1.12,0,0,0-1.11-.91c-.83,0-1.29.73-1.29,1.69s.46,1.62,1.28,1.62a1.14,1.14,0,0,0,1.11-.92,1.48,1.48,0,0,0,0-.38Z"/><path class="cls-4" d="M295.38,212a1.4,1.4,0,0,0,1.58,1.33,4,4,0,0,0,1.42-.23l.19.89a4.8,4.8,0,0,1-1.79.31,2.41,2.41,0,0,1-2.63-2.58,2.53,2.53,0,0,1,2.49-2.75,2.23,2.23,0,0,1,2.21,2.49,3.21,3.21,0,0,1,0,.54Zm2.25-.9a1.1,1.1,0,0,0-1.06-1.25,1.27,1.27,0,0,0-1.19,1.25Z"/><path class="cls-4" d="M299.83,213.05a2.85,2.85,0,0,0,1.31.37c.57,0,.82-.23.82-.57s-.21-.52-.84-.74c-1-.35-1.42-.89-1.41-1.49a1.71,1.71,0,0,1,1.93-1.61,3,3,0,0,1,1.36.31l-.25.91a2.29,2.29,0,0,0-1.09-.3c-.46,0-.71.23-.71.54s.24.48.89.71c.93.34,1.36.81,1.37,1.57,0,.92-.73,1.59-2.08,1.59a3.33,3.33,0,0,1-1.56-.35Z"/><path class="cls-4" d="M305.64,207.7a.73.73,0,0,1-1.45,0,.69.69,0,0,1,.73-.7A.68.68,0,0,1,305.64,207.7Zm-1.37,6.54v-5.11h1.3v5.11Z"/><path class="cls-4" d="M311.63,209.13c0,.34,0,.76,0,1.47v2.89a2.94,2.94,0,0,1-.76,2.32,2.91,2.91,0,0,1-2,.62,3.56,3.56,0,0,1-1.79-.41l.29-1a3.05,3.05,0,0,0,1.49.39,1.36,1.36,0,0,0,1.47-1.55v-.44h0a1.72,1.72,0,0,1-1.49.76,2.27,2.27,0,0,1-2.17-2.5A2.45,2.45,0,0,1,309,209a1.6,1.6,0,0,1,1.48.8h0l.05-.68Zm-1.34,2a1.27,1.27,0,0,0,0-.34,1.06,1.06,0,0,0-1.05-.83c-.72,0-1.26.63-1.26,1.67,0,.87.44,1.57,1.25,1.57a1.1,1.1,0,0,0,1.05-.78,2.24,2.24,0,0,0,.05-.46Z"/><path class="cls-4" d="M313,210.65c0-.59,0-1.08,0-1.52h1.13l.07.76h0a1.85,1.85,0,0,1,1.63-.88c.89,0,1.81.58,1.81,2.2v3h-1.29v-2.89c0-.73-.27-1.29-1-1.29a1.07,1.07,0,0,0-1,.76,1.33,1.33,0,0,0-.06.42v3H313Z"/><path class="cls-4" d="M261.7,225.24l-.08-.57h0a1.91,1.91,0,0,1-1.52.68,1.51,1.51,0,0,1-1.6-1.52c0-1.29,1.14-1.94,3-1.93v-.08c0-.34-.13-.9-1-.9a2.69,2.69,0,0,0-1.37.38l-.25-.84a3.66,3.66,0,0,1,1.84-.45,1.91,1.91,0,0,1,2.11,2.15V224a7.31,7.31,0,0,0,.08,1.23Zm-.17-2.5c-.91,0-1.78.18-1.78,1a.67.67,0,0,0,.73.73,1,1,0,0,0,1-.7,1,1,0,0,0,0-.29Z"/><path class="cls-4" d="M264.16,221.65c0-.59,0-1.08,0-1.52h1.13l.06.76h0A1.83,1.83,0,0,1,267,220c.9,0,1.82.58,1.82,2.2v3H267.5v-2.89c0-.73-.28-1.29-1-1.29a1.1,1.1,0,0,0-1,.76,1.34,1.34,0,0,0-.05.42v3h-1.3Z"/><path class="cls-4" d="M274.88,217.79v6c0,.53,0,1.09,0,1.44h-1.15l-.06-.81h0a1.82,1.82,0,0,1-1.67.92,2.33,2.33,0,0,1-2.18-2.61,2.43,2.43,0,0,1,2.29-2.73,1.64,1.64,0,0,1,1.44.67h0v-2.89Zm-1.29,4.47a2,2,0,0,0,0-.34,1.14,1.14,0,0,0-1.12-.91c-.83,0-1.29.73-1.29,1.69s.46,1.62,1.28,1.62a1.28,1.28,0,0,0,1.16-1.3Z"/><path class="cls-4" d="M278.44,221.77c0-.69,0-1.18,0-1.64h1.12l0,1h0A1.54,1.54,0,0,1,281,220a1.32,1.32,0,0,1,.3,0v1.22a1.82,1.82,0,0,0-.37,0,1.15,1.15,0,0,0-1.16,1,2.46,2.46,0,0,0,0,.4v2.65h-1.29Z"/><path class="cls-4" d="M287,222.64a2.54,2.54,0,0,1-2.63,2.71,2.46,2.46,0,0,1-2.56-2.63A2.53,2.53,0,0,1,284.5,220,2.45,2.45,0,0,1,287,222.64Zm-3.86.05c0,1,.49,1.73,1.28,1.73s1.24-.72,1.24-1.75c0-.8-.35-1.71-1.24-1.71S283.18,221.84,283.18,222.69Z"/><path class="cls-4" d="M288.1,217.79h1.3v7.45h-1.3Z"/><path class="cls-4" d="M290.8,217.79h1.3v7.45h-1.3Z"/><path class="cls-4" d="M298.36,222.64a2.54,2.54,0,0,1-2.63,2.71,2.46,2.46,0,0,1-2.56-2.63,2.53,2.53,0,0,1,2.65-2.71A2.45,2.45,0,0,1,298.36,222.64Zm-3.86.05c0,1,.49,1.73,1.27,1.73s1.25-.72,1.25-1.75c0-.8-.35-1.71-1.24-1.71S294.5,221.84,294.5,222.69Z"/><path class="cls-4" d="M304,223.71c0,.61,0,1.11.05,1.53H302.9l-.06-.78h0a1.85,1.85,0,0,1-1.64.89c-.93,0-1.78-.55-1.78-2.22v-3h1.29v2.78c0,.85.27,1.39.95,1.39a1.08,1.08,0,0,0,1-.69,1.19,1.19,0,0,0,.07-.4v-3.08H304Z"/><path class="cls-4" d="M306.87,218.67v1.46h1.23v1h-1.23v2.26c0,.62.17.94.66.94a2.09,2.09,0,0,0,.51-.06l0,1a3,3,0,0,1-.94.12,1.46,1.46,0,0,1-1.11-.42,2,2,0,0,1-.4-1.42v-2.41h-.73v-1h.73V219Z"/><path class="cls-4" d="M134.6,91.63c0,2.37-1.44,3.72-3.39,3.72S128,93.83,128,91.75a3.39,3.39,0,0,1,3.36-3.7A3.27,3.27,0,0,1,134.6,91.63Zm-5.28.1c0,1.44.72,2.59,2,2.59s1.95-1.16,1.95-2.64-.66-2.59-1.95-2.59S129.32,90.27,129.32,91.73Z"/><path class="cls-4" d="M137.07,89.24h-2V88.16h5.34v1.08h-2v6h-1.29Z"/><path class="cls-4" d="M142.58,89.24h-2V88.16h5.35v1.08h-2v6h-1.29Z"/><path class="cls-4" d="M148.79,94.05a2.92,2.92,0,0,0,1.32.37c.56,0,.82-.23.82-.57s-.21-.52-.84-.74c-1-.35-1.42-.89-1.41-1.49A1.71,1.71,0,0,1,150.61,90a3,3,0,0,1,1.36.31l-.26.91a2.24,2.24,0,0,0-1.08-.3c-.46,0-.71.23-.71.54s.24.48.89.71c.92.34,1.36.81,1.37,1.57,0,.92-.73,1.59-2.08,1.59a3.33,3.33,0,0,1-1.56-.35Z"/><path class="cls-4" d="M154.15,93a1.39,1.39,0,0,0,1.57,1.33,4,4,0,0,0,1.42-.23l.19.89a4.78,4.78,0,0,1-1.78.31,2.42,2.42,0,0,1-2.64-2.58,2.53,2.53,0,0,1,2.5-2.75,2.22,2.22,0,0,1,2.2,2.49,3.21,3.21,0,0,1,0,.54Zm2.25-.9a1.1,1.1,0,0,0-1.06-1.25,1.27,1.27,0,0,0-1.19,1.25Z"/><path class="cls-4" d="M158.65,91.77c0-.69,0-1.18,0-1.64h1.13l0,1h0a1.53,1.53,0,0,1,1.4-1.09,1.39,1.39,0,0,1,.3,0v1.22a1.84,1.84,0,0,0-.38,0,1.13,1.13,0,0,0-1.15,1,2.46,2.46,0,0,0,0,.4v2.65h-1.3Z"/><path class="cls-4" d="M163.21,90.13l.83,2.59c.15.45.25.86.35,1.28h0c.09-.42.21-.82.35-1.28l.8-2.59h1.37L165,95.24h-1.28l-1.89-5.11Z"/><path class="cls-4" d="M169.1,88.7a.73.73,0,0,1-1.45,0,.69.69,0,0,1,.73-.7A.68.68,0,0,1,169.1,88.7Zm-1.37,6.54V90.13H169v5.11Z"/><path class="cls-4" d="M174.17,95.08a3.67,3.67,0,0,1-1.45.26,2.45,2.45,0,0,1-2.63-2.6A2.64,2.64,0,0,1,172.93,90a3.3,3.3,0,0,1,1.25.24l-.23,1a2.17,2.17,0,0,0-1-.2,1.66,1.66,0,0,0,0,3.31,2.56,2.56,0,0,0,1-.2Z"/><path class="cls-4" d="M176,93a1.39,1.39,0,0,0,1.58,1.33,4,4,0,0,0,1.41-.23l.19.89a4.78,4.78,0,0,1-1.78.31,2.42,2.42,0,0,1-2.64-2.58A2.53,2.53,0,0,1,177.3,90a2.23,2.23,0,0,1,2.21,2.49,2.28,2.28,0,0,1,0,.54Zm2.25-.9a1.1,1.1,0,0,0-1.06-1.25A1.27,1.27,0,0,0,176,92.14Z"/><path class="cls-4" d="M182.72,91.83c0-.67,0-1.22,0-1.7h1.13l.07.78h0a2,2,0,0,1,1.75-.9,2.32,2.32,0,0,1,2.15,2.6,2.43,2.43,0,0,1-2.33,2.74,1.68,1.68,0,0,1-1.44-.68h0v2.65h-1.29ZM184,93.1a1.34,1.34,0,0,0,0,.35,1.18,1.18,0,0,0,1.14.91c.82,0,1.3-.69,1.3-1.69S186.05,91,185.22,91a1.21,1.21,0,0,0-1.16,1,1.32,1.32,0,0,0-.05.33Z"/><path class="cls-4" d="M188.86,87.79h1.3v7.45h-1.3Z"/><path class="cls-4" d="M194.44,95.24l-.09-.57h0a1.89,1.89,0,0,1-1.51.68,1.52,1.52,0,0,1-1.61-1.52c0-1.29,1.15-1.94,3-1.93v-.08c0-.34-.14-.9-1-.9a2.75,2.75,0,0,0-1.38.38l-.25-.84a3.7,3.7,0,0,1,1.85-.45,1.91,1.91,0,0,1,2.11,2.15V94a8.69,8.69,0,0,0,.07,1.23Zm-.17-2.5c-.91,0-1.79.18-1.79,1a.68.68,0,0,0,.74.73,1.06,1.06,0,0,0,1-.7,1,1,0,0,0,0-.29Z"/><path class="cls-4" d="M196.89,91.65c0-.59,0-1.08,0-1.52H198l.06.76h0a1.85,1.85,0,0,1,1.63-.88c.89,0,1.81.58,1.81,2.2v3h-1.29V92.35c0-.73-.27-1.29-1-1.29a1.09,1.09,0,0,0-1,.76,1.34,1.34,0,0,0-.05.42v3h-1.31Z"/><path class="cls-4" d="M202.9,91.65c0-.59,0-1.08,0-1.52H204l.07.76h0a1.83,1.83,0,0,1,1.62-.88c.9,0,1.82.58,1.82,2.2v3h-1.29V92.35c0-.73-.27-1.29-1-1.29a1.1,1.1,0,0,0-1,.76,1.34,1.34,0,0,0-.05.42v3h-1.3Z"/><path class="cls-4" d="M210.28,88.7a.73.73,0,0,1-1.45,0,.69.69,0,0,1,.73-.7A.68.68,0,0,1,210.28,88.7Zm-1.37,6.54V90.13h1.3v5.11Z"/><path class="cls-4" d="M211.59,91.65c0-.59,0-1.08,0-1.52h1.14l.06.76h0a1.85,1.85,0,0,1,1.63-.88c.89,0,1.81.58,1.81,2.2v3h-1.29V92.35c0-.73-.27-1.29-1-1.29a1.09,1.09,0,0,0-1,.76,1.34,1.34,0,0,0,0,.42v3h-1.31Z"/><path class="cls-4" d="M222.27,90.13c0,.34,0,.76,0,1.47v2.89a2.94,2.94,0,0,1-.76,2.32,2.89,2.89,0,0,1-2,.62,3.52,3.52,0,0,1-1.78-.41l.28-1a3.08,3.08,0,0,0,1.49.39A1.36,1.36,0,0,0,221,94.89v-.44h0a1.74,1.74,0,0,1-1.49.76,2.27,2.27,0,0,1-2.17-2.5A2.45,2.45,0,0,1,219.6,90a1.63,1.63,0,0,1,1.48.8h0l.05-.68Zm-1.33,2a1.27,1.27,0,0,0,0-.34,1.07,1.07,0,0,0-1.05-.83c-.73,0-1.26.63-1.26,1.67,0,.87.44,1.57,1.25,1.57a1.1,1.1,0,0,0,1-.78,2.24,2.24,0,0,0,.05-.46Z"/><path class="cls-5" d="M145.29,170h-3.46v-1.85H151V170h-3.49v10.28h-2.22Z"/><path class="cls-5" d="M155.19,180.31l-3.92-12.13h2.41l1.65,5.51c.47,1.53.87,2.95,1.19,4.43h0c.32-1.44.76-2.92,1.24-4.4l1.77-5.54h2.35l-4.19,12.13Z"/><path class="cls-5" d="M168.44,176.55c.05,1.58,1.29,2.27,2.7,2.27a6.42,6.42,0,0,0,2.43-.4l.32,1.53a8.15,8.15,0,0,1-3.06.54,4.15,4.15,0,0,1-4.52-4.43c0-2.43,1.48-4.71,4.29-4.71s3.78,2.34,3.78,4.27a6.18,6.18,0,0,1-.07.93Zm3.85-1.55a1.88,1.88,0,0,0-1.82-2.14,2.16,2.16,0,0,0-2,2.14Z"/><path class="cls-5" d="M177.56,171.54,179,176c.25.78.43,1.48.59,2.2h0c.17-.72.36-1.4.6-2.2l1.39-4.45H184l-3.35,8.77h-2.18l-3.26-8.77Z"/><path class="cls-5" d="M186.87,176.55c0,1.58,1.3,2.27,2.7,2.27a6.42,6.42,0,0,0,2.43-.4l.33,1.53a8.21,8.21,0,0,1-3.07.54,4.14,4.14,0,0,1-4.51-4.43c0-2.43,1.47-4.71,4.28-4.71s3.78,2.34,3.78,4.27a5.08,5.08,0,0,1-.07.93Zm3.85-1.55a1.88,1.88,0,0,0-1.82-2.14,2.17,2.17,0,0,0-2,2.14Z"/><path class="cls-5" d="M194.59,174.37c0-1.19,0-2-.07-2.83h1.93l.07,1.68h.07a2.61,2.61,0,0,1,2.39-1.87,2.81,2.81,0,0,1,.53.05v2.09a2.87,2.87,0,0,0-.65-.07,2,2,0,0,0-2,1.67,3.49,3.49,0,0,0-.07.69v4.53h-2.22Z"/><path class="cls-5" d="M202.38,171.54l1.59,4.7c.18.55.36,1.21.49,1.72h0c.14-.51.31-1.16.47-1.73l1.37-4.69h2.37l-2.19,6c-1.21,3.28-2,4.74-3.06,5.64a4.49,4.49,0,0,1-2.33,1.13l-.5-1.87a3.86,3.86,0,0,0,1.3-.61,3.8,3.8,0,0,0,1.2-1.39.92.92,0,0,0,.15-.39,1,1,0,0,0-.13-.44l-3.2-8.05Z"/><path class="cls-5" d="M153.39,189.54l.92,4c.2.94.4,1.9.56,2.85h0c.18-1,.47-1.93.72-2.83l1.14-4h1.8l1.1,3.89c.27,1,.5,2,.7,2.94h0c.15-1,.35-1.91.58-2.94l1-3.89h2.18l-2.75,8.77h-2.06l-1-3.56a27.65,27.65,0,0,1-.67-2.81h0a23.78,23.78,0,0,1-.67,2.81l-1.11,3.56h-2.08l-2.59-8.77Z"/><path class="cls-5" d="M165.54,185.53h2.23v5.22h0a3.07,3.07,0,0,1,1.1-1,3,3,0,0,1,1.51-.39c1.49,0,3.06,1,3.06,3.8v5.16h-2.21V193.4c0-1.28-.47-2.23-1.7-2.23a1.81,1.81,0,0,0-1.71,1.24,1.88,1.88,0,0,0-.09.66v5.24h-2.23Z"/><path class="cls-5" d="M177.4,194.55c.06,1.58,1.3,2.27,2.7,2.27a6.38,6.38,0,0,0,2.43-.4l.33,1.53a8.19,8.19,0,0,1-3.06.54,4.14,4.14,0,0,1-4.52-4.43c0-2.43,1.47-4.71,4.28-4.71s3.78,2.34,3.78,4.27a5.08,5.08,0,0,1-.07.93Zm3.86-1.55a1.89,1.89,0,0,0-1.82-2.14,2.17,2.17,0,0,0-2,2.14Z"/><path class="cls-5" d="M185.12,192.37c0-1.19,0-2-.07-2.83H187l.07,1.68h.07a2.62,2.62,0,0,1,2.4-1.87,2.78,2.78,0,0,1,.52.05v2.09a2.87,2.87,0,0,0-.65-.07,2,2,0,0,0-2,1.67,3.49,3.49,0,0,0-.07.69v4.53h-2.22Z"/><path class="cls-5" d="M193.1,194.55c.05,1.58,1.29,2.27,2.7,2.27a6.42,6.42,0,0,0,2.43-.4l.32,1.53a8.15,8.15,0,0,1-3.06.54,4.15,4.15,0,0,1-4.52-4.43c0-2.43,1.48-4.71,4.29-4.71s3.78,2.34,3.78,4.27a6.18,6.18,0,0,1-.07.93ZM197,193a1.88,1.88,0,0,0-1.82-2.14,2.16,2.16,0,0,0-2,2.14Z"/><path class="cls-4" d="M288.36,127c.35.13.72.24,1.06.4a4.05,4.05,0,0,1,2.44,3.87c0,1,0,2,0,3.09h.91c2.91,0,5.82.06,8.72,0a4,4,0,0,1,4,4.19c-.15,1.53,0,3.09,0,4.64v19a3.86,3.86,0,0,1-4,4.12c-3.75,0-7.49,0-11.23,0a3.73,3.73,0,0,1-3.71-2.41.87.87,0,0,0-1-.62q-9.33,0-18.66,0a4.14,4.14,0,0,1-4.26-3.21,4.8,4.8,0,0,1-.1-1.13v-18.4a11.78,11.78,0,0,1-2-1.45,3.59,3.59,0,0,1,1.4-5.73c.45-.19.65-.38.6-.87a9.92,9.92,0,0,1,0-1.22,4.09,4.09,0,0,1,3.14-4.15,2.22,2.22,0,0,0,.32-.14Zm-2.29,27.39a3,3,0,0,0,.06-.36c0-5.2.06-10.39,0-15.59a4.28,4.28,0,0,1,3-4c.32-.07.64-.11.95-.16v-1H264.64l.56.37a3.63,3.63,0,0,1-.37,6.33.91.91,0,0,0-.58,1c0,4.22,0,8.44,0,12.66v.74Zm1.94-15.2v18.87h15.57V139.19Zm-11.7,17.13H264.26v.7c0,.77,0,1.53,0,2.29a2.27,2.27,0,0,0,2.26,2.15h19.29a1.1,1.1,0,0,0,.26-.06v-5.1H278c1.5,1.06,2,2.07,1.54,3.31a2.56,2.56,0,0,1-4.88-.1C274.34,158.29,274.84,157.24,276.31,156.32Zm-12-24.94H290a2.31,2.31,0,0,0-2.3-2.52q-10.58,0-21.16,0A2.25,2.25,0,0,0,264.31,131.38ZM297,164.45c1.71,0,3.37.08,5,0a1.73,1.73,0,0,0,1.59-1.61,27,27,0,0,0,0-2.85h-6.26C298.82,161.71,298.5,163.18,297,164.45Zm-9-4.51c0,.93-.05,1.79,0,2.64a1.93,1.93,0,0,0,1.69,1.86c1.61.08,3.21,0,5,0a2.86,2.86,0,0,1-1.44-2.16,3,3,0,0,1,1-2.36Zm.27-22.69h15.12a2,2,0,0,0-1.88-1.09H290.13A2.08,2.08,0,0,0,288.24,137.25Zm-25,1.33a1.84,1.84,0,0,0,0-3.67,1.84,1.84,0,1,0,0,3.67Zm15,20.22c-.5-.34-.79-.71-1.05-.68a1,1,0,0,0-.67.69,1,1,0,0,0,.68.66C277.42,159.5,277.71,159.14,278.2,158.8Zm18.6,3.31c-.49-.35-.78-.73-1-.7a1,1,0,0,0-.68.67c0,.24.4.65.66.68S296.3,162.44,296.8,162.11Z"/><path class="cls-4" d="M308,170.19a4,4,0,0,1-1.93,2.35c-5.3,3.5-10.59,7-15.88,10.56l-.66.43-1-1.5c.28-.19.5-.36.74-.51l16.17-10.78a1.65,1.65,0,0,0,.62-.64c.07-.22,0-.67-.18-.75a1.38,1.38,0,0,0-1-.15c-2.3.84-4.58,1.74-6.87,2.62-2.46,1-4.92,1.91-7.39,2.84a1.53,1.53,0,0,1-.94.08c-4.66-1.44-9.3-2.92-14-4.39a.4.4,0,0,1-.28-.23h11.41a4.06,4.06,0,0,0,.85-.06,1,1,0,0,0,.83-1,1,1,0,0,0-.89-1.05,3.58,3.58,0,0,0-.57,0c-4.79,0-9.58,0-14.36,0a2.39,2.39,0,0,0-1.15.29q-4.78,2.68-9.55,5.45a1.07,1.07,0,0,0-.51.72c0,3.05,0,6.1,0,9.15a3,3,0,0,0,.07.35l3.25-1.7c1.57-.81,3.12-1.64,4.72-2.38a3.63,3.63,0,0,1,1.76-.27c1.62.14,3.22.39,4.83.58a4.83,4.83,0,0,0,.67,0l.42-2.95,6.64,5.11L276,185.56l.43-3.48c-1.49-.2-3-.33-4.45-.6a4.12,4.12,0,0,0-2.85.53c-2.93,1.58-5.9,3.1-8.85,4.64l-.72.35v-.8c0-4.2,0-8.39,0-12.58a1,1,0,0,1,.57-1c3.63-2.05,7.24-4.12,10.87-6.17a2.33,2.33,0,0,1,1.07-.27h15.08a2.89,2.89,0,1,1,.19,5.77.28.28,0,0,0-.21.14c.9.28,1.79.58,2.7.82.2.06.46-.08.68-.16,4.34-1.68,8.72-3.3,13-5.07,1.85-.75,3.6-.53,4.39,1.82Z"/><path class="cls-4" d="M145.25,274.89c1,.38,2.06.73,3.08,1.12l5.74,2.24-2.8,2.26,3.33,4.36a3.68,3.68,0,0,1,2.91-2.05,3.52,3.52,0,0,1,3.23,1.47,3.59,3.59,0,0,1,6.3,2.58,3.64,3.64,0,0,1,3.13,4.89,3.57,3.57,0,0,1,2.83,2.33,3.79,3.79,0,0,1-.74,3.66c1.6.36,3.11.75,4.63,1a5.18,5.18,0,0,0,2,0,8.08,8.08,0,0,0,1.7-.82l-6.19-3.74,1-1.76,1.63,1,4.63,2.79a2.49,2.49,0,0,0,3.47-1.72.94.94,0,0,0-.55-1c-2-1.2-4.05-2.43-6.07-3.65l-.69-.42,1.05-1.74,6.3,3.78c.66.39,1.32.79,2,1.13a2.24,2.24,0,0,0,3-1.35,1.12,1.12,0,0,0-.57-1.4c-2.92-1.72-5.82-3.48-8.77-5.26l1-1.75.86.5c2.7,1.63,5.44,3.2,8.1,4.9,1.65,1.06,3.8.19,4.19-2.16.07-.43-.17-.62-.5-.81L176.7,274.55c-.66-.39-1.35-.76-2-1.2a1,1,0,0,0-1.21,0c-2.45,1.27-4.91,2.51-7.38,3.75a3.12,3.12,0,0,1-3.92-4.77c.51-.65,1-1.29,1.54-1.92s1.05-1.25,1.65-1.94a3.94,3.94,0,0,0-.58-.08c-.66,0-1.31,0-2,0-1.56.07-3.1.07-4.27-1.24a4.24,4.24,0,0,1-4,1,4.09,4.09,0,0,1,.33-7.95,4.75,4.75,0,0,0,.46-.14h.7l.45.14a3.9,3.9,0,0,1,3.14,3,10.28,10.28,0,0,1,0,2.29,3.14,3.14,0,0,0,2.69.85c1.64,0,3.28,0,4.91,0a3.08,3.08,0,0,0,1.31-.31c1.22-.65,2.42-1.33,3.59-2.06,2.64-1.65,5.4-1.59,8.24-.67,2.13.7,4.24,1.44,6.37,2.16a1.07,1.07,0,0,0,.6.08c1.18-.48,2.34-1,3.53-1.52l-1.66-3.36,9.41.57L193.51,269l-1.64-3.19c-1.34.58-2.63,1.16-4,1.68a1.67,1.67,0,0,1-1.1.08c-2.39-.77-4.75-1.6-7.13-2.38a7.12,7.12,0,0,0-6.57.57c-.76.51-1.59.89-2.37,1.36-1.39.85-2.92,1.5-4,2.82s-2,2.39-2.94,3.57c-.43.51-.67,1-.17,1.63s1,.46,1.63.16c2.81-1.43,5.62-2.86,8.44-4.26a1.12,1.12,0,0,1,.93,0c2.25,1.29,4.47,2.62,6.7,3.94q6.79,4,13.61,8.09a1,1,0,0,0,.74.12,13.58,13.58,0,0,0,1.51-.8,4.15,4.15,0,0,1,2.85-5.07,4.05,4.05,0,0,1,5.06,3c0,.06.08.1.12.16v1.4c-.06.17-.13.35-.18.52a4.06,4.06,0,0,1-3.52,2.9,4.14,4.14,0,0,1-3.32-1.15c-1.1.5-1.1.5-1.11,1.67a4.87,4.87,0,0,1-3.78,4.71,9.43,9.43,0,0,1-1,.14,3.86,3.86,0,0,1-1.63,3.23,5.49,5.49,0,0,1-3.53.79,4.57,4.57,0,0,1-4.19,3.73,1.39,1.39,0,0,0-.8.42,5.27,5.27,0,0,1-3.43,2l-.8.15h-.56c-1.89-.43-3.78-.84-5.66-1.29a1.17,1.17,0,0,0-1.14.24,3.25,3.25,0,0,1-3.56.42,11,11,0,0,1-1.57-1.12c-1.87,1.69-3.64,1.5-5.72-.65a3.55,3.55,0,0,1-5.12-4.38c-2.91-.84-3.82-3.21-2.26-5.75.28-.45.59-.9.83-1.38a.76.76,0,0,0,0-.66c-1.15-1.56-2.34-3.09-3.55-4.67l-2.94,2.33c-.27-1.77-.51-3.4-.77-5-.22-1.36-.47-2.7-.7-4Zm13,22.21a3.58,3.58,0,0,0,1-.8c1.85-2.94,3.65-5.92,5.46-8.9a1.45,1.45,0,1,0-2.48-1.49c-.58.93-1.13,1.88-1.7,2.81-1.25,2-2.52,4-3.75,6.09C156.08,295.87,156.73,297.09,158.21,297.1Zm10.12-6.5a1.54,1.54,0,0,0-1.06-1.58,1.43,1.43,0,0,0-1.66.73q-2,3.12-3.85,6.27a1.46,1.46,0,1,0,2.49,1.48c1.27-2,2.52-4.09,3.77-6.15A4.29,4.29,0,0,0,168.33,290.6Zm-9-4.16a1.49,1.49,0,0,0-1-1.54,1.42,1.42,0,0,0-1.69.66q-1.36,2.18-2.68,4.37a1.43,1.43,0,0,0,.48,2.07,1.45,1.45,0,0,0,2-.62c.86-1.39,1.72-2.78,2.56-4.19A4.29,4.29,0,0,0,159.31,286.44Zm10.14,7.35a3,3,0,0,0-.88.61,19,19,0,0,0-1.36,2.19,1.44,1.44,0,0,0,2.42,1.53,18,18,0,0,0,1.39-2.26A1.49,1.49,0,0,0,169.45,293.79Zm-13.72-31.68a2,2,0,0,0-2.09,2,2.06,2.06,0,1,0,4.12.06A2,2,0,0,0,155.73,262.11Zm45.39,21.22a2.06,2.06,0,1,0,0-4.12,2.09,2.09,0,0,0-2,2.07A2.05,2.05,0,0,0,201.12,283.33Z"/><path class="cls-4" d="M62,174.32v4.75H60.28v-4.76a20,20,0,0,1-13.17-5.67,19.33,19.33,0,0,1-5.93-13.06h-5v-1.74h5a19.26,19.26,0,0,1,5.89-13.05,20,20,0,0,1,13.17-5.71v-4.8H62v4.8a20,20,0,0,1,13.21,5.71,19.27,19.27,0,0,1,5.89,13h5.12v1.75H83.64c-.68,0-1.37,0-2.06,0-.37,0-.5.11-.53.5a18.54,18.54,0,0,1-3.86,10.3A19.7,19.7,0,0,1,63,174.22Zm-1.81-37.47c-10.42.53-17.17,9.26-17.17,16.94h2.41v-3.13l7.12,4-7.17,4.07V155.6H43a17.59,17.59,0,0,0,5.86,12.23,18,18,0,0,0,11.39,4.71V170H57l4.12-7,4.13,7H62.06v2.52a18.15,18.15,0,0,0,12.35-5.63,17.36,17.36,0,0,0,4.9-11.32H76.83v3.13l-7.12-4,7.16-4.05v3.16h2.38c-.07-8.49-7.71-16.7-17.18-16.91v2.51h3.19l-4.11,7-4.14-7h3.21Z"/><path class="cls-4" d="M61.11,158.22a3.53,3.53,0,1,1,3.64-3.49A3.53,3.53,0,0,1,61.11,158.22Zm.06-1.71A1.85,1.85,0,0,0,63,154.68a1.9,1.9,0,0,0-1.88-1.82,1.85,1.85,0,0,0-1.83,1.85A1.83,1.83,0,0,0,61.17,156.51Z"/><path class="cls-4" d="M181.15,30v1.78h-5v5.77c10.67,1.28,17.15,7.12,19.65,17.63h3.32l-4.11,7.12L191,55.2h2.92a14.44,14.44,0,0,0-1.22-4.26c-3.25-7-8.68-10.88-16.38-11.46a18.22,18.22,0,0,0-11.36,3,.75.75,0,0,0-.42.82,3.51,3.51,0,0,1-4.12,4,.64.64,0,0,0-.73.34,18.91,18.91,0,0,0-3.28,10.57c0,1.9,0,3.81,0,5.76h6.77V50.35H187.4V64.06h12.85v1.83H187.42v.81c0,3.58,0,7.17,0,10.75a6.15,6.15,0,0,1-.06.73h-24.2V65.89h-12.9V64.18l3.2-.1c.38,0,.75,0,1.16,0v-6a19.88,19.88,0,0,1,.94-6,21,21,0,0,1,2.83-5.73c-1.28-1.8-1.29-3.59,0-5s3-1.48,5.22-.15a20.86,20.86,0,0,1,10.74-3.63V31.79h-4.86l-.1-1.79ZM164.93,76.35h20.66V52.1H164.93Zm-2.15-32.5A1.8,1.8,0,0,0,161,42.06a1.82,1.82,0,0,0-1.78,1.84A1.87,1.87,0,0,0,161,45.68,1.84,1.84,0,0,0,162.78,43.85Z"/><path class="cls-4" d="M181.32,61v1.65H169.4V61Z"/><path class="cls-4" d="M181.33,56.4v1.66h-12V56.4Z"/><path class="cls-4" d="M169.37,67.22V65.56h11.94v1.66Z"/><path class="cls-4" d="M181.32,70.16v1.67H169.39V70.16Z"/></svg>