<svg id="Layer_1" data-name="Layer 1" xmlns="http://www.w3.org/2000/svg" width="100" height="100" viewBox="0 0 100 100"><title>personalized-view</title><path d="M0,70.41c.14-.52.27-1,.41-1.54a6.65,6.65,0,0,1,4.11-4.64,1.48,1.48,0,0,0,1.08-1.7c0-7.92,0-15.84,0-23.76A13.84,13.84,0,0,1,20.59,25c5.17.34,8.86,3.09,12.28,6.51q4.71,4.73,9.4,9.46c.22.21.46.41.74.66l9.06-11.53c2.5-3.19,5-6.36,7.5-9.58a1.77,1.77,0,0,1,1.84-.79c10.07,1.09,20.15,2.12,30.23,3.16,2.79.29,5.57.6,8.36.9V24a6.69,6.69,0,0,0-.69.72c-3.52,5-7,10-10.51,15.06a3.76,3.76,0,0,0-.53,2q0,28.15,0,56.31v1.57h-3.6V46.19l-.27-.09Q73.12,62.23,61.8,78.39L45.89,72.64v27H42.27V98.22c0-8.43,0-16.86,0-25.29,0-1.18-.26-1.77-1.48-2.17-3.48-1.13-6.9-2.45-10.34-3.69l-1-.31V79.94h6.38L27.6,94.28,19.34,80h6.45V41.66L45.51,60.85,51,55.07a.74.74,0,0,0-.16-.25Q40,43.9,29.17,33a13.74,13.74,0,0,0-7-4.17c-6.31-1.25-11.85,2.34-12.9,8.44a7.46,7.46,0,0,0-.1,1.16q0,12.42,0,24.82c0,.16,0,.31,0,.51.42.19.85.36,1.26.56A7.19,7.19,0,0,1,7,78,7.15,7.15,0,0,1,.2,71.76a4,4,0,0,0-.2-.65ZM31.76,63.7c9.45,3.42,18.72,6.77,28,10.15.82.29,1-.26,1.35-.71L92.73,27.87c.23-.33.43-.69.68-1.08-.22-.07-.32-.12-.43-.14Q77.91,25.09,62.84,23.5a1.5,1.5,0,0,0-1.55.69C57.48,29.08,53.63,34,49.8,38.82l-4.46,5.69L56.18,54.84l-10.63,11-8.82-8.53ZM11,70.89a3.74,3.74,0,0,0-3.57-3.73,3.74,3.74,0,0,0-3.72,3.59,3.67,3.67,0,0,0,3.57,3.71A3.7,3.7,0,0,0,11,70.89Zm18.81-20.5-.26.2V60.7l4.41-5.63Z"/><path d="M30.53.34A11.85,11.85,0,1,1,18.7,12.12,11.8,11.8,0,0,1,30.53.34Zm0,3.56a8.35,8.35,0,0,0-8.28,8.25,8.31,8.31,0,0,0,16.61.07A8.36,8.36,0,0,0,30.53,3.9Z"/></svg>