<?xml version="1.0" encoding="utf-8"?>
<!-- Generator: Adobe Illustrator 22.1.0, SVG Export Plug-In . SVG Version: 6.00 Build 0)  -->
<svg version="1.1" xmlns="http://www.w3.org/2000/svg" xmlns:xlink="http://www.w3.org/1999/xlink" x="0px" y="0px" width="350px"
	 height="350px" viewBox="0 0 350 350" style="enable-background:new 0 0 350 350;" xml:space="preserve">
<style type="text/css">
	.st0{fill:#FCDDD6;}
	.st1{fill:#FBC2BA;}
	.st2{fill:#F16C51;}
	.st3{fill:#ECE1CE;}
	.st4{fill:#EAC8A5;}
	.st5{fill:#DF9926;}
	.st6{fill:#D8E7DA;}
	.st7{fill:#A8D7CD;}
	.st8{fill:#00B28F;}
	.st9{fill:#92D1FF;}
	.st10{fill:#0F9FFA;}
	.st11{fill:none;}
	.st12{fill:none;stroke:#FFFFFF;stroke-width:1.5;stroke-miterlimit:10;}
	.st13{display:none;}
	.st14{display:inline;}
	.st15{fill:none;stroke:#061838;stroke-width:0.5887;stroke-miterlimit:10;}
	.st16{fill:none;stroke:#000000;stroke-width:0.1397;stroke-miterlimit:10;}
	.st17{fill:none;stroke:#020204;stroke-width:0.216;stroke-miterlimit:10;}
	.st18{fill:none;stroke:#FFFFFF;stroke-width:1.5;stroke-linejoin:bevel;stroke-miterlimit:10;}
	.st19{fill:#FFFFFF;}
	.st20{fill:none;stroke:#FFFFFF;stroke-width:1.5;stroke-linecap:square;stroke-miterlimit:10;}
	.st21{fill:none;stroke:#FFFFFF;stroke-width:1.4995;stroke-miterlimit:22.9256;}
	.st22{fill:none;stroke:#FFFFFF;stroke-width:1.4992;stroke-miterlimit:22.9256;}
	.st23{fill:none;stroke:#FFFFFF;stroke-width:1.4992;stroke-miterlimit:10;}
	.st24{fill:none;stroke:#FFFFFF;stroke-width:1.4995;stroke-linecap:square;stroke-miterlimit:10;}
	.st25{fill:none;stroke:#FFFFFF;stroke-width:1.4992;}
	.st26{fill:none;stroke:#FFFFFF;stroke-width:1.5001;stroke-linecap:square;stroke-miterlimit:10;}
	.st27{fill:none;stroke:#FFFFFF;stroke-width:1.5;stroke-linejoin:bevel;}
	.st28{fill:none;stroke:#FFFFFF;stroke-width:1.5;stroke-miterlimit:10;stroke-dasharray:5,5;}
</style>
<g id="Layer_3">
	<path class="st4" d="M220.9,134.7l-5.6-5.6l80.6-80.6c-67.6-64.7-174.3-64.7-241.9,0l82,82l-5.6,5.6l-82-82
		c-64.7,67.6-64.7,174.3,0,241.9l80.6-80.6l5.6,5.6l-80.6,80.6c67.6,64.7,174.3,64.7,241.9,0l-79.2-79.2l5.6-5.6l79.2,79.2
		c64.7-67.6,64.7-174.3,0-241.9L220.9,134.7z"/>
	<circle id="XMLID_3_" class="st3" cx="175" cy="175" r="167.9"/>
	<g>
		<path class="st5" d="M127.7,133.3L53.5,59.1c-61.9,64.8-61.9,167,0,231.8l74.2-74.2C106.7,192.9,106.7,157.1,127.7,133.3z"/>
		<path class="st5" d="M216.7,127.7l74.2-74.2c-64.8-61.9-167-61.9-231.8,0l74.2,74.2C157.1,106.7,192.9,106.7,216.7,127.7z"/>
		<path class="st5" d="M133.3,222.3l-74.2,74.2c64.8,61.9,167,61.9,231.8,0l-74.2-74.2C192.9,243.3,157.1,243.3,133.3,222.3z"/>
		<path class="st5" d="M222.3,216.7l74.2,74.2c61.9-64.8,61.9-167,0-231.8l-74.2,74.2C243.3,157.1,243.3,192.9,222.3,216.7z"/>
	</g>
</g>
<g id="Layer_1" class="st13">
	<g class="st14">
		<rect x="36.9" y="125.3" class="st16" width="10" height="10"/>
		<rect x="46.9" y="125.3" class="st16" width="10" height="10"/>
		<rect x="56.9" y="125.3" class="st16" width="10" height="10"/>
		<rect x="66.9" y="125.3" class="st16" width="10" height="10"/>
		<rect x="76.9" y="125.3" class="st16" width="10" height="10"/>
		<rect x="86.9" y="125.3" class="st16" width="10" height="10"/>
		<rect x="36.9" y="135.3" class="st16" width="10" height="10"/>
		<rect x="46.9" y="135.3" class="st16" width="10" height="10"/>
		<rect x="56.9" y="135.3" class="st16" width="10" height="10"/>
		<rect x="66.9" y="135.3" class="st16" width="10" height="10"/>
		<rect x="76.9" y="135.3" class="st16" width="10" height="10"/>
		<rect x="86.9" y="135.3" class="st16" width="10" height="10"/>
		<rect x="36.9" y="145.3" class="st16" width="10" height="10"/>
		<rect x="46.9" y="145.3" class="st16" width="10" height="10"/>
		<rect x="56.9" y="145.3" class="st16" width="10" height="10"/>
		<rect x="66.9" y="145.3" class="st16" width="10" height="10"/>
		<rect x="76.9" y="145.3" class="st16" width="10" height="10"/>
		<rect x="86.9" y="145.3" class="st16" width="10" height="10"/>
		<rect x="36.9" y="155.3" class="st16" width="10" height="10"/>
		<rect x="46.9" y="155.3" class="st16" width="10" height="10"/>
		<rect x="56.9" y="155.3" class="st16" width="10" height="10"/>
		<rect x="66.9" y="155.3" class="st16" width="10" height="10"/>
		<rect x="76.9" y="155.3" class="st16" width="10" height="10"/>
		<rect x="86.9" y="155.3" class="st16" width="10" height="10"/>
		<rect x="36.9" y="165.3" class="st16" width="10" height="10"/>
		<rect x="46.9" y="165.3" class="st16" width="10" height="10"/>
		<rect x="56.9" y="165.3" class="st16" width="10" height="10"/>
		<rect x="66.9" y="165.3" class="st16" width="10" height="10"/>
		<rect x="76.9" y="165.3" class="st16" width="10" height="10"/>
		<rect x="86.9" y="165.3" class="st16" width="10" height="10"/>
		<rect x="36.9" y="175.3" class="st16" width="10" height="10"/>
		<rect x="46.9" y="175.3" class="st16" width="10" height="10"/>
		<rect x="56.9" y="175.3" class="st16" width="10" height="10"/>
		<rect x="66.9" y="175.3" class="st16" width="10" height="10"/>
		<rect x="76.9" y="175.3" class="st16" width="10" height="10"/>
		<rect x="86.9" y="175.3" class="st16" width="10" height="10"/>
		<rect x="36.9" y="185.3" class="st16" width="10" height="10"/>
		<rect x="46.9" y="185.3" class="st16" width="10" height="10"/>
		<rect x="56.9" y="185.3" class="st16" width="10" height="10"/>
		<rect x="66.9" y="185.3" class="st16" width="10" height="10"/>
		<rect x="76.9" y="185.3" class="st16" width="10" height="10"/>
		<rect x="86.9" y="185.3" class="st16" width="10" height="10"/>
	</g>
	<g class="st14">
		<rect x="145" y="24.4" class="st16" width="10" height="10"/>
		<rect x="155" y="24.4" class="st16" width="10" height="10"/>
		<rect x="165" y="24.4" class="st16" width="10" height="10"/>
		<rect x="175" y="24.4" class="st16" width="10" height="10"/>
		<rect x="185" y="24.4" class="st16" width="10" height="10"/>
		<rect x="195" y="24.4" class="st16" width="10" height="10"/>
		<rect x="145" y="34.4" class="st16" width="10" height="10"/>
		<rect x="155" y="34.4" class="st16" width="10" height="10"/>
		<rect x="165" y="34.4" class="st16" width="10" height="10"/>
		<rect x="175" y="34.4" class="st16" width="10" height="10"/>
		<rect x="185" y="34.4" class="st16" width="10" height="10"/>
		<rect x="195" y="34.4" class="st16" width="10" height="10"/>
		<rect x="145" y="44.4" class="st16" width="10" height="10"/>
		<rect x="155" y="44.4" class="st16" width="10" height="10"/>
		<rect x="165" y="44.4" class="st16" width="10" height="10"/>
		<rect x="175" y="44.4" class="st16" width="10" height="10"/>
		<rect x="185" y="44.4" class="st16" width="10" height="10"/>
		<rect x="195" y="44.4" class="st16" width="10" height="10"/>
		<rect x="145" y="54.4" class="st16" width="10" height="10"/>
		<rect x="155" y="54.4" class="st16" width="10" height="10"/>
		<rect x="165" y="54.4" class="st16" width="10" height="10"/>
		<rect x="175" y="54.4" class="st16" width="10" height="10"/>
		<rect x="185" y="54.4" class="st16" width="10" height="10"/>
		<rect x="195" y="54.4" class="st16" width="10" height="10"/>
		<rect x="145" y="64.4" class="st16" width="10" height="10"/>
		<rect x="155" y="64.4" class="st16" width="10" height="10"/>
		<rect x="165" y="64.4" class="st16" width="10" height="10"/>
		<rect x="175" y="64.4" class="st16" width="10" height="10"/>
		<rect x="185" y="64.4" class="st16" width="10" height="10"/>
		<rect x="195" y="64.4" class="st16" width="10" height="10"/>
		<rect x="145" y="74.4" class="st16" width="10" height="10"/>
		<rect x="155" y="74.4" class="st16" width="10" height="10"/>
		<rect x="165" y="74.4" class="st16" width="10" height="10"/>
		<rect x="175" y="74.4" class="st16" width="10" height="10"/>
		<rect x="185" y="74.4" class="st16" width="10" height="10"/>
		<rect x="195" y="74.4" class="st16" width="10" height="10"/>
		<rect x="145" y="84.4" class="st16" width="10" height="10"/>
		<rect x="155" y="84.4" class="st16" width="10" height="10"/>
		<rect x="165" y="84.4" class="st16" width="10" height="10"/>
		<rect x="175" y="84.4" class="st16" width="10" height="10"/>
		<rect x="185" y="84.4" class="st16" width="10" height="10"/>
		<rect x="195" y="84.4" class="st16" width="10" height="10"/>
	</g>
	<g class="st14">
		<rect x="257.4" y="129.2" class="st16" width="10" height="10"/>
		<rect x="267.4" y="129.2" class="st16" width="10" height="10"/>
		<rect x="277.4" y="129.2" class="st16" width="10" height="10"/>
		<rect x="287.4" y="129.2" class="st16" width="10" height="10"/>
		<rect x="297.4" y="129.2" class="st16" width="10" height="10"/>
		<rect x="307.4" y="129.2" class="st16" width="10" height="10"/>
		<rect x="257.4" y="139.2" class="st16" width="10" height="10"/>
		<rect x="267.4" y="139.2" class="st16" width="10" height="10"/>
		<rect x="277.4" y="139.2" class="st16" width="10" height="10"/>
		<rect x="287.4" y="139.2" class="st16" width="10" height="10"/>
		<rect x="297.4" y="139.2" class="st16" width="10" height="10"/>
		<rect x="307.4" y="139.2" class="st16" width="10" height="10"/>
		<rect x="257.4" y="149.2" class="st16" width="10" height="10"/>
		<rect x="267.4" y="149.2" class="st16" width="10" height="10"/>
		<rect x="277.4" y="149.2" class="st16" width="10" height="10"/>
		<rect x="287.4" y="149.2" class="st16" width="10" height="10"/>
		<rect x="297.4" y="149.2" class="st16" width="10" height="10"/>
		<rect x="307.4" y="149.2" class="st16" width="10" height="10"/>
		<rect x="257.4" y="159.2" class="st16" width="10" height="10"/>
		<rect x="267.4" y="159.2" class="st16" width="10" height="10"/>
		<rect x="277.4" y="159.2" class="st16" width="10" height="10"/>
		<rect x="287.4" y="159.2" class="st16" width="10" height="10"/>
		<rect x="297.4" y="159.2" class="st16" width="10" height="10"/>
		<rect x="307.4" y="159.2" class="st16" width="10" height="10"/>
		<rect x="257.4" y="169.2" class="st16" width="10" height="10"/>
		<rect x="267.4" y="169.2" class="st16" width="10" height="10"/>
		<rect x="277.4" y="169.2" class="st16" width="10" height="10"/>
		<rect x="287.4" y="169.2" class="st16" width="10" height="10"/>
		<rect x="297.4" y="169.2" class="st16" width="10" height="10"/>
		<rect x="307.4" y="169.2" class="st16" width="10" height="10"/>
		<rect x="257.4" y="179.2" class="st16" width="10" height="10"/>
		<rect x="267.4" y="179.2" class="st16" width="10" height="10"/>
		<rect x="277.4" y="179.2" class="st16" width="10" height="10"/>
		<rect x="287.4" y="179.2" class="st16" width="10" height="10"/>
		<rect x="297.4" y="179.2" class="st16" width="10" height="10"/>
		<rect x="307.4" y="179.2" class="st16" width="10" height="10"/>
		<rect x="257.4" y="189.2" class="st16" width="10" height="10"/>
		<rect x="267.4" y="189.2" class="st16" width="10" height="10"/>
		<rect x="277.4" y="189.2" class="st16" width="10" height="10"/>
		<rect x="287.4" y="189.2" class="st16" width="10" height="10"/>
		<rect x="297.4" y="189.2" class="st16" width="10" height="10"/>
		<rect x="307.4" y="189.2" class="st16" width="10" height="10"/>
	</g>
	<g class="st14">
		<rect x="143.9" y="238.2" class="st16" width="10" height="10"/>
		<rect x="153.9" y="238.2" class="st16" width="10" height="10"/>
		<rect x="163.9" y="238.2" class="st16" width="10" height="10"/>
		<rect x="173.9" y="238.2" class="st16" width="10" height="10"/>
		<rect x="183.9" y="238.2" class="st16" width="10" height="10"/>
		<rect x="193.9" y="238.2" class="st16" width="10" height="10"/>
		<rect x="143.9" y="248.2" class="st16" width="10" height="10"/>
		<rect x="153.9" y="248.2" class="st16" width="10" height="10"/>
		<rect x="163.9" y="248.2" class="st16" width="10" height="10"/>
		<rect x="173.9" y="248.2" class="st16" width="10" height="10"/>
		<rect x="183.9" y="248.2" class="st16" width="10" height="10"/>
		<rect x="193.9" y="248.2" class="st16" width="10" height="10"/>
		<rect x="143.9" y="258.2" class="st16" width="10" height="10"/>
		<rect x="153.9" y="258.2" class="st16" width="10" height="10"/>
		<rect x="163.9" y="258.2" class="st16" width="10" height="10"/>
		<rect x="173.9" y="258.2" class="st16" width="10" height="10"/>
		<rect x="183.9" y="258.2" class="st16" width="10" height="10"/>
		<rect x="193.9" y="258.2" class="st16" width="10" height="10"/>
		<rect x="143.9" y="268.2" class="st16" width="10" height="10"/>
		<rect x="153.9" y="268.2" class="st16" width="10" height="10"/>
		<rect x="163.9" y="268.2" class="st16" width="10" height="10"/>
		<rect x="173.9" y="268.2" class="st16" width="10" height="10"/>
		<rect x="183.9" y="268.2" class="st16" width="10" height="10"/>
		<rect x="193.9" y="268.2" class="st16" width="10" height="10"/>
		<rect x="143.9" y="278.2" class="st16" width="10" height="10"/>
		<rect x="153.9" y="278.2" class="st16" width="10" height="10"/>
		<rect x="163.9" y="278.2" class="st16" width="10" height="10"/>
		<rect x="173.9" y="278.2" class="st16" width="10" height="10"/>
		<rect x="183.9" y="278.2" class="st16" width="10" height="10"/>
		<rect x="193.9" y="278.2" class="st16" width="10" height="10"/>
		<rect x="143.9" y="288.2" class="st16" width="10" height="10"/>
		<rect x="153.9" y="288.2" class="st16" width="10" height="10"/>
		<rect x="163.9" y="288.2" class="st16" width="10" height="10"/>
		<rect x="173.9" y="288.2" class="st16" width="10" height="10"/>
		<rect x="183.9" y="288.2" class="st16" width="10" height="10"/>
		<rect x="193.9" y="288.2" class="st16" width="10" height="10"/>
		<rect x="143.9" y="298.2" class="st16" width="10" height="10"/>
		<rect x="153.9" y="298.2" class="st16" width="10" height="10"/>
		<rect x="163.9" y="298.2" class="st16" width="10" height="10"/>
		<rect x="173.9" y="298.2" class="st16" width="10" height="10"/>
		<rect x="183.9" y="298.2" class="st16" width="10" height="10"/>
		<rect x="193.9" y="298.2" class="st16" width="10" height="10"/>
	</g>
</g>
<g id="Layer_4">
	<g>
		<path class="st19" d="M128.6,84.6h4.4v1.1h-3v2.1h2.8v1.2H130v3.3h-1.4V84.6z"/>
		<path class="st19" d="M137,92.3l-0.1-0.6h0c-0.3,0.4-0.9,0.7-1.6,0.7c-1.1,0-1.7-0.8-1.7-1.7c0-1.4,1.2-2.1,3.3-2.1v-0.1
			c0-0.4-0.1-1-1.1-1c-0.5,0-1.1,0.2-1.5,0.4l-0.3-0.9c0.4-0.3,1.1-0.5,2-0.5c1.8,0,2.3,1.1,2.3,2.3v2c0,0.5,0,1,0.1,1.3H137z
			 M136.8,89.6c-1,0-1.9,0.2-1.9,1c0,0.5,0.4,0.8,0.8,0.8c0.6,0,1-0.4,1.1-0.8c0-0.1,0-0.2,0-0.3V89.6z"/>
		<path class="st19" d="M139.7,88.6c0-0.8,0-1.3,0-1.8h1.2l0,1.1h0c0.3-0.8,0.9-1.2,1.5-1.2c0.1,0,0.2,0,0.3,0V88
			c-0.1,0-0.2,0-0.4,0c-0.7,0-1.1,0.4-1.3,1.1c0,0.1,0,0.3,0,0.4v2.9h-1.4V88.6z"/>
		<path class="st19" d="M143.7,88.4c0-0.6,0-1.2,0-1.7h1.2l0.1,0.8h0c0.3-0.4,0.8-0.9,1.7-0.9c0.7,0,1.3,0.4,1.5,1h0
			c0.2-0.3,0.4-0.5,0.7-0.7c0.3-0.2,0.7-0.3,1.1-0.3c0.9,0,1.9,0.6,1.9,2.4v3.3h-1.4v-3.1c0-0.9-0.3-1.5-1-1.5c-0.5,0-0.8,0.3-1,0.7
			c0,0.1-0.1,0.3-0.1,0.5v3.3h-1.4v-3.2c0-0.8-0.3-1.3-1-1.3c-0.5,0-0.9,0.4-1,0.8c-0.1,0.1-0.1,0.3-0.1,0.5v3.3h-1.4V88.4z"/>
		<path class="st19" d="M156.7,89.9c0,1,0.8,1.4,1.7,1.4c0.6,0,1.1-0.1,1.5-0.3l0.2,1c-0.5,0.2-1.1,0.3-1.9,0.3
			c-1.8,0-2.9-1.1-2.9-2.8c0-1.5,0.9-3,2.7-3c1.8,0,2.4,1.5,2.4,2.7c0,0.3,0,0.5,0,0.6H156.7z M159.2,89c0-0.5-0.2-1.4-1.1-1.4
			c-0.9,0-1.2,0.8-1.3,1.4H159.2z"/>
		<path class="st19" d="M161.6,84.2h1.4v8.1h-1.4V84.2z"/>
		<path class="st19" d="M165.5,89.9c0,1,0.8,1.4,1.7,1.4c0.6,0,1.1-0.1,1.5-0.3l0.2,1c-0.5,0.2-1.1,0.3-1.9,0.3
			c-1.8,0-2.9-1.1-2.9-2.8c0-1.5,0.9-3,2.7-3c1.8,0,2.4,1.5,2.4,2.7c0,0.3,0,0.5,0,0.6H165.5z M168,89c0-0.5-0.2-1.4-1.1-1.4
			c-0.9,0-1.2,0.8-1.3,1.4H168z"/>
		<path class="st19" d="M171.3,86.8l0.9,2.8c0.2,0.5,0.3,0.9,0.4,1.4h0c0.1-0.5,0.2-0.9,0.4-1.4l0.9-2.8h1.5l-2.1,5.5h-1.4l-2.1-5.5
			H171.3z"/>
		<path class="st19" d="M179.2,92.3l-0.1-0.6h0c-0.3,0.4-0.9,0.7-1.6,0.7c-1.1,0-1.7-0.8-1.7-1.7c0-1.4,1.2-2.1,3.3-2.1v-0.1
			c0-0.4-0.1-1-1.1-1c-0.5,0-1.1,0.2-1.5,0.4l-0.3-0.9c0.4-0.3,1.1-0.5,2-0.5c1.8,0,2.3,1.1,2.3,2.3v2c0,0.5,0,1,0.1,1.3H179.2z
			 M179,89.6c-1,0-1.9,0.2-1.9,1c0,0.5,0.4,0.8,0.8,0.8c0.6,0,1-0.4,1.1-0.8c0-0.1,0-0.2,0-0.3V89.6z"/>
		<path class="st19" d="M183.4,85.2v1.6h1.3v1h-1.3v2.4c0,0.7,0.2,1,0.7,1c0.2,0,0.4,0,0.5-0.1l0,1.1c-0.2,0.1-0.6,0.1-1,0.1
			c-0.5,0-0.9-0.2-1.2-0.5c-0.3-0.3-0.4-0.8-0.4-1.5v-2.6h-0.8v-1h0.8v-1.3L183.4,85.2z"/>
		<path class="st19" d="M187.3,85.2c0,0.4-0.3,0.8-0.8,0.8c-0.5,0-0.8-0.3-0.8-0.8c0-0.4,0.3-0.8,0.8-0.8
			C187,84.5,187.3,84.8,187.3,85.2z M185.8,92.3v-5.5h1.4v5.5H185.8z"/>
		<path class="st19" d="M194,89.5c0,2-1.4,2.9-2.8,2.9c-1.6,0-2.8-1.1-2.8-2.9c0-1.8,1.2-2.9,2.9-2.9C192.9,86.6,194,87.8,194,89.5z
			 M189.8,89.5c0,1.1,0.5,1.9,1.4,1.9c0.8,0,1.4-0.8,1.4-1.9c0-0.9-0.4-1.9-1.3-1.9C190.2,87.7,189.8,88.6,189.8,89.5z"/>
		<path class="st19" d="M195.1,88.4c0-0.6,0-1.2,0-1.7h1.2l0.1,0.8h0c0.2-0.4,0.8-1,1.8-1c1,0,2,0.6,2,2.4v3.3h-1.4v-3.1
			c0-0.8-0.3-1.4-1.1-1.4c-0.6,0-0.9,0.4-1.1,0.8c0,0.1-0.1,0.3-0.1,0.5v3.3h-1.4V88.4z"/>
		<path class="st19" d="M207.1,92.3l-0.1-0.6h0c-0.3,0.4-0.9,0.7-1.6,0.7c-1.1,0-1.7-0.8-1.7-1.7c0-1.4,1.2-2.1,3.3-2.1v-0.1
			c0-0.4-0.1-1-1.1-1c-0.5,0-1.1,0.2-1.5,0.4l-0.3-0.9c0.4-0.3,1.1-0.5,2-0.5c1.8,0,2.3,1.1,2.3,2.3v2c0,0.5,0,1,0.1,1.3H207.1z
			 M207,89.6c-1,0-1.9,0.2-1.9,1c0,0.5,0.4,0.8,0.8,0.8c0.6,0,1-0.4,1.1-0.8c0-0.1,0-0.2,0-0.3V89.6z"/>
		<path class="st19" d="M209.8,88.4c0-0.6,0-1.2,0-1.7h1.2l0.1,0.8h0c0.2-0.4,0.8-1,1.8-1c1,0,2,0.6,2,2.4v3.3h-1.4v-3.1
			c0-0.8-0.3-1.4-1.1-1.4c-0.6,0-0.9,0.4-1.1,0.8c0,0.1-0.1,0.3-0.1,0.5v3.3h-1.4V88.4z"/>
		<path class="st19" d="M221.4,84.2v6.5c0,0.6,0,1.2,0,1.6h-1.3l-0.1-0.9h0c-0.3,0.6-1,1-1.8,1c-1.3,0-2.4-1.1-2.4-2.8
			c0-1.9,1.1-3,2.5-3c0.8,0,1.3,0.3,1.6,0.7h0v-3.1H221.4z M220,89.1c0-0.1,0-0.3,0-0.4c-0.1-0.5-0.6-1-1.2-1
			c-0.9,0-1.4,0.8-1.4,1.8c0,1,0.5,1.8,1.4,1.8c0.6,0,1.1-0.4,1.2-1c0-0.1,0-0.3,0-0.4V89.1z"/>
		<path class="st19" d="M136.9,103.8c-0.3,0.1-0.9,0.3-1.6,0.3c-1.7,0-2.9-1.1-2.9-2.8c0-1.7,1.1-3,3.1-3c0.5,0,1,0.1,1.4,0.3
			l-0.3,1c-0.2-0.1-0.6-0.2-1.1-0.2c-1.1,0-1.7,0.8-1.7,1.8c0,1.1,0.7,1.8,1.7,1.8c0.5,0,0.8-0.1,1.1-0.2L136.9,103.8z"/>
		<path class="st19" d="M143.1,101.2c0,2-1.4,2.9-2.8,2.9c-1.6,0-2.8-1.1-2.8-2.9c0-1.8,1.2-2.9,2.9-2.9
			C142,98.3,143.1,99.5,143.1,101.2z M138.9,101.2c0,1.1,0.5,1.9,1.4,1.9c0.8,0,1.4-0.8,1.4-1.9c0-0.9-0.4-1.9-1.3-1.9
			C139.3,99.3,138.9,100.3,138.9,101.2z"/>
		<path class="st19" d="M144.3,100.1c0-0.6,0-1.2,0-1.7h1.2l0.1,0.8h0c0.2-0.4,0.8-1,1.8-1c1,0,2,0.6,2,2.4v3.3h-1.4v-3.1
			c0-0.8-0.3-1.4-1.1-1.4c-0.6,0-0.9,0.4-1.1,0.8c0,0.1-0.1,0.3-0.1,0.5v3.3h-1.4V100.1z"/>
		<path class="st19" d="M152.3,96.9v1.6h1.3v1h-1.3v2.4c0,0.7,0.2,1,0.7,1c0.2,0,0.4,0,0.5-0.1l0,1.1c-0.2,0.1-0.6,0.1-1,0.1
			c-0.5,0-0.9-0.2-1.2-0.5c-0.3-0.3-0.4-0.8-0.4-1.5v-2.6h-0.8v-1h0.8v-1.3L152.3,96.9z"/>
		<path class="st19" d="M159.9,101.2c0,2-1.4,2.9-2.8,2.9c-1.6,0-2.8-1.1-2.8-2.9c0-1.8,1.2-2.9,2.9-2.9
			C158.8,98.3,159.9,99.5,159.9,101.2z M155.7,101.2c0,1.1,0.5,1.9,1.4,1.9c0.8,0,1.4-0.8,1.4-1.9c0-0.9-0.4-1.9-1.3-1.9
			C156.1,99.3,155.7,100.3,155.7,101.2z"/>
		<path class="st19" d="M166,102.3c0,0.7,0,1.2,0,1.7h-1.2l-0.1-0.8h0c-0.2,0.4-0.8,1-1.8,1c-1,0-1.9-0.6-1.9-2.4v-3.3h1.4v3
			c0,0.9,0.3,1.5,1,1.5c0.6,0,0.9-0.4,1.1-0.8c0-0.1,0.1-0.3,0.1-0.4v-3.3h1.4V102.3z"/>
		<path class="st19" d="M167.5,100.2c0-0.8,0-1.3,0-1.8h1.2l0,1.1h0c0.3-0.8,0.9-1.2,1.5-1.2c0.1,0,0.2,0,0.3,0v1.3
			c-0.1,0-0.2,0-0.4,0c-0.7,0-1.1,0.4-1.3,1.1c0,0.1,0,0.3,0,0.4v2.9h-1.4V100.2z"/>
		<path class="st19" d="M174,100.1c0-0.6,0-1.2,0-1.7h1.2l0.1,0.8h0c0.3-0.4,0.8-0.9,1.7-0.9c0.7,0,1.3,0.4,1.5,1h0
			c0.2-0.3,0.4-0.5,0.7-0.7c0.3-0.2,0.7-0.3,1.1-0.3c0.9,0,1.9,0.6,1.9,2.4v3.3h-1.4v-3.1c0-0.9-0.3-1.5-1-1.5c-0.5,0-0.8,0.3-1,0.7
			c0,0.1-0.1,0.3-0.1,0.5v3.3h-1.4v-3.2c0-0.8-0.3-1.3-1-1.3c-0.5,0-0.9,0.4-1,0.8c-0.1,0.1-0.1,0.3-0.1,0.5v3.3H174V100.1z"/>
		<path class="st19" d="M186.7,104l-0.1-0.6h0c-0.3,0.4-0.9,0.7-1.6,0.7c-1.1,0-1.7-0.8-1.7-1.7c0-1.4,1.2-2.1,3.3-2.1v-0.1
			c0-0.4-0.1-1-1.1-1c-0.5,0-1.1,0.2-1.5,0.4l-0.3-0.9c0.4-0.3,1.1-0.5,2-0.5c1.8,0,2.3,1.1,2.3,2.3v2c0,0.5,0,1,0.1,1.3H186.7z
			 M186.6,101.3c-1,0-1.9,0.2-1.9,1c0,0.5,0.4,0.8,0.8,0.8c0.6,0,1-0.4,1.1-0.8c0-0.1,0-0.2,0-0.3V101.3z"/>
		<path class="st19" d="M189.4,100.3c0-0.7,0-1.3,0-1.8h1.2l0.1,0.9h0c0.4-0.6,1.1-1,1.9-1c1.3,0,2.3,1.1,2.3,2.8c0,2-1.3,3-2.5,3
			c-0.7,0-1.3-0.3-1.6-0.7h0v2.9h-1.4V100.3z M190.8,101.7c0,0.1,0,0.3,0,0.4c0.1,0.6,0.6,1,1.2,1c0.9,0,1.4-0.7,1.4-1.8
			c0-1-0.5-1.8-1.4-1.8c-0.6,0-1.1,0.4-1.3,1c0,0.1-0.1,0.2-0.1,0.4V101.7z"/>
		<path class="st19" d="M196.1,100.3c0-0.7,0-1.3,0-1.8h1.2l0.1,0.9h0c0.4-0.6,1.1-1,1.9-1c1.3,0,2.3,1.1,2.3,2.8c0,2-1.3,3-2.5,3
			c-0.7,0-1.3-0.3-1.6-0.7h0v2.9h-1.4V100.3z M197.5,101.7c0,0.1,0,0.3,0,0.4c0.1,0.6,0.6,1,1.2,1c0.9,0,1.4-0.7,1.4-1.8
			c0-1-0.5-1.8-1.4-1.8c-0.6,0-1.1,0.4-1.3,1c0,0.1-0.1,0.2-0.1,0.4V101.7z"/>
		<path class="st19" d="M204.2,96.9c0,0.4-0.3,0.8-0.8,0.8c-0.5,0-0.8-0.3-0.8-0.8c0-0.4,0.3-0.8,0.8-0.8
			C203.9,96.1,204.2,96.5,204.2,96.9z M202.7,104v-5.5h1.4v5.5H202.7z"/>
		<path class="st19" d="M205.6,100.1c0-0.6,0-1.2,0-1.7h1.2l0.1,0.8h0c0.2-0.4,0.8-1,1.8-1c1,0,2,0.6,2,2.4v3.3h-1.4v-3.1
			c0-0.8-0.3-1.4-1.1-1.4c-0.6,0-0.9,0.4-1.1,0.8c0,0.1-0.1,0.3-0.1,0.5v3.3h-1.4V100.1z"/>
		<path class="st19" d="M217.2,98.5c0,0.4,0,0.8,0,1.6v3.1c0,1.2-0.2,2-0.8,2.5c-0.6,0.5-1.4,0.7-2.1,0.7c-0.7,0-1.5-0.1-1.9-0.4
			l0.3-1.1c0.4,0.2,0.9,0.4,1.6,0.4c0.9,0,1.6-0.5,1.6-1.7v-0.5h0c-0.3,0.5-0.9,0.8-1.6,0.8c-1.4,0-2.4-1.1-2.4-2.7
			c0-1.8,1.2-2.9,2.5-2.9c0.8,0,1.3,0.4,1.6,0.9h0l0.1-0.7H217.2z M215.8,100.7c0-0.1,0-0.3,0-0.4c-0.1-0.5-0.5-0.9-1.1-0.9
			c-0.8,0-1.4,0.7-1.4,1.8c0,0.9,0.5,1.7,1.4,1.7c0.5,0,1-0.3,1.1-0.8c0-0.1,0.1-0.3,0.1-0.5V100.7z"/>
	</g>
	<g>
		<path class="st19" d="M280.2,207.2c0.5,0.3,1.1,0.5,1.9,0.5c0.9,0,1.4-0.4,1.4-1c0-0.6-0.4-0.9-1.4-1.3c-1.3-0.5-2.1-1.1-2.1-2.2
			c0-1.3,1-2.2,2.7-2.2c0.8,0,1.4,0.2,1.8,0.4l-0.3,1.1c-0.3-0.1-0.8-0.4-1.5-0.4c-0.9,0-1.3,0.5-1.3,0.9c0,0.6,0.4,0.9,1.5,1.3
			c1.3,0.5,2,1.2,2,2.3c0,1.2-0.9,2.3-2.9,2.3c-0.8,0-1.7-0.2-2.1-0.5L280.2,207.2z"/>
		<path class="st19" d="M291.4,205.9c0,2-1.4,2.9-2.8,2.9c-1.6,0-2.8-1.1-2.8-2.9c0-1.8,1.2-2.9,2.9-2.9
			C290.3,203,291.4,204.2,291.4,205.9z M287.2,205.9c0,1.1,0.5,1.9,1.4,1.9c0.8,0,1.4-0.8,1.4-1.9c0-0.9-0.4-1.9-1.3-1.9
			C287.6,204.1,287.2,205,287.2,205.9z"/>
		<path class="st19" d="M294,201.6c0,0.4-0.3,0.8-0.8,0.8c-0.5,0-0.8-0.3-0.8-0.8c0-0.4,0.3-0.8,0.8-0.8
			C293.7,200.9,294,201.2,294,201.6z M292.5,208.7v-5.5h1.4v5.5H292.5z"/>
		<path class="st19" d="M295.4,200.6h1.4v8.1h-1.4V200.6z"/>
		<path class="st19" d="M266.9,216.5c0-0.6,0-1.2,0-1.7h1.2l0.1,0.8h0c0.3-0.4,0.8-0.9,1.7-0.9c0.7,0,1.3,0.4,1.5,1h0
			c0.2-0.3,0.4-0.5,0.7-0.7c0.3-0.2,0.7-0.3,1.1-0.3c0.9,0,1.9,0.6,1.9,2.4v3.3h-1.4v-3.1c0-0.9-0.3-1.5-1-1.5c-0.5,0-0.8,0.3-1,0.7
			c0,0.1-0.1,0.3-0.1,0.5v3.3h-1.4v-3.2c0-0.8-0.3-1.3-1-1.3c-0.5,0-0.9,0.4-1,0.8c-0.1,0.1-0.1,0.3-0.1,0.5v3.3h-1.4V216.5z"/>
		<path class="st19" d="M279.7,220.4l-0.1-0.6h0c-0.3,0.4-0.9,0.7-1.6,0.7c-1.1,0-1.7-0.8-1.7-1.7c0-1.4,1.2-2.1,3.3-2.1v-0.1
			c0-0.4-0.1-1-1.1-1c-0.5,0-1.1,0.2-1.5,0.4l-0.3-0.9c0.4-0.3,1.1-0.5,2-0.5c1.8,0,2.3,1.1,2.3,2.3v2c0,0.5,0,1,0.1,1.3H279.7z
			 M279.5,217.7c-1,0-1.9,0.2-1.9,1c0,0.5,0.4,0.8,0.8,0.8c0.6,0,1-0.4,1.1-0.8c0-0.1,0-0.2,0-0.3V217.7z"/>
		<path class="st19" d="M282.3,216.7c0-0.7,0-1.3,0-1.8h1.2l0.1,0.9h0c0.4-0.6,1.1-1,1.9-1c1.3,0,2.3,1.1,2.3,2.8c0,2-1.3,3-2.5,3
			c-0.7,0-1.3-0.3-1.6-0.7h0v2.9h-1.4V216.7z M283.7,218.1c0,0.1,0,0.3,0,0.4c0.1,0.6,0.6,1,1.2,1c0.9,0,1.4-0.7,1.4-1.8
			c0-1-0.5-1.8-1.4-1.8c-0.6,0-1.1,0.4-1.3,1c0,0.1-0.1,0.2-0.1,0.4V218.1z"/>
		<path class="st19" d="M289,216.7c0-0.7,0-1.3,0-1.8h1.2l0.1,0.9h0c0.4-0.6,1.1-1,1.9-1c1.3,0,2.3,1.1,2.3,2.8c0,2-1.3,3-2.5,3
			c-0.7,0-1.3-0.3-1.6-0.7h0v2.9H289V216.7z M290.4,218.1c0,0.1,0,0.3,0,0.4c0.1,0.6,0.6,1,1.2,1c0.9,0,1.4-0.7,1.4-1.8
			c0-1-0.5-1.8-1.4-1.8c-0.6,0-1.1,0.4-1.3,1c0,0.1-0.1,0.2-0.1,0.4V218.1z"/>
		<path class="st19" d="M297.1,213.3c0,0.4-0.3,0.8-0.8,0.8c-0.5,0-0.8-0.3-0.8-0.8c0-0.4,0.3-0.8,0.8-0.8
			C296.8,212.5,297.1,212.9,297.1,213.3z M295.7,220.4v-5.5h1.4v5.5H295.7z"/>
		<path class="st19" d="M298.6,216.5c0-0.6,0-1.2,0-1.7h1.2l0.1,0.8h0c0.2-0.4,0.8-1,1.8-1c1,0,2,0.6,2,2.4v3.3h-1.4v-3.1
			c0-0.8-0.3-1.4-1.1-1.4c-0.6,0-0.9,0.4-1.1,0.8c0,0.1-0.1,0.3-0.1,0.5v3.3h-1.4V216.5z"/>
		<path class="st19" d="M310.1,214.8c0,0.4,0,0.8,0,1.6v3.1c0,1.2-0.2,2-0.8,2.5c-0.6,0.5-1.4,0.7-2.1,0.7c-0.7,0-1.5-0.1-1.9-0.4
			l0.3-1.1c0.4,0.2,0.9,0.4,1.6,0.4c0.9,0,1.6-0.5,1.6-1.7v-0.5h0c-0.3,0.5-0.9,0.8-1.6,0.8c-1.4,0-2.4-1.1-2.4-2.7
			c0-1.8,1.2-2.9,2.5-2.9c0.8,0,1.3,0.4,1.6,0.9h0l0.1-0.7H310.1z M308.7,217.1c0-0.1,0-0.3,0-0.4c-0.1-0.5-0.5-0.9-1.1-0.9
			c-0.8,0-1.4,0.7-1.4,1.8c0,0.9,0.5,1.7,1.4,1.7c0.5,0,1-0.3,1.1-0.8c0-0.1,0.1-0.3,0.1-0.5V217.1z"/>
	</g>
	<g>
		<path class="st19" d="M156.3,312c-0.3,0.2-1.1,0.3-2,0.3c-2.4,0-3.9-1.5-3.9-3.9c0-2.5,1.8-4.1,4.1-4.1c0.9,0,1.6,0.2,1.9,0.3
			l-0.3,1.1c-0.4-0.2-0.9-0.3-1.5-0.3c-1.6,0-2.7,1-2.7,2.8c0,1.7,1,2.8,2.7,2.8c0.6,0,1.2-0.1,1.5-0.3L156.3,312z"/>
		<path class="st19" d="M157.4,308.5c0-0.8,0-1.3,0-1.8h1.2l0,1.1h0c0.3-0.8,0.9-1.2,1.5-1.2c0.1,0,0.2,0,0.3,0v1.3
			c-0.1,0-0.2,0-0.4,0c-0.7,0-1.1,0.4-1.3,1.1c0,0.1,0,0.3,0,0.4v2.9h-1.4V308.5z"/>
		<path class="st19" d="M166.6,309.5c0,2-1.4,2.9-2.8,2.9c-1.6,0-2.8-1.1-2.8-2.9c0-1.8,1.2-2.9,2.9-2.9
			C165.5,306.6,166.6,307.8,166.6,309.5z M162.4,309.5c0,1.1,0.5,1.9,1.4,1.9c0.8,0,1.4-0.8,1.4-1.9c0-0.9-0.4-1.9-1.3-1.9
			C162.8,307.6,162.4,308.6,162.4,309.5z"/>
		<path class="st19" d="M167.7,308.6c0-0.7,0-1.3,0-1.8h1.2l0.1,0.9h0c0.4-0.6,1.1-1,1.9-1c1.3,0,2.3,1.1,2.3,2.8c0,2-1.3,3-2.5,3
			c-0.7,0-1.3-0.3-1.6-0.7h0v2.9h-1.4V308.6z M169.1,310c0,0.1,0,0.3,0,0.4c0.1,0.6,0.6,1,1.2,1c0.9,0,1.4-0.7,1.4-1.8
			c0-1-0.5-1.8-1.4-1.8c-0.6,0-1.1,0.4-1.3,1c0,0.1-0.1,0.2-0.1,0.4V310z"/>
		<path class="st19" d="M177.6,306.7l1,3c0.1,0.3,0.2,0.8,0.3,1.1h0c0.1-0.3,0.2-0.7,0.3-1.1l0.9-3h1.5l-1.4,3.8
			c-0.8,2.1-1.3,3-1.9,3.6c-0.5,0.5-1.1,0.7-1.5,0.7l-0.3-1.2c0.2-0.1,0.5-0.2,0.8-0.4c0.3-0.2,0.6-0.5,0.8-0.9
			c0.1-0.1,0.1-0.2,0.1-0.3c0-0.1,0-0.1-0.1-0.3l-2-5.1H177.6z"/>
		<path class="st19" d="M184,305.2c0,0.4-0.3,0.8-0.8,0.8c-0.5,0-0.8-0.3-0.8-0.8c0-0.4,0.3-0.8,0.8-0.8
			C183.6,304.4,183.9,304.8,184,305.2z M182.5,312.3v-5.5h1.4v5.5H182.5z"/>
		<path class="st19" d="M186.4,309.9c0,1,0.8,1.4,1.7,1.4c0.6,0,1.1-0.1,1.5-0.3l0.2,1c-0.5,0.2-1.1,0.3-1.9,0.3
			c-1.8,0-2.9-1.1-2.9-2.8c0-1.5,0.9-3,2.7-3c1.8,0,2.4,1.5,2.4,2.7c0,0.3,0,0.5,0,0.6H186.4z M188.8,308.9c0-0.5-0.2-1.4-1.1-1.4
			c-0.9,0-1.2,0.8-1.3,1.4H188.8z"/>
		<path class="st19" d="M191.2,304.2h1.4v8.1h-1.4V304.2z"/>
		<path class="st19" d="M199.3,304.2v6.5c0,0.6,0,1.2,0,1.6h-1.3l-0.1-0.9h0c-0.3,0.6-1,1-1.8,1c-1.3,0-2.4-1.1-2.4-2.8
			c0-1.9,1.1-3,2.5-3c0.8,0,1.3,0.3,1.6,0.7h0v-3.1H199.3z M197.9,309c0-0.1,0-0.3,0-0.4c-0.1-0.5-0.6-1-1.2-1
			c-0.9,0-1.4,0.8-1.4,1.8c0,1,0.5,1.8,1.4,1.8c0.6,0,1.1-0.4,1.2-1c0-0.1,0-0.3,0-0.4V309z"/>
		<path class="st19" d="M153.4,320.1c0-0.6,0-1.2,0-1.7h1.2l0.1,0.8h0c0.3-0.4,0.8-0.9,1.7-0.9c0.7,0,1.3,0.4,1.5,1h0
			c0.2-0.3,0.4-0.5,0.7-0.7c0.3-0.2,0.7-0.3,1.1-0.3c0.9,0,1.9,0.6,1.9,2.4v3.3h-1.4v-3.1c0-0.9-0.3-1.5-1-1.5c-0.5,0-0.8,0.3-1,0.7
			c0,0.1-0.1,0.3-0.1,0.5v3.3h-1.4v-3.2c0-0.8-0.3-1.3-1-1.3c-0.5,0-0.9,0.4-1,0.8c-0.1,0.1-0.1,0.3-0.1,0.5v3.3h-1.4V320.1z"/>
		<path class="st19" d="M166.2,324l-0.1-0.6h0c-0.3,0.4-0.9,0.7-1.6,0.7c-1.1,0-1.7-0.8-1.7-1.7c0-1.4,1.2-2.1,3.3-2.1v-0.1
			c0-0.4-0.1-1-1.1-1c-0.5,0-1.1,0.2-1.5,0.4l-0.3-0.9c0.4-0.3,1.1-0.5,2-0.5c1.8,0,2.3,1.1,2.3,2.3v2c0,0.5,0,1,0.1,1.3H166.2z
			 M166,321.2c-1,0-1.9,0.2-1.9,1c0,0.5,0.4,0.8,0.8,0.8c0.6,0,1-0.4,1.1-0.8c0-0.1,0-0.2,0-0.3V321.2z"/>
		<path class="st19" d="M168.8,320.3c0-0.7,0-1.3,0-1.8h1.2l0.1,0.9h0c0.4-0.6,1.1-1,1.9-1c1.3,0,2.3,1.1,2.3,2.8c0,2-1.3,3-2.5,3
			c-0.7,0-1.3-0.3-1.6-0.7h0v2.9h-1.4V320.3z M170.2,321.6c0,0.1,0,0.3,0,0.4c0.1,0.6,0.6,1,1.2,1c0.9,0,1.4-0.7,1.4-1.8
			c0-1-0.5-1.8-1.4-1.8c-0.6,0-1.1,0.4-1.3,1c0,0.1-0.1,0.2-0.1,0.4V321.6z"/>
		<path class="st19" d="M175.5,320.3c0-0.7,0-1.3,0-1.8h1.2l0.1,0.9h0c0.4-0.6,1.1-1,1.9-1c1.3,0,2.3,1.1,2.3,2.8c0,2-1.3,3-2.5,3
			c-0.7,0-1.3-0.3-1.6-0.7h0v2.9h-1.4V320.3z M176.9,321.6c0,0.1,0,0.3,0,0.4c0.1,0.6,0.6,1,1.2,1c0.9,0,1.4-0.7,1.4-1.8
			c0-1-0.5-1.8-1.4-1.8c-0.6,0-1.1,0.4-1.3,1c0,0.1-0.1,0.2-0.1,0.4V321.6z"/>
		<path class="st19" d="M183.6,316.9c0,0.4-0.3,0.8-0.8,0.8c-0.5,0-0.8-0.3-0.8-0.8c0-0.4,0.3-0.8,0.8-0.8
			C183.3,316.1,183.6,316.4,183.6,316.9z M182.2,324v-5.5h1.4v5.5H182.2z"/>
		<path class="st19" d="M185.1,320.1c0-0.6,0-1.2,0-1.7h1.2l0.1,0.8h0c0.2-0.4,0.8-1,1.8-1c1,0,2,0.6,2,2.4v3.3h-1.4v-3.1
			c0-0.8-0.3-1.4-1.1-1.4c-0.6,0-0.9,0.4-1.1,0.8c0,0.1-0.1,0.3-0.1,0.5v3.3h-1.4V320.1z"/>
		<path class="st19" d="M196.7,318.4c0,0.4,0,0.8,0,1.6v3.1c0,1.2-0.2,2-0.8,2.5c-0.6,0.5-1.4,0.7-2.1,0.7c-0.7,0-1.5-0.1-1.9-0.4
			l0.3-1.1c0.4,0.2,0.9,0.4,1.6,0.4c0.9,0,1.6-0.5,1.6-1.7v-0.5h0c-0.3,0.5-0.9,0.8-1.6,0.8c-1.4,0-2.4-1.1-2.4-2.7
			c0-1.8,1.2-2.9,2.5-2.9c0.8,0,1.3,0.4,1.6,0.9h0l0.1-0.7H196.7z M195.2,320.6c0-0.1,0-0.3,0-0.4c-0.1-0.5-0.5-0.9-1.1-0.9
			c-0.8,0-1.4,0.7-1.4,1.8c0,0.9,0.5,1.7,1.4,1.7c0.5,0,1-0.3,1.1-0.8c0-0.1,0.1-0.3,0.1-0.5V320.6z"/>
	</g>
	<g>
		<path class="st19" d="M52.7,195.4h4.4v1.2h-3v2.1H57v1.1h-2.8v3.3h-1.4V195.4z"/>
		<path class="st19" d="M61.1,203.1l-0.1-0.6h0c-0.3,0.4-0.9,0.7-1.6,0.7c-1.1,0-1.7-0.8-1.7-1.7c0-1.4,1.2-2.1,3.3-2.1v-0.1
			c0-0.4-0.1-1-1.1-1c-0.5,0-1.1,0.2-1.5,0.4l-0.3-0.9c0.4-0.3,1.1-0.5,2-0.5c1.8,0,2.3,1.1,2.3,2.3v2c0,0.5,0,1,0.1,1.3H61.1z
			 M60.9,200.4c-1,0-1.9,0.2-1.9,1c0,0.5,0.4,0.8,0.8,0.8c0.6,0,1-0.4,1.1-0.8c0-0.1,0-0.2,0-0.3V200.4z"/>
		<path class="st19" d="M63.8,199.3c0-0.8,0-1.3,0-1.8H65l0,1.1h0c0.3-0.8,0.9-1.2,1.5-1.2c0.1,0,0.2,0,0.3,0v1.3
			c-0.1,0-0.2,0-0.4,0c-0.7,0-1.1,0.4-1.3,1.1c0,0.1,0,0.3,0,0.4v2.9h-1.4V199.3z"/>
		<path class="st19" d="M67.8,199.2c0-0.6,0-1.2,0-1.7H69l0.1,0.8h0c0.3-0.4,0.8-0.9,1.7-0.9c0.7,0,1.3,0.4,1.5,1h0
			c0.2-0.3,0.4-0.5,0.7-0.7c0.3-0.2,0.7-0.3,1.1-0.3c0.9,0,1.9,0.6,1.9,2.4v3.3h-1.4V200c0-0.9-0.3-1.5-1-1.5c-0.5,0-0.8,0.3-1,0.7
			c0,0.1-0.1,0.3-0.1,0.5v3.3h-1.4v-3.2c0-0.8-0.3-1.3-1-1.3c-0.5,0-0.9,0.4-1,0.8c-0.1,0.1-0.1,0.3-0.1,0.5v3.3h-1.4V199.2z"/>
		<path class="st19" d="M34.7,211.1c0-0.7,0-1.3,0-1.8h1.2l0.1,0.9h0c0.4-0.6,1.1-1,1.9-1c1.3,0,2.3,1.1,2.3,2.8c0,2-1.3,3-2.5,3
			c-0.7,0-1.3-0.3-1.6-0.7h0v2.9h-1.4V211.1z M36.1,212.5c0,0.1,0,0.3,0,0.4c0.1,0.6,0.6,1,1.2,1c0.9,0,1.4-0.7,1.4-1.8
			c0-1-0.5-1.8-1.4-1.8c-0.6,0-1.1,0.4-1.3,1c0,0.1-0.1,0.2-0.1,0.4V212.5z"/>
		<path class="st19" d="M41.3,211c0-0.8,0-1.3,0-1.8h1.2l0,1.1h0c0.3-0.8,0.9-1.2,1.5-1.2c0.1,0,0.2,0,0.3,0v1.3c-0.1,0-0.2,0-0.4,0
			c-0.7,0-1.1,0.4-1.3,1.1c0,0.1,0,0.3,0,0.4v2.9h-1.4V211z"/>
		<path class="st19" d="M50.6,212c0,2-1.4,2.9-2.8,2.9c-1.6,0-2.8-1.1-2.8-2.9c0-1.8,1.2-2.9,2.9-2.9
			C49.5,209.1,50.6,210.3,50.6,212z M46.4,212c0,1.1,0.5,1.9,1.4,1.9c0.8,0,1.4-0.8,1.4-1.9c0-0.9-0.4-1.9-1.3-1.9
			C46.8,210.1,46.4,211.1,46.4,212z"/>
		<path class="st19" d="M56.8,206.7v6.5c0,0.6,0,1.2,0,1.6h-1.3l-0.1-0.9h0c-0.3,0.6-1,1-1.8,1c-1.3,0-2.4-1.1-2.4-2.8
			c0-1.9,1.1-3,2.5-3c0.8,0,1.3,0.3,1.6,0.7h0v-3.1H56.8z M55.4,211.5c0-0.1,0-0.3,0-0.4c-0.1-0.5-0.6-1-1.2-1
			c-0.9,0-1.4,0.8-1.4,1.8c0,1,0.5,1.8,1.4,1.8c0.6,0,1.1-0.4,1.2-1c0-0.1,0-0.3,0-0.4V211.5z"/>
		<path class="st19" d="M63.3,213.1c0,0.7,0,1.2,0,1.7h-1.2l-0.1-0.8h0c-0.2,0.4-0.8,1-1.8,1c-1,0-1.9-0.6-1.9-2.4v-3.3h1.4v3
			c0,0.9,0.3,1.5,1,1.5c0.6,0,0.9-0.4,1.1-0.8c0-0.1,0.1-0.3,0.1-0.4v-3.3h1.4V213.1z"/>
		<path class="st19" d="M68.9,214.6c-0.3,0.1-0.9,0.3-1.6,0.3c-1.7,0-2.9-1.1-2.9-2.8c0-1.7,1.1-3,3.1-3c0.5,0,1,0.1,1.4,0.3l-0.3,1
			c-0.2-0.1-0.6-0.2-1.1-0.2c-1.1,0-1.7,0.8-1.7,1.8c0,1.1,0.7,1.8,1.7,1.8c0.5,0,0.8-0.1,1.1-0.2L68.9,214.6z"/>
		<path class="st19" d="M71.7,207.7v1.6H73v1h-1.3v2.4c0,0.7,0.2,1,0.7,1c0.2,0,0.4,0,0.5-0.1l0,1.1c-0.2,0.1-0.6,0.1-1,0.1
			c-0.5,0-0.9-0.2-1.2-0.5c-0.3-0.3-0.4-0.8-0.4-1.5v-2.6h-0.8v-1h0.8V208L71.7,207.7z"/>
		<path class="st19" d="M75.6,207.7c0,0.4-0.3,0.8-0.8,0.8c-0.5,0-0.8-0.3-0.8-0.8c0-0.4,0.3-0.8,0.8-0.8
			C75.3,206.9,75.6,207.3,75.6,207.7z M74.1,214.8v-5.5h1.4v5.5H74.1z"/>
		<path class="st19" d="M77.9,209.2l0.9,2.8c0.2,0.5,0.3,0.9,0.4,1.4h0c0.1-0.5,0.2-0.9,0.4-1.4l0.9-2.8h1.5l-2.1,5.5h-1.4l-2.1-5.5
			H77.9z"/>
		<path class="st19" d="M84.3,207.7c0,0.4-0.3,0.8-0.8,0.8c-0.5,0-0.8-0.3-0.8-0.8c0-0.4,0.3-0.8,0.8-0.8
			C84,206.9,84.3,207.3,84.3,207.7z M82.8,214.8v-5.5h1.4v5.5H82.8z"/>
		<path class="st19" d="M87.3,207.7v1.6h1.3v1h-1.3v2.4c0,0.7,0.2,1,0.7,1c0.2,0,0.4,0,0.5-0.1l0,1.1c-0.2,0.1-0.6,0.1-1,0.1
			c-0.5,0-0.9-0.2-1.2-0.5c-0.3-0.3-0.4-0.8-0.4-1.5v-2.6h-0.8v-1h0.8V208L87.3,207.7z"/>
		<path class="st19" d="M90.7,209.2l1,3c0.1,0.3,0.2,0.8,0.3,1.1h0c0.1-0.3,0.2-0.7,0.3-1.1l0.9-3h1.5l-1.4,3.8
			c-0.8,2.1-1.3,3-1.9,3.6c-0.5,0.5-1.1,0.7-1.5,0.7l-0.3-1.2c0.2-0.1,0.5-0.2,0.8-0.4c0.3-0.2,0.6-0.5,0.8-0.9
			c0.1-0.1,0.1-0.2,0.1-0.3c0-0.1,0-0.1-0.1-0.3l-2-5.1H90.7z"/>
		<path class="st19" d="M39.9,226.5l-0.1-0.6h0c-0.3,0.4-0.9,0.7-1.6,0.7c-1.1,0-1.7-0.8-1.7-1.7c0-1.4,1.2-2.1,3.3-2.1v-0.1
			c0-0.4-0.1-1-1.1-1c-0.5,0-1.1,0.2-1.5,0.4l-0.3-0.9c0.4-0.3,1.1-0.5,2-0.5c1.8,0,2.3,1.1,2.3,2.3v2c0,0.5,0,1,0.1,1.3H39.9z
			 M39.7,223.8c-1,0-1.9,0.2-1.9,1c0,0.5,0.4,0.8,0.8,0.8c0.6,0,1-0.4,1.1-0.8c0-0.1,0-0.2,0-0.3V223.8z"/>
		<path class="st19" d="M42.5,225.2c0.3,0.2,0.9,0.4,1.4,0.4c0.6,0,0.9-0.3,0.9-0.6c0-0.4-0.2-0.6-0.9-0.8c-1.1-0.4-1.5-1-1.5-1.6
			c0-1,0.8-1.7,2.1-1.7c0.6,0,1.1,0.2,1.5,0.3l-0.3,1c-0.2-0.1-0.7-0.3-1.2-0.3c-0.5,0-0.8,0.2-0.8,0.6c0,0.4,0.3,0.5,1,0.8
			c1,0.4,1.5,0.9,1.5,1.7c0,1-0.8,1.7-2.3,1.7c-0.7,0-1.3-0.2-1.7-0.4L42.5,225.2z"/>
		<path class="st19" d="M47.2,225.2c0.3,0.2,0.9,0.4,1.4,0.4c0.6,0,0.9-0.3,0.9-0.6c0-0.4-0.2-0.6-0.9-0.8c-1.1-0.4-1.5-1-1.5-1.6
			c0-1,0.8-1.7,2.1-1.7c0.6,0,1.1,0.2,1.5,0.3l-0.3,1c-0.2-0.1-0.7-0.3-1.2-0.3c-0.5,0-0.8,0.2-0.8,0.6c0,0.4,0.3,0.5,1,0.8
			c1,0.4,1.5,0.9,1.5,1.7c0,1-0.8,1.7-2.3,1.7c-0.7,0-1.3-0.2-1.7-0.4L47.2,225.2z"/>
		<path class="st19" d="M53,224.1c0,1,0.8,1.4,1.7,1.4c0.6,0,1.1-0.1,1.5-0.3l0.2,1c-0.5,0.2-1.1,0.3-1.9,0.3
			c-1.8,0-2.9-1.1-2.9-2.8c0-1.5,0.9-3,2.7-3c1.8,0,2.4,1.5,2.4,2.7c0,0.3,0,0.5,0,0.6H53z M55.5,223.1c0-0.5-0.2-1.4-1.1-1.4
			c-0.9,0-1.2,0.8-1.3,1.4H55.5z"/>
		<path class="st19" d="M57.9,225.2c0.3,0.2,0.9,0.4,1.4,0.4c0.6,0,0.9-0.3,0.9-0.6c0-0.4-0.2-0.6-0.9-0.8c-1.1-0.4-1.5-1-1.5-1.6
			c0-1,0.8-1.7,2.1-1.7c0.6,0,1.1,0.2,1.5,0.3l-0.3,1c-0.2-0.1-0.7-0.3-1.2-0.3c-0.5,0-0.8,0.2-0.8,0.6c0,0.4,0.3,0.5,1,0.8
			c1,0.4,1.5,0.9,1.5,1.7c0,1-0.8,1.7-2.3,1.7c-0.7,0-1.3-0.2-1.7-0.4L57.9,225.2z"/>
		<path class="st19" d="M62.6,225.2c0.3,0.2,0.9,0.4,1.4,0.4c0.6,0,0.9-0.3,0.9-0.6c0-0.4-0.2-0.6-0.9-0.8c-1.1-0.4-1.5-1-1.5-1.6
			c0-1,0.8-1.7,2.1-1.7c0.6,0,1.1,0.2,1.5,0.3l-0.3,1c-0.2-0.1-0.7-0.3-1.2-0.3c-0.5,0-0.8,0.2-0.8,0.6c0,0.4,0.3,0.5,1,0.8
			c1,0.4,1.5,0.9,1.5,1.7c0,1-0.8,1.7-2.3,1.7c-0.7,0-1.3-0.2-1.7-0.4L62.6,225.2z"/>
		<path class="st19" d="M67.4,222.6c0-0.6,0-1.2,0-1.7h1.2l0.1,0.8h0c0.3-0.4,0.8-0.9,1.7-0.9c0.7,0,1.3,0.4,1.5,1h0
			c0.2-0.3,0.4-0.5,0.7-0.7c0.3-0.2,0.7-0.3,1.1-0.3c0.9,0,1.9,0.6,1.9,2.4v3.3h-1.4v-3.1c0-0.9-0.3-1.5-1-1.5c-0.5,0-0.8,0.3-1,0.7
			c0,0.1-0.1,0.3-0.1,0.5v3.3h-1.4v-3.2c0-0.8-0.3-1.3-1-1.3c-0.5,0-0.9,0.4-1,0.8c-0.1,0.1-0.1,0.3-0.1,0.5v3.3h-1.4V222.6z"/>
		<path class="st19" d="M78.1,224.1c0,1,0.8,1.4,1.7,1.4c0.6,0,1.1-0.1,1.5-0.3l0.2,1c-0.5,0.2-1.1,0.3-1.9,0.3
			c-1.8,0-2.9-1.1-2.9-2.8c0-1.5,0.9-3,2.7-3c1.8,0,2.4,1.5,2.4,2.7c0,0.3,0,0.5,0,0.6H78.1z M80.5,223.1c0-0.5-0.2-1.4-1.1-1.4
			c-0.9,0-1.2,0.8-1.3,1.4H80.5z"/>
		<path class="st19" d="M82.9,222.6c0-0.6,0-1.2,0-1.7h1.2l0.1,0.8h0c0.2-0.4,0.8-1,1.8-1c1,0,2,0.6,2,2.4v3.3h-1.4v-3.1
			c0-0.8-0.3-1.4-1.1-1.4c-0.6,0-0.9,0.4-1.1,0.8c0,0.1-0.1,0.3-0.1,0.5v3.3h-1.4V222.6z"/>
		<path class="st19" d="M91,219.3v1.6h1.3v1H91v2.4c0,0.7,0.2,1,0.7,1c0.2,0,0.4,0,0.5-0.1l0,1.1c-0.2,0.1-0.6,0.1-1,0.1
			c-0.5,0-0.9-0.2-1.2-0.5c-0.3-0.3-0.4-0.8-0.4-1.5V222h-0.8v-1h0.8v-1.3L91,219.3z"/>
	</g>
	<g>
		<g>
			<polyline class="st12" points="196.6,35.6 196.6,65.8 152.8,65.8 152.8,30.8 187.2,30.8 			"/>
			<g>
				<polygon class="st19" points="193.6,36.5 196.6,31.3 199.6,36.5 				"/>
			</g>
		</g>
	</g>
	<circle class="st12" cx="189.1" cy="30.9" r="2.3"/>
	<g>
		<line class="st12" x1="166" y1="37.4" x2="166" y2="59.4"/>
		<polyline class="st12" points="168.5,47 166,49.2 163.6,47 		"/>
		<polyline class="st12" points="168.5,43.8 166,46 163.6,43.8 		"/>
		<polyline class="st12" points="166,52.5 163.6,50.1 163.6,40.4 166,42.6 168.5,40.4 168.5,50.1 166,52.5 		"/>
		<polyline class="st12" points="166,57.4 162.7,54.2 159.8,56.9 		"/>
	</g>
	<rect x="62.7" y="146.8" class="st12" width="7.5" height="9.2"/>
	<line class="st12" x1="56.4" y1="162.7" x2="76.5" y2="162.7"/>
	<line class="st12" x1="56.4" y1="168.9" x2="76.5" y2="168.9"/>
	<line class="st12" x1="174.7" y1="65.8" x2="174.7" y2="75.2"/>
	<line class="st12" x1="165.8" y1="75.2" x2="183.6" y2="75.2"/>
	<g>
		<g>
			<g>
				<polyline class="st23" points="82.5,143.3 82.5,184.2 50.4,184.2 50.4,138.6 72.5,138.6 				"/>
				<g>
					<polygon class="st19" points="79.5,144.2 82.5,139 85.5,144.2 					"/>
				</g>
			</g>
		</g>
		<circle class="st23" cx="66.4" cy="177.2" r="2.3"/>
		<line class="st23" x1="50.4" y1="177.2" x2="64.1" y2="177.2"/>
		<line class="st23" x1="68.8" y1="177.2" x2="82.5" y2="177.2"/>
		<circle class="st23" cx="75" cy="138.6" r="2.3"/>
	</g>
	<line class="st28" x1="154.6" y1="57.7" x2="157.5" y2="57.7"/>
	<line class="st28" x1="160" y1="58.9" x2="162.9" y2="58.9"/>
	<line class="st28" x1="165.6" y1="58.9" x2="168.5" y2="58.9"/>
	<line class="st28" x1="171.5" y1="57.7" x2="174.4" y2="57.7"/>
	<line class="st28" x1="176" y1="47.5" x2="178.7" y2="46.7"/>
	<line class="st28" x1="181.1" y1="44.9" x2="183.9" y2="44.2"/>
	<line class="st28" x1="186.3" y1="43.2" x2="189" y2="42.5"/>
	<line class="st28" x1="191.4" y1="43.3" x2="194.2" y2="42.6"/>
	<line class="st28" x1="175.6" y1="31.3" x2="175.8" y2="34.1"/>
	<line class="st28" x1="174.8" y1="36.6" x2="175" y2="39.5"/>
	<line class="st28" x1="176.4" y1="41.9" x2="176.5" y2="44.8"/>
	<line class="st28" x1="177.9" y1="61.1" x2="177.9" y2="64"/>
	<line class="st28" x1="178.4" y1="50.2" x2="178.6" y2="53.1"/>
	<line class="st28" x1="178.5" y1="55.5" x2="178.7" y2="58.4"/>
	<polyline class="st12" points="262.4,177.5 262.4,169.1 269.5,169.1 	"/>
	<g>
		<g>
			<line class="st12" x1="299.6" y1="169.5" x2="276.6" y2="169.5"/>
			<g>
				<polygon class="st19" points="298.7,166.5 303.9,169.5 298.7,172.5 				"/>
			</g>
			<g>
				<polygon class="st19" points="277.4,166.5 272.3,169.5 277.4,172.5 				"/>
			</g>
		</g>
	</g>
	<polyline class="st12" points="312.4,178.5 312.4,169.2 306.9,169.2 	"/>
	<g>
		<path class="st12" d="M312.4,192.7v-10.9c-10,1.6-23.4-2.7-31.7-3.9s-18.3,2.5-18.3,2.5v12.3"/>
	</g>
	<line class="st12" x1="267.4" y1="173.3" x2="273.2" y2="173.3"/>
	<line class="st12" x1="296.3" y1="177.3" x2="302.1" y2="177.3"/>
	<line class="st12" x1="278.9" y1="174.6" x2="284.7" y2="174.6"/>
	<line class="st12" x1="289.4" y1="173.1" x2="295.2" y2="173.1"/>
	<line class="st12" x1="302.8" y1="173.7" x2="308.7" y2="173.7"/>
	<circle class="st12" cx="270.3" cy="184.5" r="2.3"/>
	<circle class="st12" cx="281.4" cy="188.4" r="2.3"/>
	<circle class="st12" cx="292.4" cy="185.9" r="2.3"/>
	<circle class="st12" cx="304.6" cy="189.2" r="2.3"/>
	<g>
		<polyline class="st12" points="287.9,135.4 287.9,168.2 298.5,158.4 303.3,163.4 		"/>
		<polyline class="st12" points="292.1,150.2 287.9,153.9 283.8,150.2 		"/>
		<polyline class="st12" points="292.1,144.7 287.9,148.5 283.8,144.7 		"/>
		<polyline class="st12" points="287.9,159.6 283.8,155.4 283.8,139 287.9,142.8 292.1,139 292.1,155.4 287.9,159.6 		"/>
		<polyline class="st12" points="287.9,165.5 279.2,157.6 274.2,162.3 		"/>
	</g>
	<g>
		<polyline class="st12" points="180.3,281.7 191.5,271.3 196.6,276.6 		"/>
		<line class="st12" x1="180.3" y1="247" x2="180.3" y2="292"/>
		<polyline class="st12" points="184.8,262.6 180.3,266.6 175.9,262.6 		"/>
		<polyline class="st12" points="184.8,256.8 180.3,260.8 175.9,256.8 		"/>
		<polyline class="st12" points="180.3,272.6 175.9,268.1 175.9,250.8 180.3,254.8 184.8,250.8 184.8,268.1 180.3,272.6 		"/>
		<polyline class="st12" points="180.3,278.9 171.1,270.5 165.8,275.4 		"/>
	</g>
	<g>
		<g>
			<polyline class="st12" points="150.6,294 154,294.2 157.6,288.6 164,284.2 171.3,286.4 178.9,292.1 183.6,291.6 187.4,289.5 
				192.4,294 195.5,294.1 			"/>
			<g>
				<polygon class="st19" points="194.5,297 199.8,294.2 194.7,291.1 				"/>
			</g>
		</g>
	</g>
	<circle class="st12" cx="165.3" cy="291.2" r="2.2"/>
</g>
</svg>
