<svg id="Layer_1" data-name="Layer 1" xmlns="http://www.w3.org/2000/svg" viewBox="0 0 1239 404"><defs><style>.cls-4,.cls-6{fill:none;stroke-miterlimit:10;stroke-width:3px}.cls-3{fill:#ece1ce}.cls-4{stroke:#eac8a5}.cls-5{fill:#2f1113}.cls-6{stroke:#2f1113}</style></defs><path fill="#eac8a5" d="M415.51 0v404h407.97V.09L415.51 0z"/><path stroke="#df9926" fill="none" stroke-miterlimit="10" stroke-width="3" d="M434.61 170.99l369.77 1.14"/><path class="cls-3" d="M830.64.11v403.8h407.97V0L830.64.11z"/><path class="cls-4" d="M849.74 170.99l369.77-.06"/><path class="cls-3" d="M.38 0v404h407.97V.09L.38 0z"/><path class="cls-4" d="M19.48 170.99l369.77-.06"/><path class="cls-5" d="M119.46 98.59A11.48 11.48 0 0 0 125 100c2.68 0 4.17-1.25 4.17-3.11s-1.15-2.74-4.07-3.79c-3.75-1.35-6.15-3.35-6.15-6.63 0-3.73 3.11-6.57 8-6.57a12 12 0 0 1 5.48 1.15l-1 3.35a9.69 9.69 0 0 0-4.54-1.08c-2.64 0-3.79 1.42-3.79 2.74 0 1.76 1.32 2.57 4.37 3.76 4 1.49 5.89 3.48 5.89 6.77 0 3.65-2.78 6.83-8.67 6.83a13.49 13.49 0 0 1-6.16-1.42zM141.59 81.94v4.7h4v3.12h-4V97c0 2 .55 3 2.14 3a6.19 6.19 0 0 0 1.62-.2l.07 3.18a9.36 9.36 0 0 1-3 .4 4.8 4.8 0 0 1-3.59-1.35c-.88-1-1.29-2.44-1.29-4.6v-7.67h-2.37v-3.12h2.37v-3.72zM148.7 92c0-2.24 0-3.83-.13-5.32h3.62l.14 3.15h.13a4.91 4.91 0 0 1 4.5-3.52 4.22 4.22 0 0 1 1 .1v3.89a5.62 5.62 0 0 0-1.22-.14 3.67 3.67 0 0 0-3.74 3.15 6.94 6.94 0 0 0-.13 1.29v8.52h-4.17zM169.72 103.12l-.27-1.82h-.1a6.13 6.13 0 0 1-4.87 2.2 4.9 4.9 0 0 1-5.18-4.91c0-4.16 3.69-6.26 9.78-6.23v-.27c0-1.08-.44-2.88-3.35-2.88a8.72 8.72 0 0 0-4.43 1.22l-.82-2.71a11.93 11.93 0 0 1 6-1.45c5.28 0 6.8 3.35 6.8 6.94v6a26.23 26.23 0 0 0 .24 4zm-.54-8.05c-2.94-.07-5.75.57-5.75 3.08a2.19 2.19 0 0 0 2.37 2.37 3.39 3.39 0 0 0 3.25-2.27 3 3 0 0 0 .13-.91zM182.22 81.94v4.7h4v3.12h-4V97c0 2 .54 3 2.13 3a6.19 6.19 0 0 0 1.62-.2l.07 3.18a9.36 9.36 0 0 1-3 .4 4.8 4.8 0 0 1-3.59-1.35c-.88-1-1.29-2.44-1.29-4.6v-7.67h-2.36v-3.12h2.36v-3.72zM192.07 96.05c.1 3 2.43 4.27 5.07 4.27a12.45 12.45 0 0 0 4.57-.75l.61 2.88a15.61 15.61 0 0 1-5.75 1c-5.35 0-8.5-3.28-8.5-8.32 0-4.57 2.78-8.87 8.06-8.87s7.11 4.4 7.11 8a9.88 9.88 0 0 1-.14 1.76zm7.24-2.91c0-1.52-.64-4-3.42-4-2.57 0-3.65 2.34-3.82 4zM221.65 86.64c-.07 1.12-.14 2.47-.14 4.74v9.34c0 3.45-.71 5.92-2.43 7.48a9.52 9.52 0 0 1-6.37 2 11.67 11.67 0 0 1-5.75-1.32l.92-3.15a9.88 9.88 0 0 0 4.8 1.25c2.71 0 4.74-1.42 4.74-5v-1.42h-.07a5.57 5.57 0 0 1-4.8 2.43c-4.1 0-7-3.38-7-8 0-5.42 3.52-8.7 7.48-8.7a5.2 5.2 0 0 1 4.77 2.57h.07l.17-2.2zm-4.3 6.6a4 4 0 0 0-.13-1.11 3.46 3.46 0 0 0-3.39-2.68c-2.33 0-4.06 2-4.06 5.38 0 2.81 1.42 5.08 4 5.08a3.56 3.56 0 0 0 3.38-2.51 7.22 7.22 0 0 0 .17-1.48zM228.59 86.64l3 8.84c.34 1 .68 2.26.91 3.21h.11c.27-1 .57-2.17.88-3.25l2.57-8.8h4.46l-4.12 11.24c-2.27 6.16-3.79 8.9-5.76 10.59a8.26 8.26 0 0 1-4.36 2.13l-.95-3.52a7 7 0 0 0 2.44-1.15 7.25 7.25 0 0 0 2.26-2.6 1.67 1.67 0 0 0 .27-.75 1.77 1.77 0 0 0-.23-.81l-6-15.13zM560.56 80.62a36 36 0 0 1 6.36-.48c3.05 0 5.28.65 6.74 1.86a6.48 6.48 0 0 1 2.23 5 7 7 0 0 1-2 5.18c-1.66 1.65-4.27 2.43-7.21 2.43a11.91 11.91 0 0 1-2-.13v8.59h-4.13zm4.13 10.63a8.69 8.69 0 0 0 2 .16c3.11 0 5-1.52 5-4.19s-1.76-3.89-4.64-3.89a11.64 11.64 0 0 0-2.4.2zM581.41 96.05c.1 3 2.44 4.27 5.08 4.27a12.39 12.39 0 0 0 4.56-.75l.61 2.88a15.61 15.61 0 0 1-5.75 1c-5.35 0-8.49-3.28-8.49-8.32 0-4.57 2.77-8.87 8.05-8.87s7.11 4.4 7.11 8a9.88 9.88 0 0 1-.14 1.76zm7.24-2.91c0-1.52-.64-4-3.42-4-2.57 0-3.65 2.34-3.82 4zM595.93 92c0-2.24 0-3.83-.13-5.32h3.62l.13 3.15h.14a4.91 4.91 0 0 1 4.5-3.52 4.22 4.22 0 0 1 1 .1v3.89a5.62 5.62 0 0 0-1.22-.14 3.67 3.67 0 0 0-3.72 3.15 6.88 6.88 0 0 0-.14 1.29v8.52h-4.16zM609.4 103.12V89.76h-2.23v-3.12h2.23v-.71a7.72 7.72 0 0 1 2-5.62 6.31 6.31 0 0 1 4.3-1.59 7.92 7.92 0 0 1 2.67.41l-.3 3.21a4.85 4.85 0 0 0-1.76-.3c-2.07 0-2.78 1.73-2.78 3.76v.84h3.62v3.12h-3.58v13.36zM635 94.73c0 6.06-4.27 8.77-8.46 8.77-4.67 0-8.26-3.22-8.26-8.5s3.55-8.73 8.53-8.73 8.19 3.45 8.19 8.46zm-12.42.17c0 3.18 1.55 5.58 4.09 5.58 2.37 0 4-2.33 4-5.65 0-2.57-1.15-5.51-4-5.51s-4.06 2.84-4.06 5.58zM638.45 92c0-2.24 0-3.83-.14-5.32h3.62l.14 3.15h.14a4.91 4.91 0 0 1 4.5-3.52 4.28 4.28 0 0 1 1 .1v3.89a5.62 5.62 0 0 0-1.22-.14 3.67 3.67 0 0 0-3.72 3.15 6.88 6.88 0 0 0-.14 1.29v8.52h-4.16zM650.5 91.55c0-1.9 0-3.49-.14-4.91H654l.17 2.44h.1a5.69 5.69 0 0 1 5.08-2.81 4.76 4.76 0 0 1 4.57 3h.07a6.1 6.1 0 0 1 2-2.07 5.5 5.5 0 0 1 3.31-1c2.74 0 5.52 1.86 5.52 7.14v9.71h-4.06V94c0-2.74-1-4.37-3-4.37a3.18 3.18 0 0 0-2.91 2.2 6.13 6.13 0 0 0-.2 1.39v9.88h-4.06v-9.52c0-2.3-.91-3.93-2.84-3.93a3.25 3.25 0 0 0-3 2.37 3.57 3.57 0 0 0-.24 1.36v9.74h-4.01zM688.48 103.12l-.27-1.82h-.1a6.16 6.16 0 0 1-4.88 2.2 4.9 4.9 0 0 1-5.18-4.91c0-4.16 3.69-6.26 9.78-6.23v-.27c0-1.08-.43-2.88-3.35-2.88a8.75 8.75 0 0 0-4.43 1.22l-.81-2.71a11.93 11.93 0 0 1 6-1.45c5.27 0 6.8 3.35 6.8 6.94v6a26.23 26.23 0 0 0 .24 4zm-.54-8.05c-3-.07-5.76.57-5.76 3.08a2.19 2.19 0 0 0 2.37 2.37 3.38 3.38 0 0 0 3.25-2.27 3 3 0 0 0 .14-.91zM696.4 91.55c0-1.9 0-3.49-.13-4.91h3.65l.2 2.47h.11a5.94 5.94 0 0 1 5.24-2.84c2.88 0 5.86 1.86 5.86 7.07v9.78h-4.17v-9.3c0-2.37-.88-4.17-3.14-4.17a3.5 3.5 0 0 0-3.25 2.44 4.1 4.1 0 0 0-.17 1.35v9.68h-4.2zM727.88 102.62a12.2 12.2 0 0 1-4.67.84c-5.14 0-8.5-3.28-8.5-8.39 0-4.94 3.39-8.8 9.18-8.8a10.33 10.33 0 0 1 4 .78l-.74 3.11a7.43 7.43 0 0 0-3.15-.64c-3.18 0-5.07 2.33-5 5.35 0 3.38 2.2 5.31 5 5.31a8.08 8.08 0 0 0 3.28-.64zM733.6 96.05c.1 3 2.44 4.27 5.08 4.27a12.45 12.45 0 0 0 4.57-.75l.61 2.88a15.67 15.67 0 0 1-5.76 1c-5.34 0-8.49-3.28-8.49-8.32 0-4.57 2.77-8.87 8-8.87s7.11 4.4 7.11 8a11.21 11.21 0 0 1-.13 1.76zm7.25-2.91c0-1.52-.65-4-3.42-4-2.57 0-3.66 2.34-3.83 4zM970.9 85.73a14.52 14.52 0 0 1-5.88 1c-7.25 0-11.65-4.53-11.65-11.47 0-7.52 5.22-12 12.19-12a13.1 13.1 0 0 1 5.55 1l-.92 3.31a11.12 11.12 0 0 0-4.46-.88c-4.64 0-8 2.91-8 8.4 0 5 2.94 8.22 8 8.22a11.67 11.67 0 0 0 4.54-.85zM988.51 81.46c0 2 .07 3.59.13 4.94H985l-.2-2.5h-.07a6 6 0 0 1-5.28 2.88c-3 0-5.76-1.8-5.76-7.18v-9.68h4.17v9c0 2.74.88 4.5 3.08 4.5a3.51 3.51 0 0 0 3.18-2.23 3.9 3.9 0 0 0 .24-1.29v-10h4.16zM992.81 82.58a9.36 9.36 0 0 0 4.19 1.18c1.83 0 2.64-.74 2.64-1.82s-.68-1.7-2.71-2.41c-3.21-1.11-4.57-2.87-4.53-4.8 0-2.91 2.4-5.18 6.23-5.18a9.66 9.66 0 0 1 4.36 1l-.81 2.94a7.48 7.48 0 0 0-3.49-.94c-1.49 0-2.3.71-2.3 1.72s.78 1.56 2.88 2.3c3 1.09 4.36 2.61 4.4 5 0 3-2.34 5.14-6.7 5.14a10.6 10.6 0 0 1-5-1.15zM1011.9 65.22v4.7h4V73h-4v7.27c0 2 .54 3 2.13 3a5.8 5.8 0 0 0 1.63-.21l.06 3.19a9.31 9.31 0 0 1-3 .4 4.81 4.81 0 0 1-3.58-1.35c-.88-1-1.29-2.44-1.29-4.6V73h-2.37v-3.08h2.37V66.2zM1034.48 78c0 6.06-4.27 8.77-8.46 8.77-4.67 0-8.26-3.22-8.26-8.5s3.55-8.73 8.53-8.73 8.19 3.46 8.19 8.46zm-12.42.17c0 3.18 1.55 5.58 4.09 5.58 2.37 0 4-2.33 4-5.65 0-2.57-1.15-5.52-4-5.52s-4.09 2.86-4.09 5.6zM1037.9 74.83c0-1.9 0-3.49-.14-4.91h3.59l.17 2.44h.1a5.69 5.69 0 0 1 5.08-2.81 4.75 4.75 0 0 1 4.57 3h.06a6.28 6.28 0 0 1 2-2.06 5.5 5.5 0 0 1 3.31-1c2.74 0 5.52 1.86 5.52 7.14v9.77h-4.06v-9.1c0-2.74-1-4.37-3-4.37a3.18 3.18 0 0 0-2.91 2.2 6.13 6.13 0 0 0-.2 1.39v9.88H1048v-9.54c0-2.3-.92-3.93-2.84-3.93a3.25 3.25 0 0 0-3 2.37 3.57 3.57 0 0 0-.24 1.36v9.74h-4.06zM1069.55 79.33c.1 3 2.44 4.26 5.08 4.26a12.54 12.54 0 0 0 4.57-.74l.6 2.88a15.61 15.61 0 0 1-5.75 1c-5.35 0-8.49-3.28-8.49-8.32 0-4.57 2.77-8.87 8-8.87s7.11 4.4 7.11 8a9.88 9.88 0 0 1-.14 1.76zm7.24-2.91c0-1.52-.64-4-3.42-4-2.57 0-3.65 2.34-3.82 4zM1084.07 75.23c0-2.23 0-3.82-.13-5.31h3.62l.13 3.15h.14a4.91 4.91 0 0 1 4.5-3.52 4.22 4.22 0 0 1 1 .1v3.93a5.62 5.62 0 0 0-1.22-.14 3.67 3.67 0 0 0-3.72 3.15 6.88 6.88 0 0 0-.14 1.29v8.52h-4.16zM957.33 113.18c.1 3 2.44 4.27 5.08 4.27a12.45 12.45 0 0 0 4.57-.75l.61 2.88a15.67 15.67 0 0 1-5.76 1c-5.34 0-8.49-3.28-8.49-8.32 0-4.57 2.78-8.87 8-8.87s7.11 4.4 7.11 8a11.21 11.21 0 0 1-.13 1.76zm7.25-2.91c0-1.52-.65-4-3.42-4-2.57 0-3.66 2.34-3.83 4zM971.86 108.68c0-1.89 0-3.49-.14-4.91h3.66l.2 2.47h.1a6 6 0 0 1 5.25-2.84c2.87 0 5.85 1.86 5.85 7.07v9.78h-4.16V111c0-2.37-.88-4.16-3.15-4.16a3.49 3.49 0 0 0-3.25 2.43 4.41 4.41 0 0 0-.17 1.36v9.67h-4.19zM1006.28 103.77c-.07 1.12-.14 2.47-.14 4.74v9.34c0 3.45-.71 5.92-2.43 7.48a9.52 9.52 0 0 1-6.37 2 11.67 11.67 0 0 1-5.75-1.32l.91-3.15a10 10 0 0 0 4.81 1.25c2.71 0 4.74-1.42 4.74-5v-1.42h-.05a5.58 5.58 0 0 1-4.81 2.43c-4.09 0-7-3.38-7-8.05 0-5.42 3.52-8.7 7.48-8.7a5.2 5.2 0 0 1 4.77 2.57h.07l.17-2.2zm-4.3 6.6a4 4 0 0 0-.13-1.11 3.46 3.46 0 0 0-3.39-2.68c-2.33 0-4.06 2-4.06 5.38 0 2.81 1.42 5.08 4 5.08a3.56 3.56 0 0 0 3.38-2.5 7.31 7.31 0 0 0 .17-1.49zM1019.89 120.25l-.27-1.82h-.1a6.16 6.16 0 0 1-4.88 2.2 4.9 4.9 0 0 1-5.18-4.91c0-4.16 3.69-6.26 9.79-6.23v-.27c0-1.08-.44-2.88-3.36-2.88a8.75 8.75 0 0 0-4.43 1.22l-.81-2.7a11.81 11.81 0 0 1 6-1.46c5.27 0 6.8 3.35 6.8 6.94v6a27.78 27.78 0 0 0 .23 4zm-.54-8c-3-.07-5.76.58-5.76 3.08a2.19 2.19 0 0 0 2.37 2.37 3.36 3.36 0 0 0 3.25-2.27 3 3 0 0 0 .14-.91zM1042.87 103.77c-.07 1.12-.13 2.47-.13 4.74v9.34c0 3.45-.71 5.92-2.44 7.48a9.49 9.49 0 0 1-6.36 2 11.71 11.71 0 0 1-5.76-1.32l.92-3.15a9.94 9.94 0 0 0 4.8 1.25c2.71 0 4.74-1.42 4.74-5v-1.42h-.07a5.56 5.56 0 0 1-4.8 2.43c-4.1 0-7-3.38-7-8.05 0-5.42 3.52-8.7 7.48-8.7A5.17 5.17 0 0 1 1039 106h.07l.17-2.2zm-4.3 6.6a4 4 0 0 0-.13-1.11 3.46 3.46 0 0 0-3.39-2.68c-2.33 0-4.06 2-4.06 5.38 0 2.81 1.42 5.08 4 5.08a3.55 3.55 0 0 0 3.38-2.5 6.67 6.67 0 0 0 .17-1.49zM1050.15 113.18c.1 3 2.44 4.27 5.08 4.27a12.45 12.45 0 0 0 4.57-.75l.61 2.88a15.67 15.67 0 0 1-5.76 1c-5.34 0-8.49-3.28-8.49-8.32 0-4.57 2.77-8.87 8-8.87s7.11 4.4 7.11 8a11.21 11.21 0 0 1-.13 1.76zm7.25-2.91c0-1.52-.65-4-3.42-4-2.58 0-3.66 2.34-3.83 4zM1064.67 108.68c0-1.89 0-3.49-.13-4.91h3.59l.17 2.44h.1a5.69 5.69 0 0 1 5.07-2.81 4.75 4.75 0 0 1 4.57 3h.07a6.29 6.29 0 0 1 2-2.07 5.53 5.53 0 0 1 3.32-1c2.74 0 5.51 1.86 5.51 7.14v9.71h-4.06v-9.1c0-2.74-.94-4.36-2.94-4.36a3.17 3.17 0 0 0-2.91 2.19 6.13 6.13 0 0 0-.2 1.39v9.88h-4.07v-9.54c0-2.3-.91-3.92-2.84-3.92a3.25 3.25 0 0 0-3 2.36 3.57 3.57 0 0 0-.23 1.36v9.74h-4.07zM1096.33 113.18c.1 3 2.43 4.27 5.07 4.27a12.45 12.45 0 0 0 4.57-.75l.61 2.88a15.61 15.61 0 0 1-5.75 1c-5.35 0-8.5-3.28-8.5-8.32 0-4.57 2.78-8.87 8.06-8.87s7.1 4.4 7.1 8a10.09 10.09 0 0 1-.13 1.76zm7.24-2.91c0-1.52-.65-4-3.42-4-2.57 0-3.66 2.34-3.82 4zM1110.85 108.68c0-1.89 0-3.49-.14-4.91h3.66l.2 2.47h.1a6 6 0 0 1 5.25-2.84c2.87 0 5.85 1.86 5.85 7.07v9.78h-4.16V111c0-2.37-.88-4.16-3.15-4.16a3.49 3.49 0 0 0-3.25 2.43 4.41 4.41 0 0 0-.17 1.36v9.67h-4.19zM1134.81 99.07v4.7h4v3.12h-4v7.27c0 2 .54 3 2.14 3a6.19 6.19 0 0 0 1.62-.2l.07 3.18a9.36 9.36 0 0 1-3 .4 4.8 4.8 0 0 1-3.59-1.35c-.88-.95-1.29-2.44-1.29-4.6v-7.75h-2.37v-3.12h2.37V100zM77.08 206.94a21.8 21.8 0 0 1 4-.35c2.21 0 3.63.38 4.7 1.24a3.59 3.59 0 0 1 1.42 3 4.07 4.07 0 0 1-2.89 3.76 4.42 4.42 0 0 1 3.57 4.41 4.62 4.62 0 0 1-1.45 3.43c-1.19 1.09-3.12 1.6-5.92 1.6a26.35 26.35 0 0 1-3.43-.2zm2.21 7h2c2.34 0 3.71-1.22 3.71-2.87 0-2-1.53-2.79-3.76-2.79a10.08 10.08 0 0 0-2 .15zm0 8.2a11.51 11.51 0 0 0 1.86.1c2.28 0 4.39-.83 4.39-3.32s-2-3.3-4.42-3.3h-1.83zM101.05 220.48c0 1.27 0 2.38.1 3.35h-2l-.12-2a4.64 4.64 0 0 1-4.07 2.29c-1.93 0-4.24-1.07-4.24-5.39v-7.18h2.24v6.8c0 2.34.71 3.91 2.74 3.91a3.24 3.24 0 0 0 3-2 3.4 3.4 0 0 0 .2-1.14v-7.54h2.23zM104.45 221.54a5.88 5.88 0 0 0 3 .89c1.62 0 2.39-.81 2.39-1.83s-.64-1.65-2.29-2.26c-2.21-.78-3.25-2-3.25-3.47 0-2 1.6-3.61 4.24-3.61a6.16 6.16 0 0 1 3 .76l-.56 1.63a4.72 4.72 0 0 0-2.51-.71c-1.32 0-2.06.76-2.06 1.67s.74 1.47 2.34 2.08c2.13.82 3.22 1.88 3.22 3.71 0 2.16-1.67 3.68-4.59 3.68a7 7 0 0 1-3.45-.84zM117.3 208.09a1.31 1.31 0 0 1-1.42 1.37 1.33 1.33 0 0 1-1.35-1.37 1.37 1.37 0 0 1 1.4-1.4 1.33 1.33 0 0 1 1.37 1.4zm-2.49 15.74v-12.29h2.24v12.29zM120.75 214.87c0-1.27 0-2.32-.1-3.33h2l.13 2a4.51 4.51 0 0 1 4.06-2.31c1.7 0 4.34 1 4.34 5.23v7.34H129v-7.09c0-2-.74-3.63-2.84-3.63a3.17 3.17 0 0 0-3 2.29 3.26 3.26 0 0 0-.15 1v7.39h-2.24zM136.09 218.09c0 3 2 4.27 4.21 4.27a8 8 0 0 0 3.41-.64l.38 1.6a9.93 9.93 0 0 1-4.09.76c-3.79 0-6-2.49-6-6.19s2.18-6.63 5.76-6.63c4 0 5.08 3.53 5.08 5.79a7.43 7.43 0 0 1-.08 1zm6.55-1.6c0-1.42-.59-3.63-3.1-3.63-2.26 0-3.25 2.08-3.43 3.63zM147.26 221.54a5.87 5.87 0 0 0 2.94.89c1.63 0 2.39-.81 2.39-1.83s-.63-1.65-2.28-2.26c-2.21-.78-3.25-2-3.25-3.47 0-2 1.6-3.61 4.24-3.61a6.22 6.22 0 0 1 3 .76l-.56 1.63a4.72 4.72 0 0 0-2.51-.71c-1.33 0-2.06.76-2.06 1.67s.73 1.47 2.33 2.08c2.14.82 3.23 1.88 3.23 3.71 0 2.16-1.68 3.68-4.6 3.68a7 7 0 0 1-3.45-.84zM157.31 221.54a5.88 5.88 0 0 0 2.95.89c1.62 0 2.38-.81 2.38-1.83s-.63-1.65-2.28-2.26c-2.21-.78-3.25-2-3.25-3.47 0-2 1.6-3.61 4.24-3.61a6.19 6.19 0 0 1 3 .76l-.56 1.63a4.72 4.72 0 0 0-2.51-.71c-1.32 0-2.06.76-2.06 1.67s.74 1.47 2.34 2.08c2.13.82 3.22 1.88 3.22 3.71 0 2.16-1.67 3.68-4.59 3.68a7 7 0 0 1-3.46-.84zM173.05 215.55c0-1.57-.05-2.84-.1-4h2l.1 2.11h.05a4.83 4.83 0 0 1 4.37-2.39c3 0 5.2 2.51 5.2 6.25 0 4.41-2.69 6.6-5.58 6.6a4.32 4.32 0 0 1-3.79-1.93h-.05v6.68h-2.21zm2.21 3.28a5.07 5.07 0 0 0 .1.91 3.46 3.46 0 0 0 3.35 2.62c2.37 0 3.74-1.93 3.74-4.75 0-2.47-1.3-4.57-3.66-4.57a3.58 3.58 0 0 0-3.38 2.76 3.93 3.93 0 0 0-.15.92zM187.5 205.8h2.23v18h-2.23zM200.29 223.83l-.17-1.55H200a4.61 4.61 0 0 1-3.76 1.83 3.5 3.5 0 0 1-3.76-3.53c0-3 2.65-4.6 7.39-4.57v-.26a2.53 2.53 0 0 0-2.79-2.84 6.2 6.2 0 0 0-3.2.91l-.51-1.47a7.65 7.65 0 0 1 4-1.09c3.76 0 4.67 2.56 4.67 5v4.59a16.55 16.55 0 0 0 .21 3zm-.33-6.27c-2.43-.05-5.2.38-5.2 2.76a2 2 0 0 0 2.11 2.14 3.06 3.06 0 0 0 3-2.06 2.52 2.52 0 0 0 .12-.71zM205.73 214.87c0-1.27 0-2.32-.1-3.33h2l.12 2h.05a4.52 4.52 0 0 1 4.07-2.31c1.7 0 4.34 1 4.34 5.23v7.34H214v-7.09c0-2-.73-3.63-2.84-3.63a3.18 3.18 0 0 0-3 2.29 3.26 3.26 0 0 0-.15 1v7.39h-2.23zM219.82 214.87c0-1.27 0-2.32-.1-3.33h2l.12 2h.05a4.53 4.53 0 0 1 4.07-2.31c1.7 0 4.34 1 4.34 5.23v7.34H228v-7.09c0-2-.73-3.63-2.84-3.63a3.18 3.18 0 0 0-3 2.29 3.26 3.26 0 0 0-.15 1v7.39h-2.23zM236.4 208.09a1.39 1.39 0 0 1-2.77 0 1.36 1.36 0 0 1 1.4-1.4 1.33 1.33 0 0 1 1.37 1.4zm-2.49 15.74v-12.29h2.23v12.29zM239.85 214.87c0-1.27 0-2.32-.1-3.33h2l.12 2h.06a4.5 4.5 0 0 1 4.06-2.31c1.7 0 4.34 1 4.34 5.23v7.34h-2.23v-7.09c0-2-.74-3.63-2.85-3.63a3.17 3.17 0 0 0-3 2.29 3 3 0 0 0-.16 1v7.39h-2.23zM264.53 211.54c0 .89-.1 1.88-.1 3.38v7.13c0 2.82-.56 4.55-1.76 5.61a6.49 6.49 0 0 1-4.46 1.47 7.92 7.92 0 0 1-4.09-1l.56-1.7a6.89 6.89 0 0 0 3.6 1c2.29 0 4-1.19 4-4.29v-1.37h-.05a4.38 4.38 0 0 1-3.91 2.06c-3 0-5.23-2.59-5.23-6 0-4.17 2.72-6.53 5.54-6.53a4.09 4.09 0 0 1 3.83 2.13h.05l.1-1.85zm-2.31 4.85a3.28 3.28 0 0 0-.13-1A3.23 3.23 0 0 0 259 213c-2.14 0-3.66 1.8-3.66 4.65 0 2.41 1.22 4.42 3.63 4.42a3.27 3.27 0 0 0 3.1-2.29 3.78 3.78 0 0 0 .18-1.19zM77.08 262.1h9.22v1.9h-7v5.68h6.48v1.83h-6.49v7.75h-2.21zM88.94 261.19h2.24v18h-2.24zM96.18 273.48c0 3 2 4.26 4.21 4.26a8.14 8.14 0 0 0 3.4-.63l.38 1.6a10 10 0 0 1-4.08.76c-3.79 0-6-2.49-6-6.19s2.19-6.63 5.77-6.63c4 0 5.08 3.53 5.08 5.79a9.62 9.62 0 0 1-.08 1zm6.55-1.6c0-1.42-.59-3.63-3.1-3.63-2.26 0-3.25 2.08-3.43 3.63zM108.9 273.48c0 3 2 4.26 4.21 4.26a8.14 8.14 0 0 0 3.4-.63l.38 1.6a10 10 0 0 1-4.08.76c-3.79 0-6-2.49-6-6.19s2.19-6.63 5.77-6.63c4 0 5.08 3.53 5.08 5.79a9.62 9.62 0 0 1-.08 1zm6.55-1.6c0-1.42-.59-3.63-3.1-3.63-2.26 0-3.25 2.08-3.43 3.63zM123.06 263.4v3.53h3.2v1.7h-3.2v6.63c0 1.52.44 2.38 1.68 2.38a4.81 4.81 0 0 0 1.29-.15l.11 1.68a5.71 5.71 0 0 1-2 .3 3.11 3.11 0 0 1-2.42-.94 4.57 4.57 0 0 1-.86-3.2v-6.7H119v-1.7h1.9V264zM134.16 270.94c0-1.57 0-2.84-.1-4h2l.1 2.11h.05a4.85 4.85 0 0 1 4.37-2.39c3 0 5.21 2.51 5.21 6.24 0 4.42-2.7 6.61-5.59 6.61a4.3 4.3 0 0 1-3.78-1.93v6.67h-2.21zm2.21 3.27a5.18 5.18 0 0 0 .1.92 3.43 3.43 0 0 0 3.35 2.61c2.36 0 3.73-1.93 3.73-4.74 0-2.47-1.29-4.57-3.65-4.57a3.56 3.56 0 0 0-3.38 2.76 3.47 3.47 0 0 0-.15.92zM148.6 261.19h2.24v18h-2.24zM161.4 279.22l-.18-1.55h-.08a4.57 4.57 0 0 1-3.75 1.83 3.51 3.51 0 0 1-3.76-3.53c0-3 2.64-4.6 7.39-4.57v-.26a2.54 2.54 0 0 0-2.8-2.84 6.07 6.07 0 0 0-3.19.91l-.51-1.47a7.61 7.61 0 0 1 4-1.09c3.76 0 4.68 2.56 4.68 5v4.59a17.62 17.62 0 0 0 .2 3zm-.33-6.27c-2.44-.06-5.21.38-5.21 2.76a2 2 0 0 0 2.11 2.14 3.05 3.05 0 0 0 3-2.06 2.22 2.22 0 0 0 .13-.71zM166.83 270.25c0-1.27 0-2.31-.1-3.32h2l.13 2a4.51 4.51 0 0 1 4.06-2.31c1.7 0 4.34 1 4.34 5.23v7.34h-2.23v-7.09c0-2-.74-3.63-2.85-3.63a3.17 3.17 0 0 0-3 2.29 3.26 3.26 0 0 0-.15 1v7.39h-2.24zM180.92 270.25c0-1.27 0-2.31-.1-3.32h2l.13 2a4.51 4.51 0 0 1 4.06-2.31c1.7 0 4.34 1 4.34 5.23v7.34h-2.23v-7.09c0-2-.74-3.63-2.85-3.63a3.17 3.17 0 0 0-3 2.29 3.26 3.26 0 0 0-.15 1v7.39h-2.24zM197.5 263.47a1.32 1.32 0 0 1-1.42 1.38 1.33 1.33 0 0 1-1.35-1.38 1.36 1.36 0 0 1 1.4-1.39 1.32 1.32 0 0 1 1.37 1.39zm-2.5 15.75v-12.29h2.24v12.29zM201 270.25c0-1.27 0-2.31-.1-3.32h2l.13 2a4.51 4.51 0 0 1 4.06-2.31c1.7 0 4.34 1 4.34 5.23v7.34h-2.23v-7.09c0-2-.74-3.63-2.84-3.63a3.17 3.17 0 0 0-3 2.29 3.26 3.26 0 0 0-.15 1v7.39H201zM225.63 266.93c0 .89-.1 1.88-.1 3.37v7.14c0 2.82-.56 4.54-1.75 5.61a6.51 6.51 0 0 1-4.47 1.47 8 8 0 0 1-4.09-1l.56-1.7a7 7 0 0 0 3.61 1c2.28 0 4-1.19 4-4.29v-1.37a4.4 4.4 0 0 1-3.91 2.06c-3 0-5.23-2.59-5.23-6 0-4.16 2.71-6.52 5.53-6.52a4.09 4.09 0 0 1 3.83 2.13h.06l.1-1.85zm-2.31 4.85a3 3 0 0 0-.13-1 3.21 3.21 0 0 0-3.12-2.36c-2.13 0-3.65 1.8-3.65 4.65 0 2.41 1.21 4.41 3.63 4.41a3.25 3.25 0 0 0 3.09-2.28 3.78 3.78 0 0 0 .18-1.19zM77.08 317.72a23 23 0 0 1 4.25-.35c2.36 0 3.88.43 5 1.39a4.27 4.27 0 0 1 1.29 3.24 4.5 4.5 0 0 1-3.22 4.37v.08c1.32.45 2.1 1.67 2.51 3.45a28.18 28.18 0 0 0 1.32 4.7H86a22.87 22.87 0 0 1-1.15-4.09c-.5-2.36-1.42-3.25-3.42-3.33h-2.14v7.42h-2.21zm2.21 7.8h2.26c2.37 0 3.86-1.3 3.86-3.25 0-2.21-1.6-3.18-3.93-3.2a9.3 9.3 0 0 0-2.19.2zM101.89 328.36c0 4.54-3.15 6.52-6.12 6.52-3.32 0-5.89-2.43-5.89-6.32 0-4.11 2.69-6.52 6.09-6.52s5.92 2.56 5.92 6.32zm-9.75.13c0 2.69 1.55 4.72 3.73 4.72s3.74-2 3.74-4.77c0-2.09-1-4.73-3.69-4.73s-3.78 2.44-3.78 4.78zM115 331.25c0 1.27 0 2.39.1 3.36h-2l-.12-2h-.06a4.6 4.6 0 0 1-4.06 2.28c-1.93 0-4.24-1.06-4.24-5.38v-7.18h2.24v6.8c0 2.34.71 3.91 2.74 3.91a3.16 3.16 0 0 0 3.15-3.17v-7.54H115zM121.39 318.79v3.53h3.2V324h-3.2v6.62c0 1.53.43 2.39 1.67 2.39a4.84 4.84 0 0 0 1.3-.15l.1 1.67a5.41 5.41 0 0 1-2 .31 3.09 3.09 0 0 1-2.41-.94 4.53 4.53 0 0 1-.86-3.2V324h-1.89v-1.7h1.91v-2.95zM128.19 328.87a3.93 3.93 0 0 0 4.22 4.26 8.17 8.17 0 0 0 3.4-.63l.38 1.6a10.06 10.06 0 0 1-4.09.76c-3.78 0-6-2.49-6-6.2s2.18-6.62 5.76-6.62c4 0 5.08 3.53 5.08 5.79a10.18 10.18 0 0 1-.07 1zm6.55-1.6c0-1.42-.58-3.63-3.09-3.63-2.26 0-3.25 2.08-3.43 3.63zM156.17 328.36c0 4.54-3.15 6.52-6.12 6.52-3.32 0-5.89-2.43-5.89-6.32 0-4.11 2.69-6.52 6.09-6.52s5.92 2.56 5.92 6.32zm-9.75.13c0 2.69 1.55 4.72 3.73 4.72s3.74-2 3.74-4.77c0-2.09-1-4.73-3.69-4.73s-3.78 2.44-3.78 4.78zM159 326.33c0-1.58-.05-2.85-.1-4h2l.1 2.1a4.86 4.86 0 0 1 4.37-2.38c3 0 5.21 2.51 5.21 6.24 0 4.42-2.69 6.6-5.59 6.6a4.31 4.31 0 0 1-3.78-1.92h-.05v6.67H159zm2.21 3.27a5.18 5.18 0 0 0 .1.92 3.44 3.44 0 0 0 3.35 2.61c2.36 0 3.73-1.93 3.73-4.75 0-2.46-1.29-4.57-3.65-4.57a3.57 3.57 0 0 0-3.38 2.77 3.47 3.47 0 0 0-.15.92zM176.13 318.79v3.53h3.19V324h-3.19v6.62c0 1.53.43 2.39 1.67 2.39a4.9 4.9 0 0 0 1.3-.15l.1 1.67a5.41 5.41 0 0 1-2 .31 3.12 3.12 0 0 1-2.42-.94 4.57 4.57 0 0 1-.86-3.2V324H172v-1.7h1.9v-2.95zM184.33 318.86a1.39 1.39 0 0 1-2.77 0 1.36 1.36 0 0 1 1.39-1.39 1.33 1.33 0 0 1 1.38 1.39zm-2.49 15.75v-12.29h2.23v12.29zM187.78 325.64c0-1.27 0-2.31-.1-3.32h1.95l.1 2h.08a4.23 4.23 0 0 1 3.86-2.26 3.64 3.64 0 0 1 3.48 2.46 5 5 0 0 1 1.37-1.6 4.18 4.18 0 0 1 2.72-.86c1.62 0 4 1.06 4 5.33v7.24h-2.18v-7c0-2.36-.86-3.78-2.67-3.78a2.88 2.88 0 0 0-2.64 2 3.68 3.68 0 0 0-.18 1.11v7.6h-2.18v-7.37c0-1.95-.86-3.37-2.56-3.37a3 3 0 0 0-2.77 2.23 3 3 0 0 0-.18 1.09v7.42h-2.18zM211.44 318.86a1.39 1.39 0 0 1-2.77 0 1.36 1.36 0 0 1 1.4-1.39 1.32 1.32 0 0 1 1.37 1.39zM209 334.61v-12.29h2.24v12.29zM213.5 333.31l5.56-7.24c.53-.66 1-1.24 1.6-1.9v-.05H214v-1.8h9.37v1.39l-5.49 7.14c-.51.68-1 1.29-1.57 1.93v.05h7.18v1.78h-10zM232.56 334.61l-.18-1.55h-.07a4.6 4.6 0 0 1-3.76 1.82 3.5 3.5 0 0 1-3.76-3.52c0-3 2.64-4.6 7.39-4.57v-.26a2.53 2.53 0 0 0-2.79-2.84 6.11 6.11 0 0 0-3.2.91l-.51-1.47a7.65 7.65 0 0 1 4-1.09c3.76 0 4.67 2.56 4.67 5v4.6a17.62 17.62 0 0 0 .2 2.95zm-.33-6.28c-2.44-.05-5.2.38-5.2 2.77a2 2 0 0 0 2.1 2.13 3.07 3.07 0 0 0 3-2.05 2.52 2.52 0 0 0 .12-.71zM240.58 318.79v3.53h3.2V324h-3.2v6.62c0 1.53.44 2.39 1.68 2.39a4.9 4.9 0 0 0 1.3-.15l.1 1.67a5.41 5.41 0 0 1-2 .31 3.12 3.12 0 0 1-2.42-.94 4.57 4.57 0 0 1-.86-3.2V324h-1.9v-1.7h1.9v-2.95zM248.79 318.86a1.39 1.39 0 0 1-2.77 0 1.36 1.36 0 0 1 1.39-1.39 1.33 1.33 0 0 1 1.38 1.39zm-2.49 15.75v-12.29h2.23v12.29zM263.36 328.36c0 4.54-3.15 6.52-6.12 6.52-3.33 0-5.89-2.43-5.89-6.32 0-4.11 2.69-6.52 6.09-6.52s5.92 2.56 5.92 6.32zm-9.75.13c0 2.69 1.55 4.72 3.73 4.72s3.73-2 3.73-4.77c0-2.09-1-4.73-3.68-4.73s-3.78 2.44-3.78 4.78zM266.18 325.64c0-1.27 0-2.31-.11-3.32h2l.13 2h.05a4.51 4.51 0 0 1 4.06-2.31c1.71 0 4.35 1 4.35 5.23v7.34h-2.26v-7.09c0-2-.73-3.63-2.84-3.63a3.18 3.18 0 0 0-3 2.29 3.26 3.26 0 0 0-.15 1v7.39h-2.23z"/><circle class="cls-6" cx="41.78" cy="217" r="4.5"/><circle class="cls-6" cx="41.78" cy="272" r="4.5"/><circle class="cls-6" cx="41.76" cy="326.74" r="4.48"/><path class="cls-5" d="M493.88 223.83l-4.34-17.12h2.33l2 8.66c.51 2.14 1 4.27 1.27 5.92h.05c.28-1.7.82-3.73 1.4-5.94l2.29-8.64h2.31l2.08 8.69c.48 2 .94 4.06 1.19 5.86h.05c.36-1.88.84-3.78 1.37-5.91l2.26-8.64h2.26l-4.85 17.12h-2.31l-2.16-8.91a52.7 52.7 0 0 1-1.11-5.59h.03a56.34 56.34 0 0 1-1.32 5.59l-2.44 8.91zM522.77 217.58c0 4.55-3.15 6.53-6.12 6.53-3.32 0-5.89-2.44-5.89-6.32 0-4.12 2.69-6.53 6.09-6.53s5.92 2.56 5.92 6.32zm-9.75.13c0 2.69 1.55 4.72 3.73 4.72s3.74-2 3.74-4.77c0-2.08-1-4.72-3.69-4.72s-3.8 2.43-3.8 4.77zM525.59 215.37c0-1.44 0-2.69-.1-3.83h2l.08 2.41h.1a3.68 3.68 0 0 1 3.4-2.69 2.49 2.49 0 0 1 .64.08v2.1a3.49 3.49 0 0 0-.77-.07 3.13 3.13 0 0 0-3 2.87 6.33 6.33 0 0 0-.1 1v6.55h-2.21zM536.2 217.18c.31-.44.74-1 1.09-1.4l3.61-4.24h2.69l-4.75 5.05 5.41 7.24h-2.72l-4.24-5.89-1.14 1.27v4.62H534v-18h2.21zM546.13 223.83v-10.59h-1.73v-1.7h1.73V211a5.81 5.81 0 0 1 1.42-4.3 4.27 4.27 0 0 1 3-1.14 5.14 5.14 0 0 1 1.91.36l-.31 1.72a3.34 3.34 0 0 0-1.42-.28c-1.9 0-2.38 1.68-2.38 3.56v.66h3v1.7h-3v10.59zM564.1 217.58c0 4.55-3.14 6.53-6.12 6.53-3.32 0-5.89-2.44-5.89-6.32 0-4.12 2.7-6.53 6.1-6.53s5.91 2.56 5.91 6.32zm-9.75.13c0 2.69 1.55 4.72 3.74 4.72s3.73-2 3.73-4.77c0-2.08-1-4.72-3.68-4.72s-3.79 2.43-3.79 4.77zM566.92 215.37c0-1.44 0-2.69-.1-3.83h1.95l.08 2.41h.1a3.69 3.69 0 0 1 3.4-2.69 2.43 2.43 0 0 1 .64.08v2.1a3.45 3.45 0 0 0-.76-.07 3.13 3.13 0 0 0-3 2.87 6.33 6.33 0 0 0-.1 1v6.55h-2.21zM583.73 223.37a8.18 8.18 0 0 1-3.53.71c-3.71 0-6.12-2.51-6.12-6.27a6.24 6.24 0 0 1 6.6-6.52 7.57 7.57 0 0 1 3.1.63l-.51 1.73a5.1 5.1 0 0 0-2.59-.59c-2.82 0-4.34 2.08-4.34 4.65 0 2.84 1.83 4.59 4.27 4.59a6.51 6.51 0 0 0 2.74-.6zM587.43 218.09c.06 3 2 4.27 4.22 4.27a8 8 0 0 0 3.4-.64l.38 1.6a9.85 9.85 0 0 1-4.09.76c-3.78 0-6-2.49-6-6.19s2.19-6.63 5.77-6.63c4 0 5.07 3.53 5.07 5.79a10 10 0 0 1-.07 1zm6.56-1.6c0-1.42-.59-3.63-3.1-3.63-2.26 0-3.25 2.08-3.43 3.63zM605.54 218.09c.05 3 2 4.27 4.21 4.27a8 8 0 0 0 3.4-.64l.38 1.6a9.83 9.83 0 0 1-4.08.76c-3.79 0-6.05-2.49-6.05-6.19s2.19-6.63 5.77-6.63c4 0 5.08 3.53 5.08 5.79a9.4 9.4 0 0 1-.08 1zm6.55-1.6c0-1.42-.59-3.63-3.1-3.63-2.26 0-3.25 2.08-3.43 3.63zM632.4 208a4.88 4.88 0 0 0-2.49-.66c-2.36 0-3.07 1.65-3.07 3.61v.61H634v12.29h-2.24v-10.61h-4.9v10.59h-2.23v-10.59h-5.18v10.59h-2.21v-10.59h-1.73v-1.7h1.73v-.46a5.61 5.61 0 0 1 1.47-4.09 4.27 4.27 0 0 1 3.15-1.19 5.42 5.42 0 0 1 2.16.53l-.61 1.65a3.5 3.5 0 0 0-1.55-.43 2.1 2.1 0 0 0-1.6.66 4.31 4.31 0 0 0-.81 2.85v.48h5.18v-.66c0-3.25 1.93-5.36 5.38-5.36a6 6 0 0 1 3 .79zM646.46 223.37a8.14 8.14 0 0 1-3.53.71c-3.7 0-6.12-2.51-6.12-6.27a6.24 6.24 0 0 1 6.61-6.52 7.52 7.52 0 0 1 3.09.63l-.5 1.73a5.16 5.16 0 0 0-2.59-.59c-2.82 0-4.35 2.08-4.35 4.65 0 2.84 1.83 4.59 4.27 4.59a6.47 6.47 0 0 0 2.74-.6zM651.57 208.09a1.39 1.39 0 0 1-2.77 0 1.36 1.36 0 0 1 1.39-1.4 1.33 1.33 0 0 1 1.38 1.4zm-2.49 15.74v-12.29h2.23v12.29zM656.26 218.09c0 3 2 4.27 4.22 4.27a8 8 0 0 0 3.4-.64l.38 1.6a9.89 9.89 0 0 1-4.09.76c-3.78 0-6-2.49-6-6.19s2.18-6.63 5.76-6.63c4 0 5.08 3.53 5.08 5.79a7.43 7.43 0 0 1-.08 1zm6.55-1.6c0-1.42-.58-3.63-3.1-3.63-2.25 0-3.25 2.08-3.42 3.63zM667.74 214.87c0-1.27 0-2.32-.1-3.33h2l.12 2a4.53 4.53 0 0 1 4.07-2.31c1.7 0 4.34 1 4.34 5.23v7.34H676v-7.09c0-2-.73-3.63-2.84-3.63a3.18 3.18 0 0 0-3 2.29 3.26 3.26 0 0 0-.15 1v7.39h-2.23zM690.59 223.37a8.18 8.18 0 0 1-3.53.71c-3.71 0-6.12-2.51-6.12-6.27a6.24 6.24 0 0 1 6.6-6.52 7.57 7.57 0 0 1 3.1.63l-.51 1.73a5.1 5.1 0 0 0-2.59-.59c-2.82 0-4.34 2.08-4.34 4.65 0 2.84 1.83 4.59 4.26 4.59a6.57 6.57 0 0 0 2.75-.6zM694.47 211.54l2.69 7.26c.28.81.59 1.78.79 2.51.23-.73.48-1.67.79-2.56l2.44-7.21h2.36l-3.35 8.76c-1.6 4.21-2.7 6.37-4.22 7.69a6 6 0 0 1-2.74 1.45l-.56-1.88a5.88 5.88 0 0 0 1.95-1.09 6.7 6.7 0 0 0 1.88-2.49 1.48 1.48 0 0 0 .18-.53 2 2 0 0 0-.15-.59L692 211.54zM491.08 262.33a23 23 0 0 1 4.25-.35c2.36 0 3.88.43 4.95 1.39a4.27 4.27 0 0 1 1.34 3.25 4.5 4.5 0 0 1-3.22 4.38v.08c1.32.45 2.1 1.67 2.51 3.45a27.87 27.87 0 0 0 1.32 4.7H500a22.87 22.87 0 0 1-1.15-4.09c-.5-2.36-1.42-3.25-3.42-3.33h-2.09v7.42h-2.21zm2.21 7.8h2.26c2.37 0 3.86-1.3 3.86-3.25 0-2.21-1.6-3.18-3.93-3.2a9.3 9.3 0 0 0-2.19.2zM506 273.48a3.93 3.93 0 0 0 4.22 4.26 8.17 8.17 0 0 0 3.4-.63l.38 1.6a10.06 10.06 0 0 1-4.09.76c-3.78 0-6-2.49-6-6.19s2.18-6.63 5.76-6.63c4 0 5.08 3.53 5.08 5.79a10.18 10.18 0 0 1-.07 1zm6.55-1.6c0-1.42-.58-3.63-3.09-3.63-2.26 0-3.25 2.08-3.43 3.63zM517.18 276.93a5.88 5.88 0 0 0 3 .89c1.62 0 2.39-.81 2.39-1.83s-.64-1.65-2.29-2.26c-2.21-.78-3.25-2-3.25-3.48 0-2 1.6-3.6 4.24-3.6a6.05 6.05 0 0 1 3 .76l-.56 1.63a4.71 4.71 0 0 0-2.51-.72c-1.32 0-2.06.77-2.06 1.68s.74 1.47 2.34 2.08c2.13.81 3.22 1.88 3.22 3.71 0 2.16-1.67 3.68-4.59 3.68a7 7 0 0 1-3.45-.84zM538.66 273c0 4.55-3.14 6.53-6.12 6.53-3.32 0-5.89-2.44-5.89-6.33 0-4.11 2.7-6.52 6.1-6.52s5.91 2.53 5.91 6.32zm-9.75.13c0 2.69 1.55 4.72 3.74 4.72s3.73-2 3.73-4.77c0-2.09-1-4.73-3.68-4.73s-3.79 2.41-3.79 4.75zM551.76 275.87c0 1.26 0 2.38.11 3.35h-2l-.13-2a4.64 4.64 0 0 1-4.06 2.29c-1.93 0-4.24-1.07-4.24-5.39v-7.18h2.23v6.8c0 2.34.71 3.91 2.74 3.91a3.24 3.24 0 0 0 3-2 3.4 3.4 0 0 0 .2-1.14v-7.54h2.23zM555.47 270.76c0-1.45 0-2.69-.1-3.83h2l.08 2.41h.1a3.69 3.69 0 0 1 3.4-2.69 2.46 2.46 0 0 1 .64.07v2.11a3.45 3.45 0 0 0-.76-.07 3.13 3.13 0 0 0-3 2.87 6.33 6.33 0 0 0-.1 1v6.55h-2.21zM572.28 278.76a8.33 8.33 0 0 1-3.53.71c-3.71 0-6.12-2.51-6.12-6.27a6.25 6.25 0 0 1 6.6-6.53 7.39 7.39 0 0 1 3.1.64l-.51 1.73a5.1 5.1 0 0 0-2.59-.59c-2.82 0-4.34 2.08-4.34 4.65 0 2.84 1.83 4.59 4.27 4.59a6.38 6.38 0 0 0 2.74-.61zM576 273.48c.06 3 2 4.26 4.22 4.26a8.17 8.17 0 0 0 3.4-.63l.38 1.6a10 10 0 0 1-4.09.76c-3.78 0-6-2.49-6-6.19s2.19-6.63 5.77-6.63c4 0 5.07 3.53 5.07 5.79a10.18 10.18 0 0 1-.07 1zm6.56-1.6c0-1.42-.59-3.63-3.1-3.63-2.26 0-3.25 2.08-3.43 3.63zM603.13 275.87c0 1.26 0 2.38.1 3.35h-2l-.13-2a4.64 4.64 0 0 1-4.1 2.28c-1.93 0-4.24-1.07-4.24-5.39v-7.18H595v6.8c0 2.34.71 3.91 2.74 3.91a3.24 3.24 0 0 0 3-2 3.4 3.4 0 0 0 .2-1.14v-7.54h2.24zM609.52 263.4v3.53h3.2v1.7h-3.2v6.63c0 1.52.43 2.38 1.68 2.38a4.81 4.81 0 0 0 1.29-.15l.1 1.68a5.62 5.62 0 0 1-2 .3 3.1 3.1 0 0 1-2.41-.94 4.57 4.57 0 0 1-.86-3.2v-6.7h-1.91v-1.7h1.91V264zM617.72 263.47a1.38 1.38 0 1 1-2.76 0 1.36 1.36 0 0 1 1.39-1.39 1.32 1.32 0 0 1 1.37 1.39zm-2.49 15.75v-12.29h2.24v12.29zM621.17 261.19h2.24v18h-2.24zM629.65 263.47a1.32 1.32 0 0 1-1.42 1.38 1.33 1.33 0 0 1-1.34-1.38 1.36 1.36 0 0 1 1.39-1.39 1.32 1.32 0 0 1 1.37 1.39zm-2.48 15.75v-12.29h2.23v12.29zM631.71 277.92l5.56-7.23c.53-.66 1-1.25 1.6-1.91h-6.65v-1.8h9.37v1.39l-5.48 7.14c-.51.68-1 1.29-1.58 1.93v.05h7.19v1.78h-10zM650.78 279.22l-.18-1.55h-.08a4.57 4.57 0 0 1-3.75 1.83A3.51 3.51 0 0 1 643 276c0-3 2.64-4.6 7.39-4.57v-.26a2.54 2.54 0 0 0-2.8-2.84 6.13 6.13 0 0 0-3.2.91l-.5-1.47a7.58 7.58 0 0 1 4-1.09c3.76 0 4.68 2.56 4.68 5v4.59a17.62 17.62 0 0 0 .2 3zm-.33-6.27c-2.44-.06-5.21.38-5.21 2.76a2 2 0 0 0 2.11 2.14 3.06 3.06 0 0 0 3-2.06 2.22 2.22 0 0 0 .13-.71zM658.8 263.4v3.53h3.2v1.7h-3.2v6.63c0 1.52.43 2.38 1.68 2.38a4.81 4.81 0 0 0 1.29-.15l.1 1.68a5.67 5.67 0 0 1-2 .3 3.09 3.09 0 0 1-2.41-.94 4.53 4.53 0 0 1-.86-3.2v-6.7h-1.91v-1.7h1.91V264zM667 263.47a1.32 1.32 0 0 1-1.42 1.38 1.33 1.33 0 0 1-1.35-1.38 1.36 1.36 0 0 1 1.4-1.39 1.32 1.32 0 0 1 1.37 1.39zm-2.49 15.75v-12.29h2.24v12.29zM681.57 273c0 4.55-3.15 6.53-6.12 6.53-3.32 0-5.89-2.44-5.89-6.33 0-4.11 2.69-6.52 6.1-6.52s5.91 2.53 5.91 6.32zm-9.75.13c0 2.69 1.55 4.72 3.74 4.72s3.73-2 3.73-4.77c0-2.09-1-4.73-3.68-4.73s-3.79 2.41-3.79 4.75zM684.39 270.25c0-1.27 0-2.31-.1-3.32h2l.13 2h.05a4.51 4.51 0 0 1 4.06-2.31c1.7 0 4.34 1 4.34 5.23v7.34h-2.23v-7.09c0-2-.74-3.63-2.85-3.63a3.17 3.17 0 0 0-3 2.29 3.26 3.26 0 0 0-.15 1v7.39h-2.24zM493.88 334.61l-4.34-17.12h2.33l2 8.66c.51 2.13 1 4.27 1.27 5.92h.05c.28-1.7.82-3.74 1.4-5.94l2.29-8.64h2.31l2.08 8.69c.48 2 .94 4.06 1.19 5.86h.05c.36-1.88.84-3.78 1.37-5.91l2.26-8.64h2.26l-4.85 17.12h-2.31l-2.16-8.92a52.56 52.56 0 0 1-1.11-5.58h.03a56.22 56.22 0 0 1-1.32 5.58l-2.44 8.92zM518.45 334.61l-.17-1.55h-.08a4.6 4.6 0 0 1-3.76 1.82 3.5 3.5 0 0 1-3.76-3.52c0-3 2.65-4.6 7.39-4.57v-.26a2.53 2.53 0 0 0-2.79-2.84 6.11 6.11 0 0 0-3.2.91l-.51-1.47a7.65 7.65 0 0 1 4-1.09c3.76 0 4.67 2.56 4.67 5v4.6a16.55 16.55 0 0 0 .21 2.95zm-.33-6.28c-2.43-.05-5.2.38-5.2 2.77a2 2 0 0 0 2.11 2.13 3.06 3.06 0 0 0 3-2.05 2.52 2.52 0 0 0 .12-.71zM523.89 326.15c0-1.45 0-2.69-.1-3.83h2l.08 2.41h.1a3.68 3.68 0 0 1 3.4-2.69 2.56 2.56 0 0 1 .64.07v2.11a3.44 3.44 0 0 0-.77-.08 3.13 3.13 0 0 0-3 2.87 6.44 6.44 0 0 0-.1 1v6.56h-2.21zM533.18 328.87c.05 3 2 4.26 4.21 4.26a8.22 8.22 0 0 0 3.41-.63l.38 1.6a10.1 10.1 0 0 1-4.09.76c-3.78 0-6-2.49-6-6.2s2.18-6.62 5.76-6.62c4 0 5.08 3.53 5.08 5.79a7.57 7.57 0 0 1-.08 1zm6.55-1.6c0-1.42-.58-3.63-3.1-3.63-2.26 0-3.25 2.08-3.42 3.63zM544.66 316.58h2.23v7.67h.05a4.12 4.12 0 0 1 1.6-1.58 4.62 4.62 0 0 1 2.29-.63c1.65 0 4.29 1 4.29 5.25v7.32h-2.24v-7.06c0-2-.73-3.66-2.84-3.66a3.22 3.22 0 0 0-3 2.24 2.8 2.8 0 0 0-.15 1.06v7.42h-2.23zM569.87 328.36c0 4.54-3.15 6.52-6.12 6.52-3.33 0-5.89-2.43-5.89-6.32 0-4.11 2.69-6.52 6.09-6.52s5.92 2.56 5.92 6.32zm-9.75.13c0 2.69 1.55 4.72 3.73 4.72s3.73-2 3.73-4.77c0-2.09-1-4.73-3.68-4.73s-3.78 2.44-3.78 4.78zM583 331.25c0 1.27 0 2.39.1 3.36h-2l-.13-2h-.05a4.62 4.62 0 0 1-4.06 2.28c-1.93 0-4.24-1.06-4.24-5.38v-7.18h2.23v6.8c0 2.34.71 3.91 2.74 3.91a3.13 3.13 0 0 0 3.15-3.17v-7.54H583zM586.37 332.32a5.87 5.87 0 0 0 2.94.89c1.63 0 2.39-.81 2.39-1.83s-.63-1.65-2.28-2.26c-2.21-.79-3.25-2-3.25-3.48 0-2 1.6-3.6 4.24-3.6a6.11 6.11 0 0 1 3 .76l-.56 1.62a4.81 4.81 0 0 0-2.51-.71c-1.32 0-2.06.76-2.06 1.68s.74 1.47 2.33 2.08c2.14.81 3.23 1.88 3.23 3.71 0 2.16-1.68 3.68-4.6 3.68a7 7 0 0 1-3.45-.84zM598 328.87a3.93 3.93 0 0 0 4.22 4.26 8.17 8.17 0 0 0 3.4-.63l.38 1.6a10.06 10.06 0 0 1-4.09.76c-3.78 0-6-2.49-6-6.2S598 322 601.6 322c4 0 5.08 3.53 5.08 5.79a7.57 7.57 0 0 1-.08 1zm6.55-1.6c0-1.42-.58-3.63-3.1-3.63-2.25 0-3.25 2.08-3.42 3.63zM614.83 326.33c0-1.58-.05-2.85-.1-4h2l.1 2.1h.06a4.83 4.83 0 0 1 4.36-2.38c3 0 5.21 2.51 5.21 6.24 0 4.42-2.69 6.6-5.59 6.6a4.33 4.33 0 0 1-3.78-1.92H617v6.67h-2.21zm2.17 3.27a5.18 5.18 0 0 0 .1.92 3.44 3.44 0 0 0 3.35 2.61c2.36 0 3.73-1.93 3.73-4.75 0-2.46-1.29-4.57-3.65-4.57a3.57 3.57 0 0 0-3.38 2.77 3.47 3.47 0 0 0-.15.92zM629.27 316.58h2.24v18h-2.24zM642.07 334.61l-.18-1.55h-.07a4.6 4.6 0 0 1-3.76 1.82 3.5 3.5 0 0 1-3.76-3.52c0-3 2.64-4.6 7.39-4.57v-.26a2.53 2.53 0 0 0-2.79-2.84 6.08 6.08 0 0 0-3.2.91l-.51-1.47a7.65 7.65 0 0 1 4-1.09c3.75 0 4.67 2.56 4.67 5v4.6a17.62 17.62 0 0 0 .2 2.95zm-.33-6.28c-2.44-.05-5.2.38-5.2 2.77a2 2 0 0 0 2.1 2.13 3 3 0 0 0 3-2.05 2.22 2.22 0 0 0 .13-.71zM647.5 325.64c0-1.27 0-2.31-.1-3.32h2l.13 2a4.51 4.51 0 0 1 4.06-2.31c1.7 0 4.34 1 4.34 5.23v7.34h-2.23v-7.09c0-2-.74-3.63-2.84-3.63a3.17 3.17 0 0 0-3 2.29 3.26 3.26 0 0 0-.15 1v7.39h-2.21zM661.59 325.64c0-1.27 0-2.31-.1-3.32h2l.13 2a4.51 4.51 0 0 1 4.06-2.31c1.7 0 4.34 1 4.34 5.23v7.34h-2.23v-7.09c0-2-.74-3.63-2.84-3.63a3.17 3.17 0 0 0-3 2.29 3.26 3.26 0 0 0-.15 1v7.39h-2.24zM678.17 318.86a1.38 1.38 0 0 1-2.76 0 1.36 1.36 0 0 1 1.39-1.39 1.32 1.32 0 0 1 1.37 1.39zm-2.49 15.75v-12.29h2.24v12.29zM681.63 325.64c0-1.27 0-2.31-.11-3.32h2l.13 2a4.51 4.51 0 0 1 4.06-2.31c1.71 0 4.35 1 4.35 5.23v7.34h-2.24v-7.09c0-2-.73-3.63-2.84-3.63a3.18 3.18 0 0 0-3 2.29 3.26 3.26 0 0 0-.15 1v7.39h-2.23zM706.3 322.32c0 .89-.1 1.88-.1 3.37v7.14c0 2.82-.56 4.54-1.75 5.61a6.49 6.49 0 0 1-4.47 1.47 8 8 0 0 1-4.09-1l.56-1.7a7 7 0 0 0 3.61 1c2.28 0 4-1.19 4-4.29v-1.42a4.4 4.4 0 0 1-3.91 2.05c-3 0-5.23-2.59-5.23-6 0-4.16 2.71-6.52 5.53-6.52a4.09 4.09 0 0 1 3.84 2.13l.1-1.85zm-2.3 4.85a3.29 3.29 0 0 0-.12-1 3.23 3.23 0 0 0-3.13-2.36c-2.13 0-3.65 1.8-3.65 4.65 0 2.41 1.22 4.41 3.63 4.41a3.27 3.27 0 0 0 3.1-2.28 4.08 4.08 0 0 0 .17-1.19z"/><circle class="cls-6" cx="457.77" cy="217.26" r="4.48"/><circle class="cls-6" cx="458.14" cy="272" r="4.48"/><circle class="cls-6" cx="458.51" cy="326.74" r="4.48"/><path class="cls-5" d="M907.29 206.71v17.12h-2.21v-17.12zM911.33 214.87c0-1.27 0-2.32-.1-3.33h2l.13 2a4.51 4.51 0 0 1 4.06-2.31c1.7 0 4.34 1 4.34 5.23v7.34h-2.23v-7.09c0-2-.74-3.63-2.85-3.63a3.17 3.17 0 0 0-3 2.29 3.25 3.25 0 0 0-.16 1v7.39h-2.23zM925.12 221.54a5.84 5.84 0 0 0 2.94.89c1.63 0 2.39-.81 2.39-1.83s-.64-1.65-2.29-2.26c-2.21-.78-3.25-2-3.25-3.47 0-2 1.6-3.61 4.24-3.61a6.16 6.16 0 0 1 3 .76l-.55 1.63a4.76 4.76 0 0 0-2.52-.71c-1.32 0-2.05.76-2.05 1.67s.73 1.47 2.33 2.08c2.13.82 3.23 1.88 3.23 3.71 0 2.16-1.68 3.68-4.6 3.68a7 7 0 0 1-3.45-.84zM938 208.09a1.38 1.38 0 0 1-2.76 0 1.36 1.36 0 0 1 1.39-1.4 1.33 1.33 0 0 1 1.37 1.4zm-2.49 15.74v-12.29h2.24v12.29zM952 211.54c0 .89-.1 1.88-.1 3.38v7.13c0 2.82-.56 4.55-1.75 5.61a6.49 6.49 0 0 1-4.47 1.47 8 8 0 0 1-4.09-1l.56-1.7a6.9 6.9 0 0 0 3.61 1c2.28 0 4-1.19 4-4.29v-1.37h-.05a4.4 4.4 0 0 1-3.91 2.06c-3 0-5.23-2.59-5.23-6 0-4.17 2.71-6.53 5.53-6.53a4.12 4.12 0 0 1 3.84 2.13h.06l.1-1.85zm-2.31 4.85a3.29 3.29 0 0 0-.12-1 3.23 3.23 0 0 0-3.13-2.36c-2.13 0-3.65 1.8-3.65 4.65 0 2.41 1.21 4.42 3.63 4.42a3.26 3.26 0 0 0 3.09-2.29 3.78 3.78 0 0 0 .18-1.19zM955.61 205.8h2.23v7.67a4.26 4.26 0 0 1 1.6-1.58 4.62 4.62 0 0 1 2.29-.63c1.65 0 4.29 1 4.29 5.26v7.31h-2.24v-7.06c0-2-.73-3.66-2.84-3.66a3.22 3.22 0 0 0-3 2.24 2.8 2.8 0 0 0-.15 1.06v7.42h-2.23zM972.29 208v3.53h3.2v1.7h-3.2v6.63c0 1.52.43 2.38 1.67 2.38a4.84 4.84 0 0 0 1.3-.15l.1 1.68a5.44 5.44 0 0 1-2 .3 3.09 3.09 0 0 1-2.41-.94 4.52 4.52 0 0 1-.87-3.2v-6.7h-1.9v-1.7h1.9v-2.95zM977.7 221.54a5.84 5.84 0 0 0 2.94.89c1.63 0 2.39-.81 2.39-1.83s-.64-1.65-2.29-2.26c-2.21-.78-3.25-2-3.25-3.47 0-2 1.6-3.61 4.24-3.61a6.16 6.16 0 0 1 3 .76l-.55 1.63a4.79 4.79 0 0 0-2.52-.71c-1.32 0-2 .76-2 1.67s.73 1.47 2.33 2.08c2.13.82 3.23 1.88 3.23 3.71 0 2.16-1.68 3.68-4.6 3.68a7 7 0 0 1-3.45-.84zM904.78 276.53a7.93 7.93 0 0 0 4 1.11c2.26 0 3.58-1.19 3.58-2.92s-.91-2.51-3.22-3.4c-2.8-1-4.52-2.44-4.52-4.85 0-2.67 2.21-4.65 5.53-4.65a7.85 7.85 0 0 1 3.79.84l-.61 1.8a6.91 6.91 0 0 0-3.25-.81c-2.34 0-3.23 1.4-3.23 2.57 0 1.6 1 2.38 3.4 3.3 2.9 1.11 4.37 2.51 4.37 5s-2 4.93-6 4.93a8.87 8.87 0 0 1-4.37-1.09zM918.92 273.48a3.93 3.93 0 0 0 4.22 4.26 8.17 8.17 0 0 0 3.4-.63l.38 1.6a10.06 10.06 0 0 1-4.09.76c-3.78 0-6-2.49-6-6.19s2.18-6.63 5.76-6.63c4 0 5.08 3.53 5.08 5.79a7.57 7.57 0 0 1-.08 1zm6.55-1.6c0-1.42-.58-3.63-3.09-3.63-2.26 0-3.25 2.08-3.43 3.63zM941 266.93c-.06.89-.11 1.88-.11 3.37v7.14c0 2.82-.55 4.54-1.75 5.61a6.49 6.49 0 0 1-4.47 1.47 7.91 7.91 0 0 1-4.08-1l.55-1.7a7.06 7.06 0 0 0 3.61 1c2.28 0 4-1.19 4-4.29v-1.37h-.05a4.4 4.4 0 0 1-3.91 2.06c-3 0-5.23-2.59-5.23-6 0-4.16 2.72-6.52 5.53-6.52a4.11 4.11 0 0 1 3.84 2.13l.1-1.85zm-2.32 4.85a3.29 3.29 0 0 0-.12-1 3.23 3.23 0 0 0-3.13-2.36c-2.13 0-3.65 1.8-3.65 4.65 0 2.41 1.22 4.41 3.63 4.41a3.27 3.27 0 0 0 3.1-2.28 4.08 4.08 0 0 0 .17-1.19zM944.44 270.25c0-1.27 0-2.31-.1-3.32h1.95l.1 2h.08a4.23 4.23 0 0 1 3.86-2.26 3.64 3.64 0 0 1 3.48 2.46h.05a5.08 5.08 0 0 1 1.37-1.6 4.18 4.18 0 0 1 2.72-.86c1.62 0 4 1.06 4 5.33v7.24h-2.15v-7c0-2.36-.86-3.78-2.67-3.78a2.89 2.89 0 0 0-2.64 2 3.7 3.7 0 0 0-.18 1.12v7.59h-2.18v-7.37c0-2-.86-3.37-2.56-3.37a3 3 0 0 0-2.77 2.23 3 3 0 0 0-.18 1.09v7.42h-2.18zM966.86 273.48c0 3 2 4.26 4.21 4.26a8.17 8.17 0 0 0 3.4-.63l.38 1.6a10 10 0 0 1-4.08.76c-3.79 0-6-2.49-6-6.19s2.19-6.63 5.77-6.63c4 0 5.07 3.53 5.07 5.79a10.18 10.18 0 0 1-.07 1zm6.55-1.6c0-1.42-.59-3.63-3.1-3.63-2.26 0-3.25 2.08-3.43 3.63zM978.33 270.25c0-1.27 0-2.31-.1-3.32h2l.13 2a4.51 4.51 0 0 1 4.06-2.31c1.7 0 4.34 1 4.34 5.23v7.34h-2.23v-7.09c0-2-.74-3.63-2.85-3.63a3.17 3.17 0 0 0-3 2.29 3.26 3.26 0 0 0-.15 1v7.39h-2.24zM995 263.4v3.53h3.2v1.7H995v6.63c0 1.52.43 2.38 1.68 2.38a4.81 4.81 0 0 0 1.29-.15l.1 1.68a5.62 5.62 0 0 1-2 .3 3.09 3.09 0 0 1-2.41-.94 4.57 4.57 0 0 1-.86-3.2v-6.7h-1.91v-1.7h1.91V264zM1007.53 279.22l-.18-1.55h-.08a4.57 4.57 0 0 1-3.75 1.83 3.51 3.51 0 0 1-3.76-3.53c0-3 2.64-4.6 7.39-4.57v-.26a2.54 2.54 0 0 0-2.8-2.84 6.07 6.07 0 0 0-3.19.91l-.51-1.47a7.61 7.61 0 0 1 4-1.09c3.76 0 4.68 2.56 4.68 5v4.59a17.62 17.62 0 0 0 .2 3zm-.33-6.27c-2.44-.06-5.21.38-5.21 2.76a2 2 0 0 0 2.11 2.14 3.05 3.05 0 0 0 3-2.06 2.22 2.22 0 0 0 .13-.71zM1015.55 263.4v3.53h3.2v1.7h-3.2v6.63c0 1.52.43 2.38 1.68 2.38a4.81 4.81 0 0 0 1.29-.15l.1 1.68a5.62 5.62 0 0 1-2 .3 3.09 3.09 0 0 1-2.41-.94 4.57 4.57 0 0 1-.86-3.2v-6.7h-1.91v-1.7h1.91V264zM1023.75 263.47a1.32 1.32 0 0 1-1.42 1.38 1.33 1.33 0 0 1-1.35-1.38 1.36 1.36 0 0 1 1.4-1.39 1.32 1.32 0 0 1 1.37 1.39zm-2.49 15.75v-12.29h2.24v12.29zM1038.32 273c0 4.55-3.14 6.53-6.11 6.53-3.33 0-5.9-2.44-5.9-6.33 0-4.11 2.7-6.52 6.1-6.52s5.91 2.53 5.91 6.32zm-9.75.13c0 2.69 1.55 4.72 3.74 4.72s3.73-2 3.73-4.77c0-2.09-1-4.73-3.68-4.73s-3.79 2.41-3.79 4.75zM1041.14 270.25c0-1.27 0-2.31-.1-3.32h2l.13 2a4.51 4.51 0 0 1 4.06-2.31c1.7 0 4.34 1 4.34 5.23v7.34h-2.23v-7.09c0-2-.74-3.63-2.85-3.63a3.17 3.17 0 0 0-3 2.29 3.26 3.26 0 0 0-.15 1v7.39h-2.24zM905.08 317.7a25.5 25.5 0 0 1 4.25-.33 7 7 0 0 1 4.79 1.42 4.59 4.59 0 0 1 1.5 3.58 5 5 0 0 1-1.32 3.63 7.07 7.07 0 0 1-5.23 1.88 7.48 7.48 0 0 1-1.78-.15v6.86h-2.21zm2.21 8.25a7.85 7.85 0 0 0 1.83.18c2.67 0 4.29-1.3 4.29-3.66s-1.6-3.35-4-3.35a9.54 9.54 0 0 0-2.09.17zM919.13 328.87c0 3 2 4.26 4.21 4.26a8.17 8.17 0 0 0 3.4-.63l.38 1.6a10 10 0 0 1-4.08.76c-3.79 0-6-2.49-6-6.2s2.19-6.62 5.77-6.62c4 0 5.07 3.53 5.07 5.79a10.18 10.18 0 0 1-.07 1zm6.55-1.6c0-1.42-.59-3.63-3.1-3.63-2.26 0-3.25 2.08-3.43 3.63zM930.6 326.15c0-1.45 0-2.69-.1-3.83h2l.08 2.41h.1A3.69 3.69 0 0 1 936 322a2.46 2.46 0 0 1 .64.07v2.11a3.41 3.41 0 0 0-.76-.08 3.14 3.14 0 0 0-3 2.87 6.44 6.44 0 0 0-.1 1v6.56h-2.18zM938.6 332.32a5.87 5.87 0 0 0 2.94.89c1.63 0 2.39-.81 2.39-1.83s-.64-1.65-2.29-2.26c-2.2-.79-3.25-2-3.25-3.48 0-2 1.6-3.6 4.24-3.6a6.13 6.13 0 0 1 3 .76l-.56 1.62a4.82 4.82 0 0 0-2.52-.71c-1.32 0-2.05.76-2.05 1.68s.73 1.47 2.33 2.08c2.14.81 3.23 1.88 3.23 3.71 0 2.16-1.68 3.68-4.6 3.68A7 7 0 0 1 938 334zM960.08 328.36c0 4.54-3.15 6.52-6.12 6.52-3.33 0-5.89-2.43-5.89-6.32 0-4.11 2.69-6.52 6.09-6.52s5.92 2.56 5.92 6.32zm-9.75.13c0 2.69 1.55 4.72 3.73 4.72s3.73-2 3.73-4.77c0-2.09-1-4.73-3.68-4.73s-3.78 2.44-3.78 4.78zM962.89 325.64c0-1.27 0-2.31-.1-3.32h2l.13 2h.08a4.51 4.51 0 0 1 4-2.32c1.7 0 4.35 1 4.35 5.23v7.34h-2.24v-7.09c0-2-.74-3.63-2.84-3.63a3.17 3.17 0 0 0-3 2.29 3.26 3.26 0 0 0-.15 1v7.39h-2.24zM983.79 334.61l-.18-1.55h-.07a4.6 4.6 0 0 1-3.76 1.82 3.5 3.5 0 0 1-3.76-3.52c0-3 2.64-4.6 7.39-4.57v-.26a2.53 2.53 0 0 0-2.79-2.84 6.08 6.08 0 0 0-3.2.91l-.51-1.47a7.62 7.62 0 0 1 4-1.09c3.75 0 4.67 2.56 4.67 5v4.6a17.62 17.62 0 0 0 .2 2.95zm-.33-6.28c-2.44-.05-5.21.38-5.21 2.77a2 2 0 0 0 2.11 2.13 3 3 0 0 0 3-2.05 2.22 2.22 0 0 0 .13-.71zM989.22 316.58h2.24v18h-2.24zM997.7 318.86a1.31 1.31 0 0 1-1.42 1.37 1.32 1.32 0 0 1-1.35-1.37 1.36 1.36 0 0 1 1.4-1.39 1.32 1.32 0 0 1 1.37 1.39zm-2.49 15.75v-12.29h2.24v12.29zM999.76 333.31l5.56-7.24c.53-.66 1-1.24 1.6-1.9v-.05h-6.65v-1.8h9.36v1.39l-5.48 7.14c-.51.68-1 1.29-1.58 1.93v.05h7.19v1.78h-10zM1018.83 334.61l-.18-1.55h-.08a4.57 4.57 0 0 1-3.76 1.82 3.5 3.5 0 0 1-3.75-3.52c0-3 2.64-4.6 7.38-4.57v-.26a2.53 2.53 0 0 0-2.79-2.84 6.13 6.13 0 0 0-3.2.91l-.51-1.47a7.65 7.65 0 0 1 4-1.09c3.76 0 4.67 2.56 4.67 5v4.6a16.55 16.55 0 0 0 .21 2.95zm-.33-6.28c-2.44-.05-5.21.38-5.21 2.77a2 2 0 0 0 2.11 2.13 3.06 3.06 0 0 0 3-2.05 2.53 2.53 0 0 0 .13-.71zM1026.85 318.79v3.53h3.2V324h-3.2v6.62c0 1.53.43 2.39 1.67 2.39a4.84 4.84 0 0 0 1.3-.15l.1 1.67a5.41 5.41 0 0 1-2 .31 3.09 3.09 0 0 1-2.41-.94 4.52 4.52 0 0 1-.87-3.2V324h-1.9v-1.7h1.9v-2.95zM1035.05 318.86a1.39 1.39 0 0 1-2.77 0 1.36 1.36 0 0 1 1.4-1.39 1.33 1.33 0 0 1 1.37 1.39zm-2.49 15.75v-12.29h2.23v12.29zM1049.62 328.36c0 4.54-3.15 6.52-6.12 6.52-3.32 0-5.89-2.43-5.89-6.32 0-4.11 2.69-6.52 6.1-6.52s5.91 2.56 5.91 6.32zm-9.75.13c0 2.69 1.55 4.72 3.73 4.72s3.74-2 3.74-4.77c0-2.09-1-4.73-3.69-4.73s-3.78 2.44-3.78 4.78zM1052.44 325.64c0-1.27 0-2.31-.1-3.32h2l.12 2h.06a4.5 4.5 0 0 1 4.06-2.31c1.7 0 4.34 1 4.34 5.23v7.34h-2.23v-7.09c0-2-.74-3.63-2.85-3.63a3.17 3.17 0 0 0-3 2.29 3 3 0 0 0-.16 1v7.39h-2.23z"/><circle class="cls-6" cx="869.81" cy="217.26" r="4.48"/><circle class="cls-6" cx="870.18" cy="272" r="4.48"/><circle class="cls-6" cx="870.55" cy="326.74" r="4.48"/><path class="cls-5" d="M71.16 132.06l-10.95-6.18 10.88-6.14v4.72h33.18V56.68H34v69.16h-2.63V54H107v73.12H71.16z"/><path class="cls-5" d="M88.41 66.18l-1.85-4.06 12.56 1.2-7.36 10-2.22-4.74c-1.51.63-3 1.21-4.42 1.84C74.84 75 65.53 80.88 57.83 89.14a57.77 57.77 0 0 0-14.78 27.49c-.13.62-.24 1.24-.34 1.87s-.17 1.19-.26 1.86h-2.8c.37-2 .62-3.88 1.08-5.74 3.14-12.66 10-23 19.61-31.69a89.16 89.16 0 0 1 26.91-16.26z"/><path class="cls-5" d="M83.66 92.49a5.39 5.39 0 1 1 5.44-5.42 5.38 5.38 0 0 1-5.44 5.42zm-.08-8.08a2.75 2.75 0 0 0-2.76 2.74 2.81 2.81 0 0 0 2.83 2.7 2.72 2.72 0 1 0-.07-5.44zM46.52 64a5.37 5.37 0 1 1-.1 10.73 5.37 5.37 0 1 1 .1-10.73zm-.08 2.63a2.74 2.74 0 1 0 .07 5.47 2.74 2.74 0 1 0-.07-5.47zM63.37 105.94l3.34-3.86 1.93 2.1-3.28 3.19 3.39 3.46-2.06 1.78-3-3.47-.54.08-3.09 3.66-2-2.09 3.36-3.25-3.42-3.31 2-2.1zM486.6 79c4.08-13.92 13.09-21.69 27.34-23.39V47h-5.52v-3.19h14.34v3.09h-5.49v8.66c2.15.43 4.28.71 6.34 1.27a29.45 29.45 0 0 1-4 57.49 13.14 13.14 0 0 1-2.79.23c-1 0-1.19.4-1.49 1.18-.94 2.51-2 5-3 7.45a1.08 1.08 0 0 1-1.36.73c-1.42-.21-3-.71-4.26-.28s-2 1.85-3.06 2.81-1.94 1.69-2.83 2.61a2.1 2.1 0 0 0-.56 1.35c0 1.28.18 2.57.33 3.84a1.2 1.2 0 0 1-.77 1.48c-2.59 1.06-5.17 2.14-7.75 3.21a1 1 0 0 1-1.39-.43 33.76 33.76 0 0 0-2.55-3.05 2.3 2.3 0 0 0-1.45-.61q-3.43-.09-6.87 0a1.93 1.93 0 0 0-1.27.51c-.93 1-1.79 2.06-2.63 3.13a1.05 1.05 0 0 1-1.38.47c-2.61-1.09-5.23-2.19-7.86-3.26-.68-.28-.78-.75-.7-1.4.16-1.31.33-2.63.38-3.95a1.94 1.94 0 0 0-.54-1.25q-2.43-2.52-5-4.94a2.1 2.1 0 0 0-1.35-.58 27.34 27.34 0 0 0-3.72.33c-.76.12-1.26 0-1.56-.77q-1.54-3.9-3.14-7.78a1.1 1.1 0 0 1 .48-1.48c1.05-.81 2.08-1.65 3.05-2.56a1.79 1.79 0 0 0 .45-1.17q.07-3.24 0-6.5a1.81 1.81 0 0 0-.47-1.17c-1-.9-2-1.74-3.05-2.55a1.15 1.15 0 0 1-.48-1.5c1.06-2.58 2.12-5.17 3.15-7.77.31-.78.84-.88 1.58-.77a33.17 33.17 0 0 0 3.72.34 2.12 2.12 0 0 0 1.34-.58c1.65-1.59 3.28-3.21 4.86-4.88a2.28 2.28 0 0 0 .61-1.44 35.6 35.6 0 0 0-.36-3.84 1.13 1.13 0 0 1 .72-1.39c2.59-1.06 5.16-2.14 7.74-3.22a1.14 1.14 0 0 1 1.5.45c.83 1.08 1.71 2.13 2.62 3.14a1.68 1.68 0 0 0 1 .52c2.5.02 4.78.02 7.1.02zm28.93 32.42A26.29 26.29 0 1 0 489.31 85a26.32 26.32 0 0 0 26.22 26.42zm-29.46-29.31a17.13 17.13 0 0 0-6.57.12 2.41 2.41 0 0 1-2.85-1c-.76-1.07-1.72-2.55-2.76-2.72s-2.56.92-3.87 1.42c-.65.24-.74.63-.66 1.27a35.09 35.09 0 0 1 .33 3.84 1.64 1.64 0 0 1-.59 1.21 27.8 27.8 0 0 0-6.68 6.66 1.79 1.79 0 0 1-1.31.61c-1.28 0-2.56-.24-3.84-.27a1.34 1.34 0 0 0-1 .56c-.56 1.15-1 2.38-1.49 3.55a1 1 0 0 0 .43 1.37c.93.71 1.77 1.53 2.72 2.21a1.45 1.45 0 0 1 .61 1.69 19.65 19.65 0 0 0-.06 8 2.25 2.25 0 0 1-1 2.54c-3.36 2.73-3.33 2.75-1.32 6.65a1.06 1.06 0 0 0 1.27.69 33.27 33.27 0 0 1 3.73-.29 2 2 0 0 1 1.3.61c1.44 1.53 2.76 3.17 4.22 4.68 1 1 2.54 1.65 3 2.78s-.07 2.83-.25 4.26c-.08.64 0 1 .67 1.26 1.16.45 2.29 1 3.47 1.39a1.44 1.44 0 0 0 1.23-.35 37 37 0 0 0 2.48-3 1.27 1.27 0 0 1 1.37-.52 53.57 53.57 0 0 0 5.93.43c1.46 0 3.14-.82 4.33-.32s2.05 2.15 3 3.34a1 1 0 0 0 1.38.41c1.13-.51 2.32-.91 3.42-1.47a1.47 1.47 0 0 0 .63-1.12c0-1.29-.29-2.56-.32-3.84a1.8 1.8 0 0 1 .62-1.31 25.72 25.72 0 0 0 6.55-6.61 1.42 1.42 0 0 1 1.54-.7 35.82 35.82 0 0 0 3.73.3 1.35 1.35 0 0 0 1-.59c.58-1.19 1-2.43 1.5-3.67.09-.24.08-.71-.07-.81a11.11 11.11 0 0 0-2.33-1.44c-1.08-.43-2.29-.54-3.36-1-2.26-.91-4.46-1.94-6.67-2.92A16.63 16.63 0 0 1 479 122.59c-7.43-2-12.86-9.62-12-17a16.48 16.48 0 0 1 19.48-14.7zm-2.54 11.68a13.1 13.1 0 1 0 .38 26.18 13.39 13.39 0 0 0 12.48-11.2 1.94 1.94 0 0 0-.69-1.94 24.34 24.34 0 0 1-7.07-10c-.79-2.28-2.21-2.82-4.2-3-.35-.02-.7-.03-.9-.04z"/><path class="cls-5" d="M522.38 77.49c-.74 1.27-1.45 2.38-2 3.56a1.44 1.44 0 0 0 .24 1.16 6.37 6.37 0 0 1-10 7.84 6.48 6.48 0 0 1-.58-7 6.24 6.24 0 0 1 6.38-3.2 1.14 1.14 0 0 0 1.45-.7c.55-1.06 1.2-2.09 1.86-3.22L514.76 73l12.6-7.12v14.51zm-6.83 11.82a3.22 3.22 0 0 0 0-6.44 3.22 3.22 0 1 0 0 6.44zM912.66 110.91h2.59a38.82 38.82 0 0 1-.65 3.86 14.33 14.33 0 0 1-28-1.75 17.92 17.92 0 0 1-.17-2.53V94.94h-5.69a2.43 2.43 0 0 0-.09.44c0 5.52-.1 11 .05 16.56a20.12 20.12 0 0 0 39.84 2.91 18.71 18.71 0 0 0 .4-3.65V95.51v-.57h-5.68v2.79h4.43l-5.82 10.08-5.81-10h4.56V81.22c0-1.56.36-1.93 1.89-1.93h7.27c1.27 0 1.67.41 1.67 1.67v30.32a22.64 22.64 0 0 1-44.74 4.58 21.07 21.07 0 0 1-.54-4.68V81.13c0-1.51.33-1.84 1.86-1.84h7.18c1.38 0 1.76.39 1.76 1.77v29.71a11.84 11.84 0 0 0 23.66.76c-.01-.18.01-.35.03-.62zm-32-18.69h5.69V81.9h-5.65zm40.22 0V81.91h-5.66v10.34zM882.68 76.57h-8c-1.23 0-1.63-.4-1.62-1.63 0-2.21-.09-4.44.15-6.64a6.94 6.94 0 0 1 6.45-6.11 36 36 0 0 1 6.81.12 7.07 7.07 0 0 1 6 7v5.61c0 1.25-.37 1.63-1.61 1.63-2.75.03-5.46.02-8.18.02zm-7-2.59h14.3c0-1.62.08-3.17 0-4.7a4.77 4.77 0 0 0-5-4.62h-4.64a4.58 4.58 0 0 0-4.64 3.74 45.11 45.11 0 0 0-.06 5.6zM918.83 76.57h-8.05c-1.27 0-1.68-.4-1.66-1.68 0-2.19-.08-4.39.14-6.55a7.1 7.1 0 0 1 7-6.19 48.32 48.32 0 0 1 6.37.18 7.07 7.07 0 0 1 5.85 6.88v5.87c0 1.06-.41 1.47-1.48 1.49h-8.23zM926 74c0-1.73.11-3.36 0-5a4.7 4.7 0 0 0-4.64-4.38h-5.07a4.67 4.67 0 0 0-4.37 3.21c-.62 2-.2 4.08-.32 6.16zM918.89 51.24a5 5 0 1 1-5.08 5 5 5 0 0 1 5.08-5zm2.48 5.11a2.56 2.56 0 0 0-2.48-2.63 2.6 2.6 0 0 0-2.6 2.52 2.55 2.55 0 0 0 2.45 2.56 2.51 2.51 0 0 0 2.63-2.45zM887.75 56.26a5 5 0 1 1-5-5 5 5 0 0 1 5 5zm-2.51.05a2.52 2.52 0 0 0-2.5-2.59 2.57 2.57 0 0 0-2.56 2.55 2.54 2.54 0 0 0 2.56 2.54 2.51 2.51 0 0 0 2.5-2.5z"/></svg>