<svg id="Layer_1" data-name="Layer 1" xmlns="http://www.w3.org/2000/svg" width="100" height="100" viewBox="0 0 100 100"><title>Data accepted</title><path d="M10.49,71.55c0,4.24,0,8.43,0,12.63a2.24,2.24,0,0,0,1.16,1.54,53.13,53.13,0,0,0,6.86,2.76c2.48.74,5.06,1.1,7.77,1.66l-.4,3.38c-2.35-.45-4.63-.72-6.81-1.35a65.05,65.05,0,0,1-8.37-3C8.13,88,7,85.92,7,82.86c.14-10.31.06-20.62.06-30.94Q7,33.36,7,14.81a4.73,4.73,0,0,1,2.16-4.2,60.14,60.14,0,0,1,5.34-2.8,8.75,8.75,0,0,1,1.14-.42c.45-4.26,2.45-6.68,6-7.28,3.21-.56,6,1.11,7.73,4.73l3.71-.26a122.77,122.77,0,0,1,24.69.73C62.66,6,67.55,6.85,72,9.15a13.89,13.89,0,0,1,2.47,1.63,5.33,5.33,0,0,1,1.9,4.56c-.09,4.85,0,9.7,0,14.56,0,1-.09,2-.14,3.07a19.41,19.41,0,0,1,13.71,8.77,18.82,18.82,0,0,1,3,11.65,19.56,19.56,0,0,1-16.6,18v1.19c0,3.75,0,7.49,0,11.24a5.06,5.06,0,0,1-2,4.18,19.21,19.21,0,0,1-7.17,3.44,82.22,82.22,0,0,1-17.5,2.74l-.93.09V100L35.58,92.35l13.18-7.61v6.14c2.6-.26,5.06-.45,7.51-.76a52.49,52.49,0,0,0,12.79-3c.18-.07.35-.15.53-.21,2.4-.81,3.66-2.2,3.4-5-.28-3-.06-6-.06-9V71.5c-10.16,3.86-20.59,5.16-31.22,5.13S20.57,76,10.49,71.55ZM72.92,19.28c-1.45.59-2.69,1.18-4,1.63a68.74,68.74,0,0,1-17.52,3.17,122.37,122.37,0,0,1-24.13-.46C21.65,22.93,16,22,10.89,19.35c-.08-.05-.21,0-.4,0v8.83c0,3.91.21,4.23,3.85,5.69l.33.11a58.52,58.52,0,0,0,15.2,3.15,117.89,117.89,0,0,0,25.61-.23A70.72,70.72,0,0,0,64,35.33,66.61,66.61,0,0,0,70.69,33c1-.37,2.16-.86,2.19-2.08C73,27.11,72.92,23.26,72.92,19.28ZM89.55,52.19a15.9,15.9,0,1,0-16,15.9A15.94,15.94,0,0,0,89.55,52.19ZM10.49,53.52c0,4,.09,7.8-.05,11.58a3.13,3.13,0,0,0,2.16,3.46,61,61,0,0,0,8.34,2.72,104.16,104.16,0,0,0,39.27.24c1.94-.35,3.86-.87,6-1.35a3.69,3.69,0,0,0-.5-.35A19.09,19.09,0,0,1,55.45,58.66c-.24-.65-.59-.68-1.12-.63-1.94.19-3.88.42-5.82.53A113.36,113.36,0,0,1,22,57.2,37.76,37.76,0,0,1,10.49,53.52ZM58.54,40.1l-1.43.1c-5.22.33-10.44.92-15.65.91s-10.6-.48-15.87-1a43.17,43.17,0,0,1-13.38-3.37c-.54-.24-1.07-.51-1.72-.82,0,3.87.11,7.57-.05,11.27a3.19,3.19,0,0,0,2.22,3.54A69.41,69.41,0,0,0,21,53.41a95.06,95.06,0,0,0,23.8,1.87c3.19-.09,6.38-.41,9.66-.63A19.66,19.66,0,0,1,58.54,40.1ZM41,21c8.29-.1,14.46-.52,20.54-1.75a31.25,31.25,0,0,0,9.74-3.2c2.08-1.2,2.12-2.31,0-3.39a29.47,29.47,0,0,0-5.84-2.28C53.81,7.4,42,7.3,30.08,8.3a1.06,1.06,0,0,0-.74.64,7,7,0,0,1-12.18,2.3,1,1,0,0,0-.92-.33A36.85,36.85,0,0,0,11.67,13c-1.52.89-1.47,1.74-.06,2.78a3.62,3.62,0,0,0,.88.53,63,63,0,0,0,6.34,2.27A90.34,90.34,0,0,0,41,21ZM19.17,7a3.51,3.51,0,1,0,7,0,3.58,3.58,0,0,0-3.54-3.48A3.51,3.51,0,0,0,19.17,7Z"/><path d="M80.34,45.57,82.76,48,71.26,59.58l-6.7-6.69,2.38-2.2L71,55Z"/></svg>