<svg id="Layer_1" data-name="Layer 1" xmlns="http://www.w3.org/2000/svg" width="100" height="100" viewBox="0 0 100 100"><title>processing-time </title><path d="M25.46,100a10.56,10.56,0,0,0-1-.75c-4.12-2.41-8.25-4.81-12.59-7.33l13.89-8v6.23h4.46c0-1.85,0-3.7,0-5.55q.11-9.45.24-18.89a16.38,16.38,0,0,1,3.32-9,28.16,28.16,0,0,1,11.49-9.46l1.24-.57c-.42-.21-.7-.37-1-.5-6.27-3-11.16-7.28-14-13.76-1.2-2.77-1.11-5.67-1.16-8.57-.11-6.45-.17-12.91-.25-19.36,0-.27,0-.54-.08-1H22.11V0h66V3.59c-.43,0-.86-.11-1.3-.11H35c-.43,0-.85,0-1.18,0V26.43H76.39L76.58,23c-5.27-2.55-7.18-5.7-6.16-10.09a8.23,8.23,0,0,1,16,0c1,4.44-1,7.58-6.44,10.17C80.55,35,73.59,41.69,63.75,46.51L64.9,47A27.71,27.71,0,0,1,76.32,56.4a16.42,16.42,0,0,1,3.42,8.78c.19,6.09.2,12.19.26,18.29,0,2.21,0,4.43,0,6.72h8.13v3.59c-.43,0-.86-.11-1.3-.11H25.7V100ZM53.59,79.85V48.3c-7.18,1.28-12.94,4.64-17.09,10.55a13,13,0,0,0-2.64,7.43c0,6.09-.17,12.19-.26,18.28,0,.93,0,1.86,0,3C39.72,83.18,46.19,80.42,53.59,79.85Zm3.65-31.43c0,.42-.07.77-.08,1.12V78.6c0,.62-.16,1.25.87,1.32a34.59,34.59,0,0,1,17.28,6.32l1.31.84V86c-.07-5.37-.12-10.75-.22-16.13a27.62,27.62,0,0,0-.4-6C74.1,56.15,65.76,49.34,57.24,48.42ZM34.49,30a3.1,3.1,0,0,0,.08.6c.19.48.38,1,.59,1.43a20.23,20.23,0,0,0,6,7.48c5.32,4.16,11.21,6.49,18,4.72,7-1.82,12.52-5.77,15.91-12.35.29-.56.46-1.19.73-1.88ZM36,90.15H74.62C63.18,81,48.28,80.72,36,90.15ZM78.41,19.62a4.77,4.77,0,0,0,.07-9.53,4.78,4.78,0,0,0-4.81,4.74A4.72,4.72,0,0,0,78.41,19.62Z"/></svg>