<svg xmlns="http://www.w3.org/2000/svg" width="350" height="350">
  <style>
    .st3{fill:#eac8a5}.st4{fill:#ece1ce}.st5{fill:#df9926}.st27{display:inline}.st29{fill:none;stroke:#020204;stroke-width:.216;stroke-miterlimit:10}.st31{fill:#fff}.st33,.st35{fill:none;stroke:#fff;stroke-width:1.4992;stroke-miterlimit:10}.st35{stroke:#fcfcfc;stroke-width:1.5}.st36{fill:#fcfcfc}.st37,.st39{fill:none;stroke-miterlimit:10}.st37{stroke-linecap:square;stroke:#fff;stroke-width:1.4992}.st39{stroke:#fcfcfc;stroke-width:1.5;stroke-linejoin:bevel}
  </style>
  <g id="Layer_3">
    <path d="M342.9 175c0 54.5-26 103-66.2 133.6-2 1.5-4 3-6 4.4-27.2 18.9-60.1 29.9-95.7 29.9s-68.5-11.1-95.7-29.9c-2-1.4-4-2.9-6-4.4C33.1 278 7.1 229.5 7.1 175c0-16.8 2.5-33.1 7.1-48.4.7-2.4 1.5-4.7 2.3-7.1C39 55.2 99.6 8.7 171.3 7.1h7.4c71.7 1.6 132.3 48 154.8 112.4.8 2.3 1.6 4.7 2.3 7 4.6 15.4 7.1 31.7 7.1 48.5z" class="st4"/>
    <path d="M171.3 0v7.1C99.6 8.7 39 55.2 16.4 119.6l-6.7-2.2c5.6-16 13.5-31.2 23.5-45 10.6-14.6 23.4-27.5 37.9-38.3C100.4 12.5 134.9.8 171.3 0z" class="st3"/>
    <path d="M171.3 7.1v117.3c-19.2 1.4-35.9 13.5-43.2 31.4L16.4 119.6C39 55.2 99.6 8.7 171.3 7.1z" class="st5"/>
    <path d="M340.3 117.4l-6.7 2.2C311 55.2 250.4 8.7 178.7 7.1V0c36.3.7 70.9 12.5 100.1 34.1 14.6 10.7 27.3 23.6 37.9 38.3 10.1 13.8 18 28.9 23.6 45z" class="st3"/>
    <path d="M333.5 119.6l-111.6 36.3c-7.3-17.9-24-30-43.2-31.4V7.1C250.4 8.7 311 55.2 333.5 119.6z" class="st5"/>
    <path d="M73.3 308.6l-4.1 5.7c-20.5-15.6-37.6-35.9-49.5-58.7C6.8 230.9 0 203 0 175c0-17.2 2.5-34.2 7.4-50.5l6.7 2.2C9.5 142 7 158.3 7 175.1c.1 54.4 26.1 102.9 66.3 133.5z" class="st3"/>
    <path d="M142.3 215l-69 95C33.1 279.3 7.1 230.8 7.1 176.3c0-16.8 2.5-33.1 7.1-48.4l111.6 36.3c-1 3.9-1.5 8-1.5 12.1 0 14.9 6.7 29.1 18 38.7zM270.7 313c-27.2 18.9-60.1 29.9-95.7 29.9s-68.5-11.1-95.7-29.9l69-95c8 5 17.2 7.6 26.7 7.6s18.7-2.6 26.7-7.6l69 95z" class="st5"/>
    <path d="M350 175c0 28.1-6.8 56-19.7 80.7-11.9 22.8-29 43.1-49.5 58.7l-4.2-5.7c40.3-30.7 66.2-79.1 66.2-133.6 0-16.8-2.5-33.1-7.1-48.4l6.7-2.2c5.1 16.3 7.6 33.3 7.6 50.5z" class="st3"/>
    <path d="M342.9 175c0 54.5-26 103-66.2 133.6l-69-95c11.3-9.6 18-23.8 18-38.7 0-4.1-.5-8.1-1.5-12.1l111.6-36.3c4.6 15.4 7.1 31.7 7.1 48.5z" class="st5"/>
    <path d="M238.2 175c0 20.5-9.8 38.7-24.9 50.3-.7.6-1.5 1.1-2.3 1.6-10.2 7.1-22.6 11.3-36 11.3-13.4 0-25.8-4.2-36-11.3-.8-.5-1.5-1.1-2.3-1.6-15.1-11.5-24.9-29.8-24.9-50.3 0-6.3.9-12.4 2.7-18.2l.9-2.7c8.5-24.2 31.3-41.7 58.2-42.3h2.8c27 .6 49.8 18.1 58.2 42.3l.9 2.7c1.7 5.8 2.7 11.9 2.7 18.2z" class="st4"/>
    <path d="M274.8 318.7C245.5 339.2 211 350 175 350s-70.4-10.8-99.8-31.3l4.2-5.7c27.1 18.9 60.1 29.9 95.7 29.9s68.5-11.1 95.7-29.9l4 5.7z" class="st3"/>
  </g>
  <g id="Layer_1">
    <path d="M91.1 106.7c-1-.3-1.9-.6-2.8-.9-.2-.1-.3-.1-.5-.1-1.6-.1-3.1-1.3-3.1-3.6 0-2.2 1.4-3.7 3.4-3.7s3.3 1.6 3.3 3.6c0 1.7-.8 2.9-1.8 3.3.6.2 1.3.3 1.9.4l-.4 1zM90 102c0-1.4-.7-2.6-1.9-2.6-1.3 0-2 1.2-2 2.6 0 1.4.7 2.6 2 2.6 1.2.1 1.9-1.1 1.9-2.6zM97 104.1v1.5h-1.1l-.1-.8c-.2.4-.7.9-1.6.9-.9 0-1.8-.6-1.8-2.2v-3h1.3v2.8c0 .9.3 1.4 1 1.4.5 0 .9-.4 1-.7 0-.1.1-.3.1-.4v-3.1H97v3.6zM101.3 105.6l-.1-.6c-.3.4-.9.7-1.5.7-1 0-1.6-.7-1.6-1.5 0-1.3 1.1-1.9 3-1.9v-.1c0-.3-.1-.9-1-.9-.5 0-1 .2-1.4.4l-.3-.8c.4-.2 1-.5 1.8-.5 1.6 0 2.1 1 2.1 2.2v1.8c0 .5 0 .9.1 1.2h-1.1zm-.2-2.5c-.9 0-1.8.2-1.8 1 0 .5.3.7.7.7.5 0 .9-.3 1-.7v-1zM103.8 98.1h1.3v7.5h-1.3v-7.5zM107.8 99c0 .4-.3.7-.7.7-.4 0-.7-.3-.7-.7 0-.4.3-.7.7-.7.4 0 .7.4.7.7zm-1.3 6.6v-5.1h1.3v5.1h-1.3zM110.6 99v1.5h1.2v1h-1.2v2.3c0 .6.2.9.7.9.2 0 .4 0 .5-.1v1c-.2.1-.5.1-.9.1-.5 0-.9-.2-1.1-.4-.3-.3-.4-.8-.4-1.4v-2.4h-.7v-1h.7v-1.2l1.2-.3zM113.6 100.5l.9 2.7c.1.3.2.7.3 1 .1-.3.2-.7.3-1l.8-2.7h1.4L116 104c-.7 1.9-1.2 2.8-1.8 3.3-.5.5-1 .6-1.4.7l-.3-1.1c.2-.1.5-.2.8-.4.2-.2.5-.5.7-.8.1-.1.1-.2.1-.2 0-.1 0-.1-.1-.3l-1.9-4.7h1.5zM72.1 113v-1.5h1.1l.1.8c.3-.4.7-.9 1.6-.9.7 0 1.2.4 1.4.9.2-.3.4-.5.6-.6.3-.2.6-.3 1-.3.9 0 1.7.6 1.7 2.2v3h-1.3v-2.8c0-.9-.3-1.4-.9-1.4-.4 0-.8.3-.9.7 0 .1-.1.3-.1.4v3.1h-1.3v-3c0-.7-.3-1.2-.9-1.2-.5 0-.8.4-.9.7-.1.1-.1.3-.1.4v3h-1.3V113zM83.9 116.6l-.1-.6c-.3.4-.9.7-1.5.7-1 0-1.6-.7-1.6-1.5 0-1.3 1.1-1.9 3-1.9v-.1c0-.3-.1-.9-1-.9-.5 0-1 .2-1.4.4l-.3-.8c.4-.2 1-.5 1.8-.5 1.6 0 2.1 1 2.1 2.2v1.8c0 .5 0 .9.1 1.2h-1.1zm-.1-2.5c-.9 0-1.8.2-1.8 1 0 .5.3.7.7.7.5 0 .9-.3 1-.7v-1zM86.4 113v-1.5h1.1l.1.8c.2-.4.8-.9 1.6-.9.9 0 1.8.6 1.8 2.2v3h-1.3v-2.9c0-.7-.3-1.3-1-1.3-.5 0-.9.4-1 .8 0 .1-.1.3-.1.4v3h-1.3V113zM95.3 116.6l-.1-.6c-.3.4-.9.7-1.5.7-1 0-1.6-.7-1.6-1.5 0-1.3 1.1-1.9 3-1.9v-.1c0-.3-.1-.9-1-.9-.5 0-1 .2-1.4.4l-.3-.8c.4-.2 1-.5 1.8-.5 1.6 0 2.1 1 2.1 2.2v1.8c0 .5 0 .9.1 1.2h-1.1zm-.2-2.5c-.9 0-1.8.2-1.8 1 0 .5.3.7.7.7.5 0 .9-.3 1-.7v-1zM102.4 111.5v4.4c0 1.1-.2 1.8-.8 2.3-.5.5-1.3.6-2 .6s-1.3-.1-1.8-.4l.3-1c.3.2.9.4 1.5.4.8 0 1.5-.4 1.5-1.5v-.4c-.3.5-.8.8-1.5.8-1.3 0-2.2-1-2.2-2.5 0-1.7 1.1-2.7 2.3-2.7.8 0 1.2.4 1.5.8l.1-.7h1.1zm-1.3 2v-.3c-.1-.5-.5-.8-1-.8-.7 0-1.3.6-1.3 1.7 0 .9.4 1.6 1.2 1.6.5 0 .9-.3 1-.8 0-.1.1-.3.1-.5v-.9zM104.6 114.4c0 .9.8 1.3 1.6 1.3.6 0 1-.1 1.4-.2l.2.9c-.4.2-1 .3-1.8.3-1.7 0-2.6-1-2.6-2.6 0-1.4.9-2.8 2.5-2.8 1.7 0 2.2 1.4 2.2 2.5v.5h-3.5zm2.3-.9c0-.5-.2-1.2-1.1-1.2-.8 0-1.1.7-1.2 1.2h2.3zM109.2 113v-1.5h1.1l.1.8c.3-.4.7-.9 1.6-.9.7 0 1.2.4 1.4.9.2-.3.4-.5.6-.6.3-.2.6-.3 1-.3.9 0 1.7.6 1.7 2.2v3h-1.3v-2.8c0-.9-.3-1.4-.9-1.4-.4 0-.8.3-.9.7 0 .1-.1.3-.1.4v3.1h-1.3v-3c0-.7-.3-1.2-.9-1.2-.5 0-.8.4-.9.7-.1.1-.1.3-.1.4v3H109V113zM119 114.4c0 .9.8 1.3 1.6 1.3.6 0 1-.1 1.4-.2l.2.9c-.4.2-1 .3-1.8.3-1.7 0-2.6-1-2.6-2.6 0-1.4.9-2.8 2.5-2.8 1.7 0 2.2 1.4 2.2 2.5v.5H119zm2.2-.9c0-.5-.2-1.2-1.1-1.2-.8 0-1.1.7-1.2 1.2h2.3zM123.5 113v-1.5h1.1l.1.8c.2-.4.8-.9 1.6-.9.9 0 1.8.6 1.8 2.2v3h-1.3v-2.9c0-.7-.3-1.3-1-1.3-.5 0-.9.4-1 .8 0 .1-.1.3-.1.4v3h-1.3V113zM131 110v1.5h1.2v1H131v2.3c0 .6.2.9.7.9.2 0 .4 0 .5-.1v1c-.2.1-.5.1-.9.1-.5 0-.9-.2-1.1-.4-.3-.3-.4-.8-.4-1.4v-2.4h-.8v-1h.7v-1.2l1.3-.3zM217.9 100.2h1.3v6h2.9v1.1h-4.2v-7.1zM224 105c0 .9.8 1.3 1.6 1.3.6 0 1-.1 1.4-.2l.2.9c-.4.2-1 .3-1.8.3-1.7 0-2.6-1-2.6-2.6 0-1.4.9-2.8 2.5-2.8 1.7 0 2.2 1.4 2.2 2.5v.5H224zm2.2-.9c0-.5-.2-1.2-1.1-1.2-.8 0-1.1.7-1.2 1.2h2.3zM231.4 107.2l-.1-.6c-.3.4-.9.7-1.5.7-1 0-1.6-.7-1.6-1.5 0-1.3 1.1-1.9 3-1.9v-.1c0-.3-.1-.9-1-.9-.5 0-1 .2-1.4.4l-.3-.8c.4-.2 1-.5 1.8-.5 1.6 0 2.1 1 2.1 2.2v1.8c0 .5 0 .9.1 1.2h-1.1zm-.2-2.5c-.9 0-1.8.2-1.8 1 0 .5.3.7.7.7.5 0 .9-.3 1-.7v-1zM233.8 103.6v-1.5h1.1l.1.8c.2-.4.8-.9 1.6-.9.9 0 1.8.6 1.8 2.2v3h-1.3v-2.9c0-.7-.3-1.3-1-1.3-.5 0-.9.4-1 .8 0 .1-.1.3-.1.4v3h-1.3v-3.6zM242 103.8v-1.7h1.1l.1.8c.4-.6 1-.9 1.8-.9 1.2 0 2.2 1 2.2 2.6 0 1.8-1.2 2.7-2.3 2.7-.6 0-1.2-.3-1.4-.7v2.6H242v-5.4zm1.3 1.3v.4c.1.5.6.9 1.1.9.8 0 1.3-.7 1.3-1.7 0-.9-.4-1.6-1.3-1.6-.5 0-1 .4-1.2 1 0 .1-.1.2-.1.3v.7zM248.1 103.8v-1.6h1.1v1c.3-.7.9-1.1 1.4-1.1h.3v1.2h-.4c-.6 0-1 .4-1.2 1v3H248v-3.5zM256.7 104.6c0 1.9-1.3 2.7-2.6 2.7-1.4 0-2.6-1-2.6-2.6 0-1.7 1.1-2.7 2.6-2.7 1.6 0 2.6 1.1 2.6 2.6zm-3.8.1c0 1 .5 1.7 1.3 1.7.7 0 1.2-.7 1.2-1.8 0-.8-.4-1.7-1.2-1.7-.9.1-1.3.9-1.3 1.8zM262.5 99.8v7.4h-1.2l-.1-.8c-.3.6-.9.9-1.7.9-1.2 0-2.2-1-2.2-2.6 0-1.7 1.1-2.7 2.3-2.7.7 0 1.2.3 1.4.7v-2.9h1.5zm-1.3 4.5v-.3c-.1-.5-.5-.9-1.1-.9-.8 0-1.3.7-1.3 1.7 0 .9.5 1.6 1.3 1.6.5 0 1-.4 1.1-.9V104.3zM268.5 105.7v1.5h-1.1l-.1-.8c-.2.4-.7.9-1.6.9-.9 0-1.8-.6-1.8-2.2v-3h1.3v2.8c0 .9.3 1.4 1 1.4.5 0 .9-.4 1-.7 0-.1.1-.3.1-.4v-3.1h1.3v3.6zM273.6 107.1c-.3.1-.8.3-1.4.3-1.6 0-2.6-1-2.6-2.6 0-1.5 1-2.7 2.8-2.7.5 0 1 .1 1.2.2l-.2 1c-.2-.1-.5-.2-1-.2-1 0-1.6.7-1.6 1.7s.7 1.6 1.6 1.6c.5 0 .8-.1 1-.2l.2.9zM276.1 100.7v1.5h1.2v1h-1.2v2.3c0 .6.2.9.7.9.2 0 .4 0 .5-.1v1c-.2.1-.5.1-.9.1-.5 0-.9-.2-1.1-.4-.3-.3-.4-.8-.4-1.4v-2.4h-.7v-1h.7V101l1.2-.3zM223.4 110.8v7.4h-1.2l-.1-.8c-.3.6-.9.9-1.7.9-1.2 0-2.2-1-2.2-2.6 0-1.7 1.1-2.7 2.3-2.7.7 0 1.2.3 1.4.7v-2.9h1.5zm-1.3 4.5v-.3c-.1-.5-.5-.9-1.1-.9-.8 0-1.3.7-1.3 1.7 0 .9.5 1.6 1.3 1.6.5 0 1-.4 1.1-.9V115.3zM225.7 116c0 .9.8 1.3 1.6 1.3.6 0 1-.1 1.4-.2l.2.9c-.4.2-1 .3-1.8.3-1.7 0-2.6-1-2.6-2.6 0-1.4.9-2.8 2.5-2.8 1.7 0 2.2 1.4 2.2 2.5v.5h-3.5zm2.2-.9c0-.5-.2-1.2-1.1-1.2-.8 0-1.1.7-1.2 1.2h2.3zM231 113.1l.8 2.6c.1.5.3.9.3 1.3.1-.4.2-.8.3-1.3l.8-2.6h1.4l-2 5.1h-1.3l-1.9-5.1h1.6zM236.4 116c0 .9.8 1.3 1.6 1.3.6 0 1-.1 1.4-.2l.2.9c-.4.2-1 .3-1.8.3-1.7 0-2.6-1-2.6-2.6 0-1.4.9-2.8 2.5-2.8 1.7 0 2.2 1.4 2.2 2.5v.5h-3.5zm2.3-.9c0-.5-.2-1.2-1.1-1.2-.8 0-1.1.7-1.2 1.2h2.3zM240.9 110.8h1.3v7.5h-1.3v-7.5zM248.5 115.6c0 1.9-1.3 2.7-2.6 2.7-1.4 0-2.6-1-2.6-2.6 0-1.7 1.1-2.7 2.6-2.7 1.6 0 2.6 1.1 2.6 2.6zm-3.9.1c0 1 .5 1.7 1.3 1.7.7 0 1.2-.7 1.2-1.8 0-.8-.4-1.7-1.2-1.7-.9.1-1.3.9-1.3 1.8zM249.5 114.8v-1.7h1.1l.1.8c.4-.6 1-.9 1.8-.9 1.2 0 2.2 1 2.2 2.6 0 1.8-1.2 2.7-2.3 2.7-.6 0-1.2-.3-1.4-.7v2.6h-1.3v-5.4zm1.3 1.3v.4c.1.5.6.9 1.1.9.8 0 1.3-.7 1.3-1.7 0-.9-.4-1.6-1.3-1.6-.5 0-1 .4-1.2 1 0 .1-.1.2-.1.3v.7zM255.7 114.6v-1.5h1.1l.1.8c.3-.4.7-.9 1.6-.9.7 0 1.2.4 1.4.9.2-.3.4-.5.6-.6.3-.2.6-.3 1-.3.9 0 1.7.6 1.7 2.2v3H262v-2.8c0-.9-.3-1.4-.9-1.4-.4 0-.8.3-.9.7 0 .1-.1.3-.1.4v3.1h-1.3v-3c0-.7-.3-1.2-.9-1.2-.5 0-.8.4-.9.7-.1.1-.1.3-.1.4v3h-1.3v-3.5zM265.5 116c0 .9.8 1.3 1.6 1.3.6 0 1-.1 1.4-.2l.2.9c-.4.2-1 .3-1.8.3-1.7 0-2.6-1-2.6-2.6 0-1.4.9-2.8 2.5-2.8 1.7 0 2.2 1.4 2.2 2.5v.5h-3.5zm2.2-.9c0-.5-.2-1.2-1.1-1.2-.8 0-1.1.7-1.2 1.2h2.3zM270 114.6v-1.5h1.1l.1.8c.2-.4.8-.9 1.6-.9.9 0 1.8.6 1.8 2.2v3h-1.3v-2.9c0-.7-.3-1.3-1-1.3-.5 0-.9.4-1 .8 0 .1-.1.3-.1.4v3H270v-3.6zM277.5 111.7v1.5h1.2v1h-1.2v2.3c0 .6.2.9.7.9.2 0 .4 0 .5-.1v1c-.2.1-.5.1-.9.1-.5 0-.9-.2-1.1-.4-.3-.3-.4-.8-.4-1.4v-2.4h-.7v-1h.7V112l1.2-.3zM137.6 305.4c.5-.1 1.1-.1 2-.1.9 0 1.6.2 2.1.6.4.3.7.9.7 1.6 0 .7-.2 1.2-.6 1.6-.5.5-1.3.8-2.2.8h-.6v2.7h-1.3v-7.2zm1.2 3.3c.2 0 .4.1.6.1 1 0 1.6-.5 1.6-1.3s-.5-1.2-1.4-1.2c-.4 0-.6 0-.7.1v2.3zM143.4 308.9v-1.6h1.1v1c.3-.7.9-1.1 1.4-1.1h.3v1.2h-.4c-.6 0-1 .4-1.2 1v3h-1.3v-3.5zM152 309.8c0 1.9-1.3 2.7-2.6 2.7-1.4 0-2.6-1-2.6-2.6 0-1.7 1.1-2.7 2.6-2.7 1.6-.1 2.6 1 2.6 2.6zm-3.9 0c0 1 .5 1.7 1.3 1.7.7 0 1.2-.7 1.2-1.8 0-.8-.4-1.7-1.2-1.7-.9.1-1.3 1-1.3 1.8zM151.9 313.5c.4 0 .8-.1 1-.4.2-.3.3-.7.3-1.8v-4.2h1.3v4.5c0 1.1-.2 1.7-.7 2.2-.5.4-1.2.6-1.8.6l-.1-.9zm2.7-7.7c0 .4-.3.7-.7.7-.4 0-.7-.3-.7-.7 0-.4.3-.7.7-.7s.7.3.7.7zM156.8 310.2c0 .9.8 1.3 1.6 1.3.6 0 1-.1 1.4-.2l.2.9c-.4.2-1 .3-1.8.3-1.7 0-2.6-1-2.6-2.6 0-1.4.9-2.8 2.5-2.8 1.7 0 2.2 1.4 2.2 2.5v.5h-3.5zm2.2-.9c0-.5-.2-1.2-1.1-1.2-.8 0-1.1.7-1.2 1.2h2.3zM165.1 312.2c-.3.1-.8.3-1.4.3-1.6 0-2.6-1-2.6-2.6 0-1.5 1-2.7 2.8-2.7.5 0 1 .1 1.2.2l-.2 1c-.2-.1-.5-.2-1-.2-1 0-1.6.7-1.6 1.7s.7 1.6 1.6 1.6c.5 0 .8-.1 1-.2l.2.9zM167.5 305.8v1.5h1.2v1h-1.2v2.3c0 .6.2.9.7.9.2 0 .4 0 .5-.1v1c-.2.1-.5.1-.9.1-.5 0-.9-.2-1.1-.4-.3-.3-.4-.8-.4-1.4v-2.4h-.7v-1h.7v-1.2l1.2-.3zM171.9 308.9v-1.7h1.1l.1.8c.4-.6 1-.9 1.8-.9 1.2 0 2.2 1 2.2 2.6 0 1.8-1.2 2.7-2.3 2.7-.6 0-1.2-.3-1.4-.7v2.6h-1.3v-5.4zm1.3 1.3v.4c.1.5.6.9 1.1.9.8 0 1.3-.7 1.3-1.7 0-.9-.4-1.6-1.3-1.6-.5 0-1 .4-1.2 1 0 .1-.1.2-.1.3v.7zM182.9 309.8c0 1.9-1.3 2.7-2.6 2.7-1.4 0-2.6-1-2.6-2.6 0-1.7 1.1-2.7 2.6-2.7 1.6-.1 2.6 1 2.6 2.6zm-3.9 0c0 1 .5 1.7 1.3 1.7.7 0 1.2-.7 1.2-1.8 0-.8-.4-1.7-1.2-1.7-.9.1-1.3 1-1.3 1.8zM183.9 308.9v-1.6h1.1v1c.3-.7.9-1.1 1.4-1.1h.3v1.2h-.4c-.6 0-1 .4-1.2 1v3h-1.3v-3.5zM189.2 305.8v1.5h1.2v1h-1.2v2.3c0 .6.2.9.7.9.2 0 .4 0 .5-.1v1c-.2.1-.5.1-.9.1-.5 0-.9-.2-1.1-.4-.3-.3-.4-.8-.4-1.4v-2.4h-.7v-1h.7v-1.2l1.2-.3zM191.5 312.4v-4.1h-.7v-1h.7v-.3c0-.7.2-1.3.6-1.7.4-.4.9-.5 1.3-.5.3 0 .6.1.8.1l-.1 1c-.1-.1-.3-.1-.5-.1-.6 0-.9.5-.9 1.2v.3h1.1v1h-1.1v4.1h-1.2zM199.6 309.8c0 1.9-1.3 2.7-2.6 2.7-1.4 0-2.6-1-2.6-2.6 0-1.7 1.1-2.7 2.6-2.7 1.6-.1 2.6 1 2.6 2.6zm-3.9 0c0 1 .5 1.7 1.3 1.7.7 0 1.2-.7 1.2-1.8 0-.8-.4-1.7-1.2-1.7-.9.1-1.3 1-1.3 1.8zM200.6 304.9h1.3v7.5h-1.3v-7.5zM204.7 305.8c0 .4-.3.7-.7.7-.4 0-.7-.3-.7-.7 0-.4.3-.7.7-.7.4 0 .7.3.7.7zm-1.4 6.6v-5.1h1.3v5.1h-1.3zM210.9 309.8c0 1.9-1.3 2.7-2.6 2.7-1.4 0-2.6-1-2.6-2.6 0-1.7 1.1-2.7 2.6-2.7 1.6-.1 2.6 1 2.6 2.6zm-3.9 0c0 1 .5 1.7 1.3 1.7.7 0 1.2-.7 1.2-1.8 0-.8-.4-1.7-1.2-1.7-.9.1-1.3 1-1.3 1.8zM145.3 319.8v-1.5h1.1l.1.8c.3-.4.7-.9 1.6-.9.7 0 1.2.4 1.4.9.2-.3.4-.5.6-.6.3-.2.6-.3 1-.3.9 0 1.7.6 1.7 2.2v3h-1.3v-2.8c0-.9-.3-1.4-.9-1.4-.4 0-.8.3-.9.7 0 .1-.1.3-.1.4v3.1h-1.3v-3c0-.7-.3-1.2-.9-1.2-.5 0-.8.4-.9.7-.1.1-.1.3-.1.4v3h-1.3v-3.5zM157.1 323.4l-.1-.6c-.3.4-.9.7-1.5.7-1 0-1.6-.7-1.6-1.5 0-1.3 1.1-1.9 3-1.9v-.1c0-.3-.1-.9-1-.9-.5 0-1 .2-1.4.4l-.3-.8c.4-.2 1-.5 1.8-.5 1.6 0 2.1 1 2.1 2.2v1.8c0 .5 0 .9.1 1.2h-1.1zm-.2-2.5c-.9 0-1.8.2-1.8 1 0 .5.3.7.7.7.5 0 .9-.3 1-.7v-1zM159.5 319.8v-1.5h1.1l.1.8c.2-.4.8-.9 1.6-.9.9 0 1.8.6 1.8 2.2v3h-1.3v-2.9c0-.7-.3-1.3-1-1.3-.5 0-.9.4-1 .8 0 .1-.1.3-.1.4v3h-1.3v-3.6zM168.4 323.4l-.1-.6c-.3.4-.9.7-1.5.7-1 0-1.6-.7-1.6-1.5 0-1.3 1.1-1.9 3-1.9v-.1c0-.3-.1-.9-1-.9-.5 0-1 .2-1.4.4l-.3-.8c.4-.2 1-.5 1.8-.5 1.6 0 2.1 1 2.1 2.2v1.8c0 .5 0 .9.1 1.2h-1.1zm-.1-2.5c-.9 0-1.8.2-1.8 1 0 .5.3.7.7.7.5 0 .9-.3 1-.7v-1zM175.6 318.2v4.4c0 1.1-.2 1.8-.8 2.3-.5.5-1.3.6-2 .6s-1.3-.1-1.8-.4l.3-1c.3.2.9.4 1.5.4.8 0 1.5-.4 1.5-1.5v-.4c-.3.5-.8.8-1.5.8-1.3 0-2.2-1-2.2-2.5 0-1.7 1.1-2.7 2.3-2.7.8 0 1.2.4 1.5.8l.1-.7h1.1zm-1.4 2.1v-.3c-.1-.5-.5-.8-1-.8-.7 0-1.3.6-1.3 1.7 0 .9.4 1.6 1.2 1.6.5 0 .9-.3 1-.8 0-.1.1-.3.1-.5v-.9zM177.8 321.2c0 .9.8 1.3 1.6 1.3.6 0 1-.1 1.4-.2l.2.9c-.4.2-1 .3-1.8.3-1.7 0-2.6-1-2.6-2.6 0-1.4.9-2.8 2.5-2.8 1.7 0 2.2 1.4 2.2 2.5v.5h-3.5zm2.3-.9c0-.5-.2-1.2-1.1-1.2-.8 0-1.1.7-1.2 1.2h2.3zM182.3 319.8v-1.5h1.1l.1.8c.3-.4.7-.9 1.6-.9.7 0 1.2.4 1.4.9.2-.3.4-.5.6-.6.3-.2.6-.3 1-.3.9 0 1.7.6 1.7 2.2v3h-1.3v-2.8c0-.9-.3-1.4-.9-1.4-.4 0-.8.3-.9.7 0 .1-.1.3-.1.4v3.1h-1.3v-3c0-.7-.3-1.2-.9-1.2-.5 0-.8.4-.9.7-.1.1-.1.3-.1.4v3h-1.3v-3.5zM192.1 321.2c0 .9.8 1.3 1.6 1.3.6 0 1-.1 1.4-.2l.2.9c-.4.2-1 .3-1.8.3-1.7 0-2.6-1-2.6-2.6 0-1.4.9-2.8 2.5-2.8 1.7 0 2.2 1.4 2.2 2.5v.5h-3.5zm2.3-.9c0-.5-.2-1.2-1.1-1.2-.8 0-1.1.7-1.2 1.2h2.3zM196.6 319.8v-1.5h1.1l.1.8c.2-.4.8-.9 1.6-.9.9 0 1.8.6 1.8 2.2v3H200v-2.9c0-.7-.3-1.3-1-1.3-.5 0-.9.4-1 .8 0 .1-.1.3-.1.4v3h-1.3v-3.6zM204.1 316.8v1.5h1.2v1h-1.2v2.3c0 .6.2.9.7.9.2 0 .4 0 .5-.1v1c-.2.1-.5.1-.9.1-.5 0-.9-.2-1.1-.4-.3-.3-.4-.8-.4-1.4v-2.4h-.7v-1h.7v-1.2l1.2-.3z" class="st31"/>
    <g>
      <path d="M43.2 236.1l-1.7-7.1h1.4l.7 3.2c.2.9.3 1.8.5 2.5.1-.7.3-1.6.5-2.5l.8-3.2h1.4l.7 3.3c.2.8.3 1.6.4 2.4.1-.8.3-1.6.5-2.4l.7-3.2h1.3l-1.9 7.1h-1.4l-.7-3.3c-.2-.8-.3-1.5-.4-2.2-.1.8-.3 1.4-.5 2.2l-.8 3.3h-1.5zM56 233.5c0 1.9-1.3 2.7-2.6 2.7-1.4 0-2.6-1-2.6-2.6 0-1.7 1.1-2.7 2.6-2.7 1.6-.1 2.6 1 2.6 2.6zm-3.8 0c0 1 .5 1.7 1.3 1.7.7 0 1.2-.7 1.2-1.8 0-.8-.4-1.7-1.2-1.7-.9.1-1.3 1-1.3 1.8zM57.1 232.6V231h1.1v1c.3-.7.9-1.1 1.4-1.1h.3v1.2h-.4c-.6 0-1 .4-1.2 1v3H57v-3.5zM62.1 233.2c.1-.2.3-.4.4-.6l1.2-1.6h1.6l-1.9 2.1 2.2 3H64l-1.5-2.3-.4.5v1.7h-1.3v-7.5h1.3v4.7zM66.3 236.1V232h-.7v-1h.7v-.2c0-.6.3-1.3.8-1.7.5-.4 1-.5 1.8-.5.7 0 1.3.1 1.8.4v7.2h-1.3v-6.5c-.1-.1-.3-.1-.7-.1-.8 0-1.1.6-1.1 1.2v.2h1v1h-1v4.1h-1.3zM76.9 233.5c0 1.9-1.3 2.7-2.6 2.7-1.4 0-2.6-1-2.6-2.6 0-1.7 1.1-2.7 2.6-2.7 1.6-.1 2.6 1 2.6 2.6zm-3.8 0c0 1 .5 1.7 1.3 1.7.7 0 1.2-.7 1.2-1.8 0-.8-.4-1.7-1.2-1.7-1 .1-1.3 1-1.3 1.8zM78.7 230.9l.5 2.3c.1.5.2 1.1.3 1.7.1-.6.3-1.1.4-1.6l.7-2.3h1l.6 2.3c.2.6.3 1.2.4 1.7.1-.6.2-1.1.3-1.7l.6-2.3H85l-1.6 5.1h-1.2l-.6-2.1c-.2-.5-.3-1-.4-1.6-.1.6-.2 1.1-.4 1.6l-.7 2.1h-1.2l-1.5-5.1h1.3zM41.2 247.1l-.1-.6c-.3.4-.9.7-1.5.7-1 0-1.6-.7-1.6-1.5 0-1.3 1.1-1.9 3-1.9v-.1c0-.3-.1-.9-1-.9-.5 0-1 .2-1.4.4l-.3-.8c.4-.2 1-.5 1.8-.5 1.6 0 2.1 1 2.1 2.2v1.8c0 .5 0 .9.1 1.2h-1.1zm-.2-2.5c-.9 0-1.8.2-1.8 1 0 .5.3.7.7.7.5 0 .9-.3 1-.7v-1zM48.2 245.5v1.5h-1.1l-.1-.8c-.2.4-.7.9-1.6.9-.9 0-1.8-.6-1.8-2.2v-3h1.3v2.8c0 .9.3 1.4 1 1.4.5 0 .9-.4 1-.7 0-.1.1-.3.1-.4v-3.1h1.3v3.6zM51.1 240.5v1.5h1.2v1h-1.2v2.3c0 .6.2.9.7.9.2 0 .4 0 .5-.1v1c-.2.1-.5.1-.9.1-.5 0-.9-.2-1.1-.4-.3-.3-.4-.8-.4-1.4V243h-.7v-1h.7v-1.2l1.2-.3zM58.2 244.5c0 1.9-1.3 2.7-2.6 2.7-1.4 0-2.6-1-2.6-2.6 0-1.7 1.1-2.7 2.6-2.7 1.5-.1 2.6 1 2.6 2.6zm-3.9 0c0 1 .5 1.7 1.3 1.7.7 0 1.2-.7 1.2-1.8 0-.8-.4-1.7-1.2-1.7-.9.1-1.3 1-1.3 1.8zM59.2 243.5V242h1.1l.1.8c.3-.4.7-.9 1.6-.9.7 0 1.2.4 1.4.9.2-.3.4-.5.6-.6.3-.2.6-.3 1-.3.9 0 1.7.6 1.7 2.2v3h-1.3v-2.8c0-.9-.3-1.4-.9-1.4-.4 0-.8.3-.9.7 0 .1-.1.3-.1.4v3.1h-1.3v-3c0-.7-.3-1.2-.9-1.2-.5 0-.8.4-.9.7-.1.1-.1.3-.1.4v3H59v-3.5zM71 247.1l-.1-.6c-.3.4-.9.7-1.5.7-1 0-1.6-.7-1.6-1.5 0-1.3 1.1-1.9 3-1.9v-.1c0-.3-.1-.9-1-.9-.5 0-1 .2-1.4.4l-.3-.8c.4-.2 1-.5 1.8-.5 1.6 0 2.1 1 2.1 2.2v1.8c0 .5 0 .9.1 1.2H71zm-.2-2.5c-.9 0-1.8.2-1.8 1 0 .5.3.7.7.7.5 0 .9-.3 1-.7v-1zM74.9 240.5v1.5h1.2v1h-1.2v2.3c0 .6.2.9.7.9.2 0 .4 0 .5-.1v1c-.2.1-.5.1-.9.1-.5 0-.9-.2-1.1-.4-.3-.3-.4-.8-.4-1.4V243H73v-1h.7v-1.2l1.2-.3zM78.5 240.5c0 .4-.3.7-.7.7-.4 0-.7-.3-.7-.7 0-.4.3-.7.7-.7.4 0 .7.3.7.7zm-1.4 6.6V242h1.3v5.1h-1.3zM84.7 244.5c0 1.9-1.3 2.7-2.6 2.7-1.4 0-2.6-1-2.6-2.6 0-1.7 1.1-2.7 2.6-2.7 1.6-.1 2.6 1 2.6 2.6zm-3.9 0c0 1 .5 1.7 1.3 1.7.7 0 1.2-.7 1.2-1.8 0-.8-.4-1.7-1.2-1.7-.9.1-1.3 1-1.3 1.8zM85.8 243.5V242h1.1l.1.8c.2-.4.8-.9 1.6-.9.9 0 1.8.6 1.8 2.2v3h-1.3v-2.9c0-.7-.3-1.3-1-1.3-.5 0-.9.4-1 .8 0 .1-.1.3-.1.4v3h-1.3v-3.6z" class="st31"/>
    </g>
    <g>
      <path d="M252.1 229.7c.5-.1 1.1-.1 2-.1.9 0 1.6.2 2.1.6.4.3.7.9.7 1.6 0 .7-.2 1.2-.6 1.6-.5.5-1.3.8-2.2.8h-.6v2.7h-1.3v-7.2zm1.3 3.3c.2 0 .4.1.6.1 1 0 1.6-.5 1.6-1.3s-.5-1.2-1.4-1.2c-.4 0-.6 0-.7.1v2.3zM262.8 234.1c0 1.9-1.3 2.7-2.6 2.7-1.4 0-2.6-1-2.6-2.6 0-1.7 1.1-2.7 2.6-2.7 1.6-.1 2.6 1 2.6 2.6zm-3.9 0c0 1 .5 1.7 1.3 1.7.7 0 1.2-.7 1.2-1.8 0-.8-.4-1.7-1.2-1.7-.9.1-1.3 1-1.3 1.8zM263.8 235.5c.3.2.9.4 1.3.4.6 0 .8-.2.8-.6 0-.3-.2-.5-.8-.7-1-.3-1.4-.9-1.4-1.5 0-.9.7-1.6 1.9-1.6.6 0 1.1.1 1.4.3l-.3.9c-.2-.1-.6-.3-1.1-.3-.5 0-.7.2-.7.5s.2.5.9.7c.9.3 1.4.8 1.4 1.6 0 .9-.7 1.6-2.1 1.6-.6 0-1.2-.1-1.6-.4l.3-.9zM269.7 230.1v1.5h1.2v1h-1.2v2.3c0 .6.2.9.7.9.2 0 .4 0 .5-.1v1c-.2.1-.5.1-.9.1-.5 0-.9-.2-1.1-.4-.3-.3-.4-.8-.4-1.4v-2.4h-.7v-1h.7v-1.2l1.2-.3zM274.2 233.4v.9h-2.7v-.9h2.7zM275.2 229.2h1.3v7.5h-1.3v-7.5zM280.8 236.7l-.1-.6c-.3.4-.9.7-1.5.7-1 0-1.6-.7-1.6-1.5 0-1.3 1.1-1.9 3-1.9v-.1c0-.3-.1-.9-1-.9-.5 0-1 .2-1.4.4l-.3-.8c.4-.2 1-.5 1.8-.5 1.6 0 2.1 1 2.1 2.2v1.8c0 .5 0 .9.1 1.2h-1.1zm-.2-2.5c-.9 0-1.8.2-1.8 1 0 .5.3.7.7.7.5 0 .9-.3 1-.7v-1zM287.8 235.1v1.5h-1.1l-.1-.8c-.2.4-.7.9-1.6.9-.9 0-1.8-.6-1.8-2.2v-3h1.3v2.8c0 .9.3 1.4 1 1.4.5 0 .9-.4 1-.7 0-.1.1-.3.1-.4v-3.1h1.3v3.6zM289.2 233.1v-1.5h1.1l.1.8c.2-.4.8-.9 1.6-.9.9 0 1.8.6 1.8 2.2v3h-1.3v-2.9c0-.7-.3-1.3-1-1.3-.5 0-.9.4-1 .8 0 .1-.1.3-.1.4v3h-1.3v-3.6zM299 236.5c-.3.1-.8.3-1.4.3-1.6 0-2.6-1-2.6-2.6 0-1.5 1-2.7 2.8-2.7.5 0 1 .1 1.2.2l-.2 1c-.2-.1-.5-.2-1-.2-1 0-1.6.7-1.6 1.7s.7 1.6 1.6 1.6c.5 0 .8-.1 1-.2l.2.9zM299.9 229.2h1.3v3l.6-.6c.3-.1.6-.2.9-.2.9 0 1.8.6 1.8 2.2v3h-1.3v-2.9c0-.7-.3-1.3-1-1.3-.5 0-.9.3-1 .7 0 .1-.1.2-.1.4v3.1h-1.3v-7.4zM264.9 244.2v-1.6h1.1v1c.3-.7.9-1.1 1.4-1.1h.3v1.2h-.4c-.6 0-1 .4-1.2 1v3h-1.3v-3.5zM269.5 245.5c0 .9.8 1.3 1.6 1.3.6 0 1-.1 1.4-.2l.2.9c-.4.2-1 .3-1.8.3-1.7 0-2.6-1-2.6-2.6 0-1.4.9-2.8 2.5-2.8 1.7 0 2.2 1.4 2.2 2.5v.5h-3.5zm2.3-.9c0-.5-.2-1.2-1.1-1.2-.8 0-1.1.7-1.2 1.2h2.3zM274.8 242.5l.8 2.6c.1.5.3.9.3 1.3.1-.4.2-.8.3-1.3l.8-2.6h1.4l-2 5.1h-1.3l-1.9-5.1h1.6zM280.7 241.1c0 .4-.3.7-.7.7-.4 0-.7-.3-.7-.7 0-.4.3-.7.7-.7.4 0 .7.3.7.7zm-1.4 6.6v-5.1h1.3v5.1h-1.3zM282.9 245.5c0 .9.8 1.3 1.6 1.3.6 0 1-.1 1.4-.2l.2.9c-.4.2-1 .3-1.8.3-1.7 0-2.6-1-2.6-2.6 0-1.4.9-2.8 2.5-2.8 1.7 0 2.2 1.4 2.2 2.5v.5h-3.5zm2.3-.9c0-.5-.2-1.2-1.1-1.2-.8 0-1.1.7-1.2 1.2h2.3zM288.2 242.5l.5 2.3c.1.5.2 1.1.3 1.7.1-.6.3-1.1.4-1.6l.7-2.3h1l.6 2.3c.2.6.3 1.2.4 1.7.1-.6.2-1.1.3-1.7l.6-2.3h1.3l-1.6 5.1h-1.2l-.6-2.1c-.2-.5-.3-1-.4-1.6-.1.6-.2 1.1-.4 1.6l-.7 2.1h-1.2l-1.5-5.1h1.5z" class="st31"/>
    </g>
    <path id="XMLID_135_" d="M67.4 226.3z" class="st31"/>
    <path d="M45.3 172.1h11.1v11.1H45.3zM45.3 191h11.1v11.1H45.3zM72.3 191h11.1v11.1H72.3zM45.3 209.9h11.1V221H45.3z" class="st35"/>
    <g>
      <path d="M77.8 175v10.5" class="st35"/>
      <path d="M74.8 184.6l3 5.2 3-5.2z" class="st36"/>
    </g>
    <path d="M56.7 173.1h18.5M50.8 202.1v7.8" class="st35"/>
    <g>
      <path d="M77.8 202.1v12.6H61.4" class="st35"/>
      <path d="M62.3 211.7l-5.2 3 5.2 3z" class="st36"/>
    </g>
    <g>
      <path d="M295.8 180.6v38.8h-33.6v-43.1h23.9" class="st35"/>
      <path d="M292.8 181.5l3-5.2 3 5.2z" class="st36"/>
    </g>
    <path d="M288.3 191.9h-17.9M288.3 204.9h-17.9" class="st35"/>
    <circle cx="288.7" cy="176.3" r="2.3" class="st35"/>
    <circle cx="77.8" cy="173" r="2.3" class="st35"/>
    <g id="XMLID_21_">
      <path id="XMLID_1203_" d="M242 54.9v27.3l-15-6.1V57.5" class="st39"/>
      <path id="XMLID_1201_" d="M242 54.3l-4.1 7.1-14.6-4.5 4.4-7z" class="st39"/>
      <path id="XMLID_1199_" d="M242 54.3l4.2 7.1 14.6-4.4-4.4-6.9z" class="st39"/>
      <path id="XMLID_1197_" d="M254.7 71.2v16.3l-12.5-5.2V67l12.5 4.2 11.5-4 .1 15.7-11.6 4.6" class="st39"/>
      <path id="XMLID_1195_" d="M257.1 58.2v5.9" class="st39"/>
    </g>
    <path d="M266.5 67.2l-12-4.1-12.3 3.9M227.7 49.9l15.4-3.9 13.3 4.1M228 86.3v-6.6" class="st39"/>
    <g>
      <path fill="none" stroke="#fcfcfc" stroke-linejoin="bevel" stroke-width="1.5" d="M240.6 88.6h-10.7"/>
      <path d="M239.8 85.6l5.2 3-5.2 3z" class="st36"/>
    </g>
    <path d="M176.6 253.1h4M166.3 253.1h4M180.3 296.8h-24.6v-43.7h5.2" class="st37"/>
    <g>
      <path d="M186.6 253.1h4.6v39.6" class="st37"/>
      <path d="M188.2 291.8l3 5.2 3-5.2z" class="st31"/>
    </g>
    <circle cx="183.4" cy="296.9" r="2.2" class="st37"/>
    <path d="M163.6 249.2v6.7M173.4 249.2v6.7M183.6 249.2v6.7" class="st33"/>
    <g>
      <circle cx="173.4" cy="269.3" r="4.9" class="st35"/>
      <path d="M176.9 277.1c2.6 0 4.7 2.1 4.7 4.7v4.6h-16.2v-4.6c0-2.6 2.1-4.7 4.7-4.7h6.8z" class="st35"/>
    </g>
    <path d="M106 64.3h20l-5.1 13.5M109.5 87.1H90.4l-8.7-22.8h19M84.4 64.3l7.4-13.5M123.4 64.3l-7.3-13.5M92.7 68.8l3.4 13.9M114.6 68.8l-2 9M103.9 68.8v13.5M124.3 86.4v6h-12.5V80h12.5" class="st35"/>
    <path d="M115.3 84.8l3.5 3.5 5.3-5.6" class="st35"/>
    <circle cx="103.4" cy="64.4" r="2.3" class="st35"/>
    <circle cx="228.2" cy="89" r="2.3" class="st39"/>
  </g>
</svg>
