<svg id="Layer_1" data-name="Layer 1" xmlns="http://www.w3.org/2000/svg" viewBox="0 0 1236.23 404.97"><defs><style>.cls-1{fill:#a8d7cd;}.cls-2,.cls-4,.cls-6,.cls-7{fill:none;}.cls-2{stroke:#00b28f;stroke-width:2.23px;}.cls-2,.cls-6,.cls-7{stroke-miterlimit:10;}.cls-3{fill:#00321d;}.cls-4{stroke:#00321d;stroke-miterlimit:10;}.cls-4,.cls-7{stroke-width:3px;}.cls-5{fill:#d8e7da;}.cls-6,.cls-7{stroke:#a8d7cd;}.cls-6{stroke-width:2.05px;}</style></defs><title>design-and-engineering</title><polygon class="cls-1" points="414.13 0.04 414.13 405 822.1 405 822.1 0.13 414.13 0.04"/><line class="cls-2" x1="434.23" y1="171.03" x2="804" y2="172.16"/><path class="cls-3" d="M561.42,78.65a36.2,36.2,0,0,1,6.36-.47c3.05,0,5.28.64,6.74,1.86a6.45,6.45,0,0,1,2.23,5,6.93,6.93,0,0,1-2,5.18c-1.66,1.66-4.27,2.44-7.21,2.44a11.8,11.8,0,0,1-2-.14v8.6h-4.13Zm4.13,10.63a8.15,8.15,0,0,0,2,.17c3.11,0,5-1.52,5-4.2s-1.76-3.89-4.64-3.89a11.64,11.64,0,0,0-2.4.2Z"/><path class="cls-3" d="M579.77,90c0-2.23,0-3.82-.14-5.31h3.62l.14,3.14h.13A4.94,4.94,0,0,1,588,84.3a4.26,4.26,0,0,1,1,.11v3.92a5.69,5.69,0,0,0-1.22-.13,3.66,3.66,0,0,0-3.72,3.14,7.08,7.08,0,0,0-.14,1.29v8.53h-4.16Z"/><path class="cls-3" d="M607.18,92.77c0,6-4.26,8.76-8.46,8.76-4.67,0-8.26-3.21-8.26-8.49S594,84.3,599,84.3,607.18,87.76,607.18,92.77Zm-12.42.17c0,3.18,1.56,5.58,4.1,5.58,2.37,0,4-2.34,4-5.65,0-2.58-1.16-5.52-4-5.52S594.76,90.19,594.76,92.94Z"/><path class="cls-3" d="M625.8,77.13V96.52c0,1.69.07,3.52.14,4.64h-3.73L622,98.55H622a5.93,5.93,0,0,1-5.38,3c-3.93,0-7-3.35-7-8.43,0-5.51,3.41-8.8,7.37-8.8a5.25,5.25,0,0,1,4.64,2.17h.07V77.13Zm-4.16,14.42a6.7,6.7,0,0,0-.1-1.09A3.64,3.64,0,0,0,618,87.52c-2.67,0-4.16,2.37-4.16,5.45s1.49,5.21,4.13,5.21a3.66,3.66,0,0,0,3.58-2.94,4.75,4.75,0,0,0,.14-1.22Z"/><path class="cls-3" d="M645,96.22c0,2,.07,3.59.13,4.94h-3.65l-.2-2.51h-.07a6,6,0,0,1-5.28,2.88c-3,0-5.75-1.79-5.75-7.17V84.68h4.16v9c0,2.74.88,4.5,3.08,4.5a3.51,3.51,0,0,0,3.18-2.24,3.89,3.89,0,0,0,.24-1.28V84.68H645Z"/><path class="cls-3" d="M661.65,100.65a12,12,0,0,1-4.67.85c-5.14,0-8.5-3.29-8.5-8.4,0-4.94,3.39-8.8,9.18-8.8a10.33,10.33,0,0,1,4,.78l-.74,3.12a7.26,7.26,0,0,0-3.15-.65c-3.18,0-5.07,2.34-5,5.35,0,3.39,2.2,5.31,5,5.31a8.08,8.08,0,0,0,3.28-.64Z"/><path class="cls-3" d="M670,80v4.71h4v3.11h-4v7.28c0,2,.54,3,2.13,3a6.22,6.22,0,0,0,1.63-.2l.07,3.18a9.1,9.1,0,0,1-3,.41,4.8,4.8,0,0,1-3.58-1.36c-.88-.94-1.29-2.43-1.29-4.6V87.79h-2.37V84.68H666V81Z"/><path class="cls-3" d="M681.56,80.07a2.21,2.21,0,0,1-2.37,2.24,2.19,2.19,0,0,1-2.3-2.24,2.34,2.34,0,0,1,4.67,0Zm-4.44,21.09V84.68h4.2v16.48Z"/><path class="cls-3" d="M688.43,84.68,691.1,93c.48,1.45.81,2.77,1.12,4.13h.1c.3-1.36.68-2.64,1.12-4.13l2.6-8.36h4.4l-6.29,16.48h-4.1l-6.12-16.48Z"/><path class="cls-3" d="M707.42,80.07a2.21,2.21,0,0,1-2.37,2.24,2.19,2.19,0,0,1-2.3-2.24,2.34,2.34,0,0,1,4.67,0ZM703,101.16V84.68h4.2v16.48Z"/><path class="cls-3" d="M716.42,80v4.71h4v3.11h-4v7.28c0,2,.54,3,2.13,3a6.22,6.22,0,0,0,1.63-.2l.07,3.18a9.1,9.1,0,0,1-3,.41,4.8,4.8,0,0,1-3.58-1.36c-.88-.94-1.29-2.43-1.29-4.6V87.79H710V84.68h2.37V81Z"/><path class="cls-3" d="M726.37,84.68l3,8.83c.34,1,.68,2.27.92,3.22h.1c.27-1,.57-2.17.88-3.25l2.57-8.8h4.47l-4.13,11.23c-2.27,6.16-3.79,8.9-5.75,10.6a8.47,8.47,0,0,1-4.37,2.13l-.95-3.52a7.18,7.18,0,0,0,2.44-1.15,7.3,7.3,0,0,0,2.27-2.61,1.77,1.77,0,0,0,.27-.74,1.79,1.79,0,0,0-.24-.81l-6-15.13Z"/><path class="cls-3" d="M491.9,221.88l-5.58-17.12h2.38l2.67,8.43c.74,2.31,1.37,4.39,1.83,6.4h.05c.48-2,1.19-4.14,1.95-6.37l2.9-8.46h2.36l-6.12,17.12Z"/><path class="cls-3" d="M504.32,206.13a1.39,1.39,0,0,1-2.77,0,1.36,1.36,0,0,1,1.4-1.39A1.33,1.33,0,0,1,504.32,206.13Zm-2.49,15.75V209.59h2.23v12.29Z"/><path class="cls-3" d="M507.46,219.59a5.91,5.91,0,0,0,3,.89c1.63,0,2.39-.81,2.39-1.83s-.64-1.65-2.29-2.26c-2.21-.79-3.25-2-3.25-3.48,0-2,1.6-3.6,4.24-3.6a6.05,6.05,0,0,1,3,.76l-.56,1.62a4.81,4.81,0,0,0-2.51-.71c-1.32,0-2.06.76-2.06,1.68s.74,1.47,2.34,2.08c2.13.81,3.23,1.88,3.23,3.71,0,2.16-1.68,3.68-4.6,3.68a7,7,0,0,1-3.45-.84Z"/><path class="cls-3" d="M528.11,218.52c0,1.27,0,2.39.1,3.36h-2l-.13-2h-.05a4.62,4.62,0,0,1-4.06,2.28c-1.93,0-4.24-1.06-4.24-5.38v-7.18H520v6.8c0,2.34.71,3.91,2.74,3.91a3.13,3.13,0,0,0,3.15-3.17v-7.54h2.24Z"/><path class="cls-3" d="M538.62,221.88l-.18-1.55h-.08a4.56,4.56,0,0,1-3.75,1.82,3.5,3.5,0,0,1-3.76-3.52c0-3,2.64-4.6,7.39-4.58v-.25a2.54,2.54,0,0,0-2.8-2.84,6.13,6.13,0,0,0-3.2.91l-.5-1.47a7.58,7.58,0,0,1,4-1.09c3.76,0,4.68,2.56,4.68,5v4.6a17.62,17.62,0,0,0,.2,2.95Zm-.33-6.28c-2.44,0-5.21.38-5.21,2.77a2,2,0,0,0,2.11,2.13,3.06,3.06,0,0,0,3-2.05,2.27,2.27,0,0,0,.13-.71Z"/><path class="cls-3" d="M544.05,203.85h2.23v18h-2.23Z"/><path class="cls-3" d="M552.53,206.13a1.39,1.39,0,0,1-2.77,0,1.36,1.36,0,0,1,1.4-1.39A1.32,1.32,0,0,1,552.53,206.13ZM550,221.88V209.59h2.24v12.29Z"/><path class="cls-3" d="M554.58,220.58l5.57-7.24c.53-.66,1-1.24,1.6-1.9v-.05h-6.66v-1.8h9.37l0,1.39L559,218.12c-.51.68-1,1.29-1.57,1.93v0h7.18v1.78h-10Z"/><path class="cls-3" d="M573.65,221.88l-.18-1.55h-.07a4.6,4.6,0,0,1-3.76,1.82,3.5,3.5,0,0,1-3.76-3.52c0-3,2.64-4.6,7.39-4.58v-.25a2.53,2.53,0,0,0-2.79-2.84,6.11,6.11,0,0,0-3.2.91l-.51-1.47a7.65,7.65,0,0,1,4-1.09c3.76,0,4.67,2.56,4.67,5v4.6a17.62,17.62,0,0,0,.2,2.95Zm-.33-6.28c-2.44,0-5.2.38-5.2,2.77a2,2,0,0,0,2.1,2.13,3.07,3.07,0,0,0,3-2.05,2.58,2.58,0,0,0,.12-.71Z"/><path class="cls-3" d="M581.67,206.06v3.53h3.2v1.7h-3.2v6.62c0,1.53.44,2.39,1.68,2.39a5.36,5.36,0,0,0,1.3-.15l.1,1.67a5.41,5.41,0,0,1-2,.31,3.12,3.12,0,0,1-2.42-.94,4.57,4.57,0,0,1-.86-3.2v-6.7h-1.9v-1.7h1.9v-3Z"/><path class="cls-3" d="M589.88,206.13a1.39,1.39,0,0,1-2.77,0,1.36,1.36,0,0,1,1.39-1.39A1.33,1.33,0,0,1,589.88,206.13Zm-2.49,15.75V209.59h2.23v12.29Z"/><path class="cls-3" d="M604.45,215.63c0,4.54-3.15,6.52-6.12,6.52-3.33,0-5.89-2.43-5.89-6.32,0-4.11,2.69-6.52,6.09-6.52S604.45,211.87,604.45,215.63Zm-9.75.13c0,2.69,1.55,4.72,3.73,4.72s3.73-2,3.73-4.77c0-2.09-1-4.73-3.68-4.73S594.7,213.42,594.7,215.76Z"/><path class="cls-3" d="M607.27,212.91c0-1.27,0-2.31-.11-3.32h2l.13,2h.05a4.51,4.51,0,0,1,4.06-2.31c1.71,0,4.35,1,4.35,5.23v7.34h-2.24v-7.09c0-2-.73-3.63-2.84-3.63a3.18,3.18,0,0,0-3,2.29,3.22,3.22,0,0,0-.15,1v7.39h-2.23Z"/><path class="cls-3" d="M490.91,271.88l-1.78,5.38h-2.28l5.81-17.11h2.67l5.84,17.11h-2.36L497,271.88Zm5.61-1.73-1.67-4.92c-.38-1.12-.64-2.13-.89-3.12h0c-.26,1-.53,2.05-.87,3.09l-1.67,4.95Z"/><path class="cls-3" d="M513.92,259.24v14.85c0,1.09,0,2.34.1,3.17h-2l-.1-2.13h-.05a4.56,4.56,0,0,1-4.19,2.41c-3,0-5.26-2.51-5.26-6.24,0-4.09,2.52-6.6,5.51-6.6a4.11,4.11,0,0,1,3.71,1.87h.05v-7.33ZM511.68,270a3.76,3.76,0,0,0-.1-.94,3.29,3.29,0,0,0-3.23-2.59c-2.31,0-3.68,2-3.68,4.75,0,2.48,1.22,4.54,3.63,4.54a3.36,3.36,0,0,0,3.28-2.67,3.68,3.68,0,0,0,.1-1Z"/><path class="cls-3" d="M528.23,259.24v14.85c0,1.09,0,2.34.11,3.17h-2l-.1-2.13h-.05a4.56,4.56,0,0,1-4.19,2.41c-3,0-5.26-2.51-5.26-6.24,0-4.09,2.52-6.6,5.51-6.6a4.11,4.11,0,0,1,3.71,1.87h0v-7.33ZM526,270a4.29,4.29,0,0,0-.1-.94,3.29,3.29,0,0,0-3.23-2.59c-2.31,0-3.68,2-3.68,4.75,0,2.48,1.22,4.54,3.63,4.54a3.36,3.36,0,0,0,3.28-2.67,4.16,4.16,0,0,0,.1-1Z"/><path class="cls-3" d="M534.43,261.52a1.39,1.39,0,0,1-2.77,0,1.36,1.36,0,0,1,1.4-1.39A1.32,1.32,0,0,1,534.43,261.52Zm-2.49,15.74V265h2.23v12.29Z"/><path class="cls-3" d="M540.57,261.45V265h3.2v1.71h-3.2v6.62c0,1.53.43,2.39,1.68,2.39a5.27,5.27,0,0,0,1.29-.15l.1,1.67a5.37,5.37,0,0,1-2,.31,3.1,3.1,0,0,1-2.41-.94,4.57,4.57,0,0,1-.86-3.2v-6.7h-1.91V265h1.91V262Z"/><path class="cls-3" d="M548.77,261.52a1.31,1.31,0,0,1-1.42,1.37,1.33,1.33,0,0,1-1.35-1.37,1.36,1.36,0,0,1,1.4-1.39A1.32,1.32,0,0,1,548.77,261.52Zm-2.49,15.74V265h2.24v12.29Z"/><path class="cls-3" d="M553.09,265l2.41,6.91a29.62,29.62,0,0,1,1,3.15h.08c.28-1,.63-2,1-3.15L560,265h2.34l-4.82,12.29h-2.14L550.7,265Z"/><path class="cls-3" d="M565.43,271.53c.05,3,2,4.26,4.21,4.26a8.14,8.14,0,0,0,3.4-.63l.38,1.6a10,10,0,0,1-4.08.76c-3.79,0-6.05-2.49-6.05-6.2s2.19-6.62,5.77-6.62c4,0,5.08,3.52,5.08,5.78a9.63,9.63,0,0,1-.08,1Zm6.55-1.6c0-1.43-.59-3.64-3.1-3.64-2.26,0-3.25,2.09-3.43,3.64Z"/><path class="cls-3" d="M582.28,268.3c0-1.27,0-2.31-.1-3.33h2l.1,2h.08a4.21,4.21,0,0,1,3.85-2.26,3.62,3.62,0,0,1,3.48,2.46h.05a5,5,0,0,1,1.38-1.6,4.15,4.15,0,0,1,2.71-.86c1.63,0,4,1.06,4,5.33v7.23h-2.18v-6.95c0-2.36-.87-3.79-2.67-3.79a2.89,2.89,0,0,0-2.64,2,3.81,3.81,0,0,0-.18,1.12v7.59H590V269.9c0-1.95-.87-3.38-2.57-3.38a3,3,0,0,0-2.76,2.24,3,3,0,0,0-.18,1.09v7.41h-2.19Z"/><path class="cls-3" d="M610.26,277.26l-.18-1.55H610a4.58,4.58,0,0,1-3.76,1.83,3.5,3.5,0,0,1-3.76-3.53c0-3,2.64-4.59,7.39-4.57v-.25a2.53,2.53,0,0,0-2.79-2.84,6.11,6.11,0,0,0-3.2.91l-.51-1.47a7.65,7.65,0,0,1,4-1.09c3.76,0,4.67,2.56,4.67,5v4.6a17.49,17.49,0,0,0,.2,2.94Zm-.33-6.27c-2.43-.05-5.2.38-5.2,2.77a2,2,0,0,0,2.1,2.13,3.07,3.07,0,0,0,3-2.05,2.58,2.58,0,0,0,.12-.71Z"/><path class="cls-3" d="M615.7,268.3c0-1.27,0-2.31-.11-3.33h2l.13,2h0a4.51,4.51,0,0,1,4.06-2.31c1.71,0,4.35,1,4.35,5.23v7.33h-2.24v-7.08c0-2-.73-3.63-2.84-3.63a3.18,3.18,0,0,0-3,2.28,3.28,3.28,0,0,0-.15,1.05v7.38H615.7Z"/><path class="cls-3" d="M640.07,273.91c0,1.27,0,2.39.1,3.35h-2l-.13-2h0a4.62,4.62,0,0,1-4.06,2.28c-1.93,0-4.24-1.06-4.24-5.38V265h2.23v6.81c0,2.34.72,3.91,2.75,3.91a3.13,3.13,0,0,0,3.14-3.17V265h2.24Z"/><path class="cls-3" d="M644,277.26V266.68h-1.72V265H644v-.58a5.75,5.75,0,0,1,1.43-4.29,4.26,4.26,0,0,1,3-1.14,5.2,5.2,0,0,1,1.91.35L650,261a3.38,3.38,0,0,0-1.42-.28c-1.9,0-2.39,1.68-2.39,3.55V265h3v1.71h-3v10.58Z"/><path class="cls-3" d="M658,277.26l-.17-1.55h-.08a4.58,4.58,0,0,1-3.76,1.83,3.5,3.5,0,0,1-3.76-3.53c0-3,2.64-4.59,7.39-4.57v-.25a2.53,2.53,0,0,0-2.79-2.84,6.11,6.11,0,0,0-3.2.91l-.51-1.47a7.65,7.65,0,0,1,4-1.09c3.76,0,4.67,2.56,4.67,5v4.6a17.49,17.49,0,0,0,.2,2.94Zm-.33-6.27c-2.43-.05-5.2.38-5.2,2.77a2,2,0,0,0,2.11,2.13,3.06,3.06,0,0,0,3-2.05,2.58,2.58,0,0,0,.12-.71Z"/><path class="cls-3" d="M672.19,276.81a8.33,8.33,0,0,1-3.53.71c-3.71,0-6.12-2.52-6.12-6.27a6.24,6.24,0,0,1,6.6-6.53,7.39,7.39,0,0,1,3.1.64l-.51,1.72a5.23,5.23,0,0,0-2.59-.58c-2.82,0-4.34,2.08-4.34,4.64,0,2.85,1.83,4.6,4.26,4.6a6.31,6.31,0,0,0,2.74-.61Z"/><path class="cls-3" d="M677.82,261.45V265H681v1.71h-3.2v6.62c0,1.53.43,2.39,1.68,2.39a5.27,5.27,0,0,0,1.29-.15l.1,1.67a5.37,5.37,0,0,1-2,.31,3.09,3.09,0,0,1-2.41-.94,4.57,4.57,0,0,1-.86-3.2v-6.7h-1.91V265h1.91V262Z"/><path class="cls-3" d="M693.82,273.91c0,1.27,0,2.39.1,3.35h-2l-.13-2h0a4.62,4.62,0,0,1-4.06,2.28c-1.93,0-4.24-1.06-4.24-5.38V265h2.23v6.81c0,2.34.71,3.91,2.74,3.91a3.13,3.13,0,0,0,3.15-3.17V265h2.24Z"/><path class="cls-3" d="M697.52,268.81c0-1.45,0-2.69-.1-3.84h2l.07,2.42h.1A3.69,3.69,0,0,1,703,264.7a2.43,2.43,0,0,1,.63.07v2.11a3.41,3.41,0,0,0-.76-.08,3.14,3.14,0,0,0-3,2.87,6.44,6.44,0,0,0-.1,1v6.55h-2.21Z"/><path class="cls-3" d="M708.41,261.52a1.31,1.31,0,0,1-1.42,1.37,1.33,1.33,0,0,1-1.34-1.37,1.35,1.35,0,0,1,1.39-1.39A1.32,1.32,0,0,1,708.41,261.52Zm-2.48,15.74V265h2.23v12.29Z"/><path class="cls-3" d="M711.87,268.3c0-1.27,0-2.31-.11-3.33h2l.12,2h0A4.52,4.52,0,0,1,718,264.7c1.7,0,4.34,1,4.34,5.23v7.33h-2.24v-7.08c0-2-.73-3.63-2.84-3.63a3.18,3.18,0,0,0-3,2.28,3.28,3.28,0,0,0-.15,1.05v7.38h-2.23Z"/><path class="cls-3" d="M736.54,265c0,.89-.1,1.88-.1,3.38v7.14c0,2.81-.56,4.54-1.75,5.61a6.54,6.54,0,0,1-4.47,1.47,8,8,0,0,1-4.09-1l.56-1.7a7,7,0,0,0,3.61,1c2.28,0,4-1.19,4-4.29v-1.37h0a4.4,4.4,0,0,1-3.91,2c-3,0-5.23-2.59-5.23-6,0-4.16,2.72-6.52,5.53-6.52a4.09,4.09,0,0,1,3.84,2.13h0l.1-1.86Zm-2.31,4.85a3.18,3.18,0,0,0-.12-1,3.22,3.22,0,0,0-3.13-2.36c-2.13,0-3.65,1.8-3.65,4.64,0,2.42,1.22,4.42,3.63,4.42a3.27,3.27,0,0,0,3.1-2.28,4.14,4.14,0,0,0,.17-1.2Z"/><path class="cls-3" d="M500.1,332.09a10.84,10.84,0,0,1-4.52.82c-4.82,0-8.45-3.05-8.45-8.66,0-5.36,3.63-9,8.94-9a9.27,9.27,0,0,1,4.06.76l-.53,1.8a8.19,8.19,0,0,0-3.46-.71c-4,0-6.68,2.57-6.68,7.06,0,4.19,2.42,6.88,6.58,6.88a8.88,8.88,0,0,0,3.61-.71Z"/><path class="cls-3" d="M513.63,326.41c0,4.54-3.14,6.52-6.11,6.52-3.33,0-5.89-2.44-5.89-6.32,0-4.11,2.69-6.53,6.09-6.53S513.63,322.65,513.63,326.41Zm-9.75.12c0,2.69,1.55,4.73,3.74,4.73s3.73-2,3.73-4.78c0-2.08-1-4.72-3.68-4.72S503.88,324.2,503.88,326.53Z"/><path class="cls-3" d="M516.45,323.69c0-1.27,0-2.31-.1-3.33h2l.13,2h0a4.53,4.53,0,0,1,4.06-2.31c1.7,0,4.34,1,4.34,5.23v7.34h-2.23v-7.08c0-2-.74-3.63-2.85-3.63a3.17,3.17,0,0,0-3,2.28,3.26,3.26,0,0,0-.15,1v7.39h-2.24Z"/><path class="cls-3" d="M539.3,332.19a8.11,8.11,0,0,1-3.53.72c-3.7,0-6.12-2.52-6.12-6.28a6.24,6.24,0,0,1,6.61-6.52,7.52,7.52,0,0,1,3.09.63l-.5,1.73a5.29,5.29,0,0,0-2.59-.58c-2.82,0-4.35,2.08-4.35,4.64,0,2.85,1.83,4.6,4.27,4.6a6.31,6.31,0,0,0,2.74-.61Z"/><path class="cls-3" d="M543,326.91c0,3,2,4.27,4.21,4.27a8,8,0,0,0,3.41-.64l.38,1.6a9.85,9.85,0,0,1-4.09.77c-3.78,0-6-2.49-6-6.2s2.18-6.63,5.76-6.63c4,0,5.08,3.53,5.08,5.79a7.3,7.3,0,0,1-.08,1Zm6.55-1.6c0-1.42-.58-3.63-3.1-3.63-2.26,0-3.25,2.09-3.42,3.63Z"/><path class="cls-3" d="M554.48,324.37c0-1.57-.05-2.84-.1-4h2l.1,2.11h0a4.84,4.84,0,0,1,4.37-2.39c3,0,5.2,2.52,5.2,6.25,0,4.42-2.69,6.6-5.58,6.6a4.32,4.32,0,0,1-3.79-1.93h0v6.68h-2.21Zm2.21,3.28a5.07,5.07,0,0,0,.1.91,3.46,3.46,0,0,0,3.36,2.62c2.36,0,3.73-1.93,3.73-4.75,0-2.46-1.3-4.57-3.66-4.57a3.56,3.56,0,0,0-3.37,2.77,3.47,3.47,0,0,0-.16.91Z"/><path class="cls-3" d="M571.62,316.83v3.53h3.2v1.7h-3.2v6.63c0,1.52.43,2.39,1.68,2.39a5.27,5.27,0,0,0,1.29-.15l.1,1.67a5.37,5.37,0,0,1-2,.31,3.09,3.09,0,0,1-2.41-.94,4.59,4.59,0,0,1-.86-3.2v-6.71h-1.91v-1.7h1.91v-2.94Z"/><path class="cls-3" d="M587.62,329.3c0,1.27,0,2.39.1,3.35h-2l-.13-2h-.05a4.62,4.62,0,0,1-4.06,2.28c-1.93,0-4.24-1.07-4.24-5.38v-7.19h2.23v6.81c0,2.33.71,3.91,2.74,3.91a3.13,3.13,0,0,0,3.15-3.18v-7.54h2.24Z"/><path class="cls-3" d="M598.13,332.65,598,331.1h-.08a4.54,4.54,0,0,1-3.75,1.83,3.5,3.5,0,0,1-3.76-3.53c0-3,2.64-4.59,7.39-4.57v-.25a2.54,2.54,0,0,0-2.8-2.85,6.14,6.14,0,0,0-3.2.92l-.5-1.47a7.59,7.59,0,0,1,4-1.1c3.76,0,4.68,2.57,4.68,5v4.6a17.57,17.57,0,0,0,.2,2.94Zm-.33-6.27c-2.44-.05-5.21.38-5.21,2.77a2,2,0,0,0,2.11,2.13,3.05,3.05,0,0,0,3-2.06,2.17,2.17,0,0,0,.13-.71Z"/><path class="cls-3" d="M603.56,314.62h2.23v18h-2.23Z"/><path class="cls-3" d="M625.55,314.62v14.86c0,1.09,0,2.33.1,3.17h-2l-.1-2.13h0a4.55,4.55,0,0,1-4.19,2.41c-3,0-5.26-2.51-5.26-6.24,0-4.09,2.52-6.61,5.51-6.61a4.12,4.12,0,0,1,3.71,1.88h0v-7.34Zm-2.24,10.74a3.68,3.68,0,0,0-.1-.93,3.28,3.28,0,0,0-3.22-2.59c-2.31,0-3.69,2-3.69,4.74,0,2.49,1.22,4.55,3.64,4.55a3.36,3.36,0,0,0,3.27-2.67,3.68,3.68,0,0,0,.1-1Z"/><path class="cls-3" d="M630.5,326.91c0,3,2,4.27,4.21,4.27a8,8,0,0,0,3.4-.64l.38,1.6a9.8,9.8,0,0,1-4.08.77c-3.79,0-6-2.49-6-6.2s2.19-6.63,5.77-6.63c4,0,5.08,3.53,5.08,5.79a9.19,9.19,0,0,1-.08,1Zm6.55-1.6c0-1.42-.59-3.63-3.1-3.63-2.26,0-3.25,2.09-3.43,3.63Z"/><path class="cls-3" d="M641.67,330.37a5.87,5.87,0,0,0,2.94.89c1.63,0,2.39-.82,2.39-1.83s-.63-1.65-2.29-2.26c-2.2-.79-3.25-2-3.25-3.48,0-2,1.6-3.61,4.25-3.61a6.11,6.11,0,0,1,3,.77l-.56,1.62a4.82,4.82,0,0,0-2.52-.71c-1.32,0-2,.76-2,1.68s.73,1.47,2.33,2.08c2.14.81,3.23,1.88,3.23,3.7,0,2.16-1.68,3.69-4.6,3.69a7,7,0,0,1-3.45-.84Z"/><path class="cls-3" d="M654.51,316.91a1.38,1.38,0,0,1-2.76,0,1.36,1.36,0,0,1,1.39-1.4A1.33,1.33,0,0,1,654.51,316.91ZM652,332.65V320.36h2.23v12.29Z"/><path class="cls-3" d="M668.55,320.36c0,.89-.1,1.88-.1,3.38v7.13c0,2.82-.56,4.55-1.75,5.62a6.54,6.54,0,0,1-4.47,1.47,8,8,0,0,1-4.09-1l.56-1.7a7,7,0,0,0,3.61,1c2.28,0,4-1.2,4-4.29v-1.38h0a4.38,4.38,0,0,1-3.91,2.06c-3,0-5.23-2.59-5.23-6,0-4.17,2.71-6.53,5.53-6.53a4.09,4.09,0,0,1,3.84,2.14h0l.1-1.86Zm-2.31,4.85a3.18,3.18,0,0,0-.12-1,3.22,3.22,0,0,0-3.13-2.36c-2.13,0-3.65,1.8-3.65,4.64,0,2.41,1.22,4.42,3.63,4.42a3.27,3.27,0,0,0,3.1-2.29,4.08,4.08,0,0,0,.17-1.19Z"/><path class="cls-3" d="M672,323.69c0-1.27,0-2.31-.1-3.33h2l.12,2h0a4.54,4.54,0,0,1,4.07-2.31c1.7,0,4.34,1,4.34,5.23v7.34h-2.24v-7.08c0-2-.73-3.63-2.84-3.63a3.18,3.18,0,0,0-3,2.28,3.26,3.26,0,0,0-.15,1v7.39H672Z"/><path class="cls-3" d="M698.28,332.65l-.17-1.55H698a4.58,4.58,0,0,1-3.76,1.83,3.5,3.5,0,0,1-3.76-3.53c0-3,2.65-4.59,7.39-4.57v-.25a2.54,2.54,0,0,0-2.79-2.85,6.11,6.11,0,0,0-3.2.92l-.51-1.47a7.65,7.65,0,0,1,4-1.1c3.76,0,4.67,2.57,4.67,5v4.6a16.51,16.51,0,0,0,.21,2.94Zm-.33-6.27c-2.43-.05-5.2.38-5.2,2.77a2,2,0,0,0,2.11,2.13,3.05,3.05,0,0,0,3-2.06,2.46,2.46,0,0,0,.12-.71Z"/><path class="cls-3" d="M703.72,323.69c0-1.27,0-2.31-.1-3.33h2l.12,2h0a4.54,4.54,0,0,1,4.07-2.31c1.7,0,4.34,1,4.34,5.23v7.34h-2.24v-7.08c0-2-.73-3.63-2.84-3.63a3.18,3.18,0,0,0-3,2.28,3.26,3.26,0,0,0-.15,1v7.39h-2.23Z"/><path class="cls-3" d="M728.42,314.62v14.86c0,1.09,0,2.33.1,3.17h-2l-.1-2.13h-.06a4.54,4.54,0,0,1-4.19,2.41c-3,0-5.25-2.51-5.25-6.24,0-4.09,2.51-6.61,5.51-6.61a4.12,4.12,0,0,1,3.71,1.88h.05v-7.34Zm-2.23,10.74a3.69,3.69,0,0,0-.11-.93,3.27,3.27,0,0,0-3.22-2.59c-2.31,0-3.68,2-3.68,4.74,0,2.49,1.22,4.55,3.63,4.55a3.35,3.35,0,0,0,3.27-2.67,3.67,3.67,0,0,0,.11-1Z"/><path class="cls-3" d="M488.07,349.08c0-1.27,0-2.31-.1-3.33h1.95l.1,2h.08a4.24,4.24,0,0,1,3.86-2.26,3.65,3.65,0,0,1,3.48,2.47h.05a5,5,0,0,1,1.37-1.6,4.2,4.2,0,0,1,2.72-.87c1.62,0,4,1.07,4,5.33V358h-2.18v-7c0-2.36-.86-3.78-2.67-3.78a2.89,2.89,0,0,0-2.64,2,3.77,3.77,0,0,0-.17,1.12V358h-2.19v-7.36c0-2-.86-3.38-2.56-3.38a3.33,3.33,0,0,0-2.95,3.33V358h-2.18Z"/><path class="cls-3" d="M520.36,351.79c0,4.55-3.15,6.53-6.12,6.53-3.32,0-5.89-2.44-5.89-6.32,0-4.12,2.69-6.53,6.1-6.53S520.36,348,520.36,351.79Zm-9.75.13c0,2.69,1.55,4.72,3.74,4.72s3.73-2,3.73-4.77c0-2.08-1-4.72-3.68-4.72S510.61,349.59,510.61,351.92Z"/><path class="cls-3" d="M533.79,340v14.86c0,1.09,0,2.33.11,3.17h-2l-.1-2.13h0a4.56,4.56,0,0,1-4.19,2.41c-3,0-5.26-2.51-5.26-6.25,0-4.08,2.52-6.6,5.51-6.6a4.12,4.12,0,0,1,3.71,1.88h0V340Zm-2.23,10.74a4.29,4.29,0,0,0-.1-.94,3.29,3.29,0,0,0-3.23-2.59c-2.31,0-3.68,2-3.68,4.75,0,2.49,1.22,4.55,3.63,4.55a3.36,3.36,0,0,0,3.28-2.67,4.16,4.16,0,0,0,.1-1Z"/><path class="cls-3" d="M538.74,352.3c0,3,2,4.27,4.22,4.27a8,8,0,0,0,3.4-.64l.38,1.6a9.85,9.85,0,0,1-4.09.76c-3.78,0-6-2.48-6-6.19s2.18-6.63,5.77-6.63c4,0,5.07,3.53,5.07,5.79a10,10,0,0,1-.07,1Zm6.55-1.6c0-1.42-.58-3.63-3.09-3.63-2.26,0-3.25,2.08-3.43,3.63Z"/><path class="cls-3" d="M550.22,340h2.23v18h-2.23Z"/><path class="cls-3" d="M558.7,342.3a1.39,1.39,0,0,1-2.77,0,1.37,1.37,0,0,1,1.4-1.4A1.33,1.33,0,0,1,558.7,342.3ZM556.21,358V345.75h2.24V358Z"/><path class="cls-3" d="M562.15,349.08c0-1.27,0-2.31-.1-3.33h2l.13,2h.05a4.51,4.51,0,0,1,4.06-2.31c1.7,0,4.34,1,4.34,5.23V358h-2.23V351c0-2-.74-3.63-2.85-3.63a3.17,3.17,0,0,0-3,2.28,3.26,3.26,0,0,0-.15,1V358h-2.24Z"/><path class="cls-3" d="M586.83,345.75c-.05.89-.1,1.88-.1,3.38v7.13c0,2.82-.56,4.55-1.75,5.61a6.52,6.52,0,0,1-4.47,1.48,8,8,0,0,1-4.09-1l.56-1.7a6.89,6.89,0,0,0,3.6,1c2.29,0,4-1.2,4-4.3v-1.37h0a4.36,4.36,0,0,1-3.91,2.06c-3,0-5.23-2.59-5.23-6,0-4.17,2.72-6.53,5.54-6.53a4.09,4.09,0,0,1,3.83,2.13h0l.11-1.85Zm-2.31,4.85a3.17,3.17,0,0,0-.13-1,3.22,3.22,0,0,0-3.12-2.37c-2.13,0-3.66,1.81-3.66,4.65,0,2.41,1.22,4.42,3.63,4.42a3.25,3.25,0,0,0,3.1-2.29,3.78,3.78,0,0,0,.18-1.19Z"/><circle class="cls-4" cx="459.48" cy="215.04" r="4.5"/><circle class="cls-4" cx="459.48" cy="270.35" r="4.5"/><circle class="cls-4" cx="459.48" cy="324.66" r="4.5"/><polygon class="cls-5" points="828.26 0.15 828.26 404.91 1236.23 404.91 1236.23 0.04 828.26 0.15"/><line class="cls-6" x1="844.08" y1="171.03" x2="1213.85" y2="170.96"/><path class="cls-3" d="M960.83,104.81a90.31,90.31,0,0,1-8.91-2.94,6.09,6.09,0,0,0-1.48-.34c-5.28-.27-10-4.16-10-11.57,0-7,4.37-12,10.9-12s10.52,5.07,10.52,11.5c0,5.52-2.53,9.21-5.88,10.53v.13c2,.55,4.16,1,6,1.39Zm-3.36-15.12c0-4.37-2.13-8.36-6.26-8.36s-6.39,4-6.36,8.53,2.3,8.32,6.3,8.32S957.47,94.46,957.47,89.69Z"/><path class="cls-3" d="M980.19,96.22c0,2,.07,3.59.13,4.94h-3.65l-.2-2.51h-.07a6,6,0,0,1-5.28,2.88c-3,0-5.75-1.79-5.75-7.17V84.68h4.16v9c0,2.74.88,4.5,3.08,4.5a3.51,3.51,0,0,0,3.18-2.24,3.89,3.89,0,0,0,.24-1.28V84.68h4.16Z"/><path class="cls-3" d="M994,101.16l-.27-1.83h-.11a6.1,6.1,0,0,1-4.87,2.2,4.89,4.89,0,0,1-5.18-4.91c0-4.16,3.69-6.26,9.78-6.22v-.27c0-1.09-.44-2.88-3.35-2.88a8.75,8.75,0,0,0-4.43,1.22l-.81-2.71a11.91,11.91,0,0,1,5.95-1.46c5.28,0,6.81,3.36,6.81,6.94v6a26.46,26.46,0,0,0,.23,4Zm-.54-8.06c-2.95-.06-5.76.58-5.76,3.08A2.18,2.18,0,0,0,990,98.55a3.37,3.37,0,0,0,3.25-2.26,3.12,3.12,0,0,0,.14-.92Z"/><path class="cls-3" d="M1001.89,77.13h4.2v24h-4.2Z"/><path class="cls-3" d="M1015,80.07a2.34,2.34,0,1,1-2.33-2.26A2.2,2.2,0,0,1,1015,80.07Zm-4.43,21.09V84.68h4.2v16.48Z"/><path class="cls-3" d="M1024,80v4.71h4v3.11h-4v7.28c0,2,.54,3,2.13,3a6.19,6.19,0,0,0,1.62-.2l.07,3.18a9,9,0,0,1-3,.41,4.82,4.82,0,0,1-3.59-1.36c-.88-.94-1.28-2.43-1.28-4.6V87.79h-2.37V84.68H1020V81Z"/><path class="cls-3" d="M1034,84.68l3,8.83c.34,1,.67,2.27.91,3.22h.1c.27-1,.58-2.17.88-3.25l2.58-8.8h4.46l-4.13,11.23c-2.26,6.16-3.79,8.9-5.75,10.6a8.44,8.44,0,0,1-4.37,2.13l-.94-3.52a7.06,7.06,0,0,0,2.43-1.15,7.21,7.21,0,0,0,2.27-2.61,1.64,1.64,0,0,0,.27-.74,1.67,1.67,0,0,0-.24-.81l-6-15.13Z"/><path class="cls-3" d="M900.46,205a26.49,26.49,0,0,1,4.24-.33,7,7,0,0,1,4.8,1.43,4.59,4.59,0,0,1,1.5,3.58,5,5,0,0,1-1.32,3.65,7.07,7.07,0,0,1-5.23,1.88,7.48,7.48,0,0,1-1.78-.15v6.86h-2.21Zm2.21,8.26a7.79,7.79,0,0,0,1.83.17c2.67,0,4.29-1.29,4.29-3.65s-1.6-3.35-4-3.35a9.5,9.5,0,0,0-2.08.17Z"/><path class="cls-3" d="M913.49,213.42c0-1.45,0-2.69-.11-3.83h2l.08,2.41h.1a3.68,3.68,0,0,1,3.4-2.69,2.43,2.43,0,0,1,.63.07v2.11a3.28,3.28,0,0,0-.76-.08,3.13,3.13,0,0,0-3,2.87,6.44,6.44,0,0,0-.1,1v6.56h-2.21Z"/><path class="cls-3" d="M932.66,215.63c0,4.54-3.15,6.52-6.12,6.52-3.33,0-5.89-2.43-5.89-6.32,0-4.11,2.69-6.52,6.09-6.52S932.66,211.87,932.66,215.63Zm-9.75.13c0,2.69,1.54,4.72,3.73,4.72s3.73-2,3.73-4.77c0-2.09-1-4.73-3.68-4.73S922.91,213.42,922.91,215.76Z"/><path class="cls-3" d="M946.09,203.85V218.7c0,1.09,0,2.34.1,3.18h-2l-.1-2.14H944a4.55,4.55,0,0,1-4.19,2.41c-3,0-5.26-2.51-5.26-6.24,0-4.09,2.52-6.6,5.51-6.6a4.12,4.12,0,0,1,3.71,1.88h.05v-7.34Zm-2.24,10.74a3.76,3.76,0,0,0-.1-.94,3.29,3.29,0,0,0-3.22-2.59c-2.32,0-3.69,2-3.69,4.75,0,2.48,1.22,4.54,3.63,4.54a3.37,3.37,0,0,0,3.28-2.66,3.75,3.75,0,0,0,.1-1Z"/><path class="cls-3" d="M960.08,218.52c0,1.27,0,2.39.1,3.36h-2l-.13-2H958a4.63,4.63,0,0,1-4.06,2.28c-1.93,0-4.24-1.06-4.24-5.38v-7.18H952v6.8c0,2.34.71,3.91,2.74,3.91a3.24,3.24,0,0,0,2.95-2,3.45,3.45,0,0,0,.2-1.14v-7.54h2.24Z"/><path class="cls-3" d="M972.54,221.42a8.3,8.3,0,0,1-3.53.71c-3.71,0-6.12-2.51-6.12-6.27a6.24,6.24,0,0,1,6.6-6.53,7.39,7.39,0,0,1,3.1.64l-.51,1.72a5.23,5.23,0,0,0-2.59-.58c-2.81,0-4.34,2.08-4.34,4.65,0,2.84,1.83,4.59,4.27,4.59a6.31,6.31,0,0,0,2.74-.61Z"/><path class="cls-3" d="M978.18,206.06v3.53h3.2v1.7h-3.2v6.62c0,1.53.43,2.39,1.67,2.39a5.29,5.29,0,0,0,1.3-.15l.1,1.67a5.41,5.41,0,0,1-2,.31,3.09,3.09,0,0,1-2.41-.94A4.52,4.52,0,0,1,976,218v-6.7h-1.9v-1.7H976v-3Z"/><path class="cls-3" d="M992,206.06v3.53h3.2v1.7H992v6.62c0,1.53.43,2.39,1.68,2.39a5.27,5.27,0,0,0,1.29-.15l.1,1.67a5.37,5.37,0,0,1-2,.31,3.09,3.09,0,0,1-2.41-.94,4.57,4.57,0,0,1-.86-3.2v-6.7h-1.91v-1.7h1.91v-3Z"/><path class="cls-3" d="M997.67,213.42c0-1.45,0-2.69-.1-3.83h2l.07,2.41h.11a3.67,3.67,0,0,1,3.4-2.69,2.43,2.43,0,0,1,.63.07v2.11a3.34,3.34,0,0,0-.76-.08,3.15,3.15,0,0,0-3,2.87,6.44,6.44,0,0,0-.1,1v6.56h-2.21Z"/><path class="cls-3" d="M1012.65,221.88l-.17-1.55h-.08a4.6,4.6,0,0,1-3.76,1.82,3.5,3.5,0,0,1-3.76-3.52c0-3,2.64-4.6,7.39-4.58v-.25a2.53,2.53,0,0,0-2.79-2.84,6.11,6.11,0,0,0-3.2.91l-.51-1.47a7.65,7.65,0,0,1,4-1.09c3.76,0,4.67,2.56,4.67,5v4.6a17.62,17.62,0,0,0,.2,2.95Zm-.33-6.28c-2.43,0-5.2.38-5.2,2.77a2,2,0,0,0,2.11,2.13,3.06,3.06,0,0,0,3-2.05,2.58,2.58,0,0,0,.12-.71Z"/><path class="cls-3" d="M1026.85,221.42a8.33,8.33,0,0,1-3.53.71c-3.71,0-6.12-2.51-6.12-6.27a6.24,6.24,0,0,1,6.6-6.53,7.39,7.39,0,0,1,3.1.64l-.51,1.72a5.23,5.23,0,0,0-2.59-.58c-2.82,0-4.34,2.08-4.34,4.65,0,2.84,1.83,4.59,4.26,4.59a6.31,6.31,0,0,0,2.74-.61Z"/><path class="cls-3" d="M1030.55,216.14a3.93,3.93,0,0,0,4.22,4.26,8.17,8.17,0,0,0,3.4-.63l.38,1.6a10.06,10.06,0,0,1-4.09.76c-3.78,0-6-2.49-6-6.2s2.18-6.62,5.76-6.62c4,0,5.08,3.53,5.08,5.79a7.57,7.57,0,0,1-.08,1Zm6.55-1.6c0-1.42-.58-3.63-3.1-3.63-2.25,0-3.25,2.08-3.42,3.63Z"/><path class="cls-3" d="M1048.83,221.88l-.18-1.55h-.07a4.6,4.6,0,0,1-3.76,1.82,3.5,3.5,0,0,1-3.76-3.52c0-3,2.64-4.6,7.39-4.58v-.25a2.53,2.53,0,0,0-2.79-2.84,6.11,6.11,0,0,0-3.2.91l-.51-1.47a7.65,7.65,0,0,1,4-1.09c3.76,0,4.67,2.56,4.67,5v4.6a17.62,17.62,0,0,0,.2,2.95Zm-.33-6.28c-2.44,0-5.2.38-5.2,2.77a2,2,0,0,0,2.1,2.13,3.07,3.07,0,0,0,3-2.05,2.58,2.58,0,0,0,.12-.71Z"/><path class="cls-3" d="M1054.16,221.88c0-.84.1-2.09.1-3.18V203.85h2.21v7.72h0a4.58,4.58,0,0,1,4.19-2.26c3,0,5.21,2.54,5.18,6.27,0,4.39-2.76,6.57-5.51,6.57a4.37,4.37,0,0,1-4.11-2.31h-.08l-.1,2Zm2.31-4.93a3.52,3.52,0,0,0,.11.81,3.44,3.44,0,0,0,3.35,2.62c2.33,0,3.73-1.91,3.73-4.73,0-2.46-1.27-4.57-3.66-4.57a3.57,3.57,0,0,0-3.4,2.75,4.31,4.31,0,0,0-.13.91Z"/><path class="cls-3" d="M1071.2,206.13a1.39,1.39,0,0,1-2.77,0,1.36,1.36,0,0,1,1.4-1.39A1.32,1.32,0,0,1,1071.2,206.13Zm-2.49,15.75V209.59h2.23v12.29Z"/><path class="cls-3" d="M1074.65,203.85h2.23v18h-2.23Z"/><path class="cls-3" d="M1083.13,206.13a1.31,1.31,0,0,1-1.42,1.37,1.33,1.33,0,0,1-1.35-1.37,1.36,1.36,0,0,1,1.4-1.39A1.32,1.32,0,0,1,1083.13,206.13Zm-2.49,15.75V209.59h2.24v12.29Z"/><path class="cls-3" d="M1089.27,206.06v3.53h3.2v1.7h-3.2v6.62c0,1.53.44,2.39,1.68,2.39a5.27,5.27,0,0,0,1.29-.15l.11,1.67a5.45,5.45,0,0,1-2,.31,3.11,3.11,0,0,1-2.42-.94,4.57,4.57,0,0,1-.86-3.2v-6.7h-1.9v-1.7h1.9v-3Z"/><path class="cls-3" d="M1096,209.59l2.69,7.26c.28.81.58,1.78.78,2.51h.06c.22-.73.48-1.67.78-2.56l2.44-7.21h2.36l-3.35,8.76c-1.6,4.21-2.69,6.37-4.21,7.69a6.26,6.26,0,0,1-2.75,1.45l-.56-1.88a6.11,6.11,0,0,0,2-1.09,6.89,6.89,0,0,0,1.88-2.49,1.67,1.67,0,0,0,.18-.54,1.81,1.81,0,0,0-.16-.58l-4.54-11.32Z"/><path class="cls-3" d="M900.21,274.7a7.42,7.42,0,0,0,3.65,1c2.87,0,3.76-1.83,3.74-3.2,0-2.31-2.11-3.3-4.27-3.3h-1.24v-1.68h1.24c1.63,0,3.68-.83,3.68-2.79,0-1.32-.84-2.49-2.89-2.49a6,6,0,0,0-3.3,1.1l-.59-1.63a7.91,7.91,0,0,1,4.32-1.27c3.25,0,4.72,1.93,4.72,3.94a4.09,4.09,0,0,1-3,3.88v.05a4.3,4.3,0,0,1,3.68,4.24c0,2.64-2.06,5-6,5a8.43,8.43,0,0,1-4.29-1.11Z"/><path class="cls-3" d="M913.49,260.38a31.87,31.87,0,0,1,4.69-.36c3.18,0,5.44.74,6.93,2.14a7.84,7.84,0,0,1,2.42,6.14,9,9,0,0,1-2.47,6.65c-1.6,1.6-4.24,2.47-7.56,2.47a34.58,34.58,0,0,1-4-.21Zm2.2,15.13a14.2,14.2,0,0,0,2.24.13c4.72,0,7.29-2.64,7.29-7.26,0-4-2.26-6.6-6.94-6.6a13.26,13.26,0,0,0-2.59.22Z"/><path class="cls-3" d="M935.7,269c0-1.58-.05-2.85-.1-4h2l.11,2.11h0a4.81,4.81,0,0,1,4.36-2.38c3,0,5.21,2.51,5.21,6.24,0,4.42-2.69,6.6-5.59,6.6a4.31,4.31,0,0,1-3.78-1.93h-.05v6.68H935.7Zm2.21,3.27a5.18,5.18,0,0,0,.1.92,3.45,3.45,0,0,0,3.35,2.61c2.36,0,3.73-1.93,3.73-4.75,0-2.46-1.29-4.57-3.65-4.57a3.56,3.56,0,0,0-3.38,2.77,3.47,3.47,0,0,0-.15.91Z"/><path class="cls-3" d="M950.14,268.81c0-1.45,0-2.69-.1-3.84h2l.07,2.42h.11a3.67,3.67,0,0,1,3.4-2.69,2.43,2.43,0,0,1,.63.07v2.11a3.34,3.34,0,0,0-.76-.08,3.13,3.13,0,0,0-3,2.87,5.44,5.44,0,0,0-.11,1v6.55h-2.21Z"/><path class="cls-3" d="M969.31,271c0,4.54-3.14,6.52-6.12,6.52-3.32,0-5.89-2.43-5.89-6.32,0-4.11,2.7-6.52,6.1-6.52S969.31,267.26,969.31,271Zm-9.75.12c0,2.7,1.55,4.73,3.74,4.73s3.73-2,3.73-4.78c0-2.08-1-4.72-3.68-4.72S959.56,268.81,959.56,271.14Z"/><path class="cls-3" d="M982.74,259.24v14.85c0,1.09,0,2.34.11,3.17h-2l-.1-2.13h0a4.56,4.56,0,0,1-4.19,2.41c-3,0-5.26-2.51-5.26-6.24,0-4.09,2.52-6.6,5.51-6.6a4.11,4.11,0,0,1,3.71,1.87h0v-7.33ZM980.51,270a4.29,4.29,0,0,0-.1-.94,3.29,3.29,0,0,0-3.23-2.59c-2.31,0-3.68,2-3.68,4.75,0,2.48,1.22,4.54,3.63,4.54a3.36,3.36,0,0,0,3.28-2.67,4.16,4.16,0,0,0,.1-1Z"/><path class="cls-3" d="M996.73,273.91c0,1.27,0,2.39.1,3.35h-2l-.12-2h-.05a4.63,4.63,0,0,1-4.07,2.28c-1.93,0-4.24-1.06-4.24-5.38V265h2.24v6.81c0,2.34.71,3.91,2.74,3.91a3.24,3.24,0,0,0,2.95-2,3.45,3.45,0,0,0,.2-1.14V265h2.23Z"/><path class="cls-3" d="M1009.2,276.81a8.3,8.3,0,0,1-3.53.71c-3.71,0-6.12-2.52-6.12-6.27a6.24,6.24,0,0,1,6.6-6.53,7.39,7.39,0,0,1,3.1.64l-.51,1.72a5.23,5.23,0,0,0-2.59-.58c-2.82,0-4.34,2.08-4.34,4.64,0,2.85,1.83,4.6,4.27,4.6a6.34,6.34,0,0,0,2.74-.61Z"/><path class="cls-3" d="M1014.83,261.45V265h3.2v1.71h-3.2v6.62c0,1.53.44,2.39,1.68,2.39a5.36,5.36,0,0,0,1.3-.15l.1,1.67a5.41,5.41,0,0,1-2,.31,3.12,3.12,0,0,1-2.42-.94,4.57,4.57,0,0,1-.86-3.2v-6.7h-1.9V265h1.9V262Z"/><path class="cls-3" d="M1036.54,259.24v14.85c0,1.09,0,2.34.1,3.17h-2l-.1-2.13h0a4.56,4.56,0,0,1-4.19,2.41c-3,0-5.26-2.51-5.26-6.24,0-4.09,2.51-6.6,5.51-6.6a4.11,4.11,0,0,1,3.71,1.87h0v-7.33ZM1034.31,270a4.29,4.29,0,0,0-.1-.94,3.29,3.29,0,0,0-3.23-2.59c-2.31,0-3.68,2-3.68,4.75,0,2.48,1.22,4.54,3.63,4.54a3.36,3.36,0,0,0,3.28-2.67,4.16,4.16,0,0,0,.1-1Z"/><path class="cls-3" d="M1041.49,271.53a3.93,3.93,0,0,0,4.22,4.26,8.17,8.17,0,0,0,3.4-.63l.38,1.6a10.06,10.06,0,0,1-4.09.76c-3.78,0-6-2.49-6-6.2s2.18-6.62,5.76-6.62c4,0,5.08,3.52,5.08,5.78a10.2,10.2,0,0,1-.07,1Zm6.55-1.6c0-1.43-.58-3.64-3.09-3.64-2.26,0-3.25,2.09-3.43,3.64Z"/><path class="cls-3" d="M1053.2,277.26V266.68h-1.73V265h1.73v-.66c0-3.25,1.9-5.35,5.35-5.35a6.14,6.14,0,0,1,3.13.81l-.64,1.7a4.7,4.7,0,0,0-2.59-.71c-2.36,0-3,1.65-3,3.61v.6h7.13v12.29h-2.21V266.68h-4.92v10.58Z"/><path class="cls-3" d="M1066.25,268.3c0-1.27,0-2.31-.11-3.33h2l.12,2h0a4.52,4.52,0,0,1,4.07-2.31c1.7,0,4.34,1,4.34,5.23v7.33h-2.24v-7.08c0-2-.73-3.63-2.84-3.63a3.18,3.18,0,0,0-3,2.28,3.28,3.28,0,0,0-.15,1.05v7.38h-2.23Z"/><path class="cls-3" d="M1082.83,261.52a1.39,1.39,0,0,1-2.77,0,1.35,1.35,0,0,1,1.39-1.39A1.33,1.33,0,0,1,1082.83,261.52Zm-2.49,15.74V265h2.23v12.29Z"/><path class="cls-3" d="M1089,261.45V265h3.2v1.71H1089v6.62c0,1.53.43,2.39,1.67,2.39a5.29,5.29,0,0,0,1.3-.15l.1,1.67a5.41,5.41,0,0,1-2,.31,3.09,3.09,0,0,1-2.41-.94,4.53,4.53,0,0,1-.86-3.2v-6.7h-1.91V265h1.91V262Z"/><path class="cls-3" d="M1097.17,261.52a1.39,1.39,0,0,1-2.77,0,1.36,1.36,0,0,1,1.4-1.39A1.32,1.32,0,0,1,1097.17,261.52Zm-2.49,15.74V265h2.24v12.29Z"/><path class="cls-3" d="M1111.74,271c0,4.54-3.15,6.52-6.12,6.52-3.32,0-5.89-2.43-5.89-6.32,0-4.11,2.69-6.52,6.1-6.52S1111.74,267.26,1111.74,271Zm-9.75.12c0,2.7,1.55,4.73,3.73,4.73s3.74-2,3.74-4.78c0-2.08-1-4.72-3.68-4.72S1102,268.81,1102,271.14Z"/><path class="cls-3" d="M1114.56,268.3c0-1.27,0-2.31-.1-3.33h2l.13,2h0a4.51,4.51,0,0,1,4.06-2.31c1.7,0,4.34,1,4.34,5.23v7.33h-2.23v-7.08c0-2-.74-3.63-2.85-3.63a3.17,3.17,0,0,0-3,2.28,3,3,0,0,0-.16,1.05v7.38h-2.23Z"/><path class="cls-3" d="M914.88,325.14c-.12-2.39-.28-5.26-.25-7.39h-.08c-.58,2-1.29,4.14-2.15,6.5l-3,8.3H907.7l-2.77-8.15c-.81-2.41-1.5-4.62-2-6.65h-.05c0,2.13-.18,5-.33,7.56l-.46,7.34H900l1.2-17.11H904l2.92,8.28c.71,2.1,1.29,4,1.72,5.76h.08c.43-1.73,1-3.61,1.8-5.76l3.05-8.28h2.82l1.06,17.11h-2.15Z"/><path class="cls-3" d="M927.75,332.65l-.17-1.55h-.08a4.55,4.55,0,0,1-3.76,1.83A3.49,3.49,0,0,1,920,329.4c0-3,2.64-4.59,7.38-4.57v-.25a2.54,2.54,0,0,0-2.79-2.85,6.14,6.14,0,0,0-3.2.92l-.51-1.47a7.65,7.65,0,0,1,4-1.1c3.76,0,4.67,2.57,4.67,5v4.6a16.51,16.51,0,0,0,.21,2.94Zm-.33-6.27c-2.43-.05-5.2.38-5.2,2.77a2,2,0,0,0,2.11,2.13,3.05,3.05,0,0,0,3-2.06,2.46,2.46,0,0,0,.12-.71Z"/><path class="cls-3" d="M942,332.19a8.15,8.15,0,0,1-3.53.72c-3.71,0-6.12-2.52-6.12-6.28a6.24,6.24,0,0,1,6.6-6.52,7.57,7.57,0,0,1,3.1.63l-.51,1.73a5.23,5.23,0,0,0-2.59-.58c-2.82,0-4.34,2.08-4.34,4.64,0,2.85,1.83,4.6,4.26,4.6a6.39,6.39,0,0,0,2.75-.61Z"/><path class="cls-3" d="M944.56,314.62h2.24v7.67h.05a4.1,4.1,0,0,1,1.6-1.57,4.59,4.59,0,0,1,2.28-.64c1.65,0,4.29,1,4.29,5.26v7.31h-2.23v-7.06c0-2-.74-3.65-2.85-3.65a3.2,3.2,0,0,0-3,2.23,2.69,2.69,0,0,0-.15,1.07v7.41h-2.24Z"/><path class="cls-3" d="M961.14,316.91a1.31,1.31,0,0,1-1.42,1.37,1.33,1.33,0,0,1-1.35-1.37,1.37,1.37,0,0,1,1.4-1.4A1.33,1.33,0,0,1,961.14,316.91Zm-2.49,15.74V320.36h2.24v12.29Z"/><path class="cls-3" d="M964.59,323.69c0-1.27,0-2.31-.1-3.33h2l.13,2h0a4.53,4.53,0,0,1,4.06-2.31c1.7,0,4.34,1,4.34,5.23v7.34h-2.23v-7.08c0-2-.74-3.63-2.84-3.63a3.17,3.17,0,0,0-3,2.28,3.26,3.26,0,0,0-.15,1v7.39h-2.24Z"/><path class="cls-3" d="M979.93,326.91c.05,3,2,4.27,4.21,4.27a8,8,0,0,0,3.4-.64l.39,1.6a9.89,9.89,0,0,1-4.09.77c-3.79,0-6.05-2.49-6.05-6.2s2.19-6.63,5.77-6.63c4,0,5.08,3.53,5.08,5.79a7.3,7.3,0,0,1-.08,1Zm6.55-1.6c0-1.42-.59-3.63-3.1-3.63-2.26,0-3.25,2.09-3.43,3.63Z"/><path class="cls-3" d="M997.29,325v1.65H991V325Z"/><path class="cls-3" d="M999.81,332.65c.05-.84.1-2.08.1-3.17V314.62h2.21v7.72h0a4.58,4.58,0,0,1,4.19-2.26c3,0,5.2,2.54,5.18,6.27,0,4.4-2.77,6.58-5.51,6.58a4.38,4.38,0,0,1-4.12-2.31h-.07l-.1,2Zm2.31-4.92a4.27,4.27,0,0,0,.1.81,3.44,3.44,0,0,0,3.35,2.61c2.34,0,3.73-1.9,3.73-4.72,0-2.46-1.27-4.57-3.65-4.57a3.57,3.57,0,0,0-3.41,2.74,4.58,4.58,0,0,0-.12.92Z"/><path class="cls-3" d="M1021.16,332.65l-.18-1.55h-.08a4.54,4.54,0,0,1-3.75,1.83,3.5,3.5,0,0,1-3.76-3.53c0-3,2.64-4.59,7.39-4.57v-.25a2.54,2.54,0,0,0-2.8-2.85,6.08,6.08,0,0,0-3.19.92l-.51-1.47a7.61,7.61,0,0,1,4-1.1c3.76,0,4.68,2.57,4.68,5v4.6a17.57,17.57,0,0,0,.2,2.94Zm-.33-6.27c-2.44-.05-5.21.38-5.21,2.77a2,2,0,0,0,2.11,2.13,3,3,0,0,0,3-2.06,2.17,2.17,0,0,0,.13-.71Z"/><path class="cls-3" d="M1026.29,330.37a5.84,5.84,0,0,0,2.94.89c1.63,0,2.39-.82,2.39-1.83s-.64-1.65-2.29-2.26c-2.21-.79-3.25-2-3.25-3.48,0-2,1.6-3.61,4.24-3.61a6,6,0,0,1,3,.77l-.55,1.62a4.85,4.85,0,0,0-2.52-.71c-1.32,0-2,.76-2,1.68s.73,1.47,2.33,2.08c2.13.81,3.23,1.88,3.23,3.7,0,2.16-1.68,3.69-4.6,3.69a7,7,0,0,1-3.45-.84Z"/><path class="cls-3" d="M1037.89,326.91c0,3,2,4.27,4.21,4.27a8,8,0,0,0,3.41-.64l.38,1.6a9.89,9.89,0,0,1-4.09.77c-3.78,0-6-2.49-6-6.2s2.18-6.63,5.76-6.63c4,0,5.08,3.53,5.08,5.79a7.3,7.3,0,0,1-.08,1Zm6.55-1.6c0-1.42-.58-3.63-3.1-3.63-2.26,0-3.25,2.09-3.43,3.63Z"/><path class="cls-3" d="M1060,314.62v14.86c0,1.09,0,2.33.1,3.17h-2l-.1-2.13h0a4.54,4.54,0,0,1-4.19,2.41c-3,0-5.25-2.51-5.25-6.24,0-4.09,2.51-6.61,5.51-6.61a4.11,4.11,0,0,1,3.7,1.88h0v-7.34Zm-2.24,10.74a3.68,3.68,0,0,0-.1-.93,3.28,3.28,0,0,0-3.22-2.59c-2.31,0-3.68,2-3.68,4.74,0,2.49,1.21,4.55,3.63,4.55a3.35,3.35,0,0,0,3.27-2.67,3.68,3.68,0,0,0,.1-1Z"/><path class="cls-3" d="M1071.55,316.91a1.38,1.38,0,0,1-2.76,0,1.36,1.36,0,0,1,1.39-1.4A1.33,1.33,0,0,1,1071.55,316.91Zm-2.48,15.74V320.36h2.23v12.29Z"/><path class="cls-3" d="M1075,323.69c0-1.27,0-2.31-.11-3.33h2l.13,2h0a4.54,4.54,0,0,1,4.07-2.31c1.7,0,4.34,1,4.34,5.23v7.34h-2.24v-7.08c0-2-.73-3.63-2.84-3.63a3.18,3.18,0,0,0-3,2.28,3.26,3.26,0,0,0-.15,1v7.39H1075Z"/><path class="cls-3" d="M1088.79,330.37a5.88,5.88,0,0,0,3,.89c1.62,0,2.38-.82,2.38-1.83s-.63-1.65-2.28-2.26c-2.21-.79-3.25-2-3.25-3.48,0-2,1.6-3.61,4.24-3.61a6.08,6.08,0,0,1,3,.77l-.56,1.62a4.81,4.81,0,0,0-2.51-.71c-1.32,0-2.06.76-2.06,1.68s.74,1.47,2.34,2.08c2.13.81,3.22,1.88,3.22,3.7,0,2.16-1.67,3.69-4.59,3.69a7,7,0,0,1-3.46-.84Z"/><path class="cls-3" d="M1099.15,324.37c0-1.57-.05-2.84-.1-4h2l.11,2.11h0a4.82,4.82,0,0,1,4.36-2.39c3,0,5.21,2.52,5.21,6.25,0,4.42-2.69,6.6-5.59,6.6a4.31,4.31,0,0,1-3.78-1.93h-.05v6.68h-2.21Zm2.21,3.28a5.07,5.07,0,0,0,.1.91,3.45,3.45,0,0,0,3.35,2.62c2.36,0,3.73-1.93,3.73-4.75,0-2.46-1.29-4.57-3.65-4.57a3.57,3.57,0,0,0-3.38,2.77,3.93,3.93,0,0,0-.15.91Z"/><path class="cls-3" d="M1114.84,326.91c.05,3,2,4.27,4.21,4.27a8,8,0,0,0,3.41-.64l.38,1.6a9.85,9.85,0,0,1-4.09.77c-3.78,0-6-2.49-6-6.2s2.18-6.63,5.76-6.63c4,0,5.08,3.53,5.08,5.79a7.3,7.3,0,0,1-.08,1Zm6.55-1.6c0-1.42-.58-3.63-3.1-3.63-2.26,0-3.25,2.09-3.42,3.63Z"/><path class="cls-3" d="M1135.08,332.19a8.15,8.15,0,0,1-3.53.72c-3.71,0-6.12-2.52-6.12-6.28a6.24,6.24,0,0,1,6.6-6.52,7.57,7.57,0,0,1,3.1.63l-.51,1.73a5.26,5.26,0,0,0-2.59-.58c-2.82,0-4.34,2.08-4.34,4.64,0,2.85,1.82,4.6,4.26,4.6a6.31,6.31,0,0,0,2.74-.61Z"/><path class="cls-3" d="M1140.71,316.83v3.53h3.2v1.7h-3.2v6.63c0,1.52.43,2.39,1.68,2.39a5.27,5.27,0,0,0,1.29-.15l.1,1.67a5.37,5.37,0,0,1-2,.31,3.09,3.09,0,0,1-2.41-.94,4.54,4.54,0,0,1-.86-3.2v-6.71h-1.91v-1.7h1.91v-2.94Z"/><path class="cls-3" d="M1148.91,316.91a1.31,1.31,0,0,1-1.42,1.37,1.33,1.33,0,0,1-1.35-1.37,1.37,1.37,0,0,1,1.4-1.4A1.33,1.33,0,0,1,1148.91,316.91Zm-2.49,15.74V320.36h2.24v12.29Z"/><path class="cls-3" d="M1163.48,326.41c0,4.54-3.15,6.52-6.12,6.52-3.32,0-5.89-2.44-5.89-6.32,0-4.11,2.7-6.53,6.1-6.53S1163.48,322.65,1163.48,326.41Zm-9.75.12c0,2.69,1.55,4.73,3.74,4.73s3.73-2,3.73-4.78c0-2.08-1-4.72-3.68-4.72S1153.73,324.2,1153.73,326.53Z"/><path class="cls-3" d="M1166.3,323.69c0-1.27,0-2.31-.1-3.33h2l.13,2h0a4.53,4.53,0,0,1,4.06-2.31c1.7,0,4.34,1,4.34,5.23v7.34h-2.23v-7.08c0-2-.74-3.63-2.85-3.63a3.17,3.17,0,0,0-3,2.28,3.26,3.26,0,0,0-.15,1v7.39h-2.24Z"/><circle class="cls-4" cx="875.42" cy="215.04" r="4.5"/><circle class="cls-4" cx="875.42" cy="270.35" r="4.5"/><circle class="cls-4" cx="875.42" cy="325.66" r="4.5"/><polygon class="cls-5" points="0 0.04 0 405 407.97 405 407.97 0.13 0 0.04"/><path class="cls-3" d="M172.79,91h-8.6v6.7h9.61v3.42H160V78.35H173.3v3.42h-9.11v5.89h8.6Z"/><path class="cls-3" d="M199.26,80.85a7.66,7.66,0,0,0-3.38-.78c-2.88,0-3.83,1.76-3.83,3.93v.68h9.82v16.48H197.7V87.79h-5.62v13.37h-4.19V87.79h-6.06v13.37h-4.16V87.79h-2.24V84.68h2.24V84.2a7.3,7.3,0,0,1,2.06-5.41,6.44,6.44,0,0,1,4.6-1.66,7.18,7.18,0,0,1,2.88.64l-1,3a3.94,3.94,0,0,0-1.76-.45,2.3,2.3,0,0,0-1.76.72,4.45,4.45,0,0,0-.91,3v.58h6.09V83.9c0-4.44,3.11-7.14,8-7.14a10.15,10.15,0,0,1,4.36.95Z"/><path class="cls-3" d="M218.46,100.65a12,12,0,0,1-4.68.85c-5.14,0-8.49-3.29-8.49-8.4,0-4.94,3.38-8.8,9.17-8.8a10.42,10.42,0,0,1,4,.78l-.75,3.12a7.17,7.17,0,0,0-3.14-.65c-3.18,0-5.08,2.34-5,5.35,0,3.39,2.2,5.31,5,5.31a8.12,8.12,0,0,0,3.28-.64Z"/><path class="cls-3" d="M226,80.07a2.34,2.34,0,1,1-2.33-2.26A2.2,2.2,0,0,1,226,80.07Zm-4.43,21.09V84.68h4.19v16.48Z"/><path class="cls-3" d="M233.15,94.09c.1,3,2.43,4.26,5.07,4.26a12.47,12.47,0,0,0,4.57-.74l.61,2.87a15.39,15.39,0,0,1-5.75,1c-5.35,0-8.5-3.29-8.5-8.33,0-4.57,2.78-8.87,8.06-8.87s7.11,4.4,7.11,8a10.06,10.06,0,0,1-.14,1.76Zm7.24-2.92c0-1.52-.64-4-3.42-4-2.57,0-3.65,2.33-3.82,4Z"/><path class="cls-3" d="M247.67,89.58c0-1.89,0-3.48-.13-4.9h3.65l.2,2.47h.11a5.93,5.93,0,0,1,5.24-2.85c2.88,0,5.86,1.87,5.86,7.08v9.78h-4.17V91.85c0-2.37-.88-4.16-3.14-4.16A3.49,3.49,0,0,0,252,90.13a4.1,4.1,0,0,0-.17,1.35v9.68h-4.2Z"/><path class="cls-3" d="M279.15,100.65a12,12,0,0,1-4.67.85c-5.15,0-8.5-3.29-8.5-8.4,0-4.94,3.39-8.8,9.18-8.8a10.33,10.33,0,0,1,4,.78l-.74,3.12a7.26,7.26,0,0,0-3.15-.65c-3.18,0-5.08,2.34-5,5.35,0,3.39,2.2,5.31,5,5.31a8.08,8.08,0,0,0,3.28-.64Z"/><path class="cls-3" d="M285.38,84.68l3,8.83c.34,1,.67,2.27.91,3.22h.1c.27-1,.58-2.17.88-3.25l2.58-8.8h4.46l-4.13,11.23c-2.26,6.16-3.79,8.9-5.75,10.6a8.44,8.44,0,0,1-4.37,2.13l-.94-3.52a7.06,7.06,0,0,0,2.43-1.15,7.21,7.21,0,0,0,2.27-2.61,1.64,1.64,0,0,0,.27-.74,1.67,1.67,0,0,0-.24-.81l-6-15.13Z"/><path class="cls-3" d="M74.75,205a22.9,22.9,0,0,1,4.24-.36c2.37,0,3.89.44,5,1.4a4.27,4.27,0,0,1,1.34,3.25,4.5,4.5,0,0,1-3.22,4.37v.07c1.32.46,2.1,1.68,2.51,3.46a27.49,27.49,0,0,0,1.32,4.7H83.62a22.87,22.87,0,0,1-1.15-4.09c-.51-2.36-1.42-3.25-3.43-3.33H77v7.42H74.75Zm2.21,7.8h2.26c2.36,0,3.86-1.3,3.86-3.25,0-2.21-1.6-3.18-3.93-3.2a9.3,9.3,0,0,0-2.19.2Z"/><path class="cls-3" d="M99.56,215.63c0,4.54-3.15,6.52-6.12,6.52-3.33,0-5.89-2.43-5.89-6.32,0-4.11,2.69-6.52,6.09-6.52S99.56,211.87,99.56,215.63Zm-9.75.13c0,2.69,1.55,4.72,3.73,4.72s3.73-2,3.73-4.77c0-2.09-1-4.73-3.68-4.73S89.81,213.42,89.81,215.76Z"/><path class="cls-3" d="M102.28,221.88c0-.84.1-2.09.1-3.18V203.85h2.21v7.72h0a4.57,4.57,0,0,1,4.19-2.26c3,0,5.2,2.54,5.18,6.27,0,4.39-2.77,6.57-5.51,6.57a4.38,4.38,0,0,1-4.12-2.31h-.07l-.1,2Zm2.31-4.93a4.17,4.17,0,0,0,.1.81,3.44,3.44,0,0,0,3.35,2.62c2.34,0,3.73-1.91,3.73-4.73,0-2.46-1.27-4.57-3.65-4.57a3.58,3.58,0,0,0-3.41,2.75,4.37,4.37,0,0,0-.12.91Z"/><path class="cls-3" d="M127.94,215.63c0,4.54-3.15,6.52-6.12,6.52-3.32,0-5.89-2.43-5.89-6.32,0-4.11,2.7-6.52,6.1-6.52S127.94,211.87,127.94,215.63Zm-9.75.13c0,2.69,1.55,4.72,3.74,4.72s3.73-2,3.73-4.77c0-2.09-1-4.73-3.68-4.73S118.19,213.42,118.19,215.76Z"/><path class="cls-3" d="M133.45,206.06v3.53h3.2v1.7h-3.2v6.62c0,1.53.43,2.39,1.68,2.39a5.27,5.27,0,0,0,1.29-.15l.1,1.67a5.37,5.37,0,0,1-2,.31,3.1,3.1,0,0,1-2.41-.94,4.57,4.57,0,0,1-.86-3.2v-6.7h-1.91v-1.7h1.91v-3Z"/><path class="cls-3" d="M141.65,206.13a1.31,1.31,0,0,1-1.42,1.37,1.33,1.33,0,0,1-1.35-1.37,1.36,1.36,0,0,1,1.4-1.39A1.32,1.32,0,0,1,141.65,206.13Zm-2.49,15.75V209.59h2.24v12.29Z"/><path class="cls-3" d="M153.86,221.42a8.26,8.26,0,0,1-3.53.71c-3.7,0-6.11-2.51-6.11-6.27a6.24,6.24,0,0,1,6.6-6.53,7.39,7.39,0,0,1,3.1.64l-.51,1.72a5.26,5.26,0,0,0-2.59-.58c-2.82,0-4.34,2.08-4.34,4.65,0,2.84,1.82,4.59,4.26,4.59a6.31,6.31,0,0,0,2.74-.61Z"/><path class="cls-3" d="M170.62,221.42a8.3,8.3,0,0,1-3.53.71c-3.71,0-6.12-2.51-6.12-6.27a6.24,6.24,0,0,1,6.6-6.53,7.39,7.39,0,0,1,3.1.64l-.51,1.72a5.23,5.23,0,0,0-2.59-.58c-2.82,0-4.34,2.08-4.34,4.65,0,2.84,1.83,4.59,4.27,4.59a6.34,6.34,0,0,0,2.74-.61Z"/><path class="cls-3" d="M184.2,215.63c0,4.54-3.15,6.52-6.12,6.52-3.32,0-5.89-2.43-5.89-6.32,0-4.11,2.69-6.52,6.1-6.52S184.2,211.87,184.2,215.63Zm-9.75.13c0,2.69,1.55,4.72,3.74,4.72s3.73-2,3.73-4.77c0-2.09-1-4.73-3.68-4.73S174.45,213.42,174.45,215.76Z"/><path class="cls-3" d="M187,203.85h2.23v18H187Z"/><path class="cls-3" d="M193,203.85h2.24v18H193Z"/><path class="cls-3" d="M205.81,221.88l-.18-1.55h-.08a4.56,4.56,0,0,1-3.75,1.82,3.5,3.5,0,0,1-3.76-3.52c0-3,2.64-4.6,7.39-4.58v-.25a2.54,2.54,0,0,0-2.8-2.84,6.13,6.13,0,0,0-3.2.91l-.5-1.47a7.61,7.61,0,0,1,4-1.09c3.76,0,4.68,2.56,4.68,5v4.6a17.62,17.62,0,0,0,.2,2.95Zm-.33-6.28c-2.44,0-5.21.38-5.21,2.77a2,2,0,0,0,2.11,2.13,3,3,0,0,0,3-2.05,2.27,2.27,0,0,0,.13-.71Z"/><path class="cls-3" d="M211.14,221.88c.05-.84.1-2.09.1-3.18V203.85h2.21v7.72h.05a4.58,4.58,0,0,1,4.19-2.26c3.05,0,5.2,2.54,5.18,6.27,0,4.39-2.77,6.57-5.51,6.57a4.36,4.36,0,0,1-4.11-2.31h-.08l-.1,2Zm2.31-4.93a4.17,4.17,0,0,0,.1.81,3.45,3.45,0,0,0,3.35,2.62c2.34,0,3.73-1.91,3.73-4.73,0-2.46-1.26-4.57-3.65-4.57a3.57,3.57,0,0,0-3.4,2.75,4.31,4.31,0,0,0-.13.91Z"/><path class="cls-3" d="M236.81,215.63c0,4.54-3.15,6.52-6.12,6.52-3.33,0-5.89-2.43-5.89-6.32,0-4.11,2.69-6.52,6.09-6.52S236.81,211.87,236.81,215.63Zm-9.75.13c0,2.69,1.55,4.72,3.73,4.72s3.73-2,3.73-4.77c0-2.09-1-4.73-3.68-4.73S227.06,213.42,227.06,215.76Z"/><path class="cls-3" d="M239.62,213.42c0-1.45,0-2.69-.1-3.83h2l.07,2.41h.11a3.67,3.67,0,0,1,3.4-2.69,2.43,2.43,0,0,1,.63.07v2.11a3.34,3.34,0,0,0-.76-.08,3.15,3.15,0,0,0-3,2.87,6.44,6.44,0,0,0-.1,1v6.56h-2.21Z"/><path class="cls-3" d="M254.6,221.88l-.17-1.55h-.08a4.6,4.6,0,0,1-3.76,1.82,3.5,3.5,0,0,1-3.76-3.52c0-3,2.64-4.6,7.39-4.58v-.25a2.53,2.53,0,0,0-2.79-2.84,6.11,6.11,0,0,0-3.2.91l-.51-1.47a7.65,7.65,0,0,1,4-1.09c3.76,0,4.67,2.56,4.67,5v4.6a17.62,17.62,0,0,0,.2,2.95Zm-.33-6.28c-2.43,0-5.2.38-5.2,2.77a2,2,0,0,0,2.11,2.13,3.06,3.06,0,0,0,3-2.05,2.58,2.58,0,0,0,.12-.71Z"/><path class="cls-3" d="M262.63,206.06v3.53h3.2v1.7h-3.2v6.62c0,1.53.43,2.39,1.67,2.39a5.29,5.29,0,0,0,1.3-.15l.1,1.67a5.41,5.41,0,0,1-2,.31,3.09,3.09,0,0,1-2.41-.94,4.52,4.52,0,0,1-.87-3.2v-6.7h-1.9v-1.7h1.9v-3Z"/><path class="cls-3" d="M270.83,206.13a1.39,1.39,0,0,1-2.77,0,1.36,1.36,0,0,1,1.4-1.39A1.33,1.33,0,0,1,270.83,206.13Zm-2.49,15.75V209.59h2.23v12.29Z"/><path class="cls-3" d="M285.4,215.63c0,4.54-3.15,6.52-6.12,6.52-3.33,0-5.89-2.43-5.89-6.32,0-4.11,2.69-6.52,6.09-6.52S285.4,211.87,285.4,215.63Zm-9.75.13c0,2.69,1.55,4.72,3.73,4.72s3.73-2,3.73-4.77c0-2.09-1-4.73-3.68-4.73S275.65,213.42,275.65,215.76Z"/><path class="cls-3" d="M288.22,212.91c0-1.27,0-2.31-.1-3.32h2l.12,2h0a4.52,4.52,0,0,1,4.07-2.31c1.7,0,4.34,1,4.34,5.23v7.34h-2.24v-7.09c0-2-.73-3.63-2.84-3.63a3.18,3.18,0,0,0-3,2.29,3.22,3.22,0,0,0-.15,1v7.39h-2.23Z"/><path class="cls-3" d="M74.75,260.38A22.9,22.9,0,0,1,79,260c2.37,0,3.89.44,5,1.4a4.27,4.27,0,0,1,1.34,3.25A4.5,4.5,0,0,1,82.07,269v.07c1.32.46,2.1,1.68,2.51,3.46a27,27,0,0,0,1.32,4.69H83.62a22.38,22.38,0,0,1-1.15-4.08c-.51-2.37-1.42-3.25-3.43-3.33H77v7.41H74.75ZM77,268.17h2.26c2.36,0,3.86-1.29,3.86-3.25,0-2.21-1.6-3.17-3.93-3.2a9.13,9.13,0,0,0-2.19.21Z"/><path class="cls-3" d="M99.13,277.26c-.48-.48-.94-1-1.6-1.67a7,7,0,0,1-5,2c-3.33,0-5.26-2.23-5.26-4.8,0-2.33,1.4-3.93,3.35-5v-.07a5.89,5.89,0,0,1-1.42-3.58,4.15,4.15,0,0,1,4.34-4.22,3.57,3.57,0,0,1,3.79,3.63c0,1.8-1,3.23-3.76,4.57v.08c1.44,1.67,3.07,3.55,4.16,4.77a12.46,12.46,0,0,0,1.65-5h2A13,13,0,0,1,99,274.24l2.82,3Zm-2.69-2.94c-1-1.12-2.92-3.2-4.83-5.38a4.2,4.2,0,0,0-2.21,3.47,3.38,3.38,0,0,0,3.51,3.46A4.8,4.8,0,0,0,96.44,274.32Zm-5.21-10.44a4.82,4.82,0,0,0,1.3,3.08c1.72-1,2.84-1.91,2.84-3.36a2,2,0,0,0-2-2.21A2.23,2.23,0,0,0,91.23,263.88Z"/><path class="cls-3" d="M103.77,260.38a32.13,32.13,0,0,1,4.7-.36c3.17,0,5.43.74,6.93,2.14a7.84,7.84,0,0,1,2.41,6.14,9,9,0,0,1-2.46,6.65c-1.6,1.6-4.24,2.47-7.56,2.47a34.9,34.9,0,0,1-4-.21ZM106,275.51a14.12,14.12,0,0,0,2.24.13c4.72,0,7.28-2.64,7.28-7.26,0-4-2.26-6.6-6.93-6.6A13.26,13.26,0,0,0,106,262Z"/><path class="cls-3" d="M126,269c0-1.58,0-2.85-.1-4h2l.1,2.11h0a4.84,4.84,0,0,1,4.37-2.38c3,0,5.21,2.51,5.21,6.24,0,4.42-2.7,6.6-5.59,6.6a4.3,4.3,0,0,1-3.78-1.93h-.05v6.68H126Zm2.21,3.27a5.18,5.18,0,0,0,.1.92,3.45,3.45,0,0,0,3.35,2.61c2.36,0,3.73-1.93,3.73-4.75,0-2.46-1.29-4.57-3.65-4.57a3.56,3.56,0,0,0-3.38,2.77,3.47,3.47,0,0,0-.15.91Z"/><path class="cls-3" d="M151.55,271c0,4.54-3.14,6.52-6.12,6.52-3.32,0-5.89-2.43-5.89-6.32,0-4.11,2.7-6.52,6.1-6.52S151.55,267.26,151.55,271Zm-9.75.12c0,2.7,1.55,4.73,3.74,4.73s3.73-2,3.73-4.78c0-2.08-1-4.72-3.68-4.72S141.8,268.81,141.8,271.14Z"/><path class="cls-3" d="M154.37,268.81c0-1.45,0-2.69-.1-3.84h1.95l.08,2.42h.1a3.69,3.69,0,0,1,3.4-2.69,2.46,2.46,0,0,1,.64.07v2.11a3.41,3.41,0,0,0-.76-.08,3.14,3.14,0,0,0-3,2.87,6.44,6.44,0,0,0-.1,1v6.55h-2.21Z"/><path class="cls-3" d="M166,261.45V265h3.2v1.71H166v6.62c0,1.53.44,2.39,1.68,2.39a5.2,5.2,0,0,0,1.29-.15l.11,1.67a5.45,5.45,0,0,1-2,.31,3.11,3.11,0,0,1-2.42-.94,4.57,4.57,0,0,1-.86-3.2v-6.7h-1.9V265h1.9V262Z"/><path class="cls-3" d="M171.91,277.26V266.68h-1.72V265h1.72v-.58a5.75,5.75,0,0,1,1.43-4.29,4.26,4.26,0,0,1,3-1.14,5.2,5.2,0,0,1,1.91.35l-.31,1.73a3.38,3.38,0,0,0-1.42-.28c-1.9,0-2.39,1.68-2.39,3.55V265h3v1.71h-3v10.58Z"/><path class="cls-3" d="M189.89,271c0,4.54-3.15,6.52-6.12,6.52-3.33,0-5.89-2.43-5.89-6.32,0-4.11,2.69-6.52,6.09-6.52S189.89,267.26,189.89,271Zm-9.75.12c0,2.7,1.55,4.73,3.73,4.73s3.73-2,3.73-4.78c0-2.08-1-4.72-3.68-4.72S180.14,268.81,180.14,271.14Z"/><path class="cls-3" d="M192.71,259.24h2.23v18h-2.23Z"/><path class="cls-3" d="M201.19,261.52a1.39,1.39,0,0,1-2.77,0,1.35,1.35,0,0,1,1.4-1.39A1.32,1.32,0,0,1,201.19,261.52Zm-2.49,15.74V265h2.23v12.29Z"/><path class="cls-3" d="M215.76,271c0,4.54-3.15,6.52-6.12,6.52-3.33,0-5.89-2.43-5.89-6.32,0-4.11,2.69-6.52,6.09-6.52S215.76,267.26,215.76,271Zm-9.75.12c0,2.7,1.55,4.73,3.73,4.73s3.73-2,3.73-4.78c0-2.08-1-4.72-3.68-4.72S206,268.81,206,271.14Z"/><path class="cls-3" d="M224,268.3c0-1.27,0-2.31-.1-3.33h1.95l.1,2H226a4.24,4.24,0,0,1,3.86-2.26,3.63,3.63,0,0,1,3.48,2.46h0a5,5,0,0,1,1.37-1.6,4.2,4.2,0,0,1,2.72-.86c1.62,0,4,1.06,4,5.33v7.23h-2.18v-6.95c0-2.36-.86-3.79-2.67-3.79a2.89,2.89,0,0,0-2.64,2,3.82,3.82,0,0,0-.17,1.12v7.59h-2.19V269.9c0-1.95-.86-3.38-2.56-3.38a3.06,3.06,0,0,0-2.77,2.24,3,3,0,0,0-.18,1.09v7.41H224Z"/><path class="cls-3" d="M251.94,277.26l-.18-1.55h-.08a4.54,4.54,0,0,1-3.75,1.83,3.5,3.5,0,0,1-3.76-3.53c0-3,2.64-4.59,7.39-4.57v-.25a2.53,2.53,0,0,0-2.8-2.84,6.13,6.13,0,0,0-3.2.91l-.5-1.47a7.58,7.58,0,0,1,4-1.09c3.76,0,4.68,2.56,4.68,5v4.6a17.49,17.49,0,0,0,.2,2.94Zm-.33-6.27c-2.44-.05-5.21.38-5.21,2.77a2,2,0,0,0,2.11,2.13,3,3,0,0,0,3-2.05,2.27,2.27,0,0,0,.13-.71Z"/><path class="cls-3" d="M257.37,268.3c0-1.27,0-2.31-.1-3.33h2l.13,2h.05a4.51,4.51,0,0,1,4.06-2.31c1.7,0,4.34,1,4.34,5.23v7.33H265.6v-7.08c0-2-.74-3.63-2.85-3.63a3.17,3.17,0,0,0-3,2.28,3.27,3.27,0,0,0-.16,1.05v7.38h-2.23Z"/><path class="cls-3" d="M278.27,277.26l-.18-1.55H278a4.55,4.55,0,0,1-3.76,1.83A3.5,3.5,0,0,1,270.5,274c0-3,2.64-4.59,7.38-4.57v-.25a2.52,2.52,0,0,0-2.79-2.84,6.13,6.13,0,0,0-3.2.91l-.51-1.47a7.65,7.65,0,0,1,4-1.09c3.76,0,4.67,2.56,4.67,5v4.6a16.44,16.44,0,0,0,.21,2.94Zm-.33-6.27c-2.44-.05-5.21.38-5.21,2.77a2,2,0,0,0,2.11,2.13,3.06,3.06,0,0,0,3-2.05,2.6,2.6,0,0,0,.13-.71Z"/><path class="cls-3" d="M294.29,265c-.05.89-.11,1.88-.11,3.38v7.14c0,2.81-.55,4.54-1.75,5.61a6.54,6.54,0,0,1-4.47,1.47,7.91,7.91,0,0,1-4.08-1l.55-1.7a7,7,0,0,0,3.61,1c2.29,0,4-1.19,4-4.29v-1.37H292a4.4,4.4,0,0,1-3.91,2c-3.05,0-5.23-2.59-5.23-6,0-4.16,2.72-6.52,5.53-6.52a4.08,4.08,0,0,1,3.84,2.13h.05l.1-1.86ZM292,269.82a3.17,3.17,0,0,0-.13-1,3.22,3.22,0,0,0-3.12-2.36c-2.14,0-3.66,1.8-3.66,4.64,0,2.42,1.22,4.42,3.63,4.42a3.27,3.27,0,0,0,3.1-2.28A4.16,4.16,0,0,0,292,272Z"/><path class="cls-3" d="M299.13,271.53a3.93,3.93,0,0,0,4.22,4.26,8.17,8.17,0,0,0,3.4-.63l.38,1.6a10.06,10.06,0,0,1-4.09.76c-3.78,0-6-2.49-6-6.2s2.18-6.62,5.76-6.62c4,0,5.08,3.52,5.08,5.78a10.2,10.2,0,0,1-.07,1Zm6.55-1.6c0-1.43-.58-3.64-3.09-3.64-2.26,0-3.25,2.09-3.43,3.64Z"/><path class="cls-3" d="M310.61,268.3c0-1.27,0-2.31-.1-3.33h1.95l.1,2h.08a4.24,4.24,0,0,1,3.86-2.26,3.62,3.62,0,0,1,3.48,2.46h0a5,5,0,0,1,1.37-1.6,4.2,4.2,0,0,1,2.72-.86c1.62,0,4,1.06,4,5.33v7.23H326v-6.95c0-2.36-.86-3.79-2.67-3.79a2.9,2.9,0,0,0-2.64,2,3.82,3.82,0,0,0-.17,1.12v7.59H318.3V269.9c0-1.95-.86-3.38-2.56-3.38a3.06,3.06,0,0,0-2.77,2.24,3,3,0,0,0-.18,1.09v7.41h-2.18Z"/><path class="cls-3" d="M333,271.53c.05,3,2,4.26,4.21,4.26a8.14,8.14,0,0,0,3.4-.63l.39,1.6a10.1,10.1,0,0,1-4.09.76c-3.79,0-6.05-2.49-6.05-6.2s2.19-6.62,5.77-6.62c4,0,5.08,3.52,5.08,5.78a7.61,7.61,0,0,1-.08,1Zm6.55-1.6c0-1.43-.59-3.64-3.1-3.64-2.26,0-3.25,2.09-3.43,3.64Z"/><path class="cls-3" d="M344.5,268.3c0-1.27,0-2.31-.1-3.33h2l.13,2h.05a4.51,4.51,0,0,1,4.06-2.31c1.7,0,4.34,1,4.34,5.23v7.33h-2.23v-7.08c0-2-.74-3.63-2.84-3.63a3.17,3.17,0,0,0-3,2.28,3.28,3.28,0,0,0-.15,1.05v7.38H344.5Z"/><path class="cls-3" d="M361.18,261.45V265h3.2v1.71h-3.2v6.62c0,1.53.44,2.39,1.68,2.39a5.2,5.2,0,0,0,1.29-.15l.11,1.67a5.45,5.45,0,0,1-2,.31,3.11,3.11,0,0,1-2.42-.94,4.57,4.57,0,0,1-.86-3.2v-6.7h-1.9V265H359V262Z"/><path class="cls-3" d="M74.75,315.74a25.46,25.46,0,0,1,4.24-.33,7,7,0,0,1,4.8,1.42,4.62,4.62,0,0,1,1.5,3.58A5.06,5.06,0,0,1,84,324.07,7.11,7.11,0,0,1,78.74,326,8,8,0,0,1,77,325.8v6.85H74.75ZM77,324a7.29,7.29,0,0,0,1.83.18c2.67,0,4.29-1.29,4.29-3.66s-1.6-3.35-4-3.35a9.33,9.33,0,0,0-2.08.18Z"/><path class="cls-3" d="M87.78,324.2c0-1.45,0-2.7-.1-3.84h1.95l.08,2.41h.1a3.68,3.68,0,0,1,3.4-2.69,2.49,2.49,0,0,1,.64.08v2.11a3.44,3.44,0,0,0-.77-.08,3.13,3.13,0,0,0-3,2.87,6.33,6.33,0,0,0-.1,1v6.55H87.78Z"/><path class="cls-3" d="M107,326.41c0,4.54-3.15,6.52-6.12,6.52-3.33,0-5.89-2.44-5.89-6.32,0-4.11,2.69-6.53,6.09-6.53S107,322.65,107,326.41Zm-9.75.12c0,2.69,1.55,4.72,3.73,4.72s3.73-2,3.73-4.77c0-2.08-1-4.72-3.68-4.72S97.2,324.2,97.2,326.53Z"/><path class="cls-3" d="M120.38,314.62v14.86c0,1.09,0,2.33.1,3.17h-2l-.1-2.13h-.05a4.54,4.54,0,0,1-4.19,2.41c-3,0-5.25-2.51-5.25-6.25,0-4.08,2.51-6.6,5.51-6.6a4.11,4.11,0,0,1,3.7,1.88h0v-7.34Zm-2.24,10.74a3.76,3.76,0,0,0-.1-.94,3.29,3.29,0,0,0-3.22-2.59c-2.31,0-3.68,2-3.68,4.75,0,2.49,1.21,4.55,3.63,4.55a3.35,3.35,0,0,0,3.27-2.67,3.68,3.68,0,0,0,.1-1Z"/><path class="cls-3" d="M134.37,329.3c0,1.27,0,2.39.1,3.35h-2l-.13-2h-.05a4.62,4.62,0,0,1-4.06,2.28c-1.93,0-4.24-1.07-4.24-5.38v-7.19h2.23v6.81c0,2.33.71,3.91,2.74,3.91a3.13,3.13,0,0,0,3.15-3.18v-7.54h2.24Z"/><path class="cls-3" d="M146.83,332.19a8.11,8.11,0,0,1-3.53.72c-3.7,0-6.12-2.52-6.12-6.28a6.24,6.24,0,0,1,6.61-6.52,7.52,7.52,0,0,1,3.09.63l-.5,1.73a5.29,5.29,0,0,0-2.59-.58c-2.82,0-4.35,2.08-4.35,4.64,0,2.85,1.83,4.6,4.27,4.6a6.31,6.31,0,0,0,2.74-.61Z"/><path class="cls-3" d="M152.47,316.83v3.53h3.2v1.7h-3.2v6.63c0,1.52.43,2.39,1.67,2.39a4.76,4.76,0,0,0,1.3-.16l.1,1.68a5.41,5.41,0,0,1-2,.31,3.09,3.09,0,0,1-2.41-.94,4.54,4.54,0,0,1-.86-3.2v-6.71h-1.91v-1.7h1.91v-2.94Z"/><path class="cls-3" d="M163.56,314.62h2.24v18h-2.24Z"/><path class="cls-3" d="M172,316.91a1.31,1.31,0,0,1-1.42,1.37,1.33,1.33,0,0,1-1.35-1.37,1.37,1.37,0,0,1,1.4-1.4A1.33,1.33,0,0,1,172,316.91Zm-2.49,15.74V320.36h2.24v12.29Z"/><path class="cls-3" d="M175.72,332.65V322.06H174v-1.7h1.72v-.58a5.79,5.79,0,0,1,1.42-4.29,4.26,4.26,0,0,1,3-1.15,5.08,5.08,0,0,1,1.9.36l-.3,1.73a3.23,3.23,0,0,0-1.42-.28c-1.91,0-2.39,1.67-2.39,3.55v.66h3v1.7h-3v10.59Z"/><path class="cls-3" d="M183.82,326.91c.05,3,2,4.27,4.22,4.27a8,8,0,0,0,3.4-.64l.38,1.6a9.85,9.85,0,0,1-4.09.77c-3.78,0-6-2.49-6-6.2s2.18-6.63,5.76-6.63c4,0,5.08,3.53,5.08,5.79a7.43,7.43,0,0,1-.08,1Zm6.55-1.6c0-1.42-.58-3.63-3.1-3.63-2.26,0-3.25,2.08-3.42,3.63Z"/><path class="cls-3" d="M204.06,332.19a8.15,8.15,0,0,1-3.53.72c-3.71,0-6.12-2.52-6.12-6.28a6.24,6.24,0,0,1,6.6-6.52,7.57,7.57,0,0,1,3.1.63l-.51,1.73a5.23,5.23,0,0,0-2.59-.58c-2.82,0-4.34,2.08-4.34,4.64,0,2.85,1.83,4.6,4.26,4.6a6.39,6.39,0,0,0,2.75-.61Z"/><path class="cls-3" d="M207.94,320.36l2.69,7.26c.28.82.59,1.78.79,2.52h.05c.23-.74.48-1.68.79-2.57l2.43-7.21h2.37l-3.36,8.76c-1.6,4.22-2.69,6.38-4.21,7.7a6,6,0,0,1-2.74,1.44l-.56-1.88a5.71,5.71,0,0,0,1.95-1.09A6.72,6.72,0,0,0,210,332.8a1.56,1.56,0,0,0,.18-.53,1.94,1.94,0,0,0-.15-.58l-4.55-11.33Z"/><path class="cls-3" d="M227.59,332.19a8.11,8.11,0,0,1-3.53.72c-3.7,0-6.12-2.52-6.12-6.28a6.24,6.24,0,0,1,6.6-6.52,7.53,7.53,0,0,1,3.1.63l-.51,1.73a5.23,5.23,0,0,0-2.59-.58c-2.81,0-4.34,2.08-4.34,4.64,0,2.85,1.83,4.6,4.27,4.6a6.31,6.31,0,0,0,2.74-.61Z"/><path class="cls-3" d="M230.21,314.62h2.23v18h-2.23Z"/><path class="cls-3" d="M237.44,326.91c.05,3,2,4.27,4.22,4.27a8,8,0,0,0,3.4-.64l.38,1.6a9.85,9.85,0,0,1-4.09.77c-3.78,0-6-2.49-6-6.2s2.18-6.63,5.76-6.63c4,0,5.08,3.53,5.08,5.79a7.43,7.43,0,0,1-.08,1Zm6.55-1.6c0-1.42-.58-3.63-3.1-3.63-2.26,0-3.25,2.08-3.42,3.63Z"/><path class="cls-3" d="M74.68,349.08c0-1.27,0-2.31-.1-3.33h2l.1,2h.08a4.23,4.23,0,0,1,3.86-2.26,3.65,3.65,0,0,1,3.48,2.46h0a5.19,5.19,0,0,1,1.37-1.6,4.25,4.25,0,0,1,2.72-.86c1.62,0,4,1.07,4,5.33V358H90v-7c0-2.36-.86-3.78-2.67-3.78a2.89,2.89,0,0,0-2.64,2,3.75,3.75,0,0,0-.18,1.12V358H82.37v-7.36c0-2-.86-3.38-2.56-3.38a3.33,3.33,0,0,0-3,3.33V358H74.68Z"/><path class="cls-3" d="M102.66,358l-.18-1.55h-.08a4.55,4.55,0,0,1-3.76,1.83,3.5,3.5,0,0,1-3.75-3.53c0-3,2.64-4.6,7.39-4.57V350a2.54,2.54,0,0,0-2.8-2.85,6.14,6.14,0,0,0-3.2.92l-.5-1.48a7.58,7.58,0,0,1,4-1.09c3.76,0,4.67,2.57,4.67,5v4.59a17.55,17.55,0,0,0,.21,3Zm-.33-6.27c-2.44,0-5.21.38-5.21,2.77a2,2,0,0,0,2.11,2.13,3.06,3.06,0,0,0,3-2.06,2.22,2.22,0,0,0,.13-.71Z"/><path class="cls-3" d="M108.09,349.08c0-1.27,0-2.31-.1-3.33h2l.12,2h.06a4.5,4.5,0,0,1,4.06-2.31c1.7,0,4.34,1,4.34,5.23V358h-2.23V351c0-2-.74-3.63-2.85-3.63a3.17,3.17,0,0,0-3,2.28,3,3,0,0,0-.16,1V358h-2.23Z"/><path class="cls-3" d="M129,358l-.17-1.55h-.08a4.58,4.58,0,0,1-3.76,1.83,3.5,3.5,0,0,1-3.76-3.53c0-3,2.65-4.6,7.39-4.57V350a2.54,2.54,0,0,0-2.79-2.85,6.11,6.11,0,0,0-3.2.92l-.51-1.48a7.65,7.65,0,0,1,4-1.09c3.76,0,4.67,2.57,4.67,5v4.59a16.55,16.55,0,0,0,.21,3Zm-.33-6.27c-2.43,0-5.2.38-5.2,2.77a2,2,0,0,0,2.11,2.13,3.06,3.06,0,0,0,3-2.06,2.52,2.52,0,0,0,.12-.71Z"/><path class="cls-3" d="M145,345.75c-.05.89-.1,1.88-.1,3.38v7.13c0,2.82-.56,4.55-1.75,5.61a6.5,6.5,0,0,1-4.47,1.48,8,8,0,0,1-4.09-1l.56-1.7a7,7,0,0,0,3.61,1c2.28,0,4-1.19,4-4.29v-1.37h-.05a4.38,4.38,0,0,1-3.91,2.06c-3,0-5.23-2.59-5.23-6,0-4.17,2.72-6.53,5.53-6.53a4.11,4.11,0,0,1,3.84,2.13h0l.1-1.85Zm-2.31,4.85a3.29,3.29,0,0,0-.12-1,3.23,3.23,0,0,0-3.13-2.36c-2.13,0-3.65,1.81-3.65,4.65,0,2.41,1.22,4.42,3.63,4.42a3.28,3.28,0,0,0,3.1-2.29,4.08,4.08,0,0,0,.17-1.19Z"/><path class="cls-3" d="M149.85,352.3c.05,3,2,4.27,4.22,4.27a8,8,0,0,0,3.4-.64l.38,1.6a9.89,9.89,0,0,1-4.09.76c-3.78,0-6-2.48-6-6.19s2.18-6.63,5.76-6.63c4,0,5.08,3.53,5.08,5.79a10,10,0,0,1-.07,1Zm6.55-1.6c0-1.42-.58-3.63-3.09-3.63-2.26,0-3.25,2.08-3.43,3.63Z"/><path class="cls-3" d="M161.33,349.08c0-1.27,0-2.31-.1-3.33h2l.1,2h.08a4.23,4.23,0,0,1,3.86-2.26,3.65,3.65,0,0,1,3.48,2.46h.05a5.19,5.19,0,0,1,1.37-1.6,4.25,4.25,0,0,1,2.72-.86c1.62,0,4,1.07,4,5.33V358h-2.18v-7c0-2.36-.86-3.78-2.67-3.78a2.89,2.89,0,0,0-2.64,2,3.77,3.77,0,0,0-.17,1.12V358H169v-7.36c0-2-.86-3.38-2.56-3.38a3.33,3.33,0,0,0-3,3.33V358h-2.18Z"/><path class="cls-3" d="M183.75,352.3c.05,3,2,4.27,4.21,4.27a8,8,0,0,0,3.4-.64l.38,1.6a9.83,9.83,0,0,1-4.08.76c-3.79,0-6-2.48-6-6.19s2.19-6.63,5.77-6.63c4,0,5.08,3.53,5.08,5.79a9.4,9.4,0,0,1-.08,1Zm6.55-1.6c0-1.42-.59-3.63-3.1-3.63-2.26,0-3.25,2.08-3.43,3.63Z"/><path class="cls-3" d="M195.22,349.08c0-1.27,0-2.31-.1-3.33h2l.13,2h.05a4.51,4.51,0,0,1,4.06-2.31c1.7,0,4.34,1,4.34,5.23V358h-2.23V351c0-2-.74-3.63-2.85-3.63a3.17,3.17,0,0,0-3,2.28,3.26,3.26,0,0,0-.15,1V358h-2.24Z"/><path class="cls-3" d="M211.9,342.22v3.53h3.2v1.7h-3.2v6.63c0,1.52.43,2.39,1.68,2.39a4.73,4.73,0,0,0,1.29-.16L215,358a5.4,5.4,0,0,1-2,.3,3.1,3.1,0,0,1-2.41-.94,4.56,4.56,0,0,1-.86-3.19v-6.71h-1.91v-1.7h1.91v-2.94Z"/><circle class="cls-4" cx="51.4" cy="215.04" r="4.5"/><circle class="cls-4" cx="51.4" cy="270.35" r="4.5"/><circle class="cls-4" cx="51.4" cy="325.66" r="4.5"/><line class="cls-7" x1="19.1" y1="171.03" x2="388.87" y2="170.96"/><path class="cls-3" d="M82.4,72.14c3.42-11.69,11-18.22,23-19.64V45.25h-4.64V42.58h12v2.61h-4.61v7.27c1.81.35,3.6.6,5.32,1.06a24.74,24.74,0,0,1-3.31,48.3,11.61,11.61,0,0,1-2.34.19c-.8-.05-1,.34-1.25,1-.8,2.11-1.7,4.17-2.55,6.26a.9.9,0,0,1-1.14.61c-1.19-.18-2.53-.6-3.58-.24s-1.71,1.56-2.56,2.36-1.63,1.43-2.39,2.2a1.78,1.78,0,0,0-.46,1.13,31.74,31.74,0,0,0,.28,3.23,1,1,0,0,1-.65,1.24L87,122.49a.88.88,0,0,1-1.17-.36,27.76,27.76,0,0,0-2.14-2.57,1.92,1.92,0,0,0-1.21-.51c-1.93,0-3.86,0-5.78,0a1.65,1.65,0,0,0-1.07.43c-.78.83-1.5,1.73-2.2,2.63a.89.89,0,0,1-1.16.39c-2.2-.92-4.4-1.84-6.6-2.73-.58-.24-.66-.63-.59-1.18.13-1.1.27-2.21.31-3.32a1.64,1.64,0,0,0-.45-1.05c-1.36-1.41-2.74-2.8-4.16-4.15a1.81,1.81,0,0,0-1.14-.49,25.11,25.11,0,0,0-3.12.28c-.64.1-1.06,0-1.32-.65q-1.29-3.27-2.64-6.53a1,1,0,0,1,.41-1.25c.88-.68,1.75-1.38,2.56-2.14a1.45,1.45,0,0,0,.38-1c0-1.82,0-3.65,0-5.47a1.51,1.51,0,0,0-.4-1c-.81-.75-1.68-1.46-2.56-2.14a1,1,0,0,1-.4-1.26c.89-2.17,1.78-4.34,2.65-6.53.26-.65.7-.73,1.32-.65a27.38,27.38,0,0,0,3.13.29,1.76,1.76,0,0,0,1.12-.49c1.39-1.33,2.76-2.69,4.08-4.09a1.92,1.92,0,0,0,.52-1.21,32,32,0,0,0-.3-3.23.94.94,0,0,1,.6-1.16c2.17-.89,4.34-1.81,6.51-2.71a1,1,0,0,1,1.25.38c.7.91,1.44,1.79,2.2,2.63a1.36,1.36,0,0,0,.88.44C78.49,72.16,80.45,72.14,82.4,72.14Zm24.3,27.24a22.09,22.09,0,1,0-22-22.19A22.1,22.1,0,0,0,106.7,99.38ZM82,74.75a14.43,14.43,0,0,0-5.51.11A2,2,0,0,1,74,74c-.64-.89-1.44-2.14-2.32-2.27s-2.15.77-3.25,1.19c-.54.2-.62.53-.55,1.06a31.8,31.8,0,0,1,.28,3.22,1.47,1.47,0,0,1-.5,1,23.09,23.09,0,0,0-5.61,5.59,1.51,1.51,0,0,1-1.1.51c-1.08,0-2.15-.2-3.23-.23a1.14,1.14,0,0,0-.88.47c-.47,1-.82,2-1.25,3A.84.84,0,0,0,56,88.73c.78.59,1.49,1.29,2.28,1.86A1.2,1.2,0,0,1,58.79,92a16.59,16.59,0,0,0,0,6.73,1.89,1.89,0,0,1-.82,2.13c-2.83,2.29-2.8,2.31-1.12,5.59a.9.9,0,0,0,1.07.58,27.48,27.48,0,0,1,3.13-.24,1.69,1.69,0,0,1,1.1.51c1.21,1.29,2.32,2.66,3.54,3.93.8.83,2.14,1.38,2.49,2.33s-.06,2.38-.21,3.58c-.07.54,0,.86.56,1.07,1,.37,1.92.83,2.91,1.16a1.24,1.24,0,0,0,1-.29,31.16,31.16,0,0,0,2.08-2.49,1.08,1.08,0,0,1,1.15-.44,46.14,46.14,0,0,0,5,.36c1.23,0,2.64-.68,3.64-.27s1.72,1.81,2.51,2.81c.34.42.64.58,1.16.35,1-.43,2-.77,2.88-1.24a1.24,1.24,0,0,0,.52-1c0-1.07-.24-2.14-.26-3.22a1.51,1.51,0,0,1,.51-1.1,21.54,21.54,0,0,0,5.51-5.55,1.17,1.17,0,0,1,1.29-.58,30,30,0,0,0,3.13.24,1.11,1.11,0,0,0,.88-.49c.48-1,.87-2,1.26-3.08.07-.2.07-.6-.06-.69a9.46,9.46,0,0,0-2-1.2c-.91-.36-1.92-.46-2.82-.82-1.9-.77-3.75-1.64-5.61-2.46A14,14,0,0,1,76,108.76c-6.24-1.69-10.8-8.08-10.11-14.28A13.86,13.86,0,0,1,82.28,82.13Zm-2.13,9.82a11,11,0,1,0,.32,22,11.25,11.25,0,0,0,10.48-9.41,1.6,1.6,0,0,0-.57-1.62,20.56,20.56,0,0,1-6-8.43c-.66-1.91-1.85-2.37-3.52-2.49C80.28,84.58,80,84.58,79.82,84.57Z"/><path class="cls-3" d="M112.46,70.88c-.63,1.06-1.23,2-1.72,3a1.18,1.18,0,0,0,.2,1,5.35,5.35,0,0,1-8.43,6.59,5.47,5.47,0,0,1-.48-5.91,5.23,5.23,0,0,1,5.36-2.69,1,1,0,0,0,1.22-.59c.46-.9,1-1.75,1.56-2.71l-4.12-2.46,10.59-6V73.31Zm-5.74,9.93a2.71,2.71,0,0,0,0-5.42,2.71,2.71,0,1,0,0,5.42Z"/><path class="cls-3" d="M478.35,51.26c1.24.23,2.51.39,3.74.71a17.94,17.94,0,1,1-8.15-.28c.87-.18,1.74-.29,2.61-.43Zm-.9,33.41a15.35,15.35,0,1,0-15.36-15.35A15.4,15.4,0,0,0,477.45,84.67Z"/><path class="cls-3" d="M533.57,86.58c-.06.19-.15.37-.19.56a5.3,5.3,0,1,1-8.16-5.5,1,1,0,0,0,.51-1.42,33.12,33.12,0,0,0-16.92-20.45l-.48-.24a2.32,2.32,0,0,0-.3,0l-1.63,4.25-7.76-9.46,12.07-2L509,56.87l1.48.79a35.58,35.58,0,0,1,17.85,22.16,1.24,1.24,0,0,0,1.07,1.06,5.14,5.14,0,0,1,4,4c.06.23.13.45.2.67Zm-5.42-3.22a2.64,2.64,0,0,0-2.63,2.7,2.67,2.67,0,1,0,5.34-.09A2.64,2.64,0,0,0,528.15,83.36Z"/><path class="cls-3" d="M494.88,99.86c1.06.48,1.76-.27,2.66-1.08,1.23-1.09,1.88-2.16,1.45-3.81a1.06,1.06,0,0,1,.48-.87c1.34-.63,2.73-1.18,4.1-1.75a.75.75,0,0,1,1.06.35c.77,1.43,2,1.7,3.53,1.66,1.35,0,2.35-.25,3-1.46a1,1,0,0,1,1.56-.45c1.25.56,2.51,1.09,3.78,1.61a.73.73,0,0,1,.52,1c-.4,1.45.07,2.44,1.18,3.56a3.39,3.39,0,0,0,3.54,1.23.75.75,0,0,1,1,.5c.55,1.38,1.11,2.76,1.67,4.13a.75.75,0,0,1-.32,1.06,3.18,3.18,0,0,0-1.59,3.09c0,1.49.24,2.5,1.52,3.21a.84.84,0,0,1,.37,1.2c-.55,1.35-1.11,2.7-1.65,4a.73.73,0,0,1-1,.52c-1.53-.48-2.5.21-3.61,1.27a3.13,3.13,0,0,0-1.13,3.4.84.84,0,0,1-.59,1.11c-1.35.55-2.68,1.14-4,1.63a1.06,1.06,0,0,1-1-.26A3.69,3.69,0,0,0,507.9,123a3.35,3.35,0,0,0-3.2,1.59.84.84,0,0,1-1.19.4c-1.31-.57-2.64-1.1-4-1.63-.48-.2-.73-.51-.58-1,.4-1.51-.16-2.51-1.29-3.6s-1.91-1.57-3.3-1.16a.94.94,0,0,1-1.24-.68c-.52-1.33-1-2.66-1.58-4a.71.71,0,0,1,.35-1c1.4-.73,1.51-1.91,1.58-3.36a2.81,2.81,0,0,0-1.46-2.88.94.94,0,0,1-.43-1.34c.49-1.15.88-2.34,1.39-3.48S493.51,99.78,494.88,99.86Zm19.39,19.32a46.85,46.85,0,0,0,3.37-3.43c.56-.69,1.05-1,1.9-.85.18,0,.37,0,.54,0,.71.22,1,0,1.33-.73s.38-1.28-.41-1.71a8.6,8.6,0,0,1-.76-.62.91.91,0,0,1-.4-1,8.84,8.84,0,0,0,.15-3,2.56,2.56,0,0,1,1.26-3.18.91.91,0,0,0,.41-.69c-.12-1.27-.65-1.66-1.92-1.5l-.45.06a1.23,1.23,0,0,1-1.42-.58,8.42,8.42,0,0,0-2.11-2.29,2.7,2.7,0,0,1-1.37-3.24.9.9,0,0,0-.23-.76c-.95-.74-1.5-.65-2.27.26a4.7,4.7,0,0,0-.45.55,1.13,1.13,0,0,1-1.29.52,10.47,10.47,0,0,0-3.2-.12,2.68,2.68,0,0,1-3.24-1.37.85.85,0,0,0-.7-.34c-1.34.24-1.55.56-1.4,1.9,0,.18,0,.36.05.53A1.27,1.27,0,0,1,501,99a10.77,10.77,0,0,0-2.4,2.26,2.33,2.33,0,0,1-2.87,1.18,1.09,1.09,0,0,0-.89.16,1.48,1.48,0,0,0,.2,2.38,4.66,4.66,0,0,0,.49.39,1.18,1.18,0,0,1,.55,1.35,8.32,8.32,0,0,0-.13,2.93,2.57,2.57,0,0,1-1.32,3.17.88.88,0,0,0-.33.71c.19,1.24.57,1.51,1.8,1.41a4.21,4.21,0,0,0,.62,0c.65-.16,1,.15,1.39.64a11.56,11.56,0,0,0,2.48,2.55,2,2,0,0,1,.95,2.47c-.22.81,0,1.24.84,1.53s1.12.28,1.5-.38a10.72,10.72,0,0,1,.67-.84,1,1,0,0,1,1.13-.44,9.32,9.32,0,0,0,3.19.16,2.7,2.7,0,0,1,3.38,1.38c.34.63.83.27,1.23.09s1-.21.92-1S514.31,119.64,514.27,119.18Z"/><path class="cls-3" d="M487.24,124.48l-12.08,2,1.7-4.56c-1.87-1.25-3.77-2.37-5.51-3.71a35.3,35.3,0,0,1-12.55-18.4c-.16-.54-.3-.91-1-1a5.15,5.15,0,0,1-4.24-4.87,5.29,5.29,0,1,1,8.82,3.65c-.36.32-.76.57-1.24.93a33.57,33.57,0,0,0,16.69,20.8l1.64-4.26ZM458.82,96.26a2.65,2.65,0,0,0,2.7-2.62,2.72,2.72,0,0,0-2.63-2.73,2.76,2.76,0,0,0-2.72,2.66A2.68,2.68,0,0,0,458.82,96.26Z"/><path class="cls-3" d="M476.24,57.54h2a4.24,4.24,0,0,1,.51.06V68.43h6.51V71h-9Z"/><path class="cls-3" d="M499.44,108.72a8.55,8.55,0,1,1,8.53,8.47A8.53,8.53,0,0,1,499.44,108.72Zm14.65,0a6.13,6.13,0,0,0-12.25,0,6.23,6.23,0,0,0,6.17,6.08A6.15,6.15,0,0,0,514.09,108.69Z"/><path class="cls-3" d="M903.23,50.14c1.19,1.12,2.38,2.25,3.6,3.35a1.71,1.71,0,0,0,.86.33c1.32.15,2.64.28,4,.37a1.58,1.58,0,0,1,1.47,1.06c.5,1.19,1,2.39,1.54,3.55a2.37,2.37,0,0,0,.86,1c1.07.65,2.18,1.26,3.29,1.84a1.72,1.72,0,0,1,1,1.81c0,.26-.05.52-.06.78-.12,3.5-.17,3.55,2,6.3,1,1.26,1.39,2.4.42,3.81a6.64,6.64,0,0,0-.7,6.5c.11.29.11.63.22.94a1.67,1.67,0,0,1-.67,2c-.95.78-1.87,1.6-2.78,2.43a1.62,1.62,0,0,0-.56.75c-.32,1.38-.59,2.78-.83,4.18a1.75,1.75,0,0,0,.28.89q7.25,15,14.51,29.9c.1.22.2.46.37.87l-11.14-3.73-4.07,11.07L901.59,98.29c-1,.6-2,1.15-2.94,1.75a1.64,1.64,0,0,1-2,0,10.58,10.58,0,0,1-1.08-.64,6.65,6.65,0,0,0-6.32-1.26,2.55,2.55,0,0,1-1.15.12,3.8,3.8,0,0,1-1.46-.7,3.57,3.57,0,0,1-.91-1.25c-1.1-2.3-3-3.28-5.56-3.54l-12.32,25.35,7.54-2.49,2.76,7.47L884.05,111l-4.28-2.11,10.38-7.08,1,12.53-4.57-2.17-8.72,17.9-4-11-11.19,3.74c1-2.06,1.89-3.93,2.8-5.8,4.19-8.63,8.4-17.25,12.55-25.89a4.26,4.26,0,0,0,.11-1.76,5.78,5.78,0,0,0-2.58-4.58c-2.48-2-2.37-1.45-1.51-4.61a6.84,6.84,0,0,0-.53-5.24c-1.49-3-1.63-2.25.52-4.89a6.76,6.76,0,0,0,1.6-5c-.18-3.36-.37-2.69,2.45-4.31.69-.4,1.4-.79,2.11-1.18-2-2.64-2.23-5.37-.34-7.45a14.42,14.42,0,0,1,3.09-2H885a6.08,6.08,0,0,1,3.84,3l3.34-3h1l4.24,1.53a.79.79,0,0,0,.48,0l4.21-1.54ZM917,66.56a8.12,8.12,0,0,1,0-1.25A1.79,1.79,0,0,0,915.71,63c-2.52-.83-3.77-2.77-4.45-5.17a1.39,1.39,0,0,0-1.62-1.13,6.88,6.88,0,0,1-6.27-2.68c-.14-.17-.36-.29-.49-.46-.38-.51-.81-.49-1.36-.27a19.28,19.28,0,0,1-2.84.94,4.68,4.68,0,0,1-2,0c-1-.24-2-.71-3-1a1.35,1.35,0,0,0-1.07.22c-1,.83-1.92,1.73-2.86,2.62a1.66,1.66,0,0,0-.4.63c-.92,3-2.77,4.34-5.86,4.27a1.63,1.63,0,0,0-.74.07c-1.3.76-2.57,1.59-3.88,2.34a.92.92,0,0,0-.59,1.06,8,8,0,0,1-2.41,7.54.91.91,0,0,0-.14,1.3,7.94,7.94,0,0,1,.82,7.79,1,1,0,0,0,.42,1.32,7.76,7.76,0,0,1,3.89,6.69,1.09,1.09,0,0,0,1.05,1.15A7.58,7.58,0,0,1,888,94.71a1.12,1.12,0,0,0,1.48.68A7.76,7.76,0,0,1,896.91,97a1,1,0,0,0,1.47,0c2.13-1.69,4.47-2.49,7.18-1.64.06,0,.14,0,.2,0a1.2,1.2,0,0,0,1.62-.75,7.41,7.41,0,0,1,5.88-4.29A1.31,1.31,0,0,0,914.53,89a7.17,7.17,0,0,1,3.5-6.18,1.51,1.51,0,0,0,.68-2.11,6.67,6.67,0,0,1,.64-6.69c.68-1,.41-1.69-.29-2.53C917.85,70,916.34,68.53,917,66.56Zm2.21,49.08,7.54,2.49c-4.16-8.55-8.22-16.91-12.26-25.24-3.06.68-3.06.68-4.75,3.09-.34.48-.7.94-1,1.44a1.7,1.7,0,0,1-1.88.86c-.74-.11-1.49-.16-2.4-.25l12,25.07ZM884,52.86a2.75,2.75,0,1,0,2.75,2.79A2.78,2.78,0,0,0,884,52.86Z"/><path class="cls-3" d="M897.65,91.91a16.66,16.66,0,1,1,16.64-16.44A16.67,16.67,0,0,1,897.65,91.91Zm0-30.55a13.92,13.92,0,1,0,13.92,13.92A13.87,13.87,0,0,0,897.65,61.36Z"/><path class="cls-3" d="M889.32,74.61l5,5,11.87-11.88L908,69.89,894.61,83.44l-7.08-7.08Z"/></svg>