<svg id="Layer_1" data-name="Layer 1" xmlns="http://www.w3.org/2000/svg" width="100" height="100" viewBox="0 0 100 100"><title>reduced-revenue-leakage</title><path d="M94,69.88a7.16,7.16,0,0,1-3.25,3.84Q76.06,83.4,61.45,93.17l-1,.63-1.82-2.71,1.11-.76L88.9,70.91c.3-.2.61-.39.9-.6a1.42,1.42,0,0,0,.64-2,1.45,1.45,0,0,0-2-.66L79.88,71q-8.75,3.39-17.5,6.74a2.83,2.83,0,0,1-1.7.11q-12.57-3.9-25.11-7.9a1.4,1.4,0,0,1-.76-.49H35.9c6.75,0,13.5,0,20.24,0a2.29,2.29,0,0,0,2.26-1.06A1.94,1.94,0,0,0,57,65.56a5.86,5.86,0,0,0-.84,0c-8.79,0-17.58,0-26.38,0a3.87,3.87,0,0,0-1.8.45q-8.8,5-17.56,10a1.84,1.84,0,0,0-.89,1.2c-.06,5.62,0,11.24,0,16.87a2.47,2.47,0,0,0,.15.46c1.71-.88,3.36-1.75,5-2.61,3.14-1.61,6.29-3.2,9.42-4.82a5.33,5.33,0,0,1,3.36-.53c3.25.47,6.52.83,9.87,1.25L38,82.39l12.08,9.28L36.05,97.49l.77-6.34c-3.47-.43-6.88-.9-10.3-1.25a3.57,3.57,0,0,0-1.79.58c-5.83,3-11.66,6.08-17.49,9.11A7.94,7.94,0,0,1,6,100V74.7L24.85,63.9c-1-1.15-1.85-2.13-2.64-3.19A1.56,1.56,0,0,0,20.59,60c-1.51.2-3,.3-4.55.46a1.9,1.9,0,0,1-2.21-1.24q-1.76-4.34-3.49-8.67A1.78,1.78,0,0,1,11,48.35c1.22-1,2.45-2,3.59-3a2.12,2.12,0,0,0,.59-1.38q.08-4.3,0-8.63A1.91,1.91,0,0,0,14.65,34C13.47,33,12.21,32,11,30.92a1.71,1.71,0,0,1-.65-2.12c1.19-3,2.37-5.93,3.59-8.89A1.77,1.77,0,0,1,16,18.82c1.6.17,3.19.36,4.79.42a2,2,0,0,0,1.38-.63C23.71,17,25,15,26.8,13.78c2.29-1.6,2.71-3.41,2.26-6-.59-3.37-.48-3.46,2.66-4.92C34,1.83,36.44,1,38.8,0H40c1.33,1.53,2.68,3.05,4,4.61a1.62,1.62,0,0,0,1.52.61q4.55-.1,9.09,0a1.61,1.61,0,0,0,1.51-.6C57.43,3,58.85,1.53,60.24,0h1l1.08.46C64.86,1.55,67.44,2.64,70,3.75a2,2,0,0,1,1.21,2.34C71,7.52,71,9,70.8,10.4a2,2,0,0,0,.8,1.93c2.16,2,4.18,4.19,6.3,6.26a2.38,2.38,0,0,0,1.48.65c1.56,0,3.12-.25,4.67-.43A1.86,1.86,0,0,1,86.19,20c1.19,2.88,2.34,5.78,3.51,8.67A1.85,1.85,0,0,1,89,31c-1.21,1-2.44,2-3.59,3a1.75,1.75,0,0,0-.56,1.29,32.79,32.79,0,0,1,0,8.74,1.62,1.62,0,0,0,.51,1.2c1.19,1.08,2.44,2.09,3.69,3.1a1.75,1.75,0,0,1,.71,2.11q-1.77,4.45-3.59,8.9a1.79,1.79,0,0,1-2,1.13c-1.55-.16-3.12-.26-4.67-.46a1.7,1.7,0,0,0-1.62.69c-1.84,2-3.72,4-5.71,5.83-1.5,1.39-1.8,2.22-.94,4.22.45-.17.9-.32,1.35-.5l14.57-5.63a4.79,4.79,0,0,1,6.62,3A1.72,1.72,0,0,0,94,68Zm-43.37-47,5.8,1.64L55.2,27.72c-.49-.22-.87-.42-1.27-.58a9.35,9.35,0,0,0-6.22-.62A3.52,3.52,0,0,0,45,29.4,3.29,3.29,0,0,0,46.44,33a41.94,41.94,0,0,0,3.81,2c1.24.65,2.54,1.21,3.7,2a7,7,0,0,1,3.29,7.13,7.37,7.37,0,0,1-5.14,6.25c-.56.21-1.14.35-1.81.56v4.43H47.43c0-1.18,0-2.26,0-3.34.06-.85-.28-1.05-1.08-1.15A18.24,18.24,0,0,1,42.62,50c-2.14-.73-2.13-.79-1.38-2.85.13-.37.3-.73.48-1.16.38.2.68.37,1,.52a10.2,10.2,0,0,0,7.45,1,4,4,0,0,0,3.1-3.18,4,4,0,0,0-1.74-4.31,36.29,36.29,0,0,0-3.36-1.84A37,37,0,0,1,43.93,36a6.71,6.71,0,0,1,1-11.65c.88-.44,1.84-.72,2.76-1.07V20.86c-4.93-1.45-7.2-8.25-1.51-12.42a9.83,9.83,0,0,0-1,.16A2.6,2.6,0,0,1,42,7.47c-.79-1.15-1.81-2.15-2.66-3.26A.94.94,0,0,0,38,3.85c-1.66.71-3.32,1.4-5,2.07a1.06,1.06,0,0,0-.76,1.28c.2,1.55.3,3.11.47,4.67a2,2,0,0,1-.91,2.06,33.88,33.88,0,0,0-7.92,7.84,2.54,2.54,0,0,1-1.78.87,38.66,38.66,0,0,1-4.8-.39A1,1,0,0,0,16,23c-.67,1.72-1.35,3.43-2.07,5.12a1,1,0,0,0,.37,1.33c1.17.91,2.27,1.91,3.44,2.82a2.31,2.31,0,0,1,.9,2.53,28.13,28.13,0,0,0,0,9.94,2.08,2.08,0,0,1-.78,2.21c-1.22,1-2.44,2-3.59,3A1.37,1.37,0,0,0,14,51.11c.61,1.74,1.35,3.43,2,5.15a1.18,1.18,0,0,0,1.48.81c1.43-.19,2.88-.28,4.31-.45a2.22,2.22,0,0,1,2.26,1c.8,1.1,1.77,2.09,2.57,3.19a3.46,3.46,0,0,0,3.18,1.43c8.91-.06,17.82,0,26.74,0a5.27,5.27,0,0,1,1.12,10.45c-.46.09-.94.11-1.59.17,2.91,1.14,5.61,2.4,8.55.52a9,9,0,0,1,2.34-.92,1,1,0,0,0,.78-1.24c-.15-1.19-.19-2.4-.37-3.59a2.19,2.19,0,0,1,1.05-2.35A30.31,30.31,0,0,0,76,57.73a2.36,2.36,0,0,1,2.45-1.11c1.4.18,2.8.26,4.19.45a1.18,1.18,0,0,0,1.49-.81c.64-1.68,1.31-3.36,2-5a1,1,0,0,0-.42-1.43c-1.17-.92-2.28-1.91-3.44-2.83a2.09,2.09,0,0,1-.86-2.2,29,29,0,0,0,0-10.17,2.15,2.15,0,0,1,.84-2.3c1.16-.94,2.27-1.93,3.43-2.85a1,1,0,0,0,.44-1.41c-.73-1.69-1.4-3.4-2.07-5.12-.25-.64-.64-.77-1.31-.68-1.55.2-3.11.29-4.67.43a2,2,0,0,1-2-.91A30.52,30.52,0,0,0,68.3,14a2.13,2.13,0,0,1-1-2.27c.18-1.51.33-3,.37-4.56A1.43,1.43,0,0,0,67.07,6C65.41,5.21,63.68,4.58,62,3.84c-.62-.28-.94,0-1.3.41-.9,1.13-1.92,2.17-2.75,3.35a2.48,2.48,0,0,1-2.82,1c-.78-.15-1.58-.21-2.37-.32,2.46,1.9,3.67,4.21,3.18,7.21s-2.51,4.7-5.32,5.49Zm-1.22-5.15a3.41,3.41,0,0,0,3.38-3.36,3.36,3.36,0,0,0-6.72-.06A3.46,3.46,0,0,0,49.39,17.77Z"/></svg>