<svg id="Layer_1" data-name="Layer 1" xmlns="http://www.w3.org/2000/svg" width="100" height="100" viewBox="0 0 100 100"><title>various-accelerators</title><path d="M78.76,72.35c-.1-5.45.14-10.92-.17-16.4-6.35.61-10-5-7.51-10.35L51.81,34.42v38a13.94,13.94,0,0,1,10.51,7.37A13.11,13.11,0,0,1,63.61,89a13.84,13.84,0,0,1-14.33,11,13.89,13.89,0,0,1-1.05-27.65V34.4L29.16,45.45c2.76,6-1.79,11.33-7.72,10.46V72.44a13.86,13.86,0,0,1,10.09,6.77,13.5,13.5,0,0,1,1.64,9.67,13.91,13.91,0,1,1-15.39-16.5V71.16c0-3.7,0-7.4,0-11.09,0-1.67.31-3.33.4-5a2.25,2.25,0,0,0-.41-1.41,6.94,6.94,0,0,1,7.92-11,1.58,1.58,0,0,0,1.6-.11q10-5.82,20-11.58a1.73,1.73,0,0,0,1-1.73c0-4.75,0-9.5,0-14.25,0-.38,0-.76-.06-1.22H42c2.7-4.65,5.3-9.12,8-13.8l8,13.71H51.7V15c0,4.79,0,9.58,0,14.37a1.55,1.55,0,0,0,.88,1.57c6.77,3.9,13.52,7.85,20.3,11.73a2.08,2.08,0,0,0,1.57,0,7.08,7.08,0,0,1,8.51,2.46,7,7,0,0,1-.69,8.71,1.8,1.8,0,0,0-.48,1.08c.11,3.3.33,6.59.42,9.89.07,2.49,0,5,0,7.57a14,14,0,0,1,10.59,7.4,13.3,13.3,0,0,1,1.28,9.28A13.92,13.92,0,1,1,78.76,72.35ZM50,96.57A10.42,10.42,0,1,0,39.5,86.12,10.46,10.46,0,0,0,50,96.57Zm-30.44,0A10.42,10.42,0,1,0,9.06,86.15,10.4,10.4,0,0,0,19.53,96.57Zm71.4-10.4a10.46,10.46,0,1,0-10.49,10.4A10.48,10.48,0,0,0,90.93,86.17ZM77.21,45.54a3.53,3.53,0,1,0-.09,7.05,3.53,3.53,0,1,0,.09-7.05ZM23,52.59a3.53,3.53,0,1,0,.12-7.05A3.53,3.53,0,1,0,23,52.59Z"/></svg>