<svg id="Layer_1" data-name="Layer 1" xmlns="http://www.w3.org/2000/svg" viewBox="0 0 620.24 570.74"><defs><style>.cls-1{fill:#fbc2ba}.cls-3{fill:#4c0519}.cls-4{fill:none;stroke:#4c0519;stroke-miterlimit:10;stroke-width:3px}</style></defs><path class="cls-1" d="M0 0h620.24v183.97H0z"/><path fill="#fcddd6" d="M0 189.78h620.24v186.97H0z"/><path class="cls-1" d="M0 382.78h620.24v187.97H0z"/><path class="cls-3" d="M92.71 106.76a34.93 34.93 0 0 1 5.58-.42c2.9 0 4.88.48 6.23 1.62a5.12 5.12 0 0 1 1.74 4.05 5.38 5.38 0 0 1-3.66 5.07v.09c1.44.54 2.31 2 2.82 3.9a40.36 40.36 0 0 0 1.59 5.64h-3.8a27.24 27.24 0 0 1-1.36-4.77c-.56-2.64-1.52-3.48-3.63-3.54h-1.85v8.31h-3.66zm3.66 8.94h2.18c2.49 0 4-1.32 4-3.33 0-2.22-1.56-3.24-4-3.24a10.42 10.42 0 0 0-2.27.18zM113.85 108a2.07 2.07 0 1 1-2.07-2 2 2 0 0 1 2.07 2zm-3.93 18.69V112.1h3.72v14.61zM117.42 123.32a8.23 8.23 0 0 0 3.75 1.05c1.62 0 2.34-.66 2.34-1.62s-.6-1.5-2.4-2.13c-2.85-1-4-2.55-4-4.26 0-2.58 2.13-4.59 5.52-4.59a8.58 8.58 0 0 1 3.87.87l-.72 2.61a6.56 6.56 0 0 0-3.09-.84c-1.32 0-2 .63-2 1.53s.69 1.38 2.55 2c2.64 1 3.87 2.31 3.9 4.47 0 2.64-2.07 4.56-5.94 4.56a9.43 9.43 0 0 1-4.44-1zM133.8 118.52h.06c.36-.57.78-1.2 1.17-1.71l3.54-4.71H143l-5.4 6 6.18 8.64h-4.53l-4.2-6.45-1.26 1.47v5h-3.69v-21.3h3.69zM51 146.45c0-1.68 0-3.09-.12-4.35h3.18l.15 2.16h.09a5.05 5.05 0 0 1 4.5-2.49 4.21 4.21 0 0 1 4.05 2.7h.06a5.53 5.53 0 0 1 1.8-1.83 4.88 4.88 0 0 1 2.94-.87c2.43 0 4.89 1.65 4.89 6.33v8.61H69v-8.07c0-2.43-.84-3.87-2.61-3.87a2.81 2.81 0 0 0-2.58 1.95 5.28 5.28 0 0 0-.21 1.28v8.76H60v-8.46c0-2-.81-3.48-2.52-3.48a2.88 2.88 0 0 0-2.64 2.1 3.16 3.16 0 0 0-.21 1.2v8.64H51zM80.4 138a2.07 2.07 0 1 1-2.07-2 2 2 0 0 1 2.07 2zm-3.93 18.69V142.1h3.72v14.61zM88.38 137.93v4.17h3.51v2.76h-3.51v6.45c0 1.77.48 2.7 1.89 2.7a5.45 5.45 0 0 0 1.44-.18l.06 2.82a8.11 8.11 0 0 1-2.67.36 4.27 4.27 0 0 1-3.18-1.2c-.78-.84-1.13-2.16-1.13-4.08v-6.87h-2.11v-2.76h2.11v-3.3zM98.61 138a2.07 2.07 0 1 1-2.07-2 2 2 0 0 1 2.07 2zm-3.93 18.69V142.1h3.72v14.61zM115.71 142.1c-.06 1-.12 2.19-.12 4.2v8.28c0 3.06-.63 5.25-2.16 6.63a8.4 8.4 0 0 1-5.64 1.77 10.34 10.34 0 0 1-5.1-1.17l.81-2.79a8.82 8.82 0 0 0 4.26 1.11c2.4 0 4.2-1.26 4.2-4.41v-1.26h-.06a4.93 4.93 0 0 1-4.26 2.16c-3.63 0-6.21-3-6.21-7.14 0-4.8 3.12-7.71 6.63-7.71a4.6 4.6 0 0 1 4.23 2.28h.06l.15-2zm-3.81 5.9a3.58 3.58 0 0 0-.12-1 3.06 3.06 0 0 0-3-2.37c-2.07 0-3.6 1.8-3.6 4.77 0 2.49 1.26 4.5 3.57 4.5a3.15 3.15 0 0 0 3-2.22 6.36 6.36 0 0 0 .15-1.32zM127.77 156.71l-.24-1.62h-.09a5.43 5.43 0 0 1-4.32 1.95 4.34 4.34 0 0 1-4.59-4.35c0-3.69 3.27-5.55 8.67-5.52v-.24c0-1-.39-2.55-3-2.55a7.74 7.74 0 0 0-3.93 1.08l-.72-2.4a10.52 10.52 0 0 1 5.28-1.29c4.68 0 6 3 6 6.15v5.28a23.43 23.43 0 0 0 .21 3.51zm-.48-7.14c-2.61-.06-5.1.51-5.1 2.73a1.94 1.94 0 0 0 2.1 2.1 3 3 0 0 0 2.88-2 2.65 2.65 0 0 0 .12-.81zM138.84 137.93v4.17h3.51v2.76h-3.51v6.45c0 1.77.48 2.7 1.89 2.7a5.45 5.45 0 0 0 1.44-.18l.06 2.82a8.11 8.11 0 0 1-2.67.36 4.27 4.27 0 0 1-3.18-1.2c-.78-.84-1.14-2.16-1.14-4.08v-6.87h-2.1v-2.76h2.1v-3.3zM149.07 138a2.07 2.07 0 1 1-2.07-2 2 2 0 0 1 2.07 2zm-3.93 18.69V142.1h3.72v14.61zM166.71 149.27c0 5.37-3.78 7.77-7.5 7.77-4.14 0-7.32-2.85-7.32-7.53s3.15-7.74 7.56-7.74 7.26 3.06 7.26 7.5zm-11 .15c0 2.82 1.38 5 3.63 5 2.1 0 3.57-2.07 3.57-5 0-2.28-1-4.89-3.54-4.89s-3.67 2.47-3.67 4.89zM169.74 146.45c0-1.68 0-3.09-.12-4.35h3.24l.18 2.19h.09a5.27 5.27 0 0 1 4.65-2.52c2.55 0 5.19 1.65 5.19 6.27v8.67h-3.69v-8.25c0-2.1-.78-3.69-2.79-3.69a3.1 3.1 0 0 0-2.88 2.16 3.76 3.76 0 0 0-.15 1.2v8.58h-3.72zM285.51 48.35c-2.31-.61-4.57-1.29-6.55-2a3.49 3.49 0 0 0-1-.25c-4.06-.15-7.54-3.15-7.54-8.66s3.35-9 8-9 7.67 3.6 7.67 8.66c0 4.39-2 7.21-4.88 8.2v.1c1.7.43 3.56.84 5 1.09zm-1.83-11.14c0-3.43-1.77-7-5.41-7s-5.56 3.45-5.53 7.16 2 6.91 5.43 6.91 5.51-3.16 5.51-7.07zM299.17 42.49c0 1.27 0 2.39.1 3.35h-2l-.13-2h-.05a4.62 4.62 0 0 1-4.06 2.29c-1.93 0-4.24-1.07-4.24-5.38v-7.2H291v6.81c0 2.33.71 3.91 2.75 3.91a3.23 3.23 0 0 0 2.94-2 3.17 3.17 0 0 0 .2-1.14v-7.58h2.24zM309.68 45.84l-.18-1.55h-.07a4.58 4.58 0 0 1-3.76 1.83 3.5 3.5 0 0 1-3.76-3.53c0-3 2.64-4.6 7.39-4.57v-.25a2.54 2.54 0 0 0-2.79-2.85 6.09 6.09 0 0 0-3.2.92l-.51-1.48a7.62 7.62 0 0 1 4-1.09c3.75 0 4.67 2.57 4.67 5v4.59a17.62 17.62 0 0 0 .2 3zm-.33-6.27c-2.44 0-5.21.38-5.21 2.77a2 2 0 0 0 2.11 2.13 3.05 3.05 0 0 0 3-2.06 2.22 2.22 0 0 0 .13-.71zM315.11 27.81h2.24v18h-2.24zM323.59 30.1a1.31 1.31 0 0 1-1.42 1.37 1.33 1.33 0 0 1-1.35-1.37 1.37 1.37 0 0 1 1.4-1.4 1.33 1.33 0 0 1 1.37 1.4zm-2.49 15.74V33.55h2.24v12.29zM329.74 30v3.53h3.19v1.7h-3.19v6.63c0 1.52.43 2.39 1.67 2.39a4.76 4.76 0 0 0 1.3-.16l.1 1.68a5.44 5.44 0 0 1-2 .3 3.12 3.12 0 0 1-2.42-.94 4.56 4.56 0 0 1-.86-3.19v-6.69h-1.9v-1.7h1.9v-2.94zM336.49 33.55l2.69 7.26c.28.82.58 1.78.79 2.52.23-.74.48-1.68.78-2.57l2.44-7.21h2.36l-3.35 8.76c-1.6 4.22-2.69 6.37-4.21 7.69a6 6 0 0 1-2.75 1.45l-.55-1.88a6 6 0 0 0 1.95-1.09 6.72 6.72 0 0 0 1.93-2.48 1.63 1.63 0 0 0 .18-.53 1.69 1.69 0 0 0-.16-.58l-4.54-11.33zM361.77 45.38a8.09 8.09 0 0 1-3.52.71c-3.71 0-6.12-2.51-6.12-6.27a6.24 6.24 0 0 1 6.6-6.52 7.57 7.57 0 0 1 3.1.63l-.51 1.73a5.13 5.13 0 0 0-2.59-.59c-2.82 0-4.34 2.09-4.34 4.65 0 2.84 1.82 4.6 4.26 4.6a6.31 6.31 0 0 0 2.74-.61zM375.36 39.59c0 4.55-3.15 6.53-6.12 6.53-3.33 0-5.89-2.44-5.89-6.32 0-4.12 2.69-6.53 6.09-6.53s5.92 2.57 5.92 6.32zm-9.75.13c0 2.69 1.55 4.72 3.73 4.72s3.73-2 3.73-4.77c0-2.08-1-4.72-3.68-4.72s-3.78 2.44-3.78 4.77zM378.17 36.88c0-1.27 0-2.31-.1-3.33h2l.13 2h.05a4.51 4.51 0 0 1 4.06-2.31c1.71 0 4.35 1 4.35 5.23v7.34h-2.26v-7.05c0-2-.74-3.63-2.84-3.63a3.17 3.17 0 0 0-3 2.28 3.26 3.26 0 0 0-.15 1v7.39h-2.24zM394.86 30v3.53h3.2v1.7h-3.2v6.63c0 1.52.43 2.39 1.67 2.39a4.76 4.76 0 0 0 1.3-.16l.1 1.68a5.44 5.44 0 0 1-2 .3 3.09 3.09 0 0 1-2.41-.94 4.51 4.51 0 0 1-.87-3.19v-6.69h-1.9v-1.7h1.9v-2.94zM400.57 37.39c0-1.45 0-2.7-.1-3.84h1.95l.08 2.45h.1a3.68 3.68 0 0 1 3.4-2.69 2.49 2.49 0 0 1 .64.08v2.11a2.94 2.94 0 0 0-.77-.08 3.13 3.13 0 0 0-3 2.87 6.33 6.33 0 0 0-.1 1v6.55h-2.21zM419.74 39.59c0 4.55-3.15 6.53-6.12 6.53-3.33 0-5.89-2.44-5.89-6.32 0-4.12 2.69-6.53 6.09-6.53s5.92 2.57 5.92 6.32zm-9.75.13c0 2.69 1.55 4.72 3.73 4.72s3.73-2 3.73-4.77c0-2.08-1-4.72-3.68-4.72S410 37.39 410 39.72zM422.55 27.81h2.24v18h-2.24zM271.09 98.15a7.83 7.83 0 0 0 4 1.12c2.26 0 3.58-1.2 3.58-2.92s-.91-2.52-3.22-3.41c-2.8-1-4.52-2.43-4.52-4.85 0-2.66 2.2-4.64 5.53-4.64a7.66 7.66 0 0 1 3.78.84l-.61 1.8a6.72 6.72 0 0 0-3.25-.81c-2.33 0-3.22 1.39-3.22 2.56 0 1.6 1 2.39 3.4 3.3 2.9 1.12 4.37 2.51 4.37 5s-2 4.92-6 4.92a8.84 8.84 0 0 1-4.37-1.09zM290.71 100.84l-.17-1.55h-.08a4.55 4.55 0 0 1-3.76 1.83 3.49 3.49 0 0 1-3.7-3.53c0-3 2.64-4.6 7.38-4.57v-.25a2.54 2.54 0 0 0-2.79-2.85 6.14 6.14 0 0 0-3.2.92l-.51-1.48a7.65 7.65 0 0 1 4-1.09c3.76 0 4.67 2.57 4.67 5v4.59a16.55 16.55 0 0 0 .21 3zm-.33-6.27c-2.43 0-5.2.38-5.2 2.77a2 2 0 0 0 2.11 2.13 3.06 3.06 0 0 0 3-2.06 2.52 2.52 0 0 0 .12-.71zM296.38 100.84V90.25h-1.73v-1.7h1.73V88a5.79 5.79 0 0 1 1.42-4.29 4.24 4.24 0 0 1 3-1.15 5.14 5.14 0 0 1 1.91.36l-.31 1.73a3.2 3.2 0 0 0-1.42-.28c-1.9 0-2.39 1.67-2.39 3.55v.66h3v1.7h-3v10.59zM304.47 95.1c.06 3 2 4.27 4.22 4.27a8 8 0 0 0 3.4-.64l.38 1.6a9.85 9.85 0 0 1-4.09.76c-3.78 0-6-2.48-6-6.19s2.19-6.63 5.77-6.63c4 0 5.07 3.53 5.07 5.79a10 10 0 0 1-.07 1zm6.53-1.6c0-1.42-.59-3.63-3.1-3.63-2.26 0-3.25 2.08-3.43 3.63zM318.64 85v3.53h3.2v1.7h-3.2v6.63c0 1.52.43 2.39 1.68 2.39a4.73 4.73 0 0 0 1.29-.16l.1 1.68a5.4 5.4 0 0 1-2 .3 3.09 3.09 0 0 1-2.41-.94 4.56 4.56 0 0 1-.86-3.19v-6.69h-1.91v-1.7h1.91v-2.94zM325.39 88.55l2.7 7.26c.28.82.58 1.78.78 2.52h.05c.23-.74.49-1.68.79-2.57l2.44-7.21h2.36l-3.35 8.76c-1.6 4.22-2.69 6.37-4.22 7.69a6 6 0 0 1-2.74 1.45l-.56-1.88a5.92 5.92 0 0 0 2-1.09 6.72 6.72 0 0 0 1.88-2.49 1.56 1.56 0 0 0 .17-.53 1.87 1.87 0 0 0-.15-.58L323 88.55zM341.92 91.88c0-1.27 0-2.31-.1-3.33h2l.1 2h.08a4.24 4.24 0 0 1 3.86-2.26 3.63 3.63 0 0 1 3.48 2.46 5.16 5.16 0 0 1 1.37-1.59 4.2 4.2 0 0 1 2.72-.87c1.62 0 4 1.07 4 5.33v7.24h-2.19v-7c0-2.36-.86-3.78-2.66-3.78a2.89 2.89 0 0 0-2.64 2 3.46 3.46 0 0 0-.18 1.12v7.59h-2.18v-7.31c0-2-.87-3.38-2.57-3.38a3.06 3.06 0 0 0-2.77 2.23 3.29 3.29 0 0 0-.17 1.1v7.41h-2.19zM369.9 100.84l-.18-1.55h-.07a4.58 4.58 0 0 1-3.76 1.83 3.5 3.5 0 0 1-3.76-3.53c0-3 2.64-4.6 7.39-4.57v-.25a2.54 2.54 0 0 0-2.79-2.85 6.09 6.09 0 0 0-3.2.92l-.53-1.48a7.65 7.65 0 0 1 4-1.09c3.75 0 4.67 2.57 4.67 5v4.59a17.62 17.62 0 0 0 .2 3zm-.33-6.27c-2.44 0-5.2.38-5.2 2.77a2 2 0 0 0 2.1 2.13 3.05 3.05 0 0 0 3-2.06 2.22 2.22 0 0 0 .13-.71zM375.33 91.88c0-1.27 0-2.31-.1-3.33h2l.13 2h.05a4.51 4.51 0 0 1 4.06-2.31c1.7 0 4.34 1 4.34 5.23v7.34h-2.23v-7.05c0-2-.74-3.63-2.84-3.63a3.17 3.17 0 0 0-3 2.28 3.26 3.26 0 0 0-.15 1v7.39h-2.24zM396.23 100.84l-.18-1.55H396a4.54 4.54 0 0 1-3.75 1.83 3.5 3.5 0 0 1-3.76-3.53c0-3 2.64-4.6 7.39-4.57v-.25a2.54 2.54 0 0 0-2.8-2.85 6.08 6.08 0 0 0-3.19.92l-.51-1.48a7.61 7.61 0 0 1 4-1.09c3.76 0 4.68 2.57 4.68 5v4.59a17.62 17.62 0 0 0 .2 3zm-.33-6.27c-2.44 0-5.21.38-5.21 2.77a2 2 0 0 0 2.11 2.13 3.05 3.05 0 0 0 3-2.06 2.22 2.22 0 0 0 .13-.71zM412.25 88.55c-.05.89-.1 1.88-.1 3.38v7.13c0 2.82-.56 4.55-1.75 5.61a6.52 6.52 0 0 1-4.47 1.48 7.92 7.92 0 0 1-4.09-1l.56-1.7a6.89 6.89 0 0 0 3.6 1c2.29 0 4-1.19 4-4.29v-1.43a4.36 4.36 0 0 1-3.91 2.06c-3 0-5.23-2.59-5.23-6 0-4.17 2.72-6.53 5.54-6.53a4.09 4.09 0 0 1 3.83 2.13h.05l.1-1.85zm-2.31 4.85a3.17 3.17 0 0 0-.13-1 3.22 3.22 0 0 0-3.12-2.4c-2.13 0-3.66 1.81-3.66 4.65 0 2.41 1.22 4.42 3.63 4.42a3.27 3.27 0 0 0 3.1-2.29 3.78 3.78 0 0 0 .18-1.19zM417.1 95.1c0 3 2 4.27 4.21 4.27a8 8 0 0 0 3.4-.64l.38 1.6a9.83 9.83 0 0 1-4.08.76c-3.79 0-6.05-2.48-6.05-6.19s2.19-6.63 5.77-6.63c4 0 5.08 3.53 5.08 5.79a9.4 9.4 0 0 1-.08 1zm6.55-1.6c0-1.42-.59-3.63-3.1-3.63-2.26 0-3.25 2.08-3.43 3.63zM428.57 91.88c0-1.27 0-2.31-.1-3.33h2l.1 2h.07a4.24 4.24 0 0 1 3.86-2.26 3.63 3.63 0 0 1 3.48 2.46h.02a5.16 5.16 0 0 1 1.37-1.59 4.2 4.2 0 0 1 2.72-.87c1.63 0 4 1.07 4 5.33v7.24h-2.19v-7c0-2.36-.86-3.78-2.66-3.78a2.89 2.89 0 0 0-2.64 2 3.75 3.75 0 0 0-.18 1.12v7.59h-2.18v-7.31c0-2-.87-3.38-2.57-3.38a3.06 3.06 0 0 0-2.77 2.23 3.29 3.29 0 0 0-.17 1.1v7.41h-2.19zM451 95.1c.05 3 2 4.27 4.22 4.27a8 8 0 0 0 3.4-.64l.38 1.6a9.89 9.89 0 0 1-4.09.76c-3.78 0-6-2.48-6-6.19s2.18-6.63 5.76-6.63c4 0 5.08 3.53 5.08 5.79a7.43 7.43 0 0 1-.08 1zm6.55-1.6c0-1.42-.58-3.63-3.1-3.63-2.26 0-3.25 2.08-3.42 3.63zM462.47 91.88c0-1.27 0-2.31-.11-3.33h2l.13 2a4.51 4.51 0 0 1 4.06-2.31c1.71 0 4.35 1 4.35 5.23v7.34h-2.24v-7.05c0-2-.73-3.63-2.84-3.63a3.18 3.18 0 0 0-3 2.28 3.26 3.26 0 0 0-.15 1v7.39h-2.23zM479.15 85v3.53h3.2v1.7h-3.2v6.63c0 1.52.43 2.39 1.67 2.39a4.76 4.76 0 0 0 1.3-.16l.1 1.68a5.44 5.44 0 0 1-2 .3 3.09 3.09 0 0 1-2.41-.94A4.51 4.51 0 0 1 477 97v-6.75h-1.9v-1.7h1.9v-2.94zM274.16 150.46l-1.78 5.38h-2.28l5.81-17.11h2.67l5.84 17.11h-2.36l-1.83-5.38zm5.61-1.73l-1.67-4.92c-.38-1.12-.64-2.14-.89-3.13-.26 1-.54 2.06-.87 3.1l-1.67 4.95zM289.27 140.1a1.39 1.39 0 0 1-2.77 0 1.36 1.36 0 0 1 1.4-1.4 1.33 1.33 0 0 1 1.37 1.4zm-2.49 15.74v-12.29H289v12.29zM292.72 147.39c0-1.45 0-2.7-.1-3.84h1.95l.08 2.41h.1a3.69 3.69 0 0 1 3.4-2.69 2.49 2.49 0 0 1 .64.08v2.11a2.91 2.91 0 0 0-.76-.08 3.13 3.13 0 0 0-3 2.87 6.33 6.33 0 0 0-.1 1v6.55h-2.21zM302.54 143.55l1.63 6.25c.36 1.37.69 2.64.91 3.91h.08c.28-1.25.69-2.57 1.09-3.89l2-6.27h1.88l1.9 6.15c.46 1.47.81 2.76 1.09 4h.08a35.29 35.29 0 0 1 .94-4l1.75-6.17h2.21l-4 12.29h-2l-1.86-5.82a39.71 39.71 0 0 1-1.09-4 38 38 0 0 1-1.15 4l-2 5.84h-2l-3.71-12.29zM331.21 149.59c0 4.55-3.15 6.53-6.12 6.53-3.33 0-5.89-2.44-5.89-6.32 0-4.12 2.69-6.53 6.09-6.53s5.92 2.57 5.92 6.32zm-9.75.13c0 2.69 1.55 4.72 3.73 4.72s3.73-2 3.73-4.77c0-2.08-1-4.72-3.68-4.72s-3.78 2.44-3.78 4.77zM334 147.39c0-1.45 0-2.7-.11-3.84h2L336 146h.1a3.68 3.68 0 0 1 3.4-2.69 2.41 2.41 0 0 1 .63.08v2.11a2.81 2.81 0 0 0-.76-.08 3.13 3.13 0 0 0-3 2.87 6.33 6.33 0 0 0-.1 1v6.55H334zM345.63 140v3.53h3.2v1.7h-3.2v6.63c0 1.52.43 2.39 1.67 2.39a4.76 4.76 0 0 0 1.3-.16l.1 1.68a5.44 5.44 0 0 1-2 .3 3.09 3.09 0 0 1-2.41-.94 4.51 4.51 0 0 1-.86-3.19v-6.71h-1.91v-1.7h1.91v-2.94zM351.34 137.81h2.24v7.67h.05a4.1 4.1 0 0 1 1.6-1.57 4.59 4.59 0 0 1 2.28-.64c1.65 0 4.29 1 4.29 5.26v7.31h-2.23v-7.06c0-2-.74-3.65-2.85-3.65a3.2 3.2 0 0 0-3 2.23 2.64 2.64 0 0 0-.15 1.07v7.41h-2.24zM367.92 140.1a1.31 1.31 0 0 1-1.42 1.37 1.33 1.33 0 0 1-1.35-1.37 1.37 1.37 0 0 1 1.4-1.4 1.33 1.33 0 0 1 1.37 1.4zm-2.49 15.74v-12.29h2.24v12.29zM371.37 146.88c0-1.27 0-2.31-.1-3.33h2l.13 2h.05a4.51 4.51 0 0 1 4.06-2.31c1.7 0 4.34 1 4.34 5.23v7.34h-2.25v-7.08c0-2-.74-3.63-2.85-3.63a3.17 3.17 0 0 0-3 2.28 3.26 3.26 0 0 0-.15 1v7.39h-2.24zM386.71 150.1c.05 3 2 4.27 4.21 4.27a8 8 0 0 0 3.4-.64l.39 1.6a9.93 9.93 0 0 1-4.09.76c-3.79 0-6.05-2.48-6.05-6.19s2.19-6.63 5.77-6.63c4 0 5.08 3.53 5.08 5.79a7.43 7.43 0 0 1-.08 1zm6.55-1.6c0-1.42-.59-3.63-3.1-3.63-2.26 0-3.25 2.08-3.43 3.63zM397.88 153.56a5.87 5.87 0 0 0 2.94.88c1.63 0 2.39-.81 2.39-1.82s-.63-1.65-2.29-2.26c-2.2-.79-3.25-2-3.25-3.48 0-2 1.6-3.61 4.24-3.61a6.23 6.23 0 0 1 3 .76l-.56 1.63a4.73 4.73 0 0 0-2.52-.71c-1.32 0-2.05.76-2.05 1.67s.73 1.48 2.33 2.09c2.14.81 3.23 1.87 3.23 3.7 0 2.16-1.68 3.68-4.6 3.68a7.09 7.09 0 0 1-3.45-.83zM407.93 153.56a5.88 5.88 0 0 0 2.95.88c1.62 0 2.38-.81 2.38-1.82s-.63-1.65-2.28-2.26c-2.21-.79-3.25-2-3.25-3.48 0-2 1.6-3.61 4.24-3.61a6.22 6.22 0 0 1 3 .76l-.56 1.63a4.72 4.72 0 0 0-2.51-.71c-1.32 0-2.06.76-2.06 1.67s.74 1.48 2.34 2.09c2.13.81 3.22 1.87 3.22 3.7 0 2.16-1.67 3.68-4.59 3.68a7.13 7.13 0 0 1-3.46-.83zM423.67 146.88c0-1.27 0-2.31-.1-3.33h2l.1 2h.07a4.24 4.24 0 0 1 3.86-2.26 3.63 3.63 0 0 1 3.48 2.46 5.16 5.16 0 0 1 1.37-1.59 4.2 4.2 0 0 1 2.72-.87c1.62 0 4 1.07 4 5.33v7.24H439v-7c0-2.36-.86-3.78-2.66-3.78a2.89 2.89 0 0 0-2.64 2 3.46 3.46 0 0 0-.18 1.12v7.59h-2.18v-7.36c0-2-.87-3.38-2.57-3.38a3.06 3.06 0 0 0-2.77 2.23 3.29 3.29 0 0 0-.17 1.1v7.41h-2.19zM456 149.59c0 4.55-3.15 6.53-6.12 6.53-3.33 0-5.89-2.44-5.89-6.32 0-4.12 2.69-6.53 6.09-6.53s5.92 2.57 5.92 6.32zm-9.75.13c0 2.69 1.55 4.72 3.73 4.72s3.73-2 3.73-4.77c0-2.08-1-4.72-3.68-4.72s-3.81 2.44-3.81 4.77zM458.78 146.88c0-1.27 0-2.31-.1-3.33h2l.13 2a4.51 4.51 0 0 1 4.06-2.31c1.7 0 4.35 1 4.35 5.23v7.34H467v-7.08c0-2-.74-3.63-2.84-3.63a3.17 3.17 0 0 0-3 2.28 3.26 3.26 0 0 0-.15 1v7.39h-2.24zM475.36 140.1a1.38 1.38 0 0 1-2.76 0 1.36 1.36 0 0 1 1.39-1.4 1.33 1.33 0 0 1 1.37 1.4zm-2.49 15.74v-12.29h2.24v12.29zM481.51 140v3.53h3.2v1.7h-3.2v6.63c0 1.52.43 2.39 1.67 2.39a4.76 4.76 0 0 0 1.3-.16l.1 1.68a5.44 5.44 0 0 1-2 .3 3.09 3.09 0 0 1-2.41-.94 4.51 4.51 0 0 1-.87-3.19v-6.71h-1.9v-1.7h1.9v-2.94zM498.19 149.59c0 4.55-3.15 6.53-6.12 6.53-3.33 0-5.89-2.44-5.89-6.32 0-4.12 2.69-6.53 6.09-6.53s5.92 2.57 5.92 6.32zm-9.75.13c0 2.69 1.55 4.72 3.73 4.72s3.73-2 3.73-4.77c0-2.08-1-4.72-3.68-4.72s-3.78 2.44-3.78 4.77zM501 147.39c0-1.45 0-2.7-.1-3.84h2l.07 2.41h.03a3.67 3.67 0 0 1 3.4-2.69 2.41 2.41 0 0 1 .63.08v2.11a2.86 2.86 0 0 0-.76-.08 3.13 3.13 0 0 0-3 2.87 5.35 5.35 0 0 0-.11 1v6.55H501zM511.9 140.1a1.39 1.39 0 0 1-2.77 0 1.36 1.36 0 0 1 1.4-1.4 1.33 1.33 0 0 1 1.37 1.4zm-2.49 15.74v-12.29h2.23v12.29zM515.35 146.88c0-1.27 0-2.31-.1-3.33h2l.12 2h.06a4.5 4.5 0 0 1 4.06-2.31c1.7 0 4.34 1 4.34 5.23v7.34h-2.23v-7.08c0-2-.74-3.63-2.85-3.63a3.17 3.17 0 0 0-3 2.28 3 3 0 0 0-.16 1v7.39h-2.23zM540 143.55c0 .89-.1 1.88-.1 3.38v7.13c0 2.82-.56 4.55-1.76 5.61a6.49 6.49 0 0 1-4.46 1.48 7.92 7.92 0 0 1-4.09-1l.56-1.7a6.89 6.89 0 0 0 3.6 1c2.29 0 4-1.19 4-4.29v-1.37a4.36 4.36 0 0 1-3.91 2.06c-3 0-5.23-2.59-5.23-6 0-4.17 2.72-6.53 5.54-6.53a4.09 4.09 0 0 1 3.83 2.13h.02l.1-1.85zm-2.31 4.85a3.17 3.17 0 0 0-.13-1 3.22 3.22 0 0 0-3.12-2.37c-2.14 0-3.66 1.81-3.66 4.65 0 2.41 1.22 4.42 3.63 4.42a3.27 3.27 0 0 0 3.1-2.29 3.78 3.78 0 0 0 .18-1.19z"/><circle class="cls-4" cx="246.36" cy="39" r="4.5"/><circle class="cls-4" cx="246.37" cy="91.97" r="4.5"/><circle class="cls-4" cx="246.39" cy="144.93" r="4.5"/><circle class="cls-4" cx="246.36" cy="225" r="4.5"/><circle class="cls-4" cx="246.37" cy="280.97" r="4.5"/><circle class="cls-4" cx="246.39" cy="333.93" r="4.5"/><circle class="cls-4" cx="246.36" cy="420" r="4.5"/><circle class="cls-4" cx="246.37" cy="474.97" r="4.5"/><circle class="cls-4" cx="246.39" cy="527.93" r="4.5"/><path class="cls-3" d="M50.25 314.49h11.67v3h-8v5.58h7.44v3h-7.42v8.58h-3.69zM77.52 330.33c0 1.74.06 3.18.12 4.38H74.4l-.18-2.22h-.06a5.28 5.28 0 0 1-4.68 2.51c-2.67 0-5.1-1.59-5.1-6.36v-8.54h3.69v7.95c0 2.43.78 4 2.73 4a3.11 3.11 0 0 0 2.82-2 3.35 3.35 0 0 0 .21-1.14v-8.81h3.69zM81.51 324.45c0-1.68 0-3.09-.12-4.35h3.24l.18 2.19h.09a5.27 5.27 0 0 1 4.65-2.52c2.55 0 5.19 1.65 5.19 6.27v8.67h-3.69v-8.25c0-2.1-.78-3.69-2.79-3.69a3.1 3.1 0 0 0-2.88 2.16 3.76 3.76 0 0 0-.15 1.2v8.58h-3.72zM109.41 334.26a10.68 10.68 0 0 1-4.14.75c-4.56 0-7.53-2.91-7.53-7.44 0-4.38 3-7.8 8.13-7.8a9.21 9.21 0 0 1 3.57.69l-.66 2.76a6.5 6.5 0 0 0-2.79-.57 4.73 4.73 0 0 0 0 9.45 7.22 7.22 0 0 0 2.91-.57zM116.82 315.93v4.17h3.51v2.76h-3.51v6.45c0 1.77.48 2.7 1.89 2.7a5.45 5.45 0 0 0 1.44-.18l.06 2.82a8.11 8.11 0 0 1-2.67.36 4.27 4.27 0 0 1-3.18-1.2c-.78-.84-1.14-2.16-1.14-4.08v-6.87h-2.1v-2.76h2.1v-3.3zM127.05 316a2.07 2.07 0 1 1-2.07-2 2 2 0 0 1 2.07 2zm-3.93 18.69V320.1h3.72v14.61zM144.69 327.27c0 5.37-3.78 7.77-7.5 7.77-4.14 0-7.32-2.85-7.32-7.53s3.15-7.74 7.56-7.74 7.26 3.06 7.26 7.5zm-11 .15c0 2.82 1.38 4.95 3.63 4.95 2.1 0 3.57-2.07 3.57-5 0-2.28-1-4.89-3.54-4.89s-3.67 2.52-3.67 4.94zM147.72 324.45c0-1.68 0-3.09-.12-4.35h3.24l.18 2.19h.09a5.27 5.27 0 0 1 4.65-2.52c2.55 0 5.19 1.65 5.19 6.27v8.67h-3.69v-8.25c0-2.1-.78-3.69-2.79-3.69a3.1 3.1 0 0 0-2.88 2.16 3.76 3.76 0 0 0-.15 1.2v8.58h-3.72zM173.1 334.71l-.24-1.62h-.09a5.43 5.43 0 0 1-4.32 2 4.34 4.34 0 0 1-4.59-4.35c0-3.69 3.27-5.55 8.67-5.52v-.24c0-1-.39-2.55-3-2.55a7.74 7.74 0 0 0-3.93 1.08l-.72-2.4a10.52 10.52 0 0 1 5.28-1.29c4.68 0 6 3 6 6.15v5.28a23.43 23.43 0 0 0 .21 3.51zm-.48-7.14c-2.61-.06-5.1.51-5.1 2.73a1.94 1.94 0 0 0 2.1 2.1 3 3 0 0 0 2.88-2 2.65 2.65 0 0 0 .12-.81zM180.12 313.41h3.72v21.3h-3.72zM67.07 361.32a8.23 8.23 0 0 0 3.75 1.05c1.62 0 2.34-.66 2.34-1.62s-.6-1.5-2.4-2.13c-2.85-1-4.05-2.55-4-4.26 0-2.58 2.13-4.59 5.52-4.59a8.58 8.58 0 0 1 3.87.87l-.72 2.61a6.56 6.56 0 0 0-3.09-.84c-1.32 0-2 .63-2 1.53s.69 1.38 2.55 2c2.64 1 3.87 2.31 3.9 4.47 0 2.64-2.07 4.56-5.94 4.56a9.43 9.43 0 0 1-4.44-1zM82.37 358.44c.09 2.64 2.16 3.78 4.5 3.78a11 11 0 0 0 4-.66l.54 2.55a13.76 13.76 0 0 1-5.1.9c-4.74 0-7.53-2.91-7.53-7.38 0-4.05 2.46-7.86 7.14-7.86s6.3 3.9 6.3 7.11a9.08 9.08 0 0 1-.12 1.56zm6.42-2.58c0-1.35-.57-3.57-3-3.57-2.28 0-3.24 2.07-3.39 3.57zM95.24 354.81c0-2 0-3.39-.12-4.71h3.21l.12 2.79h.12a4.36 4.36 0 0 1 4-3.12 3.88 3.88 0 0 1 .87.09v3.48a5.13 5.13 0 0 0-1.08-.12 3.25 3.25 0 0 0-3.3 2.79 6.33 6.33 0 0 0-.12 1.14v7.56h-3.7zM108.92 350.1l2.37 7.41c.42 1.29.72 2.46 1 3.66h.09c.27-1.2.6-2.34 1-3.66l2.31-7.41h3.9L114 364.71h-3.63l-5.43-14.61zM125.75 346a2.07 2.07 0 1 1-2.07-2 2 2 0 0 1 2.07 2zm-3.93 18.69V350.1h3.72v14.61zM140.24 364.26a10.68 10.68 0 0 1-4.14.75c-4.56 0-7.53-2.91-7.53-7.44 0-4.38 3-7.8 8.13-7.8a9.21 9.21 0 0 1 3.57.69l-.66 2.76a6.5 6.5 0 0 0-2.79-.57 4.73 4.73 0 0 0 0 9.45 7.22 7.22 0 0 0 2.91-.57zM145.31 358.44c.09 2.64 2.16 3.78 4.5 3.78a11 11 0 0 0 4.05-.66l.54 2.55a13.76 13.76 0 0 1-5.1.9c-4.74 0-7.53-2.91-7.53-7.38 0-4.05 2.46-7.86 7.14-7.86s6.3 3.9 6.3 7.11a9.08 9.08 0 0 1-.12 1.56zm6.42-2.58c0-1.35-.57-3.57-3-3.57-2.28 0-3.24 2.07-3.39 3.57zM158 361.32a8.23 8.23 0 0 0 3.75 1.05c1.62 0 2.34-.66 2.34-1.62s-.6-1.5-2.4-2.13c-2.85-1-4.05-2.55-4-4.26 0-2.58 2.13-4.59 5.52-4.59a8.58 8.58 0 0 1 3.87.87l-.72 2.61a6.56 6.56 0 0 0-3.09-.84c-1.32 0-2 .63-2 1.53s.69 1.38 2.55 2c2.64 1 3.87 2.31 3.9 4.47 0 2.64-2.07 4.56-5.94 4.56a9.43 9.43 0 0 1-4.44-1zM273.6 217.73v17.11h-2.21v-17.11zM277.64 225.88c0-1.27 0-2.31-.1-3.33h2l.12 2h.06a4.5 4.5 0 0 1 4.06-2.31c1.7 0 4.34 1 4.34 5.23v7.34h-2.23v-7.08c0-2-.74-3.63-2.85-3.63a3.17 3.17 0 0 0-3 2.28 3 3 0 0 0-.16 1v7.39h-2.23zM300.49 234.38a8.14 8.14 0 0 1-3.53.71c-3.71 0-6.12-2.51-6.12-6.27a6.24 6.24 0 0 1 6.6-6.52 7.57 7.57 0 0 1 3.1.63l-.51 1.73a5.1 5.1 0 0 0-2.59-.59c-2.82 0-4.34 2.09-4.34 4.65 0 2.84 1.83 4.6 4.27 4.6a6.34 6.34 0 0 0 2.74-.61zM305.59 219.1a1.31 1.31 0 0 1-1.42 1.37 1.33 1.33 0 0 1-1.35-1.37 1.37 1.37 0 0 1 1.4-1.4 1.33 1.33 0 0 1 1.37 1.4zm-2.49 15.74v-12.29h2.24v12.29zM319.66 216.81v14.86c0 1.09 0 2.33.1 3.17h-2l-.1-2.13a4.55 4.55 0 0 1-4.19 2.41c-3 0-5.25-2.51-5.25-6.25 0-4.08 2.51-6.6 5.5-6.6a4.12 4.12 0 0 1 3.71 1.88h.05v-7.34zm-2.24 10.74a3.76 3.76 0 0 0-.1-.94 3.29 3.29 0 0 0-3.22-2.61c-2.31 0-3.69 2-3.69 4.75 0 2.49 1.22 4.55 3.64 4.55a3.36 3.36 0 0 0 3.27-2.67 3.68 3.68 0 0 0 .1-1zM324.61 229.1c.05 3 2 4.27 4.21 4.27a8 8 0 0 0 3.4-.64l.39 1.6a9.93 9.93 0 0 1-4.09.76c-3.79 0-6-2.48-6-6.19s2.19-6.63 5.77-6.63c4 0 5.08 3.53 5.08 5.79a7.43 7.43 0 0 1-.08 1zm6.55-1.6c0-1.42-.59-3.63-3.1-3.63-2.26 0-3.25 2.08-3.43 3.63zM336.08 225.88c0-1.27 0-2.31-.1-3.33h2l.13 2h.05a4.51 4.51 0 0 1 4.06-2.31c1.7 0 4.34 1 4.34 5.23v7.34h-2.23v-7.08c0-2-.74-3.63-2.84-3.63a3.17 3.17 0 0 0-3 2.28 3.26 3.26 0 0 0-.15 1v7.39h-2.24zM352.76 219v3.53H356v1.7h-3.2v6.63c0 1.52.44 2.39 1.68 2.39a4.67 4.67 0 0 0 1.29-.16l.11 1.68a5.48 5.48 0 0 1-2 .3 3.11 3.11 0 0 1-2.42-.94 4.56 4.56 0 0 1-.86-3.19v-6.71h-1.9v-1.7h1.9v-2.94zM363.86 225.88c0-1.27 0-2.31-.1-3.33h1.95l.1 2h.08a4.23 4.23 0 0 1 3.86-2.26 3.65 3.65 0 0 1 3.48 2.46 5 5 0 0 1 1.37-1.59 4.18 4.18 0 0 1 2.72-.87c1.62 0 4 1.07 4 5.33v7.24h-2.18v-7c0-2.36-.86-3.78-2.67-3.78a2.89 2.89 0 0 0-2.64 2 3.75 3.75 0 0 0-.18 1.12v7.59h-2.18v-7.36c0-2-.86-3.38-2.56-3.38a3.33 3.33 0 0 0-2.95 3.33v7.41h-2.18zM391.84 234.84l-.18-1.55h-.08a4.55 4.55 0 0 1-3.76 1.83 3.5 3.5 0 0 1-3.75-3.53c0-3 2.64-4.6 7.39-4.57v-.25a2.54 2.54 0 0 0-2.8-2.85 6.14 6.14 0 0 0-3.2.92l-.5-1.48a7.58 7.58 0 0 1 4-1.09c3.76 0 4.67 2.57 4.67 5v4.59a16.55 16.55 0 0 0 .21 3zm-.33-6.27c-2.44 0-5.21.38-5.21 2.77a2 2 0 0 0 2.11 2.13 3.06 3.06 0 0 0 3-2.06 2.22 2.22 0 0 0 .13-.71zM397.27 225.88c0-1.27 0-2.31-.1-3.33h2l.12 2h.06a4.5 4.5 0 0 1 4.06-2.31c1.7 0 4.34 1 4.34 5.23v7.34h-2.25v-7.08c0-2-.74-3.63-2.85-3.63a3.17 3.17 0 0 0-3 2.28 3 3 0 0 0-.16 1v7.39h-2.23zM418.16 234.84l-.17-1.55h-.08a4.58 4.58 0 0 1-3.76 1.83 3.5 3.5 0 0 1-3.76-3.53c0-3 2.65-4.6 7.39-4.57v-.25a2.54 2.54 0 0 0-2.79-2.85 6.11 6.11 0 0 0-3.2.92l-.51-1.48a7.65 7.65 0 0 1 4-1.09c3.76 0 4.67 2.57 4.67 5v4.59a16.55 16.55 0 0 0 .21 3zm-.33-6.27c-2.43 0-5.2.38-5.2 2.77a2 2 0 0 0 2.11 2.13 3.06 3.06 0 0 0 3-2.06 2.52 2.52 0 0 0 .12-.71zM434.18 222.55c-.05.89-.1 1.88-.1 3.38v7.13c0 2.82-.56 4.55-1.75 5.61a6.5 6.5 0 0 1-4.47 1.48 8 8 0 0 1-4.09-1l.56-1.7a6.93 6.93 0 0 0 3.61 1c2.28 0 4-1.19 4-4.29v-1.37a4.38 4.38 0 0 1-3.91 2.06c-3.05 0-5.23-2.59-5.23-6 0-4.17 2.71-6.53 5.53-6.53a4.11 4.11 0 0 1 3.84 2.13h.05l.1-1.85zm-2.31 4.85a3.18 3.18 0 0 0-.12-1 3.23 3.23 0 0 0-3.13-2.37c-2.13 0-3.65 1.81-3.65 4.65 0 2.41 1.22 4.42 3.63 4.42a3.28 3.28 0 0 0 3.1-2.29 4.08 4.08 0 0 0 .17-1.19zM439 229.1c.05 3 2 4.27 4.22 4.27a8 8 0 0 0 3.4-.64l.38 1.6a9.89 9.89 0 0 1-4.09.76c-3.78 0-6-2.48-6-6.19s2.18-6.63 5.76-6.63c4 0 5.08 3.53 5.08 5.79a7.43 7.43 0 0 1-.08 1zm6.55-1.6c0-1.42-.58-3.63-3.09-3.63-2.26 0-3.25 2.08-3.43 3.63zM450.51 225.88c0-1.27 0-2.31-.1-3.33h1.95l.1 2h.08a4.23 4.23 0 0 1 3.86-2.26 3.65 3.65 0 0 1 3.48 2.46h.05a5 5 0 0 1 1.37-1.59 4.2 4.2 0 0 1 2.72-.87c1.62 0 4 1.07 4 5.33v7.24h-2.18v-7c0-2.36-.86-3.78-2.67-3.78a2.89 2.89 0 0 0-2.64 2 3.75 3.75 0 0 0-.18 1.12v7.59h-2.15v-7.36c0-2-.86-3.38-2.56-3.38a3.33 3.33 0 0 0-2.95 3.33v7.41h-2.18zM472.93 229.1c.05 3 2 4.27 4.21 4.27a8 8 0 0 0 3.4-.64l.38 1.6a9.83 9.83 0 0 1-4.08.76c-3.79 0-6-2.48-6-6.19s2.19-6.63 5.77-6.63c4 0 5.07 3.53 5.07 5.79a10 10 0 0 1-.07 1zm6.55-1.6c0-1.42-.59-3.63-3.1-3.63-2.26 0-3.25 2.08-3.43 3.63zM484.4 225.88c0-1.27 0-2.31-.1-3.33h2l.13 2a4.51 4.51 0 0 1 4.06-2.31c1.7 0 4.34 1 4.34 5.23v7.34h-2.23v-7.08c0-2-.74-3.63-2.85-3.63a3.17 3.17 0 0 0-3 2.28 3.26 3.26 0 0 0-.15 1v7.39h-2.2zM501.08 219v3.53h3.2v1.7h-3.2v6.63c0 1.52.43 2.39 1.68 2.39a4.73 4.73 0 0 0 1.29-.16l.1 1.68a5.4 5.4 0 0 1-2 .3 3.09 3.09 0 0 1-2.41-.94 4.56 4.56 0 0 1-.86-3.19v-6.71H497v-1.7h1.91v-2.94zM271.39 289.84v-17.11h2.42l5.48 8.66a46.83 46.83 0 0 1 3.07 5.56h.05c-.2-2.28-.25-4.37-.25-7v-7.16h2.08v17.11H282l-5.44-8.68a56.2 56.2 0 0 1-3.2-5.72h-.07c.12 2.16.18 4.21.18 7.06v7.31zM299.14 283.59c0 4.55-3.14 6.53-6.12 6.53-3.32 0-5.89-2.44-5.89-6.32 0-4.12 2.7-6.53 6.1-6.53s5.91 2.57 5.91 6.32zm-9.75.13c0 2.69 1.55 4.72 3.74 4.72s3.73-2 3.73-4.77c0-2.08-1-4.72-3.68-4.72s-3.79 2.44-3.79 4.77zM302 280.88c0-1.27 0-2.31-.1-3.33h2l.13 2a4.51 4.51 0 0 1 4.06-2.31c1.7 0 4.34 1 4.34 5.23v7.34h-2.23v-7.08c0-2-.74-3.63-2.85-3.63a3.17 3.17 0 0 0-3 2.28 3.26 3.26 0 0 0-.15 1v7.39H302zM321.23 282.15v1.65H315v-1.65zM333.06 289.38a8.14 8.14 0 0 1-3.53.71c-3.7 0-6.12-2.51-6.12-6.27a6.24 6.24 0 0 1 6.59-6.52 7.52 7.52 0 0 1 3.09.63l-.5 1.73a5.16 5.16 0 0 0-2.59-.59c-2.82 0-4.35 2.09-4.35 4.65 0 2.84 1.83 4.6 4.27 4.6a6.31 6.31 0 0 0 2.74-.61zM346.65 283.59c0 4.55-3.15 6.53-6.12 6.53-3.33 0-5.89-2.44-5.89-6.32 0-4.12 2.69-6.53 6.09-6.53s5.92 2.57 5.92 6.32zm-9.75.13c0 2.69 1.54 4.72 3.73 4.72s3.73-2 3.73-4.77c0-2.08-1-4.72-3.68-4.72s-3.78 2.44-3.78 4.77zM349.46 280.88c0-1.27 0-2.31-.1-3.33h2l.13 2a4.51 4.51 0 0 1 4.06-2.31c1.7 0 4.34 1 4.34 5.23v7.34h-2.23v-7.08c0-2-.74-3.63-2.84-3.63a3.17 3.17 0 0 0-3 2.28 3.26 3.26 0 0 0-.15 1v7.39h-2.24zM363.78 289.84v-10.59h-1.72v-1.7h1.72V277a5.79 5.79 0 0 1 1.42-4.29 4.26 4.26 0 0 1 3-1.15 5.08 5.08 0 0 1 1.9.36l-.3 1.73a3.23 3.23 0 0 0-1.42-.28c-1.91 0-2.39 1.67-2.39 3.55v.66h3v1.7h-3v10.59zM381.76 283.59c0 4.55-3.15 6.53-6.12 6.53-3.33 0-5.89-2.44-5.89-6.32 0-4.12 2.69-6.53 6.09-6.53s5.92 2.57 5.92 6.32zm-9.75.13c0 2.69 1.55 4.72 3.73 4.72s3.73-2 3.73-4.77c0-2.08-1-4.72-3.68-4.72s-3.79 2.44-3.79 4.77zM384.58 281.39c0-1.45 0-2.7-.11-3.84h2l.07 2.41h.11a3.67 3.67 0 0 1 3.4-2.69 2.41 2.41 0 0 1 .63.08v2.11a2.86 2.86 0 0 0-.76-.08 3.13 3.13 0 0 0-3 2.87 5.35 5.35 0 0 0-.11 1v6.55h-2.2zM393 280.88c0-1.27 0-2.31-.1-3.33h1.95l.1 2h.05a4.24 4.24 0 0 1 3.86-2.26 3.65 3.65 0 0 1 3.48 2.46 5 5 0 0 1 1.37-1.59 4.2 4.2 0 0 1 2.72-.87c1.62 0 4 1.07 4 5.33v7.24h-2.18v-7c0-2.36-.86-3.78-2.67-3.78a2.89 2.89 0 0 0-2.64 2 3.77 3.77 0 0 0-.17 1.12v7.59h-2.19v-7.36c0-2-.86-3.38-2.56-3.38a3.33 3.33 0 0 0-2.95 3.33v7.41H393zM421 289.84l-.18-1.55h-.08a4.54 4.54 0 0 1-3.75 1.83 3.5 3.5 0 0 1-3.76-3.53c0-3 2.64-4.6 7.39-4.57v-.25a2.54 2.54 0 0 0-2.8-2.85 6.14 6.14 0 0 0-3.2.92l-.5-1.48a7.58 7.58 0 0 1 4-1.09c3.76 0 4.68 2.57 4.68 5v4.59a17.62 17.62 0 0 0 .2 2.95zm-.33-6.27c-2.44-.05-5.21.38-5.21 2.77a2 2 0 0 0 2.11 2.13 3.06 3.06 0 0 0 3-2.06 2.22 2.22 0 0 0 .13-.71zM426.39 280.88c0-1.27 0-2.31-.1-3.33h2l.13 2h.05a4.51 4.51 0 0 1 4.06-2.31c1.7 0 4.34 1 4.34 5.23v7.34h-2.23v-7.08c0-2-.74-3.63-2.85-3.63a3.17 3.17 0 0 0-3 2.28 3 3 0 0 0-.16 1v7.39h-2.23zM449.24 289.38a8.14 8.14 0 0 1-3.53.71c-3.71 0-6.12-2.51-6.12-6.27a6.24 6.24 0 0 1 6.6-6.52 7.57 7.57 0 0 1 3.1.63l-.51 1.73a5.1 5.1 0 0 0-2.59-.59c-2.82 0-4.34 2.09-4.34 4.65 0 2.84 1.83 4.6 4.27 4.6a6.34 6.34 0 0 0 2.74-.61zM453 284.1c.05 3 2 4.27 4.21 4.27a8 8 0 0 0 3.4-.64l.38 1.6a9.83 9.83 0 0 1-4.08.76c-3.79 0-6.05-2.48-6.05-6.19s2.19-6.63 5.77-6.63c4 0 5.08 3.53 5.08 5.79a9.4 9.4 0 0 1-.08 1zm6.55-1.6c0-1.42-.59-3.63-3.1-3.63-2.26 0-3.25 2.08-3.43 3.63zM469.8 281.39c0-1.45 0-2.7-.1-3.84h2l.07 2.41h.1a3.69 3.69 0 0 1 3.41-2.69 2.41 2.41 0 0 1 .63.08v2.11a2.91 2.91 0 0 0-.76-.08 3.14 3.14 0 0 0-3 2.87 6.33 6.33 0 0 0-.1 1v6.55h-2.25zM479.1 284.1c0 3 2 4.27 4.21 4.27a8 8 0 0 0 3.4-.64l.38 1.6a9.83 9.83 0 0 1-4.08.76c-3.79 0-6.05-2.48-6.05-6.19s2.19-6.63 5.77-6.63c4 0 5.07 3.53 5.07 5.79a10 10 0 0 1-.07 1zm6.55-1.6c0-1.42-.59-3.63-3.1-3.63-2.26 0-3.25 2.08-3.43 3.63zM490.27 287.56a5.84 5.84 0 0 0 2.94.88c1.63 0 2.39-.81 2.39-1.82s-.64-1.65-2.29-2.26c-2.21-.79-3.25-2-3.25-3.48 0-2 1.6-3.61 4.24-3.61a6.23 6.23 0 0 1 3 .76l-.56 1.63a4.76 4.76 0 0 0-2.52-.71c-1.32 0-2.05.76-2.05 1.67s.73 1.48 2.33 2.09c2.13.81 3.23 1.87 3.23 3.7 0 2.16-1.68 3.68-4.6 3.68a7.09 7.09 0 0 1-3.45-.83zM511.75 283.59c0 4.55-3.15 6.53-6.12 6.53-3.33 0-5.89-2.44-5.89-6.32 0-4.12 2.69-6.53 6.09-6.53s5.92 2.57 5.92 6.32zm-9.75.13c0 2.69 1.54 4.72 3.73 4.72s3.73-2 3.73-4.77c0-2.08-1-4.72-3.68-4.72s-3.78 2.44-3.78 4.77zM514.56 271.81h2.24v18h-2.24zM530.84 286.49c0 1.27 0 2.39.1 3.35h-2l-.13-2h-.05a4.62 4.62 0 0 1-4.06 2.29c-1.93 0-4.24-1.07-4.24-5.38v-7.19h2.23v6.81c0 2.33.71 3.91 2.75 3.91a3.24 3.24 0 0 0 2.94-2 3.17 3.17 0 0 0 .2-1.14v-7.54h2.24zM537.24 274v3.53h3.19v1.7h-3.19v6.63c0 1.52.43 2.39 1.67 2.39a4.76 4.76 0 0 0 1.3-.16l.1 1.68a5.44 5.44 0 0 1-2 .3 3.12 3.12 0 0 1-2.42-.94 4.56 4.56 0 0 1-.86-3.19v-6.71h-1.9v-1.7h1.9v-2.94zM545.44 274.1a1.39 1.39 0 0 1-2.77 0 1.36 1.36 0 0 1 1.39-1.4 1.33 1.33 0 0 1 1.38 1.4zM543 289.84v-12.29h2.23v12.29zM560 283.59c0 4.55-3.15 6.53-6.12 6.53-3.33 0-5.89-2.44-5.89-6.32 0-4.12 2.69-6.53 6.09-6.53s5.92 2.57 5.92 6.32zm-9.75.13c0 2.69 1.55 4.72 3.73 4.72s3.73-2 3.73-4.77c0-2.08-1-4.72-3.68-4.72s-3.77 2.44-3.77 4.77zM562.83 280.88c0-1.27 0-2.31-.11-3.33h2l.12 2a4.52 4.52 0 0 1 4.07-2.31c1.7 0 4.34 1 4.34 5.23v7.34h-2.24v-7.08c0-2-.73-3.63-2.84-3.63a3.18 3.18 0 0 0-3 2.28 3.26 3.26 0 0 0-.15 1v7.39h-2.23zM271.39 328a30.8 30.8 0 0 1 4.7-.36c3.17 0 5.43.74 6.93 2.13a7.87 7.87 0 0 1 2.41 6.15 9 9 0 0 1-2.46 6.65c-1.6 1.6-4.24 2.46-7.56 2.46a35.14 35.14 0 0 1-4-.2zm2.21 15.13a14.12 14.12 0 0 0 2.24.13c4.72 0 7.28-2.65 7.28-7.27 0-4-2.26-6.6-6.93-6.6a12.38 12.38 0 0 0-2.59.23zM299.45 338.59c0 4.55-3.15 6.53-6.12 6.53-3.33 0-5.89-2.44-5.89-6.32 0-4.12 2.69-6.53 6.09-6.53s5.92 2.57 5.92 6.32zm-9.75.13c0 2.69 1.55 4.72 3.73 4.72s3.73-2 3.73-4.77c0-2.08-1-4.72-3.68-4.72s-3.78 2.44-3.78 4.77zM311 344.38a8.18 8.18 0 0 1-3.53.71c-3.71 0-6.12-2.51-6.12-6.27a6.24 6.24 0 0 1 6.6-6.52 7.57 7.57 0 0 1 3.1.63l-.51 1.73a5.1 5.1 0 0 0-2.59-.59c-2.82 0-4.34 2.09-4.34 4.65 0 2.84 1.82 4.6 4.26 4.6a6.31 6.31 0 0 0 2.74-.61zM323.92 341.49c0 1.27 0 2.39.1 3.35h-2l-.12-2h-.05a4.64 4.64 0 0 1-4.07 2.29c-1.93 0-4.24-1.07-4.24-5.38v-7.19h2.24v6.81c0 2.33.71 3.91 2.74 3.91a3.25 3.25 0 0 0 2.95-2 3.4 3.4 0 0 0 .2-1.14v-7.54h2.23zM327.63 335.88c0-1.27 0-2.31-.1-3.33h2l.1 2h.08a4.24 4.24 0 0 1 3.86-2.26 3.64 3.64 0 0 1 3.48 2.46h.05a5 5 0 0 1 1.37-1.59 4.2 4.2 0 0 1 2.72-.87c1.62 0 4 1.07 4 5.33v7.24H343v-7c0-2.36-.86-3.78-2.67-3.78a2.89 2.89 0 0 0-2.64 2 3.77 3.77 0 0 0-.17 1.12v7.59h-2.19v-7.36c0-2-.86-3.38-2.56-3.38a3.33 3.33 0 0 0-2.95 3.33v7.41h-2.18zM350.05 339.1c.05 3 2 4.27 4.21 4.27a8 8 0 0 0 3.4-.64l.38 1.6a9.83 9.83 0 0 1-4.08.76c-3.79 0-6-2.48-6-6.19s2.19-6.63 5.77-6.63c4 0 5.08 3.53 5.08 5.79a7.43 7.43 0 0 1-.08 1zm6.55-1.6c0-1.42-.59-3.63-3.1-3.63-2.26 0-3.25 2.08-3.43 3.63zM361.52 335.88c0-1.27 0-2.31-.1-3.33h2l.13 2h.05a4.51 4.51 0 0 1 4.06-2.31c1.7 0 4.34 1 4.34 5.23v7.34h-2.23v-7.08c0-2-.74-3.63-2.84-3.63a3.17 3.17 0 0 0-3 2.28 3.26 3.26 0 0 0-.15 1v7.39h-2.24zM378.2 329v3.53h3.2v1.7h-3.2v6.63c0 1.52.43 2.39 1.68 2.39a4.73 4.73 0 0 0 1.29-.16l.11 1.68a5.5 5.5 0 0 1-2 .3 3.1 3.1 0 0 1-2.41-.94A4.56 4.56 0 0 1 376 341v-6.71h-1.9v-1.7h1.9v-2.94zM390.72 344.84l-.18-1.55h-.07a4.58 4.58 0 0 1-3.76 1.83 3.5 3.5 0 0 1-3.76-3.53c0-3 2.64-4.6 7.39-4.57v-.25a2.54 2.54 0 0 0-2.79-2.85 6.09 6.09 0 0 0-3.2.92l-.51-1.48a7.62 7.62 0 0 1 4-1.09c3.75 0 4.67 2.57 4.67 5v4.59a17.62 17.62 0 0 0 .2 2.95zm-.33-6.27c-2.44-.05-5.21.38-5.21 2.77a2 2 0 0 0 2.11 2.13 3.05 3.05 0 0 0 3-2.06 2.22 2.22 0 0 0 .13-.71zM398.74 329v3.53h3.2v1.7h-3.2v6.63c0 1.52.43 2.39 1.68 2.39a4.73 4.73 0 0 0 1.29-.16l.1 1.68a5.4 5.4 0 0 1-2 .3 3.1 3.1 0 0 1-2.41-.94 4.56 4.56 0 0 1-.86-3.19v-6.71h-1.91v-1.7h1.91v-2.94zM406.94 329.1a1.31 1.31 0 0 1-1.42 1.37 1.33 1.33 0 0 1-1.35-1.37 1.37 1.37 0 0 1 1.4-1.4 1.33 1.33 0 0 1 1.37 1.4zm-2.49 15.74v-12.29h2.24v12.29zM421.52 338.59c0 4.55-3.15 6.53-6.12 6.53-3.33 0-5.89-2.44-5.89-6.32 0-4.12 2.69-6.53 6.09-6.53s5.92 2.57 5.92 6.32zm-9.75.13c0 2.69 1.54 4.72 3.73 4.72s3.73-2 3.73-4.77c0-2.08-1-4.72-3.68-4.72s-3.78 2.44-3.78 4.77zM424.33 335.88c0-1.27 0-2.31-.1-3.33h2l.13 2h.05a4.51 4.51 0 0 1 4.06-2.31c1.7 0 4.34 1 4.34 5.23v7.34h-2.23v-7.08c0-2-.74-3.63-2.84-3.63a3.17 3.17 0 0 0-3 2.28 3.26 3.26 0 0 0-.15 1v7.39h-2.24zM450.61 344.84l-.18-1.55h-.07a4.58 4.58 0 0 1-3.76 1.83 3.5 3.5 0 0 1-3.76-3.53c0-3 2.64-4.6 7.39-4.57v-.25a2.54 2.54 0 0 0-2.79-2.85 6.09 6.09 0 0 0-3.2.92l-.51-1.48a7.65 7.65 0 0 1 4-1.09c3.75 0 4.67 2.57 4.67 5v4.59a17.62 17.62 0 0 0 .2 2.95zm-.33-6.27c-2.44-.05-5.2.38-5.2 2.77a2 2 0 0 0 2.1 2.13 3.05 3.05 0 0 0 3-2.06 2.22 2.22 0 0 0 .13-.71zM456 335.88c0-1.27 0-2.31-.1-3.33h2l.13 2h.05a4.51 4.51 0 0 1 4.06-2.31c1.7 0 4.34 1 4.34 5.23v7.34h-2.23v-7.08c0-2-.74-3.63-2.84-3.63a3.17 3.17 0 0 0-3 2.28 3.26 3.26 0 0 0-.15 1v7.39H456zM480.75 326.81v14.86c0 1.09 0 2.33.1 3.17h-2l-.1-2.13h-.05a4.55 4.55 0 0 1-4.19 2.41c-3 0-5.25-2.51-5.25-6.25 0-4.08 2.51-6.6 5.5-6.6a4.12 4.12 0 0 1 3.71 1.88h.05v-7.34zm-2.24 10.74a3.76 3.76 0 0 0-.1-.94 3.29 3.29 0 0 0-3.22-2.59c-2.31 0-3.69 2-3.69 4.75 0 2.49 1.22 4.55 3.64 4.55a3.36 3.36 0 0 0 3.27-2.67 3.68 3.68 0 0 0 .1-1zM489.83 336.39c0-1.45 0-2.7-.1-3.84h2l.07 2.41h.11a3.67 3.67 0 0 1 3.4-2.69 2.41 2.41 0 0 1 .63.08v2.11a2.86 2.86 0 0 0-.76-.08 3.13 3.13 0 0 0-3 2.87 5.35 5.35 0 0 0-.11 1v6.55h-2.21zM499.13 339.1c.05 3 2 4.27 4.21 4.27a8 8 0 0 0 3.4-.64l.38 1.6a9.83 9.83 0 0 1-4.08.76c-3.79 0-6.05-2.48-6.05-6.19s2.19-6.63 5.77-6.63c4 0 5.08 3.53 5.08 5.79a7.43 7.43 0 0 1-.08 1zm6.55-1.6c0-1.42-.59-3.63-3.1-3.63-2.26 0-3.25 2.08-3.43 3.63zM510.6 336.56c0-1.57-.05-2.84-.1-4h2l.1 2.11a4.83 4.83 0 0 1 4.37-2.39c3 0 5.2 2.52 5.2 6.25 0 4.42-2.69 6.6-5.58 6.6a4.32 4.32 0 0 1-3.79-1.93h-.05v6.68h-2.15zm2.21 3.28a5.07 5.07 0 0 0 .1.91 3.45 3.45 0 0 0 3.35 2.62c2.37 0 3.74-1.93 3.74-4.75 0-2.46-1.3-4.57-3.66-4.57a3.58 3.58 0 0 0-3.38 2.77 3.93 3.93 0 0 0-.15.91zM536.17 338.59c0 4.55-3.15 6.53-6.12 6.53-3.33 0-5.89-2.44-5.89-6.32 0-4.12 2.69-6.53 6.09-6.53s5.92 2.57 5.92 6.32zm-9.75.13c0 2.69 1.55 4.72 3.73 4.72s3.73-2 3.73-4.77c0-2.08-1-4.72-3.68-4.72s-3.78 2.44-3.78 4.77zM539 336.39c0-1.45 0-2.7-.11-3.84h2l.08 2.41h.1a3.68 3.68 0 0 1 3.4-2.69 2.41 2.41 0 0 1 .63.08v2.11a2.81 2.81 0 0 0-.76-.08 3.13 3.13 0 0 0-3 2.87 6.33 6.33 0 0 0-.1 1v6.55H539zM550.59 329v3.53h3.2v1.7h-3.2v6.63c0 1.52.43 2.39 1.67 2.39a4.76 4.76 0 0 0 1.3-.16l.1 1.68a5.44 5.44 0 0 1-2 .3 3.09 3.09 0 0 1-2.41-.94 4.51 4.51 0 0 1-.86-3.19v-6.71h-1.89v-1.7h1.91v-2.94zM558.79 329.1a1.39 1.39 0 0 1-2.77 0 1.37 1.37 0 0 1 1.4-1.4 1.33 1.33 0 0 1 1.37 1.4zm-2.49 15.74v-12.29h2.24v12.29zM562.24 335.88c0-1.27 0-2.31-.1-3.33h2l.13 2a4.51 4.51 0 0 1 4.06-2.31c1.7 0 4.34 1 4.34 5.23v7.34h-2.23v-7.08c0-2-.74-3.63-2.85-3.63a3.17 3.17 0 0 0-3 2.28 3.26 3.26 0 0 0-.15 1v7.39h-2.24zM586.92 332.55c0 .89-.1 1.88-.1 3.38v7.13c0 2.82-.56 4.55-1.75 5.61a6.52 6.52 0 0 1-4.47 1.48 7.92 7.92 0 0 1-4.09-1l.56-1.7a6.89 6.89 0 0 0 3.6 1c2.29 0 4-1.19 4-4.29v-1.37a4.36 4.36 0 0 1-3.91 2.06c-3 0-5.23-2.59-5.23-6 0-4.17 2.72-6.53 5.54-6.53a4.09 4.09 0 0 1 3.83 2.13h.05l.1-1.85zm-2.31 4.85a3.17 3.17 0 0 0-.13-1 3.22 3.22 0 0 0-3.12-2.37c-2.13 0-3.66 1.81-3.66 4.65 0 2.41 1.22 4.42 3.63 4.42a3.27 3.27 0 0 0 3.1-2.29 3.78 3.78 0 0 0 .18-1.19zM30.37 495.49v20.22h-3.69v-20.22zM34.62 505.45c0-1.68 0-3.09-.11-4.35h3.24l.17 2.19H38a5.26 5.26 0 0 1 4.64-2.52c2.55 0 5.19 1.65 5.19 6.27v8.67h-3.67v-8.25c0-2.1-.78-3.69-2.79-3.69a3.09 3.09 0 0 0-2.87 2.16 3.5 3.5 0 0 0-.15 1.2v8.58h-3.73zM52.21 515.71v-11.85h-2v-2.76h2v-.63a6.82 6.82 0 0 1 1.77-5 5.58 5.58 0 0 1 3.81-1.41 7.16 7.16 0 0 1 2.37.36l-.27 2.85a4.29 4.29 0 0 0-1.56-.27c-1.83 0-2.46 1.53-2.46 3.33v.75h3.21v2.76H55.9v11.85zM61.35 505.81c0-2 0-3.39-.11-4.71h3.2l.12 2.79h.12a4.36 4.36 0 0 1 4-3.12 3.88 3.88 0 0 1 .87.09v3.48a5.13 5.13 0 0 0-1.08-.12 3.26 3.26 0 0 0-3.3 2.79 6.33 6.33 0 0 0-.12 1.14v7.56h-3.7zM80 515.71l-.23-1.62h-.1a5.43 5.43 0 0 1-4.34 1.91 4.33 4.33 0 0 1-4.58-4.35c0-3.69 3.26-5.55 8.66-5.52v-.24c0-1-.39-2.55-3-2.55a7.75 7.75 0 0 0-3.94 1.08l-.72-2.4a10.53 10.53 0 0 1 5.29-1.29c4.67 0 6 3 6 6.15v5.28a23.43 23.43 0 0 0 .21 3.51zm-.48-7.14c-2.61-.06-5.09.51-5.09 2.73a1.93 1.93 0 0 0 2.09 2.1 3 3 0 0 0 2.88-2 2.65 2.65 0 0 0 .12-.81zM86.82 512.32a8.23 8.23 0 0 0 3.75 1c1.62 0 2.34-.66 2.34-1.62s-.6-1.5-2.4-2.13c-2.85-1-4.05-2.55-4-4.26 0-2.58 2.13-4.59 5.52-4.59a8.58 8.58 0 0 1 3.87.87l-.72 2.61a6.56 6.56 0 0 0-3.09-.84c-1.32 0-2 .63-2 1.53s.69 1.38 2.55 2c2.64 1 3.87 2.31 3.9 4.47 0 2.64-2.07 4.56-5.94 4.56a9.43 9.43 0 0 1-4.44-1zM103.74 496.93v4.17h3.51v2.76h-3.51v6.45c0 1.77.48 2.7 1.89 2.7a5.45 5.45 0 0 0 1.44-.18l.06 2.82a8.11 8.11 0 0 1-2.67.36 4.27 4.27 0 0 1-3.18-1.2c-.78-.84-1.14-2.16-1.14-4.08v-6.87H98v-2.76h2.1v-3.3zM110 505.81c0-2 0-3.39-.12-4.71h3.21l.12 2.79h.12a4.36 4.36 0 0 1 4-3.12 3.88 3.88 0 0 1 .87.09v3.48a5.13 5.13 0 0 0-1.08-.12 3.25 3.25 0 0 0-3.3 2.79 6.33 6.33 0 0 0-.12 1.14v7.56H110zM133.8 511.33c0 1.74.06 3.18.12 4.38h-3.24l-.18-2.22h-.06a5.28 5.28 0 0 1-4.68 2.55c-2.67 0-5.1-1.59-5.1-6.36v-8.58h3.69v7.95c0 2.43.78 4 2.73 4a3.11 3.11 0 0 0 2.82-2 3.35 3.35 0 0 0 .21-1.14v-8.81h3.69zM148.53 515.26a10.68 10.68 0 0 1-4.14.75c-4.56 0-7.53-2.91-7.53-7.44 0-4.38 3-7.8 8.13-7.8a9.21 9.21 0 0 1 3.57.69l-.66 2.76a6.5 6.5 0 0 0-2.79-.57 4.73 4.73 0 0 0 0 9.45 7.22 7.22 0 0 0 2.91-.57zM155.94 496.93v4.17h3.51v2.76h-3.51v6.45c0 1.77.48 2.7 1.89 2.7a5.45 5.45 0 0 0 1.44-.18l.06 2.82a8.11 8.11 0 0 1-2.67.36 4.27 4.27 0 0 1-3.18-1.2c-.78-.84-1.14-2.16-1.14-4.08v-6.87h-2.1v-2.76h2.1v-3.3zM175.32 511.33c0 1.74.06 3.18.12 4.38h-3.24l-.18-2.22H172a5.28 5.28 0 0 1-4.68 2.55c-2.67 0-5.1-1.59-5.1-6.36v-8.58h3.69v7.95c0 2.43.78 4 2.73 4a3.11 3.11 0 0 0 2.82-2 3.35 3.35 0 0 0 .21-1.14v-8.81h3.69zM179.31 505.81c0-2 0-3.39-.12-4.71h3.21l.12 2.79h.12a4.36 4.36 0 0 1 4-3.12 3.88 3.88 0 0 1 .87.09v3.48a5.13 5.13 0 0 0-1.08-.12 3.25 3.25 0 0 0-3.3 2.79 6.33 6.33 0 0 0-.12 1.14v7.56h-3.69zM192.33 509.44c.09 2.64 2.16 3.78 4.5 3.78a11 11 0 0 0 4-.66l.54 2.55a13.76 13.76 0 0 1-5.1.9c-4.74 0-7.53-2.91-7.53-7.38 0-4.05 2.46-7.86 7.14-7.86s6.3 3.9 6.3 7.11a9.08 9.08 0 0 1-.12 1.56zm6.42-2.58c0-1.35-.57-3.57-3-3.57-2.28 0-3.24 2.07-3.39 3.57zM67.07 542.32a8.23 8.23 0 0 0 3.75 1c1.62 0 2.34-.66 2.34-1.62s-.6-1.5-2.4-2.13c-2.85-1-4.05-2.55-4-4.26 0-2.58 2.13-4.59 5.52-4.59a8.58 8.58 0 0 1 3.87.87l-.72 2.61a6.56 6.56 0 0 0-3.09-.84c-1.32 0-2 .63-2 1.53s.69 1.38 2.55 2c2.64 1 3.87 2.31 3.9 4.47 0 2.64-2.07 4.56-5.94 4.56a9.43 9.43 0 0 1-4.44-1zM82.37 539.44c.09 2.64 2.16 3.78 4.5 3.78a11 11 0 0 0 4-.66l.54 2.55a13.76 13.76 0 0 1-5.1.9c-4.74 0-7.53-2.91-7.53-7.38 0-4 2.46-7.86 7.14-7.86s6.3 3.9 6.3 7.11a9.08 9.08 0 0 1-.12 1.56zm6.42-2.58c0-1.35-.57-3.57-3-3.57-2.28 0-3.24 2.07-3.39 3.57zM95.24 535.81c0-2 0-3.39-.12-4.71h3.21l.12 2.79h.12a4.36 4.36 0 0 1 4-3.12 3.88 3.88 0 0 1 .87.09v3.48a5.13 5.13 0 0 0-1.08-.12 3.25 3.25 0 0 0-3.3 2.79 6.33 6.33 0 0 0-.12 1.14v7.56h-3.7zM108.92 531.1l2.37 7.41c.42 1.29.72 2.46 1 3.66h.09c.27-1.2.6-2.34 1-3.66l2.31-7.41h3.9L114 545.71h-3.63l-5.43-14.61zM125.75 527a2.07 2.07 0 1 1-2.07-2 2 2 0 0 1 2.07 2zm-3.93 18.69V531.1h3.72v14.61zM140.24 545.26a10.68 10.68 0 0 1-4.14.75c-4.56 0-7.53-2.91-7.53-7.44s3-7.8 8.13-7.8a9.21 9.21 0 0 1 3.57.69l-.66 2.76a6.5 6.5 0 0 0-2.79-.57 4.73 4.73 0 0 0 0 9.45 7.22 7.22 0 0 0 2.91-.57zM145.31 539.44c.09 2.64 2.16 3.78 4.5 3.78a11 11 0 0 0 4.05-.66l.54 2.55a13.76 13.76 0 0 1-5.1.9c-4.74 0-7.53-2.91-7.53-7.38 0-4 2.46-7.86 7.14-7.86s6.3 3.9 6.3 7.11a9.08 9.08 0 0 1-.12 1.56zm6.42-2.58c0-1.35-.57-3.57-3-3.57-2.28 0-3.24 2.07-3.39 3.57zM158 542.32a8.23 8.23 0 0 0 3.75 1c1.62 0 2.34-.66 2.34-1.62s-.6-1.5-2.4-2.13c-2.85-1-4.05-2.55-4-4.26 0-2.58 2.13-4.59 5.52-4.59a8.58 8.58 0 0 1 3.87.87l-.72 2.61a6.56 6.56 0 0 0-3.09-.84c-1.32 0-2 .63-2 1.53s.69 1.38 2.55 2c2.64 1 3.87 2.31 3.9 4.47 0 2.64-2.07 4.56-5.94 4.56a9.43 9.43 0 0 1-4.44-1zM273.6 412.73v17.11h-2.21v-17.11zM280.71 414.61h-5.2v-1.88h12.67v1.88H283v15.23h-2.24zM293.89 422.15v1.65h-6.27v-1.65zM303.31 429.84l-.18-1.55h-.08a4.55 4.55 0 0 1-3.76 1.83 3.5 3.5 0 0 1-3.75-3.53c0-3 2.64-4.6 7.39-4.57v-.25a2.54 2.54 0 0 0-2.8-2.85 6.14 6.14 0 0 0-3.2.92l-.5-1.48a7.58 7.58 0 0 1 4-1.09c3.76 0 4.67 2.57 4.67 5v4.59a17.55 17.55 0 0 0 .21 2.95zm-.33-6.27c-2.44-.05-5.21.38-5.21 2.77a2 2 0 0 0 2.11 2.13 3.06 3.06 0 0 0 3-2.06 2.22 2.22 0 0 0 .13-.71zM308.43 427.56a5.88 5.88 0 0 0 2.95.88c1.62 0 2.39-.81 2.39-1.82s-.64-1.65-2.29-2.26c-2.21-.79-3.25-2-3.25-3.48 0-2 1.6-3.61 4.24-3.61a6.16 6.16 0 0 1 3 .76l-.56 1.63a4.72 4.72 0 0 0-2.51-.71c-1.32 0-2.06.76-2.06 1.67s.74 1.48 2.34 2.09c2.13.81 3.22 1.87 3.22 3.7 0 2.16-1.67 3.68-4.59 3.68a7.06 7.06 0 0 1-3.45-.83zM324 422.15v1.65h-6.3v-1.65zM333.39 429.84l-.18-1.55h-.07a4.58 4.58 0 0 1-3.76 1.83 3.5 3.5 0 0 1-3.76-3.53c0-3 2.64-4.6 7.39-4.57v-.25a2.54 2.54 0 0 0-2.79-2.85 6.11 6.11 0 0 0-3.2.92l-.51-1.48a7.65 7.65 0 0 1 4-1.09c3.76 0 4.67 2.57 4.67 5v4.59a17.62 17.62 0 0 0 .2 2.95zm-.33-6.27c-2.44-.05-5.2.38-5.2 2.77a2 2 0 0 0 2.1 2.13 3.05 3.05 0 0 0 3-2.06 2.22 2.22 0 0 0 .13-.71zM344 422.15v1.65h-6.27v-1.65zM346.31 427.56a5.88 5.88 0 0 0 2.95.88c1.62 0 2.39-.81 2.39-1.82s-.64-1.65-2.29-2.26c-2.21-.79-3.25-2-3.25-3.48 0-2 1.6-3.61 4.24-3.61a6.19 6.19 0 0 1 3 .76l-.56 1.63a4.72 4.72 0 0 0-2.51-.71c-1.32 0-2.06.76-2.06 1.67s.74 1.48 2.34 2.09c2.13.81 3.22 1.87 3.22 3.7 0 2.16-1.67 3.68-4.59 3.68a7.13 7.13 0 0 1-3.46-.83zM357.92 424.1c.05 3 2 4.27 4.21 4.27a8 8 0 0 0 3.4-.64l.38 1.6a9.83 9.83 0 0 1-4.08.76c-3.79 0-6.05-2.48-6.05-6.19s2.19-6.63 5.77-6.63c4 0 5.07 3.53 5.07 5.79a10 10 0 0 1-.07 1zm6.55-1.6c0-1.42-.59-3.63-3.1-3.63-2.26 0-3.25 2.08-3.43 3.63zM369.39 421.39c0-1.45 0-2.7-.1-3.84h2l.07 2.41h.1a3.69 3.69 0 0 1 3.41-2.69 2.41 2.41 0 0 1 .63.08v2.11a2.91 2.91 0 0 0-.76-.08 3.13 3.13 0 0 0-3 2.87 6.33 6.33 0 0 0-.1 1v6.55h-2.21zM379.19 417.55l2.41 6.91a28.92 28.92 0 0 1 1 3.15h.08c.28-1 .63-2 1-3.15l2.39-6.91h2.33l-4.82 12.29h-2.13l-4.68-12.29zM393 414.1a1.39 1.39 0 0 1-2.77 0 1.36 1.36 0 0 1 1.4-1.4 1.33 1.33 0 0 1 1.37 1.4zm-2.49 15.74v-12.29h2.23v12.29zM405.24 429.38a8.14 8.14 0 0 1-3.53.71c-3.71 0-6.12-2.51-6.12-6.27a6.24 6.24 0 0 1 6.6-6.52 7.57 7.57 0 0 1 3.1.63l-.51 1.73a5.1 5.1 0 0 0-2.59-.59c-2.82 0-4.34 2.09-4.34 4.65 0 2.84 1.83 4.6 4.27 4.6a6.34 6.34 0 0 0 2.74-.61zM409 424.1c.05 3 2 4.27 4.21 4.27a8 8 0 0 0 3.4-.64l.38 1.6a9.83 9.83 0 0 1-4.08.76c-3.79 0-6.05-2.48-6.05-6.19s2.19-6.63 5.77-6.63c4 0 5.08 3.53 5.08 5.79a9.4 9.4 0 0 1-.08 1zm6.55-1.6c0-1.42-.59-3.63-3.1-3.63-2.26 0-3.25 2.08-3.43 3.63zM271.39 484.84v-17.11h2.42l5.48 8.66a46.83 46.83 0 0 1 3.07 5.56h.05c-.2-2.28-.25-4.37-.25-7v-7.16h2.08v17.11H282l-5.44-8.68a56.2 56.2 0 0 1-3.2-5.72h-.07c.12 2.16.18 4.21.18 7.06v7.31zM289.27 479.1c.05 3 2 4.27 4.21 4.27a8 8 0 0 0 3.4-.64l.38 1.6a9.83 9.83 0 0 1-4.08.76c-3.79 0-6.05-2.48-6.05-6.19s2.19-6.63 5.77-6.63c4 0 5.08 3.53 5.08 5.79a9.4 9.4 0 0 1-.08 1zm6.55-1.6c0-1.42-.59-3.63-3.1-3.63-2.26 0-3.25 2.08-3.43 3.63zM303.43 469v3.53h3.2v1.7h-3.2v6.63c0 1.52.44 2.39 1.68 2.39a4.73 4.73 0 0 0 1.29-.16l.11 1.68a5.48 5.48 0 0 1-2 .3 3.11 3.11 0 0 1-2.42-.94 4.56 4.56 0 0 1-.86-3.19v-6.71h-1.9v-1.7h1.9v-2.94zM310.26 472.55l1.63 6.25c.35 1.37.68 2.64.91 3.91h.08c.28-1.25.68-2.57 1.09-3.89l2-6.27h1.87l1.91 6.15c.46 1.47.81 2.76 1.09 4h.08a35.29 35.29 0 0 1 .94-4l1.75-6.17h2.21l-4 12.29h-2L318 479a39.74 39.74 0 0 1-1.1-4h-.05a35.82 35.82 0 0 1-1.15 4l-2 5.84h-2l-3.7-12.29zM338.93 478.59c0 4.55-3.15 6.53-6.12 6.53-3.33 0-5.89-2.44-5.89-6.32 0-4.12 2.69-6.53 6.09-6.53s5.92 2.57 5.92 6.32zm-9.75.13c0 2.69 1.55 4.72 3.73 4.72s3.73-2 3.73-4.77c0-2.08-1-4.72-3.68-4.72s-3.78 2.44-3.78 4.77zM341.74 476.39c0-1.45 0-2.7-.1-3.84h2l.07 2.41h.11a3.67 3.67 0 0 1 3.4-2.69 2.41 2.41 0 0 1 .63.08v2.11a2.86 2.86 0 0 0-.76-.08 3.14 3.14 0 0 0-3 2.87 6.33 6.33 0 0 0-.1 1v6.55h-2.21zM352.36 478.19h.05c.3-.43.73-1 1.09-1.4l3.6-4.24h2.7l-4.75 5.05 5.41 7.24h-2.72L353.5 479l-1.14 1.27v4.62h-2.21v-18h2.21zM367.13 482.56a5.88 5.88 0 0 0 2.95.88c1.62 0 2.38-.81 2.38-1.82s-.63-1.65-2.28-2.26c-2.21-.79-3.25-2-3.25-3.48 0-2 1.6-3.61 4.24-3.61a6.22 6.22 0 0 1 3 .76l-.56 1.63a4.72 4.72 0 0 0-2.51-.71c-1.32 0-2.06.76-2.06 1.67s.74 1.48 2.34 2.09c2.13.81 3.22 1.87 3.22 3.7 0 2.16-1.67 3.68-4.59 3.68a7.13 7.13 0 0 1-3.46-.83zM378.73 479.1c.06 3 2 4.27 4.22 4.27a8 8 0 0 0 3.4-.64l.38 1.6a9.85 9.85 0 0 1-4.09.76c-3.78 0-6-2.48-6-6.19s2.19-6.63 5.77-6.63c4 0 5.07 3.53 5.07 5.79a10 10 0 0 1-.07 1zm6.56-1.6c0-1.42-.59-3.63-3.1-3.63-2.26 0-3.25 2.08-3.43 3.63zM399 484.38a8.14 8.14 0 0 1-3.53.71c-3.71 0-6.12-2.51-6.12-6.27a6.24 6.24 0 0 1 6.6-6.52 7.57 7.57 0 0 1 3.1.63l-.51 1.73a5.1 5.1 0 0 0-2.59-.59c-2.82 0-4.34 2.09-4.34 4.65 0 2.84 1.83 4.6 4.27 4.6a6.34 6.34 0 0 0 2.74-.61zM411.87 481.49c0 1.27 0 2.39.1 3.35h-2l-.13-2h-.05a4.62 4.62 0 0 1-4.06 2.29c-1.93 0-4.24-1.07-4.24-5.38v-7.19h2.23v6.81c0 2.33.71 3.91 2.74 3.91a3.25 3.25 0 0 0 2.95-2 3.17 3.17 0 0 0 .2-1.14v-7.54h2.24zM415.57 476.39c0-1.45 0-2.7-.1-3.84h2l.07 2.41h.1a3.69 3.69 0 0 1 3.41-2.69 2.41 2.41 0 0 1 .63.08v2.11a2.91 2.91 0 0 0-.76-.08 3.14 3.14 0 0 0-3 2.87 6.33 6.33 0 0 0-.1 1v6.55h-2.21zM426.46 469.1a1.31 1.31 0 0 1-1.42 1.37 1.33 1.33 0 0 1-1.34-1.37 1.36 1.36 0 0 1 1.39-1.4 1.33 1.33 0 0 1 1.37 1.4zM424 484.84v-12.29h2.23v12.29zM432.61 469v3.53h3.2v1.7h-3.2v6.63c0 1.52.43 2.39 1.67 2.39a4.76 4.76 0 0 0 1.3-.16l.1 1.68a5.44 5.44 0 0 1-2 .3 3.09 3.09 0 0 1-2.41-.94 4.51 4.51 0 0 1-.87-3.19v-6.71h-1.9v-1.7h1.9v-2.94zM439.36 472.55l2.69 7.26c.28.82.59 1.78.79 2.52h.05c.23-.74.48-1.68.79-2.57l2.43-7.21h2.37l-3.36 8.76c-1.6 4.22-2.69 6.37-4.21 7.69a6 6 0 0 1-2.74 1.45l-.56-1.88a5.88 5.88 0 0 0 1.95-1.09 6.72 6.72 0 0 0 1.88-2.49 1.63 1.63 0 0 0 .18-.53 1.87 1.87 0 0 0-.15-.58l-4.55-11.33zM274.16 534.46l-1.78 5.38h-2.28l5.81-17.11h2.67l5.84 17.11h-2.36l-1.83-5.38zm5.61-1.73l-1.67-4.92c-.38-1.12-.64-2.14-.89-3.13-.26 1-.54 2.06-.87 3.1l-1.67 5zM295.31 539.38a8.14 8.14 0 0 1-3.53.71c-3.71 0-6.12-2.51-6.12-6.27a6.24 6.24 0 0 1 6.6-6.52 7.57 7.57 0 0 1 3.1.63l-.51 1.73a5.1 5.1 0 0 0-2.59-.59c-2.81 0-4.34 2.09-4.34 4.65 0 2.84 1.83 4.6 4.27 4.6a6.34 6.34 0 0 0 2.74-.61zM306.53 539.38a8.14 8.14 0 0 1-3.53.71c-3.7 0-6.12-2.51-6.12-6.27a6.24 6.24 0 0 1 6.61-6.52 7.52 7.52 0 0 1 3.09.63l-.5 1.73a5.16 5.16 0 0 0-2.59-.59c-2.82 0-4.35 2.09-4.35 4.65 0 2.84 1.83 4.6 4.27 4.6a6.31 6.31 0 0 0 2.74-.61zM310.24 534.1c.05 3 2 4.27 4.21 4.27a8 8 0 0 0 3.41-.64l.38 1.6a9.93 9.93 0 0 1-4.09.76c-3.78 0-6-2.48-6-6.19s2.18-6.63 5.76-6.63c4 0 5.08 3.53 5.08 5.79a7.43 7.43 0 0 1-.08 1zm6.55-1.6c0-1.42-.58-3.63-3.1-3.63-2.26 0-3.25 2.08-3.43 3.63zM321.41 537.56a5.87 5.87 0 0 0 2.94.88c1.63 0 2.39-.81 2.39-1.82s-.63-1.65-2.28-2.26c-2.21-.79-3.25-2-3.25-3.48 0-2 1.6-3.61 4.24-3.61a6.22 6.22 0 0 1 3 .76l-.56 1.63a4.72 4.72 0 0 0-2.51-.71c-1.32 0-2.06.76-2.06 1.67s.74 1.48 2.33 2.09c2.14.81 3.23 1.87 3.23 3.7 0 2.16-1.68 3.68-4.6 3.68a7.09 7.09 0 0 1-3.45-.83zM331.46 537.56a5.88 5.88 0 0 0 3 .88c1.62 0 2.38-.81 2.38-1.82s-.63-1.65-2.28-2.26c-2.21-.79-3.25-2-3.25-3.48 0-2 1.6-3.61 4.24-3.61a6.19 6.19 0 0 1 3 .76l-.56 1.63a4.72 4.72 0 0 0-2.51-.71c-1.32 0-2.06.76-2.06 1.67s.74 1.48 2.34 2.09c2.13.81 3.22 1.87 3.22 3.7 0 2.16-1.67 3.68-4.59 3.68a7.13 7.13 0 0 1-3.46-.83zM347.2 530.88c0-1.27 0-2.31-.1-3.33h2l.1 2h.07a4.24 4.24 0 0 1 3.86-2.26 3.63 3.63 0 0 1 3.48 2.46h.05a5.16 5.16 0 0 1 1.37-1.59 4.2 4.2 0 0 1 2.72-.87c1.63 0 4 1.07 4 5.33v7.24h-2.19v-7c0-2.36-.86-3.78-2.66-3.78a2.89 2.89 0 0 0-2.64 2 3.75 3.75 0 0 0-.18 1.12v7.59h-2.18v-7.36c0-2-.87-3.38-2.57-3.38a3.07 3.07 0 0 0-2.77 2.23 3.29 3.29 0 0 0-.17 1.1v7.41h-2.19zM375.18 539.84l-.18-1.55h-.07a4.58 4.58 0 0 1-3.76 1.83 3.5 3.5 0 0 1-3.76-3.53c0-3 2.64-4.6 7.39-4.57v-.25a2.54 2.54 0 0 0-2.79-2.85 6.11 6.11 0 0 0-3.2.92l-.51-1.48a7.65 7.65 0 0 1 4-1.09c3.76 0 4.67 2.57 4.67 5v4.59a17.62 17.62 0 0 0 .2 3zm-.33-6.27c-2.44-.05-5.2.38-5.2 2.77a2 2 0 0 0 2.1 2.13 3.05 3.05 0 0 0 3-2.06 2.22 2.22 0 0 0 .13-.71zM380.61 530.88c0-1.27 0-2.31-.1-3.33h2l.13 2h.05a4.51 4.51 0 0 1 4.06-2.31c1.7 0 4.35 1 4.35 5.23v7.34h-2.24v-7.08c0-2-.74-3.63-2.84-3.63a3.17 3.17 0 0 0-3 2.28 3.26 3.26 0 0 0-.15 1v7.39h-2.24zM401.51 539.84l-.18-1.55h-.07a4.58 4.58 0 0 1-3.76 1.83 3.5 3.5 0 0 1-3.76-3.53c0-3 2.64-4.6 7.39-4.57v-.25a2.54 2.54 0 0 0-2.79-2.85 6.09 6.09 0 0 0-3.2.92l-.51-1.48a7.62 7.62 0 0 1 4-1.09c3.75 0 4.67 2.57 4.67 5v4.59a17.62 17.62 0 0 0 .2 3zm-.33-6.27c-2.44-.05-5.21.38-5.21 2.77a2 2 0 0 0 2.11 2.13 3.05 3.05 0 0 0 3-2.06 2.22 2.22 0 0 0 .13-.71zM417.53 527.55c0 .89-.1 1.88-.1 3.38v7.13c0 2.82-.56 4.55-1.75 5.61a6.52 6.52 0 0 1-4.47 1.48 8 8 0 0 1-4.09-1l.56-1.7a6.89 6.89 0 0 0 3.6 1c2.29 0 4-1.19 4-4.29v-1.37h-.06a4.36 4.36 0 0 1-3.91 2.06c-3 0-5.23-2.59-5.23-6 0-4.17 2.72-6.53 5.54-6.53a4.09 4.09 0 0 1 3.83 2.13h.05l.11-1.85zm-2.31 4.85a3.17 3.17 0 0 0-.13-1A3.22 3.22 0 0 0 412 529c-2.13 0-3.66 1.81-3.66 4.65 0 2.41 1.22 4.42 3.63 4.42a3.27 3.27 0 0 0 3.1-2.29 3.78 3.78 0 0 0 .18-1.19zM422.38 534.1c.05 3 2 4.27 4.21 4.27a8 8 0 0 0 3.41-.64l.38 1.6a9.93 9.93 0 0 1-4.09.76c-3.79 0-6-2.48-6-6.19s2.18-6.63 5.76-6.63c4 0 5.08 3.53 5.08 5.79a7.43 7.43 0 0 1-.08 1zm6.55-1.6c0-1.42-.59-3.63-3.1-3.63-2.26 0-3.25 2.08-3.43 3.63zM433.85 530.88c0-1.27 0-2.31-.1-3.33h2l.1 2h.07a4.24 4.24 0 0 1 3.86-2.26 3.63 3.63 0 0 1 3.48 2.46 5.16 5.16 0 0 1 1.37-1.59 4.2 4.2 0 0 1 2.72-.87c1.63 0 4 1.07 4 5.33v7.24h-2.19v-7c0-2.36-.86-3.78-2.66-3.78a2.89 2.89 0 0 0-2.64 2 3.75 3.75 0 0 0-.18 1.12v7.59h-2.18v-7.36c0-2-.87-3.38-2.57-3.38a3.07 3.07 0 0 0-2.77 2.23 3.29 3.29 0 0 0-.17 1.1v7.41h-2.19zM456.27 534.1c.05 3 2 4.27 4.22 4.27a8 8 0 0 0 3.4-.64l.38 1.6a9.89 9.89 0 0 1-4.09.76c-3.78 0-6-2.48-6-6.19s2.18-6.63 5.76-6.63c4 0 5.08 3.53 5.08 5.79a7.43 7.43 0 0 1-.08 1zm6.55-1.6c0-1.42-.58-3.63-3.1-3.63-2.26 0-3.25 2.08-3.42 3.63zM467.75 530.88c0-1.27 0-2.31-.1-3.33h2l.12 2h.05a4.52 4.52 0 0 1 4.07-2.31c1.7 0 4.34 1 4.34 5.23v7.34H476v-7.08c0-2-.73-3.63-2.84-3.63a3.18 3.18 0 0 0-3 2.28 3.26 3.26 0 0 0-.15 1v7.39h-2.23zM484.43 524v3.53h3.2v1.7h-3.2v6.63c0 1.52.43 2.39 1.67 2.39a4.76 4.76 0 0 0 1.3-.16l.1 1.68a5.44 5.44 0 0 1-2 .3 3.09 3.09 0 0 1-2.41-.94 4.51 4.51 0 0 1-.86-3.19v-6.71h-1.91v-1.7h1.91v-2.94zM70.36 89.1a13.29 13.29 0 0 1 .54-1.22l38.95-67.47a7.35 7.35 0 0 0 .34-.76h.17c2.18 3.81 4.35 7.62 6.54 11.42l13 22.6c.1.16.18.34.31.57L128 55.58 110.3 25 74.87 86.36h70.86l-7.48-13-4 2.31V63.5l10.59 6.11-4.23 2.45 3.34 5.79 6 10.45c.13.22.28.42.42.63a2.8 2.8 0 0 1-.68.16H70.36z"/><path class="cls-3" d="M118.7 79.24a1.8 1.8 0 0 0-2 2.06 1 1 0 0 1-.67 1.26c-.58.24-1.14.5-1.7.77-1 .46-1.77.54-2.42-.57-.32-.55-2-.47-2.31.13-.55.92-1.22.91-2.06.54-.39-.17-.79-.31-1.18-.47-1-.39-1.72-.86-1.42-2.15.16-.65-1-1.72-1.71-1.56-1 .23-1.51-.24-1.83-1.1-.18-.48-.37-1-.58-1.41-.39-.89-.42-1.62.55-2.22a1.53 1.53 0 0 0-.08-2.2 1.29 1.29 0 0 1-.56-1.85c.32-.72.65-1.44.93-2.18s.63-.69 1.2-.63a1.78 1.78 0 0 0 2.06-2.11 1 1 0 0 1 .66-1.18c.57-.23 1.12-.52 1.69-.78 1-.42 1.78-.53 2.43.57.31.53 2 .44 2.33-.13a1.34 1.34 0 0 1 2-.54c.49.22 1 .41 1.5.6.91.35 1.45.86 1.15 2-.17.61 1 1.79 1.65 1.63 1.13-.3 1.6.3 1.95 1.19.17.42.33.84.51 1.25.38.9.49 1.68-.55 2.29a1.62 1.62 0 0 0 .06 2.14 1.4 1.4 0 0 1 .53 2.07c-.28.61-.54 1.24-.79 1.87s-.72.95-1.34.71zm-11 1.5c.7-1.59 1.89-1 2.92-.93a2 2 0 0 0 .6 0 1.88 1.88 0 0 1 2.43.84h.3c-.78-1.36.35-1.82 1.14-2.45a2.2 2.2 0 0 0 .31-.3c.64-.87 1.19-1.89 2.73-1.38-1.55-.78-1-2-1-3.1a1 1 0 0 0 0-.25 1.91 1.91 0 0 1 .81-2.46s0-.09-.06-.24c-1.17.51-1.79-.2-2.35-1.09a2 2 0 0 0-.66-.65 1.83 1.83 0 0 1-1.08-2.26s-.07-.06-.12-.09c-1.06.9-1.06.9-2.6.82a2 2 0 0 0-.6 0c-1.06.24-2 .27-2.7-.82h-.19c.55 1.3-.38 1.88-1.25 2.5a1.09 1.09 0 0 0-.24.24c-.68.81-1.17 1.94-2.74 1.38 1.56.78 1 2 1 3.1a1 1 0 0 0 0 .17 2.08 2.08 0 0 1-.81 2.55s0 .09.07.24c1.12-.48 1.74.17 2.28 1a2 2 0 0 0 .66.65 2 2 0 0 1 1.15 2.53zM109 37.89h2.58v20.94H109z"/><path class="cls-3" d="M116.36 73.46a5.59 5.59 0 0 1-5.58 5.54 5.56 5.56 0 1 1 0-11.12 5.57 5.57 0 0 1 5.58 5.58zm-2.71 0a2.89 2.89 0 0 0-2.87-2.94 3 3 0 0 0-3 2.88 3 3 0 0 0 2.91 2.93 2.86 2.86 0 0 0 2.96-2.84zM71.78 284.63h8.33v-1.28c0-4.25 0-8.51.17-12.75A38.4 38.4 0 0 1 87 250.94l.57-.86a7.14 7.14 0 0 1-1.85-5.94 6.8 6.8 0 0 1 2.17-4.14 7 7 0 0 1 9.38 0c3.29-1.55 6.42-3.18 9.67-4.52a33.92 33.92 0 0 1 10.87-2.27c.52 0 .87-.08.87-.74v-10.76H109v-3.61h22.75v3.55h-9.51V233c1.83.25 3.69.45 5.52.76A40.29 40.29 0 0 1 160 266.29c.12.76.41 1 1.16 1 1.84-.06 3.68 0 5.76 0l-8 13.88c-2.69-4.67-5.29-9.16-8-13.84h5.87c-.55-2-.89-3.9-1.55-5.67-5.24-14.15-15.33-22.56-30.24-24.78-8.87-1.32-17.16.81-24.73 5.66a1.56 1.56 0 0 0-.86 1.76 6.86 6.86 0 0 1-8.17 7.7 1 1 0 0 0-1.18.54 33.21 33.21 0 0 0-6.06 15.7c-.5 5.38-.41 10.82-.58 16.35h85.51V288c-.35 0-.7.05-1 .05H71.78zm20.79-35.94a3.51 3.51 0 1 0 0-7 3.51 3.51 0 1 0 0 7z"/><path class="cls-3" d="M108.12 270.55c-2 .16-2 .16-2.86-1.69-.27-.58-.46-1.19-.73-1.76-.65-1.42-.78-2.67.88-3.53.23-.12.35-.56.41-.88s0-.78 0-1.16a2.27 2.27 0 0 0-1.23-2.55 1.06 1.06 0 0 1-.5-1.49c.56-1.34 1.11-2.68 1.61-4a1.34 1.34 0 0 1 1.74-.9c.54.09 1.27.28 1.64 0a7.86 7.86 0 0 0 2.12-2.18c.28-.44.06-1.24 0-1.86s0-1.08.66-1.34q2.16-.87 4.3-1.78c.58-.26 1.07-.18 1.34.4.91 2 2.76 1.43 4.31 1.46.43 0 1-.76 1.3-1.26a1.27 1.27 0 0 1 1.79-.54c1.26.55 2.53 1.07 3.81 1.57.78.3 1.16.82.89 1.63-.72 2.1 1.2 2.77 2.17 3.91.21.26 1.07 0 1.62 0 .79-.12 1.36 0 1.67.86.5 1.39 1.06 2.76 1.63 4.13a1 1 0 0 1-.46 1.41c-1.85.94-1.28 2.62-1.22 4.1 0 .36.58.77 1 1a1.42 1.42 0 0 1 .61 2c-.57 1.3-1.12 2.59-1.65 3.9-.26.65-.66.78-1.33.68a3.22 3.22 0 0 0-2 0 9.85 9.85 0 0 0-2.11 2.07c-.17.21-.06.68 0 1 .18 2.24.45 1.71-1.48 2.7a22.11 22.11 0 0 1-3.57 1.32 1.11 1.11 0 0 1-1-.29c-1-2-2.77-1.66-4.39-1.56-.48 0-1 .72-1.34 1.21a1.32 1.32 0 0 1-1.85.57c-1.33-.58-2.66-1.14-4-1.69a1 1 0 0 1-.69-1.32 3.28 3.28 0 0 0 0-2 9.4 9.4 0 0 0-2.07-2.11c-.22-.09-.68 0-1.02-.03zm1.57-3.58c.71-.25 1.27.11 1.8.9a6.75 6.75 0 0 0 1.94 2.07 2.59 2.59 0 0 1 1.42 3.21c0 .18.21.58.42.67a1.08 1.08 0 0 0 .8-.15 1.46 1.46 0 0 0 .48-.56 1.7 1.7 0 0 1 2.13-.8 6.15 6.15 0 0 0 2.52.13c1.5-.31 2.75-.32 3.56 1.25a.75.75 0 0 0 .7.17 1.06 1.06 0 0 0 .51-.64 2.22 2.22 0 0 0-.08-1 1.46 1.46 0 0 1 .72-1.75 7.82 7.82 0 0 0 2.25-2.07c.79-1.18 1.64-1.83 3.11-1.44a.84.84 0 0 0 .72-.37 1.3 1.3 0 0 0-.2-.9 1.82 1.82 0 0 0-.64-.55 1.4 1.4 0 0 1-.66-1.69 8.06 8.06 0 0 0 .09-3.05 2.36 2.36 0 0 1 1.17-2.92 1.11 1.11 0 0 0 .22-1c-.06-.19-.52-.28-.82-.38a.58.58 0 0 0-.31 0 1.81 1.81 0 0 1-2.28-.93 7 7 0 0 0-2.12-2.19 2.24 2.24 0 0 1-1.2-2.77 1 1 0 0 0-.39-.9c-.22-.11-.63.16-1 .29-.08 0-.15.15-.2.24a1.94 1.94 0 0 1-2.39.93 7.43 7.43 0 0 0-3.15 0 2 2 0 0 1-2.48-1c-.25-.39-.59-1-1.15-.5a1.45 1.45 0 0 0-.32 1.14 2 2 0 0 1-1 2.37 6.34 6.34 0 0 0-1.91 1.81c-.79 1.19-1.63 2-3.17 1.45-.17-.06-.61.21-.68.4a1.31 1.31 0 0 0 .18.89 1.61 1.61 0 0 0 .63.55c.77.41.79 1 .67 1.8a7.43 7.43 0 0 0-.12 2.73c.33 1.42.13 2.46-1.2 3.2a.87.87 0 0 0-.2.78 1.1 1.1 0 0 0 .67.47 3.27 3.27 0 0 0 .96.14z"/><path class="cls-3" d="M120.45 253a8.75 8.75 0 0 1 8.72 8.72 8.78 8.78 0 1 1-8.72-8.72zm-.21 13.88a5.22 5.22 0 1 0-5.1-5.51 5.28 5.28 0 0 0 5.1 5.46zM81.92 468.94a5.52 5.52 0 0 1 3.4-3.79c.16 0 .3-.33.34-.53a3.54 3.54 0 0 0 0-.8V404h20.93v32.53H117c0-.23.07-.45.07-.68v-9a1.06 1.06 0 0 0-.41-.83 4.82 4.82 0 0 1-3.25-4.91c.09-2.34 1.43-3.8 3.68-4.61V404h7.65v-4.49l9.9 5.71-9.88 5.71v-4.43h-5.1c0 .22-.07.45-.07.68v8.66a.89.89 0 0 0 .67 1 4.7 4.7 0 0 1 3 4.61 4.81 4.81 0 0 1-3 4.52 1.17 1.17 0 0 0-.62.79c-.05 3.12 0 6.25 0 9.38a3 3 0 0 0 .07.46h5.08v-4.44l9.89 5.71-9.81 5.67v-4.34h-5.17v29.42h5.08v-4.42l9.91 5.71-9.86 5.69v-4.43h-7.66v-32h-10.51v32.6H92.49a1.45 1.45 0 0 0-1.44.76 4.59 4.59 0 0 1-4.64 2.31 4.8 4.8 0 0 1-4.29-3.47l-.21-.58zm6.21-62.45v57.84a1 1 0 0 0 .72 1 4.53 4.53 0 0 1 2.83 3.18c.16.64.43.78 1 .77h11.43v-62.79zm27.7 14.76a2.5 2.5 0 0 0 2.35 2.59 2.5 2.5 0 1 0-2.35-2.59zm-26.46 48.67a2.49 2.49 0 1 0-5-.08 2.49 2.49 0 0 0 5 .08zM152.06 445.23h-15.39v-15.39h15.39zm-12.91-2.52h10.43v-10.43h-10.43zM136.67 462.16h15.39v15.39h-15.39zm12.91 13v-10.5h-10.42v10.47zM152.06 412.87h-15.41v-15.32h15.41zM149.59 400h-10.43v10.5h10.43z"/><path class="cls-3" d="M100 429.72v2.36h-7.71v-2.36zM99.94 439.26v2.36H92.3v-2.36zM92.28 451.17v-2.38h7.66v2.38zM100 410.67V413h-7.72v-2.32zM100 415.42v2.32h-7.72v-2.32zM99.94 420.21v2.31h-7.66v-2.31zM99.93 427.3h-7.66V425h7.66zM92.28 446.36V444h7.64v2.33zM100 453.58v2.32h-7.72v-2.32zM100 434.51v2.28h-7.72v-2.28z"/></svg>