<svg id="Layer_1" data-name="Layer 1" xmlns="http://www.w3.org/2000/svg" width="100" height="100" viewBox="0 0 100 100"><title>reports-based-on-real-time-data</title><path d="M98.55,26.86c-.33,1.52-.56,3.06-1,4.55a24.47,24.47,0,0,1-31.4,16.3l-1-.33V69.55a20.79,20.79,0,0,1,2.18,1.19,6.76,6.76,0,1,1-10.65,6.45,6.61,6.61,0,0,1,3.92-7.09,1.56,1.56,0,0,0,1.1-1.77q0-10.78,0-21.57A1.81,1.81,0,0,0,60.7,45,24.35,24.35,0,0,1,50.25,19a1.56,1.56,0,0,0-.45-1.73c-1.34-1.26-2.59-2.6-3.92-3.86a1.9,1.9,0,0,0-1.18-.5q-19.62,0-39.25,0c-.14,0-.29,0-.49.05V90.1H39V84.42l13.53,7.8L39.07,100V93.55H3c-.53,0-1.06-.07-1.59-.11V9.64A12,12,0,0,1,2.9,9.46q21.29,0,42.56,0a2.73,2.73,0,0,1,2.2.9C49,11.72,50.32,13,51.72,14.42l.38-.64A24.3,24.3,0,0,1,70.63.32L72.38,0H75.6a3.86,3.86,0,0,0,.74.2A24.48,24.48,0,0,1,97.85,18.82c.27,1.14.47,2.3.7,3.45Zm-3.37-2.29a21.12,21.12,0,0,0-42.24-.32c0,11.69,9.35,21.39,20.67,21.41C85.66,45.67,95.16,36.38,95.18,24.57ZM66.76,76.06a3.42,3.42,0,1,0-6.82.38,3.41,3.41,0,0,0,3.64,3.19A3.5,3.5,0,0,0,66.76,76.06Z"/><path d="M11.81,29V25.79H48.64V29Z"/><path d="M48.63,34.56v3.19H11.88V34.56Z"/><path d="M48.64,43.28v3.26H11.85V43.28Z"/><path d="M48.63,55.26H11.85V52H48.63Z"/><path d="M48.66,60.78V64H11.85V60.78Z"/><path d="M11.83,72.74V69.51H48.62v3.23Z"/><path d="M48.63,78.33v3.14H11.85V78.33Z"/><path d="M82.7,33.2V15.3h3.16V33.2Z"/><path d="M79,33.23H75.86V18.28H79Z"/><path d="M65.45,33.22H62.28V19.32h3.17Z"/><path d="M72.25,25.55V33.2H69.11V25.55Z"/></svg>