<svg id="Layer_1" data-name="Layer 1" xmlns="http://www.w3.org/2000/svg" width="100" height="100" viewBox="0 0 100 100"><title>delete</title><path d="M73.83,16.15H70.58V52.7c0,9,0,31.81,0,40.84,0,2.19-7.53,2.73-9.67,2.73l-30.79,0c-2.46,0-2.92-.46-2.92-2.9V23.43h2.84l-4.45-7.66-4.37,7.6h2.59V94.05a5.69,5.69,0,0,0,4.69,5.48H69.17c3.64-1.31,4.66-2.79,4.66-6.77V16.15Z"/><path d="M60.34,9.57H54.05a5.18,5.18,0,0,0,1-6.11A5.28,5.28,0,0,0,48.65.7a5.38,5.38,0,0,0-3.73,5.89,5.55,5.55,0,0,0,1,2.64l.28.34H9.92v3.26l1.32,0h70l7.32,0V9.57ZM49,3.4A2.84,2.84,0,0,1,52.7,4.66a2.81,2.81,0,0,1-1.28,3.6A2.77,2.77,0,0,1,47.82,7,2.8,2.8,0,0,1,49,3.4Z"/><path d="M37.91,27.37V88.1h2.93V27.37Z"/><path d="M47.92,27.46V88h3V27.46Z"/><path d="M57.71,27.42V88h3V27.42Z"/></svg>