<svg id="Layer_1" data-name="Layer 1" xmlns="http://www.w3.org/2000/svg" width="100" height="100" viewBox="0 0 100 100"><title>right-to-know</title><path d="M81.12,0a2,2,0,0,1,1,2.1q0,17.67,0,35.34v1.63h3.77c1.63,0,2,.37,2,2V92.72c0,1.64-.39,2-2.08,2H67.55V100L55.88,93.27l11.63-6.72v5.17H84.9V42a21.42,21.42,0,0,0-3,0,1.57,1.57,0,0,0-1,1c-1.2,3.27-2.34,6.55-3.49,9.83-.29.81-.56,1.61-1.67,1.58s-1.29-.8-1.56-1.56c-1.16-3.28-2.34-6.55-3.46-9.85a1.28,1.28,0,0,0-1.46-1c-3.36.05-6.73,0-10.09,0a1.83,1.83,0,0,0-1.75.94,23.59,23.59,0,0,1-10.92,9.06,1.6,1.6,0,0,0-1.14,1.78q0,19.17,0,38.34a9.73,9.73,0,0,1,0,1.21c-.1.77-.59,1.36-1.34,1.2a2.84,2.84,0,0,1-1.43-1.15c-.22-.29-.08-.85-.08-1.29q0-18.51,0-37V53.37C32.71,55,24.38,52.53,18.1,44.84s-7-16.31-3.6-25.2l-2.39-3.77V13.22c.78-2.19,2.07-3.87,4.45-4.44a6.12,6.12,0,0,1,5.35,1.32c8.8-6.63,19.64-6.65,27.26-1.88C60.85,15.52,63.76,26.12,59.82,39h9.63V37.31q0-17.43,0-34.86c0-1,0-1.93,1.09-2.45ZM58.59,27.68c-.33-7-4.14-13.59-11.88-17.5S31.55,7.09,24.44,11.89a1.57,1.57,0,0,0-.8,1.75,5.61,5.61,0,0,1-5.37,6.57,1.23,1.23,0,0,0-1.18.93,21.32,21.32,0,0,0-1.28,12.24A21.68,21.68,0,0,0,39.06,50.92C50.1,49.91,58.59,40.53,58.59,27.68ZM72.46,3V38.84h6.71V3ZM20.84,14.42a2.87,2.87,0,0,0-3-2.88,2.92,2.92,0,1,0,3,2.88ZM75.68,48.25l.29,0c.74-2.11,1.49-4.22,2.26-6.41H73.41Z"/><path d="M65.24,55.9H76.16a7.79,7.79,0,0,1,1.08,0,1.43,1.43,0,0,1,0,2.83,5.9,5.9,0,0,1-.84,0H53.62c-1,0-1.68-.38-1.68-1.43s.66-1.46,1.65-1.46H65.24Z"/><path d="M65.24,64.4H75.93c.32,0,.64,0,1,0,1,0,1.63.44,1.61,1.5a1.37,1.37,0,0,1-1.58,1.42H53.5a1.39,1.39,0,0,1-1.56-1.45c0-1,.67-1.47,1.65-1.47Z"/><path d="M65.24,75.78H53.84c-1.33,0-1.93-.46-1.91-1.43s.69-1.45,1.94-1.46h22.8c1.3,0,2,.61,1.82,1.65s-.82,1.24-1.73,1.23C72.92,75.77,69.08,75.78,65.24,75.78Z"/><path d="M38.24,29.17h7.22c.4,0,.8,0,1.2,0A1.29,1.29,0,0,1,48,30.59,1.26,1.26,0,0,1,46.65,32c-3.28,0-6.56,0-9.84,0a1.31,1.31,0,0,1-1.4-1.46q0-7.32,0-14.65a1.31,1.31,0,0,1,1.41-1.45c1,0,1.42.63,1.42,1.57V29.17Z"/></svg>