<svg id="Layer_1" data-name="Layer 1" xmlns="http://www.w3.org/2000/svg" width="100" height="100" viewBox="0 0 100 100"><title>equal-services</title><path d="M100,33l-1.44,2.57-6.83-3.37q-8.64-4.27-17.28-8.58c-4-2-5.32-1.79-8.37,1.53-1.84,2-3.63,4.06-5.48,6.13,1.13.6,2.19,1.09,3.17,1.71.31.19.43.7.59,1.07a.84.84,0,0,1,0,.47c-.55,2.29-.39,4.32,2.39,5.4,1-.72,2.23-1.61,3.47-2.48a4.41,4.41,0,0,1,6.68,1.19c1.44,2.13,2.87,4.28,4.32,6.4a4.34,4.34,0,0,1-3.74,7c-3,0-5.94-.05-8.9,0-2.52,0-4.1,2.27-3.16,4.37A2.85,2.85,0,0,0,68,58.29c5.85,0,11.69,0,17.65,0V52.67l12.49,7.19L85.73,67V61.47h-10c1.2.79.66,1.74.35,2.57Q75,66.82,73.71,69.5a1.48,1.48,0,0,1-1.2.71,5.07,5.07,0,0,0-6.2,2.44.72.72,0,0,1-.24.25c-2.19,1.07-2.18,2.94-1.75,4.93a1.56,1.56,0,0,1-1.06,2.08c-2,.75-3.89,1.56-5.83,2.37a1.09,1.09,0,0,1-1.58-.46c-1.23-2.22-3-3.24-5.61-2.65a3.78,3.78,0,0,1-1.86,0c-1.29-.36-2,.28-2.69,1.21-1.87,2.41-1.92,2.42-4.75,1.32a40.68,40.68,0,0,1-4.33-2A1.38,1.38,0,0,1,36,78.47c.53-2.49.32-4.65-2.2-6A2.16,2.16,0,0,1,33,71.6c-.91-1.64-2.29-1.73-4-1.49-2.56.35-1.94.48-3-1.57a38,38,0,0,1-2-5.11,7.3,7.3,0,0,1,0-2H.81V58.31H31.53a3.11,3.11,0,0,0,3.1-1.86A2.65,2.65,0,0,0,34,53.13a5.23,5.23,0,0,0-2.83-1.07c-2.84-.13-5.69-.07-8.54,0a4.36,4.36,0,0,1-3.78-7c1.46-2.12,2.86-4.28,4.32-6.4a4.41,4.41,0,0,1,6.61-1.17l3.82,2.73c.83-.7,1.63-1.32,2.36-2a1.18,1.18,0,0,0,.25-.82c0-.55-.11-1.09-.15-1.63-.2-2.53-.2-2.53,2.07-3.62l1.38-.67c-1.14-1.29-2.2-2.53-3.3-3.72a55.38,55.38,0,0,0-4-4.13,5.13,5.13,0,0,0-2.6-1.15c-1.74-.25-2.17.25-2.33,2a6,6,0,0,1-3.62,5.2,5.87,5.87,0,0,1-6.39-.72,1.52,1.52,0,0,0-1.94-.17C10.8,31,6.18,33.28,1.52,35.58L0,33v-.23c4.81-2.37,9.63-4.73,14.42-7.13a1.37,1.37,0,0,0,.47-1.1,5.71,5.71,0,0,1,2-5.13,20.38,20.38,0,0,1,3.52-1.87h1.41a8.29,8.29,0,0,1,4,2.17c.13.15.59.12.84,0,3.39-1.23,6.22-.27,8.59,2.24s4.56,5,6.85,7.52c.25.28.67.74.86.68,1.1-.36,1.53.44,1.93,1.09C46,33.12,47.44,34,49.6,33.38a1.14,1.14,0,0,1,.58,0c2.66.72,4.41-.47,5.73-2.66a2.06,2.06,0,0,1,.78-.6c.43-.24,1-.33,1.31-.66C60.31,27,62.52,24.4,64.87,22,67,19.7,69.63,18.58,72.8,19.6a21.13,21.13,0,0,1,2.8,1.15q12.21,6,24.4,12ZM36.89,58.93c-2.35,2.19-3,2.46-6.26,2.44-1.51,0-2.17,1.22-3.17,2-.09.07-.07.38,0,.55.35.9.7,1.82,1.13,2.68a1,1,0,0,0,.82.4,24,24,0,0,0,2.68-.22,1.61,1.61,0,0,1,1.65.74c1.05,1.34,2.05,2.93,3.46,3.74,2.38,1.37,2.5,3.2,2.06,5.44-.06.28,0,.79.09.86a14.08,14.08,0,0,0,3.21,1.31c.36.08.94-.77,1.38-1.23a10.29,10.29,0,0,0,1.12-1.35c.36-.53.76-.54,1.38-.52,2.48.09,5,0,7.44.06a2.2,2.2,0,0,1,1.36.47c.71.67,1.26,1.49,1.91,2.22.18.2.56.45.74.38a10.06,10.06,0,0,0,3-1.4c.37-.31,0-1.45,0-2.21a6.77,6.77,0,0,0-.1-1.28c-.15-.69.23-1,.7-1.43A33.93,33.93,0,0,0,66,68.15a3.11,3.11,0,0,1,3.32-1.33c2.67.33,2,.59,3.08-1.81a3.57,3.57,0,0,0,.41-1.66c-.06-.6-2.39-2-3.11-2-2.44.17-4.66-.29-6.34-2.32-2,6.32-6,10.26-12.73,10.46C43.33,69.75,39,65.68,36.89,58.93Zm13.29-12.8a10.18,10.18,0,1,0,0,20.35,10.18,10.18,0,1,0,0-20.35ZM37.27,52.26c2.4-5.75,6.45-9.16,12.65-9.26s10.5,3.19,13,9c2.41-3.95,6.35-2.87,10-3.12-.24-.65-.45-1.15-.6-1.66-.35-1.22-.92-2-2.39-1.57a5,5,0,0,1-1.85.17,2.3,2.3,0,0,1-1.33-.6c-1.16-1.2-2-2.78-3.39-3.67-2.17-1.44-3-3.11-2.3-5.61.09-.28,0-.85-.18-.94a11.05,11.05,0,0,0-3.12-1.24c-.43-.06-1,.9-1.53,1.41a8.25,8.25,0,0,0-1,1.17c-.35.55-.77.56-1.38.49a17.19,17.19,0,0,0-5-.23c-2.59.52-4.39-.09-5.64-2.41-.13-.23-.54-.54-.7-.48A12,12,0,0,0,39.47,35c-.33.23-.13,1.27-.11,1.94a14.65,14.65,0,0,1,.11,1.74,2,2,0,0,1-.57,1.2c-1.19,1.12-2.74,2-3.6,3.29-1.49,2.29-3.27,3.17-5.88,2.42a.92.92,0,0,0-.82.35c-.46.93-.82,1.9-1.27,3C31.09,49,35,48.21,37.27,52.26ZM21.13,20.77A3.17,3.17,0,0,0,18,24a3.2,3.2,0,0,0,3.13,3.13,3.25,3.25,0,0,0,3.18-3.21A3.19,3.19,0,0,0,21.13,20.77Zm2.7,28.37c1-2.2,1.84-4.06,2.66-6A1.23,1.23,0,0,1,28,42.34c1.08.17,2.17.19,3.26.28a22.4,22.4,0,0,0-3-2.4c-1.36-1-1.81-.88-2.73.47-1.15,1.71-2.34,3.4-3.44,5.14-.46.74-1.62,1.52-.8,2.41C21.9,48.84,23.07,48.89,23.83,49.14Zm44.9-6.76.09.27c1.23-.1,2.46-.26,3.7-.27a1.49,1.49,0,0,1,1.15.61c1,1.9,1.79,3.86,2.73,5.94a9.81,9.81,0,0,0,1.32,0,1.17,1.17,0,0,0,1-1.92c-1.48-2.28-3-4.54-4.54-6.79a1.19,1.19,0,0,0-1.82-.38C71.12,40.66,69.93,41.53,68.73,42.38Z"/></svg>