<svg id="Layer_1" data-name="Layer 1" xmlns="http://www.w3.org/2000/svg" viewBox="0 0 1238 404"><defs><style>.cls-4,.cls-6{fill:none;stroke-miterlimit:10;stroke-width:3px}.cls-3{fill:#fcddd6}.cls-4{stroke:#fbc2ba}.cls-5{fill:#4c0519}.cls-6{stroke:#4c0519}</style></defs><path fill="#fbc2ba" d="M415.13 0v404H823.1V.09L415.13 0z"/><path stroke="#f16c51" fill="none" stroke-miterlimit="10" stroke-width="3" d="M434.23 170.99L804 172.13"/><path class="cls-3" d="M830.26.11v403.8h407.97V0L830.26.11z"/><path class="cls-4" d="M849.36 170.99l369.77-.06"/><path class="cls-3" d="M0 0v404h407.97V.09L0 0z"/><path class="cls-4" d="M19.1 170.99l369.77-.06"/><path class="cls-5" d="M117.07 95.67a11.55 11.55 0 0 0 5.52 1.46c2.67 0 4.16-1.26 4.16-3.12s-1.15-2.74-4.06-3.79c-3.75-1.35-6.16-3.35-6.16-6.63 0-3.72 3.12-6.57 8.06-6.57a12 12 0 0 1 5.48 1.15l-1 3.35a9.72 9.72 0 0 0-4.54-1.08c-2.64 0-3.79 1.42-3.79 2.74 0 1.76 1.32 2.57 4.37 3.76 4 1.49 5.88 3.48 5.88 6.77 0 3.65-2.77 6.83-8.66 6.83a13.49 13.49 0 0 1-6.16-1.42zM149.33 95.26c0 2 .07 3.59.14 4.95h-3.66l-.2-2.51h-.07a6 6 0 0 1-5.28 2.88c-3 0-5.75-1.8-5.75-7.18v-9.68h4.16v9c0 2.74.88 4.5 3.08 4.5a3.5 3.5 0 0 0 3.18-2.22 3.66 3.66 0 0 0 .24-1.29v-10h4.16zM153.84 89.21c0-2.17-.07-3.93-.14-5.49h3.66l.2 2.54h.07a6.41 6.41 0 0 1 5.65-2.91c3.79 0 6.94 3.25 6.94 8.39 0 6-3.76 8.84-7.52 8.84a5.4 5.4 0 0 1-4.63-2.2H158v8.53h-4.16zM158 93.3a4.32 4.32 0 0 0 .13 1.15 3.77 3.77 0 0 0 3.66 2.91c2.64 0 4.2-2.2 4.2-5.45 0-2.91-1.42-5.28-4.1-5.28a3.88 3.88 0 0 0-3.72 3.08 3.84 3.84 0 0 0-.17 1.05zM173.64 89.21c0-2.17-.07-3.93-.14-5.49h3.66l.2 2.54h.07a6.43 6.43 0 0 1 5.65-2.91c3.79 0 6.94 3.25 6.94 8.39 0 6-3.76 8.84-7.51 8.84a5.42 5.42 0 0 1-4.64-2.2h-.07v8.53h-4.16zm4.16 4.09a4.32 4.32 0 0 0 .14 1.15 3.76 3.76 0 0 0 3.65 2.91c2.64 0 4.2-2.2 4.2-5.45 0-2.91-1.42-5.28-4.1-5.28a3.89 3.89 0 0 0-3.69 3.08 3.84 3.84 0 0 0-.17 1.05zM193.44 76.18h4.2v24h-4.2zM204.75 83.72l3 8.84c.33 1 .67 2.26.91 3.21h.1c.27-1 .58-2.16.88-3.25l2.57-8.8h4.47L212.53 95c-2.27 6.16-3.79 8.9-5.75 10.59a8.31 8.31 0 0 1-4.37 2.13l-.95-3.51a7.57 7.57 0 0 0 4.71-3.76 1.67 1.67 0 0 0 .27-.75 1.7 1.7 0 0 0-.24-.81l-6-15.13zM238.19 99.7a12.2 12.2 0 0 1-4.67.84c-5.14 0-8.5-3.28-8.5-8.39 0-4.94 3.39-8.8 9.18-8.8a10.33 10.33 0 0 1 4 .78l-.74 3.11a7.43 7.43 0 0 0-3.15-.64c-3.18 0-5.08 2.33-5 5.35 0 3.38 2.2 5.31 5 5.31a8.08 8.08 0 0 0 3.28-.64zM241.27 76.18h4.2V86h.07a5.46 5.46 0 0 1 2.06-1.89 5.57 5.57 0 0 1 2.84-.75c2.81 0 5.76 1.86 5.76 7.14v9.72H252V91c0-2.41-.88-4.2-3.19-4.2a3.39 3.39 0 0 0-3.21 2.33 3.43 3.43 0 0 0-.17 1.26v9.85h-4.2zM269.91 100.21l-.27-1.83h-.1a6.16 6.16 0 0 1-4.88 2.2 4.9 4.9 0 0 1-5.18-4.91c0-4.16 3.69-6.26 9.79-6.23v-.27c0-1.08-.44-2.88-3.35-2.88a8.75 8.75 0 0 0-4.44 1.22l-.81-2.7a11.81 11.81 0 0 1 6-1.46c5.28 0 6.8 3.35 6.8 6.94v6a26.41 26.41 0 0 0 .24 4zm-.54-8.06c-2.95-.07-5.76.58-5.76 3.08A2.19 2.19 0 0 0 266 97.6a3.36 3.36 0 0 0 3.25-2.27 3 3 0 0 0 .14-.91zM282.26 79.12a2.34 2.34 0 0 1-4.67 0 2.34 2.34 0 0 1 4.67 0zm-4.43 21.09V83.72H282v16.49zM286.5 88.63c0-1.89 0-3.49-.14-4.91H290l.2 2.47h.1a6 6 0 0 1 5.25-2.84c2.87 0 5.85 1.86 5.85 7.07v9.79h-4.16V90.9c0-2.37-.88-4.16-3.15-4.16a3.49 3.49 0 0 0-3.25 2.43 4.41 4.41 0 0 0-.17 1.36v9.68h-4.17zM557.34 60.47v9.14H567v-9.14h4.17v22.81H567v-10h-9.64v10h-4.16V60.47zM590.51 78.34c0 2 .07 3.59.14 4.94H587l-.2-2.5h-.07a6 6 0 0 1-5.28 2.87c-3 0-5.75-1.79-5.75-7.17V66.8h4.16v9c0 2.74.88 4.5 3.08 4.5a3.51 3.51 0 0 0 3.17-2.3 3.65 3.65 0 0 0 .24-1.28v-10h4.16zM595 71.71c0-1.9 0-3.49-.14-4.91h3.59l.17 2.44h.1a5.69 5.69 0 0 1 5.08-2.81 4.74 4.74 0 0 1 4.56 3h.07a6.25 6.25 0 0 1 2-2.06 5.49 5.49 0 0 1 3.32-1c2.74 0 5.52 1.86 5.52 7.14v9.71h-4.07v-9.1c0-2.75-.94-4.37-2.94-4.37A3.18 3.18 0 0 0 609.4 72a6 6 0 0 0-.2 1.39v9.88h-4.07v-9.53c0-2.31-.91-3.93-2.84-3.93a3.27 3.27 0 0 0-3 2.37 3.55 3.55 0 0 0-.23 1.35v9.75H595zM633 83.28l-.27-1.83h-.1a6.1 6.1 0 0 1-4.87 2.2 4.89 4.89 0 0 1-5.18-4.9c0-4.17 3.69-6.27 9.78-6.23v-.27c0-1.09-.44-2.88-3.35-2.88a8.72 8.72 0 0 0-4.43 1.22l-.82-2.71a12 12 0 0 1 6-1.45c5.28 0 6.8 3.35 6.8 6.93v6a26.32 26.32 0 0 0 .24 4zm-.54-8c-2.94-.07-5.75.57-5.75 3.08a2.18 2.18 0 0 0 2.37 2.36 3.37 3.37 0 0 0 3.25-2.26 3.09 3.09 0 0 0 .13-.92zM640.92 71.71c0-1.9 0-3.49-.14-4.91h3.66l.2 2.47h.1a5.94 5.94 0 0 1 5.26-2.84c2.87 0 5.85 1.86 5.85 7.07v9.78h-4.16V74c0-2.37-.88-4.16-3.15-4.16a3.5 3.5 0 0 0-3.25 2.44 4.38 4.38 0 0 0-.17 1.35v9.68h-4.19zM553 106c0-2.23 0-3.82-.14-5.31h3.62l.14 3.15h.13a4.91 4.91 0 0 1 4.5-3.52 4.31 4.31 0 0 1 1 .1v3.92a6.41 6.41 0 0 0-1.22-.13 3.68 3.68 0 0 0-3.73 3.15 7.9 7.9 0 0 0-.13 1.28v8.53H553zM567.7 110.06c.1 3 2.43 4.26 5.07 4.26a12.47 12.47 0 0 0 4.57-.74l.61 2.88a15.61 15.61 0 0 1-5.75 1c-5.35 0-8.5-3.28-8.5-8.33 0-4.56 2.78-8.86 8.06-8.86s7.11 4.4 7.11 8a9.88 9.88 0 0 1-.14 1.76zm7.24-2.91c0-1.52-.64-4-3.42-4-2.57 0-3.65 2.34-3.82 4zM582 113.31a9.32 9.32 0 0 0 4.23 1.18c1.83 0 2.64-.74 2.64-1.83s-.68-1.69-2.71-2.4c-3.22-1.12-4.57-2.88-4.54-4.8 0-2.92 2.41-5.18 6.23-5.18a9.67 9.67 0 0 1 4.37 1l-.81 2.94a7.52 7.52 0 0 0-3.49-.94c-1.49 0-2.3.71-2.3 1.72s.78 1.56 2.88 2.3c3 1.09 4.36 2.61 4.4 5 0 3-2.34 5.14-6.71 5.14a10.55 10.55 0 0 1-5-1.15zM612 108.74c0 6.06-4.27 8.76-8.47 8.76-4.67 0-8.25-3.21-8.25-8.49s3.55-8.73 8.53-8.73 8.19 3.45 8.19 8.46zm-12.43.17c0 3.18 1.56 5.58 4.1 5.58 2.37 0 4-2.33 4-5.65 0-2.57-1.15-5.52-4-5.52s-4.09 2.85-4.09 5.59zM630.18 112.19c0 2 .07 3.59.14 4.94h-3.66l-.2-2.5h-.07a6 6 0 0 1-5.28 2.87c-3 0-5.75-1.79-5.75-7.17v-9.68h4.16v9c0 2.74.88 4.5 3.08 4.5a3.5 3.5 0 0 0 3.18-2.23 3.75 3.75 0 0 0 .24-1.29v-9.95h4.16zM634.69 106c0-2.23 0-3.82-.14-5.31h3.62l.14 3.15h.14a4.91 4.91 0 0 1 4.5-3.52 4.28 4.28 0 0 1 1 .1v3.92a6.41 6.41 0 0 0-1.22-.13 3.67 3.67 0 0 0-3.72 3.15 6.86 6.86 0 0 0-.14 1.28v8.53h-4.16zM658.55 116.62a11.94 11.94 0 0 1-4.67.85c-5.14 0-8.49-3.28-8.49-8.39 0-4.94 3.38-8.8 9.17-8.8a10.33 10.33 0 0 1 4 .78l-.74 3.11a7.43 7.43 0 0 0-3.15-.64c-3.18 0-5.07 2.33-5 5.34 0 3.39 2.2 5.32 5 5.32a8.15 8.15 0 0 0 3.29-.65zM664.27 110.06c.11 3 2.44 4.26 5.08 4.26a12.47 12.47 0 0 0 4.57-.74l.61 2.88a15.65 15.65 0 0 1-5.75 1c-5.35 0-8.5-3.28-8.5-8.33 0-4.56 2.78-8.86 8.06-8.86s7.1 4.4 7.1 8a10.09 10.09 0 0 1-.13 1.76zm7.25-2.91c0-1.52-.65-4-3.42-4-2.57 0-3.66 2.34-3.83 4zM678.59 113.31a9.36 9.36 0 0 0 4.23 1.18c1.83 0 2.64-.74 2.64-1.83s-.67-1.69-2.7-2.4c-3.22-1.12-4.57-2.88-4.54-4.8 0-2.92 2.4-5.18 6.23-5.18a9.59 9.59 0 0 1 4.36 1l-.81 2.92a7.47 7.47 0 0 0-3.48-.94c-1.49 0-2.31.71-2.31 1.72s.78 1.56 2.88 2.3c3 1.09 4.37 2.61 4.4 5 0 3-2.33 5.14-6.7 5.14a10.6 10.6 0 0 1-5-1.15zM974.18 77.39h13.16v3.42h-9v6.3h8.39v3.42h-8.39v9.68h-4.16zM994.93 79.12a2.21 2.21 0 0 1-2.37 2.23 2.18 2.18 0 0 1-2.3-2.23 2.34 2.34 0 0 1 4.67 0zm-4.44 21.09V83.72h4.2v16.49zM999.16 88.63c0-1.89 0-3.49-.14-4.91h3.66l.2 2.47h.1a6 6 0 0 1 5.25-2.84c2.88 0 5.85 1.86 5.85 7.07v9.79h-4.16V90.9c0-2.37-.88-4.16-3.15-4.16a3.5 3.5 0 0 0-3.25 2.43 4.42 4.42 0 0 0-.16 1.36v9.68h-4.2zM1027.79 100.21l-.27-1.83h-.1a6.13 6.13 0 0 1-4.87 2.2 4.9 4.9 0 0 1-5.18-4.91c0-4.16 3.69-6.26 9.78-6.23v-.27c0-1.08-.44-2.88-3.35-2.88a8.72 8.72 0 0 0-4.43 1.22l-.82-2.7a11.84 11.84 0 0 1 6-1.46c5.28 0 6.8 3.35 6.8 6.94v6a26.41 26.41 0 0 0 .24 4zm-.54-8.06c-2.94-.07-5.75.58-5.75 3.08a2.19 2.19 0 0 0 2.37 2.37 3.36 3.36 0 0 0 3.25-2.27 3 3 0 0 0 .13-.91zM1035.72 88.63c0-1.89 0-3.49-.14-4.91h3.66l.2 2.47h.1a6 6 0 0 1 5.25-2.84c2.87 0 5.85 1.86 5.85 7.07v9.79h-4.16V90.9c0-2.37-.88-4.16-3.15-4.16a3.49 3.49 0 0 0-3.25 2.43 4.41 4.41 0 0 0-.17 1.36v9.68h-4.19zM1067.2 99.7a12.2 12.2 0 0 1-4.67.84c-5.15 0-8.5-3.28-8.5-8.39 0-4.94 3.39-8.8 9.17-8.8a10.38 10.38 0 0 1 4 .78l-.74 3.11a7.43 7.43 0 0 0-3.15-.64c-3.18 0-5.08 2.33-5 5.35 0 3.38 2.21 5.31 5 5.31a8.12 8.12 0 0 0 3.28-.64zM1074.71 79.12a2.34 2.34 0 0 1-4.67 0 2.34 2.34 0 0 1 4.67 0zm-4.43 21.09V83.72h4.2v16.49zM1088.22 100.21l-.27-1.83h-.1a6.16 6.16 0 0 1-4.88 2.2 4.9 4.9 0 0 1-5.18-4.91c0-4.16 3.69-6.26 9.78-6.23v-.27c0-1.08-.44-2.88-3.35-2.88a8.75 8.75 0 0 0-4.43 1.22l-.81-2.7a11.8 11.8 0 0 1 6-1.46c5.28 0 6.81 3.35 6.81 6.94v6a26.55 26.55 0 0 0 .23 4zm-.54-8.06c-3-.07-5.76.58-5.76 3.08a2.19 2.19 0 0 0 2.37 2.37 3.36 3.36 0 0 0 3.25-2.27 3 3 0 0 0 .14-.91zM1096.14 76.18h4.2v24h-4.2zM91.33 215.09c0 5.89-3.58 9-8 9s-7.69-3.51-7.69-8.69c0-5.43 3.37-9 7.94-9s7.75 3.6 7.75 8.69zm-13.28.28c0 3.66 2 6.93 5.46 6.93s5.49-3.22 5.49-7.1c0-3.41-1.78-7-5.46-7s-5.49 3.42-5.49 7.17zM94.12 215.55c0-1.57-.05-2.84-.1-4h2l.11 2.11h.05a4.82 4.82 0 0 1 4.36-2.39c3 0 5.21 2.51 5.21 6.25 0 4.41-2.69 6.6-5.59 6.6a4.31 4.31 0 0 1-3.78-1.93v6.68h-2.26zm2.21 3.28a5.07 5.07 0 0 0 .1.91 3.45 3.45 0 0 0 3.35 2.62c2.36 0 3.73-1.93 3.73-4.75 0-2.47-1.29-4.57-3.65-4.57a3.56 3.56 0 0 0-3.38 2.76 3.47 3.47 0 0 0-.15.92zM109.81 218.09c0 3 2 4.27 4.21 4.27a8 8 0 0 0 3.41-.64l.38 1.6a9.93 9.93 0 0 1-4.09.76c-3.78 0-6-2.49-6-6.19s2.18-6.63 5.76-6.63c4 0 5.08 3.53 5.08 5.79a7.43 7.43 0 0 1-.08 1zm6.55-1.6c0-1.42-.58-3.63-3.1-3.63-2.26 0-3.25 2.08-3.43 3.63zM121.29 215.37c0-1.44 0-2.69-.11-3.83h2l.07 2.41h.11a3.68 3.68 0 0 1 3.4-2.69 2.41 2.41 0 0 1 .63.08v2.1a3.33 3.33 0 0 0-.76-.07 3.13 3.13 0 0 0-3 2.87 5.35 5.35 0 0 0-.11 1v6.55h-2.2zM136.26 223.83l-.17-1.55H136a4.61 4.61 0 0 1-3.76 1.83 3.5 3.5 0 0 1-3.76-3.53c0-3 2.64-4.6 7.39-4.57v-.26a2.53 2.53 0 0 0-2.79-2.84 6.2 6.2 0 0 0-3.2.91l-.51-1.47a7.65 7.65 0 0 1 4-1.09c3.76 0 4.67 2.56 4.67 5v4.59a17.62 17.62 0 0 0 .2 3zm-.33-6.27c-2.43-.05-5.2.38-5.2 2.76a2 2 0 0 0 2.11 2.14 3.06 3.06 0 0 0 3-2.06 2.52 2.52 0 0 0 .12-.71zM144.29 208v3.53h3.2v1.7h-3.2v6.63c0 1.52.43 2.38 1.67 2.38a4.84 4.84 0 0 0 1.3-.15l.1 1.68a5.44 5.44 0 0 1-2 .3 3.09 3.09 0 0 1-2.41-.94 4.52 4.52 0 0 1-.87-3.2v-6.7h-1.9v-1.7h1.9v-2.95zM152.49 208.09a1.39 1.39 0 0 1-2.77 0 1.36 1.36 0 0 1 1.4-1.4 1.33 1.33 0 0 1 1.37 1.4zM150 223.83v-12.29h2.23v12.29zM167.06 217.58c0 4.55-3.15 6.53-6.12 6.53-3.32 0-5.89-2.44-5.89-6.32 0-4.12 2.69-6.53 6.09-6.53s5.92 2.56 5.92 6.32zm-9.75.13c0 2.69 1.55 4.72 3.73 4.72s3.74-2 3.74-4.77c0-2.08-1.05-4.72-3.69-4.72s-3.78 2.43-3.78 4.77zM169.88 214.87c0-1.27 0-2.32-.1-3.33h2l.12 2h.05a4.52 4.52 0 0 1 4.07-2.31c1.7 0 4.34 1 4.34 5.23v7.34h-2.26v-7.09c0-2-.73-3.63-2.84-3.63a3.18 3.18 0 0 0-3 2.29 3.26 3.26 0 0 0-.15 1v7.39h-2.23zM183.66 221.54a5.88 5.88 0 0 0 3 .89c1.62 0 2.39-.81 2.39-1.83s-.64-1.65-2.29-2.26c-2.21-.78-3.25-2-3.25-3.47 0-2 1.6-3.61 4.24-3.61a6.16 6.16 0 0 1 3 .76l-.56 1.63a4.72 4.72 0 0 0-2.51-.71c-1.32 0-2.06.76-2.06 1.67s.74 1.47 2.34 2.08c2.13.82 3.22 1.88 3.22 3.71 0 2.16-1.67 3.68-4.59 3.68a7 7 0 0 1-3.45-.84zM88.66 278.66a11.08 11.08 0 0 1-4.52.81c-4.82 0-8.45-3.05-8.45-8.66 0-5.35 3.63-9 8.94-9a9.08 9.08 0 0 1 4.06.77l-.54 1.8a8 8 0 0 0-3.45-.71c-4 0-6.68 2.56-6.68 7.06 0 4.19 2.42 6.88 6.58 6.88a8.88 8.88 0 0 0 3.61-.71zM98 279.22l-.18-1.55h-.08A4.57 4.57 0 0 1 94 279.5a3.51 3.51 0 0 1-3.79-3.5c0-3 2.64-4.6 7.39-4.57v-.26a2.54 2.54 0 0 0-2.8-2.84 6.07 6.07 0 0 0-3.19.91l-.51-1.47a7.61 7.61 0 0 1 4-1.09c3.76 0 4.68 2.56 4.68 5v4.59a17.62 17.62 0 0 0 .2 3zm-.35-6.22c-2.44-.06-5.21.38-5.21 2.76a2 2 0 0 0 2.11 2.14 3.05 3.05 0 0 0 3-2.06 2.22 2.22 0 0 0 .13-.71zM103.41 270.94c0-1.57 0-2.84-.1-4h2l.1 2.11a4.83 4.83 0 0 1 4.37-2.39c3 0 5.2 2.51 5.2 6.24 0 4.42-2.69 6.61-5.58 6.61a4.32 4.32 0 0 1-3.79-1.93v6.67h-2.21zm2.21 3.27a5.18 5.18 0 0 0 .1.92 3.44 3.44 0 0 0 3.35 2.61c2.37 0 3.74-1.93 3.74-4.74 0-2.47-1.3-4.57-3.66-4.57a3.58 3.58 0 0 0-3.38 2.76 3.93 3.93 0 0 0-.15.92zM124.66 279.22l-.18-1.55h-.07a4.61 4.61 0 0 1-3.76 1.83 3.51 3.51 0 0 1-3.76-3.53c0-3 2.64-4.6 7.39-4.57v-.26a2.53 2.53 0 0 0-2.79-2.84 6.11 6.11 0 0 0-3.2.91l-.51-1.47a7.65 7.65 0 0 1 4-1.09c3.76 0 4.67 2.56 4.67 5v4.59a17.62 17.62 0 0 0 .2 3zm-.33-6.27c-2.44-.06-5.2.38-5.2 2.76a2 2 0 0 0 2.1 2.14 3.08 3.08 0 0 0 3-2.06 2.52 2.52 0 0 0 .12-.71zM138.85 278.76a8.3 8.3 0 0 1-3.53.71c-3.7 0-6.11-2.51-6.11-6.27a6.24 6.24 0 0 1 6.6-6.53 7.34 7.34 0 0 1 3.09.64l-.5 1.73a5.13 5.13 0 0 0-2.59-.59c-2.82 0-4.35 2.08-4.35 4.65 0 2.84 1.83 4.59 4.27 4.59a6.31 6.31 0 0 0 2.74-.61zM144 263.47a1.39 1.39 0 0 1-2.77 0 1.36 1.36 0 0 1 1.4-1.39 1.33 1.33 0 0 1 1.37 1.39zm-2.49 15.75v-12.29h2.23v12.29zM150.1 263.4v3.53h3.2v1.7h-3.2v6.63c0 1.52.43 2.38 1.68 2.38a4.81 4.81 0 0 0 1.29-.15l.1 1.68a5.67 5.67 0 0 1-2 .3 3.09 3.09 0 0 1-2.41-.94 4.53 4.53 0 0 1-.86-3.2v-6.7H146v-1.7h1.91V264zM156.85 266.93l2.69 7.26c.28.81.59 1.78.79 2.51.23-.73.49-1.67.79-2.56l2.44-7.21H166l-3.35 8.76c-1.6 4.21-2.69 6.37-4.22 7.69a6 6 0 0 1-2.74 1.45l-.59-1.83a5.92 5.92 0 0 0 2-1.09 6.8 6.8 0 0 0 1.88-2.49 1.63 1.63 0 0 0 .17-.53 2 2 0 0 0-.15-.59l-4.54-11.32zM183.66 275.87c0 1.26 0 2.38.11 3.35h-2l-.13-2a4.64 4.64 0 0 1-4.07 2.29c-1.92 0-4.24-1.07-4.24-5.39v-7.18h2.24v6.8c0 2.34.71 3.91 2.74 3.91a3.24 3.24 0 0 0 2.95-2 3.4 3.4 0 0 0 .2-1.14v-7.54h2.23zM190.06 263.4v3.53h3.2v1.7h-3.2v6.63c0 1.52.43 2.38 1.68 2.38a4.81 4.81 0 0 0 1.29-.15l.1 1.68a5.62 5.62 0 0 1-2 .3 3.09 3.09 0 0 1-2.41-.94 4.57 4.57 0 0 1-.86-3.2v-6.7H186v-1.7h1.91V264zM198.26 263.47a1.32 1.32 0 0 1-1.42 1.38 1.33 1.33 0 0 1-1.35-1.38 1.36 1.36 0 0 1 1.4-1.39 1.32 1.32 0 0 1 1.37 1.39zm-2.49 15.75v-12.29H198v12.29zM201.71 261.19H204v18h-2.24zM210.19 263.47a1.38 1.38 0 1 1-2.76 0 1.36 1.36 0 0 1 1.39-1.39 1.32 1.32 0 0 1 1.37 1.39zm-2.48 15.75v-12.29h2.23v12.29zM212.25 277.92l5.56-7.23c.53-.66 1-1.25 1.6-1.91h-6.65v-1.8h9.37v1.39l-5.48 7.14c-.51.68-1 1.29-1.58 1.93v.05h7.19v1.78h-10zM231.32 279.22l-.18-1.55h-.08a4.58 4.58 0 0 1-3.76 1.83 3.5 3.5 0 0 1-3.75-3.53c0-3 2.64-4.6 7.39-4.57v-.26a2.54 2.54 0 0 0-2.8-2.84 6.13 6.13 0 0 0-3.2.91l-.5-1.47a7.58 7.58 0 0 1 4-1.09c3.76 0 4.67 2.56 4.67 5v4.59a17.55 17.55 0 0 0 .21 3zM231 273c-2.44-.06-5.21.38-5.21 2.76a2 2 0 0 0 2.11 2.14 3.06 3.06 0 0 0 3-2.06 2.22 2.22 0 0 0 .13-.71zM239.34 263.4v3.53h3.2v1.7h-3.2v6.63c0 1.52.43 2.38 1.67 2.38a4.84 4.84 0 0 0 1.3-.15l.1 1.68a5.67 5.67 0 0 1-2 .3 3.09 3.09 0 0 1-2.41-.94 4.52 4.52 0 0 1-.87-3.2v-6.7h-1.9v-1.7h1.9V264zM247.54 263.47a1.39 1.39 0 0 1-2.77 0 1.36 1.36 0 0 1 1.4-1.39 1.32 1.32 0 0 1 1.37 1.39zm-2.49 15.75v-12.29h2.24v12.29zM262.11 273c0 4.55-3.15 6.53-6.12 6.53-3.32 0-5.89-2.44-5.89-6.33 0-4.11 2.69-6.52 6.1-6.52s5.91 2.53 5.91 6.32zm-9.75.13c0 2.69 1.55 4.72 3.73 4.72s3.74-2 3.74-4.77c0-2.09-1-4.73-3.69-4.73s-3.78 2.41-3.78 4.75zM264.93 270.25c0-1.27 0-2.31-.1-3.32h2l.13 2h.04a4.51 4.51 0 0 1 4.06-2.31c1.7 0 4.34 1 4.34 5.23v7.34h-2.23v-7.09c0-2-.74-3.63-2.85-3.63a3.17 3.17 0 0 0-3 2.29 3 3 0 0 0-.16 1v7.39h-2.23zM76.7 317.7a25.46 25.46 0 0 1 4.24-.33 7 7 0 0 1 4.8 1.42 4.59 4.59 0 0 1 1.5 3.58 5 5 0 0 1-1.32 3.63 7.07 7.07 0 0 1-5.23 1.88 7.48 7.48 0 0 1-1.78-.15v6.86H76.7zm2.21 8.3a7.73 7.73 0 0 0 1.83.18c2.67 0 4.29-1.3 4.29-3.66s-1.6-3.35-4-3.35a9.5 9.5 0 0 0-2.08.17zM89.73 326.15c0-1.45 0-2.69-.1-3.83h2l.08 2.41h.1a3.68 3.68 0 0 1 3.4-2.69 2.51 2.51 0 0 1 .64.07v2.11a3.41 3.41 0 0 0-.76-.08A3.14 3.14 0 0 0 92 327a6.44 6.44 0 0 0-.1 1v6.56h-2.17zM108.9 328.36c0 4.54-3.15 6.52-6.12 6.52-3.33 0-5.89-2.43-5.89-6.32 0-4.11 2.69-6.52 6.09-6.52s5.92 2.56 5.92 6.32zm-9.75.13c0 2.69 1.55 4.72 3.73 4.72s3.73-2 3.73-4.77c0-2.09-1-4.73-3.68-4.73s-3.78 2.44-3.78 4.78zM122.33 316.58v14.85c0 1.09 0 2.34.1 3.18h-2l-.1-2.14a4.54 4.54 0 0 1-4.19 2.41c-3 0-5.25-2.51-5.25-6.24 0-4.09 2.51-6.6 5.51-6.6a4.11 4.11 0 0 1 3.7 1.88v-7.34zm-2.24 10.74a3.76 3.76 0 0 0-.1-.94 3.29 3.29 0 0 0-3.22-2.59c-2.31 0-3.68 2-3.68 4.75 0 2.49 1.21 4.54 3.63 4.54a3.35 3.35 0 0 0 3.27-2.66 3.75 3.75 0 0 0 .1-1zM136.32 331.25c0 1.27 0 2.39.1 3.36h-2l-.13-2h-.05a4.62 4.62 0 0 1-4.06 2.28c-1.93 0-4.24-1.06-4.24-5.38v-7.18h2.23v6.8c0 2.34.71 3.91 2.74 3.91a3.13 3.13 0 0 0 3.15-3.17v-7.54h2.24zM148.78 334.15a8.3 8.3 0 0 1-3.53.71c-3.7 0-6.12-2.51-6.12-6.27a6.25 6.25 0 0 1 6.61-6.53 7.34 7.34 0 0 1 3.09.64l-.5 1.72a5.26 5.26 0 0 0-2.59-.58c-2.82 0-4.35 2.08-4.35 4.65 0 2.84 1.83 4.59 4.27 4.59a6.31 6.31 0 0 0 2.74-.61zM154.42 318.79v3.53h3.2V324h-3.2v6.62c0 1.53.43 2.39 1.67 2.39a4.84 4.84 0 0 0 1.3-.15l.1 1.67a5.41 5.41 0 0 1-2 .31 3.09 3.09 0 0 1-2.41-.94 4.52 4.52 0 0 1-.87-3.2V324h-1.9v-1.7h1.9v-2.95zM176.13 316.58v14.85c0 1.09 0 2.34.1 3.18h-2l-.1-2.14h-.05a4.56 4.56 0 0 1-4.19 2.41c-3 0-5.26-2.51-5.26-6.24 0-4.09 2.52-6.6 5.51-6.6a4.12 4.12 0 0 1 3.71 1.88v-7.34zm-2.24 10.74a3.76 3.76 0 0 0-.1-.94 3.29 3.29 0 0 0-3.23-2.59c-2.31 0-3.68 2-3.68 4.75 0 2.49 1.22 4.54 3.63 4.54a3.37 3.37 0 0 0 3.28-2.66 3.75 3.75 0 0 0 .1-1zM186.64 334.61l-.18-1.55h-.08a4.56 4.56 0 0 1-3.75 1.82 3.5 3.5 0 0 1-3.76-3.52c0-3 2.64-4.6 7.39-4.57v-.26a2.54 2.54 0 0 0-2.8-2.84 6.13 6.13 0 0 0-3.2.91l-.5-1.47a7.58 7.58 0 0 1 4-1.09c3.76 0 4.67 2.56 4.67 5v4.6a17.55 17.55 0 0 0 .21 2.95zm-.33-6.28c-2.44-.05-5.21.38-5.21 2.77a2 2 0 0 0 2.11 2.13 3.06 3.06 0 0 0 3-2.05 2.22 2.22 0 0 0 .13-.71zM192.07 325.64c0-1.27 0-2.31-.1-3.32h1.95l.1 2h.08A4.24 4.24 0 0 1 198 322a3.64 3.64 0 0 1 3.48 2.46h.05a5 5 0 0 1 1.37-1.6 4.2 4.2 0 0 1 2.72-.86c1.62 0 4 1.06 4 5.33v7.24h-2.18v-7c0-2.36-.86-3.78-2.67-3.78a2.88 2.88 0 0 0-2.64 2A3.7 3.7 0 0 0 202 327v7.6h-2.19v-7.37c0-1.95-.86-3.37-2.56-3.37a3 3 0 0 0-2.77 2.23 3 3 0 0 0-.18 1.09v7.42h-2.18zM220.05 334.61l-.18-1.55h-.08a4.56 4.56 0 0 1-3.75 1.82 3.5 3.5 0 0 1-3.76-3.52c0-3 2.64-4.6 7.39-4.57v-.26a2.54 2.54 0 0 0-2.8-2.84 6.13 6.13 0 0 0-3.2.91l-.5-1.47a7.58 7.58 0 0 1 4-1.09c3.76 0 4.68 2.56 4.68 5v4.6a17.62 17.62 0 0 0 .2 2.95zm-.33-6.28c-2.44-.05-5.21.38-5.21 2.77a2 2 0 0 0 2.11 2.13 3.06 3.06 0 0 0 3-2.05 2.22 2.22 0 0 0 .13-.71zM236.07 322.32c0 .89-.1 1.88-.1 3.37v7.14c0 2.82-.56 4.54-1.76 5.61a6.49 6.49 0 0 1-4.46 1.47 7.92 7.92 0 0 1-4.09-1l.56-1.7a7 7 0 0 0 3.6 1c2.29 0 4-1.19 4-4.29v-1.42h-.05a4.37 4.37 0 0 1-3.91 2.05c-3 0-5.23-2.59-5.23-6 0-4.16 2.72-6.52 5.54-6.52a4.07 4.07 0 0 1 3.83 2.13l.1-1.85zm-2.31 4.85a3.28 3.28 0 0 0-.13-1 3.23 3.23 0 0 0-3.12-2.36c-2.13 0-3.66 1.8-3.66 4.65 0 2.41 1.22 4.41 3.63 4.41a3.27 3.27 0 0 0 3.1-2.28 3.78 3.78 0 0 0 .18-1.19zM240.92 328.87c.05 3 2 4.26 4.21 4.26a8.14 8.14 0 0 0 3.4-.63l.38 1.6a10 10 0 0 1-4.08.76c-3.79 0-6.05-2.49-6.05-6.2S241 322 244.55 322c4 0 5.08 3.53 5.08 5.79a9.62 9.62 0 0 1-.08 1zm6.55-1.6c0-1.42-.59-3.63-3.1-3.63-2.26 0-3.25 2.08-3.43 3.63zM255.89 335.62l7.11-18.41h1.73l-7.11 18.41zM271.86 316.58h2.24v18h-2.24zM289 328.36c0 4.54-3.14 6.52-6.11 6.52-3.33 0-5.9-2.43-5.9-6.32 0-4.11 2.7-6.52 6.1-6.52s5.91 2.56 5.91 6.32zm-9.75.13c0 2.69 1.55 4.72 3.74 4.72s3.73-2 3.73-4.77c0-2.09-1-4.73-3.68-4.73s-3.82 2.44-3.82 4.78zM291.49 332.32a5.87 5.87 0 0 0 2.94.89c1.63 0 2.39-.81 2.39-1.83s-.63-1.65-2.28-2.26c-2.21-.79-3.25-2-3.25-3.48 0-2 1.59-3.6 4.24-3.6a6.11 6.11 0 0 1 3 .76l-.56 1.62a4.82 4.82 0 0 0-2.52-.71c-1.32 0-2.05.76-2.05 1.68s.73 1.47 2.33 2.08c2.14.81 3.23 1.88 3.23 3.71 0 2.16-1.68 3.68-4.6 3.68a7 7 0 0 1-3.45-.84zM301.54 332.32a5.88 5.88 0 0 0 2.95.89c1.62 0 2.38-.81 2.38-1.83s-.63-1.65-2.28-2.26c-2.21-.79-3.25-2-3.25-3.48 0-2 1.6-3.6 4.24-3.6a6.11 6.11 0 0 1 3 .76l-.56 1.62a4.81 4.81 0 0 0-2.51-.71c-1.32 0-2.06.76-2.06 1.68s.74 1.47 2.34 2.08c2.13.81 3.22 1.88 3.22 3.71 0 2.16-1.67 3.68-4.59 3.68A7 7 0 0 1 301 334z"/><circle class="cls-6" cx="41.4" cy="217" r="4.5"/><circle class="cls-6" cx="41.4" cy="272" r="4.5"/><circle class="cls-6" cx="41.38" cy="326.74" r="4.48"/><path class="cls-5" d="M492.91 206.71v7.17h8.28v-7.17h2.23v17.12h-2.23v-8h-8.28v8h-2.21v-17.12zM509.92 208.09a1.31 1.31 0 0 1-1.42 1.37 1.33 1.33 0 0 1-1.35-1.37 1.37 1.37 0 0 1 1.4-1.4 1.33 1.33 0 0 1 1.37 1.4zm-2.49 15.74v-12.29h2.24v12.29zM513.38 215.37c0-1.44 0-2.69-.11-3.83h2l.07 2.41h.11a3.67 3.67 0 0 1 3.4-2.69 2.41 2.41 0 0 1 .63.08v2.1a3.39 3.39 0 0 0-.76-.07 3.13 3.13 0 0 0-3 2.87 5.35 5.35 0 0 0-.11 1v6.55h-2.2zM522.67 218.09c.05 3 2 4.27 4.21 4.27a8 8 0 0 0 3.4-.64l.38 1.6a9.83 9.83 0 0 1-4.08.76c-3.79 0-6.05-2.49-6.05-6.19s2.19-6.63 5.77-6.63c4 0 5.08 3.53 5.08 5.79a9.4 9.4 0 0 1-.08 1zm6.55-1.6c0-1.42-.59-3.63-3.1-3.63-2.26 0-3.25 2.08-3.43 3.63zM540 216.13v1.66h-6.27v-1.66zM545.34 208v3.53h3.2v1.7h-3.2v6.63c0 1.52.43 2.38 1.67 2.38a4.84 4.84 0 0 0 1.3-.15l.1 1.68a5.44 5.44 0 0 1-2 .3 3.09 3.09 0 0 1-2.41-.94 4.52 4.52 0 0 1-.87-3.2v-6.7h-1.9v-1.7h1.9v-2.95zM562 217.58c0 4.55-3.15 6.53-6.12 6.53-3.33 0-5.89-2.44-5.89-6.32 0-4.12 2.69-6.53 6.09-6.53s5.92 2.56 5.92 6.32zm-9.75.13c0 2.69 1.55 4.72 3.73 4.72s3.73-2 3.73-4.77c0-2.08-1-4.72-3.68-4.72s-3.76 2.43-3.76 4.77zM570.4 216.13v1.66h-6.27v-1.66zM573 215.37c0-1.44 0-2.69-.1-3.83h2l.07 2.41h.1a3.69 3.69 0 0 1 3.41-2.69 2.41 2.41 0 0 1 .63.08v2.1a3.45 3.45 0 0 0-.76-.07 3.13 3.13 0 0 0-3 2.87 6.33 6.33 0 0 0-.1 1v6.55H573zM582.3 218.09c.05 3 2 4.27 4.22 4.27a8 8 0 0 0 3.4-.64l.38 1.6a9.89 9.89 0 0 1-4.09.76c-3.78 0-6-2.49-6-6.19s2.18-6.63 5.76-6.63c4 0 5.08 3.53 5.08 5.79a10 10 0 0 1-.07 1zm6.55-1.6c0-1.42-.58-3.63-3.09-3.63-2.26 0-3.25 2.08-3.43 3.63zM596.47 208v3.53h3.2v1.7h-3.2v6.63c0 1.52.43 2.38 1.68 2.38a4.81 4.81 0 0 0 1.29-.15l.1 1.68a5.4 5.4 0 0 1-2 .3 3.09 3.09 0 0 1-2.41-.94 4.57 4.57 0 0 1-.86-3.2v-6.7h-1.91v-1.7h1.91v-2.95zM604.67 208.09a1.31 1.31 0 0 1-1.42 1.37 1.33 1.33 0 0 1-1.35-1.37 1.37 1.37 0 0 1 1.4-1.4 1.33 1.33 0 0 1 1.37 1.4zm-2.49 15.74v-12.29h2.24v12.29zM608.12 215.37c0-1.44 0-2.69-.1-3.83h2l.07 2.41h.1a3.69 3.69 0 0 1 3.41-2.69 2.41 2.41 0 0 1 .63.08v2.1a3.45 3.45 0 0 0-.76-.07 3.14 3.14 0 0 0-3 2.87 6.33 6.33 0 0 0-.1 1v6.55h-2.21zM617.41 218.09c.05 3 2 4.27 4.22 4.27a8 8 0 0 0 3.4-.64l.38 1.6a9.85 9.85 0 0 1-4.09.76c-3.78 0-6-2.49-6-6.19s2.18-6.63 5.76-6.63c4 0 5.08 3.53 5.08 5.79a10 10 0 0 1-.07 1zm6.55-1.6c0-1.42-.58-3.63-3.09-3.63-2.26 0-3.25 2.08-3.43 3.63zM643 223.37a8.14 8.14 0 0 1-3.53.71c-3.71 0-6.12-2.51-6.12-6.27a6.24 6.24 0 0 1 6.6-6.52 7.57 7.57 0 0 1 3.1.63l-.51 1.73a5.1 5.1 0 0 0-2.59-.59c-2.81 0-4.34 2.08-4.34 4.65 0 2.84 1.83 4.59 4.27 4.59a6.47 6.47 0 0 0 2.74-.6zM646.92 211.54l2.69 7.26c.28.81.58 1.78.78 2.51h.06c.22-.73.48-1.67.78-2.56l2.44-7.21H656l-3.35 8.76c-1.6 4.21-2.69 6.37-4.22 7.69a6 6 0 0 1-2.74 1.45l-.56-1.88a5.92 5.92 0 0 0 2-1.09A6.8 6.8 0 0 0 649 224a1.71 1.71 0 0 0 .18-.53 1.79 1.79 0 0 0-.16-.59l-4.54-11.32zM666.57 223.37a8.18 8.18 0 0 1-3.53.71c-3.71 0-6.12-2.51-6.12-6.27a6.24 6.24 0 0 1 6.6-6.52 7.57 7.57 0 0 1 3.1.63l-.51 1.73a5.1 5.1 0 0 0-2.59-.59c-2.82 0-4.34 2.08-4.34 4.65 0 2.84 1.83 4.59 4.26 4.59a6.57 6.57 0 0 0 2.75-.6zM669.18 205.8h2.24v18h-2.24zM676.42 218.09c.05 3 2 4.27 4.21 4.27a8 8 0 0 0 3.4-.64l.38 1.6a9.83 9.83 0 0 1-4.08.76c-3.79 0-6.05-2.49-6.05-6.19s2.19-6.63 5.77-6.63c4 0 5.08 3.53 5.08 5.79a9.4 9.4 0 0 1-.08 1zm6.55-1.6c0-1.42-.59-3.63-3.1-3.63-2.26 0-3.25 2.08-3.43 3.63zM491.87 273.48a3.93 3.93 0 0 0 4.22 4.26 8.17 8.17 0 0 0 3.4-.63l.38 1.6a10.06 10.06 0 0 1-4.09.76c-3.78 0-6-2.49-6-6.19s2.18-6.63 5.76-6.63c4 0 5.08 3.53 5.08 5.79a7.57 7.57 0 0 1-.08 1zm6.55-1.6c0-1.42-.58-3.63-3.1-3.63-2.26 0-3.25 2.08-3.42 3.63zM509.24 271.52v1.65H503v-1.65zM511.93 262.1h2.21v15.26h7.31v1.86h-9.52zM534.6 273c0 4.55-3.15 6.53-6.12 6.53-3.32 0-5.89-2.44-5.89-6.33 0-4.11 2.69-6.52 6.1-6.52s5.91 2.53 5.91 6.32zm-9.75.13c0 2.69 1.55 4.72 3.73 4.72s3.74-2 3.74-4.77c0-2.09-1-4.73-3.69-4.73s-3.78 2.41-3.78 4.75zM548 266.93c0 .89-.11 1.88-.11 3.37v7.14c0 2.82-.55 4.54-1.75 5.61a6.49 6.49 0 0 1-4.47 1.47 7.91 7.91 0 0 1-4.08-1l.55-1.7a7.06 7.06 0 0 0 3.61 1c2.28 0 4-1.19 4-4.29v-1.37h-.05a4.4 4.4 0 0 1-3.91 2.06c-3 0-5.23-2.59-5.23-6 0-4.16 2.72-6.52 5.53-6.52a4.09 4.09 0 0 1 3.84 2.13h.07l.1-1.85zm-2.31 4.85a3.28 3.28 0 0 0-.13-1 3.23 3.23 0 0 0-3.12-2.36c-2.14 0-3.66 1.8-3.66 4.65 0 2.41 1.22 4.41 3.63 4.41a3.27 3.27 0 0 0 3.1-2.28 4.09 4.09 0 0 0 .18-1.19zM551.51 279.22c0-.84.1-2.09.1-3.18v-14.85h2.21v7.72a4.58 4.58 0 0 1 4.19-2.26c3.05 0 5.21 2.54 5.18 6.27 0 4.39-2.77 6.58-5.51 6.58a4.37 4.37 0 0 1-4.11-2.31h-.08l-.1 2zm2.31-4.93a4.17 4.17 0 0 0 .1.81 3.45 3.45 0 0 0 3.35 2.62c2.34 0 3.74-1.91 3.74-4.72 0-2.47-1.27-4.57-3.66-4.57a3.56 3.56 0 0 0-3.4 2.74 4.41 4.41 0 0 0-.13.91zM577.18 273c0 4.55-3.15 6.53-6.12 6.53-3.33 0-5.89-2.44-5.89-6.33 0-4.11 2.69-6.52 6.09-6.52s5.92 2.53 5.92 6.32zm-9.75.13c0 2.69 1.55 4.72 3.73 4.72s3.73-2 3.73-4.77c0-2.09-1-4.73-3.68-4.73s-3.78 2.41-3.78 4.75zM591.12 273c0 4.55-3.15 6.53-6.12 6.53-3.33 0-5.89-2.44-5.89-6.33 0-4.11 2.69-6.52 6.09-6.52s5.92 2.53 5.92 6.32zm-9.75.13c0 2.69 1.54 4.72 3.73 4.72s3.73-2 3.73-4.77c0-2.09-1-4.73-3.68-4.73s-3.78 2.41-3.78 4.75zM596.14 272.56h.05c.31-.43.74-1 1.1-1.39l3.6-4.24h2.69l-4.75 5.07 5.41 7.24h-2.71l-4.24-5.89-1.15 1.27v4.62h-2.21v-18h2.21zM494 319.37h-5.2v-1.88h12.67v1.88h-5.23v15.24H494zM502.1 326.15c0-1.45 0-2.69-.1-3.83h2l.07 2.41h.1a3.69 3.69 0 0 1 3.41-2.69 2.43 2.43 0 0 1 .63.07v2.11a3.41 3.41 0 0 0-.76-.08 3.15 3.15 0 0 0-3 2.87 6.44 6.44 0 0 0-.1 1v6.56h-2.25zM517.08 334.61l-.18-1.55h-.07a4.6 4.6 0 0 1-3.76 1.82 3.5 3.5 0 0 1-3.76-3.52c0-3 2.64-4.6 7.39-4.57v-.26a2.53 2.53 0 0 0-2.79-2.84 6.11 6.11 0 0 0-3.2.91l-.51-1.47a7.65 7.65 0 0 1 4-1.09c3.76 0 4.67 2.56 4.67 5v4.6a17.62 17.62 0 0 0 .2 2.95zm-.33-6.28c-2.44-.05-5.2.38-5.2 2.77a2 2 0 0 0 2.1 2.13 3.07 3.07 0 0 0 3-2.05 2.52 2.52 0 0 0 .12-.71zM525 318.86a1.38 1.38 0 0 1-2.76 0 1.36 1.36 0 0 1 1.39-1.39 1.32 1.32 0 0 1 1.37 1.39zm-2.48 15.75v-12.29h2.23v12.29zM528.46 325.64c0-1.27 0-2.31-.11-3.32h2l.13 2a4.51 4.51 0 0 1 4.06-2.31c1.71 0 4.35 1 4.35 5.23v7.34h-2.24v-7.09c0-2-.73-3.63-2.84-3.63a3.18 3.18 0 0 0-3 2.29 3.26 3.26 0 0 0-.15 1v7.39h-2.23zM545 318.86a1.39 1.39 0 0 1-2.77 0 1.36 1.36 0 0 1 1.39-1.39 1.33 1.33 0 0 1 1.38 1.39zm-2.49 15.75v-12.29h2.23v12.29zM548.49 325.64c0-1.27 0-2.31-.11-3.32h2l.12 2a4.52 4.52 0 0 1 4.07-2.31c1.7 0 4.34 1 4.34 5.23v7.34h-2.24v-7.09c0-2-.73-3.63-2.84-3.63a3.18 3.18 0 0 0-3 2.29 3.26 3.26 0 0 0-.15 1v7.39h-2.23zM573.17 322.32c0 .89-.11 1.88-.11 3.37v7.14c0 2.82-.55 4.54-1.75 5.61a6.49 6.49 0 0 1-4.47 1.47 7.91 7.91 0 0 1-4.08-1l.55-1.7a7.06 7.06 0 0 0 3.61 1c2.29 0 4-1.19 4-4.29v-1.42a4.4 4.4 0 0 1-3.91 2.05c-3 0-5.23-2.59-5.23-6 0-4.16 2.72-6.52 5.53-6.52a4.08 4.08 0 0 1 3.84 2.13h.05l.1-1.85zm-2.31 4.85a3.28 3.28 0 0 0-.13-1 3.23 3.23 0 0 0-3.12-2.36c-2.14 0-3.66 1.8-3.66 4.65 0 2.41 1.22 4.41 3.63 4.41a3.27 3.27 0 0 0 3.1-2.28 4.09 4.09 0 0 0 .18-1.19z"/><circle class="cls-6" cx="457.39" cy="217.26" r="4.48"/><circle class="cls-6" cx="457.76" cy="272" r="4.48"/><circle class="cls-6" cx="458.13" cy="326.74" r="4.48"/><path class="cls-5" d="M904.7 206.92a25.46 25.46 0 0 1 4.24-.33 7 7 0 0 1 4.8 1.42 4.6 4.6 0 0 1 1.5 3.58 5.06 5.06 0 0 1-1.32 3.66 7.11 7.11 0 0 1-5.23 1.88 7.45 7.45 0 0 1-1.78-.16v6.86h-2.21zm2.21 8.25a7.24 7.24 0 0 0 1.83.18c2.67 0 4.29-1.3 4.29-3.66s-1.6-3.35-4-3.35a9.33 9.33 0 0 0-2.08.18zM917.73 215.37c0-1.44 0-2.69-.1-3.83h2l.08 2.41h.1a3.68 3.68 0 0 1 3.4-2.69 2.49 2.49 0 0 1 .64.08v2.1a3.45 3.45 0 0 0-.76-.07 3.13 3.13 0 0 0-3 2.87 6.33 6.33 0 0 0-.1 1v6.55h-2.21zM928.62 208.09a1.39 1.39 0 0 1-2.77 0 1.37 1.37 0 0 1 1.4-1.4 1.33 1.33 0 0 1 1.37 1.4zm-2.49 15.74v-12.29h2.24v12.29zM940.83 223.37a8.14 8.14 0 0 1-3.53.71c-3.7 0-6.12-2.51-6.12-6.27a6.24 6.24 0 0 1 6.61-6.52 7.52 7.52 0 0 1 3.09.63l-.5 1.73a5.16 5.16 0 0 0-2.59-.59c-2.82 0-4.35 2.08-4.35 4.65 0 2.84 1.83 4.59 4.27 4.59a6.47 6.47 0 0 0 2.74-.6zM944.54 218.09c.05 3 2 4.27 4.21 4.27a8 8 0 0 0 3.4-.64l.39 1.6a9.93 9.93 0 0 1-4.09.76c-3.79 0-6.05-2.49-6.05-6.19s2.19-6.63 5.77-6.63c4 0 5.08 3.53 5.08 5.79a7.43 7.43 0 0 1-.08 1zm6.55-1.6c0-1.42-.59-3.63-3.1-3.63-2.26 0-3.25 2.08-3.43 3.63zM962.26 211.54l2.41 6.91a29.48 29.48 0 0 1 1 3.14h.08c.28-1 .63-2 1-3.14l2.38-6.91h2.34l-4.82 12.29h-2.14l-4.67-12.29zM984.47 217.58c0 4.55-3.14 6.53-6.11 6.53-3.33 0-5.9-2.44-5.9-6.32 0-4.12 2.7-6.53 6.1-6.53s5.91 2.56 5.91 6.32zm-9.75.13c0 2.69 1.55 4.72 3.74 4.72s3.73-2 3.73-4.77c0-2.08-1-4.72-3.68-4.72s-3.79 2.43-3.79 4.77zM987.29 205.8h2.24v18h-2.24zM1000.09 223.83l-.18-1.55h-.08a4.57 4.57 0 0 1-3.75 1.83 3.5 3.5 0 0 1-3.76-3.53c0-3 2.64-4.6 7.39-4.57v-.26a2.54 2.54 0 0 0-2.8-2.84 6.23 6.23 0 0 0-3.2.91l-.5-1.47a7.61 7.61 0 0 1 4-1.09c3.76 0 4.68 2.56 4.68 5v4.59a17.62 17.62 0 0 0 .2 3zm-.33-6.27c-2.44-.05-5.21.38-5.21 2.76a2 2 0 0 0 2.11 2.14 3.05 3.05 0 0 0 3-2.06 2.22 2.22 0 0 0 .13-.71zM1008.11 208v3.53h3.2v1.7h-3.2v6.63c0 1.52.43 2.38 1.68 2.38a4.81 4.81 0 0 0 1.29-.15l.1 1.68a5.4 5.4 0 0 1-2 .3 3.09 3.09 0 0 1-2.41-.94 4.57 4.57 0 0 1-.86-3.2v-6.7H1004v-1.7h1.91v-2.95zM1016.31 208.09a1.31 1.31 0 0 1-1.42 1.37 1.33 1.33 0 0 1-1.35-1.37 1.37 1.37 0 0 1 1.4-1.4 1.33 1.33 0 0 1 1.37 1.4zm-2.49 15.74v-12.29h2.24v12.29zM1019.76 205.8h2.24v18h-2.24zM1028.24 208.09a1.31 1.31 0 0 1-1.42 1.37 1.33 1.33 0 0 1-1.35-1.37 1.37 1.37 0 0 1 1.4-1.4 1.33 1.33 0 0 1 1.37 1.4zm-2.49 15.74v-12.29h2.25v12.29zM1034.39 208v3.53h3.2v1.7h-3.2v6.63c0 1.52.43 2.38 1.67 2.38a4.84 4.84 0 0 0 1.3-.15l.1 1.68a5.44 5.44 0 0 1-2 .3 3.09 3.09 0 0 1-2.41-.94 4.52 4.52 0 0 1-.87-3.2v-6.7h-1.9v-1.7h1.9v-2.95zM1041.14 211.54l2.69 7.26c.28.81.58 1.78.79 2.51h.05c.23-.73.48-1.67.79-2.56l2.43-7.21h2.36l-3.35 8.76c-1.6 4.21-2.69 6.37-4.21 7.69a6 6 0 0 1-2.74 1.45l-.56-1.88a5.88 5.88 0 0 0 1.95-1.09 6.8 6.8 0 0 0 1.88-2.49 1.71 1.71 0 0 0 .18-.53 2 2 0 0 0-.15-.59l-4.55-11.32zM916.66 278.66a11.08 11.08 0 0 1-4.52.81c-4.82 0-8.45-3.05-8.45-8.66 0-5.35 3.63-9 8.94-9a9.08 9.08 0 0 1 4.06.77l-.54 1.8a8 8 0 0 0-3.45-.71c-4 0-6.68 2.56-6.68 7.06 0 4.19 2.42 6.88 6.58 6.88a8.88 8.88 0 0 0 3.61-.71zM926 279.22l-.18-1.55h-.08a4.57 4.57 0 0 1-3.74 1.83 3.51 3.51 0 0 1-3.76-3.53c0-3 2.64-4.6 7.39-4.57v-.26a2.54 2.54 0 0 0-2.8-2.84 6.07 6.07 0 0 0-3.19.91l-.51-1.47a7.61 7.61 0 0 1 4-1.09c3.76 0 4.68 2.56 4.68 5v4.59a17.62 17.62 0 0 0 .2 3zm-.33-6.27c-2.44-.06-5.21.38-5.21 2.76a2 2 0 0 0 2.11 2.14 3.05 3.05 0 0 0 3-2.06 2.22 2.22 0 0 0 .13-.71zM931.41 270.94c0-1.57 0-2.84-.1-4h2l.1 2.11h.05a4.83 4.83 0 0 1 4.37-2.39c3 0 5.2 2.51 5.2 6.24 0 4.42-2.69 6.61-5.58 6.61a4.32 4.32 0 0 1-3.79-1.93v6.67h-2.21zm2.21 3.27a5.18 5.18 0 0 0 .1.92 3.44 3.44 0 0 0 3.35 2.61c2.37 0 3.74-1.93 3.74-4.74 0-2.47-1.3-4.57-3.66-4.57a3.58 3.58 0 0 0-3.38 2.76 3.93 3.93 0 0 0-.15.92zM948.35 263.47a1.39 1.39 0 0 1-2.77 0 1.36 1.36 0 0 1 1.39-1.39 1.33 1.33 0 0 1 1.38 1.39zm-2.49 15.75v-12.29h2.23v12.29zM954.49 263.4v3.53h3.2v1.7h-3.2v6.63c0 1.52.43 2.38 1.67 2.38a4.84 4.84 0 0 0 1.3-.15l.1 1.68a5.67 5.67 0 0 1-2 .3 3.09 3.09 0 0 1-2.41-.94 4.52 4.52 0 0 1-.87-3.2v-6.7h-1.9v-1.7h1.9V264zM967 279.22l-.18-1.55h-.08a4.58 4.58 0 0 1-3.74 1.83 3.5 3.5 0 0 1-3.75-3.53c0-3 2.64-4.6 7.39-4.57v-.26a2.54 2.54 0 0 0-2.8-2.84 6.13 6.13 0 0 0-3.2.91l-.5-1.47a7.58 7.58 0 0 1 4-1.09c3.76 0 4.67 2.56 4.67 5v4.59a16.55 16.55 0 0 0 .21 3zm-.33-6.27c-2.44-.06-5.21.38-5.21 2.76a2 2 0 0 0 2.11 2.14 3.06 3.06 0 0 0 3-2.06 2.22 2.22 0 0 0 .13-.71zM972.44 261.19h2.23v18h-2.23zM986.3 263.47a1.39 1.39 0 0 1-2.77 0 1.36 1.36 0 0 1 1.4-1.39 1.32 1.32 0 0 1 1.37 1.39zm-2.49 15.75v-12.29H986v12.29zM989.75 270.25c0-1.27 0-2.31-.1-3.32h2l.13 2a4.51 4.51 0 0 1 4.06-2.31c1.7 0 4.34 1 4.34 5.23v7.34H998v-7.09c0-2-.74-3.63-2.85-3.63a3.17 3.17 0 0 0-3 2.29 3.26 3.26 0 0 0-.15 1v7.39h-2.24zM1004.38 266.93l2.41 6.9a30.36 30.36 0 0 1 1 3.15h.08c.27-1 .63-2 1-3.15l2.38-6.9h2.34l-4.83 12.29h-2.13l-4.63-12.29zM1016.71 273.48c.06 3 2 4.26 4.22 4.26a8.17 8.17 0 0 0 3.4-.63l.38 1.6a10 10 0 0 1-4.08.76c-3.79 0-6-2.49-6-6.19s2.19-6.63 5.77-6.63c4 0 5.07 3.53 5.07 5.79a10.18 10.18 0 0 1-.07 1zm6.56-1.6c0-1.42-.59-3.63-3.1-3.63-2.26 0-3.25 2.08-3.43 3.63zM1027.89 276.93a5.84 5.84 0 0 0 2.94.89c1.63 0 2.39-.81 2.39-1.83s-.64-1.65-2.29-2.26c-2.21-.78-3.25-2-3.25-3.48 0-2 1.6-3.6 4.24-3.6a6.13 6.13 0 0 1 3 .76l-.56 1.63a4.75 4.75 0 0 0-2.52-.72c-1.32 0-2 .77-2 1.68s.73 1.47 2.33 2.08c2.14.81 3.23 1.88 3.23 3.71 0 2.16-1.68 3.68-4.6 3.68a7 7 0 0 1-3.45-.84zM1040.94 263.4v3.53h3.19v1.7h-3.19v6.63c0 1.52.43 2.38 1.67 2.38a4.84 4.84 0 0 0 1.3-.15l.1 1.68a5.67 5.67 0 0 1-2 .3 3.09 3.09 0 0 1-2.41-.94 4.52 4.52 0 0 1-.87-3.2v-6.7h-1.9v-1.7h1.9V264zM1046.65 270.25c0-1.27 0-2.31-.1-3.32h2l.1 2h.08a4.24 4.24 0 0 1 3.86-2.26 3.64 3.64 0 0 1 3.48 2.46 5.08 5.08 0 0 1 1.37-1.6 4.2 4.2 0 0 1 2.72-.86c1.62 0 4 1.06 4 5.33v7.24H1062v-7c0-2.36-.86-3.78-2.67-3.78a2.89 2.89 0 0 0-2.64 2 3.72 3.72 0 0 0-.17 1.12v7.59h-2.19v-7.37c0-2-.86-3.37-2.56-3.37a3 3 0 0 0-2.77 2.23 3 3 0 0 0-.18 1.09v7.42h-2.18zM1069.07 273.48c0 3 2 4.26 4.21 4.26a8.14 8.14 0 0 0 3.4-.63l.38 1.6a10 10 0 0 1-4.08.76c-3.79 0-6-2.49-6-6.19s2.19-6.63 5.77-6.63c4 0 5.08 3.53 5.08 5.79a9.62 9.62 0 0 1-.08 1zm6.55-1.6c0-1.42-.59-3.63-3.1-3.63-2.26 0-3.25 2.08-3.43 3.63zM1080.54 270.25c0-1.27 0-2.31-.1-3.32h2l.13 2a4.51 4.51 0 0 1 4.06-2.31c1.7 0 4.34 1 4.34 5.23v7.34h-2.23v-7.09c0-2-.74-3.63-2.85-3.63a3.17 3.17 0 0 0-3 2.29 3.26 3.26 0 0 0-.15 1v7.39h-2.24zM1097.22 263.4v3.53h3.2v1.7h-3.2v6.63c0 1.52.43 2.38 1.68 2.38a4.81 4.81 0 0 0 1.29-.15l.1 1.68a5.62 5.62 0 0 1-2 .3 3.1 3.1 0 0 1-2.41-.94 4.57 4.57 0 0 1-.86-3.2v-6.7h-1.91v-1.7h1.89V264zM916.66 334.05a11.08 11.08 0 0 1-4.52.81c-4.82 0-8.45-3.05-8.45-8.66 0-5.36 3.63-9 8.94-9a9.27 9.27 0 0 1 4.06.76l-.54 1.81a8 8 0 0 0-3.45-.71c-4 0-6.68 2.56-6.68 7.06 0 4.18 2.42 6.88 6.58 6.88a8.71 8.71 0 0 0 3.61-.72zM919.35 316.58h2.24v18h-2.24zM932.15 334.61l-.18-1.55h-.08a4.56 4.56 0 0 1-3.75 1.82 3.5 3.5 0 0 1-3.76-3.52c0-3 2.64-4.6 7.39-4.57v-.26a2.54 2.54 0 0 0-2.8-2.84 6.07 6.07 0 0 0-3.19.91l-.51-1.47a7.61 7.61 0 0 1 4-1.09c3.76 0 4.68 2.56 4.68 5v4.6a17.62 17.62 0 0 0 .2 2.95zm-.33-6.28c-2.44-.05-5.21.38-5.21 2.77a2 2 0 0 0 2.11 2.13 3 3 0 0 0 3-2.05 2.22 2.22 0 0 0 .13-.71zM940.07 318.86a1.39 1.39 0 0 1-2.77 0 1.36 1.36 0 0 1 1.4-1.39 1.32 1.32 0 0 1 1.37 1.39zm-2.49 15.75v-12.29h2.23v12.29zM943.52 325.64c0-1.27 0-2.31-.1-3.32h2l.1 2h.07a4.24 4.24 0 0 1 3.86-2.26 3.62 3.62 0 0 1 3.48 2.46h.05a5 5 0 0 1 1.37-1.6A4.2 4.2 0 0 1 957 322c1.62 0 4 1.06 4 5.33v7.24h-2.19v-7c0-2.36-.86-3.78-2.66-3.78a2.88 2.88 0 0 0-2.64 2 3.4 3.4 0 0 0-.18 1.11v7.6h-2.19v-7.37c0-1.95-.86-3.37-2.56-3.37a3 3 0 0 0-2.77 2.23 3.23 3.23 0 0 0-.17 1.09v7.42h-2.19zM964.39 332.32a5.88 5.88 0 0 0 3 .89c1.62 0 2.38-.81 2.38-1.83s-.63-1.65-2.28-2.26c-2.21-.79-3.25-2-3.25-3.48 0-2 1.6-3.6 4.24-3.6a6.11 6.11 0 0 1 3 .76l-.56 1.62a4.81 4.81 0 0 0-2.51-.71c-1.32 0-2.06.76-2.06 1.68s.74 1.47 2.34 2.08c2.13.81 3.22 1.88 3.22 3.71 0 2.16-1.67 3.68-4.59 3.68a7 7 0 0 1-3.46-.84zM980.13 325.64c0-1.27 0-2.31-.1-3.32h2l.11 2h.07A4.24 4.24 0 0 1 986 322a3.62 3.62 0 0 1 3.48 2.46 5 5 0 0 1 1.37-1.6 4.2 4.2 0 0 1 2.72-.86c1.62 0 4 1.06 4 5.33v7.24h-2.19v-7c0-2.36-.86-3.78-2.66-3.78a2.88 2.88 0 0 0-2.64 2A3.4 3.4 0 0 0 990 327v7.6h-2.19v-7.37c0-1.95-.86-3.37-2.56-3.37a3 3 0 0 0-2.77 2.23 3.24 3.24 0 0 0-.18 1.09v7.42h-2.18zM1008.11 334.61l-.18-1.55h-.07a4.6 4.6 0 0 1-3.76 1.82 3.5 3.5 0 0 1-3.76-3.52c0-3 2.64-4.6 7.39-4.57v-.26a2.53 2.53 0 0 0-2.79-2.84 6.08 6.08 0 0 0-3.2.91l-.51-1.47a7.62 7.62 0 0 1 4-1.09c3.75 0 4.67 2.56 4.67 5v4.6a17.62 17.62 0 0 0 .2 2.95zm-.33-6.28c-2.44-.05-5.21.38-5.21 2.77a2 2 0 0 0 2.11 2.13 3 3 0 0 0 3-2.05 2.22 2.22 0 0 0 .13-.71zM1013.54 325.64c0-1.27 0-2.31-.1-3.32h2l.13 2h.05a4.51 4.51 0 0 1 4.06-2.31c1.7 0 4.34 1 4.34 5.23v7.34h-2.23v-7.09c0-2-.74-3.63-2.85-3.63a3.17 3.17 0 0 0-3 2.29 3.26 3.26 0 0 0-.15 1v7.39h-2.24zM1034.44 334.61l-.18-1.55h-.08a4.56 4.56 0 0 1-3.75 1.82 3.5 3.5 0 0 1-3.76-3.52c0-3 2.64-4.6 7.39-4.57v-.26a2.54 2.54 0 0 0-2.8-2.84 6.13 6.13 0 0 0-3.2.91l-.5-1.47a7.58 7.58 0 0 1 4-1.09c3.76 0 4.68 2.56 4.68 5v4.6a17.62 17.62 0 0 0 .2 2.95zm-.33-6.28c-2.44-.05-5.21.38-5.21 2.77a2 2 0 0 0 2.11 2.13 3 3 0 0 0 3-2.05 2.22 2.22 0 0 0 .13-.71zM1050.46 322.32c0 .89-.1 1.88-.1 3.37v7.14c0 2.82-.56 4.54-1.76 5.61a6.49 6.49 0 0 1-4.47 1.47 7.91 7.91 0 0 1-4.08-1l.56-1.7a7 7 0 0 0 3.6 1c2.29 0 4-1.19 4-4.29v-1.42h-.05a4.37 4.37 0 0 1-3.91 2.05c-3 0-5.23-2.59-5.23-6 0-4.16 2.72-6.52 5.54-6.52a4.07 4.07 0 0 1 3.83 2.13h.05l.1-1.85zm-2.31 4.85a3.28 3.28 0 0 0-.13-1 3.23 3.23 0 0 0-3.12-2.36c-2.14 0-3.66 1.8-3.66 4.65 0 2.41 1.22 4.41 3.63 4.41a3.27 3.27 0 0 0 3.1-2.28 3.78 3.78 0 0 0 .18-1.19zM1055.31 328.87c0 3 2 4.26 4.21 4.26a8.14 8.14 0 0 0 3.4-.63l.38 1.6a10 10 0 0 1-4.08.76c-3.79 0-6-2.49-6-6.2s2.19-6.62 5.77-6.62c4 0 5.08 3.53 5.08 5.79a9.62 9.62 0 0 1-.08 1zm6.55-1.6c0-1.42-.59-3.63-3.1-3.63-2.26 0-3.25 2.08-3.43 3.63zM1066.78 325.64c0-1.27 0-2.31-.1-3.32h2l.11 2h.07a4.24 4.24 0 0 1 3.86-2.26 3.62 3.62 0 0 1 3.48 2.46 5 5 0 0 1 1.37-1.6 4.2 4.2 0 0 1 2.72-.86c1.62 0 4 1.06 4 5.33v7.24h-2.19v-7c0-2.36-.86-3.78-2.66-3.78a2.88 2.88 0 0 0-2.64 2 3.4 3.4 0 0 0-.18 1.11v7.6h-2.19v-7.37c0-1.95-.86-3.37-2.56-3.37a3 3 0 0 0-2.77 2.23 3.24 3.24 0 0 0-.18 1.09v7.42h-2.18zM1089.2 328.87c0 3 2 4.26 4.21 4.26a8.22 8.22 0 0 0 3.41-.63l.38 1.6a10.1 10.1 0 0 1-4.09.76c-3.78 0-6-2.49-6-6.2s2.18-6.62 5.76-6.62c4 0 5.08 3.53 5.08 5.79a7.57 7.57 0 0 1-.08 1zm6.55-1.6c0-1.42-.58-3.63-3.1-3.63-2.26 0-3.25 2.08-3.43 3.63zM1100.68 325.64c0-1.27 0-2.31-.11-3.32h2l.13 2a4.51 4.51 0 0 1 4.06-2.31c1.71 0 4.35 1 4.35 5.23v7.34h-2.24v-7.09c0-2-.73-3.63-2.84-3.63a3.18 3.18 0 0 0-3 2.29 3.26 3.26 0 0 0-.15 1v7.39h-2.23zM1117.36 318.79v3.53h3.19V324h-3.19v6.62c0 1.53.43 2.39 1.67 2.39a4.84 4.84 0 0 0 1.3-.15l.1 1.67a5.41 5.41 0 0 1-2 .31 3.09 3.09 0 0 1-2.41-.94 4.52 4.52 0 0 1-.87-3.2V324h-1.9v-1.7h1.9v-2.95z"/><circle class="cls-6" cx="869.42" cy="217.26" r="4.48"/><circle class="cls-6" cx="869.79" cy="272" r="4.48"/><circle class="cls-6" cx="870.16" cy="326.74" r="4.48"/><path class="cls-5" d="M71.72 94.89a13.69 13.69 0 0 0 10-11.68c.22-3.09.15-6.2.15-9.3s.09-6-.13-9A14 14 0 0 0 54.05 64a36.92 36.92 0 0 0-.23 5.47v4.6h5.35l-6.79 11.65-6.76-11.58h5.31c0-2.51-.06-4.93 0-7.34a23.24 23.24 0 0 1 .53-4.64 16.92 16.92 0 0 1 33.14 2 20.22 20.22 0 0 1 .15 2.47v14.61a16.7 16.7 0 0 1-12.16 16.43 1.08 1.08 0 0 0-.8.89 5.87 5.87 0 0 1-6.52 4.12 5.83 5.83 0 0 1-.49-11.45 5.94 5.94 0 0 1 6.51 2.84zM63.13 97a3 3 0 0 0 3.07 3 3 3 0 0 0 3-3 3 3 0 0 0-3.06-3 2.93 2.93 0 0 0-3.01 3z"/><path class="cls-5" d="M81.9 106.38h-5.32l6.75-11.57 6.76 11.58h-5.31v1.09c0 3 .14 5.93-.19 8.84a16.61 16.61 0 0 1-14 14.48 16.89 16.89 0 0 1-19.19-12.71A18.38 18.38 0 0 1 51 114c-.05-4.93 0-9.86 0-14.79a16.72 16.72 0 0 1 12.07-16.34 1.07 1.07 0 0 0 .84-.86 5.88 5.88 0 1 1 7.41 7.18 5.92 5.92 0 0 1-7-2.92c-.1-.18-.19-.37-.33-.65a8.92 8.92 0 0 0-1 .29c-5.54 2.26-8.85 6.33-9.11 12.33-.26 5.8-.22 11.64.07 17.44.3 6.19 5.63 11.52 11.8 12.31a13.91 13.91 0 0 0 15.86-11.43 35.55 35.55 0 0 0 .25-5.47c.07-1.53.04-3.09.04-4.71zm-9.32-22.8a3 3 0 0 0-3.07-3 3 3 0 0 0-3 3 3 3 0 0 0 3 3 2.93 2.93 0 0 0 3.07-3zM530.9 81.1a15.43 15.43 0 0 1-1.23 2.63 6 6 0 1 1-9-7.78c.27-.26.56-.51.84-.76a33.57 33.57 0 0 0-62.83 3.4l4.92 1.82-10.5 8.84-2.4-13.52 5.1 1.82c.17-.45.32-.85.48-1.25 5.5-13.93 15.63-22.16 30.51-24a36.12 36.12 0 0 1 37.27 21.1 1.2 1.2 0 0 0 1.26.84 5.89 5.89 0 0 1 5.38 4.51c0 .21.14.41.2.62zm-6 2.1a3 3 0 0 0 3-3 3.11 3.11 0 0 0-3.07-3 3 3 0 0 0-3 3 3 3 0 0 0 3.05 3zM530.9 104.75l-5.08-1.75c-.76 1.78-1.39 3.54-2.25 5.19-5.69 11-14.63 17.65-26.77 19.77a36.47 36.47 0 0 1-39.29-20.84 1.22 1.22 0 0 0-1.24-.86 5.92 5.92 0 0 1-5.47-4.89 6.17 6.17 0 0 0-.19-.61v-1c.16-.53.29-1.08.48-1.6a6 6 0 1 1 9.62 6.53c-.21.19-.43.37-.65.55 3.48 9 14.09 20 30.29 20.21a33.49 33.49 0 0 0 32.54-23.57l-4.89-1.8 10.5-8.83c.33 1.82.63 3.46.92 5.11.45 2.53.89 5.06 1.35 7.59a1.68 1.68 0 0 0 .17.42zm-74.2-7.45a3 3 0 0 0-3 3 3 3 0 1 0 6 0 3 3 0 0 0-3-3z"/><path class="cls-5" d="M516.17 107.75h-51.73v-1.9c0-2.7-.08-5.4.09-8.09a8.69 8.69 0 0 1 8.63-8c2.45 0 4.89.08 7.33.1a1.33 1.33 0 0 0 .75-.3 10.2 10.2 0 0 1 6.57-2.13c2.61 0 5.21 0 7.81.16a8.71 8.71 0 0 1 4.3 1.68 3.06 3.06 0 0 0 1.47.46h5.62a8.74 8.74 0 0 1 9.12 8.36c.2 3.15.04 6.34.04 9.66zm-15-3c0-2.66.05-5.13 0-7.61a7 7 0 0 0-6.95-6.8h-6.86a7 7 0 0 0-6.94 7v7.39zm-22.6-12.09h-5.29a5.6 5.6 0 0 0-5.68 4.89 64 64 0 0 0-.06 7.2h9.86c.46-3.99-.73-8.07 1.14-12.04zm34.63 12.07c0-2.26.08-4.38 0-6.5a5.54 5.54 0 0 0-3.72-5.16c-2.06-.82-4.21-.27-6.45-.44 1.9 4 .76 8.12 1.22 12.1zM490.65 86.15A7.1 7.1 0 1 1 491 72a7.1 7.1 0 0 1-.33 14.19zm-4-7.11a4.1 4.1 0 0 0 4.07 4.14 4.12 4.12 0 1 0 0-8.24 4.07 4.07 0 0 0-4.06 4.06z"/><path class="cls-5" d="M476.25 76.34a6.34 6.34 0 1 1-6.38 6.32 6.29 6.29 0 0 1 6.38-6.32zm3.35 6.33a3.38 3.38 0 0 0-6.76 0 3.38 3.38 0 1 0 6.76 0zM510.72 82.69a6.33 6.33 0 1 1-6.33-6.35 6.28 6.28 0 0 1 6.33 6.35zm-2.93-.07a3.4 3.4 0 0 0-6.79 0 3.4 3.4 0 1 0 6.79 0zM944.46 101.71a18 18 0 0 1-.6 2.66 25.56 25.56 0 0 1-1.71 3.68 1.27 1.27 0 0 1-1.95.45 1.29 1.29 0 0 1-.1-1.94 10.41 10.41 0 0 0 1.77-6.49V82.91a6.12 6.12 0 0 0-.54-2.38A2.79 2.79 0 0 0 938 79a2.35 2.35 0 0 0-1.79 2.41c-.09 1.43-.08 2.86-.08 4.29 0 4.19 0 8.38.06 12.58a4.58 4.58 0 0 1-1.49 3.4c-2.6 2.51-5.24 5-7.89 7.46a1.26 1.26 0 0 1-1.94 0c-2-2-2.53-2.06-.2-4.41 1.52-1.54 3-3.14 4.46-4.7a2.91 2.91 0 0 0 .64-2.58 1.6 1.6 0 0 0-2.4-.87 11.71 11.71 0 0 0-2.24 1.74c-3.46 3.23-6.92 6.46-10.32 9.74a12.12 12.12 0 0 0-4 9.25v9.11h15v-4.88a2.59 2.59 0 0 1 1-2.32c.69-.56 1.3-1.21 2-1.89l-3.57-3.74 13.25-3.33-3.71 13-4.21-4c-.67.62-1.39 1.24-2 1.92a1.46 1.46 0 0 0-.19.88v5.05a2.35 2.35 0 0 1-.75 1.94h-18.44c-.29-.43-.82-.85-.82-1.28 0-4-.15-8 0-12s2.12-7.11 4.94-9.78c3.55-3.36 7.12-6.69 10.67-10a6.17 6.17 0 0 1 4.26-2.06 4 4 0 0 1 4.11 4.79c-.1.71-.3 1.41-.51 2.36 1-1 1.82-1.69 1.79-3.14-.09-5.34-.08-10.67 0-16 0-3 1.73-5 4.29-5.32a5.38 5.38 0 0 1 6.16 4c.12.39.25.77.37 1.16zM885 129a1.8 1.8 0 0 1-.87-1.76v-4.86a2 2 0 0 0-.78-1.81c-.52-.4-1-.9-1.47-1.37l-4.21 4.07-3.72-13 13.49 3.38-4.06 3.44c1 .94 1.69 1.64 2.43 2.28a2.33 2.33 0 0 1 .86 2c-.06 1.67 0 3.35 0 5.07h14.94c0-.36.06-.69.06-1v-8.29a12 12 0 0 0-3.86-8.92c-3.68-3.59-7.46-7.07-11.22-10.58a5.85 5.85 0 0 0-1.59-1.14 1.58 1.58 0 0 0-2.34 1.67 4 4 0 0 0 .87 2c1.62 1.84 3.34 3.57 5 5.35 1 1.11 1 1.54 0 2.62-1.91 1.92-1.92 1.92-3.92 0s-4.06-3.84-6.11-5.73a6.32 6.32 0 0 1-2.21-5.2c.15-5 .05-10 0-15a7.12 7.12 0 0 0-.14-1.22 2.2 2.2 0 0 0-1.71-2 2.63 2.63 0 0 0-3 1 5.34 5.34 0 0 0-.85 2.56q-.09 9.29 0 18.58a9.1 9.1 0 0 0 1.75 5.44 1.27 1.27 0 0 1-.12 1.86 1.28 1.28 0 0 1-1.91-.35 11.79 11.79 0 0 1-2.23-6.37c0-.34-.12-.67-.18-1V82.26c.18-.7.32-1.41.56-2.09a5.39 5.39 0 0 1 6.6-3.6c2.22.53 3.69 2.57 3.7 5.26 0 5.27.06 10.55 0 15.82a3.71 3.71 0 0 0 1.75 3.17c-.16-.82-.34-1.51-.42-2.22a4.12 4.12 0 0 1 6-4.34 12.11 12.11 0 0 1 2.88 2.14c3.51 3.26 7 6.54 10.46 9.87a14.54 14.54 0 0 1 4.69 11v9.82a2.29 2.29 0 0 1-.74 1.93z"/><path class="cls-5" d="M907.28 51.56c1.86.65 3.49 1.67 3.81 3.72.21 1.33.88 1.66 2 2a21.31 21.31 0 1 1-13.13-.18c.79-.24 1.23-.46 1.36-1.43a4.67 4.67 0 0 1 3.11-3.79c.26-.1.52-.22.77-.34zm17.83 25.56a26 26 0 0 0-.28-2.6c-1.48-7.68-6-12.67-13.4-15.11a.91.91 0 0 0-1.19.37 5 5 0 0 1-7.92.06 1.05 1.05 0 0 0-1.34-.41 18.85 18.85 0 1 0 24.13 17.69zM908.8 56.64a2.55 2.55 0 0 0-2.59-2.57 2.63 2.63 0 0 0-2.53 2.57 2.56 2.56 0 0 0 2.62 2.55 2.51 2.51 0 0 0 2.5-2.55z"/><path class="cls-5" d="M905.2 66.53v-3.31h2.09v3l4.54 1.24-.8 2.15c-1.68-.28-3.24-.66-4.81-.77a2.9 2.9 0 0 0-3 1.78 2.59 2.59 0 0 0 .86 3.23 34.42 34.42 0 0 0 3.17 1.72c.87.45 1.78.84 2.6 1.37a5.44 5.44 0 0 1 2.56 5.9 5.71 5.71 0 0 1-4.24 4.56l-1 .27v3.46H905V88c-1.56-.45-3-.84-4.41-1.27-.69-.21-1-.61-.57-1.35a9.9 9.9 0 0 0 .54-1.46 9.13 9.13 0 0 0 5.61 1.39 3.51 3.51 0 0 0 3.26-2.5 3.33 3.33 0 0 0-1.76-3.77c-.74-.47-1.58-.79-2.37-1.19s-1.85-.86-2.71-1.39a4.9 4.9 0 0 1-2.49-5.15 5.24 5.24 0 0 1 3.53-4.31c.47-.17.97-.29 1.57-.47z"/></svg>