<svg id="Layer_1" data-name="Layer 1" xmlns="http://www.w3.org/2000/svg" viewBox="0 0 350 350"><defs><style>.cls-1{fill:#92d1ff;}.cls-2{fill:#bee3ff;}.cls-3{fill:#0f9ffa;}.cls-4{fill:#fff;}</style></defs><title>robotic-process-automation</title><path class="cls-1" d="M321.82,256.93l6,3.43a175.46,175.46,0,0,0,14.83-135.78h0c-.74-2.47-1.53-4.91-2.38-7.34A175.09,175.09,0,0,0,178.87,0h-1.61V7.1h-5V0h-1.12A175.08,175.08,0,0,0,9.76,117.24q-1.28,3.65-2.39,7.35a175.45,175.45,0,0,0,15,136L28,257.36c.81,1.45,1.65,2.9,2.5,4.32l-5.58,3.23A175.81,175.81,0,0,0,69,314.27q3.07,2.36,6.25,4.55a175.08,175.08,0,0,0,199.45,0c2.12-1.47,4.2-3,6.25-4.55a175.74,175.74,0,0,0,44.3-49.59l-5.95-3.42C320.18,259.83,321,258.38,321.82,256.93Z"/><path class="cls-2" d="M342.91,175a167.64,167.64,0,0,1-66.22,133.63q-3,2.25-6,4.36a168,168,0,0,1-191.38,0q-3-2.12-6-4.37a168.22,168.22,0,0,1-59.17-182c.72-2.37,1.48-4.72,2.3-7A168,168,0,0,1,171.3,7.12h7.41A168,168,0,0,1,333.55,119.57q1.21,3.48,2.29,7h0A167.94,167.94,0,0,1,342.91,175Z"/><path class="cls-3" d="M172.26,7.12A168.2,168.2,0,0,0,27.93,257.35l144.33-83.52Z"/><path class="cls-3" d="M321.82,256.93A168.21,168.21,0,0,0,177.26,7.12V173.83Z"/><path class="cls-3" d="M30.43,261.67a168.24,168.24,0,0,0,288.9-.41l-144.57-83.1Z"/><path class="cls-2" d="M238.16,175a63,63,0,0,1-24.91,50.26c-.74.56-1.49,1.11-2.26,1.64a63.16,63.16,0,0,1-72,0c-.76-.53-1.52-1.07-2.25-1.64a63.23,63.23,0,0,1-22.26-68.45c.27-.89.56-1.78.87-2.66a63.17,63.17,0,0,1,58.24-42.29h2.79a63.16,63.16,0,0,1,58.23,42.29c.31.88.6,1.76.86,2.65h0A63,63,0,0,1,238.16,175Z"/><path class="cls-4" d="M263.46,149.69a5,5,0,0,1-2.08.36,3.82,3.82,0,0,1-4.13-4.07,4.07,4.07,0,0,1,4.32-4.27,4.76,4.76,0,0,1,2,.36l-.33,1.18a3.87,3.87,0,0,0-1.58-.31,2.69,2.69,0,0,0-2.83,3,2.65,2.65,0,0,0,2.82,2.91,4.07,4.07,0,0,0,1.6-.3Z"/><path class="cls-4" d="M270.22,147a2.89,2.89,0,0,1-3,3.11,2.83,2.83,0,0,1-2.93-3,2.88,2.88,0,0,1,3-3.09A2.8,2.8,0,0,1,270.22,147Zm-4.4.06c0,1.13.55,2,1.45,2s1.43-.83,1.43-2c0-.91-.41-2-1.42-2S265.82,146,265.82,147Z"/><path class="cls-4" d="M271.44,141.41h1.48v8.52h-1.48Z"/><path class="cls-4" d="M274.52,141.41H276v8.52h-1.49Z"/><path class="cls-4" d="M280.89,149.93l-.1-.65h0a2.16,2.16,0,0,1-1.73.78,1.73,1.73,0,0,1-1.83-1.74c0-1.47,1.3-2.22,3.46-2.21V146c0-.39-.15-1-1.19-1a3.14,3.14,0,0,0-1.57.43l-.28-1a4.22,4.22,0,0,1,2.11-.51,2.18,2.18,0,0,1,2.41,2.45v2.11a9.5,9.5,0,0,0,.08,1.41Zm-.19-2.86c-1.05,0-2,.21-2,1.09a.77.77,0,0,0,.84.84,1.19,1.19,0,0,0,1.15-.8,1,1,0,0,0,.05-.32Z"/><path class="cls-4" d="M285.39,142.42v1.67h1.4v1.1h-1.4v2.58c0,.71.19,1.08.76,1.08a2.43,2.43,0,0,0,.57-.07l0,1.12a3.08,3.08,0,0,1-1.07.15,1.69,1.69,0,0,1-1.27-.48,2.3,2.3,0,0,1-.46-1.63v-2.75h-.84v-1.1H284v-1.32Z"/><path class="cls-4" d="M289.48,142.46a.78.78,0,0,1-.84.79.77.77,0,0,1-.81-.79.83.83,0,0,1,1.65,0Zm-1.57,7.47v-5.84h1.49v5.84Z"/><path class="cls-4" d="M296.54,147a2.9,2.9,0,0,1-3,3.11,2.82,2.82,0,0,1-2.93-3,2.88,2.88,0,0,1,3-3.09A2.8,2.8,0,0,1,296.54,147Zm-4.41.06c0,1.13.56,2,1.46,2s1.42-.83,1.42-2c0-.91-.4-2-1.41-2S292.13,146,292.13,147Z"/><path class="cls-4" d="M297.75,145.83c0-.68,0-1.24-.05-1.74H299l.07.87h0a2.1,2.1,0,0,1,1.85-1c1,0,2.08.65,2.08,2.5v3.47h-1.48v-3.3c0-.84-.31-1.48-1.11-1.48a1.23,1.23,0,0,0-1.15.87,1.44,1.44,0,0,0-.06.48v3.43h-1.49Z"/><path class="cls-4" d="M37.62,149.69a5.14,5.14,0,0,1-2.09.36A3.82,3.82,0,0,1,31.4,146a4.07,4.07,0,0,1,4.32-4.27,4.76,4.76,0,0,1,2,.36l-.33,1.18a3.87,3.87,0,0,0-1.58-.31,2.69,2.69,0,0,0-2.83,3,2.65,2.65,0,0,0,2.82,2.91,4,4,0,0,0,1.61-.3Z"/><path class="cls-4" d="M44.37,147a2.89,2.89,0,0,1-3,3.11,2.82,2.82,0,0,1-2.92-3,2.88,2.88,0,0,1,3-3.09A2.8,2.8,0,0,1,44.37,147ZM40,147c0,1.13.55,2,1.45,2s1.43-.82,1.43-2c0-.91-.41-2-1.42-2S40,146,40,147Z"/><path class="cls-4" d="M45.59,145.83c0-.68,0-1.24-.05-1.74h1.27l.06.86h0a2,2,0,0,1,1.8-1A1.68,1.68,0,0,1,50.32,145h0a2.19,2.19,0,0,1,.72-.73,2,2,0,0,1,1.17-.34c1,0,2,.66,2,2.53v3.44H52.76V146.7c0-1-.34-1.55-1-1.55a1.13,1.13,0,0,0-1,.78,2.62,2.62,0,0,0-.07.5v3.5H49.17v-3.38c0-.82-.32-1.4-1-1.4a1.16,1.16,0,0,0-1.06.84,1.31,1.31,0,0,0-.08.48v3.46H45.59Z"/><path class="cls-4" d="M55.76,146c0-.77,0-1.39,0-1.94H57l.07.9h0a2.26,2.26,0,0,1,2-1c1.34,0,2.46,1.15,2.46,3,0,2.11-1.33,3.13-2.67,3.13a1.91,1.91,0,0,1-1.64-.78h0v3H55.76Zm1.48,1.45a1.36,1.36,0,0,0,0,.41,1.33,1.33,0,0,0,1.29,1c.94,0,1.49-.78,1.49-1.93s-.51-1.87-1.45-1.87a1.36,1.36,0,0,0-1.32,1.09,1.19,1.19,0,0,0-.06.37Z"/><path class="cls-4" d="M62.78,141.41h1.49v8.52H62.78Z"/><path class="cls-4" d="M66.91,147.42a1.58,1.58,0,0,0,1.8,1.51,4.39,4.39,0,0,0,1.62-.26l.21,1a5.57,5.57,0,0,1-2,.36,2.77,2.77,0,0,1-3-3A2.89,2.89,0,0,1,68.35,144c1.89,0,2.52,1.55,2.52,2.84a4,4,0,0,1-.05.62Zm2.57-1A1.26,1.26,0,0,0,68.26,145a1.44,1.44,0,0,0-1.35,1.43Z"/><path class="cls-4" d="M73,144.09l.7,1.1c.19.31.36.6.52.9h0l.5-.92.65-1.08h1.61l-2,2.8,2,3H75.43l-.72-1.17c-.19-.31-.36-.62-.53-.94h0c-.17.33-.34.62-.53.94L73,149.93H71.33l2-3-1.95-2.86Z"/><path class="cls-4" d="M79.56,142.46a.83.83,0,1,1-.83-.81A.8.8,0,0,1,79.56,142.46ZM78,149.93v-5.84h1.48v5.84Z"/><path class="cls-4" d="M82.75,142.42v1.67h1.4v1.1h-1.4v2.58c0,.71.19,1.08.75,1.08a2.45,2.45,0,0,0,.58-.07l0,1.12a3,3,0,0,1-1.06.15,1.69,1.69,0,0,1-1.27-.48,2.29,2.29,0,0,1-.46-1.63v-2.75h-.84v-1.1h.84v-1.32Z"/><path class="cls-4" d="M86.19,144.09l1.06,3.13c.12.36.24.8.32,1.14h0c.09-.34.2-.77.31-1.15l.91-3.12h1.59l-1.47,4c-.8,2.18-1.34,3.15-2,3.75a2.93,2.93,0,0,1-1.54.76L85,151.33a2.47,2.47,0,0,0,.86-.41,2.55,2.55,0,0,0,.81-.92.57.57,0,0,0,.09-.26.63.63,0,0,0-.08-.29l-2.14-5.36Z"/><path class="cls-4" d="M36.1,161.93l-.09-.65h0a2.15,2.15,0,0,1-1.72.78,1.73,1.73,0,0,1-1.84-1.74c0-1.47,1.31-2.22,3.47-2.21V158c0-.39-.16-1-1.19-1a3.08,3.08,0,0,0-1.57.43l-.29-1a4.25,4.25,0,0,1,2.11-.51,2.18,2.18,0,0,1,2.41,2.45v2.11a9.35,9.35,0,0,0,.09,1.41Zm-.19-2.86c-1,0-2,.21-2,1.1a.77.77,0,0,0,.84.83,1.21,1.21,0,0,0,1.16-.8,1.27,1.27,0,0,0,0-.32Z"/><path class="cls-4" d="M38.91,157.83c0-.68,0-1.24,0-1.74h1.29l.07.87h0a2.12,2.12,0,0,1,1.86-1c1,0,2.07.66,2.07,2.5v3.47H42.73v-3.3c0-.84-.31-1.48-1.12-1.48a1.25,1.25,0,0,0-1.15.87,1.44,1.44,0,0,0-.06.48v3.43H38.91Z"/><path class="cls-4" d="M51.16,153.41v6.88c0,.59,0,1.24.05,1.64H49.89l-.06-.93h0a2.11,2.11,0,0,1-1.91,1.06c-1.39,0-2.49-1.19-2.49-3S46.62,156,48,156a1.84,1.84,0,0,1,1.64.76h0v-3.31Zm-1.47,5.11a1.64,1.64,0,0,0,0-.38,1.29,1.29,0,0,0-1.27-1c-1,0-1.47.84-1.47,1.94s.52,1.84,1.46,1.84a1.3,1.3,0,0,0,1.27-1,1.49,1.49,0,0,0,0-.43Z"/><path class="cls-4" d="M60.62,153.41v6.88c0,.59,0,1.24.05,1.64H59.35l-.06-.93h0a2.08,2.08,0,0,1-1.9,1.06c-1.39,0-2.5-1.19-2.5-3S56.07,156,57.48,156a1.85,1.85,0,0,1,1.64.76h0v-3.31Zm-1.48,5.11a2.43,2.43,0,0,0,0-.38,1.29,1.29,0,0,0-1.27-1c-1,0-1.48.84-1.48,1.94s.53,1.84,1.46,1.84a1.32,1.32,0,0,0,1.28-1,2,2,0,0,0,0-.43Z"/><path class="cls-4" d="M63.25,159.42a1.58,1.58,0,0,0,1.8,1.51,4.39,4.39,0,0,0,1.62-.26l.21,1a5.57,5.57,0,0,1-2,.36,2.77,2.77,0,0,1-3-3A2.89,2.89,0,0,1,64.69,156c1.89,0,2.52,1.55,2.52,2.84a4,4,0,0,1,0,.62Zm2.57-1A1.26,1.26,0,0,0,64.6,157a1.44,1.44,0,0,0-1.35,1.43Z"/><path class="cls-4" d="M68.33,160.57a3.19,3.19,0,0,0,1.5.42c.64,0,.93-.26.93-.65s-.24-.59-1-.85c-1.14-.39-1.62-1-1.61-1.7A2,2,0,0,1,70.4,156a3.46,3.46,0,0,1,1.55.34l-.29,1a2.55,2.55,0,0,0-1.24-.34c-.52,0-.81.25-.81.61s.28.55,1,.82c1.05.38,1.55.92,1.56,1.78,0,1.06-.83,1.83-2.38,1.83a3.76,3.76,0,0,1-1.77-.41Z"/><path class="cls-4" d="M75,154.46a.78.78,0,0,1-.84.79.77.77,0,0,1-.81-.79.83.83,0,0,1,1.65,0Zm-1.57,7.47v-5.84h1.49v5.84Z"/><path class="cls-4" d="M81.81,156.09c0,.39,0,.87,0,1.68v3.31a3.41,3.41,0,0,1-.86,2.65,3.35,3.35,0,0,1-2.26.7,4.12,4.12,0,0,1-2-.46l.32-1.12a3.46,3.46,0,0,0,1.7.44,1.55,1.55,0,0,0,1.68-1.76V161h0a2,2,0,0,1-1.71.86A2.59,2.59,0,0,1,76.1,159,2.8,2.8,0,0,1,78.75,156a1.83,1.83,0,0,1,1.69.91h0l.06-.78Zm-1.52,2.34a1.29,1.29,0,0,0-.05-.4,1.23,1.23,0,0,0-1.2-.95c-.83,0-1.44.72-1.44,1.91,0,1,.5,1.8,1.43,1.8a1.26,1.26,0,0,0,1.2-.89,3,3,0,0,0,.06-.53Z"/><path class="cls-4" d="M83.35,157.83c0-.68,0-1.24,0-1.74h1.3l.07.87h0a2.1,2.1,0,0,1,1.85-1c1,0,2.08.66,2.08,2.5v3.47H87.16v-3.3c0-.84-.31-1.48-1.11-1.48a1.23,1.23,0,0,0-1.15.87,1.44,1.44,0,0,0-.06.48v3.43H83.35Z"/><path class="cls-4" d="M40.14,172.57a3.26,3.26,0,0,0,1.5.42c.65,0,.94-.26.94-.65s-.24-.59-1-.85c-1.14-.39-1.62-1-1.61-1.7,0-1,.85-1.83,2.21-1.83a3.46,3.46,0,0,1,1.55.34l-.29,1a2.55,2.55,0,0,0-1.24-.34c-.52,0-.81.25-.81.61s.27.55,1,.82c1,.38,1.54.92,1.56,1.78,0,1.06-.83,1.83-2.38,1.83a3.73,3.73,0,0,1-1.77-.41Z"/><path class="cls-4" d="M50.77,171a2.89,2.89,0,0,1-3,3.11,2.82,2.82,0,0,1-2.93-3,2.88,2.88,0,0,1,3-3.09A2.8,2.8,0,0,1,50.77,171Zm-4.4.06c0,1.13.55,2,1.45,2s1.43-.82,1.43-2c0-.91-.41-2-1.42-2S46.37,170,46.37,171Z"/><path class="cls-4" d="M52,165.41h1.49v8.52H52Z"/><path class="cls-4" d="M60.3,172.18c0,.69,0,1.27.05,1.75h-1.3L59,173h0a2.11,2.11,0,0,1-1.87,1c-1.07,0-2-.64-2-2.54v-3.43h1.47v3.18c0,1,.32,1.59,1.1,1.59a1.24,1.24,0,0,0,1.12-.79,1.3,1.3,0,0,0,.09-.46v-3.52H60.3Z"/><path class="cls-4" d="M63.59,166.42v1.67H65v1.1h-1.4v2.58c0,.71.19,1.08.76,1.08a2.43,2.43,0,0,0,.57-.07l0,1.12a3.08,3.08,0,0,1-1.07.15,1.69,1.69,0,0,1-1.27-.48,2.34,2.34,0,0,1-.46-1.63v-2.75h-.84v-1.1h.84v-1.32Z"/><path class="cls-4" d="M67.68,166.46a.78.78,0,0,1-.84.79.77.77,0,0,1-.81-.79.83.83,0,0,1,1.65,0Zm-1.57,7.47v-5.84H67.6v5.84Z"/><path class="cls-4" d="M74.74,171a2.89,2.89,0,0,1-3,3.11,2.82,2.82,0,0,1-2.93-3,2.88,2.88,0,0,1,3-3.09A2.8,2.8,0,0,1,74.74,171Zm-4.4.06c0,1.13.55,2,1.45,2s1.42-.82,1.42-2c0-.91-.4-2-1.41-2S70.34,170,70.34,171Z"/><path class="cls-4" d="M76,169.83c0-.68,0-1.24,0-1.74h1.3l.07.87h0a2.1,2.1,0,0,1,1.86-1c1,0,2.07.66,2.07,2.5v3.47H79.77v-3.3c0-.84-.32-1.48-1.12-1.48a1.24,1.24,0,0,0-1.15.87,1.44,1.44,0,0,0-.06.48v3.43H76Z"/><path class="cls-4" d="M38,181.83c0-.68,0-1.24,0-1.74h1.27l.06.86h0a2,2,0,0,1,1.8-1A1.68,1.68,0,0,1,42.69,181h0a2.19,2.19,0,0,1,.72-.73,2,2,0,0,1,1.17-.34c1,0,2,.66,2,2.53v3.44H45.13V182.7c0-1-.34-1.55-1.05-1.55a1.13,1.13,0,0,0-1,.78,2.62,2.62,0,0,0-.07.5v3.5H41.54v-3.38c0-.82-.32-1.4-1-1.4a1.15,1.15,0,0,0-1.05.84,1.32,1.32,0,0,0-.09.48v3.46H38Z"/><path class="cls-4" d="M51.42,185.93l-.1-.65h0a2.15,2.15,0,0,1-1.72.78,1.73,1.73,0,0,1-1.84-1.74c0-1.47,1.31-2.22,3.47-2.21V182c0-.39-.16-1-1.19-1a3.14,3.14,0,0,0-1.57.43l-.29-1a4.25,4.25,0,0,1,2.11-.51,2.18,2.18,0,0,1,2.41,2.45v2.11a9.35,9.35,0,0,0,.09,1.41Zm-.2-2.86c-1,0-2,.21-2,1.1A.77.77,0,0,0,50,185a1.21,1.21,0,0,0,1.15-.8,1.27,1.27,0,0,0,0-.32Z"/><path class="cls-4" d="M54.23,182c0-.77,0-1.39,0-1.94h1.29l.08.9h0a2.27,2.27,0,0,1,2-1c1.35,0,2.46,1.15,2.46,3,0,2.11-1.33,3.13-2.66,3.13a1.91,1.91,0,0,1-1.64-.78h0v3H54.23Zm1.47,1.45a1.36,1.36,0,0,0,0,.41,1.33,1.33,0,0,0,1.29,1c.94,0,1.49-.78,1.49-1.93s-.5-1.87-1.45-1.87a1.38,1.38,0,0,0-1.32,1.09,1.59,1.59,0,0,0-.06.37Z"/><path class="cls-4" d="M61.25,182c0-.77,0-1.39,0-1.94h1.29l.08.9h0a2.27,2.27,0,0,1,2-1c1.35,0,2.46,1.15,2.46,3,0,2.11-1.33,3.13-2.66,3.13a1.9,1.9,0,0,1-1.64-.78h0v3H61.25Zm1.47,1.45a1.36,1.36,0,0,0,.05.41,1.33,1.33,0,0,0,1.29,1c.94,0,1.49-.78,1.49-1.93s-.5-1.87-1.45-1.87a1.38,1.38,0,0,0-1.32,1.09,1.59,1.59,0,0,0-.06.37Z"/><path class="cls-4" d="M69.84,178.46a.83.83,0,1,1-.83-.81A.79.79,0,0,1,69.84,178.46Zm-1.57,7.47v-5.84h1.48v5.84Z"/><path class="cls-4" d="M71.34,181.83c0-.68,0-1.24,0-1.74h1.29l.08.87h0a2.13,2.13,0,0,1,1.86-1c1,0,2.08.66,2.08,2.5v3.47H75.15v-3.3c0-.84-.31-1.48-1.11-1.48a1.25,1.25,0,0,0-1.16.87,1.77,1.77,0,0,0,0,.48v3.43H71.34Z"/><path class="cls-4" d="M83.54,180.09c0,.39-.05.87-.05,1.68v3.31a3.41,3.41,0,0,1-.86,2.65,3.35,3.35,0,0,1-2.26.7,4.18,4.18,0,0,1-2-.46l.33-1.12a3.46,3.46,0,0,0,1.7.44A1.55,1.55,0,0,0,82,185.53V185h0a2,2,0,0,1-1.71.86A2.59,2.59,0,0,1,77.83,183,2.8,2.8,0,0,1,80.48,180a1.83,1.83,0,0,1,1.69.91h0l.06-.78ZM82,182.43a1.68,1.68,0,0,0,0-.4,1.23,1.23,0,0,0-1.2-.95c-.83,0-1.44.72-1.44,1.91,0,1,.5,1.8,1.43,1.8a1.26,1.26,0,0,0,1.2-.89,3,3,0,0,0,.06-.53Z"/><path class="cls-4" d="M186.91,276.09a4.15,4.15,0,0,0,2,.51c.95,0,1.48-.44,1.48-1.1s-.41-1-1.44-1.34c-1.33-.48-2.19-1.19-2.19-2.35,0-1.32,1.11-2.33,2.86-2.33a4.22,4.22,0,0,1,1.94.41l-.36,1.19a3.37,3.37,0,0,0-1.61-.39c-.93,0-1.34.5-1.34,1,0,.63.47.91,1.55,1.33,1.4.53,2.09,1.24,2.09,2.4s-1,2.43-3.07,2.43a4.74,4.74,0,0,1-2.19-.51Z"/><path class="cls-4" d="M198.34,275.94c0,.7,0,1.28,0,1.76h-1.3l-.07-.89h0a2.13,2.13,0,0,1-1.87,1c-1.07,0-2-.64-2-2.55v-3.43h1.47V275c0,1,.31,1.6,1.09,1.6a1.24,1.24,0,0,0,1.13-.79,1.34,1.34,0,0,0,.08-.46v-3.53h1.48Z"/><path class="cls-4" d="M201.51,270.22a.83.83,0,0,1-1.66,0,.83.83,0,0,1,1.66,0Zm-1.57,7.48v-5.85h1.49v5.85Z"/><path class="cls-4" d="M204.7,270.19v1.66h1.4V273h-1.4v2.58c0,.7.19,1.08.76,1.08a1.93,1.93,0,0,0,.57-.08l0,1.13a3.35,3.35,0,0,1-1.07.15,1.7,1.7,0,0,1-1.27-.49,2.32,2.32,0,0,1-.46-1.63V273h-.84v-1.11h.84v-1.31Z"/><path class="cls-4" d="M210.51,277.7l-.1-.65h0a2.19,2.19,0,0,1-1.73.78,1.73,1.73,0,0,1-1.84-1.74c0-1.48,1.31-2.22,3.47-2.21v-.09c0-.39-.15-1-1.19-1a3.14,3.14,0,0,0-1.57.43l-.29-1a4.17,4.17,0,0,1,2.11-.52,2.19,2.19,0,0,1,2.42,2.46v2.11a9.59,9.59,0,0,0,.08,1.41Zm-.19-2.86c-1,0-2,.2-2,1.09a.77.77,0,0,0,.84.84,1.19,1.19,0,0,0,1.15-.8,1.32,1.32,0,0,0,0-.33Z"/><path class="cls-4" d="M213.27,277.7c0-.4,0-1.05,0-1.65v-6.87h1.47v3.48h0a2.1,2.1,0,0,1,1.87-.94c1.43,0,2.44,1.19,2.43,3,0,2.1-1.33,3.15-2.65,3.15a2,2,0,0,1-1.84-1h0l-.07.88Zm1.52-2.42a2,2,0,0,0,0,.35,1.36,1.36,0,0,0,1.31,1c.92,0,1.48-.74,1.48-1.91s-.49-1.88-1.47-1.88a1.39,1.39,0,0,0-1.31,1.08,2.06,2.06,0,0,0-.05.39Z"/><path class="cls-4" d="M221.91,270.22a.83.83,0,0,1-1.66,0,.83.83,0,0,1,1.66,0Zm-1.57,7.48v-5.85h1.49v5.85Z"/><path class="cls-4" d="M223.41,269.18h1.49v8.52h-1.49Z"/><path class="cls-4" d="M228.07,270.22a.78.78,0,0,1-.84.79.77.77,0,0,1-.82-.79.83.83,0,0,1,1.66,0Zm-1.58,7.48v-5.85H228v5.85Z"/><path class="cls-4" d="M231.26,270.19v1.66h1.4V273h-1.4v2.58c0,.7.19,1.08.75,1.08a2,2,0,0,0,.58-.08l0,1.13a3.3,3.3,0,0,1-1.07.15,1.72,1.72,0,0,1-1.27-.49,2.32,2.32,0,0,1-.45-1.63V273H229v-1.11h.84v-1.31Z"/><path class="cls-4" d="M234.7,271.85l1.06,3.13c.12.36.24.81.32,1.14h0c.09-.33.2-.76.31-1.15l.91-3.12h1.58l-1.46,4c-.8,2.18-1.34,3.15-2,3.75a2.92,2.92,0,0,1-1.55.76l-.33-1.25a2.47,2.47,0,0,0,.86-.41,2.64,2.64,0,0,0,.81-.92.57.57,0,0,0,.09-.27.59.59,0,0,0-.08-.28l-2.14-5.37Z"/><path class="cls-4" d="M192.86,289.7V285h-.79v-1.11h.79v-.27c0-1.57,1.09-2.53,2.83-2.53a3.45,3.45,0,0,1,1.61.37l-.33,1.12a2.6,2.6,0,0,0-1.28-.32,1.24,1.24,0,0,0-1.37,1.39v.24h3.49v5.85h-1.49V285h-2v4.74Z"/><path class="cls-4" d="M199.4,281.18h1.49v8.52H199.4Z"/><path class="cls-4" d="M204.17,282.19v1.66h1.41V285h-1.41v2.58c0,.7.2,1.08.76,1.08a1.93,1.93,0,0,0,.57-.08l0,1.13a3.35,3.35,0,0,1-1.07.15,1.72,1.72,0,0,1-1.27-.49,2.32,2.32,0,0,1-.46-1.63V285h-.84v-1.11h.84v-1.31Z"/><path class="cls-4" d="M207.74,287.19a1.58,1.58,0,0,0,1.8,1.51,4.61,4.61,0,0,0,1.62-.26l.21,1a5.57,5.57,0,0,1-2,.36,2.77,2.77,0,0,1-3-3,2.9,2.9,0,0,1,2.86-3.14,2.54,2.54,0,0,1,2.52,2.84,4.06,4.06,0,0,1,0,.63Zm2.56-1a1.25,1.25,0,0,0-1.21-1.43,1.44,1.44,0,0,0-1.35,1.43Z"/><path class="cls-4" d="M212.89,285.74c0-.79,0-1.36,0-1.89h1.28l0,1.12h.05a1.74,1.74,0,0,1,1.59-1.25,1.25,1.25,0,0,1,.35,0v1.39a2.31,2.31,0,0,0-.43,0,1.3,1.3,0,0,0-1.32,1.12,2.81,2.81,0,0,0,0,.45v3h-1.47Z"/><path class="cls-4" d="M218.73,282.22a.83.83,0,0,1-1.66,0,.83.83,0,0,1,1.66,0Zm-1.57,7.48v-5.85h1.49v5.85Z"/><path class="cls-4" d="M220.23,285.59c0-.67,0-1.23,0-1.74h1.3l.07.88h0a2.11,2.11,0,0,1,1.86-1c1,0,2.08.66,2.08,2.51v3.47H224v-3.3c0-.84-.31-1.48-1.11-1.48a1.23,1.23,0,0,0-1.15.87,1.41,1.41,0,0,0-.06.47v3.44h-1.49Z"/><path class="cls-4" d="M232.43,283.85c0,.4-.05.88-.05,1.68v3.31a2.81,2.81,0,0,1-3.12,3.36,4,4,0,0,1-2-.47l.32-1.11a3.57,3.57,0,0,0,1.7.44,1.55,1.55,0,0,0,1.68-1.76v-.5h0a2,2,0,0,1-1.7.86,2.59,2.59,0,0,1-2.49-2.86,2.8,2.8,0,0,1,2.65-3.08,1.83,1.83,0,0,1,1.69.91h0l.06-.78Zm-1.52,2.34a1.27,1.27,0,0,0,0-.39,1.23,1.23,0,0,0-1.2-.95c-.83,0-1.44.72-1.44,1.91,0,1,.5,1.8,1.43,1.8a1.26,1.26,0,0,0,1.2-.89,3.07,3.07,0,0,0,.06-.53Z"/><path class="cls-4" d="M242.92,57.58a5.07,5.07,0,0,1,3.49,3.13c.06.17.55.26.84.26h19.13L264.6,72.23h5.59c-.69,4.35-1.36,8.58-2.05,12.91h6.18c-.22,1.41-.42,2.71-.62,4q-2.22,13.81-4.42,27.64c-.33,2-.65,4.09-1,6.13,0,.22-.32.57-.5.57-1.79,0-3.58,0-5.41,0v-2.19h3.92c1.82-11.32,3.62-22.58,5.44-33.92H226.6L232,121.24h15.47v-4l8.89,5.12c-.27.18-.45.32-.65.43l-7.31,4.23a7,7,0,0,0-.69.53h-.17v-4H230.17c-.07-.34-.14-.6-.18-.87-.36-2.23-.7-4.47-1.06-6.7q-2.06-12.76-4.1-25.51c-.25-1.51-.55-3-.82-4.52v-.83h6.16l-2-12.88h5.6L231.93,61h1c1.41,0,2.82,0,4.23,0,.25,0,.65-.16.72-.34a4.9,4.9,0,0,1,3.55-3Zm-12.18,17,1.69,10.53a1.38,1.38,0,0,0,.31.07l32.59,0c.47,0,.6-.19.66-.62.16-1.23.38-2.46.58-3.68l1-6.32Zm33-11.23c-.1,0-.15-.09-.21-.09H246.89a.79.79,0,0,0-.58.41,4.49,4.49,0,0,1-8.39,0c-.08-.18-.31-.42-.49-.42-.93,0-1.86,0-2.89,0L236,72.26h25.24a1.35,1.35,0,0,0,.57,0c.23-.1.56-.29.59-.48C262.87,68.94,263.31,66.11,263.76,63.3Zm-23.88-1.2a2.26,2.26,0,0,0,2.21,2.23,2.34,2.34,0,0,0,2.29-2.25,2.37,2.37,0,0,0-2.28-2.28A2.28,2.28,0,0,0,239.88,62.1Z"/><path class="cls-4" d="M123.93,257.5a1.74,1.74,0,0,0,1.87,1.14q20,0,40,0a4.93,4.93,0,0,1,5.17,3.86,4.26,4.26,0,0,1,.11,1q0,6.16,0,12.34c0,.14,0,.27,0,.47h-2c0-.29,0-.59,0-.88,0-3.78,0-7.55,0-11.33,0-2.26-1.13-3.39-3.41-3.39H125.1a1.21,1.21,0,0,0-1.25.68,4.16,4.16,0,0,1-7.2,0,.89.89,0,0,0-1.33-.44,2.85,2.85,0,0,0-1.86,2.39,7.86,7.86,0,0,0,0,.84q0,17.34,0,34.66a3,3,0,0,0,1.47,3,2.94,2.94,0,0,0,1.35.37q9.78,0,19.55,0a2.33,2.33,0,0,0,.34,0c-.59-1-1.23-1.94-1.73-3a13.25,13.25,0,0,1-.92-2.51c-.14-.52-.37-.67-.86-.65-.75,0-1.5,0-2.32,0V279h8.63v2.57c1.13-.54,2.19-1,3.22-1.56.17-.09.27-.46.27-.7,0-1.62,0-3.24,0-4.86v-.87h8.68c0,1.8,0,3.56,0,5.31a1.08,1.08,0,0,0,.87,1.26,24.14,24.14,0,0,1,2.56,1.19V267.8h8.66V296c-.67,0-1.36,0-2,0a.87.87,0,0,0-.65.44,14.49,14.49,0,0,1-2.83,5.6c.29,0,.49.08.69.09,2.54,0,5.09,0,7.64,0a2.77,2.77,0,0,0,2.94-2.71c.08-2.62,0-5.25,0-8h-3.83L170,283l4.78,8.37H171v2.4c0,1.77,0,3.53,0,5.29a4.91,4.91,0,0,1-5.16,5.17c-3.24,0-6.49,0-9.73,0a3.5,3.5,0,0,0-1.39.42c-1.17.53-2.27,1.2-3.47,1.64a1.1,1.1,0,0,0-.85,1.26q.06,8.26.07,16.53a6.61,6.61,0,0,1-.14,1h-6.71c0-2.91-.07-5.81-.08-8.72s0-6,0-9a.85.85,0,0,0-.64-1c-1.24-.48-2.41-1.13-3.63-1.66a4.41,4.41,0,0,0-1.7-.49c-7,0-14,0-21,0a5,5,0,0,1-5-3.72c-.09-.37-.16-.74-.25-1.11V263.51c0-.07.11-.13.12-.21.46-2.83,1.55-4,4.33-4.66.16,0,.38-.17.41-.3a4.44,4.44,0,0,1,3.7-3.22C122.07,255.05,123.14,255.8,123.93,257.5Zm27.42,24.56-.27.19V296h-8.65V282.07c-1.11.73-2.06,1.29-2.93,2a1.6,1.6,0,0,0-.53,1.09c0,3.3,0,6.6,0,9.9v1h-3.33a1.19,1.19,0,0,0,0,.34,11.42,11.42,0,0,0,3.44,5.54,1.35,1.35,0,0,0,.84.25h14.18a1.24,1.24,0,0,0,.77-.2,11.48,11.48,0,0,0,3.6-5.95h-3.86v-1c0-3.39,0-6.77,0-10.15a1.31,1.31,0,0,0-.32-.94C153.3,283.22,152.31,282.66,151.35,282.06Zm5.35-12.17a2,2,0,0,0-.07.34c0,4.14,0,8.28,0,12.42a1.62,1.62,0,0,0,.43.94,13.6,13.6,0,0,1,3.75,9.5,6.51,6.51,0,0,0,.07.76l.19,0V269.89ZM149,281.44h-3.72c-.61,0-.77.27-.77.88,0,3.63,0,7.26,0,10.9,0,.21,0,.42.06.63H149Zm-3.26,41.44h2.58V307.06h-2.58Zm-13.34-29c.84.2.67-.36.67-.73a13.09,13.09,0,0,1,3.18-8.77c.84-1,.59-2,.62-3,0-.1-.19-.3-.3-.3-1.38,0-2.76,0-4.17,0Zm12.17-18.17v3.67H149v-3.67Zm-22.17-16.43a2.12,2.12,0,1,0-2.18,2.09A2.14,2.14,0,0,0,122.38,259.24Zm34.29,34.6h2.07a10.47,10.47,0,0,0-2.07-7.15Zm-19.83-6.54a10.55,10.55,0,0,0-1.71,6.55h1.71Zm13.6,17h-6.92A9.66,9.66,0,0,0,150.44,304.31Z"/><path class="cls-4" d="M126.79,273.62v22.31h-8.63V273.62Zm-2.11,20.25v-18.2h-4.42v18.2Z"/><path class="cls-4" d="M92.38,120.26H97c1,0,1.59.46,1.56,1.27S98,122.72,97,122.73h-4.6v1.63c1,0,1.89,0,2.83,0s1.43.44,1.43,1.21-.49,1.21-1.42,1.23H92.36v1.62h4.71c1,0,1.5.48,1.47,1.28s-.54,1.17-1.48,1.18H91.4c-1.21,0-1.64-.44-1.64-1.66v-15.1c-1.29,0-2.51,0-3.73,0a20.65,20.65,0,0,1-2.49-.06,2.56,2.56,0,0,1-2.39-2.67,11,11,0,0,0-2.51-7.12,46.29,46.29,0,0,1-2.94-4.41,18.11,18.11,0,0,1-2.41-9.6,1,1,0,0,0-.49-1.06,4.88,4.88,0,0,1-2.13-5.87A5.05,5.05,0,0,1,76.05,80a1.2,1.2,0,0,0,1.2-.53c4.06-4.84,9.34-6.77,15.55-6.27a18.69,18.69,0,0,1,10.71,4.33A16.58,16.58,0,0,1,109.79,93c-.07.6.1.79.63.94,1.08.32,2.14.7,3.35,1.11L105,102.7c-.79-3.8-1.56-7.47-2.36-11.3l4.53,1.45c1.06-4.48-.93-11.71-8.37-15.44-7-3.51-15.86-1.78-19.71,3.83a5.17,5.17,0,0,1-3.21,8.85,13.35,13.35,0,0,0,1.31,7,37.43,37.43,0,0,0,3.09,5.12c1.41,2,2.78,4,3.2,6.46a11.69,11.69,0,0,1,.16,2.13c0,.58.15.85.76.84,1.74,0,3.49,0,5.3,0v-9.84a7,7,0,0,1-4.83-3.78,6.51,6.51,0,0,1-.42-4.51,6.84,6.84,0,0,1,13.35.74c.39,3-1.13,6.42-5.43,7.56v9.79c2.22,0,4.41,0,6.6,0,.22,0,.54-.45.62-.74.41-1.45.75-2.92,1.14-4.38a7.76,7.76,0,0,1,.49-1.15l2.07,1c-.43,1.84-.84,3.6-1.27,5.36a2.73,2.73,0,0,1-3,2.41c-2.2,0-4.39,0-6.66,0ZM91,99.5a4.29,4.29,0,0,0,4.42-4.25,4.37,4.37,0,0,0-8.74,0A4.28,4.28,0,0,0,91,99.5ZM75.48,82.35A2.61,2.61,0,0,0,72.82,85a2.68,2.68,0,0,0,2.72,2.62A2.64,2.64,0,0,0,78.18,85,2.59,2.59,0,0,0,75.48,82.35Z"/><path class="cls-4" d="M89.76,65.27c0-1,0-1.94,0-2.91s.53-1.48,1.31-1.45,1.22.55,1.23,1.45q0,2.91,0,5.82a1.3,1.3,0,0,1-1.23,1.46c-.76,0-1.29-.55-1.31-1.46S89.76,66.24,89.76,65.27Z"/><path class="cls-4" d="M112.18,68.05a6.51,6.51,0,0,1-.67,1q-2.08,2.1-4.2,4.15a1.29,1.29,0,0,1-2,.14c-.53-.54-.46-1.27.22-1.94,1.4-1.39,2.78-2.8,4.24-4.11a1.8,1.8,0,0,1,1.45-.3C111.62,67.12,111.86,67.67,112.18,68.05Z"/><path class="cls-4" d="M77.44,72.62c-.28.35-.48.83-.8.94a1.54,1.54,0,0,1-1.32-.09c-1.62-1.47-3.18-3-4.72-4.58a1.19,1.19,0,0,1,.09-1.7,1.29,1.29,0,0,1,1.78.07c1,.9,1.87,1.83,2.81,2.75.53.52,1.08,1,1.57,1.57A6,6,0,0,1,77.44,72.62Z"/><path class="cls-4" d="M66.49,110.59c-.33-.26-.84-.45-1-.8a1.5,1.5,0,0,1,.11-1.32c1.48-1.58,3-3.09,4.6-4.58A1.22,1.22,0,0,1,72,104a1.17,1.17,0,0,1,0,1.7c-1.49,1.5-3,3-4.52,4.43A4.54,4.54,0,0,1,66.49,110.59Z"/><path class="cls-4" d="M116.86,109.34c-.24.3-.44.8-.79.92a1.51,1.51,0,0,1-1.32-.11c-1.62-1.48-3.17-3-4.71-4.59a1.17,1.17,0,0,1,.13-1.69,1.26,1.26,0,0,1,1.78.1c1.47,1.43,2.93,2.88,4.39,4.32a.7.7,0,0,1,.16.19C116.61,108.71,116.7,109,116.86,109.34Z"/><path class="cls-4" d="M63.83,86.12c1,0,2,0,3,0a1.3,1.3,0,0,1,1.45,1.24,1.26,1.26,0,0,1-1.38,1.22c-2.05,0-4.11,0-6.16,0a1.21,1.21,0,0,1-1.35-1.24,1.25,1.25,0,0,1,1.36-1.22C61.78,86.1,62.81,86.12,63.83,86.12Z"/><path class="cls-4" d="M118.23,88.57c-1,0-2,0-3.08,0a1.25,1.25,0,0,1-1.35-1.24,1.28,1.28,0,0,1,1.39-1.21c2,0,4.11,0,6.16,0a1.24,1.24,0,0,1,1.34,1.25c0,.71-.52,1.18-1.37,1.2C120.29,88.59,119.26,88.57,118.23,88.57Z"/></svg>