<svg id="Layer_1" data-name="Layer 1" xmlns="http://www.w3.org/2000/svg" viewBox="0 0 1238 484.97"><defs><style>.cls-1{fill:#fcddd6;}.cls-2,.cls-4,.cls-6{fill:none;}.cls-2{stroke:#fbc2ba;}.cls-2,.cls-6{stroke-miterlimit:10;stroke-width:2px;}.cls-3{fill:#4c0519;}.cls-4{stroke:#4c0519;stroke-miterlimit:10;stroke-width:3px;}.cls-5{fill:#fbc2ba;}.cls-6{stroke:#f16c51;}</style></defs><title>robotic-automation</title><polygon class="cls-1" points="415.13 0 415.13 484.96 823.1 484.96 823.1 0.11 415.13 0"/><line class="cls-2" x1="434.23" y1="170.99" x2="804" y2="172.13"/><path class="cls-3" d="M563.42,75h13.17v3.41h-9v6.3H576v3.42h-8.4v9.68h-4.16Z"/><path class="cls-3" d="M595.2,89.44c0,6.06-4.26,8.77-8.46,8.77-4.67,0-8.26-3.22-8.26-8.5S582,81,587,81,595.2,84.43,595.2,89.44Zm-12.42.17c0,3.18,1.56,5.59,4.1,5.59,2.37,0,4-2.34,4-5.66,0-2.57-1.15-5.51-4-5.51S582.78,86.87,582.78,89.61Z"/><path class="cls-3" d="M610.74,97.33a12.17,12.17,0,0,1-4.67.85c-5.14,0-8.49-3.29-8.49-8.4,0-4.94,3.38-8.8,9.17-8.8a10.33,10.33,0,0,1,4,.78L610,84.87a7.43,7.43,0,0,0-3.15-.64c-3.18,0-5.07,2.34-5,5.35,0,3.38,2.2,5.31,5,5.31a8.17,8.17,0,0,0,3.29-.64Z"/><path class="cls-3" d="M628.58,92.89c0,2,.07,3.59.13,5h-3.65l-.2-2.51h-.07a6,6,0,0,1-5.28,2.88c-3,0-5.75-1.8-5.75-7.18V81.35h4.16v9c0,2.74.88,4.5,3.08,4.5a3.5,3.5,0,0,0,3.18-2.23,3.66,3.66,0,0,0,.24-1.29v-10h4.16Z"/><path class="cls-3" d="M632.88,94a9.23,9.23,0,0,0,4.23,1.19c1.83,0,2.64-.75,2.64-1.83s-.67-1.69-2.71-2.4c-3.21-1.12-4.56-2.88-4.53-4.81,0-2.91,2.4-5.18,6.23-5.18a9.79,9.79,0,0,1,4.36,1l-.81,3a7.35,7.35,0,0,0-3.49-1c-1.49,0-2.3.71-2.3,1.73s.78,1.55,2.88,2.3c3,1.08,4.37,2.6,4.4,5,0,3-2.34,5.15-6.7,5.15a10.59,10.59,0,0,1-5-1.16Z"/><path class="cls-3" d="M663.48,97.84,663.21,96h-.1a6.12,6.12,0,0,1-4.88,2.2,4.89,4.89,0,0,1-5.17-4.91c0-4.16,3.69-6.26,9.78-6.23V86.8c0-1.08-.44-2.87-3.35-2.87a8.75,8.75,0,0,0-4.44,1.21l-.81-2.7a11.81,11.81,0,0,1,6-1.46c5.28,0,6.8,3.35,6.8,6.94v6a26.32,26.32,0,0,0,.24,4Zm-.54-8.06c-3-.07-5.76.58-5.76,3.08a2.18,2.18,0,0,0,2.37,2.37A3.36,3.36,0,0,0,662.8,93a3,3,0,0,0,.14-.91Z"/><path class="cls-3" d="M671.4,86.67c0-2.24,0-3.83-.13-5.32h3.62L675,84.5h.14a4.92,4.92,0,0,1,4.5-3.52,4.84,4.84,0,0,1,1,.1V85a5.62,5.62,0,0,0-1.22-.14A3.67,3.67,0,0,0,675.7,88a6.94,6.94,0,0,0-.13,1.29v8.53H671.4Z"/><path class="cls-3" d="M686.09,90.76c.11,3,2.44,4.27,5.08,4.27a12.24,12.24,0,0,0,4.57-.75l.61,2.88a15.63,15.63,0,0,1-5.75,1c-5.35,0-8.5-3.29-8.5-8.33,0-4.57,2.78-8.87,8.06-8.87s7.1,4.4,7.1,8a11.21,11.21,0,0,1-.13,1.76Zm7.25-2.91c0-1.52-.65-4-3.42-4-2.57,0-3.66,2.34-3.83,4Z"/><path class="cls-3" d="M709.89,97.84,709.62,96h-.1a6.12,6.12,0,0,1-4.88,2.2,4.89,4.89,0,0,1-5.17-4.91c0-4.16,3.68-6.26,9.78-6.23V86.8c0-1.08-.44-2.87-3.35-2.87a8.75,8.75,0,0,0-4.44,1.21l-.81-2.7a11.81,11.81,0,0,1,6-1.46c5.28,0,6.8,3.35,6.8,6.94v6a26.32,26.32,0,0,0,.24,4Zm-.54-8.06c-3-.07-5.76.58-5.76,3.08A2.18,2.18,0,0,0,706,95.23,3.36,3.36,0,0,0,709.21,93a3,3,0,0,0,.14-.91Z"/><path class="cls-3" d="M717.61,94a9.23,9.23,0,0,0,4.23,1.19c1.83,0,2.64-.75,2.64-1.83s-.68-1.69-2.71-2.4c-3.21-1.12-4.57-2.88-4.53-4.81,0-2.91,2.4-5.18,6.22-5.18a9.8,9.8,0,0,1,4.37,1l-.81,3a7.35,7.35,0,0,0-3.49-1c-1.49,0-2.3.71-2.3,1.73s.78,1.55,2.88,2.3c3,1.08,4.36,2.6,4.4,5,0,3-2.34,5.15-6.7,5.15a10.59,10.59,0,0,1-5-1.16Z"/><path class="cls-3" d="M502.26,224.35c-2.31-.61-4.57-1.29-6.55-2a3.42,3.42,0,0,0-1-.25c-4.06-.15-7.54-3.15-7.54-8.66s3.35-9,8-9,7.67,3.6,7.67,8.66c0,4.39-2,7.21-4.88,8.2v.1c1.71.43,3.56.84,5,1.09Zm-1.83-11.14c0-3.43-1.77-7-5.4-7s-5.57,3.45-5.54,7.16,2,6.91,5.43,6.91S500.43,217.12,500.43,213.21Z"/><path class="cls-3" d="M515.92,218.49c0,1.27,0,2.39.1,3.35h-2l-.13-2h0a4.62,4.62,0,0,1-4.06,2.29c-1.93,0-4.24-1.07-4.24-5.38v-7.19h2.23v6.81c0,2.33.72,3.91,2.75,3.91a3.22,3.22,0,0,0,2.94-2,3.17,3.17,0,0,0,.21-1.14v-7.54h2.23Z"/><path class="cls-3" d="M526.43,221.84l-.18-1.55h-.07a4.58,4.58,0,0,1-3.76,1.83,3.5,3.5,0,0,1-3.76-3.53c0-3,2.64-4.6,7.39-4.57v-.25a2.54,2.54,0,0,0-2.79-2.85,6.09,6.09,0,0,0-3.2.92l-.51-1.48a7.65,7.65,0,0,1,4-1.09c3.75,0,4.67,2.57,4.67,5v4.59a17.62,17.62,0,0,0,.2,3Zm-.33-6.27c-2.44,0-5.2.38-5.2,2.77a2,2,0,0,0,2.1,2.13,3.05,3.05,0,0,0,3-2.06,2.22,2.22,0,0,0,.13-.71Z"/><path class="cls-3" d="M531.86,203.81h2.24v18h-2.24Z"/><path class="cls-3" d="M540.34,206.1a1.38,1.38,0,0,1-2.76,0,1.36,1.36,0,0,1,1.39-1.4A1.33,1.33,0,0,1,540.34,206.1Zm-2.49,15.74V209.55h2.24v12.29Z"/><path class="cls-3" d="M546.49,206v3.53h3.2v1.7h-3.2v6.63c0,1.52.43,2.39,1.67,2.39a4.76,4.76,0,0,0,1.3-.16l.1,1.68a5.44,5.44,0,0,1-2,.3,3.09,3.09,0,0,1-2.41-.94,4.51,4.51,0,0,1-.87-3.19v-6.71h-1.9v-1.7h1.9v-2.94Z"/><path class="cls-3" d="M553.24,209.55l2.69,7.26c.28.82.58,1.78.79,2.52h0c.23-.74.48-1.68.78-2.57l2.44-7.21h2.36L559,218.31c-1.6,4.22-2.69,6.37-4.21,7.69a6,6,0,0,1-2.75,1.45l-.55-1.88a6,6,0,0,0,2-1.09,6.72,6.72,0,0,0,1.88-2.49,1.63,1.63,0,0,0,.18-.53,1.87,1.87,0,0,0-.15-.58l-4.55-11.33Z"/><path class="cls-3" d="M487.84,274.54a7.83,7.83,0,0,0,4,1.11c2.26,0,3.58-1.19,3.58-2.92s-.91-2.51-3.22-3.4c-2.8-1-4.52-2.44-4.52-4.85,0-2.66,2.21-4.64,5.53-4.64a7.87,7.87,0,0,1,3.79.83l-.61,1.81a6.77,6.77,0,0,0-3.25-.82c-2.34,0-3.23,1.4-3.23,2.57,0,1.6,1,2.39,3.4,3.3,2.9,1.12,4.37,2.51,4.37,5s-1.95,4.92-6,4.92a8.87,8.87,0,0,1-4.37-1.09Z"/><path class="cls-3" d="M507.47,277.23l-.18-1.55h-.08a4.58,4.58,0,0,1-3.76,1.83A3.5,3.5,0,0,1,499.7,274c0-3,2.64-4.6,7.38-4.57v-.26a2.53,2.53,0,0,0-2.79-2.84,6.23,6.23,0,0,0-3.2.91l-.51-1.47a7.65,7.65,0,0,1,4-1.09c3.76,0,4.67,2.56,4.67,5v4.59a16.55,16.55,0,0,0,.21,3Zm-.33-6.27c-2.44,0-5.21.38-5.21,2.76a2,2,0,0,0,2.11,2.14,3.06,3.06,0,0,0,3-2.06,2.53,2.53,0,0,0,.13-.71Z"/><path class="cls-3" d="M513.13,277.23V266.64H511.4v-1.7h1.73v-.58a5.83,5.83,0,0,1,1.42-4.3,4.27,4.27,0,0,1,3-1.14,5.14,5.14,0,0,1,1.91.36l-.31,1.72a3.34,3.34,0,0,0-1.42-.28c-1.9,0-2.38,1.68-2.38,3.56v.66h3v1.7h-3v10.59Z"/><path class="cls-3" d="M521.23,271.49c0,3,2,4.27,4.21,4.27a8,8,0,0,0,3.4-.64l.38,1.6a9.83,9.83,0,0,1-4.08.76c-3.79,0-6-2.49-6-6.19s2.19-6.63,5.77-6.63c4,0,5.07,3.53,5.07,5.79a10,10,0,0,1-.07,1Zm6.55-1.6c0-1.42-.59-3.63-3.1-3.63-2.26,0-3.25,2.08-3.43,3.63Z"/><path class="cls-3" d="M535.39,261.41v3.53h3.2v1.7h-3.2v6.63c0,1.52.43,2.38,1.68,2.38a4.81,4.81,0,0,0,1.29-.15l.1,1.68a5.4,5.4,0,0,1-2,.3,3.1,3.1,0,0,1-2.41-.94,4.57,4.57,0,0,1-.86-3.2v-6.7H531.3v-1.7h1.91V262Z"/><path class="cls-3" d="M542.15,264.94l2.69,7.26c.28.81.58,1.78.78,2.52h0c.23-.74.49-1.68.79-2.57l2.44-7.21h2.36l-3.35,8.76c-1.6,4.21-2.69,6.37-4.22,7.69a6,6,0,0,1-2.74,1.45l-.56-1.88a5.92,5.92,0,0,0,2-1.09,6.8,6.8,0,0,0,1.88-2.49,1.71,1.71,0,0,0,.18-.53,2.09,2.09,0,0,0-.16-.59l-4.54-11.32Z"/><path class="cls-3" d="M487.84,329.93a7.83,7.83,0,0,0,4,1.11c2.26,0,3.58-1.19,3.58-2.92s-.91-2.51-3.22-3.4c-2.8-1-4.52-2.44-4.52-4.85,0-2.67,2.21-4.65,5.53-4.65a7.85,7.85,0,0,1,3.79.84l-.61,1.81a6.77,6.77,0,0,0-3.25-.82c-2.34,0-3.23,1.4-3.23,2.57,0,1.6,1,2.38,3.4,3.3,2.9,1.12,4.37,2.51,4.37,5s-1.95,4.92-6,4.92a8.87,8.87,0,0,1-4.37-1.09Z"/><path class="cls-3" d="M510.87,329.27c0,1.27,0,2.38.1,3.35h-2l-.13-2h-.05a4.62,4.62,0,0,1-4.06,2.29c-1.93,0-4.24-1.07-4.24-5.39v-7.18h2.23v6.8c0,2.34.71,3.91,2.75,3.91a3.24,3.24,0,0,0,2.94-2,3.17,3.17,0,0,0,.2-1.14v-7.54h2.24Z"/><path class="cls-3" d="M514.57,324.16c0-1.45,0-2.69-.1-3.83h2l.07,2.41h.11a3.67,3.67,0,0,1,3.4-2.69,2.43,2.43,0,0,1,.63.07v2.11a3.39,3.39,0,0,0-.76-.07,3.14,3.14,0,0,0-3,2.87,6.33,6.33,0,0,0-.1,1v6.55h-2.21Z"/><path class="cls-3" d="M524.37,320.33l2.42,6.9c.4,1.12.73,2.14,1,3.15h.07c.28-1,.64-2,1-3.15l2.39-6.9h2.34l-4.83,12.29h-2.13L522,320.33Z"/><path class="cls-3" d="M536.71,326.88a3.93,3.93,0,0,0,4.22,4.26,8,8,0,0,0,3.4-.63l.38,1.6a10.06,10.06,0,0,1-4.09.76c-3.78,0-6-2.49-6-6.19s2.18-6.63,5.76-6.63c4,0,5.08,3.53,5.08,5.79a10.18,10.18,0,0,1-.07,1Zm6.55-1.6c0-1.42-.58-3.63-3.09-3.63-2.26,0-3.25,2.08-3.43,3.63Z"/><path class="cls-3" d="M550.68,316.87a1.39,1.39,0,0,1-2.77,0,1.36,1.36,0,0,1,1.4-1.39A1.33,1.33,0,0,1,550.68,316.87Zm-2.49,15.75V320.33h2.23v12.29Z"/><path class="cls-3" d="M554.13,314.59h2.23v18h-2.23Z"/><path class="cls-3" d="M560.12,314.59h2.23v18h-2.23Z"/><path class="cls-3" d="M572.92,332.62l-.18-1.55h-.08a4.58,4.58,0,0,1-3.76,1.83,3.5,3.5,0,0,1-3.75-3.53c0-3,2.64-4.6,7.39-4.57v-.26a2.54,2.54,0,0,0-2.8-2.84,6.13,6.13,0,0,0-3.2.91l-.5-1.47a7.58,7.58,0,0,1,4-1.09c3.76,0,4.67,2.56,4.67,5v4.59a16.55,16.55,0,0,0,.21,2.95Zm-.33-6.27c-2.44-.06-5.21.38-5.21,2.76a2,2,0,0,0,2.11,2.14,3.06,3.06,0,0,0,3-2.06,2.22,2.22,0,0,0,.13-.71Z"/><path class="cls-3" d="M578.35,323.65c0-1.27,0-2.31-.1-3.32h2l.12,2h.06a4.5,4.5,0,0,1,4.06-2.31c1.7,0,4.34,1,4.34,5.23v7.34h-2.23v-7.09c0-2-.74-3.63-2.85-3.63a3.17,3.17,0,0,0-3,2.29,3,3,0,0,0-.16,1v7.39h-2.23Z"/><path class="cls-3" d="M601.2,332.16a8.3,8.3,0,0,1-3.53.71c-3.71,0-6.12-2.51-6.12-6.27a6.25,6.25,0,0,1,6.6-6.53,7.39,7.39,0,0,1,3.1.64l-.51,1.73a5.1,5.1,0,0,0-2.59-.59c-2.82,0-4.34,2.08-4.34,4.65,0,2.84,1.83,4.59,4.27,4.59a6.34,6.34,0,0,0,2.74-.61Z"/><path class="cls-3" d="M604.91,326.88c.05,3,2,4.26,4.21,4.26a8,8,0,0,0,3.4-.63l.38,1.6a10,10,0,0,1-4.08.76c-3.79,0-6.05-2.49-6.05-6.19s2.19-6.63,5.77-6.63c4,0,5.07,3.53,5.07,5.79a10.18,10.18,0,0,1-.07,1Zm6.55-1.6c0-1.42-.59-3.63-3.1-3.63-2.26,0-3.25,2.08-3.43,3.63Z"/><path class="cls-3" d="M490.35,370.89V388h-2.21V370.89Z"/><path class="cls-3" d="M494.39,379c0-1.27,0-2.31-.1-3.32h1.95l.1,2h.08a4.24,4.24,0,0,1,3.86-2.26,3.62,3.62,0,0,1,3.48,2.46h.05a5,5,0,0,1,1.37-1.6,4.2,4.2,0,0,1,2.72-.86c1.62,0,4,1.06,4,5.33V388h-2.18v-7c0-2.36-.86-3.78-2.67-3.78a2.9,2.9,0,0,0-2.64,2,3.7,3.7,0,0,0-.17,1.11V388h-2.19v-7.37c0-1.95-.86-3.37-2.56-3.37a3,3,0,0,0-2.77,2.23,3,3,0,0,0-.18,1.09V388h-2.18Z"/><path class="cls-3" d="M522.37,388l-.18-1.55h-.08a4.57,4.57,0,0,1-3.75,1.83,3.51,3.51,0,0,1-3.76-3.53c0-3,2.64-4.6,7.39-4.57v-.26a2.54,2.54,0,0,0-2.8-2.84A6.07,6.07,0,0,0,516,378l-.51-1.47a7.61,7.61,0,0,1,4-1.09c3.76,0,4.68,2.56,4.68,5v4.6a17.62,17.62,0,0,0,.2,2.95Zm-.33-6.28c-2.44-.05-5.21.39-5.21,2.77a2,2,0,0,0,2.11,2.13,3,3,0,0,0,3-2.05,2.22,2.22,0,0,0,.13-.71Z"/><path class="cls-3" d="M538.39,375.72c0,.89-.1,1.88-.1,3.37v7.14c0,2.82-.56,4.54-1.75,5.61a6.51,6.51,0,0,1-4.47,1.47,7.92,7.92,0,0,1-4.09-1l.56-1.7a7,7,0,0,0,3.6,1c2.29,0,4-1.19,4-4.29V385.9h-.05a4.37,4.37,0,0,1-3.91,2.05c-3,0-5.23-2.58-5.23-6,0-4.16,2.72-6.52,5.54-6.52a4.07,4.07,0,0,1,3.83,2.13h.05l.1-1.85Zm-2.31,4.85a3.28,3.28,0,0,0-.13-1,3.23,3.23,0,0,0-3.12-2.36c-2.13,0-3.66,1.8-3.66,4.65,0,2.41,1.22,4.41,3.63,4.41a3.27,3.27,0,0,0,3.1-2.28,3.78,3.78,0,0,0,.18-1.19Z"/><path class="cls-3" d="M543.24,382.27c0,3,2,4.26,4.21,4.26a8.14,8.14,0,0,0,3.4-.63l.38,1.6a10,10,0,0,1-4.08.76c-3.79,0-6-2.49-6-6.2s2.19-6.62,5.77-6.62c4,0,5.08,3.53,5.08,5.79a9.62,9.62,0,0,1-.08,1Zm6.55-1.6c0-1.42-.59-3.63-3.1-3.63-2.26,0-3.25,2.08-3.43,3.63Z"/><path class="cls-3" d="M558.21,389l7.09-18.41H567L559.92,389Z"/><path class="cls-3" d="M575.05,375.72l2.41,6.9a30.36,30.36,0,0,1,1,3.15h.08c.27-1,.63-2,1-3.15l2.38-6.9h2.34L579.46,388h-2.13l-4.67-12.29Z"/><path class="cls-3" d="M588.88,372.26a1.38,1.38,0,0,1-2.76,0,1.36,1.36,0,0,1,1.39-1.39A1.32,1.32,0,0,1,588.88,372.26ZM586.4,388V375.72h2.23V388Z"/><path class="cls-3" d="M603,370v14.85c0,1.09,0,2.34.1,3.18h-2l-.1-2.14h-.05a4.54,4.54,0,0,1-4.19,2.42c-3,0-5.25-2.52-5.25-6.25,0-4.09,2.51-6.6,5.51-6.6a4.09,4.09,0,0,1,3.7,1.88h.05V370Zm-2.24,10.74a3.76,3.76,0,0,0-.1-.94,3.29,3.29,0,0,0-3.22-2.59c-2.31,0-3.68,2-3.68,4.75,0,2.49,1.22,4.54,3.63,4.54a3.35,3.35,0,0,0,3.27-2.66,3.75,3.75,0,0,0,.1-1Z"/><path class="cls-3" d="M607.9,382.27c.05,3,2,4.26,4.21,4.26a8.22,8.22,0,0,0,3.41-.63l.38,1.6a10.1,10.1,0,0,1-4.09.76c-3.78,0-6-2.49-6-6.2s2.18-6.62,5.76-6.62c4,0,5.08,3.53,5.08,5.79a7.57,7.57,0,0,1-.08,1Zm6.55-1.6c0-1.42-.58-3.63-3.1-3.63-2.26,0-3.25,2.08-3.43,3.63Z"/><path class="cls-3" d="M630.5,381.76c0,4.54-3.15,6.53-6.12,6.53-3.33,0-5.89-2.44-5.89-6.33,0-4.11,2.69-6.52,6.09-6.52S630.5,378,630.5,381.76Zm-9.75.13c0,2.69,1.54,4.72,3.73,4.72s3.73-2,3.73-4.77c0-2.09-1-4.73-3.68-4.73S620.75,379.55,620.75,381.89Z"/><path class="cls-3" d="M494.87,413.39l-.17-1.54h-.08a4.6,4.6,0,0,1-3.76,1.82,3.5,3.5,0,0,1-3.76-3.53c0-3,2.64-4.59,7.39-4.57v-.25a2.53,2.53,0,0,0-2.79-2.84,6.11,6.11,0,0,0-3.2.91l-.51-1.47a7.65,7.65,0,0,1,4-1.09c3.76,0,4.67,2.56,4.67,5v4.6a17.41,17.41,0,0,0,.2,2.94Zm-.33-6.27c-2.43-.05-5.2.38-5.2,2.77a2,2,0,0,0,2.11,2.13,3.07,3.07,0,0,0,3-2,2.58,2.58,0,0,0,.12-.71Z"/><path class="cls-3" d="M500.31,404.43c0-1.27,0-2.31-.11-3.33h2l.13,2h.05a4.51,4.51,0,0,1,4.06-2.31c1.71,0,4.35,1,4.35,5.23v7.33h-2.24v-7.08c0-2-.73-3.63-2.84-3.63a3.18,3.18,0,0,0-3,2.28,3.28,3.28,0,0,0-.15,1.05v7.38h-2.23Z"/><path class="cls-3" d="M521.2,413.39l-.18-1.54H521a4.6,4.6,0,0,1-3.76,1.82,3.5,3.5,0,0,1-3.76-3.53c0-3,2.64-4.59,7.39-4.57v-.25a2.53,2.53,0,0,0-2.79-2.84,6.08,6.08,0,0,0-3.2.91l-.51-1.47a7.65,7.65,0,0,1,4-1.09c3.76,0,4.67,2.56,4.67,5v4.6a17.41,17.41,0,0,0,.2,2.94Zm-.33-6.27c-2.44-.05-5.2.38-5.2,2.77a2,2,0,0,0,2.1,2.13,3,3,0,0,0,3-2,2.27,2.27,0,0,0,.13-.71Z"/><path class="cls-3" d="M526.63,395.37h2.24v18h-2.24Z"/><path class="cls-3" d="M533.44,401.1l2.69,7.27c.28.81.58,1.77.79,2.51H537c.23-.74.48-1.68.78-2.56l2.44-7.22h2.36l-3.35,8.76c-1.6,4.22-2.69,6.38-4.21,7.7a6.26,6.26,0,0,1-2.75,1.45l-.55-1.88a6,6,0,0,0,1.95-1.1,6.76,6.76,0,0,0,1.88-2.48,1.67,1.67,0,0,0,.18-.54,1.81,1.81,0,0,0-.16-.58L531,401.1Z"/><path class="cls-3" d="M547.27,397.58v3.52h3.2v1.71h-3.2v6.62c0,1.53.44,2.39,1.68,2.39a5.36,5.36,0,0,0,1.3-.15l.1,1.67a5.45,5.45,0,0,1-2,.31,3.12,3.12,0,0,1-2.42-.94,4.57,4.57,0,0,1-.86-3.2v-6.7h-1.9V401.1h1.9v-2.94Z"/><path class="cls-3" d="M555.47,397.65a1.31,1.31,0,0,1-1.42,1.37,1.33,1.33,0,0,1-1.34-1.37,1.35,1.35,0,0,1,1.39-1.39A1.32,1.32,0,0,1,555.47,397.65ZM553,413.39V401.1h2.23v12.29Z"/><path class="cls-3" d="M567.69,412.94a8.33,8.33,0,0,1-3.53.71c-3.71,0-6.12-2.52-6.12-6.27a6.24,6.24,0,0,1,6.6-6.53,7.39,7.39,0,0,1,3.1.64l-.51,1.72a5.23,5.23,0,0,0-2.59-.58c-2.82,0-4.34,2.08-4.34,4.64,0,2.85,1.83,4.6,4.26,4.6a6.39,6.39,0,0,0,2.75-.61Z"/><path class="cls-3" d="M570,411.11a5.84,5.84,0,0,0,2.94.89c1.63,0,2.39-.82,2.39-1.83s-.64-1.65-2.29-2.26c-2.21-.79-3.25-2-3.25-3.48,0-2,1.6-3.6,4.24-3.6a6.05,6.05,0,0,1,3,.76l-.55,1.62a4.89,4.89,0,0,0-2.52-.71c-1.32,0-2.05.76-2.05,1.68s.73,1.47,2.33,2.08c2.13.81,3.23,1.88,3.23,3.71,0,2.15-1.68,3.68-4.6,3.68a7,7,0,0,1-3.45-.84Z"/><path class="cls-3" d="M585.53,405.7v1.65h-6.27V405.7Z"/><path class="cls-3" d="M588.05,413.39c.05-.83.1-2.08.1-3.17V395.37h2.21v7.72h0a4.57,4.57,0,0,1,4.19-2.26c3,0,5.2,2.53,5.18,6.27,0,4.39-2.77,6.57-5.51,6.57a4.38,4.38,0,0,1-4.12-2.31h-.07l-.1,2Zm2.31-4.92a4.17,4.17,0,0,0,.1.81,3.45,3.45,0,0,0,3.35,2.62c2.34,0,3.73-1.91,3.73-4.73,0-2.46-1.27-4.57-3.65-4.57a3.57,3.57,0,0,0-3.41,2.75,4.37,4.37,0,0,0-.12.91Z"/><path class="cls-3" d="M609.4,413.39l-.18-1.54h-.08a4.56,4.56,0,0,1-3.75,1.82,3.5,3.5,0,0,1-3.76-3.53c0-3,2.64-4.59,7.39-4.57v-.25a2.53,2.53,0,0,0-2.8-2.84,6.07,6.07,0,0,0-3.19.91l-.51-1.47a7.61,7.61,0,0,1,4-1.09c3.76,0,4.68,2.56,4.68,5v4.6a17.41,17.41,0,0,0,.2,2.94Zm-.33-6.27c-2.44-.05-5.21.38-5.21,2.77A2,2,0,0,0,606,412a3,3,0,0,0,3-2,2.27,2.27,0,0,0,.13-.71Z"/><path class="cls-3" d="M614.53,411.11a5.84,5.84,0,0,0,2.94.89c1.63,0,2.39-.82,2.39-1.83s-.64-1.65-2.29-2.26c-2.21-.79-3.25-2-3.25-3.48,0-2,1.6-3.6,4.24-3.6a6.05,6.05,0,0,1,3,.76l-.55,1.62a4.85,4.85,0,0,0-2.52-.71c-1.32,0-2,.76-2,1.68s.73,1.47,2.33,2.08c2.13.81,3.23,1.88,3.23,3.71,0,2.15-1.68,3.68-4.6,3.68a7,7,0,0,1-3.45-.84Z"/><path class="cls-3" d="M626.13,407.66c0,3,2,4.26,4.21,4.26a8.22,8.22,0,0,0,3.41-.63l.38,1.6a10.1,10.1,0,0,1-4.09.76c-3.78,0-6-2.49-6-6.2s2.18-6.62,5.76-6.62c4,0,5.08,3.52,5.08,5.78a7.61,7.61,0,0,1-.08,1.05Zm6.55-1.6c0-1.43-.58-3.63-3.1-3.63-2.26,0-3.25,2.08-3.43,3.63Z"/><path class="cls-3" d="M648.22,395.37v14.85c0,1.09,0,2.34.1,3.17h-2l-.1-2.13h-.05a4.54,4.54,0,0,1-4.19,2.41c-3,0-5.25-2.51-5.25-6.24,0-4.09,2.51-6.6,5.51-6.6a4.1,4.1,0,0,1,3.7,1.87H646v-7.33ZM646,406.11a3.76,3.76,0,0,0-.1-.94,3.29,3.29,0,0,0-3.22-2.59c-2.31,0-3.68,2-3.68,4.75,0,2.48,1.21,4.54,3.63,4.54a3.35,3.35,0,0,0,3.27-2.67,3.63,3.63,0,0,0,.1-1Z"/><path class="cls-3" d="M667.92,395.37v14.85c0,1.09,0,2.34.1,3.17h-2l-.1-2.13h0a4.54,4.54,0,0,1-4.19,2.41c-3,0-5.25-2.51-5.25-6.24,0-4.09,2.51-6.6,5.51-6.6a4.08,4.08,0,0,1,3.7,1.87h0v-7.33Zm-2.24,10.74a3.76,3.76,0,0,0-.1-.94,3.29,3.29,0,0,0-3.22-2.59c-2.31,0-3.68,2-3.68,4.75,0,2.48,1.22,4.54,3.63,4.54a3.35,3.35,0,0,0,3.27-2.67,3.63,3.63,0,0,0,.1-1Z"/><path class="cls-3" d="M678.43,413.39l-.18-1.54h-.07a4.6,4.6,0,0,1-3.76,1.82,3.5,3.5,0,0,1-3.76-3.53c0-3,2.64-4.59,7.39-4.57v-.25a2.53,2.53,0,0,0-2.79-2.84,6.08,6.08,0,0,0-3.2.91l-.51-1.47a7.62,7.62,0,0,1,4-1.09c3.75,0,4.67,2.56,4.67,5v4.6a17.41,17.41,0,0,0,.2,2.94Zm-.33-6.27c-2.44-.05-5.21.38-5.21,2.77A2,2,0,0,0,675,412a3,3,0,0,0,3-2,2.27,2.27,0,0,0,.13-.71Z"/><path class="cls-3" d="M683.86,404.43c0-1.27,0-2.31-.1-3.33h2l.1,2h.07a4.24,4.24,0,0,1,3.86-2.26,3.62,3.62,0,0,1,3.48,2.46h0a5.09,5.09,0,0,1,1.37-1.6,4.2,4.2,0,0,1,2.72-.86c1.63,0,4,1.06,4,5.33v7.23h-2.19v-6.95c0-2.36-.86-3.79-2.66-3.79a2.89,2.89,0,0,0-2.64,2,3.81,3.81,0,0,0-.18,1.12v7.59h-2.18V406c0-1.95-.87-3.38-2.57-3.38a3.06,3.06,0,0,0-2.77,2.24,3.23,3.23,0,0,0-.17,1.09v7.41h-2.19Z"/><path class="cls-3" d="M711.84,413.39l-.18-1.54h-.07a4.6,4.6,0,0,1-3.76,1.82,3.5,3.5,0,0,1-3.76-3.53c0-3,2.64-4.59,7.39-4.57v-.25a2.53,2.53,0,0,0-2.79-2.84,6.08,6.08,0,0,0-3.2.91l-.51-1.47a7.65,7.65,0,0,1,4-1.09c3.75,0,4.67,2.56,4.67,5v4.6a17.41,17.41,0,0,0,.2,2.94Zm-.33-6.27c-2.44-.05-5.2.38-5.2,2.77a2,2,0,0,0,2.1,2.13,3,3,0,0,0,3-2,2.27,2.27,0,0,0,.13-.71Z"/><path class="cls-3" d="M727.86,401.1c-.05.89-.1,1.88-.1,3.38v7.14c0,2.81-.56,4.54-1.75,5.61a6.51,6.51,0,0,1-4.47,1.47,7.85,7.85,0,0,1-4.09-1L718,416a6.9,6.9,0,0,0,3.61,1c2.28,0,4-1.19,4-4.29v-1.37h-.05a4.4,4.4,0,0,1-3.91,2c-3,0-5.24-2.59-5.24-6,0-4.16,2.72-6.52,5.54-6.52a4.07,4.07,0,0,1,3.83,2.13h0l.11-1.86ZM725.55,406a2.91,2.91,0,0,0-.13-1,3.2,3.2,0,0,0-3.12-2.36c-2.13,0-3.66,1.8-3.66,4.64,0,2.42,1.22,4.42,3.64,4.42a3.25,3.25,0,0,0,3.09-2.28,3.84,3.84,0,0,0,.18-1.2Z"/><path class="cls-3" d="M732.71,407.66c0,3,2,4.26,4.21,4.26a8.22,8.22,0,0,0,3.41-.63l.38,1.6a10.1,10.1,0,0,1-4.09.76c-3.78,0-6-2.49-6-6.2s2.18-6.62,5.76-6.62c4,0,5.08,3.52,5.08,5.78a7.61,7.61,0,0,1-.08,1.05Zm6.55-1.6c0-1.43-.58-3.63-3.1-3.63-2.26,0-3.25,2.08-3.43,3.63Z"/><path class="cls-3" d="M494.87,438.78l-.17-1.55h-.08a4.58,4.58,0,0,1-3.76,1.83,3.5,3.5,0,0,1-3.76-3.53c0-3,2.64-4.59,7.39-4.57v-.25a2.54,2.54,0,0,0-2.79-2.85,6.11,6.11,0,0,0-3.2.92l-.51-1.47a7.65,7.65,0,0,1,4-1.1c3.76,0,4.67,2.57,4.67,5v4.6a17.57,17.57,0,0,0,.2,2.94Zm-.33-6.27c-2.43-.05-5.2.38-5.2,2.77a2,2,0,0,0,2.11,2.13,3.06,3.06,0,0,0,3-2.06,2.46,2.46,0,0,0,.12-.71Z"/><path class="cls-3" d="M500,436.5a5.88,5.88,0,0,0,2.95.89c1.62,0,2.38-.82,2.38-1.83s-.63-1.65-2.28-2.26c-2.21-.79-3.25-2-3.25-3.48,0-2,1.6-3.61,4.24-3.61a6.11,6.11,0,0,1,3,.77l-.56,1.62a4.81,4.81,0,0,0-2.51-.71c-1.32,0-2.06.76-2.06,1.68s.74,1.47,2.34,2.08c2.13.81,3.22,1.88,3.22,3.7,0,2.16-1.67,3.69-4.59,3.69a7,7,0,0,1-3.46-.84Z"/><path class="cls-3" d="M510.05,436.5a5.88,5.88,0,0,0,2.95.89c1.62,0,2.39-.82,2.39-1.83s-.64-1.65-2.29-2.26c-2.21-.79-3.25-2-3.25-3.48,0-2,1.6-3.61,4.24-3.61a6,6,0,0,1,3,.77l-.56,1.62a4.81,4.81,0,0,0-2.51-.71c-1.32,0-2.06.76-2.06,1.68s.74,1.47,2.34,2.08c2.13.81,3.22,1.88,3.22,3.7,0,2.16-1.67,3.69-4.59,3.69a7,7,0,0,1-3.45-.84Z"/><path class="cls-3" d="M521.66,433c.05,3,2,4.27,4.21,4.27a8.14,8.14,0,0,0,3.4-.63l.39,1.59a9.89,9.89,0,0,1-4.09.77c-3.79,0-6.05-2.49-6.05-6.2s2.19-6.63,5.77-6.63c4,0,5.08,3.53,5.08,5.79a7.3,7.3,0,0,1-.08,1Zm6.55-1.6c0-1.42-.59-3.63-3.1-3.63-2.26,0-3.25,2.09-3.43,3.63Z"/><path class="cls-3" d="M532.83,436.5a5.87,5.87,0,0,0,2.94.89c1.63,0,2.39-.82,2.39-1.83s-.63-1.65-2.29-2.26c-2.2-.79-3.25-2-3.25-3.48,0-2,1.6-3.61,4.25-3.61a6.11,6.11,0,0,1,3,.77l-.56,1.62a4.82,4.82,0,0,0-2.52-.71c-1.32,0-2,.76-2,1.68s.73,1.47,2.33,2.08c2.14.81,3.23,1.88,3.23,3.7,0,2.16-1.68,3.69-4.6,3.69a7,7,0,0,1-3.45-.84Z"/><path class="cls-3" d="M542.88,436.5a5.88,5.88,0,0,0,3,.89c1.62,0,2.38-.82,2.38-1.83s-.63-1.65-2.28-2.26c-2.21-.79-3.25-2-3.25-3.48,0-2,1.6-3.61,4.24-3.61a6.11,6.11,0,0,1,3,.77l-.56,1.62a4.81,4.81,0,0,0-2.51-.71c-1.32,0-2.06.76-2.06,1.68s.74,1.47,2.34,2.08c2.13.81,3.22,1.88,3.22,3.7,0,2.16-1.67,3.69-4.59,3.69a7,7,0,0,1-3.46-.84Z"/><path class="cls-3" d="M553.24,429.82c0-1.27,0-2.31-.1-3.33h2l.11,2h.07a4.26,4.26,0,0,1,3.86-2.26,3.63,3.63,0,0,1,3.48,2.47h0a5,5,0,0,1,1.37-1.6,4.2,4.2,0,0,1,2.72-.87c1.62,0,4,1.07,4,5.34v7.23H568.6v-6.95c0-2.37-.86-3.79-2.66-3.79a2.91,2.91,0,0,0-2.65,2,3.77,3.77,0,0,0-.17,1.12v7.59h-2.19v-7.36c0-2-.86-3.38-2.56-3.38a3.06,3.06,0,0,0-2.77,2.24,3,3,0,0,0-.18,1.09v7.41h-2.18Z"/><path class="cls-3" d="M575.66,433c.05,3,2,4.27,4.21,4.27a8.22,8.22,0,0,0,3.41-.63l.38,1.59a9.89,9.89,0,0,1-4.09.77c-3.78,0-6-2.49-6-6.2s2.18-6.63,5.76-6.63c4,0,5.08,3.53,5.08,5.79a7.3,7.3,0,0,1-.08,1Zm6.55-1.6c0-1.42-.59-3.63-3.1-3.63-2.26,0-3.25,2.09-3.43,3.63Z"/><path class="cls-3" d="M587.13,429.82c0-1.27,0-2.31-.1-3.33h2l.13,2h.05a4.53,4.53,0,0,1,4.06-2.31c1.7,0,4.34,1,4.34,5.23v7.34h-2.23V431.7c0-2-.74-3.63-2.84-3.63a3.17,3.17,0,0,0-3,2.28,3.26,3.26,0,0,0-.15,1v7.39h-2.24Z"/><path class="cls-3" d="M603.81,423v3.53H607v1.7h-3.2v6.63c0,1.53.44,2.39,1.68,2.39a5.36,5.36,0,0,0,1.3-.15l.1,1.67a5.41,5.41,0,0,1-2,.31,3.12,3.12,0,0,1-2.42-.94,4.57,4.57,0,0,1-.86-3.2v-6.71h-1.9v-1.7h1.9v-2.94Z"/><circle class="cls-4" cx="459.48" cy="215" r="4.5"/><circle class="cls-4" cx="459.48" cy="267.31" r="4.5"/><circle class="cls-4" cx="459.48" cy="324.62" r="4.5"/><circle class="cls-4" cx="459.48" cy="380.62" r="4.5"/><polygon class="cls-5" points="830.26 0.14 830.26 484.86 1238.23 484.86 1238.23 0 830.26 0.14"/><line class="cls-6" x1="849.36" y1="170.99" x2="1219.13" y2="170.93"/><path class="cls-3" d="M1004,80.23a14.37,14.37,0,0,1-5.89,1c-7.24,0-11.64-4.54-11.64-11.47,0-7.52,5.21-12.05,12.19-12.05a13.14,13.14,0,0,1,5.55,1l-.92,3.32a11.13,11.13,0,0,0-4.47-.88c-4.63,0-8,2.91-8,8.39,0,5,2.94,8.23,7.95,8.23a11.67,11.67,0,0,0,4.54-.85Z"/><path class="cls-3" d="M1022.5,72.52c0,6.06-4.26,8.76-8.46,8.76-4.67,0-8.26-3.21-8.26-8.49s3.55-8.73,8.53-8.73S1022.5,67.51,1022.5,72.52Zm-12.42.17c0,3.18,1.56,5.58,4.09,5.58,2.37,0,4-2.33,4-5.65,0-2.57-1.15-5.52-4-5.52S1010.08,69.94,1010.08,72.69Z"/><path class="cls-3" d="M1025.92,56.88h4.2v24h-4.2Z"/><path class="cls-3" d="M1034.62,56.88h4.2v24h-4.2Z"/><path class="cls-3" d="M1052.59,80.91l-.27-1.83h-.1a6.1,6.1,0,0,1-4.87,2.2,4.89,4.89,0,0,1-5.18-4.9c0-4.17,3.69-6.27,9.78-6.23v-.27c0-1.09-.44-2.88-3.35-2.88a8.72,8.72,0,0,0-4.43,1.22l-.82-2.71a12,12,0,0,1,6-1.45c5.28,0,6.8,3.35,6.8,6.93v6a26.32,26.32,0,0,0,.24,4Zm-.54-8c-2.94-.07-5.75.57-5.75,3.08a2.18,2.18,0,0,0,2.37,2.36,3.38,3.38,0,0,0,3.25-2.26,3.09,3.09,0,0,0,.13-.92Z"/><path class="cls-3" d="M1060.38,80.91c.07-1.12.14-2.94.14-4.64V56.88h4.16V66.7h.07a6,6,0,0,1,5.28-2.64c4,0,6.9,3.35,6.87,8.36,0,5.92-3.76,8.86-7.48,8.86a5.66,5.66,0,0,1-5.21-2.84h-.07l-.21,2.47Zm4.3-6.8a4.46,4.46,0,0,0,.1,1,3.84,3.84,0,0,0,3.69,2.91c2.61,0,4.2-2.1,4.2-5.41,0-2.92-1.39-5.28-4.17-5.28a3.9,3.9,0,0,0-3.69,3,5.6,5.6,0,0,0-.13,1.08Z"/><path class="cls-3" d="M1096,72.52c0,6.06-4.27,8.76-8.46,8.76-4.67,0-8.26-3.21-8.26-8.49s3.55-8.73,8.53-8.73S1096,67.51,1096,72.52Zm-12.42.17c0,3.18,1.55,5.58,4.09,5.58,2.37,0,4-2.33,4-5.65,0-2.57-1.15-5.52-4-5.52S1083.57,69.94,1083.57,72.69Z"/><path class="cls-3" d="M1099.41,69.74c0-2.23,0-3.82-.13-5.31h3.62l.13,3.15h.14a4.91,4.91,0,0,1,4.5-3.52,4.22,4.22,0,0,1,1,.1v3.92a6.41,6.41,0,0,0-1.22-.13,3.67,3.67,0,0,0-3.72,3.15,6.86,6.86,0,0,0-.14,1.28v8.53h-4.16Z"/><path class="cls-3" d="M1120.43,80.91l-.27-1.83h-.1a6.11,6.11,0,0,1-4.87,2.2,4.89,4.89,0,0,1-5.18-4.9c0-4.17,3.69-6.27,9.78-6.23v-.27c0-1.09-.44-2.88-3.35-2.88a8.75,8.75,0,0,0-4.44,1.22l-.81-2.71a11.93,11.93,0,0,1,6-1.45c5.28,0,6.8,3.35,6.8,6.93v6a26.32,26.32,0,0,0,.24,4Zm-.54-8c-2.94-.07-5.75.57-5.75,3.08a2.18,2.18,0,0,0,2.36,2.36,3.37,3.37,0,0,0,3.25-2.26,2.82,2.82,0,0,0,.14-.92Z"/><path class="cls-3" d="M1132.92,59.72v4.71h4v3.11h-4v7.28c0,2,.54,3,2.14,3a6.19,6.19,0,0,0,1.62-.2l.07,3.18a9,9,0,0,1-3,.41,4.8,4.8,0,0,1-3.59-1.36c-.88-.94-1.29-2.43-1.29-4.6V67.54h-2.37V64.43h2.37V60.71Z"/><path class="cls-3" d="M1144.47,59.83a2.21,2.21,0,0,1-2.37,2.23,2.18,2.18,0,0,1-2.3-2.23,2.34,2.34,0,0,1,4.67,0ZM1140,80.91V64.43h4.2V80.91Z"/><path class="cls-3" d="M1151.34,64.43l2.67,8.36c.48,1.45.81,2.77,1.12,4.13h.1c.31-1.36.68-2.64,1.12-4.13l2.6-8.36h4.4l-6.29,16.48H1153l-6.12-16.48Z"/><path class="cls-3" d="M1168.4,73.84c.1,3,2.44,4.26,5.08,4.26a12.51,12.51,0,0,0,4.57-.74l.6,2.87a15.39,15.39,0,0,1-5.75,1c-5.35,0-8.49-3.28-8.49-8.33,0-4.57,2.77-8.86,8-8.86s7.11,4.4,7.11,8a9.88,9.88,0,0,1-.14,1.76Zm7.24-2.91c0-1.53-.64-4-3.42-4-2.57,0-3.65,2.33-3.82,4Z"/><path class="cls-3" d="M987.47,103.59c0-2.23,0-3.82-.14-5.31H991l.14,3.15h.13a4.91,4.91,0,0,1,4.5-3.52,4.31,4.31,0,0,1,1,.1v3.92a6.41,6.41,0,0,0-1.22-.13,3.68,3.68,0,0,0-3.73,3.15,7.9,7.9,0,0,0-.13,1.28v8.53h-4.16Z"/><path class="cls-3" d="M1014.88,106.37c0,6.06-4.26,8.76-8.46,8.76-4.67,0-8.26-3.21-8.26-8.49s3.56-8.73,8.53-8.73S1014.88,101.36,1014.88,106.37Zm-12.42.17c0,3.18,1.56,5.58,4.1,5.58,2.37,0,4-2.33,4-5.65,0-2.57-1.15-5.52-4-5.52S1002.46,103.8,1002.46,106.54Z"/><path class="cls-3" d="M1018.17,114.76c.07-1.12.13-2.94.13-4.63V90.73h4.17v9.82h.07a6,6,0,0,1,5.28-2.64c4,0,6.9,3.35,6.87,8.36,0,5.92-3.76,8.86-7.48,8.86a5.68,5.68,0,0,1-5.22-2.84h-.06l-.21,2.47Zm4.3-6.8a4.4,4.4,0,0,0,.1,1,3.83,3.83,0,0,0,3.69,2.91c2.6,0,4.2-2.1,4.2-5.41,0-2.91-1.39-5.28-4.17-5.28a3.91,3.91,0,0,0-3.69,3,5.62,5.62,0,0,0-.13,1.09Z"/><path class="cls-3" d="M1053.78,106.37c0,6.06-4.27,8.76-8.46,8.76-4.67,0-8.26-3.21-8.26-8.49s3.55-8.73,8.53-8.73S1053.78,101.36,1053.78,106.37Zm-12.42.17c0,3.18,1.55,5.58,4.09,5.58,2.37,0,4-2.33,4-5.65,0-2.57-1.15-5.52-4-5.52S1041.36,103.8,1041.36,106.54Z"/><path class="cls-3" d="M1062,93.58v4.7h4v3.11h-4v7.28c0,2,.54,3,2.13,3a6.2,6.2,0,0,0,1.63-.21l.07,3.18a9.1,9.1,0,0,1-3,.41,4.81,4.81,0,0,1-3.58-1.35c-.88-1-1.29-2.44-1.29-4.61v-7.75h-2.37V98.28h2.37V94.56Z"/><path class="cls-3" d="M1073.51,93.68a2.34,2.34,0,0,1-4.67,0,2.34,2.34,0,0,1,4.67,0Zm-4.43,21.08V98.28h4.2v16.48Z"/><path class="cls-3" d="M1089.86,114.25a11.94,11.94,0,0,1-4.67.85c-5.14,0-8.49-3.28-8.49-8.39,0-4.94,3.38-8.8,9.17-8.8a10.42,10.42,0,0,1,4,.78l-.75,3.11a7.4,7.4,0,0,0-3.15-.64c-3.18,0-5.07,2.33-5,5.34,0,3.39,2.2,5.32,5,5.32a8.11,8.11,0,0,0,3.29-.65Z"/><path class="cls-3" d="M1092.74,110.94a9.36,9.36,0,0,0,4.23,1.18c1.83,0,2.64-.74,2.64-1.83s-.67-1.69-2.7-2.4c-3.22-1.12-4.57-2.87-4.54-4.8,0-2.91,2.4-5.18,6.23-5.18a9.59,9.59,0,0,1,4.36,1l-.81,2.94a7.47,7.47,0,0,0-3.48-.94c-1.49,0-2.31.71-2.31,1.72s.78,1.56,2.88,2.3c3,1.09,4.37,2.61,4.4,5,0,3-2.33,5.14-6.7,5.14a10.6,10.6,0,0,1-5-1.15Z"/><path class="cls-3" d="M911.88,214.32c-.12-2.38-.28-5.25-.25-7.38h-.08c-.58,2-1.29,4.13-2.15,6.5l-3,8.3H904.7l-2.77-8.15c-.81-2.41-1.5-4.62-2-6.65h-.05c0,2.13-.18,5-.33,7.56l-.46,7.34H897l1.2-17.11H901l2.92,8.27c.71,2.11,1.29,4,1.72,5.77h.08c.43-1.73,1-3.61,1.8-5.77l3.05-8.27h2.82l1.06,17.11h-2.15Z"/><path class="cls-3" d="M917.09,221.84v-1.37l1.75-1.7c4.21-4,6.12-6.15,6.14-8.63a2.94,2.94,0,0,0-3.27-3.23,5.63,5.63,0,0,0-3.51,1.4l-.71-1.58a7.28,7.28,0,0,1,4.67-1.67c3.56,0,5.06,2.43,5.06,4.8,0,3-2.21,5.51-5.69,8.86l-1.32,1.22V220h7.41v1.85Z"/><path class="cls-3" d="M945.32,214.32c-.13-2.38-.28-5.25-.25-7.38H945c-.58,2-1.3,4.13-2.16,6.5l-3,8.3h-1.68l-2.76-8.15c-.82-2.41-1.5-4.62-2-6.65h-.06c-.05,2.13-.17,5-.33,7.56l-.45,7.34h-2.11l1.19-17.11h2.82l2.92,8.27c.71,2.11,1.3,4,1.73,5.77h.07c.44-1.73,1.05-3.61,1.81-5.77l3-8.27h2.82l1.07,17.11h-2.16Z"/><path class="cls-3" d="M965.37,221.38a8.09,8.09,0,0,1-3.52.71c-3.71,0-6.12-2.51-6.12-6.27a6.24,6.24,0,0,1,6.6-6.52,7.57,7.57,0,0,1,3.1.63l-.51,1.73a5.13,5.13,0,0,0-2.59-.59c-2.82,0-4.34,2.09-4.34,4.65,0,2.84,1.82,4.6,4.26,4.6a6.31,6.31,0,0,0,2.74-.61Z"/><path class="cls-3" d="M979,215.59c0,4.55-3.15,6.53-6.12,6.53-3.33,0-5.89-2.44-5.89-6.32,0-4.12,2.69-6.53,6.09-6.53S979,211.84,979,215.59Zm-9.75.13c0,2.69,1.55,4.72,3.73,4.72s3.73-2,3.73-4.77c0-2.08-1-4.72-3.68-4.72S969.21,213.39,969.21,215.72Z"/><path class="cls-3" d="M981.78,212.88c0-1.27,0-2.31-.11-3.33h2l.1,2h.08a4.22,4.22,0,0,1,3.86-2.26,3.63,3.63,0,0,1,3.47,2.46h.06a5,5,0,0,1,1.37-1.59,4.17,4.17,0,0,1,2.71-.87c1.63,0,4,1.07,4,5.33v7.24h-2.18v-7c0-2.36-.87-3.78-2.67-3.78a2.89,2.89,0,0,0-2.64,2,3.75,3.75,0,0,0-.18,1.12v7.59h-2.18v-7.36c0-2-.86-3.38-2.57-3.38a3.33,3.33,0,0,0-2.94,3.33v7.41h-2.18Z"/><path class="cls-3" d="M1003,212.88c0-1.27,0-2.31-.1-3.33h1.95l.1,2h.08a4.24,4.24,0,0,1,3.86-2.26,3.63,3.63,0,0,1,3.48,2.46h0a5,5,0,0,1,1.37-1.59,4.2,4.2,0,0,1,2.72-.87c1.62,0,4,1.07,4,5.33v7.24h-2.18v-7c0-2.36-.86-3.78-2.67-3.78a2.89,2.89,0,0,0-2.64,2,3.77,3.77,0,0,0-.17,1.12v7.59h-2.19v-7.36c0-2-.86-3.38-2.56-3.38a3.33,3.33,0,0,0-3,3.33v7.41H1003Z"/><path class="cls-3" d="M1034.41,218.49c0,1.27,0,2.39.1,3.35h-2l-.13-2h-.05a4.62,4.62,0,0,1-4.06,2.29c-1.93,0-4.24-1.07-4.24-5.38v-7.19h2.23v6.81c0,2.33.71,3.91,2.74,3.91a3.25,3.25,0,0,0,3-2,3.17,3.17,0,0,0,.2-1.14v-7.54h2.24Z"/><path class="cls-3" d="M1038.11,212.88c0-1.27,0-2.31-.1-3.33h2l.13,2h.05a4.51,4.51,0,0,1,4.06-2.31c1.7,0,4.34,1,4.34,5.23v7.34h-2.23v-7.08c0-2-.74-3.63-2.84-3.63a3.17,3.17,0,0,0-3,2.28,3.26,3.26,0,0,0-.15,1v7.39h-2.24Z"/><path class="cls-3" d="M1054.69,206.1a1.31,1.31,0,0,1-1.42,1.37,1.33,1.33,0,0,1-1.35-1.37,1.37,1.37,0,0,1,1.4-1.4A1.33,1.33,0,0,1,1054.69,206.1Zm-2.49,15.74V209.55h2.24v12.29Z"/><path class="cls-3" d="M1066.9,221.38a8.14,8.14,0,0,1-3.53.71c-3.7,0-6.12-2.51-6.12-6.27a6.24,6.24,0,0,1,6.61-6.52,7.52,7.52,0,0,1,3.09.63l-.5,1.73a5.13,5.13,0,0,0-2.59-.59c-2.82,0-4.35,2.09-4.35,4.65,0,2.84,1.83,4.6,4.27,4.6a6.31,6.31,0,0,0,2.74-.61Z"/><path class="cls-3" d="M1076.32,221.84l-.18-1.55h-.07a4.58,4.58,0,0,1-3.76,1.83,3.5,3.5,0,0,1-3.76-3.53c0-3,2.64-4.6,7.39-4.57v-.25a2.54,2.54,0,0,0-2.79-2.85,6.11,6.11,0,0,0-3.2.92l-.51-1.48a7.65,7.65,0,0,1,4-1.09c3.76,0,4.67,2.57,4.67,5v4.59a17.62,17.62,0,0,0,.2,3Zm-.33-6.27c-2.44,0-5.2.38-5.2,2.77a2,2,0,0,0,2.1,2.13,3.08,3.08,0,0,0,3-2.06,2.52,2.52,0,0,0,.12-.71Z"/><path class="cls-3" d="M1084.34,206v3.53h3.2v1.7h-3.2v6.63c0,1.52.44,2.39,1.68,2.39a4.82,4.82,0,0,0,1.3-.16l.1,1.68a5.44,5.44,0,0,1-2,.3,3.12,3.12,0,0,1-2.42-.94,4.56,4.56,0,0,1-.86-3.19v-6.71h-1.9v-1.7h1.9v-2.94Z"/><path class="cls-3" d="M1092.54,206.1a1.31,1.31,0,0,1-1.42,1.37,1.33,1.33,0,0,1-1.34-1.37,1.36,1.36,0,0,1,1.39-1.4A1.33,1.33,0,0,1,1092.54,206.1Zm-2.48,15.74V209.55h2.23v12.29Z"/><path class="cls-3" d="M1107.12,215.59c0,4.55-3.15,6.53-6.12,6.53-3.33,0-5.89-2.44-5.89-6.32,0-4.12,2.69-6.53,6.09-6.53S1107.12,211.84,1107.12,215.59Zm-9.75.13c0,2.69,1.55,4.72,3.73,4.72s3.73-2,3.73-4.77c0-2.08-1-4.72-3.68-4.72S1097.37,213.39,1097.37,215.72Z"/><path class="cls-3" d="M1109.94,212.88c0-1.27,0-2.31-.11-3.33h2l.13,2h0a4.51,4.51,0,0,1,4.06-2.31c1.71,0,4.35,1,4.35,5.23v7.34h-2.24v-7.08c0-2-.73-3.63-2.84-3.63a3.18,3.18,0,0,0-3,2.28,3.26,3.26,0,0,0-.15,1v7.39h-2.23Z"/><path class="cls-3" d="M897.46,260.34a23.87,23.87,0,0,1,4.24-.35c2.36,0,3.89.43,4.95,1.4a4.22,4.22,0,0,1,1.35,3.25,4.49,4.49,0,0,1-3.23,4.36v.08c1.32.46,2.11,1.67,2.52,3.45a26.91,26.91,0,0,0,1.32,4.7h-2.29a22,22,0,0,1-1.14-4.09c-.51-2.36-1.42-3.25-3.43-3.33h-2.08v7.42h-2.21Zm2.21,7.8h2.26c2.36,0,3.86-1.3,3.86-3.25,0-2.21-1.6-3.17-3.94-3.2a9.26,9.26,0,0,0-2.18.2Z"/><path class="cls-3" d="M912.39,271.49c.05,3,2,4.27,4.22,4.27a8,8,0,0,0,3.4-.64l.38,1.6a9.89,9.89,0,0,1-4.09.76c-3.78,0-6-2.49-6-6.19s2.18-6.63,5.76-6.63c4,0,5.08,3.53,5.08,5.79a7.43,7.43,0,0,1-.08,1Zm6.55-1.6c0-1.42-.58-3.63-3.1-3.63-2.26,0-3.25,2.08-3.42,3.63Z"/><path class="cls-3" d="M923.87,268.27c0-1.27,0-2.31-.11-3.33h2l.1,2h.08a4.23,4.23,0,0,1,3.86-2.26,3.65,3.65,0,0,1,3.48,2.46h0a5.08,5.08,0,0,1,1.37-1.6,4.22,4.22,0,0,1,2.71-.86c1.63,0,4,1.07,4,5.33v7.24h-2.18v-7c0-2.36-.87-3.78-2.67-3.78a2.89,2.89,0,0,0-2.64,2,3.7,3.7,0,0,0-.18,1.12v7.59h-2.18v-7.36c0-2-.86-3.38-2.56-3.38a3.05,3.05,0,0,0-2.77,2.23,3,3,0,0,0-.18,1.09v7.42h-2.18Z"/><path class="cls-3" d="M956.16,271c0,4.55-3.15,6.53-6.12,6.53-3.32,0-5.89-2.44-5.89-6.32,0-4.12,2.69-6.53,6.1-6.53S956.16,267.22,956.16,271Zm-9.75.13c0,2.69,1.55,4.72,3.73,4.72s3.74-2,3.74-4.77c0-2.08-1-4.72-3.69-4.72S946.41,268.77,946.41,271.11Z"/><path class="cls-3" d="M961.67,261.41v3.53h3.2v1.7h-3.2v6.63c0,1.52.43,2.38,1.68,2.38a4.81,4.81,0,0,0,1.29-.15l.1,1.68a5.44,5.44,0,0,1-2,.3,3.09,3.09,0,0,1-2.41-.94,4.53,4.53,0,0,1-.86-3.2v-6.7h-1.91v-1.7h1.91V262Z"/><path class="cls-3" d="M968.47,271.49c0,3,2,4.27,4.22,4.27a8,8,0,0,0,3.4-.64l.38,1.6a9.89,9.89,0,0,1-4.09.76c-3.78,0-6-2.49-6-6.19s2.18-6.63,5.76-6.63c4,0,5.08,3.53,5.08,5.79a10,10,0,0,1-.07,1Zm6.55-1.6c0-1.42-.58-3.63-3.09-3.63-2.26,0-3.25,2.08-3.43,3.63Z"/><path class="cls-3" d="M987.82,261.49a1.39,1.39,0,0,1-2.77,0,1.37,1.37,0,0,1,1.4-1.4A1.33,1.33,0,0,1,987.82,261.49Zm-2.49,15.74V264.94h2.24v12.29Z"/><path class="cls-3" d="M991.27,268.27c0-1.27,0-2.31-.1-3.33h2l.13,2h.05a4.51,4.51,0,0,1,4.06-2.31c1.7,0,4.34,1,4.34,5.23v7.34H999.5v-7.09c0-2-.74-3.63-2.85-3.63a3.18,3.18,0,0,0-3,2.29,3.26,3.26,0,0,0-.15,1v7.39h-2.24Z"/><path class="cls-3" d="M1005.06,274.94a5.78,5.78,0,0,0,2.94.89c1.63,0,2.39-.81,2.39-1.83s-.64-1.65-2.29-2.26c-2.2-.78-3.25-2-3.25-3.47,0-2,1.6-3.61,4.24-3.61a6.23,6.23,0,0,1,3,.76l-.56,1.63a4.73,4.73,0,0,0-2.52-.71c-1.32,0-2,.76-2,1.67s.73,1.47,2.33,2.08c2.14.82,3.23,1.88,3.23,3.71,0,2.16-1.68,3.68-4.6,3.68a7,7,0,0,1-3.45-.84Z"/><path class="cls-3" d="M1015.42,269c0-1.57,0-2.84-.11-4h2l.1,2.11h.05a4.84,4.84,0,0,1,4.37-2.39c3,0,5.2,2.51,5.2,6.25,0,4.41-2.69,6.6-5.58,6.6a4.29,4.29,0,0,1-3.78-1.93h-.06v6.68h-2.2Zm2.2,3.28a5,5,0,0,0,.11.91,3.44,3.44,0,0,0,3.35,2.62c2.36,0,3.73-1.93,3.73-4.75,0-2.46-1.29-4.57-3.66-4.57a3.56,3.56,0,0,0-3.37,2.77,3.33,3.33,0,0,0-.16.91Z"/><path class="cls-3" d="M1031.11,271.49c.05,3,2,4.27,4.21,4.27a8,8,0,0,0,3.4-.64l.38,1.6a9.83,9.83,0,0,1-4.08.76c-3.79,0-6-2.49-6-6.19s2.19-6.63,5.77-6.63c4,0,5.07,3.53,5.07,5.79a10,10,0,0,1-.07,1Zm6.55-1.6c0-1.42-.59-3.63-3.1-3.63-2.26,0-3.25,2.08-3.43,3.63Z"/><path class="cls-3" d="M1051.34,276.77a8.14,8.14,0,0,1-3.53.71c-3.71,0-6.12-2.51-6.12-6.27a6.24,6.24,0,0,1,6.6-6.52,7.57,7.57,0,0,1,3.1.63l-.51,1.73a5.1,5.1,0,0,0-2.59-.59c-2.81,0-4.34,2.09-4.34,4.65,0,2.84,1.83,4.6,4.27,4.6a6.31,6.31,0,0,0,2.74-.61Z"/><path class="cls-3" d="M1057,261.41v3.53h3.2v1.7H1057v6.63c0,1.52.43,2.38,1.67,2.38a4.84,4.84,0,0,0,1.3-.15l.1,1.68a5.44,5.44,0,0,1-2,.3,3.09,3.09,0,0,1-2.41-.94,4.52,4.52,0,0,1-.87-3.2v-6.7h-1.9v-1.7h1.9V262Z"/><path class="cls-3" d="M1065.18,261.49a1.39,1.39,0,0,1-2.77,0,1.36,1.36,0,0,1,1.4-1.4A1.33,1.33,0,0,1,1065.18,261.49Zm-2.49,15.74V264.94h2.23v12.29Z"/><path class="cls-3" d="M1079.75,271c0,4.55-3.15,6.53-6.12,6.53-3.33,0-5.89-2.44-5.89-6.32,0-4.12,2.69-6.53,6.09-6.53S1079.75,267.22,1079.75,271Zm-9.75.13c0,2.69,1.55,4.72,3.73,4.72s3.73-2,3.73-4.77c0-2.08-1-4.72-3.68-4.72S1070,268.77,1070,271.11Z"/><path class="cls-3" d="M1082.57,268.27c0-1.27,0-2.31-.1-3.33h2l.12,2h0a4.53,4.53,0,0,1,4.07-2.31c1.7,0,4.34,1,4.34,5.23v7.34h-2.24v-7.09c0-2-.73-3.63-2.84-3.63a3.19,3.19,0,0,0-3,2.29,3.26,3.26,0,0,0-.15,1v7.39h-2.23Z"/><path class="cls-3" d="M899.67,315.5v7.16H908V315.5h2.23v17.12H908v-8h-8.28v8h-2.21V315.5Z"/><path class="cls-3" d="M924.22,329.27c0,1.27,0,2.38.1,3.35h-2l-.12-2h-.06a4.61,4.61,0,0,1-4.06,2.29c-1.93,0-4.24-1.07-4.24-5.39v-7.18h2.24v6.8c0,2.34.71,3.91,2.74,3.91a3.21,3.21,0,0,0,2.94-2,3.17,3.17,0,0,0,.21-1.14v-7.54h2.23Z"/><path class="cls-3" d="M927.93,323.65c0-1.27,0-2.31-.1-3.32h1.95l.1,2H930a4.23,4.23,0,0,1,3.86-2.26,3.64,3.64,0,0,1,3.48,2.46h.05a5.08,5.08,0,0,1,1.37-1.6,4.2,4.2,0,0,1,2.72-.86c1.62,0,4,1.07,4,5.33v7.24h-2.18v-7c0-2.36-.86-3.78-2.67-3.78a2.89,2.89,0,0,0-2.64,2,3.7,3.7,0,0,0-.18,1.12v7.59h-2.18v-7.37c0-1.95-.86-3.37-2.56-3.37a3,3,0,0,0-2.77,2.23,3,3,0,0,0-.18,1.09v7.42h-2.18Z"/><path class="cls-3" d="M955.91,332.62l-.18-1.55h-.08a4.58,4.58,0,0,1-3.76,1.83,3.5,3.5,0,0,1-3.75-3.53c0-3,2.64-4.6,7.39-4.57v-.26a2.54,2.54,0,0,0-2.8-2.84,6.13,6.13,0,0,0-3.2.91l-.5-1.47a7.58,7.58,0,0,1,4-1.09c3.76,0,4.67,2.56,4.67,5v4.59a17.55,17.55,0,0,0,.21,2.95Zm-.33-6.27c-2.44-.06-5.21.38-5.21,2.76a2,2,0,0,0,2.11,2.14,3.06,3.06,0,0,0,3-2.06,2.22,2.22,0,0,0,.13-.71Z"/><path class="cls-3" d="M961.34,323.65c0-1.27,0-2.31-.1-3.32h2l.12,2h.06a4.5,4.5,0,0,1,4.06-2.31c1.7,0,4.34,1,4.34,5.23v7.34h-2.23v-7.09c0-2-.74-3.63-2.85-3.63a3.17,3.17,0,0,0-3,2.29,3,3,0,0,0-.16,1v7.39h-2.23Z"/><path class="cls-3" d="M980.61,324.92v1.65h-6.27v-1.65Z"/><path class="cls-3" d="M997.72,325.1c-.13-2.39-.28-5.25-.25-7.39h-.08c-.58,2-1.29,4.14-2.16,6.5l-3,8.31h-1.67l-2.77-8.15c-.81-2.42-1.5-4.63-2-6.66h0c0,2.14-.18,5-.33,7.57l-.46,7.34h-2.11L984,315.5h2.81l2.92,8.28c.72,2.11,1.3,4,1.73,5.76h.08c.43-1.72,1-3.6,1.8-5.76l3-8.28h2.82l1.06,17.12h-2.16Z"/><path class="cls-3" d="M1010.59,332.62l-.18-1.55h-.07a4.61,4.61,0,0,1-3.76,1.83,3.51,3.51,0,0,1-3.76-3.53c0-3,2.64-4.6,7.39-4.57v-.26a2.53,2.53,0,0,0-2.79-2.84,6.11,6.11,0,0,0-3.2.91l-.51-1.47a7.65,7.65,0,0,1,4-1.09c3.76,0,4.67,2.56,4.67,5v4.59a17.62,17.62,0,0,0,.2,2.95Zm-.33-6.27c-2.43-.06-5.2.38-5.2,2.76a2,2,0,0,0,2.1,2.14,3.08,3.08,0,0,0,3-2.06,2.52,2.52,0,0,0,.12-.71Z"/><path class="cls-3" d="M1024.79,332.16a8.33,8.33,0,0,1-3.53.71c-3.71,0-6.12-2.51-6.12-6.27a6.25,6.25,0,0,1,6.6-6.53,7.39,7.39,0,0,1,3.1.64l-.51,1.73a5.13,5.13,0,0,0-2.59-.59c-2.82,0-4.34,2.08-4.34,4.65,0,2.84,1.82,4.59,4.26,4.59a6.31,6.31,0,0,0,2.74-.61Z"/><path class="cls-3" d="M1027.4,314.59h2.23v7.67h0a4.19,4.19,0,0,1,1.6-1.58,4.62,4.62,0,0,1,2.29-.63c1.65,0,4.29,1,4.29,5.25v7.32h-2.23v-7.06c0-2-.74-3.66-2.85-3.66a3.2,3.2,0,0,0-3,2.24,2.6,2.6,0,0,0-.16,1.06v7.42h-2.23Z"/><path class="cls-3" d="M1044,316.87a1.39,1.39,0,0,1-2.77,0,1.36,1.36,0,0,1,1.4-1.39A1.32,1.32,0,0,1,1044,316.87Zm-2.49,15.75V320.33h2.23v12.29Z"/><path class="cls-3" d="M1047.43,323.65c0-1.27,0-2.31-.1-3.32h2l.13,2h0a4.51,4.51,0,0,1,4.06-2.31c1.7,0,4.34,1,4.34,5.23v7.34h-2.23v-7.09c0-2-.74-3.63-2.85-3.63a3.17,3.17,0,0,0-3,2.29,3.25,3.25,0,0,0-.16,1v7.39h-2.23Z"/><path class="cls-3" d="M1062.77,326.88c0,3,2,4.26,4.21,4.26a8,8,0,0,0,3.4-.63l.38,1.6a10,10,0,0,1-4.08.76c-3.79,0-6-2.49-6-6.19s2.19-6.63,5.77-6.63c4,0,5.07,3.53,5.07,5.79a10.18,10.18,0,0,1-.07,1Zm6.55-1.6c0-1.42-.59-3.63-3.1-3.63-2.26,0-3.25,2.08-3.43,3.63Z"/><path class="cls-3" d="M1081.91,315.5v17.12h-2.21V315.5Z"/><path class="cls-3" d="M1085.94,323.65c0-1.27,0-2.31-.1-3.32h2l.13,2h0a4.51,4.51,0,0,1,4.06-2.31c1.7,0,4.35,1,4.35,5.23v7.34h-2.24v-7.09c0-2-.74-3.63-2.84-3.63a3.17,3.17,0,0,0-3,2.29,3.26,3.26,0,0,0-.15,1v7.39h-2.24Z"/><path class="cls-3" d="M1102.62,316.8v3.53h3.2V322h-3.2v6.63c0,1.52.44,2.38,1.68,2.38a4.9,4.9,0,0,0,1.3-.15l.1,1.68a5.67,5.67,0,0,1-2,.3,3.12,3.12,0,0,1-2.42-.94,4.57,4.57,0,0,1-.86-3.2V322h-1.9v-1.7h1.9v-2.95Z"/><path class="cls-3" d="M1109.43,326.88c0,3,2,4.26,4.21,4.26a8.06,8.06,0,0,0,3.41-.63l.38,1.6a10.1,10.1,0,0,1-4.09.76c-3.78,0-6-2.49-6-6.19s2.18-6.63,5.76-6.63c4,0,5.08,3.53,5.08,5.79a7.57,7.57,0,0,1-.08,1Zm6.55-1.6c0-1.42-.58-3.63-3.1-3.63-2.26,0-3.25,2.08-3.43,3.63Z"/><path class="cls-3" d="M1120.9,324.16c0-1.45,0-2.69-.1-3.83h2l.07,2.41h.11a3.67,3.67,0,0,1,3.4-2.69,2.43,2.43,0,0,1,.63.07v2.11a3.39,3.39,0,0,0-.76-.07,3.14,3.14,0,0,0-3,2.87,6.33,6.33,0,0,0-.1,1v6.55h-2.21Z"/><path class="cls-3" d="M1130.2,332.62V322h-1.73v-1.7h1.73v-.59a5.8,5.8,0,0,1,1.42-4.29,4.27,4.27,0,0,1,3-1.14,5.14,5.14,0,0,1,1.91.36l-.31,1.72a3.34,3.34,0,0,0-1.42-.28c-1.9,0-2.38,1.68-2.38,3.56v.66h3V322h-3v10.59Z"/><path class="cls-3" d="M1144.19,332.62l-.18-1.55h-.08a4.58,4.58,0,0,1-3.76,1.83,3.5,3.5,0,0,1-3.75-3.53c0-3,2.64-4.6,7.38-4.57v-.26a2.53,2.53,0,0,0-2.79-2.84,6.13,6.13,0,0,0-3.2.91l-.51-1.47a7.65,7.65,0,0,1,4-1.09c3.76,0,4.67,2.56,4.67,5v4.59a16.55,16.55,0,0,0,.21,2.95Zm-.33-6.27c-2.44-.06-5.21.38-5.21,2.76a2,2,0,0,0,2.11,2.14,3.06,3.06,0,0,0,3-2.06,2.53,2.53,0,0,0,.13-.71Z"/><path class="cls-3" d="M1158.38,332.16a8.33,8.33,0,0,1-3.53.71c-3.71,0-6.12-2.51-6.12-6.27a6.25,6.25,0,0,1,6.6-6.53,7.39,7.39,0,0,1,3.1.64l-.51,1.73a5.1,5.1,0,0,0-2.59-.59c-2.82,0-4.34,2.08-4.34,4.65,0,2.84,1.83,4.59,4.26,4.59a6.39,6.39,0,0,0,2.75-.61Z"/><path class="cls-3" d="M1162.08,326.88a3.93,3.93,0,0,0,4.22,4.26,8,8,0,0,0,3.4-.63l.38,1.6a10.06,10.06,0,0,1-4.09.76c-3.78,0-6-2.49-6-6.19s2.18-6.63,5.76-6.63c4,0,5.08,3.53,5.08,5.79a10.18,10.18,0,0,1-.07,1Zm6.55-1.6c0-1.42-.58-3.63-3.09-3.63-2.26,0-3.25,2.08-3.43,3.63Z"/><path class="cls-3" d="M902.24,340.38a16.71,16.71,0,0,0-3.2,10.39,17.07,17.07,0,0,0,3.2,10.31h-1.76a16.42,16.42,0,0,1-3.32-10.31,16.76,16.76,0,0,1,3.32-10.39Z"/><path class="cls-3" d="M906.88,340.89v7.16h8.28v-7.16h2.23V358h-2.23v-8h-8.28v8h-2.21V340.89Z"/><path class="cls-3" d="M935.65,350.49c-.13-2.39-.28-5.26-.26-7.39h-.07c-.59,2-1.3,4.14-2.16,6.5l-3,8.3h-1.68l-2.77-8.15c-.81-2.41-1.49-4.62-2-6.65h-.05c0,2.13-.18,5-.33,7.57l-.46,7.34h-2.1L922,340.89h2.82l2.92,8.28c.71,2.11,1.29,4,1.73,5.76h.07c.43-1.72,1-3.6,1.8-5.76l3.05-8.28h2.82L938.24,358h-2.16Z"/><path class="cls-3" d="M943.85,340.89V358h-2.21V340.89Z"/><path class="cls-3" d="M946.28,361.08a17.23,17.23,0,0,0,3.2-10.39,16.85,16.85,0,0,0-3.2-10.31H948a16.24,16.24,0,0,1,3.32,10.34A16.51,16.51,0,0,1,948,361.08Z"/><path class="cls-3" d="M897.46,396.28h2.21v15.26H907v1.85h-9.52Z"/><path class="cls-3" d="M911.65,396.28v17.11h-2.2V396.28Z"/><path class="cls-3" d="M915.51,396.51a32.13,32.13,0,0,1,4.7-.36c3.17,0,5.43.74,6.93,2.14a7.87,7.87,0,0,1,2.41,6.14,9,9,0,0,1-2.46,6.65c-1.6,1.6-4.24,2.47-7.57,2.47a34.84,34.84,0,0,1-4-.21Zm2.21,15.13a14.12,14.12,0,0,0,2.24.13c4.72,0,7.28-2.64,7.28-7.26,0-4-2.26-6.6-6.93-6.6a13.26,13.26,0,0,0-2.59.22Z"/><path class="cls-3" d="M934.83,408l-1.77,5.38h-2.29l5.81-17.11h2.67l5.84,17.11h-2.36L940.9,408Zm5.61-1.73-1.67-4.92c-.38-1.12-.64-2.13-.89-3.12h0c-.25,1-.53,2.05-.86,3.09l-1.68,4.95Z"/><path class="cls-3" d="M947.6,396.51a22.9,22.9,0,0,1,4.24-.36c2.37,0,3.89.44,4.95,1.4a4.24,4.24,0,0,1,1.35,3.25,4.5,4.5,0,0,1-3.22,4.37v.07c1.32.46,2.1,1.68,2.51,3.46a27,27,0,0,0,1.32,4.69h-2.29a22.7,22.7,0,0,1-1.14-4.08c-.51-2.37-1.42-3.25-3.43-3.33h-2.08v7.41H947.6Zm2.21,7.79h2.26c2.36,0,3.86-1.29,3.86-3.25,0-2.2-1.6-3.17-3.93-3.2a9.13,9.13,0,0,0-2.19.21Z"/><path class="cls-3" d="M973.37,413.39l-.17-1.54h-.08a4.6,4.6,0,0,1-3.76,1.82,3.5,3.5,0,0,1-3.76-3.53c0-3,2.64-4.59,7.39-4.57v-.25a2.53,2.53,0,0,0-2.79-2.84,6.11,6.11,0,0,0-3.2.91l-.51-1.47a7.65,7.65,0,0,1,4-1.09c3.76,0,4.67,2.56,4.67,5v4.6a17.41,17.41,0,0,0,.2,2.94Zm-.33-6.27c-2.43-.05-5.2.38-5.2,2.77A2,2,0,0,0,970,412a3.07,3.07,0,0,0,3-2,2.58,2.58,0,0,0,.12-.71Z"/><path class="cls-3" d="M978.81,404.43c0-1.27,0-2.31-.11-3.33h2l.13,2h.05a4.51,4.51,0,0,1,4.06-2.31c1.71,0,4.35,1,4.35,5.23v7.33H987v-7.08c0-2-.73-3.63-2.84-3.63a3.18,3.18,0,0,0-3,2.28A3.28,3.28,0,0,0,981,406v7.38h-2.23Z"/><path class="cls-3" d="M1003.51,395.37v14.85c0,1.09,0,2.34.1,3.17h-2l-.11-2.13h0a4.54,4.54,0,0,1-4.19,2.41c-3,0-5.25-2.51-5.25-6.24,0-4.09,2.51-6.6,5.51-6.6a4.08,4.08,0,0,1,3.7,1.87h.06v-7.33Zm-2.23,10.74a3.77,3.77,0,0,0-.11-.94,3.29,3.29,0,0,0-3.22-2.59c-2.31,0-3.68,2-3.68,4.75,0,2.48,1.22,4.54,3.63,4.54a3.35,3.35,0,0,0,3.27-2.67,3.62,3.62,0,0,0,.11-1Z"/><path class="cls-3" d="M1013.46,401.1l2.41,6.91a29.62,29.62,0,0,1,1,3.15h.08c.28-1,.63-2,1-3.15l2.39-6.91h2.33l-4.82,12.29h-2.13l-4.68-12.29Z"/><path class="cls-3" d="M1027.3,397.65a1.39,1.39,0,0,1-2.77,0,1.35,1.35,0,0,1,1.4-1.39A1.32,1.32,0,0,1,1027.3,397.65Zm-2.49,15.74V401.1H1027v12.29Z"/><path class="cls-3" d="M1030.45,411.11a5.84,5.84,0,0,0,2.94.89c1.63,0,2.39-.82,2.39-1.83s-.64-1.65-2.29-2.26c-2.21-.79-3.25-2-3.25-3.48,0-2,1.6-3.6,4.24-3.6a6.05,6.05,0,0,1,3,.76l-.55,1.62a4.89,4.89,0,0,0-2.52-.71c-1.32,0-2.06.76-2.06,1.68s.74,1.47,2.34,2.08c2.13.81,3.23,1.88,3.23,3.71,0,2.15-1.68,3.68-4.6,3.68a7,7,0,0,1-3.45-.84Z"/><path class="cls-3" d="M1043.29,397.65a1.31,1.31,0,0,1-1.42,1.37,1.33,1.33,0,0,1-1.35-1.37,1.36,1.36,0,0,1,1.4-1.39A1.32,1.32,0,0,1,1043.29,397.65Zm-2.49,15.74V401.1H1043v12.29Z"/><path class="cls-3" d="M1057.87,407.15c0,4.54-3.15,6.52-6.12,6.52-3.33,0-5.89-2.43-5.89-6.32,0-4.11,2.69-6.52,6.09-6.52S1057.87,403.39,1057.87,407.15Zm-9.75.12c0,2.7,1.54,4.73,3.73,4.73s3.73-2,3.73-4.78c0-2.08-1-4.72-3.68-4.72S1048.12,404.94,1048.12,407.27Z"/><path class="cls-3" d="M1060.68,404.43c0-1.27,0-2.31-.1-3.33h2l.13,2h0a4.51,4.51,0,0,1,4.06-2.31c1.7,0,4.34,1,4.34,5.23v7.33h-2.23v-7.08c0-2-.74-3.63-2.84-3.63a3.17,3.17,0,0,0-3,2.28,3.28,3.28,0,0,0-.15,1.05v7.38h-2.24Z"/><path class="cls-3" d="M1080,405.7v1.65h-6.27V405.7Z"/><path class="cls-3" d="M1082.47,413.39c0-.83.1-2.08.1-3.17V395.37h2.21v7.72h0a4.55,4.55,0,0,1,4.19-2.26c3,0,5.2,2.53,5.18,6.27,0,4.39-2.77,6.57-5.51,6.57a4.38,4.38,0,0,1-4.12-2.31h-.07l-.1,2Zm2.31-4.92a4.17,4.17,0,0,0,.1.81,3.44,3.44,0,0,0,3.35,2.62c2.34,0,3.73-1.91,3.73-4.73,0-2.46-1.27-4.57-3.65-4.57a3.57,3.57,0,0,0-3.41,2.75,4.37,4.37,0,0,0-.12.91Z"/><path class="cls-3" d="M1103.82,413.39l-.18-1.54h-.08a4.56,4.56,0,0,1-3.75,1.82,3.5,3.5,0,0,1-3.76-3.53c0-3,2.64-4.59,7.39-4.57v-.25a2.53,2.53,0,0,0-2.8-2.84,6.13,6.13,0,0,0-3.2.91l-.5-1.47a7.58,7.58,0,0,1,4-1.09c3.76,0,4.68,2.56,4.68,5v4.6a17.41,17.41,0,0,0,.2,2.94Zm-.33-6.27c-2.44-.05-5.21.38-5.21,2.77a2,2,0,0,0,2.11,2.13,3.06,3.06,0,0,0,3-2,2.27,2.27,0,0,0,.13-.71Z"/><path class="cls-3" d="M1109,411.11a5.84,5.84,0,0,0,2.94.89c1.63,0,2.39-.82,2.39-1.83s-.64-1.65-2.29-2.26c-2.21-.79-3.25-2-3.25-3.48,0-2,1.6-3.6,4.24-3.6a6.05,6.05,0,0,1,3,.76l-.55,1.62a4.89,4.89,0,0,0-2.52-.71c-1.32,0-2.06.76-2.06,1.68s.74,1.47,2.34,2.08c2.13.81,3.23,1.88,3.23,3.71,0,2.15-1.68,3.68-4.6,3.68a7,7,0,0,1-3.45-.84Z"/><path class="cls-3" d="M1120.55,407.66c0,3,2,4.26,4.21,4.26a8.14,8.14,0,0,0,3.4-.63l.39,1.6a10.1,10.1,0,0,1-4.09.76c-3.79,0-6-2.49-6-6.2s2.19-6.62,5.77-6.62c4,0,5.08,3.52,5.08,5.78a7.61,7.61,0,0,1-.08,1.05Zm6.55-1.6c0-1.43-.59-3.63-3.1-3.63-2.26,0-3.25,2.08-3.43,3.63Z"/><path class="cls-3" d="M1142.64,395.37v14.85c0,1.09,0,2.34.1,3.17h-2l-.1-2.13h-.05a4.55,4.55,0,0,1-4.19,2.41c-3,0-5.26-2.51-5.26-6.24,0-4.09,2.52-6.6,5.51-6.6a4.11,4.11,0,0,1,3.71,1.87h.05v-7.33Zm-2.24,10.74a3.76,3.76,0,0,0-.1-.94,3.29,3.29,0,0,0-3.22-2.59c-2.31,0-3.69,2-3.69,4.75,0,2.48,1.22,4.54,3.64,4.54a3.36,3.36,0,0,0,3.27-2.67,3.63,3.63,0,0,0,.1-1Z"/><path class="cls-3" d="M897.08,436.5a5.88,5.88,0,0,0,2.95.89c1.62,0,2.38-.82,2.38-1.83s-.63-1.65-2.28-2.26c-2.21-.79-3.25-2-3.25-3.48,0-2,1.6-3.61,4.24-3.61a6.11,6.11,0,0,1,3,.77l-.56,1.62a4.81,4.81,0,0,0-2.51-.71c-1.32,0-2.06.76-2.06,1.68s.74,1.47,2.34,2.08c2.13.81,3.22,1.88,3.22,3.7,0,2.16-1.67,3.69-4.59,3.69a7,7,0,0,1-3.46-.84Z"/><path class="cls-3" d="M908.25,426.49l2.69,7.27c.28.81.59,1.77.79,2.51h0c.23-.74.48-1.68.79-2.57l2.44-7.21h2.36L914,435.25c-1.6,4.22-2.7,6.38-4.22,7.7a6,6,0,0,1-2.74,1.44l-.56-1.87a6.07,6.07,0,0,0,2-1.1,6.71,6.71,0,0,0,1.87-2.49,1.37,1.37,0,0,0,.18-.53,1.94,1.94,0,0,0-.15-.58l-4.55-11.33Z"/><path class="cls-3" d="M918.94,436.5a5.88,5.88,0,0,0,2.95.89c1.62,0,2.38-.82,2.38-1.83s-.63-1.65-2.28-2.26c-2.21-.79-3.25-2-3.25-3.48,0-2,1.6-3.61,4.24-3.61a6.11,6.11,0,0,1,3,.77l-.56,1.62a4.81,4.81,0,0,0-2.51-.71c-1.32,0-2.06.76-2.06,1.68s.74,1.47,2.34,2.08c2.13.81,3.22,1.88,3.22,3.7,0,2.16-1.68,3.69-4.6,3.69a7,7,0,0,1-3.45-.84Z"/><path class="cls-3" d="M932,423v3.53h3.2v1.7H932v6.63c0,1.53.43,2.39,1.68,2.39a5.27,5.27,0,0,0,1.29-.15l.1,1.67a5.37,5.37,0,0,1-2,.31,3.09,3.09,0,0,1-2.41-.94,4.57,4.57,0,0,1-.86-3.2v-6.71H927.9v-1.7h1.91v-2.94Z"/><path class="cls-3" d="M938.79,433c.05,3,2,4.27,4.22,4.27a8.17,8.17,0,0,0,3.4-.63l.38,1.59a9.85,9.85,0,0,1-4.09.77c-3.78,0-6-2.49-6-6.2s2.18-6.63,5.76-6.63c4,0,5.08,3.53,5.08,5.79a9.75,9.75,0,0,1-.07,1Zm6.55-1.6c0-1.42-.58-3.63-3.09-3.63-2.26,0-3.25,2.09-3.43,3.63Z"/><path class="cls-3" d="M950.27,429.82c0-1.27,0-2.31-.1-3.33h2l.1,2h.08a4.26,4.26,0,0,1,3.86-2.26,3.63,3.63,0,0,1,3.48,2.47h.05a5,5,0,0,1,1.37-1.6,4.2,4.2,0,0,1,2.72-.87c1.62,0,4,1.07,4,5.34v7.23h-2.18v-6.95c0-2.37-.86-3.79-2.67-3.79a2.91,2.91,0,0,0-2.64,2,3.77,3.77,0,0,0-.17,1.12v7.59H958v-7.36c0-2-.86-3.38-2.56-3.38a3.06,3.06,0,0,0-2.77,2.24,3,3,0,0,0-.18,1.09v7.41h-2.18Z"/><path class="cls-3" d="M971.14,436.5a5.87,5.87,0,0,0,2.94.89c1.63,0,2.39-.82,2.39-1.83s-.63-1.65-2.28-2.26c-2.21-.79-3.25-2-3.25-3.48,0-2,1.6-3.61,4.24-3.61a6.11,6.11,0,0,1,3,.77l-.56,1.62a4.82,4.82,0,0,0-2.52-.71c-1.32,0-2,.76-2,1.68s.73,1.47,2.33,2.08c2.14.81,3.23,1.88,3.23,3.7,0,2.16-1.68,3.69-4.6,3.69a7,7,0,0,1-3.45-.84Z"/><path class="cls-3" d="M989.37,423a1.39,1.39,0,0,1-2.77,0,1.36,1.36,0,0,1,1.4-1.4A1.33,1.33,0,0,1,989.37,423Zm-2.49,15.74V426.49h2.23v12.29Z"/><path class="cls-3" d="M992.82,429.82c0-1.27,0-2.31-.1-3.33h2l.13,2h0a4.53,4.53,0,0,1,4.06-2.31c1.7,0,4.34,1,4.34,5.23v7.34h-2.23V431.7c0-2-.74-3.63-2.85-3.63a3.17,3.17,0,0,0-3,2.28,3,3,0,0,0-.16,1v7.39h-2.23Z"/><path class="cls-3" d="M1009.5,423v3.53h3.2v1.7h-3.2v6.63c0,1.53.43,2.39,1.68,2.39a5.27,5.27,0,0,0,1.29-.15l.1,1.67a5.37,5.37,0,0,1-2,.31,3.09,3.09,0,0,1-2.41-.94,4.53,4.53,0,0,1-.86-3.2v-6.71h-1.91v-1.7h1.91v-2.94Z"/><path class="cls-3" d="M1016.3,433c.05,3,2,4.27,4.22,4.27a8.17,8.17,0,0,0,3.4-.63l.38,1.59a9.85,9.85,0,0,1-4.09.77c-3.78,0-6-2.49-6-6.2s2.18-6.63,5.76-6.63c4,0,5.08,3.53,5.08,5.79a9.75,9.75,0,0,1-.07,1Zm6.55-1.6c0-1.42-.58-3.63-3.09-3.63-2.26,0-3.25,2.09-3.43,3.63Z"/><path class="cls-3" d="M1038.37,426.49c0,.89-.1,1.88-.1,3.38V437c0,2.81-.56,4.54-1.76,5.61a6.54,6.54,0,0,1-4.47,1.47,7.91,7.91,0,0,1-4.08-1l.56-1.7a6.89,6.89,0,0,0,3.6,1c2.29,0,4-1.2,4-4.29v-1.37h0a4.37,4.37,0,0,1-3.91,2.05c-3,0-5.23-2.59-5.23-6,0-4.16,2.72-6.53,5.54-6.53a4.08,4.08,0,0,1,3.83,2.14h0l.1-1.86Zm-2.31,4.85a3.17,3.17,0,0,0-.13-1,3.22,3.22,0,0,0-3.12-2.36c-2.14,0-3.66,1.8-3.66,4.64,0,2.41,1.22,4.42,3.63,4.42a3.27,3.27,0,0,0,3.1-2.28,3.88,3.88,0,0,0,.18-1.2Z"/><path class="cls-3" d="M1041.82,430.33c0-1.45,0-2.69-.1-3.84h2l.08,2.42h.1a3.7,3.7,0,0,1,3.4-2.7,2.43,2.43,0,0,1,.64.08v2.11a3.41,3.41,0,0,0-.76-.08,3.14,3.14,0,0,0-3,2.87,6.44,6.44,0,0,0-.1,1v6.55h-2.21Z"/><path class="cls-3" d="M1056.8,438.78l-.18-1.55h-.07a4.58,4.58,0,0,1-3.76,1.83,3.5,3.5,0,0,1-3.76-3.53c0-3,2.64-4.59,7.39-4.57v-.25a2.54,2.54,0,0,0-2.79-2.85,6.09,6.09,0,0,0-3.2.92l-.51-1.47a7.62,7.62,0,0,1,4-1.1c3.75,0,4.67,2.57,4.67,5v4.6a17.57,17.57,0,0,0,.2,2.94Zm-.33-6.27c-2.44-.05-5.21.38-5.21,2.77a2,2,0,0,0,2.11,2.13,3,3,0,0,0,3-2.06,2.17,2.17,0,0,0,.13-.71Z"/><path class="cls-3" d="M1064.82,423v3.53h3.2v1.7h-3.2v6.63c0,1.53.43,2.39,1.68,2.39a5.27,5.27,0,0,0,1.29-.15l.1,1.67a5.37,5.37,0,0,1-2,.31,3.1,3.1,0,0,1-2.41-.94,4.57,4.57,0,0,1-.86-3.2v-6.71h-1.91v-1.7h1.91v-2.94Z"/><path class="cls-3" d="M1073,423a1.31,1.31,0,0,1-1.42,1.37,1.33,1.33,0,0,1-1.35-1.37,1.37,1.37,0,0,1,1.4-1.4A1.33,1.33,0,0,1,1073,423Zm-2.49,15.74V426.49h2.24v12.29Z"/><path class="cls-3" d="M1087.6,432.54c0,4.54-3.15,6.52-6.12,6.52-3.33,0-5.89-2.44-5.89-6.32,0-4.11,2.69-6.53,6.09-6.53S1087.6,428.78,1087.6,432.54Zm-9.75.12c0,2.69,1.54,4.73,3.73,4.73s3.73-2,3.73-4.78c0-2.08-1-4.72-3.68-4.72S1077.85,430.33,1077.85,432.66Z"/><path class="cls-3" d="M1090.41,429.82c0-1.27,0-2.31-.1-3.33h2l.13,2h0a4.53,4.53,0,0,1,4.06-2.31c1.7,0,4.34,1,4.34,5.23v7.34h-2.23V431.7c0-2-.74-3.63-2.84-3.63a3.17,3.17,0,0,0-3,2.28,3.26,3.26,0,0,0-.15,1v7.39h-2.24Z"/><circle class="cls-4" cx="872.42" cy="215" r="4.5"/><circle class="cls-4" cx="872.24" cy="267.31" r="4.5"/><circle class="cls-4" cx="872.06" cy="324.62" r="4.5"/><circle class="cls-4" cx="871.87" cy="405.89" r="4.5"/><polygon class="cls-5" points="0 0 0 484.96 407.97 484.96 407.97 0.11 0 0"/><line class="cls-6" x1="19.1" y1="170.99" x2="388.87" y2="170.93"/><path class="cls-3" d="M169.29,88.53c-.14-3-.31-6.5-.27-9.58h-.11c-.74,2.78-1.69,5.86-2.7,8.73l-3.32,9.89h-3.21l-3.05-9.75c-.88-2.91-1.69-6-2.3-8.87h-.07c-.1,3-.24,6.6-.41,9.71l-.5,9.18h-3.89L151,75h5.48l3,9.17c.81,2.67,1.52,5.38,2.1,7.92h.1c.61-2.47,1.39-5.28,2.27-8L167.05,75h5.42l1.32,22.81h-4.06Z"/><path class="cls-3" d="M193.69,89.44c0,6.06-4.26,8.77-8.46,8.77-4.67,0-8.25-3.22-8.25-8.5S180.53,81,185.5,81,193.69,84.43,193.69,89.44Zm-12.42.17c0,3.18,1.56,5.59,4.1,5.59,2.37,0,4-2.34,4-5.66,0-2.57-1.15-5.51-4-5.51S181.27,86.87,181.27,89.61Z"/><path class="cls-3" d="M197,97.84c.07-1.12.14-3,.14-4.64V73.81h4.16v9.81h.07A6,6,0,0,1,206.63,81c4,0,6.9,3.35,6.87,8.36,0,5.92-3.76,8.87-7.48,8.87a5.66,5.66,0,0,1-5.21-2.84h-.07l-.2,2.47Zm4.3-6.81a4.55,4.55,0,0,0,.1,1,3.85,3.85,0,0,0,3.69,2.91c2.61,0,4.2-2.1,4.2-5.42,0-2.91-1.39-5.28-4.17-5.28a3.91,3.91,0,0,0-3.69,3,5.41,5.41,0,0,0-.13,1.08Z"/><path class="cls-3" d="M221.35,76.75a2.34,2.34,0,0,1-4.67,0,2.34,2.34,0,0,1,4.67,0Zm-4.43,21.09V81.35h4.2V97.84Z"/><path class="cls-3" d="M225.58,73.81h4.2v24h-4.2Z"/><path class="cls-3" d="M238.72,76.75A2.21,2.21,0,0,1,236.35,79a2.18,2.18,0,0,1-2.3-2.23,2.34,2.34,0,0,1,4.67,0Zm-4.44,21.09V81.35h4.2V97.84Z"/><path class="cls-3" d="M247.72,76.65v4.7h4v3.12h-4v7.27c0,2,.54,3.05,2.13,3.05a6.22,6.22,0,0,0,1.63-.2l.07,3.18a9.1,9.1,0,0,1-3,.41A4.8,4.8,0,0,1,245,96.82c-.88-.95-1.29-2.44-1.29-4.6V84.47h-2.37V81.35h2.37V77.63Z"/><path class="cls-3" d="M257.67,81.35l3,8.84c.34,1,.68,2.27.92,3.21h.1c.27-.94.57-2.16.88-3.25l2.57-8.8h4.47l-4.13,11.24c-2.27,6.16-3.79,8.9-5.75,10.59a8.42,8.42,0,0,1-4.37,2.14l-1-3.52A7.57,7.57,0,0,0,259.1,98a1.68,1.68,0,0,0,.27-.74,1.86,1.86,0,0,0-.24-.82l-6-15.13Z"/><path class="cls-3" d="M77.52,216.46l-1.78,5.38H73.46l5.81-17.11h2.67l5.84,17.11H85.42l-1.83-5.38Zm5.61-1.73-1.67-4.93c-.38-1.11-.64-2.13-.89-3.12h0c-.26,1-.54,2.06-.87,3.1L78,214.73Z"/><path class="cls-3" d="M100.19,218.49c0,1.27,0,2.39.11,3.35h-2l-.13-2h0a4.64,4.64,0,0,1-4.06,2.29c-1.93,0-4.25-1.07-4.25-5.38v-7.19h2.24v6.81c0,2.33.71,3.91,2.74,3.91a3.25,3.25,0,0,0,3-2,3.4,3.4,0,0,0,.2-1.14v-7.54h2.23Z"/><path class="cls-3" d="M106.59,206v3.53h3.2v1.7h-3.2v6.63c0,1.52.43,2.39,1.68,2.39a4.73,4.73,0,0,0,1.29-.16l.1,1.68a5.4,5.4,0,0,1-2,.3,3.09,3.09,0,0,1-2.41-.94,4.56,4.56,0,0,1-.86-3.19v-6.71H102.5v-1.7h1.91v-2.94Z"/><path class="cls-3" d="M123.27,215.59c0,4.55-3.15,6.53-6.12,6.53-3.32,0-5.89-2.44-5.89-6.32,0-4.12,2.69-6.53,6.1-6.53S123.27,211.84,123.27,215.59Zm-9.75.13c0,2.69,1.55,4.72,3.73,4.72s3.74-2,3.74-4.77c0-2.08-1-4.72-3.68-4.72S113.52,213.38,113.52,215.72Z"/><path class="cls-3" d="M126.09,212.88c0-1.27,0-2.31-.1-3.33h2l.13,2h.05a4.51,4.51,0,0,1,4.06-2.31c1.7,0,4.34,1,4.34,5.23v7.34h-2.23v-7.08c0-2-.74-3.63-2.85-3.63a3.17,3.17,0,0,0-3,2.28,3,3,0,0,0-.16,1v7.39h-2.23Z"/><path class="cls-3" d="M151.3,215.59c0,4.55-3.15,6.53-6.12,6.53-3.32,0-5.89-2.44-5.89-6.32,0-4.12,2.69-6.53,6.1-6.53S151.3,211.84,151.3,215.59Zm-9.75.13c0,2.69,1.55,4.72,3.73,4.72s3.74-2,3.74-4.77c0-2.08-1-4.72-3.69-4.72S141.55,213.38,141.55,215.72Z"/><path class="cls-3" d="M154.12,212.88c0-1.27,0-2.31-.1-3.33H156l.1,2h.08a4.24,4.24,0,0,1,3.86-2.26,3.63,3.63,0,0,1,3.48,2.46h0a5.19,5.19,0,0,1,1.37-1.6,4.25,4.25,0,0,1,2.72-.86c1.62,0,4,1.07,4,5.33v7.24h-2.18v-7c0-2.36-.86-3.78-2.67-3.78a2.89,2.89,0,0,0-2.64,2,3.77,3.77,0,0,0-.17,1.12v7.59h-2.19v-7.36c0-2-.86-3.38-2.56-3.38a3.33,3.33,0,0,0-2.95,3.33v7.41h-2.18Z"/><path class="cls-3" d="M186.41,215.59c0,4.55-3.14,6.53-6.12,6.53-3.32,0-5.89-2.44-5.89-6.32,0-4.12,2.7-6.53,6.1-6.53S186.41,211.84,186.41,215.59Zm-9.75.13c0,2.69,1.55,4.72,3.74,4.72s3.73-2,3.73-4.77c0-2.08-1-4.72-3.68-4.72S176.66,213.38,176.66,215.72Z"/><path class="cls-3" d="M199.51,218.49c0,1.27,0,2.39.11,3.35h-2l-.13-2h0a4.64,4.64,0,0,1-4.06,2.29c-1.93,0-4.24-1.07-4.24-5.38v-7.19h2.23v6.81c0,2.33.71,3.91,2.74,3.91a3.25,3.25,0,0,0,3-2,3.4,3.4,0,0,0,.2-1.14v-7.54h2.23Z"/><path class="cls-3" d="M202.92,219.55a5.75,5.75,0,0,0,2.94.89c1.63,0,2.39-.81,2.39-1.82s-.64-1.66-2.29-2.26c-2.21-.79-3.25-2-3.25-3.48,0-2,1.6-3.61,4.24-3.61a6.16,6.16,0,0,1,3,.76l-.55,1.63a4.79,4.79,0,0,0-2.52-.71c-1.32,0-2.05.76-2.05,1.67s.73,1.48,2.33,2.09c2.13.81,3.23,1.87,3.23,3.7,0,2.16-1.68,3.68-4.6,3.68a7.06,7.06,0,0,1-3.45-.83Z"/><path class="cls-3" d="M218.66,212.88c0-1.27,0-2.31-.11-3.33h2l.12,2h.05a4.52,4.52,0,0,1,4.07-2.31c1.7,0,4.34,1,4.34,5.23v7.34h-2.24v-7.08c0-2-.73-3.63-2.84-3.63a3.18,3.18,0,0,0-3,2.28,3.26,3.26,0,0,0-.15,1v7.39h-2.23Z"/><path class="cls-3" d="M239.55,221.84l-.18-1.55h-.07a4.58,4.58,0,0,1-3.76,1.83,3.5,3.5,0,0,1-3.76-3.53c0-3,2.64-4.6,7.39-4.57v-.25a2.54,2.54,0,0,0-2.79-2.85,6.11,6.11,0,0,0-3.2.92l-.51-1.48a7.65,7.65,0,0,1,4-1.09c3.76,0,4.67,2.57,4.67,5v4.59a17.62,17.62,0,0,0,.2,3Zm-.33-6.27c-2.44,0-5.2.38-5.2,2.77a2,2,0,0,0,2.1,2.13,3.05,3.05,0,0,0,3-2.06,2.22,2.22,0,0,0,.13-.71Z"/><path class="cls-3" d="M245.64,209.55l2.42,6.91c.4,1.11.73,2.13,1,3.15h.07c.28-1,.64-2,1-3.15l2.39-6.91h2.34l-4.83,12.29h-2.13l-4.67-12.29Z"/><path class="cls-3" d="M259.48,206.1a1.31,1.31,0,0,1-1.42,1.37,1.33,1.33,0,0,1-1.35-1.37,1.37,1.37,0,0,1,1.4-1.4A1.33,1.33,0,0,1,259.48,206.1ZM257,221.84V209.55h2.24v12.29Z"/><path class="cls-3" d="M273.52,209.55c0,.89-.1,1.88-.1,3.38v7.13c0,2.82-.56,4.55-1.75,5.61a6.52,6.52,0,0,1-4.47,1.48,8,8,0,0,1-4.09-1l.56-1.7a6.9,6.9,0,0,0,3.61,1c2.28,0,4-1.19,4-4.29v-1.37h-.05a4.38,4.38,0,0,1-3.91,2.06c-3,0-5.24-2.59-5.24-6,0-4.17,2.72-6.53,5.54-6.53a4.09,4.09,0,0,1,3.83,2.13h0l.11-1.85Zm-2.31,4.85a3,3,0,0,0-.13-1A3.21,3.21,0,0,0,268,211c-2.13,0-3.66,1.81-3.66,4.65,0,2.41,1.22,4.42,3.64,4.42A3.26,3.26,0,0,0,271,217.8a3.78,3.78,0,0,0,.18-1.19Z"/><path class="cls-3" d="M283.93,221.84l-.18-1.55h-.07a4.58,4.58,0,0,1-3.76,1.83,3.5,3.5,0,0,1-3.76-3.53c0-3,2.64-4.6,7.39-4.57v-.25a2.54,2.54,0,0,0-2.79-2.85,6.09,6.09,0,0,0-3.2.92l-.51-1.48a7.65,7.65,0,0,1,4-1.09c3.75,0,4.67,2.57,4.67,5v4.59a17.62,17.62,0,0,0,.2,3Zm-.33-6.27c-2.44,0-5.2.38-5.2,2.77a2,2,0,0,0,2.1,2.13,3.05,3.05,0,0,0,3-2.06,2.22,2.22,0,0,0,.13-.71Z"/><path class="cls-3" d="M292,206v3.53h3.2v1.7H292v6.63c0,1.52.44,2.39,1.68,2.39a4.67,4.67,0,0,0,1.29-.16l.11,1.68a5.48,5.48,0,0,1-2,.3,3.11,3.11,0,0,1-2.42-.94,4.56,4.56,0,0,1-.86-3.19v-6.71h-1.9v-1.7h1.9v-2.94Z"/><path class="cls-3" d="M300.15,206.1a1.31,1.31,0,0,1-1.42,1.37,1.33,1.33,0,0,1-1.34-1.37,1.36,1.36,0,0,1,1.39-1.4A1.33,1.33,0,0,1,300.15,206.1Zm-2.48,15.74V209.55h2.23v12.29Z"/><path class="cls-3" d="M314.73,215.59c0,4.55-3.15,6.53-6.12,6.53-3.33,0-5.89-2.44-5.89-6.32,0-4.12,2.69-6.53,6.09-6.53S314.73,211.84,314.73,215.59Zm-9.75.13c0,2.69,1.55,4.72,3.73,4.72s3.73-2,3.73-4.77c0-2.08-1-4.72-3.68-4.72S305,213.38,305,215.72Z"/><path class="cls-3" d="M317.54,212.88c0-1.27,0-2.31-.1-3.33h2l.13,2h.05a4.51,4.51,0,0,1,4.06-2.31c1.71,0,4.35,1,4.35,5.23v7.34h-2.24v-7.08c0-2-.73-3.63-2.84-3.63a3.18,3.18,0,0,0-3,2.28,3.26,3.26,0,0,0-.15,1v7.39h-2.24Z"/><path class="cls-3" d="M74.45,244.54a7.83,7.83,0,0,0,4,1.11c2.26,0,3.58-1.19,3.58-2.92s-.91-2.51-3.22-3.4c-2.8-1-4.52-2.44-4.52-4.85,0-2.66,2.21-4.64,5.53-4.64a7.79,7.79,0,0,1,3.78.83l-.6,1.81a6.77,6.77,0,0,0-3.25-.82c-2.34,0-3.23,1.4-3.23,2.57,0,1.6,1,2.39,3.4,3.3,2.9,1.12,4.37,2.51,4.37,5s-2,4.92-6,4.92a8.84,8.84,0,0,1-4.37-1.09Z"/><path class="cls-3" d="M87.8,234.94l2.7,7.26c.27.81.58,1.78.78,2.51h0c.23-.73.49-1.67.79-2.56l2.44-7.21h2.36l-3.35,8.76c-1.6,4.21-2.69,6.37-4.22,7.69a6,6,0,0,1-2.74,1.45L86.05,251a5.92,5.92,0,0,0,2-1.09,6.8,6.8,0,0,0,1.88-2.49,1.63,1.63,0,0,0,.17-.53,2,2,0,0,0-.15-.59l-4.54-11.32Z"/><path class="cls-3" d="M98.49,244.94a5.78,5.78,0,0,0,3,.89c1.62,0,2.38-.81,2.38-1.83s-.63-1.65-2.28-2.26c-2.21-.78-3.25-2-3.25-3.47,0-2,1.6-3.61,4.24-3.61a6.19,6.19,0,0,1,3,.76l-.56,1.63a4.72,4.72,0,0,0-2.51-.71c-1.32,0-2.06.76-2.06,1.67s.74,1.47,2.34,2.08c2.13.82,3.22,1.88,3.22,3.71,0,2.16-1.67,3.68-4.59,3.68a7,7,0,0,1-3.46-.84Z"/><path class="cls-3" d="M111.54,231.41v3.53h3.2v1.7h-3.2v6.63c0,1.52.43,2.38,1.68,2.38a4.81,4.81,0,0,0,1.29-.15l.1,1.68a5.4,5.4,0,0,1-2,.3,3.09,3.09,0,0,1-2.41-.94,4.57,4.57,0,0,1-.86-3.2v-6.7h-1.91v-1.7h1.91V232Z"/><path class="cls-3" d="M118.35,241.49c.05,3,2,4.27,4.21,4.27a8,8,0,0,0,3.4-.64l.38,1.6a9.83,9.83,0,0,1-4.08.76c-3.79,0-6.05-2.49-6.05-6.19s2.19-6.63,5.77-6.63c4,0,5.07,3.53,5.07,5.79a10,10,0,0,1-.07,1Zm6.55-1.6c0-1.42-.59-3.63-3.1-3.63-2.26,0-3.25,2.08-3.43,3.63Z"/><path class="cls-3" d="M129.82,238.27c0-1.27,0-2.31-.1-3.33h1.95l.11,2h.07a4.24,4.24,0,0,1,3.86-2.26,3.63,3.63,0,0,1,3.48,2.46h.05a5.08,5.08,0,0,1,1.37-1.6,4.2,4.2,0,0,1,2.72-.86c1.62,0,4,1.07,4,5.33v7.24h-2.19v-7c0-2.36-.86-3.78-2.66-3.78a2.89,2.89,0,0,0-2.64,2,3.41,3.41,0,0,0-.18,1.12v7.59h-2.19v-7.36c0-2-.86-3.38-2.56-3.38a3.06,3.06,0,0,0-2.77,2.23,3.24,3.24,0,0,0-.18,1.09v7.42h-2.18Z"/><path class="cls-3" d="M77.52,297.23l-1.78,5.39H73.46l5.81-17.12h2.67l5.84,17.12H85.42l-1.83-5.39Zm5.61-1.72-1.67-4.93c-.38-1.12-.64-2.13-.89-3.12h0c-.26,1-.54,2.06-.87,3.1L78,295.51Z"/><path class="cls-3" d="M100.19,299.27c0,1.26,0,2.38.11,3.35h-2l-.13-2h0a4.64,4.64,0,0,1-4.06,2.29c-1.93,0-4.25-1.07-4.25-5.39v-7.18h2.24v6.8c0,2.34.71,3.91,2.74,3.91a3.24,3.24,0,0,0,3-2,3.4,3.4,0,0,0,.2-1.14v-7.54h2.23Z"/><path class="cls-3" d="M106.59,286.8v3.53h3.2V292h-3.2v6.63c0,1.52.43,2.38,1.68,2.38a4.81,4.81,0,0,0,1.29-.15l.1,1.68a5.62,5.62,0,0,1-2,.3,3.09,3.09,0,0,1-2.41-.94,4.57,4.57,0,0,1-.86-3.2V292H102.5v-1.7h1.91v-2.95Z"/><path class="cls-3" d="M123.27,296.37c0,4.55-3.15,6.53-6.12,6.53-3.32,0-5.89-2.44-5.89-6.33,0-4.11,2.69-6.52,6.1-6.52S123.27,292.61,123.27,296.37Zm-9.75.13c0,2.69,1.55,4.72,3.73,4.72s3.74-2,3.74-4.77c0-2.09-1-4.73-3.68-4.73S113.52,294.16,113.52,296.5Z"/><path class="cls-3" d="M126.09,293.65c0-1.27,0-2.31-.1-3.32h2l.13,2h.05a4.51,4.51,0,0,1,4.06-2.31c1.7,0,4.34,1,4.34,5.23v7.34h-2.23v-7.09c0-2-.74-3.63-2.85-3.63a3.17,3.17,0,0,0-3,2.29,3,3,0,0,0-.16,1v7.39h-2.23Z"/><path class="cls-3" d="M151.3,296.37c0,4.55-3.15,6.53-6.12,6.53-3.32,0-5.89-2.44-5.89-6.33,0-4.11,2.69-6.52,6.1-6.52S151.3,292.61,151.3,296.37Zm-9.75.13c0,2.69,1.55,4.72,3.73,4.72s3.74-2,3.74-4.77c0-2.09-1-4.73-3.69-4.73S141.55,294.16,141.55,296.5Z"/><path class="cls-3" d="M154.12,293.65c0-1.27,0-2.31-.1-3.32H156l.1,2h.08a4.24,4.24,0,0,1,3.86-2.26,3.62,3.62,0,0,1,3.48,2.46h0a5.08,5.08,0,0,1,1.37-1.6,4.2,4.2,0,0,1,2.72-.86c1.62,0,4,1.06,4,5.33v7.24h-2.18v-7c0-2.36-.86-3.78-2.67-3.78a2.89,2.89,0,0,0-2.64,2A3.72,3.72,0,0,0,164,295v7.59h-2.19v-7.37c0-1.95-.86-3.37-2.56-3.37a3,3,0,0,0-2.77,2.23,3,3,0,0,0-.18,1.09v7.42h-2.18Z"/><path class="cls-3" d="M186.41,296.37c0,4.55-3.14,6.53-6.12,6.53-3.32,0-5.89-2.44-5.89-6.33,0-4.11,2.7-6.52,6.1-6.52S186.41,292.61,186.41,296.37Zm-9.75.13c0,2.69,1.55,4.72,3.74,4.72s3.73-2,3.73-4.77c0-2.09-1-4.73-3.68-4.73S176.66,294.16,176.66,296.5Z"/><path class="cls-3" d="M199.51,299.27c0,1.26,0,2.38.11,3.35h-2l-.13-2h0a4.64,4.64,0,0,1-4.06,2.29c-1.93,0-4.24-1.07-4.24-5.39v-7.18h2.23v6.8c0,2.34.71,3.91,2.74,3.91a3.24,3.24,0,0,0,3-2,3.4,3.4,0,0,0,.2-1.14v-7.54h2.23Z"/><path class="cls-3" d="M202.92,300.33a5.84,5.84,0,0,0,2.94.89c1.63,0,2.39-.81,2.39-1.83s-.64-1.65-2.29-2.26c-2.21-.78-3.25-2-3.25-3.48,0-2,1.6-3.6,4.24-3.6a6.05,6.05,0,0,1,3,.76l-.55,1.63a4.78,4.78,0,0,0-2.52-.72c-1.32,0-2.05.77-2.05,1.68s.73,1.47,2.33,2.08c2.13.81,3.23,1.88,3.23,3.71,0,2.16-1.68,3.68-4.6,3.68a7,7,0,0,1-3.45-.84Z"/><path class="cls-3" d="M229.24,290.33c-.05.89-.1,1.88-.1,3.37v7.14c0,2.82-.56,4.54-1.75,5.61a6.49,6.49,0,0,1-4.47,1.47,8,8,0,0,1-4.09-1l.56-1.7a7,7,0,0,0,3.61,1c2.28,0,4-1.19,4-4.29v-1.37h-.05a4.4,4.4,0,0,1-3.91,2.06c-3.05,0-5.23-2.59-5.23-6,0-4.16,2.71-6.52,5.53-6.52a4.11,4.11,0,0,1,3.84,2.13h.05l.1-1.85Zm-2.31,4.85a3.29,3.29,0,0,0-.12-1,3.23,3.23,0,0,0-3.13-2.36c-2.13,0-3.65,1.8-3.65,4.65,0,2.41,1.22,4.41,3.63,4.41a3.27,3.27,0,0,0,3.1-2.28,4.08,4.08,0,0,0,.17-1.19Z"/><path class="cls-3" d="M243.13,299.27c0,1.26,0,2.38.1,3.35h-2l-.12-2h0A4.64,4.64,0,0,1,237,302.9c-1.93,0-4.24-1.07-4.24-5.39v-7.18H235v6.8c0,2.34.71,3.91,2.74,3.91a3.21,3.21,0,0,0,2.94-2,3.17,3.17,0,0,0,.21-1.14v-7.54h2.23Z"/><path class="cls-3" d="M249.33,286.87a1.39,1.39,0,0,1-2.77,0,1.36,1.36,0,0,1,1.4-1.39A1.33,1.33,0,0,1,249.33,286.87Zm-2.49,15.75V290.33h2.23v12.29Z"/><path class="cls-3" d="M263.39,284.59v14.85c0,1.09,0,2.34.1,3.18h-2l-.1-2.14h-.06a4.52,4.52,0,0,1-4.18,2.42c-3,0-5.26-2.52-5.26-6.25,0-4.09,2.51-6.6,5.51-6.6a4.12,4.12,0,0,1,3.71,1.88h.05v-7.34Zm-2.23,10.74a4.29,4.29,0,0,0-.1-.94,3.29,3.29,0,0,0-3.23-2.59c-2.31,0-3.68,2-3.68,4.75,0,2.49,1.22,4.54,3.63,4.54a3.37,3.37,0,0,0,3.28-2.66,4.25,4.25,0,0,0,.1-1Z"/><path class="cls-3" d="M268.34,296.88a3.93,3.93,0,0,0,4.22,4.26,8.17,8.17,0,0,0,3.4-.63l.38,1.6a10.06,10.06,0,0,1-4.09.76c-3.78,0-6-2.49-6-6.19s2.18-6.63,5.76-6.63c4,0,5.08,3.53,5.08,5.79a7.57,7.57,0,0,1-.08,1Zm6.55-1.6c0-1.42-.58-3.63-3.1-3.63-2.25,0-3.25,2.08-3.42,3.63Z"/><path class="cls-3" d="M290.43,284.59v14.85c0,1.09,0,2.34.1,3.18h-2l-.11-2.14h-.05a4.53,4.53,0,0,1-4.19,2.42c-3,0-5.25-2.52-5.25-6.25,0-4.09,2.51-6.6,5.51-6.6a4.12,4.12,0,0,1,3.71,1.88h.05v-7.34Zm-2.23,10.74a3.77,3.77,0,0,0-.11-.94,3.28,3.28,0,0,0-3.22-2.59c-2.31,0-3.68,2-3.68,4.75,0,2.49,1.22,4.54,3.63,4.54a3.35,3.35,0,0,0,3.27-2.66,3.74,3.74,0,0,0,.11-1Z"/><path class="cls-3" d="M300.38,290.33l2.41,6.9a30.36,30.36,0,0,1,1,3.15h.08c.28-1,.64-2,1-3.15l2.39-6.9h2.33l-4.82,12.29h-2.13L298,290.33Z"/><path class="cls-3" d="M312.72,296.88a3.93,3.93,0,0,0,4.22,4.26,8.17,8.17,0,0,0,3.4-.63l.38,1.6a10.06,10.06,0,0,1-4.09.76c-3.78,0-6-2.49-6-6.19s2.18-6.63,5.76-6.63c4,0,5.08,3.53,5.08,5.79a7.57,7.57,0,0,1-.08,1Zm6.55-1.6c0-1.42-.58-3.63-3.1-3.63-2.26,0-3.25,2.08-3.42,3.63Z"/><path class="cls-3" d="M324.2,284.59h2.23v7.67h.05a4.19,4.19,0,0,1,1.6-1.58,4.62,4.62,0,0,1,2.29-.63c1.65,0,4.29,1,4.29,5.25v7.32h-2.24v-7.06c0-2-.73-3.66-2.84-3.66a3.22,3.22,0,0,0-3,2.24,2.8,2.8,0,0,0-.15,1.06v7.42H324.2Z"/><path class="cls-3" d="M340.78,286.87a1.39,1.39,0,0,1-2.77,0,1.36,1.36,0,0,1,1.39-1.39A1.33,1.33,0,0,1,340.78,286.87Zm-2.49,15.75V290.33h2.23v12.29Z"/><path class="cls-3" d="M353,302.16a8.33,8.33,0,0,1-3.53.71c-3.71,0-6.12-2.51-6.12-6.27a6.25,6.25,0,0,1,6.6-6.53,7.39,7.39,0,0,1,3.1.64l-.51,1.73a5.1,5.1,0,0,0-2.59-.59c-2.82,0-4.34,2.08-4.34,4.65,0,2.84,1.83,4.59,4.26,4.59a6.39,6.39,0,0,0,2.75-.61Z"/><path class="cls-3" d="M355.6,284.59h2.24v18H355.6Z"/><path class="cls-3" d="M362.84,296.88c.05,3,2,4.26,4.21,4.26a8.14,8.14,0,0,0,3.4-.63l.38,1.6a10,10,0,0,1-4.08.76c-3.79,0-6.05-2.49-6.05-6.19s2.19-6.63,5.77-6.63c4,0,5.08,3.53,5.08,5.79a7.57,7.57,0,0,1-.08,1Zm6.55-1.6c0-1.42-.59-3.63-3.1-3.63-2.26,0-3.25,2.08-3.43,3.63Z"/><path class="cls-3" d="M374,300.33a5.87,5.87,0,0,0,2.94.89c1.63,0,2.39-.81,2.39-1.83s-.63-1.65-2.29-2.26c-2.2-.78-3.25-2-3.25-3.48,0-2,1.6-3.6,4.24-3.6a6.13,6.13,0,0,1,3,.76l-.56,1.63a4.72,4.72,0,0,0-2.52-.72c-1.32,0-2.05.77-2.05,1.68s.73,1.47,2.33,2.08c2.14.81,3.23,1.88,3.23,3.71,0,2.16-1.68,3.68-4.6,3.68a7,7,0,0,1-3.45-.84Z"/><path class="cls-3" d="M77.52,352.62,75.74,358H73.46l5.81-17.12h2.67L87.78,358H85.42l-1.83-5.39Zm5.61-1.72L81.46,346c-.38-1.12-.64-2.13-.89-3.12h0c-.26,1-.54,2-.87,3.09l-1.67,5Z"/><path class="cls-3" d="M90.29,341.12a32.23,32.23,0,0,1,4.7-.35c3.17,0,5.43.73,6.93,2.13a7.88,7.88,0,0,1,2.41,6.14,9,9,0,0,1-2.46,6.65c-1.6,1.6-4.24,2.47-7.57,2.47a34.84,34.84,0,0,1-4-.21Zm2.21,15.13a13,13,0,0,0,2.24.13c4.72,0,7.28-2.64,7.28-7.26,0-4-2.26-6.6-6.93-6.6a12.31,12.31,0,0,0-2.59.23Z"/><path class="cls-3" d="M109.61,352.62,107.83,358h-2.28l5.81-17.12H114L119.87,358h-2.36l-1.83-5.39Zm5.61-1.72L113.55,346c-.38-1.12-.64-2.13-.89-3.12h0c-.26,1-.53,2-.86,3.09l-1.68,5Z"/><path class="cls-3" d="M122.08,355.31a7.83,7.83,0,0,0,4,1.12c2.26,0,3.58-1.19,3.58-2.92s-.91-2.51-3.23-3.4c-2.79-1-4.52-2.44-4.52-4.85,0-2.67,2.21-4.65,5.54-4.65a7.78,7.78,0,0,1,3.78.84l-.61,1.8a6.84,6.84,0,0,0-3.25-.81c-2.33,0-3.22,1.4-3.22,2.57,0,1.6,1,2.38,3.4,3.3,2.9,1.11,4.37,2.51,4.37,5s-2,4.93-6,4.93a8.84,8.84,0,0,1-4.37-1.09Z"/><path class="cls-3" d="M140.13,350.31V352h-6.27v-1.65Z"/><path class="cls-3" d="M145.49,352.62,143.71,358h-2.29l5.82-17.12h2.66L155.74,358h-2.36l-1.83-5.39Zm5.61-1.72L149.42,346c-.38-1.12-.63-2.13-.89-3.12h-.05c-.25,1-.53,2-.86,3.09l-1.68,5Z"/><path class="cls-3" d="M160.67,358l-5.59-17.12h2.39l2.67,8.43c.73,2.31,1.37,4.39,1.82,6.4h0c.49-2,1.2-4.14,2-6.37l2.89-8.46h2.37L163.11,358Z"/><path class="cls-3" d="M176.38,349.73c0-1.58,0-2.85-.1-4h2l.1,2.1h.05a4.84,4.84,0,0,1,4.37-2.38c3,0,5.2,2.51,5.2,6.24,0,4.42-2.69,6.6-5.58,6.6a4.33,4.33,0,0,1-3.79-1.92h0V363h-2.21Zm2.21,3.27a5.18,5.18,0,0,0,.1.92,3.45,3.45,0,0,0,3.36,2.61c2.36,0,3.73-1.93,3.73-4.75,0-2.46-1.3-4.57-3.66-4.57a3.57,3.57,0,0,0-3.37,2.77,3.48,3.48,0,0,0-.16.92Z"/><path class="cls-3" d="M190.83,340h2.23v18h-2.23Z"/><path class="cls-3" d="M203.62,358l-.17-1.55h-.08a4.57,4.57,0,0,1-3.76,1.82,3.49,3.49,0,0,1-3.75-3.52c0-3,2.64-4.6,7.38-4.57v-.26a2.53,2.53,0,0,0-2.79-2.84,6.13,6.13,0,0,0-3.2.91l-.51-1.47a7.65,7.65,0,0,1,4-1.09c3.76,0,4.67,2.56,4.67,5v4.6a16.55,16.55,0,0,0,.21,2.95Zm-.33-6.28c-2.43-.05-5.2.38-5.2,2.77a2,2,0,0,0,2.11,2.13,3.06,3.06,0,0,0,3-2.05,2.52,2.52,0,0,0,.12-.71Z"/><path class="cls-3" d="M211.65,342.19v3.53h3.2v1.7h-3.2V354c0,1.53.43,2.39,1.67,2.39a4.84,4.84,0,0,0,1.3-.15l.1,1.67a5.41,5.41,0,0,1-2,.31,3.09,3.09,0,0,1-2.41-.94,4.52,4.52,0,0,1-.87-3.2v-6.7h-1.9v-1.7h1.9v-3Z"/><path class="cls-3" d="M217.59,358V347.42h-1.73v-1.7h1.73v-.59a5.8,5.8,0,0,1,1.42-4.29,4.28,4.28,0,0,1,3-1.14,5.36,5.36,0,0,1,1.9.35l-.3,1.73a3.39,3.39,0,0,0-1.43-.28c-1.9,0-2.38,1.68-2.38,3.56v.66h3v1.7h-3V358Z"/><path class="cls-3" d="M235.56,351.76c0,4.54-3.14,6.52-6.11,6.52-3.33,0-5.9-2.43-5.9-6.32,0-4.11,2.7-6.52,6.1-6.52S235.56,348,235.56,351.76Zm-9.75.13c0,2.69,1.55,4.72,3.74,4.72s3.73-2,3.73-4.77c0-2.09-1-4.73-3.68-4.73S225.81,349.55,225.81,351.89Z"/><path class="cls-3" d="M238.38,349.55c0-1.45,0-2.69-.1-3.83h2l.07,2.41h.1a3.69,3.69,0,0,1,3.41-2.69,2.43,2.43,0,0,1,.63.07v2.11a3.41,3.41,0,0,0-.76-.08,3.14,3.14,0,0,0-3,2.87,6.44,6.44,0,0,0-.1,1V358h-2.21Z"/><path class="cls-3" d="M246.79,349c0-1.27,0-2.31-.11-3.32h2l.1,2h.08a4.22,4.22,0,0,1,3.86-2.26,3.62,3.62,0,0,1,3.47,2.46h.06a5,5,0,0,1,1.37-1.6,4.15,4.15,0,0,1,2.71-.86c1.63,0,4,1.06,4,5.33V358h-2.18v-7c0-2.36-.87-3.78-2.67-3.78a2.88,2.88,0,0,0-2.64,2,3.68,3.68,0,0,0-.18,1.11V358h-2.18v-7.37c0-1.95-.86-3.37-2.57-3.37a3,3,0,0,0-2.76,2.23,3,3,0,0,0-.18,1.09V358h-2.18Z"/><path class="cls-3" d="M77.17,367.65a1.39,1.39,0,0,1-2.77,0,1.35,1.35,0,0,1,1.39-1.39A1.33,1.33,0,0,1,77.17,367.65Zm-2.49,15.74V371.1h2.23v12.29Z"/><path class="cls-3" d="M80.62,374.43c0-1.27,0-2.31-.1-3.33h2l.12,2h0a4.53,4.53,0,0,1,4.07-2.31c1.7,0,4.34,1,4.34,5.23v7.33H88.84v-7.08c0-2-.73-3.63-2.84-3.63A3.19,3.19,0,0,0,83,375a3.28,3.28,0,0,0-.15,1.05v7.38H80.62Z"/><path class="cls-3" d="M97.3,367.58v3.52h3.2v1.71H97.3v6.62c0,1.53.43,2.39,1.67,2.39a5.29,5.29,0,0,0,1.3-.15l.1,1.67a5.41,5.41,0,0,1-2,.31,3.09,3.09,0,0,1-2.41-.94,4.53,4.53,0,0,1-.86-3.2v-6.7H93.21V371.1h1.91v-2.94Z"/><path class="cls-3" d="M104.1,377.66a3.93,3.93,0,0,0,4.22,4.26,8.17,8.17,0,0,0,3.4-.63l.38,1.6a10.06,10.06,0,0,1-4.09.76c-3.78,0-6-2.49-6-6.2s2.18-6.62,5.76-6.62c4,0,5.08,3.52,5.08,5.78a10.2,10.2,0,0,1-.07,1.05Zm6.55-1.6c0-1.43-.58-3.64-3.09-3.64-2.26,0-3.25,2.09-3.43,3.64Z"/><path class="cls-3" d="M126.17,371.1c0,.89-.11,1.88-.11,3.38v7.14c0,2.81-.55,4.54-1.75,5.61a6.54,6.54,0,0,1-4.47,1.47,7.91,7.91,0,0,1-4.08-1l.55-1.7a7,7,0,0,0,3.61,1c2.29,0,4-1.19,4-4.29v-1.37h0a4.4,4.4,0,0,1-3.91,2c-3,0-5.23-2.59-5.23-6,0-4.16,2.72-6.52,5.53-6.52a4.08,4.08,0,0,1,3.84,2.13h0l.1-1.86ZM123.86,376a3.17,3.17,0,0,0-.13-1,3.22,3.22,0,0,0-3.12-2.36c-2.14,0-3.66,1.8-3.66,4.64,0,2.42,1.22,4.42,3.63,4.42a3.27,3.27,0,0,0,3.1-2.28,4.16,4.16,0,0,0,.18-1.2Z"/><path class="cls-3" d="M129.62,374.94c0-1.45,0-2.69-.1-3.84h1.95l.08,2.42h.1a3.68,3.68,0,0,1,3.4-2.69,2.51,2.51,0,0,1,.64.07V373a3.44,3.44,0,0,0-.77-.08,3.13,3.13,0,0,0-3,2.87,6.44,6.44,0,0,0-.1,1v6.55h-2.21Z"/><path class="cls-3" d="M144.6,383.39l-.18-1.55h-.08a4.54,4.54,0,0,1-3.75,1.83,3.5,3.5,0,0,1-3.76-3.53c0-3,2.64-4.59,7.39-4.57v-.25a2.53,2.53,0,0,0-2.8-2.84,6.07,6.07,0,0,0-3.19.91l-.51-1.47a7.61,7.61,0,0,1,4-1.09c3.76,0,4.68,2.56,4.68,5v4.6a17.49,17.49,0,0,0,.2,2.94Zm-.33-6.27c-2.44-.05-5.21.38-5.21,2.77a2,2,0,0,0,2.11,2.13,3,3,0,0,0,3-2,2.27,2.27,0,0,0,.13-.71Z"/><path class="cls-3" d="M152.62,367.58v3.52h3.2v1.71h-3.2v6.62c0,1.53.43,2.39,1.68,2.39a5.27,5.27,0,0,0,1.29-.15l.1,1.67a5.37,5.37,0,0,1-2,.31,3.09,3.09,0,0,1-2.41-.94,4.57,4.57,0,0,1-.86-3.2v-6.7h-1.91V371.1h1.91v-2.94Z"/><path class="cls-3" d="M160.82,367.65A1.31,1.31,0,0,1,159.4,369a1.33,1.33,0,0,1-1.35-1.37,1.36,1.36,0,0,1,1.4-1.39A1.32,1.32,0,0,1,160.82,367.65Zm-2.49,15.74V371.1h2.24v12.29Z"/><path class="cls-3" d="M175.39,377.15c0,4.54-3.14,6.52-6.11,6.52-3.33,0-5.9-2.43-5.9-6.32,0-4.11,2.7-6.52,6.1-6.52S175.39,373.39,175.39,377.15Zm-9.75.12c0,2.7,1.55,4.73,3.74,4.73s3.73-2,3.73-4.78c0-2.08-1-4.72-3.68-4.72S165.64,374.94,165.64,377.27Z"/><path class="cls-3" d="M178.21,374.43c0-1.27,0-2.31-.1-3.33h2l.13,2h.05a4.51,4.51,0,0,1,4.06-2.31c1.7,0,4.34,1,4.34,5.23v7.33h-2.23v-7.08c0-2-.74-3.63-2.85-3.63a3.17,3.17,0,0,0-3,2.28,3.28,3.28,0,0,0-.15,1.05v7.38h-2.24Z"/><path class="cls-3" d="M78.51,438.78l-5.58-17.11h2.38L78,430.1c.73,2.31,1.37,4.39,1.83,6.4h0c.48-2,1.19-4.14,2-6.38l2.9-8.45h2.36L81,438.78Z"/><path class="cls-3" d="M89.25,433c0,3,2,4.27,4.22,4.27a8,8,0,0,0,3.4-.64l.38,1.6a9.85,9.85,0,0,1-4.09.77c-3.78,0-6-2.49-6-6.2s2.18-6.63,5.76-6.63c4,0,5.08,3.53,5.08,5.79a7.3,7.3,0,0,1-.08,1Zm6.55-1.6c0-1.42-.58-3.63-3.1-3.63-2.26,0-3.25,2.09-3.42,3.63Z"/><path class="cls-3" d="M100.73,420.76H103v7.66H103a4.23,4.23,0,0,1,1.6-1.57,4.62,4.62,0,0,1,2.29-.64c1.65,0,4.29,1,4.29,5.26v7.31H109v-7.06c0-2-.73-3.65-2.84-3.65a3.21,3.21,0,0,0-3,2.23,2.88,2.88,0,0,0-.15,1.07v7.41h-2.23Z"/><path class="cls-3" d="M117.31,423a1.39,1.39,0,0,1-2.77,0,1.36,1.36,0,0,1,1.39-1.4A1.33,1.33,0,0,1,117.31,423Zm-2.49,15.74V426.49h2.23v12.29Z"/><path class="cls-3" d="M129.52,438.33A8.33,8.33,0,0,1,126,439c-3.71,0-6.12-2.52-6.12-6.28a6.24,6.24,0,0,1,6.6-6.52,7.57,7.57,0,0,1,3.1.63l-.51,1.73a5.23,5.23,0,0,0-2.59-.58c-2.82,0-4.34,2.08-4.34,4.64,0,2.85,1.83,4.6,4.26,4.6a6.39,6.39,0,0,0,2.75-.61Z"/><path class="cls-3" d="M132.13,420.76h2.24v18h-2.24Z"/><path class="cls-3" d="M139.37,433c0,3,2,4.27,4.21,4.27a8,8,0,0,0,3.4-.64l.39,1.6a9.89,9.89,0,0,1-4.09.77c-3.79,0-6.05-2.49-6.05-6.2s2.19-6.63,5.77-6.63c4,0,5.08,3.53,5.08,5.79a7.3,7.3,0,0,1-.08,1Zm6.55-1.6c0-1.42-.59-3.63-3.1-3.63-2.26,0-3.25,2.09-3.43,3.63Z"/><path class="cls-3" d="M166.84,420.76v14.85c0,1.09,0,2.33.1,3.17h-2l-.1-2.13h-.05a4.54,4.54,0,0,1-4.19,2.41c-3,0-5.25-2.51-5.25-6.24,0-4.09,2.51-6.61,5.51-6.61a4.11,4.11,0,0,1,3.7,1.88h0v-7.33ZM164.6,431.5a3.76,3.76,0,0,0-.1-.94,3.28,3.28,0,0,0-3.22-2.59c-2.31,0-3.68,2-3.68,4.74,0,2.49,1.21,4.55,3.63,4.55a3.35,3.35,0,0,0,3.27-2.67,3.68,3.68,0,0,0,.1-1Z"/><path class="cls-3" d="M173,423a1.31,1.31,0,0,1-1.42,1.37,1.33,1.33,0,0,1-1.35-1.37,1.37,1.37,0,0,1,1.4-1.4A1.33,1.33,0,0,1,173,423Zm-2.49,15.74V426.49h2.24v12.29Z"/><path class="cls-3" d="M183.29,438.78l-.18-1.55H183a4.58,4.58,0,0,1-3.76,1.83,3.5,3.5,0,0,1-3.76-3.53c0-3,2.64-4.59,7.39-4.57v-.25a2.54,2.54,0,0,0-2.79-2.85,6.09,6.09,0,0,0-3.2.92l-.51-1.47a7.62,7.62,0,0,1,4-1.1c3.75,0,4.67,2.57,4.67,5v4.6a17.57,17.57,0,0,0,.2,2.94Zm-.33-6.27c-2.44-.05-5.21.38-5.21,2.77a2,2,0,0,0,2.11,2.13,3,3,0,0,0,3-2.06,2.17,2.17,0,0,0,.13-.71Z"/><path class="cls-3" d="M199.31,426.49c-.05.89-.1,1.88-.1,3.38V437c0,2.81-.56,4.54-1.75,5.61a6.56,6.56,0,0,1-4.47,1.47,7.92,7.92,0,0,1-4.09-1l.56-1.7a6.89,6.89,0,0,0,3.6,1c2.29,0,4-1.2,4-4.29v-1.38H197a4.36,4.36,0,0,1-3.91,2.06c-3,0-5.23-2.59-5.23-6,0-4.16,2.72-6.53,5.54-6.53a4.08,4.08,0,0,1,3.83,2.14h.05l.1-1.86ZM197,431.34a3.17,3.17,0,0,0-.13-1,3.21,3.21,0,0,0-3.12-2.36c-2.13,0-3.66,1.8-3.66,4.64,0,2.41,1.22,4.42,3.63,4.42a3.27,3.27,0,0,0,3.1-2.28,3.88,3.88,0,0,0,.18-1.2Z"/><path class="cls-3" d="M202.76,429.82c0-1.27,0-2.31-.1-3.33h2l.13,2h0a4.53,4.53,0,0,1,4.06-2.31c1.7,0,4.34,1,4.34,5.23v7.34H211V431.7c0-2-.74-3.63-2.85-3.63a3.17,3.17,0,0,0-3,2.28,3.26,3.26,0,0,0-.15,1v7.39h-2.24Z"/><path class="cls-3" d="M228,432.54c0,4.54-3.15,6.52-6.12,6.52-3.32,0-5.89-2.44-5.89-6.32,0-4.11,2.69-6.53,6.1-6.53S228,428.78,228,432.54Zm-9.75.12c0,2.69,1.55,4.73,3.74,4.73s3.73-2,3.73-4.78c0-2.08-1-4.72-3.68-4.72S218.22,430.33,218.22,432.66Z"/><path class="cls-3" d="M230.49,436.5a5.84,5.84,0,0,0,2.94.89c1.63,0,2.39-.82,2.39-1.83s-.64-1.65-2.29-2.26c-2.21-.79-3.25-2-3.25-3.48,0-2,1.6-3.61,4.24-3.61a6,6,0,0,1,3,.77L237,428.6a4.89,4.89,0,0,0-2.52-.71c-1.32,0-2.06.76-2.06,1.68s.74,1.47,2.34,2.08c2.13.81,3.23,1.88,3.23,3.7,0,2.16-1.68,3.69-4.6,3.69a7,7,0,0,1-3.45-.84Z"/><path class="cls-3" d="M243.54,423v3.53h3.19v1.7h-3.19v6.63c0,1.52.43,2.39,1.67,2.39a5.36,5.36,0,0,0,1.3-.15l.1,1.67a5.41,5.41,0,0,1-2,.31,3.12,3.12,0,0,1-2.42-.94,4.59,4.59,0,0,1-.86-3.2v-6.71h-1.9v-1.7h1.9v-2.94Z"/><path class="cls-3" d="M251.74,423a1.39,1.39,0,0,1-2.77,0,1.36,1.36,0,0,1,1.39-1.4A1.33,1.33,0,0,1,251.74,423Zm-2.49,15.74V426.49h2.23v12.29Z"/><path class="cls-3" d="M264,438.33a8.33,8.33,0,0,1-3.53.71c-3.71,0-6.12-2.52-6.12-6.28a6.24,6.24,0,0,1,6.6-6.52,7.57,7.57,0,0,1,3.1.63l-.51,1.73a5.23,5.23,0,0,0-2.59-.58c-2.82,0-4.34,2.08-4.34,4.64,0,2.85,1.83,4.6,4.26,4.6a6.39,6.39,0,0,0,2.75-.61Z"/><path class="cls-3" d="M266.26,436.5a5.84,5.84,0,0,0,2.94.89c1.63,0,2.39-.82,2.39-1.83s-.64-1.65-2.29-2.26c-2.21-.79-3.25-2-3.25-3.48,0-2,1.6-3.61,4.24-3.61a6.12,6.12,0,0,1,3,.77l-.56,1.62a4.85,4.85,0,0,0-2.52-.71c-1.32,0-2.05.76-2.05,1.68s.73,1.47,2.33,2.08c2.14.81,3.23,1.88,3.23,3.7,0,2.16-1.68,3.69-4.6,3.69a7,7,0,0,1-3.45-.84Z"/><circle class="cls-4" cx="51.4" cy="215" r="4.5"/><circle class="cls-4" cx="51.4" cy="292.62" r="4.5"/><circle class="cls-4" cx="51.4" cy="349.62" r="4.5"/><circle class="cls-4" cx="51.4" cy="430.93" r="4.5"/><path class="cls-3" d="M90.53,50.24h1.11s.08.09.12.09a4.58,4.58,0,0,1,3.88,5.19.85.85,0,0,0,.21.62,21.67,21.67,0,0,1,3.83,6.59l.37,1c1.42-.53,2.73-1.13,4.09-1.5s2.83-.54,4.25-.83A1.47,1.47,0,0,0,109,61a4.58,4.58,0,1,1,6.46,6.48,1.64,1.64,0,0,0-.4.8c-.33,1.51-.54,3-.95,4.54-.34,1.23-.89,2.4-1.36,3.63l1,.41a22.16,22.16,0,0,1,6.28,3.59,1.76,1.76,0,0,0,1.11.36A4.68,4.68,0,0,1,126,84.11a5.1,5.1,0,0,0,.19.5v1.58s-.1.06-.11.1c-.89,2.71-2.24,3.64-5.18,3.6a1.25,1.25,0,0,0-.6.27c-1.36.89-2.68,1.86-4.09,2.67a35.39,35.39,0,0,1-3.37,1.53,1.55,1.55,0,0,0,.05.23,22.16,22.16,0,0,1,2.31,8.16,1.36,1.36,0,0,0,.48.73,4.58,4.58,0,1,1-6.45,6.45,2.12,2.12,0,0,0-1.11-.57c-1.16-.26-2.35-.33-3.48-.66-1.54-.44-3-1-4.53-1.59,0,0-.07.06-.09.1s-.1.25-.15.37a22.24,22.24,0,0,1-4,7,1.11,1.11,0,0,0-.17.71,4.31,4.31,0,0,1-1.9,4,13.35,13.35,0,0,1-2.29,1h-.79s-.07-.09-.11-.1c-2.81-.69-4-2.11-4-4.94a1.08,1.08,0,0,0-.21-.63,21.26,21.26,0,0,1-3.9-6.82c-.09-.23-.2-.46-.3-.71l-1,.42a21.1,21.1,0,0,1-6.26,1.85,1.69,1.69,0,0,0-1.36.74,4.48,4.48,0,0,1-6,1.1c-2-1.27-2.91-4-1.57-5.93a7.92,7.92,0,0,0,1.23-4.06,3.2,3.2,0,0,1,.11-.7c.64-2.06,1.28-4.11,1.94-6.19a1.24,1.24,0,0,0-.22-.11,21.76,21.76,0,0,1-7.24-4.1.92.92,0,0,0-.64-.15,4.59,4.59,0,0,1-5-3.47c0-.19-.12-.38-.18-.57v-1s.1-.07.1-.11a4.6,4.6,0,0,1,5.12-4,1,1,0,0,0,.7-.23,22,22,0,0,1,6.83-3.9l.72-.31c-.16-.34-.29-.63-.41-.92a20.09,20.09,0,0,1-2-7.68,1.66,1.66,0,0,0-.56-1.36,4.52,4.52,0,0,1-.08-6.4c1.71-1.78,4.8-2,6.35-.08a4.75,4.75,0,0,0,3.52,1.71,1.83,1.83,0,0,1,.39.09l5.48,1.84.26-.65a22.52,22.52,0,0,1,3.76-6.64,1.64,1.64,0,0,0,.33-1,4.57,4.57,0,0,1,3.72-4.88A.89.89,0,0,0,90.53,50.24Zm11.33,47.48V71.87c-.22,0-.37,0-.53,0-6.78,0-13.56,0-20.35,0-.66,0-.7.3-.7.82q0,12.2,0,24.39c0,.23,0,.46,0,.67H90V86.43h-4.1l5.2-9,5.23,9.07H92.19V97.72Zm-27-12.32c-1.38-2.17-2.75-4.36-4.14-6.52a.7.7,0,0,0-.62-.23A20.75,20.75,0,0,0,63.79,82q2.87,3.39,0,6.76a19,19,0,0,0,6.67,3.41ZM118.41,82a21.54,21.54,0,0,0-6.1-3.28c-.52-.2-.72,0-1,.37-1.15,1.84-2.28,3.68-3.53,5.44a1.23,1.23,0,0,0,0,1.75c1.37,1.93,2.64,3.93,4,6a21.22,21.22,0,0,0,6.61-3.45C116.74,86.75,116.35,84.51,118.41,82ZM78.05,74.21c0-1.07,0-2.13,0-3.18a5.64,5.64,0,0,1,2.52-5.51,19.06,19.06,0,0,0-6.22-1.86,4.75,4.75,0,0,1-4.93,4.17,18,18,0,0,0,2.32,7.81ZM80.38,99.9c-.35,2.25.91,3.76,3.08,3.76H98.8a2.93,2.93,0,0,0,3-3.76Zm27.75,7.15c.25-2.92,1.93-4.4,4.71-4.71a22.15,22.15,0,0,0-2.29-7.24l-6.4,1.46v4.28a5.24,5.24,0,0,1-2.35,4.33A16.12,16.12,0,0,0,108.13,107.05Zm-38.76-4.39c2.66,0,4.63,1.1,5.3,4.6l5.81-1.84,0-.23c-2-1.33-2.59-3.29-2.46-5.56.06-1,0-2,0-3.08L71.66,95.1A21.36,21.36,0,0,0,69.37,102.66Zm38.4-38.93a14.67,14.67,0,0,0-6,1.87,5.46,5.46,0,0,1,2.41,5.33c-.07,1.1,0,2.2,0,3.25,2,.48,4,1,5.92,1.38a.78.78,0,0,0,.68-.35c.57-1.38,1.12-2.78,1.59-4.19a17.56,17.56,0,0,0,.48-2.29C109.28,68.2,108.11,67,107.77,63.73Zm-23.53,1H98A21.11,21.11,0,0,0,94.46,58c-2.31,1.88-4.16,1.88-6.72,0A21.79,21.79,0,0,0,84.24,64.76ZM98,106H84.33a17.69,17.69,0,0,0,3.36,6.53,4.68,4.68,0,0,1,6.9.06A21.67,21.67,0,0,0,98,106Zm3.88-36.28a2.81,2.81,0,0,0-2.94-2.64c-2.85,0-5.69,0-8.54,0-2.37,0-4.74,0-7.11,0a2.64,2.64,0,0,0-2.8,2.64ZM109.55,93l-3.79-5.81c-.6.81-1.43,1.43-1.53,2.15a35.91,35.91,0,0,0-.07,4.89Zm0-15.23-5.4-1.22a30.67,30.67,0,0,1,0,3.6c-.2,1.51.73,2.34,1.7,3.35ZM76.46,83.59c.61-.82,1.41-1.43,1.51-2.13A38,38,0,0,0,78,76.55l-5.35,1.21Zm-.06,3.66L72.68,93l5.37,1.22a22.83,22.83,0,0,1,0-2.88A4.31,4.31,0,0,0,76.4,87.25Zm-4.35-24a2.35,2.35,0,0,0-2.31-2.33,2.32,2.32,0,0,0,0,4.64A2.35,2.35,0,0,0,72.05,63.23Zm21.34,52.34a2.27,2.27,0,0,0-2.25-2.28,2.31,2.31,0,1,0,0,4.61A2.3,2.3,0,0,0,93.39,115.57ZM60.6,87.66A2.33,2.33,0,0,0,63,85.4a2.31,2.31,0,0,0-4.62-.09A2.3,2.3,0,0,0,60.6,87.66Zm61,0a2.32,2.32,0,0,0,2.33-2.3,2.32,2.32,0,0,0-4.64,0A2.32,2.32,0,0,0,121.57,87.66ZM88.81,54.87a2.31,2.31,0,1,0,4.62,0,2.31,2.31,0,0,0-4.62,0ZM70,105a2.3,2.3,0,1,0,0,4.59A2.3,2.3,0,0,0,70,105ZM112.39,61.8a2.3,2.3,0,1,0,2.32,2.32A2.34,2.34,0,0,0,112.39,61.8Zm.33,42.92a2.25,2.25,0,0,0-2.28,2.31,2.3,2.3,0,0,0,2.27,2.27,2.35,2.35,0,0,0,2.34-2.29A2.32,2.32,0,0,0,112.72,104.72Z"/><path class="cls-3" d="M474.19,89.05c-.31,0-.56,0-.79,0a1.41,1.41,0,0,0-1.69.92,4.46,4.46,0,0,1-5.32,2.17,4.7,4.7,0,0,1-3.27-4.5,4.65,4.65,0,0,1,3.72-4.43A4.6,4.6,0,0,1,472,85.84a1.47,1.47,0,0,0,1.94.83,1,1,0,0,0,.34-.74A24.83,24.83,0,0,1,487,65.78a24,24,0,0,1,10.51-3.22c.26,0,.7-.34.7-.54.06-1.61,0-3.23,0-4.92h-4.16l5.31-9.2,5.29,9.16h-4.08v5.29c14.2,2,22.23,10,24.13,24.37a3.9,3.9,0,0,0,1.07,0,1.34,1.34,0,0,0,.83-.58,4.63,4.63,0,0,1,9,1.55,4.61,4.61,0,0,1-8.89,1.74c0-.11-.11-.22-.18-.36h-1.82c-2,14.06-10,22-24.1,24v5.67h4.06l-5.3,9.2-5.28-9.14h4.09v-5.89a25.29,25.29,0,0,1-24-23.82Zm2.34,0c.72,13,12,21.44,21.68,21.4v-6.48h2.34v6.53c11.71-.34,21.33-10.55,21.55-21.47h-6.68V86.69h6.74A22.87,22.87,0,0,0,500.5,64.86V71.8h-2.32v-7c-13.56.78-21.75,12.47-21.57,21.92h6.62V89ZM531,90a2.36,2.36,0,0,0,2.34-2.33,2.44,2.44,0,0,0-2.31-2.3,2.4,2.4,0,0,0-2.37,2.31A2.34,2.34,0,0,0,531,90Zm-60.91-2.28a2.35,2.35,0,0,0-2.31-2.35,2.37,2.37,0,0,0-2.32,2.34,2.32,2.32,0,0,0,4.63,0Z"/><path class="cls-3" d="M499.42,99.44c-2.42,0-4.83,0-7.24,0-1.37,0-1.74-.36-1.72-1.75,0-1.89-.06-3.8.13-5.67a6.48,6.48,0,0,1,6.51-5.76c1.5,0,3,0,4.49,0a6.64,6.64,0,0,1,6.6,6.5c0,1.74,0,3.48,0,5.22,0,1-.41,1.45-1.44,1.46C504.3,99.45,501.86,99.44,499.42,99.44Zm-6.59-2.38h13c0-1.43,0-2.8,0-4.16a4.3,4.3,0,0,0-4.19-4.34c-1.56,0-3.11,0-4.67,0a4.24,4.24,0,0,0-4.15,3.69C492.71,93.83,492.83,95.42,492.83,97.06Z"/><path class="cls-3" d="M499.32,76.32A4.59,4.59,0,0,1,504,80.89a4.61,4.61,0,1,1-9.21,0A4.57,4.57,0,0,1,499.32,76.32Zm2.33,4.57a2.37,2.37,0,0,0-2.35-2.32A2.35,2.35,0,0,0,497,81a2.31,2.31,0,1,0,4.62-.07Z"/><path class="cls-3" d="M884.81,112.11a16,16,0,0,1,.74-2,5.26,5.26,0,0,1,3.39-2.67,1.29,1.29,0,0,0,.79-.6c2.2-5.78,4.37-11.58,6.56-17.42A5.78,5.78,0,0,1,894.22,86a5.33,5.33,0,0,1,9.8-3.74,1.35,1.35,0,0,0,1.38.77q17,0,34,0a1.36,1.36,0,0,0,1.38-.76,5.33,5.33,0,0,1,9.59,1,5.07,5.07,0,0,1-1.36,5.6,1.05,1.05,0,0,0-.3,1.34c2.07,5.47,4.11,11,6.19,16.42a1.36,1.36,0,0,0,.77.74,5.39,5.39,0,0,1,4,4.08,1.28,1.28,0,0,0,.17.3v.93a15.33,15.33,0,0,0-1.66,0c-.68.05-1-.12-1.19-.88a2.62,2.62,0,0,0-2.59-1.86,2.72,2.72,0,0,0-2.5,1.87c-.09.26-.16.53-.25.83H949a7.61,7.61,0,0,1,.61-2.17c.74-1.09,1.69-2,2.66-3.18L946,90.62l-4.06-1.12c0,.09-.06.29-.09.49-.33,2.38-.65,4.76-1,7.14-1,7.45-2.06,14.9-3.14,22.34a6.1,6.1,0,0,1-.88,1.72H908a2,2,0,0,1-1-1.69,17.24,17.24,0,0,0-.22-1.74q-1.65-11.81-3.29-23.6c-.22-1.61-.45-3.21-.66-4.65a24.25,24.25,0,0,1-3.27.8,1.06,1.06,0,0,0-1.09.81c-1.94,5.22-3.91,10.43-5.86,15.64-.11.28-.18.57-.27.87a5.36,5.36,0,0,1,3.21,5h-2.51c-.46-1.82-1.35-2.69-2.7-2.73s-2.33.78-2.93,2.77l-2.61-.18ZM905,85.68c.52,3.75,1,7.42,1.52,11.08,1,6.9,2,13.8,2.87,20.7.11.83.37,1.06,1.19,1.06q11.76,0,23.52,0c.85,0,1.14-.23,1.26-1.09.79-6.05,1.65-12.1,2.49-18.14.62-4.52,1.25-9,1.89-13.61Zm40.33,2A2.66,2.66,0,0,0,948,84.94a2.7,2.7,0,0,0-5.39.08A2.66,2.66,0,0,0,945.35,87.67Zm-45.85,0A2.71,2.71,0,0,0,902.18,85a2.71,2.71,0,1,0-5.42,0A2.67,2.67,0,0,0,899.5,87.67Z"/><path class="cls-3" d="M922.59,41.19a6.07,6.07,0,0,0,.35.83c1.82,3.21,3.66,6.42,5.55,9.73h-4.72v5H936c1.32,0,1.73.4,1.73,1.71q0,9.26,0,18.51c0,1.25-.43,1.69-1.65,1.69H908.72c-1.18,0-1.65-.46-1.65-1.62q0-9.34,0-18.7c0-1.14.48-1.58,1.67-1.58H921V51.77h-4.78l6.17-10.58ZM935,75.92V59.41H909.8V75.92Z"/><path class="cls-3" d="M918.92,67.36a3.25,3.25,0,1,1-3.2-3.24A3.23,3.23,0,0,1,918.92,67.36Zm-3.21-.79c-.28.34-.59.55-.59.76s.32.42.5.63c.22-.2.55-.36.62-.61S916,66.92,915.71,66.57Z"/><path class="cls-3" d="M929.36,64.12a3.26,3.26,0,1,1-3.25,3.19A3.19,3.19,0,0,1,929.36,64.12Zm-.83,3.27c.36.26.59.56.8.54s.41-.34.62-.53c-.22-.21-.41-.53-.66-.58S928.87,67.12,928.53,67.39Z"/></svg>