<svg id="Layer_1" data-name="Layer 1" xmlns="http://www.w3.org/2000/svg" viewBox="0 0 350.5 351"><defs><style>.cls-1{fill:#d0b5d5;}.cls-2{fill:#e6dbe6;}.cls-3{fill:#963596;}.cls-4{fill:#fff;}</style></defs><title>royalty-management</title><path class="cls-1" d="M221.2,135.15l-5.6-5.6L296.2,49A175,175,0,0,0,54.3,49l82,82-5.6,5.6-82-82a175,175,0,0,0,0,241.9l80.6-80.6,5.6,5.6-80.6,80.6a175,175,0,0,0,241.9,0L217,222.85l5.6-5.6,79.2,79.2a175,175,0,0,0,0-241.9l-80.6,80.6Z"/><circle id="_Path_" data-name="&lt;Path&gt;" class="cls-2" cx="175.3" cy="175.45" r="167.9"/><path class="cls-3" d="M128,133.75,53.8,59.55a167.88,167.88,0,0,0,0,231.8l74.2-74.2a63.08,63.08,0,0,1,0-83.4Zm89-5.6L291.2,54A167.88,167.88,0,0,0,59.4,54l74.2,74.2a63.08,63.08,0,0,1,83.4,0Zm-83.4,94.6L59.4,297a167.88,167.88,0,0,0,231.8,0L217,222.75a63.08,63.08,0,0,1-83.4,0Zm89-5.6,74.2,74.2a167.88,167.88,0,0,0,0-231.8l-74.2,74.2a63.08,63.08,0,0,1,0,83.4Z"/><path class="cls-4" d="M42.61,197.83a3.59,3.59,0,0,0,1.71.45c.83,0,1.29-.38,1.29-1s-.35-.85-1.26-1.18c-1.16-.42-1.91-1-1.91-2.06s1-2,2.5-2a3.87,3.87,0,0,1,1.7.35l-.31,1a3.14,3.14,0,0,0-1.41-.33c-.82,0-1.18.44-1.18.85s.41.8,1.36,1.16c1.23.47,1.82,1.09,1.82,2.1s-.86,2.12-2.68,2.12a4.17,4.17,0,0,1-1.91-.44Z"/><path class="cls-4" d="M49.52,192.67v1.46h1.23v1H49.52v2.26c0,.62.17.94.66.94a1.93,1.93,0,0,0,.5-.06l0,1a3,3,0,0,1-.94.12,1.46,1.46,0,0,1-1.11-.42,2,2,0,0,1-.4-1.42v-2.41h-.74v-1h.74V193Z"/><path class="cls-4" d="M54.6,199.24l-.08-.57h0a1.89,1.89,0,0,1-1.51.68,1.51,1.51,0,0,1-1.6-1.52c0-1.29,1.14-1.94,3-1.93v-.08c0-.34-.14-.9-1-.9a2.69,2.69,0,0,0-1.37.38l-.26-.84a3.7,3.7,0,0,1,1.85-.45,1.91,1.91,0,0,1,2.11,2.15V198a7.31,7.31,0,0,0,.08,1.23Zm-.17-2.5c-.91,0-1.78.18-1.78,1a.67.67,0,0,0,.73.73,1,1,0,0,0,1-.7,1,1,0,0,0,0-.29Z"/><path class="cls-4" d="M58.54,192.67v1.46h1.23v1H58.54v2.26c0,.62.17.94.66.94a1.93,1.93,0,0,0,.5-.06l0,1a2.89,2.89,0,0,1-.93.12,1.46,1.46,0,0,1-1.11-.42,2,2,0,0,1-.4-1.42v-2.41h-.74v-1h.74V193Z"/><path class="cls-4" d="M65.32,197.71c0,.61,0,1.11,0,1.53H64.23l-.06-.78h0a1.83,1.83,0,0,1-1.63.89c-.94,0-1.79-.55-1.79-2.22v-3H62v2.78c0,.85.28,1.39,1,1.39a1.09,1.09,0,0,0,1-.69,1.19,1.19,0,0,0,.07-.4v-3.08h1.29Z"/><path class="cls-4" d="M68.2,192.67v1.46h1.23v1H68.2v2.26c0,.62.17.94.66.94a1.93,1.93,0,0,0,.5-.06l0,1a2.89,2.89,0,0,1-.93.12,1.46,1.46,0,0,1-1.11-.42,2,2,0,0,1-.4-1.42v-2.41H66.2v-1h.74V193Z"/><path class="cls-4" d="M75.26,196.64a2.53,2.53,0,0,1-2.62,2.71,2.46,2.46,0,0,1-2.56-2.63A2.52,2.52,0,0,1,72.72,194,2.45,2.45,0,0,1,75.26,196.64Zm-3.85.05c0,1,.48,1.73,1.27,1.73s1.25-.72,1.25-1.75c0-.8-.36-1.71-1.24-1.71S71.41,195.84,71.41,196.69Z"/><path class="cls-4" d="M76.33,195.77c0-.69,0-1.18,0-1.64h1.13l0,1h0a1.53,1.53,0,0,1,1.4-1.09,1.39,1.39,0,0,1,.3,0v1.22a1.84,1.84,0,0,0-.38,0,1.13,1.13,0,0,0-1.15,1,2.46,2.46,0,0,0,0,.4v2.65H76.33Z"/><path class="cls-4" d="M80.87,194.13l.92,2.74c.11.31.21.7.29,1h0l.27-1,.8-2.73h1.39l-1.28,3.48c-.71,1.91-1.18,2.76-1.79,3.29a2.58,2.58,0,0,1-1.35.66l-.3-1.09a2.16,2.16,0,0,0,.76-.36,2.27,2.27,0,0,0,.7-.81.57.57,0,0,0,.09-.23.51.51,0,0,0-.08-.25l-1.87-4.69Z"/><path class="cls-4" d="M41.44,210.08a3.67,3.67,0,0,1-1.45.26,2.44,2.44,0,0,1-2.63-2.6A2.64,2.64,0,0,1,40.2,205a3.35,3.35,0,0,1,1.25.24l-.23,1a2.22,2.22,0,0,0-1-.2,1.66,1.66,0,0,0,0,3.31,2.62,2.62,0,0,0,1-.2Z"/><path class="cls-4" d="M47.26,207.64a2.54,2.54,0,0,1-2.63,2.71,2.46,2.46,0,0,1-2.56-2.63A2.52,2.52,0,0,1,44.71,205,2.46,2.46,0,0,1,47.26,207.64Zm-3.86.05c0,1,.49,1.73,1.27,1.73s1.25-.72,1.25-1.75c0-.8-.35-1.71-1.24-1.71S43.4,206.84,43.4,207.69Z"/><path class="cls-4" d="M48.32,206.65c0-.59,0-1.08,0-1.52h1.12l0,.75h0a1.77,1.77,0,0,1,1.58-.87,1.47,1.47,0,0,1,1.41,1h0a1.84,1.84,0,0,1,.63-.64,1.72,1.72,0,0,1,1-.31c.85,0,1.71.58,1.71,2.22v3H54.59v-2.82c0-.86-.29-1.36-.91-1.36a1,1,0,0,0-.9.68,2,2,0,0,0-.07.43v3.07H51.46v-3c0-.72-.29-1.22-.89-1.22a1,1,0,0,0-.92.74,1.12,1.12,0,0,0-.07.42v3H48.32Z"/><path class="cls-4" d="M57.22,206.83c0-.67,0-1.22,0-1.7h1.13l.07.78h0a2,2,0,0,1,1.75-.9,2.32,2.32,0,0,1,2.15,2.6A2.43,2.43,0,0,1,60,210.35a1.68,1.68,0,0,1-1.44-.68h0v2.65H57.22Zm1.29,1.27a1.34,1.34,0,0,0,0,.35,1.18,1.18,0,0,0,1.14.91c.82,0,1.3-.69,1.3-1.69S60.55,206,59.72,206a1.21,1.21,0,0,0-1.16.95,1.32,1.32,0,0,0-.05.33Z"/><path class="cls-4" d="M63.36,202.79h1.31v7.45H63.36Z"/><path class="cls-4" d="M67.44,203.7a.69.69,0,0,1-.74.69.67.67,0,0,1-.71-.69.68.68,0,0,1,.72-.7A.69.69,0,0,1,67.44,203.7Zm-1.38,6.54v-5.11h1.3v5.11Z"/><path class="cls-4" d="M71.63,210.24l-.09-.57h0a1.89,1.89,0,0,1-1.51.68,1.52,1.52,0,0,1-1.61-1.52c0-1.29,1.15-1.94,3-1.93v-.08c0-.34-.14-.9-1-.9a2.72,2.72,0,0,0-1.38.38l-.25-.84a3.7,3.7,0,0,1,1.85-.45,1.91,1.91,0,0,1,2.11,2.15V209a8.69,8.69,0,0,0,.07,1.23Zm-.17-2.5c-.92,0-1.79.18-1.79,1a.68.68,0,0,0,.74.73,1.06,1.06,0,0,0,1-.7,1,1,0,0,0,0-.29Z"/><path class="cls-4" d="M74.08,206.65c0-.59,0-1.08,0-1.52h1.14l.06.76h0A1.85,1.85,0,0,1,76.9,205c.89,0,1.81.58,1.81,2.2v3H77.42v-2.89c0-.73-.27-1.29-1-1.29a1.08,1.08,0,0,0-1,.76,1.33,1.33,0,0,0-.06.42v3h-1.3Z"/><path class="cls-4" d="M83.85,210.08a3.71,3.71,0,0,1-1.45.26,2.45,2.45,0,0,1-2.64-2.6A2.65,2.65,0,0,1,82.61,205a3.39,3.39,0,0,1,1.25.24l-.23,1a2.22,2.22,0,0,0-1-.2,1.66,1.66,0,0,0,0,3.31,2.62,2.62,0,0,0,1-.2Z"/><path class="cls-4" d="M85.72,208a1.39,1.39,0,0,0,1.57,1.33,4,4,0,0,0,1.42-.23l.19.89a4.8,4.8,0,0,1-1.79.31,2.41,2.41,0,0,1-2.63-2.58A2.53,2.53,0,0,1,87,205a2.22,2.22,0,0,1,2.2,2.49,3.21,3.21,0,0,1,0,.54Zm2.24-.9a1.1,1.1,0,0,0-1.06-1.25,1.27,1.27,0,0,0-1.18,1.25Z"/><path class="cls-4" d="M140.23,314.83a3.59,3.59,0,0,0,1.71.45c.83,0,1.3-.38,1.3-1s-.36-.85-1.26-1.18c-1.17-.42-1.92-1-1.92-2.06s1-2,2.5-2a3.83,3.83,0,0,1,1.7.35l-.31,1a3.11,3.11,0,0,0-1.41-.33c-.82,0-1.17.44-1.17.85s.41.8,1.35,1.16c1.23.47,1.83,1.09,1.83,2.1s-.86,2.12-2.69,2.12a4.2,4.2,0,0,1-1.91-.44Z"/><path class="cls-4" d="M145.66,312.65c0-.59,0-1.08,0-1.52h1.11l.05.75h0a1.76,1.76,0,0,1,1.57-.87,1.48,1.48,0,0,1,1.42.95h0a1.84,1.84,0,0,1,.63-.64,1.7,1.7,0,0,1,1-.31c.85,0,1.71.58,1.71,2.22v3h-1.26v-2.82c0-.86-.3-1.36-.91-1.36a1,1,0,0,0-.91.68,2,2,0,0,0-.06.43v3.07H148.8v-3c0-.72-.28-1.22-.88-1.22a1,1,0,0,0-.93.74,1.12,1.12,0,0,0-.07.42v3h-1.26Z"/><path class="cls-4" d="M157.44,316.24l-.08-.57h0a1.91,1.91,0,0,1-1.52.68,1.51,1.51,0,0,1-1.6-1.52c0-1.29,1.14-1.94,3-1.93v-.08c0-.34-.13-.9-1-.9a2.69,2.69,0,0,0-1.37.38l-.25-.84a3.66,3.66,0,0,1,1.84-.45,1.91,1.91,0,0,1,2.11,2.15V315a7.31,7.31,0,0,0,.08,1.23Zm-.17-2.5c-.91,0-1.78.18-1.78,1a.67.67,0,0,0,.73.73,1,1,0,0,0,1-.7,1,1,0,0,0,0-.29Z"/><path class="cls-4" d="M159.9,312.77c0-.69,0-1.18,0-1.64H161l0,1h0a1.54,1.54,0,0,1,1.4-1.09,1.32,1.32,0,0,1,.3,0v1.22a1.82,1.82,0,0,0-.37,0,1.15,1.15,0,0,0-1.16,1,2.46,2.46,0,0,0,0,.4v2.65H159.9Z"/><path class="cls-4" d="M165.12,309.67v1.46h1.23v1h-1.23v2.26c0,.62.17.94.66.94a1.93,1.93,0,0,0,.5-.06l0,1a2.94,2.94,0,0,1-.93.12,1.46,1.46,0,0,1-1.11-.42,2,2,0,0,1-.4-1.42v-2.41h-.74v-1h.74V310Z"/><path class="cls-4" d="M173.25,316.08a3.63,3.63,0,0,1-1.45.26,2.45,2.45,0,0,1-2.63-2.6A2.65,2.65,0,0,1,172,311a3.29,3.29,0,0,1,1.24.24l-.23,1a2.17,2.17,0,0,0-1-.2,1.66,1.66,0,0,0,0,3.31,2.66,2.66,0,0,0,1-.2Z"/><path class="cls-4" d="M179.07,313.64a2.53,2.53,0,0,1-2.62,2.71,2.47,2.47,0,0,1-2.57-2.63,2.53,2.53,0,0,1,2.65-2.71A2.45,2.45,0,0,1,179.07,313.64Zm-3.85.05c0,1,.48,1.73,1.27,1.73s1.25-.72,1.25-1.75c0-.8-.36-1.71-1.24-1.71S175.22,312.84,175.22,313.69Z"/><path class="cls-4" d="M180.13,312.65c0-.59,0-1.08,0-1.52h1.13l.07.76h0A1.85,1.85,0,0,1,183,311c.89,0,1.81.58,1.81,2.2v3h-1.29v-2.89c0-.73-.27-1.29-1-1.29a1.07,1.07,0,0,0-1,.76,1.09,1.09,0,0,0-.06.42v3h-1.3Z"/><path class="cls-4" d="M187.62,309.67v1.46h1.23v1h-1.23v2.26c0,.62.17.94.66.94a1.93,1.93,0,0,0,.5-.06l0,1a2.89,2.89,0,0,1-.93.12,1.46,1.46,0,0,1-1.11-.42,2,2,0,0,1-.4-1.42v-2.41h-.74v-1h.74V310Z"/><path class="cls-4" d="M189.82,312.77c0-.69,0-1.18,0-1.64h1.12l0,1h0a1.53,1.53,0,0,1,1.39-1.09,1.48,1.48,0,0,1,.31,0v1.22a1.92,1.92,0,0,0-.38,0,1.13,1.13,0,0,0-1.15,1,2.46,2.46,0,0,0,0,.4v2.65h-1.3Z"/><path class="cls-4" d="M196.44,316.24l-.09-.57h0a1.89,1.89,0,0,1-1.51.68,1.52,1.52,0,0,1-1.61-1.52c0-1.29,1.15-1.94,3-1.93v-.08c0-.34-.14-.9-1-.9a2.75,2.75,0,0,0-1.38.38l-.25-.84a3.7,3.7,0,0,1,1.85-.45,1.91,1.91,0,0,1,2.11,2.15V315a8.69,8.69,0,0,0,.07,1.23Zm-.17-2.5c-.91,0-1.78.18-1.78,1a.67.67,0,0,0,.73.73,1.06,1.06,0,0,0,1-.7,1,1,0,0,0,0-.29Z"/><path class="cls-4" d="M202.65,316.08a3.61,3.61,0,0,1-1.44.26,2.45,2.45,0,0,1-2.64-2.6,2.65,2.65,0,0,1,2.85-2.73,3.29,3.29,0,0,1,1.24.24l-.23,1a2.17,2.17,0,0,0-1-.2,1.66,1.66,0,0,0,0,3.31,2.56,2.56,0,0,0,1-.2Z"/><path class="cls-4" d="M205.09,309.67v1.46h1.23v1h-1.23v2.26c0,.62.17.94.66.94a1.93,1.93,0,0,0,.5-.06l0,1a3,3,0,0,1-.94.12,1.46,1.46,0,0,1-1.11-.42,2,2,0,0,1-.4-1.42v-2.41h-.73v-1h.73V310Z"/><path class="cls-4" d="M207.23,315.05a2.88,2.88,0,0,0,1.31.37c.57,0,.82-.23.82-.57s-.21-.52-.84-.74c-1-.35-1.41-.89-1.4-1.49a1.71,1.71,0,0,1,1.93-1.61,2.92,2.92,0,0,1,1.35.31l-.25.91a2.24,2.24,0,0,0-1.08-.3c-.46,0-.71.23-.71.54s.24.48.89.71c.92.34,1.35.81,1.36,1.57,0,.92-.72,1.59-2.08,1.59A3.29,3.29,0,0,1,207,316Z"/><path class="cls-4" d="M245.58,192.26a12.49,12.49,0,0,1,2.06-.15,4.3,4.3,0,0,1,2.89.82,3.18,3.18,0,0,1,1.1,2.6,3.68,3.68,0,0,1-1.1,2.82,4.72,4.72,0,0,1-3.2,1,14.88,14.88,0,0,1-1.75-.09Zm1.3,6a5,5,0,0,0,.71,0,2.42,2.42,0,0,0,2.68-2.7,2.25,2.25,0,0,0-2.51-2.46,4.24,4.24,0,0,0-.88.07Z"/><path class="cls-4" d="M255.58,199.24l-.08-.57h0a1.89,1.89,0,0,1-1.51.68,1.51,1.51,0,0,1-1.6-1.52c0-1.29,1.14-1.94,3-1.93v-.08c0-.34-.14-.9-1-.9a2.69,2.69,0,0,0-1.37.38l-.26-.84a3.7,3.7,0,0,1,1.85-.45,1.91,1.91,0,0,1,2.11,2.15V198a7.31,7.31,0,0,0,.08,1.23Zm-.17-2.5c-.91,0-1.78.18-1.78,1a.67.67,0,0,0,.73.73,1.05,1.05,0,0,0,1-.7,1,1,0,0,0,0-.29Z"/><path class="cls-4" d="M259.52,192.67v1.46h1.23v1h-1.23v2.26c0,.62.17.94.66.94a1.93,1.93,0,0,0,.5-.06l0,1a2.94,2.94,0,0,1-.93.12,1.46,1.46,0,0,1-1.11-.42,2,2,0,0,1-.4-1.42v-2.41h-.74v-1h.74V193Z"/><path class="cls-4" d="M264.6,199.24l-.08-.57h0a1.89,1.89,0,0,1-1.51.68,1.51,1.51,0,0,1-1.6-1.52c0-1.29,1.14-1.94,3-1.93v-.08c0-.34-.14-.9-1-.9a2.69,2.69,0,0,0-1.37.38l-.26-.84a3.7,3.7,0,0,1,1.85-.45,1.91,1.91,0,0,1,2.11,2.15V198a8.69,8.69,0,0,0,.07,1.23Zm-.17-2.5c-.91,0-1.78.18-1.78,1a.67.67,0,0,0,.73.73,1.05,1.05,0,0,0,1-.7,1,1,0,0,0,0-.29Z"/><path class="cls-4" d="M269.17,198.05a2.85,2.85,0,0,0,1.31.37c.57,0,.82-.23.82-.57s-.21-.52-.84-.74c-1-.35-1.42-.89-1.41-1.49A1.71,1.71,0,0,1,271,194a3,3,0,0,1,1.36.31l-.25.91a2.25,2.25,0,0,0-1.09-.3c-.46,0-.71.23-.71.54s.24.48.89.71c.93.34,1.36.81,1.37,1.57,0,.92-.73,1.59-2.08,1.59a3.26,3.26,0,0,1-1.55-.35Z"/><path class="cls-4" d="M276.49,199.24l-.09-.57h0a1.9,1.9,0,0,1-1.51.68,1.52,1.52,0,0,1-1.61-1.52c0-1.29,1.15-1.94,3-1.93v-.08c0-.34-.14-.9-1-.9a2.72,2.72,0,0,0-1.38.38l-.25-.84a3.7,3.7,0,0,1,1.85-.45,1.92,1.92,0,0,1,2.11,2.15V198a8.69,8.69,0,0,0,.07,1.23Zm-.17-2.5c-.92,0-1.79.18-1.79,1a.68.68,0,0,0,.74.73,1.06,1.06,0,0,0,1-.7,1,1,0,0,0,0-.29Z"/><path class="cls-4" d="M278.94,195.65c0-.59,0-1.08,0-1.52H280l.07.76h0a1.85,1.85,0,0,1,1.63-.88c.89,0,1.81.58,1.81,2.2v3h-1.29v-2.89c0-.73-.27-1.29-1-1.29a1.07,1.07,0,0,0-1,.76,1.09,1.09,0,0,0-.06.42v3h-1.3Z"/><path class="cls-4" d="M286.32,192.7a.72.72,0,1,1-.72-.7A.68.68,0,0,1,286.32,192.7ZM285,199.24v-5.11h1.3v5.11Z"/><path class="cls-4" d="M289.12,192.67v1.46h1.22v1h-1.22v2.26c0,.62.17.94.66.94a1.93,1.93,0,0,0,.5-.06l0,1a2.94,2.94,0,0,1-.93.12,1.46,1.46,0,0,1-1.11-.42,2,2,0,0,1-.4-1.42v-2.41h-.74v-1h.74V193Z"/><path class="cls-4" d="M292.7,192.7a.69.69,0,0,1-.74.69.67.67,0,0,1-.71-.69.68.68,0,0,1,.72-.7A.69.69,0,0,1,292.7,192.7Zm-1.38,6.54v-5.11h1.3v5.11Z"/><path class="cls-4" d="M293.53,198.49l1.92-2.45c.26-.32.48-.57.75-.86v0h-2.48v-1h4.06v.78l-1.88,2.41c-.25.3-.49.6-.76.87v0h2.7v1h-4.31Z"/><path class="cls-4" d="M301.61,199.24l-.08-.57h0a1.91,1.91,0,0,1-1.52.68,1.51,1.51,0,0,1-1.6-1.52c0-1.29,1.14-1.94,3-1.93v-.08c0-.34-.13-.9-1-.9a2.69,2.69,0,0,0-1.37.38l-.25-.84a3.66,3.66,0,0,1,1.84-.45,1.91,1.91,0,0,1,2.11,2.15V198a7.31,7.31,0,0,0,.08,1.23Zm-.17-2.5c-.91,0-1.78.18-1.78,1a.67.67,0,0,0,.73.73,1,1,0,0,0,1-.7,1,1,0,0,0,0-.29Z"/><path class="cls-4" d="M305.55,192.67v1.46h1.23v1h-1.23v2.26c0,.62.17.94.66.94a1.93,1.93,0,0,0,.5-.06l0,1a3,3,0,0,1-.94.12,1.46,1.46,0,0,1-1.11-.42,2,2,0,0,1-.4-1.42v-2.41h-.74v-1h.74V193Z"/><path class="cls-4" d="M309.13,192.7a.68.68,0,0,1-.74.69.67.67,0,0,1-.71-.69.73.73,0,0,1,1.45,0Zm-1.38,6.54v-5.11h1.31v5.11Z"/><path class="cls-4" d="M315.3,196.64a2.53,2.53,0,0,1-2.62,2.71,2.46,2.46,0,0,1-2.56-2.63,2.52,2.52,0,0,1,2.64-2.71A2.45,2.45,0,0,1,315.3,196.64Zm-3.85.05c0,1,.48,1.73,1.27,1.73s1.25-.72,1.25-1.75c0-.8-.36-1.71-1.24-1.71S311.45,195.84,311.45,196.69Z"/><path class="cls-4" d="M316.36,195.65c0-.59,0-1.08,0-1.52h1.14l.06.76h0a1.85,1.85,0,0,1,1.63-.88c.89,0,1.81.58,1.81,2.2v3H319.7v-2.89c0-.73-.27-1.29-1-1.29a1.09,1.09,0,0,0-1,.76,1.34,1.34,0,0,0-.05.42v3h-1.31Z"/><path class="cls-4" d="M118.73,83.26a12.41,12.41,0,0,1,2.06-.15,4.27,4.27,0,0,1,2.88.82,3.15,3.15,0,0,1,1.11,2.6,3.65,3.65,0,0,1-1.11,2.82,4.71,4.71,0,0,1-3.2,1,14.82,14.82,0,0,1-1.74-.09Zm1.29,6a5,5,0,0,0,.71,0,2.42,2.42,0,0,0,2.68-2.7,2.24,2.24,0,0,0-2.51-2.46,4.32,4.32,0,0,0-.88.07Z"/><path class="cls-4" d="M128.72,90.24l-.08-.57h0a1.9,1.9,0,0,1-1.51.68,1.52,1.52,0,0,1-1.61-1.52c0-1.29,1.15-1.94,3-1.93v-.08c0-.34-.14-.9-1-.9a2.72,2.72,0,0,0-1.38.38l-.25-.84a3.7,3.7,0,0,1,1.85-.45,1.92,1.92,0,0,1,2.11,2.15V89a8.69,8.69,0,0,0,.07,1.23Zm-.16-2.5c-.92,0-1.79.18-1.79,1a.68.68,0,0,0,.74.73,1,1,0,0,0,1-.7.77.77,0,0,0,.05-.29Z"/><path class="cls-4" d="M132.66,83.67v1.46h1.23v1h-1.23v2.26c0,.62.17.94.66.94a2.09,2.09,0,0,0,.51-.06l0,1a3,3,0,0,1-.94.12,1.46,1.46,0,0,1-1.11-.42,2,2,0,0,1-.4-1.42V86.09h-.73v-1h.73V84Z"/><path class="cls-4" d="M137.74,90.24l-.08-.57h0a1.9,1.9,0,0,1-1.51.68,1.52,1.52,0,0,1-1.61-1.52c0-1.29,1.15-1.94,3-1.93v-.08c0-.34-.13-.9-1-.9a2.72,2.72,0,0,0-1.38.38l-.25-.84a3.7,3.7,0,0,1,1.85-.45,1.92,1.92,0,0,1,2.11,2.15V89a8.69,8.69,0,0,0,.07,1.23Zm-.16-2.5c-.92,0-1.79.18-1.79,1a.68.68,0,0,0,.74.73,1,1,0,0,0,1-.7.77.77,0,0,0,.05-.29Z"/><path class="cls-4" d="M142.38,86.83c0-.67,0-1.22,0-1.7h1.14l.06.78h0a2,2,0,0,1,1.75-.9,2.33,2.33,0,0,1,2.16,2.6,2.43,2.43,0,0,1-2.33,2.74,1.68,1.68,0,0,1-1.44-.68h0v2.65h-1.29Zm1.29,1.27a1.34,1.34,0,0,0,0,.35,1.16,1.16,0,0,0,1.13.91c.82,0,1.3-.69,1.3-1.69S145.7,86,144.87,86a1.2,1.2,0,0,0-1.15,1,1.32,1.32,0,0,0-.05.33Z"/><path class="cls-4" d="M148.52,86.77c0-.69,0-1.18,0-1.64h1.12l0,1h0a1.53,1.53,0,0,1,1.4-1.09,1.32,1.32,0,0,1,.3,0v1.22a1.82,1.82,0,0,0-.37,0,1.15,1.15,0,0,0-1.16,1,2.46,2.46,0,0,0,0,.4v2.65h-1.29Z"/><path class="cls-4" d="M153.63,83.7a.73.73,0,0,1-1.45,0,.69.69,0,0,1,.73-.7A.68.68,0,0,1,153.63,83.7Zm-1.37,6.54V85.13h1.3v5.11Z"/><path class="cls-4" d="M155.76,85.13l.83,2.59c.15.45.25.86.35,1.28h0c.09-.42.21-.82.35-1.28l.8-2.59h1.37l-2,5.11h-1.27l-1.9-5.11Z"/><path class="cls-4" d="M163.15,90.24l-.08-.57h0a1.9,1.9,0,0,1-1.51.68,1.52,1.52,0,0,1-1.61-1.52c0-1.29,1.14-1.94,3-1.93v-.08c0-.34-.13-.9-1-.9a2.72,2.72,0,0,0-1.38.38l-.25-.84a3.7,3.7,0,0,1,1.85-.45,1.92,1.92,0,0,1,2.11,2.15V89a8.69,8.69,0,0,0,.07,1.23Zm-.16-2.5c-.92,0-1.79.18-1.79,1a.68.68,0,0,0,.74.73,1,1,0,0,0,1-.7.77.77,0,0,0,.05-.29Z"/><path class="cls-4" d="M169.37,90.08a3.67,3.67,0,0,1-1.45.26,2.45,2.45,0,0,1-2.63-2.6A2.64,2.64,0,0,1,168.13,85a3.35,3.35,0,0,1,1.25.24l-.23,1a2.22,2.22,0,0,0-1-.2,1.66,1.66,0,0,0,0,3.31,2.62,2.62,0,0,0,1-.2Z"/><path class="cls-4" d="M171.13,85.13l.93,2.74c.1.31.21.7.28,1h0c.09-.29.18-.67.28-1l.79-2.73h1.39l-1.28,3.48c-.7,1.91-1.18,2.76-1.79,3.29a2.55,2.55,0,0,1-1.35.66l-.29-1.09a2.12,2.12,0,0,0,.75-.36,2.29,2.29,0,0,0,.71-.81.53.53,0,0,0,.08-.23.58.58,0,0,0-.07-.25l-1.87-4.69Z"/><path class="cls-4" d="M180.63,90.24l-.09-.57h0a1.89,1.89,0,0,1-1.51.68,1.52,1.52,0,0,1-1.61-1.52c0-1.29,1.15-1.94,3-1.93v-.08c0-.34-.14-.9-1-.9a2.72,2.72,0,0,0-1.38.38l-.25-.84a3.7,3.7,0,0,1,1.85-.45,1.91,1.91,0,0,1,2.11,2.15V89a8.69,8.69,0,0,0,.07,1.23Zm-.17-2.5c-.92,0-1.79.18-1.79,1a.68.68,0,0,0,.74.73,1.06,1.06,0,0,0,1-.7,1,1,0,0,0,0-.29Z"/><path class="cls-4" d="M183.08,86.65c0-.59,0-1.08,0-1.52h1.13l.07.76h0A1.85,1.85,0,0,1,185.9,85c.89,0,1.81.58,1.81,2.2v3h-1.29V87.35c0-.73-.27-1.29-1-1.29a1.08,1.08,0,0,0-1,.76,1.33,1.33,0,0,0-.06.42v3h-1.3Z"/><path class="cls-4" d="M193.8,82.79v6c0,.53,0,1.09,0,1.44h-1.15l-.05-.81h0a1.84,1.84,0,0,1-1.67.92,2.34,2.34,0,0,1-2.19-2.61A2.43,2.43,0,0,1,191.05,85a1.62,1.62,0,0,1,1.44.67h0V82.79Zm-1.29,4.47a2,2,0,0,0,0-.34,1.13,1.13,0,0,0-1.11-.91c-.83,0-1.29.73-1.29,1.69s.46,1.62,1.28,1.62a1.15,1.15,0,0,0,1.11-.92,1.48,1.48,0,0,0,0-.38Z"/><path class="cls-4" d="M197.3,89.05a2.85,2.85,0,0,0,1.31.37c.57,0,.82-.23.82-.57s-.21-.52-.84-.74c-1-.35-1.42-.89-1.41-1.49,0-.91.75-1.61,1.94-1.61a3,3,0,0,1,1.35.31l-.25.91a2.24,2.24,0,0,0-1.08-.3c-.47,0-.72.23-.72.54s.24.48.9.71c.92.34,1.35.81,1.36,1.57,0,.92-.72,1.59-2.08,1.59a3.29,3.29,0,0,1-1.55-.35Z"/><path class="cls-4" d="M202.65,88a1.4,1.4,0,0,0,1.58,1.33,4,4,0,0,0,1.42-.23l.19.89a4.84,4.84,0,0,1-1.79.31,2.41,2.41,0,0,1-2.63-2.58A2.53,2.53,0,0,1,203.91,85a2.23,2.23,0,0,1,2.21,2.49,3.21,3.21,0,0,1,0,.54Zm2.25-.9a1.1,1.1,0,0,0-1.06-1.25,1.27,1.27,0,0,0-1.19,1.25Z"/><path class="cls-4" d="M210.92,90.08a3.71,3.71,0,0,1-1.45.26,2.45,2.45,0,0,1-2.64-2.6A2.65,2.65,0,0,1,209.68,85a3.39,3.39,0,0,1,1.25.24l-.23,1a2.22,2.22,0,0,0-1-.2,1.66,1.66,0,0,0,0,3.31,2.62,2.62,0,0,0,1-.2Z"/><path class="cls-4" d="M216.45,88.71c0,.61,0,1.11,0,1.53h-1.13l-.06-.78h0a1.86,1.86,0,0,1-1.64.89c-.94,0-1.79-.55-1.79-2.22v-3h1.29v2.78c0,.85.28,1.39,1,1.39a1.09,1.09,0,0,0,1-.69,1.19,1.19,0,0,0,.07-.4V85.13h1.29Z"/><path class="cls-4" d="M217.85,86.77c0-.69,0-1.18,0-1.64h1.12l0,1h0a1.53,1.53,0,0,1,1.4-1.09,1.32,1.32,0,0,1,.3,0v1.22a1.82,1.82,0,0,0-.37,0,1.15,1.15,0,0,0-1.16,1,2.46,2.46,0,0,0,0,.4v2.65h-1.29Z"/><path class="cls-4" d="M223,83.7a.73.73,0,0,1-1.45,0,.69.69,0,0,1,.73-.7A.68.68,0,0,1,223,83.7Zm-1.37,6.54V85.13h1.3v5.11Z"/><path class="cls-4" d="M225.75,83.67v1.46H227v1h-1.23v2.26c0,.62.17.94.67.94a2,2,0,0,0,.5-.06l0,1a2.94,2.94,0,0,1-.93.12,1.47,1.47,0,0,1-1.12-.42,2,2,0,0,1-.4-1.42V86.09h-.73v-1h.73V84Z"/><path class="cls-4" d="M228.77,85.13l.92,2.74c.11.31.21.7.28,1h0c.08-.29.17-.67.27-1l.8-2.73h1.38l-1.28,3.48c-.7,1.91-1.17,2.76-1.78,3.29a2.61,2.61,0,0,1-1.36.66l-.29-1.09a2.12,2.12,0,0,0,.75-.36,2.2,2.2,0,0,0,.71-.81.53.53,0,0,0,.08-.23.58.58,0,0,0-.07-.25l-1.87-4.69Z"/><path class="cls-4" d="M174.72,297.13v2.7c.23,0,.41,0,.58,0h7.37a3.7,3.7,0,0,0,4-4c0-2.56,0-5.11,0-7.67a.86.86,0,0,0-.44-.82,7.62,7.62,0,0,1,0-12.93.89.89,0,0,0,.46-.87c0-2.68,0-5.35,0-8a3.68,3.68,0,0,0-4-4h-2.48v2.61h-17.6V261.6c-1.44.11-2.86-.25-4.23.29a3.54,3.54,0,0,0-2.24,2.75c-.05.25-.11.47.25.62a2.86,2.86,0,0,1,2,2.91,2.93,2.93,0,0,1-2.08,2.78l-.2.1v.64c0,8,0,16.06,0,24.09a3.89,3.89,0,0,0,4.11,4.1c1.54-.06,3.08,0,4.66,0v1.43c-.15,0-.32,0-.49,0-1.52,0-3,0-4.55,0a5.14,5.14,0,0,1-5.22-5.26q0-12.13,0-24.27V271l-.15.12a9.77,9.77,0,0,1-1.63-1.43,2.93,2.93,0,0,1,1.31-4.4.72.72,0,0,0,.52-.61A5.17,5.17,0,0,1,160,260.1h2.52v-2.66h4.74a4.24,4.24,0,0,1,1.8-2.67,4.15,4.15,0,0,1,2.49-.68c1.84.07,3.22,1.23,3.89,3.34h4.69v2.67h2.5a5.2,5.2,0,0,1,5.54,5.55v7.85c3.8-.76,6.92.2,9,3.54a7.08,7.08,0,0,1-.24,8.18c-2.09,3-5.1,3.9-8.73,3.14V296a5.15,5.15,0,0,1-5.33,5.33h-8.08v2.74l-3-1.71-3.08-1.77Zm22-16.21a6.31,6.31,0,1,0-6.27,6.24A6.27,6.27,0,0,0,196.72,280.92Zm-32.61-22v3.8h14.44v-3.8Zm-8.83,7.6a1.56,1.56,0,0,0-1.61,1.55,1.6,1.6,0,0,0,3.19,0A1.55,1.55,0,0,0,155.28,266.54Zm18.5-9.12a2.52,2.52,0,0,0-2.53-1.85,2.44,2.44,0,0,0-2.34,1.85Z"/><path class="cls-4" d="M161.7,275.12h5.45v5.4H161.7Zm1.51,1.51V279h2.44v-2.38Z"/><path class="cls-4" d="M161.7,294.53v-5.38h5.45v5.38Zm1.52-3.9V293h2.43v-2.38Z"/><path class="cls-4" d="M167.16,268.14v5.37H161.7v-5.37ZM163.21,272h2.42v-2.39h-2.42Z"/><path class="cls-4" d="M167.15,287.52h-5.44v-5.36h5.44ZM163.21,286h2.43v-2.41h-2.43Z"/><path class="cls-4" d="M181.9,270.15v1.38H170.22v-1.38Z"/><path class="cls-4" d="M181.91,283.74v1.4H170.23v-1.4Z"/><path class="cls-4" d="M170.21,278.51v-1.38h11.66v1.38Z"/><path class="cls-4" d="M170.22,292.53v-1.4h11.66v1.4Z"/><path class="cls-4" d="M186.49,281l1-1.05,1.91,2.16,4-4.3,1,1.05-5,5.18Z"/><path class="cls-4" d="M155.11,60.42c0,2,0,4.08,0,6.14a1.46,1.46,0,0,0,.64.92A11.28,11.28,0,0,0,159.69,69c1.09.24,2.19.43,3.35.65l-.22,1.7c-1.11-.2-2.19-.33-3.24-.62-1.38-.39-2.73-.88-4.08-1.38a4.89,4.89,0,0,1-1.2-.79,2.51,2.51,0,0,1-.93-2.08c0-2.73,0-5.46,0-8.19s0-5.47,0-8.2c0-6,0-12,0-18.05a2.6,2.6,0,0,1,1.34-2.35,21.85,21.85,0,0,1,2.58-1.24c.3-.13.45-.25.47-.61a3.45,3.45,0,0,1,6.57-1.26.56.56,0,0,0,.68.4,63.65,63.65,0,0,1,11.3,0,30.18,30.18,0,0,1,8.56,1.74A11,11,0,0,1,187.1,30a2.28,2.28,0,0,1,1,2c0,2.63,0,5.27,0,7.91a16,16,0,0,1-.27,1.81,9.49,9.49,0,0,0,5.38,3.72A19.78,19.78,0,0,0,196,46c.92.16,1.14.37,1.14,1.32,0,3.5,0,7,0,10.51a5,5,0,0,1-2.72,4.63c-1.92,1-3.9,2-5.86,3-.38.19-.58.39-.52.82A2.68,2.68,0,0,1,186.57,69a13.34,13.34,0,0,1-5.13,1.83c-2.13.36-4.3.57-6.45.85-.23,0-.46,0-.71.06v2.86l-6.63-3.82,6.59-3.81v3.11c1.87-.23,3.67-.36,5.44-.69,1.58-.29,3.13-.76,4.68-1.2a5.92,5.92,0,0,0,1.29-.63,1.42,1.42,0,0,0,.66-1.74.68.68,0,0,0-.34-.33l-6.27-3.18a1.11,1.11,0,0,0-.6,0A54.1,54.1,0,0,1,159,61.68C157.68,61.39,156.43,60.86,155.11,60.42Zm32.06-16.65a13.52,13.52,0,0,1-7.67,3.81c-.45.08-.54.24-.54.66,0,3.17,0,6.35,0,9.52a3.36,3.36,0,0,0,1.86,3.16C182.84,62,184.9,63,187,64a.67.67,0,0,0,.52,0c2.1-1.05,4.22-2.06,6.27-3.18a3.18,3.18,0,0,0,1.67-3q0-4.8,0-9.58v-.61A14,14,0,0,1,187.17,43.77Zm-32.06-9.5v.53c0,1.58,0,3.16,0,4.73a1.33,1.33,0,0,0,.84,1.42,25.13,25.13,0,0,0,3.23,1.21,40.6,40.6,0,0,0,9.12,1.21,50.29,50.29,0,0,0,13.07-1,30.76,30.76,0,0,0,4.12-1.4,1.34,1.34,0,0,0,.88-1.46c0-1.56,0-3.12,0-4.68v-.51c-1.52.47-3,1-4.44,1.36A51.23,51.23,0,0,1,169,36.75a43.76,43.76,0,0,1-10.44-1.29C157.41,35.15,156.29,34.68,155.11,34.27ZM185.56,43l-.47.15c-1.38.39-2.75.87-4.16,1.15a53.92,53.92,0,0,1-12.1.87,50.74,50.74,0,0,1-8.43-.87,18.66,18.66,0,0,1-5.29-1.74v.64c0,1.72,0,3.43,0,5.14a1.43,1.43,0,0,0,.93,1.54A22.74,22.74,0,0,0,159.37,51a51.1,51.1,0,0,0,17.48.84c.38,0,.41-.24.4-.54,0-1.39,0-2.77,0-4.16,0-.83.19-1,1-1.16s1.75-.28,2.6-.51A10.82,10.82,0,0,0,185.56,43Zm-30.45,8.42c0,2.06,0,4.06,0,6.05a1.15,1.15,0,0,0,.69,1.21,20.26,20.26,0,0,0,3,1.21,49.6,49.6,0,0,0,16.78,1.1c.79-.07,1.58-.19,2.43-.29-1.37-2.27-.51-4.71-.86-7-.22,0-.43,0-.64,0a50.54,50.54,0,0,1-8.87.25C163.4,53.65,159.15,53.29,155.11,51.37Zm15.61-16.18c2.66-.22,5.32-.38,8-.67a20.77,20.77,0,0,0,5.9-1.47,8,8,0,0,0,1.44-.84.54.54,0,0,0,0-.93,2.7,2.7,0,0,0-.66-.46,23.31,23.31,0,0,0-2.84-1.08,53.09,53.09,0,0,0-17.59-1,.71.71,0,0,0-.45.4,3.48,3.48,0,0,1-6.07,1.08c-.09-.1-.3-.22-.4-.18a19.15,19.15,0,0,0-2.35,1.06c-.77.44-.77.95,0,1.37a14.54,14.54,0,0,0,2.79,1.19A49.83,49.83,0,0,0,170.72,35.19Zm-9.59-5.39a1.76,1.76,0,1,0,.1-3.52A1.79,1.79,0,0,0,159.45,28,1.77,1.77,0,0,0,161.13,29.8Z"/><path class="cls-4" d="M266.37,170.6c0,2.1,0,4.18,0,6.26a1.29,1.29,0,0,0,.69.91,20.76,20.76,0,0,0,3.22,1.28c1.15.33,2.34.48,3.52.72.14,0,.28.07.47.11l-.24,1.79c-1.85-.44-3.67-.81-5.44-1.32a11.88,11.88,0,0,1-2.63-1.23,2.69,2.69,0,0,1-1.35-2.54c.05-5.64,0-11.29,0-16.93q0-8.75,0-17.5a2.1,2.1,0,0,1,.91-1.9,28.66,28.66,0,0,1,2.95-1.57c.29-.14.46-.23.49-.61a3.45,3.45,0,0,1,6.61-1.18c.17.36.38.32.67.32,2.75-.08,5.51-.25,8.26-.19a35.82,35.82,0,0,1,11,1.68,13.76,13.76,0,0,1,2.73,1.39,2.53,2.53,0,0,1,1.12,2.38c0,1.52,0,3,0,4.56v4.23c5.22,1.26,8.42,4.47,8.23,10.08-.17,5.13-3.31,8-8.23,9.24,0,1.83-.09,3.69,0,5.54a3.39,3.39,0,0,1-2.18,3.5,18.69,18.69,0,0,1-5.74,1.69c-1.95.29-3.9.49-5.92.74v2.77l-6.6-3.81,6.58-3.81v3.05c1.17-.1,2.28-.12,3.36-.31,2.09-.39,4.18-.83,6.25-1.34a7.64,7.64,0,0,0,2-1,1.13,1.13,0,0,0,.46-.82c0-2,0-4,0-6a1.6,1.6,0,0,0-.06-.24A42.69,42.69,0,0,1,282,173.15C276.66,173.12,271.39,172.84,266.37,170.6Zm31.23-26.21a18.79,18.79,0,0,1-5.6,1.81,56.76,56.76,0,0,1-11.86.81,44,44,0,0,1-10.23-1.27c-1.2-.32-2.36-.8-3.54-1.21,0,1.62.07,3.29,0,4.95a1.76,1.76,0,0,0,1.22,2l.41.19a25.72,25.72,0,0,0,7.08,1.66,58.71,58.71,0,0,0,14.63-.11,28.93,28.93,0,0,0,3.57-.72c1.06-.29,2.07-.74,3.11-1.06a1.54,1.54,0,0,0,1.24-1.56v-5.44Zm-31.23,17.19v.63c0,1.66.07,3.34,0,5a1.82,1.82,0,0,0,1.28,2l.67.29a24.33,24.33,0,0,0,6,1.43,53.33,53.33,0,0,0,15.4-.11c1.49-.23,2.95-.57,4.43-.86v-.16a9.86,9.86,0,0,1-5.41-6c-1.36.11-2.64.25-3.93.31a55.44,55.44,0,0,1-13-.78A18.15,18.15,0,0,1,266.37,161.58Zm39.54-.68a8,8,0,1,0-7.87,8A8,8,0,0,0,305.91,160.9Zm-39.54-8.1c0,2,0,3.87,0,5.78a1.39,1.39,0,0,0,.9,1.5,24.51,24.51,0,0,0,3.26,1.19,49.58,49.58,0,0,0,15.07,1.1c.91-.06,1.81-.17,2.76-.27a9.84,9.84,0,0,1,2-7.22H290a58,58,0,0,1-10.54.46C275,155.13,270.58,154.77,266.37,152.8Zm14.71-7.49a53.47,53.47,0,0,0,11.05-.91,14.16,14.16,0,0,0,4.81-1.65c.84-.53.87-1,0-1.48a16.22,16.22,0,0,0-3-1.23,35.85,35.85,0,0,0-9.38-1.29c-2.73-.05-5.46.1-8.2.17a.58.58,0,0,0-.62.42,3.46,3.46,0,0,1-6,1.11.58.58,0,0,0-.5-.17,16.13,16.13,0,0,0-2.24,1c-.81.47-.82,1,0,1.4a15.63,15.63,0,0,0,3,1.25A42.42,42.42,0,0,0,281.08,145.31Zm-6.87-7a1.8,1.8,0,0,0-1.79-1.73,1.82,1.82,0,0,0-1.74,1.78,1.77,1.77,0,0,0,3.53,0Z"/><path class="cls-4" d="M298,162l-2.65,2.76-1.25-1.33,2.68-2.64-2.62-2.58,1.18-1.2,2.61,2.63,2.67-2.72,1.2,1.33-2.6,2.57,2.71,2.67-1.35,1.18Z"/><path class="cls-4" d="M69.77,170.83h9.15v-.71q0-15.18,0-30.35c0-.46-.07-.7-.56-.89a3.33,3.33,0,0,1-2.08-3.76,3.5,3.5,0,0,1,6.84-.06,3.33,3.33,0,0,1-1.95,3.78.74.74,0,0,0-.54.84q0,16.14,0,32.26a1.21,1.21,0,0,1-.39.95c-2.83,2.85-5.64,5.72-8.48,8.57a1.15,1.15,0,0,1-.73.33q-14.16,0-28.33,0l-.33,0V134.93H63.93v-3.12l7,3.94L64,139.68v-3.05H44.1v43.46H69.77Zm1.77,1.74v6.73l6.62-6.73ZM79.7,137.5a1.75,1.75,0,1,0,0-3.49,1.75,1.75,0,1,0,0,3.49Z"/><path class="cls-4" d="M46.73,150.49V139.75c.2,0,.37,0,.54,0,3.26,0,6.53,0,9.8,0,.49,0,.6.16.6.62q0,4.78,0,9.57c0,.48-.13.62-.61.61-3.25,0-6.49,0-9.74,0Zm1.72-1.72H55.9v-7.32H48.45Z"/><path class="cls-4" d="M75.44,157.38V159H47.58v-1.62Z"/><path class="cls-4" d="M75.43,166.52v1.62H47.59v-1.62Z"/><path class="cls-4" d="M47.56,163.68V162.1H75.43v1.58Z"/><path class="cls-4" d="M75.42,148.39V150H61.55v-1.6Z"/><path class="cls-4" d="M61.52,145.48v-1.62H75.41v1.62Z"/><path class="cls-4" d="M61.48,175.5v1.59H47.57V175.5Z"/><path class="cls-4" d="M75.42,153v1.59H61.53V153Z"/><path class="cls-4" d="M47.56,172.69v-1.58h13.9v1.58Z"/></svg>