<svg id="Layer_1" data-name="Layer 1" xmlns="http://www.w3.org/2000/svg" viewBox="0 0 281.85 344.52"><defs><style>.cls-1,.cls-8{fill:none}.cls-1{stroke:#372261;stroke-linecap:square;stroke-miterlimit:10;stroke-width:2px;stroke-dasharray:5 10}.cls-5{fill:#963596}.cls-6{fill:#fff}.cls-7{fill:#372261}</style></defs><path class="cls-1" d="M144.32 165.88v-97M144.32 264.88v-105"/><path stroke-width="1.95" stroke-dasharray="4.88 9.75" stroke="#372261" stroke-linecap="square" stroke-miterlimit="10" fill="none" d="M219.62 226.5L69.26 106.4"/><path stroke-width="1.98" stroke-dasharray="4.94 9.88" stroke="#372261" stroke-linecap="square" stroke-miterlimit="10" fill="none" d="M67.24 226.78l151.91-119.96"/><circle cx="144.04" cy="166.13" r="68.53" fill="#e6dbe6" stroke-width="2" stroke-dasharray="5 10" stroke="#372261" stroke-linecap="square" stroke-miterlimit="10"/><circle class="cls-5" cx="144.04" cy="166.13" r="50.69"/><path class="cls-6" d="M108.44 179.16a1.49 1.49 0 0 1-1.69 1.69h-.32a1.49 1.49 0 0 1-1.69-1.69v-7.49h1v7.54a.6.6 0 0 0 .68.69h.25a.6.6 0 0 0 .69-.69v-7.54h1zM109.38 173.75h1v.46a1.71 1.71 0 0 1 1.24-.53c.82 0 1.2.46 1.2 1.26v5.84h-1v-5.63c0-.37-.17-.54-.51-.54a1.62 1.62 0 0 0-.94.35v5.82h-1zM113.75 171.54h1v9.24h-1zM117.23 180.85a1.41 1.41 0 0 1-1.59-1.58v-4a1.41 1.41 0 0 1 1.59-1.58h.28a1.4 1.4 0 0 1 1.59 1.58v4a1.4 1.4 0 0 1-1.59 1.58zm0-6.25a.55.55 0 0 0-.62.62v4.09a.55.55 0 0 0 .62.62h.24a.55.55 0 0 0 .62-.62v-4.09a.55.55 0 0 0-.62-.62zM122.35 175.22a.55.55 0 0 0-.62-.62h-.19a.55.55 0 0 0-.62.62v4.09a.55.55 0 0 0 .62.62h.2a.55.55 0 0 0 .62-.62v-1.4h1v1.36a1.4 1.4 0 0 1-1.59 1.58h-.23a1.41 1.41 0 0 1-1.59-1.58v-4a1.41 1.41 0 0 1 1.59-1.58h.25a1.38 1.38 0 0 1 1.56 1.56v1.14h-1zM127.77 173.75l-1.64 3.44 1.59 3.59h-1.08l-1.46-3.49v3.49h-1v-9.24h1v5.62l1.54-3.41zM133.27 180.74a1.33 1.33 0 0 1-1.53 1.52h-.52c-.94 0-1.38-.43-1.38-1.37v-.37h.92v.33c0 .35.16.55.51.55h.51c.35 0 .5-.2.5-.55v-1.27a1.69 1.69 0 0 1-1.21.48c-.84 0-1.26-.56-1.26-1.39v-3.6c0-.83.42-1.39 1.26-1.39a1.71 1.71 0 0 1 1.21.5v-.43h1zm-1-5.76a1.36 1.36 0 0 0-.91-.37.51.51 0 0 0-.57.58v3.36a.5.5 0 0 0 .57.57 1.54 1.54 0 0 0 .91-.33zM134.18 173.75h1v.75c.3-.55.6-.81 1.13-.81v1.12a1.74 1.74 0 0 0-1.13.44v5.53h-1zM137.78 177.63v1.68a.55.55 0 0 0 .63.62h.18a.55.55 0 0 0 .62-.62v-.81h1v.77a1.4 1.4 0 0 1-1.58 1.58h-.21a1.41 1.41 0 0 1-1.59-1.58v-4a1.41 1.41 0 0 1 1.59-1.58h.21a1.4 1.4 0 0 1 1.58 1.58v2.37zm0-.94h1.41v-1.47a.55.55 0 0 0-.63-.62h-.15a.55.55 0 0 0-.63.62zM140.94 178.33a1.31 1.31 0 0 1 1-1.48l1.33-.46v-1.17a.56.56 0 0 0-.63-.63h-.08a.56.56 0 0 0-.62.63v.88h-1v-.84a1.4 1.4 0 0 1 1.58-1.58h.11a1.4 1.4 0 0 1 1.58 1.58v5.52h-1v-.45a1.69 1.69 0 0 1-1.21.52c-.8 0-1.16-.45-1.16-1.23zm2.37 1.26v-2.29l-.9.32a.64.64 0 0 0-.48.72v1.07c0 .34.17.51.48.51a1.59 1.59 0 0 0 .9-.33zM146.36 180.78h-1v-6.12h-.47v-.91h.47v-1.17h1v1.17h.72v.91h-.72zM148.56 177.63v1.68a.55.55 0 0 0 .62.62h.18a.55.55 0 0 0 .63-.62v-.81h1v.77a1.4 1.4 0 0 1-1.59 1.58h-.2a1.4 1.4 0 0 1-1.59-1.58v-4a1.4 1.4 0 0 1 1.59-1.58h.2a1.4 1.4 0 0 1 1.59 1.58v2.37zm0-.94H150v-1.47a.55.55 0 0 0-.62-.62h-.16a.55.55 0 0 0-.62.62zM151.81 173.75h1v.75c.29-.55.59-.81 1.13-.81v1.12a1.74 1.74 0 0 0-1.13.44v5.53h-1zM156.12 171.54h1v2.67a1.64 1.64 0 0 1 1.21-.53c.84 0 1.26.56 1.26 1.39v4.39c0 .83-.42 1.39-1.26 1.39a1.71 1.71 0 0 1-1.21-.5v.43h-1zm1 8a1.38 1.38 0 0 0 .91.37.5.5 0 0 0 .57-.57v-4.16a.51.51 0 0 0-.57-.58 1.38 1.38 0 0 0-.91.37zM161.41 177.63v1.68a.55.55 0 0 0 .63.62h.18a.55.55 0 0 0 .62-.62v-.81h1v.77a1.41 1.41 0 0 1-1.59 1.58H162a1.4 1.4 0 0 1-1.58-1.58v-4a1.4 1.4 0 0 1 1.58-1.58h.21a1.41 1.41 0 0 1 1.59 1.58v2.37zm0-.94h1.41v-1.47a.55.55 0 0 0-.63-.62H162a.55.55 0 0 0-.63.62zM164.66 173.75h1v.46a1.75 1.75 0 0 1 1.25-.53c.82 0 1.2.46 1.2 1.26v5.84h-1v-5.63c0-.37-.17-.54-.51-.54a1.64 1.64 0 0 0-.95.35v5.82h-1zM169.94 177.63v1.68a.55.55 0 0 0 .63.62h.18a.55.55 0 0 0 .62-.62v-.81h1v.77a1.4 1.4 0 0 1-1.58 1.58h-.21a1.41 1.41 0 0 1-1.59-1.58v-4a1.41 1.41 0 0 1 1.59-1.58h.21a1.4 1.4 0 0 1 1.58 1.58v2.37zm0-.94h1.41v-1.47a.55.55 0 0 0-.63-.62h-.15a.55.55 0 0 0-.63.62zM173.35 173a1.25 1.25 0 0 1 1.41-1.42h.41v.91h-.37a.41.41 0 0 0-.46.47v.83h.79v.91h-.79v6.12h-1v-6.12H173v-.91h.4zM175.69 171.94h1V173h-1zm0 1.81h1v7h-1zM178.9 180.78h-1v-6.12h-.47v-.91h.47v-1.17h1v1.17h.71v.91h-.71zM182.45 175.17a.53.53 0 0 0-.6-.6h-.17a.53.53 0 0 0-.6.6v.61a.67.67 0 0 0 .37.67l1.17.72a1.45 1.45 0 0 1 .82 1.4v.7a1.41 1.41 0 0 1-1.59 1.58h-.2a1.38 1.38 0 0 1-1.56-1.56v-1h1v1.11a.53.53 0 0 0 .6.6h.19a.53.53 0 0 0 .6-.6v-.66a.72.72 0 0 0-.36-.67l-1.17-.73a1.44 1.44 0 0 1-.82-1.39v-.65a1.4 1.4 0 0 1 1.58-1.58h.17a1.38 1.38 0 0 1 1.56 1.56v1h-1zM121.63 188.83l-.72 4.95h-1l-1.07-7h1l.61 5.14.73-5.14h.95l.74 5.14.6-5.14h1l-1.07 7h-1zM125.1 184.94h1V186h-1zm0 1.81h1v7h-1zM128.31 193.78h-1v-6.12h-.46v-.91h.46v-1.17h1v1.17h.69v.91h-.72zM129.66 184.54h1v2.67a1.74 1.74 0 0 1 1.25-.53c.82 0 1.19.46 1.19 1.26v5.84h-1v-5.63c0-.37-.17-.54-.51-.54a1.64 1.64 0 0 0-.95.35v5.82h-1zM135.56 184.94h1V186h-1zm0 1.81h1v7h-1zM137.53 186.75h1v.46a1.71 1.71 0 0 1 1.24-.53c.82 0 1.2.46 1.2 1.26v5.84h-1v-5.63c0-.37-.17-.54-.51-.54a1.62 1.62 0 0 0-.94.35v5.82h-1zM143.1 193.78h-1v-6.12h-.47v-.91h.47v-1.17h1v1.17h.72v.91h-.72zM145.3 190.63v1.68a.55.55 0 0 0 .63.62h.18a.55.55 0 0 0 .62-.62v-.81h1v.77a1.4 1.4 0 0 1-1.58 1.58h-.21a1.41 1.41 0 0 1-1.59-1.58v-4a1.41 1.41 0 0 1 1.59-1.58h.21a1.4 1.4 0 0 1 1.58 1.58v2.37zm0-.94h1.41v-1.47a.55.55 0 0 0-.63-.62h-.15a.55.55 0 0 0-.63.62zM148.59 184.54h1v9.24h-1zM150.57 184.54h1v9.24h-1zM152.52 184.94h1V186h-1zm0 1.81h1v7h-1zM157.91 193.74a1.33 1.33 0 0 1-1.53 1.52h-.52c-.94 0-1.38-.43-1.38-1.37v-.37h.92v.33c0 .35.16.55.51.55h.51c.35 0 .5-.2.5-.55v-1.27a1.69 1.69 0 0 1-1.21.48c-.84 0-1.26-.56-1.26-1.39v-3.6c0-.83.42-1.39 1.26-1.39a1.69 1.69 0 0 1 1.21.5v-.43h1zm-1-5.76a1.36 1.36 0 0 0-.91-.37.51.51 0 0 0-.57.58v3.36a.5.5 0 0 0 .57.57 1.54 1.54 0 0 0 .91-.33zM159.77 190.63v1.68a.55.55 0 0 0 .62.62h.19a.55.55 0 0 0 .62-.62v-.81h1v.77a1.4 1.4 0 0 1-1.58 1.58h-.21a1.4 1.4 0 0 1-1.59-1.58v-4a1.4 1.4 0 0 1 1.59-1.58h.21a1.4 1.4 0 0 1 1.58 1.58v2.37zm0-.94h1.4v-1.47a.55.55 0 0 0-.62-.62h-.16a.55.55 0 0 0-.62.62zM163 186.75h1v.46a1.72 1.72 0 0 1 1.25-.53c.81 0 1.19.46 1.19 1.26v5.84h-1v-5.63c0-.37-.17-.54-.5-.54a1.62 1.62 0 0 0-1 .35v5.82h-1zM168.6 193.78h-1v-6.12h-.47v-.91h.47v-1.17h1v1.17h.71v.91h-.71zM124.83 204.33a1.3 1.3 0 0 1 1-1.48l1.32-.46v-1.17a.55.55 0 0 0-.62-.63h-.08a.56.56 0 0 0-.62.63v.88h-1v-.84a1.4 1.4 0 0 1 1.58-1.58h.11a1.4 1.4 0 0 1 1.58 1.58v5.52h-1v-.45a1.65 1.65 0 0 1-1.2.52c-.8 0-1.16-.45-1.16-1.23zm2.36 1.26v-2.29l-.89.32a.64.64 0 0 0-.48.72v1.07c0 .34.17.51.48.51a1.54 1.54 0 0 0 .89-.33zM132.48 206.78h-1v-.46a1.75 1.75 0 0 1-1.25.53 1.1 1.1 0 0 1-1.2-1.26v-5.84h1v5.63c0 .37.17.54.51.54a1.64 1.64 0 0 0 .95-.35v-5.82h1zM134.64 206.78h-1v-6.12h-.46v-.91h.46v-1.17h1v1.17h.72v.91h-.72zM137.44 206.85a1.4 1.4 0 0 1-1.59-1.58v-4a1.4 1.4 0 0 1 1.59-1.58h.28a1.4 1.4 0 0 1 1.59 1.58v4a1.4 1.4 0 0 1-1.59 1.58zm0-6.25a.55.55 0 0 0-.62.62v4.09a.55.55 0 0 0 .62.62h.24a.55.55 0 0 0 .62-.62v-4.09a.55.55 0 0 0-.62-.62zM143.54 206.78h-1v-5.66c0-.35-.17-.51-.47-.51a1.64 1.64 0 0 0-.91.35v5.82h-1v-7h1v.46a1.71 1.71 0 0 1 1.21-.53 1 1 0 0 1 1 .57 2 2 0 0 1 1.34-.57 1.08 1.08 0 0 1 1.16 1.23v5.87h-1v-5.66c0-.35-.17-.51-.47-.51a1.61 1.61 0 0 0-.9.35zM146.71 204.33a1.3 1.3 0 0 1 1-1.48l1.32-.46v-1.17a.55.55 0 0 0-.62-.63h-.08a.56.56 0 0 0-.62.63v.88h-1v-.84a1.4 1.4 0 0 1 1.58-1.58h.1a1.4 1.4 0 0 1 1.59 1.58v5.52h-1v-.45a1.65 1.65 0 0 1-1.21.52c-.79 0-1.15-.45-1.15-1.23zm2.36 1.26v-2.29l-.89.32a.64.64 0 0 0-.48.72v1.07q0 .51.48.51a1.56 1.56 0 0 0 .89-.33zM152.13 206.78h-1v-6.12h-.47v-.91h.47v-1.17h1v1.17h.71v.91h-.71zM153.49 197.94h1V199h-1zm0 1.81h1v7h-1zM157 206.85a1.41 1.41 0 0 1-1.59-1.58v-4a1.41 1.41 0 0 1 1.59-1.58h.29a1.4 1.4 0 0 1 1.58 1.58v4a1.4 1.4 0 0 1-1.58 1.58zm0-6.25a.55.55 0 0 0-.63.62v4.09a.55.55 0 0 0 .63.62h.23a.55.55 0 0 0 .62-.62v-4.09a.55.55 0 0 0-.62-.62zM159.74 199.75h1v.46a1.75 1.75 0 0 1 1.25-.53c.82 0 1.2.46 1.2 1.26v5.84h-1v-5.63c0-.37-.17-.54-.51-.54a1.64 1.64 0 0 0-1 .35v5.82h-1z"/><path class="cls-5" d="M126.06 61.68a3.94 3.94 0 0 1-1.6.29 2.84 2.84 0 0 1-3-3.07 3 3 0 0 1 3.17-3.19 3.22 3.22 0 0 1 1.44.27l-.19.64a2.92 2.92 0 0 0-1.22-.25 2.25 2.25 0 0 0-2.37 2.5 2.2 2.2 0 0 0 2.33 2.44 3.2 3.2 0 0 0 1.28-.25zM130.86 59.66a2.13 2.13 0 0 1-2.17 2.34 2.07 2.07 0 0 1-2.09-2.24 2.13 2.13 0 0 1 2.16-2.32 2.07 2.07 0 0 1 2.1 2.22zm-3.46.05c0 .95.55 1.67 1.32 1.67s1.33-.71 1.33-1.69c0-.74-.37-1.67-1.31-1.67s-1.34.86-1.34 1.69zM131.75 61.07a2.1 2.1 0 0 0 1 .31c.58 0 .85-.28.85-.64s-.23-.59-.81-.81c-.79-.27-1.15-.71-1.15-1.23a1.34 1.34 0 0 1 1.5-1.28 2.21 2.21 0 0 1 1.07.27l-.2.58a1.66 1.66 0 0 0-.89-.25c-.47 0-.73.27-.73.59s.26.52.83.74c.76.29 1.14.67 1.14 1.31s-.55 1.34-1.59 1.34a2.5 2.5 0 0 1-1.22-.3zM136.37 56.27v1.25h1.14v.6h-1.14v2.35c0 .54.16.85.6.85a2.18 2.18 0 0 0 .46 0v.59a2 2 0 0 1-.7.11 1.09 1.09 0 0 1-.85-.33 1.62 1.62 0 0 1-.31-1.14v-2.43h-.68v-.6h.68v-1zM140.2 61.07a2.1 2.1 0 0 0 1 .31c.58 0 .85-.28.85-.64s-.23-.59-.81-.81c-.78-.27-1.15-.71-1.15-1.23a1.34 1.34 0 0 1 1.5-1.28 2.21 2.21 0 0 1 1.07.27l-.2.58a1.66 1.66 0 0 0-.89-.25c-.47 0-.73.27-.73.59s.26.52.83.74c.76.29 1.14.67 1.14 1.31s-.55 1.34-1.59 1.34a2.5 2.5 0 0 1-1.22-.3zM146.28 61.88l-.06-.55a1.62 1.62 0 0 1-1.33.65 1.24 1.24 0 0 1-1.33-1.25c0-1.06.93-1.63 2.62-1.62V59a.9.9 0 0 0-1-1 2.17 2.17 0 0 0-1.14.32l-.18-.52a2.77 2.77 0 0 1 1.44-.39c1.33 0 1.65.91 1.65 1.78v1.63a6.68 6.68 0 0 0 .07 1.05zm-.11-2.22c-.87 0-1.85.13-1.85 1a.7.7 0 0 0 .75.75 1.07 1.07 0 0 0 1.05-.73.74.74 0 0 0 0-.25zM148.44 57.52l.86 2.48c.14.4.26.76.35 1.12.1-.36.22-.72.36-1.12l.85-2.45h.83L150 61.88h-.76l-1.65-4.36zM153.35 56.3a.47.47 0 0 1-.51.48.46.46 0 0 1-.47-.48.48.48 0 0 1 .49-.5.48.48 0 0 1 .49.5zm-.88 5.58v-4.36h.79v4.36zM154.57 58.7v-1.18h.7v.72a1.62 1.62 0 0 1 1.44-.82c.6 0 1.54.36 1.54 1.86v2.6h-.79v-2.51c0-.71-.26-1.29-1-1.29a1.12 1.12 0 0 0-1.06.81 1 1 0 0 0-.06.37v2.62h-.79zM163.32 57.52V61.25a2.48 2.48 0 0 1-.62 2 2.32 2.32 0 0 1-1.58.52 2.86 2.86 0 0 1-1.45-.36l.2-.6a2.47 2.47 0 0 0 1.28.34c.81 0 1.4-.42 1.4-1.52v-.49a1.54 1.54 0 0 1-1.38.73 2 2 0 0 1-1.86-2.12 2.09 2.09 0 0 1 2-2.32 1.45 1.45 0 0 1 1.36.76v-.66zm-.82 1.72a1.37 1.37 0 0 0 0-.36 1.16 1.16 0 0 0-1.11-.84c-.76 0-1.3.64-1.3 1.65s.43 1.57 1.29 1.57a1.16 1.16 0 0 0 1.1-.81 1.59 1.59 0 0 0 .06-.43zM164.49 61.07a2.1 2.1 0 0 0 1 .31c.58 0 .85-.28.85-.64s-.22-.59-.81-.81c-.78-.27-1.15-.71-1.15-1.23a1.34 1.34 0 0 1 1.5-1.28 2.21 2.21 0 0 1 1.07.27l-.2.58a1.66 1.66 0 0 0-.89-.25c-.47 0-.73.27-.73.59s.26.52.83.74c.76.29 1.15.67 1.15 1.31s-.6 1.31-1.63 1.31a2.51 2.51 0 0 1-1.23-.3zM231.65 122.78c0 2.09-1.27 3.2-2.82 3.2a2.78 2.78 0 0 1-2.72-3.08 2.88 2.88 0 0 1 2.81-3.19 2.76 2.76 0 0 1 2.73 3.07zm-4.71.1c0 1.3.7 2.46 1.94 2.46s1.94-1.14 1.94-2.52c0-1.21-.63-2.47-1.93-2.47s-1.95 1.2-1.95 2.53zM232.64 122.7v-1.18h.71v.72a1.6 1.6 0 0 1 1.44-.82c.6 0 1.54.36 1.54 1.86v2.6h-.79v-2.51c0-.71-.27-1.29-1-1.29a1.12 1.12 0 0 0-1.06.81 1 1 0 0 0-.06.37v2.62h-.79zM239.47 123.15v.59h-2.22v-.59zM240.42 119.89a11.67 11.67 0 0 1 1.67-.12 3.51 3.51 0 0 1 2.46.75 2.8 2.8 0 0 1 .85 2.18 3.2 3.2 0 0 1-.87 2.36 3.72 3.72 0 0 1-2.68.87 11.76 11.76 0 0 1-1.43-.07zm.79 5.37a5.82 5.82 0 0 0 .79 0 2.33 2.33 0 0 0 2.58-2.57 2.16 2.16 0 0 0-2.45-2.34 4.08 4.08 0 0 0-.92.08zM246.87 123.84a1.4 1.4 0 0 0 1.49 1.52 2.81 2.81 0 0 0 1.21-.23l.13.57a3.61 3.61 0 0 1-1.45.27 2 2 0 0 1-2.14-2.2 2.12 2.12 0 0 1 2-2.35 1.85 1.85 0 0 1 1.8 2 2.58 2.58 0 0 1 0 .37zm2.32-.56a1.13 1.13 0 0 0-1.1-1.29 1.31 1.31 0 0 0-1.21 1.29zM250.94 122.7v-1.18h.69v.7a1.5 1.5 0 0 1 1.37-.8 1.29 1.29 0 0 1 1.23.88 1.62 1.62 0 0 1 .48-.57 1.48 1.48 0 0 1 1-.31c.57 0 1.43.38 1.43 1.89v2.57h-.78v-2.47c0-.84-.3-1.34-.94-1.34a1 1 0 0 0-.94.72 1.53 1.53 0 0 0-.06.4v2.69h-.78v-2.61c0-.7-.3-1.2-.91-1.2a1.1 1.1 0 0 0-1 .79 1.27 1.27 0 0 0-.06.39v2.63h-.77zM260.86 125.88l-.07-.55a1.62 1.62 0 0 1-1.33.65 1.24 1.24 0 0 1-1.33-1.25c0-1.06.94-1.63 2.62-1.62V123a.9.9 0 0 0-1-1 2.11 2.11 0 0 0-1.13.32l-.19-.52a2.8 2.8 0 0 1 1.44-.39c1.33 0 1.65.91 1.65 1.78v1.63a5.6 5.6 0 0 0 .08 1zm-.12-2.22c-.87 0-1.85.13-1.85 1a.7.7 0 0 0 .75.75 1.07 1.07 0 0 0 1.05-.73.74.74 0 0 0 .05-.25zM262.78 122.7v-1.18h.71v.72a1.62 1.62 0 0 1 1.44-.82c.6 0 1.54.36 1.54 1.86v2.6h-.79v-2.51c0-.71-.26-1.29-1-1.29a1.12 1.12 0 0 0-1.06.81 1 1 0 0 0-.06.37v2.62h-.79zM271.54 119.49v6.39h-.71v-.76a1.6 1.6 0 0 1-1.49.86 2 2 0 0 1-1.86-2.22 2.08 2.08 0 0 1 2-2.34 1.47 1.47 0 0 1 1.32.67v-2.6zm-.79 3.8a1.29 1.29 0 0 0 0-.33 1.17 1.17 0 0 0-1.14-.92c-.82 0-1.31.72-1.31 1.69s.43 1.61 1.29 1.61a1.27 1.27 0 0 0 1.2-1.29zM231 135.87a2.14 2.14 0 0 0 1 .31c.57 0 .84-.28.84-.64s-.22-.59-.81-.81c-.78-.28-1.15-.71-1.15-1.23a1.35 1.35 0 0 1 1.5-1.28 2.21 2.21 0 0 1 1.07.27l-.19.58a1.73 1.73 0 0 0-.9-.25c-.46 0-.72.27-.72.59s.26.52.82.74c.76.29 1.15.66 1.15 1.31s-.6 1.31-1.63 1.31a2.51 2.51 0 0 1-1.23-.3zM237.74 136.52a3.08 3.08 0 0 1-1.25.25 2.07 2.07 0 0 1-2.17-2.23 2.21 2.21 0 0 1 2.34-2.31 2.62 2.62 0 0 1 1.1.23l-.18.61a1.83 1.83 0 0 0-.92-.21 1.51 1.51 0 0 0-1.54 1.65 1.49 1.49 0 0 0 1.51 1.63 2.2 2.2 0 0 0 1-.22zM241.08 136.68l-.07-.55a1.64 1.64 0 0 1-1.33.65 1.24 1.24 0 0 1-1.34-1.25c0-1.06.94-1.63 2.62-1.62v-.09a.9.9 0 0 0-1-1 2.13 2.13 0 0 0-1.13.32l-.18-.52a2.73 2.73 0 0 1 1.43-.39c1.33 0 1.66.91 1.66 1.78v1.63a5.66 5.66 0 0 0 .07 1.05zm-.12-2.23c-.86 0-1.84.14-1.84 1a.69.69 0 0 0 .74.75 1 1 0 0 0 1.1-1zM243 130.29h.79v6.39H243zM247.54 136.68l-.06-.55a1.62 1.62 0 0 1-1.33.65 1.24 1.24 0 0 1-1.33-1.25c0-1.06.93-1.63 2.61-1.62v-.09a.89.89 0 0 0-1-1 2.16 2.16 0 0 0-1.13.32l-.18-.52a2.73 2.73 0 0 1 1.43-.39c1.33 0 1.66.91 1.66 1.78v1.63a6.68 6.68 0 0 0 .07 1.05zm-.12-2.23c-.86 0-1.84.14-1.84 1a.69.69 0 0 0 .74.75 1 1 0 0 0 1.1-1zM249.43 136.68v-6.39h.79V133a1.62 1.62 0 0 1 1.48-.8 2 2 0 0 1 1.84 2.23 2.07 2.07 0 0 1-2 2.33 1.55 1.55 0 0 1-1.45-.82v.72zm.82-1.75a2.58 2.58 0 0 0 0 .29 1.24 1.24 0 0 0 1.19.93c.83 0 1.33-.68 1.33-1.68s-.45-1.62-1.3-1.62a1.28 1.28 0 0 0-1.21 1 2.48 2.48 0 0 0 0 .33zM255.47 131.1a.47.47 0 0 1-.51.48.46.46 0 0 1-.47-.48.48.48 0 0 1 .49-.5.48.48 0 0 1 .49.5zm-.88 5.58v-4.36h.79v4.36zM256.69 130.29h.79v6.39h-.79zM259.7 131.1a.47.47 0 0 1-.51.48.46.46 0 0 1-.47-.48.48.48 0 0 1 .49-.5.48.48 0 0 1 .49.5zm-.88 5.58v-4.36h.79v4.36zM261.88 131.07v1.25H263v.6h-1.13v2.35c0 .54.15.85.59.85a2.18 2.18 0 0 0 .46-.05v.59a2.06 2.06 0 0 1-.71.11 1.11 1.11 0 0 1-.85-.33 1.62 1.62 0 0 1-.31-1.14v-2.38h-.67v-.6h.67v-1zM264.27 132.32l1 2.58c.1.28.21.63.28.89.08-.26.17-.6.28-.91l.86-2.56h.84l-1.19 3.11a6.62 6.62 0 0 1-1.49 2.73 2.25 2.25 0 0 1-1 .51l-.2-.67a2.08 2.08 0 0 0 .69-.38 2.43 2.43 0 0 0 .67-.89.67.67 0 0 0 .06-.19.92.92 0 0 0-.05-.2l-1.61-4zM226.13 256.92a2.76 2.76 0 0 0 1.41.4c.8 0 1.26-.42 1.26-1s-.32-.9-1.14-1.21c-1-.35-1.6-.87-1.6-1.72a1.74 1.74 0 0 1 2-1.65 2.78 2.78 0 0 1 1.34.3l-.21.64a2.43 2.43 0 0 0-1.16-.29c-.82 0-1.14.5-1.14.91 0 .57.37.85 1.21 1.17 1 .4 1.55.89 1.55 1.78s-.7 1.75-2.13 1.75a3.13 3.13 0 0 1-1.55-.39zM231.58 252.27v1.25h1.13v.6h-1.13v2.35c0 .54.15.85.59.85a2.18 2.18 0 0 0 .46-.05v.59a2.06 2.06 0 0 1-.71.11 1.11 1.11 0 0 1-.85-.33 1.62 1.62 0 0 1-.31-1.14v-2.38h-.67v-.6h.67v-1zM233.6 254.88v-1.36h.7v.86a1.31 1.31 0 0 1 1.21-1 .73.73 0 0 1 .22 0v.75a1.06 1.06 0 0 0-.27 0 1.11 1.11 0 0 0-1.06 1 1.9 1.9 0 0 0 0 .37v2.32h-.78zM237.46 252.3a.46.46 0 0 1-.5.48.47.47 0 0 1-.48-.48.49.49 0 0 1 .5-.5.47.47 0 0 1 .48.5zm-.88 5.58v-4.36h.79v4.36zM241.79 257.72a3.08 3.08 0 0 1-1.25.25 2.07 2.07 0 0 1-2.17-2.23 2.21 2.21 0 0 1 2.34-2.31 2.62 2.62 0 0 1 1.1.23l-.18.61a1.83 1.83 0 0 0-.92-.21 1.51 1.51 0 0 0-1.54 1.65 1.49 1.49 0 0 0 1.51 1.63 2.29 2.29 0 0 0 1-.22zM243.79 252.27v1.25h1.13v.6h-1.13v2.35c0 .54.15.85.59.85a2.18 2.18 0 0 0 .46-.05v.59a2 2 0 0 1-.7.11 1.13 1.13 0 0 1-.86-.33 1.67 1.67 0 0 1-.31-1.14v-2.38h-.67v-.6h.7v-1zM247.61 257.07a2.14 2.14 0 0 0 1 .31c.57 0 .84-.28.84-.64s-.22-.59-.81-.81c-.78-.27-1.15-.71-1.15-1.23a1.35 1.35 0 0 1 1.5-1.28 2.25 2.25 0 0 1 1.08.27l-.2.58a1.69 1.69 0 0 0-.87-.27c-.47 0-.73.27-.73.59s.26.52.83.74c.75.29 1.14.67 1.14 1.31s-.6 1.31-1.63 1.31a2.44 2.44 0 0 1-1.22-.3zM251.73 255.84a1.39 1.39 0 0 0 1.49 1.52 2.81 2.81 0 0 0 1.21-.23l.13.57a3.61 3.61 0 0 1-1.45.27 2 2 0 0 1-2.14-2.2 2.11 2.11 0 0 1 2-2.35 1.84 1.84 0 0 1 1.8 2.05 3 3 0 0 1 0 .37zm2.32-.56A1.13 1.13 0 0 0 253 254a1.31 1.31 0 0 0-1.21 1.29zM258.9 257.72a3.08 3.08 0 0 1-1.25.25 2.07 2.07 0 0 1-2.17-2.23 2.21 2.21 0 0 1 2.34-2.31 2.62 2.62 0 0 1 1.1.23l-.18.61a1.83 1.83 0 0 0-.92-.21 1.51 1.51 0 0 0-1.54 1.65 1.49 1.49 0 0 0 1.51 1.63 2.2 2.2 0 0 0 1-.22zM263.47 256.69v1.19h-.7l-.05-.71a1.62 1.62 0 0 1-1.44.81c-.68 0-1.5-.38-1.5-1.91v-2.55h.79v2.41c0 .83.25 1.39 1 1.39a1.16 1.16 0 0 0 1.05-.72 1.29 1.29 0 0 0 .07-.4v-2.68h.79zM264.79 254.88v-1.36h.69v.86a1.31 1.31 0 0 1 1.21-1 .8.8 0 0 1 .23 0v.75a1.09 1.09 0 0 0-1.34 1 3.46 3.46 0 0 0 0 .37v2.32h-.78zM268.65 252.3a.47.47 0 0 1-.51.48.46.46 0 0 1-.47-.48.48.48 0 0 1 .49-.5.48.48 0 0 1 .49.5zm-.89 5.58v-4.36h.8v4.36zM270.82 252.27v1.25H272v.6h-1.14v2.35c0 .54.16.85.6.85a2.18 2.18 0 0 0 .46-.05v.59a2 2 0 0 1-.7.11 1.09 1.09 0 0 1-.85-.33 1.62 1.62 0 0 1-.31-1.14v-2.38h-.68v-.6h.68v-1zM273.22 253.52l.95 2.58c.1.28.21.63.28.89.08-.26.17-.6.28-.91l.86-2.56h.84l-1.19 3.11a6.73 6.73 0 0 1-1.49 2.73 2.22 2.22 0 0 1-1 .51l-.19-.67a2.19 2.19 0 0 0 .69-.38 2.43 2.43 0 0 0 .67-.89.67.67 0 0 0 .06-.19.65.65 0 0 0-.06-.2l-1.61-4zM231.73 268.68l-.06-.55a1.62 1.62 0 0 1-1.33.65 1.24 1.24 0 0 1-1.34-1.25c0-1.06.94-1.63 2.62-1.62v-.09a.89.89 0 0 0-1-1 2.16 2.16 0 0 0-1.13.32l-.18-.52a2.64 2.64 0 0 1 1.43-.39c1.33 0 1.66.91 1.66 1.78v1.63a6.68 6.68 0 0 0 .07 1.05zm-.12-2.23c-.86 0-1.84.14-1.84 1a.69.69 0 0 0 .74.75 1 1 0 0 0 1.1-1zM233.65 265.5v-1.18h.7l.05.72a1.62 1.62 0 0 1 1.44-.82c.61 0 1.54.36 1.54 1.86v2.6h-.79v-2.51c0-.71-.26-1.29-1-1.29a1.13 1.13 0 0 0-1.06.81 1 1 0 0 0-.05.37v2.62h-.8zM242.41 262.29v6.39h-.71v-.76a1.6 1.6 0 0 1-1.48.86 2 2 0 0 1-1.87-2.22 2.09 2.09 0 0 1 2-2.34 1.46 1.46 0 0 1 1.31.67v-2.6zm-.79 3.8a1.29 1.29 0 0 0 0-.33 1.16 1.16 0 0 0-1.14-.92c-.82 0-1.3.72-1.3 1.69s.43 1.61 1.28 1.61a1.27 1.27 0 0 0 1.2-1.29zM248.74 268.52a3.08 3.08 0 0 1-1.25.25 2.07 2.07 0 0 1-2.17-2.23 2.21 2.21 0 0 1 2.34-2.31 2.62 2.62 0 0 1 1.1.23l-.18.61a1.83 1.83 0 0 0-.92-.21 1.51 1.51 0 0 0-1.54 1.65 1.49 1.49 0 0 0 1.51 1.63 2.2 2.2 0 0 0 1-.22zM253.55 266.46a2.13 2.13 0 0 1-2.17 2.32 2.07 2.07 0 0 1-2.08-2.24 2.13 2.13 0 0 1 2.16-2.32 2.06 2.06 0 0 1 2.09 2.24zm-3.45.05c0 .95.55 1.67 1.32 1.67s1.32-.71 1.32-1.69c0-.74-.37-1.67-1.3-1.67s-1.34.86-1.34 1.69zM254.55 265.5v-1.18h.7v.72a1.62 1.62 0 0 1 1.44-.82c.6 0 1.54.36 1.54 1.86v2.6h-.79v-2.51c0-.71-.26-1.29-1-1.29a1.12 1.12 0 0 0-1.06.81 1 1 0 0 0-.06.37v2.62h-.79zM260.46 263.07v1.25h1.14v.6h-1.14v2.35c0 .54.16.85.6.85a2.18 2.18 0 0 0 .46-.05v.59a2 2 0 0 1-.7.11 1.11 1.11 0 0 1-.85-.33 1.62 1.62 0 0 1-.31-1.14v-2.38H259v-.6h.67v-1zM262.49 265.68v-1.36h.7v.86a1.31 1.31 0 0 1 1.21-1 .73.73 0 0 1 .22 0v.82a1.06 1.06 0 0 0-.27 0 1.11 1.11 0 0 0-1.06 1 1.9 1.9 0 0 0 0 .37v2.32h-.78zM269.29 266.46a2.13 2.13 0 0 1-2.17 2.32 2.07 2.07 0 0 1-2.09-2.24 2.13 2.13 0 0 1 2.16-2.32 2.07 2.07 0 0 1 2.1 2.24zm-3.46.05c0 .95.55 1.67 1.32 1.67s1.33-.71 1.33-1.69c0-.74-.37-1.67-1.31-1.67s-1.34.86-1.34 1.69zM270.28 262.29h.8v6.39h-.8zM272.3 267.87a2.1 2.1 0 0 0 1 .31c.58 0 .85-.28.85-.64s-.22-.59-.81-.81c-.78-.28-1.15-.71-1.15-1.23a1.34 1.34 0 0 1 1.5-1.28 2.21 2.21 0 0 1 1.07.27l-.2.58a1.66 1.66 0 0 0-.89-.25c-.46 0-.73.27-.73.59s.27.52.83.74c.76.29 1.15.66 1.15 1.31s-.6 1.31-1.63 1.31a2.51 2.51 0 0 1-1.23-.3zM112.58 273.88a9.67 9.67 0 0 1 1.51-.11 2.52 2.52 0 0 1 1.7.5 1.65 1.65 0 0 1 .53 1.27 1.79 1.79 0 0 1-.47 1.3 2.51 2.51 0 0 1-1.85.66 3 3 0 0 1-.63-.05v2.43h-.79zm.79 2.93a2.84 2.84 0 0 0 .64.06c.95 0 1.53-.46 1.53-1.29s-.57-1.19-1.44-1.19a3 3 0 0 0-.73.06zM117.2 276.88v-1.36h.7v.86a1.31 1.31 0 0 1 1.21-1 .73.73 0 0 1 .22 0v.75a1.06 1.06 0 0 0-.27 0 1.11 1.11 0 0 0-1.06 1 1.9 1.9 0 0 0 0 .37v2.32h-.78zM124 277.66a2.13 2.13 0 0 1-2.17 2.32 2.07 2.07 0 0 1-2.09-2.24 2.13 2.13 0 0 1 2.16-2.32 2.07 2.07 0 0 1 2.1 2.24zm-3.46 0c0 1 .55 1.67 1.32 1.67s1.33-.71 1.33-1.69c0-.74-.37-1.67-1.31-1.67s-1.34.91-1.34 1.74zM128.1 279.72a3.08 3.08 0 0 1-1.25.25 2.07 2.07 0 0 1-2.17-2.23 2.21 2.21 0 0 1 2.34-2.31 2.62 2.62 0 0 1 1.1.23l-.18.61a1.83 1.83 0 0 0-.92-.21 1.51 1.51 0 0 0-1.54 1.65 1.49 1.49 0 0 0 1.51 1.63 2.2 2.2 0 0 0 1-.22zM129.41 277.84a1.4 1.4 0 0 0 1.5 1.52 2.76 2.76 0 0 0 1.2-.23l.14.57a3.65 3.65 0 0 1-1.45.27 2 2 0 0 1-2.14-2.2 2.11 2.11 0 0 1 2-2.35 1.85 1.85 0 0 1 1.8 2.05 2.58 2.58 0 0 1 0 .37zm2.33-.56c0-.51-.21-1.29-1.1-1.29a1.32 1.32 0 0 0-1.22 1.29zM133.37 279.07a2.14 2.14 0 0 0 1 .31c.57 0 .84-.28.84-.64s-.22-.59-.81-.81c-.78-.27-1.15-.71-1.15-1.23a1.35 1.35 0 0 1 1.5-1.28 2.18 2.18 0 0 1 1.07.27l-.19.58a1.69 1.69 0 0 0-.89-.25c-.47 0-.73.27-.73.59s.26.52.82.74c.76.29 1.15.67 1.15 1.31s-.6 1.31-1.63 1.31a2.51 2.51 0 0 1-1.23-.3zM136.94 279.07a2.06 2.06 0 0 0 1 .31c.58 0 .85-.28.85-.64s-.23-.59-.81-.81c-.79-.27-1.15-.71-1.15-1.23a1.34 1.34 0 0 1 1.5-1.28 2.21 2.21 0 0 1 1.07.27l-.2.58a1.66 1.66 0 0 0-.89-.25c-.47 0-.73.27-.73.59s.26.52.83.74c.76.29 1.14.67 1.14 1.31S139 280 138 280a2.47 2.47 0 0 1-1.22-.3zM142.6 279.88v-3.76h-.6v-.6h.61v-.19a2 2 0 0 1 .61-1.5 2.06 2.06 0 0 1 1.4-.44 2.78 2.78 0 0 1 1.3.29v6.2h-.78v-5.76a1.31 1.31 0 0 0-.65-.12c-.83 0-1.1.6-1.1 1.31v.21h1v.6h-1v3.76zM147.66 277.84a1.4 1.4 0 0 0 1.5 1.52 2.81 2.81 0 0 0 1.21-.23l.13.57a3.65 3.65 0 0 1-1.45.27 2 2 0 0 1-2.14-2.2 2.11 2.11 0 0 1 2-2.35 1.85 1.85 0 0 1 1.8 2.05v.37zm2.33-.56a1.13 1.13 0 0 0-1.1-1.29 1.33 1.33 0 0 0-1.22 1.29zM152.07 275.52l.63.94c.16.24.29.47.44.71.15-.26.29-.49.44-.72l.61-.93h.85l-1.48 2.11 1.53 2.25h-.9l-.64-1c-.17-.25-.32-.5-.47-.76-.14.26-.29.5-.46.76l-.63 1h-.87l1.55-2.22-1.48-2.14zM156.75 274.3a.46.46 0 0 1-.5.48.47.47 0 0 1-.48-.48.49.49 0 0 1 .5-.5.47.47 0 0 1 .48.5zm-.88 5.58v-4.36h.79v4.36zM157.94 279.88v-6.39h.78v2.73a1.63 1.63 0 0 1 1.49-.8c1.08 0 1.84.9 1.83 2.23a2.07 2.07 0 0 1-1.95 2.33 1.56 1.56 0 0 1-1.46-.82v.72zm.82-1.75a1.35 1.35 0 0 0 0 .29 1.22 1.22 0 0 0 1.19.93c.82 0 1.32-.68 1.32-1.68s-.45-1.62-1.3-1.62a1.25 1.25 0 0 0-1.2 1 1.34 1.34 0 0 0-.05.32zM164 274.3a.46.46 0 0 1-.5.48.47.47 0 0 1-.48-.48.49.49 0 0 1 .5-.5.47.47 0 0 1 .48.5zm-.88 5.58v-4.36h.79v4.36zM165.21 273.49h.79v6.39h-.79zM168.21 274.3a.46.46 0 0 1-.5.48.47.47 0 0 1-.48-.48.49.49 0 0 1 .5-.5.47.47 0 0 1 .48.5zm-.88 5.58v-4.36h.79v4.36zM170.39 274.27v1.25h1.13v.6h-1.13v2.35c0 .54.15.85.59.85a2.18 2.18 0 0 0 .46-.05v.59a2 2 0 0 1-.7.11 1.13 1.13 0 0 1-.86-.33 1.67 1.67 0 0 1-.31-1.14v-2.38h-.67v-.6h.67v-1zM172.78 275.52l1 2.58c.1.28.2.63.28.89.09-.26.18-.6.28-.91l.87-2.56h.79l-1.19 3.11a6.72 6.72 0 0 1-1.5 2.73 2.15 2.15 0 0 1-1 .51l-.2-.67a2.22 2.22 0 0 0 .7-.38 2.54 2.54 0 0 0 .66-.89.45.45 0 0 0 .06-.19.55.55 0 0 0-.05-.2l-1.61-4zM17.93 261.68a3.94 3.94 0 0 1-1.6.29 2.84 2.84 0 0 1-3-3.07 3 3 0 0 1 3.17-3.19 3.22 3.22 0 0 1 1.44.27l-.19.64a2.92 2.92 0 0 0-1.22-.25 2.25 2.25 0 0 0-2.37 2.5 2.2 2.2 0 0 0 2.33 2.44 3.2 3.2 0 0 0 1.28-.25zM22.73 259.66a2.13 2.13 0 0 1-2.17 2.34 2.07 2.07 0 0 1-2.09-2.24 2.13 2.13 0 0 1 2.16-2.32 2.07 2.07 0 0 1 2.1 2.22zm-3.46 0c0 1 .55 1.67 1.32 1.67s1.33-.71 1.33-1.69c0-.74-.37-1.67-1.31-1.67s-1.34.91-1.34 1.74zM23.73 258.7v-1.18h.7l.05.72a1.59 1.59 0 0 1 1.44-.82c.6 0 1.53.36 1.53 1.86v2.6h-.79v-2.51c0-.71-.26-1.29-1-1.29a1.13 1.13 0 0 0-1.06.81 1.32 1.32 0 0 0-.05.37v2.62h-.79zM29.64 256.27v1.25h1.13v.6h-1.13v2.35c0 .54.15.85.59.85a2.18 2.18 0 0 0 .46-.05v.59a2 2 0 0 1-.7.11 1.13 1.13 0 0 1-.86-.33 1.67 1.67 0 0 1-.31-1.14v-2.38h-.67v-.6h.67v-1zM32.55 256.3a.47.47 0 0 1-.51.48.46.46 0 0 1-.47-.48.48.48 0 0 1 .49-.5.48.48 0 0 1 .49.5zm-.89 5.58v-4.36h.8v4.36zM33.77 258.7v-1.18h.71v.72a1.6 1.6 0 0 1 1.44-.82c.6 0 1.54.36 1.54 1.86v2.6h-.79v-2.51c0-.71-.26-1.29-1-1.29a1.12 1.12 0 0 0-1.06.81 1 1 0 0 0-.06.37v2.62h-.79zM42.41 260.69v1.19h-.71v-.71a1.64 1.64 0 0 1-1.44.81c-.68 0-1.5-.38-1.5-1.91v-2.55h.79v2.41c0 .83.25 1.39 1 1.39a1.16 1.16 0 0 0 1-.72 1.29 1.29 0 0 0 .07-.4v-2.68h.79zM47.67 259.66A2.13 2.13 0 0 1 45.5 262a2.07 2.07 0 0 1-2.09-2.24 2.13 2.13 0 0 1 2.16-2.32 2.07 2.07 0 0 1 2.1 2.22zm-3.46 0c0 1 .55 1.67 1.32 1.67s1.33-.71 1.33-1.69c0-.74-.37-1.67-1.31-1.67s-1.34.91-1.34 1.74zM52.31 260.69v1.19h-.71v-.71a1.64 1.64 0 0 1-1.44.81c-.68 0-1.5-.38-1.5-1.91v-2.55h.79v2.41c0 .83.25 1.39 1 1.39a1.16 1.16 0 0 0 1.05-.72 1.29 1.29 0 0 0 .07-.4v-2.68h.79zM53.52 261.07a2.06 2.06 0 0 0 1 .31c.58 0 .85-.28.85-.64s-.23-.59-.81-.81c-.79-.27-1.16-.71-1.16-1.23a1.35 1.35 0 0 1 1.6-1.28 2.21 2.21 0 0 1 1.07.27l-.2.58a1.69 1.69 0 0 0-.89-.25c-.47 0-.73.27-.73.59s.26.52.83.74c.75.29 1.14.67 1.14 1.31s-.64 1.34-1.68 1.34a2.47 2.47 0 0 1-1.22-.3zM59.1 258.94v-1.42h.71v.75a1.7 1.7 0 0 1 1.54-.85 2 2 0 0 1 1.85 2.22 2.07 2.07 0 0 1-2 2.34 1.51 1.51 0 0 1-1.34-.69v2.37h-.76zm.78 1.17a3.16 3.16 0 0 0 0 .32 1.24 1.24 0 0 0 1.19.93c.84 0 1.33-.69 1.33-1.69s-.46-1.62-1.3-1.62a1.28 1.28 0 0 0-1.2 1 1.75 1.75 0 0 0 0 .33zM64.22 258.88v-1.36h.69v.86a1.29 1.29 0 0 1 1.2-1 .8.8 0 0 1 .23 0v.75a1.06 1.06 0 0 0-.27 0 1.1 1.1 0 0 0-1.06 1 1.9 1.9 0 0 0 0 .37v2.32h-.78zM71 259.66a2.13 2.13 0 0 1-2.16 2.34 2.07 2.07 0 0 1-2.09-2.24 2.14 2.14 0 0 1 2.16-2.32 2.06 2.06 0 0 1 2.09 2.22zm-3.45 0c0 1 .54 1.67 1.32 1.67s1.32-.71 1.32-1.69c0-.74-.37-1.67-1.3-1.67s-1.33.91-1.33 1.74zM75.12 261.72a3.08 3.08 0 0 1-1.25.25 2.07 2.07 0 0 1-2.17-2.23 2.21 2.21 0 0 1 2.3-2.31 2.57 2.57 0 0 1 1.09.23l-.17.61a1.83 1.83 0 0 0-.92-.21 1.51 1.51 0 0 0-1.54 1.65 1.49 1.49 0 0 0 1.54 1.63 2.2 2.2 0 0 0 1-.22zM76.43 259.84a1.4 1.4 0 0 0 1.49 1.52 2.81 2.81 0 0 0 1.21-.23l.14.57a3.65 3.65 0 0 1-1.45.27 2 2 0 0 1-2.15-2.2 2.12 2.12 0 0 1 2-2.35 1.85 1.85 0 0 1 1.8 2.05 2.58 2.58 0 0 1 0 .37zm2.32-.56a1.13 1.13 0 0 0-1.1-1.29 1.31 1.31 0 0 0-1.21 1.29zM80.39 261.07a2.1 2.1 0 0 0 1 .31c.58 0 .85-.28.85-.64s-.23-.59-.81-.81c-.78-.27-1.15-.71-1.15-1.23a1.34 1.34 0 0 1 1.5-1.28 2.21 2.21 0 0 1 1.07.27l-.2.58a1.66 1.66 0 0 0-.89-.25c-.47 0-.73.27-.73.59s.26.52.83.74c.76.29 1.14.67 1.14 1.31s-.55 1.34-1.59 1.34a2.5 2.5 0 0 1-1.22-.3zM84 261.07a2.14 2.14 0 0 0 1 .31c.57 0 .84-.28.84-.64s-.22-.59-.81-.81c-.78-.27-1.15-.71-1.15-1.23a1.35 1.35 0 0 1 1.5-1.28 2.25 2.25 0 0 1 1.08.27l-.2.58a1.69 1.69 0 0 0-.89-.25c-.47 0-.73.27-.73.59s.26.52.83.74c.75.29 1.14.67 1.14 1.31S86 262 85 262a2.44 2.44 0 0 1-1.22-.3zM24 266.61v6.07h-.78v-6.07zM25.45 269.5v-1.18h.69v.7a1.52 1.52 0 0 1 1.37-.8 1.29 1.29 0 0 1 1.24.88 1.75 1.75 0 0 1 .49-.57 1.47 1.47 0 0 1 1-.31c.58 0 1.43.38 1.43 1.89v2.57h-.77v-2.47c0-.84-.31-1.34-.94-1.34a1 1 0 0 0-.94.72 1.2 1.2 0 0 0-.06.4v2.69h-.78v-2.61c0-.7-.3-1.2-.91-1.2a1.1 1.1 0 0 0-1 .79 1.23 1.23 0 0 0-.06.39v2.63h-.78zM33 269.74v-1.42h.71v.75a1.72 1.72 0 0 1 1.55-.85 2 2 0 0 1 1.84 2.22 2.06 2.06 0 0 1-2 2.34 1.52 1.52 0 0 1-1.34-.69v2.37H33zm.78 1.17a1.65 1.65 0 0 0 0 .32 1.22 1.22 0 0 0 1.19.93c.83 0 1.32-.69 1.32-1.69s-.46-1.62-1.3-1.62a1.26 1.26 0 0 0-1.19 1 1.2 1.2 0 0 0-.06.33zM38.08 269.68v-1.36h.7v.86a1.31 1.31 0 0 1 1.21-1 .73.73 0 0 1 .22 0v.82a1.06 1.06 0 0 0-.27 0 1.11 1.11 0 0 0-1.06 1 1.9 1.9 0 0 0 0 .37v2.32h-.78zM44.88 270.46a2.13 2.13 0 0 1-2.17 2.32 2.07 2.07 0 0 1-2.09-2.24 2.13 2.13 0 0 1 2.16-2.32 2.07 2.07 0 0 1 2.1 2.24zm-3.46.05c0 .95.55 1.67 1.32 1.67s1.33-.71 1.33-1.69c0-.74-.37-1.67-1.31-1.67s-1.34.86-1.34 1.69zM46.12 268.32l.85 2.45a10.12 10.12 0 0 1 .35 1.12c.1-.36.23-.72.37-1.12l.85-2.45h.82l-1.71 4.36h-.75l-1.66-4.36zM50.49 270.64a1.4 1.4 0 0 0 1.5 1.52 2.76 2.76 0 0 0 1.2-.23l.14.57a3.65 3.65 0 0 1-1.45.27 2 2 0 0 1-2.14-2.2 2.11 2.11 0 0 1 2-2.35 1.85 1.85 0 0 1 1.8 2.06 2.55 2.55 0 0 1 0 .36zm2.32-.56a1.12 1.12 0 0 0-1.09-1.29 1.31 1.31 0 0 0-1.22 1.29zM54.56 269.5v-1.18h.7v.7a1.51 1.51 0 0 1 1.37-.8 1.29 1.29 0 0 1 1.23.88 1.64 1.64 0 0 1 .49-.57 1.46 1.46 0 0 1 1-.31c.57 0 1.43.38 1.43 1.89v2.57H60v-2.47c0-.84-.31-1.34-.95-1.34a1 1 0 0 0-.94.72 1.53 1.53 0 0 0-.06.4v2.69h-.77v-2.61c0-.7-.31-1.2-.91-1.2a1.08 1.08 0 0 0-1 .79 1 1 0 0 0-.07.39v2.63h-.77zM62.51 270.64a1.4 1.4 0 0 0 1.49 1.52 2.81 2.81 0 0 0 1.21-.23l.13.57a3.61 3.61 0 0 1-1.45.27 2 2 0 0 1-2.14-2.2 2.11 2.11 0 0 1 2-2.35 1.84 1.84 0 0 1 1.8 2.06 2.93 2.93 0 0 1 0 .36zm2.32-.56a1.13 1.13 0 0 0-1.1-1.29 1.31 1.31 0 0 0-1.21 1.29zM66.57 269.5v-1.18h.7l.05.72a1.62 1.62 0 0 1 1.44-.82c.61 0 1.54.36 1.54 1.86v2.6h-.79v-2.51c0-.71-.26-1.29-1-1.29a1.13 1.13 0 0 0-1.06.81 1 1 0 0 0 0 .37v2.62h-.8zM72.49 267.07v1.25h1.13v.6h-1.13v2.35c0 .54.15.85.59.85a2.18 2.18 0 0 0 .46-.05v.59a2.06 2.06 0 0 1-.71.11 1.12 1.12 0 0 1-.85-.33 1.62 1.62 0 0 1-.31-1.14v-2.38H71v-.6h.67v-1zM74.4 271.87a2.14 2.14 0 0 0 1 .31c.58 0 .84-.28.84-.64s-.22-.59-.8-.81c-.79-.28-1.16-.71-1.16-1.23a1.35 1.35 0 0 1 1.51-1.28 2.24 2.24 0 0 1 1.07.27l-.2.58a1.69 1.69 0 0 0-.89-.25c-.47 0-.73.27-.73.59s.26.52.83.74c.75.29 1.14.66 1.14 1.31s-.59 1.31-1.63 1.31a2.44 2.44 0 0 1-1.22-.3zM8.21 117.81v6.07h-.79v-6.07zM9.64 120.7v-1.18h.7v.7a1.51 1.51 0 0 1 1.37-.8 1.29 1.29 0 0 1 1.23.88 1.73 1.73 0 0 1 .48-.57 1.5 1.5 0 0 1 1-.31c.57 0 1.43.38 1.43 1.89v2.57h-.78v-2.47c0-.84-.3-1.34-.94-1.34a1 1 0 0 0-.94.72 1.53 1.53 0 0 0-.06.4v2.69h-.77v-2.61c0-.7-.31-1.2-.91-1.2a1.08 1.08 0 0 0-1 .79 1 1 0 0 0-.07.39v2.63h-.74zM17.14 120.94v-1.42h.71v.75a1.73 1.73 0 0 1 1.55-.85 2 2 0 0 1 1.85 2.22 2.07 2.07 0 0 1-2 2.34 1.51 1.51 0 0 1-1.34-.69v2.37h-.79zm.79 1.17a3.16 3.16 0 0 0 0 .32 1.23 1.23 0 0 0 1.19.93c.84 0 1.33-.69 1.33-1.69s-.46-1.62-1.3-1.62a1.27 1.27 0 0 0-1.2 1 1.75 1.75 0 0 0-.05.33zM22.27 120.88v-1.36h.69v.86a1.29 1.29 0 0 1 1.2-1 .8.8 0 0 1 .23 0v.75a1.09 1.09 0 0 0-1.34 1 3.46 3.46 0 0 0 0 .37v2.32h-.78zM29.06 121.66a2.13 2.13 0 0 1-2.17 2.34 2.07 2.07 0 0 1-2.09-2.24 2.14 2.14 0 0 1 2.2-2.34 2.06 2.06 0 0 1 2.06 2.24zm-3.45 0c0 1 .54 1.67 1.32 1.67s1.32-.71 1.32-1.69c0-.74-.37-1.67-1.3-1.67s-1.34.91-1.34 1.74zM30.3 119.52l.86 2.45c.14.4.26.76.35 1.12.1-.36.22-.72.37-1.12l.84-2.45h.83l-1.71 4.36h-.76l-1.65-4.36zM34.68 121.84a1.39 1.39 0 0 0 1.49 1.52 2.81 2.81 0 0 0 1.21-.23l.13.57a3.61 3.61 0 0 1-1.45.27 2 2 0 0 1-2.14-2.2 2.11 2.11 0 0 1 2-2.35 1.84 1.84 0 0 1 1.8 2 3 3 0 0 1 0 .37zm2.32-.56a1.13 1.13 0 0 0-1.1-1.28 1.31 1.31 0 0 0-1.21 1.29zM42.51 117.49v6.39h-.71v-.76a1.61 1.61 0 0 1-1.49.86 2 2 0 0 1-1.86-2.22 2.08 2.08 0 0 1 2-2.34 1.47 1.47 0 0 1 1.32.67v-2.6zm-.79 3.8a1.29 1.29 0 0 0 0-.33 1.17 1.17 0 0 0-1.14-.92c-.82 0-1.31.72-1.31 1.69s.43 1.61 1.29 1.61a1.27 1.27 0 0 0 1.2-1.29zM45.62 123.07a2.1 2.1 0 0 0 1 .31c.58 0 .85-.28.85-.64s-.22-.59-.81-.81c-.78-.27-1.15-.71-1.15-1.23a1.35 1.35 0 0 1 1.5-1.28 2.21 2.21 0 0 1 1.07.27l-.2.58A1.66 1.66 0 0 0 47 120c-.46 0-.73.27-.73.59s.27.52.83.74c.76.29 1.15.67 1.15 1.31s-.6 1.31-1.63 1.31a2.51 2.51 0 0 1-1.23-.3zM49.73 121.84a1.4 1.4 0 0 0 1.5 1.52 2.73 2.73 0 0 0 1.2-.23l.14.57a3.65 3.65 0 0 1-1.45.27 2 2 0 0 1-2.14-2.2 2.11 2.11 0 0 1 2-2.35 1.85 1.85 0 0 1 1.8 2 2.58 2.58 0 0 1 0 .37zm2.33-.56A1.13 1.13 0 0 0 51 120a1.33 1.33 0 0 0-1.22 1.29zM53.8 120.88v-1.36h.69v.86a1.31 1.31 0 0 1 1.21-1 .73.73 0 0 1 .22 0v.75a1.06 1.06 0 0 0-.27 0 1.11 1.11 0 0 0-1.06 1 1.9 1.9 0 0 0 0 .37v2.32h-.79zM57.28 119.52l.85 2.45a10.12 10.12 0 0 1 .35 1.12c.1-.36.22-.72.37-1.12l.84-2.45h.83l-1.71 4.36h-.75l-1.66-4.36zM62.18 118.3a.46.46 0 0 1-.5.48.47.47 0 0 1-.48-.48.49.49 0 0 1 .49-.5.48.48 0 0 1 .49.5zm-.88 5.58v-4.36h.79v4.36zM66.51 123.72a3.08 3.08 0 0 1-1.25.25 2.07 2.07 0 0 1-2.17-2.23 2.21 2.21 0 0 1 2.34-2.31 2.62 2.62 0 0 1 1.1.23l-.18.61a1.83 1.83 0 0 0-.92-.21 1.51 1.51 0 0 0-1.54 1.65 1.49 1.49 0 0 0 1.51 1.63 2.2 2.2 0 0 0 1-.22zM67.82 121.84a1.4 1.4 0 0 0 1.5 1.52 2.76 2.76 0 0 0 1.2-.23l.14.57a3.65 3.65 0 0 1-1.45.27 2 2 0 0 1-2.14-2.2 2.11 2.11 0 0 1 2-2.35 1.85 1.85 0 0 1 1.8 2 2.58 2.58 0 0 1 0 .37zm2.33-.56c0-.51-.21-1.29-1.1-1.29a1.32 1.32 0 0 0-1.22 1.29zM29.67 134a1.53 1.53 0 0 1-1.42.78 2 2 0 0 1-1.85-2.21 2.09 2.09 0 0 1 2-2.35 1.45 1.45 0 0 1 1.35.76v-.66h.75V136.46h-.79zm0-1.91a1.27 1.27 0 0 0 0-.34 1.16 1.16 0 0 0-1.13-.9c-.82 0-1.32.7-1.32 1.68s.42 1.62 1.29 1.62a1.19 1.19 0 0 0 1.14-.87 1.51 1.51 0 0 0 .06-.37zM35.41 133.49v1.19h-.71v-.71a1.64 1.64 0 0 1-1.44.81c-.68 0-1.5-.38-1.5-1.91v-2.55h.79v2.41c0 .83.25 1.39 1 1.39a1.16 1.16 0 0 0 1-.72 1.3 1.3 0 0 0 .07-.41v-2.67h.79zM39.14 134.68l-.07-.55a1.66 1.66 0 0 1-1.34.65 1.24 1.24 0 0 1-1.33-1.25c0-1.06.94-1.63 2.62-1.62v-.09a.9.9 0 0 0-1-1 2.13 2.13 0 0 0-1.13.32l-.18-.52a2.73 2.73 0 0 1 1.43-.39c1.33 0 1.65.91 1.65 1.78v1.63a5.6 5.6 0 0 0 .08 1.05zm-.14-2.23c-.86 0-1.85.14-1.85 1a.7.7 0 0 0 .75.75 1.07 1.07 0 0 0 1-.73.74.74 0 0 0 .05-.25zM41.06 128.29h.79v6.39h-.79zM44.07 129.1a.47.47 0 0 1-.51.48.46.46 0 0 1-.47-.48.48.48 0 0 1 .49-.5.48.48 0 0 1 .49.5zm-.88 5.58v-4.36H44v4.36zM46.25 129.07v1.25h1.13v.6h-1.13v2.35c0 .54.15.85.59.85a2.18 2.18 0 0 0 .46-.05v.59a2.06 2.06 0 0 1-.71.11 1.11 1.11 0 0 1-.85-.33 1.62 1.62 0 0 1-.31-1.14v-2.38h-.63v-.6h.67v-1zM48.64 130.32l1 2.58c.1.28.21.63.28.89.08-.26.17-.6.28-.91l.86-2.56h.84l-1.19 3.11a6.62 6.62 0 0 1-1.49 2.73 2.25 2.25 0 0 1-1 .51L48 136a2.08 2.08 0 0 0 .69-.38 2.43 2.43 0 0 0 .67-.89.67.67 0 0 0 .06-.19.92.92 0 0 0 0-.2l-1.61-4z"/><path class="cls-7" d="M139.4 4.88c.9.38 1.8.78 2.71 1.15a.56.56 0 0 1 .38.75 1.66 1.66 0 0 0 .73 2.07 1.18 1.18 0 0 1 .41.42c.35.61.87.63 1.48.53.86-.14.9-.13 1.25.67s.56 1.47.85 2.2a.44.44 0 0 1-.19.64 2.15 2.15 0 0 0-1 2.16 1.93 1.93 0 0 0 1 1.92.54.54 0 0 1 .24.76c-.35.83-.68 1.66-1 2.49-.12.29-.31.45-.63.36a1.9 1.9 0 0 0-2.32.88 1.15 1.15 0 0 1-.39.37.89.89 0 0 0-.39 1.17 28.13 28.13 0 0 1 2.84-.6A13.38 13.38 0 0 1 158.71 29a.88.88 0 0 0 .84.47 2.83 2.83 0 0 1 2.69 1.89c.06.17.13.33.19.49V33a7.49 7.49 0 0 1-.73 1.3 3 3 0 1 1-4.4-4l.28-.31a12.09 12.09 0 0 0-22 2.82l2.28.91-5.3 4.28-1-6.74 2.48.95a38.54 38.54 0 0 1 2-3.7 38 38 0 0 1 2.74-3.16 7.28 7.28 0 0 0-.6-.73.75.75 0 0 0-.47-.15 5.24 5.24 0 0 1-1.18 0 1.41 1.41 0 0 0-1.72.79.81.81 0 0 1-1.2.35c-.73-.34-1.48-.65-2.22-1-.28-.12-.41-.3-.32-.59a2.28 2.28 0 0 0-.9-2.44 1.91 1.91 0 0 0-2-.68.69.69 0 0 1-.9-.51c-.34-.88-.71-1.75-1.06-2.62v-.22c.42-.33.85-.64 1.25-1a.51.51 0 0 0 .13-.37v-1.81a.66.66 0 0 0-.17-.41c-.39-.34-.81-.64-1.21-1V13c.38-.94.76-1.89 1.13-2.83a.56.56 0 0 1 .75-.4c.92.28 1.49-.13 2.16-.78a2.08 2.08 0 0 0 .82-2.24c-.11-.39.09-.6.42-.74l2.72-1.12h.22c.5.78.92 1.67 2.14 1.37a5.36 5.36 0 0 1 1.13 0 .82.82 0 0 0 .51-.19c.34-.38.65-.8 1-1.2zm4.57 6.5c-.41.18-.66-.09-.93-.46a4.39 4.39 0 0 0-1.16-1.26 1.78 1.78 0 0 1-1-2.2.53.53 0 0 0-.17-.44c-.71-.52-1-.47-1.54.2-.1.13-.22.24-.31.38a.61.61 0 0 1-.68.25 8.53 8.53 0 0 0-2.18-.07c-.79.13-1.36 0-1.74-.69-.25-.5-.59-.46-1.06-.28s-.68.45-.53 1a5.9 5.9 0 0 1 .06.59c.07.35-.09.54-.35.76a9 9 0 0 0-1.67 1.59 1.27 1.27 0 0 1-1.51.64h-.11c-.5-.19-.72.07-.91.51s-.21.83.29 1.11c.15.08.27.24.42.34a.67.67 0 0 1 .29.77 7.35 7.35 0 0 0-.06 2.09 1.3 1.3 0 0 1-.63 1.61c-.05 0-.08.07-.13.1-.36.2-.41.45-.24.84.32.75.3.76 1.11.68h.38a.8.8 0 0 1 .89.4 7.75 7.75 0 0 0 1.5 1.55 1.24 1.24 0 0 1 .62 1.52c-.17.59 0 .86.6 1.06s.7.15.95-.24c.13-.22.33-.38.47-.59s.35-.26.63-.24a20.88 20.88 0 0 0 2.74 0 .91.91 0 0 1 1 .43c.05.09.15.16.2.25.29.52.67.58 1.2.31.34-.17.56-.33.46-.76 0-.22 0-.47-.07-.69a.71.71 0 0 1 .34-.81 6.4 6.4 0 0 0 1.5-1.38 1.66 1.66 0 0 1 2.06-.83.53.53 0 0 0 .45-.15c.51-.72.46-1.05-.21-1.6-.11-.1-.26-.16-.33-.28a1.61 1.61 0 0 1-.25-.68 11.6 11.6 0 0 0 0-2.2 1.32 1.32 0 0 1 .71-1.59c.45-.27.47-.58.27-1s-.39-.75-.94-.57a1.8 1.8 0 0 1-.4.03zm15.48 22.47A1.49 1.49 0 0 0 161 32.4a1.49 1.49 0 1 0-1.5 1.45zM146.21 51.16c-.56-.1-1.12-.19-1.67-.3a13.43 13.43 0 0 1-8.72-5.86.77.77 0 0 0-.72-.42 2.89 2.89 0 0 1-2.87-2.37 3 3 0 1 1 5.14 1.37 4.4 4.4 0 0 1-.38.37A12.06 12.06 0 0 0 158.47 42l-2.46-1 5.32-4.27 1 6.75-2.43-.94c-.09.17-.16.33-.24.48a13.49 13.49 0 0 1-11.13 8 1.4 1.4 0 0 0-.29.09zm-11.06-11a1.48 1.48 0 0 0-1.51 1.5 1.54 1.54 0 0 0 1.48 1.49 1.52 1.52 0 0 0 1.5-1.52 1.45 1.45 0 0 0-1.47-1.5z"/><path class="cls-7" d="M146.84 29H148v1.71c.64.16 1.24.3 1.84.46s.7.38.41.88a5.61 5.61 0 0 0-.28.68 4.73 4.73 0 0 0-2.73-.61 1.56 1.56 0 0 0-1.59 1.82 1.8 1.8 0 0 0 .63 1 9.69 9.69 0 0 0 1.55.85c.51.27 1 .49 1.54.79a3 3 0 0 1 1.44 3.3 3.13 3.13 0 0 1-2.33 2.51c-.17.06-.34.1-.57.16v1.91h-1.22v-1.71l-3-.84.46-1.29c.85.23 1.65.5 2.47.64a2.94 2.94 0 0 0 1.37-.18 1.72 1.72 0 0 0 .51-3 8.14 8.14 0 0 0-1.49-.86c-.54-.29-1.12-.51-1.64-.82a2.74 2.74 0 0 1-1.37-2.69 2.78 2.78 0 0 1 2.09-2.61c.66-.2.86-.48.77-1.11a8.09 8.09 0 0 1-.02-.99zM136.79 20.76a5.39 5.39 0 1 1 5.42-5.38 5.39 5.39 0 0 1-5.42 5.38zm3.92-5.39a3.94 3.94 0 1 0-3.92 3.91 3.93 3.93 0 0 0 3.92-3.91zM231.09 104.21V63.3h31.65a.75.75 0 0 0 .84-.55 3 3 0 0 1 3-1.74 3.07 3.07 0 0 1 2.7 2.82 3 3 0 0 1-1.93 3c-.51.18-.6.42-.6.9V107.72h-32.1a3 3 0 0 1-1.69 2.2 3.43 3.43 0 0 1-1.69.28 3 3 0 0 1-2.65-2.79c-.08-1.41.81-2.56 2.47-3.2zm6.28-29.65l3-5.16 3 5.17h-2.44v20.64a.57.57 0 0 0 .2.43 3.15 3.15 0 0 1 2.19 2.36h12.57v-2.46l5.18 3-5.22 3v-2.45h-12.16a.61.61 0 0 0-.44.35 3 3 0 0 1-4.34 1.82.54.54 0 0 0-.51 0c-1.41 1.39-2.8 2.8-4.21 4.22a2.3 2.3 0 0 1 .29.64c.08.55.42.59.89.59h30.39v-.41-38.84a.5.5 0 0 0-.41-.58 2.73 2.73 0 0 1-1.95-2c-.12-.49-.32-.58-.77-.58H232.2v39.9l1.31.53c1.33-1.34 2.66-2.71 4-4a.58.58 0 0 0 .13-.8 3 3 0 0 1 1.63-4.11.69.69 0 0 0 .55-.78V74.61zm4.95 24a2 2 0 0 0-1.95-2 2 2 0 1 0 0 4 2 2 0 0 0 1.95-2zm-8.68 8.67a2 2 0 1 0-3.91 0 2 2 0 1 0 3.91 0zm32.66-45.16a1.92 1.92 0 0 0-2 1.92 2 2 0 1 0 3.92.08 1.92 1.92 0 0 0-1.92-2zM14.38 104.23h4v-.61c0-2 0-4.07.08-6.1a18.39 18.39 0 0 1 3.2-9.4l.27-.41a3.4 3.4 0 0 1-.93-2.84 3.3 3.3 0 0 1 1-2 3.36 3.36 0 0 1 4.49 0c1.57-.74 3.07-1.52 4.62-2.16a16.25 16.25 0 0 1 5.2-1.08c.25 0 .42 0 .42-.36v-5.15h-4.55V72.4h10.88v1.69h-4.55v5.46c.88.12 1.77.21 2.64.36a19.28 19.28 0 0 1 15.44 15.55c.06.36.19.47.55.46h2.76l-3.83 6.64-3.83-6.62h2.81c-.26-1-.42-1.87-.74-2.71C51.78 86.48 47 82.46 39.84 81.4A16.8 16.8 0 0 0 28 84.1a.75.75 0 0 0-.41.85 3.28 3.28 0 0 1-3.91 3.68.48.48 0 0 0-.57.26 15.89 15.89 0 0 0-2.9 7.5C20 99 20 101.57 20 104.21h40.84v1.64H14.38zM24.32 87a1.68 1.68 0 1 0 0-3.35 1.68 1.68 0 1 0 0 3.35z"/><path class="cls-7" d="M31.76 97.5c-1 .07-1 .08-1.37-.81-.13-.27-.22-.57-.35-.84-.31-.68-.37-1.28.42-1.69.11-.06.17-.27.2-.42s0-.38 0-.56a1.06 1.06 0 0 0-.57-1.18.51.51 0 0 1-.24-.72c.26-.64.52-1.28.77-1.93a.64.64 0 0 1 .83-.43c.26 0 .61.14.78 0a4 4 0 0 0 1-1c.13-.21 0-.6 0-.89s0-.52.31-.65c.69-.27 1.38-.55 2.06-.85.28-.12.51-.08.64.19.44 1 1.32.69 2.06.7.21 0 .46-.36.62-.6a.63.63 0 0 1 .86-.26c.6.27 1.21.51 1.82.75.38.15.56.4.43.78-.35 1 .57 1.33 1 1.87.11.13.52 0 .78 0s.65 0 .8.41c.24.67.51 1.32.78 2a.46.46 0 0 1-.22.67c-.89.45-.62 1.26-.59 2 0 .17.28.37.47.49a.68.68 0 0 1 .29 1c-.27.61-.53 1.24-.78 1.86a.49.49 0 0 1-.64.32 1.54 1.54 0 0 0-.93 0 4.31 4.31 0 0 0-1 1c-.08.09 0 .32 0 .48.09 1.07.22.82-.7 1.29a10.34 10.34 0 0 1-1.71.64.57.57 0 0 1-.49-.14c-.46-1-1.32-.8-2.1-.75-.23 0-.48.34-.64.58a.62.62 0 0 1-.88.27l-1.92-.81a.49.49 0 0 1-.33-.63 1.48 1.48 0 0 0 0-.93 4.31 4.31 0 0 0-1-1c-.08-.24-.3-.2-.46-.21zm.75-1.71c.34-.12.61 0 .86.43a3.39 3.39 0 0 0 .93 1 1.24 1.24 0 0 1 .7 1.52c0 .09.1.28.2.32a.49.49 0 0 0 .38-.07.62.62 0 0 0 .23-.27.82.82 0 0 1 1-.38 2.88 2.88 0 0 0 1.2.07c.72-.16 1.32-.16 1.71.59a.35.35 0 0 0 .33.08.53.53 0 0 0 .25-.3 1.22 1.22 0 0 0 0-.46.69.69 0 0 1 .34-.83 3.83 3.83 0 0 0 1.08-1 1.25 1.25 0 0 1 1.48-.69.39.39 0 0 0 .35-.17.61.61 0 0 0-.09-.43 1 1 0 0 0-.31-.26.69.69 0 0 1-.32-.81 3.6 3.6 0 0 0 0-1.46 1.14 1.14 0 0 1 .56-1.4.51.51 0 0 0 .11-.46c0-.09-.25-.13-.39-.18s-.1 0-.15 0a.87.87 0 0 1-1.09-.44 3.3 3.3 0 0 0-1-1 1.08 1.08 0 0 1-.57-1.33.47.47 0 0 0-.18-.43c-.11-.05-.31.08-.46.14a.24.24 0 0 0-.09.11.94.94 0 0 1-1.15.45 3.5 3.5 0 0 0-1.51 0 1 1 0 0 1-1.18-.46c-.12-.19-.28-.47-.55-.24a.67.67 0 0 0-.15.54 1 1 0 0 1-.49 1.14 2.91 2.91 0 0 0-.92.86c-.38.57-.78.94-1.52.7-.08 0-.29.1-.32.19a.59.59 0 0 0 .09.42.79.79 0 0 0 .3.27c.37.19.37.48.32.85a3.65 3.65 0 0 0-.06 1.31 1.2 1.2 0 0 1-.57 1.53.4.4 0 0 0-.1.37c0 .11.2.19.32.23s.21-.04.43-.05z"/><path class="cls-7" d="M37.66 89.08a4.19 4.19 0 0 1 4.17 4.17 4.2 4.2 0 0 1-8.4 0 4.2 4.2 0 0 1 4.23-4.17zm-.1 6.64a2.5 2.5 0 1 0 .18-5 2.54 2.54 0 0 0-2.62 2.37 2.51 2.51 0 0 0 2.44 2.63zM261.86 201v5.79a1.15 1.15 0 0 0 .28.76 19.52 19.52 0 1 1-32.65 17.28 19 19 0 0 1 5.73-17.15 1.53 1.53 0 0 0 .39-1v-10.49a13.09 13.09 0 0 1 26.07-1.92 62.54 62.54 0 0 1 0 6.71zm2.23 12.13a17.64 17.64 0 1 0-16.69 26.26 17 17 0 0 0 11.49-3.16 17.2 17.2 0 0 0 5.26-5.81h-14.19c-.45 0-.48.29-.6.57a3.69 3.69 0 0 1-4.15 2.12 3.69 3.69 0 1 1 4.1-5.15.87.87 0 0 0 1 .62h13.73c1.29 0 1 .22 1.44-1a15.8 15.8 0 0 0 .94-4.81c-.25 0-.44-.05-.64-.05h-6.19a.75.75 0 0 0-.83.55 3.68 3.68 0 1 1 0-2.91.76.76 0 0 0 .84.54H266.37a15 15 0 0 0-1.33-5.84h-22c-.11.25-.2.48-.3.7a3.69 3.69 0 1 1-4-5.26 3.65 3.65 0 0 1 4.06 2.15.8.8 0 0 0 .89.58h20.4zm-4.09-7.46a4.36 4.36 0 0 0 0-.45v-9.34a11.06 11.06 0 0 0-1.94-6.19 11.25 11.25 0 0 0-20.58 5.89c-.09 3.27 0 6.55 0 9.82v.26c7.52-4.66 14.98-4.66 22.52.01zm-12.15 23.74a1.91 1.91 0 0 0-1.86-1.84 2 2 0 0 0-1.88 1.9 1.91 1.91 0 0 0 1.89 1.83 1.88 1.88 0 0 0 1.85-1.89zM241.3 214a1.89 1.89 0 0 0-1.88-1.87 1.86 1.86 0 0 0-1.82 1.87 1.83 1.83 0 0 0 1.8 1.86 1.87 1.87 0 0 0 1.9-1.86zm14.08 5.89a1.83 1.83 0 0 0-1.86 1.87 1.86 1.86 0 1 0 3.72-.06 1.85 1.85 0 0 0-1.86-1.82zM167.17 313.54h-2.6a21.18 21.18 0 0 1-2.18 7.17 3 3 0 0 1 .88 2.73 2.93 2.93 0 0 1-3.89 2.27.79.79 0 0 0-.95.23 19.06 19.06 0 0 1-4.58 3.3l-.34.14-.65-1.27.4-.24a18.55 18.55 0 0 0 4.22-3.09.69.69 0 0 0 .16-.56A3 3 0 0 1 161 320a16.33 16.33 0 0 0 2-6.4h-2.68l3.41-5.91.27.4q1.42 2.48 2.86 4.95a3.15 3.15 0 0 0 .31.41zm-5.32 9.35a1.52 1.52 0 0 0-1.54-1.49 1.55 1.55 0 0 0-1.49 1.5 1.59 1.59 0 0 0 1.53 1.53 1.56 1.56 0 0 0 1.5-1.54zM121.47 309.39h2.76a20.63 20.63 0 0 1 2.19-7.44 3 3 0 0 1 3.1-5 .56.56 0 0 0 .76-.13 19.79 19.79 0 0 1 4.61-3.37c.15-.08.31-.14.49-.22l.65 1.28c-.14.08-.25.16-.37.22a19.38 19.38 0 0 0-4.36 3.17.63.63 0 0 0-.2.77 3 3 0 0 1-2.92 4 .73.73 0 0 0-.54.25 17.84 17.84 0 0 0-1.85 6.1v.42h2.53l-3.42 5.93zm6.85-8.26a1.52 1.52 0 0 0 1.49-1.54 1.51 1.51 0 0 0-3 0 1.54 1.54 0 0 0 1.51 1.54zM146.05 288.36v2.74a20.18 20.18 0 0 1 16.49 11.14l-1.31.68a18.87 18.87 0 0 0-9.41-8.88 17.78 17.78 0 0 0-5.76-1.42v2.6l-5.95-3.43zM142.08 334.26v-2.34c0-.4-.14-.5-.51-.56-6.91-1.06-11.92-4.77-15.3-10.91l1.33-.69A18.9 18.9 0 0 0 142.07 330v-2.58l6 3.44zM55.84 247c-.93.52-1.87 1-2.8 1.56l-2.86 1.64v-2.57H38.75v-8.43h-2.34v5.06H25.22v2.58a2.88 2.88 0 0 1 2.11 2.89 2.86 2.86 0 0 1-5.61.72 2.81 2.81 0 0 1 1.54-3.39.68.68 0 0 0 .49-.77v-3.43h11.2v-3.68h-3.7v-8.56h-11.2v2.46l-5.73-3.3 5.7-3.29v2.63h11.19v-15.56h-3.76c-.13 0-.3.25-.38.42a2.92 2.92 0 0 1-2.86 1.61 2.88 2.88 0 0 1-.68-5.58 2.83 2.83 0 0 1 3.57 1.61.68.68 0 0 0 .76.51H32.67v16.94h2.27v-18.45h-2.53l3.31-5.75 3.28 5.71h-2.56v18.54h2.29v-11.7h4.96a.58.58 0 0 0 .66-.42 2.84 2.84 0 0 1 3.19-1.68 2.88 2.88 0 0 1 0 5.64 2.85 2.85 0 0 1-3.2-1.66.61.61 0 0 0-.69-.45h-3.33s-.06 0-.12.05v10.19h7.2a.59.59 0 0 0 .67-.41 2.83 2.83 0 0 1 3.18-1.68 2.9 2.9 0 0 1 2.32 2.82 2.88 2.88 0 0 1-5.52 1.18c-.08-.17-.29-.4-.44-.4h-7.38v7.1h6.05v-2.53l5.72 3.3-5.7 3.29v-2.56h-6.08v7h9.92v-2.6l5.7 3.28zm-17.13-9.26v-7.1h-2.26v7.1zm-3.77-7.1h-2.21v7.08h2.21zM47 216.7a1.47 1.47 0 0 0-1.43 1.46A1.46 1.46 0 1 0 47 216.7zm-22.53 34.4a1.46 1.46 0 0 0 0-2.91 1.46 1.46 0 1 0 0 2.91zM23 212.75a1.51 1.51 0 0 0 1.45 1.45 1.52 1.52 0 0 0 1.46-1.5 1.5 1.5 0 0 0-1.48-1.41 1.46 1.46 0 0 0-1.43 1.46zm27.67 18.57a1.46 1.46 0 1 0-1.43-1.44 1.44 1.44 0 0 0 1.45 1.44z"/><path class="cls-8" d="M156.68 131.18a2.7 2.7 0 0 1-1 .2 2.8 2.8 0 0 1-2.45-4.15 10.92 10.92 0 0 0-3.23-1.53v6.88h-1.37v-7.19a11.66 11.66 0 0 0-1.68-.13c-.43 0-.85 0-1.26.07v7.25h-1.37v-7a11 11 0 0 0-8.35 10h21.93a11 11 0 0 0-1.22-4.4zM146.62 140.84a4.43 4.43 0 0 0 4.4-3.9h-8.8a4.43 4.43 0 0 0 4.4 3.9z"/><path class="cls-8" d="M155.21 136.94h-2.81a5.8 5.8 0 0 1-11.56 0H138a6.41 6.41 0 0 0 .13 1l.07.39-1.44 1.19a10.06 10.06 0 0 0 .63 1.55l1.87-.17.23.33a8.64 8.64 0 0 0 2.24 2.23l.33.24-.18 1.89a9.72 9.72 0 0 0 1.52.63l1.21-1.47.39.08a8.4 8.4 0 0 0 3.16 0l.39-.08 1.22 1.47a10.13 10.13 0 0 0 1.52-.63l-.18-1.89.34-.24a8.79 8.79 0 0 0 2.24-2.23l.23-.34 1.87.17a11.13 11.13 0 0 0 .62-1.55l-1.4-1.17.07-.39a8.39 8.39 0 0 0 .13-1.01zM150.76 150.5h-7.21l3.41 6.06 3.8-6.06z"/><path class="cls-8" d="M152.77 150.5h-.43l-5.49 8.72-4.85-8.72h-.9a8.39 8.39 0 0 0-7.5 4.5l4.6 5.65H156l4.23-5.66a8.38 8.38 0 0 0-7.46-4.49zM136.32 150.33l-3.74-3.75.49-.48a2.47 2.47 0 0 0 0-3.47l-.91-.91a1.8 1.8 0 0 0-1.82-.42l.65.66a2.37 2.37 0 0 1 0 3.34l-1.46 1.47a2.38 2.38 0 0 1-3.35 0l-.66-.65a1.81 1.81 0 0 0 .42 1.82l.91.9a2.44 2.44 0 0 0 3.48 0l.48-.48 3.46 3.45a9.39 9.39 0 0 1 2.05-1.48z"/><path class="cls-6" d="M136.61 137.14c0 .21 0 .41.07.62l-1.47 1.24.12.42a11.85 11.85 0 0 0 1.08 2.67l.23.39 2-.17a9.62 9.62 0 0 0 2 2l-.18 2 .38.22a10.76 10.76 0 0 0 2.64 1.1l.43.12 1.29-1.55a9.14 9.14 0 0 0 2.86 0l1.27 1.55.43-.1a10.92 10.92 0 0 0 2.64-1.1l.38-.22-.18-2a9.62 9.62 0 0 0 2-2l2 .18.22-.4a11.35 11.35 0 0 0 1.09-2.67l.09-.44-1.51-1.26c0-.2.05-.41.07-.62v-.22h2.68v-.69a12.28 12.28 0 0 0-1.49-5.88 2.81 2.81 0 0 0-2.16-4.59 2.77 2.77 0 0 0-1.5.44 12.36 12.36 0 0 0-19.6 10v.69h2.06zm19.8 2.35a11.13 11.13 0 0 1-.62 1.55l-1.87-.17-.23.34a8.79 8.79 0 0 1-2.24 2.23l-.34.24.18 1.89a10.13 10.13 0 0 1-1.52.63l-1.22-1.47-.39.08a8.4 8.4 0 0 1-3.16 0l-.39-.08-1.21 1.47a9.72 9.72 0 0 1-1.52-.63l.18-1.89-.33-.24a8.64 8.64 0 0 1-2.24-2.23l-.23-.33-1.87.17a10.06 10.06 0 0 1-.63-1.55l1.44-1.19-.07-.39a6.41 6.41 0 0 1-.13-1h2.84a5.8 5.8 0 0 0 11.56 0h2.81a8.39 8.39 0 0 1-.13 1l-.07.39zm-14.19-2.55H151a4.43 4.43 0 0 1-8.8 0zm14.86-8.36a1.43 1.43 0 1 1-2.85 0 1.43 1.43 0 0 1 1.42-1.43 1.44 1.44 0 0 1 1.43 1.43zm-12.77-3v7h1.37v-7.25c.41 0 .83-.07 1.26-.07a11.66 11.66 0 0 1 1.68.13v7.19H150v-6.88a10.92 10.92 0 0 1 3.21 1.53 2.8 2.8 0 0 0 2.45 4.15 2.7 2.7 0 0 0 1-.2 11 11 0 0 1 1.22 4.38H136a11 11 0 0 1 8.31-9.98z"/><path class="cls-6" d="M162.48 163.09v-4.65a9.52 9.52 0 0 0-9.71-9.31h-11.69a10.2 10.2 0 0 0-3.42.59l-3.18-3.18a3.86 3.86 0 0 0 .68-2.18 3.76 3.76 0 0 0-1.12-2.7l-.91-.91a3.14 3.14 0 0 0-3.63-.59l-1.48.75 2 2a1 1 0 0 1 0 1.4l-1.47 1.47a1 1 0 0 1-1.4 0l-2-2-.75 1.49a3.15 3.15 0 0 0 .59 3.63l.91.91a3.84 3.84 0 0 0 4.89.44l2.57 2.57a9.05 9.05 0 0 0-2 5.62v4.65a2.8 2.8 0 1 0 1.38 0v-4.65a7.46 7.46 0 0 1 .27-2l4.17 5.11v3.1h1.37V162h16.93v2.65h1.38v-2.87l4-5.32a7.78 7.78 0 0 1 .26 2v4.65a2.8 2.8 0 1 0 1.38 0zm-.69 4.14a1.43 1.43 0 1 1 1.43-1.43 1.44 1.44 0 0 1-1.43 1.43zm-11-16.73l-3.8 6.06-3.41-6.06zm-20.43-1.66a2.44 2.44 0 0 1-3.48 0l-.91-.9a1.81 1.81 0 0 1-.42-1.82l.66.65a2.38 2.38 0 0 0 3.35 0l1.44-1.47a2.37 2.37 0 0 0 0-3.34l-.65-.66a1.8 1.8 0 0 1 1.82.42l.91.91a2.47 2.47 0 0 1 0 3.47l-.49.48 3.74 3.75a9.39 9.39 0 0 0-2 1.48l-3.46-3.45zm3.16 17a1.43 1.43 0 1 1-1.43-1.43 1.44 1.44 0 0 1 1.4 1.39zM156 160.6h-17.8l-4.6-5.6a8.39 8.39 0 0 1 7.48-4.45h.9l4.91 8.74 5.49-8.72h.43a8.38 8.38 0 0 1 7.48 4.44z"/></svg>