<svg id="Layer_1" data-name="Layer 1" xmlns="http://www.w3.org/2000/svg" viewBox="0 0 699.23 582.97"><defs><style>.cls-1{fill:#fbc2ba;}.cls-2{fill:#fcddd6;}.cls-3{fill:#4c0519;}.cls-4{fill:none;stroke:#4c0519;stroke-miterlimit:10;stroke-width:3px;}</style></defs><title>sales-and-marketing</title><rect class="cls-1" width="699.24" height="190"/><rect class="cls-2" y="196.78" width="699.24" height="190"/><rect class="cls-1" y="392.78" width="699.24" height="190"/><path class="cls-3" d="M117.87,134a14.37,14.37,0,0,1-5.89,1c-7.24,0-11.64-4.54-11.64-11.47,0-7.52,5.21-12,12.18-12a13.16,13.16,0,0,1,5.56,1l-.92,3.32a11.13,11.13,0,0,0-4.47-.88c-4.63,0-8,2.91-8,8.39,0,5,2.94,8.23,8,8.23a11.58,11.58,0,0,0,4.53-.85Z"/><path class="cls-3" d="M135.47,129.77c0,2,.07,3.59.14,4.94H132l-.21-2.5h-.07a6,6,0,0,1-5.27,2.87c-3,0-5.76-1.79-5.76-7.17v-9.68h4.16v9c0,2.74.88,4.5,3.08,4.5a3.53,3.53,0,0,0,3.19-2.23,4,4,0,0,0,.23-1.29v-10h4.16Z"/><path class="cls-3" d="M139.78,130.89a9.32,9.32,0,0,0,4.23,1.18c1.82,0,2.64-.74,2.64-1.83s-.68-1.69-2.71-2.4c-3.22-1.12-4.57-2.88-4.54-4.81,0-2.91,2.41-5.17,6.23-5.17a9.67,9.67,0,0,1,4.37,1l-.81,2.94a7.55,7.55,0,0,0-3.49-.94c-1.49,0-2.3.71-2.3,1.72s.78,1.56,2.87,2.3c3,1.09,4.37,2.61,4.4,5,0,3-2.33,5.14-6.7,5.14a10.63,10.63,0,0,1-5-1.15Z"/><path class="cls-3" d="M158.87,113.52v4.71h4v3.11h-4v7.28c0,2,.54,3,2.13,3a6.12,6.12,0,0,0,1.62-.21l.07,3.18a9,9,0,0,1-3,.41,4.86,4.86,0,0,1-3.59-1.35c-.88-.95-1.28-2.44-1.28-4.61v-7.75h-2.37v-3.11h2.37v-3.72Z"/><path class="cls-3" d="M181.44,126.32c0,6.06-4.26,8.76-8.46,8.76-4.67,0-8.26-3.21-8.26-8.49s3.56-8.73,8.53-8.73S181.44,121.31,181.44,126.32Zm-12.42.17c0,3.18,1.56,5.58,4.1,5.58,2.37,0,4-2.33,4-5.65,0-2.57-1.15-5.52-4-5.52S169,123.75,169,126.49Z"/><path class="cls-3" d="M184.87,123.14c0-1.9,0-3.49-.14-4.91h3.59l.17,2.44h.1a5.69,5.69,0,0,1,5.08-2.81,4.77,4.77,0,0,1,4.57,3h.06a6.25,6.25,0,0,1,2-2.06,5.56,5.56,0,0,1,3.32-1c2.74,0,5.52,1.86,5.52,7.14v9.71h-4.06v-9.1c0-2.74-1-4.37-3-4.37a3.18,3.18,0,0,0-2.91,2.2,6,6,0,0,0-.2,1.39v9.88H195v-9.54c0-2.3-.92-3.93-2.85-3.93a3.27,3.27,0,0,0-3,2.37,3.76,3.76,0,0,0-.23,1.35v9.75h-4.06Z"/><path class="cls-3" d="M216.52,127.64c.1,3,2.43,4.26,5.07,4.26a12.47,12.47,0,0,0,4.57-.74l.61,2.87a15.39,15.39,0,0,1-5.75,1c-5.35,0-8.5-3.28-8.5-8.33,0-4.56,2.78-8.86,8.06-8.86s7.1,4.4,7.1,8a10.09,10.09,0,0,1-.13,1.76Zm7.24-2.91c0-1.53-.64-4-3.42-4-2.57,0-3.65,2.33-3.82,4Z"/><path class="cls-3" d="M231,123.54c0-2.23,0-3.82-.14-5.31h3.62l.14,3.15h.13a4.93,4.93,0,0,1,4.51-3.52,4.28,4.28,0,0,1,1,.1v3.92a6.41,6.41,0,0,0-1.22-.13,3.66,3.66,0,0,0-3.72,3.15,6.86,6.86,0,0,0-.14,1.28v8.53H231Z"/><path class="cls-3" d="M81.4,161.49c.1,3,2.44,4.26,5.08,4.26a12.51,12.51,0,0,0,4.57-.74l.61,2.88a15.71,15.71,0,0,1-5.76,1c-5.35,0-8.49-3.28-8.49-8.32,0-4.57,2.77-8.87,8-8.87s7.11,4.4,7.11,8a9.88,9.88,0,0,1-.14,1.76Zm7.24-2.91c0-1.52-.64-4-3.41-4-2.58,0-3.66,2.34-3.83,4Z"/><path class="cls-3" d="M95.92,157c0-1.9,0-3.49-.13-4.91h3.65l.21,2.47h.1a5.92,5.92,0,0,1,5.24-2.84c2.88,0,5.86,1.86,5.86,7.07v9.78h-4.16v-9.3c0-2.37-.88-4.17-3.15-4.17a3.5,3.5,0,0,0-3.25,2.44,4.1,4.1,0,0,0-.17,1.35v9.68h-4.2Z"/><path class="cls-3" d="M130.35,152.08c-.07,1.12-.14,2.47-.14,4.74v9.34c0,3.45-.71,5.92-2.44,7.48a9.48,9.48,0,0,1-6.36,2,11.64,11.64,0,0,1-5.75-1.32l.91-3.15a10,10,0,0,0,4.81,1.25c2.7,0,4.74-1.42,4.74-5V166h-.07a5.56,5.56,0,0,1-4.81,2.44c-4.09,0-7-3.38-7-8.05,0-5.42,3.52-8.7,7.48-8.7a5.2,5.2,0,0,1,4.77,2.57h.07l.16-2.2Zm-4.3,6.6a4.14,4.14,0,0,0-.14-1.12,3.45,3.45,0,0,0-3.38-2.67c-2.34,0-4.06,2-4.06,5.38,0,2.81,1.42,5.08,4,5.08a3.56,3.56,0,0,0,3.39-2.51,7.23,7.23,0,0,0,.17-1.49Z"/><path class="cls-3" d="M144,168.56l-.27-1.83h-.11a6.1,6.1,0,0,1-4.87,2.2,4.89,4.89,0,0,1-5.18-4.9c0-4.17,3.69-6.26,9.78-6.23v-.27c0-1.08-.44-2.88-3.35-2.88a8.75,8.75,0,0,0-4.43,1.22l-.81-2.71a11.92,11.92,0,0,1,5.95-1.45c5.28,0,6.81,3.35,6.81,6.94v5.95a26.38,26.38,0,0,0,.23,4Zm-.55-8.05c-2.94-.07-5.75.57-5.75,3.08A2.19,2.19,0,0,0,140,166a3.38,3.38,0,0,0,3.25-2.27,3,3,0,0,0,.13-.91Z"/><path class="cls-3" d="M166.94,152.08c-.07,1.12-.14,2.47-.14,4.74v9.34c0,3.45-.71,5.92-2.43,7.48a9.52,9.52,0,0,1-6.37,2,11.67,11.67,0,0,1-5.75-1.32l.91-3.15a10,10,0,0,0,4.81,1.25c2.71,0,4.74-1.42,4.74-5V166h-.07a5.56,5.56,0,0,1-4.8,2.44c-4.1,0-7-3.38-7-8.05,0-5.42,3.52-8.7,7.48-8.7a5.2,5.2,0,0,1,4.77,2.57h.07l.17-2.2Zm-4.3,6.6a4.14,4.14,0,0,0-.13-1.12,3.46,3.46,0,0,0-3.39-2.67c-2.33,0-4.06,2-4.06,5.38,0,2.81,1.42,5.08,4,5.08a3.56,3.56,0,0,0,3.38-2.51,7.23,7.23,0,0,0,.17-1.49Z"/><path class="cls-3" d="M174.22,161.49c.1,3,2.44,4.26,5.08,4.26a12.51,12.51,0,0,0,4.57-.74l.6,2.88a15.61,15.61,0,0,1-5.75,1c-5.35,0-8.49-3.28-8.49-8.32,0-4.57,2.77-8.87,8.05-8.87s7.11,4.4,7.11,8a9.88,9.88,0,0,1-.14,1.76Zm7.24-2.91c0-1.52-.64-4-3.42-4-2.57,0-3.65,2.34-3.82,4Z"/><path class="cls-3" d="M188.74,157c0-1.9,0-3.49-.13-4.91h3.58l.17,2.44h.11a5.69,5.69,0,0,1,5.07-2.81,4.75,4.75,0,0,1,4.57,3h.07a6.16,6.16,0,0,1,2-2.06,5.51,5.51,0,0,1,3.32-1c2.74,0,5.51,1.86,5.51,7.14v9.71H209v-9.1c0-2.74-.95-4.37-2.94-4.37a3.18,3.18,0,0,0-2.91,2.2,5.61,5.61,0,0,0-.21,1.39v9.88h-4.06V159c0-2.3-.91-3.93-2.84-3.93a3.25,3.25,0,0,0-3,2.37,3.57,3.57,0,0,0-.24,1.36v9.74h-4.06Z"/><path class="cls-3" d="M220.39,161.49c.1,3,2.44,4.26,5.08,4.26A12.47,12.47,0,0,0,230,165l.61,2.88a15.67,15.67,0,0,1-5.76,1c-5.34,0-8.49-3.28-8.49-8.32,0-4.57,2.77-8.87,8-8.87s7.11,4.4,7.11,8a11.21,11.21,0,0,1-.13,1.76Zm7.25-2.91c0-1.52-.65-4-3.42-4-2.57,0-3.66,2.34-3.83,4Z"/><path class="cls-3" d="M234.91,157c0-1.9,0-3.49-.13-4.91h3.66l.2,2.47h.1a5.93,5.93,0,0,1,5.25-2.84c2.87,0,5.85,1.86,5.85,7.07v9.78h-4.16v-9.3c0-2.37-.88-4.17-3.15-4.17a3.5,3.5,0,0,0-3.25,2.44,4.38,4.38,0,0,0-.17,1.35v9.68h-4.2Z"/><path class="cls-3" d="M258.88,147.38v4.7h4v3.11h-4v7.28c0,2,.54,3.05,2.13,3.05a6.27,6.27,0,0,0,1.63-.21l.07,3.18a9.1,9.1,0,0,1-3,.41,4.81,4.81,0,0,1-3.58-1.35c-.88-1-1.29-2.44-1.29-4.61v-7.75h-2.37v-3.11h2.37v-3.72Z"/><path class="cls-3" d="M357.39,31.73h2.21V47h7.31v1.85h-9.52Z"/><path class="cls-3" d="M380.07,42.59c0,4.55-3.15,6.53-6.12,6.53-3.33,0-5.89-2.44-5.89-6.32,0-4.12,2.69-6.53,6.09-6.53S380.07,38.84,380.07,42.59Zm-9.75.13c0,2.69,1.55,4.72,3.73,4.72s3.73-2,3.73-4.77c0-2.08-1-4.72-3.68-4.72S370.32,40.39,370.32,42.72Z"/><path class="cls-3" d="M383.52,36.55l2.69,7.26c.28.82.58,1.78.79,2.52h.05c.23-.74.48-1.68.79-2.57l2.43-7.21h2.36l-3.35,8.76c-1.6,4.22-2.69,6.37-4.21,7.69a6,6,0,0,1-2.74,1.45l-.56-1.88a5.88,5.88,0,0,0,2-1.09A6.72,6.72,0,0,0,385.6,49a1.63,1.63,0,0,0,.18-.53,1.87,1.87,0,0,0-.15-.58l-4.55-11.33Z"/><path class="cls-3" d="M401.37,48.84l-.18-1.55h-.08a4.54,4.54,0,0,1-3.75,1.83,3.5,3.5,0,0,1-3.76-3.53c0-3,2.64-4.6,7.39-4.57v-.25a2.54,2.54,0,0,0-2.8-2.85,6.08,6.08,0,0,0-3.19.92l-.51-1.48a7.61,7.61,0,0,1,4-1.09c3.76,0,4.68,2.57,4.68,5v4.59a17.62,17.62,0,0,0,.2,3ZM401,42.57c-2.44,0-5.21.38-5.21,2.77a2,2,0,0,0,2.11,2.13,3.05,3.05,0,0,0,3-2.06,2.22,2.22,0,0,0,.13-.71Z"/><path class="cls-3" d="M406.8,30.81H409v18H406.8Z"/><path class="cls-3" d="M415.48,33v3.53h3.2v1.7h-3.2v6.63c0,1.52.43,2.39,1.68,2.39a4.73,4.73,0,0,0,1.29-.16l.11,1.68a5.48,5.48,0,0,1-2,.3,3.11,3.11,0,0,1-2.42-.94A4.56,4.56,0,0,1,413.3,45V38.25h-1.9v-1.7h1.9V33.61Z"/><path class="cls-3" d="M422.24,36.55l2.69,7.26c.28.82.58,1.78.78,2.52h.05c.23-.74.49-1.68.79-2.57L429,36.55h2.36L428,45.31c-1.6,4.22-2.69,6.37-4.22,7.69A6,6,0,0,1,421,54.45l-.56-1.88a5.92,5.92,0,0,0,2-1.09A6.72,6.72,0,0,0,424.32,49a1.63,1.63,0,0,0,.18-.53,2,2,0,0,0-.16-.58L419.8,36.55Z"/><path class="cls-3" d="M438.76,40.56c0-1.57-.05-2.84-.1-4h2l.1,2.11h.05a4.83,4.83,0,0,1,4.37-2.39c3,0,5.2,2.52,5.2,6.25,0,4.42-2.69,6.6-5.58,6.6A4.32,4.32,0,0,1,441,47.19h0v6.68h-2.21ZM441,43.84a5.07,5.07,0,0,0,.1.91,3.46,3.46,0,0,0,3.35,2.62c2.37,0,3.74-1.93,3.74-4.75,0-2.46-1.3-4.57-3.66-4.57a3.58,3.58,0,0,0-3.38,2.77,3.93,3.93,0,0,0-.15.91Z"/><path class="cls-3" d="M453.21,40.39c0-1.45,0-2.7-.1-3.84h1.95l.08,2.41h.1a3.68,3.68,0,0,1,3.4-2.69,2.49,2.49,0,0,1,.64.08v2.11a2.94,2.94,0,0,0-.77-.08,3.13,3.13,0,0,0-3,2.87,6.33,6.33,0,0,0-.1,1v6.55h-2.21Z"/><path class="cls-3" d="M472.38,42.59c0,4.55-3.15,6.53-6.12,6.53-3.33,0-5.89-2.44-5.89-6.32,0-4.12,2.69-6.53,6.09-6.53S472.38,38.84,472.38,42.59Zm-9.75.13c0,2.69,1.55,4.72,3.73,4.72s3.73-2,3.73-4.77c0-2.08-1-4.72-3.68-4.72S462.63,40.39,462.63,42.72Z"/><path class="cls-3" d="M485.78,36.55c0,.89-.1,1.88-.1,3.38v7.13c0,2.82-.56,4.55-1.75,5.61a6.5,6.5,0,0,1-4.47,1.48,8,8,0,0,1-4.09-1l.56-1.7a6.9,6.9,0,0,0,3.61,1c2.28,0,4-1.19,4-4.29V46.73h-.05a4.38,4.38,0,0,1-3.91,2.06c-3.05,0-5.23-2.59-5.23-6,0-4.17,2.71-6.53,5.53-6.53a4.09,4.09,0,0,1,3.83,2.13h.06l.1-1.85Zm-2.31,4.85a2.91,2.91,0,0,0-.13-1A3.21,3.21,0,0,0,480.22,38c-2.13,0-3.65,1.81-3.65,4.65,0,2.41,1.21,4.42,3.63,4.42a3.26,3.26,0,0,0,3.09-2.29,3.78,3.78,0,0,0,.18-1.19Z"/><path class="cls-3" d="M489.23,40.39c0-1.45,0-2.7-.1-3.84h2l.07,2.41h.11a3.67,3.67,0,0,1,3.4-2.69,2.41,2.41,0,0,1,.63.08v2.11a2.86,2.86,0,0,0-.76-.08,3.14,3.14,0,0,0-3,2.87,6.33,6.33,0,0,0-.1,1v6.55h-2.21Z"/><path class="cls-3" d="M504.21,48.84,504,47.29H504a4.58,4.58,0,0,1-3.76,1.83,3.5,3.5,0,0,1-3.76-3.53c0-3,2.64-4.6,7.39-4.57v-.25A2.54,2.54,0,0,0,501,37.92a6.11,6.11,0,0,0-3.2.92l-.51-1.48a7.65,7.65,0,0,1,4-1.09c3.76,0,4.67,2.57,4.67,5v4.59a16.55,16.55,0,0,0,.21,3Zm-.33-6.27c-2.43,0-5.2.38-5.2,2.77a2,2,0,0,0,2.11,2.13,3.06,3.06,0,0,0,3-2.06,2.52,2.52,0,0,0,.12-.71Z"/><path class="cls-3" d="M509.65,39.88c0-1.27,0-2.31-.11-3.33h2l.1,2h.08a4.23,4.23,0,0,1,3.86-2.26A3.65,3.65,0,0,1,519,38.73h.05a5,5,0,0,1,1.37-1.59,4.17,4.17,0,0,1,2.71-.87c1.63,0,4,1.07,4,5.33v7.24H525v-7c0-2.36-.87-3.78-2.67-3.78a2.89,2.89,0,0,0-2.64,2,3.75,3.75,0,0,0-.18,1.12v7.59h-2.18V41.48c0-2-.86-3.38-2.56-3.38a3.33,3.33,0,0,0-2.95,3.33v7.41h-2.18Z"/><path class="cls-3" d="M530.52,46.56a5.84,5.84,0,0,0,2.94.88c1.63,0,2.39-.81,2.39-1.82s-.64-1.65-2.29-2.26c-2.21-.79-3.25-2-3.25-3.48,0-2,1.6-3.61,4.24-3.61a6.16,6.16,0,0,1,3,.76L537,38.66A4.79,4.79,0,0,0,534.5,38c-1.32,0-2,.76-2,1.67s.73,1.48,2.33,2.09c2.13.81,3.23,1.87,3.23,3.7,0,2.16-1.68,3.68-4.6,3.68a7.06,7.06,0,0,1-3.45-.83Z"/><path class="cls-3" d="M357.39,87a22.9,22.9,0,0,1,4.24-.36c2.37,0,3.89.43,4.95,1.4a4.24,4.24,0,0,1,1.35,3.25,4.48,4.48,0,0,1-3.22,4.36v.08c1.32.46,2.1,1.68,2.51,3.45a26.91,26.91,0,0,0,1.32,4.7h-2.29a22.63,22.63,0,0,1-1.14-4.09c-.51-2.36-1.42-3.25-3.43-3.32H359.6v7.41h-2.21Zm2.21,7.79h2.26c2.36,0,3.86-1.29,3.86-3.25,0-2.21-1.6-3.17-3.93-3.2a9.3,9.3,0,0,0-2.19.2Z"/><path class="cls-3" d="M372.32,98.1c.05,3,2,4.27,4.22,4.27a8,8,0,0,0,3.4-.64l.38,1.6a9.89,9.89,0,0,1-4.09.76c-3.78,0-6-2.48-6-6.19s2.18-6.63,5.76-6.63c4,0,5.08,3.53,5.08,5.79a10,10,0,0,1-.07,1Zm6.55-1.6c0-1.42-.58-3.63-3.09-3.63-2.26,0-3.25,2.08-3.43,3.63Z"/><path class="cls-3" d="M392.18,101.94h-.05a4.4,4.4,0,0,1-4,2.18c-2.86,0-5.2-2.49-5.2-6.22,0-4.6,3-6.63,5.56-6.63a4,4,0,0,1,3.78,2.13h.05l.08-1.85h2.11c-.05,1-.08,2.11-.08,3.38v13.94h-2.23Zm0-5.41a4.11,4.11,0,0,0-.1-.94,3.27,3.27,0,0,0-3.2-2.54c-2.31,0-3.71,2-3.71,4.72,0,2.44,1.17,4.57,3.63,4.57A3.33,3.33,0,0,0,392,99.9a3.74,3.74,0,0,0,.18-1.06Z"/><path class="cls-3" d="M408.37,100.49c0,1.27,0,2.39.11,3.35h-2l-.13-2h-.05a4.64,4.64,0,0,1-4.07,2.29c-1.92,0-4.24-1.07-4.24-5.38V91.55h2.24v6.81c0,2.33.71,3.91,2.74,3.91a3.25,3.25,0,0,0,2.95-2,3.4,3.4,0,0,0,.2-1.14V91.55h2.23Z"/><path class="cls-3" d="M414.57,88.1a1.39,1.39,0,0,1-2.77,0,1.36,1.36,0,0,1,1.4-1.4A1.33,1.33,0,0,1,414.57,88.1Zm-2.49,15.74V91.55h2.23v12.29Z"/><path class="cls-3" d="M418,95.39c0-1.45,0-2.7-.1-3.84h1.95L420,94h.1a3.69,3.69,0,0,1,3.4-2.69,2.43,2.43,0,0,1,.64.08v2.11a2.91,2.91,0,0,0-.76-.08,3.13,3.13,0,0,0-3,2.87,6.33,6.33,0,0,0-.1,1v6.55H418Z"/><path class="cls-3" d="M427.31,98.1c.05,3,2,4.27,4.22,4.27a8,8,0,0,0,3.4-.64l.38,1.6a9.89,9.89,0,0,1-4.09.76c-3.78,0-6-2.48-6-6.19s2.18-6.63,5.76-6.63c4,0,5.08,3.53,5.08,5.79a10,10,0,0,1-.07,1Zm6.55-1.6c0-1.42-.58-3.63-3.09-3.63-2.26,0-3.25,2.08-3.43,3.63Z"/><path class="cls-3" d="M438.79,94.88c0-1.27,0-2.31-.1-3.33h1.95l.1,2h.08a4.23,4.23,0,0,1,3.86-2.26,3.65,3.65,0,0,1,3.48,2.46h0a5,5,0,0,1,1.37-1.59,4.2,4.2,0,0,1,2.72-.87c1.62,0,4,1.07,4,5.33v7.24h-2.18v-7c0-2.36-.86-3.78-2.67-3.78a2.89,2.89,0,0,0-2.64,2,3.75,3.75,0,0,0-.18,1.12v7.59h-2.18V96.48c0-2-.86-3.38-2.56-3.38A3.33,3.33,0,0,0,441,96.43v7.41h-2.18Z"/><path class="cls-3" d="M461.21,98.1c.05,3,2,4.27,4.21,4.27a8,8,0,0,0,3.4-.64l.38,1.6a9.83,9.83,0,0,1-4.08.76c-3.79,0-6.05-2.48-6.05-6.19s2.19-6.63,5.77-6.63c4,0,5.07,3.53,5.07,5.79a10,10,0,0,1-.07,1Zm6.55-1.6c0-1.42-.59-3.63-3.1-3.63-2.26,0-3.25,2.08-3.43,3.63Z"/><path class="cls-3" d="M472.68,94.88c0-1.27,0-2.31-.1-3.33h2l.13,2h.05a4.51,4.51,0,0,1,4.06-2.31c1.7,0,4.34,1,4.34,5.23v7.34h-2.23V96.76c0-2-.74-3.63-2.85-3.63a3.17,3.17,0,0,0-3,2.28,3.26,3.26,0,0,0-.15,1v7.39h-2.24Z"/><path class="cls-3" d="M489.36,88v3.53h3.2v1.7h-3.2v6.63c0,1.52.43,2.39,1.68,2.39a4.73,4.73,0,0,0,1.29-.16l.1,1.68a5.4,5.4,0,0,1-2,.3,3.1,3.1,0,0,1-2.41-.94,4.56,4.56,0,0,1-.86-3.19V93.25h-1.91v-1.7h1.91V88.61Z"/><path class="cls-3" d="M494.77,101.56a5.87,5.87,0,0,0,2.94.88c1.63,0,2.39-.81,2.39-1.82s-.63-1.65-2.28-2.26c-2.21-.79-3.25-2-3.25-3.48,0-2,1.6-3.61,4.24-3.61a6.22,6.22,0,0,1,3,.76l-.56,1.63a4.72,4.72,0,0,0-2.51-.71c-1.32,0-2.06.76-2.06,1.67s.74,1.48,2.34,2.09c2.13.81,3.22,1.87,3.22,3.7,0,2.16-1.68,3.68-4.6,3.68a7.09,7.09,0,0,1-3.45-.83Z"/><path class="cls-3" d="M521.1,91.55c-.05.89-.1,1.88-.1,3.38v7.13c0,2.82-.56,4.55-1.76,5.61a6.49,6.49,0,0,1-4.46,1.48,7.92,7.92,0,0,1-4.09-1l.56-1.7a6.89,6.89,0,0,0,3.6,1c2.29,0,4-1.19,4-4.29v-1.37h0a4.36,4.36,0,0,1-3.91,2.06c-3.05,0-5.23-2.59-5.23-6,0-4.17,2.72-6.53,5.54-6.53A4.09,4.09,0,0,1,519,93.4h0l.1-1.85Zm-2.31,4.85a3.17,3.17,0,0,0-.13-1A3.22,3.22,0,0,0,515.54,93c-2.14,0-3.66,1.81-3.66,4.65,0,2.41,1.22,4.42,3.63,4.42a3.27,3.27,0,0,0,3.1-2.29,3.78,3.78,0,0,0,.18-1.19Z"/><path class="cls-3" d="M531.51,103.84l-.18-1.55h-.08a4.54,4.54,0,0,1-3.75,1.83,3.5,3.5,0,0,1-3.76-3.53c0-3,2.64-4.6,7.39-4.57v-.25a2.54,2.54,0,0,0-2.8-2.85,6.14,6.14,0,0,0-3.2.92l-.5-1.48a7.58,7.58,0,0,1,4-1.09c3.76,0,4.67,2.57,4.67,5v4.59a17.55,17.55,0,0,0,.21,3Zm-.33-6.27c-2.44,0-5.21.38-5.21,2.77a2,2,0,0,0,2.11,2.13,3.06,3.06,0,0,0,3-2.06,2.22,2.22,0,0,0,.13-.71Z"/><path class="cls-3" d="M539.53,88v3.53h3.2v1.7h-3.2v6.63c0,1.52.43,2.39,1.68,2.39a4.73,4.73,0,0,0,1.29-.16l.1,1.68a5.44,5.44,0,0,1-2,.3,3.09,3.09,0,0,1-2.41-.94,4.51,4.51,0,0,1-.86-3.19V93.25h-1.91v-1.7h1.91V88.61Z"/><path class="cls-3" d="M545.24,85.81h2.24v7.67h0a4.1,4.1,0,0,1,1.6-1.57,4.59,4.59,0,0,1,2.28-.64c1.65,0,4.29,1,4.29,5.26v7.31h-2.23V96.78c0-2-.74-3.65-2.85-3.65a3.2,3.2,0,0,0-3,2.23,2.64,2.64,0,0,0-.15,1.07v7.41h-2.24Z"/><path class="cls-3" d="M560.58,98.1c0,3,2,4.27,4.21,4.27a8,8,0,0,0,3.4-.64l.38,1.6a9.83,9.83,0,0,1-4.08.76c-3.79,0-6-2.48-6-6.19s2.19-6.63,5.77-6.63c4,0,5.08,3.53,5.08,5.79a9.4,9.4,0,0,1-.08,1Zm6.55-1.6c0-1.42-.59-3.63-3.1-3.63-2.26,0-3.25,2.08-3.43,3.63Z"/><path class="cls-3" d="M572.05,95.39c0-1.45,0-2.7-.1-3.84h2L574,94h.1a3.69,3.69,0,0,1,3.41-2.69,2.41,2.41,0,0,1,.63.08v2.11a2.91,2.91,0,0,0-.76-.08,3.13,3.13,0,0,0-3,2.87,6.33,6.33,0,0,0-.1,1v6.55h-2.21Z"/><path class="cls-3" d="M582.94,88.1a1.38,1.38,0,0,1-2.76,0,1.36,1.36,0,0,1,1.39-1.4A1.33,1.33,0,0,1,582.94,88.1Zm-2.48,15.74V91.55h2.23v12.29Z"/><path class="cls-3" d="M586.4,94.88c0-1.27,0-2.31-.11-3.33h2l.13,2h.05a4.51,4.51,0,0,1,4.06-2.31c1.71,0,4.35,1,4.35,5.23v7.34h-2.24V96.76c0-2-.73-3.63-2.84-3.63a3.18,3.18,0,0,0-3,2.28,3.26,3.26,0,0,0-.15,1v7.39H586.4Z"/><path class="cls-3" d="M611.07,91.55c-.05.89-.1,1.88-.1,3.38v7.13c0,2.82-.56,4.55-1.75,5.61a6.5,6.5,0,0,1-4.47,1.48,8,8,0,0,1-4.09-1l.56-1.7a6.93,6.93,0,0,0,3.61,1c2.28,0,4-1.19,4-4.29v-1.37h0a4.38,4.38,0,0,1-3.91,2.06c-3.05,0-5.23-2.59-5.23-6,0-4.17,2.71-6.53,5.53-6.53A4.11,4.11,0,0,1,609,93.4h0l.1-1.85Zm-2.31,4.85a3.18,3.18,0,0,0-.12-1A3.23,3.23,0,0,0,605.51,93c-2.13,0-3.65,1.81-3.65,4.65,0,2.41,1.22,4.42,3.63,4.42a3.28,3.28,0,0,0,3.1-2.29,4.08,4.08,0,0,0,.17-1.19Z"/><path class="cls-3" d="M357.09,156.15a7.83,7.83,0,0,0,4,1.12c2.26,0,3.58-1.2,3.58-2.92s-.91-2.52-3.22-3.41c-2.8-1-4.52-2.43-4.52-4.85,0-2.66,2.2-4.64,5.53-4.64a7.66,7.66,0,0,1,3.78.84l-.61,1.8a6.72,6.72,0,0,0-3.25-.81c-2.33,0-3.22,1.39-3.22,2.56,0,1.6,1,2.39,3.4,3.3,2.9,1.12,4.37,2.51,4.37,5s-2,4.92-6,4.92a8.84,8.84,0,0,1-4.37-1.09Z"/><path class="cls-3" d="M381.11,152.59c0,4.55-3.15,6.53-6.12,6.53-3.33,0-5.89-2.44-5.89-6.32,0-4.12,2.69-6.53,6.09-6.53S381.11,148.84,381.11,152.59Zm-9.75.13c0,2.69,1.55,4.72,3.73,4.72s3.73-2,3.73-4.77c0-2.08-1-4.72-3.68-4.72S371.36,150.39,371.36,152.72Z"/><path class="cls-3" d="M392.68,158.38a8.09,8.09,0,0,1-3.52.71c-3.71,0-6.12-2.51-6.12-6.27a6.24,6.24,0,0,1,6.6-6.52,7.57,7.57,0,0,1,3.1.63l-.51,1.73a5.13,5.13,0,0,0-2.59-.59c-2.82,0-4.34,2.09-4.34,4.65,0,2.84,1.82,4.6,4.26,4.6a6.31,6.31,0,0,0,2.74-.61Z"/><path class="cls-3" d="M397.79,143.1a1.39,1.39,0,0,1-2.77,0,1.36,1.36,0,0,1,1.4-1.4A1.33,1.33,0,0,1,397.79,143.1Zm-2.49,15.74V146.55h2.23v12.29Z"/><path class="cls-3" d="M408,158.84l-.17-1.55h-.08a4.58,4.58,0,0,1-3.76,1.83,3.5,3.5,0,0,1-3.76-3.53c0-3,2.64-4.6,7.39-4.57v-.25a2.54,2.54,0,0,0-2.79-2.85,6.11,6.11,0,0,0-3.2.92l-.51-1.48a7.65,7.65,0,0,1,4-1.09c3.76,0,4.67,2.57,4.67,5v4.59a16.55,16.55,0,0,0,.21,3Zm-.33-6.27c-2.43,0-5.2.38-5.2,2.77a2,2,0,0,0,2.11,2.13,3.06,3.06,0,0,0,3-2.06,2.52,2.52,0,0,0,.12-.71Z"/><path class="cls-3" d="M413.48,140.81h2.23v18h-2.23Z"/><path class="cls-3" d="M424.85,149.88c0-1.27,0-2.31-.1-3.33h1.95l.1,2h.08a4.24,4.24,0,0,1,3.86-2.26,3.63,3.63,0,0,1,3.48,2.46h0a5,5,0,0,1,1.37-1.59,4.2,4.2,0,0,1,2.72-.87c1.62,0,4,1.07,4,5.33v7.24h-2.18v-7c0-2.36-.86-3.78-2.67-3.78a2.91,2.91,0,0,0-2.64,2,3.77,3.77,0,0,0-.17,1.12v7.59h-2.19v-7.36c0-2-.86-3.38-2.56-3.38a3.33,3.33,0,0,0-3,3.33v7.41h-2.18Z"/><path class="cls-3" d="M447.27,153.1c.05,3,2,4.27,4.21,4.27a8,8,0,0,0,3.4-.64l.39,1.6a9.93,9.93,0,0,1-4.09.76c-3.79,0-6.05-2.48-6.05-6.19s2.19-6.63,5.77-6.63c4,0,5.08,3.53,5.08,5.79a7.43,7.43,0,0,1-.08,1Zm6.55-1.6c0-1.42-.59-3.63-3.1-3.63-2.26,0-3.25,2.08-3.43,3.63Z"/><path class="cls-3" d="M469.36,140.81v14.86c0,1.09,0,2.33.1,3.17h-2l-.1-2.13h-.05a4.55,4.55,0,0,1-4.19,2.41c-3,0-5.26-2.51-5.26-6.25,0-4.08,2.52-6.6,5.51-6.6a4.12,4.12,0,0,1,3.71,1.88h.05v-7.34Zm-2.24,10.74a3.76,3.76,0,0,0-.1-.94A3.29,3.29,0,0,0,463.8,148c-2.31,0-3.69,2-3.69,4.75,0,2.49,1.22,4.55,3.64,4.55a3.36,3.36,0,0,0,3.27-2.67,3.68,3.68,0,0,0,.1-1Z"/><path class="cls-3" d="M475.55,143.1a1.31,1.31,0,0,1-1.42,1.37,1.33,1.33,0,0,1-1.35-1.37,1.37,1.37,0,0,1,1.4-1.4A1.33,1.33,0,0,1,475.55,143.1Zm-2.49,15.74V146.55h2.24v12.29Z"/><path class="cls-3" d="M485.81,158.84l-.18-1.55h-.08a4.54,4.54,0,0,1-3.75,1.83,3.5,3.5,0,0,1-3.76-3.53c0-3,2.64-4.6,7.39-4.57v-.25a2.54,2.54,0,0,0-2.8-2.85,6.14,6.14,0,0,0-3.2.92l-.5-1.48a7.58,7.58,0,0,1,4-1.09c3.76,0,4.68,2.57,4.68,5v4.59a17.62,17.62,0,0,0,.2,3Zm-.33-6.27c-2.44,0-5.21.38-5.21,2.77a2,2,0,0,0,2.11,2.13,3.05,3.05,0,0,0,3-2.06,2.22,2.22,0,0,0,.13-.71Z"/><path class="cls-3" d="M496.62,149.88c0-1.27,0-2.31-.1-3.33h2l.13,2h.05a4.51,4.51,0,0,1,4.06-2.31c1.7,0,4.34,1,4.34,5.23v7.34h-2.23v-7.08c0-2-.74-3.63-2.85-3.63a3.17,3.17,0,0,0-3,2.28,3.26,3.26,0,0,0-.15,1v7.39h-2.24Z"/><path class="cls-3" d="M512,153.1c.05,3,2,4.27,4.21,4.27a8,8,0,0,0,3.4-.64l.39,1.6a9.93,9.93,0,0,1-4.09.76c-3.79,0-6.05-2.48-6.05-6.19s2.19-6.63,5.77-6.63c4,0,5.08,3.53,5.08,5.79a7.43,7.43,0,0,1-.08,1Zm6.55-1.6c0-1.42-.59-3.63-3.1-3.63-2.26,0-3.25,2.08-3.43,3.63Z"/><path class="cls-3" d="M526.12,143v3.53h3.2v1.7h-3.2v6.63c0,1.52.44,2.39,1.68,2.39a4.67,4.67,0,0,0,1.29-.16l.11,1.68a5.48,5.48,0,0,1-2,.3,3.11,3.11,0,0,1-2.42-.94,4.56,4.56,0,0,1-.86-3.19v-6.71H522v-1.7h1.9v-2.94Z"/><path class="cls-3" d="M533,146.55l1.63,6.25c.35,1.37.68,2.64.91,3.91h.08c.28-1.25.68-2.57,1.09-3.89l2-6.27h1.87l1.91,6.15c.46,1.47.81,2.76,1.09,4h.08a35.29,35.29,0,0,1,.94-4l1.75-6.17h2.21l-4,12.29h-2L540.65,153a39.74,39.74,0,0,1-1.1-4h0a35.82,35.82,0,0,1-1.11,4.06l-2,5.84h-2l-3.7-12.29Z"/><path class="cls-3" d="M561.62,152.59c0,4.55-3.15,6.53-6.12,6.53-3.33,0-5.89-2.44-5.89-6.32,0-4.12,2.69-6.53,6.09-6.53S561.62,148.84,561.62,152.59Zm-9.75.13c0,2.69,1.55,4.72,3.73,4.72s3.73-2,3.73-4.77c0-2.08-1-4.72-3.68-4.72S551.87,150.39,551.87,152.72Z"/><path class="cls-3" d="M564.43,150.39c0-1.45,0-2.7-.1-3.84h2l.07,2.41h.11a3.67,3.67,0,0,1,3.4-2.69,2.41,2.41,0,0,1,.63.08v2.11a2.86,2.86,0,0,0-.76-.08,3.13,3.13,0,0,0-3,2.87,5.35,5.35,0,0,0-.11,1v6.55h-2.21Z"/><path class="cls-3" d="M575.05,152.19h.05c.3-.43.73-1,1.09-1.4l3.6-4.24h2.7l-4.75,5,5.41,7.24h-2.72L576.19,153l-1.14,1.27v4.62h-2.21v-18h2.21Z"/><path class="cls-3" d="M587.66,143.1a1.31,1.31,0,0,1-1.42,1.37,1.33,1.33,0,0,1-1.34-1.37,1.36,1.36,0,0,1,1.39-1.4A1.33,1.33,0,0,1,587.66,143.1Zm-2.48,15.74V146.55h2.23v12.29Z"/><path class="cls-3" d="M591.12,149.88c0-1.27,0-2.31-.1-3.33h2l.12,2h0a4.53,4.53,0,0,1,4.07-2.31c1.7,0,4.34,1,4.34,5.23v7.34h-2.24v-7.08c0-2-.73-3.63-2.84-3.63a3.18,3.18,0,0,0-3,2.28,3.26,3.26,0,0,0-.15,1v7.39h-2.23Z"/><path class="cls-3" d="M615.8,146.55c0,.89-.11,1.88-.11,3.38v7.13c0,2.82-.55,4.55-1.75,5.61a6.5,6.5,0,0,1-4.47,1.48,7.91,7.91,0,0,1-4.08-1l.55-1.7a7,7,0,0,0,3.61,1c2.28,0,4-1.19,4-4.29v-1.37h0a4.38,4.38,0,0,1-3.91,2.06c-3,0-5.23-2.59-5.23-6,0-4.17,2.72-6.53,5.53-6.53a4.09,4.09,0,0,1,3.84,2.13h0l.1-1.85Zm-2.31,4.85a3.17,3.17,0,0,0-.13-1,3.22,3.22,0,0,0-3.12-2.37c-2.14,0-3.66,1.81-3.66,4.65,0,2.41,1.22,4.42,3.63,4.42a3.27,3.27,0,0,0,3.1-2.29,4.09,4.09,0,0,0,.18-1.19Z"/><circle class="cls-4" cx="332.36" cy="42" r="4.5"/><circle class="cls-4" cx="332.37" cy="94.97" r="4.5"/><circle class="cls-4" cx="332.39" cy="147.93" r="4.5"/><circle class="cls-4" cx="332.36" cy="239" r="4.5"/><circle class="cls-4" cx="332.37" cy="294.97" r="4.5"/><circle class="cls-4" cx="332.39" cy="347.93" r="4.5"/><circle class="cls-4" cx="332.36" cy="432" r="4.5"/><circle class="cls-4" cx="332.37" cy="486.97" r="4.5"/><circle class="cls-4" cx="332.39" cy="539.93" r="4.5"/><path class="cls-3" d="M125.15,311.2a35,35,0,0,1,6.06-.47c3.08,0,5,.37,6.53,1.46a4.8,4.8,0,0,1,2.37,4.26,5.3,5.3,0,0,1-3.79,4.94v.07a5.74,5.74,0,0,1,4.6,5.65,6,6,0,0,1-2.19,4.71c-1.63,1.42-4.3,2.13-8.47,2.13a39.26,39.26,0,0,1-5.11-.31Zm4.13,9h2.13c2.88,0,4.51-1.36,4.51-3.29,0-2.13-1.63-3.11-4.27-3.11a11.42,11.42,0,0,0-2.37.17Zm0,10.49a18,18,0,0,0,2.2.1c2.68,0,5.05-1,5.05-3.82,0-2.64-2.31-3.73-5.18-3.73h-2.07Z"/><path class="cls-3" d="M144.48,322.54c0-2.23,0-3.82-.13-5.31H148l.13,3.15h.14a4.91,4.91,0,0,1,4.5-3.52,4.22,4.22,0,0,1,1,.1v3.92a6.41,6.41,0,0,0-1.22-.13,3.67,3.67,0,0,0-3.72,3.15,6.91,6.91,0,0,0-.13,1.28v8.53h-4.17Z"/><path class="cls-3" d="M165.5,333.71l-.27-1.83h-.1a6.11,6.11,0,0,1-4.87,2.2,4.89,4.89,0,0,1-5.18-4.9c0-4.17,3.69-6.27,9.78-6.23v-.27c0-1.08-.44-2.88-3.35-2.88a8.69,8.69,0,0,0-4.43,1.22l-.82-2.71a11.93,11.93,0,0,1,6-1.45c5.28,0,6.8,3.35,6.8,6.93v6a26.23,26.23,0,0,0,.24,4Zm-.54-8c-2.94-.07-5.75.57-5.75,3.08a2.19,2.19,0,0,0,2.37,2.37,3.4,3.4,0,0,0,3.25-2.27,3.09,3.09,0,0,0,.13-.92Z"/><path class="cls-3" d="M173.42,322.14c0-1.9,0-3.49-.13-4.91H177l.2,2.47h.1a5.93,5.93,0,0,1,5.25-2.84c2.87,0,5.85,1.86,5.85,7.07v9.78h-4.16V324.4c0-2.37-.88-4.16-3.15-4.16a3.5,3.5,0,0,0-3.25,2.44,4.38,4.38,0,0,0-.17,1.35v9.68h-4.2Z"/><path class="cls-3" d="M208,309.68v19.39c0,1.7.07,3.52.14,4.64H204.4l-.17-2.6h-.07a5.94,5.94,0,0,1-5.38,3c-3.93,0-7-3.35-7-8.42,0-5.52,3.42-8.8,7.38-8.8a5.24,5.24,0,0,1,4.63,2.16h.07v-9.34Zm-4.16,14.42a5.57,5.57,0,0,0-.1-1.08,3.64,3.64,0,0,0-3.59-2.95c-2.67,0-4.16,2.37-4.16,5.45s1.49,5.21,4.13,5.21a3.68,3.68,0,0,0,3.59-2.94,4.71,4.71,0,0,0,.13-1.22Z"/><path class="cls-3" d="M94.62,360.49c.1,3,2.44,4.26,5.08,4.26a12.45,12.45,0,0,0,4.56-.74l.61,2.88a15.61,15.61,0,0,1-5.75,1c-5.35,0-8.49-3.28-8.49-8.32,0-4.57,2.77-8.87,8.05-8.87s7.11,4.4,7.11,8a9.88,9.88,0,0,1-.14,1.76Zm7.24-2.91c0-1.52-.64-4-3.42-4-2.57,0-3.65,2.34-3.82,4Z"/><path class="cls-3" d="M111.65,351.08l2,3.11c.54.88,1,1.7,1.49,2.54h.1c.47-.91,1-1.76,1.42-2.6l1.83-3.05H123L117.47,359l5.62,8.56h-4.71l-2-3.28c-.54-.88-1-1.76-1.49-2.67h-.07c-.47.94-.94,1.76-1.49,2.67l-1.89,3.28h-4.6l5.72-8.39L107,351.08Z"/><path class="cls-3" d="M125.59,356.56c0-2.16-.06-3.92-.13-5.48h3.65l.21,2.54h.06a6.43,6.43,0,0,1,5.66-2.91c3.79,0,6.93,3.25,6.93,8.39,0,6-3.75,8.83-7.51,8.83a5.43,5.43,0,0,1-4.64-2.2h-.06v8.53h-4.17Zm4.17,4.1a4.36,4.36,0,0,0,.13,1.15,3.77,3.77,0,0,0,3.66,2.91c2.64,0,4.19-2.2,4.19-5.45,0-2.91-1.42-5.28-4.09-5.28a3.88,3.88,0,0,0-3.73,3.08,3.82,3.82,0,0,0-.16,1.05Z"/><path class="cls-3" d="M148.34,360.49c.1,3,2.44,4.26,5.08,4.26A12.51,12.51,0,0,0,158,364l.6,2.88a15.61,15.61,0,0,1-5.75,1c-5.35,0-8.49-3.28-8.49-8.32,0-4.57,2.77-8.87,8.05-8.87s7.11,4.4,7.11,8a9.88,9.88,0,0,1-.14,1.76Zm7.24-2.91c0-1.52-.64-4-3.42-4-2.57,0-3.65,2.34-3.82,4Z"/><path class="cls-3" d="M162.86,356.39c0-2.23,0-3.82-.13-5.31h3.62l.14,3.15h.13a4.91,4.91,0,0,1,4.5-3.52,4.22,4.22,0,0,1,1,.1v3.93a5.62,5.62,0,0,0-1.22-.14,3.67,3.67,0,0,0-3.72,3.15A6.91,6.91,0,0,0,167,359v8.53h-4.17Z"/><path class="cls-3" d="M179.35,346.48a2.21,2.21,0,0,1-2.37,2.23,2.18,2.18,0,0,1-2.3-2.23,2.34,2.34,0,0,1,4.67,0Zm-4.44,21.08V351.08h4.2v16.48Z"/><path class="cls-3" d="M186.52,360.49c.1,3,2.44,4.26,5.08,4.26a12.47,12.47,0,0,0,4.57-.74l.61,2.88a15.65,15.65,0,0,1-5.75,1c-5.35,0-8.5-3.28-8.5-8.32,0-4.57,2.78-8.87,8.05-8.87s7.11,4.4,7.11,8a11.21,11.21,0,0,1-.13,1.76Zm7.25-2.91c0-1.52-.65-4-3.42-4-2.57,0-3.66,2.34-3.83,4Z"/><path class="cls-3" d="M201.05,356c0-1.9,0-3.49-.14-4.91h3.66l.2,2.47h.1a5.93,5.93,0,0,1,5.25-2.84c2.87,0,5.85,1.86,5.85,7.07v9.78h-4.16v-9.3c0-2.37-.88-4.17-3.15-4.17a3.5,3.5,0,0,0-3.25,2.44,4.38,4.38,0,0,0-.17,1.35v9.68h-4.19Z"/><path class="cls-3" d="M232.53,367.05a12,12,0,0,1-4.67.85c-5.15,0-8.5-3.28-8.5-8.39,0-4.94,3.39-8.8,9.17-8.8a10.42,10.42,0,0,1,4,.78l-.75,3.11a7.34,7.34,0,0,0-3.14-.64c-3.18,0-5.08,2.33-5,5.34,0,3.39,2.2,5.32,5,5.32A8.1,8.1,0,0,0,232,364Z"/><path class="cls-3" d="M238.25,360.49c.1,3,2.44,4.26,5.08,4.26a12.45,12.45,0,0,0,4.56-.74l.61,2.88a15.61,15.61,0,0,1-5.75,1c-5.35,0-8.5-3.28-8.5-8.32,0-4.57,2.78-8.87,8.06-8.87s7.11,4.4,7.11,8a9.88,9.88,0,0,1-.14,1.76Zm7.24-2.91c0-1.52-.64-4-3.42-4-2.57,0-3.65,2.34-3.82,4Z"/><path class="cls-3" d="M361.15,248.84l-5.58-17.11H358l2.67,8.43c.73,2.31,1.37,4.39,1.83,6.4h.05c.48-2,1.19-4.14,1.95-6.38l2.9-8.45h2.36l-6.12,17.11Z"/><path class="cls-3" d="M373.57,233.1a1.39,1.39,0,0,1-2.77,0,1.36,1.36,0,0,1,1.4-1.4A1.33,1.33,0,0,1,373.57,233.1Zm-2.49,15.74V236.55h2.23v12.29Z"/><path class="cls-3" d="M377,240.39c0-1.45,0-2.7-.1-3.84h1.95L379,239h.1a3.68,3.68,0,0,1,3.4-2.69,2.49,2.49,0,0,1,.64.08v2.11a2.91,2.91,0,0,0-.76-.08,3.13,3.13,0,0,0-3,2.87,6.33,6.33,0,0,0-.1,1v6.55H377Z"/><path class="cls-3" d="M388.62,233v3.53h3.2v1.7h-3.2v6.63c0,1.52.43,2.39,1.68,2.39a4.73,4.73,0,0,0,1.29-.16l.1,1.68a5.4,5.4,0,0,1-2,.3,3.09,3.09,0,0,1-2.41-.94,4.56,4.56,0,0,1-.86-3.19v-6.71h-1.91v-1.7h1.91v-2.94Z"/><path class="cls-3" d="M404.62,245.49c0,1.27,0,2.39.1,3.35h-2l-.13-2h-.05a4.62,4.62,0,0,1-4.06,2.29c-1.93,0-4.24-1.07-4.24-5.38v-7.19h2.23v6.81c0,2.33.71,3.91,2.74,3.91a3.25,3.25,0,0,0,2.95-2,3.17,3.17,0,0,0,.2-1.14v-7.54h2.24Z"/><path class="cls-3" d="M415.13,248.84l-.18-1.55h-.08a4.54,4.54,0,0,1-3.75,1.83,3.5,3.5,0,0,1-3.76-3.53c0-3,2.64-4.6,7.39-4.57v-.25a2.54,2.54,0,0,0-2.8-2.85,6.14,6.14,0,0,0-3.2.92l-.5-1.48a7.58,7.58,0,0,1,4-1.09c3.76,0,4.68,2.57,4.68,5v4.59a17.62,17.62,0,0,0,.2,3Zm-.33-6.27c-2.44,0-5.21.38-5.21,2.77a2,2,0,0,0,2.11,2.13,3.06,3.06,0,0,0,3-2.06,2.22,2.22,0,0,0,.13-.71Z"/><path class="cls-3" d="M420.56,230.81h2.23v18h-2.23Z"/><path class="cls-3" d="M431.93,240.39c0-1.45,0-2.7-.1-3.84h2l.07,2.41h.1a3.69,3.69,0,0,1,3.41-2.69,2.41,2.41,0,0,1,.63.08v2.11a2.91,2.91,0,0,0-.76-.08,3.13,3.13,0,0,0-3,2.87,6.33,6.33,0,0,0-.1,1v6.55h-2.21Z"/><path class="cls-3" d="M441.22,243.1c.06,3,2,4.27,4.22,4.27a8,8,0,0,0,3.4-.64l.38,1.6a9.85,9.85,0,0,1-4.09.76c-3.78,0-6-2.48-6-6.19s2.19-6.63,5.77-6.63c4,0,5.07,3.53,5.07,5.79a10,10,0,0,1-.07,1Zm6.56-1.6c0-1.42-.59-3.63-3.1-3.63-2.26,0-3.25,2.08-3.43,3.63Z"/><path class="cls-3" d="M459.5,248.84l-.17-1.55h-.08a4.55,4.55,0,0,1-3.76,1.83,3.49,3.49,0,0,1-3.75-3.53c0-3,2.64-4.6,7.38-4.57v-.25a2.54,2.54,0,0,0-2.79-2.85,6.14,6.14,0,0,0-3.2.92l-.51-1.48a7.65,7.65,0,0,1,4-1.09c3.76,0,4.67,2.57,4.67,5v4.59a16.55,16.55,0,0,0,.21,3Zm-.33-6.27c-2.43,0-5.2.38-5.2,2.77a2,2,0,0,0,2.11,2.13,3.06,3.06,0,0,0,3-2.06,2.52,2.52,0,0,0,.12-.71Z"/><path class="cls-3" d="M464.94,230.81h2.23v18h-2.23Z"/><path class="cls-3" d="M473.42,233.1a1.39,1.39,0,0,1-2.77,0,1.36,1.36,0,0,1,1.4-1.4A1.33,1.33,0,0,1,473.42,233.1Zm-2.49,15.74V236.55h2.23v12.29Z"/><path class="cls-3" d="M479.56,233v3.53h3.2v1.7h-3.2v6.63c0,1.52.43,2.39,1.68,2.39a4.73,4.73,0,0,0,1.29-.16l.1,1.68a5.4,5.4,0,0,1-2,.3,3.09,3.09,0,0,1-2.41-.94,4.56,4.56,0,0,1-.86-3.19v-6.71h-1.91v-1.7h1.91v-2.94Z"/><path class="cls-3" d="M486.31,236.55l2.69,7.26c.28.82.59,1.78.79,2.52h0c.23-.74.49-1.68.79-2.57l2.44-7.21h2.36l-3.35,8.76c-1.6,4.22-2.69,6.37-4.22,7.69a6,6,0,0,1-2.74,1.45l-.56-1.88a5.92,5.92,0,0,0,2-1.09A6.72,6.72,0,0,0,488.4,249a1.56,1.56,0,0,0,.17-.53,1.87,1.87,0,0,0-.15-.58l-4.54-11.33Z"/><path class="cls-3" d="M369.35,303.28a10.91,10.91,0,0,1-4.52.81c-4.82,0-8.45-3-8.45-8.65,0-5.36,3.63-9,8.94-9a9.12,9.12,0,0,1,4.06.76l-.54,1.8a8.1,8.1,0,0,0-3.45-.71c-4,0-6.68,2.57-6.68,7.06,0,4.19,2.42,6.88,6.58,6.88a8.88,8.88,0,0,0,3.61-.71Z"/><path class="cls-3" d="M382.88,297.59c0,4.55-3.14,6.53-6.12,6.53-3.32,0-5.89-2.44-5.89-6.32,0-4.12,2.7-6.53,6.1-6.53S382.88,293.84,382.88,297.59Zm-9.75.13c0,2.69,1.55,4.72,3.74,4.72s3.73-2,3.73-4.77c0-2.08-1-4.72-3.68-4.72S373.13,295.39,373.13,297.72Z"/><path class="cls-3" d="M385.7,294.88c0-1.27,0-2.31-.1-3.33h2l.13,2h.05a4.51,4.51,0,0,1,4.06-2.31c1.7,0,4.34,1,4.34,5.23v7.34h-2.23v-7.08c0-2-.74-3.63-2.85-3.63a3.17,3.17,0,0,0-3,2.28,3.26,3.26,0,0,0-.15,1v7.39H385.7Z"/><path class="cls-3" d="M400.33,291.55l2.41,6.91c.4,1.11.73,2.13,1,3.15h.07c.28-1,.64-2,1.05-3.15l2.38-6.91h2.34l-4.83,12.29h-2.13l-4.67-12.29Z"/><path class="cls-3" d="M412.66,298.1c.06,3,2,4.27,4.22,4.27a8,8,0,0,0,3.4-.64l.38,1.6a9.83,9.83,0,0,1-4.08.76c-3.79,0-6.05-2.48-6.05-6.19s2.19-6.63,5.77-6.63c4,0,5.07,3.53,5.07,5.79a10,10,0,0,1-.07,1Zm6.56-1.6c0-1.42-.59-3.63-3.1-3.63-2.26,0-3.25,2.08-3.43,3.63Z"/><path class="cls-3" d="M424.14,295.39c0-1.45,0-2.7-.1-3.84H426l.08,2.41h.1a3.69,3.69,0,0,1,3.4-2.69,2.43,2.43,0,0,1,.64.08v2.11a2.91,2.91,0,0,0-.76-.08,3.13,3.13,0,0,0-3,2.87,6.33,6.33,0,0,0-.1,1v6.55h-2.21Z"/><path class="cls-3" d="M432.14,301.56a5.87,5.87,0,0,0,2.94.88c1.63,0,2.39-.81,2.39-1.82s-.64-1.65-2.29-2.26c-2.2-.79-3.25-2-3.25-3.48,0-2,1.6-3.61,4.24-3.61a6.23,6.23,0,0,1,3,.76l-.56,1.63a4.73,4.73,0,0,0-2.52-.71c-1.32,0-2.05.76-2.05,1.67s.73,1.48,2.33,2.09c2.14.81,3.23,1.87,3.23,3.7,0,2.16-1.68,3.68-4.6,3.68a7.09,7.09,0,0,1-3.45-.83Z"/><path class="cls-3" d="M449.3,303.84l-.18-1.55h-.07a4.58,4.58,0,0,1-3.76,1.83,3.5,3.5,0,0,1-3.76-3.53c0-3,2.64-4.6,7.39-4.57v-.25a2.54,2.54,0,0,0-2.79-2.85,6.09,6.09,0,0,0-3.2.92l-.51-1.48a7.65,7.65,0,0,1,4-1.09c3.75,0,4.67,2.57,4.67,5v4.59a17.62,17.62,0,0,0,.2,2.95Zm-.33-6.27c-2.44-.05-5.2.38-5.2,2.77a2,2,0,0,0,2.1,2.13,3.05,3.05,0,0,0,3-2.06,2.22,2.22,0,0,0,.13-.71Z"/><path class="cls-3" d="M457.32,288v3.53h3.2v1.7h-3.2v6.63c0,1.52.43,2.39,1.68,2.39a4.73,4.73,0,0,0,1.29-.16l.11,1.68a5.5,5.5,0,0,1-2,.3,3.1,3.1,0,0,1-2.41-.94,4.56,4.56,0,0,1-.86-3.19v-6.71h-1.9v-1.7h1.9v-2.94Z"/><path class="cls-3" d="M465.52,288.1a1.38,1.38,0,0,1-2.76,0,1.36,1.36,0,0,1,1.39-1.4A1.33,1.33,0,0,1,465.52,288.1ZM463,303.84V291.55h2.23v12.29Z"/><path class="cls-3" d="M480.1,297.59c0,4.55-3.15,6.53-6.12,6.53-3.33,0-5.89-2.44-5.89-6.32,0-4.12,2.69-6.53,6.09-6.53S480.1,293.84,480.1,297.59Zm-9.75.13c0,2.69,1.55,4.72,3.73,4.72s3.73-2,3.73-4.77c0-2.08-1-4.72-3.68-4.72S470.35,295.39,470.35,297.72Z"/><path class="cls-3" d="M482.91,294.88c0-1.27,0-2.31-.1-3.33h2l.13,2H485a4.51,4.51,0,0,1,4.06-2.31c1.7,0,4.34,1,4.34,5.23v7.34h-2.23v-7.08c0-2-.74-3.63-2.84-3.63a3.17,3.17,0,0,0-3,2.28,3.26,3.26,0,0,0-.15,1v7.39h-2.24Z"/><path class="cls-3" d="M503.81,303.84l-.18-1.55h-.07a4.58,4.58,0,0,1-3.76,1.83,3.5,3.5,0,0,1-3.76-3.53c0-3,2.64-4.6,7.39-4.57v-.25a2.54,2.54,0,0,0-2.79-2.85,6.09,6.09,0,0,0-3.2.92l-.51-1.48a7.62,7.62,0,0,1,4-1.09c3.75,0,4.67,2.57,4.67,5v4.59a17.62,17.62,0,0,0,.2,2.95Zm-.33-6.27c-2.44-.05-5.21.38-5.21,2.77a2,2,0,0,0,2.11,2.13,3.05,3.05,0,0,0,3-2.06,2.22,2.22,0,0,0,.13-.71Z"/><path class="cls-3" d="M509.24,285.81h2.24v18h-2.24Z"/><path class="cls-3" d="M529,301.94h0a4.39,4.39,0,0,1-4,2.18c-2.87,0-5.2-2.49-5.2-6.22,0-4.6,3-6.63,5.56-6.63a4,4,0,0,1,3.78,2.13h0l.08-1.85h2.1c0,1-.07,2.11-.07,3.38v13.94H529Zm0-5.41a3.62,3.62,0,0,0-.1-.94,3.26,3.26,0,0,0-3.2-2.54c-2.31,0-3.7,1.95-3.7,4.72,0,2.44,1.16,4.57,3.63,4.57a3.34,3.34,0,0,0,3.2-2.44,3.73,3.73,0,0,0,.17-1.06Z"/><path class="cls-3" d="M545.19,300.49c0,1.27,0,2.39.1,3.35h-2l-.12-2h-.06a4.61,4.61,0,0,1-4.06,2.29c-1.93,0-4.24-1.07-4.24-5.38v-7.19h2.24v6.81c0,2.33.71,3.91,2.74,3.91a3.22,3.22,0,0,0,2.94-2,3.17,3.17,0,0,0,.21-1.14v-7.54h2.23Z"/><path class="cls-3" d="M550.14,298.1c.05,3,2,4.27,4.22,4.27a8,8,0,0,0,3.4-.64l.38,1.6a9.89,9.89,0,0,1-4.09.76c-3.78,0-6-2.48-6-6.19s2.18-6.63,5.76-6.63c4,0,5.08,3.53,5.08,5.79a7.43,7.43,0,0,1-.08,1Zm6.55-1.6c0-1.42-.58-3.63-3.1-3.63-2.26,0-3.25,2.08-3.42,3.63Z"/><path class="cls-3" d="M561.62,295.39c0-1.45,0-2.7-.1-3.84h2l.08,2.41h.1a3.68,3.68,0,0,1,3.4-2.69,2.55,2.55,0,0,1,.64.08v2.11a2.94,2.94,0,0,0-.77-.08,3.13,3.13,0,0,0-3,2.87,6.33,6.33,0,0,0-.1,1v6.55h-2.21Z"/><path class="cls-3" d="M571.37,291.55l2.69,7.26c.28.82.58,1.78.78,2.52h.06c.22-.74.48-1.68.78-2.57l2.44-7.21h2.36l-3.35,8.76c-1.6,4.22-2.69,6.37-4.22,7.69a6,6,0,0,1-2.74,1.45l-.56-1.88a5.92,5.92,0,0,0,2-1.09,6.72,6.72,0,0,0,1.88-2.49,1.63,1.63,0,0,0,.18-.53,1.69,1.69,0,0,0-.16-.58l-4.54-11.33Z"/><path class="cls-3" d="M585,288.1a1.31,1.31,0,0,1-1.42,1.37,1.33,1.33,0,0,1-1.35-1.37,1.37,1.37,0,0,1,1.4-1.4A1.33,1.33,0,0,1,585,288.1Zm-2.49,15.74V291.55h2.24v12.29Z"/><path class="cls-3" d="M588.45,294.88c0-1.27,0-2.31-.1-3.33h2l.13,2h0a4.51,4.51,0,0,1,4.06-2.31c1.7,0,4.34,1,4.34,5.23v7.34h-2.23v-7.08c0-2-.74-3.63-2.85-3.63a3.17,3.17,0,0,0-3,2.28,3.26,3.26,0,0,0-.15,1v7.39h-2.24Z"/><path class="cls-3" d="M613.13,291.55c0,.89-.1,1.88-.1,3.38v7.13c0,2.82-.56,4.55-1.75,5.61a6.52,6.52,0,0,1-4.47,1.48,8,8,0,0,1-4.09-1l.56-1.7a6.89,6.89,0,0,0,3.6,1c2.29,0,4-1.19,4-4.29v-1.37h-.06a4.36,4.36,0,0,1-3.91,2.06c-3,0-5.23-2.59-5.23-6,0-4.17,2.72-6.53,5.54-6.53A4.09,4.09,0,0,1,611,293.4h.05l.11-1.85Zm-2.31,4.85a3.17,3.17,0,0,0-.13-1,3.21,3.21,0,0,0-3.12-2.37c-2.13,0-3.66,1.81-3.66,4.65,0,2.41,1.22,4.42,3.63,4.42a3.27,3.27,0,0,0,3.1-2.29,3.78,3.78,0,0,0,.18-1.19Z"/><path class="cls-3" d="M357.09,356.15a7.83,7.83,0,0,0,4,1.12c2.26,0,3.58-1.2,3.58-2.92s-.91-2.52-3.22-3.41c-2.8-1-4.52-2.43-4.52-4.85,0-2.66,2.2-4.64,5.53-4.64a7.66,7.66,0,0,1,3.78.84l-.61,1.8a6.72,6.72,0,0,0-3.25-.81c-2.33,0-3.22,1.39-3.22,2.56,0,1.6,1,2.39,3.4,3.3,2.9,1.12,4.37,2.51,4.37,5s-2,4.92-6,4.92a8.84,8.84,0,0,1-4.37-1.09Z"/><path class="cls-3" d="M371.23,353.1c0,3,2,4.27,4.22,4.27a8,8,0,0,0,3.4-.64l.38,1.6a9.89,9.89,0,0,1-4.09.76c-3.78,0-6-2.48-6-6.19s2.18-6.63,5.76-6.63c4,0,5.08,3.53,5.08,5.79a7.43,7.43,0,0,1-.08,1Zm6.55-1.6c0-1.42-.58-3.63-3.1-3.63-2.26,0-3.25,2.08-3.42,3.63Z"/><path class="cls-3" d="M389.51,358.84l-.18-1.55h-.07a4.58,4.58,0,0,1-3.76,1.83,3.5,3.5,0,0,1-3.76-3.53c0-3,2.64-4.6,7.39-4.57v-.25a2.54,2.54,0,0,0-2.79-2.85,6.09,6.09,0,0,0-3.2.92l-.51-1.48a7.65,7.65,0,0,1,4-1.09c3.75,0,4.67,2.57,4.67,5v4.59a17.62,17.62,0,0,0,.2,2.95Zm-.33-6.27c-2.44-.05-5.2.38-5.2,2.77a2,2,0,0,0,2.1,2.13,3.05,3.05,0,0,0,3-2.06,2.22,2.22,0,0,0,.13-.71Z"/><path class="cls-3" d="M394.94,350.39c0-1.45,0-2.7-.1-3.84h2l.07,2.41h.1a3.69,3.69,0,0,1,3.41-2.69,2.41,2.41,0,0,1,.63.08v2.11a2.91,2.91,0,0,0-.76-.08,3.14,3.14,0,0,0-3,2.87,6.33,6.33,0,0,0-.1,1v6.55h-2.21Z"/><path class="cls-3" d="M411.75,358.38a8.14,8.14,0,0,1-3.53.71c-3.71,0-6.12-2.51-6.12-6.27a6.24,6.24,0,0,1,6.6-6.52,7.57,7.57,0,0,1,3.1.63l-.51,1.73a5.1,5.1,0,0,0-2.59-.59c-2.81,0-4.34,2.09-4.34,4.65,0,2.84,1.83,4.6,4.27,4.6a6.31,6.31,0,0,0,2.74-.61Z"/><path class="cls-3" d="M414.37,340.81h2.23v7.67h0a4.16,4.16,0,0,1,1.6-1.57,4.62,4.62,0,0,1,2.29-.64c1.65,0,4.29,1,4.29,5.26v7.31h-2.24v-7.06c0-2-.73-3.65-2.84-3.65a3.21,3.21,0,0,0-3,2.23,2.64,2.64,0,0,0-.15,1.07v7.41h-2.23Z"/><path class="cls-3" d="M435.08,353.1c.05,3,2,4.27,4.22,4.27a8,8,0,0,0,3.4-.64l.38,1.6a9.89,9.89,0,0,1-4.09.76c-3.78,0-6-2.48-6-6.19s2.18-6.63,5.76-6.63c4,0,5.08,3.53,5.08,5.79a7.43,7.43,0,0,1-.08,1Zm6.55-1.6c0-1.42-.58-3.63-3.09-3.63-2.26,0-3.25,2.08-3.43,3.63Z"/><path class="cls-3" d="M446.56,349.88c0-1.27,0-2.31-.1-3.33h2l.12,2h.05a4.53,4.53,0,0,1,4.07-2.31c1.7,0,4.34,1,4.34,5.23v7.34h-2.24v-7.08c0-2-.73-3.63-2.84-3.63a3.19,3.19,0,0,0-3,2.28,3.26,3.26,0,0,0-.15,1v7.39h-2.23Z"/><path class="cls-3" d="M471.24,346.55c-.05.89-.11,1.88-.11,3.38v7.13c0,2.82-.55,4.55-1.75,5.61a6.5,6.5,0,0,1-4.47,1.48,7.91,7.91,0,0,1-4.08-1l.55-1.7a7,7,0,0,0,3.61,1c2.29,0,4-1.19,4-4.29v-1.37h-.05a4.38,4.38,0,0,1-3.91,2.06c-3.05,0-5.23-2.59-5.23-6,0-4.17,2.72-6.53,5.53-6.53a4.09,4.09,0,0,1,3.84,2.13h.05l.1-1.85Zm-2.31,4.85a3.17,3.17,0,0,0-.13-1,3.22,3.22,0,0,0-3.12-2.37c-2.14,0-3.66,1.81-3.66,4.65,0,2.41,1.22,4.42,3.63,4.42a3.27,3.27,0,0,0,3.1-2.29,4.09,4.09,0,0,0,.18-1.19Z"/><path class="cls-3" d="M477.18,343.1a1.39,1.39,0,0,1-2.77,0,1.36,1.36,0,0,1,1.4-1.4A1.33,1.33,0,0,1,477.18,343.1Zm-2.49,15.74V346.55h2.23v12.29Z"/><path class="cls-3" d="M480.63,349.88c0-1.27,0-2.31-.1-3.33h2l.12,2h.06a4.5,4.5,0,0,1,4.06-2.31c1.7,0,4.34,1,4.34,5.23v7.34h-2.23v-7.08c0-2-.74-3.63-2.85-3.63a3.17,3.17,0,0,0-3,2.28,3,3,0,0,0-.16,1v7.39h-2.23Z"/><path class="cls-3" d="M496,353.1c.05,3,2,4.27,4.22,4.27a8,8,0,0,0,3.4-.64l.38,1.6a9.89,9.89,0,0,1-4.09.76c-3.78,0-6-2.48-6-6.19s2.18-6.63,5.76-6.63c4,0,5.08,3.53,5.08,5.79a10,10,0,0,1-.07,1Zm6.55-1.6c0-1.42-.58-3.63-3.09-3.63-2.26,0-3.25,2.08-3.43,3.63Z"/><path class="cls-3" d="M523.94,352.59c0,4.55-3.15,6.53-6.12,6.53-3.32,0-5.89-2.44-5.89-6.32,0-4.12,2.69-6.53,6.1-6.53S523.94,348.84,523.94,352.59Zm-9.75.13c0,2.69,1.55,4.72,3.73,4.72s3.74-2,3.74-4.77c0-2.08-1-4.72-3.68-4.72S514.19,350.39,514.19,352.72Z"/><path class="cls-3" d="M526.76,350.56c0-1.57,0-2.84-.1-4h2l.11,2.11h.05a4.82,4.82,0,0,1,4.36-2.39c3,0,5.21,2.52,5.21,6.25,0,4.42-2.69,6.6-5.59,6.6a4.31,4.31,0,0,1-3.78-1.93h0v6.68h-2.21Zm2.21,3.28a5.07,5.07,0,0,0,.1.91,3.45,3.45,0,0,0,3.35,2.62c2.36,0,3.73-1.93,3.73-4.75,0-2.46-1.29-4.57-3.65-4.57a3.56,3.56,0,0,0-3.38,2.77,3.47,3.47,0,0,0-.15.91Z"/><path class="cls-3" d="M543.9,343v3.53h3.2v1.7h-3.2v6.63c0,1.52.43,2.39,1.67,2.39a4.76,4.76,0,0,0,1.3-.16l.1,1.68a5.44,5.44,0,0,1-2,.3,3.09,3.09,0,0,1-2.41-.94,4.51,4.51,0,0,1-.87-3.19v-6.71h-1.9v-1.7h1.9v-2.94Z"/><path class="cls-3" d="M552.1,343.1a1.39,1.39,0,0,1-2.77,0,1.36,1.36,0,0,1,1.4-1.4A1.33,1.33,0,0,1,552.1,343.1Zm-2.49,15.74V346.55h2.23v12.29Z"/><path class="cls-3" d="M555.55,349.88c0-1.27,0-2.31-.1-3.33h1.95l.1,2h.08a4.24,4.24,0,0,1,3.86-2.26,3.64,3.64,0,0,1,3.48,2.46H565a5,5,0,0,1,1.37-1.59,4.2,4.2,0,0,1,2.72-.87c1.62,0,4,1.07,4,5.33v7.24h-2.18v-7c0-2.36-.86-3.78-2.67-3.78a2.89,2.89,0,0,0-2.64,2,3.77,3.77,0,0,0-.17,1.12v7.59h-2.19v-7.36c0-2-.86-3.38-2.56-3.38a3.33,3.33,0,0,0-2.95,3.33v7.41h-2.18Z"/><path class="cls-3" d="M579.21,343.1a1.31,1.31,0,0,1-1.42,1.37,1.33,1.33,0,0,1-1.35-1.37,1.37,1.37,0,0,1,1.4-1.4A1.33,1.33,0,0,1,579.21,343.1Zm-2.49,15.74V346.55H579v12.29Z"/><path class="cls-3" d="M581.27,357.55l5.56-7.24c.53-.66,1-1.25,1.6-1.91v0h-6.66v-1.8h9.37l0,1.4-5.49,7.13a24.46,24.46,0,0,1-1.57,1.93v.05h7.19v1.78h-10Z"/><path class="cls-3" d="M600.33,358.84l-.17-1.55h-.08a4.58,4.58,0,0,1-3.76,1.83,3.5,3.5,0,0,1-3.76-3.53c0-3,2.65-4.6,7.39-4.57v-.25a2.54,2.54,0,0,0-2.79-2.85,6.11,6.11,0,0,0-3.2.92l-.51-1.48a7.65,7.65,0,0,1,4-1.09c3.76,0,4.67,2.57,4.67,5v4.59a16.55,16.55,0,0,0,.21,2.95Zm-.33-6.27c-2.43-.05-5.2.38-5.2,2.77a2,2,0,0,0,2.11,2.13,3.06,3.06,0,0,0,3-2.06,2.52,2.52,0,0,0,.12-.71Z"/><path class="cls-3" d="M608.36,343v3.53h3.2v1.7h-3.2v6.63c0,1.52.43,2.39,1.67,2.39a4.76,4.76,0,0,0,1.3-.16l.1,1.68a5.44,5.44,0,0,1-2,.3,3.09,3.09,0,0,1-2.41-.94,4.51,4.51,0,0,1-.87-3.19v-6.71h-1.9v-1.7h1.9v-2.94Z"/><path class="cls-3" d="M616.56,343.1a1.39,1.39,0,0,1-2.77,0,1.36,1.36,0,0,1,1.4-1.4A1.33,1.33,0,0,1,616.56,343.1Zm-2.49,15.74V346.55h2.23v12.29Z"/><path class="cls-3" d="M631.13,352.59c0,4.55-3.15,6.53-6.12,6.53-3.33,0-5.89-2.44-5.89-6.32,0-4.12,2.69-6.53,6.09-6.53S631.13,348.84,631.13,352.59Zm-9.75.13c0,2.69,1.55,4.72,3.73,4.72s3.73-2,3.73-4.77c0-2.08-1-4.72-3.68-4.72S621.38,350.39,621.38,352.72Z"/><path class="cls-3" d="M634,349.88c0-1.27,0-2.31-.1-3.33h2l.12,2h0a4.53,4.53,0,0,1,4.07-2.31c1.7,0,4.34,1,4.34,5.23v7.34h-2.24v-7.08c0-2-.73-3.63-2.84-3.63a3.18,3.18,0,0,0-3,2.28,3.26,3.26,0,0,0-.15,1v7.39H634Z"/><path class="cls-3" d="M123.6,510.2a42.51,42.51,0,0,1,6.63-.47c4.26,0,7.21.88,9.31,2.64s3.55,4.5,3.55,8.39c0,4.07-1.39,7.11-3.55,9.07S133.65,533,129.21,533a45,45,0,0,1-5.61-.31Zm4.16,19.33a15.66,15.66,0,0,0,2.3.1c5.42,0,8.63-2.94,8.63-8.73,0-5-2.88-7.92-8.09-7.92a12.9,12.9,0,0,0-2.84.24Z"/><path class="cls-3" d="M151.08,511.63a2.34,2.34,0,0,1-4.67,0,2.34,2.34,0,0,1,4.67,0Zm-4.43,21.08V516.23h4.2v16.48Z"/><path class="cls-3" d="M170.37,516.23c-.06,1.12-.13,2.47-.13,4.74v9.34c0,3.45-.71,5.92-2.44,7.48a9.47,9.47,0,0,1-6.36,2,11.64,11.64,0,0,1-5.75-1.32l.91-3.14a10,10,0,0,0,4.81,1.25c2.7,0,4.73-1.42,4.73-5v-1.42h-.06a5.56,5.56,0,0,1-4.81,2.44c-4.09,0-7-3.38-7-8.05,0-5.42,3.52-8.7,7.48-8.7a5.2,5.2,0,0,1,4.77,2.57h.06l.17-2.2Zm-4.29,6.6a4.14,4.14,0,0,0-.14-1.12,3.45,3.45,0,0,0-3.38-2.67c-2.34,0-4.06,2-4.06,5.38,0,2.81,1.42,5.08,4,5.08a3.57,3.57,0,0,0,3.39-2.51,7.23,7.23,0,0,0,.17-1.49Z"/><path class="cls-3" d="M179,511.63a2.34,2.34,0,1,1-2.34-2.27A2.2,2.2,0,0,1,179,511.63Zm-4.43,21.08V516.23h4.19v16.48Z"/><path class="cls-3" d="M188,511.52v4.71h4v3.11h-4v7.28c0,2,.54,3,2.14,3a6.12,6.12,0,0,0,1.62-.21l.07,3.18a9,9,0,0,1-3,.41,4.84,4.84,0,0,1-3.59-1.35c-.88-1-1.29-2.44-1.29-4.61v-7.75h-2.37v-3.11H184v-3.72Z"/><path class="cls-3" d="M204.4,532.71l-.27-1.83H204a6.1,6.1,0,0,1-4.87,2.2,4.89,4.89,0,0,1-5.18-4.9c0-4.17,3.69-6.27,9.78-6.23v-.27c0-1.08-.44-2.88-3.35-2.88A8.75,8.75,0,0,0,196,520l-.81-2.71a11.92,11.92,0,0,1,6-1.45c5.28,0,6.81,3.35,6.81,6.93v6a26.38,26.38,0,0,0,.23,4Zm-.54-8.05c-3-.07-5.76.57-5.76,3.08a2.19,2.19,0,0,0,2.37,2.37,3.38,3.38,0,0,0,3.25-2.27,3.12,3.12,0,0,0,.14-.92Z"/><path class="cls-3" d="M212.32,508.68h4.2v24h-4.2Z"/><path class="cls-3" d="M96.36,555c0-1.9,0-3.49-.13-4.91h3.59l.17,2.44h.1a5.69,5.69,0,0,1,5.07-2.81,4.75,4.75,0,0,1,4.57,3h.07a6.16,6.16,0,0,1,2-2.06,5.51,5.51,0,0,1,3.32-1c2.74,0,5.51,1.86,5.51,7.14v9.71H116.6v-9.1c0-2.74-.95-4.37-2.94-4.37a3.18,3.18,0,0,0-2.91,2.2,6.13,6.13,0,0,0-.21,1.39v9.88h-4.06V557c0-2.3-.91-3.93-2.84-3.93a3.25,3.25,0,0,0-3,2.37,3.57,3.57,0,0,0-.24,1.36v9.74H96.36Z"/><path class="cls-3" d="M134.34,566.56l-.27-1.83H134a6.1,6.1,0,0,1-4.87,2.2,4.89,4.89,0,0,1-5.18-4.9c0-4.17,3.69-6.26,9.78-6.23v-.27c0-1.08-.44-2.88-3.35-2.88a8.69,8.69,0,0,0-4.43,1.22l-.82-2.71a11.93,11.93,0,0,1,6-1.45c5.28,0,6.8,3.35,6.8,6.94v6a26.23,26.23,0,0,0,.24,4Zm-.54-8c-2.94-.07-5.75.57-5.75,3.08a2.19,2.19,0,0,0,2.37,2.37,3.39,3.39,0,0,0,3.25-2.27,3,3,0,0,0,.13-.91Z"/><path class="cls-3" d="M142.27,555.39c0-2.23,0-3.82-.14-5.31h3.62l.14,3.15H146a4.91,4.91,0,0,1,4.5-3.52,4.16,4.16,0,0,1,1,.1v3.93a5.51,5.51,0,0,0-1.21-.14,3.68,3.68,0,0,0-3.73,3.15,7.9,7.9,0,0,0-.13,1.28v8.53h-4.16Z"/><path class="cls-3" d="M158.48,557.32h.07c.4-.64.88-1.35,1.32-1.93l4-5.31h5l-6.09,6.74,7,9.74h-5.11l-4.74-7.27-1.42,1.65v5.62h-4.16v-24h4.16Z"/><path class="cls-3" d="M174.25,559.49c.1,3,2.44,4.26,5.08,4.26a12.47,12.47,0,0,0,4.57-.74l.61,2.88a15.67,15.67,0,0,1-5.76,1c-5.34,0-8.49-3.28-8.49-8.32,0-4.57,2.78-8.87,8.05-8.87s7.11,4.4,7.11,8a11.21,11.21,0,0,1-.13,1.76Zm7.25-2.91c0-1.52-.65-4-3.42-4-2.57,0-3.66,2.34-3.83,4Z"/><path class="cls-3" d="M193.55,545.38v4.7h4v3.11h-4v7.28c0,2,.54,3,2.13,3a6.27,6.27,0,0,0,1.63-.21l.06,3.18a9,9,0,0,1-3,.41,4.86,4.86,0,0,1-3.59-1.35c-.88-.95-1.28-2.44-1.28-4.61v-7.75h-2.37v-3.11h2.37v-3.72Z"/><path class="cls-3" d="M205.09,545.48a2.34,2.34,0,0,1-4.67,0,2.34,2.34,0,0,1,4.67,0Zm-4.43,21.08V550.08h4.2v16.48Z"/><path class="cls-3" d="M209.32,555c0-1.9,0-3.49-.13-4.91h3.65l.21,2.47h.1a5.92,5.92,0,0,1,5.24-2.84c2.88,0,5.86,1.86,5.86,7.07v9.78h-4.16v-9.3c0-2.37-.88-4.17-3.15-4.17a3.5,3.5,0,0,0-3.25,2.44,4.1,4.1,0,0,0-.17,1.35v9.68h-4.2Z"/><path class="cls-3" d="M243.75,550.08c-.07,1.12-.14,2.47-.14,4.74v9.34c0,3.45-.71,5.92-2.44,7.48a9.48,9.48,0,0,1-6.36,2,11.64,11.64,0,0,1-5.75-1.32l.91-3.15a10,10,0,0,0,4.81,1.25c2.71,0,4.74-1.42,4.74-5V564h-.07a5.56,5.56,0,0,1-4.81,2.44c-4.09,0-7-3.38-7-8.05,0-5.42,3.52-8.7,7.48-8.7a5.2,5.2,0,0,1,4.77,2.57H240l.17-2.2Zm-4.3,6.6a4.14,4.14,0,0,0-.14-1.12,3.45,3.45,0,0,0-3.38-2.67c-2.34,0-4.06,2-4.06,5.38,0,2.81,1.42,5.08,4,5.08a3.56,3.56,0,0,0,3.38-2.51,7.23,7.23,0,0,0,.17-1.49Z"/><path class="cls-3" d="M357.39,425a22.9,22.9,0,0,1,4.24-.36c2.37,0,3.89.43,4.95,1.4a4.24,4.24,0,0,1,1.35,3.25,4.48,4.48,0,0,1-3.22,4.36v.08c1.32.46,2.1,1.68,2.51,3.45a26.91,26.91,0,0,0,1.32,4.7h-2.29a22.63,22.63,0,0,1-1.14-4.09c-.51-2.36-1.42-3.25-3.43-3.32H359.6v7.41h-2.21Zm2.21,7.79h2.26c2.36,0,3.86-1.29,3.86-3.25,0-2.21-1.6-3.17-3.93-3.2a9.3,9.3,0,0,0-2.19.2Z"/><path class="cls-3" d="M372.32,436.1c.05,3,2,4.27,4.22,4.27a8,8,0,0,0,3.4-.64l.38,1.6a9.89,9.89,0,0,1-4.09.76c-3.78,0-6-2.48-6-6.19s2.18-6.63,5.76-6.63c4,0,5.08,3.53,5.08,5.79a10,10,0,0,1-.07,1Zm6.55-1.6c0-1.42-.58-3.63-3.09-3.63-2.26,0-3.25,2.08-3.43,3.63Z"/><path class="cls-3" d="M394.08,438.49c0,1.27,0,2.39.1,3.35h-2l-.12-2H392a4.61,4.61,0,0,1-4.06,2.29c-1.93,0-4.24-1.07-4.24-5.38v-7.19H386v6.81c0,2.33.71,3.91,2.74,3.91a3.22,3.22,0,0,0,2.94-2,3.17,3.17,0,0,0,.21-1.14v-7.54h2.23Z"/><path class="cls-3" d="M397.48,439.56a5.88,5.88,0,0,0,2.95.88c1.62,0,2.38-.81,2.38-1.82s-.63-1.65-2.28-2.26c-2.21-.79-3.25-2-3.25-3.48,0-2,1.6-3.61,4.24-3.61a6.19,6.19,0,0,1,3,.76l-.56,1.63a4.72,4.72,0,0,0-2.51-.71c-1.32,0-2.06.76-2.06,1.67s.74,1.48,2.34,2.09c2.13.81,3.22,1.87,3.22,3.7,0,2.16-1.67,3.68-4.59,3.68a7.13,7.13,0,0,1-3.46-.83Z"/><path class="cls-3" d="M414.65,441.84l-.18-1.55h-.08a4.55,4.55,0,0,1-3.76,1.83,3.5,3.5,0,0,1-3.75-3.53c0-3,2.64-4.6,7.38-4.57v-.25a2.53,2.53,0,0,0-2.79-2.85,6.14,6.14,0,0,0-3.2.92l-.51-1.48a7.65,7.65,0,0,1,4-1.09c3.76,0,4.67,2.57,4.67,5v4.59a16.55,16.55,0,0,0,.21,2.95Zm-.33-6.27c-2.44-.05-5.21.38-5.21,2.77a2,2,0,0,0,2.11,2.13,3.06,3.06,0,0,0,3-2.06,2.53,2.53,0,0,0,.13-.71Z"/><path class="cls-3" d="M420,441.84c0-.84.1-2.08.1-3.17V423.81h2.21v7.72h0a4.57,4.57,0,0,1,4.19-2.26c3,0,5.2,2.54,5.18,6.27,0,4.4-2.77,6.58-5.51,6.58a4.4,4.4,0,0,1-4.12-2.31H422l-.1,2Zm2.31-4.93a4.38,4.38,0,0,0,.1.82,3.44,3.44,0,0,0,3.35,2.61c2.34,0,3.73-1.9,3.73-4.72,0-2.46-1.27-4.57-3.65-4.57a3.57,3.57,0,0,0-3.41,2.74,4.58,4.58,0,0,0-.12.92Z"/><path class="cls-3" d="M434.52,423.81h2.24v18h-2.24Z"/><path class="cls-3" d="M441.76,436.1c.05,3,2,4.27,4.21,4.27a8,8,0,0,0,3.41-.64l.38,1.6a9.93,9.93,0,0,1-4.09.76c-3.78,0-6-2.48-6-6.19s2.18-6.63,5.76-6.63c4,0,5.08,3.53,5.08,5.79a7.43,7.43,0,0,1-.08,1Zm6.55-1.6c0-1.42-.58-3.63-3.1-3.63-2.26,0-3.25,2.08-3.43,3.63Z"/><path class="cls-3" d="M461.31,426v3.53h3.2v1.7h-3.2v6.63c0,1.52.43,2.39,1.67,2.39a4.76,4.76,0,0,0,1.3-.16l.1,1.68a5.44,5.44,0,0,1-2,.3,3.09,3.09,0,0,1-2.41-.94,4.51,4.51,0,0,1-.87-3.19v-6.71h-1.9v-1.7h1.9v-2.94Z"/><path class="cls-3" d="M468.11,436.1c.05,3,2,4.27,4.22,4.27a8,8,0,0,0,3.4-.64l.38,1.6a9.89,9.89,0,0,1-4.09.76c-3.78,0-6-2.48-6-6.19s2.18-6.63,5.76-6.63c4,0,5.08,3.53,5.08,5.79a7.43,7.43,0,0,1-.08,1Zm6.55-1.6c0-1.42-.58-3.63-3.1-3.63-2.26,0-3.25,2.08-3.42,3.63Z"/><path class="cls-3" d="M479.59,432.88c0-1.27,0-2.31-.1-3.33h1.95l.1,2h.08a4.23,4.23,0,0,1,3.86-2.26,3.65,3.65,0,0,1,3.48,2.46H489a5,5,0,0,1,1.37-1.59,4.17,4.17,0,0,1,2.71-.87c1.63,0,4,1.07,4,5.33v7.24H495v-7c0-2.36-.87-3.78-2.67-3.78a2.89,2.89,0,0,0-2.64,2,3.75,3.75,0,0,0-.18,1.12v7.59h-2.18v-7.36c0-2-.86-3.38-2.56-3.38a3.33,3.33,0,0,0-3,3.33v7.41h-2.18Z"/><path class="cls-3" d="M500.76,433.56c0-1.57-.05-2.84-.1-4h2l.11,2.11h.05a4.82,4.82,0,0,1,4.36-2.39c3,0,5.21,2.52,5.21,6.25,0,4.42-2.69,6.6-5.59,6.6a4.31,4.31,0,0,1-3.78-1.93h0v6.68h-2.21Zm2.21,3.28a5.07,5.07,0,0,0,.1.91,3.45,3.45,0,0,0,3.35,2.62c2.36,0,3.74-1.93,3.74-4.75,0-2.46-1.3-4.57-3.66-4.57a3.57,3.57,0,0,0-3.38,2.77,3.93,3.93,0,0,0-.15.91Z"/><path class="cls-3" d="M515.21,423.81h2.23v18h-2.23Z"/><path class="cls-3" d="M528,441.84l-.18-1.55h-.07a4.58,4.58,0,0,1-3.76,1.83,3.5,3.5,0,0,1-3.76-3.53c0-3,2.64-4.6,7.39-4.57v-.25a2.54,2.54,0,0,0-2.79-2.85,6.11,6.11,0,0,0-3.2.92l-.51-1.48a7.65,7.65,0,0,1,4-1.09c3.76,0,4.67,2.57,4.67,5v4.59a17.62,17.62,0,0,0,.2,2.95Zm-.33-6.27c-2.44-.05-5.2.38-5.2,2.77a2,2,0,0,0,2.1,2.13,3.05,3.05,0,0,0,3-2.06,2.22,2.22,0,0,0,.13-.71Z"/><path class="cls-3" d="M536,426v3.53h3.2v1.7H536v6.63c0,1.52.44,2.39,1.68,2.39a4.82,4.82,0,0,0,1.3-.16l.1,1.68a5.48,5.48,0,0,1-2,.3,3.12,3.12,0,0,1-2.42-.94,4.56,4.56,0,0,1-.86-3.19v-6.71h-1.9v-1.7h1.9v-2.94Z"/><path class="cls-3" d="M542.83,436.1c0,3,2,4.27,4.21,4.27a8,8,0,0,0,3.41-.64l.38,1.6a9.93,9.93,0,0,1-4.09.76c-3.78,0-6-2.48-6-6.19s2.18-6.63,5.76-6.63c4,0,5.08,3.53,5.08,5.79a7.43,7.43,0,0,1-.08,1Zm6.55-1.6c0-1.42-.59-3.63-3.1-3.63-2.26,0-3.25,2.08-3.43,3.63Z"/><path class="cls-3" d="M554,439.56a5.87,5.87,0,0,0,2.94.88c1.63,0,2.39-.81,2.39-1.82s-.63-1.65-2.28-2.26c-2.21-.79-3.25-2-3.25-3.48,0-2,1.6-3.61,4.24-3.61a6.22,6.22,0,0,1,3,.76l-.56,1.63A4.72,4.72,0,0,0,558,431c-1.33,0-2.06.76-2.06,1.67s.73,1.48,2.33,2.09c2.14.81,3.23,1.87,3.23,3.7,0,2.16-1.68,3.68-4.6,3.68a7.09,7.09,0,0,1-3.45-.83Z"/><path class="cls-3" d="M369.35,496.28a10.91,10.91,0,0,1-4.52.81c-4.82,0-8.45-3-8.45-8.65,0-5.36,3.63-9,8.94-9a9.12,9.12,0,0,1,4.06.76l-.54,1.8a8.1,8.1,0,0,0-3.45-.71c-4,0-6.68,2.57-6.68,7.06,0,4.19,2.42,6.88,6.58,6.88a8.88,8.88,0,0,0,3.61-.71Z"/><path class="cls-3" d="M382.88,490.59c0,4.55-3.14,6.53-6.12,6.53-3.32,0-5.89-2.44-5.89-6.32,0-4.12,2.7-6.53,6.1-6.53S382.88,486.84,382.88,490.59Zm-9.75.13c0,2.69,1.55,4.72,3.74,4.72s3.73-2,3.73-4.77c0-2.08-1-4.72-3.68-4.72S373.13,488.39,373.13,490.72Z"/><path class="cls-3" d="M385.7,487.88c0-1.27,0-2.31-.1-3.33h2l.13,2h.05a4.51,4.51,0,0,1,4.06-2.31c1.7,0,4.34,1,4.34,5.23v7.34h-2.23v-7.08c0-2-.74-3.63-2.85-3.63a3.17,3.17,0,0,0-3,2.28,3.26,3.26,0,0,0-.15,1v7.39H385.7Z"/><path class="cls-3" d="M400.33,484.55l2.41,6.91c.4,1.11.73,2.13,1,3.15h.07c.28-1,.64-2,1.05-3.15l2.38-6.91h2.34l-4.83,12.29h-2.13l-4.67-12.29Z"/><path class="cls-3" d="M412.66,491.1c.06,3,2,4.27,4.22,4.27a8,8,0,0,0,3.4-.64l.38,1.6a9.83,9.83,0,0,1-4.08.76c-3.79,0-6.05-2.48-6.05-6.19s2.19-6.63,5.77-6.63c4,0,5.07,3.53,5.07,5.79a10,10,0,0,1-.07,1Zm6.56-1.6c0-1.42-.59-3.63-3.1-3.63-2.26,0-3.25,2.08-3.43,3.63Z"/><path class="cls-3" d="M424.14,488.39c0-1.45,0-2.7-.1-3.84H426l.08,2.41h.1a3.69,3.69,0,0,1,3.4-2.69,2.43,2.43,0,0,1,.64.08v2.11a2.91,2.91,0,0,0-.76-.08,3.13,3.13,0,0,0-3,2.87,6.33,6.33,0,0,0-.1,1v6.55h-2.21Z"/><path class="cls-3" d="M432.14,494.56a5.87,5.87,0,0,0,2.94.88c1.63,0,2.39-.81,2.39-1.82s-.64-1.65-2.29-2.26c-2.2-.79-3.25-2-3.25-3.48,0-2,1.6-3.61,4.24-3.61a6.23,6.23,0,0,1,3,.76l-.56,1.63a4.73,4.73,0,0,0-2.52-.71c-1.32,0-2.05.76-2.05,1.67s.73,1.48,2.33,2.09c2.14.81,3.23,1.87,3.23,3.7,0,2.16-1.68,3.68-4.6,3.68a7.09,7.09,0,0,1-3.45-.83Z"/><path class="cls-3" d="M445,481.1a1.31,1.31,0,0,1-1.42,1.37,1.33,1.33,0,0,1-1.34-1.37,1.36,1.36,0,0,1,1.39-1.4A1.33,1.33,0,0,1,445,481.1Zm-2.48,15.74V484.55h2.23v12.29Z"/><path class="cls-3" d="M459.56,490.59c0,4.55-3.15,6.53-6.12,6.53-3.33,0-5.89-2.44-5.89-6.32,0-4.12,2.69-6.53,6.09-6.53S459.56,486.84,459.56,490.59Zm-9.75.13c0,2.69,1.55,4.72,3.73,4.72s3.73-2,3.73-4.77c0-2.08-1-4.72-3.68-4.72S449.81,488.39,449.81,490.72Z"/><path class="cls-3" d="M462.37,487.88c0-1.27,0-2.31-.1-3.33h2l.13,2h.05a4.51,4.51,0,0,1,4.06-2.31c1.71,0,4.35,1,4.35,5.23v7.34H470.6v-7.08c0-2-.73-3.63-2.84-3.63a3.18,3.18,0,0,0-3,2.28,3.26,3.26,0,0,0-.15,1v7.39h-2.24Z"/><path class="cls-3" d="M484.54,481v3.53h3.2v1.7h-3.2v6.63c0,1.52.43,2.39,1.67,2.39a4.76,4.76,0,0,0,1.3-.16l.1,1.68a5.44,5.44,0,0,1-2,.3,3.09,3.09,0,0,1-2.41-.94,4.51,4.51,0,0,1-.86-3.19v-6.71h-1.91v-1.7h1.91v-2.94Z"/><path class="cls-3" d="M490.25,488.39c0-1.45,0-2.7-.1-3.84h2l.08,2.41h.1a3.69,3.69,0,0,1,3.4-2.69,2.43,2.43,0,0,1,.64.08v2.11a2.91,2.91,0,0,0-.76-.08,3.13,3.13,0,0,0-3,2.87,6.33,6.33,0,0,0-.1,1v6.55h-2.21Z"/><path class="cls-3" d="M505.23,496.84l-.18-1.55H505a4.58,4.58,0,0,1-3.76,1.83,3.5,3.5,0,0,1-3.76-3.53c0-3,2.64-4.6,7.39-4.57v-.25a2.54,2.54,0,0,0-2.79-2.85,6.09,6.09,0,0,0-3.2.92l-.51-1.48a7.65,7.65,0,0,1,4-1.09c3.75,0,4.67,2.57,4.67,5v4.59a17.62,17.62,0,0,0,.2,2.95Zm-.33-6.27c-2.44-.05-5.2.38-5.2,2.77a2,2,0,0,0,2.1,2.13,3.05,3.05,0,0,0,3-2.06,2.22,2.22,0,0,0,.13-.71Z"/><path class="cls-3" d="M519.42,496.38a8.14,8.14,0,0,1-3.53.71c-3.7,0-6.12-2.51-6.12-6.27a6.24,6.24,0,0,1,6.61-6.52,7.52,7.52,0,0,1,3.09.63l-.5,1.73a5.16,5.16,0,0,0-2.59-.59c-2.82,0-4.35,2.09-4.35,4.65,0,2.84,1.83,4.6,4.27,4.6a6.31,6.31,0,0,0,2.74-.61Z"/><path class="cls-3" d="M524.25,490.19h0c.3-.43.73-1,1.09-1.4l3.6-4.24h2.7l-4.75,5.05,5.41,7.24h-2.72L525.39,491l-1.14,1.27v4.62H522v-18h2.21Z"/><path class="cls-3" d="M536.86,481.1a1.31,1.31,0,0,1-1.42,1.37,1.33,1.33,0,0,1-1.34-1.37,1.36,1.36,0,0,1,1.39-1.4A1.33,1.33,0,0,1,536.86,481.1Zm-2.48,15.74V484.55h2.23v12.29Z"/><path class="cls-3" d="M540.32,487.88c0-1.27,0-2.31-.11-3.33h2l.12,2h0a4.52,4.52,0,0,1,4.07-2.31c1.7,0,4.34,1,4.34,5.23v7.34h-2.24v-7.08c0-2-.73-3.63-2.84-3.63a3.18,3.18,0,0,0-3,2.28,3.26,3.26,0,0,0-.15,1v7.39h-2.23Z"/><path class="cls-3" d="M565,484.55c-.06.89-.11,1.88-.11,3.38v7.13c0,2.82-.56,4.55-1.75,5.61a6.5,6.5,0,0,1-4.47,1.48,8,8,0,0,1-4.09-1l.56-1.7a7,7,0,0,0,3.61,1c2.28,0,4-1.19,4-4.29v-1.37h-.05a4.38,4.38,0,0,1-3.91,2.06c-3,0-5.23-2.59-5.23-6,0-4.17,2.72-6.53,5.53-6.53a4.11,4.11,0,0,1,3.84,2.13h.05l.1-1.85Zm-2.32,4.85a3.18,3.18,0,0,0-.12-1,3.23,3.23,0,0,0-3.13-2.37c-2.13,0-3.65,1.81-3.65,4.65,0,2.41,1.22,4.42,3.63,4.42a3.28,3.28,0,0,0,3.1-2.29,4.08,4.08,0,0,0,.17-1.19Z"/><path class="cls-3" d="M371.82,544.32c-.13-2.38-.28-5.25-.26-7.38h-.07c-.59,2-1.3,4.13-2.16,6.5l-3,8.3h-1.68l-2.77-8.15c-.81-2.41-1.5-4.62-2-6.65h-.05c-.05,2.13-.18,5-.33,7.56l-.46,7.34h-2.1l1.19-17.11H361l2.92,8.27c.71,2.11,1.29,4,1.72,5.77h.08c.43-1.73,1-3.61,1.8-5.77l3-8.27h2.82l1.07,17.11h-2.16Z"/><path class="cls-3" d="M389,545.59c0,4.55-3.15,6.53-6.12,6.53-3.32,0-5.89-2.44-5.89-6.32,0-4.12,2.69-6.53,6.1-6.53S389,541.84,389,545.59Zm-9.75.13c0,2.69,1.55,4.72,3.74,4.72s3.73-2,3.73-4.77c0-2.08-1-4.72-3.68-4.72S379.25,543.39,379.25,545.72Z"/><path class="cls-3" d="M402.43,533.81v14.86c0,1.09,0,2.33.11,3.17h-2l-.1-2.13h-.05a4.56,4.56,0,0,1-4.19,2.41c-3,0-5.26-2.51-5.26-6.25,0-4.08,2.52-6.6,5.51-6.6a4.12,4.12,0,0,1,3.71,1.88h.05v-7.34Zm-2.23,10.74a4.29,4.29,0,0,0-.1-.94,3.29,3.29,0,0,0-3.23-2.59c-2.31,0-3.68,2-3.68,4.75,0,2.49,1.22,4.55,3.63,4.55a3.36,3.36,0,0,0,3.28-2.67,4.16,4.16,0,0,0,.1-1Z"/><path class="cls-3" d="M407.38,546.1c.05,3,2,4.27,4.22,4.27a8,8,0,0,0,3.4-.64l.38,1.6a9.89,9.89,0,0,1-4.09.76c-3.78,0-6-2.48-6-6.19s2.18-6.63,5.76-6.63c4,0,5.08,3.53,5.08,5.79a10,10,0,0,1-.07,1Zm6.55-1.6c0-1.42-.58-3.63-3.09-3.63-2.26,0-3.25,2.08-3.43,3.63Z"/><path class="cls-3" d="M418.86,533.81h2.23v18h-2.23Z"/><path class="cls-3" d="M430,544.15v1.65h-6.27v-1.65Z"/><path class="cls-3" d="M432.34,549.56a5.88,5.88,0,0,0,3,.88c1.62,0,2.38-.81,2.38-1.82s-.63-1.65-2.28-2.26c-2.21-.79-3.25-2-3.25-3.48,0-2,1.6-3.61,4.24-3.61a6.22,6.22,0,0,1,3,.76l-.56,1.63a4.72,4.72,0,0,0-2.51-.71c-1.32,0-2.06.76-2.06,1.67s.74,1.48,2.34,2.09c2.13.81,3.22,1.87,3.22,3.7,0,2.16-1.68,3.68-4.6,3.68a7.09,7.09,0,0,1-3.45-.83Z"/><path class="cls-3" d="M442.7,543.56c0-1.57-.05-2.84-.1-4h2l.1,2.11h.05a4.85,4.85,0,0,1,4.37-2.39c3,0,5.21,2.52,5.21,6.25,0,4.42-2.69,6.6-5.59,6.6a4.3,4.3,0,0,1-3.78-1.93h0v6.68H442.7Zm2.21,3.28a5.07,5.07,0,0,0,.1.91,3.44,3.44,0,0,0,3.35,2.62c2.36,0,3.73-1.93,3.73-4.75,0-2.46-1.29-4.57-3.65-4.57a3.56,3.56,0,0,0-3.38,2.77,3.47,3.47,0,0,0-.15.91Z"/><path class="cls-3" d="M458.39,546.1c.05,3,2,4.27,4.21,4.27a8,8,0,0,0,3.4-.64l.39,1.6a9.93,9.93,0,0,1-4.09.76c-3.79,0-6.05-2.48-6.05-6.19s2.19-6.63,5.77-6.63c4,0,5.08,3.53,5.08,5.79a7.43,7.43,0,0,1-.08,1Zm6.55-1.6c0-1.42-.59-3.63-3.1-3.63-2.26,0-3.25,2.08-3.43,3.63Z"/><path class="cls-3" d="M478.62,551.38a8.14,8.14,0,0,1-3.53.71c-3.7,0-6.12-2.51-6.12-6.27a6.24,6.24,0,0,1,6.61-6.52,7.52,7.52,0,0,1,3.09.63l-.5,1.73a5.16,5.16,0,0,0-2.59-.59c-2.82,0-4.35,2.09-4.35,4.65,0,2.84,1.83,4.6,4.27,4.6a6.31,6.31,0,0,0,2.74-.61Z"/><path class="cls-3" d="M483.73,536.1a1.39,1.39,0,0,1-2.77,0,1.36,1.36,0,0,1,1.39-1.4A1.33,1.33,0,0,1,483.73,536.1Zm-2.49,15.74V539.55h2.23v12.29Z"/><path class="cls-3" d="M487.41,551.84V541.25h-1.73v-1.7h1.73v-.66c0-3.25,1.9-5.36,5.35-5.36a6.14,6.14,0,0,1,3.13.82l-.64,1.7a4.7,4.7,0,0,0-2.59-.71c-2.36,0-3,1.65-3,3.6v.61h7.13v12.29h-2.21V541.25h-4.92v10.59Z"/><path class="cls-3" d="M509.22,551.38a8.18,8.18,0,0,1-3.53.71c-3.71,0-6.12-2.51-6.12-6.27a6.24,6.24,0,0,1,6.6-6.52,7.57,7.57,0,0,1,3.1.63l-.51,1.73a5.1,5.1,0,0,0-2.59-.59c-2.82,0-4.34,2.09-4.34,4.65,0,2.84,1.83,4.6,4.26,4.6a6.31,6.31,0,0,0,2.74-.61Z"/><path class="cls-3" d="M526,551.38a8.14,8.14,0,0,1-3.53.71c-3.7,0-6.12-2.51-6.12-6.27a6.24,6.24,0,0,1,6.6-6.52,7.53,7.53,0,0,1,3.1.63l-.51,1.73a5.1,5.1,0,0,0-2.59-.59c-2.81,0-4.34,2.09-4.34,4.65,0,2.84,1.83,4.6,4.27,4.6a6.31,6.31,0,0,0,2.74-.61Z"/><path class="cls-3" d="M535.39,551.84l-.18-1.55h-.07a4.58,4.58,0,0,1-3.76,1.83,3.5,3.5,0,0,1-3.76-3.53c0-3,2.64-4.6,7.39-4.57v-.25a2.54,2.54,0,0,0-2.79-2.85,6.09,6.09,0,0,0-3.2.92l-.51-1.48a7.65,7.65,0,0,1,4-1.09c3.75,0,4.67,2.57,4.67,5v4.59a17.62,17.62,0,0,0,.2,3Zm-.33-6.27c-2.44-.05-5.2.38-5.2,2.77a2,2,0,0,0,2.1,2.13,3.05,3.05,0,0,0,3-2.06,2.22,2.22,0,0,0,.13-.71Z"/><path class="cls-3" d="M540.82,542.88c0-1.27,0-2.31-.1-3.33h2l.1,2h.07a4.24,4.24,0,0,1,3.86-2.26,3.63,3.63,0,0,1,3.48,2.46h0a5.16,5.16,0,0,1,1.37-1.59,4.2,4.2,0,0,1,2.72-.87c1.63,0,4,1.07,4,5.33v7.24h-2.19v-7c0-2.36-.86-3.78-2.66-3.78a2.89,2.89,0,0,0-2.64,2,3.75,3.75,0,0,0-.18,1.12v7.59h-2.18v-7.36c0-2-.87-3.38-2.57-3.38a3.07,3.07,0,0,0-2.77,2.23,3.29,3.29,0,0,0-.17,1.1v7.41h-2.19Z"/><path class="cls-3" d="M562,543.56c0-1.57,0-2.84-.1-4h2l.1,2.11h0a4.84,4.84,0,0,1,4.37-2.39c3,0,5.21,2.52,5.21,6.25,0,4.42-2.7,6.6-5.59,6.6a4.29,4.29,0,0,1-3.78-1.93h0v6.68H562Zm2.21,3.28a5.07,5.07,0,0,0,.1.91,3.44,3.44,0,0,0,3.35,2.62c2.36,0,3.73-1.93,3.73-4.75,0-2.46-1.29-4.57-3.65-4.57a3.56,3.56,0,0,0-3.38,2.77,3.47,3.47,0,0,0-.15.91Z"/><path class="cls-3" d="M583.25,551.84l-.18-1.55H583a4.54,4.54,0,0,1-3.75,1.83,3.5,3.5,0,0,1-3.76-3.53c0-3,2.64-4.6,7.39-4.57v-.25a2.54,2.54,0,0,0-2.8-2.85,6.14,6.14,0,0,0-3.2.92l-.5-1.48a7.58,7.58,0,0,1,4-1.09c3.76,0,4.68,2.57,4.68,5v4.59a17.62,17.62,0,0,0,.2,3Zm-.33-6.27c-2.44-.05-5.21.38-5.21,2.77a2,2,0,0,0,2.11,2.13,3.06,3.06,0,0,0,3-2.06,2.22,2.22,0,0,0,.13-.71Z"/><path class="cls-3" d="M591.17,536.1a1.39,1.39,0,0,1-2.77,0,1.36,1.36,0,0,1,1.4-1.4A1.33,1.33,0,0,1,591.17,536.1Zm-2.49,15.74V539.55h2.23v12.29Z"/><path class="cls-3" d="M605.21,539.55c-.05.89-.1,1.88-.1,3.38v7.13c0,2.82-.56,4.55-1.76,5.61a6.49,6.49,0,0,1-4.46,1.48,7.92,7.92,0,0,1-4.09-1l.56-1.7a6.89,6.89,0,0,0,3.6,1c2.29,0,4-1.19,4-4.29v-1.37h0a4.36,4.36,0,0,1-3.91,2.06c-3.05,0-5.23-2.59-5.23-6,0-4.17,2.72-6.53,5.54-6.53a4.09,4.09,0,0,1,3.83,2.13h0l.1-1.85Zm-2.31,4.85a3.17,3.17,0,0,0-.13-1,3.22,3.22,0,0,0-3.12-2.37c-2.14,0-3.66,1.81-3.66,4.65,0,2.41,1.22,4.42,3.63,4.42a3.27,3.27,0,0,0,3.1-2.29,3.78,3.78,0,0,0,.18-1.19Z"/><path class="cls-3" d="M608.66,542.88c0-1.27,0-2.31-.1-3.33h2l.12,2h.06a4.51,4.51,0,0,1,4.06-2.31c1.7,0,4.34,1,4.34,5.23v7.34h-2.23v-7.08c0-2-.74-3.63-2.85-3.63a3.17,3.17,0,0,0-3,2.28,3,3,0,0,0-.16,1v7.39h-2.23Z"/><path class="cls-3" d="M622.45,549.56a5.84,5.84,0,0,0,2.94.88c1.63,0,2.39-.81,2.39-1.82s-.64-1.65-2.29-2.26c-2.21-.79-3.25-2-3.25-3.48,0-2,1.6-3.61,4.24-3.61a6.16,6.16,0,0,1,3,.76l-.55,1.63a4.79,4.79,0,0,0-2.52-.71c-1.32,0-2.06.76-2.06,1.67s.74,1.48,2.34,2.09c2.13.81,3.23,1.87,3.23,3.7,0,2.16-1.68,3.68-4.6,3.68a7.06,7.06,0,0,1-3.45-.83Z"/><path class="cls-3" d="M181.55,76.37h2.51a36.84,36.84,0,0,1-.63,3.76,13.93,13.93,0,0,1-27.2-1.71,18.37,18.37,0,0,1-.16-2.46c0-4.71,0-9.42,0-14.14v-1h-5.53a2.31,2.31,0,0,0-.09.43c0,5.37-.1,10.73.05,16.1a19.56,19.56,0,0,0,38.72,2.82,18.37,18.37,0,0,0,.4-3.54c0-5.09,0-10.17,0-15.25,0-.17,0-.33,0-.56h-5.51v2.71h4.3l-5.66,9.81c-1.89-3.28-3.73-6.45-5.64-9.77h4.42V47.51c0-1.51.36-1.87,1.84-1.87h7.07c1.23,0,1.63.39,1.63,1.62q0,14.75,0,29.47a22,22,0,0,1-43.5,4.46,21.09,21.09,0,0,1-.52-4.55c-.05-9.74,0-19.48,0-29.22,0-1.46.32-1.78,1.8-1.78h7c1.33,0,1.71.37,1.71,1.72V76.23a11.51,11.51,0,0,0,23,.74C181.51,76.8,181.53,76.64,181.55,76.37ZM150.48,58.21H156v-10h-5.53Zm39.09,0V48.18h-5.49V58.24Z"/><path class="cls-3" d="M152.4,43h-7.82c-1.2,0-1.59-.38-1.58-1.58a63,63,0,0,1,.15-6.45A6.72,6.72,0,0,1,149.42,29a34.85,34.85,0,0,1,6.62.11A6.88,6.88,0,0,1,161.88,36c0,1.81,0,3.63,0,5.45,0,1.21-.36,1.58-1.56,1.58Zm-6.84-2.52h13.9c0-1.58.08-3.08,0-4.58a4.65,4.65,0,0,0-4.82-4.49c-1.51,0-3,0-4.51,0a4.46,4.46,0,0,0-4.51,3.63A44.64,44.64,0,0,0,145.56,40.48Z"/><path class="cls-3" d="M187.55,43h-7.83c-1.24,0-1.63-.39-1.62-1.63,0-2.12-.08-4.26.14-6.37a6.9,6.9,0,0,1,6.85-6,47.42,47.42,0,0,1,6.2.17A6.88,6.88,0,0,1,197,35.84c0,1.9,0,3.8,0,5.7,0,1-.4,1.43-1.43,1.46h-8Zm7-2.48c0-1.67.1-3.26,0-4.84a4.56,4.56,0,0,0-4.5-4.26c-1.65-.05-3.29,0-4.94,0a4.53,4.53,0,0,0-4.24,3.11c-.61,2-.19,4-.31,6Z"/><path class="cls-3" d="M187.61,18.38a4.9,4.9,0,1,1-4.94,4.85A4.81,4.81,0,0,1,187.61,18.38Zm2.4,4.95a2.47,2.47,0,0,0-2.41-2.55,2.54,2.54,0,0,0-2.53,2.45,2.48,2.48,0,0,0,2.39,2.49A2.45,2.45,0,0,0,190,23.33Z"/><path class="cls-3" d="M157.33,23.25a4.9,4.9,0,1,1-4.84-4.87A4.87,4.87,0,0,1,157.33,23.25Zm-2.43.05a2.47,2.47,0,0,0-2.44-2.52,2.48,2.48,0,1,0,0,4.95A2.46,2.46,0,0,0,154.9,23.3Z"/><path class="cls-3" d="M206.1,290.19,204.57,292l-4.85-4.88-5,5L193.09,290l4.67-4.63-4.89-4.85,1.78-1.82,4.8,4.88,4.78-5,1.87,1.6v.37l-4.95,4.72L206.1,290Z"/><path class="cls-3" d="M206.1,240.53l-1.62,1.5-4.77-4.78-5,5-1.65-2,4.7-4.67-5-4.93,1.81-1.67,4.64,4.82,5-5,1.87,1.66v.19l-4.58,4.82,4.58,4.81Z"/><path class="cls-3" d="M150.32,216.45c3.27,0,6.38,0,9.49,0a23.34,23.34,0,0,1,9.83,1.92,16,16,0,0,1,9.77,12.85,34.88,34.88,0,0,0,4.18,12,8.22,8.22,0,0,1,.42.84,2.5,2.5,0,0,1-2.3,3.71h-2v1.53c0,1.89.08,3.77.06,5.66a5.12,5.12,0,0,1-5.26,5.15h-3.82c0,1.44,0,2.79,0,4.13a4.17,4.17,0,0,1-1,3.32,3.7,3.7,0,0,1-2.85,1c-4,0-8.06,0-12.09,0a1.13,1.13,0,0,0-1.25.81,4.77,4.77,0,0,1-5.53,2.72,4.87,4.87,0,0,1,0-9.49,4.78,4.78,0,0,1,5.51,2.76,1.08,1.08,0,0,0,1.18.77c4,0,8.06,0,12.09,0,1.26,0,1.45-.2,1.45-1.5s0-2.77,0-4.15a2.43,2.43,0,0,1,2.71-2.75c1.1,0,2.21,0,3.31,0a2.79,2.79,0,0,0,3.08-3.1c0-2.14,0-4.28,0-6.42,0-2,.83-2.78,2.82-2.78h1.67c-.19-.45-.31-.78-.47-1.1-1.47-2.92-3.1-5.77-3.73-9-.32-1.66-.48-3.37-.92-5-1.71-6.42-6.07-10-12.48-11a69.44,69.44,0,0,0-9-.34c-1.59,0-3.19,0-4.91,0v4.38l-9.72-5.66,9.72-5.56Zm1.26,51a2.44,2.44,0,0,0-2.36-2.53,2.46,2.46,0,1,0-.15,4.91A2.43,2.43,0,0,0,151.58,267.42Z"/><path class="cls-3" d="M154.46,240.94c.32-1.93.51-3.71.94-5.43a3.2,3.2,0,0,0-1.13-3.76,44,44,0,0,1-3.86-4,27.91,27.91,0,0,1,4.28-.6,4.38,4.38,0,0,0,4.66-3.37A29.71,29.71,0,0,1,161.2,220s.1-.06.24-.14c.87,1.76,1.83,3.49,2.57,5.3A2.68,2.68,0,0,0,166.6,227c1.9.15,3.79.52,5.87.83l-2.79,2.8a10.81,10.81,0,0,1-1.43,1.36c-1.23.84-1.33,1.9-1,3.26.43,1.82.66,3.69,1,5.72-2.12-1.12-4.08-2.11-6-3.17a1.62,1.62,0,0,0-1.79,0C158.54,238.83,156.58,239.83,154.46,240.94Zm3.23-4.46c1.07-.56,1.95-1,2.78-1.47a1.47,1.47,0,0,1,1.73,0c.85.52,1.76.93,2.8,1.48-.19-1.18-.32-2.21-.54-3.21a1.36,1.36,0,0,1,.47-1.47c.75-.7,1.41-1.48,2.17-2.29-1-.16-2-.37-3.07-.45a1.35,1.35,0,0,1-1.25-.93c-.42-.92-.9-1.82-1.42-2.88-.56,1.1-1.05,2-1.47,2.94a1.29,1.29,0,0,1-1.19.86c-1,.1-2.07.3-3,.45.74.82,1.38,1.64,2.14,2.33a1.31,1.31,0,0,1,.43,1.41C158.05,234.24,157.9,235.26,157.69,236.48Z"/><path class="cls-3" d="M198.28,256H193.9l5.63-9.67,5.56,9.69h-4.36v15h-2.45Z"/><path class="cls-3" d="M187.39,287.07H172.88v4.43l-9.77-5.69,9.72-5.56v4.37h14.56Z"/><path class="cls-3" d="M148.66,292.05c-.27-.23-.37-.3-.46-.39l-1.68-1.6,4.9-4.7-4.77-4.73,2-2.05,4.71,4.75,4.65-4.68,1.92,2-4.63,4.54,4.75,4.72-2.08,2-4.58-4.67Z"/><path class="cls-3" d="M177.13,471.51v9.22h5.5v2.63h-30V480.8h5.5v-9.29H136.57a6.24,6.24,0,0,1-6.52-5.36,7.59,7.59,0,0,1-.06-1.07V420.36a6.14,6.14,0,0,1,6.38-6.4h43.56c.66,0,1-.11,1.29-.83a5.25,5.25,0,0,1,9.86.1.94.94,0,0,0,1.08.73c2.23,0,4.46,0,6.68,0A6,6,0,0,1,205.2,420c.1,6.17,0,12.35,0,18.53a1.73,1.73,0,0,1-.08.38h-2.53V420.87c0-2.9-1.39-4.29-4.31-4.3-2.11,0-4.22,0-6.33,0a.91.91,0,0,0-1,.62,5.29,5.29,0,0,1-9.69,0,.92.92,0,0,0-1-.62H136.37a3.56,3.56,0,0,0-3.74,3.85v44.45a3.63,3.63,0,0,0,4,4c5.19,0,10.39,0,15.59,0q23,0,46.05,0a6.32,6.32,0,0,0,2.64-.59,3.07,3.07,0,0,0,1.7-2.84c0-3.32,0-6.65,0-10.07h-4.83l6.18-10.6,6,10.55h-4.71c0,.43,0,.75,0,1.06,0,2.85,0,5.7,0,8.55a6.26,6.26,0,0,1-6.6,6.61H177.13Zm-16.31,9.16h13.59v-9.09H160.82Zm25.28-62.94a2.68,2.68,0,0,0,2.71-2.61,2.71,2.71,0,0,0-2.69-2.73,2.76,2.76,0,0,0-2.69,2.67A2.71,2.71,0,0,0,186.1,417.73Z"/><path class="cls-3" d="M139.4,435.25l40.08-10.47V461l-11.17-2.9v5.2H146.23v-11c-2-.54-4-1.1-6-1.57-.63-.15-.85-.38-.84-1,0-4.54,0-9.09,0-13.63Zm2.65,13.25,34.74,9.07V428.24l-.49.11-13.24,3.46-20.3,5.3c-.39.1-.73.14-.72.69C142.06,441.33,142.05,444.86,142.05,448.5Zm23.63,12.15c0-.9,0-1.7,0-2.5,0-.59-.2-.81-.76-.95-3.79-1-7.56-2-11.34-2.95L148.91,453v7.62Z"/><path class="cls-3" d="M182.72,452.4v-2.52h11.46v2.52Z"/><path class="cls-3" d="M182.72,433.38h11.49v2.49H182.72Z"/><path class="cls-3" d="M182.71,444.14v-2.5h11.48v2.5Z"/></svg>