<svg id="Layer_1" data-name="Layer 1" xmlns="http://www.w3.org/2000/svg" width="100" height="100" viewBox="0 0 100 100"><title>scalability</title><path d="M13.64,87.83V4.69h1.5q31.39,0,62.8,0a1.53,1.53,0,0,0,1.71-1.1A6,6,0,0,1,85.8.06,6.26,6.26,0,0,1,91.3,5.8a6.05,6.05,0,0,1-3.93,6c-1,.35-1.2.85-1.2,1.82q0,39.86,0,79.71v1.55H21c-.54,2-1.51,3.7-3.43,4.47a7.25,7.25,0,0,1-3.44.57A6,6,0,0,1,8.7,94.29C8.45,91.52,10.26,89.12,13.64,87.83ZM26.41,27.59l6-10.49,6,10.49h-5V63.72c0,1.94,0,3.88,0,5.82,0,.3.21.8.42.86a6.44,6.44,0,0,1,4.53,4.78H64v-5L74.56,76.3,63.94,82.42v-5a1.87,1.87,0,0,0-.32-.09c-8.14,0-16.27,0-24.41,0a1.27,1.27,0,0,0-.89.7c-1.46,3.94-5,5.42-8.81,3.69a1.17,1.17,0,0,0-1,.11c-2.87,2.82-5.7,5.69-8.56,8.57a5.07,5.07,0,0,1,.6,1.3c.16,1.13.85,1.21,1.8,1.21q30.18,0,60.34,0h1.42c0-.4.06-.62.06-.84q0-39.46,0-78.93A1,1,0,0,0,83.3,12a5.58,5.58,0,0,1-4-4.06c-.25-1-.64-1.19-1.56-1.19q-30.33,0-60.67,0H15.89V87.8l2.67,1.09c2.7-2.73,5.41-5.51,8.16-8.24A1.17,1.17,0,0,0,27,79a6,6,0,0,1,3.32-8.35,1.39,1.39,0,0,0,1.1-1.58q0-20.1,0-40.19V27.59Zm10,48.75a4,4,0,0,0-4-4,4,4,0,0,0-.07,8A4,4,0,0,0,36.45,76.34ZM18.81,94a4,4,0,1,0-7.95,0,3.9,3.9,0,0,0,3.9,4A3.88,3.88,0,0,0,18.81,94ZM85.18,2.19a3.89,3.89,0,0,0-4,3.91,4,4,0,1,0,8,.15A3.9,3.9,0,0,0,85.18,2.19Z"/></svg>