<svg id="Layer_1" data-name="Layer 1" xmlns="http://www.w3.org/2000/svg" width="100" height="100" viewBox="0 0 100 100"><title>Optimization</title><path d="M13.08,50.73c.28-1.85.48-3.7.86-5.52A36.42,36.42,0,0,1,27.07,23.86l.55-.46a1.67,1.67,0,0,0,.21-.29l-5.62-6.79-3.89,3.19-2-2.36,10-8.38,2,2.36L24.6,14.32l5.88,7.1a35,35,0,0,1,13-4.94c1.34-.21,1.64-.7,1.6-2-.09-3.36,0-6.73,0-10.1V3H38.15V0H61.71V3h-6.8c0,.48-.09.83-.09,1.18,0,3.61,0,7.21,0,10.82,0,1,.28,1.26,1.25,1.42A35.32,35.32,0,0,1,68.7,21l1.09.63,6.06-7.34-3.76-3.16,2-2.4,10,8.39-2,2.38-3.87-3.21-5.81,7c14.38,12.86,17.83,28.13,10.47,46,1.49-.58,1.81.63,2.22,1.58.65,1.49,1.19,3,1.78,4.56V76c-1.37.86-2.48,1.57-2.58,3.67a4.68,4.68,0,0,0,2.58,4.75v.48c-.68,1.65-1.38,3.3-2,5-.35.88-.9,1.31-1.84,1a2.93,2.93,0,0,0-3.64,1.37.88.88,0,0,1-.25.26,3.08,3.08,0,0,0-1.42,3.86A1.18,1.18,0,0,1,76.91,98c-1.56.61-3.12,1.24-4.65,1.91a1.08,1.08,0,0,1-1.52-.48c-.06-.1-.17-.17-.23-.27a2.66,2.66,0,0,0-3.33-1.52h-.12a3.66,3.66,0,0,0-4.37,1.93,1.29,1.29,0,0,1-1.17.35c-1.65-.59-3.26-1.31-4.89-2-.64-.26-1-.66-.77-1.38a3.33,3.33,0,0,0-1.57-4.15.3.3,0,0,1-.08-.08,2.87,2.87,0,0,0-3.62-1.43,1.38,1.38,0,0,1-1.86-1q-.84-2.25-1.76-4.45a1.1,1.1,0,0,1,.49-1.61,3.14,3.14,0,0,0,1.7-3.73.65.65,0,0,1,0-.24,2.74,2.74,0,0,0-1.56-3.3,1.31,1.31,0,0,1-.6-1.9q1-2.31,1.93-4.64a1,1,0,0,1,1.32-.68,3.7,3.7,0,0,0,.48.06c1.28.27,2.46.25,3.17-1.13a.55.55,0,0,1,.17-.17,3.85,3.85,0,0,0,1.83-4.55,1.28,1.28,0,0,1,.58-1.09c1.62-.76,3.31-1.4,5-2.11a1,1,0,0,1,1.39.49c.91,1.7,2.33,2,4.17,2,1.67,0,2.83-.39,3.64-1.82a1.26,1.26,0,0,1,1.81-.55c1.54.66,3.07,1.32,4.63,2a1,1,0,0,1,.69,1.32c0,.12,0,.25,0,.36-.7,2,.46,3.09,2,4,7.11-12.55,5-32.27-10.77-43.18a33.77,33.77,0,0,0-46.78,8.73C11.53,49.26,16.3,68.82,28.24,78.25l4-3.63C33.54,79,34.83,83.4,36.2,88.06L22.36,84.68l3.78-4a37.63,37.63,0,0,1-8-9.62,36.16,36.16,0,0,1-4.85-15.94,4.76,4.76,0,0,0-.19-.79ZM83.36,74.87c-.72-2.42-.72-2.42-2.93-2.16h-.12c-.72.22-1.13-.08-1.58-.66a13.37,13.37,0,0,0-2.87-3,2.81,2.81,0,0,1-1.4-3.37c.25-1-.29-1.31-1.06-1.67a1.14,1.14,0,0,0-1.67.54c-.19.3-.5.52-.68.83-.41.69-.92.77-1.71.66a12,12,0,0,0-4-.1,2.87,2.87,0,0,1-3.53-1.52c-.37-.64-.81-.66-1.5-.43-1,.35-1.41.87-1.11,1.94A2.29,2.29,0,0,1,58,68.8a9,9,0,0,0-2.62,2.6,2.42,2.42,0,0,1-3,1.25,1.34,1.34,0,0,0-1.84,1c-.3.83-.23,1.37.52,1.8a2.52,2.52,0,0,1,1.28,3.28,5.3,5.3,0,0,0,0,2.74A2.7,2.7,0,0,1,51,84.9c-.66.37-.7.88-.44,1.61.34,1,.81,1.34,1.83,1.08a2.42,2.42,0,0,1,3,1.23,7.78,7.78,0,0,0,2.52,2.52,2.57,2.57,0,0,1,1.24,3.2c-.18.74-.11,1.28.76,1.57s1.42.63,1.93-.35c.18-.35.55-.59.76-.93a1.39,1.39,0,0,1,1.61-.62,11.7,11.7,0,0,0,3.81.18c1.73-.35,3-.16,3.87,1.5.42.82,1,.52,1.64.27s1.2-.47,1-1.36c-.11-.41,0-.88-.11-1.31a1.55,1.55,0,0,1,.75-1.69,14.12,14.12,0,0,0,3.09-3,2.6,2.6,0,0,1,3.1-1.23c.93.23,1.35-.1,1.7-1s.28-1.35-.49-1.79a2.45,2.45,0,0,1-1.36-3.13,4.19,4.19,0,0,0,.11-2C80.84,77.57,80.93,75.72,83.36,74.87ZM48.24,3.13V15.82H51.7V3.13Z"/><path d="M28.47,41.17,30,38.58c.4.22.75.4,1.08.6,4.39,2.63,8.79,5.26,13.16,7.93A1.3,1.3,0,0,0,46.1,47a6.17,6.17,0,0,1,10,5.46,6.18,6.18,0,0,1-12.31-1,1.35,1.35,0,0,0-.77-1.5q-6.76-4-13.49-8.1C29.19,41.64,28.86,41.42,28.47,41.17Zm21.42,7.56a3.15,3.15,0,0,0-3.1,3.17A3.26,3.26,0,0,0,49.91,55a3.22,3.22,0,0,0,3.14-3.16A3.1,3.1,0,0,0,49.89,48.73Z"/><path d="M66.75,90.41A10.37,10.37,0,0,1,56.39,80.12a10.42,10.42,0,0,1,20.83,0A10.36,10.36,0,0,1,66.75,90.41Zm0-3.08a7.3,7.3,0,0,0,7.36-7.28,7.31,7.31,0,0,0-14.61,0A7.28,7.28,0,0,0,66.75,87.33Z"/></svg>