<svg id="Layer_1" data-name="Layer 1" xmlns="http://www.w3.org/2000/svg" viewBox="0 0 350.5 266.67"><defs><style>.cls-1{fill:#09321d;}.cls-2{fill:#fff;}</style></defs><title>screen-convergence</title><path class="cls-1" d="M267,3.27l83.5,83.5L267,170.27l-83.49-83.5Z"/><path class="cls-1" d="M175.19,97.67l83.5,83.5-83.5,83.5-83.5-83.5Z"/><path class="cls-1" d="M167.31,88,83.82,171.53.32,88l83.5-83.5Z"/><path class="cls-2" d="M59.88,110.86c-.05-1-.11-2.22-.1-3.28h0c-.26,1-.58,2-.93,3L57.68,114h-1.1l-1-3.34c-.3-1-.58-2.06-.79-3h0c0,1-.08,2.26-.14,3.33l-.18,3.14H53.08l.52-7.81h1.88l1,3.14c.28.92.52,1.85.72,2.71h0c.21-.84.48-1.8.78-2.72l1.08-3.13H61l.45,7.81H60Z"/><path class="cls-2" d="M67.87,112.36c0,.67,0,1.23,0,1.69H66.66l-.07-.85h0a2,2,0,0,1-1.81,1c-1,0-2-.61-2-2.46v-3.31h1.43v3.07c0,.94.3,1.54,1,1.54a1.19,1.19,0,0,0,1.09-.76,1.23,1.23,0,0,0,.08-.44v-3.41h1.43Z"/><path class="cls-2" d="M69.41,105.82h1.44v8.23H69.41Z"/><path class="cls-2" d="M74,106.79v1.62h1.36v1.06H74V112c0,.68.18,1,.73,1a2,2,0,0,0,.56-.07l0,1.09a3.16,3.16,0,0,1-1,.14,1.66,1.66,0,0,1-1.23-.46,2.28,2.28,0,0,1-.44-1.58v-2.66h-.81v-1.06h.81v-1.28Z"/><path class="cls-2" d="M78,106.83a.77.77,0,0,1-.82.77.75.75,0,0,1-.78-.77.76.76,0,0,1,.8-.78A.77.77,0,0,1,78,106.83Zm-1.52,7.22v-5.64H77.9v5.64Z"/><path class="cls-2" d="M82,110.47v1H79v-1Z"/><path class="cls-2" d="M83,112.74a3.13,3.13,0,0,0,1.45.41c.63,0,.9-.25.9-.63s-.23-.58-.92-.82c-1.11-.38-1.57-1-1.56-1.65A1.9,1.9,0,0,1,85,108.28a3.21,3.21,0,0,1,1.49.34l-.28,1a2.61,2.61,0,0,0-1.19-.32c-.51,0-.79.24-.79.59s.27.53,1,.79c1,.37,1.49.89,1.5,1.73,0,1-.8,1.76-2.29,1.76a3.67,3.67,0,0,1-1.72-.39Z"/><path class="cls-2" d="M92.08,113.88a4.09,4.09,0,0,1-1.6.29,2.71,2.71,0,0,1-2.91-2.88,2.92,2.92,0,0,1,3.14-3,3.56,3.56,0,0,1,1.38.27l-.25,1.06a2.62,2.62,0,0,0-1.08-.22,1.83,1.83,0,0,0,0,3.66,2.68,2.68,0,0,0,1.12-.23Z"/><path class="cls-2" d="M93.14,110.23c0-.77,0-1.31,0-1.82h1.24l0,1.08h0A1.69,1.69,0,0,1,96,108.28a1.72,1.72,0,0,1,.34,0v1.35a2.09,2.09,0,0,0-.42,0,1.26,1.26,0,0,0-1.27,1.08,2,2,0,0,0,0,.44v2.92H93.14Z"/><path class="cls-2" d="M98.17,111.63a1.53,1.53,0,0,0,1.74,1.46,4.24,4.24,0,0,0,1.56-.25l.21,1a5.23,5.23,0,0,1-2,.35,2.67,2.67,0,0,1-2.91-2.85,2.8,2.8,0,0,1,2.76-3A2.46,2.46,0,0,1,102,111a3.84,3.84,0,0,1,0,.6Zm2.48-1a1.22,1.22,0,0,0-1.17-1.38,1.4,1.4,0,0,0-1.31,1.38Z"/><path class="cls-2" d="M104.16,111.63a1.53,1.53,0,0,0,1.73,1.46,4.3,4.3,0,0,0,1.57-.25l.21,1a5.27,5.27,0,0,1-2,.35,2.67,2.67,0,0,1-2.91-2.85,2.8,2.8,0,0,1,2.76-3A2.45,2.45,0,0,1,108,111a4.11,4.11,0,0,1,0,.6Zm2.48-1a1.22,1.22,0,0,0-1.17-1.38,1.38,1.38,0,0,0-1.31,1.38Z"/><path class="cls-2" d="M109.13,110.09c0-.65,0-1.2,0-1.68h1.25l.07.84h0a2,2,0,0,1,1.8-1c1,0,2,.64,2,2.42v3.35h-1.43v-3.19c0-.81-.3-1.42-1.08-1.42a1.18,1.18,0,0,0-1.11.83,1.38,1.38,0,0,0-.06.47v3.31h-1.44Z"/><path class="cls-2" d="M53.37,125.55A1.53,1.53,0,0,0,55.11,127a4.24,4.24,0,0,0,1.56-.25l.21,1a5.23,5.23,0,0,1-2,.35A2.67,2.67,0,0,1,52,125.24a2.8,2.8,0,0,1,2.76-3A2.46,2.46,0,0,1,57.2,125a3.72,3.72,0,0,1-.05.6Zm2.48-1a1.22,1.22,0,0,0-1.17-1.38,1.4,1.4,0,0,0-1.31,1.38Z"/><path class="cls-2" d="M58.35,124c0-.65,0-1.19-.05-1.68h1.25l.07.84h0a2,2,0,0,1,1.79-1c1,0,2,.64,2,2.42V128H62v-3.19c0-.82-.3-1.43-1.07-1.43a1.21,1.21,0,0,0-1.12.83,1.73,1.73,0,0,0-.06.47V128H58.35Z"/><path class="cls-2" d="M70.14,122.33c0,.38,0,.84,0,1.62v3.2a3.27,3.27,0,0,1-.84,2.56,3.2,3.2,0,0,1-2.18.69,4,4,0,0,1-2-.45l.31-1.08a3.42,3.42,0,0,0,1.65.43,1.5,1.5,0,0,0,1.62-1.71v-.48h0a1.91,1.91,0,0,1-1.65.83,2.51,2.51,0,0,1-2.4-2.76,2.7,2.7,0,0,1,2.57-3,1.79,1.79,0,0,1,1.63.88h0l.06-.75Zm-1.47,2.26a1.28,1.28,0,0,0-1.21-1.3c-.8,0-1.39.7-1.39,1.84,0,1,.49,1.74,1.38,1.74a1.2,1.2,0,0,0,1.16-.85,2.22,2.22,0,0,0,.06-.51Z"/><path class="cls-2" d="M74.81,128l-.1-.63h0a2.1,2.1,0,0,1-1.67.75,1.68,1.68,0,0,1-1.78-1.68c0-1.43,1.27-2.14,3.36-2.13v-.1c0-.37-.15-1-1.15-1a2.92,2.92,0,0,0-1.52.42l-.28-.93a4,4,0,0,1,2-.5A2.11,2.11,0,0,1,76,124.58v2a10.36,10.36,0,0,0,.08,1.36Zm-.19-2.76c-1,0-2,.19-2,1a.75.75,0,0,0,.81.81,1.14,1.14,0,0,0,1.11-.77,1,1,0,0,0,.05-.32Z"/><path class="cls-2" d="M82.68,122.33c0,.38,0,.84,0,1.62v3.2a3.27,3.27,0,0,1-.84,2.56,3.2,3.2,0,0,1-2.18.69,4,4,0,0,1-2-.45l.31-1.08a3.42,3.42,0,0,0,1.65.43,1.5,1.5,0,0,0,1.62-1.71v-.48h0a1.93,1.93,0,0,1-1.65.83,2.51,2.51,0,0,1-2.4-2.76,2.7,2.7,0,0,1,2.57-3,1.79,1.79,0,0,1,1.63.88h0l.06-.75Zm-1.47,2.26a1.28,1.28,0,0,0-1.21-1.3c-.8,0-1.39.7-1.39,1.84,0,1,.49,1.74,1.38,1.74a1.2,1.2,0,0,0,1.16-.85,2.22,2.22,0,0,0,.06-.51Z"/><path class="cls-2" d="M85.18,125.55c0,1,.83,1.46,1.74,1.46a4.28,4.28,0,0,0,1.56-.25l.21,1a5.27,5.27,0,0,1-2,.35,2.67,2.67,0,0,1-2.91-2.85,2.8,2.8,0,0,1,2.76-3A2.45,2.45,0,0,1,89,125a4,4,0,0,1,0,.6Zm2.48-1a1.22,1.22,0,0,0-1.17-1.38,1.4,1.4,0,0,0-1.31,1.38Z"/><path class="cls-2" d="M90.16,124c0-.65,0-1.19,0-1.68h1.23l.06.83h0a2,2,0,0,1,1.74-1,1.65,1.65,0,0,1,1.57,1h0a2.13,2.13,0,0,1,.7-.7,1.87,1.87,0,0,1,1.13-.34c.94,0,1.89.64,1.89,2.45V128H97.09v-3.12c0-.94-.32-1.5-1-1.5a1.09,1.09,0,0,0-1,.75,2.41,2.41,0,0,0-.07.48V128H93.62V124.7c0-.78-.31-1.34-1-1.34a1.12,1.12,0,0,0-1,.81,1.19,1.19,0,0,0-.08.47V128H90.16Z"/><path class="cls-2" d="M101,125.55a1.54,1.54,0,0,0,1.74,1.46,4.34,4.34,0,0,0,1.57-.25l.2,1a5.19,5.19,0,0,1-2,.35,2.67,2.67,0,0,1-2.91-2.85,2.8,2.8,0,0,1,2.76-3,2.46,2.46,0,0,1,2.44,2.75,3.72,3.72,0,0,1,0,.6Zm2.48-1a1.22,1.22,0,0,0-1.17-1.38,1.4,1.4,0,0,0-1.31,1.38Z"/><path class="cls-2" d="M106,124c0-.65,0-1.19,0-1.68h1.25l.07.84h0a2,2,0,0,1,1.79-1c1,0,2,.64,2,2.42V128h-1.42v-3.19c0-.82-.31-1.43-1.08-1.43a1.21,1.21,0,0,0-1.12.83,1.74,1.74,0,0,0,0,.47V128H106Z"/><path class="cls-2" d="M114.19,120.72v1.61h1.36v1.06h-1.36v2.5c0,.68.19,1,.73,1a2,2,0,0,0,.56-.07l0,1.09a3.16,3.16,0,0,1-1,.14,1.66,1.66,0,0,1-1.23-.46,2.28,2.28,0,0,1-.44-1.58v-2.66H112v-1.06h.81v-1.28Z"/><path class="cls-2" d="M220.67,101.34a12.28,12.28,0,0,1,2.08-.16,3.74,3.74,0,0,1,2.24.5,1.66,1.66,0,0,1,.81,1.46,1.81,1.81,0,0,1-1.3,1.69v0a2,2,0,0,1,1.58,1.93,2,2,0,0,1-.76,1.61,4.31,4.31,0,0,1-2.9.74,12.9,12.9,0,0,1-1.75-.11Zm1.42,3.09h.73c1,0,1.54-.47,1.54-1.13s-.56-1.06-1.46-1.06a4.43,4.43,0,0,0-.81.05Zm0,3.59a4.94,4.94,0,0,0,.75,0c.92,0,1.73-.35,1.73-1.31s-.79-1.28-1.78-1.28h-.7Z"/><path class="cls-2" d="M227.3,105.23c0-.77,0-1.31-.05-1.82h1.24l0,1.08h0a1.62,1.62,0,0,1,1.88-1.18v1.35a2.09,2.09,0,0,0-.42,0,1.26,1.26,0,0,0-1.27,1.08,2.81,2.81,0,0,0-.05.44v2.92H227.3Z"/><path class="cls-2" d="M236.69,106.18a2.8,2.8,0,0,1-2.9,3,2.73,2.73,0,0,1-2.83-2.91,2.79,2.79,0,0,1,2.92-3A2.71,2.71,0,0,1,236.69,106.18Zm-4.26.06c0,1.09.54,1.91,1.41,1.91s1.38-.8,1.38-1.94c0-.88-.4-1.89-1.37-1.89S232.43,105.3,232.43,106.24Z"/><path class="cls-2" d="M241,109.05l-.09-.62h0a2.09,2.09,0,0,1-1.67.75,1.67,1.67,0,0,1-1.77-1.68c0-1.43,1.26-2.14,3.35-2.13v-.1c0-.37-.15-1-1.15-1a3,3,0,0,0-1.52.42l-.27-.93a4,4,0,0,1,2-.5,2.11,2.11,0,0,1,2.33,2.38v2a8.65,8.65,0,0,0,.08,1.35Zm-.18-2.76c-1,0-2,.2-2,1.06a.75.75,0,0,0,.82.81,1.16,1.16,0,0,0,1.11-.78,1.18,1.18,0,0,0,.05-.31Z"/><path class="cls-2" d="M249,100.82v6.65c0,.58,0,1.2,0,1.58h-1.28l0-.89h0a2,2,0,0,1-1.84,1c-1.35,0-2.41-1.15-2.41-2.89,0-1.89,1.17-3,2.52-3a1.78,1.78,0,0,1,1.59.74h0v-3.2Zm-1.42,4.94a1.61,1.61,0,0,0,0-.37,1.24,1.24,0,0,0-1.23-1c-.91,0-1.42.81-1.42,1.87s.51,1.78,1.41,1.78a1.26,1.26,0,0,0,1.23-1,1.42,1.42,0,0,0,0-.42Z"/><path class="cls-2" d="M254.65,108.88a4.13,4.13,0,0,1-1.6.29,2.71,2.71,0,0,1-2.91-2.88,2.92,2.92,0,0,1,3.14-3,3.6,3.6,0,0,1,1.38.27l-.26,1.06a2.53,2.53,0,0,0-1.07-.22,1.83,1.83,0,0,0,0,3.66,2.72,2.72,0,0,0,1.12-.23Z"/><path class="cls-2" d="M258.88,109.05l-.09-.62h0a2.07,2.07,0,0,1-1.67.75,1.67,1.67,0,0,1-1.77-1.68c0-1.43,1.26-2.14,3.35-2.13v-.1c0-.37-.15-1-1.15-1a2.91,2.91,0,0,0-1.51.42l-.28-.93a4,4,0,0,1,2-.5,2.11,2.11,0,0,1,2.33,2.38v2a8.65,8.65,0,0,0,.08,1.35Zm-.18-2.76c-1,0-2,.2-2,1.06a.74.74,0,0,0,.81.81,1.15,1.15,0,0,0,1.11-.78.87.87,0,0,0,.05-.31Z"/><path class="cls-2" d="M261.53,107.74a3.13,3.13,0,0,0,1.45.41c.62,0,.9-.25.9-.63s-.23-.58-.93-.82c-1.1-.38-1.56-1-1.55-1.65a1.89,1.89,0,0,1,2.13-1.77,3.23,3.23,0,0,1,1.5.34l-.28,1a2.61,2.61,0,0,0-1.19-.32c-.51,0-.79.24-.79.59s.27.53,1,.79c1,.37,1.5.89,1.51,1.73,0,1-.8,1.76-2.29,1.76a3.67,3.67,0,0,1-1.72-.39Z"/><path class="cls-2" d="M268.07,101.79v1.62h1.36v1.06h-1.36V107c0,.68.19,1,.73,1a2,2,0,0,0,.56-.07l0,1.09a3.16,3.16,0,0,1-1,.14,1.66,1.66,0,0,1-1.23-.46,2.28,2.28,0,0,1-.44-1.58v-2.66h-.81v-1.06h.81v-1.28Z"/><path class="cls-2" d="M276.09,109.05l-.1-.62h0a2.1,2.1,0,0,1-1.67.75,1.68,1.68,0,0,1-1.78-1.68c0-1.43,1.27-2.14,3.36-2.13v-.1c0-.37-.16-1-1.15-1a2.92,2.92,0,0,0-1.52.42l-.28-.93a4,4,0,0,1,2-.5,2.11,2.11,0,0,1,2.33,2.38v2a8.65,8.65,0,0,0,.08,1.35Zm-.19-2.76c-1,0-2,.2-2,1.06a.75.75,0,0,0,.81.81,1.14,1.14,0,0,0,1.11-.78.87.87,0,0,0,0-.31Z"/><path class="cls-2" d="M278.8,105.09c0-.65,0-1.2-.05-1.68H280l.07.84h0a2,2,0,0,1,1.8-1c1,0,2,.64,2,2.42v3.35h-1.43v-3.19c0-.81-.3-1.42-1.08-1.42a1.18,1.18,0,0,0-1.11.83,1.38,1.38,0,0,0-.06.47v3.31H278.8Z"/><path class="cls-2" d="M290.64,100.82v6.65c0,.58,0,1.2.05,1.58h-1.28l-.05-.89h0a2,2,0,0,1-1.84,1c-1.35,0-2.41-1.15-2.41-2.89,0-1.89,1.17-3,2.52-3a1.78,1.78,0,0,1,1.59.74h0v-3.2Zm-1.42,4.94a1.61,1.61,0,0,0,0-.37,1.25,1.25,0,0,0-1.23-1c-.91,0-1.42.81-1.42,1.87S287,108,287.94,108a1.26,1.26,0,0,0,1.23-1,1.42,1.42,0,0,0,.05-.42Z"/><path class="cls-2" d="M301.57,105.07c0,2.62-1.59,4.11-3.75,4.11s-3.59-1.68-3.59-4,1.51-4.09,3.71-4.09S301.57,102.84,301.57,105.07Zm-5.83.11c0,1.59.8,2.85,2.17,2.85s2.15-1.27,2.15-2.91c0-1.47-.73-2.86-2.15-2.86S295.74,103.57,295.74,105.18Z"/><path class="cls-2" d="M304,102.43h-2.22v-1.19h5.9v1.19h-2.25v6.62H304Z"/><path class="cls-2" d="M310.41,102.43h-2.23v-1.19h5.91v1.19h-2.25v6.62h-1.43Z"/><path class="cls-2" d="M231,122.8a4.18,4.18,0,0,1-1.6.29,2.7,2.7,0,0,1-2.91-2.87,2.91,2.91,0,0,1,3.14-3,3.6,3.6,0,0,1,1.38.27l-.26,1.06a2.58,2.58,0,0,0-1.08-.22,1.83,1.83,0,0,0,0,3.66,2.93,2.93,0,0,0,1.13-.22Z"/><path class="cls-2" d="M237.33,120.1a2.79,2.79,0,0,1-2.9,3,2.73,2.73,0,0,1-2.83-2.91,2.79,2.79,0,0,1,2.92-3A2.71,2.71,0,0,1,237.33,120.1Zm-4.26.06c0,1.09.54,1.91,1.41,1.91s1.38-.8,1.38-1.94c0-.88-.4-1.89-1.37-1.89S233.07,119.22,233.07,120.16Z"/><path class="cls-2" d="M238.5,119c0-.65,0-1.19-.05-1.68h1.26l.07.84h0a2,2,0,0,1,1.8-1c1,0,2,.64,2,2.42V123h-1.43v-3.19c0-.82-.3-1.43-1.08-1.43a1.2,1.2,0,0,0-1.11.83,1.41,1.41,0,0,0-.06.47V123H238.5Z"/><path class="cls-2" d="M246.71,115.72v1.61h1.36v1.06h-1.36v2.5c0,.68.19,1,.73,1a1.91,1.91,0,0,0,.56-.07l0,1.09a3.12,3.12,0,0,1-1,.14,1.66,1.66,0,0,1-1.23-.46,2.28,2.28,0,0,1-.44-1.58v-2.66h-.81v-1.06h.81v-1.28Z"/><path class="cls-2" d="M250.09,120.55a1.53,1.53,0,0,0,1.74,1.46,4.24,4.24,0,0,0,1.56-.25l.21,1a5.23,5.23,0,0,1-2,.35,2.67,2.67,0,0,1-2.91-2.85,2.8,2.8,0,0,1,2.76-3,2.46,2.46,0,0,1,2.44,2.75,3.72,3.72,0,0,1,0,.6Zm2.48-1a1.22,1.22,0,0,0-1.17-1.38,1.4,1.4,0,0,0-1.31,1.38Z"/><path class="cls-2" d="M255.07,119c0-.65,0-1.19,0-1.68h1.25l.07.84h0a2,2,0,0,1,1.79-1c1,0,2,.64,2,2.42V123h-1.43v-3.19c0-.82-.3-1.43-1.07-1.43a1.21,1.21,0,0,0-1.12.83,1.73,1.73,0,0,0-.06.47V123h-1.43Z"/><path class="cls-2" d="M263.28,115.72v1.61h1.35v1.06h-1.35v2.5c0,.68.18,1,.73,1a2,2,0,0,0,.56-.07l0,1.09a3.16,3.16,0,0,1-1,.14,1.64,1.64,0,0,1-1.23-.46,2.28,2.28,0,0,1-.44-1.58v-2.66h-.81v-1.06h.81v-1.28Z"/><path class="cls-2" d="M273.32,114.74v6.65c0,.58,0,1.2.05,1.59h-1.28l0-.9h0a2,2,0,0,1-1.84,1c-1.35,0-2.41-1.15-2.41-2.88,0-1.9,1.17-3,2.53-3a1.8,1.8,0,0,1,1.58.74h0v-3.2Zm-1.42,4.94a1.61,1.61,0,0,0,0-.37,1.24,1.24,0,0,0-1.23-1c-.91,0-1.42.81-1.42,1.87s.51,1.78,1.41,1.78a1.26,1.26,0,0,0,1.23-1,1.42,1.42,0,0,0,0-.42Z"/><path class="cls-2" d="M275.87,120.55A1.53,1.53,0,0,0,277.6,122a4.3,4.3,0,0,0,1.57-.25l.21,1a5.27,5.27,0,0,1-2,.35,2.67,2.67,0,0,1-2.91-2.85,2.8,2.8,0,0,1,2.76-3,2.45,2.45,0,0,1,2.43,2.75,4,4,0,0,1,0,.6Zm2.48-1a1.22,1.22,0,0,0-1.17-1.38,1.38,1.38,0,0,0-1.31,1.38Z"/><path class="cls-2" d="M280.84,114.74h1.44V123h-1.44Z"/><path class="cls-2" d="M285.34,115.75a.8.8,0,0,1-1.6,0,.8.8,0,0,1,1.6,0ZM283.82,123v-5.65h1.44V123Z"/><path class="cls-2" d="M287.7,117.33l.91,2.86a14.48,14.48,0,0,1,.39,1.42h0c.1-.47.23-.91.38-1.42l.9-2.86h1.5L289.66,123h-1.41l-2.09-5.65Z"/><path class="cls-2" d="M293.54,120.55a1.54,1.54,0,0,0,1.74,1.46,4.34,4.34,0,0,0,1.57-.25l.21,1a5.27,5.27,0,0,1-2,.35,2.66,2.66,0,0,1-2.91-2.85,2.8,2.8,0,0,1,2.76-3,2.45,2.45,0,0,1,2.43,2.75,2.83,2.83,0,0,1-.05.6Zm2.49-1a1.22,1.22,0,0,0-1.18-1.38,1.4,1.4,0,0,0-1.31,1.38Z"/><path class="cls-2" d="M298.52,119.15c0-.77,0-1.31,0-1.82h1.24l.05,1.08h.05a1.69,1.69,0,0,1,1.54-1.21,1.22,1.22,0,0,1,.34,0v1.34a2.3,2.3,0,0,0-.42,0,1.26,1.26,0,0,0-1.28,1.08,2.87,2.87,0,0,0,0,.44V123h-1.43Z"/><path class="cls-2" d="M303.8,117.33l1,3c.11.35.23.78.31,1.11h0c.09-.33.19-.75.3-1.12l.88-3h1.53l-1.42,3.85c-.77,2.11-1.29,3-2,3.63a2.85,2.85,0,0,1-1.49.73l-.33-1.21a2.41,2.41,0,0,0,.84-.39,2.61,2.61,0,0,0,.78-.9.63.63,0,0,0,.09-.25.59.59,0,0,0-.08-.28l-2.07-5.18Z"/><path class="cls-2" d="M161.42,204.66a4.85,4.85,0,0,1-2,.35,3.69,3.69,0,0,1-4-3.93,3.94,3.94,0,0,1,4.18-4.13,4.48,4.48,0,0,1,1.9.35l-.32,1.14a3.83,3.83,0,0,0-1.53-.3,2.6,2.6,0,0,0-2.73,2.87,2.56,2.56,0,0,0,2.72,2.82,4.09,4.09,0,0,0,1.56-.29Z"/><path class="cls-2" d="M167.76,202a2.8,2.8,0,0,1-2.89,3,2.73,2.73,0,0,1-2.83-2.92,2.79,2.79,0,0,1,2.92-3A2.71,2.71,0,0,1,167.76,202Zm-4.25.06c0,1.09.53,1.91,1.4,1.91s1.38-.8,1.38-1.93c0-.89-.39-1.89-1.37-1.89S163.51,201.14,163.51,202.08Z"/><path class="cls-2" d="M168.94,200.93c0-.65,0-1.19-.05-1.68h1.25l.07.85h0a2,2,0,0,1,1.79-1c1,0,2,.64,2,2.43v3.35h-1.42v-3.19c0-.81-.31-1.43-1.08-1.43a1.21,1.21,0,0,0-1.12.84,1.62,1.62,0,0,0-.05.46v3.32h-1.44Z"/><path class="cls-2" d="M177.15,197.64v1.61h1.36v1.07h-1.36v2.49c0,.68.19,1,.73,1a1.91,1.91,0,0,0,.56-.07l0,1.09a3.16,3.16,0,0,1-1,.14,1.66,1.66,0,0,1-1.23-.46,2.28,2.28,0,0,1-.44-1.58v-2.65H175v-1.07h.81V198Z"/><path class="cls-2" d="M180.53,202.47c0,1,.83,1.46,1.74,1.46a4.28,4.28,0,0,0,1.56-.25l.21,1a5.27,5.27,0,0,1-2,.35,2.67,2.67,0,0,1-2.91-2.85,2.8,2.8,0,0,1,2.76-3,2.45,2.45,0,0,1,2.43,2.75,3.89,3.89,0,0,1,0,.6Zm2.48-1a1.21,1.21,0,0,0-1.17-1.38,1.39,1.39,0,0,0-1.31,1.38Z"/><path class="cls-2" d="M185.5,200.93c0-.65,0-1.19,0-1.68h1.25l.07.85h0a2,2,0,0,1,1.8-1c1,0,2,.64,2,2.43v3.35h-1.43v-3.19c0-.81-.3-1.43-1.08-1.43a1.19,1.19,0,0,0-1.11.84,1.32,1.32,0,0,0-.06.46v3.32H185.5Z"/><path class="cls-2" d="M193.71,197.64v1.61h1.36v1.07h-1.36v2.49c0,.68.19,1,.74,1a1.84,1.84,0,0,0,.55-.07l0,1.09a3.19,3.19,0,0,1-1,.14,1.66,1.66,0,0,1-1.23-.46,2.28,2.28,0,0,1-.44-1.58v-2.65h-.81v-1.07h.81V198Z"/><path class="cls-2" d="M147,210.58h1.43v8.24H147Z"/><path class="cls-2" d="M155.39,215.94a2.8,2.8,0,0,1-2.9,3,2.74,2.74,0,0,1-2.83-2.92,2.79,2.79,0,0,1,2.92-3A2.72,2.72,0,0,1,155.39,215.94Zm-4.26.06c0,1.09.54,1.91,1.41,1.91s1.38-.8,1.38-1.93c0-.88-.4-1.89-1.37-1.89S151.13,215.06,151.13,216Z"/><path class="cls-2" d="M160.71,218.64a4.09,4.09,0,0,1-1.6.29,2.71,2.71,0,0,1-2.91-2.87,2.92,2.92,0,0,1,3.14-3,3.52,3.52,0,0,1,1.38.27l-.25,1.07a2.43,2.43,0,0,0-1.08-.22,1.83,1.83,0,0,0,0,3.65,2.83,2.83,0,0,0,1.12-.22Z"/><path class="cls-2" d="M165,218.82l-.1-.63h0a2.11,2.11,0,0,1-1.67.76,1.68,1.68,0,0,1-1.77-1.69c0-1.42,1.26-2.14,3.35-2.13V215c0-.37-.15-1-1.15-1a3,3,0,0,0-1.52.42l-.28-.93a4.13,4.13,0,0,1,2-.5,2.11,2.11,0,0,1,2.33,2.38v2a10.36,10.36,0,0,0,.08,1.36Zm-.19-2.76c-1,0-2,.2-2,1.05a.75.75,0,0,0,.81.82,1.15,1.15,0,0,0,1.11-.78.93.93,0,0,0,0-.32Z"/><path class="cls-2" d="M167.66,210.58h1.44v8.24h-1.44Z"/><path class="cls-2" d="M172.16,211.59a.8.8,0,1,1-.8-.77A.76.76,0,0,1,172.16,211.59Zm-1.52,7.23v-5.65h1.44v5.65Z"/><path class="cls-2" d="M173.08,218l2.12-2.71c.29-.35.54-.63.84-.95v0h-2.75v-1.14h4.49V214l-2.08,2.66c-.28.33-.54.66-.83,1v0h3v1.14h-4.77Z"/><path class="cls-2" d="M182,218.82l-.09-.63h0a2.09,2.09,0,0,1-1.67.76,1.68,1.68,0,0,1-1.77-1.69c0-1.42,1.26-2.14,3.35-2.13V215c0-.37-.15-1-1.15-1a3,3,0,0,0-1.52.42l-.28-.93a4.14,4.14,0,0,1,2-.5,2.12,2.12,0,0,1,2.33,2.38v2a8.88,8.88,0,0,0,.08,1.36Zm-.19-2.76c-1,0-2,.2-2,1.05a.76.76,0,0,0,.82.82,1.17,1.17,0,0,0,1.11-.78,1.22,1.22,0,0,0,0-.32Z"/><path class="cls-2" d="M186.29,211.56v1.61h1.36v1.07h-1.36v2.49c0,.68.19,1,.73,1a1.91,1.91,0,0,0,.56-.07l0,1.09a2.91,2.91,0,0,1-1,.14,1.66,1.66,0,0,1-1.23-.46,2.25,2.25,0,0,1-.44-1.58v-2.65h-.81v-1.07h.81V211.9Z"/><path class="cls-2" d="M190.25,211.59a.76.76,0,0,1-.81.77.77.77,0,1,1,0-1.54A.76.76,0,0,1,190.25,211.59Zm-1.52,7.23v-5.65h1.44v5.65Z"/><path class="cls-2" d="M197.07,215.94a2.8,2.8,0,0,1-2.9,3,2.74,2.74,0,0,1-2.83-2.92,2.79,2.79,0,0,1,2.92-3A2.72,2.72,0,0,1,197.07,215.94Zm-4.26.06c0,1.09.53,1.91,1.4,1.91s1.38-.8,1.38-1.93c0-.88-.39-1.89-1.36-1.89S192.81,215.06,192.81,216Z"/><path class="cls-2" d="M198.24,214.85c0-.65,0-1.19-.05-1.68h1.26l.07.85h0a2,2,0,0,1,1.8-1c1,0,2,.64,2,2.43v3.35h-1.42v-3.19c0-.81-.3-1.43-1.08-1.43a1.19,1.19,0,0,0-1.11.84,1.32,1.32,0,0,0-.06.46v3.32h-1.44Z"/><path class="cls-2" d="M88.42,37.67a9.63,9.63,0,0,1,1.06.4,4.07,4.07,0,0,1,2.45,3.87c0,1,0,2,0,3.09h.91c2.9,0,5.81.06,8.72,0a4,4,0,0,1,4,4.19c-.15,1.54,0,3.1,0,4.65v19a3.87,3.87,0,0,1-4,4.12q-5.61,0-11.23,0a3.72,3.72,0,0,1-3.7-2.41c-.22-.54-.5-.62-1-.62H66.87a4.16,4.16,0,0,1-4.26-3.21,5.43,5.43,0,0,1-.09-1.14q0-8.87,0-17.73v-.66a12.36,12.36,0,0,1-2-1.45A3.6,3.6,0,0,1,61.93,44c.45-.18.65-.38.59-.86s0-.81,0-1.22a4.09,4.09,0,0,1,3.15-4.15,2.92,2.92,0,0,0,.31-.14ZM86.13,65.06a1.84,1.84,0,0,0,.07-.37c0-5.19,0-10.39,0-15.58a4.27,4.27,0,0,1,3-4c.31-.07.64-.11.94-.17V44H64.7l.56.37a3.63,3.63,0,0,1-.37,6.33.91.91,0,0,0-.57,1q0,6.33,0,12.65v.75Zm2-15.2V68.73h15.57V49.86ZM76.37,67h-12v.71c0,.76,0,1.53,0,2.29a2.28,2.28,0,0,0,2.26,2.15q9.65,0,19.3,0a1.11,1.11,0,0,0,.26-.07V67H78.09c1.5,1.06,2,2.06,1.54,3.31a2.56,2.56,0,0,1-4.88-.1C74.4,69,74.9,67.91,76.37,67ZM64.37,42H90.09a2.3,2.3,0,0,0-2.3-2.51H66.63A2.25,2.25,0,0,0,64.37,42ZM97,75.12c1.71,0,3.37.08,5,0a1.73,1.73,0,0,0,1.59-1.61,24.74,24.74,0,0,0,0-2.86H97.4C98.89,72.38,98.56,73.85,97,75.12Zm-9-4.51c0,.93,0,1.79,0,2.64a1.9,1.9,0,0,0,1.69,1.85c1.6.09,3.21,0,5,0A2.85,2.85,0,0,1,93.27,73a3,3,0,0,1,1-2.36Zm.28-22.69h15.12a2,2,0,0,0-1.88-1.09c-3.79,0-7.57,0-11.35,0A2.05,2.05,0,0,0,88.31,47.92Zm-25,1.33a1.82,1.82,0,0,0,1.8-1.82,1.84,1.84,0,0,0-1.85-1.86,1.84,1.84,0,1,0,.05,3.68Zm15,20.22c-.49-.34-.79-.71-1.05-.68a.94.94,0,0,0-.66.69c0,.23.41.63.68.66S77.77,69.81,78.26,69.47Zm18.6,3.3c-.49-.35-.78-.72-1-.7a1,1,0,0,0-.68.68c0,.23.4.65.66.68S96.36,73.1,96.86,72.77Z"/><path class="cls-2" d="M108,80.86a4,4,0,0,1-1.93,2.35c-5.31,3.5-10.59,7-15.89,10.56l-.65.42-1-1.49c.27-.19.5-.36.73-.51q8.08-5.4,16.17-10.78a1.54,1.54,0,0,0,.62-.65.8.8,0,0,0-.17-.75,1.44,1.44,0,0,0-1-.14c-2.3.84-4.58,1.74-6.86,2.62-2.46,1-4.92,1.91-7.39,2.84a1.56,1.56,0,0,1-1,.08q-7-2.18-14-4.39a.42.42,0,0,1-.27-.23h11.4a4,4,0,0,0,.85,0,1,1,0,0,0,.84-1,1,1,0,0,0-.89-1,2.73,2.73,0,0,0-.57,0H72.7a2.64,2.64,0,0,0-1.14.29q-4.8,2.7-9.55,5.46a1.06,1.06,0,0,0-.52.72c0,3,0,6.1,0,9.15a2,2,0,0,0,.08.35c1.11-.59,2.17-1.15,3.25-1.7,1.56-.81,3.11-1.65,4.71-2.38a3.69,3.69,0,0,1,1.77-.27c1.61.13,3.21.38,4.82.58.21,0,.42,0,.67,0l.42-2.94L83.84,93l-7.75,3.22.44-3.48c-1.5-.2-3-.34-4.46-.61a4.14,4.14,0,0,0-2.84.54c-2.94,1.58-5.9,3.09-8.85,4.63l-.73.36v-.81c0-4.19,0-8.38,0-12.58a1,1,0,0,1,.57-1c3.63-2,7.24-4.12,10.87-6.16a2.22,2.22,0,0,1,1.08-.27c5,0,10,0,15.08,0a2.89,2.89,0,1,1,.19,5.77c-.06,0-.12,0-.21.13.89.28,1.79.59,2.69.83a1.35,1.35,0,0,0,.68-.16c4.35-1.68,8.72-3.3,13-5.07,1.85-.76,3.61-.54,4.4,1.81Z"/><path class="cls-2" d="M248.49,58.93c1.61,1.64,3.18,3.23,4.72,4.84a1.41,1.41,0,0,0,1.14.46q7-.18,14-.32a1.35,1.35,0,0,0,1.19-.51,1.1,1.1,0,0,1,.22-.21,2,2,0,0,0,.81-2.36,4.06,4.06,0,0,1,3.34-5,4.24,4.24,0,0,1,1.71,8.3,4.93,4.93,0,0,1-3.27-.53A2.82,2.82,0,0,0,271,66.09c-.26,4.67-.61,9.33-.9,14a1.21,1.21,0,0,0,.35.78c1.64,1.67,3.3,3.31,5,5l.46.49c-5.34,5.4-11.7,7.58-19.08,5.75a18.29,18.29,0,0,1-14.18-14.32C240.85,70.46,243.08,64.22,248.49,58.93Zm24.09,27.53L248.47,62a17.12,17.12,0,0,0,.82,23.63C256.11,92.32,266.58,91.92,272.58,86.46Zm-4.52-8c.26-3.83.51-7.56.77-11.36l-6,6.08ZM255.91,66.26l5.25,5.3,5.5-5.52ZM276.83,60a2.12,2.12,0,0,0-2.15-2.16A2.17,2.17,0,0,0,272.46,60a2.19,2.19,0,1,0,4.37,0Z"/><path class="cls-2" d="M270.41,45.66l-.75-1.89a13.46,13.46,0,0,1,3.84-1,16.83,16.83,0,0,1,9.84,1.81,20.53,20.53,0,0,0,3.84,1.15c1.59.44,3.19.86,4.82,1.29l-2.92,2.91a16.25,16.25,0,0,1,1.44,14.59l-1-.39-1-.39a14.14,14.14,0,0,0,.93-6.22,13.78,13.78,0,0,0-1.91-6L285.19,54c-.5-1.85-1.07-3.54-1.39-5.27A3.36,3.36,0,0,0,281.57,46a14.21,14.21,0,0,0-10.45-.6Z"/><path class="cls-2" d="M272.75,51,272,49.1a10,10,0,0,1,13.13,13l-1.86-.72A8.13,8.13,0,0,0,272.75,51Z"/><path class="cls-2" d="M199.39,160.87c-.77.43-1.54.84-2.3,1.29l-6.22,3.72v-9.82l3.24,1.78c3.53-5,4.09-10.35,1-15.5a13.54,13.54,0,0,0-24.8,4.22l5.25,3a7.92,7.92,0,0,1,3.94-6.79,7.72,7.72,0,0,1,6.17-.83,8,8,0,1,1-5.37,15c.16.77.33,1.49.46,2.23a15,15,0,0,1-1.42,9.13,1.09,1.09,0,0,0,0,.85c1.28,2.27,2.59,4.52,3.89,6.78l.27.4,2.72-4.7c.69-1.18,1.36-2.36,2.05-3.54.42-.73,1-.95,1.62-.6s.66.94.24,1.66q-2.78,4.84-5.57,9.67c-.61,1-1.53,1-2.14,0l-4.15-7.19c-.12-.21-.26-.42-.43-.7l-3.31,5.7L166.24,191c-.68,1.18-1.55,1.18-2.24,0q-6-10.42-12-20.86a17.17,17.17,0,0,1-2.47-7.49c0-.08-.07-.16-.1-.23v-1.5c0-.08.1-.16.1-.24a16,16,0,0,1,2.08-6.9.9.9,0,0,0-.09-.76,4.32,4.32,0,0,1,6.33-5.75.72.72,0,0,0,.89.12,15.16,15.16,0,0,1,7.68-1.35l1.72.16a15.77,15.77,0,0,1,20.25-11.66,15.12,15.12,0,0,1,9.32,8.12c2.75,5.73,1.78,11.14-1.66,16.31l3.38,1.81Zm-34.28,27.72c.16-.26.27-.43.37-.61q3.09-5.32,6.16-10.66c1.87-3.24,3.82-6.43,5.59-9.73A13,13,0,0,0,173.62,151a13.27,13.27,0,0,0-13.85-1.84c-.32.13-.55.23-.49.72a4.24,4.24,0,0,1-5.16,4.79.64.64,0,0,0-.84.38,13.27,13.27,0,0,0,.26,13.44c2.46,4.34,5,8.65,7.47,13C162.35,183.83,163.71,186.16,165.11,188.59Zm18.36-33.15a5.82,5.82,0,1,0-5.77-5.82A5.76,5.76,0,0,0,183.47,155.44Zm-30.58-4.94a2.15,2.15,0,0,0,2.12,2.19,2.17,2.17,0,1,0,0-4.34A2.13,2.13,0,0,0,152.89,150.5Z"/><path class="cls-2" d="M157.25,161.84a7.94,7.94,0,1,1,7.95,8A7.88,7.88,0,0,1,157.25,161.84Zm2.1,0a5.84,5.84,0,1,0,5.89-5.79A5.88,5.88,0,0,0,159.35,161.82Z"/></svg>