<svg id="Layer_1" data-name="Layer 1" xmlns="http://www.w3.org/2000/svg" width="100" height="100" viewBox="0 0 100 100"><title>document-migration</title><path d="M45.4,100c0-3,0-6,0-9q0-15.84,0-31.67V57.88A7.21,7.21,0,0,1,41.54,55c-.18-.27-.81-.36-1.24-.36-5.08,0-10.16,0-15.25,0a19.18,19.18,0,0,1-11.18-3.24A18,18,0,0,1,7.05,31c1.86-5.47,5.82-8.62,11.4-9.85l.92-.17.28-.08c.36-1.31.74-2.57,1-3.86a1.86,1.86,0,0,0-.16-1.18A6.21,6.21,0,0,1,29.4,7.61a2.75,2.75,0,0,0,1.38.25c2.11,0,3.43-1.12,4.65-2.84a12.39,12.39,0,0,1,8-4.78A4.54,4.54,0,0,0,44,0h4.23a33.66,33.66,0,0,1,4.65,1.51A14.55,14.55,0,0,1,61.64,15.2c0,.51,0,1,0,1.52,0,0,0,.07.07.19,3.48-1,6.75-.75,9.37,2s2.88,5.95,1.8,9.52c5.22,1.68,7.89,5.41,8.41,10.89h7V57.2h-3V42.5H48.38c0,1-.05,1.88,0,2.8a1.19,1.19,0,0,0,.67.76,6.22,6.22,0,0,1,0,11.52,1.47,1.47,0,0,0-.7,1.09q0,18.72,0,37.43a5.84,5.84,0,0,0,.08.75H85.22v-21H79.69l7.12-12.33,7.06,12.24H88.36V100Zm0-60.63H78c.27-3.88-3.06-7.64-7.08-8.11-2.21-.26-2.61-1.08-1.45-3a5.86,5.86,0,0,0-2-8.26c-2.24-1.16-4.95-.6-7.16,1.55-.69.67-1.42,1-2.29.43a1.6,1.6,0,0,1-.4-2.2,11.58,11.58,0,0,0,.91-5.73A12.19,12.19,0,0,0,48.73,3.33,11,11,0,0,0,36.35,9.17a2.18,2.18,0,0,1-2,1.29c-.83,0-1.66.19-2.52.3,1.21,4.42-2.14,9.46-8.46,7.79-.17,1-.42,2.06-.49,3.1-.14,1.88-.44,2.13-2.32,2.31-4.61.46-8.18,2.55-10.12,6.9-4,9,2.33,19.89,12.17,20.49,5.92.37,11.88.11,17.82.13.07,0,.14-.06.26-.13a6.32,6.32,0,0,1,4.2-5.4c.26-.1.47-.66.48-1C45.39,43.15,45.36,41.35,45.36,39.37ZM46.9,54.93A3.18,3.18,0,0,0,50,51.76a3.29,3.29,0,0,0-3.12-3.08,3.16,3.16,0,0,0-3.12,3.15A3.11,3.11,0,0,0,46.9,54.93ZM29,12.75a3.09,3.09,0,0,0-6.17-.08,3.18,3.18,0,0,0,3.05,3.21A3.15,3.15,0,0,0,29,12.75Z"/><path d="M77.58,51v2.91H56.06V51Z"/><path d="M56,60.27V57.34H77.55v2.93Z"/><path d="M56,66.6V63.68H77.55V66.6Z"/><path d="M56,72.94V70H77.55v3Z"/><path d="M56,79.2V76.34H77.57V79.2Z"/><path d="M56,85.54V82.68H77.56v2.86Z"/><path d="M77.57,89v2.85H56.05V89Z"/></svg>