<svg id="Layer_1" data-name="Layer 1" xmlns="http://www.w3.org/2000/svg" width="100" height="100" viewBox="0 0 100 100"><title>Integration</title><path d="M98.85,35.14c-.12.45-.24.89-.35,1.34A9,9,0,0,1,85,42c-.33-.2-.65-.42-1.07-.7L78,44.69l3.77,6.76H61.17L71.71,33.64l3.93,6.88c1.76-1,3.47-1.94,5.14-3,.22-.13.29-.73.22-1.08a9,9,0,1,1,17.61-3.63c0,.3.16.59.24.89Zm-9.06,3.77a4.52,4.52,0,1,0-4.59-4.53A4.58,4.58,0,0,0,89.79,38.91Z"/><path d="M50.26,0c.6.15,1.2.29,1.8.46a8.91,8.91,0,0,1,6.49,8,8.86,8.86,0,0,1-5.57,9,1.34,1.34,0,0,0-1,1.5c.07,1.79,0,3.59,0,5.56h8L49.52,42.29c-3.45-6-6.79-11.87-10.21-17.85H47.1V17.75a9,9,0,0,1,1-17.52A5.11,5.11,0,0,0,48.85,0ZM45.08,9a4.57,4.57,0,0,0,4.49,4.63,4.67,4.67,0,0,0,4.6-4.56,4.7,4.7,0,0,0-4.48-4.58A4.58,4.58,0,0,0,45.08,9Z"/><path d="M76.44,100l-1.55-.36a9,9,0,0,1-5.35-14l.51-.73-3.79-5L59.92,84.7c-.84-6.85-1.65-13.52-2.5-20.47l19,8.06-6.33,4.79c1.27,1.66,2.47,3.3,3.76,4.87.17.21.76.2,1.13.13a9.06,9.06,0,0,1,9.73,4.4,9,9,0,0,1-1.16,10.41,8.63,8.63,0,0,1-5.38,2.88c-.34,0-.67.15-1,.23Zm5-9.07a4.53,4.53,0,0,0-4.51-4.58,4.55,4.55,0,0,0-.1,9.09A4.58,4.58,0,0,0,81.39,90.93Z"/><path d="M16,41.31c-4.7,3.46-9.55,2.13-12.23-.56A9.09,9.09,0,0,1,2.67,29.38,9,9,0,0,1,13.5,26.09c4.31,1.74,6.21,5.82,5.21,11.27l5.54,3.17,3.92-6.9c3.5,5.93,6.93,11.71,10.51,17.77H18.16l3.75-6.7Zm-5.88-2.4a4.46,4.46,0,0,0,4.56-4.41,4.53,4.53,0,0,0-4.5-4.62,4.59,4.59,0,0,0-4.6,4.56A4.54,4.54,0,0,0,10.09,38.91Z"/><path d="M40.84,63.69c-.84,6.87-1.65,13.52-2.5,20.48L32,79.42l-3.87,5.09c2.39,3.65,2.59,7.31.07,10.9A9,9,0,0,1,12.55,87a8.79,8.79,0,0,1,10.17-5.65,2.12,2.12,0,0,0,2.66-1c.84-1.27,1.82-2.45,2.8-3.74l-6.33-4.77ZM25.5,90.09a4.52,4.52,0,1,0-4.59,4.49A4.47,4.47,0,0,0,25.5,90.09Z"/><path d="M58.56,55.16a9,9,0,1,1-9-9A9,9,0,0,1,58.56,55.16Zm-8.9,4.51a4.52,4.52,0,1,0-.13-9,4.52,4.52,0,0,0,.13,9Z"/></svg>