<svg id="Layer_1" data-name="Layer 1" xmlns="http://www.w3.org/2000/svg" width="756.58" height="148.65" viewBox="0 0 756.58 148.65"><title>security-operations-center</title><path d="M57.77,101.32H53.26V99.69h11v1.63H59.7v13.2H57.77Z"/><path d="M73.89,109.11c0,3.94-2.72,5.65-5.3,5.65-2.88,0-5.1-2.11-5.1-5.48,0-3.56,2.33-5.65,5.28-5.65S73.89,105.85,73.89,109.11Zm-8.45.11c0,2.33,1.35,4.09,3.24,4.09s3.23-1.74,3.23-4.14c0-1.8-.9-4.09-3.19-4.09S65.44,107.19,65.44,109.22Z"/><path d="M86,109.11c0,3.94-2.73,5.65-5.3,5.65-2.88,0-5.11-2.11-5.11-5.48,0-3.56,2.34-5.65,5.29-5.65S86,105.85,86,109.11Zm-8.45.11c0,2.33,1.34,4.09,3.24,4.09S84,111.57,84,109.17c0-1.8-.9-4.09-3.19-4.09S77.52,107.19,77.52,109.22Z"/><path d="M88.41,98.9h1.94v15.62H88.41Z"/><path d="M8.29,133.59c0-1.25,0-2.33-.09-3.32H9.9l.06,2.09h.09A3.19,3.19,0,0,1,13,130a2.32,2.32,0,0,1,.55.06v1.83a3.18,3.18,0,0,0-.66-.07,2.72,2.72,0,0,0-2.6,2.49,5.82,5.82,0,0,0-.09.9v5.68H8.29Z"/><path d="M21.27,140.92l-.16-1.34h-.06a4,4,0,0,1-3.26,1.58,3,3,0,0,1-3.25-3.06c0-2.57,2.28-4,6.4-4v-.22a2.19,2.19,0,0,0-2.42-2.46,5.31,5.31,0,0,0-2.77.79L15.31,131a6.61,6.61,0,0,1,3.5-.94c3.25,0,4,2.22,4,4.35v4a15.21,15.21,0,0,0,.18,2.55ZM21,135.48c-2.11,0-4.51.33-4.51,2.4a1.71,1.71,0,0,0,1.83,1.85A2.64,2.64,0,0,0,20.87,138a1.93,1.93,0,0,0,.11-.62Z"/><path d="M28.22,127.21v3.06H31v1.47H28.22v5.75c0,1.32.37,2.07,1.45,2.07a4,4,0,0,0,1.12-.14l.09,1.46a4.82,4.82,0,0,1-1.71.26,2.69,2.69,0,0,1-2.09-.81,4,4,0,0,1-.75-2.78v-5.81H24.68v-1.47h1.65v-2.55Z"/><path d="M35.33,127.28a1.2,1.2,0,0,1-2.4,0,1.18,1.18,0,0,1,1.21-1.21A1.16,1.16,0,0,1,35.33,127.28Zm-2.16,13.64V130.27h1.94v10.65Z"/><path d="M48,135.51c0,3.93-2.72,5.65-5.3,5.65-2.88,0-5.1-2.11-5.1-5.48,0-3.56,2.33-5.65,5.28-5.65S48,132.25,48,135.51Zm-8.44.11c0,2.33,1.34,4.09,3.23,4.09S46,138,46,135.57c0-1.8-.91-4.09-3.2-4.09S39.51,133.59,39.51,135.62Z"/><path d="M50.4,133.15c0-1.1,0-2-.09-2.88H52l.11,1.76h0a3.92,3.92,0,0,1,3.52-2c1.47,0,3.76.88,3.76,4.53v6.36H57.52v-6.14c0-1.72-.63-3.15-2.46-3.15a2.76,2.76,0,0,0-2.6,2,3.12,3.12,0,0,0-.13.91v6.4H50.4Z"/><path d="M68.5,140.92l-.15-1.34h-.07A4,4,0,0,1,65,141.16a3,3,0,0,1-3.26-3.06c0-2.57,2.29-4,6.4-4v-.22a2.19,2.19,0,0,0-2.42-2.46,5.34,5.34,0,0,0-2.77.79L62.54,131A6.64,6.64,0,0,1,66,130c3.25,0,4,2.22,4,4.35v4a15.28,15.28,0,0,0,.17,2.55Zm-.28-5.44c-2.12,0-4.51.33-4.51,2.4a1.71,1.71,0,0,0,1.82,1.85A2.66,2.66,0,0,0,68.11,138a2.25,2.25,0,0,0,.11-.62Z"/><path d="M73.21,125.3h1.94v15.62H73.21Z"/><path d="M80.56,127.28a1.2,1.2,0,0,1-2.4,0,1.18,1.18,0,0,1,1.21-1.21A1.15,1.15,0,0,1,80.56,127.28ZM78.4,140.92V130.27h1.94v10.65Z"/><path d="M82.34,139.8l4.82-6.27c.46-.58.9-1.08,1.38-1.65v0H82.78v-1.56H90.9l0,1.21-4.76,6.18c-.44.6-.88,1.12-1.36,1.68v0H91v1.54H82.34Z"/><path d="M98.86,140.92l-.15-1.34h-.07a4,4,0,0,1-3.25,1.58,3,3,0,0,1-3.26-3.06c0-2.57,2.29-4,6.4-4v-.22a2.19,2.19,0,0,0-2.42-2.46,5.34,5.34,0,0,0-2.77.79L92.9,131a6.64,6.64,0,0,1,3.5-.94c3.25,0,4,2.22,4,4.35v4a15.28,15.28,0,0,0,.17,2.55Zm-.28-5.44c-2.12,0-4.52.33-4.52,2.4a1.71,1.71,0,0,0,1.83,1.85A2.66,2.66,0,0,0,98.47,138a2.25,2.25,0,0,0,.11-.62Z"/><path d="M105.81,127.21v3.06h2.78v1.47h-2.78v5.75c0,1.32.38,2.07,1.46,2.07a4.08,4.08,0,0,0,1.12-.14l.09,1.46a4.89,4.89,0,0,1-1.72.26,2.71,2.71,0,0,1-2.09-.81,4,4,0,0,1-.75-2.78v-5.81h-1.65v-1.47h1.65v-2.55Z"/><path d="M112.92,127.28a1.14,1.14,0,0,1-1.23,1.19,1.16,1.16,0,0,1-1.17-1.19,1.18,1.18,0,0,1,1.21-1.21A1.15,1.15,0,0,1,112.92,127.28Zm-2.16,13.64V130.27h1.94v10.65Z"/><path d="M125.55,135.51c0,3.93-2.73,5.65-5.3,5.65-2.89,0-5.11-2.11-5.11-5.48,0-3.56,2.33-5.65,5.28-5.65S125.55,132.25,125.55,135.51Zm-8.45.11c0,2.33,1.34,4.09,3.23,4.09s3.24-1.74,3.24-4.14c0-1.8-.9-4.09-3.19-4.09S117.1,133.59,117.1,135.62Z"/><path d="M128,133.15c0-1.1,0-2-.09-2.88h1.72l.11,1.76h0a3.92,3.92,0,0,1,3.52-2c1.48,0,3.76.88,3.76,4.53v6.36h-1.93v-6.14c0-1.72-.64-3.15-2.47-3.15a2.76,2.76,0,0,0-2.59,2,2.82,2.82,0,0,0-.13.91v6.4H128Z"/><path d="M293.08,114a9.51,9.51,0,0,1-3.91.7c-4.18,0-7.33-2.64-7.33-7.5a7.38,7.38,0,0,1,7.74-7.79,7.83,7.83,0,0,1,3.52.66l-.46,1.56a7,7,0,0,0-3-.62c-3.48,0-5.79,2.23-5.79,6.12,0,3.63,2.09,6,5.7,6a7.75,7.75,0,0,0,3.13-.61Z"/><path d="M295.41,98.9h1.94v15.62h-1.94Z"/><path d="M310.24,109.11c0,3.94-2.73,5.65-5.3,5.65-2.88,0-5.11-2.11-5.11-5.48,0-3.56,2.34-5.65,5.29-5.65S310.24,105.85,310.24,109.11Zm-8.45.11c0,2.33,1.34,4.09,3.24,4.09s3.23-1.74,3.23-4.14c0-1.8-.9-4.09-3.19-4.09S301.79,107.19,301.79,109.22Z"/><path d="M321.59,111.61c0,1.11,0,2.07.09,2.91H320l-.11-1.74h-.05a4,4,0,0,1-3.52,2c-1.67,0-3.67-.92-3.67-4.66v-6.23h1.93v5.9c0,2,.62,3.39,2.38,3.39a2.75,2.75,0,0,0,2.73-2.76v-6.53h1.93Z"/><path d="M334,98.9v12.87c0,1,0,2,.09,2.75h-1.74l-.09-1.85h0a3.93,3.93,0,0,1-3.63,2.09c-2.58,0-4.56-2.18-4.56-5.41,0-3.54,2.18-5.72,4.78-5.72a3.55,3.55,0,0,1,3.21,1.63h.05V98.9Zm-1.93,9.3a3.72,3.72,0,0,0-.09-.81,2.85,2.85,0,0,0-2.8-2.24c-2,0-3.19,1.76-3.19,4.11,0,2.16,1.06,3.94,3.15,3.94a2.91,2.91,0,0,0,2.84-2.31,3.73,3.73,0,0,0,.09-.84Z"/><path d="M341.61,112.54a5.13,5.13,0,0,0,2.55.77c1.41,0,2.07-.71,2.07-1.58s-.55-1.44-2-2c-1.91-.68-2.81-1.74-2.81-3,0-1.71,1.38-3.12,3.67-3.12a5.36,5.36,0,0,1,2.62.66l-.49,1.41a4,4,0,0,0-2.17-.62c-1.15,0-1.79.66-1.79,1.45s.64,1.28,2,1.81c1.85.7,2.79,1.62,2.79,3.21,0,1.87-1.45,3.19-4,3.19a6.06,6.06,0,0,1-3-.73Z"/><path d="M351.67,109.55a3.4,3.4,0,0,0,3.65,3.69,7,7,0,0,0,2.95-.55l.33,1.39a8.61,8.61,0,0,1-3.55.66c-3.27,0-5.23-2.16-5.23-5.37s1.89-5.74,5-5.74c3.48,0,4.4,3.06,4.4,5a8.16,8.16,0,0,1-.06.91Zm5.67-1.39c0-1.23-.5-3.15-2.68-3.15-2,0-2.82,1.81-3,3.15Z"/><path d="M369.2,114.12a7,7,0,0,1-3.06.62,5.06,5.06,0,0,1-5.3-5.44,5.41,5.41,0,0,1,5.72-5.65,6.55,6.55,0,0,1,2.69.55l-.44,1.5a4.46,4.46,0,0,0-2.25-.51c-2.44,0-3.76,1.8-3.76,4a3.65,3.65,0,0,0,3.7,4,5.53,5.53,0,0,0,2.37-.53Z"/><path d="M380.38,111.61c0,1.11,0,2.07.08,2.91h-1.71l-.11-1.74h-.05a4,4,0,0,1-3.52,2c-1.67,0-3.67-.92-3.67-4.66v-6.23h1.94v5.9c0,2,.61,3.39,2.37,3.39a2.8,2.8,0,0,0,2.55-1.77,2.57,2.57,0,0,0,.18-1v-6.53h1.94Z"/><path d="M383.59,107.19c0-1.25,0-2.33-.09-3.32h1.69l.07,2.09h.09a3.19,3.19,0,0,1,2.95-2.33,2.32,2.32,0,0,1,.55.06v1.83a3.18,3.18,0,0,0-.66-.07,2.72,2.72,0,0,0-2.6,2.49,5.82,5.82,0,0,0-.09.9v5.68h-1.91Z"/><path d="M393,100.88a1.2,1.2,0,0,1-2.4,0,1.17,1.17,0,0,1,1.21-1.21A1.15,1.15,0,0,1,393,100.88Zm-2.16,13.64V103.87h1.94v10.65Z"/><path d="M398.35,100.81v3.06h2.77v1.47h-2.77v5.75c0,1.32.37,2.07,1.45,2.07a4,4,0,0,0,1.12-.14l.09,1.46a4.82,4.82,0,0,1-1.71.26,2.69,2.69,0,0,1-2.09-.81,4,4,0,0,1-.75-2.78v-5.81h-1.65v-1.47h1.65v-2.55Z"/><path d="M404.2,103.87l2.33,6.29c.25.71.51,1.54.69,2.18h0c.2-.64.42-1.45.68-2.22l2.11-6.25h2.05l-2.9,7.59c-1.39,3.65-2.34,5.52-3.66,6.67a5.29,5.29,0,0,1-2.37,1.25l-.49-1.63a5.13,5.13,0,0,0,1.7-.94,5.77,5.77,0,0,0,1.62-2.16,1.39,1.39,0,0,0,.16-.46,1.68,1.68,0,0,0-.13-.51l-3.94-9.81Z"/><path d="M296.28,133.15c0-1.1,0-2-.09-2.88h1.7L298,132H298a3.67,3.67,0,0,1,3.35-2,3.14,3.14,0,0,1,3,2.13h0a4.41,4.41,0,0,1,1.19-1.38A3.61,3.61,0,0,1,308,130c1.4,0,3.5.92,3.5,4.62v6.27h-1.9v-6c0-2-.75-3.28-2.31-3.28a2.52,2.52,0,0,0-2.29,1.76,3.53,3.53,0,0,0-.15,1v6.58H303v-6.38c0-1.7-.75-2.93-2.22-2.93a2.65,2.65,0,0,0-2.4,1.94,2.61,2.61,0,0,0-.16.94v6.43h-1.89Z"/><path d="M324.27,135.51c0,3.93-2.73,5.65-5.31,5.65-2.88,0-5.1-2.11-5.1-5.48,0-3.56,2.33-5.65,5.28-5.65S324.27,132.25,324.27,135.51Zm-8.45.11c0,2.33,1.34,4.09,3.23,4.09s3.24-1.74,3.24-4.14c0-1.8-.91-4.09-3.19-4.09S315.82,133.59,315.82,135.62Z"/><path d="M326.71,133.15c0-1.1,0-2-.09-2.88h1.71l.12,1.76h0a3.92,3.92,0,0,1,3.52-2c1.47,0,3.76.88,3.76,4.53v6.36h-1.93v-6.14c0-1.72-.64-3.15-2.47-3.15a2.76,2.76,0,0,0-2.59,2,2.81,2.81,0,0,0-.14.91v6.4h-1.93Z"/><path d="M341.07,127.28a1.14,1.14,0,0,1-1.23,1.19,1.16,1.16,0,0,1-1.17-1.19,1.18,1.18,0,0,1,1.21-1.21A1.15,1.15,0,0,1,341.07,127.28Zm-2.15,13.64V130.27h1.93v10.65Z"/><path d="M346.4,127.21v3.06h2.77v1.47H346.4v5.75c0,1.32.37,2.07,1.45,2.07a4.08,4.08,0,0,0,1.12-.14l.09,1.46a4.89,4.89,0,0,1-1.72.26,2.71,2.71,0,0,1-2.09-.81,4,4,0,0,1-.75-2.78v-5.81h-1.65v-1.47h1.65v-2.55Z"/><path d="M360.85,135.51c0,3.93-2.73,5.65-5.3,5.65-2.88,0-5.11-2.11-5.11-5.48,0-3.56,2.34-5.65,5.29-5.65S360.85,132.25,360.85,135.51Zm-8.45.11c0,2.33,1.35,4.09,3.24,4.09s3.23-1.74,3.23-4.14c0-1.8-.9-4.09-3.19-4.09S352.4,133.59,352.4,135.62Z"/><path d="M363.29,133.59c0-1.25,0-2.33-.08-3.32h1.69l.06,2.09h.09A3.2,3.2,0,0,1,368,130a2.26,2.26,0,0,1,.55.06v1.83a3.11,3.11,0,0,0-.66-.07,2.73,2.73,0,0,0-2.6,2.49,5.9,5.9,0,0,0-.08.9v5.68h-1.92Z"/><path d="M372.73,127.28a1.14,1.14,0,0,1-1.23,1.19,1.16,1.16,0,0,1-1.17-1.19,1.18,1.18,0,0,1,1.21-1.21A1.15,1.15,0,0,1,372.73,127.28Zm-2.16,13.64V130.27h1.94v10.65Z"/><path d="M375.72,133.15c0-1.1,0-2-.09-2.88h1.72l.11,1.76h0a3.93,3.93,0,0,1,3.53-2c1.47,0,3.76.88,3.76,4.53v6.36h-1.94v-6.14c0-1.72-.64-3.15-2.46-3.15a2.76,2.76,0,0,0-2.6,2,2.82,2.82,0,0,0-.13.91v6.4h-1.94Z"/><path d="M397.11,130.27c-.05.77-.09,1.63-.09,2.93v6.18c0,2.44-.48,3.94-1.52,4.86a5.63,5.63,0,0,1-3.87,1.28,6.85,6.85,0,0,1-3.54-.88l.48-1.48a6,6,0,0,0,3.13.84c2,0,3.43-1,3.43-3.72v-1.19h-.05a3.8,3.8,0,0,1-3.38,1.79c-2.65,0-4.54-2.25-4.54-5.2,0-3.61,2.36-5.65,4.8-5.65a3.53,3.53,0,0,1,3.32,1.85h.05l.08-1.61Zm-2,4.2a3,3,0,0,0-.11-.88,2.8,2.8,0,0,0-2.71-2c-1.85,0-3.17,1.56-3.17,4,0,2.09,1.06,3.83,3.15,3.83a2.83,2.83,0,0,0,2.68-2,3.35,3.35,0,0,0,.16-1Z"/><path d="M617.45,101.32h-4.51V99.69h11v1.63h-4.53v13.2h-1.94Z"/><path d="M625,109.55a3.4,3.4,0,0,0,3.65,3.69,7,7,0,0,0,3-.55l.33,1.39a8.59,8.59,0,0,1-3.54.66c-3.28,0-5.24-2.16-5.24-5.37s1.89-5.74,5-5.74c3.47,0,4.4,3.06,4.4,5a7.67,7.67,0,0,1-.07.91Zm5.68-1.39c0-1.23-.51-3.15-2.69-3.15-2,0-2.81,1.81-3,3.15Z"/><path d="M642.55,114.12a7,7,0,0,1-3,.62,5.06,5.06,0,0,1-5.31-5.44,5.41,5.41,0,0,1,5.72-5.65,6.55,6.55,0,0,1,2.69.55l-.44,1.5a4.43,4.43,0,0,0-2.25-.51c-2.44,0-3.76,1.8-3.76,4a3.66,3.66,0,0,0,3.7,4,5.49,5.49,0,0,0,2.37-.53Z"/><path d="M644.82,98.9h1.94v6.64h0a3.57,3.57,0,0,1,1.39-1.36,4,4,0,0,1,2-.55c1.43,0,3.72.88,3.72,4.55v6.34H652V108.4c0-1.71-.64-3.17-2.47-3.17a2.77,2.77,0,0,0-2.59,1.94,2.35,2.35,0,0,0-.13.93v6.42h-1.94Z"/><path d="M657,106.75c0-1.1,0-2-.09-2.88h1.72l.11,1.76h0a3.92,3.92,0,0,1,3.52-2c1.48,0,3.77.88,3.77,4.53v6.36h-1.94v-6.14c0-1.72-.64-3.15-2.47-3.15a2.76,2.76,0,0,0-2.59,2,2.82,2.82,0,0,0-.13.91v6.4H657Z"/><path d="M678.88,109.11c0,3.94-2.73,5.65-5.31,5.65-2.88,0-5.1-2.11-5.1-5.48,0-3.56,2.33-5.65,5.28-5.65S678.88,105.85,678.88,109.11Zm-8.45.11c0,2.33,1.34,4.09,3.23,4.09s3.24-1.74,3.24-4.14c0-1.8-.91-4.09-3.19-4.09S670.43,107.19,670.43,109.22Z"/><path d="M681.32,98.9h1.93v15.62h-1.93Z"/><path d="M696.15,109.11c0,3.94-2.73,5.65-5.31,5.65-2.88,0-5.1-2.11-5.1-5.48,0-3.56,2.33-5.65,5.28-5.65S696.15,105.85,696.15,109.11Zm-8.45.11c0,2.33,1.34,4.09,3.23,4.09s3.24-1.74,3.24-4.14c0-1.8-.91-4.09-3.19-4.09S687.7,107.19,687.7,109.22Z"/><path d="M707.76,103.87c0,.77-.09,1.63-.09,2.93V113c0,2.44-.48,3.94-1.51,4.86a5.66,5.66,0,0,1-3.88,1.28,6.91,6.91,0,0,1-3.54-.88l.48-1.48a6,6,0,0,0,3.13.84c2,0,3.43-1,3.43-3.72v-1.19h0a3.82,3.82,0,0,1-3.39,1.79c-2.64,0-4.53-2.25-4.53-5.2,0-3.61,2.35-5.65,4.79-5.65a3.56,3.56,0,0,1,3.33,1.85h0l.09-1.61Zm-2,4.2a2.72,2.72,0,0,0-.11-.88,2.79,2.79,0,0,0-2.71-2c-1.85,0-3.17,1.56-3.17,4,0,2.09,1.06,3.83,3.15,3.83a2.84,2.84,0,0,0,2.69-2,3.34,3.34,0,0,0,.15-1Z"/><path d="M711.59,103.87l2.33,6.29c.24.71.51,1.54.68,2.18h0c.19-.64.42-1.45.68-2.22l2.11-6.25h2l-2.91,7.59c-1.38,3.65-2.33,5.52-3.65,6.67a5.31,5.31,0,0,1-2.38,1.25l-.48-1.63a5.1,5.1,0,0,0,1.69-.94,5.89,5.89,0,0,0,1.63-2.16,1.39,1.39,0,0,0,.16-.46,2.05,2.05,0,0,0-.13-.51l-3.94-9.81Z"/><path d="M582.45,140.92v-9.18H581v-1.47h1.5v-.51a5,5,0,0,1,1.23-3.71,3.7,3.7,0,0,1,2.6-1,4.59,4.59,0,0,1,1.65.3l-.26,1.5a3,3,0,0,0-1.24-.24c-1.65,0-2.06,1.45-2.06,3.08v.57h2.57v1.47h-2.57v9.18Z"/><path d="M598,135.51c0,3.93-2.73,5.65-5.31,5.65-2.88,0-5.1-2.11-5.1-5.48,0-3.56,2.33-5.65,5.28-5.65S598,132.25,598,135.51Zm-8.45.11c0,2.33,1.34,4.09,3.23,4.09s3.24-1.74,3.24-4.14c0-1.8-.9-4.09-3.19-4.09S589.58,133.59,589.58,135.62Z"/><path d="M610.11,135.51c0,3.93-2.73,5.65-5.31,5.65-2.88,0-5.1-2.11-5.1-5.48,0-3.56,2.33-5.65,5.28-5.65S610.11,132.25,610.11,135.51Zm-8.45.11c0,2.33,1.34,4.09,3.23,4.09s3.24-1.74,3.24-4.14c0-1.8-.91-4.09-3.19-4.09S601.66,133.59,601.66,135.62Z"/><path d="M614.88,127.21v3.06h2.77v1.47h-2.77v5.75c0,1.32.37,2.07,1.45,2.07a4,4,0,0,0,1.12-.14l.09,1.46a4.82,4.82,0,0,1-1.71.26,2.73,2.73,0,0,1-2.1-.81,4,4,0,0,1-.74-2.78v-5.81h-1.65v-1.47H613v-2.55Z"/><path d="M619.83,133.75c0-1.37,0-2.47-.09-3.48h1.74l.09,1.83h0A4.19,4.19,0,0,1,625.4,130c2.57,0,4.51,2.18,4.51,5.41,0,3.83-2.34,5.72-4.84,5.72a3.72,3.72,0,0,1-3.28-1.67h0v5.79h-1.91Zm1.91,2.84a4.89,4.89,0,0,0,.09.79,3,3,0,0,0,2.91,2.26c2,0,3.23-1.67,3.23-4.11,0-2.14-1.12-4-3.17-4a3.07,3.07,0,0,0-2.92,2.4,2.91,2.91,0,0,0-.14.79Z"/><path d="M632.35,133.59c0-1.25,0-2.33-.09-3.32H634l.07,2.09h.09a3.19,3.19,0,0,1,2.94-2.33,2.34,2.34,0,0,1,.56.06v1.83a3.18,3.18,0,0,0-.66-.07,2.72,2.72,0,0,0-2.6,2.49,4.8,4.8,0,0,0-.09.9v5.68h-1.91Z"/><path d="M641.78,127.28a1.2,1.2,0,0,1-2.39,0,1.18,1.18,0,0,1,1.21-1.21A1.15,1.15,0,0,1,641.78,127.28Zm-2.15,13.64V130.27h1.93v10.65Z"/><path d="M644.78,133.15c0-1.1,0-2-.09-2.88h1.71l.11,1.76h0a3.92,3.92,0,0,1,3.52-2c1.47,0,3.76.88,3.76,4.53v6.36h-1.93v-6.14c0-1.72-.64-3.15-2.47-3.15a2.77,2.77,0,0,0-2.6,2,3.12,3.12,0,0,0-.13.91v6.4h-1.93Z"/><path d="M659.23,127.21v3.06H662v1.47h-2.77v5.75c0,1.32.37,2.07,1.45,2.07a4,4,0,0,0,1.12-.14l.09,1.46a4.82,4.82,0,0,1-1.71.26,2.69,2.69,0,0,1-2.09-.81,4,4,0,0,1-.75-2.78v-5.81h-1.65v-1.47h1.65v-2.55Z"/><path d="M668.84,133.59c0-1.25,0-2.33-.08-3.32h1.69l.07,2.09h.08a3.2,3.2,0,0,1,2.95-2.33,2.26,2.26,0,0,1,.55.06v1.83a3.11,3.11,0,0,0-.66-.07,2.72,2.72,0,0,0-2.59,2.49,4.8,4.8,0,0,0-.09.9v5.68h-1.92Z"/><path d="M676.9,136a3.41,3.41,0,0,0,3.65,3.69,7,7,0,0,0,3-.55l.33,1.39a8.64,8.64,0,0,1-3.55.66c-3.28,0-5.23-2.16-5.23-5.37s1.89-5.74,5-5.74c3.48,0,4.4,3.06,4.4,5a8.16,8.16,0,0,1-.06.91Zm5.67-1.39c0-1.23-.5-3.15-2.68-3.15-2,0-2.82,1.81-3,3.15Z"/><path d="M696,125.3v12.87c0,.94,0,2,.09,2.75h-1.74l-.09-1.85h0a3.93,3.93,0,0,1-3.63,2.09c-2.57,0-4.55-2.18-4.55-5.41,0-3.54,2.18-5.72,4.77-5.72a3.58,3.58,0,0,1,3.22,1.63h0V125.3Zm-1.94,9.3a3.2,3.2,0,0,0-.09-.81,2.84,2.84,0,0,0-2.79-2.24c-2,0-3.19,1.76-3.19,4.11,0,2.16,1.05,3.94,3.14,3.94a2.91,2.91,0,0,0,2.84-2.31,3.23,3.23,0,0,0,.09-.84Z"/><path d="M708.16,138c0,1.09,0,2.06.09,2.9h-1.72l-.11-1.74h0a4,4,0,0,1-3.52,2c-1.68,0-3.68-.92-3.68-4.66v-6.23h1.94v5.9c0,2,.61,3.39,2.37,3.39a2.82,2.82,0,0,0,2.56-1.77,2.78,2.78,0,0,0,.17-1v-6.53h1.94Z"/><path d="M719,140.52a7.05,7.05,0,0,1-3.06.62,5.06,5.06,0,0,1-5.3-5.44,5.41,5.41,0,0,1,5.72-5.65,6.5,6.5,0,0,1,2.68.55l-.44,1.5a4.39,4.39,0,0,0-2.24-.51c-2.44,0-3.76,1.8-3.76,4a3.65,3.65,0,0,0,3.69,4,5.55,5.55,0,0,0,2.38-.53Z"/><path d="M723.84,127.21v3.06h2.78v1.47h-2.78v5.75c0,1.32.38,2.07,1.45,2.07a4.17,4.17,0,0,0,1.13-.14l.08,1.46a4.78,4.78,0,0,1-1.71.26,2.71,2.71,0,0,1-2.09-.81,4,4,0,0,1-.75-2.78v-5.81H720.3v-1.47H722v-2.55Z"/><path d="M731,127.28a1.14,1.14,0,0,1-1.23,1.19,1.16,1.16,0,0,1-1.17-1.19,1.18,1.18,0,0,1,1.21-1.21A1.15,1.15,0,0,1,731,127.28Zm-2.16,13.64V130.27h1.94v10.65Z"/><path d="M743.58,135.51c0,3.93-2.73,5.65-5.31,5.65-2.88,0-5.1-2.11-5.1-5.48,0-3.56,2.33-5.65,5.28-5.65S743.58,132.25,743.58,135.51Zm-8.45.11c0,2.33,1.34,4.09,3.23,4.09s3.24-1.74,3.24-4.14c0-1.8-.9-4.09-3.19-4.09S735.13,133.59,735.13,135.62Z"/><path d="M746,133.15c0-1.1,0-2-.09-2.88h1.72l.11,1.76h0a3.92,3.92,0,0,1,3.52-2c1.47,0,3.76.88,3.76,4.53v6.36h-1.93v-6.14c0-1.72-.64-3.15-2.47-3.15a2.76,2.76,0,0,0-2.59,2,2.82,2.82,0,0,0-.13.91v6.4H746Z"/><path d="M33.48,48.92c.35-1,.63-1.93,1.05-2.86.72-1.61,1.53-3.18,2.28-4.78a1.1,1.1,0,0,1,1.28-.71,37,37,0,0,0,3.94.34,1.93,1.93,0,0,0,1.2-.48c1.68-1.5,3.31-3,4.93-4.6a1.55,1.55,0,0,0,.5-1c-.06-1.28-.19-2.56-.37-3.84-.08-.57,0-.9.59-1.11,2.63-1,5.25-2.05,7.9-3a1.24,1.24,0,0,1,1,.3c1,1,1.83,2.07,2.79,3.07a1.52,1.52,0,0,0,1,.38q3.6,0,7.22,0a1.44,1.44,0,0,0,1-.37c.94-1,1.83-2,2.7-3a1,1,0,0,1,1.24-.35c2.36.91,4.76,1.73,7.1,2.7,1.29.53,1.25.63,1.27,2.15l20-19.13L98,8.76c3-.75,5.85-1.48,8.71-2.18,1.68-.41,3.37-.77,5.06-1.16v.39c-.58,1.89-1.17,3.77-1.74,5.67-.65,2.18-1.26,4.37-1.94,6.71l-3.89-3.6c-1.41,1.35-2.83,2.68-4.23,4Q87.66,30.39,75.34,42.18c-2.86,2.74-5.73,5.47-8.56,8.23A1.91,1.91,0,0,1,65,51c-2.77-.3-5.54.27-6.66,2.72a22,22,0,0,0-.82,2.57l.3.17L59.37,55a3.39,3.39,0,0,1,4.7,0c.76.7,1.52,1.39,2.27,2.1a2.84,2.84,0,0,1,0,4.41c-.5.49-1,1-1.57,1.49a5.09,5.09,0,0,0,5.72-3.47A25.89,25.89,0,0,0,70.76,56a1.76,1.76,0,0,1,.31-1c3.58-3.48,7.18-6.93,10.79-10.39l8.58-8.2c2.12-2,4.26-4,6.35-6.08a1.17,1.17,0,0,0,.29-1c-1.66-3.81,1.06-7.59,5-8a5.9,5.9,0,0,1,6.82,5.88A6,6,0,0,1,102,32.79c-.72-.11-1.41-.44-2.13-.59a1.18,1.18,0,0,0-.9.12C96.13,35,93.33,37.7,90.52,40.4a1.17,1.17,0,0,0-.15.28.81.81,0,0,0,.28,0c2-.64,3.09.31,3.75,2.1s1.48,3.77,2.24,5.64a.93.93,0,0,1-.42,1.23c-1,.76-2.07,1.53-3,2.37a1.4,1.4,0,0,0-.45,1.11,15.1,15.1,0,0,1,0,5.84,1.11,1.11,0,0,0,.52,1.22c1,.76,2.07,1.54,3,2.38.25.22.5.76.39,1q-1.58,3.83-3.29,7.59a1.15,1.15,0,0,1-.91.43c-1.41-.07-2.82-.25-4.24-.31a1.65,1.65,0,0,0-1,.44c-1.69,1.52-3.37,3.08-5,4.66a1.61,1.61,0,0,0-.44,1.12c.06,1.29.26,2.57.32,3.85a1.05,1.05,0,0,1-.47.87c-2.67,1.09-5.36,2.13-8.07,3.14a1.16,1.16,0,0,1-1-.34c-.92-1-1.74-2-2.67-2.93a1.84,1.84,0,0,0-1.21-.5q-3.47-.07-6.93,0a1.88,1.88,0,0,0-1.22.5c-.93.93-1.75,2-2.67,2.92a1.28,1.28,0,0,1-1,.32c-2.68-1-5.34-2-8-3.1a1.11,1.11,0,0,1-.48-.86c.07-1.32.27-2.63.34-4a1.49,1.49,0,0,0-.42-1q-2.46-2.37-5-4.66a1.65,1.65,0,0,0-1-.44q-2.07.08-4.14.33a.94.94,0,0,1-1.14-.59c-1-2.26-2-4.52-3-6.77-.16-.35-.27-.71-.41-1.07V63c1.24-1,2.5-1.89,3.71-2.89a1.35,1.35,0,0,0,.45-1,19.56,19.56,0,0,1,0-6.11.83.83,0,0,0-.13-.69c-1.33-1-2.69-2-4.05-3Zm31.72,22A16.52,16.52,0,0,1,57.32,69C49.83,65.14,47,56.27,51.08,49.19,54.74,42.78,62.8,39.75,70.19,42a1.2,1.2,0,0,0,1.43-.31c1.71-1.7,3.43-3.4,5.25-5a4.45,4.45,0,0,0,1.9-3.95.67.67,0,0,1,0-.28c.16-.52-.09-.78-.54-.95-1.2-.45-2.38-1-3.6-1.36a1.26,1.26,0,0,0-1,.29c-.91.92-1.71,1.93-2.61,2.85a1.4,1.4,0,0,1-1,.4,26.76,26.76,0,0,0-9.61,0,1.38,1.38,0,0,1-1-.39c-.92-1-1.76-2-2.67-2.93a1.05,1.05,0,0,0-.87-.25A40.18,40.18,0,0,0,52,31.62a1.21,1.21,0,0,0-.45,1c.05,1.22.24,2.44.29,3.66a1.32,1.32,0,0,1-.47,1,25.58,25.58,0,0,0-6.73,6.31,1.26,1.26,0,0,1-.94.41c-1.35,0-2.7-.23-4-.28a1.23,1.23,0,0,0-.94.51,32.1,32.1,0,0,0-1.45,3.36,1.19,1.19,0,0,0,.31,1c.95.83,2,1.53,2.94,2.36A1.39,1.39,0,0,1,41,52a22.27,22.27,0,0,0,0,8.26,1.32,1.32,0,0,1-.39,1c-1,.82-2,1.58-3,2.33a.79.79,0,0,0-.32,1.13c.45,1,.87,1.93,1.24,2.93a1.22,1.22,0,0,0,1.6.89,22.13,22.13,0,0,1,3.46-.29,1.62,1.62,0,0,1,1.17.53A25,25,0,0,0,51.38,75,1,1,0,0,1,51.91,76c-.16,1.21-.21,2.44-.37,3.65-.07.51,0,.78.52,1,1.2.46,2.41.91,3.59,1.41a.86.86,0,0,0,1.15-.33c.81-1,1.63-1.92,2.52-2.81a1.47,1.47,0,0,1,1.13-.39,28.12,28.12,0,0,0,9.51,0,1.55,1.55,0,0,1,1.12.43c.88.89,1.66,1.89,2.53,2.79a1.15,1.15,0,0,0,1,.33c1.31-.43,2.59-1,3.86-1.49a.93.93,0,0,0,.38-.73c-.07-1.22-.17-2.44-.35-3.65A1.08,1.08,0,0,1,79,74.93a24.36,24.36,0,0,0,6.62-6.14,1.47,1.47,0,0,1,1.09-.5c1.28,0,2.57.18,3.85.32A.89.89,0,0,0,91.68,68c.44-1.11.92-2.2,1.41-3.28a.73.73,0,0,0-.29-1c-1-.76-2-1.51-3-2.34a1.43,1.43,0,0,1-.43-1.09,20.94,20.94,0,0,0,0-8.16,1.14,1.14,0,0,1,.52-1.3c1-.71,2-1.46,2.89-2.26a1.07,1.07,0,0,0,.3-.93,31.76,31.76,0,0,0-1.49-3.45,1.19,1.19,0,0,0-.95-.47,18.53,18.53,0,0,0-3,.25,3.05,3.05,0,0,0-1.51.67c-1.87,1.72-3.68,3.51-5.54,5.25a1.16,1.16,0,0,0-.36,1.49,13,13,0,0,1,.5,8A15.74,15.74,0,0,1,65.2,70.94Zm3.4-26.35A13.78,13.78,0,0,0,58.35,46c-5.26,3-7.5,9.31-5.09,14.53C55.3,65,58.92,67.31,63.7,68a12.83,12.83,0,0,0,14.15-9.85,9.34,9.34,0,0,0-.35-5.26c-1,.92-1.79,1.78-2.69,2.54a2.66,2.66,0,0,0-1,2.23c0,3.3-1.28,6-4.43,7.42a11.58,11.58,0,0,1-5.35,1.06,1.44,1.44,0,0,1-.81-.2c-1-.86-1.92-1.77-2.9-2.69l4.06-3.85c-.77-.73-1.47-1.31-2.07-2-.48-.51-.81-.45-1.27,0-1.12,1.1-2.29,2.16-3.47,3.26-.92-.86-1.8-1.66-2.64-2.5a1.41,1.41,0,0,1-.37-.82,9.39,9.39,0,0,1,1.12-5.12c1.84-3.36,5-4.14,8.44-4.17.31,0,.72,0,.91-.12C66.21,46.9,67.33,45.81,68.6,44.59ZM102.77,30a3,3,0,0,0,3.09-3,3.13,3.13,0,1,0-3.09,3Z"/><path d="M368.77,27.06c4.41-1.71,8.6-1.39,12.05,2.19s3.68,7.57,2,12l.85.35A9.55,9.55,0,0,1,381.9,60c-.7.12-.88.39-.86,1.05,0,1.49,0,3,0,4.71l-12.49-7.11,12.48-7.11V57c.39,0,.67-.06.93-.12a6.52,6.52,0,0,0-.58-12.74c-.28,0-.56-.09-.85-.12-1.89-.18-2.37-1.23-1.28-2.83a8,8,0,0,0,1.4-4.77,7.21,7.21,0,0,0-9.84-6.82A15.93,15.93,0,0,0,367,32.05c-.87.66-1.52.91-2.21.47s-.89-1.21-.43-2.27c3.86-9-1.46-19.93-12.68-21.52-6.92-1-12.27,1.86-15.44,8a2,2,0,0,1-1.92,1.12,15,15,0,0,0-6.28,1.47,16.48,16.48,0,0,1,0,3,6.07,6.07,0,0,1-6.68,4.95c-.87-.06-1.29.15-1.44,1-.29,1.59-.66,3.16-.87,4.76-.16,1.31-.55,1.79-1.9,1.86a10.85,10.85,0,0,0-1.75,21.54,42.87,42.87,0,0,0,5.9.25c3.75.07,7.5.1,11.25.14h1c0-.44,0-.78,0-1.12,0-2.55,0-5.09,0-7.63a12.54,12.54,0,0,1,24.74-2.63,13.49,13.49,0,0,1,.32,2.83c0,2.52,0,5,0,7.54a1,1,0,0,0,.72,1.11,7.59,7.59,0,0,1,5,7.3c.06,4.45,0,8.9,0,13.35a7.89,7.89,0,0,1-8,7.89q-10.11,0-20.22,0a8,8,0,0,1-8-8c0-4.39-.08-8.78,0-13.16a26.52,26.52,0,0,1,.95-4.56c-1.48,0-3.14,0-4.81,0-3.08-.07-6.19.07-9.23-.3A13.88,13.88,0,0,1,314.88,32c.92-.14,1.12-.52,1.27-1.36.27-1.48.79-2.93,1.14-4.4a1.4,1.4,0,0,0-.16-1.07,6.19,6.19,0,0,1,.15-8.35,6.32,6.32,0,0,1,8.49-.61,1.2,1.2,0,0,0,1.27.14c2-.56,4-1,6-1.57a1.71,1.71,0,0,0,.94-.61,17.59,17.59,0,0,1,18.55-8.45c8.35,1.57,14.52,7.39,15.78,15A61.32,61.32,0,0,1,368.77,27.06ZM346.53,60v-.19c-3.75,0-7.51.07-11.25,0a3.16,3.16,0,0,0-3.13,1.73,7.55,7.55,0,0,0-.85,3.14c-.09,4.1,0,8.2,0,12.3a9.24,9.24,0,0,0,.06,1A4.79,4.79,0,0,0,336,82.34q10.29.06,20.59,0a4.8,4.8,0,0,0,4.73-4.78c0-4.48,0-9,0-13.44a4.67,4.67,0,0,0-1.42-3.33,2.39,2.39,0,0,0-1.85-.78C354.21,60.05,350.37,60,346.53,60Zm9.06-3.81c0-2.78,0-5.47,0-8.16a9.46,9.46,0,0,0-18.7-1.74,6.72,6.72,0,0,0-.18,1.41c0,2.82,0,5.63,0,8.49ZM325.13,21.05a3.26,3.26,0,1,0-3.26,3.25A3.2,3.2,0,0,0,325.13,21.05Z"/><path d="M347.61,76.82h-3V69.39h3Z"/><path d="M655.27,53.07a29.15,29.15,0,0,0-3.51,0,3.31,3.31,0,0,0-2.56,4.36c.08.22.43.36.69.48a5.06,5.06,0,0,1,3,5.62,5.15,5.15,0,0,1-10.07.11A4.93,4.93,0,0,1,645.64,58a1.4,1.4,0,0,0,1-1.59,5.42,5.42,0,0,1,4-5.68,8.92,8.92,0,0,1,2.13-.24c4.36,0,8.72,0,13.09,0h1.09V46.21H644.57v4.57l-10.32-5.87,10.28-5.86V43.6h9v-1c0-2.27,0-4.54,0-6.82a10.79,10.79,0,0,1,10.91-11q3.87,0,7.72,0a10.77,10.77,0,0,1,10.86,11q0,3.42,0,6.82v1c.26,0,.43,0,.6,0h8.31V39l10.31,5.88L692,50.75V46.23h-22.4v4.29h14.17c3.93,0,6.18,2.24,6.15,6.18a1.19,1.19,0,0,0,.86,1.3,5,5,0,0,1,2.9,5.67,5.15,5.15,0,0,1-10.07-.12A4.93,4.93,0,0,1,686.5,58a1.22,1.22,0,0,0,.86-1.4c0-2.42-1.16-3.58-3.58-3.58l-4.93,0c-.05,0-.1,0-.26.12V58.3l0,5.29a1.72,1.72,0,0,0,1.54,1.87c3.39.64,4.14,1.51,4.24,4.93,0,.14,0,.29.05.45.3.09.59.17.87.27a5.05,5.05,0,0,1,3.37,5.49,5.15,5.15,0,0,1-10,.8,5.06,5.06,0,0,1,2.38-5.92c.81-.46,1-1,.77-2.24A1.45,1.45,0,0,0,680.42,68c-.56-.06-1.12-.17-1.83-.28,0,.43,0,.86,0,1.29a4.34,4.34,0,0,1-4.13,4.55c-1.36.16-1.73.58-1.74,2a1.22,1.22,0,0,1,0,.27A1.77,1.77,0,0,0,673.92,78a4.82,4.82,0,0,1,2.49,5.75,5.15,5.15,0,0,1-10-.32,5,5,0,0,1,2.94-5.64,1.14,1.14,0,0,0,.85-1.3,8.74,8.74,0,0,1,.14-2.4,3.82,3.82,0,0,1,3.51-3c1.63-.13,2.17-.7,2.18-2.32V54c0-.27,0-.53,0-.87h-6.47v4.52l.8.34a5,5,0,0,1,2.91,5.75,5.15,5.15,0,0,1-10,0A5,5,0,0,1,666.1,58a1.23,1.23,0,0,0,.89-1.45c-.06-1.13,0-2.27,0-3.47H657.8v3.48c0,1.85,0,3.7,0,5.56A1.76,1.76,0,0,0,659.35,64c3.45.67,4.13,1.47,4.27,5,0,.12,0,.24,0,.39.31.1.63.18.93.29a5,5,0,0,1,3.29,5.55,5.14,5.14,0,0,1-10,.73,5,5,0,0,1,2.35-5.92c.79-.45,1-1.15.76-2.33a1.47,1.47,0,0,0-1.49-1.18c-.56-.05-1.11-.16-1.75-.26,0,.47,0,.91,0,1.35a4.32,4.32,0,0,1-3.93,4.46c-1.66.23-1.94.56-2,2.25a3.38,3.38,0,0,1,0,.45,1.28,1.28,0,0,0,1,1.58,4.91,4.91,0,0,1,2.79,5.71,5.16,5.16,0,0,1-10-.11,5,5,0,0,1,2.93-5.65,1.14,1.14,0,0,0,.85-1.3,9,9,0,0,1,.13-2.32,3.84,3.84,0,0,1,3.53-3c1.63-.14,2.19-.72,2.19-2.32V53.07Zm25.2-9.47c0-2.85.1-5.66,0-8.45a8.07,8.07,0,0,0-7.73-7.82,86.38,86.38,0,0,0-9,0,8.09,8.09,0,0,0-7.75,7.9c-.11,2.65,0,5.31,0,8a1.67,1.67,0,0,0,.1.4ZM668.21,65.19a2.61,2.61,0,1,0,0-5.21,2.61,2.61,0,1,0,0,5.21ZM662.8,77a2.61,2.61,0,0,0,2.7-2.54,2.67,2.67,0,0,0-5.34,0A2.61,2.61,0,0,0,662.8,77Zm20.76,1.43a2.58,2.58,0,0,0,2.71-2.6,2.7,2.7,0,0,0-2.66-2.61A2.67,2.67,0,0,0,681,75.87,2.57,2.57,0,0,0,683.56,78.47Zm-32.92,5A2.6,2.6,0,0,0,653.33,81a2.69,2.69,0,0,0-2.67-2.69A2.74,2.74,0,0,0,648,80.9,2.62,2.62,0,0,0,650.64,83.5Zm20.79,1.44a2.63,2.63,0,0,0,2.7-2.54,2.67,2.67,0,0,0-5.34-.06A2.62,2.62,0,0,0,671.43,84.94ZM650.48,62.58a2.63,2.63,0,1,0-2.6,2.61A2.59,2.59,0,0,0,650.48,62.58Zm38.09,2.61a2.61,2.61,0,1,0-2.6-2.61A2.58,2.58,0,0,0,688.57,65.19Z"/><path d="M668.17,22.5A7.54,7.54,0,1,1,675.88,15,7.6,7.6,0,0,1,668.17,22.5Zm.06-12.6A5.07,5.07,0,1,0,673.41,15,5.11,5.11,0,0,0,668.23,9.9Z"/></svg>