<svg id="Layer_1" data-name="Layer 1" xmlns="http://www.w3.org/2000/svg" viewBox="0 0 350 350"><defs><style>.cls-1{fill:#fbc2ba;}.cls-2{fill:#fcddd6;}.cls-3{fill:#f16c51;}.cls-4{fill:#fff;}</style></defs><title>smart-contracts</title><path class="cls-1" d="M321.82,256.93l6,3.43a175.46,175.46,0,0,0,14.83-135.78h0c-.74-2.47-1.53-4.91-2.38-7.34A175.09,175.09,0,0,0,178.87,0h-1.61V7.1h-5V0h-1.12A175.08,175.08,0,0,0,9.76,117.24q-1.28,3.65-2.39,7.35a175.45,175.45,0,0,0,15,136L28,257.36c.81,1.45,1.65,2.9,2.5,4.32l-5.58,3.23A175.81,175.81,0,0,0,69,314.27q3.07,2.36,6.25,4.55a175.08,175.08,0,0,0,199.45,0c2.12-1.47,4.2-3,6.25-4.55a175.74,175.74,0,0,0,44.3-49.59l-5.95-3.42C320.18,259.83,321,258.38,321.82,256.93Z"/><path class="cls-2" d="M342.91,175a167.64,167.64,0,0,1-66.22,133.63q-3,2.25-6,4.36a168,168,0,0,1-191.38,0q-3-2.12-6-4.37a168.22,168.22,0,0,1-59.17-182c.72-2.37,1.48-4.72,2.3-7A168,168,0,0,1,171.3,7.12h7.41A168,168,0,0,1,333.55,119.57q1.21,3.48,2.29,7h0A167.94,167.94,0,0,1,342.91,175Z"/><path class="cls-3" d="M172.26,7.12A168.2,168.2,0,0,0,27.93,257.35l144.33-83.52Z"/><path class="cls-3" d="M321.82,256.93A168.21,168.21,0,0,0,177.26,7.12V173.83Z"/><path class="cls-3" d="M30.43,261.67a168.24,168.24,0,0,0,288.9-.41l-144.57-83.1Z"/><path class="cls-2" d="M238.16,175a63,63,0,0,1-24.91,50.26c-.74.56-1.49,1.11-2.26,1.64a63.16,63.16,0,0,1-72,0c-.76-.53-1.52-1.07-2.25-1.64a63.23,63.23,0,0,1-22.26-68.45c.27-.89.56-1.78.87-2.66a63.17,63.17,0,0,1,58.24-42.29h2.79a63.16,63.16,0,0,1,58.23,42.29c.31.88.6,1.76.86,2.65h0A63,63,0,0,1,238.16,175Z"/><path class="cls-4" d="M244.15,149.69a5.1,5.1,0,0,1-2.09.36,3.82,3.82,0,0,1-4.12-4.07,4.07,4.07,0,0,1,4.32-4.27,4.71,4.71,0,0,1,2,.36l-.32,1.18a3.87,3.87,0,0,0-1.58-.31,2.69,2.69,0,0,0-2.83,3,2.64,2.64,0,0,0,2.81,2.91,4,4,0,0,0,1.61-.3Z"/><path class="cls-4" d="M250.91,147a2.89,2.89,0,0,1-3,3.11,2.82,2.82,0,0,1-2.93-3,2.88,2.88,0,0,1,3-3.09A2.8,2.8,0,0,1,250.91,147Zm-4.4.06c0,1.13.55,2,1.45,2s1.42-.82,1.42-2c0-.91-.4-2-1.41-2S246.51,146,246.51,147Z"/><path class="cls-4" d="M252.12,145.83c0-.68,0-1.24,0-1.74h1.29l.07.87h0a2.12,2.12,0,0,1,1.86-1c1,0,2.07.66,2.07,2.5v3.47h-1.47v-3.3c0-.84-.31-1.48-1.12-1.48a1.24,1.24,0,0,0-1.15.87,1.44,1.44,0,0,0-.06.48v3.43h-1.49Z"/><path class="cls-4" d="M259.15,149.93v-4.74h-.79v-1.1h.79v-.28c0-1.57,1.1-2.53,2.84-2.53a3.5,3.5,0,0,1,1.6.37l-.32,1.12a2.64,2.64,0,0,0-1.28-.31,1.23,1.23,0,0,0-1.37,1.39v.24h3.49v5.84h-1.49v-4.74h-2v4.74Z"/><path class="cls-4" d="M271,144.09c0,.39,0,.87,0,1.68v3.31a3.39,3.39,0,0,1-.86,2.65,3.35,3.35,0,0,1-2.25.71,4.13,4.13,0,0,1-2-.47l.32-1.12a3.48,3.48,0,0,0,1.7.45,1.56,1.56,0,0,0,1.68-1.77V149h0a2,2,0,0,1-1.7.86,2.59,2.59,0,0,1-2.49-2.85A2.8,2.8,0,0,1,268,144a1.85,1.85,0,0,1,1.7.91h0l.06-.78Zm-1.52,2.34a1.29,1.29,0,0,0-.05-.4,1.23,1.23,0,0,0-1.2-.95c-.83,0-1.44.72-1.44,1.91,0,1,.51,1.8,1.43,1.8a1.26,1.26,0,0,0,1.2-.89,3,3,0,0,0,.06-.53Z"/><path class="cls-4" d="M277.8,148.18c0,.69,0,1.27.05,1.75h-1.3l-.07-.89h0a2.11,2.11,0,0,1-1.87,1c-1.07,0-2-.64-2-2.54v-3.43H274v3.18c0,1,.31,1.59,1.09,1.59a1.25,1.25,0,0,0,1.13-.79,1.3,1.3,0,0,0,.08-.46v-3.52h1.48Z"/><path class="cls-4" d="M279.4,146c0-.79,0-1.35,0-1.88h1.28l.05,1.11h.05a1.75,1.75,0,0,1,1.6-1.24,1.79,1.79,0,0,1,.34,0v1.39a2.31,2.31,0,0,0-.43,0,1.3,1.3,0,0,0-1.32,1.12,2.94,2.94,0,0,0-.05.46v3H279.4Z"/><path class="cls-4" d="M284.71,147.42a1.59,1.59,0,0,0,1.8,1.51,4.32,4.32,0,0,0,1.62-.26l.22,1a5.61,5.61,0,0,1-2,.36,2.76,2.76,0,0,1-3-3,2.89,2.89,0,0,1,2.85-3.14c1.9,0,2.52,1.55,2.52,2.84a3.06,3.06,0,0,1-.05.62Zm2.57-1a1.26,1.26,0,0,0-1.21-1.43,1.45,1.45,0,0,0-1.36,1.43Z"/><path class="cls-4" d="M294,142.42v1.67h1.4v1.1H294v2.58c0,.71.19,1.08.75,1.08a2.53,2.53,0,0,0,.58-.07l0,1.12a3,3,0,0,1-1.06.15,1.73,1.73,0,0,1-1.28-.48,2.34,2.34,0,0,1-.45-1.63v-2.75h-.84v-1.1h.84v-1.32Z"/><path class="cls-4" d="M296.56,141.41H298v3.48h0a2.05,2.05,0,0,1,.73-.67,2,2,0,0,1,1-.26c1,0,2,.66,2,2.53v3.44h-1.48v-3.28c0-.85-.31-1.48-1.13-1.48a1.19,1.19,0,0,0-1.13.82,1.22,1.22,0,0,0-.07.45v3.49h-1.48Z"/><path class="cls-4" d="M304.46,147.42a1.59,1.59,0,0,0,1.8,1.51,4.32,4.32,0,0,0,1.62-.26l.22,1a5.57,5.57,0,0,1-2,.36,2.77,2.77,0,0,1-3-3A2.89,2.89,0,0,1,305.9,144c1.9,0,2.52,1.55,2.52,2.84a4.32,4.32,0,0,1,0,.62Zm2.57-1a1.26,1.26,0,0,0-1.21-1.43,1.46,1.46,0,0,0-1.36,1.43Z"/><path class="cls-4" d="M309.61,145.83c0-.68,0-1.24,0-1.74h1.27l.06.86h0a2,2,0,0,1,1.8-1,1.68,1.68,0,0,1,1.62,1.07h0a2.26,2.26,0,0,1,.71-.73,2,2,0,0,1,1.18-.34c1,0,2,.66,2,2.53v3.44h-1.43V146.7c0-1-.34-1.55-1.05-1.55a1.13,1.13,0,0,0-1,.78,2,2,0,0,0-.07.5v3.5H313.2v-3.38c0-.82-.32-1.4-1-1.4a1.15,1.15,0,0,0-1.05.84,1.32,1.32,0,0,0-.09.48v3.46h-1.44Z"/><path class="cls-4" d="M320.83,147.42a1.59,1.59,0,0,0,1.8,1.51,4.32,4.32,0,0,0,1.62-.26l.22,1a5.61,5.61,0,0,1-2,.36,2.76,2.76,0,0,1-3-3,2.89,2.89,0,0,1,2.85-3.14c1.9,0,2.52,1.55,2.52,2.84a3.06,3.06,0,0,1-.05.62Zm2.57-1a1.26,1.26,0,0,0-1.21-1.43,1.45,1.45,0,0,0-1.36,1.43Z"/><path class="cls-4" d="M325.91,148.57a3.23,3.23,0,0,0,1.5.42c.65,0,.93-.26.93-.64s-.24-.6-1-.86c-1.13-.39-1.61-1-1.6-1.7A2,2,0,0,1,328,144a3.42,3.42,0,0,1,1.55.34l-.29,1A2.54,2.54,0,0,0,328,145c-.53,0-.82.25-.82.61s.28.55,1,.82c1.06.38,1.55.92,1.56,1.79,0,1.05-.83,1.82-2.37,1.82a3.77,3.77,0,0,1-1.78-.41Z"/><path class="cls-4" d="M268.13,161.93l-.1-.65h0a2.16,2.16,0,0,1-1.73.78,1.73,1.73,0,0,1-1.84-1.74c0-1.47,1.31-2.22,3.47-2.21V158c0-.39-.15-1-1.19-1a3.14,3.14,0,0,0-1.57.43l-.29-1A4.28,4.28,0,0,1,267,156a2.18,2.18,0,0,1,2.42,2.45v2.11a9.5,9.5,0,0,0,.08,1.41Zm-.19-2.86c-1.05,0-2,.21-2,1.1a.77.77,0,0,0,.84.83,1.19,1.19,0,0,0,1.15-.8,1.32,1.32,0,0,0,.05-.32Z"/><path class="cls-4" d="M270.94,157.83c0-.68,0-1.24-.05-1.74h1.3l.07.87h0a2.13,2.13,0,0,1,1.86-1c1,0,2.08.66,2.08,2.5v3.47h-1.48v-3.3c0-.84-.31-1.48-1.11-1.48a1.23,1.23,0,0,0-1.15.87,1.44,1.44,0,0,0-.06.48v3.43h-1.49Z"/><path class="cls-4" d="M283.19,153.41v6.88c0,.59,0,1.24.05,1.64h-1.32l-.06-.93h0a2.1,2.1,0,0,1-1.91,1.06c-1.39,0-2.49-1.19-2.49-3S278.64,156,280,156a1.87,1.87,0,0,1,1.65.76h0v-3.31Zm-1.48,5.11a2.43,2.43,0,0,0,0-.38,1.3,1.3,0,0,0-1.28-1c-.94,0-1.47.84-1.47,1.94s.53,1.84,1.46,1.84a1.3,1.3,0,0,0,1.27-1,1.49,1.49,0,0,0,0-.43Z"/><path class="cls-4" d="M289,154.42v1.67h1.4v1.1H289v2.58c0,.71.19,1.08.76,1.08a2.43,2.43,0,0,0,.57-.07l0,1.12a3,3,0,0,1-1.06.15,1.69,1.69,0,0,1-1.27-.48,2.29,2.29,0,0,1-.46-1.63v-2.75h-.84v-1.1h.84v-1.32Z"/><path class="cls-4" d="M294.76,161.93l-.1-.65h0a2.19,2.19,0,0,1-1.73.78,1.73,1.73,0,0,1-1.84-1.74c0-1.47,1.31-2.22,3.47-2.21V158c0-.39-.16-1-1.19-1a3.14,3.14,0,0,0-1.57.43l-.29-1a4.25,4.25,0,0,1,2.11-.51,2.18,2.18,0,0,1,2.41,2.45v2.11a9.35,9.35,0,0,0,.09,1.41Zm-.2-2.86c-1,0-2,.21-2,1.1a.77.77,0,0,0,.84.83,1.21,1.21,0,0,0,1.15-.8,1.27,1.27,0,0,0,0-.32Z"/><path class="cls-4" d="M302.9,156.09c0,.39,0,.87,0,1.68v3.31a3.39,3.39,0,0,1-.87,2.65,3.35,3.35,0,0,1-2.25.71,4.13,4.13,0,0,1-2-.47l.32-1.12a3.48,3.48,0,0,0,1.7.45,1.56,1.56,0,0,0,1.68-1.77V161h0a2,2,0,0,1-1.7.86,2.6,2.6,0,0,1-2.49-2.85,2.8,2.8,0,0,1,2.65-3.08,1.85,1.85,0,0,1,1.7.91h0l.06-.78Zm-1.52,2.34a1.29,1.29,0,0,0-.05-.4,1.22,1.22,0,0,0-1.2-.95c-.83,0-1.44.72-1.44,1.91,0,1,.51,1.8,1.43,1.8a1.26,1.26,0,0,0,1.2-.89,2.26,2.26,0,0,0,.06-.53Z"/><path class="cls-4" d="M250.77,173.75a4.31,4.31,0,0,1-1.65.3,2.81,2.81,0,0,1-3-3,3,3,0,0,1,3.25-3.11,3.74,3.74,0,0,1,1.42.27l-.26,1.1a2.76,2.76,0,0,0-1.12-.22,1.89,1.89,0,0,0,0,3.77,2.93,2.93,0,0,0,1.17-.22Z"/><path class="cls-4" d="M257.42,171a2.89,2.89,0,0,1-3,3.11,2.82,2.82,0,0,1-2.93-3,2.88,2.88,0,0,1,3-3.09A2.8,2.8,0,0,1,257.42,171ZM253,171c0,1.13.55,2,1.45,2s1.42-.82,1.42-2c0-.91-.4-2-1.41-2S253,170,253,171Z"/><path class="cls-4" d="M258.63,170c0-.79,0-1.35-.05-1.88h1.29l.05,1.11h0a1.76,1.76,0,0,1,1.6-1.24,1.9,1.9,0,0,1,.35,0v1.39a2.31,2.31,0,0,0-.43,0,1.3,1.3,0,0,0-1.32,1.12,2.09,2.09,0,0,0-.05.46v3h-1.48Z"/><path class="cls-4" d="M262.9,170c0-.79,0-1.35,0-1.88h1.28l.05,1.11h.05a1.73,1.73,0,0,1,1.59-1.24,1.9,1.9,0,0,1,.35,0v1.39a2.31,2.31,0,0,0-.43,0,1.3,1.3,0,0,0-1.32,1.12,2.09,2.09,0,0,0-.05.46v3H262.9Z"/><path class="cls-4" d="M268.22,171.42a1.58,1.58,0,0,0,1.8,1.51,4.39,4.39,0,0,0,1.62-.26l.21,1a5.55,5.55,0,0,1-2,.36,2.77,2.77,0,0,1-3-3,2.89,2.89,0,0,1,2.86-3.14c1.89,0,2.52,1.55,2.52,2.84a4,4,0,0,1-.05.62Zm2.57-1a1.26,1.26,0,0,0-1.21-1.43,1.44,1.44,0,0,0-1.36,1.43Z"/><path class="cls-4" d="M273.3,172.57a3.19,3.19,0,0,0,1.5.42c.64,0,.93-.26.93-.64s-.24-.6-1-.86c-1.14-.39-1.62-1-1.61-1.7a2,2,0,0,1,2.21-1.83,3.46,3.46,0,0,1,1.55.34l-.29,1a2.54,2.54,0,0,0-1.23-.34c-.53,0-.82.25-.82.61s.28.55,1,.82c1,.38,1.55.92,1.56,1.79,0,1.05-.83,1.82-2.38,1.82a3.76,3.76,0,0,1-1.77-.41Z"/><path class="cls-4" d="M278.37,170c0-.77,0-1.39-.05-1.94h1.3l.07.9h0a2.26,2.26,0,0,1,2-1c1.34,0,2.46,1.15,2.46,3,0,2.11-1.33,3.13-2.67,3.13a1.91,1.91,0,0,1-1.64-.78h0v3h-1.48Zm1.48,1.45a1.36,1.36,0,0,0,0,.41,1.33,1.33,0,0,0,1.29,1c.94,0,1.49-.78,1.49-1.93s-.51-1.87-1.45-1.87a1.37,1.37,0,0,0-1.32,1.09,1.19,1.19,0,0,0-.06.37Z"/><path class="cls-4" d="M291,171a2.9,2.9,0,0,1-3,3.11,2.82,2.82,0,0,1-2.93-3,2.88,2.88,0,0,1,3-3.09A2.8,2.8,0,0,1,291,171Zm-4.41.06c0,1.13.56,2,1.46,2s1.42-.82,1.42-2c0-.91-.41-2-1.41-2S286.54,170,286.54,171Z"/><path class="cls-4" d="M292.16,169.83c0-.68,0-1.24-.05-1.74h1.3l.07.87h0a2.1,2.1,0,0,1,1.86-1c1,0,2.07.66,2.07,2.5v3.47H296v-3.3c0-.84-.31-1.48-1.11-1.48a1.23,1.23,0,0,0-1.15.87,1.44,1.44,0,0,0-.06.48v3.43h-1.49Z"/><path class="cls-4" d="M304.41,165.41v6.88c0,.59,0,1.24,0,1.64h-1.32l-.06-.93h0a2.08,2.08,0,0,1-1.9,1.06c-1.39,0-2.5-1.19-2.5-3s1.21-3.11,2.62-3.11a1.85,1.85,0,0,1,1.64.76h0v-3.31Zm-1.48,5.11a2.43,2.43,0,0,0,0-.38,1.29,1.29,0,0,0-1.27-1c-.95,0-1.48.84-1.48,1.94s.53,1.84,1.47,1.84a1.32,1.32,0,0,0,1.27-1,2,2,0,0,0,0-.43Z"/><path class="cls-4" d="M307.57,166.46a.83.83,0,1,1-.83-.81A.8.8,0,0,1,307.57,166.46ZM306,173.93v-5.84h1.48v5.84Z"/><path class="cls-4" d="M309.07,169.83c0-.68,0-1.24-.05-1.74h1.3l.07.87h0a2.12,2.12,0,0,1,1.86-1c1,0,2.08.66,2.08,2.5v3.47h-1.48v-3.3c0-.84-.31-1.48-1.11-1.48a1.23,1.23,0,0,0-1.15.87,1.43,1.43,0,0,0-.07.48v3.43h-1.48Z"/><path class="cls-4" d="M321.27,168.09c0,.39,0,.87,0,1.68v3.31a3.39,3.39,0,0,1-.86,2.65,3.35,3.35,0,0,1-2.26.7,4.18,4.18,0,0,1-2-.46l.33-1.12a3.45,3.45,0,0,0,1.7.45,1.56,1.56,0,0,0,1.68-1.77V173h0a2,2,0,0,1-1.71.86,2.59,2.59,0,0,1-2.48-2.85,2.8,2.8,0,0,1,2.65-3.08,1.83,1.83,0,0,1,1.69.91h0l.06-.78Zm-1.52,2.34a1.68,1.68,0,0,0-.05-.4,1.23,1.23,0,0,0-1.2-.95c-.83,0-1.44.72-1.44,1.91,0,1,.5,1.8,1.43,1.8a1.26,1.26,0,0,0,1.2-.89,3,3,0,0,0,.06-.53Z"/><path class="cls-4" d="M261,182.65h0a8.19,8.19,0,0,1,.47-.68l1.41-1.88h1.78l-2.16,2.38,2.47,3.46h-1.81l-1.68-2.58-.5.59v2h-1.48v-8.52H261Z"/><path class="cls-4" d="M266.64,183.42a1.59,1.59,0,0,0,1.8,1.51,4.32,4.32,0,0,0,1.62-.26l.22,1a5.61,5.61,0,0,1-2,.36,2.76,2.76,0,0,1-3-3,2.89,2.89,0,0,1,2.85-3.14c1.9,0,2.52,1.55,2.52,2.84a3.06,3.06,0,0,1-.05.62Zm2.57-1A1.26,1.26,0,0,0,268,181a1.45,1.45,0,0,0-1.36,1.43Z"/><path class="cls-4" d="M272.71,180.09l1.06,3.13c.12.36.24.8.32,1.14h0c.1-.34.2-.77.31-1.15l.91-3.12h1.59l-1.47,4c-.8,2.18-1.34,3.15-2,3.75a2.93,2.93,0,0,1-1.54.76l-.34-1.25a2.47,2.47,0,0,0,.86-.41,2.55,2.55,0,0,0,.81-.92.57.57,0,0,0,.09-.26.63.63,0,0,0-.08-.29l-2.14-5.36Z"/><path class="cls-4" d="M278.68,180.09l.61,2.65c.13.62.26,1.26.37,1.89h0c.12-.63.31-1.28.48-1.88l.75-2.66h1.2l.73,2.59c.18.68.34,1.32.47,1.95h0c.1-.63.23-1.27.39-1.95l.65-2.59h1.45L284,185.93h-1.37l-.69-2.38c-.18-.61-.31-1.16-.45-1.87h0a16.75,16.75,0,0,1-.44,1.87l-.75,2.38h-1.38l-1.72-5.84Z"/><path class="cls-4" d="M292.33,183a2.89,2.89,0,0,1-3,3.11,2.82,2.82,0,0,1-2.92-3,2.88,2.88,0,0,1,3-3.09A2.8,2.8,0,0,1,292.33,183Zm-4.4.06c0,1.13.55,2,1.45,2s1.43-.82,1.43-2c0-.91-.41-2-1.42-2S287.93,182,287.93,183Z"/><path class="cls-4" d="M293.55,182c0-.79,0-1.35-.05-1.88h1.28l.05,1.11h.05a1.74,1.74,0,0,1,1.59-1.24,1.83,1.83,0,0,1,.35,0v1.39a2.31,2.31,0,0,0-.43,0,1.3,1.3,0,0,0-1.32,1.12,2.94,2.94,0,0,0-.05.46v3h-1.47Z"/><path class="cls-4" d="M303.2,177.41v6.88c0,.59,0,1.24.05,1.64h-1.32l-.06-.93h0a2.11,2.11,0,0,1-1.91,1.06c-1.39,0-2.49-1.19-2.49-3s1.21-3.11,2.61-3.11a1.85,1.85,0,0,1,1.64.76h0v-3.31Zm-1.47,5.11a1.64,1.64,0,0,0,0-.38,1.29,1.29,0,0,0-1.27-1c-.95,0-1.47.84-1.47,1.94s.52,1.84,1.46,1.84a1.3,1.3,0,0,0,1.27-1,1.49,1.49,0,0,0,.05-.43Z"/><path class="cls-4" d="M304.72,184.57a3.19,3.19,0,0,0,1.5.42c.65,0,.93-.26.93-.65s-.24-.59-1-.85c-1.14-.39-1.62-1-1.6-1.7a2,2,0,0,1,2.2-1.83,3.46,3.46,0,0,1,1.55.34l-.29,1a2.54,2.54,0,0,0-1.23-.34c-.53,0-.82.25-.82.61s.28.55,1,.82c1.06.38,1.55.92,1.56,1.78,0,1.06-.83,1.83-2.37,1.83a3.77,3.77,0,0,1-1.78-.41Z"/><path class="cls-4" d="M19.06,143.08h-2.3v-1.24h6.1v1.24H20.54v6.85H19.06Z"/><path class="cls-4" d="M29,148.18c0,.69,0,1.27.05,1.75H27.74l-.07-.89h0a2.11,2.11,0,0,1-1.87,1c-1.07,0-2-.64-2-2.54v-3.43h1.48v3.18c0,1,.31,1.59,1.09,1.59a1.25,1.25,0,0,0,1.13-.79,1.58,1.58,0,0,0,.08-.46v-3.52H29Z"/><path class="cls-4" d="M30.58,145.83c0-.68,0-1.24,0-1.74h1.29l.07.87h0a2.12,2.12,0,0,1,1.86-1c1,0,2.07.66,2.07,2.5v3.47H34.4v-3.3c0-.84-.32-1.48-1.12-1.48a1.24,1.24,0,0,0-1.15.87,1.44,1.44,0,0,0-.06.48v3.43H30.58Z"/><path class="cls-4" d="M38.49,147.42a1.58,1.58,0,0,0,1.8,1.51,4.39,4.39,0,0,0,1.62-.26l.22,1a5.61,5.61,0,0,1-2,.36,2.76,2.76,0,0,1-3-3A2.89,2.89,0,0,1,39.93,144c1.89,0,2.52,1.55,2.52,2.84a4,4,0,0,1-.05.62Zm2.57-1A1.26,1.26,0,0,0,39.85,145a1.44,1.44,0,0,0-1.36,1.43Z"/><path class="cls-4" d="M42.94,151.38a19.12,19.12,0,0,0,.81-3.17l1.54-.12A14.65,14.65,0,0,1,44,151.28Z"/><path class="cls-4" d="M49,146c0-.79,0-1.35-.05-1.88h1.28l.05,1.11h0A1.73,1.73,0,0,1,51.88,144a1.83,1.83,0,0,1,.35,0v1.39a2.31,2.31,0,0,0-.43,0,1.3,1.3,0,0,0-1.32,1.12,2.09,2.09,0,0,0,0,.46v3H49Z"/><path class="cls-4" d="M54.27,147.42a1.58,1.58,0,0,0,1.8,1.51,4.39,4.39,0,0,0,1.62-.26l.21,1a5.51,5.51,0,0,1-2,.36,2.77,2.77,0,0,1-3-3A2.89,2.89,0,0,1,55.71,144c1.89,0,2.52,1.55,2.52,2.84a4,4,0,0,1,0,.62Zm2.57-1A1.26,1.26,0,0,0,55.63,145a1.44,1.44,0,0,0-1.36,1.43Z"/><path class="cls-4" d="M62,146.22v1H59v-1Z"/><path class="cls-4" d="M63.2,146c0-.79,0-1.35-.05-1.88h1.28l0,1.11h0a1.75,1.75,0,0,1,1.6-1.24,1.79,1.79,0,0,1,.34,0v1.39a2.31,2.31,0,0,0-.43,0,1.3,1.3,0,0,0-1.32,1.12,2.94,2.94,0,0,0,0,.46v3H63.2Z"/><path class="cls-4" d="M72.7,148.18c0,.69,0,1.27,0,1.75h-1.3l-.07-.89h0a2.13,2.13,0,0,1-1.88,1c-1.06,0-2-.64-2-2.54v-3.43h1.47v3.18c0,1,.31,1.59,1.09,1.59a1.25,1.25,0,0,0,1.13-.79,1.3,1.3,0,0,0,.08-.46v-3.52H72.7Z"/><path class="cls-4" d="M74.3,145.83c0-.68,0-1.24,0-1.74h1.29l.08.87h0a2.13,2.13,0,0,1,1.86-1c1,0,2.08.66,2.08,2.5v3.47H78.11v-3.3c0-.84-.31-1.48-1.11-1.48a1.25,1.25,0,0,0-1.16.87,1.77,1.77,0,0,0,0,.48v3.43H74.3Z"/><path class="cls-4" d="M86.93,149.93l-.09-.65h0a2.16,2.16,0,0,1-1.73.78,1.73,1.73,0,0,1-1.83-1.74c0-1.47,1.3-2.22,3.46-2.21V146c0-.39-.15-1-1.18-1a3.08,3.08,0,0,0-1.57.43l-.29-1a4.22,4.22,0,0,1,2.11-.51,2.18,2.18,0,0,1,2.41,2.45v2.11a9.5,9.5,0,0,0,.08,1.41Zm-.19-2.86c-1,0-2,.21-2,1.1a.77.77,0,0,0,.84.83,1.19,1.19,0,0,0,1.15-.8,1,1,0,0,0,0-.32Z"/><path class="cls-4" d="M89.74,145.83c0-.68,0-1.24,0-1.74H91l.07.87h0A2.1,2.1,0,0,1,93,144c1,0,2.07.66,2.07,2.5v3.47H93.56v-3.3c0-.84-.32-1.48-1.12-1.48a1.23,1.23,0,0,0-1.15.87,1.44,1.44,0,0,0-.06.48v3.43H89.74Z"/><path class="cls-4" d="M102,141.41v6.88c0,.59,0,1.24.05,1.64h-1.32l-.06-.93h0a2.08,2.08,0,0,1-1.9,1.06c-1.39,0-2.5-1.19-2.5-3S97.45,144,98.85,144a1.85,1.85,0,0,1,1.64.76h0v-3.31Zm-1.47,5.11a2.45,2.45,0,0,0,0-.38,1.29,1.29,0,0,0-1.27-1c-.95,0-1.48.84-1.48,1.94s.53,1.84,1.47,1.84a1.31,1.31,0,0,0,1.27-1,2,2,0,0,0,0-.43Z"/><path class="cls-4" d="M24.44,153.41v6.88c0,.59,0,1.24,0,1.64H23.17l-.06-.93h0a2.11,2.11,0,0,1-1.91,1.06c-1.39,0-2.49-1.19-2.49-3S19.9,156,21.3,156a1.85,1.85,0,0,1,1.64.76h0v-3.31ZM23,158.52a1.64,1.64,0,0,0,0-.38,1.29,1.29,0,0,0-1.27-1c-.95,0-1.48.84-1.48,1.94s.53,1.84,1.47,1.84a1.3,1.3,0,0,0,1.27-1,1.49,1.49,0,0,0,0-.43Z"/><path class="cls-4" d="M27.07,159.42a1.59,1.59,0,0,0,1.8,1.51,4.36,4.36,0,0,0,1.62-.26l.22,1a5.61,5.61,0,0,1-2,.36,2.76,2.76,0,0,1-3-3A2.89,2.89,0,0,1,28.51,156c1.9,0,2.52,1.55,2.52,2.84a3.06,3.06,0,0,1-.05.62Zm2.57-1A1.26,1.26,0,0,0,28.43,157a1.45,1.45,0,0,0-1.36,1.43Z"/><path class="cls-4" d="M32.22,158c0-.77,0-1.39,0-1.94h1.3l.07.9h0a2.29,2.29,0,0,1,2-1c1.34,0,2.46,1.15,2.46,3,0,2.11-1.34,3.13-2.67,3.13a1.91,1.91,0,0,1-1.64-.78h0v3H32.22Zm1.48,1.45a1.78,1.78,0,0,0,0,.41,1.35,1.35,0,0,0,1.3,1c.93,0,1.49-.78,1.49-1.93s-.51-1.87-1.45-1.87a1.36,1.36,0,0,0-1.32,1.09,1.19,1.19,0,0,0-.06.37Z"/><path class="cls-4" d="M39.24,153.41h1.49v8.52H39.24Z"/><path class="cls-4" d="M47.88,159a2.89,2.89,0,0,1-3,3.11,2.82,2.82,0,0,1-2.93-3A2.88,2.88,0,0,1,45,156,2.8,2.8,0,0,1,47.88,159Zm-4.4.06c0,1.13.55,2,1.45,2s1.42-.82,1.42-2c0-.91-.4-2-1.41-2S43.48,158,43.48,159Z"/><path class="cls-4" d="M50,156.09l1,3.13c.12.36.24.8.32,1.14h0c.1-.34.2-.77.31-1.15l.91-3.12h1.59l-1.47,4c-.8,2.18-1.34,3.15-2,3.75a3,3,0,0,1-1.55.76l-.34-1.25a2.5,2.5,0,0,0,.87-.41,2.54,2.54,0,0,0,.8-.92.61.61,0,0,0,.1-.26.68.68,0,0,0-.09-.29l-2.13-5.36Z"/><path class="cls-4" d="M64.46,158.63c0-1-.11-2.3-.1-3.39h0c-.27,1-.6,2.07-1,3.09l-1.18,3.5H61.05L60,158.38c-.31-1-.59-2.14-.81-3.14h0c0,1-.08,2.33-.14,3.44l-.18,3.25H57.43l.54-8.09h2l1,3.25c.29.95.54,1.91.74,2.81h0c.22-.87.49-1.87.8-2.82l1.12-3.24h1.92l.47,8.09H64.62Z"/><path class="cls-4" d="M70.79,161.93l-.1-.65h0a2.15,2.15,0,0,1-1.72.78,1.73,1.73,0,0,1-1.84-1.74c0-1.47,1.31-2.22,3.47-2.21V158c0-.39-.16-1-1.19-1a3.14,3.14,0,0,0-1.57.43l-.29-1a4.25,4.25,0,0,1,2.11-.51A2.18,2.18,0,0,1,72,158.41v2.11a9.35,9.35,0,0,0,.09,1.41Zm-.2-2.86c-1,0-2,.21-2,1.1a.77.77,0,0,0,.84.83,1.2,1.2,0,0,0,1.15-.8,1.27,1.27,0,0,0,0-.32Z"/><path class="cls-4" d="M77.89,161.75a4.33,4.33,0,0,1-1.66.3,2.81,2.81,0,0,1-3-3A3,3,0,0,1,76.47,156a3.79,3.79,0,0,1,1.43.27l-.26,1.1a2.76,2.76,0,0,0-1.12-.22,1.89,1.89,0,0,0,0,3.77,2.93,2.93,0,0,0,1.17-.22Z"/><path class="cls-4" d="M79,153.41h1.49v3.48h0a2,2,0,0,1,.73-.67,1.93,1.93,0,0,1,1-.26c1,0,2,.66,2,2.53v3.44H82.8v-3.28c0-.85-.31-1.48-1.13-1.48a1.2,1.2,0,0,0-1.14.82,1.23,1.23,0,0,0-.06.45v3.49H79Z"/><path class="cls-4" d="M87.42,154.46a.83.83,0,0,1-1.66,0,.83.83,0,0,1,1.66,0Zm-1.57,7.47v-5.84h1.48v5.84Z"/><path class="cls-4" d="M88.92,157.83c0-.68,0-1.24,0-1.74h1.3l.07.87h0a2.1,2.1,0,0,1,1.85-1c1,0,2.08.66,2.08,2.5v3.47H92.73v-3.3c0-.84-.31-1.48-1.11-1.48a1.23,1.23,0,0,0-1.15.87,1.44,1.44,0,0,0-.06.48v3.43H88.92Z"/><path class="cls-4" d="M96.83,159.42c0,1.06.86,1.51,1.8,1.51a4.39,4.39,0,0,0,1.62-.26l.21,1a5.57,5.57,0,0,1-2,.36,2.77,2.77,0,0,1-3-3A2.89,2.89,0,0,1,98.27,156c1.89,0,2.52,1.55,2.52,2.84a4,4,0,0,1-.05.62Zm2.56-1A1.25,1.25,0,0,0,98.18,157a1.44,1.44,0,0,0-1.35,1.43Z"/><path class="cls-4" d="M17.16,165.84h1.48v6.85H22v1.24h-4.8Z"/><path class="cls-4" d="M24.06,171.42a1.58,1.58,0,0,0,1.8,1.51,4.36,4.36,0,0,0,1.62-.26l.21,1a5.51,5.51,0,0,1-2,.36,2.76,2.76,0,0,1-3-3A2.89,2.89,0,0,1,25.5,168c1.89,0,2.52,1.55,2.52,2.84a4,4,0,0,1-.05.62Zm2.57-1A1.26,1.26,0,0,0,25.42,169a1.44,1.44,0,0,0-1.36,1.43Z"/><path class="cls-4" d="M32.5,173.93l-.1-.65h0a2.15,2.15,0,0,1-1.72.78,1.73,1.73,0,0,1-1.84-1.74c0-1.47,1.31-2.22,3.47-2.21V170c0-.39-.16-1-1.19-1a3.08,3.08,0,0,0-1.57.43l-.29-1a4.25,4.25,0,0,1,2.11-.51,2.18,2.18,0,0,1,2.41,2.45v2.11a9.35,9.35,0,0,0,.09,1.41Zm-.2-2.86c-1,0-2,.21-2,1.1a.77.77,0,0,0,.84.83,1.21,1.21,0,0,0,1.16-.8,1.27,1.27,0,0,0,0-.32Z"/><path class="cls-4" d="M35.3,170c0-.79,0-1.35,0-1.88h1.28l.05,1.11h0A1.73,1.73,0,0,1,38.23,168a1.83,1.83,0,0,1,.35,0v1.39a2.31,2.31,0,0,0-.43,0,1.3,1.3,0,0,0-1.32,1.12,2.09,2.09,0,0,0,0,.46v3H35.3Z"/><path class="cls-4" d="M39.58,169.83c0-.68,0-1.24,0-1.74h1.29l.08.87h0a2.12,2.12,0,0,1,1.86-1c1,0,2.08.66,2.08,2.5v3.47H43.39v-3.3c0-.84-.31-1.48-1.11-1.48a1.25,1.25,0,0,0-1.16.87,1.75,1.75,0,0,0-.06.48v3.43H39.58Z"/><path class="cls-4" d="M48,166.46a.78.78,0,0,1-.84.79.77.77,0,0,1-.81-.79.83.83,0,0,1,1.65,0Zm-1.57,7.47v-5.84h1.49v5.84Z"/><path class="cls-4" d="M49.51,169.83c0-.68,0-1.24,0-1.74h1.3l.07.87h0a2.12,2.12,0,0,1,1.86-1c1,0,2.07.66,2.07,2.5v3.47H53.33v-3.3c0-.84-.32-1.48-1.12-1.48a1.24,1.24,0,0,0-1.15.87,1.44,1.44,0,0,0-.06.48v3.43H49.51Z"/><path class="cls-4" d="M61.71,168.09c0,.39,0,.87,0,1.68v3.31a3.41,3.41,0,0,1-.87,2.65,3.34,3.34,0,0,1-2.25.7,4.13,4.13,0,0,1-2-.46l.32-1.12a3.5,3.5,0,0,0,1.71.44,1.54,1.54,0,0,0,1.67-1.76V173h0a2,2,0,0,1-1.7.86A2.6,2.6,0,0,1,56,171,2.8,2.8,0,0,1,58.66,168a1.85,1.85,0,0,1,1.69.91h0l.06-.78Zm-1.52,2.34a1.29,1.29,0,0,0,0-.4,1.22,1.22,0,0,0-1.2-.95c-.82,0-1.44.72-1.44,1.91,0,1,.51,1.8,1.43,1.8a1.26,1.26,0,0,0,1.2-.89,2.26,2.26,0,0,0,.06-.53Z"/><path class="cls-4" d="M65.74,169.83c0-.68,0-1.24,0-1.74H67L67,169h0a2,2,0,0,1,1.79-1A1.68,1.68,0,0,1,70.47,169h0a2.19,2.19,0,0,1,.72-.73,2,2,0,0,1,1.17-.34c1,0,2,.66,2,2.53v3.44H72.91V170.7c0-1-.34-1.55-1-1.55a1.13,1.13,0,0,0-1,.78,2.62,2.62,0,0,0-.07.5v3.5H69.32v-3.38c0-.82-.32-1.4-1-1.4a1.15,1.15,0,0,0-1,.84,1.31,1.31,0,0,0-.08.48v3.46H65.74Z"/><path class="cls-4" d="M81.46,171a2.89,2.89,0,0,1-3,3.11,2.82,2.82,0,0,1-2.93-3,2.88,2.88,0,0,1,3-3.09A2.8,2.8,0,0,1,81.46,171Zm-4.4.06c0,1.13.56,2,1.45,2s1.43-.82,1.43-2c0-.91-.41-2-1.41-2S77.06,170,77.06,171Z"/><path class="cls-4" d="M88.07,165.41v6.88c0,.59,0,1.24,0,1.64H86.79l-.06-.93h0a2.11,2.11,0,0,1-1.91,1.06c-1.39,0-2.49-1.19-2.49-3S83.52,168,84.92,168a1.87,1.87,0,0,1,1.65.76h0v-3.31Zm-1.48,5.11a1.64,1.64,0,0,0,0-.38,1.29,1.29,0,0,0-1.27-1c-.94,0-1.47.84-1.47,1.94s.53,1.84,1.46,1.84a1.3,1.3,0,0,0,1.27-1,1.49,1.49,0,0,0,0-.43Z"/><path class="cls-4" d="M90.7,171.42a1.58,1.58,0,0,0,1.79,1.51,4.32,4.32,0,0,0,1.62-.26l.22,1a5.57,5.57,0,0,1-2,.36,2.77,2.77,0,0,1-3-3A2.89,2.89,0,0,1,92.13,168c1.9,0,2.52,1.55,2.52,2.84a4.32,4.32,0,0,1,0,.62Zm2.56-1A1.26,1.26,0,0,0,92.05,169a1.44,1.44,0,0,0-1.35,1.43Z"/><path class="cls-4" d="M95.84,165.41h1.49v8.52H95.84Z"/><path class="cls-4" d="M98.86,172.57a3.19,3.19,0,0,0,1.5.42c.64,0,.93-.26.93-.65s-.24-.59-1-.85c-1.14-.39-1.62-1-1.61-1.7a2,2,0,0,1,2.21-1.83,3.46,3.46,0,0,1,1.55.34l-.29,1A2.54,2.54,0,0,0,101,169c-.53,0-.82.25-.82.61s.28.55,1,.82c1,.38,1.55.92,1.56,1.78,0,1.06-.83,1.83-2.38,1.83a3.76,3.76,0,0,1-1.77-.41Z"/><path class="cls-4" d="M183.63,274.36c0-1-.11-2.3-.1-3.39h0c-.26,1-.6,2.07-1,3.09l-1.17,3.51h-1.14l-1.08-3.46c-.31-1-.6-2.13-.82-3.14h0c0,1-.08,2.34-.14,3.44l-.18,3.25H176.6l.54-8.08h1.94l1.06,3.25c.28.95.54,1.9.74,2.8h0c.21-.87.49-1.87.8-2.81l1.11-3.24h1.92l.47,8.08h-1.44Z"/><path class="cls-4" d="M190,277.66l-.09-.65h0a2.16,2.16,0,0,1-1.73.78,1.73,1.73,0,0,1-1.83-1.74c0-1.47,1.31-2.21,3.46-2.2v-.1c0-.38-.15-1-1.18-1a3.14,3.14,0,0,0-1.58.43l-.28-1a4.25,4.25,0,0,1,2.11-.51,2.19,2.19,0,0,1,2.41,2.46v2.11a9.36,9.36,0,0,0,.08,1.4Zm-.19-2.85c-1,0-2,.2-2,1.09a.78.78,0,0,0,.84.84,1.19,1.19,0,0,0,1.15-.81.89.89,0,0,0,0-.32Z"/><path class="cls-4" d="M192.76,273.56c0-.67,0-1.24,0-1.74H194l.07.88h0a2.09,2.09,0,0,1,1.86-1c1,0,2.07.66,2.07,2.51v3.46h-1.47v-3.3c0-.84-.32-1.47-1.12-1.47a1.23,1.23,0,0,0-1.15.86,1.44,1.44,0,0,0-.06.48v3.43h-1.49Z"/><path class="cls-4" d="M204.85,275.91c0,.7,0,1.27.05,1.75h-1.29l-.07-.89h0a2.11,2.11,0,0,1-1.87,1c-1.07,0-2-.63-2-2.54v-3.43h1.48V275c0,1,.31,1.59,1.09,1.59a1.22,1.22,0,0,0,1.12-.79,1.29,1.29,0,0,0,.09-.45v-3.53h1.47Z"/><path class="cls-4" d="M209.74,277.66l-.1-.65h0a2.16,2.16,0,0,1-1.73.78,1.74,1.74,0,0,1-1.84-1.74c0-1.47,1.31-2.21,3.47-2.2v-.1c0-.38-.15-1-1.19-1a3.14,3.14,0,0,0-1.57.43l-.29-1a4.3,4.3,0,0,1,2.12-.51,2.19,2.19,0,0,1,2.41,2.46v2.11a9.36,9.36,0,0,0,.08,1.4Zm-.19-2.85c-1.05,0-2,.2-2,1.09a.78.78,0,0,0,.84.84,1.19,1.19,0,0,0,1.15-.81.89.89,0,0,0,.05-.32Z"/><path class="cls-4" d="M212.55,269.15H214v8.51h-1.49Z"/><path class="cls-4" d="M218.12,273.7c0-.79,0-1.35-.05-1.88h1.28l.05,1.12h0a1.74,1.74,0,0,1,1.59-1.25,1.83,1.83,0,0,1,.35,0v1.4a1.69,1.69,0,0,0-.43-.05,1.29,1.29,0,0,0-1.32,1.11,2.94,2.94,0,0,0,0,.46v3h-1.47Z"/><path class="cls-4" d="M223.43,275.15a1.6,1.6,0,0,0,1.8,1.52,4.3,4.3,0,0,0,1.62-.27l.22,1a5.41,5.41,0,0,1-2,.36,2.76,2.76,0,0,1-3-2.95,2.89,2.89,0,0,1,2.85-3.14c1.9,0,2.52,1.56,2.52,2.84a3,3,0,0,1,0,.62Zm2.57-1a1.25,1.25,0,0,0-1.21-1.42,1.44,1.44,0,0,0-1.36,1.42Z"/><path class="cls-4" d="M229.52,271.82l.94,3c.17.52.29,1,.4,1.47h0c.1-.48.23-.94.39-1.47l.92-3h1.56l-2.23,5.84h-1.45l-2.17-5.84Z"/><path class="cls-4" d="M236.25,270.19a.83.83,0,1,1-.83-.8A.79.79,0,0,1,236.25,270.19Zm-1.57,7.47v-5.84h1.48v5.84Z"/><path class="cls-4" d="M238.79,275.15a1.6,1.6,0,0,0,1.8,1.52,4.34,4.34,0,0,0,1.62-.27l.22,1a5.41,5.41,0,0,1-2,.36,2.76,2.76,0,0,1-3-2.95,2.89,2.89,0,0,1,2.85-3.14c1.9,0,2.52,1.56,2.52,2.84a3,3,0,0,1-.05.62Zm2.57-1a1.25,1.25,0,0,0-1.21-1.42,1.44,1.44,0,0,0-1.36,1.42Z"/><path class="cls-4" d="M244.83,271.82l.61,2.65c.13.62.26,1.26.37,1.9h0c.13-.64.32-1.29.48-1.89l.76-2.66h1.2l.73,2.59c.18.68.34,1.32.47,2h0c.1-.64.23-1.28.39-2l.64-2.59H252l-1.84,5.84h-1.37l-.69-2.37c-.18-.62-.31-1.17-.45-1.87h0a17.88,17.88,0,0,1-.44,1.87l-.75,2.37H245l-1.72-5.84Z"/><path class="cls-4" d="M192.76,286.69a2.89,2.89,0,0,1-3,3.1,2.82,2.82,0,0,1-2.93-3,2.88,2.88,0,0,1,3-3.09A2.8,2.8,0,0,1,192.76,286.69Zm-4.4.06c0,1.12.55,2,1.45,2s1.43-.83,1.43-2c0-.91-.41-2-1.41-2S188.36,285.78,188.36,286.75Z"/><path class="cls-4" d="M194.15,289.66v-4.74h-.79v-1.1h.79v-.25a2.73,2.73,0,0,1,.7-2,2.25,2.25,0,0,1,1.53-.57,2.74,2.74,0,0,1,1,.15l-.11,1.14a1.74,1.74,0,0,0-.63-.11c-.73,0-1,.61-1,1.33v.3h1.28v1.1h-1.27v4.74Z"/><path class="cls-4" d="M200.29,285.56c0-.67,0-1.24,0-1.74h1.27l.06.86h0a2,2,0,0,1,1.8-1,1.68,1.68,0,0,1,1.62,1.08h0a2.19,2.19,0,0,1,.72-.73,2,2,0,0,1,1.18-.35c1,0,2,.66,2,2.53v3.44h-1.44v-3.22c0-1-.33-1.55-1-1.55a1.12,1.12,0,0,0-1,.78,1.87,1.87,0,0,0-.07.49v3.5h-1.44v-3.38c0-.82-.33-1.39-1-1.39a1.17,1.17,0,0,0-1.06.84,1.24,1.24,0,0,0-.08.48v3.45h-1.44Z"/><path class="cls-4" d="M213.75,289.66l-.09-.65h0a2.16,2.16,0,0,1-1.73.78,1.73,1.73,0,0,1-1.83-1.74c0-1.47,1.31-2.21,3.47-2.2v-.1c0-.38-.16-1-1.19-1a3.08,3.08,0,0,0-1.57.43l-.29-1a4.25,4.25,0,0,1,2.11-.51,2.19,2.19,0,0,1,2.41,2.46v2.11a9.36,9.36,0,0,0,.08,1.4Zm-.19-2.85c-1,0-2,.2-2,1.09a.78.78,0,0,0,.84.84,1.19,1.19,0,0,0,1.15-.81.89.89,0,0,0,.05-.32Z"/><path class="cls-4" d="M220.86,289.48a4.22,4.22,0,0,1-1.66.3,2.8,2.8,0,0,1-3-3,3,3,0,0,1,3.25-3.12,3.83,3.83,0,0,1,1.43.27l-.27,1.11a2.53,2.53,0,0,0-1.11-.23,1.89,1.89,0,0,0,0,3.78,2.89,2.89,0,0,0,1.16-.23Z"/><path class="cls-4" d="M222,281.15h1.49v3.47h0a2.05,2.05,0,0,1,.73-.67,2,2,0,0,1,1-.26c1,0,2,.66,2,2.53v3.44h-1.48v-3.27c0-.85-.31-1.49-1.12-1.49a1.19,1.19,0,0,0-1.14.83,1.17,1.17,0,0,0-.06.44v3.49H222Z"/><path class="cls-4" d="M230.39,282.19a.79.79,0,0,1-.84.79.77.77,0,0,1-.82-.79.83.83,0,0,1,1.66,0Zm-1.58,7.47v-5.84h1.49v5.84Z"/><path class="cls-4" d="M231.89,285.56c0-.67,0-1.24,0-1.74h1.29l.08.88h0a2.1,2.1,0,0,1,1.86-1c1,0,2.08.66,2.08,2.51v3.46H235.7v-3.3c0-.84-.31-1.47-1.12-1.47a1.25,1.25,0,0,0-1.15.86,1.75,1.75,0,0,0-.06.48v3.43h-1.48Z"/><path class="cls-4" d="M239.79,287.15a1.6,1.6,0,0,0,1.8,1.52,4.3,4.3,0,0,0,1.62-.27l.22,1a5.41,5.41,0,0,1-2,.36,2.76,2.76,0,0,1-3-2.95,2.89,2.89,0,0,1,2.85-3.14c1.9,0,2.52,1.56,2.52,2.84a3,3,0,0,1-.05.62Zm2.57-1a1.25,1.25,0,0,0-1.21-1.42,1.44,1.44,0,0,0-1.36,1.42Z"/><path class="cls-4" d="M185,294.15v1.67h1.41v1.1H185v2.58c0,.71.2,1.08.76,1.08a2.12,2.12,0,0,0,.58-.07l0,1.13a3.4,3.4,0,0,1-1.07.14,1.71,1.71,0,0,1-1.27-.48,2.34,2.34,0,0,1-.46-1.63v-2.75h-.83v-1.1h.83V294.5Z"/><path class="cls-4" d="M190.79,301.66l-.09-.65h0a2.16,2.16,0,0,1-1.73.78,1.73,1.73,0,0,1-1.83-1.74c0-1.47,1.3-2.21,3.46-2.2v-.1c0-.38-.15-1-1.18-1a3.14,3.14,0,0,0-1.58.43l-.28-1a4.22,4.22,0,0,1,2.11-.51,2.19,2.19,0,0,1,2.41,2.46v2.11a9.36,9.36,0,0,0,.08,1.4Zm-.19-2.85c-1,0-2,.2-2,1.09a.78.78,0,0,0,.84.84,1.19,1.19,0,0,0,1.15-.81.89.89,0,0,0,0-.32Z"/><path class="cls-4" d="M198.94,295.82c0,.4-.05.88-.05,1.68v3.31a2.81,2.81,0,0,1-3.12,3.36,4.18,4.18,0,0,1-2-.47l.33-1.12a3.45,3.45,0,0,0,1.7.45,1.55,1.55,0,0,0,1.68-1.76v-.51h0a2,2,0,0,1-1.71.87,2.59,2.59,0,0,1-2.48-2.86,2.8,2.8,0,0,1,2.65-3.08,1.84,1.84,0,0,1,1.69.91h0l.06-.78Zm-1.52,2.34a1.75,1.75,0,0,0,0-.4,1.23,1.23,0,0,0-1.2-.94c-.83,0-1.44.72-1.44,1.9,0,1,.5,1.8,1.43,1.8a1.24,1.24,0,0,0,1.19-.89,2.25,2.25,0,0,0,.07-.52Z"/><path class="cls-4" d="M205.81,295.82c0,.4,0,.88,0,1.68v3.31a3.39,3.39,0,0,1-.87,2.65,3.35,3.35,0,0,1-2.25.71,4.13,4.13,0,0,1-2-.47l.32-1.12a3.49,3.49,0,0,0,1.71.45,1.55,1.55,0,0,0,1.67-1.76v-.51h0a2,2,0,0,1-1.7.87,2.59,2.59,0,0,1-2.48-2.86,2.79,2.79,0,0,1,2.65-3.08,1.85,1.85,0,0,1,1.69.91h0l.06-.78Zm-1.52,2.34a1.33,1.33,0,0,0,0-.4,1.21,1.21,0,0,0-1.2-.94c-.82,0-1.44.72-1.44,1.9,0,1,.51,1.8,1.43,1.8a1.26,1.26,0,0,0,1.2-.89,2.24,2.24,0,0,0,.06-.52Z"/><path class="cls-4" d="M208.4,299.15a1.59,1.59,0,0,0,1.8,1.52,4.28,4.28,0,0,0,1.61-.27l.22,1a5.37,5.37,0,0,1-2,.36,2.76,2.76,0,0,1-3-2.95,2.89,2.89,0,0,1,2.86-3.14c1.89,0,2.51,1.56,2.51,2.84a4.21,4.21,0,0,1,0,.62Zm2.56-1a1.25,1.25,0,0,0-1.21-1.42,1.43,1.43,0,0,0-1.35,1.42Z"/><path class="cls-4" d="M218.93,293.15V300c0,.6,0,1.25,0,1.64h-1.32l-.06-.92h0a2.09,2.09,0,0,1-1.9,1.05c-1.39,0-2.5-1.18-2.5-3,0-2,1.21-3.12,2.62-3.12a1.84,1.84,0,0,1,1.64.77h0v-3.31Zm-1.47,5.1a2.45,2.45,0,0,0,0-.38,1.28,1.28,0,0,0-1.27-1c-1,0-1.48.84-1.48,1.93s.53,1.85,1.46,1.85a1.32,1.32,0,0,0,1.28-1.05,1.88,1.88,0,0,0,.05-.43Z"/><path class="cls-4" d="M228.39,293.15V300c0,.6,0,1.25,0,1.64h-1.32l-.06-.92h0a2.12,2.12,0,0,1-1.91,1.05c-1.39,0-2.49-1.18-2.49-3,0-2,1.21-3.12,2.61-3.12a1.86,1.86,0,0,1,1.65.77h0v-3.31Zm-1.48,5.1a2.43,2.43,0,0,0,0-.38,1.3,1.3,0,0,0-1.28-1c-.94,0-1.47.84-1.47,1.93s.53,1.85,1.46,1.85a1.3,1.3,0,0,0,1.27-1.05,1.45,1.45,0,0,0,0-.43Z"/><path class="cls-4" d="M233.26,301.66l-.1-.65h0a2.16,2.16,0,0,1-1.73.78,1.73,1.73,0,0,1-1.84-1.74c0-1.47,1.31-2.21,3.47-2.2v-.1c0-.38-.15-1-1.19-1a3.14,3.14,0,0,0-1.57.43l-.29-1a4.3,4.3,0,0,1,2.12-.51,2.19,2.19,0,0,1,2.41,2.46v2.11a9.36,9.36,0,0,0,.08,1.4Zm-.19-2.85c-1,0-2,.2-2,1.09a.78.78,0,0,0,.84.84,1.15,1.15,0,0,0,1.2-1.13Z"/><path class="cls-4" d="M237.76,294.15v1.67h1.4v1.1h-1.4v2.58c0,.71.19,1.08.76,1.08a2,2,0,0,0,.57-.07l0,1.13a3.4,3.4,0,0,1-1.07.14,1.69,1.69,0,0,1-1.27-.48,2.29,2.29,0,0,1-.46-1.63v-2.75h-.84v-1.1h.84V294.5Z"/><path class="cls-4" d="M243.57,301.66l-.1-.65h0a2.15,2.15,0,0,1-1.72.78,1.73,1.73,0,0,1-1.84-1.74c0-1.47,1.31-2.21,3.47-2.2v-.1c0-.38-.16-1-1.19-1a3.14,3.14,0,0,0-1.57.43l-.29-1a4.25,4.25,0,0,1,2.11-.51,2.19,2.19,0,0,1,2.41,2.46v2.11a9.21,9.21,0,0,0,.09,1.4Zm-.19-2.85c-1,0-2,.2-2,1.09a.78.78,0,0,0,.84.84,1.2,1.2,0,0,0,1.15-.81,1.19,1.19,0,0,0,0-.32Z"/><path class="cls-4" d="M259.89,125.16v3.26l-7.3-4.16,7.28-4.15v3.24h.73c3,0,6,0,9,0a4.36,4.36,0,0,0,4.57-4.55q0-18.39,0-36.76a4.4,4.4,0,0,0-4.61-4.6h-3.18v3.19h-21V77.43c-1.71.09-3.39-.28-5,.31a4.25,4.25,0,0,0-2.8,3.35.59.59,0,0,0,.42.79,3.59,3.59,0,0,1,0,6.67.71.71,0,0,0-.5.78q0,14.64,0,29.29a4.42,4.42,0,0,0,4.77,4.73l5.56,0a.62.62,0,0,1,.18.07v1.72h-1.33A55.3,55.3,0,0,1,241,125a6,6,0,0,1-5.35-6.21c0-5.35,0-10.7,0-16.06,0-4.45,0-8.91,0-13.37a.81.81,0,0,0-.57-.88,3.59,3.59,0,0,1,0-6.61.9.9,0,0,0,.63-.86,6.18,6.18,0,0,1,6.14-5.4c1.1,0,2.2,0,3.38,0V72.49c.33,0,.57,0,.82,0,1.46,0,2.91,0,4.37,0a.56.56,0,0,0,.64-.47,4.95,4.95,0,0,1,9.49,0,.59.59,0,0,0,.68.51c1.43,0,2.86,0,4.3,0h.82v3.19c1.14,0,2.21,0,3.28,0a6,6,0,0,1,5.79,3.74A6.55,6.55,0,0,1,276,82q0,18.45,0,36.9a6.21,6.21,0,0,1-6.29,6.3c-3,0-6,0-8.94,0Zm4.64-46.34V74.27H247.16v4.55Zm-28,4.53a1.85,1.85,0,0,0-1.86,1.87,1.9,1.9,0,0,0,1.87,1.88,1.93,1.93,0,0,0,1.91-1.93A1.87,1.87,0,0,0,236.55,83.35Zm16.39-11h5.86a3,3,0,0,0-3.23-2.16A2.86,2.86,0,0,0,252.94,72.39Z"/><path class="cls-4" d="M269.86,87.66v1.69h-14V87.66Z"/><path class="cls-4" d="M269.9,96.07c0,.37,0,.7,0,1s0,.42,0,.68h-14v-1.7Z"/><path class="cls-4" d="M269.9,105.72h-14V104h13c.95,0,.95,0,.95.94Z"/><path class="cls-4" d="M269.85,114.58h-14v-1.71h14Z"/><path class="cls-4" d="M244.81,108.93l-3.41-3.49,1.24-1.27,2.08,2.41,5-5.23,1.23,1.28Z"/><path class="cls-4" d="M249.86,110.27l1.13,1.17-6.15,6.3-3.34-3.52,1.05-1.07,2.08,2.26Z"/><path class="cls-4" d="M249.91,85.18l1,1-6.11,6.35L241.44,89l1.16-1.1,2.12,2.31,5-5.3Z"/><path class="cls-4" d="M241.55,97.59l1.16-1.2,2,2.25,5-5.31,1.17,1.42-6.07,6.31Z"/><path class="cls-4" d="M103.13,269.52a6.82,6.82,0,0,1,1.8-3.55,5.53,5.53,0,0,1,3.76-1.63c2.72,0,5.44,0,8.21,0v2.19c-.23,0-.48,0-.72,0h-7.07a3.58,3.58,0,0,0-3.72,3.69v26.64a3.61,3.61,0,0,0,3.72,3.7c1.93,0,3.87,0,5.8,0a2.85,2.85,0,0,1,1.36.39c2,1.16,4,2.37,5.92,3.57l.68.37v-4.35h.88c7.67,0,15.33,0,23,0,.51,0,.76-.1.93-.64a4.43,4.43,0,0,1,4.28-3,4.5,4.5,0,0,1,4.17,3.08c.06.17.11.35.17.51,2.37.26,4.07-.79,4.52-2.79a5.81,5.81,0,0,0,.09-1.18c0-8.67,0-17.34,0-26a3.91,3.91,0,0,0-4.07-4c-7.34.09-14.68,0-22,0h-.9v4l-8.88-5.18,8.91-5.1v4h22.66c3.52,0,5.43,1.43,6.42,4.81,0,0,0,.07.08.11v28.67s-.07.06-.08.1c-.93,3.32-2.85,4.79-6.28,4.78a.83.83,0,0,0-.88.56,4.45,4.45,0,0,1-8,0,.93.93,0,0,0-1-.61c-7,0-14,0-21,0h-.79V309H125a2.54,2.54,0,0,0-.29-.28c-3.1-1.88-6.2-3.77-9.32-5.64a2,2,0,0,0-.91-.23c-1.82,0-3.64,0-5.46,0a5.79,5.79,0,0,1-5.51-4c-.12-.4-.22-.8-.33-1.2Zm51,31.94a2.28,2.28,0,1,0-2.33,2.22A2.3,2.3,0,0,0,154.16,301.46Z"/><path class="cls-4" d="M127.18,291.25c.31-1.83.54-3.58.92-5.29a2,2,0,0,0-.68-2.24,32.73,32.73,0,0,1-2.43-2.63c-1.28,1.24-2.4,2.31-3.48,3.42-.13.15-.08.53,0,.79q.44,2.58.89,5.16c0,.22.06.45.11.8-1.56-.81-3.07-1.5-4.46-2.36a2.42,2.42,0,0,0-3,0c-1.19.77-2.49,1.35-3.75,2-.22.11-.45.21-.75.34.35-2.07.67-4.07,1-6.06a1,1,0,0,0-.33-1c-1.4-1.43-2.76-2.9-4.11-4.34l2.64-.4c1.08-.16,2.17-.28,3.24-.48a1.13,1.13,0,0,0,.7-.53c.93-1.81,1.83-3.65,2.78-5.58l1.82,3.64a6.43,6.43,0,0,1,.53,1.13,2,2,0,0,0,2.1,1.52,11.59,11.59,0,0,1,2.28.31c2.27.49,4.43-.31,6.64-.53.2,0,.42-.34.53-.56.9-1.79,1.78-3.58,2.71-5.47.15.25.26.41.35.59.8,1.63,1.61,3.25,2.39,4.89a1,1,0,0,0,.9.63c1.2.15,2.4.3,3.59.53,1.47.28,2.86-.29,4.29-.29a3.08,3.08,0,0,0,3.18-2.36,40.75,40.75,0,0,1,1.86-3.82s.07-.07.14-.15c.72,1.46,1.52,2.86,2.1,4.34a2.72,2.72,0,0,0,2.73,2,43.91,43.91,0,0,1,4.62.66,41.32,41.32,0,0,1-3.06,3.14,3.11,3.11,0,0,0-1.26,3.69,31.48,31.48,0,0,1,.76,4.25,1,1,0,0,1,0,.24l-.66-.32c-1.55-.81-3.1-1.6-4.63-2.44a1.11,1.11,0,0,0-1.21,0c-1.73.95-3.49,1.85-5.36,2.84l.59-3.59a9.72,9.72,0,0,1,.31-1.71,2,2,0,0,0-.8-2.39,29,29,0,0,1-2.33-2.47c-1.23,1.2-2.32,2.25-3.38,3.33a1,1,0,0,0-.12.69c.29,1.79.6,3.58.91,5.37,0,.2.06.4.1.74-.33-.17-.57-.28-.8-.41-1.55-.81-3.1-1.61-4.63-2.44a1,1,0,0,0-1,0c-1.58.86-3.17,1.68-4.76,2.52ZM145,281.44c.69.72,1.31,1.38,2,2a.86.86,0,0,1,.29.91c-.2.9-.32,1.82-.48,2.83.87-.45,1.66-.85,2.42-1.28a1,1,0,0,1,1.15,0c.77.45,1.57.83,2.47,1.3-.16-.92-.26-1.7-.44-2.47a1.32,1.32,0,0,1,.48-1.51c.62-.51,1.18-1.09,1.89-1.75-1.1-.17-2-.33-2.84-.41a1,1,0,0,1-.91-.7c-.37-.8-.78-1.58-1.21-2.45-.44.9-.86,1.7-1.24,2.52a.92.92,0,0,1-.81.62C146.83,281.14,145.94,281.3,145,281.44Zm-8.83,5.76c-.17-1-.35-1.95-.46-2.87a1.17,1.17,0,0,1,.27-.83c.62-.68,1.3-1.3,2.05-2-1-.15-1.92-.32-2.81-.41a1,1,0,0,1-.86-.66c-.36-.8-.77-1.58-1.21-2.48-.43.86-.84,1.59-1.15,2.36a1.2,1.2,0,0,1-1.13.82c-.82.08-1.64.23-2.65.37.77.74,1.41,1.37,2.07,2a.87.87,0,0,1,.32,1c-.19.88-.31,1.77-.48,2.79.92-.48,1.72-.94,2.55-1.31a1.27,1.27,0,0,1,.94,0C134.44,286.26,135.23,286.71,136.17,287.2Zm-19.66-9.28c-.46.92-.85,1.77-1.3,2.58a1.2,1.2,0,0,1-.71.5c-.9.19-1.81.3-2.82.46.68.69,1.29,1.33,1.93,1.93a1,1,0,0,1,.35,1.09c-.2.85-.3,1.73-.46,2.72.88-.46,1.68-.84,2.43-1.29a1.07,1.07,0,0,1,1.21,0c.75.43,1.52.81,2.4,1.27-.16-.94-.26-1.73-.44-2.49a1.35,1.35,0,0,1,.49-1.51,17.87,17.87,0,0,0,1.6-1.77c-.82-.12-1.69-.28-2.56-.37a1,1,0,0,1-.88-.64C117.38,279.59,117,278.8,116.51,277.92Z"/><path class="cls-4" d="M108.19,124.19l-8.26,4.62V125.2H52.27V80.87h56.87v.9q0,13,0,26.09a1,1,0,0,0,.7,1.12,3.9,3.9,0,0,1,2.35,4.43,4.19,4.19,0,0,1-8.15,0,3.93,3.93,0,0,1,2.38-4.42,1,1,0,0,0,.69-1.06q0-12.1,0-24.2v-.84H54.32v40.28H99.89v-3.59Zm-.07-9.49a2,2,0,0,0,2.14-2.12,2.09,2.09,0,0,0-2.12-2.1,2.15,2.15,0,0,0-2.2,2.12A2.06,2.06,0,0,0,108.12,114.7Z"/><path class="cls-4" d="M105,91.81v14.34h-2V93.79H58.68v25.44h36.2v2H56.63V91.81Z"/><path class="cls-4" d="M73.8,100l3.34,11.58,2.91-9.71,1.73,6.48.15,0,4.81-14.09c.45,1.67.85,3.14,1.23,4.6.75,2.83,1.52,5.65,2.23,8.49.16.63.44.78,1,.77,1.57,0,3.13,0,4.75,0v2h-.7c-1.92,0-3.83,0-5.74,0-.58,0-.79-.19-.93-.73-.61-2.43-1.28-4.86-1.92-7.29,0-.18-.12-.36-.22-.69-1.63,4.78-3.21,9.4-4.87,14.24l-1.68-6.25-2.75,9.18-.15,0-3.72-12.88c-.64,1.42-1.17,2.65-1.75,3.86a.91.91,0,0,1-.58.5c-1.86,0-3.72,0-5.63,0v-2a32.83,32.83,0,0,1,3.29,0,1.63,1.63,0,0,0,1.92-1.22c1-2.35,2-4.64,3.08-7Z"/><path class="cls-4" d="M72.3,90.17a2.72,2.72,0,1,1,0-5.43,2.72,2.72,0,1,1,0,5.43Zm.88-2.56v-.33c-.28-.19-.58-.54-.85-.51a1.08,1.08,0,0,0-.73.67.62.62,0,0,0,.74.73C72.64,88.13,72.9,87.81,73.18,87.61Z"/><path class="cls-4" d="M65.83,90.17a2.72,2.72,0,1,1,2.84-2.69A2.76,2.76,0,0,1,65.83,90.17Zm.91-2.59,0-.33c-.29-.17-.61-.52-.87-.48a1.05,1.05,0,0,0-.7.69.61.61,0,0,0,.76.71C66.21,88.11,66.46,87.78,66.74,87.58Z"/><path class="cls-4" d="M59.44,90.17a2.72,2.72,0,1,1,2.79-2.74A2.76,2.76,0,0,1,59.44,90.17Zm.84-2.55v-.31c-.29-.19-.58-.56-.85-.54a1.06,1.06,0,0,0-.76.65.62.62,0,0,0,.73.75C59.72,88.14,60,87.82,60.28,87.62Z"/></svg>