<svg id="Layer_1" data-name="Layer 1" xmlns="http://www.w3.org/2000/svg" width="100" height="100" viewBox="0 0 100 100"><title>SOC-monitoring</title><path d="M93.2,82.26,79.43,90v-6H0V10.05H94.78v1.5q0,21.73,0,43.48a1.67,1.67,0,0,0,1.17,1.88,6.48,6.48,0,0,1,3.92,7.38,7,7,0,0,1-13.58,0,6.53,6.53,0,0,1,4-7.37,1.58,1.58,0,0,0,1.14-1.77q0-20.16,0-40.33v-1.4H3.41V80.51h76v-6Zm-.12-15.82a3.33,3.33,0,0,0,3.57-3.53,3.47,3.47,0,0,0-3.53-3.5,3.56,3.56,0,0,0-3.67,3.53A3.43,3.43,0,0,0,93.08,66.44Z"/><path d="M88,28.28V52.19H84.62V31.59H10.68V74H71v3.28H7.27v-49Z"/><path d="M35.88,41.92l5.57,19.31c1.65-5.52,3.21-10.7,4.86-16.19l2.88,10.8.24.06,8-23.48c.74,2.78,1.4,5.23,2,7.67,1.25,4.71,2.53,9.42,3.7,14.15.27,1,.74,1.3,1.74,1.28,2.61-.07,5.22,0,7.92,0v3.27H71.69c-3.19,0-6.38,0-9.56,0-1,0-1.32-.31-1.54-1.21-1-4.06-2.13-8.1-3.21-12.15-.08-.3-.19-.6-.37-1.14L48.9,68,46.11,57.59c-1.6,5.31-3.1,10.3-4.59,15.29l-.25,0c-2-7-4.06-14.08-6.2-21.47-1.07,2.38-2,4.42-2.92,6.44-.18.36-.63.82-1,.83-3.1.06-6.21,0-9.38,0V55.49c1.81,0,3.66-.13,5.47,0s2.55-.42,3.2-2c1.58-3.92,3.4-7.74,5.13-11.6Z"/><path d="M33.38,25.55a4.53,4.53,0,1,1,0-9,4.53,4.53,0,1,1,0,9.05Zm1.46-4.26v-.55c-.48-.31-1-.9-1.42-.85A1.78,1.78,0,0,0,32.2,21a1,1,0,0,0,1.24,1.22C33.94,22.15,34.38,21.61,34.84,21.29Z"/><path d="M22.6,25.55a4.53,4.53,0,1,1,4.72-4.47A4.53,4.53,0,0,1,22.6,25.55Zm1.51-4.32,0-.54c-.48-.29-1-.87-1.44-.8A1.76,1.76,0,0,0,21.46,21a1,1,0,0,0,1.28,1.18C23.24,22.12,23.65,21.58,24.11,21.23Z"/><path d="M11.94,25.55a4.53,4.53,0,1,1-.08-9A4.65,4.65,0,0,1,16.61,21,4.62,4.62,0,0,1,11.94,25.55Zm1.41-4.24v-.52c-.47-.32-1-.93-1.41-.9A1.76,1.76,0,0,0,10.68,21a1,1,0,0,0,1.22,1.25C12.41,22.16,12.87,21.63,13.35,21.31Z"/></svg>