<svg id="Layer_1" data-name="Layer 1" xmlns="http://www.w3.org/2000/svg" viewBox="0 0 350.5 351"><defs><style>.cls-1{fill:#372261;}.cls-2{fill:#fff;}</style></defs><title>sports</title><path class="cls-1" d="M60.28,295.34a19.64,19.64,0,0,1,3.39-.25,5.46,5.46,0,0,1,3.58,1,3.42,3.42,0,0,1,1.19,2.68,3.68,3.68,0,0,1-1,2.76,5.34,5.34,0,0,1-3.83,1.29,6.66,6.66,0,0,1-1.08-.07v4.57h-2.2Zm2.2,5.65a4.09,4.09,0,0,0,1.08.09c1.65,0,2.66-.81,2.66-2.23s-.93-2.07-2.46-2.07a5.63,5.63,0,0,0-1.28.11Z"/><path class="cls-1" d="M71.82,303.55c.05,1.58,1.3,2.27,2.7,2.27a6.38,6.38,0,0,0,2.43-.4l.33,1.53a8.25,8.25,0,0,1-3.07.54,4.14,4.14,0,0,1-4.51-4.43c0-2.43,1.47-4.71,4.28-4.71s3.78,2.34,3.78,4.27a5.08,5.08,0,0,1-.07.93ZM75.67,302a1.88,1.88,0,0,0-1.82-2.14,2.17,2.17,0,0,0-2,2.14Z"/><path class="cls-1" d="M79.54,301.37c0-1.19,0-2-.07-2.83H81.4l.07,1.68h.07a2.61,2.61,0,0,1,2.39-1.87,2.81,2.81,0,0,1,.53,0v2.09a2.87,2.87,0,0,0-.65-.07,2,2,0,0,0-2,1.67,3.49,3.49,0,0,0-.07.69v4.53H79.54Z"/><path class="cls-1" d="M85.84,305.28a4.92,4.92,0,0,0,2.25.63c1,0,1.41-.4,1.41-1s-.36-.9-1.44-1.28c-1.71-.6-2.43-1.53-2.42-2.56,0-1.55,1.28-2.75,3.32-2.75a5.17,5.17,0,0,1,2.32.52l-.43,1.57a3.9,3.9,0,0,0-1.86-.51c-.79,0-1.22.38-1.22.92s.41.83,1.53,1.22c1.58.58,2.32,1.39,2.34,2.69,0,1.58-1.24,2.73-3.57,2.73a5.65,5.65,0,0,1-2.66-.61Z"/><path class="cls-1" d="M101.79,302.85a4.34,4.34,0,0,1-4.5,4.66A4.24,4.24,0,0,1,92.9,303a4.32,4.32,0,0,1,4.53-4.64A4.21,4.21,0,0,1,101.79,302.85Zm-6.61.09c0,1.69.83,3,2.18,3s2.14-1.24,2.14-3c0-1.37-.61-2.93-2.12-2.93S95.18,301.48,95.18,302.94Z"/><path class="cls-1" d="M103.61,301.16c0-1,0-1.86-.07-2.62h1.94l.11,1.32h0a3.17,3.17,0,0,1,2.79-1.51c1.53,0,3.12,1,3.12,3.76v5.2h-2.22v-4.95c0-1.26-.46-2.21-1.67-2.21a1.86,1.86,0,0,0-1.73,1.29,2.33,2.33,0,0,0-.09.72v5.15h-2.23Z"/><path class="cls-1" d="M118.84,307.31l-.15-1h0a3.25,3.25,0,0,1-2.6,1.17,2.6,2.6,0,0,1-2.75-2.61c0-2.21,2-3.33,5.2-3.31v-.15c0-.57-.23-1.53-1.78-1.53a4.66,4.66,0,0,0-2.36.65l-.43-1.44a6.38,6.38,0,0,1,3.17-.77c2.81,0,3.62,1.78,3.62,3.69v3.17a14.08,14.08,0,0,0,.12,2.1Zm-.29-4.28c-1.57,0-3.06.3-3.06,1.64a1.16,1.16,0,0,0,1.26,1.26,1.8,1.8,0,0,0,1.73-1.21,1.71,1.71,0,0,0,.07-.49Z"/><path class="cls-1" d="M123.05,294.53h2.23v12.78h-2.23Z"/><path class="cls-1" d="M130,296.1a1.18,1.18,0,0,1-1.26,1.19,1.16,1.16,0,0,1-1.22-1.19,1.24,1.24,0,0,1,2.48,0Zm-2.36,11.21v-8.77h2.24v8.77Z"/><path class="cls-1" d="M131.45,306l3.3-4.22c.45-.54.83-1,1.29-1.47v0h-4.26v-1.77h7v1.36L135.52,304c-.43.52-.85,1-1.3,1.49v0h4.63v1.76h-7.4Z"/><path class="cls-1" d="M142,303.55c.05,1.58,1.29,2.27,2.7,2.27a6.46,6.46,0,0,0,2.43-.4l.32,1.53a8.15,8.15,0,0,1-3.06.54,4.15,4.15,0,0,1-4.52-4.43c0-2.43,1.48-4.71,4.29-4.71s3.78,2.34,3.78,4.27a6.18,6.18,0,0,1-.07.93ZM145.8,302a1.88,1.88,0,0,0-1.82-2.14,2.16,2.16,0,0,0-2,2.14Z"/><path class="cls-1" d="M157.75,294.53v10.32c0,.9,0,1.87.07,2.46h-2l-.09-1.38h0a3.16,3.16,0,0,1-2.86,1.58c-2.09,0-3.75-1.78-3.75-4.48,0-2.94,1.82-4.68,3.93-4.68a2.78,2.78,0,0,1,2.46,1.15h0v-5Zm-2.21,7.67a2.86,2.86,0,0,0-.06-.58,1.93,1.93,0,0,0-1.9-1.56c-1.43,0-2.22,1.26-2.22,2.9s.79,2.77,2.2,2.77a2,2,0,0,0,1.91-1.57,2.64,2.64,0,0,0,.07-.65Z"/><path class="cls-1" d="M164.1,307.31V300.2h-1.18v-1.66h1.18v-.37a4.08,4.08,0,0,1,1.07-3,3.35,3.35,0,0,1,2.28-.85,4.21,4.21,0,0,1,1.43.22l-.17,1.71a2.55,2.55,0,0,0-.93-.16c-1.1,0-1.48.91-1.48,2v.44h1.93v1.66h-1.91v7.11Z"/><path class="cls-1" d="M174.53,307.31l-.15-1h0a3.24,3.24,0,0,1-2.59,1.17A2.6,2.6,0,0,1,169,304.9c0-2.21,2-3.33,5.21-3.31v-.15c0-.57-.24-1.53-1.79-1.53a4.66,4.66,0,0,0-2.36.65l-.43-1.44a6.38,6.38,0,0,1,3.17-.77c2.81,0,3.62,1.78,3.62,3.69v3.17a13.93,13.93,0,0,0,.13,2.1Zm-.29-4.28c-1.57,0-3.06.3-3.06,1.64a1.16,1.16,0,0,0,1.26,1.26,1.8,1.8,0,0,0,1.73-1.21,1.71,1.71,0,0,0,.07-.49Z"/><path class="cls-1" d="M178.74,301.16c0-1,0-1.86-.07-2.62h1.94l.11,1.32h.05a3.17,3.17,0,0,1,2.79-1.51c1.53,0,3.12,1,3.12,3.76v5.2h-2.22v-4.95c0-1.26-.46-2.21-1.67-2.21a1.86,1.86,0,0,0-1.73,1.29,2.33,2.33,0,0,0-.09.72v5.15h-2.23Z"/><path class="cls-1" d="M194.33,303.55c0,1.58,1.29,2.27,2.7,2.27a6.46,6.46,0,0,0,2.43-.4l.32,1.53a8.15,8.15,0,0,1-3.06.54,4.15,4.15,0,0,1-4.52-4.43c0-2.43,1.48-4.71,4.29-4.71s3.78,2.34,3.78,4.27a6.18,6.18,0,0,1-.07.93Zm3.85-1.55a1.88,1.88,0,0,0-1.82-2.14,2.16,2.16,0,0,0-2,2.14Z"/><path class="cls-1" d="M202.05,301.16c0-1,0-1.86-.08-2.62h1.95l.11,1.32h.05a3.17,3.17,0,0,1,2.79-1.51c1.53,0,3.12,1,3.12,3.76v5.2h-2.22v-4.95c0-1.26-.47-2.21-1.67-2.21a1.86,1.86,0,0,0-1.73,1.29,2.33,2.33,0,0,0-.09.72v5.15h-2.23Z"/><path class="cls-1" d="M220.36,298.54c0,.6-.08,1.32-.08,2.53v5c0,1.83-.37,3.15-1.29,4a5,5,0,0,1-3.39,1.07,6.32,6.32,0,0,1-3.06-.7l.49-1.68a5.29,5.29,0,0,0,2.55.67,2.33,2.33,0,0,0,2.52-2.65V306h0a3,3,0,0,1-2.56,1.3c-2.18,0-3.72-1.8-3.72-4.29,0-2.88,1.87-4.62,4-4.62a2.75,2.75,0,0,1,2.54,1.37h0l.09-1.18Zm-2.29,3.52a2.35,2.35,0,0,0-.07-.6,1.85,1.85,0,0,0-1.8-1.42c-1.25,0-2.16,1.08-2.16,2.86,0,1.5.75,2.7,2.14,2.7a1.89,1.89,0,0,0,1.8-1.33,4.07,4.07,0,0,0,.09-.79Z"/><path class="cls-1" d="M227.59,307.31l-.14-1h-.06a3.24,3.24,0,0,1-2.59,1.17A2.61,2.61,0,0,1,222,304.9c0-2.21,2-3.33,5.21-3.31v-.15c0-.57-.24-1.53-1.78-1.53a4.6,4.6,0,0,0-2.36.65l-.44-1.44a6.41,6.41,0,0,1,3.17-.77c2.81,0,3.62,1.78,3.62,3.69v3.17a13.93,13.93,0,0,0,.13,2.1ZM227.3,303c-1.56,0-3.06.3-3.06,1.64a1.16,1.16,0,0,0,1.26,1.26,1.8,1.8,0,0,0,1.73-1.21,1.71,1.71,0,0,0,.07-.49Z"/><path class="cls-1" d="M239.81,298.54c0,.6-.07,1.32-.07,2.53v5c0,1.83-.38,3.15-1.3,4a5,5,0,0,1-3.38,1.07,6.26,6.26,0,0,1-3.06-.7l.48-1.68a5.37,5.37,0,0,0,2.56.67,2.33,2.33,0,0,0,2.52-2.65V306h0a3,3,0,0,1-2.56,1.3c-2.18,0-3.73-1.8-3.73-4.29,0-2.88,1.88-4.62,4-4.62a2.76,2.76,0,0,1,2.54,1.37h0l.09-1.18Zm-2.28,3.52a2,2,0,0,0-.08-.6,1.83,1.83,0,0,0-1.8-1.42c-1.24,0-2.16,1.08-2.16,2.86,0,1.5.76,2.7,2.15,2.7a1.91,1.91,0,0,0,1.8-1.33,4.07,4.07,0,0,0,.09-.79Z"/><path class="cls-1" d="M243.68,303.55c.06,1.58,1.3,2.27,2.7,2.27a6.38,6.38,0,0,0,2.43-.4l.33,1.53a8.19,8.19,0,0,1-3.06.54,4.14,4.14,0,0,1-4.52-4.43c0-2.43,1.47-4.71,4.28-4.71s3.78,2.34,3.78,4.27a5.08,5.08,0,0,1-.07.93Zm3.85-1.55a1.88,1.88,0,0,0-1.81-2.14,2.17,2.17,0,0,0-2,2.14Z"/><path class="cls-1" d="M251.4,301.16c0-1,0-1.86-.07-2.62h1.91l.09,1.3h0a3.06,3.06,0,0,1,2.7-1.49,2.51,2.51,0,0,1,2.43,1.62h0a3.34,3.34,0,0,1,1.08-1.1,3,3,0,0,1,1.77-.52c1.45,0,2.93,1,2.93,3.8v5.16h-2.16v-4.84c0-1.46-.5-2.32-1.57-2.32a1.7,1.7,0,0,0-1.55,1.17,3.31,3.31,0,0,0-.1.74v5.25h-2.16v-5.07c0-1.23-.49-2.09-1.52-2.09a1.74,1.74,0,0,0-1.58,1.26,1.88,1.88,0,0,0-.13.72v5.18H251.4Z"/><path class="cls-1" d="M268.23,303.55c.06,1.58,1.3,2.27,2.7,2.27a6.38,6.38,0,0,0,2.43-.4l.33,1.53a8.19,8.19,0,0,1-3.06.54,4.14,4.14,0,0,1-4.52-4.43c0-2.43,1.47-4.71,4.28-4.71s3.78,2.34,3.78,4.27a5.08,5.08,0,0,1-.07.93Zm3.86-1.55a1.89,1.89,0,0,0-1.82-2.14,2.17,2.17,0,0,0-2,2.14Z"/><path class="cls-1" d="M276,301.16c0-1,0-1.86-.07-2.62h1.95l.1,1.32H278a3.17,3.17,0,0,1,2.79-1.51c1.53,0,3.11,1,3.11,3.76v5.2h-2.21v-4.95c0-1.26-.47-2.21-1.67-2.21a1.85,1.85,0,0,0-1.73,1.29,2.33,2.33,0,0,0-.09.72v5.15H276Z"/><path class="cls-1" d="M288.79,296v2.5h2.11v1.66h-2.11v3.87c0,1.06.29,1.62,1.13,1.62a3.57,3.57,0,0,0,.87-.1l0,1.69a5,5,0,0,1-1.6.21,2.58,2.58,0,0,1-1.91-.72,3.46,3.46,0,0,1-.68-2.44V300.2h-1.26v-1.66h1.26v-2Z"/><path class="cls-1" d="M267,18.6l83.5,83.5L267,185.6l-83.49-83.5Z"/><path class="cls-1" d="M175.19,113l83.5,83.49L175.19,280l-83.5-83.5Z"/><path class="cls-1" d="M167.31,103.37l-83.49,83.5L.32,103.37l83.5-83.5Z"/><path class="cls-2" d="M44.54,116.68a11.59,11.59,0,0,1,2.18-.17,3.52,3.52,0,0,1,2.31.64,2.19,2.19,0,0,1,.77,1.73,2.36,2.36,0,0,1-.68,1.77,3.43,3.43,0,0,1-2.47.84,3.48,3.48,0,0,1-.69,0v3H44.54ZM46,120.32a3.14,3.14,0,0,0,.69.06c1.07,0,1.72-.53,1.72-1.44s-.6-1.34-1.59-1.34a4.29,4.29,0,0,0-.82.07Z"/><path class="cls-2" d="M50.83,120.56c0-.77,0-1.31,0-1.82H52l0,1.08h0a1.69,1.69,0,0,1,1.54-1.21,1.22,1.22,0,0,1,.34,0V120a2.39,2.39,0,0,0-.42,0A1.26,1.26,0,0,0,52.3,121a2.87,2.87,0,0,0,0,.44v2.93H50.83Z"/><path class="cls-2" d="M60.23,121.51a2.81,2.81,0,0,1-2.9,3,2.74,2.74,0,0,1-2.83-2.92,2.79,2.79,0,0,1,2.92-3A2.71,2.71,0,0,1,60.23,121.51Zm-4.26.06c0,1.09.53,1.91,1.4,1.91s1.38-.8,1.38-1.93c0-.88-.39-1.89-1.37-1.89S56,120.63,56,121.57Z"/><path class="cls-2" d="M61.4,120.42c0-.65,0-1.19,0-1.68h1.23l.06.84h0a1.94,1.94,0,0,1,1.74-1,1.62,1.62,0,0,1,1.57,1h0a2.07,2.07,0,0,1,.7-.71,1.87,1.87,0,0,1,1.13-.34c.94,0,1.89.64,1.89,2.45v3.33H68.33v-3.12c0-.94-.32-1.5-1-1.5a1.09,1.09,0,0,0-1,.76,1.78,1.78,0,0,0-.07.47v3.39H64.87v-3.27c0-.79-.32-1.35-1-1.35a1.12,1.12,0,0,0-1,.81,1.22,1.22,0,0,0-.08.47v3.34H61.4Z"/><path class="cls-2" d="M76.6,121.51a2.8,2.8,0,0,1-2.89,3,2.73,2.73,0,0,1-2.83-2.92,2.79,2.79,0,0,1,2.92-3A2.7,2.7,0,0,1,76.6,121.51Zm-4.25.06c0,1.09.53,1.91,1.4,1.91s1.38-.8,1.38-1.93c0-.88-.39-1.89-1.37-1.89S72.35,120.63,72.35,121.57Z"/><path class="cls-2" d="M79.41,117.13v1.61h1.36v1.07H79.41v2.49c0,.68.19,1,.73,1a1.91,1.91,0,0,0,.56-.07l0,1.09a2.91,2.91,0,0,1-1,.14,1.66,1.66,0,0,1-1.23-.46,2.26,2.26,0,0,1-.44-1.58v-2.65h-.81v-1.07H78v-1.28Z"/><path class="cls-2" d="M83.37,117.16a.8.8,0,1,1-.8-.77A.76.76,0,0,1,83.37,117.16Zm-1.52,7.23v-5.65h1.44v5.65Z"/><path class="cls-2" d="M90.19,121.51a2.8,2.8,0,0,1-2.9,3,2.74,2.74,0,0,1-2.83-2.92,2.79,2.79,0,0,1,2.92-3A2.71,2.71,0,0,1,90.19,121.51Zm-4.26.06c0,1.09.54,1.91,1.41,1.91s1.38-.8,1.38-1.93c0-.88-.4-1.89-1.37-1.89S85.93,120.63,85.93,121.57Z"/><path class="cls-2" d="M91.36,120.42c0-.65,0-1.19,0-1.68h1.25l.07.85h0a2.05,2.05,0,0,1,1.8-1c1,0,2,.64,2,2.43v3.35H95.05V121.2c0-.81-.3-1.43-1.08-1.43a1.19,1.19,0,0,0-1.11.84,1.32,1.32,0,0,0-.06.46v3.32H91.36Z"/><path class="cls-2" d="M97.93,123.08a3.26,3.26,0,0,0,1.45.4c.62,0,.9-.25.9-.62s-.23-.58-.93-.83c-1.1-.38-1.56-1-1.55-1.64a1.89,1.89,0,0,1,2.13-1.78,3.39,3.39,0,0,1,1.5.34l-.28,1a2.49,2.49,0,0,0-1.19-.33c-.51,0-.79.25-.79.59s.26.54,1,.79c1,.37,1.5.9,1.51,1.73,0,1-.8,1.76-2.29,1.76a3.67,3.67,0,0,1-1.72-.39Z"/><path class="cls-2" d="M108.41,124.39l-.09-.63h0a2.11,2.11,0,0,1-1.67.76,1.68,1.68,0,0,1-1.78-1.69c0-1.42,1.26-2.14,3.35-2.13v-.09c0-.37-.15-1-1.15-1a2.91,2.91,0,0,0-1.51.42l-.28-.93a4.07,4.07,0,0,1,2-.5,2.11,2.11,0,0,1,2.33,2.38v2a8.88,8.88,0,0,0,.08,1.36Zm-.18-2.76c-1,0-2,.2-2,1.05a.75.75,0,0,0,.81.82,1.16,1.16,0,0,0,1.11-.78.93.93,0,0,0,0-.32Z"/><path class="cls-2" d="M111.13,120.42c0-.65,0-1.19,0-1.68h1.25l.07.85h0a2,2,0,0,1,1.8-1c1,0,2,.64,2,2.43v3.35h-1.42V121.2c0-.81-.31-1.43-1.08-1.43a1.19,1.19,0,0,0-1.11.84,1.32,1.32,0,0,0-.06.46v3.32h-1.44Z"/><path class="cls-2" d="M123,116.15v6.65c0,.58,0,1.2,0,1.59h-1.28l-.06-.89h0a2,2,0,0,1-1.84,1c-1.35,0-2.42-1.15-2.42-2.89s1.18-3,2.53-3a1.81,1.81,0,0,1,1.59.74h0v-3.2Zm-1.43,4.94a2.4,2.4,0,0,0,0-.37,1.26,1.26,0,0,0-1.23-1c-.92,0-1.43.82-1.43,1.87s.51,1.79,1.42,1.79a1.27,1.27,0,0,0,1.23-1,1.87,1.87,0,0,0,0-.42Z"/><path class="cls-2" d="M61.32,138.13a4.19,4.19,0,0,1-1.61.29,2.71,2.71,0,0,1-2.91-2.87,2.93,2.93,0,0,1,3.15-3,3.6,3.6,0,0,1,1.38.27l-.26,1.07a2.43,2.43,0,0,0-1.08-.22,1.83,1.83,0,0,0,0,3.65,2.75,2.75,0,0,0,1.13-.22Z"/><path class="cls-2" d="M65.55,138.31l-.09-.63h0a2.11,2.11,0,0,1-1.67.76A1.68,1.68,0,0,1,62,136.75c0-1.42,1.26-2.14,3.35-2.13v-.09c0-.37-.15-1-1.15-1a3,3,0,0,0-1.52.42l-.28-.93a4.13,4.13,0,0,1,2-.5,2.12,2.12,0,0,1,2.34,2.38v2a8.88,8.88,0,0,0,.08,1.36Zm-.19-2.76c-1,0-2,.2-2,1a.75.75,0,0,0,.81.82,1.18,1.18,0,0,0,1.12-.78,1.2,1.2,0,0,0,0-.31Z"/><path class="cls-2" d="M68.27,134.34c0-.65,0-1.19,0-1.68h1.23l.06.84h0a2,2,0,0,1,1.74-1,1.64,1.64,0,0,1,1.57,1.05h0a2.07,2.07,0,0,1,.7-.71,1.87,1.87,0,0,1,1.13-.34c.94,0,1.89.64,1.89,2.45v3.33H75.2v-3.12c0-.94-.32-1.5-1-1.5a1.09,1.09,0,0,0-1,.76,2.31,2.31,0,0,0-.07.47v3.39H71.73V135c0-.79-.31-1.35-1-1.35a1.12,1.12,0,0,0-1,.81,1.22,1.22,0,0,0-.08.47v3.34H68.27Z"/><path class="cls-2" d="M78.1,134.54c0-.74,0-1.35,0-1.88h1.25l.07.87h0a2.2,2.2,0,0,1,1.94-1c1.3,0,2.37,1.12,2.37,2.88,0,2-1.28,3-2.57,3a1.86,1.86,0,0,1-1.59-.76h0v2.92H78.1Zm1.43,1.4a1.33,1.33,0,0,0,0,.4,1.27,1.27,0,0,0,1.25,1c.9,0,1.44-.75,1.44-1.86s-.49-1.81-1.41-1.81a1.33,1.33,0,0,0-1.27,1.05,1.18,1.18,0,0,0-.06.36Z"/><path class="cls-2" d="M88.07,138.31l-.1-.63h0a2.11,2.11,0,0,1-1.67.76,1.68,1.68,0,0,1-1.78-1.69c0-1.42,1.27-2.14,3.36-2.13v-.09c0-.37-.15-1-1.15-1a3,3,0,0,0-1.52.42L84.9,133a4.13,4.13,0,0,1,2-.5,2.11,2.11,0,0,1,2.33,2.38v2a8.88,8.88,0,0,0,.08,1.36Zm-.19-2.76c-1,0-2,.2-2,1a.75.75,0,0,0,.81.82,1.15,1.15,0,0,0,1.11-.78.91.91,0,0,0,0-.31Z"/><path class="cls-2" d="M92.3,131.08a.8.8,0,1,1-.8-.77A.76.76,0,0,1,92.3,131.08Zm-1.52,7.23v-5.65h1.44v5.65Z"/><path class="cls-2" d="M98.91,132.66c0,.38,0,.85,0,1.62v3.21a3.29,3.29,0,0,1-.84,2.56,3.25,3.25,0,0,1-2.18.68,4,4,0,0,1-2-.45l.31-1.08a3.39,3.39,0,0,0,1.65.43,1.5,1.5,0,0,0,1.62-1.7v-.49h0a1.92,1.92,0,0,1-1.65.83,2.51,2.51,0,0,1-2.4-2.76,2.71,2.71,0,0,1,2.56-3,1.78,1.78,0,0,1,1.64.89h0l.06-.76Zm-1.47,2.26a1.2,1.2,0,0,0,0-.38,1.18,1.18,0,0,0-1.16-.92c-.8,0-1.39.7-1.39,1.85,0,1,.49,1.74,1.38,1.74a1.22,1.22,0,0,0,1.16-.86,2.16,2.16,0,0,0,.06-.51Z"/><path class="cls-2" d="M100.35,134.34c0-.65,0-1.19,0-1.68h1.26l.07.85h0a2.05,2.05,0,0,1,1.8-1c1,0,2,.64,2,2.43v3.35H104v-3.19c0-.81-.3-1.43-1.08-1.43a1.19,1.19,0,0,0-1.11.84,1.35,1.35,0,0,0-.06.46v3.32h-1.44Z"/><path class="cls-2" d="M106.92,137a3.13,3.13,0,0,0,1.45.4c.62,0,.9-.25.9-.62s-.23-.58-.93-.83c-1.1-.38-1.56-1-1.55-1.64a1.89,1.89,0,0,1,2.13-1.78,3.39,3.39,0,0,1,1.5.34l-.28,1a2.49,2.49,0,0,0-1.19-.33c-.51,0-.79.25-.79.6s.26.53,1,.78c1,.37,1.5.9,1.51,1.73,0,1-.8,1.76-2.29,1.76a3.67,3.67,0,0,1-1.72-.39Z"/><path class="cls-2" d="M234.55,122.83a3.93,3.93,0,0,0,1.89.5c.92,0,1.43-.43,1.43-1.06s-.4-.94-1.39-1.3c-1.29-.47-2.11-1.15-2.11-2.28s1.06-2.25,2.76-2.25a4.06,4.06,0,0,1,1.87.4l-.34,1.15a3.36,3.36,0,0,0-1.56-.37c-.9,0-1.3.48-1.3.93,0,.61.46.89,1.5,1.29,1.36.51,2,1.2,2,2.32s-.95,2.34-3,2.34a4.73,4.73,0,0,1-2.11-.48Z"/><path class="cls-2" d="M242.14,117.13v1.61h1.35v1.07h-1.35v2.49c0,.68.18,1,.73,1a1.84,1.84,0,0,0,.55-.07l0,1.09a2.91,2.91,0,0,1-1,.14,1.63,1.63,0,0,1-1.23-.46,2.26,2.26,0,0,1-.44-1.58v-2.65h-.82v-1.07h.82v-1.28Z"/><path class="cls-2" d="M247.75,124.39l-.09-.63h0a2.09,2.09,0,0,1-1.67.76,1.68,1.68,0,0,1-1.77-1.69c0-1.42,1.26-2.14,3.35-2.13v-.09c0-.37-.15-1-1.15-1a3,3,0,0,0-1.52.42l-.27-.93a4.07,4.07,0,0,1,2-.5A2.11,2.11,0,0,1,249,121v2a8.88,8.88,0,0,0,.08,1.36Zm-.18-2.76c-1,0-2,.2-2,1.05a.76.76,0,0,0,.82.82,1.17,1.17,0,0,0,1.11-.78,1.25,1.25,0,0,0,0-.32Z"/><path class="cls-2" d="M252,117.13v1.61h1.36v1.07H252v2.49c0,.68.19,1,.73,1a1.91,1.91,0,0,0,.56-.07l0,1.09a2.91,2.91,0,0,1-1,.14,1.66,1.66,0,0,1-1.23-.46,2.26,2.26,0,0,1-.44-1.58v-2.65h-.81v-1.07h.81v-1.28Z"/><path class="cls-2" d="M256,117.16a.8.8,0,1,1-.8-.77A.76.76,0,0,1,256,117.16Zm-1.52,7.23v-5.65h1.44v5.65Z"/><path class="cls-2" d="M257.37,123.08a3.26,3.26,0,0,0,1.45.4c.62,0,.9-.25.9-.62s-.23-.58-.93-.83c-1.1-.38-1.56-1-1.55-1.64a1.89,1.89,0,0,1,2.14-1.78,3.34,3.34,0,0,1,1.49.34l-.28,1a2.49,2.49,0,0,0-1.19-.33c-.51,0-.79.25-.79.59s.27.54,1,.79c1,.37,1.49.9,1.5,1.73,0,1-.8,1.76-2.29,1.76a3.67,3.67,0,0,1-1.72-.39Z"/><path class="cls-2" d="M263.91,117.13v1.61h1.36v1.07h-1.36v2.49c0,.68.19,1,.73,1a1.91,1.91,0,0,0,.56-.07l0,1.09a2.91,2.91,0,0,1-1,.14A1.66,1.66,0,0,1,263,124a2.26,2.26,0,0,1-.44-1.58v-2.65h-.81v-1.07h.81v-1.28Z"/><path class="cls-2" d="M267.87,117.16a.77.77,0,0,1-.82.77.77.77,0,1,1,0-1.54A.76.76,0,0,1,267.87,117.16Zm-1.52,7.23v-5.65h1.44v5.65Z"/><path class="cls-2" d="M273.47,124.21a4.09,4.09,0,0,1-1.6.29,2.71,2.71,0,0,1-2.91-2.87,2.92,2.92,0,0,1,3.14-3,3.56,3.56,0,0,1,1.38.27l-.25,1.07a2.47,2.47,0,0,0-1.08-.22,1.83,1.83,0,0,0,0,3.65,2.87,2.87,0,0,0,1.12-.22Z"/><path class="cls-2" d="M274.46,123.08a3.26,3.26,0,0,0,1.45.4c.62,0,.9-.25.9-.62s-.23-.58-.93-.83c-1.1-.38-1.56-1-1.55-1.64a1.89,1.89,0,0,1,2.13-1.78,3.39,3.39,0,0,1,1.5.34l-.28,1a2.52,2.52,0,0,0-1.19-.33c-.51,0-.79.25-.79.59s.26.54,1,.79c1,.37,1.5.9,1.51,1.73,0,1-.8,1.76-2.3,1.76a3.66,3.66,0,0,1-1.71-.39Z"/><path class="cls-2" d="M284.94,124.39l-.09-.63h0a2.08,2.08,0,0,1-1.67.76,1.68,1.68,0,0,1-1.77-1.69c0-1.42,1.26-2.14,3.35-2.13v-.09c0-.37-.15-1-1.15-1a3,3,0,0,0-1.52.42l-.27-.93a4.07,4.07,0,0,1,2-.5,2.11,2.11,0,0,1,2.33,2.38v2a8.88,8.88,0,0,0,.08,1.36Zm-.18-2.76c-1,0-2,.2-2,1.05a.75.75,0,0,0,.81.82,1.16,1.16,0,0,0,1.11-.78.93.93,0,0,0,.05-.32Z"/><path class="cls-2" d="M287.66,120.42c0-.65,0-1.19-.05-1.68h1.25l.07.85h0a2,2,0,0,1,1.79-1c1,0,2,.64,2,2.43v3.35h-1.43V121.2c0-.81-.3-1.43-1.07-1.43a1.21,1.21,0,0,0-1.12.84,1.6,1.6,0,0,0-.06.46v3.32h-1.43Z"/><path class="cls-2" d="M299.5,116.15v6.65c0,.58,0,1.2.05,1.59h-1.28l-.06-.89h0a2,2,0,0,1-1.84,1c-1.35,0-2.42-1.15-2.42-2.89s1.17-3,2.53-3a1.82,1.82,0,0,1,1.59.74h0v-3.2Zm-1.43,4.94a2.4,2.4,0,0,0,0-.37,1.26,1.26,0,0,0-1.23-1c-.92,0-1.43.82-1.43,1.87s.51,1.79,1.42,1.79a1.27,1.27,0,0,0,1.23-1,1.87,1.87,0,0,0,0-.42Z"/><path class="cls-2" d="M234.51,130.08H236v8.23h-1.44Z"/><path class="cls-2" d="M238.5,135.88a1.54,1.54,0,0,0,1.74,1.47,4.32,4.32,0,0,0,1.57-.26l.2,1a5.41,5.41,0,0,1-2,.34,2.67,2.67,0,0,1-2.91-2.85,2.8,2.8,0,0,1,2.76-3,2.46,2.46,0,0,1,2.44,2.75,3.61,3.61,0,0,1-.05.6Zm2.48-1a1.22,1.22,0,0,0-1.17-1.38,1.4,1.4,0,0,0-1.31,1.38Z"/><path class="cls-2" d="M246.65,138.31l-.09-.63h0a2.11,2.11,0,0,1-1.67.76,1.68,1.68,0,0,1-1.78-1.69c0-1.42,1.27-2.14,3.35-2.13v-.09c0-.37-.15-1-1.14-1a3,3,0,0,0-1.52.42l-.28-.93a4.13,4.13,0,0,1,2-.5,2.11,2.11,0,0,1,2.33,2.38v2a8.88,8.88,0,0,0,.08,1.36Zm-.18-2.76c-1,0-2,.2-2,1a.75.75,0,0,0,.81.82,1.16,1.16,0,0,0,1.11-.78.91.91,0,0,0,.05-.31Z"/><path class="cls-2" d="M254.58,130.08v6.64c0,.58,0,1.21,0,1.59h-1.27l-.06-.89h0a2.05,2.05,0,0,1-1.85,1c-1.34,0-2.41-1.15-2.41-2.89,0-1.89,1.17-3,2.53-3a1.8,1.8,0,0,1,1.59.75h0v-3.2ZM253.15,135a2.43,2.43,0,0,0,0-.38,1.26,1.26,0,0,0-1.23-1c-.92,0-1.43.82-1.43,1.87s.51,1.79,1.42,1.79a1.25,1.25,0,0,0,1.22-1,1.42,1.42,0,0,0,.05-.42Z"/><path class="cls-2" d="M257.12,135.88a1.53,1.53,0,0,0,1.74,1.47,4.22,4.22,0,0,0,1.56-.26l.21,1a5.45,5.45,0,0,1-2,.34,2.67,2.67,0,0,1-2.91-2.85,2.8,2.8,0,0,1,2.76-3,2.46,2.46,0,0,1,2.44,2.75,3.61,3.61,0,0,1-.05.6Zm2.48-1a1.22,1.22,0,0,0-1.17-1.38,1.4,1.4,0,0,0-1.31,1.38Z"/><path class="cls-2" d="M262.1,134.48c0-.76,0-1.31-.05-1.82h1.24l0,1.08h0a1.69,1.69,0,0,1,1.54-1.21,1.18,1.18,0,0,1,.34,0v1.34a2.21,2.21,0,0,0-.42,0,1.26,1.26,0,0,0-1.27,1.08,1.84,1.84,0,0,0-.05.44v2.92H262.1Z"/><path class="cls-2" d="M266.18,138.31c0-.38.05-1,.05-1.59v-6.64h1.42v3.36h0a2,2,0,0,1,1.81-.91c1.38,0,2.37,1.15,2.36,2.87,0,2-1.29,3-2.56,3a1.94,1.94,0,0,1-1.79-1h0l-.07.85Zm1.47-2.33a1.19,1.19,0,0,0,0,.33,1.31,1.31,0,0,0,1.26,1c.89,0,1.44-.72,1.44-1.85s-.48-1.81-1.43-1.81a1.42,1.42,0,0,0-1.31,1.41Z"/><path class="cls-2" d="M278.38,135.43a2.8,2.8,0,0,1-2.9,3,2.74,2.74,0,0,1-2.83-2.91,2.79,2.79,0,0,1,2.92-3A2.71,2.71,0,0,1,278.38,135.43Zm-4.25.06c0,1.09.53,1.91,1.4,1.91s1.38-.8,1.38-1.93c0-.88-.4-1.89-1.37-1.89S274.13,134.55,274.13,135.49Z"/><path class="cls-2" d="M282.73,138.31l-.09-.63h0a2.09,2.09,0,0,1-1.67.76,1.68,1.68,0,0,1-1.77-1.69c0-1.42,1.26-2.14,3.35-2.13v-.09c0-.37-.15-1-1.15-1a3.07,3.07,0,0,0-1.52.42l-.27-.93a4.07,4.07,0,0,1,2-.5,2.11,2.11,0,0,1,2.33,2.38v2a8.88,8.88,0,0,0,.08,1.36Zm-.19-2.76c-1,0-2,.2-2,1a.76.76,0,0,0,.82.82,1.17,1.17,0,0,0,1.11-.78,1.2,1.2,0,0,0,0-.31Z"/><path class="cls-2" d="M285.45,134.48c0-.76,0-1.31-.05-1.82h1.24l.05,1.08h0a1.69,1.69,0,0,1,1.55-1.21,1.11,1.11,0,0,1,.33,0v1.34a2.18,2.18,0,0,0-.41,0,1.26,1.26,0,0,0-1.28,1.08,2.55,2.55,0,0,0-.05.44v2.92h-1.42Z"/><path class="cls-2" d="M294.68,130.08v6.64c0,.58,0,1.21.05,1.59h-1.28l-.06-.89h0a2,2,0,0,1-1.84,1c-1.35,0-2.42-1.15-2.42-2.89,0-1.89,1.17-3,2.53-3a1.8,1.8,0,0,1,1.59.75h0v-3.2ZM293.25,135a2.43,2.43,0,0,0,0-.38,1.26,1.26,0,0,0-1.23-1c-.92,0-1.43.82-1.43,1.87s.51,1.79,1.42,1.79a1.27,1.27,0,0,0,1.23-1,1.87,1.87,0,0,0,0-.42Z"/><path class="cls-2" d="M296.14,137a3.17,3.17,0,0,0,1.45.4c.63,0,.91-.25.91-.62s-.24-.58-.93-.83c-1.1-.38-1.57-1-1.56-1.64a1.9,1.9,0,0,1,2.14-1.78,3.34,3.34,0,0,1,1.49.34l-.27,1a2.57,2.57,0,0,0-1.2-.33c-.51,0-.79.25-.79.6s.27.53,1,.78c1,.37,1.49.9,1.51,1.73,0,1-.8,1.76-2.3,1.76a3.71,3.71,0,0,1-1.72-.39Z"/><path class="cls-2" d="M122.35,210.23l-2.53-7.82h1.55l1.07,3.55c.3,1,.56,1.91.76,2.86h0A28.73,28.73,0,0,1,124,206l1.13-3.58h1.52l-2.7,7.82Z"/><path class="cls-2" d="M132.4,207.35a2.8,2.8,0,0,1-2.9,3,2.73,2.73,0,0,1-2.83-2.91,2.79,2.79,0,0,1,2.93-3A2.7,2.7,0,0,1,132.4,207.35Zm-4.25.06c0,1.09.53,1.92,1.4,1.92s1.38-.8,1.38-1.94c0-.88-.39-1.89-1.37-1.89S128.15,206.47,128.15,207.41Z"/><path class="cls-2" d="M135.09,203a.8.8,0,0,1-1.6,0,.8.8,0,0,1,1.6,0Zm-1.51,7.22v-5.65H135v5.65Z"/><path class="cls-2" d="M140.7,210.06a4.18,4.18,0,0,1-1.6.29,2.71,2.71,0,0,1-2.91-2.88,2.91,2.91,0,0,1,3.14-3,3.61,3.61,0,0,1,1.38.26l-.26,1.07a2.43,2.43,0,0,0-1.08-.22,1.83,1.83,0,0,0,0,3.65,2.75,2.75,0,0,0,1.13-.22Z"/><path class="cls-2" d="M142.66,207.81c0,1,.83,1.46,1.74,1.46A4.26,4.26,0,0,0,146,209l.21,1a5.27,5.27,0,0,1-2,.35,2.68,2.68,0,0,1-2.91-2.86,2.79,2.79,0,0,1,2.76-3,2.45,2.45,0,0,1,2.44,2.74,3.87,3.87,0,0,1-.05.61Zm2.48-1a1.22,1.22,0,0,0-1.17-1.38,1.4,1.4,0,0,0-1.31,1.38Z"/><path class="cls-2" d="M155.41,207.35a2.81,2.81,0,0,1-2.9,3,2.73,2.73,0,0,1-2.83-2.91,2.78,2.78,0,0,1,2.92-3A2.71,2.71,0,0,1,155.41,207.35Zm-4.26.06c0,1.09.53,1.92,1.4,1.92s1.38-.8,1.38-1.94c0-.88-.39-1.89-1.37-1.89S151.15,206.47,151.15,207.41Z"/><path class="cls-2" d="M156.74,210.23v-4.58H156v-1.07h.76v-.24a2.65,2.65,0,0,1,.69-1.93,2.15,2.15,0,0,1,1.47-.54,2.76,2.76,0,0,1,.91.14l-.1,1.1a1.63,1.63,0,0,0-.6-.1c-.71,0-1,.59-1,1.28v.29h1.24v1.07h-1.23v4.58Z"/><path class="cls-2" d="M162.84,210.23v-4.58h-.76v-1.07h.76v-.24a2.65,2.65,0,0,1,.69-1.93,2.15,2.15,0,0,1,1.47-.54,2.87,2.87,0,0,1,.92.14l-.11,1.1a1.63,1.63,0,0,0-.6-.1c-.71,0-1,.59-1,1.28v.29h1.24v1.07h-1.23v4.58Z"/><path class="cls-2" d="M169.56,210.23l-.1-.63h0a2.11,2.11,0,0,1-1.67.76,1.67,1.67,0,0,1-1.77-1.68c0-1.43,1.26-2.15,3.35-2.14v-.09c0-.37-.15-1-1.15-1a3,3,0,0,0-1.52.42l-.28-.93a4.14,4.14,0,0,1,2-.49,2.11,2.11,0,0,1,2.33,2.37v2a8.74,8.74,0,0,0,.09,1.36Zm-.19-2.76c-1,0-2,.2-2,1.06a.75.75,0,0,0,.81.81,1.16,1.16,0,0,0,1.12-.78,1.15,1.15,0,0,0,0-.31Z"/><path class="cls-2" d="M172.27,206.26c0-.64,0-1.19,0-1.68h1.25l.07.85h0a2,2,0,0,1,1.8-1c1,0,2,.63,2,2.42v3.35H176V207c0-.81-.3-1.42-1.08-1.42a1.18,1.18,0,0,0-1.11.83,1.35,1.35,0,0,0-.06.46v3.32h-1.44Z"/><path class="cls-2" d="M184.49,210.23l-.1-.63h0a2.11,2.11,0,0,1-1.67.76,1.67,1.67,0,0,1-1.77-1.68c0-1.43,1.26-2.15,3.35-2.14v-.09c0-.37-.15-1-1.15-1a3,3,0,0,0-1.52.42l-.28-.93a4.14,4.14,0,0,1,2-.49,2.11,2.11,0,0,1,2.33,2.37v2a10.36,10.36,0,0,0,.08,1.36Zm-.19-2.76c-1,0-2,.2-2,1.06a.75.75,0,0,0,.81.81,1.14,1.14,0,0,0,1.11-.78.87.87,0,0,0,.05-.31Z"/><path class="cls-2" d="M187.2,206.26c0-.64,0-1.19,0-1.68h1.25l.07.85h0a2,2,0,0,1,1.8-1c1,0,2,.63,2,2.42v3.35h-1.43V207c0-.81-.3-1.42-1.08-1.42a1.18,1.18,0,0,0-1.11.83,1.35,1.35,0,0,0-.06.46v3.32H187.2Z"/><path class="cls-2" d="M199,202v6.64c0,.58,0,1.21.05,1.59h-1.27l-.06-.89h0a2,2,0,0,1-1.84,1c-1.35,0-2.41-1.15-2.41-2.89s1.17-3,2.53-3a1.78,1.78,0,0,1,1.58.74h0V202Zm-1.42,4.94a1.5,1.5,0,0,0,0-.37,1.24,1.24,0,0,0-1.23-1c-.91,0-1.42.81-1.42,1.86s.51,1.79,1.41,1.79a1.25,1.25,0,0,0,1.23-1,1.42,1.42,0,0,0,.05-.42Z"/><path class="cls-2" d="M202.91,208.92a3.13,3.13,0,0,0,1.45.41c.62,0,.9-.26.9-.63s-.23-.58-.93-.82c-1.1-.39-1.56-1-1.55-1.65,0-1,.82-1.77,2.14-1.77a3.35,3.35,0,0,1,1.49.33l-.28,1a2.49,2.49,0,0,0-1.19-.32c-.51,0-.79.24-.79.59s.27.53,1,.79c1,.37,1.5.89,1.51,1.72,0,1-.8,1.77-2.29,1.77a3.67,3.67,0,0,1-1.72-.4Z"/><path class="cls-2" d="M213.19,207.35a2.81,2.81,0,0,1-2.9,3,2.73,2.73,0,0,1-2.83-2.91,2.78,2.78,0,0,1,2.92-3A2.71,2.71,0,0,1,213.19,207.35Zm-4.26.06c0,1.09.53,1.92,1.4,1.92s1.38-.8,1.38-1.94c0-.88-.39-1.89-1.37-1.89S208.93,206.47,208.93,207.41Z"/><path class="cls-2" d="M218.51,210.06a4.09,4.09,0,0,1-1.6.29,2.72,2.72,0,0,1-2.91-2.88,2.92,2.92,0,0,1,3.14-3,3.57,3.57,0,0,1,1.38.26l-.25,1.07a2.47,2.47,0,0,0-1.08-.22,1.83,1.83,0,0,0,0,3.65,2.7,2.7,0,0,0,1.12-.22Z"/><path class="cls-2" d="M221.09,203a.76.76,0,0,1-.82.76.75.75,0,0,1-.78-.76.76.76,0,0,1,.8-.78A.77.77,0,0,1,221.09,203Zm-1.52,7.22v-5.65H221v5.65Z"/><path class="cls-2" d="M225.71,210.23l-.09-.63h0a2.11,2.11,0,0,1-1.67.76,1.68,1.68,0,0,1-1.78-1.68c0-1.43,1.27-2.15,3.35-2.14v-.09c0-.37-.15-1-1.14-1a3,3,0,0,0-1.52.42l-.28-.93a4.14,4.14,0,0,1,2-.49,2.11,2.11,0,0,1,2.33,2.37v2a8.88,8.88,0,0,0,.08,1.36Zm-.18-2.76c-1,0-2,.2-2,1.06a.75.75,0,0,0,.81.81,1.15,1.15,0,0,0,1.11-.78.87.87,0,0,0,.05-.31Z"/><path class="cls-2" d="M228.43,202h1.44v8.23h-1.44Z"/><path class="cls-2" d="M127.08,222.84a3.17,3.17,0,0,0,1.45.41c.63,0,.91-.26.91-.63s-.23-.58-.93-.82c-1.1-.39-1.56-1-1.55-1.65,0-1,.82-1.77,2.13-1.77a3.4,3.4,0,0,1,1.5.33l-.28,1a2.57,2.57,0,0,0-1.2-.32c-.51,0-.78.24-.78.59s.26.53,1,.79c1,.37,1.5.89,1.51,1.72,0,1-.8,1.77-2.3,1.77a3.51,3.51,0,0,1-1.71-.4Z"/><path class="cls-2" d="M133,221.73a1.53,1.53,0,0,0,1.74,1.46,4,4,0,0,0,1.56-.26l.21,1a5.23,5.23,0,0,1-2,.35,2.68,2.68,0,0,1-2.91-2.86,2.79,2.79,0,0,1,2.76-3,2.46,2.46,0,0,1,2.44,2.75,3.84,3.84,0,0,1-.05.6Zm2.48-1a1.22,1.22,0,0,0-1.17-1.38,1.4,1.4,0,0,0-1.31,1.38Z"/><path class="cls-2" d="M138,220.19c0-.65,0-1.2,0-1.69h1.25l.07.85h0a2,2,0,0,1,1.79-1c1,0,2,.63,2,2.42v3.35h-1.42V221c0-.81-.31-1.42-1.08-1.42a1.2,1.2,0,0,0-1.12.83,1.66,1.66,0,0,0-.05.46v3.32H138Z"/><path class="cls-2" d="M146.19,216.89v1.61h1.36v1.07h-1.36v2.49c0,.69.19,1.05.73,1.05a2.41,2.41,0,0,0,.56-.07l0,1.09a3.16,3.16,0,0,1-1,.14,1.66,1.66,0,0,1-1.23-.47,2.23,2.23,0,0,1-.44-1.57v-2.66H144V218.5h.81v-1.27Z"/><path class="cls-2" d="M150.14,216.93a.8.8,0,0,1-1.6,0,.8.8,0,0,1,1.6,0Zm-1.51,7.22V218.5h1.43v5.65Z"/><path class="cls-2" d="M151.6,220.19c0-.65,0-1.2,0-1.69h1.23l.06.84h0a2,2,0,0,1,1.74-1,1.63,1.63,0,0,1,1.57,1h0a2.26,2.26,0,0,1,.7-.71,1.87,1.87,0,0,1,1.13-.33c.94,0,1.89.63,1.89,2.44v3.33h-1.39V221c0-.94-.32-1.49-1-1.49a1.08,1.08,0,0,0-1,.75,2.31,2.31,0,0,0-.07.48v3.38h-1.39v-3.27c0-.79-.31-1.34-1-1.34a1.11,1.11,0,0,0-1,.81,1.17,1.17,0,0,0-.08.46v3.34H151.6Z"/><path class="cls-2" d="M162.44,221.73a1.54,1.54,0,0,0,1.74,1.46,4.11,4.11,0,0,0,1.57-.26l.21,1a5.32,5.32,0,0,1-2,.35,2.68,2.68,0,0,1-2.91-2.86,2.79,2.79,0,0,1,2.76-3,2.45,2.45,0,0,1,2.44,2.75,2.9,2.9,0,0,1-.05.6Zm2.48-1a1.22,1.22,0,0,0-1.17-1.38,1.4,1.4,0,0,0-1.31,1.38Z"/><path class="cls-2" d="M167.42,220.19c0-.65,0-1.2,0-1.69h1.26l.06.85h0a2,2,0,0,1,1.8-1c1,0,2,.63,2,2.42v3.35h-1.42V221c0-.81-.31-1.42-1.08-1.42a1.18,1.18,0,0,0-1.11.83,1.35,1.35,0,0,0-.06.46v3.32h-1.44Z"/><path class="cls-2" d="M175.63,216.89v1.61H177v1.07h-1.36v2.49c0,.69.19,1.05.73,1.05a2.33,2.33,0,0,0,.56-.07l0,1.09a3.16,3.16,0,0,1-1,.14,1.66,1.66,0,0,1-1.23-.47,2.23,2.23,0,0,1-.44-1.57v-2.66h-.81V218.5h.81v-1.27Z"/><path class="cls-2" d="M183.65,224.15l-.1-.62h0a2.1,2.1,0,0,1-1.67.75,1.68,1.68,0,0,1-1.78-1.68c0-1.43,1.27-2.15,3.36-2.14v-.09c0-.37-.15-1-1.15-1a3,3,0,0,0-1.52.42l-.28-.92a4,4,0,0,1,2-.5,2.11,2.11,0,0,1,2.33,2.37v2a10.36,10.36,0,0,0,.08,1.36Zm-.19-2.76c-1,0-2,.2-2,1.06a.75.75,0,0,0,.81.81,1.14,1.14,0,0,0,1.11-.78.87.87,0,0,0,.05-.31Z"/><path class="cls-2" d="M186.36,220.19c0-.65,0-1.2,0-1.69h1.25l.07.85h0a2,2,0,0,1,1.8-1c1,0,2,.63,2,2.42v3.35h-1.43V221c0-.81-.3-1.42-1.08-1.42a1.18,1.18,0,0,0-1.11.83,1.35,1.35,0,0,0-.06.46v3.32h-1.44Z"/><path class="cls-2" d="M196.17,224.15l-.09-.62h0a2.1,2.1,0,0,1-1.67.75,1.68,1.68,0,0,1-1.78-1.68c0-1.43,1.27-2.15,3.35-2.14v-.09c0-.37-.15-1-1.14-1a3,3,0,0,0-1.52.42l-.28-.92a4,4,0,0,1,2-.5,2.11,2.11,0,0,1,2.33,2.37v2a8.88,8.88,0,0,0,.08,1.36Zm-.18-2.76c-1,0-2,.2-2,1.06a.75.75,0,0,0,.81.81,1.15,1.15,0,0,0,1.11-.78.87.87,0,0,0,.05-.31Z"/><path class="cls-2" d="M198.89,215.92h1.44v8.23h-1.44Z"/><path class="cls-2" d="M202.76,218.5l1,3c.12.35.24.78.32,1.1h0c.09-.32.2-.74.3-1.11l.89-3h1.53l-1.42,3.85c-.78,2.11-1.3,3.05-2,3.63a2.83,2.83,0,0,1-1.5.73l-.32-1.2a2.5,2.5,0,0,0,.83-.4,2.47,2.47,0,0,0,.78-.89.51.51,0,0,0,.09-.25.59.59,0,0,0-.08-.28l-2.06-5.19Z"/><path class="cls-2" d="M209.31,216.89v1.61h1.35v1.07h-1.35v2.49c0,.69.18,1.05.73,1.05a2.23,2.23,0,0,0,.55-.07l0,1.09a3.19,3.19,0,0,1-1,.14,1.62,1.62,0,0,1-1.22-.47,2.19,2.19,0,0,1-.44-1.57v-2.66h-.82V218.5h.82v-1.27Z"/><path class="cls-2" d="M213.26,216.93a.8.8,0,0,1-1.6,0,.8.8,0,0,1,1.6,0Zm-1.52,7.22V218.5h1.44v5.65Z"/><path class="cls-2" d="M218.86,224a4.09,4.09,0,0,1-1.6.29,2.72,2.72,0,0,1-2.91-2.88,2.92,2.92,0,0,1,3.15-3,3.61,3.61,0,0,1,1.38.26l-.26,1.07a2.58,2.58,0,0,0-1.08-.22,1.83,1.83,0,0,0,0,3.65,2.75,2.75,0,0,0,1.13-.22Z"/><path class="cls-2" d="M219.85,222.84a3.17,3.17,0,0,0,1.45.41c.63,0,.91-.26.91-.63s-.24-.58-.93-.82c-1.1-.39-1.57-1-1.56-1.65,0-1,.83-1.77,2.14-1.77a3.35,3.35,0,0,1,1.49.33l-.27,1a2.57,2.57,0,0,0-1.2-.32c-.51,0-.79.24-.79.59s.27.53,1,.79c1,.37,1.49.89,1.5,1.72,0,1-.79,1.77-2.29,1.77a3.55,3.55,0,0,1-1.72-.4Z"/><path class="cls-2" d="M96.23,60l.78.28a4.74,4.74,0,0,1,3.16,4.37A4.67,4.67,0,0,1,97.26,69a.85.85,0,0,0-.64,1q0,16.13,0,32.26v1L86.36,99.81c-.48,2-1,3.89-3.32,4.45H81.9a.61.61,0,0,0-.16-.12q-7.87-2.52-15.75-5a3.25,3.25,0,0,1-2.19-4.43c.23-.71.45-1.42.68-2.16l-5.23-1.74c-.6-.21-1.4-.27-1.73-.69s-.14-1.17-.12-1.78c0-.39-.16-.52-.49-.65A4.51,4.51,0,0,1,54.21,85c-.15-.38-.26-.78-.39-1.18V82.7a15.47,15.47,0,0,1,1.32-2.6,5,5,0,0,1,1.78-1.22c.35-.18.5-.34.47-.73s0-.9,0-1.34c-.08-.65.22-.88.8-1.07Q68.09,72.5,78,69.22a2.33,2.33,0,0,0,.36-.15L77,65.16l10.62,2-7,8.22-1.46-4-9.93,3.28c-2.89,1-5.77,1.92-8.67,2.84-.68.21-1,.5-.72,1.27l.38.15a4.71,4.71,0,0,1,.16,8.77,3.06,3.06,0,0,0-.62.53,2.87,2.87,0,0,0,.7.53q16.45,5.52,32.94,11c.26.09.53.15.84.24V69.33a10.88,10.88,0,0,1-1.32-.67A4.71,4.71,0,0,1,94,60.24l.65-.24ZM66.72,93.26,66,95.46c-.25.79-.05,1.16.77,1.43l2.42.79,12.65,4c.82.26,1.33.15,1.58-.46s.49-1.44.74-2.2ZM93.11,64.71a2.33,2.33,0,0,0,2.36,2.38,2.39,2.39,0,0,0,2.36-2.4,2.44,2.44,0,0,0-2.35-2.37A2.39,2.39,0,0,0,93.11,64.71ZM58.55,85.65a2.39,2.39,0,1,0-2.36-2.43A2.44,2.44,0,0,0,58.55,85.65Z"/><path class="cls-2" d="M113.82,72.62h-12V70.21h12Z"/><path class="cls-2" d="M113.82,96.31h-12V93.9h12Z"/><path class="cls-2" d="M113.82,84.4h-12V82.13h12Z"/><path class="cls-2" d="M266.55,81.43V104a23.81,23.81,0,0,1-21.39-11.76,23.19,23.19,0,0,1,3-27.43,23.72,23.72,0,0,1,27.37-5.45,23.22,23.22,0,0,1,13.6,22.12Zm20.68-1.8C288,73,282,64.21,274.54,60.87a21.84,21.84,0,0,0-25.19,5.37,21.4,21.4,0,0,0-2.62,25C251.2,99,259.48,102.13,264.67,102c0-.14,0-.28,0-.42q0-10.05,0-20.11a1.54,1.54,0,0,0-.38-.93c-2.12-2.29-4.25-4.55-6.39-6.81-.13-.14-.27-.25-.62-.57L255,75.7l-2.23-8.26,8.43,2.24L258.8,72c2.29,2.44,4.53,4.8,6.74,7.19a1.47,1.47,0,0,0,1.19.5h20.5Z"/><path class="cls-2" d="M270.36,107.11V85.7H292a20.35,20.35,0,0,1-3.3,12,.9.9,0,0,0-.1,1,3.65,3.65,0,0,1-.73,4.12,3.73,3.73,0,0,1-4.17.82.94.94,0,0,0-1,.11A20.76,20.76,0,0,1,270.36,107.11ZM287,96.91a18.47,18.47,0,0,0,3.12-9.37H272.21v17.73a19,19,0,0,0,9.63-3.2,3.69,3.69,0,0,1,.59-4.43A3.8,3.8,0,0,1,287,96.91Zm-1.84,5.22a1.93,1.93,0,0,0,1.95-1.88,2,2,0,0,0-2-2,1.93,1.93,0,0,0-1.92,2A1.85,1.85,0,0,0,285.16,102.13Z"/><path class="cls-2" d="M174.05,193.18l-4.4-3.85-2.1-1.82,8.23-2.88-.56,3.07c6.52.44,17-3.59,21.41-14.41a23.05,23.05,0,1,0-38.09,7.37l.48-.3a3.81,3.81,0,0,1,5.28,5.25,3.83,3.83,0,0,1-4.56,1.48,3.79,3.79,0,0,1-2.36-4.23.89.89,0,0,0-.24-.89,24.44,24.44,0,0,1-6.84-15.91,1.73,1.73,0,0,0-.11-.37V163.8a3.59,3.59,0,0,0,.11-.57,24.08,24.08,0,0,1,1.6-7.4,25,25,0,0,1,47.75,3.87c.22,1.13.36,2.29.54,3.43v3.23a2.36,2.36,0,0,0-.11.44A24.63,24.63,0,0,1,187,186.73a23.8,23.8,0,0,1-11.59,3c-.34,0-.6,0-.67.44-.16,1-.36,2-.55,3Zm-13-11.57a2,2,0,0,0-1.9,1.95,1.92,1.92,0,0,0,3.83,0A2,2,0,0,0,161.1,181.61Z"/><path class="cls-2" d="M191.54,173.42H159a46.54,46.54,0,0,1,.05-5.55,4.42,4.42,0,0,1,4.31-3.67l.69,0c-2.14-1.41-2.8-2.73-2.23-4.45a3.42,3.42,0,0,1,6.55.2c.44,1.75-.28,3.09-2.28,4.22.57.07,1.13.17,1.7.2a.74.74,0,0,0,.52-.27,6.18,6.18,0,0,1,5.31-2.53c1.44,0,2.88,0,4.31.08A5.77,5.77,0,0,1,182.1,164a.86.86,0,0,0,.57.31c.55,0,1.1-.13,1.63-.2-2.1-1.43-2.73-2.7-2.17-4.4a3.41,3.41,0,0,1,6.56.23c.42,1.69-.3,3-2.33,4.18.48.05.92.05,1.34.13a4.59,4.59,0,0,1,3.82,4.21C191.61,170.09,191.54,171.71,191.54,173.42Zm-10.2-1.88c0-1.5.08-2.94,0-4.37a4.09,4.09,0,0,0-4.06-3.75c-1.37,0-2.74,0-4.11,0a3.92,3.92,0,0,0-3.94,3.23,36.19,36.19,0,0,0,0,4.89Zm-14.13-5.45c-1.25,0-2.53-.06-3.79,0a2.75,2.75,0,0,0-2.67,2.82c0,.7,0,1.39,0,2.09,0,.44.14.58.58.57,1.81,0,3.63,0,5.44,0a3.62,3.62,0,0,0,.45-.08Zm16,0v5.4h6.42a28.06,28.06,0,0,0,0-3.05,2.45,2.45,0,0,0-1.87-2.24A14.63,14.63,0,0,0,183.22,166.13Zm3.67-5.37a1.55,1.55,0,0,0-1.5-1.51,1.58,1.58,0,0,0-1.55,1.55,1.55,1.55,0,0,0,1.55,1.52A1.51,1.51,0,0,0,186.89,160.76Zm-21.84,1.56a1.54,1.54,0,0,0,1.53-1.55,1.58,1.58,0,0,0-1.57-1.52,1.55,1.55,0,0,0-1.48,1.53A1.52,1.52,0,0,0,165.05,162.32Z"/><path class="cls-2" d="M170.92,156.62a4.29,4.29,0,0,1,8.58,0,4.29,4.29,0,1,1-8.58,0Zm6.72,0a2.43,2.43,0,1,0-2.45,2.44A2.48,2.48,0,0,0,177.64,156.59Z"/></svg>