<svg id="Layer_1" data-name="Layer 1" xmlns="http://www.w3.org/2000/svg" width="100" height="100" viewBox="0 0 100 100"><title>Standardization</title><path d="M20.38,10.59H38.1V5.28h9.24C48.1,2,50,0,53.39,0s5.32,2,6.1,5.24h9.16v5.3H86.4V36.35h5.47L85,48.1l-6.9-11.72h5.34V13.58c-.35,0-.66-.08-1-.08-4.2,0-8.4,0-12.59,0-.9,0-1.2.26-1.16,1.16.07,1.38,0,2.77,0,4.2H38.16V13.58H23.42v53.6c6.07-1.4,11.6-.46,16.29,3.71S46,80.33,45.07,86.53H66.4V69.63H89.59a7.66,7.66,0,0,1-.59.71q-9.93,9.3-19.9,18.58a2.78,2.78,0,0,1-1.7.57q-11,0-22.07,0a1.61,1.61,0,0,0-1.71,1.06,17.11,17.11,0,0,1-18.5,9.17,16.69,16.69,0,0,1-13.76-14.8c-.63-6.87,2.23-12.19,8.05-15.87a1.82,1.82,0,0,0,1-1.79q0-27.53,0-55Zm7.88,86.54A13.87,13.87,0,1,0,14.14,83.24,14,14,0,0,0,28.26,97.13ZM41.05,16H65.67V8.11c-2.13,0-4.16,0-6.19,0a1.33,1.33,0,0,0-.88.62,6,6,0,0,1-10.35,0c-.16-.25-.41-.62-.62-.63-2.18,0-4.36,0-6.58,0ZM69.39,84.66,82.33,72.55H69.39Zm-16-75.8a3.05,3.05,0,0,0,3.16-3,3.09,3.09,0,0,0-3.09-3,3,3,0,0,0-3.12,3.05A3,3,0,0,0,53.39,8.86Z"/><path d="M37.44,57V54.23H69.15V57Z"/><path d="M37.44,31.28V28.54h31.7v2.74Z"/><path d="M69.14,41.37v2.76H37.49V41.37Z"/><path d="M23.06,81.41,26,85.53,36.77,78l1.65,2.24c-4.39,3.08-8.75,6.12-13.18,9.21L20.75,83Z"/></svg>