<svg id="Layer_1" data-name="Layer 1" xmlns="http://www.w3.org/2000/svg" width="100" height="100" viewBox="0 0 100 100"><title>solution</title><path d="M49.92,66.47c-5,0-10,0-15,0a3,3,0,0,1-1.77-.61c-8.83-7.2-12.46-16.47-9.71-27.55s10.33-18,21.64-20.1A27.06,27.06,0,0,1,76.61,38.84,26.65,26.65,0,0,1,66.5,66a2.88,2.88,0,0,1-1.6.46C59.91,66.48,54.91,66.47,49.92,66.47Zm-.06-3.42c4.65,0,9.3,0,13.94,0a2.65,2.65,0,0,0,1.57-.51c6.82-6,9.68-13.48,8-22.38A23.6,23.6,0,0,0,44.63,21.7c-9.21,2.12-15.4,7.91-17.79,17.09s.33,17.11,7.37,23.49a3.1,3.1,0,0,0,1.94.73C40.72,63.08,45.29,63.05,49.86,63.05Z"/><path d="M35.14,93.51l11.34-6.46v4.68h7.41V87l11.4,6.48L54,100V95.28H46.57V100Z"/><path d="M35.19,79.64V76.4h30v3.24Z"/><path d="M35.18,73.44V70.26H65.24v3.18Z"/><path d="M65.24,82.62v3.17h-30V82.62Z"/><path d="M28.17,18.26l3.69,3.52-2.3,2.15c-.92-1-1.89-2.08-2.81-3.18a1.35,1.35,0,0,0-1.68-.44,5.71,5.71,0,0,1-7.14-3.9,5.61,5.61,0,0,1,4-6.94,5.47,5.47,0,0,1,5.88,1.8,5.42,5.42,0,0,1,.79,6.09C28.52,17.6,28.39,17.84,28.17,18.26Zm-4.75-.4a3.1,3.1,0,0,0,3-2.91,3,3,0,0,0-6-.08A3,3,0,0,0,23.42,17.86Z"/><path d="M78.29,42.5V39.7c1.3,0,2.56,0,3.81,0a1.19,1.19,0,0,0,1.31-.81,5.66,5.66,0,1,1,0,4.36,1.14,1.14,0,0,0-1.31-.78C80.87,42.52,79.64,42.5,78.29,42.5ZM88.66,44a2.85,2.85,0,0,0,3-2.88,2.94,2.94,0,0,0-5.88,0A2.84,2.84,0,0,0,88.66,44Z"/><path d="M50.77,15.87H48c0-1.24-.05-2.4,0-3.55a1.35,1.35,0,0,0-1-1.54A5.51,5.51,0,0,1,43.89,4,5.75,5.75,0,0,1,50.33.09a5.63,5.63,0,0,1,4.76,5.83,5.3,5.3,0,0,1-3.37,4.88,1.36,1.36,0,0,0-1,1.55C50.8,13.5,50.77,14.66,50.77,15.87ZM52.32,5.65a2.95,2.95,0,0,0-5.89.06,2.95,2.95,0,0,0,5.89-.06Z"/><path d="M21.68,39.7v2.8c-1.29,0-2.52,0-3.74,0a1.49,1.49,0,0,0-1.61.94,5.65,5.65,0,1,1,.36-4.65,1.18,1.18,0,0,0,1.4.95C19.25,39.66,20.4,39.7,21.68,39.7Zm-7.42,1a2.88,2.88,0,0,0-3-2.88,2.91,2.91,0,0,0-2.9,3,2.94,2.94,0,1,0,5.87-.09Z"/><path d="M69.58,23.49l-2-2.34c.85-.83,1.83-1.7,2.7-2.66a1.46,1.46,0,0,0,.27-1.24,5.56,5.56,0,0,1,1.18-6.13,5.44,5.44,0,0,1,6-1.44,5.48,5.48,0,0,1,3.88,4.76,5.67,5.67,0,0,1-7.7,5.84A1.35,1.35,0,0,0,72,20.7C71.27,21.62,70.46,22.5,69.58,23.49Zm6.26-5.57a2.91,2.91,0,1,0-3-2.87A2.95,2.95,0,0,0,75.84,17.92Z"/><path d="M51.35,54.39v3.87H48.14V54.78l-6.6-1.72,1.13-3.94,1.6.68a11.27,11.27,0,0,0,5.55.91,3.4,3.4,0,0,0,3.23-2.39c.31-1.43-.26-2.61-1.87-3.51-.94-.52-2-.85-3-1.32a25.16,25.16,0,0,1-3.78-2,6.05,6.05,0,0,1,.28-10.1,27,27,0,0,1,3.61-1.68V26.16h3.23v3.5c1.06.16,2,.25,2.87.46s1.68.53,2.69.86l-1,3.46c-1.74-.37-3.36-.83-5-1a5.78,5.78,0,0,0-2.81.46,2.29,2.29,0,0,0-.48,4,27.5,27.5,0,0,0,3.88,2c1,.51,2.13.93,3.12,1.52a6.26,6.26,0,0,1,3.3,6.09,6.6,6.6,0,0,1-4,5.82A27,27,0,0,1,51.35,54.39Z"/></svg>