<svg id="Layer_1" data-name="Layer 1" xmlns="http://www.w3.org/2000/svg" viewBox="0 0 350.5 351"><defs><style>.cls-1{fill:#d0b5d5;}.cls-2{fill:#e6dbe6;}.cls-3{fill:#963596;}.cls-4{fill:#fff;}</style></defs><title>studios</title><path class="cls-1" d="M221.2,135.15l-5.6-5.6L296.2,49A175,175,0,0,0,54.3,49l82,82-5.6,5.6-82-82a175,175,0,0,0,0,241.9l80.6-80.6,5.6,5.6-80.6,80.6a175,175,0,0,0,241.9,0L217,222.85l5.6-5.6,79.2,79.2a175,175,0,0,0,0-241.9l-80.6,80.6Z"/><circle id="_Path_" data-name="&lt;Path&gt;" class="cls-2" cx="175.3" cy="175.45" r="167.9"/><path class="cls-3" d="M128,133.75,53.8,59.55a167.88,167.88,0,0,0,0,231.8l74.2-74.2a63.08,63.08,0,0,1,0-83.4Zm89-5.6L291.2,54A167.88,167.88,0,0,0,59.4,54l74.2,74.2a63.08,63.08,0,0,1,83.4,0Zm-83.4,94.6L59.4,297a167.88,167.88,0,0,0,231.8,0L217,222.75a63.08,63.08,0,0,1-83.4,0Zm89-5.6,74.2,74.2a167.88,167.88,0,0,0,0-231.8l-74.2,74.2a63.08,63.08,0,0,1,0,83.4Z"/><path class="cls-4" d="M29.55,196.43c-.05-.92-.1-2-.09-3h0c-.23.86-.52,1.81-.84,2.7l-1,3.07h-1l-.95-3c-.27-.91-.52-1.87-.71-2.75h0c0,.92-.08,2-.13,3l-.16,2.84H23.39l.48-7.07h1.7l.92,2.84c.25.83.47,1.67.65,2.46h0c.19-.77.43-1.64.71-2.47l1-2.83h1.68l.41,7.07H29.68Z"/><path class="cls-4" d="M33.12,197.12a1.38,1.38,0,0,0,1.57,1.32,3.8,3.8,0,0,0,1.42-.23l.19.89a4.78,4.78,0,0,1-1.79.32,2.42,2.42,0,0,1-2.63-2.58,2.53,2.53,0,0,1,2.5-2.75,2.21,2.21,0,0,1,2.2,2.48,3.35,3.35,0,0,1,0,.55Zm2.24-.9A1.09,1.09,0,0,0,34.3,195a1.26,1.26,0,0,0-1.18,1.25Z"/><path class="cls-4" d="M39.1,192.74v1.46h1.23v1H39.1v2.25c0,.62.17,1,.66,1a2.09,2.09,0,0,0,.51-.06l0,1a2.69,2.69,0,0,1-.94.13,1.5,1.5,0,0,1-1.11-.42,2.05,2.05,0,0,1-.4-1.43v-2.4h-.73v-1h.73v-1.15Z"/><path class="cls-4" d="M44.18,199.31l-.08-.56h0a1.9,1.9,0,0,1-1.51.68A1.52,1.52,0,0,1,41,197.91c0-1.29,1.14-1.95,3-1.93v-.09c0-.33-.13-.89-1-.89a2.72,2.72,0,0,0-1.38.38l-.25-.84a3.7,3.7,0,0,1,1.85-.45,1.92,1.92,0,0,1,2.11,2.15v1.85a8.45,8.45,0,0,0,.07,1.22ZM44,196.82c-.92,0-1.79.17-1.79,1a.69.69,0,0,0,.74.74,1,1,0,0,0,1-.71.72.72,0,0,0,.05-.28Z"/><path class="cls-4" d="M51.36,191.86v6c0,.52,0,1.09,0,1.43H50.24l-.05-.8h0a1.85,1.85,0,0,1-1.67.92,2.34,2.34,0,0,1-2.18-2.61,2.43,2.43,0,0,1,2.28-2.73,1.62,1.62,0,0,1,1.44.67h0v-2.9Zm-1.3,4.47a1.84,1.84,0,0,0,0-.33,1.12,1.12,0,0,0-1.11-.92c-.83,0-1.29.74-1.29,1.69s.46,1.62,1.28,1.62a1.14,1.14,0,0,0,1.11-.91,1.53,1.53,0,0,0,0-.38Z"/><path class="cls-4" d="M55.62,199.31l-.09-.56h0a1.89,1.89,0,0,1-1.51.68,1.52,1.52,0,0,1-1.61-1.52c0-1.29,1.15-1.95,3-1.93v-.09c0-.33-.14-.89-1-.89a2.75,2.75,0,0,0-1.38.38l-.25-.84a3.7,3.7,0,0,1,1.85-.45,1.91,1.91,0,0,1,2.11,2.15v1.85a8.45,8.45,0,0,0,.07,1.22Zm-.17-2.49c-.91,0-1.78.17-1.78,1a.68.68,0,0,0,.73.74,1,1,0,0,0,1-.71,1,1,0,0,0,0-.28Z"/><path class="cls-4" d="M59.56,192.74v1.46h1.22v1H59.56v2.25c0,.62.16,1,.66,1a1.93,1.93,0,0,0,.5-.06l0,1a2.63,2.63,0,0,1-.93.13A1.5,1.5,0,0,1,58.7,199a2,2,0,0,1-.4-1.43v-2.4h-.74v-1h.74v-1.15Z"/><path class="cls-4" d="M64.64,199.31l-.09-.56h0a1.89,1.89,0,0,1-1.51.68,1.52,1.52,0,0,1-1.61-1.52c0-1.29,1.15-1.95,3-1.93v-.09c0-.33-.14-.89-1-.89a2.75,2.75,0,0,0-1.38.38l-.25-.84a3.7,3.7,0,0,1,1.85-.45,1.91,1.91,0,0,1,2.11,2.15v1.85a8.45,8.45,0,0,0,.07,1.22Zm-.17-2.49c-.91,0-1.78.17-1.78,1a.68.68,0,0,0,.73.74,1.06,1.06,0,0,0,1-.71,1,1,0,0,0,0-.28Z"/><path class="cls-4" d="M70.75,192.74v1.46H72v1H70.75v2.25c0,.62.17,1,.66,1a1.93,1.93,0,0,0,.5-.06l0,1a2.69,2.69,0,0,1-.94.13,1.5,1.5,0,0,1-1.11-.42,2.05,2.05,0,0,1-.4-1.43v-2.4h-.74v-1h.74v-1.15Z"/><path class="cls-4" d="M75.83,199.31l-.08-.56h0a1.87,1.87,0,0,1-1.51.68,1.51,1.51,0,0,1-1.6-1.52c0-1.29,1.14-1.95,3-1.93v-.09c0-.33-.14-.89-1-.89a2.69,2.69,0,0,0-1.37.38l-.26-.84a3.7,3.7,0,0,1,1.85-.45,1.91,1.91,0,0,1,2.11,2.15v1.85a7.11,7.11,0,0,0,.08,1.22Zm-.17-2.49c-.91,0-1.78.17-1.78,1a.68.68,0,0,0,.73.74,1,1,0,0,0,1-.71,1,1,0,0,0,0-.28Z"/><path class="cls-4" d="M83,194.2c0,.35,0,.77,0,1.47v2.9a2.47,2.47,0,0,1-2.73,2.94,3.67,3.67,0,0,1-1.79-.41l.29-1a3.05,3.05,0,0,0,1.49.39A1.36,1.36,0,0,0,81.65,199v-.44h0a1.73,1.73,0,0,1-1.49.75,2.27,2.27,0,0,1-2.18-2.5,2.44,2.44,0,0,1,2.32-2.69,1.6,1.6,0,0,1,1.48.79h0l.06-.68Zm-1.33,2.05a1,1,0,0,0,0-.35,1.06,1.06,0,0,0-1-.83c-.73,0-1.26.63-1.26,1.67,0,.87.44,1.58,1.24,1.58a1.1,1.1,0,0,0,1-.78,1.82,1.82,0,0,0,.06-.46Z"/><path class="cls-4" d="M89,194.2c0,.35,0,.77,0,1.47v2.9a2.46,2.46,0,0,1-2.72,2.94,3.64,3.64,0,0,1-1.79-.41l.28-1a3.12,3.12,0,0,0,1.49.39A1.36,1.36,0,0,0,87.66,199v-.44h0a1.72,1.72,0,0,1-1.49.75,2.27,2.27,0,0,1-2.17-2.5,2.44,2.44,0,0,1,2.32-2.69,1.6,1.6,0,0,1,1.48.79h0l0-.68Zm-1.34,2.05a1.34,1.34,0,0,0,0-.35,1.08,1.08,0,0,0-1-.83c-.72,0-1.26.63-1.26,1.67,0,.87.44,1.58,1.25,1.58a1.11,1.11,0,0,0,1-.78,2.4,2.4,0,0,0,0-.46Z"/><path class="cls-4" d="M91.7,192.77a.69.69,0,0,1-.74.7.68.68,0,0,1-.71-.7.69.69,0,0,1,.72-.7A.7.7,0,0,1,91.7,192.77Zm-1.38,6.54V194.2h1.3v5.11Z"/><path class="cls-4" d="M93,195.72c0-.58,0-1.08,0-1.52H94.1l.06.77h0a1.83,1.83,0,0,1,1.62-.88c.89,0,1.82.57,1.82,2.19v3H96.35v-2.88c0-.74-.28-1.29-1-1.29a1.09,1.09,0,0,0-1,.75,1.38,1.38,0,0,0,0,.42v3H93Z"/><path class="cls-4" d="M103.69,194.2c0,.35,0,.77,0,1.47v2.9a2.46,2.46,0,0,1-2.72,2.94,3.64,3.64,0,0,1-1.79-.41l.28-1a3.12,3.12,0,0,0,1.49.39,1.36,1.36,0,0,0,1.47-1.54v-.44h0a1.72,1.72,0,0,1-1.49.75,2.27,2.27,0,0,1-2.17-2.5,2.44,2.44,0,0,1,2.32-2.69,1.6,1.6,0,0,1,1.48.79h0l0-.68Zm-1.34,2.05a1.34,1.34,0,0,0,0-.35,1.08,1.08,0,0,0-1-.83c-.72,0-1.26.63-1.26,1.67,0,.87.44,1.58,1.25,1.58a1.11,1.11,0,0,0,1-.78,2.4,2.4,0,0,0,0-.46Z"/><path class="cls-4" d="M33.14,210.31l-.09-.56h0a1.89,1.89,0,0,1-1.51.68,1.51,1.51,0,0,1-1.6-1.52c0-1.29,1.14-1.95,3-1.93v-.09c0-.33-.14-.89-1-.89a2.75,2.75,0,0,0-1.38.38l-.25-.84a3.7,3.7,0,0,1,1.85-.45,1.91,1.91,0,0,1,2.11,2.15v1.85a8.45,8.45,0,0,0,.07,1.22ZM33,207.82c-.91,0-1.78.17-1.78,1a.68.68,0,0,0,.73.74,1,1,0,0,0,1-.71,1,1,0,0,0,0-.28Z"/><path class="cls-4" d="M35.6,206.72c0-.58,0-1.08-.05-1.52h1.14l.06.77h0a1.85,1.85,0,0,1,1.63-.88c.89,0,1.82.57,1.82,2.19v3h-1.3v-2.88c0-.74-.27-1.29-1-1.29a1.08,1.08,0,0,0-1,.75,1.38,1.38,0,0,0-.05.42v3H35.6Z"/><path class="cls-4" d="M46.32,202.86v6c0,.52,0,1.09,0,1.43H45.2l-.05-.8h0a1.85,1.85,0,0,1-1.67.92,2.34,2.34,0,0,1-2.18-2.61,2.43,2.43,0,0,1,2.28-2.73,1.62,1.62,0,0,1,1.44.67h0v-2.9ZM45,207.33a1.84,1.84,0,0,0,0-.33,1.12,1.12,0,0,0-1.11-.92c-.83,0-1.29.74-1.29,1.69s.46,1.62,1.28,1.62a1.14,1.14,0,0,0,1.11-.91,1.53,1.53,0,0,0,0-.38Z"/><path class="cls-4" d="M53.63,210.16a3.8,3.8,0,0,1-1.44.26,2.46,2.46,0,0,1-2.64-2.6,2.64,2.64,0,0,1,2.84-2.73,3.12,3.12,0,0,1,1.25.24l-.23,1a2.32,2.32,0,0,0-1-.2,1.66,1.66,0,0,0,0,3.31,2.48,2.48,0,0,0,1-.2Z"/><path class="cls-4" d="M57.47,210.31l-.09-.56h0a1.89,1.89,0,0,1-1.51.68,1.52,1.52,0,0,1-1.61-1.52c0-1.29,1.15-1.95,3-1.93v-.09c0-.33-.14-.89-1-.89a2.72,2.72,0,0,0-1.38.38l-.25-.84a3.7,3.7,0,0,1,1.85-.45,1.91,1.91,0,0,1,2.11,2.15v1.85a8.45,8.45,0,0,0,.07,1.22Zm-.17-2.49c-.92,0-1.79.17-1.79,1a.69.69,0,0,0,.74.74,1.06,1.06,0,0,0,1-.71,1,1,0,0,0,0-.28Z"/><path class="cls-4" d="M61.4,203.74v1.46h1.23v1H61.4v2.25c0,.62.17,1,.67,1a2,2,0,0,0,.5-.06l0,1a2.63,2.63,0,0,1-.93.13,1.52,1.52,0,0,1-1.12-.42,2.05,2.05,0,0,1-.4-1.43v-2.4h-.73v-1h.73v-1.15Z"/><path class="cls-4" d="M66.49,210.31l-.09-.56h0a1.89,1.89,0,0,1-1.51.68,1.52,1.52,0,0,1-1.61-1.52c0-1.29,1.15-1.95,3-1.93v-.09c0-.33-.14-.89-1-.89a2.72,2.72,0,0,0-1.38.38l-.25-.84a3.7,3.7,0,0,1,1.85-.45,1.91,1.91,0,0,1,2.11,2.15v1.85a8.45,8.45,0,0,0,.07,1.22Zm-.17-2.49c-.92,0-1.79.17-1.79,1a.69.69,0,0,0,.74.74,1.06,1.06,0,0,0,1-.71,1,1,0,0,0,0-.28Z"/><path class="cls-4" d="M68.94,202.86h1.31v7.45H68.94Z"/><path class="cls-4" d="M76.5,207.71a2.53,2.53,0,0,1-2.62,2.72,2.47,2.47,0,0,1-2.56-2.64,2.52,2.52,0,0,1,2.64-2.7A2.45,2.45,0,0,1,76.5,207.71Zm-3.85,0c0,1,.48,1.74,1.27,1.74s1.25-.73,1.25-1.76c0-.8-.36-1.71-1.24-1.71S72.65,206.91,72.65,207.76Z"/><path class="cls-4" d="M82.24,205.2c0,.35,0,.77,0,1.47v2.9a2.46,2.46,0,0,1-2.73,2.94,3.63,3.63,0,0,1-1.78-.41l.28-1a3.08,3.08,0,0,0,1.49.39A1.36,1.36,0,0,0,80.92,210v-.44h0a1.72,1.72,0,0,1-1.49.75,2.27,2.27,0,0,1-2.17-2.5,2.44,2.44,0,0,1,2.32-2.69,1.61,1.61,0,0,1,1.48.79h0l0-.68Zm-1.34,2.05a1.34,1.34,0,0,0,0-.35,1.08,1.08,0,0,0-1-.83c-.72,0-1.26.63-1.26,1.67,0,.87.44,1.58,1.25,1.58a1.11,1.11,0,0,0,1-.78,2.4,2.4,0,0,0,.05-.46Z"/><path class="cls-4" d="M85,203.77a.69.69,0,0,1-.74.7.68.68,0,0,1-.71-.7.69.69,0,0,1,.72-.7A.7.7,0,0,1,85,203.77Zm-1.38,6.54V205.2h1.3v5.11Z"/><path class="cls-4" d="M86.27,206.72c0-.58,0-1.08,0-1.52h1.13l.06.77h0a1.85,1.85,0,0,1,1.63-.88c.89,0,1.82.57,1.82,2.19v3H89.61v-2.88c0-.74-.28-1.29-1-1.29a1.09,1.09,0,0,0-1,.75,1.38,1.38,0,0,0-.05.42v3h-1.3Z"/><path class="cls-4" d="M97,205.2c0,.35,0,.77,0,1.47v2.9a2.46,2.46,0,0,1-2.73,2.94,3.63,3.63,0,0,1-1.78-.41l.28-1a3.08,3.08,0,0,0,1.49.39A1.36,1.36,0,0,0,95.63,210v-.44h0a1.72,1.72,0,0,1-1.49.75,2.27,2.27,0,0,1-2.17-2.5,2.44,2.44,0,0,1,2.32-2.69,1.61,1.61,0,0,1,1.48.79h0l0-.68Zm-1.34,2.05a1.34,1.34,0,0,0,0-.35,1.08,1.08,0,0,0-1-.83c-.72,0-1.26.63-1.26,1.67,0,.87.44,1.58,1.25,1.58a1.11,1.11,0,0,0,1-.78,2.4,2.4,0,0,0,0-.46Z"/><path class="cls-4" d="M148,325.45a28.79,28.79,0,0,1-2.76-.92,2,2,0,0,0-.47-.1,3.27,3.27,0,0,1-3.09-3.59c0-2.18,1.35-3.72,3.38-3.72a3.69,3.69,0,0,1,1.44,6.84v0c.61.17,1.29.31,1.87.43Zm-1-4.7c0-1.35-.66-2.59-1.94-2.59s-2,1.23-2,2.65.72,2.58,1.95,2.58S147,322.24,147,320.75Z"/><path class="cls-4" d="M154,322.78c0,.61,0,1.11,0,1.53h-1.13l-.06-.77h0a1.87,1.87,0,0,1-1.64.89c-.94,0-1.79-.56-1.79-2.23v-3h1.29V322c0,.85.28,1.4,1,1.4a1.11,1.11,0,0,0,1-.69,1.29,1.29,0,0,0,.07-.4V319.2H154Z"/><path class="cls-4" d="M158.25,324.31l-.09-.56h0a1.9,1.9,0,0,1-1.51.68,1.52,1.52,0,0,1-1.61-1.52c0-1.29,1.15-2,3-1.93v-.09c0-.33-.14-.89-1-.89a2.72,2.72,0,0,0-1.38.38l-.25-.84a3.7,3.7,0,0,1,1.85-.45,1.92,1.92,0,0,1,2.11,2.15v1.85a8.45,8.45,0,0,0,.07,1.22Zm-.17-2.49c-.92,0-1.79.17-1.79.95a.69.69,0,0,0,.74.74,1.06,1.06,0,0,0,1-.71,1,1,0,0,0,0-.28Z"/><path class="cls-4" d="M160.7,316.86H162v7.45h-1.3Z"/><path class="cls-4" d="M164.78,317.77a.69.69,0,0,1-.74.7.68.68,0,0,1-.71-.7.69.69,0,0,1,.72-.7A.7.7,0,0,1,164.78,317.77Zm-1.38,6.54V319.2h1.3v5.11Z"/><path class="cls-4" d="M167.57,317.74v1.46h1.23v1h-1.23v2.25c0,.62.17.95.66.95a1.93,1.93,0,0,0,.5-.06l0,1a2.69,2.69,0,0,1-.94.13,1.5,1.5,0,0,1-1.11-.42,2.05,2.05,0,0,1-.4-1.43v-2.4h-.74v-1h.74v-1.15Z"/><path class="cls-4" d="M170.58,319.2l.93,2.74c.1.32.21.7.28,1h0c.09-.3.18-.67.27-1l.8-2.73h1.39L173,322.69c-.71,1.91-1.18,2.76-1.79,3.28a2.58,2.58,0,0,1-1.35.66l-.3-1.09a2.22,2.22,0,0,0,.76-.35,2.26,2.26,0,0,0,.7-.81.48.48,0,0,0,.09-.23.51.51,0,0,0-.08-.26l-1.86-4.69Z"/><path class="cls-4" d="M181,324.16a3.9,3.9,0,0,1-1.45.26,2.46,2.46,0,0,1-2.64-2.6,2.64,2.64,0,0,1,2.85-2.73,3.2,3.2,0,0,1,1.25.24l-.23,1a2.37,2.37,0,0,0-1-.2,1.66,1.66,0,0,0,0,3.31,2.45,2.45,0,0,0,1-.2Z"/><path class="cls-4" d="M186.77,321.71a2.53,2.53,0,0,1-2.62,2.72,2.47,2.47,0,0,1-2.56-2.64,2.52,2.52,0,0,1,2.64-2.7A2.45,2.45,0,0,1,186.77,321.71Zm-3.85.05c0,1,.48,1.74,1.27,1.74s1.25-.73,1.25-1.76c0-.8-.36-1.71-1.24-1.71S182.92,320.91,182.92,321.76Z"/><path class="cls-4" d="M187.83,320.72c0-.58,0-1.08,0-1.52h1.14l.06.77h0a1.85,1.85,0,0,1,1.63-.88c.89,0,1.81.57,1.81,2.19v3h-1.29v-2.88c0-.74-.27-1.29-1-1.29a1.08,1.08,0,0,0-1,.75,1.38,1.38,0,0,0-.05.42v3h-1.31Z"/><path class="cls-4" d="M195.32,317.74v1.46h1.23v1h-1.23v2.25c0,.62.17.95.66.95a2.09,2.09,0,0,0,.51-.06l0,1a2.69,2.69,0,0,1-.94.13,1.5,1.5,0,0,1-1.11-.42,2.05,2.05,0,0,1-.4-1.43v-2.4h-.73v-1h.73v-1.15Z"/><path class="cls-4" d="M197.53,320.85c0-.69,0-1.19-.05-1.65h1.13l0,1h0a1.51,1.51,0,0,1,1.4-1.09,1.39,1.39,0,0,1,.3,0v1.21a1.84,1.84,0,0,0-.38,0,1.13,1.13,0,0,0-1.15,1,2.25,2.25,0,0,0,0,.4v2.64h-1.29Z"/><path class="cls-4" d="M206.12,321.71a2.53,2.53,0,0,1-2.62,2.72,2.47,2.47,0,0,1-2.56-2.64,2.52,2.52,0,0,1,2.64-2.7A2.45,2.45,0,0,1,206.12,321.71Zm-3.85.05c0,1,.48,1.74,1.27,1.74s1.25-.73,1.25-1.76c0-.8-.36-1.71-1.24-1.71S202.27,320.91,202.27,321.76Z"/><path class="cls-4" d="M207.19,316.86h1.3v7.45h-1.3Z"/><path class="cls-4" d="M247.67,193.32h-2v-1.08H251v1.08h-2v6h-1.29Z"/><path class="cls-4" d="M251.77,195.85c0-.69,0-1.19,0-1.65h1.13l0,1h0a1.51,1.51,0,0,1,1.4-1.09,1.39,1.39,0,0,1,.3,0v1.21a1.84,1.84,0,0,0-.38,0,1.13,1.13,0,0,0-1.15,1,2.25,2.25,0,0,0,0,.4v2.64h-1.3Z"/><path class="cls-4" d="M258.39,199.31l-.09-.56h0a1.89,1.89,0,0,1-1.51.68,1.52,1.52,0,0,1-1.61-1.52c0-1.29,1.15-1.95,3-1.93v-.09c0-.33-.14-.89-1-.89a2.75,2.75,0,0,0-1.38.38l-.25-.84a3.7,3.7,0,0,1,1.85-.45,1.91,1.91,0,0,1,2.11,2.15v1.85a8.45,8.45,0,0,0,.07,1.22Zm-.17-2.49c-.91,0-1.78.17-1.78,1a.68.68,0,0,0,.73.74,1.06,1.06,0,0,0,1-.71,1,1,0,0,0,0-.28Z"/><path class="cls-4" d="M260.85,195.72c0-.58,0-1.08-.05-1.52h1.14l.06.77h0a1.85,1.85,0,0,1,1.63-.88c.89,0,1.82.57,1.82,2.19v3h-1.3v-2.88c0-.74-.27-1.29-1-1.29a1.08,1.08,0,0,0-1,.75,1.38,1.38,0,0,0-.05.42v3h-1.3Z"/><path class="cls-4" d="M266.79,198.13a2.85,2.85,0,0,0,1.31.37c.57,0,.82-.24.82-.57s-.21-.53-.84-.75c-1-.34-1.42-.89-1.41-1.49a1.71,1.71,0,0,1,1.93-1.6,3,3,0,0,1,1.36.3l-.25.91a2.37,2.37,0,0,0-1.08-.29c-.47,0-.72.22-.72.53s.24.49.89.72c.93.33,1.36.81,1.37,1.56,0,.93-.73,1.6-2.08,1.6a3.25,3.25,0,0,1-1.55-.36Z"/><path class="cls-4" d="M275,199.16a3.9,3.9,0,0,1-1.45.26,2.46,2.46,0,0,1-2.64-2.6,2.64,2.64,0,0,1,2.85-2.73,3.16,3.16,0,0,1,1.25.24l-.23,1a2.37,2.37,0,0,0-1-.2,1.66,1.66,0,0,0,0,3.31,2.45,2.45,0,0,0,1-.2Z"/><path class="cls-4" d="M280.8,196.71a2.53,2.53,0,0,1-2.62,2.72,2.47,2.47,0,0,1-2.56-2.64,2.52,2.52,0,0,1,2.64-2.7A2.45,2.45,0,0,1,280.8,196.71Zm-3.85,0c0,1,.49,1.74,1.27,1.74s1.25-.73,1.25-1.76c0-.8-.35-1.71-1.24-1.71S277,195.91,277,196.76Z"/><path class="cls-4" d="M286.58,191.86v6c0,.52,0,1.09,0,1.43h-1.15l-.05-.8h0a1.84,1.84,0,0,1-1.67.92,2.34,2.34,0,0,1-2.18-2.61,2.43,2.43,0,0,1,2.29-2.73,1.63,1.63,0,0,1,1.44.67h0v-2.9Zm-1.29,4.47a1.84,1.84,0,0,0,0-.33,1.14,1.14,0,0,0-1.12-.92c-.82,0-1.29.74-1.29,1.69s.47,1.62,1.28,1.62a1.15,1.15,0,0,0,1.12-.91,1.53,1.53,0,0,0,0-.38Z"/><path class="cls-4" d="M289.34,192.77a.73.73,0,0,1-1.45,0,.7.7,0,0,1,.73-.7A.69.69,0,0,1,289.34,192.77ZM288,199.31V194.2h1.3v5.11Z"/><path class="cls-4" d="M290.65,195.72c0-.58,0-1.08,0-1.52h1.14l.06.77h0a1.85,1.85,0,0,1,1.63-.88c.89,0,1.81.57,1.81,2.19v3H294v-2.88c0-.74-.27-1.29-1-1.29a1.08,1.08,0,0,0-1,.75,1.38,1.38,0,0,0-.05.42v3h-1.31Z"/><path class="cls-4" d="M301.33,194.2c0,.35,0,.77,0,1.47v2.9a2.47,2.47,0,0,1-2.73,2.94,3.63,3.63,0,0,1-1.78-.41l.28-1a3.05,3.05,0,0,0,1.49.39A1.36,1.36,0,0,0,300,199v-.44h0a1.72,1.72,0,0,1-1.49.75,2.27,2.27,0,0,1-2.18-2.5,2.45,2.45,0,0,1,2.33-2.69,1.62,1.62,0,0,1,1.48.79h0l0-.68ZM300,196.25a1.34,1.34,0,0,0,0-.35,1.08,1.08,0,0,0-1-.83c-.73,0-1.26.63-1.26,1.67,0,.87.44,1.58,1.25,1.58a1.11,1.11,0,0,0,1.05-.78,2.4,2.4,0,0,0,.05-.46Z"/><path class="cls-4" d="M307.73,199.31l-.09-.56h0a1.89,1.89,0,0,1-1.51.68,1.52,1.52,0,0,1-1.61-1.52c0-1.29,1.15-1.95,3-1.93v-.09c0-.33-.14-.89-1-.89a2.72,2.72,0,0,0-1.38.38l-.25-.84a3.7,3.7,0,0,1,1.85-.45,1.91,1.91,0,0,1,2.11,2.15v1.85a8.45,8.45,0,0,0,.07,1.22Zm-.17-2.49c-.91,0-1.79.17-1.79,1a.69.69,0,0,0,.74.74,1.06,1.06,0,0,0,1-.71,1,1,0,0,0,0-.28Z"/><path class="cls-4" d="M310.18,195.72c0-.58,0-1.08,0-1.52h1.14l.06.77h0a1.85,1.85,0,0,1,1.63-.88c.89,0,1.81.57,1.81,2.19v3h-1.29v-2.88c0-.74-.27-1.29-1-1.29a1.08,1.08,0,0,0-1,.75,1.38,1.38,0,0,0-.05.42v3h-1.31Z"/><path class="cls-4" d="M320.9,191.86v6c0,.52,0,1.09.05,1.43h-1.16l-.05-.8h0a1.86,1.86,0,0,1-1.67.92,2.34,2.34,0,0,1-2.18-2.61,2.42,2.42,0,0,1,2.28-2.73,1.62,1.62,0,0,1,1.44.67h0v-2.9Zm-1.29,4.47a1.84,1.84,0,0,0,0-.33,1.12,1.12,0,0,0-1.11-.92c-.83,0-1.29.74-1.29,1.69s.46,1.62,1.28,1.62a1.14,1.14,0,0,0,1.11-.91,1.53,1.53,0,0,0,0-.38Z"/><path class="cls-4" d="M253,205.2l.53,2.32c.12.55.23,1.1.33,1.66h0c.1-.56.27-1.12.42-1.65l.66-2.33h1l.64,2.27c.16.6.29,1.15.41,1.71h0c.09-.56.2-1.11.34-1.71l.56-2.27h1.28l-1.61,5.11h-1.2l-.61-2.07c-.15-.54-.27-1-.39-1.64h0a14.28,14.28,0,0,1-.38,1.64l-.66,2.07h-1.2l-1.51-5.11Z"/><path class="cls-4" d="M263,210.31l-.08-.56h0a1.9,1.9,0,0,1-1.51.68,1.52,1.52,0,0,1-1.61-1.52c0-1.29,1.14-1.95,3-1.93v-.09c0-.33-.13-.89-1-.89a2.69,2.69,0,0,0-1.37.38l-.25-.84a3.66,3.66,0,0,1,1.84-.45,1.91,1.91,0,0,1,2.11,2.15v1.85a7.11,7.11,0,0,0,.08,1.22Zm-.17-2.49c-.91,0-1.78.17-1.78,1a.68.68,0,0,0,.73.74,1,1,0,0,0,1-.71,1,1,0,0,0,0-.28Z"/><path class="cls-4" d="M266.92,203.74v1.46h1.23v1h-1.23v2.25c0,.62.17,1,.66,1a1.93,1.93,0,0,0,.5-.06l0,1a2.69,2.69,0,0,1-.94.13,1.5,1.5,0,0,1-1.11-.42,2.05,2.05,0,0,1-.4-1.43v-2.4h-.73v-1h.73v-1.15Z"/><path class="cls-4" d="M270,208.12a1.38,1.38,0,0,0,1.57,1.32,3.8,3.8,0,0,0,1.42-.23l.19.89a4.78,4.78,0,0,1-1.79.32,2.42,2.42,0,0,1-2.63-2.58,2.53,2.53,0,0,1,2.5-2.75,2.21,2.21,0,0,1,2.2,2.48,3.35,3.35,0,0,1,0,.55Zm2.25-.9a1.1,1.1,0,0,0-1.07-1.25,1.26,1.26,0,0,0-1.18,1.25Z"/><path class="cls-4" d="M274.54,206.85c0-.69,0-1.19,0-1.65h1.12l.05,1h0a1.51,1.51,0,0,1,1.39-1.09,1.48,1.48,0,0,1,.31,0v1.21a1.92,1.92,0,0,0-.38,0,1.13,1.13,0,0,0-1.15,1,2.18,2.18,0,0,0-.05.4v2.64h-1.29Z"/><path class="cls-4" d="M278.28,206.72c0-.58,0-1.08,0-1.52h1.11l0,.76h0a1.76,1.76,0,0,1,1.57-.87,1.47,1.47,0,0,1,1.42.94h0a2,2,0,0,1,.63-.64,1.7,1.7,0,0,1,1-.3c.85,0,1.71.57,1.71,2.21v3h-1.26v-2.82c0-.85-.3-1.35-.91-1.35a1,1,0,0,0-.91.68,1.86,1.86,0,0,0-.06.43v3.06h-1.26v-3c0-.71-.28-1.21-.88-1.21a1,1,0,0,0-.93.73,1.16,1.16,0,0,0-.07.42v3h-1.26Z"/><path class="cls-4" d="M290.06,210.31l-.08-.56h0a1.91,1.91,0,0,1-1.52.68,1.52,1.52,0,0,1-1.6-1.52c0-1.29,1.14-1.95,3-1.93v-.09c0-.33-.13-.89-1-.89a2.69,2.69,0,0,0-1.37.38l-.25-.84a3.63,3.63,0,0,1,1.84-.45,1.91,1.91,0,0,1,2.11,2.15v1.85a7.11,7.11,0,0,0,.08,1.22Zm-.17-2.49c-.91,0-1.78.17-1.78,1a.68.68,0,0,0,.73.74,1,1,0,0,0,1-.71,1,1,0,0,0,0-.28Z"/><path class="cls-4" d="M292.52,206.85c0-.69,0-1.19,0-1.65h1.12l0,1h0a1.52,1.52,0,0,1,1.4-1.09,1.32,1.32,0,0,1,.3,0v1.21a1.82,1.82,0,0,0-.37,0,1.15,1.15,0,0,0-1.16,1,2.25,2.25,0,0,0,0,.4v2.64h-1.29Z"/><path class="cls-4" d="M297.55,207.45h0c.13-.2.27-.42.41-.6l1.24-1.65h1.55l-1.89,2.09,2.16,3h-1.58L298,208.06l-.44.51v1.74h-1.29v-7.45h1.29Z"/><path class="cls-4" d="M303,203.77a.69.69,0,0,1-.74.7.68.68,0,0,1-.71-.7.69.69,0,0,1,.72-.7A.7.7,0,0,1,303,203.77Zm-1.38,6.54V205.2h1.3v5.11Z"/><path class="cls-4" d="M304.29,206.72c0-.58,0-1.08,0-1.52h1.13l.06.77h0a1.86,1.86,0,0,1,1.63-.88c.89,0,1.82.57,1.82,2.19v3h-1.29v-2.88c0-.74-.28-1.29-1-1.29a1.09,1.09,0,0,0-1,.75,1.38,1.38,0,0,0-.05.42v3h-1.3Z"/><path class="cls-4" d="M315,205.2c0,.35-.05.77-.05,1.47v2.9a2.46,2.46,0,0,1-2.72,2.94,3.64,3.64,0,0,1-1.79-.41l.28-1a3.12,3.12,0,0,0,1.49.39,1.36,1.36,0,0,0,1.47-1.54v-.44h0a1.72,1.72,0,0,1-1.49.75,2.27,2.27,0,0,1-2.17-2.5,2.44,2.44,0,0,1,2.32-2.69,1.6,1.6,0,0,1,1.48.79h0l0-.68Zm-1.34,2.05a1.34,1.34,0,0,0,0-.35,1.07,1.07,0,0,0-1-.83c-.72,0-1.26.63-1.26,1.67,0,.87.44,1.58,1.25,1.58a1.11,1.11,0,0,0,1.05-.78,2.4,2.4,0,0,0,.05-.46Z"/><path class="cls-4" d="M134.71,83.33a13.56,13.56,0,0,1,2-.14,4.35,4.35,0,0,1,2.89.81,3.19,3.19,0,0,1,1.1,2.61,3.66,3.66,0,0,1-1.1,2.81,4.73,4.73,0,0,1-3.2,1,12.5,12.5,0,0,1-1.74-.1Zm1.29,6a5,5,0,0,0,.71,0,2.42,2.42,0,0,0,2.68-2.71,2.25,2.25,0,0,0-2.51-2.46,3.51,3.51,0,0,0-.88.08Z"/><path class="cls-4" d="M143.2,83.77a.69.69,0,0,1-.74.7.68.68,0,0,1-.71-.7.73.73,0,0,1,1.45,0Zm-1.38,6.54V85.2h1.31v5.11Z"/><path class="cls-4" d="M149.18,85.2c0,.35,0,.77,0,1.47v2.9a2.47,2.47,0,0,1-2.73,2.94,3.63,3.63,0,0,1-1.78-.41l.28-1a3.08,3.08,0,0,0,1.49.39A1.36,1.36,0,0,0,147.87,90v-.44h0a1.72,1.72,0,0,1-1.49.75,2.27,2.27,0,0,1-2.17-2.5,2.44,2.44,0,0,1,2.32-2.69,1.61,1.61,0,0,1,1.48.79h0l.05-.68Zm-1.33,2a1.34,1.34,0,0,0,0-.35,1.08,1.08,0,0,0-1.05-.83c-.73,0-1.26.63-1.26,1.67,0,.87.44,1.58,1.25,1.58a1.11,1.11,0,0,0,1.05-.78,2.4,2.4,0,0,0,0-.46Z"/><path class="cls-4" d="M151.9,83.77a.72.72,0,1,1-.72-.7A.69.69,0,0,1,151.9,83.77Zm-1.37,6.54V85.2h1.3v5.11Z"/><path class="cls-4" d="M154.7,83.74V85.2h1.22v1H154.7v2.25c0,.62.16,1,.66,1a1.93,1.93,0,0,0,.5-.06l0,1a2.63,2.63,0,0,1-.93.13,1.5,1.5,0,0,1-1.11-.42,2,2,0,0,1-.4-1.43v-2.4h-.74v-1h.74V84.05Z"/><path class="cls-4" d="M159.78,90.31l-.09-.56h0a1.89,1.89,0,0,1-1.51.68,1.52,1.52,0,0,1-1.61-1.52c0-1.29,1.15-2,3-1.93v-.09c0-.33-.14-.89-1-.89a2.75,2.75,0,0,0-1.38.38l-.25-.84a3.7,3.7,0,0,1,1.85-.45,1.91,1.91,0,0,1,2.11,2.15v1.85a8.45,8.45,0,0,0,.07,1.22Zm-.17-2.49c-.91,0-1.78.17-1.78,1a.68.68,0,0,0,.73.74,1.06,1.06,0,0,0,1-.71,1,1,0,0,0,0-.28Z"/><path class="cls-4" d="M162.24,82.86h1.3v7.45h-1.3Z"/><path class="cls-4" d="M170.87,90.16a3.9,3.9,0,0,1-1.45.26,2.46,2.46,0,0,1-2.64-2.6,2.64,2.64,0,0,1,2.85-2.73,3.2,3.2,0,0,1,1.25.24l-.24,1a2.28,2.28,0,0,0-1-.2,1.66,1.66,0,0,0,0,3.31,2.45,2.45,0,0,0,1-.2Z"/><path class="cls-4" d="M176.68,87.71a2.53,2.53,0,0,1-2.62,2.72,2.47,2.47,0,0,1-2.56-2.64,2.52,2.52,0,0,1,2.64-2.7A2.45,2.45,0,0,1,176.68,87.71Zm-3.85.05c0,1,.48,1.74,1.27,1.74s1.25-.73,1.25-1.76c0-.8-.36-1.71-1.24-1.71S172.83,86.91,172.83,87.76Z"/><path class="cls-4" d="M177.74,86.72c0-.58,0-1.08,0-1.52h1.13l.07.77h0a1.85,1.85,0,0,1,1.63-.88c.89,0,1.81.57,1.81,2.19v3h-1.29V87.43c0-.74-.27-1.29-1-1.29a1.07,1.07,0,0,0-1,.75,1.37,1.37,0,0,0-.06.42v3h-1.3Z"/><path class="cls-4" d="M184.57,85.2l.83,2.59c.14.46.25.87.34,1.29h0c.09-.42.21-.82.34-1.29l.81-2.59h1.36l-1.95,5.11h-1.27l-1.9-5.11Z"/><path class="cls-4" d="M190,88.12a1.38,1.38,0,0,0,1.57,1.32,3.8,3.8,0,0,0,1.42-.23l.19.89a4.78,4.78,0,0,1-1.79.32,2.41,2.41,0,0,1-2.63-2.58,2.53,2.53,0,0,1,2.5-2.75,2.21,2.21,0,0,1,2.2,2.48,3.35,3.35,0,0,1,0,.55Zm2.24-.9A1.1,1.1,0,0,0,191.18,86,1.25,1.25,0,0,0,190,87.22Z"/><path class="cls-4" d="M194.5,86.85c0-.69,0-1.19,0-1.65h1.12l0,1h0a1.51,1.51,0,0,1,1.39-1.09,1.48,1.48,0,0,1,.31,0v1.21a1.92,1.92,0,0,0-.38,0,1.15,1.15,0,0,0-1.16,1,2.25,2.25,0,0,0,0,.4v2.64H194.5Z"/><path class="cls-4" d="M198.18,89.13a2.85,2.85,0,0,0,1.31.37c.56,0,.82-.24.82-.57s-.21-.53-.84-.75c-1-.34-1.42-.89-1.41-1.49a1.71,1.71,0,0,1,1.93-1.6,3,3,0,0,1,1.36.3l-.26.91A2.37,2.37,0,0,0,200,86c-.46,0-.71.22-.71.53s.24.49.89.72c.93.33,1.36.81,1.37,1.56,0,.93-.73,1.6-2.08,1.6a3.33,3.33,0,0,1-1.56-.36Z"/><path class="cls-4" d="M204,83.77a.73.73,0,0,1-1.45,0,.7.7,0,0,1,.73-.7A.69.69,0,0,1,204,83.77Zm-1.37,6.54V85.2h1.3v5.11Z"/><path class="cls-4" d="M210.17,87.71a2.54,2.54,0,0,1-2.63,2.72A2.47,2.47,0,0,1,205,87.79a2.52,2.52,0,0,1,2.65-2.7A2.45,2.45,0,0,1,210.17,87.71Zm-3.86.05c0,1,.49,1.74,1.27,1.74s1.25-.73,1.25-1.76c0-.8-.35-1.71-1.24-1.71S206.31,86.91,206.31,87.76Z"/><path class="cls-4" d="M211.23,86.72c0-.58,0-1.08,0-1.52h1.13l.06.77h0a1.85,1.85,0,0,1,1.63-.88c.89,0,1.82.57,1.82,2.19v3h-1.29V87.43c0-.74-.28-1.29-1-1.29a1.09,1.09,0,0,0-1,.75,1.38,1.38,0,0,0-.05.42v3h-1.3Z"/><path class="cls-4" d="M143.75,101.31l-.08-.56h0a1.9,1.9,0,0,1-1.51.68,1.52,1.52,0,0,1-1.61-1.52c0-1.29,1.15-2,3-1.93v-.09c0-.33-.14-.89-1-.89a2.72,2.72,0,0,0-1.38.38l-.25-.84a3.7,3.7,0,0,1,1.85-.45,1.92,1.92,0,0,1,2.11,2.15v1.85a8.45,8.45,0,0,0,.07,1.22Zm-.16-2.49c-.92,0-1.79.17-1.79,1a.69.69,0,0,0,.74.74,1,1,0,0,0,1-.71.72.72,0,0,0,.05-.28Z"/><path class="cls-4" d="M146.21,97.72c0-.58,0-1.08,0-1.52h1.13l.07.77h0a1.85,1.85,0,0,1,1.63-.88c.89,0,1.81.57,1.81,2.19v3h-1.29V98.43c0-.74-.27-1.29-1-1.29a1.06,1.06,0,0,0-1,.75,1.12,1.12,0,0,0-.06.42v3h-1.3Z"/><path class="cls-4" d="M156.93,93.86v6c0,.52,0,1.09,0,1.43h-1.15l0-.8h0a1.86,1.86,0,0,1-1.67.92,2.34,2.34,0,0,1-2.19-2.61,2.43,2.43,0,0,1,2.29-2.73,1.63,1.63,0,0,1,1.44.67h0v-2.9Zm-1.29,4.47a1.84,1.84,0,0,0,0-.33,1.14,1.14,0,0,0-1.11-.92c-.83,0-1.29.74-1.29,1.69s.46,1.62,1.28,1.62a1.15,1.15,0,0,0,1.11-.91,1.53,1.53,0,0,0,0-.38Z"/><path class="cls-4" d="M160.49,97.85c0-.69,0-1.19,0-1.65h1.12l.05,1h0a1.51,1.51,0,0,1,1.39-1.09,1.48,1.48,0,0,1,.31,0v1.21a1.92,1.92,0,0,0-.38,0,1.13,1.13,0,0,0-1.15,1,1.56,1.56,0,0,0-.05.4v2.64h-1.29Z"/><path class="cls-4" d="M165.14,99.12a1.39,1.39,0,0,0,1.58,1.32,3.71,3.71,0,0,0,1.41-.23l.19.89a4.76,4.76,0,0,1-1.78.32,2.42,2.42,0,0,1-2.64-2.58,2.54,2.54,0,0,1,2.5-2.75,2.22,2.22,0,0,1,2.21,2.48,3.35,3.35,0,0,1,0,.55Zm2.25-.9A1.1,1.1,0,0,0,166.33,97a1.27,1.27,0,0,0-1.19,1.25Z"/><path class="cls-4" d="M169.58,100.13a2.92,2.92,0,0,0,1.32.37c.56,0,.82-.24.82-.57s-.21-.53-.84-.75c-1-.34-1.42-.89-1.41-1.49,0-.9.74-1.6,1.93-1.6a3,3,0,0,1,1.36.3l-.26.91a2.37,2.37,0,0,0-1.08-.29c-.46,0-.71.22-.71.53s.24.49.89.72c.92.33,1.36.81,1.36,1.56,0,.93-.72,1.6-2.07,1.6a3.33,3.33,0,0,1-1.56-.36Z"/><path class="cls-4" d="M175.51,94.74V96.2h1.22v1h-1.22v2.25c0,.62.16,1,.66,1a1.93,1.93,0,0,0,.5-.06l0,1a2.63,2.63,0,0,1-.93.13,1.5,1.5,0,0,1-1.11-.42,2,2,0,0,1-.4-1.43v-2.4h-.74v-1h.74V95.05Z"/><path class="cls-4" d="M182.57,98.71a2.53,2.53,0,0,1-2.62,2.72,2.47,2.47,0,0,1-2.56-2.64,2.52,2.52,0,0,1,2.64-2.7A2.45,2.45,0,0,1,182.57,98.71Zm-3.85.05c0,1,.48,1.74,1.27,1.74s1.25-.73,1.25-1.76c0-.8-.36-1.71-1.24-1.71S178.72,97.91,178.72,98.76Z"/><path class="cls-4" d="M183.63,97.85c0-.69,0-1.19,0-1.65h1.12l0,1h0a1.51,1.51,0,0,1,1.4-1.09,1.45,1.45,0,0,1,.3,0v1.21a1.92,1.92,0,0,0-.38,0,1.13,1.13,0,0,0-1.15,1,2.18,2.18,0,0,0-.05.4v2.64h-1.29Z"/><path class="cls-4" d="M190.25,101.31l-.09-.56h0a1.89,1.89,0,0,1-1.51.68A1.52,1.52,0,0,1,187,99.91c0-1.29,1.15-2,3-1.93v-.09c0-.33-.14-.89-1-.89a2.75,2.75,0,0,0-1.38.38l-.25-.84a3.7,3.7,0,0,1,1.85-.45,1.91,1.91,0,0,1,2.11,2.15v1.85a8.45,8.45,0,0,0,.07,1.22Zm-.17-2.49c-.91,0-1.79.17-1.79,1a.69.69,0,0,0,.74.74,1.06,1.06,0,0,0,1-.71,1,1,0,0,0,0-.28Z"/><path class="cls-4" d="M194.19,94.74V96.2h1.22v1h-1.22v2.25c0,.62.16,1,.66,1a1.93,1.93,0,0,0,.5-.06l0,1a2.63,2.63,0,0,1-.93.13,1.48,1.48,0,0,1-1.11-.42,2,2,0,0,1-.4-1.43v-2.4h-.74v-1h.74V95.05Z"/><path class="cls-4" d="M197.77,94.77a.69.69,0,0,1-.74.7.68.68,0,0,1-.71-.7.69.69,0,0,1,.72-.7A.7.7,0,0,1,197.77,94.77Zm-1.38,6.54V96.2h1.3v5.11Z"/><path class="cls-4" d="M203.94,98.71a2.53,2.53,0,0,1-2.63,2.72,2.48,2.48,0,0,1-2.56-2.64,2.53,2.53,0,0,1,2.65-2.7A2.45,2.45,0,0,1,203.94,98.71Zm-3.85.05c0,1,.48,1.74,1.27,1.74s1.25-.73,1.25-1.76c0-.8-.36-1.71-1.24-1.71S200.09,97.91,200.09,98.76Z"/><path class="cls-4" d="M205,97.72c0-.58,0-1.08,0-1.52h1.13l.07.77h0a1.83,1.83,0,0,1,1.62-.88c.9,0,1.82.57,1.82,2.19v3h-1.29V98.43c0-.74-.27-1.29-1-1.29a1.06,1.06,0,0,0-1,.75,1.12,1.12,0,0,0-.06.42v3H205Z"/><path class="cls-3" d="M131.28,156.34a19.59,19.59,0,0,1,3.38-.25,5.51,5.51,0,0,1,3.59,1,3.42,3.42,0,0,1,1.18,2.68,3.71,3.71,0,0,1-1,2.76,5.36,5.36,0,0,1-3.84,1.29,6.74,6.74,0,0,1-1.08-.07v4.57h-2.19Zm2.19,5.65a4.09,4.09,0,0,0,1.08.09c1.66,0,2.67-.81,2.67-2.23s-.94-2.07-2.47-2.07a5.76,5.76,0,0,0-1.28.11Z"/><path class="cls-3" d="M141.25,162.37c0-1.19,0-2-.07-2.83h1.92l.08,1.68h.07a2.61,2.61,0,0,1,2.39-1.87,2.7,2.7,0,0,1,.52.05v2.09a2.77,2.77,0,0,0-.64-.07,1.94,1.94,0,0,0-2,1.67,3.44,3.44,0,0,0-.08.69v4.53h-2.21Z"/><path class="cls-3" d="M156,163.85a4.34,4.34,0,0,1-4.5,4.66A4.24,4.24,0,0,1,147.1,164a4.33,4.33,0,0,1,4.54-4.64A4.2,4.2,0,0,1,156,163.85Zm-6.6.09c0,1.69.82,3,2.17,3s2.15-1.24,2.15-3c0-1.37-.62-2.93-2.13-2.93S149.39,162.48,149.39,163.94Z"/><path class="cls-3" d="M165.89,155.53v10.32c0,.9,0,1.87.07,2.46h-2l-.09-1.38h0a3.16,3.16,0,0,1-2.86,1.58c-2.09,0-3.75-1.78-3.75-4.48,0-2.94,1.82-4.68,3.93-4.68a2.78,2.78,0,0,1,2.46,1.15h0v-5Zm-2.21,7.67a3.79,3.79,0,0,0-.05-.58,2,2,0,0,0-1.91-1.56c-1.43,0-2.22,1.26-2.22,2.9s.79,2.77,2.2,2.77a2,2,0,0,0,1.91-1.57,2.64,2.64,0,0,0,.07-.65Z"/><path class="cls-3" d="M176.12,165.69c0,1,0,1.9.07,2.62h-1.95l-.1-1.33h0a3.17,3.17,0,0,1-2.81,1.53c-1.6,0-3.06-.95-3.06-3.81v-5.16h2.22v4.78c0,1.46.46,2.39,1.63,2.39a1.87,1.87,0,0,0,1.7-1.19,2,2,0,0,0,.12-.68v-5.3h2.22Z"/><path class="cls-3" d="M185,168a6.27,6.27,0,0,1-2.48.45A4.21,4.21,0,0,1,178,164a4.53,4.53,0,0,1,4.88-4.68,5.58,5.58,0,0,1,2.14.41l-.39,1.66a4,4,0,0,0-1.68-.34,2.84,2.84,0,0,0,0,5.67,4.33,4.33,0,0,0,1.75-.34Z"/><path class="cls-3" d="M189.13,157v2.5h2.11v1.66h-2.11v3.87c0,1.06.29,1.62,1.13,1.62a3.57,3.57,0,0,0,.87-.1l0,1.69a5,5,0,0,1-1.6.21,2.58,2.58,0,0,1-1.91-.72,3.46,3.46,0,0,1-.68-2.44V161.2h-1.26v-1.66H187v-2Z"/><path class="cls-3" d="M195.27,157.1a1.25,1.25,0,1,1-1.25-1.21A1.18,1.18,0,0,1,195.27,157.1Zm-2.36,11.21v-8.77h2.23v8.77Z"/><path class="cls-3" d="M205.85,163.85a4.34,4.34,0,0,1-4.5,4.66A4.24,4.24,0,0,1,197,164a4.33,4.33,0,0,1,4.54-4.64A4.2,4.2,0,0,1,205.85,163.85Zm-6.61.09c0,1.69.83,3,2.18,3s2.15-1.24,2.15-3c0-1.37-.62-2.93-2.13-2.93S199.24,162.48,199.24,163.94Z"/><path class="cls-3" d="M207.67,162.16c0-1,0-1.86-.07-2.62h1.94l.11,1.32h0a3.18,3.18,0,0,1,2.79-1.51c1.53,0,3.12,1,3.12,3.76v5.2h-2.22v-4.95c0-1.26-.46-2.21-1.67-2.21a1.86,1.86,0,0,0-1.73,1.29,2.33,2.33,0,0,0-.09.72v5.15h-2.23Z"/><path class="cls-3" d="M166.42,186.31l-.14-1h-.05a3.25,3.25,0,0,1-2.6,1.17,2.6,2.6,0,0,1-2.75-2.61c0-2.21,2-3.33,5.2-3.31v-.15c0-.57-.23-1.53-1.78-1.53a4.6,4.6,0,0,0-2.36.65l-.43-1.44a6.38,6.38,0,0,1,3.17-.77c2.81,0,3.62,1.78,3.62,3.69v3.17a14.08,14.08,0,0,0,.12,2.1Zm-.29-4.28c-1.56,0-3.06.3-3.06,1.64a1.16,1.16,0,0,0,1.26,1.26,1.78,1.78,0,0,0,1.73-1.21,1.42,1.42,0,0,0,.07-.49Z"/><path class="cls-3" d="M170.63,180.16c0-1,0-1.86-.07-2.62h1.95l.1,1.32h.06a3.17,3.17,0,0,1,2.79-1.51c1.53,0,3.11,1,3.11,3.76v5.2h-2.21v-4.95c0-1.26-.47-2.21-1.68-2.21a1.85,1.85,0,0,0-1.72,1.29,2.06,2.06,0,0,0-.09.72v5.15h-2.24Z"/><path class="cls-3" d="M189,173.53v10.32c0,.9,0,1.87.08,2.46h-2l-.09-1.38h0a3.16,3.16,0,0,1-2.86,1.58c-2.09,0-3.75-1.78-3.75-4.48,0-2.94,1.82-4.68,3.93-4.68a2.78,2.78,0,0,1,2.46,1.15h0v-5Zm-2.21,7.67a3.79,3.79,0,0,0-.05-.58,2,2,0,0,0-1.91-1.56c-1.43,0-2.22,1.26-2.22,2.9s.79,2.77,2.2,2.77a2,2,0,0,0,1.91-1.57,2.64,2.64,0,0,0,.07-.65Z"/><path class="cls-3" d="M144.92,204.31l-.14-1h-.06a3.22,3.22,0,0,1-2.59,1.17,2.6,2.6,0,0,1-2.75-2.61c0-2.21,2-3.33,5.2-3.31v-.15c0-.57-.23-1.53-1.78-1.53a4.6,4.6,0,0,0-2.36.65l-.43-1.44a6.38,6.38,0,0,1,3.17-.77c2.8,0,3.61,1.78,3.61,3.69v3.17a13.93,13.93,0,0,0,.13,2.1Zm-.29-4.28c-1.56,0-3.06.3-3.06,1.64a1.16,1.16,0,0,0,1.26,1.26,1.79,1.79,0,0,0,1.73-1.21,1.42,1.42,0,0,0,.07-.49Z"/><path class="cls-3" d="M149.13,198.37c0-1.19,0-2-.07-2.83H151l.07,1.68h.07a2.62,2.62,0,0,1,2.4-1.87,2.78,2.78,0,0,1,.52.05v2.09a2.87,2.87,0,0,0-.65-.07,2,2,0,0,0-2,1.67,3.49,3.49,0,0,0-.07.69v4.53h-2.22Z"/><path class="cls-3" d="M162,204a6.37,6.37,0,0,1-2.49.45A4.21,4.21,0,0,1,155,200a4.53,4.53,0,0,1,4.88-4.68,5.58,5.58,0,0,1,2.14.41l-.39,1.66a3.94,3.94,0,0,0-1.68-.34,2.84,2.84,0,0,0,0,5.67,4.33,4.33,0,0,0,1.75-.34Z"/><path class="cls-3" d="M163.62,191.53h2.24v5.22h0a3.07,3.07,0,0,1,1.1-1,3,3,0,0,1,1.51-.39c1.5,0,3.06,1,3.06,3.8v5.16h-2.21V199.4c0-1.28-.47-2.23-1.69-2.23a1.79,1.79,0,0,0-1.71,1.24,1.68,1.68,0,0,0-.09.66v5.24h-2.24Z"/><path class="cls-3" d="M176.28,193.1a1.25,1.25,0,1,1-1.24-1.21A1.18,1.18,0,0,1,176.28,193.1Zm-2.36,11.21v-8.77h2.23v8.77Z"/><path class="cls-3" d="M179.93,195.54l1.42,4.45a21.48,21.48,0,0,1,.6,2.2H182c.16-.72.36-1.4.6-2.2l1.38-4.45h2.34L183,204.31h-2.18l-3.25-8.77Z"/><path class="cls-3" d="M190,193.1a1.25,1.25,0,1,1-1.24-1.21A1.18,1.18,0,0,1,190,193.1Zm-2.36,11.21v-8.77h2.23v8.77Z"/><path class="cls-3" d="M192.28,198.16c0-1,0-1.86-.07-2.62h1.94l.11,1.32h.05a3.18,3.18,0,0,1,2.79-1.51c1.53,0,3.12,1,3.12,3.76v5.2H198v-4.95c0-1.26-.46-2.21-1.67-2.21a1.86,1.86,0,0,0-1.73,1.29,2.33,2.33,0,0,0-.09.72v5.15h-2.23Z"/><path class="cls-3" d="M210.59,195.54c0,.6-.08,1.32-.08,2.53v5c0,1.83-.37,3.15-1.29,4a5,5,0,0,1-3.39,1.07,6.32,6.32,0,0,1-3.06-.7l.49-1.68a5.32,5.32,0,0,0,2.55.67,2.34,2.34,0,0,0,2.53-2.65V203h0a2.94,2.94,0,0,1-2.56,1.3c-2.18,0-3.72-1.8-3.72-4.29,0-2.88,1.87-4.62,4-4.62a2.74,2.74,0,0,1,2.53,1.37h0l.09-1.18Zm-2.29,3.52a2.35,2.35,0,0,0-.07-.6,1.85,1.85,0,0,0-1.8-1.42c-1.25,0-2.16,1.08-2.16,2.86,0,1.5.75,2.7,2.14,2.7a1.89,1.89,0,0,0,1.8-1.33,4.07,4.07,0,0,0,.09-.79Z"/><path class="cls-4" d="M178.37,64.21v7.31h-7.31V66.26c-.6-.06-1.14-.16-1.67-.17a.93.93,0,0,0-.61.31c-.65.74-1.24,1.52-1.9,2.24a.82.82,0,0,1-.73.22c-1.77-.69-3.53-1.43-5.29-2.15a.68.68,0,0,1-.45-.85c.13-.92.21-1.86.25-2.79a1.17,1.17,0,0,0-.33-.78q-1.72-1.78-3.51-3.51a1.11,1.11,0,0,0-.73-.32c-1,0-1.91.15-2.86.26a.6.6,0,0,1-.74-.41c-.73-1.81-1.48-3.61-2.18-5.43a.8.8,0,0,1,.22-.67c.73-.66,1.51-1.25,2.24-1.91a.91.91,0,0,0,.27-.67,15.37,15.37,0,0,1,0-4.69.9.9,0,0,0-.3-.66c-.69-.62-1.41-1.22-2.14-1.8a.65.65,0,0,1-.28-.86q1.1-2.64,2.14-5.3a.66.66,0,0,1,.8-.43c.91.1,1.82.16,2.72.27a1,1,0,0,0,.92-.39c1.11-1.17,2.26-2.3,3.42-3.42a.9.9,0,0,0,.36-.86c-.13-1-.21-1.94-.26-2.92a.73.73,0,0,1,.3-.58c1.83-.79,3.67-1.56,5.53-2.29a.73.73,0,0,1,.61.23c.61.68,1.21,1.37,1.75,2.1a1,1,0,0,0,1.15.47c.4-.08.8-.11,1.26-.16V23.08h7.36v5.33h11.08v10.8h10.78v7.33h-5.31v5.87h-5.39v2.75h5.33V62.5h-5.35v5h-7.33V60.26h5.32V57.43h-5.32V50.1h5.32V41.23H182.2c0-.39,0-.72,0-1,0-1.25,0-2.5,0-3.75,0-.51-.14-.67-.66-.66-1.56,0-3.13,0-4.76,0V30.5c-.12-.06-.18-.12-.23-.12-2.59.05-5.19-.23-7.77.21a1,1,0,0,1-.73-.27c-.62-.69-1.22-1.41-1.79-2.15a.58.58,0,0,0-.81-.21c-.83.36-1.67.72-2.51,1.05-.43.16-.49.42-.44.84.12.9.19,1.81.23,2.72a.87.87,0,0,1-.3.65,18.63,18.63,0,0,0-4.66,4.67,1,1,0,0,1-.73.29c-.91,0-1.81-.18-2.72-.22a.84.84,0,0,0-.65.38c-.4.87-.72,1.77-1.1,2.64a.57.57,0,0,0,.21.76c.68.53,1.32,1.11,2,1.64a.87.87,0,0,1,.37,1,15.26,15.26,0,0,0,0,5.91.84.84,0,0,1-.35.93q-1.07.81-2,1.71a.74.74,0,0,0-.19.66,28.91,28.91,0,0,0,1.09,2.71.84.84,0,0,0,.66.36c.91,0,1.82-.18,2.72-.22a1,1,0,0,1,.76.37,17.62,17.62,0,0,0,4.53,4.5.75.75,0,0,1,.4.83c-.12.9-.19,1.81-.23,2.72a.83.83,0,0,0,.33.67,29.2,29.2,0,0,0,2.71,1.13.75.75,0,0,0,.66-.2c.64-.71,1.22-1.47,1.85-2.19a.9.9,0,0,1,.61-.27c1.49.05,3,.18,4.48.22C174.84,64.24,176.57,64.21,178.37,64.21Zm5.73-2v3.42h3.39V62.19ZM176.43,28.4V25H173V28.4ZM182,33.82V30.39H178.7v3.43Zm2.12-3.42v3.4h3.35V30.4Zm3.36,5.41c-1.07,0-2.1,0-3.14,0a.43.43,0,0,0-.3.27c0,1,0,2.07,0,3.09h3.45Zm5.33,8.81V41.24h-3.33v3.38Zm5.47,0v-3.4H195v3.4ZM184.1,55.41h3.4V52.06h-3.4Zm-11,10.78v3.43h3.38V66.19Zm19.83-15.73V47.08h-3.34v3.38Zm0,6.64c-1,0-2,0-3,0a.61.61,0,0,0-.4.44c0,.84,0,1.68,0,2.52,0,.17.22.45.34.46,1,0,2,0,3.07,0Z"/><path class="cls-4" d="M170.87,57.73V54.36l7.74,4.47-7.7,4.46V59.8c-.48-.09-.9-.15-1.32-.24a12.69,12.69,0,0,1-2.1-24.32,1,1,0,0,0,.77-.8,3.79,3.79,0,0,1,4.05-2.94,3.89,3.89,0,1,1-3.6,5.93c-.09-.13-.16-.27-.24-.4-4.21.81-7.67,6.29-7.15,11.29S166.5,57.85,170.87,57.73ZM172,37.32a1.95,1.95,0,1,0,0-3.89,2,2,0,0,0-2,2A2,2,0,0,0,172,37.32Z"/><path class="cls-4" d="M189.46,16.4v7.28H182.2V16.4Zm-2,5.38V18.39h-3.4v3.39Z"/><path class="cls-4" d="M200.25,35.75H193V28.49h7.26Zm-1.95-1.93V30.39H195v3.43Z"/><path class="cls-4" d="M193,69.68h7.25V77H193ZM194.94,75h3.39V71.6h-3.39Z"/><path class="cls-4" d="M271.73,145H260.42c-1.13,0-1.47-.33-1.47-1.44q0-11.06,0-22.1c0-1.11.35-1.46,1.45-1.46h22.76c1.07,0,1.44.35,1.44,1.41v22.17c0,1.07-.36,1.42-1.42,1.42Zm10.63-22.81H261.2v20.63h21.16Z"/><path class="cls-4" d="M282.39,167.51A12.81,12.81,0,1,1,295.15,180,12.63,12.63,0,0,1,282.39,167.51Zm12.9-10.33a10.36,10.36,0,1,0,10.5,10.68A10.5,10.5,0,0,0,295.29,157.18Z"/><path class="cls-4" d="M306.07,143.81a28,28,0,0,1,1.65,11.35l-1.07-.08-1-.06c-.11-1.68-.11-3.34-.36-5a50.74,50.74,0,0,0-1.17-5,.84.84,0,0,0-.54-.53C299.55,144,298,141,300,137.39a25.79,25.79,0,0,0-5.68-5.39l-1.85,3.1-4.92-8.26h9.79l-1.9,3.26a15.79,15.79,0,0,1,1.34,1c1.56,1.5,3.09,3,4.65,4.52a1,1,0,0,0,.76.31,4.58,4.58,0,0,1,5.35,2.24c1,1.89.47,3.86-1.36,5.46C306.15,143.69,306.13,143.74,306.07,143.81Zm-2.54-1.45a2.21,2.21,0,0,0,2.29-2.19,2.23,2.23,0,0,0-2.28-2.28,2.31,2.31,0,0,0-2.32,2.28A2.28,2.28,0,0,0,303.53,142.36Z"/><path class="cls-4" d="M258,148.81h2.18a26.24,26.24,0,0,0,2.08,10.06c2.15-.39,3.91.15,5.05,2a4.25,4.25,0,0,1-.5,5.2,25.58,25.58,0,0,0,5.47,4.72l1.77-3.38,5.41,8-9.84.55,1.61-3.18c-1.26-1-2.52-1.95-3.71-3a21.62,21.62,0,0,1-2.15-2.13,1,1,0,0,0-1.09-.36,4.43,4.43,0,0,1-4.63-2.05,4.19,4.19,0,0,1,.34-4.89.82.82,0,0,0,.13-1,28,28,0,0,1-2.12-10C258,149.27,258,149.08,258,148.81Zm3.22,14.26a2.26,2.26,0,0,0,2.29,2.28,2.26,2.26,0,1,0,0-4.52A2.26,2.26,0,0,0,261.24,163.07Z"/><path class="cls-4" d="M179.51,251c.86.81,1.71,1.62,2.59,2.41a1.24,1.24,0,0,0,.62.24c.95.1,1.9.2,2.85.26a1.13,1.13,0,0,1,1.06.77c.36.85.7,1.72,1.1,2.55a1.75,1.75,0,0,0,.62.7c.77.47,1.57.91,2.38,1.32a1.25,1.25,0,0,1,.72,1.31c0,.19,0,.37,0,.56-.09,2.52-.13,2.56,1.46,4.53a2,2,0,0,1,.3,2.75,4.77,4.77,0,0,0-.51,4.67c.08.21.09.46.16.68a1.2,1.2,0,0,1-.48,1.46c-.68.56-1.34,1.15-2,1.75a1.16,1.16,0,0,0-.4.54c-.23,1-.43,2-.6,3a1.26,1.26,0,0,0,.2.64L200,302.66c.08.16.14.33.27.63l-8-2.69-2.92,8-11-22.92c-.73.43-1.43.83-2.11,1.26a1.17,1.17,0,0,1-1.43,0c-.25-.17-.55-.27-.78-.46a4.78,4.78,0,0,0-4.55-.91,2,2,0,0,1-.82.09,3,3,0,0,1-1.06-.5,2.81,2.81,0,0,1-.65-.9,4.5,4.5,0,0,0-4-2.55l-8.86,18.24,5.42-1.79,2,5.38,4.24-8.7-3.08-1.51,7.46-5.1.69,9-3.29-1.56-6.27,12.88-2.92-7.94-8.05,2.69c.71-1.48,1.36-2.83,2-4.18,3-6.2,6-12.41,9-18.63a3,3,0,0,0,.07-1.27,4.15,4.15,0,0,0-1.85-3.29c-1.78-1.44-1.71-1.05-1.08-3.32a4.91,4.91,0,0,0-.39-3.77c-1.07-2.12-1.17-1.62.38-3.52a4.87,4.87,0,0,0,1.15-3.56c-.13-2.42-.27-1.93,1.76-3.1l1.51-.85c-1.45-1.9-1.6-3.86-.23-5.36a10.13,10.13,0,0,1,2.22-1.45h1.54a4.42,4.42,0,0,1,2.76,2.16l2.4-2.16h.7l3.06,1.1a.5.5,0,0,0,.34,0l3-1.11Zm9.94,11.82a6.53,6.53,0,0,1,0-.9,1.29,1.29,0,0,0-1-1.65,4.93,4.93,0,0,1-3.2-3.71,1,1,0,0,0-1.17-.81,5,5,0,0,1-4.51-1.93c-.1-.13-.26-.21-.35-.34a.72.72,0,0,0-1-.19,14.92,14.92,0,0,1-2.05.68,3.42,3.42,0,0,1-1.46,0c-.75-.17-1.45-.51-2.19-.71a1,1,0,0,0-.77.16c-.71.6-1.38,1.25-2.06,1.89a1.18,1.18,0,0,0-.28.45,3.89,3.89,0,0,1-4.22,3.08,1,1,0,0,0-.53,0c-.94.55-1.85,1.14-2.8,1.68-.33.19-.48.37-.42.76a5.81,5.81,0,0,1-1.74,5.43.66.66,0,0,0-.1.93,5.73,5.73,0,0,1,.6,5.61.69.69,0,0,0,.3.95,5.59,5.59,0,0,1,2.79,4.81.79.79,0,0,0,.76.83,5.49,5.49,0,0,1,4.41,3.17.8.8,0,0,0,1.06.5,5.56,5.56,0,0,1,5.38,1.16.75.75,0,0,0,1.06,0,5.34,5.34,0,0,1,5.17-1.18h.14a.86.86,0,0,0,1.16-.54,5.33,5.33,0,0,1,4.24-3.09.93.93,0,0,0,.91-1,5.15,5.15,0,0,1,2.52-4.44,1.11,1.11,0,0,0,.49-1.53,4.8,4.8,0,0,1,.46-4.81c.49-.7.29-1.21-.21-1.82C190,265.26,188.94,264.24,189.45,262.82ZM191,298.13l5.42,1.8-8.82-18.17c-2.2.5-2.2.5-3.42,2.23-.24.35-.5.67-.72,1a1.21,1.21,0,0,1-1.35.63c-.53-.08-1.07-.12-1.73-.19,2.91,6.06,5.74,12,8.65,18.05ZM165.63,253a2,2,0,1,0,2,2A2,2,0,0,0,165.63,253Z"/><path class="cls-4" d="M175.5,281.06a12,12,0,1,1,12-11.83A12,12,0,0,1,175.5,281.06Zm0-22a10,10,0,1,0,10,10A10,10,0,0,0,175.49,259.08Z"/><path class="cls-4" d="M169.5,268.61l3.59,3.63,8.54-8.54,1.29,1.51L173.31,275l-5.1-5.1Z"/><path class="cls-4" d="M58.21,125a4.34,4.34,0,0,1,3,2.68c.06.15.47.22.72.22,5.15,0,10.29,0,15.43,0h1l-1.52,9.65h4.79c-.59,3.73-1.17,7.35-1.76,11.06h5.3c-.19,1.21-.36,2.32-.54,3.44q-1.89,11.85-3.79,23.69c-.28,1.75-.55,3.51-.86,5.25,0,.19-.27.49-.42.49-1.54,0-3.07,0-4.64,0v-1.87h3.36c1.55-9.7,3.1-19.35,4.65-29.07H44.23l4.64,29H62.13v-3.4l7.62,4.39c-.23.15-.39.27-.56.37l-6.27,3.63a6.14,6.14,0,0,0-.59.45h-.14v-3.46H47.29c-.06-.28-.12-.51-.16-.74-.31-1.91-.6-3.83-.91-5.75l-3.51-21.86c-.21-1.3-.47-2.58-.71-3.88v-.71h5.29l-1.76-11h4.79l-1.53-9.65h.85c1.21,0,2.42,0,3.62,0,.22,0,.56-.14.62-.3a4.19,4.19,0,0,1,3-2.6ZM47.77,139.53l1.45,9a1.8,1.8,0,0,0,.27.07H77.42c.4,0,.51-.16.56-.53.15-1.06.34-2.11.5-3.16.29-1.79.57-3.58.86-5.41Zm28.31-9.63a.62.62,0,0,0-.18-.07c-4.76,0-9.52,0-14.28,0a.67.67,0,0,0-.5.35,3.85,3.85,0,0,1-7.19,0,.66.66,0,0,0-.42-.37c-.8,0-1.6,0-2.48,0l1.24,7.77H73.9a1.38,1.38,0,0,0,.5,0c.19-.09.47-.25.5-.42C75.31,134.74,75.69,132.31,76.08,129.9Zm-20.47-1a1.93,1.93,0,0,0,1.89,1.9,2,2,0,0,0,2-1.93,2.06,2.06,0,0,0-2-1.95A2,2,0,0,0,55.61,128.88Z"/></svg>