<svg id="Layer_1" data-name="Layer 1" xmlns="http://www.w3.org/2000/svg" viewBox="0 0 698 563"><defs><style>.cls-1{fill:#92d1ff}.cls-3{fill:#061838}.cls-4{fill:none;stroke:#061838;stroke-miterlimit:10;stroke-width:3px}</style></defs><path class="cls-1" d="M-.24-.12h698v197.16h-698z"/><path fill="#bee3ff" d="M-.24 204.07h698v176h-698z"/><path class="cls-1" d="M-.24 387.11h698v176h-698z"/><path class="cls-3" d="M48.46 134.06a11.48 11.48 0 0 0 5.54 1.45c2.68 0 4.17-1.25 4.17-3.11s-1.15-2.74-4.06-3.79c-3.76-1.35-6.16-3.35-6.16-6.63 0-3.73 3.11-6.57 8-6.57a12 12 0 0 1 5.48 1.15l-1 3.35a9.69 9.69 0 0 0-4.54-1.08c-2.64 0-3.79 1.42-3.79 2.74 0 1.76 1.32 2.57 4.37 3.76 4 1.49 5.89 3.48 5.89 6.77 0 3.65-2.78 6.83-8.67 6.83a13.49 13.49 0 0 1-6.16-1.42zM66 127c0-1.9 0-3.49-.14-4.91h3.59l.17 2.44h.1a5.69 5.69 0 0 1 5.08-2.81 4.76 4.76 0 0 1 4.57 3.05h.06a6.38 6.38 0 0 1 2-2.07 5.56 5.56 0 0 1 3.32-1c2.74 0 5.52 1.86 5.52 7.14v9.71H86.2v-9.1c0-2.74-1-4.37-3-4.37a3.18 3.18 0 0 0-2.91 2.2 6.13 6.13 0 0 0-.2 1.39v9.88h-4.01v-9.54c0-2.3-.92-3.93-2.85-3.93a3.25 3.25 0 0 0-3 2.37 3.57 3.57 0 0 0-.24 1.36v9.74H66zM103.94 138.59l-.27-1.82h-.11a6.13 6.13 0 0 1-4.87 2.2 4.9 4.9 0 0 1-5.18-4.91c0-4.16 3.69-6.26 9.78-6.23v-.27c0-1.08-.44-2.88-3.35-2.88a8.75 8.75 0 0 0-4.43 1.22l-.81-2.7a11.8 11.8 0 0 1 6-1.46c5.28 0 6.81 3.35 6.81 6.94v5.95a26.38 26.38 0 0 0 .23 4zm-.54-8.05c-3-.07-5.76.57-5.76 3.08A2.19 2.19 0 0 0 100 136a3.36 3.36 0 0 0 3.25-2.27 3 3 0 0 0 .14-.91zM111.86 127.43c0-2.24 0-3.83-.14-5.32h3.63l.13 3.15h.14a4.91 4.91 0 0 1 4.5-3.52 4.28 4.28 0 0 1 1 .1v3.93a5.62 5.62 0 0 0-1.22-.14 3.67 3.67 0 0 0-3.72 3.15 6.88 6.88 0 0 0-.14 1.29v8.52h-4.16zM129.46 117.41v4.7h4v3.12h-4v7.27c0 2 .54 3.05 2.13 3.05a6.34 6.34 0 0 0 1.63-.2l.07 3.18a9.43 9.43 0 0 1-3 .4 4.81 4.81 0 0 1-3.58-1.35c-.88-1-1.29-2.44-1.29-4.6v-7.75H123v-3.12h2.37v-3.72zM32.36 168.62a9.23 9.23 0 0 0 4.23 1.19c1.83 0 2.64-.75 2.64-1.83s-.68-1.69-2.71-2.4c-3.21-1.12-4.57-2.88-4.53-4.81 0-2.91 2.4-5.18 6.22-5.18a9.67 9.67 0 0 1 4.37 1l-.81 3a7.35 7.35 0 0 0-3.49-1c-1.49 0-2.3.71-2.3 1.73s.78 1.55 2.88 2.3c3 1.08 4.36 2.6 4.4 5 0 3-2.34 5.14-6.7 5.14a10.6 10.6 0 0 1-5-1.15zM62.35 164.05c0 6.06-4.27 8.77-8.46 8.77-4.67 0-8.26-3.22-8.26-8.5s3.55-8.73 8.53-8.73 8.19 3.41 8.19 8.46zm-12.42.17c0 3.18 1.55 5.59 4.09 5.59 2.37 0 4-2.34 4-5.66 0-2.57-1.15-5.51-4-5.51s-4.09 2.84-4.09 5.58zM80.53 167.5c0 2 .06 3.59.13 4.95H77l-.21-2.51h-.06a6 6 0 0 1-5.28 2.88c-3 0-5.76-1.8-5.76-7.18V156h4.17v9c0 2.74.88 4.5 3.08 4.5a3.51 3.51 0 0 0 3.18-2.23 3.9 3.9 0 0 0 .23-1.29V156h4.17zM85 161.28c0-2.24 0-3.83-.13-5.32h3.62l.13 3.15h.14a4.92 4.92 0 0 1 4.5-3.52 4.84 4.84 0 0 1 1 .1v3.93a5.62 5.62 0 0 0-1.22-.14 3.67 3.67 0 0 0-3.72 3.15 6.88 6.88 0 0 0-.14 1.29v8.53H85zM108.89 171.94a12.16 12.16 0 0 1-4.67.84c-5.14 0-8.49-3.28-8.49-8.39 0-4.94 3.38-8.8 9.17-8.8a10.42 10.42 0 0 1 4 .78l-.75 3.11a7.38 7.38 0 0 0-3.14-.64c-3.19 0-5.08 2.34-5.05 5.35 0 3.38 2.2 5.31 5.05 5.31a8.12 8.12 0 0 0 3.28-.64zM116.41 151.36a2.34 2.34 0 0 1-4.67 0 2.34 2.34 0 0 1 4.67 0zM112 172.45V156h4.19v16.49zM120.64 160.87c0-1.89 0-3.49-.13-4.91h3.65l.2 2.47h.11a5.94 5.94 0 0 1 5.24-2.84c2.88 0 5.86 1.86 5.86 7.07v9.79h-4.17v-9.31c0-2.37-.88-4.16-3.14-4.16a3.49 3.49 0 0 0-3.25 2.43 4.12 4.12 0 0 0-.17 1.36v9.68h-4.2zM155.07 156c-.07 1.12-.14 2.47-.14 4.74V170c0 3.45-.71 5.93-2.44 7.48a9.48 9.48 0 0 1-6.36 2 11.64 11.64 0 0 1-5.75-1.32l.91-3.15a10 10 0 0 0 4.81 1.25c2.7 0 4.73-1.42 4.73-5v-1.42h-.06a5.58 5.58 0 0 1-4.81 2.43c-4.09 0-7-3.38-7-8.05 0-5.42 3.52-8.7 7.48-8.7a5.2 5.2 0 0 1 4.77 2.57h.07l.16-2.2zm-4.3 6.6a4 4 0 0 0-.14-1.11 3.45 3.45 0 0 0-3.38-2.68c-2.34 0-4.06 2-4.06 5.38 0 2.81 1.42 5.08 4 5.08a3.56 3.56 0 0 0 3.39-2.5 7.31 7.31 0 0 0 .17-1.49zM34 522.79l-2 6.47h-4.24l7.31-22.81h5.31l7.41 22.81h-4.46l-2.07-6.47zm6.53-3.14L38.76 514c-.44-1.39-.82-2.95-1.15-4.27h-.07c-.34 1.32-.68 2.91-1.09 4.27l-1.76 5.62zM50.64 517.68c0-1.89 0-3.48-.14-4.91h3.66l.2 2.48h.1a6 6 0 0 1 5.25-2.85c2.88 0 5.86 1.86 5.86 7.08v9.78H61.4V520c0-2.37-.88-4.16-3.15-4.16a3.49 3.49 0 0 0-3.25 2.38 4.16 4.16 0 0 0-.17 1.36v9.68h-4.2zM79.28 529.26l-.28-1.83h-.1a6.1 6.1 0 0 1-4.87 2.2 4.89 4.89 0 0 1-5.18-4.91c0-4.16 3.69-6.26 9.78-6.23v-.27c0-1.08-.44-2.87-3.35-2.87a8.62 8.62 0 0 0-4.43 1.22l-.85-2.71a11.77 11.77 0 0 1 6-1.46c5.28 0 6.8 3.35 6.8 6.94v6a26.32 26.32 0 0 0 .24 4zm-.55-8.06c-2.94-.07-5.75.58-5.75 3.08a2.18 2.18 0 0 0 2.37 2.37 3.36 3.36 0 0 0 3.25-2.27 3 3 0 0 0 .13-.91zM87.2 505.23h4.2v24h-4.2zM98.5 512.77l3 8.84c.34 1 .68 2.27.92 3.21h.1c.27-.94.57-2.16.88-3.25l2.57-8.8h4.47L106.29 524c-2.27 6.16-3.79 8.9-5.76 10.59a8.37 8.37 0 0 1-4.36 2.14l-1-3.52a7.44 7.44 0 0 0 4.7-3.76 1.68 1.68 0 0 0 .28-.74 1.86 1.86 0 0 0-.24-.82l-6-15.13zM117.6 508.07v4.7h4v3.12h-4v7.28c0 2 .54 3 2.13 3a6.19 6.19 0 0 0 1.62-.2l.07 3.18a9 9 0 0 1-3 .41 4.8 4.8 0 0 1-3.59-1.36c-.88-1-1.29-2.44-1.29-4.6v-7.75h-2.36v-3.12h2.36v-3.72zM129.14 508.17a2.34 2.34 0 1 1-2.34-2.27 2.21 2.21 0 0 1 2.34 2.27zm-4.43 21.09v-16.49h4.19v16.49zM145.49 528.75a12 12 0 0 1-4.67.85c-5.15 0-8.5-3.29-8.5-8.4 0-4.94 3.39-8.8 9.17-8.8a10.38 10.38 0 0 1 4 .78l-.74 3.11a7.43 7.43 0 0 0-3.15-.64c-3.18 0-5.08 2.34-5 5.35 0 3.38 2.2 5.31 5 5.31a8.12 8.12 0 0 0 3.28-.64zM148.37 525.43a9.2 9.2 0 0 0 4.23 1.19c1.82 0 2.64-.75 2.64-1.83s-.68-1.69-2.71-2.4c-3.22-1.12-4.57-2.88-4.54-4.81 0-2.91 2.41-5.18 6.23-5.18a9.8 9.8 0 0 1 4.37 1l-.81 3a7.42 7.42 0 0 0-3.49-1c-1.49 0-2.3.71-2.3 1.73s.78 1.55 2.87 2.3c3 1.08 4.37 2.6 4.4 5 0 3-2.33 5.15-6.7 5.15a10.62 10.62 0 0 1-5-1.16zM50.57 325.86a35.92 35.92 0 0 1 6.36-.48c3 0 5.28.65 6.73 1.86a6.45 6.45 0 0 1 2.24 5.05 6.92 6.92 0 0 1-2 5.18c-1.65 1.65-4.26 2.43-7.2 2.43a12.11 12.11 0 0 1-2-.13v8.59h-4.13zm4.12 10.62a8.24 8.24 0 0 0 2 .17c3.11 0 5-1.52 5-4.19s-1.76-3.9-4.63-3.9a11.56 11.56 0 0 0-2.41.21zM68.91 337.19c0-2.23 0-3.82-.13-5.31h3.62l.13 3.15h.14a4.91 4.91 0 0 1 4.5-3.52 4.22 4.22 0 0 1 1 .1v3.93a5.62 5.62 0 0 0-1.22-.14 3.67 3.67 0 0 0-3.72 3.15 6.91 6.91 0 0 0-.13 1.28v8.53h-4.19zM85.4 327.28a2.21 2.21 0 0 1-2.4 2.23 2.18 2.18 0 0 1-2.3-2.23 2.34 2.34 0 0 1 4.67 0zM81 348.36v-16.48h4.2v16.48zM101.75 347.86a12.2 12.2 0 0 1-4.67.84c-5.15 0-8.5-3.28-8.5-8.39 0-4.94 3.39-8.8 9.17-8.8a10.42 10.42 0 0 1 4 .78l-.75 3.11a7.34 7.34 0 0 0-3.14-.64c-3.18 0-5.08 2.33-5 5.35 0 3.38 2.19 5.31 5 5.31a8.29 8.29 0 0 0 3.28-.64zM109.26 327.28a2.34 2.34 0 0 1-4.67 0 2.34 2.34 0 0 1 4.67 0zm-4.43 21.08v-16.48H109v16.48zM113.49 336.79c0-1.9 0-3.49-.13-4.91H117l.21 2.47h.1a5.94 5.94 0 0 1 5.24-2.84c2.88 0 5.86 1.86 5.86 7.07v9.78h-4.16v-9.3c0-2.37-.88-4.17-3.15-4.17a3.5 3.5 0 0 0-3.25 2.44 4.1 4.1 0 0 0-.17 1.35v9.68h-4.2zM147.92 331.88c-.07 1.12-.14 2.47-.14 4.74V346c0 3.45-.71 5.92-2.44 7.48a9.48 9.48 0 0 1-6.36 2 11.64 11.64 0 0 1-5.75-1.32l.91-3.15a10 10 0 0 0 4.81 1.25c2.71 0 4.74-1.42 4.74-5v-1.42h-.07a5.58 5.58 0 0 1-4.81 2.43c-4.09 0-7-3.38-7-8.05 0-5.42 3.52-8.7 7.48-8.7a5.2 5.2 0 0 1 4.77 2.57h.07l.17-2.2zm-4.3 6.6a4.14 4.14 0 0 0-.14-1.12 3.45 3.45 0 0 0-3.38-2.67c-2.34 0-4.06 2-4.06 5.38 0 2.81 1.42 5.08 4 5.08a3.56 3.56 0 0 0 3.39-2.51 7.23 7.23 0 0 0 .17-1.49zM221.15 35.81a26.59 26.59 0 0 1 4.24-.33 7 7 0 0 1 4.8 1.42 4.62 4.62 0 0 1 1.5 3.58 5.06 5.06 0 0 1-1.32 3.66 7.07 7.07 0 0 1-5.23 1.86 8 8 0 0 1-1.78-.15v6.85h-2.21zm2.21 8.25a7.24 7.24 0 0 0 1.83.18c2.67 0 4.29-1.29 4.29-3.65s-1.6-3.36-4-3.36a9.33 9.33 0 0 0-2.08.18zM234.18 44.27c0-1.45 0-2.69-.1-3.84H236l.08 2.42h.1a3.69 3.69 0 0 1 3.4-2.7 2.55 2.55 0 0 1 .64.08v2.11a3.44 3.44 0 0 0-.77-.08 3.13 3.13 0 0 0-3 2.87 6.44 6.44 0 0 0-.1 1v6.55h-2.21zM253.35 46.48c0 4.54-3.15 6.52-6.12 6.52-3.33 0-5.89-2.44-5.89-6.32 0-4.11 2.69-6.53 6.09-6.53s5.92 2.57 5.92 6.33zm-9.75.12c0 2.7 1.54 4.73 3.73 4.73s3.73-2 3.73-4.78c0-2.08-1-4.72-3.68-4.72s-3.78 2.44-3.78 4.77zM264.92 52.27a8.3 8.3 0 0 1-3.53.71c-3.7 0-6.12-2.52-6.12-6.27a6.25 6.25 0 0 1 6.61-6.53 7.52 7.52 0 0 1 3.09.63l-.5 1.73a5.29 5.29 0 0 0-2.59-.58c-2.82 0-4.35 2.08-4.35 4.64 0 2.85 1.83 4.6 4.27 4.6a6.31 6.31 0 0 0 2.74-.61zM268.63 47c.05 3 2 4.27 4.21 4.27a8.22 8.22 0 0 0 3.41-.63l.38 1.6a10.06 10.06 0 0 1-4.09.76c-3.78 0-6-2.49-6-6.2s2.18-6.63 5.76-6.63c4 0 5.08 3.53 5.08 5.79a7.3 7.3 0 0 1-.08 1zm6.55-1.59c0-1.43-.58-3.64-3.1-3.64-2.26 0-3.25 2.09-3.42 3.64zM279.8 50.44a5.88 5.88 0 0 0 2.95.89c1.62 0 2.38-.82 2.38-1.83s-.63-1.65-2.28-2.26c-2.21-.79-3.25-2-3.25-3.48 0-2 1.6-3.61 4.24-3.61a6.11 6.11 0 0 1 3 .77l-.56 1.62a4.81 4.81 0 0 0-2.51-.71c-1.32 0-2.06.76-2.06 1.68s.74 1.47 2.34 2.08c2.13.81 3.22 1.88 3.22 3.71 0 2.15-1.67 3.68-4.59 3.68a7 7 0 0 1-3.46-.84zM289.85 50.44a5.88 5.88 0 0 0 2.95.89c1.62 0 2.39-.82 2.39-1.83s-.64-1.65-2.29-2.26c-2.21-.79-3.25-2-3.25-3.48 0-2 1.6-3.61 4.24-3.61a6 6 0 0 1 3 .77l-.56 1.62a4.81 4.81 0 0 0-2.51-.71c-1.32 0-2.06.76-2.06 1.68s.74 1.47 2.34 2.08c2.13.81 3.22 1.88 3.22 3.71 0 2.15-1.67 3.68-4.59 3.68a7 7 0 0 1-3.45-.84zM312.4 52.72l-.18-1.55h-.07a4.58 4.58 0 0 1-3.76 1.83 3.5 3.5 0 0 1-3.76-3.53c0-3 2.64-4.59 7.39-4.57v-.25a2.53 2.53 0 0 0-2.79-2.84 6.08 6.08 0 0 0-3.2.91l-.51-1.47a7.62 7.62 0 0 1 4-1.1c3.75 0 4.67 2.57 4.67 5v4.6a17.49 17.49 0 0 0 .2 2.94zm-.33-6.27c-2.44-.05-5.21.38-5.21 2.77a2 2 0 0 0 2.14 2.13 3 3 0 0 0 3-2.05 2.28 2.28 0 0 0 .13-.72zM328.12 49.37c0 1.27 0 2.39.1 3.35h-2l-.13-2h-.05A4.63 4.63 0 0 1 322 53c-1.93 0-4.24-1.06-4.24-5.38v-7.19H320v6.81c0 2.33.71 3.91 2.74 3.91a3.24 3.24 0 0 0 2.95-2 3.45 3.45 0 0 0 .2-1.14v-7.58h2.24zM334.51 36.9v3.53h3.2v1.71h-3.2v6.62c0 1.53.43 2.39 1.68 2.39a5.27 5.27 0 0 0 1.29-.15l.1 1.67a5.37 5.37 0 0 1-2 .31 3.1 3.1 0 0 1-2.41-.94 4.57 4.57 0 0 1-.86-3.2v-6.7h-1.91v-1.71h1.91v-2.94zM351.19 46.48c0 4.52-3.19 6.52-6.12 6.52-3.32 0-5.89-2.44-5.89-6.32 0-4.11 2.7-6.53 6.1-6.53s5.91 2.57 5.91 6.33zm-9.75.12c0 2.7 1.55 4.73 3.74 4.73s3.73-2 3.73-4.78c0-2.08-1-4.72-3.68-4.72s-3.79 2.44-3.79 4.77zM354 43.76c0-1.27 0-2.31-.1-3.33h1.95l.11 2h.04a4.26 4.26 0 0 1 3.86-2.26 3.63 3.63 0 0 1 3.48 2.47h.05A5 5 0 0 1 364.8 41a4.2 4.2 0 0 1 2.72-.87c1.62 0 4 1.07 4 5.34v7.23h-2.19v-6.93c0-2.37-.86-3.79-2.66-3.79a2.89 2.89 0 0 0-2.64 2 3.51 3.51 0 0 0-.18 1.12v7.59h-2.15v-7.33c0-2-.86-3.38-2.56-3.38a3.06 3.06 0 0 0-2.77 2.24 3.24 3.24 0 0 0-.18 1.09v7.41H354zM382 52.72l-.18-1.55h-.07A4.58 4.58 0 0 1 378 53a3.5 3.5 0 0 1-3.76-3.53c0-3 2.64-4.59 7.39-4.57v-.25a2.53 2.53 0 0 0-2.79-2.84 6.08 6.08 0 0 0-3.2.91l-.51-1.47a7.62 7.62 0 0 1 4-1.1c3.75 0 4.67 2.57 4.67 5v4.6a17.49 17.49 0 0 0 .2 2.94zm-.33-6.27c-2.44-.05-5.21.38-5.21 2.77a2 2 0 0 0 2.11 2.13 3 3 0 0 0 3-2.05 2.28 2.28 0 0 0 .13-.72zM390 36.9v3.53h3.2v1.71H390v6.62c0 1.53.43 2.39 1.68 2.39A5.27 5.27 0 0 0 393 51l.1 1.67a5.37 5.37 0 0 1-2 .31 3.09 3.09 0 0 1-2.41-.94 4.57 4.57 0 0 1-.86-3.2v-6.7h-1.91v-1.71h1.91v-2.94zM398.21 37a1.31 1.31 0 0 1-1.42 1.37 1.33 1.33 0 0 1-1.35-1.37 1.37 1.37 0 0 1 1.4-1.4 1.33 1.33 0 0 1 1.37 1.4zm-2.49 15.74V40.43H398v12.29zM412.79 46.48c0 4.54-3.15 6.52-6.12 6.52-3.33 0-5.89-2.44-5.89-6.32 0-4.11 2.69-6.53 6.09-6.53s5.92 2.57 5.92 6.33zm-9.79.12c0 2.7 1.54 4.73 3.73 4.73s3.73-2 3.73-4.78c0-2.08-1-4.72-3.68-4.72S403 44.27 403 46.6zM415.6 43.76c0-1.27 0-2.31-.1-3.33h2l.13 2h.05a4.52 4.52 0 0 1 4.06-2.32c1.7 0 4.34 1 4.34 5.24v7.33h-2.23v-7.04c0-2-.74-3.63-2.84-3.63a3.17 3.17 0 0 0-3 2.28 3.26 3.26 0 0 0-.15 1v7.39h-2.26zM221.15 91h9.22v1.85h-7v5.69h6.48v1.83h-6.48v7.74h-2.21zM243.77 101.87c0 4.54-3.14 6.52-6.11 6.52-3.33 0-5.9-2.44-5.9-6.32 0-4.11 2.7-6.53 6.1-6.53s5.91 2.57 5.91 6.33zM234 102c0 2.69 1.55 4.73 3.74 4.73s3.73-2 3.73-4.78c0-2.08-1-4.72-3.68-4.72S234 99.66 234 102zM246.59 99.66c0-1.45 0-2.69-.1-3.84h2l.07 2.41h.1a3.69 3.69 0 0 1 3.34-2.69 2.41 2.41 0 0 1 .63.08v2.11a3.41 3.41 0 0 0-.76-.08 3.13 3.13 0 0 0-3 2.87 6.33 6.33 0 0 0-.1 1v6.55h-2.21zM255.88 102.37c.06 3 2 4.27 4.22 4.27a8 8 0 0 0 3.4-.64l.38 1.6a9.82 9.82 0 0 1-4.09.77c-3.78 0-6-2.49-6-6.2s2.19-6.63 5.77-6.63c4 0 5.07 3.53 5.07 5.79a9.75 9.75 0 0 1-.07 1zm6.56-1.6c0-1.42-.59-3.63-3.1-3.63-2.26 0-3.25 2.09-3.43 3.63zM276.12 107.65a8.11 8.11 0 0 1-3.53.72c-3.71 0-6.12-2.52-6.12-6.28a6.24 6.24 0 0 1 6.6-6.52 7.57 7.57 0 0 1 3.1.63l-.51 1.73a5.23 5.23 0 0 0-2.59-.58c-2.82 0-4.34 2.08-4.34 4.64 0 2.85 1.83 4.6 4.27 4.6a6.34 6.34 0 0 0 2.74-.61zM285.54 108.11l-.18-1.55h-.07a4.58 4.58 0 0 1-3.76 1.83 3.5 3.5 0 0 1-3.76-3.53c0-3 2.64-4.59 7.39-4.57V100a2.54 2.54 0 0 0-2.79-2.85 6.09 6.09 0 0 0-3.2.92l-.51-1.47a7.62 7.62 0 0 1 4-1.1c3.75 0 4.67 2.57 4.67 5v4.6a17.57 17.57 0 0 0 .2 2.94zm-.33-6.27c-2.44 0-5.21.38-5.21 2.77a2 2 0 0 0 2.11 2.13 3 3 0 0 0 3-2.06 2.17 2.17 0 0 0 .13-.71zM290.67 105.83a5.84 5.84 0 0 0 2.94.89c1.63 0 2.39-.82 2.39-1.83s-.64-1.65-2.29-2.26c-2.21-.79-3.25-2-3.25-3.48 0-2 1.6-3.61 4.24-3.61a6 6 0 0 1 3 .77l-.55 1.62a4.89 4.89 0 0 0-2.52-.71c-1.32 0-2 .76-2 1.68s.73 1.47 2.33 2.08c2.13.81 3.23 1.88 3.23 3.7 0 2.16-1.68 3.69-4.6 3.69a7 7 0 0 1-3.45-.84zM303.72 92.29v3.53h3.2v1.7h-3.2v6.63c0 1.52.43 2.39 1.67 2.39a5.29 5.29 0 0 0 1.3-.15l.1 1.67a5.41 5.41 0 0 1-2 .31 3.09 3.09 0 0 1-2.41-.94 4.54 4.54 0 0 1-.87-3.2v-6.71h-1.9v-1.7h1.9v-2.94zM311.92 92.37a1.39 1.39 0 0 1-2.77 0 1.36 1.36 0 0 1 1.39-1.4 1.33 1.33 0 0 1 1.38 1.4zm-2.49 15.74V95.82h2.23v12.29zM315.37 99.15c0-1.27 0-2.31-.1-3.33h2l.13 2h.05a4.53 4.53 0 0 1 4.06-2.31c1.7 0 4.34 1 4.34 5.23v7.34h-2.25V101c0-2-.74-3.63-2.85-3.63a3.17 3.17 0 0 0-3 2.28 3 3 0 0 0-.16 1v7.39h-2.23zM340.05 95.82c-.05.89-.1 1.88-.1 3.38v7.13c0 2.82-.56 4.55-1.76 5.62a6.54 6.54 0 0 1-4.47 1.47 7.91 7.91 0 0 1-4.08-1l.56-1.7a6.89 6.89 0 0 0 3.6 1c2.29 0 4-1.2 4-4.29V106h-.05a4.36 4.36 0 0 1-3.91 2.06c-3.05 0-5.23-2.59-5.23-6 0-4.17 2.72-6.53 5.54-6.53a4.08 4.08 0 0 1 3.83 2.14h.02l.1-1.86zm-2.31 4.85a3.17 3.17 0 0 0-.13-1 3.22 3.22 0 0 0-3.12-2.36c-2.14 0-3.66 1.8-3.66 4.64 0 2.41 1.22 4.42 3.63 4.42a3.26 3.26 0 0 0 3.1-2.29 3.78 3.78 0 0 0 .18-1.19zM355.84 108.11l-.18-1.55h-.08a4.54 4.54 0 0 1-3.75 1.83 3.5 3.5 0 0 1-3.76-3.53c0-3 2.64-4.59 7.39-4.57V100a2.54 2.54 0 0 0-2.8-2.85 6.14 6.14 0 0 0-3.2.92l-.5-1.47a7.61 7.61 0 0 1 4-1.1c3.76 0 4.68 2.57 4.68 5v4.6a17.57 17.57 0 0 0 .2 2.94zm-.33-6.27c-2.44 0-5.21.38-5.21 2.77a2 2 0 0 0 2.11 2.13 3 3 0 0 0 3-2.06 2.17 2.17 0 0 0 .13-.71zM361.27 99.15c0-1.27 0-2.31-.1-3.33h2l.13 2h.05a4.53 4.53 0 0 1 4.06-2.31c1.7 0 4.34 1 4.34 5.23v7.34h-2.25V101c0-2-.74-3.63-2.85-3.63a3.17 3.17 0 0 0-3 2.28 3 3 0 0 0-.16 1v7.39h-2.23zM386 90.08v14.86c0 1.09 0 2.33.11 3.17h-2L384 106h-.05a4.56 4.56 0 0 1-4.19 2.41c-3 0-5.26-2.51-5.26-6.24 0-4.09 2.52-6.61 5.51-6.61a4.12 4.12 0 0 1 3.71 1.88h.05v-7.36zm-2.23 10.74a4.2 4.2 0 0 0-.1-.93 3.28 3.28 0 0 0-3.23-2.59c-2.31 0-3.68 2-3.68 4.74 0 2.49 1.22 4.55 3.63 4.55a3.36 3.36 0 0 0 3.28-2.67 4.16 4.16 0 0 0 .1-1zM394.76 105.83a5.87 5.87 0 0 0 2.94.89c1.63 0 2.39-.82 2.39-1.83s-.63-1.65-2.29-2.26c-2.2-.79-3.25-2-3.25-3.48 0-2 1.6-3.61 4.24-3.61a6.12 6.12 0 0 1 3 .77l-.56 1.62a4.82 4.82 0 0 0-2.52-.71c-1.32 0-2.05.76-2.05 1.68s.73 1.47 2.33 2.08c2.14.81 3.23 1.88 3.23 3.7 0 2.16-1.68 3.69-4.6 3.69a7 7 0 0 1-3.45-.84zM413.88 107.65a8.15 8.15 0 0 1-3.53.72c-3.71 0-6.12-2.52-6.12-6.28a6.24 6.24 0 0 1 6.6-6.52 7.57 7.57 0 0 1 3.1.63l-.51 1.73a5.26 5.26 0 0 0-2.59-.58c-2.82 0-4.34 2.08-4.34 4.64 0 2.85 1.82 4.6 4.26 4.6a6.31 6.31 0 0 0 2.74-.61zM416.49 90.08h2.23v7.67h.06a4.1 4.1 0 0 1 1.6-1.57 4.59 4.59 0 0 1 2.28-.64c1.65 0 4.29 1 4.29 5.26v7.31h-2.23v-7.06c0-2-.74-3.65-2.85-3.65a3.2 3.2 0 0 0-3 2.23 2.68 2.68 0 0 0-.16 1.07v7.41h-2.23zM431.82 102.37c.06 3 2 4.27 4.22 4.27a8 8 0 0 0 3.4-.64l.38 1.6a9.82 9.82 0 0 1-4.09.77c-3.78 0-6-2.49-6-6.2s2.19-6.63 5.77-6.63c4 0 5.07 3.53 5.07 5.79a9.75 9.75 0 0 1-.07 1zm6.56-1.6c0-1.42-.59-3.63-3.1-3.63-2.26 0-3.25 2.09-3.43 3.63zM453.91 90.08v14.86c0 1.09 0 2.33.11 3.17h-2l-.1-2.13h-.05a4.56 4.56 0 0 1-4.19 2.41c-3 0-5.26-2.51-5.26-6.24 0-4.09 2.52-6.61 5.51-6.61a4.12 4.12 0 0 1 3.71 1.88h.05v-7.34zm-2.23 10.74a4.2 4.2 0 0 0-.1-.93 3.28 3.28 0 0 0-3.23-2.59c-2.31 0-3.68 2-3.68 4.74 0 2.49 1.22 4.55 3.63 4.55a3.36 3.36 0 0 0 3.28-2.67 4.16 4.16 0 0 0 .1-1zM467.9 104.76c0 1.27 0 2.39.1 3.35h-2l-.12-2a4.63 4.63 0 0 1-4.07 2.28c-1.93 0-4.24-1.07-4.24-5.38v-7.19h2.24v6.81c0 2.33.71 3.91 2.74 3.91a3.16 3.16 0 0 0 3.15-3.18v-7.54h2.23zM471.61 90.08h2.23v18h-2.23zM480.09 92.37a1.39 1.39 0 0 1-2.77 0 1.36 1.36 0 0 1 1.4-1.4 1.33 1.33 0 0 1 1.37 1.4zm-2.49 15.74V95.82h2.23v12.29zM483.54 99.15c0-1.27 0-2.31-.1-3.33h2l.13 2h.05a4.53 4.53 0 0 1 4.06-2.31c1.7 0 4.34 1 4.34 5.23v7.34h-2.23V101c0-2-.74-3.63-2.85-3.63a3.17 3.17 0 0 0-3 2.28 3.26 3.26 0 0 0-.15 1v7.39h-2.24zM508.22 95.82c-.05.89-.1 1.88-.1 3.38v7.13c0 2.82-.56 4.55-1.75 5.62a6.56 6.56 0 0 1-4.47 1.47 7.92 7.92 0 0 1-4.09-1l.56-1.7a6.89 6.89 0 0 0 3.6 1c2.29 0 4-1.2 4-4.29V106h-.05a4.36 4.36 0 0 1-3.91 2.06c-3 0-5.23-2.59-5.23-6 0-4.17 2.72-6.53 5.54-6.53a4.08 4.08 0 0 1 3.83 2.14h.05l.1-1.86zm-2.31 4.85a3.17 3.17 0 0 0-.13-1 3.21 3.21 0 0 0-3.12-2.36c-2.13 0-3.66 1.8-3.66 4.64 0 2.41 1.22 4.42 3.63 4.42a3.26 3.26 0 0 0 3.1-2.29 3.78 3.78 0 0 0 .18-1.19zM223.92 158.12l-1.78 5.38h-2.28l5.81-17.11h2.67l5.84 17.11h-2.36l-1.82-5.38zm5.61-1.73l-1.67-4.93c-.39-1.11-.64-2.13-.89-3.12h-.05c-.26 1-.54 2.06-.87 3.1l-1.67 4.95zM246.92 145.47v14.86c0 1.09 0 2.33.1 3.17h-2l-.1-2.13a4.56 4.56 0 0 1-4.19 2.41c-3 0-5.26-2.51-5.26-6.25 0-4.08 2.51-6.6 5.51-6.6a4.12 4.12 0 0 1 3.71 1.88h.05v-7.34zm-2.23 10.74a4.29 4.29 0 0 0-.1-.94 3.29 3.29 0 0 0-3.23-2.59c-2.31 0-3.68 2-3.68 4.75 0 2.49 1.22 4.55 3.63 4.55a3.36 3.36 0 0 0 3.28-2.67 4.16 4.16 0 0 0 .1-1zM251.49 151.21l2.41 6.91a28.92 28.92 0 0 1 1 3.15h.1c.28-1 .64-2 1-3.15l2.39-6.91h2.33l-4.82 12.29h-2.13l-4.67-12.29zM269.54 163.5l-.17-1.55h-.08a4.58 4.58 0 0 1-3.76 1.83 3.5 3.5 0 0 1-3.76-3.53c0-3 2.65-4.6 7.39-4.57v-.25a2.54 2.54 0 0 0-2.79-2.85 6.11 6.11 0 0 0-3.2.92l-.51-1.48a7.65 7.65 0 0 1 4-1.09c3.76 0 4.67 2.57 4.67 5v4.59a16.55 16.55 0 0 0 .21 2.95zm-.33-6.27c-2.43 0-5.2.38-5.2 2.77a2 2 0 0 0 2.11 2.13 3.06 3.06 0 0 0 3-2.06 2.52 2.52 0 0 0 .12-.71zM275 154.54c0-1.27 0-2.31-.1-3.33h2l.12 2a4.52 4.52 0 0 1 4.07-2.31c1.7 0 4.34 1 4.34 5.23v7.34h-2.23v-7.08c0-2-.73-3.63-2.84-3.63a3.18 3.18 0 0 0-3 2.28 3.26 3.26 0 0 0-.15 1v7.39H275zM297.83 163a8.18 8.18 0 0 1-3.53.71c-3.71 0-6.12-2.51-6.12-6.27a6.24 6.24 0 0 1 6.6-6.52 7.57 7.57 0 0 1 3.1.63l-.51 1.73a5.1 5.1 0 0 0-2.59-.59c-2.82 0-4.34 2.09-4.34 4.65 0 2.84 1.83 4.6 4.26 4.6a6.39 6.39 0 0 0 2.75-.61zM301.53 157.76c.05 3 2 4.27 4.22 4.27a8 8 0 0 0 3.4-.64l.38 1.6a9.89 9.89 0 0 1-4.09.76c-3.78 0-6-2.48-6-6.19s2.18-6.63 5.76-6.63c4 0 5.08 3.53 5.08 5.79a10 10 0 0 1-.07 1zm6.55-1.6c0-1.42-.58-3.63-3.09-3.63-2.26 0-3.25 2.08-3.43 3.63zM323.62 145.47v14.86c0 1.09 0 2.33.1 3.17h-2l-.1-2.13h-.05a4.56 4.56 0 0 1-4.19 2.41c-3 0-5.26-2.51-5.26-6.25 0-4.08 2.51-6.6 5.51-6.6a4.12 4.12 0 0 1 3.71 1.88h.05v-7.34zm-2.23 10.74a4.29 4.29 0 0 0-.1-.94 3.29 3.29 0 0 0-3.23-2.59c-2.31 0-3.68 2-3.68 4.75 0 2.49 1.22 4.55 3.63 4.55a3.36 3.36 0 0 0 3.28-2.67 4.16 4.16 0 0 0 .1-1zM332.79 146.59a25.27 25.27 0 0 1 4.24-.33 7.07 7.07 0 0 1 4.8 1.42 4.63 4.63 0 0 1 1.49 3.58 5 5 0 0 1-1.32 3.66 7.11 7.11 0 0 1-5.23 1.88 7.32 7.32 0 0 1-1.77-.16v6.86h-2.21zm2.21 8.25a7.2 7.2 0 0 0 1.82.18c2.67 0 4.29-1.3 4.29-3.66s-1.6-3.35-4-3.35a9.27 9.27 0 0 0-2.08.18zM345.81 155c0-1.44 0-2.69-.1-3.83h2l.07 2.41h.1a3.69 3.69 0 0 1 3.41-2.69 2.41 2.41 0 0 1 .63.08v2.11a2.91 2.91 0 0 0-.76-.08 3.13 3.13 0 0 0-3 2.87 6.33 6.33 0 0 0-.1 1v6.55h-2.21zM365 157.25c0 4.55-3.15 6.53-6.12 6.53-3.32 0-5.89-2.44-5.89-6.32 0-4.12 2.69-6.53 6.09-6.53s5.92 2.57 5.92 6.32zm-9.75.13c0 2.69 1.55 4.72 3.73 4.72s3.74-2 3.74-4.77c0-2.08-1.05-4.72-3.69-4.72s-3.8 2.39-3.8 4.77zM378.41 145.47v14.86c0 1.09 0 2.33.1 3.17h-2l-.1-2.13h-.06a4.53 4.53 0 0 1-4.18 2.41c-3 0-5.26-2.51-5.26-6.25 0-4.08 2.51-6.6 5.51-6.6a4.12 4.12 0 0 1 3.71 1.88h.05v-7.34zm-2.23 10.74a4.29 4.29 0 0 0-.1-.94 3.29 3.29 0 0 0-3.23-2.59c-2.31 0-3.68 2-3.68 4.75 0 2.49 1.22 4.55 3.63 4.55a3.36 3.36 0 0 0 3.28-2.67 4.16 4.16 0 0 0 .1-1zM392.4 160.15c0 1.27 0 2.39.1 3.35h-2l-.13-2h-.05a4.62 4.62 0 0 1-4.06 2.29c-1.93 0-4.24-1.07-4.24-5.38v-7.19h2.24V158c0 2.33.71 3.91 2.74 3.91a3.22 3.22 0 0 0 2.94-2 3.17 3.17 0 0 0 .21-1.14v-7.54h2.23zM404.87 163a8.18 8.18 0 0 1-3.53.71c-3.71 0-6.12-2.51-6.12-6.27a6.24 6.24 0 0 1 6.6-6.52 7.57 7.57 0 0 1 3.1.63l-.51 1.73a5.1 5.1 0 0 0-2.59-.59c-2.82 0-4.34 2.09-4.34 4.65 0 2.84 1.83 4.6 4.26 4.6a6.39 6.39 0 0 0 2.75-.61zM410.5 147.68v3.53h3.2v1.7h-3.2v6.63c0 1.52.43 2.39 1.68 2.39a4.73 4.73 0 0 0 1.29-.16l.1 1.68a5.4 5.4 0 0 1-2 .3 3.09 3.09 0 0 1-2.41-.94 4.56 4.56 0 0 1-.86-3.19v-6.71h-1.91v-1.7h1.91v-2.94zM435.79 166c-2.31-.61-4.57-1.29-6.55-2a3.49 3.49 0 0 0-1-.25c-4.07-.15-7.54-3.15-7.54-8.66s3.35-9 8-9 7.67 3.6 7.67 8.66c0 4.39-2 7.21-4.88 8.2v.1c1.7.43 3.56.84 5 1.09zM434 154.87c0-3.43-1.78-7-5.41-7s-5.56 3.45-5.53 7.16 2 6.91 5.43 6.91 5.51-3.16 5.51-7.07zM449.45 160.15c0 1.27 0 2.39.1 3.35h-2l-.13-2h-.05a4.62 4.62 0 0 1-4.06 2.29c-1.93 0-4.24-1.07-4.24-5.38v-7.19h2.23V158c0 2.33.71 3.91 2.74 3.91a3.25 3.25 0 0 0 2.95-2 3.17 3.17 0 0 0 .2-1.14v-7.54h2.24zM460 163.5l-.18-1.55h-.08a4.54 4.54 0 0 1-3.75 1.83 3.5 3.5 0 0 1-3.76-3.53c0-3 2.64-4.6 7.39-4.57v-.25a2.54 2.54 0 0 0-2.8-2.85 6.14 6.14 0 0 0-3.2.92l-.5-1.48a7.58 7.58 0 0 1 4-1.09c3.76 0 4.68 2.57 4.68 5v4.59a17.62 17.62 0 0 0 .2 2.95zm-.33-6.27c-2.44 0-5.21.38-5.21 2.77a2 2 0 0 0 2.11 2.13 3.06 3.06 0 0 0 3-2.06 2.22 2.22 0 0 0 .13-.71zM465.39 145.47h2.23v18h-2.23zM473.87 147.76a1.39 1.39 0 0 1-2.77 0 1.37 1.37 0 0 1 1.4-1.4 1.33 1.33 0 0 1 1.37 1.4zm-2.49 15.74v-12.29h2.24v12.29zM480 147.68v3.53h3.2v1.7H480v6.63c0 1.52.43 2.39 1.68 2.39a4.73 4.73 0 0 0 1.29-.16l.1 1.68a5.4 5.4 0 0 1-2 .3 3.1 3.1 0 0 1-2.41-.94 4.56 4.56 0 0 1-.86-3.19v-6.71h-1.91v-1.7h1.91v-2.94zM486.77 151.21l2.69 7.26c.28.82.58 1.78.78 2.52h.05c.23-.74.49-1.68.79-2.57l2.44-7.21h2.36l-3.35 8.79c-1.6 4.22-2.69 6.37-4.22 7.69a6 6 0 0 1-2.74 1.45l-.56-1.88a5.92 5.92 0 0 0 2-1.09 6.8 6.8 0 0 0 1.88-2.49 1.63 1.63 0 0 0 .18-.53 2 2 0 0 0-.16-.58l-4.54-11.33zM503.37 146.59a25.36 25.36 0 0 1 4.24-.33 7.07 7.07 0 0 1 4.8 1.42 4.6 4.6 0 0 1 1.5 3.58 5.06 5.06 0 0 1-1.32 3.66 7.12 7.12 0 0 1-5.23 1.88 7.45 7.45 0 0 1-1.78-.16v6.86h-2.21zm2.21 8.25a7.24 7.24 0 0 0 1.83.18c2.66 0 4.29-1.3 4.29-3.66s-1.6-3.35-4-3.35a9.33 9.33 0 0 0-2.08.18zM516.67 145.47h2.24v18h-2.24zM529.47 163.5l-.18-1.55h-.08a4.54 4.54 0 0 1-3.75 1.83 3.5 3.5 0 0 1-3.76-3.53c0-3 2.64-4.6 7.39-4.57v-.25a2.54 2.54 0 0 0-2.8-2.85 6.08 6.08 0 0 0-3.19.92l-.51-1.48a7.62 7.62 0 0 1 4-1.09c3.75 0 4.67 2.57 4.67 5v4.59a17.62 17.62 0 0 0 .2 2.95zm-.33-6.27c-2.44 0-5.21.38-5.21 2.77a2 2 0 0 0 2.11 2.13 3.05 3.05 0 0 0 3-2.06 2.22 2.22 0 0 0 .13-.71zM534.9 154.54c0-1.27 0-2.31-.1-3.33h2l.13 2h.07a4.51 4.51 0 0 1 4.06-2.31c1.7 0 4.34 1 4.34 5.23v7.34h-2.23v-7.08c0-2-.74-3.63-2.85-3.63a3.17 3.17 0 0 0-3 2.28 3.26 3.26 0 0 0-.15 1v7.39h-2.27zM549 154.54c0-1.27 0-2.31-.1-3.33h2l.13 2a4.51 4.51 0 0 1 4.06-2.31c1.7 0 4.34 1 4.34 5.23v7.34h-2.23v-7.08c0-2-.74-3.63-2.84-3.63a3.17 3.17 0 0 0-3 2.28 3.26 3.26 0 0 0-.15 1v7.39H549zM565.57 147.76a1.31 1.31 0 0 1-1.42 1.37 1.33 1.33 0 0 1-1.35-1.37 1.37 1.37 0 0 1 1.4-1.4 1.33 1.33 0 0 1 1.37 1.4zm-2.49 15.74v-12.29h2.24v12.29zM569 154.54c0-1.27 0-2.31-.1-3.33h2l.13 2h.05a4.51 4.51 0 0 1 4.06-2.31c1.7 0 4.34 1 4.34 5.23v7.34h-2.23v-7.08c0-2-.74-3.63-2.84-3.63a3.17 3.17 0 0 0-3 2.28 3.26 3.26 0 0 0-.15 1v7.39H569zM593.7 151.21c-.05.89-.1 1.88-.1 3.38v7.13c0 2.82-.56 4.55-1.75 5.61a6.5 6.5 0 0 1-4.47 1.48 8 8 0 0 1-4.09-1l.56-1.7a6.9 6.9 0 0 0 3.61 1c2.28 0 4-1.19 4-4.29v-1.37a4.38 4.38 0 0 1-3.91 2.06c-3.05 0-5.23-2.59-5.23-6 0-4.17 2.71-6.53 5.53-6.53a4.09 4.09 0 0 1 3.83 2.13h.06l.1-1.85zm-2.31 4.85a3 3 0 0 0-.13-1 3.21 3.21 0 0 0-3.12-2.36c-2.13 0-3.65 1.81-3.65 4.65 0 2.41 1.21 4.42 3.63 4.42a3.26 3.26 0 0 0 3.09-2.29 3.78 3.78 0 0 0 .18-1.19zM607.54 145.88a16.7 16.7 0 0 0-3.2 10.38 17.14 17.14 0 0 0 3.2 10.31h-1.75a16.42 16.42 0 0 1-3.33-10.31 16.77 16.77 0 0 1 3.33-10.38zM612.46 158.12l-1.77 5.38h-2.29l5.81-17.11h2.67l5.84 17.11h-2.36l-1.83-5.38zm5.61-1.73l-1.67-4.93c-.38-1.11-.64-2.13-.89-3.12-.25 1-.53 2.06-.86 3.1l-1.68 4.95zM625.23 146.59a25.46 25.46 0 0 1 4.24-.33 7 7 0 0 1 4.8 1.42 4.6 4.6 0 0 1 1.5 3.58 5.06 5.06 0 0 1-1.32 3.66 7.11 7.11 0 0 1-5.23 1.88 7.45 7.45 0 0 1-1.78-.16v6.86h-2.21zm2.21 8.25a7.24 7.24 0 0 0 1.83.18c2.67 0 4.29-1.3 4.29-3.66s-1.6-3.35-4-3.35a9.33 9.33 0 0 0-2.08.18zM652.86 166c-2.31-.61-4.57-1.29-6.55-2a3.49 3.49 0 0 0-1-.25c-4.07-.15-7.55-3.15-7.55-8.66s3.36-9 8-9 7.67 3.6 7.67 8.66c0 4.39-2 7.21-4.88 8.2v.1c1.7.43 3.55.84 5 1.09zM651 154.87c0-3.43-1.78-7-5.41-7s-5.56 3.45-5.53 7.16 2 6.91 5.43 6.91 5.51-3.16 5.51-7.07zM656.23 146.59a25.46 25.46 0 0 1 4.24-.33 7 7 0 0 1 4.8 1.42 4.6 4.6 0 0 1 1.5 3.58 5.06 5.06 0 0 1-1.32 3.66 7.11 7.11 0 0 1-5.23 1.88 7.45 7.45 0 0 1-1.78-.16v6.86h-2.21zm2.21 8.25a7.24 7.24 0 0 0 1.83.18c2.67 0 4.29-1.3 4.29-3.66s-1.6-3.35-4-3.35a9.33 9.33 0 0 0-2.08.18zM668.32 166.57a17.18 17.18 0 0 0 3.2-10.38 16.8 16.8 0 0 0-3.2-10.31H670a16.13 16.13 0 0 1 3.33 10.33 16.45 16.45 0 0 1-3.33 10.36z"/><circle class="cls-4" cx="196.12" cy="45.88" r="4.5"/><circle class="cls-4" cx="196.12" cy="101.19" r="4.5"/><circle class="cls-4" cx="196.12" cy="156.51" r="4.5"/><path class="cls-3" d="M220.85 423a7.83 7.83 0 0 0 4 1.12c2.26 0 3.58-1.19 3.58-2.92s-.92-2.52-3.23-3.4c-2.79-1-4.52-2.44-4.52-4.85 0-2.67 2.21-4.65 5.54-4.65a7.78 7.78 0 0 1 3.78.84l-.61 1.8a6.88 6.88 0 0 0-3.25-.81c-2.33 0-3.22 1.39-3.22 2.56 0 1.6 1 2.39 3.4 3.3 2.9 1.12 4.37 2.52 4.37 5s-2 4.93-6 4.93a8.83 8.83 0 0 1-4.37-1.1zM243.88 422.37c0 1.27 0 2.39.1 3.35h-2l-.13-2h-.05a4.62 4.62 0 0 1-4.06 2.28c-1.93 0-4.24-1.06-4.24-5.38v-7.19h2.23v6.81c0 2.33.71 3.91 2.74 3.91a3.13 3.13 0 0 0 3.15-3.18v-7.54h2.24zM247.58 417.45c0-1.58-.05-2.85-.1-4h2l.1 2.11a4.83 4.83 0 0 1 4.37-2.39c3 0 5.2 2.52 5.2 6.25 0 4.42-2.69 6.6-5.58 6.6a4.32 4.32 0 0 1-3.79-1.93h-.05v6.68h-2.21zm2.21 3.27a5 5 0 0 0 .1.91 3.45 3.45 0 0 0 3.35 2.62c2.37 0 3.74-1.93 3.74-4.75 0-2.46-1.3-4.57-3.66-4.57a3.58 3.58 0 0 0-3.38 2.77 3.93 3.93 0 0 0-.15.91zM262 417.45c0-1.58 0-2.85-.1-4h2l.1 2.11h.05a4.85 4.85 0 0 1 4.37-2.39c3 0 5.21 2.52 5.21 6.25 0 4.42-2.7 6.6-5.59 6.6a4.3 4.3 0 0 1-3.78-1.93h-.05v6.68H262zm2.21 3.27a5 5 0 0 0 .1.91 3.44 3.44 0 0 0 3.35 2.62c2.36 0 3.73-1.93 3.73-4.75 0-2.46-1.29-4.57-3.65-4.57a3.56 3.56 0 0 0-3.38 2.77 3.47 3.47 0 0 0-.15.91zM276.47 407.7h2.24v18h-2.24zM285 410a1.31 1.31 0 0 1-1.42 1.37 1.33 1.33 0 0 1-1.35-1.37 1.37 1.37 0 0 1 1.4-1.4A1.33 1.33 0 0 1 285 410zm-2.49 15.74v-12.31h2.24v12.29zM289.65 420c.05 3 2 4.27 4.21 4.27a8.22 8.22 0 0 0 3.41-.63l.38 1.59a9.89 9.89 0 0 1-4.09.77c-3.78 0-6-2.49-6-6.2s2.18-6.63 5.76-6.63c4 0 5.08 3.53 5.08 5.79a7.3 7.3 0 0 1-.08 1zm6.55-1.6c0-1.42-.58-3.63-3.1-3.63-2.26 0-3.25 2.09-3.43 3.63zM301.12 417.27c0-1.45 0-2.69-.1-3.84h2l.07 2.42h.11a3.68 3.68 0 0 1 3.4-2.7 2.41 2.41 0 0 1 .63.08v2.11a3.34 3.34 0 0 0-.76-.08 3.15 3.15 0 0 0-3 2.87 6.44 6.44 0 0 0-.1 1v6.55h-2.21zM220.85 478.42a7.83 7.83 0 0 0 4 1.12c2.26 0 3.58-1.2 3.58-2.92s-.92-2.52-3.23-3.41c-2.79-1-4.52-2.43-4.52-4.84 0-2.67 2.21-4.65 5.54-4.65a7.78 7.78 0 0 1 3.78.84l-.61 1.8a6.76 6.76 0 0 0-3.25-.81c-2.33 0-3.22 1.39-3.22 2.56 0 1.6 1 2.39 3.4 3.3 2.9 1.12 4.37 2.52 4.37 5s-2 4.93-6 4.93a8.83 8.83 0 0 1-4.37-1.1zM243.88 477.76c0 1.27 0 2.39.1 3.35h-2l-.13-2h-.05a4.62 4.62 0 0 1-4.06 2.28c-1.93 0-4.24-1.07-4.24-5.38v-7.19h2.23v6.81c0 2.33.71 3.91 2.74 3.91a3.13 3.13 0 0 0 3.15-3.18v-7.54h2.24zM247.58 472.83c0-1.57-.05-2.84-.1-4h2l.1 2.11a4.83 4.83 0 0 1 4.37-2.39c3 0 5.2 2.52 5.2 6.25 0 4.42-2.69 6.6-5.58 6.6a4.32 4.32 0 0 1-3.79-1.93h-.05v6.68h-2.21zm2.21 3.28a5.07 5.07 0 0 0 .1.91 3.45 3.45 0 0 0 3.35 2.62c2.37 0 3.74-1.93 3.74-4.75 0-2.46-1.3-4.57-3.66-4.57a3.58 3.58 0 0 0-3.38 2.77 3.93 3.93 0 0 0-.15.91zM262 472.83c0-1.57 0-2.84-.1-4h2l.1 2.11h.05a4.85 4.85 0 0 1 4.37-2.39c3 0 5.21 2.52 5.21 6.25 0 4.42-2.7 6.6-5.59 6.6a4.3 4.3 0 0 1-3.78-1.93h-.05v6.68H262zm2.21 3.28a5.07 5.07 0 0 0 .1.91 3.44 3.44 0 0 0 3.35 2.62c2.36 0 3.73-1.93 3.73-4.75 0-2.46-1.29-4.57-3.65-4.57a3.56 3.56 0 0 0-3.38 2.77 3.47 3.47 0 0 0-.15.91zM276.47 463.08h2.24v18h-2.24zM283.28 468.82l2.69 7.26c.28.82.58 1.78.78 2.52h.06c.22-.74.48-1.68.78-2.57l2.44-7.21h2.36l-3.39 8.76c-1.6 4.22-2.69 6.38-4.21 7.7a6.1 6.1 0 0 1-2.75 1.44l-.56-1.88a5.74 5.74 0 0 0 2-1.09 6.72 6.72 0 0 0 1.88-2.49 1.56 1.56 0 0 0 .18-.53 1.75 1.75 0 0 0-.16-.58l-4.54-11.33zM308.56 480.65a8.11 8.11 0 0 1-3.53.72c-3.7 0-6.11-2.52-6.11-6.28a6.24 6.24 0 0 1 6.6-6.52 7.52 7.52 0 0 1 3.09.63l-.5 1.73a5.26 5.26 0 0 0-2.59-.58c-2.82 0-4.35 2.08-4.35 4.64 0 2.85 1.83 4.6 4.27 4.6a6.31 6.31 0 0 0 2.74-.61zM311.18 463.08h2.23v7.67a4.23 4.23 0 0 1 1.6-1.57 4.62 4.62 0 0 1 2.29-.64c1.65 0 4.29 1 4.29 5.26v7.31h-2.19v-7.06c0-2-.73-3.65-2.84-3.65a3.21 3.21 0 0 0-3 2.23 2.88 2.88 0 0 0-.15 1.07v7.41h-2.23zM332.07 481.11l-.17-1.55h-.08a4.58 4.58 0 0 1-3.76 1.83 3.5 3.5 0 0 1-3.76-3.53c0-3 2.64-4.59 7.39-4.57V473a2.54 2.54 0 0 0-2.79-2.85 6.11 6.11 0 0 0-3.2.92l-.51-1.48a7.65 7.65 0 0 1 4-1.09c3.76 0 4.67 2.57 4.67 5v4.6a17.57 17.57 0 0 0 .2 2.94zm-.33-6.27c-2.43 0-5.2.38-5.2 2.77a2 2 0 0 0 2.11 2.13 3.06 3.06 0 0 0 3-2.06 2.46 2.46 0 0 0 .12-.71zM340 465.37a1.31 1.31 0 0 1-1.42 1.37 1.33 1.33 0 0 1-1.34-1.37 1.36 1.36 0 0 1 1.39-1.4 1.33 1.33 0 0 1 1.37 1.4zm-2.48 15.74v-12.29h2.23v12.29zM343.45 472.15c0-1.27 0-2.31-.11-3.33h2l.12 2h.05a4.54 4.54 0 0 1 4.07-2.31c1.7 0 4.34 1 4.34 5.23v7.34h-2.24V474c0-2-.73-3.63-2.84-3.63a3.18 3.18 0 0 0-3 2.28 3.26 3.26 0 0 0-.15 1v7.39h-2.23zM221.15 519.59a25.46 25.46 0 0 1 4.24-.33 7 7 0 0 1 4.8 1.42 4.6 4.6 0 0 1 1.5 3.58 5.06 5.06 0 0 1-1.32 3.66 7.11 7.11 0 0 1-5.23 1.88 7.45 7.45 0 0 1-1.78-.16v6.86h-2.21zm2.21 8.25a7.24 7.24 0 0 0 1.83.18c2.67 0 4.29-1.3 4.29-3.66s-1.6-3.35-4-3.35a9.33 9.33 0 0 0-2.08.18zM234.18 528c0-1.44 0-2.69-.1-3.83H236l.08 2.41h.1a3.68 3.68 0 0 1 3.4-2.69 2.55 2.55 0 0 1 .64.08v2.1a3.49 3.49 0 0 0-.77-.07 3.13 3.13 0 0 0-3 2.87 6.33 6.33 0 0 0-.1 1v6.55h-2.21zM253.35 530.25c0 4.55-3.15 6.53-6.12 6.53-3.33 0-5.89-2.44-5.89-6.32 0-4.12 2.69-6.53 6.09-6.53s5.92 2.57 5.92 6.32zm-9.75.13c0 2.69 1.54 4.72 3.73 4.72s3.73-2 3.73-4.77c0-2.08-1-4.72-3.68-4.72s-3.78 2.39-3.78 4.77zM264.92 536a8.14 8.14 0 0 1-3.53.71c-3.7 0-6.12-2.51-6.12-6.27a6.24 6.24 0 0 1 6.61-6.52 7.52 7.52 0 0 1 3.09.63l-.5 1.73a5.16 5.16 0 0 0-2.59-.59c-2.82 0-4.35 2.09-4.35 4.65 0 2.84 1.83 4.6 4.27 4.6a6.31 6.31 0 0 0 2.74-.61zM277.82 533.15c0 1.27 0 2.38.1 3.35h-2l-.13-2h-.05a4.62 4.62 0 0 1-4.06 2.29c-1.93 0-4.24-1.07-4.24-5.38v-7.19h2.24V531c0 2.33.71 3.91 2.74 3.91a3.22 3.22 0 0 0 2.94-2 3.17 3.17 0 0 0 .21-1.14v-7.54h2.23zM281.53 528c0-1.44 0-2.69-.11-3.83h2l.08 2.41h.1a3.68 3.68 0 0 1 3.4-2.69 2.41 2.41 0 0 1 .63.08v2.1a3.33 3.33 0 0 0-.76-.07 3.13 3.13 0 0 0-3 2.87 6.33 6.33 0 0 0-.1 1v6.55h-2.21zM290.82 530.76c.05 3 2 4.27 4.21 4.27a8 8 0 0 0 3.41-.64l.38 1.6a9.93 9.93 0 0 1-4.09.76c-3.78 0-6-2.48-6-6.19s2.18-6.63 5.76-6.63c4 0 5.08 3.53 5.08 5.79a7.43 7.43 0 0 1-.08 1zm6.55-1.6c0-1.42-.58-3.63-3.1-3.63-2.26 0-3.25 2.08-3.43 3.63zM308.19 528.81v1.65h-6.28v-1.65zM313.49 520.68v3.53h3.2v1.7h-3.2v6.63c0 1.52.43 2.39 1.68 2.39a4.73 4.73 0 0 0 1.29-.16l.1 1.68a5.4 5.4 0 0 1-2 .3 3.09 3.09 0 0 1-2.41-.94 4.57 4.57 0 0 1-.86-3.2v-6.7h-1.89v-1.7h1.91v-2.94zM330.17 530.25c0 4.55-3.15 6.53-6.12 6.53-3.32 0-5.89-2.44-5.89-6.32 0-4.12 2.69-6.53 6.1-6.53s5.91 2.57 5.91 6.32zm-9.75.13c0 2.69 1.55 4.72 3.73 4.72s3.74-2 3.74-4.77c0-2.08-1-4.72-3.68-4.72s-3.79 2.39-3.79 4.77zM338.55 528.81v1.65h-6.27v-1.65zM341.16 528.22c0-1.57-.05-2.84-.1-4h2l.1 2.11h.05a4.83 4.83 0 0 1 4.37-2.39c3 0 5.2 2.51 5.2 6.25 0 4.42-2.69 6.6-5.58 6.6a4.32 4.32 0 0 1-3.79-1.93h-.05v6.68h-2.21zm2.21 3.28a5.07 5.07 0 0 0 .1.91 3.46 3.46 0 0 0 3.36 2.62c2.36 0 3.73-1.93 3.73-4.75 0-2.46-1.3-4.57-3.66-4.57a3.56 3.56 0 0 0-3.37 2.77 3.47 3.47 0 0 0-.16.91zM362.41 536.5l-.17-1.55h-.08a4.58 4.58 0 0 1-3.76 1.83 3.5 3.5 0 0 1-3.76-3.53c0-3 2.65-4.6 7.39-4.57v-.25a2.54 2.54 0 0 0-2.79-2.85 6.11 6.11 0 0 0-3.2.92l-.51-1.48a7.65 7.65 0 0 1 4-1.09c3.76 0 4.67 2.57 4.67 5v4.59a16.55 16.55 0 0 0 .21 3zm-.33-6.27c-2.43-.05-5.2.38-5.2 2.77a2 2 0 0 0 2.11 2.13 3.06 3.06 0 0 0 3-2.06 2.52 2.52 0 0 0 .12-.71zM368.46 524.21l2.69 7.26c.28.81.58 1.78.78 2.52h.07c.22-.74.48-1.68.78-2.57l2.44-7.21h2.36l-3.36 8.79c-1.6 4.22-2.69 6.37-4.22 7.69a6 6 0 0 1-2.74 1.45l-.56-1.88a5.92 5.92 0 0 0 2-1.09 6.8 6.8 0 0 0 1.88-2.49 1.63 1.63 0 0 0 .18-.53 1.79 1.79 0 0 0-.16-.59l-4.6-11.35z"/><circle class="cls-4" cx="196.12" cy="418.88" r="4.5"/><circle class="cls-4" cx="196.12" cy="474.19" r="4.5"/><circle class="cls-4" cx="196.12" cy="529.51" r="4.5"/><path class="cls-3" d="M221.15 223.84a22.9 22.9 0 0 1 4.24-.36c2.36 0 3.89.43 5 1.4a4.24 4.24 0 0 1 1.35 3.25 4.49 4.49 0 0 1-3.23 4.37v.07c1.33.46 2.11 1.68 2.52 3.46a27 27 0 0 0 1.32 4.69H230a21.84 21.84 0 0 1-1.14-4.08c-.51-2.37-1.42-3.25-3.43-3.33h-2.08v7.41h-2.21zm2.21 7.79h2.26c2.36 0 3.86-1.29 3.86-3.25 0-2.21-1.6-3.17-3.94-3.2a9.1 9.1 0 0 0-2.18.21zM241.84 240.72l-.17-1.55h-.08a4.56 4.56 0 0 1-3.76 1.83 3.49 3.49 0 0 1-3.75-3.53c0-3 2.64-4.59 7.38-4.57v-.25a2.53 2.53 0 0 0-2.79-2.84 6.11 6.11 0 0 0-3.2.91l-.51-1.47a7.65 7.65 0 0 1 4-1.1c3.76 0 4.67 2.57 4.67 5v4.6a16.44 16.44 0 0 0 .21 2.94zm-.33-6.27c-2.43 0-5.2.38-5.2 2.77a2 2 0 0 0 2.11 2.13 3.06 3.06 0 0 0 3-2 2.58 2.58 0 0 0 .12-.72zM249.87 224.9v3.53h3.2v1.71h-3.2v6.62c0 1.53.43 2.39 1.67 2.39a5.29 5.29 0 0 0 1.3-.15l.1 1.67a5.41 5.41 0 0 1-2 .31 3.09 3.09 0 0 1-2.41-.94 4.52 4.52 0 0 1-.87-3.2v-6.7h-1.9v-1.71h1.9v-2.94zM256.67 235c.05 3 2 4.27 4.22 4.27a8.17 8.17 0 0 0 3.4-.63l.38 1.6a10.06 10.06 0 0 1-4.09.76c-3.78 0-6-2.49-6-6.2s2.18-6.63 5.76-6.63c4 0 5.08 3.53 5.08 5.79a7.3 7.3 0 0 1-.08 1zm6.55-1.59c0-1.43-.58-3.64-3.1-3.64-2.26 0-3.25 2.09-3.42 3.64zM280.33 240.72l-.17-1.55h-.08a4.58 4.58 0 0 1-3.76 1.83 3.5 3.5 0 0 1-3.76-3.53c0-3 2.64-4.59 7.39-4.57v-.25a2.53 2.53 0 0 0-2.79-2.84 6.11 6.11 0 0 0-3.2.91l-.51-1.47a7.65 7.65 0 0 1 4-1.1c3.76 0 4.67 2.57 4.67 5v4.6a17.49 17.49 0 0 0 .2 2.94zm-.33-6.27c-2.43 0-5.2.38-5.2 2.77a2 2 0 0 0 2.11 2.13 3.07 3.07 0 0 0 3-2 2.58 2.58 0 0 0 .12-.72zM285.46 238.44a5.88 5.88 0 0 0 3 .89c1.62 0 2.38-.82 2.38-1.83s-.63-1.65-2.28-2.26c-2.21-.79-3.25-2-3.25-3.48 0-2 1.6-3.61 4.24-3.61a6.11 6.11 0 0 1 3 .77l-.56 1.62a4.81 4.81 0 0 0-2.51-.71c-1.32 0-2.06.76-2.06 1.68s.74 1.47 2.34 2.08c2.13.81 3.22 1.88 3.22 3.71 0 2.15-1.67 3.68-4.59 3.68a7 7 0 0 1-3.46-.84zM295.51 238.44a5.88 5.88 0 0 0 2.95.89c1.62 0 2.39-.82 2.39-1.83s-.64-1.65-2.29-2.26c-2.21-.79-3.25-2-3.25-3.48 0-2 1.6-3.61 4.24-3.61a6 6 0 0 1 3 .77l-.56 1.62a4.81 4.81 0 0 0-2.51-.71c-1.32 0-2.06.76-2.06 1.68s.74 1.47 2.34 2.08c2.13.81 3.22 1.88 3.22 3.71 0 2.15-1.67 3.68-4.59 3.68a7 7 0 0 1-3.45-.84zM307.12 235c.05 3 2 4.27 4.21 4.27a8.14 8.14 0 0 0 3.4-.63l.39 1.6a10.1 10.1 0 0 1-4.12.76c-3.79 0-6-2.49-6-6.2s2.19-6.63 5.77-6.63c4 0 5.08 3.53 5.08 5.79a7.3 7.3 0 0 1-.08 1zm6.55-1.59c0-1.43-.59-3.64-3.1-3.64-2.26 0-3.25 2.09-3.43 3.64zM318.29 238.44a5.87 5.87 0 0 0 2.94.89c1.63 0 2.39-.82 2.39-1.83s-.63-1.65-2.29-2.26c-2.2-.79-3.25-2-3.25-3.48 0-2 1.6-3.61 4.25-3.61a6.11 6.11 0 0 1 3 .77l-.56 1.62a4.82 4.82 0 0 0-2.52-.71c-1.32 0-2 .76-2 1.68s.73 1.47 2.33 2.08c2.14.81 3.23 1.88 3.23 3.71 0 2.15-1.68 3.68-4.6 3.68a7 7 0 0 1-3.45-.84zM328.34 238.44a5.88 5.88 0 0 0 3 .89c1.62 0 2.38-.82 2.38-1.83s-.63-1.65-2.28-2.26c-2.21-.79-3.25-2-3.25-3.48 0-2 1.6-3.61 4.24-3.61a6.11 6.11 0 0 1 3 .77l-.56 1.62a4.81 4.81 0 0 0-2.51-.71c-1.32 0-2.06.76-2.06 1.68s.74 1.47 2.34 2.08c2.13.81 3.22 1.88 3.22 3.71 0 2.15-1.67 3.68-4.59 3.68a7 7 0 0 1-3.46-.84zM338.7 231.76c0-1.27 0-2.31-.1-3.33h1.95l.11 2h.07a4.26 4.26 0 0 1 3.86-2.26 3.63 3.63 0 0 1 3.48 2.47h.05a5 5 0 0 1 1.37-1.6 4.2 4.2 0 0 1 2.72-.87c1.62 0 4 1.07 4 5.34v7.23h-2.19v-6.95c0-2.37-.86-3.79-2.66-3.79a2.91 2.91 0 0 0-2.65 2 3.82 3.82 0 0 0-.17 1.12v7.59h-2.19v-7.36c0-2-.86-3.38-2.56-3.38a3.06 3.06 0 0 0-2.77 2.24 3 3 0 0 0-.18 1.09v7.41h-2.14zM361.12 235c.05 3 2 4.27 4.21 4.27a8.22 8.22 0 0 0 3.41-.63l.38 1.6a10.1 10.1 0 0 1-4.12.76c-3.78 0-6-2.49-6-6.2s2.18-6.63 5.76-6.63c4 0 5.08 3.53 5.08 5.79a7.3 7.3 0 0 1-.08 1zm6.55-1.59c0-1.43-.59-3.64-3.1-3.64-2.26 0-3.25 2.09-3.43 3.64zM372.59 231.76c0-1.27 0-2.31-.1-3.33h2l.13 2a4.52 4.52 0 0 1 4.06-2.32c1.7 0 4.34 1 4.34 5.24v7.33h-2.23v-7.08c0-2-.74-3.63-2.84-3.63a3.17 3.17 0 0 0-3 2.28 3.26 3.26 0 0 0-.15 1v7.39h-2.24zM389.27 224.9v3.53h3.2v1.71h-3.2v6.62c0 1.53.44 2.39 1.68 2.39a5.36 5.36 0 0 0 1.3-.15l.1 1.67a5.41 5.41 0 0 1-2 .31A3.12 3.12 0 0 1 388 240a4.57 4.57 0 0 1-.86-3.2v-6.7h-1.9v-1.71h1.9v-2.94zM220.85 293.42a7.83 7.83 0 0 0 4 1.12c2.26 0 3.58-1.2 3.58-2.92s-.92-2.52-3.23-3.4c-2.79-1-4.52-2.44-4.52-4.85 0-2.67 2.21-4.65 5.54-4.65a7.78 7.78 0 0 1 3.78.84l-.61 1.8a6.88 6.88 0 0 0-3.25-.81c-2.33 0-3.22 1.39-3.22 2.56 0 1.6 1 2.39 3.4 3.3 2.9 1.12 4.37 2.52 4.37 5s-2 4.93-6 4.93a8.83 8.83 0 0 1-4.37-1.1zM243.88 292.76c0 1.27 0 2.39.1 3.35h-2l-.13-2h-.05a4.62 4.62 0 0 1-4.06 2.28c-1.93 0-4.24-1.07-4.24-5.38v-7.19h2.23v6.81c0 2.33.71 3.91 2.74 3.91a3.13 3.13 0 0 0 3.15-3.18v-7.54h2.24zM247.58 287.83c0-1.57-.05-2.84-.1-4h2l.1 2.11a4.83 4.83 0 0 1 4.37-2.39c3 0 5.2 2.52 5.2 6.25 0 4.42-2.69 6.6-5.58 6.6a4.32 4.32 0 0 1-3.79-1.93h-.05v6.68h-2.21zm2.21 3.28a5.07 5.07 0 0 0 .1.91 3.45 3.45 0 0 0 3.35 2.62c2.37 0 3.74-1.93 3.74-4.75 0-2.46-1.3-4.57-3.66-4.57a3.58 3.58 0 0 0-3.38 2.77 3.93 3.93 0 0 0-.15.91zM262 287.83c0-1.57 0-2.84-.1-4h2l.1 2.11h.05a4.85 4.85 0 0 1 4.37-2.39c3 0 5.21 2.52 5.21 6.25 0 4.42-2.7 6.6-5.59 6.6a4.3 4.3 0 0 1-3.78-1.93h-.05v6.68H262zm2.21 3.28a5.07 5.07 0 0 0 .1.91 3.44 3.44 0 0 0 3.35 2.62c2.36 0 3.73-1.93 3.73-4.75 0-2.46-1.29-4.57-3.65-4.57a3.56 3.56 0 0 0-3.38 2.77 3.47 3.47 0 0 0-.15.91zM276.47 278.08h2.24v18h-2.24zM285 280.37a1.31 1.31 0 0 1-1.42 1.37 1.33 1.33 0 0 1-1.35-1.37 1.37 1.37 0 0 1 1.4-1.4 1.33 1.33 0 0 1 1.37 1.4zm-2.49 15.74v-12.29h2.24v12.29zM289.65 290.37c.05 3 2 4.27 4.21 4.27a8 8 0 0 0 3.41-.64l.38 1.6a9.89 9.89 0 0 1-4.09.77c-3.78 0-6-2.49-6-6.2s2.18-6.63 5.76-6.63c4 0 5.08 3.53 5.08 5.79a7.3 7.3 0 0 1-.08 1zm6.55-1.6c0-1.42-.58-3.63-3.1-3.63-2.26 0-3.25 2.09-3.43 3.63zM301.12 287.66c0-1.45 0-2.69-.1-3.84h2l.07 2.41h.11a3.67 3.67 0 0 1 3.4-2.69 2.41 2.41 0 0 1 .63.08v2.11a3.34 3.34 0 0 0-.76-.08 3.14 3.14 0 0 0-3 2.87 6.33 6.33 0 0 0-.1 1v6.55h-2.21zM323.57 295.65a8.15 8.15 0 0 1-3.53.72c-3.71 0-6.12-2.52-6.12-6.28a6.24 6.24 0 0 1 6.6-6.52 7.57 7.57 0 0 1 3.1.63l-.51 1.73a5.23 5.23 0 0 0-2.59-.58c-2.82 0-4.34 2.08-4.34 4.64 0 2.85 1.83 4.6 4.26 4.6a6.39 6.39 0 0 0 2.75-.61zM337.15 289.87c0 4.54-3.15 6.52-6.12 6.52-3.32 0-5.89-2.44-5.89-6.32 0-4.11 2.69-6.53 6.09-6.53s5.92 2.57 5.92 6.33zm-9.75.12c0 2.69 1.55 4.73 3.73 4.73s3.74-2 3.74-4.78c0-2.08-1.05-4.72-3.69-4.72s-3.78 2.44-3.78 4.78zM339.66 293.83a5.88 5.88 0 0 0 2.95.89c1.62 0 2.39-.82 2.39-1.83s-.64-1.65-2.29-2.26c-2.21-.79-3.25-2-3.25-3.48 0-2 1.6-3.61 4.24-3.61a6.08 6.08 0 0 1 3 .77l-.56 1.62a4.81 4.81 0 0 0-2.51-.71c-1.32 0-2.06.76-2.06 1.68s.74 1.47 2.34 2.08c2.13.81 3.22 1.88 3.22 3.7 0 2.16-1.67 3.69-4.59 3.69a7 7 0 0 1-3.46-.84zM352.71 280.29v3.53h3.2v1.7h-3.2v6.63c0 1.52.43 2.39 1.68 2.39a5.27 5.27 0 0 0 1.29-.15l.11 1.67a5.47 5.47 0 0 1-2 .31 3.1 3.1 0 0 1-2.41-.94 4.59 4.59 0 0 1-.86-3.2v-6.71h-1.9v-1.7h1.9v-2.94zM363.81 287.66c0-1.45 0-2.69-.1-3.84h2l.08 2.41h.1a3.68 3.68 0 0 1 3.4-2.69 2.55 2.55 0 0 1 .64.08v2.11a3.44 3.44 0 0 0-.77-.08 3.13 3.13 0 0 0-3 2.87 6.33 6.33 0 0 0-.1 1v6.55h-2.21zM373.1 290.37c0 3 2 4.27 4.21 4.27a8 8 0 0 0 3.41-.64l.38 1.6a9.89 9.89 0 0 1-4.09.77c-3.78 0-6-2.49-6-6.2s2.18-6.63 5.76-6.63c4 0 5.08 3.53 5.08 5.79a7.3 7.3 0 0 1-.08 1zm6.55-1.6c0-1.42-.58-3.63-3.1-3.63-2.26 0-3.25 2.09-3.43 3.63zM393.33 295.65a8.07 8.07 0 0 1-3.53.72c-3.7 0-6.11-2.52-6.11-6.28a6.24 6.24 0 0 1 6.6-6.52 7.48 7.48 0 0 1 3.09.63l-.5 1.73a5.26 5.26 0 0 0-2.59-.58c-2.82 0-4.34 2.08-4.34 4.64 0 2.85 1.82 4.6 4.26 4.6A6.31 6.31 0 0 0 393 294zM406.92 289.87c0 4.54-3.15 6.52-6.12 6.52-3.33 0-5.89-2.44-5.89-6.32 0-4.11 2.69-6.53 6.09-6.53s5.92 2.57 5.92 6.33zm-9.75.12c0 2.69 1.55 4.73 3.73 4.73s3.73-2 3.73-4.78c0-2.08-1-4.72-3.68-4.72s-3.78 2.44-3.78 4.78zM410.42 283.82l2.41 6.91a29.62 29.62 0 0 1 1 3.15h.08c.28-1 .63-2 1-3.15l2.39-6.91h2.33l-4.82 12.29h-2.13L408 283.82zM422.76 290.37c.05 3 2 4.27 4.21 4.27a8 8 0 0 0 3.41-.64l.38 1.6a9.85 9.85 0 0 1-4.09.77c-3.78 0-6-2.49-6-6.2s2.18-6.63 5.76-6.63c4 0 5.08 3.53 5.08 5.79a7.3 7.3 0 0 1-.08 1zm6.55-1.6c0-1.42-.58-3.63-3.1-3.63-2.26 0-3.25 2.09-3.42 3.63zM434.24 287.66c0-1.45 0-2.69-.11-3.84h2l.08 2.41h.1a3.68 3.68 0 0 1 3.4-2.69 2.41 2.41 0 0 1 .63.08v2.11a3.28 3.28 0 0 0-.76-.08 3.13 3.13 0 0 0-3 2.87 6.26 6.26 0 0 0-.11 1v6.55h-2.2zM444 283.82l2.7 7.26c.28.82.58 1.78.78 2.52h.05c.23-.74.49-1.68.79-2.57l2.44-7.21h2.36l-3.35 8.76c-1.6 4.22-2.69 6.38-4.22 7.7a6 6 0 0 1-2.74 1.44l-.56-1.88a5.74 5.74 0 0 0 2-1.09 6.72 6.72 0 0 0 1.88-2.49 1.5 1.5 0 0 0 .17-.53 1.94 1.94 0 0 0-.15-.58l-4.54-11.33zM221.15 334.59a25.46 25.46 0 0 1 4.24-.33 7 7 0 0 1 4.8 1.42 4.6 4.6 0 0 1 1.5 3.58 5.06 5.06 0 0 1-1.32 3.66 7.11 7.11 0 0 1-5.23 1.88 7.45 7.45 0 0 1-1.78-.16v6.86h-2.21zm2.21 8.25a7.24 7.24 0 0 0 1.83.18c2.67 0 4.29-1.3 4.29-3.66s-1.6-3.35-4-3.35a9.33 9.33 0 0 0-2.08.18zM234.18 343c0-1.44 0-2.69-.1-3.83H236l.08 2.41h.1a3.68 3.68 0 0 1 3.4-2.69 2.55 2.55 0 0 1 .64.08v2.11a2.94 2.94 0 0 0-.77-.08 3.13 3.13 0 0 0-3 2.87 6.33 6.33 0 0 0-.1 1v6.55h-2.21zM253.35 345.25c0 4.55-3.15 6.53-6.12 6.53-3.33 0-5.89-2.44-5.89-6.32 0-4.12 2.69-6.53 6.09-6.53s5.92 2.57 5.92 6.32zm-9.75.13c0 2.69 1.54 4.72 3.73 4.72s3.73-2 3.73-4.77c0-2.08-1-4.72-3.68-4.72s-3.78 2.39-3.78 4.77zM266.78 333.47v14.86c0 1.09 0 2.33.1 3.17h-2l-.1-2.13a4.55 4.55 0 0 1-4.19 2.41c-3 0-5.26-2.51-5.26-6.25 0-4.08 2.52-6.6 5.51-6.6a4.12 4.12 0 0 1 3.71 1.88h.05v-7.34zm-2.24 10.74a3.76 3.76 0 0 0-.1-.94 3.29 3.29 0 0 0-3.22-2.59c-2.31 0-3.69 2-3.69 4.75 0 2.49 1.22 4.55 3.64 4.55a3.36 3.36 0 0 0 3.27-2.67 3.68 3.68 0 0 0 .1-1zM280.77 348.15c0 1.27 0 2.39.1 3.35h-2l-.13-2h-.05a4.62 4.62 0 0 1-4.06 2.29c-1.93 0-4.24-1.07-4.24-5.38v-7.19h2.23V346c0 2.33.71 3.91 2.74 3.91a3.25 3.25 0 0 0 2.95-2 3.17 3.17 0 0 0 .2-1.14v-7.54h2.24zM293.23 351a8.14 8.14 0 0 1-3.53.71c-3.7 0-6.12-2.51-6.12-6.27a6.24 6.24 0 0 1 6.6-6.52 7.57 7.57 0 0 1 3.1.63l-.51 1.73a5.1 5.1 0 0 0-2.59-.59c-2.81 0-4.34 2.09-4.34 4.65 0 2.84 1.83 4.6 4.27 4.6a6.31 6.31 0 0 0 2.74-.61zM298.87 335.68v3.53h3.2v1.7h-3.2v6.63c0 1.52.43 2.39 1.67 2.39a4.76 4.76 0 0 0 1.3-.16l.1 1.68a5.44 5.44 0 0 1-2 .3 3.09 3.09 0 0 1-2.41-.94 4.51 4.51 0 0 1-.87-3.19v-6.71h-1.9v-1.7h1.9v-2.94zM318.72 351a8.14 8.14 0 0 1-3.53.71c-3.71 0-6.12-2.51-6.12-6.27a6.24 6.24 0 0 1 6.6-6.52 7.57 7.57 0 0 1 3.1.63l-.51 1.73a5.1 5.1 0 0 0-2.59-.59c-2.81 0-4.34 2.09-4.34 4.65 0 2.84 1.83 4.6 4.27 4.6a6.31 6.31 0 0 0 2.74-.61zM332.3 345.25c0 4.55-3.14 6.53-6.12 6.53-3.32 0-5.89-2.44-5.89-6.32 0-4.12 2.7-6.53 6.1-6.53s5.91 2.57 5.91 6.32zm-9.75.13c0 2.69 1.55 4.72 3.74 4.72s3.73-2 3.73-4.77c0-2.08-1-4.72-3.68-4.72s-3.79 2.39-3.79 4.77zM334.82 349.21a5.75 5.75 0 0 0 2.94.89c1.63 0 2.39-.81 2.39-1.82s-.64-1.65-2.29-2.26c-2.21-.79-3.25-2-3.25-3.48 0-2 1.6-3.61 4.24-3.61a6.23 6.23 0 0 1 3 .76l-.56 1.63a4.76 4.76 0 0 0-2.52-.71c-1.32 0-2.05.76-2.05 1.67s.73 1.48 2.33 2.09c2.13.81 3.23 1.87 3.23 3.7 0 2.16-1.68 3.68-4.6 3.68a7.09 7.09 0 0 1-3.45-.83zM347.87 335.68v3.53h3.2v1.7h-3.2v6.63c0 1.52.43 2.39 1.67 2.39a4.76 4.76 0 0 0 1.3-.16l.1 1.68a5.44 5.44 0 0 1-2 .3 3.09 3.09 0 0 1-2.41-.94 4.51 4.51 0 0 1-.87-3.19v-6.71h-1.9v-1.7h1.9v-2.94zM370.08 345.25c0 4.55-3.15 6.53-6.12 6.53-3.32 0-5.89-2.44-5.89-6.32 0-4.12 2.69-6.53 6.1-6.53s5.91 2.57 5.91 6.32zm-9.75.13c0 2.69 1.55 4.72 3.73 4.72s3.74-2 3.74-4.77c0-2.08-1.05-4.72-3.69-4.72s-3.78 2.39-3.78 4.77zM372.9 343.22c0-1.57 0-2.84-.1-4h2l.1 2.11h.1a4.82 4.82 0 0 1 4.36-2.39c3 0 5.21 2.52 5.21 6.25 0 4.42-2.69 6.6-5.59 6.6a4.3 4.3 0 0 1-3.78-1.93h-.05v6.68h-2.25zm2.21 3.28a5.07 5.07 0 0 0 .1.91 3.45 3.45 0 0 0 3.35 2.62c2.36 0 3.73-1.93 3.73-4.75 0-2.46-1.29-4.57-3.65-4.57a3.56 3.56 0 0 0-3.38 2.77 3.47 3.47 0 0 0-.15.91zM390 335.68v3.53h3.19v1.7H390v6.63c0 1.52.43 2.39 1.67 2.39a4.82 4.82 0 0 0 1.3-.16l.1 1.68a5.44 5.44 0 0 1-2 .3 3.12 3.12 0 0 1-2.42-.94 4.56 4.56 0 0 1-.86-3.19v-6.71H386v-1.7h1.9v-2.94zM398.24 335.76a1.39 1.39 0 0 1-2.77 0 1.36 1.36 0 0 1 1.39-1.4 1.33 1.33 0 0 1 1.38 1.4zm-2.49 15.74v-12.29H398v12.29zM401.69 342.54c0-1.27 0-2.31-.1-3.33h2l.1 2h.08a4.23 4.23 0 0 1 3.86-2.26 3.65 3.65 0 0 1 3.48 2.46h.05a5.19 5.19 0 0 1 1.37-1.6 4.23 4.23 0 0 1 2.72-.86c1.62 0 4 1.07 4 5.33v7.24h-2.18v-7c0-2.36-.86-3.78-2.67-3.78a2.89 2.89 0 0 0-2.64 2 3.75 3.75 0 0 0-.18 1.12v7.59h-2.18v-7.36c0-2-.86-3.38-2.56-3.38a3.33 3.33 0 0 0-2.95 3.33v7.41h-2.18zM425.35 335.76a1.31 1.31 0 0 1-1.42 1.37 1.33 1.33 0 0 1-1.35-1.37 1.37 1.37 0 0 1 1.4-1.4 1.33 1.33 0 0 1 1.37 1.4zm-2.49 15.74v-12.29h2.24v12.29zM427.41 350.21L433 343c.53-.66 1-1.25 1.6-1.91V341h-6.66v-1.8h9.37v1.4l-5.49 7.13c-.51.69-1 1.3-1.57 1.93v.05h7.18v1.78h-10zM446.47 351.5l-.18-1.55h-.07a4.58 4.58 0 0 1-3.76 1.83 3.5 3.5 0 0 1-3.76-3.53c0-3 2.64-4.6 7.39-4.57v-.25a2.54 2.54 0 0 0-2.79-2.85 6.11 6.11 0 0 0-3.2.92l-.51-1.48a7.65 7.65 0 0 1 4-1.09c3.76 0 4.67 2.57 4.67 5v4.59a17.62 17.62 0 0 0 .2 2.95zm-.33-6.27c-2.43-.05-5.2.38-5.2 2.77a2 2 0 0 0 2.1 2.13 3.08 3.08 0 0 0 3-2.06 2.52 2.52 0 0 0 .12-.71zM454.5 335.68v3.53h3.19v1.7h-3.19v6.63c0 1.52.43 2.39 1.67 2.39a4.82 4.82 0 0 0 1.3-.16l.1 1.68a5.44 5.44 0 0 1-2 .3 3.12 3.12 0 0 1-2.42-.94 4.56 4.56 0 0 1-.86-3.19v-6.71h-1.9v-1.7h1.9v-2.94zM462.7 335.76a1.39 1.39 0 0 1-2.77 0 1.36 1.36 0 0 1 1.39-1.4 1.33 1.33 0 0 1 1.38 1.4zm-2.49 15.74v-12.29h2.23v12.29zM477.27 345.25c0 4.55-3.15 6.53-6.12 6.53-3.33 0-5.89-2.44-5.89-6.32 0-4.12 2.69-6.53 6.09-6.53s5.92 2.57 5.92 6.32zm-9.75.13c0 2.69 1.55 4.72 3.73 4.72s3.73-2 3.73-4.77c0-2.08-1-4.72-3.68-4.72s-3.78 2.39-3.78 4.77zM480.09 342.54c0-1.27 0-2.31-.11-3.33h2l.13 2h.05a4.52 4.52 0 0 1 4.07-2.31c1.7 0 4.34 1 4.34 5.23v7.34h-2.24v-7.08c0-2-.73-3.63-2.84-3.63a3.18 3.18 0 0 0-3 2.28 3.26 3.26 0 0 0-.15 1v7.39h-2.23z"/><circle class="cls-4" cx="196.12" cy="233.88" r="4.5"/><circle class="cls-4" cx="196.12" cy="289.19" r="4.5"/><circle class="cls-4" cx="196.12" cy="344.51" r="4.5"/><path class="cls-3" d="M69.32 62V45.41a2.91 2.91 0 0 1 1.79-2.82 24 24 0 0 1 5.09-1.78 53.23 53.23 0 0 1 23 .45 15.22 15.22 0 0 1 3.48 1.49 2.87 2.87 0 0 1 1.52 2.69v28c0 1.59-.06 3.19 0 4.77a3 3 0 0 1-1.83 3.18 27.76 27.76 0 0 1-5.57 1.84c-2.59.47-5.24.61-7.86.82a1.56 1.56 0 0 0-1.41.84 4.93 4.93 0 0 1-4.84 2.45 4.85 4.85 0 0 1-4.36-3.06 1.53 1.53 0 0 0-1.21-1c-1.75-.46-3.51-.9-5.2-1.52a3.73 3.73 0 0 1-2.57-4c.1-5.25 0-10.5 0-15.75zm32.25-5.64a53.13 53.13 0 0 1-29.63 0v2.42c0 3.52 0 3.56 3.45 4.43a51.06 51.06 0 0 0 16.4 1 25.22 25.22 0 0 0 9.06-2c.29-.14.68-.48.69-.74.06-1.72.03-3.47.03-5.1zm-29.63 8.58v2.37c0 3.57 0 3.63 3.51 4.48a45.2 45.2 0 0 0 18 .64 69.7 69.7 0 0 0 7.43-2c.27-.08.67-.42.67-.66.06-1.66 0-3.32 0-4.9a52.77 52.77 0 0 1-29.61.07zm0-16.61V50c0 3.91 0 4 3.91 4.83a51.89 51.89 0 0 0 19.44.45 36.94 36.94 0 0 0 5.39-1.51 1.42 1.42 0 0 0 .84-1c.09-1.48 0-3 0-4.42a53.36 53.36 0 0 1-29.58-.02zm16.4 33.34c2.45-.28 5-.45 7.42-.87a33.32 33.32 0 0 0 4.93-1.42 1.36 1.36 0 0 0 .84-.88c.08-1.82 0-3.65 0-5.48a48.79 48.79 0 0 1-29.53.45v5a1 1 0 0 0 .4.68 14.44 14.44 0 0 0 5.6 1.7c1.24-2.73 3-3.87 5.51-3.73 2.28.13 3.88 1.58 4.83 4.55zm13.11-36.45l.09-.38A32.75 32.75 0 0 0 98 43.55a46.65 46.65 0 0 0-15.35-1 76 76 0 0 0-8.43 1.41 11.79 11.79 0 0 0-2.29 1v.46a34.6 34.6 0 0 0 4 1.36A52.64 52.64 0 0 0 96.3 47a12.19 12.19 0 0 0 5.15-1.78zM83.11 79.61a2.62 2.62 0 1 0-.1 5.24 2.59 2.59 0 0 0 2.71-2.58 2.55 2.55 0 0 0-2.61-2.66zM54.25 60.26h4.44l-6 10.19-6-10.17h4.07c.62 0 .82-.22.88-.81a32.77 32.77 0 0 1 3.4-11.35c.18-.38.33-.65-.06-1.08a5 5 0 0 1-.54-6.68 5.28 5.28 0 0 1 6.68-1.44l.4.18a36 36 0 0 1 9.49-6.77l1.13 2.19c-.27.16-.5.31-.74.44a34.66 34.66 0 0 0-7.56 5.44 1 1 0 0 0-.34 1.3 5 5 0 0 1-4.82 6.79 1.33 1.33 0 0 0-1.43.88c-1.6 3.41-2.99 8.21-3 10.89zM58.63 46a2.65 2.65 0 0 0 2.76-2.55 2.7 2.7 0 0 0-5.4-.11A2.62 2.62 0 0 0 58.63 46zM119.55 67.47h-4.72l6-10.18 6 10.14h-4.54a35.2 35.2 0 0 1-3.84 12.33 5.16 5.16 0 0 1-5.45 8.59 1 1 0 0 0-1.31.25 34.24 34.24 0 0 1-8.76 6.16l-1.14-2.21a19.69 19.69 0 0 0 1.82-1c2.1-1.54 4.18-3.11 6.25-4.67a.78.78 0 0 0 .31-1.11 5.06 5.06 0 0 1 5-7.23 1.26 1.26 0 0 0 1.43-.84 33.82 33.82 0 0 0 2.87-9.15c.04-.35.04-.66.08-1.08zM114.8 81a2.67 2.67 0 0 0-2.67 2.66 2.7 2.7 0 0 0 5.4 0A2.66 2.66 0 0 0 114.8 81zM89.78 31.25v4.55l-10.35-5.88 10.31-5.86v4.64c13 1.46 22.59 7.77 29 19.23l-2.3 1.12c-5.87-10.49-14.71-16.36-26.66-17.8zM55.19 79.34c.65-.34 1.15-.6 1.66-.85.2-.1.41-.17.67-.28a32.87 32.87 0 0 0 15.31 14.64c3.3 1.56 8 2.85 10 2.76v-4.27l10.38 5.9-10.33 5.87v-4.77c-12.34-1.78-21.57-8.01-27.69-19zM85.24 234.92c1.56.66 3.12 1.34 4.69 2a1 1 0 0 1 .65 1.31 2.87 2.87 0 0 0 1.27 3.57 2.15 2.15 0 0 1 .71.73c.6 1.05 1.49 1.09 2.55.92 1.49-.25 1.55-.23 2.16 1.14s1 2.55 1.48 3.82a.77.77 0 0 1-.33 1.1c-1.48.83-1.78 2-1.8 3.73a3.32 3.32 0 0 0 1.69 3.32.92.92 0 0 1 .41 1.32c-.6 1.43-1.17 2.87-1.75 4.31-.2.49-.53.76-1.07.6a3.3 3.3 0 0 0-4 1.54 2 2 0 0 1-.67.63 1.54 1.54 0 0 0-.67 2 49.15 49.15 0 0 1 4.9-1.05c9.83-1.12 17.57 2.44 23.18 10.6a1.53 1.53 0 0 0 1.46.82 4.89 4.89 0 0 1 4.65 3.26c.1.29.22.57.33.86v2.05a13.64 13.64 0 0 1-1.27 2.24 5.12 5.12 0 1 1-7.61-6.84l.49-.54a20.9 20.9 0 0 0-38 4.87l3.94 1.58-9.2 7.37-1.78-11.65 4.28 1.64a65.25 65.25 0 0 1 3.51-6.4 62.87 62.87 0 0 1 4.75-5.46c-.26-.31-.62-.82-1.05-1.26a1.23 1.23 0 0 0-.81-.26 9.4 9.4 0 0 1-2 .07 2.43 2.43 0 0 0-3 1.36 1.4 1.4 0 0 1-2.08.61c-1.26-.6-2.55-1.13-3.84-1.67-.47-.2-.7-.5-.55-1 .52-1.8-.27-3-1.56-4.21-1.08-1.06-2-1.57-3.44-1.19a1.19 1.19 0 0 1-1.56-.88c-.59-1.52-1.22-3-1.84-4.53V257c.73-.56 1.47-1.11 2.17-1.7a1 1 0 0 0 .22-.65v-3.12a1 1 0 0 0-.28-.71c-.68-.59-1.4-1.12-2.1-1.67v-.19c.65-1.63 1.32-3.25 2-4.89a1 1 0 0 1 1.29-.68c1.6.48 2.58-.23 3.73-1.35s1.91-2.23 1.43-3.88c-.2-.67.15-1 .72-1.27l4.7-1.94h.38c.87 1.35 1.59 2.88 3.71 2.36a9.74 9.74 0 0 1 1.94 0 1.39 1.39 0 0 0 .88-.32c.6-.66 1.13-1.38 1.69-2.08zm7.9 11.23c-.7.31-1.13-.15-1.6-.8a7.82 7.82 0 0 0-2-2.18 3.09 3.09 0 0 1-1.65-3.8.92.92 0 0 0-.29-.76c-1.24-.88-1.72-.8-2.67.35-.18.22-.37.42-.53.65a1.06 1.06 0 0 1-1.18.45 14.14 14.14 0 0 0-3.89-.13c-1.37.23-2.34.06-3-1.2-.44-.85-1-.79-1.83-.47s-1.17.77-.91 1.66c.09.32 0 .68.1 1 .12.6-.16.92-.62 1.3a15.35 15.35 0 0 0-2.89 2.78 2.24 2.24 0 0 1-2.62 1.11h-.18c-.88-.31-1.25.13-1.58.89s-.37 1.45.49 1.92c.27.15.47.41.73.58a1.17 1.17 0 0 1 .51 1.34 12.52 12.52 0 0 0-.1 3.61c.23 1.27 0 2.16-1.09 2.78-.09.05-.14.13-.23.17-.62.35-.7.79-.42 1.46.56 1.3.53 1.32 1.92 1.17.22 0 .44 0 .65-.05a1.4 1.4 0 0 1 1.54.69 13.86 13.86 0 0 0 2.71 2.8 2.16 2.16 0 0 1 1.07 2.63c-.3 1 .08 1.49 1 1.84.74.27 1.2.26 1.63-.43.23-.37.58-.65.82-1s.6-.45 1.09-.42a32.47 32.47 0 0 0 4.73 0 1.6 1.6 0 0 1 1.76.75c.1.16.26.28.35.44.51.9 1.16 1 2.07.53.6-.3 1-.57.81-1.31-.09-.39 0-.81-.13-1.2a1.24 1.24 0 0 1 .58-1.4 10.45 10.45 0 0 0 2.6-2.39 2.89 2.89 0 0 1 3.56-1.43.9.9 0 0 0 .77-.25c.89-1.24.8-1.81-.35-2.78-.2-.15-.46-.27-.57-.47a2.75 2.75 0 0 1-.44-1.19 20.18 20.18 0 0 0 .06-3.8 2.28 2.28 0 0 1 1.22-2.74c.78-.47.81-1 .47-1.78s-.67-1.3-1.62-1a3.66 3.66 0 0 1-.85.08zM119.9 285a2.56 2.56 0 0 0 2.6-2.51 2.58 2.58 0 1 0-2.6 2.51zM97 314.92c-1-.18-1.94-.33-2.9-.53a23.21 23.21 0 0 1-15.07-10.16 1.29 1.29 0 0 0-1.24-.72 5 5 0 0 1-5-4.11 5.13 5.13 0 1 1 8.89 2.38 6.59 6.59 0 0 1-.67.63c2.51 4.78 9.7 10.44 19 9.87a20.77 20.77 0 0 0 18.15-13.16l-4.16-1.69 9.2-7.37 1.79 11.66-4.21-1.62-.41.84c-3.91 8.09-10.31 12.72-19.25 13.81a2.46 2.46 0 0 0-.5.17zm-19.1-19.07a2.55 2.55 0 0 0-2.61 2.58 2.67 2.67 0 0 0 2.56 2.57 2.62 2.62 0 0 0 2.59-2.63 2.51 2.51 0 0 0-2.54-2.52z"/><path class="cls-3" d="M98.11 276.62h2.06v2.95c1.09.27 2.14.52 3.18.79.84.22 1.2.66.7 1.52a10.56 10.56 0 0 0-.49 1.18 8.14 8.14 0 0 0-4.71-1.06c-1.87.17-3.07 1.46-2.75 3.14a3.18 3.18 0 0 0 1.09 1.75 17.76 17.76 0 0 0 2.68 1.47c.88.46 1.81.84 2.65 1.36a5.23 5.23 0 0 1 2.5 5.69 5.39 5.39 0 0 1-4 4.35c-.3.1-.6.17-1 .28v3.29H97.9v-3l-5.12-1.46.79-2.22a43.93 43.93 0 0 0 4.27 1.09 4.73 4.73 0 0 0 2.37-.31 3 3 0 0 0 .88-5.18 13.9 13.9 0 0 0-2.57-1.49c-.93-.49-1.93-.87-2.83-1.42a4.69 4.69 0 0 1-2.51-4.65 4.81 4.81 0 0 1 3.61-4.5c1.15-.35 1.49-.83 1.33-1.92a13.7 13.7 0 0 1-.01-1.65zM80.73 262.36a9.31 9.31 0 1 1 9.37-9.29 9.32 9.32 0 0 1-9.37 9.29zm6.78-9.36a6.81 6.81 0 1 0-6.78 6.77 6.81 6.81 0 0 0 6.78-6.77zM92.75 480.33h4.82l-6.56 11-6.59-11.03h5.21v-1.11-16.15c0-.73-.14-1.09-1-1.26-2.06-.45-3.28-1.31-5.38-3.49-.22.13-.47.25-.7.39q-8.21 5.16-16.5 10.32a1 1 0 0 0-.55 1.17 5.72 5.72 0 0 1-3.56 6.5 6.11 6.11 0 0 1-7.26-2.14 5.7 5.7 0 0 1 .57-7.17 6 6 0 0 1 7.55-1 1.59 1.59 0 0 0 2 0c5.4-3.41 10.82-6.77 16.23-10.14l.91-.58a9.68 9.68 0 0 1 .51-6.86.87.87 0 0 0-.24-.77c-2.69-2.43-5.41-4.83-8.1-7.27-.43-.39-.71-.15-1.07 0a6 6 0 0 1-8.36-3.6 5.7 5.7 0 0 1 2.32-6.32 6.16 6.16 0 0 1 7.2.18 5.64 5.64 0 0 1 1.9 6.47 1.1 1.1 0 0 0 .35 1.49c2.69 2.34 5.33 4.73 7.81 7a42.18 42.18 0 0 1 4.61-2 9 9 0 0 1 5.8.33 1.16 1.16 0 0 0 1-.16q7-8.55 14-17.17a.67.67 0 0 0 .09-.19 5.7 5.7 0 0 1-.15-6.74 6 6 0 0 1 7.84-1.87 5.7 5.7 0 0 1 2.74 7.11 5.94 5.94 0 0 1-7.2 3.56 1.16 1.16 0 0 0-1.47.48q-6.64 8.2-13.32 16.39c-.14.16-.27.34-.43.56a9.38 9.38 0 0 1 2.83 7.74l7 1.3c4.55.84 9.1 1.67 13.64 2.54a1.43 1.43 0 0 0 1.72-.62 6 6 0 0 1 6.89-2 5.76 5.76 0 0 1 3.86 5.73 5.82 5.82 0 0 1-4.44 5.3 5.93 5.93 0 0 1-7.41-4.66c-.11-.55-.27-.83-.9-.94-6.85-1.25-13.7-2.55-20.56-3.79a1 1 0 0 0-.85.4 9.75 9.75 0 0 1-6.35 4.61.91.91 0 0 0-.56.65v17.55s-.01.08.11.26zm-1.65-21.07a6.44 6.44 0 1 0-6.63-6.45 6.54 6.54 0 0 0 6.63 6.45zm20.41-36.07a3.05 3.05 0 0 0 3.09 3 3.13 3.13 0 0 0 3.09-3 3.07 3.07 0 0 0-3.11-3 3 3 0 0 0-3.07 3zm-44.13 12.36a3.08 3.08 0 0 0 3.08 3 3.13 3.13 0 0 0 3.1-3 3.09 3.09 0 0 0-6.18 0zm-4.67 35.73a3 3 0 0 0-3.06-3 3.12 3.12 0 0 0-3.09 3 3.05 3.05 0 0 0 3.1 3 3 3 0 0 0 3.05-3zm61.92-10.63a3 3 0 0 0 3 3 3.1 3.1 0 0 0 3.11-3 3 3 0 0 0-3.07-3 2.94 2.94 0 0 0-3.04 3z"/></svg>