<svg id="Layer_1" data-name="Layer 1" xmlns="http://www.w3.org/2000/svg" viewBox="0 0 1040.81 275.81"><defs><style>.cls-1{fill:#f16c51;}.cls-2{fill:#fbc2ba;}.cls-3{fill:#fff;}</style></defs><title>supply-chain</title><circle class="cls-1" cx="649.63" cy="138.58" r="114.5"/><circle class="cls-1" cx="394.39" cy="138.58" r="114.5"/><circle class="cls-1" cx="138.35" cy="138.58" r="114.5"/><circle class="cls-1" cx="905.41" cy="138.58" r="114.5"/><path class="cls-2" d="M391.75,17.35a119.7,119.7,0,0,1,111,74.27l1.48,3.59,1.2-3.7c0-.08,2.69-8.26,6.17-16.82l.25-.61-.31-.59A135.39,135.39,0,0,0,391.75,1.64C316.89,1.64,256,62.54,256,137.39a120,120,0,1,1-8-43.18l1.58,4.1,1.14-4.24A127.42,127.42,0,0,1,257,77l.28-.63-.31-.6A136.38,136.38,0,0,0,213.61,26,134.92,134.92,0,0,0,136,1.64C61.09,1.64.19,62.54.19,137.39S61.09,273.15,136,273.15s135.76-60.9,135.76-135.76A120.18,120.18,0,0,1,391.75,17.35Z"/><path class="cls-2" d="M649.26,18.38a120.8,120.8,0,0,1,112,76.86l1.41,3.65,1.28-3.7c0-.09,3.1-9,6.54-16.66l.28-.62-.31-.61a136.3,136.3,0,0,0-43.57-50.24,134.93,134.93,0,0,0-77.66-24.4c-74.86,0-135.76,60.9-135.76,135.76v7.86h.2a120.06,120.06,0,0,1-231.1,37.16l-2.06-5.1-.68,5.46a48.77,48.77,0,0,1-6,16.64l-.41.69.37.7a135.25,135.25,0,0,0,120.06,72.35c74.86,0,135.76-60.9,135.76-135.76v-7.86h-.2A120,120,0,0,1,649.26,18.38Z"/><path class="cls-2" d="M904.86,2.66C830,2.66,769.1,63.56,769.1,138.42a120.06,120.06,0,0,1-231.59,44.43l-1.78-4.46-.94,4.71a116.13,116.13,0,0,1-5.53,18.17l-.25.62.31.59a135.34,135.34,0,0,0,119.74,71.7c74.86,0,135.76-60.9,135.76-135.76a120,120,0,1,1,9,45.62l-1.95-4.73-.79,5.05a70.86,70.86,0,0,1-5.55,17.56l-.32.66.35.64a135.51,135.51,0,0,0,119.32,71c74.86,0,135.76-60.9,135.76-135.76S979.72,2.66,904.86,2.66Z"/><path class="cls-3" d="M110,195.58a8.83,8.83,0,0,0,3.86,1c1.6,0,2.44-.66,2.44-1.66s-.73-1.51-2.58-2.18c-2.56-.89-4.23-2.3-4.23-4.55,0-2.62,2.2-4.63,5.83-4.63a9.44,9.44,0,0,1,3.93.77l-.77,2.81a7.47,7.47,0,0,0-3.23-.73c-1.51,0-2.24.69-2.24,1.49,0,1,.87,1.41,2.86,2.17,2.72,1,4,2.42,4,4.59,0,2.59-2,4.78-6.22,4.78a10.05,10.05,0,0,1-4.36-.94Z"/><path class="cls-3" d="M125,194.69c.11,1.44,1.53,2.13,3.15,2.13a9.68,9.68,0,0,0,3.08-.46l.46,2.36a11.14,11.14,0,0,1-4,.68c-3.8,0-6-2.19-6-5.69,0-2.83,1.76-6,5.65-6,3.61,0,5,2.82,5,5.58a9,9,0,0,1-.11,1.37Zm4.09-2.37a2,2,0,0,0-2-2.27,2.29,2.29,0,0,0-2.15,2.27Z"/><path class="cls-3" d="M134.34,191.56c0-1.39-.05-2.58-.09-3.57h3l.16,1.54h.06a4.1,4.1,0,0,1,3.46-1.79c2.28,0,4,1.51,4,4.8v6.63h-3.48V193c0-1.44-.5-2.42-1.76-2.42a1.85,1.85,0,0,0-1.76,1.3,2.4,2.4,0,0,0-.14.87v6.44h-3.47Z"/><path class="cls-3" d="M147.71,196.13a6.79,6.79,0,0,0,3,.85c1,0,1.48-.37,1.48-.94s-.34-.85-1.64-1.28c-2.31-.78-3.2-2-3.18-3.36,0-2.08,1.78-3.66,4.55-3.66a7.51,7.51,0,0,1,3.15.64l-.61,2.4a5.61,5.61,0,0,0-2.43-.64c-.84,0-1.32.35-1.32.92s.43.8,1.8,1.28c2.13.73,3,1.8,3,3.45,0,2.08-1.64,3.61-4.84,3.61a7.83,7.83,0,0,1-3.61-.78Z"/><path class="cls-3" d="M160.33,194.69c.11,1.44,1.53,2.13,3.15,2.13a9.79,9.79,0,0,0,3.09-.46l.46,2.36a11.23,11.23,0,0,1-4.05.68c-3.79,0-6-2.19-6-5.69,0-2.83,1.76-6,5.64-6,3.61,0,5,2.82,5,5.58a7.82,7.82,0,0,1-.11,1.37Zm4.09-2.37a2,2,0,0,0-2-2.27,2.28,2.28,0,0,0-2.15,2.27Z"/><path class="cls-3" d="M347.76,184a31.88,31.88,0,0,1,4.71-.32c2.93,0,4.82.53,6.31,1.65a6.81,6.81,0,0,1,2.61,5.8,7.82,7.82,0,0,1-2.56,6.24c-1.63,1.35-4.1,2-7.11,2a29.19,29.19,0,0,1-4-.23Zm3.5,12.57a6.3,6.3,0,0,0,1.21.07c3.16,0,5.21-1.71,5.21-5.39,0-3.2-1.85-4.89-4.84-4.89a8,8,0,0,0-1.58.13Z"/><path class="cls-3" d="M367.24,184.89a1.74,1.74,0,0,1-1.88,1.73,1.75,1.75,0,1,1,0-3.49A1.74,1.74,0,0,1,367.24,184.89Zm-3.59,14.28V188h3.47v11.18Z"/><path class="cls-3" d="M376.27,199.17l-.21-1.12H376a4,4,0,0,1-3.2,1.37,3.42,3.42,0,0,1-3.61-3.42c0-2.91,2.61-4.3,6.56-4.28v-.16c0-.59-.32-1.44-2-1.44a6.25,6.25,0,0,0-3.09.85l-.64-2.24a9.15,9.15,0,0,1,4.34-1c3.73,0,4.92,2.2,4.92,4.83v3.88a17.74,17.74,0,0,0,.16,2.72Zm-.41-5.28c-1.83,0-3.25.41-3.25,1.76A1.25,1.25,0,0,0,374,197a1.9,1.9,0,0,0,1.81-1.28,2.82,2.82,0,0,0,.07-.6Z"/><path class="cls-3" d="M392.66,188c-.05.71-.09,1.65-.09,3.32v6.24c0,2.15-.44,3.91-1.7,5a6.88,6.88,0,0,1-4.54,1.37,8.75,8.75,0,0,1-4-.87l.69-2.63a6.88,6.88,0,0,0,3.24.85,2.67,2.67,0,0,0,2.91-3v-.73h-.05a3.57,3.57,0,0,1-3,1.46c-2.76,0-4.73-2.24-4.73-5.46,0-3.59,2.33-5.88,5.08-5.88a3.37,3.37,0,0,1,3.06,1.58h0l.11-1.33Zm-3.57,4.55a2.62,2.62,0,0,0-.07-.64,1.9,1.9,0,0,0-1.87-1.53c-1.26,0-2.29,1.15-2.29,3.18,0,1.67.83,3,2.29,3A1.89,1.89,0,0,0,389,195.1a3,3,0,0,0,.11-.91Z"/><path class="cls-3" d="M395.36,191.56c0-1.39-.05-2.58-.1-3.57h3l.16,1.54h.07a4.09,4.09,0,0,1,3.45-1.79c2.29,0,4,1.51,4,4.8v6.63h-3.47V193c0-1.44-.51-2.42-1.76-2.42a1.85,1.85,0,0,0-1.76,1.3,2.2,2.2,0,0,0-.14.87v6.44h-3.47Z"/><path class="cls-3" d="M419.79,193.46a5.6,5.6,0,0,1-5.9,6,5.47,5.47,0,0,1-5.78-5.76,5.58,5.58,0,0,1,6-5.92A5.44,5.44,0,0,1,419.79,193.46Zm-8.09.11c0,1.92.8,3.36,2.28,3.36s2.22-1.35,2.22-3.36c0-1.67-.64-3.36-2.22-3.36S411.7,191.93,411.7,193.57Z"/><path class="cls-3" d="M421.92,196.13a6.75,6.75,0,0,0,3,.85c1,0,1.49-.37,1.49-.94s-.35-.85-1.65-1.28c-2.31-.78-3.2-2-3.18-3.36,0-2.08,1.79-3.66,4.55-3.66a7.56,7.56,0,0,1,3.16.64l-.62,2.4a5.52,5.52,0,0,0-2.42-.64c-.85,0-1.33.35-1.33.92s.44.8,1.81,1.28c2.12.73,3,1.8,3,3.45,0,2.08-1.65,3.61-4.85,3.61a7.89,7.89,0,0,1-3.61-.78Z"/><path class="cls-3" d="M434.53,194.69c.12,1.44,1.54,2.13,3.16,2.13a9.68,9.68,0,0,0,3.08-.46l.46,2.36a11.18,11.18,0,0,1-4,.68c-3.8,0-6-2.19-6-5.69,0-2.83,1.76-6,5.65-6,3.61,0,5,2.82,5,5.58a7.59,7.59,0,0,1-.12,1.37Zm4.1-2.37a2,2,0,0,0-2-2.27,2.29,2.29,0,0,0-2.15,2.27Z"/><path class="cls-3" d="M614.84,184a28.87,28.87,0,0,1,4.71-.32,7.35,7.35,0,0,1,4.71,1.24,4.48,4.48,0,0,1,1.64,3.56,4.94,4.94,0,0,1-1.41,3.66,7.15,7.15,0,0,1-5,1.62,8.1,8.1,0,0,1-1.19-.07v5.51h-3.45Zm3.45,7a6,6,0,0,0,1.17.09c1.85,0,3-.94,3-2.52,0-1.41-1-2.26-2.72-2.26a5.8,5.8,0,0,0-1.44.14Z"/><path class="cls-3" d="M627.8,191.68c0-1.65,0-2.73-.09-3.69h3l.12,2.06h.09a3.31,3.31,0,0,1,3.75-2.26v3.27a4.67,4.67,0,0,0-.94-.09,2.23,2.23,0,0,0-2.38,1.76,4.63,4.63,0,0,0-.06.77v5.67H627.8Z"/><path class="cls-3" d="M639,194.69c.11,1.44,1.53,2.13,3.15,2.13a9.79,9.79,0,0,0,3.09-.46l.46,2.36a11.23,11.23,0,0,1-4,.68c-3.79,0-6-2.19-6-5.69,0-2.83,1.75-6,5.64-6,3.61,0,5,2.82,5,5.58a9,9,0,0,1-.11,1.37Zm4.09-2.37a2,2,0,0,0-2-2.27,2.28,2.28,0,0,0-2.14,2.27Z"/><path class="cls-3" d="M659.21,182.94v12.9c0,1.25,0,2.58.09,3.33h-3.09l-.16-1.64h0a3.92,3.92,0,0,1-3.5,1.89c-2.65,0-4.78-2.26-4.78-5.73,0-3.78,2.34-5.95,5-5.95a3.4,3.4,0,0,1,3,1.26h0v-6.06Zm-3.48,9.79c0-.19,0-.44,0-.62a2.09,2.09,0,0,0-2-1.71c-1.57,0-2.4,1.41-2.4,3.17s.94,3.09,2.38,3.09a2,2,0,0,0,2-1.67,2.88,2.88,0,0,0,.09-.8Z"/><path class="cls-3" d="M665.59,184.89a1.74,1.74,0,0,1-1.88,1.73,1.75,1.75,0,1,1,0-3.49A1.74,1.74,0,0,1,665.59,184.89ZM662,199.17V188h3.47v11.18Z"/><path class="cls-3" d="M676.65,198.9a8.58,8.58,0,0,1-3.11.5c-3.61,0-5.92-2.19-5.92-5.71,0-3.27,2.24-5.95,6.4-5.95a7.87,7.87,0,0,1,2.65.44l-.55,2.58a4.77,4.77,0,0,0-1.94-.34,3.13,3.13,0,0,0,.07,6.26,5.52,5.52,0,0,0,2-.34Z"/><path class="cls-3" d="M682.82,184.79V188h2.49v2.57h-2.49v4c0,1.35.32,2,1.37,2a6.22,6.22,0,0,0,1-.09l0,2.62a6.58,6.58,0,0,1-2.26.3,3.59,3.59,0,0,1-2.6-1,4.63,4.63,0,0,1-1-3.31v-4.57h-1.49V188h1.49v-2.42Z"/><path class="cls-3" d="M887.36,183.77v5.92h5.74v-5.92h3.47v15.4H893.1v-6.44h-5.74v6.44h-3.49v-15.4Z"/><path class="cls-3" d="M902.11,194.69c.11,1.44,1.53,2.13,3.15,2.13a9.79,9.79,0,0,0,3.09-.46l.45,2.36a11.14,11.14,0,0,1-4,.68c-3.8,0-6-2.19-6-5.69,0-2.83,1.76-6,5.65-6,3.61,0,5,2.82,5,5.58a9,9,0,0,1-.11,1.37Zm4.09-2.37a2,2,0,0,0-2-2.27,2.3,2.3,0,0,0-2.15,2.27Z"/><path class="cls-3" d="M917.86,199.17l-.21-1.12h-.07a4,4,0,0,1-3.2,1.37,3.42,3.42,0,0,1-3.61-3.42c0-2.91,2.61-4.3,6.56-4.28v-.16c0-.59-.32-1.44-2-1.44a6.25,6.25,0,0,0-3.09.85l-.64-2.24a9.15,9.15,0,0,1,4.34-1c3.73,0,4.92,2.2,4.92,4.83v3.88a16.55,16.55,0,0,0,.16,2.72Zm-.41-5.28c-1.83,0-3.25.41-3.25,1.76a1.25,1.25,0,0,0,1.37,1.33,1.9,1.9,0,0,0,1.81-1.28,2.82,2.82,0,0,0,.07-.6Z"/><path class="cls-3" d="M923.57,182.94h3.48v16.23h-3.48Z"/><path class="cls-3" d="M136.59,88.05h-6.27l8.11-14,8.08,14h-6.28v13.43c1.66.25,3.35.43,5,.78a34,34,0,0,1,22.53,15.6,1.9,1.9,0,0,0,1.86,1c3,0,6.06,0,9.09,0,.4,0,.79,0,1.31-.08v-6.33l14.13,8.15-14.06,8.13v-6.22a8.94,8.94,0,0,0-.94-.12c-3.32,0-6.63,0-9.95,0a1.84,1.84,0,0,0-1.33.72c-6.41,9.76-15.36,15.25-27,16.27a2.2,2.2,0,0,0-.37,0,1.51,1.51,0,0,0-.27.16v12.59h6.37l-8.16,14.14-8.12-14.05h6.37v-3.69c0-2.7,0-5.4,0-8.1,0-.78-.2-1.05-1-1.13-11.55-1.06-20.45-6.52-26.78-16.22-.21-.33-.64-.74-1-.74-3.71,0-7.42,0-11.25,0v6.37l-14.14-8.15,14.07-8.13v6.28c.5,0,.86.1,1.21.1,3.15,0,6.3,0,9.45,0a1.61,1.61,0,0,0,1.58-.84,34.38,34.38,0,0,1,24.5-16.14c1-.17,2.11-.24,3.24-.37ZM136,135.93c13.06,0,22.94-5.42,28.67-14.45a1.45,1.45,0,0,0,.1-1.85c-6.23-9.38-15-14.49-26.18-14.57s-20.19,5-26.53,14.38a1.58,1.58,0,0,0,0,2.06C118.31,130.87,127.12,135.58,136,135.93Z"/><path class="cls-3" d="M138.31,127.54a7.06,7.06,0,1,1,7.12-7A7,7,0,0,1,138.31,127.54Zm3.57-7.07a3.57,3.57,0,0,0-3.58-3.56,3.58,3.58,0,0,0,0,7.16A3.55,3.55,0,0,0,141.88,120.47Z"/><path class="cls-3" d="M693.76,104c-.41,2.22-.72,4.46-1.25,6.66a43.38,43.38,0,0,1-17.29,25.59,1.52,1.52,0,0,0-.66,2.13c3.39,9.12,6.72,18.26,10.07,27.39.14.36.27.73.44,1.22h-16v-3.29h11.16c-3.07-8.37-6.05-16.5-9.09-24.77a44.37,44.37,0,0,1-42.9,0l-9.05,24.67h28.7v-6.16l13.67,7.89c-.48.31-.82.56-1.18.77-3.72,2.15-7.45,4.29-11.16,6.45a9.31,9.31,0,0,0-1,.76h-.26v-6.2H614.21l11-30-.62-.45a43.89,43.89,0,0,1-18.41-29.08c-.27-1.53-.46-3.08-.68-4.62V98a3.27,3.27,0,0,0,.21-.72,43.46,43.46,0,0,1,9.31-24,1.44,1.44,0,0,0,.22-1.75,6.84,6.84,0,0,1,9.82-8.74,1.49,1.49,0,0,0,1.86,0,42.88,42.88,0,0,1,13.88-5.45c1.74-.36,3.51-.6,5.27-.9h7.12c.94.16,1.87.35,2.81.48A44,44,0,0,1,692.71,91c.42,2,.7,3.93,1,5.9ZM627.94,66.08c.08.32.15.52.19.73,1.15,5.72-3.6,10-9.15,8.15-1-.31-1.18.25-1.54.73a39.73,39.73,0,0,0-7.91,31,40.69,40.69,0,0,0,46.41,33.9c26.11-4,41.72-32.09,31-56.23-6.69-15-18.61-23.17-35-24.5A38.7,38.7,0,0,0,627.94,66.08Zm-3,2.52a3.5,3.5,0,1,0-7-.1,3.56,3.56,0,0,0,3.5,3.54A3.61,3.61,0,0,0,625,68.6Z"/><path class="cls-3" d="M663.09,88.6h7.43v38.52H660.18V95.18c-1.23,1.18-2.28,2.09-3.19,3.11a2.4,2.4,0,0,0-.32,1.46q0,12.84,0,25.68v1.67H646.2v-1.52c0-7.42,0-14.84,0-22.26,0-1.17-.21-1.62-1.53-1.77a18.11,18.11,0,0,1-4.6-1.41,1.38,1.38,0,0,0-1.8.32c-4.22,4.28-8.48,8.52-12.74,12.77-.33.33-.68.65-.94.9l-6.18-6.19c.18-.2.49-.54.81-.86,4.29-4.29,8.56-8.58,12.87-12.84a1.33,1.33,0,0,0,.31-1.78c-2.66-6.13-2.08-12,2.21-17.14a15.16,15.16,0,0,1,16.46-5.23c6.41,1.69,10.35,6,11.66,12.57A41.55,41.55,0,0,1,663.09,88.6Zm-23.78,6.93V80.89h15v15a12.51,12.51,0,0,0,4.94-13.57,12.66,12.66,0,0,0-24.06-1.13A12.43,12.43,0,0,0,639.31,95.53Zm24.4-3.46V123.7h3.38V92.07Zm-20.92-7.82c0,4.33,0,8.52,0,12.72a1.12,1.12,0,0,0,.79.77c2.06.12,4.14.18,6.21.14.29,0,.81-.69.81-1.06.06-4,0-8,0-12.08a2.09,2.09,0,0,0-.15-.49Zm6.84,39.43h3.52v-23a17.46,17.46,0,0,1-2.47.69c-.85.12-1.07.52-1.06,1.31,0,3,0,6,0,8.94ZM635.14,96.55,623.39,108.3l.86.82L636,97.41Z"/><path class="cls-3" d="M632.36,109.57h10.35V127H632.36Zm6.82,14V113h-3.39v10.57Z"/><path class="cls-3" d="M382.87,156.67V146.06H357.26a7.46,7.46,0,0,1-7.73-7.11c0-.46-.07-.91-.07-1.36q0-26,0-51.91c0-4,1.87-7,5.26-8a17.55,17.55,0,0,1,4.71-.37c1.12,0,1.76-.14,2.2-1.4a7,7,0,0,1,6.63-4.44,7.25,7.25,0,0,1,6.6,4.56c.15.39.28.78.44,1.25h55.86c5,0,8.16,3.18,8.17,8.13v52.48c0,5-3.19,8.14-8.15,8.14H405.93v10.56h6.34v3.58H376.52v-3.53Zm17.37-23.33L381.65,94.56c-.28.45-.49.76-.68,1.08-3.23,5.59-6.47,11.16-9.66,16.78a1.82,1.82,0,0,1-1.87,1c-5,0-10.05,0-15.07,0h-1.3c0,.39-.06.58-.06.77,0,8,0,15.94,0,23.92a4,4,0,0,0,4.41,4.33l29.48,0,44.32,0c2.89,0,4.51-1.59,4.51-4.45V85.29c0-2.78-1.65-4.42-4.46-4.42q-27.55,0-55.1,0a1.49,1.49,0,0,0-1.58,1c-2.4,4.87-9.36,5.48-12.2.89a3.47,3.47,0,0,0-3.84-1.91c-.26,0-.53,0-.79,0-3.18,0-4.76,1.56-4.76,4.72v23c0,.4,0,.8.05,1.16a2.78,2.78,0,0,0,.47.11c4.79,0,9.59,0,14.39,0a1.7,1.7,0,0,0,1.15-.83c2.44-4.12,4.82-8.28,7.22-12.43,1.85-3.2,3.7-6.39,5.63-9.74L400.7,126c.32-.48.54-.78.75-1.1,3.76-5.79,7.53-11.58,11.26-17.39a1.64,1.64,0,0,1,1.63-.9c1.38.07,2.76,0,4.26,0v-5.81l14.24,8.23-14.33,8.27v-7.1a14.82,14.82,0,0,1-1.9,0,2,2,0,0,0-2.15,1.18c-2,3.24-4.12,6.41-6.2,9.61Zm2,12.79H386.59v10.43h15.63Zm-30.43-67.4a3.6,3.6,0,0,0-3.53-3.65,3.62,3.62,0,1,0-.08,7.23A3.6,3.6,0,0,0,371.79,78.73Z"/><path class="cls-3" d="M950.33,108h-3.5c-.21-1.49-.34-2.93-.64-4.34a20,20,0,0,0-6.81-11.23c-.4-.35-.71-.7-1.31-.22a7.56,7.56,0,0,1-12.13-4.28,3.66,3.66,0,0,0-.18-.5c-9.89.4-16.42,5.51-20.3,14.68-.7-1.36-1.26-2.54-1.91-3.66-4.49-7.7-11.25-11.52-20.1-10.86-8.6.63-14.79,5.21-18,13.29-2.65,6.77-1.67,13.33,2.61,19.23a32.09,32.09,0,0,0,4.18,4l4.69-4.2,3.72,16.59-16.45-5.12,5.2-4.71c-6.51-5.36-9.52-12.24-8.9-20.55a23.39,23.39,0,0,1,8.28-16.27c10.3-9.1,27.88-8.08,36.51,4.31,1.55-1.56,3-3.27,4.7-4.69a23.66,23.66,0,0,1,15-5.6,1.79,1.79,0,0,0,1.81-1,7.46,7.46,0,0,1,9.14-3.34,7.35,7.35,0,0,1,4.77,8.35,1.21,1.21,0,0,0,.52,1.39,24,24,0,0,1,9.1,17.12C950.37,106.84,950.33,107.36,950.33,108ZM937.24,86.48a3.84,3.84,0,0,0-3.86-3.92,3.88,3.88,0,1,0,3.86,3.92Z"/><path class="cls-3" d="M944.2,135.31l2.58,2.74c-.24.25-.51.55-.79.83l-28.28,28.06c-4.76,4.71-11.08,4.83-15.92.15-5.35-5.17-10.59-10.46-15.8-15.77a10,10,0,0,1-2.64-9.48,14.71,14.71,0,0,1,4.13-7.74c5.28-5.29,10.5-10.64,15.74-16a8,8,0,0,0,.7-1l2.6,2.83c-2.55,2.59-5.23,5.32-7.92,8-3,3.08-6.14,6.07-9.05,9.25-2.13,2.34-3.32,5.19-2.53,8.4A7.86,7.86,0,0,0,889,149.1c5,5.14,10.06,10.24,15.23,15.22,3.35,3.23,7.36,3.64,11,0,9.23-9.24,18.53-18.4,27.79-27.6C943.4,136.3,943.74,135.85,944.2,135.31Z"/><path class="cls-3" d="M915.61,140.3l-2.44-2.72,25.66-26.05,2.65,2.52Z"/><path class="cls-3" d="M904.49,136.69l-2.36-2.81,25.58-26,2.39,2.78Z"/><path class="cls-3" d="M942.78,122.76l2.45,2.72L924,147.09l-2.65-2.52Z"/></svg>