<svg id="Layer_1" data-name="Layer 1" xmlns="http://www.w3.org/2000/svg" viewBox="0 0 575.47 638.39"><defs><style>.cls-1{fill:#fbc2ba;}.cls-2{fill:#fcddd6;}.cls-3{fill:#4c0519;}.cls-4{fill:none;stroke:#4c0519;stroke-miterlimit:10;stroke-width:3px;}</style></defs><title>sustainability-management</title><rect class="cls-1" width="579.47" height="209.97"/><rect class="cls-2" y="215.78" width="579.47" height="209.97"/><rect class="cls-1" y="431.78" width="579.47" height="209.97"/><path class="cls-3" d="M62.34,138.9v22.81H58.17V138.9Z"/><path class="cls-3" d="M67.14,150.14c0-1.9,0-3.49-.13-4.91H70.6l.17,2.44h.1a5.69,5.69,0,0,1,5.07-2.81,4.75,4.75,0,0,1,4.57,3h.07a6.16,6.16,0,0,1,2-2.06,5.51,5.51,0,0,1,3.32-1c2.74,0,5.51,1.86,5.51,7.14v9.71H87.38v-9.1c0-2.74-.95-4.37-2.94-4.37a3.18,3.18,0,0,0-2.91,2.2,6,6,0,0,0-.21,1.39v9.88H77.26v-9.54c0-2.3-.91-3.93-2.84-3.93a3.25,3.25,0,0,0-3,2.37A3.56,3.56,0,0,0,71.2,152v9.75H67.14Z"/><path class="cls-3" d="M95.85,150.71c0-2.16-.07-3.92-.14-5.48h3.66l.2,2.54h.07a6.43,6.43,0,0,1,5.65-2.91c3.79,0,6.94,3.25,6.94,8.39,0,6-3.76,8.83-7.51,8.83a5.42,5.42,0,0,1-4.64-2.2H100v8.53H95.85Zm4.16,4.1a4.37,4.37,0,0,0,.14,1.15,3.76,3.76,0,0,0,3.65,2.91c2.64,0,4.2-2.2,4.2-5.45,0-2.91-1.42-5.28-4.1-5.28a3.88,3.88,0,0,0-3.72,3.08,3.84,3.84,0,0,0-.17,1.05Z"/><path class="cls-3" d="M115.65,150.54c0-2.23,0-3.82-.13-5.31h3.62l.13,3.15h.14a4.91,4.91,0,0,1,4.5-3.52,4.28,4.28,0,0,1,1,.1v3.92a6.41,6.41,0,0,0-1.22-.13A3.67,3.67,0,0,0,120,151.9a6.86,6.86,0,0,0-.14,1.28v8.53h-4.16Z"/><path class="cls-3" d="M143.07,153.32c0,6.06-4.27,8.76-8.46,8.76-4.67,0-8.26-3.21-8.26-8.49s3.55-8.73,8.53-8.73S143.07,148.31,143.07,153.32Zm-12.42.17c0,3.18,1.55,5.58,4.09,5.58,2.37,0,4-2.33,4-5.65,0-2.57-1.15-5.52-4-5.52S130.65,150.75,130.65,153.49Z"/><path class="cls-3" d="M148.86,145.23l2.67,8.36a40.65,40.65,0,0,1,1.12,4.13h.1c.31-1.36.68-2.64,1.12-4.13l2.6-8.36h4.4l-6.29,16.48h-4.1l-6.12-16.48Z"/><path class="cls-3" d="M165.92,154.64c.1,3,2.44,4.26,5.08,4.26a12.41,12.41,0,0,0,4.56-.74l.61,2.87a15.39,15.39,0,0,1-5.75,1c-5.35,0-8.49-3.28-8.49-8.33,0-4.56,2.77-8.86,8-8.86s7.11,4.4,7.11,8a9.88,9.88,0,0,1-.14,1.76Zm7.24-2.91c0-1.53-.64-4-3.42-4-2.57,0-3.65,2.34-3.82,4Z"/><path class="cls-3" d="M273.6,56.73V73.84h-2.21V56.73Z"/><path class="cls-3" d="M277.64,64.88c0-1.27,0-2.31-.1-3.33h2l.12,2h.05a4.53,4.53,0,0,1,4.07-2.31c1.7,0,4.34,1,4.34,5.23v7.34h-2.24V66.76c0-2-.73-3.63-2.84-3.63a3.19,3.19,0,0,0-3,2.28,3.26,3.26,0,0,0-.15,1v7.39h-2.23Z"/><path class="cls-3" d="M302.34,55.81V70.67c0,1.09,0,2.33.1,3.17h-2l-.1-2.13h0a4.56,4.56,0,0,1-4.19,2.41c-3,0-5.26-2.51-5.26-6.25,0-4.08,2.51-6.6,5.51-6.6a4.12,4.12,0,0,1,3.71,1.88h.05V55.81Zm-2.23,10.74a4.29,4.29,0,0,0-.1-.94A3.29,3.29,0,0,0,296.78,63c-2.31,0-3.68,2-3.68,4.75,0,2.49,1.22,4.55,3.63,4.55A3.36,3.36,0,0,0,300,69.65a4.16,4.16,0,0,0,.1-1Z"/><path class="cls-3" d="M316.33,70.49c0,1.27,0,2.39.1,3.35h-2l-.12-2h-.06a4.61,4.61,0,0,1-4.06,2.29c-1.93,0-4.24-1.07-4.24-5.38V61.55h2.24v6.81c0,2.33.71,3.91,2.74,3.91a3.22,3.22,0,0,0,2.94-2,3.17,3.17,0,0,0,.21-1.14V61.55h2.23Z"/><path class="cls-3" d="M319.73,71.56a5.88,5.88,0,0,0,2.95.88c1.62,0,2.38-.81,2.38-1.82s-.63-1.65-2.28-2.26c-2.21-.79-3.25-2-3.25-3.48,0-2,1.6-3.61,4.24-3.61a6.19,6.19,0,0,1,3,.76l-.56,1.63a4.72,4.72,0,0,0-2.51-.71c-1.32,0-2.06.76-2.06,1.67s.74,1.48,2.34,2.09c2.13.81,3.22,1.87,3.22,3.7,0,2.16-1.67,3.68-4.59,3.68a7.13,7.13,0,0,1-3.46-.83Z"/><path class="cls-3" d="M332.78,58v3.53H336v1.7h-3.2v6.63c0,1.52.43,2.39,1.68,2.39a4.73,4.73,0,0,0,1.29-.16l.1,1.68a5.4,5.4,0,0,1-2,.3,3.1,3.1,0,0,1-2.41-.94A4.56,4.56,0,0,1,330.6,70V63.25h-1.91v-1.7h1.91V58.61Z"/><path class="cls-3" d="M338.49,65.39c0-1.45,0-2.7-.1-3.84h2l.07,2.41h.11a3.67,3.67,0,0,1,3.4-2.69,2.41,2.41,0,0,1,.63.08v2.11a2.86,2.86,0,0,0-.76-.08,3.13,3.13,0,0,0-3,2.87,5.35,5.35,0,0,0-.11,1v6.55h-2.21Z"/><path class="cls-3" d="M349.39,58.1a1.39,1.39,0,0,1-2.77,0,1.36,1.36,0,0,1,1.4-1.4A1.33,1.33,0,0,1,349.39,58.1ZM346.9,73.84V61.55h2.23V73.84Z"/><path class="cls-3" d="M359.64,73.84l-.17-1.55h-.08a4.58,4.58,0,0,1-3.76,1.83,3.5,3.5,0,0,1-3.76-3.53c0-3,2.64-4.6,7.39-4.57v-.25a2.54,2.54,0,0,0-2.79-2.85,6.11,6.11,0,0,0-3.2.92l-.51-1.48a7.65,7.65,0,0,1,4-1.09c3.76,0,4.67,2.57,4.67,5v4.59a17.62,17.62,0,0,0,.2,3Zm-.33-6.27c-2.43,0-5.2.38-5.2,2.77a2,2,0,0,0,2.11,2.13,3.07,3.07,0,0,0,3-2.06,2.52,2.52,0,0,0,.12-.71Z"/><path class="cls-3" d="M365.08,55.81h2.23v18h-2.23Z"/><path class="cls-3" d="M376.14,71.56a5.88,5.88,0,0,0,2.95.88c1.62,0,2.39-.81,2.39-1.82s-.64-1.65-2.29-2.26c-2.21-.79-3.25-2-3.25-3.48,0-2,1.6-3.61,4.24-3.61a6.16,6.16,0,0,1,3,.76l-.56,1.63a4.72,4.72,0,0,0-2.51-.71c-1.32,0-2.06.76-2.06,1.67s.74,1.48,2.34,2.09c2.13.81,3.22,1.87,3.22,3.7,0,2.16-1.67,3.68-4.59,3.68a7.06,7.06,0,0,1-3.45-.83Z"/><path class="cls-3" d="M393.31,73.84l-.18-1.55h-.08a4.54,4.54,0,0,1-3.75,1.83,3.5,3.5,0,0,1-3.76-3.53c0-3,2.64-4.6,7.39-4.57v-.25a2.54,2.54,0,0,0-2.8-2.85,6.14,6.14,0,0,0-3.2.92l-.5-1.48a7.58,7.58,0,0,1,4-1.09c3.76,0,4.68,2.57,4.68,5v4.59a17.62,17.62,0,0,0,.2,3ZM393,67.57c-2.44,0-5.21.38-5.21,2.77a2,2,0,0,0,2.11,2.13,3.06,3.06,0,0,0,3-2.06,2.22,2.22,0,0,0,.13-.71Z"/><path class="cls-3" d="M399,73.84V63.25h-1.73v-1.7H399V61a5.79,5.79,0,0,1,1.42-4.29,4.26,4.26,0,0,1,3-1.15,5.12,5.12,0,0,1,1.9.36l-.3,1.73a3.25,3.25,0,0,0-1.43-.28c-1.9,0-2.38,1.67-2.38,3.55v.66h3v1.7h-3V73.84Z"/><path class="cls-3" d="M407.07,68.1c.05,3,2,4.27,4.21,4.27a8,8,0,0,0,3.4-.64l.38,1.6a9.83,9.83,0,0,1-4.08.76c-3.79,0-6.05-2.48-6.05-6.19s2.19-6.63,5.77-6.63c4,0,5.08,3.53,5.08,5.79a9.4,9.4,0,0,1-.08,1Zm6.55-1.6c0-1.42-.59-3.63-3.1-3.63-2.26,0-3.25,2.08-3.43,3.63Z"/><path class="cls-3" d="M421.23,58v3.53h3.2v1.7h-3.2v6.63c0,1.52.44,2.39,1.68,2.39a4.67,4.67,0,0,0,1.29-.16l.11,1.68a5.48,5.48,0,0,1-2,.3,3.11,3.11,0,0,1-2.42-.94,4.56,4.56,0,0,1-.86-3.19V63.25h-1.9v-1.7h1.9V58.61Z"/><path class="cls-3" d="M428,61.55l2.69,7.26c.28.82.58,1.78.79,2.52h0c.22-.74.48-1.68.78-2.57l2.44-7.21h2.36l-3.35,8.76c-1.6,4.22-2.69,6.37-4.21,7.69a6,6,0,0,1-2.75,1.45l-.56-1.88a5.92,5.92,0,0,0,2-1.09A6.72,6.72,0,0,0,430.07,74a1.63,1.63,0,0,0,.18-.53,1.69,1.69,0,0,0-.16-.58l-4.54-11.33Z"/><path class="cls-3" d="M280.25,109.82H273.6V116H281v1.85h-9.63V100.73h9.25v1.85h-7V108h6.65Z"/><path class="cls-3" d="M283.81,108.88c0-1.27,0-2.31-.1-3.33h2l.1,2h.08a4.23,4.23,0,0,1,3.86-2.26,3.65,3.65,0,0,1,3.48,2.46h.05a5,5,0,0,1,1.37-1.59,4.2,4.2,0,0,1,2.72-.87c1.62,0,4,1.07,4,5.33v7.24h-2.18v-7c0-2.36-.86-3.78-2.67-3.78a2.89,2.89,0,0,0-2.64,2,3.75,3.75,0,0,0-.18,1.12v7.59H291.5v-7.36c0-2-.86-3.38-2.56-3.38a3.33,3.33,0,0,0-2.95,3.33v7.41h-2.18Z"/><path class="cls-3" d="M305,109.56c0-1.57-.05-2.84-.1-4h2l.1,2.11H307a4.83,4.83,0,0,1,4.37-2.39c3,0,5.2,2.52,5.2,6.25,0,4.42-2.69,6.6-5.59,6.6a4.31,4.31,0,0,1-3.78-1.93h-.05v6.68H305Zm2.21,3.28a5.07,5.07,0,0,0,.1.91,3.45,3.45,0,0,0,3.35,2.62c2.37,0,3.74-1.93,3.74-4.75,0-2.46-1.3-4.57-3.66-4.57a3.57,3.57,0,0,0-3.38,2.77,3.93,3.93,0,0,0-.15.91Z"/><path class="cls-3" d="M319.43,99.81h2.23v18h-2.23Z"/><path class="cls-3" d="M336.54,111.59c0,4.55-3.15,6.53-6.12,6.53-3.33,0-5.89-2.44-5.89-6.32,0-4.12,2.69-6.53,6.09-6.53S336.54,107.84,336.54,111.59Zm-9.75.13c0,2.69,1.55,4.72,3.73,4.72s3.73-2,3.73-4.77c0-2.08-1-4.72-3.68-4.72S326.79,109.39,326.79,111.72Z"/><path class="cls-3" d="M340,105.55l2.69,7.26c.28.82.59,1.78.79,2.52h0c.23-.74.48-1.68.79-2.57l2.44-7.21h2.36l-3.35,8.76c-1.6,4.22-2.7,6.37-4.22,7.69a6,6,0,0,1-2.74,1.45l-.56-1.88a5.88,5.88,0,0,0,1.95-1.09,6.61,6.61,0,0,0,1.88-2.49,1.42,1.42,0,0,0,.18-.53,1.87,1.87,0,0,0-.15-.58l-4.55-11.33Z"/><path class="cls-3" d="M352.13,112.1c.05,3,2,4.27,4.21,4.27a8,8,0,0,0,3.4-.64l.39,1.6a9.93,9.93,0,0,1-4.09.76c-3.79,0-6.05-2.48-6.05-6.19s2.19-6.63,5.77-6.63c4,0,5.08,3.53,5.08,5.79a7.43,7.43,0,0,1-.08,1Zm6.55-1.6c0-1.42-.59-3.63-3.1-3.63-2.26,0-3.25,2.08-3.43,3.63Z"/><path class="cls-3" d="M364.85,112.1c0,3,2,4.27,4.21,4.27a8,8,0,0,0,3.41-.64l.38,1.6a9.93,9.93,0,0,1-4.09.76c-3.79,0-6-2.48-6-6.19s2.18-6.63,5.76-6.63c4,0,5.08,3.53,5.08,5.79a7.43,7.43,0,0,1-.08,1Zm6.55-1.6c0-1.42-.59-3.63-3.1-3.63-2.26,0-3.25,2.08-3.43,3.63Z"/><path class="cls-3" d="M381.71,109.56c0-1.57-.06-2.84-.11-4h2l.1,2.11h.05a4.84,4.84,0,0,1,4.37-2.39c3,0,5.2,2.52,5.2,6.25,0,4.42-2.69,6.6-5.58,6.6a4.29,4.29,0,0,1-3.78-1.93h-.06v6.68h-2.2Zm2.2,3.28a5,5,0,0,0,.11.91,3.44,3.44,0,0,0,3.35,2.62c2.36,0,3.73-1.93,3.73-4.75,0-2.46-1.29-4.57-3.66-4.57a3.56,3.56,0,0,0-3.37,2.77,3.47,3.47,0,0,0-.16.91Z"/><path class="cls-3" d="M403,117.84l-.18-1.55h-.08a4.55,4.55,0,0,1-3.76,1.83,3.5,3.5,0,0,1-3.75-3.53c0-3,2.64-4.6,7.38-4.57v-.25a2.53,2.53,0,0,0-2.79-2.85,6.14,6.14,0,0,0-3.2.92l-.51-1.48a7.65,7.65,0,0,1,4-1.09c3.76,0,4.67,2.57,4.67,5v4.59a16.55,16.55,0,0,0,.21,3Zm-.33-6.27c-2.44,0-5.21.38-5.21,2.77a2,2,0,0,0,2.11,2.13,3.06,3.06,0,0,0,3-2.06,2.53,2.53,0,0,0,.13-.71Z"/><path class="cls-3" d="M408.39,109.39c0-1.45,0-2.7-.1-3.84h1.95l.08,2.41h.1a3.68,3.68,0,0,1,3.4-2.69,2.55,2.55,0,0,1,.64.08v2.11a2.94,2.94,0,0,0-.77-.08,3.13,3.13,0,0,0-3,2.87,6.33,6.33,0,0,0-.1,1v6.55h-2.21Z"/><path class="cls-3" d="M420,102v3.53h3.2v1.7H420v6.63c0,1.52.43,2.39,1.68,2.39a4.73,4.73,0,0,0,1.29-.16l.1,1.68a5.44,5.44,0,0,1-2,.3,3.09,3.09,0,0,1-2.41-.94,4.51,4.51,0,0,1-.86-3.19v-6.71H415.9v-1.7h1.91v-2.94Z"/><path class="cls-3" d="M428.19,102.1a1.31,1.31,0,0,1-1.42,1.37,1.33,1.33,0,0,1-1.35-1.37,1.37,1.37,0,0,1,1.4-1.4A1.33,1.33,0,0,1,428.19,102.1Zm-2.49,15.74V105.55h2.24v12.29Z"/><path class="cls-3" d="M440.4,117.38a8.14,8.14,0,0,1-3.53.71c-3.7,0-6.12-2.51-6.12-6.27a6.24,6.24,0,0,1,6.6-6.52,7.53,7.53,0,0,1,3.1.63l-.51,1.73a5.1,5.1,0,0,0-2.59-.59c-2.81,0-4.34,2.09-4.34,4.65,0,2.84,1.83,4.6,4.27,4.6a6.31,6.31,0,0,0,2.74-.61Z"/><path class="cls-3" d="M445.5,102.1a1.31,1.31,0,0,1-1.42,1.37,1.33,1.33,0,0,1-1.34-1.37,1.36,1.36,0,0,1,1.39-1.4A1.33,1.33,0,0,1,445.5,102.1ZM443,117.84V105.55h2.23v12.29Z"/><path class="cls-3" d="M449,109.56c0-1.57,0-2.84-.11-4h2l.1,2.11H451a4.84,4.84,0,0,1,4.37-2.39c3,0,5.21,2.52,5.21,6.25,0,4.42-2.7,6.6-5.59,6.6a4.29,4.29,0,0,1-3.78-1.93h-.05v6.68H449Zm2.21,3.28a5.07,5.07,0,0,0,.1.91,3.44,3.44,0,0,0,3.35,2.62c2.36,0,3.73-1.93,3.73-4.75,0-2.46-1.29-4.57-3.66-4.57a3.56,3.56,0,0,0-3.37,2.77,3.47,3.47,0,0,0-.15.91Z"/><path class="cls-3" d="M470.21,117.84l-.18-1.55H470a4.55,4.55,0,0,1-3.76,1.83,3.5,3.5,0,0,1-3.75-3.53c0-3,2.64-4.6,7.39-4.57v-.25a2.54,2.54,0,0,0-2.8-2.85,6.14,6.14,0,0,0-3.2.92l-.5-1.48a7.58,7.58,0,0,1,4-1.09c3.76,0,4.67,2.57,4.67,5v4.59a17.55,17.55,0,0,0,.21,3Zm-.33-6.27c-2.44,0-5.21.38-5.21,2.77a2,2,0,0,0,2.11,2.13,3.06,3.06,0,0,0,3-2.06,2.22,2.22,0,0,0,.13-.71Z"/><path class="cls-3" d="M478.23,102v3.53h3.2v1.7h-3.2v6.63c0,1.52.43,2.39,1.67,2.39a4.76,4.76,0,0,0,1.3-.16l.1,1.68a5.44,5.44,0,0,1-2,.3,3.09,3.09,0,0,1-2.41-.94,4.51,4.51,0,0,1-.86-3.19v-6.71h-1.91v-1.7h1.91v-2.94Z"/><path class="cls-3" d="M486.43,102.1a1.39,1.39,0,0,1-2.77,0,1.37,1.37,0,0,1,1.4-1.4A1.33,1.33,0,0,1,486.43,102.1Zm-2.49,15.74V105.55h2.24v12.29Z"/><path class="cls-3" d="M501,111.59c0,4.55-3.15,6.53-6.12,6.53-3.32,0-5.89-2.44-5.89-6.32,0-4.12,2.69-6.53,6.1-6.53S501,107.84,501,111.59Zm-9.75.13c0,2.69,1.55,4.72,3.73,4.72s3.74-2,3.74-4.77c0-2.08-1-4.72-3.68-4.72S491.25,109.39,491.25,111.72Z"/><path class="cls-3" d="M503.82,108.88c0-1.27,0-2.31-.1-3.33h2l.13,2h.05a4.51,4.51,0,0,1,4.06-2.31c1.7,0,4.34,1,4.34,5.23v7.34h-2.23v-7.08c0-2-.74-3.63-2.85-3.63a3.17,3.17,0,0,0-3,2.28,3,3,0,0,0-.16,1v7.39h-2.23Z"/><path class="cls-3" d="M271.09,159.15a7.83,7.83,0,0,0,4,1.12c2.26,0,3.58-1.2,3.58-2.92s-.91-2.52-3.23-3.41c-2.79-1-4.51-2.43-4.51-4.85,0-2.66,2.2-4.64,5.53-4.64a7.66,7.66,0,0,1,3.78.84l-.61,1.8a6.72,6.72,0,0,0-3.25-.81c-2.33,0-3.22,1.39-3.22,2.56,0,1.6,1,2.39,3.4,3.3,2.9,1.12,4.37,2.51,4.37,5s-2,4.92-6,4.92a8.84,8.84,0,0,1-4.37-1.09Z"/><path class="cls-3" d="M294.12,158.49c0,1.27,0,2.39.1,3.35h-2l-.13-2h-.05a4.62,4.62,0,0,1-4.06,2.29c-1.93,0-4.24-1.07-4.24-5.38v-7.19H286v6.81c0,2.33.71,3.91,2.74,3.91a3.25,3.25,0,0,0,2.95-2,3.17,3.17,0,0,0,.2-1.14v-7.54h2.24Z"/><path class="cls-3" d="M297.52,159.56a5.87,5.87,0,0,0,2.94.88c1.63,0,2.39-.81,2.39-1.82s-.63-1.65-2.29-2.26c-2.2-.79-3.25-2-3.25-3.48,0-2,1.6-3.61,4.25-3.61a6.22,6.22,0,0,1,3,.76l-.56,1.63a4.73,4.73,0,0,0-2.52-.71c-1.32,0-2.05.76-2.05,1.67s.73,1.48,2.33,2.09c2.14.81,3.23,1.87,3.23,3.7,0,2.16-1.68,3.68-4.6,3.68a7.09,7.09,0,0,1-3.45-.83Z"/><path class="cls-3" d="M310.57,146v3.53h3.2v1.7h-3.2v6.63c0,1.52.43,2.39,1.67,2.39a4.76,4.76,0,0,0,1.3-.16l.1,1.68a5.44,5.44,0,0,1-2,.3,3.09,3.09,0,0,1-2.41-.94,4.51,4.51,0,0,1-.87-3.19v-6.71h-1.9v-1.7h1.9v-2.94Z"/><path class="cls-3" d="M323.08,161.84l-.17-1.55h-.08a4.58,4.58,0,0,1-3.76,1.83,3.5,3.5,0,0,1-3.76-3.53c0-3,2.65-4.6,7.39-4.57v-.25a2.54,2.54,0,0,0-2.79-2.85,6.11,6.11,0,0,0-3.2.92l-.51-1.48a7.65,7.65,0,0,1,4-1.09c3.76,0,4.67,2.57,4.67,5v4.59a16.55,16.55,0,0,0,.21,3Zm-.33-6.27c-2.43,0-5.2.38-5.2,2.77a2,2,0,0,0,2.11,2.13,3.06,3.06,0,0,0,3-2.06,2.52,2.52,0,0,0,.12-.71Z"/><path class="cls-3" d="M331,146.1a1.39,1.39,0,0,1-2.77,0,1.36,1.36,0,0,1,1.39-1.4A1.33,1.33,0,0,1,331,146.1Zm-2.49,15.74V149.55h2.23v12.29Z"/><path class="cls-3" d="M334.46,152.88c0-1.27,0-2.31-.1-3.33h2l.12,2h.05a4.53,4.53,0,0,1,4.07-2.31c1.7,0,4.34,1,4.34,5.23v7.34h-2.24v-7.08c0-2-.73-3.63-2.84-3.63a3.18,3.18,0,0,0-3,2.28,3.26,3.26,0,0,0-.15,1v7.39h-2.23Z"/><path class="cls-3" d="M355.35,161.84l-.17-1.55h-.08a4.58,4.58,0,0,1-3.76,1.83,3.5,3.5,0,0,1-3.76-3.53c0-3,2.64-4.6,7.39-4.57v-.25a2.54,2.54,0,0,0-2.79-2.85,6.11,6.11,0,0,0-3.2.92l-.51-1.48a7.65,7.65,0,0,1,4-1.09c3.76,0,4.67,2.57,4.67,5v4.59a17.62,17.62,0,0,0,.2,3Zm-.33-6.27c-2.43,0-5.2.38-5.2,2.77a2,2,0,0,0,2.11,2.13,3.07,3.07,0,0,0,3-2.06,2.52,2.52,0,0,0,.12-.71Z"/><path class="cls-3" d="M360.68,161.84c.05-.84.11-2.08.11-3.17V143.81H363v7.72h.06a4.56,4.56,0,0,1,4.18-2.26c3,0,5.21,2.54,5.18,6.27,0,4.4-2.76,6.58-5.51,6.58a4.39,4.39,0,0,1-4.11-2.31h-.07l-.11,2Zm2.31-4.93a4.38,4.38,0,0,0,.11.82,3.43,3.43,0,0,0,3.35,2.61c2.33,0,3.73-1.9,3.73-4.72,0-2.46-1.27-4.57-3.66-4.57a3.56,3.56,0,0,0-3.4,2.74,4.52,4.52,0,0,0-.13.92Z"/><path class="cls-3" d="M377.72,146.1a1.39,1.39,0,0,1-2.77,0,1.37,1.37,0,0,1,1.4-1.4A1.33,1.33,0,0,1,377.72,146.1Zm-2.49,15.74V149.55h2.24v12.29Z"/><path class="cls-3" d="M381.17,143.81h2.24v18h-2.24Z"/><path class="cls-3" d="M389.65,146.1a1.31,1.31,0,0,1-1.42,1.37,1.33,1.33,0,0,1-1.35-1.37,1.37,1.37,0,0,1,1.4-1.4A1.33,1.33,0,0,1,389.65,146.1Zm-2.49,15.74V149.55h2.24v12.29Z"/><path class="cls-3" d="M395.79,146v3.53H399v1.7h-3.2v6.63c0,1.52.44,2.39,1.68,2.39a4.82,4.82,0,0,0,1.3-.16l.1,1.68a5.48,5.48,0,0,1-2,.3,3.12,3.12,0,0,1-2.42-.94,4.56,4.56,0,0,1-.86-3.19v-6.71h-1.9v-1.7h1.9v-2.94Z"/><path class="cls-3" d="M402.55,149.55l2.69,7.26c.28.82.58,1.78.79,2.52h.05c.23-.74.48-1.68.78-2.57l2.44-7.21h2.36l-3.35,8.76c-1.6,4.22-2.69,6.37-4.21,7.69a6,6,0,0,1-2.75,1.45l-.55-1.88a6,6,0,0,0,1.95-1.09,6.72,6.72,0,0,0,1.88-2.49,1.63,1.63,0,0,0,.18-.53,1.69,1.69,0,0,0-.16-.58l-4.54-11.33Z"/><path class="cls-3" d="M419.07,153.39c0-1.45,0-2.7-.1-3.84h2L421,152h.11a3.67,3.67,0,0,1,3.4-2.69,2.41,2.41,0,0,1,.63.08v2.11a2.86,2.86,0,0,0-.76-.08,3.13,3.13,0,0,0-3,2.87,5.35,5.35,0,0,0-.11,1v6.55h-2.21Z"/><path class="cls-3" d="M428.37,156.1c.05,3,2,4.27,4.21,4.27a8,8,0,0,0,3.4-.64l.38,1.6a9.83,9.83,0,0,1-4.08.76c-3.79,0-6-2.48-6-6.19s2.19-6.63,5.77-6.63c4,0,5.08,3.53,5.08,5.79a9.4,9.4,0,0,1-.08,1Zm6.55-1.6c0-1.42-.59-3.63-3.1-3.63-2.26,0-3.25,2.08-3.43,3.63Z"/><path class="cls-3" d="M439.84,153.56c0-1.57,0-2.84-.1-4h2l.1,2.11h0a4.83,4.83,0,0,1,4.37-2.39c3,0,5.2,2.52,5.2,6.25,0,4.42-2.69,6.6-5.58,6.6a4.32,4.32,0,0,1-3.79-1.93h-.05v6.68h-2.21Zm2.21,3.28a5.07,5.07,0,0,0,.1.91,3.45,3.45,0,0,0,3.35,2.62c2.37,0,3.74-1.93,3.74-4.75,0-2.46-1.3-4.57-3.66-4.57a3.58,3.58,0,0,0-3.38,2.77,3.93,3.93,0,0,0-.15.91Z"/><path class="cls-3" d="M465.41,155.59c0,4.55-3.15,6.53-6.12,6.53-3.33,0-5.89-2.44-5.89-6.32,0-4.12,2.69-6.53,6.09-6.53S465.41,151.84,465.41,155.59Zm-9.75.13c0,2.69,1.55,4.72,3.73,4.72s3.73-2,3.73-4.77c0-2.08-1-4.72-3.68-4.72S455.66,153.39,455.66,155.72Z"/><path class="cls-3" d="M468.23,153.39c0-1.45,0-2.7-.11-3.84h2l.08,2.41h.1a3.68,3.68,0,0,1,3.4-2.69,2.41,2.41,0,0,1,.63.08v2.11a2.81,2.81,0,0,0-.76-.08,3.13,3.13,0,0,0-3,2.87,6.26,6.26,0,0,0-.11,1v6.55h-2.2Z"/><path class="cls-3" d="M479.83,146v3.53H483v1.7h-3.2v6.63c0,1.52.43,2.39,1.67,2.39a4.76,4.76,0,0,0,1.3-.16l.1,1.68a5.44,5.44,0,0,1-2,.3,3.09,3.09,0,0,1-2.41-.94,4.51,4.51,0,0,1-.87-3.19v-6.71h-1.9v-1.7h1.9v-2.94Z"/><path class="cls-3" d="M488,146.1a1.39,1.39,0,0,1-2.77,0,1.36,1.36,0,0,1,1.4-1.4A1.33,1.33,0,0,1,488,146.1Zm-2.49,15.74V149.55h2.23v12.29Z"/><path class="cls-3" d="M491.48,152.88c0-1.27,0-2.31-.1-3.33h2l.13,2h.05a4.51,4.51,0,0,1,4.06-2.31c1.7,0,4.34,1,4.34,5.23v7.34h-2.23v-7.08c0-2-.74-3.63-2.85-3.63a3.17,3.17,0,0,0-3,2.28,3.25,3.25,0,0,0-.16,1v7.39h-2.23Z"/><path class="cls-3" d="M516.16,149.55c0,.89-.1,1.88-.1,3.38v7.13c0,2.82-.56,4.55-1.75,5.61a6.52,6.52,0,0,1-4.47,1.48,7.92,7.92,0,0,1-4.09-1l.56-1.7a6.89,6.89,0,0,0,3.6,1c2.29,0,4-1.19,4-4.29v-1.37h0a4.36,4.36,0,0,1-3.91,2.06c-3,0-5.23-2.59-5.23-6,0-4.17,2.72-6.53,5.54-6.53a4.09,4.09,0,0,1,3.83,2.13h.05l.1-1.85Zm-2.31,4.85a3.17,3.17,0,0,0-.13-1A3.22,3.22,0,0,0,510.6,151c-2.13,0-3.66,1.81-3.66,4.65,0,2.41,1.22,4.42,3.63,4.42a3.27,3.27,0,0,0,3.1-2.29,3.78,3.78,0,0,0,.18-1.19Z"/><circle class="cls-4" cx="246.36" cy="67" r="4.5"/><circle class="cls-4" cx="246.37" cy="109.97" r="4.5"/><circle class="cls-4" cx="246.39" cy="152.93" r="4.5"/><circle class="cls-4" cx="246.36" cy="274" r="4.5"/><circle class="cls-4" cx="246.37" cy="316.97" r="4.5"/><circle class="cls-4" cx="246.39" cy="359.93" r="4.5"/><circle class="cls-4" cx="246.36" cy="490" r="4.5"/><circle class="cls-4" cx="246.37" cy="532.97" r="4.5"/><circle class="cls-4" cx="246.39" cy="575.93" r="4.5"/><path class="cls-3" d="M65.33,358.2a39.69,39.69,0,0,1,6.3-.47c3.28,0,5.51.54,7,1.83a5.78,5.78,0,0,1,2,4.57,6.09,6.09,0,0,1-4.13,5.72v.1c1.63.61,2.61,2.2,3.18,4.4a44.4,44.4,0,0,0,1.8,6.36h-4.3a32,32,0,0,1-1.52-5.38c-.65-3-1.73-3.93-4.1-4h-2.1v9.37H65.33Zm4.13,10.09h2.47c2.81,0,4.57-1.49,4.57-3.76,0-2.5-1.76-3.65-4.47-3.65a12.15,12.15,0,0,0-2.57.2Z"/><path class="cls-3" d="M87.47,373.64c.1,3,2.44,4.26,5.08,4.26a12.51,12.51,0,0,0,4.57-.74l.6,2.87a15.39,15.39,0,0,1-5.75,1c-5.35,0-8.49-3.28-8.49-8.33,0-4.56,2.77-8.86,8-8.86s7.11,4.4,7.11,8a9.88,9.88,0,0,1-.14,1.76Zm7.24-2.91c0-1.53-.64-4-3.41-4-2.58,0-3.66,2.34-3.83,4Z"/><path class="cls-3" d="M117.19,356.68v19.39c0,1.7.07,3.52.13,4.64H113.6l-.17-2.6h-.07a5.93,5.93,0,0,1-5.38,3c-3.92,0-7-3.35-7-8.42,0-5.52,3.42-8.8,7.38-8.8A5.25,5.25,0,0,1,113,366H113v-9.34ZM113,371.1a5.57,5.57,0,0,0-.11-1.08,3.64,3.64,0,0,0-3.58-2.95c-2.68,0-4.17,2.37-4.17,5.45s1.49,5.21,4.13,5.21a3.67,3.67,0,0,0,3.59-2.94,4.7,4.7,0,0,0,.14-1.22Z"/><path class="cls-3" d="M136.42,375.77c0,2,.06,3.59.13,4.94H132.9l-.21-2.5h-.06a6,6,0,0,1-5.28,2.87c-3,0-5.76-1.79-5.76-7.17v-9.68h4.17v9c0,2.74.88,4.5,3.07,4.5a3.53,3.53,0,0,0,3.19-2.23,4,4,0,0,0,.23-1.29v-9.95h4.17Z"/><path class="cls-3" d="M153,380.2a12,12,0,0,1-4.67.85c-5.15,0-8.5-3.28-8.5-8.39,0-4.94,3.39-8.8,9.17-8.8a10.38,10.38,0,0,1,4,.78l-.74,3.11a7.28,7.28,0,0,0-3.15-.64c-3.18,0-5.08,2.33-5,5.34,0,3.39,2.2,5.32,5,5.32a8.1,8.1,0,0,0,3.28-.65Z"/><path class="cls-3" d="M158.76,373.64c.1,3,2.44,4.26,5.08,4.26a12.51,12.51,0,0,0,4.57-.74L169,380a15.49,15.49,0,0,1-5.76,1c-5.35,0-8.49-3.28-8.49-8.33,0-4.56,2.77-8.86,8-8.86s7.11,4.4,7.11,8a9.88,9.88,0,0,1-.14,1.76Zm7.24-2.91c0-1.53-.64-4-3.41-4-2.58,0-3.66,2.34-3.83,4Z"/><path class="cls-3" d="M280.25,275.82H273.6V282H281v1.85h-9.63V266.73h9.25v1.85h-7V274h6.65Z"/><path class="cls-3" d="M283.81,274.88c0-1.27,0-2.31-.1-3.33h2l.1,2h.08a4.23,4.23,0,0,1,3.86-2.26,3.65,3.65,0,0,1,3.48,2.46h.05a5,5,0,0,1,1.37-1.59,4.2,4.2,0,0,1,2.72-.87c1.62,0,4,1.07,4,5.33v7.24h-2.18v-7c0-2.36-.86-3.78-2.67-3.78a2.89,2.89,0,0,0-2.64,2,3.75,3.75,0,0,0-.18,1.12v7.59H291.5v-7.36c0-2-.86-3.38-2.56-3.38a3.33,3.33,0,0,0-2.95,3.33v7.41h-2.18Z"/><path class="cls-3" d="M307.47,268.1a1.31,1.31,0,0,1-1.42,1.37,1.33,1.33,0,0,1-1.35-1.37,1.37,1.37,0,0,1,1.4-1.4A1.33,1.33,0,0,1,307.47,268.1ZM305,283.84V271.55h2.24v12.29Z"/><path class="cls-3" d="M310.62,281.56a5.87,5.87,0,0,0,2.94.88c1.63,0,2.39-.81,2.39-1.82s-.64-1.65-2.29-2.26c-2.2-.79-3.25-2-3.25-3.48,0-2,1.6-3.61,4.24-3.61a6.23,6.23,0,0,1,3,.76l-.56,1.63a4.73,4.73,0,0,0-2.52-.71c-1.32,0-2.05.76-2.05,1.67s.73,1.48,2.33,2.09c2.14.81,3.23,1.87,3.23,3.7,0,2.16-1.68,3.68-4.6,3.68a7.09,7.09,0,0,1-3.45-.83Z"/><path class="cls-3" d="M320.67,281.56a5.88,5.88,0,0,0,2.95.88c1.62,0,2.38-.81,2.38-1.82s-.63-1.65-2.28-2.26c-2.21-.79-3.25-2-3.25-3.48,0-2,1.6-3.61,4.24-3.61a6.22,6.22,0,0,1,3,.76l-.56,1.63a4.72,4.72,0,0,0-2.51-.71c-1.32,0-2.06.76-2.06,1.67s.74,1.48,2.34,2.09c2.13.81,3.22,1.87,3.22,3.7,0,2.16-1.67,3.68-4.59,3.68a7.13,7.13,0,0,1-3.46-.83Z"/><path class="cls-3" d="M333.52,268.1a1.39,1.39,0,0,1-2.77,0,1.36,1.36,0,0,1,1.4-1.4A1.33,1.33,0,0,1,333.52,268.1ZM331,283.84V271.55h2.23v12.29Z"/><path class="cls-3" d="M348.09,277.59c0,4.55-3.15,6.53-6.12,6.53-3.32,0-5.89-2.44-5.89-6.32,0-4.12,2.69-6.53,6.1-6.53S348.09,273.84,348.09,277.59Zm-9.75.13c0,2.69,1.55,4.72,3.73,4.72s3.74-2,3.74-4.77c0-2.08-1-4.72-3.69-4.72S338.34,275.39,338.34,277.72Z"/><path class="cls-3" d="M350.91,274.88c0-1.27,0-2.31-.1-3.33h2l.12,2H353a4.5,4.5,0,0,1,4.06-2.31c1.7,0,4.34,1,4.34,5.23v7.34h-2.23v-7.08c0-2-.74-3.63-2.85-3.63a3.17,3.17,0,0,0-3,2.28,3,3,0,0,0-.16,1v7.39h-2.23Z"/><path class="cls-3" d="M364.69,281.56a5.88,5.88,0,0,0,2.95.88c1.63,0,2.39-.81,2.39-1.82s-.64-1.65-2.29-2.26c-2.21-.79-3.25-2-3.25-3.48,0-2,1.6-3.61,4.24-3.61a6.16,6.16,0,0,1,3,.76l-.56,1.63a4.72,4.72,0,0,0-2.51-.71c-1.32,0-2.06.76-2.06,1.67s.74,1.48,2.34,2.09c2.13.81,3.22,1.87,3.22,3.7,0,2.16-1.67,3.68-4.59,3.68a7.06,7.06,0,0,1-3.45-.83Z"/><path class="cls-3" d="M387.24,283.84l-.18-1.55H387a4.58,4.58,0,0,1-3.76,1.83,3.5,3.5,0,0,1-3.76-3.53c0-3,2.64-4.6,7.39-4.57v-.25a2.54,2.54,0,0,0-2.79-2.85,6.09,6.09,0,0,0-3.2.92l-.51-1.48a7.62,7.62,0,0,1,4-1.09c3.75,0,4.67,2.57,4.67,5v4.59a17.62,17.62,0,0,0,.2,2.95Zm-.33-6.27c-2.44-.05-5.21.38-5.21,2.77a2,2,0,0,0,2.11,2.13,3.05,3.05,0,0,0,3-2.06,2.22,2.22,0,0,0,.13-.71Z"/><path class="cls-3" d="M392.67,274.88c0-1.27,0-2.31-.1-3.33h2l.13,2h.05a4.51,4.51,0,0,1,4.06-2.31c1.7,0,4.34,1,4.34,5.23v7.34H400.9v-7.08c0-2-.74-3.63-2.84-3.63a3.17,3.17,0,0,0-3,2.28,3.26,3.26,0,0,0-.15,1v7.39h-2.24Z"/><path class="cls-3" d="M417.38,265.81v14.86c0,1.09,0,2.33.1,3.17h-2l-.1-2.13h-.05a4.55,4.55,0,0,1-4.19,2.41c-3,0-5.26-2.51-5.26-6.25,0-4.08,2.52-6.6,5.51-6.6a4.12,4.12,0,0,1,3.71,1.88h.05v-7.34Zm-2.24,10.74a3.76,3.76,0,0,0-.1-.94,3.29,3.29,0,0,0-3.22-2.59c-2.31,0-3.69,2-3.69,4.75,0,2.49,1.22,4.55,3.64,4.55a3.36,3.36,0,0,0,3.27-2.67,3.68,3.68,0,0,0,.1-1Z"/><path class="cls-3" d="M427.35,271.55,429,277.8c.35,1.37.68,2.64.91,3.91H430c.28-1.25.68-2.57,1.09-3.89l2-6.27h1.87l1.91,6.15c.46,1.47.81,2.76,1.09,4H438a35.29,35.29,0,0,1,.94-4l1.75-6.17h2.21l-4,12.29h-2L435.05,278a39.74,39.74,0,0,1-1.1-4h-.05a35.82,35.82,0,0,1-1.11,4.06l-2,5.84h-2l-3.7-12.29Z"/><path class="cls-3" d="M451.85,283.84l-.17-1.55h-.08a4.58,4.58,0,0,1-3.76,1.83,3.5,3.5,0,0,1-3.76-3.53c0-3,2.64-4.6,7.39-4.57v-.25a2.54,2.54,0,0,0-2.79-2.85,6.11,6.11,0,0,0-3.2.92l-.51-1.48a7.65,7.65,0,0,1,4-1.09c3.76,0,4.67,2.57,4.67,5v4.59a17.62,17.62,0,0,0,.2,2.95Zm-.33-6.27c-2.43-.05-5.2.38-5.2,2.77a2,2,0,0,0,2.11,2.13,3.07,3.07,0,0,0,3-2.06,2.52,2.52,0,0,0,.12-.71Z"/><path class="cls-3" d="M457,281.56a5.88,5.88,0,0,0,2.95.88c1.62,0,2.38-.81,2.38-1.82s-.63-1.65-2.28-2.26c-2.21-.79-3.25-2-3.25-3.48,0-2,1.6-3.61,4.24-3.61a6.22,6.22,0,0,1,3,.76l-.56,1.63A4.72,4.72,0,0,0,461,273c-1.32,0-2.06.76-2.06,1.67s.74,1.48,2.34,2.09c2.13.81,3.22,1.87,3.22,3.7,0,2.16-1.67,3.68-4.59,3.68a7.13,7.13,0,0,1-3.46-.83Z"/><path class="cls-3" d="M470,268v3.53h3.2v1.7H470v6.63c0,1.52.43,2.39,1.68,2.39a4.73,4.73,0,0,0,1.29-.16l.1,1.68a5.4,5.4,0,0,1-2,.3,3.09,3.09,0,0,1-2.41-.94,4.56,4.56,0,0,1-.86-3.19v-6.71h-1.91v-1.7h1.91v-2.94Z"/><path class="cls-3" d="M476.83,278.1c.06,3,2,4.27,4.22,4.27a8,8,0,0,0,3.4-.64l.38,1.6a9.85,9.85,0,0,1-4.09.76c-3.78,0-6-2.48-6-6.19s2.19-6.63,5.77-6.63c4,0,5.07,3.53,5.07,5.79a10,10,0,0,1-.07,1Zm6.56-1.6c0-1.42-.59-3.63-3.1-3.63-2.26,0-3.25,2.08-3.43,3.63Z"/><path class="cls-3" d="M280.25,319.82H273.6V326H281v1.85h-9.63V310.73h9.25v1.85h-7V318h6.65Z"/><path class="cls-3" d="M283.81,318.88c0-1.27,0-2.31-.1-3.33h2l.12,2h.05a4.53,4.53,0,0,1,4.07-2.31c1.7,0,4.34,1,4.34,5.23v7.34H292v-7.08c0-2-.73-3.63-2.84-3.63a3.19,3.19,0,0,0-3,2.28,3.26,3.26,0,0,0-.15,1v7.39h-2.23Z"/><path class="cls-3" d="M299.14,322.1c.05,3,2,4.27,4.22,4.27a8,8,0,0,0,3.4-.64l.38,1.6a9.89,9.89,0,0,1-4.09.76c-3.78,0-6-2.48-6-6.19s2.18-6.63,5.76-6.63c4,0,5.08,3.53,5.08,5.79a10,10,0,0,1-.07,1Zm6.55-1.6c0-1.42-.58-3.63-3.09-3.63-2.26,0-3.25,2.08-3.43,3.63Z"/><path class="cls-3" d="M310.62,319.39c0-1.45,0-2.7-.1-3.84h2l.08,2.41h.1a3.68,3.68,0,0,1,3.4-2.69,2.49,2.49,0,0,1,.64.08v2.11a2.91,2.91,0,0,0-.76-.08,3.13,3.13,0,0,0-3,2.87,6.33,6.33,0,0,0-.1,1v6.55h-2.21Z"/><path class="cls-3" d="M329.31,315.55c-.06.89-.11,1.88-.11,3.38v7.13c0,2.82-.56,4.55-1.75,5.61a6.5,6.5,0,0,1-4.47,1.48,8,8,0,0,1-4.09-1l.56-1.7a7,7,0,0,0,3.61,1c2.28,0,4-1.19,4-4.29v-1.37h0a4.38,4.38,0,0,1-3.91,2.06c-3.05,0-5.23-2.59-5.23-6,0-4.17,2.72-6.53,5.53-6.53a4.11,4.11,0,0,1,3.84,2.13h.05l.1-1.85ZM327,320.4a3.18,3.18,0,0,0-.12-1,3.23,3.23,0,0,0-3.13-2.37c-2.13,0-3.65,1.81-3.65,4.65,0,2.41,1.22,4.42,3.63,4.42a3.28,3.28,0,0,0,3.1-2.29,4.08,4.08,0,0,0,.17-1.19Z"/><path class="cls-3" d="M333.72,315.55l2.69,7.26c.28.82.59,1.78.79,2.52h.05c.23-.74.48-1.68.79-2.57l2.43-7.21h2.37l-3.36,8.76c-1.59,4.22-2.69,6.37-4.21,7.69a6,6,0,0,1-2.74,1.45l-.56-1.88a5.88,5.88,0,0,0,1.95-1.09A6.61,6.61,0,0,0,335.8,328a1.63,1.63,0,0,0,.18-.53,1.87,1.87,0,0,0-.15-.58l-4.55-11.33Z"/><path class="cls-3" d="M359,327.38a8.18,8.18,0,0,1-3.53.71c-3.71,0-6.12-2.51-6.12-6.27a6.24,6.24,0,0,1,6.6-6.52,7.57,7.57,0,0,1,3.1.63l-.51,1.73a5.1,5.1,0,0,0-2.59-.59c-2.82,0-4.34,2.09-4.34,4.65,0,2.84,1.83,4.6,4.27,4.6a6.38,6.38,0,0,0,2.74-.61Z"/><path class="cls-3" d="M372.59,321.59c0,4.55-3.15,6.53-6.12,6.53-3.32,0-5.89-2.44-5.89-6.32,0-4.12,2.69-6.53,6.1-6.53S372.59,317.84,372.59,321.59Zm-9.75.13c0,2.69,1.55,4.72,3.73,4.72s3.74-2,3.74-4.77c0-2.08-1-4.72-3.69-4.72S362.84,319.39,362.84,321.72Z"/><path class="cls-3" d="M375.41,318.88c0-1.27,0-2.31-.1-3.33h2l.12,2h.06a4.5,4.5,0,0,1,4.06-2.31c1.7,0,4.34,1,4.34,5.23v7.34h-2.23v-7.08c0-2-.74-3.63-2.85-3.63a3.17,3.17,0,0,0-3,2.28,3,3,0,0,0-.16,1v7.39h-2.23Z"/><path class="cls-3" d="M389.19,325.56a5.88,5.88,0,0,0,2.95.88c1.63,0,2.39-.81,2.39-1.82s-.64-1.65-2.29-2.26c-2.21-.79-3.25-2-3.25-3.48,0-2,1.6-3.61,4.24-3.61a6.16,6.16,0,0,1,3,.76l-.56,1.63a4.72,4.72,0,0,0-2.51-.71c-1.32,0-2.06.76-2.06,1.67s.74,1.48,2.34,2.09c2.13.81,3.22,1.87,3.22,3.7,0,2.16-1.67,3.68-4.59,3.68a7.06,7.06,0,0,1-3.45-.83Z"/><path class="cls-3" d="M409.84,324.49c0,1.27,0,2.39.1,3.35h-2l-.13-2h-.05a4.62,4.62,0,0,1-4.06,2.29c-1.93,0-4.24-1.07-4.24-5.38v-7.19h2.23v6.81c0,2.33.71,3.91,2.74,3.91a3.25,3.25,0,0,0,2.95-2,3.17,3.17,0,0,0,.2-1.14v-7.54h2.24Z"/><path class="cls-3" d="M413.54,318.88c0-1.27,0-2.31-.1-3.33h2l.1,2h.07a4.24,4.24,0,0,1,3.86-2.26,3.63,3.63,0,0,1,3.48,2.46h0a5.16,5.16,0,0,1,1.37-1.59,4.2,4.2,0,0,1,2.72-.87c1.63,0,4,1.07,4,5.33v7.24H428.9v-7c0-2.36-.86-3.78-2.66-3.78a2.89,2.89,0,0,0-2.64,2,3.75,3.75,0,0,0-.18,1.12v7.59h-2.18v-7.36c0-2-.87-3.38-2.57-3.38a3.06,3.06,0,0,0-2.77,2.23,3.29,3.29,0,0,0-.17,1.1v7.41h-2.19Z"/><path class="cls-3" d="M434.72,319.56c0-1.57-.05-2.84-.11-4h2l.1,2.11h0a4.84,4.84,0,0,1,4.37-2.39c3,0,5.21,2.52,5.21,6.25,0,4.42-2.7,6.6-5.59,6.6a4.29,4.29,0,0,1-3.78-1.93h-.05v6.68h-2.21Zm2.21,3.28a5.07,5.07,0,0,0,.1.91,3.44,3.44,0,0,0,3.35,2.62c2.36,0,3.73-1.93,3.73-4.75,0-2.46-1.29-4.57-3.66-4.57a3.56,3.56,0,0,0-3.37,2.77,3.47,3.47,0,0,0-.15.91Z"/><path class="cls-3" d="M451.85,312v3.53h3.2v1.7h-3.2v6.63c0,1.52.43,2.39,1.68,2.39a4.73,4.73,0,0,0,1.29-.16l.11,1.68a5.5,5.5,0,0,1-2,.3,3.1,3.1,0,0,1-2.41-.94,4.56,4.56,0,0,1-.86-3.19v-6.71h-1.9v-1.7h1.9v-2.94Z"/><path class="cls-3" d="M460.05,312.1a1.38,1.38,0,0,1-2.76,0,1.36,1.36,0,0,1,1.39-1.4A1.33,1.33,0,0,1,460.05,312.1Zm-2.49,15.74V315.55h2.24v12.29Z"/><path class="cls-3" d="M474.63,321.59c0,4.55-3.15,6.53-6.12,6.53-3.33,0-5.89-2.44-5.89-6.32,0-4.12,2.69-6.53,6.09-6.53S474.63,317.84,474.63,321.59Zm-9.75.13c0,2.69,1.55,4.72,3.73,4.72s3.73-2,3.73-4.77c0-2.08-1-4.72-3.68-4.72S464.88,319.39,464.88,321.72Z"/><path class="cls-3" d="M477.44,318.88c0-1.27,0-2.31-.1-3.33h2l.13,2h.05a4.51,4.51,0,0,1,4.06-2.31c1.7,0,4.34,1,4.34,5.23v7.34h-2.23v-7.08c0-2-.74-3.63-2.84-3.63a3.17,3.17,0,0,0-3,2.28,3.26,3.26,0,0,0-.15,1v7.39h-2.24Z"/><path class="cls-3" d="M273.6,354.73v17.11h-2.21V354.73Z"/><path class="cls-3" d="M277.64,362.88c0-1.27,0-2.31-.1-3.33h2l.12,2h.05a4.53,4.53,0,0,1,4.07-2.31c1.7,0,4.34,1,4.34,5.23v7.34h-2.24v-7.08c0-2-.73-3.63-2.84-3.63a3.19,3.19,0,0,0-3,2.28,3.26,3.26,0,0,0-.15,1v7.39h-2.23Z"/><path class="cls-3" d="M291.42,369.56a5.88,5.88,0,0,0,2.95.88c1.62,0,2.39-.81,2.39-1.82s-.64-1.65-2.29-2.26c-2.21-.79-3.25-2-3.25-3.48,0-2,1.6-3.61,4.24-3.61a6.16,6.16,0,0,1,3,.76l-.56,1.63a4.72,4.72,0,0,0-2.51-.71c-1.32,0-2.06.76-2.06,1.67s.74,1.48,2.34,2.09c2.13.81,3.22,1.87,3.22,3.7,0,2.16-1.67,3.68-4.59,3.68a7.06,7.06,0,0,1-3.45-.83Z"/><path class="cls-3" d="M312.07,368.49c0,1.27,0,2.39.1,3.35h-2l-.13-2H310a4.62,4.62,0,0,1-4.06,2.29c-1.93,0-4.24-1.07-4.24-5.38v-7.19h2.23v6.81c0,2.33.71,3.91,2.74,3.91a3.25,3.25,0,0,0,2.95-2,3.17,3.17,0,0,0,.2-1.14v-7.54h2.24Z"/><path class="cls-3" d="M315.77,363.39c0-1.45,0-2.7-.1-3.84h2l.07,2.41h.1a3.69,3.69,0,0,1,3.41-2.69,2.41,2.41,0,0,1,.63.08v2.11a2.91,2.91,0,0,0-.76-.08,3.13,3.13,0,0,0-3,2.87,6.33,6.33,0,0,0-.1,1v6.55h-2.21Z"/><path class="cls-3" d="M330.75,371.84l-.18-1.55h-.07a4.58,4.58,0,0,1-3.76,1.83,3.5,3.5,0,0,1-3.76-3.53c0-3,2.64-4.6,7.39-4.57v-.25a2.54,2.54,0,0,0-2.79-2.85,6.09,6.09,0,0,0-3.2.92l-.51-1.48a7.65,7.65,0,0,1,4-1.09c3.76,0,4.67,2.57,4.67,5v4.59a17.62,17.62,0,0,0,.2,2.95Zm-.33-6.27c-2.44-.05-5.2.38-5.2,2.77a2,2,0,0,0,2.1,2.13,3.05,3.05,0,0,0,3-2.06,2.22,2.22,0,0,0,.13-.71Z"/><path class="cls-3" d="M336.18,362.88c0-1.27,0-2.31-.1-3.33h2l.13,2h.05a4.51,4.51,0,0,1,4.06-2.31c1.7,0,4.34,1,4.34,5.23v7.34h-2.23v-7.08c0-2-.74-3.63-2.84-3.63a3.17,3.17,0,0,0-3,2.28,3.26,3.26,0,0,0-.15,1v7.39h-2.24Z"/><path class="cls-3" d="M359,371.38a8.09,8.09,0,0,1-3.52.71c-3.71,0-6.12-2.51-6.12-6.27a6.24,6.24,0,0,1,6.6-6.52,7.57,7.57,0,0,1,3.1.63l-.51,1.73a5.13,5.13,0,0,0-2.59-.59c-2.82,0-4.34,2.09-4.34,4.65,0,2.84,1.82,4.6,4.26,4.6a6.31,6.31,0,0,0,2.74-.61Z"/><path class="cls-3" d="M362.74,366.1c.05,3,2,4.27,4.22,4.27a8,8,0,0,0,3.4-.64l.38,1.6a9.89,9.89,0,0,1-4.09.76c-3.78,0-6-2.48-6-6.19s2.18-6.63,5.76-6.63c4,0,5.08,3.53,5.08,5.79a7.43,7.43,0,0,1-.08,1Zm6.55-1.6c0-1.42-.58-3.63-3.1-3.63-2.26,0-3.25,2.08-3.42,3.63Z"/><path class="cls-3" d="M388.36,371.38a8.18,8.18,0,0,1-3.53.71c-3.71,0-6.12-2.51-6.12-6.27a6.24,6.24,0,0,1,6.6-6.52,7.57,7.57,0,0,1,3.1.63l-.51,1.73a5.1,5.1,0,0,0-2.59-.59c-2.82,0-4.34,2.09-4.34,4.65,0,2.84,1.83,4.6,4.26,4.6a6.39,6.39,0,0,0,2.75-.61Z"/><path class="cls-3" d="M391,353.81h2.24v18H391Z"/><path class="cls-3" d="M403.77,371.84l-.18-1.55h-.08a4.54,4.54,0,0,1-3.75,1.83,3.5,3.5,0,0,1-3.76-3.53c0-3,2.64-4.6,7.39-4.57v-.25a2.54,2.54,0,0,0-2.8-2.85,6.14,6.14,0,0,0-3.2.92l-.5-1.48a7.61,7.61,0,0,1,4-1.09c3.76,0,4.68,2.57,4.68,5v4.59a17.62,17.62,0,0,0,.2,2.95Zm-.33-6.27c-2.44-.05-5.21.38-5.21,2.77a2,2,0,0,0,2.11,2.13,3.05,3.05,0,0,0,3-2.06,2.22,2.22,0,0,0,.13-.71Z"/><path class="cls-3" d="M411.69,356.1a1.39,1.39,0,0,1-2.77,0,1.37,1.37,0,0,1,1.4-1.4A1.33,1.33,0,0,1,411.69,356.1Zm-2.49,15.74V359.55h2.23v12.29Z"/><path class="cls-3" d="M415.14,362.88c0-1.27,0-2.31-.1-3.33H417l.11,2h.07a4.24,4.24,0,0,1,3.86-2.26,3.63,3.63,0,0,1,3.48,2.46h.05a5,5,0,0,1,1.37-1.59,4.2,4.2,0,0,1,2.72-.87c1.62,0,4,1.07,4,5.33v7.24H430.5v-7c0-2.36-.86-3.78-2.66-3.78a2.89,2.89,0,0,0-2.64,2,3.46,3.46,0,0,0-.18,1.12v7.59h-2.19v-7.36c0-2-.86-3.38-2.56-3.38a3.06,3.06,0,0,0-2.77,2.23,3.3,3.3,0,0,0-.18,1.1v7.41h-2.18Z"/><path class="cls-3" d="M436,369.56a5.88,5.88,0,0,0,2.95.88c1.62,0,2.38-.81,2.38-1.82s-.63-1.65-2.28-2.26c-2.21-.79-3.25-2-3.25-3.48,0-2,1.6-3.61,4.24-3.61a6.22,6.22,0,0,1,3,.76l-.56,1.63A4.72,4.72,0,0,0,440,361c-1.32,0-2.06.76-2.06,1.67s.74,1.48,2.34,2.09c2.13.81,3.22,1.87,3.22,3.7,0,2.16-1.68,3.68-4.6,3.68a7.09,7.09,0,0,1-3.45-.83Z"/><path class="cls-3" d="M458.56,371.84l-.18-1.55h-.08a4.55,4.55,0,0,1-3.76,1.83,3.5,3.5,0,0,1-3.75-3.53c0-3,2.64-4.6,7.38-4.57v-.25a2.54,2.54,0,0,0-2.79-2.85,6.14,6.14,0,0,0-3.2.92l-.51-1.48a7.65,7.65,0,0,1,4-1.09c3.76,0,4.67,2.57,4.67,5v4.59a16.55,16.55,0,0,0,.21,2.95Zm-.34-6.27c-2.43-.05-5.2.38-5.2,2.77a2,2,0,0,0,2.11,2.13,3.06,3.06,0,0,0,3-2.06,2.52,2.52,0,0,0,.12-.71Z"/><path class="cls-3" d="M464,362.88c0-1.27,0-2.31-.1-3.33h2l.12,2H466a4.53,4.53,0,0,1,4.07-2.31c1.7,0,4.34,1,4.34,5.23v7.34h-2.24v-7.08c0-2-.73-3.63-2.84-3.63a3.19,3.19,0,0,0-3,2.28,3.26,3.26,0,0,0-.15,1v7.39H464Z"/><path class="cls-3" d="M488.69,353.81v14.86c0,1.09,0,2.33.1,3.17h-2l-.1-2.13h-.05a4.56,4.56,0,0,1-4.19,2.41c-3,0-5.26-2.51-5.26-6.25,0-4.08,2.51-6.6,5.51-6.6a4.12,4.12,0,0,1,3.71,1.88h0v-7.34Zm-2.23,10.74a4.29,4.29,0,0,0-.1-.94,3.29,3.29,0,0,0-3.23-2.59c-2.31,0-3.68,2-3.68,4.75,0,2.49,1.22,4.55,3.63,4.55a3.36,3.36,0,0,0,3.28-2.67,4.16,4.16,0,0,0,.1-1Z"/><path class="cls-3" d="M506.54,371.38a8.14,8.14,0,0,1-3.53.71c-3.71,0-6.12-2.51-6.12-6.27a6.24,6.24,0,0,1,6.6-6.52,7.57,7.57,0,0,1,3.1.63l-.51,1.73a5.1,5.1,0,0,0-2.59-.59c-2.82,0-4.34,2.09-4.34,4.65,0,2.84,1.83,4.6,4.27,4.6a6.34,6.34,0,0,0,2.74-.61Z"/><path class="cls-3" d="M520.12,365.59c0,4.55-3.15,6.53-6.12,6.53-3.32,0-5.89-2.44-5.89-6.32,0-4.12,2.69-6.53,6.1-6.53S520.12,361.84,520.12,365.59Zm-9.75.13c0,2.69,1.55,4.72,3.73,4.72s3.74-2,3.74-4.77c0-2.08-1-4.72-3.68-4.72S510.37,363.39,510.37,365.72Z"/><path class="cls-3" d="M522.64,369.56a5.84,5.84,0,0,0,2.94.88c1.63,0,2.39-.81,2.39-1.82s-.64-1.65-2.29-2.26c-2.21-.79-3.25-2-3.25-3.48,0-2,1.6-3.61,4.24-3.61a6.16,6.16,0,0,1,3,.76l-.55,1.63a4.79,4.79,0,0,0-2.52-.71c-1.32,0-2.06.76-2.06,1.67s.74,1.48,2.34,2.09c2.13.81,3.23,1.87,3.23,3.7,0,2.16-1.68,3.68-4.6,3.68a7.06,7.06,0,0,1-3.45-.83Z"/><path class="cls-3" d="M535.68,356v3.53h3.2v1.7h-3.2v6.63c0,1.52.44,2.39,1.68,2.39a4.82,4.82,0,0,0,1.3-.16l.1,1.68a5.44,5.44,0,0,1-2,.3,3.12,3.12,0,0,1-2.42-.94,4.56,4.56,0,0,1-.86-3.19v-6.71h-1.9v-1.7h1.9v-2.94Z"/><path class="cls-3" d="M541.09,369.56a5.88,5.88,0,0,0,2.95.88c1.62,0,2.38-.81,2.38-1.82s-.63-1.65-2.28-2.26c-2.21-.79-3.25-2-3.25-3.48,0-2,1.6-3.61,4.24-3.61a6.19,6.19,0,0,1,3,.76l-.56,1.63a4.72,4.72,0,0,0-2.51-.71c-1.32,0-2.06.76-2.06,1.67s.74,1.48,2.34,2.09c2.13.81,3.22,1.87,3.22,3.7,0,2.16-1.67,3.68-4.59,3.68a7.13,7.13,0,0,1-3.46-.83Z"/><path class="cls-3" d="M79.6,585.4c-.14-2.94-.31-6.49-.27-9.57h-.11c-.74,2.77-1.69,5.85-2.7,8.73l-3.32,9.88H70l-3-9.75c-.88-2.91-1.69-6-2.3-8.86h-.07c-.1,3-.24,6.6-.41,9.71l-.5,9.17h-3.9l1.53-22.81h5.48l3,9.17c.81,2.68,1.52,5.38,2.1,7.92H72c.61-2.47,1.39-5.28,2.27-8l3.14-9.14h5.42l1.32,22.81H80Z"/><path class="cls-3" d="M104,586.32c0,6.06-4.26,8.76-8.46,8.76-4.67,0-8.25-3.21-8.25-8.49s3.55-8.73,8.52-8.73S104,581.31,104,586.32Zm-12.42.17c0,3.18,1.56,5.58,4.1,5.58,2.37,0,4-2.33,4-5.65,0-2.57-1.15-5.52-4-5.52S91.58,583.75,91.58,586.49Z"/><path class="cls-3" d="M107.43,583.14c0-1.9,0-3.49-.14-4.91H111l.2,2.47h.1a5.94,5.94,0,0,1,5.25-2.84c2.87,0,5.85,1.86,5.85,7.07v9.78h-4.16V585.4c0-2.36-.88-4.16-3.15-4.16a3.5,3.5,0,0,0-3.25,2.44,4.38,4.38,0,0,0-.17,1.35v9.68h-4.19Z"/><path class="cls-3" d="M131.22,573.63a2.34,2.34,0,0,1-4.67,0,2.34,2.34,0,0,1,4.67,0Zm-4.43,21.08V578.23H131v16.48Z"/><path class="cls-3" d="M140.23,573.52v4.71h4v3.11h-4v7.28c0,2,.54,3,2.13,3a6.12,6.12,0,0,0,1.62-.21l.07,3.18a9,9,0,0,1-3,.41,4.86,4.86,0,0,1-3.59-1.35c-.88-1-1.28-2.44-1.28-4.61v-7.75H133.8v-3.11h2.37v-3.72Z"/><path class="cls-3" d="M162.8,586.32c0,6.06-4.26,8.76-8.46,8.76-4.67,0-8.26-3.21-8.26-8.49s3.56-8.73,8.53-8.73S162.8,581.31,162.8,586.32Zm-12.42.17c0,3.18,1.56,5.58,4.1,5.58,2.37,0,4-2.33,4-5.65,0-2.57-1.16-5.52-4-5.52S150.38,583.75,150.38,586.49Z"/><path class="cls-3" d="M166.22,583.54c0-2.23,0-3.82-.13-5.31h3.62l.14,3.15H170a4.91,4.91,0,0,1,4.5-3.52,4.16,4.16,0,0,1,1,.1v3.92a6.3,6.3,0,0,0-1.21-.13,3.68,3.68,0,0,0-3.73,3.15,7.9,7.9,0,0,0-.13,1.28v8.53h-4.17Z"/><path class="cls-3" d="M280.25,491.82H273.6V498H281v1.85h-9.63V482.73h9.25v1.85h-7V490h6.65Z"/><path class="cls-3" d="M283.81,490.88c0-1.27,0-2.31-.1-3.33h2l.1,2h.08a4.23,4.23,0,0,1,3.86-2.26,3.65,3.65,0,0,1,3.48,2.46h.05a5,5,0,0,1,1.37-1.59,4.2,4.2,0,0,1,2.72-.87c1.62,0,4,1.07,4,5.33v7.24h-2.18v-7c0-2.36-.86-3.78-2.67-3.78a2.89,2.89,0,0,0-2.64,2,3.75,3.75,0,0,0-.18,1.12v7.59H291.5v-7.36c0-2-.86-3.38-2.56-3.38a3.33,3.33,0,0,0-2.95,3.33v7.41h-2.18Z"/><path class="cls-3" d="M305,491.56c0-1.57-.05-2.84-.1-4h2l.1,2.11H307a4.83,4.83,0,0,1,4.37-2.39c3,0,5.2,2.52,5.2,6.25,0,4.42-2.69,6.6-5.59,6.6a4.31,4.31,0,0,1-3.78-1.93h-.05v6.68H305Zm2.21,3.28a5.07,5.07,0,0,0,.1.91,3.45,3.45,0,0,0,3.35,2.62c2.37,0,3.74-1.93,3.74-4.75,0-2.46-1.3-4.57-3.66-4.57a3.57,3.57,0,0,0-3.38,2.77,3.93,3.93,0,0,0-.15.91Z"/><path class="cls-3" d="M319.43,481.81h2.23v18h-2.23Z"/><path class="cls-3" d="M336.54,493.59c0,4.55-3.15,6.53-6.12,6.53-3.33,0-5.89-2.44-5.89-6.32,0-4.12,2.69-6.53,6.09-6.53S336.54,489.84,336.54,493.59Zm-9.75.13c0,2.69,1.55,4.72,3.73,4.72s3.73-2,3.73-4.77c0-2.08-1-4.72-3.68-4.72S326.79,491.39,326.79,493.72Z"/><path class="cls-3" d="M340,487.55l2.69,7.26c.28.82.59,1.78.79,2.52h0c.23-.74.48-1.68.79-2.57l2.44-7.21h2.36l-3.35,8.76c-1.6,4.22-2.7,6.37-4.22,7.69a6,6,0,0,1-2.74,1.45l-.56-1.88a5.88,5.88,0,0,0,1.95-1.09,6.61,6.61,0,0,0,1.88-2.49,1.42,1.42,0,0,0,.18-.53,1.87,1.87,0,0,0-.15-.58l-4.55-11.33Z"/><path class="cls-3" d="M352.13,494.1c.05,3,2,4.27,4.21,4.27a8,8,0,0,0,3.4-.64l.39,1.6a9.93,9.93,0,0,1-4.09.76c-3.79,0-6.05-2.48-6.05-6.19s2.19-6.63,5.77-6.63c4,0,5.08,3.53,5.08,5.79a7.43,7.43,0,0,1-.08,1Zm6.55-1.6c0-1.42-.59-3.63-3.1-3.63-2.26,0-3.25,2.08-3.43,3.63Z"/><path class="cls-3" d="M364.85,494.1c0,3,2,4.27,4.21,4.27a8,8,0,0,0,3.41-.64l.38,1.6a9.93,9.93,0,0,1-4.09.76c-3.79,0-6-2.48-6-6.19s2.18-6.63,5.76-6.63c4,0,5.08,3.53,5.08,5.79a7.43,7.43,0,0,1-.08,1Zm6.55-1.6c0-1.42-.59-3.63-3.1-3.63-2.26,0-3.25,2.08-3.43,3.63Z"/><path class="cls-3" d="M381.71,481.81h2.23v7.67H384a4.16,4.16,0,0,1,1.6-1.57,4.62,4.62,0,0,1,2.29-.64c1.65,0,4.29,1,4.29,5.26v7.31h-2.24v-7.06c0-2-.73-3.65-2.84-3.65a3.21,3.21,0,0,0-3,2.23,2.82,2.82,0,0,0-.15,1.07v7.41h-2.23Z"/><path class="cls-3" d="M397,494.1c0,3,2,4.27,4.21,4.27a8,8,0,0,0,3.41-.64l.38,1.6a9.93,9.93,0,0,1-4.09.76c-3.78,0-6-2.48-6-6.19s2.18-6.63,5.76-6.63c4,0,5.08,3.53,5.08,5.79a7.43,7.43,0,0,1-.08,1Zm6.55-1.6c0-1.42-.58-3.63-3.1-3.63-2.26,0-3.25,2.08-3.43,3.63Z"/><path class="cls-3" d="M415.32,499.84l-.18-1.55h-.07a4.58,4.58,0,0,1-3.76,1.83,3.5,3.5,0,0,1-3.76-3.53c0-3,2.64-4.6,7.39-4.57v-.25a2.54,2.54,0,0,0-2.79-2.85,6.09,6.09,0,0,0-3.2.92l-.51-1.48a7.65,7.65,0,0,1,4-1.09c3.75,0,4.67,2.57,4.67,5v4.59a17.62,17.62,0,0,0,.2,2.95Zm-.33-6.27c-2.44-.05-5.2.38-5.2,2.77a2,2,0,0,0,2.1,2.13,3.05,3.05,0,0,0,3-2.06,2.22,2.22,0,0,0,.13-.71Z"/><path class="cls-3" d="M420.75,481.81H423v18h-2.24Z"/><path class="cls-3" d="M429.44,484v3.53h3.2v1.7h-3.2v6.63c0,1.52.43,2.39,1.67,2.39a4.76,4.76,0,0,0,1.3-.16l.1,1.68a5.44,5.44,0,0,1-2,.3,3.09,3.09,0,0,1-2.41-.94,4.51,4.51,0,0,1-.87-3.19v-6.71h-1.9v-1.7h1.9v-2.94Z"/><path class="cls-3" d="M435.15,481.81h2.23v7.67h.05a4.23,4.23,0,0,1,1.6-1.57,4.62,4.62,0,0,1,2.29-.64c1.65,0,4.29,1,4.29,5.26v7.31h-2.24v-7.06c0-2-.73-3.65-2.84-3.65a3.21,3.21,0,0,0-3,2.23,2.82,2.82,0,0,0-.15,1.07v7.41h-2.23Z"/><path class="cls-3" d="M280.25,535.82H273.6V542H281v1.85h-9.63V526.73h9.25v1.85h-7V534h6.65Z"/><path class="cls-3" d="M286.09,526.73v7.16h8.28v-7.16h2.23v17.11h-2.23v-8h-8.28v8h-2.21V526.73Z"/><path class="cls-3" d="M300.13,541.15a7.83,7.83,0,0,0,4,1.12c2.26,0,3.58-1.2,3.58-2.92s-.91-2.52-3.22-3.41c-2.79-1-4.52-2.43-4.52-4.85,0-2.66,2.21-4.64,5.53-4.64a7.68,7.68,0,0,1,3.79.84l-.61,1.8a6.76,6.76,0,0,0-3.25-.81c-2.34,0-3.23,1.39-3.23,2.56,0,1.6,1,2.39,3.41,3.3,2.89,1.12,4.36,2.51,4.36,5s-1.95,4.92-6,4.92a8.87,8.87,0,0,1-4.37-1.09Z"/><path class="cls-3" d="M325.06,543.84l-.17-1.55h-.08a4.58,4.58,0,0,1-3.76,1.83,3.5,3.5,0,0,1-3.76-3.53c0-3,2.64-4.6,7.39-4.57v-.25a2.54,2.54,0,0,0-2.79-2.85,6.11,6.11,0,0,0-3.2.92l-.51-1.48a7.65,7.65,0,0,1,4-1.09c3.76,0,4.67,2.57,4.67,5v4.59a16.55,16.55,0,0,0,.21,3Zm-.33-6.27c-2.43-.05-5.2.38-5.2,2.77a2,2,0,0,0,2.11,2.13,3.06,3.06,0,0,0,3-2.06,2.52,2.52,0,0,0,.12-.71Z"/><path class="cls-3" d="M339.26,543.38a8.18,8.18,0,0,1-3.53.71c-3.71,0-6.12-2.51-6.12-6.27a6.24,6.24,0,0,1,6.6-6.52,7.57,7.57,0,0,1,3.1.63l-.51,1.73a5.1,5.1,0,0,0-2.59-.59c-2.82,0-4.34,2.09-4.34,4.65,0,2.84,1.83,4.6,4.26,4.6a6.39,6.39,0,0,0,2.75-.61Z"/><path class="cls-3" d="M344.89,528v3.53h3.2v1.7h-3.2v6.63c0,1.52.43,2.39,1.68,2.39a4.73,4.73,0,0,0,1.29-.16l.1,1.68a5.4,5.4,0,0,1-2,.3,3.09,3.09,0,0,1-2.41-.94,4.56,4.56,0,0,1-.86-3.19v-6.71H340.8v-1.7h1.91v-2.94Z"/><path class="cls-3" d="M353.09,528.1a1.31,1.31,0,0,1-1.42,1.37,1.33,1.33,0,0,1-1.35-1.37,1.37,1.37,0,0,1,1.4-1.4A1.33,1.33,0,0,1,353.09,528.1Zm-2.49,15.74V531.55h2.24v12.29Z"/><path class="cls-3" d="M367.67,537.59c0,4.55-3.15,6.53-6.12,6.53-3.33,0-5.89-2.44-5.89-6.32,0-4.12,2.69-6.53,6.09-6.53S367.67,533.84,367.67,537.59Zm-9.75.13c0,2.69,1.54,4.72,3.73,4.72s3.73-2,3.73-4.77c0-2.08-1-4.72-3.68-4.72S357.92,535.39,357.92,537.72Z"/><path class="cls-3" d="M370.48,534.88c0-1.27,0-2.31-.1-3.33h2l.13,2h.05a4.51,4.51,0,0,1,4.06-2.31c1.7,0,4.34,1,4.34,5.23v7.34h-2.23v-7.08c0-2-.74-3.63-2.84-3.63a3.17,3.17,0,0,0-3,2.28,3.26,3.26,0,0,0-.15,1v7.39h-2.24Z"/><path class="cls-3" d="M390,535.56c0-1.57-.06-2.84-.11-4h2l.1,2.11H392a4.84,4.84,0,0,1,4.37-2.39c3,0,5.2,2.52,5.2,6.25,0,4.42-2.69,6.6-5.58,6.6a4.29,4.29,0,0,1-3.78-1.93h-.06v6.68H390Zm2.2,3.28a5,5,0,0,0,.11.91,3.44,3.44,0,0,0,3.35,2.62c2.36,0,3.73-1.93,3.73-4.75,0-2.46-1.29-4.57-3.66-4.57a3.56,3.56,0,0,0-3.37,2.77,3.47,3.47,0,0,0-.16.91Z"/><path class="cls-3" d="M404.4,525.81h2.24v18H404.4Z"/><path class="cls-3" d="M417.2,543.84l-.18-1.55h-.08a4.55,4.55,0,0,1-3.76,1.83,3.5,3.5,0,0,1-3.75-3.53c0-3,2.64-4.6,7.39-4.57v-.25a2.54,2.54,0,0,0-2.8-2.85,6.14,6.14,0,0,0-3.2.92l-.5-1.48a7.58,7.58,0,0,1,4-1.09c3.76,0,4.67,2.57,4.67,5v4.59a17.55,17.55,0,0,0,.21,3Zm-.33-6.27c-2.44-.05-5.21.38-5.21,2.77a2,2,0,0,0,2.11,2.13,3.06,3.06,0,0,0,3-2.06,2.22,2.22,0,0,0,.13-.71Z"/><path class="cls-3" d="M422.63,534.88c0-1.27,0-2.31-.1-3.33h2l.13,2h.05a4.51,4.51,0,0,1,4.06-2.31c1.7,0,4.34,1,4.34,5.23v7.34h-2.23v-7.08c0-2-.74-3.63-2.85-3.63a3.17,3.17,0,0,0-3,2.28,3,3,0,0,0-.16,1v7.39h-2.23Z"/><path class="cls-3" d="M436.42,541.56a5.84,5.84,0,0,0,2.94.88c1.63,0,2.39-.81,2.39-1.82s-.64-1.65-2.29-2.26c-2.21-.79-3.25-2-3.25-3.48,0-2,1.6-3.61,4.24-3.61a6.16,6.16,0,0,1,3,.76l-.55,1.63a4.79,4.79,0,0,0-2.52-.71c-1.32,0-2,.76-2,1.67s.73,1.48,2.33,2.09c2.13.81,3.23,1.87,3.23,3.7,0,2.16-1.68,3.68-4.6,3.68a7.06,7.06,0,0,1-3.45-.83Z"/><path class="cls-3" d="M271.39,571a22.9,22.9,0,0,1,4.24-.36c2.36,0,3.89.43,4.95,1.4a4.24,4.24,0,0,1,1.35,3.25,4.48,4.48,0,0,1-3.22,4.36v.08c1.32.46,2.1,1.68,2.51,3.45a26.91,26.91,0,0,0,1.32,4.7h-2.29a21.78,21.78,0,0,1-1.14-4.09c-.51-2.36-1.42-3.25-3.43-3.32H273.6v7.41h-2.21Zm2.21,7.79h2.26c2.36,0,3.86-1.29,3.86-3.25,0-2.21-1.6-3.17-3.93-3.2a9.3,9.3,0,0,0-2.19.2Z"/><path class="cls-3" d="M286.32,582.1c.05,3,2,4.27,4.22,4.27a8,8,0,0,0,3.4-.64l.38,1.6a9.89,9.89,0,0,1-4.09.76c-3.78,0-6-2.48-6-6.19s2.18-6.63,5.76-6.63c4,0,5.08,3.53,5.08,5.79a7.43,7.43,0,0,1-.08,1Zm6.55-1.6c0-1.42-.58-3.63-3.1-3.63-2.25,0-3.25,2.08-3.42,3.63Z"/><path class="cls-3" d="M308.39,575.55c-.06.89-.11,1.88-.11,3.38v7.13c0,2.82-.56,4.55-1.75,5.61a6.5,6.5,0,0,1-4.47,1.48,8,8,0,0,1-4.09-1l.56-1.7a7,7,0,0,0,3.61,1c2.28,0,4-1.19,4-4.29v-1.37h-.05a4.38,4.38,0,0,1-3.91,2.06c-3.05,0-5.23-2.59-5.23-6,0-4.17,2.72-6.53,5.53-6.53a4.11,4.11,0,0,1,3.84,2.13h.05l.1-1.85Zm-2.32,4.85a3.18,3.18,0,0,0-.12-1,3.23,3.23,0,0,0-3.13-2.37c-2.13,0-3.65,1.81-3.65,4.65,0,2.41,1.22,4.42,3.63,4.42a3.28,3.28,0,0,0,3.1-2.29,4.08,4.08,0,0,0,.17-1.19Z"/><path class="cls-3" d="M322.27,584.49c0,1.27,0,2.39.1,3.35h-2l-.12-2h0a4.64,4.64,0,0,1-4.07,2.29c-1.93,0-4.24-1.07-4.24-5.38v-7.19h2.24v6.81c0,2.33.71,3.91,2.74,3.91a3.22,3.22,0,0,0,2.94-2,3.17,3.17,0,0,0,.21-1.14v-7.54h2.23Z"/><path class="cls-3" d="M326,569.81h2.23v18H326Z"/><path class="cls-3" d="M338.77,587.84l-.17-1.55h-.08a4.58,4.58,0,0,1-3.76,1.83,3.5,3.5,0,0,1-3.76-3.53c0-3,2.64-4.6,7.39-4.57v-.25a2.54,2.54,0,0,0-2.79-2.85,6.11,6.11,0,0,0-3.2.92l-.51-1.48a7.65,7.65,0,0,1,4-1.09c3.76,0,4.67,2.57,4.67,5v4.59a16.55,16.55,0,0,0,.21,3Zm-.33-6.27c-2.43-.05-5.2.38-5.2,2.77a2,2,0,0,0,2.11,2.13,3.06,3.06,0,0,0,3-2.06,2.52,2.52,0,0,0,.12-.71Z"/><path class="cls-3" d="M346.8,572v3.53H350v1.7h-3.2v6.63c0,1.52.43,2.39,1.67,2.39a4.76,4.76,0,0,0,1.3-.16l.1,1.68a5.44,5.44,0,0,1-2,.3,3.09,3.09,0,0,1-2.41-.94,4.51,4.51,0,0,1-.87-3.19v-6.71h-1.9v-1.7h1.9v-2.94Z"/><path class="cls-3" d="M363.48,581.59c0,4.55-3.15,6.53-6.12,6.53-3.33,0-5.89-2.44-5.89-6.32,0-4.12,2.69-6.53,6.09-6.53S363.48,577.84,363.48,581.59Zm-9.75.13c0,2.69,1.55,4.72,3.73,4.72s3.73-2,3.73-4.77c0-2.08-1-4.72-3.68-4.72S353.73,579.39,353.73,581.72Z"/><path class="cls-3" d="M366.29,579.39c0-1.45,0-2.7-.1-3.84h2l.07,2.41h.11a3.67,3.67,0,0,1,3.4-2.69,2.41,2.41,0,0,1,.63.08v2.11a2.86,2.86,0,0,0-.76-.08,3.14,3.14,0,0,0-3,2.87,6.33,6.33,0,0,0-.1,1v6.55h-2.21Z"/><path class="cls-3" d="M376,575.55l2.69,7.26c.28.82.59,1.78.79,2.52h.05c.23-.74.49-1.68.79-2.57l2.44-7.21h2.36l-3.35,8.76c-1.6,4.22-2.69,6.37-4.22,7.69a6,6,0,0,1-2.74,1.45l-.56-1.88a5.92,5.92,0,0,0,2-1.09,6.72,6.72,0,0,0,1.88-2.49,1.56,1.56,0,0,0,.17-.53,1.87,1.87,0,0,0-.15-.58l-4.54-11.33Z"/><path class="cls-3" d="M401.33,587.38a8.14,8.14,0,0,1-3.53.71c-3.71,0-6.12-2.51-6.12-6.27a6.24,6.24,0,0,1,6.6-6.52,7.57,7.57,0,0,1,3.1.63l-.51,1.73a5.1,5.1,0,0,0-2.59-.59c-2.81,0-4.34,2.09-4.34,4.65,0,2.84,1.83,4.6,4.27,4.6a6.34,6.34,0,0,0,2.74-.61Z"/><path class="cls-3" d="M414.91,581.59c0,4.55-3.14,6.53-6.12,6.53-3.32,0-5.89-2.44-5.89-6.32,0-4.12,2.7-6.53,6.1-6.53S414.91,577.84,414.91,581.59Zm-9.75.13c0,2.69,1.55,4.72,3.74,4.72s3.73-2,3.73-4.77c0-2.08-1-4.72-3.68-4.72S405.16,579.39,405.16,581.72Z"/><path class="cls-3" d="M417.73,578.88c0-1.27,0-2.31-.1-3.33h1.95l.11,2h.07a4.24,4.24,0,0,1,3.86-2.26,3.63,3.63,0,0,1,3.48,2.46h0a5,5,0,0,1,1.37-1.59,4.2,4.2,0,0,1,2.72-.87c1.62,0,4,1.07,4,5.33v7.24h-2.19v-7c0-2.36-.86-3.78-2.66-3.78a2.89,2.89,0,0,0-2.64,2,3.46,3.46,0,0,0-.18,1.12v7.59h-2.19v-7.36c0-2-.86-3.38-2.56-3.38a3.06,3.06,0,0,0-2.77,2.23,3.3,3.3,0,0,0-.18,1.1v7.41h-2.18Z"/><path class="cls-3" d="M438.9,579.56c0-1.57,0-2.84-.1-4h2l.1,2.11h0a4.84,4.84,0,0,1,4.37-2.39c3,0,5.2,2.52,5.2,6.25,0,4.42-2.69,6.6-5.58,6.6a4.32,4.32,0,0,1-3.79-1.93h-.05v6.68H438.9Zm2.21,3.28a4.28,4.28,0,0,0,.11.91,3.44,3.44,0,0,0,3.35,2.62c2.36,0,3.73-1.93,3.73-4.75,0-2.46-1.3-4.57-3.66-4.57a3.56,3.56,0,0,0-3.37,2.77,3.47,3.47,0,0,0-.16.91Z"/><path class="cls-3" d="M453.35,569.81h2.23v18h-2.23Z"/><path class="cls-3" d="M461.83,572.1a1.39,1.39,0,0,1-2.77,0,1.37,1.37,0,0,1,1.4-1.4A1.33,1.33,0,0,1,461.83,572.1Zm-2.49,15.74V575.55h2.24v12.29Z"/><path class="cls-3" d="M472.09,587.84l-.18-1.55h-.08a4.55,4.55,0,0,1-3.76,1.83,3.5,3.5,0,0,1-3.75-3.53c0-3,2.64-4.6,7.39-4.57v-.25a2.54,2.54,0,0,0-2.8-2.85,6.14,6.14,0,0,0-3.2.92l-.5-1.48a7.58,7.58,0,0,1,4-1.09c3.76,0,4.67,2.57,4.67,5v4.59a17.55,17.55,0,0,0,.21,3Zm-.33-6.27c-2.44-.05-5.21.38-5.21,2.77a2,2,0,0,0,2.11,2.13,3.06,3.06,0,0,0,3-2.06,2.22,2.22,0,0,0,.13-.71Z"/><path class="cls-3" d="M477.52,578.88c0-1.27,0-2.31-.1-3.33h2l.12,2h.06a4.5,4.5,0,0,1,4.06-2.31c1.7,0,4.34,1,4.34,5.23v7.34h-2.23v-7.08c0-2-.74-3.63-2.85-3.63a3.17,3.17,0,0,0-3,2.28,3,3,0,0,0-.16,1v7.39h-2.23Z"/><path class="cls-3" d="M500.37,587.38a8.14,8.14,0,0,1-3.53.71c-3.71,0-6.12-2.51-6.12-6.27a6.24,6.24,0,0,1,6.6-6.52,7.57,7.57,0,0,1,3.1.63l-.51,1.73a5.1,5.1,0,0,0-2.59-.59c-2.82,0-4.34,2.09-4.34,4.65,0,2.84,1.83,4.6,4.27,4.6a6.34,6.34,0,0,0,2.74-.61Z"/><path class="cls-3" d="M504.08,582.1c.05,3,2,4.27,4.21,4.27a8,8,0,0,0,3.4-.64l.38,1.6a9.83,9.83,0,0,1-4.08.76c-3.79,0-6.05-2.48-6.05-6.19s2.19-6.63,5.77-6.63c4,0,5.07,3.53,5.07,5.79a10,10,0,0,1-.07,1Zm6.55-1.6c0-1.42-.59-3.63-3.1-3.63-2.26,0-3.25,2.08-3.43,3.63Z"/><path class="cls-3" d="M139.45,126.38c-1.09-.59-2.21-1.12-3.24-1.79a2.64,2.64,0,0,1-1.08-1.39c-.39-1.52-1.42-1.57-2.68-1.51-1.75.09-3.5,0-5.33,0V59.83H142v1.26q0,26,0,52c0,.74.11,1.17.91,1.47,2.12.79,3.13,2.57,3.73,4.63v2.1c-.27.62-.51,1.27-.82,1.87a6.78,6.78,0,0,1-4.44,3.18ZM130.17,62.9v55.73c1.34,0,2.59,0,3.85,0,.23,0,.55-.34.66-.6a5.82,5.82,0,0,1,3.18-3.33,1.5,1.5,0,0,0,1.08-1.7q0-24.37,0-48.77V62.9Zm10.23,54.22a3.06,3.06,0,0,0-3.05,3.08,3.08,3.08,0,1,0,6.16-.07A3,3,0,0,0,140.4,117.12Z"/><path class="cls-3" d="M143,36.38Q141.26,43,139.5,49.65c0,.06-.08.1-.22.24L135,45.52,112.37,65.3,101.3,53.69,76.19,76.52l-2.07-2.27c9.14-8.3,18.2-16.54,27.34-24.86l11.11,11.66,20.34-17.78-3.63-3.18,9.11-2.45c1.48-.41,3-.84,4.42-1.26Z"/><path class="cls-3" d="M118.51,121.66H103.73V72h14.78ZM106.76,75v43.54h8.68V75Z"/><path class="cls-3" d="M95.09,121.47H80.42V94.78H95.09ZM83.4,118.36h8.68V97.86H83.4Z"/><path class="cls-3" d="M114.17,546.58v5L103,545.24l11.19-6.33v4.88H148.1V474.28H76.16v70.91H73.41V471.55h77.48v75Z"/><path class="cls-3" d="M88.66,538.93l-6.92-7.41,19.83-19.4a59.62,59.62,0,0,1-2.31-6.53,20.57,20.57,0,0,1,8.51-21.74,1.61,1.61,0,0,0,.86-1.61,5.39,5.39,0,0,1,4-5.49,5.57,5.57,0,0,1,6.39,2.36,1.64,1.64,0,0,0,1.6.89,21.3,21.3,0,0,1,20.61,16.49,21,21,0,0,1-16.62,25.11,21.6,21.6,0,0,1-14.69-2.16,1.09,1.09,0,0,0-1.54.24Q99,528.89,89.59,538.05Zm21.27-53.2a18.06,18.06,0,0,0-6.62,23.19,18.91,18.91,0,0,0,23.82,9.1,18.24,18.24,0,0,0,11.12-21.92c-2.31-8.07-11.39-14.63-18.4-13.29C119.2,486.88,114.05,489.46,109.93,485.73Zm-6.59,28.51L85.62,531.58l3.17,3.4c6-5.83,11.89-11.64,17.76-17.37Zm11-35.06a2.82,2.82,0,0,0-3,2.79,2.86,2.86,0,0,0,2.88,2.92,2.92,2.92,0,0,0,3-2.92A2.89,2.89,0,0,0,114.29,479.18Z"/><path class="cls-3" d="M93.39,301.81l8.23,4.62q9,5.07,18.08,10.11a1.45,1.45,0,0,0,1.2.07q13-7.25,26-14.56c.13-.07.26-.17.55-.36a6.39,6.39,0,0,0-.84-.12h-4.4c-1.22,0-1.65-.44-1.65-1.66q0-5.62,0-11.25v-22H120.36v4.77l-10.71-6.25,10.72-6.12v4.82h20.89c1.58,0,2,.38,2,2v33h1.19c2.61,0,5.22,0,7.83,0,.85,0,1.7,0,1.94,1.05s-.46,1.38-1.18,1.78l-27.35,15.34c-1.45.81-2.91,1.6-4.35,2.44a1.74,1.74,0,0,1-1.92,0q-16-9-32-18a1.36,1.36,0,0,1-.82-1.59c.19-.82.8-1,1.55-1h9.37V265.3h2.71v34.3c0,1.61-.34,2-2,2H93.44Z"/><path class="cls-3" d="M89.15,336.42h62.33c0-.31.06-.59.06-.87,0-1.43-.08-2.87,0-4.3s-.12-2.35-1.62-3.09c-2.14-1.07-2.91-3.83-2.13-6.14a5.37,5.37,0,0,1,10.35.73,5.25,5.25,0,0,1-3,5.86,1.26,1.26,0,0,0-.88,1.45c0,2.38,0,4.76,0,7.14,0,1.49-.37,1.87-1.81,1.87H88.27c-1.44,0-1.79-.34-1.79-1.79,0-2.48,0-5,0-7.44a1,1,0,0,0-.73-1.16,5.26,5.26,0,0,1-3.15-6.14,5.37,5.37,0,0,1,10.56.64A5.28,5.28,0,0,1,90,328.63a1.2,1.2,0,0,0-.88,1.36C89.18,332.11,89.15,334.22,89.15,336.42Zm63.75-15.36a2.71,2.71,0,0,0-2.7,2.75,2.76,2.76,0,0,0,2.7,2.68,2.84,2.84,0,0,0,2.73-2.78A2.77,2.77,0,0,0,152.9,321.06Zm-62.41,2.71a2.66,2.66,0,0,0-2.72-2.71,2.76,2.76,0,0,0-2.68,2.69,2.82,2.82,0,0,0,2.76,2.74A2.73,2.73,0,0,0,90.49,323.77Z"/></svg>