<?xml version="1.0" encoding="utf-8"?>
<!-- Generator: Adobe Illustrator 22.1.0, SVG Export Plug-In . SVG Version: 6.00 Build 0)  -->
<svg version="1.1" xmlns="http://www.w3.org/2000/svg" xmlns:xlink="http://www.w3.org/1999/xlink" x="0px" y="0px" width="350px"
	 height="350px" viewBox="0 0 350 350" style="enable-background:new 0 0 350 350;" xml:space="preserve">
<style type="text/css">
	.st0{fill:#FCDDD6;}
	.st1{fill:#FBC2BA;}
	.st2{fill:#F16C51;}
	.st3{fill:#ECE1CE;}
	.st4{fill:#EAC8A5;}
	.st5{fill:#DF9926;}
	.st6{fill:#D8E7DA;}
	.st7{fill:#A8D7CD;}
	.st8{fill:#00B28F;}
	.st9{fill:#92D1FF;}
	.st10{fill:#0F9FFA;}
	.st11{fill:none;}
	.st12{fill:none;stroke:#FFFFFF;stroke-width:1.5;stroke-miterlimit:10;}
	.st13{display:none;}
	.st14{display:inline;}
	.st15{fill:none;stroke:#061838;stroke-width:0.5887;stroke-miterlimit:10;}
	.st16{fill:none;stroke:#000000;stroke-width:0.1397;stroke-miterlimit:10;}
	.st17{fill:none;stroke:#020204;stroke-width:0.216;stroke-miterlimit:10;}
	.st18{fill:none;stroke:#FFFFFF;stroke-width:1.5;stroke-linejoin:bevel;stroke-miterlimit:10;}
	.st19{fill:#FFFFFF;}
	.st20{fill:none;stroke:#FFFFFF;stroke-width:1.5;stroke-linecap:square;stroke-miterlimit:10;}
	.st21{fill:none;stroke:#FFFFFF;stroke-width:1.4995;stroke-miterlimit:22.9256;}
	.st22{fill:none;stroke:#FFFFFF;stroke-width:1.4992;stroke-miterlimit:22.9256;}
	.st23{fill:none;stroke:#FFFFFF;stroke-width:1.4992;stroke-miterlimit:10;}
	.st24{fill:none;stroke:#FFFFFF;stroke-width:1.4995;stroke-linecap:square;stroke-miterlimit:10;}
	.st25{fill:none;stroke:#FFFFFF;stroke-width:1.4992;}
	.st26{fill:none;stroke:#FFFFFF;stroke-width:1.5001;stroke-linecap:square;stroke-miterlimit:10;}
	.st27{fill:none;stroke:#FFFFFF;stroke-width:1.5;stroke-linejoin:bevel;}
	.st28{fill:none;stroke:#FFFFFF;stroke-width:1.5;stroke-miterlimit:10;stroke-dasharray:5,5;}
</style>
<g id="Layer_3">
	<g>
		<path class="st0" d="M342.9,175c0,26.4-6.1,51.4-16.9,73.6c-2.4,5-5,9.7-7.9,14.4c-27.8,45.1-76.2,76-132.2,79.6
			c-3.6,0.2-7.2,0.4-10.9,0.4c-1.9,0-3.7,0-5.5-0.1c-56.3-1.8-105.6-31.3-134.6-75.4c-3-4.6-5.8-9.3-8.4-14.1
			c-12.4-23.4-19.4-50-19.4-78.3c0-27.3,6.5-53.2,18.1-76c2.5-4.9,5.2-9.7,8.1-14.3C61.8,40.2,110.7,10,166.8,7.3
			c2.7-0.1,5.5-0.2,8.2-0.2c2.7,0,5.5,0.1,8.2,0.2c54.2,2.6,101.7,30.9,130.5,73.1c3.1,4.5,6,9.2,8.6,14
			C335.4,118.3,342.9,145.8,342.9,175z"/>
		<path class="st0" d="M237.6,175c0,9.8-2.3,19.1-6.3,27.4c-0.9,1.8-1.9,3.6-3,5.4c-10.3,16.8-28.4,28.3-49.3,29.7
			c-1.3,0.1-2.7,0.1-4.1,0.1c-0.7,0-1.4,0-2.1,0c-21-0.7-39.3-11.7-50.2-28.1c-1.1-1.7-2.2-3.5-3.1-5.3c-4.6-8.7-7.2-18.6-7.2-29.2
			c0-10.2,2.4-19.8,6.8-28.3c0.9-1.8,1.9-3.6,3-5.3c10.6-16.6,28.8-27.9,49.7-28.9c1,0,2-0.1,3.1-0.1c1,0,2,0,3.1,0.1
			c20.2,1,37.9,11.5,48.6,27.2c1.2,1.7,2.2,3.4,3.2,5.2C234.8,153.9,237.6,164.1,237.6,175z"/>
		<path class="st11" d="M323.6,253.2c-1,1.8-1.9,3.6-3,5.4l-92.4-50.8c-10.3,16.8-28.4,28.3-49.3,29.7l1.7,105.4
			c-1.9,0.1-3.8,0.1-5.7,0.1h-0.4l-1.7-105.4c-21-0.7-39.3-11.7-50.2-28.1L32,263.1c-1.1-1.7-2.1-3.5-3.1-5.3l90.7-53.7
			c-4.6-8.7-7.2-18.6-7.2-29.2c0-10.2,2.4-19.8,6.8-28.3L27.6,94.5c1-1.8,2-3.6,3-5.3l91.6,52.2c10.6-16.6,28.8-27.9,49.7-28.9V7.1
			c1,0,2,0,3.1,0c1,0,2,0,3.1,0v105.4c20.2,1,37.9,11.5,48.6,27.2l89.9-55.1c1.1,1.7,2.2,3.5,3.2,5.2l-89.9,55.1
			c4.9,8.9,7.7,19.2,7.7,30.1c0,9.8-2.3,19.1-6.3,27.4L323.6,253.2z"/>
		<path class="st2" d="M171.9,7.1v105.4c-20.9,1-39.1,12.3-49.7,28.9L30.7,89.2C59.5,40.8,111.8,8.2,171.9,7.1z"/>
		<path class="st11" d="M323.6,253.2l-92.4-50.8c4-8.3,6.3-17.6,6.3-27.4c0-10.9-2.8-21.1-7.7-30.1l89.9-55.1l6-3.7
			c-1-1.8-2.1-3.5-3.2-5.2l-6,3.7l-89.9,55.1c-10.7-15.7-28.4-26.2-48.6-27.2V0c-1,0-2,0-3.1,0c-1,0-2,0-3.1,0v112.5
			c-20.9,1-39.1,12.3-49.7,28.9L30.7,89.2l-6.2-3.5c-1,1.8-2.1,3.5-3,5.3l6.1,3.5l91.6,52.2c-4.3,8.5-6.8,18.1-6.8,28.3
			c0,10.5,2.6,20.5,7.2,29.2l-90.7,53.7l-6.1,3.6c1,1.8,2,3.5,3.1,5.3l6.1-3.6l90.7-53.7c10.8,16.4,29.2,27.4,50.2,28.1l1.7,105.4
			l0.1,7.1h0.3c1.9,0,3.9,0,5.8-0.1l-0.1-7.1l-1.7-105.4c20.8-1.3,38.9-12.9,49.3-29.7l92.4,50.8l6.2,3.4c1-1.8,2-3.5,3-5.4
			L323.6,253.2z"/>
		<path class="st1" d="M350,175c0,29.5-7.3,57.2-20.1,81.6l-6.2-3.4c12.3-23.4,19.3-50,19.3-78.2c0-31.1-8.4-60.2-23.2-85.2l6-3.7
			C341.2,112.2,350,142.6,350,175z"/>
		<path class="st1" d="M326.9,262c-29.3,51-83.5,85.9-146.1,87.9l-0.1-7.1c59.9-2,111.9-35.4,140-84.3L326.9,262z"/>
		<path class="st1" d="M174.7,350c-62.9-0.1-118-33.4-148.8-83.3l6.1-3.6c29.5,47.8,82.3,79.7,142.6,79.8L174.7,350z"/>
		<path class="st1" d="M28.9,257.9l-6.1,3.6C8.3,236,0,206.5,0,175c0-30.5,7.8-59.1,21.5-84l6.1,3.5C14.5,118.4,7.1,145.8,7.1,175
			C7.1,205.1,15,233.4,28.9,257.9z"/>
		<path class="st1" d="M171.9,0v7.1c-60.1,1.1-112.5,33.7-141.3,82l-6.2-3.5C54.5,35.2,109.2,1.1,171.9,0z"/>
		<path class="st1" d="M322.6,80.9l-6,3.7C287.2,38.8,236.3,8.1,178.1,7.1V0C238.8,1.1,292,33.1,322.6,80.9z"/>
		<path class="st2" d="M316.5,84.6l-89.9,55.1c-10.7-15.7-28.4-26.2-48.6-27.2V7.1C236.3,8.1,287.2,38.8,316.5,84.6z"/>
		<path class="st2" d="M342.9,175c0,28.2-7,54.8-19.3,78.2l-92.4-50.8c4-8.3,6.3-17.6,6.3-27.4c0-10.9-2.8-21.1-7.7-30.1l89.9-55.1
			C334.5,114.8,342.9,143.9,342.9,175z"/>
		<path class="st2" d="M320.7,258.5c-28.1,48.9-80,82.3-140,84.3l-1.7-105.4c20.8-1.3,38.9-12.9,49.3-29.7L320.7,258.5z"/>
		<path class="st2" d="M174.6,342.9c-60.3-0.1-113.1-32-142.6-79.8l90.7-53.7c10.8,16.4,29.2,27.4,50.2,28.1L174.6,342.9z"/>
		<path class="st2" d="M119.6,204.2l-90.7,53.7C15,233.4,7.1,205.1,7.1,175c0-29.2,7.4-56.6,20.5-80.5l91.6,52.2
			c-4.3,8.5-6.8,18.1-6.8,28.3C112.4,185.5,115,195.5,119.6,204.2z"/>
	</g>
	<line class="st12" x1="118.8" y1="65.5" x2="127" y2="65.5"/>
</g>
<g id="Layer_1" class="st13">
	<g class="st14">
		<rect x="200.4" y="26" class="st16" width="9" height="9"/>
		<rect x="209.4" y="26" class="st16" width="9" height="9"/>
		<rect x="218.4" y="26" class="st16" width="9" height="9"/>
		<rect x="227.4" y="26" class="st16" width="9" height="9"/>
		<rect x="236.4" y="26" class="st16" width="9" height="9"/>
		<rect x="245.4" y="26" class="st16" width="9" height="9"/>
		<rect x="200.4" y="35" class="st16" width="9" height="9"/>
		<rect x="209.4" y="35" class="st16" width="9" height="9"/>
		<rect x="218.4" y="35" class="st16" width="9" height="9"/>
		<rect x="227.4" y="35" class="st16" width="9" height="9"/>
		<rect x="236.4" y="35" class="st16" width="9" height="9"/>
		<rect x="245.4" y="35" class="st16" width="9" height="9"/>
		<rect x="200.4" y="44" class="st16" width="9" height="9"/>
		<rect x="209.4" y="44" class="st16" width="9" height="9"/>
		<rect x="218.4" y="44" class="st16" width="9" height="9"/>
		<rect x="227.4" y="44" class="st16" width="9" height="9"/>
		<rect x="236.4" y="44" class="st16" width="9" height="9"/>
		<rect x="245.4" y="44" class="st16" width="9" height="9"/>
		<rect x="200.4" y="53" class="st16" width="9" height="9"/>
		<rect x="209.4" y="53" class="st16" width="9" height="9"/>
		<rect x="218.4" y="53" class="st16" width="9" height="9"/>
		<rect x="227.4" y="53" class="st16" width="9" height="9"/>
		<rect x="236.4" y="53" class="st16" width="9" height="9"/>
		<rect x="245.4" y="53" class="st16" width="9" height="9"/>
		<rect x="200.4" y="62" class="st16" width="9" height="9"/>
		<rect x="209.4" y="62" class="st16" width="9" height="9"/>
		<rect x="218.4" y="62" class="st16" width="9" height="9"/>
		<rect x="227.4" y="62" class="st16" width="9" height="9"/>
		<rect x="236.4" y="62" class="st16" width="9" height="9"/>
		<rect x="245.4" y="62" class="st16" width="9" height="9"/>
		<rect x="200.4" y="71" class="st16" width="9" height="9"/>
		<rect x="209.4" y="71" class="st16" width="9" height="9"/>
		<rect x="218.4" y="71" class="st16" width="9" height="9"/>
		<rect x="227.4" y="71" class="st16" width="9" height="9"/>
		<rect x="236.4" y="71" class="st16" width="9" height="9"/>
		<rect x="245.4" y="71" class="st16" width="9" height="9"/>
		<rect x="200.4" y="80" class="st16" width="9" height="9"/>
		<rect x="209.4" y="80" class="st16" width="9" height="9"/>
		<rect x="218.4" y="80" class="st16" width="9" height="9"/>
		<rect x="227.4" y="80" class="st16" width="9" height="9"/>
		<rect x="236.4" y="80" class="st16" width="9" height="9"/>
		<rect x="245.4" y="80" class="st16" width="9" height="9"/>
	</g>
	<g class="st14">
		<rect x="87" y="21.9" class="st16" width="9" height="9"/>
		<rect x="96" y="21.9" class="st16" width="9" height="9"/>
		<rect x="105" y="21.9" class="st16" width="9" height="9"/>
		<rect x="114" y="21.9" class="st16" width="9" height="9"/>
		<rect x="123" y="21.9" class="st16" width="9" height="9"/>
		<rect x="132" y="21.9" class="st16" width="9" height="9"/>
		<rect x="87" y="30.9" class="st16" width="9" height="9"/>
		<rect x="96" y="30.9" class="st16" width="9" height="9"/>
		<rect x="105" y="30.9" class="st16" width="9" height="9"/>
		<rect x="114" y="30.9" class="st16" width="9" height="9"/>
		<rect x="123" y="30.9" class="st16" width="9" height="9"/>
		<rect x="132" y="30.9" class="st16" width="9" height="9"/>
		<rect x="87" y="39.9" class="st16" width="9" height="9"/>
		<rect x="96" y="39.9" class="st16" width="9" height="9"/>
		<rect x="105" y="39.9" class="st16" width="9" height="9"/>
		<rect x="114" y="39.9" class="st16" width="9" height="9"/>
		<rect x="123" y="39.9" class="st16" width="9" height="9"/>
		<rect x="132" y="39.9" class="st16" width="9" height="9"/>
		<rect x="87" y="48.9" class="st16" width="9" height="9"/>
		<rect x="96" y="48.9" class="st16" width="9" height="9"/>
		<rect x="105" y="48.9" class="st16" width="9" height="9"/>
		<rect x="114" y="48.9" class="st16" width="9" height="9"/>
		<rect x="123" y="48.9" class="st16" width="9" height="9"/>
		<rect x="132" y="48.9" class="st16" width="9" height="9"/>
		<rect x="87" y="57.9" class="st16" width="9" height="9"/>
		<rect x="96" y="57.9" class="st16" width="9" height="9"/>
		<rect x="105" y="57.9" class="st16" width="9" height="9"/>
		<rect x="114" y="57.9" class="st16" width="9" height="9"/>
		<rect x="123" y="57.9" class="st16" width="9" height="9"/>
		<rect x="132" y="57.9" class="st16" width="9" height="9"/>
		<rect x="87" y="66.9" class="st16" width="9" height="9"/>
		<rect x="96" y="66.9" class="st16" width="9" height="9"/>
		<rect x="105" y="66.9" class="st16" width="9" height="9"/>
		<rect x="114" y="66.9" class="st16" width="9" height="9"/>
		<rect x="123" y="66.9" class="st16" width="9" height="9"/>
		<rect x="132" y="66.9" class="st16" width="9" height="9"/>
		<rect x="87" y="75.9" class="st16" width="9" height="9"/>
		<rect x="96" y="75.9" class="st16" width="9" height="9"/>
		<rect x="105" y="75.9" class="st16" width="9" height="9"/>
		<rect x="114" y="75.9" class="st16" width="9" height="9"/>
		<rect x="123" y="75.9" class="st16" width="9" height="9"/>
		<rect x="132" y="75.9" class="st16" width="9" height="9"/>
	</g>
	<g class="st14">
		<rect x="36.8" y="124.4" class="st16" width="9" height="9"/>
		<rect x="45.8" y="124.4" class="st16" width="9" height="9"/>
		<rect x="54.8" y="124.4" class="st16" width="9" height="9"/>
		<rect x="63.8" y="124.4" class="st16" width="9" height="9"/>
		<rect x="72.8" y="124.4" class="st16" width="9" height="9"/>
		<rect x="81.8" y="124.4" class="st16" width="9" height="9"/>
		<rect x="36.8" y="133.4" class="st16" width="9" height="9"/>
		<rect x="45.8" y="133.4" class="st16" width="9" height="9"/>
		<rect x="54.8" y="133.4" class="st16" width="9" height="9"/>
		<rect x="63.8" y="133.4" class="st16" width="9" height="9"/>
		<rect x="72.8" y="133.4" class="st16" width="9" height="9"/>
		<rect x="81.8" y="133.4" class="st16" width="9" height="9"/>
		<rect x="36.8" y="142.4" class="st16" width="9" height="9"/>
		<rect x="45.8" y="142.4" class="st16" width="9" height="9"/>
		<rect x="54.8" y="142.4" class="st16" width="9" height="9"/>
		<rect x="63.8" y="142.4" class="st16" width="9" height="9"/>
		<rect x="72.8" y="142.4" class="st16" width="9" height="9"/>
		<rect x="81.8" y="142.4" class="st16" width="9" height="9"/>
		<rect x="36.8" y="151.4" class="st16" width="9" height="9"/>
		<rect x="45.8" y="151.4" class="st16" width="9" height="9"/>
		<rect x="54.8" y="151.4" class="st16" width="9" height="9"/>
		<rect x="63.8" y="151.4" class="st16" width="9" height="9"/>
		<rect x="72.8" y="151.4" class="st16" width="9" height="9"/>
		<rect x="81.8" y="151.4" class="st16" width="9" height="9"/>
		<rect x="36.8" y="160.4" class="st16" width="9" height="9"/>
		<rect x="45.8" y="160.4" class="st16" width="9" height="9"/>
		<rect x="54.8" y="160.4" class="st16" width="9" height="9"/>
		<rect x="63.8" y="160.4" class="st16" width="9" height="9"/>
		<rect x="72.8" y="160.4" class="st16" width="9" height="9"/>
		<rect x="81.8" y="160.4" class="st16" width="9" height="9"/>
		<rect x="36.8" y="169.4" class="st16" width="9" height="9"/>
		<rect x="45.8" y="169.4" class="st16" width="9" height="9"/>
		<rect x="54.8" y="169.4" class="st16" width="9" height="9"/>
		<rect x="63.8" y="169.4" class="st16" width="9" height="9"/>
		<rect x="72.8" y="169.4" class="st16" width="9" height="9"/>
		<rect x="81.8" y="169.4" class="st16" width="9" height="9"/>
		<rect x="36.8" y="178.4" class="st16" width="9" height="9"/>
		<rect x="45.8" y="178.4" class="st16" width="9" height="9"/>
		<rect x="54.8" y="178.4" class="st16" width="9" height="9"/>
		<rect x="63.8" y="178.4" class="st16" width="9" height="9"/>
		<rect x="72.8" y="178.4" class="st16" width="9" height="9"/>
		<rect x="81.8" y="178.4" class="st16" width="9" height="9"/>
	</g>
	<g class="st14">
		<rect x="89" y="221.2" class="st16" width="9" height="9"/>
		<rect x="98" y="221.2" class="st16" width="9" height="9"/>
		<rect x="107" y="221.2" class="st16" width="9" height="9"/>
		<rect x="116" y="221.2" class="st16" width="9" height="9"/>
		<rect x="125" y="221.2" class="st16" width="9" height="9"/>
		<rect x="134" y="221.2" class="st16" width="9" height="9"/>
		<rect x="89" y="230.2" class="st16" width="9" height="9"/>
		<rect x="98" y="230.2" class="st16" width="9" height="9"/>
		<rect x="107" y="230.2" class="st16" width="9" height="9"/>
		<rect x="116" y="230.2" class="st16" width="9" height="9"/>
		<rect x="125" y="230.2" class="st16" width="9" height="9"/>
		<rect x="134" y="230.2" class="st16" width="9" height="9"/>
		<rect x="89" y="239.2" class="st16" width="9" height="9"/>
		<rect x="98" y="239.2" class="st16" width="9" height="9"/>
		<rect x="107" y="239.2" class="st16" width="9" height="9"/>
		<rect x="116" y="239.2" class="st16" width="9" height="9"/>
		<rect x="125" y="239.2" class="st16" width="9" height="9"/>
		<rect x="134" y="239.2" class="st16" width="9" height="9"/>
		<rect x="89" y="248.2" class="st16" width="9" height="9"/>
		<rect x="98" y="248.2" class="st16" width="9" height="9"/>
		<rect x="107" y="248.2" class="st16" width="9" height="9"/>
		<rect x="116" y="248.2" class="st16" width="9" height="9"/>
		<rect x="125" y="248.2" class="st16" width="9" height="9"/>
		<rect x="134" y="248.2" class="st16" width="9" height="9"/>
		<rect x="89" y="257.2" class="st16" width="9" height="9"/>
		<rect x="98" y="257.2" class="st16" width="9" height="9"/>
		<rect x="107" y="257.2" class="st16" width="9" height="9"/>
		<rect x="116" y="257.2" class="st16" width="9" height="9"/>
		<rect x="125" y="257.2" class="st16" width="9" height="9"/>
		<rect x="134" y="257.2" class="st16" width="9" height="9"/>
		<rect x="89" y="266.2" class="st16" width="9" height="9"/>
		<rect x="98" y="266.2" class="st16" width="9" height="9"/>
		<rect x="107" y="266.2" class="st16" width="9" height="9"/>
		<rect x="116" y="266.2" class="st16" width="9" height="9"/>
		<rect x="125" y="266.2" class="st16" width="9" height="9"/>
		<rect x="134" y="266.2" class="st16" width="9" height="9"/>
		<rect x="89" y="275.2" class="st16" width="9" height="9"/>
		<rect x="98" y="275.2" class="st16" width="9" height="9"/>
		<rect x="107" y="275.2" class="st16" width="9" height="9"/>
		<rect x="116" y="275.2" class="st16" width="9" height="9"/>
		<rect x="125" y="275.2" class="st16" width="9" height="9"/>
		<rect x="134" y="275.2" class="st16" width="9" height="9"/>
	</g>
	<g class="st14">
		<rect x="204.6" y="222.5" class="st16" width="9" height="9"/>
		<rect x="213.6" y="222.5" class="st16" width="9" height="9"/>
		<rect x="222.6" y="222.5" class="st16" width="9" height="9"/>
		<rect x="231.6" y="222.5" class="st16" width="9" height="9"/>
		<rect x="240.6" y="222.5" class="st16" width="9" height="9"/>
		<rect x="249.6" y="222.5" class="st16" width="9" height="9"/>
		<rect x="204.6" y="231.5" class="st16" width="9" height="9"/>
		<rect x="213.6" y="231.5" class="st16" width="9" height="9"/>
		<rect x="222.6" y="231.5" class="st16" width="9" height="9"/>
		<rect x="231.6" y="231.5" class="st16" width="9" height="9"/>
		<rect x="240.6" y="231.5" class="st16" width="9" height="9"/>
		<rect x="249.6" y="231.5" class="st16" width="9" height="9"/>
		<rect x="204.6" y="240.5" class="st16" width="9" height="9"/>
		<rect x="213.6" y="240.5" class="st16" width="9" height="9"/>
		<rect x="222.6" y="240.5" class="st16" width="9" height="9"/>
		<rect x="231.6" y="240.5" class="st16" width="9" height="9"/>
		<rect x="240.6" y="240.5" class="st16" width="9" height="9"/>
		<rect x="249.6" y="240.5" class="st16" width="9" height="9"/>
		<rect x="204.6" y="249.5" class="st16" width="9" height="9"/>
		<rect x="213.6" y="249.5" class="st16" width="9" height="9"/>
		<rect x="222.6" y="249.5" class="st16" width="9" height="9"/>
		<rect x="231.6" y="249.5" class="st16" width="9" height="9"/>
		<rect x="240.6" y="249.5" class="st16" width="9" height="9"/>
		<rect x="249.6" y="249.5" class="st16" width="9" height="9"/>
		<rect x="204.6" y="258.5" class="st16" width="9" height="9"/>
		<rect x="213.6" y="258.5" class="st16" width="9" height="9"/>
		<rect x="222.6" y="258.5" class="st16" width="9" height="9"/>
		<rect x="231.6" y="258.5" class="st16" width="9" height="9"/>
		<rect x="240.6" y="258.5" class="st16" width="9" height="9"/>
		<rect x="249.6" y="258.5" class="st16" width="9" height="9"/>
		<rect x="204.6" y="267.5" class="st16" width="9" height="9"/>
		<rect x="213.6" y="267.5" class="st16" width="9" height="9"/>
		<rect x="222.6" y="267.5" class="st16" width="9" height="9"/>
		<rect x="231.6" y="267.5" class="st16" width="9" height="9"/>
		<rect x="240.6" y="267.5" class="st16" width="9" height="9"/>
		<rect x="249.6" y="267.5" class="st16" width="9" height="9"/>
		<rect x="204.6" y="276.5" class="st16" width="9" height="9"/>
		<rect x="213.6" y="276.5" class="st16" width="9" height="9"/>
		<rect x="222.6" y="276.5" class="st16" width="9" height="9"/>
		<rect x="231.6" y="276.5" class="st16" width="9" height="9"/>
		<rect x="240.6" y="276.5" class="st16" width="9" height="9"/>
		<rect x="249.6" y="276.5" class="st16" width="9" height="9"/>
	</g>
	<g class="st14">
		<rect x="255.8" y="119.6" class="st16" width="9" height="9"/>
		<rect x="264.8" y="119.6" class="st16" width="9" height="9"/>
		<rect x="273.8" y="119.6" class="st16" width="9" height="9"/>
		<rect x="282.8" y="119.6" class="st16" width="9" height="9"/>
		<rect x="291.8" y="119.6" class="st16" width="9" height="9"/>
		<rect x="300.8" y="119.6" class="st16" width="9" height="9"/>
		<rect x="255.8" y="128.6" class="st16" width="9" height="9"/>
		<rect x="264.8" y="128.6" class="st16" width="9" height="9"/>
		<rect x="273.8" y="128.6" class="st16" width="9" height="9"/>
		<rect x="282.8" y="128.6" class="st16" width="9" height="9"/>
		<rect x="291.8" y="128.6" class="st16" width="9" height="9"/>
		<rect x="300.8" y="128.6" class="st16" width="9" height="9"/>
		<rect x="255.8" y="137.6" class="st16" width="9" height="9"/>
		<rect x="264.8" y="137.6" class="st16" width="9" height="9"/>
		<rect x="273.8" y="137.6" class="st16" width="9" height="9"/>
		<rect x="282.8" y="137.6" class="st16" width="9" height="9"/>
		<rect x="291.8" y="137.6" class="st16" width="9" height="9"/>
		<rect x="300.8" y="137.6" class="st16" width="9" height="9"/>
		<rect x="255.8" y="146.6" class="st16" width="9" height="9"/>
		<rect x="264.8" y="146.6" class="st16" width="9" height="9"/>
		<rect x="273.8" y="146.6" class="st16" width="9" height="9"/>
		<rect x="282.8" y="146.6" class="st16" width="9" height="9"/>
		<rect x="291.8" y="146.6" class="st16" width="9" height="9"/>
		<rect x="300.8" y="146.6" class="st16" width="9" height="9"/>
		<rect x="255.8" y="155.6" class="st16" width="9" height="9"/>
		<rect x="264.8" y="155.6" class="st16" width="9" height="9"/>
		<rect x="273.8" y="155.6" class="st16" width="9" height="9"/>
		<rect x="282.8" y="155.6" class="st16" width="9" height="9"/>
		<rect x="291.8" y="155.6" class="st16" width="9" height="9"/>
		<rect x="300.8" y="155.6" class="st16" width="9" height="9"/>
		<rect x="255.8" y="164.6" class="st16" width="9" height="9"/>
		<rect x="264.8" y="164.6" class="st16" width="9" height="9"/>
		<rect x="273.8" y="164.6" class="st16" width="9" height="9"/>
		<rect x="282.8" y="164.6" class="st16" width="9" height="9"/>
		<rect x="291.8" y="164.6" class="st16" width="9" height="9"/>
		<rect x="300.8" y="164.6" class="st16" width="9" height="9"/>
		<rect x="255.8" y="173.6" class="st16" width="9" height="9"/>
		<rect x="264.8" y="173.6" class="st16" width="9" height="9"/>
		<rect x="273.8" y="173.6" class="st16" width="9" height="9"/>
		<rect x="282.8" y="173.6" class="st16" width="9" height="9"/>
		<rect x="291.8" y="173.6" class="st16" width="9" height="9"/>
		<rect x="300.8" y="173.6" class="st16" width="9" height="9"/>
	</g>
</g>
<g id="Layer_4">
	<g>
		<g>
			<path class="st19" d="M196.4,94.9c0.5,0.3,1.2,0.5,2,0.5c1,0,1.5-0.5,1.5-1.1c0-0.6-0.4-1-1.5-1.4c-1.4-0.5-2.2-1.2-2.2-2.4
				c0-1.3,1.1-2.4,2.9-2.4c0.9,0,1.6,0.2,2,0.4l-0.4,1.2c-0.3-0.2-0.9-0.4-1.6-0.4c-1,0-1.4,0.5-1.4,1c0,0.6,0.5,0.9,1.6,1.4
				c1.4,0.5,2.1,1.3,2.1,2.5c0,1.3-1,2.5-3.1,2.5c-0.9,0-1.8-0.2-2.2-0.5L196.4,94.9z"/>
			<path class="st19" d="M208,94.7c0,0.7,0,1.3,0,1.8h-1.3l-0.1-0.9h0c-0.3,0.4-0.8,1-1.9,1c-1.1,0-2.1-0.6-2.1-2.6v-3.5h1.5v3.2
				c0,1,0.3,1.6,1.1,1.6c0.6,0,1-0.4,1.2-0.8c0-0.1,0.1-0.3,0.1-0.5v-3.6h1.5V94.7z"/>
			<path class="st19" d="M209.6,95.1c0.3,0.2,1,0.4,1.5,0.4c0.7,0,1-0.3,1-0.7c0-0.4-0.2-0.6-1-0.9c-1.2-0.4-1.7-1-1.6-1.7
				c0-1.1,0.9-1.9,2.3-1.9c0.7,0,1.2,0.2,1.6,0.4l-0.3,1.1c-0.3-0.1-0.7-0.3-1.3-0.3c-0.5,0-0.8,0.3-0.8,0.6c0,0.4,0.3,0.6,1,0.8
				c1.1,0.4,1.6,0.9,1.6,1.8c0,1.1-0.8,1.9-2.4,1.9c-0.7,0-1.4-0.2-1.8-0.4L209.6,95.1z"/>
			<path class="st19" d="M216.5,88.8v1.7h1.4v1.1h-1.4v2.6c0,0.7,0.2,1.1,0.8,1.1c0.3,0,0.5,0,0.6-0.1l0,1.2
				c-0.2,0.1-0.6,0.1-1.1,0.1c-0.6,0-1-0.2-1.3-0.5c-0.3-0.3-0.5-0.9-0.5-1.7v-2.8h-0.9v-1.1h0.9v-1.3L216.5,88.8z"/>
			<path class="st19" d="M222.4,96.5l-0.1-0.7h0c-0.4,0.5-1,0.8-1.8,0.8c-1.2,0-1.9-0.9-1.9-1.8c0-1.5,1.3-2.3,3.5-2.3v-0.1
				c0-0.4-0.2-1-1.2-1c-0.6,0-1.2,0.2-1.6,0.4l-0.3-1c0.4-0.3,1.2-0.5,2.2-0.5c1.9,0,2.5,1.2,2.5,2.5v2.2c0,0.5,0,1.1,0.1,1.4H222.4
				z M222.2,93.6c-1.1,0-2.1,0.2-2.1,1.1c0,0.6,0.4,0.9,0.9,0.9c0.6,0,1-0.4,1.2-0.8c0-0.1,0-0.2,0-0.3V93.6z"/>
			<path class="st19" d="M226.9,88.9c0,0.5-0.3,0.8-0.9,0.8c-0.5,0-0.8-0.4-0.8-0.8c0-0.5,0.3-0.8,0.8-0.8
				C226.6,88,226.9,88.4,226.9,88.9z M225.3,96.5v-6h1.5v6H225.3z"/>
			<path class="st19" d="M228.4,92.3c0-0.7,0-1.3,0-1.8h1.3l0.1,0.9h0c0.3-0.5,0.9-1,1.9-1c1,0,2.1,0.7,2.1,2.6v3.5h-1.5v-3.4
				c0-0.9-0.3-1.5-1.1-1.5c-0.6,0-1,0.4-1.2,0.9c0,0.1-0.1,0.3-0.1,0.5v3.5h-1.5V92.3z"/>
			<path class="st19" d="M235.4,96.5c0-0.4,0-1.1,0-1.7v-7h1.5v3.6h0c0.4-0.6,1-1,1.9-1c1.5,0,2.5,1.2,2.5,3c0,2.1-1.4,3.2-2.7,3.2
				c-0.8,0-1.5-0.3-1.9-1h0l-0.1,0.9H235.4z M236.9,94c0,0.1,0,0.2,0,0.4c0.2,0.6,0.7,1.1,1.3,1.1c0.9,0,1.5-0.8,1.5-2
				c0-1.1-0.5-1.9-1.5-1.9c-0.6,0-1.2,0.4-1.3,1.1c0,0.1,0,0.2,0,0.4V94z"/>
			<path class="st19" d="M244.2,88.9c0,0.5-0.3,0.8-0.9,0.8c-0.5,0-0.8-0.4-0.8-0.8c0-0.5,0.3-0.8,0.8-0.8
				C243.9,88,244.2,88.4,244.2,88.9z M242.6,96.5v-6h1.5v6H242.6z"/>
			<path class="st19" d="M245.7,87.8h1.5v8.7h-1.5V87.8z"/>
			<path class="st19" d="M250.5,88.9c0,0.5-0.3,0.8-0.9,0.8c-0.5,0-0.8-0.4-0.8-0.8c0-0.5,0.3-0.8,0.8-0.8
				C250.2,88,250.5,88.4,250.5,88.9z M248.9,96.5v-6h1.5v6H248.9z"/>
			<path class="st19" d="M253.8,88.8v1.7h1.4v1.1h-1.4v2.6c0,0.7,0.2,1.1,0.8,1.1c0.3,0,0.5,0,0.6-0.1l0,1.2
				c-0.2,0.1-0.6,0.1-1.1,0.1c-0.6,0-1-0.2-1.3-0.5c-0.3-0.3-0.5-0.9-0.5-1.7v-2.8h-0.9v-1.1h0.9v-1.3L253.8,88.8z"/>
			<path class="st19" d="M257.4,90.5l1.1,3.2c0.1,0.4,0.2,0.8,0.3,1.2h0c0.1-0.3,0.2-0.8,0.3-1.2l0.9-3.2h1.6l-1.5,4.1
				c-0.8,2.2-1.4,3.2-2.1,3.8c-0.6,0.5-1.2,0.7-1.6,0.8l-0.3-1.3c0.3-0.1,0.6-0.2,0.9-0.4c0.3-0.2,0.6-0.5,0.8-0.9
				c0.1-0.1,0.1-0.2,0.1-0.3c0-0.1,0-0.1-0.1-0.3l-2.2-5.5H257.4z"/>
			<path class="st19" d="M202.3,108.2l-0.1-0.7h0c-0.4,0.5-1,0.8-1.8,0.8c-1.2,0-1.9-0.9-1.9-1.8c0-1.5,1.3-2.3,3.5-2.3v-0.1
				c0-0.4-0.2-1-1.2-1c-0.6,0-1.2,0.2-1.6,0.4l-0.3-1c0.4-0.3,1.2-0.5,2.2-0.5c1.9,0,2.5,1.2,2.5,2.5v2.2c0,0.5,0,1.1,0.1,1.4H202.3
				z M202.1,105.2c-1.1,0-2.1,0.2-2.1,1.1c0,0.6,0.4,0.9,0.9,0.9c0.6,0,1-0.4,1.2-0.8c0-0.1,0-0.2,0-0.3V105.2z"/>
			<path class="st19" d="M205.1,106.8c0.3,0.2,1,0.4,1.5,0.4c0.7,0,1-0.3,1-0.7c0-0.4-0.2-0.6-1-0.9c-1.2-0.4-1.7-1-1.6-1.7
				c0-1.1,0.9-1.9,2.3-1.9c0.7,0,1.2,0.2,1.6,0.4l-0.3,1.1c-0.3-0.1-0.7-0.3-1.3-0.3c-0.5,0-0.8,0.3-0.8,0.6c0,0.4,0.3,0.6,1,0.8
				c1.1,0.4,1.6,0.9,1.6,1.8c0,1.1-0.8,1.9-2.4,1.9c-0.7,0-1.4-0.2-1.8-0.4L205.1,106.8z"/>
			<path class="st19" d="M210.2,106.8c0.3,0.2,1,0.4,1.5,0.4c0.7,0,1-0.3,1-0.7c0-0.4-0.2-0.6-1-0.9c-1.2-0.4-1.7-1-1.6-1.7
				c0-1.1,0.9-1.9,2.3-1.9c0.7,0,1.2,0.2,1.6,0.4l-0.3,1.1c-0.3-0.1-0.7-0.3-1.3-0.3c-0.5,0-0.8,0.3-0.8,0.6c0,0.4,0.3,0.6,1,0.8
				c1.1,0.4,1.6,0.9,1.6,1.8c0,1.1-0.8,1.9-2.4,1.9c-0.7,0-1.4-0.2-1.8-0.4L210.2,106.8z"/>
			<path class="st19" d="M216.5,105.6c0,1.1,0.9,1.5,1.8,1.5c0.7,0,1.2-0.1,1.7-0.3l0.2,1c-0.5,0.2-1.2,0.4-2.1,0.4
				c-1.9,0-3.1-1.2-3.1-3c0-1.7,1-3.2,2.9-3.2c1.9,0,2.6,1.6,2.6,2.9c0,0.3,0,0.5,0,0.6H216.5z M219.1,104.5c0-0.6-0.2-1.5-1.2-1.5
				c-0.9,0-1.3,0.8-1.4,1.5H219.1z"/>
			<path class="st19" d="M221.7,106.8c0.3,0.2,1,0.4,1.5,0.4c0.7,0,1-0.3,1-0.7c0-0.4-0.2-0.6-1-0.9c-1.2-0.4-1.7-1-1.6-1.7
				c0-1.1,0.9-1.9,2.3-1.9c0.7,0,1.2,0.2,1.6,0.4l-0.3,1.1c-0.3-0.1-0.7-0.3-1.3-0.3c-0.5,0-0.8,0.3-0.8,0.6c0,0.4,0.3,0.6,1,0.8
				c1.1,0.4,1.6,0.9,1.6,1.8c0,1.1-0.8,1.9-2.4,1.9c-0.7,0-1.4-0.2-1.8-0.4L221.7,106.8z"/>
			<path class="st19" d="M226.8,106.8c0.3,0.2,1,0.4,1.5,0.4c0.7,0,1-0.3,1-0.7c0-0.4-0.2-0.6-1-0.9c-1.2-0.4-1.7-1-1.6-1.7
				c0-1.1,0.9-1.9,2.3-1.9c0.7,0,1.2,0.2,1.6,0.4l-0.3,1.1c-0.3-0.1-0.7-0.3-1.3-0.3c-0.5,0-0.8,0.3-0.8,0.6c0,0.4,0.3,0.6,1,0.8
				c1.1,0.4,1.6,0.9,1.6,1.8c0,1.1-0.8,1.9-2.4,1.9c-0.7,0-1.4-0.2-1.8-0.4L226.8,106.8z"/>
			<path class="st19" d="M232,104c0-0.7,0-1.3,0-1.8h1.3l0.1,0.9h0c0.3-0.5,0.8-1,1.8-1c0.8,0,1.4,0.4,1.7,1.1h0
				c0.2-0.3,0.5-0.6,0.7-0.7c0.3-0.2,0.7-0.4,1.2-0.4c1,0,2,0.7,2,2.6v3.5h-1.5v-3.3c0-1-0.3-1.6-1.1-1.6c-0.5,0-0.9,0.4-1.1,0.8
				c0,0.1-0.1,0.3-0.1,0.5v3.6h-1.5v-3.5c0-0.8-0.3-1.4-1-1.4c-0.6,0-0.9,0.4-1.1,0.9c-0.1,0.1-0.1,0.3-0.1,0.5v3.5H232V104z"/>
			<path class="st19" d="M243.4,105.6c0,1.1,0.9,1.5,1.8,1.5c0.7,0,1.2-0.1,1.7-0.3l0.2,1c-0.5,0.2-1.2,0.4-2.1,0.4
				c-1.9,0-3.1-1.2-3.1-3c0-1.7,1-3.2,2.9-3.2c1.9,0,2.6,1.6,2.6,2.9c0,0.3,0,0.5,0,0.6H243.4z M246,104.5c0-0.6-0.2-1.5-1.2-1.5
				c-0.9,0-1.3,0.8-1.4,1.5H246z"/>
			<path class="st19" d="M248.7,104c0-0.7,0-1.3,0-1.8h1.3l0.1,0.9h0c0.3-0.5,0.9-1,1.9-1c1,0,2.1,0.7,2.1,2.6v3.5h-1.5v-3.4
				c0-0.9-0.3-1.5-1.1-1.5c-0.6,0-1,0.4-1.2,0.9c0,0.1-0.1,0.3-0.1,0.5v3.5h-1.5V104z"/>
			<path class="st19" d="M257.3,100.5v1.7h1.4v1.1h-1.4v2.6c0,0.7,0.2,1.1,0.8,1.1c0.3,0,0.5,0,0.6-0.1l0,1.2
				c-0.2,0.1-0.6,0.1-1.1,0.1c-0.6,0-1-0.2-1.3-0.5c-0.3-0.3-0.5-0.9-0.5-1.7v-2.8H255v-1.1h0.9v-1.3L257.3,100.5z"/>
		</g>
		<g>
			<path class="st19" d="M81.1,94.2l-0.7,2.3h-1.6l2.6-8.3h1.9l2.7,8.3h-1.6l-0.7-2.3H81.1z M83.5,93l-0.6-2
				c-0.2-0.5-0.3-1.1-0.4-1.5h0c-0.1,0.5-0.2,1.1-0.4,1.5l-0.6,2H83.5z"/>
			<path class="st19" d="M87.1,92.3c0-0.7,0-1.3,0-1.8h1.3l0.1,0.9h0c0.3-0.5,0.9-1,1.9-1c1,0,2.1,0.7,2.1,2.6v3.5H91v-3.4
				c0-0.9-0.3-1.5-1.1-1.5c-0.6,0-1,0.4-1.2,0.9c0,0.1-0.1,0.3-0.1,0.5v3.5h-1.5V92.3z"/>
			<path class="st19" d="M95.7,88.9c0,0.5-0.3,0.8-0.9,0.8c-0.5,0-0.8-0.4-0.8-0.8c0-0.5,0.3-0.8,0.8-0.8
				C95.4,88,95.7,88.4,95.7,88.9z M94.1,96.5v-6h1.5v6H94.1z"/>
			<path class="st19" d="M97.2,92.3c0-0.7,0-1.3,0-1.8h1.3l0.1,0.9h0c0.3-0.5,0.8-1,1.8-1c0.8,0,1.4,0.4,1.7,1.1h0
				c0.2-0.3,0.5-0.6,0.7-0.7c0.3-0.2,0.7-0.4,1.2-0.4c1,0,2,0.7,2,2.6v3.5h-1.5v-3.3c0-1-0.3-1.6-1.1-1.6c-0.5,0-0.9,0.4-1.1,0.8
				c0,0.1-0.1,0.3-0.1,0.5v3.6h-1.5V93c0-0.8-0.3-1.4-1-1.4c-0.6,0-0.9,0.4-1.1,0.9c-0.1,0.1-0.1,0.3-0.1,0.5v3.5h-1.5V92.3z"/>
			<path class="st19" d="M111,96.5l-0.1-0.7h0c-0.4,0.5-1,0.8-1.8,0.8c-1.2,0-1.9-0.9-1.9-1.8c0-1.5,1.3-2.3,3.5-2.3v-0.1
				c0-0.4-0.2-1-1.2-1c-0.6,0-1.2,0.2-1.6,0.4l-0.3-1c0.4-0.3,1.2-0.5,2.2-0.5c1.9,0,2.5,1.2,2.5,2.5v2.2c0,0.5,0,1.1,0.1,1.4H111z
				 M110.8,93.6c-1.1,0-2.1,0.2-2.1,1.1c0,0.6,0.4,0.9,0.9,0.9c0.6,0,1-0.4,1.2-0.8c0-0.1,0-0.2,0-0.3V93.6z"/>
			<path class="st19" d="M113.9,87.8h1.5v8.7h-1.5V87.8z"/>
			<path class="st19" d="M119.7,96.5v-4.8h-0.8v-1.1h0.8v-0.3c0-1.6,1.1-2.6,2.9-2.6c0.6,0,1.3,0.2,1.6,0.4l-0.3,1.1
				c-0.3-0.2-0.7-0.3-1.3-0.3c-1.1,0-1.4,0.6-1.4,1.4v0.2h3.6v6h-1.5v-4.8h-2v4.8H119.7z"/>
			<path class="st19" d="M128.1,88.8v1.7h1.4v1.1h-1.4v2.6c0,0.7,0.2,1.1,0.8,1.1c0.3,0,0.5,0,0.6-0.1l0,1.2
				c-0.2,0.1-0.6,0.1-1.1,0.1c-0.6,0-1-0.2-1.3-0.5c-0.3-0.3-0.5-0.9-0.5-1.7v-2.8h-0.9v-1.1h0.9v-1.3L128.1,88.8z"/>
			<path class="st19" d="M130.7,92.3c0-0.7,0-1.3,0-1.8h1.3l0.1,0.9h0c0.3-0.5,0.9-1,1.9-1c1,0,2.1,0.7,2.1,2.6v3.5h-1.5v-3.4
				c0-0.9-0.3-1.5-1.1-1.5c-0.6,0-1,0.4-1.2,0.9c0,0.1-0.1,0.3-0.1,0.5v3.5h-1.5V92.3z"/>
			<path class="st19" d="M138.8,93.9c0,1.1,0.9,1.5,1.8,1.5c0.7,0,1.2-0.1,1.7-0.3l0.2,1c-0.5,0.2-1.2,0.4-2.1,0.4
				c-1.9,0-3.1-1.2-3.1-3c0-1.7,1-3.2,2.9-3.2c1.9,0,2.6,1.6,2.6,2.9c0,0.3,0,0.5,0,0.6H138.8z M141.4,92.9c0-0.6-0.2-1.5-1.2-1.5
				c-0.9,0-1.3,0.8-1.4,1.5H141.4z"/>
			<path class="st19" d="M143.9,95.1c0.3,0.2,1,0.4,1.5,0.4c0.7,0,1-0.3,1-0.7c0-0.4-0.2-0.6-1-0.9c-1.2-0.4-1.7-1-1.6-1.7
				c0-1.1,0.9-1.9,2.3-1.9c0.7,0,1.2,0.2,1.6,0.4l-0.3,1.1c-0.3-0.1-0.7-0.3-1.3-0.3c-0.5,0-0.8,0.3-0.8,0.6c0,0.4,0.3,0.6,1,0.8
				c1.1,0.4,1.6,0.9,1.6,1.8c0,1.1-0.8,1.9-2.4,1.9c-0.7,0-1.4-0.2-1.8-0.4L143.9,95.1z"/>
			<path class="st19" d="M149,95.1c0.3,0.2,1,0.4,1.5,0.4c0.7,0,1-0.3,1-0.7c0-0.4-0.2-0.6-1-0.9c-1.2-0.4-1.7-1-1.6-1.7
				c0-1.1,0.9-1.9,2.3-1.9c0.7,0,1.2,0.2,1.6,0.4l-0.3,1.1c-0.3-0.1-0.7-0.3-1.3-0.3c-0.5,0-0.8,0.3-0.8,0.6c0,0.4,0.3,0.6,1,0.8
				c1.1,0.4,1.6,0.9,1.6,1.8c0,1.1-0.8,1.9-2.4,1.9c-0.7,0-1.4-0.2-1.8-0.4L149,95.1z"/>
			<path class="st19" d="M96.6,100.5v1.7H98v1.1h-1.4v2.6c0,0.7,0.2,1.1,0.8,1.1c0.3,0,0.5,0,0.6-0.1l0,1.2
				c-0.2,0.1-0.6,0.1-1.1,0.1c-0.6,0-1-0.2-1.3-0.5c-0.3-0.3-0.5-0.9-0.5-1.7v-2.8h-0.9v-1.1h0.9v-1.3L96.6,100.5z"/>
			<path class="st19" d="M99.2,104.1c0-0.8,0-1.4,0-1.9h1.3l0,1.1h0c0.3-0.8,1-1.3,1.6-1.3c0.1,0,0.2,0,0.4,0v1.4
				c-0.1,0-0.3,0-0.4,0c-0.7,0-1.2,0.5-1.3,1.1c0,0.1,0,0.3,0,0.5v3.1h-1.5V104.1z"/>
			<path class="st19" d="M106.8,108.2l-0.1-0.7h0c-0.4,0.5-1,0.8-1.8,0.8c-1.2,0-1.9-0.9-1.9-1.8c0-1.5,1.3-2.3,3.5-2.3v-0.1
				c0-0.4-0.2-1-1.2-1c-0.6,0-1.2,0.2-1.6,0.4l-0.3-1c0.4-0.3,1.2-0.5,2.2-0.5c1.9,0,2.5,1.2,2.5,2.5v2.2c0,0.5,0,1.1,0.1,1.4H106.8
				z M106.6,105.2c-1.1,0-2.1,0.2-2.1,1.1c0,0.6,0.4,0.9,0.9,0.9c0.6,0,1-0.4,1.2-0.8c0-0.1,0-0.2,0-0.3V105.2z"/>
			<path class="st19" d="M114,108c-0.3,0.1-0.9,0.3-1.7,0.3c-1.9,0-3.1-1.2-3.1-3c0-1.8,1.2-3.2,3.3-3.2c0.6,0,1.1,0.1,1.5,0.3
				l-0.3,1.1c-0.2-0.1-0.6-0.2-1.1-0.2c-1.2,0-1.8,0.8-1.8,1.9c0,1.2,0.8,1.9,1.8,1.9c0.5,0,0.9-0.1,1.2-0.2L114,108z"/>
			<path class="st19" d="M116.7,104.8L116.7,104.8c0.2-0.2,0.3-0.5,0.5-0.7l1.4-1.9h1.8l-2.2,2.4l2.5,3.5h-1.8l-1.7-2.6l-0.5,0.6v2
				h-1.5v-8.7h1.5V104.8z"/>
			<path class="st19" d="M123.2,100.5c0,0.5-0.3,0.8-0.9,0.8c-0.5,0-0.8-0.4-0.8-0.8c0-0.5,0.3-0.8,0.8-0.8
				C122.8,99.7,123.1,100.1,123.2,100.5z M121.6,108.2v-6h1.5v6H121.6z"/>
			<path class="st19" d="M124.7,104c0-0.7,0-1.3,0-1.8h1.3l0.1,0.9h0c0.3-0.5,0.9-1,1.9-1c1,0,2.1,0.7,2.1,2.6v3.5h-1.5v-3.4
				c0-0.9-0.3-1.5-1.1-1.5c-0.6,0-1,0.4-1.2,0.9c0,0.1-0.1,0.3-0.1,0.5v3.5h-1.5V104z"/>
			<path class="st19" d="M137.1,102.2c0,0.4,0,0.9,0,1.7v3.4c0,1.3-0.3,2.1-0.9,2.7c-0.6,0.6-1.5,0.7-2.3,0.7
				c-0.8,0-1.6-0.2-2.1-0.5l0.3-1.1c0.4,0.2,1,0.5,1.7,0.5c1,0,1.7-0.5,1.7-1.8v-0.5h0c-0.3,0.5-1,0.9-1.7,0.9
				c-1.5,0-2.5-1.2-2.5-2.9c0-2,1.3-3.1,2.7-3.1c0.9,0,1.4,0.4,1.7,0.9h0l0.1-0.8H137.1z M135.6,104.6c0-0.1,0-0.3,0-0.4
				c-0.2-0.6-0.6-1-1.2-1c-0.8,0-1.5,0.7-1.5,1.9c0,1,0.5,1.8,1.5,1.8c0.6,0,1.1-0.4,1.2-0.9c0-0.2,0.1-0.4,0.1-0.5V104.6z"/>
		</g>
		<g>
			<path class="st19" d="M57.4,199.1c-0.4,0.2-1.1,0.4-2.1,0.4c-2.6,0-4.2-1.6-4.2-4.2c0-2.7,1.9-4.4,4.4-4.4c1,0,1.7,0.2,2,0.4
				l-0.3,1.2c-0.4-0.2-0.9-0.3-1.6-0.3c-1.7,0-2.9,1.1-2.9,3c0,1.8,1.1,3,2.9,3c0.6,0,1.3-0.1,1.6-0.3L57.4,199.1z"/>
			<path class="st19" d="M58.6,195.3c0-0.8,0-1.4,0-1.9h1.3l0,1.1h0c0.3-0.8,1-1.3,1.6-1.3c0.1,0,0.2,0,0.4,0v1.4
				c-0.1,0-0.3,0-0.4,0c-0.7,0-1.2,0.5-1.3,1.1c0,0.1,0,0.3,0,0.5v3.1h-1.5V195.3z"/>
			<path class="st19" d="M68.5,196.3c0,2.2-1.5,3.2-3.1,3.2c-1.7,0-3-1.2-3-3.1c0-2,1.3-3.2,3.1-3.2
				C67.3,193.2,68.5,194.5,68.5,196.3z M64,196.3c0,1.2,0.6,2,1.5,2c0.9,0,1.5-0.8,1.5-2c0-0.9-0.4-2-1.4-2
				C64.4,194.3,64,195.3,64,196.3z"/>
			<path class="st19" d="M69.8,195.3c0-0.8,0-1.4,0-2H71l0.1,0.9h0c0.4-0.7,1.1-1.1,2-1.1c1.4,0,2.5,1.2,2.5,3
				c0,2.2-1.4,3.2-2.7,3.2c-0.7,0-1.4-0.3-1.7-0.8h0v3.1h-1.5V195.3z M71.3,196.8c0,0.1,0,0.3,0,0.4c0.1,0.6,0.7,1.1,1.3,1.1
				c1,0,1.5-0.8,1.5-2c0-1.1-0.5-1.9-1.5-1.9c-0.6,0-1.2,0.5-1.3,1.1c0,0.1-0.1,0.3-0.1,0.4V196.8z"/>
			<path class="st19" d="M42.7,206.9c0-0.8,0-1.4,0-1.9H44l0,1.1h0c0.3-0.8,1-1.3,1.6-1.3c0.1,0,0.2,0,0.4,0v1.4c-0.1,0-0.3,0-0.4,0
				c-0.7,0-1.2,0.5-1.3,1.1c0,0.1,0,0.3,0,0.5v3.1h-1.5V206.9z"/>
			<path class="st19" d="M52.6,207.9c0,2.2-1.5,3.2-3.1,3.2c-1.7,0-3-1.2-3-3.1c0-2,1.3-3.2,3.1-3.2
				C51.4,204.9,52.6,206.1,52.6,207.9z M48.1,208c0,1.2,0.6,2,1.5,2c0.9,0,1.5-0.8,1.5-2c0-0.9-0.4-2-1.4-2
				C48.5,206,48.1,207,48.1,208z"/>
			<path class="st19" d="M55.6,203.3v1.7H57v1.1h-1.4v2.6c0,0.7,0.2,1.1,0.8,1.1c0.3,0,0.5,0,0.6-0.1l0,1.2
				c-0.2,0.1-0.6,0.1-1.1,0.1c-0.6,0-1-0.2-1.3-0.5c-0.3-0.3-0.5-0.9-0.5-1.7v-2.8h-0.9V205h0.9v-1.3L55.6,203.3z"/>
			<path class="st19" d="M61.5,211l-0.1-0.7h0c-0.4,0.5-1,0.8-1.8,0.8c-1.2,0-1.9-0.9-1.9-1.8c0-1.5,1.3-2.3,3.5-2.3V207
				c0-0.4-0.2-1-1.2-1c-0.6,0-1.2,0.2-1.6,0.4l-0.3-1c0.4-0.3,1.2-0.5,2.2-0.5c1.9,0,2.5,1.2,2.5,2.5v2.2c0,0.5,0,1.1,0.1,1.4H61.5z
				 M61.3,208.1c-1.1,0-2.1,0.2-2.1,1.1c0,0.6,0.4,0.9,0.9,0.9c0.6,0,1-0.4,1.2-0.8c0-0.1,0-0.2,0-0.3V208.1z"/>
			<path class="st19" d="M66,203.3v1.7h1.4v1.1H66v2.6c0,0.7,0.2,1.1,0.8,1.1c0.3,0,0.5,0,0.6-0.1l0,1.2c-0.2,0.1-0.6,0.1-1.1,0.1
				c-0.6,0-1-0.2-1.3-0.5c-0.3-0.3-0.5-0.9-0.5-1.7v-2.8h-0.9V205h0.9v-1.3L66,203.3z"/>
			<path class="st19" d="M70.2,203.3c0,0.5-0.3,0.8-0.9,0.8c-0.5,0-0.8-0.4-0.8-0.8c0-0.5,0.3-0.8,0.8-0.8
				C69.9,202.5,70.2,202.9,70.2,203.3z M68.6,211v-6h1.5v6H68.6z"/>
			<path class="st19" d="M77.4,207.9c0,2.2-1.5,3.2-3.1,3.2c-1.7,0-3-1.2-3-3.1c0-2,1.3-3.2,3.1-3.2
				C76.2,204.9,77.4,206.1,77.4,207.9z M72.9,208c0,1.2,0.6,2,1.5,2c0.9,0,1.5-0.8,1.5-2c0-0.9-0.4-2-1.4-2
				C73.3,206,72.9,207,72.9,208z"/>
			<path class="st19" d="M78.6,206.8c0-0.7,0-1.3,0-1.8h1.3l0.1,0.9h0c0.3-0.5,0.9-1,1.9-1c1,0,2.1,0.7,2.1,2.6v3.5h-1.5v-3.4
				c0-0.9-0.3-1.5-1.1-1.5c-0.6,0-1,0.4-1.2,0.9c0,0.1-0.1,0.3-0.1,0.5v3.5h-1.5V206.8z"/>
		</g>
		<g>
			<path class="st19" d="M247.9,181.2c0.5-0.1,1.3-0.2,2.3-0.2c1.1,0,1.9,0.2,2.4,0.7c0.5,0.4,0.8,1.1,0.8,1.8
				c0,0.8-0.2,1.4-0.7,1.9c-0.6,0.6-1.5,0.9-2.6,0.9c-0.3,0-0.5,0-0.7,0v3.1h-1.5V181.2z M249.4,185.1c0.2,0,0.4,0.1,0.7,0.1
				c1.1,0,1.8-0.6,1.8-1.5c0-0.9-0.6-1.4-1.7-1.4c-0.4,0-0.7,0-0.9,0.1V185.1z"/>
			<path class="st19" d="M254.3,185.3c0-0.8,0-1.4,0-1.9h1.3l0,1.1h0c0.3-0.8,1-1.3,1.6-1.3c0.1,0,0.2,0,0.4,0v1.4
				c-0.1,0-0.3,0-0.4,0c-0.7,0-1.2,0.5-1.3,1.1c0,0.1,0,0.3,0,0.5v3.1h-1.5V185.3z"/>
			<path class="st19" d="M259.4,186.8c0,1.1,0.9,1.5,1.8,1.5c0.7,0,1.2-0.1,1.7-0.3l0.2,1c-0.5,0.2-1.2,0.4-2.1,0.4
				c-1.9,0-3.1-1.2-3.1-3c0-1.7,1-3.2,2.9-3.2c1.9,0,2.6,1.6,2.6,2.9c0,0.3,0,0.5,0,0.6H259.4z M262,185.8c0-0.6-0.2-1.5-1.2-1.5
				c-0.9,0-1.3,0.8-1.4,1.5H262z"/>
			<path class="st19" d="M268.8,189.2c-0.3,0.1-0.9,0.3-1.7,0.3c-1.9,0-3.1-1.2-3.1-3c0-1.8,1.2-3.2,3.3-3.2c0.6,0,1.1,0.1,1.5,0.3
				l-0.3,1.1c-0.2-0.1-0.6-0.2-1.1-0.2c-1.2,0-1.8,0.8-1.8,1.9c0,1.2,0.8,1.9,1.8,1.9c0.5,0,0.9-0.1,1.2-0.2L268.8,189.2z"/>
			<path class="st19" d="M271.3,181.7c0,0.5-0.3,0.8-0.9,0.8c-0.5,0-0.8-0.4-0.8-0.8c0-0.5,0.3-0.8,0.8-0.8
				C270.9,180.9,271.2,181.3,271.3,181.7z M269.7,189.4v-6h1.5v6H269.7z"/>
			<path class="st19" d="M272.5,188c0.3,0.2,1,0.4,1.5,0.4c0.7,0,1-0.3,1-0.7c0-0.4-0.2-0.6-1-0.9c-1.2-0.4-1.7-1-1.6-1.7
				c0-1.1,0.9-1.9,2.3-1.9c0.7,0,1.2,0.2,1.6,0.4l-0.3,1.1c-0.3-0.1-0.7-0.3-1.3-0.3c-0.5,0-0.8,0.3-0.8,0.6c0,0.4,0.3,0.6,1,0.8
				c1.1,0.4,1.6,0.9,1.6,1.8c0,1.1-0.8,1.9-2.4,1.9c-0.7,0-1.4-0.2-1.8-0.4L272.5,188z"/>
			<path class="st19" d="M279,181.7c0,0.5-0.3,0.8-0.9,0.8c-0.5,0-0.8-0.4-0.8-0.8c0-0.5,0.3-0.8,0.8-0.8
				C278.7,180.9,279,181.3,279,181.7z M277.4,189.4v-6h1.5v6H277.4z"/>
			<path class="st19" d="M286,186.3c0,2.2-1.5,3.2-3.1,3.2c-1.7,0-3-1.2-3-3.1c0-2,1.3-3.2,3.1-3.2C284.8,183.3,286,184.5,286,186.3
				z M281.5,186.4c0,1.2,0.6,2,1.5,2c0.9,0,1.5-0.8,1.5-2c0-0.9-0.4-2-1.4-2C281.9,184.4,281.5,185.4,281.5,186.4z"/>
			<path class="st19" d="M287,185.2c0-0.7,0-1.3,0-1.8h1.3l0.1,0.9h0c0.3-0.5,0.9-1,1.9-1c1,0,2.1,0.7,2.1,2.6v3.5h-1.5V186
				c0-0.9-0.3-1.5-1.1-1.5c-0.6,0-1,0.4-1.2,0.9c0,0.1-0.1,0.3-0.1,0.5v3.5H287V185.2z"/>
			<path class="st19" d="M296,185.2c0-0.7,0-1.3,0-1.8h1.3l0.1,0.9h0c0.3-0.5,0.8-1,1.8-1c0.8,0,1.4,0.4,1.7,1.1h0
				c0.2-0.3,0.5-0.6,0.7-0.7c0.3-0.2,0.7-0.4,1.2-0.4c1,0,2,0.7,2,2.6v3.5h-1.5v-3.3c0-1-0.3-1.6-1.1-1.6c-0.5,0-0.9,0.4-1.1,0.8
				c0,0.1-0.1,0.3-0.1,0.5v3.6h-1.5v-3.5c0-0.8-0.3-1.4-1-1.4c-0.6,0-0.9,0.4-1.1,0.9c-0.1,0.1-0.1,0.3-0.1,0.5v3.5H296V185.2z"/>
			<path class="st19" d="M309.5,189.4l-0.1-0.7h0c-0.4,0.5-1,0.8-1.8,0.8c-1.2,0-1.9-0.9-1.9-1.8c0-1.5,1.3-2.3,3.5-2.3v-0.1
				c0-0.4-0.2-1-1.2-1c-0.6,0-1.2,0.2-1.6,0.4l-0.3-1c0.4-0.3,1.2-0.5,2.2-0.5c1.9,0,2.5,1.2,2.5,2.5v2.2c0,0.5,0,1.1,0.1,1.4H309.5
				z M309.3,186.5c-1.1,0-2.1,0.2-2.1,1.1c0,0.6,0.4,0.9,0.9,0.9c0.6,0,1-0.4,1.2-0.8c0-0.1,0-0.2,0-0.3V186.5z"/>
			<path class="st19" d="M312.1,185.4c0-0.8,0-1.4,0-2h1.3l0.1,0.9h0c0.4-0.7,1.1-1.1,2-1.1c1.4,0,2.5,1.2,2.5,3
				c0,2.2-1.4,3.2-2.7,3.2c-0.7,0-1.4-0.3-1.7-0.8h0v3.1h-1.5V185.4z M313.6,186.9c0,0.1,0,0.3,0,0.4c0.1,0.6,0.7,1.1,1.3,1.1
				c1,0,1.5-0.8,1.5-2c0-1.1-0.5-1.9-1.5-1.9c-0.6,0-1.2,0.5-1.3,1.1c0,0.1-0.1,0.3-0.1,0.4V186.9z"/>
			<path class="st19" d="M319,188c0.3,0.2,1,0.4,1.5,0.4c0.7,0,1-0.3,1-0.7c0-0.4-0.2-0.6-1-0.9c-1.2-0.4-1.7-1-1.6-1.7
				c0-1.1,0.9-1.9,2.3-1.9c0.7,0,1.2,0.2,1.6,0.4l-0.3,1.1c-0.3-0.1-0.7-0.3-1.3-0.3c-0.5,0-0.8,0.3-0.8,0.6c0,0.4,0.3,0.6,1,0.8
				c1.1,0.4,1.6,0.9,1.6,1.8c0,1.1-0.8,1.9-2.4,1.9c-0.7,0-1.4-0.2-1.8-0.4L319,188z"/>
			<path class="st19" d="M326.6,185.6v1h-3.1v-1H326.6z"/>
			<path class="st19" d="M245,193.4v1.7h1.4v1.1H245v2.6c0,0.7,0.2,1.1,0.8,1.1c0.3,0,0.5,0,0.6-0.1l0,1.2c-0.2,0.1-0.6,0.1-1.1,0.1
				c-0.6,0-1-0.2-1.3-0.5c-0.3-0.3-0.5-0.9-0.5-1.7v-2.8h-0.9v-1.1h0.9v-1.3L245,193.4z"/>
			<path class="st19" d="M248.3,198.5c0,1.1,0.9,1.5,1.8,1.5c0.7,0,1.2-0.1,1.7-0.3l0.2,1c-0.5,0.2-1.2,0.4-2.1,0.4
				c-1.9,0-3.1-1.2-3.1-3c0-1.7,1-3.2,2.9-3.2c1.9,0,2.6,1.6,2.6,2.9c0,0.3,0,0.5,0,0.6H248.3z M250.9,197.4c0-0.6-0.2-1.5-1.2-1.5
				c-0.9,0-1.3,0.8-1.4,1.5H250.9z"/>
			<path class="st19" d="M253.3,197c0-0.8,0-1.4,0-1.9h1.3l0,1.1h0c0.3-0.8,1-1.3,1.6-1.3c0.1,0,0.2,0,0.4,0v1.4c-0.1,0-0.3,0-0.4,0
				c-0.7,0-1.2,0.5-1.3,1.1c0,0.1,0,0.3,0,0.5v3.1h-1.5V197z"/>
			<path class="st19" d="M257.4,197c0-0.8,0-1.4,0-1.9h1.3l0,1.1h0c0.3-0.8,1-1.3,1.6-1.3c0.1,0,0.2,0,0.4,0v1.4c-0.1,0-0.3,0-0.4,0
				c-0.7,0-1.2,0.5-1.3,1.1c0,0.1,0,0.3,0,0.5v3.1h-1.5V197z"/>
			<path class="st19" d="M264.8,201l-0.1-0.7h0c-0.4,0.5-1,0.8-1.8,0.8c-1.2,0-1.9-0.9-1.9-1.8c0-1.5,1.3-2.3,3.5-2.3V197
				c0-0.4-0.2-1-1.2-1c-0.6,0-1.2,0.2-1.6,0.4l-0.3-1c0.4-0.3,1.2-0.5,2.2-0.5c1.9,0,2.5,1.2,2.5,2.5v2.2c0,0.5,0,1.1,0.1,1.4H264.8
				z M264.6,198.1c-1.1,0-2.1,0.2-2.1,1.1c0,0.6,0.4,0.9,0.9,0.9c0.6,0,1-0.4,1.2-0.8c0-0.1,0-0.2,0-0.3V198.1z"/>
			<path class="st19" d="M269,193.4c0,0.5-0.3,0.8-0.9,0.8c-0.5,0-0.8-0.4-0.8-0.8c0-0.5,0.3-0.8,0.8-0.8
				C268.7,192.6,269,192.9,269,193.4z M267.4,201v-6h1.5v6H267.4z"/>
			<path class="st19" d="M270.3,196.9c0-0.7,0-1.3,0-1.8h1.3l0.1,0.9h0c0.3-0.5,0.9-1,1.9-1c1,0,2.1,0.7,2.1,2.6v3.5h-1.5v-3.4
				c0-0.9-0.3-1.5-1.1-1.5c-0.6,0-1,0.4-1.2,0.9c0,0.1-0.1,0.3-0.1,0.5v3.5h-1.5V196.9z"/>
			<path class="st19" d="M276.3,202.5c0.3-0.9,0.7-2.2,0.8-3.2l1.6-0.1c-0.3,1.2-0.9,2.5-1.4,3.3L276.3,202.5z"/>
			<path class="st19" d="M281.9,199.7c0.3,0.2,1,0.4,1.5,0.4c0.7,0,1-0.3,1-0.7c0-0.4-0.2-0.6-1-0.9c-1.2-0.4-1.7-1-1.6-1.7
				c0-1.1,0.9-1.9,2.3-1.9c0.7,0,1.2,0.2,1.6,0.4l-0.3,1.1c-0.3-0.1-0.7-0.3-1.3-0.3c-0.5,0-0.8,0.3-0.8,0.6c0,0.4,0.3,0.6,1,0.8
				c1.1,0.4,1.6,0.9,1.6,1.8c0,1.1-0.8,1.9-2.4,1.9c-0.7,0-1.4-0.2-1.8-0.4L281.9,199.7z"/>
			<path class="st19" d="M292.5,198c0,2.2-1.5,3.2-3.1,3.2c-1.7,0-3-1.2-3-3.1c0-2,1.3-3.2,3.1-3.2
				C291.3,194.9,292.5,196.2,292.5,198z M288,198.1c0,1.2,0.6,2,1.5,2c0.9,0,1.5-0.8,1.5-2c0-0.9-0.4-2-1.4-2
				C288.5,196,288,197.1,288,198.1z"/>
			<path class="st19" d="M295.1,193.4c0,0.5-0.3,0.8-0.9,0.8c-0.5,0-0.8-0.4-0.8-0.8c0-0.5,0.3-0.8,0.8-0.8
				C294.8,192.6,295.1,192.9,295.1,193.4z M293.5,201v-6h1.5v6H293.5z"/>
			<path class="st19" d="M296.4,192.3h1.5v8.7h-1.5V192.3z"/>
			<path class="st19" d="M298.5,202.5c0.3-0.9,0.7-2.2,0.8-3.2l1.6-0.1c-0.3,1.2-0.9,2.5-1.4,3.3L298.5,202.5z"/>
			<path class="st19" d="M305,195.1l0.6,2.7c0.1,0.6,0.3,1.3,0.4,1.9h0c0.1-0.6,0.3-1.3,0.5-1.9l0.8-2.7h1.2l0.7,2.6
				c0.2,0.7,0.3,1.3,0.5,2h0c0.1-0.6,0.2-1.3,0.4-2l0.7-2.6h1.5l-1.9,6h-1.4l-0.7-2.4c-0.2-0.6-0.3-1.2-0.5-1.9h0
				c-0.1,0.7-0.3,1.3-0.5,1.9l-0.8,2.4h-1.4l-1.8-6H305z"/>
			<path class="st19" d="M314,198.5c0,1.1,0.9,1.5,1.8,1.5c0.7,0,1.2-0.1,1.7-0.3l0.2,1c-0.5,0.2-1.2,0.4-2.1,0.4
				c-1.9,0-3.1-1.2-3.1-3c0-1.7,1-3.2,2.9-3.2c1.9,0,2.6,1.6,2.6,2.9c0,0.3,0,0.5,0,0.6H314z M316.6,197.4c0-0.6-0.2-1.5-1.2-1.5
				c-0.9,0-1.3,0.8-1.4,1.5H316.6z"/>
			<path class="st19" d="M320,198.5c0,1.1,0.9,1.5,1.8,1.5c0.7,0,1.2-0.1,1.7-0.3l0.2,1c-0.5,0.2-1.2,0.4-2.1,0.4
				c-1.9,0-3.1-1.2-3.1-3c0-1.7,1-3.2,2.9-3.2c1.9,0,2.6,1.6,2.6,2.9c0,0.3,0,0.5,0,0.6H320z M322.7,197.4c0-0.6-0.2-1.5-1.2-1.5
				c-0.9,0-1.3,0.8-1.4,1.5H322.7z"/>
			<path class="st19" d="M330.5,192.3v7c0,0.6,0,1.3,0,1.7h-1.3l-0.1-0.9h0c-0.4,0.7-1.1,1.1-1.9,1.1c-1.4,0-2.5-1.2-2.5-3.1
				c0-2,1.2-3.2,2.7-3.2c0.8,0,1.4,0.3,1.7,0.8h0v-3.4H330.5z M329,197.6c0-0.1,0-0.3,0-0.4c-0.1-0.6-0.6-1.1-1.3-1.1
				c-1,0-1.5,0.9-1.5,2c0,1.1,0.5,1.9,1.5,1.9c0.6,0,1.2-0.4,1.3-1.1c0-0.1,0-0.3,0-0.4V197.6z"/>
			<path class="st19" d="M331.1,202.5c0.3-0.9,0.7-2.2,0.8-3.2l1.6-0.1c-0.3,1.2-0.9,2.5-1.4,3.3L331.1,202.5z"/>
			<path class="st19" d="M268.9,212.7l-0.1-0.7h0c-0.4,0.5-1,0.8-1.8,0.8c-1.2,0-1.9-0.9-1.9-1.8c0-1.5,1.3-2.3,3.5-2.3v-0.1
				c0-0.4-0.2-1-1.2-1c-0.6,0-1.2,0.2-1.6,0.4l-0.3-1c0.4-0.3,1.2-0.5,2.2-0.5c1.9,0,2.5,1.2,2.5,2.5v2.2c0,0.5,0,1.1,0.1,1.4H268.9
				z M268.7,209.8c-1.1,0-2.1,0.2-2.1,1.1c0,0.6,0.4,0.9,0.9,0.9c0.6,0,1-0.4,1.2-0.8c0-0.1,0-0.2,0-0.3V209.8z"/>
			<path class="st19" d="M271.6,208.5c0-0.7,0-1.3,0-1.8h1.3l0.1,0.9h0c0.3-0.5,0.9-1,1.9-1c1,0,2.1,0.7,2.1,2.6v3.5h-1.5v-3.4
				c0-0.9-0.3-1.5-1.1-1.5c-0.6,0-1,0.4-1.2,0.9c0,0.1-0.1,0.3-0.1,0.5v3.5h-1.5V208.5z"/>
			<path class="st19" d="M283.8,204v7c0,0.6,0,1.3,0,1.7h-1.3l-0.1-0.9h0c-0.4,0.7-1.1,1.1-1.9,1.1c-1.4,0-2.5-1.2-2.5-3.1
				c0-2,1.2-3.2,2.7-3.2c0.8,0,1.4,0.3,1.7,0.8h0V204H283.8z M282.3,209.2c0-0.1,0-0.3,0-0.4c-0.1-0.6-0.6-1.1-1.3-1.1
				c-1,0-1.5,0.9-1.5,2c0,1.1,0.5,1.9,1.5,1.9c0.6,0,1.2-0.4,1.3-1.1c0-0.1,0-0.3,0-0.4V209.2z"/>
			<path class="st19" d="M288.4,206.7l1.1,3.2c0.1,0.4,0.2,0.8,0.3,1.2h0c0.1-0.3,0.2-0.8,0.3-1.2l0.9-3.2h1.6l-1.5,4.1
				c-0.8,2.2-1.4,3.2-2.1,3.8c-0.6,0.5-1.2,0.7-1.6,0.8l-0.3-1.3c0.3-0.1,0.6-0.2,0.9-0.4c0.3-0.2,0.6-0.5,0.8-0.9
				c0.1-0.1,0.1-0.2,0.1-0.3c0-0.1,0-0.1-0.1-0.3l-2.2-5.5H288.4z"/>
			<path class="st19" d="M295,205.1c0,0.5-0.3,0.8-0.9,0.8c-0.5,0-0.8-0.4-0.8-0.8c0-0.5,0.3-0.8,0.8-0.8
				C294.6,204.3,295,204.6,295,205.1z M293.4,212.7v-6h1.5v6H293.4z"/>
			<path class="st19" d="M297.3,210.1c0,1.1,0.9,1.5,1.8,1.5c0.7,0,1.2-0.1,1.7-0.3l0.2,1c-0.5,0.2-1.2,0.4-2.1,0.4
				c-1.9,0-3.1-1.2-3.1-3c0-1.7,1-3.2,2.9-3.2c1.9,0,2.6,1.6,2.6,2.9c0,0.3,0,0.5,0,0.6H297.3z M299.9,209.1c0-0.6-0.2-1.5-1.2-1.5
				c-0.9,0-1.3,0.8-1.4,1.5H299.9z"/>
			<path class="st19" d="M302.3,204h1.5v8.7h-1.5V204z"/>
			<path class="st19" d="M310.7,204v7c0,0.6,0,1.3,0,1.7h-1.3l-0.1-0.9h0c-0.4,0.7-1.1,1.1-1.9,1.1c-1.4,0-2.5-1.2-2.5-3.1
				c0-2,1.2-3.2,2.7-3.2c0.8,0,1.4,0.3,1.7,0.8h0V204H310.7z M309.2,209.2c0-0.1,0-0.3,0-0.4c-0.1-0.6-0.6-1.1-1.3-1.1
				c-1,0-1.5,0.9-1.5,2c0,1.1,0.5,1.9,1.5,1.9c0.6,0,1.2-0.4,1.3-1.1c0-0.1,0-0.3,0-0.4V209.2z"/>
		</g>
		<g>
			<path class="st19" d="M216.3,290.6c0,2.8-1.7,4.3-4,4.3c-2.3,0-3.8-1.8-3.8-4.2c0-2.5,1.6-4.3,3.9-4.3
				C214.8,286.4,216.3,288.2,216.3,290.6z M210.1,290.7c0,1.7,0.8,3,2.3,3c1.5,0,2.3-1.3,2.3-3.1c0-1.6-0.8-3-2.3-3
				C210.9,287.6,210.1,289,210.1,290.7z"/>
			<path class="st19" d="M217.5,290.6c0-0.7,0-1.3,0-1.8h1.3l0.1,0.9h0c0.3-0.5,0.9-1,1.9-1c1,0,2.1,0.7,2.1,2.6v3.5h-1.5v-3.4
				c0-0.9-0.3-1.5-1.1-1.5c-0.6,0-1,0.4-1.2,0.9c0,0.1-0.1,0.3-0.1,0.5v3.5h-1.5V290.6z"/>
			<path class="st19" d="M227.2,291v1h-3.1v-1H227.2z"/>
			<path class="st19" d="M228.6,294.8v-4.8h-0.8v-1.1h0.8v-0.3c0-0.8,0.2-1.5,0.7-2c0.4-0.4,1-0.6,1.6-0.6c0.4,0,0.7,0.1,1,0.1
				l-0.1,1.2c-0.2-0.1-0.4-0.1-0.6-0.1c-0.7,0-1,0.6-1,1.4v0.3h1.3v1.1h-1.3v4.8H228.6z"/>
			<path class="st19" d="M235.7,294.8l-0.1-0.7h0c-0.4,0.5-1,0.8-1.8,0.8c-1.2,0-1.9-0.9-1.9-1.8c0-1.5,1.3-2.3,3.5-2.3v-0.1
				c0-0.4-0.2-1-1.2-1c-0.6,0-1.2,0.2-1.6,0.4l-0.3-1c0.4-0.3,1.2-0.5,2.2-0.5c1.9,0,2.5,1.2,2.5,2.5v2.2c0,0.5,0,1.1,0.1,1.4H235.7
				z M235.5,291.9c-1.1,0-2.1,0.2-2.1,1.1c0,0.6,0.4,0.9,0.9,0.9c0.6,0,1-0.4,1.2-0.8c0-0.1,0-0.2,0-0.3V291.9z"/>
			<path class="st19" d="M238.5,290.7c0-0.8,0-1.4,0-1.9h1.3l0,1.1h0c0.3-0.8,1-1.3,1.6-1.3c0.1,0,0.2,0,0.4,0v1.4
				c-0.1,0-0.3,0-0.4,0c-0.7,0-1.2,0.5-1.3,1.1c0,0.1,0,0.3,0,0.5v3.1h-1.5V290.7z"/>
			<path class="st19" d="M242.9,290.6c0-0.7,0-1.3,0-1.8h1.3l0.1,0.9h0c0.3-0.5,0.8-1,1.8-1c0.8,0,1.4,0.4,1.7,1.1h0
				c0.2-0.3,0.5-0.6,0.7-0.7c0.3-0.2,0.7-0.4,1.2-0.4c1,0,2,0.7,2,2.6v3.5h-1.5v-3.3c0-1-0.3-1.6-1.1-1.6c-0.5,0-0.9,0.4-1.1,0.8
				c0,0.1-0.1,0.3-0.1,0.5v3.6h-1.5v-3.5c0-0.8-0.3-1.4-1-1.4c-0.6,0-0.9,0.4-1.1,0.9c-0.1,0.1-0.1,0.3-0.1,0.5v3.5h-1.5V290.6z"/>
			<path class="st19" d="M219.7,298.8v1.7h1.4v1.1h-1.4v2.6c0,0.7,0.2,1.1,0.8,1.1c0.3,0,0.5,0,0.6-0.1l0,1.2
				c-0.2,0.1-0.6,0.1-1.1,0.1c-0.6,0-1-0.2-1.3-0.5c-0.3-0.3-0.5-0.9-0.5-1.7v-2.8h-0.9v-1.1h0.9v-1.3L219.7,298.8z"/>
			<path class="st19" d="M222.2,302.4c0-0.8,0-1.4,0-1.9h1.3l0,1.1h0c0.3-0.8,1-1.3,1.6-1.3c0.1,0,0.2,0,0.4,0v1.4
				c-0.1,0-0.3,0-0.4,0c-0.7,0-1.2,0.5-1.3,1.1c0,0.1,0,0.3,0,0.5v3.1h-1.5V302.4z"/>
			<path class="st19" d="M228.2,298.8c0,0.5-0.3,0.8-0.9,0.8c-0.5,0-0.8-0.4-0.8-0.8c0-0.5,0.3-0.8,0.8-0.8
				C227.9,298,228.2,298.3,228.2,298.8z M226.6,306.4v-6h1.5v6H226.6z"/>
			<path class="st19" d="M233.1,306.4l-0.1-0.7h0c-0.4,0.5-1,0.8-1.8,0.8c-1.2,0-1.9-0.9-1.9-1.8c0-1.5,1.3-2.3,3.5-2.3v-0.1
				c0-0.4-0.2-1-1.2-1c-0.6,0-1.2,0.2-1.6,0.4l-0.3-1c0.4-0.3,1.2-0.5,2.2-0.5c1.9,0,2.5,1.2,2.5,2.5v2.2c0,0.5,0,1.1,0.1,1.4H233.1
				z M232.9,303.5c-1.1,0-2.1,0.2-2.1,1.1c0,0.6,0.4,0.9,0.9,0.9c0.6,0,1-0.4,1.2-0.8c0-0.1,0-0.2,0-0.3V303.5z"/>
			<path class="st19" d="M236,297.7h1.5v8.7H236V297.7z"/>
			<path class="st19" d="M239,305.1c0.3,0.2,1,0.4,1.5,0.4c0.7,0,1-0.3,1-0.7c0-0.4-0.2-0.6-1-0.9c-1.2-0.4-1.7-1-1.6-1.7
				c0-1.1,0.9-1.9,2.3-1.9c0.7,0,1.2,0.2,1.6,0.4l-0.3,1.1c-0.3-0.1-0.7-0.3-1.3-0.3c-0.5,0-0.8,0.3-0.8,0.6c0,0.4,0.3,0.6,1,0.8
				c1.1,0.4,1.6,0.9,1.6,1.8c0,1.1-0.8,1.9-2.4,1.9c-0.7,0-1.4-0.2-1.8-0.4L239,305.1z"/>
		</g>
		<g>
			<path class="st19" d="M80.2,293.1c0.5,0.3,1.2,0.5,2,0.5c1,0,1.5-0.5,1.5-1.1c0-0.6-0.4-1-1.5-1.4c-1.4-0.5-2.2-1.2-2.2-2.4
				c0-1.3,1.1-2.4,2.9-2.4c0.9,0,1.6,0.2,2,0.4l-0.4,1.2c-0.3-0.2-0.9-0.4-1.6-0.4c-1,0-1.4,0.5-1.4,1c0,0.6,0.5,0.9,1.6,1.4
				c1.4,0.5,2.1,1.3,2.1,2.5c0,1.3-1,2.5-3.1,2.5c-0.9,0-1.8-0.2-2.2-0.5L80.2,293.1z"/>
			<path class="st19" d="M92.3,291.7c0,2.2-1.5,3.2-3.1,3.2c-1.7,0-3-1.2-3-3.1c0-2,1.3-3.2,3.1-3.2
				C91.1,288.7,92.3,289.9,92.3,291.7z M87.8,291.8c0,1.2,0.6,2,1.5,2c0.9,0,1.5-0.8,1.5-2c0-0.9-0.4-2-1.4-2
				C88.2,289.8,87.8,290.8,87.8,291.8z"/>
			<path class="st19" d="M95.1,287.1c0,0.5-0.3,0.8-0.9,0.8c-0.5,0-0.8-0.4-0.8-0.8c0-0.5,0.3-0.8,0.8-0.8
				C94.8,286.3,95.1,286.7,95.1,287.1z M93.5,294.8v-6H95v6H93.5z"/>
			<path class="st19" d="M96.7,286.1h1.5v8.7h-1.5V286.1z"/>
			<path class="st19" d="M105.7,294.8l-0.1-0.7h0c-0.4,0.5-1,0.8-1.8,0.8c-1.2,0-1.9-0.9-1.9-1.8c0-1.5,1.3-2.3,3.5-2.3v-0.1
				c0-0.4-0.2-1-1.2-1c-0.6,0-1.2,0.2-1.6,0.4l-0.3-1c0.4-0.3,1.2-0.5,2.2-0.5c1.9,0,2.5,1.2,2.5,2.5v2.2c0,0.5,0,1.1,0.1,1.4H105.7
				z M105.5,291.9c-1.1,0-2.1,0.2-2.1,1.1c0,0.6,0.4,0.9,0.9,0.9c0.6,0,1-0.4,1.2-0.8c0-0.1,0-0.2,0-0.3V291.9z"/>
			<path class="st19" d="M108.6,290.6c0-0.7,0-1.3,0-1.8h1.3l0.1,0.9h0c0.3-0.5,0.9-1,1.9-1c1,0,2.1,0.7,2.1,2.6v3.5h-1.5v-3.4
				c0-0.9-0.3-1.5-1.1-1.5c-0.6,0-1,0.4-1.2,0.9c0,0.1-0.1,0.3-0.1,0.5v3.5h-1.5V290.6z"/>
			<path class="st19" d="M121.1,286.1v7c0,0.6,0,1.3,0,1.7h-1.3l-0.1-0.9h0c-0.4,0.7-1.1,1.1-1.9,1.1c-1.4,0-2.5-1.2-2.5-3.1
				c0-2,1.2-3.2,2.7-3.2c0.8,0,1.4,0.3,1.7,0.8h0v-3.4H121.1z M119.6,291.3c0-0.1,0-0.3,0-0.4c-0.1-0.6-0.6-1.1-1.3-1.1
				c-1,0-1.5,0.9-1.5,2c0,1.1,0.5,1.9,1.5,1.9c0.6,0,1.2-0.4,1.3-1.1c0-0.1,0-0.3,0-0.4V291.3z"/>
			<path class="st19" d="M126.1,288.8l0.6,2.7c0.1,0.6,0.3,1.3,0.4,1.9h0c0.1-0.6,0.3-1.3,0.5-1.9l0.8-2.7h1.2l0.7,2.6
				c0.2,0.7,0.3,1.3,0.5,2h0c0.1-0.6,0.2-1.3,0.4-2l0.7-2.6h1.5l-1.9,6h-1.4l-0.7-2.4c-0.2-0.6-0.3-1.2-0.5-1.9h0
				c-0.1,0.7-0.3,1.3-0.5,1.9l-0.8,2.4h-1.4l-1.8-6H126.1z"/>
			<path class="st19" d="M137.7,294.8l-0.1-0.7h0c-0.4,0.5-1,0.8-1.8,0.8c-1.2,0-1.9-0.9-1.9-1.8c0-1.5,1.3-2.3,3.5-2.3v-0.1
				c0-0.4-0.2-1-1.2-1c-0.6,0-1.2,0.2-1.6,0.4l-0.3-1c0.4-0.3,1.2-0.5,2.2-0.5c1.9,0,2.5,1.2,2.5,2.5v2.2c0,0.5,0,1.1,0.1,1.4H137.7
				z M137.5,291.9c-1.1,0-2.1,0.2-2.1,1.1c0,0.6,0.4,0.9,0.9,0.9c0.6,0,1-0.4,1.2-0.8c0-0.1,0-0.2,0-0.3V291.9z"/>
			<path class="st19" d="M142.2,287.1v1.7h1.4v1.1h-1.4v2.6c0,0.7,0.2,1.1,0.8,1.1c0.3,0,0.5,0,0.6-0.1l0,1.2
				c-0.2,0.1-0.6,0.1-1.1,0.1c-0.6,0-1-0.2-1.3-0.5c-0.3-0.3-0.5-0.9-0.5-1.7v-2.8h-0.9v-1.1h0.9v-1.3L142.2,287.1z"/>
			<path class="st19" d="M145.8,292.2c0,1.1,0.9,1.5,1.8,1.5c0.7,0,1.2-0.1,1.7-0.3l0.2,1c-0.5,0.2-1.2,0.4-2.1,0.4
				c-1.9,0-3.1-1.2-3.1-3c0-1.7,1-3.2,2.9-3.2c1.9,0,2.6,1.6,2.6,2.9c0,0.3,0,0.5,0,0.6H145.8z M148.4,291.2c0-0.6-0.2-1.5-1.2-1.5
				c-0.9,0-1.3,0.8-1.4,1.5H148.4z"/>
			<path class="st19" d="M151,290.7c0-0.8,0-1.4,0-1.9h1.3l0,1.1h0c0.3-0.8,1-1.3,1.6-1.3c0.1,0,0.2,0,0.4,0v1.4c-0.1,0-0.3,0-0.4,0
				c-0.7,0-1.2,0.5-1.3,1.1c0,0.1,0,0.3,0,0.5v3.1H151V290.7z"/>
			<path class="st19" d="M83.5,302.3c0-0.7,0-1.3,0-1.8h1.3l0.1,0.9h0c0.3-0.5,0.8-1,1.8-1c0.8,0,1.4,0.4,1.7,1.1h0
				c0.2-0.3,0.5-0.6,0.7-0.7c0.3-0.2,0.7-0.4,1.2-0.4c1,0,2,0.7,2,2.6v3.5h-1.5v-3.3c0-1-0.3-1.6-1.1-1.6c-0.5,0-0.9,0.4-1.1,0.8
				c0,0.1-0.1,0.3-0.1,0.5v3.6h-1.5V303c0-0.8-0.3-1.4-1-1.4c-0.6,0-0.9,0.4-1.1,0.9c-0.1,0.1-0.1,0.3-0.1,0.5v3.5h-1.5V302.3z"/>
			<path class="st19" d="M97.2,306.4l-0.1-0.7h0c-0.4,0.5-1,0.8-1.8,0.8c-1.2,0-1.9-0.9-1.9-1.8c0-1.5,1.3-2.3,3.5-2.3v-0.1
				c0-0.4-0.2-1-1.2-1c-0.6,0-1.2,0.2-1.6,0.4l-0.3-1c0.4-0.3,1.2-0.5,2.2-0.5c1.9,0,2.5,1.2,2.5,2.5v2.2c0,0.5,0,1.1,0.1,1.4H97.2z
				 M97,303.5c-1.1,0-2.1,0.2-2.1,1.1c0,0.6,0.4,0.9,0.9,0.9c0.6,0,1-0.4,1.2-0.8c0-0.1,0-0.2,0-0.3V303.5z"/>
			<path class="st19" d="M100.1,302.3c0-0.7,0-1.3,0-1.8h1.3l0.1,0.9h0c0.3-0.5,0.9-1,1.9-1c1,0,2.1,0.7,2.1,2.6v3.5H104v-3.4
				c0-0.9-0.3-1.5-1.1-1.5c-0.6,0-1,0.4-1.2,0.9c0,0.1-0.1,0.3-0.1,0.5v3.5h-1.5V302.3z"/>
			<path class="st19" d="M110.5,306.4l-0.1-0.7h0c-0.4,0.5-1,0.8-1.8,0.8c-1.2,0-1.9-0.9-1.9-1.8c0-1.5,1.3-2.3,3.5-2.3v-0.1
				c0-0.4-0.2-1-1.2-1c-0.6,0-1.2,0.2-1.6,0.4l-0.3-1c0.4-0.3,1.2-0.5,2.2-0.5c1.9,0,2.5,1.2,2.5,2.5v2.2c0,0.5,0,1.1,0.1,1.4H110.5
				z M110.3,303.5c-1.1,0-2.1,0.2-2.1,1.1c0,0.6,0.4,0.9,0.9,0.9c0.6,0,1-0.4,1.2-0.8c0-0.1,0-0.2,0-0.3V303.5z"/>
			<path class="st19" d="M118.8,300.5c0,0.4,0,0.9,0,1.7v3.4c0,1.3-0.3,2.1-0.9,2.7c-0.6,0.6-1.5,0.7-2.3,0.7
				c-0.8,0-1.6-0.2-2.1-0.5l0.3-1.1c0.4,0.2,1,0.5,1.7,0.5c1,0,1.7-0.5,1.7-1.8v-0.5h0c-0.3,0.5-1,0.9-1.7,0.9
				c-1.5,0-2.5-1.2-2.5-2.9c0-2,1.3-3.1,2.7-3.1c0.9,0,1.4,0.4,1.7,0.9h0l0.1-0.8H118.8z M117.2,302.9c0-0.1,0-0.3,0-0.4
				c-0.2-0.6-0.6-1-1.2-1c-0.8,0-1.5,0.7-1.5,1.9c0,1,0.5,1.8,1.5,1.8c0.6,0,1.1-0.4,1.2-0.9c0-0.2,0.1-0.4,0.1-0.5V302.9z"/>
			<path class="st19" d="M121.4,303.9c0,1.1,0.9,1.5,1.8,1.5c0.7,0,1.2-0.1,1.7-0.3l0.2,1c-0.5,0.2-1.2,0.4-2.1,0.4
				c-1.9,0-3.1-1.2-3.1-3c0-1.7,1-3.2,2.9-3.2c1.9,0,2.6,1.6,2.6,2.9c0,0.3,0,0.5,0,0.6H121.4z M124,302.8c0-0.6-0.2-1.5-1.2-1.5
				c-0.9,0-1.3,0.8-1.4,1.5H124z"/>
			<path class="st19" d="M126.7,302.3c0-0.7,0-1.3,0-1.8h1.3l0.1,0.9h0c0.3-0.5,0.8-1,1.8-1c0.8,0,1.4,0.4,1.7,1.1h0
				c0.2-0.3,0.5-0.6,0.7-0.7c0.3-0.2,0.7-0.4,1.2-0.4c1,0,2,0.7,2,2.6v3.5H134v-3.3c0-1-0.3-1.6-1.1-1.6c-0.5,0-0.9,0.4-1.1,0.8
				c0,0.1-0.1,0.3-0.1,0.5v3.6h-1.5V303c0-0.8-0.3-1.4-1-1.4c-0.6,0-0.9,0.4-1.1,0.9c-0.1,0.1-0.1,0.3-0.1,0.5v3.5h-1.5V302.3z"/>
			<path class="st19" d="M138.1,303.9c0,1.1,0.9,1.5,1.8,1.5c0.7,0,1.2-0.1,1.7-0.3l0.2,1c-0.5,0.2-1.2,0.4-2.1,0.4
				c-1.9,0-3.1-1.2-3.1-3c0-1.7,1-3.2,2.9-3.2c1.9,0,2.6,1.6,2.6,2.9c0,0.3,0,0.5,0,0.6H138.1z M140.7,302.8c0-0.6-0.2-1.5-1.2-1.5
				c-0.9,0-1.3,0.8-1.4,1.5H140.7z"/>
			<path class="st19" d="M143.4,302.3c0-0.7,0-1.3,0-1.8h1.3l0.1,0.9h0c0.3-0.5,0.9-1,1.9-1c1,0,2.1,0.7,2.1,2.6v3.5h-1.5v-3.4
				c0-0.9-0.3-1.5-1.1-1.5c-0.6,0-1,0.4-1.2,0.9c0,0.1-0.1,0.3-0.1,0.5v3.5h-1.5V302.3z"/>
			<path class="st19" d="M152,298.8v1.7h1.4v1.1H152v2.6c0,0.7,0.2,1.1,0.8,1.1c0.3,0,0.5,0,0.6-0.1l0,1.2c-0.2,0.1-0.6,0.1-1.1,0.1
				c-0.6,0-1-0.2-1.3-0.5c-0.3-0.3-0.5-0.9-0.5-1.7v-2.8h-0.9v-1.1h0.9v-1.3L152,298.8z"/>
		</g>
	</g>
	<path class="st18" d="M226.4,67.4c-4.9,0-8.8-6.4-8.8-14.4s3.9-14.4,8.8-14.4s8.8,6.4,8.8,14.4"/>
	<line class="st18" x1="226.4" y1="38.6" x2="226.4" y2="67.4"/>
	<path class="st18" d="M212,53h28.8c0-8-6.4-14.4-14.4-14.4S212,45,212,53s6.4,14.4,14.4,14.4"/>
	<path class="st18" d="M214.3,45.1c0,0,11.3,2.4,24.3,0"/>
	<path class="st18" d="M214.3,60.3c0,0,5-1.1,12.1-1.1"/>
	<line class="st18" x1="217.1" y1="79.6" x2="237.1" y2="79.6"/>
	<rect x="229.9" y="56" class="st18" width="13.1" height="13.1"/>
	<g>
		<g>
			<polyline class="st27" points="224.9,72.4 207.1,72.4 207.1,29.7 226.4,29.7 227.1,29.7 227.1,32.8 			"/>
			<g>
				<polygon class="st19" points="224.1,31.9 227.1,37.1 230.1,31.9 				"/>
			</g>
		</g>
	</g>
	<line class="st18" x1="227.2" y1="79.6" x2="227.2" y2="74.7"/>
	<polyline class="st18" points="232.3,62.8 235,65.5 240.3,60.2 	"/>
	<g>
		<line class="st20" x1="78.9" y1="151.1" x2="78.9" y2="178.5"/>
		<polyline class="st12" points="81.7,162.1 78.9,164.7 76.1,162.1 		"/>
		<polyline class="st12" points="81.7,158.5 78.9,161 76.1,158.5 		"/>
		<polyline class="st12" points="78.9,168.5 76.1,165.7 76.1,154.6 78.9,157.1 81.7,154.6 81.7,165.7 78.9,168.5 		"/>
		<polyline class="st12" points="78.9,174.1 75.1,170.4 71.7,173.6 		"/>
	</g>
	<g>
		<line class="st20" x1="48.7" y1="133.4" x2="48.7" y2="161.7"/>
		<polyline class="st12" points="45.8,144.8 48.7,147.5 51.6,144.8 		"/>
		<polyline class="st12" points="45.8,141 48.7,143.7 51.6,141 		"/>
		<polyline class="st12" points="48.7,151.4 51.6,148.5 51.6,137 48.7,139.7 45.8,137 45.8,148.5 48.7,151.4 		"/>
		<polyline class="st12" points="48.7,157.2 52.6,153.4 56.1,156.7 		"/>
	</g>
	<g>
		<rect x="100.1" y="38.3" class="st12" width="33.7" height="33.7"/>
		<polygon class="st12" points="127.2,30.3 106.7,30.3 103.7,38.1 130.2,38.1 		"/>
		<polygon class="st12" points="130.2,72.1 103.7,72.1 106.7,79.9 127.2,79.9 		"/>
		<g>
			<g>
				<polyline class="st12" points="107.5,60.2 110.1,61.9 116.8,54 121.9,57.2 127.3,50.5 				"/>
				<g>
					<polygon class="st19" points="129.1,53 130,47.1 124.4,49.3 					"/>
				</g>
			</g>
		</g>
		<circle class="st12" cx="105.9" cy="58.8" r="2.3"/>
	</g>
	<g>
		<g>
			<polyline class="st12" points="304.7,137.5 304.7,172.7 261,172.7 261,133.2 296.8,133.2 			"/>
			<g>
				<polygon class="st19" points="301.8,138.3 304.7,133.2 307.7,138.3 				"/>
			</g>
		</g>
	</g>
	<circle class="st12" cx="299" cy="133.1" r="2.3"/>
	<polyline class="st12" points="276.3,172.7 281.7,166.4 290.6,172.4 	"/>
	<polyline class="st12" points="261,142.4 285.2,161.5 283.8,163.9 296.1,172.7 	"/>
	<polyline class="st12" points="261,147.3 280,162.5 272.1,172.7 	"/>
	<g>
		<line class="st12" x1="295.8" y1="139" x2="295.8" y2="166"/>
		<polyline class="st12" points="298.8,149.1 295.8,151.9 292.8,149.1 		"/>
		<polyline class="st12" points="298.8,145.2 295.8,147.9 292.8,145.2 		"/>
		<polyline class="st12" points="295.8,156 292.8,152.9 292.8,141 295.8,143.8 298.8,141 298.8,152.9 295.8,156 		"/>
		<polyline class="st12" points="295.8,162.1 291.7,158.1 288,161.4 		"/>
	</g>
	<line class="st12" x1="275" y1="153.3" x2="288.3" y2="133.1"/>
	<line id="XMLID_162_" class="st23" x1="230.6" y1="271.3" x2="230.6" y2="279.5"/>
	<g id="XMLID_160_">
		<g>
			<polyline class="st23" points="251.9,242.3 251.9,271.3 209.4,271.3 209.4,240.1 241.1,240.1 			"/>
			<g>
				<polygon class="st19" points="248.9,243.2 251.9,238 254.9,243.2 				"/>
			</g>
		</g>
	</g>
	<path id="XMLID_159_" class="st25" d="M242.9,241.9L242.9,241.9c-1.5-0.9-1.5-3,0-3.9c1.5-0.9,3.4,0.2,3.4,1.9
		C246.3,241.7,244.4,242.8,242.9,241.9z"/>
	<line id="XMLID_158_" class="st23" x1="209.6" y1="265.1" x2="251.9" y2="265.1"/>
	<line id="XMLID_157_" class="st23" x1="222.7" y1="279.5" x2="238.5" y2="279.5"/>
	<circle class="st18" cx="227.2" cy="72.4" r="2.3"/>
	<g>
		<path class="st12" d="M128.6,267.1c0,3.6-2.9,6.6-6.6,6.6c-3.6,0-6.6-2.9-6.6-6.6c0-3.6,6.6-11.9,6.6-11.9
			S128.6,263.5,128.6,267.1z"/>
		<path class="st12" d="M119,266.1c0,0-0.3,3.8,3.4,4.1"/>
		<line class="st12" x1="110.3" y1="246.7" x2="115.7" y2="246.7"/>
		<polyline class="st12" points="131.4,278.7 102.9,278.7 102.9,246.7 107,246.7 		"/>
		<g>
			<g>
				<polyline class="st12" points="136.6,246.7 141.1,246.7 141.1,274.4 				"/>
				<g>
					<polygon class="st19" points="138.1,273.5 141.1,278.7 144.1,273.5 					"/>
				</g>
			</g>
		</g>
		<circle class="st12" cx="133.6" cy="278.7" r="2.3"/>
		<line class="st12" x1="119.1" y1="246.7" x2="124.8" y2="246.7"/>
		<line class="st12" x1="128.5" y1="246.7" x2="133" y2="246.7"/>
	</g>
	<line class="st12" x1="108.6" y1="244.2" x2="108.6" y2="249"/>
	<line class="st12" x1="117.1" y1="244.2" x2="117.1" y2="249"/>
	<line class="st12" x1="126.6" y1="244.2" x2="126.6" y2="249"/>
	<line class="st12" x1="134.8" y1="244.2" x2="134.8" y2="249"/>
	<g>
		<g>
			<line class="st12" x1="78.8" y1="136.5" x2="78.8" y2="144.1"/>
			<g>
				<polygon class="st19" points="75.8,143.2 78.8,148.4 81.8,143.2 				"/>
			</g>
		</g>
	</g>
	<line class="st12" x1="51.8" y1="133.4" x2="75.7" y2="133.4"/>
	<line class="st12" x1="51.2" y1="178.4" x2="75.7" y2="178.4"/>
	<g>
		<g>
			<line class="st12" x1="48.8" y1="168.4" x2="48.8" y2="175.9"/>
			<g>
				<polygon class="st19" points="45.8,169.3 48.8,164.1 51.8,169.3 				"/>
			</g>
		</g>
	</g>
	<circle class="st12" cx="48.8" cy="178.4" r="2.3"/>
	<circle class="st12" cx="78.5" cy="133.7" r="2.3"/>
	<line class="st12" x1="230.7" y1="242.2" x2="230.7" y2="262.3"/>
	<line class="st12" x1="213.9" y1="246.7" x2="225.9" y2="246.7"/>
	<line class="st12" x1="213.9" y1="253.4" x2="225.9" y2="253.4"/>
	<line class="st12" x1="213.9" y1="260" x2="225.9" y2="260"/>
	<line class="st12" x1="235.5" y1="246.7" x2="247.5" y2="246.7"/>
	<line class="st12" x1="235.5" y1="253.4" x2="247.5" y2="253.4"/>
	<line class="st12" x1="235.5" y1="260" x2="247.5" y2="260"/>
</g>
</svg>
