<svg id="Layer_1" data-name="Layer 1" xmlns="http://www.w3.org/2000/svg" width="75" height="75" viewBox="0 0 75 75"><defs><style>.cls-1{fill:#fff;}</style></defs><title>three-way</title><polygon points="45.01 6.58 53.16 11.29 45.01 16 45.01 6.58"/><polygon points="45.01 33.04 53.16 37.74 45.01 42.45 45.01 33.04"/><polygon points="45.01 59.49 53.16 64.2 45.01 68.91 45.01 59.49"/><polygon points="29.12 65.21 13.11 65.21 13.11 63.19 27.1 63.19 27.1 12.3 13.11 12.3 13.11 10.28 29.12 10.28 29.12 65.21"/><rect x="13.11" y="36.74" width="25.49" height="2.01"/><polygon points="49.08 64.72 37.59 64.72 37.59 10.28 48.66 10.28 48.66 12.3 39.6 12.3 39.6 62.7 49.08 62.7 49.08 64.72"/><rect x="38.6" y="36.76" width="10.48" height="1.96"/><path d="M66,17.58H53.42V5H66V17.58Zm-10.56-2H64V7H55.44Z"/><path d="M66,43.77H53.42V31.19H66V43.77Zm-10.56-2H64V33.21H55.44Z"/><path d="M66,70H53.42V57.42H66V70ZM55.44,68H64V59.44H55.44Z"/><path class="cls-1" d="M10.36,12.72A3.1,3.1,0,1,1,14.54,14,3.1,3.1,0,0,1,10.36,12.72Z"/><path d="M13.11,15.39a4.1,4.1,0,0,1-3.64-2.2h0A4.11,4.11,0,1,1,17,12.52a4.07,4.07,0,0,1-2,2.41A4.19,4.19,0,0,1,13.11,15.39Zm-1.86-3.13a2.1,2.1,0,0,0,2.82.88A2.09,2.09,0,0,0,15,10.32a2.09,2.09,0,0,0-3.71,1.94Z"/><path class="cls-1" d="M10.36,65.64a3.1,3.1,0,1,1,4.18,1.3A3.11,3.11,0,0,1,10.36,65.64Z"/><path d="M13.11,68.3a4.1,4.1,0,0,1-3.64-2.2h0A4.11,4.11,0,1,1,17,65.43a4.07,4.07,0,0,1-2,2.41A4.19,4.19,0,0,1,13.11,68.3Zm-1.86-3.13a2.09,2.09,0,0,0,2.82.88,2,2,0,0,0,1-1.23A2.05,2.05,0,0,0,15,63.23a2.09,2.09,0,0,0-3.71,1.94Z"/><path class="cls-1" d="M10.36,39.19a3.1,3.1,0,1,1,4.18,1.31A3.09,3.09,0,0,1,10.36,39.19Z"/><path d="M13.11,41.86a4.11,4.11,0,0,1-3.64-2.21h0A4.11,4.11,0,1,1,17,39a4.07,4.07,0,0,1-2,2.41A4.2,4.2,0,0,1,13.11,41.86Zm-1.86-3.14a2.08,2.08,0,0,0,2.83.88A2.09,2.09,0,0,0,15,36.78a2.09,2.09,0,0,0-3.71,1.94Z"/></svg>