<svg id="Layer_1" data-name="Layer 1" xmlns="http://www.w3.org/2000/svg" width="100" height="100" viewBox="0 0 100 100"><title>product</title><path d="M9.27,27.22V25.51a19.74,19.74,0,0,1,1.93-1.24q13.56-6.78,27.13-13.52l3.76-1.9c-.71-3.08.16-5.54,2.7-7.24a8.48,8.48,0,0,1,9.45-.33A6.37,6.37,0,0,1,57.5,8.73l1.33.67Q73.92,16.92,89,24.47c.69.34,1.16,1.11,1.74,1.68v.22a5.26,5.26,0,0,0-.23.8Q86.66,49,82.84,70.88a2.48,2.48,0,0,1-1.32,1.92c-1.28.69-2.52,1.45-3.78,2.18L70.51,79.2a11.69,11.69,0,0,1,.89.76c1.84,1.91,3.67,3.84,5.51,5.75a.79.79,0,0,1,0,1.27,59.67,59.67,0,0,1-5.2,5.45c-11.5,9.35-28.74,10.1-41.11,1.91a29.63,29.63,0,0,1-8.3-8.22l6.81-7c-.17-.11-.46-.3-.75-.47-3.28-1.91-6.55-3.85-9.86-5.72A2.81,2.81,0,0,1,17,70.77q-3.19-18.51-6.46-37C10.16,31.57,9.7,29.4,9.27,27.22Zm76.81,2.26c-.57.27-.91.44-1.26.62Q68.25,38.36,51.69,46.65a3.54,3.54,0,0,1-3.51,0Q31.59,38.32,15,30.06l-1.12-.51c.07.53.11.92.17,1.3Q17.4,50.08,20.8,69.31a2,2,0,0,0,.82,1.21c3.44,2.06,6.92,4,10.37,6.09a1.65,1.65,0,0,0,1.65,0c2.81-1.07,5.61-2.19,8.49-3a45.07,45.07,0,0,1,5.77-.93V65.38H40.64l9.13-13.66,9.16,13.71H52v7.28a1.43,1.43,0,0,0,.36.1A36,36,0,0,1,66.48,76.7a1.61,1.61,0,0,0,1.32-.09c3.31-1.87,6.56-3.84,9.88-5.68a2.85,2.85,0,0,0,1.56-2.28c1.7-9.93,3.45-19.86,5.19-29.78Zm-1.51-3.2A6.17,6.17,0,0,0,84,25.9Q70.07,19,56.17,12a1.07,1.07,0,0,0-1.31.18,8.81,8.81,0,0,1-10,.11,1.34,1.34,0,0,0-1.61-.08Q29.74,19,16.21,25.73c-.29.14-.56.31-.91.51.24.14.35.23.48.29q16.71,8.32,33.44,16.63a2,2,0,0,0,1.55-.07C57,40,63.16,36.94,69.35,33.85ZM27.27,86.37c11.07,13.78,34.74,13.4,45.29,0C61.68,72.68,37.94,72.85,27.27,86.37ZM49.68,10.6l.09-.25a3.42,3.42,0,0,0,.64,0,3.83,3.83,0,0,0,3.21-2.46,3,3,0,0,0-.89-3.29,4.44,4.44,0,0,0-5.84-.07A3.06,3.06,0,0,0,47,9.42,13.51,13.51,0,0,0,49.68,10.6Z"/><path d="M49.91,93.34a9.2,9.2,0,0,1-5.53-2.06,6.24,6.24,0,0,1,.31-10.08,8.55,8.55,0,0,1,9.45-.64,6.17,6.17,0,0,1,3.68,6.31c-.25,3-2.12,4.8-4.81,5.8A21.08,21.08,0,0,1,49.91,93.34ZM50,82.9c-2.65-.05-4.62,2-4,4.26A4,4,0,0,0,50,89.84a3.93,3.93,0,0,0,3.87-2.76C54.36,85,52.53,82.94,50,82.9Z"/></svg>