<svg id="Layer_1" data-name="Layer 1" xmlns="http://www.w3.org/2000/svg" width="75" height="75" viewBox="0 0 75 75"><defs><style>.cls-1{fill:#fefefe;}</style></defs><title>timely-vendor</title><path d="M23.28,60l-8.57-4.81,8.57-4.81c0,1.18,0,2.25,0,3.32,0,.31,0,.49.42.48,2.5-.11,5,.2,7.5,0a8.4,8.4,0,0,0,5.59-2.31C39.84,48.85,43,46,46.1,43a2.22,2.22,0,0,0,.41-3,2,2,0,0,0-2.67-.82l-10.7,4.43c-1.9.79-3.82,1.56-5.71,2.38-.47.2-.64.1-.83-.35-.56-1.32-.58-1.31.75-1.87,1-.43,2.07-.88,3.12-1.28.37-.15.4-.28.19-.61a5.41,5.41,0,0,1-.75-2.95c0-2.77,0-5.54,0-8.3,0-.6-.17-.72-.72-.7a28.12,28.12,0,0,1-3.31,0,4.55,4.55,0,0,0-4,1.78c-1.59,1.8-3.24,3.56-4.71,5.46a5.19,5.19,0,0,1-3.73,2.17c-1.6.19-3.16.61-4.75.88-.53.09-.66.32-.66.85,0,4.45,0,8.9,0,13.35,0,.6-.09.84-.77.81C6,55.11,6,55.16,6,53.77c0-4.79,0-9.57,0-14.36,0-.64.2-.84.8-.95,2.45-.45,4.89-1,7.35-1.43a1.33,1.33,0,0,0,.82-.5q2.64-3.06,5.29-6.1A6.68,6.68,0,0,1,26,27.83c1.13.09,2.26,0,3.39,0,.42,0,.54-.12.53-.53,0-1.18,0-2.36,0-3.54a5.37,5.37,0,0,1,5.59-5.58c5,0,9.91,0,14.87,0a.83.83,0,0,0,.94-.6,4.33,4.33,0,0,1,7.87-.05,1,1,0,0,0,1.05.66,23.62,23.62,0,0,1,4.53.13,5.32,5.32,0,0,1,4.29,5.32V37.81a5.42,5.42,0,0,1-5.63,5.64c-4.76,0-9.53,0-14.29,0a1.18,1.18,0,0,0-1.08.5,14.73,14.73,0,0,1-1.53,1.53c-2.79,2.65-5.62,5.25-8.38,7.94A10.33,10.33,0,0,1,31.6,56.2c-2.55.24-5.1-.12-7.65,0-.58,0-.7.18-.68.72C23.31,57.86,23.28,58.85,23.28,60Z"/><path class="cls-1" d="M49.53,27.91c5.54,0,11.07,0,16.6,0,.6,0,.82.08.81.76,0,3.05,0,6.11,0,9.17a3.28,3.28,0,0,1-3.49,3.53c-4.6,0-9.19,0-13.79,0-.47,0-.59-.14-.64-.6a4.24,4.24,0,0,0-6-3.56c-3.15,1.29-6.3,2.59-9.43,3.93-.58.24-.88.11-1.14-.4A3.52,3.52,0,0,1,32,39.1c0-3.54,0-7.08,0-10.61,0-.59.27-.59.7-.59Z"/><path class="cls-1" d="M49.49,25.86H32.74c-.52,0-.78-.08-.71-.68s0-1.15,0-1.73a3.28,3.28,0,0,1,3.26-3.2c5.12,0,10.25,0,15.37,0,.34,0,.43.15.55.42a4.33,4.33,0,0,0,8.06,0,.6.6,0,0,1,.68-.44c1.17,0,2.35,0,3.53,0a3.32,3.32,0,0,1,3.42,3.41c0,.55,0,1.11,0,1.66s-.1.56-.55.55c-2.72,0-5.44,0-8.16,0Z"/><path class="cls-1" d="M55.33,17.06A2.16,2.16,0,1,1,53,19.16,2.23,2.23,0,0,1,55.33,17.06Z"/></svg>