<svg id="Layer_1" data-name="Layer 1" xmlns="http://www.w3.org/2000/svg" viewBox="0 0 1239 404"><defs><style>.cls-4,.cls-6{fill:none;stroke-miterlimit:10;stroke-width:3px}.cls-3{fill:#ece1ce}.cls-4{stroke:#eac8a5}.cls-5{fill:#2f1113}.cls-6{stroke:#2f1113}</style></defs><path fill="#eac8a5" d="M415.51 0v404h407.97V.09L415.51 0z"/><path stroke="#df9926" fill="none" stroke-miterlimit="10" stroke-width="3" d="M434.61 170.99l369.77 1.14"/><path class="cls-3" d="M830.64.11v403.8h407.97V0L830.64.11z"/><path class="cls-4" d="M849.74 170.99l369.77-.06"/><path class="cls-3" d="M.38 0v404h407.97V.09L.38 0z"/><path class="cls-4" d="M19.48 170.99l369.77-.06"/><path class="cls-5" d="M117.56 80.31h4.16v19.33h9.38v3.48h-13.54zM136.65 96.05c.1 3 2.44 4.27 5.08 4.27a12.39 12.39 0 0 0 4.56-.75l.61 2.88a15.61 15.61 0 0 1-5.75 1c-5.35 0-8.49-3.28-8.49-8.32 0-4.57 2.77-8.87 8.05-8.87s7.11 4.4 7.11 8a9.88 9.88 0 0 1-.14 1.76zm7.24-2.91c0-1.52-.64-4-3.42-4-2.57 0-3.65 2.34-3.82 4zM166.23 86.64c-.06 1.12-.13 2.47-.13 4.74v9.34c0 3.45-.71 5.92-2.44 7.48a9.49 9.49 0 0 1-6.36 2 11.71 11.71 0 0 1-5.76-1.32l.92-3.15a9.94 9.94 0 0 0 4.8 1.25c2.71 0 4.74-1.42 4.74-5v-1.42h-.07a5.56 5.56 0 0 1-4.8 2.43c-4.1 0-7-3.38-7-8 0-5.42 3.52-8.7 7.48-8.7a5.2 5.2 0 0 1 4.78 2.57h.06l.17-2.2zm-4.3 6.6a4 4 0 0 0-.13-1.11 3.46 3.46 0 0 0-3.38-2.68c-2.34 0-4.07 2-4.07 5.38 0 2.81 1.43 5.08 4 5.08a3.57 3.57 0 0 0 3.39-2.51 7.21 7.21 0 0 0 .16-1.48zM179.84 103.12l-.27-1.82h-.1a6.13 6.13 0 0 1-4.87 2.2 4.9 4.9 0 0 1-5.18-4.91c0-4.16 3.69-6.26 9.78-6.23v-.27c0-1.08-.44-2.88-3.35-2.88a8.69 8.69 0 0 0-4.43 1.22l-.82-2.71a11.93 11.93 0 0 1 6-1.45c5.28 0 6.8 3.35 6.8 6.94v6a26.23 26.23 0 0 0 .24 4zm-.54-8.05c-2.94-.07-5.75.57-5.75 3.08a2.19 2.19 0 0 0 2.37 2.37 3.39 3.39 0 0 0 3.25-2.27 3 3 0 0 0 .13-.91zM187.77 79.09H192v24h-4.19zM554.46 98.59A11.48 11.48 0 0 0 560 100c2.68 0 4.17-1.25 4.17-3.11s-1.15-2.74-4.07-3.79c-3.75-1.35-6.15-3.35-6.15-6.63 0-3.73 3.11-6.57 8.05-6.57a12 12 0 0 1 5.48 1.15l-1 3.35a9.69 9.69 0 0 0-4.54-1.08c-2.64 0-3.79 1.42-3.79 2.74 0 1.76 1.32 2.57 4.37 3.76 4 1.49 5.89 3.48 5.89 6.77 0 3.65-2.78 6.83-8.67 6.83a13.49 13.49 0 0 1-6.16-1.42zM576.59 81.94v4.7h4v3.12h-4V97c0 2 .55 3 2.14 3a6.19 6.19 0 0 0 1.62-.2l.07 3.18a9.36 9.36 0 0 1-3 .4 4.8 4.8 0 0 1-3.59-1.35c-.88-1-1.29-2.44-1.29-4.6v-7.67h-2.37v-3.12h2.37v-3.72zM593 103.12l-.27-1.82h-.11a6.13 6.13 0 0 1-4.87 2.2 4.9 4.9 0 0 1-5.18-4.91c0-4.16 3.69-6.26 9.78-6.23v-.27c0-1.08-.44-2.88-3.35-2.88a8.75 8.75 0 0 0-4.43 1.22l-.81-2.71a11.92 11.92 0 0 1 6-1.45c5.28 0 6.81 3.35 6.81 6.94v6a26.38 26.38 0 0 0 .23 4zm-.54-8.05c-3-.07-5.76.57-5.76 3.08a2.19 2.19 0 0 0 2.37 2.37 3.38 3.38 0 0 0 3.25-2.27 3 3 0 0 0 .14-.91zM605.06 93.88h.07c.41-.64.88-1.35 1.32-1.92l4-5.32h5l-6.09 6.74 7 9.74h-5.11l-4.74-7.27-1.42 1.66v5.61h-4.19v-24h4.16zM620.84 96.05c.1 3 2.43 4.27 5.07 4.27a12.45 12.45 0 0 0 4.57-.75l.61 2.88a15.61 15.61 0 0 1-5.75 1c-5.35 0-8.5-3.28-8.5-8.32 0-4.57 2.78-8.87 8.06-8.87s7.11 4.4 7.11 8a9.88 9.88 0 0 1-.14 1.76zm7.24-2.91c0-1.52-.64-4-3.42-4-2.57 0-3.65 2.34-3.82 4zM635.36 79.09h4.2v9.82h.07a5.56 5.56 0 0 1 2.06-1.9 5.66 5.66 0 0 1 2.84-.74c2.81 0 5.76 1.86 5.76 7.14v9.71h-4.17v-9.24c0-2.4-.88-4.19-3.18-4.19a3.39 3.39 0 0 0-3.21 2.31 3.43 3.43 0 0 0-.17 1.26v9.84h-4.2zM670.39 94.73c0 6.06-4.26 8.77-8.46 8.77-4.67 0-8.26-3.22-8.26-8.5s3.56-8.73 8.53-8.73 8.19 3.45 8.19 8.46zM658 94.9c0 3.18 1.56 5.58 4.1 5.58 2.37 0 4-2.33 4-5.65 0-2.57-1.15-5.51-4-5.51s-4.1 2.84-4.1 5.58zM673.81 79.09H678v24h-4.2zM697.71 79.09v19.4c0 1.69.07 3.52.14 4.63h-3.73l-.17-2.6h-.06a6 6 0 0 1-5.39 3c-3.92 0-7-3.35-7-8.43 0-5.52 3.42-8.8 7.38-8.8a5.25 5.25 0 0 1 4.64 2.17h.07v-9.37zm-4.16 14.42a6.57 6.57 0 0 0-.1-1.08 3.65 3.65 0 0 0-3.59-2.94c-2.68 0-4.16 2.36-4.16 5.44s1.48 5.22 4.12 5.22a3.66 3.66 0 0 0 3.59-3 4.7 4.7 0 0 0 .14-1.22zM705.13 96.05c.1 3 2.43 4.27 5.07 4.27a12.45 12.45 0 0 0 4.57-.75l.61 2.88a15.61 15.61 0 0 1-5.75 1c-5.35 0-8.5-3.28-8.5-8.32 0-4.57 2.78-8.87 8.06-8.87s7.1 4.4 7.1 8a10.09 10.09 0 0 1-.13 1.76zm7.24-2.91c0-1.52-.64-4-3.42-4-2.57 0-3.66 2.34-3.82 4zM719.65 92c0-2.24 0-3.83-.14-5.32h3.62l.14 3.15h.14a4.91 4.91 0 0 1 4.5-3.52 4.28 4.28 0 0 1 1 .1v3.89a5.62 5.62 0 0 0-1.22-.14 3.67 3.67 0 0 0-3.69 3.15 6.88 6.88 0 0 0-.14 1.29v8.52h-4.16zM731.5 99.3a9.2 9.2 0 0 0 4.23 1.18c1.82 0 2.64-.74 2.64-1.82s-.68-1.7-2.71-2.41c-3.22-1.11-4.57-2.87-4.54-4.8 0-2.91 2.41-5.18 6.23-5.18a9.67 9.67 0 0 1 4.37 1l-.82 3a7.34 7.34 0 0 0-3.48-1c-1.49 0-2.3.71-2.3 1.72s.78 1.56 2.87 2.31c3 1.08 4.37 2.6 4.4 5 0 3-2.33 5.14-6.7 5.14a10.63 10.63 0 0 1-5-1.15zM947.56 80.62a41.31 41.31 0 0 1 6.63-.48c4.27 0 7.21.88 9.31 2.64s3.55 4.51 3.55 8.4c0 4.06-1.39 7.1-3.55 9.07s-5.89 3.11-10.32 3.11a45.42 45.42 0 0 1-5.62-.3zm4.16 19.32a15.8 15.8 0 0 0 2.3.1c5.42 0 8.63-2.94 8.63-8.73 0-5-2.87-7.92-8.09-7.92a13 13 0 0 0-2.84.24zM979.78 103.12l-.27-1.82h-.1a6.14 6.14 0 0 1-4.87 2.2 4.9 4.9 0 0 1-5.18-4.91c0-4.16 3.69-6.26 9.78-6.23v-.27c0-1.08-.44-2.88-3.35-2.88a8.69 8.69 0 0 0-4.43 1.22l-.82-2.71a11.93 11.93 0 0 1 6-1.45c5.28 0 6.8 3.35 6.8 6.94v6a26.23 26.23 0 0 0 .24 4zm-.54-8.05c-2.94-.07-5.75.57-5.75 3.08a2.19 2.19 0 0 0 2.37 2.37 3.4 3.4 0 0 0 3.25-2.27 3 3 0 0 0 .13-.91zM992.27 81.94v4.7h4v3.12h-4V97c0 2 .55 3 2.14 3a6.19 6.19 0 0 0 1.62-.2l.07 3.18a9.36 9.36 0 0 1-3 .4 4.8 4.8 0 0 1-3.59-1.35c-.88-1-1.29-2.44-1.29-4.6v-7.67h-2.37v-3.12h2.37v-3.72zM1008.66 103.12l-.27-1.82h-.1a6.16 6.16 0 0 1-4.88 2.2 4.9 4.9 0 0 1-5.18-4.91c0-4.16 3.69-6.26 9.78-6.23v-.27c0-1.08-.44-2.88-3.35-2.88a8.75 8.75 0 0 0-4.43 1.22l-.81-2.71a11.93 11.93 0 0 1 6-1.45c5.27 0 6.8 3.35 6.8 6.94v6a27.78 27.78 0 0 0 .23 4zm-.54-8.05c-3-.07-5.76.57-5.76 3.08a2.19 2.19 0 0 0 2.37 2.37 3.38 3.38 0 0 0 3.25-2.27 3 3 0 0 0 .14-.91zM89 223.27a10.88 10.88 0 0 1-4.52.81c-4.82 0-8.45-3-8.45-8.66 0-5.35 3.63-9 8.94-9a9.08 9.08 0 0 1 4.06.76l-.53 1.8a8 8 0 0 0-3.46-.71c-4 0-6.67 2.56-6.67 7.06 0 4.19 2.41 6.88 6.57 6.88a8.88 8.88 0 0 0 3.61-.71zM101.71 220.48c0 1.27 0 2.38.1 3.35h-2l-.12-2a4.64 4.64 0 0 1-4.07 2.29c-1.93 0-4.24-1.07-4.24-5.39v-7.18h2.24v6.8c0 2.34.71 3.91 2.74 3.91a3.21 3.21 0 0 0 2.94-2 3.17 3.17 0 0 0 .21-1.14v-7.54h2.23zM105.11 221.54a5.88 5.88 0 0 0 3 .89c1.62 0 2.39-.81 2.39-1.83s-.64-1.65-2.29-2.26c-2.21-.78-3.25-2-3.25-3.47 0-2 1.6-3.61 4.24-3.61a6.19 6.19 0 0 1 3 .76l-.56 1.63a4.72 4.72 0 0 0-2.51-.71c-1.32 0-2.06.76-2.06 1.67s.74 1.47 2.34 2.08c2.13.82 3.22 1.88 3.22 3.71 0 2.16-1.67 3.68-4.59 3.68a7 7 0 0 1-3.46-.84zM118.16 208v3.53h3.2v1.7h-3.2v6.63c0 1.52.43 2.38 1.68 2.38a4.81 4.81 0 0 0 1.29-.15l.11 1.68a5.5 5.5 0 0 1-2 .3 3.1 3.1 0 0 1-2.41-.94 4.57 4.57 0 0 1-.86-3.2v-6.7h-1.9v-1.7H116v-2.95zM134.84 217.58c0 4.55-3.14 6.53-6.12 6.53-3.32 0-5.89-2.44-5.89-6.32 0-4.12 2.7-6.53 6.1-6.53s5.91 2.56 5.91 6.32zm-9.75.13c0 2.69 1.55 4.72 3.74 4.72s3.73-2 3.73-4.77c0-2.08-1-4.72-3.68-4.72s-3.79 2.43-3.79 4.77zM137.66 214.87c0-1.27 0-2.32-.1-3.33h1.95l.11 2h.07a4.24 4.24 0 0 1 3.86-2.26 3.63 3.63 0 0 1 3.48 2.46h.05a5.08 5.08 0 0 1 1.37-1.6 4.2 4.2 0 0 1 2.72-.86c1.62 0 4 1.07 4 5.33v7.24H153v-7c0-2.36-.86-3.78-2.66-3.78a2.89 2.89 0 0 0-2.64 2 3.41 3.41 0 0 0-.18 1.12v7.59h-2.19v-7.37c0-2-.86-3.37-2.56-3.37a3.06 3.06 0 0 0-2.77 2.23 3.24 3.24 0 0 0-.18 1.09v7.42h-2.18zM158.53 221.54a5.88 5.88 0 0 0 2.95.89c1.62 0 2.38-.81 2.38-1.83s-.63-1.65-2.28-2.26c-2.21-.78-3.25-2-3.25-3.47 0-2 1.6-3.61 4.24-3.61a6.22 6.22 0 0 1 3 .76l-.56 1.63a4.72 4.72 0 0 0-2.51-.71c-1.32 0-2.06.76-2.06 1.67s.74 1.47 2.34 2.08c2.13.82 3.22 1.88 3.22 3.71 0 2.16-1.68 3.68-4.6 3.68a7 7 0 0 1-3.45-.84zM183 223.37a8.14 8.14 0 0 1-3.53.71c-3.71 0-6.12-2.51-6.12-6.27a6.24 6.24 0 0 1 6.6-6.52 7.57 7.57 0 0 1 3.1.63l-.51 1.73a5.1 5.1 0 0 0-2.59-.59c-2.81 0-4.34 2.08-4.34 4.65 0 2.84 1.83 4.59 4.27 4.59a6.51 6.51 0 0 0 2.74-.6zM185.64 205.8h2.24v18h-2.24zM192.88 218.09c.05 3 2 4.27 4.21 4.27a8 8 0 0 0 3.41-.64l.38 1.6a9.89 9.89 0 0 1-4.09.76c-3.78 0-6-2.49-6-6.19s2.18-6.63 5.76-6.63c4 0 5.08 3.53 5.08 5.79a7.43 7.43 0 0 1-.08 1zm6.55-1.6c0-1.42-.58-3.63-3.1-3.63-2.26 0-3.25 2.08-3.42 3.63zM211.16 223.83l-.18-1.55h-.07a4.61 4.61 0 0 1-3.76 1.83 3.5 3.5 0 0 1-3.76-3.53c0-3 2.64-4.6 7.39-4.57v-.26a2.53 2.53 0 0 0-2.79-2.84 6.17 6.17 0 0 0-3.2.91l-.51-1.47a7.62 7.62 0 0 1 4-1.09c3.75 0 4.67 2.56 4.67 5v4.59a17.62 17.62 0 0 0 .2 3zm-.33-6.27c-2.44-.05-5.2.38-5.2 2.76a2 2 0 0 0 2.1 2.14 3.05 3.05 0 0 0 3-2.06 2.22 2.22 0 0 0 .13-.71zM216.59 215.37c0-1.44 0-2.69-.1-3.83h2l.07 2.41h.1a3.69 3.69 0 0 1 3.41-2.69 2.41 2.41 0 0 1 .63.08v2.1a3.45 3.45 0 0 0-.76-.07 3.14 3.14 0 0 0-3 2.87 6.33 6.33 0 0 0-.1 1v6.55h-2.21zM231.57 223.83l-.17-1.55h-.08a4.61 4.61 0 0 1-3.76 1.83 3.5 3.5 0 0 1-3.76-3.53c0-3 2.64-4.6 7.39-4.57v-.26a2.53 2.53 0 0 0-2.79-2.84 6.2 6.2 0 0 0-3.2.91l-.51-1.47a7.65 7.65 0 0 1 4-1.09c3.76 0 4.67 2.56 4.67 5v4.59a17.62 17.62 0 0 0 .2 3zm-.33-6.27c-2.43-.05-5.2.38-5.2 2.76a2 2 0 0 0 2.11 2.14 3.06 3.06 0 0 0 3-2.06 2.52 2.52 0 0 0 .12-.71zM237 214.87c0-1.27 0-2.32-.11-3.33h2l.13 2h.05a4.52 4.52 0 0 1 4.07-2.31c1.7 0 4.34 1 4.34 5.23v7.34h-2.24v-7.09c0-2-.73-3.63-2.84-3.63a3.18 3.18 0 0 0-3 2.29 3.26 3.26 0 0 0-.15 1v7.39H237zM259.86 223.37a8.18 8.18 0 0 1-3.53.71c-3.71 0-6.12-2.51-6.12-6.27a6.24 6.24 0 0 1 6.6-6.52 7.57 7.57 0 0 1 3.1.63l-.51 1.73a5.1 5.1 0 0 0-2.59-.59c-2.82 0-4.34 2.08-4.34 4.65 0 2.84 1.83 4.59 4.26 4.59a6.57 6.57 0 0 0 2.75-.6zM263.56 218.09c.05 3 2 4.27 4.22 4.27a8 8 0 0 0 3.4-.64l.38 1.6a9.89 9.89 0 0 1-4.09.76c-3.78 0-6-2.49-6-6.19s2.18-6.63 5.76-6.63c4 0 5.08 3.53 5.08 5.79a10 10 0 0 1-.07 1zm6.55-1.6c0-1.42-.58-3.63-3.09-3.63-2.26 0-3.25 2.08-3.43 3.63zM80.33 264h-5.2v-1.9H87.8v1.9h-5.23v15.24h-2.24zM88.48 270.76c0-1.45 0-2.69-.1-3.83h2l.07 2.41h.11a3.67 3.67 0 0 1 3.4-2.69 2.43 2.43 0 0 1 .63.07v2.11a3.39 3.39 0 0 0-.76-.07 3.14 3.14 0 0 0-3 2.87 6.33 6.33 0 0 0-.1 1v6.55h-2.25zM103.46 279.22l-.17-1.55h-.08a4.61 4.61 0 0 1-3.76 1.83 3.51 3.51 0 0 1-3.76-3.5c0-3 2.64-4.6 7.39-4.57v-.26a2.53 2.53 0 0 0-2.79-2.84 6.11 6.11 0 0 0-3.2.91l-.51-1.47a7.65 7.65 0 0 1 4-1.09c3.76 0 4.67 2.56 4.67 5v4.59a16.55 16.55 0 0 0 .21 3zm-.33-6.27c-2.43-.06-5.2.38-5.2 2.76a2 2 0 0 0 2.11 2.14 3.06 3.06 0 0 0 3-2.06 2.52 2.52 0 0 0 .12-.71zM119.51 261.19V276c0 1.09 0 2.34.1 3.18h-2l-.11-2.14a4.53 4.53 0 0 1-4.19 2.42c-3 0-5.25-2.52-5.25-6.25 0-4.09 2.51-6.6 5.51-6.6a4.09 4.09 0 0 1 3.7 1.88h.06v-7.34zm-2.23 10.74a3.77 3.77 0 0 0-.11-.94 3.28 3.28 0 0 0-3.17-2.59c-2.31 0-3.68 2-3.68 4.75 0 2.49 1.22 4.54 3.63 4.54a3.35 3.35 0 0 0 3.27-2.66 3.74 3.74 0 0 0 .11-1zM124.46 273.48c.05 3 2 4.26 4.21 4.26a8.22 8.22 0 0 0 3.41-.63l.38 1.6a10.06 10.06 0 0 1-4.09.76c-3.78 0-6-2.49-6-6.19s2.18-6.63 5.76-6.63c4 0 5.08 3.53 5.08 5.79a7.57 7.57 0 0 1-.08 1zm6.55-1.6c0-1.42-.58-3.63-3.1-3.63-2.26 0-3.25 2.08-3.42 3.63zM150.08 278.76a8.33 8.33 0 0 1-3.53.71c-3.71 0-6.12-2.51-6.12-6.27a6.25 6.25 0 0 1 6.6-6.53 7.39 7.39 0 0 1 3.1.64l-.51 1.73a5.1 5.1 0 0 0-2.59-.59c-2.82 0-4.34 2.08-4.34 4.65 0 2.84 1.83 4.59 4.26 4.59a6.39 6.39 0 0 0 2.75-.61zM163.66 273c0 4.55-3.15 6.53-6.12 6.53-3.32 0-5.89-2.44-5.89-6.33 0-4.11 2.69-6.52 6.1-6.52s5.91 2.53 5.91 6.32zm-9.75.13c0 2.69 1.55 4.72 3.73 4.72s3.74-2 3.74-4.77c0-2.09-1-4.73-3.69-4.73s-3.78 2.41-3.78 4.75zM166.48 270.25c0-1.27 0-2.31-.1-3.32h2l.1 2h.08a4.24 4.24 0 0 1 3.86-2.26 3.64 3.64 0 0 1 3.48 2.46h.05a5.08 5.08 0 0 1 1.37-1.6 4.2 4.2 0 0 1 2.72-.86c1.62 0 4 1.06 4 5.33v7.24h-2.18v-7c0-2.36-.86-3.78-2.67-3.78a2.89 2.89 0 0 0-2.64 2 3.72 3.72 0 0 0-.17 1.12v7.59h-2.19v-7.37c0-2-.86-3.37-2.56-3.37a3 3 0 0 0-2.77 2.23 3 3 0 0 0-.18 1.09v7.42h-2.18zM187.65 270.94c0-1.57-.05-2.84-.1-4h2l.1 2.11h.05a4.83 4.83 0 0 1 4.37-2.39c3 0 5.2 2.51 5.2 6.24 0 4.42-2.69 6.61-5.58 6.61a4.32 4.32 0 0 1-3.79-1.93v6.67h-2.21zm2.21 3.27a5.18 5.18 0 0 0 .1.92 3.44 3.44 0 0 0 3.35 2.61c2.37 0 3.74-1.93 3.74-4.74 0-2.47-1.3-4.57-3.66-4.57a3.58 3.58 0 0 0-3.38 2.76 3.93 3.93 0 0 0-.15.92zM202.1 261.19h2.23v18h-2.23zM210.58 263.47a1.39 1.39 0 0 1-2.77 0 1.36 1.36 0 0 1 1.4-1.39 1.33 1.33 0 0 1 1.37 1.39zm-2.49 15.75v-12.29h2.23v12.29zM220.83 279.22l-.17-1.55h-.08a4.61 4.61 0 0 1-3.76 1.83 3.51 3.51 0 0 1-3.76-3.53c0-3 2.65-4.6 7.39-4.57v-.26a2.53 2.53 0 0 0-2.79-2.84 6.11 6.11 0 0 0-3.2.91l-.51-1.47a7.65 7.65 0 0 1 4-1.09c3.76 0 4.67 2.56 4.67 5v4.59a16.55 16.55 0 0 0 .21 3zm-.33-6.22c-2.43-.06-5.2.38-5.2 2.76a2 2 0 0 0 2.11 2.14 3.06 3.06 0 0 0 3-2.06 2.52 2.52 0 0 0 .12-.71zM226.27 270.25c0-1.27 0-2.31-.1-3.32h2l.12 2a4.52 4.52 0 0 1 4.07-2.31c1.7 0 4.34 1 4.34 5.23v7.34h-2.24v-7.09c0-2-.73-3.63-2.84-3.63a3.18 3.18 0 0 0-3 2.29 3.26 3.26 0 0 0-.15 1v7.39h-2.23zM249.12 278.76a8.33 8.33 0 0 1-3.53.71c-3.71 0-6.12-2.51-6.12-6.27a6.25 6.25 0 0 1 6.6-6.53 7.39 7.39 0 0 1 3.1.64l-.51 1.73a5.1 5.1 0 0 0-2.59-.59c-2.82 0-4.34 2.08-4.34 4.65 0 2.84 1.83 4.59 4.26 4.59a6.39 6.39 0 0 0 2.75-.61zM252.82 273.48a3.93 3.93 0 0 0 4.22 4.26 8.17 8.17 0 0 0 3.4-.63l.38 1.6a10.06 10.06 0 0 1-4.09.76c-3.78 0-6-2.49-6-6.19s2.18-6.63 5.76-6.63c4 0 5.08 3.53 5.08 5.79a10.18 10.18 0 0 1-.07 1zm6.55-1.6c0-1.42-.58-3.63-3.09-3.63-2.26 0-3.25 2.08-3.43 3.63zM80.33 319.37h-5.2v-1.88H87.8v1.88h-5.23v15.24h-2.24zM88.48 326.15c0-1.45 0-2.69-.1-3.83h2l.07 2.41h.11a3.67 3.67 0 0 1 3.4-2.69 2.43 2.43 0 0 1 .63.07v2.11a3.34 3.34 0 0 0-.76-.08 3.15 3.15 0 0 0-3 2.87 6.44 6.44 0 0 0-.1 1v6.56h-2.25zM103.46 334.61l-.17-1.55h-.08a4.6 4.6 0 0 1-3.76 1.82 3.5 3.5 0 0 1-3.76-3.52c0-3 2.64-4.6 7.39-4.57v-.26a2.53 2.53 0 0 0-2.79-2.84 6.11 6.11 0 0 0-3.2.91l-.51-1.47a7.65 7.65 0 0 1 4-1.09c3.76 0 4.67 2.56 4.67 5v4.6a16.55 16.55 0 0 0 .21 2.95zm-.33-6.28c-2.43-.05-5.2.38-5.2 2.77a2 2 0 0 0 2.11 2.13 3.06 3.06 0 0 0 3-2.05 2.52 2.52 0 0 0 .12-.71zM108.9 325.64c0-1.27 0-2.31-.11-3.32h2l.12 2A4.52 4.52 0 0 1 115 322c1.7 0 4.34 1 4.34 5.23v7.34h-2.24v-7.09c0-2-.73-3.63-2.84-3.63a3.18 3.18 0 0 0-3 2.29 3.26 3.26 0 0 0-.15 1v7.39h-2.21zM122.68 332.32a5.88 5.88 0 0 0 2.95.89c1.62 0 2.38-.81 2.38-1.83s-.63-1.65-2.28-2.26c-2.21-.79-3.25-2-3.25-3.48 0-2 1.6-3.6 4.24-3.6a6.08 6.08 0 0 1 3 .76l-.56 1.62a4.81 4.81 0 0 0-2.51-.71c-1.32 0-2.06.76-2.06 1.68s.74 1.47 2.34 2.08c2.13.81 3.22 1.88 3.22 3.71 0 2.16-1.67 3.68-4.59 3.68a7 7 0 0 1-3.46-.84zM139.85 334.61l-.18-1.55h-.08a4.57 4.57 0 0 1-3.76 1.82 3.5 3.5 0 0 1-3.75-3.52c0-3 2.64-4.6 7.38-4.57v-.26a2.53 2.53 0 0 0-2.79-2.84 6.13 6.13 0 0 0-3.2.91l-.51-1.47a7.65 7.65 0 0 1 4-1.09c3.76 0 4.67 2.56 4.67 5v4.6a16.55 16.55 0 0 0 .21 2.95zm-.33-6.28c-2.44-.05-5.21.38-5.21 2.77a2 2 0 0 0 2.11 2.13 3.06 3.06 0 0 0 3-2.05 2.53 2.53 0 0 0 .13-.71zM154 334.15a8.33 8.33 0 0 1-3.53.71c-3.71 0-6.12-2.51-6.12-6.27a6.24 6.24 0 0 1 6.6-6.53 7.39 7.39 0 0 1 3.1.64l-.51 1.72a5.23 5.23 0 0 0-2.59-.58c-2.82 0-4.34 2.08-4.34 4.65 0 2.84 1.83 4.59 4.27 4.59a6.38 6.38 0 0 0 2.74-.61zM159.67 318.79v3.53h3.2V324h-3.2v6.62c0 1.53.44 2.39 1.68 2.39a4.76 4.76 0 0 0 1.29-.15l.11 1.67a5.45 5.45 0 0 1-2 .31 3.11 3.11 0 0 1-2.42-.94 4.57 4.57 0 0 1-.86-3.2V324h-1.9v-1.7h1.9v-2.95zM167.87 318.86a1.38 1.38 0 0 1-2.76 0 1.36 1.36 0 0 1 1.39-1.39 1.32 1.32 0 0 1 1.37 1.39zm-2.48 15.75v-12.29h2.23v12.29zM182.45 328.36c0 4.54-3.15 6.52-6.12 6.52-3.33 0-5.89-2.43-5.89-6.32 0-4.11 2.69-6.52 6.09-6.52s5.92 2.56 5.92 6.32zm-9.75.13c0 2.69 1.55 4.72 3.73 4.72s3.73-2 3.73-4.77c0-2.09-1-4.73-3.68-4.73s-3.78 2.44-3.78 4.78zM185.26 325.64c0-1.27 0-2.31-.1-3.32h2l.13 2a4.51 4.51 0 0 1 4.06-2.31c1.7 0 4.35 1 4.35 5.23v7.34h-2.24v-7.09c0-2-.74-3.63-2.84-3.63a3.17 3.17 0 0 0-3 2.29 3.26 3.26 0 0 0-.15 1v7.39h-2.24zM204.74 325.64c0-1.27 0-2.31-.1-3.32h2l.1 2h.08a4.23 4.23 0 0 1 3.86-2.26 3.64 3.64 0 0 1 3.48 2.46 5 5 0 0 1 1.37-1.6 4.18 4.18 0 0 1 2.72-.86c1.62 0 4 1.06 4 5.33v7.24h-2.15v-7c0-2.36-.86-3.78-2.67-3.78a2.88 2.88 0 0 0-2.64 2 3.68 3.68 0 0 0-.18 1.11v7.6h-2.18v-7.37c0-1.95-.86-3.37-2.56-3.37a3 3 0 0 0-2.77 2.23 3 3 0 0 0-.18 1.09v7.42h-2.18zM232.72 334.61l-.18-1.55h-.08a4.57 4.57 0 0 1-3.76 1.82 3.5 3.5 0 0 1-3.75-3.52c0-3 2.64-4.6 7.38-4.57v-.26a2.53 2.53 0 0 0-2.79-2.84 6.13 6.13 0 0 0-3.2.91l-.51-1.47a7.65 7.65 0 0 1 4-1.09c3.76 0 4.67 2.56 4.67 5v4.6a16.55 16.55 0 0 0 .21 2.95zm-.33-6.28c-2.44-.05-5.21.38-5.21 2.77a2 2 0 0 0 2.11 2.13 3.06 3.06 0 0 0 3-2.05 2.53 2.53 0 0 0 .13-.71zM240.74 318.79v3.53h3.2V324h-3.2v6.62c0 1.53.43 2.39 1.67 2.39a4.84 4.84 0 0 0 1.3-.15l.1 1.67a5.41 5.41 0 0 1-2 .31 3.09 3.09 0 0 1-2.41-.94 4.52 4.52 0 0 1-.87-3.2V324h-1.9v-1.7h1.9v-2.95zM255.06 334.15a8.33 8.33 0 0 1-3.53.71c-3.71 0-6.12-2.51-6.12-6.27a6.24 6.24 0 0 1 6.6-6.53 7.39 7.39 0 0 1 3.1.64l-.51 1.72a5.23 5.23 0 0 0-2.59-.58c-2.82 0-4.34 2.08-4.34 4.65 0 2.84 1.83 4.59 4.26 4.59a6.39 6.39 0 0 0 2.75-.61zM257.67 316.58h2.24v7.67a4.05 4.05 0 0 1 1.6-1.58 4.58 4.58 0 0 1 2.28-.63c1.65 0 4.29 1 4.29 5.25v7.32h-2.18v-7.06c0-2-.74-3.66-2.85-3.66a3.21 3.21 0 0 0-3 2.24 2.61 2.61 0 0 0-.15 1.06v7.42h-2.24zM274.25 318.86a1.31 1.31 0 0 1-1.42 1.37 1.32 1.32 0 0 1-1.35-1.37 1.36 1.36 0 0 1 1.4-1.39 1.32 1.32 0 0 1 1.37 1.39zm-2.49 15.75v-12.29H274v12.29zM277.7 325.64c0-1.27 0-2.31-.1-3.32h2l.13 2h.05a4.51 4.51 0 0 1 4.06-2.31c1.7 0 4.34 1 4.34 5.23v7.34h-2.23v-7.09c0-2-.74-3.63-2.84-3.63a3.17 3.17 0 0 0-3 2.29 3.26 3.26 0 0 0-.15 1v7.39h-2.26zM302.38 322.32c-.05.89-.1 1.88-.1 3.37v7.14c0 2.82-.56 4.54-1.75 5.61a6.51 6.51 0 0 1-4.47 1.47 8 8 0 0 1-4.09-1l.56-1.7a7 7 0 0 0 3.61 1c2.28 0 4-1.19 4-4.29v-1.42h-.05a4.4 4.4 0 0 1-3.91 2.05c-3.05 0-5.23-2.59-5.23-6 0-4.16 2.71-6.52 5.53-6.52a4.07 4.07 0 0 1 3.83 2.13h.06l.1-1.85zm-2.31 4.85a3 3 0 0 0-.13-1 3.21 3.21 0 0 0-3.12-2.36c-2.13 0-3.65 1.8-3.65 4.65 0 2.41 1.21 4.41 3.63 4.41a3.25 3.25 0 0 0 3.09-2.28 3.78 3.78 0 0 0 .18-1.19z"/><circle class="cls-6" cx="41.78" cy="217" r="4.5"/><circle class="cls-6" cx="41.78" cy="272" r="4.5"/><circle class="cls-6" cx="41.76" cy="326.74" r="4.48"/><path class="cls-5" d="M491.08 206.71h2.21V222h7.32v1.86h-9.53zM509.8 223.83l-.18-1.55h-.08a4.57 4.57 0 0 1-3.75 1.83 3.5 3.5 0 0 1-3.76-3.53c0-3 2.64-4.6 7.39-4.57v-.26a2.54 2.54 0 0 0-2.8-2.84 6.23 6.23 0 0 0-3.2.91l-.5-1.47a7.58 7.58 0 0 1 4-1.09c3.76 0 4.68 2.56 4.68 5v4.59a17.62 17.62 0 0 0 .2 3zm-.33-6.27c-2.44-.05-5.21.38-5.21 2.76a2 2 0 0 0 2.11 2.14 3.06 3.06 0 0 0 3-2.06 2.22 2.22 0 0 0 .13-.71zM515.13 223.83c0-.84.1-2.08.1-3.18V205.8h2.21v7.72a4.58 4.58 0 0 1 4.19-2.26c3.05 0 5.2 2.54 5.18 6.27 0 4.39-2.77 6.58-5.51 6.58a4.37 4.37 0 0 1-4.11-2.31h-.08l-.1 2zm2.31-4.93a4.17 4.17 0 0 0 .1.81 3.45 3.45 0 0 0 3.35 2.62c2.34 0 3.73-1.9 3.73-4.72 0-2.47-1.27-4.57-3.65-4.57a3.55 3.55 0 0 0-3.4 2.74 3.82 3.82 0 0 0-.13.91zM540.8 217.58c0 4.55-3.15 6.53-6.12 6.53-3.33 0-5.89-2.44-5.89-6.32 0-4.12 2.69-6.53 6.09-6.53s5.92 2.56 5.92 6.32zm-9.75.13c0 2.69 1.54 4.72 3.73 4.72s3.73-2 3.73-4.77c0-2.08-1-4.72-3.68-4.72s-3.78 2.43-3.78 4.77zM543.61 215.37c0-1.44 0-2.69-.1-3.83h2l.07 2.41h.1a3.69 3.69 0 0 1 3.41-2.69 2.41 2.41 0 0 1 .63.08v2.1a3.45 3.45 0 0 0-.76-.07 3.14 3.14 0 0 0-3 2.87 6.33 6.33 0 0 0-.1 1v6.55h-2.21zM566.06 223.37a8.18 8.18 0 0 1-3.53.71c-3.71 0-6.12-2.51-6.12-6.27a6.24 6.24 0 0 1 6.6-6.52 7.57 7.57 0 0 1 3.1.63l-.51 1.73a5.1 5.1 0 0 0-2.59-.59c-2.82 0-4.34 2.08-4.34 4.65 0 2.84 1.83 4.59 4.26 4.59a6.57 6.57 0 0 0 2.75-.6zM579.64 217.58c0 4.55-3.15 6.53-6.12 6.53-3.33 0-5.89-2.44-5.89-6.32 0-4.12 2.69-6.53 6.09-6.53s5.92 2.56 5.92 6.32zm-9.75.13c0 2.69 1.55 4.72 3.73 4.72s3.73-2 3.73-4.77c0-2.08-1-4.72-3.68-4.72s-3.78 2.43-3.78 4.77zM582.46 214.87c0-1.27 0-2.32-.1-3.33h2l.12 2a4.52 4.52 0 0 1 4.07-2.31c1.7 0 4.34 1 4.34 5.23v7.34h-2.24v-7.09c0-2-.73-3.63-2.84-3.63a3.18 3.18 0 0 0-3 2.29 3.26 3.26 0 0 0-.15 1v7.39h-2.23zM599.14 208v3.53h3.2v1.7h-3.2v6.63c0 1.52.43 2.38 1.67 2.38a4.84 4.84 0 0 0 1.3-.15l.1 1.68a5.44 5.44 0 0 1-2 .3 3.09 3.09 0 0 1-2.41-.94 4.52 4.52 0 0 1-.87-3.2v-6.7h-1.9v-1.7H597v-2.95zM604.85 215.37c0-1.44 0-2.69-.1-3.83h2l.08 2.41h.1a3.69 3.69 0 0 1 3.4-2.69 2.49 2.49 0 0 1 .64.08v2.1a3.45 3.45 0 0 0-.76-.07 3.13 3.13 0 0 0-3 2.87 6.33 6.33 0 0 0-.1 1v6.55h-2.21zM619.83 223.83l-.18-1.55h-.07a4.61 4.61 0 0 1-3.76 1.83 3.5 3.5 0 0 1-3.76-3.53c0-3 2.64-4.6 7.39-4.57v-.26a2.53 2.53 0 0 0-2.79-2.84 6.17 6.17 0 0 0-3.2.91l-.51-1.47a7.62 7.62 0 0 1 4-1.09c3.75 0 4.67 2.56 4.67 5v4.59a17.62 17.62 0 0 0 .2 3zm-.33-6.27c-2.44-.05-5.21.38-5.21 2.76a2 2 0 0 0 2.11 2.14 3.05 3.05 0 0 0 3-2.06 2.22 2.22 0 0 0 .13-.71zM634 223.37a8.14 8.14 0 0 1-3.53.71c-3.7 0-6.12-2.51-6.12-6.27a6.24 6.24 0 0 1 6.6-6.52 7.57 7.57 0 0 1 3.1.63l-.51 1.73a5.1 5.1 0 0 0-2.59-.59c-2.81 0-4.34 2.08-4.34 4.65 0 2.84 1.83 4.59 4.27 4.59a6.47 6.47 0 0 0 2.74-.6zM639.66 208v3.53h3.2v1.7h-3.2v6.63c0 1.52.43 2.38 1.67 2.38a4.84 4.84 0 0 0 1.3-.15l.1 1.68a5.44 5.44 0 0 1-2 .3 3.09 3.09 0 0 1-2.41-.94 4.52 4.52 0 0 1-.87-3.2v-6.7h-1.9v-1.7h1.9v-2.95zM645.06 221.54a5.88 5.88 0 0 0 3 .89c1.62 0 2.39-.81 2.39-1.83s-.64-1.65-2.29-2.26c-2.21-.78-3.25-2-3.25-3.47 0-2 1.6-3.61 4.24-3.61a6.16 6.16 0 0 1 3 .76l-.56 1.63a4.72 4.72 0 0 0-2.51-.71c-1.32 0-2.06.76-2.06 1.67s.74 1.47 2.34 2.08c2.13.82 3.22 1.88 3.22 3.71 0 2.16-1.67 3.68-4.59 3.68a7 7 0 0 1-3.45-.84zM490.78 276.53a7.93 7.93 0 0 0 4 1.11c2.26 0 3.58-1.19 3.58-2.92s-.91-2.51-3.22-3.4c-2.8-1-4.52-2.44-4.52-4.85 0-2.67 2.21-4.65 5.53-4.65a7.85 7.85 0 0 1 3.79.84l-.61 1.8a6.91 6.91 0 0 0-3.25-.81c-2.34 0-3.23 1.4-3.23 2.57 0 1.6 1 2.38 3.4 3.3 2.9 1.11 4.37 2.51 4.37 5s-1.95 4.93-6 4.93a8.87 8.87 0 0 1-4.37-1.09zM512.44 278.76a8.33 8.33 0 0 1-3.53.71c-3.71 0-6.12-2.51-6.12-6.27a6.25 6.25 0 0 1 6.6-6.53 7.39 7.39 0 0 1 3.1.64L512 269a5.1 5.1 0 0 0-2.59-.59c-2.82 0-4.34 2.08-4.34 4.65 0 2.84 1.83 4.59 4.26 4.59a6.39 6.39 0 0 0 2.75-.61zM516.14 273.48a3.93 3.93 0 0 0 4.22 4.26 8.17 8.17 0 0 0 3.4-.63l.38 1.6a10.06 10.06 0 0 1-4.09.76c-3.78 0-6-2.49-6-6.19s2.18-6.63 5.76-6.63c4 0 5.08 3.53 5.08 5.79a10.18 10.18 0 0 1-.07 1zm6.55-1.6c0-1.42-.58-3.63-3.09-3.63-2.26 0-3.25 2.08-3.43 3.63zM527.62 270.25c0-1.27 0-2.31-.1-3.32h2l.13 2a4.51 4.51 0 0 1 4.06-2.31c1.7 0 4.34 1 4.34 5.23v7.34h-2.23v-7.09c0-2-.74-3.63-2.85-3.63a3.17 3.17 0 0 0-3 2.29 3 3 0 0 0-.16 1v7.39h-2.23zM548.51 279.22l-.17-1.55h-.08a4.59 4.59 0 0 1-3.76 1.83 3.5 3.5 0 0 1-3.75-3.53c0-3 2.64-4.6 7.38-4.57v-.26a2.53 2.53 0 0 0-2.79-2.84 6.11 6.11 0 0 0-3.2.91l-.51-1.47a7.65 7.65 0 0 1 4-1.09c3.76 0 4.67 2.56 4.67 5v4.59a16.55 16.55 0 0 0 .21 3zm-.33-6.27c-2.43-.06-5.2.38-5.2 2.76a2 2 0 0 0 2.11 2.14 3.06 3.06 0 0 0 3-2.06 2.52 2.52 0 0 0 .12-.71zM554 270.76c0-1.45 0-2.69-.1-3.83h1.95l.08 2.41h.1a3.68 3.68 0 0 1 3.4-2.69 2.56 2.56 0 0 1 .64.07v2.11a3.49 3.49 0 0 0-.77-.07 3.13 3.13 0 0 0-3 2.87 6.33 6.33 0 0 0-.1 1v6.55H554zM564.84 263.47a1.39 1.39 0 0 1-2.77 0 1.36 1.36 0 0 1 1.4-1.39 1.32 1.32 0 0 1 1.37 1.39zm-2.49 15.75v-12.29h2.23v12.29zM579.41 273c0 4.55-3.15 6.53-6.12 6.53-3.32 0-5.89-2.44-5.89-6.33 0-4.11 2.69-6.52 6.1-6.52s5.91 2.53 5.91 6.32zm-9.75.13c0 2.69 1.55 4.72 3.73 4.72s3.74-2 3.74-4.77c0-2.09-1-4.73-3.68-4.73s-3.79 2.41-3.79 4.75zM587.61 270.94c0-1.57-.05-2.84-.1-4h2l.1 2.11a4.83 4.83 0 0 1 4.37-2.39c3 0 5.2 2.51 5.2 6.24 0 4.42-2.69 6.61-5.59 6.61a4.31 4.31 0 0 1-3.78-1.93v6.67h-2.21zm2.21 3.27a5.18 5.18 0 0 0 .1.92 3.44 3.44 0 0 0 3.35 2.61c2.36 0 3.74-1.93 3.74-4.74 0-2.47-1.3-4.57-3.66-4.57a3.57 3.57 0 0 0-3.38 2.76 3.93 3.93 0 0 0-.15.92zM602.06 261.19h2.23v18h-2.23zM614.85 279.22l-.18-1.55h-.07a4.61 4.61 0 0 1-3.76 1.83 3.51 3.51 0 0 1-3.76-3.53c0-3 2.64-4.6 7.39-4.57v-.26a2.53 2.53 0 0 0-2.79-2.84 6.11 6.11 0 0 0-3.2.91l-.51-1.47a7.65 7.65 0 0 1 4-1.09c3.76 0 4.67 2.56 4.67 5v4.59a17.62 17.62 0 0 0 .2 3zm-.33-6.27c-2.44-.06-5.2.38-5.2 2.76a2 2 0 0 0 2.1 2.14 3.08 3.08 0 0 0 3-2.06 2.52 2.52 0 0 0 .12-.71zM620.29 270.25c0-1.27 0-2.31-.11-3.32h2l.13 2h.05a4.51 4.51 0 0 1 4.06-2.31c1.71 0 4.35 1 4.35 5.23v7.34h-2.24v-7.09c0-2-.73-3.63-2.84-3.63a3.18 3.18 0 0 0-3 2.29 3.26 3.26 0 0 0-.15 1v7.39h-2.23zM634.38 270.25c0-1.27 0-2.31-.11-3.32h2l.13 2a4.52 4.52 0 0 1 4.07-2.31c1.7 0 4.34 1 4.34 5.23v7.34h-2.21v-7.09c0-2-.73-3.63-2.84-3.63a3.18 3.18 0 0 0-3 2.29 3.26 3.26 0 0 0-.15 1v7.39h-2.23zM651 263.47a1.39 1.39 0 0 1-2.77 0 1.36 1.36 0 0 1 1.39-1.39 1.33 1.33 0 0 1 1.38 1.39zm-2.49 15.75v-12.29h2.23v12.29zM654.41 270.25c0-1.27 0-2.31-.1-3.32h2l.12 2h.05a4.53 4.53 0 0 1 4.07-2.31c1.7 0 4.34 1 4.34 5.23v7.34h-2.24v-7.09c0-2-.73-3.63-2.84-3.63a3.18 3.18 0 0 0-3 2.29 3.26 3.26 0 0 0-.15 1v7.39h-2.23zM679.09 266.93c-.05.89-.11 1.88-.11 3.37v7.14c0 2.82-.55 4.54-1.75 5.61a6.49 6.49 0 0 1-4.47 1.47 7.91 7.91 0 0 1-4.08-1l.55-1.7a7.06 7.06 0 0 0 3.61 1c2.29 0 4-1.19 4-4.29v-1.37a4.4 4.4 0 0 1-3.91 2.06c-3.05 0-5.23-2.59-5.23-6 0-4.16 2.72-6.52 5.53-6.52a4.09 4.09 0 0 1 3.84 2.13l.1-1.85zm-2.31 4.85a3.28 3.28 0 0 0-.13-1 3.23 3.23 0 0 0-3.12-2.36c-2.14 0-3.66 1.8-3.66 4.65 0 2.41 1.22 4.41 3.63 4.41a3.27 3.27 0 0 0 3.1-2.28 4.09 4.09 0 0 0 .18-1.19zM491.08 317.72a32.23 32.23 0 0 1 4.7-.35c3.18 0 5.44.73 6.93 2.13a7.86 7.86 0 0 1 2.42 6.14 9 9 0 0 1-2.47 6.65c-1.6 1.6-4.24 2.47-7.56 2.47a34.9 34.9 0 0 1-4-.21zm2.21 15.13a13.09 13.09 0 0 0 2.24.13c4.72 0 7.29-2.64 7.29-7.26 0-4-2.26-6.6-6.94-6.6a12.38 12.38 0 0 0-2.59.23zM510.41 318.86a1.39 1.39 0 0 1-2.77 0 1.36 1.36 0 0 1 1.39-1.39 1.33 1.33 0 0 1 1.38 1.39zm-2.49 15.75v-12.29h2.23v12.29zM513.55 332.32a5.88 5.88 0 0 0 3 .89c1.62 0 2.38-.81 2.38-1.83s-.63-1.65-2.28-2.26c-2.21-.79-3.25-2-3.25-3.48 0-2 1.6-3.6 4.24-3.6a6.08 6.08 0 0 1 3 .76l-.56 1.62a4.81 4.81 0 0 0-2.51-.71c-1.32 0-2.06.76-2.06 1.68s.74 1.47 2.34 2.08c2.13.81 3.22 1.88 3.22 3.71 0 2.16-1.67 3.68-4.59 3.68A7 7 0 0 1 513 334zM526.6 318.79v3.53h3.2V324h-3.2v6.62c0 1.53.43 2.39 1.68 2.39a4.81 4.81 0 0 0 1.29-.15l.1 1.67a5.37 5.37 0 0 1-2 .31 3.1 3.1 0 0 1-2.41-.94 4.57 4.57 0 0 1-.86-3.2V324h-1.91v-1.7h1.91v-2.95zM532.31 326.15c0-1.45 0-2.69-.1-3.83h2l.07 2.41h.11a3.67 3.67 0 0 1 3.4-2.69 2.43 2.43 0 0 1 .63.07v2.11a3.34 3.34 0 0 0-.76-.08 3.13 3.13 0 0 0-3 2.87 5.44 5.44 0 0 0-.11 1v6.56h-2.21zM543.21 318.86a1.39 1.39 0 0 1-2.77 0 1.36 1.36 0 0 1 1.39-1.39 1.33 1.33 0 0 1 1.38 1.39zm-2.49 15.75v-12.29H543v12.29zM546.56 334.61c.05-.84.1-2.09.1-3.18v-14.85h2.21v7.72a4.58 4.58 0 0 1 4.19-2.26c3 0 5.2 2.54 5.18 6.27 0 4.39-2.77 6.57-5.51 6.57a4.38 4.38 0 0 1-4.12-2.31h-.07l-.1 2zm2.31-4.93a4.17 4.17 0 0 0 .1.81 3.45 3.45 0 0 0 3.35 2.62c2.34 0 3.73-1.91 3.73-4.73 0-2.46-1.27-4.57-3.65-4.57a3.58 3.58 0 0 0-3.41 2.75 4.47 4.47 0 0 0-.12.91zM571.39 331.25c0 1.27 0 2.39.1 3.36h-2l-.13-2a4.62 4.62 0 0 1-4.06 2.28c-1.93 0-4.24-1.06-4.24-5.38v-7.18h2.23v6.8c0 2.34.71 3.91 2.74 3.91a3.13 3.13 0 0 0 3.15-3.17v-7.54h2.24zM577.78 318.79v3.53H581V324h-3.2v6.62c0 1.53.44 2.39 1.68 2.39a4.76 4.76 0 0 0 1.29-.15l.11 1.67a5.45 5.45 0 0 1-2 .31 3.11 3.11 0 0 1-2.42-.94 4.57 4.57 0 0 1-.86-3.2V324h-1.9v-1.7h1.9v-2.95zM584.59 328.87c0 3 2 4.26 4.21 4.26a8.22 8.22 0 0 0 3.41-.63l.38 1.6a10.1 10.1 0 0 1-4.09.76c-3.79 0-6-2.49-6-6.2s2.18-6.62 5.76-6.62c4 0 5.08 3.53 5.08 5.79a7.57 7.57 0 0 1-.08 1zm6.55-1.6c0-1.42-.59-3.63-3.1-3.63-2.26 0-3.25 2.08-3.43 3.63zM606.68 316.58v14.85c0 1.09 0 2.34.1 3.18h-2l-.1-2.14a4.55 4.55 0 0 1-4.19 2.41c-3 0-5.26-2.51-5.26-6.24 0-4.09 2.52-6.6 5.51-6.6a4.12 4.12 0 0 1 3.71 1.88h.05v-7.34zm-2.24 10.74a3.76 3.76 0 0 0-.1-.94 3.29 3.29 0 0 0-3.22-2.59c-2.31 0-3.69 2-3.69 4.75 0 2.49 1.22 4.54 3.64 4.54a3.36 3.36 0 0 0 3.27-2.66 3.75 3.75 0 0 0 .1-1zM615.76 316.58H618v18h-2.24zM623 328.87c0 3 2 4.26 4.21 4.26a8.22 8.22 0 0 0 3.41-.63l.38 1.6a10.06 10.06 0 0 1-4.09.76c-3.78 0-6-2.49-6-6.2s2.18-6.62 5.76-6.62c4 0 5.08 3.53 5.08 5.79a7.57 7.57 0 0 1-.08 1zm6.55-1.6c0-1.42-.58-3.63-3.1-3.63-2.26 0-3.25 2.08-3.42 3.63zM645.09 316.58v14.85c0 1.09 0 2.34.1 3.18h-2l-.1-2.14H643a4.54 4.54 0 0 1-4.19 2.41c-3 0-5.25-2.51-5.25-6.24 0-4.09 2.51-6.6 5.51-6.6a4.09 4.09 0 0 1 3.7 1.88h.05v-7.34zm-2.24 10.74a3.76 3.76 0 0 0-.1-.94 3.29 3.29 0 0 0-3.22-2.59c-2.31 0-3.68 2-3.68 4.75 0 2.49 1.22 4.54 3.63 4.54a3.35 3.35 0 0 0 3.27-2.66 3.75 3.75 0 0 0 .1-1zM659.38 322.32c0 .89-.1 1.88-.1 3.37v7.14c0 2.82-.56 4.54-1.75 5.61a6.49 6.49 0 0 1-4.47 1.47 8 8 0 0 1-4.09-1l.56-1.7a7 7 0 0 0 3.61 1c2.28 0 4-1.19 4-4.29v-1.42h-.05a4.4 4.4 0 0 1-3.91 2.05c-3 0-5.23-2.59-5.23-6 0-4.16 2.71-6.52 5.53-6.52a4.1 4.1 0 0 1 3.84 2.13h.05l.1-1.85zm-2.31 4.85a3.29 3.29 0 0 0-.12-1 3.23 3.23 0 0 0-3.13-2.36c-2.13 0-3.65 1.8-3.65 4.65 0 2.41 1.21 4.41 3.63 4.41a3.25 3.25 0 0 0 3.09-2.28 3.78 3.78 0 0 0 .18-1.19zM664.23 328.87a3.93 3.93 0 0 0 4.22 4.26 8.21 8.21 0 0 0 3.4-.63l.38 1.6a10.06 10.06 0 0 1-4.09.76c-3.78 0-6-2.49-6-6.2s2.18-6.62 5.76-6.62c4 0 5.08 3.53 5.08 5.79a7.57 7.57 0 0 1-.08 1zm6.55-1.6c0-1.42-.58-3.63-3.1-3.63-2.26 0-3.25 2.08-3.42 3.63zM675.71 326.15c0-1.45 0-2.69-.11-3.83h2l.08 2.41h.1a3.68 3.68 0 0 1 3.4-2.69 2.43 2.43 0 0 1 .63.07v2.11a3.28 3.28 0 0 0-.76-.08 3.13 3.13 0 0 0-3 2.87 6.44 6.44 0 0 0-.1 1v6.56h-2.21z"/><circle class="cls-6" cx="457.77" cy="217.26" r="4.48"/><circle class="cls-6" cx="458.14" cy="272" r="4.48"/><circle class="cls-6" cx="458.51" cy="326.74" r="4.48"/><path class="cls-5" d="M905.08 206.94a23 23 0 0 1 4.25-.35c2.36 0 3.88.43 4.95 1.39a4.28 4.28 0 0 1 1.34 3.25 4.5 4.5 0 0 1-3.22 4.37v.08c1.32.45 2.1 1.67 2.51 3.45a27.87 27.87 0 0 0 1.32 4.7H914a22.59 22.59 0 0 1-1.15-4.09c-.5-2.36-1.42-3.25-3.42-3.33h-2.09v7.42h-2.21zm2.21 7.8h2.26c2.37 0 3.86-1.3 3.86-3.25 0-2.21-1.6-3.18-3.93-3.2a9.3 9.3 0 0 0-2.19.2zM921.41 208.09a1.31 1.31 0 0 1-1.42 1.37 1.33 1.33 0 0 1-1.35-1.37 1.37 1.37 0 0 1 1.4-1.4 1.33 1.33 0 0 1 1.37 1.4zm-2.49 15.74v-12.29h2.24v12.29zM924.56 221.54a5.87 5.87 0 0 0 2.94.89c1.63 0 2.39-.81 2.39-1.83s-.64-1.65-2.29-2.26c-2.2-.78-3.25-2-3.25-3.47 0-2 1.6-3.61 4.24-3.61a6.23 6.23 0 0 1 3 .76l-.56 1.63a4.73 4.73 0 0 0-2.52-.71c-1.32 0-2 .76-2 1.67s.73 1.47 2.33 2.08c2.14.82 3.23 1.88 3.23 3.71 0 2.16-1.68 3.68-4.6 3.68a7 7 0 0 1-3.45-.84zM937.13 217.18c.3-.44.73-1 1.09-1.4l3.6-4.24h2.69l-4.74 5.05 5.4 7.24h-2.71l-4.24-5.89-1.14 1.27v4.62h-2.21v-18h2.21zM952.21 215.55c0-1.57-.06-2.84-.11-4h2l.1 2.11a4.84 4.84 0 0 1 4.37-2.39c3 0 5.2 2.51 5.2 6.25 0 4.41-2.69 6.6-5.58 6.6a4.32 4.32 0 0 1-3.79-1.93h-.05v6.68h-2.2zm2.2 3.28a4.28 4.28 0 0 0 .11.91 3.44 3.44 0 0 0 3.35 2.62c2.36 0 3.73-1.93 3.73-4.75 0-2.47-1.3-4.57-3.66-4.57a3.56 3.56 0 0 0-3.37 2.76 3.48 3.48 0 0 0-.16.92zM966.65 215.37c0-1.44 0-2.69-.1-3.83h2l.08 2.41h.1a3.69 3.69 0 0 1 3.4-2.69 2.43 2.43 0 0 1 .64.08v2.1a3.45 3.45 0 0 0-.76-.07 3.13 3.13 0 0 0-3 2.87 6.33 6.33 0 0 0-.1 1v6.55h-2.21zM985.82 217.58c0 4.55-3.15 6.53-6.12 6.53-3.33 0-5.89-2.44-5.89-6.32 0-4.12 2.69-6.53 6.09-6.53s5.92 2.56 5.92 6.32zm-9.75.13c0 2.69 1.55 4.72 3.73 4.72s3.73-2 3.73-4.77c0-2.08-1-4.72-3.68-4.72s-3.78 2.43-3.78 4.77zM988.87 223.83v-10.59h-1.73v-1.7h1.73v-.66c0-3.25 1.9-5.36 5.35-5.36a6.24 6.24 0 0 1 3.13.81l-.64 1.71a4.62 4.62 0 0 0-2.59-.72c-2.36 0-3 1.65-3 3.61v.61h7.14v12.29H996v-10.59h-4.93v10.59zM1001.92 205.8h2.23v18h-2.23zM1010.39 208.09a1.31 1.31 0 0 1-1.42 1.37 1.33 1.33 0 0 1-1.34-1.37 1.36 1.36 0 0 1 1.39-1.4 1.33 1.33 0 0 1 1.37 1.4zm-2.48 15.74v-12.29h2.23v12.29zM1013.85 214.87c0-1.27 0-2.32-.1-3.33h2l.12 2a4.52 4.52 0 0 1 4.07-2.31c1.7 0 4.34 1 4.34 5.23v7.34h-2.24v-7.09c0-2-.73-3.63-2.84-3.63a3.18 3.18 0 0 0-3 2.29 3.26 3.26 0 0 0-.15 1v7.39h-2.23zM1038.53 211.54c-.06.89-.11 1.88-.11 3.38v7.13c0 2.82-.55 4.55-1.75 5.61a6.49 6.49 0 0 1-4.47 1.47 7.91 7.91 0 0 1-4.08-1l.55-1.7a7 7 0 0 0 3.61 1c2.28 0 4-1.19 4-4.29v-1.37a4.4 4.4 0 0 1-3.91 2.06c-3 0-5.23-2.59-5.23-6 0-4.17 2.72-6.53 5.53-6.53a4.11 4.11 0 0 1 3.84 2.13l.1-1.85zm-2.32 4.85a3.29 3.29 0 0 0-.12-1A3.23 3.23 0 0 0 1033 213c-2.13 0-3.65 1.8-3.65 4.65 0 2.41 1.22 4.42 3.63 4.42a3.28 3.28 0 0 0 3.1-2.29 4.08 4.08 0 0 0 .17-1.19zM908.33 264h-5.2v-1.9h12.67v1.9h-5.23v15.24h-2.24zM916.48 270.76c0-1.45 0-2.69-.1-3.83h2l.07 2.41h.11a3.67 3.67 0 0 1 3.4-2.69 2.43 2.43 0 0 1 .63.07v2.11a3.39 3.39 0 0 0-.76-.07 3.14 3.14 0 0 0-3 2.87 6.33 6.33 0 0 0-.1 1v6.55h-2.21zM931.46 279.22l-.17-1.55h-.08a4.61 4.61 0 0 1-3.76 1.83 3.51 3.51 0 0 1-3.76-3.53c0-3 2.64-4.6 7.39-4.57v-.26a2.53 2.53 0 0 0-2.79-2.84 6.11 6.11 0 0 0-3.2.91l-.51-1.47a7.65 7.65 0 0 1 4-1.09c3.76 0 4.67 2.56 4.67 5v4.59a16.55 16.55 0 0 0 .21 3zm-.33-6.27c-2.43-.06-5.2.38-5.2 2.76a2 2 0 0 0 2.11 2.14 3.06 3.06 0 0 0 3-2.06 2.52 2.52 0 0 0 .12-.71zM947.51 261.19V276c0 1.09 0 2.34.1 3.18h-2l-.11-2.14a4.53 4.53 0 0 1-4.19 2.42c-3 0-5.25-2.52-5.25-6.25 0-4.09 2.51-6.6 5.51-6.6a4.09 4.09 0 0 1 3.7 1.88h.06v-7.34zm-2.23 10.74a3.77 3.77 0 0 0-.11-.94 3.28 3.28 0 0 0-3.17-2.59c-2.31 0-3.68 2-3.68 4.75 0 2.49 1.22 4.54 3.63 4.54a3.35 3.35 0 0 0 3.27-2.66 3.74 3.74 0 0 0 .11-1zM952.46 273.48c0 3 2 4.26 4.21 4.26a8.22 8.22 0 0 0 3.41-.63l.38 1.6a10.06 10.06 0 0 1-4.09.76c-3.78 0-6-2.49-6-6.19s2.18-6.63 5.76-6.63c4 0 5.08 3.53 5.08 5.79a7.57 7.57 0 0 1-.08 1zm6.55-1.6c0-1.42-.58-3.63-3.1-3.63-2.26 0-3.25 2.08-3.42 3.63zM971.81 263.47a1.39 1.39 0 0 1-2.77 0 1.36 1.36 0 0 1 1.39-1.39 1.33 1.33 0 0 1 1.38 1.39zm-2.49 15.75v-12.29h2.23v12.29zM975.26 270.25c0-1.27 0-2.31-.1-3.32h2l.12 2a4.53 4.53 0 0 1 4.07-2.31c1.7 0 4.34 1 4.34 5.23v7.34h-2.24v-7.09c0-2-.73-3.63-2.84-3.63a3.19 3.19 0 0 0-3 2.29 3.26 3.26 0 0 0-.15 1v7.39h-2.23zM991.94 263.4v3.53h3.2v1.7h-3.2v6.63c0 1.52.43 2.38 1.68 2.38a4.81 4.81 0 0 0 1.29-.15l.1 1.68a5.67 5.67 0 0 1-2 .3 3.09 3.09 0 0 1-2.41-.94 4.53 4.53 0 0 1-.86-3.2v-6.7h-1.91v-1.7h1.91V264zM998.74 273.48a3.93 3.93 0 0 0 4.22 4.26 8.17 8.17 0 0 0 3.4-.63l.38 1.6a10.06 10.06 0 0 1-4.09.76c-3.78 0-6-2.49-6-6.19s2.18-6.63 5.76-6.63c4 0 5.08 3.53 5.08 5.79a10.18 10.18 0 0 1-.07 1zm6.55-1.6c0-1.42-.58-3.63-3.09-3.63-2.26 0-3.25 2.08-3.43 3.63zM1010.22 261.19h2.23v18h-2.23zM1016.21 261.19h2.23v18h-2.23zM1024.69 263.47a1.39 1.39 0 0 1-2.77 0 1.36 1.36 0 0 1 1.4-1.39 1.32 1.32 0 0 1 1.37 1.39zm-2.49 15.75v-12.29h2.24v12.29zM1038.73 266.93c0 .89-.1 1.88-.1 3.37v7.14c0 2.82-.56 4.54-1.75 5.61a6.51 6.51 0 0 1-4.47 1.47 7.92 7.92 0 0 1-4.09-1l.56-1.7a7 7 0 0 0 3.6 1c2.29 0 4-1.19 4-4.29v-1.37a4.38 4.38 0 0 1-3.91 2.06c-3 0-5.23-2.59-5.23-6 0-4.16 2.72-6.52 5.54-6.52a4.09 4.09 0 0 1 3.83 2.13h.05l.1-1.85zm-2.31 4.85a3.28 3.28 0 0 0-.13-1 3.22 3.22 0 0 0-3.12-2.36c-2.13 0-3.66 1.8-3.66 4.65 0 2.41 1.22 4.41 3.63 4.41a3.27 3.27 0 0 0 3.1-2.28 3.78 3.78 0 0 0 .18-1.19zM1043.58 273.48c.05 3 2 4.26 4.21 4.26a8.14 8.14 0 0 0 3.4-.63l.39 1.6a10.1 10.1 0 0 1-4.09.76c-3.79 0-6-2.49-6-6.19s2.19-6.63 5.77-6.63c4 0 5.08 3.53 5.08 5.79a7.57 7.57 0 0 1-.08 1zm6.55-1.6c0-1.42-.59-3.63-3.1-3.63-2.26 0-3.25 2.08-3.43 3.63zM1055.05 270.25c0-1.27 0-2.31-.1-3.32h2l.13 2a4.51 4.51 0 0 1 4.06-2.31c1.7 0 4.34 1 4.34 5.23v7.34h-2.23v-7.09c0-2-.74-3.63-2.84-3.63a3.17 3.17 0 0 0-3 2.29 3.26 3.26 0 0 0-.15 1v7.39h-2.24zM1077.9 278.76a8.3 8.3 0 0 1-3.53.71c-3.7 0-6.12-2.51-6.12-6.27a6.25 6.25 0 0 1 6.61-6.53 7.34 7.34 0 0 1 3.09.64l-.5 1.73a5.13 5.13 0 0 0-2.59-.59c-2.82 0-4.35 2.08-4.35 4.65 0 2.84 1.83 4.59 4.27 4.59a6.31 6.31 0 0 0 2.74-.61zM1081.61 273.48c.05 3 2 4.26 4.21 4.26a8.22 8.22 0 0 0 3.41-.63l.38 1.6a10.1 10.1 0 0 1-4.09.76c-3.78 0-6-2.49-6-6.19s2.18-6.63 5.76-6.63c4 0 5.08 3.53 5.08 5.79a7.57 7.57 0 0 1-.08 1zm6.55-1.6c0-1.42-.58-3.63-3.1-3.63-2.26 0-3.25 2.08-3.43 3.63zM904.78 331.91a7.83 7.83 0 0 0 4 1.12c2.26 0 3.58-1.19 3.58-2.92s-.91-2.51-3.22-3.4c-2.8-1-4.52-2.44-4.52-4.85 0-2.67 2.21-4.65 5.53-4.65a7.85 7.85 0 0 1 3.79.84l-.61 1.8A6.91 6.91 0 0 0 910 319c-2.34 0-3.23 1.4-3.23 2.57 0 1.6 1 2.38 3.4 3.3 2.9 1.11 4.37 2.51 4.37 5s-2 4.93-6 4.93a8.87 8.87 0 0 1-4.37-1.09zM927.81 331.25c0 1.27 0 2.39.1 3.36h-2l-.13-2a4.62 4.62 0 0 1-4.06 2.28c-1.93 0-4.24-1.06-4.24-5.38v-7.18h2.23v6.8c0 2.34.71 3.91 2.75 3.91a3.13 3.13 0 0 0 3.14-3.17v-7.54h2.24zM931.51 326.33c0-1.58 0-2.85-.1-4h2l.1 2.1h.05a4.85 4.85 0 0 1 4.37-2.38c3 0 5.2 2.51 5.2 6.24 0 4.42-2.69 6.6-5.58 6.6a4.33 4.33 0 0 1-3.79-1.92v6.67h-2.21zm2.21 3.27a4.38 4.38 0 0 0 .11.92 3.43 3.43 0 0 0 3.35 2.61c2.36 0 3.73-1.93 3.73-4.75 0-2.46-1.3-4.57-3.66-4.57a3.57 3.57 0 0 0-3.37 2.77 3.48 3.48 0 0 0-.16.92zM946 326.33c0-1.58-.05-2.85-.1-4h2l.11 2.1a4.83 4.83 0 0 1 4.36-2.38c3 0 5.21 2.51 5.21 6.24 0 4.42-2.69 6.6-5.59 6.6a4.33 4.33 0 0 1-3.78-1.92h-.05v6.67H946zm2.21 3.27a5.18 5.18 0 0 0 .1.92 3.44 3.44 0 0 0 3.35 2.61c2.36 0 3.73-1.93 3.73-4.75 0-2.46-1.29-4.57-3.65-4.57a3.57 3.57 0 0 0-3.38 2.77 3.93 3.93 0 0 0-.15.92zM960.41 316.58h2.23v18h-2.23zM967.21 322.32l2.69 7.26c.28.81.58 1.78.79 2.51.23-.73.48-1.67.79-2.56l2.43-7.21h2.36l-3.27 8.76c-1.6 4.21-2.69 6.37-4.21 7.69a6.13 6.13 0 0 1-2.74 1.45l-.56-1.88a6.07 6.07 0 0 0 1.95-1.09 6.89 6.89 0 0 0 1.88-2.49 1.67 1.67 0 0 0 .18-.54 2 2 0 0 0-.15-.58l-4.55-11.32zM992.5 334.15a8.33 8.33 0 0 1-3.53.71c-3.71 0-6.12-2.51-6.12-6.27a6.24 6.24 0 0 1 6.6-6.53 7.39 7.39 0 0 1 3.1.64l-.51 1.72a5.23 5.23 0 0 0-2.59-.58c-2.82 0-4.34 2.08-4.34 4.65 0 2.84 1.83 4.59 4.26 4.59a6.39 6.39 0 0 0 2.75-.61zM995.11 316.58h2.23v7.67h.06a4.05 4.05 0 0 1 1.6-1.58 4.58 4.58 0 0 1 2.28-.63c1.65 0 4.29 1 4.29 5.25v7.32h-2.23v-7.06c0-2-.74-3.66-2.85-3.66a3.21 3.21 0 0 0-3 2.24 2.6 2.6 0 0 0-.16 1.06v7.42h-2.23zM1016 334.61l-.18-1.55h-.08a4.57 4.57 0 0 1-3.76 1.82 3.5 3.5 0 0 1-3.75-3.52c0-3 2.64-4.6 7.39-4.57v-.26a2.54 2.54 0 0 0-2.8-2.84 6.13 6.13 0 0 0-3.2.91l-.5-1.47a7.58 7.58 0 0 1 4-1.09c3.76 0 4.67 2.56 4.67 5v4.6a16.55 16.55 0 0 0 .21 2.95zm-.33-6.28c-2.44-.05-5.21.38-5.21 2.77a2 2 0 0 0 2.11 2.13 3.06 3.06 0 0 0 3-2.05 2.22 2.22 0 0 0 .13-.71zM1023.93 318.86a1.39 1.39 0 0 1-2.77 0 1.36 1.36 0 0 1 1.4-1.39 1.33 1.33 0 0 1 1.37 1.39zm-2.49 15.75v-12.29h2.23v12.29zM1027.38 325.64c0-1.27 0-2.31-.1-3.32h2l.12 2h.06a4.5 4.5 0 0 1 4.06-2.31c1.7 0 4.34 1 4.34 5.23v7.34h-2.23v-7.09c0-2-.74-3.63-2.85-3.63a3.17 3.17 0 0 0-3 2.29 3 3 0 0 0-.16 1v7.39h-2.23zM1055.61 334.15a8.3 8.3 0 0 1-3.53.71c-3.7 0-6.12-2.51-6.12-6.27a6.24 6.24 0 0 1 6.6-6.53 7.39 7.39 0 0 1 3.1.64l-.51 1.72a5.23 5.23 0 0 0-2.59-.58c-2.81 0-4.34 2.08-4.34 4.65 0 2.84 1.83 4.59 4.27 4.59a6.31 6.31 0 0 0 2.74-.61zM1069.19 328.36c0 4.54-3.14 6.52-6.11 6.52-3.33 0-5.9-2.43-5.9-6.32 0-4.11 2.7-6.52 6.1-6.52s5.91 2.56 5.91 6.32zm-9.75.13c0 2.69 1.55 4.72 3.74 4.72s3.73-2 3.73-4.77c0-2.09-1-4.73-3.68-4.73s-3.79 2.44-3.79 4.78zM1071.71 332.32a5.87 5.87 0 0 0 2.94.89c1.63 0 2.39-.81 2.39-1.83s-.64-1.65-2.29-2.26c-2.21-.79-3.25-2-3.25-3.48 0-2 1.6-3.6 4.24-3.6a6.13 6.13 0 0 1 3 .76l-.56 1.62a4.85 4.85 0 0 0-2.52-.71c-1.32 0-2 .76-2 1.68s.73 1.47 2.33 2.08c2.14.81 3.23 1.88 3.23 3.71 0 2.16-1.68 3.68-4.6 3.68a7 7 0 0 1-3.45-.84zM1084.76 318.79v3.53h3.2V324h-3.2v6.62c0 1.53.43 2.39 1.67 2.39a4.84 4.84 0 0 0 1.3-.15l.1 1.67a5.41 5.41 0 0 1-2 .31 3.09 3.09 0 0 1-2.41-.94 4.52 4.52 0 0 1-.87-3.2V324h-1.9v-1.7h1.9v-2.95zM1093 318.86a1.39 1.39 0 0 1-2.77 0 1.36 1.36 0 0 1 1.4-1.39 1.33 1.33 0 0 1 1.37 1.39zm-2.49 15.75v-12.29h2.23v12.29zM1096.41 325.64c0-1.27 0-2.31-.1-3.32h2l.13 2a4.51 4.51 0 0 1 4.06-2.31c1.7 0 4.34 1 4.34 5.23v7.34h-2.23v-7.09c0-2-.74-3.63-2.85-3.63a3.17 3.17 0 0 0-3 2.29 3 3 0 0 0-.16 1v7.39h-2.23zM1121.09 322.32c0 .89-.1 1.88-.1 3.37v7.14c0 2.82-.56 4.54-1.76 5.61a6.49 6.49 0 0 1-4.46 1.47 7.92 7.92 0 0 1-4.09-1l.56-1.7a7 7 0 0 0 3.6 1c2.29 0 4-1.19 4-4.29v-1.42a4.37 4.37 0 0 1-3.91 2.05c-3 0-5.23-2.59-5.23-6 0-4.16 2.72-6.52 5.54-6.52a4.07 4.07 0 0 1 3.83 2.13l.1-1.85zm-2.31 4.85a3.28 3.28 0 0 0-.13-1 3.23 3.23 0 0 0-3.12-2.36c-2.14 0-3.66 1.8-3.66 4.65 0 2.41 1.22 4.41 3.63 4.41a3.27 3.27 0 0 0 3.1-2.28 3.78 3.78 0 0 0 .18-1.19z"/><circle class="cls-6" cx="869.81" cy="217.26" r="4.48"/><circle class="cls-6" cx="870.18" cy="272" r="4.48"/><circle class="cls-6" cx="870.55" cy="326.74" r="4.48"/><path class="cls-5" d="M878.56 105v3.59c0 1.56.06 3.11 0 4.66a2 2 0 0 0 1.11 2 19.65 19.65 0 0 0 5.84 2.06c1.38.3 2.77.52 4.24.8l-.32 2.38c-4-.66-7.87-1.22-11.32-3.37a5.07 5.07 0 0 1-.46-.35 3.68 3.68 0 0 1-1.5-3.07V65.14a3.3 3.3 0 0 1 1.45-3 37.18 37.18 0 0 1 4-2c.39-.18.71-.3.72-.83a4.87 4.87 0 0 1 9.39-1.52c.05.1.11.19.14.24 2.72-.1 5.4-.34 8.08-.27 3.92.1 7.85.33 11.76.67a29.74 29.74 0 0 1 8.86 2.08 16.87 16.87 0 0 1 3.21 1.86A3.21 3.21 0 0 1 925 65v47.96a4.64 4.64 0 0 1-2.59 4.45 22.48 22.48 0 0 1-7.54 2.45c-2.84.45-5.71.74-8.57 1-.69.06-.82.3-.8.9v3.2l-9.3-5.36 9.29-5.37v4.29c5.09-.37 10-.87 14.67-2.73.21-.08.41-.18.61-.27a2.6 2.6 0 0 0 1.79-2.81c-.14-2.57 0-5.15 0-7.82a59.55 59.55 0 0 1-22 3.64c-7.51.02-14.94-.4-22-3.53zm44-12.65c-1 .36-1.87.71-2.76 1A62.74 62.74 0 0 1 902.51 96a70.18 70.18 0 0 1-17.82-1.52c-2.06-.48-4.05-1.24-6.13-1.89v.78c0 2.46.05 4.93 0 7.39a1.84 1.84 0 0 0 1.17 2 34.49 34.49 0 0 0 5.21 1.87 71.31 71.31 0 0 0 30.57 0 54.33 54.33 0 0 0 6.36-2.09 1.18 1.18 0 0 0 .65-.8c.02-3.17.01-6.25.01-9.41zm-44-12.35v8.32a1.59 1.59 0 0 0 .89 1.63 26.57 26.57 0 0 0 3.55 1.51 60.18 60.18 0 0 0 17.25 2.12A66.48 66.48 0 0 0 914 92.27a29.39 29.39 0 0 0 7.81-2.43c.28-.14.64-.47.64-.72v-9.17a1.29 1.29 0 0 0-.37.08 28.43 28.43 0 0 1-9 2.62 82.15 82.15 0 0 1-15.9.86 59.78 59.78 0 0 1-14.76-2.05c-1.21-.39-2.42-.95-3.86-1.46zm0-11.83v7.74a1.56 1.56 0 0 0 .85 1.57 21.47 21.47 0 0 0 2.93 1.34A50.31 50.31 0 0 0 895.56 81a75.13 75.13 0 0 0 20.24-1.35 18.34 18.34 0 0 0 5.82-2.12 1.68 1.68 0 0 0 .92-1.62v-7.6c-2 .65-3.87 1.39-5.81 1.85a70.58 70.58 0 0 1-18.56 1.59c-6.67-.22-13.28-.69-19.61-3.59zm21.93 1.21a69.88 69.88 0 0 0 14.7-1.38 19.06 19.06 0 0 0 6.45-2.28c1.14-.73 1.19-1.39 0-2a18.33 18.33 0 0 0-3.79-1.62c-8.37-2.3-16.9-2.36-25.47-1.67a1 1 0 0 0-.6.53 4.89 4.89 0 0 1-8.53 1.59.89.89 0 0 0-.74-.24 23.43 23.43 0 0 0-3 1.34c-1.23.71-1.26 1.46 0 2.12a22.13 22.13 0 0 0 4.29 1.73 63.48 63.48 0 0 0 16.69 1.87zM887.17 57a2.47 2.47 0 0 0-2.52 2.43 2.52 2.52 0 0 0 2.47 2.5 2.56 2.56 0 0 0 2.48-2.41 2.48 2.48 0 0 0-2.43-2.52zM66 67.91v-6.68h-4.26L67.13 52l5.37 9.17h-4.17v6.74h16.69c.69 0 .91.21 1.08.85 3.27 12.63 6.56 25.26 9.81 37.72a5.41 5.41 0 0 0-.76 1 10 10 0 0 1-18.52 0 6.35 6.35 0 0 0-.74-1.08c3.09-11.86 6.24-24 9.42-36.17h-17v16.11a.88.88 0 0 0 .69 1 4.59 4.59 0 0 1 0 8.55c-.42.17-.66.31-.66.84v25.66h12.24v2.23H53.67v-2.2H66v-.87-24.61c0-.55-.09-.86-.68-1.09a4.48 4.48 0 0 1-2.87-4.29 4.53 4.53 0 0 1 2.87-4.22c.39-.17.69-.26.69-.82V70.69a4.2 4.2 0 0 0 0-.44H49c3.17 12.15 6.32 24.26 9.43 36.18a8.43 8.43 0 0 0-.78 1.17 10 10 0 0 1-18.46 0 5.42 5.42 0 0 0-.62-1l-.21.07c1-4 2.07-8 3.12-12q3.39-13 6.76-26c.16-.61.38-.77 1-.76h15.75zm27 36.57c-2.36-9.06-4.7-18-7-27h-.2q-3.51 13.49-7 27zM48.45 77.4h-.16l-7 27H55.5c-2.37-9.02-4.71-18.01-7.05-27zm-6.88 29.7c.72 2.43 3.89 4.4 6.93 4.34s6.08-2 6.66-4.34zm37.5 0c.86 2.62 4.1 4.51 7.3 4.33 2.84-.16 5.84-2.21 6.3-4.33zm-12-17.91a2.41 2.41 0 1 0 .12 4.81 2.36 2.36 0 0 0 2.41-2.45 2.39 2.39 0 0 0-2.5-2.37zM501.93 79h-9.49v4H497l-1.56 2.62c-.81 1.36-1.58 2.75-2.46 4.07a3.79 3.79 0 0 0-.55 2.77h26.76v7H529v14.34h-6c-.91 2.42-2.56 3.75-5.09 3.73a4.83 4.83 0 0 1-4.65-3 .92.92 0 0 0-1-.66h-5.28V99.49h9.74V95h-24.27v4.43h9.72v14.33h-6c-.92 2.45-2.6 3.8-5.17 3.74a5 5 0 0 1-4.85-3.68h-6.06V99.48h9.74V95h-24.2v4.45h9.73v14.29h-6a5.2 5.2 0 0 1-3.95 3.65 5.07 5.07 0 0 1-5.78-3 .9.9 0 0 0-1-.66h-5.31V99.47H463v-6.94h26.8a3.62 3.62 0 0 0-.43-2.69c-1.38-2.19-2.67-4.42-4.08-6.77h4.52V79h-9.48v-4.76a27 27 0 0 1 .13-4.22 7.58 7.58 0 0 1 6.94-6.37 39.46 39.46 0 0 1 7.91.08 7.62 7.62 0 0 1 6.61 7.63c.08 2.51.01 5.01.01 7.64zm-19.05-2.48h16.55v-5.16a5.42 5.42 0 0 0-5.27-5.36q-3-.08-6.08 0a5.33 5.33 0 0 0-5.16 4.68c-.18 1.93-.04 3.88-.04 5.85zm-.25 25.38v9.43h3.48a.58.58 0 0 0 .07-.11 5 5 0 0 1 4.85-3.55A4.94 4.94 0 0 1 496 111a.7.7 0 0 0 .48.38h3.18v-9.45zm-26.86 0v9.46h2.7a1 1 0 0 0 1.16-.73 5 5 0 0 1 5.57-2.9 5.11 5.11 0 0 1 4.07 3.55h3.51v-9.39zm53.68 9.46h2.9c.49 0 .69-.18.88-.62a5.18 5.18 0 0 1 9.49 0l.22.49h3.55v-9.36h-17zM464.28 110a2.59 2.59 0 0 0-2.65 2.59 2.67 2.67 0 0 0 5.34-.05 2.57 2.57 0 0 0-2.69-2.54zm29.5 2.55a2.65 2.65 0 0 0-5.29 0 2.65 2.65 0 0 0 5.29 0zM518 110a2.57 2.57 0 0 0-2.66 2.57 2.67 2.67 0 0 0 5.33 0A2.58 2.58 0 0 0 518 110zM491.12 62.67a5.56 5.56 0 1 1 5.8-5.52 5.67 5.67 0 0 1-5.8 5.52zm0-2.43a3.13 3.13 0 1 0-3.24-3.13 3.17 3.17 0 0 0 3.25 3.13z"/></svg>