<svg id="Layer_1" data-name="Layer 1" xmlns="http://www.w3.org/2000/svg" width="100" height="100" viewBox="0 0 100 100"><title>Training</title><path d="M55,82.83a9.5,9.5,0,0,1-5-3.18A7.81,7.81,0,0,1,49.3,71a8,8,0,0,1,14.57.58,1.52,1.52,0,0,0,1.66,1.15c9.7,0,19.4,0,29.1,0H96V21.22H11.05v9.36H7V17.17h93V76.8c-.46,0-.93,0-1.39,0-10.75,0-21.5,0-32.24,0-1.36,0-2.42.06-2.71,1.65a2.51,2.51,0,0,1-.46.8,8.86,8.86,0,0,1-5.43,3.65Zm5.56-8.06a4.21,4.21,0,0,0-4.13-4.16,4.13,4.13,0,1,0,4.13,4.16Z"/><path d="M0,70.77c.18-.82.34-1.65.53-2.46A16.86,16.86,0,0,1,16.92,55.42q6,0,11.94,0A16.84,16.84,0,0,1,45.67,72.24v4.52H1.16c-.39,0-.77,0-1.16,0Zm4.15,1.86H41.67a12.94,12.94,0,0,0-13-13.23c-3.86,0-7.72,0-11.58,0a15.16,15.16,0,0,0-3.55.46C7.87,61.37,3.63,67.13,4.15,72.63Z"/><path d="M93.44,30.87c-.72,6.25-1.4,12.23-2.11,18.46L85.41,45,78.82,55.13,68.43,49.58,60,62,49,55.26,45.35,61,42,58.85l5.73-9.09,11.11,6.8,8.35-12.23,10.3,5.52,4.72-7.27L76.4,38.26Z"/><path d="M22.91,28.27A11.83,11.83,0,1,1,11,40.08,11.77,11.77,0,0,1,22.91,28.27Zm7.8,11.89A7.84,7.84,0,1,0,22.84,48,7.89,7.89,0,0,0,30.71,40.16Z"/></svg>