<svg id="Layer_1" data-name="Layer 1" xmlns="http://www.w3.org/2000/svg" width="100" height="100" viewBox="0 0 100 100"><title>transaction-process </title><path d="M27.4,79.63v6L13.79,78l13.6-7.64v5.88c5.31,0,10.53.81,15.71-.29a10.25,10.25,0,0,0,5.1-2.67c5.11-4.87,10.26-9.7,15.38-14.56A3.52,3.52,0,0,0,64.29,54,3.16,3.16,0,0,0,60,52.59L41.91,60.07l-7.71,3.2-1.15.43-1.3-3,7.76-3.25c-1.92-2.42-1.6-5.22-1.6-8V37.94a44.39,44.39,0,0,1-5.17,0c-3.63-.43-6.21,1.08-8.42,3.8-2.7,3.31-5.55,6.5-8.38,9.7a2.66,2.66,0,0,1-1.4.81c-3.32.71-6.65,1.35-10,2-.4.08-.8.19-1.3.31V77.94H0V51.79l7.3-1.46c1.84-.36,3.67-.69,5.49-1.11a2.68,2.68,0,0,0,1.3-.78c2.8-3.18,5.56-6.39,8.34-9.59,2.46-2.83,5.4-4.5,9.31-4.2,2,.15,4,0,6.17,0,0-2.1.09-4.08,0-6.05-.32-5.55,4.22-9.4,9.32-9.3,7.7.16,15.42,0,23.13.06a1.37,1.37,0,0,0,1.52-.95,6.86,6.86,0,0,1,12.54,0,1.28,1.28,0,0,0,1.42.92q2.87-.08,5.73,0A8.52,8.52,0,0,1,100,28q0,11.16,0,22.33c0,5.45-3.65,9.11-9.12,9.12q-11.16,0-22.33,0a2.23,2.23,0,0,0-1.93.87,41.49,41.49,0,0,1-3.34,3.29C59.18,67.48,55,71.3,51,75.24a15.31,15.31,0,0,1-10.41,4.38c-3.88.16-7.77,0-11.66,0ZM68.68,56.1a.94.94,0,0,0,.29,0c7.45,0,14.89,0,22.33,0a5.15,5.15,0,0,0,5.31-5.5c0-4.88,0-9.77,0-14.66,0-.36,0-.72-.07-1.09H41.37a4.29,4.29,0,0,0-.09.61c0,5.77,0,11.53,0,17.29a6.93,6.93,0,0,0,.56,2.2c.36,1,.93,1.23,2,.77,4.93-2.13,9.91-4.16,14.88-6.2a6.29,6.29,0,0,1,8.13,2.4A25.59,25.59,0,0,1,68.68,56.1ZM96.61,31.49c0-1.23,0-2.37,0-3.51a5.27,5.27,0,0,0-5.26-5.35c-1.94,0-3.89,0-5.83,0a1.29,1.29,0,0,0-1,.65,7,7,0,0,1-12.87,0,1.33,1.33,0,0,0-1-.65q-12.08-.06-24.15,0a5.08,5.08,0,0,0-5.1,4,29.47,29.47,0,0,0,0,4.89ZM78.17,17.57a3.43,3.43,0,1,0,0,6.86,3.57,3.57,0,0,0,3.53-3.36A3.53,3.53,0,0,0,78.17,17.57Z"/></svg>