<svg id="Layer_1" data-name="Layer 1" xmlns="http://www.w3.org/2000/svg" viewBox="0 0 350.5 351"><defs><style>.cls-1{fill:#372261;}.cls-2{fill:#fff;}</style></defs><title>tv-and-radio</title><rect class="cls-1" x="94" y="174" width="162" height="3"/><rect class="cls-1" x="94" y="174" width="162" height="3" transform="translate(350.5 0.5) rotate(90)"/><rect class="cls-1" x="122" y="1" width="106" height="106" rx="53" ry="53"/><rect class="cls-1" x="122" y="245" width="106" height="106" rx="53" ry="53"/><rect class="cls-1" x="244.5" y="122.5" width="106" height="106" rx="53" ry="53"/><rect class="cls-1" x="1" y="122.5" width="106" height="106" rx="53" ry="53"/><path class="cls-2" d="M14.54,188.24v7.07h-1.3v-7.07Z"/><path class="cls-2" d="M16,191.72c0-.58,0-1.08,0-1.52H17l.05.76h0a1.76,1.76,0,0,1,1.57-.87,1.46,1.46,0,0,1,1.42.94h0a2,2,0,0,1,.63-.64,1.7,1.7,0,0,1,1-.3c.85,0,1.71.57,1.71,2.21v3H22.24v-2.82c0-.85-.29-1.35-.91-1.35a1,1,0,0,0-.9.68,1.43,1.43,0,0,0-.07.43v3.06H19.1v-3c0-.71-.28-1.21-.88-1.21a1,1,0,0,0-.92.73,1.16,1.16,0,0,0-.08.42v3H16Z"/><path class="cls-2" d="M27.74,195.31l-.08-.56h0a1.9,1.9,0,0,1-1.51.68,1.52,1.52,0,0,1-1.61-1.52c0-1.29,1.15-1.95,3-1.93v-.09c0-.33-.13-.89-1-.89a2.72,2.72,0,0,0-1.38.38l-.25-.84a3.7,3.7,0,0,1,1.85-.45,1.92,1.92,0,0,1,2.11,2.15v1.85a8.45,8.45,0,0,0,.07,1.22Zm-.16-2.49c-.92,0-1.79.17-1.79,1a.69.69,0,0,0,.74.74,1,1,0,0,0,1-.71.72.72,0,0,0,0-.28Z"/><path class="cls-2" d="M34.87,190.2c0,.35,0,.77,0,1.47v2.9a3,3,0,0,1-.75,2.32,3,3,0,0,1-2,.62,3.63,3.63,0,0,1-1.78-.41l.28-1a3.08,3.08,0,0,0,1.49.39A1.36,1.36,0,0,0,33.56,195v-.44h0a1.72,1.72,0,0,1-1.49.75,2.27,2.27,0,0,1-2.17-2.5,2.44,2.44,0,0,1,2.32-2.69,1.61,1.61,0,0,1,1.48.79h0l0-.68Zm-1.33,2.05a1.34,1.34,0,0,0,0-.35,1.08,1.08,0,0,0-1-.83c-.73,0-1.26.63-1.26,1.67,0,.87.44,1.58,1.25,1.58a1.11,1.11,0,0,0,1.05-.78,2.4,2.4,0,0,0,0-.46Z"/><path class="cls-2" d="M37.13,193.12a1.39,1.39,0,0,0,1.58,1.32,3.74,3.74,0,0,0,1.41-.23l.19.89a4.76,4.76,0,0,1-1.78.32,2.42,2.42,0,0,1-2.64-2.58,2.53,2.53,0,0,1,2.5-2.75,2.22,2.22,0,0,1,2.21,2.48,2.38,2.38,0,0,1-.05.55Zm2.25-.9A1.1,1.1,0,0,0,38.32,191a1.26,1.26,0,0,0-1.19,1.25Z"/><path class="cls-2" d="M46.69,195.31l-.09-.56h0a1.89,1.89,0,0,1-1.51.68,1.52,1.52,0,0,1-1.61-1.52c0-1.29,1.15-1.95,3-1.93v-.09c0-.33-.14-.89-1-.89a2.72,2.72,0,0,0-1.38.38l-.25-.84a3.7,3.7,0,0,1,1.85-.45,1.91,1.91,0,0,1,2.11,2.15v1.85a8.45,8.45,0,0,0,.07,1.22Zm-.17-2.49c-.92,0-1.79.17-1.79,1a.69.69,0,0,0,.74.74,1.06,1.06,0,0,0,1-.71,1,1,0,0,0,0-.28Z"/><path class="cls-2" d="M49.14,191.72c0-.58,0-1.08,0-1.52h1.14l.06.77h0a1.85,1.85,0,0,1,1.63-.88c.89,0,1.81.57,1.81,2.19v3H52.48v-2.88c0-.74-.27-1.29-1-1.29a1.07,1.07,0,0,0-1,.75,1.38,1.38,0,0,0,0,.42v3H49.14Z"/><path class="cls-2" d="M59.86,187.86v6c0,.52,0,1.09,0,1.43H58.75l0-.8h0a1.86,1.86,0,0,1-1.67.92,2.34,2.34,0,0,1-2.19-2.61,2.43,2.43,0,0,1,2.29-2.73,1.62,1.62,0,0,1,1.44.67h0v-2.9Zm-1.29,4.47a1.84,1.84,0,0,0,0-.33,1.13,1.13,0,0,0-1.11-.92c-.83,0-1.29.74-1.29,1.69s.46,1.62,1.28,1.62a1.15,1.15,0,0,0,1.11-.91,1.53,1.53,0,0,0,0-.38Z"/><path class="cls-2" d="M63.42,191.72c0-.58,0-1.08,0-1.52h1.14l.06.77h0a1.85,1.85,0,0,1,1.63-.88c.89,0,1.81.57,1.81,2.19v3H66.76v-2.88c0-.74-.27-1.29-1-1.29a1.07,1.07,0,0,0-1,.75,1.37,1.37,0,0,0-.06.42v3h-1.3Z"/><path class="cls-2" d="M72.31,195.31l-.09-.56h0a1.89,1.89,0,0,1-1.51.68,1.52,1.52,0,0,1-1.61-1.52c0-1.29,1.15-1.95,3-1.93v-.09c0-.33-.14-.89-1-.89a2.72,2.72,0,0,0-1.38.38l-.25-.84a3.7,3.7,0,0,1,1.85-.45,1.92,1.92,0,0,1,2.11,2.15v1.85a8.45,8.45,0,0,0,.07,1.22Zm-.17-2.49c-.92,0-1.79.17-1.79,1a.69.69,0,0,0,.74.74,1.06,1.06,0,0,0,1-.71,1,1,0,0,0,0-.28Z"/><path class="cls-2" d="M76.24,188.74v1.46h1.23v1H76.24v2.25c0,.62.17,1,.66,1a2,2,0,0,0,.51-.06l0,1a2.67,2.67,0,0,1-.93.13,1.51,1.51,0,0,1-1.12-.42,2.05,2.05,0,0,1-.4-1.43v-2.4h-.73v-1H75v-1.15Z"/><path class="cls-2" d="M83,193.78c0,.61,0,1.11,0,1.53H81.93l-.06-.77h0a1.86,1.86,0,0,1-1.64.89c-.93,0-1.78-.56-1.78-2.23v-3h1.29V193c0,.85.27,1.4,1,1.4a1.1,1.1,0,0,0,1-.69,1.29,1.29,0,0,0,.07-.4V190.2H83Z"/><path class="cls-2" d="M84.42,191.85c0-.69,0-1.19,0-1.65H85.5l0,1h0A1.51,1.51,0,0,1,87,190.09a1.48,1.48,0,0,1,.31,0v1.21a1.92,1.92,0,0,0-.38,0,1.13,1.13,0,0,0-1.15,1,2.18,2.18,0,0,0-.05.4v2.64H84.42Z"/><path class="cls-2" d="M91,195.31l-.09-.56h0a1.89,1.89,0,0,1-1.51.68,1.52,1.52,0,0,1-1.61-1.52c0-1.29,1.15-1.95,3-1.93v-.09c0-.33-.14-.89-1-.89a2.72,2.72,0,0,0-1.38.38l-.25-.84a3.7,3.7,0,0,1,1.85-.45,1.91,1.91,0,0,1,2.11,2.15v1.85a8.45,8.45,0,0,0,.07,1.22Zm-.17-2.49c-.91,0-1.79.17-1.79,1a.69.69,0,0,0,.74.74,1.06,1.06,0,0,0,1-.71,1,1,0,0,0,0-.28Z"/><path class="cls-2" d="M93.5,187.86h1.3v7.45H93.5Z"/><path class="cls-2" d="M33.29,198.86H34.6v7.45H33.29Z"/><path class="cls-2" d="M38.87,206.31l-.08-.56h0a1.89,1.89,0,0,1-1.51.68,1.51,1.51,0,0,1-1.6-1.52c0-1.29,1.14-1.95,3-1.93v-.09c0-.33-.14-.89-1-.89a2.75,2.75,0,0,0-1.38.38l-.25-.84a3.7,3.7,0,0,1,1.85-.45A1.91,1.91,0,0,1,40,203.24v1.85a8.45,8.45,0,0,0,.07,1.22Zm-.17-2.49c-.91,0-1.78.17-1.78,1a.68.68,0,0,0,.73.74,1,1,0,0,0,1-.71,1,1,0,0,0,0-.28Z"/><path class="cls-2" d="M41.33,202.72c0-.58,0-1.08,0-1.52h1.14l.06.77h0a1.85,1.85,0,0,1,1.63-.88c.89,0,1.82.57,1.82,2.19v3h-1.3v-2.88c0-.74-.27-1.29-1-1.29a1.08,1.08,0,0,0-1,.75,1.38,1.38,0,0,0,0,.42v3h-1.3Z"/><path class="cls-2" d="M52,201.2c0,.35,0,.77,0,1.47v2.9a2.46,2.46,0,0,1-2.73,2.94,3.63,3.63,0,0,1-1.78-.41l.28-1a3.08,3.08,0,0,0,1.49.39A1.36,1.36,0,0,0,50.69,206v-.44h0a1.72,1.72,0,0,1-1.49.75,2.27,2.27,0,0,1-2.17-2.5,2.44,2.44,0,0,1,2.32-2.69,1.61,1.61,0,0,1,1.48.79h0l.05-.68Zm-1.33,2.05a1.34,1.34,0,0,0,0-.35,1.08,1.08,0,0,0-1.05-.83c-.73,0-1.26.63-1.26,1.67,0,.87.44,1.58,1.25,1.58a1.11,1.11,0,0,0,1-.78,2.4,2.4,0,0,0,.05-.46Z"/><path class="cls-2" d="M57.93,204.78c0,.61,0,1.11,0,1.53H56.83l-.06-.77h0a1.86,1.86,0,0,1-1.64.89c-.93,0-1.78-.56-1.78-2.23v-3h1.29V204c0,.85.27,1.4,1,1.4a1.1,1.1,0,0,0,1-.69,1.29,1.29,0,0,0,.07-.4V201.2h1.3Z"/><path class="cls-2" d="M62.2,206.31l-.08-.56h0a1.89,1.89,0,0,1-1.51.68,1.51,1.51,0,0,1-1.6-1.52c0-1.29,1.14-1.95,3-1.93v-.09c0-.33-.14-.89-1-.89a2.69,2.69,0,0,0-1.37.38l-.26-.84a3.7,3.7,0,0,1,1.85-.45,1.91,1.91,0,0,1,2.11,2.15v1.85a7.11,7.11,0,0,0,.08,1.22ZM62,203.82c-.91,0-1.78.17-1.78,1a.68.68,0,0,0,.73.74,1,1,0,0,0,1-.71,1,1,0,0,0,0-.28Z"/><path class="cls-2" d="M69.33,201.2c0,.35,0,.77,0,1.47v2.9a2.47,2.47,0,0,1-2.73,2.94,3.67,3.67,0,0,1-1.79-.41l.29-1a3.05,3.05,0,0,0,1.49.39A1.36,1.36,0,0,0,68,206v-.44h0a1.74,1.74,0,0,1-1.5.75,2.27,2.27,0,0,1-2.17-2.5,2.44,2.44,0,0,1,2.32-2.69,1.6,1.6,0,0,1,1.48.79h0l.06-.68ZM68,203.25a1.34,1.34,0,0,0,0-.35,1.07,1.07,0,0,0-1-.83c-.72,0-1.26.63-1.26,1.67,0,.87.44,1.58,1.25,1.58a1.1,1.1,0,0,0,1-.78,2.42,2.42,0,0,0,.06-.46Z"/><path class="cls-2" d="M71.59,204.12a1.38,1.38,0,0,0,1.57,1.32,3.8,3.8,0,0,0,1.42-.23l.19.89a4.78,4.78,0,0,1-1.79.32,2.41,2.41,0,0,1-2.63-2.58,2.53,2.53,0,0,1,2.5-2.75,2.22,2.22,0,0,1,2.2,2.48,3.35,3.35,0,0,1,0,.55Zm2.24-.9A1.1,1.1,0,0,0,72.77,202a1.25,1.25,0,0,0-1.18,1.25Z"/><path class="cls-2" d="M30,213.9c0-.67,0-1.22,0-1.7h1.13l.07.79h0a2,2,0,0,1,1.75-.9,2.31,2.31,0,0,1,2.15,2.6,2.43,2.43,0,0,1-2.33,2.74,1.69,1.69,0,0,1-1.44-.68h0v2.64H30Zm1.29,1.27a1.08,1.08,0,0,0,0,.36,1.16,1.16,0,0,0,1.13.9c.82,0,1.3-.68,1.3-1.69s-.44-1.64-1.27-1.64a1.2,1.2,0,0,0-1.15,1,.91.91,0,0,0-.06.32Z"/><path class="cls-2" d="M36.13,213.85c0-.69,0-1.19,0-1.65h1.12l0,1h0a1.51,1.51,0,0,1,1.4-1.09,1.45,1.45,0,0,1,.3,0v1.21a1.92,1.92,0,0,0-.38,0,1.13,1.13,0,0,0-1.15,1,2.25,2.25,0,0,0,0,.4v2.64h-1.3Z"/><path class="cls-2" d="M44.73,214.71a2.53,2.53,0,0,1-2.62,2.72,2.47,2.47,0,0,1-2.56-2.64,2.52,2.52,0,0,1,2.64-2.7A2.45,2.45,0,0,1,44.73,214.71Zm-3.85,0c0,1,.48,1.74,1.27,1.74s1.25-.73,1.25-1.76c0-.8-.36-1.71-1.24-1.71S40.88,213.91,40.88,214.76Z"/><path class="cls-2" d="M49.55,217.16a3.86,3.86,0,0,1-1.45.26,2.45,2.45,0,0,1-2.63-2.6,2.64,2.64,0,0,1,2.84-2.73,3.12,3.12,0,0,1,1.25.24l-.23,1a2.32,2.32,0,0,0-1-.2,1.66,1.66,0,0,0,0,3.31,2.4,2.4,0,0,0,1-.2Z"/><path class="cls-2" d="M51.42,215.12A1.39,1.39,0,0,0,53,216.44a3.74,3.74,0,0,0,1.41-.23l.19.89a4.76,4.76,0,0,1-1.78.32,2.42,2.42,0,0,1-2.64-2.58,2.53,2.53,0,0,1,2.5-2.75,2.22,2.22,0,0,1,2.21,2.48,2.38,2.38,0,0,1,0,.55Zm2.25-.9A1.1,1.1,0,0,0,52.61,213a1.26,1.26,0,0,0-1.19,1.25Z"/><path class="cls-2" d="M55.86,216.13a2.89,2.89,0,0,0,1.32.37c.56,0,.81-.24.81-.57s-.21-.53-.84-.75c-1-.34-1.41-.89-1.4-1.49,0-.9.74-1.6,1.93-1.6a2.93,2.93,0,0,1,1.35.3l-.25.91A2.37,2.37,0,0,0,57.7,213c-.46,0-.71.22-.71.53s.24.49.89.72c.92.33,1.35.81,1.36,1.56,0,.93-.72,1.6-2.07,1.6a3.33,3.33,0,0,1-1.56-.36Z"/><path class="cls-2" d="M60.24,216.13a2.88,2.88,0,0,0,1.31.37c.57,0,.82-.24.82-.57s-.21-.53-.84-.75c-1-.34-1.41-.89-1.4-1.49,0-.9.74-1.6,1.93-1.6a2.93,2.93,0,0,1,1.35.3l-.25.91a2.37,2.37,0,0,0-1.08-.29c-.46,0-.71.22-.71.53s.24.49.89.72c.92.33,1.35.81,1.36,1.56,0,.93-.72,1.6-2.08,1.6a3.28,3.28,0,0,1-1.55-.36Z"/><path class="cls-2" d="M66.06,210.77a.69.69,0,0,1-.74.7.68.68,0,0,1-.71-.7.73.73,0,0,1,1.45,0Zm-1.38,6.54V212.2H66v5.11Z"/><path class="cls-2" d="M67.37,213.72c0-.58,0-1.08,0-1.52h1.13l.07.77h0a1.83,1.83,0,0,1,1.62-.88c.9,0,1.82.57,1.82,2.19v3H70.71v-2.88c0-.74-.27-1.29-1-1.29a1.06,1.06,0,0,0-1,.75,1.12,1.12,0,0,0-.06.42v3h-1.3Z"/><path class="cls-2" d="M78.05,212.2c0,.35,0,.77,0,1.47v2.9a2.47,2.47,0,0,1-2.73,2.94,3.67,3.67,0,0,1-1.79-.41l.29-1a3.05,3.05,0,0,0,1.49.39A1.36,1.36,0,0,0,76.74,217v-.44h0a1.71,1.71,0,0,1-1.49.75,2.27,2.27,0,0,1-2.17-2.5,2.44,2.44,0,0,1,2.32-2.69,1.6,1.6,0,0,1,1.48.79h0l.06-.68Zm-1.34,2.05a1,1,0,0,0,0-.35,1.07,1.07,0,0,0-1-.83c-.72,0-1.26.63-1.26,1.67,0,.87.44,1.58,1.25,1.58a1.1,1.1,0,0,0,1-.78,2.4,2.4,0,0,0,0-.46Z"/><path class="cls-2" d="M150.74,316.33a12.84,12.84,0,0,1,1.95-.14,3.3,3.3,0,0,1,2.19.56,1.83,1.83,0,0,1,.61,1.42,1.88,1.88,0,0,1-1.28,1.77v0a1.79,1.79,0,0,1,1,1.36,13.39,13.39,0,0,0,.56,2h-1.34a10.44,10.44,0,0,1-.47-1.67c-.2-.92-.53-1.21-1.27-1.23H152v2.9h-1.28Zm1.28,3.13h.77c.87,0,1.42-.46,1.42-1.16s-.55-1.14-1.39-1.14a4,4,0,0,0-.8.06Z"/><path class="cls-2" d="M157.58,321.12a1.38,1.38,0,0,0,1.57,1.32,3.8,3.8,0,0,0,1.42-.23l.19.89a4.78,4.78,0,0,1-1.79.32,2.41,2.41,0,0,1-2.63-2.58,2.53,2.53,0,0,1,2.49-2.75,2.22,2.22,0,0,1,2.21,2.48,3.35,3.35,0,0,1,0,.55Zm2.24-.9a1.1,1.1,0,0,0-1.06-1.25,1.25,1.25,0,0,0-1.18,1.25Z"/><path class="cls-2" d="M166.75,318.2c0,.35,0,.77,0,1.47v2.9a2.47,2.47,0,0,1-2.73,2.94,3.63,3.63,0,0,1-1.78-.41l.28-1a3.05,3.05,0,0,0,1.49.39,1.36,1.36,0,0,0,1.47-1.54v-.44h0a1.72,1.72,0,0,1-1.49.75,2.27,2.27,0,0,1-2.18-2.5,2.45,2.45,0,0,1,2.32-2.69,1.6,1.6,0,0,1,1.48.79h0l0-.68Zm-1.33,2.05a1.34,1.34,0,0,0,0-.35,1.08,1.08,0,0,0-1-.83c-.73,0-1.26.63-1.26,1.67,0,.87.44,1.58,1.25,1.58a1.11,1.11,0,0,0,1.05-.78,2.4,2.4,0,0,0,0-.46Z"/><path class="cls-2" d="M172.67,321.78c0,.61,0,1.11.05,1.53h-1.14l-.06-.77h0a1.87,1.87,0,0,1-1.64.89c-.93,0-1.78-.56-1.78-2.23v-3h1.29V321c0,.85.27,1.4.95,1.4a1.1,1.1,0,0,0,1-.69,1.29,1.29,0,0,0,.07-.4V318.2h1.29Z"/><path class="cls-2" d="M174.07,315.86h1.3v7.45h-1.3Z"/><path class="cls-2" d="M179.65,323.31l-.09-.56h0a1.9,1.9,0,0,1-1.51.68,1.52,1.52,0,0,1-1.61-1.52c0-1.29,1.15-2,3-1.93v-.09c0-.33-.14-.89-1-.89a2.72,2.72,0,0,0-1.38.38l-.25-.84a3.7,3.7,0,0,1,1.85-.45,1.91,1.91,0,0,1,2.11,2.15v1.85a8.45,8.45,0,0,0,.07,1.22Zm-.17-2.49c-.92,0-1.79.17-1.79.95a.69.69,0,0,0,.74.74,1.06,1.06,0,0,0,1-.71,1,1,0,0,0,0-.28Z"/><path class="cls-2" d="M183.58,316.74v1.46h1.23v1h-1.23v2.25c0,.62.17.95.66.95a2.09,2.09,0,0,0,.51-.06l0,1a2.69,2.69,0,0,1-.94.13,1.5,1.5,0,0,1-1.11-.42,2.05,2.05,0,0,1-.4-1.43v-2.4h-.73v-1h.73v-1.15Z"/><path class="cls-2" d="M190.65,320.71a2.53,2.53,0,0,1-2.63,2.72,2.48,2.48,0,0,1-2.56-2.64,2.53,2.53,0,0,1,2.65-2.7A2.45,2.45,0,0,1,190.65,320.71Zm-3.85.05c0,1,.48,1.74,1.27,1.74s1.25-.73,1.25-1.76c0-.8-.36-1.71-1.24-1.71S186.8,319.91,186.8,320.76Z"/><path class="cls-2" d="M191.71,319.85c0-.69,0-1.19,0-1.65h1.12l0,1h0a1.51,1.51,0,0,1,1.39-1.09,1.48,1.48,0,0,1,.31,0v1.21a1.92,1.92,0,0,0-.38,0,1.15,1.15,0,0,0-1.16,1,2.25,2.25,0,0,0,0,.4v2.64h-1.29Z"/><path class="cls-2" d="M196.26,318.2l.92,2.74c.11.32.21.7.28,1h0c.08-.3.17-.67.27-1l.8-2.73H200l-1.28,3.49c-.7,1.91-1.17,2.76-1.78,3.28a2.61,2.61,0,0,1-1.36.66l-.29-1.09a2.32,2.32,0,0,0,1.46-1.16.57.57,0,0,0,.08-.23.58.58,0,0,0-.07-.26l-1.87-4.69Z"/><path class="cls-2" d="M153.18,334.16a3.86,3.86,0,0,1-1.45.26,2.45,2.45,0,0,1-2.63-2.6,2.64,2.64,0,0,1,2.84-2.73,3.16,3.16,0,0,1,1.25.24l-.23,1a2.33,2.33,0,0,0-1-.2,1.66,1.66,0,0,0,0,3.31,2.41,2.41,0,0,0,1-.2Z"/><path class="cls-2" d="M159,331.71a2.54,2.54,0,0,1-2.63,2.72,2.47,2.47,0,0,1-2.56-2.64,2.52,2.52,0,0,1,2.65-2.7A2.45,2.45,0,0,1,159,331.71Zm-3.86.05c0,1,.49,1.74,1.28,1.74s1.24-.73,1.24-1.76c0-.8-.35-1.71-1.23-1.71S155.14,330.91,155.14,331.76Z"/><path class="cls-2" d="M160.06,330.72c0-.58,0-1.08,0-1.52h1.11l.05.76h0a1.79,1.79,0,0,1,1.58-.87,1.47,1.47,0,0,1,1.42.94h0a2,2,0,0,1,.63-.64,1.67,1.67,0,0,1,1-.3c.86,0,1.72.57,1.72,2.21v3h-1.26v-2.82c0-.85-.3-1.35-.92-1.35a1,1,0,0,0-.9.68,1.86,1.86,0,0,0-.06.43v3.06H163.2v-3c0-.71-.29-1.21-.88-1.21a1,1,0,0,0-.93.73,1.16,1.16,0,0,0-.07.42v3h-1.26Z"/><path class="cls-2" d="M169,330.9c0-.67,0-1.22,0-1.7h1.13l.07.79h0a2,2,0,0,1,1.75-.9,2.31,2.31,0,0,1,2.15,2.6,2.43,2.43,0,0,1-2.33,2.74,1.66,1.66,0,0,1-1.43-.68h0v2.64H169Zm1.29,1.27a1.08,1.08,0,0,0,.05.36,1.16,1.16,0,0,0,1.13.9c.82,0,1.3-.68,1.3-1.69s-.44-1.64-1.27-1.64a1.38,1.38,0,0,0-1.21,1.28Z"/><path class="cls-2" d="M175.11,326.86h1.3v7.45h-1.3Z"/><path class="cls-2" d="M179.18,327.77a.69.69,0,0,1-.74.7.68.68,0,0,1-.71-.7.73.73,0,0,1,1.45,0Zm-1.38,6.54V329.2h1.31v5.11Z"/><path class="cls-2" d="M183.37,334.31l-.09-.56h0a1.89,1.89,0,0,1-1.51.68,1.52,1.52,0,0,1-1.61-1.52c0-1.29,1.15-2,3-1.93v-.09c0-.33-.14-.89-1-.89a2.75,2.75,0,0,0-1.38.38l-.25-.84a3.7,3.7,0,0,1,1.85-.45,1.91,1.91,0,0,1,2.11,2.15v1.85a8.45,8.45,0,0,0,.07,1.22Zm-.17-2.49c-.91,0-1.78.17-1.78.95a.68.68,0,0,0,.73.74,1,1,0,0,0,1-.71,1,1,0,0,0,0-.28Z"/><path class="cls-2" d="M185.83,330.72c0-.58,0-1.08-.05-1.52h1.14l.06.77h0a1.85,1.85,0,0,1,1.63-.88c.89,0,1.82.57,1.82,2.19v3h-1.3v-2.88c0-.74-.27-1.29-1-1.29a1.08,1.08,0,0,0-1,.75,1.38,1.38,0,0,0-.05.42v3h-1.3Z"/><path class="cls-2" d="M195.59,334.16a3.86,3.86,0,0,1-1.45.26,2.45,2.45,0,0,1-2.63-2.6,2.64,2.64,0,0,1,2.84-2.73,3.16,3.16,0,0,1,1.25.24l-.23,1a2.33,2.33,0,0,0-1-.2,1.66,1.66,0,0,0,0,3.31,2.45,2.45,0,0,0,1-.2Z"/><path class="cls-2" d="M197.46,332.12a1.38,1.38,0,0,0,1.57,1.32,3.8,3.8,0,0,0,1.42-.23l.19.89a4.76,4.76,0,0,1-1.78.32,2.42,2.42,0,0,1-2.64-2.58,2.53,2.53,0,0,1,2.5-2.75,2.21,2.21,0,0,1,2.2,2.48,3.35,3.35,0,0,1,0,.55Zm2.25-.9a1.1,1.1,0,0,0-1.06-1.25,1.26,1.26,0,0,0-1.19,1.25Z"/><path class="cls-2" d="M259.32,192.33a12.84,12.84,0,0,1,1.95-.14,3.29,3.29,0,0,1,2.19.56,1.8,1.8,0,0,1,.61,1.42,1.88,1.88,0,0,1-1.28,1.77v0a1.79,1.79,0,0,1,1,1.36,13.39,13.39,0,0,0,.56,2H263a9.1,9.1,0,0,1-.48-1.67c-.2-.92-.53-1.21-1.27-1.23h-.65v2.9h-1.28Zm1.28,3.13h.77c.87,0,1.42-.46,1.42-1.16s-.55-1.14-1.39-1.14a4,4,0,0,0-.8.06Z"/><path class="cls-2" d="M266.16,197.12a1.38,1.38,0,0,0,1.57,1.32,3.8,3.8,0,0,0,1.42-.23l.19.89a4.78,4.78,0,0,1-1.79.32,2.41,2.41,0,0,1-2.63-2.58,2.53,2.53,0,0,1,2.5-2.75,2.21,2.21,0,0,1,2.2,2.48,3.35,3.35,0,0,1,0,.55Zm2.24-.9a1.1,1.1,0,0,0-1.06-1.25,1.25,1.25,0,0,0-1.18,1.25Z"/><path class="cls-2" d="M270.66,195.9c0-.67,0-1.22,0-1.7h1.13l.07.79h0a2,2,0,0,1,1.75-.9,2.31,2.31,0,0,1,2.15,2.6,2.43,2.43,0,0,1-2.33,2.74,1.69,1.69,0,0,1-1.44-.68h0v2.64h-1.29Zm1.29,1.27a1.08,1.08,0,0,0,.05.36,1.16,1.16,0,0,0,1.13.9c.82,0,1.3-.68,1.3-1.69s-.44-1.64-1.27-1.64a1.2,1.2,0,0,0-1.15,1,.91.91,0,0,0-.06.32Z"/><path class="cls-2" d="M281.38,197.78c0,.61,0,1.11,0,1.53h-1.13l-.06-.77h0a1.89,1.89,0,0,1-1.64.89c-.94,0-1.79-.56-1.79-2.23v-3h1.29V197c0,.85.28,1.4,1,1.4a1.11,1.11,0,0,0,1-.69,1.29,1.29,0,0,0,.07-.4V194.2h1.29Z"/><path class="cls-2" d="M282.78,195.85c0-.69,0-1.19,0-1.65h1.12l0,1h0a1.52,1.52,0,0,1,1.4-1.09,1.32,1.32,0,0,1,.3,0v1.21a1.82,1.82,0,0,0-.37,0,1.15,1.15,0,0,0-1.16,1,2.25,2.25,0,0,0,0,.4v2.64h-1.29Z"/><path class="cls-2" d="M286.52,195.9c0-.67,0-1.22,0-1.7h1.14l.06.79h0a2,2,0,0,1,1.76-.9,2.32,2.32,0,0,1,2.15,2.6,2.43,2.43,0,0,1-2.33,2.74,1.68,1.68,0,0,1-1.44-.68h0v2.64h-1.29Zm1.29,1.27a1.42,1.42,0,0,0,0,.36,1.17,1.17,0,0,0,1.13.9c.82,0,1.31-.68,1.31-1.69s-.45-1.64-1.28-1.64a1.21,1.21,0,0,0-1.15,1,1.19,1.19,0,0,0-.05.32Z"/><path class="cls-2" d="M297.52,196.71a2.53,2.53,0,0,1-2.63,2.72,2.48,2.48,0,0,1-2.56-2.64,2.53,2.53,0,0,1,2.65-2.7A2.45,2.45,0,0,1,297.52,196.71Zm-3.85,0c0,1,.48,1.74,1.27,1.74s1.25-.73,1.25-1.76c0-.8-.36-1.71-1.24-1.71S293.67,195.91,293.67,196.76Z"/><path class="cls-2" d="M298.52,198.13a2.85,2.85,0,0,0,1.31.37c.57,0,.82-.24.82-.57s-.21-.53-.84-.75c-1-.34-1.42-.89-1.41-1.49a1.71,1.71,0,0,1,1.93-1.6,3,3,0,0,1,1.36.3l-.25.91a2.38,2.38,0,0,0-1.09-.29c-.46,0-.71.22-.71.53s.24.49.89.72c.93.33,1.36.81,1.37,1.56,0,.93-.73,1.6-2.08,1.6a3.25,3.25,0,0,1-1.55-.36Z"/><path class="cls-2" d="M304.33,192.77a.72.72,0,1,1-.72-.7A.69.69,0,0,1,304.33,192.77ZM303,199.31V194.2h1.3v5.11Z"/><path class="cls-2" d="M305.65,195.72c0-.58,0-1.08,0-1.52h1.13l.06.77h0a1.85,1.85,0,0,1,1.63-.88c.89,0,1.82.57,1.82,2.19v3H309v-2.88c0-.74-.28-1.29-1-1.29a1.08,1.08,0,0,0-1,.75,1.38,1.38,0,0,0-.05.42v3h-1.3Z"/><path class="cls-2" d="M316.32,194.2c0,.35,0,.77,0,1.47v2.9a2.46,2.46,0,0,1-2.73,2.94,3.63,3.63,0,0,1-1.78-.41l.28-1a3.08,3.08,0,0,0,1.49.39A1.36,1.36,0,0,0,315,199v-.44h0a1.72,1.72,0,0,1-1.49.75,2.27,2.27,0,0,1-2.17-2.5,2.44,2.44,0,0,1,2.32-2.69,1.61,1.61,0,0,1,1.48.79h0l.05-.68ZM315,196.25a1.34,1.34,0,0,0,0-.35,1.08,1.08,0,0,0-1.05-.83c-.73,0-1.26.63-1.26,1.67,0,.87.44,1.58,1.25,1.58a1.11,1.11,0,0,0,1.05-.78,2.4,2.4,0,0,0,.05-.46Z"/><path class="cls-2" d="M322.72,199.31l-.09-.56h0a1.89,1.89,0,0,1-1.51.68,1.51,1.51,0,0,1-1.6-1.52c0-1.29,1.14-1.95,3-1.93v-.09c0-.33-.14-.89-1-.89a2.69,2.69,0,0,0-1.37.38l-.26-.84a3.7,3.7,0,0,1,1.85-.45,1.91,1.91,0,0,1,2.11,2.15v1.85a8.45,8.45,0,0,0,.07,1.22Zm-.17-2.49c-.91,0-1.78.17-1.78,1a.68.68,0,0,0,.73.74,1,1,0,0,0,1-.71,1,1,0,0,0,0-.28Z"/><path class="cls-2" d="M325.18,195.72c0-.58,0-1.08-.05-1.52h1.14l.06.77h0a1.85,1.85,0,0,1,1.63-.88c.89,0,1.82.57,1.82,2.19v3h-1.3v-2.88c0-.74-.27-1.29-1-1.29a1.08,1.08,0,0,0-1,.75,1.38,1.38,0,0,0,0,.42v3h-1.3Z"/><path class="cls-2" d="M335.9,191.86v6c0,.52,0,1.09,0,1.43h-1.16l0-.8h0a1.84,1.84,0,0,1-1.67.92,2.34,2.34,0,0,1-2.18-2.61,2.43,2.43,0,0,1,2.29-2.73,1.61,1.61,0,0,1,1.43.67h0v-2.9Zm-1.3,4.47a1.84,1.84,0,0,0,0-.33,1.12,1.12,0,0,0-1.11-.92c-.83,0-1.29.74-1.29,1.69s.46,1.62,1.28,1.62a1.14,1.14,0,0,0,1.11-.91,1.53,1.53,0,0,0,0-.38Z"/><path class="cls-2" d="M266.85,206.85c0-.69,0-1.19,0-1.65h1.12l0,1h0a1.51,1.51,0,0,1,1.39-1.09,1.48,1.48,0,0,1,.31,0v1.21a1.92,1.92,0,0,0-.38,0,1.15,1.15,0,0,0-1.16,1,2.25,2.25,0,0,0,0,.4v2.64h-1.29Z"/><path class="cls-2" d="M271.5,208.12a1.39,1.39,0,0,0,1.58,1.32,3.78,3.78,0,0,0,1.41-.23l.19.89a4.76,4.76,0,0,1-1.78.32,2.42,2.42,0,0,1-2.64-2.58,2.53,2.53,0,0,1,2.5-2.75,2.22,2.22,0,0,1,2.21,2.48,3.12,3.12,0,0,1-.05.55Zm2.25-.9a1.1,1.1,0,0,0-1.06-1.25,1.26,1.26,0,0,0-1.19,1.25Z"/><path class="cls-2" d="M280.72,202.86v6c0,.52,0,1.09,0,1.43h-1.15l-.06-.8h0a1.84,1.84,0,0,1-1.67.92,2.34,2.34,0,0,1-2.18-2.61,2.43,2.43,0,0,1,2.29-2.73,1.63,1.63,0,0,1,1.44.67h0v-2.9Zm-1.29,4.47a1.84,1.84,0,0,0,0-.33,1.14,1.14,0,0,0-1.12-.92c-.82,0-1.29.74-1.29,1.69s.47,1.62,1.28,1.62a1.15,1.15,0,0,0,1.12-.91,1.53,1.53,0,0,0,0-.38Z"/><path class="cls-2" d="M283.48,203.77a.73.73,0,0,1-1.45,0,.7.7,0,0,1,.73-.7A.69.69,0,0,1,283.48,203.77Zm-1.37,6.54V205.2h1.3v5.11Z"/><path class="cls-2" d="M284.73,209.13a2.88,2.88,0,0,0,1.31.37c.57,0,.82-.24.82-.57s-.21-.53-.84-.75c-1-.34-1.41-.89-1.4-1.49,0-.9.74-1.6,1.93-1.6a3,3,0,0,1,1.35.3l-.25.91a2.37,2.37,0,0,0-1.08-.29c-.46,0-.72.22-.72.53s.25.49.9.72c.92.33,1.35.81,1.36,1.56,0,.93-.72,1.6-2.08,1.6a3.28,3.28,0,0,1-1.55-.36Z"/><path class="cls-2" d="M290.65,203.74v1.46h1.23v1h-1.23v2.25c0,.62.17,1,.66,1a2,2,0,0,0,.51-.06l0,1a2.69,2.69,0,0,1-.94.13,1.5,1.5,0,0,1-1.11-.42,2.05,2.05,0,0,1-.4-1.43v-2.4h-.73v-1h.73v-1.15Z"/><path class="cls-2" d="M292.86,206.85c0-.69,0-1.19,0-1.65h1.12l0,1h0a1.52,1.52,0,0,1,1.4-1.09,1.32,1.32,0,0,1,.3,0v1.21a1.82,1.82,0,0,0-.37,0,1.15,1.15,0,0,0-1.16,1,2.25,2.25,0,0,0,0,.4v2.64h-1.29Z"/><path class="cls-2" d="M298,203.77a.73.73,0,0,1-1.45,0,.7.7,0,0,1,.73-.7A.69.69,0,0,1,298,203.77Zm-1.37,6.54V205.2h1.3v5.11Z"/><path class="cls-2" d="M299.24,210.31c0-.34,0-.91,0-1.43v-6h1.3v3h0a1.84,1.84,0,0,1,1.63-.81c1.25,0,2.15,1,2.14,2.59a2.45,2.45,0,0,1-2.33,2.75,1.75,1.75,0,0,1-1.61-.88h0l-.07.76Zm1.34-2.11a1.55,1.55,0,0,0,0,.31,1.18,1.18,0,0,0,1.14.9c.81,0,1.3-.65,1.3-1.68s-.43-1.64-1.29-1.64a1.2,1.2,0,0,0-1.14.95,1.59,1.59,0,0,0,0,.34Z"/><path class="cls-2" d="M310,208.78c0,.61,0,1.11,0,1.53h-1.13l-.06-.77h0a1.87,1.87,0,0,1-1.64.89c-.93,0-1.78-.56-1.78-2.23v-3h1.29V208c0,.85.27,1.4.95,1.4a1.1,1.1,0,0,0,1-.69,1.29,1.29,0,0,0,.07-.4V205.2H310Z"/><path class="cls-2" d="M312.88,203.74v1.46h1.23v1h-1.23v2.25c0,.62.17,1,.66,1a2.09,2.09,0,0,0,.51-.06l0,1a2.69,2.69,0,0,1-.94.13A1.5,1.5,0,0,1,312,210a2.05,2.05,0,0,1-.4-1.43v-2.4h-.73v-1h.73v-1.15Z"/><path class="cls-2" d="M316.46,203.77a.73.73,0,0,1-1.45,0,.7.7,0,0,1,.73-.7A.69.69,0,0,1,316.46,203.77Zm-1.37,6.54V205.2h1.3v5.11Z"/><path class="cls-2" d="M322.63,207.71a2.53,2.53,0,0,1-2.62,2.72,2.47,2.47,0,0,1-2.56-2.64,2.52,2.52,0,0,1,2.64-2.7A2.45,2.45,0,0,1,322.63,207.71Zm-3.85,0c0,1,.48,1.74,1.27,1.74s1.25-.73,1.25-1.76c0-.8-.36-1.71-1.24-1.71S318.78,206.91,318.78,207.76Z"/><path class="cls-2" d="M323.7,206.72c0-.58,0-1.08-.05-1.52h1.14l.06.77h0a1.85,1.85,0,0,1,1.63-.88c.89,0,1.82.57,1.82,2.19v3H327v-2.88c0-.74-.27-1.29-1-1.29a1.08,1.08,0,0,0-1,.75,1.38,1.38,0,0,0-.05.42v3h-1.3Z"/><path class="cls-2" d="M142.25,83.1a4.41,4.41,0,0,1-1.83.32,3.34,3.34,0,0,1-3.61-3.56,3.56,3.56,0,0,1,3.78-3.74,4,4,0,0,1,1.72.32l-.28,1a3.41,3.41,0,0,0-1.39-.28,2.36,2.36,0,0,0-2.47,2.61,2.32,2.32,0,0,0,2.46,2.55,3.77,3.77,0,0,0,1.41-.26Z"/><path class="cls-2" d="M148.16,80.71a2.53,2.53,0,0,1-2.62,2.72A2.47,2.47,0,0,1,143,80.79a2.52,2.52,0,0,1,2.64-2.7A2.45,2.45,0,0,1,148.16,80.71Zm-3.85.05c0,1,.48,1.74,1.27,1.74s1.25-.73,1.25-1.76c0-.8-.36-1.71-1.24-1.71S144.31,79.91,144.31,80.76Z"/><path class="cls-2" d="M149.22,79.72c0-.58,0-1.08,0-1.52h1.13l.07.77h0a1.85,1.85,0,0,1,1.63-.88c.89,0,1.81.57,1.81,2.19v3h-1.29V80.43c0-.74-.27-1.29-1-1.29a1.06,1.06,0,0,0-1,.75,1.37,1.37,0,0,0-.06.42v3h-1.3Z"/><path class="cls-2" d="M156.71,76.74V78.2h1.23v1h-1.23v2.25c0,.62.17,1,.66,1a1.93,1.93,0,0,0,.5-.06l0,1a2.59,2.59,0,0,1-.93.13,1.5,1.5,0,0,1-1.11-.42,2.05,2.05,0,0,1-.4-1.43v-2.4h-.74v-1h.74V77.05Z"/><path class="cls-2" d="M159.83,81.12a1.38,1.38,0,0,0,1.57,1.32,3.8,3.8,0,0,0,1.42-.23l.19.89a4.78,4.78,0,0,1-1.79.32,2.41,2.41,0,0,1-2.63-2.58,2.53,2.53,0,0,1,2.5-2.75,2.21,2.21,0,0,1,2.2,2.48,3.35,3.35,0,0,1,0,.55Zm2.24-.9A1.09,1.09,0,0,0,161,79a1.26,1.26,0,0,0-1.18,1.25Z"/><path class="cls-2" d="M164.33,79.72c0-.58,0-1.08,0-1.52h1.13l.07.77h0a1.83,1.83,0,0,1,1.63-.88c.89,0,1.81.57,1.81,2.19v3h-1.29V80.43c0-.74-.27-1.29-1-1.29a1.06,1.06,0,0,0-1,.75,1.12,1.12,0,0,0-.06.42v3h-1.3Z"/><path class="cls-2" d="M171.82,76.74V78.2h1.23v1h-1.23v2.25c0,.62.17,1,.66,1a1.93,1.93,0,0,0,.5-.06l0,1a2.59,2.59,0,0,1-.93.13A1.5,1.5,0,0,1,171,83a2,2,0,0,1-.4-1.43v-2.4h-.74v-1h.74V77.05Z"/><path class="cls-2" d="M180,83.16a3.9,3.9,0,0,1-1.45.26,2.46,2.46,0,0,1-2.64-2.6,2.64,2.64,0,0,1,2.85-2.73,3.11,3.11,0,0,1,1.24.24l-.23,1a2.32,2.32,0,0,0-1-.2,1.66,1.66,0,0,0,0,3.31,2.48,2.48,0,0,0,1-.2Z"/><path class="cls-2" d="M185.49,81.78c0,.61,0,1.11,0,1.53H184.4l-.07-.77h0a1.86,1.86,0,0,1-1.64.89c-.93,0-1.78-.56-1.78-2.23v-3h1.29V81c0,.85.27,1.4,1,1.4a1.08,1.08,0,0,0,1-.69,1.06,1.06,0,0,0,.08-.4V78.2h1.29Z"/><path class="cls-2" d="M186.88,79.85c0-.69,0-1.19,0-1.65H188l0,1h0a1.51,1.51,0,0,1,1.4-1.09,1.39,1.39,0,0,1,.3,0v1.21a1.84,1.84,0,0,0-.38,0,1.13,1.13,0,0,0-1.15,1,2.25,2.25,0,0,0,0,.4v2.64h-1.3Z"/><path class="cls-2" d="M193.5,83.31l-.08-.56h0a1.89,1.89,0,0,1-1.51.68,1.51,1.51,0,0,1-1.6-1.52c0-1.29,1.14-2,3-1.93v-.09c0-.33-.14-.89-1-.89a2.69,2.69,0,0,0-1.37.38l-.26-.84a3.7,3.7,0,0,1,1.85-.45,1.91,1.91,0,0,1,2.11,2.15v1.85a7.11,7.11,0,0,0,.08,1.22Zm-.17-2.49c-.91,0-1.78.17-1.78,1a.68.68,0,0,0,.73.74,1,1,0,0,0,1-.71,1,1,0,0,0,0-.28Z"/><path class="cls-2" d="M197.44,76.74V78.2h1.23v1h-1.23v2.25c0,.62.17,1,.66,1a1.93,1.93,0,0,0,.5-.06l0,1a2.63,2.63,0,0,1-.93.13,1.5,1.5,0,0,1-1.11-.42,2,2,0,0,1-.4-1.43v-2.4h-.74v-1h.74V77.05Z"/><path class="cls-2" d="M201,76.77a.69.69,0,0,1-.74.7.68.68,0,0,1-.71-.7.69.69,0,0,1,.72-.7A.7.7,0,0,1,201,76.77Zm-1.38,6.54V78.2h1.3v5.11Z"/><path class="cls-2" d="M207.19,80.71a2.53,2.53,0,0,1-2.62,2.72A2.48,2.48,0,0,1,202,80.79a2.53,2.53,0,0,1,2.65-2.7A2.45,2.45,0,0,1,207.19,80.71Zm-3.85.05c0,1,.48,1.74,1.27,1.74s1.25-.73,1.25-1.76c0-.8-.36-1.71-1.24-1.71S203.34,79.91,203.34,80.76Z"/><path class="cls-2" d="M208.25,79.72c0-.58,0-1.08,0-1.52h1.13l.07.77h0a1.85,1.85,0,0,1,1.63-.88c.89,0,1.81.57,1.81,2.19v3h-1.29V80.43c0-.74-.27-1.29-1-1.29a1.06,1.06,0,0,0-1,.75,1.12,1.12,0,0,0-.06.42v3h-1.3Z"/><rect class="cls-1" x="122" y="122.5" width="106" height="106" rx="53" ry="53"/><path class="cls-2" d="M137.33,196.32h-2v-1.08h5.34v1.08h-2v6h-1.29Z"/><path class="cls-2" d="M141.43,198.85c0-.69,0-1.19,0-1.65h1.12l.05,1h0a1.51,1.51,0,0,1,1.39-1.09,1.48,1.48,0,0,1,.31,0v1.21a1.92,1.92,0,0,0-.38,0,1.13,1.13,0,0,0-1.15,1,1.56,1.56,0,0,0-.05.4v2.64h-1.29Z"/><path class="cls-2" d="M148.05,202.31l-.09-.56h0a1.89,1.89,0,0,1-1.51.68,1.52,1.52,0,0,1-1.61-1.52c0-1.29,1.15-1.95,3-1.93v-.09c0-.33-.14-.89-1-.89a2.72,2.72,0,0,0-1.38.38l-.25-.84a3.7,3.7,0,0,1,1.85-.45,1.91,1.91,0,0,1,2.11,2.15v1.85a8.45,8.45,0,0,0,.07,1.22Zm-.17-2.49c-.92,0-1.79.17-1.79,1a.69.69,0,0,0,.74.74,1.06,1.06,0,0,0,1-.71,1,1,0,0,0,0-.28Z"/><path class="cls-2" d="M150.5,198.72c0-.58,0-1.08,0-1.52h1.14l.06.77h0a1.85,1.85,0,0,1,1.63-.88c.89,0,1.81.57,1.81,2.19v3h-1.29v-2.88c0-.74-.27-1.29-1-1.29a1.07,1.07,0,0,0-1,.75,1.38,1.38,0,0,0-.05.42v3H150.5Z"/><path class="cls-2" d="M156.45,201.13a2.85,2.85,0,0,0,1.31.37c.57,0,.82-.24.82-.57s-.21-.53-.84-.75c-1-.34-1.42-.89-1.41-1.49a1.71,1.71,0,0,1,1.93-1.6,3,3,0,0,1,1.36.3l-.25.91a2.42,2.42,0,0,0-1.09-.29c-.46,0-.71.22-.71.53s.24.49.89.72c.93.33,1.36.81,1.37,1.56,0,.93-.73,1.6-2.08,1.6a3.25,3.25,0,0,1-1.55-.36Z"/><path class="cls-2" d="M160.89,198.72c0-.58,0-1.08,0-1.52H162l0,.76h0a1.77,1.77,0,0,1,1.58-.87A1.48,1.48,0,0,1,165,198h0a1.84,1.84,0,0,1,.63-.64,1.67,1.67,0,0,1,1-.3c.85,0,1.72.57,1.72,2.21v3h-1.26v-2.82c0-.85-.3-1.35-.92-1.35a1,1,0,0,0-.9.68,1.86,1.86,0,0,0-.06.43v3.06H164v-3c0-.71-.29-1.21-.88-1.21a1,1,0,0,0-.93.73,1.16,1.16,0,0,0-.07.42v3h-1.26Z"/><path class="cls-2" d="M171.17,195.77a.69.69,0,0,1-.74.7.68.68,0,0,1-.71-.7.69.69,0,0,1,.72-.7A.7.7,0,0,1,171.17,195.77Zm-1.38,6.54V197.2h1.3v5.11Z"/><path class="cls-2" d="M172.42,201.13a2.85,2.85,0,0,0,1.31.37c.57,0,.82-.24.82-.57s-.21-.53-.84-.75c-1-.34-1.42-.89-1.41-1.49a1.71,1.71,0,0,1,1.93-1.6,3,3,0,0,1,1.36.3l-.25.91a2.38,2.38,0,0,0-1.09-.29c-.46,0-.71.22-.71.53s.24.49.89.72c.93.33,1.36.81,1.37,1.56,0,.93-.73,1.6-2.08,1.6a3.25,3.25,0,0,1-1.55-.36Z"/><path class="cls-2" d="M176.8,201.13a2.85,2.85,0,0,0,1.31.37c.56,0,.82-.24.82-.57s-.21-.53-.84-.75c-1-.34-1.42-.89-1.41-1.49a1.71,1.71,0,0,1,1.93-1.6,3,3,0,0,1,1.36.3l-.26.91a2.37,2.37,0,0,0-1.08-.29c-.46,0-.71.22-.71.53s.24.49.89.72c.93.33,1.36.81,1.37,1.56,0,.93-.73,1.6-2.08,1.6a3.33,3.33,0,0,1-1.56-.36Z"/><path class="cls-2" d="M182.61,195.77a.73.73,0,0,1-1.45,0,.7.7,0,0,1,.73-.7A.69.69,0,0,1,182.61,195.77Zm-1.37,6.54V197.2h1.3v5.11Z"/><path class="cls-2" d="M188.79,199.71a2.54,2.54,0,0,1-2.63,2.72,2.47,2.47,0,0,1-2.56-2.64,2.52,2.52,0,0,1,2.65-2.7A2.45,2.45,0,0,1,188.79,199.71Zm-3.86,0c0,1,.49,1.74,1.27,1.74s1.25-.73,1.25-1.76c0-.8-.35-1.71-1.24-1.71S184.93,198.91,184.93,199.76Z"/><path class="cls-2" d="M189.85,198.72c0-.58,0-1.08,0-1.52h1.14l.06.77h0a1.85,1.85,0,0,1,1.63-.88c.89,0,1.82.57,1.82,2.19v3h-1.29v-2.88c0-.74-.28-1.29-1-1.29a1.08,1.08,0,0,0-1,.75,1.38,1.38,0,0,0,0,.42v3h-1.3Z"/><path class="cls-2" d="M200.9,202.31l-.08-.56h0a1.9,1.9,0,0,1-1.51.68,1.52,1.52,0,0,1-1.61-1.52c0-1.29,1.14-1.95,3-1.93v-.09c0-.33-.13-.89-1-.89a2.69,2.69,0,0,0-1.37.38l-.25-.84a3.66,3.66,0,0,1,1.84-.45,1.91,1.91,0,0,1,2.11,2.15v1.85a8.29,8.29,0,0,0,.08,1.22Zm-.17-2.49c-.91,0-1.78.17-1.78,1a.68.68,0,0,0,.73.74,1,1,0,0,0,1-.71,1,1,0,0,0,0-.28Z"/><path class="cls-2" d="M203.36,198.72c0-.58,0-1.08,0-1.52h1.13l.06.77h0a1.83,1.83,0,0,1,1.62-.88c.9,0,1.82.57,1.82,2.19v3H206.7v-2.88c0-.74-.27-1.29-1-1.29a1.09,1.09,0,0,0-1,.75,1.38,1.38,0,0,0-.05.42v3h-1.3Z"/><path class="cls-2" d="M214.08,194.86v6c0,.52,0,1.09,0,1.43H213l-.06-.8h0a1.84,1.84,0,0,1-1.67.92,2.34,2.34,0,0,1-2.18-2.61,2.43,2.43,0,0,1,2.29-2.73,1.63,1.63,0,0,1,1.44.67h0v-2.9Zm-1.29,4.47a1.84,1.84,0,0,0,0-.33,1.14,1.14,0,0,0-1.12-.92c-.83,0-1.29.74-1.29,1.69s.46,1.62,1.28,1.62a1.15,1.15,0,0,0,1.12-.91,1.53,1.53,0,0,0,0-.38Z"/><path class="cls-2" d="M153.56,205.86v6c0,.52,0,1.09,0,1.43h-1.15l-.06-.8h0a1.84,1.84,0,0,1-1.67.92,2.34,2.34,0,0,1-2.18-2.61,2.43,2.43,0,0,1,2.29-2.73,1.63,1.63,0,0,1,1.44.67h0v-2.9Zm-1.29,4.47a1.84,1.84,0,0,0,0-.33,1.14,1.14,0,0,0-1.12-.92c-.83,0-1.29.74-1.29,1.69s.46,1.62,1.28,1.62a1.15,1.15,0,0,0,1.12-.91,1.53,1.53,0,0,0,0-.38Z"/><path class="cls-2" d="M156.32,206.77a.73.73,0,0,1-1.45,0,.7.7,0,0,1,.73-.7A.69.69,0,0,1,156.32,206.77ZM155,213.31V208.2h1.3v5.11Z"/><path class="cls-2" d="M157.57,212.13a2.85,2.85,0,0,0,1.31.37c.57,0,.82-.24.82-.57s-.21-.53-.84-.75c-1-.34-1.42-.89-1.4-1.49,0-.9.74-1.6,1.93-1.6a3,3,0,0,1,1.35.3l-.25.91a2.37,2.37,0,0,0-1.08-.29c-.46,0-.72.22-.72.53s.25.49.9.72c.92.33,1.35.81,1.36,1.56,0,.93-.72,1.6-2.08,1.6a3.28,3.28,0,0,1-1.55-.36Z"/><path class="cls-2" d="M163.49,206.74v1.46h1.23v1h-1.23v2.25c0,.62.17,1,.66,1a2.09,2.09,0,0,0,.51-.06l0,1a2.69,2.69,0,0,1-.94.13,1.5,1.5,0,0,1-1.11-.42,2.05,2.05,0,0,1-.4-1.43v-2.4h-.73v-1h.73v-1.15Z"/><path class="cls-2" d="M165.7,209.85c0-.69,0-1.19,0-1.65h1.12l0,1h0a1.51,1.51,0,0,1,1.4-1.09,1.39,1.39,0,0,1,.3,0v1.21a1.82,1.82,0,0,0-.37,0,1.15,1.15,0,0,0-1.16,1,2.25,2.25,0,0,0,0,.4v2.64H165.7Z"/><path class="cls-2" d="M170.81,206.77a.73.73,0,0,1-1.45,0,.7.7,0,0,1,.73-.7A.69.69,0,0,1,170.81,206.77Zm-1.37,6.54V208.2h1.3v5.11Z"/><path class="cls-2" d="M172.08,213.31c0-.34,0-.91,0-1.43v-6h1.29v3h0a1.84,1.84,0,0,1,1.63-.81c1.25,0,2.14,1,2.13,2.59a2.44,2.44,0,0,1-2.32,2.75,1.74,1.74,0,0,1-1.61-.88h0l-.07.76Zm1.33-2.11a1.06,1.06,0,0,0,0,.31,1.18,1.18,0,0,0,1.14.9c.81,0,1.3-.65,1.3-1.68s-.43-1.64-1.29-1.64a1.2,1.2,0,0,0-1.14.95,1.53,1.53,0,0,0-.05.34Z"/><path class="cls-2" d="M182.84,211.78c0,.61,0,1.11,0,1.53h-1.13l-.06-.77h0a1.87,1.87,0,0,1-1.64.89c-.94,0-1.79-.56-1.79-2.23v-3h1.3V211c0,.85.27,1.4,1,1.4a1.1,1.1,0,0,0,1-.69,1.29,1.29,0,0,0,.07-.4V208.2h1.29Z"/><path class="cls-2" d="M185.72,206.74v1.46H187v1h-1.23v2.25c0,.62.17,1,.66,1a1.93,1.93,0,0,0,.5-.06l0,1a2.69,2.69,0,0,1-.94.13,1.5,1.5,0,0,1-1.11-.42,2.05,2.05,0,0,1-.4-1.43v-2.4h-.73v-1h.73v-1.15Z"/><path class="cls-2" d="M189.3,206.77a.73.73,0,0,1-1.45,0,.7.7,0,0,1,.73-.7A.69.69,0,0,1,189.3,206.77Zm-1.37,6.54V208.2h1.3v5.11Z"/><path class="cls-2" d="M195.47,210.71a2.53,2.53,0,0,1-2.62,2.72,2.47,2.47,0,0,1-2.56-2.64,2.52,2.52,0,0,1,2.64-2.7A2.45,2.45,0,0,1,195.47,210.71Zm-3.85,0c0,1,.48,1.74,1.27,1.74s1.25-.73,1.25-1.76c0-.8-.36-1.71-1.24-1.71S191.62,209.91,191.62,210.76Z"/><path class="cls-2" d="M196.54,209.72c0-.58,0-1.08,0-1.52h1.14l.06.77h0a1.85,1.85,0,0,1,1.63-.88c.89,0,1.82.57,1.82,2.19v3h-1.3v-2.88c0-.74-.27-1.29-1-1.29a1.08,1.08,0,0,0-1,.75,1.38,1.38,0,0,0,0,.42v3h-1.3Z"/><path class="cls-2" d="M162.13,69.22a5.25,5.25,0,0,0-.53-.4L155,65l7.28-4.19v3.27h2.34c0-1,0-1.94,0-2.91q.06-4.95.13-9.9a8.51,8.51,0,0,1,1.74-4.75,14.68,14.68,0,0,1,6-5l.65-.3-.52-.27a14,14,0,0,1-7.32-7.21,11.26,11.26,0,0,1-.61-4.49c-.06-3.39-.09-6.77-.13-10.15,0-.15,0-.29-.05-.51h-4.15V16.78H195v1.88c-.23,0-.45-.06-.68-.06H167.11c-.23,0-.45,0-.62,0v12h22.35l.1-1.78c-2.77-1.34-3.77-3-3.23-5.29a4.32,4.32,0,0,1,8.39,0c.53,2.33-.5,4-3.38,5.33.3,6.21-3.35,9.74-8.51,12.27l.6.28a14.41,14.41,0,0,1,6,4.91,8.47,8.47,0,0,1,1.79,4.6c.1,3.2.11,6.39.14,9.59,0,1.16,0,2.32,0,3.53H195V66c-.23,0-.45-.06-.68-.06H162.26v3.33Zm14.75-10.57V42.11a13.27,13.27,0,0,0-9,5.53,6.78,6.78,0,0,0-1.38,3.89c0,3.2-.09,6.4-.14,9.59,0,.49,0,1,0,1.57A20.44,20.44,0,0,1,176.88,58.65Zm1.92-16.48c0,.22,0,.41,0,.59V58c0,.32-.09.65.45.69A18.09,18.09,0,0,1,188.27,62c.2.14.4.26.69.44V61.9c0-2.82-.06-5.64-.12-8.46a14.5,14.5,0,0,0-.2-3.17C187.64,46.22,183.26,42.66,178.8,42.17ZM166.86,32.5a2.49,2.49,0,0,0,0,.31c.1.26.2.51.31.76a10.63,10.63,0,0,0,3.14,3.92c2.79,2.18,5.88,3.4,9.44,2.47a12.39,12.39,0,0,0,8.34-6.47,9.29,9.29,0,0,0,.39-1Zm.77,31.56h20.28C181.91,59.27,174.1,59.11,167.63,64.06Zm22.27-37a2.5,2.5,0,0,0,0-5,2.51,2.51,0,0,0-2.52,2.49A2.48,2.48,0,0,0,189.9,27.07Z"/><path class="cls-2" d="M79,160.06H76.16a22.9,22.9,0,0,1-2.39,7.84,3.3,3.3,0,0,1,1,3,3.21,3.21,0,0,1-4.25,2.49.85.85,0,0,0-1,.25,21.07,21.07,0,0,1-5,3.61l-.36.15L63.34,176c.16-.09.3-.19.44-.26a20,20,0,0,0,4.62-3.38.72.72,0,0,0,.17-.62,3.29,3.29,0,0,1,3.71-4.63,18,18,0,0,0,2.16-7H71.5l3.74-6.47.29.44,3.13,5.42c.1.16.23.3.34.45Zm-5.82,10.23a1.66,1.66,0,0,0-3.31,0A1.72,1.72,0,0,0,71.54,172,1.7,1.7,0,0,0,73.18,170.29Z"/><path class="cls-2" d="M29,155.52h3a22.66,22.66,0,0,1,2.4-8.14,3.27,3.27,0,0,1,3.4-5.52.6.6,0,0,0,.83-.15,21.75,21.75,0,0,1,5-3.68c.17-.09.34-.15.54-.24l.71,1.4c-.15.09-.28.18-.4.24a21.17,21.17,0,0,0-4.78,3.47.69.69,0,0,0-.22.84,3.26,3.26,0,0,1-3.19,4.37.79.79,0,0,0-.59.27,19.78,19.78,0,0,0-2,6.67c0,.13,0,.27,0,.47h2.77L32.75,162Zm7.49-9.05a1.64,1.64,0,1,0-1.68-1.64A1.67,1.67,0,0,0,36.49,146.47Z"/><path class="cls-2" d="M55.9,132.5v3a22.09,22.09,0,0,1,18,12.19l-1.44.74a20.52,20.52,0,0,0-10.29-9.71,19,19,0,0,0-6.31-1.56V140l-6.5-3.76Z"/><path class="cls-2" d="M51.55,182.73c0-.95,0-1.76,0-2.56,0-.43-.15-.55-.56-.61-7.56-1.16-13-5.22-16.74-11.94l1.46-.76A20.66,20.66,0,0,0,51.53,178v-2.81L58.05,179Z"/><path class="cls-2" d="M166,185.5l8-34.9a3.23,3.23,0,0,1-2.21-2.17,4.61,4.61,0,0,1,0-2.09,3.26,3.26,0,0,1,3.3-2.31,3.4,3.4,0,0,1,3.21,2.46c.44,1.67-.24,2.94-2.24,4.13q4,17.4,8,34.88Zm13.35-10.27-8.14-4.9-2.87,12.49Zm1,1.34-10.61,7.31H182Zm-8.23-7.63,7.51,4.52-2-8.84Zm-.09-2.09c.27-.19.42-.29.57-.41,1.36-1.07,2.71-2.17,4.09-3.22a.84.84,0,0,0,.37-1c-.63-2.62-1.23-5.25-1.84-7.87,0-.16-.09-.31-.17-.6Zm3-17.78a1.71,1.71,0,0,0,1.78-1.71,1.76,1.76,0,0,0-3.52,0A1.72,1.72,0,0,0,175,149.07Z"/><path class="cls-2" d="M168.62,135.52l.65,1.47a11.31,11.31,0,0,0-6,6.14h2.33c-.79,1.36-1.46,2.67-2.29,3.86a3.25,3.25,0,0,0-.36,3.1,11,11,0,0,0,5.63,6.73l.67.34-.66,1.49a12.58,12.58,0,0,1-5-3.8A12.28,12.28,0,0,1,161,149a3.11,3.11,0,0,0-.36-1c-.92-1.6-1.86-3.19-2.86-4.89,1.11,0,2.12,0,3.12,0a.7.7,0,0,0,.79-.54A12.54,12.54,0,0,1,168.62,135.52Z"/><path class="cls-2" d="M180.75,137l.66-1.49a11.56,11.56,0,0,1,4.94,3.76,27.18,27.18,0,0,1,2,3.43c.5.93.88,1.92,1.39,2.85.76,1.39,1.6,2.75,2.46,4.22h-3.31a12.92,12.92,0,0,1-7.46,8.91l-.68-1.5a11.22,11.22,0,0,0,6.38-7.38h-2.69c.13-.24.21-.41.3-.56.76-1.3,1.54-2.59,2.27-3.9a1.36,1.36,0,0,0,.13-.86,10.87,10.87,0,0,0-5.81-7.19Z"/><path class="cls-2" d="M179.07,141.24l.63-1.42c2.33.52,4.68,3.68,4.88,6.54a7.88,7.88,0,0,1-4.86,8l-.65-1.45a6.36,6.36,0,0,0,0-11.69Z"/><path class="cls-2" d="M170.31,139.79l.64,1.44a6.35,6.35,0,0,0,0,11.68l-.63,1.43c-2.63-.72-4.83-3.94-4.92-7.13A7.87,7.87,0,0,1,170.31,139.79Z"/><path class="cls-2" d="M301.28,137l4.42,7.75,2.86-1.62V158.2l-13.05-7.54,3.38-2L297.44,146l-3.95,7.21-1.7-.92L297.44,142l4.06,7.42-2.11,1.25,7.23,4.18v-8.35l-1.62.9-3.85-6.67c-.33-.58-.56-1.37-1.07-1.66s-1.3-.09-2-.09c-1,0-2,0-3,0a.72.72,0,0,0-.53.27c-1.85,3.17-3.68,6.35-5.55,9.6l3,1.76-7.69,4.44v-8.88l3,1.7c.42-.71.83-1.41,1.23-2.11l4.84-8.39a2.48,2.48,0,0,0,.17-.37Z"/><path class="cls-2" d="M322.5,173.83c-1.16,2-2.34,4-3.48,6.07a.91.91,0,0,1-.95.55c-2.72,0-5.44,0-8.23,0v3.42l-13.17-7.47,13.08-7.68c0,1.23,0,2.32,0,3.41,0,.43.13.57.55.56.79,0,1.58,0,2.47,0l-4.3-7,1.64-1c2.06,3.32,4.09,6.61,6.13,9.92h-8.39v-2.53l-7.3,4.28,7.29,4.15v-1.87c.32,0,.59,0,.87,0,2.78,0,5.56-.05,8.35-.05a.77.77,0,0,0,.76-.45c.72-1.3,1.47-2.58,2.18-3.88a.8.8,0,0,0,.08-.65c-1.8-3.11-3.62-6.2-5.47-9.36l-3,1.69V157l7.67,4.42-3,1.77,2.75,4.69,3.18,5.41c.08.14.19.25.28.38Z"/><path class="cls-2" d="M285.17,160.24l-7.26,4,1.62,1L277,169.61c-.73,1.22-1.47,2.44-2.17,3.67a.83.83,0,0,0,0,.69c.72,1.36,1.48,2.71,2.25,4,.09.15.29.34.44.34,3.31,0,6.62,0,10,0v-3.27l7.75,4.46-7.7,4.45v-3.6h-2.78c-2.75,0-5.49-.08-8.23-.09a.65.65,0,0,1-.65-.41c-1.07-2-2.14-3.92-3.24-5.86-.29-.5,0-.85.18-1.23l3.77-6.34.29-.51L274,164.25l13.19-7.38L287,172l-3.37-2-1.6,2.55h8.19v1.9H278.58l4.43-7.08,2.16,1.26Z"/><path class="cls-2" d="M293.58,163a3.88,3.88,0,1,1,3.87,3.88A3.88,3.88,0,0,1,293.58,163Zm3.87,2a2,2,0,1,0,0-3.9,2,2,0,0,0,0,3.9Z"/><path class="cls-2" d="M179.52,305.28V308l-6.08-3.47,6.07-3.46v2.71h8.12a3.64,3.64,0,0,0,3.8-3.8q0-15.32,0-30.63a3.68,3.68,0,0,0-3.85-3.84h-2.65v2.66H167.4v-2.66c-1.43.08-2.82-.24-4.16.26a3.53,3.53,0,0,0-2.33,2.78.5.5,0,0,0,.35.67,3,3,0,0,1,0,5.55.6.6,0,0,0-.42.65q0,12.21,0,24.41a3.7,3.7,0,0,0,4,3.95h4.63s.07,0,.15.06v1.43c-.38,0-.74,0-1.11,0a45.58,45.58,0,0,1-4.68-.09,5,5,0,0,1-4.46-5.18c0-4.46,0-8.92,0-13.38,0-3.72,0-7.43,0-11.15a.67.67,0,0,0-.48-.73,3,3,0,0,1,0-5.51.74.74,0,0,0,.52-.72,5.15,5.15,0,0,1,5.11-4.5h2.83v-2.63l.68,0h3.64a.47.47,0,0,0,.53-.39,4.12,4.12,0,0,1,7.91,0,.48.48,0,0,0,.57.42h4.26V264c.95,0,1.84,0,2.74,0a5,5,0,0,1,4.83,3.11,5.48,5.48,0,0,1,.43,2.16q0,15.38,0,30.74a5.17,5.17,0,0,1-5.24,5.25c-2.49,0-5,0-7.46,0Zm3.87-38.61v-3.8H168.92v3.8Zm-23.31,3.77a1.54,1.54,0,0,0-1.55,1.56,1.56,1.56,0,0,0,1.56,1.56,1.58,1.58,0,0,0,1.58-1.6A1.55,1.55,0,0,0,160.08,270.44Zm13.65-9.14h4.89a2.55,2.55,0,0,0-2.7-1.79A2.39,2.39,0,0,0,173.73,261.3Z"/><path class="cls-2" d="M187.84,274v1.4H176.2V274Z"/><path class="cls-2" d="M187.87,281v.85c0,.17,0,.35,0,.56H176.2V281Z"/><path class="cls-2" d="M187.87,289.09H176.2v-1.48h10.88c.79,0,.79,0,.79.78Z"/><path class="cls-2" d="M187.83,296.47H176.19V295h11.64Z"/><path class="cls-2" d="M167,291.76l-2.84-2.91,1-1.06,1.73,2,4.16-4.36,1,1.07Z"/><path class="cls-2" d="M171.17,292.87l.94,1L167,299.1l-2.79-2.94.88-.89,1.73,1.89Z"/><path class="cls-2" d="M171.21,272l.83.87-5.09,5.3-2.8-2.95,1-.91,1.76,1.92,4.16-4.41Z"/><path class="cls-2" d="M164.24,282.31l1-1,1.69,1.87,4.18-4.43,1,1.19L167,285.2Z"/></svg>