<svg xmlns="http://www.w3.org/2000/svg" width="350" height="350"><defs><style>.cls-1{fill:#d8e7da}.cls-2{fill:#a8d7cd}.cls-3{fill:#00b28f}.cls-4{fill:#fff}.cls-5,.cls-6{fill:none}.cls-5{stroke:#fff;stroke-miterlimit:10;stroke-width:1.4px}</style></defs><g id="Layer_3" data-name="Layer 3"><path class="cls-1" d="M342.91 175a167.63 167.63 0 0 1-66.22 133.63c-2 1.5-4 2.95-6 4.36a168 168 0 0 1-191.38 0c-2-1.41-4-2.87-6-4.37a168.22 168.22 0 0 1-59.17-182c.72-2.37 1.48-4.72 2.3-7A168 168 0 0 1 171.3 7.12h7.41a168 168 0 0 1 154.84 112.45q1.21 3.48 2.29 7a168 168 0 0 1 7.07 48.43z"/><path class="cls-2" d="M171.3 0v7.1A168 168 0 0 0 16.45 119.58l-6.74-2.19A175.08 175.08 0 0 1 171.3 0z"/><path class="cls-3" d="M171.3 7.12v117.34a50.48 50.48 0 0 0-43.21 31.38L16.45 119.58A168 168 0 0 1 171.3 7.12z"/><path class="cls-2" d="M340.29 117.37l-6.74 2.2A168 168 0 0 0 178.71 7.12V0a173.47 173.47 0 0 1 100.14 34.1 175.45 175.45 0 0 1 61.44 83.25z"/><path class="cls-3" d="M333.55 119.57l-111.63 36.27a50.51 50.51 0 0 0-43.21-31.38V7.12a168 168 0 0 1 154.84 112.45z"/><path class="cls-2" d="M73.32 308.63l-4.15 5.72A175.18 175.18 0 0 1 7.42 124.44l6.73 2.19a168.22 168.22 0 0 0 59.17 182z"/><path class="cls-3" d="M142.31 213.67l-69 95a168.22 168.22 0 0 1-59.17-182l111.66 36.22a50.75 50.75 0 0 0 16.51 50.78z"/><path class="cls-2" d="M274.85 318.71a175 175 0 0 1-199.69 0l4.16-5.71a168 168 0 0 0 191.38 0z"/><path class="cls-3" d="M270.7 313a168 168 0 0 1-191.38 0l69-95a50.68 50.68 0 0 0 53.39 0z"/><path class="cls-2" d="M350 175a174.69 174.69 0 0 1-69.16 139.36l-4.15-5.71a168.2 168.2 0 0 0 59.15-182l6.74-2.18A175.11 175.11 0 0 1 350 175z"/><path class="cls-3" d="M342.91 175a167.63 167.63 0 0 1-66.22 133.63l-69-95a50.67 50.67 0 0 0 16.51-50.78l111.64-36.27a168 168 0 0 1 7.07 48.42z"/><path class="cls-1" d="M238.16 175a63.06 63.06 0 0 1-24.91 50.26c-.74.56-1.49 1.11-2.26 1.64a63.15 63.15 0 0 1-72 0c-.76-.53-1.52-1.07-2.25-1.64a63.23 63.23 0 0 1-22.26-68.45c.27-.89.56-1.78.87-2.66a63.17 63.17 0 0 1 58.24-42.29h2.79a63.17 63.17 0 0 1 58.23 42.29c.31.88.6 1.76.86 2.65a62.89 62.89 0 0 1 2.69 18.2z"/></g><g id="Layer_4" data-name="Layer 4"><path class="cls-4" d="M224.07 107.83a7.34 7.34 0 0 1-2.47.44 4.11 4.11 0 0 1-3-1 3.81 3.81 0 0 1-1.07-2.82c0-2.42 1.73-4 4.27-4a5 5 0 0 1 2 .37l-.31 1.12a4.15 4.15 0 0 0-1.74-.33 2.57 2.57 0 0 0-2.78 2.75 2.54 2.54 0 0 0 2.66 2.78 2.74 2.74 0 0 0 1.06-.16v-1.91h-1.36V104h2.71zM226.51 105.81a1.49 1.49 0 0 0 1.7 1.43 4.16 4.16 0 0 0 1.54-.25l.2 1a5.3 5.3 0 0 1-1.93.34 2.61 2.61 0 0 1-2.85-2.8 2.74 2.74 0 0 1 2.7-3 2.41 2.41 0 0 1 2.39 2.7 3.69 3.69 0 0 1 0 .59zm2.43-1a1.19 1.19 0 0 0-1.15-1.35 1.36 1.36 0 0 0-1.28 1.35zM236.65 105.37a2.74 2.74 0 0 1-2.84 2.94 2.68 2.68 0 0 1-2.78-2.85 2.74 2.74 0 0 1 2.87-2.94 2.66 2.66 0 0 1 2.75 2.85zm-4.17 0c0 1.07.52 1.88 1.37 1.88s1.36-.79 1.36-1.9c0-.86-.39-1.85-1.34-1.85s-1.39 1-1.39 1.92zM240.46 104.67v1h-2.9v-1zM241.71 108.19v-4.49H241v-1h.75v-.24a2.59 2.59 0 0 1 .68-1.89 2.11 2.11 0 0 1 1.44-.53 2.74 2.74 0 0 1 .9.14l-.1 1.08a1.61 1.61 0 0 0-.6-.11c-.69 0-.93.58-.93 1.27v.28h1.22v1h-1.21v4.49zM246.05 105.81a1.5 1.5 0 0 0 1.7 1.43 4.16 4.16 0 0 0 1.54-.25l.2 1a5.26 5.26 0 0 1-1.93.34 2.61 2.61 0 0 1-2.85-2.8 2.74 2.74 0 0 1 2.7-3 2.41 2.41 0 0 1 2.39 2.7 2.79 2.79 0 0 1-.05.59zm2.43-1a1.19 1.19 0 0 0-1.15-1.35 1.36 1.36 0 0 0-1.28 1.35zM250.93 104.3c0-.64 0-1.17-.05-1.65h1.23l.07.83a2 2 0 0 1 1.77-1c1 0 2 .63 2 2.38v3.29h-1.4v-3.13c0-.8-.29-1.4-1-1.4a1.16 1.16 0 0 0-1.09.82 1.29 1.29 0 0 0-.06.45v3.26h-1.41zM261.5 108a4.13 4.13 0 0 1-1.56.28 2.66 2.66 0 0 1-2.86-2.82 2.87 2.87 0 0 1 3.08-3 3.49 3.49 0 0 1 1.36.27l-.25 1a2.54 2.54 0 0 0-1.06-.21 1.79 1.79 0 0 0 0 3.58 2.76 2.76 0 0 0 1.1-.22zM264 101.1a.79.79 0 0 1-1.57 0 .79.79 0 0 1 1.57 0zm-1.49 7.09v-5.54H264v5.54zM265.45 104.3v-1.65h1.23l.07.83a2 2 0 0 1 1.76-1c1 0 2 .63 2 2.38v3.29h-1.4v-3.13c0-.8-.3-1.4-1.06-1.4a1.18 1.18 0 0 0-1.09.82 1.58 1.58 0 0 0-.06.45v3.26h-1.41zM277 102.65v4.73a2.66 2.66 0 0 1-3 3.18 3.93 3.93 0 0 1-1.93-.44l.3-1.06a3.33 3.33 0 0 0 1.62.42 1.47 1.47 0 0 0 1.59-1.67v-.48a1.88 1.88 0 0 1-1.62.82 2.46 2.46 0 0 1-2.35-2.7 2.66 2.66 0 0 1 2.51-2.93 1.73 1.73 0 0 1 1.6.87l.05-.74zm-1.44 2.22a1.52 1.52 0 0 0-.05-.38 1.17 1.17 0 0 0-1.14-.9c-.78 0-1.36.68-1.36 1.81 0 .94.48 1.71 1.35 1.71a1.21 1.21 0 0 0 1.14-.85 2.63 2.63 0 0 0 .06-.5zM237.36 227.19v7.66H236v-7.66zM239 231v-1.64h1.2l.06.81a1.94 1.94 0 0 1 1.71-.94 1.59 1.59 0 0 1 1.53 1 2.27 2.27 0 0 1 .69-.69 1.81 1.81 0 0 1 1.11-.33c.92 0 1.85.63 1.85 2.4v3.26h-1.36v-3.06c0-.92-.32-1.46-1-1.46a1.07 1.07 0 0 0-1 .74 2.11 2.11 0 0 0-.07.46v3.32h-1.36v-3.2c0-.78-.31-1.32-1-1.32a1.08 1.08 0 0 0-1 .79 1.17 1.17 0 0 0-.08.46v3.27H239zM251.73 234.85l-.09-.61a2.06 2.06 0 0 1-1.64.76 1.65 1.65 0 0 1-1.74-1.65c0-1.4 1.24-2.1 3.29-2.09v-.09c0-.37-.15-1-1.13-1a2.92 2.92 0 0 0-1.49.41l-.27-.91a4 4 0 0 1 2-.49 2.07 2.07 0 0 1 2.28 2.33v2a9.88 9.88 0 0 0 .08 1.33zm-.18-2.7c-1 0-1.93.19-1.93 1a.73.73 0 0 0 .79.8 1.13 1.13 0 0 0 1.09-.77.82.82 0 0 0 .05-.3zM259.46 229.32V234a2.67 2.67 0 0 1-3 3.19 4 4 0 0 1-1.93-.44l.31-1.06a3.37 3.37 0 0 0 1.61.42 1.47 1.47 0 0 0 1.59-1.67V234a1.87 1.87 0 0 1-1.61.82 2.46 2.46 0 0 1-2.36-2.71 2.65 2.65 0 0 1 2.52-2.92 1.74 1.74 0 0 1 1.6.86l.06-.73zm-1.46 2.21a1.5 1.5 0 0 0 0-.37 1.17 1.17 0 0 0-1.14-.9c-.79 0-1.37.68-1.37 1.81 0 .94.48 1.7 1.36 1.7a1.19 1.19 0 0 0 1.13-.84 2.07 2.07 0 0 0 .06-.5zM261.9 232.48a1.51 1.51 0 0 0 1.71 1.43 4.11 4.11 0 0 0 1.53-.25l.21 1a5.32 5.32 0 0 1-1.94.34 2.62 2.62 0 0 1-2.85-2.8 2.74 2.74 0 0 1 2.71-3 2.41 2.41 0 0 1 2.38 2.7 4 4 0 0 1 0 .59zm2.43-1a1.18 1.18 0 0 0-1.14-1.35 1.37 1.37 0 0 0-1.29 1.35zM269.14 231.16c0-.73 0-1.32-.05-1.84h1.23l.07.85a2.15 2.15 0 0 1 1.9-1c1.27 0 2.33 1.09 2.33 2.82 0 2-1.26 3-2.52 3a1.82 1.82 0 0 1-1.56-.74v2.86h-1.4zm1.4 1.37a1.67 1.67 0 0 0 0 .39 1.27 1.27 0 0 0 1.23 1c.89 0 1.41-.74 1.41-1.83s-.48-1.78-1.38-1.78a1.3 1.3 0 0 0-1.25 1 1.41 1.41 0 0 0 0 .35zM275.79 231.1v-1.78H277l.05 1.05a1.66 1.66 0 0 1 1.52-1.18 1.19 1.19 0 0 1 .33 0v1.31a2.27 2.27 0 0 0-.41 0 1.23 1.23 0 0 0-1.25 1.06 1.81 1.81 0 0 0-.05.43v2.86h-1.4zM285 232a2.74 2.74 0 0 1-2.84 2.95 2.68 2.68 0 0 1-2.77-2.86 2.73 2.73 0 0 1 2.86-2.93A2.65 2.65 0 0 1 285 232zm-4.17.06c0 1.07.52 1.88 1.38 1.88s1.35-.79 1.35-1.9c0-.87-.39-1.86-1.34-1.86s-1.39.99-1.39 1.91zM290.22 234.68a3.9 3.9 0 0 1-1.56.29 2.67 2.67 0 0 1-2.86-2.82 2.87 2.87 0 0 1 3.08-3 3.5 3.5 0 0 1 1.36.26l-.24 1.09a2.51 2.51 0 0 0-1.06-.22 1.79 1.79 0 0 0 0 3.58 2.78 2.78 0 0 0 1.1-.21zM292.15 232.48a1.5 1.5 0 0 0 1.7 1.43 4.16 4.16 0 0 0 1.54-.25l.2 1a5.22 5.22 0 0 1-1.93.34 2.62 2.62 0 0 1-2.85-2.8 2.74 2.74 0 0 1 2.7-3 2.41 2.41 0 0 1 2.39 2.7 2.79 2.79 0 0 1 0 .59zm2.43-1a1.19 1.19 0 0 0-1.15-1.35 1.37 1.37 0 0 0-1.28 1.35zM297 233.57a3.16 3.16 0 0 0 1.42.4c.62 0 .89-.25.89-.62s-.23-.57-.91-.81c-1.08-.37-1.54-1-1.52-1.61a1.85 1.85 0 0 1 2.09-1.74 3.21 3.21 0 0 1 1.46.33l-.27 1a2.44 2.44 0 0 0-1.17-.32c-.5 0-.77.24-.77.58s.26.52 1 .77c1 .37 1.47.88 1.48 1.7 0 1-.78 1.73-2.25 1.73a3.53 3.53 0 0 1-1.68-.39zM301.7 233.57a3.21 3.21 0 0 0 1.43.4c.61 0 .88-.25.88-.62s-.23-.57-.91-.81c-1.08-.37-1.53-1-1.52-1.61a1.85 1.85 0 0 1 2.09-1.74 3.29 3.29 0 0 1 1.47.33l-.28 1a2.41 2.41 0 0 0-1.17-.32c-.5 0-.77.24-.77.58s.26.52 1 .77c1 .37 1.46.88 1.47 1.7 0 1-.78 1.73-2.25 1.73a3.53 3.53 0 0 1-1.68-.39zM308 227.77a.78.78 0 1 1-.78-.76.74.74 0 0 1 .78.76zm-1.48 7.08v-5.53h1.4v5.53zM309.43 231c0-.63 0-1.17-.05-1.64h1.23l.07.83a2 2 0 0 1 1.76-1c1 0 2 .63 2 2.38v3.28H313v-3.12c0-.8-.29-1.4-1.05-1.4a1.19 1.19 0 0 0-1.1.82 1.55 1.55 0 0 0-.05.45v3.25h-1.41zM321 229.32V234a2.67 2.67 0 0 1-3 3.19 4 4 0 0 1-1.93-.44l.31-1.06a3.37 3.37 0 0 0 1.61.42 1.47 1.47 0 0 0 1.59-1.67V234a1.88 1.88 0 0 1-1.62.82 2.46 2.46 0 0 1-2.35-2.71 2.65 2.65 0 0 1 2.51-2.92 1.77 1.77 0 0 1 1.61.86l.06-.73zm-1.44 2.21a1.25 1.25 0 0 0-1.18-1.27c-.79 0-1.37.68-1.37 1.81 0 .94.48 1.7 1.35 1.7a1.19 1.19 0 0 0 1.14-.84 2.07 2.07 0 0 0 .06-.5zM257.88 246.52l-.1-.61a2.06 2.06 0 0 1-1.64.73 1.64 1.64 0 0 1-1.74-1.64c0-1.4 1.24-2.11 3.29-2.1v-.09c0-.36-.15-1-1.13-1a3 3 0 0 0-1.49.41l-.27-.91a4 4 0 0 1 2-.49 2.07 2.07 0 0 1 2.29 2.33v2a8.46 8.46 0 0 0 .08 1.33zm-.19-2.71c-1 0-1.93.2-1.93 1a.73.73 0 0 0 .8.79 1.14 1.14 0 0 0 1.09-.76 1.08 1.08 0 0 0 0-.3zM260.54 242.63c0-.64 0-1.17-.05-1.65h1.23l.07.83a2 2 0 0 1 1.76-.95c1 0 2 .62 2 2.37v3.29h-1.4v-3.13c0-.79-.29-1.4-1-1.4a1.19 1.19 0 0 0-1.1.82 1.66 1.66 0 0 0-.05.46v3.25h-1.41zM272.15 238.45v8.11h-1.25l-.05-.88a2 2 0 0 1-1.8 1c-1.32 0-2.37-1.12-2.37-2.83s1.15-2.95 2.48-2.95a1.79 1.79 0 0 1 1.56.72v-3.13zm-1.4 4.84a2.19 2.19 0 0 0 0-.36 1.23 1.23 0 0 0-1.21-1c-.9 0-1.4.79-1.4 1.83s.5 1.75 1.39 1.75a1.24 1.24 0 0 0 1.21-1 1.78 1.78 0 0 0 0-.41zM276.89 241l.9 2.81a13.85 13.85 0 0 1 .38 1.39c.1-.46.23-.89.38-1.39l.87-2.81h1.48l-2.11 5.54h-1.38l-2.03-5.54zM283.28 239.44a.74.74 0 0 1-.8.75.73.73 0 0 1-.77-.75.74.74 0 0 1 .78-.77.76.76 0 0 1 .79.77zm-1.49 7.08V241h1.41v5.54zM289.8 238.45V245c0 .57 0 1.18.05 1.56h-1.25l-.06-.88a2 2 0 0 1-1.81 1c-1.32 0-2.36-1.12-2.36-2.83s1.14-2.95 2.47-2.95a1.78 1.78 0 0 1 1.56.72v-3.13zm-1.4 4.84a2.19 2.19 0 0 0 0-.36 1.22 1.22 0 0 0-1.2-1c-.9 0-1.4.79-1.4 1.83s.5 1.75 1.38 1.75a1.24 1.24 0 0 0 1.21-1 1.78 1.78 0 0 0 0-.41zM292.3 244.14a1.5 1.5 0 0 0 1.7 1.44 4.38 4.38 0 0 0 1.54-.25l.2 1a5.3 5.3 0 0 1-1.93.34 2.61 2.61 0 0 1-2.85-2.79 2.74 2.74 0 0 1 2.7-3 2.4 2.4 0 0 1 2.39 2.69 3.57 3.57 0 0 1-.05.59zm2.43-1a1.2 1.2 0 0 0-1.15-1.36 1.37 1.37 0 0 0-1.28 1.36zM302.44 243.7a2.74 2.74 0 0 1-2.84 2.94 2.68 2.68 0 0 1-2.78-2.85 2.73 2.73 0 0 1 2.87-2.93 2.65 2.65 0 0 1 2.75 2.84zm-4.17.06c0 1.07.52 1.87 1.37 1.87s1.36-.78 1.36-1.9c0-.86-.39-1.85-1.35-1.85s-1.38.96-1.38 1.88zM260.58 258.19l-.09-.62a2.06 2.06 0 0 1-1.64.74 1.64 1.64 0 0 1-1.73-1.65c0-1.4 1.23-2.1 3.28-2.09v-.09c0-.36-.15-1-1.13-1a2.89 2.89 0 0 0-1.48.41l-.28-.91a4 4 0 0 1 2-.49 2.08 2.08 0 0 1 2.29 2.34v2a8.54 8.54 0 0 0 .08 1.33zm-.19-2.71c-1 0-1.93.19-1.93 1a.74.74 0 0 0 .8.8 1.05 1.05 0 0 0 1.13-1.07zM263.24 254.3c0-.64 0-1.17-.05-1.65h1.23l.07.83a2 2 0 0 1 1.77-1c1 0 2 .63 2 2.38v3.29h-1.4v-3.13c0-.8-.29-1.4-1.05-1.4a1.16 1.16 0 0 0-1.09.82 1.29 1.29 0 0 0-.06.45v3.26h-1.41zM272.86 258.19l-.09-.62a2.08 2.08 0 0 1-1.64.74 1.64 1.64 0 0 1-1.74-1.65c0-1.4 1.24-2.1 3.28-2.09v-.09c0-.36-.14-1-1.12-1a2.92 2.92 0 0 0-1.49.41l-.27-.91a4 4 0 0 1 2-.49 2.07 2.07 0 0 1 2.28 2.34v2a10 10 0 0 0 .08 1.33zm-.18-2.71c-1 0-1.93.19-1.93 1a.73.73 0 0 0 .79.8 1.12 1.12 0 0 0 1.09-.76.87.87 0 0 0 .05-.31zM275.53 250.11h1.4v8.08h-1.4zM279.32 252.65l1 3c.12.34.23.76.31 1.08.1-.32.2-.73.3-1.09l.86-3h1.5l-1.38 3.77c-.76 2.07-1.28 3-1.94 3.56a2.83 2.83 0 0 1-1.46.72l-.32-1.18a2.62 2.62 0 0 0 .82-.39 2.39 2.39 0 0 0 .76-.88.51.51 0 0 0 .09-.25.59.59 0 0 0-.08-.27l-2-5.08zM285.74 251.07v1.58h1.33v1h-1.33v2.44c0 .67.18 1 .71 1a1.84 1.84 0 0 0 .55-.07v1.07a3 3 0 0 1-1 .14 1.59 1.59 0 0 1-1.2-.46 2.15 2.15 0 0 1-.44-1.54v-2.6h-.79v-1h.79v-1.23zM289.62 251.1a.74.74 0 0 1-.8.75.74.74 0 0 1-.77-.75.79.79 0 0 1 1.57 0zm-1.49 7.09v-5.54h1.41v5.54zM295.11 258a4.23 4.23 0 0 1-1.57.28 2.65 2.65 0 0 1-2.85-2.82 2.86 2.86 0 0 1 3.08-3 3.44 3.44 0 0 1 1.35.27l-.25 1a2.54 2.54 0 0 0-1.06-.21 1.79 1.79 0 0 0 0 3.58 2.86 2.86 0 0 0 1.11-.22zM296.08 256.9a3.16 3.16 0 0 0 1.42.4c.61 0 .89-.25.89-.61s-.23-.57-.91-.81c-1.08-.38-1.54-1-1.53-1.62a1.86 1.86 0 0 1 2.1-1.74 3.25 3.25 0 0 1 1.46.33l-.27 1a2.57 2.57 0 0 0-1.17-.31c-.5 0-.77.23-.77.57s.26.53 1 .78c1 .36 1.47.87 1.48 1.69 0 1-.78 1.73-2.25 1.73a3.53 3.53 0 0 1-1.68-.39zM135.13 304l-.65 2.18H133l2.46-7.67h1.78l2.49 7.67h-1.5l-.69-2.18zm2.2-1.05l-.6-1.89c-.15-.47-.28-1-.39-1.43-.12.44-.23 1-.37 1.43l-.59 1.89zM145.57 304.53c0 .66 0 1.2.05 1.66h-1.23l-.07-.85a2 2 0 0 1-1.77 1c-1 0-1.93-.6-1.93-2.41v-3.25H142v3c0 .92.3 1.51 1 1.51a1.17 1.17 0 0 0 1.07-.75 1.37 1.37 0 0 0 .08-.43v-3.34h1.39zM152.15 300.65c0 .37-.05.83-.05 1.59v3.14a2.66 2.66 0 0 1-2.95 3.18 3.93 3.93 0 0 1-1.93-.44l.3-1.06a3.33 3.33 0 0 0 1.62.42 1.47 1.47 0 0 0 1.59-1.67v-.48a1.88 1.88 0 0 1-1.62.82 2.46 2.46 0 0 1-2.35-2.7 2.66 2.66 0 0 1 2.51-2.93 1.73 1.73 0 0 1 1.6.87l.05-.74zm-1.44 2.22a1.52 1.52 0 0 0-.05-.38 1.17 1.17 0 0 0-1.14-.9c-.78 0-1.36.69-1.36 1.81 0 .94.48 1.71 1.35 1.71a1.2 1.2 0 0 0 1.14-.85 2.63 2.63 0 0 0 .06-.5zM153.56 302.3v-1.65h1.2l.06.82a1.94 1.94 0 0 1 1.71-1 1.59 1.59 0 0 1 1.53 1 2.08 2.08 0 0 1 .68-.7 1.87 1.87 0 0 1 1.11-.33c.92 0 1.85.63 1.85 2.4v3.27h-1.36v-3.06c0-.92-.32-1.47-1-1.47a1.07 1.07 0 0 0-1 .74 2.32 2.32 0 0 0-.06.47v3.32H157V303c0-.77-.31-1.32-1-1.32a1.08 1.08 0 0 0-1 .8 1.09 1.09 0 0 0-.08.45v3.28h-1.37zM164.2 303.81a1.5 1.5 0 0 0 1.7 1.43 4.16 4.16 0 0 0 1.54-.25l.2 1a5.26 5.26 0 0 1-1.93.34 2.61 2.61 0 0 1-2.85-2.8 2.74 2.74 0 0 1 2.7-3 2.41 2.41 0 0 1 2.39 2.7 2.79 2.79 0 0 1 0 .59zm2.43-1a1.19 1.19 0 0 0-1.15-1.35 1.36 1.36 0 0 0-1.28 1.35zM169.08 302.3c0-.64 0-1.17-.05-1.65h1.23l.07.83a2 2 0 0 1 1.77-1c1 0 2 .63 2 2.38v3.29h-1.4v-3.13c0-.8-.29-1.4-1.05-1.4a1.19 1.19 0 0 0-1.1.82 1.59 1.59 0 0 0 0 .45v3.26h-1.41zM177.13 299.07v1.58h1.33v1.05h-1.33v2.44c0 .67.18 1 .72 1a1.76 1.76 0 0 0 .54-.07v1.07a3.09 3.09 0 0 1-1 .14 1.59 1.59 0 0 1-1.2-.46 2.15 2.15 0 0 1-.43-1.54v-2.6H175v-1.05h.8v-1.23zM180.44 303.81a1.51 1.51 0 0 0 1.71 1.43 4.14 4.14 0 0 0 1.53-.25l.21 1a5.32 5.32 0 0 1-1.94.34 2.62 2.62 0 0 1-2.85-2.8 2.74 2.74 0 0 1 2.71-3 2.41 2.41 0 0 1 2.38 2.7 4 4 0 0 1 0 .59zm2.43-1a1.18 1.18 0 0 0-1.14-1.35 1.37 1.37 0 0 0-1.29 1.35zM190.43 298.11v8.08h-1.25l-.06-.88a2 2 0 0 1-1.81 1c-1.31 0-2.36-1.12-2.36-2.83s1.15-3 2.48-3a1.75 1.75 0 0 1 1.55.73v-3.14zM189 303a1.55 1.55 0 0 0 0-.37 1.23 1.23 0 0 0-1.2-1c-.9 0-1.4.8-1.4 1.83s.5 1.76 1.39 1.76a1.22 1.22 0 0 0 1.2-1 1.4 1.4 0 0 0 .05-.41zM194.29 302.43v-1.78h1.22v1.06h.05a1.65 1.65 0 0 1 1.51-1.19 1.57 1.57 0 0 1 .33 0v1.32a1.53 1.53 0 0 0-.41-.05 1.23 1.23 0 0 0-1.25 1.06 2.55 2.55 0 0 0 0 .43v2.87h-1.39zM199.22 303.81a1.51 1.51 0 0 0 1.71 1.43 4.14 4.14 0 0 0 1.53-.25l.21 1a5.32 5.32 0 0 1-1.94.34 2.62 2.62 0 0 1-2.85-2.8 2.74 2.74 0 0 1 2.71-3 2.41 2.41 0 0 1 2.38 2.7 4 4 0 0 1 0 .59zm2.43-1a1.18 1.18 0 0 0-1.14-1.35 1.37 1.37 0 0 0-1.29 1.35zM207.22 306.19l-.09-.62a2.06 2.06 0 0 1-1.64.74 1.65 1.65 0 0 1-1.74-1.65c0-1.4 1.24-2.1 3.29-2.09v-.09c0-.36-.15-1-1.12-1a2.9 2.9 0 0 0-1.49.41l-.28-.91a4 4 0 0 1 2-.49 2.08 2.08 0 0 1 2.29 2.34v2a8.54 8.54 0 0 0 .08 1.33zm-.19-2.71c-1 0-1.93.19-1.93 1a.74.74 0 0 0 .8.8 1.13 1.13 0 0 0 1.09-.76 1.15 1.15 0 0 0 0-.31zM209.88 298.11h1.41v8.08h-1.41zM214.29 299.1a.79.79 0 0 1-1.57 0 .75.75 0 0 1 .79-.76.74.74 0 0 1 .78.76zm-1.49 7.09v-5.54h1.41v5.54zM217.32 299.07v1.58h1.33v1.05h-1.33v2.44c0 .67.18 1 .71 1a1.84 1.84 0 0 0 .55-.07v1.07a3 3 0 0 1-1 .14 1.59 1.59 0 0 1-1.2-.46 2.15 2.15 0 0 1-.44-1.54v-2.6h-.79v-1.05h.85v-1.23zM220.66 300.65l1 3c.12.34.23.76.31 1.08.1-.32.2-.73.3-1.09l.86-3h1.5l-1.38 3.77c-.76 2.07-1.28 3-1.94 3.56a2.83 2.83 0 0 1-1.46.72l-.32-1.18a2.62 2.62 0 0 0 .82-.39 2.39 2.39 0 0 0 .76-.88.51.51 0 0 0 .09-.25.59.59 0 0 0-.08-.27l-2-5.08zM151.91 317.85l-.1-.61a2.06 2.06 0 0 1-1.64.74 1.65 1.65 0 0 1-1.74-1.65c0-1.4 1.24-2.1 3.29-2.09v-.09c0-.37-.15-1-1.13-1a2.89 2.89 0 0 0-1.48.41l-.28-.91a4 4 0 0 1 2-.49 2.07 2.07 0 0 1 2.29 2.33v2a8.46 8.46 0 0 0 .08 1.33zm-.19-2.7c-1 0-1.93.19-1.93 1a.74.74 0 0 0 .8.8 1.15 1.15 0 0 0 1.09-.76 1.2 1.2 0 0 0 0-.31zM154.57 314v-1.64h1.23l.07.83a2 2 0 0 1 1.77-1c1 0 2 .63 2 2.38v3.28h-1.4v-3.12c0-.8-.29-1.4-1.05-1.4a1.16 1.16 0 0 0-1.09.82 1.26 1.26 0 0 0-.06.45v3.25h-1.41zM166.18 309.78v8.07H165l-.05-.87a2 2 0 0 1-1.81 1 2.54 2.54 0 0 1-2.37-2.83c0-1.86 1.15-3 2.48-3a1.77 1.77 0 0 1 1.56.73v-3.14zm-1.4 4.84a2.19 2.19 0 0 0 0-.36 1.23 1.23 0 0 0-1.21-1c-.9 0-1.4.8-1.4 1.83s.5 1.75 1.39 1.75a1.23 1.23 0 0 0 1.21-1 1.73 1.73 0 0 0 0-.41zM170 314.1v-1.78h1.22v1.05a1.65 1.65 0 0 1 1.51-1.18 1.11 1.11 0 0 1 .33 0v1.31a2.18 2.18 0 0 0-.41 0 1.23 1.23 0 0 0-1.25 1.06 2.63 2.63 0 0 0 0 .43v2.86H170zM179.25 315a2.74 2.74 0 0 1-2.84 3 2.68 2.68 0 0 1-2.78-2.86 2.74 2.74 0 0 1 2.87-2.93 2.65 2.65 0 0 1 2.75 2.79zm-4.17.06c0 1.07.52 1.88 1.37 1.88s1.36-.79 1.36-1.9c0-.87-.39-1.86-1.35-1.86s-1.38.99-1.38 1.91zM180.36 317.85v-8.07h1.4v3.3a2 2 0 0 1 1.78-.89c1.35 0 2.32 1.13 2.3 2.81 0 2-1.26 3-2.51 3a1.92 1.92 0 0 1-1.75-1l-.07.83zm1.44-2.28a1.84 1.84 0 0 0 0 .33 1.31 1.31 0 0 0 1.24 1c.88 0 1.41-.71 1.41-1.82s-.46-1.78-1.4-1.78a1.3 1.3 0 0 0-1.23 1 1.25 1.25 0 0 0 0 .36zM192.32 315a2.74 2.74 0 0 1-2.84 3 2.68 2.68 0 0 1-2.78-2.86 2.74 2.74 0 0 1 2.87-2.93 2.65 2.65 0 0 1 2.75 2.79zm-4.17.06c0 1.07.52 1.88 1.37 1.88s1.36-.79 1.36-1.9c0-.87-.39-1.86-1.34-1.86s-1.39.99-1.39 1.91zM195.07 310.74v1.58h1.33v1h-1.33v2.45c0 .67.19 1 .72 1a2.31 2.31 0 0 0 .55-.07v1.07a3.07 3.07 0 0 1-1 .14 1.61 1.61 0 0 1-1.21-.46 2.24 2.24 0 0 1-.43-1.55v-2.6h-.8v-1h.8v-1.25zM199 310.77a.79.79 0 0 1-1.57 0 .75.75 0 0 1 .79-.76.74.74 0 0 1 .78.76zm-1.49 7.08v-5.53h1.41v5.53zM204.45 317.68a4 4 0 0 1-1.57.29 2.67 2.67 0 0 1-2.86-2.82 2.87 2.87 0 0 1 3.08-3 3.46 3.46 0 0 1 1.36.26l-.25 1.05a2.51 2.51 0 0 0-1.06-.22 1.79 1.79 0 0 0 0 3.58 2.78 2.78 0 0 0 1.1-.21zM205.42 316.57a3.13 3.13 0 0 0 1.42.4c.61 0 .88-.25.88-.62s-.22-.57-.91-.81c-1.08-.37-1.53-1-1.52-1.61a1.85 1.85 0 0 1 2.09-1.74 3.26 3.26 0 0 1 1.47.33l-.27 1a2.48 2.48 0 0 0-1.18-.32c-.5 0-.77.24-.77.58s.26.52 1 .77c1 .37 1.46.88 1.48 1.7 0 1-.79 1.73-2.25 1.73a3.55 3.55 0 0 1-1.69-.39zM46.49 232.19L44 224.52h1.53l1 3.48c.3 1 .55 1.87.75 2.8a27.49 27.49 0 0 1 .78-2.77l1.11-3.51h1.49l-2.65 7.67zM52.76 225.1a.74.74 0 0 1-.8.75.74.74 0 0 1-.77-.75.79.79 0 0 1 1.57 0zm-1.49 7.09v-5.54h1.41v5.54zM54.11 230.9a3.21 3.21 0 0 0 1.43.4c.61 0 .88-.25.88-.61s-.23-.57-.91-.81c-1.08-.38-1.53-1-1.52-1.62a1.86 1.86 0 0 1 2.09-1.74 3.26 3.26 0 0 1 1.47.33l-.28 1a2.53 2.53 0 0 0-1.17-.31c-.5 0-.77.23-.77.57s.26.53 1 .78c1 .36 1.46.87 1.47 1.69 0 1-.78 1.73-2.25 1.73a3.53 3.53 0 0 1-1.68-.39zM63.88 230.53v1.66H62.7l-.07-.85a2 2 0 0 1-1.77 1c-1 0-1.94-.6-1.94-2.41v-3.25h1.4v3c0 .92.3 1.51 1 1.51a1.18 1.18 0 0 0 1.07-.75 1.38 1.38 0 0 0 .07-.43v-3.34h1.4zM68.51 232.19l-.09-.62a2.06 2.06 0 0 1-1.64.74 1.65 1.65 0 0 1-1.78-1.65c0-1.4 1.24-2.1 3.29-2.09v-.09c0-.36-.15-1-1.13-1a3 3 0 0 0-1.49.41l-.27-.91a4 4 0 0 1 2-.49 2.08 2.08 0 0 1 2.29 2.34v2a8.54 8.54 0 0 0 .08 1.33zm-.18-2.71c-1 0-1.93.19-1.93 1a.73.73 0 0 0 .79.8 1.05 1.05 0 0 0 1.14-1.07zM71.18 224.11h1.41v8.08h-1.41zM75.59 225.1a.74.74 0 0 1-.8.75.74.74 0 0 1-.77-.75.79.79 0 0 1 1.57 0zm-1.49 7.09v-5.54h1.41v5.54zM76.49 231.38l2.08-2.66c.28-.34.52-.62.82-.93h-2.7v-1.11h4.4v.85l-2 2.61c-.27.33-.54.64-.82.94h2.92v1.12h-4.7zM85.25 232.19l-.1-.62a2.06 2.06 0 0 1-1.64.74 1.65 1.65 0 0 1-1.74-1.65c0-1.4 1.24-2.1 3.29-2.09v-.09c0-.36-.15-1-1.13-1a2.89 2.89 0 0 0-1.48.41l-.28-.91a4 4 0 0 1 2-.49 2.08 2.08 0 0 1 2.29 2.34v2a8.54 8.54 0 0 0 .08 1.33zm-.19-2.71c-1 0-1.93.19-1.93 1a.74.74 0 0 0 .8.8 1.05 1.05 0 0 0 1.13-1.07zM89.44 225.07v1.58h1.33v1h-1.33v2.44c0 .67.19 1 .72 1a1.89 1.89 0 0 0 .55-.07v1.07a3.07 3.07 0 0 1-1 .14 1.61 1.61 0 0 1-1.21-.46 2.2 2.2 0 0 1-.43-1.54v-2.6h-.8v-1h.8v-1.23zM93.32 225.1a.79.79 0 0 1-1.57 0 .75.75 0 0 1 .79-.76.74.74 0 0 1 .78.76zm-1.49 7.09v-5.54h1.41v5.54zM100 229.37a2.74 2.74 0 0 1-2.84 2.94 2.68 2.68 0 0 1-2.78-2.85 2.74 2.74 0 0 1 2.87-2.94 2.66 2.66 0 0 1 2.75 2.85zm-4.17 0c0 1.07.52 1.88 1.37 1.88s1.36-.79 1.36-1.9c0-.86-.39-1.85-1.35-1.85s-1.37 1-1.37 1.92zM101.16 228.3v-1.65h1.22l.07.83a2 2 0 0 1 1.76-1c1 0 2 .63 2 2.38v3.29h-1.39v-3.13c0-.8-.3-1.4-1.06-1.4a1.17 1.17 0 0 0-1.09.82 1.29 1.29 0 0 0-.06.45v3.26h-1.41zM54.76 235.78v8.07h-1.21v-.87a2 2 0 0 1-1.8 1 2.54 2.54 0 0 1-2.37-2.83c0-1.86 1.15-3 2.48-3a1.77 1.77 0 0 1 1.56.73v-3.14zm-1.4 4.84a2.19 2.19 0 0 0 0-.36 1.23 1.23 0 0 0-1.21-1c-.9 0-1.4.8-1.4 1.83s.5 1.75 1.39 1.75a1.23 1.23 0 0 0 1.21-1 1.73 1.73 0 0 0 0-.41zM59.38 243.85l-.09-.61a2.06 2.06 0 0 1-1.63.74 1.64 1.64 0 0 1-1.74-1.65c0-1.4 1.24-2.1 3.28-2.09v-.09c0-.37-.14-1-1.12-1a2.9 2.9 0 0 0-1.49.41l-.27-.91a3.94 3.94 0 0 1 2-.49 2.07 2.07 0 0 1 2.28 2.33v2a8.46 8.46 0 0 0 .08 1.33zm-.18-2.7c-1 0-1.94.19-1.94 1a.74.74 0 0 0 .8.8 1.13 1.13 0 0 0 1.09-.76.91.91 0 0 0 .05-.31zM62 242.57a3.21 3.21 0 0 0 1.43.4c.61 0 .88-.25.88-.62s-.23-.57-.91-.81c-1.08-.37-1.53-1-1.52-1.61a1.85 1.85 0 0 1 2.09-1.74 3.29 3.29 0 0 1 1.47.33l-.28 1a2.41 2.41 0 0 0-1.17-.32c-.5 0-.77.24-.77.58s.26.52 1 .77c1 .37 1.46.88 1.47 1.7 0 1-.78 1.73-2.25 1.73a3.53 3.53 0 0 1-1.68-.39zM66.79 235.78h1.41v3.3a1.93 1.93 0 0 1 .69-.64 1.88 1.88 0 0 1 1-.25c.94 0 1.93.63 1.93 2.4v3.26H70.4v-3.1c0-.81-.29-1.41-1.07-1.41a1.15 1.15 0 0 0-1.08.78 1.34 1.34 0 0 0 0 .42v3.31h-1.46zM73.25 243.85v-8.07h1.4v3.3a2 2 0 0 1 1.78-.89c1.35 0 2.32 1.13 2.3 2.81 0 2-1.26 3-2.51 3a1.92 1.92 0 0 1-1.75-1l-.07.83zm1.44-2.28a1.84 1.84 0 0 0 0 .33 1.31 1.31 0 0 0 1.24 1c.88 0 1.41-.71 1.41-1.82s-.46-1.78-1.4-1.78a1.3 1.3 0 0 0-1.23 1 1.25 1.25 0 0 0 0 .36zM85.21 241a2.74 2.74 0 0 1-2.84 3 2.68 2.68 0 0 1-2.78-2.86 2.74 2.74 0 0 1 2.87-2.93 2.65 2.65 0 0 1 2.75 2.79zm-4.17.06c0 1.07.52 1.88 1.37 1.88s1.36-.79 1.36-1.9c0-.87-.39-1.86-1.35-1.86s-1.42.99-1.42 1.91zM89.48 243.85l-.09-.61a2.06 2.06 0 0 1-1.64.74 1.64 1.64 0 0 1-1.75-1.65c0-1.4 1.23-2.1 3.28-2.09v-.09c0-.37-.15-1-1.13-1a2.89 2.89 0 0 0-1.48.41l-.28-.91a4 4 0 0 1 2-.49 2.07 2.07 0 0 1 2.29 2.33v2a8.46 8.46 0 0 0 .08 1.33zm-.19-2.7c-1 0-1.93.19-1.93 1a.74.74 0 0 0 .8.8 1.15 1.15 0 0 0 1.09-.76 1.2 1.2 0 0 0 0-.31zM92.14 240.1v-1.78h1.22v1.05a1.65 1.65 0 0 1 1.51-1.18 1.11 1.11 0 0 1 .33 0v1.31a2.18 2.18 0 0 0-.41 0 1.23 1.23 0 0 0-1.25 1.06 2.63 2.63 0 0 0 0 .43v2.86h-1.4zM101.19 235.78v8.07H100l-.06-.87a2 2 0 0 1-1.81 1c-1.32 0-2.36-1.13-2.36-2.83 0-1.86 1.14-3 2.47-3a1.77 1.77 0 0 1 1.56.73v-3.14zm-1.4 4.84a2.19 2.19 0 0 0 0-.36 1.23 1.23 0 0 0-1.21-1c-.89 0-1.39.8-1.39 1.83s.5 1.75 1.38 1.75a1.23 1.23 0 0 0 1.21-1 1.73 1.73 0 0 0 0-.41zM70.68 102.52h1.39V109h3.15v1.18h-4.54zM81.37 107.37a2.75 2.75 0 0 1-2.85 2.94 2.68 2.68 0 0 1-2.77-2.85 2.74 2.74 0 0 1 2.87-2.94 2.66 2.66 0 0 1 2.75 2.85zm-4.18 0c0 1.07.53 1.88 1.38 1.88s1.35-.79 1.35-1.9c0-.86-.38-1.85-1.34-1.85s-1.39 1-1.39 1.92zM86.59 110a4.23 4.23 0 0 1-1.57.28 2.65 2.65 0 0 1-2.85-2.82 2.86 2.86 0 0 1 3.08-3 3.44 3.44 0 0 1 1.35.27l-.25 1a2.54 2.54 0 0 0-1.06-.21 1.79 1.79 0 0 0 0 3.58 2.76 2.76 0 0 0 1.1-.22zM90.74 110.19l-.09-.62a2.09 2.09 0 0 1-1.64.74 1.64 1.64 0 0 1-1.74-1.65c0-1.4 1.24-2.1 3.28-2.09v-.09c0-.36-.14-1-1.12-1a2.9 2.9 0 0 0-1.49.41l-.27-.91a3.94 3.94 0 0 1 2-.49 2.07 2.07 0 0 1 2.28 2.33v2a8.54 8.54 0 0 0 .08 1.33zm-.18-2.71c-1 0-1.93.19-1.93 1a.73.73 0 0 0 .79.8 1.12 1.12 0 0 0 1.09-.76.87.87 0 0 0 0-.31zM94.94 103.07v1.58h1.33v1h-1.33v2.44c0 .67.18 1 .71 1a1.89 1.89 0 0 0 .55-.07v1.07a3 3 0 0 1-1 .14 1.59 1.59 0 0 1-1.2-.46 2.15 2.15 0 0 1-.44-1.54v-2.6h-.79v-1h.79v-1.23zM98.82 103.1a.74.74 0 0 1-.8.75.73.73 0 0 1-.77-.75.79.79 0 0 1 1.57 0zm-1.49 7.09v-5.54h1.41v5.54zM105.5 107.37a2.74 2.74 0 0 1-2.84 2.94 2.67 2.67 0 0 1-2.77-2.85 2.74 2.74 0 0 1 2.86-2.94 2.66 2.66 0 0 1 2.75 2.85zm-4.17 0c0 1.07.52 1.88 1.38 1.88s1.35-.79 1.35-1.9c0-.86-.39-1.85-1.34-1.85s-1.39 1-1.39 1.92zM106.66 106.3v-1.65h1.23l.07.83a2 2 0 0 1 1.76-1c1 0 2 .63 2 2.38v3.29h-1.4v-3.13c0-.8-.3-1.4-1.06-1.4a1.18 1.18 0 0 0-1.09.82 1.58 1.58 0 0 0-.06.45v3.26h-1.4zM115.65 106.67v1h-2.9v-1zM116.7 110.19v-8.08h1.4v3.3a2 2 0 0 1 1.77-.89c1.35 0 2.32 1.13 2.31 2.81 0 2-1.27 3-2.52 3a1.91 1.91 0 0 1-1.75-1l-.07.83zm1.44-2.29a1.19 1.19 0 0 0 0 .33 1.28 1.28 0 0 0 1.24 1c.87 0 1.41-.71 1.41-1.82s-.47-1.77-1.4-1.77a1.3 1.3 0 0 0-1.24 1 1.84 1.84 0 0 0 0 .36zM126.51 110.19l-.09-.62a2.06 2.06 0 0 1-1.64.74 1.65 1.65 0 0 1-1.74-1.65c0-1.4 1.24-2.1 3.29-2.09v-.09c0-.36-.15-1-1.13-1a3 3 0 0 0-1.49.41l-.27-.91a4 4 0 0 1 2-.49 2.08 2.08 0 0 1 2.29 2.33v2a8.54 8.54 0 0 0 .08 1.33zm-.18-2.71c-1 0-1.93.19-1.93 1a.74.74 0 0 0 .8.8 1.05 1.05 0 0 0 1.13-1.07zM129.11 108.9a3.16 3.16 0 0 0 1.42.4c.61 0 .89-.25.89-.61s-.23-.57-.91-.81c-1.08-.38-1.54-1-1.53-1.62a1.86 1.86 0 0 1 2.1-1.74 3.25 3.25 0 0 1 1.46.33l-.27 1a2.56 2.56 0 0 0-1.17-.32c-.5 0-.77.24-.77.58s.26.53 1 .78c1 .36 1.47.87 1.48 1.69 0 1-.79 1.73-2.25 1.73a3.53 3.53 0 0 1-1.68-.39zM134.91 107.81c0 1 .82 1.43 1.71 1.43a4.14 4.14 0 0 0 1.53-.25l.2 1a5.22 5.22 0 0 1-1.93.34 2.62 2.62 0 0 1-2.85-2.8 2.74 2.74 0 0 1 2.7-3 2.41 2.41 0 0 1 2.39 2.7 4 4 0 0 1 0 .59zm2.43-1a1.19 1.19 0 0 0-1.15-1.35 1.37 1.37 0 0 0-1.28 1.35zM144.89 102.11v6.52c0 .57 0 1.18.05 1.56h-1.25l-.06-.88a2 2 0 0 1-1.81 1c-1.32 0-2.36-1.12-2.36-2.83s1.15-3 2.48-3a1.75 1.75 0 0 1 1.55.73v-3.14zM143.5 107a2.33 2.33 0 0 0 0-.37 1.23 1.23 0 0 0-1.2-1c-.9 0-1.4.8-1.4 1.83s.5 1.76 1.39 1.76a1.24 1.24 0 0 0 1.2-1 1.84 1.84 0 0 0 .05-.41zM88.83 120.57a3.16 3.16 0 0 0 1.42.4c.62 0 .89-.25.89-.62s-.23-.57-.91-.81c-1.08-.37-1.54-1-1.52-1.61a1.85 1.85 0 0 1 2.09-1.74 3.21 3.21 0 0 1 1.46.33l-.27 1a2.44 2.44 0 0 0-1.17-.32c-.5 0-.77.24-.77.58s.26.52 1 .77c1 .37 1.47.88 1.48 1.7 0 1-.78 1.73-2.25 1.73a3.53 3.53 0 0 1-1.68-.39zM94.63 119.48a1.51 1.51 0 0 0 1.71 1.43 4.14 4.14 0 0 0 1.53-.25l.21 1a5.1 5.1 0 0 1-1.94.35 2.62 2.62 0 0 1-2.85-2.8 2.74 2.74 0 0 1 2.71-3 2.41 2.41 0 0 1 2.38 2.7 4 4 0 0 1 0 .59zm2.43-1a1.18 1.18 0 0 0-1.14-1.35 1.37 1.37 0 0 0-1.29 1.35zM99.51 118.1v-1.78h1.21v1.05a1.66 1.66 0 0 1 1.52-1.18 1.19 1.19 0 0 1 .33 0v1.31a2.27 2.27 0 0 0-.41 0 1.23 1.23 0 0 0-1.25 1.06 1.81 1.81 0 0 0 0 .43v2.86h-1.4zM104.7 116.32l.9 2.8c.15.49.27.94.37 1.39.11-.45.23-.89.38-1.39l.88-2.8h1.47l-2.11 5.53h-1.38l-2-5.53zM111.08 114.77a.74.74 0 0 1-.8.75.74.74 0 0 1-.77-.75.79.79 0 0 1 1.57 0zm-1.49 7.08v-5.53H111v5.53zM116.57 121.68a3.92 3.92 0 0 1-1.57.32 2.66 2.66 0 0 1-2.85-2.82 2.87 2.87 0 0 1 3.08-3 3.45 3.45 0 0 1 1.35.26l-.25 1a2.42 2.42 0 0 0-1-.22 1.66 1.66 0 0 0-1.7 1.8 1.64 1.64 0 0 0 1.7 1.78 2.82 2.82 0 0 0 1.1-.21zM118.5 119.48a1.49 1.49 0 0 0 1.7 1.43 4.11 4.11 0 0 0 1.53-.25l.21 1a5.08 5.08 0 0 1-1.94.34 2.63 2.63 0 0 1-2.86-2.8 2.75 2.75 0 0 1 2.71-3 2.41 2.41 0 0 1 2.39 2.7 3.69 3.69 0 0 1 0 .59zm2.43-1a1.19 1.19 0 0 0-1.15-1.35 1.36 1.36 0 0 0-1.28 1.35zM123.31 120.57a3.16 3.16 0 0 0 1.42.4c.61 0 .89-.25.89-.62s-.23-.57-.91-.81c-1.08-.37-1.54-1-1.53-1.61a1.85 1.85 0 0 1 2.09-1.74 3.26 3.26 0 0 1 1.47.33l-.27 1a2.44 2.44 0 0 0-1.17-.32c-.5 0-.78.24-.78.58s.27.52 1 .77c1 .37 1.47.88 1.48 1.7 0 1-.79 1.73-2.25 1.73a3.5 3.5 0 0 1-1.68-.39z"/><path class="cls-5" d="M268 53.97v29.19h-44.37v-33.2h35.96"/><path class="cls-4" d="M265.21 54.78l2.79-4.82 2.79 4.82h-5.58z"/><path class="cls-5" d="M241.57 83.16l4.14-5.46 10.15 5.42"/><circle class="cls-5" cx="261.85" cy="49.89" r="2.1"/><path class="cls-5" d="M223.63 54.74l26.44 17.73-1.22 2.27 14.37 8.42M223.63 59.56l19.68 13.63-7.77 9.97"/><path class="cls-5" d="M240.5 66.33l9.83-7.64L268 61.7M245.1 82.83v8.83M236.32 91.66H253"/><path class="cls-4" d="M91.15 72.71l3.94-6.97 4.07 6.9-8.01.07z"/><path class="cls-4" d="M94.33 90.54V70.53h1.64v17.71l10.5-3.66 12.96 3.76 9.93-4.31V54.88l-9.87 3.4-3.56-1.19.52-1.55 3.03 1.01L131 52.58v32.53l-11.46 4.97-13.02-3.78-12.19 4.24z"/><path class="cls-4" d="M105.68 74.2h1.64v11.13h-1.64zM107.18 70.43l-.69-.44-.72.37c-.07-.13-.6-.93-1.15-1.77-2.84-4.33-5.91-9.06-6.34-10.32a8.34 8.34 0 0 1-.19-4.66 8.87 8.87 0 0 1 8.4-6.81 8.13 8.13 0 0 1 3.4.76 9.29 9.29 0 0 1 5.29 7.8 8.14 8.14 0 0 1-.32 2.75c-.32 1-2.92 5.1-6.73 10.87l-.93 1.42zm-1.37-.89l.68-21.11A7.31 7.31 0 0 0 99.68 54a6.87 6.87 0 0 0 .14 3.75c.41 1.18 4.44 7.33 6.17 10l.51.79.27-.4c1.7-2.58 6.21-9.42 6.52-10.45a6.34 6.34 0 0 0 .26-2.18A7.72 7.72 0 0 0 109.2 49a6.64 6.64 0 0 0-2.71-.57z"/><path class="cls-4" d="M106.48 58.81a3.41 3.41 0 1 1 3.43-3.41 3.42 3.42 0 0 1-3.43 3.41zm0-5.18a1.77 1.77 0 1 0 1.79 1.77 1.79 1.79 0 0 0-1.79-1.77zM118.67 75.1v13.69h1.64V75.1a2.81 2.81 0 0 1-.82.13 2.76 2.76 0 0 1-.82-.13zM120.31 70.33V57.42h-1.64v12.91a2.48 2.48 0 0 1 .82-.14 2.52 2.52 0 0 1 .82.14z"/><path class="cls-4" d="M119.49 76.05a3.34 3.34 0 1 1 3.34-3.34 3.35 3.35 0 0 1-3.34 3.34zm0-5a1.7 1.7 0 1 0 1.7 1.7 1.71 1.71 0 0 0-1.7-1.75zM155.16 277.35c-1.72 1.15-3.34 1.06-4.46-.22a2.86 2.86 0 0 1 0-3.74c1.12-1.29 2.76-1.38 4.46-.23 2.16-1.2 4.31-2.45 6.51-3.62a1.5 1.5 0 0 0 1-1.59c-.07-2.54 0-5.09 0-7.63a1.09 1.09 0 0 1 .45-.8c3-1.69 6-3.35 8.95-5a1 1 0 0 1 1.12 0l9 5a.87.87 0 0 1 .44.87v8.18a.63.63 0 0 0 .38.66c2.11 1.16 4.2 2.34 6.3 3.53a.69.69 0 0 0 .8 0 3 3 0 0 1 3.74.58 2.85 2.85 0 0 1 .26 3.54 3 3 0 0 1-4 .9.64.64 0 0 0-.76 0l-13.3 7.45c-.23.13-.43.22-.39.59a2.75 2.75 0 0 1-1.46 2.92 3 3 0 0 1-4.43-3.27zm27.37-6.58v1.85a1.12 1.12 0 0 1-.68 1.19q-4.32 2.38-8.6 4.82a1.23 1.23 0 0 1-1.35 0q-4.26-2.42-8.56-4.79a1.21 1.21 0 0 1-.75-1.26v-1.78c-.26.13-.43.21-.58.3-1.65.92-3.29 1.88-5 2.76-.72.38-1.3.74-1.06 1.68-.11.34.07.5.35.66q4.68 2.6 9.35 5.22l4.72 2.64c1.7-1.1 2.48-1.1 4.33 0l1.38-.78 12.09-6.76c.32-.17.46-.31.36-.72a2.84 2.84 0 0 1 0-1.23.48.48 0 0 0-.28-.63c-1.12-.6-2.23-1.24-3.35-1.86zm-1.45-9.41l-.66.35-7.24 4.06a1 1 0 0 1-1.06.09l-6-3.36-2.07-1.13v10.9a.71.71 0 0 0 .32.52c1.85 1.06 3.72 2.1 5.58 3.15l1.9 1V273h-2.65l3.37-5.66 3.37 5.67h-2.66v3.89a3.1 3.1 0 0 0 .39-.16l7.07-3.95a.65.65 0 0 0 .37-.68v-10.22c-.01-.12-.02-.28-.03-.53zm-16.3-1.21a2.73 2.73 0 0 0 .35.26c2.37 1.33 4.73 2.66 7.12 4a.82.82 0 0 0 .67 0c1.76-1 3.5-1.95 5.25-2.93l2.2-1.25c-.2-.12-.31-.21-.44-.28-2.32-1.3-4.66-2.59-7-3.91a.68.68 0 0 0-.77 0c-1.21.69-2.42 1.36-3.64 2zm7.8 24.56a1.47 1.47 0 0 0-1.58 1.49 1.51 1.51 0 0 0 1.55 1.53 1.54 1.54 0 0 0 1.58-1.51 1.5 1.5 0 0 0-1.55-1.51zM153 276.78a1.52 1.52 0 1 0 .15-3 1.52 1.52 0 1 0-.15 3zm38.55-3a1.52 1.52 0 1 0 1.55 1.54 1.52 1.52 0 0 0-1.59-1.58zM266.56 195.12a3.2 3.2 0 1 0 3.21 3.2 3.21 3.21 0 0 0-3.21-3.2zm0 4.83a1.63 1.63 0 1 1 1.64-1.63 1.63 1.63 0 0 1-1.64 1.68z"/><path class="cls-4" d="M298 177.6h-10v-2.89l-6.37 3.64 6.34 3.7v-2.88h10a2.53 2.53 0 0 1 2.53 2.52V199a2.54 2.54 0 0 1-2.53 2.53h-2.22v-13.25a4.11 4.11 0 0 0-4.1-4.1h-18.72v-2.49a2.52 2.52 0 0 1 2.52-2.52v-1.57a4.09 4.09 0 0 0-4.09 4.09v2.53h-2.23a4.1 4.1 0 0 0-4.1 4.09v2.49h-2.22a4.11 4.11 0 0 0-4.1 4.1v17.27a4.11 4.11 0 0 0 4.1 4.1h22.55a4.1 4.1 0 0 0 4.09-4.1v-2.49h2.22a4.11 4.11 0 0 0 4.1-4.1v-2.52H298a4.11 4.11 0 0 0 4.1-4.1v-17.27a4.1 4.1 0 0 0-4.1-4.09zm-33.77 37.09l5.1-8.09 4.49 8.09zm21.13 0h-9.74l-3.19-5.69 5.72-9.08 8.12 14.65a2.49 2.49 0 0 1-.91.12zm2.52-2.52a2.52 2.52 0 0 1-.38 1.33l-9.26-16.72-6.68 10.6-2.14-3.87-7 11.15a2.53 2.53 0 0 1-2.12-2.49V194.9a2.53 2.53 0 0 1 2.53-2.52h22.54a2.53 2.53 0 0 1 2.52 2.27.49.49 0 0 0 0 .12v17.4zm6.32-6.59a2.53 2.53 0 0 1-2.53 2.53h-2.22V194.9a4.1 4.1 0 0 0-4.09-4.1H266.6v-2.49a2.53 2.53 0 0 1 2.53-2.52h22.54a2.52 2.52 0 0 1 2.53 2.52z"/><path class="cls-6" d="M83 183.52l.07 5.27H77.5a3.83 3.83 0 1 0 5.5-5.27zM92.09 206.58a1.59 1.59 0 0 0-1.38.81 1.61 1.61 0 0 0-.19.76 1.65 1.65 0 0 0 .19.76 1.59 1.59 0 0 0 1.38.81 1.57 1.57 0 0 0 0-3.14zM76 184.89h3v-3a3.84 3.84 0 0 0-3 3z"/><path class="cls-4" d="M61.87 183.69h1.7v6.46h-1.7zM64.43 185h1.7v5.15h-1.7zM56.76 185h1.7v5.15h-1.7zM66.98 183.53h1.7v6.62h-1.7zM69.53 181.94h1.7v8.21h-1.7zM59.35 179.53h1.7v10.62h-1.7zM56.75 195.57h29.04v1.69H56.75zM56.75 198.49h29.04v1.69H56.75zM56.75 201.41h29.04v1.69H56.75zM80.47 180.32h-.76a5.33 5.33 0 0 0-5.33 5.33v.76h6.09zM79 184.89h-3a3.84 3.84 0 0 1 3-3z"/><path class="cls-4" d="M82.43 181.54l-1-.33.08 6.07h-6.33l.36 1a5.34 5.34 0 0 0 10.37-1.78 5.21 5.21 0 0 0-3.48-4.96zm-1.86 8.79a3.84 3.84 0 0 1-3.07-1.54H83v-5.27a3.83 3.83 0 0 1-2.4 6.81z"/><path class="cls-4" d="M92.09 205.06a3.1 3.1 0 0 0-3 2.33H51.81v-31.1h39.52V194h-2.62l3.38 5.86 3.38-5.86h-2.62v-19.23H50.29v34.14H89.1a3.09 3.09 0 1 0 3-3.85zm0 4.66a1.59 1.59 0 0 1-1.38-.81 1.65 1.65 0 0 1-.19-.76 1.61 1.61 0 0 1 .19-.76 1.59 1.59 0 0 1 1.38-.81 1.57 1.57 0 0 1 0 3.14z"/></g></svg>