<svg id="Layer_1" data-name="Layer 1" xmlns="http://www.w3.org/2000/svg" viewBox="0 0 640 631.5"><defs><style>.cls-1{fill:#fbc2ba}.cls-3{fill:#4c0519}.cls-4{fill:none;stroke:#4c0519;stroke-miterlimit:10;stroke-width:3px}</style></defs><path class="cls-1" d="M-.45 0H641v207H-.45z"/><path fill="#fcddd6" d="M-.45 213H641v207H-.45z"/><path class="cls-1" d="M-.45 426H641v207H-.45z"/><path class="cls-3" d="M85.23 130.15a11.9 11.9 0 0 1-4.87.84c-6 0-9.63-3.75-9.63-9.49 0-6.22 4.31-10 10.08-10a10.89 10.89 0 0 1 4.59.84l-.76 2.75a9 9 0 0 0-3.69-.73c-3.84 0-6.61 2.4-6.61 6.94 0 4.14 2.44 6.8 6.58 6.8a9.62 9.62 0 0 0 3.75-.69zM95.45 130.71l-.22-1.51h-.09a5.06 5.06 0 0 1-4 1.82 4 4 0 0 1-4.31-4.02c0-3.44 3-5.18 8.09-5.15v-.23c0-.89-.36-2.38-2.77-2.38a7.18 7.18 0 0 0-3.67 1l-.67-2.24a9.89 9.89 0 0 1 4.93-1.2c4.36 0 5.62 2.77 5.62 5.74v4.93a21.74 21.74 0 0 0 .2 3.27zm-.45-6.66c-2.43-.06-4.76.47-4.76 2.54a1.81 1.81 0 0 0 2 2 2.78 2.78 0 0 0 2.69-1.87 2.29 2.29 0 0 0 .11-.76zM102 121.47c0-1.85 0-3.16-.11-4.39h3l.11 2.6h.11a4.08 4.08 0 0 1 3.73-2.91 3.42 3.42 0 0 1 .81.08v3.25a4.57 4.57 0 0 0-1-.11 3 3 0 0 0-3.08 2.6 5.57 5.57 0 0 0-.11 1.06v7.06H102zM124.21 117.08c-.06.92-.11 2-.11 3.92v7.72c0 2.86-.59 4.9-2 6.19a7.84 7.84 0 0 1-5.26 1.65 9.6 9.6 0 0 1-4.76-1.09l.75-2.6a8.31 8.31 0 0 0 4 1c2.24 0 3.92-1.17 3.92-4.11v-1.18h-.06a4.6 4.6 0 0 1-4 2c-3.39 0-5.8-2.8-5.8-6.67 0-4.48 2.91-7.19 6.19-7.19a4.32 4.32 0 0 1 4 2.12l.14-1.81zm-3.56 5.46a3.54 3.54 0 0 0-.11-.93 2.85 2.85 0 0 0-2.8-2.21c-1.93 0-3.36 1.68-3.36 4.45 0 2.32 1.18 4.2 3.33 4.2a2.94 2.94 0 0 0 2.8-2.07 5.52 5.52 0 0 0 .14-1.23zM140.76 123.77c0 5-3.53 7.25-7 7.25-3.87 0-6.84-2.66-6.84-7s2.94-7.22 7.06-7.22 6.78 2.82 6.78 6.97zm-10.28.14c0 2.63 1.29 4.62 3.39 4.62s3.33-1.94 3.33-4.68c0-2.13-.95-4.56-3.3-4.56s-3.42 2.35-3.42 4.62zM56 144.68h3.47v8.12h.06a4.72 4.72 0 0 1 1.71-1.57 4.67 4.67 0 0 1 2.35-.61c2.32 0 4.76 1.54 4.76 5.91v8H64.9v-7.64c0-2-.72-3.47-2.63-3.47a2.81 2.81 0 0 0-2.66 1.93 2.92 2.92 0 0 0-.14 1v8.15H56zM79.69 164.56l-.23-1.51h-.08a5.08 5.08 0 0 1-4 1.82 4.05 4.05 0 0 1-4.29-4.06c0-3.44 3.06-5.18 8.1-5.15v-.23c0-.89-.37-2.38-2.78-2.38a7.17 7.17 0 0 0-3.66 1l-.75-2.23a9.92 9.92 0 0 1 4.93-1.2c4.37 0 5.63 2.77 5.63 5.74v4.93a21.74 21.74 0 0 0 .2 3.27zm-.45-6.66c-2.44-.06-4.76.47-4.76 2.55a1.81 1.81 0 0 0 2 2 2.8 2.8 0 0 0 2.69-1.88 2.59 2.59 0 0 0 .11-.76zM86.24 155c0-1.57 0-2.89-.11-4.06h3l.17 2h.08a4.94 4.94 0 0 1 4.34-2.35c2.38 0 4.85 1.54 4.85 5.85v8.09h-3.43v-7.7c0-2-.72-3.44-2.6-3.44a2.9 2.9 0 0 0-2.69 2 3.58 3.58 0 0 0-.14 1.12v8h-3.47zM114.83 144.68v16c0 1.4 0 2.91.11 3.83h-3.08l-.14-2.15h-.06a4.9 4.9 0 0 1-4.45 2.46c-3.25 0-5.82-2.77-5.82-7 0-4.57 2.82-7.28 6.1-7.28a4.35 4.35 0 0 1 3.84 1.79v-7.73zm-3.45 11.93a4.56 4.56 0 0 0-.08-.9 3 3 0 0 0-3-2.43c-2.21 0-3.44 2-3.44 4.51s1.23 4.31 3.41 4.31a3 3 0 0 0 3-2.44 3.6 3.6 0 0 0 .11-1zM118.52 144.68H122v19.88h-3.48zM129.39 147.12a1.94 1.94 0 1 1-1.93-1.88 1.83 1.83 0 0 1 1.93 1.88zm-3.67 17.44v-13.63h3.47v13.63zM132.89 155c0-1.57 0-2.89-.11-4.06h3l.17 2h.08a4.92 4.92 0 0 1 4.34-2.35c2.38 0 4.85 1.54 4.85 5.85v8.09h-3.45v-7.7c0-2-.73-3.44-2.6-3.44a2.89 2.89 0 0 0-2.69 2 3.58 3.58 0 0 0-.14 1.12v8h-3.47zM161.36 150.93c-.05.92-.11 2-.11 3.92v7.72c0 2.86-.59 4.9-2 6.19a7.81 7.81 0 0 1-5.26 1.65 9.63 9.63 0 0 1-4.76-1.09l.76-2.6a8.24 8.24 0 0 0 4 1c2.24 0 3.92-1.17 3.92-4.11v-1.18h-.05a4.61 4.61 0 0 1-4 2c-3.39 0-5.79-2.8-5.79-6.67 0-4.48 2.91-7.19 6.18-7.19a4.29 4.29 0 0 1 3.95 2.13h.06l.14-1.82zm-3.55 5.46a3.17 3.17 0 0 0-.12-.93 2.85 2.85 0 0 0-2.8-2.21c-1.93 0-3.36 1.68-3.36 4.45 0 2.33 1.18 4.2 3.34 4.2a3 3 0 0 0 2.8-2.07 6.18 6.18 0 0 0 .14-1.23zM253.47 28.7a25.27 25.27 0 0 1 4.24-.33 7 7 0 0 1 4.79 1.42 4.6 4.6 0 0 1 1.5 3.58 5 5 0 0 1-1.32 3.63 7.11 7.11 0 0 1-5.23 1.88 7.45 7.45 0 0 1-1.78-.16v6.86h-2.2zm2.2 8.25a7.34 7.34 0 0 0 1.83.18c2.67 0 4.29-1.3 4.29-3.66s-1.6-3.35-4-3.35a9.44 9.44 0 0 0-2.09.18zM266.49 37.15c0-1.44 0-2.69-.1-3.83h1.95l.08 2.41h.1a3.69 3.69 0 0 1 3.4-2.69 2.43 2.43 0 0 1 .64.08v2.1a3.45 3.45 0 0 0-.76-.07 3.13 3.13 0 0 0-3 2.87 6.33 6.33 0 0 0-.1 1v6.55h-2.21zM285.66 39.36c0 4.55-3.15 6.53-6.12 6.53-3.33 0-5.89-2.44-5.89-6.32 0-4.12 2.69-6.53 6.09-6.53s5.92 2.56 5.92 6.32zm-9.75.13c0 2.69 1.55 4.72 3.73 4.72s3.73-2 3.73-4.77c0-2.08-1-4.72-3.68-4.72s-3.78 2.43-3.78 4.77zM299.09 27.58v14.85c0 1.1 0 2.34.1 3.18h-2l-.11-2.13H297a4.54 4.54 0 0 1-4.19 2.41c-3 0-5.25-2.52-5.25-6.25 0-4.09 2.51-6.6 5.51-6.6a4.09 4.09 0 0 1 3.7 1.88h.06v-7.34zm-2.23 10.74a3.77 3.77 0 0 0-.11-.94 3.28 3.28 0 0 0-3.22-2.59c-2.31 0-3.68 2-3.68 4.75 0 2.49 1.22 4.54 3.63 4.54a3.35 3.35 0 0 0 3.27-2.66 3.74 3.74 0 0 0 .11-1zM313.08 42.26c0 1.27 0 2.38.1 3.35h-2l-.13-2H311a4.62 4.62 0 0 1-4 2.28c-1.93 0-4.24-1.07-4.24-5.39v-7.18H305v6.8c0 2.34.72 3.91 2.75 3.91a3.22 3.22 0 0 0 2.94-2 3.17 3.17 0 0 0 .2-1.14v-7.57h2.24zM325.54 45.15a8.09 8.09 0 0 1-3.52.71c-3.71 0-6.12-2.51-6.12-6.27a6.24 6.24 0 0 1 6.6-6.52 7.57 7.57 0 0 1 3.1.63l-.51 1.73a5.13 5.13 0 0 0-2.59-.59c-2.82 0-4.34 2.08-4.34 4.65 0 2.84 1.82 4.59 4.26 4.59a6.47 6.47 0 0 0 2.74-.6zM331.18 29.79v3.53h3.2V35h-3.2v6.63c0 1.52.43 2.38 1.68 2.38a4.81 4.81 0 0 0 1.29-.15l.1 1.68a5.4 5.4 0 0 1-2 .3 3.09 3.09 0 0 1-2.41-.94 4.57 4.57 0 0 1-.86-3.2V35h-1.91v-1.7H329v-2.93zM342.27 36.65c0-1.27 0-2.32-.1-3.33h2l.1 2h.08a4.22 4.22 0 0 1 3.82-2.32 3.63 3.63 0 0 1 3.47 2.46h.05a5.23 5.23 0 0 1 1.38-1.6 4.15 4.15 0 0 1 2.71-.86c1.63 0 4 1.07 4 5.33v7.24h-2.18v-7c0-2.36-.87-3.78-2.67-3.78a2.89 2.89 0 0 0-2.64 2 3.7 3.7 0 0 0-.18 1.12v7.59H350v-7.25c0-2-.87-3.38-2.57-3.38a3 3 0 0 0-2.76 2.23 3 3 0 0 0-.18 1.09v7.42h-2.19zM374.57 39.36c0 4.55-3.15 6.53-6.12 6.53-3.33 0-5.89-2.44-5.89-6.32 0-4.12 2.69-6.53 6.09-6.53s5.92 2.56 5.92 6.32zm-9.75.13c0 2.69 1.55 4.72 3.73 4.72s3.73-2 3.73-4.77c0-2.08-1-4.72-3.68-4.72s-3.78 2.43-3.78 4.77zM378.07 33.32l2.41 6.91a29.48 29.48 0 0 1 1 3.14h.08c.28-1 .64-2 1-3.14l2.44-6.91h2.33l-4.82 12.29h-2.13l-4.67-12.29zM390.41 39.87c0 3 2 4.27 4.22 4.27a8 8 0 0 0 3.4-.64l.38 1.6a9.89 9.89 0 0 1-4.09.76c-3.78 0-6-2.49-6-6.19S390.46 33 394 33c4 0 5.08 3.53 5.08 5.79a7.43 7.43 0 0 1-.08 1zm6.55-1.6c0-1.42-.58-3.63-3.09-3.63-2.26 0-3.25 2.08-3.43 3.63zM401.89 36.65c0-1.27 0-2.32-.1-3.33h1.95l.1 2h.08a4.23 4.23 0 0 1 3.86-2.32 3.65 3.65 0 0 1 3.48 2.46h.05a5.08 5.08 0 0 1 1.37-1.6 4.2 4.2 0 0 1 2.72-.86c1.62 0 4 1.07 4 5.33v7.24h-2.18v-7c0-2.36-.86-3.78-2.67-3.78a2.89 2.89 0 0 0-2.64 2 3.7 3.7 0 0 0-.18 1.12v7.59h-2.18v-7.25c0-2-.86-3.38-2.56-3.38a3.05 3.05 0 0 0-2.77 2.23 3 3 0 0 0-.18 1.09v7.42h-2.18zM424.31 39.87c.05 3 2 4.27 4.21 4.27a8 8 0 0 0 3.4-.64l.38 1.6a9.83 9.83 0 0 1-4.08.76c-3.79 0-6.05-2.49-6.05-6.19s2.19-6.67 5.77-6.67c4 0 5.07 3.53 5.07 5.79a10 10 0 0 1-.07 1zm6.55-1.6c0-1.42-.59-3.63-3.1-3.63-2.26 0-3.25 2.08-3.43 3.63zM435.78 36.65c0-1.27 0-2.32-.1-3.33h2l.13 2A4.51 4.51 0 0 1 441.9 33c1.7 0 4.34 1 4.34 5.23v7.34H444v-7.05c0-2-.74-3.63-2.85-3.63a3.17 3.17 0 0 0-3 2.29 3.26 3.26 0 0 0-.15 1v7.39h-2.24zM452.46 29.79v3.53h3.2V35h-3.2v6.63c0 1.52.43 2.38 1.68 2.38a4.81 4.81 0 0 0 1.29-.15l.1 1.68a5.4 5.4 0 0 1-2 .3 3.09 3.09 0 0 1-2.41-.94 4.57 4.57 0 0 1-.86-3.2V35h-1.91v-1.7h1.91v-2.93zM265.37 89.05a10.91 10.91 0 0 1-4.52.81c-4.82 0-8.46-3-8.46-8.66 0-5.35 3.64-9 8.94-9a9.08 9.08 0 0 1 4.06.76l-.53 1.8a8 8 0 0 0-3.45-.71c-4 0-6.68 2.56-6.68 7.06 0 4.19 2.41 6.88 6.58 6.88a8.87 8.87 0 0 0 3.6-.71zM268 81.15c0-1.44 0-2.69-.1-3.83h2l.07 2.41h.1a3.69 3.69 0 0 1 3.35-2.73 2.41 2.41 0 0 1 .63.08v2.1a3.45 3.45 0 0 0-.76-.07 3.13 3.13 0 0 0-3 2.87 6.33 6.33 0 0 0-.1 1v6.55H268zM277.27 83.87c.06 3 2 4.27 4.22 4.27a8 8 0 0 0 3.4-.64l.38 1.6a9.85 9.85 0 0 1-4.09.76c-3.78 0-6-2.49-6-6.19s2.15-6.67 5.73-6.67c4 0 5.07 3.53 5.07 5.79a10 10 0 0 1-.07 1zm6.56-1.6c0-1.42-.59-3.63-3.1-3.63-2.26 0-3.25 2.08-3.43 3.63zM289.64 77.32l1.62 6.25c.36 1.37.69 2.64.92 3.91h.07c.28-1.25.69-2.57 1.1-3.89l2-6.27h1.88l1.9 6.14c.46 1.48.82 2.77 1.1 4h.07a40.22 40.22 0 0 1 .94-4l1.76-6.14h2.21l-4 12.29h-2l-1.88-5.87a40.44 40.44 0 0 1-1.09-4h-.05a38 38 0 0 1-1.12 4.06l-2 5.84h-2l-3.71-12.29zM312.82 80.65c0-1.27 0-2.32-.1-3.33h1.95l.1 2h.08a4.23 4.23 0 0 1 3.86-2.32 3.65 3.65 0 0 1 3.48 2.46h.05a5.08 5.08 0 0 1 1.37-1.6 4.18 4.18 0 0 1 2.72-.86c1.62 0 4 1.07 4 5.33v7.24h-2.18v-7c0-2.36-.86-3.78-2.67-3.78a2.89 2.89 0 0 0-2.64 2 3.7 3.7 0 0 0-.18 1.12v7.59h-2.18v-7.25c0-2-.86-3.38-2.56-3.38a3.05 3.05 0 0 0-2.77 2.23 3 3 0 0 0-.18 1.09v7.42h-2.18zM340.8 89.61l-.18-1.55h-.08a4.58 4.58 0 0 1-3.76 1.83 3.5 3.5 0 0 1-3.78-3.53c0-3 2.64-4.6 7.39-4.57v-.26a2.54 2.54 0 0 0-2.8-2.84 6.23 6.23 0 0 0-3.2.91l-.5-1.47A7.58 7.58 0 0 1 338 77c3.76 0 4.67 2.56 4.67 5v4.59a16.55 16.55 0 0 0 .21 3zm-.33-6.27c-2.44 0-5.21.38-5.21 2.76a2 2 0 0 0 2.11 2.14 3.06 3.06 0 0 0 3-2.06 2.22 2.22 0 0 0 .13-.71zM346.23 80.65c0-1.27 0-2.32-.1-3.33h2l.12 2h.06a4.5 4.5 0 0 1 4.04-2.32c1.7 0 4.34 1 4.34 5.23v7.34h-2.23v-7.05c0-2-.74-3.63-2.85-3.63a3.17 3.17 0 0 0-3 2.29 3 3 0 0 0-.16 1v7.39h-2.23zM367.12 89.61l-.12-1.55h-.08a4.61 4.61 0 0 1-3.76 1.83 3.5 3.5 0 0 1-3.76-3.53c0-3 2.65-4.6 7.39-4.57v-.26a2.53 2.53 0 0 0-2.79-2.84 6.2 6.2 0 0 0-3.2.91l-.51-1.47a7.65 7.65 0 0 1 4-1.09c3.76 0 4.67 2.56 4.67 5v4.59a16.55 16.55 0 0 0 .21 3zm-.33-6.27c-2.43 0-5.2.38-5.2 2.76a2 2 0 0 0 2.11 2.14 3.06 3.06 0 0 0 3-2.06 2.52 2.52 0 0 0 .12-.71zM383.14 77.32c-.05.89-.1 1.88-.1 3.38v7.13c0 2.82-.56 4.55-1.75 5.61a6.5 6.5 0 0 1-4.47 1.48 8 8 0 0 1-4.09-1l.56-1.7a7 7 0 0 0 3.61 1c2.28 0 4-1.19 4-4.29V87.5h-.05a4.4 4.4 0 0 1-3.91 2.06c-3 0-5.23-2.59-5.23-6 0-4.17 2.71-6.53 5.53-6.53a4.11 4.11 0 0 1 3.76 2.14l.1-1.85zm-2.31 4.85a3.29 3.29 0 0 0-.12-1 3.23 3.23 0 0 0-3.13-2.36c-2.13 0-3.65 1.8-3.65 4.65 0 2.41 1.22 4.42 3.63 4.42a3.28 3.28 0 0 0 3.1-2.29 4.08 4.08 0 0 0 .17-1.19zM388 83.87c.05 3 2 4.27 4.22 4.27a8 8 0 0 0 3.4-.64l.38 1.6a9.89 9.89 0 0 1-4.09.76c-3.78 0-6-2.49-6-6.19S388 77 391.62 77c4 0 5.08 3.53 5.08 5.79a10 10 0 0 1-.07 1zm6.55-1.6c0-1.42-.58-3.63-3.09-3.63-2.26 0-3.25 2.08-3.43 3.63zM399.47 80.65c0-1.27 0-2.32-.1-3.33h1.95l.1 2h.08a4.23 4.23 0 0 1 3.86-2.32 3.65 3.65 0 0 1 3.48 2.46h.05a5.08 5.08 0 0 1 1.37-1.6A4.2 4.2 0 0 1 413 77c1.62 0 4 1.07 4 5.33v7.24h-2.18v-7c0-2.36-.86-3.78-2.67-3.78a2.89 2.89 0 0 0-2.64 2 3.7 3.7 0 0 0-.18 1.12v7.59h-2.18v-7.25c0-2-.86-3.38-2.56-3.38a3.05 3.05 0 0 0-2.77 2.23 3 3 0 0 0-.18 1.09v7.42h-2.18zM421.89 83.87c.05 3 2 4.27 4.21 4.27a8 8 0 0 0 3.4-.64l.38 1.6a9.83 9.83 0 0 1-4.08.76c-3.79 0-6.05-2.49-6.05-6.19s2.19-6.67 5.77-6.67c4 0 5.07 3.53 5.07 5.79a10 10 0 0 1-.07 1zm6.55-1.6c0-1.42-.59-3.63-3.1-3.63-2.26 0-3.25 2.08-3.43 3.63zM433.36 80.65c0-1.27 0-2.32-.1-3.33h2l.13 2h.05a4.51 4.51 0 0 1 4.04-2.32c1.7 0 4.34 1 4.34 5.23v7.34h-2.23v-7.05c0-2-.74-3.63-2.85-3.63a3.17 3.17 0 0 0-3 2.29 3.26 3.26 0 0 0-.15 1v7.39h-2.24zM450 73.79v3.53h3.2V79H450v6.63c0 1.52.43 2.38 1.68 2.38a4.81 4.81 0 0 0 1.29-.15l.11 1.68a5.5 5.5 0 0 1-2 .3 3.1 3.1 0 0 1-2.41-.94 4.57 4.57 0 0 1-.86-3.2V79H446v-1.7h1.9v-2.93zM256.6 118.37h-5.2v-1.87h12.67v1.87h-5.23v15.24h-2.24zM264.75 125.15c0-1.44 0-2.69-.1-3.83h2l.07 2.41h.1a3.69 3.69 0 0 1 3.41-2.69 2.41 2.41 0 0 1 .63.08v2.1a3.45 3.45 0 0 0-.76-.07 3.14 3.14 0 0 0-3 2.87 6.33 6.33 0 0 0-.1 1v6.55h-2.21zM279.73 133.61l-.18-1.55h-.07a4.61 4.61 0 0 1-3.76 1.83 3.5 3.5 0 0 1-3.76-3.53c0-3 2.64-4.6 7.39-4.57v-.26a2.53 2.53 0 0 0-2.79-2.84 6.2 6.2 0 0 0-3.2.91l-.51-1.47a7.65 7.65 0 0 1 4-1.09c3.76 0 4.67 2.56 4.67 5v4.59a17.62 17.62 0 0 0 .2 3zm-.33-6.27c-2.44 0-5.2.38-5.2 2.76a2 2 0 0 0 2.1 2.14 3.08 3.08 0 0 0 3-2.06 2.52 2.52 0 0 0 .12-.71zM293.92 133.15a8.09 8.09 0 0 1-3.52.71c-3.71 0-6.12-2.51-6.12-6.27a6.24 6.24 0 0 1 6.6-6.52 7.57 7.57 0 0 1 3.1.63l-.51 1.73a5.13 5.13 0 0 0-2.59-.59c-2.82 0-4.34 2.08-4.34 4.65 0 2.84 1.82 4.59 4.26 4.59a6.47 6.47 0 0 0 2.74-.6zM298.75 127h.05c.3-.44.74-1 1.09-1.4l3.61-4.24h2.69l-4.75 5.05 5.41 7.24h-2.72l-4.24-5.89-1.14 1.24v4.62h-2.21v-18h2.21zM311.37 117.87a1.39 1.39 0 0 1-2.77 0 1.36 1.36 0 0 1 1.4-1.4 1.33 1.33 0 0 1 1.37 1.4zm-2.49 15.74v-12.29h2.23v12.29zM314.82 124.65c0-1.27 0-2.32-.1-3.33h2l.12 2h.06a4.5 4.5 0 0 1 4.06-2.31c1.7 0 4.34 1 4.34 5.23v7.34H323v-7.09c0-2-.73-3.63-2.84-3.63a3.17 3.17 0 0 0-3 2.29 3 3 0 0 0-.16 1v7.39h-2.23zM339.5 121.32c-.05.89-.1 1.88-.1 3.38v7.13c0 2.82-.56 4.55-1.76 5.61a6.5 6.5 0 0 1-4.47 1.48 7.91 7.91 0 0 1-4.08-1l.56-1.7a6.89 6.89 0 0 0 3.6 1c2.29 0 4-1.19 4-4.29v-1.43a4.38 4.38 0 0 1-3.91 2.06c-3.05 0-5.23-2.59-5.23-6 0-4.17 2.72-6.53 5.54-6.53a4.09 4.09 0 0 1 3.83 2.13h.05l.1-1.85zm-2.31 4.85a3.28 3.28 0 0 0-.13-1 3.23 3.23 0 0 0-3.12-2.36c-2.14 0-3.66 1.8-3.66 4.65 0 2.41 1.22 4.42 3.63 4.42a3.27 3.27 0 0 0 3.1-2.29 3.78 3.78 0 0 0 .18-1.19zM351 117.87a1.31 1.31 0 0 1-1.42 1.37 1.33 1.33 0 0 1-1.35-1.37 1.37 1.37 0 0 1 1.4-1.4 1.33 1.33 0 0 1 1.37 1.4zm-2.49 15.74v-12.29h2.24v12.29zM354.42 124.65c0-1.27 0-2.32-.1-3.33h2l.13 2h.05a4.51 4.51 0 0 1 4.06-2.31c1.7 0 4.34 1 4.34 5.23v7.34h-2.23v-7.09c0-2-.74-3.63-2.84-3.63a3.17 3.17 0 0 0-3 2.29 3.26 3.26 0 0 0-.15 1v7.39h-2.24zM371.1 117.79v3.53h3.2V123h-3.2v6.63c0 1.52.44 2.38 1.68 2.38a4.9 4.9 0 0 0 1.3-.15l.1 1.68a5.44 5.44 0 0 1-2 .3 3.12 3.12 0 0 1-2.42-.94 4.57 4.57 0 0 1-.86-3.2V123H367v-1.7h1.9v-2.95zM377.91 127.87c0 3 2 4.27 4.21 4.27a8 8 0 0 0 3.41-.64l.38 1.6a9.93 9.93 0 0 1-4.09.76c-3.78 0-6-2.49-6-6.19S378 121 381.54 121c4 0 5.08 3.53 5.08 5.79a7.43 7.43 0 0 1-.08 1zm6.55-1.6c0-1.42-.58-3.63-3.1-3.63-2.26 0-3.25 2.08-3.43 3.63zM389.38 125.15c0-1.44 0-2.69-.1-3.83h2l.07 2.41h.11a3.67 3.67 0 0 1 3.4-2.69 2.41 2.41 0 0 1 .63.08v2.1a3.39 3.39 0 0 0-.76-.07 3.13 3.13 0 0 0-3 2.87 5.35 5.35 0 0 0-.11 1v6.55h-2.21zM398.68 133.61V123H397v-1.7h1.73v-.58a5.81 5.81 0 0 1 1.42-4.3 4.27 4.27 0 0 1 3-1.14 5.14 5.14 0 0 1 1.91.36l-.31 1.72a3.34 3.34 0 0 0-1.42-.28c-1.9 0-2.39 1.68-2.39 3.56v.66h3v1.7h-3v10.59zM412.67 133.61l-.18-1.55h-.08a4.58 4.58 0 0 1-3.76 1.83 3.5 3.5 0 0 1-3.75-3.53c0-3 2.64-4.6 7.38-4.57v-.26a2.53 2.53 0 0 0-2.79-2.84 6.23 6.23 0 0 0-3.2.91l-.51-1.47a7.65 7.65 0 0 1 4-1.09c3.76 0 4.67 2.56 4.67 5v4.59a16.55 16.55 0 0 0 .21 3zm-.34-6.27c-2.43 0-5.2.38-5.2 2.76a2 2 0 0 0 2.11 2.14 3.06 3.06 0 0 0 3-2.06 2.52 2.52 0 0 0 .12-.71zM426.86 133.15a8.18 8.18 0 0 1-3.53.71c-3.71 0-6.12-2.51-6.12-6.27a6.24 6.24 0 0 1 6.6-6.52 7.57 7.57 0 0 1 3.1.63l-.51 1.73a5.1 5.1 0 0 0-2.59-.59c-2.82 0-4.34 2.08-4.34 4.65 0 2.84 1.83 4.59 4.26 4.59a6.57 6.57 0 0 0 2.75-.6zM430.56 127.87c.06 3 2 4.27 4.22 4.27a8 8 0 0 0 3.4-.64l.38 1.6a9.85 9.85 0 0 1-4.09.76c-3.78 0-6-2.49-6-6.19s2.19-6.63 5.77-6.63c4 0 5.07 3.53 5.07 5.79a10 10 0 0 1-.07 1zm6.56-1.6c0-1.42-.59-3.63-3.1-3.63-2.26 0-3.25 2.08-3.43 3.63zM257.05 177.61l-5.58-17.11h2.39l2.66 8.42c.74 2.32 1.37 4.4 1.83 6.4.48-2 1.19-4.14 2-6.37l2.89-8.45h2.36l-6.12 17.11zM277.67 171.36c0 4.55-3.15 6.53-6.12 6.53-3.32 0-5.89-2.44-5.89-6.32 0-4.12 2.69-6.53 6.09-6.53s5.92 2.56 5.92 6.32zm-9.75.13c0 2.69 1.55 4.72 3.73 4.72s3.74-2 3.74-4.77c0-2.08-1.05-4.72-3.69-4.72s-3.78 2.43-3.78 4.77zM283 161.87a1.39 1.39 0 0 1-2.77 0 1.36 1.36 0 0 1 1.4-1.4 1.33 1.33 0 0 1 1.37 1.4zm-2.49 15.74v-12.29h2.23v12.29zM295.19 177.15a8.18 8.18 0 0 1-3.53.71c-3.71 0-6.12-2.51-6.12-6.27a6.24 6.24 0 0 1 6.6-6.52 7.57 7.57 0 0 1 3.1.63l-.51 1.73a5.1 5.1 0 0 0-2.59-.59c-2.82 0-4.34 2.08-4.34 4.65 0 2.84 1.83 4.59 4.27 4.59a6.55 6.55 0 0 0 2.74-.6zM298.89 171.87c.06 3 2 4.27 4.22 4.27a8 8 0 0 0 3.4-.64l.38 1.6a9.85 9.85 0 0 1-4.09.76c-3.78 0-6-2.49-6-6.19s2.2-6.67 5.73-6.67c4 0 5.07 3.53 5.07 5.79a10 10 0 0 1-.07 1zm6.56-1.6c0-1.42-.59-3.63-3.1-3.63-2.26 0-3.25 2.08-3.43 3.63zM316.26 169.92v1.65H310v-1.65zM321.36 161.87a1.38 1.38 0 0 1-2.76 0 1.36 1.36 0 0 1 1.39-1.4 1.33 1.33 0 0 1 1.37 1.4zm-2.48 15.74v-12.29h2.23v12.29zM324.82 168.65c0-1.27 0-2.32-.11-3.33h2l.13 2h.05a4.51 4.51 0 0 1 4.06-2.31c1.71 0 4.35 1 4.35 5.23v7.34H333v-7.09c0-2-.73-3.63-2.84-3.63a3.18 3.18 0 0 0-3 2.29 3.26 3.26 0 0 0-.15 1v7.39h-2.23zM341.5 161.79v3.53h3.2V167h-3.2v6.63c0 1.52.43 2.38 1.67 2.38a4.84 4.84 0 0 0 1.3-.15l.1 1.68a5.44 5.44 0 0 1-2 .3 3.09 3.09 0 0 1-2.41-.94 4.52 4.52 0 0 1-.87-3.2V167h-1.9v-1.7h1.9v-2.95zM348.3 171.87c.05 3 2 4.27 4.22 4.27a8 8 0 0 0 3.4-.64l.38 1.6a9.89 9.89 0 0 1-4.09.76c-3.78 0-6-2.49-6-6.19s2.18-6.63 5.76-6.63c4 0 5.08 3.53 5.08 5.79a7.43 7.43 0 0 1-.08 1zm6.55-1.6c0-1.42-.58-3.63-3.1-3.63-2.26 0-3.25 2.08-3.42 3.63zM370.36 165.32c-.05.89-.1 1.88-.1 3.38v7.13c0 2.82-.56 4.55-1.75 5.61a6.5 6.5 0 0 1-4.47 1.48 8 8 0 0 1-4.09-1l.56-1.7a6.93 6.93 0 0 0 3.61 1c2.28 0 4-1.19 4-4.29v-1.43H368a4.4 4.4 0 0 1-3.91 2.06c-3.05 0-5.23-2.59-5.23-6 0-4.17 2.71-6.53 5.53-6.53a4.11 4.11 0 0 1 3.84 2.13h.05l.1-1.85zm-2.31 4.85a3.29 3.29 0 0 0-.12-1 3.23 3.23 0 0 0-3.13-2.36c-2.13 0-3.65 1.8-3.65 4.65 0 2.41 1.22 4.42 3.63 4.42a3.28 3.28 0 0 0 3.1-2.29 4.08 4.08 0 0 0 .17-1.19zM373.82 169.15c0-1.44 0-2.69-.11-3.83h2l.08 2.41h.1a3.68 3.68 0 0 1 3.4-2.69 2.41 2.41 0 0 1 .63.08v2.1a3.33 3.33 0 0 0-.76-.07 3.13 3.13 0 0 0-3 2.87 6.26 6.26 0 0 0-.11 1v6.55h-2.2zM388.79 177.61l-.17-1.55h-.08a4.58 4.58 0 0 1-3.76 1.83 3.49 3.49 0 0 1-3.75-3.53c0-3 2.64-4.6 7.38-4.57v-.26a2.53 2.53 0 0 0-2.79-2.84 6.23 6.23 0 0 0-3.2.91l-.51-1.47a7.65 7.65 0 0 1 4-1.09c3.76 0 4.67 2.56 4.67 5v4.59a16.55 16.55 0 0 0 .21 3zm-.33-6.27c-2.43-.05-5.2.38-5.2 2.76a2 2 0 0 0 2.11 2.14 3.06 3.06 0 0 0 3-2.06 2.52 2.52 0 0 0 .12-.71zM396.82 161.79v3.53H400V167h-3.2v6.63c0 1.52.43 2.38 1.67 2.38a4.84 4.84 0 0 0 1.3-.15l.1 1.68a5.44 5.44 0 0 1-2 .3 3.09 3.09 0 0 1-2.41-.94 4.52 4.52 0 0 1-.87-3.2V167h-1.9v-1.7h1.9v-2.95zM403.62 171.87c.05 3 2 4.27 4.22 4.27a8 8 0 0 0 3.4-.64l.38 1.6a9.89 9.89 0 0 1-4.09.76c-3.78 0-6-2.49-6-6.19s2.18-6.63 5.76-6.63c4 0 5.08 3.53 5.08 5.79a7.43 7.43 0 0 1-.08 1zm6.55-1.6c0-1.42-.58-3.63-3.1-3.63-2.26 0-3.25 2.08-3.42 3.63zM425.71 159.58v14.85c0 1.1 0 2.34.1 3.18h-2l-.11-2.13h-.05a4.54 4.54 0 0 1-4.19 2.41c-3 0-5.25-2.52-5.25-6.25 0-4.09 2.51-6.6 5.51-6.6a4.09 4.09 0 0 1 3.7 1.88h.06v-7.34zm-2.23 10.74a3.77 3.77 0 0 0-.11-.94 3.28 3.28 0 0 0-3.22-2.59c-2.31 0-3.68 2-3.68 4.75 0 2.49 1.22 4.54 3.63 4.54a3.35 3.35 0 0 0 3.27-2.66 3.74 3.74 0 0 0 .11-1zM443.56 177.15a8.18 8.18 0 0 1-3.53.71c-3.71 0-6.12-2.51-6.12-6.27a6.24 6.24 0 0 1 6.6-6.52 7.57 7.57 0 0 1 3.1.63l-.51 1.73a5.1 5.1 0 0 0-2.59-.59c-2.82 0-4.34 2.08-4.34 4.65 0 2.84 1.83 4.59 4.26 4.59a6.57 6.57 0 0 0 2.75-.6zM457.14 171.36c0 4.55-3.15 6.53-6.12 6.53-3.32 0-5.89-2.44-5.89-6.32 0-4.12 2.69-6.53 6.09-6.53s5.92 2.56 5.92 6.32zm-9.75.13c0 2.69 1.55 4.72 3.73 4.72s3.74-2 3.74-4.77c0-2.08-1.05-4.72-3.69-4.72s-3.78 2.43-3.78 4.77zM460 159.58h2.23v18H460zM466 159.58h2.23v18H466zM478.75 177.61l-.18-1.55h-.08a4.58 4.58 0 0 1-3.76 1.83 3.5 3.5 0 0 1-3.75-3.53c0-3 2.64-4.6 7.38-4.57v-.26a2.53 2.53 0 0 0-2.79-2.84 6.23 6.23 0 0 0-3.2.91l-.51-1.47a7.65 7.65 0 0 1 4-1.09c3.76 0 4.67 2.56 4.67 5v4.59a16.55 16.55 0 0 0 .21 3zm-.33-6.27c-2.44-.05-5.21.38-5.21 2.76a2 2 0 0 0 2.11 2.14 3.06 3.06 0 0 0 3-2.06 2.53 2.53 0 0 0 .13-.71zM484.08 177.61c.05-.84.1-2.08.1-3.18v-14.85h2.21v7.72h.05a4.57 4.57 0 0 1 4.19-2.26c3 0 5.2 2.54 5.18 6.27 0 4.39-2.77 6.58-5.51 6.58a4.4 4.4 0 0 1-4.12-2.31h-.07l-.1 2zm2.31-4.93a4.38 4.38 0 0 0 .1.82 3.45 3.45 0 0 0 3.35 2.61c2.34 0 3.73-1.9 3.73-4.72 0-2.47-1.27-4.57-3.65-4.57a3.57 3.57 0 0 0-3.41 2.74 4.47 4.47 0 0 0-.12.91zM509.74 171.36c0 4.55-3.14 6.53-6.11 6.53-3.33 0-5.9-2.44-5.9-6.32 0-4.12 2.7-6.53 6.1-6.53s5.91 2.56 5.91 6.32zm-9.75.13c0 2.69 1.55 4.72 3.74 4.72s3.73-2 3.73-4.77c0-2.08-1-4.72-3.68-4.72s-3.78 2.43-3.78 4.77zM512.56 169.15c0-1.44 0-2.69-.1-3.83h2l.07 2.41h.1A3.69 3.69 0 0 1 518 165a2.41 2.41 0 0 1 .63.08v2.1a3.45 3.45 0 0 0-.76-.07 3.13 3.13 0 0 0-3 2.87 6.33 6.33 0 0 0-.1 1v6.55h-2.21zM527.54 177.61l-.18-1.55h-.07a4.61 4.61 0 0 1-3.76 1.83 3.5 3.5 0 0 1-3.76-3.53c0-3 2.64-4.6 7.39-4.57v-.26a2.53 2.53 0 0 0-2.79-2.84 6.2 6.2 0 0 0-3.2.91l-.51-1.47a7.65 7.65 0 0 1 4-1.09c3.76 0 4.67 2.56 4.67 5v4.59a17.62 17.62 0 0 0 .2 3zm-.33-6.27c-2.44-.05-5.2.38-5.2 2.76a2 2 0 0 0 2.1 2.14 3.05 3.05 0 0 0 3-2.06 2.22 2.22 0 0 0 .13-.71zM535.56 161.79v3.53h3.2V167h-3.2v6.63c0 1.52.44 2.38 1.68 2.38a4.9 4.9 0 0 0 1.3-.15l.1 1.68a5.44 5.44 0 0 1-2 .3 3.12 3.12 0 0 1-2.42-.94 4.57 4.57 0 0 1-.86-3.2V167h-1.9v-1.7h1.9v-2.95zM543.76 161.87a1.31 1.31 0 0 1-1.42 1.37 1.33 1.33 0 0 1-1.34-1.37 1.36 1.36 0 0 1 1.39-1.4 1.33 1.33 0 0 1 1.37 1.4zm-2.48 15.74v-12.29h2.23v12.29zM558.34 171.36c0 4.55-3.15 6.53-6.12 6.53-3.33 0-5.89-2.44-5.89-6.32 0-4.12 2.69-6.53 6.09-6.53s5.92 2.56 5.92 6.32zm-9.75.13c0 2.69 1.55 4.72 3.73 4.72s3.73-2 3.73-4.77c0-2.08-1-4.72-3.68-4.72s-3.78 2.43-3.78 4.77zM561.16 168.65c0-1.27 0-2.32-.11-3.33h2l.13 2h.05a4.51 4.51 0 0 1 4.06-2.31c1.71 0 4.35 1 4.35 5.23v7.34h-2.24v-7.09c0-2-.73-3.63-2.84-3.63a3.18 3.18 0 0 0-3 2.29 3.26 3.26 0 0 0-.15 1v7.39h-2.23z"/><circle class="cls-4" cx="228.36" cy="39" r="4.5"/><circle class="cls-4" cx="228.37" cy="81.97" r="4.5"/><circle class="cls-4" cx="228.39" cy="124.93" r="4.5"/><circle class="cls-4" cx="228.39" cy="166.93" r="4.5"/><circle class="cls-4" cx="228.36" cy="249" r="4.5"/><circle class="cls-4" cx="228.37" cy="291.97" r="4.5"/><circle class="cls-4" cx="228.39" cy="334.93" r="4.5"/><circle class="cls-4" cx="228.39" cy="378.93" r="4.5"/><circle class="cls-4" cx="228.36" cy="463" r="4.5"/><circle class="cls-4" cx="228.37" cy="505.97" r="4.5"/><circle class="cls-4" cx="228.39" cy="548.93" r="4.5"/><circle class="cls-4" cx="228.39" cy="595.93" r="4.5"/><path class="cls-3" d="M43 353.71l-4.62-18.87h3.67l1.79 8.57c.48 2.29.92 4.7 1.23 6.58h.06c.3-2 .84-4.23 1.37-6.61l2-8.54h3.62l1.88 8.68c.48 2.24.87 4.34 1.15 6.38h.06c.33-2.07.78-4.23 1.28-6.52l2-8.54H62l-5.07 18.87h-3.7l-2-8.88a53.78 53.78 0 0 1-1-6c-.34 2-.7 3.84-1.26 6l-2.19 8.88zM70.76 353.71l-.23-1.51h-.08a5.08 5.08 0 0 1-4 1.82 4.05 4.05 0 0 1-4.32-4.02c0-3.44 3.05-5.18 8.09-5.15v-.23c0-.89-.36-2.38-2.77-2.38a7.24 7.24 0 0 0-3.67 1l-.67-2.24a9.89 9.89 0 0 1 4.93-1.2c4.37 0 5.63 2.77 5.63 5.74v4.93a21.89 21.89 0 0 0 .19 3.27zm-.45-6.66c-2.44-.06-4.76.47-4.76 2.54a1.81 1.81 0 0 0 2 2 2.79 2.79 0 0 0 2.69-1.87 2.59 2.59 0 0 0 .11-.76zM77.31 344.47c0-1.85 0-3.16-.11-4.39h3l.11 2.6h.12a4.06 4.06 0 0 1 3.72-2.91 3.37 3.37 0 0 1 .81.08v3.25a4.57 4.57 0 0 0-1-.11 3 3 0 0 0-3.08 2.6 6.52 6.52 0 0 0-.11 1.06v7.06h-3.46zM89.46 347.86c.08 2.46 2 3.53 4.2 3.53a10.28 10.28 0 0 0 3.78-.62l.5 2.38a12.74 12.74 0 0 1-4.76.84c-4.42 0-7-2.71-7-6.89 0-3.78 2.29-7.33 6.66-7.33s5.88 3.64 5.88 6.63a9.21 9.21 0 0 1-.11 1.46zm6-2.41c0-1.26-.53-3.33-2.82-3.33-2.13 0-3 1.93-3.17 3.33zM101.47 333.83h3.47V342h.06a4.72 4.72 0 0 1 1.71-1.57 4.67 4.67 0 0 1 2.35-.61c2.32 0 4.76 1.54 4.76 5.9v8h-3.44v-7.64c0-2-.73-3.47-2.64-3.47a2.81 2.81 0 0 0-2.66 1.93 2.92 2.92 0 0 0-.14 1v8.15h-3.47zM130.45 346.77c0 5-3.53 7.25-7 7.25-3.86 0-6.83-2.66-6.83-7s2.94-7.22 7.06-7.22 6.77 2.82 6.77 6.97zm-10.27.14c0 2.63 1.28 4.62 3.38 4.62s3.34-1.94 3.34-4.68c0-2.13-1-4.56-3.31-4.56s-3.41 2.35-3.41 4.62zM145.49 349.62c0 1.63 0 3 .11 4.09h-3l-.17-2.07h-.06A4.93 4.93 0 0 1 138 354c-2.49 0-4.76-1.48-4.76-5.94v-8h3.45v7.42c0 2.26.73 3.72 2.55 3.72a2.91 2.91 0 0 0 2.63-1.85 3.18 3.18 0 0 0 .19-1.06v-8.23h3.45zM149 350.55a7.79 7.79 0 0 0 3.5 1c1.52 0 2.19-.62 2.19-1.51s-.56-1.4-2.24-2c-2.66-.93-3.78-2.38-3.75-4 0-2.41 2-4.28 5.15-4.28a8 8 0 0 1 3.61.81l-.67 2.44a6.08 6.08 0 0 0-2.89-.79c-1.23 0-1.9.59-1.9 1.43s.64 1.29 2.38 1.9c2.46.9 3.61 2.16 3.64 4.17 0 2.47-1.93 4.26-5.54 4.26a8.81 8.81 0 0 1-4.15-.95zM163.32 347.86c.09 2.46 2 3.53 4.2 3.53a10.24 10.24 0 0 0 3.78-.62l.51 2.38a12.78 12.78 0 0 1-4.76.84c-4.43 0-7-2.71-7-6.89 0-3.78 2.3-7.33 6.66-7.33s5.88 3.64 5.88 6.63a8.14 8.14 0 0 1-.11 1.46zm6-2.41c0-1.26-.54-3.33-2.83-3.33-2.13 0-3 1.93-3.17 3.33zM58 380.62c0 5-3.53 7.25-7 7.25-3.86 0-6.83-2.66-6.83-7s2.94-7.22 7.06-7.22 6.77 2.82 6.77 6.97zm-10.27.14c0 2.63 1.28 4.62 3.38 4.62s3.34-1.93 3.34-4.68c0-2.13-1-4.56-3.31-4.56s-3.41 2.35-3.41 4.62zM60.83 378.46c0-1.79-.06-3.25-.11-4.53h3l.17 2.1H64a5.29 5.29 0 0 1 4.67-2.41c3.14 0 5.74 2.69 5.74 6.94 0 4.93-3.11 7.31-6.21 7.31a4.49 4.49 0 0 1-3.84-1.82h-.06v7.06h-3.47zm3.44 3.39a3.3 3.3 0 0 0 .12.95 3.1 3.1 0 0 0 3 2.41c2.18 0 3.47-1.82 3.47-4.51 0-2.41-1.17-4.37-3.39-4.37a3.22 3.22 0 0 0-3.08 2.55 3.29 3.29 0 0 0-.14.87zM79.65 381.71c.08 2.46 2 3.53 4.2 3.53a10.32 10.32 0 0 0 3.78-.62l.5 2.38a12.78 12.78 0 0 1-4.76.84c-4.42 0-7-2.71-7-6.89 0-3.78 2.3-7.33 6.67-7.33s5.88 3.64 5.88 6.63a7.94 7.94 0 0 1-.12 1.46zm6-2.41c0-1.26-.53-3.33-2.83-3.33-2.13 0-3 1.93-3.16 3.33zM91.66 378.32c0-1.85 0-3.16-.11-4.39h3l.11 2.6h.12a4.06 4.06 0 0 1 3.72-2.91 4 4 0 0 1 .81.08v3.3a4.57 4.57 0 0 0-1-.11 3 3 0 0 0-3.08 2.6 6.53 6.53 0 0 0-.11 1.07v7.05h-3.46zM109 387.56l-.22-1.51h-.08a5.08 5.08 0 0 1-4 1.82 4.05 4.05 0 0 1-4.29-4.06c0-3.44 3-5.18 8.09-5.15v-.23c0-.89-.36-2.38-2.77-2.38a7.24 7.24 0 0 0-3.67 1l-.67-2.24a9.89 9.89 0 0 1 4.93-1.2c4.37 0 5.63 2.77 5.63 5.74v4.93a21.89 21.89 0 0 0 .19 3.27zm-.44-6.66c-2.44-.06-4.76.47-4.76 2.55a1.81 1.81 0 0 0 2 2 2.8 2.8 0 0 0 2.69-1.88 2.59 2.59 0 0 0 .11-.76zM119.38 370v3.9h3.27v2.57h-3.27v6c0 1.65.45 2.52 1.76 2.52a4.88 4.88 0 0 0 1.35-.17l.05 2.64a7.74 7.74 0 0 1-2.49.33 4 4 0 0 1-3-1.12 5.41 5.41 0 0 1-1.06-3.81v-6.36h-2v-2.57h2v-3.08zM128.93 370.12a1.94 1.94 0 1 1-1.94-1.88 1.83 1.83 0 0 1 1.94 1.88zm-3.67 17.44v-13.63h3.47v13.63zM145.39 380.62c0 5-3.53 7.25-7 7.25-3.86 0-6.83-2.66-6.83-7s2.94-7.22 7.05-7.22 6.78 2.82 6.78 6.97zm-10.28.14c0 2.63 1.29 4.62 3.39 4.62s3.33-1.93 3.33-4.68c0-2.13-1-4.56-3.3-4.56s-3.42 2.35-3.42 4.62zM148.22 378c0-1.57 0-2.89-.11-4.06h3l.17 2h.08a4.92 4.92 0 0 1 4.34-2.35c2.38 0 4.85 1.54 4.85 5.85v8.09h-3.45v-7.7c0-2-.73-3.44-2.6-3.44a2.89 2.89 0 0 0-2.69 2 3.58 3.58 0 0 0-.14 1.12v8h-3.47zM164.07 384.4a7.71 7.71 0 0 0 3.5 1c1.51 0 2.18-.62 2.18-1.51s-.56-1.4-2.24-2c-2.66-.93-3.78-2.38-3.75-4 0-2.41 2-4.28 5.15-4.28a8 8 0 0 1 3.61.81l-.67 2.44a6.08 6.08 0 0 0-2.88-.79c-1.24 0-1.91.59-1.91 1.43s.65 1.29 2.38 1.9c2.47.9 3.61 2.16 3.64 4.18 0 2.46-1.93 4.25-5.54 4.25a8.84 8.84 0 0 1-4.15-.95zM256.16 250.64l-1.78 5.36h-2.28l5.81-17.12h2.67l5.84 17.12h-2.36l-1.83-5.39zm5.61-1.72L260.1 244c-.38-1.12-.64-2.13-.89-3.12-.26 1-.54 2-.87 3.09l-1.67 5zM278.83 252.67c0 1.27 0 2.39.11 3.36h-2l-.13-2h-.05a4.63 4.63 0 0 1-4.07 2.28c-1.92 0-4.24-1.06-4.24-5.38v-7.18h2.24v6.8c0 2.34.71 3.91 2.74 3.91a3.24 3.24 0 0 0 2.95-2 3.45 3.45 0 0 0 .2-1.14v-7.54h2.23zM285.23 240.21v3.53h3.2v1.7h-3.2v6.62c0 1.53.43 2.39 1.68 2.39a4.81 4.81 0 0 0 1.29-.15l.1 1.67a5.37 5.37 0 0 1-2 .31 3.09 3.09 0 0 1-2.41-.94 4.57 4.57 0 0 1-.86-3.2v-6.7h-1.91v-1.7h1.91v-3zM301.91 249.78c0 4.54-3.15 6.52-6.12 6.52-3.32 0-5.89-2.43-5.89-6.32 0-4.11 2.69-6.52 6.1-6.52s5.91 2.54 5.91 6.32zm-9.75.13c0 2.69 1.55 4.72 3.73 4.72s3.74-2 3.74-4.77c0-2.09-1-4.73-3.68-4.73s-3.79 2.44-3.79 4.78zM304.73 247.06c0-1.27 0-2.31-.1-3.32h1.95l.1 2h.08a4.24 4.24 0 0 1 3.86-2.26 3.62 3.62 0 0 1 3.48 2.46 5 5 0 0 1 1.37-1.6 4.2 4.2 0 0 1 2.72-.86c1.62 0 4 1.06 4 5.33V256h-2.18v-7c0-2.36-.86-3.78-2.67-3.78a2.9 2.9 0 0 0-2.64 2 3.7 3.7 0 0 0-.17 1.11V256h-2.19v-7.37c0-1.95-.86-3.37-2.56-3.37a3 3 0 0 0-2.77 2.23 3 3 0 0 0-.18 1.09V256h-2.18zM332.71 256l-.18-1.55h-.08a4.56 4.56 0 0 1-3.75 1.82 3.5 3.5 0 0 1-3.76-3.52c0-3 2.64-4.6 7.39-4.57V248a2.54 2.54 0 0 0-2.8-2.84 6.13 6.13 0 0 0-3.2.91l-.5-1.47a7.61 7.61 0 0 1 4-1.09c3.76 0 4.68 2.56 4.68 5v4.6a17.62 17.62 0 0 0 .2 2.95zm-.33-6.28c-2.44-.05-5.21.38-5.21 2.77a2 2 0 0 0 2.11 2.13 3 3 0 0 0 3-2.05 2.22 2.22 0 0 0 .13-.71zM340.73 240.21v3.53h3.2v1.7h-3.2v6.62c0 1.53.43 2.39 1.68 2.39a4.81 4.81 0 0 0 1.29-.15l.1 1.67a5.37 5.37 0 0 1-2 .31 3.09 3.09 0 0 1-2.41-.94 4.57 4.57 0 0 1-.86-3.2v-6.7h-1.91v-1.7h1.91v-3zM348.93 240.28a1.31 1.31 0 0 1-1.42 1.37 1.33 1.33 0 0 1-1.35-1.37 1.36 1.36 0 0 1 1.4-1.39 1.32 1.32 0 0 1 1.37 1.39zM346.44 256v-12.26h2.24V256zM363.5 249.78c0 4.54-3.14 6.52-6.12 6.52-3.32 0-5.89-2.43-5.89-6.32 0-4.11 2.7-6.52 6.1-6.52s5.91 2.54 5.91 6.32zm-9.75.13c0 2.69 1.55 4.72 3.74 4.72s3.73-2 3.73-4.77c0-2.09-1-4.73-3.68-4.73s-3.79 2.44-3.79 4.78zM366.32 247.06c0-1.27 0-2.31-.1-3.32h2l.13 2h.05a4.51 4.51 0 0 1 4.06-2.31c1.7 0 4.34 1 4.34 5.23V256h-2.23v-7.09c0-2-.74-3.63-2.85-3.63a3.17 3.17 0 0 0-3 2.29 3.26 3.26 0 0 0-.15 1V256h-2.24zM253.09 297.33a7.83 7.83 0 0 0 4 1.12c2.26 0 3.58-1.19 3.58-2.92s-.91-2.51-3.22-3.4c-2.8-1-4.52-2.44-4.52-4.85 0-2.67 2.2-4.65 5.53-4.65a7.78 7.78 0 0 1 3.78.84l-.61 1.8a6.84 6.84 0 0 0-3.25-.81c-2.33 0-3.22 1.4-3.22 2.57 0 1.6 1 2.38 3.4 3.3 2.9 1.11 4.37 2.51 4.37 5s-2 4.93-6 4.93a8.84 8.84 0 0 1-4.37-1.09zM265.83 291.75c0-1.58-.05-2.85-.1-4h2l.1 2.1h.05a4.84 4.84 0 0 1 4.37-2.38c3 0 5.2 2.51 5.2 6.24 0 4.42-2.69 6.6-5.58 6.6a4.33 4.33 0 0 1-3.79-1.92v6.67h-2.21zM268 295a5.18 5.18 0 0 0 .1.92 3.45 3.45 0 0 0 3.36 2.61c2.36 0 3.73-1.93 3.73-4.75 0-2.46-1.3-4.57-3.66-4.57a3.57 3.57 0 0 0-3.33 2.79 3.48 3.48 0 0 0-.16.92zM287.08 300l-.17-1.55h-.08a4.6 4.6 0 0 1-3.76 1.82 3.5 3.5 0 0 1-3.76-3.52c0-3 2.65-4.6 7.39-4.57V292a2.53 2.53 0 0 0-2.79-2.84 6.11 6.11 0 0 0-3.2.91l-.51-1.47a7.65 7.65 0 0 1 4-1.09c3.76 0 4.67 2.56 4.67 5v4.6a16.55 16.55 0 0 0 .21 2.95zm-.33-6.28c-2.43-.05-5.2.38-5.2 2.77a2 2 0 0 0 2.11 2.13 3.06 3.06 0 0 0 3-2 2.52 2.52 0 0 0 .12-.71zM301.28 299.57a8.33 8.33 0 0 1-3.53.71c-3.71 0-6.12-2.51-6.12-6.27a6.24 6.24 0 0 1 6.6-6.53 7.39 7.39 0 0 1 3.1.64l-.51 1.72a5.23 5.23 0 0 0-2.59-.58c-2.82 0-4.34 2.08-4.34 4.65 0 2.84 1.83 4.59 4.26 4.59a6.39 6.39 0 0 0 2.75-.61zM305 294.29a3.93 3.93 0 0 0 4.22 4.26 8.17 8.17 0 0 0 3.4-.63l.38 1.6a10.06 10.06 0 0 1-4.09.76c-3.78 0-6-2.49-6-6.2s2.18-6.62 5.76-6.62c4 0 5.08 3.53 5.08 5.79a10.18 10.18 0 0 1-.07 1zm6.55-1.6c0-1.42-.58-3.63-3.09-3.63-2.26 0-3.25 2.08-3.43 3.63zM321.84 291.75c0-1.58 0-2.85-.1-4h2l.11 2.1a4.83 4.83 0 0 1 4.36-2.38c3 0 5.21 2.51 5.21 6.24 0 4.42-2.69 6.6-5.59 6.6a4.33 4.33 0 0 1-3.78-1.92H324v6.67h-2.21zm2.21 3.27a5.18 5.18 0 0 0 .1.92 3.44 3.44 0 0 0 3.35 2.61c2.36 0 3.73-1.93 3.73-4.75 0-2.46-1.29-4.57-3.65-4.57a3.57 3.57 0 0 0-3.38 2.77 3.93 3.93 0 0 0-.15.92zM336.29 282h2.23v18h-2.23zM349.08 300l-.18-1.55h-.07a4.6 4.6 0 0 1-3.76 1.82 3.5 3.5 0 0 1-3.76-3.52c0-3 2.64-4.6 7.39-4.57V292a2.53 2.53 0 0 0-2.79-2.84 6.08 6.08 0 0 0-3.2.91l-.51-1.47a7.65 7.65 0 0 1 4-1.09c3.76 0 4.67 2.56 4.67 5v4.6a17.62 17.62 0 0 0 .2 2.95zm-.33-6.28c-2.44-.05-5.2.38-5.2 2.77a2 2 0 0 0 2.1 2.13 3 3 0 0 0 3-2 2.22 2.22 0 0 0 .13-.71zM354.51 291.06c0-1.27 0-2.31-.1-3.32h2l.13 2h.05a4.51 4.51 0 0 1 4.06-2.31c1.7 0 4.34 1 4.34 5.23V300h-2.23v-7.09c0-2-.74-3.63-2.84-3.63a3.17 3.17 0 0 0-3 2.29 3.26 3.26 0 0 0-.15 1V300h-2.24zM368.6 291.06c0-1.27 0-2.31-.1-3.32h2l.13 2h.05a4.51 4.51 0 0 1 4.06-2.31c1.7 0 4.35 1 4.35 5.23V300h-2.24v-7.09c0-2-.74-3.63-2.84-3.63a3.17 3.17 0 0 0-3 2.29 3.26 3.26 0 0 0-.15 1V300h-2.26zM385.18 284.28a1.38 1.38 0 0 1-2.76 0 1.36 1.36 0 0 1 1.39-1.39 1.32 1.32 0 0 1 1.37 1.39zM382.7 300v-12.26h2.23V300zM388.64 291.06c0-1.27 0-2.31-.11-3.32h2l.13 2h.05a4.51 4.51 0 0 1 4.06-2.31c1.71 0 4.35 1 4.35 5.23V300h-2.24v-7.09c0-2-.73-3.63-2.84-3.63a3.18 3.18 0 0 0-3 2.29 3.26 3.26 0 0 0-.15 1V300h-2.23zM413.31 287.74c-.05.89-.1 1.88-.1 3.37v7.14c0 2.82-.56 4.54-1.75 5.61a6.49 6.49 0 0 1-4.47 1.47 8 8 0 0 1-4.09-1l.56-1.7a7 7 0 0 0 3.61 1c2.28 0 4-1.19 4-4.29v-1.37a4.4 4.4 0 0 1-3.91 2.05c-3.05 0-5.23-2.59-5.23-6 0-4.16 2.71-6.52 5.53-6.52a4.09 4.09 0 0 1 3.84 2.13h.05l.1-1.85zm-2.31 4.85a3.29 3.29 0 0 0-.12-1 3.23 3.23 0 0 0-3.13-2.36c-2.13 0-3.65 1.8-3.65 4.65 0 2.41 1.22 4.41 3.63 4.41a3.27 3.27 0 0 0 3.1-2.28 4.1 4.1 0 0 0 .17-1.2zM256.19 344l-4.35-17.12h2.34l2 8.66c.51 2.13 1 4.27 1.27 5.92.28-1.7.81-3.74 1.4-5.95l2.28-8.63h2.31l2.09 8.69c.48 2 .94 4.06 1.19 5.86h.05c.36-1.88.84-3.78 1.37-5.92l2.26-8.63h2.26L267.89 344h-2.31l-2.16-8.92a50.16 50.16 0 0 1-1.11-5.58h-.06a51.09 51.09 0 0 1-1.32 5.58L258.5 344zM276.88 328.28a1.39 1.39 0 0 1-2.77 0 1.36 1.36 0 0 1 1.4-1.39 1.33 1.33 0 0 1 1.37 1.39zM274.39 344v-12.26h2.23V344zM280.33 335.57c0-1.45 0-2.69-.1-3.83h1.95l.08 2.41h.1a3.69 3.69 0 0 1 3.4-2.69 2.46 2.46 0 0 1 .64.07v2.11a3.41 3.41 0 0 0-.76-.08 3.14 3.14 0 0 0-3 2.87 6.44 6.44 0 0 0-.1 1V344h-2.21zM289.62 338.29a3.93 3.93 0 0 0 4.22 4.26 8.17 8.17 0 0 0 3.4-.63l.38 1.6a10.06 10.06 0 0 1-4.09.76c-3.78 0-6-2.49-6-6.2s2.18-6.62 5.76-6.62c4 0 5.08 3.53 5.08 5.79a7.57 7.57 0 0 1-.08 1zm6.55-1.6c0-1.42-.58-3.63-3.09-3.63-2.26 0-3.25 2.08-3.43 3.63zM301.1 326h2.23v18h-2.23zM308.33 338.29a3.93 3.93 0 0 0 4.22 4.26 8.17 8.17 0 0 0 3.4-.63l.38 1.6a10.06 10.06 0 0 1-4.09.76c-3.78 0-6-2.49-6-6.2s2.18-6.62 5.76-6.62c4 0 5.08 3.53 5.08 5.79a10.18 10.18 0 0 1-.07 1zm6.55-1.6c0-1.42-.58-3.63-3.09-3.63-2.26 0-3.25 2.08-3.43 3.63zM319.5 341.74a5.88 5.88 0 0 0 2.95.89c1.62 0 2.39-.81 2.39-1.83s-.64-1.65-2.29-2.26c-2.21-.79-3.25-2-3.25-3.48 0-2 1.6-3.6 4.24-3.6a6.05 6.05 0 0 1 3 .76l-.56 1.62a4.81 4.81 0 0 0-2.51-.71c-1.32 0-2.06.76-2.06 1.68s.74 1.47 2.34 2.08c2.13.81 3.22 1.88 3.22 3.71 0 2.16-1.67 3.68-4.59 3.68a7 7 0 0 1-3.45-.84zM329.56 341.74a5.87 5.87 0 0 0 2.94.89c1.63 0 2.39-.81 2.39-1.83s-.64-1.65-2.29-2.26c-2.2-.79-3.25-2-3.25-3.48 0-2 1.6-3.6 4.24-3.6a6.13 6.13 0 0 1 3 .76l-.56 1.62a4.82 4.82 0 0 0-2.52-.71c-1.32 0-2.05.76-2.05 1.68s.73 1.47 2.33 2.08c2.14.81 3.23 1.88 3.23 3.71 0 2.16-1.68 3.68-4.6 3.68a7 7 0 0 1-3.45-.84zM345.3 335.06c0-1.27 0-2.31-.1-3.32h2l.12 2h.05a4.53 4.53 0 0 1 4.07-2.31c1.7 0 4.34 1 4.34 5.23V344h-2.24v-7.09c0-2-.73-3.63-2.84-3.63a3.19 3.19 0 0 0-3 2.29 3.26 3.26 0 0 0-.15 1V344h-2.25zM360.63 338.29a3.93 3.93 0 0 0 4.22 4.26 8.17 8.17 0 0 0 3.4-.63l.38 1.6a10.06 10.06 0 0 1-4.09.76c-3.78 0-6-2.49-6-6.2s2.18-6.62 5.76-6.62c4 0 5.08 3.53 5.08 5.79a10.18 10.18 0 0 1-.07 1zm6.55-1.6c0-1.42-.58-3.63-3.09-3.63-2.26 0-3.25 2.08-3.43 3.63zM374.8 328.21v3.53h3.2v1.7h-3.2v6.62c0 1.53.43 2.39 1.68 2.39a4.81 4.81 0 0 0 1.29-.15l.1 1.67a5.41 5.41 0 0 1-2 .31 3.09 3.09 0 0 1-2.41-.94 4.53 4.53 0 0 1-.86-3.2v-6.7h-1.91v-1.7h1.91v-2.95zM381.63 331.74l1.62 6.24c.36 1.37.69 2.64.92 3.91h.07c.28-1.24.69-2.56 1.1-3.88l2-6.27h1.88l1.91 6.14c.45 1.47.81 2.77 1.09 4h.07a40.07 40.07 0 0 1 .94-4l1.75-6.17h2.21l-4 12.29h-2l-1.88-5.87c-.43-1.37-.78-2.59-1.09-4h-.05a35.41 35.41 0 0 1-1.12 4.07l-2 5.84h-2l-3.71-12.29zM410.29 337.78c0 4.54-3.15 6.52-6.12 6.52-3.32 0-5.89-2.43-5.89-6.32 0-4.11 2.69-6.52 6.1-6.52s5.91 2.54 5.91 6.32zm-9.75.13c0 2.69 1.55 4.72 3.74 4.72s3.73-2 3.73-4.77c0-2.09-1-4.73-3.68-4.73s-3.79 2.44-3.79 4.78zM413.11 335.57c0-1.45 0-2.69-.1-3.83H415l.08 2.41h.1a3.69 3.69 0 0 1 3.4-2.69 2.46 2.46 0 0 1 .64.07v2.11a3.41 3.41 0 0 0-.76-.08 3.14 3.14 0 0 0-3 2.87 6.44 6.44 0 0 0-.1 1V344h-2.21zM423.72 337.37c.31-.43.74-1 1.1-1.39l3.6-4.24h2.69l-4.75 5.05 5.41 7.24h-2.71l-4.24-5.9-1.15 1.27v4.6h-2.21v-18h2.21zM262.25 380h-6.65v6.17h7.4V388h-9.63v-17.09h9.25v1.86h-7v5.4h6.65zM274.09 386.12a4.38 4.38 0 0 1-4 2.18c-2.87 0-5.2-2.48-5.2-6.22 0-4.59 3-6.62 5.56-6.62a4 4 0 0 1 3.78 2.13l.08-1.85h2.11c0 1-.08 2.1-.08 3.37v13.94h-2.23zm0-5.41a3.67 3.67 0 0 0-.11-.94 3.26 3.26 0 0 0-3.19-2.54c-2.32 0-3.71 2-3.71 4.73 0 2.43 1.17 4.57 3.63 4.57a3.33 3.33 0 0 0 3.2-2.44 3.81 3.81 0 0 0 .18-1.07zM290.28 384.67c0 1.27 0 2.39.1 3.36h-2l-.12-2a4.63 4.63 0 0 1-4.07 2.28c-1.93 0-4.24-1.06-4.24-5.38v-7.18h2.24v6.8c0 2.34.71 3.91 2.74 3.91a3.24 3.24 0 0 0 3-2 3.45 3.45 0 0 0 .2-1.14v-7.54h2.23zM296.48 372.28a1.39 1.39 0 0 1-2.77 0 1.36 1.36 0 0 1 1.4-1.39 1.33 1.33 0 0 1 1.37 1.39zM294 388v-12.26h2.23V388zM299.93 379.75c0-1.58-.05-2.85-.1-4h2l.11 2.1h.06a4.83 4.83 0 0 1 4.36-2.38c3 0 5.21 2.51 5.21 6.24 0 4.42-2.69 6.6-5.59 6.6a4.33 4.33 0 0 1-3.78-1.92h-.05v6.67h-2.21zm2.21 3.27a5.18 5.18 0 0 0 .1.92 3.44 3.44 0 0 0 3.35 2.61c2.36 0 3.73-1.93 3.73-4.75 0-2.46-1.29-4.57-3.65-4.57a3.57 3.57 0 0 0-3.38 2.77 3.47 3.47 0 0 0-.15.92zM314.38 379.06c0-1.27 0-2.31-.11-3.32h2l.1 2h.08a4.22 4.22 0 0 1 3.86-2.26 3.62 3.62 0 0 1 3.47 2.46h.05a5.11 5.11 0 0 1 1.38-1.6 4.15 4.15 0 0 1 2.71-.86c1.63 0 4 1.06 4 5.33V388h-2.18v-7c0-2.36-.87-3.78-2.67-3.78a2.88 2.88 0 0 0-2.64 2 3.68 3.68 0 0 0-.18 1.11V388h-2.18v-7.37c0-2-.86-3.37-2.57-3.37a3 3 0 0 0-2.76 2.23 3 3 0 0 0-.18 1.09V388h-2.18zM336.79 382.29a3.93 3.93 0 0 0 4.22 4.26 8.17 8.17 0 0 0 3.4-.63l.38 1.6a10.06 10.06 0 0 1-4.09.76c-3.78 0-6-2.49-6-6.2s2.18-6.62 5.76-6.62c4 0 5.08 3.53 5.08 5.79a10.18 10.18 0 0 1-.07 1zm6.55-1.6c0-1.42-.58-3.63-3.09-3.63-2.26 0-3.25 2.08-3.43 3.63zM348.27 379.06c0-1.27 0-2.31-.1-3.32h2l.12 2h.06a4.5 4.5 0 0 1 4.06-2.31c1.7 0 4.34 1 4.34 5.23V388h-2.25v-7.09c0-2-.74-3.63-2.85-3.63a3.17 3.17 0 0 0-3 2.29 3 3 0 0 0-.16 1V388h-2.23zM365 372.21v3.53h3.2v1.7H365v6.62c0 1.53.43 2.39 1.68 2.39a4.81 4.81 0 0 0 1.29-.15l.03 1.7a5.41 5.41 0 0 1-2 .31 3.09 3.09 0 0 1-2.41-.94 4.53 4.53 0 0 1-.86-3.2v-6.7h-1.91v-1.7h1.91v-2.95zM386.33 384.67c0 1.27 0 2.39.1 3.36h-2l-.13-2h-.05a4.62 4.62 0 0 1-4.06 2.28c-1.93 0-4.24-1.06-4.24-5.38v-7.18h2.23v6.8c0 2.34.71 3.91 2.74 3.91a3.13 3.13 0 0 0 3.15-3.17v-7.54h2.24zM392.72 372.21v3.53h3.2v1.7h-3.2v6.62c0 1.53.44 2.39 1.68 2.39a4.76 4.76 0 0 0 1.29-.15l.11 1.67a5.45 5.45 0 0 1-2 .31 3.11 3.11 0 0 1-2.42-.94 4.57 4.57 0 0 1-.86-3.2v-6.7h-1.9v-1.7h1.9v-2.95zM400.92 372.28a1.38 1.38 0 0 1-2.76 0 1.36 1.36 0 0 1 1.39-1.39 1.32 1.32 0 0 1 1.37 1.39zM398.44 388v-12.26h2.23V388zM404.38 370h2.23v18h-2.23zM412.86 372.28a1.39 1.39 0 0 1-2.77 0 1.36 1.36 0 0 1 1.39-1.39 1.33 1.33 0 0 1 1.38 1.39zM410.37 388v-12.26h2.23V388zM414.91 386.73l5.56-7.24c.53-.66 1-1.24 1.6-1.9h-6.65v-1.8h9.37v1.39l-5.48 7.14c-.51.68-1 1.29-1.58 1.93v.05h7.19v1.7h-10zM434 388l-.18-1.55h-.08a4.56 4.56 0 0 1-3.74 1.85 3.5 3.5 0 0 1-3.76-3.52c0-3 2.64-4.6 7.39-4.57V380a2.54 2.54 0 0 0-2.8-2.84 6.07 6.07 0 0 0-3.19.91l-.51-1.47a7.61 7.61 0 0 1 4-1.09c3.76 0 4.68 2.56 4.68 5v4.6A17.62 17.62 0 0 0 436 388zm-.33-6.28c-2.44-.05-5.21.38-5.21 2.77a2 2 0 0 0 2.11 2.13 3 3 0 0 0 3-2 2.22 2.22 0 0 0 .13-.71zM442 372.21v3.53h3.2v1.7H442v6.62c0 1.53.43 2.39 1.68 2.39a4.81 4.81 0 0 0 1.29-.15l.1 1.67a5.37 5.37 0 0 1-2 .31 3.09 3.09 0 0 1-2.41-.94 4.57 4.57 0 0 1-.86-3.2v-6.7h-1.91v-1.7h1.91v-2.95zM450.2 372.28a1.31 1.31 0 0 1-1.42 1.37 1.33 1.33 0 0 1-1.35-1.37 1.36 1.36 0 0 1 1.4-1.39 1.32 1.32 0 0 1 1.37 1.39zM447.71 388v-12.26H450V388zM464.77 381.78c0 4.54-3.14 6.52-6.11 6.52-3.33 0-5.9-2.43-5.9-6.32 0-4.11 2.7-6.52 6.1-6.52s5.91 2.54 5.91 6.32zm-9.75.13c0 2.69 1.55 4.72 3.74 4.72s3.73-2 3.73-4.77c0-2.09-1-4.73-3.68-4.73s-3.81 2.44-3.81 4.78zM467.59 379.06c0-1.27 0-2.31-.1-3.32h2l.13 2a4.51 4.51 0 0 1 4.06-2.31c1.7 0 4.34 1 4.34 5.23V388h-2.23v-7.09c0-2-.74-3.63-2.85-3.63a3.17 3.17 0 0 0-3 2.29 3.26 3.26 0 0 0-.15 1V388h-2.24zM42.83 559.71l-4.62-18.87h3.67l1.79 8.57c.47 2.29.92 4.7 1.23 6.58h.1c.3-2 .84-4.23 1.37-6.61l2-8.54H52l1.88 8.68c.48 2.24.87 4.34 1.15 6.38h.05c.34-2.07.79-4.23 1.29-6.52l2-8.54h3.5l-5.07 18.87h-3.75l-2-8.88a53.78 53.78 0 0 1-1-6c-.34 2-.7 3.84-1.26 6l-2.19 8.88zM70.58 559.71l-.23-1.51h-.08a5.08 5.08 0 0 1-4 1.82A4.05 4.05 0 0 1 62 556c0-3.44 3-5.18 8.09-5.15v-.23c0-.89-.36-2.38-2.77-2.38a7.24 7.24 0 0 0-3.67 1l-.72-2.24a9.89 9.89 0 0 1 4.93-1.2c4.37 0 5.63 2.77 5.63 5.74v4.93a21.89 21.89 0 0 0 .19 3.27zm-.45-6.66c-2.44-.06-4.76.47-4.76 2.54a1.81 1.81 0 0 0 2 2 2.79 2.79 0 0 0 2.63-1.91 2.59 2.59 0 0 0 .11-.76zM77.13 550.47c0-1.85 0-3.16-.11-4.39h3l.11 2.6h.12a4.06 4.06 0 0 1 3.75-2.91 3.42 3.42 0 0 1 .81.08v3.25a4.57 4.57 0 0 0-1-.11 3 3 0 0 0-3.08 2.6 6.52 6.52 0 0 0-.11 1.06v7.06h-3.49zM89.28 553.86c.08 2.46 2 3.53 4.2 3.53a10.28 10.28 0 0 0 3.78-.62l.5 2.38A12.74 12.74 0 0 1 93 560c-4.42 0-7-2.71-7-6.89 0-3.78 2.29-7.33 6.66-7.33s5.88 3.64 5.88 6.63a9.21 9.21 0 0 1-.11 1.46zm6-2.41c0-1.26-.53-3.33-2.83-3.33-2.12 0-3 1.93-3.16 3.33zM101.29 539.83h3.47V548h.06a4.72 4.72 0 0 1 1.71-1.57 4.67 4.67 0 0 1 2.35-.61c2.32 0 4.76 1.54 4.76 5.9v8h-3.44v-7.64c0-2-.73-3.47-2.64-3.47a2.81 2.81 0 0 0-2.66 1.93 2.92 2.92 0 0 0-.14 1v8.15h-3.47zM130.27 552.77c0 5-3.53 7.25-7 7.25-3.86 0-6.83-2.66-6.83-7s2.94-7.22 7.06-7.22 6.77 2.82 6.77 6.97zm-10.27.14c0 2.63 1.28 4.62 3.38 4.62s3.33-1.94 3.33-4.68c0-2.13-.95-4.56-3.3-4.56s-3.41 2.35-3.41 4.62zM145.31 555.62c0 1.63.05 3 .11 4.09h-3l-.16-2.07h-.06a4.93 4.93 0 0 1-4.4 2.36c-2.49 0-4.76-1.48-4.76-5.94v-8h3.45v7.42c0 2.26.72 3.72 2.55 3.72a2.91 2.91 0 0 0 2.63-1.85 3.18 3.18 0 0 0 .19-1.06v-8.23h3.45zM148.86 556.55a7.79 7.79 0 0 0 3.5 1c1.52 0 2.19-.62 2.19-1.51s-.56-1.4-2.24-2c-2.66-.93-3.78-2.38-3.76-4 0-2.41 2-4.28 5.16-4.28a8 8 0 0 1 3.61.81l-.67 2.44a6.08 6.08 0 0 0-2.89-.79c-1.23 0-1.9.59-1.9 1.43s.64 1.29 2.38 1.9c2.46.9 3.61 2.16 3.64 4.17 0 2.47-1.93 4.26-5.55 4.26a8.79 8.79 0 0 1-4.14-1zM163.14 553.86c.09 2.46 2 3.53 4.2 3.53a10.24 10.24 0 0 0 3.78-.62l.51 2.38a12.78 12.78 0 0 1-4.76.84c-4.43 0-7-2.71-7-6.89 0-3.78 2.29-7.33 6.66-7.33s5.88 3.64 5.88 6.63a8.14 8.14 0 0 1-.11 1.46zm6-2.41c0-1.26-.53-3.33-2.82-3.33-2.13 0-3 1.93-3.17 3.33zM55 590.4a7.71 7.71 0 0 0 3.5 1c1.51 0 2.18-.62 2.18-1.51s-.56-1.4-2.24-2c-2.66-.93-3.78-2.38-3.75-4 0-2.41 2-4.28 5.15-4.28a8 8 0 0 1 3.61.81l-.67 2.44a6.08 6.08 0 0 0-2.88-.79c-1.24 0-1.91.59-1.91 1.43s.65 1.29 2.38 1.9c2.47.9 3.61 2.16 3.64 4.18 0 2.46-1.93 4.25-5.54 4.25a8.84 8.84 0 0 1-4.15-1zM70.76 576v3.9H74v2.57h-3.24v6c0 1.65.45 2.52 1.76 2.52a4.88 4.88 0 0 0 1.35-.17v2.64a7.74 7.74 0 0 1-2.49.33 4 4 0 0 1-3-1.12 5.41 5.41 0 0 1-1.06-3.81v-6.36h-2v-2.57h2v-3.08zM76.64 584.32c0-1.85 0-3.16-.11-4.39h3l.11 2.6h.12a4.06 4.06 0 0 1 3.72-2.91 4 4 0 0 1 .81.08v3.3a4.57 4.57 0 0 0-1-.11 3 3 0 0 0-3.08 2.6 6.53 6.53 0 0 0-.11 1.07v7h-3.46zM98.81 589.47c0 1.63.06 3 .12 4.09h-3l-.17-2.07a4.93 4.93 0 0 1-4.37 2.38c-2.49 0-4.76-1.48-4.76-5.94v-8H90v7.42c0 2.26.73 3.72 2.55 3.72a2.9 2.9 0 0 0 2.63-1.85 2.94 2.94 0 0 0 .2-1.06v-8.23h3.44zM112.56 593.14a9.87 9.87 0 0 1-3.86.7c-4.26 0-7-2.71-7-6.94s2.8-7.28 7.59-7.28a8.65 8.65 0 0 1 3.33.64l-.62 2.58a6.09 6.09 0 0 0-2.6-.53 4.42 4.42 0 0 0 0 8.82 6.7 6.7 0 0 0 2.71-.54zM119.48 576v3.9h3.27v2.57h-3.27v6c0 1.65.44 2.52 1.76 2.52a4.75 4.75 0 0 0 1.34-.17l.06 2.64a7.74 7.74 0 0 1-2.49.33 4 4 0 0 1-3-1.12 5.41 5.41 0 0 1-1.06-3.81v-6.36h-2v-2.57h2v-3.08zM137.56 589.47c0 1.63.06 3 .12 4.09h-3l-.17-2.07a4.93 4.93 0 0 1-4.37 2.38c-2.49 0-4.76-1.48-4.76-5.94v-8h3.45v7.42c0 2.26.72 3.72 2.54 3.72a2.88 2.88 0 0 0 2.63-1.85 2.94 2.94 0 0 0 .2-1.06v-8.23h3.44zM141.29 584.32c0-1.85 0-3.16-.11-4.39h3l.11 2.6h.12a4.06 4.06 0 0 1 3.72-2.91 4 4 0 0 1 .81.08v3.3a4.57 4.57 0 0 0-1-.11 3 3 0 0 0-3.08 2.6 6.53 6.53 0 0 0-.11 1.07v7h-3.44zM153.44 587.71c.08 2.46 2 3.53 4.2 3.53a10.28 10.28 0 0 0 3.78-.62l.5 2.38a12.74 12.74 0 0 1-4.76.84c-4.42 0-7-2.71-7-6.89 0-3.78 2.29-7.33 6.66-7.33s5.88 3.64 5.88 6.63a9.21 9.21 0 0 1-.11 1.46zm6-2.41c0-1.26-.53-3.33-2.83-3.33-2.12 0-3 1.93-3.16 3.33zM253.09 470.15a7.83 7.83 0 0 0 4 1.12c2.26 0 3.58-1.2 3.58-2.92s-.91-2.52-3.22-3.41c-2.8-1-4.52-2.43-4.52-4.85 0-2.66 2.2-4.64 5.53-4.64a7.66 7.66 0 0 1 3.78.84l-.61 1.8a6.72 6.72 0 0 0-3.25-.81c-2.33 0-3.22 1.39-3.22 2.56 0 1.6 1 2.39 3.4 3.3 2.9 1.12 4.37 2.51 4.37 5s-2 4.92-6 4.92a8.84 8.84 0 0 1-4.37-1.09zM268.32 457.1a1.31 1.31 0 0 1-1.42 1.37 1.33 1.33 0 0 1-1.35-1.37 1.37 1.37 0 0 1 1.4-1.4 1.33 1.33 0 0 1 1.37 1.4zm-2.49 15.74v-12.29h2.24v12.29zM270.38 471.54l5.56-7.23c.53-.66 1-1.25 1.6-1.91h-6.65v-1.8h9.36v1.4l-5.48 7.13c-.51.69-1 1.3-1.58 1.93v.05h7.19v1.78h-10zM285.13 457.1a1.39 1.39 0 0 1-2.77 0 1.37 1.37 0 0 1 1.4-1.4 1.33 1.33 0 0 1 1.37 1.4zm-2.49 15.74v-12.29h2.24v12.29zM288.58 463.88c0-1.27 0-2.31-.1-3.33h2l.13 2h.05a4.51 4.51 0 0 1 4.06-2.31c1.7 0 4.34 1 4.34 5.23v7.34h-2.23v-7.08c0-2-.74-3.63-2.85-3.63a3.17 3.17 0 0 0-3 2.28 3.26 3.26 0 0 0-.15 1v7.39h-2.24zM313.26 460.55c-.05.89-.1 1.88-.1 3.38v7.13c0 2.82-.56 4.55-1.75 5.61a6.52 6.52 0 0 1-4.47 1.48 7.92 7.92 0 0 1-4.09-1l.56-1.7a6.89 6.89 0 0 0 3.6 1c2.29 0 4-1.19 4-4.29v-1.37h-.05a4.36 4.36 0 0 1-3.91 2.06c-3 0-5.23-2.59-5.23-6 0-4.17 2.72-6.53 5.54-6.53a4.09 4.09 0 0 1 3.83 2.13h.05l.1-1.85zM311 465.4a3.28 3.28 0 0 0-.13-1 3.22 3.22 0 0 0-3.17-2.4c-2.13 0-3.66 1.81-3.66 4.65 0 2.41 1.22 4.42 3.63 4.42a3.27 3.27 0 0 0 3.1-2.29 3.78 3.78 0 0 0 .18-1.19zM329.05 472.84l-.18-1.55h-.07a4.58 4.58 0 0 1-3.76 1.83 3.5 3.5 0 0 1-3.76-3.53c0-3 2.64-4.6 7.39-4.57v-.25a2.54 2.54 0 0 0-2.79-2.85 6.09 6.09 0 0 0-3.2.92l-.51-1.48a7.62 7.62 0 0 1 4-1.09c3.75 0 4.67 2.57 4.67 5v4.59a17.62 17.62 0 0 0 .2 2.95zm-.33-6.27c-2.44-.05-5.21.38-5.21 2.77a2 2 0 0 0 2.11 2.13 3.05 3.05 0 0 0 3-2.06 2.22 2.22 0 0 0 .13-.71zM334.48 463.88c0-1.27 0-2.31-.1-3.33h2l.13 2h.05a4.51 4.51 0 0 1 4.06-2.31c1.7 0 4.34 1 4.34 5.23v7.34h-2.23v-7.08c0-2-.74-3.63-2.84-3.63a3.17 3.17 0 0 0-3 2.28 3.26 3.26 0 0 0-.15 1v7.39h-2.24zM359.19 454.81v14.86c0 1.09 0 2.33.1 3.17h-2l-.1-2.13h-.05a4.55 4.55 0 0 1-4.19 2.41c-3 0-5.26-2.51-5.26-6.25 0-4.08 2.52-6.6 5.51-6.6a4.12 4.12 0 0 1 3.71 1.88h.09v-7.34zM357 465.55a3.76 3.76 0 0 0-.1-.94 3.29 3.29 0 0 0-3.22-2.59c-2.31 0-3.69 2-3.69 4.75 0 2.49 1.22 4.55 3.64 4.55a3.36 3.36 0 0 0 3.27-2.67 3.68 3.68 0 0 0 .1-1zM368.27 454.81h2.24v18h-2.24zM385.39 466.59c0 4.55-3.15 6.53-6.12 6.53-3.33 0-5.89-2.44-5.89-6.32 0-4.12 2.69-6.53 6.09-6.53s5.92 2.57 5.92 6.32zm-9.75.13c0 2.69 1.55 4.72 3.73 4.72s3.73-2 3.73-4.77c0-2.08-1-4.72-3.68-4.72s-3.78 2.43-3.78 4.77zM397 472.38a8.14 8.14 0 0 1-3.53.71c-3.7 0-6.11-2.51-6.11-6.27a6.24 6.24 0 0 1 6.6-6.52 7.48 7.48 0 0 1 3.09.63l-.5 1.73a5.13 5.13 0 0 0-2.59-.59c-2.82 0-4.34 2.09-4.34 4.65 0 2.84 1.82 4.6 4.26 4.6a6.31 6.31 0 0 0 2.74-.61zM406.38 472.84l-.17-1.55h-.08a4.58 4.58 0 0 1-3.76 1.83 3.5 3.5 0 0 1-3.76-3.53c0-3 2.64-4.6 7.39-4.57v-.25a2.54 2.54 0 0 0-2.79-2.85 6.11 6.11 0 0 0-3.2.92l-.51-1.48a7.65 7.65 0 0 1 4-1.09c3.76 0 4.67 2.57 4.67 5v4.59a17.62 17.62 0 0 0 .2 2.95zm-.33-6.27c-2.43-.05-5.2.38-5.2 2.77a2 2 0 0 0 2.11 2.13 3.07 3.07 0 0 0 3-2.06 2.52 2.52 0 0 0 .12-.71zM414.41 457v3.53h3.19v1.7h-3.19v6.63c0 1.52.43 2.39 1.67 2.39a4.76 4.76 0 0 0 1.3-.16l.1 1.68a5.44 5.44 0 0 1-2 .3 3.12 3.12 0 0 1-2.42-.94 4.56 4.56 0 0 1-.86-3.19v-6.71h-1.9v-1.7h1.9v-2.94zM422.61 457.1a1.39 1.39 0 0 1-2.77 0 1.36 1.36 0 0 1 1.39-1.4 1.33 1.33 0 0 1 1.38 1.4zm-2.49 15.74v-12.29h2.23v12.29zM437.18 466.59c0 4.55-3.15 6.53-6.12 6.53-3.33 0-5.89-2.44-5.89-6.32 0-4.12 2.69-6.53 6.09-6.53s5.92 2.57 5.92 6.32zm-9.75.13c0 2.69 1.55 4.72 3.73 4.72s3.73-2 3.73-4.77c0-2.08-1-4.72-3.68-4.72s-3.78 2.43-3.78 4.77zM440 463.88c0-1.27 0-2.31-.11-3.33h2l.12 2h.05a4.52 4.52 0 0 1 4.07-2.31c1.7 0 4.34 1 4.34 5.23v7.34h-2.24v-7.08c0-2-.73-3.63-2.84-3.63a3.18 3.18 0 0 0-3 2.28 3.26 3.26 0 0 0-.15 1v7.39H440zM466.27 472.84l-.17-1.55h-.1a4.58 4.58 0 0 1-3.76 1.83 3.5 3.5 0 0 1-3.76-3.53c0-3 2.64-4.6 7.39-4.57v-.25a2.54 2.54 0 0 0-2.79-2.85 6.11 6.11 0 0 0-3.2.92l-.51-1.48a7.65 7.65 0 0 1 4-1.09c3.76 0 4.67 2.57 4.67 5v4.59a17.62 17.62 0 0 0 .2 2.95zm-.33-6.27c-2.43-.05-5.2.38-5.2 2.77a2 2 0 0 0 2.11 2.13 3.06 3.06 0 0 0 3-2.06 2.52 2.52 0 0 0 .12-.71zM471.71 463.88c0-1.27 0-2.31-.11-3.33h2l.13 2h.05a4.52 4.52 0 0 1 4.07-2.31c1.7 0 4.34 1 4.34 5.23v7.34h-2.24v-7.08c0-2-.73-3.63-2.84-3.63a3.18 3.18 0 0 0-3 2.28 3.26 3.26 0 0 0-.15 1v7.39h-2.23zM492.6 472.84l-.18-1.55h-.07a4.58 4.58 0 0 1-3.76 1.83 3.5 3.5 0 0 1-3.76-3.53c0-3 2.64-4.6 7.39-4.57v-.25a2.54 2.54 0 0 0-2.79-2.85 6.11 6.11 0 0 0-3.2.92l-.51-1.48a7.65 7.65 0 0 1 4-1.09c3.76 0 4.67 2.57 4.67 5v4.59a17.62 17.62 0 0 0 .2 2.95zm-.33-6.27c-2.44-.05-5.2.38-5.2 2.77a2 2 0 0 0 2.1 2.13 3.05 3.05 0 0 0 3-2.06 2.22 2.22 0 0 0 .13-.71zM498 454.81h2.24v18H498zM504.84 460.55l2.69 7.26c.28.82.58 1.78.79 2.52h.05c.23-.74.48-1.68.78-2.57l2.44-7.21H514l-3.35 8.76c-1.6 4.22-2.69 6.37-4.21 7.69a6 6 0 0 1-2.75 1.45l-.55-1.88a6 6 0 0 0 2-1.09 6.8 6.8 0 0 0 1.88-2.49 1.63 1.63 0 0 0 .18-.53 1.87 1.87 0 0 0-.15-.58l-4.55-11.33zM515.53 470.55a5.75 5.75 0 0 0 2.94.89c1.63 0 2.39-.81 2.39-1.82s-.64-1.66-2.29-2.26c-2.21-.79-3.25-2-3.25-3.48 0-2 1.6-3.61 4.24-3.61a6.16 6.16 0 0 1 3 .76l-.55 1.63a4.76 4.76 0 0 0-2.52-.71c-1.32 0-2 .76-2 1.67s.73 1.48 2.33 2.09c2.13.81 3.23 1.87 3.23 3.7 0 2.16-1.68 3.68-4.6 3.68a7.09 7.09 0 0 1-3.45-.83zM528.37 457.1a1.38 1.38 0 0 1-2.76 0 1.36 1.36 0 0 1 1.39-1.4 1.33 1.33 0 0 1 1.37 1.4zm-2.49 15.74v-12.29h2.24v12.29zM531.52 470.55a5.78 5.78 0 0 0 3 .89c1.62 0 2.38-.81 2.38-1.82s-.63-1.66-2.28-2.26c-2.21-.79-3.25-2-3.25-3.48 0-2 1.6-3.61 4.24-3.61a6.22 6.22 0 0 1 3 .76l-.56 1.63a4.72 4.72 0 0 0-2.51-.71c-1.32 0-2.06.76-2.06 1.67s.74 1.48 2.34 2.09c2.13.81 3.22 1.87 3.22 3.7 0 2.16-1.68 3.68-4.59 3.68a7.13 7.13 0 0 1-3.46-.83zM253.39 499.73h2.21V515h7.32v1.85h-9.53zM274.24 508.82h-6.65V515H275v1.85h-9.62v-17.12h9.24v1.85h-7V507h6.65zM286.73 508.82h-6.65V515h7.41v1.85h-9.62v-17.12h9.24v1.85h-7V507h6.65zM290.36 500a30.7 30.7 0 0 1 4.7-.36c3.17 0 5.43.74 6.93 2.13a7.91 7.91 0 0 1 2.41 6.15 9 9 0 0 1-2.46 6.65c-1.6 1.6-4.24 2.46-7.57 2.46a35.08 35.08 0 0 1-4-.2zm2.21 15.13a14.22 14.22 0 0 0 2.23.12c4.73 0 7.29-2.64 7.29-7.26 0-4-2.26-6.6-6.93-6.6a12.31 12.31 0 0 0-2.59.23zM323.19 498.81v14.86c0 1.09 0 2.33.1 3.17h-2l-.1-2.13h-.05a4.55 4.55 0 0 1-4.19 2.41c-3 0-5.26-2.51-5.26-6.25 0-4.08 2.52-6.6 5.51-6.6a4.12 4.12 0 0 1 3.71 1.88h.09v-7.34zM321 509.55a3.76 3.76 0 0 0-.1-.94 3.29 3.29 0 0 0-3.22-2.59c-2.31 0-3.69 2-3.69 4.75 0 2.49 1.22 4.55 3.64 4.55a3.36 3.36 0 0 0 3.27-2.67 3.68 3.68 0 0 0 .1-1zM328.14 511.1c.05 3 2 4.27 4.21 4.27a8 8 0 0 0 3.4-.64l.38 1.6a9.83 9.83 0 0 1-4.08.76c-3.79 0-6.05-2.48-6.05-6.19s2.19-6.63 5.77-6.63c4 0 5.08 3.53 5.08 5.79a9.4 9.4 0 0 1-.08 1zm6.55-1.6c0-1.42-.59-3.63-3.1-3.63-2.26 0-3.25 2.08-3.43 3.63zM339.31 514.55a5.78 5.78 0 0 0 2.94.89c1.63 0 2.39-.81 2.39-1.82s-.64-1.66-2.29-2.26c-2.2-.79-3.25-2-3.25-3.48 0-2 1.6-3.61 4.24-3.61a6.23 6.23 0 0 1 3 .76l-.56 1.63a4.73 4.73 0 0 0-2.52-.71c-1.32 0-2.05.76-2.05 1.67s.73 1.48 2.33 2.09c2.14.81 3.23 1.87 3.23 3.7 0 2.16-1.68 3.68-4.6 3.68a7.09 7.09 0 0 1-3.45-.83zM352.15 501.1a1.31 1.31 0 0 1-1.42 1.37 1.33 1.33 0 0 1-1.34-1.37 1.36 1.36 0 0 1 1.39-1.4 1.33 1.33 0 0 1 1.37 1.4zm-2.48 15.74v-12.29h2.23v12.29zM366.19 504.55c-.05.89-.1 1.88-.1 3.38v7.13c0 2.82-.56 4.55-1.75 5.61a6.5 6.5 0 0 1-4.47 1.48 8 8 0 0 1-4.09-1l.56-1.7a6.93 6.93 0 0 0 3.61 1c2.28 0 4-1.19 4-4.29v-1.37h-.05a4.38 4.38 0 0 1-3.91 2.06c-3.05 0-5.23-2.59-5.23-6 0-4.17 2.71-6.53 5.53-6.53a4.11 4.11 0 0 1 3.84 2.13h.05l.1-1.85zm-2.31 4.85a3.29 3.29 0 0 0-.12-1 3.23 3.23 0 0 0-3.13-2.36c-2.13 0-3.65 1.81-3.65 4.65 0 2.41 1.22 4.42 3.63 4.42a3.28 3.28 0 0 0 3.1-2.29 4.08 4.08 0 0 0 .17-1.19zM369.65 507.88c0-1.27 0-2.31-.11-3.33h2l.12 2h.05a4.52 4.52 0 0 1 4.07-2.31c1.7 0 4.34 1 4.34 5.23v7.34h-2.24v-7.08c0-2-.73-3.63-2.84-3.63a3.18 3.18 0 0 0-3 2.28 3.26 3.26 0 0 0-.15 1v7.39h-2.23zM253.39 543.73h2.21V559h7.32v1.85h-9.53zM272.11 560.84l-.18-1.55h-.08a4.55 4.55 0 0 1-3.76 1.83 3.5 3.5 0 0 1-3.75-3.53c0-3 2.64-4.6 7.38-4.57v-.25a2.53 2.53 0 0 0-2.79-2.85 6.14 6.14 0 0 0-3.2.92l-.51-1.48a7.65 7.65 0 0 1 4-1.09c3.76 0 4.67 2.57 4.67 5v4.59a16.55 16.55 0 0 0 .21 3zm-.33-6.27c-2.44-.05-5.21.38-5.21 2.77a2 2 0 0 0 2.11 2.13 3.06 3.06 0 0 0 3-2.06 2.53 2.53 0 0 0 .13-.71zM278.15 548.55l2.69 7.26c.28.82.58 1.78.79 2.52h.05c.23-.74.48-1.68.78-2.57l2.44-7.21h2.36l-3.35 8.76c-1.6 4.22-2.69 6.37-4.21 7.69a6 6 0 0 1-2.75 1.45l-.55-1.88a6 6 0 0 0 2-1.09 6.8 6.8 0 0 0 1.88-2.49 1.63 1.63 0 0 0 .18-.53 1.69 1.69 0 0 0-.16-.58l-4.54-11.33zM300.16 554.59c0 4.55-3.15 6.53-6.12 6.53-3.33 0-5.89-2.44-5.89-6.32 0-4.12 2.69-6.53 6.09-6.53s5.92 2.57 5.92 6.32zm-9.75.13c0 2.69 1.55 4.72 3.73 4.72s3.74-2 3.74-4.77c0-2.08-1.05-4.72-3.69-4.72s-3.78 2.43-3.78 4.77zM313.26 557.49c0 1.27 0 2.39.1 3.35h-2l-.13-2h-.05a4.61 4.61 0 0 1-4.06 2.29c-1.93 0-4.24-1.07-4.24-5.38v-7.19h2.24v6.81c0 2.33.71 3.91 2.74 3.91a3.22 3.22 0 0 0 2.94-2 3.17 3.17 0 0 0 .21-1.14v-7.54h2.23zM319.66 545v3.53h3.2v1.7h-3.2v6.63c0 1.52.43 2.39 1.67 2.39a4.76 4.76 0 0 0 1.3-.16l.1 1.68a5.44 5.44 0 0 1-2 .3 3.09 3.09 0 0 1-2.41-.94 4.51 4.51 0 0 1-.87-3.19v-6.71h-1.9v-1.7h1.9v-2.94zM341.37 542.81v14.86c0 1.09 0 2.33.1 3.17h-2l-.1-2.13h-.05a4.55 4.55 0 0 1-4.19 2.41c-3 0-5.26-2.51-5.26-6.25 0-4.08 2.52-6.6 5.51-6.6a4.12 4.12 0 0 1 3.71 1.88h.05v-7.34zm-2.24 10.74a3.76 3.76 0 0 0-.1-.94 3.29 3.29 0 0 0-3.23-2.61c-2.31 0-3.68 2-3.68 4.75 0 2.49 1.22 4.55 3.63 4.55a3.36 3.36 0 0 0 3.28-2.67 3.68 3.68 0 0 0 .1-1zM346.32 555.1c.05 3 2 4.27 4.21 4.27a8 8 0 0 0 3.4-.64l.38 1.6a9.83 9.83 0 0 1-4.08.76c-3.79 0-6.05-2.48-6.05-6.19s2.19-6.63 5.77-6.63c4 0 5.07 3.53 5.07 5.79a10 10 0 0 1-.07 1zm6.55-1.6c0-1.42-.59-3.63-3.1-3.63-2.26 0-3.25 2.08-3.43 3.63zM357.49 558.55a5.75 5.75 0 0 0 2.94.89c1.63 0 2.39-.81 2.39-1.82s-.64-1.66-2.29-2.26c-2.21-.79-3.25-2-3.25-3.48 0-2 1.6-3.61 4.24-3.61a6.16 6.16 0 0 1 3 .76l-.55 1.63a4.76 4.76 0 0 0-2.52-.71c-1.32 0-2.05.76-2.05 1.67s.73 1.48 2.33 2.09c2.13.81 3.23 1.87 3.23 3.7 0 2.16-1.68 3.68-4.6 3.68a7.09 7.09 0 0 1-3.45-.83zM370.33 545.1a1.38 1.38 0 0 1-2.76 0 1.36 1.36 0 0 1 1.39-1.4 1.33 1.33 0 0 1 1.37 1.4zm-2.49 15.74v-12.29h2.24v12.29zM384.37 548.55c-.05.89-.1 1.88-.1 3.38v7.13c0 2.82-.56 4.55-1.75 5.61a6.5 6.5 0 0 1-4.47 1.48 8 8 0 0 1-4.09-1l.56-1.7a6.9 6.9 0 0 0 3.61 1c2.28 0 4-1.19 4-4.29v-1.37a4.38 4.38 0 0 1-3.91 2.06c-3.05 0-5.23-2.59-5.23-6 0-4.17 2.71-6.53 5.53-6.53a4.12 4.12 0 0 1 3.84 2.13h.05l.1-1.85zm-2.31 4.85a3.29 3.29 0 0 0-.12-1 3.23 3.23 0 0 0-3.13-2.36c-2.13 0-3.65 1.81-3.65 4.65 0 2.41 1.22 4.42 3.63 4.42a3.26 3.26 0 0 0 3.09-2.29 3.78 3.78 0 0 0 .18-1.19zM387.82 551.88c0-1.27 0-2.31-.1-3.33h2l.13 2h.05a4.51 4.51 0 0 1 4.06-2.31c1.7 0 4.35 1 4.35 5.23v7.34h-2.24v-7.08c0-2-.74-3.63-2.84-3.63a3.17 3.17 0 0 0-3 2.28 3.26 3.26 0 0 0-.15 1v7.39h-2.24zM255.6 587.73v7.16h8.28v-7.16h2.23v17.11h-2.23v-8h-8.28v8h-2.21v-17.11zM273.7 604.84l-5.58-17.11h2.38l2.67 8.43c.74 2.31 1.37 4.39 1.83 6.39h.05c.48-2 1.19-4.13 1.95-6.37l2.9-8.45h2.36l-6.12 17.11zM285.43 599.46l-1.77 5.38h-2.29l5.82-17.11h2.66l5.84 17.11h-2.36l-1.83-5.38zm5.61-1.73l-1.67-4.93c-.38-1.11-.64-2.13-.89-3.12h-.05c-.25 1-.53 2.06-.86 3.1l-1.68 5zM309.78 604.28a10.91 10.91 0 0 1-4.52.81c-4.82 0-8.45-3-8.45-8.65 0-5.36 3.63-9 8.94-9a9.12 9.12 0 0 1 4.06.76l-.54 1.8a8.1 8.1 0 0 0-3.45-.71c-4 0-6.68 2.57-6.68 7.06 0 4.19 2.42 6.88 6.58 6.88a8.88 8.88 0 0 0 3.61-.71zM326.61 604.38a8.14 8.14 0 0 1-3.53.71c-3.7 0-6.12-2.51-6.12-6.27a6.24 6.24 0 0 1 6.61-6.52 7.52 7.52 0 0 1 3.09.63l-.5 1.73a5.13 5.13 0 0 0-2.59-.59c-2.82 0-4.35 2.09-4.35 4.65 0 2.84 1.83 4.6 4.27 4.6a6.31 6.31 0 0 0 2.74-.61zM340.2 598.59c0 4.55-3.15 6.53-6.12 6.53-3.33 0-5.89-2.44-5.89-6.32 0-4.12 2.69-6.53 6.09-6.53s5.92 2.57 5.92 6.32zm-9.75.13c0 2.69 1.55 4.72 3.73 4.72s3.73-2 3.73-4.77c0-2.08-1-4.72-3.68-4.72s-3.78 2.43-3.78 4.77zM343 595.88c0-1.27 0-2.31-.1-3.33h2l.13 2h.05a4.51 4.51 0 0 1 4.06-2.31c1.7 0 4.35 1 4.35 5.23v7.34h-2.24v-7.08c0-2-.74-3.63-2.84-3.63a3.17 3.17 0 0 0-3 2.28 3.26 3.26 0 0 0-.15 1v7.39H343zM359.7 589v3.53h3.19v1.7h-3.19v6.63c0 1.52.43 2.39 1.67 2.39a4.76 4.76 0 0 0 1.3-.16l.1 1.68a5.44 5.44 0 0 1-2 .3 3.09 3.09 0 0 1-2.41-.94 4.51 4.51 0 0 1-.87-3.19v-6.71h-1.9v-1.7h1.9v-2.94zM365.41 596.38c0-1.44 0-2.69-.1-3.83h1.95l.08 2.41h.1a3.68 3.68 0 0 1 3.4-2.69 2.55 2.55 0 0 1 .64.08v2.11a2.94 2.94 0 0 0-.77-.08 3.13 3.13 0 0 0-3 2.87 6.33 6.33 0 0 0-.1 1v6.55h-2.21zM384.58 598.59c0 4.55-3.15 6.53-6.12 6.53-3.33 0-5.89-2.44-5.89-6.32 0-4.12 2.69-6.53 6.09-6.53s5.92 2.57 5.92 6.32zm-9.75.13c0 2.69 1.55 4.72 3.73 4.72s3.73-2 3.73-4.77c0-2.08-1-4.72-3.68-4.72s-3.78 2.43-3.78 4.77zM387.39 586.81h2.24v18h-2.24zM398.46 602.55a5.78 5.78 0 0 0 3 .89c1.62 0 2.38-.81 2.38-1.82s-.63-1.66-2.28-2.26c-2.21-.79-3.25-2-3.25-3.48 0-2 1.6-3.61 4.24-3.61a6.22 6.22 0 0 1 3 .76l-.56 1.63a4.72 4.72 0 0 0-2.51-.71c-1.32 0-2.06.76-2.06 1.67s.74 1.48 2.34 2.09c2.13.81 3.22 1.87 3.22 3.7 0 2.16-1.67 3.68-4.59 3.68a7.13 7.13 0 0 1-3.46-.83zM409.63 592.55l2.69 7.26c.28.82.59 1.78.79 2.52h.05c.23-.74.48-1.68.79-2.57l2.44-7.21h2.36l-3.35 8.76c-1.6 4.22-2.69 6.37-4.22 7.69a6 6 0 0 1-2.74 1.45l-.56-1.88a5.92 5.92 0 0 0 2-1.09 6.68 6.68 0 0 0 1.87-2.49 1.42 1.42 0 0 0 .18-.53 1.87 1.87 0 0 0-.15-.58l-4.54-11.33zM420.32 602.55a5.78 5.78 0 0 0 2.95.89c1.62 0 2.38-.81 2.38-1.82s-.63-1.66-2.28-2.26c-2.21-.79-3.25-2-3.25-3.48 0-2 1.6-3.61 4.24-3.61a6.22 6.22 0 0 1 3 .76l-.56 1.63a4.72 4.72 0 0 0-2.51-.71c-1.32 0-2.06.76-2.06 1.67s.74 1.48 2.34 2.09c2.13.81 3.22 1.87 3.22 3.7 0 2.16-1.67 3.68-4.59 3.68a7.13 7.13 0 0 1-3.46-.83zM433.37 589v3.53h3.2v1.7h-3.2v6.63c0 1.52.43 2.39 1.68 2.39a4.73 4.73 0 0 0 1.29-.16l.1 1.68a5.4 5.4 0 0 1-2 .3 3.09 3.09 0 0 1-2.41-.94 4.56 4.56 0 0 1-.86-3.19v-6.71h-1.91v-1.7h1.91v-2.94zM440.17 599.1c.06 3 2 4.27 4.22 4.27a8 8 0 0 0 3.4-.64l.38 1.6a9.85 9.85 0 0 1-4.09.76c-3.78 0-6-2.48-6-6.19s2.19-6.63 5.77-6.63c4 0 5.07 3.53 5.07 5.79a10 10 0 0 1-.07 1zm6.56-1.6c0-1.42-.59-3.63-3.1-3.63-2.26 0-3.25 2.08-3.43 3.63zM451.65 595.88c0-1.27 0-2.31-.1-3.33h1.95l.11 2h.07a4.24 4.24 0 0 1 3.86-2.26 3.63 3.63 0 0 1 3.48 2.46h.05a5.19 5.19 0 0 1 1.37-1.6 4.25 4.25 0 0 1 2.72-.86c1.62 0 4 1.07 4 5.33v7.24H467v-7c0-2.36-.86-3.78-2.66-3.78a2.89 2.89 0 0 0-2.64 2 3.46 3.46 0 0 0-.18 1.12v7.59h-2.19v-7.36c0-2-.86-3.38-2.56-3.38a3.06 3.06 0 0 0-2.77 2.23 3 3 0 0 0-.18 1.1v7.41h-2.18zM472.52 602.55a5.78 5.78 0 0 0 2.94.89c1.63 0 2.39-.81 2.39-1.82s-.63-1.66-2.28-2.26c-2.21-.79-3.25-2-3.25-3.48 0-2 1.6-3.61 4.24-3.61a6.22 6.22 0 0 1 3 .76l-.56 1.63a4.72 4.72 0 0 0-2.51-.71c-1.32 0-2.06.76-2.06 1.67s.74 1.48 2.34 2.09c2.13.81 3.22 1.87 3.22 3.7 0 2.16-1.68 3.68-4.6 3.68a7.09 7.09 0 0 1-3.45-.83zM134.51 76.94L133.42 73l10.27 2.6-7.38 7.59-1.14-3.91c-.63.15-1.22.28-1.81.44L103 87.87a1.07 1.07 0 0 0-.94 1 4.76 4.76 0 0 1-4.34 4 4.86 4.86 0 0 1-4.88-3.08 4.79 4.79 0 0 1 1.7-5.65 1 1 0 0 0 .46-1.26q-5.23-19.39-10.4-38.82a1.85 1.85 0 0 0-1.12-1.32c-3-1.42-6-2.9-9-4.36-.83-.41-1.11-1-.8-1.7a1.22 1.22 0 0 1 1.79-.49c3.43 1.66 6.86 3.32 10.25 5a2.16 2.16 0 0 1 .88 1.23Q90.56 57 94.43 71.55c1 3.65 2 7.3 2.91 11a1 1 0 0 0 .92.88 4.2 4.2 0 0 1 2.92 1.86c.33.5.65.48 1.12.35l27.29-7.33zm-37.18 8.71A2.49 2.49 0 0 0 94.85 88a2.53 2.53 0 0 0 2.46 2.5 2.49 2.49 0 0 0 2.42-2.44 2.45 2.45 0 0 0-2.4-2.41z"/><path class="cls-3" d="M121.6 45.55c.85 0 1.16.52 1.35 1.22q1.92 7.23 3.87 14.45 1.4 5.19 2.78 10.38c.36 1.37.12 1.8-1.2 2.16l-24.67 6.61c-1.4.37-1.79.14-2.17-1.29Q98.31 66.91 95 54.74c-.46-1.7-.28-2 1.38-2.47l24.42-6.54zm-17.87 32.32l23.38-6.27c-2.09-7.81-4.17-15.55-6.27-23.38l-23.38 6.27c2.1 7.85 4.17 15.57 6.27 23.38zM122.6 461.19c.23 1.49.48 3 .69 4.46q1.17 8.33 2.32 16.67c.16 1.19.33 2.38.5 3.64h8.57V513h3.25v.14c-.39.62-.8 1.23-1.17 1.86-1 1.69-1.95 3.38-3 5.18l-4.15-7.18h3.19v-25.15h-8.33c-1.14-8.24-2.28-16.43-3.42-24.66h-6.11c-1 8.49-2.11 17-3.18 25.61l-9.13-8.16v8.41l-9.18-8.38v8.41l-9-8.35V513h3.17l-4.16 7.22-4.13-7.22h3.21v-36.64l9 8.33v-8.34l9.18 8.36v-8.34l9.64 8.61c.2-1.53.38-2.92.55-4.31q.89-7.11 1.76-14.23c.22-1.75.42-3.5.63-5.25z"/><path class="cls-3" d="M123 517.75h-9.06V503.9H123zm-7.16-1.86h5.26v-10.08h-5.26zM118.39 484.76a3.76 3.76 0 0 1 0-7.52 3.75 3.75 0 0 1 3.77 3.82 3.71 3.71 0 0 1-3.77 3.7zm0-1.85a1.9 1.9 0 1 0 0-3.79 1.9 1.9 0 0 0-1.89 1.9 1.93 1.93 0 0 0 1.93 1.89zM124 250.08c.26 1.64.53 3.27.76 4.91q1.22 8.61 2.4 17.23c.24 1.69.47 3.38.71 5.15h9.44v29.81h3.58v.16c-.43.68-.88 1.36-1.29 2.05-1.08 1.85-2.15 3.71-3.3 5.71l-4.57-7.91h3.51v-27.74h-9.17c-1.26-9.08-2.52-18.11-3.78-27.17h-6.72c-1.17 9.35-2.33 18.7-3.51 28.22l-10.06-9v9.26l-10.1-9.22v9.27l-9.9-9.2v35.54h3.5l-4.58 8-4.58-7.91h3.55v-40.4l9.88 9.16v-9.19L99.88 276v-9.2l10.62 9.49.62-4.83q1-8.4 2.08-16.81c.19-1.52.36-3.05.54-4.57z"/><path class="cls-3" d="M108.64 296h16.73a5.89 5.89 0 1 1 0 11.77H91.79a5.89 5.89 0 1 1 0-11.77zm-1.85 9.66a4.24 4.24 0 0 1-.05-7.54H98.1a4.26 4.26 0 0 1 2.28 3.81 4.33 4.33 0 0 1-2.28 3.73zm3.72 0h8.57c-3-2.3-3-4.74-.06-7.53h-8.5a4.29 4.29 0 0 1-.01 7.46zm12.48.06h2.57a3.81 3.81 0 0 0 3.36-5.43c-1.13-2.27-3.06-2.47-5.92-2.09a4.36 4.36 0 0 1 0 7.45zm-28.53 0a4.31 4.31 0 0 1-2.37-3.81 4.45 4.45 0 0 1 2.32-3.91h-2.82a3.82 3.82 0 0 0-.19 7.62c.94.07 1.88.02 3.06.02zm-.32-3.76a2.15 2.15 0 0 0 2.14 2.06 2.11 2.11 0 1 0-2.14-2.06zm24.77 0a2.09 2.09 0 1 0 2.07-2.13 2.14 2.14 0 0 0-2.07 2.02zm-8.2 0a2.1 2.1 0 1 0-2.11 2.09 2.14 2.14 0 0 0 2.11-2.2zM104.53 294.45v-8.22h8.19v8.22zm2-2.05h4.12v-4.08h-4.12zM125.09 286.23v8.23h-8.21v-8.23zm-6.09 6.16h4.1v-4.08H119z"/></svg>