<svg id="Layer_1" data-name="Layer 1" xmlns="http://www.w3.org/2000/svg" viewBox="0 0 350 350"><defs><style>.cls-1{fill:#d0b5d5;}.cls-2{fill:#e6dbe6;}.cls-3{fill:#963596;}.cls-4{fill:#fff;}</style></defs><title>workforce-optimization</title><path class="cls-1" d="M321.82,256.93l6,3.43a175.46,175.46,0,0,0,14.83-135.78h0c-.74-2.47-1.53-4.91-2.38-7.34A175.09,175.09,0,0,0,178.87,0h-1.61V7.1h-5V0h-1.12A175.08,175.08,0,0,0,9.76,117.24q-1.28,3.65-2.39,7.35a175.45,175.45,0,0,0,15,136L28,257.36c.81,1.45,1.65,2.9,2.5,4.32l-5.58,3.23A175.81,175.81,0,0,0,69,314.27q3.07,2.36,6.25,4.55a175.08,175.08,0,0,0,199.45,0c2.12-1.47,4.2-3,6.25-4.55a175.74,175.74,0,0,0,44.3-49.59l-5.95-3.42C320.18,259.83,321,258.38,321.82,256.93Z"/><path class="cls-2" d="M342.91,175a167.64,167.64,0,0,1-66.22,133.63q-3,2.25-6,4.36a168,168,0,0,1-191.38,0q-3-2.12-6-4.37a168.22,168.22,0,0,1-59.17-182c.72-2.37,1.48-4.72,2.3-7A168,168,0,0,1,171.3,7.12h7.41A168,168,0,0,1,333.55,119.57q1.21,3.48,2.29,7h0A167.94,167.94,0,0,1,342.91,175Z"/><path class="cls-3" d="M172.26,7.12A168.2,168.2,0,0,0,27.93,257.35l144.33-83.52Z"/><path class="cls-3" d="M321.82,256.93A168.21,168.21,0,0,0,177.26,7.12V173.83Z"/><path class="cls-3" d="M30.43,261.67a168.24,168.24,0,0,0,288.9-.41l-144.57-83.1Z"/><path class="cls-2" d="M238.16,175a63,63,0,0,1-24.91,50.26c-.74.56-1.49,1.11-2.26,1.64a63.16,63.16,0,0,1-72,0c-.76-.53-1.52-1.07-2.25-1.64a63.23,63.23,0,0,1-22.26-68.45c.27-.89.56-1.78.87-2.66a63.17,63.17,0,0,1,58.24-42.29h2.79a63.16,63.16,0,0,1,58.23,42.29c.31.88.6,1.76.86,2.65h0A63,63,0,0,1,238.16,175Z"/><path class="cls-4" d="M265.88,141.84v4.72c0,1.58.66,2.31,1.65,2.31s1.71-.73,1.71-2.31v-4.72h1.47v4.62c0,2.5-1.28,3.6-3.22,3.6s-3.09-1-3.09-3.59v-4.63Z"/><path class="cls-4" d="M272.35,145.83c0-.68,0-1.24-.05-1.74h1.29l.08.87h0a2.12,2.12,0,0,1,1.86-1c1,0,2.08.66,2.08,2.5v3.47h-1.48v-3.3c0-.84-.31-1.48-1.12-1.48a1.25,1.25,0,0,0-1.15.87,1.75,1.75,0,0,0-.06.48v3.43h-1.48Z"/><path class="cls-4" d="M283.5,149.75a4.31,4.31,0,0,1-1.65.3,2.81,2.81,0,0,1-3-3,3,3,0,0,1,3.25-3.11,3.83,3.83,0,0,1,1.43.27l-.27,1.1a2.75,2.75,0,0,0-1.11-.22,1.89,1.89,0,0,0,0,3.77,2.91,2.91,0,0,0,1.16-.22Z"/><path class="cls-4" d="M290.15,147a2.89,2.89,0,0,1-3,3.11,2.82,2.82,0,0,1-2.92-3,2.88,2.88,0,0,1,3-3.09A2.8,2.8,0,0,1,290.15,147Zm-4.4.06c0,1.13.55,2,1.45,2s1.43-.82,1.43-2c0-.91-.41-2-1.42-2S285.75,146,285.75,147Z"/><path class="cls-4" d="M292.3,144.09l.95,3a13.28,13.28,0,0,1,.39,1.46h0c.11-.48.24-.93.4-1.46l.92-3h1.56l-2.23,5.84h-1.45l-2.17-5.84Z"/><path class="cls-4" d="M298.51,147.42a1.58,1.58,0,0,0,1.79,1.51,4.32,4.32,0,0,0,1.62-.26l.22,1a5.57,5.57,0,0,1-2,.36,2.77,2.77,0,0,1-3-3A2.89,2.89,0,0,1,300,144c1.89,0,2.51,1.55,2.51,2.84a4.32,4.32,0,0,1,0,.62Zm2.56-1a1.26,1.26,0,0,0-1.21-1.43,1.44,1.44,0,0,0-1.35,1.43Z"/><path class="cls-4" d="M303.65,146c0-.79,0-1.35,0-1.88h1.28l.05,1.11H305a1.73,1.73,0,0,1,1.59-1.24,1.9,1.9,0,0,1,.35,0v1.39a2.31,2.31,0,0,0-.43,0,1.3,1.3,0,0,0-1.32,1.12,2.09,2.09,0,0,0-.05.46v3h-1.48Z"/><path class="cls-4" d="M307.85,148.57a3.26,3.26,0,0,0,1.5.42c.65,0,.94-.26.94-.64s-.24-.6-1-.86c-1.14-.39-1.62-1-1.61-1.7,0-1,.85-1.83,2.21-1.83a3.46,3.46,0,0,1,1.55.34l-.29,1A2.55,2.55,0,0,0,310,145c-.52,0-.81.25-.81.61s.27.55,1,.82c1,.38,1.54.92,1.56,1.79,0,1.05-.83,1.82-2.38,1.82a3.73,3.73,0,0,1-1.77-.41Z"/><path class="cls-4" d="M261.1,158.65h0a8.19,8.19,0,0,1,.47-.68l1.41-1.88h1.78l-2.16,2.38,2.47,3.46h-1.81l-1.68-2.58-.5.59v2h-1.48v-8.52h1.48Z"/><path class="cls-4" d="M265.73,157.83c0-.68,0-1.24-.05-1.74H267l.07.87h0a2.13,2.13,0,0,1,1.86-1c1,0,2.08.66,2.08,2.5v3.47h-1.48v-3.3c0-.84-.31-1.48-1.11-1.48a1.23,1.23,0,0,0-1.15.87,1.44,1.44,0,0,0-.06.48v3.43h-1.49Z"/><path class="cls-4" d="M278.15,159a2.9,2.9,0,0,1-3,3.11,2.82,2.82,0,0,1-2.93-3,2.88,2.88,0,0,1,3-3.09A2.8,2.8,0,0,1,278.15,159Zm-4.41.06c0,1.13.56,2,1.46,2s1.42-.82,1.42-2c0-.91-.41-2-1.41-2S273.74,158,273.74,159Z"/><path class="cls-4" d="M280.25,156.09l.61,2.65c.13.62.26,1.26.37,1.89h0c.12-.63.31-1.28.48-1.88l.75-2.66h1.2l.73,2.59c.18.68.34,1.32.47,1.95h0c.1-.63.23-1.27.39-1.95l.65-2.59h1.45l-1.84,5.84h-1.37l-.69-2.38c-.18-.61-.31-1.16-.45-1.87h0a16.75,16.75,0,0,1-.44,1.87l-.75,2.38h-1.38l-1.72-5.84Z"/><path class="cls-4" d="M288.35,153.41h1.49v8.52h-1.49Z"/><path class="cls-4" d="M292.48,159.42c0,1.06.86,1.51,1.8,1.51a4.3,4.3,0,0,0,1.61-.26l.22,1a5.57,5.57,0,0,1-2,.36,2.77,2.77,0,0,1-3-3,2.89,2.89,0,0,1,2.86-3.14c1.89,0,2.51,1.55,2.51,2.84a4.32,4.32,0,0,1,0,.62Zm2.56-1a1.26,1.26,0,0,0-1.21-1.43,1.44,1.44,0,0,0-1.35,1.43Z"/><path class="cls-4" d="M303,153.41v6.88c0,.59,0,1.24.05,1.64h-1.32l-.06-.93h0a2.08,2.08,0,0,1-1.9,1.06c-1.39,0-2.5-1.19-2.5-3s1.21-3.11,2.62-3.11a1.85,1.85,0,0,1,1.64.76h0v-3.31Zm-1.48,5.11a2.43,2.43,0,0,0,0-.38,1.29,1.29,0,0,0-1.27-1c-1,0-1.48.84-1.48,1.94s.53,1.84,1.46,1.84a1.32,1.32,0,0,0,1.28-1,2,2,0,0,0,0-.43Z"/><path class="cls-4" d="M309.93,156.09c0,.39-.05.87-.05,1.68v3.31a3.39,3.39,0,0,1-.86,2.65,3.35,3.35,0,0,1-2.25.71,4.13,4.13,0,0,1-2-.47l.32-1.12a3.48,3.48,0,0,0,1.7.45,1.56,1.56,0,0,0,1.68-1.77V161h0a2,2,0,0,1-1.7.86,2.6,2.6,0,0,1-2.49-2.85,2.8,2.8,0,0,1,2.66-3.08,1.85,1.85,0,0,1,1.69.91h0l.06-.78Zm-1.52,2.34a1.29,1.29,0,0,0-.05-.4,1.22,1.22,0,0,0-1.2-.95c-.83,0-1.44.72-1.44,1.91,0,1,.51,1.8,1.43,1.8a1.26,1.26,0,0,0,1.2-.89,2.26,2.26,0,0,0,.06-.53Z"/><path class="cls-4" d="M312.52,159.42a1.58,1.58,0,0,0,1.79,1.51,4.32,4.32,0,0,0,1.62-.26l.22,1a5.57,5.57,0,0,1-2,.36,2.77,2.77,0,0,1-3-3A2.89,2.89,0,0,1,314,156c1.89,0,2.51,1.55,2.51,2.84a4.32,4.32,0,0,1,0,.62Zm2.56-1a1.26,1.26,0,0,0-1.21-1.43,1.44,1.44,0,0,0-1.35,1.43Z"/><path class="cls-4" d="M275.66,173.93l-.09-.65h0a2.16,2.16,0,0,1-1.73.78,1.73,1.73,0,0,1-1.83-1.74c0-1.47,1.31-2.22,3.47-2.21V170c0-.39-.16-1-1.19-1a3.08,3.08,0,0,0-1.57.43l-.29-1a4.25,4.25,0,0,1,2.11-.51,2.18,2.18,0,0,1,2.41,2.45v2.11a9.5,9.5,0,0,0,.08,1.41Zm-.19-2.86c-1,0-2,.21-2,1.1a.77.77,0,0,0,.84.83,1.19,1.19,0,0,0,1.15-.8,1,1,0,0,0,.05-.32Z"/><path class="cls-4" d="M282.77,173.75a4.37,4.37,0,0,1-1.66.3,2.81,2.81,0,0,1-3-3,3,3,0,0,1,3.25-3.11,3.83,3.83,0,0,1,1.43.27l-.27,1.1a2.71,2.71,0,0,0-1.11-.22,1.89,1.89,0,0,0,0,3.77,2.87,2.87,0,0,0,1.16-.22Z"/><path class="cls-4" d="M283.86,170c0-.79,0-1.35-.05-1.88h1.29l0,1.11h.05a1.75,1.75,0,0,1,1.6-1.24,1.79,1.79,0,0,1,.34,0v1.39a2.31,2.31,0,0,0-.43,0,1.32,1.32,0,0,0-1.32,1.12,3,3,0,0,0,0,.46v3h-1.48Z"/><path class="cls-4" d="M293.69,171a2.9,2.9,0,0,1-3,3.11,2.82,2.82,0,0,1-2.93-3,2.88,2.88,0,0,1,3-3.09A2.8,2.8,0,0,1,293.69,171Zm-4.41.06c0,1.13.56,2,1.45,2s1.43-.82,1.43-2c0-.91-.41-2-1.41-2S289.28,170,289.28,171Z"/><path class="cls-4" d="M294.83,172.57a3.19,3.19,0,0,0,1.5.42c.65,0,.93-.26.93-.64s-.24-.6-1-.86c-1.14-.39-1.62-1-1.6-1.7a2,2,0,0,1,2.2-1.83,3.42,3.42,0,0,1,1.55.34l-.29,1a2.54,2.54,0,0,0-1.23-.34c-.53,0-.82.25-.82.61s.28.55,1,.82c1.06.38,1.55.92,1.56,1.79,0,1.05-.83,1.82-2.37,1.82a3.77,3.77,0,0,1-1.78-.41Z"/><path class="cls-4" d="M299.83,172.57a3.23,3.23,0,0,0,1.5.42c.65,0,.94-.26.94-.64s-.24-.6-1-.86c-1.14-.39-1.62-1-1.61-1.7,0-1,.85-1.83,2.21-1.83a3.41,3.41,0,0,1,1.54.34l-.28,1a2.55,2.55,0,0,0-1.24-.34c-.53,0-.81.25-.81.61s.27.55,1,.82c1.06.38,1.55.92,1.56,1.79,0,1.05-.82,1.82-2.37,1.82a3.8,3.8,0,0,1-1.78-.41Z"/><path class="cls-4" d="M253.81,178.42v1.67h1.4v1.1h-1.4v2.58c0,.71.19,1.08.76,1.08a2.43,2.43,0,0,0,.57-.07l0,1.12a3.08,3.08,0,0,1-1.07.15,1.69,1.69,0,0,1-1.27-.48,2.34,2.34,0,0,1-.46-1.63v-2.75h-.84v-1.1h.84v-1.32Z"/><path class="cls-4" d="M256.33,177.41h1.49v3.48h0a2,2,0,0,1,.74-.67,1.93,1.93,0,0,1,1-.26c1,0,2,.66,2,2.53v3.44h-1.47v-3.28c0-.85-.32-1.48-1.13-1.48a1.2,1.2,0,0,0-1.14.82,1.23,1.23,0,0,0-.06.45v3.49h-1.49Z"/><path class="cls-4" d="M264.24,183.42a1.58,1.58,0,0,0,1.8,1.51,4.39,4.39,0,0,0,1.62-.26l.22,1a5.61,5.61,0,0,1-2,.36,2.76,2.76,0,0,1-3-3,2.89,2.89,0,0,1,2.85-3.14c1.89,0,2.52,1.55,2.52,2.84a4,4,0,0,1-.05.62Zm2.57-1A1.26,1.26,0,0,0,265.6,181a1.44,1.44,0,0,0-1.36,1.43Z"/><path class="cls-4" d="M272.92,183.42a1.58,1.58,0,0,0,1.79,1.51,4.32,4.32,0,0,0,1.62-.26l.22,1a5.57,5.57,0,0,1-2,.36,2.77,2.77,0,0,1-3-3,2.89,2.89,0,0,1,2.86-3.14c1.89,0,2.51,1.55,2.51,2.84a4.32,4.32,0,0,1,0,.62Zm2.56-1a1.26,1.26,0,0,0-1.21-1.43,1.44,1.44,0,0,0-1.35,1.43Z"/><path class="cls-4" d="M278.06,181.83c0-.68,0-1.24,0-1.74h1.29l.07.87h0a2.12,2.12,0,0,1,1.86-1c1,0,2.07.66,2.07,2.5v3.47h-1.47v-3.3c0-.84-.31-1.48-1.12-1.48a1.25,1.25,0,0,0-1.15.87,1.44,1.44,0,0,0-.06.48v3.43h-1.49Z"/><path class="cls-4" d="M286.62,178.42v1.67H288v1.1h-1.4v2.58c0,.71.19,1.08.76,1.08a2.43,2.43,0,0,0,.57-.07l0,1.12a3,3,0,0,1-1.06.15,1.69,1.69,0,0,1-1.27-.48,2.29,2.29,0,0,1-.46-1.63v-2.75h-.84v-1.1h.84v-1.32Z"/><path class="cls-4" d="M290.18,183.42a1.59,1.59,0,0,0,1.8,1.51,4.32,4.32,0,0,0,1.62-.26l.22,1a5.61,5.61,0,0,1-2,.36,2.76,2.76,0,0,1-3-3,2.89,2.89,0,0,1,2.85-3.14c1.9,0,2.52,1.55,2.52,2.84a3.06,3.06,0,0,1-.05.62Zm2.57-1a1.26,1.26,0,0,0-1.21-1.43,1.45,1.45,0,0,0-1.36,1.43Z"/><path class="cls-4" d="M295.33,182c0-.79,0-1.35-.05-1.88h1.29l.05,1.11h0a1.75,1.75,0,0,1,1.6-1.24,1.9,1.9,0,0,1,.35,0v1.39a2.44,2.44,0,0,0-.44,0,1.3,1.3,0,0,0-1.31,1.12,2.09,2.09,0,0,0-.05.46v3h-1.48Z"/><path class="cls-4" d="M299.6,182c0-.77,0-1.39,0-1.94h1.29l.07.9h0a2.26,2.26,0,0,1,2-1c1.34,0,2.46,1.15,2.46,3,0,2.11-1.33,3.13-2.66,3.13a1.92,1.92,0,0,1-1.65-.78h0v3H299.6Zm1.48,1.45a1.36,1.36,0,0,0,.05.41,1.33,1.33,0,0,0,1.29,1c.94,0,1.49-.78,1.49-1.93s-.5-1.87-1.45-1.87a1.37,1.37,0,0,0-1.32,1.09,1.19,1.19,0,0,0-.06.37Z"/><path class="cls-4" d="M306.62,182c0-.79,0-1.35,0-1.88h1.28l.05,1.11h0a1.73,1.73,0,0,1,1.59-1.24,1.9,1.9,0,0,1,.35,0v1.39a2.31,2.31,0,0,0-.43,0,1.3,1.3,0,0,0-1.32,1.12,2.09,2.09,0,0,0,0,.46v3h-1.48Z"/><path class="cls-4" d="M312.47,178.46a.83.83,0,1,1-.83-.81A.79.79,0,0,1,312.47,178.46Zm-1.57,7.47v-5.84h1.48v5.84Z"/><path class="cls-4" d="M313.9,184.57a3.19,3.19,0,0,0,1.49.42c.65,0,.94-.26.94-.65s-.24-.59-1-.85c-1.14-.39-1.62-1-1.61-1.7A2,2,0,0,1,316,180a3.46,3.46,0,0,1,1.55.34l-.29,1A2.55,2.55,0,0,0,316,181c-.52,0-.81.25-.81.61s.28.55,1,.82c1.05.38,1.55.92,1.56,1.78,0,1.06-.83,1.83-2.38,1.83a3.76,3.76,0,0,1-1.77-.41Z"/><path class="cls-4" d="M320,183.42a1.58,1.58,0,0,0,1.79,1.51,4.32,4.32,0,0,0,1.62-.26l.22,1a5.57,5.57,0,0,1-2,.36,2.76,2.76,0,0,1-3-3,2.89,2.89,0,0,1,2.85-3.14c1.9,0,2.52,1.55,2.52,2.84a3.06,3.06,0,0,1-.05.62Zm2.56-1a1.26,1.26,0,0,0-1.21-1.43,1.44,1.44,0,0,0-1.35,1.43Z"/><path class="cls-4" d="M20.6,148.32a4,4,0,0,0,1.95.52c.95,0,1.48-.45,1.48-1.11s-.41-1-1.44-1.34c-1.33-.48-2.18-1.19-2.18-2.35,0-1.32,1.1-2.33,2.85-2.33a4.23,4.23,0,0,1,1.95.41l-.37,1.19a3.32,3.32,0,0,0-1.6-.39c-.94,0-1.35.51-1.35,1,0,.62.47.91,1.55,1.33,1.4.52,2.09,1.23,2.09,2.4s-1,2.42-3.07,2.42a4.7,4.7,0,0,1-2.18-.51Z"/><path class="cls-4" d="M32.36,147a2.9,2.9,0,0,1-3,3.11,2.82,2.82,0,0,1-2.93-3,2.88,2.88,0,0,1,3-3.09A2.8,2.8,0,0,1,32.36,147ZM28,147c0,1.13.56,2,1.46,2s1.42-.82,1.42-2c0-.91-.41-2-1.41-2S28,146,28,147Z"/><path class="cls-4" d="M33.57,141.41h1.49v8.52H33.57Z"/><path class="cls-4" d="M41.88,148.18c0,.69,0,1.27,0,1.75H40.64l-.08-.89h0a2.11,2.11,0,0,1-1.87,1c-1.07,0-2-.64-2-2.54v-3.43h1.48v3.18c0,1,.31,1.59,1.09,1.59a1.22,1.22,0,0,0,1.12-.79,1.3,1.3,0,0,0,.09-.46v-3.52h1.47Z"/><path class="cls-4" d="M45.17,142.42v1.67h1.41v1.1H45.17v2.58c0,.71.2,1.08.76,1.08a2.43,2.43,0,0,0,.57-.07l0,1.12a3.08,3.08,0,0,1-1.07.15,1.71,1.71,0,0,1-1.27-.48,2.34,2.34,0,0,1-.46-1.63v-2.75h-.84v-1.1h.84v-1.32Z"/><path class="cls-4" d="M49.27,142.46a.79.79,0,0,1-.84.79.77.77,0,0,1-.82-.79.83.83,0,0,1,1.66,0Zm-1.58,7.47v-5.84h1.49v5.84Z"/><path class="cls-4" d="M56.32,147a2.89,2.89,0,0,1-3,3.11,2.83,2.83,0,0,1-2.93-3,2.88,2.88,0,0,1,3-3.09A2.8,2.8,0,0,1,56.32,147Zm-4.4.06c0,1.13.55,2,1.45,2s1.43-.82,1.43-2c0-.91-.41-2-1.42-2S51.92,146,51.92,147Z"/><path class="cls-4" d="M57.53,145.83c0-.68,0-1.24,0-1.74h1.29l.07.87h0a2.12,2.12,0,0,1,1.86-1c1,0,2.07.66,2.07,2.5v3.47H61.35v-3.3c0-.84-.31-1.48-1.12-1.48a1.25,1.25,0,0,0-1.15.87,1.44,1.44,0,0,0-.06.48v3.43H57.53Z"/><path class="cls-4" d="M66.88,145.83c0-.68,0-1.24,0-1.74h1.28l.06.86h0a2,2,0,0,1,1.8-1A1.68,1.68,0,0,1,71.62,145h0a2.39,2.39,0,0,1,.72-.73,2,2,0,0,1,1.18-.34c1,0,1.95.66,1.95,2.53v3.44H74.05V146.7c0-1-.33-1.55-1-1.55a1.12,1.12,0,0,0-1,.78,2,2,0,0,0-.07.5v3.5H70.47v-3.38c0-.82-.33-1.4-1-1.4a1.15,1.15,0,0,0-1,.84,1.32,1.32,0,0,0-.09.48v3.46H66.88Z"/><path class="cls-4" d="M80.34,149.93l-.09-.65h0a2.15,2.15,0,0,1-1.72.78,1.73,1.73,0,0,1-1.84-1.74c0-1.47,1.31-2.22,3.47-2.21V146c0-.39-.16-1-1.19-1a3.08,3.08,0,0,0-1.57.43l-.29-1a4.25,4.25,0,0,1,2.11-.51,2.18,2.18,0,0,1,2.41,2.45v2.11a9.35,9.35,0,0,0,.09,1.41Zm-.19-2.86c-1,0-2,.21-2,1.1A.77.77,0,0,0,79,149a1.19,1.19,0,0,0,1.15-.8,1,1,0,0,0,.05-.32Z"/><path class="cls-4" d="M84.63,146.65h0c.15-.22.31-.48.47-.68l1.42-1.88h1.77l-2.16,2.38,2.47,3.46H86.81l-1.68-2.58-.5.59v2H83.15v-8.52h1.48Z"/><path class="cls-4" d="M90.3,147.42a1.59,1.59,0,0,0,1.8,1.51,4.32,4.32,0,0,0,1.62-.26l.22,1a5.57,5.57,0,0,1-2,.36,2.77,2.77,0,0,1-3-3A2.89,2.89,0,0,1,91.74,144c1.9,0,2.52,1.55,2.52,2.84a3.06,3.06,0,0,1-.05.62Zm2.57-1A1.26,1.26,0,0,0,91.66,145a1.46,1.46,0,0,0-1.36,1.43Z"/><path class="cls-4" d="M95.38,148.57a3.23,3.23,0,0,0,1.5.42c.65,0,.94-.26.94-.65s-.24-.59-1-.85c-1.14-.39-1.62-1-1.61-1.7,0-1,.85-1.83,2.21-1.83a3.41,3.41,0,0,1,1.54.34l-.28,1a2.58,2.58,0,0,0-1.24-.34c-.53,0-.81.25-.81.61s.27.55,1,.82c1.06.38,1.55.92,1.56,1.78,0,1.06-.82,1.83-2.37,1.83a3.8,3.8,0,0,1-1.78-.41Z"/><path class="cls-4" d="M12.61,154.46a.83.83,0,1,1-.83-.81A.8.8,0,0,1,12.61,154.46ZM11,161.93v-5.84h1.48v5.84Z"/><path class="cls-4" d="M14.11,157.83c0-.68,0-1.24,0-1.74h1.29l.08.87h0a2.12,2.12,0,0,1,1.86-1c1,0,2.08.66,2.08,2.5v3.47H17.92v-3.3c0-.84-.31-1.48-1.11-1.48a1.25,1.25,0,0,0-1.16.87,1.75,1.75,0,0,0-.06.48v3.43H14.11Z"/><path class="cls-4" d="M21.14,161.93v-4.74h-.79v-1.1h.79v-.26a2.71,2.71,0,0,1,.71-2,2.26,2.26,0,0,1,1.52-.56,3,3,0,0,1,.95.14l-.11,1.14a1.74,1.74,0,0,0-.62-.1c-.74,0-1,.61-1,1.33v.3h1.29v1.1H22.61v4.74Z"/><path class="cls-4" d="M30.35,159a2.89,2.89,0,0,1-3,3.11,2.82,2.82,0,0,1-2.92-3,2.88,2.88,0,0,1,3-3.09A2.8,2.8,0,0,1,30.35,159ZM26,159c0,1.13.55,2,1.45,2s1.43-.82,1.43-2c0-.91-.41-2-1.42-2S26,158,26,159Z"/><path class="cls-4" d="M31.57,158c0-.79,0-1.35-.05-1.88H32.8l.05,1.11h0A1.74,1.74,0,0,1,34.49,156a1.83,1.83,0,0,1,.35,0v1.39a2.31,2.31,0,0,0-.43,0,1.3,1.3,0,0,0-1.32,1.12,2.94,2.94,0,0,0-.05.46v3H31.57Z"/><path class="cls-4" d="M35.84,157.83c0-.68,0-1.24-.05-1.74h1.27l.06.86h0a2,2,0,0,1,1.8-1A1.7,1.7,0,0,1,40.58,157h0a2.19,2.19,0,0,1,.72-.73A2,2,0,0,1,42.5,156c1,0,2,.66,2,2.53v3.44H43V158.7c0-1-.34-1.55-1-1.55a1.11,1.11,0,0,0-1,.78,2,2,0,0,0-.08.5v3.5H39.42v-3.38c0-.82-.32-1.4-1-1.4a1.17,1.17,0,0,0-1.06.84,1.31,1.31,0,0,0-.08.48v3.46H35.84Z"/><path class="cls-4" d="M47.06,159.42c0,1.06.86,1.51,1.8,1.51a4.39,4.39,0,0,0,1.62-.26l.21,1a5.57,5.57,0,0,1-2,.36,2.77,2.77,0,0,1-3-3A2.89,2.89,0,0,1,48.5,156c1.89,0,2.52,1.55,2.52,2.84a4,4,0,0,1-.05.62Zm2.57-1A1.26,1.26,0,0,0,48.41,157a1.44,1.44,0,0,0-1.35,1.43Z"/><path class="cls-4" d="M57.59,153.41v6.88c0,.59,0,1.24,0,1.64H56.32l-.06-.93h0a2.11,2.11,0,0,1-1.91,1.06c-1.39,0-2.5-1.19-2.5-3S53.05,156,54.45,156a1.85,1.85,0,0,1,1.64.76h0v-3.31Zm-1.47,5.11a2.45,2.45,0,0,0,0-.38,1.29,1.29,0,0,0-1.27-1c-1,0-1.48.84-1.48,1.94s.53,1.84,1.47,1.84a1.31,1.31,0,0,0,1.27-1,2,2,0,0,0,0-.43Z"/><path class="cls-4" d="M67.05,153.41v6.88c0,.59,0,1.24,0,1.64H65.78l-.06-.93h0a2.09,2.09,0,0,1-1.9,1.06c-1.4,0-2.5-1.19-2.5-3S62.5,156,63.91,156a1.87,1.87,0,0,1,1.64.76h0v-3.31Zm-1.48,5.11a2.43,2.43,0,0,0,0-.38,1.3,1.3,0,0,0-1.28-1c-.94,0-1.47.84-1.47,1.94s.53,1.84,1.46,1.84a1.3,1.3,0,0,0,1.27-1,1.49,1.49,0,0,0,0-.43Z"/><path class="cls-4" d="M69.68,159.42c0,1.06.86,1.51,1.8,1.51a4.39,4.39,0,0,0,1.62-.26l.21,1a5.57,5.57,0,0,1-2,.36,2.77,2.77,0,0,1-3-3A2.89,2.89,0,0,1,71.12,156c1.89,0,2.51,1.55,2.51,2.84a4.32,4.32,0,0,1,0,.62Zm2.56-1A1.25,1.25,0,0,0,71,157a1.44,1.44,0,0,0-1.35,1.43Z"/><path class="cls-4" d="M79.12,161.75a4.33,4.33,0,0,1-1.66.3,2.81,2.81,0,0,1-3-3A3,3,0,0,1,77.7,156a3.79,3.79,0,0,1,1.43.27l-.26,1.1a2.76,2.76,0,0,0-1.12-.22,1.89,1.89,0,0,0,0,3.77,2.93,2.93,0,0,0,1.17-.22Z"/><path class="cls-4" d="M81.79,154.46a.79.79,0,0,1-.84.79.77.77,0,0,1-.82-.79.83.83,0,0,1,1.66,0Zm-1.58,7.47v-5.84H81.7v5.84Z"/><path class="cls-4" d="M83.21,160.57a3.26,3.26,0,0,0,1.5.42c.65,0,.94-.26.94-.65s-.24-.59-1-.85c-1.14-.39-1.62-1-1.61-1.7,0-1,.85-1.83,2.21-1.83a3.46,3.46,0,0,1,1.55.34l-.29,1a2.55,2.55,0,0,0-1.24-.34c-.52,0-.81.25-.81.61s.27.55,1,.82c1,.38,1.54.92,1.56,1.78,0,1.06-.83,1.83-2.38,1.83a3.73,3.73,0,0,1-1.77-.41Z"/><path class="cls-4" d="M89.86,154.46a.78.78,0,0,1-.84.79.77.77,0,0,1-.81-.79.83.83,0,0,1,1.65,0Zm-1.57,7.47v-5.84h1.49v5.84Z"/><path class="cls-4" d="M96.92,159a2.9,2.9,0,0,1-3,3.11,2.82,2.82,0,0,1-2.93-3A2.88,2.88,0,0,1,94,156,2.8,2.8,0,0,1,96.92,159Zm-4.41.06c0,1.13.55,2,1.45,2s1.43-.82,1.43-2c0-.91-.41-2-1.41-2S92.51,158,92.51,159Z"/><path class="cls-4" d="M98.13,157.83c0-.68,0-1.24,0-1.74h1.3l.07.87h0a2.13,2.13,0,0,1,1.86-1c1,0,2.08.66,2.08,2.5v3.47h-1.48v-3.3c0-.84-.31-1.48-1.11-1.48a1.23,1.23,0,0,0-1.15.87,1.44,1.44,0,0,0-.06.48v3.43H98.13Z"/><path class="cls-4" d="M104.92,160.57a3.23,3.23,0,0,0,1.5.42c.65,0,.94-.26.94-.65s-.24-.59-1-.85c-1.14-.39-1.62-1-1.61-1.7,0-1,.85-1.83,2.21-1.83a3.41,3.41,0,0,1,1.54.34l-.28,1A2.58,2.58,0,0,0,107,157c-.53,0-.81.25-.81.61s.27.55,1,.82c1.06.38,1.55.92,1.56,1.78,0,1.06-.82,1.83-2.37,1.83a3.8,3.8,0,0,1-1.78-.41Z"/><path class="cls-4" d="M36.77,173.93c0-.4,0-1.05,0-1.64v-6.88h1.47v3.48h0a2.11,2.11,0,0,1,1.87-.93c1.42,0,2.44,1.18,2.43,3,0,2.1-1.33,3.14-2.65,3.14a2,2,0,0,1-1.85-1h0l-.07.88Zm1.52-2.41a1.34,1.34,0,0,0,0,.35,1.36,1.36,0,0,0,1.3,1c.93,0,1.49-.75,1.49-1.92s-.49-1.87-1.47-1.87a1.38,1.38,0,0,0-1.31,1.08,2,2,0,0,0-.05.38Z"/><path class="cls-4" d="M47.12,173.93l-.09-.65h0a2.16,2.16,0,0,1-1.73.78,1.73,1.73,0,0,1-1.83-1.74c0-1.47,1.31-2.22,3.46-2.21V170c0-.39-.15-1-1.18-1a3.08,3.08,0,0,0-1.57.43l-.29-1A4.25,4.25,0,0,1,46,168a2.18,2.18,0,0,1,2.41,2.45v2.11a9.5,9.5,0,0,0,.08,1.41Zm-.19-2.86c-1,0-2,.21-2,1.1a.77.77,0,0,0,.84.83,1.19,1.19,0,0,0,1.15-.8,1,1,0,0,0,0-.32Z"/><path class="cls-4" d="M49.86,172.57a3.23,3.23,0,0,0,1.5.42c.65,0,.93-.26.93-.65s-.23-.59-.95-.85c-1.14-.39-1.62-1-1.61-1.7,0-1,.85-1.83,2.21-1.83a3.41,3.41,0,0,1,1.54.34l-.28,1A2.58,2.58,0,0,0,52,169c-.53,0-.82.25-.82.61s.28.55,1,.82c1.06.38,1.55.92,1.56,1.78,0,1.06-.83,1.83-2.37,1.83a3.77,3.77,0,0,1-1.78-.41Z"/><path class="cls-4" d="M56,171.42a1.58,1.58,0,0,0,1.8,1.51,4.39,4.39,0,0,0,1.62-.26l.21,1a5.55,5.55,0,0,1-2,.36,2.77,2.77,0,0,1-3-3A2.89,2.89,0,0,1,57.42,168c1.89,0,2.52,1.55,2.52,2.84a4,4,0,0,1,0,.62Zm2.57-1A1.26,1.26,0,0,0,57.33,169,1.44,1.44,0,0,0,56,170.39Z"/><path class="cls-4" d="M66.51,165.41v6.88c0,.59,0,1.24,0,1.64H65.24l-.06-.93h0a2.11,2.11,0,0,1-1.91,1.06c-1.39,0-2.49-1.19-2.49-3S62,168,63.37,168a1.85,1.85,0,0,1,1.64.76h0v-3.31ZM65,170.52a1.64,1.64,0,0,0,0-.38,1.29,1.29,0,0,0-1.27-1c-.95,0-1.47.84-1.47,1.94s.52,1.84,1.46,1.84a1.3,1.3,0,0,0,1.27-1,1.49,1.49,0,0,0,.05-.43Z"/><path class="cls-4" d="M76.14,171a2.89,2.89,0,0,1-3,3.11,2.82,2.82,0,0,1-2.93-3,2.88,2.88,0,0,1,3-3.09A2.8,2.8,0,0,1,76.14,171Zm-4.4.06c0,1.13.55,2,1.45,2s1.42-.82,1.42-2c0-.91-.4-2-1.41-2S71.74,170,71.74,171Z"/><path class="cls-4" d="M77.35,169.83c0-.68,0-1.24,0-1.74h1.3l.07.87h0a2.1,2.1,0,0,1,1.86-1c1,0,2.07.66,2.07,2.5v3.47H81.17v-3.3c0-.84-.32-1.48-1.12-1.48a1.23,1.23,0,0,0-1.15.87,1.44,1.44,0,0,0-.06.48v3.43H77.35Z"/><path class="cls-4" d="M26.45,182c0-.77,0-1.39-.05-1.94h1.3l.07.9h0a2.27,2.27,0,0,1,2-1c1.35,0,2.46,1.15,2.46,3,0,2.11-1.33,3.13-2.66,3.13a1.91,1.91,0,0,1-1.64-.78h0v3H26.45Zm1.47,1.45a1.77,1.77,0,0,0,0,.41,1.34,1.34,0,0,0,1.3,1c.93,0,1.48-.78,1.48-1.93s-.5-1.87-1.45-1.87A1.38,1.38,0,0,0,28,182.21a1.59,1.59,0,0,0-.06.37Z"/><path class="cls-4" d="M36.75,185.93l-.09-.65h0a2.15,2.15,0,0,1-1.72.78,1.73,1.73,0,0,1-1.84-1.74c0-1.47,1.31-2.22,3.47-2.21V182c0-.39-.16-1-1.19-1a3.08,3.08,0,0,0-1.57.43l-.29-1a4.25,4.25,0,0,1,2.11-.51A2.18,2.18,0,0,1,38,182.41v2.11a9.35,9.35,0,0,0,.09,1.41Zm-.19-2.86c-1,0-2,.21-2,1.1a.77.77,0,0,0,.84.83,1.21,1.21,0,0,0,1.16-.8,1.27,1.27,0,0,0,0-.32Z"/><path class="cls-4" d="M39.49,184.57A3.23,3.23,0,0,0,41,185c.65,0,.94-.26.94-.65s-.24-.59-1-.85c-1.14-.39-1.62-1-1.61-1.7,0-1,.85-1.83,2.21-1.83a3.46,3.46,0,0,1,1.55.34l-.29,1a2.55,2.55,0,0,0-1.24-.34c-.53,0-.81.25-.81.61s.27.55,1,.82c1.05.38,1.54.92,1.56,1.78,0,1.06-.83,1.83-2.38,1.83a3.73,3.73,0,0,1-1.77-.41Z"/><path class="cls-4" d="M46.26,178.42v1.67h1.4v1.1h-1.4v2.58c0,.71.19,1.08.76,1.08a2.43,2.43,0,0,0,.57-.07l0,1.12a3.08,3.08,0,0,1-1.07.15,1.69,1.69,0,0,1-1.27-.48,2.29,2.29,0,0,1-.46-1.63v-2.75H44v-1.1h.84v-1.32Z"/><path class="cls-4" d="M51.26,177.41h1.49v8.52H51.26Z"/><path class="cls-4" d="M55.39,183.42a1.59,1.59,0,0,0,1.8,1.51,4.32,4.32,0,0,0,1.62-.26l.22,1a5.61,5.61,0,0,1-2,.36,2.76,2.76,0,0,1-3-3A2.89,2.89,0,0,1,56.83,180c1.9,0,2.52,1.55,2.52,2.84a3.06,3.06,0,0,1-.05.62Zm2.57-1A1.26,1.26,0,0,0,56.75,181a1.45,1.45,0,0,0-1.36,1.43Z"/><path class="cls-4" d="M63.83,185.93l-.1-.65h0a2.15,2.15,0,0,1-1.72.78,1.73,1.73,0,0,1-1.84-1.74c0-1.47,1.31-2.22,3.47-2.21V182c0-.39-.16-1-1.19-1a3.14,3.14,0,0,0-1.57.43l-.29-1a4.25,4.25,0,0,1,2.11-.51,2.18,2.18,0,0,1,2.41,2.45v2.11a9.35,9.35,0,0,0,.09,1.41Zm-.2-2.86c-1,0-2,.21-2,1.1a.77.77,0,0,0,.84.83,1.2,1.2,0,0,0,1.15-.8,1.27,1.27,0,0,0,0-.32Z"/><path class="cls-4" d="M66.64,182c0-.79,0-1.35,0-1.88h1.28l0,1.11h0A1.74,1.74,0,0,1,69.56,180a1.83,1.83,0,0,1,.35,0v1.39a2.31,2.31,0,0,0-.43,0,1.3,1.3,0,0,0-1.32,1.12,2.94,2.94,0,0,0,0,.46v3H66.64Z"/><path class="cls-4" d="M70.91,181.83c0-.68,0-1.24,0-1.74h1.3l.07.87h0a2.13,2.13,0,0,1,1.86-1c1,0,2.08.66,2.08,2.5v3.47H74.72v-3.3c0-.84-.31-1.48-1.11-1.48a1.23,1.23,0,0,0-1.15.87,1.44,1.44,0,0,0-.06.48v3.43H70.91Z"/><path class="cls-4" d="M79.34,178.46a.78.78,0,0,1-.84.79.77.77,0,0,1-.81-.79.83.83,0,0,1,1.65,0Zm-1.57,7.47v-5.84h1.49v5.84Z"/><path class="cls-4" d="M80.84,181.83c0-.68,0-1.24,0-1.74h1.29l.07.87h0a2.12,2.12,0,0,1,1.86-1c1,0,2.07.66,2.07,2.5v3.47H84.66v-3.3c0-.84-.31-1.48-1.12-1.48a1.25,1.25,0,0,0-1.15.87,1.44,1.44,0,0,0-.06.48v3.43H80.84Z"/><path class="cls-4" d="M93,180.09c0,.39,0,.87,0,1.68v3.31a2.81,2.81,0,0,1-3.12,3.35,4.13,4.13,0,0,1-2-.46l.32-1.12a3.53,3.53,0,0,0,1.71.44,1.55,1.55,0,0,0,1.68-1.76V185h0a2,2,0,0,1-1.7.86A2.59,2.59,0,0,1,87.34,183,2.79,2.79,0,0,1,90,180a1.85,1.85,0,0,1,1.69.91h0l.06-.78Zm-1.52,2.34a1.29,1.29,0,0,0,0-.4,1.22,1.22,0,0,0-1.2-.95c-.82,0-1.44.72-1.44,1.91,0,1,.51,1.8,1.43,1.8a1.26,1.26,0,0,0,1.2-.89,2.26,2.26,0,0,0,.06-.53Z"/><path class="cls-4" d="M174.53,264.48c0-1-.1-2.3-.09-3.39h0c-.26,1-.6,2.07-1,3.09l-1.17,3.51h-1.14l-1.08-3.46c-.31-1-.6-2.13-.82-3.14h0c0,1.06-.08,2.34-.15,3.44l-.18,3.25h-1.37l.53-8.08h2l1,3.25c.29.95.54,1.91.75,2.8h0c.22-.87.49-1.87.81-2.81l1.11-3.24h1.92l.47,8.08h-1.44Z"/><path class="cls-4" d="M180.86,267.78l-.1-.65h0a2.16,2.16,0,0,1-1.73.78,1.73,1.73,0,0,1-1.83-1.74c0-1.47,1.3-2.21,3.46-2.2v-.1c0-.38-.15-1-1.19-1a3.14,3.14,0,0,0-1.57.43l-.29-.95a4.18,4.18,0,0,1,2.12-.52,2.19,2.19,0,0,1,2.41,2.46v2.11a9.36,9.36,0,0,0,.08,1.4Zm-.19-2.85c-1,0-2,.2-2,1.09a.78.78,0,0,0,.84.84,1.19,1.19,0,0,0,1.15-.81.89.89,0,0,0,0-.32Z"/><path class="cls-4" d="M188,267.6a4.13,4.13,0,0,1-1.65.3,2.8,2.8,0,0,1-3-3,3,3,0,0,1,3.25-3.12,3.74,3.74,0,0,1,1.42.27l-.26,1.11a2.56,2.56,0,0,0-1.11-.23,1.89,1.89,0,0,0,0,3.78,2.89,2.89,0,0,0,1.16-.23Z"/><path class="cls-4" d="M189.06,259.27h1.48v3.48h0a2,2,0,0,1,.73-.68,2.1,2.1,0,0,1,1-.26c1,0,2,.66,2,2.53v3.44h-1.48v-3.27c0-.85-.31-1.49-1.13-1.49a1.21,1.21,0,0,0-1.14.83,1.42,1.42,0,0,0-.06.44v3.49h-1.48Z"/><path class="cls-4" d="M197.49,260.31a.78.78,0,0,1-.84.79.77.77,0,0,1-.81-.79.83.83,0,0,1,1.65,0Zm-1.57,7.47v-5.84h1.49v5.84Z"/><path class="cls-4" d="M199,263.68c0-.67,0-1.23,0-1.74h1.29l.07.88h0a2.1,2.1,0,0,1,1.86-1c1,0,2.07.66,2.07,2.51v3.46h-1.47v-3.3c0-.84-.31-1.47-1.12-1.47a1.24,1.24,0,0,0-1.15.86,1.44,1.44,0,0,0-.06.48v3.43H199Z"/><path class="cls-4" d="M206.9,265.28a1.59,1.59,0,0,0,1.8,1.51,4.34,4.34,0,0,0,1.62-.27l.21,1a5.35,5.35,0,0,1-2,.36,2.76,2.76,0,0,1-3-2.95,2.89,2.89,0,0,1,2.85-3.14,2.54,2.54,0,0,1,2.52,2.84,4.18,4.18,0,0,1-.05.63Zm2.57-1a1.25,1.25,0,0,0-1.21-1.42,1.43,1.43,0,0,0-1.36,1.42Z"/><path class="cls-4" d="M214.59,259.7h1.48v6.85h3.32v1.23h-4.8Z"/><path class="cls-4" d="M221.49,265.28a1.59,1.59,0,0,0,1.8,1.51,4.34,4.34,0,0,0,1.62-.27l.22,1a5.41,5.41,0,0,1-2,.36,2.76,2.76,0,0,1-3-2.95,2.89,2.89,0,0,1,2.85-3.14c1.9,0,2.52,1.56,2.52,2.84a3.17,3.17,0,0,1,0,.63Zm2.57-1a1.25,1.25,0,0,0-1.21-1.42,1.44,1.44,0,0,0-1.36,1.42Z"/><path class="cls-4" d="M229.93,267.78l-.1-.65h0a2.14,2.14,0,0,1-1.72.78,1.73,1.73,0,0,1-1.84-1.74c0-1.47,1.31-2.21,3.47-2.2v-.1c0-.38-.16-1-1.19-1a3.14,3.14,0,0,0-1.57.43l-.29-.95a4.14,4.14,0,0,1,2.11-.52,2.19,2.19,0,0,1,2.41,2.46v2.11a9.21,9.21,0,0,0,.09,1.4Zm-.2-2.85c-1,0-2,.2-2,1.09a.78.78,0,0,0,.84.84,1.21,1.21,0,0,0,1.15-.81,1.17,1.17,0,0,0,0-.32Z"/><path class="cls-4" d="M232.74,263.82c0-.79,0-1.35-.05-1.88H234l.05,1.12h0a1.74,1.74,0,0,1,1.59-1.25,1.25,1.25,0,0,1,.35,0v1.39a1.69,1.69,0,0,0-.43-.05,1.29,1.29,0,0,0-1.32,1.11,3.08,3.08,0,0,0,0,.46v3h-1.47Z"/><path class="cls-4" d="M237,263.68c0-.67,0-1.23,0-1.74h1.3l.07.88h0a2.11,2.11,0,0,1,1.86-1c1,0,2.08.66,2.08,2.51v3.46h-1.48v-3.3c0-.84-.31-1.47-1.11-1.47a1.23,1.23,0,0,0-1.15.86,1.44,1.44,0,0,0-.06.48v3.43H237Z"/><path class="cls-4" d="M245.44,260.31a.78.78,0,0,1-.84.79.77.77,0,0,1-.81-.79.83.83,0,0,1,1.65,0Zm-1.57,7.47v-5.84h1.49v5.84Z"/><path class="cls-4" d="M246.94,263.68c0-.67,0-1.23,0-1.74h1.29l.07.88h0a2.1,2.1,0,0,1,1.86-1c1,0,2.07.66,2.07,2.51v3.46h-1.47v-3.3c0-.84-.31-1.47-1.12-1.47a1.24,1.24,0,0,0-1.15.86,1.44,1.44,0,0,0-.06.48v3.43h-1.49Z"/><path class="cls-4" d="M259.15,261.94c0,.4,0,.88,0,1.68v3.31a2.82,2.82,0,0,1-3.12,3.36,4.16,4.16,0,0,1-2-.47l.32-1.11a3.65,3.65,0,0,0,1.71.44,1.55,1.55,0,0,0,1.68-1.76v-.51h0a2,2,0,0,1-1.7.87,2.59,2.59,0,0,1-2.48-2.86,2.79,2.79,0,0,1,2.65-3.08,1.85,1.85,0,0,1,1.69.91h0l.06-.78Zm-1.53,2.34a1.33,1.33,0,0,0-.05-.4,1.21,1.21,0,0,0-1.19-.94c-.83,0-1.44.72-1.44,1.9,0,1,.5,1.8,1.42,1.8a1.26,1.26,0,0,0,1.2-.89,2.18,2.18,0,0,0,.06-.52Z"/><path class="cls-4" d="M188.44,272.27v1.67h1.41V275h-1.41v2.58c0,.71.2,1.08.76,1.08a2.12,2.12,0,0,0,.58-.07l0,1.13a3.4,3.4,0,0,1-1.07.14,1.71,1.71,0,0,1-1.27-.48,2.32,2.32,0,0,1-.45-1.63V275h-.84v-1.1H187v-1.32Z"/><path class="cls-4" d="M196.52,276.81a2.89,2.89,0,0,1-3,3.1,2.83,2.83,0,0,1-2.93-3,2.88,2.88,0,0,1,3-3.09A2.8,2.8,0,0,1,196.52,276.81Zm-4.4.06c0,1.13.55,2,1.45,2s1.43-.83,1.43-2c0-.91-.41-1.95-1.42-1.95S192.12,275.9,192.12,276.87Z"/><path class="cls-4" d="M203.29,276.81a2.89,2.89,0,0,1-3,3.1,2.82,2.82,0,0,1-2.93-3,2.88,2.88,0,0,1,3-3.09A2.81,2.81,0,0,1,203.29,276.81Zm-4.41.06c0,1.13.56,2,1.46,2s1.42-.83,1.42-2c0-.91-.4-1.95-1.41-1.95S198.88,275.9,198.88,276.87Z"/><path class="cls-4" d="M204.5,271.27H206v8.51H204.5Z"/><path class="cls-4" d="M207.51,278.43a3.35,3.35,0,0,0,1.5.42c.65,0,.94-.27.94-.65s-.24-.6-1-.85c-1.14-.4-1.62-1-1.61-1.71,0-1,.85-1.83,2.21-1.83a3.36,3.36,0,0,1,1.54.35l-.28,1a2.66,2.66,0,0,0-1.24-.34c-.53,0-.81.26-.81.62s.27.55,1,.81c1.05.39,1.54.93,1.56,1.79,0,1.05-.83,1.82-2.38,1.82a3.73,3.73,0,0,1-1.77-.41Z"/><path class="cls-4" d="M215.07,271.27h1.49v8.51h-1.49Z"/><path class="cls-4" d="M219.2,277.28a1.59,1.59,0,0,0,1.8,1.51,4.38,4.38,0,0,0,1.62-.27l.21,1a5.37,5.37,0,0,1-2,.36,2.76,2.76,0,0,1-3-2.95,2.89,2.89,0,0,1,2.85-3.14,2.54,2.54,0,0,1,2.52,2.84,4.18,4.18,0,0,1,0,.63Zm2.57-1a1.25,1.25,0,0,0-1.21-1.42,1.43,1.43,0,0,0-1.36,1.42Z"/><path class="cls-4" d="M227.63,279.78l-.09-.65h0a2.15,2.15,0,0,1-1.72.78,1.73,1.73,0,0,1-1.84-1.74c0-1.47,1.31-2.21,3.47-2.2v-.1c0-.38-.16-1-1.19-1a3.08,3.08,0,0,0-1.57.43l-.29-.95a4.14,4.14,0,0,1,2.11-.52,2.19,2.19,0,0,1,2.41,2.46v2.11a9.21,9.21,0,0,0,.09,1.4Zm-.19-2.85c-1,0-2,.2-2,1.09a.78.78,0,0,0,.84.84,1.19,1.19,0,0,0,1.15-.81.89.89,0,0,0,.05-.32Z"/><path class="cls-4" d="M230.44,275.82c0-.79,0-1.35,0-1.88h1.28l0,1.12h.05a1.73,1.73,0,0,1,1.59-1.25,1.29,1.29,0,0,1,.35,0v1.39a1.69,1.69,0,0,0-.43-.05A1.29,1.29,0,0,0,232,276.3a2.16,2.16,0,0,0-.05.46v3h-1.48Z"/><path class="cls-4" d="M234.72,275.68c0-.67,0-1.23-.05-1.74H236l.08.88h0a2.1,2.1,0,0,1,1.86-1c1,0,2.08.66,2.08,2.51v3.46h-1.48v-3.3c0-.84-.31-1.47-1.11-1.47a1.25,1.25,0,0,0-1.16.86,1.75,1.75,0,0,0-.06.48v3.43h-1.48Z"/><path class="cls-4" d="M177.5,291.78V287h-.79v-1.1h.79v-.25a2.74,2.74,0,0,1,.71-2,2.22,2.22,0,0,1,1.52-.57,2.7,2.7,0,0,1,1,.15l-.11,1.14a1.68,1.68,0,0,0-.62-.11c-.73,0-1,.61-1,1.33v.3h1.29V287H179v4.74Z"/><path class="cls-4" d="M181.16,287.82c0-.79,0-1.35,0-1.88h1.29l0,1.12h.05a1.74,1.74,0,0,1,1.6-1.25,1.29,1.29,0,0,1,.35,0v1.39a1.78,1.78,0,0,0-.44-.05,1.31,1.31,0,0,0-1.32,1.11,3.15,3.15,0,0,0,0,.46v3h-1.48Z"/><path class="cls-4" d="M191,288.81a2.9,2.9,0,0,1-3,3.1,2.82,2.82,0,0,1-2.93-3,2.88,2.88,0,0,1,3-3.09A2.81,2.81,0,0,1,191,288.81Zm-4.41.06c0,1.13.56,2,1.46,2s1.42-.83,1.42-2c0-.91-.41-1.95-1.41-1.95S186.58,287.9,186.58,288.87Z"/><path class="cls-4" d="M192.2,287.68c0-.67,0-1.23,0-1.74h1.27l.06.86h0a2,2,0,0,1,1.8-1,1.68,1.68,0,0,1,1.62,1.08h0a2.28,2.28,0,0,1,.72-.73,2,2,0,0,1,1.18-.35c1,0,1.95.66,1.95,2.53v3.44h-1.44v-3.22c0-1-.33-1.55-1-1.55a1.12,1.12,0,0,0-1,.78,1.87,1.87,0,0,0-.07.49v3.5h-1.44V288.4c0-.82-.33-1.39-1-1.39a1.17,1.17,0,0,0-1.06.84,1.24,1.24,0,0,0-.08.48v3.45H192.2Z"/><path class="cls-4" d="M209.15,291.6a4.13,4.13,0,0,1-1.65.3,2.8,2.8,0,0,1-3-3,3,3,0,0,1,3.25-3.12,3.83,3.83,0,0,1,1.43.27l-.27,1.11a2.56,2.56,0,0,0-1.11-.23,1.89,1.89,0,0,0,0,3.78,2.89,2.89,0,0,0,1.16-.23Z"/><path class="cls-4" d="M215.8,288.81a2.89,2.89,0,0,1-3,3.1,2.82,2.82,0,0,1-2.92-3,2.88,2.88,0,0,1,3-3.09A2.8,2.8,0,0,1,215.8,288.81Zm-4.4.06c0,1.13.55,2,1.45,2s1.43-.83,1.43-2c0-.91-.41-1.95-1.42-1.95S211.4,287.9,211.4,288.87Z"/><path class="cls-4" d="M217,287.68c0-.67,0-1.23-.05-1.74h1.27l.06.86h0a2,2,0,0,1,1.79-1,1.68,1.68,0,0,1,1.62,1.08h0a2.1,2.1,0,0,1,.72-.73,1.91,1.91,0,0,1,1.17-.35c1,0,2,.66,2,2.53v3.44h-1.44v-3.22c0-1-.34-1.55-1.05-1.55a1.13,1.13,0,0,0-1,.78,2.41,2.41,0,0,0-.07.49v3.5H220.6V288.4c0-.82-.32-1.39-1-1.39a1.14,1.14,0,0,0-1.05.84,1.24,1.24,0,0,0-.08.48v3.45H217Z"/><path class="cls-4" d="M227.19,287.68c0-.67,0-1.23-.05-1.74h1.28l.06.86h0a2,2,0,0,1,1.8-1,1.68,1.68,0,0,1,1.62,1.08h0a2.28,2.28,0,0,1,.72-.73,2,2,0,0,1,1.18-.35c1,0,2,.66,2,2.53v3.44h-1.44v-3.22c0-1-.33-1.55-1-1.55a1.13,1.13,0,0,0-1,.78,1.87,1.87,0,0,0-.07.49v3.5h-1.44V288.4c0-.82-.32-1.39-1-1.39a1.14,1.14,0,0,0-1.05.84,1.24,1.24,0,0,0-.09.48v3.45h-1.44Z"/><path class="cls-4" d="M242.92,288.81a2.89,2.89,0,0,1-3,3.1,2.82,2.82,0,0,1-2.92-3,2.88,2.88,0,0,1,3-3.09A2.8,2.8,0,0,1,242.92,288.81Zm-4.4.06c0,1.13.55,2,1.45,2s1.43-.83,1.43-2c0-.91-.41-1.95-1.42-1.95S238.52,287.9,238.52,288.87Z"/><path class="cls-4" d="M244.14,287.68c0-.67,0-1.23,0-1.74h1.29l.08.88h0a2.1,2.1,0,0,1,1.86-1c1,0,2.08.66,2.08,2.51v3.46H248v-3.3c0-.84-.31-1.47-1.12-1.47a1.25,1.25,0,0,0-1.15.86,1.75,1.75,0,0,0-.06.48v3.43h-1.48Z"/><path class="cls-4" d="M191.25,301.28a1.59,1.59,0,0,0,1.8,1.51,4.3,4.3,0,0,0,1.62-.27l.22,1a5.41,5.41,0,0,1-2,.36,2.76,2.76,0,0,1-3-2.95,2.89,2.89,0,0,1,2.85-3.14c1.9,0,2.52,1.56,2.52,2.84a3.17,3.17,0,0,1-.05.63Zm2.57-1a1.25,1.25,0,0,0-1.21-1.42,1.44,1.44,0,0,0-1.36,1.42Z"/><path class="cls-4" d="M196.4,295.27h1.49v8.51H196.4Z"/><path class="cls-4" d="M200.53,301.28a1.58,1.58,0,0,0,1.8,1.51,4.38,4.38,0,0,0,1.62-.27l.21,1a5.37,5.37,0,0,1-2,.36,2.76,2.76,0,0,1-3-2.95,2.89,2.89,0,0,1,2.86-3.14,2.54,2.54,0,0,1,2.52,2.84,4.18,4.18,0,0,1-.05.63Zm2.56-1a1.24,1.24,0,0,0-1.21-1.42,1.43,1.43,0,0,0-1.35,1.42Z"/><path class="cls-4" d="M205.68,299.68c0-.67,0-1.23-.05-1.74h1.27l.06.86h0a2,2,0,0,1,1.79-1,1.68,1.68,0,0,1,1.62,1.08h0a2.1,2.1,0,0,1,.72-.73,1.91,1.91,0,0,1,1.17-.35c1,0,2,.66,2,2.53v3.44h-1.44v-3.22c0-1-.34-1.55-1-1.55a1.13,1.13,0,0,0-1,.78,2.41,2.41,0,0,0-.07.49v3.5h-1.44V300.4c0-.82-.32-1.39-1-1.39a1.14,1.14,0,0,0-1.06.84,1.24,1.24,0,0,0-.08.48v3.45h-1.44Z"/><path class="cls-4" d="M216.9,301.28a1.58,1.58,0,0,0,1.8,1.51,4.28,4.28,0,0,0,1.61-.27l.22,1a5.37,5.37,0,0,1-2,.36,2.76,2.76,0,0,1-3-2.95,2.89,2.89,0,0,1,2.86-3.14c1.89,0,2.51,1.56,2.51,2.84a4.49,4.49,0,0,1,0,.63Zm2.56-1a1.25,1.25,0,0,0-1.21-1.42,1.43,1.43,0,0,0-1.35,1.42Z"/><path class="cls-4" d="M222,299.68c0-.67,0-1.23,0-1.74h1.29l.07.88h0a2.1,2.1,0,0,1,1.86-1c1,0,2.07.66,2.07,2.51v3.46h-1.47v-3.3c0-.84-.31-1.47-1.12-1.47a1.25,1.25,0,0,0-1.15.86,1.44,1.44,0,0,0-.06.48v3.43H222Z"/><path class="cls-4" d="M230.6,296.27v1.67H232V299h-1.4v2.58c0,.71.19,1.08.76,1.08a2,2,0,0,0,.57-.07l0,1.13a3.4,3.4,0,0,1-1.07.14,1.69,1.69,0,0,1-1.27-.48,2.27,2.27,0,0,1-.46-1.63V299h-.84v-1.1h.84v-1.32Z"/><path class="cls-4" d="M233.05,302.43a3.31,3.31,0,0,0,1.5.42c.65,0,.93-.27.93-.65s-.24-.6-1-.85c-1.14-.4-1.62-1-1.6-1.71a2,2,0,0,1,2.2-1.83,3.45,3.45,0,0,1,1.55.35l-.29,1a2.66,2.66,0,0,0-1.23-.34c-.53,0-.82.26-.82.62s.28.55,1,.81c1.06.39,1.55.93,1.56,1.79,0,1.05-.83,1.82-2.37,1.82a3.77,3.77,0,0,1-1.78-.41Z"/><path class="cls-4" d="M91.94,84.46c1.45,1.77,1.61,2.24,1.77,5l4.9,1c2.65.5,5.3,1,7.94,1.51a.66.66,0,0,0,.79-.33,3.65,3.65,0,1,1-.59,2.77c-.08-.5-.26-.63-.72-.72-4.27-.79-8.54-1.61-12.85-2.44a6.09,6.09,0,0,1-4.41,3.31V106h3l-4,7-4-6.94h3.15c0-.29,0-.48,0-.67,0-3.42,0-6.84,0-10.26a.65.65,0,0,0-.61-.78c-1.16-.28-1.45-.5-3.33-2.19l-11,7a10.55,10.55,0,0,1,0,2.11A3.59,3.59,0,0,1,68.66,104,3.69,3.69,0,0,1,65,101.62a3.66,3.66,0,0,1,5.4-4.39.9.9,0,0,0,1.19,0q5-3.24,10.07-6.43a.73.73,0,0,0,.41-.93,5.73,5.73,0,0,1,.36-3.58.71.71,0,0,0,0-.61c-1.73-1.61-3.49-3.21-5-4.62a14.24,14.24,0,0,1-2.8.3,3.59,3.59,0,0,1-3.07-4.3,3.69,3.69,0,0,1,4.63-2.8A3.62,3.62,0,0,1,78.57,79a.69.69,0,0,0,.24.92l4.84,4.39a.42.42,0,0,0,.15.07,6,6,0,0,1,6.64-1l3.26-4.1c1.77-2.21,3.52-4.43,5.3-6.64a.69.69,0,0,0,.09-.91,3.6,3.6,0,0,1,.84-4.6,3.71,3.71,0,0,1,4.6-.09,3.65,3.65,0,0,1,1.07,4.51,3.61,3.61,0,0,1-4.21,1.92.87.87,0,0,0-1.07.39q-3.93,5-7.88,9.92Zm-4.11,8.28a4.06,4.06,0,1,0-4.1-4A4.1,4.1,0,0,0,87.83,92.74Zm22.49,2.74a1.82,1.82,0,0,0,1.92-1.85,1.9,1.9,0,0,0-1.89-1.92,2,2,0,0,0-1.91,1.93A1.87,1.87,0,0,0,110.32,95.48ZM73.22,77.82a1.88,1.88,0,0,0,2,1.85A1.92,1.92,0,0,0,77,77.78a2,2,0,0,0-1.94-1.89A1.91,1.91,0,0,0,73.22,77.82Zm-4.77,24.36a1.9,1.9,0,0,0,1.92-1.88,1.92,1.92,0,0,0-1.93-1.88,1.86,1.86,0,0,0-1.87,1.86A1.84,1.84,0,0,0,68.45,102.18ZM102.3,71.86a1.9,1.9,0,0,0,1.91-1.9,1.92,1.92,0,0,0-2-1.85,1.88,1.88,0,1,0,0,3.75Z"/><path class="cls-4" d="M72.37,115.35l1.44-1.1,7.56,9.67,26.39-16.7,1,1.52-27.8,17.59Z"/><path class="cls-4" d="M248.59,126.33a12.14,12.14,0,0,1-2-1.17,8.21,8.21,0,0,1-1.18-1.69c-1,0-2.19,0-3.35,0a6,6,0,0,1-5.75-3.54,6,6,0,0,1,.85-6.71,3.27,3.27,0,0,0,.48-.8c2.55-5.9,5.08-11.81,7.64-17.71a1.29,1.29,0,0,0-.07-1.19c-1.93-4.16-1.64-8.19,1.22-11.79a10.37,10.37,0,0,1,11.32-3.84,11,11,0,0,1,7.14,15.65,1.29,1.29,0,0,0,0,1.25q3.78,8.73,7.51,17.46c.09.21.17.41.29.73a4.52,4.52,0,0,0-4.22,1.56,4.25,4.25,0,0,0-1,2.81c0,2.28,1.47,3.72,4.36,4.32v1.79H252.93a4.13,4.13,0,0,1-3,2.87ZM255,95.65c1.75,0,3.51,0,5.26,0a1.26,1.26,0,0,0,.79-.24,8.73,8.73,0,0,0,3.14-7,9.1,9.1,0,0,0-10.89-8.84A9.12,9.12,0,0,0,249,95.3a1.45,1.45,0,0,0,.88.34C251.57,95.67,253.3,95.65,255,95.65Zm-8.16.12-6.58,15.3h29.55l-6.52-15.16c-.36.34-.65.59-.91.87a2.57,2.57,0,0,1-2,.79c-3.1-.06-6.21-.07-9.31,0C249.43,97.6,247.9,97.58,246.88,95.77ZM267.25,113H241.9a4.28,4.28,0,0,0-4.32,4.2,4.35,4.35,0,0,0,4.06,4.41c1.3.06,2.6,0,3.93,0a3.83,3.83,0,0,1,7.37,0h14.34A6.43,6.43,0,0,1,267.25,113Zm-19.87,9.54a1.89,1.89,0,0,0,1.84,1.93,1.91,1.91,0,0,0,1.94-1.92,1.88,1.88,0,0,0-1.9-1.87A1.83,1.83,0,0,0,247.38,122.51Z"/><path class="cls-4" d="M228.86,83.09l3.51-6.38c.18-.33.36-.67.6-1.1l1.77,2.87c.17-.08.33-.15.48-.24l19.37-11.63a3.07,3.07,0,0,0,.35-.28h.27a3,3,0,0,0,.41.32L275,78.29l.32.17,1.76-2.85,4.14,7.62L272.56,83l1.77-2.9-.84-.52q-8.91-5.34-17.82-10.71a1,1,0,0,0-1.21,0q-9,5.42-18,10.81l-.71.43L237.5,83l-8.64.22Z"/><path class="cls-4" d="M261.11,103.47v1.8H249.28v-1.8Z"/><path class="cls-4" d="M249.28,100.32V98.53H261.1v1.79Z"/><path class="cls-4" d="M249.28,102.8V101h11.8v1.81Z"/><path class="cls-4" d="M252.11,107.65v-1.74h6.19v1.74Z"/><path class="cls-4" d="M159.5,278.73l-6.24-.07c-.33,0-.66,0-1,0v-2.33h2.87l4.39-.08Z"/><path class="cls-4" d="M99.5,276.41l6.33-.08h1v2.33H103.9l-4.4-.08Z"/><path class="cls-4" d="M118.57,253.46v7.32h-2.3v-1.14c0-1.79,0-3.57,0-5.35a5.93,5.93,0,0,1,.12-.83Z"/><path class="cls-4" d="M124.62,253.46v7.32h-2.3v-1.54c0-1.65,0-3.3,0-5a4.77,4.77,0,0,1,.13-.83Z"/><path class="cls-4" d="M130.66,253.46v7.32h-2.3v-1.54c0-1.65,0-3.3,0-5a5.93,5.93,0,0,1,.12-.83Z"/><path class="cls-4" d="M136.71,253.46v7.32h-2.3v-1.54c0-1.65,0-3.3,0-5a7.94,7.94,0,0,1,.13-.83Z"/><path class="cls-4" d="M142.76,253.46v7.32h-2.3v-1.54c0-1.65,0-3.3,0-5a4.77,4.77,0,0,1,.13-.83Z"/><path class="cls-4" d="M159.5,272.69l-4.94-.08h-2.29v-2.25h7.23Z"/><path class="cls-4" d="M159.5,284.63h-7.23v-2.25c.89,0,1.78,0,2.68,0,1.52,0,3,0,4.55-.07Z"/><path class="cls-4" d="M159.5,290.67h-7.23v-2.25H155l4.55-.07Z"/><path class="cls-4" d="M159.5,296.72h-7.23v-2.25H155l4.55-.08Z"/><path class="cls-4" d="M99.5,270.36h7.25v2.25h-2.22l-5-.08Z"/><path class="cls-4" d="M99.5,282.45l5-.07h2.3v2.25H99.5Z"/><path class="cls-4" d="M99.5,288.5l5-.08h2.3v2.25H99.5Z"/><path class="cls-4" d="M99.5,294.55l5-.08c.75,0,1.49,0,2.3,0v2.25H99.5Z"/><path class="cls-4" d="M110.18,302.86V269.79a5,5,0,0,1-2.78-2,4.61,4.61,0,1,1,8.13-4.3,1,1,0,0,0,1.06.7q15.63,0,31.24,0h1.07v38.73Zm36.45-36.4c-.2,0-.32,0-.45,0q-14.93,0-29.84,0a1,1,0,0,0-.7.5,4.52,4.52,0,0,1-2.53,2.58.89.89,0,0,0-.67,1q0,14.61,0,29.22c0,.27,0,.55,0,.8h34.14Zm-33-1.22a2.31,2.31,0,0,0-2.32-2.3,2.34,2.34,0,1,0,2.32,2.3Z"/><path class="cls-4" d="M118.57,306.27v7.16h-2.25v-7.16Z"/><path class="cls-4" d="M122.37,306.24h2.2v7.21h-2.2Z"/><path class="cls-4" d="M130.62,313.45h-2.21v-7.18h2.21Z"/><path class="cls-4" d="M134.46,306.24h2.21v7.18h-2.21Z"/><path class="cls-4" d="M140.51,306.25h2.2v7.2h-2.2Z"/><path class="cls-4" d="M118.92,294.2V272.88h20.13v2.26H121.24v16.72H137.9V288.1h-4.1l5.3-9.19,5.3,9.17h-4.13v6.12Z"/></svg>