<svg xmlns="http://www.w3.org/2000/svg" viewBox="0 0 1300 645.6"><defs><style>.cls-1{fill:#ece1ce;}.cls-2{fill:#eac8a5;}.cls-3,.cls-4,.cls-6,.cls-7,.cls-8,.cls-9{fill:none;}.cls-3{stroke:#eac8a5;}.cls-3,.cls-4,.cls-6,.cls-7{stroke-miterlimit:10;}.cls-3,.cls-4{stroke-width:2.13px;}.cls-4{stroke:#ece1ce;}.cls-5{fill:#2f1113;}.cls-6,.cls-7,.cls-8,.cls-9{stroke:#2f1113;stroke-width:3px;}.cls-7{stroke-linecap:square;}.cls-8{stroke-linejoin:bevel;}</style></defs><title>cis-transformation-consulting-lrg</title><g id="Layer_2" data-name="Layer 2"><polygon class="cls-1" points="892.03 1.15 892.03 645.43 1300 645.43 1300 0.93 892.03 1.15"/><polygon class="cls-2" points="448.5 0.93 448.5 645.6 856.47 645.6 856.47 1.1 448.5 0.93"/><polygon class="cls-1" points="0.11 0.93 0.11 645.6 408.08 645.6 408.08 1.1 0.11 0.93"/><polygon class="cls-1" points="412.98 62.5 412.98 114.64 439.05 88.57 412.98 62.5"/><polygon class="cls-2" points="861.48 62.5 861.48 114.64 887.55 88.57 861.48 62.5"/><line class="cls-3" x1="19.21" y1="185.86" x2="388.98" y2="185.23"/><line class="cls-4" x1="467.6" y1="185.86" x2="837.37" y2="185.23"/><line class="cls-3" x1="911.13" y1="185.86" x2="1280.9" y2="185.23"/></g><g id="Layer_3" data-name="Layer 3"><path class="cls-5" d="M619.06,67.65h-6.5V64.17h17.23v3.48h-6.57V87h-4.16Z"/><path class="cls-5" d="M632.63,79.9c.11,3,2.44,4.27,5.08,4.27a12.24,12.24,0,0,0,4.57-.75l.61,2.88a15.65,15.65,0,0,1-5.75,1c-5.35,0-8.5-3.28-8.5-8.32,0-4.57,2.78-8.87,8.06-8.87s7.1,4.4,7.1,8a10.09,10.09,0,0,1-.13,1.76ZM639.88,77c0-1.52-.65-4-3.42-4-2.57,0-3.66,2.34-3.83,4Z"/><path class="cls-5" d="M659.27,86.47a12.16,12.16,0,0,1-4.67.84c-5.14,0-8.49-3.28-8.49-8.39,0-4.94,3.38-8.8,9.17-8.8a10.42,10.42,0,0,1,4,.78L658.56,74a7.38,7.38,0,0,0-3.14-.64c-3.19,0-5.08,2.34-5,5.35,0,3.38,2.2,5.31,5,5.31a8.12,8.12,0,0,0,3.28-.64Z"/><path class="cls-5" d="M662.36,63h4.19v9.81h.07a5.53,5.53,0,0,1,2.06-1.89,5.63,5.63,0,0,1,2.85-.75c2.81,0,5.75,1.86,5.75,7.14V87h-4.16V77.74c0-2.41-.88-4.2-3.18-4.2a3.39,3.39,0,0,0-3.22,2.34,3.57,3.57,0,0,0-.17,1.25V87h-4.19Z"/><path class="cls-5" d="M681.72,75.4c0-1.89,0-3.48-.14-4.91h3.66l.2,2.47h.1a6,6,0,0,1,5.25-2.84c2.88,0,5.85,1.86,5.85,7.07V87h-4.16V77.67c0-2.37-.88-4.16-3.15-4.16a3.5,3.5,0,0,0-3.25,2.43,4.42,4.42,0,0,0-.16,1.36V87h-4.2Z"/><path class="cls-5" d="M716.75,78.58c0,6.06-4.26,8.77-8.46,8.77-4.67,0-8.26-3.22-8.26-8.5s3.56-8.73,8.53-8.73S716.75,73.57,716.75,78.58Zm-12.42.17c0,3.18,1.56,5.59,4.1,5.59,2.36,0,4-2.34,4-5.66,0-2.57-1.15-5.51-4-5.51S704.33,76,704.33,78.75Z"/><path class="cls-5" d="M720.17,63h4.2V87h-4.2Z"/><path class="cls-5" d="M744.54,78.58c0,6.06-4.26,8.77-8.46,8.77-4.67,0-8.26-3.22-8.26-8.5s3.56-8.73,8.53-8.73S744.54,73.57,744.54,78.58Zm-12.42.17c0,3.18,1.56,5.59,4.1,5.59,2.37,0,4-2.34,4-5.66,0-2.57-1.15-5.51-4-5.51S732.12,76,732.12,78.75Z"/><path class="cls-5" d="M763,70.49c-.06,1.12-.13,2.47-.13,4.74v9.34c0,3.45-.71,5.93-2.44,7.48a9.42,9.42,0,0,1-6.36,2,11.64,11.64,0,0,1-5.75-1.32l.91-3.15a10,10,0,0,0,4.81,1.25c2.7,0,4.73-1.42,4.73-5V84.44h-.06a5.58,5.58,0,0,1-4.81,2.43c-4.09,0-7-3.38-7-8.05,0-5.42,3.52-8.7,7.47-8.7a5.2,5.2,0,0,1,4.78,2.57h.06l.17-2.2Zm-4.29,6.6a4,4,0,0,0-.14-1.11,3.45,3.45,0,0,0-3.38-2.68c-2.34,0-4.06,2-4.06,5.38,0,2.81,1.42,5.08,4,5.08a3.56,3.56,0,0,0,3.39-2.5,7.31,7.31,0,0,0,.17-1.49Z"/><path class="cls-5" d="M770,70.49l3,8.84c.33,1,.67,2.26.91,3.21h.1c.27-1,.58-2.16.88-3.25l2.57-8.8h4.47l-4.13,11.24c-2.27,6.16-3.79,8.9-5.75,10.59a8.42,8.42,0,0,1-4.37,2.14l-1-3.52a7.57,7.57,0,0,0,4.71-3.76,1.67,1.67,0,0,0,.27-.75,1.7,1.7,0,0,0-.24-.81l-6-15.13Z"/><path class="cls-5" d="M614.52,109.25c0-1.89,0-3.48-.13-4.91H618l.17,2.44h.1a5.71,5.71,0,0,1,5.07-2.81,4.75,4.75,0,0,1,4.57,3H628a6.38,6.38,0,0,1,2-2.07,5.53,5.53,0,0,1,3.32-1c2.74,0,5.51,1.86,5.51,7.14v9.72h-4.06v-9.11c0-2.74-.94-4.36-2.94-4.36a3.17,3.17,0,0,0-2.91,2.2,6,6,0,0,0-.2,1.38v9.89h-4.07v-9.55c0-2.3-.91-3.92-2.84-3.92a3.26,3.26,0,0,0-3,2.37,3.52,3.52,0,0,0-.23,1.35v9.75h-4.07Z"/><path class="cls-5" d="M658.9,112.43c0,6.06-4.26,8.77-8.46,8.77-4.67,0-8.26-3.22-8.26-8.5s3.55-8.73,8.53-8.73S658.9,107.42,658.9,112.43Zm-12.42.17c0,3.18,1.56,5.59,4.09,5.59,2.37,0,4-2.34,4-5.65,0-2.58-1.15-5.52-4-5.52S646.48,109.86,646.48,112.6Z"/><path class="cls-5" d="M677.52,96.8v19.39c0,1.69.07,3.52.13,4.64h-3.72l-.17-2.61h-.07a5.92,5.92,0,0,1-5.38,3c-3.92,0-7-3.35-7-8.43,0-5.51,3.42-8.8,7.38-8.8a5.26,5.26,0,0,1,4.64,2.17h.07V96.8Zm-4.16,14.42a5.76,5.76,0,0,0-.11-1.09,3.64,3.64,0,0,0-3.58-2.94c-2.68,0-4.17,2.37-4.17,5.45s1.49,5.21,4.13,5.21a3.68,3.68,0,0,0,3.59-2.95,4.62,4.62,0,0,0,.14-1.21Z"/><path class="cls-5" d="M684.93,113.75c.11,3,2.44,4.27,5.08,4.27a12.24,12.24,0,0,0,4.57-.75l.61,2.88a15.43,15.43,0,0,1-5.75,1c-5.35,0-8.5-3.29-8.5-8.33,0-4.57,2.78-8.87,8.06-8.87s7.1,4.4,7.1,8a11.21,11.21,0,0,1-.13,1.76Zm7.25-2.91c0-1.52-.65-4-3.42-4-2.57,0-3.66,2.33-3.83,4Z"/><path class="cls-5" d="M699.46,109.66c0-2.24,0-3.83-.14-5.32h3.62l.14,3.15h.13a4.67,4.67,0,0,1,5.49-3.42V108a5.69,5.69,0,0,0-1.22-.13,3.68,3.68,0,0,0-3.73,3.14,7.91,7.91,0,0,0-.13,1.29v8.53h-4.16Z"/><path class="cls-5" d="M711.51,109.25c0-1.89,0-3.48-.14-4.91H715l.2,2.48h.1a6,6,0,0,1,5.25-2.85c2.87,0,5.85,1.86,5.85,7.08v9.78h-4.16v-9.31c0-2.37-.88-4.16-3.15-4.16a3.49,3.49,0,0,0-3.25,2.43,4.45,4.45,0,0,0-.17,1.36v9.68h-4.19Z"/><path class="cls-5" d="M735.3,99.74A2.34,2.34,0,1,1,733,97.47,2.21,2.21,0,0,1,735.3,99.74Zm-4.43,21.09V104.34h4.2v16.49Z"/><path class="cls-5" d="M738,118.42l6.19-7.92c.85-1,1.56-1.82,2.44-2.77v-.07h-8v-3.32h13.1v2.54l-6.06,7.75c-.81,1-1.59,1.93-2.44,2.81v.07h8.7v3.32H738Z"/><path class="cls-5" d="M764,120.83l-.27-1.83h-.1a6.11,6.11,0,0,1-4.87,2.2,4.89,4.89,0,0,1-5.18-4.91c0-4.16,3.69-6.26,9.78-6.23v-.27c0-1.08-.44-2.87-3.35-2.87a8.66,8.66,0,0,0-4.44,1.22l-.81-2.71a11.81,11.81,0,0,1,6-1.46c5.28,0,6.8,3.35,6.8,6.94v6a26.32,26.32,0,0,0,.24,4Zm-.54-8.06c-2.94-.07-5.75.58-5.75,3.08a2.18,2.18,0,0,0,2.37,2.37,3.36,3.36,0,0,0,3.24-2.27,2.73,2.73,0,0,0,.14-.91Z"/><path class="cls-5" d="M776.53,99.64v4.7h4v3.12h-4v7.28c0,2,.55,3,2.14,3a6.19,6.19,0,0,0,1.62-.2l.07,3.18a9,9,0,0,1-3,.41,4.8,4.8,0,0,1-3.59-1.36c-.88-1-1.29-2.43-1.29-4.6v-7.75H770.1v-3.12h2.37v-3.72Z"/><path class="cls-5" d="M788.08,99.74a2.22,2.22,0,0,1-2.37,2.24,2.19,2.19,0,0,1-2.3-2.24,2.34,2.34,0,0,1,4.67,0Zm-4.44,21.09V104.34h4.2v16.49Z"/><path class="cls-5" d="M808,112.43c0,6.06-4.27,8.77-8.46,8.77-4.67,0-8.26-3.22-8.26-8.5s3.55-8.73,8.53-8.73S808,107.42,808,112.43Zm-12.42.17c0,3.18,1.56,5.59,4.09,5.59,2.37,0,4-2.34,4-5.65,0-2.58-1.15-5.52-4-5.52S795.56,109.86,795.56,112.6Z"/><path class="cls-5" d="M811.4,109.25c0-1.89,0-3.48-.13-4.91h3.65l.2,2.48h.11a5.93,5.93,0,0,1,5.24-2.85c2.88,0,5.86,1.86,5.86,7.08v9.78h-4.17v-9.31c0-2.37-.88-4.16-3.14-4.16a3.49,3.49,0,0,0-3.25,2.43,4.16,4.16,0,0,0-.17,1.36v9.68h-4.2Z"/><path class="cls-5" d="M1063.41,64.47a39.79,39.79,0,0,1,6.3-.47c3.28,0,5.52.54,7,1.82a5.78,5.78,0,0,1,2,4.57,6.08,6.08,0,0,1-4.13,5.72v.1c1.63.61,2.61,2.2,3.18,4.4a44.24,44.24,0,0,0,1.8,6.37h-4.3a32,32,0,0,1-1.52-5.39c-.65-3-1.73-3.92-4.1-4h-2.1V87h-4.13Zm4.13,10.08H1070c2.81,0,4.57-1.48,4.57-3.75,0-2.51-1.76-3.66-4.47-3.66a11.28,11.28,0,0,0-2.57.21Z"/><path class="cls-5" d="M1087.28,65.89a2.21,2.21,0,0,1-2.37,2.23,2.18,2.18,0,0,1-2.3-2.23,2.34,2.34,0,0,1,4.67,0ZM1082.84,87V70.49h4.2V87Z"/><path class="cls-5" d="M1091.31,83.15a9.2,9.2,0,0,0,4.23,1.19c1.82,0,2.64-.75,2.64-1.83s-.68-1.69-2.71-2.4c-3.22-1.12-4.57-2.88-4.54-4.81,0-2.91,2.41-5.18,6.23-5.18a9.67,9.67,0,0,1,4.37,1l-.82,3a7.34,7.34,0,0,0-3.48-1c-1.49,0-2.3.71-2.3,1.73s.78,1.55,2.87,2.3c3,1.08,4.37,2.6,4.4,5,0,3-2.33,5.14-6.7,5.14a10.63,10.63,0,0,1-5-1.15Z"/><path class="cls-5" d="M1109.79,77.74h.07a23.32,23.32,0,0,1,1.32-1.93l4-5.32h5l-6.09,6.74,7,9.75H1116l-4.74-7.28-1.42,1.66V87h-4.17V63h4.17Z"/><path class="cls-5" d="M1063.24,109.25c0-1.89,0-3.48-.13-4.91h3.59l.17,2.44h.1A5.71,5.71,0,0,1,1072,104a4.75,4.75,0,0,1,4.57,3h.07a6.38,6.38,0,0,1,2-2.07,5.51,5.51,0,0,1,3.32-1c2.74,0,5.51,1.86,5.51,7.14v9.72h-4.06v-9.11c0-2.74-.94-4.36-2.94-4.36a3.17,3.17,0,0,0-2.91,2.2,6,6,0,0,0-.2,1.38v9.89h-4.07v-9.55c0-2.3-.91-3.92-2.84-3.92a3.26,3.26,0,0,0-3,2.37,3.52,3.52,0,0,0-.23,1.35v9.75h-4.07Z"/><path class="cls-5" d="M1101.22,120.83,1101,119h-.1a6.1,6.1,0,0,1-4.87,2.2,4.89,4.89,0,0,1-5.18-4.91c0-4.16,3.69-6.26,9.78-6.23v-.27c0-1.08-.44-2.87-3.35-2.87a8.62,8.62,0,0,0-4.43,1.22l-.82-2.71a11.81,11.81,0,0,1,6-1.46c5.28,0,6.8,3.35,6.8,6.94v6a26.32,26.32,0,0,0,.24,4Zm-.54-8.06c-2.94-.07-5.75.58-5.75,3.08a2.18,2.18,0,0,0,2.37,2.37,3.37,3.37,0,0,0,3.25-2.27,3,3,0,0,0,.13-.91Z"/><path class="cls-5" d="M1109.15,109.25c0-1.89,0-3.48-.14-4.91h3.66l.2,2.48h.1a6,6,0,0,1,5.25-2.85c2.87,0,5.85,1.86,5.85,7.08v9.78h-4.16v-9.31c0-2.37-.88-4.16-3.15-4.16a3.49,3.49,0,0,0-3.25,2.43,4.45,4.45,0,0,0-.17,1.36v9.68h-4.19Z"/><path class="cls-5" d="M1137.78,120.83l-.27-1.83h-.1a6.11,6.11,0,0,1-4.87,2.2,4.89,4.89,0,0,1-5.18-4.91c0-4.16,3.69-6.26,9.78-6.23v-.27c0-1.08-.44-2.87-3.35-2.87a8.66,8.66,0,0,0-4.44,1.22l-.81-2.71a11.81,11.81,0,0,1,6-1.46c5.28,0,6.8,3.35,6.8,6.94v6a26.32,26.32,0,0,0,.24,4Zm-.54-8.06c-2.94-.07-5.75.58-5.75,3.08a2.18,2.18,0,0,0,2.37,2.37,3.38,3.38,0,0,0,3.25-2.27,3,3,0,0,0,.13-.91Z"/><path class="cls-5" d="M1160.77,104.34c-.07,1.12-.14,2.48-.14,4.74v9.34c0,3.46-.71,5.93-2.44,7.48a9.42,9.42,0,0,1-6.36,2,11.64,11.64,0,0,1-5.75-1.32l.91-3.15a10,10,0,0,0,4.81,1.26c2.7,0,4.74-1.43,4.74-5v-1.42h-.07a5.58,5.58,0,0,1-4.81,2.44c-4.09,0-7-3.39-7-8.06,0-5.41,3.52-8.7,7.48-8.7a5.2,5.2,0,0,1,4.77,2.57h.07l.16-2.2Zm-4.3,6.6a4.07,4.07,0,0,0-.14-1.11,3.45,3.45,0,0,0-3.38-2.68c-2.34,0-4.06,2-4.06,5.39,0,2.8,1.42,5.07,4,5.07a3.56,3.56,0,0,0,3.39-2.5,7.31,7.31,0,0,0,.17-1.49Z"/><path class="cls-5" d="M1168.05,113.75c.1,3,2.43,4.27,5.07,4.27a12.24,12.24,0,0,0,4.57-.75l.61,2.88a15.39,15.39,0,0,1-5.75,1c-5.35,0-8.5-3.29-8.5-8.33,0-4.57,2.78-8.87,8.06-8.87s7.1,4.4,7.1,8a10.09,10.09,0,0,1-.13,1.76Zm7.24-2.91c0-1.52-.64-4-3.42-4-2.57,0-3.65,2.33-3.82,4Z"/><path class="cls-5" d="M1182.57,109.25c0-1.89,0-3.48-.14-4.91H1186l.17,2.44h.1a5.71,5.71,0,0,1,5.08-2.81,4.76,4.76,0,0,1,4.57,3h.06a6.41,6.41,0,0,1,2-2.07,5.5,5.5,0,0,1,3.31-1c2.74,0,5.52,1.86,5.52,7.14v9.72h-4.06v-9.11c0-2.74-1-4.36-3-4.36a3.17,3.17,0,0,0-2.91,2.2,6,6,0,0,0-.2,1.38v9.89h-4.06v-9.55c0-2.3-.92-3.92-2.84-3.92a3.25,3.25,0,0,0-3,2.37,3.52,3.52,0,0,0-.24,1.35v9.75h-4.06Z"/><path class="cls-5" d="M1214.22,113.75c.1,3,2.44,4.27,5.08,4.27a12.23,12.23,0,0,0,4.56-.75l.61,2.88a15.39,15.39,0,0,1-5.75,1c-5.35,0-8.49-3.29-8.49-8.33,0-4.57,2.77-8.87,8-8.87s7.11,4.4,7.11,8a9.88,9.88,0,0,1-.14,1.76Zm7.24-2.91c0-1.52-.64-4-3.42-4-2.57,0-3.65,2.33-3.82,4Z"/><path class="cls-5" d="M1228.74,109.25c0-1.89,0-3.48-.13-4.91h3.65l.2,2.48h.11a5.93,5.93,0,0,1,5.24-2.85c2.88,0,5.86,1.86,5.86,7.08v9.78h-4.17v-9.31c0-2.37-.88-4.16-3.14-4.16a3.49,3.49,0,0,0-3.25,2.43,4.16,4.16,0,0,0-.17,1.36v9.68h-4.2Z"/><path class="cls-5" d="M1252.71,99.64v4.7h4v3.12h-4v7.28c0,2,.54,3,2.13,3a6.19,6.19,0,0,0,1.62-.2l.07,3.18a9,9,0,0,1-3,.41,4.82,4.82,0,0,1-3.59-1.36c-.88-1-1.28-2.43-1.28-4.6v-7.75h-2.37v-3.12h2.37v-3.72Z"/><path class="cls-5" d="M176.85,64.47a36.33,36.33,0,0,1,6.37-.47c3,0,5.27.64,6.73,1.86a6.44,6.44,0,0,1,2.23,5,6.9,6.9,0,0,1-2,5.18c-1.66,1.66-4.26,2.43-7.21,2.43a11.91,11.91,0,0,1-2-.13V87h-4.13ZM181,75.1a8.72,8.72,0,0,0,2,.17c3.12,0,5-1.53,5-4.2s-1.76-3.89-4.64-3.89a11.64,11.64,0,0,0-2.4.2Z"/><path class="cls-5" d="M195.2,75.81c0-2.24,0-3.83-.14-5.32h3.63l.13,3.15H199a4.66,4.66,0,0,1,5.48-3.42v3.93a5.62,5.62,0,0,0-1.22-.14,3.67,3.67,0,0,0-3.72,3.15,6.88,6.88,0,0,0-.14,1.29V87H195.2Z"/><path class="cls-5" d="M222.62,78.58c0,6.06-4.27,8.77-8.46,8.77-4.68,0-8.26-3.22-8.26-8.5s3.55-8.73,8.53-8.73S222.62,73.57,222.62,78.58Zm-12.42.17c0,3.18,1.55,5.59,4.09,5.59,2.37,0,4-2.34,4-5.66,0-2.57-1.15-5.51-4-5.51S210.2,76,210.2,78.75Z"/><path class="cls-5" d="M238.15,86.47a12.16,12.16,0,0,1-4.67.84c-5.14,0-8.49-3.28-8.49-8.39,0-4.94,3.38-8.8,9.17-8.8a10.42,10.42,0,0,1,4,.78L237.44,74a7.34,7.34,0,0,0-3.14-.64c-3.19,0-5.08,2.34-5.05,5.35,0,3.38,2.2,5.31,5.05,5.31a8.12,8.12,0,0,0,3.28-.64Z"/><path class="cls-5" d="M243.88,79.9c.1,3,2.43,4.27,5.07,4.27a12.24,12.24,0,0,0,4.57-.75l.61,2.88a15.61,15.61,0,0,1-5.75,1c-5.35,0-8.5-3.28-8.5-8.32,0-4.57,2.78-8.87,8.06-8.87s7.11,4.4,7.11,8a9.88,9.88,0,0,1-.14,1.76ZM251.12,77c0-1.52-.64-4-3.42-4-2.57,0-3.65,2.34-3.82,4Z"/><path class="cls-5" d="M258.2,83.15a9.2,9.2,0,0,0,4.23,1.19c1.82,0,2.64-.75,2.64-1.83s-.68-1.69-2.71-2.4c-3.22-1.12-4.57-2.88-4.54-4.81,0-2.91,2.41-5.18,6.23-5.18a9.67,9.67,0,0,1,4.37,1l-.81,3a7.42,7.42,0,0,0-3.49-1c-1.49,0-2.3.71-2.3,1.73s.78,1.55,2.87,2.3c3,1.08,4.37,2.6,4.4,5,0,3-2.33,5.14-6.7,5.14a10.63,10.63,0,0,1-5-1.15Z"/><path class="cls-5" d="M272.31,83.15a9.23,9.23,0,0,0,4.23,1.19c1.83,0,2.64-.75,2.64-1.83s-.67-1.69-2.7-2.4c-3.22-1.12-4.57-2.88-4.54-4.81,0-2.91,2.4-5.18,6.23-5.18a9.62,9.62,0,0,1,4.36,1l-.81,3a7.34,7.34,0,0,0-3.48-1c-1.49,0-2.31.71-2.31,1.73s.78,1.55,2.88,2.3c3,1.08,4.37,2.6,4.4,5,0,3-2.34,5.14-6.7,5.14a10.6,10.6,0,0,1-5-1.15Z"/><path class="cls-5" d="M188.8,120.32a12,12,0,0,1-4.67.85c-5.15,0-8.5-3.29-8.5-8.4,0-4.94,3.39-8.8,9.18-8.8a10.33,10.33,0,0,1,4,.78l-.74,3.12a7.26,7.26,0,0,0-3.15-.65c-3.18,0-5.08,2.34-5,5.35,0,3.38,2.2,5.31,5,5.31a8.08,8.08,0,0,0,3.28-.64Z"/><path class="cls-5" d="M207.25,112.43c0,6.06-4.27,8.77-8.46,8.77-4.67,0-8.26-3.22-8.26-8.5s3.55-8.73,8.53-8.73S207.25,107.42,207.25,112.43Zm-12.42.17c0,3.18,1.55,5.59,4.09,5.59,2.37,0,4-2.34,4-5.65,0-2.58-1.15-5.52-4-5.52S194.83,109.86,194.83,112.6Z"/><path class="cls-5" d="M210.67,109.25c0-1.89,0-3.48-.14-4.91h3.66l.2,2.48h.1a6,6,0,0,1,5.25-2.85c2.88,0,5.86,1.86,5.86,7.08v9.78h-4.17v-9.31c0-2.37-.88-4.16-3.15-4.16a3.49,3.49,0,0,0-3.24,2.43,4.16,4.16,0,0,0-.17,1.36v9.68h-4.2Z"/><path class="cls-5" d="M229.83,117a9.23,9.23,0,0,0,4.23,1.19c1.83,0,2.64-.75,2.64-1.83S236,114.67,234,114c-3.21-1.12-4.57-2.88-4.53-4.81,0-2.91,2.4-5.18,6.22-5.18a9.8,9.8,0,0,1,4.37,1l-.81,3a7.35,7.35,0,0,0-3.49-1c-1.49,0-2.3.71-2.3,1.73s.78,1.55,2.88,2.3c3,1.08,4.36,2.6,4.4,5,0,3-2.34,5.15-6.7,5.15a10.59,10.59,0,0,1-5-1.16Z"/><path class="cls-5" d="M258.9,115.89c0,2,.07,3.58.14,4.94h-3.66l-.2-2.51h-.07a5.94,5.94,0,0,1-5.28,2.88c-3,0-5.75-1.79-5.75-7.18v-9.68h4.16v9c0,2.74.88,4.51,3.08,4.51a3.51,3.51,0,0,0,3.18-2.24,3.66,3.66,0,0,0,.24-1.29v-10h4.16Z"/><path class="cls-5" d="M263.41,96.8h4.2v24h-4.2Z"/><path class="cls-5" d="M276.88,99.64v4.7h4v3.12h-4v7.28c0,2,.54,3,2.13,3a6.34,6.34,0,0,0,1.63-.2l.06,3.18a9,9,0,0,1-3,.41,4.78,4.78,0,0,1-3.58-1.36c-.88-1-1.29-2.43-1.29-4.6v-7.75h-2.37v-3.12h2.37v-3.72Z"/><path class="cls-5" d="M288.42,99.74a2.34,2.34,0,1,1-2.33-2.27A2.21,2.21,0,0,1,288.42,99.74ZM284,120.83V104.34h4.2v16.49Z"/><path class="cls-5" d="M292.66,109.25c0-1.89,0-3.48-.14-4.91h3.66l.2,2.48h.1a5.93,5.93,0,0,1,5.25-2.85c2.87,0,5.85,1.86,5.85,7.08v9.78h-4.16v-9.31c0-2.37-.88-4.16-3.15-4.16a3.49,3.49,0,0,0-3.25,2.43,4.45,4.45,0,0,0-.17,1.36v9.68h-4.19Z"/><path class="cls-5" d="M327.08,104.34c-.07,1.12-.14,2.48-.14,4.74v9.34c0,3.46-.71,5.93-2.43,7.48a9.47,9.47,0,0,1-6.37,2,11.67,11.67,0,0,1-5.75-1.32l.91-3.15a10,10,0,0,0,4.81,1.26c2.71,0,4.74-1.43,4.74-5v-1.42h-.07a5.58,5.58,0,0,1-4.8,2.44c-4.1,0-7-3.39-7-8.06,0-5.41,3.52-8.7,7.48-8.7a5.2,5.2,0,0,1,4.77,2.57h.07l.17-2.2Zm-4.3,6.6a4.07,4.07,0,0,0-.13-1.11,3.46,3.46,0,0,0-3.39-2.68c-2.33,0-4.06,2-4.06,5.39,0,2.8,1.42,5.07,4,5.07a3.55,3.55,0,0,0,3.38-2.5,7.31,7.31,0,0,0,.17-1.49Z"/><path class="cls-5" d="M176.38,230.75a32.23,32.23,0,0,1,4.7-.35c3.17,0,5.43.73,6.93,2.13a7.91,7.91,0,0,1,2.41,6.15,9.06,9.06,0,0,1-2.46,6.65c-1.6,1.6-4.24,2.46-7.57,2.46a37.54,37.54,0,0,1-4-.2Zm2.21,15.14a14.22,14.22,0,0,0,2.23.12c4.73,0,7.29-2.64,7.29-7.26,0-4-2.26-6.6-6.93-6.6a12.31,12.31,0,0,0-2.59.23Z"/><path class="cls-5" d="M194.56,241.9c.05,3,2,4.27,4.21,4.27a8,8,0,0,0,3.41-.64l.38,1.6a9.93,9.93,0,0,1-4.09.76c-3.78,0-6-2.49-6-6.19s2.18-6.63,5.76-6.63c4,0,5.08,3.53,5.08,5.79a7.43,7.43,0,0,1-.08,1Zm6.55-1.6c0-1.42-.59-3.63-3.1-3.63-2.26,0-3.25,2.08-3.43,3.63Z"/><path class="cls-5" d="M208.72,231.82v3.53h3.2v1.7h-3.2v6.63c0,1.52.44,2.38,1.68,2.38a4.9,4.9,0,0,0,1.3-.15l.1,1.68a5.44,5.44,0,0,1-2,.3,3.12,3.12,0,0,1-2.42-.94,4.57,4.57,0,0,1-.86-3.2v-6.7h-1.9v-1.7h1.9V232.4Z"/><path class="cls-5" d="M221.24,247.64l-.18-1.55H221a4.61,4.61,0,0,1-3.76,1.83,3.5,3.5,0,0,1-3.76-3.53c0-3,2.64-4.6,7.39-4.57v-.26a2.53,2.53,0,0,0-2.79-2.84,6.2,6.2,0,0,0-3.2.91l-.51-1.47a7.65,7.65,0,0,1,4-1.09c3.76,0,4.67,2.56,4.67,5v4.59a17.62,17.62,0,0,0,.2,2.95Zm-.33-6.27c-2.44-.05-5.2.38-5.2,2.76a2,2,0,0,0,2.1,2.14,3.05,3.05,0,0,0,3-2.06,2.22,2.22,0,0,0,.13-.71Z"/><path class="cls-5" d="M229.16,231.9a1.31,1.31,0,0,1-1.42,1.37,1.33,1.33,0,0,1-1.35-1.37,1.37,1.37,0,0,1,1.4-1.4A1.33,1.33,0,0,1,229.16,231.9Zm-2.49,15.74V235.35h2.24v12.29Z"/><path class="cls-5" d="M232.61,229.61h2.24v18h-2.24Z"/><path class="cls-5" d="M239.85,241.9c.05,3,2,4.27,4.22,4.27a8,8,0,0,0,3.4-.64l.38,1.6a9.89,9.89,0,0,1-4.09.76c-3.78,0-6-2.49-6-6.19s2.18-6.63,5.76-6.63c4,0,5.08,3.53,5.08,5.79a7.43,7.43,0,0,1-.08,1Zm6.55-1.6c0-1.42-.58-3.63-3.1-3.63-2.26,0-3.25,2.08-3.42,3.63Z"/><path class="cls-5" d="M261.94,229.61v14.85c0,1.1,0,2.34.1,3.18h-2l-.1-2.13h-.05a4.54,4.54,0,0,1-4.19,2.41c-3,0-5.25-2.52-5.25-6.25,0-4.09,2.51-6.6,5.51-6.6a4.1,4.1,0,0,1,3.7,1.88h.05v-7.34Zm-2.24,10.74a3.76,3.76,0,0,0-.1-.94,3.29,3.29,0,0,0-3.22-2.59c-2.31,0-3.68,2-3.68,4.75,0,2.49,1.22,4.55,3.63,4.55a3.35,3.35,0,0,0,3.27-2.67,3.75,3.75,0,0,0,.1-1Z"/><path class="cls-5" d="M183.11,273l-.18-1.55h-.07a4.61,4.61,0,0,1-3.76,1.83,3.51,3.51,0,0,1-3.76-3.53c0-3,2.64-4.6,7.39-4.57V265a2.53,2.53,0,0,0-2.79-2.84,6.08,6.08,0,0,0-3.2.91l-.51-1.47a7.62,7.62,0,0,1,4-1.09c3.75,0,4.67,2.56,4.67,5v4.59a17.62,17.62,0,0,0,.2,2.95Zm-.33-6.27c-2.44-.05-5.21.38-5.21,2.76a2,2,0,0,0,2.11,2.14,3.05,3.05,0,0,0,3-2.06,2.22,2.22,0,0,0,.13-.71Z"/><path class="cls-5" d="M188.24,270.74a5.84,5.84,0,0,0,2.94.89c1.63,0,2.39-.81,2.39-1.83s-.64-1.65-2.29-2.26c-2.21-.78-3.25-2-3.25-3.48,0-2,1.6-3.6,4.24-3.6a6.13,6.13,0,0,1,3,.76l-.56,1.63a4.75,4.75,0,0,0-2.52-.72c-1.32,0-2.05.77-2.05,1.68s.73,1.47,2.33,2.08c2.14.82,3.23,1.88,3.23,3.71,0,2.16-1.68,3.68-4.6,3.68a7,7,0,0,1-3.45-.84Z"/><path class="cls-5" d="M198.29,270.74a5.88,5.88,0,0,0,3,.89c1.62,0,2.38-.81,2.38-1.83s-.63-1.65-2.28-2.26c-2.21-.78-3.25-2-3.25-3.48,0-2,1.6-3.6,4.24-3.6a6.11,6.11,0,0,1,3,.76l-.56,1.63a4.71,4.71,0,0,0-2.51-.72c-1.32,0-2.06.77-2.06,1.68s.74,1.47,2.34,2.08c2.13.82,3.22,1.88,3.22,3.71,0,2.16-1.68,3.68-4.6,3.68a7,7,0,0,1-3.45-.84Z"/><path class="cls-5" d="M209.89,267.29a3.93,3.93,0,0,0,4.22,4.26,8,8,0,0,0,3.4-.63l.38,1.6a9.89,9.89,0,0,1-4.09.76c-3.78,0-6-2.49-6-6.19s2.18-6.63,5.76-6.63c4,0,5.08,3.53,5.08,5.79a10,10,0,0,1-.07,1Zm6.55-1.6c0-1.42-.58-3.63-3.09-3.63-2.26,0-3.25,2.08-3.43,3.63Z"/><path class="cls-5" d="M221.06,270.74a5.88,5.88,0,0,0,2.95.89c1.62,0,2.39-.81,2.39-1.83s-.64-1.65-2.29-2.26c-2.21-.78-3.25-2-3.25-3.48,0-2,1.6-3.6,4.24-3.6a6.08,6.08,0,0,1,3,.76l-.56,1.63a4.71,4.71,0,0,0-2.51-.72c-1.32,0-2.06.77-2.06,1.68s.74,1.47,2.34,2.08c2.13.82,3.22,1.88,3.22,3.71,0,2.16-1.67,3.68-4.59,3.68a7,7,0,0,1-3.46-.84Z"/><path class="cls-5" d="M231.12,270.74a5.87,5.87,0,0,0,2.94.89c1.63,0,2.39-.81,2.39-1.83s-.64-1.65-2.29-2.26c-2.2-.78-3.25-2-3.25-3.48,0-2,1.6-3.6,4.24-3.6a6.13,6.13,0,0,1,3,.76l-.56,1.63a4.75,4.75,0,0,0-2.52-.72c-1.32,0-2,.77-2,1.68s.73,1.47,2.33,2.08c2.14.82,3.23,1.88,3.23,3.71,0,2.16-1.68,3.68-4.6,3.68a7,7,0,0,1-3.45-.84Z"/><path class="cls-5" d="M241.48,264.06c0-1.27,0-2.31-.11-3.32h2l.1,2h.08a4.22,4.22,0,0,1,3.86-2.26,3.62,3.62,0,0,1,3.47,2.46h.06a5.08,5.08,0,0,1,1.37-1.6,4.17,4.17,0,0,1,2.71-.86c1.63,0,4,1.07,4,5.33V273h-2.18v-7c0-2.36-.87-3.78-2.67-3.78a2.89,2.89,0,0,0-2.64,2,3.7,3.7,0,0,0-.18,1.12V273h-2.18v-7.37c0-2-.86-3.37-2.57-3.37a3,3,0,0,0-2.76,2.23,3,3,0,0,0-.18,1.09V273h-2.18Z"/><path class="cls-5" d="M263.89,267.29a3.93,3.93,0,0,0,4.22,4.26,8,8,0,0,0,3.4-.63l.38,1.6a9.89,9.89,0,0,1-4.09.76c-3.78,0-6-2.49-6-6.19s2.18-6.63,5.76-6.63c4,0,5.08,3.53,5.08,5.79a10,10,0,0,1-.07,1Zm6.55-1.6c0-1.42-.58-3.63-3.09-3.63-2.26,0-3.25,2.08-3.43,3.63Z"/><path class="cls-5" d="M275.37,264.06c0-1.27,0-2.31-.1-3.32h2l.12,2h.06a4.5,4.5,0,0,1,4.06-2.31c1.7,0,4.34,1,4.34,5.23V273H283.6v-7.09c0-2-.74-3.63-2.85-3.63a3.17,3.17,0,0,0-3,2.29,3,3,0,0,0-.16,1V273h-2.23Z"/><path class="cls-5" d="M292.05,257.21v3.53h3.2v1.7h-3.2v6.63c0,1.52.43,2.38,1.67,2.38a4.84,4.84,0,0,0,1.3-.15l.1,1.68a5.67,5.67,0,0,1-2,.3,3.09,3.09,0,0,1-2.41-.94,4.53,4.53,0,0,1-.86-3.2v-6.7H288v-1.7h1.91v-2.95Z"/><path class="cls-5" d="M176.3,290c0-1.45,0-2.69-.1-3.83h2l.07,2.41h.11a3.67,3.67,0,0,1,3.4-2.69,2.43,2.43,0,0,1,.63.07V288a3.39,3.39,0,0,0-.76-.07,3.14,3.14,0,0,0-3,2.86,6.46,6.46,0,0,0-.1,1.05v6.55H176.3Z"/><path class="cls-5" d="M185.6,292.68c.05,3,2,4.26,4.21,4.26a8.14,8.14,0,0,0,3.4-.63l.38,1.6a10,10,0,0,1-4.08.76c-3.79,0-6-2.49-6-6.2s2.19-6.62,5.77-6.62c4,0,5.08,3.53,5.08,5.79a9.62,9.62,0,0,1-.08,1Zm6.55-1.6c0-1.42-.59-3.63-3.1-3.63-2.26,0-3.25,2.08-3.43,3.63Z"/><path class="cls-5" d="M197.07,290.14c0-1.58,0-2.85-.1-4h2l.1,2.1h0a4.84,4.84,0,0,1,4.37-2.38c3,0,5.2,2.51,5.2,6.24,0,4.42-2.69,6.61-5.59,6.61a4.33,4.33,0,0,1-3.78-1.93h-.05v6.67h-2.21Zm2.21,3.27a5.18,5.18,0,0,0,.1.92,3.44,3.44,0,0,0,3.35,2.61c2.37,0,3.74-1.93,3.74-4.74,0-2.47-1.3-4.57-3.66-4.57a3.57,3.57,0,0,0-3.38,2.76,3.93,3.93,0,0,0-.15.92Z"/><path class="cls-5" d="M222.64,292.17c0,4.54-3.15,6.53-6.12,6.53-3.33,0-5.89-2.44-5.89-6.33,0-4.11,2.69-6.52,6.09-6.52S222.64,288.41,222.64,292.17Zm-9.75.13c0,2.69,1.55,4.72,3.73,4.72s3.73-2,3.73-4.77c0-2.09-1-4.73-3.68-4.73S212.89,290,212.89,292.3Z"/><path class="cls-5" d="M225.46,290c0-1.45,0-2.69-.11-3.83h2l.08,2.41h.1a3.68,3.68,0,0,1,3.4-2.69,2.43,2.43,0,0,1,.63.07V288a3.33,3.33,0,0,0-.76-.07,3.12,3.12,0,0,0-3,2.86,6.39,6.39,0,0,0-.11,1.05v6.55h-2.2Z"/><path class="cls-5" d="M237.06,282.6v3.53h3.2v1.7h-3.2v6.63c0,1.52.43,2.38,1.67,2.38a4.84,4.84,0,0,0,1.3-.15l.1,1.68a5.67,5.67,0,0,1-2,.3,3.09,3.09,0,0,1-2.41-.94,4.52,4.52,0,0,1-.87-3.2v-6.7H233v-1.7h1.9v-2.95Z"/><path class="cls-5" d="M176.38,374.66h9.22v1.85h-7v5.69h6.47V384h-6.47v7.74h-2.21Z"/><path class="cls-5" d="M190.5,376a1.39,1.39,0,0,1-2.77,0,1.36,1.36,0,0,1,1.4-1.4A1.33,1.33,0,0,1,190.5,376ZM188,391.77V379.48h2.23v12.29Z"/><path class="cls-5" d="M196.64,376v3.53h3.2v1.7h-3.2v6.63c0,1.52.43,2.39,1.68,2.39a4.73,4.73,0,0,0,1.29-.16l.1,1.68a5.4,5.4,0,0,1-2,.3,3.09,3.09,0,0,1-2.41-.94,4.57,4.57,0,0,1-.86-3.2v-6.7h-1.91v-1.7h1.91v-2.94Z"/><path class="cls-5" d="M202.35,382.81c0-1.27,0-2.31-.1-3.33h2l.1,2h.07a4.24,4.24,0,0,1,3.86-2.26,3.63,3.63,0,0,1,3.48,2.46h.05a5.33,5.33,0,0,1,1.37-1.6,4.25,4.25,0,0,1,2.72-.86c1.63,0,4,1.07,4,5.33v7.24h-2.19v-7c0-2.36-.86-3.78-2.66-3.78a2.89,2.89,0,0,0-2.64,2,3.75,3.75,0,0,0-.18,1.12v7.59h-2.18v-7.36c0-2-.87-3.38-2.57-3.38a3.07,3.07,0,0,0-2.77,2.23,3.25,3.25,0,0,0-.17,1.1v7.41h-2.19Z"/><path class="cls-5" d="M224.77,386c0,3,2,4.27,4.22,4.27a8,8,0,0,0,3.4-.64l.38,1.6a9.89,9.89,0,0,1-4.09.76c-3.78,0-6-2.48-6-6.19s2.18-6.63,5.76-6.63c4,0,5.08,3.53,5.08,5.79a7.43,7.43,0,0,1-.08,1Zm6.55-1.6c0-1.42-.58-3.63-3.1-3.63-2.26,0-3.25,2.08-3.42,3.63Z"/><path class="cls-5" d="M236.25,382.81c0-1.27,0-2.31-.11-3.33h2l.13,2h.05a4.52,4.52,0,0,1,4.07-2.31c1.7,0,4.34,1,4.34,5.23v7.34h-2.24v-7.08c0-2-.73-3.64-2.84-3.64a3.19,3.19,0,0,0-3,2.29,3.26,3.26,0,0,0-.15,1v7.39h-2.23Z"/><path class="cls-5" d="M252.93,376v3.53h3.2v1.7h-3.2v6.63c0,1.52.43,2.39,1.67,2.39a4.76,4.76,0,0,0,1.3-.16l.1,1.68a5.44,5.44,0,0,1-2,.3,3.09,3.09,0,0,1-2.41-.94,4.52,4.52,0,0,1-.87-3.2v-6.7h-1.9v-1.7h1.9v-2.94Z"/><path class="cls-5" d="M176,414.87a5.87,5.87,0,0,0,2.94.89c1.63,0,2.39-.81,2.39-1.83s-.63-1.65-2.28-2.26c-2.21-.78-3.25-2-3.25-3.47,0-2,1.6-3.61,4.24-3.61a6.22,6.22,0,0,1,3,.76L182.5,407a4.72,4.72,0,0,0-2.51-.71c-1.32,0-2.06.76-2.06,1.67s.74,1.47,2.34,2.08c2.13.82,3.22,1.88,3.22,3.71,0,2.16-1.68,3.68-4.6,3.68a7,7,0,0,1-3.45-.84Z"/><path class="cls-5" d="M189.05,401.34v3.53h3.2v1.7h-3.2v6.63c0,1.52.43,2.38,1.68,2.38a4.81,4.81,0,0,0,1.29-.15l.1,1.68a5.44,5.44,0,0,1-2,.3,3.09,3.09,0,0,1-2.41-.94,4.53,4.53,0,0,1-.86-3.2v-6.7H185v-1.7h1.91v-2.95Z"/><path class="cls-5" d="M194.76,408.7c0-1.44,0-2.69-.1-3.83h2l.08,2.41h.1a3.69,3.69,0,0,1,3.41-2.69,2.41,2.41,0,0,1,.63.08v2.1a3.45,3.45,0,0,0-.76-.07,3.13,3.13,0,0,0-3,2.87,6.33,6.33,0,0,0-.1,1v6.55h-2.21Z"/><path class="cls-5" d="M209.74,417.16l-.18-1.55h-.07a4.61,4.61,0,0,1-3.76,1.83,3.5,3.5,0,0,1-3.76-3.53c0-3,2.64-4.6,7.39-4.57v-.26a2.53,2.53,0,0,0-2.79-2.84,6.17,6.17,0,0,0-3.2.91l-.51-1.47a7.65,7.65,0,0,1,4-1.09c3.76,0,4.67,2.56,4.67,5v4.59a17.62,17.62,0,0,0,.2,3Zm-.33-6.27c-2.44-.05-5.2.38-5.2,2.76a2,2,0,0,0,2.1,2.14,3.05,3.05,0,0,0,3-2.06,2.22,2.22,0,0,0,.13-.71Z"/><path class="cls-5" d="M217.76,401.34v3.53H221v1.7h-3.2v6.63c0,1.52.44,2.38,1.68,2.38a4.76,4.76,0,0,0,1.29-.15l.11,1.68a5.48,5.48,0,0,1-2,.3,3.11,3.11,0,0,1-2.42-.94,4.57,4.57,0,0,1-.86-3.2v-6.7h-1.9v-1.7h1.9v-2.95Z"/><path class="cls-5" d="M224.57,411.42c.05,3,2,4.27,4.21,4.27a8,8,0,0,0,3.4-.64l.39,1.6a9.93,9.93,0,0,1-4.09.76c-3.79,0-6-2.49-6-6.19s2.19-6.63,5.77-6.63c4,0,5.08,3.53,5.08,5.79a7.43,7.43,0,0,1-.08,1Zm6.55-1.6c0-1.42-.59-3.63-3.1-3.63-2.26,0-3.25,2.08-3.43,3.63Z"/><path class="cls-5" d="M246.63,404.87c0,.89-.1,1.88-.1,3.38v7.13c0,2.82-.56,4.55-1.75,5.61a6.51,6.51,0,0,1-4.47,1.47,8,8,0,0,1-4.09-1l.56-1.7a6.89,6.89,0,0,0,3.6,1c2.29,0,4-1.19,4-4.29v-1.37h-.06a4.38,4.38,0,0,1-3.91,2.06c-3,0-5.23-2.59-5.23-6,0-4.17,2.72-6.53,5.54-6.53a4.09,4.09,0,0,1,3.83,2.13h0l.11-1.85Zm-2.31,4.85a3.28,3.28,0,0,0-.13-1,3.21,3.21,0,0,0-3.12-2.36c-2.13,0-3.66,1.8-3.66,4.65,0,2.41,1.22,4.42,3.63,4.42a3.27,3.27,0,0,0,3.1-2.29,3.78,3.78,0,0,0,.18-1.19Z"/><path class="cls-5" d="M251.05,404.87l2.69,7.26c.28.81.58,1.78.79,2.51h.05c.23-.73.48-1.67.78-2.56l2.44-7.21h2.36l-3.35,8.76c-1.6,4.21-2.69,6.37-4.21,7.69a6,6,0,0,1-2.75,1.45l-.55-1.88a6,6,0,0,0,1.95-1.09,6.8,6.8,0,0,0,1.88-2.49,1.71,1.71,0,0,0,.18-.53,1.79,1.79,0,0,0-.16-.59l-4.54-11.32Z"/><path class="cls-5" d="M274.38,417.16l-.18-1.55h-.07a4.61,4.61,0,0,1-3.76,1.83,3.5,3.5,0,0,1-3.76-3.53c0-3,2.64-4.6,7.39-4.57v-.26a2.53,2.53,0,0,0-2.79-2.84,6.17,6.17,0,0,0-3.2.91l-.51-1.47a7.62,7.62,0,0,1,4-1.09c3.75,0,4.67,2.56,4.67,5v4.59a17.62,17.62,0,0,0,.2,3Zm-.33-6.27c-2.44-.05-5.21.38-5.21,2.76a2,2,0,0,0,2.11,2.14,3.05,3.05,0,0,0,3-2.06,2.22,2.22,0,0,0,.13-.71Z"/><path class="cls-5" d="M279.81,408.2c0-1.27,0-2.32-.1-3.33h2l.13,2h.05a4.51,4.51,0,0,1,4.06-2.31c1.7,0,4.34,1,4.34,5.23v7.34H288v-7.09c0-2-.74-3.63-2.85-3.63a3.17,3.17,0,0,0-3,2.29,3.26,3.26,0,0,0-.15,1v7.39h-2.24Z"/><path class="cls-5" d="M304.52,399.13V414c0,1.1,0,2.34.1,3.18h-2l-.1-2.13h-.05a4.55,4.55,0,0,1-4.19,2.41c-3,0-5.26-2.52-5.26-6.25,0-4.09,2.52-6.6,5.51-6.6a4.12,4.12,0,0,1,3.71,1.88h0v-7.34Zm-2.24,10.74a3.76,3.76,0,0,0-.1-.94,3.29,3.29,0,0,0-3.23-2.59c-2.31,0-3.68,2-3.68,4.75,0,2.49,1.22,4.54,3.63,4.54a3.37,3.37,0,0,0,3.28-2.66,3.75,3.75,0,0,0,.1-1Z"/><path class="cls-5" d="M176.3,434.09c0-1.45,0-2.69-.1-3.83h2l.07,2.41h.11a3.67,3.67,0,0,1,3.4-2.69,2.43,2.43,0,0,1,.63.07v2.11a3.39,3.39,0,0,0-.76-.07,3.14,3.14,0,0,0-3,2.87,6.33,6.33,0,0,0-.1,1v6.55H176.3Z"/><path class="cls-5" d="M185.6,436.81c.05,3,2,4.26,4.21,4.26a8.14,8.14,0,0,0,3.4-.63l.38,1.6a10,10,0,0,1-4.08.76c-3.79,0-6-2.49-6-6.19s2.19-6.63,5.77-6.63c4,0,5.08,3.53,5.08,5.79a9.62,9.62,0,0,1-.08,1Zm6.55-1.6c0-1.42-.59-3.63-3.1-3.63-2.26,0-3.25,2.08-3.43,3.63Z"/><path class="cls-5" d="M205.83,442.09a8.3,8.3,0,0,1-3.53.71c-3.7,0-6.12-2.51-6.12-6.27a6.25,6.25,0,0,1,6.6-6.53,7.39,7.39,0,0,1,3.1.64l-.51,1.73a5.1,5.1,0,0,0-2.59-.59c-2.81,0-4.34,2.08-4.34,4.65,0,2.84,1.83,4.59,4.27,4.59a6.31,6.31,0,0,0,2.74-.61Z"/><path class="cls-5" d="M219.41,436.3c0,4.55-3.14,6.53-6.11,6.53-3.33,0-5.9-2.44-5.9-6.33,0-4.11,2.7-6.52,6.1-6.52S219.41,432.54,219.41,436.3Zm-9.75.13c0,2.69,1.55,4.72,3.74,4.72s3.73-2,3.73-4.77c0-2.09-1-4.73-3.68-4.73S209.66,434.09,209.66,436.43Z"/><path class="cls-5" d="M222.23,433.58c0-1.27,0-2.31-.1-3.32h2l.1,2h.07a4.24,4.24,0,0,1,3.86-2.26,3.62,3.62,0,0,1,3.48,2.46h.05a5.08,5.08,0,0,1,1.37-1.6,4.2,4.2,0,0,1,2.72-.86c1.62,0,4,1.06,4,5.33v7.24h-2.19v-7c0-2.36-.86-3.78-2.66-3.78a2.89,2.89,0,0,0-2.64,2,3.41,3.41,0,0,0-.18,1.12v7.59h-2.19v-7.37c0-1.95-.86-3.37-2.56-3.37a3,3,0,0,0-2.77,2.23,3.23,3.23,0,0,0-.17,1.09v7.42h-2.19Z"/><path class="cls-5" d="M243.41,433.58c0-1.27,0-2.31-.11-3.32h2l.1,2h.08A4.22,4.22,0,0,1,249.3,430a3.62,3.62,0,0,1,3.47,2.46h.06a5.08,5.08,0,0,1,1.37-1.6,4.17,4.17,0,0,1,2.71-.86c1.63,0,4,1.06,4,5.33v7.24h-2.18v-7c0-2.36-.87-3.78-2.67-3.78a2.89,2.89,0,0,0-2.64,2,3.7,3.7,0,0,0-.18,1.12v7.59H251.1v-7.37c0-1.95-.86-3.37-2.57-3.37a3,3,0,0,0-2.76,2.23,3,3,0,0,0-.18,1.09v7.42h-2.18Z"/><path class="cls-5" d="M265.82,436.81a3.93,3.93,0,0,0,4.22,4.26,8.17,8.17,0,0,0,3.4-.63l.38,1.6a10.06,10.06,0,0,1-4.09.76c-3.78,0-6-2.49-6-6.19s2.18-6.63,5.76-6.63c4,0,5.08,3.53,5.08,5.79a10.18,10.18,0,0,1-.07,1Zm6.55-1.6c0-1.42-.58-3.63-3.09-3.63-2.26,0-3.25,2.08-3.43,3.63Z"/><path class="cls-5" d="M277.3,433.58c0-1.27,0-2.31-.1-3.32h2l.12,2h.06a4.5,4.5,0,0,1,4.06-2.31c1.7,0,4.34,1,4.34,5.23v7.34h-2.23v-7.09c0-2-.74-3.63-2.85-3.63a3.17,3.17,0,0,0-3,2.29,3,3,0,0,0-.16,1v7.39H277.3Z"/><path class="cls-5" d="M302,424.52v14.85c0,1.09,0,2.34.1,3.18h-2l-.1-2.14H300a4.55,4.55,0,0,1-4.19,2.42c-3,0-5.26-2.52-5.26-6.25,0-4.09,2.51-6.6,5.51-6.6a4.12,4.12,0,0,1,3.71,1.88h0v-7.34Zm-2.23,10.74a4.29,4.29,0,0,0-.1-.94,3.29,3.29,0,0,0-3.23-2.59c-2.31,0-3.68,2-3.68,4.75,0,2.49,1.22,4.54,3.63,4.54a3.37,3.37,0,0,0,3.28-2.66,4.25,4.25,0,0,0,.1-1Z"/><path class="cls-5" d="M312.51,442.55l-.17-1.55h-.08a4.61,4.61,0,0,1-3.76,1.83,3.51,3.51,0,0,1-3.76-3.53c0-3,2.64-4.6,7.39-4.57v-.26a2.53,2.53,0,0,0-2.79-2.84,6.11,6.11,0,0,0-3.2.91l-.51-1.47a7.65,7.65,0,0,1,4-1.09c3.76,0,4.67,2.56,4.67,5v4.59a17.62,17.62,0,0,0,.2,2.95Zm-.33-6.27c-2.43-.06-5.2.38-5.2,2.76a2,2,0,0,0,2.11,2.14,3.07,3.07,0,0,0,3-2.06,2.52,2.52,0,0,0,.12-.71Z"/><path class="cls-5" d="M320.54,426.73v3.53h3.19V432h-3.19v6.63c0,1.52.43,2.38,1.67,2.38a4.9,4.9,0,0,0,1.3-.15l.1,1.68a5.67,5.67,0,0,1-2,.3,3.12,3.12,0,0,1-2.42-.94,4.57,4.57,0,0,1-.86-3.2V432h-1.9v-1.7h1.9v-2.95Z"/><path class="cls-5" d="M328.74,426.8a1.39,1.39,0,0,1-2.77,0,1.36,1.36,0,0,1,1.39-1.39A1.33,1.33,0,0,1,328.74,426.8Zm-2.49,15.75V430.26h2.23v12.29Z"/><path class="cls-5" d="M343.31,436.3c0,4.55-3.15,6.53-6.12,6.53-3.33,0-5.89-2.44-5.89-6.33,0-4.11,2.69-6.52,6.09-6.52S343.31,432.54,343.31,436.3Zm-9.75.13c0,2.69,1.55,4.72,3.73,4.72s3.73-2,3.73-4.77c0-2.09-1-4.73-3.68-4.73S333.56,434.09,333.56,436.43Z"/><path class="cls-5" d="M346.13,433.58c0-1.27,0-2.31-.11-3.32h2l.13,2h.05a4.52,4.52,0,0,1,4.07-2.31c1.7,0,4.34,1,4.34,5.23v7.34h-2.24v-7.09c0-2-.73-3.63-2.84-3.63a3.18,3.18,0,0,0-3,2.29,3.26,3.26,0,0,0-.15,1v7.39h-2.23Z"/><path class="cls-5" d="M359.91,440.26a5.88,5.88,0,0,0,2.95.89c1.62,0,2.38-.81,2.38-1.83s-.63-1.65-2.28-2.26c-2.21-.78-3.25-2-3.25-3.48,0-2,1.6-3.6,4.24-3.6a6.11,6.11,0,0,1,3,.76l-.56,1.63a4.71,4.71,0,0,0-2.51-.72c-1.32,0-2.06.77-2.06,1.68s.74,1.47,2.34,2.08c2.13.81,3.22,1.88,3.22,3.71,0,2.16-1.67,3.68-4.59,3.68a7,7,0,0,1-3.46-.84Z"/><path class="cls-5" d="M179.15,523.75l-1.78,5.38h-2.28L180.9,512h2.67l5.84,17.11H187l-1.82-5.38Zm5.61-1.73-1.68-4.93c-.38-1.11-.63-2.13-.89-3.12h-.05c-.25,1-.53,2.06-.86,3.1L179.61,522Z"/><path class="cls-5" d="M191.77,520.85c0-1.57-.05-2.84-.11-4h2l.1,2.11h0a4.84,4.84,0,0,1,4.37-2.39c3,0,5.2,2.52,5.2,6.25,0,4.42-2.69,6.6-5.58,6.6a4.29,4.29,0,0,1-3.78-1.93H194v6.68h-2.21Zm2.21,3.28a5.07,5.07,0,0,0,.1.91,3.44,3.44,0,0,0,3.35,2.62c2.36,0,3.73-1.93,3.73-4.75,0-2.46-1.29-4.57-3.66-4.57a3.56,3.56,0,0,0-3.37,2.77,3.47,3.47,0,0,0-.15.91Z"/><path class="cls-5" d="M206.21,520.85c0-1.57-.05-2.84-.1-4h2l.1,2.11h.05a4.83,4.83,0,0,1,4.37-2.39c3,0,5.2,2.52,5.2,6.25,0,4.42-2.69,6.6-5.59,6.6a4.31,4.31,0,0,1-3.78-1.93h-.05v6.68h-2.21Zm2.21,3.28a5.07,5.07,0,0,0,.1.91,3.45,3.45,0,0,0,3.35,2.62c2.37,0,3.74-1.93,3.74-4.75,0-2.46-1.3-4.57-3.66-4.57a3.57,3.57,0,0,0-3.38,2.77,3.93,3.93,0,0,0-.15.91Z"/><path class="cls-5" d="M220.66,511.1h2.23v18h-2.23Z"/><path class="cls-5" d="M229.14,513.39a1.39,1.39,0,0,1-2.77,0,1.36,1.36,0,0,1,1.4-1.4A1.33,1.33,0,0,1,229.14,513.39Zm-2.49,15.74V516.84h2.23v12.29Z"/><path class="cls-5" d="M241.35,528.67a8.14,8.14,0,0,1-3.53.71c-3.71,0-6.12-2.51-6.12-6.27a6.24,6.24,0,0,1,6.6-6.52,7.57,7.57,0,0,1,3.1.63l-.51,1.73a5.1,5.1,0,0,0-2.59-.59c-2.82,0-4.34,2.09-4.34,4.65,0,2.84,1.83,4.6,4.27,4.6A6.34,6.34,0,0,0,241,527Z"/><path class="cls-5" d="M250.77,529.13l-.18-1.55h-.08a4.54,4.54,0,0,1-3.75,1.83,3.5,3.5,0,0,1-3.76-3.53c0-3,2.64-4.6,7.39-4.57v-.25a2.54,2.54,0,0,0-2.8-2.85,6.08,6.08,0,0,0-3.19.92l-.51-1.48a7.61,7.61,0,0,1,4-1.09c3.76,0,4.68,2.57,4.68,5v4.59a17.62,17.62,0,0,0,.2,3Zm-.33-6.27c-2.44-.05-5.21.38-5.21,2.77a2,2,0,0,0,2.11,2.13,3.05,3.05,0,0,0,3-2.06,2.22,2.22,0,0,0,.13-.71Z"/><path class="cls-5" d="M258.79,513.31v3.53H262v1.7h-3.2v6.63c0,1.52.43,2.39,1.68,2.39a4.73,4.73,0,0,0,1.29-.16l.1,1.68a5.4,5.4,0,0,1-2,.3,3.09,3.09,0,0,1-2.41-.94,4.56,4.56,0,0,1-.86-3.19v-6.71H254.7v-1.7h1.91V513.9Z"/><path class="cls-5" d="M267,513.39a1.31,1.31,0,0,1-1.42,1.37,1.33,1.33,0,0,1-1.35-1.37,1.37,1.37,0,0,1,1.4-1.4A1.33,1.33,0,0,1,267,513.39Zm-2.49,15.74V516.84h2.24v12.29Z"/><path class="cls-5" d="M281.56,522.88c0,4.55-3.14,6.53-6.11,6.53-3.33,0-5.9-2.44-5.9-6.32,0-4.12,2.7-6.53,6.1-6.53S281.56,519.13,281.56,522.88Zm-9.75.13c0,2.69,1.55,4.72,3.74,4.72s3.73-2,3.73-4.77c0-2.08-1-4.72-3.68-4.72S271.81,520.67,271.81,523Z"/><path class="cls-5" d="M284.38,520.17c0-1.27,0-2.31-.1-3.33h2l.13,2h.05a4.51,4.51,0,0,1,4.06-2.31c1.7,0,4.34,1,4.34,5.23v7.34h-2.23v-7.08c0-2-.74-3.63-2.85-3.63a3.17,3.17,0,0,0-3,2.28,3.26,3.26,0,0,0-.15,1v7.39h-2.24Z"/><path class="cls-5" d="M176.3,546.06c0-1.44,0-2.69-.1-3.83h2l.07,2.41h.11a3.67,3.67,0,0,1,3.4-2.69,2.41,2.41,0,0,1,.63.08v2.1a3.39,3.39,0,0,0-.76-.07,3.14,3.14,0,0,0-3,2.87,6.33,6.33,0,0,0-.1,1v6.55H176.3Z"/><path class="cls-5" d="M191.28,554.52l-.17-1.55H191a4.61,4.61,0,0,1-3.76,1.83,3.5,3.5,0,0,1-3.76-3.53c0-3,2.65-4.6,7.39-4.57v-.26a2.53,2.53,0,0,0-2.79-2.84,6.2,6.2,0,0,0-3.2.91L184.4,543a7.65,7.65,0,0,1,4-1.09c3.76,0,4.67,2.56,4.67,5v4.59a16.55,16.55,0,0,0,.21,2.95Zm-.33-6.27c-2.43,0-5.2.38-5.2,2.76a2,2,0,0,0,2.11,2.14,3.06,3.06,0,0,0,3-2.06,2.52,2.52,0,0,0,.12-.71Z"/><path class="cls-5" d="M199.31,538.7v3.53h3.2v1.7h-3.2v6.63c0,1.52.43,2.38,1.67,2.38a4.84,4.84,0,0,0,1.3-.15l.1,1.68a5.44,5.44,0,0,1-2,.3,3.09,3.09,0,0,1-2.41-.94,4.52,4.52,0,0,1-.87-3.2v-6.7h-1.9v-1.7h1.9v-3Z"/><path class="cls-5" d="M207.51,538.78a1.39,1.39,0,0,1-2.77,0,1.36,1.36,0,0,1,1.4-1.4A1.33,1.33,0,0,1,207.51,538.78ZM205,554.52V542.23h2.23v12.29Z"/><path class="cls-5" d="M222.08,548.27c0,4.55-3.15,6.53-6.12,6.53-3.33,0-5.89-2.44-5.89-6.32,0-4.12,2.69-6.53,6.09-6.53S222.08,544.51,222.08,548.27Zm-9.75.13c0,2.69,1.55,4.72,3.73,4.72s3.74-2,3.74-4.77c0-2.08-1.05-4.72-3.69-4.72S212.33,546.06,212.33,548.4Z"/><path class="cls-5" d="M224.9,545.56c0-1.27,0-2.31-.1-3.33h2l.12,2h0A4.53,4.53,0,0,1,231,542c1.7,0,4.34,1,4.34,5.23v7.34h-2.24v-7.09c0-2-.73-3.63-2.84-3.63a3.18,3.18,0,0,0-3,2.29,3.26,3.26,0,0,0-.15,1v7.39H224.9Z"/><path class="cls-5" d="M245.79,554.52l-.18-1.55h-.07a4.61,4.61,0,0,1-3.76,1.83,3.5,3.5,0,0,1-3.76-3.53c0-3,2.64-4.6,7.39-4.57v-.26a2.53,2.53,0,0,0-2.79-2.84,6.2,6.2,0,0,0-3.2.91l-.51-1.47a7.65,7.65,0,0,1,4-1.09c3.76,0,4.67,2.56,4.67,5v4.59a17.62,17.62,0,0,0,.2,2.95Zm-.33-6.27c-2.44,0-5.2.38-5.2,2.76a2,2,0,0,0,2.1,2.14,3.08,3.08,0,0,0,3-2.06,2.52,2.52,0,0,0,.12-.71Z"/><path class="cls-5" d="M251.22,536.49h2.24v18h-2.24Z"/><path class="cls-5" d="M259.7,538.78a1.31,1.31,0,0,1-1.42,1.37,1.33,1.33,0,0,1-1.34-1.37,1.36,1.36,0,0,1,1.39-1.4A1.33,1.33,0,0,1,259.7,538.78Zm-2.48,15.74V542.23h2.23v12.29Z"/><path class="cls-5" d="M261.76,553.22l5.56-7.23c.53-.66,1-1.25,1.6-1.91V544h-6.65v-1.8h9.37l0,1.4-5.48,7.13c-.51.69-1,1.3-1.58,1.93v0h7.19v1.78h-10Z"/><path class="cls-5" d="M280.83,554.52l-.18-1.55h-.08a4.57,4.57,0,0,1-3.75,1.83,3.5,3.5,0,0,1-3.76-3.53c0-3,2.64-4.6,7.39-4.57v-.26a2.54,2.54,0,0,0-2.8-2.84,6.23,6.23,0,0,0-3.2.91L274,543a7.61,7.61,0,0,1,4-1.09c3.76,0,4.68,2.56,4.68,5v4.59a17.62,17.62,0,0,0,.2,2.95Zm-.33-6.27c-2.44,0-5.21.38-5.21,2.76a2,2,0,0,0,2.11,2.14,3.05,3.05,0,0,0,3-2.06,2.22,2.22,0,0,0,.13-.71Z"/><path class="cls-5" d="M288.85,538.7v3.53h3.2v1.7h-3.2v6.63c0,1.52.43,2.38,1.68,2.38a4.81,4.81,0,0,0,1.29-.15l.1,1.68a5.44,5.44,0,0,1-2,.3,3.09,3.09,0,0,1-2.41-.94,4.53,4.53,0,0,1-.86-3.2v-6.7h-1.91v-1.7h1.91v-3Z"/><path class="cls-5" d="M297.05,538.78a1.31,1.31,0,0,1-1.42,1.37,1.33,1.33,0,0,1-1.35-1.37,1.37,1.37,0,0,1,1.4-1.4A1.33,1.33,0,0,1,297.05,538.78Zm-2.49,15.74V542.23h2.24v12.29Z"/><path class="cls-5" d="M311.62,548.27c0,4.55-3.14,6.53-6.12,6.53-3.32,0-5.89-2.44-5.89-6.32,0-4.12,2.7-6.53,6.1-6.53S311.62,544.51,311.62,548.27Zm-9.75.13c0,2.69,1.55,4.72,3.74,4.72s3.73-2,3.73-4.77c0-2.08-1-4.72-3.68-4.72S301.87,546.06,301.87,548.4Z"/><path class="cls-5" d="M314.44,545.56c0-1.27,0-2.31-.1-3.33h2l.13,2h.05a4.51,4.51,0,0,1,4.06-2.31c1.7,0,4.34,1,4.34,5.23v7.34h-2.23v-7.09c0-2-.74-3.63-2.85-3.63a3.17,3.17,0,0,0-3,2.29,3.26,3.26,0,0,0-.15,1v7.39h-2.24Z"/><path class="cls-5" d="M183.11,579.91l-.18-1.55h-.07a4.61,4.61,0,0,1-3.76,1.83,3.51,3.51,0,0,1-3.76-3.53c0-3,2.64-4.6,7.39-4.57v-.26a2.53,2.53,0,0,0-2.79-2.84,6.08,6.08,0,0,0-3.2.91l-.51-1.47a7.62,7.62,0,0,1,4-1.09c3.75,0,4.67,2.56,4.67,5V577a17.62,17.62,0,0,0,.2,2.95Zm-.33-6.27c-2.44-.06-5.21.38-5.21,2.76a2,2,0,0,0,2.11,2.14,3.05,3.05,0,0,0,3-2.06,2.22,2.22,0,0,0,.13-.71Z"/><path class="cls-5" d="M188.54,570.94c0-1.27,0-2.31-.1-3.32h2l.13,2h0a4.51,4.51,0,0,1,4.06-2.31c1.7,0,4.34,1,4.34,5.23v7.34h-2.23v-7.09c0-2-.74-3.63-2.85-3.63a3.17,3.17,0,0,0-3,2.29,3.26,3.26,0,0,0-.15,1v7.39h-2.24Z"/><path class="cls-5" d="M213.25,561.88v14.85c0,1.1,0,2.34.1,3.18h-2l-.1-2.14h-.05a4.55,4.55,0,0,1-4.19,2.42c-3,0-5.26-2.52-5.26-6.25,0-4.09,2.52-6.6,5.51-6.6a4.12,4.12,0,0,1,3.71,1.88h0v-7.34ZM211,572.62a3.76,3.76,0,0,0-.1-.94,3.29,3.29,0,0,0-3.23-2.59c-2.31,0-3.68,2-3.68,4.75,0,2.49,1.22,4.54,3.63,4.54a3.37,3.37,0,0,0,3.28-2.66,3.75,3.75,0,0,0,.1-1Z"/><path class="cls-5" d="M222.33,571.45c0-1.45,0-2.69-.1-3.83h2l.07,2.41h.1a3.69,3.69,0,0,1,3.41-2.69,2,2,0,0,1,.63.08v2.1a3.45,3.45,0,0,0-.76-.07,3.14,3.14,0,0,0-3,2.87,6.33,6.33,0,0,0-.1,1v6.55h-2.21Z"/><path class="cls-5" d="M241.5,573.66c0,4.55-3.15,6.53-6.12,6.53-3.32,0-5.89-2.44-5.89-6.33,0-4.11,2.69-6.52,6.1-6.52S241.5,569.9,241.5,573.66Zm-9.75.13c0,2.69,1.55,4.72,3.73,4.72s3.74-2,3.74-4.77c0-2.08-1-4.73-3.68-4.73S231.75,571.45,231.75,573.79Z"/><path class="cls-5" d="M251.12,579.91l-.17-1.55h-.08a4.61,4.61,0,0,1-3.76,1.83,3.51,3.51,0,0,1-3.76-3.53c0-3,2.64-4.6,7.39-4.57v-.26A2.53,2.53,0,0,0,248,569a6.11,6.11,0,0,0-3.2.91l-.51-1.47a7.65,7.65,0,0,1,4-1.09c3.76,0,4.67,2.56,4.67,5V577a16.55,16.55,0,0,0,.21,2.95Zm-.33-6.27c-2.43-.06-5.2.38-5.2,2.76a2,2,0,0,0,2.11,2.14,3.06,3.06,0,0,0,3-2.06,2.52,2.52,0,0,0,.12-.71Z"/><path class="cls-5" d="M267.17,561.88v14.85c0,1.1,0,2.34.1,3.18h-2l-.11-2.14h-.05a4.53,4.53,0,0,1-4.19,2.42c-3,0-5.25-2.52-5.25-6.25,0-4.09,2.51-6.6,5.51-6.6a4.09,4.09,0,0,1,3.7,1.88h.06v-7.34Zm-2.23,10.74a3.77,3.77,0,0,0-.11-.94,3.29,3.29,0,0,0-3.22-2.59c-2.31,0-3.68,2-3.68,4.75,0,2.49,1.22,4.54,3.63,4.54a3.35,3.35,0,0,0,3.27-2.66,3.74,3.74,0,0,0,.11-1Z"/><path class="cls-5" d="M276.26,570.94c0-1.27,0-2.31-.1-3.32h1.95l.1,2h.08a4.23,4.23,0,0,1,3.86-2.26,3.64,3.64,0,0,1,3.48,2.46h.05a5.08,5.08,0,0,1,1.37-1.6,4.17,4.17,0,0,1,2.71-.86c1.63,0,4,1.07,4,5.33v7.24h-2.18v-7c0-2.36-.86-3.78-2.67-3.78a2.89,2.89,0,0,0-2.64,2,3.7,3.7,0,0,0-.18,1.12v7.59H284v-7.37c0-1.95-.86-3.37-2.56-3.37a3,3,0,0,0-2.77,2.23,3,3,0,0,0-.18,1.09v7.42h-2.18Z"/><path class="cls-5" d="M304.24,579.91l-.18-1.55H304a4.58,4.58,0,0,1-3.76,1.83,3.5,3.5,0,0,1-3.75-3.53c0-3,2.64-4.6,7.38-4.57v-.26a2.53,2.53,0,0,0-2.79-2.84,6.13,6.13,0,0,0-3.2.91l-.51-1.47a7.65,7.65,0,0,1,4-1.09c3.76,0,4.67,2.56,4.67,5V577a16.55,16.55,0,0,0,.21,2.95Zm-.33-6.27c-2.44-.06-5.21.38-5.21,2.76a2,2,0,0,0,2.11,2.14,3.06,3.06,0,0,0,3-2.06,2.53,2.53,0,0,0,.13-.71Z"/><path class="cls-5" d="M309.67,571.63c0-1.57-.05-2.84-.1-4h2l.1,2.11h.05a4.85,4.85,0,0,1,4.37-2.39c3,0,5.21,2.51,5.21,6.24,0,4.42-2.69,6.61-5.59,6.61a4.3,4.3,0,0,1-3.78-1.93h-.05v6.67h-2.21Zm2.21,3.28a5.07,5.07,0,0,0,.1.91,3.43,3.43,0,0,0,3.35,2.61c2.36,0,3.73-1.93,3.73-4.74,0-2.47-1.29-4.57-3.65-4.57a3.56,3.56,0,0,0-3.38,2.76,3.47,3.47,0,0,0-.15.92Z"/><path class="cls-5" d="M615.38,230.73a25.36,25.36,0,0,1,4.24-.33,7.07,7.07,0,0,1,4.8,1.42,4.6,4.6,0,0,1,1.5,3.58,5.06,5.06,0,0,1-1.32,3.66,7.12,7.12,0,0,1-5.23,1.88,7.45,7.45,0,0,1-1.78-.16v6.86h-2.21Zm2.21,8.25a7.24,7.24,0,0,0,1.83.18c2.66,0,4.29-1.3,4.29-3.66s-1.6-3.35-4-3.35a9.33,9.33,0,0,0-2.08.18Z"/><path class="cls-5" d="M628.4,239.18c0-1.44,0-2.69-.1-3.83h2l.07,2.41h.11a3.67,3.67,0,0,1,3.4-2.69,2.41,2.41,0,0,1,.63.08v2.1a3.39,3.39,0,0,0-.76-.07,3.13,3.13,0,0,0-3,2.87,5.35,5.35,0,0,0-.11,1v6.55H628.4Z"/><path class="cls-5" d="M647.57,241.39c0,4.55-3.14,6.53-6.12,6.53-3.32,0-5.89-2.44-5.89-6.32,0-4.12,2.7-6.53,6.1-6.53S647.57,237.63,647.57,241.39Zm-9.75.13c0,2.69,1.55,4.72,3.74,4.72s3.73-2,3.73-4.77c0-2.08-1-4.72-3.68-4.72S637.82,239.18,637.82,241.52Z"/><path class="cls-5" d="M659.15,247.18a8.14,8.14,0,0,1-3.53.71c-3.71,0-6.12-2.51-6.12-6.27a6.24,6.24,0,0,1,6.6-6.52,7.57,7.57,0,0,1,3.1.63l-.51,1.73a5.1,5.1,0,0,0-2.59-.59c-2.81,0-4.34,2.09-4.34,4.65,0,2.84,1.83,4.6,4.27,4.6a6.31,6.31,0,0,0,2.74-.61Z"/><path class="cls-5" d="M662.86,241.9c0,3,2,4.27,4.21,4.27a8,8,0,0,0,3.4-.64l.38,1.6a9.83,9.83,0,0,1-4.08.76c-3.79,0-6-2.49-6-6.19s2.19-6.63,5.77-6.63c4,0,5.08,3.53,5.08,5.79a7.43,7.43,0,0,1-.08,1Zm6.55-1.6c0-1.42-.59-3.63-3.1-3.63-2.26,0-3.25,2.08-3.43,3.63Z"/><path class="cls-5" d="M674,245.35a5.78,5.78,0,0,0,2.94.89c1.63,0,2.39-.81,2.39-1.83s-.64-1.65-2.29-2.26c-2.2-.78-3.25-2-3.25-3.47,0-2,1.6-3.61,4.24-3.61a6.23,6.23,0,0,1,3,.76l-.56,1.63a4.73,4.73,0,0,0-2.52-.71c-1.32,0-2,.76-2,1.67s.73,1.47,2.33,2.08c2.14.82,3.23,1.88,3.23,3.71,0,2.16-1.68,3.68-4.6,3.68a7,7,0,0,1-3.45-.84Z"/><path class="cls-5" d="M684.08,245.35a5.78,5.78,0,0,0,2.95.89c1.62,0,2.38-.81,2.38-1.83s-.63-1.65-2.28-2.26c-2.21-.78-3.25-2-3.25-3.47,0-2,1.6-3.61,4.24-3.61a6.22,6.22,0,0,1,3,.76l-.56,1.63a4.72,4.72,0,0,0-2.51-.71c-1.32,0-2.06.76-2.06,1.67s.74,1.47,2.34,2.08c2.13.82,3.22,1.88,3.22,3.71,0,2.16-1.67,3.68-4.59,3.68a7,7,0,0,1-3.46-.84Z"/><path class="cls-5" d="M615.3,264.75c0-1.57,0-2.84-.1-4h2l.1,2.11h.05a4.83,4.83,0,0,1,4.37-2.39c3,0,5.2,2.51,5.2,6.25,0,4.41-2.69,6.6-5.58,6.6a4.32,4.32,0,0,1-3.79-1.93h0v6.67H615.3Zm2.21,3.28a5.07,5.07,0,0,0,.1.91,3.45,3.45,0,0,0,3.36,2.61c2.36,0,3.73-1.92,3.73-4.74,0-2.47-1.3-4.57-3.66-4.57a3.56,3.56,0,0,0-3.37,2.76,3.48,3.48,0,0,0-.16.92Z"/><path class="cls-5" d="M629.75,255H632v18h-2.23Z"/><path class="cls-5" d="M642.55,273l-.18-1.55h-.08a4.58,4.58,0,0,1-3.76,1.83,3.5,3.5,0,0,1-3.75-3.53c0-3,2.64-4.6,7.39-4.57V265a2.54,2.54,0,0,0-2.8-2.84,6.13,6.13,0,0,0-3.2.91l-.5-1.47a7.58,7.58,0,0,1,4-1.09c3.76,0,4.67,2.56,4.67,5v4.59a16.55,16.55,0,0,0,.21,2.95Zm-.33-6.27c-2.44-.05-5.21.38-5.21,2.76a2,2,0,0,0,2.11,2.14,3.06,3.06,0,0,0,3-2.06,2.22,2.22,0,0,0,.13-.71Z"/><path class="cls-5" d="M648,264.06c0-1.27,0-2.31-.1-3.32h2l.12,2H650a4.5,4.5,0,0,1,4.06-2.31c1.7,0,4.34,1,4.34,5.23V273h-2.23v-7.09c0-2-.74-3.63-2.85-3.63a3.17,3.17,0,0,0-3,2.29,3,3,0,0,0-.16,1V273H648Z"/><path class="cls-5" d="M662.07,264.06c0-1.27,0-2.31-.1-3.32h2l.12,2h.06a4.5,4.5,0,0,1,4.06-2.31c1.7,0,4.34,1,4.34,5.23V273H670.3v-7.09c0-2-.74-3.63-2.85-3.63a3.17,3.17,0,0,0-3,2.29,3,3,0,0,0-.16,1V273h-2.23Z"/><path class="cls-5" d="M678.65,257.29a1.39,1.39,0,0,1-2.77,0,1.36,1.36,0,0,1,1.4-1.4A1.33,1.33,0,0,1,678.65,257.29ZM676.16,273V260.74h2.23V273Z"/><path class="cls-5" d="M682.1,264.06c0-1.27,0-2.31-.1-3.32h2l.13,2h0a4.51,4.51,0,0,1,4.06-2.31c1.7,0,4.34,1,4.34,5.23V273h-2.23v-7.09c0-2-.74-3.63-2.85-3.63a3.17,3.17,0,0,0-3,2.29,3,3,0,0,0-.16,1V273H682.1Z"/><path class="cls-5" d="M706.78,260.74c0,.89-.1,1.88-.1,3.38v7.13c0,2.82-.56,4.54-1.76,5.61a6.49,6.49,0,0,1-4.46,1.47,7.92,7.92,0,0,1-4.09-1l.56-1.7a6.89,6.89,0,0,0,3.6,1c2.29,0,4-1.19,4-4.29v-1.37h0a4.38,4.38,0,0,1-3.91,2.06c-3,0-5.23-2.59-5.23-6,0-4.16,2.72-6.52,5.54-6.52a4.09,4.09,0,0,1,3.83,2.13h.05l.1-1.85Zm-2.31,4.85a3.28,3.28,0,0,0-.13-1,3.23,3.23,0,0,0-3.12-2.36c-2.14,0-3.66,1.8-3.66,4.65,0,2.41,1.22,4.42,3.63,4.42a3.27,3.27,0,0,0,3.1-2.29,3.78,3.78,0,0,0,.18-1.19Z"/><path class="cls-5" d="M722.57,273l-.18-1.55h-.08a4.57,4.57,0,0,1-3.75,1.83,3.51,3.51,0,0,1-3.76-3.53c0-3,2.64-4.6,7.39-4.57V265a2.54,2.54,0,0,0-2.8-2.84,6.07,6.07,0,0,0-3.19.91l-.51-1.47a7.62,7.62,0,0,1,4-1.09c3.75,0,4.67,2.56,4.67,5v4.59a17.62,17.62,0,0,0,.2,2.95Zm-.33-6.27c-2.44-.05-5.21.38-5.21,2.76a2,2,0,0,0,2.11,2.14,3.05,3.05,0,0,0,3-2.06,2.22,2.22,0,0,0,.13-.71Z"/><path class="cls-5" d="M728,264.06c0-1.27,0-2.31-.1-3.32h2l.13,2h0a4.51,4.51,0,0,1,4.06-2.31c1.7,0,4.34,1,4.34,5.23V273h-2.23v-7.09c0-2-.74-3.63-2.85-3.63a3.17,3.17,0,0,0-3,2.29,3.26,3.26,0,0,0-.15,1V273H728Z"/><path class="cls-5" d="M752.71,255v14.85c0,1.1,0,2.34.1,3.18h-2l-.1-2.14h-.05a4.55,4.55,0,0,1-4.19,2.42c-3,0-5.26-2.52-5.26-6.25,0-4.09,2.52-6.6,5.51-6.6a4.12,4.12,0,0,1,3.71,1.88h.05V255Zm-2.24,10.74a3.76,3.76,0,0,0-.1-.94,3.29,3.29,0,0,0-3.23-2.59c-2.31,0-3.68,2-3.68,4.75,0,2.49,1.22,4.54,3.63,4.54a3.37,3.37,0,0,0,3.28-2.66,3.75,3.75,0,0,0,.1-1Z"/><path class="cls-5" d="M625.92,280.39v14.85c0,1.09,0,2.34.1,3.18h-2l-.1-2.14h0a4.54,4.54,0,0,1-4.19,2.42c-3,0-5.25-2.52-5.25-6.25,0-4.09,2.51-6.6,5.51-6.6a4.11,4.11,0,0,1,3.7,1.88h0v-7.34Zm-2.24,10.74a3.76,3.76,0,0,0-.1-.94,3.29,3.29,0,0,0-3.22-2.59c-2.31,0-3.68,2-3.68,4.75,0,2.49,1.21,4.54,3.63,4.54a3.35,3.35,0,0,0,3.27-2.66,3.75,3.75,0,0,0,.1-1Z"/><path class="cls-5" d="M630.87,292.68c0,3,2,4.26,4.21,4.26a8.14,8.14,0,0,0,3.4-.63l.39,1.6a10.1,10.1,0,0,1-4.09.76c-3.79,0-6-2.49-6-6.2s2.19-6.62,5.77-6.62c4,0,5.08,3.53,5.08,5.79a7.57,7.57,0,0,1-.08,1Zm6.55-1.6c0-1.42-.59-3.63-3.1-3.63-2.26,0-3.25,2.08-3.43,3.63Z"/><path class="cls-5" d="M643.21,286.13l2.41,6.9c.4,1.12.73,2.14,1,3.15h.07c.28-1,.64-2,1.05-3.15l2.38-6.9h2.34l-4.83,12.29h-2.13l-4.67-12.29Z"/><path class="cls-5" d="M655.54,292.68c.06,3,2,4.26,4.22,4.26a8.17,8.17,0,0,0,3.4-.63l.38,1.6a10,10,0,0,1-4.09.76c-3.78,0-6-2.49-6-6.2s2.19-6.62,5.77-6.62c4,0,5.07,3.53,5.07,5.79a10.18,10.18,0,0,1-.07,1Zm6.56-1.6c0-1.42-.59-3.63-3.1-3.63-2.26,0-3.25,2.08-3.43,3.63Z"/><path class="cls-5" d="M667,280.39h2.23v18H667Z"/><path class="cls-5" d="M684.13,292.17c0,4.54-3.15,6.53-6.12,6.53-3.32,0-5.89-2.44-5.89-6.33,0-4.11,2.69-6.52,6.1-6.52S684.13,288.41,684.13,292.17Zm-9.75.13c0,2.69,1.55,4.72,3.73,4.72s3.74-2,3.74-4.77c0-2.09-1-4.73-3.68-4.73S674.38,290,674.38,292.3Z"/><path class="cls-5" d="M687,290.14c0-1.58-.05-2.85-.1-4h2l.11,2.1h0a4.83,4.83,0,0,1,4.36-2.38c3,0,5.21,2.51,5.21,6.24,0,4.42-2.69,6.61-5.59,6.61a4.33,4.33,0,0,1-3.78-1.93h-.05v6.67H687Zm2.21,3.27a5.18,5.18,0,0,0,.1.92,3.44,3.44,0,0,0,3.35,2.61c2.36,0,3.73-1.93,3.73-4.74,0-2.47-1.29-4.57-3.65-4.57a3.56,3.56,0,0,0-3.38,2.76,3.47,3.47,0,0,0-.15.92Z"/><path class="cls-5" d="M701.39,289.45c0-1.27,0-2.31-.1-3.32h2l.1,2h.08a4.22,4.22,0,0,1,3.86-2.26,3.62,3.62,0,0,1,3.47,2.46h0a5.23,5.23,0,0,1,1.38-1.6,4.15,4.15,0,0,1,2.71-.86c1.63,0,4,1.06,4,5.33v7.24h-2.18v-7c0-2.36-.87-3.78-2.67-3.78a2.89,2.89,0,0,0-2.64,2,3.68,3.68,0,0,0-.18,1.11v7.6h-2.18v-7.37c0-1.95-.86-3.37-2.57-3.37a3,3,0,0,0-2.76,2.23,3,3,0,0,0-.18,1.09v7.42h-2.19Z"/><path class="cls-5" d="M723.81,292.68a3.93,3.93,0,0,0,4.22,4.26,8.17,8.17,0,0,0,3.4-.63l.38,1.6a10.06,10.06,0,0,1-4.09.76c-3.78,0-6-2.49-6-6.2s2.18-6.62,5.76-6.62c4,0,5.08,3.53,5.08,5.79a10.18,10.18,0,0,1-.07,1Zm6.55-1.6c0-1.42-.58-3.63-3.09-3.63-2.26,0-3.25,2.08-3.43,3.63Z"/><path class="cls-5" d="M735.29,289.45c0-1.27,0-2.31-.1-3.32h2l.12,2h.05a4.53,4.53,0,0,1,4.07-2.31c1.7,0,4.34,1,4.34,5.23v7.34h-2.24v-7.09c0-2-.73-3.63-2.84-3.63a3.17,3.17,0,0,0-3,2.29,3,3,0,0,0-.16,1v7.39h-2.23Z"/><path class="cls-5" d="M752,282.6v3.53h3.2v1.7H752v6.63c0,1.52.43,2.38,1.67,2.38a4.84,4.84,0,0,0,1.3-.15l.1,1.68a5.67,5.67,0,0,1-2,.3,3.09,3.09,0,0,1-2.41-.94,4.52,4.52,0,0,1-.87-3.2v-6.7h-1.9v-1.7h1.9v-2.95Z"/><path class="cls-5" d="M615.38,374.88a32.23,32.23,0,0,1,4.7-.35c3.17,0,5.43.74,6.93,2.13a7.91,7.91,0,0,1,2.41,6.15,9.06,9.06,0,0,1-2.46,6.65c-1.6,1.6-4.24,2.46-7.57,2.46a35.08,35.08,0,0,1-4-.2ZM617.59,390a14.22,14.22,0,0,0,2.23.12c4.73,0,7.29-2.64,7.29-7.26,0-4-2.26-6.6-6.93-6.6a12.31,12.31,0,0,0-2.59.23Z"/><path class="cls-5" d="M639,391.77l-.18-1.55h-.08a4.54,4.54,0,0,1-3.75,1.83,3.5,3.5,0,0,1-3.76-3.53c0-3,2.64-4.6,7.39-4.57v-.25a2.54,2.54,0,0,0-2.8-2.85,6.14,6.14,0,0,0-3.2.92l-.5-1.48a7.58,7.58,0,0,1,4-1.09c3.76,0,4.68,2.57,4.68,5v4.59a17.62,17.62,0,0,0,.2,2.95Zm-.33-6.27c-2.44-.05-5.21.38-5.21,2.77a2,2,0,0,0,2.11,2.13,3.06,3.06,0,0,0,3-2.06,2.22,2.22,0,0,0,.13-.71Z"/><path class="cls-5" d="M647,376v3.53h3.2v1.7H647v6.63c0,1.52.43,2.39,1.68,2.39A4.73,4.73,0,0,0,650,390l.1,1.68a5.44,5.44,0,0,1-2,.3,3.09,3.09,0,0,1-2.41-.94,4.53,4.53,0,0,1-.86-3.2v-6.7H643v-1.7h1.91v-2.94Z"/><path class="cls-5" d="M659.56,391.77l-.18-1.55h-.08a4.55,4.55,0,0,1-3.76,1.83,3.5,3.5,0,0,1-3.75-3.53c0-3,2.64-4.6,7.39-4.57v-.25a2.54,2.54,0,0,0-2.8-2.85,6.14,6.14,0,0,0-3.2.92l-.5-1.48a7.58,7.58,0,0,1,4-1.09c3.76,0,4.67,2.57,4.67,5v4.59a17.55,17.55,0,0,0,.21,2.95Zm-.33-6.27c-2.44-.05-5.21.38-5.21,2.77a2,2,0,0,0,2.11,2.13,3.06,3.06,0,0,0,3-2.06,2.22,2.22,0,0,0,.13-.71Z"/><path class="cls-5" d="M625.89,404.87c0,.89-.1,1.88-.1,3.38v7.13c0,2.82-.56,4.55-1.75,5.61a6.49,6.49,0,0,1-4.47,1.47,8,8,0,0,1-4.09-1l.56-1.7a6.9,6.9,0,0,0,3.61,1c2.28,0,4-1.19,4-4.29v-1.37h-.05a4.4,4.4,0,0,1-3.91,2.06c-3,0-5.23-2.59-5.23-6,0-4.17,2.71-6.53,5.53-6.53a4.09,4.09,0,0,1,3.83,2.13h.06l.1-1.85Zm-2.31,4.85a3,3,0,0,0-.13-1,3.21,3.21,0,0,0-3.12-2.36c-2.13,0-3.65,1.8-3.65,4.65,0,2.41,1.21,4.42,3.63,4.42a3.26,3.26,0,0,0,3.09-2.29,3.78,3.78,0,0,0,.18-1.19Z"/><path class="cls-5" d="M640.62,410.91c0,4.55-3.15,6.53-6.12,6.53-3.33,0-5.89-2.44-5.89-6.32,0-4.12,2.69-6.53,6.09-6.53S640.62,407.15,640.62,410.91Zm-9.75.13c0,2.69,1.55,4.72,3.73,4.72s3.73-2,3.73-4.77c0-2.08-1-4.72-3.68-4.72S630.87,408.7,630.87,411Z"/><path class="cls-5" d="M644.12,404.87l2.41,6.91a29.48,29.48,0,0,1,1,3.14h.08c.28-1,.63-2,1-3.14l2.39-6.91h2.33l-4.82,12.29h-2.13l-4.68-12.29Z"/><path class="cls-5" d="M656.46,411.42c0,3,2,4.27,4.21,4.27a8,8,0,0,0,3.41-.64l.38,1.6a9.93,9.93,0,0,1-4.09.76c-3.78,0-6-2.49-6-6.19s2.18-6.63,5.76-6.63c4,0,5.08,3.53,5.08,5.79a7.43,7.43,0,0,1-.08,1Zm6.55-1.6c0-1.42-.58-3.63-3.1-3.63-2.26,0-3.25,2.08-3.43,3.63Z"/><path class="cls-5" d="M667.93,408.7c0-1.44,0-2.69-.1-3.83h2l.07,2.41H670a3.67,3.67,0,0,1,3.4-2.69,2.41,2.41,0,0,1,.63.08v2.1a3.39,3.39,0,0,0-.76-.07,3.14,3.14,0,0,0-3,2.87,6.33,6.33,0,0,0-.1,1v6.55h-2.21Z"/><path class="cls-5" d="M676.34,408.2c0-1.27,0-2.32-.1-3.33h2l.12,2h0a4.53,4.53,0,0,1,4.07-2.31c1.7,0,4.34,1,4.34,5.23v7.34h-2.24v-7.09c0-2-.73-3.63-2.84-3.63a3.18,3.18,0,0,0-3,2.29,3.26,3.26,0,0,0-.15,1v7.39h-2.23Z"/><path class="cls-5" d="M697.23,417.16l-.18-1.55H697a4.61,4.61,0,0,1-3.76,1.83,3.5,3.5,0,0,1-3.76-3.53c0-3,2.64-4.6,7.39-4.57v-.26a2.53,2.53,0,0,0-2.79-2.84,6.2,6.2,0,0,0-3.2.91l-.51-1.47a7.65,7.65,0,0,1,4-1.09c3.76,0,4.67,2.56,4.67,5v4.59a17.62,17.62,0,0,0,.2,3Zm-.33-6.27c-2.44-.05-5.2.38-5.2,2.76a2,2,0,0,0,2.1,2.14,3.08,3.08,0,0,0,3-2.06,2.52,2.52,0,0,0,.12-.71Z"/><path class="cls-5" d="M702.66,408.2c0-1.27,0-2.32-.1-3.33h2l.13,2h.05a4.51,4.51,0,0,1,4.06-2.31c1.71,0,4.35,1,4.35,5.23v7.34h-2.24v-7.09c0-2-.73-3.63-2.84-3.63a3.17,3.17,0,0,0-3,2.29,3.26,3.26,0,0,0-.15,1v7.39h-2.24Z"/><path class="cls-5" d="M725.52,416.7a8.18,8.18,0,0,1-3.53.71c-3.71,0-6.12-2.51-6.12-6.27a6.24,6.24,0,0,1,6.6-6.52,7.57,7.57,0,0,1,3.1.63l-.51,1.73a5.13,5.13,0,0,0-2.59-.59c-2.82,0-4.34,2.08-4.34,4.65,0,2.84,1.82,4.59,4.26,4.59a6.47,6.47,0,0,0,2.74-.6Z"/><path class="cls-5" d="M729.22,411.42c0,3,2,4.27,4.22,4.27a8,8,0,0,0,3.4-.64l.38,1.6a9.89,9.89,0,0,1-4.09.76c-3.78,0-6-2.49-6-6.19s2.18-6.63,5.76-6.63c4,0,5.08,3.53,5.08,5.79a7.43,7.43,0,0,1-.08,1Zm6.55-1.6c0-1.42-.58-3.63-3.1-3.63-2.26,0-3.25,2.08-3.42,3.63Z"/><path class="cls-5" d="M622.11,442.55l-.18-1.55h-.08a4.57,4.57,0,0,1-3.75,1.83,3.51,3.51,0,0,1-3.76-3.53c0-3,2.64-4.6,7.39-4.57v-.26a2.53,2.53,0,0,0-2.79-2.84,6.08,6.08,0,0,0-3.2.91l-.51-1.47a7.62,7.62,0,0,1,4-1.09c3.75,0,4.67,2.56,4.67,5v4.59a17.62,17.62,0,0,0,.2,2.95Zm-.33-6.27c-2.44-.06-5.21.38-5.21,2.76a2,2,0,0,0,2.11,2.14,3.05,3.05,0,0,0,3-2.06,2.22,2.22,0,0,0,.13-.71Z"/><path class="cls-5" d="M627.54,433.58c0-1.27,0-2.31-.1-3.32h2l.13,2h.05a4.51,4.51,0,0,1,4.06-2.31c1.7,0,4.34,1,4.34,5.23v7.34h-2.23v-7.09c0-2-.74-3.63-2.85-3.63a3.17,3.17,0,0,0-3,2.29,3.26,3.26,0,0,0-.15,1v7.39h-2.24Z"/><path class="cls-5" d="M652.24,424.52v14.85c0,1.09,0,2.34.11,3.18h-2l-.1-2.14h0a4.55,4.55,0,0,1-4.19,2.42c-3,0-5.26-2.52-5.26-6.25,0-4.09,2.52-6.6,5.51-6.6a4.12,4.12,0,0,1,3.71,1.88h0v-7.34ZM650,435.26a3.76,3.76,0,0,0-.1-.94,3.29,3.29,0,0,0-3.23-2.59c-2.31,0-3.68,2-3.68,4.75,0,2.49,1.22,4.54,3.63,4.54a3.37,3.37,0,0,0,3.28-2.66,3.75,3.75,0,0,0,.1-1Z"/><path class="cls-5" d="M669.71,440.64h-.05a4.37,4.37,0,0,1-4,2.19c-2.87,0-5.21-2.49-5.21-6.22,0-4.6,3-6.63,5.56-6.63a4,4,0,0,1,3.79,2.13h.05l.07-1.85H672c0,1-.07,2.11-.07,3.37v13.94h-2.24Zm0-5.41a3.66,3.66,0,0,0-.1-.94,3.26,3.26,0,0,0-3.2-2.53c-2.31,0-3.71,1.95-3.71,4.72,0,2.44,1.17,4.57,3.63,4.57a3.32,3.32,0,0,0,3.2-2.44,3.43,3.43,0,0,0,.18-1.07Z"/><path class="cls-5" d="M685.91,439.2c0,1.26,0,2.38.1,3.35h-2l-.13-2h0a4.62,4.62,0,0,1-4.06,2.29c-1.93,0-4.24-1.07-4.24-5.39v-7.18h2.23v6.8c0,2.34.72,3.91,2.75,3.91a3.22,3.22,0,0,0,2.94-2,3.17,3.17,0,0,0,.21-1.14v-7.54h2.23Z"/><path class="cls-5" d="M696.42,442.55l-.18-1.55h-.07a4.61,4.61,0,0,1-3.76,1.83,3.51,3.51,0,0,1-3.76-3.53c0-3,2.64-4.6,7.39-4.57v-.26a2.53,2.53,0,0,0-2.79-2.84,6.08,6.08,0,0,0-3.2.91l-.51-1.47a7.62,7.62,0,0,1,4-1.09c3.75,0,4.67,2.56,4.67,5v4.59a17.62,17.62,0,0,0,.2,2.95Zm-.33-6.27c-2.44-.06-5.21.38-5.21,2.76a2,2,0,0,0,2.11,2.14,3.05,3.05,0,0,0,3-2.06,2.22,2.22,0,0,0,.13-.71Z"/><path class="cls-5" d="M701.85,424.52h2.24v18h-2.24Z"/><path class="cls-5" d="M710.33,426.8a1.32,1.32,0,0,1-1.42,1.38,1.33,1.33,0,0,1-1.35-1.38,1.36,1.36,0,0,1,1.4-1.39A1.32,1.32,0,0,1,710.33,426.8Zm-2.49,15.75V430.26h2.24v12.29Z"/><path class="cls-5" d="M716.48,426.73v3.53h3.19V432h-3.19v6.63c0,1.52.43,2.38,1.67,2.38a4.84,4.84,0,0,0,1.3-.15l.1,1.68a5.67,5.67,0,0,1-2,.3,3.09,3.09,0,0,1-2.41-.94,4.52,4.52,0,0,1-.87-3.2V432h-1.9v-1.7h1.9v-2.95Z"/><path class="cls-5" d="M723.23,430.26l2.69,7.26c.28.81.58,1.78.79,2.51h0c.23-.73.48-1.67.78-2.56l2.44-7.21h2.36L729,439c-1.6,4.21-2.69,6.37-4.21,7.69a6,6,0,0,1-2.75,1.45l-.55-1.88a6,6,0,0,0,1.95-1.09,6.8,6.8,0,0,0,1.88-2.49,1.71,1.71,0,0,0,.18-.53,2,2,0,0,0-.15-.59l-4.55-11.32Z"/><path class="cls-5" d="M615.08,526.44a7.8,7.8,0,0,0,4,1.12c2.26,0,3.58-1.2,3.58-2.92s-.92-2.52-3.23-3.41c-2.79-1-4.52-2.43-4.52-4.85,0-2.66,2.21-4.64,5.54-4.64a7.66,7.66,0,0,1,3.78.84l-.61,1.8a6.76,6.76,0,0,0-3.25-.81c-2.33,0-3.22,1.39-3.22,2.56,0,1.6,1,2.39,3.4,3.3,2.89,1.12,4.37,2.51,4.37,5s-2,4.92-6,4.92a8.8,8.8,0,0,1-4.36-1.09Z"/><path class="cls-5" d="M639.09,522.88c0,4.55-3.14,6.53-6.12,6.53-3.32,0-5.89-2.44-5.89-6.32,0-4.12,2.7-6.53,6.1-6.53S639.09,519.13,639.09,522.88Zm-9.75.13c0,2.69,1.55,4.72,3.74,4.72s3.73-2,3.73-4.77c0-2.08-1-4.72-3.68-4.72S629.34,520.67,629.34,523Z"/><path class="cls-5" d="M641.91,511.1h2.24v18h-2.24Z"/><path class="cls-5" d="M658.19,525.78c0,1.27,0,2.39.1,3.35h-2l-.13-2h0a4.64,4.64,0,0,1-4.06,2.29c-1.93,0-4.24-1.07-4.24-5.38v-7.19h2.23v6.81c0,2.33.71,3.91,2.74,3.91a3.25,3.25,0,0,0,3-2,3.4,3.4,0,0,0,.2-1.14v-7.54h2.24Z"/><path class="cls-5" d="M664.58,513.31v3.53h3.2v1.7h-3.2v6.63c0,1.52.43,2.39,1.68,2.39a4.73,4.73,0,0,0,1.29-.16l.11,1.68a5.5,5.5,0,0,1-2,.3,3.1,3.1,0,0,1-2.41-.94,4.56,4.56,0,0,1-.86-3.19v-6.71h-1.91v-1.7h1.91V513.9Z"/><path class="cls-5" d="M672.78,513.39a1.38,1.38,0,0,1-2.76,0,1.36,1.36,0,0,1,1.39-1.4A1.33,1.33,0,0,1,672.78,513.39Zm-2.49,15.74V516.84h2.24v12.29Z"/><path class="cls-5" d="M687.36,522.88c0,4.55-3.15,6.53-6.12,6.53-3.33,0-5.89-2.44-5.89-6.32,0-4.12,2.69-6.53,6.09-6.53S687.36,519.13,687.36,522.88Zm-9.75.13c0,2.69,1.55,4.72,3.73,4.72s3.73-2,3.73-4.77c0-2.08-1-4.72-3.68-4.72S677.61,520.67,677.61,523Z"/><path class="cls-5" d="M690.17,520.17c0-1.27,0-2.31-.1-3.33h2l.13,2h.05a4.51,4.51,0,0,1,4.06-2.31c1.7,0,4.34,1,4.34,5.23v7.34H698.4v-7.08c0-2-.74-3.63-2.84-3.63a3.17,3.17,0,0,0-3,2.28,3.26,3.26,0,0,0-.15,1v7.39h-2.24Z"/><path class="cls-5" d="M622.11,554.52l-.18-1.55h-.08a4.57,4.57,0,0,1-3.75,1.83,3.5,3.5,0,0,1-3.76-3.53c0-3,2.64-4.6,7.39-4.57v-.26a2.53,2.53,0,0,0-2.79-2.84,6.17,6.17,0,0,0-3.2.91l-.51-1.47a7.62,7.62,0,0,1,4-1.09c3.75,0,4.67,2.56,4.67,5v4.59a17.62,17.62,0,0,0,.2,2.95Zm-.33-6.27c-2.44,0-5.21.38-5.21,2.76a2,2,0,0,0,2.11,2.14,3.05,3.05,0,0,0,3-2.06,2.22,2.22,0,0,0,.13-.71Z"/><path class="cls-5" d="M627.54,546.06c0-1.44,0-2.69-.1-3.83h1.95l.08,2.41h.1A3.69,3.69,0,0,1,633,542a2.43,2.43,0,0,1,.64.08v2.1a3.45,3.45,0,0,0-.76-.07,3.13,3.13,0,0,0-3,2.87,6.33,6.33,0,0,0-.1,1v6.55h-2.21Z"/><path class="cls-5" d="M644.35,554.06a8.14,8.14,0,0,1-3.53.71c-3.71,0-6.12-2.51-6.12-6.27a6.24,6.24,0,0,1,6.6-6.52,7.57,7.57,0,0,1,3.1.63l-.51,1.73a5.1,5.1,0,0,0-2.59-.59c-2.82,0-4.34,2.08-4.34,4.65,0,2.84,1.83,4.6,4.27,4.6a6.34,6.34,0,0,0,2.74-.61Z"/><path class="cls-5" d="M647,536.49h2.24v7.67h0a4.12,4.12,0,0,1,1.6-1.58,4.61,4.61,0,0,1,2.28-.63c1.65,0,4.29,1,4.29,5.26v7.31h-2.23v-7.06c0-2-.74-3.66-2.84-3.66a3.22,3.22,0,0,0-3,2.24,2.61,2.61,0,0,0-.15,1.06v7.42H647Z"/><path class="cls-5" d="M663.54,538.78a1.31,1.31,0,0,1-1.42,1.37,1.33,1.33,0,0,1-1.35-1.37,1.37,1.37,0,0,1,1.4-1.4A1.33,1.33,0,0,1,663.54,538.78Zm-2.49,15.74V542.23h2.24v12.29Z"/><path class="cls-5" d="M669.69,538.7v3.53h3.2v1.7h-3.2v6.63c0,1.52.43,2.38,1.67,2.38a4.84,4.84,0,0,0,1.3-.15l.1,1.68a5.44,5.44,0,0,1-2,.3,3.09,3.09,0,0,1-2.41-.94,4.52,4.52,0,0,1-.87-3.2v-6.7h-1.9v-1.7h1.9v-3Z"/><path class="cls-5" d="M676.49,548.78c0,3,2,4.27,4.21,4.27a8,8,0,0,0,3.41-.64l.38,1.6a9.93,9.93,0,0,1-4.09.76c-3.78,0-6-2.49-6-6.19s2.18-6.63,5.76-6.63c4,0,5.08,3.53,5.08,5.79a7.43,7.43,0,0,1-.08,1Zm6.55-1.6c0-1.42-.58-3.63-3.1-3.63-2.26,0-3.25,2.08-3.42,3.63Z"/><path class="cls-5" d="M696.72,554.06a8.09,8.09,0,0,1-3.52.71c-3.71,0-6.12-2.51-6.12-6.27a6.24,6.24,0,0,1,6.6-6.52,7.57,7.57,0,0,1,3.1.63l-.51,1.73a5.13,5.13,0,0,0-2.59-.59c-2.82,0-4.34,2.08-4.34,4.65,0,2.84,1.82,4.6,4.26,4.6a6.31,6.31,0,0,0,2.74-.61Z"/><path class="cls-5" d="M709.62,551.17c0,1.27,0,2.38.1,3.35h-2l-.12-2h0a4.64,4.64,0,0,1-4.07,2.29c-1.93,0-4.24-1.07-4.24-5.38v-7.19h2.24V549c0,2.34.71,3.91,2.74,3.91a3.21,3.21,0,0,0,2.94-2,3.17,3.17,0,0,0,.21-1.14v-7.54h2.23Z"/><path class="cls-5" d="M713.33,546.06c0-1.44,0-2.69-.1-3.83h1.95l.08,2.41h.1a3.68,3.68,0,0,1,3.4-2.69,2.49,2.49,0,0,1,.64.08v2.1a3.49,3.49,0,0,0-.77-.07,3.13,3.13,0,0,0-3,2.87,6.33,6.33,0,0,0-.1,1v6.55h-2.21Z"/><path class="cls-5" d="M722.62,548.78c0,3,2,4.27,4.22,4.27a8,8,0,0,0,3.4-.64l.38,1.6a9.89,9.89,0,0,1-4.09.76c-3.78,0-6-2.49-6-6.19s2.18-6.63,5.76-6.63c4,0,5.08,3.53,5.08,5.79a7.43,7.43,0,0,1-.08,1Zm6.55-1.6c0-1.42-.58-3.63-3.1-3.63-2.26,0-3.25,2.08-3.42,3.63Z"/><path class="cls-5" d="M622.11,579.91l-.18-1.55h-.08a4.57,4.57,0,0,1-3.75,1.83,3.51,3.51,0,0,1-3.76-3.53c0-3,2.64-4.6,7.39-4.57v-.26a2.53,2.53,0,0,0-2.79-2.84,6.08,6.08,0,0,0-3.2.91l-.51-1.47a7.62,7.62,0,0,1,4-1.09c3.75,0,4.67,2.56,4.67,5V577a17.62,17.62,0,0,0,.2,2.95Zm-.33-6.27c-2.44-.06-5.21.38-5.21,2.76a2,2,0,0,0,2.11,2.14,3.05,3.05,0,0,0,3-2.06,2.22,2.22,0,0,0,.13-.71Z"/><path class="cls-5" d="M627.54,570.94c0-1.27,0-2.31-.1-3.32h2l.13,2h.05a4.51,4.51,0,0,1,4.06-2.31c1.7,0,4.34,1,4.34,5.23v7.34h-2.23v-7.09c0-2-.74-3.63-2.85-3.63a3.17,3.17,0,0,0-3,2.29,3.26,3.26,0,0,0-.15,1v7.39h-2.24Z"/><path class="cls-5" d="M652.24,561.88v14.85c0,1.1,0,2.34.11,3.18h-2l-.1-2.14h0a4.55,4.55,0,0,1-4.19,2.42c-3,0-5.26-2.52-5.26-6.25,0-4.09,2.52-6.6,5.51-6.6a4.12,4.12,0,0,1,3.71,1.88h0v-7.34ZM650,572.62a3.76,3.76,0,0,0-.1-.94,3.29,3.29,0,0,0-3.23-2.59c-2.31,0-3.68,2-3.68,4.75,0,2.49,1.22,4.54,3.63,4.54a3.37,3.37,0,0,0,3.28-2.66,3.75,3.75,0,0,0,.1-1Z"/><path class="cls-5" d="M672,561.88v14.85c0,1.1,0,2.34.1,3.18h-2l-.1-2.14h-.05a4.54,4.54,0,0,1-4.19,2.42c-3,0-5.26-2.52-5.26-6.25,0-4.09,2.52-6.6,5.51-6.6a4.12,4.12,0,0,1,3.71,1.88h.05v-7.34Zm-2.24,10.74a3.76,3.76,0,0,0-.1-.94,3.29,3.29,0,0,0-3.22-2.59c-2.32,0-3.69,2-3.69,4.75,0,2.49,1.22,4.54,3.63,4.54a3.37,3.37,0,0,0,3.28-2.66,3.75,3.75,0,0,0,.1-1Z"/><path class="cls-5" d="M676.9,574.17c.05,3,2,4.26,4.21,4.26a8,8,0,0,0,3.4-.63l.38,1.6a10,10,0,0,1-4.08.76c-3.79,0-6-2.49-6-6.19s2.19-6.63,5.77-6.63c4,0,5.07,3.53,5.07,5.79a10.18,10.18,0,0,1-.07,1Zm6.55-1.6c0-1.42-.59-3.63-3.1-3.63-2.26,0-3.25,2.08-3.43,3.63Z"/><path class="cls-5" d="M688.07,577.62a5.84,5.84,0,0,0,2.94.89c1.63,0,2.39-.81,2.39-1.83s-.64-1.65-2.29-2.26c-2.21-.78-3.25-2-3.25-3.48,0-2,1.6-3.6,4.24-3.6a6.05,6.05,0,0,1,3,.76l-.55,1.63a4.75,4.75,0,0,0-2.52-.72c-1.32,0-2,.77-2,1.68s.73,1.47,2.33,2.08c2.13.81,3.23,1.88,3.23,3.71,0,2.16-1.68,3.68-4.6,3.68a7,7,0,0,1-3.45-.84Z"/><path class="cls-5" d="M700.91,564.17a1.38,1.38,0,0,1-2.76,0,1.36,1.36,0,0,1,1.39-1.4A1.33,1.33,0,0,1,700.91,564.17Zm-2.49,15.74V567.62h2.24v12.29Z"/><path class="cls-5" d="M715,567.62c-.05.89-.1,1.88-.1,3.38v7.13c0,2.82-.56,4.54-1.75,5.61a6.49,6.49,0,0,1-4.47,1.47,8,8,0,0,1-4.09-1l.56-1.7a7,7,0,0,0,3.61,1c2.28,0,4-1.19,4-4.29V577.8h0a4.4,4.4,0,0,1-3.91,2.06c-3.05,0-5.23-2.59-5.23-6,0-4.16,2.71-6.52,5.53-6.52a4.12,4.12,0,0,1,3.84,2.13h0l.1-1.85Zm-2.31,4.85a3.29,3.29,0,0,0-.12-1,3.23,3.23,0,0,0-3.13-2.36c-2.13,0-3.65,1.8-3.65,4.65,0,2.41,1.22,4.42,3.63,4.42a3.28,3.28,0,0,0,3.1-2.29,4.08,4.08,0,0,0,.17-1.19Z"/><path class="cls-5" d="M718.41,570.94c0-1.27,0-2.31-.11-3.32h2l.13,2h.05a4.51,4.51,0,0,1,4.06-2.31c1.71,0,4.35,1,4.35,5.23v7.34h-2.24v-7.09c0-2-.73-3.63-2.84-3.63a3.18,3.18,0,0,0-3,2.29,3.26,3.26,0,0,0-.15,1v7.39h-2.23Z"/><path class="cls-5" d="M1066.22,244.65H1061v-1.88h12.67v1.88h-5.23v15.23h-2.23Z"/><path class="cls-5" d="M1075,254.14c0,3,2,4.27,4.22,4.27a8,8,0,0,0,3.4-.64l.38,1.6a9.89,9.89,0,0,1-4.09.76c-3.78,0-6-2.48-6-6.19s2.18-6.63,5.76-6.63c4,0,5.08,3.53,5.08,5.79a7.43,7.43,0,0,1-.08,1Zm6.55-1.6c0-1.42-.58-3.63-3.09-3.63-2.26,0-3.25,2.08-3.43,3.63Z"/><path class="cls-5" d="M1095.19,259.42a8.18,8.18,0,0,1-3.53.71c-3.71,0-6.12-2.51-6.12-6.27a6.24,6.24,0,0,1,6.6-6.52,7.57,7.57,0,0,1,3.1.63l-.51,1.73a5.1,5.1,0,0,0-2.59-.59c-2.82,0-4.34,2.09-4.34,4.65,0,2.84,1.83,4.6,4.26,4.6a6.39,6.39,0,0,0,2.75-.61Z"/><path class="cls-5" d="M1097.8,241.85H1100v7.67h0a4.1,4.1,0,0,1,1.6-1.57,4.59,4.59,0,0,1,2.28-.64c1.65,0,4.29,1,4.29,5.26v7.31H1106v-7.06c0-2-.74-3.65-2.85-3.65a3.2,3.2,0,0,0-3,2.23,2.64,2.64,0,0,0-.15,1.07v7.41h-2.24Z"/><path class="cls-5" d="M1111.89,250.92c0-1.27,0-2.31-.1-3.33h2l.13,2h0a4.51,4.51,0,0,1,4.06-2.31c1.7,0,4.34,1,4.34,5.23v7.34h-2.23V252.8c0-2-.74-3.63-2.85-3.63a3.17,3.17,0,0,0-3,2.28,3.26,3.26,0,0,0-.15,1v7.39h-2.24Z"/><path class="cls-5" d="M1137.1,253.63c0,4.55-3.15,6.53-6.12,6.53-3.32,0-5.89-2.44-5.89-6.32,0-4.12,2.69-6.53,6.1-6.53S1137.1,249.88,1137.1,253.63Zm-9.75.13c0,2.69,1.55,4.72,3.74,4.72s3.73-2,3.73-4.77c0-2.08-1-4.72-3.68-4.72S1127.35,251.42,1127.35,253.76Z"/><path class="cls-5" d="M1139.92,241.85h2.23v18h-2.23Z"/><path class="cls-5" d="M1157,253.63c0,4.55-3.15,6.53-6.12,6.53-3.32,0-5.89-2.44-5.89-6.32,0-4.12,2.69-6.53,6.1-6.53S1157,249.88,1157,253.63Zm-9.75.13c0,2.69,1.55,4.72,3.74,4.72s3.73-2,3.73-4.77c0-2.08-1-4.72-3.68-4.72S1147.28,251.42,1147.28,253.76Z"/><path class="cls-5" d="M1170.44,247.59c0,.89-.1,1.88-.1,3.38v7.13c0,2.82-.56,4.55-1.76,5.61a6.49,6.49,0,0,1-4.46,1.48,7.92,7.92,0,0,1-4.09-1l.56-1.7a6.89,6.89,0,0,0,3.6,1c2.29,0,4-1.19,4-4.29v-1.37h-.05a4.36,4.36,0,0,1-3.91,2.06c-3,0-5.23-2.59-5.23-6,0-4.17,2.72-6.53,5.54-6.53a4.09,4.09,0,0,1,3.83,2.13h.05l.1-1.85Zm-2.31,4.85a3.28,3.28,0,0,0-.13-1,3.23,3.23,0,0,0-3.12-2.36c-2.14,0-3.66,1.81-3.66,4.65,0,2.41,1.22,4.42,3.63,4.42a3.27,3.27,0,0,0,3.1-2.29,3.78,3.78,0,0,0,.18-1.19Z"/><path class="cls-5" d="M1174.85,247.59l2.7,7.26c.28.82.58,1.78.78,2.52h.05c.23-.74.49-1.68.79-2.57l2.44-7.21H1184l-3.35,8.76c-1.6,4.22-2.69,6.37-4.22,7.69a6,6,0,0,1-2.74,1.45l-.56-1.88a5.92,5.92,0,0,0,2-1.09,6.8,6.8,0,0,0,1.88-2.49,1.56,1.56,0,0,0,.17-.53,1.87,1.87,0,0,0-.15-.58l-4.54-11.33Z"/><path class="cls-5" d="M1062.89,276.81c0-1.44,0-2.69-.1-3.83h2l.07,2.41h.1a3.69,3.69,0,0,1,3.41-2.69,2.41,2.41,0,0,1,.63.08v2.1a3.45,3.45,0,0,0-.76-.07,3.13,3.13,0,0,0-3,2.87,6.33,6.33,0,0,0-.1,1v6.55h-2.21Z"/><path class="cls-5" d="M1073.78,269.53a1.31,1.31,0,0,1-1.42,1.37,1.33,1.33,0,0,1-1.34-1.37,1.36,1.36,0,0,1,1.39-1.4A1.33,1.33,0,0,1,1073.78,269.53Zm-2.48,15.74V273h2.23v12.29Z"/><path class="cls-5" d="M1076.93,283a5.78,5.78,0,0,0,3,.89c1.62,0,2.38-.81,2.38-1.83s-.63-1.65-2.28-2.26c-2.21-.78-3.25-2-3.25-3.47,0-2,1.6-3.61,4.24-3.61a6.19,6.19,0,0,1,3,.76l-.56,1.63a4.72,4.72,0,0,0-2.51-.71c-1.32,0-2.06.76-2.06,1.67s.74,1.47,2.34,2.08c2.13.82,3.22,1.88,3.22,3.71,0,2.16-1.67,3.68-4.59,3.68a7,7,0,0,1-3.46-.84Z"/><path class="cls-5" d="M1089.5,278.62h0c.3-.44.74-1,1.09-1.4l3.61-4.24h2.69l-4.75,5,5.41,7.24h-2.72l-4.24-5.89-1.14,1.27v4.62h-2.21v-18h2.21Z"/><path class="cls-5" d="M1077.59,390.37c0,5.89-3.58,9-7.94,9-4.52,0-7.7-3.51-7.7-8.69,0-5.43,3.38-9,8-9S1077.59,385.3,1077.59,390.37Zm-13.28.28c0,3.66,2,6.93,5.46,6.93s5.49-3.22,5.49-7.1c0-3.41-1.78-7-5.46-7S1064.31,386.9,1064.31,390.65Z"/><path class="cls-5" d="M1080.38,390.83c0-1.57-.05-2.84-.1-4h2l.1,2.11h0a4.84,4.84,0,0,1,4.37-2.39c3,0,5.2,2.51,5.2,6.25,0,4.41-2.69,6.6-5.58,6.6a4.32,4.32,0,0,1-3.79-1.93h-.05v6.68h-2.21Zm2.21,3.28a4.28,4.28,0,0,0,.11.91,3.44,3.44,0,0,0,3.35,2.62c2.36,0,3.73-1.93,3.73-4.75,0-2.47-1.3-4.57-3.66-4.57a3.56,3.56,0,0,0-3.37,2.76,3.48,3.48,0,0,0-.16.92Z"/><path class="cls-5" d="M1096.07,393.37c.06,3,2,4.27,4.22,4.27a8,8,0,0,0,3.4-.64l.38,1.6a9.85,9.85,0,0,1-4.09.76c-3.78,0-6-2.49-6-6.19s2.19-6.63,5.77-6.63c4,0,5.07,3.53,5.07,5.79a10,10,0,0,1-.07,1Zm6.56-1.6c0-1.42-.59-3.63-3.1-3.63-2.26,0-3.25,2.08-3.43,3.63Z"/><path class="cls-5" d="M1107.55,390.65c0-1.44,0-2.69-.1-3.83h2l.08,2.41h.1a3.69,3.69,0,0,1,3.4-2.69,2.43,2.43,0,0,1,.64.08v2.1a3.45,3.45,0,0,0-.76-.07,3.13,3.13,0,0,0-3,2.87,6.33,6.33,0,0,0-.1,1v6.55h-2.21Z"/><path class="cls-5" d="M1122.53,399.11l-.18-1.55h-.07a4.61,4.61,0,0,1-3.76,1.83,3.5,3.5,0,0,1-3.76-3.53c0-3,2.64-4.6,7.39-4.57V391a2.53,2.53,0,0,0-2.79-2.84,6.17,6.17,0,0,0-3.2.91l-.51-1.47a7.62,7.62,0,0,1,4-1.09c3.75,0,4.67,2.56,4.67,5v4.59a17.62,17.62,0,0,0,.2,2.95Zm-.33-6.27c-2.44,0-5.21.38-5.21,2.76a2,2,0,0,0,2.11,2.14,3.05,3.05,0,0,0,3-2.06,2.22,2.22,0,0,0,.13-.71Z"/><path class="cls-5" d="M1130.55,383.29v3.53h3.2v1.7h-3.2v6.63c0,1.52.43,2.38,1.68,2.38a4.81,4.81,0,0,0,1.29-.15l.1,1.68a5.4,5.4,0,0,1-2,.3,3.1,3.1,0,0,1-2.41-.94,4.57,4.57,0,0,1-.86-3.2v-6.7h-1.91v-1.7h1.91v-2.95Z"/><path class="cls-5" d="M1138.75,383.37a1.31,1.31,0,0,1-1.42,1.37,1.33,1.33,0,0,1-1.35-1.37,1.37,1.37,0,0,1,1.4-1.4A1.33,1.33,0,0,1,1138.75,383.37Zm-2.49,15.74V386.82h2.24v12.29Z"/><path class="cls-5" d="M1153.33,392.86c0,4.55-3.15,6.53-6.12,6.53-3.33,0-5.89-2.44-5.89-6.32,0-4.12,2.69-6.53,6.09-6.53S1153.33,389.1,1153.33,392.86Zm-9.75.13c0,2.69,1.54,4.72,3.73,4.72s3.73-2,3.73-4.77c0-2.08-1-4.72-3.68-4.72S1143.58,390.65,1143.58,393Z"/><path class="cls-5" d="M1156.14,390.15c0-1.27,0-2.32-.1-3.33h2l.13,2h0a4.51,4.51,0,0,1,4.06-2.31c1.7,0,4.34,1,4.34,5.23v7.34h-2.23V392c0-2-.74-3.63-2.84-3.63a3.17,3.17,0,0,0-3,2.29,3.26,3.26,0,0,0-.15,1v7.39h-2.24Z"/><path class="cls-5" d="M1062.89,416c0-1.45,0-2.69-.1-3.83h2l.07,2.41h.1a3.69,3.69,0,0,1,3.41-2.69,2.43,2.43,0,0,1,.63.07v2.11a3.45,3.45,0,0,0-.76-.07,3.13,3.13,0,0,0-3,2.87,6.33,6.33,0,0,0-.1,1v6.55h-2.21Z"/><path class="cls-5" d="M1073.78,408.75a1.32,1.32,0,0,1-1.42,1.38,1.33,1.33,0,0,1-1.34-1.38,1.36,1.36,0,0,1,1.39-1.39A1.32,1.32,0,0,1,1073.78,408.75Zm-2.48,15.75V412.21h2.23V424.5Z"/><path class="cls-5" d="M1076.93,422.21a5.88,5.88,0,0,0,3,.89c1.62,0,2.38-.81,2.38-1.83s-.63-1.65-2.28-2.26c-2.21-.78-3.25-2-3.25-3.48,0-2,1.6-3.6,4.24-3.6a6.08,6.08,0,0,1,3,.76l-.56,1.63a4.71,4.71,0,0,0-2.51-.72c-1.32,0-2.06.77-2.06,1.68s.74,1.47,2.34,2.08c2.13.81,3.22,1.88,3.22,3.71,0,2.16-1.67,3.68-4.59,3.68a7,7,0,0,1-3.46-.84Z"/><path class="cls-5" d="M1089.5,417.84h0c.3-.43.74-1,1.09-1.39l3.61-4.24h2.69l-4.75,5.05,5.41,7.24h-2.72l-4.24-5.89-1.14,1.27v4.62h-2.21v-18h2.21Z"/><path class="cls-5" d="M1066.22,526.64H1061v-1.88h12.67v1.88h-5.23v15.24h-2.23Z"/><path class="cls-5" d="M1074.37,533.42c0-1.44,0-2.69-.1-3.83h2l.08,2.41h.1a3.68,3.68,0,0,1,3.4-2.69,2.12,2.12,0,0,1,.64.08v2.1a3.49,3.49,0,0,0-.77-.07,3.13,3.13,0,0,0-3,2.87,6.33,6.33,0,0,0-.1,1v6.55h-2.21Z"/><path class="cls-5" d="M1089.35,541.88l-.18-1.55h-.08a4.57,4.57,0,0,1-3.75,1.83,3.5,3.5,0,0,1-3.76-3.53c0-3,2.64-4.6,7.39-4.57v-.26a2.54,2.54,0,0,0-2.8-2.84,6.17,6.17,0,0,0-3.19.91l-.51-1.47a7.61,7.61,0,0,1,4-1.09c3.76,0,4.68,2.56,4.68,5v4.59a17.62,17.62,0,0,0,.2,3Zm-.33-6.27c-2.44-.05-5.21.38-5.21,2.76a2,2,0,0,0,2.11,2.14,3.05,3.05,0,0,0,3-2.06,2.22,2.22,0,0,0,.13-.71Z"/><path class="cls-5" d="M1094.78,532.92c0-1.27,0-2.32-.1-3.33h2l.13,2h0a4.51,4.51,0,0,1,4.06-2.31c1.7,0,4.34,1,4.34,5.23v7.34H1103v-7.09c0-2-.74-3.63-2.85-3.63a3.17,3.17,0,0,0-3,2.29,3.25,3.25,0,0,0-.16,1v7.39h-2.23Z"/><path class="cls-5" d="M1108.57,539.59a5.84,5.84,0,0,0,2.94.89c1.63,0,2.39-.81,2.39-1.83s-.64-1.65-2.29-2.26c-2.21-.78-3.25-2-3.25-3.47,0-2,1.6-3.61,4.24-3.61a6.16,6.16,0,0,1,3,.76l-.55,1.63a4.76,4.76,0,0,0-2.52-.71c-1.32,0-2,.76-2,1.67s.73,1.47,2.33,2.08c2.13.82,3.23,1.88,3.23,3.71,0,2.16-1.68,3.68-4.6,3.68a7,7,0,0,1-3.45-.84Z"/><path class="cls-5" d="M1119.15,541.88V531.29h-1.72v-1.7h1.72V529a5.8,5.8,0,0,1,1.42-4.29,4.3,4.3,0,0,1,3-1.14,5.18,5.18,0,0,1,1.91.36l-.31,1.72a3.38,3.38,0,0,0-1.42-.28c-1.91,0-2.39,1.68-2.39,3.56v.66h3v1.7h-3v10.59Z"/><path class="cls-5" d="M1137.13,535.63c0,4.55-3.15,6.53-6.12,6.53-3.33,0-5.89-2.44-5.89-6.33,0-4.11,2.69-6.52,6.09-6.52S1137.13,531.87,1137.13,535.63Zm-9.75.13c0,2.69,1.55,4.72,3.73,4.72s3.73-2,3.73-4.77c0-2.08-1-4.72-3.68-4.72S1127.38,533.42,1127.38,535.76Z"/><path class="cls-5" d="M1140,533.42c0-1.44,0-2.69-.11-3.83h2l.08,2.41h.1a3.68,3.68,0,0,1,3.4-2.69,2,2,0,0,1,.63.08v2.1a3.33,3.33,0,0,0-.76-.07,3.13,3.13,0,0,0-3,2.87,6.33,6.33,0,0,0-.1,1v6.55H1140Z"/><path class="cls-5" d="M1148.35,532.92c0-1.27,0-2.32-.1-3.33h2l.1,2h.08a4.24,4.24,0,0,1,3.86-2.26,3.63,3.63,0,0,1,3.48,2.46h0a5.08,5.08,0,0,1,1.37-1.6,4.2,4.2,0,0,1,2.72-.86c1.62,0,4,1.07,4,5.33v7.24h-2.18v-7c0-2.36-.86-3.78-2.66-3.78a2.91,2.91,0,0,0-2.65,2,3.72,3.72,0,0,0-.17,1.12v7.59H1156v-7.37c0-2-.86-3.37-2.56-3.37a3,3,0,0,0-2.77,2.23,3,3,0,0,0-.18,1.09v7.42h-2.18Z"/><path class="cls-5" d="M1176.33,541.88l-.18-1.55h-.08a4.57,4.57,0,0,1-3.75,1.83,3.5,3.5,0,0,1-3.76-3.53c0-3,2.64-4.6,7.39-4.57v-.26a2.54,2.54,0,0,0-2.8-2.84,6.17,6.17,0,0,0-3.19.91l-.51-1.47a7.61,7.61,0,0,1,4-1.09c3.76,0,4.68,2.56,4.68,5v4.59a17.62,17.62,0,0,0,.2,3Zm-.33-6.27c-2.44-.05-5.21.38-5.21,2.76a2,2,0,0,0,2.11,2.14,3.05,3.05,0,0,0,3-2.06,2.22,2.22,0,0,0,.13-.71Z"/><path class="cls-5" d="M1184.35,526.06v3.53h3.2v1.7h-3.2v6.63c0,1.52.43,2.38,1.68,2.38a4.81,4.81,0,0,0,1.29-.15l.1,1.68a5.62,5.62,0,0,1-2,.3,3.09,3.09,0,0,1-2.41-.94,4.57,4.57,0,0,1-.86-3.2v-6.7h-1.91v-1.7h1.91v-3Z"/><path class="cls-5" d="M1192.55,526.14a1.31,1.31,0,0,1-1.42,1.37,1.33,1.33,0,0,1-1.35-1.37,1.37,1.37,0,0,1,1.4-1.4A1.33,1.33,0,0,1,1192.55,526.14Zm-2.49,15.74V529.59h2.24v12.29Z"/><path class="cls-5" d="M1207.12,535.63c0,4.55-3.14,6.53-6.11,6.53-3.33,0-5.9-2.44-5.9-6.33,0-4.11,2.7-6.52,6.1-6.52S1207.12,531.87,1207.12,535.63Zm-9.75.13c0,2.69,1.55,4.72,3.74,4.72s3.73-2,3.73-4.77c0-2.08-1-4.72-3.68-4.72S1197.37,533.42,1197.37,535.76Z"/><path class="cls-5" d="M1209.94,532.92c0-1.27,0-2.32-.1-3.33h2l.13,2h0a4.51,4.51,0,0,1,4.06-2.31c1.7,0,4.34,1,4.34,5.23v7.34h-2.23v-7.09c0-2-.74-3.63-2.85-3.63a3.17,3.17,0,0,0-3,2.29,3.26,3.26,0,0,0-.15,1v7.39h-2.24Z"/><path class="cls-5" d="M1062.89,558.81c0-1.45,0-2.69-.1-3.83h2l.07,2.41h.1a3.69,3.69,0,0,1,3.41-2.69,2.43,2.43,0,0,1,.63.07v2.11a3.45,3.45,0,0,0-.76-.07,3.13,3.13,0,0,0-3,2.86,6.46,6.46,0,0,0-.1,1.05v6.55h-2.21Z"/><path class="cls-5" d="M1073.78,551.52a1.32,1.32,0,0,1-1.42,1.38,1.33,1.33,0,0,1-1.34-1.38,1.36,1.36,0,0,1,1.39-1.39A1.32,1.32,0,0,1,1073.78,551.52Zm-2.48,15.75V555h2.23v12.29Z"/><path class="cls-5" d="M1076.93,565a5.88,5.88,0,0,0,3,.89c1.62,0,2.38-.81,2.38-1.83s-.63-1.65-2.28-2.26c-2.21-.78-3.25-2-3.25-3.48,0-2,1.6-3.6,4.24-3.6a6.08,6.08,0,0,1,3,.76l-.56,1.62a4.81,4.81,0,0,0-2.51-.71c-1.32,0-2.06.77-2.06,1.68s.74,1.47,2.34,2.08c2.13.81,3.22,1.88,3.22,3.71,0,2.16-1.67,3.68-4.59,3.68a7,7,0,0,1-3.46-.84Z"/><path class="cls-5" d="M1089.5,560.61h0c.3-.43.74-1,1.09-1.39l3.61-4.24h2.69l-4.75,5,5.41,7.24h-2.72l-4.24-5.89-1.14,1.27v4.62h-2.21v-18h2.21Z"/><circle class="cls-6" cx="60.54" cy="515.95" r="4.5"/><circle class="cls-6" cx="120.17" cy="575.88" r="4.5"/><polyline class="cls-6" points="101.14 575.92 60.54 575.92 60.54 546.07 120.28 546.07 120.28 515.96 65.51 515.96"/><polygon class="cls-5" points="99.39 569.94 109.75 575.92 99.39 581.91 99.39 569.94"/><polyline class="cls-6" points="122.01 278.5 122.01 234.15 73.57 234.15"/><polygon class="cls-5" points="128 276.75 122.01 287.12 116.03 276.75 128 276.75"/><polyline class="cls-6" points="61.87 239.06 61.87 308.98 107.01 308.98 122.01 293.34"/><line class="cls-6" x1="73.57" y1="243.31" x2="109.89" y2="243.57"/><line class="cls-6" x1="74.22" y1="298.13" x2="90.79" y2="298.13"/><line class="cls-6" x1="73.96" y1="288.27" x2="109.67" y2="288.27"/><circle class="cls-6" cx="61.72" cy="234.96" r="4.5"/><circle class="cls-6" cx="91.78" cy="267.07" r="14.02"/><polyline class="cls-6" points="93.08 253.11 91.78 267.07 104.62 261.44"/><polyline class="cls-6" points="104 273.95 91.27 268.36 82.78 277.82"/><circle class="cls-7" cx="109.89" cy="71.7" r="7.79"/><path class="cls-7" d="M119.07,98.67h3.1a3.1,3.1,0,0,0,3.1-3.1V89.78A6.81,6.81,0,0,0,118.46,83h-18.1a6.81,6.81,0,0,0-6.81,6.81v5.79a3.1,3.1,0,0,0,3.1,3.1h3.1"/><line class="cls-7" x1="99.75" y1="102.87" x2="99.75" y2="91.97"/><line class="cls-7" x1="119.07" y1="101.72" x2="119.07" y2="91.97"/><circle class="cls-7" cx="72.44" cy="98.24" r="7.79"/><path class="cls-7" d="M81.62,130.77v-4.55h3.1a3.1,3.1,0,0,0,3.1-3.1v-6.8A6.81,6.81,0,0,0,81,109.51H62.91a6.81,6.81,0,0,0-6.81,6.81v6.8a3.1,3.1,0,0,0,3.1,3.1h3.09v4.55Z"/><line class="cls-7" x1="62.29" y1="126.22" x2="62.29" y2="118.52"/><line class="cls-7" x1="81.62" y1="125.06" x2="81.62" y2="118.52"/><polyline class="cls-7" points="80.73 102.87 127.41 102.87 115.61 115.77 88.98 115.72"/><polyline class="cls-7" points="82.67 76.48 77.63 72.22 62.01 72.22 62.01 57.17 90.41 57.17 90.41 72.22"/><polygon class="cls-5" points="85.2 70.79 89.25 82.05 77.47 79.92 85.2 70.79"/><path class="cls-7" d="M99.09,436.83h21.19V374.25a4.93,4.93,0,0,0-4.93-4.92H69.75a6.19,6.19,0,0,1,5.53,6.5v25.9"/><polygon class="cls-5" points="100.84 442.81 90.48 436.83 100.84 430.84 100.84 442.81"/><path class="cls-7" d="M75.28,369.33H66.71a6.43,6.43,0,0,0-6.43,6.43v16.72h15"/><path class="cls-7" d="M108.69,405.47l-7.7,7.7-6.76-6.75,7.7-7.7a11.88,11.88,0,0,0-15.56,14.93L64.49,435.4a5.24,5.24,0,0,0,0,7.4h0a5.24,5.24,0,0,0,7.4,0L93.76,421a11.88,11.88,0,0,0,14.93-15.57Z"/><line class="cls-7" x1="85.43" y1="378.14" x2="110.6" y2="378.14"/><line class="cls-7" x1="85.43" y1="388.02" x2="110.6" y2="388.02"/><circle class="cls-7" cx="75.28" cy="407.21" r="4.5"/><line class="cls-7" x1="542.35" y1="120.98" x2="542.35" y2="136.14"/><line class="cls-7" x1="529.22" y1="136.14" x2="555.49" y2="136.14"/><line class="cls-7" x1="507.4" y1="109.48" x2="577.76" y2="109.48"/><polyline class="cls-7" points="512.35 66.94 506.94 66.94 506.94 120.98 577.76 120.98 577.76 66.94 572.35 66.94"/><line class="cls-7" x1="542.35" y1="96.39" x2="542.35" y2="60.4"/><polygon class="cls-5" points="548.34 62.15 542.35 51.79 536.37 62.15 548.34 62.15"/><polyline class="cls-7" points="549.02 88.89 549.02 67.29 556.51 67.29"/><polyline class="cls-7" points="535.51 88.89 535.51 67.29 528.02 67.29"/><circle class="cls-7" cx="562.22" cy="67.29" r="4.5"/><circle class="cls-7" cx="522.81" cy="67.29" r="4.5"/><line class="cls-6" x1="554.15" y1="575.92" x2="559.31" y2="570.75"/><line class="cls-6" x1="516.12" y1="537.88" x2="521.28" y2="532.72"/><line class="cls-6" x1="508.81" y1="530.57" x2="513.97" y2="525.41"/><line class="cls-6" x1="546.89" y1="568.66" x2="552.05" y2="563.5"/><polygon class="cls-6" points="551.47 520.15 569.77 513.96 564.14 532.81 551.47 520.15"/><polyline class="cls-6" points="517.69 574.97 506.69 563.97 548.25 521.87"/><line class="cls-6" x1="562.46" y1="536.08" x2="523.85" y2="575.23"/><polyline class="cls-6" points="535.07 528.41 516.87 510.21 502.66 524.43 520.86 542.62"/><polyline class="cls-8" points="541.91 563.67 559.86 581.62 566.96 574.52 574.07 567.41 562.21 555.55"/><polygon class="cls-5" points="567.68 552.56 556.12 549.46 559.22 561.02 567.68 552.56"/><circle class="cls-6" cx="520.89" cy="576.63" r="4.5"/><rect class="cls-7" x="500.35" y="369.85" width="67.5" height="20.03"/><polyline class="cls-6" points="532 409.9 500.35 409.9 500.35 389.88 569.33 389.88"/><polyline class="cls-6" points="532 409.76 500.35 409.76 500.35 429.79 531.2 429.79 531.2 443.8 522.12 443.8"/><polygon class="cls-5" points="523.87 437.82 513.51 443.8 523.87 449.79 523.87 437.82"/><circle class="cls-7" cx="511.24" cy="379.86" r="4.5"/><circle class="cls-7" cx="511.24" cy="399.89" r="4.5"/><circle class="cls-7" cx="511.24" cy="419.77" r="4.5"/><rect class="cls-7" x="537.85" y="400.5" width="37.5" height="43.3"/><line class="cls-7" x1="547.11" y1="409.01" x2="547.11" y2="434.54"/><line class="cls-7" x1="556.6" y1="409.01" x2="556.6" y2="434.54"/><line class="cls-7" x1="566.23" y1="409.01" x2="566.23" y2="434.54"/><line class="cls-6" x1="522.86" y1="379.86" x2="559.33" y2="379.86"/><line class="cls-6" x1="522.86" y1="400.5" x2="532" y2="400.5"/><line class="cls-6" x1="522.86" y1="419.52" x2="532" y2="419.52"/><line class="cls-6" x1="543.93" y1="415.65" x2="550.41" y2="415.65"/><line class="cls-6" x1="553.36" y1="425" x2="559.83" y2="425"/><line class="cls-6" x1="563" y1="418.19" x2="569.47" y2="418.19"/><line class="cls-6" x1="978.77" y1="254.35" x2="978.77" y2="270.34"/><circle class="cls-6" cx="978.77" cy="278.51" r="4.5"/><path class="cls-6" d="M974.75,251.2l-17.44,30.21a4.64,4.64,0,0,0,4,7h34.89a4.64,4.64,0,0,0,4-7L982.79,251.2A4.64,4.64,0,0,0,974.75,251.2Z"/><line class="cls-6" x1="978.77" y1="240.24" x2="978.77" y2="230.22"/><line class="cls-6" x1="964.05" y1="240.24" x2="964.05" y2="230.22"/><line class="cls-6" x1="978.77" y1="309.22" x2="978.77" y2="299.2"/><line class="cls-6" x1="964.05" y1="309.22" x2="964.05" y2="299.2"/><line class="cls-6" x1="993.5" y1="309.22" x2="993.5" y2="299.2"/><line class="cls-6" x1="949.32" y1="269.72" x2="939.31" y2="269.72"/><line class="cls-6" x1="949.32" y1="284.44" x2="939.31" y2="284.44"/><line class="cls-6" x1="949.32" y1="255" x2="939.31" y2="255"/><line class="cls-6" x1="1018.27" y1="269.72" x2="1008.26" y2="269.72"/><line class="cls-6" x1="1018.27" y1="284.44" x2="1008.26" y2="284.44"/><line class="cls-6" x1="1018.27" y1="255" x2="1008.26" y2="255"/><polyline class="cls-6" points="1008.26 248.29 1008.26 299.2 949.32 299.2 949.32 239.72 989.78 239.72"/><polygon class="cls-5" points="1002.27 250.04 1008.26 239.68 1014.24 250.04 1002.27 250.04"/><circle class="cls-6" cx="993.78" cy="239.72" r="4.5"/><line class="cls-6" x1="978.7" y1="556.33" x2="978.7" y2="572.33"/><circle class="cls-6" cx="978.7" cy="579.89" r="4"/><path class="cls-6" d="M974.68,552.34l-17.44,30.22a4.64,4.64,0,0,0,4,7h34.89a4.64,4.64,0,0,0,4-7l-17.45-30.22A4.65,4.65,0,0,0,974.68,552.34Z"/><line class="cls-6" x1="1005.64" y1="506.82" x2="952.36" y2="506.82"/><line class="cls-6" x1="1008.79" y1="563.32" x2="1008.79" y2="510.33"/><line class="cls-6" x1="948.79" y1="510.25" x2="948.79" y2="563.22"/><line class="cls-6" x1="978.79" y1="522.93" x2="978.79" y2="536.31"/><polygon class="cls-5" points="972.81 524.68 978.79 514.32 984.77 524.68 972.81 524.68"/><line class="cls-6" x1="964.9" y1="536.82" x2="992.68" y2="536.82"/><polygon class="cls-5" points="966.65 542.8 956.29 536.82 966.65 530.84 966.65 542.8"/><polygon class="cls-5" points="990.93 542.8 1001.29 536.82 990.93 530.84 990.93 542.8"/><circle class="cls-6" cx="948.79" cy="506.82" r="4.5"/><circle class="cls-6" cx="1008.79" cy="506.82" r="4.5"/><circle class="cls-6" cx="948.79" cy="566.82" r="4.5"/><circle class="cls-6" cx="1008.79" cy="566.82" r="4.5"/><line class="cls-6" x1="952.79" y1="566.42" x2="957.75" y2="566.42"/><line class="cls-6" x1="1004.79" y1="566.42" x2="999.37" y2="566.42"/><rect class="cls-6" x="501.5" y="243.45" width="44.71" height="10.94"/><rect class="cls-6" x="519.51" y="262.13" width="21.3" height="10.94"/><rect class="cls-6" x="514.95" y="280.81" width="34.28" height="10.94"/><line class="cls-6" x1="556.48" y1="229.55" x2="556.48" y2="301.24"/><line class="cls-6" x1="571.5" y1="278.58" x2="571.5" y2="255.47"/><line class="cls-6" x1="571.5" y1="301.28" x2="571.5" y2="291.05"/><polygon class="cls-5" points="577.49 299.53 571.5 309.89 565.52 299.53 577.49 299.53"/><polyline class="cls-6" points="506.37 260.1 506.37 304.69 551.63 304.69"/><path class="cls-9" d="M554.37,308.55a4.5,4.5,0,1,1,6.8-3.87h0A4.5,4.5,0,0,1,554.37,308.55Z"/><polyline class="cls-6" points="571.5 243 571.5 229.55 506.37 229.55 506.37 238.3"/><polyline class="cls-6" points="566.68 246.23 570.92 250.47 577.56 243.84"/><polyline class="cls-6" points="566.68 282.19 570.92 286.44 577.56 279.8"/><polyline class="cls-6" points="980.28 115.94 941.28 115.94 941.28 59.41 995.2 59.41"/><line class="cls-6" x1="1013.28" y1="68.03" x2="1013.28" y2="115.94"/><polygon class="cls-5" points="1007.29 69.78 1013.28 59.41 1019.26 69.78 1007.29 69.78"/><circle class="cls-6" cx="999.48" cy="59.41" r="4.5"/><line class="cls-6" x1="967.68" y1="59.41" x2="967.68" y2="115.94"/><rect class="cls-6" x="947.5" y="65.63" width="13.17" height="15.74"/><line class="cls-6" x1="947.5" y1="90.46" x2="956.28" y2="90.46"/><line class="cls-6" x1="947.5" y1="98.84" x2="961.68" y2="98.84"/><rect class="cls-6" x="978.78" y="80.84" width="24" height="17.03"/><line class="cls-6" x1="977.28" y1="73.34" x2="1003.98" y2="73.34"/><line class="cls-6" x1="977.28" y1="105.51" x2="985.98" y2="105.51"/><path class="cls-6" d="M994.25,107.72l-14.44,25a2.6,2.6,0,0,0,2.25,3.9H1011a2.6,2.6,0,0,0,2.24-3.9l-14.44-25A2.6,2.6,0,0,0,994.25,107.72Z"/><line class="cls-6" x1="996.5" y1="115.04" x2="996.5" y2="126.49"/><line class="cls-6" x1="996.5" y1="129.14" x2="996.5" y2="131.99"/><line class="cls-6" x1="978.7" y1="427.9" x2="978.7" y2="443.62"/><line class="cls-6" x1="965.08" y1="443.62" x2="992.32" y2="443.62"/><polyline class="cls-6" points="982.32 427.9 941.98 427.9 941.98 371.65 994.7 371.65"/><line class="cls-6" x1="1015.43" y1="379.68" x2="1015.43" y2="418.7"/><polygon class="cls-5" points="1009.44 381.43 1015.43 371.07 1021.41 381.43 1009.44 381.43"/><line class="cls-6" x1="942.46" y1="415.97" x2="988.33" y2="415.97"/><circle class="cls-6" cx="957.98" cy="392.46" r="4.71"/><path class="cls-6" d="M965.72,406.41v-3.12A4.33,4.33,0,0,0,961.4,399h-6.84a4.33,4.33,0,0,0-4.32,4.33v3.12Z"/><line class="cls-6" x1="975.92" y1="395.49" x2="1001.58" y2="395.49"/><line class="cls-6" x1="975.92" y1="386.25" x2="1001.58" y2="386.25"/><line class="cls-6" x1="965.72" y1="406.4" x2="993.22" y2="406.4"/><path class="cls-6" d="M998.39,413.06,987.75,431.5A3.7,3.7,0,0,0,991,437h21.29a3.69,3.69,0,0,0,3.2-5.54l-10.64-18.44A3.71,3.71,0,0,0,998.39,413.06Z"/><line class="cls-6" x1="1001.6" y1="418.91" x2="1001.6" y2="426.66"/><line class="cls-7" x1="1001.59" y1="431.16" x2="1001.59" y2="431.36"/><circle class="cls-6" cx="999.48" cy="371.65" r="4.5"/></g></svg>