<svg id="Layer_3" data-name="Layer 3" xmlns="http://www.w3.org/2000/svg" width="100" height="116" viewBox="0 0 100 116"><defs><style>.cls-1{fill:none;stroke:#000;stroke-linecap:square;stroke-miterlimit:10;stroke-width:3px;}</style></defs><title>Consumer sentiments</title><g id="_Group_" data-name="&lt;Group&gt;"><g id="_Group_2" data-name="&lt;Group&gt;"><g id="_Group_3" data-name="&lt;Group&gt;"><g id="_Group_4" data-name="&lt;Group&gt;"><g id="_Group_5" data-name="&lt;Group&gt;"><g id="_Group_6" data-name="&lt;Group&gt;"><g id="_Group_7" data-name="&lt;Group&gt;"><g id="_Group_8" data-name="&lt;Group&gt;"><g id="_Group_9" data-name="&lt;Group&gt;"><g id="_Group_10" data-name="&lt;Group&gt;"><circle id="_Ellipse_" data-name="&lt;Ellipse&gt;" class="cls-1" cx="51.4" cy="39.94" r="12.96"/><path id="_Path_" data-name="&lt;Path&gt;" class="cls-1" d="M35.87,84.1H27.11V70.3A11.94,11.94,0,0,1,39.05,58.37H62.32A11.93,11.93,0,0,1,74.25,70.3V84.1H66"/></g></g></g></g></g></g></g><polyline id="_Path_2" data-name="&lt;Path&gt;" class="cls-1" points="35.87 71.69 35.87 91.03 65.42 91.03 65.42 71.69"/><g id="_Group_11" data-name="&lt;Group&gt;"><g id="_Group_12" data-name="&lt;Group&gt;"><polyline id="_Path_3" data-name="&lt;Path&gt;" class="cls-1" points="12.33 75.66 12.33 16.03 75.39 16.03"/><g id="_Group_13" data-name="&lt;Group&gt;"><polygon id="_Path_4" data-name="&lt;Path&gt;" points="73.64 22.01 84 16.03 73.64 10.04 73.64 22.01"/></g></g></g><g id="_Group_14" data-name="&lt;Group&gt;"><g id="_Group_15" data-name="&lt;Group&gt;"><polyline id="_Path_5" data-name="&lt;Path&gt;" class="cls-1" points="89.02 39.73 89.02 99.36 25.96 99.36"/><g id="_Group_16" data-name="&lt;Group&gt;"><polygon id="_Path_6" data-name="&lt;Path&gt;" points="27.71 93.38 17.35 99.36 27.71 105.34 27.71 93.38"/></g></g></g></g></g></g></svg>