<svg xmlns="http://www.w3.org/2000/svg" viewBox="0 0 971.61 1478.72"><defs><style>.cls-1{fill:#4c0519}.cls-2{fill:#fcddd6}.cls-3{fill:none;stroke:#fff;stroke-miterlimit:10;stroke-width:3px}.cls-4{fill:#fff}</style></defs><g id="Layer_3" data-name="Layer 3"><path class="cls-1" transform="rotate(45 411.758 67.626)" d="M347.43 3.29H476.1v128.67H347.43z"/><path class="cls-1" transform="rotate(45 511.8 167.665)" d="M447.47 103.33h128.67V232H447.47z"/><path class="cls-1" transform="rotate(45 411.755 270.525)" d="M347.43 206.19H476.1v128.67H347.43z"/><path class="cls-1" transform="rotate(45 511.803 370.576)" d="M447.47 306.24h128.67v128.67H447.47z"/><path class="cls-1" transform="rotate(45 411.757 473.435)" d="M347.43 409.1H476.1v128.67H347.43z"/><path class="cls-1" transform="rotate(45 511.811 573.47)" d="M447.47 509.14h128.67v128.67H447.47z"/><path class="cls-1" transform="rotate(45 411.765 676.329)" d="M347.43 612H476.1v128.67H347.43z"/><path class="cls-1" transform="rotate(45 511.813 776.38)" d="M447.47 712.05h128.67v128.67H447.47z"/><path class="cls-1" transform="rotate(45 411.767 879.24)" d="M347.43 814.9H476.1v128.67H347.43z"/><path class="cls-1" transform="rotate(45 511.81 979.278)" d="M447.47 914.95h128.67v128.67H447.47z"/><path class="cls-1" transform="rotate(45 411.764 1082.138)" d="M347.43 1017.81H476.1v128.67H347.43z"/><path class="cls-1" transform="rotate(45 511.811 1182.19)" d="M447.47 1117.86h128.67v128.67H447.47z"/><path class="cls-1" transform="rotate(45 411.765 1285.049)" d="M347.43 1220.71H476.1v128.67H347.43z"/><path class="cls-1" transform="rotate(45 511.808 1385.088)" d="M447.47 1320.76h128.67v128.67H447.47z"/><path class="cls-2" d="M969.5 230.08V105.25H550.93l62.41 62.42-62.41 62.41H969.5zM969.5 432.99V308.15H550.93l62.41 62.42-62.41 62.42H969.5zM969.5 635.89V511.06H550.93l62.41 62.42-62.41 62.41H969.5zM969.5 838.8V713.96H550.93v.01l62.41 62.41-62.41 62.42H969.5zM969.5 1041.7V916.87H550.93l62.41 62.42-62.41 62.41H969.5zM969.5 1244.61v-124.84H550.93v.01l62.41 62.41-62.41 62.42H969.5zM969.5 1447.51v-124.83H550.93l62.41 62.42-62.41 62.41H969.5zM-.6 130.04V5.2h373.21v.01L310.2 67.62l62.41 62.42H-.6zM-.6 332.94V208.11h373.21l-62.41 62.42 62.41 62.41H-.6zM-.6 535.85V411.01h373.21l-62.41 62.42 62.41 62.42H-.6zM-.6 738.75V613.92h373.21l-62.41 62.42 62.41 62.41H-.6zM-.6 941.66V816.82h373.21v.01l-62.41 62.41 62.41 62.42H-.6zM-.6 1144.56v-124.83h373.21l-62.41 62.42 62.41 62.41H-.6zM-.6 1347.47v-124.84h373.21l-62.41 62.42 62.41 62.42H-.6z"/></g><g id="Layer_1" data-name="Layer 1"><path class="cls-1" d="M51 1249v24.82h-3.2V1249zM56.82 1260.77c0-1.84 0-3.35-.15-4.82h2.87l.19 2.94h.07a6.56 6.56 0 0 1 5.89-3.35c2.47 0 6.3 1.47 6.3 7.59v10.64h-3.24v-10.28c0-2.87-1.07-5.26-4.13-5.26a4.74 4.74 0 0 0-4.56 4.82v10.72h-3.24zM92.64 1247.63v21.53c0 1.59 0 3.39.15 4.61h-2.91l-.15-3.1h-.07a6.6 6.6 0 0 1-6.08 3.5c-4.31 0-7.62-3.64-7.62-9.06 0-5.92 3.65-9.57 8-9.57a6 6 0 0 1 5.38 2.73h.07v-10.64zm-3.24 15.57a5.67 5.67 0 0 0-.15-1.36 4.77 4.77 0 0 0-4.67-3.76c-3.35 0-5.34 3-5.34 6.89 0 3.61 1.76 6.59 5.26 6.59a4.88 4.88 0 0 0 4.75-3.87 5.62 5.62 0 0 0 .15-1.4zM112.92 1268.91c0 1.84 0 3.46.15 4.86h-2.87l-.18-2.91h-.08a6.71 6.71 0 0 1-5.89 3.31c-2.8 0-6.15-1.54-6.15-7.8V1256h3.24v9.86c0 3.39 1 5.67 4 5.67a4.69 4.69 0 0 0 4.27-2.94 4.85 4.85 0 0 0 .29-1.66V1256h3.24zM117.86 1270.45a8.42 8.42 0 0 0 4.27 1.29c2.35 0 3.46-1.18 3.46-2.65s-.92-2.39-3.32-3.28c-3.2-1.14-4.71-2.9-4.71-5 0-2.87 2.32-5.23 6.15-5.23a8.88 8.88 0 0 1 4.38 1.11l-.81 2.35a7 7 0 0 0-3.64-1c-1.92 0-3 1.11-3 2.43s1.07 2.14 3.39 3c3.09 1.18 4.68 2.73 4.68 5.38 0 3.13-2.43 5.34-6.67 5.34a10.16 10.16 0 0 1-5-1.22zM136.78 1250.83v5.17h4.64v2.46h-4.64v9.54c0 2.21.62 3.46 2.43 3.46a7.27 7.27 0 0 0 1.88-.22l.14 2.43a7.83 7.83 0 0 1-2.87.45 4.49 4.49 0 0 1-3.5-1.37c-.92-1-1.25-2.54-1.25-4.64v-9.72h-2.76V1256h2.76v-4.27zM145.06 1261.51c0-2.1 0-3.91-.15-5.56h2.84l.11 3.49h.14a5.35 5.35 0 0 1 4.93-3.9 3.63 3.63 0 0 1 .92.11v3.06a4.49 4.49 0 0 0-1.1-.11c-2.29 0-3.91 1.73-4.35 4.16a9.52 9.52 0 0 0-.15 1.51v9.5h-3.2zM160.85 1250.94a2 2 0 0 1-4 0 2 2 0 0 1 2-2 1.92 1.92 0 0 1 2 2zm-3.6 22.83V1256h3.24v17.82zM175.73 1273.77l-.26-2.25h-.11a6.63 6.63 0 0 1-5.45 2.65 5.08 5.08 0 0 1-5.45-5.12c0-4.3 3.83-6.66 10.72-6.62v-.37c0-1.47-.41-4.13-4.05-4.13a8.87 8.87 0 0 0-4.64 1.33l-.74-2.14a11.12 11.12 0 0 1 5.85-1.58c5.45 0 6.78 3.72 6.78 7.29v6.67a25.29 25.29 0 0 0 .29 4.27zm-.48-9.1c-3.54-.07-7.55.55-7.55 4a2.87 2.87 0 0 0 3.06 3.09 4.44 4.44 0 0 0 4.31-3 3.38 3.38 0 0 0 .18-1zM183.61 1247.63h3.23v26.14h-3.23zM47.65 1305c0-1.84 0-3.35-.15-4.83h2.84l.15 2.88h.11a6.12 6.12 0 0 1 5.59-3.28 5.28 5.28 0 0 1 5.05 3.57h.07a7.29 7.29 0 0 1 2-2.32 6.07 6.07 0 0 1 3.94-1.25c2.36 0 5.85 1.54 5.85 7.73v10.49h-3.17v-10.08c0-3.43-1.26-5.49-3.87-5.49a4.19 4.19 0 0 0-3.83 3 5.24 5.24 0 0 0-.26 1.62v11h-3.16v-10.67c0-2.84-1.25-4.9-3.72-4.9a4.41 4.41 0 0 0-4 3.24 4.33 4.33 0 0 0-.26 1.58v10.75h-3.18zM88.22 1317.94l-.22-2.24h-.11a6.63 6.63 0 0 1-5.45 2.65 5.07 5.07 0 0 1-5.44-5.12c0-4.31 3.82-6.66 10.71-6.63v-.36c0-1.48-.41-4.13-4-4.13a8.87 8.87 0 0 0-4.64 1.33l-.74-2.14a11.06 11.06 0 0 1 5.86-1.58c5.45 0 6.77 3.72 6.77 7.29v6.66a25.07 25.07 0 0 0 .3 4.27zm-.48-9.09c-3.53-.07-7.54.55-7.54 4a2.87 2.87 0 0 0 3 3.1 4.45 4.45 0 0 0 4.31-3 3.38 3.38 0 0 0 .18-1zM96.1 1305c0-1.84 0-3.35-.15-4.83h2.87l.19 3h.07a6.56 6.56 0 0 1 5.89-3.35c2.47 0 6.3 1.47 6.3 7.58v10.64H108v-10.27c0-2.87-1.07-5.26-4.13-5.26a4.74 4.74 0 0 0-4.56 4.82v10.71H96.1zM131.44 1313.08c0 1.85 0 3.47.15 4.86h-2.87l-.19-2.9h-.07a6.71 6.71 0 0 1-5.89 3.31c-2.8 0-6.15-1.55-6.15-7.81v-10.42h3.24v9.88c0 3.39 1 5.67 4 5.67a4.69 4.69 0 0 0 4.27-2.94 4.85 4.85 0 0 0 .29-1.66v-10.94h3.24zM137.15 1317.94v-15.35h-2.51v-2.47h2.51v-.84c0-2.51.55-4.79 2.06-6.23a6.21 6.21 0 0 1 4.34-1.65 7.66 7.66 0 0 1 2.76.51l-.44 2.51a4.84 4.84 0 0 0-2.06-.41c-2.76 0-3.46 2.43-3.46 5.16v.95h4.31v2.47h-4.31v15.35zM157.43 1317.94l-.26-2.24h-.11a6.62 6.62 0 0 1-5.45 2.65 5.07 5.07 0 0 1-5.44-5.12c0-4.31 3.82-6.66 10.71-6.63v-.36c0-1.48-.41-4.13-4-4.13a8.87 8.87 0 0 0-4.64 1.33l-.74-2.14a11.06 11.06 0 0 1 5.86-1.58c5.45 0 6.77 3.72 6.77 7.29v6.66a25.07 25.07 0 0 0 .3 4.27zm-.48-9.09c-3.53-.07-7.54.55-7.54 4a2.87 2.87 0 0 0 3.05 3.1 4.45 4.45 0 0 0 4.31-3 3.38 3.38 0 0 0 .18-1zM178 1317.28a12 12 0 0 1-5.12 1c-5.37 0-8.87-3.64-8.87-9.09s3.76-9.46 9.57-9.46a10.75 10.75 0 0 1 4.5.92l-.74 2.5a7.53 7.53 0 0 0-3.76-.85c-4.08 0-6.29 3-6.29 6.74 0 4.12 2.65 6.67 6.18 6.67a9.14 9.14 0 0 0 4-.89zM186.18 1295v5.11h4.64v2.47h-4.64v9.61c0 2.21.63 3.46 2.43 3.46a7.21 7.21 0 0 0 1.88-.22l.15 2.43a7.9 7.9 0 0 1-2.87.44 4.5 4.5 0 0 1-3.5-1.36c-.92-1-1.25-2.54-1.25-4.64v-9.72h-2.77v-2.47H183v-4.27zM209.38 1313.08c0 1.85 0 3.47.14 4.86h-2.87l-.18-2.9h-.08a6.7 6.7 0 0 1-5.89 3.31c-2.79 0-6.15-1.55-6.15-7.81v-10.42h3.24v9.88c0 3.39 1 5.67 4 5.67a4.69 4.69 0 0 0 4.27-2.94 4.63 4.63 0 0 0 .3-1.66v-10.94h3.24zM214.75 1305.68c0-2.1 0-3.9-.15-5.56h2.84l.11 3.5h.15a5.34 5.34 0 0 1 4.93-3.9 3.68 3.68 0 0 1 .92.11v3.06a4.46 4.46 0 0 0-1.1-.12c-2.29 0-3.91 1.74-4.35 4.17a9.39 9.39 0 0 0-.15 1.5v9.5h-3.2zM230.54 1295.12a2 2 0 0 1-4 0 2 2 0 0 1 2-2 1.92 1.92 0 0 1 2 2zm-3.6 22.82v-17.82h3.23v17.82zM235.55 1305c0-1.84 0-3.35-.15-4.83h2.87l.19 3h.07a6.57 6.57 0 0 1 5.89-3.35c2.47 0 6.3 1.47 6.3 7.58v10.64h-3.24v-10.27c0-2.87-1.07-5.26-4.12-5.26a4.74 4.74 0 0 0-4.57 4.82v10.71h-3.24zM271.34 1300.12c-.08 1.29-.15 2.73-.15 4.9v10.35c0 4.08-.81 6.59-2.54 8.13a9.46 9.46 0 0 1-6.48 2.14 11.55 11.55 0 0 1-5.93-1.47l.81-2.47a10 10 0 0 0 5.23 1.4c3.31 0 5.74-1.73 5.74-6.22v-2H268a6.36 6.36 0 0 1-5.67 3c-4.42 0-7.59-3.75-7.59-8.69 0-6 3.94-9.46 8-9.46a5.93 5.93 0 0 1 5.56 3.09h.07l.15-2.69zm-3.36 7a4.59 4.59 0 0 0-.18-1.48 4.67 4.67 0 0 0-4.53-3.42c-3.09 0-5.3 2.61-5.3 6.74 0 3.49 1.77 6.4 5.26 6.4a4.74 4.74 0 0 0 4.5-3.31 5.75 5.75 0 0 0 .25-1.73zM51.77 70.62l-2.57 7.81h-3.32l8.44-24.82h3.86l8.47 24.82h-3.42l-2.66-7.81zm8.14-2.5L57.48 61c-.55-1.62-.92-3.09-1.29-4.53h-.07c-.37 1.48-.77 3-1.25 4.5l-2.43 7.18zM84.65 73.57c0 1.84 0 3.46.15 4.86h-2.87l-.19-2.91h-.07a6.73 6.73 0 0 1-5.89 3.31c-2.8 0-6.15-1.55-6.15-7.81V60.6h3.24v9.87c0 3.39 1 5.67 4 5.67a4.69 4.69 0 0 0 4.27-2.94 4.85 4.85 0 0 0 .29-1.66V60.6h3.24zM93.93 55.49v5.11h4.64v2.47h-4.64v9.61c0 2.21.62 3.46 2.43 3.46a7.18 7.18 0 0 0 1.87-.22l.15 2.43a7.86 7.86 0 0 1-2.87.44A4.48 4.48 0 0 1 92 77.43c-.92-1-1.25-2.54-1.25-4.64v-9.72H88V60.6h2.76v-4.27zM118.12 69.37c0 6.59-4.57 9.46-8.88 9.46-4.82 0-8.54-3.53-8.54-9.17 0-6 3.9-9.46 8.84-9.46 5.11 0 8.58 3.72 8.58 9.17zm-14.12.18c0 3.9 2.24 6.85 5.41 6.85s5.41-2.91 5.41-6.92c0-3-1.51-6.85-5.34-6.85S104 66.16 104 69.55zM122.2 65.43c0-1.84 0-3.35-.15-4.83h2.84l.14 2.88h.12a6.12 6.12 0 0 1 5.59-3.28 5.28 5.28 0 0 1 5 3.57h.07a7.29 7.29 0 0 1 2-2.32 6.07 6.07 0 0 1 3.94-1.25c2.35 0 5.85 1.55 5.85 7.73v10.5h-3.16V68.34c0-3.43-1.26-5.49-3.87-5.49a4.19 4.19 0 0 0-3.83 2.95 5.24 5.24 0 0 0-.26 1.62v11h-3.16V67.75c0-2.84-1.26-4.9-3.72-4.9a4.44 4.44 0 0 0-4 3.24 4.55 4.55 0 0 0-.25 1.58v10.76h-3.15zM169 69.37c0 6.59-4.57 9.46-8.87 9.46-4.83 0-8.55-3.53-8.55-9.17 0-6 3.91-9.46 8.84-9.46 5.15 0 8.58 3.72 8.58 9.17zm-14.14.18c0 3.9 2.25 6.85 5.41 6.85s5.42-2.91 5.42-6.92c0-3-1.51-6.85-5.34-6.85s-5.46 3.53-5.46 6.92zM177 55.49v5.11h4.64v2.47H177v9.61c0 2.21.62 3.46 2.43 3.46a7.18 7.18 0 0 0 1.87-.22l.15 2.43a7.86 7.86 0 0 1-2.87.44 4.48 4.48 0 0 1-3.5-1.36c-.92-1-1.25-2.54-1.25-4.64v-9.72h-2.76V60.6h2.76v-4.27zM188.91 55.6a2 2 0 0 1-4 0 2 2 0 0 1 2-2 1.93 1.93 0 0 1 2 2zm-3.61 22.83V60.6h3.24v17.83zM195.17 60.6l3.49 10a45.61 45.61 0 0 1 1.44 4.57h.11c.4-1.48.92-3 1.51-4.57l3.46-10h3.39l-7 17.83h-3.09L191.7 60.6zM213.06 70.1c.07 4.39 2.87 6.19 6.11 6.19a11.61 11.61 0 0 0 4.93-.92l.55 2.32a14.51 14.51 0 0 1-5.92 1.1c-5.49 0-8.77-3.6-8.77-9s3.17-9.61 8.36-9.61c5.82 0 7.37 5.12 7.37 8.4a13.59 13.59 0 0 1-.11 1.5zm9.5-2.31c0-2.07-.85-5.27-4.5-5.27-3.27 0-4.71 3-5 5.27zM65.1 258.43a15.86 15.86 0 0 1-6.55 1.18c-7 0-12.26-4.42-12.26-12.56 0-7.76 5.26-13 13-13a13.37 13.37 0 0 1 5.89 1.1l-.77 2.62a11.69 11.69 0 0 0-5-1c-5.82 0-9.68 3.72-9.68 10.23 0 6.08 3.49 10 9.53 10a12.77 12.77 0 0 0 5.23-1zM84.72 250.18c0 6.59-4.56 9.47-8.87 9.47-4.82 0-8.54-3.54-8.54-9.17 0-6 3.9-9.46 8.84-9.46 5.11-.02 8.57 3.71 8.57 9.16zm-14.13.19c0 3.9 2.24 6.85 5.41 6.85s5.41-2.91 5.41-6.93c0-3-1.51-6.84-5.34-6.84s-5.48 3.55-5.48 6.92zM88.81 246.24c0-1.84 0-3.35-.15-4.82h2.87l.19 3h.07a6.54 6.54 0 0 1 5.89-3.42c2.47 0 6.3 1.47 6.3 7.58v10.64h-3.24V249c0-2.87-1.07-5.27-4.13-5.27a4.6 4.6 0 0 0-4.34 3.27 4.54 4.54 0 0 0-.22 1.51v10.71h-3.24zM108.8 255.93a8.56 8.56 0 0 0 4.27 1.29c2.36 0 3.46-1.18 3.46-2.65s-.92-2.4-3.31-3.28c-3.21-1.14-4.72-2.91-4.72-5 0-2.87 2.32-5.22 6.15-5.22a8.85 8.85 0 0 1 4.38 1.1l-.81 2.36a6.89 6.89 0 0 0-3.64-1c-1.91 0-3 1.1-3 2.43s1.07 2.13 3.38 3c3.1 1.17 4.68 2.72 4.68 5.37 0 3.13-2.43 5.34-6.66 5.34a10.1 10.1 0 0 1-5-1.22zM138.73 254.38c0 1.84 0 3.46.15 4.86H136l-.19-2.91h-.07a6.71 6.71 0 0 1-5.89 3.32c-2.8 0-6.15-1.55-6.15-7.81v-10.42h3.3v9.87c0 3.39 1 5.67 4 5.67a4.69 4.69 0 0 0 4.2-2.96 4.8 4.8 0 0 0 .29-1.65v-10.93h3.24zM144.1 246.24c0-1.84 0-3.35-.14-4.82h2.83l.15 2.87h.11a6.13 6.13 0 0 1 5.59-3.27 5.26 5.26 0 0 1 5.05 3.57h.07a7.31 7.31 0 0 1 2-2.32 6.09 6.09 0 0 1 3.94-1.25c2.36 0 5.85 1.54 5.85 7.73v10.49h-3.16v-10.09c0-3.42-1.25-5.48-3.87-5.48a4.2 4.2 0 0 0-3.83 2.94 5.57 5.57 0 0 0-.25 1.62v11h-3.17v-10.67c0-2.83-1.25-4.89-3.72-4.89a4.42 4.42 0 0 0-4 3.24 4.33 4.33 0 0 0-.26 1.58v10.75h-3.19zM176.61 250.92c.07 4.38 2.87 6.19 6.11 6.19a11.85 11.85 0 0 0 4.94-.92l.55 2.32a14.53 14.53 0 0 1-5.93 1.1c-5.49 0-8.76-3.61-8.76-9s3.16-9.61 8.36-9.61c5.81 0 7.36 5.11 7.36 8.39a11.66 11.66 0 0 1-.11 1.51zm9.5-2.32c0-2.06-.85-5.26-4.49-5.26-3.28 0-4.72 3-5 5.26zM193.25 247c0-2.1 0-3.9-.15-5.56h2.84l.11 3.5h.15a5.34 5.34 0 0 1 4.93-3.9 3.27 3.27 0 0 1 .92.11v3.05a5.08 5.08 0 0 0-1.11-.11c-2.28 0-3.9 1.73-4.34 4.16a9.52 9.52 0 0 0-.15 1.51v9.5h-3.2zM47.65 291.42c0-2.29-.07-4.13-.15-5.82h2.91l.15 3h.07a7 7 0 0 1 6.37-3.41c4.3 0 7.54 3.65 7.54 9.06 0 6.41-3.9 9.57-8.1 9.57a6.26 6.26 0 0 1-5.51-2.82h-.08v9.68h-3.2zm3.2 4.75a7.6 7.6 0 0 0 .15 1.32 5 5 0 0 0 4.86 3.79c3.43 0 5.41-2.79 5.41-6.88 0-3.57-1.87-6.63-5.3-6.63a5.15 5.15 0 0 0-4.89 4 5 5 0 0 0-.23 1.33zM78.47 303.42l-.26-2.25h-.11a6.65 6.65 0 0 1-5.45 2.65 5.07 5.07 0 0 1-5.45-5.11c0-4.31 3.83-6.67 10.71-6.63v-.37c0-1.47-.4-4.12-4-4.12a8.92 8.92 0 0 0-4.64 1.32l-.73-2.13a11 11 0 0 1 5.85-1.59c5.45 0 6.78 3.72 6.78 7.29v6.67a25.29 25.29 0 0 0 .29 4.27zm-.48-9.1c-3.54-.07-7.55.56-7.55 4a2.87 2.87 0 0 0 3.06 3.09 4.42 4.42 0 0 0 4.3-3 3.4 3.4 0 0 0 .19-1zM99 302.76a11.91 11.91 0 0 1-5.11 1c-5.38 0-8.88-3.65-8.88-9.1s3.76-9.46 9.58-9.46a10.89 10.89 0 0 1 4.49.92l-.74 2.5a7.53 7.53 0 0 0-3.75-.84c-4.09 0-6.3 3-6.3 6.74 0 4.12 2.65 6.66 6.19 6.66a9.25 9.25 0 0 0 4-.88zM106 293.77h.07c.44-.62 1.07-1.4 1.59-2l5.22-6.15h3.91l-6.89 7.33 7.84 10.49h-3.94l-6.14-8.54-1.66 1.82v6.7h-3.2v-26.14h3.2zM130.63 303.42l-.26-2.25h-.11a6.63 6.63 0 0 1-5.45 2.65 5.08 5.08 0 0 1-5.45-5.11c0-4.31 3.83-6.67 10.72-6.63v-.37c0-1.47-.41-4.12-4.05-4.12a8.86 8.86 0 0 0-4.64 1.32l-.74-2.13a11.07 11.07 0 0 1 5.86-1.59c5.45 0 6.77 3.72 6.77 7.29v6.67a25.22 25.22 0 0 0 .3 4.27zm-.48-9.1c-3.53-.07-7.55.56-7.55 4a2.87 2.87 0 0 0 3.06 3.09 4.44 4.44 0 0 0 4.31-3 3.38 3.38 0 0 0 .18-1zM153.86 285.6c-.07 1.29-.15 2.72-.15 4.89v10.35c0 4.09-.81 6.59-2.54 8.14a9.43 9.43 0 0 1-6.48 2.13 11.51 11.51 0 0 1-5.93-1.47l.82-2.47a10 10 0 0 0 5.22 1.4c3.32 0 5.75-1.73 5.75-6.22v-2h-.08a6.36 6.36 0 0 1-5.67 3c-4.42 0-7.58-3.76-7.58-8.69 0-6 3.94-9.47 8-9.47a5.9 5.9 0 0 1 5.55 3.1h.08l.15-2.69zm-3.35 7a4.82 4.82 0 0 0-.18-1.47 4.68 4.68 0 0 0-4.53-3.43c-3.1 0-5.3 2.62-5.3 6.74 0 3.5 1.76 6.41 5.26 6.41a4.73 4.73 0 0 0 4.49-3.32 5.42 5.42 0 0 0 .26-1.73zM160.89 295.1c.07 4.38 2.87 6.18 6.11 6.18a11.69 11.69 0 0 0 4.94-.92l.55 2.32a14.33 14.33 0 0 1-5.93 1.11c-5.49 0-8.76-3.61-8.76-9s3.16-9.61 8.36-9.61c5.81 0 7.36 5.12 7.36 8.4a11.66 11.66 0 0 1-.11 1.51zm9.5-2.32c0-2.06-.85-5.27-4.49-5.27-3.28 0-4.72 3-5 5.27zM192.92 277.28v21.54c0 1.58 0 3.38.15 4.6h-2.91l-.15-3.09h-.07a6.61 6.61 0 0 1-6.08 3.49c-4.31 0-7.62-3.64-7.62-9.05 0-5.93 3.65-9.58 8-9.58a6 6 0 0 1 5.38 2.73h.07v-10.64zm-3.24 15.57a5.73 5.73 0 0 0-.15-1.36 4.77 4.77 0 0 0-4.67-3.76c-3.35 0-5.34 2.95-5.34 6.89 0 3.61 1.77 6.59 5.26 6.59a4.87 4.87 0 0 0 4.75-3.87 5.62 5.62 0 0 0 .15-1.4zM221.45 285.6c-.07 1.29-.15 2.72-.15 4.89v10.35c0 4.09-.81 6.59-2.54 8.14a9.43 9.43 0 0 1-6.48 2.13 11.44 11.44 0 0 1-5.92-1.47l.81-2.47a10 10 0 0 0 5.22 1.4c3.32 0 5.75-1.73 5.75-6.22v-2h-.08a6.34 6.34 0 0 1-5.67 3c-4.41 0-7.58-3.76-7.58-8.69 0-6 3.94-9.47 8-9.47a5.93 5.93 0 0 1 5.56 3.1h.07l.15-2.69zm-3.35 7a4.82 4.82 0 0 0-.18-1.47 4.67 4.67 0 0 0-4.53-3.43c-3.1 0-5.3 2.62-5.3 6.74 0 3.5 1.76 6.41 5.26 6.41a4.73 4.73 0 0 0 4.49-3.32 5.42 5.42 0 0 0 .26-1.73zM242.8 294.36c0 6.59-4.56 9.46-8.87 9.46-4.82 0-8.54-3.53-8.54-9.16 0-6 3.9-9.47 8.83-9.47 5.12 0 8.58 3.72 8.58 9.17zm-14.13.19c0 3.9 2.24 6.84 5.41 6.84s5.41-2.9 5.41-6.92c0-3-1.51-6.85-5.34-6.85s-5.48 3.54-5.48 6.93zM263 294.36c0 6.59-4.56 9.46-8.87 9.46-4.82 0-8.54-3.53-8.54-9.16 0-6 3.9-9.47 8.84-9.47 5.12 0 8.57 3.72 8.57 9.17zm-14.13.19c0 3.9 2.24 6.84 5.41 6.84s5.41-2.9 5.41-6.92c0-3-1.51-6.85-5.34-6.85s-5.47 3.54-5.47 6.93zM282.49 277.28v21.54c0 1.58 0 3.38.15 4.6h-2.91l-.15-3.09h-.07a6.61 6.61 0 0 1-6.08 3.49c-4.31 0-7.62-3.64-7.62-9.05 0-5.93 3.65-9.58 8-9.58a6 6 0 0 1 5.38 2.73h.07v-10.64zm-3.24 15.57a5.73 5.73 0 0 0-.15-1.36 4.77 4.77 0 0 0-4.67-3.76c-3.35 0-5.34 2.95-5.34 6.89 0 3.61 1.76 6.59 5.26 6.59a4.88 4.88 0 0 0 4.75-3.87 5.62 5.62 0 0 0 .15-1.4zM287.42 300.1a8.46 8.46 0 0 0 4.27 1.29c2.36 0 3.46-1.17 3.46-2.65s-.92-2.39-3.31-3.27c-3.2-1.15-4.71-2.91-4.71-5.05 0-2.87 2.32-5.23 6.15-5.23a8.91 8.91 0 0 1 4.38 1.11l-.81 2.35a7 7 0 0 0-3.65-1c-1.91 0-3 1.11-3 2.43 0 1.48 1.07 2.14 3.39 3 3.09 1.18 4.67 2.73 4.67 5.38 0 3.13-2.43 5.34-6.66 5.34a10.13 10.13 0 0 1-5-1.22zM60.61 472.6H51v8.95h10.72v2.69h-14v-24.82h13.4v2.69H51V470h9.65zM65.76 471.24c0-1.84 0-3.35-.14-4.83h2.87l.18 2.95h.08a6.55 6.55 0 0 1 5.89-3.36c2.46 0 6.29 1.47 6.29 7.58v10.65h-3.24V474c0-2.87-1.06-5.26-4.12-5.26a4.61 4.61 0 0 0-4.35 3.26 4.9 4.9 0 0 0-.22 1.51v10.72h-3.24zM88 475.91c.07 4.39 2.87 6.19 6.11 6.19a11.77 11.77 0 0 0 4.93-.92l.56 2.32a14.57 14.57 0 0 1-5.93 1.1c-5.49 0-8.76-3.61-8.76-9s3.16-9.6 8.35-9.6c5.82 0 7.37 5.12 7.37 8.39a13.61 13.61 0 0 1-.11 1.51zm9.5-2.32c0-2.06-.85-5.26-4.49-5.26-3.28 0-4.72 3-5 5.26zM104.64 472c0-2.09 0-3.9-.15-5.56h2.84l.11 3.5h.15a5.34 5.34 0 0 1 4.93-3.9 3.68 3.68 0 0 1 .92.11v3.06a4.49 4.49 0 0 0-1.1-.11c-2.29 0-3.91 1.73-4.35 4.16a9.4 9.4 0 0 0-.15 1.51v9.5h-3.2zM131.74 466.41c-.08 1.29-.15 2.73-.15 4.9v10.35c0 4.08-.81 6.59-2.54 8.13a9.46 9.46 0 0 1-6.48 2.14 11.58 11.58 0 0 1-5.93-1.47l.81-2.47a10 10 0 0 0 5.23 1.4c3.31 0 5.74-1.73 5.74-6.22v-2h-.07a6.35 6.35 0 0 1-5.67 3c-4.42 0-7.59-3.75-7.59-8.69 0-6 3.94-9.46 8-9.46a5.93 5.93 0 0 1 5.56 3.09h.07l.15-2.69zm-3.35 7a4.58 4.58 0 0 0-.19-1.48 4.67 4.67 0 0 0-4.53-3.42c-3.09 0-5.3 2.61-5.3 6.74 0 3.5 1.77 6.4 5.27 6.4a4.73 4.73 0 0 0 4.49-3.31 5.76 5.76 0 0 0 .26-1.73zM138.14 466.41L142 477c.41 1.17.85 2.57 1.14 3.64h.08c.33-1.07.7-2.43 1.14-3.72l3.53-10.46h3.43l-4.86 12.71c-2.32 6.11-3.91 9.24-6.11 11.15a8.84 8.84 0 0 1-4 2.1l-.81-2.72a8.56 8.56 0 0 0 2.83-1.59 9.74 9.74 0 0 0 2.73-3.6 2.32 2.32 0 0 0 .26-.78 3 3 0 0 0-.22-.84l-6.59-16.43zM47.76 640.24h13.37v2.68H51v8.25h9.39v2.65H51v11.23h-3.2zM68.23 642.22a2 2 0 0 1-4 0 2 2 0 0 1 2-2 1.92 1.92 0 0 1 2 2zm-3.61 22.83v-17.82h3.24v17.82zM73.24 652.05c0-1.84 0-3.35-.15-4.82H76l.19 2.95h.07a6.53 6.53 0 0 1 5.89-3.35c2.47 0 6.3 1.47 6.3 7.58v10.64h-3.28v-10.27c0-2.87-1.07-5.27-4.13-5.27a4.76 4.76 0 0 0-4.56 4.83v10.71h-3.24zM103.54 665.05l-.26-2.24h-.11a6.67 6.67 0 0 1-5.45 2.65 5.08 5.08 0 0 1-5.45-5.12c0-4.31 3.83-6.67 10.71-6.63v-.37c0-1.47-.4-4.12-4-4.12a8.92 8.92 0 0 0-4.64 1.32l-.73-2.13a11 11 0 0 1 5.85-1.58c5.45 0 6.78 3.71 6.78 7.29v6.66a25.14 25.14 0 0 0 .29 4.27zm-.48-9.09c-3.54-.08-7.55.55-7.55 4a2.87 2.87 0 0 0 3.06 3.09 4.42 4.42 0 0 0 4.3-3 3.4 3.4 0 0 0 .19-1zM111.41 652.05c0-1.84 0-3.35-.15-4.82h2.88l.18 2.95h.07a6.56 6.56 0 0 1 5.9-3.35c2.46 0 6.29 1.47 6.29 7.58v10.64h-3.24v-10.27c0-2.87-1.07-5.27-4.12-5.27a4.61 4.61 0 0 0-4.35 3.32 4.86 4.86 0 0 0-.22 1.51v10.71h-3.24zM144.55 664.39a12 12 0 0 1-5.12 1c-5.38 0-8.88-3.65-8.88-9.09s3.76-9.47 9.58-9.47a10.85 10.85 0 0 1 4.49.92l-.74 2.51a7.49 7.49 0 0 0-3.75-.85c-4.09 0-6.3 3-6.3 6.74 0 4.12 2.65 6.66 6.19 6.66a9.25 9.25 0 0 0 4-.88zM151.94 642.22a2 2 0 0 1-4 0 2 2 0 0 1 2-2 1.92 1.92 0 0 1 2 2zm-3.6 22.83v-17.82h3.24v17.82zM166.82 665.05l-.26-2.24h-.11a6.66 6.66 0 0 1-5.45 2.65 5.08 5.08 0 0 1-5.45-5.12c0-4.31 3.83-6.67 10.72-6.63v-.37c0-1.47-.41-4.12-4.05-4.12a8.86 8.86 0 0 0-4.64 1.32l-.74-2.13a11 11 0 0 1 5.85-1.58c5.45 0 6.78 3.71 6.78 7.29v6.66a25.14 25.14 0 0 0 .29 4.27zm-.48-9.09c-3.54-.08-7.55.55-7.55 4a2.87 2.87 0 0 0 3.06 3.09 4.44 4.44 0 0 0 4.31-3 3.38 3.38 0 0 0 .18-1zM174.7 638.91h3.23v26.14h-3.23zM47.21 705.91a8.46 8.46 0 0 0 4.27 1.29c2.36 0 3.46-1.17 3.46-2.65s-.92-2.39-3.31-3.27c-3.21-1.15-4.72-2.91-4.72-5 0-2.87 2.32-5.23 6.15-5.23a8.85 8.85 0 0 1 4.38 1.11l-.81 2.35a6.92 6.92 0 0 0-3.64-1c-1.92 0-3 1.11-3 2.43 0 1.48 1.06 2.14 3.38 3 3.1 1.18 4.68 2.73 4.68 5.38 0 3.13-2.43 5.34-6.66 5.34a10.1 10.1 0 0 1-5-1.22zM64 700.91c.08 4.38 2.87 6.18 6.11 6.18a11.69 11.69 0 0 0 4.94-.92l.55 2.32a14.33 14.33 0 0 1-5.93 1.11c-5.48 0-8.76-3.61-8.76-9s3.2-9.6 8.39-9.6c5.82 0 7.36 5.12 7.36 8.4a11.66 11.66 0 0 1-.11 1.51zm9.5-2.32c0-2.06-.84-5.27-4.49-5.27-3.28 0-4.71 3-5 5.27zM80.67 697c0-2.1 0-3.9-.14-5.56h2.83l.11 3.5h.15a5.34 5.34 0 0 1 4.93-3.94 3.63 3.63 0 0 1 .92.11v3.06a5 5 0 0 0-1.1-.11c-2.28 0-3.91 1.73-4.35 4.16a9.59 9.59 0 0 0-.14 1.51v9.5h-3.21zM94.88 691.41l3.5 10a46.43 46.43 0 0 1 1.44 4.59h.11c.4-1.47.92-3 1.51-4.57l3.46-10h3.38l-7 17.82H98.2l-6.78-17.82zM115 686.4a2 2 0 0 1-4 0 2 2 0 0 1 2-2 1.92 1.92 0 0 1 2 2zm-3.61 22.83v-17.82h3.24v17.82zM132.66 708.57a12 12 0 0 1-5.12 1c-5.38 0-8.88-3.65-8.88-9.1s3.76-9.46 9.58-9.46a10.89 10.89 0 0 1 4.49.92l-.74 2.5a7.53 7.53 0 0 0-3.75-.84c-4.09 0-6.3 3-6.3 6.74 0 4.12 2.65 6.66 6.19 6.66a9.25 9.25 0 0 0 4-.88zM138 700.91c.07 4.38 2.87 6.18 6.11 6.18a11.61 11.61 0 0 0 4.93-.92l.56 2.32a14.37 14.37 0 0 1-5.93 1.11c-5.49 0-8.76-3.61-8.76-9s3.16-9.61 8.35-9.61c5.82 0 7.37 5.12 7.37 8.4a13.82 13.82 0 0 1-.11 1.51zm9.5-2.32c0-2.06-.85-5.27-4.49-5.27-3.28 0-4.72 3-5 5.27zM154.23 705.91a8.42 8.42 0 0 0 4.27 1.29c2.35 0 3.46-1.17 3.46-2.65s-.92-2.39-3.32-3.27c-3.2-1.15-4.71-2.91-4.71-5 0-2.87 2.32-5.23 6.15-5.23a8.88 8.88 0 0 1 4.38 1.11l-.81 2.35a7 7 0 0 0-3.64-1c-1.92 0-3 1.11-3 2.43 0 1.48 1.07 2.14 3.39 3 3.09 1.18 4.68 2.73 4.68 5.38 0 3.13-2.43 5.34-6.67 5.34a10.09 10.09 0 0 1-5-1.22zM51 865.23v10.38h12v-10.38h3.24V890H63v-11.59H51V890h-3.2v-24.77zM73.46 881.72c.07 4.39 2.87 6.19 6.11 6.19a11.77 11.77 0 0 0 4.93-.91l.56 2.32a14.57 14.57 0 0 1-5.93 1.1c-5.49 0-8.76-3.61-8.76-9s3.16-9.61 8.35-9.61c5.82 0 7.37 5.12 7.37 8.39a13.61 13.61 0 0 1-.11 1.51zM83 879.4c0-2.06-.85-5.26-4.49-5.26-3.28 0-4.72 3-5 5.26zM100 890l-.26-2.24h-.14a6.65 6.65 0 0 1-5.45 2.65 5.08 5.08 0 0 1-5.45-5.12c0-4.31 3.83-6.66 10.71-6.63v-.36c0-1.48-.4-4.13-4-4.13a8.93 8.93 0 0 0-4.64 1.33l-.77-2.1a11.12 11.12 0 0 1 5.85-1.58c5.45 0 6.78 3.72 6.78 7.29v6.66a25.14 25.14 0 0 0 .29 4.27zm-.51-9c-3.54-.07-7.55.55-7.55 4a2.87 2.87 0 0 0 3.06 3.1 4.43 4.43 0 0 0 4.3-3 3.4 3.4 0 0 0 .19-1zM107.84 863.9h3.24V890h-3.24zM120.43 867.11v5.11h4.64v2.47h-4.64v9.61c0 2.21.63 3.46 2.43 3.46a7.21 7.21 0 0 0 1.88-.22l.15 2.43a7.9 7.9 0 0 1-2.87.44 4.5 4.5 0 0 1-3.5-1.36c-.92-1-1.25-2.54-1.25-4.64v-9.72h-2.77v-2.47h2.77V868zM128.72 863.9H132V875a5.92 5.92 0 0 1 2.32-2.28 6.7 6.7 0 0 1 3.31-.92c2.4 0 6.22 1.47 6.22 7.62V890h-3.24v-10.19c0-2.87-1.06-5.3-4.12-5.3a4.65 4.65 0 0 0-4.34 3.24 3.8 3.8 0 0 0-.22 1.54V890h-3.24zM161.85 889.38a12 12 0 0 1-5.12 1c-5.37 0-8.87-3.64-8.87-9.09s3.75-9.46 9.57-9.46a10.66 10.66 0 0 1 4.49.92l-.73 2.5a7.56 7.56 0 0 0-3.76-.85c-4.09 0-6.29 3-6.29 6.74 0 4.13 2.65 6.67 6.18 6.67a9.14 9.14 0 0 0 4-.89zM175.51 890l-.26-2.24h-.11a6.65 6.65 0 0 1-5.45 2.65 5.08 5.08 0 0 1-5.45-5.12c0-4.31 3.83-6.66 10.72-6.63v-.36c0-1.48-.41-4.13-4.05-4.13a8.87 8.87 0 0 0-4.64 1.33l-.74-2.14a11.12 11.12 0 0 1 5.85-1.58c5.45 0 6.78 3.72 6.78 7.29v6.66a25.14 25.14 0 0 0 .29 4.27zm-.51-9c-3.54-.07-7.55.55-7.55 4a2.87 2.87 0 0 0 3.06 3.1 4.42 4.42 0 0 0 4.3-3 3.12 3.12 0 0 0 .19-1zM183.38 877.78c0-2.09 0-3.9-.14-5.56h2.83l.11 3.5h.15a5.35 5.35 0 0 1 4.93-3.9 3.63 3.63 0 0 1 .92.11V875a4.49 4.49 0 0 0-1.1-.11c-2.28 0-3.9 1.73-4.35 4.16a9.48 9.48 0 0 0-.14 1.51V890h-3.21zM196.86 881.72c.07 4.39 2.87 6.19 6.11 6.19a11.77 11.77 0 0 0 4.93-.92l.56 2.32a14.61 14.61 0 0 1-5.93 1.1c-5.49 0-8.77-3.61-8.77-9s3.17-9.61 8.36-9.61c5.82 0 7.37 5.12 7.37 8.39a13.61 13.61 0 0 1-.11 1.51zm9.5-2.32c0-2.06-.85-5.26-4.49-5.26-3.28 0-4.72 3-5 5.26zM51 1068.13v10.39h12v-10.39h3.24V1093H63v-11.63H51V1093h-3.2v-24.82zM75.63 1070.12a2 2 0 0 1-4 0 2 2 0 0 1 2-2 1.92 1.92 0 0 1 2 2zM72 1093v-17.82h3.24V1093zM96 1075.13c-.07 1.29-.15 2.72-.15 4.9v10.34c0 4.09-.81 6.59-2.54 8.14a9.44 9.44 0 0 1-6.48 2.14 11.51 11.51 0 0 1-5.93-1.48l.81-2.46a10.12 10.12 0 0 0 5.23 1.39c3.32 0 5.75-1.73 5.75-6.22v-2h-.09a6.36 6.36 0 0 1-5.67 3c-4.42 0-7.58-3.76-7.58-8.69 0-6 3.94-9.47 8-9.47a5.91 5.91 0 0 1 5.56 3.1H93l.15-2.69zm-3.35 7a4.82 4.82 0 0 0-.18-1.47 4.68 4.68 0 0 0-4.53-3.43c-3.1 0-5.3 2.62-5.3 6.74 0 3.5 1.76 6.41 5.26 6.41a4.73 4.73 0 0 0 4.49-3.31 5.51 5.51 0 0 0 .26-1.73zM101.22 1066.81h3.24v11.12h.07a6 6 0 0 1 2.32-2.29 6.7 6.7 0 0 1 3.31-.92c2.4 0 6.22 1.48 6.22 7.63V1093h-3.24v-10.24c0-2.87-1.06-5.3-4.12-5.3a4.66 4.66 0 0 0-4.34 3.24 3.82 3.82 0 0 0-.22 1.55V1093h-3.24zM133.35 1070v5.12H138v2.47h-4.64v9.61c0 2.21.63 3.46 2.43 3.46a7.21 7.21 0 0 0 1.88-.22l.15 2.43a8.12 8.12 0 0 1-2.87.44 4.5 4.5 0 0 1-3.5-1.36c-.92-1-1.25-2.54-1.25-4.64v-9.72h-2.76v-2.47h2.76v-4.27zM143.22 1084.63c.07 4.38 2.87 6.18 6.11 6.18a11.69 11.69 0 0 0 4.94-.92l.55 2.32a14.37 14.37 0 0 1-5.93 1.11c-5.49 0-8.76-3.61-8.76-9s3.16-9.61 8.36-9.61c5.81 0 7.36 5.12 7.36 8.4a11.66 11.66 0 0 1-.11 1.51zm9.5-2.32c0-2.06-.85-5.27-4.49-5.27-3.28 0-4.72 3-5 5.27zM172.56 1092.29a12 12 0 0 1-5.12 1c-5.37 0-8.87-3.65-8.87-9.1s3.76-9.46 9.57-9.46a10.91 10.91 0 0 1 4.5.92l-.74 2.51a7.42 7.42 0 0 0-3.76-.85c-4.08 0-6.29 3-6.29 6.74 0 4.12 2.65 6.66 6.18 6.66a9.31 9.31 0 0 0 4-.88zM176.35 1066.81h3.24v11.12h.08a6 6 0 0 1 2.32-2.29 6.64 6.64 0 0 1 3.31-.92c2.39 0 6.22 1.48 6.22 7.63V1093h-3.24v-10.24c0-2.87-1.07-5.3-4.12-5.3a4.67 4.67 0 0 0-4.35 3.24 4 4 0 0 0-.22 1.55V1093h-3.24z"/><circle class="cls-3" cx="384.55" cy="74.42" r="5"/><circle class="cls-3" cx="438.45" cy="74.42" r="5"/><path class="cls-3" d="M430.17 60.41h12.13A10.67 10.67 0 0 1 453 71.08v16.55h-83V71.08a10.67 10.67 0 0 1 10.67-10.67h18.14M441.86 51.05l3.36 10.11"/><path class="cls-3" d="M378.31 61l7.17-22.87a5.24 5.24 0 0 1 5.07-3.92h23.71"/><path class="cls-4" d="M412.51 40.18l10.36-5.99-10.36-5.98v11.97z"/><path class="cls-3" d="M378.9 87.63h9.76v9.31a3.18 3.18 0 0 1-3.18 3.18h-3.4a3.18 3.18 0 0 1-3.18-3.18v-9.31zM433.19 87.63h9.76v9.31a3.18 3.18 0 0 1-3.18 3.18h-3.4a3.18 3.18 0 0 1-3.18-3.18v-9.31zM403.44 51.42a15.71 15.71 0 0 0-4.12 15l6.87-6.59h11.37l.07 9.68-6.93 8.28a15.72 15.72 0 0 0 19.13-19.14l21.31-21.16a8.05 8.05 0 0 0 0-11.38 8.05 8.05 0 0 0-11.38 0l-21.3 21.17a15.73 15.73 0 0 0-15.02 4.14zM518.37 1159.07a14 14 0 0 1 14 14M518.37 1150a23.14 23.14 0 0 1 23.14 23.14M518.37 1141.33a31.78 31.78 0 0 1 31.77 31.77M490.79 1159a29.25 29.25 0 0 0 40.21 41zM495.02 1211.91v12.38"/><path class="cls-4" d="M489.04 1213.66l5.98-10.37 5.98 10.37h-11.96z"/><path class="cls-3" d="M473.48 1224.29h66.66"/><circle class="cls-3" cx="518.37" cy="1172.74" r="5"/><path class="cls-3" d="M406.67 835.29s16.92-1.56 16.92 15.11-11.28 36.23-24 36.23-24-19.57-24-36.23 16.92-15.11 16.92-15.11M392.27 832.66v5.71M407.21 832.66v5.71"/><path class="cls-3" d="M399.59 886.63v18.66a13.34 13.34 0 1 0 26.67 0V877a8.34 8.34 0 0 1 16.67 0v14.39"/><path class="cls-4" d="M436.94 889.6l5.99 10.36 5.98-10.36h-11.97z"/><circle class="cls-3" cx="442.93" cy="907.68" r="5"/><path class="cls-3" d="M413.63 697.77h-27.27a7 7 0 0 1-7-7v-58a7 7 0 0 1 7-7h36.4a7 7 0 0 1 7 7v56.07"/><path class="cls-3" d="M408.16 669.25v-43.48h10.95v52.5M408.16 697.77v-9.21"/><path class="cls-3" d="M433.61 692.77l-21.45-21.45a7.45 7.45 0 0 0-10.55 0 7.45 7.45 0 0 0 0 10.55l13.31 13.31v6.23c0 9.71 10.2 11.12 10.2 11.12M429.76 667.82l14.4 14.4v27.56"/><path class="cls-4" d="M438.18 708.03l5.98 10.36 5.98-10.36h-11.96z"/><path class="cls-3" d="M407.17 701.47V707c0 8.18 6.46 13.56 14.55 13.83v6M388.86 636.35h10.34v10.34h-10.34z"/><circle class="cls-3" cx="391.08" cy="685.37" r="5"/><path class="cls-3" d="M387.24 677.49a4.92 4.92 0 0 1-1.16-3.2 5 5 0 1 1 8.95 3.07M379.15 1052.7h65.23v65.23h-65.23z"/><path class="cls-3" d="M427.04 1052.7v10.85l-21.93 21.93M426.71 1085.48l-17.82 17.81M445.09 1067.09l-11.02 11.02M420.09 1117.93v-8.9l8.06-8.05h8.61M395.09 1074.17h-14.36M405.11 1052.7v11.91h-10.02"/><circle class="cls-3" cx="400.7" cy="1087.34" r="5"/><circle class="cls-3" cx="429.69" cy="1082.07" r="5"/><path class="cls-3" d="M379.15 1105.18h16.97"/><path class="cls-4" d="M394.37 1111.16l10.36-5.98-10.36-5.98v11.96z"/><path class="cls-3" d="M388.83 1117.62v10.7M411.76 1117.62v10.7M434.69 1117.62v10.7M388.83 1041.86v10.7M411.76 1041.86v10.7M434.69 1041.86v10.7M444.29 1108.02h10.7M444.29 1085.09h10.7M444.29 1062.16h10.7M368.53 1108.02h10.7M368.53 1085.09h10.7M368.53 1062.16h10.7M369.59 1319.64h75.73"/><path class="cls-4" d="M443.56 1325.63l10.37-5.99-10.37-5.98v11.97z"/><path class="cls-3" d="M423 1319.64s-13.79-16.67-15.67-57.43h-20.7c-1.88 40.76-15.66 57.43-15.66 57.43M440.07 1319.64s-15.37-13.75-16.92-47.37h-10.53"/><circle class="cls-3" cx="430.53" cy="1234.27" r="4.44"/><circle class="cls-3" cx="441.43" cy="1242.77" r="5"/><path class="cls-3" d="M426.66 1238.7a7.73 7.73 0 0 0-15.18-2 8.49 8.49 0 0 0-12 12 4.83 4.83 0 1 0 7 4.32 4.92 4.92 0 0 0-.33-1.72 5.06 5.06 0 0 0 9.36.29 3.5 3.5 0 0 0 .24.3c.07.1.16.19.24.29l.13.14a3.44 3.44 0 0 0 .62.51l.19.13.12.07a5 5 0 0 0 6.1-7.79 7.72 7.72 0 0 0 3.51-6.54zM487.2 155v-35.85h49.3l16.67 16.67v75h-35.3"/><path class="cls-4" d="M493.19 153.25l-5.99 10.37-5.98-10.37h11.97z"/><path class="cls-3" d="M536.5 119.15v16.67h16.67M497.54 150.18h44.83M511.84 170.45h30.53M511.84 190.82h30.53M487.2 209.2c18.42-7.9 16.67-32.8 16.67-32.8a43.2 43.2 0 0 1-16.67-5.87 43.12 43.12 0 0 1-16.66 5.87s-2.38 24.34 16.66 32.8z"/><circle class="cls-3" cx="511.5" cy="211.18" r="5"/><path class="cls-3" d="M469.14 385.73l.11-.11c5.25-5.25 14.17-6.21 24.08-2.6l7.88 2.87c9.91 3.62 18.83 2.66 24.08-2.59s6.21-14.18 2.6-24.09l-2.89-7.87c-3.62-9.91-2.65-18.84 2.6-24.09l2.11-1.91"/><path class="cls-4" d="M532.45 330.95l3.66-11.4-11.7 2.53 8.04 8.87z"/><path class="cls-3" d="M554.48 354.11c-5.25 5.25-14.18 6.21-24.09 2.6l-7.87-2.87c-9.92-3.61-18.84-2.65-24.09 2.6s-6.21 14.17-2.6 24.08l2.87 7.88c3.62 9.91 2.66 18.83-2.59 24.08l-.11.11M506.52 351.87l19.16 19.16M525.29 383.3l-26.03-26.04M494.46 365.04l17.91 17.91M499.62 406.1l-20.01-20.02M524.08 335.25l17.91 17.92"/><circle class="cls-3" cx="491.6" cy="416.59" r="5"/><path class="cls-3" d="M492.28 533.18l.18-14.86-6.07-2.24s-16.55 10.48-12.14 41.09h3.59L489.69 544"/><path class="cls-3" d="M489.69 543.95l45.69 21.66 5.91-5.68-1.49-8.75-47.34-17.52M541.29 559.93v41.91M495.08 611.02l10.75-50.92 9.65 4.37 8.55 46.55"/><path class="cls-3" d="M524.03 607.82l-23.74-20.9 16.66-16.12"/><path class="cls-3" d="M504.15 570.15l15.65 16.66-24.26 22.87M476.18 561.31v38.27"/><path class="cls-4" d="M470.2 597.83l5.99 10.37 5.98-10.37H470.2z"/><path class="cls-3" d="M531.89 601.84h18.22v9.18h-18.22z"/><circle class="cls-3" cx="491.44" cy="538.66" r="5"/><path class="cls-3" d="M485.57 611.02h64.54M504.64 920.18h14.67v12.67h-14.67zM504.64 963.71h14.67v12.67h-14.67zM504.64 1003.05h14.67v12.67h-14.67zM537.81 963.71h14.67v12.67h-14.67zM537.81 1003.05h14.67v12.67h-14.67zM471.14 963.71h14.57v12.67h-14.57zM471.14 1003.05h14.57v12.67h-14.57zM515.72 948.38h29.42v15.33M478.47 963.71v-15.33h29.92M511.97 932.85v22.25"/><path class="cls-4" d="M505.99 953.35l5.98 10.36 5.99-10.36h-11.97z"/><path class="cls-3" d="M511.81 994.71v8.34M511.81 976.16v8.33M517.55 989.71h27.59v13.34M478.47 1003.05v-13.34h27.42"/><circle class="cls-3" cx="511.81" cy="989.71" r="5"/><path class="cls-3" d="M553.47 758.49v45.39h-83.33v-50h59.17"/><path class="cls-4" d="M547.49 760.24l5.98-10.36 5.99 10.36h-11.97z"/><path class="cls-3" d="M478.33 763.24h31.29v31.29h-31.29z"/><path class="cls-3" d="M481.8 786.75h4.45v4.44M486.25 766.46v4.45h-4.45M506.25 786.75h-4.44v4.44M501.81 766.46v4.45h4.44M517.81 772.7h24.25M517.81 785.06h24.25"/><circle class="cls-3" cx="535.56" cy="753.88" r="5"/><path class="cls-3" d="M487.99 775.84h2.75M493.77 770.55h2.75M498.14 779.53h2.75M491.95 783.53h2.75M473.75 1421.08h69.05"/><path class="cls-4" d="M541.05 1427.07l10.36-5.99-10.36-5.98v11.97z"/><path class="cls-3" d="M546.91 1407.84h-40.39l-9.09-28.06h38.92l10.56 28.06zM510.41 1379.78l10.36 28.05M523.67 1379.78l10.36 28.05M502.55 1393.81h39.48M523.67 1407.83v13.35M481.1 1388.73l7.91 23.85M508.98 1412.58H476.9l-7.53-23.85h22.8l8.1 23.85M473.52 1400.66h22.51M491.47 1412.58v8.5"/><circle class="cls-3" cx="525.58" cy="1352.07" r="9.94"/><path class="cls-3" d="M525.58 1339.11v-6.23M525.58 1371.7v-6.24M512.41 1352.29h-6.24M544.99 1352.29h-6.23M516.26 1361.61l-4.4 4.4M539.31 1338.56l-4.41 4.41M534.9 1361.61l4.41 4.4M511.86 1338.56l4.4 4.41M377.52 508.67c10.72-1.54 30-1.87 48.13 10.45"/><path class="cls-4" d="M380.43 514.31l-11.33-3.85 8.99-7.89 2.34 11.74z"/><path class="cls-3" d="M413.91 504.53a71.44 71.44 0 0 1 39.22-6.62M399.36 462.48L415.19 473a2.36 2.36 0 0 1 .81 3 2.36 2.36 0 0 1-3 1.08l-17.57-7.23a3.13 3.13 0 0 0-2.83-.05l-17 8.37a2.36 2.36 0 0 1-3.05-.89 2.35 2.35 0 0 1 .57-3.11l15.12-11.51a3.46 3.46 0 0 0 1.47-2.41l1.41-18.94a2.36 2.36 0 0 1 2.3-2.18 2.37 2.37 0 0 1 2.4 2.07l2.27 18.86M391.92 474.74l-2.91 32.22M397.63 470.81l3.66 37.95M375.79 464.52A18.36 18.36 0 0 1 380 452.8M370.77 464.52a23.42 23.42 0 0 1 11.15-20M393.16 463.63h2.45M410.3 463.63l14.5-11a3.67 3.67 0 0 0 1.56-2.55l1.48-20a2.5 2.5 0 0 1 2.43-2.31 2.51 2.51 0 0 1 2.54 2.19l2.4 19.93a3.74 3.74 0 0 0 1.38 2.52l16.73 11.07a2.49 2.49 0 0 1 .81 3.25 2.49 2.49 0 0 1-3.14 1.14l-18.56-7.65a3.32 3.32 0 0 0-3-.05l-13.31 6.54M428.73 465.32l-3.08 34.04M434.76 461.17l3.66 38.19M411.69 454.52a19.38 19.38 0 0 1 4.44-12.37M406.39 454.52a24.73 24.73 0 0 1 11.78-21.08M430.04 453.59h2.59"/><circle class="cls-3" cx="410.76" cy="505.83" r="5"/><path class="cls-3" d="M409.04 291.46h-7.62l-14.37-57.37h-7.2"/><path class="cls-4" d="M381.6 228.1l-10.36 5.99 10.36 5.98V228.1z"/><path class="cls-3" d="M434.09 291.46h-13.04M407.91 280.83h34.3l8.57-29.09H401.1l6.81 29.09zM405.22 266.31h41.31"/><circle class="cls-3" cx="439.8" cy="291.51" r="5"/><circle class="cls-3" cx="414.91" cy="291.51" r="5"/><path class="cls-3" d="M416.89 251.74l3.48 29.09M434.89 251.74l-3.47 29.09M379.74 306.96h72.54"/><path class="cls-1" d="M645.67 153.65v24.82h-3.21v-24.82zM651.52 165.47c0-1.84 0-3.35-.15-4.82h2.87l.19 2.95h.07a6.55 6.55 0 0 1 5.89-3.36c2.47 0 6.3 1.48 6.3 7.59v10.64h-3.24V168.2c0-2.87-1.07-5.27-4.13-5.27a4.6 4.6 0 0 0-4.34 3.32 4.54 4.54 0 0 0-.22 1.51v10.71h-3.24zM671.51 175.16a8.52 8.52 0 0 0 4.27 1.29c2.35 0 3.46-1.18 3.46-2.66s-.92-2.39-3.31-3.27c-3.21-1.14-4.72-2.91-4.72-5.05 0-2.87 2.32-5.23 6.15-5.23a8.85 8.85 0 0 1 4.38 1.11l-.81 2.36a6.83 6.83 0 0 0-3.64-1c-1.92 0-3 1.1-3 2.43s1.06 2.13 3.38 3c3.1 1.18 4.68 2.73 4.68 5.38 0 3.13-2.43 5.34-6.66 5.34a10.1 10.1 0 0 1-5-1.22zM701.44 173.61c0 1.84 0 3.46.15 4.86h-2.88l-.18-2.91h-.07a6.71 6.71 0 0 1-5.89 3.32c-2.8 0-6.15-1.55-6.15-7.81v-10.42h3.24v9.87c0 3.39 1 5.67 4 5.67a4.69 4.69 0 0 0 4.28-2.95 4.84 4.84 0 0 0 .29-1.65v-10.94h3.24zM706.81 166.21c0-2.1 0-3.9-.14-5.56h2.83l.11 3.5h.15a5.34 5.34 0 0 1 4.93-3.91 3.21 3.21 0 0 1 .92.12v3a5 5 0 0 0-1.1-.11c-2.29 0-3.91 1.73-4.35 4.16A9.59 9.59 0 0 0 710 169v9.5h-3.21zM728.53 178.47l-.25-2.25h-.11a6.65 6.65 0 0 1-5.45 2.66 5.08 5.08 0 0 1-5.45-5.12c0-4.31 3.83-6.67 10.71-6.63v-.37c0-1.47-.4-4.12-4.05-4.12a8.86 8.86 0 0 0-4.64 1.32l-.73-2.13a11 11 0 0 1 5.85-1.59c5.45 0 6.77 3.72 6.77 7.3v6.66a25.07 25.07 0 0 0 .3 4.27zm-.47-9.09c-3.54-.08-7.55.55-7.55 4a2.86 2.86 0 0 0 3 3.09 4.43 4.43 0 0 0 4.31-3 3.4 3.4 0 0 0 .19-1zM736.41 165.47c0-1.84 0-3.35-.15-4.82h2.87l.19 2.95h.07a6.56 6.56 0 0 1 5.89-3.36c2.47 0 6.3 1.48 6.3 7.59v10.64h-3.24V168.2c0-2.87-1.07-5.27-4.12-5.27a4.6 4.6 0 0 0-4.35 3.32 4.54 4.54 0 0 0-.22 1.51v10.71h-3.24zM769.54 177.81a11.91 11.91 0 0 1-5.11 1c-5.38 0-8.88-3.65-8.88-9.1s3.76-9.46 9.58-9.46a10.89 10.89 0 0 1 4.49.92l-.74 2.51a7.41 7.41 0 0 0-3.75-.85c-4.09 0-6.3 3-6.3 6.74 0 4.12 2.65 6.66 6.19 6.66a9.25 9.25 0 0 0 4-.88zM774.92 170.15c.07 4.38 2.87 6.18 6.11 6.18a11.61 11.61 0 0 0 4.93-.92l.56 2.32a14.37 14.37 0 0 1-5.93 1.11c-5.49 0-8.76-3.61-8.76-9s3.16-9.61 8.35-9.61c5.82 0 7.37 5.12 7.37 8.4a13.82 13.82 0 0 1-.11 1.51zm9.5-2.32c0-2.06-.85-5.27-4.49-5.27-3.28 0-4.72 3-5 5.27zM642.46 356.56h3.21v22.13h10.6v2.69h-13.81zM663.34 358.55a2 2 0 0 1-4 0 2 2 0 0 1 2-2 1.93 1.93 0 0 1 2 2zm-3.61 22.83v-17.83H663v17.83zM668.67 381.38V366h-2.5v-2.47h2.5v-.84c0-2.51.55-4.79 2.06-6.22a6.22 6.22 0 0 1 4.35-1.66 7.71 7.71 0 0 1 2.76.51l-.44 2.51a4.84 4.84 0 0 0-2.06-.41c-2.76 0-3.46 2.43-3.46 5.16v.95h4.3V366h-4.3v15.36zM680.42 373.05c.07 4.39 2.87 6.19 6.11 6.19a11.77 11.77 0 0 0 4.93-.92l.55 2.32a14.51 14.51 0 0 1-5.92 1.1c-5.49 0-8.77-3.6-8.77-9s3.17-9.61 8.36-9.61c5.82 0 7.37 5.12 7.37 8.39a13.61 13.61 0 0 1-.11 1.51zm9.5-2.32c0-2.06-.85-5.26-4.5-5.26-3.27 0-4.71 3-5 5.26zM704.42 378.06a8.46 8.46 0 0 0 4.27 1.29c2.36 0 3.46-1.18 3.46-2.65s-.92-2.39-3.31-3.28c-3.21-1.14-4.72-2.91-4.72-5 0-2.87 2.32-5.23 6.15-5.23a9 9 0 0 1 4.38 1.1l-.81 2.36a6.89 6.89 0 0 0-3.64-1c-1.91 0-3 1.1-3 2.43s1.07 2.14 3.38 3c3.1 1.18 4.68 2.72 4.68 5.37 0 3.13-2.43 5.34-6.66 5.34a10.24 10.24 0 0 1-5-1.21zM732.14 380.71a12 12 0 0 1-5.12 1c-5.37 0-8.87-3.64-8.87-9.09s3.76-9.46 9.57-9.46a10.82 10.82 0 0 1 4.49.92l-.73 2.5a7.53 7.53 0 0 0-3.76-.85c-4.08 0-6.29 3-6.29 6.74 0 4.13 2.65 6.67 6.18 6.67a9.14 9.14 0 0 0 4-.89zM739.54 358.55a2 2 0 0 1-4 0 2 2 0 0 1 2-2 1.93 1.93 0 0 1 2 2zm-3.61 22.83v-17.83h3.24v17.83zM746.35 373.05c.07 4.39 2.87 6.19 6.11 6.19a11.85 11.85 0 0 0 4.94-.92l.55 2.32a14.53 14.53 0 0 1-5.93 1.1c-5.49 0-8.76-3.6-8.76-9s3.16-9.61 8.36-9.61c5.81 0 7.36 5.12 7.36 8.39a11.51 11.51 0 0 1-.11 1.51zm9.5-2.32c0-2.06-.85-5.26-4.49-5.26-3.28 0-4.72 3-5 5.26zM763 368.38c0-1.84 0-3.35-.15-4.83h2.87l.19 2.95h.09a6.57 6.57 0 0 1 5.89-3.35c2.47 0 6.3 1.47 6.3 7.58v10.65h-3.24V371.1c0-2.87-1.07-5.26-4.13-5.26a4.74 4.74 0 0 0-4.56 4.82v10.72H763zM796.12 380.71a11.91 11.91 0 0 1-5.11 1c-5.38 0-8.88-3.64-8.88-9.09s3.76-9.46 9.58-9.46a10.89 10.89 0 0 1 4.49.92l-.74 2.5a7.52 7.52 0 0 0-3.75-.85c-4.09 0-6.3 3-6.3 6.74 0 4.13 2.65 6.67 6.18 6.67a9.1 9.1 0 0 0 4-.89zM801.5 373.05c.07 4.39 2.87 6.19 6.11 6.19a11.77 11.77 0 0 0 4.93-.92l.56 2.32a14.61 14.61 0 0 1-5.93 1.1c-5.49 0-8.76-3.6-8.76-9s3.16-9.61 8.35-9.61c5.82 0 7.37 5.12 7.37 8.39a13.61 13.61 0 0 1-.11 1.51zm9.5-2.32c0-2.06-.85-5.26-4.5-5.26-3.27 0-4.71 3-5 5.26zM817.7 378.06a8.42 8.42 0 0 0 4.27 1.29c2.35 0 3.46-1.18 3.46-2.65s-.92-2.39-3.32-3.28c-3.2-1.14-4.71-2.91-4.71-5 0-2.87 2.32-5.23 6.15-5.23a9 9 0 0 1 4.38 1.1l-.81 2.36a7 7 0 0 0-3.64-1c-1.92 0-3 1.1-3 2.43s1.07 2.14 3.39 3c3.09 1.18 4.68 2.72 4.68 5.37 0 3.13-2.43 5.34-6.67 5.34a10.27 10.27 0 0 1-5-1.21zM642.46 559.8a32.61 32.61 0 0 1 6.15-.52c3.42 0 5.63.63 7.18 2a6.2 6.2 0 0 1 2 4.72 6.51 6.51 0 0 1-4.67 6.33v.11c1.91.66 3 2.43 3.64 5a39 39 0 0 0 1.92 6.81h-3.32a32.38 32.38 0 0 1-1.66-5.93c-.73-3.42-2.06-4.71-5-4.82h-3v10.75h-3.21zm3.21 11.3h3.27c3.43 0 5.6-1.88 5.6-4.71 0-3.21-2.32-4.61-5.71-4.64a13 13 0 0 0-3.16.29zM664.11 576c.07 4.38 2.87 6.18 6.11 6.18a11.61 11.61 0 0 0 4.93-.92l.56 2.32a14.4 14.4 0 0 1-5.93 1.11c-5.49 0-8.76-3.61-8.76-9s3.16-9.61 8.35-9.61c5.82 0 7.37 5.12 7.37 8.4a13.82 13.82 0 0 1-.11 1.51zm9.5-2.32c0-2.06-.85-5.27-4.49-5.27-3.28 0-4.72 3-5 5.27zM680.31 581a8.52 8.52 0 0 0 4.27 1.29c2.35 0 3.46-1.18 3.46-2.66s-.92-2.39-3.32-3.27c-3.2-1.14-4.71-2.91-4.71-5.05 0-2.87 2.32-5.23 6.15-5.23a8.88 8.88 0 0 1 4.38 1.11l-.81 2.36a6.85 6.85 0 0 0-3.64-1c-1.92 0-3 1.11-3 2.43 0 1.48 1.07 2.14 3.39 3 3.09 1.18 4.68 2.73 4.68 5.38 0 3.13-2.43 5.34-6.67 5.34a10.09 10.09 0 0 1-5-1.22zM711.45 575.22c0 6.59-4.56 9.46-8.87 9.46-4.82 0-8.54-3.53-8.54-9.16 0-6 3.9-9.47 8.83-9.47 5.13 0 8.58 3.72 8.58 9.17zm-14.14.19c0 3.9 2.25 6.85 5.42 6.85s5.41-2.91 5.41-6.93c0-3-1.51-6.85-5.34-6.85s-5.49 3.52-5.49 6.93zM730.45 579.42c0 1.84 0 3.46.15 4.86h-2.88l-.18-2.91h-.07a6.71 6.71 0 0 1-5.89 3.31c-2.8 0-6.15-1.54-6.15-7.8v-10.42h3.24v9.87c0 3.38 1 5.67 4 5.67a4.58 4.58 0 0 0 4.57-4.61v-10.93h3.24zM735.82 572c0-2.1 0-3.9-.15-5.56h2.84l.11 3.5h.15a5.34 5.34 0 0 1 4.93-3.91 3.63 3.63 0 0 1 .92.11v3.06a5 5 0 0 0-1.1-.11c-2.29 0-3.91 1.73-4.35 4.16a9.52 9.52 0 0 0-.15 1.51v9.5h-3.2zM760.19 583.62a11.91 11.91 0 0 1-5.11 1c-5.38 0-8.88-3.65-8.88-9.1s3.76-9.46 9.58-9.46a10.89 10.89 0 0 1 4.49.92l-.74 2.51a7.41 7.41 0 0 0-3.75-.85c-4.09 0-6.3 3-6.3 6.74 0 4.12 2.65 6.66 6.18 6.66a9.27 9.27 0 0 0 4-.88zM765.57 576c.07 4.38 2.87 6.18 6.11 6.18a11.61 11.61 0 0 0 4.93-.92l.56 2.32a14.4 14.4 0 0 1-5.93 1.11c-5.49 0-8.77-3.61-8.77-9s3.17-9.61 8.36-9.61c5.82 0 7.37 5.12 7.37 8.4a13.82 13.82 0 0 1-.11 1.51zm9.5-2.32c0-2.06-.85-5.27-4.5-5.27-3.27 0-4.71 3-5 5.27zM781.76 581a8.59 8.59 0 0 0 4.28 1.29c2.35 0 3.46-1.18 3.46-2.66s-.92-2.39-3.32-3.27c-3.2-1.14-4.71-2.91-4.71-5.05 0-2.87 2.32-5.23 6.15-5.23a8.88 8.88 0 0 1 4.38 1.11l-.81 2.36a6.86 6.86 0 0 0-3.65-1c-1.91 0-3 1.11-3 2.43 0 1.48 1.07 2.14 3.39 3 3.09 1.18 4.68 2.73 4.68 5.38 0 3.13-2.43 5.34-6.67 5.34a10.16 10.16 0 0 1-5-1.22zM642.46 762.7a33.46 33.46 0 0 1 6.15-.52c3.42 0 5.63.63 7.18 2a6.18 6.18 0 0 1 2 4.71 6.53 6.53 0 0 1-4.67 6.34v.11c1.91.66 3 2.43 3.64 5a39.19 39.19 0 0 0 1.92 6.82h-3.32a32.65 32.65 0 0 1-1.66-5.93c-.73-3.43-2.06-4.72-5-4.83h-3v10.76h-3.21zm3.21 11.3h3.27c3.43 0 5.6-1.87 5.6-4.71 0-3.2-2.32-4.6-5.71-4.64a12.89 12.89 0 0 0-3.16.3zM664.11 778.86c.07 4.39 2.87 6.19 6.11 6.19a11.77 11.77 0 0 0 4.93-.92l.56 2.32a14.61 14.61 0 0 1-5.93 1.1c-5.49 0-8.76-3.6-8.76-9s3.16-9.61 8.35-9.61c5.82 0 7.37 5.12 7.37 8.39a13.61 13.61 0 0 1-.11 1.51zm9.5-2.32c0-2.06-.85-5.26-4.49-5.26-3.28 0-4.72 3-5 5.26zM684.65 764.25v5.11h4.64v2.47h-4.64v9.61c0 2.21.63 3.46 2.43 3.46a7.27 7.27 0 0 0 1.88-.22l.15 2.43a7.92 7.92 0 0 1-2.88.44 4.44 4.44 0 0 1-3.49-1.36c-.92-1-1.26-2.54-1.26-4.64v-9.72h-2.76v-2.47h2.76v-4.27zM702.8 787.19l-.26-2.25h-.11a6.63 6.63 0 0 1-5.45 2.65 5.08 5.08 0 0 1-5.45-5.12c0-4.31 3.83-6.66 10.72-6.62v-.37c0-1.48-.41-4.13-4-4.13a8.87 8.87 0 0 0-4.64 1.33l-.74-2.14a11.13 11.13 0 0 1 5.86-1.58c5.45 0 6.77 3.72 6.77 7.29v6.66a25.27 25.27 0 0 0 .3 4.28zm-.48-9.1c-3.53-.07-7.55.55-7.55 4a2.87 2.87 0 0 0 3.06 3.1 4.45 4.45 0 0 0 4.31-3 3.38 3.38 0 0 0 .18-1zM714.29 764.36a2 2 0 0 1-4 0 2 2 0 0 1 2-2 1.93 1.93 0 0 1 2 2zm-3.61 22.83v-17.83h3.24v17.83zM719.29 761h3.24v26.15h-3.24zM642 986.19a11.35 11.35 0 0 0 5.74 1.62c3.28 0 5.19-1.73 5.19-4.24 0-2.32-1.32-3.64-4.67-4.93-4-1.44-6.56-3.54-6.56-7 0-3.87 3.21-6.74 8-6.74a11.39 11.39 0 0 1 5.49 1.21l-.89 2.62a9.91 9.91 0 0 0-4.71-1.18c-3.39 0-4.68 2-4.68 3.72 0 2.32 1.51 3.46 4.94 4.79 4.19 1.62 6.33 3.64 6.33 7.29 0 3.82-2.84 7.14-8.69 7.14a12.85 12.85 0 0 1-6.33-1.58zM662.52 981.77c.08 4.38 2.88 6.18 6.11 6.18a11.66 11.66 0 0 0 4.94-.92l.55 2.32a14.33 14.33 0 0 1-5.93 1.11c-5.48 0-8.76-3.61-8.76-9s3.17-9.61 8.36-9.61c5.82 0 7.36 5.12 7.36 8.4a11.66 11.66 0 0 1-.11 1.51zm9.5-2.32c0-2.06-.84-5.27-4.49-5.27-3.28 0-4.71 3-5 5.27zM679.16 977.83c0-2.1 0-3.9-.14-5.56h2.83l.11 3.5h.15a5.34 5.34 0 0 1 4.93-3.91 3.63 3.63 0 0 1 .92.11V975a5 5 0 0 0-1.1-.11c-2.28 0-3.9 1.73-4.35 4.16a9.59 9.59 0 0 0-.14 1.51v9.5h-3.21zM693.37 972.27l3.5 10a46.43 46.43 0 0 1 1.44 4.57h.11c.4-1.47.92-3 1.51-4.57l3.46-10h3.38l-7 17.82h-3.09l-6.78-17.82zM713.44 967.26a2 2 0 0 1-4 0 2 2 0 0 1 2-2 1.92 1.92 0 0 1 2 2zm-3.61 22.83v-17.82h3.24v17.82zM731.14 989.43a11.91 11.91 0 0 1-5.11 1c-5.38 0-8.88-3.65-8.88-9.1s3.76-9.46 9.58-9.46a10.89 10.89 0 0 1 4.49.92l-.74 2.51a7.41 7.41 0 0 0-3.75-.85c-4.09 0-6.3 3-6.3 6.74 0 4.12 2.65 6.66 6.19 6.66a9.25 9.25 0 0 0 4-.88zM736.52 981.77c.07 4.38 2.87 6.18 6.11 6.18a11.61 11.61 0 0 0 4.93-.92l.56 2.32a14.4 14.4 0 0 1-5.93 1.11c-5.49 0-8.76-3.61-8.76-9s3.16-9.61 8.35-9.61c5.82 0 7.37 5.12 7.37 8.4a13.82 13.82 0 0 1-.11 1.51zm9.5-2.32c0-2.06-.85-5.27-4.49-5.27-3.28 0-4.72 3-5 5.27zM764.57 967.26a2 2 0 0 1-4 0 2 2 0 0 1 2-2 1.92 1.92 0 0 1 2 2zM761 990.09v-17.82h3.24v17.82zM769.58 977.09c0-1.84 0-3.35-.15-4.82h2.87l.19 3h.07a6.54 6.54 0 0 1 5.89-3.36c2.47 0 6.3 1.48 6.3 7.59v10.64h-3.24v-10.32c0-2.87-1.07-5.27-4.13-5.27a4.6 4.6 0 0 0-4.34 3.32 4.54 4.54 0 0 0-.22 1.51v10.71h-3.24zM805.4 964v21.54c0 1.58 0 3.39.15 4.6h-2.91l-.15-3.09h-.07a6.6 6.6 0 0 1-6.08 3.49c-4.31 0-7.62-3.64-7.62-9 0-5.93 3.64-9.58 8-9.58a6 6 0 0 1 5.38 2.73h.07V964zm-3.24 15.57a5.78 5.78 0 0 0-.15-1.36 4.76 4.76 0 0 0-4.67-3.75c-3.36 0-5.34 2.94-5.34 6.88 0 3.61 1.76 6.59 5.26 6.59A4.87 4.87 0 0 0 802 984a5.59 5.59 0 0 0 .15-1.39zM825.68 985.23c0 1.84 0 3.46.15 4.86H823l-.18-2.91h-.08a6.69 6.69 0 0 1-5.89 3.31c-2.8 0-6.15-1.54-6.15-7.8v-10.42h3.24v9.87c0 3.38 1 5.67 4 5.67a4.68 4.68 0 0 0 4.27-2.95 4.85 4.85 0 0 0 .29-1.66v-10.93h3.24zM830.61 986.78a8.59 8.59 0 0 0 4.27 1.29c2.36 0 3.47-1.18 3.47-2.66s-.92-2.39-3.32-3.27c-3.2-1.14-4.71-2.91-4.71-5 0-2.87 2.32-5.23 6.15-5.23a8.88 8.88 0 0 1 4.38 1.11l-.81 2.36a6.86 6.86 0 0 0-3.65-1c-1.91 0-3 1.11-3 2.43 0 1.48 1.07 2.14 3.39 3 3.09 1.18 4.68 2.73 4.68 5.38 0 3.13-2.43 5.34-6.67 5.34a10.16 10.16 0 0 1-5-1.22zM849.54 967.15v5.12h4.64v2.47h-4.64v9.61c0 2.21.62 3.46 2.43 3.46a7.18 7.18 0 0 0 1.87-.22L854 990a8.08 8.08 0 0 1-2.87.44 4.52 4.52 0 0 1-3.5-1.36c-.92-1-1.25-2.54-1.25-4.64v-9.72h-2.76v-2.47h2.76V968zM857.82 977.83c0-2.1 0-3.9-.15-5.56h2.84l.11 3.5h.15a5.34 5.34 0 0 1 4.93-3.91 3.63 3.63 0 0 1 .92.11V975a5.08 5.08 0 0 0-1.11-.11c-2.28 0-3.9 1.73-4.34 4.16a9.52 9.52 0 0 0-.15 1.51v9.5h-3.2zM873.61 967.26a2 2 0 0 1-4 0 2 2 0 0 1 2-2 1.92 1.92 0 0 1 2 2zM870 990.09v-17.82h3.25v17.82zM880.42 981.77c.08 4.38 2.88 6.18 6.12 6.18a11.64 11.64 0 0 0 4.93-.92l.55 2.32a14.33 14.33 0 0 1-5.93 1.11c-5.48 0-8.76-3.61-8.76-9s3.17-9.61 8.36-9.61c5.82 0 7.36 5.12 7.36 8.4a11.66 11.66 0 0 1-.11 1.51zm9.5-2.32c0-2.06-.84-5.27-4.49-5.27-3.28 0-4.71 3-5 5.27zM896.62 986.78a8.56 8.56 0 0 0 4.27 1.29c2.36 0 3.46-1.18 3.46-2.66s-.92-2.39-3.31-3.27c-3.2-1.14-4.71-2.91-4.71-5 0-2.87 2.32-5.23 6.15-5.23a8.91 8.91 0 0 1 4.38 1.11l-.81 2.36a6.86 6.86 0 0 0-3.65-1c-1.91 0-3 1.11-3 2.43 0 1.48 1.07 2.14 3.39 3 3.09 1.18 4.67 2.73 4.67 5.38 0 3.13-2.43 5.34-6.66 5.34a10.13 10.13 0 0 1-5-1.22zM647.21 1170.9h-7.55v-2.72H658v2.72h-7.58v22.1h-3.24zM659.87 1184.67c.07 4.39 2.87 6.19 6.11 6.19a11.69 11.69 0 0 0 4.94-.92l.55 2.32a14.36 14.36 0 0 1-5.93 1.1c-5.49 0-8.76-3.6-8.76-9s3.16-9.61 8.36-9.61c5.81 0 7.36 5.12 7.36 8.4a11.48 11.48 0 0 1-.11 1.5zm9.5-2.31c0-2.07-.85-5.27-4.49-5.27-3.28 0-4.71 3-5 5.27zM676.51 1166.85h3.24V1193h-3.24zM687 1184.67c.08 4.39 2.87 6.19 6.11 6.19a11.69 11.69 0 0 0 4.94-.92l.55 2.32a14.36 14.36 0 0 1-5.93 1.1c-5.48 0-8.76-3.6-8.76-9s3.17-9.61 8.36-9.61c5.81 0 7.36 5.12 7.36 8.4a11.48 11.48 0 0 1-.11 1.5zm9.5-2.31c0-2.07-.85-5.27-4.49-5.27-3.28 0-4.71 3-5 5.27zM716.34 1192.33a11.76 11.76 0 0 1-5.11 1c-5.38 0-8.88-3.64-8.88-9.09s3.76-9.46 9.58-9.46a10.89 10.89 0 0 1 4.49.92l-.74 2.5a7.52 7.52 0 0 0-3.75-.85c-4.09 0-6.3 3-6.3 6.74 0 4.13 2.65 6.67 6.18 6.67a9.1 9.1 0 0 0 4-.89zM736 1183.94c0 6.59-4.57 9.46-8.87 9.46-4.83 0-8.54-3.53-8.54-9.17 0-6 3.9-9.46 8.83-9.46 5.16 0 8.58 3.72 8.58 9.17zm-14.14.18c0 3.91 2.25 6.85 5.41 6.85s5.42-2.91 5.42-6.92c0-3-1.51-6.85-5.34-6.85s-5.45 3.53-5.45 6.92zM740.12 1180c0-1.84 0-3.35-.14-4.83h2.83l.15 2.88h.11a6.13 6.13 0 0 1 5.6-3.28 5.26 5.26 0 0 1 5 3.57h.07a7.55 7.55 0 0 1 2-2.32 6.09 6.09 0 0 1 3.94-1.25c2.36 0 5.86 1.55 5.86 7.73v10.5h-3.14v-10.09c0-3.43-1.25-5.49-3.87-5.49a4.18 4.18 0 0 0-3.82 2.95 5.24 5.24 0 0 0-.26 1.62v11h-3.17v-10.68c0-2.84-1.25-4.9-3.72-4.9a4.42 4.42 0 0 0-4 3.24 4.33 4.33 0 0 0-.26 1.58V1193h-3.17zM770.83 1180c0-1.84 0-3.35-.15-4.83h2.84l.14 2.88h.11a6.14 6.14 0 0 1 5.6-3.28 5.26 5.26 0 0 1 5 3.57h.08a7.29 7.29 0 0 1 2-2.32 6.05 6.05 0 0 1 3.94-1.25c2.35 0 5.85 1.55 5.85 7.73v10.5h-3.14v-10.09c0-3.43-1.25-5.49-3.86-5.49a4.19 4.19 0 0 0-3.83 2.95 5.24 5.24 0 0 0-.26 1.62v11H782v-10.68c0-2.84-1.25-4.9-3.72-4.9a4.43 4.43 0 0 0-4 3.24 4.56 4.56 0 0 0-.26 1.58V1193h-3.16zM816.44 1188.14c0 1.84 0 3.46.15 4.86h-2.87l-.19-2.91h-.07a6.71 6.71 0 0 1-5.89 3.31c-2.8 0-6.15-1.55-6.15-7.81v-10.42h3.24v9.83c0 3.39 1 5.67 4 5.67a4.69 4.69 0 0 0 4.27-2.94 4.85 4.85 0 0 0 .29-1.66v-10.94h3.24zM821.81 1180c0-1.84 0-3.35-.14-4.83h2.87l.18 2.95h.08a6.55 6.55 0 0 1 5.89-3.35c2.47 0 6.29 1.47 6.29 7.59V1193h-3.24v-10.28c0-2.87-1.06-5.26-4.12-5.26a4.78 4.78 0 0 0-4.57 4.82V1193h-3.24zM845.85 1170.17a2 2 0 0 1-4 0 2 2 0 0 1 2-2 1.92 1.92 0 0 1 2 2zm-3.6 22.83v-17.83h3.24V1193zM863.56 1192.33a11.76 11.76 0 0 1-5.11 1c-5.38 0-8.88-3.64-8.88-9.09s3.76-9.46 9.58-9.46a10.89 10.89 0 0 1 4.49.92l-.74 2.5a7.52 7.52 0 0 0-3.75-.85c-4.09 0-6.3 3-6.3 6.74 0 4.13 2.65 6.67 6.18 6.67a9.1 9.1 0 0 0 4-.89zM877.22 1193l-.26-2.25h-.11a6.63 6.63 0 0 1-5.45 2.65 5.07 5.07 0 0 1-5.44-5.12c0-4.31 3.82-6.66 10.71-6.62v-.37c0-1.48-.41-4.13-4-4.13a8.87 8.87 0 0 0-4.64 1.33l-.74-2.14a11.16 11.16 0 0 1 5.86-1.58c5.45 0 6.77 3.72 6.77 7.29v6.66a25.27 25.27 0 0 0 .3 4.28zm-.48-9.1c-3.53-.07-7.55.55-7.55 4a2.87 2.87 0 0 0 3.06 3.1 4.45 4.45 0 0 0 4.31-3 3.45 3.45 0 0 0 .18-1zM888.85 1170.06v5.11h4.64v2.47h-4.64v9.61c0 2.21.63 3.46 2.43 3.46a7.21 7.21 0 0 0 1.88-.22l.15 2.43a7.9 7.9 0 0 1-2.87.44 4.47 4.47 0 0 1-3.5-1.36c-.92-1-1.25-2.54-1.25-4.64v-9.72h-2.76v-2.47h2.76v-4.27zM900.75 1170.17a2 2 0 0 1-4 0 2 2 0 0 1 2-2 1.93 1.93 0 0 1 2 2zm-3.61 22.83v-17.83h3.24V1193zM921.88 1183.94c0 6.59-4.57 9.46-8.88 9.46-4.82 0-8.54-3.53-8.54-9.17 0-6 3.91-9.46 8.84-9.46 5.12 0 8.58 3.72 8.58 9.17zm-14.14.18c0 3.91 2.25 6.85 5.41 6.85s5.41-2.91 5.41-6.92c0-3-1.51-6.85-5.33-6.85s-5.49 3.53-5.49 6.92zM926 1180c0-1.84 0-3.35-.14-4.83h2.87l.18 2.95h.07a6.58 6.58 0 0 1 5.9-3.35c2.46 0 6.29 1.47 6.29 7.59V1193h-3.24v-10.28c0-2.87-1.07-5.26-4.12-5.26a4.61 4.61 0 0 0-4.35 3.31 4.9 4.9 0 0 0-.22 1.51V1193H926zM645.66 1371.08v14.7c0 5.56 2.47 7.91 5.78 7.91 3.68 0 6-2.43 6-7.91v-14.7h3.24v14.47c0 7.63-4 10.76-9.39 10.76-5.08 0-8.91-2.91-8.91-10.61v-14.62zM670.22 1373v5.12h4.64v2.47h-4.64v9.61c0 2.21.62 3.46 2.43 3.46a7.18 7.18 0 0 0 1.87-.22l.15 2.43a8.08 8.08 0 0 1-2.87.44 4.52 4.52 0 0 1-3.5-1.36c-.92-1-1.25-2.54-1.25-4.64v-9.72h-2.76v-2.47h2.76v-4.27zM682.11 1373.07a2 2 0 0 1-4 0 2 2 0 0 1 2-2 1.92 1.92 0 0 1 2 2zm-3.61 22.83v-17.82h3.24v17.82zM687.11 1369.76h3.24v26.14h-3.24zM699.41 1373.07a2 2 0 0 1-4 0 2 2 0 0 1 2-2 1.92 1.92 0 0 1 2 2zm-3.61 22.83v-17.82h3.2v17.82zM708.32 1373v5.12H713v2.47h-4.64v9.61c0 2.21.62 3.46 2.43 3.46a7.33 7.33 0 0 0 1.88-.22l.14 2.43a8.08 8.08 0 0 1-2.87.44 4.52 4.52 0 0 1-3.5-1.36c-.92-1-1.25-2.54-1.25-4.64v-9.72h-2.76v-2.47h2.76v-4.27zM720.21 1373.07a2 2 0 0 1-4 0 2 2 0 0 1 2-2 1.92 1.92 0 0 1 2 2zm-3.61 22.83v-17.82h3.24v17.82zM727 1387.58c.07 4.38 2.87 6.18 6.11 6.18a11.69 11.69 0 0 0 4.94-.92l.55 2.32a14.37 14.37 0 0 1-5.93 1.11c-5.49 0-8.76-3.61-8.76-9s3.16-9.61 8.35-9.61c5.82 0 7.37 5.11 7.37 8.39a11.66 11.66 0 0 1-.11 1.51zm9.5-2.32c0-2.06-.85-5.27-4.49-5.27-3.28 0-4.72 3-5 5.27zM743.22 1392.59a8.52 8.52 0 0 0 4.27 1.29c2.35 0 3.46-1.18 3.46-2.66s-.92-2.39-3.32-3.27c-3.2-1.14-4.71-2.91-4.71-5 0-2.87 2.32-5.22 6.15-5.22a8.85 8.85 0 0 1 4.38 1.1l-.81 2.36a6.86 6.86 0 0 0-3.64-1c-1.92 0-3 1.1-3 2.43s1.07 2.13 3.39 3c3.1 1.18 4.68 2.73 4.68 5.38 0 3.13-2.43 5.34-6.67 5.34a10.09 10.09 0 0 1-5-1.22z"/></g></svg>