<?xml version="1.0" encoding="utf-8"?>
<!-- Generator: Adobe Illustrator 22.1.0, SVG Export Plug-In . SVG Version: 6.00 Build 0)  -->
<svg version="1.1" xmlns="http://www.w3.org/2000/svg" xmlns:xlink="http://www.w3.org/1999/xlink" x="0px" y="0px" width="400px"
	 height="400.3px" viewBox="0 0 400 400.3" style="enable-background:new 0 0 400 400.3;" xml:space="preserve">
<style type="text/css">
	.st0{fill:#ECE1CE;}
	.st1{fill:#FCDDD6;}
	.st2{fill:none;stroke:#EAC8A5;stroke-width:2.1196;stroke-miterlimit:10;}
	.st3{fill:none;stroke:#FBC2BA;stroke-width:2.1196;stroke-miterlimit:10;}
	.st4{fill:none;stroke:#372261;stroke-width:2;stroke-linecap:square;stroke-miterlimit:10;}
	.st5{fill:#372261;}
	.st6{fill:none;stroke:#EAC8A5;stroke-width:2.1305;stroke-miterlimit:10;}
	.st7{fill:none;stroke:#FBC2BA;stroke-width:2.1305;stroke-miterlimit:10;}
	.st8{fill:#E6DBE6;}
	.st9{fill:none;stroke:#D0B5D5;stroke-width:1.5572;stroke-miterlimit:10;}
	.st10{fill:#BEE3FF;}
	.st11{fill:none;stroke:#92D1FF;stroke-width:1.5572;stroke-miterlimit:10;}
	.st12{fill:none;stroke:#EAC8A5;stroke-width:2.1372;stroke-miterlimit:10;}
	.st13{fill:none;stroke:#FBC2BA;stroke-width:2.1372;stroke-miterlimit:10;}
	.st14{fill:#EAC8A5;}
	.st15{fill:#DF9926;}
	.st16{fill:#D8E7DA;}
	.st17{fill:none;stroke:#A8D7CD;stroke-width:2.1848;stroke-miterlimit:10;}
	.st18{fill:none;stroke:#92D1FF;stroke-width:2.1848;stroke-miterlimit:10;}
	.st19{fill:none;stroke:#92D1FF;stroke-width:2.2924;stroke-miterlimit:10;}
	.st20{fill:none;stroke:#FBC2BA;stroke-width:2.2924;stroke-miterlimit:10;}
	.st21{fill:none;stroke:#A8D7CD;stroke-width:2.3054;stroke-miterlimit:10;}
	.st22{fill:none;stroke:#FBC2BA;stroke-width:2.3054;stroke-miterlimit:10;}
	.st23{fill:none;stroke:#A8D7CD;stroke-width:1.5572;stroke-miterlimit:10;}
	.st24{fill:#F16C51;}
	.st25{fill:#FBC2BA;}
	.st26{fill:none;stroke:#EAC8A5;stroke-width:2.3054;stroke-miterlimit:10;}
	.st27{fill:none;stroke:#D0B5D5;stroke-width:2.3054;stroke-miterlimit:10;}
	.st28{display:none;opacity:0.38;}
	.st29{display:inline;fill:none;stroke:#061838;stroke-width:0.5887;stroke-miterlimit:10;}
	.st30{display:inline;}
	.st31{fill:none;stroke:#000000;stroke-width:0.1397;stroke-miterlimit:10;}
	.st32{fill:none;stroke:#4D4F55;stroke-width:0.1397;stroke-miterlimit:10;}
	.st33{fill:none;stroke:#231F20;stroke-width:0.1;stroke-miterlimit:10;}
	.st34{fill:none;stroke:#00321D;stroke-width:3;stroke-miterlimit:10;}
	.st35{fill:none;stroke:#00321D;stroke-width:3;}
	.st36{fill:#00321D;}
	.st37{fill:none;stroke:#2F1113;stroke-width:3;stroke-miterlimit:10;}
	.st38{fill:none;stroke:#2F1113;stroke-width:3;}
	.st39{fill:#2F1113;}
	.st40{fill:none;}
	.st41{fill:none;stroke:#4C0519;stroke-width:3;stroke-miterlimit:10;}
	.st42{fill:#4C0519;}
	.st43{fill:none;stroke:#4C0519;stroke-width:3;}
	.st44{fill:none;stroke:#4C0519;stroke-width:3;stroke-linejoin:bevel;stroke-miterlimit:10;}
	.st45{fill:none;stroke:#4C0519;stroke-width:3;stroke-linejoin:bevel;}
	.st46{fill:none;stroke:#372261;stroke-width:3;stroke-linecap:square;stroke-miterlimit:10;}
	.st47{fill:none;stroke:#2F1113;stroke-width:3;stroke-linejoin:bevel;stroke-miterlimit:10;}
	.st48{fill:none;stroke:#2F1113;stroke-width:3;stroke-linejoin:bevel;}
	.st49{fill:none;stroke:#372261;stroke-width:3;stroke-miterlimit:10;}
	.st50{fill:none;stroke:#372261;stroke-width:3;}
	.st51{fill:none;stroke:#372261;stroke-width:2;}
	.st52{fill:none;stroke:#372261;stroke-width:2;stroke-miterlimit:10;}
	.st53{fill:none;stroke:#061838;stroke-width:2;stroke-miterlimit:10;}
	.st54{fill:#061838;}
	.st55{fill:none;stroke:#061838;stroke-width:2;stroke-linecap:square;stroke-miterlimit:10;}
	.st56{fill:none;stroke:#061838;stroke-width:2;stroke-linejoin:bevel;stroke-miterlimit:10;}
	.st57{fill:none;stroke:#061838;stroke-width:2;stroke-linejoin:bevel;}
	.st58{fill:none;stroke:#372261;stroke-width:2;stroke-linejoin:bevel;}
	.st59{fill:none;stroke:#372261;stroke-width:2;stroke-linejoin:bevel;stroke-miterlimit:10;}
	.st60{fill:#FFFFFF;}
	.st61{fill:none;stroke:#FFFFFF;stroke-width:3;stroke-miterlimit:10;}
	.st62{fill:none;stroke:#FFFFFF;stroke-width:3;stroke-linejoin:round;}
	.st63{fill:none;stroke:#FFFFFF;stroke-width:3;}
	.st64{fill:none;stroke:#00321D;stroke-width:2;stroke-miterlimit:10;}
	.st65{fill:none;stroke:#00321D;stroke-width:2;stroke-linejoin:bevel;stroke-miterlimit:10;}
	.st66{fill:none;stroke:#00321D;stroke-width:2;stroke-linejoin:bevel;}
	.st67{fill:none;stroke:#00321D;stroke-width:2;stroke-linecap:square;stroke-miterlimit:10;}
	.st68{fill:none;stroke:#061838;stroke-width:2;}
	.st69{fill:none;stroke:#00321D;stroke-width:3;stroke-linecap:square;stroke-miterlimit:10;}
	.st70{fill:none;stroke:#4C0519;stroke-width:3;stroke-linecap:square;stroke-miterlimit:10;}
	.st71{fill:none;stroke:#00321D;stroke-width:3;stroke-linejoin:bevel;stroke-miterlimit:10;}
	.st72{fill:none;stroke:#00321D;stroke-width:3;stroke-linejoin:bevel;}
	.st73{fill:none;stroke:#2F1113;stroke-width:3;stroke-linecap:square;stroke-miterlimit:10;}
	.st74{fill:none;stroke:#061838;stroke-width:3;stroke-miterlimit:10;}
	.st75{fill:none;stroke:#061838;stroke-width:3;}
	.st76{fill:#A8D7CD;}
	.st77{fill:#00B28F;}
	.st78{fill:none;stroke:#FFFFFF;stroke-width:1.5;stroke-miterlimit:10;}
	.st79{fill:none;stroke:#FFFFFF;stroke-width:1.5;stroke-linecap:square;stroke-miterlimit:10;}
	.st80{fill:none;stroke:#061838;stroke-width:1.4229;stroke-linecap:square;stroke-miterlimit:10;}
	.st81{fill:none;stroke:#061838;stroke-width:3;stroke-linecap:square;stroke-miterlimit:10;}
	.st82{fill:none;stroke:#00321D;stroke-width:3;stroke-linejoin:round;stroke-miterlimit:10;}
	.st83{fill:none;stroke:#00321D;stroke-width:3;stroke-linejoin:round;}
	.st84{fill:none;stroke:#061838;stroke-width:3;stroke-linejoin:bevel;stroke-miterlimit:10;}
	.st85{fill:none;stroke:#4C0519;stroke-width:3;stroke-linecap:square;stroke-linejoin:bevel;stroke-miterlimit:10;}
	.st86{fill:none;stroke:#4C0519;stroke-width:3;stroke-linecap:square;stroke-linejoin:bevel;}
	.st87{fill:none;stroke:#2F1113;stroke-width:3;stroke-miterlimit:7;}
	.st88{fill:none;stroke:#372261;stroke-width:2;stroke-linecap:square;stroke-miterlimit:10;stroke-dasharray:3.9907,3.9907;}
	.st89{fill:none;stroke:#372261;stroke-width:2;stroke-linecap:square;stroke-miterlimit:10;stroke-dasharray:6,6;}
	.st90{fill:none;stroke:#00B28F;stroke-width:3;stroke-linejoin:bevel;stroke-miterlimit:10;}
	.st91{fill:none;stroke:#00B28F;stroke-width:3;stroke-miterlimit:10;}
	.st92{fill:none;stroke:#00B28F;stroke-width:3;stroke-linejoin:bevel;}
	.st93{fill:none;stroke:#A8D7CD;stroke-width:3;stroke-linejoin:bevel;stroke-miterlimit:10;}
	.st94{fill:none;stroke:#7E7E7E;stroke-width:3;stroke-linejoin:bevel;stroke-miterlimit:10;}
	.st95{fill:none;stroke:#A8D7CD;stroke-width:3;stroke-linejoin:bevel;}
	.st96{fill:none;stroke:#00B28F;stroke-width:3;stroke-linecap:square;stroke-miterlimit:10;}
	.st97{fill:none;stroke:#A8D7CD;stroke-width:2;stroke-miterlimit:10;}
	.st98{fill:none;stroke:#061838;stroke-width:2;stroke-linecap:round;stroke-miterlimit:10;}
</style>
<g id="Layer_2">
	<path class="st0" d="M392.1,200.3c0,62.3-29.7,117.7-75.7,152.7c-2.2,1.7-4.5,3.4-6.9,5c-31,21.6-68.7,34.2-109.4,34.2
		c-40.6,0-78.3-12.6-109.4-34.2c-2.3-1.6-4.6-3.3-6.9-5C37.9,318,8.2,262.6,8.2,200.3c0-19.2,2.8-37.8,8.1-55.3
		c0.8-2.7,1.7-5.4,2.6-8.1c25.7-73.6,95-126.7,177-128.5c1.4,0,2.8,0,4.2,0c1.4,0,2.8,0,4.2,0c81.9,1.8,151.2,54.9,177,128.5
		c0.9,2.7,1.8,5.3,2.6,8.1v0C389.2,162.6,392.1,181.1,392.1,200.3z"/>
	<path class="st14" d="M195.9,0.4v8.1C114,10.3,44.7,63.4,18.9,137l-7.7-2.5c6.4-18.3,15.4-35.6,26.9-51.4
		c12.1-16.7,26.7-31.5,43.4-43.8C114.9,14.7,154.4,1.2,195.9,0.4z"/>
	<path class="st15" d="M195.9,8.5v134.1c-22,1.6-41.1,15.5-49.4,35.9L18.9,137C44.7,63.4,114,10.3,195.9,8.5z"/>
	<path class="st14" d="M389,134.5l-7.7,2.5c-25.7-73.6-95-126.7-177-128.5V0.4c41.5,0.9,81,14.3,114.4,39
		c16.6,12.3,31.2,27,43.4,43.7C373.6,98.9,382.7,116.2,389,134.5z"/>
	<path class="st15" d="M381.3,137l-127.6,41.5c-8.3-20.4-27.4-34.3-49.4-35.9V8.5C286.3,10.3,355.6,63.4,381.3,137z"/>
	<path class="st14" d="M83.9,353.1l-4.7,6.5c-23.5-17.9-43-41-56.6-67.1C7.9,264.3,0.1,232.4,0.1,200.3c0-19.7,2.9-39.1,8.5-57.8
		l7.7,2.5c-5.3,17.5-8.1,36.1-8.1,55.3C8.2,262.6,37.9,318,83.9,353.1z"/>
	<path class="st15" d="M162.8,244.5L83.9,353.1C37.9,318,8.2,262.6,8.2,200.3c0-19.2,2.8-37.8,8.1-55.3l127.6,41.4
		c-1.1,4.5-1.7,9.1-1.7,13.8C142.3,217.4,149.9,233.6,162.8,244.5z"/>
	<path class="st14" d="M314.3,364.6c-33.6,23.4-73,35.7-114.1,35.7c-41.2,0-80.5-12.3-114.1-35.7l4.7-6.5
		c31,21.6,68.7,34.2,109.4,34.2c40.6,0,78.3-12.6,109.4-34.2L314.3,364.6z"/>
	<path class="st15" d="M309.5,358.1c-31,21.6-68.7,34.2-109.4,34.2c-40.6,0-78.3-12.6-109.4-34.2l78.8-108.5
		c9.1,5.7,19.6,8.7,30.5,8.7c10.9,0,21.4-3,30.5-8.7L309.5,358.1z"/>
	<path class="st14" d="M400.1,200.3c0,32.1-7.8,64-22.5,92.2c-13.6,26.1-33.1,49.2-56.6,67.1l-4.7-6.5c46-35.1,75.7-90.4,75.7-152.7
		c0-19.2-2.8-37.8-8.1-55.3v0l7.7-2.5C397.3,161.2,400.1,180.6,400.1,200.3z"/>
	<path class="st15" d="M392.1,200.3c0,62.3-29.7,117.7-75.7,152.7l-78.9-108.5c12.9-10.9,20.5-27.2,20.5-44.2
		c0-4.7-0.6-9.3-1.7-13.8L384,145.1C389.2,162.6,392.1,181.1,392.1,200.3z"/>
	<path class="st0" d="M272.3,200.4c0,23.4-11.2,44.3-28.5,57.4c-0.8,0.6-1.7,1.3-2.6,1.9c-11.7,8.1-25.8,12.9-41.1,12.9
		c-15.3,0-29.5-4.8-41.1-12.9c-0.9-0.6-1.7-1.2-2.6-1.9c-17.3-13.2-28.5-34-28.5-57.4c0-7.2,1.1-14.2,3-20.8c0.3-1,0.6-2,1-3
		c9.7-27.7,35.7-47.7,66.6-48.3c0.5,0,1.1,0,1.6,0c0.5,0,1.1,0,1.6,0c30.8,0.7,56.9,20.7,66.6,48.3c0.4,1,0.7,2,1,3v0
		C271.3,186.1,272.3,193.1,272.3,200.4z"/>
</g>
<g id="Layer_1" class="st28">
	<g class="st30">
		<rect x="251.7" y="44.7" class="st31" width="10" height="10"/>
		<rect x="261.7" y="44.7" class="st31" width="10" height="10"/>
		<rect x="271.7" y="44.7" class="st31" width="10" height="10"/>
		<rect x="281.7" y="44.7" class="st31" width="10" height="10"/>
		<rect x="291.7" y="44.7" class="st31" width="10" height="10"/>
		<rect x="301.7" y="44.7" class="st31" width="10" height="10"/>
		<rect x="251.7" y="54.7" class="st31" width="10" height="10"/>
		<rect x="261.7" y="54.7" class="st31" width="10" height="10"/>
		<rect x="271.7" y="54.7" class="st31" width="10" height="10"/>
		<rect x="281.7" y="54.7" class="st31" width="10" height="10"/>
		<rect x="291.7" y="54.7" class="st31" width="10" height="10"/>
		<rect x="301.7" y="54.7" class="st31" width="10" height="10"/>
		<rect x="251.7" y="64.7" class="st31" width="10" height="10"/>
		<rect x="261.7" y="64.7" class="st31" width="10" height="10"/>
		<rect x="271.7" y="64.7" class="st31" width="10" height="10"/>
		<rect x="281.7" y="64.7" class="st31" width="10" height="10"/>
		<rect x="291.7" y="64.7" class="st31" width="10" height="10"/>
		<rect x="301.7" y="64.7" class="st31" width="10" height="10"/>
		<rect x="251.7" y="74.7" class="st31" width="10" height="10"/>
		<rect x="261.7" y="74.7" class="st31" width="10" height="10"/>
		<rect x="271.7" y="74.7" class="st31" width="10" height="10"/>
		<rect x="281.7" y="74.7" class="st31" width="10" height="10"/>
		<rect x="291.7" y="74.7" class="st31" width="10" height="10"/>
		<rect x="301.7" y="74.7" class="st31" width="10" height="10"/>
		<rect x="251.7" y="84.7" class="st31" width="10" height="10"/>
		<rect x="261.7" y="84.7" class="st31" width="10" height="10"/>
		<rect x="271.7" y="84.7" class="st31" width="10" height="10"/>
		<rect x="281.7" y="84.7" class="st31" width="10" height="10"/>
		<rect x="291.7" y="84.7" class="st31" width="10" height="10"/>
		<rect x="301.7" y="84.7" class="st31" width="10" height="10"/>
		<rect x="251.7" y="94.7" class="st31" width="10" height="10"/>
		<rect x="261.7" y="94.7" class="st31" width="10" height="10"/>
		<rect x="271.7" y="94.7" class="st31" width="10" height="10"/>
		<rect x="281.7" y="94.7" class="st31" width="10" height="10"/>
		<rect x="291.7" y="94.7" class="st31" width="10" height="10"/>
		<rect x="301.7" y="94.7" class="st31" width="10" height="10"/>
		<rect x="251.7" y="104.7" class="st31" width="10" height="10"/>
		<rect x="261.7" y="104.7" class="st31" width="10" height="10"/>
		<rect x="271.7" y="104.7" class="st31" width="10" height="10"/>
		<rect x="281.7" y="104.7" class="st31" width="10" height="10"/>
		<rect x="291.7" y="104.7" class="st31" width="10" height="10"/>
		<rect x="301.7" y="104.7" class="st31" width="10" height="10"/>
	</g>
	<g class="st30">
		<rect x="92.7" y="44.7" class="st31" width="10" height="10"/>
		<rect x="102.7" y="44.7" class="st31" width="10" height="10"/>
		<rect x="112.7" y="44.7" class="st31" width="10" height="10"/>
		<rect x="122.7" y="44.7" class="st31" width="10" height="10"/>
		<rect x="132.7" y="44.7" class="st31" width="10" height="10"/>
		<rect x="142.7" y="44.7" class="st31" width="10" height="10"/>
		<rect x="92.7" y="54.7" class="st31" width="10" height="10"/>
		<rect x="102.7" y="54.7" class="st31" width="10" height="10"/>
		<rect x="112.7" y="54.7" class="st31" width="10" height="10"/>
		<rect x="122.7" y="54.7" class="st31" width="10" height="10"/>
		<rect x="132.7" y="54.7" class="st31" width="10" height="10"/>
		<rect x="142.7" y="54.7" class="st31" width="10" height="10"/>
		<rect x="92.7" y="64.7" class="st31" width="10" height="10"/>
		<rect x="102.7" y="64.7" class="st31" width="10" height="10"/>
		<rect x="112.7" y="64.7" class="st31" width="10" height="10"/>
		<rect x="122.7" y="64.7" class="st31" width="10" height="10"/>
		<rect x="132.7" y="64.7" class="st31" width="10" height="10"/>
		<rect x="142.7" y="64.7" class="st31" width="10" height="10"/>
		<rect x="92.7" y="74.7" class="st31" width="10" height="10"/>
		<rect x="102.7" y="74.7" class="st31" width="10" height="10"/>
		<rect x="112.7" y="74.7" class="st31" width="10" height="10"/>
		<rect x="122.7" y="74.7" class="st31" width="10" height="10"/>
		<rect x="132.7" y="74.7" class="st31" width="10" height="10"/>
		<rect x="142.7" y="74.7" class="st31" width="10" height="10"/>
		<rect x="92.7" y="84.7" class="st31" width="10" height="10"/>
		<rect x="102.7" y="84.7" class="st31" width="10" height="10"/>
		<rect x="112.7" y="84.7" class="st31" width="10" height="10"/>
		<rect x="122.7" y="84.7" class="st31" width="10" height="10"/>
		<rect x="132.7" y="84.7" class="st31" width="10" height="10"/>
		<rect x="142.7" y="84.7" class="st31" width="10" height="10"/>
		<rect x="92.7" y="94.7" class="st31" width="10" height="10"/>
		<rect x="102.7" y="94.7" class="st31" width="10" height="10"/>
		<rect x="112.7" y="94.7" class="st31" width="10" height="10"/>
		<rect x="122.7" y="94.7" class="st31" width="10" height="10"/>
		<rect x="132.7" y="94.7" class="st31" width="10" height="10"/>
		<rect x="142.7" y="94.7" class="st31" width="10" height="10"/>
		<rect x="92.7" y="104.7" class="st31" width="10" height="10"/>
		<rect x="102.7" y="104.7" class="st31" width="10" height="10"/>
		<rect x="112.7" y="104.7" class="st31" width="10" height="10"/>
		<rect x="122.7" y="104.7" class="st31" width="10" height="10"/>
		<rect x="132.7" y="104.7" class="st31" width="10" height="10"/>
		<rect x="142.7" y="104.7" class="st31" width="10" height="10"/>
	</g>
	<g class="st30">
		<rect x="51.8" y="175.3" class="st31" width="10" height="10"/>
		<rect x="61.8" y="175.3" class="st31" width="10" height="10"/>
		<rect x="71.8" y="175.3" class="st31" width="10" height="10"/>
		<rect x="81.8" y="175.3" class="st31" width="10" height="10"/>
		<rect x="91.8" y="175.3" class="st31" width="10" height="10"/>
		<rect x="101.8" y="175.3" class="st31" width="10" height="10"/>
		<rect x="51.8" y="185.3" class="st31" width="10" height="10"/>
		<rect x="61.8" y="185.3" class="st31" width="10" height="10"/>
		<rect x="71.8" y="185.3" class="st31" width="10" height="10"/>
		<rect x="81.8" y="185.3" class="st31" width="10" height="10"/>
		<rect x="91.8" y="185.3" class="st31" width="10" height="10"/>
		<rect x="101.8" y="185.3" class="st31" width="10" height="10"/>
		<rect x="51.8" y="195.3" class="st31" width="10" height="10"/>
		<rect x="61.8" y="195.3" class="st31" width="10" height="10"/>
		<rect x="71.8" y="195.3" class="st31" width="10" height="10"/>
		<rect x="81.8" y="195.3" class="st31" width="10" height="10"/>
		<rect x="91.8" y="195.3" class="st31" width="10" height="10"/>
		<rect x="101.8" y="195.3" class="st31" width="10" height="10"/>
		<rect x="51.8" y="205.3" class="st31" width="10" height="10"/>
		<rect x="61.8" y="205.3" class="st31" width="10" height="10"/>
		<rect x="71.8" y="205.3" class="st31" width="10" height="10"/>
		<rect x="81.8" y="205.3" class="st31" width="10" height="10"/>
		<rect x="91.8" y="205.3" class="st31" width="10" height="10"/>
		<rect x="101.8" y="205.3" class="st31" width="10" height="10"/>
		<rect x="51.8" y="215.3" class="st31" width="10" height="10"/>
		<rect x="61.8" y="215.3" class="st31" width="10" height="10"/>
		<rect x="71.8" y="215.3" class="st31" width="10" height="10"/>
		<rect x="81.8" y="215.3" class="st31" width="10" height="10"/>
		<rect x="91.8" y="215.3" class="st31" width="10" height="10"/>
		<rect x="101.8" y="215.3" class="st31" width="10" height="10"/>
		<rect x="51.8" y="225.3" class="st31" width="10" height="10"/>
		<rect x="61.8" y="225.3" class="st31" width="10" height="10"/>
		<rect x="71.8" y="225.3" class="st31" width="10" height="10"/>
		<rect x="81.8" y="225.3" class="st31" width="10" height="10"/>
		<rect x="91.8" y="225.3" class="st31" width="10" height="10"/>
		<rect x="101.8" y="225.3" class="st31" width="10" height="10"/>
		<rect x="51.8" y="235.3" class="st31" width="10" height="10"/>
		<rect x="61.8" y="235.3" class="st31" width="10" height="10"/>
		<rect x="71.8" y="235.3" class="st31" width="10" height="10"/>
		<rect x="81.8" y="235.3" class="st31" width="10" height="10"/>
		<rect x="91.8" y="235.3" class="st31" width="10" height="10"/>
		<rect x="101.8" y="235.3" class="st31" width="10" height="10"/>
	</g>
	<g class="st30">
		<rect x="168.4" y="275.8" class="st31" width="10" height="10"/>
		<rect x="178.4" y="275.8" class="st31" width="10" height="10"/>
		<rect x="188.4" y="275.8" class="st31" width="10" height="10"/>
		<rect x="198.4" y="275.8" class="st31" width="10" height="10"/>
		<rect x="208.4" y="275.8" class="st31" width="10" height="10"/>
		<rect x="218.4" y="275.8" class="st31" width="10" height="10"/>
		<rect x="168.4" y="285.8" class="st31" width="10" height="10"/>
		<rect x="178.4" y="285.8" class="st31" width="10" height="10"/>
		<rect x="188.4" y="285.8" class="st31" width="10" height="10"/>
		<rect x="198.4" y="285.8" class="st31" width="10" height="10"/>
		<rect x="208.4" y="285.8" class="st31" width="10" height="10"/>
		<rect x="218.4" y="285.8" class="st31" width="10" height="10"/>
		<rect x="168.4" y="295.8" class="st31" width="10" height="10"/>
		<rect x="178.4" y="295.8" class="st31" width="10" height="10"/>
		<rect x="188.4" y="295.8" class="st31" width="10" height="10"/>
		<rect x="198.4" y="295.8" class="st31" width="10" height="10"/>
		<rect x="208.4" y="295.8" class="st31" width="10" height="10"/>
		<rect x="218.4" y="295.8" class="st31" width="10" height="10"/>
		<rect x="168.4" y="305.8" class="st31" width="10" height="10"/>
		<rect x="178.4" y="305.8" class="st31" width="10" height="10"/>
		<rect x="188.4" y="305.8" class="st31" width="10" height="10"/>
		<rect x="198.4" y="305.8" class="st31" width="10" height="10"/>
		<rect x="208.4" y="305.8" class="st31" width="10" height="10"/>
		<rect x="218.4" y="305.8" class="st31" width="10" height="10"/>
		<rect x="168.4" y="315.8" class="st31" width="10" height="10"/>
		<rect x="178.4" y="315.8" class="st31" width="10" height="10"/>
		<rect x="188.4" y="315.8" class="st31" width="10" height="10"/>
		<rect x="198.4" y="315.8" class="st31" width="10" height="10"/>
		<rect x="208.4" y="315.8" class="st31" width="10" height="10"/>
		<rect x="218.4" y="315.8" class="st31" width="10" height="10"/>
		<rect x="168.4" y="325.8" class="st31" width="10" height="10"/>
		<rect x="178.4" y="325.8" class="st31" width="10" height="10"/>
		<rect x="188.4" y="325.8" class="st31" width="10" height="10"/>
		<rect x="198.4" y="325.8" class="st31" width="10" height="10"/>
		<rect x="208.4" y="325.8" class="st31" width="10" height="10"/>
		<rect x="218.4" y="325.8" class="st31" width="10" height="10"/>
		<rect x="168.4" y="335.8" class="st31" width="10" height="10"/>
		<rect x="178.4" y="335.8" class="st31" width="10" height="10"/>
		<rect x="188.4" y="335.8" class="st31" width="10" height="10"/>
		<rect x="198.4" y="335.8" class="st31" width="10" height="10"/>
		<rect x="208.4" y="335.8" class="st31" width="10" height="10"/>
		<rect x="218.4" y="335.8" class="st31" width="10" height="10"/>
	</g>
	<g class="st30">
		<rect x="291.8" y="179.3" class="st31" width="10" height="10"/>
		<rect x="301.8" y="179.3" class="st31" width="10" height="10"/>
		<rect x="311.8" y="179.3" class="st31" width="10" height="10"/>
		<rect x="321.8" y="179.3" class="st31" width="10" height="10"/>
		<rect x="331.8" y="179.3" class="st31" width="10" height="10"/>
		<rect x="341.8" y="179.3" class="st31" width="10" height="10"/>
		<rect x="291.8" y="189.3" class="st31" width="10" height="10"/>
		<rect x="301.8" y="189.3" class="st31" width="10" height="10"/>
		<rect x="311.8" y="189.3" class="st31" width="10" height="10"/>
		<rect x="321.8" y="189.3" class="st31" width="10" height="10"/>
		<rect x="331.8" y="189.3" class="st31" width="10" height="10"/>
		<rect x="341.8" y="189.3" class="st31" width="10" height="10"/>
		<rect x="291.8" y="199.3" class="st31" width="10" height="10"/>
		<rect x="301.8" y="199.3" class="st31" width="10" height="10"/>
		<rect x="311.8" y="199.3" class="st31" width="10" height="10"/>
		<rect x="321.8" y="199.3" class="st31" width="10" height="10"/>
		<rect x="331.8" y="199.3" class="st31" width="10" height="10"/>
		<rect x="341.8" y="199.3" class="st31" width="10" height="10"/>
		<rect x="291.8" y="209.3" class="st31" width="10" height="10"/>
		<rect x="301.8" y="209.3" class="st31" width="10" height="10"/>
		<rect x="311.8" y="209.3" class="st31" width="10" height="10"/>
		<rect x="321.8" y="209.3" class="st31" width="10" height="10"/>
		<rect x="331.8" y="209.3" class="st31" width="10" height="10"/>
		<rect x="341.8" y="209.3" class="st31" width="10" height="10"/>
		<rect x="291.8" y="219.3" class="st31" width="10" height="10"/>
		<rect x="301.8" y="219.3" class="st31" width="10" height="10"/>
		<rect x="311.8" y="219.3" class="st31" width="10" height="10"/>
		<rect x="321.8" y="219.3" class="st31" width="10" height="10"/>
		<rect x="331.8" y="219.3" class="st31" width="10" height="10"/>
		<rect x="341.8" y="219.3" class="st31" width="10" height="10"/>
		<rect x="291.8" y="229.3" class="st31" width="10" height="10"/>
		<rect x="301.8" y="229.3" class="st31" width="10" height="10"/>
		<rect x="311.8" y="229.3" class="st31" width="10" height="10"/>
		<rect x="321.8" y="229.3" class="st31" width="10" height="10"/>
		<rect x="331.8" y="229.3" class="st31" width="10" height="10"/>
		<rect x="341.8" y="229.3" class="st31" width="10" height="10"/>
		<rect x="291.8" y="239.3" class="st31" width="10" height="10"/>
		<rect x="301.8" y="239.3" class="st31" width="10" height="10"/>
		<rect x="311.8" y="239.3" class="st31" width="10" height="10"/>
		<rect x="321.8" y="239.3" class="st31" width="10" height="10"/>
		<rect x="331.8" y="239.3" class="st31" width="10" height="10"/>
		<rect x="341.8" y="239.3" class="st31" width="10" height="10"/>
	</g>
</g>
<g id="Layer_3">
	<g>
		<path class="st60" d="M87.1,126.1c0.6,0.3,1.4,0.6,2.3,0.6c1.1,0,1.7-0.5,1.7-1.3c0-0.7-0.5-1.1-1.7-1.6c-1.6-0.6-2.5-1.4-2.5-2.7
			c0-1.5,1.3-2.7,3.3-2.7c1,0,1.8,0.2,2.3,0.5l-0.4,1.4c-0.3-0.2-1-0.4-1.9-0.4c-1.1,0-1.6,0.6-1.6,1.1c0,0.7,0.5,1.1,1.8,1.6
			c1.6,0.6,2.4,1.4,2.4,2.8c0,1.5-1.1,2.8-3.6,2.8c-1,0-2-0.3-2.5-0.6L87.1,126.1z"/>
		<path class="st60" d="M95.6,125c0,1.2,1,1.8,2.1,1.8c0.8,0,1.4-0.1,1.9-0.3l0.3,1.2c-0.6,0.2-1.4,0.4-2.4,0.4
			c-2.2,0-3.5-1.4-3.5-3.4c0-1.9,1.1-3.7,3.3-3.7c2.2,0,2.9,1.8,2.9,3.3c0,0.3,0,0.6-0.1,0.7H95.6z M98.6,123.8
			c0-0.6-0.3-1.7-1.4-1.7c-1.1,0-1.5,1-1.6,1.7H98.6z"/>
		<path class="st60" d="M101.6,118h1.7v9.9h-1.7V118z"/>
		<path class="st60" d="M105.4,128v-5.5h-0.9v-1.3h0.9v-0.3c0-0.9,0.2-1.8,0.8-2.3c0.5-0.5,1.2-0.7,1.8-0.7c0.5,0,0.8,0.1,1.1,0.2
			l-0.1,1.3c-0.2-0.1-0.4-0.1-0.7-0.1c-0.9,0-1.1,0.7-1.1,1.6v0.4h1.5v1.3h-1.5v5.5H105.4z"/>
		<path class="st60" d="M112.7,123.6v1.2h-3.6v-1.2H112.7z"/>
		<path class="st60" d="M114,126.4c0.4,0.2,1.1,0.5,1.8,0.5c0.8,0,1.1-0.3,1.1-0.8c0-0.5-0.3-0.7-1.1-1c-1.3-0.5-1.9-1.2-1.9-2
			c0-1.2,1-2.1,2.6-2.1c0.8,0,1.4,0.2,1.8,0.4l-0.3,1.2c-0.3-0.2-0.8-0.4-1.4-0.4c-0.6,0-1,0.3-1,0.7c0,0.4,0.3,0.6,1.2,1
			c1.2,0.4,1.8,1.1,1.8,2.1c0,1.2-1,2.1-2.8,2.1c-0.8,0-1.6-0.2-2.1-0.5L114,126.4z"/>
		<path class="st60" d="M121.1,125c0,1.2,1,1.8,2.1,1.8c0.8,0,1.4-0.1,1.9-0.3l0.3,1.2c-0.6,0.2-1.4,0.4-2.4,0.4
			c-2.2,0-3.5-1.4-3.5-3.4c0-1.9,1.1-3.7,3.3-3.7c2.2,0,2.9,1.8,2.9,3.3c0,0.3,0,0.6-0.1,0.7H121.1z M124.1,123.8
			c0-0.6-0.3-1.7-1.4-1.7c-1.1,0-1.5,1-1.6,1.7H124.1z"/>
		<path class="st60" d="M127.2,123.3c0-0.9,0-1.6-0.1-2.2h1.5l0.1,1.3h0.1c0.3-1,1.1-1.5,1.9-1.5c0.2,0,0.3,0,0.4,0v1.6
			c-0.1,0-0.3-0.1-0.5-0.1c-0.8,0-1.4,0.5-1.5,1.3c0,0.2-0.1,0.3-0.1,0.5v3.5h-1.7V123.3z"/>
		<path class="st60" d="M133.5,121.1l1.1,3.5c0.2,0.6,0.3,1.1,0.5,1.7h0c0.1-0.6,0.3-1.1,0.5-1.7l1.1-3.5h1.8l-2.6,6.8h-1.7
			l-2.5-6.8H133.5z"/>
		<path class="st60" d="M141.4,119.2c0,0.5-0.4,0.9-1,0.9c-0.6,0-1-0.4-1-0.9c0-0.5,0.4-0.9,1-0.9
			C141,118.3,141.4,118.7,141.4,119.2z M139.6,128v-6.8h1.7v6.8H139.6z"/>
		<path class="st60" d="M148.2,127.8c-0.4,0.2-1.1,0.3-1.9,0.3c-2.1,0-3.5-1.4-3.5-3.5c0-2,1.4-3.6,3.8-3.6c0.6,0,1.3,0.1,1.7,0.3
			l-0.3,1.3c-0.3-0.1-0.7-0.3-1.3-0.3c-1.3,0-2.1,1-2.1,2.2c0,1.4,0.9,2.2,2.1,2.2c0.6,0,1-0.1,1.4-0.3L148.2,127.8z"/>
		<path class="st60" d="M150.5,125c0,1.2,1,1.8,2.1,1.8c0.8,0,1.4-0.1,1.9-0.3l0.3,1.2c-0.6,0.2-1.4,0.4-2.4,0.4
			c-2.2,0-3.5-1.4-3.5-3.4c0-1.9,1.1-3.7,3.3-3.7c2.2,0,2.9,1.8,2.9,3.3c0,0.3,0,0.6-0.1,0.7H150.5z M153.5,123.8
			c0-0.6-0.3-1.7-1.4-1.7c-1.1,0-1.5,1-1.6,1.7H153.5z"/>
		<path class="st60" d="M101.8,136.8c0-0.9,0-1.6-0.1-2.3h1.5l0.1,1h0c0.5-0.8,1.3-1.2,2.3-1.2c1.6,0,2.9,1.3,2.9,3.5
			c0,2.5-1.6,3.7-3.1,3.7c-0.9,0-1.6-0.4-1.9-0.9h0v3.5h-1.7V136.8z M103.5,138.4c0,0.2,0,0.3,0.1,0.5c0.2,0.7,0.8,1.2,1.5,1.2
			c1.1,0,1.7-0.9,1.7-2.3c0-1.2-0.6-2.2-1.7-2.2c-0.7,0-1.4,0.5-1.5,1.3c0,0.1-0.1,0.3-0.1,0.4V138.4z"/>
		<path class="st60" d="M116.5,137.8c0,2.5-1.8,3.6-3.5,3.6c-1.9,0-3.4-1.3-3.4-3.5c0-2.2,1.5-3.6,3.5-3.6
			C115.1,134.3,116.5,135.8,116.5,137.8z M111.3,137.9c0,1.3,0.6,2.3,1.7,2.3c1,0,1.7-1,1.7-2.3c0-1.1-0.5-2.3-1.7-2.3
			C111.8,135.6,111.3,136.8,111.3,137.9z"/>
		<path class="st60" d="M117.9,136.7c0-0.9,0-1.6-0.1-2.2h1.5l0.1,1.3h0.1c0.3-1,1.1-1.5,1.9-1.5c0.2,0,0.3,0,0.4,0v1.6
			c-0.1,0-0.3-0.1-0.5-0.1c-0.8,0-1.4,0.5-1.5,1.3c0,0.2-0.1,0.3-0.1,0.5v3.5h-1.7V136.7z"/>
		<path class="st60" d="M125.2,132.5v1.9h1.6v1.3h-1.6v3c0,0.8,0.2,1.3,0.9,1.3c0.3,0,0.5,0,0.7-0.1l0,1.3c-0.3,0.1-0.7,0.2-1.2,0.2
			c-0.6,0-1.2-0.2-1.5-0.6c-0.4-0.4-0.5-1-0.5-1.9v-3.2h-1v-1.3h1v-1.5L125.2,132.5z"/>
		<path class="st60" d="M131.9,141.3l-0.1-0.8h0c-0.4,0.5-1.1,0.9-2,0.9c-1.4,0-2.1-1-2.1-2c0-1.7,1.5-2.6,4-2.6v-0.1
			c0-0.4-0.2-1.2-1.4-1.2c-0.7,0-1.4,0.2-1.8,0.5l-0.3-1.1c0.5-0.3,1.4-0.6,2.5-0.6c2.2,0,2.8,1.4,2.8,2.9v2.5c0,0.6,0,1.2,0.1,1.6
			H131.9z M131.7,138c-1.2,0-2.4,0.2-2.4,1.3c0,0.7,0.4,1,1,1c0.7,0,1.2-0.4,1.3-0.9c0-0.1,0.1-0.3,0.1-0.4V138z"/>
		<path class="st60" d="M135.2,131.4h1.7v9.9h-1.7V131.4z"/>
		<path class="st60" d="M138.7,139.7c0.4,0.2,1.1,0.5,1.8,0.5c0.8,0,1.1-0.3,1.1-0.8c0-0.5-0.3-0.7-1.1-1c-1.3-0.5-1.9-1.2-1.9-2
			c0-1.2,1-2.1,2.6-2.1c0.8,0,1.4,0.2,1.8,0.4l-0.3,1.2c-0.3-0.2-0.8-0.4-1.4-0.4c-0.6,0-1,0.3-1,0.7c0,0.4,0.3,0.6,1.2,1
			c1.2,0.4,1.8,1.1,1.8,2.1c0,1.2-1,2.1-2.8,2.1c-0.8,0-1.6-0.2-2.1-0.5L138.7,139.7z"/>
	</g>
	<g>
		<path class="st60" d="M58.5,258.9c-0.4,0.2-1.3,0.4-2.4,0.4c-3,0-4.8-1.9-4.8-4.7c0-3.1,2.2-5,5-5c1.1,0,1.9,0.2,2.3,0.4l-0.4,1.4
			c-0.4-0.2-1.1-0.4-1.8-0.4c-1.9,0-3.3,1.2-3.3,3.5c0,2.1,1.2,3.4,3.3,3.4c0.7,0,1.4-0.1,1.9-0.3L58.5,258.9z"/>
		<path class="st60" d="M63.6,259.2l-0.1-0.8h0c-0.4,0.5-1.1,0.9-2,0.9c-1.4,0-2.1-1-2.1-2c0-1.7,1.5-2.6,4-2.6v-0.1
			c0-0.4-0.2-1.2-1.4-1.2c-0.7,0-1.4,0.2-1.8,0.5l-0.3-1.1c0.5-0.3,1.4-0.6,2.5-0.6c2.2,0,2.8,1.4,2.8,2.9v2.5c0,0.6,0,1.2,0.1,1.6
			H63.6z M63.4,255.8c-1.2,0-2.4,0.2-2.4,1.3c0,0.7,0.4,1,1,1c0.7,0,1.2-0.4,1.3-0.9c0-0.1,0.1-0.3,0.1-0.4V255.8z"/>
		<path class="st60" d="M66.9,254.4c0-0.8,0-1.4-0.1-2h1.5l0.1,1h0c0.3-0.5,1-1.2,2.1-1.2c0.9,0,1.6,0.5,1.9,1.3h0
			c0.2-0.4,0.5-0.7,0.8-0.9c0.4-0.3,0.8-0.4,1.4-0.4c1.1,0,2.3,0.8,2.3,3v4h-1.7v-3.8c0-1.1-0.4-1.8-1.2-1.8c-0.6,0-1,0.4-1.2,0.9
			c0,0.2-0.1,0.4-0.1,0.6v4.1h-1.7v-4c0-1-0.4-1.6-1.2-1.6c-0.6,0-1.1,0.5-1.2,1c-0.1,0.2-0.1,0.4-0.1,0.6v4h-1.7V254.4z"/>
		<path class="st60" d="M78.8,254.6c0-0.9,0-1.6-0.1-2.3h1.5l0.1,1h0c0.5-0.8,1.3-1.2,2.3-1.2c1.6,0,2.9,1.3,2.9,3.5
			c0,2.5-1.6,3.7-3.1,3.7c-0.9,0-1.6-0.4-1.9-0.9h0v3.5h-1.7V254.6z M80.5,256.3c0,0.2,0,0.3,0.1,0.5c0.2,0.7,0.8,1.2,1.5,1.2
			c1.1,0,1.7-0.9,1.7-2.3c0-1.2-0.6-2.2-1.7-2.2c-0.7,0-1.4,0.5-1.5,1.3c0,0.1-0.1,0.3-0.1,0.4V256.3z"/>
		<path class="st60" d="M90.8,259.2l-0.1-0.8h0c-0.4,0.5-1.1,0.9-2,0.9c-1.4,0-2.1-1-2.1-2c0-1.7,1.5-2.6,4-2.6v-0.1
			c0-0.4-0.2-1.2-1.4-1.2c-0.7,0-1.4,0.2-1.8,0.5l-0.3-1.1c0.5-0.3,1.4-0.6,2.5-0.6c2.2,0,2.8,1.4,2.8,2.9v2.5c0,0.6,0,1.2,0.1,1.6
			H90.8z M90.6,255.8c-1.2,0-2.4,0.2-2.4,1.3c0,0.7,0.4,1,1,1c0.7,0,1.2-0.4,1.3-0.9c0-0.1,0.1-0.3,0.1-0.4V255.8z"/>
		<path class="st60" d="M95.9,250.4c0,0.5-0.4,0.9-1,0.9c-0.6,0-1-0.4-1-0.9c0-0.5,0.4-0.9,1-0.9C95.5,249.5,95.9,249.9,95.9,250.4z
			 M94.1,259.2v-6.8h1.7v6.8H94.1z"/>
		<path class="st60" d="M103.9,252.4c0,0.5-0.1,1-0.1,2v3.9c0,1.4-0.3,2.5-1,3.1c-0.7,0.6-1.7,0.8-2.6,0.8c-0.9,0-1.8-0.2-2.4-0.5
			l0.4-1.3c0.4,0.3,1.2,0.5,2,0.5c1.1,0,2-0.6,2-2.1v-0.6h0c-0.4,0.6-1.1,1-2,1c-1.7,0-2.9-1.4-2.9-3.3c0-2.2,1.5-3.6,3.1-3.6
			c1,0,1.7,0.5,2,1.1h0l0.1-0.9H103.9z M102.1,255.1c0-0.2,0-0.3-0.1-0.5c-0.2-0.6-0.7-1.1-1.4-1.1c-1,0-1.7,0.8-1.7,2.2
			c0,1.2,0.6,2.1,1.7,2.1c0.6,0,1.2-0.4,1.4-1c0-0.2,0.1-0.4,0.1-0.6V255.1z"/>
		<path class="st60" d="M105.6,254.4c0-0.8,0-1.4-0.1-2h1.5l0.1,1h0c0.3-0.5,1-1.2,2.2-1.2c1.2,0,2.4,0.8,2.4,2.9v4h-1.7v-3.9
			c0-1-0.4-1.7-1.3-1.7c-0.7,0-1.2,0.5-1.3,1c-0.1,0.2-0.1,0.4-0.1,0.6v4h-1.7V254.4z"/>
		<path class="st60" d="M42,267.7c0-0.8,0-1.4-0.1-2h1.5l0.1,1h0c0.3-0.5,1-1.2,2.1-1.2c0.9,0,1.6,0.5,1.9,1.3h0
			c0.2-0.4,0.5-0.7,0.8-0.9c0.4-0.3,0.8-0.4,1.4-0.4c1.1,0,2.3,0.8,2.3,3v4h-1.7v-3.8c0-1.1-0.4-1.8-1.2-1.8c-0.6,0-1,0.4-1.2,0.9
			c0,0.2-0.1,0.4-0.1,0.6v4.1h-1.7v-4c0-1-0.4-1.6-1.2-1.6c-0.6,0-1.1,0.5-1.2,1c-0.1,0.2-0.1,0.4-0.1,0.6v4H42V267.7z"/>
		<path class="st60" d="M57.7,272.5l-0.1-0.8h0c-0.4,0.5-1.1,0.9-2,0.9c-1.4,0-2.1-1-2.1-2c0-1.7,1.5-2.6,4-2.6v-0.1
			c0-0.4-0.2-1.2-1.4-1.2c-0.7,0-1.4,0.2-1.8,0.5l-0.3-1.1c0.5-0.3,1.4-0.6,2.5-0.6c2.2,0,2.8,1.4,2.8,2.9v2.5c0,0.6,0,1.2,0.1,1.6
			H57.7z M57.5,269.2c-1.2,0-2.4,0.2-2.4,1.3c0,0.7,0.4,1,1,1c0.7,0,1.2-0.4,1.3-0.9c0-0.1,0.1-0.3,0.1-0.4V269.2z"/>
		<path class="st60" d="M61,267.7c0-0.8,0-1.4-0.1-2h1.5l0.1,1h0c0.3-0.5,1-1.2,2.2-1.2c1.2,0,2.4,0.8,2.4,2.9v4h-1.7v-3.9
			c0-1-0.4-1.7-1.3-1.7c-0.7,0-1.2,0.5-1.3,1c-0.1,0.2-0.1,0.4-0.1,0.6v4H61V267.7z"/>
		<path class="st60" d="M72.9,272.5l-0.1-0.8h0c-0.4,0.5-1.1,0.9-2,0.9c-1.4,0-2.1-1-2.1-2c0-1.7,1.5-2.6,4-2.6v-0.1
			c0-0.4-0.2-1.2-1.4-1.2c-0.7,0-1.4,0.2-1.8,0.5l-0.3-1.1c0.5-0.3,1.4-0.6,2.5-0.6c2.2,0,2.8,1.4,2.8,2.9v2.5c0,0.6,0,1.2,0.1,1.6
			H72.9z M72.6,269.2c-1.2,0-2.4,0.2-2.4,1.3c0,0.7,0.4,1,1,1c0.7,0,1.2-0.4,1.3-0.9c0-0.1,0.1-0.3,0.1-0.4V269.2z"/>
		<path class="st60" d="M82.4,265.7c0,0.5-0.1,1-0.1,2v3.9c0,1.4-0.3,2.5-1,3.1c-0.7,0.6-1.7,0.8-2.6,0.8c-0.9,0-1.8-0.2-2.4-0.5
			l0.4-1.3c0.4,0.3,1.2,0.5,2,0.5c1.1,0,2-0.6,2-2.1v-0.6h0c-0.4,0.6-1.1,1-2,1c-1.7,0-2.9-1.4-2.9-3.3c0-2.2,1.5-3.6,3.1-3.6
			c1,0,1.7,0.5,2,1.1h0l0.1-0.9H82.4z M80.6,268.4c0-0.2,0-0.3-0.1-0.5c-0.2-0.6-0.7-1.1-1.4-1.1c-1,0-1.7,0.8-1.7,2.2
			c0,1.2,0.6,2.1,1.7,2.1c0.6,0,1.2-0.4,1.4-1c0-0.2,0.1-0.4,0.1-0.6V268.4z"/>
		<path class="st60" d="M85.4,269.6c0,1.2,1,1.8,2.1,1.8c0.8,0,1.4-0.1,1.9-0.3l0.3,1.2c-0.6,0.2-1.4,0.4-2.4,0.4
			c-2.2,0-3.5-1.4-3.5-3.4c0-1.9,1.1-3.7,3.3-3.7c2.2,0,2.9,1.8,2.9,3.3c0,0.3,0,0.6-0.1,0.7H85.4z M88.4,268.4
			c0-0.6-0.3-1.7-1.4-1.7c-1.1,0-1.5,1-1.6,1.7H88.4z"/>
		<path class="st60" d="M91.4,267.7c0-0.8,0-1.4-0.1-2h1.5l0.1,1h0c0.3-0.5,1-1.2,2.1-1.2c0.9,0,1.6,0.5,1.9,1.3h0
			c0.2-0.4,0.5-0.7,0.8-0.9c0.4-0.3,0.8-0.4,1.4-0.4c1.1,0,2.3,0.8,2.3,3v4h-1.7v-3.8c0-1.1-0.4-1.8-1.2-1.8c-0.6,0-1,0.4-1.2,0.9
			c0,0.2-0.1,0.4-0.1,0.6v4.1h-1.7v-4c0-1-0.4-1.6-1.2-1.6c-0.6,0-1.1,0.5-1.2,1c-0.1,0.2-0.1,0.4-0.1,0.6v4h-1.7V267.7z"/>
		<path class="st60" d="M104.5,269.6c0,1.2,1,1.8,2.1,1.8c0.8,0,1.4-0.1,1.9-0.3l0.3,1.2c-0.6,0.2-1.4,0.4-2.4,0.4
			c-2.2,0-3.5-1.4-3.5-3.4c0-1.9,1.1-3.7,3.3-3.7c2.2,0,2.9,1.8,2.9,3.3c0,0.3,0,0.6-0.1,0.7H104.5z M107.5,268.4
			c0-0.6-0.3-1.7-1.4-1.7c-1.1,0-1.5,1-1.6,1.7H107.5z"/>
		<path class="st60" d="M110.5,267.7c0-0.8,0-1.4-0.1-2h1.5l0.1,1h0c0.3-0.5,1-1.2,2.2-1.2c1.2,0,2.4,0.8,2.4,2.9v4h-1.7v-3.9
			c0-1-0.4-1.7-1.3-1.7c-0.7,0-1.2,0.5-1.3,1c-0.1,0.2-0.1,0.4-0.1,0.6v4h-1.7V267.7z"/>
		<path class="st60" d="M120.4,263.7v1.9h1.6v1.3h-1.6v3c0,0.8,0.2,1.3,0.9,1.3c0.3,0,0.5,0,0.7-0.1l0,1.3c-0.3,0.1-0.7,0.2-1.2,0.2
			c-0.6,0-1.2-0.2-1.5-0.6c-0.4-0.4-0.5-1-0.5-1.9V267h-1v-1.3h1v-1.5L120.4,263.7z"/>
	</g>
	<g>
		<path class="st60" d="M244.5,128v-9.4h2l2.4,4c0.6,1,1.2,2.1,1.6,3.2h0c-0.1-1.3-0.2-2.5-0.2-3.9v-3.3h1.6v9.4h-1.8l-2.5-4.1
			c-0.6-1-1.2-2.2-1.7-3.3l0,0c0.1,1.2,0.1,2.5,0.1,4v3.4H244.5z"/>
		<path class="st60" d="M260.4,124.5c0,2.5-1.8,3.6-3.5,3.6c-1.9,0-3.4-1.3-3.4-3.5c0-2.2,1.5-3.6,3.5-3.6
			C259,121,260.4,122.4,260.4,124.5z M255.3,124.6c0,1.3,0.6,2.3,1.7,2.3c1,0,1.7-1,1.7-2.3c0-1.1-0.5-2.3-1.7-2.3
			C255.8,122.3,255.3,123.4,255.3,124.6z"/>
		<path class="st60" d="M263.8,119.2v1.9h1.6v1.3h-1.6v3c0,0.8,0.2,1.3,0.9,1.3c0.3,0,0.5,0,0.7-0.1l0,1.3c-0.3,0.1-0.7,0.2-1.2,0.2
			c-0.6,0-1.2-0.2-1.5-0.6c-0.4-0.4-0.5-1-0.5-1.9v-3.2h-1v-1.3h1v-1.5L263.8,119.2z"/>
		<path class="st60" d="M268.6,119.2c0,0.5-0.4,0.9-1,0.9c-0.6,0-1-0.4-1-0.9c0-0.5,0.4-0.9,1-0.9
			C268.2,118.3,268.5,118.7,268.6,119.2z M266.7,128v-6.8h1.7v6.8H266.7z"/>
		<path class="st60" d="M270.5,128v-5.5h-0.9v-1.3h0.9v-0.3c0-1.8,1.3-3,3.3-3c0.7,0,1.5,0.2,1.9,0.4l-0.4,1.3
			c-0.3-0.2-0.9-0.4-1.5-0.4c-1.2,0-1.6,0.7-1.6,1.6v0.3h4.1v6.8h-1.7v-5.5h-2.3v5.5H270.5z"/>
		<path class="st60" d="M283.2,127.8c-0.4,0.2-1.1,0.3-1.9,0.3c-2.1,0-3.5-1.4-3.5-3.5c0-2,1.4-3.6,3.8-3.6c0.6,0,1.3,0.1,1.7,0.3
			l-0.3,1.3c-0.3-0.1-0.7-0.3-1.3-0.3c-1.3,0-2.1,1-2.1,2.2c0,1.4,0.9,2.2,2.1,2.2c0.6,0,1-0.1,1.4-0.3L283.2,127.8z"/>
		<path class="st60" d="M288.3,128l-0.1-0.8h0c-0.4,0.5-1.1,0.9-2,0.9c-1.4,0-2.1-1-2.1-2c0-1.7,1.5-2.6,4-2.6v-0.1
			c0-0.4-0.2-1.2-1.4-1.2c-0.7,0-1.4,0.2-1.8,0.5l-0.3-1.1c0.5-0.3,1.4-0.6,2.5-0.6c2.2,0,2.8,1.4,2.8,2.9v2.5c0,0.6,0,1.2,0.1,1.6
			H288.3z M288,124.6c-1.2,0-2.4,0.2-2.4,1.3c0,0.7,0.4,1,1,1c0.7,0,1.2-0.4,1.3-0.9c0-0.1,0.1-0.3,0.1-0.4V124.6z"/>
		<path class="st60" d="M293.4,119.2v1.9h1.6v1.3h-1.6v3c0,0.8,0.2,1.3,0.9,1.3c0.3,0,0.5,0,0.7-0.1l0,1.3c-0.3,0.1-0.7,0.2-1.2,0.2
			c-0.6,0-1.2-0.2-1.5-0.6c-0.4-0.4-0.5-1-0.5-1.9v-3.2h-1v-1.3h1v-1.5L293.4,119.2z"/>
		<path class="st60" d="M298.2,119.2c0,0.5-0.4,0.9-1,0.9c-0.6,0-1-0.4-1-0.9c0-0.5,0.4-0.9,1-0.9
			C297.8,118.3,298.2,118.7,298.2,119.2z M296.4,128v-6.8h1.7v6.8H296.4z"/>
		<path class="st60" d="M306.4,124.5c0,2.5-1.8,3.6-3.5,3.6c-1.9,0-3.4-1.3-3.4-3.5c0-2.2,1.5-3.6,3.5-3.6
			C305.1,121,306.4,122.4,306.4,124.5z M301.3,124.6c0,1.3,0.6,2.3,1.7,2.3c1,0,1.7-1,1.7-2.3c0-1.1-0.5-2.3-1.7-2.3
			C301.8,122.3,301.3,123.4,301.3,124.6z"/>
		<path class="st60" d="M307.8,123.2c0-0.8,0-1.4-0.1-2h1.5l0.1,1h0c0.3-0.5,1-1.2,2.2-1.2c1.2,0,2.4,0.8,2.4,2.9v4h-1.7v-3.9
			c0-1-0.4-1.7-1.3-1.7c-0.7,0-1.2,0.5-1.3,1c-0.1,0.2-0.1,0.4-0.1,0.6v4h-1.7V123.2z"/>
		<path class="st60" d="M258.9,139.7c0.4,0.2,1.1,0.5,1.8,0.5c0.8,0,1.1-0.3,1.1-0.8c0-0.5-0.3-0.7-1.1-1c-1.3-0.5-1.9-1.2-1.9-2
			c0-1.2,1-2.1,2.6-2.1c0.8,0,1.4,0.2,1.8,0.4l-0.3,1.2c-0.3-0.2-0.8-0.4-1.4-0.4c-0.6,0-1,0.3-1,0.7c0,0.4,0.3,0.6,1.2,1
			c1.2,0.4,1.8,1.1,1.8,2.1c0,1.2-1,2.1-2.8,2.1c-0.8,0-1.6-0.2-2.1-0.5L258.9,139.7z"/>
		<path class="st60" d="M266,138.4c0,1.2,1,1.8,2.1,1.8c0.8,0,1.4-0.1,1.9-0.3l0.3,1.2c-0.6,0.2-1.4,0.4-2.4,0.4
			c-2.2,0-3.5-1.4-3.5-3.4c0-1.9,1.1-3.7,3.3-3.7c2.2,0,2.9,1.8,2.9,3.3c0,0.3,0,0.6-0.1,0.7H266z M269,137.2c0-0.6-0.3-1.7-1.4-1.7
			c-1.1,0-1.5,1-1.6,1.7H269z"/>
		<path class="st60" d="M272,136.7c0-0.9,0-1.6-0.1-2.2h1.5l0.1,1.3h0.1c0.3-1,1.1-1.5,1.9-1.5c0.2,0,0.3,0,0.4,0v1.6
			c-0.1,0-0.3-0.1-0.5-0.1c-0.8,0-1.4,0.5-1.5,1.3c0,0.2-0.1,0.3-0.1,0.5v3.5H272V136.7z"/>
		<path class="st60" d="M278.4,134.5l1.1,3.5c0.2,0.6,0.3,1.1,0.5,1.7h0c0.1-0.6,0.3-1.1,0.5-1.7l1.1-3.5h1.8l-2.6,6.8h-1.7
			l-2.5-6.8H278.4z"/>
		<path class="st60" d="M286.2,132.6c0,0.5-0.4,0.9-1,0.9c-0.6,0-1-0.4-1-0.9c0-0.5,0.4-0.9,1-0.9
			C285.9,131.6,286.2,132,286.2,132.6z M284.4,141.3v-6.8h1.7v6.8H284.4z"/>
		<path class="st60" d="M293,141.1c-0.4,0.2-1.1,0.3-1.9,0.3c-2.1,0-3.5-1.4-3.5-3.5c0-2,1.4-3.6,3.8-3.6c0.6,0,1.3,0.1,1.7,0.3
			l-0.3,1.3c-0.3-0.1-0.7-0.3-1.3-0.3c-1.3,0-2.1,1-2.1,2.2c0,1.4,0.9,2.2,2.1,2.2c0.6,0,1-0.1,1.4-0.3L293,141.1z"/>
		<path class="st60" d="M295.4,138.4c0,1.2,1,1.8,2.1,1.8c0.8,0,1.4-0.1,1.9-0.3l0.3,1.2c-0.6,0.2-1.4,0.4-2.4,0.4
			c-2.2,0-3.5-1.4-3.5-3.4c0-1.9,1.1-3.7,3.3-3.7c2.2,0,2.9,1.8,2.9,3.3c0,0.3,0,0.6-0.1,0.7H295.4z M298.4,137.2
			c0-0.6-0.3-1.7-1.4-1.7c-1.1,0-1.5,1-1.6,1.7H298.4z"/>
	</g>
	<g>
		<path class="st60" d="M290.3,258.7c-0.6,0.2-1.8,0.5-3,0.5c-1.6,0-2.8-0.4-3.7-1.3c-0.8-0.8-1.3-2-1.3-3.5c0-3,2.1-4.9,5.3-4.9
			c1.2,0,2.1,0.2,2.5,0.4l-0.4,1.4c-0.5-0.2-1.1-0.4-2.1-0.4c-2,0-3.4,1.2-3.4,3.4c0,2.1,1.3,3.4,3.3,3.4c0.6,0,1.1-0.1,1.3-0.2
			v-2.4H287V254h3.3V258.7z"/>
		<path class="st60" d="M296,259.2l-0.1-0.8h0c-0.4,0.5-1.1,0.9-2,0.9c-1.4,0-2.1-1-2.1-2c0-1.7,1.5-2.6,4-2.6v-0.1
			c0-0.4-0.2-1.2-1.4-1.2c-0.7,0-1.4,0.2-1.8,0.5l-0.3-1.1c0.5-0.3,1.4-0.6,2.5-0.6c2.2,0,2.8,1.4,2.8,2.9v2.5c0,0.6,0,1.2,0.1,1.6
			H296z M295.7,255.8c-1.2,0-2.4,0.2-2.4,1.3c0,0.7,0.4,1,1,1c0.7,0,1.2-0.4,1.3-0.9c0-0.1,0.1-0.3,0.1-0.4V255.8z"/>
		<path class="st60" d="M299.2,254.4c0-0.8,0-1.4-0.1-2h1.5l0.1,1h0c0.3-0.5,1-1.2,2.1-1.2c0.9,0,1.6,0.5,1.9,1.3h0
			c0.2-0.4,0.5-0.7,0.8-0.9c0.4-0.3,0.8-0.4,1.4-0.4c1.1,0,2.3,0.8,2.3,3v4h-1.7v-3.8c0-1.1-0.4-1.8-1.2-1.8c-0.6,0-1,0.4-1.2,0.9
			c0,0.2-0.1,0.4-0.1,0.6v4.1h-1.7v-4c0-1-0.4-1.6-1.2-1.6c-0.6,0-1.1,0.5-1.2,1c-0.1,0.2-0.1,0.4-0.1,0.6v4h-1.7V254.4z"/>
		<path class="st60" d="M312.9,250.4c0,0.5-0.4,0.9-1,0.9c-0.6,0-1-0.4-1-0.9c0-0.5,0.4-0.9,1-0.9
			C312.6,249.5,312.9,249.9,312.9,250.4z M311.1,259.2v-6.8h1.7v6.8H311.1z"/>
		<path class="st60" d="M314.9,259.2v-5.5H314v-1.3h0.9V252c0-1.8,1.3-3,3.3-3c0.7,0,1.5,0.2,1.9,0.4l-0.4,1.3
			c-0.3-0.2-0.9-0.4-1.5-0.4c-1.2,0-1.6,0.7-1.6,1.6v0.3h4.1v6.8h-1.7v-5.5h-2.3v5.5H314.9z"/>
		<path class="st60" d="M327.5,259c-0.4,0.2-1.1,0.3-1.9,0.3c-2.1,0-3.5-1.4-3.5-3.5c0-2,1.4-3.6,3.8-3.6c0.6,0,1.3,0.1,1.7,0.3
			l-0.3,1.3c-0.3-0.1-0.7-0.3-1.3-0.3c-1.3,0-2.1,1-2.1,2.2c0,1.4,0.9,2.2,2.1,2.2c0.6,0,1-0.1,1.4-0.3L327.5,259z"/>
		<path class="st60" d="M332.6,259.2l-0.1-0.8h0c-0.4,0.5-1.1,0.9-2,0.9c-1.4,0-2.1-1-2.1-2c0-1.7,1.5-2.6,4-2.6v-0.1
			c0-0.4-0.2-1.2-1.4-1.2c-0.7,0-1.4,0.2-1.8,0.5l-0.3-1.1c0.5-0.3,1.4-0.6,2.5-0.6c2.2,0,2.8,1.4,2.8,2.9v2.5c0,0.6,0,1.2,0.1,1.6
			H332.6z M332.4,255.8c-1.2,0-2.4,0.2-2.4,1.3c0,0.7,0.4,1,1,1c0.7,0,1.2-0.4,1.3-0.9c0-0.1,0.1-0.3,0.1-0.4V255.8z"/>
		<path class="st60" d="M337.8,250.4v1.9h1.6v1.3h-1.6v3c0,0.8,0.2,1.3,0.9,1.3c0.3,0,0.5,0,0.7-0.1l0,1.3c-0.3,0.1-0.7,0.2-1.2,0.2
			c-0.6,0-1.2-0.2-1.5-0.6c-0.4-0.4-0.5-1-0.5-1.9v-3.2h-1v-1.3h1v-1.5L337.8,250.4z"/>
		<path class="st60" d="M342.6,250.4c0,0.5-0.4,0.9-1,0.9c-0.6,0-1-0.4-1-0.9c0-0.5,0.4-0.9,1-0.9
			C342.2,249.5,342.6,249.9,342.6,250.4z M340.7,259.2v-6.8h1.7v6.8H340.7z"/>
		<path class="st60" d="M350.8,255.7c0,2.5-1.8,3.6-3.5,3.6c-1.9,0-3.4-1.3-3.4-3.5c0-2.2,1.5-3.6,3.5-3.6
			C349.4,252.2,350.8,253.6,350.8,255.7z M345.7,255.8c0,1.3,0.6,2.3,1.7,2.3c1,0,1.7-1,1.7-2.3c0-1.1-0.5-2.3-1.7-2.3
			C346.2,253.5,345.7,254.6,345.7,255.8z"/>
		<path class="st60" d="M352.2,254.4c0-0.8,0-1.4-0.1-2h1.5l0.1,1h0c0.3-0.5,1-1.2,2.2-1.2c1.2,0,2.4,0.8,2.4,2.9v4h-1.7v-3.9
			c0-1-0.4-1.7-1.3-1.7c-0.7,0-1.2,0.5-1.3,1c-0.1,0.2-0.1,0.4-0.1,0.6v4h-1.7V254.4z"/>
	</g>
	<g>
		<path class="st79" d="M333.1,206.9c5.4,0,8.9,4.6,9.6,8.5l3,17.4c0.6,3.8-2.3,6.8-6.2,6.8c-2.2,0-4.4-1.2-5.4-2.6l-5.6-6.6h-6.1h0
			h-6.9l-5.3,6.6c-1.7,1.9-3.2,2.6-5.4,2.6h-0.4c-3.9,0-6.4-3-5.8-6.8l3-17.4c0.6-3.9,3.9-8.5,9.6-8.5H333.1z"/>
		<circle class="st79" cx="312.1" cy="218.3" r="6.9"/>
		<circle class="st79" cx="331.9" cy="218.3" r="6.9"/>
		<line class="st79" x1="331.9" y1="215.1" x2="331.9" y2="215.3"/>
		<g>
			<g>
				<path class="st79" d="M322.1,206.9v-2.5c0-2.8,2.3-5,5-5h10.2c2.8,0,5-2.3,5-5v0c0-2.8-2.3-5-5-5h-21.2"/>
				<g>
					<polygon class="st60" points="316.9,186.3 311.8,189.3 316.9,192.3 					"/>
				</g>
			</g>
		</g>
		<line class="st79" x1="312.2" y1="215.3" x2="312.2" y2="221.1"/>
		<line class="st79" x1="309.2" y1="218.2" x2="315.1" y2="218.2"/>
		<line class="st79" x1="331.9" y1="221.1" x2="331.9" y2="221.4"/>
		<line class="st79" x1="334.8" y1="218.2" x2="335" y2="218.2"/>
		<line class="st79" x1="328.7" y1="218.2" x2="329" y2="218.2"/>
	</g>
	<g>
		<g>
			<g>
				<circle class="st78" cx="198.7" cy="306.4" r="4.4"/>
				<path class="st78" d="M208,324v-5.1c0-2.3-1.8-4.1-4.1-4.1h-5.5h-5.5c-2.3,0-4.1,1.8-4.1,4.1v5.1"/>
				<line class="st78" x1="193.3" y1="326.1" x2="193.3" y2="321.3"/>
				<line class="st78" x1="203.5" y1="326.1" x2="203.5" y2="321.3"/>
			</g>
		</g>
		<circle class="st78" cx="198.4" cy="310.8" r="16.4"/>
		<g>
			<g>
				<line class="st78" x1="198.4" y1="295" x2="198.4" y2="284.3"/>
				<g>
					<polygon class="st60" points="201.4,285.2 198.4,280 195.4,285.2 					"/>
				</g>
			</g>
		</g>
		<g>
			<g>
				<line class="st78" x1="198.4" y1="337.3" x2="198.4" y2="326.6"/>
				<g>
					<polygon class="st60" points="201.4,336.4 198.4,341.6 195.4,336.4 					"/>
				</g>
			</g>
		</g>
		<line class="st78" x1="187.2" y1="322" x2="179.4" y2="329.8"/>
		<line class="st78" x1="217.4" y1="291.8" x2="209.6" y2="299.6"/>
		<line class="st78" x1="209.6" y1="322" x2="217.4" y2="329.8"/>
		<line class="st78" x1="179.4" y1="291.8" x2="187.2" y2="299.6"/>
		<circle class="st79" cx="177.6" cy="331.3" r="2.5"/>
		<circle class="st79" cx="219.2" cy="289.7" r="2.5"/>
		<circle class="st79" cx="219.2" cy="331.3" r="2.5"/>
		<circle class="st79" cx="177.6" cy="289.7" r="2.5"/>
	</g>
	<g>
		<path class="st60" d="M155,361.1c0.6,0.3,1.4,0.6,2.3,0.6c1.1,0,1.7-0.5,1.7-1.3c0-0.7-0.5-1.1-1.7-1.6c-1.6-0.6-2.5-1.4-2.5-2.7
			c0-1.5,1.3-2.7,3.3-2.7c1,0,1.8,0.2,2.3,0.5l-0.4,1.4c-0.3-0.2-1-0.4-1.9-0.4c-1.1,0-1.6,0.6-1.6,1.1c0,0.7,0.5,1.1,1.8,1.6
			c1.6,0.6,2.4,1.4,2.4,2.8c0,1.5-1.1,2.8-3.6,2.8c-1,0-2-0.3-2.5-0.6L155,361.1z"/>
		<path class="st60" d="M168.8,359.5c0,2.5-1.8,3.6-3.5,3.6c-1.9,0-3.4-1.3-3.4-3.5c0-2.2,1.5-3.6,3.5-3.6
			C167.5,356,168.8,357.4,168.8,359.5z M163.7,359.6c0,1.3,0.6,2.3,1.7,2.3c1,0,1.7-1,1.7-2.3c0-1.1-0.5-2.3-1.7-2.3
			C164.2,357.3,163.7,358.5,163.7,359.6z"/>
		<path class="st60" d="M175.2,362.8c-0.4,0.2-1.1,0.3-1.9,0.3c-2.1,0-3.5-1.4-3.5-3.5c0-2,1.4-3.6,3.8-3.6c0.6,0,1.3,0.1,1.7,0.3
			l-0.3,1.3c-0.3-0.1-0.7-0.3-1.3-0.3c-1.3,0-2.1,1-2.1,2.2c0,1.4,0.9,2.2,2.1,2.2c0.6,0,1-0.1,1.4-0.3L175.2,362.8z"/>
		<path class="st60" d="M178.4,354.3c0,0.5-0.4,0.9-1,0.9c-0.6,0-1-0.4-1-0.9c0-0.5,0.4-0.9,1-0.9
			C178,353.3,178.3,353.7,178.4,354.3z M176.5,363v-6.8h1.7v6.8H176.5z"/>
		<path class="st60" d="M183.9,363l-0.1-0.8h0c-0.4,0.5-1.1,0.9-2,0.9c-1.4,0-2.1-1-2.1-2c0-1.7,1.5-2.6,4-2.6v-0.1
			c0-0.4-0.2-1.2-1.4-1.2c-0.7,0-1.4,0.2-1.8,0.5l-0.3-1.1c0.5-0.3,1.4-0.6,2.5-0.6c2.2,0,2.8,1.4,2.8,2.9v2.5c0,0.6,0,1.2,0.1,1.6
			H183.9z M183.7,359.7c-1.2,0-2.4,0.2-2.4,1.3c0,0.7,0.4,1,1,1c0.7,0,1.2-0.4,1.3-0.9c0-0.1,0.1-0.3,0.1-0.4V359.7z"/>
		<path class="st60" d="M187.2,353h1.7v9.9h-1.7V353z"/>
		<path class="st60" d="M197.5,363l-0.1-0.8h0c-0.4,0.5-1.1,0.9-2,0.9c-1.4,0-2.1-1-2.1-2c0-1.7,1.5-2.6,4-2.6v-0.1
			c0-0.4-0.2-1.2-1.4-1.2c-0.7,0-1.4,0.2-1.8,0.5l-0.3-1.1c0.5-0.3,1.4-0.6,2.5-0.6c2.2,0,2.8,1.4,2.8,2.9v2.5c0,0.6,0,1.2,0.1,1.6
			H197.5z M197.3,359.7c-1.2,0-2.4,0.2-2.4,1.3c0,0.7,0.4,1,1,1c0.7,0,1.2-0.4,1.3-0.9c0-0.1,0.1-0.3,0.1-0.4V359.7z"/>
		<path class="st60" d="M200.8,358.2c0-0.8,0-1.4-0.1-2h1.5l0.1,1h0c0.3-0.5,1-1.2,2.2-1.2c1.2,0,2.4,0.8,2.4,2.9v4h-1.7v-3.9
			c0-1-0.4-1.7-1.3-1.7c-0.7,0-1.2,0.5-1.3,1c-0.1,0.2-0.1,0.4-0.1,0.6v4h-1.7V358.2z"/>
		<path class="st60" d="M212.7,363l-0.1-0.8h0c-0.4,0.5-1.1,0.9-2,0.9c-1.4,0-2.1-1-2.1-2c0-1.7,1.5-2.6,4-2.6v-0.1
			c0-0.4-0.2-1.2-1.4-1.2c-0.7,0-1.4,0.2-1.8,0.5l-0.3-1.1c0.5-0.3,1.4-0.6,2.5-0.6c2.2,0,2.8,1.4,2.8,2.9v2.5c0,0.6,0,1.2,0.1,1.6
			H212.7z M212.4,359.7c-1.2,0-2.4,0.2-2.4,1.3c0,0.7,0.4,1,1,1c0.7,0,1.2-0.4,1.3-0.9c0-0.1,0.1-0.3,0.1-0.4V359.7z"/>
		<path class="st60" d="M215.9,353h1.7v9.9h-1.7V353z"/>
		<path class="st60" d="M220.6,356.2l1.2,3.7c0.1,0.4,0.3,0.9,0.4,1.3h0c0.1-0.4,0.2-0.9,0.4-1.3l1.1-3.6h1.8l-1.7,4.7
			c-0.9,2.5-1.6,3.7-2.4,4.4c-0.7,0.6-1.4,0.8-1.8,0.9l-0.4-1.5c0.3-0.1,0.7-0.2,1-0.5c0.3-0.2,0.7-0.6,0.9-1.1
			c0.1-0.1,0.1-0.2,0.1-0.3c0-0.1,0-0.2-0.1-0.3l-2.5-6.3H220.6z"/>
		<path class="st60" d="M228.5,354.2v1.9h1.6v1.3h-1.6v3c0,0.8,0.2,1.3,0.9,1.3c0.3,0,0.5,0,0.7-0.1l0,1.3c-0.3,0.1-0.7,0.2-1.2,0.2
			c-0.6,0-1.2-0.2-1.5-0.6c-0.4-0.4-0.5-1-0.5-1.9v-3.2h-1v-1.3h1v-1.5L228.5,354.2z"/>
		<path class="st60" d="M233.3,354.3c0,0.5-0.4,0.9-1,0.9c-0.6,0-1-0.4-1-0.9c0-0.5,0.4-0.9,1-0.9
			C232.9,353.3,233.3,353.7,233.3,354.3z M231.5,363v-6.8h1.7v6.8H231.5z"/>
		<path class="st60" d="M240.1,362.8c-0.4,0.2-1.1,0.3-1.9,0.3c-2.1,0-3.5-1.4-3.5-3.5c0-2,1.4-3.6,3.8-3.6c0.6,0,1.3,0.1,1.7,0.3
			l-0.3,1.3c-0.3-0.1-0.7-0.3-1.3-0.3c-1.3,0-2.1,1-2.1,2.2c0,1.4,0.9,2.2,2.1,2.2c0.6,0,1-0.1,1.4-0.3L240.1,362.8z"/>
		<path class="st60" d="M241.2,361.4c0.4,0.2,1.1,0.5,1.8,0.5c0.8,0,1.1-0.3,1.1-0.8c0-0.5-0.3-0.7-1.1-1c-1.3-0.5-1.9-1.2-1.9-2
			c0-1.2,1-2.1,2.6-2.1c0.8,0,1.4,0.2,1.8,0.4l-0.3,1.2c-0.3-0.2-0.8-0.4-1.4-0.4c-0.6,0-1,0.3-1,0.7c0,0.4,0.3,0.6,1.2,1
			c1.2,0.4,1.8,1.1,1.8,2.1c0,1.2-1,2.1-2.8,2.1c-0.8,0-1.6-0.2-2.1-0.5L241.2,361.4z"/>
	</g>
	<g>
		<polygon class="st79" points="61.8,220.9 74.3,220.9 74.3,210.9 74.1,201 61.8,201 		"/>
		<circle class="st78" cx="101.8" cy="187.7" r="2.5"/>
		<circle class="st78" cx="101.8" cy="235.7" r="2.5"/>
		<g>
			<g>
				<line class="st79" x1="67.6" y1="220.9" x2="67.6" y2="233.4"/>
				<g>
					<polygon class="st60" points="64.6,232.5 67.6,237.7 70.5,232.5 					"/>
				</g>
			</g>
		</g>
		<line class="st78" x1="74.1" y1="220.9" x2="99.4" y2="234.9"/>
		<line class="st78" x1="98.8" y1="188" x2="74.1" y2="201"/>
		<line class="st78" x1="101.8" y1="232.7" x2="101.8" y2="190.9"/>
	</g>
	<g>
		<circle class="st79" cx="296.5" cy="85" r="11.7"/>
		<path class="st79" d="M296.5,72.7c-0.8-11.3-12.7-12-12.7-12c0-3.9-2.9-3.8-2.9-3.8s-2.9-0.1-2.9,3.8c0,0-12.5,0.7-12.7,12.9
			c-0.2,10.9,1.6,25-5.2,28.9v5.1h14"/>
		<g>
			<g>
				<path class="st79" d="M288,107.7h13.7v-5.1c-1.9-1.1-3.1-2.9-3.9-5.3"/>
				<g>
					<polygon class="st60" points="288.9,110.6 283.7,107.7 288.9,104.7 					"/>
				</g>
			</g>
		</g>
		<circle class="st79" cx="277.4" cy="107.8" r="2.5"/>
		<circle class="st79" cx="296.5" cy="89.5" r="2.6"/>
		<line class="st79" x1="296.5" y1="78.1" x2="296.5" y2="83.6"/>
	</g>
	<g>
		<path class="st79" d="M109.3,92.9V65.4c0-2.1,1.7-3.8,3.8-3.8h0c2.1,0,3.8,1.7,3.8,3.8v19.1l0-0.6v-3.6c0-2.1,1.7-3.8,3.8-3.8h0
			c2.1,0,3.8,1.7,3.8,3.8v4.4v-4.1c0-2.1,1.7-3.8,3.8-3.8h0c2.1,0,3.8,1.7,3.8,3.8v4.4v-2.2c0-2.1,1.7-3.8,3.8-3.8h0
			c2.1,0,3.8,1.7,3.8,3.8v16.7c0,4.8-3.1,7.8-7.9,7.8h-1.4"/>
		<g>
			<g>
				<line class="st79" x1="113" y1="57.8" x2="113" y2="52.9"/>
				<g>
					<polygon class="st60" points="116,53.7 113,48.5 110,53.7 					"/>
				</g>
			</g>
		</g>
		<path class="st79" d="M109.1,81.7c0,0-4.3-0.6-4.3,3.9v13.6c0,4.4,3.5,7.9,7.9,7.9h2.4"/>
		<circle class="st79" cx="118" cy="107.2" r="2.5"/>
		<circle class="st79" cx="127.3" cy="107.2" r="2.5"/>
		<g>
			<g>
				<line class="st79" x1="106.9" y1="60.4" x2="103.4" y2="57.1"/>
				<g>
					<polygon class="st60" points="106.1,55.5 100.3,54.1 101.9,59.9 					"/>
				</g>
			</g>
		</g>
		<g>
			<g>
				<line class="st79" x1="119.1" y1="60.4" x2="122.6" y2="57.1"/>
				<g>
					<polygon class="st60" points="124,59.9 125.7,54.1 119.9,55.5 					"/>
				</g>
			</g>
		</g>
	</g>
</g>
</svg>
