<svg xmlns="http://www.w3.org/2000/svg" viewBox="0 0 1300 706.89"><defs><style>.cls-1{fill:#fbc2ba;}.cls-2{fill:#fcddd6;}.cls-3,.cls-4,.cls-5,.cls-6,.cls-7,.cls-9{fill:none;}.cls-3{stroke:#f16c51;}.cls-3,.cls-4,.cls-5,.cls-7{stroke-miterlimit:10;}.cls-3,.cls-4{stroke-width:2.14px;}.cls-4{stroke:#fbc2ba;}.cls-5,.cls-6,.cls-7,.cls-9{stroke:#4c0519;stroke-width:3px;}.cls-7{stroke-linecap:square;}.cls-8{fill:#4c0519;}.cls-9{stroke-linejoin:bevel;}</style></defs><title>customer-analytics-lrg</title><g id="Layer_2" data-name="Layer 2"><polygon class="cls-1" points="893.23 0.41 893.23 706.89 1300 706.89 1300 0.19 893.23 0.41"/><polygon class="cls-2" points="449.62 0.19 449.62 707.06 856.39 707.06 856.39 0.36 449.62 0.19"/><polygon class="cls-1" points="0 0.19 0 707.06 406.77 707.06 406.77 0.36 0 0.19"/><line class="cls-3" x1="18.47" y1="185.15" x2="388.3" y2="184.8"/><polygon class="cls-1" points="411.36 69.06 411.36 121.21 437.44 95.14 411.36 69.06"/><polygon class="cls-2" points="860.88 69.06 860.88 121.21 886.96 95.14 860.88 69.06"/><line class="cls-3" x1="911.7" y1="185.15" x2="1281.53" y2="184.8"/><line class="cls-4" x1="456.45" y1="185.15" x2="826.28" y2="184.8"/></g><g id="Layer_3" data-name="Layer 3"><path class="cls-5" d="M545.77,473.53a12,12,0,0,0-24.08,0v10l12,11.08,12-11.08Z"/><line class="cls-5" x1="530.49" y1="474.1" x2="526.37" y2="474.1"/><line class="cls-5" x1="540.55" y1="474.1" x2="536.44" y2="474.1"/><path class="cls-5" d="M559,504.83V494.46a7,7,0,0,0-7-7H549.5l-15.77,14.2L518,487.5h-2.55a7,7,0,0,0-7,7v10.37"/><path class="cls-5" d="M551.61,518.35a36,36,0,1,1,7.4-5.64"/><line class="cls-5" x1="560.14" y1="519.02" x2="570.98" y2="529.86"/><path class="cls-6" d="M555.47,519.82a4.5,4.5,0,1,0-2.08-7.54A4.5,4.5,0,0,0,555.47,519.82Z"/><line class="cls-5" x1="521.69" y1="483.51" x2="516.61" y2="483.51"/><line class="cls-5" x1="551.07" y1="483.51" x2="545.99" y2="483.51"/><line class="cls-5" x1="530.97" y1="483.51" x2="536.59" y2="483.51"/><path class="cls-7" d="M534.15,119.44v7.32a7.48,7.48,0,0,0,7.48,7.48h15.76"/><circle class="cls-7" cx="534.15" cy="114.1" r="4.5"/><path class="cls-5" d="M538.15,113.86a25.24,25.24,0,0,0,21.24-24.92V78H508.92V88.94a25.23,25.23,0,0,0,21.23,24.92"/><line class="cls-7" x1="519.88" y1="83.94" x2="519.88" y2="65.18"/><polygon class="cls-8" points="525.87 66.93 519.88 56.57 513.9 66.93 525.87 66.93"/><line class="cls-7" x1="548.35" y1="83.94" x2="548.35" y2="65.18"/><polygon class="cls-8" points="554.34 66.93 548.35 56.57 542.37 66.93 554.34 66.93"/><path class="cls-5" d="M519.15,296a37.53,37.53,0,0,0,50-20.86"/><path class="cls-6" d="M573.34,273.34a4.5,4.5,0,1,1-2.15-7.52A4.5,4.5,0,0,1,573.34,273.34Z"/><path class="cls-5" d="M498.37,272.82a37.64,37.64,0,0,0,9.57,15.6"/><polygon class="cls-8" points="493.04 275.73 496.77 264.36 504.75 273.27 493.04 275.73"/><path class="cls-5" d="M569.94,250.39a37.57,37.57,0,0,0-26.67-25.16l-9.11,24.88h20.5L508.33,300l15.6-34.9H509.27L525,225.23a37.56,37.56,0,0,0-25.86,22.85"/><polygon class="cls-8" points="575.26 247.49 571.54 258.86 563.55 249.95 575.26 247.49"/><path class="cls-6" d="M495,249.88a4.49,4.49,0,0,1,7.51,1.81h0a4.5,4.5,0,1,1-7.51-1.81Z"/><polygon class="cls-5" points="504.15 385.06 524.15 385.06 524.15 370.86 524.15 356.66 504.15 356.66 504.15 385.06"/><circle class="cls-5" cx="563.61" cy="337.84" r="4.5"/><circle class="cls-5" cx="563.61" cy="406.12" r="4.5"/><line class="cls-5" x1="513.54" y1="384.97" x2="513.54" y2="400.26"/><polygon class="cls-8" points="507.56 398.51 513.54 408.87 519.52 398.51 507.56 398.51"/><polyline class="cls-5" points="559.36 338.2 524.15 356.66 524.15 370.86 524.15 385.06 560.21 404.94"/><line class="cls-5" x1="563.61" y1="401.86" x2="563.61" y2="342.33"/><circle class="cls-5" cx="62.9" cy="262.2" r="4.5"/><circle class="cls-5" cx="102.28" cy="295.78" r="4.5"/><circle class="cls-5" cx="124.3" cy="262.2" r="4.5"/><circle class="cls-5" cx="103.92" cy="229.66" r="4.5"/><line class="cls-5" x1="109.36" y1="262.2" x2="67.47" y2="262.2"/><polygon class="cls-8" points="107.61 256.22 117.97 262.2 107.61 268.19 107.61 256.22"/><polyline class="cls-9" points="93.65 239.52 68.43 262.2 91.69 284.99"/><polygon class="cls-8" points="88.35 236.24 100.06 233.76 96.35 245.14 88.35 236.24"/><polygon class="cls-8" points="86.26 288.04 97.85 291.01 94.63 279.49 86.26 288.04"/><path class="cls-7" d="M85.43,78.28H78.16L69.46,83V78.28H60.34V56.68H93.13v21.6L79.9,90.19A4.79,4.79,0,0,0,79.59,97h0a4.8,4.8,0,0,0,6.7.33l3.49-3.1h16.86l17.6,14.8a4.08,4.08,0,0,1,.22,5.78h0a4.1,4.1,0,0,1-5.79.22l-3.22-3"/><polyline class="cls-7" points="99.6 78.28 108.56 78.28 117.25 83.04 117.25 78.28 129.33 78.28 129.33 56.68 93.58 56.68 93.58 78.28"/><polyline class="cls-7" points="62.55 104.96 71.73 104.96 73.62 106.85"/><polygon class="cls-8" points="64.31 110.95 53.94 104.96 64.31 98.98 64.31 110.95"/><polyline class="cls-7" points="118.32 103.47 122.02 99.77 126.69 99.77"/><path class="cls-6" d="M129.43,103.63a4.5,4.5,0,1,1,6.8-3.86A4.5,4.5,0,0,1,129.43,103.63Z"/><rect class="cls-7" x="71.25" y="104.7" width="8.19" height="12.58" rx="4.09" ry="4.09" transform="translate(95.63 -21.62) rotate(42.87)"/><rect class="cls-7" x="77.26" y="110.27" width="8.19" height="12.58" rx="4.09" ry="4.09" transform="translate(101.02 -24.21) rotate(42.87)"/><rect class="cls-7" x="83.26" y="115.84" width="8.19" height="12.58" rx="4.09" ry="4.09" transform="translate(106.41 -26.81) rotate(42.87)"/><rect class="cls-7" x="89.26" y="121.41" width="8.19" height="12.58" rx="4.09" ry="4.09" transform="translate(111.8 -29.4) rotate(42.87)"/><path class="cls-5" d="M104.31,124.05l3.22,3a4.1,4.1,0,0,1,.22,5.79h0A4.1,4.1,0,0,1,102,133l-3.22-3"/><path class="cls-5" d="M109.88,118.05l3.22,3a4.1,4.1,0,0,1,.22,5.79h0a4.1,4.1,0,0,1-5.79.21l-3.22-3"/><path class="cls-5" d="M115.45,112.05l3.22,3a4.08,4.08,0,0,1,.22,5.78h0a4.1,4.1,0,0,1-5.79.22l-3.22-3"/><path class="cls-7" d="M74.56,504.5V463a5.67,5.67,0,0,1,5.67-5.67h0A5.67,5.67,0,0,1,85.9,463v28.77l-.07-.86v-5.46a5.67,5.67,0,0,1,5.68-5.67h0a5.67,5.67,0,0,1,5.67,5.67v.38a5.67,5.67,0,0,1,5.67-5.67h0a5.67,5.67,0,0,1,5.67,5.67v3.29a5.67,5.67,0,0,1,5.67-5.67h0a5.67,5.67,0,0,1,5.67,5.67v25.1c0,7.2-4.72,11.74-11.85,11.74"/><path class="cls-7" d="M74.27,488.38s-6.45,0-6.45,5.17V514a11.91,11.91,0,0,0,11.91,11.91H81.1"/><circle class="cls-7" cx="87.48" cy="525.94" r="4.5"/><circle class="cls-7" cx="101.92" cy="525.94" r="4.5"/><path class="cls-7" d="M92.26,471.15a14.63,14.63,0,1,0-24.55,0"/><path class="cls-8" d="M198.41,249.3c-.13-2.39-.28-5.26-.26-7.39h-.07c-.59,2-1.3,4.14-2.16,6.5l-3,8.3h-1.68l-2.76-8.15c-.82-2.41-1.5-4.62-2-6.65h-.05c0,2.13-.17,5-.33,7.56l-.45,7.34h-2.11l1.19-17.11h2.82l2.92,8.28c.71,2.1,1.3,4,1.73,5.76h.07c.44-1.73,1-3.61,1.81-5.76l3-8.28h2.82L201,256.81h-2.16Z"/><path class="cls-8" d="M207.12,241.07a1.39,1.39,0,0,1-2.77,0,1.36,1.36,0,0,1,1.4-1.4A1.33,1.33,0,0,1,207.12,241.07Zm-2.49,15.74V244.52h2.23v12.29Z"/><path class="cls-8" d="M219.33,256.35a8.11,8.11,0,0,1-3.53.72c-3.71,0-6.12-2.52-6.12-6.28a6.24,6.24,0,0,1,6.6-6.52,7.57,7.57,0,0,1,3.1.63l-.51,1.73a5.23,5.23,0,0,0-2.59-.58c-2.82,0-4.34,2.08-4.34,4.64,0,2.85,1.83,4.6,4.27,4.6a6.34,6.34,0,0,0,2.74-.61Z"/><path class="cls-8" d="M221.94,248.36c0-1.45,0-2.69-.1-3.84h2l.07,2.41H224a3.67,3.67,0,0,1,3.4-2.69,2.41,2.41,0,0,1,.63.08v2.11a3.34,3.34,0,0,0-.76-.08,3.14,3.14,0,0,0-3,2.87,6.33,6.33,0,0,0-.1,1v6.55h-2.21Z"/><path class="cls-8" d="M241.11,250.57c0,4.54-3.14,6.52-6.11,6.52-3.33,0-5.89-2.44-5.89-6.32,0-4.11,2.69-6.53,6.09-6.53S241.11,246.81,241.11,250.57Zm-9.75.12c0,2.69,1.55,4.73,3.74,4.73s3.73-2,3.73-4.78c0-2.08-1-4.72-3.68-4.72S231.36,248.36,231.36,250.69Z"/><path class="cls-8" d="M249.49,249.12v1.65h-6.27v-1.65Z"/><path class="cls-8" d="M183.61,279.92a5.84,5.84,0,0,0,2.94.89c1.63,0,2.39-.82,2.39-1.83s-.64-1.65-2.29-2.26c-2.21-.79-3.25-2-3.25-3.48,0-2,1.6-3.61,4.24-3.61a6,6,0,0,1,3,.77l-.55,1.62a4.89,4.89,0,0,0-2.52-.71c-1.32,0-2.05.76-2.05,1.68s.73,1.47,2.33,2.08c2.13.81,3.23,1.88,3.23,3.7,0,2.16-1.68,3.69-4.6,3.69a7,7,0,0,1-3.45-.84Z"/><path class="cls-8" d="M195.21,276.46c0,3,2,4.27,4.21,4.27a8,8,0,0,0,3.41-.64l.38,1.6a9.89,9.89,0,0,1-4.09.77c-3.78,0-6-2.49-6-6.2s2.18-6.63,5.76-6.63c4,0,5.08,3.53,5.08,5.79a7.3,7.3,0,0,1-.08,1Zm6.55-1.6c0-1.42-.58-3.63-3.1-3.63-2.26,0-3.25,2.09-3.43,3.63Z"/><path class="cls-8" d="M217.27,269.91c-.05.89-.1,1.88-.1,3.38v7.13c0,2.82-.56,4.55-1.75,5.62a6.54,6.54,0,0,1-4.47,1.47,8,8,0,0,1-4.09-1l.56-1.7a6.9,6.9,0,0,0,3.61,1c2.28,0,4-1.2,4-4.29v-1.38h-.05a4.38,4.38,0,0,1-3.91,2.06c-3.05,0-5.23-2.59-5.23-6,0-4.16,2.71-6.53,5.53-6.53a4.11,4.11,0,0,1,3.84,2.14h.05l.1-1.86ZM215,274.76a3.18,3.18,0,0,0-.12-1,3.22,3.22,0,0,0-3.13-2.36c-2.13,0-3.65,1.8-3.65,4.64,0,2.41,1.22,4.42,3.63,4.42a3.25,3.25,0,0,0,3.09-2.28A3.88,3.88,0,0,0,215,277Z"/><path class="cls-8" d="M220.73,273.24c0-1.27,0-2.31-.11-3.33h2l.1,2h.08a4.25,4.25,0,0,1,3.86-2.26,3.65,3.65,0,0,1,3.48,2.47h.05a5,5,0,0,1,1.37-1.6,4.17,4.17,0,0,1,2.71-.87c1.63,0,4,1.07,4,5.34v7.23h-2.18v-6.95c0-2.37-.87-3.79-2.67-3.79a2.89,2.89,0,0,0-2.64,2,3.75,3.75,0,0,0-.18,1.12v7.59h-2.18v-7.36c0-2-.86-3.38-2.56-3.38a3,3,0,0,0-2.77,2.24,3,3,0,0,0-.18,1.09v7.41h-2.18Z"/><path class="cls-8" d="M243.15,276.46c0,3,2,4.27,4.21,4.27a8,8,0,0,0,3.4-.64l.38,1.6a9.8,9.8,0,0,1-4.08.77c-3.79,0-6.05-2.49-6.05-6.2s2.19-6.63,5.77-6.63c4,0,5.08,3.53,5.08,5.79a9.19,9.19,0,0,1-.08,1Zm6.55-1.6c0-1.42-.59-3.63-3.1-3.63-2.26,0-3.25,2.09-3.43,3.63Z"/><path class="cls-8" d="M254.62,273.24c0-1.27,0-2.31-.1-3.33h2l.13,2h.05a4.53,4.53,0,0,1,4.06-2.31c1.7,0,4.34,1,4.34,5.23v7.34h-2.23v-7.08c0-2-.74-3.63-2.84-3.63a3.17,3.17,0,0,0-3,2.28,3.26,3.26,0,0,0-.15,1v7.39h-2.24Z"/><path class="cls-8" d="M271.3,266.38v3.53h3.2v1.7h-3.2v6.63c0,1.52.44,2.39,1.68,2.39a5.2,5.2,0,0,0,1.29-.15l.11,1.67a5.45,5.45,0,0,1-2,.31,3.11,3.11,0,0,1-2.42-.94,4.59,4.59,0,0,1-.86-3.2v-6.71h-1.9v-1.7h1.9V267Z"/><path class="cls-8" d="M283.82,282.2l-.18-1.55h-.07a4.58,4.58,0,0,1-3.76,1.83,3.5,3.5,0,0,1-3.76-3.53c0-3,2.64-4.59,7.39-4.57v-.25a2.54,2.54,0,0,0-2.79-2.85,6.09,6.09,0,0,0-3.2.92l-.51-1.47a7.65,7.65,0,0,1,4-1.1c3.76,0,4.67,2.57,4.67,5v4.6a17.57,17.57,0,0,0,.2,2.94Zm-.33-6.27c-2.44-.05-5.2.38-5.2,2.77a2,2,0,0,0,2.1,2.13,3,3,0,0,0,3-2.06,2.17,2.17,0,0,0,.13-.71Z"/><path class="cls-8" d="M291.84,266.38v3.53H295v1.7h-3.2v6.63c0,1.52.44,2.39,1.68,2.39a5.36,5.36,0,0,0,1.3-.15l.1,1.67a5.41,5.41,0,0,1-2,.31,3.12,3.12,0,0,1-2.42-.94,4.59,4.59,0,0,1-.86-3.2v-6.71h-1.9v-1.7h1.9V267Z"/><path class="cls-8" d="M300.05,266.46a1.39,1.39,0,0,1-2.77,0,1.36,1.36,0,0,1,1.39-1.4A1.33,1.33,0,0,1,300.05,266.46Zm-2.49,15.74V269.91h2.23V282.2Z"/><path class="cls-8" d="M314.62,276c0,4.54-3.15,6.52-6.12,6.52-3.33,0-5.89-2.44-5.89-6.32,0-4.11,2.69-6.53,6.09-6.53S314.62,272.2,314.62,276Zm-9.75.12c0,2.69,1.55,4.73,3.73,4.73s3.73-2,3.73-4.78c0-2.08-1-4.72-3.68-4.72S304.87,273.75,304.87,276.08Z"/><path class="cls-8" d="M317.44,273.24c0-1.27,0-2.31-.1-3.33h2l.12,2h.05a4.55,4.55,0,0,1,4.07-2.31c1.7,0,4.34,1,4.34,5.23v7.34h-2.24v-7.08c0-2-.73-3.63-2.84-3.63a3.19,3.19,0,0,0-3,2.28,3.26,3.26,0,0,0-.15,1v7.39h-2.23Z"/><path class="cls-8" d="M187.24,357.36H182v-1.88H194.7v1.88h-5.23v15.23h-2.23Z"/><path class="cls-8" d="M201.71,372.59l-.18-1.55h-.07a4.58,4.58,0,0,1-3.76,1.83,3.5,3.5,0,0,1-3.76-3.53c0-3,2.64-4.59,7.39-4.57v-.25a2.54,2.54,0,0,0-2.79-2.85,6.09,6.09,0,0,0-3.2.92l-.51-1.47a7.62,7.62,0,0,1,4-1.1c3.75,0,4.67,2.57,4.67,5v4.6a17.57,17.57,0,0,0,.2,2.94Zm-.33-6.27c-2.44-.05-5.21.38-5.21,2.77a2,2,0,0,0,2.11,2.13,3,3,0,0,0,3-2.05,2.28,2.28,0,0,0,.13-.72Z"/><path class="cls-8" d="M207.14,364.14c0-1.45,0-2.69-.1-3.84h2l.07,2.42h.1a3.7,3.7,0,0,1,3.41-2.7,2.41,2.41,0,0,1,.63.08v2.11a3.41,3.41,0,0,0-.76-.08,3.15,3.15,0,0,0-3,2.87,6.44,6.44,0,0,0-.1,1v6.55h-2.21Z"/><path class="cls-8" d="M218,356.85a1.31,1.31,0,0,1-1.42,1.37,1.33,1.33,0,0,1-1.34-1.37,1.36,1.36,0,0,1,1.39-1.4A1.33,1.33,0,0,1,218,356.85Zm-2.48,15.74V360.3h2.23v12.29Z"/><path class="cls-8" d="M229.08,372.59V362h-5.15v10.59h-2.21V362H220v-1.7h1.73v-.4a5.77,5.77,0,0,1,1.37-4.19,4.19,4.19,0,0,1,3.1-1.14,3.84,3.84,0,0,1,1.75.43l-.46,1.65a3.29,3.29,0,0,0-1.32-.31c-1.75,0-2.23,1.5-2.23,3.43v.53h5.15v-.58a5.8,5.8,0,0,1,1.45-4.29,4.24,4.24,0,0,1,3-1.14,5,5,0,0,1,1.9.35l-.28,1.73a3.45,3.45,0,0,0-1.44-.28c-1.88,0-2.39,1.67-2.39,3.55v.66h3V362h-2.95v10.59Z"/><path class="cls-8" d="M183.91,389.71c0-1.58,0-2.85-.1-4h2l.11,2.11H186a4.81,4.81,0,0,1,4.36-2.38c3,0,5.21,2.51,5.21,6.24,0,4.42-2.69,6.6-5.59,6.6a4.31,4.31,0,0,1-3.78-1.93h0V403h-2.21Zm2.21,3.27a5.18,5.18,0,0,0,.1.92,3.45,3.45,0,0,0,3.35,2.61c2.36,0,3.73-1.93,3.73-4.75,0-2.46-1.29-4.57-3.65-4.57a3.57,3.57,0,0,0-3.38,2.77,3.93,3.93,0,0,0-.15.91Z"/><path class="cls-8" d="M198.36,380h2.23v18h-2.23Z"/><path class="cls-8" d="M211.15,398l-.17-1.55h-.08a4.58,4.58,0,0,1-3.76,1.83,3.5,3.5,0,0,1-3.76-3.53c0-3,2.65-4.59,7.39-4.57v-.25a2.53,2.53,0,0,0-2.79-2.84,6.11,6.11,0,0,0-3.2.91l-.51-1.47a7.65,7.65,0,0,1,4-1.09c3.76,0,4.67,2.56,4.67,5V395a16.44,16.44,0,0,0,.21,2.94Zm-.33-6.27c-2.43,0-5.2.38-5.2,2.77a2,2,0,0,0,2.11,2.13,3.06,3.06,0,0,0,3-2.05,2.58,2.58,0,0,0,.12-.72Z"/><path class="cls-8" d="M216.59,389c0-1.27,0-2.31-.1-3.33h2l.12,2h0a4.53,4.53,0,0,1,4.07-2.31c1.7,0,4.34,1,4.34,5.23V398h-2.24V390.9c0-2-.73-3.63-2.84-3.63a3.19,3.19,0,0,0-3,2.28,3.26,3.26,0,0,0-.15,1V398h-2.23Z"/><path class="cls-8" d="M230.68,389c0-1.27,0-2.31-.1-3.33h2l.12,2h.06a4.5,4.5,0,0,1,4.06-2.31c1.7,0,4.34,1,4.34,5.23V398h-2.23V390.9c0-2-.74-3.63-2.85-3.63a3.17,3.17,0,0,0-3,2.28,3,3,0,0,0-.16,1V398h-2.23Z"/><path class="cls-8" d="M247.26,382.24a1.39,1.39,0,0,1-2.77,0,1.37,1.37,0,0,1,1.4-1.4A1.33,1.33,0,0,1,247.26,382.24ZM244.77,398V385.69H247V398Z"/><path class="cls-8" d="M250.71,389c0-1.27,0-2.31-.1-3.33h2l.13,2h.05a4.51,4.51,0,0,1,4.06-2.31c1.7,0,4.34,1,4.34,5.23V398h-2.23V390.9c0-2-.74-3.63-2.85-3.63a3.17,3.17,0,0,0-3,2.28,3.26,3.26,0,0,0-.15,1V398h-2.24Z"/><path class="cls-8" d="M275.39,385.69c-.05.89-.1,1.88-.1,3.38v7.14c0,2.81-.56,4.54-1.75,5.61a6.56,6.56,0,0,1-4.47,1.47,8,8,0,0,1-4.09-1l.56-1.7a6.9,6.9,0,0,0,3.61,1c2.28,0,4-1.2,4-4.29v-1.37h-.05a4.4,4.4,0,0,1-3.91,2.05c-3,0-5.24-2.59-5.24-6,0-4.16,2.72-6.52,5.54-6.52a4.07,4.07,0,0,1,3.83,2.13h.05l.11-1.86Zm-2.31,4.85a2.91,2.91,0,0,0-.13-1,3.2,3.2,0,0,0-3.12-2.36c-2.13,0-3.66,1.8-3.66,4.64,0,2.42,1.22,4.42,3.64,4.42A3.25,3.25,0,0,0,272.9,394a3.84,3.84,0,0,0,.18-1.2Z"/><path class="cls-8" d="M183.68,485.68a7.83,7.83,0,0,0,4,1.12c2.26,0,3.58-1.19,3.58-2.92s-.91-2.51-3.22-3.4c-2.79-1-4.52-2.44-4.52-4.85,0-2.67,2.21-4.65,5.53-4.65a7.79,7.79,0,0,1,3.79.84l-.61,1.8a6.88,6.88,0,0,0-3.25-.81c-2.34,0-3.23,1.4-3.23,2.56,0,1.6,1,2.39,3.41,3.3,2.89,1.12,4.36,2.52,4.36,5s-1.95,4.93-6,4.93a8.87,8.87,0,0,1-4.37-1.09Z"/><path class="cls-8" d="M197.82,482.64c.06,3,2,4.26,4.22,4.26a8.17,8.17,0,0,0,3.4-.63l.38,1.6a10,10,0,0,1-4.09.76c-3.78,0-6-2.49-6-6.2s2.19-6.62,5.77-6.62c4,0,5.07,3.53,5.07,5.78a10.2,10.2,0,0,1-.07,1.05Zm6.56-1.6c0-1.43-.59-3.63-3.1-3.63-2.26,0-3.25,2.08-3.43,3.63Z"/><path class="cls-8" d="M209.3,470.35h2.23v18H209.3Z"/><path class="cls-8" d="M215.52,488.37V477.79h-1.73v-1.7h1.73v-.59a5.79,5.79,0,0,1,1.42-4.29,4.3,4.3,0,0,1,3-1.14,5.31,5.31,0,0,1,1.9.35l-.3,1.73a3.38,3.38,0,0,0-1.42-.28c-1.91,0-2.39,1.68-2.39,3.55v.67h3v1.7h-3v10.58Z"/><path class="cls-8" d="M227.89,480.68v1.65h-6.28v-1.65Z"/><path class="cls-8" d="M235.58,486.09a5.87,5.87,0,0,0,2.94.89c1.63,0,2.39-.81,2.39-1.83s-.63-1.65-2.28-2.26c-2.21-.79-3.25-2-3.25-3.48,0-2,1.6-3.6,4.24-3.6a6.11,6.11,0,0,1,3,.76l-.56,1.62a4.81,4.81,0,0,0-2.51-.71c-1.33,0-2.06.76-2.06,1.68s.73,1.47,2.33,2.08c2.14.81,3.23,1.88,3.23,3.71,0,2.15-1.68,3.68-4.6,3.68a7,7,0,0,1-3.45-.84Z"/><path class="cls-8" d="M247.18,482.64a3.93,3.93,0,0,0,4.22,4.26,8.17,8.17,0,0,0,3.4-.63l.38,1.6a10.06,10.06,0,0,1-4.09.76c-3.78,0-6-2.49-6-6.2s2.18-6.62,5.76-6.62c4,0,5.08,3.53,5.08,5.78a10.2,10.2,0,0,1-.07,1.05Zm6.55-1.6c0-1.43-.58-3.63-3.09-3.63-2.26,0-3.25,2.08-3.43,3.63Z"/><path class="cls-8" d="M258.66,479.92c0-1.45,0-2.69-.1-3.83h1.95l.08,2.41h.1a3.68,3.68,0,0,1,3.4-2.69,2.51,2.51,0,0,1,.64.07V478a3.41,3.41,0,0,0-.76-.08,3.14,3.14,0,0,0-3,2.87,6.44,6.44,0,0,0-.1,1v6.55h-2.21Z"/><path class="cls-8" d="M268.46,476.09l2.41,6.9a29.62,29.62,0,0,1,1,3.15h.08c.28-1,.63-2,1-3.15l2.39-6.9h2.33l-4.82,12.28h-2.14l-4.67-12.28Z"/><path class="cls-8" d="M282.3,472.63a1.39,1.39,0,0,1-2.77,0,1.35,1.35,0,0,1,1.4-1.39A1.32,1.32,0,0,1,282.3,472.63Zm-2.49,15.74V476.09H282v12.28Z"/><path class="cls-8" d="M294.51,487.92a8.3,8.3,0,0,1-3.53.71c-3.71,0-6.12-2.52-6.12-6.27a6.24,6.24,0,0,1,6.6-6.53,7.39,7.39,0,0,1,3.1.64l-.51,1.72a5.23,5.23,0,0,0-2.59-.58c-2.82,0-4.34,2.08-4.34,4.64,0,2.85,1.83,4.6,4.27,4.6a6.34,6.34,0,0,0,2.74-.61Z"/><path class="cls-8" d="M298.22,482.64c0,3,2,4.26,4.21,4.26a8.14,8.14,0,0,0,3.4-.63l.38,1.6a10,10,0,0,1-4.08.76c-3.79,0-6.05-2.49-6.05-6.2s2.19-6.62,5.77-6.62c4,0,5.08,3.53,5.08,5.78a9.63,9.63,0,0,1-.08,1.05Zm6.55-1.6c0-1.43-.59-3.63-3.1-3.63-2.26,0-3.25,2.08-3.43,3.63Z"/><path class="cls-8" d="M183.91,505.49c0-1.58,0-2.85-.1-4h2l.11,2.1H186a4.83,4.83,0,0,1,4.36-2.38c3,0,5.21,2.51,5.21,6.24,0,4.42-2.69,6.6-5.59,6.6a4.31,4.31,0,0,1-3.78-1.93h0v6.68h-2.21Zm2.21,3.27a5.18,5.18,0,0,0,.1.92,3.44,3.44,0,0,0,3.35,2.61c2.36,0,3.73-1.93,3.73-4.75,0-2.46-1.29-4.57-3.65-4.57a3.58,3.58,0,0,0-3.38,2.77,3.93,3.93,0,0,0-.15.92Z"/><path class="cls-8" d="M209.48,507.52c0,4.54-3.15,6.52-6.12,6.52-3.33,0-5.89-2.43-5.89-6.32,0-4.11,2.69-6.52,6.09-6.52S209.48,503.76,209.48,507.52Zm-9.75.13c0,2.69,1.55,4.72,3.73,4.72s3.73-2,3.73-4.78c0-2.08-1-4.72-3.68-4.72S199.73,505.31,199.73,507.65Z"/><path class="cls-8" d="M212.3,505.31c0-1.45,0-2.69-.11-3.83h2l.08,2.41h.1a3.68,3.68,0,0,1,3.4-2.69,2.43,2.43,0,0,1,.63.07v2.11a3.28,3.28,0,0,0-.76-.08,3.13,3.13,0,0,0-3,2.87,6.44,6.44,0,0,0-.1,1v6.55H212.3Z"/><path class="cls-8" d="M223.9,498v3.53h3.2v1.7h-3.2v6.62c0,1.53.43,2.39,1.68,2.39a5.27,5.27,0,0,0,1.29-.15l.1,1.67a5.41,5.41,0,0,1-2,.31,3.09,3.09,0,0,1-2.41-.94,4.53,4.53,0,0,1-.86-3.2v-6.7h-1.91v-1.7h1.91v-3Z"/><path class="cls-8" d="M236.42,513.76l-.18-1.54h-.08a4.56,4.56,0,0,1-3.75,1.82,3.5,3.5,0,0,1-3.76-3.53c0-3,2.64-4.59,7.39-4.57v-.25a2.53,2.53,0,0,0-2.8-2.84,6.13,6.13,0,0,0-3.2.91l-.5-1.47a7.58,7.58,0,0,1,4-1.09c3.76,0,4.68,2.56,4.68,5v4.6a17.41,17.41,0,0,0,.2,2.94Zm-.33-6.27c-2.44-.05-5.21.38-5.21,2.77a2,2,0,0,0,2.11,2.13,3.06,3.06,0,0,0,3-2.05,2.27,2.27,0,0,0,.13-.71Z"/><path class="cls-8" d="M241.85,495.74h2.23v18h-2.23Z"/><path class="cls-8" d="M247.54,511.48a5.87,5.87,0,0,0,2.94.89c1.63,0,2.39-.81,2.39-1.83s-.64-1.65-2.29-2.26c-2.2-.79-3.25-2-3.25-3.48,0-2,1.6-3.6,4.24-3.6a6.13,6.13,0,0,1,3,.76l-.56,1.62a4.82,4.82,0,0,0-2.52-.71c-1.32,0-2.05.76-2.05,1.68s.73,1.47,2.33,2.08c2.14.81,3.23,1.88,3.23,3.71,0,2.16-1.68,3.68-4.6,3.68a7,7,0,0,1-3.45-.84Z"/><path class="cls-8" d="M196,603.6a11.12,11.12,0,0,1-4.52.81c-4.83,0-8.46-3-8.46-8.66,0-5.36,3.63-9,8.94-9a9.23,9.23,0,0,1,4.06.76l-.53,1.81a8,8,0,0,0-3.46-.71c-4,0-6.67,2.56-6.67,7,0,4.19,2.41,6.89,6.57,6.89a8.71,8.71,0,0,0,3.61-.72Z"/><path class="cls-8" d="M198.64,586.13h2.23v7.67h0a4.19,4.19,0,0,1,1.6-1.58,4.62,4.62,0,0,1,2.29-.63c1.65,0,4.29,1,4.29,5.25v7.32h-2.24V597.1c0-2-.73-3.66-2.84-3.66a3.22,3.22,0,0,0-3,2.23,2.88,2.88,0,0,0-.15,1.07v7.42h-2.23Z"/><path class="cls-8" d="M223,600.8c0,1.27,0,2.39.1,3.36h-2l-.12-2H221a4.6,4.6,0,0,1-4.06,2.28c-1.93,0-4.24-1.06-4.24-5.38v-7.18h2.24v6.8c0,2.34.71,3.91,2.74,3.91a3.16,3.16,0,0,0,3.15-3.17v-7.54H223Z"/><path class="cls-8" d="M226.72,595.7c0-1.45,0-2.69-.1-3.83h1.95l.08,2.41h.1a3.68,3.68,0,0,1,3.4-2.69,2.51,2.51,0,0,1,.64.07v2.11a3.41,3.41,0,0,0-.76-.08,3.14,3.14,0,0,0-3,2.87,6.44,6.44,0,0,0-.1,1v6.56h-2.21Z"/><path class="cls-8" d="M235.12,595.19c0-1.27,0-2.31-.1-3.32h2l.13,2h.05a4.51,4.51,0,0,1,4.06-2.31c1.7,0,4.34,1,4.34,5.23v7.34h-2.23v-7.09c0-2-.74-3.63-2.85-3.63a3.17,3.17,0,0,0-3,2.29,3.22,3.22,0,0,0-.15,1v7.39h-2.24Z"/><path class="cls-8" d="M183.91,620.58c0-1.27,0-2.31-.1-3.32h1.95l.11,2h.07A4.24,4.24,0,0,1,189.8,617a3.62,3.62,0,0,1,3.48,2.46h.05a5,5,0,0,1,1.37-1.6,4.2,4.2,0,0,1,2.72-.86c1.62,0,4,1.06,4,5.33v7.24h-2.19v-7c0-2.36-.86-3.78-2.66-3.78a2.91,2.91,0,0,0-2.65,2,3.7,3.7,0,0,0-.17,1.11v7.6H191.6v-7.37c0-1.95-.86-3.37-2.56-3.37a3,3,0,0,0-2.77,2.23,3,3,0,0,0-.18,1.09v7.42h-2.18Z"/><path class="cls-8" d="M211.89,629.55l-.18-1.55h-.07a4.61,4.61,0,0,1-3.76,1.83,3.51,3.51,0,0,1-3.76-3.53c0-3,2.64-4.6,7.39-4.57v-.26a2.53,2.53,0,0,0-2.79-2.84,6.08,6.08,0,0,0-3.2.91l-.51-1.47a7.65,7.65,0,0,1,4-1.09c3.75,0,4.67,2.56,4.67,5v4.6a17.62,17.62,0,0,0,.2,2.95Zm-.33-6.28c-2.44,0-5.2.39-5.2,2.77a2,2,0,0,0,2.1,2.13,3,3,0,0,0,3-2,2.22,2.22,0,0,0,.13-.71Z"/><path class="cls-8" d="M217.32,620.58c0-1.27,0-2.31-.1-3.32h2l.13,2h0a4.51,4.51,0,0,1,4.06-2.31c1.7,0,4.35,1,4.35,5.23v7.34h-2.24v-7.09c0-2-.74-3.63-2.84-3.63a3.17,3.17,0,0,0-3,2.29,3.26,3.26,0,0,0-.15,1v7.39h-2.24Z"/><path class="cls-8" d="M238.22,629.55,238,628H238a4.61,4.61,0,0,1-3.76,1.83,3.51,3.51,0,0,1-3.76-3.53c0-3,2.64-4.6,7.39-4.57v-.26a2.53,2.53,0,0,0-2.79-2.84,6.08,6.08,0,0,0-3.2.91l-.51-1.47a7.65,7.65,0,0,1,4-1.09c3.75,0,4.67,2.56,4.67,5v4.6a17.62,17.62,0,0,0,.2,2.95Zm-.33-6.28c-2.44,0-5.2.39-5.2,2.77a2,2,0,0,0,2.1,2.13,3,3,0,0,0,3-2,2.22,2.22,0,0,0,.13-.71Z"/><path class="cls-8" d="M254.24,617.26c-.05.89-.1,1.88-.1,3.37v7.14c0,2.82-.56,4.54-1.75,5.61a6.51,6.51,0,0,1-4.47,1.47,8,8,0,0,1-4.09-1l.56-1.7a7,7,0,0,0,3.61,1c2.28,0,4-1.19,4-4.29v-1.37h-.05A4.4,4.4,0,0,1,248,629.5c-3.05,0-5.23-2.59-5.23-6,0-4.16,2.71-6.52,5.53-6.52a4.07,4.07,0,0,1,3.83,2.13h.06l.1-1.85Zm-2.31,4.85a3,3,0,0,0-.13-1,3.21,3.21,0,0,0-3.12-2.36c-2.13,0-3.65,1.8-3.65,4.65,0,2.41,1.21,4.41,3.63,4.41a3.25,3.25,0,0,0,3.09-2.28,3.78,3.78,0,0,0,.18-1.19Z"/><path class="cls-8" d="M259.09,623.81a3.93,3.93,0,0,0,4.22,4.26,8.17,8.17,0,0,0,3.4-.63l.38,1.6a10.06,10.06,0,0,1-4.09.76c-3.78,0-6-2.49-6-6.2s2.18-6.62,5.76-6.62c4,0,5.08,3.53,5.08,5.79a7.57,7.57,0,0,1-.08,1Zm6.55-1.6c0-1.42-.58-3.63-3.1-3.63-2.26,0-3.25,2.08-3.42,3.63Z"/><path class="cls-8" d="M270.57,620.58c0-1.27,0-2.31-.1-3.32h1.95l.1,2h.08a4.23,4.23,0,0,1,3.86-2.26,3.64,3.64,0,0,1,3.48,2.46H280a5,5,0,0,1,1.37-1.6,4.18,4.18,0,0,1,2.72-.86c1.62,0,4,1.06,4,5.33v7.24h-2.18v-7c0-2.36-.86-3.78-2.67-3.78a2.89,2.89,0,0,0-2.64,2,3.68,3.68,0,0,0-.18,1.11v7.6h-2.18v-7.37c0-1.95-.86-3.37-2.56-3.37a3,3,0,0,0-2.77,2.23,3,3,0,0,0-.18,1.09v7.42h-2.18Z"/><path class="cls-8" d="M293,623.81c.05,3,2,4.26,4.21,4.26a8.14,8.14,0,0,0,3.4-.63L301,629a10.1,10.1,0,0,1-4.09.76c-3.79,0-6-2.49-6-6.2S293,617,296.62,617c4,0,5.08,3.53,5.08,5.79a7.57,7.57,0,0,1-.08,1Zm6.55-1.6c0-1.42-.59-3.63-3.1-3.63-2.26,0-3.25,2.08-3.43,3.63Z"/><path class="cls-8" d="M304.46,620.58c0-1.27,0-2.31-.1-3.32h2l.13,2h0a4.51,4.51,0,0,1,4.06-2.31c1.7,0,4.34,1,4.34,5.23v7.34h-2.23v-7.09c0-2-.74-3.63-2.84-3.63a3.17,3.17,0,0,0-3,2.29,3.26,3.26,0,0,0-.15,1v7.39h-2.24Z"/><path class="cls-8" d="M321.15,613.73v3.53h3.19V619h-3.19v6.63c0,1.52.43,2.38,1.67,2.38a4.9,4.9,0,0,0,1.3-.15l.1,1.68a5.67,5.67,0,0,1-2,.3,3.12,3.12,0,0,1-2.42-.94,4.57,4.57,0,0,1-.86-3.2V619h-1.9v-1.7H319v-3Z"/><path class="cls-8" d="M627.48,239.93a30.8,30.8,0,0,1,4.7-.36c3.18,0,5.44.74,6.93,2.13a7.88,7.88,0,0,1,2.42,6.15,9,9,0,0,1-2.47,6.65c-1.6,1.6-4.24,2.46-7.56,2.46a35.14,35.14,0,0,1-4-.2Zm2.21,15.13a14.12,14.12,0,0,0,2.24.13c4.72,0,7.28-2.64,7.28-7.27,0-4-2.25-6.6-6.93-6.6a12.38,12.38,0,0,0-2.59.23Z"/><path class="cls-8" d="M645.66,251.07c.05,3,2,4.27,4.22,4.27a8,8,0,0,0,3.4-.64l.38,1.6a9.85,9.85,0,0,1-4.09.77c-3.78,0-6-2.49-6-6.2s2.18-6.63,5.76-6.63c4,0,5.08,3.53,5.08,5.79a10,10,0,0,1-.07,1Zm6.55-1.6c0-1.42-.58-3.63-3.09-3.63-2.26,0-3.25,2.08-3.43,3.63Z"/><path class="cls-8" d="M657.14,247.85c0-1.27,0-2.31-.1-3.33h2l.11,2h.07a4.26,4.26,0,0,1,3.86-2.26,3.63,3.63,0,0,1,3.48,2.47h0a5,5,0,0,1,1.37-1.6,4.2,4.2,0,0,1,2.72-.87c1.62,0,4,1.07,4,5.34v7.23H672.5v-7c0-2.36-.86-3.78-2.66-3.78a2.91,2.91,0,0,0-2.65,2,3.77,3.77,0,0,0-.17,1.12v7.59h-2.19v-7.36c0-2-.86-3.38-2.56-3.38a3.06,3.06,0,0,0-2.77,2.24,3,3,0,0,0-.18,1.09v7.41h-2.18Z"/><path class="cls-8" d="M685.12,256.81l-.18-1.55h-.07a4.58,4.58,0,0,1-3.76,1.83,3.5,3.5,0,0,1-3.76-3.53c0-3,2.64-4.59,7.39-4.57v-.25a2.54,2.54,0,0,0-2.79-2.85,6.09,6.09,0,0,0-3.2.92l-.51-1.47a7.56,7.56,0,0,1,4-1.1c3.75,0,4.67,2.57,4.67,5v4.6a17.57,17.57,0,0,0,.2,2.94Zm-.33-6.27c-2.44,0-5.2.38-5.2,2.77a2,2,0,0,0,2.1,2.13,3.05,3.05,0,0,0,3-2.06,2.17,2.17,0,0,0,.13-.71Z"/><path class="cls-8" d="M690.55,247.85c0-1.27,0-2.31-.1-3.33h2l.13,2h.05a4.53,4.53,0,0,1,4.06-2.31c1.7,0,4.35,1,4.35,5.23v7.34h-2.24v-7.08c0-2-.74-3.63-2.84-3.63a3.17,3.17,0,0,0-3,2.28,3.26,3.26,0,0,0-.15,1v7.39h-2.24Z"/><path class="cls-8" d="M715.26,238.78v14.86c0,1.09,0,2.33.1,3.17h-2l-.11-2.13h0a4.54,4.54,0,0,1-4.19,2.41c-3,0-5.25-2.51-5.25-6.25,0-4.08,2.51-6.6,5.51-6.6a4.09,4.09,0,0,1,3.7,1.88H713v-7.34ZM713,249.52a3.69,3.69,0,0,0-.11-.93A3.28,3.28,0,0,0,709.7,246c-2.31,0-3.68,2-3.68,4.74,0,2.49,1.22,4.55,3.63,4.55a3.35,3.35,0,0,0,3.27-2.67,3.67,3.67,0,0,0,.11-1Z"/><path class="cls-8" d="M627.41,273.75c0-1.45,0-2.69-.1-3.84h2l.08,2.42h.1a3.68,3.68,0,0,1,3.4-2.7,2.49,2.49,0,0,1,.64.08v2.11a3.44,3.44,0,0,0-.77-.08,3.13,3.13,0,0,0-3,2.87,6.44,6.44,0,0,0-.1,1v6.55h-2.21Z"/><path class="cls-8" d="M636.7,276.46c0,3,2,4.27,4.22,4.27a8,8,0,0,0,3.4-.64l.38,1.6a9.85,9.85,0,0,1-4.09.77c-3.78,0-6-2.49-6-6.2s2.18-6.63,5.76-6.63c4,0,5.08,3.53,5.08,5.79a7.3,7.3,0,0,1-.08,1Zm6.55-1.6c0-1.42-.58-3.63-3.1-3.63-2.26,0-3.25,2.09-3.42,3.63Z"/><path class="cls-8" d="M647.87,279.92a5.88,5.88,0,0,0,3,.89c1.62,0,2.39-.82,2.39-1.83s-.64-1.65-2.29-2.26c-2.21-.79-3.25-2-3.25-3.48,0-2,1.6-3.61,4.24-3.61a6.08,6.08,0,0,1,3,.77l-.56,1.62a4.81,4.81,0,0,0-2.51-.71c-1.32,0-2.06.76-2.06,1.68s.74,1.47,2.34,2.08c2.13.81,3.22,1.88,3.22,3.7,0,2.16-1.67,3.69-4.59,3.69a7,7,0,0,1-3.46-.84Z"/><path class="cls-8" d="M658.23,273.92c0-1.57-.05-2.84-.1-4h2l.1,2.11h0a4.83,4.83,0,0,1,4.37-2.39c3,0,5.2,2.52,5.2,6.25,0,4.42-2.69,6.6-5.58,6.6a4.32,4.32,0,0,1-3.79-1.93h0v6.68h-2.21Zm2.21,3.28a5,5,0,0,0,.1.91,3.46,3.46,0,0,0,3.35,2.62c2.37,0,3.74-1.93,3.74-4.75,0-2.46-1.3-4.57-3.66-4.57a3.58,3.58,0,0,0-3.38,2.77,3.93,3.93,0,0,0-.15.91Z"/><path class="cls-8" d="M683.8,276c0,4.54-3.15,6.52-6.12,6.52-3.32,0-5.89-2.44-5.89-6.32,0-4.11,2.69-6.53,6.09-6.53S683.8,272.2,683.8,276Zm-9.75.12c0,2.69,1.55,4.73,3.73,4.73s3.74-2,3.74-4.78c0-2.08-1-4.72-3.69-4.72S674.05,273.75,674.05,276.08Z"/><path class="cls-8" d="M686.62,273.24c0-1.27,0-2.31-.1-3.33h2l.12,2h.06a4.52,4.52,0,0,1,4.06-2.31c1.7,0,4.34,1,4.34,5.23v7.34h-2.23v-7.08c0-2-.74-3.63-2.85-3.63a3.17,3.17,0,0,0-3,2.28,3,3,0,0,0-.16,1v7.39h-2.23Z"/><path class="cls-8" d="M700.41,279.92a5.84,5.84,0,0,0,2.94.89c1.63,0,2.39-.82,2.39-1.83s-.64-1.65-2.29-2.26c-2.21-.79-3.25-2-3.25-3.48,0-2,1.6-3.61,4.24-3.61a6,6,0,0,1,3,.77l-.55,1.62a4.89,4.89,0,0,0-2.52-.71c-1.32,0-2,.76-2,1.68s.73,1.47,2.33,2.08c2.13.81,3.23,1.88,3.23,3.7,0,2.16-1.68,3.69-4.6,3.69a7,7,0,0,1-3.45-.84Z"/><path class="cls-8" d="M712,276.46c0,3,2,4.27,4.21,4.27a8,8,0,0,0,3.41-.64l.38,1.6a9.89,9.89,0,0,1-4.09.77c-3.78,0-6-2.49-6-6.2s2.18-6.63,5.76-6.63c4,0,5.08,3.53,5.08,5.79a7.3,7.3,0,0,1-.08,1Zm6.55-1.6c0-1.42-.58-3.63-3.1-3.63-2.26,0-3.25,2.09-3.43,3.63Z"/><path class="cls-8" d="M639.44,372a10.84,10.84,0,0,1-4.52.82c-4.82,0-8.45-3.05-8.45-8.66,0-5.36,3.63-9,8.94-9a9.27,9.27,0,0,1,4.06.76l-.53,1.8a8.19,8.19,0,0,0-3.46-.71c-4,0-6.68,2.57-6.68,7.06,0,4.19,2.42,6.88,6.58,6.88a8.88,8.88,0,0,0,3.61-.71Z"/><path class="cls-8" d="M648.76,372.59l-.18-1.55h-.07a4.58,4.58,0,0,1-3.76,1.83,3.5,3.5,0,0,1-3.76-3.53c0-3,2.64-4.59,7.39-4.57v-.25a2.54,2.54,0,0,0-2.79-2.85,6.11,6.11,0,0,0-3.2.92l-.51-1.47a7.65,7.65,0,0,1,4-1.1c3.76,0,4.67,2.57,4.67,5v4.6a17.57,17.57,0,0,0,.2,2.94Zm-.33-6.27c-2.44-.05-5.2.38-5.2,2.77a2,2,0,0,0,2.1,2.13,3,3,0,0,0,3-2.05,2.28,2.28,0,0,0,.13-.72Z"/><path class="cls-8" d="M654.2,363.63c0-1.27,0-2.31-.11-3.33h2l.1,2h.08a4.23,4.23,0,0,1,3.86-2.26,3.63,3.63,0,0,1,3.47,2.47h.06a5,5,0,0,1,1.37-1.6,4.17,4.17,0,0,1,2.71-.87c1.63,0,4,1.07,4,5.34v7.23h-2.18v-6.95c0-2.37-.87-3.79-2.67-3.79a2.89,2.89,0,0,0-2.64,2,3.75,3.75,0,0,0-.18,1.12v7.59h-2.18v-7.36c0-2-.86-3.38-2.57-3.38a3,3,0,0,0-2.76,2.24,3,3,0,0,0-.18,1.09v7.41H654.2Z"/><path class="cls-8" d="M675.37,364.32c0-1.58,0-2.85-.1-4h2l.1,2.11h0A4.83,4.83,0,0,1,681.8,360c3,0,5.2,2.52,5.2,6.25,0,4.42-2.69,6.6-5.59,6.6a4.31,4.31,0,0,1-3.78-1.93h0v6.68h-2.21Zm2.21,3.27a5,5,0,0,0,.1.91,3.45,3.45,0,0,0,3.35,2.62c2.36,0,3.74-1.93,3.74-4.75,0-2.46-1.3-4.57-3.66-4.57a3.57,3.57,0,0,0-3.38,2.77,3.93,3.93,0,0,0-.15.91Z"/><path class="cls-8" d="M696.62,372.59l-.18-1.55h-.07a4.58,4.58,0,0,1-3.76,1.83,3.5,3.5,0,0,1-3.76-3.53c0-3,2.64-4.59,7.39-4.57v-.25a2.54,2.54,0,0,0-2.79-2.85,6.11,6.11,0,0,0-3.2.92l-.51-1.47a7.65,7.65,0,0,1,4-1.1c3.76,0,4.67,2.57,4.67,5v4.6a17.57,17.57,0,0,0,.2,2.94Zm-.33-6.27c-2.43-.05-5.2.38-5.2,2.77a2,2,0,0,0,2.1,2.13,3.07,3.07,0,0,0,3-2.05,2.58,2.58,0,0,0,.12-.72Z"/><path class="cls-8" d="M704.54,356.85a1.31,1.31,0,0,1-1.42,1.37,1.33,1.33,0,0,1-1.34-1.37,1.36,1.36,0,0,1,1.39-1.4A1.33,1.33,0,0,1,704.54,356.85Zm-2.48,15.74V360.3h2.23v12.29Z"/><path class="cls-8" d="M718.59,360.3c-.06.89-.11,1.88-.11,3.38v7.14c0,2.81-.55,4.54-1.75,5.61a6.54,6.54,0,0,1-4.47,1.47,7.91,7.91,0,0,1-4.08-1l.55-1.7a7,7,0,0,0,3.61,1c2.28,0,4-1.2,4-4.29v-1.37h0a4.4,4.4,0,0,1-3.91,2.05c-3.05,0-5.23-2.59-5.23-6,0-4.16,2.72-6.53,5.53-6.53a4.09,4.09,0,0,1,3.84,2.14h0l.1-1.86Zm-2.31,4.85a3.17,3.17,0,0,0-.13-1,3.22,3.22,0,0,0-3.12-2.36c-2.14,0-3.66,1.8-3.66,4.64,0,2.42,1.22,4.42,3.63,4.42a3.27,3.27,0,0,0,3.1-2.28,4.21,4.21,0,0,0,.18-1.2Z"/><path class="cls-8" d="M722,363.63c0-1.27,0-2.31-.1-3.33h2l.12,2h.05a4.54,4.54,0,0,1,4.07-2.32c1.7,0,4.34,1,4.34,5.23v7.34h-2.24v-7.08c0-2-.73-3.63-2.84-3.63a3.19,3.19,0,0,0-3,2.28,3.26,3.26,0,0,0-.15,1v7.39H722Z"/><path class="cls-8" d="M627.41,389c0-1.27,0-2.31-.1-3.33h2l.1,2h.08a4.25,4.25,0,0,1,3.86-2.25,3.64,3.64,0,0,1,3.48,2.46h.05a5,5,0,0,1,1.37-1.6,4.2,4.2,0,0,1,2.72-.86c1.62,0,4,1.06,4,5.33V398h-2.18v-7c0-2.36-.86-3.79-2.67-3.79a2.89,2.89,0,0,0-2.64,2,3.82,3.82,0,0,0-.17,1.12V398H635.1v-7.36c0-1.95-.86-3.38-2.56-3.38a3.06,3.06,0,0,0-2.77,2.24,3,3,0,0,0-.18,1.09V398h-2.18Z"/><path class="cls-8" d="M655.39,398l-.18-1.55h-.08a4.54,4.54,0,0,1-3.75,1.83,3.5,3.5,0,0,1-3.76-3.53c0-3,2.64-4.59,7.39-4.57v-.25a2.53,2.53,0,0,0-2.8-2.84A6.07,6.07,0,0,0,649,388l-.51-1.47a7.62,7.62,0,0,1,4-1.09c3.75,0,4.67,2.56,4.67,5V395a17.49,17.49,0,0,0,.2,2.94Zm-.33-6.27c-2.44,0-5.21.38-5.21,2.77a2,2,0,0,0,2.11,2.13,3,3,0,0,0,3-2.05,2.28,2.28,0,0,0,.13-.72Z"/><path class="cls-8" d="M660.82,389c0-1.27,0-2.31-.1-3.33h2l.13,2h0a4.51,4.51,0,0,1,4.06-2.31c1.7,0,4.34,1,4.34,5.23V398h-2.23V390.9c0-2-.74-3.63-2.84-3.63a3.17,3.17,0,0,0-3,2.28,3.26,3.26,0,0,0-.15,1V398h-2.24Z"/><path class="cls-8" d="M681.72,398l-.18-1.55h-.08a4.54,4.54,0,0,1-3.75,1.83,3.5,3.5,0,0,1-3.76-3.53c0-3,2.64-4.59,7.39-4.57v-.25a2.53,2.53,0,0,0-2.79-2.84,6.08,6.08,0,0,0-3.2.91l-.51-1.47a7.62,7.62,0,0,1,4-1.09c3.75,0,4.67,2.56,4.67,5V395a17.49,17.49,0,0,0,.2,2.94Zm-.33-6.27c-2.44,0-5.21.38-5.21,2.77a2,2,0,0,0,2.11,2.13,3,3,0,0,0,3-2.05,2.28,2.28,0,0,0,.13-.72Z"/><path class="cls-8" d="M697.74,385.69c0,.89-.1,1.88-.1,3.38v7.14c0,2.81-.56,4.54-1.75,5.61a6.56,6.56,0,0,1-4.47,1.47,8,8,0,0,1-4.09-1l.56-1.7a6.89,6.89,0,0,0,3.6,1c2.29,0,4-1.2,4-4.29v-1.37h-.06a4.37,4.37,0,0,1-3.91,2.05c-3,0-5.23-2.59-5.23-6,0-4.16,2.72-6.52,5.54-6.52a4.07,4.07,0,0,1,3.83,2.13h0l.11-1.86Zm-2.31,4.85a3.17,3.17,0,0,0-.13-1,3.21,3.21,0,0,0-3.12-2.36c-2.13,0-3.66,1.8-3.66,4.64,0,2.42,1.22,4.42,3.63,4.42a3.26,3.26,0,0,0,3.1-2.28,3.84,3.84,0,0,0,.18-1.2Z"/><path class="cls-8" d="M702.59,392.25c0,3,2,4.26,4.21,4.26a8.22,8.22,0,0,0,3.41-.63l.38,1.6a10.1,10.1,0,0,1-4.09.76c-3.78,0-6-2.49-6-6.2s2.18-6.62,5.76-6.62c4,0,5.08,3.52,5.08,5.78a7.61,7.61,0,0,1-.08,1.05Zm6.55-1.6c0-1.43-.58-3.64-3.1-3.64-2.26,0-3.25,2.09-3.43,3.64Z"/><path class="cls-8" d="M714.07,389c0-1.27,0-2.31-.11-3.33h2l.1,2h.08a4.24,4.24,0,0,1,3.86-2.25,3.64,3.64,0,0,1,3.48,2.46h0a5,5,0,0,1,1.37-1.6,4.17,4.17,0,0,1,2.71-.86c1.63,0,4,1.06,4,5.33V398h-2.18v-7c0-2.36-.87-3.79-2.67-3.79a2.89,2.89,0,0,0-2.64,2,3.81,3.81,0,0,0-.18,1.12V398h-2.18v-7.36c0-1.95-.86-3.38-2.57-3.38a3,3,0,0,0-2.76,2.24,3,3,0,0,0-.18,1.09V398h-2.18Z"/><path class="cls-8" d="M736.49,392.25c0,3,2,4.26,4.21,4.26a8.14,8.14,0,0,0,3.4-.63l.38,1.6a10,10,0,0,1-4.08.76c-3.79,0-6-2.49-6-6.2s2.19-6.62,5.77-6.62c4,0,5.07,3.52,5.07,5.78a10.2,10.2,0,0,1-.07,1.05Zm6.55-1.6c0-1.43-.59-3.64-3.1-3.64-2.26,0-3.25,2.09-3.43,3.64Z"/><path class="cls-8" d="M748,389c0-1.27,0-2.31-.1-3.33h2l.13,2h0a4.51,4.51,0,0,1,4.06-2.31c1.7,0,4.34,1,4.34,5.23V398h-2.23V390.9c0-2-.74-3.63-2.84-3.63a3.17,3.17,0,0,0-3,2.28,3.26,3.26,0,0,0-.15,1V398H748Z"/><path class="cls-8" d="M764.64,382.17v3.52h3.2v1.71h-3.2V394c0,1.53.44,2.39,1.68,2.39a5.2,5.2,0,0,0,1.29-.15l.11,1.67a5.45,5.45,0,0,1-2,.31,3.11,3.11,0,0,1-2.42-.94,4.57,4.57,0,0,1-.86-3.2v-6.7h-1.9v-1.71h1.9v-2.94Z"/><path class="cls-8" d="M627.48,471.26h9.22v1.85h-7v5.69h6.48v1.83h-6.48v7.74h-2.21Z"/><path class="cls-8" d="M639.11,479.92c0-1.45,0-2.69-.1-3.83h2l.07,2.41h.11a3.67,3.67,0,0,1,3.4-2.69,2.43,2.43,0,0,1,.63.07V478a3.34,3.34,0,0,0-.76-.08,3.15,3.15,0,0,0-3,2.87,6.44,6.44,0,0,0-.1,1v6.55h-2.21Z"/><path class="cls-8" d="M654.09,488.37l-.17-1.54h-.08a4.6,4.6,0,0,1-3.76,1.82,3.5,3.5,0,0,1-3.76-3.53c0-3,2.65-4.59,7.39-4.57v-.25a2.53,2.53,0,0,0-2.79-2.84,6.11,6.11,0,0,0-3.2.91l-.51-1.47a7.65,7.65,0,0,1,4-1.09c3.76,0,4.67,2.56,4.67,5v4.6a16.37,16.37,0,0,0,.21,2.94Zm-.33-6.27c-2.43-.05-5.2.38-5.2,2.77a2,2,0,0,0,2.11,2.13,3.06,3.06,0,0,0,3-2.05,2.58,2.58,0,0,0,.12-.71Z"/><path class="cls-8" d="M669.81,485c0,1.27,0,2.39.1,3.35h-2l-.12-2h-.06a4.6,4.6,0,0,1-4.06,2.28c-1.93,0-4.24-1.06-4.24-5.38v-7.18h2.24v6.8c0,2.34.71,3.91,2.74,3.91a3.16,3.16,0,0,0,3.15-3.17v-7.54h2.23Z"/><path class="cls-8" d="M684.13,470.35V485.2c0,1.09,0,2.34.1,3.17h-2l-.1-2.13h-.06a4.53,4.53,0,0,1-4.18,2.41c-3,0-5.26-2.51-5.26-6.24,0-4.09,2.51-6.6,5.51-6.6a4.11,4.11,0,0,1,3.71,1.87h0v-7.33Zm-2.23,10.74a4.29,4.29,0,0,0-.1-.94,3.29,3.29,0,0,0-3.23-2.59c-2.31,0-3.68,2-3.68,4.75,0,2.48,1.22,4.54,3.63,4.54a3.36,3.36,0,0,0,3.28-2.67,4.1,4.1,0,0,0,.1-1Z"/><path class="cls-8" d="M638,495.74v14.85c0,1.09,0,2.34.1,3.17h-2l-.1-2.13H636a4.53,4.53,0,0,1-4.18,2.41c-3,0-5.26-2.51-5.26-6.24,0-4.09,2.51-6.6,5.51-6.6a4.12,4.12,0,0,1,3.71,1.88h0v-7.34Zm-2.23,10.74a4.29,4.29,0,0,0-.1-.94,3.29,3.29,0,0,0-3.23-2.59c-2.31,0-3.68,2-3.68,4.75,0,2.48,1.22,4.54,3.63,4.54a3.37,3.37,0,0,0,3.28-2.66,4.25,4.25,0,0,0,.1-1Z"/><path class="cls-8" d="M643,508a3.93,3.93,0,0,0,4.22,4.26,8.17,8.17,0,0,0,3.4-.63l.38,1.6a10.06,10.06,0,0,1-4.09.76c-3.78,0-6-2.49-6-6.2s2.18-6.62,5.76-6.62c4,0,5.08,3.53,5.08,5.79a10.18,10.18,0,0,1-.07,1Zm6.55-1.6c0-1.43-.58-3.63-3.09-3.63-2.26,0-3.25,2.08-3.43,3.63Z"/><path class="cls-8" d="M657.14,498v3.53h3.2v1.7h-3.2v6.62c0,1.53.43,2.39,1.68,2.39a5.27,5.27,0,0,0,1.29-.15l.1,1.67a5.37,5.37,0,0,1-2,.31,3.09,3.09,0,0,1-2.41-.94,4.57,4.57,0,0,1-.86-3.2v-6.7h-1.91v-1.7H655v-3Z"/><path class="cls-8" d="M664,508c0,3,2,4.26,4.21,4.26a8.17,8.17,0,0,0,3.4-.63l.38,1.6a10,10,0,0,1-4.08.76c-3.79,0-6.05-2.49-6.05-6.2s2.19-6.62,5.77-6.62c4,0,5.07,3.53,5.07,5.79a10.18,10.18,0,0,1-.07,1Zm6.55-1.6c0-1.43-.59-3.63-3.1-3.63-2.26,0-3.25,2.08-3.43,3.63Z"/><path class="cls-8" d="M684.18,513.31a8.3,8.3,0,0,1-3.53.71c-3.7,0-6.12-2.52-6.12-6.27a6.24,6.24,0,0,1,6.6-6.53,7.35,7.35,0,0,1,3.1.64l-.51,1.72a5.23,5.23,0,0,0-2.59-.58c-2.81,0-4.34,2.08-4.34,4.65,0,2.84,1.83,4.59,4.27,4.59a6.31,6.31,0,0,0,2.74-.61Z"/><path class="cls-8" d="M689.82,498v3.53H693v1.7h-3.2v6.62c0,1.53.43,2.39,1.67,2.39a5.29,5.29,0,0,0,1.3-.15l.1,1.67a5.41,5.41,0,0,1-2,.31,3.09,3.09,0,0,1-2.41-.94,4.52,4.52,0,0,1-.87-3.2v-6.7h-1.9v-1.7h1.9v-3Z"/><path class="cls-8" d="M698,498a1.39,1.39,0,0,1-2.77,0,1.36,1.36,0,0,1,1.4-1.39A1.32,1.32,0,0,1,698,498Zm-2.49,15.74V501.48h2.24v12.28Z"/><path class="cls-8" d="M712.59,507.52c0,4.54-3.15,6.52-6.12,6.52-3.32,0-5.89-2.43-5.89-6.32,0-4.11,2.7-6.52,6.1-6.52S712.59,503.76,712.59,507.52Zm-9.75.13c0,2.69,1.55,4.72,3.74,4.72s3.73-2,3.73-4.78c0-2.08-1-4.72-3.68-4.72S702.84,505.31,702.84,507.65Z"/><path class="cls-8" d="M715.41,504.8c0-1.27,0-2.31-.1-3.32h2l.13,2h.05a4.51,4.51,0,0,1,4.06-2.31c1.7,0,4.34,1,4.34,5.23v7.33h-2.23v-7.08c0-2-.74-3.63-2.85-3.63a3.17,3.17,0,0,0-3,2.29,3.22,3.22,0,0,0-.15,1v7.38h-2.24Z"/><path class="cls-8" d="M627.48,587h2.21V602.3H637v1.86h-9.53Z"/><path class="cls-8" d="M650.16,597.91c0,4.54-3.15,6.52-6.12,6.52-3.33,0-5.89-2.43-5.89-6.32,0-4.11,2.69-6.52,6.09-6.52S650.16,594.15,650.16,597.91Zm-9.75.13c0,2.69,1.55,4.72,3.73,4.72s3.73-2,3.73-4.77c0-2.09-1-4.73-3.68-4.73S640.41,595.7,640.41,598Z"/><path class="cls-8" d="M652.67,601.87a5.88,5.88,0,0,0,3,.89c1.62,0,2.38-.81,2.38-1.83s-.63-1.65-2.28-2.26c-2.21-.79-3.25-2-3.25-3.48,0-2,1.6-3.6,4.24-3.6a6.11,6.11,0,0,1,3,.76l-.56,1.62a4.81,4.81,0,0,0-2.51-.71c-1.32,0-2.06.76-2.06,1.68s.74,1.47,2.34,2.08c2.13.81,3.22,1.88,3.22,3.71,0,2.16-1.67,3.68-4.59,3.68a7,7,0,0,1-3.46-.84Z"/><path class="cls-8" d="M662.73,601.87a5.84,5.84,0,0,0,2.94.89c1.63,0,2.39-.81,2.39-1.83s-.64-1.65-2.29-2.26c-2.21-.79-3.25-2-3.25-3.48,0-2,1.6-3.6,4.24-3.6a6.05,6.05,0,0,1,3,.76l-.55,1.62a4.85,4.85,0,0,0-2.52-.71c-1.32,0-2.05.76-2.05,1.68s.73,1.47,2.33,2.08c2.13.81,3.23,1.88,3.23,3.71,0,2.16-1.68,3.68-4.6,3.68a7,7,0,0,1-3.45-.84Z"/><path class="cls-8" d="M627.41,621.27c0-1.58,0-2.85-.1-4h2l.1,2.1h.05a4.86,4.86,0,0,1,4.37-2.38c3,0,5.21,2.51,5.21,6.24,0,4.42-2.69,6.61-5.59,6.61a4.32,4.32,0,0,1-3.78-1.93h0v6.67h-2.21Zm2.21,3.27a5.18,5.18,0,0,0,.1.92,3.44,3.44,0,0,0,3.35,2.61c2.36,0,3.73-1.93,3.73-4.74,0-2.47-1.29-4.58-3.65-4.58a3.57,3.57,0,0,0-3.38,2.77,3.47,3.47,0,0,0-.15.92Z"/><path class="cls-8" d="M641.86,621.09c0-1.45,0-2.69-.11-3.83h2l.07,2.41h.11a3.67,3.67,0,0,1,3.4-2.69,2.43,2.43,0,0,1,.63.07v2.11a3.39,3.39,0,0,0-.76-.07,3.12,3.12,0,0,0-3,2.86,5.46,5.46,0,0,0-.11,1v6.55h-2.2Z"/><path class="cls-8" d="M651.15,623.81c.05,3,2,4.26,4.21,4.26a8.22,8.22,0,0,0,3.41-.63l.38,1.6a10.1,10.1,0,0,1-4.09.76c-3.78,0-6-2.49-6-6.2s2.18-6.62,5.76-6.62c4,0,5.08,3.53,5.08,5.79a7.57,7.57,0,0,1-.08,1Zm6.55-1.6c0-1.42-.59-3.63-3.1-3.63-2.26,0-3.25,2.08-3.43,3.63Z"/><path class="cls-8" d="M663.49,617.26l2.41,6.9a30.36,30.36,0,0,1,1,3.15H667c.28-1,.63-2,1-3.15l2.38-6.9h2.34l-4.82,12.29h-2.14l-4.67-12.29Z"/><path class="cls-8" d="M675.83,623.81c0,3,2,4.26,4.21,4.26a8.14,8.14,0,0,0,3.4-.63l.39,1.6a10.1,10.1,0,0,1-4.09.76c-3.79,0-6-2.49-6-6.2s2.19-6.62,5.77-6.62c4,0,5.08,3.53,5.08,5.79a7.57,7.57,0,0,1-.08,1Zm6.55-1.6c0-1.42-.59-3.63-3.1-3.63-2.26,0-3.25,2.08-3.43,3.63Z"/><path class="cls-8" d="M687.3,620.58c0-1.27,0-2.31-.1-3.32h2l.13,2h.05a4.51,4.51,0,0,1,4.06-2.31c1.7,0,4.35,1,4.35,5.23v7.34h-2.24v-7.09c0-2-.74-3.63-2.84-3.63a3.17,3.17,0,0,0-3,2.29,3.26,3.26,0,0,0-.15,1v7.39H687.3Z"/><path class="cls-8" d="M704,613.73v3.53h3.2V619H704v6.63c0,1.52.43,2.38,1.67,2.38a4.84,4.84,0,0,0,1.3-.15l.1,1.68a5.67,5.67,0,0,1-2,.3,3.09,3.09,0,0,1-2.41-.94,4.52,4.52,0,0,1-.87-3.2V619h-1.9v-1.7h1.9v-3Z"/><path class="cls-8" d="M712.19,613.8a1.39,1.39,0,0,1-2.77,0,1.36,1.36,0,0,1,1.4-1.39A1.33,1.33,0,0,1,712.19,613.8Zm-2.49,15.75V617.26h2.23v12.29Z"/><path class="cls-8" d="M726.76,623.3c0,4.54-3.15,6.53-6.12,6.53-3.32,0-5.89-2.44-5.89-6.33,0-4.11,2.69-6.52,6.1-6.52S726.76,619.54,726.76,623.3Zm-9.75.13c0,2.69,1.55,4.72,3.73,4.72s3.74-2,3.74-4.77c0-2.09-1-4.73-3.69-4.73S717,621.09,717,623.43Z"/><path class="cls-8" d="M729.58,620.58c0-1.27,0-2.31-.1-3.32h2l.13,2h0A4.51,4.51,0,0,1,735.7,617c1.7,0,4.34,1,4.34,5.23v7.34h-2.23v-7.09c0-2-.74-3.63-2.85-3.63a3.17,3.17,0,0,0-3,2.29,3,3,0,0,0-.16,1v7.39h-2.23Z"/><path class="cls-8" d="M1063.56,239.93a22.9,22.9,0,0,1,4.24-.36c2.36,0,3.88.43,5,1.4a4.27,4.27,0,0,1,1.35,3.25,4.5,4.5,0,0,1-3.23,4.37v.07c1.32.46,2.11,1.68,2.52,3.45a26,26,0,0,0,1.32,4.7h-2.29a21.78,21.78,0,0,1-1.14-4.09c-.51-2.36-1.42-3.25-3.43-3.32h-2.08v7.41h-2.21Zm2.21,7.79H1068c2.36,0,3.86-1.29,3.86-3.25,0-2.21-1.6-3.17-3.94-3.2a8.53,8.53,0,0,0-2.18.21Z"/><path class="cls-8" d="M1078.49,251.07c0,3,2,4.27,4.21,4.27a8,8,0,0,0,3.41-.64l.38,1.6a9.89,9.89,0,0,1-4.09.77c-3.78,0-6-2.49-6-6.2s2.18-6.63,5.76-6.63c4,0,5.08,3.53,5.08,5.79a7.43,7.43,0,0,1-.08,1Zm6.55-1.6c0-1.42-.58-3.63-3.1-3.63-2.26,0-3.25,2.08-3.43,3.63Z"/><path class="cls-8" d="M1089.66,254.53a5.88,5.88,0,0,0,2.95.89c1.62,0,2.38-.82,2.38-1.83s-.63-1.65-2.28-2.26c-2.21-.79-3.25-2-3.25-3.48,0-2,1.6-3.61,4.24-3.61a6.22,6.22,0,0,1,3,.76l-.56,1.63a4.81,4.81,0,0,0-2.51-.71c-1.32,0-2.06.76-2.06,1.67s.74,1.48,2.34,2.09c2.13.81,3.22,1.88,3.22,3.7,0,2.16-1.67,3.69-4.59,3.69a7,7,0,0,1-3.46-.84Z"/><path class="cls-8" d="M1111.14,250.57c0,4.54-3.15,6.52-6.12,6.52-3.32,0-5.89-2.44-5.89-6.32,0-4.11,2.69-6.53,6.1-6.53S1111.14,246.81,1111.14,250.57Zm-9.75.12c0,2.69,1.55,4.73,3.73,4.73s3.74-2,3.74-4.78c0-2.08-1-4.72-3.69-4.72S1101.39,248.36,1101.39,250.69Z"/><path class="cls-8" d="M1124.24,253.46c0,1.27,0,2.39.1,3.35h-2l-.12-2h0a4.63,4.63,0,0,1-4.07,2.28c-1.93,0-4.24-1.07-4.24-5.38v-7.19h2.24v6.81c0,2.33.71,3.91,2.74,3.91a3.24,3.24,0,0,0,3-2,3.46,3.46,0,0,0,.2-1.15v-7.54h2.23Z"/><path class="cls-8" d="M1128,248.36c0-1.45,0-2.69-.1-3.84h2l.08,2.41h.1a3.68,3.68,0,0,1,3.4-2.69,2.49,2.49,0,0,1,.64.08v2.11a3.41,3.41,0,0,0-.76-.08,3.13,3.13,0,0,0-3,2.87,6.33,6.33,0,0,0-.1,1v6.55H1128Z"/><path class="cls-8" d="M1144.76,256.35a8.15,8.15,0,0,1-3.53.72c-3.71,0-6.12-2.52-6.12-6.28a6.24,6.24,0,0,1,6.6-6.52,7.57,7.57,0,0,1,3.1.63l-.51,1.73a5.23,5.23,0,0,0-2.59-.58c-2.82,0-4.34,2.08-4.34,4.64,0,2.85,1.83,4.6,4.27,4.6a6.38,6.38,0,0,0,2.74-.61Z"/><path class="cls-8" d="M1148.47,251.07c0,3,2,4.27,4.21,4.27a8,8,0,0,0,3.4-.64l.38,1.6a9.8,9.8,0,0,1-4.08.77c-3.79,0-6.05-2.49-6.05-6.2s2.19-6.63,5.77-6.63c4,0,5.07,3.53,5.07,5.79a10,10,0,0,1-.07,1Zm6.55-1.6c0-1.42-.59-3.63-3.1-3.63-2.26,0-3.25,2.08-3.43,3.63Z"/><path class="cls-8" d="M1074.6,276c0,4.54-3.14,6.52-6.11,6.52-3.33,0-5.9-2.44-5.9-6.32,0-4.11,2.7-6.53,6.1-6.53S1074.6,272.2,1074.6,276Zm-9.75.12c0,2.69,1.55,4.73,3.74,4.73s3.73-2,3.73-4.78c0-2.08-1-4.72-3.68-4.72S1064.85,273.75,1064.85,276.08Z"/><path class="cls-8" d="M1077.42,273.92c0-1.57-.05-2.84-.1-4h2l.1,2.11h0a4.83,4.83,0,0,1,4.37-2.39c3,0,5.2,2.52,5.2,6.25,0,4.42-2.69,6.6-5.58,6.6a4.32,4.32,0,0,1-3.79-1.93h0v6.68h-2.21Zm2.21,3.28a5,5,0,0,0,.1.91,3.46,3.46,0,0,0,3.36,2.62c2.36,0,3.73-1.93,3.73-4.75,0-2.46-1.3-4.57-3.66-4.57a3.58,3.58,0,0,0-3.38,2.77,3.93,3.93,0,0,0-.15.91Z"/><path class="cls-8" d="M1094.56,266.38v3.53h3.2v1.7h-3.2v6.63c0,1.52.43,2.39,1.68,2.39a5.27,5.27,0,0,0,1.29-.15l.1,1.67a5.37,5.37,0,0,1-2,.31,3.09,3.09,0,0,1-2.41-.94,4.59,4.59,0,0,1-.86-3.2v-6.71h-1.91v-1.7h1.91V267Z"/><path class="cls-8" d="M1102.76,266.46a1.31,1.31,0,0,1-1.42,1.37,1.33,1.33,0,0,1-1.35-1.37,1.37,1.37,0,0,1,1.4-1.4A1.33,1.33,0,0,1,1102.76,266.46Zm-2.49,15.74V269.91h2.24V282.2Z"/><path class="cls-8" d="M1106.21,273.24c0-1.27,0-2.31-.1-3.33h2l.1,2h.08a4.23,4.23,0,0,1,3.86-2.26,3.63,3.63,0,0,1,3.47,2.47h.05a5.11,5.11,0,0,1,1.38-1.6,4.15,4.15,0,0,1,2.71-.87c1.63,0,4,1.07,4,5.34v7.23h-2.18v-6.95c0-2.37-.87-3.79-2.67-3.79a2.89,2.89,0,0,0-2.64,2,3.75,3.75,0,0,0-.18,1.12v7.59h-2.18v-7.36c0-2-.86-3.38-2.57-3.38a3,3,0,0,0-2.76,2.24,3,3,0,0,0-.18,1.09v7.41h-2.19Z"/><path class="cls-8" d="M1129.88,266.46a1.39,1.39,0,0,1-2.77,0,1.37,1.37,0,0,1,1.4-1.4A1.33,1.33,0,0,1,1129.88,266.46Zm-2.49,15.74V269.91h2.24V282.2Z"/><path class="cls-8" d="M1131.94,280.91l5.56-7.24c.53-.66,1-1.24,1.6-1.9v0h-6.66v-1.81h9.37l0,1.4-5.49,7.13a24.46,24.46,0,0,1-1.57,1.93v.05h7.18v1.78h-10Z"/><path class="cls-8" d="M1151,282.2l-.17-1.55h-.08a4.58,4.58,0,0,1-3.76,1.83,3.5,3.5,0,0,1-3.76-3.53c0-3,2.65-4.59,7.39-4.57v-.25a2.54,2.54,0,0,0-2.79-2.85,6.11,6.11,0,0,0-3.2.92l-.51-1.47a7.65,7.65,0,0,1,4-1.1c3.76,0,4.67,2.57,4.67,5v4.6a16.51,16.51,0,0,0,.21,2.94Zm-.33-6.27c-2.43-.05-5.2.38-5.2,2.77a2,2,0,0,0,2.11,2.13,3.05,3.05,0,0,0,3-2.06,2.46,2.46,0,0,0,.12-.71Z"/><path class="cls-8" d="M1159,266.38v3.53h3.2v1.7H1159v6.63c0,1.52.43,2.39,1.67,2.39a5.29,5.29,0,0,0,1.3-.15l.1,1.67a5.41,5.41,0,0,1-2,.31,3.09,3.09,0,0,1-2.41-.94,4.54,4.54,0,0,1-.87-3.2v-6.71h-1.9v-1.7h1.9V267Z"/><path class="cls-8" d="M1167.23,266.46a1.39,1.39,0,0,1-2.77,0,1.36,1.36,0,0,1,1.4-1.4A1.33,1.33,0,0,1,1167.23,266.46Zm-2.49,15.74V269.91H1167V282.2Z"/><path class="cls-8" d="M1181.8,276c0,4.54-3.15,6.52-6.12,6.52-3.32,0-5.89-2.44-5.89-6.32,0-4.11,2.69-6.53,6.1-6.53S1181.8,272.2,1181.8,276Zm-9.75.12c0,2.69,1.55,4.73,3.73,4.73s3.74-2,3.74-4.78c0-2.08-1-4.72-3.68-4.72S1172.05,273.75,1172.05,276.08Z"/><path class="cls-8" d="M1184.62,273.24c0-1.27,0-2.31-.1-3.33h2l.13,2h0a4.53,4.53,0,0,1,4.06-2.31c1.7,0,4.34,1,4.34,5.23v7.34h-2.23v-7.08c0-2-.74-3.63-2.85-3.63a3.17,3.17,0,0,0-3,2.28,3.26,3.26,0,0,0-.15,1v7.39h-2.24Z"/><path class="cls-8" d="M1063.56,355.48h9.22v1.85h-7V363h6.47v1.83h-6.47v7.74h-2.21Z"/><path class="cls-8" d="M1077.68,356.85a1.39,1.39,0,0,1-2.77,0,1.36,1.36,0,0,1,1.4-1.4A1.33,1.33,0,0,1,1077.68,356.85Zm-2.49,15.74V360.3h2.23v12.29Z"/><path class="cls-8" d="M1081.13,364.14c0-1.45,0-2.69-.1-3.84h2l.08,2.42h.1a3.7,3.7,0,0,1,3.4-2.7,2.43,2.43,0,0,1,.64.08v2.11a3.41,3.41,0,0,0-.76-.08,3.14,3.14,0,0,0-3,2.87,6.44,6.44,0,0,0-.1,1v6.55h-2.21Z"/><path class="cls-8" d="M1089.13,370.31a5.87,5.87,0,0,0,2.94.89c1.63,0,2.39-.82,2.39-1.83s-.63-1.65-2.29-2.26c-2.2-.79-3.25-2-3.25-3.48,0-2,1.6-3.61,4.25-3.61a6.11,6.11,0,0,1,3,.77l-.56,1.62a4.82,4.82,0,0,0-2.52-.71c-1.32,0-2,.76-2,1.68s.73,1.47,2.33,2.08c2.14.81,3.23,1.88,3.23,3.71,0,2.15-1.68,3.68-4.6,3.68a7,7,0,0,1-3.45-.84Z"/><path class="cls-8" d="M1102.18,356.77v3.53h3.2V362h-3.2v6.63c0,1.53.43,2.39,1.67,2.39a5.29,5.29,0,0,0,1.3-.15l.1,1.67a5.41,5.41,0,0,1-2,.31,3.09,3.09,0,0,1-2.41-.94,4.53,4.53,0,0,1-.86-3.2V362h-1.91v-1.7H1100v-2.94Z"/><path class="cls-8" d="M1122,372.14a8.3,8.3,0,0,1-3.53.71c-3.7,0-6.11-2.52-6.11-6.27a6.24,6.24,0,0,1,6.6-6.53,7.48,7.48,0,0,1,3.09.63l-.5,1.73a5.26,5.26,0,0,0-2.59-.58c-2.82,0-4.34,2.08-4.34,4.64,0,2.85,1.82,4.6,4.26,4.6a6.31,6.31,0,0,0,2.74-.61Z"/><path class="cls-8" d="M1135.62,366.35c0,4.54-3.15,6.52-6.12,6.52-3.33,0-5.89-2.44-5.89-6.32,0-4.11,2.69-6.53,6.09-6.53S1135.62,362.59,1135.62,366.35Zm-9.75.12c0,2.7,1.55,4.73,3.73,4.73s3.73-2,3.73-4.78c0-2.08-1-4.72-3.68-4.72S1125.87,364.14,1125.87,366.47Z"/><path class="cls-8" d="M1138.44,363.63c0-1.27,0-2.31-.11-3.33h2l.12,2h0a4.52,4.52,0,0,1,4.07-2.32c1.7,0,4.34,1,4.34,5.23v7.34h-2.24v-7.08c0-2-.73-3.63-2.84-3.63a3.18,3.18,0,0,0-3,2.28,3.26,3.26,0,0,0-.15,1v7.39h-2.23Z"/><path class="cls-8" d="M1155.12,356.77v3.53h3.2V362h-3.2v6.63c0,1.53.43,2.39,1.67,2.39a5.29,5.29,0,0,0,1.3-.15l.1,1.67a5.41,5.41,0,0,1-2,.31,3.09,3.09,0,0,1-2.41-.94,4.52,4.52,0,0,1-.87-3.2V362H1151v-1.7h1.9v-2.94Z"/><path class="cls-8" d="M1167.63,372.59l-.17-1.55h-.08a4.55,4.55,0,0,1-3.76,1.83,3.49,3.49,0,0,1-3.75-3.53c0-3,2.64-4.59,7.38-4.57v-.25a2.54,2.54,0,0,0-2.79-2.85,6.14,6.14,0,0,0-3.2.92l-.51-1.47a7.65,7.65,0,0,1,4-1.1c3.76,0,4.67,2.57,4.67,5v4.6a16.51,16.51,0,0,0,.21,2.94Zm-.33-6.27c-2.43-.05-5.2.38-5.2,2.77a2,2,0,0,0,2.11,2.13,3.06,3.06,0,0,0,3-2.05,2.58,2.58,0,0,0,.12-.72Z"/><path class="cls-8" d="M1181.83,372.14a8.33,8.33,0,0,1-3.53.71c-3.71,0-6.12-2.52-6.12-6.27a6.24,6.24,0,0,1,6.6-6.53,7.57,7.57,0,0,1,3.1.63l-.51,1.73a5.23,5.23,0,0,0-2.59-.58c-2.82,0-4.34,2.08-4.34,4.64,0,2.85,1.83,4.6,4.27,4.6a6.38,6.38,0,0,0,2.74-.61Z"/><path class="cls-8" d="M1187.46,356.77v3.53h3.2V362h-3.2v6.63c0,1.53.44,2.39,1.68,2.39a5.36,5.36,0,0,0,1.3-.15l.1,1.67a5.41,5.41,0,0,1-2,.31,3.12,3.12,0,0,1-2.42-.94,4.57,4.57,0,0,1-.86-3.2V362h-1.9v-1.7h1.9v-2.94Z"/><path class="cls-8" d="M1063.48,389.53c0-1.45,0-2.69-.1-3.84h2l.07,2.42h.1a3.69,3.69,0,0,1,3.41-2.69,2.43,2.43,0,0,1,.63.07v2.11a3.41,3.41,0,0,0-.76-.08,3.15,3.15,0,0,0-3,2.87,6.44,6.44,0,0,0-.1,1V398h-2.21Z"/><path class="cls-8" d="M1072.78,392.25c0,3,2,4.26,4.21,4.26a8.14,8.14,0,0,0,3.4-.63l.38,1.6a10,10,0,0,1-4.08.76c-3.79,0-6-2.49-6-6.2s2.19-6.62,5.77-6.62c4,0,5.08,3.52,5.08,5.78a9.63,9.63,0,0,1-.08,1.05Zm6.55-1.6c0-1.43-.59-3.64-3.1-3.64-2.26,0-3.25,2.09-3.43,3.64Z"/><path class="cls-8" d="M1084,395.7a5.87,5.87,0,0,0,2.94.89c1.63,0,2.39-.82,2.39-1.83s-.63-1.65-2.28-2.26c-2.21-.79-3.25-2-3.25-3.48,0-2,1.59-3.6,4.24-3.6a6.11,6.11,0,0,1,3,.76l-.56,1.62a4.82,4.82,0,0,0-2.52-.71c-1.32,0-2,.76-2,1.68s.73,1.47,2.33,2.08c2.14.81,3.23,1.88,3.23,3.71,0,2.15-1.68,3.68-4.6,3.68a7,7,0,0,1-3.45-.84Z"/><path class="cls-8" d="M1105.43,391.74c0,4.54-3.15,6.52-6.12,6.52-3.33,0-5.89-2.43-5.89-6.32,0-4.11,2.69-6.52,6.09-6.52S1105.43,388,1105.43,391.74Zm-9.75.12c0,2.7,1.55,4.73,3.73,4.73s3.73-2,3.73-4.78c0-2.08-1-4.72-3.68-4.72S1095.68,389.53,1095.68,391.86Z"/><path class="cls-8" d="M1108.25,380h2.23v18h-2.23Z"/><path class="cls-8" d="M1124.52,394.63c0,1.27,0,2.39.1,3.35h-2l-.12-2h0a4.63,4.63,0,0,1-4.07,2.28c-1.93,0-4.24-1.06-4.24-5.38v-7.19h2.24v6.81c0,2.34.71,3.91,2.74,3.91a3.16,3.16,0,0,0,3.15-3.17v-7.55h2.23Z"/><path class="cls-8" d="M1130.92,382.17v3.52h3.2v1.71h-3.2V394c0,1.53.43,2.39,1.68,2.39a5.27,5.27,0,0,0,1.29-.15l.1,1.67a5.37,5.37,0,0,1-2,.31,3.09,3.09,0,0,1-2.41-.94,4.57,4.57,0,0,1-.86-3.2v-6.7h-1.91v-1.71h1.91v-2.94Z"/><path class="cls-8" d="M1139.12,382.24a1.31,1.31,0,0,1-1.42,1.37,1.33,1.33,0,0,1-1.35-1.37,1.37,1.37,0,0,1,1.4-1.4A1.33,1.33,0,0,1,1139.12,382.24ZM1136.63,398V385.69h2.24V398Z"/><path class="cls-8" d="M1153.7,391.74c0,4.54-3.15,6.52-6.12,6.52-3.33,0-5.89-2.43-5.89-6.32,0-4.11,2.69-6.52,6.09-6.52S1153.7,388,1153.7,391.74Zm-9.75.12c0,2.7,1.54,4.73,3.73,4.73s3.73-2,3.73-4.78c0-2.08-1-4.72-3.68-4.72S1144,389.53,1144,391.86Z"/><path class="cls-8" d="M1156.51,389c0-1.27,0-2.31-.1-3.33h2l.13,2h0a4.51,4.51,0,0,1,4.06-2.31c1.7,0,4.34,1,4.34,5.23V398h-2.23V390.9c0-2-.74-3.63-2.84-3.63a3.17,3.17,0,0,0-3,2.28,3.26,3.26,0,0,0-.15,1V398h-2.24Z"/><path class="cls-8" d="M1075.52,487.82a11.08,11.08,0,0,1-4.52.81c-4.83,0-8.46-3.05-8.46-8.66,0-5.36,3.63-9,8.94-9a9.23,9.23,0,0,1,4.06.76l-.53,1.81a8,8,0,0,0-3.45-.71c-4,0-6.68,2.56-6.68,7.05,0,4.19,2.41,6.88,6.58,6.88a8.7,8.7,0,0,0,3.6-.71Z"/><path class="cls-8" d="M1078.13,479.92c0-1.45,0-2.69-.1-3.83h2l.07,2.41h.11a3.67,3.67,0,0,1,3.4-2.69,2.43,2.43,0,0,1,.63.07V478a3.34,3.34,0,0,0-.76-.08,3.15,3.15,0,0,0-3,2.87,6.44,6.44,0,0,0-.1,1v6.55h-2.21Z"/><path class="cls-8" d="M1097.3,482.13c0,4.54-3.14,6.52-6.12,6.52-3.32,0-5.89-2.43-5.89-6.32,0-4.11,2.7-6.52,6.1-6.52S1097.3,478.37,1097.3,482.13Zm-9.75.12c0,2.7,1.55,4.73,3.74,4.73s3.73-2,3.73-4.78c0-2.08-1-4.72-3.68-4.72S1087.55,479.92,1087.55,482.25Z"/><path class="cls-8" d="M1099.82,486.09a5.87,5.87,0,0,0,2.94.89c1.63,0,2.39-.81,2.39-1.83s-.64-1.65-2.29-2.26c-2.2-.79-3.25-2-3.25-3.48,0-2,1.6-3.6,4.24-3.6a6.13,6.13,0,0,1,3,.76l-.56,1.62a4.82,4.82,0,0,0-2.52-.71c-1.32,0-2,.76-2,1.68s.73,1.47,2.33,2.08c2.14.81,3.23,1.88,3.23,3.71,0,2.15-1.68,3.68-4.6,3.68a7,7,0,0,1-3.45-.84Z"/><path class="cls-8" d="M1109.87,486.09a5.88,5.88,0,0,0,3,.89c1.62,0,2.38-.81,2.38-1.83s-.63-1.65-2.28-2.26c-2.21-.79-3.25-2-3.25-3.48,0-2,1.6-3.6,4.24-3.6a6.11,6.11,0,0,1,3,.76l-.56,1.62a4.81,4.81,0,0,0-2.51-.71c-1.32,0-2.06.76-2.06,1.68s.74,1.47,2.34,2.08c2.13.81,3.22,1.88,3.22,3.71,0,2.15-1.67,3.68-4.59,3.68a7,7,0,0,1-3.46-.84Z"/><path class="cls-8" d="M1125.41,480.68v1.65h-6.27v-1.65Z"/><path class="cls-8" d="M1127.72,486.09a5.88,5.88,0,0,0,3,.89c1.62,0,2.38-.81,2.38-1.83s-.63-1.65-2.28-2.26c-2.21-.79-3.25-2-3.25-3.48,0-2,1.6-3.6,4.24-3.6a6.11,6.11,0,0,1,3,.76l-.56,1.62a4.81,4.81,0,0,0-2.51-.71c-1.32,0-2.06.76-2.06,1.68s.74,1.47,2.34,2.08c2.13.81,3.22,1.88,3.22,3.71,0,2.15-1.67,3.68-4.59,3.68a7,7,0,0,1-3.46-.84Z"/><path class="cls-8" d="M1139.32,482.64c.06,3,2,4.26,4.22,4.26a8.17,8.17,0,0,0,3.4-.63l.38,1.6a10,10,0,0,1-4.09.76c-3.78,0-6-2.49-6-6.2s2.19-6.62,5.77-6.62c4,0,5.07,3.53,5.07,5.78a10.2,10.2,0,0,1-.07,1.05Zm6.56-1.6c0-1.43-.59-3.63-3.1-3.63-2.26,0-3.25,2.08-3.43,3.63Z"/><path class="cls-8" d="M1150.8,470.35H1153v18h-2.24Z"/><path class="cls-8" d="M1156.79,470.35H1159v18h-2.24Z"/><path class="cls-8" d="M1070.29,513.76l-.18-1.54H1070a4.56,4.56,0,0,1-3.75,1.82,3.5,3.5,0,0,1-3.76-3.53c0-3,2.64-4.59,7.39-4.57v-.25a2.53,2.53,0,0,0-2.8-2.84,6.07,6.07,0,0,0-3.19.91l-.51-1.47a7.61,7.61,0,0,1,4-1.09c3.76,0,4.68,2.56,4.68,5v4.6a17.41,17.41,0,0,0,.2,2.94Zm-.33-6.27c-2.44-.05-5.21.38-5.21,2.77a2,2,0,0,0,2.11,2.13,3,3,0,0,0,3-2.05,2.27,2.27,0,0,0,.13-.71Z"/><path class="cls-8" d="M1075.72,504.8c0-1.27,0-2.31-.1-3.32h2l.13,2h0a4.51,4.51,0,0,1,4.06-2.31c1.7,0,4.34,1,4.34,5.23v7.33H1084v-7.08c0-2-.74-3.63-2.85-3.63a3.17,3.17,0,0,0-3,2.29,3.22,3.22,0,0,0-.15,1v7.38h-2.24Z"/><path class="cls-8" d="M1100.43,495.74v14.85c0,1.09,0,2.34.1,3.17h-2l-.1-2.13h-.05a4.55,4.55,0,0,1-4.19,2.41c-3,0-5.26-2.51-5.26-6.24,0-4.09,2.52-6.6,5.51-6.6a4.12,4.12,0,0,1,3.71,1.88h0v-7.34Zm-2.24,10.74a3.76,3.76,0,0,0-.1-.94,3.29,3.29,0,0,0-3.22-2.59c-2.31,0-3.69,2-3.69,4.75,0,2.48,1.22,4.54,3.64,4.54a3.36,3.36,0,0,0,3.27-2.66,3.75,3.75,0,0,0,.1-1Z"/><path class="cls-8" d="M1119.8,510.41c0,1.27,0,2.39.1,3.35h-2l-.13-2h0a4.62,4.62,0,0,1-4.06,2.28c-1.93,0-4.24-1.06-4.24-5.38v-7.18h2.23v6.8c0,2.34.72,3.91,2.75,3.91a3.16,3.16,0,0,0,3.15-3.17v-7.54h2.23Z"/><path class="cls-8" d="M1123.51,505.49c0-1.58,0-2.85-.11-4h2l.1,2.1h0a4.85,4.85,0,0,1,4.37-2.38c3,0,5.2,2.51,5.2,6.24,0,4.42-2.69,6.6-5.58,6.6a4.29,4.29,0,0,1-3.78-1.93h-.06v6.68h-2.2Zm2.2,3.27a5.15,5.15,0,0,0,.11.92,3.43,3.43,0,0,0,3.35,2.61c2.36,0,3.73-1.93,3.73-4.75,0-2.46-1.29-4.57-3.66-4.57a3.57,3.57,0,0,0-3.37,2.77,3.48,3.48,0,0,0-.16.92Z"/><path class="cls-8" d="M1143.51,506.07v1.65h-6.27v-1.65Z"/><path class="cls-8" d="M1145.82,511.48a5.88,5.88,0,0,0,3,.89c1.62,0,2.39-.81,2.39-1.83s-.64-1.65-2.29-2.26c-2.21-.79-3.25-2-3.25-3.48,0-2,1.6-3.6,4.24-3.6a6.05,6.05,0,0,1,3,.76l-.56,1.62a4.81,4.81,0,0,0-2.51-.71c-1.32,0-2.06.76-2.06,1.68s.74,1.47,2.34,2.08c2.13.81,3.22,1.88,3.22,3.71,0,2.16-1.67,3.68-4.59,3.68a7,7,0,0,1-3.45-.84Z"/><path class="cls-8" d="M1157.43,508c0,3,2,4.26,4.21,4.26a8.14,8.14,0,0,0,3.4-.63l.39,1.6a10.1,10.1,0,0,1-4.09.76c-3.79,0-6-2.49-6-6.2s2.19-6.62,5.77-6.62c4,0,5.08,3.53,5.08,5.79a7.57,7.57,0,0,1-.08,1Zm6.55-1.6c0-1.43-.59-3.63-3.1-3.63-2.26,0-3.25,2.08-3.43,3.63Z"/><path class="cls-8" d="M1168.9,495.74h2.24v18h-2.24Z"/><path class="cls-8" d="M1174.9,495.74h2.23v18h-2.23Z"/><path class="cls-8" d="M1075.52,603.6a11.08,11.08,0,0,1-4.52.81c-4.83,0-8.46-3-8.46-8.66,0-5.36,3.63-9,8.94-9a9.23,9.23,0,0,1,4.06.76l-.53,1.81a8,8,0,0,0-3.45-.71c-4,0-6.68,2.56-6.68,7,0,4.19,2.41,6.89,6.58,6.89a8.7,8.7,0,0,0,3.6-.72Z"/><path class="cls-8" d="M1077.63,595.7c0-1.45,0-2.69-.11-3.83h2l.08,2.41h.1a3.68,3.68,0,0,1,3.4-2.69,2.43,2.43,0,0,1,.63.07v2.11a3.28,3.28,0,0,0-.76-.08,3.13,3.13,0,0,0-3,2.87,6.44,6.44,0,0,0-.1,1v6.56h-2.21Z"/><path class="cls-8" d="M1086.41,598.42a3.93,3.93,0,0,0,4.22,4.26,8.17,8.17,0,0,0,3.4-.63l.38,1.6a10.06,10.06,0,0,1-4.09.76c-3.78,0-6-2.49-6-6.2s2.18-6.62,5.76-6.62c4,0,5.08,3.53,5.08,5.79a7.57,7.57,0,0,1-.08,1Zm6.55-1.6c0-1.42-.58-3.63-3.1-3.63-2.26,0-3.25,2.08-3.42,3.63Z"/><path class="cls-8" d="M1108,586.13V601c0,1.09,0,2.34.1,3.18h-2L1106,602h0a4.56,4.56,0,0,1-4.19,2.41c-3,0-5.26-2.51-5.26-6.24,0-4.09,2.51-6.6,5.51-6.6a4.12,4.12,0,0,1,3.71,1.88h0v-7.34Zm-2.23,10.74a4.29,4.29,0,0,0-.1-.94,3.29,3.29,0,0,0-3.23-2.59c-2.31,0-3.68,2-3.68,4.75,0,2.49,1.22,4.54,3.63,4.54a3.37,3.37,0,0,0,3.28-2.66,4.25,4.25,0,0,0,.1-1Z"/><path class="cls-8" d="M1113.68,588.41a1.31,1.31,0,0,1-1.42,1.37,1.33,1.33,0,0,1-1.35-1.37,1.36,1.36,0,0,1,1.4-1.39A1.32,1.32,0,0,1,1113.68,588.41Zm-2.49,15.75V591.87h2.24v12.29Z"/><path class="cls-8" d="M1119.32,588.34v3.53h3.2v1.7h-3.2v6.62c0,1.53.43,2.39,1.67,2.39a5.29,5.29,0,0,0,1.3-.15l.1,1.67a5.41,5.41,0,0,1-2,.31,3.09,3.09,0,0,1-2.41-.94,4.52,4.52,0,0,1-.87-3.2v-6.7h-1.9v-1.7h1.9v-3Z"/><path class="cls-8" d="M1136.2,604.16l-.18-1.55H1136a4.6,4.6,0,0,1-3.76,1.82,3.5,3.5,0,0,1-3.76-3.52c0-3,2.64-4.6,7.39-4.57v-.26a2.53,2.53,0,0,0-2.79-2.84,6.08,6.08,0,0,0-3.2.91l-.51-1.47a7.65,7.65,0,0,1,4-1.09c3.76,0,4.67,2.56,4.67,5v4.6a17.62,17.62,0,0,0,.2,2.95Zm-.33-6.28c-2.44,0-5.2.38-5.2,2.77a2,2,0,0,0,2.1,2.13,3,3,0,0,0,3-2,2.22,2.22,0,0,0,.13-.71Z"/><path class="cls-8" d="M1141.13,595.19c0-1.27,0-2.31-.1-3.32h2l.12,2h0a4.52,4.52,0,0,1,4.07-2.31c1.7,0,4.34,1,4.34,5.23v7.34h-2.24v-7.09c0-2-.73-3.63-2.84-3.63a3.18,3.18,0,0,0-3,2.29,3.22,3.22,0,0,0-.15,1v7.39h-2.23Z"/><path class="cls-8" d="M1165.32,586.13V601c0,1.09,0,2.34.11,3.18h-2l-.1-2.14h0a4.56,4.56,0,0,1-4.19,2.41c-3,0-5.26-2.51-5.26-6.24,0-4.09,2.52-6.6,5.51-6.6a4.12,4.12,0,0,1,3.71,1.88h0v-7.34Zm-2.23,10.74a4.29,4.29,0,0,0-.1-.94,3.29,3.29,0,0,0-3.23-2.59c-2.31,0-3.68,2-3.68,4.75,0,2.49,1.22,4.54,3.63,4.54A3.37,3.37,0,0,0,1163,600a4.25,4.25,0,0,0,.1-1Z"/><path class="cls-8" d="M1182.16,603.7a8.33,8.33,0,0,1-3.53.71c-3.71,0-6.12-2.51-6.12-6.27a6.24,6.24,0,0,1,6.6-6.53,7.39,7.39,0,0,1,3.1.64l-.51,1.72a5.23,5.23,0,0,0-2.59-.58c-2.82,0-4.34,2.08-4.34,4.65,0,2.84,1.83,4.59,4.26,4.59a6.39,6.39,0,0,0,2.75-.61Z"/><path class="cls-8" d="M1195.23,597.91c0,4.54-3.14,6.52-6.12,6.52-3.32,0-5.89-2.43-5.89-6.32,0-4.11,2.7-6.52,6.1-6.52S1195.23,594.15,1195.23,597.91Zm-9.75.13c0,2.69,1.55,4.72,3.74,4.72s3.73-2,3.73-4.77c0-2.09-1-4.73-3.68-4.73S1185.48,595.7,1185.48,598Z"/><path class="cls-8" d="M1197.54,586.13h2.24v18h-2.24Z"/><path class="cls-8" d="M1203,586.13h2.23v18H1203Z"/><path class="cls-8" d="M1209.76,598.42c0,3,2,4.26,4.21,4.26a8.14,8.14,0,0,0,3.4-.63l.38,1.6a10,10,0,0,1-4.08.76c-3.79,0-6.05-2.49-6.05-6.2s2.19-6.62,5.77-6.62c4,0,5.08,3.53,5.08,5.79a7.57,7.57,0,0,1-.08,1Zm6.55-1.6c0-1.42-.59-3.63-3.1-3.63-2.26,0-3.25,2.08-3.43,3.63Z"/><path class="cls-8" d="M1229.48,603.7a8.24,8.24,0,0,1-3.52.71c-3.71,0-6.12-2.51-6.12-6.27a6.24,6.24,0,0,1,6.6-6.53,7.39,7.39,0,0,1,3.1.64L1229,594a5.26,5.26,0,0,0-2.59-.58c-2.82,0-4.34,2.08-4.34,4.65,0,2.84,1.82,4.59,4.26,4.59a6.31,6.31,0,0,0,2.74-.61Z"/><path class="cls-8" d="M1234.61,588.34v3.53h3.2v1.7h-3.2v6.62c0,1.53.44,2.39,1.68,2.39a5.27,5.27,0,0,0,1.29-.15l.11,1.67a5.45,5.45,0,0,1-2,.31,3.11,3.11,0,0,1-2.42-.94,4.57,4.57,0,0,1-.86-3.2v-6.7h-1.9v-1.7h1.9v-3Z"/><path class="cls-8" d="M1242.31,588.41a1.39,1.39,0,0,1-2.77,0,1.36,1.36,0,0,1,1.4-1.39A1.33,1.33,0,0,1,1242.31,588.41Zm-2.49,15.75V591.87h2.23v12.29Z"/><path class="cls-8" d="M1256.37,597.91c0,4.54-3.15,6.52-6.12,6.52-3.32,0-5.89-2.43-5.89-6.32,0-4.11,2.69-6.52,6.1-6.52S1256.37,594.15,1256.37,597.91Zm-9.75.13c0,2.69,1.55,4.72,3.74,4.72s3.73-2,3.73-4.77c0-2.09-1-4.73-3.68-4.73S1246.62,595.7,1246.62,598Z"/><path class="cls-8" d="M1258.68,595.19c0-1.27,0-2.31-.1-3.32h2l.13,2h0a4.51,4.51,0,0,1,4.06-2.31c1.7,0,4.34,1,4.34,5.23v7.34h-2.23v-7.09c0-2-.74-3.63-2.84-3.63a3.17,3.17,0,0,0-3,2.29,3.22,3.22,0,0,0-.15,1v7.39h-2.24Z"/><path class="cls-8" d="M1063.48,620.58c0-1.27,0-2.31-.1-3.32h2l.1,2h.07a4.24,4.24,0,0,1,3.86-2.26,3.62,3.62,0,0,1,3.48,2.46h.05a5.09,5.09,0,0,1,1.37-1.6A4.2,4.2,0,0,1,1077,617c1.63,0,4,1.06,4,5.33v7.24h-2.19v-7c0-2.36-.86-3.78-2.66-3.78a2.89,2.89,0,0,0-2.64,2,3.68,3.68,0,0,0-.18,1.11v7.6h-2.18v-7.37c0-1.95-.87-3.37-2.57-3.37a3.06,3.06,0,0,0-2.77,2.23,3.23,3.23,0,0,0-.17,1.09v7.42h-2.19Z"/><path class="cls-8" d="M1091.46,629.55l-.17-1.55h-.08a4.61,4.61,0,0,1-3.76,1.83,3.51,3.51,0,0,1-3.76-3.53c0-3,2.65-4.6,7.39-4.57v-.26a2.53,2.53,0,0,0-2.79-2.84,6.11,6.11,0,0,0-3.2.91l-.51-1.47a7.65,7.65,0,0,1,4-1.09c3.76,0,4.67,2.56,4.67,5v4.6a16.55,16.55,0,0,0,.21,2.95Zm-.33-6.28c-2.43,0-5.2.39-5.2,2.77a2,2,0,0,0,2.11,2.13,3.06,3.06,0,0,0,3-2,2.52,2.52,0,0,0,.12-.71Z"/><path class="cls-8" d="M1096.9,620.58c0-1.27,0-2.31-.1-3.32h2l.12,2h0A4.53,4.53,0,0,1,1103,617c1.7,0,4.34,1,4.34,5.23v7.34h-2.24v-7.09c0-2-.73-3.63-2.84-3.63a3.19,3.19,0,0,0-3,2.29,3.26,3.26,0,0,0-.15,1v7.39h-2.23Z"/><path class="cls-8" d="M1117.79,629.55l-.17-1.55h-.08a4.61,4.61,0,0,1-3.76,1.83,3.51,3.51,0,0,1-3.76-3.53c0-3,2.64-4.6,7.39-4.57v-.26a2.53,2.53,0,0,0-2.79-2.84,6.11,6.11,0,0,0-3.2.91l-.51-1.47a7.65,7.65,0,0,1,4-1.09c3.76,0,4.67,2.56,4.67,5v4.6a17.62,17.62,0,0,0,.2,2.95Zm-.33-6.28c-2.43,0-5.2.39-5.2,2.77a2,2,0,0,0,2.11,2.13,3.06,3.06,0,0,0,3-2,2.52,2.52,0,0,0,.12-.71Z"/><path class="cls-8" d="M1133.82,617.26c-.06.89-.11,1.88-.11,3.37v7.14c0,2.82-.56,4.54-1.75,5.61a6.49,6.49,0,0,1-4.47,1.47,8,8,0,0,1-4.09-1l.56-1.7a7.06,7.06,0,0,0,3.61,1c2.28,0,4-1.19,4-4.29v-1.37h0a4.4,4.4,0,0,1-3.91,2.06c-3,0-5.23-2.59-5.23-6,0-4.16,2.72-6.52,5.53-6.52a4.09,4.09,0,0,1,3.84,2.13h0l.1-1.85Zm-2.32,4.85a3.29,3.29,0,0,0-.12-1,3.23,3.23,0,0,0-3.13-2.36c-2.13,0-3.65,1.8-3.65,4.65,0,2.41,1.22,4.41,3.63,4.41a3.27,3.27,0,0,0,3.1-2.28,4.08,4.08,0,0,0,.17-1.19Z"/><path class="cls-8" d="M1138.66,623.81c.06,3,2,4.26,4.22,4.26a8.17,8.17,0,0,0,3.4-.63l.38,1.6a10,10,0,0,1-4.09.76c-3.78,0-6-2.49-6-6.2s2.19-6.62,5.77-6.62c4,0,5.07,3.53,5.07,5.79a10.18,10.18,0,0,1-.07,1Zm6.56-1.6c0-1.42-.59-3.63-3.1-3.63-2.26,0-3.25,2.08-3.43,3.63Z"/><path class="cls-8" d="M1150.14,620.58c0-1.27,0-2.31-.1-3.32h2l.11,2h.07A4.24,4.24,0,0,1,1156,617a3.62,3.62,0,0,1,3.48,2.46h0a5,5,0,0,1,1.37-1.6,4.2,4.2,0,0,1,2.72-.86c1.62,0,4,1.06,4,5.33v7.24h-2.19v-7c0-2.36-.86-3.78-2.66-3.78a2.89,2.89,0,0,0-2.64,2A3.4,3.4,0,0,0,1160,622v7.6h-2.19v-7.37c0-1.95-.86-3.37-2.56-3.37a3,3,0,0,0-2.77,2.23,3.24,3.24,0,0,0-.18,1.09v7.42h-2.18Z"/><path class="cls-8" d="M1172.56,623.81a3.93,3.93,0,0,0,4.22,4.26,8.17,8.17,0,0,0,3.4-.63l.38,1.6a10.06,10.06,0,0,1-4.09.76c-3.78,0-6-2.49-6-6.2s2.18-6.62,5.76-6.62c4,0,5.08,3.53,5.08,5.79a7.57,7.57,0,0,1-.08,1Zm6.55-1.6c0-1.42-.58-3.63-3.1-3.63-2.26,0-3.25,2.08-3.42,3.63Z"/><path class="cls-8" d="M1184,620.58c0-1.27,0-2.31-.1-3.32h2l.12,2h0a4.53,4.53,0,0,1,4.07-2.31c1.7,0,4.34,1,4.34,5.23v7.34h-2.24v-7.09c0-2-.73-3.63-2.84-3.63a3.18,3.18,0,0,0-3,2.29,3.26,3.26,0,0,0-.15,1v7.39H1184Z"/><path class="cls-8" d="M1200.72,613.73v3.53h3.2V619h-3.2v6.63c0,1.52.43,2.38,1.67,2.38a4.84,4.84,0,0,0,1.3-.15l.1,1.68a5.67,5.67,0,0,1-2,.3,3.09,3.09,0,0,1-2.41-.94,4.52,4.52,0,0,1-.87-3.2V619h-1.9v-1.7h1.9v-3Z"/><path class="cls-8" d="M199,87.77a14.62,14.62,0,0,1-5.86,1c-7.88,0-11.95-4.91-11.95-11.41,0-7.78,5.56-12.12,12.46-12.12a13.3,13.3,0,0,1,5.62,1l-1.05,4.09a11.13,11.13,0,0,0-4.33-.84c-4.1,0-7.28,2.47-7.28,7.55,0,4.57,2.71,7.45,7.31,7.45a12.75,12.75,0,0,0,4.3-.75Z"/><path class="cls-8" d="M217.15,83.1c0,2.17.07,3.93.13,5.32h-4.47l-.23-2.34h-.1a6,6,0,0,1-5.19,2.71c-3.35,0-5.82-2.1-5.82-7.21V71.86h5.18v8.9c0,2.41.78,3.86,2.57,3.86a2.77,2.77,0,0,0,2.58-1.79,3,3,0,0,0,.17-1.12V71.86h5.18Z"/><path class="cls-8" d="M221.24,83.91a10,10,0,0,0,4.44,1.26c1.55,0,2.2-.55,2.2-1.39s-.51-1.26-2.44-1.9c-3.42-1.15-4.74-3-4.71-5,0-3.08,2.64-5.41,6.74-5.41a11.21,11.21,0,0,1,4.67.94L231.23,76a8.11,8.11,0,0,0-3.59-.95c-1.25,0-2,.51-2,1.35s.64,1.19,2.67,1.9c3.15,1.09,4.47,2.68,4.51,5.11,0,3.09-2.44,5.35-7.18,5.35a11.67,11.67,0,0,1-5.35-1.15Z"/><path class="cls-8" d="M241.72,67.12v4.74h3.69v3.79h-3.69v6c0,2,.48,2.91,2,2.91a8.24,8.24,0,0,0,1.52-.13l0,3.89a10.06,10.06,0,0,1-3.35.44,5.33,5.33,0,0,1-3.86-1.42c-.95-1-1.42-2.57-1.42-4.91V75.65h-2.2V71.86h2.2V68.27Z"/><path class="cls-8" d="M264.58,80c0,6.06-4.3,8.84-8.74,8.84-4.84,0-8.56-3.19-8.56-8.54s3.52-8.76,8.83-8.76A8,8,0,0,1,264.58,80Zm-12,.17c0,2.84,1.19,5,3.39,5,2,0,3.28-2,3.28-5,0-2.47-.95-5-3.28-5S252.59,77.68,252.59,80.12Z"/><path class="cls-8" d="M267.76,77.14c0-2.07-.07-3.83-.14-5.28H272l.23,2.23h.1a5.75,5.75,0,0,1,5-2.6,4.68,4.68,0,0,1,4.53,2.81h.07a7.3,7.3,0,0,1,2.13-2,6,6,0,0,1,3.15-.81c3.19,0,5.59,2.23,5.59,7.17v9.76h-5v-9c0-2.41-.78-3.79-2.44-3.79A2.51,2.51,0,0,0,283,77.41a4.18,4.18,0,0,0-.2,1.32v9.69h-5V79.14c0-2.1-.75-3.52-2.37-3.52A2.62,2.62,0,0,0,273,77.48a3.38,3.38,0,0,0-.2,1.29v9.65h-5Z"/><path class="cls-8" d="M300.83,81.78c.17,2.13,2.27,3.15,4.67,3.15a14.61,14.61,0,0,0,4.58-.68l.67,3.49a16.28,16.28,0,0,1-6,1c-5.62,0-8.84-3.25-8.84-8.43,0-4.2,2.61-8.83,8.37-8.83,5.35,0,7.38,4.16,7.38,8.26a11.92,11.92,0,0,1-.17,2Zm6.06-3.52c0-1.26-.54-3.35-2.91-3.35-2.17,0-3.05,2-3.18,3.35Z"/><path class="cls-8" d="M314.75,77.31c0-2.44-.07-4-.14-5.45h4.44l.16,3h.14a4.86,4.86,0,0,1,4.47-3.42,5.94,5.94,0,0,1,1.08.06v4.84a8.08,8.08,0,0,0-1.38-.13A3.32,3.32,0,0,0,320,78.87a6.75,6.75,0,0,0-.1,1.15v8.4h-5.14Z"/><path class="cls-8" d="M186,115.63c.17,2.14,2.27,3.15,4.68,3.15a14.59,14.59,0,0,0,4.57-.68l.68,3.49a16.33,16.33,0,0,1-6,1c-5.62,0-8.84-3.25-8.84-8.43,0-4.2,2.61-8.84,8.37-8.84,5.35,0,7.38,4.16,7.38,8.26a11.92,11.92,0,0,1-.17,2Zm6.07-3.52c0-1.25-.55-3.35-2.92-3.35-2.16,0-3,2-3.18,3.35Z"/><path class="cls-8" d="M200,111c0-2.06-.07-3.82-.14-5.28h4.47l.24,2.27h.1a6.06,6.06,0,0,1,5.11-2.64c3.39,0,5.93,2.23,5.93,7.11v9.82h-5.15v-9.18c0-2.13-.74-3.59-2.61-3.59a2.75,2.75,0,0,0-2.6,1.93,3.48,3.48,0,0,0-.21,1.29v9.55H200Z"/><path class="cls-8" d="M235.6,105.71c-.07,1.05-.14,2.44-.14,4.91v9.25c0,3.18-.64,5.79-2.5,7.44a10.21,10.21,0,0,1-6.74,2,12.86,12.86,0,0,1-6-1.29l1-3.89a10.14,10.14,0,0,0,4.8,1.25c2.44,0,4.3-1.32,4.3-4.37V120h-.06a5.3,5.3,0,0,1-4.47,2.16c-4.1,0-7-3.31-7-8.09,0-5.31,3.45-8.7,7.52-8.7a5,5,0,0,1,4.53,2.34H231l.17-2Zm-5.28,6.74a3.93,3.93,0,0,0-.11-1,2.82,2.82,0,0,0-2.77-2.27c-1.86,0-3.39,1.7-3.39,4.71,0,2.47,1.22,4.4,3.39,4.4a2.8,2.8,0,0,0,2.71-2.1,4.5,4.5,0,0,0,.17-1.35Z"/><path class="cls-8" d="M249,122.27l-.3-1.66h-.1a6,6,0,0,1-4.74,2,5.07,5.07,0,0,1-5.35-5.08c0-4.3,3.86-6.36,9.72-6.33V111c0-.88-.48-2.13-3-2.13a9.38,9.38,0,0,0-4.57,1.25l-.95-3.31a13.58,13.58,0,0,1,6.44-1.46c5.51,0,7.28,3.25,7.28,7.14v5.76a25.69,25.69,0,0,0,.23,4Zm-.61-7.82c-2.7,0-4.8.61-4.8,2.61a1.85,1.85,0,0,0,2,2,2.82,2.82,0,0,0,2.67-1.9,3.54,3.54,0,0,0,.1-.88Z"/><path class="cls-8" d="M273.28,105.71c-.07,1.05-.14,2.44-.14,4.91v9.25c0,3.18-.64,5.79-2.5,7.44a10.21,10.21,0,0,1-6.74,2,12.86,12.86,0,0,1-6-1.29l1-3.89a10.14,10.14,0,0,0,4.8,1.25c2.44,0,4.3-1.32,4.3-4.37V120H268a5.3,5.3,0,0,1-4.47,2.16c-4.1,0-7-3.31-7-8.09,0-5.31,3.45-8.7,7.51-8.7a5,5,0,0,1,4.54,2.34h.07l.17-2ZM268,112.45a3.93,3.93,0,0,0-.11-1,2.82,2.82,0,0,0-2.77-2.27c-1.86,0-3.39,1.7-3.39,4.71,0,2.47,1.22,4.4,3.39,4.4a2.8,2.8,0,0,0,2.71-2.1,4.5,4.5,0,0,0,.17-1.35Z"/><path class="cls-8" d="M281.23,115.63c.17,2.14,2.27,3.15,4.67,3.15a14.65,14.65,0,0,0,4.58-.68l.67,3.49a16.27,16.27,0,0,1-6,1c-5.62,0-8.84-3.25-8.84-8.43,0-4.2,2.61-8.84,8.37-8.84,5.35,0,7.38,4.16,7.38,8.26a13.07,13.07,0,0,1-.17,2Zm6.06-3.52c0-1.25-.54-3.35-2.91-3.35-2.17,0-3.05,2-3.18,3.35Z"/><path class="cls-8" d="M295.15,111c0-2.06-.07-3.82-.14-5.28h4.33l.24,2.24h.1a5.74,5.74,0,0,1,5-2.61,4.68,4.68,0,0,1,4.54,2.81h.07a7.43,7.43,0,0,1,2.13-2,6,6,0,0,1,3.15-.81c3.18,0,5.59,2.23,5.59,7.18v9.75h-5v-9c0-2.4-.78-3.79-2.44-3.79a2.51,2.51,0,0,0-2.37,1.8,4.15,4.15,0,0,0-.21,1.32v9.68h-5V113c0-2.1-.74-3.52-2.37-3.52a2.62,2.62,0,0,0-2.4,1.86,3.41,3.41,0,0,0-.2,1.29v9.65h-5Z"/><path class="cls-8" d="M328.22,115.63c.17,2.14,2.27,3.15,4.67,3.15a14.54,14.54,0,0,0,4.57-.68l.68,3.49a16.27,16.27,0,0,1-6,1c-5.62,0-8.84-3.25-8.84-8.43,0-4.2,2.61-8.84,8.36-8.84,5.35,0,7.39,4.16,7.39,8.26a13.07,13.07,0,0,1-.17,2Zm6.06-3.52c0-1.25-.54-3.35-2.91-3.35-2.17,0-3.05,2-3.18,3.35Z"/><path class="cls-8" d="M342.13,111c0-2.06-.06-3.82-.13-5.28h4.47l.23,2.27h.11a6,6,0,0,1,5.11-2.64c3.39,0,5.92,2.23,5.92,7.11v9.82H352.7v-9.18c0-2.13-.75-3.59-2.61-3.59a2.76,2.76,0,0,0-2.61,1.93,3.72,3.72,0,0,0-.2,1.29v9.55h-5.15Z"/><path class="cls-8" d="M367.53,101v4.74h3.69v3.79h-3.69v6c0,2,.47,2.91,2,2.91a8.1,8.1,0,0,0,1.52-.14l0,3.9a10.06,10.06,0,0,1-3.35.44,5.39,5.39,0,0,1-3.86-1.42c-.95-1-1.42-2.58-1.42-4.91V109.5h-2.2v-3.79h2.2v-3.59Z"/><path class="cls-8" d="M641.37,78.77H633v5.41h9.38v4.24H627.79V65.59h14.09v4.24H633v4.74h8.4Z"/><path class="cls-8" d="M645.7,77.14c0-2.07-.07-3.83-.14-5.28H650l.24,2.27h.1a6.06,6.06,0,0,1,5.11-2.64c3.39,0,5.93,2.23,5.93,7.11v9.82h-5.15V79.24c0-2.13-.74-3.59-2.6-3.59a2.74,2.74,0,0,0-2.61,1.93,3.41,3.41,0,0,0-.21,1.29v9.55H645.7Z"/><path class="cls-8" d="M669.5,81.78c.17,2.13,2.27,3.15,4.67,3.15a14.59,14.59,0,0,0,4.57-.68l.68,3.49a16.28,16.28,0,0,1-6,1c-5.62,0-8.84-3.25-8.84-8.43,0-4.2,2.61-8.83,8.36-8.83,5.35,0,7.38,4.16,7.38,8.26a11.92,11.92,0,0,1-.17,2Zm6.06-3.52c0-1.26-.54-3.35-2.91-3.35-2.17,0-3,2-3.19,3.35Z"/><path class="cls-8" d="M683.41,77.31c0-2.44-.07-4-.13-5.45h4.43l.17,3H688a4.84,4.84,0,0,1,4.47-3.42,5.94,5.94,0,0,1,1.08.06v4.84a8.11,8.11,0,0,0-1.39-.13,3.32,3.32,0,0,0-3.52,2.61,5.86,5.86,0,0,0-.1,1.15v8.4h-5.15Z"/><path class="cls-8" d="M711.82,71.86c-.07,1-.14,2.44-.14,4.91V86c0,3.18-.64,5.79-2.5,7.45a10.2,10.2,0,0,1-6.74,2,13,13,0,0,1-6-1.28l1-3.9a10.14,10.14,0,0,0,4.8,1.25c2.44,0,4.3-1.32,4.3-4.36V86.11h-.06a5.31,5.31,0,0,1-4.47,2.17c-4.1,0-7-3.32-7-8.09,0-5.32,3.45-8.7,7.51-8.7a5,5,0,0,1,4.54,2.33h.07l.17-2Zm-5.28,6.74a3.93,3.93,0,0,0-.11-.95,2.81,2.81,0,0,0-2.77-2.27c-1.86,0-3.39,1.69-3.39,4.71,0,2.47,1.22,4.4,3.39,4.4a2.8,2.8,0,0,0,2.71-2.1,4.57,4.57,0,0,0,.17-1.36Z"/><path class="cls-8" d="M719.67,71.86,722.14,80c.27,1,.61,2.2.81,3.09h.11c.23-.89.5-2.14.74-3.09l2-8.12h5.52l-3.86,10.9c-2.37,6.57-4,9.21-5.82,10.87a9.49,9.49,0,0,1-5,2.27l-1.08-4.37a6.55,6.55,0,0,0,2.23-.88A5.85,5.85,0,0,0,720,88.58a1.31,1.31,0,0,0,.28-.74A2,2,0,0,0,720,87L714,71.86Z"/><path class="cls-8" d="M640.05,121.86a12.49,12.49,0,0,1-4.61.75c-5.35,0-8.77-3.25-8.77-8.47,0-4.84,3.32-8.8,9.48-8.8a12.08,12.08,0,0,1,3.93.64l-.81,3.83a7.08,7.08,0,0,0-2.88-.51,4.64,4.64,0,0,0,.1,9.28,7.85,7.85,0,0,0,3-.51Z"/><path class="cls-8" d="M658.87,113.8c0,6.07-4.3,8.84-8.74,8.84-4.84,0-8.56-3.18-8.56-8.53s3.52-8.77,8.84-8.77A8.05,8.05,0,0,1,658.87,113.8Zm-12,.17c0,2.85,1.19,5,3.39,5,2,0,3.28-2,3.28-5,0-2.47-.94-5-3.28-5S646.88,111.54,646.88,114Z"/><path class="cls-8" d="M662.05,111c0-2.06-.07-3.82-.14-5.28h4.47l.24,2.27h.1a6.07,6.07,0,0,1,5.12-2.64c3.38,0,5.92,2.23,5.92,7.11v9.82h-5.15v-9.18c0-2.13-.74-3.59-2.6-3.59a2.75,2.75,0,0,0-2.61,1.93,3.5,3.5,0,0,0-.2,1.29v9.55h-5.15Z"/><path class="cls-8" d="M681.85,117.77a10.18,10.18,0,0,0,4.44,1.25c1.56,0,2.2-.54,2.2-1.39s-.51-1.25-2.44-1.9c-3.42-1.15-4.74-3-4.7-5,0-3.08,2.64-5.42,6.73-5.42a11.12,11.12,0,0,1,4.68,1l-.92,3.55a8.17,8.17,0,0,0-3.59-.94c-1.25,0-2,.5-2,1.35s.64,1.18,2.67,1.9c3.15,1.08,4.47,2.67,4.51,5.11,0,3.08-2.44,5.35-7.18,5.35a11.8,11.8,0,0,1-5.35-1.15Z"/><path class="cls-8" d="M700.54,115.63c.17,2.14,2.27,3.15,4.67,3.15a14.61,14.61,0,0,0,4.58-.68l.67,3.49a16.27,16.27,0,0,1-6,1c-5.62,0-8.84-3.25-8.84-8.43,0-4.2,2.61-8.84,8.37-8.84,5.35,0,7.38,4.16,7.38,8.26a11.92,11.92,0,0,1-.17,2Zm6.06-3.52c0-1.25-.54-3.35-2.91-3.35-2.17,0-3.05,2-3.18,3.35Z"/><path class="cls-8" d="M714.46,111.16c0-2.43-.07-4-.14-5.45h4.44l.16,3.05h.14a4.87,4.87,0,0,1,4.47-3.42,5.11,5.11,0,0,1,1.08.07v4.84a7.08,7.08,0,0,0-1.38-.14,3.32,3.32,0,0,0-3.53,2.61,6.84,6.84,0,0,0-.1,1.15v8.4h-5.14Z"/><path class="cls-8" d="M731.76,105.71,734,113.4a38.26,38.26,0,0,1,1,4h.1c.27-1.36.54-2.61.91-4l2.14-7.69h5.41l-6.16,16.56H732.2l-6-16.56Z"/><path class="cls-8" d="M755.05,122.27l-.31-1.66h-.1a6,6,0,0,1-4.74,2,5.08,5.08,0,0,1-5.35-5.08c0-4.3,3.86-6.36,9.72-6.33V111c0-.88-.47-2.13-3-2.13a9.35,9.35,0,0,0-4.57,1.25l-1-3.31a13.57,13.57,0,0,1,6.43-1.46c5.52,0,7.28,3.25,7.28,7.14v5.76a25.5,25.5,0,0,0,.24,4Zm-.61-7.82c-2.71,0-4.81.61-4.81,2.61a1.85,1.85,0,0,0,2,2,2.82,2.82,0,0,0,2.68-1.9,4.09,4.09,0,0,0,.1-.88Z"/><path class="cls-8" d="M769,101v4.74h3.69v3.79H769v6c0,2,.47,2.91,2,2.91a8.1,8.1,0,0,0,1.52-.14l0,3.9a10.17,10.17,0,0,1-3.36.44,5.39,5.39,0,0,1-3.86-1.42c-1-1-1.42-2.58-1.42-4.91V109.5h-2.2v-3.79H764v-3.59Z"/><path class="cls-8" d="M781,101.11a2.58,2.58,0,0,1-2.78,2.57,2.59,2.59,0,1,1,0-5.18A2.58,2.58,0,0,1,781,101.11Zm-5.32,21.16V105.71h5.15v16.56Z"/><path class="cls-8" d="M801.29,113.8c0,6.07-4.3,8.84-8.73,8.84-4.84,0-8.57-3.18-8.57-8.53s3.52-8.77,8.84-8.77A8,8,0,0,1,801.29,113.8Zm-12,.17c0,2.85,1.18,5,3.38,5,2,0,3.29-2,3.29-5,0-2.47-1-5-3.29-5S789.31,111.54,789.31,114Z"/><path class="cls-8" d="M804.47,111c0-2.06-.06-3.82-.13-5.28h4.47L809,108h.11a6,6,0,0,1,5.11-2.64c3.38,0,5.92,2.23,5.92,7.11v9.82H815v-9.18c0-2.13-.75-3.59-2.61-3.59a2.76,2.76,0,0,0-2.61,1.93,3.72,3.72,0,0,0-.2,1.29v9.55h-5.15Z"/><path class="cls-8" d="M1063.86,65.9a42.34,42.34,0,0,1,7-.48c3.18,0,5.45.61,7,1.83a6.67,6.67,0,0,1,2.44,5.29,7.25,7.25,0,0,1-2.1,5.41c-1.76,1.66-4.36,2.41-7.41,2.41a12.41,12.41,0,0,1-1.76-.11v8.17h-5.12ZM1069,76.26a8,8,0,0,0,1.72.13c2.75,0,4.44-1.38,4.44-3.72,0-2.1-1.46-3.35-4-3.35a8.87,8.87,0,0,0-2.13.2Z"/><path class="cls-8" d="M1086.51,81.78c.17,2.13,2.27,3.15,4.68,3.15a14.59,14.59,0,0,0,4.57-.68l.67,3.49a16.24,16.24,0,0,1-6,1c-5.62,0-8.84-3.25-8.84-8.43,0-4.2,2.61-8.83,8.37-8.83,5.35,0,7.38,4.16,7.38,8.26a11.92,11.92,0,0,1-.17,2Zm6.06-3.52c0-1.26-.54-3.35-2.91-3.35-2.16,0-3,2-3.18,3.35Z"/><path class="cls-8" d="M1100.43,77.31c0-2.44-.07-4-.14-5.45h4.44l.17,3h.13a4.86,4.86,0,0,1,4.47-3.42,6.06,6.06,0,0,1,1.09.06v4.84a8.32,8.32,0,0,0-1.39-.13,3.3,3.3,0,0,0-3.52,2.61,5.83,5.83,0,0,0-.11,1.15v8.4h-5.14Z"/><path class="cls-8" d="M1114.78,88.42V75.65h-2.17V71.86h2.17v-.65a7.56,7.56,0,0,1,2.1-5.55,6.71,6.71,0,0,1,4.57-1.66,10,10,0,0,1,2.74.34l-.2,4a5.76,5.76,0,0,0-1.66-.23c-1.69,0-2.4,1.32-2.4,2.94v.85h3.32v3.79H1120V88.42Z"/><path class="cls-8" d="M1141.76,80c0,6.06-4.3,8.84-8.73,8.84-4.84,0-8.57-3.19-8.57-8.54s3.52-8.76,8.84-8.76A8,8,0,0,1,1141.76,80Zm-12,.17c0,2.84,1.18,5,3.38,5,2,0,3.29-2,3.29-5,0-2.47-1-5-3.29-5S1129.78,77.68,1129.78,80.12Z"/><path class="cls-8" d="M1144.94,77.31c0-2.44-.06-4-.13-5.45h4.43l.17,3h.14a4.86,4.86,0,0,1,4.47-3.42,5.94,5.94,0,0,1,1.08.06v4.84a8.11,8.11,0,0,0-1.39-.13,3.32,3.32,0,0,0-3.52,2.61,6.75,6.75,0,0,0-.1,1.15v8.4h-5.15Z"/><path class="cls-8" d="M1157.81,77.14c0-2.07-.07-3.83-.14-5.28H1162l.23,2.23h.11a5.73,5.73,0,0,1,5-2.6,4.68,4.68,0,0,1,4.53,2.81h.07a7.42,7.42,0,0,1,2.13-2,6,6,0,0,1,3.15-.81c3.19,0,5.59,2.23,5.59,7.17v9.76h-5v-9c0-2.41-.78-3.79-2.44-3.79a2.52,2.52,0,0,0-2.37,1.79,4.49,4.49,0,0,0-.2,1.32v9.69h-5V79.14c0-2.1-.75-3.52-2.37-3.52a2.63,2.63,0,0,0-2.41,1.86,3.38,3.38,0,0,0-.2,1.29v9.65h-5Z"/><path class="cls-8" d="M1196.34,88.42l-.31-1.66h-.1a6,6,0,0,1-4.74,2,5.08,5.08,0,0,1-5.35-5.08c0-4.3,3.86-6.37,9.72-6.33v-.24c0-.88-.48-2.13-3-2.13a9.31,9.31,0,0,0-4.57,1.25l-1-3.32a13.76,13.76,0,0,1,6.44-1.45c5.52,0,7.28,3.25,7.28,7.14v5.76a27.07,27.07,0,0,0,.23,4Zm-.61-7.83c-2.71,0-4.81.61-4.81,2.61a1.85,1.85,0,0,0,2,2,2.8,2.8,0,0,0,2.67-1.9,3.6,3.6,0,0,0,.11-.88Z"/><path class="cls-8" d="M1204.8,77.14c0-2.07-.07-3.83-.14-5.28h4.47l.24,2.27h.1a6.06,6.06,0,0,1,5.11-2.64c3.39,0,5.93,2.23,5.93,7.11v9.82h-5.15V79.24c0-2.13-.74-3.59-2.61-3.59a2.74,2.74,0,0,0-2.6,1.93,3.41,3.41,0,0,0-.21,1.29v9.55h-5.14Z"/><path class="cls-8" d="M1237.06,88a12.46,12.46,0,0,1-4.6.74c-5.35,0-8.77-3.25-8.77-8.46,0-4.84,3.32-8.8,9.48-8.8a11.91,11.91,0,0,1,3.93.64l-.82,3.83a6.86,6.86,0,0,0-2.87-.51,4.64,4.64,0,0,0,.1,9.27,8,8,0,0,0,2.94-.5Z"/><path class="cls-8" d="M1243.49,81.78c.17,2.13,2.27,3.15,4.68,3.15a14.59,14.59,0,0,0,4.57-.68l.67,3.49a16.24,16.24,0,0,1-6,1c-5.62,0-8.84-3.25-8.84-8.43,0-4.2,2.61-8.83,8.37-8.83,5.35,0,7.38,4.16,7.38,8.26a11.92,11.92,0,0,1-.17,2Zm6.06-3.52c0-1.26-.54-3.35-2.91-3.35-2.16,0-3,2-3.18,3.35Z"/><path class="cls-8" d="M1069,101.11a2.58,2.58,0,0,1-2.78,2.57,2.59,2.59,0,1,1,0-5.18A2.58,2.58,0,0,1,1069,101.11Zm-5.31,21.16V105.71h5.14v16.56Z"/><path class="cls-8" d="M1073,111c0-2.06-.07-3.82-.13-5.28h4.33l.24,2.24h.1a5.73,5.73,0,0,1,5-2.61,4.69,4.69,0,0,1,4.54,2.81h.06a7.47,7.47,0,0,1,2.14-2,6,6,0,0,1,3.15-.81c3.18,0,5.58,2.23,5.58,7.18v9.75h-5v-9c0-2.4-.78-3.79-2.44-3.79a2.52,2.52,0,0,0-2.37,1.8,4.44,4.44,0,0,0-.2,1.32v9.68h-5V113c0-2.1-.75-3.52-2.37-3.52a2.62,2.62,0,0,0-2.4,1.86,3.42,3.42,0,0,0-.21,1.29v9.65h-5Z"/><path class="cls-8" d="M1102.09,111.27c0-2.17-.07-4-.14-5.56h4.47l.24,2.3h.06a6.36,6.36,0,0,1,5.52-2.67c3.63,0,6.88,3.15,6.88,8.43,0,6-3.83,8.87-7.52,8.87a5.14,5.14,0,0,1-4.3-1.89h-.07V129h-5.14Zm5.14,3.89a5.6,5.6,0,0,0,.1,1.08,3.12,3.12,0,0,0,3,2.44c2.23,0,3.55-1.86,3.55-4.67,0-2.64-1.18-4.64-3.49-4.64a3.23,3.23,0,0,0-3.08,2.61,4.45,4.45,0,0,0-.1.91Z"/><path class="cls-8" d="M1138.78,113.8c0,6.07-4.3,8.84-8.73,8.84-4.84,0-8.57-3.18-8.57-8.53s3.52-8.77,8.84-8.77A8,8,0,0,1,1138.78,113.8Zm-12,.17c0,2.85,1.18,5,3.38,5,2,0,3.29-2,3.29-5,0-2.47-1-5-3.29-5S1126.8,111.54,1126.8,114Z"/><path class="cls-8" d="M1145.49,105.71l2.23,7.69a38.26,38.26,0,0,1,1,4h.1c.27-1.36.54-2.61.91-4l2.14-7.69h5.42l-6.17,16.56h-5.14l-6-16.56Z"/><path class="cls-8" d="M1163.06,115.63c.17,2.14,2.27,3.15,4.67,3.15a14.59,14.59,0,0,0,4.57-.68l.68,3.49a16.33,16.33,0,0,1-6,1c-5.62,0-8.83-3.25-8.83-8.43,0-4.2,2.6-8.84,8.36-8.84,5.35,0,7.38,4.16,7.38,8.26a11.92,11.92,0,0,1-.17,2Zm6.06-3.52c0-1.25-.54-3.35-2.91-3.35-2.17,0-3,2-3.19,3.35Z"/><path class="cls-8" d="M1177,111c0-2.06-.07-3.82-.13-5.28h4.33l.24,2.24h.1a5.73,5.73,0,0,1,5-2.61,4.7,4.7,0,0,1,4.54,2.81h.06a7.47,7.47,0,0,1,2.14-2,6,6,0,0,1,3.15-.81c3.18,0,5.58,2.23,5.58,7.18v9.75h-5v-9c0-2.4-.78-3.79-2.44-3.79a2.52,2.52,0,0,0-2.37,1.8,4.44,4.44,0,0,0-.2,1.32v9.68h-5V113c0-2.1-.75-3.52-2.37-3.52a2.64,2.64,0,0,0-2.41,1.86,3.62,3.62,0,0,0-.2,1.29v9.65h-5Z"/><path class="cls-8" d="M1210.05,115.63c.16,2.14,2.26,3.15,4.67,3.15a14.59,14.59,0,0,0,4.57-.68l.68,3.49a16.33,16.33,0,0,1-6,1c-5.62,0-8.83-3.25-8.83-8.43,0-4.2,2.6-8.84,8.36-8.84,5.35,0,7.38,4.16,7.38,8.26a11.92,11.92,0,0,1-.17,2Zm6.06-3.52c0-1.25-.55-3.35-2.92-3.35-2.16,0-3,2-3.18,3.35Z"/><path class="cls-8" d="M1224,111c0-2.06-.07-3.82-.14-5.28h4.47l.24,2.27h.1a6.06,6.06,0,0,1,5.11-2.64c3.39,0,5.93,2.23,5.93,7.11v9.82h-5.15v-9.18c0-2.13-.74-3.59-2.6-3.59a2.75,2.75,0,0,0-2.61,1.93,3.5,3.5,0,0,0-.2,1.29v9.55H1224Z"/><path class="cls-8" d="M1249.35,101v4.74H1253v3.79h-3.69v6c0,2,.47,2.91,2,2.91a8.22,8.22,0,0,0,1.53-.14l0,3.9a10.14,10.14,0,0,1-3.35.44,5.37,5.37,0,0,1-3.86-1.42c-1-1-1.42-2.58-1.42-4.91V109.5h-2.2v-3.79h2.2v-3.59Z"/><path class="cls-5" d="M955.16,114.74c-6.11-5.39-10.29-14.26-10.29-25.22a36,36,0,0,1,69.25-14"/><line class="cls-5" x1="980.92" y1="53.49" x2="980.92" y2="60.98"/><line class="cls-5" x1="953.21" y1="89.53" x2="944.88" y2="89.53"/><line class="cls-5" x1="959.87" y1="69.12" x2="955.11" y2="64.36"/><line class="cls-5" x1="1005.54" y1="64.36" x2="1001.1" y2="68.8"/><line class="cls-5" x1="960.17" y1="109.73" x2="954.26" y2="115.64"/><polyline class="cls-5" points="958.25 130.53 979.92 110.06 988.63 118.07 1010.4 95.03"/><polygon class="cls-8" points="1013.55 100.42 1016.32 88.78 1004.85 92.2 1013.55 100.42"/><circle class="cls-5" cx="982.02" cy="91.97" r="4.5"/><circle class="cls-5" cx="955.11" cy="132.83" r="4.5"/><line class="cls-5" x1="985.61" y1="89.53" x2="999.03" y2="76.1"/><polyline class="cls-5" points="979.89 471.82 984.68 467.27 984.68 453.4"/><polyline class="cls-5" points="968.97 490.42 968.97 482.19 973.67 477.73"/><polygon class="cls-8" points="974.95 488.67 968.97 499.04 962.98 488.67 974.95 488.67"/><polyline class="cls-5" points="984.68 499.04 984.68 482.19 968.97 467.27 968.97 462.01"/><polygon class="cls-8" points="974.95 463.76 968.97 453.4 962.98 463.76 974.95 463.76"/><polyline class="cls-5" points="1012.24 463.21 1007.81 463.21 993.95 515.32 961.88 515.32"/><circle class="cls-5" cx="962.28" cy="519.82" r="4.5"/><circle class="cls-5" cx="985.29" cy="519.82" r="4.5"/><polyline class="cls-5" points="962.83 473.37 949.42 473.37 958.45 506.09 995.99 506.09 1005.02 473.37 991.85 473.37"/><path class="cls-9" d="M115,358a22.38,22.38,0,1,0-39.75,14.12c4.8,5.9,7.66,7.63,7.66,15.24v1.18h19.42v-.86c0-7.57,2.52-9.47,7.4-15.25A22.27,22.27,0,0,0,115,358Z"/><line class="cls-9" x1="101.26" y1="349.9" x2="83.08" y2="368.07"/><circle class="cls-9" cx="98.58" cy="365.73" r="3.84"/><circle class="cls-9" cx="85.7" cy="352.45" r="3.84"/><rect class="cls-9" x="82.79" y="392.86" width="19.62" height="3.9"/><polygon class="cls-9" points="96.44 405.34 88.77 405.34 86.21 400.81 99 400.81 96.44 405.34"/><line class="cls-9" x1="119.25" y1="357.92" x2="126.83" y2="357.92"/><line class="cls-9" x1="58.4" y1="357.92" x2="65.98" y2="357.92"/><line class="cls-9" x1="92.61" y1="332.14" x2="92.61" y2="326.37"/><polygon class="cls-8" points="98.59 328.12 92.61 317.75 86.63 328.12 98.59 328.12"/><line class="cls-9" x1="73.78" y1="339.09" x2="68.42" y2="333.73"/><line class="cls-9" x1="116.81" y1="382.12" x2="111.44" y2="376.76"/><line class="cls-9" x1="73.78" y1="376.76" x2="68.42" y2="382.12"/><line class="cls-9" x1="116.81" y1="333.73" x2="111.44" y2="339.09"/><path class="cls-9" d="M952.74,388.32v-22.1c0-15,12.14-28,27.11-28s27.1,13,27.1,28v22.1"/><path class="cls-9" d="M1007,377.22h1.63a8.77,8.77,0,0,1,8.77,8.77v0a8.77,8.77,0,0,1-8.77,8.77H1007a0,0,0,0,1,0,0V377.22A0,0,0,0,1,1007,377.22Z"/><path class="cls-9" d="M942.35,377.22H944a8.77,8.77,0,0,1,8.77,8.77v0a8.77,8.77,0,0,1-8.77,8.77h-1.63a0,0,0,0,1,0,0V377.22A0,0,0,0,1,942.35,377.22Z" transform="translate(1895.08 771.97) rotate(-180)"/><polygon class="cls-9" points="994.67 394.21 965.32 394.21 965.32 355.92 985.99 355.92 994.67 364.68 994.67 394.21"/><line class="cls-9" x1="976.42" y1="370.52" x2="989.77" y2="370.52"/><line class="cls-9" x1="976.42" y1="379.5" x2="989.77" y2="379.5"/><line class="cls-9" x1="976.42" y1="387.73" x2="989.77" y2="387.73"/><line class="cls-9" x1="969.79" y1="370.52" x2="973.65" y2="370.52"/><line class="cls-9" x1="969.79" y1="379.5" x2="973.65" y2="379.5"/><line class="cls-9" x1="969.79" y1="387.73" x2="973.65" y2="387.73"/><path class="cls-9" d="M1007,394.75v.66a23.81,23.81,0,0,1-23.8,23.81h0"/><circle class="cls-9" cx="979.82" cy="419.22" r="4.5"/><polyline class="cls-9" points="985.99 355.92 985.99 364.88 994.67 364.88"/><path class="cls-7" d="M997.6,625.79c8.52,0,15.43-2.69,15.43-6s-6.91-6-15.43-6-15.42,2.68-15.42,6S989.09,625.79,997.6,625.79Z"/><path class="cls-7" d="M982.18,620.44h0V627c0,3.31,6.91,6,15.42,6s15.43-2.69,15.43-6v-6.58h0"/><path class="cls-7" d="M982.18,627.16v7.24c0,3.31,6.91,6,15.42,6s15.43-2.69,15.43-6v-6.58h0v-.65c0,3.31-6.91,6-15.43,6s-15.42-2.69-15.42-6Z"/><path class="cls-7" d="M982.18,634.46v7.24c0,3.31,6.91,6,15.42,6s15.43-2.69,15.43-6v-6.58h0v-.65c0,3.31-6.91,6-15.43,6s-15.42-2.69-15.42-6Z"/><path class="cls-7" d="M997.32,599.32a43.68,43.68,0,0,0-9.46-11,22.16,22.16,0,0,0-26.73,0c-8.94,6.74-18,21.66-17.57,34.36.58,16.6,10.46,20.55,20.64,21"/><polygon class="cls-8" points="1001.95 595.53 1000.35 607.39 990.88 600.08 1001.95 595.53"/><path class="cls-7" d="M1002.75,586.48c-22.35-5.05-34-1.84-34-1.84l-7.37-14a39.78,39.78,0,0,1,29.06,0l-6.61,13.24"/><circle class="cls-7" cx="970.75" cy="643.78" r="4.5"/><circle class="cls-9" cx="979.92" cy="226.54" r="7.06"/><path class="cls-9" d="M990.56,248.58v-6.16a6.18,6.18,0,0,0-6.18-6.18h-9.79a6.18,6.18,0,0,0-6.18,6.18v6.16"/><line class="cls-9" x1="991.75" y1="252.13" x2="997.73" y2="261.39"/><polygon class="cls-8" points="991.75 263.16 1002.4 268.62 1001.81 256.67 991.75 263.16"/><line class="cls-9" x1="962.24" y1="259.36" x2="956.26" y2="268.62"/><polygon class="cls-8" points="956.26 257.59 966.9 252.13 966.31 264.08 956.26 257.59"/><circle class="cls-9" cx="955.94" cy="279.88" r="7.06"/><path class="cls-9" d="M966.57,301.92v-6.16a6.17,6.17,0,0,0-6.17-6.18h-9.79a6.17,6.17,0,0,0-6.18,6.18v6.16"/><circle class="cls-9" cx="1005.43" cy="279.88" r="7.06"/><path class="cls-9" d="M1015.76,301.92v-6.16a6.18,6.18,0,0,0-6.18-6.18h-9.48a6.18,6.18,0,0,0-6.18,6.18v6.16"/><circle class="cls-9" cx="92.63" cy="559.2" r="6.78"/><path class="cls-9" d="M102.84,578.56v-4.12a5.93,5.93,0,0,0-5.93-5.93H87.52a5.94,5.94,0,0,0-5.94,5.93v4.12"/><circle class="cls-9" cx="67.51" cy="622.71" r="6.78"/><path class="cls-9" d="M77.72,642.06V638A5.93,5.93,0,0,0,71.79,632h-9.4A5.93,5.93,0,0,0,56.46,638v4.11"/><circle class="cls-9" cx="119.52" cy="622.71" r="6.78"/><path class="cls-9" d="M129.43,642.06V638A5.92,5.92,0,0,0,123.5,632h-9.09a5.93,5.93,0,0,0-5.94,5.93v4.11"/><path class="cls-9" d="M116.33,591.74h-7.21a3,3,0,0,0-3,3h0a3,3,0,0,0,3,3H113a3,3,0,0,1,3,3h0a3,3,0,0,1-3,3h-8.11"/><line class="cls-9" x1="110.62" y1="591.74" x2="110.62" y2="588.16"/><line class="cls-9" x1="110.62" y1="603.87" x2="110.62" y2="607.28"/><polygon class="cls-9" points="72.11 591.18 65.51 597.77 65.51 606.25 78.01 606.25 78.01 591.17 72.11 591.17 72.11 591.18"/><polyline class="cls-9" points="72.11 591.17 72.11 597.77 65.51 597.77"/><polyline class="cls-9" points="87.66 585.66 87.66 615.08 78.91 624.67"/><polygon class="cls-8" points="81.68 587.41 87.66 577.04 93.64 587.41 81.68 587.41"/><polyline class="cls-9" points="98.21 577.04 98.21 615.08 101.16 618.31"/><polygon class="cls-8" points="95.56 621.05 106.96 624.67 104.4 612.98 95.56 621.05"/><line class="cls-7" x1="519.15" y1="568.16" x2="519.15" y2="592.55"/><polygon class="cls-8" points="513.17 590.8 519.15 601.16 525.13 590.8 513.17 590.8"/><line class="cls-7" x1="534.15" y1="568.16" x2="534.15" y2="592.55"/><polygon class="cls-8" points="528.17 590.8 534.15 601.16 540.13 590.8 528.17 590.8"/><line class="cls-7" x1="549.15" y1="568.16" x2="549.15" y2="592.55"/><polygon class="cls-8" points="543.17 590.8 549.15 601.16 555.13 590.8 543.17 590.8"/><circle class="cls-7" cx="534.15" cy="627.13" r="13.93"/><circle class="cls-7" cx="534.15" cy="627.13" r="21.29"/><line class="cls-7" x1="544" y1="617.27" x2="524.3" y2="636.98"/></g></svg>