<svg id="ICONS" xmlns="http://www.w3.org/2000/svg" width="100" height="116.67" viewBox="0 0 100 116.67"><defs><style>.cls-1{fill:none;stroke:#000;stroke-miterlimit:10;stroke-width:3px;}</style></defs><title>Business Transformation</title><polyline class="cls-1" points="56.5 81.07 56.5 99.67 9.88 99.67 9.88 53.05 27.52 53.05"/><polyline class="cls-1" points="38.27 53.05 56.5 53.05 56.5 71.58"/><line class="cls-1" x1="55.24" y1="54.31" x2="82.57" y2="26.98"/><polygon points="85.56 32.45 88.66 20.89 77.1 23.99 85.56 32.45"/><line class="cls-1" x1="33.19" y1="47.91" x2="33.19" y2="25.38"/><polygon points="39.18 27.13 33.19 16.77 27.21 27.13 39.18 27.13"/><line class="cls-1" x1="62.08" y1="76.36" x2="81.46" y2="76.36"/><polygon points="79.71 82.34 90.07 76.36 79.71 70.37 79.71 82.34"/><circle class="cls-1" cx="56.5" cy="76.36" r="5"/><circle class="cls-1" cx="33.19" cy="53.04" r="5"/></svg>