<svg xmlns="http://www.w3.org/2000/svg" viewBox="0 0 1300 701.27"><defs><style>.cls-1{fill:#d8e7da;}.cls-2{fill:#a8d7cd;}.cls-10,.cls-3,.cls-4,.cls-6,.cls-7,.cls-8,.cls-9{fill:none;}.cls-3{stroke:#a8d7cd;}.cls-3,.cls-4,.cls-6,.cls-8{stroke-miterlimit:10;}.cls-3,.cls-4{stroke-width:2.18px;}.cls-4{stroke:#00b28f;}.cls-5{fill:#00321d;}.cls-10,.cls-6,.cls-7,.cls-8,.cls-9{stroke:#00321d;stroke-width:3px;}.cls-8{stroke-linecap:square;}.cls-9{stroke-linejoin:round;}.cls-10{stroke-linejoin:bevel;}</style></defs><title>demand-response-lrg</title><g id="Layer_2" data-name="Layer 2"><polygon class="cls-1" points="894.45 0.4 894.45 700.47 1300 700.47 1300 0.18 894.45 0.4"/><polygon class="cls-2" points="447.23 0.18 447.23 700.64 852.77 700.64 852.77 0.36 447.23 0.18"/><polygon class="cls-1" points="0 0.18 0 700.64 405.55 700.64 405.55 0.36 0 0.18"/><polygon class="cls-1" points="411.63 67.4 411.63 120.56 438.21 93.98 411.63 67.4"/><polygon class="cls-2" points="858.43 67.4 858.43 120.56 884.81 93.98 858.43 67.4"/><line class="cls-3" x1="26.12" y1="188.7" x2="379.43" y2="188.86"/><line class="cls-3" x1="920.57" y1="188.7" x2="1273.88" y2="188.86"/><line class="cls-4" x1="474.35" y1="188.7" x2="827.65" y2="188.86"/></g><g id="Layer_3" data-name="Layer 3"><path class="cls-5" d="M176.47,82A12.11,12.11,0,0,0,182,83.39c2.28,0,3.48-1,3.48-2.48s-1-2.23-3.67-3.21c-3.64-1.32-6-3.42-6-6.74,0-3.89,3.12-6.87,8.28-6.87a13,13,0,0,1,5.59,1.15l-1.1,4.16A10.1,10.1,0,0,0,184,68.32c-2.15,0-3.19,1-3.19,2.2,0,1.45,1.24,2.1,4.06,3.22,3.87,1.49,5.69,3.58,5.69,6.8,0,3.83-2.83,7.08-8.84,7.08a13.91,13.91,0,0,1-6.21-1.39Z"/><path class="cls-5" d="M199.06,66v4.74h3.54v3.8h-3.54v6c0,2,.45,2.91,1.95,2.91a8.52,8.52,0,0,0,1.46-.13l0,3.89a9.33,9.33,0,0,1-3.21.44,5,5,0,0,1-3.71-1.42c-.91-1-1.36-2.58-1.36-4.91V74.52H192.1v-3.8h2.12V67.13Z"/><path class="cls-5" d="M205.46,76.17c0-2.43-.06-4-.13-5.45h4.26l.16,3h.13a4.67,4.67,0,0,1,5.33-3.35v4.84a6.61,6.61,0,0,0-1.33-.14,3.2,3.2,0,0,0-3.38,2.61,5.93,5.93,0,0,0-.1,1.15v8.4h-4.94Z"/><path class="cls-5" d="M226.49,87.28l-.29-1.66h-.1a5.63,5.63,0,0,1-4.55,2,5,5,0,0,1-5.14-5.08c0-4.3,3.71-6.36,9.33-6.33V76c0-.88-.45-2.13-2.89-2.13a8.73,8.73,0,0,0-4.39,1.25l-.91-3.31a12.63,12.63,0,0,1,6.18-1.46c5.29,0,7,3.25,7,7.14v5.76a27,27,0,0,0,.23,4Zm-.59-7.82c-2.6,0-4.61.61-4.61,2.61a1.8,1.8,0,0,0,2,2,2.73,2.73,0,0,0,2.57-1.9,4.1,4.1,0,0,0,.09-.88Z"/><path class="cls-5" d="M239.88,66v4.74h3.54v3.8h-3.54v6c0,2,.45,2.91,2,2.91a8.52,8.52,0,0,0,1.46-.13l0,3.89a9.33,9.33,0,0,1-3.21.44,5,5,0,0,1-3.71-1.42c-.91-1-1.36-2.58-1.36-4.91V74.52h-2.12v-3.8H235V67.13Z"/><path class="cls-5" d="M249.92,80.64c.16,2.14,2.18,3.15,4.49,3.15a13.71,13.71,0,0,0,4.38-.67l.65,3.48a15,15,0,0,1-5.75,1c-5.39,0-8.48-3.25-8.48-8.43,0-4.2,2.5-8.84,8-8.84,5.13,0,7.08,4.17,7.08,8.26a13.38,13.38,0,0,1-.16,2Zm5.82-3.52c0-1.25-.52-3.35-2.8-3.35-2.08,0-2.92,2-3.05,3.35Z"/><path class="cls-5" d="M278.46,70.72c-.07,1-.13,2.44-.13,4.91v9.24c0,3.19-.62,5.8-2.41,7.45a9.52,9.52,0,0,1-6.47,2,11.93,11.93,0,0,1-5.72-1.29l1-3.89a9.46,9.46,0,0,0,4.61,1.25c2.34,0,4.13-1.32,4.13-4.37V85h-.06a5,5,0,0,1-4.29,2.16c-3.94,0-6.73-3.31-6.73-8.09,0-5.31,3.31-8.7,7.21-8.7a4.74,4.74,0,0,1,4.36,2.34H274l.17-2Zm-5.07,6.74a4.54,4.54,0,0,0-.1-.95,2.75,2.75,0,0,0-2.67-2.27c-1.78,0-3.25,1.7-3.25,4.71,0,2.47,1.17,4.4,3.25,4.4a2.7,2.7,0,0,0,2.6-2.1,4.5,4.5,0,0,0,.17-1.35Z"/><path class="cls-5" d="M287.39,66.12a2.52,2.52,0,0,1-2.66,2.57,2.59,2.59,0,0,1,0-5.18A2.53,2.53,0,0,1,287.39,66.12Zm-5.1,21.16V70.72h4.94V87.28Z"/><path class="cls-5" d="M303.12,86.87a11.48,11.48,0,0,1-4.42.75c-5.13,0-8.41-3.25-8.41-8.47,0-4.84,3.18-8.8,9.1-8.8a11.2,11.2,0,0,1,3.77.64l-.78,3.83a6.59,6.59,0,0,0-2.77-.51c-2.6,0-4.29,1.93-4.25,4.64,0,3,1.95,4.64,4.35,4.64a7.27,7.27,0,0,0,2.83-.51Z"/><path class="cls-5" d="M176.15,110.13c0-2.17-.07-4-.13-5.55h4.29l.22,2.3h.07a6,6,0,0,1,5.3-2.68c3.47,0,6.59,3.15,6.59,8.43,0,6-3.67,8.88-7.21,8.88a4.88,4.88,0,0,1-4.13-1.9h-.06v8.23h-4.94Zm4.94,3.89a5.85,5.85,0,0,0,.09,1.09,3,3,0,0,0,2.9,2.43c2.14,0,3.41-1.86,3.41-4.67,0-2.64-1.14-4.64-3.35-4.64a3.15,3.15,0,0,0-3,2.61,4.49,4.49,0,0,0-.09.92Z"/><path class="cls-5" d="M195.58,97.09h4.94v24h-4.94Z"/><path class="cls-5" d="M213.55,121.13l-.29-1.66h-.1a5.62,5.62,0,0,1-4.55,2,5,5,0,0,1-5.13-5.08c0-4.3,3.7-6.37,9.33-6.33v-.24c0-.88-.46-2.13-2.9-2.13a8.63,8.63,0,0,0-4.38,1.25l-.91-3.32a12.69,12.69,0,0,1,6.17-1.46c5.3,0,7,3.25,7,7.15v5.76a25.55,25.55,0,0,0,.23,4Zm-.58-7.82c-2.6,0-4.62.61-4.62,2.61a1.81,1.81,0,0,0,2,2,2.7,2.7,0,0,0,2.57-1.89,3.6,3.6,0,0,0,.1-.88Z"/><path class="cls-5" d="M221.68,109.86c0-2.07-.07-3.83-.13-5.28h4.29l.23,2.27h.09a5.78,5.78,0,0,1,4.91-2.65c3.25,0,5.69,2.24,5.69,7.11v9.82h-4.94V112c0-2.13-.72-3.59-2.5-3.59a2.66,2.66,0,0,0-2.51,1.93,3.66,3.66,0,0,0-.19,1.29v9.54h-4.94Z"/><path class="cls-5" d="M240.72,109.86c0-2.07-.06-3.83-.13-5.28h4.29l.23,2.27h.1a5.76,5.76,0,0,1,4.91-2.65c3.25,0,5.68,2.24,5.68,7.11v9.82h-4.94V112c0-2.13-.71-3.59-2.5-3.59a2.65,2.65,0,0,0-2.5,1.93,3.64,3.64,0,0,0-.2,1.29v9.54h-4.94Z"/><path class="cls-5" d="M264.87,100a2.52,2.52,0,0,1-2.66,2.57,2.59,2.59,0,0,1,0-5.17A2.52,2.52,0,0,1,264.87,100Zm-5.1,21.16V104.58h4.94v16.55Z"/><path class="cls-5" d="M268.67,109.86c0-2.07-.06-3.83-.13-5.28h4.29l.23,2.27h.1a5.76,5.76,0,0,1,4.91-2.65c3.25,0,5.68,2.24,5.68,7.11v9.82h-4.94V112c0-2.13-.71-3.59-2.5-3.59a2.65,2.65,0,0,0-2.5,1.93,3.64,3.64,0,0,0-.2,1.29v9.54h-4.94Z"/><path class="cls-5" d="M302.9,104.58c-.07,1-.13,2.44-.13,4.91v9.24c0,3.18-.62,5.79-2.41,7.45a9.52,9.52,0,0,1-6.47,2,11.93,11.93,0,0,1-5.72-1.29l1-3.89a9.46,9.46,0,0,0,4.61,1.25c2.34,0,4.13-1.32,4.13-4.36v-1.09h-.06a5,5,0,0,1-4.29,2.17c-3.94,0-6.73-3.32-6.73-8.09,0-5.32,3.31-8.71,7.21-8.71a4.76,4.76,0,0,1,4.36,2.34h.06l.17-2Zm-5.07,6.73a4.52,4.52,0,0,0-.1-.94,2.74,2.74,0,0,0-2.67-2.27c-1.78,0-3.25,1.69-3.25,4.7,0,2.48,1.17,4.41,3.25,4.41a2.7,2.7,0,0,0,2.6-2.1,4.61,4.61,0,0,0,.17-1.36Z"/><path class="cls-5" d="M178.92,246v17.11h-2.21V246Z"/><path class="cls-5" d="M192.81,245.13V260c0,1.09,0,2.34.1,3.17h-2l-.1-2.13h-.06a4.53,4.53,0,0,1-4.18,2.41c-3,0-5.26-2.51-5.26-6.24,0-4.09,2.51-6.6,5.51-6.6a4.11,4.11,0,0,1,3.71,1.87h.05v-7.33Zm-2.23,10.74a4.29,4.29,0,0,0-.1-.94,3.29,3.29,0,0,0-3.23-2.59c-2.31,0-3.68,2-3.68,4.75,0,2.48,1.22,4.54,3.63,4.54a3.36,3.36,0,0,0,3.28-2.67,4.1,4.1,0,0,0,.1-1Z"/><path class="cls-5" d="M197.25,257.42c.06,3,2,4.26,4.22,4.26a8.17,8.17,0,0,0,3.4-.63l.38,1.6a10,10,0,0,1-4.08.76c-3.79,0-6-2.49-6-6.2s2.19-6.62,5.77-6.62c4,0,5.07,3.53,5.07,5.78a10.2,10.2,0,0,1-.07,1.05Zm6.56-1.6c0-1.43-.59-3.63-3.1-3.63-2.26,0-3.25,2.08-3.43,3.63Z"/><path class="cls-5" d="M208.22,254.19c0-1.27,0-2.31-.1-3.32h2l.13,2h.05a4.51,4.51,0,0,1,4.06-2.31c1.7,0,4.34,1,4.34,5.23v7.33h-2.23v-7.08c0-2-.74-3.63-2.84-3.63a3.17,3.17,0,0,0-3,2.28,3.28,3.28,0,0,0-.15,1.05v7.38h-2.24Z"/><path class="cls-5" d="M224.4,247.34v3.53h3.2v1.7h-3.2v6.62c0,1.53.43,2.39,1.67,2.39a5.29,5.29,0,0,0,1.3-.15l.1,1.67a5.41,5.41,0,0,1-2,.31,3.09,3.09,0,0,1-2.41-.94,4.52,4.52,0,0,1-.87-3.2v-6.7h-1.9v-1.7h1.9v-3Z"/><path class="cls-5" d="M232.09,247.41a1.31,1.31,0,0,1-1.42,1.37,1.33,1.33,0,0,1-1.35-1.37,1.36,1.36,0,0,1,1.4-1.39A1.32,1.32,0,0,1,232.09,247.41Zm-2.49,15.74V250.87h2.24v12.28Z"/><path class="cls-5" d="M235.26,263.15V252.57h-1.72v-1.7h1.72v-.59a5.79,5.79,0,0,1,1.43-4.29,4.26,4.26,0,0,1,3-1.14,5.38,5.38,0,0,1,1.91.35l-.31,1.73a3.34,3.34,0,0,0-1.42-.28c-1.9,0-2.39,1.68-2.39,3.55v.67h3v1.7h-3v10.58Z"/><path class="cls-5" d="M242.75,250.87l2.7,7.26c.28.81.58,1.77.78,2.51h.05c.23-.74.49-1.68.79-2.56l2.44-7.21h2.36l-3.35,8.75c-1.6,4.22-2.69,6.38-4.22,7.7a6.19,6.19,0,0,1-2.74,1.45l-.56-1.88a6,6,0,0,0,2-1.1,6.76,6.76,0,0,0,1.88-2.48,1.6,1.6,0,0,0,.17-.54,2,2,0,0,0-.15-.58l-4.54-11.32Z"/><path class="cls-5" d="M268.88,245.13V260c0,1.09,0,2.34.1,3.17h-2l-.1-2.13h-.06a4.53,4.53,0,0,1-4.18,2.41c-3,0-5.26-2.51-5.26-6.24,0-4.09,2.51-6.6,5.51-6.6a4.11,4.11,0,0,1,3.71,1.87h0v-7.33Zm-2.23,10.74a4.29,4.29,0,0,0-.1-.94,3.29,3.29,0,0,0-3.23-2.59c-2.31,0-3.68,2-3.68,4.75,0,2.48,1.22,4.54,3.63,4.54a3.36,3.36,0,0,0,3.28-2.67,4.1,4.1,0,0,0,.1-1Z"/><path class="cls-5" d="M272.08,254.7c0-1.45,0-2.69-.1-3.83h1.95l.08,2.41h.1a3.69,3.69,0,0,1,3.4-2.69,2.46,2.46,0,0,1,.64.07v2.11a3.41,3.41,0,0,0-.76-.08,3.14,3.14,0,0,0-3,2.87,6.44,6.44,0,0,0-.1,1v6.55h-2.21Z"/><path class="cls-5" d="M282.47,247.41a1.39,1.39,0,0,1-2.77,0,1.35,1.35,0,0,1,1.39-1.39A1.33,1.33,0,0,1,282.47,247.41ZM280,263.15V250.87h2.23v12.28Z"/><path class="cls-5" d="M286.27,250.87l2.42,6.9c.4,1.12.73,2.13,1,3.15h.07c.28-1,.64-2,1-3.15l2.39-6.9h2.34l-4.83,12.28h-2.13l-4.67-12.28Z"/><path class="cls-5" d="M298.11,257.42c.05,3,2,4.26,4.21,4.26a8.17,8.17,0,0,0,3.4-.63l.38,1.6a10,10,0,0,1-4.08.76c-3.79,0-6-2.49-6-6.2s2.19-6.62,5.77-6.62c4,0,5.07,3.53,5.07,5.78a10.2,10.2,0,0,1-.07,1.05Zm6.55-1.6c0-1.43-.59-3.63-3.1-3.63-2.26,0-3.25,2.08-3.43,3.63Z"/><path class="cls-5" d="M309.07,254.7c0-1.45,0-2.69-.1-3.83h2l.07,2.41h.11a3.67,3.67,0,0,1,3.4-2.69,2.43,2.43,0,0,1,.63.07v2.11a3.34,3.34,0,0,0-.76-.08,3.15,3.15,0,0,0-3,2.87,6.44,6.44,0,0,0-.1,1v6.55h-2.21Z"/><path class="cls-5" d="M316.56,260.87a5.88,5.88,0,0,0,2.95.89c1.62,0,2.39-.81,2.39-1.83s-.64-1.65-2.29-2.26c-2.21-.79-3.25-2-3.25-3.48,0-2,1.6-3.6,4.24-3.6a6.05,6.05,0,0,1,3,.76l-.56,1.62a4.81,4.81,0,0,0-2.51-.71c-1.32,0-2.06.76-2.06,1.68s.74,1.47,2.34,2.08c2.13.81,3.22,1.88,3.22,3.71,0,2.15-1.67,3.68-4.59,3.68a7,7,0,0,1-3.45-.84Z"/><path class="cls-5" d="M183.44,288.54l-.18-1.54h-.07a4.6,4.6,0,0,1-3.76,1.82,3.5,3.5,0,0,1-3.76-3.53c0-3,2.64-4.59,7.39-4.57v-.25a2.53,2.53,0,0,0-2.79-2.84,6.11,6.11,0,0,0-3.2.91l-.51-1.47a7.65,7.65,0,0,1,4-1.09c3.76,0,4.67,2.56,4.67,5v4.6a17.41,17.41,0,0,0,.2,2.94Zm-.33-6.27c-2.44,0-5.2.38-5.2,2.77a2,2,0,0,0,2.1,2.13,3.07,3.07,0,0,0,3-2.05,2.58,2.58,0,0,0,.12-.71Z"/><path class="cls-5" d="M188.37,279.58c0-1.27,0-2.31-.1-3.32h2l.12,2h0a4.53,4.53,0,0,1,4.07-2.31c1.7,0,4.34,1,4.34,5.23v7.33h-2.24v-7.08c0-2-.73-3.63-2.84-3.63a3.27,3.27,0,0,0-3.15,3.33v7.38h-2.23Z"/><path class="cls-5" d="M212.57,270.52v14.85c0,1.09,0,2.34.1,3.17h-2l-.1-2.13h-.05a4.55,4.55,0,0,1-4.19,2.41c-3,0-5.26-2.51-5.26-6.24,0-4.09,2.52-6.6,5.51-6.6a4.12,4.12,0,0,1,3.71,1.88h.05v-7.34Zm-2.24,10.74a3.76,3.76,0,0,0-.1-.94,3.29,3.29,0,0,0-3.23-2.59c-2.31,0-3.68,2-3.68,4.75,0,2.48,1.22,4.54,3.63,4.54a3.37,3.37,0,0,0,3.28-2.66,3.75,3.75,0,0,0,.1-1Z"/><path class="cls-5" d="M231.23,276.26c0,.88-.1,1.87-.1,3.37v7.14c0,2.82-.56,4.54-1.76,5.61a6.49,6.49,0,0,1-4.47,1.47,7.91,7.91,0,0,1-4.08-1l.56-1.71a6.89,6.89,0,0,0,3.6,1c2.29,0,4-1.19,4-4.29v-1.37h-.05a4.37,4.37,0,0,1-3.91,2.05c-3,0-5.23-2.59-5.23-6,0-4.16,2.72-6.52,5.54-6.52a4.07,4.07,0,0,1,3.83,2.13h0l.1-1.85Zm-2.31,4.85a3.28,3.28,0,0,0-3.25-3.38c-2.14,0-3.66,1.8-3.66,4.64,0,2.42,1.22,4.42,3.63,4.42a3.27,3.27,0,0,0,3.1-2.28,3.8,3.8,0,0,0,.18-1.2Z"/><path class="cls-5" d="M245.45,282.3c0,4.54-3.15,6.52-6.12,6.52-3.33,0-5.89-2.43-5.89-6.32,0-4.11,2.69-6.52,6.09-6.52S245.45,278.54,245.45,282.3Zm-9.75.13c0,2.69,1.54,4.72,3.73,4.72s3.73-2,3.73-4.78c0-2.08-1-4.72-3.68-4.72S235.7,280.09,235.7,282.43Z"/><path class="cls-5" d="M254.56,288.54l-.18-1.54h-.07a4.6,4.6,0,0,1-3.76,1.82,3.5,3.5,0,0,1-3.76-3.53c0-3,2.64-4.59,7.39-4.57v-.25a2.53,2.53,0,0,0-2.79-2.84,6.08,6.08,0,0,0-3.2.91l-.51-1.47a7.65,7.65,0,0,1,4-1.09c3.75,0,4.67,2.56,4.67,5v4.6a17.41,17.41,0,0,0,.2,2.94Zm-.33-6.27c-2.44,0-5.2.38-5.2,2.77a2,2,0,0,0,2.1,2.13,3,3,0,0,0,3-2.05,2.27,2.27,0,0,0,.13-.71Z"/><path class="cls-5" d="M259.49,270.52h2.23v18h-2.23Z"/><path class="cls-5" d="M264.67,286.26a5.84,5.84,0,0,0,2.94.89c1.63,0,2.39-.81,2.39-1.83s-.64-1.65-2.29-2.26c-2.21-.79-3.25-2-3.25-3.48,0-2,1.6-3.6,4.24-3.6a6.05,6.05,0,0,1,3,.76l-.55,1.62a4.89,4.89,0,0,0-2.52-.71c-1.32,0-2,.76-2,1.68s.73,1.47,2.33,2.08c2.13.81,3.23,1.88,3.23,3.71,0,2.16-1.68,3.68-4.6,3.68a7,7,0,0,1-3.45-.84Z"/><path class="cls-5" d="M176.71,371.42a32.23,32.23,0,0,1,4.7-.35c3.18,0,5.43.74,6.93,2.13a7.87,7.87,0,0,1,2.41,6.15,9.06,9.06,0,0,1-2.46,6.65c-1.6,1.6-4.24,2.46-7.56,2.46a35.14,35.14,0,0,1-4-.2Zm2.21,15.14a14.28,14.28,0,0,0,2.24.12c4.72,0,7.28-2.64,7.28-7.26,0-4-2.26-6.6-6.93-6.6a12.38,12.38,0,0,0-2.59.23Z"/><path class="cls-5" d="M194.39,382.57c.05,3,2,4.27,4.21,4.27a8,8,0,0,0,3.4-.64l.38,1.6a9.83,9.83,0,0,1-4.08.76c-3.79,0-6.05-2.48-6.05-6.19s2.19-6.63,5.77-6.63c4,0,5.07,3.53,5.07,5.79a10,10,0,0,1-.07,1Zm6.55-1.6c0-1.42-.59-3.63-3.1-3.63-2.26,0-3.25,2.08-3.43,3.63Z"/><path class="cls-5" d="M206.22,376l2.41,6.91a28.92,28.92,0,0,1,1,3.15h.08c.28-1,.63-2,1-3.15l2.38-6.91h2.34l-4.82,12.29H208.5L203.83,376Z"/><path class="cls-5" d="M218.05,382.57c0,3,2,4.27,4.21,4.27a8,8,0,0,0,3.41-.64l.38,1.6a9.93,9.93,0,0,1-4.09.76c-3.78,0-6-2.48-6-6.19s2.18-6.63,5.76-6.63c4,0,5.08,3.53,5.08,5.79a7.43,7.43,0,0,1-.08,1Zm6.55-1.6c0-1.42-.58-3.63-3.1-3.63-2.26,0-3.25,2.08-3.43,3.63Z"/><path class="cls-5" d="M229,370.28h2.23v18H229Z"/><path class="cls-5" d="M245.62,382.06c0,4.55-3.15,6.53-6.12,6.53-3.32,0-5.89-2.44-5.89-6.32,0-4.12,2.69-6.53,6.1-6.53S245.62,378.31,245.62,382.06Zm-9.75.13c0,2.69,1.55,4.72,3.74,4.72s3.73-2,3.73-4.77c0-2.08-1-4.72-3.68-4.72S235.87,379.85,235.87,382.19Z"/><path class="cls-5" d="M247.93,380c0-1.57-.05-2.84-.1-4h2l.1,2.11H250a4.83,4.83,0,0,1,4.37-2.39c3,0,5.2,2.51,5.2,6.25,0,4.42-2.69,6.6-5.58,6.6a4.32,4.32,0,0,1-3.79-1.93h-.05v6.68h-2.21Zm2.21,3.28a5.07,5.07,0,0,0,.1.91,3.46,3.46,0,0,0,3.36,2.62c2.36,0,3.73-1.93,3.73-4.75,0-2.46-1.3-4.57-3.66-4.57a3.58,3.58,0,0,0-3.38,2.77,3.93,3.93,0,0,0-.15.91Z"/><path class="cls-5" d="M176.33,411.41a5.78,5.78,0,0,0,2.95.89c1.62,0,2.39-.81,2.39-1.82s-.64-1.65-2.29-2.26c-2.21-.79-3.25-2-3.25-3.48,0-2,1.6-3.61,4.24-3.61a6.19,6.19,0,0,1,3,.76l-.56,1.63a4.72,4.72,0,0,0-2.51-.71c-1.32,0-2.06.76-2.06,1.67s.74,1.48,2.34,2.09c2.13.81,3.22,1.87,3.22,3.7,0,2.16-1.67,3.68-4.59,3.68a7.13,7.13,0,0,1-3.46-.83Z"/><path class="cls-5" d="M186.18,395.67h2.24v7.67h.05a4.16,4.16,0,0,1,1.6-1.57,4.61,4.61,0,0,1,2.28-.64c1.65,0,4.3,1,4.3,5.26v7.31h-2.24v-7.06c0-2-.74-3.65-2.84-3.65a3.21,3.21,0,0,0-3,2.23,2.64,2.64,0,0,0-.15,1.07v7.41h-2.24Z"/><path class="cls-5" d="M210.89,407.45c0,4.55-3.15,6.53-6.12,6.53-3.33,0-5.89-2.44-5.89-6.32,0-4.12,2.69-6.53,6.09-6.53S210.89,403.7,210.89,407.45Zm-9.75.13c0,2.69,1.55,4.72,3.73,4.72s3.73-2,3.73-4.77c0-2.08-1-4.72-3.68-4.72S201.14,405.24,201.14,407.58Z"/><path class="cls-5" d="M213.2,405.24c0-1.44,0-2.69-.1-3.83h2l.08,2.41h.1a3.69,3.69,0,0,1,3.4-2.69,2.43,2.43,0,0,1,.64.08v2.11a2.91,2.91,0,0,0-.76-.08,3.13,3.13,0,0,0-3,2.87,6.33,6.33,0,0,0-.1,1v6.55H213.2Z"/><path class="cls-5" d="M224.3,397.88v3.53h3.19v1.7H224.3v6.63c0,1.52.43,2.39,1.67,2.39a4.76,4.76,0,0,0,1.3-.16l.1,1.68a5.44,5.44,0,0,1-2,.3A3.09,3.09,0,0,1,223,413a4.51,4.51,0,0,1-.87-3.19v-6.71h-1.9v-1.7h1.9v-2.94Z"/><path class="cls-5" d="M237.07,397.88v3.53h3.2v1.7h-3.2v6.63c0,1.52.43,2.39,1.67,2.39A4.76,4.76,0,0,0,240,412l.1,1.68a5.44,5.44,0,0,1-2,.3,3.09,3.09,0,0,1-2.41-.94,4.51,4.51,0,0,1-.87-3.19v-6.71H233v-1.7h1.9v-2.94Z"/><path class="cls-5" d="M243.36,408c0,3,2,4.27,4.22,4.27a8,8,0,0,0,3.4-.64l.38,1.6a9.89,9.89,0,0,1-4.09.76c-3.78,0-6-2.48-6-6.19s2.18-6.63,5.76-6.63c4,0,5.08,3.53,5.08,5.79a10,10,0,0,1-.07,1Zm6.55-1.6c0-1.42-.58-3.63-3.09-3.63-2.26,0-3.25,2.08-3.43,3.63Z"/><path class="cls-5" d="M254.33,405.24c0-1.44,0-2.69-.1-3.83h2l.07,2.41h.1a3.69,3.69,0,0,1,3.41-2.69,2.41,2.41,0,0,1,.63.08v2.11a2.91,2.91,0,0,0-.76-.08,3.13,3.13,0,0,0-3,2.87,6.33,6.33,0,0,0-.1,1v6.55h-2.21Z"/><path class="cls-5" d="M262.23,404.74c0-1.27,0-2.31-.1-3.33h1.95l.1,2h.08a4.24,4.24,0,0,1,3.86-2.26,3.65,3.65,0,0,1,3.48,2.46h0A5.19,5.19,0,0,1,273,402a4.25,4.25,0,0,1,2.72-.86c1.62,0,4,1.07,4,5.33v7.24h-2.18v-7c0-2.36-.86-3.78-2.67-3.78a2.89,2.89,0,0,0-2.64,2,3.77,3.77,0,0,0-.17,1.12v7.59h-2.19v-7.36c0-2-.86-3.38-2.56-3.38a3.33,3.33,0,0,0-2.95,3.33v7.41h-2.18Z"/><path class="cls-5" d="M183.44,439.09l-.18-1.55h-.07a4.58,4.58,0,0,1-3.76,1.83,3.5,3.5,0,0,1-3.76-3.53c0-3,2.64-4.6,7.39-4.57V431a2.54,2.54,0,0,0-2.79-2.85,6.11,6.11,0,0,0-3.2.92l-.51-1.48a7.65,7.65,0,0,1,4-1.09c3.76,0,4.67,2.57,4.67,5v4.6a17.57,17.57,0,0,0,.2,2.94Zm-.33-6.27c-2.44-.05-5.2.38-5.2,2.77a2,2,0,0,0,2.1,2.13,3.08,3.08,0,0,0,3-2.06,2.52,2.52,0,0,0,.12-.71Z"/><path class="cls-5" d="M197.13,438.63a8.18,8.18,0,0,1-3.53.71c-3.71,0-6.12-2.51-6.12-6.27a6.24,6.24,0,0,1,6.6-6.52,7.57,7.57,0,0,1,3.1.63l-.51,1.73a5.12,5.12,0,0,0-2.59-.58c-2.82,0-4.34,2.08-4.34,4.64,0,2.85,1.83,4.6,4.26,4.6a6.39,6.39,0,0,0,2.75-.61Z"/><path class="cls-5" d="M202.26,423.27v3.53h3.2v1.7h-3.2v6.63c0,1.52.43,2.39,1.67,2.39a4.76,4.76,0,0,0,1.3-.16l.1,1.68a5.44,5.44,0,0,1-2,.3,3.12,3.12,0,0,1-2.41-.93,4.56,4.56,0,0,1-.87-3.2V428.5h-1.9v-1.7h1.9v-2.94Z"/><path class="cls-5" d="M210,423.35a1.31,1.31,0,0,1-1.42,1.37,1.33,1.33,0,0,1-1.35-1.37,1.37,1.37,0,0,1,1.4-1.4A1.33,1.33,0,0,1,210,423.35Zm-2.49,15.74V426.8h2.24v12.29Z"/><path class="cls-5" d="M224,432.84c0,4.55-3.15,6.53-6.12,6.53-3.33,0-5.89-2.44-5.89-6.32,0-4.12,2.69-6.53,6.09-6.53S224,429.09,224,432.84Zm-9.75.13c0,2.69,1.54,4.72,3.73,4.72s3.73-2,3.73-4.77c0-2.08-1-4.72-3.68-4.72S214.27,430.64,214.27,433Z"/><path class="cls-5" d="M226.33,430.13c0-1.27,0-2.31-.1-3.33h2l.12,2h0a4.52,4.52,0,0,1,4.07-2.31c1.7,0,4.34,1,4.34,5.23v7.34h-2.24V432c0-2-.73-3.63-2.84-3.63a3.18,3.18,0,0,0-3,2.28,3.26,3.26,0,0,0-.15,1v7.39h-2.23Z"/><path class="cls-5" d="M244.79,430.81c0-1.57-.06-2.84-.11-4h2l.1,2.11h.05a4.84,4.84,0,0,1,4.37-2.39c3,0,5.2,2.52,5.2,6.25,0,4.42-2.69,6.6-5.58,6.6a4.32,4.32,0,0,1-3.79-1.93h0v6.68h-2.2Zm2.2,3.28a4.28,4.28,0,0,0,.11.91,3.44,3.44,0,0,0,3.35,2.62c2.36,0,3.73-1.93,3.73-4.75,0-2.46-1.3-4.57-3.66-4.57a3.56,3.56,0,0,0-3.37,2.77,3.47,3.47,0,0,0-.16.91Z"/><path class="cls-5" d="M258.72,421.06H261v18h-2.24Z"/><path class="cls-5" d="M271,439.09l-.17-1.55h-.08a4.58,4.58,0,0,1-3.76,1.83,3.5,3.5,0,0,1-3.76-3.53c0-3,2.64-4.6,7.39-4.57V431a2.54,2.54,0,0,0-2.79-2.85,6.11,6.11,0,0,0-3.2.92l-.51-1.48a7.65,7.65,0,0,1,4-1.09c3.76,0,4.67,2.57,4.67,5v4.6a17.57,17.57,0,0,0,.2,2.94Zm-.33-6.27c-2.43-.05-5.2.38-5.2,2.77a2,2,0,0,0,2.11,2.13,3.06,3.06,0,0,0,3-2.06,2.52,2.52,0,0,0,.12-.71Z"/><path class="cls-5" d="M275.94,430.13c0-1.27,0-2.31-.1-3.33h2l.12,2H278a4.51,4.51,0,0,1,4.06-2.31c1.7,0,4.34,1,4.34,5.23v7.34h-2.23V432c0-2-.74-3.63-2.85-3.63a3.17,3.17,0,0,0-3,2.28,3,3,0,0,0-.16,1v7.39h-2.23Z"/><path class="cls-5" d="M188.67,531.53a11,11,0,0,1-4.52.81c-4.82,0-8.45-3.05-8.45-8.66,0-5.36,3.63-9,8.94-9a9.27,9.27,0,0,1,4.06.76l-.53,1.81a8,8,0,0,0-3.46-.71c-4,0-6.68,2.56-6.68,7.05,0,4.19,2.42,6.89,6.58,6.89a8.71,8.71,0,0,0,3.61-.72Z"/><path class="cls-5" d="M190.78,523.63c0-1.45,0-2.69-.1-3.83h1.95l.08,2.41h.1a3.69,3.69,0,0,1,3.4-2.69,2.46,2.46,0,0,1,.64.07v2.11a3.41,3.41,0,0,0-.76-.08,3.14,3.14,0,0,0-3,2.87,6.44,6.44,0,0,0-.1,1v6.55h-2.21Z"/><path class="cls-5" d="M199.57,526.35c.05,3,2,4.26,4.21,4.26a8.17,8.17,0,0,0,3.4-.63l.38,1.6a10,10,0,0,1-4.08.76c-3.79,0-6-2.49-6-6.2s2.19-6.62,5.77-6.62c4,0,5.07,3.53,5.07,5.79a10.18,10.18,0,0,1-.07,1Zm6.55-1.6c0-1.42-.59-3.63-3.1-3.63-2.26,0-3.25,2.08-3.43,3.63Z"/><path class="cls-5" d="M217.34,532.08l-.18-1.54h-.07a4.6,4.6,0,0,1-3.76,1.82,3.5,3.5,0,0,1-3.76-3.53c0-3,2.64-4.59,7.39-4.57V524a2.53,2.53,0,0,0-2.79-2.84,6.08,6.08,0,0,0-3.2.91l-.51-1.47a7.62,7.62,0,0,1,4-1.09c3.75,0,4.67,2.56,4.67,5v4.6a17.41,17.41,0,0,0,.2,2.94Zm-.33-6.27c-2.44,0-5.21.38-5.21,2.77a2,2,0,0,0,2.11,2.13,3,3,0,0,0,3-2.05A2.27,2.27,0,0,0,217,528Z"/><path class="cls-5" d="M224.85,516.27v3.53h3.2v1.7h-3.2v6.62c0,1.53.44,2.39,1.68,2.39a5.36,5.36,0,0,0,1.3-.15l.1,1.67a5.41,5.41,0,0,1-2,.31,3.12,3.12,0,0,1-2.42-.94,4.57,4.57,0,0,1-.86-3.2v-6.7h-1.9v-1.7h1.9v-2.95Z"/><path class="cls-5" d="M231.15,526.35a3.93,3.93,0,0,0,4.22,4.26,8.17,8.17,0,0,0,3.4-.63l.38,1.6a10.06,10.06,0,0,1-4.09.76c-3.78,0-6-2.49-6-6.2s2.18-6.62,5.76-6.62c4,0,5.08,3.53,5.08,5.79a7.57,7.57,0,0,1-.08,1Zm6.55-1.6c0-1.42-.58-3.63-3.1-3.63-2.26,0-3.25,2.08-3.42,3.63Z"/><path class="cls-5" d="M176.87,557.48V546.89h-1.73v-1.7h1.73v-.59a5.8,5.8,0,0,1,1.42-4.29,4.27,4.27,0,0,1,3-1.14,5.38,5.38,0,0,1,1.91.35l-.31,1.73a3.34,3.34,0,0,0-1.42-.28c-1.9,0-2.38,1.68-2.38,3.56v.66h3v1.7h-3v10.59Z"/><path class="cls-5" d="M183.54,549c0-1.45,0-2.69-.1-3.83h2l.07,2.41h.11a3.67,3.67,0,0,1,3.4-2.69,2.43,2.43,0,0,1,.63.07v2.11a3.34,3.34,0,0,0-.76-.08,3.15,3.15,0,0,0-3,2.87,6.44,6.44,0,0,0-.1,1v6.56h-2.21Z"/><path class="cls-5" d="M198,557.48l-.18-1.55h-.08a4.56,4.56,0,0,1-3.75,1.82,3.5,3.5,0,0,1-3.76-3.52c0-3,2.64-4.6,7.39-4.57v-.26a2.54,2.54,0,0,0-2.8-2.84,6.13,6.13,0,0,0-3.2.91l-.5-1.47a7.58,7.58,0,0,1,4-1.09c3.76,0,4.68,2.56,4.68,5v4.6a17.62,17.62,0,0,0,.2,3Zm-.33-6.28c-2.44-.05-5.21.38-5.21,2.77a2,2,0,0,0,2.11,2.13,3.06,3.06,0,0,0,3-2.05,2.22,2.22,0,0,0,.13-.71Z"/><path class="cls-5" d="M202.94,548.51c0-1.27,0-2.31-.1-3.32h2l.1,2H205a4.24,4.24,0,0,1,3.86-2.26,3.62,3.62,0,0,1,3.48,2.46h.05a5.09,5.09,0,0,1,1.37-1.6,4.2,4.2,0,0,1,2.72-.86c1.63,0,4,1.06,4,5.33v7.24H218.3v-7c0-2.36-.86-3.78-2.66-3.78a2.88,2.88,0,0,0-2.64,2,3.68,3.68,0,0,0-.18,1.11v7.6h-2.18v-7.37c0-2-.87-3.37-2.57-3.37A3.06,3.06,0,0,0,205.3,549a3.23,3.23,0,0,0-.17,1.09v7.42h-2.19Z"/><path class="cls-5" d="M224.86,551.74c0,3,2,4.26,4.21,4.26a8.17,8.17,0,0,0,3.4-.63l.38,1.6a10,10,0,0,1-4.08.76c-3.79,0-6.05-2.49-6.05-6.2s2.19-6.62,5.77-6.62c4,0,5.07,3.53,5.07,5.79a10.18,10.18,0,0,1-.07,1Zm6.55-1.6c0-1.42-.59-3.63-3.1-3.63-2.26,0-3.25,2.08-3.43,3.63Z"/><path class="cls-5" d="M236.71,545.19l1.63,6.24c.35,1.37.68,2.64.91,3.91h.08c.28-1.24.68-2.56,1.09-3.88l2-6.27h1.87l1.91,6.14c.46,1.47.81,2.77,1.09,4h.08a35.15,35.15,0,0,1,.94-4l1.75-6.17h2.21l-4,12.29h-2l-1.87-5.87a39.93,39.93,0,0,1-1.1-4h-.05a35.43,35.43,0,0,1-1.11,4.07l-2,5.84h-2l-3.7-12.29Z"/><path class="cls-5" d="M264.87,551.23c0,4.54-3.15,6.52-6.12,6.52-3.32,0-5.89-2.43-5.89-6.32,0-4.11,2.69-6.52,6.09-6.52S264.87,547.47,264.87,551.23Zm-9.75.13c0,2.69,1.55,4.72,3.73,4.72s3.74-2,3.74-4.77c0-2.09-1-4.73-3.69-4.73S255.12,549,255.12,551.36Z"/><path class="cls-5" d="M267.18,549c0-1.45,0-2.69-.1-3.83H269l.08,2.41h.1a3.69,3.69,0,0,1,3.4-2.69,2.46,2.46,0,0,1,.64.07v2.11a3.41,3.41,0,0,0-.76-.08,3.14,3.14,0,0,0-3,2.87,6.44,6.44,0,0,0-.1,1v6.56h-2.21Z"/><path class="cls-5" d="M277.29,550.82h0c.3-.43.73-1,1.09-1.39l3.6-4.24h2.7l-4.75,5,5.41,7.24h-2.72l-4.24-5.9-1.14,1.27v4.63h-2.21v-18h2.21Z"/><path class="cls-5" d="M176.87,582.87V572.28h-1.73v-1.7h1.73V570a5.8,5.8,0,0,1,1.42-4.29,4.27,4.27,0,0,1,3-1.14,5.38,5.38,0,0,1,1.91.35l-.31,1.73a3.34,3.34,0,0,0-1.42-.28c-1.9,0-2.38,1.68-2.38,3.56v.66h3v1.7h-3v10.59Z"/><path class="cls-5" d="M194.34,576.62c0,4.54-3.15,6.53-6.12,6.53-3.33,0-5.89-2.44-5.89-6.33,0-4.11,2.69-6.52,6.09-6.52S194.34,572.86,194.34,576.62Zm-9.75.13c0,2.69,1.54,4.72,3.73,4.72s3.73-2,3.73-4.77c0-2.09-1-4.73-3.68-4.73S184.59,574.41,184.59,576.75Z"/><path class="cls-5" d="M196.65,574.41c0-1.45,0-2.69-.11-3.83h2l.08,2.41h.1a3.68,3.68,0,0,1,3.4-2.69,2.43,2.43,0,0,1,.63.07v2.11a3.33,3.33,0,0,0-.76-.07,3.12,3.12,0,0,0-3,2.86,6.46,6.46,0,0,0-.1,1.05v6.55h-2.21Z"/><path class="cls-5" d="M209.32,564.84h2.23v18h-2.23Z"/><path class="cls-5" d="M225.92,576.62c0,4.54-3.15,6.53-6.12,6.53-3.32,0-5.89-2.44-5.89-6.33,0-4.11,2.69-6.52,6.09-6.52S225.92,572.86,225.92,576.62Zm-9.75.13c0,2.69,1.55,4.72,3.73,4.72s3.74-2,3.74-4.77c0-2.09-1-4.73-3.69-4.73S216.17,574.41,216.17,576.75Z"/><path class="cls-5" d="M228.23,573.9c0-1.27,0-2.31-.1-3.32h2l.13,2h0a4.51,4.51,0,0,1,4.06-2.31c1.7,0,4.34,1,4.34,5.23v7.34h-2.23v-7.09c0-2-.74-3.63-2.85-3.63a3.17,3.17,0,0,0-3,2.29,3.26,3.26,0,0,0-.15,1v7.39h-2.24Z"/><path class="cls-5" d="M252.4,570.58c-.05.89-.1,1.88-.1,3.37v7.14c0,2.82-.56,4.54-1.75,5.61a6.49,6.49,0,0,1-4.47,1.47,8,8,0,0,1-4.09-1l.56-1.7a7,7,0,0,0,3.61,1c2.28,0,4-1.19,4-4.29v-1.37h-.05a4.4,4.4,0,0,1-3.91,2.06c-3,0-5.23-2.59-5.23-6,0-4.16,2.71-6.52,5.53-6.52a4.1,4.1,0,0,1,3.84,2.13h0l.1-1.85Zm-2.31,4.85a3.29,3.29,0,0,0-.12-1,3.23,3.23,0,0,0-3.13-2.36c-2.13,0-3.65,1.8-3.65,4.65,0,2.41,1.22,4.41,3.63,4.41a3.27,3.27,0,0,0,3.1-2.28,4.08,4.08,0,0,0,.17-1.19Z"/><path class="cls-5" d="M260.68,575.17v1.65h-6.27v-1.65Z"/><path class="cls-5" d="M265.48,567.05v3.53h3.2v1.7h-3.2v6.63c0,1.52.43,2.38,1.67,2.38a4.84,4.84,0,0,0,1.3-.15l.1,1.68a5.67,5.67,0,0,1-2,.3,3.09,3.09,0,0,1-2.41-.94,4.53,4.53,0,0,1-.86-3.2v-6.7h-1.91v-1.7h1.91v-3Z"/><path class="cls-5" d="M271.78,577.13c.05,3,2,4.26,4.21,4.26a8.14,8.14,0,0,0,3.4-.63l.38,1.6a10,10,0,0,1-4.08.76c-3.79,0-6.05-2.49-6.05-6.2s2.19-6.62,5.77-6.62c4,0,5.07,3.53,5.07,5.79a10.18,10.18,0,0,1-.07,1Zm6.55-1.6c0-1.42-.59-3.63-3.1-3.63-2.26,0-3.25,2.08-3.43,3.63Z"/><path class="cls-5" d="M282.74,574.41c0-1.45,0-2.69-.1-3.83h2l.07,2.41h.11a3.67,3.67,0,0,1,3.4-2.69,2.43,2.43,0,0,1,.63.07v2.11a3.39,3.39,0,0,0-.76-.07,3.12,3.12,0,0,0-3,2.86,5.46,5.46,0,0,0-.11,1.05v6.55h-2.21Z"/><path class="cls-5" d="M290.64,573.9c0-1.27,0-2.31-.1-3.32h1.95l.11,2h.07a4.24,4.24,0,0,1,3.86-2.26,3.62,3.62,0,0,1,3.48,2.46h.05a5.08,5.08,0,0,1,1.37-1.6,4.2,4.2,0,0,1,2.72-.86c1.62,0,4,1.06,4,5.33v7.24H306v-7c0-2.36-.86-3.78-2.66-3.78a2.89,2.89,0,0,0-2.64,2,3.4,3.4,0,0,0-.18,1.11v7.6h-2.19V575.5c0-2-.86-3.37-2.56-3.37a3,3,0,0,0-2.77,2.23,3.24,3.24,0,0,0-.18,1.09v7.42h-2.18Z"/><path class="cls-5" d="M177.5,596l2.41,6.9a30.36,30.36,0,0,1,1,3.15H181c.28-1,.63-2,1-3.15l2.39-6.9h2.33l-4.82,12.29h-2.13L175.11,596Z"/><path class="cls-5" d="M190.83,592.51a1.32,1.32,0,0,1-1.42,1.38,1.33,1.33,0,0,1-1.35-1.38,1.36,1.36,0,0,1,1.4-1.39A1.32,1.32,0,0,1,190.83,592.51Zm-2.49,15.75V596h2.24v12.29Z"/><path class="cls-5" d="M193.47,606a5.88,5.88,0,0,0,2.95.89c1.62,0,2.38-.81,2.38-1.83s-.63-1.65-2.28-2.26c-2.21-.78-3.25-2-3.25-3.48,0-2,1.6-3.6,4.24-3.6a6.11,6.11,0,0,1,3,.76l-.56,1.63a4.71,4.71,0,0,0-2.51-.72c-1.32,0-2.06.77-2.06,1.68s.74,1.47,2.34,2.08c2.13.81,3.22,1.88,3.22,3.71,0,2.16-1.67,3.68-4.59,3.68a7,7,0,0,1-3.46-.84Z"/><path class="cls-5" d="M205.81,592.51a1.32,1.32,0,0,1-1.42,1.38,1.33,1.33,0,0,1-1.35-1.38,1.36,1.36,0,0,1,1.4-1.39A1.32,1.32,0,0,1,205.81,592.51Zm-2.49,15.75V596h2.24v12.29Z"/><path class="cls-5" d="M208.65,608.26c.06-.84.11-2.09.11-3.18V590.23H211V598H211a4.57,4.57,0,0,1,4.19-2.26c3,0,5.2,2.54,5.18,6.27,0,4.39-2.77,6.58-5.51,6.58a4.4,4.4,0,0,1-4.12-2.31h-.07l-.11,2Zm2.32-4.93a4.17,4.17,0,0,0,.1.81,3.44,3.44,0,0,0,3.35,2.62c2.33,0,3.73-1.91,3.73-4.72,0-2.47-1.27-4.57-3.66-4.57a3.56,3.56,0,0,0-3.4,2.74,4.47,4.47,0,0,0-.12.91Z"/><path class="cls-5" d="M225.18,592.51a1.38,1.38,0,1,1-2.76,0,1.36,1.36,0,0,1,1.39-1.39A1.32,1.32,0,0,1,225.18,592.51Zm-2.48,15.75V596h2.23v12.29Z"/><path class="cls-5" d="M228.13,590.23h2.23v18h-2.23Z"/><path class="cls-5" d="M236.1,592.51a1.32,1.32,0,0,1-1.42,1.38,1.33,1.33,0,0,1-1.35-1.38,1.36,1.36,0,0,1,1.4-1.39A1.32,1.32,0,0,1,236.1,592.51Zm-2.49,15.75V596h2.24v12.29Z"/><path class="cls-5" d="M241.74,592.44V596h3.2v1.7h-3.2v6.63c0,1.52.43,2.38,1.67,2.38a4.84,4.84,0,0,0,1.3-.15l.1,1.68a5.67,5.67,0,0,1-2,.3,3.09,3.09,0,0,1-2.41-.94,4.52,4.52,0,0,1-.87-3.2v-6.7h-1.9V596h1.9v-3Z"/><path class="cls-5" d="M248,596l2.7,7.26c.27.81.58,1.78.78,2.51h0c.23-.73.49-1.67.79-2.56l2.44-7.21h2.36l-3.35,8.76c-1.6,4.21-2.69,6.37-4.22,7.69a6,6,0,0,1-2.74,1.45l-.56-1.88a5.92,5.92,0,0,0,2-1.09,6.89,6.89,0,0,0,1.88-2.49,1.63,1.63,0,0,0,.17-.53,2,2,0,0,0-.15-.59L245.55,596Z"/><path class="cls-5" d="M631.37,257.77l-1.78,5.39h-2.28L633.12,246h2.67l5.84,17.12h-2.36l-1.83-5.39Zm5.61-1.72-1.67-4.93c-.38-1.12-.64-2.13-.89-3.12h0c-.26,1-.53,2.05-.87,3.1l-1.67,5Z"/><path class="cls-5" d="M643.1,260.87a5.88,5.88,0,0,0,2.95.89c1.62,0,2.38-.81,2.38-1.83s-.63-1.65-2.28-2.26c-2.21-.79-3.25-2-3.25-3.48,0-2,1.6-3.6,4.24-3.6a6.08,6.08,0,0,1,3,.76L649.6,253a4.81,4.81,0,0,0-2.51-.71c-1.32,0-2.06.77-2.06,1.68s.74,1.47,2.34,2.08c2.13.81,3.22,1.88,3.22,3.71,0,2.16-1.67,3.68-4.59,3.68a7,7,0,0,1-3.46-.84Z"/><path class="cls-5" d="M652.65,260.87a5.87,5.87,0,0,0,2.94.89c1.63,0,2.39-.81,2.39-1.83s-.63-1.65-2.28-2.26c-2.21-.79-3.25-2-3.25-3.48,0-2,1.6-3.6,4.24-3.6a6.11,6.11,0,0,1,3,.76l-.56,1.62a4.81,4.81,0,0,0-2.51-.71c-1.32,0-2.06.77-2.06,1.68s.74,1.47,2.34,2.08c2.13.81,3.22,1.88,3.22,3.71,0,2.16-1.68,3.68-4.6,3.68a7,7,0,0,1-3.45-.84Z"/><path class="cls-5" d="M663.75,257.42c0,3,2,4.26,4.21,4.26a8.17,8.17,0,0,0,3.4-.63l.38,1.6a10,10,0,0,1-4.08.76c-3.79,0-6-2.49-6-6.2s2.19-6.62,5.77-6.62c4,0,5.07,3.53,5.07,5.79a10.18,10.18,0,0,1-.07,1Zm6.55-1.6c0-1.42-.59-3.63-3.1-3.63-2.26,0-3.25,2.08-3.43,3.63Z"/><path class="cls-5" d="M674.41,260.87a5.87,5.87,0,0,0,2.94.89c1.63,0,2.39-.81,2.39-1.83s-.63-1.65-2.28-2.26c-2.21-.79-3.25-2-3.25-3.48,0-2,1.6-3.6,4.24-3.6a6.11,6.11,0,0,1,3,.76l-.56,1.62a4.81,4.81,0,0,0-2.51-.71c-1.33,0-2.06.77-2.06,1.68s.73,1.47,2.33,2.08c2.14.81,3.23,1.88,3.23,3.71,0,2.16-1.68,3.68-4.6,3.68a7,7,0,0,1-3.45-.84Z"/><path class="cls-5" d="M684,260.87a5.84,5.84,0,0,0,2.94.89c1.63,0,2.39-.81,2.39-1.83s-.64-1.65-2.29-2.26c-2.21-.79-3.25-2-3.25-3.48,0-2,1.6-3.6,4.24-3.6a6.05,6.05,0,0,1,3,.76l-.55,1.62a4.89,4.89,0,0,0-2.52-.71c-1.32,0-2.05.77-2.05,1.68s.73,1.47,2.33,2.08c2.13.81,3.23,1.88,3.23,3.71,0,2.16-1.68,3.68-4.6,3.68a7,7,0,0,1-3.45-.84Z"/><path class="cls-5" d="M698.76,246.27a32,32,0,0,1,4.7-.35c3.17,0,5.43.73,6.93,2.13a7.9,7.9,0,0,1,2.41,6.14,9.06,9.06,0,0,1-2.46,6.66c-1.6,1.6-4.24,2.46-7.57,2.46a37.54,37.54,0,0,1-4-.2ZM701,261.4a13,13,0,0,0,2.23.13c4.72,0,7.29-2.64,7.29-7.26,0-4-2.26-6.6-6.93-6.6a12.24,12.24,0,0,0-2.59.23Z"/><path class="cls-5" d="M715.16,246.27a23,23,0,0,1,4.24-.35c2.36,0,3.89.43,5,1.39a4.27,4.27,0,0,1,1.35,3.25,4.49,4.49,0,0,1-3.23,4.37V255c1.32.45,2.11,1.67,2.52,3.45a26,26,0,0,0,1.32,4.7H724a22.3,22.3,0,0,1-1.14-4.09c-.51-2.36-1.42-3.25-3.43-3.33h-2.08v7.42h-2.21Zm2.21,7.8h2.26c2.36,0,3.86-1.3,3.86-3.25,0-2.21-1.6-3.18-3.94-3.2a9.19,9.19,0,0,0-2.18.2Z"/><path class="cls-5" d="M628.53,280.27c0-1.57,0-2.84-.1-4h2l.1,2.11h.06A4.82,4.82,0,0,1,635,276c3,0,5.21,2.51,5.21,6.24,0,4.42-2.69,6.61-5.59,6.61a4.3,4.3,0,0,1-3.78-1.93h0v6.67h-2.21Zm2.21,3.27a5.18,5.18,0,0,0,.1.92,3.44,3.44,0,0,0,3.35,2.61c2.36,0,3.73-1.93,3.73-4.74,0-2.47-1.29-4.57-3.65-4.57a3.56,3.56,0,0,0-3.38,2.76,3.47,3.47,0,0,0-.15.92Z"/><path class="cls-5" d="M653.59,282.3c0,4.55-3.15,6.53-6.12,6.53-3.33,0-5.89-2.44-5.89-6.33,0-4.11,2.69-6.52,6.09-6.52S653.59,278.54,653.59,282.3Zm-9.75.13c0,2.69,1.55,4.72,3.73,4.72s3.73-2,3.73-4.77c0-2.09-1-4.73-3.68-4.73S643.84,280.09,643.84,282.43Z"/><path class="cls-5" d="M658.59,272.73v3.53h3.2V278h-3.2v6.63c0,1.52.43,2.38,1.68,2.38a4.81,4.81,0,0,0,1.29-.15l.1,1.68a5.62,5.62,0,0,1-2,.3,3.09,3.09,0,0,1-2.41-.94,4.57,4.57,0,0,1-.86-3.2V278H654.5v-1.7h1.91v-2.95Z"/><path class="cls-5" d="M664.89,282.81c.05,3,2,4.26,4.21,4.26a8.14,8.14,0,0,0,3.4-.63l.39,1.6a10.1,10.1,0,0,1-4.09.76c-3.79,0-6-2.49-6-6.19s2.19-6.63,5.77-6.63c4,0,5.08,3.53,5.08,5.79a7.57,7.57,0,0,1-.08,1Zm6.55-1.6c0-1.42-.59-3.63-3.1-3.63-2.26,0-3.25,2.08-3.43,3.63Z"/><path class="cls-5" d="M675.86,279.58c0-1.27,0-2.31-.11-3.32h2l.13,2h0A4.51,4.51,0,0,1,682,276c1.71,0,4.35,1,4.35,5.23v7.34h-2.24v-7.09c0-2-.73-3.63-2.84-3.63a3.18,3.18,0,0,0-3,2.29,3.26,3.26,0,0,0-.15,1v7.39h-2.23Z"/><path class="cls-5" d="M692,272.73v3.53h3.2V278H692v6.63c0,1.52.43,2.38,1.68,2.38a4.81,4.81,0,0,0,1.29-.15l.1,1.68a5.67,5.67,0,0,1-2,.3,3.09,3.09,0,0,1-2.41-.94,4.53,4.53,0,0,1-.86-3.2V278h-1.91v-1.7h1.91v-2.95Z"/><path class="cls-5" d="M699.72,272.8a1.38,1.38,0,1,1-2.76,0,1.36,1.36,0,0,1,1.39-1.39A1.32,1.32,0,0,1,699.72,272.8Zm-2.49,15.75V276.26h2.24v12.29Z"/><path class="cls-5" d="M709.47,288.55l-.18-1.55h-.07a4.61,4.61,0,0,1-3.76,1.83,3.51,3.51,0,0,1-3.76-3.53c0-3,2.64-4.6,7.39-4.57v-.26a2.53,2.53,0,0,0-2.79-2.84,6.11,6.11,0,0,0-3.2.91l-.51-1.47a7.65,7.65,0,0,1,4-1.09c3.76,0,4.67,2.56,4.67,5v4.59a17.62,17.62,0,0,0,.2,2.95Zm-.33-6.27c-2.44-.06-5.2.38-5.2,2.76a2,2,0,0,0,2.1,2.14,3.08,3.08,0,0,0,3-2.06,2.52,2.52,0,0,0,.12-.71Z"/><path class="cls-5" d="M714.4,270.52h2.23v18H714.4Z"/><path class="cls-5" d="M637.47,367.52h-6.66v6.17h7.42v1.85H628.6V358.43h9.25v1.85h-7v5.41h6.66Z"/><path class="cls-5" d="M641.2,363.25l2.41,6.91a29.62,29.62,0,0,1,1,3.15h.08c.28-1,.63-2,1-3.15l2.38-6.91h2.34l-4.82,12.29h-2.14l-4.67-12.29Z"/><path class="cls-5" d="M658.74,375.54l-.17-1.55h-.08a4.58,4.58,0,0,1-3.76,1.83,3.5,3.5,0,0,1-3.76-3.53c0-3,2.64-4.59,7.39-4.57v-.25a2.54,2.54,0,0,0-2.79-2.85,6.11,6.11,0,0,0-3.2.92l-.51-1.48a7.65,7.65,0,0,1,4-1.09c3.76,0,4.67,2.57,4.67,5v4.6a17.57,17.57,0,0,0,.2,2.94Zm-.33-6.27c-2.43,0-5.2.38-5.2,2.77a2,2,0,0,0,2.11,2.13,3.06,3.06,0,0,0,3-2.06,2.52,2.52,0,0,0,.12-.71Z"/><path class="cls-5" d="M663.67,357.51h2.23v18h-2.23Z"/><path class="cls-5" d="M679.44,372.19c0,1.27,0,2.39.1,3.35h-2l-.13-2h0a4.62,4.62,0,0,1-4.06,2.28c-1.93,0-4.24-1.07-4.24-5.38v-7.19h2.23v6.81c0,2.33.71,3.91,2.74,3.91a3.13,3.13,0,0,0,3.15-3.18v-7.54h2.24Z"/><path class="cls-5" d="M689.44,375.54l-.18-1.55h-.07a4.58,4.58,0,0,1-3.76,1.83,3.5,3.5,0,0,1-3.76-3.53c0-3,2.64-4.59,7.39-4.57v-.25a2.54,2.54,0,0,0-2.79-2.85,6.09,6.09,0,0,0-3.2.92l-.51-1.48a7.62,7.62,0,0,1,4-1.09c3.75,0,4.67,2.57,4.67,5v4.6a17.57,17.57,0,0,0,.2,2.94Zm-.33-6.27c-2.44,0-5.21.38-5.21,2.77a2,2,0,0,0,2.11,2.13,3.05,3.05,0,0,0,3-2.06,2.22,2.22,0,0,0,.13-.71Z"/><path class="cls-5" d="M697,359.72v3.53h3.19V365H697v6.63c0,1.52.43,2.39,1.67,2.39a4.82,4.82,0,0,0,1.3-.16l.1,1.68a5.44,5.44,0,0,1-2,.3,3.15,3.15,0,0,1-2.42-.93,4.59,4.59,0,0,1-.86-3.2V365h-1.9v-1.7h1.9v-2.94Z"/><path class="cls-5" d="M703.25,369.8c0,3,2,4.27,4.22,4.27a8,8,0,0,0,3.4-.64l.38,1.6a9.89,9.89,0,0,1-4.09.76c-3.78,0-6-2.48-6-6.19s2.18-6.63,5.76-6.63c4,0,5.08,3.53,5.08,5.79a7.43,7.43,0,0,1-.08,1Zm6.55-1.6c0-1.42-.58-3.63-3.09-3.63-2.26,0-3.25,2.08-3.43,3.63Z"/><path class="cls-5" d="M631.22,385.11v3.53h3.2v1.7h-3.2V397c0,1.52.43,2.39,1.68,2.39a4.73,4.73,0,0,0,1.29-.16l.1,1.68a5.41,5.41,0,0,1-2,.31,3.09,3.09,0,0,1-2.41-.94,4.54,4.54,0,0,1-.86-3.2v-6.71h-1.91v-1.7H629V385.7Z"/><path class="cls-5" d="M637.52,395.19c.05,3,2,4.27,4.21,4.27a8,8,0,0,0,3.4-.64l.38,1.6a9.8,9.8,0,0,1-4.08.77c-3.79,0-6-2.49-6-6.2s2.19-6.63,5.77-6.63c4,0,5.08,3.53,5.08,5.79a9.4,9.4,0,0,1-.08,1Zm6.55-1.6c0-1.42-.59-3.63-3.1-3.63-2.26,0-3.25,2.08-3.43,3.63Z"/><path class="cls-5" d="M657.24,400.47a8.06,8.06,0,0,1-3.52.72c-3.71,0-6.12-2.52-6.12-6.28a6.24,6.24,0,0,1,6.6-6.52,7.57,7.57,0,0,1,3.1.63l-.51,1.73a5.26,5.26,0,0,0-2.59-.58c-2.82,0-4.34,2.08-4.34,4.64,0,2.85,1.82,4.6,4.26,4.6a6.31,6.31,0,0,0,2.74-.61Z"/><path class="cls-5" d="M659.35,382.9h2.24v7.67h0a4.1,4.1,0,0,1,1.6-1.57,4.59,4.59,0,0,1,2.28-.64c1.65,0,4.29,1,4.29,5.26v7.31h-2.23v-7.06c0-2-.74-3.65-2.85-3.65a3.21,3.21,0,0,0-3,2.23,2.69,2.69,0,0,0-.15,1.07v7.41h-2.24Z"/><path class="cls-5" d="M672.94,392c0-1.27,0-2.31-.11-3.33h2l.13,2h0a4.54,4.54,0,0,1,4.07-2.31c1.7,0,4.34,1,4.34,5.23v7.34h-2.24v-7.08c0-2-.73-3.63-2.84-3.63a3.18,3.18,0,0,0-3,2.28,3.26,3.26,0,0,0-.15,1v7.39h-2.23Z"/><path class="cls-5" d="M697.64,394.69c0,4.54-3.15,6.52-6.12,6.52-3.32,0-5.89-2.44-5.89-6.32,0-4.11,2.69-6.53,6.09-6.53S697.64,390.93,697.64,394.69Zm-9.75.12c0,2.69,1.55,4.73,3.73,4.73s3.74-2,3.74-4.78c0-2.08-1.05-4.72-3.69-4.72S687.89,392.48,687.89,394.81Z"/><path class="cls-5" d="M700,382.9h2.24v18H700Z"/><path class="cls-5" d="M716.56,394.69c0,4.54-3.15,6.52-6.12,6.52-3.33,0-5.89-2.44-5.89-6.32,0-4.11,2.69-6.53,6.09-6.53S716.56,390.93,716.56,394.69Zm-9.75.12c0,2.69,1.55,4.73,3.73,4.73s3.73-2,3.73-4.78c0-2.08-1-4.72-3.68-4.72S706.81,392.48,706.81,394.81Z"/><path class="cls-5" d="M729.46,388.64c-.06.89-.11,1.88-.11,3.38v7.13c0,2.82-.56,4.55-1.75,5.62a6.54,6.54,0,0,1-4.47,1.47,8,8,0,0,1-4.09-1l.56-1.7a7,7,0,0,0,3.61,1c2.28,0,4-1.2,4-4.29v-1.38h0a4.38,4.38,0,0,1-3.91,2.06c-3.05,0-5.23-2.59-5.23-6,0-4.17,2.72-6.53,5.53-6.53a4.09,4.09,0,0,1,3.84,2.14h0l.1-1.86Zm-2.32,4.85a3.18,3.18,0,0,0-.12-1,3.22,3.22,0,0,0-3.13-2.36c-2.13,0-3.65,1.8-3.65,4.64,0,2.41,1.22,4.42,3.63,4.42a3.27,3.27,0,0,0,3.1-2.29,4.08,4.08,0,0,0,.17-1.19Z"/><path class="cls-5" d="M734.89,385.19a1.39,1.39,0,0,1-2.77,0,1.36,1.36,0,0,1,1.4-1.4A1.33,1.33,0,0,1,734.89,385.19Zm-2.49,15.74V388.64h2.23v12.29Z"/><path class="cls-5" d="M739.08,395.19c0,3,2,4.27,4.21,4.27a8,8,0,0,0,3.4-.64l.39,1.6a9.89,9.89,0,0,1-4.09.77c-3.79,0-6-2.49-6-6.2s2.19-6.63,5.77-6.63c4,0,5.08,3.53,5.08,5.79a7.43,7.43,0,0,1-.08,1Zm6.55-1.6c0-1.42-.59-3.63-3.1-3.63-2.26,0-3.25,2.08-3.43,3.63Z"/><path class="cls-5" d="M749.74,398.65a5.88,5.88,0,0,0,3,.89c1.62,0,2.38-.82,2.38-1.83s-.63-1.65-2.28-2.26c-2.21-.79-3.25-2-3.25-3.48,0-2,1.6-3.61,4.24-3.61a6.22,6.22,0,0,1,3,.76l-.56,1.63a4.81,4.81,0,0,0-2.51-.71c-1.32,0-2.06.76-2.06,1.67s.74,1.48,2.34,2.09c2.13.81,3.22,1.88,3.22,3.7,0,2.16-1.67,3.69-4.59,3.69a7,7,0,0,1-3.46-.84Z"/><path class="cls-5" d="M635.33,426.32l-.17-1.55h-.08a4.58,4.58,0,0,1-3.76,1.83,3.5,3.5,0,0,1-3.76-3.53c0-3,2.64-4.59,7.39-4.57v-.25a2.54,2.54,0,0,0-2.79-2.85,6.11,6.11,0,0,0-3.2.92l-.51-1.47a7.65,7.65,0,0,1,4-1.1c3.76,0,4.67,2.57,4.67,5v4.6a17.57,17.57,0,0,0,.2,2.94Zm-.33-6.27c-2.43-.05-5.2.38-5.2,2.77a2,2,0,0,0,2.11,2.13,3.06,3.06,0,0,0,3-2.06,2.46,2.46,0,0,0,.12-.71Z"/><path class="cls-5" d="M640.26,417.36c0-1.27,0-2.31-.1-3.33h2l.12,2h.06a4.52,4.52,0,0,1,4.06-2.31c1.7,0,4.34,1,4.34,5.23v7.34h-2.23v-7.08c0-2-.74-3.63-2.85-3.63a3.17,3.17,0,0,0-3,2.28,3,3,0,0,0-.16,1v7.39h-2.23Z"/><path class="cls-5" d="M664.46,408.29v14.86c0,1.09,0,2.33.1,3.17h-2l-.1-2.13h-.05a4.55,4.55,0,0,1-4.19,2.41c-3,0-5.26-2.51-5.26-6.24,0-4.09,2.52-6.61,5.51-6.61a4.12,4.12,0,0,1,3.71,1.88h.05v-7.34ZM662.22,419a3.71,3.71,0,0,0-.1-.94,3.28,3.28,0,0,0-3.22-2.59c-2.32,0-3.69,2-3.69,4.74,0,2.49,1.22,4.55,3.63,4.55a3.36,3.36,0,0,0,3.28-2.67,3.68,3.68,0,0,0,.1-1Z"/><path class="cls-5" d="M683.14,408.29v14.86c0,1.09,0,2.33.1,3.17h-2l-.1-2.13h0a4.56,4.56,0,0,1-4.19,2.41c-3,0-5.26-2.51-5.26-6.24,0-4.09,2.51-6.61,5.51-6.61a4.12,4.12,0,0,1,3.71,1.88h0v-7.34ZM680.91,419a4.23,4.23,0,0,0-.1-.94,3.28,3.28,0,0,0-3.23-2.59c-2.31,0-3.68,2-3.68,4.74,0,2.49,1.22,4.55,3.63,4.55a3.36,3.36,0,0,0,3.28-2.67,4.16,4.16,0,0,0,.1-1Z"/><path class="cls-5" d="M687.59,420.58c0,3,2,4.27,4.21,4.27a8,8,0,0,0,3.4-.64l.38,1.6a9.8,9.8,0,0,1-4.08.77c-3.79,0-6-2.49-6-6.2s2.19-6.63,5.77-6.63c4,0,5.07,3.53,5.07,5.79a9.75,9.75,0,0,1-.07,1Zm6.55-1.6c0-1.42-.59-3.63-3.1-3.63-2.26,0-3.25,2.09-3.43,3.63Z"/><path class="cls-5" d="M698.55,408.29h2.24v18h-2.24Z"/><path class="cls-5" d="M706.53,410.58a1.39,1.39,0,0,1-2.77,0,1.36,1.36,0,0,1,1.4-1.4A1.33,1.33,0,0,1,706.53,410.58ZM704,426.32V414h2.23v12.29Z"/><path class="cls-5" d="M710.34,414l2.41,6.91c.4,1.12.73,2.13,1,3.15h.07c.28-1,.64-2,1.05-3.15l2.38-6.91h2.34l-4.83,12.29h-2.13L708,414Z"/><path class="cls-5" d="M722.17,420.58c.05,3,2,4.27,4.21,4.27a8,8,0,0,0,3.4-.64l.39,1.6a9.89,9.89,0,0,1-4.09.77c-3.79,0-6.05-2.49-6.05-6.2s2.19-6.63,5.77-6.63c4,0,5.08,3.53,5.08,5.79a7.3,7.3,0,0,1-.08,1Zm6.55-1.6c0-1.42-.59-3.63-3.1-3.63-2.26,0-3.25,2.09-3.43,3.63Z"/><path class="cls-5" d="M733.14,417.87c0-1.45,0-2.69-.11-3.84h2l.08,2.42h.1a3.68,3.68,0,0,1,3.4-2.7,2.41,2.41,0,0,1,.63.08v2.11a3.28,3.28,0,0,0-.76-.08,3.13,3.13,0,0,0-3,2.87,6.38,6.38,0,0,0-.11,1v6.55h-2.2Z"/><path class="cls-5" d="M742.38,414l2.69,7.26c.28.82.58,1.78.79,2.52h0c.23-.74.48-1.68.78-2.57l2.44-7.21h2.36l-3.35,8.76c-1.6,4.22-2.69,6.38-4.21,7.7a6.06,6.06,0,0,1-2.75,1.44l-.55-1.88a5.8,5.8,0,0,0,2-1.09,6.72,6.72,0,0,0,1.88-2.49,1.56,1.56,0,0,0,.18-.53,1.94,1.94,0,0,0-.15-.58L739.94,414Z"/><path class="cls-5" d="M628.53,442.75c0-1.27,0-2.31-.1-3.33h2l.1,2h.08a4.26,4.26,0,0,1,3.86-2.26,3.65,3.65,0,0,1,3.48,2.47H638a5,5,0,0,1,1.37-1.6,4.2,4.2,0,0,1,2.72-.87c1.62,0,4,1.07,4,5.34v7.23h-2.18v-6.95c0-2.37-.86-3.79-2.67-3.79a2.89,2.89,0,0,0-2.64,2,3.77,3.77,0,0,0-.17,1.12v7.59h-2.19v-7.36c0-2-.86-3.38-2.56-3.38a3.06,3.06,0,0,0-2.77,2.24,3,3,0,0,0-.18,1.09v7.41h-2.18Z"/><path class="cls-5" d="M650.44,446c0,3,2,4.27,4.22,4.27a8.21,8.21,0,0,0,3.4-.63l.38,1.59a9.85,9.85,0,0,1-4.09.77c-3.78,0-6-2.49-6-6.2s2.18-6.63,5.76-6.63c4,0,5.08,3.53,5.08,5.79a7.3,7.3,0,0,1-.08,1Zm6.55-1.6c0-1.42-.58-3.63-3.1-3.63-2.26,0-3.25,2.09-3.42,3.63Z"/><path class="cls-5" d="M670.17,451.26a8.3,8.3,0,0,1-3.53.71c-3.71,0-6.12-2.52-6.12-6.27a6.24,6.24,0,0,1,6.6-6.53,7.57,7.57,0,0,1,3.1.63l-.51,1.73a5.23,5.23,0,0,0-2.59-.58c-2.82,0-4.34,2.08-4.34,4.64,0,2.85,1.83,4.6,4.27,4.6a6.34,6.34,0,0,0,2.74-.61Z"/><path class="cls-5" d="M672.28,433.69h2.23v7.66h0a4.23,4.23,0,0,1,1.6-1.57,4.62,4.62,0,0,1,2.29-.64c1.65,0,4.29,1,4.29,5.26v7.31H680.5v-7.06c0-2-.73-3.65-2.84-3.65a3.21,3.21,0,0,0-3,2.23,2.88,2.88,0,0,0-.15,1.07v7.41h-2.23Z"/><path class="cls-5" d="M692.66,451.71l-.17-1.55h-.08a4.56,4.56,0,0,1-3.76,1.83,3.49,3.49,0,0,1-3.75-3.53c0-3,2.64-4.59,7.38-4.57v-.25a2.54,2.54,0,0,0-2.79-2.85,6.11,6.11,0,0,0-3.2.92l-.51-1.47a7.65,7.65,0,0,1,4-1.1c3.76,0,4.67,2.57,4.67,5v4.6a16.51,16.51,0,0,0,.21,2.94Zm-.33-6.27c-2.43-.05-5.2.38-5.2,2.77a2,2,0,0,0,2.11,2.13,3.06,3.06,0,0,0,3-2,2.58,2.58,0,0,0,.12-.72Z"/><path class="cls-5" d="M697.59,442.75c0-1.27,0-2.31-.1-3.33h2l.13,2h0a4.53,4.53,0,0,1,4.06-2.31c1.7,0,4.34,1,4.34,5.23v7.34h-2.23v-7.08c0-2-.74-3.63-2.85-3.63a3.17,3.17,0,0,0-3,2.28,3.25,3.25,0,0,0-.16,1v7.39h-2.23Z"/><path class="cls-5" d="M713.66,436a1.31,1.31,0,0,1-1.42,1.37,1.33,1.33,0,0,1-1.35-1.37,1.37,1.37,0,0,1,1.4-1.4A1.33,1.33,0,0,1,713.66,436Zm-2.49,15.74V439.42h2.24v12.29Z"/><path class="cls-5" d="M716.3,449.43a5.88,5.88,0,0,0,3,.89c1.62,0,2.38-.82,2.38-1.83s-.63-1.65-2.28-2.26c-2.21-.79-3.25-2-3.25-3.48,0-2,1.6-3.61,4.24-3.61a6.08,6.08,0,0,1,3,.77l-.56,1.62a4.81,4.81,0,0,0-2.51-.71c-1.32,0-2.06.76-2.06,1.68s.74,1.47,2.34,2.08c2.13.81,3.22,1.88,3.22,3.71,0,2.15-1.67,3.68-4.59,3.68a7,7,0,0,1-3.46-.84Z"/><path class="cls-5" d="M726.15,442.75c0-1.27,0-2.31-.1-3.33h2l.1,2h.08a4.23,4.23,0,0,1,3.85-2.26,3.63,3.63,0,0,1,3.48,2.47h.05A5.11,5.11,0,0,1,737,440a4.15,4.15,0,0,1,2.71-.87c1.63,0,4,1.07,4,5.34v7.23h-2.18v-6.95c0-2.37-.87-3.79-2.67-3.79a2.89,2.89,0,0,0-2.64,2,3.75,3.75,0,0,0-.18,1.12v7.59h-2.18v-7.36c0-2-.87-3.38-2.57-3.38a3,3,0,0,0-2.76,2.24,3,3,0,0,0-.18,1.09v7.41h-2.19Z"/><path class="cls-5" d="M746.52,449.43a5.87,5.87,0,0,0,2.94.89c1.63,0,2.39-.82,2.39-1.83s-.64-1.65-2.29-2.26c-2.2-.79-3.25-2-3.25-3.48,0-2,1.6-3.61,4.24-3.61a6.12,6.12,0,0,1,3,.77l-.56,1.62a4.82,4.82,0,0,0-2.52-.71c-1.32,0-2,.76-2,1.68s.73,1.47,2.33,2.08c2.14.81,3.23,1.88,3.23,3.71,0,2.15-1.68,3.68-4.6,3.68a7,7,0,0,1-3.45-.84Z"/><path class="cls-5" d="M628.6,521.05a21.8,21.8,0,0,1,4-.35c2.21,0,3.63.38,4.7,1.24a3.59,3.59,0,0,1,1.42,3,4.07,4.07,0,0,1-2.89,3.76v0a4.42,4.42,0,0,1,3.53,4.29,4.64,4.64,0,0,1-1.45,3.43c-1.2,1.09-3.12,1.6-5.92,1.6a26.35,26.35,0,0,1-3.43-.2Zm2.21,7h2c2.34,0,3.71-1.22,3.71-2.87,0-2-1.53-2.79-3.76-2.79a9.31,9.31,0,0,0-2,.15Zm0,8.2a11.51,11.51,0,0,0,1.86.1c2.28,0,4.39-.84,4.39-3.32s-2-3.3-4.42-3.3h-1.83Z"/><path class="cls-5" d="M652.07,534.58c0,1.27,0,2.39.1,3.36h-2l-.13-2h0a4.64,4.64,0,0,1-4.06,2.29c-1.93,0-4.24-1.07-4.24-5.39v-7.18h2.23v6.8c0,2.34.71,3.91,2.74,3.91a3.24,3.24,0,0,0,3-2,3.45,3.45,0,0,0,.2-1.14v-7.54h2.24Z"/><path class="cls-5" d="M657.75,522.19a1.32,1.32,0,0,1-1.42,1.38,1.33,1.33,0,0,1-1.35-1.38,1.36,1.36,0,0,1,1.4-1.39A1.32,1.32,0,0,1,657.75,522.19Zm-2.49,15.75V525.65h2.24v12.29Z"/><path class="cls-5" d="M660.7,519.91h2.23v18H660.7Z"/><path class="cls-5" d="M676.8,519.91v14.85c0,1.09,0,2.34.1,3.18h-2l-.1-2.14h0a4.55,4.55,0,0,1-4.19,2.42c-3,0-5.26-2.52-5.26-6.25,0-4.09,2.52-6.6,5.51-6.6a4.12,4.12,0,0,1,3.71,1.88h0v-7.34Zm-2.24,10.74a3.76,3.76,0,0,0-.1-.94,3.29,3.29,0,0,0-3.23-2.59c-2.31,0-3.68,2-3.68,4.75,0,2.49,1.22,4.54,3.63,4.54a3.37,3.37,0,0,0,3.28-2.66,3.75,3.75,0,0,0,.1-1Z"/><path class="cls-5" d="M685,521.05a32,32,0,0,1,4.69-.35c3.18,0,5.44.73,6.93,2.13A7.87,7.87,0,0,1,699,529a9.07,9.07,0,0,1-2.47,6.66c-1.6,1.6-4.24,2.46-7.56,2.46a37.25,37.25,0,0,1-4-.2Zm2.2,15.13a13.09,13.09,0,0,0,2.24.13c4.72,0,7.29-2.64,7.29-7.26,0-4-2.26-6.6-6.94-6.6a12.38,12.38,0,0,0-2.59.23Z"/><path class="cls-5" d="M701.35,521.05a22.81,22.81,0,0,1,4.24-.35c2.36,0,3.88.43,4.95,1.39a4.27,4.27,0,0,1,1.34,3.25,4.5,4.5,0,0,1-3.22,4.37v.08c1.32.45,2.11,1.67,2.51,3.45a27.87,27.87,0,0,0,1.32,4.7h-2.28a22.3,22.3,0,0,1-1.14-4.09c-.51-2.36-1.43-3.25-3.43-3.33h-2.08v7.42h-2.21Zm2.21,7.8h2.26c2.36,0,3.86-1.3,3.86-3.25,0-2.21-1.6-3.18-3.94-3.2a9.13,9.13,0,0,0-2.18.2Z"/><path class="cls-5" d="M628.53,554.87c0-1.45,0-2.69-.1-3.83h2l.08,2.41h.1a3.68,3.68,0,0,1,3.4-2.69,2.51,2.51,0,0,1,.64.07v2.11a3.45,3.45,0,0,0-.76-.07,3.13,3.13,0,0,0-3,2.87,6.33,6.33,0,0,0-.1,1v6.55h-2.21Z"/><path class="cls-5" d="M637.31,557.59a3.93,3.93,0,0,0,4.22,4.26,8,8,0,0,0,3.4-.63l.38,1.6a10.06,10.06,0,0,1-4.09.76c-3.78,0-6-2.49-6-6.19s2.18-6.63,5.76-6.63c4,0,5.08,3.53,5.08,5.79a10.18,10.18,0,0,1-.07,1Zm6.55-1.6c0-1.42-.58-3.63-3.09-3.63-2.26,0-3.25,2.08-3.43,3.63Z"/><path class="cls-5" d="M648,561a5.87,5.87,0,0,0,2.94.89c1.63,0,2.39-.81,2.39-1.83s-.64-1.65-2.29-2.26c-2.2-.78-3.25-2-3.25-3.48,0-2,1.6-3.6,4.24-3.6a6.13,6.13,0,0,1,3,.76l-.56,1.63a4.72,4.72,0,0,0-2.52-.72c-1.32,0-2.05.77-2.05,1.68s.73,1.47,2.33,2.08c2.14.81,3.23,1.88,3.23,3.71,0,2.16-1.68,3.68-4.6,3.68a7,7,0,0,1-3.45-.84Z"/><path class="cls-5" d="M669,557.08c0,4.55-3.15,6.53-6.12,6.53-3.33,0-5.89-2.44-5.89-6.33,0-4.11,2.69-6.52,6.09-6.52S669,553.32,669,557.08Zm-9.75.13c0,2.69,1.55,4.72,3.73,4.72s3.73-2,3.73-4.77c0-2.08-1-4.73-3.68-4.73S659.2,554.87,659.2,557.21Z"/><path class="cls-5" d="M681.54,560c0,1.26,0,2.38.11,3.35h-2l-.12-2h0a4.64,4.64,0,0,1-4.07,2.29c-1.93,0-4.24-1.07-4.24-5.39V551h2.24v6.8c0,2.34.71,3.91,2.74,3.91a3.24,3.24,0,0,0,3-2,3.4,3.4,0,0,0,.2-1.14V551h2.23Z"/><path class="cls-5" d="M684.74,554.87c0-1.45,0-2.69-.1-3.83h2l.07,2.41h.1a3.69,3.69,0,0,1,3.41-2.69,2.43,2.43,0,0,1,.63.07v2.11a3.45,3.45,0,0,0-.76-.07,3.14,3.14,0,0,0-3,2.87,6.33,6.33,0,0,0-.1,1v6.55h-2.21Z"/><path class="cls-5" d="M701,562.87a8.3,8.3,0,0,1-3.53.71c-3.7,0-6.11-2.51-6.11-6.27a6.24,6.24,0,0,1,6.6-6.53,7.34,7.34,0,0,1,3.09.64l-.5,1.73a5.13,5.13,0,0,0-2.59-.59c-2.82,0-4.35,2.08-4.35,4.65,0,2.84,1.83,4.59,4.27,4.59a6.31,6.31,0,0,0,2.74-.61Z"/><path class="cls-5" d="M704.24,557.59a3.93,3.93,0,0,0,4.22,4.26,8,8,0,0,0,3.4-.63l.38,1.6a10.06,10.06,0,0,1-4.09.76c-3.78,0-6-2.49-6-6.19s2.18-6.63,5.76-6.63c4,0,5.08,3.53,5.08,5.79a10.18,10.18,0,0,1-.07,1Zm6.55-1.6c0-1.42-.58-3.63-3.09-3.63-2.26,0-3.25,2.08-3.43,3.63Z"/><path class="cls-5" d="M714.91,561a5.84,5.84,0,0,0,2.94.89c1.63,0,2.39-.81,2.39-1.83s-.64-1.65-2.29-2.26c-2.21-.78-3.25-2-3.25-3.48,0-2,1.6-3.6,4.24-3.6a6.13,6.13,0,0,1,3,.76l-.56,1.63a4.75,4.75,0,0,0-2.52-.72c-1.32,0-2,.77-2,1.68s.73,1.47,2.33,2.08c2.14.81,3.23,1.88,3.23,3.71,0,2.16-1.68,3.68-4.6,3.68a7,7,0,0,1-3.45-.84Z"/><path class="cls-5" d="M628.53,580.44c0-1.57,0-2.84-.1-4h2l.1,2.11h.06a4.82,4.82,0,0,1,4.36-2.39c3,0,5.21,2.51,5.21,6.25,0,4.41-2.69,6.6-5.59,6.6a4.3,4.3,0,0,1-3.78-1.93h0v6.67h-2.21Zm2.21,3.28a5.07,5.07,0,0,0,.1.91,3.44,3.44,0,0,0,3.35,2.61c2.36,0,3.73-1.92,3.73-4.74,0-2.47-1.29-4.57-3.65-4.57a3.56,3.56,0,0,0-3.38,2.76,3.47,3.47,0,0,0-.15.92Z"/><path class="cls-5" d="M653.59,582.47c0,4.55-3.15,6.53-6.12,6.53-3.33,0-5.89-2.44-5.89-6.33,0-4.11,2.69-6.52,6.09-6.52S653.59,578.71,653.59,582.47Zm-9.75.13c0,2.69,1.55,4.72,3.73,4.72s3.73-2,3.73-4.77c0-2.08-1-4.72-3.68-4.72S643.84,580.26,643.84,582.6Z"/><path class="cls-5" d="M655.9,580.26c0-1.44,0-2.69-.1-3.83h2l.08,2.41h.1a3.68,3.68,0,0,1,3.4-2.69,2.12,2.12,0,0,1,.64.08v2.1a3.45,3.45,0,0,0-.76-.07,3.13,3.13,0,0,0-3,2.87,6.33,6.33,0,0,0-.1,1v6.55H655.9Z"/><path class="cls-5" d="M667,572.9v3.53h3.2v1.7H667v6.63c0,1.52.44,2.38,1.68,2.38A4.76,4.76,0,0,0,670,587l.11,1.68a5.71,5.71,0,0,1-2,.3,3.11,3.11,0,0,1-2.42-.94,4.57,4.57,0,0,1-.86-3.2v-6.7h-1.9v-1.7h1.9v-2.95Z"/><path class="cls-5" d="M672.43,588.72V578.13H670.7v-1.7h1.73v-.59a5.8,5.8,0,0,1,1.42-4.29,4.28,4.28,0,0,1,3-1.14,5.12,5.12,0,0,1,1.9.36l-.3,1.72a3.39,3.39,0,0,0-1.43-.28c-1.9,0-2.38,1.68-2.38,3.56v.66h3v1.7h-3v10.59Z"/><path class="cls-5" d="M689.9,582.47c0,4.55-3.15,6.53-6.12,6.53-3.33,0-5.89-2.44-5.89-6.33,0-4.11,2.69-6.52,6.09-6.52S689.9,578.71,689.9,582.47Zm-9.75.13c0,2.69,1.55,4.72,3.73,4.72s3.73-2,3.73-4.77c0-2.08-1-4.72-3.68-4.72S680.15,580.26,680.15,582.6Z"/><path class="cls-5" d="M692.21,570.69h2.23v18h-2.23Z"/><path class="cls-5" d="M700.18,573a1.31,1.31,0,0,1-1.42,1.37,1.33,1.33,0,0,1-1.35-1.37,1.37,1.37,0,0,1,1.4-1.4A1.33,1.33,0,0,1,700.18,573Zm-2.49,15.74V576.43h2.24v12.29Z"/><path class="cls-5" d="M714.25,582.47c0,4.55-3.15,6.53-6.12,6.53-3.33,0-5.89-2.44-5.89-6.33,0-4.11,2.69-6.52,6.09-6.52S714.25,578.71,714.25,582.47Zm-9.75.13c0,2.69,1.54,4.72,3.73,4.72s3.73-2,3.73-4.77c0-2.08-1-4.72-3.68-4.72S704.5,580.26,704.5,582.6Z"/><path class="cls-5" d="M1044.24,245.05a7.8,7.8,0,0,0,4,1.12c2.26,0,3.58-1.19,3.58-2.92s-.92-2.51-3.23-3.4c-2.79-1-4.52-2.44-4.52-4.85,0-2.67,2.21-4.65,5.54-4.65a7.78,7.78,0,0,1,3.78.84l-.61,1.8a6.88,6.88,0,0,0-3.25-.81c-2.33,0-3.22,1.4-3.22,2.56,0,1.6,1,2.39,3.4,3.3,2.89,1.12,4.37,2.52,4.37,5s-2,4.93-6,4.93a8.91,8.91,0,0,1-4.36-1.09Z"/><path class="cls-5" d="M1066.76,244.39c0,1.27,0,2.39.1,3.35h-2l-.13-2h0a4.62,4.62,0,0,1-4.06,2.28c-1.93,0-4.24-1.06-4.24-5.38v-7.19h2.23v6.81c0,2.33.71,3.91,2.74,3.91a3.13,3.13,0,0,0,3.15-3.18v-7.54h2.24Z"/><path class="cls-5" d="M1070,239.47c0-1.58,0-2.85-.11-4h2l.1,2.11h0a4.84,4.84,0,0,1,4.37-2.39c3,0,5.21,2.52,5.21,6.25,0,4.42-2.7,6.6-5.59,6.6a4.29,4.29,0,0,1-3.78-1.93h0v6.68H1070Zm2.21,3.27a5.18,5.18,0,0,0,.1.92,3.45,3.45,0,0,0,3.35,2.61c2.36,0,3.73-1.93,3.73-4.75,0-2.46-1.29-4.57-3.66-4.57a3.56,3.56,0,0,0-3.37,2.77,3.47,3.47,0,0,0-.15.91Z"/><path class="cls-5" d="M1083.9,239.47c0-1.58-.06-2.85-.11-4h2l.1,2.11h0a4.84,4.84,0,0,1,4.37-2.39c3,0,5.2,2.52,5.2,6.25,0,4.42-2.69,6.6-5.58,6.6a4.32,4.32,0,0,1-3.79-1.93h-.05v6.68h-2.2Zm2.2,3.27a4.38,4.38,0,0,0,.11.92,3.45,3.45,0,0,0,3.35,2.61c2.36,0,3.73-1.93,3.73-4.75,0-2.46-1.3-4.57-3.66-4.57a3.56,3.56,0,0,0-3.37,2.77,3.47,3.47,0,0,0-.16.91Z"/><path class="cls-5" d="M1109,241.5c0,4.54-3.15,6.52-6.12,6.52-3.33,0-5.89-2.44-5.89-6.32,0-4.11,2.69-6.53,6.09-6.53S1109,237.74,1109,241.5Zm-9.75.12c0,2.7,1.54,4.73,3.73,4.73s3.73-2,3.73-4.78c0-2.08-1-4.72-3.68-4.72S1099.21,239.29,1099.21,241.62Z"/><path class="cls-5" d="M1111.27,239.29c0-1.45,0-2.69-.11-3.84h2l.08,2.42h.1a3.69,3.69,0,0,1,3.4-2.7,2.41,2.41,0,0,1,.63.08v2.11a3.28,3.28,0,0,0-.76-.08,3.13,3.13,0,0,0-3,2.87,6.38,6.38,0,0,0-.11,1v6.55h-2.2Z"/><path class="cls-5" d="M1122.36,231.92v3.53h3.2v1.71h-3.2v6.62c0,1.53.43,2.39,1.68,2.39a5.27,5.27,0,0,0,1.29-.15l.1,1.67a5.37,5.37,0,0,1-2,.31,3.09,3.09,0,0,1-2.41-.94,4.57,4.57,0,0,1-.86-3.2v-6.7h-1.91v-1.71h1.91v-2.94Z"/><path class="cls-5" d="M1132.44,239.47c0-1.58,0-2.85-.1-4h2l.11,2.11h0a4.82,4.82,0,0,1,4.36-2.39c3,0,5.21,2.52,5.21,6.25,0,4.42-2.69,6.6-5.59,6.6a4.31,4.31,0,0,1-3.78-1.93h0v6.68h-2.21Zm2.21,3.27a5.18,5.18,0,0,0,.1.92,3.45,3.45,0,0,0,3.35,2.61c2.36,0,3.74-1.93,3.74-4.75,0-2.46-1.3-4.57-3.66-4.57a3.57,3.57,0,0,0-3.38,2.77,3.93,3.93,0,0,0-.15.91Z"/><path class="cls-5" d="M1146.38,239.29c0-1.45,0-2.69-.1-3.84h2l.08,2.42h.1a3.69,3.69,0,0,1,3.4-2.7,2.49,2.49,0,0,1,.64.08v2.11a3.41,3.41,0,0,0-.76-.08,3.14,3.14,0,0,0-3,2.87,6.44,6.44,0,0,0-.1,1v6.55h-2.21Z"/><path class="cls-5" d="M1165,241.5c0,4.54-3.15,6.52-6.12,6.52-3.32,0-5.89-2.44-5.89-6.32,0-4.11,2.69-6.53,6.1-6.53S1165,237.74,1165,241.5Zm-9.75.12c0,2.7,1.55,4.73,3.73,4.73s3.74-2,3.74-4.78c0-2.08-1-4.72-3.68-4.72S1155.29,239.29,1155.29,241.62Z"/><path class="cls-5" d="M1177.94,235.45c0,.89-.1,1.88-.1,3.38V246c0,2.81-.56,4.54-1.75,5.61a6.56,6.56,0,0,1-4.47,1.47,8,8,0,0,1-4.09-1l.56-1.7a6.89,6.89,0,0,0,3.6,1c2.29,0,4-1.2,4-4.29v-1.37h-.06a4.37,4.37,0,0,1-3.91,2.05c-3,0-5.23-2.59-5.23-6,0-4.16,2.72-6.53,5.54-6.53a4.08,4.08,0,0,1,3.83,2.14h.05l.11-1.86Zm-2.31,4.85a3.17,3.17,0,0,0-.13-1,3.21,3.21,0,0,0-3.12-2.36c-2.13,0-3.66,1.8-3.66,4.64,0,2.42,1.22,4.42,3.63,4.42a3.26,3.26,0,0,0,3.1-2.28,3.84,3.84,0,0,0,.18-1.2Z"/><path class="cls-5" d="M1180.89,239.29c0-1.45,0-2.69-.11-3.84h2l.08,2.42h.1a3.69,3.69,0,0,1,3.4-2.7,2.41,2.41,0,0,1,.63.08v2.11a3.28,3.28,0,0,0-.76-.08,3.13,3.13,0,0,0-3,2.87,6.38,6.38,0,0,0-.11,1v6.55h-2.2Z"/><path class="cls-5" d="M1195.36,247.74l-.18-1.55h-.08a4.54,4.54,0,0,1-3.75,1.83,3.5,3.5,0,0,1-3.76-3.53c0-3,2.64-4.59,7.39-4.57v-.25a2.53,2.53,0,0,0-2.8-2.84,6.07,6.07,0,0,0-3.19.91l-.51-1.47a7.61,7.61,0,0,1,4-1.1c3.76,0,4.68,2.57,4.68,5v4.6a17.49,17.49,0,0,0,.2,2.94Zm-.33-6.27c-2.44-.05-5.21.38-5.21,2.77a2,2,0,0,0,2.11,2.13,3,3,0,0,0,3-2.05,2.28,2.28,0,0,0,.13-.72Z"/><path class="cls-5" d="M1200.28,238.78c0-1.27,0-2.31-.1-3.33h2l.1,2h.08a4.23,4.23,0,0,1,3.85-2.26,3.63,3.63,0,0,1,3.48,2.47h0a5.11,5.11,0,0,1,1.38-1.6,4.15,4.15,0,0,1,2.71-.87c1.63,0,4,1.07,4,5.34v7.23h-2.18v-7c0-2.37-.87-3.79-2.67-3.79a2.89,2.89,0,0,0-2.64,2,3.75,3.75,0,0,0-.18,1.12v7.59H1208v-7.36c0-2-.87-3.38-2.57-3.38a3,3,0,0,0-2.76,2.24,3,3,0,0,0-.18,1.09v7.41h-2.19Z"/><path class="cls-5" d="M1051.27,273.13l-.18-1.55H1051a4.54,4.54,0,0,1-3.75,1.83,3.5,3.5,0,0,1-3.76-3.53c0-3,2.64-4.59,7.39-4.57v-.25a2.53,2.53,0,0,0-2.8-2.84,6.07,6.07,0,0,0-3.19.91l-.51-1.47a7.61,7.61,0,0,1,4-1.09c3.76,0,4.68,2.56,4.68,5v4.6a17.49,17.49,0,0,0,.2,2.94Zm-.33-6.27c-2.44-.05-5.21.38-5.21,2.77a2,2,0,0,0,2.11,2.13,3,3,0,0,0,3-2.05,2.28,2.28,0,0,0,.13-.72Z"/><path class="cls-5" d="M1066.81,255.11V270c0,1.09,0,2.34.1,3.17h-2l-.1-2.13h0a4.54,4.54,0,0,1-4.19,2.41c-3,0-5.25-2.51-5.25-6.24,0-4.09,2.51-6.6,5.51-6.6a4.1,4.1,0,0,1,3.7,1.87h0v-7.33Zm-2.24,10.74a3.76,3.76,0,0,0-.1-.94,3.29,3.29,0,0,0-3.22-2.59c-2.31,0-3.68,2-3.68,4.75,0,2.48,1.21,4.54,3.63,4.54a3.35,3.35,0,0,0,3.27-2.67,3.68,3.68,0,0,0,.1-1Z"/><path class="cls-5" d="M1070,264.17c0-1.27,0-2.31-.1-3.33h1.95l.1,2h.08a4.23,4.23,0,0,1,3.86-2.26,3.64,3.64,0,0,1,3.48,2.46h0a5,5,0,0,1,1.37-1.6,4.17,4.17,0,0,1,2.71-.86c1.63,0,4,1.06,4,5.33v7.23h-2.18v-6.95c0-2.36-.87-3.79-2.67-3.79a2.89,2.89,0,0,0-2.64,2,3.81,3.81,0,0,0-.18,1.12v7.59h-2.18v-7.36c0-1.95-.86-3.38-2.56-3.38a3,3,0,0,0-2.77,2.24,3,3,0,0,0-.18,1.09v7.41H1070Z"/><path class="cls-5" d="M1093.16,257.39a1.38,1.38,0,0,1-2.76,0,1.36,1.36,0,0,1,1.39-1.4A1.33,1.33,0,0,1,1093.16,257.39Zm-2.49,15.74V260.84h2.24v12.29Z"/><path class="cls-5" d="M1096.11,264.17c0-1.27,0-2.31-.1-3.33h2l.12,2h.06a4.5,4.5,0,0,1,4.06-2.31c1.7,0,4.34,1,4.34,5.23v7.33h-2.23v-7.08c0-2-.74-3.63-2.85-3.63a3.17,3.17,0,0,0-3,2.28,3,3,0,0,0-.16,1v7.39h-2.23Z"/><path class="cls-5" d="M1112.18,257.39a1.31,1.31,0,0,1-1.42,1.37,1.33,1.33,0,0,1-1.35-1.37,1.37,1.37,0,0,1,1.4-1.4A1.33,1.33,0,0,1,1112.18,257.39Zm-2.49,15.74V260.84h2.24v12.29Z"/><path class="cls-5" d="M1114.82,270.85a5.88,5.88,0,0,0,3,.89c1.62,0,2.38-.82,2.38-1.83s-.63-1.65-2.28-2.26c-2.21-.79-3.25-2-3.25-3.48,0-2,1.6-3.6,4.24-3.6a6.11,6.11,0,0,1,3,.76l-.56,1.62a4.81,4.81,0,0,0-2.51-.71c-1.32,0-2.06.76-2.06,1.68s.74,1.47,2.34,2.08c2.13.81,3.22,1.88,3.22,3.71,0,2.15-1.67,3.68-4.59,3.68a7,7,0,0,1-3.46-.84Z"/><path class="cls-5" d="M1127.36,257.32v3.52h3.2v1.71h-3.2v6.62c0,1.53.44,2.39,1.68,2.39a5.36,5.36,0,0,0,1.3-.15l.1,1.67a5.45,5.45,0,0,1-2,.31,3.12,3.12,0,0,1-2.42-.94,4.57,4.57,0,0,1-.86-3.2v-6.7h-1.9v-1.71h1.9V257.9Z"/><path class="cls-5" d="M1132.57,264.68c0-1.45,0-2.69-.1-3.84h2l.08,2.42h.1a3.68,3.68,0,0,1,3.4-2.69,2.51,2.51,0,0,1,.64.07v2.11a3.41,3.41,0,0,0-.76-.08,3.14,3.14,0,0,0-3,2.87,6.44,6.44,0,0,0-.1,1v6.55h-2.21Z"/><path class="cls-5" d="M1147,273.13l-.18-1.55h-.07a4.58,4.58,0,0,1-3.76,1.83,3.5,3.5,0,0,1-3.76-3.53c0-3,2.64-4.59,7.39-4.57v-.25a2.53,2.53,0,0,0-2.79-2.84,6.11,6.11,0,0,0-3.2.91l-.51-1.47a7.65,7.65,0,0,1,4-1.09c3.76,0,4.67,2.56,4.67,5v4.6a17.49,17.49,0,0,0,.2,2.94Zm-.33-6.27c-2.44-.05-5.2.38-5.2,2.77a2,2,0,0,0,2.1,2.13,3.07,3.07,0,0,0,3-2.05,2.58,2.58,0,0,0,.12-.72Z"/><path class="cls-5" d="M1154.56,257.32v3.52h3.2v1.71h-3.2v6.62c0,1.53.43,2.39,1.67,2.39a5.29,5.29,0,0,0,1.3-.15l.1,1.67a5.41,5.41,0,0,1-2,.31,3.09,3.09,0,0,1-2.41-.94,4.52,4.52,0,0,1-.87-3.2v-6.7h-1.9v-1.71h1.9V257.9Z"/><path class="cls-5" d="M1162.25,257.39a1.31,1.31,0,0,1-1.42,1.37,1.33,1.33,0,0,1-1.35-1.37,1.37,1.37,0,0,1,1.4-1.4A1.33,1.33,0,0,1,1162.25,257.39Zm-2.49,15.74V260.84H1162v12.29Z"/><path class="cls-5" d="M1176.32,266.89c0,4.54-3.15,6.52-6.12,6.52-3.33,0-5.89-2.43-5.89-6.32,0-4.11,2.69-6.52,6.09-6.52S1176.32,263.13,1176.32,266.89Zm-9.75.12c0,2.7,1.55,4.73,3.73,4.73s3.73-2,3.73-4.78c0-2.08-1-4.72-3.68-4.72S1166.57,264.68,1166.57,267Z"/><path class="cls-5" d="M1178.63,264.17c0-1.27,0-2.31-.1-3.33h2l.12,2h.06a4.5,4.5,0,0,1,4.06-2.31c1.7,0,4.34,1,4.34,5.23v7.33h-2.23v-7.08c0-2-.74-3.63-2.85-3.63a3.17,3.17,0,0,0-3,2.28,3,3,0,0,0-.16,1v7.39h-2.23Z"/><path class="cls-5" d="M1051.27,298.52l-.18-1.54H1051a4.56,4.56,0,0,1-3.75,1.82,3.5,3.5,0,0,1-3.76-3.53c0-3,2.64-4.59,7.39-4.57v-.25a2.53,2.53,0,0,0-2.8-2.84,6.07,6.07,0,0,0-3.19.91l-.51-1.47a7.61,7.61,0,0,1,4-1.09c3.76,0,4.68,2.56,4.68,5v4.6a17.41,17.41,0,0,0,.2,2.94Zm-.33-6.27c-2.44-.05-5.21.38-5.21,2.77a2,2,0,0,0,2.11,2.13,3,3,0,0,0,3-2,2.27,2.27,0,0,0,.13-.71Z"/><path class="cls-5" d="M1056.19,289.56c0-1.27,0-2.31-.1-3.32h2l.13,2h0a4.51,4.51,0,0,1,4.06-2.31c1.7,0,4.35,1,4.35,5.23v7.33h-2.24v-7.08c0-2-.74-3.63-2.84-3.63a3.17,3.17,0,0,0-3,2.28,3.28,3.28,0,0,0-.15,1.05v7.38h-2.24Z"/><path class="cls-5" d="M1080.39,280.5v14.85c0,1.09,0,2.34.1,3.17h-2l-.1-2.13h-.05a4.56,4.56,0,0,1-4.19,2.41c-3,0-5.26-2.51-5.26-6.24,0-4.09,2.51-6.6,5.51-6.6a4.11,4.11,0,0,1,3.71,1.87h.05V280.5Zm-2.23,10.74a4.29,4.29,0,0,0-.1-.94,3.29,3.29,0,0,0-3.23-2.59c-2.31,0-3.68,2-3.68,4.75,0,2.48,1.22,4.54,3.63,4.54a3.36,3.36,0,0,0,3.28-2.67,4.1,4.1,0,0,0,.1-1Z"/><path class="cls-5" d="M1099.59,292.28c0,4.54-3.15,6.52-6.12,6.52-3.33,0-5.89-2.43-5.89-6.32,0-4.11,2.69-6.52,6.09-6.52S1099.59,288.52,1099.59,292.28Zm-9.75.13c0,2.69,1.55,4.72,3.73,4.72s3.73-2,3.73-4.78c0-2.08-1-4.72-3.68-4.72S1089.84,290.07,1089.84,292.41Z"/><path class="cls-5" d="M1101.9,290.25c0-1.58-.05-2.85-.1-4h2l.1,2.1h0a4.83,4.83,0,0,1,4.37-2.38c3,0,5.21,2.51,5.21,6.24,0,4.42-2.7,6.6-5.59,6.6a4.29,4.29,0,0,1-3.78-1.93h-.05v6.68h-2.21Zm2.21,3.27a5.18,5.18,0,0,0,.1.92,3.43,3.43,0,0,0,3.35,2.61c2.36,0,3.73-1.93,3.73-4.75,0-2.46-1.29-4.57-3.65-4.57a3.57,3.57,0,0,0-3.38,2.77,3.47,3.47,0,0,0-.15.91Z"/><path class="cls-5" d="M1117.08,292.79c.05,3,2,4.26,4.21,4.26a8.22,8.22,0,0,0,3.41-.63l.38,1.6a10.06,10.06,0,0,1-4.09.76c-3.78,0-6-2.49-6-6.2s2.18-6.62,5.76-6.62c4,0,5.08,3.53,5.08,5.78a7.61,7.61,0,0,1-.08,1.05Zm6.55-1.6c0-1.43-.58-3.63-3.1-3.63-2.26,0-3.25,2.08-3.42,3.63Z"/><path class="cls-5" d="M1128.05,290.07c0-1.45,0-2.69-.1-3.83h2l.08,2.41h.1a3.68,3.68,0,0,1,3.4-2.69,2.51,2.51,0,0,1,.64.07v2.11a3.41,3.41,0,0,0-.76-.08,3.14,3.14,0,0,0-3,2.87,6.44,6.44,0,0,0-.1,1v6.55h-2.21Z"/><path class="cls-5" d="M1142.52,298.52l-.18-1.54h-.07a4.6,4.6,0,0,1-3.76,1.82,3.5,3.5,0,0,1-3.76-3.53c0-3,2.64-4.59,7.39-4.57v-.25a2.53,2.53,0,0,0-2.79-2.84,6.11,6.11,0,0,0-3.2.91l-.51-1.47a7.65,7.65,0,0,1,4-1.09c3.76,0,4.67,2.56,4.67,5v4.6a17.41,17.41,0,0,0,.2,2.94Zm-.33-6.27c-2.44-.05-5.2.38-5.2,2.77a2,2,0,0,0,2.1,2.13,3,3,0,0,0,3-2,2.27,2.27,0,0,0,.13-.71Z"/><path class="cls-5" d="M1150,282.71v3.53h3.2v1.7H1150v6.62c0,1.53.43,2.39,1.67,2.39a5.29,5.29,0,0,0,1.3-.15l.1,1.67a5.41,5.41,0,0,1-2,.31,3.09,3.09,0,0,1-2.41-.94,4.52,4.52,0,0,1-.87-3.2v-6.7H1146v-1.7h1.9v-2.95Z"/><path class="cls-5" d="M1157.73,282.78a1.31,1.31,0,0,1-1.42,1.37,1.33,1.33,0,0,1-1.35-1.37,1.36,1.36,0,0,1,1.4-1.39A1.32,1.32,0,0,1,1157.73,282.78Zm-2.49,15.74V286.24h2.24v12.28Z"/><path class="cls-5" d="M1171.8,292.28c0,4.54-3.15,6.52-6.12,6.52-3.33,0-5.89-2.43-5.89-6.32,0-4.11,2.69-6.52,6.09-6.52S1171.8,288.52,1171.8,292.28Zm-9.75.13c0,2.69,1.55,4.72,3.73,4.72s3.73-2,3.73-4.78c0-2.08-1-4.72-3.68-4.72S1162.05,290.07,1162.05,292.41Z"/><path class="cls-5" d="M1174.11,289.56c0-1.27,0-2.31-.1-3.32h2l.12,2h.05a4.53,4.53,0,0,1,4.07-2.31c1.7,0,4.34,1,4.34,5.23v7.33h-2.24v-7.08c0-2-.73-3.63-2.84-3.63a3.19,3.19,0,0,0-3,2.28,3.28,3.28,0,0,0-.15,1.05v7.38h-2.23Z"/><path class="cls-5" d="M1187.39,296.24a5.87,5.87,0,0,0,2.94.89c1.63,0,2.39-.81,2.39-1.83s-.64-1.65-2.29-2.26c-2.2-.79-3.25-2-3.25-3.48,0-2,1.6-3.6,4.24-3.6a6.13,6.13,0,0,1,3,.76l-.56,1.62a4.85,4.85,0,0,0-2.52-.71c-1.32,0-2,.76-2,1.68s.73,1.47,2.33,2.08c2.14.81,3.23,1.88,3.23,3.71,0,2.15-1.68,3.68-4.6,3.68a7,7,0,0,1-3.45-.84Z"/><path class="cls-5" d="M1053.4,386.88h-6.65v6.17h7.41v1.85h-9.62V377.79h9.24v1.85h-7v5.41h6.65Z"/><path class="cls-5" d="M1056.14,392.62a5.88,5.88,0,0,0,2.95.89c1.62,0,2.39-.81,2.39-1.83s-.64-1.65-2.29-2.26c-2.21-.79-3.25-2-3.25-3.48,0-2,1.6-3.6,4.24-3.6a6.08,6.08,0,0,1,3,.76l-.56,1.62a4.81,4.81,0,0,0-2.51-.71c-1.32,0-2.06.76-2.06,1.68s.74,1.47,2.34,2.08c2.13.81,3.22,1.88,3.22,3.71,0,2.15-1.67,3.68-4.59,3.68a7,7,0,0,1-3.46-.84Z"/><path class="cls-5" d="M1068.69,379.09v3.53h3.2v1.7h-3.2v6.62c0,1.53.43,2.39,1.67,2.39a5.29,5.29,0,0,0,1.3-.15l.1,1.67a5.41,5.41,0,0,1-2,.31,3.09,3.09,0,0,1-2.41-.94,4.52,4.52,0,0,1-.87-3.2v-6.7h-1.9v-1.7h1.9v-2.95Z"/><path class="cls-5" d="M1080.7,394.9l-.18-1.54h-.08a4.57,4.57,0,0,1-3.76,1.82,3.5,3.5,0,0,1-3.75-3.53c0-3,2.64-4.59,7.38-4.57v-.25a2.52,2.52,0,0,0-2.79-2.84,6.13,6.13,0,0,0-3.2.91l-.51-1.47a7.65,7.65,0,0,1,4-1.09c3.76,0,4.67,2.56,4.67,5V392a16.37,16.37,0,0,0,.21,2.94Zm-.33-6.27c-2.44-.05-5.21.38-5.21,2.77a2,2,0,0,0,2.11,2.13,3.06,3.06,0,0,0,3-2,2.6,2.6,0,0,0,.13-.71Z"/><path class="cls-5" d="M1085.52,394.9c0-.83.1-2.08.1-3.17V376.88h2.21v7.72h.05a4.57,4.57,0,0,1,4.19-2.26c3,0,5.21,2.53,5.18,6.27,0,4.39-2.77,6.57-5.51,6.57a4.36,4.36,0,0,1-4.11-2.31h-.08l-.1,2Zm2.31-4.92a4.17,4.17,0,0,0,.1.81,3.45,3.45,0,0,0,3.35,2.62c2.34,0,3.74-1.91,3.74-4.73,0-2.46-1.27-4.57-3.66-4.57a3.55,3.55,0,0,0-3.4,2.75,4.31,4.31,0,0,0-.13.91Z"/><path class="cls-5" d="M1102.05,379.16a1.39,1.39,0,0,1-2.77,0,1.36,1.36,0,0,1,1.4-1.39A1.32,1.32,0,0,1,1102.05,379.16Zm-2.49,15.74V382.62h2.23V394.9Z"/><path class="cls-5" d="M1105,376.88h2.24v18H1105Z"/><path class="cls-5" d="M1110.17,392.62a5.88,5.88,0,0,0,2.95.89c1.62,0,2.39-.81,2.39-1.83s-.64-1.65-2.29-2.26c-2.21-.79-3.25-2-3.25-3.48,0-2,1.6-3.6,4.24-3.6a6.05,6.05,0,0,1,3,.76l-.56,1.62a4.81,4.81,0,0,0-2.51-.71c-1.32,0-2.06.76-2.06,1.68s.74,1.47,2.34,2.08c2.13.81,3.22,1.88,3.22,3.71,0,2.15-1.67,3.68-4.59,3.68a7,7,0,0,1-3.45-.84Z"/><path class="cls-5" d="M1120,376.88h2.23v7.66h0a4.16,4.16,0,0,1,1.6-1.57,4.62,4.62,0,0,1,2.29-.63c1.65,0,4.29,1,4.29,5.25v7.31h-2.24v-7c0-2-.73-3.66-2.84-3.66a3.21,3.21,0,0,0-3,2.23,2.88,2.88,0,0,0-.15,1.07v7.41H1120Z"/><path class="cls-5" d="M1145.29,394.9l-.18-1.54H1145a4.56,4.56,0,0,1-3.75,1.82,3.5,3.5,0,0,1-3.76-3.53c0-3,2.64-4.59,7.39-4.57v-.25a2.53,2.53,0,0,0-2.8-2.84,6.07,6.07,0,0,0-3.19.91l-.51-1.47a7.61,7.61,0,0,1,4-1.09c3.76,0,4.68,2.56,4.68,5V392a17.41,17.41,0,0,0,.2,2.94Zm-.33-6.27c-2.44-.05-5.21.38-5.21,2.77a2,2,0,0,0,2.11,2.13,3,3,0,0,0,3-2,2.27,2.27,0,0,0,.13-.71Z"/><path class="cls-5" d="M1150.21,385.94c0-1.27,0-2.31-.1-3.32h2l.13,2h0a4.51,4.51,0,0,1,4.06-2.31c1.7,0,4.35,1,4.35,5.23v7.33h-2.24v-7.08c0-2-.74-3.63-2.84-3.63a3.17,3.17,0,0,0-3,2.28,3.28,3.28,0,0,0-.15,1v7.38h-2.24Z"/><path class="cls-5" d="M1174.41,376.88v14.85c0,1.09,0,2.34.1,3.17h-2l-.1-2.13h-.05a4.56,4.56,0,0,1-4.19,2.41c-3,0-5.26-2.51-5.26-6.24,0-4.09,2.51-6.6,5.51-6.6a4.11,4.11,0,0,1,3.71,1.87h0v-7.33Zm-2.23,10.74a4.29,4.29,0,0,0-.1-.94,3.29,3.29,0,0,0-3.23-2.59c-2.31,0-3.68,2-3.68,4.75,0,2.48,1.22,4.54,3.63,4.54a3.36,3.36,0,0,0,3.28-2.67,4.1,4.1,0,0,0,.1-1Z"/><path class="cls-5" d="M1185.18,379.09v3.53h3.2v1.7h-3.2v6.62c0,1.53.43,2.39,1.67,2.39a5.29,5.29,0,0,0,1.3-.15l.1,1.67a5.41,5.41,0,0,1-2,.31,3.09,3.09,0,0,1-2.41-.94,4.52,4.52,0,0,1-.87-3.2v-6.7h-1.9v-1.7h1.9v-2.95Z"/><path class="cls-5" d="M1190.38,386.45c0-1.45,0-2.69-.1-3.83h2l.07,2.41h.1a3.69,3.69,0,0,1,3.41-2.69,2.43,2.43,0,0,1,.63.07v2.11a3.41,3.41,0,0,0-.76-.08,3.14,3.14,0,0,0-3,2.87,6.44,6.44,0,0,0-.1,1v6.55h-2.21Z"/><path class="cls-5" d="M1204.86,394.9l-.18-1.54h-.08a4.57,4.57,0,0,1-3.76,1.82,3.5,3.5,0,0,1-3.75-3.53c0-3,2.64-4.59,7.38-4.57v-.25a2.53,2.53,0,0,0-2.79-2.84,6.13,6.13,0,0,0-3.2.91l-.51-1.47a7.65,7.65,0,0,1,4-1.09c3.76,0,4.67,2.56,4.67,5V392a16.37,16.37,0,0,0,.21,2.94Zm-.34-6.27c-2.43-.05-5.2.38-5.2,2.77a2,2,0,0,0,2.11,2.13,3.06,3.06,0,0,0,3-2,2.58,2.58,0,0,0,.12-.71Z"/><path class="cls-5" d="M1218.54,394.45a8.3,8.3,0,0,1-3.53.71c-3.71,0-6.12-2.52-6.12-6.27a6.24,6.24,0,0,1,6.6-6.53,7.39,7.39,0,0,1,3.1.64l-.51,1.72a5.23,5.23,0,0,0-2.59-.58c-2.81,0-4.34,2.08-4.34,4.65,0,2.84,1.83,4.59,4.27,4.59a6.34,6.34,0,0,0,2.74-.61Z"/><path class="cls-5" d="M1222.86,388.25h.05c.3-.43.73-1,1.09-1.39l3.61-4.24h2.69l-4.75,5.05,5.41,7.23h-2.72L1224,389l-1.14,1.27v4.62h-2.21v-18h2.21Z"/><path class="cls-5" d="M1044.46,412c0-1.58,0-2.85-.1-4h2l.1,2.1h0a4.84,4.84,0,0,1,4.37-2.38c3,0,5.2,2.51,5.2,6.24,0,4.42-2.69,6.6-5.58,6.6a4.32,4.32,0,0,1-3.79-1.93h0v6.68h-2.21Zm2.21,3.27a5.18,5.18,0,0,0,.1.92,3.45,3.45,0,0,0,3.36,2.61c2.36,0,3.73-1.93,3.73-4.75,0-2.46-1.3-4.57-3.66-4.57a3.57,3.57,0,0,0-3.37,2.77,3.48,3.48,0,0,0-.16.92Z"/><path class="cls-5" d="M1059.65,414.56c0,3,2,4.26,4.21,4.26a8.14,8.14,0,0,0,3.4-.63l.39,1.6a10.1,10.1,0,0,1-4.09.76c-3.79,0-6-2.49-6-6.2s2.19-6.62,5.77-6.62c4,0,5.08,3.53,5.08,5.79a7.57,7.57,0,0,1-.08,1Zm6.55-1.6c0-1.42-.59-3.63-3.1-3.63-2.26,0-3.25,2.08-3.43,3.63Z"/><path class="cls-5" d="M1070.62,411.84c0-1.45,0-2.69-.11-3.83h2l.08,2.41h.1a3.68,3.68,0,0,1,3.4-2.69,2.43,2.43,0,0,1,.63.07v2.11a3.28,3.28,0,0,0-.76-.08,3.13,3.13,0,0,0-3,2.87,6.38,6.38,0,0,0-.11,1v6.55h-2.2Z"/><path class="cls-5" d="M1079.4,420.29V409.71h-1.73V408h1.73v-.59a5.8,5.8,0,0,1,1.42-4.29,4.3,4.3,0,0,1,3-1.14,5.31,5.31,0,0,1,1.9.35l-.3,1.73a3.38,3.38,0,0,0-1.42-.28c-1.91,0-2.39,1.68-2.39,3.56V408h3v1.7h-3v10.58Z"/><path class="cls-5" d="M1096.87,414.05c0,4.54-3.15,6.52-6.12,6.52-3.33,0-5.89-2.43-5.89-6.32,0-4.11,2.69-6.52,6.09-6.52S1096.87,410.29,1096.87,414.05Zm-9.75.13c0,2.69,1.55,4.72,3.73,4.72s3.74-2,3.74-4.78c0-2.08-1-4.72-3.69-4.72S1087.12,411.84,1087.12,414.18Z"/><path class="cls-5" d="M1099.18,411.84c0-1.45,0-2.69-.1-3.83h2l.08,2.41h.1a3.69,3.69,0,0,1,3.4-2.69,2.46,2.46,0,0,1,.64.07v2.11a3.41,3.41,0,0,0-.76-.08,3.14,3.14,0,0,0-3,2.87,6.44,6.44,0,0,0-.1,1v6.55h-2.21Z"/><path class="cls-5" d="M1107.08,411.33c0-1.27,0-2.31-.1-3.32h2l.1,2h.08a4.23,4.23,0,0,1,3.86-2.26,3.64,3.64,0,0,1,3.48,2.46h0a5,5,0,0,1,1.37-1.6,4.18,4.18,0,0,1,2.72-.86c1.62,0,4,1.06,4,5.33v7.23h-2.18v-7c0-2.36-.86-3.79-2.67-3.79a2.89,2.89,0,0,0-2.64,2,3.68,3.68,0,0,0-.18,1.11v7.59h-2.18v-7.36c0-1.95-.86-3.38-2.56-3.38a3,3,0,0,0-2.77,2.24,3,3,0,0,0-.18,1.09v7.41h-2.18Z"/><path class="cls-5" d="M1134.55,420.29l-.18-1.54h-.07a4.6,4.6,0,0,1-3.76,1.82,3.5,3.5,0,0,1-3.76-3.53c0-3,2.64-4.59,7.39-4.57v-.25a2.53,2.53,0,0,0-2.79-2.84,6.08,6.08,0,0,0-3.2.91l-.51-1.47a7.62,7.62,0,0,1,4-1.09c3.75,0,4.67,2.56,4.67,5v4.6a17.41,17.41,0,0,0,.2,2.94Zm-.33-6.27c-2.44,0-5.21.38-5.21,2.77a2,2,0,0,0,2.11,2.13,3,3,0,0,0,3-2.05,2.27,2.27,0,0,0,.13-.71Z"/><path class="cls-5" d="M1139.48,411.33c0-1.27,0-2.31-.11-3.32h2l.13,2h0a4.51,4.51,0,0,1,4.06-2.31c1.71,0,4.35,1,4.35,5.23v7.33h-2.24v-7.08c0-2-.73-3.63-2.84-3.63a3.18,3.18,0,0,0-3,2.29,3.22,3.22,0,0,0-.15,1v7.38h-2.23Z"/><path class="cls-5" d="M1161.82,419.84a8.3,8.3,0,0,1-3.53.71c-3.71,0-6.12-2.51-6.12-6.27a6.24,6.24,0,0,1,6.6-6.53,7.39,7.39,0,0,1,3.1.64l-.51,1.72a5.23,5.23,0,0,0-2.59-.58c-2.82,0-4.34,2.08-4.34,4.65,0,2.84,1.83,4.59,4.27,4.59a6.34,6.34,0,0,0,2.74-.61Z"/><path class="cls-5" d="M1165,414.56c0,3,2,4.26,4.21,4.26a8.22,8.22,0,0,0,3.41-.63l.38,1.6a10.1,10.1,0,0,1-4.09.76c-3.78,0-6-2.49-6-6.2s2.18-6.62,5.76-6.62c4,0,5.08,3.53,5.08,5.79a7.57,7.57,0,0,1-.08,1Zm6.55-1.6c0-1.42-.58-3.63-3.1-3.63-2.26,0-3.25,2.08-3.43,3.63Z"/><path class="cls-5" d="M1044.46,436.72c0-1.27,0-2.31-.1-3.32h2l.1,2h.08a4.21,4.21,0,0,1,3.85-2.26,3.62,3.62,0,0,1,3.48,2.46h.05a5.09,5.09,0,0,1,1.37-1.6,4.2,4.2,0,0,1,2.72-.86c1.63,0,4,1.06,4,5.33v7.24h-2.18v-7c0-2.36-.87-3.78-2.67-3.78a2.88,2.88,0,0,0-2.64,2,3.68,3.68,0,0,0-.18,1.11v7.6h-2.18v-7.37c0-1.95-.87-3.37-2.57-3.37a3,3,0,0,0-2.76,2.23,3,3,0,0,0-.18,1.09v7.42h-2.19Z"/><path class="cls-5" d="M1066.38,440c0,3,2,4.26,4.21,4.26a8.14,8.14,0,0,0,3.4-.63l.38,1.6a10,10,0,0,1-4.08.76c-3.79,0-6-2.49-6-6.2s2.19-6.62,5.77-6.62c4,0,5.08,3.53,5.08,5.79a9.62,9.62,0,0,1-.08,1Zm6.55-1.6c0-1.42-.59-3.63-3.1-3.63-2.26,0-3.25,2.08-3.43,3.63Z"/><path class="cls-5" d="M1080,429.87v3.53h3.2v1.7H1080v6.62c0,1.53.43,2.39,1.67,2.39a4.84,4.84,0,0,0,1.3-.15l.1,1.67a5.41,5.41,0,0,1-2,.31,3.09,3.09,0,0,1-2.41-.94,4.52,4.52,0,0,1-.87-3.2v-6.7H1076v-1.7h1.9v-2.95Z"/><path class="cls-5" d="M1085.24,437.23c0-1.45,0-2.69-.1-3.83h1.95l.08,2.41h.1a3.69,3.69,0,0,1,3.4-2.69,2.46,2.46,0,0,1,.64.07v2.11a3.41,3.41,0,0,0-.76-.08,3.14,3.14,0,0,0-3,2.87,6.44,6.44,0,0,0-.1,1v6.56h-2.21Z"/><path class="cls-5" d="M1095.63,429.94a1.39,1.39,0,0,1-2.77,0,1.36,1.36,0,0,1,1.39-1.39A1.33,1.33,0,0,1,1095.63,429.94Zm-2.49,15.75V433.4h2.23v12.29Z"/><path class="cls-5" d="M1107.33,445.23a8.3,8.3,0,0,1-3.53.71c-3.71,0-6.12-2.51-6.12-6.27a6.24,6.24,0,0,1,6.6-6.53,7.39,7.39,0,0,1,3.1.64l-.51,1.72a5.23,5.23,0,0,0-2.59-.58c-2.81,0-4.34,2.08-4.34,4.65,0,2.84,1.83,4.59,4.27,4.59a6.31,6.31,0,0,0,2.74-.61Z"/><path class="cls-5" d="M1109.13,443.4a5.88,5.88,0,0,0,2.95.89c1.62,0,2.39-.81,2.39-1.83s-.64-1.65-2.29-2.26c-2.21-.79-3.25-2-3.25-3.48,0-2,1.6-3.6,4.24-3.6a6.05,6.05,0,0,1,3,.76l-.56,1.62a4.81,4.81,0,0,0-2.51-.71c-1.32,0-2.06.76-2.06,1.68s.74,1.47,2.34,2.08c2.13.81,3.22,1.88,3.22,3.71,0,2.16-1.67,3.68-4.59,3.68a7,7,0,0,1-3.45-.84Z"/><path class="cls-5" d="M1057.57,541.3a15.85,15.85,0,0,1-5.26.94,8,8,0,0,1-8.79-8.63c0-5.1,3.53-8.84,9.27-8.84a10.53,10.53,0,0,1,4.27.79l-.54,1.8a8.94,8.94,0,0,0-3.78-.73c-4.16,0-6.88,2.59-6.88,6.88s2.62,6.9,6.6,6.9a7.33,7.33,0,0,0,3-.45v-5.11h-3.48v-1.77h5.64Z"/><path class="cls-5" d="M1061.73,536.33c0,3,2,4.26,4.21,4.26a8.22,8.22,0,0,0,3.41-.63l.38,1.6a10.1,10.1,0,0,1-4.09.76c-3.78,0-6-2.49-6-6.2s2.18-6.62,5.76-6.62c4,0,5.08,3.53,5.08,5.79a7.57,7.57,0,0,1-.08,1Zm6.55-1.6c0-1.43-.58-3.63-3.1-3.63-2.26,0-3.25,2.08-3.43,3.63Z"/><path class="cls-5" d="M1072.7,533.1c0-1.27,0-2.31-.1-3.32h2l.12,2h0a4.53,4.53,0,0,1,4.07-2.31c1.7,0,4.34,1,4.34,5.23v7.33h-2.24V535c0-2-.73-3.63-2.84-3.63a3.19,3.19,0,0,0-3,2.28,3.28,3.28,0,0,0-.15,1v7.38h-2.23Z"/><path class="cls-5" d="M1087.53,536.33c0,3,2,4.26,4.21,4.26a8.14,8.14,0,0,0,3.4-.63l.38,1.6a10,10,0,0,1-4.08.76c-3.79,0-6-2.49-6-6.2s2.19-6.62,5.77-6.62c4,0,5.07,3.53,5.07,5.79a10.18,10.18,0,0,1-.07,1Zm6.55-1.6c0-1.43-.59-3.63-3.1-3.63-2.26,0-3.25,2.08-3.43,3.63Z"/><path class="cls-5" d="M1098.49,533.61c0-1.45,0-2.69-.1-3.83h2l.07,2.41h.11a3.67,3.67,0,0,1,3.4-2.69,2.43,2.43,0,0,1,.63.07v2.11a3.34,3.34,0,0,0-.76-.08,3.13,3.13,0,0,0-3,2.87,5.44,5.44,0,0,0-.11,1v6.55h-2.21Z"/><path class="cls-5" d="M1113,542.06l-.18-1.54h-.08a4.56,4.56,0,0,1-3.75,1.82,3.5,3.5,0,0,1-3.76-3.53c0-3,2.64-4.59,7.39-4.57V534a2.53,2.53,0,0,0-2.8-2.84,6.13,6.13,0,0,0-3.2.91l-.5-1.47a7.61,7.61,0,0,1,4-1.09c3.76,0,4.68,2.56,4.68,5v4.6a17.41,17.41,0,0,0,.2,2.94Zm-.33-6.27c-2.44,0-5.21.38-5.21,2.77a2,2,0,0,0,2.11,2.13,3,3,0,0,0,3-2.05,2.27,2.27,0,0,0,.13-.71Z"/><path class="cls-5" d="M1120.48,526.25v3.53h3.2v1.7h-3.2v6.62c0,1.53.44,2.39,1.68,2.39a5.27,5.27,0,0,0,1.29-.15l.11,1.67a5.45,5.45,0,0,1-2,.31,3.11,3.11,0,0,1-2.42-.94,4.57,4.57,0,0,1-.86-3.2v-6.7h-1.9v-1.7h1.9v-2.95Z"/><path class="cls-5" d="M1126.78,536.33a3.93,3.93,0,0,0,4.22,4.26,8.21,8.21,0,0,0,3.4-.63l.38,1.6a10.06,10.06,0,0,1-4.09.76c-3.78,0-6-2.49-6-6.2s2.18-6.62,5.76-6.62c4,0,5.08,3.53,5.08,5.79a7.57,7.57,0,0,1-.08,1Zm6.55-1.6c0-1.43-.58-3.63-3.1-3.63-2.26,0-3.25,2.08-3.42,3.63Z"/><path class="cls-5" d="M1044.16,565.17a5.87,5.87,0,0,0,2.94.89c1.63,0,2.39-.81,2.39-1.83s-.63-1.65-2.28-2.26c-2.21-.79-3.25-2-3.25-3.48,0-2,1.6-3.6,4.24-3.6a6.11,6.11,0,0,1,3,.76l-.56,1.62a4.81,4.81,0,0,0-2.51-.71c-1.32,0-2.06.76-2.06,1.68s.74,1.47,2.33,2.08c2.14.81,3.23,1.88,3.23,3.71,0,2.16-1.68,3.68-4.6,3.68a7,7,0,0,1-3.45-.84Z"/><path class="cls-5" d="M1056.7,551.64v3.53h3.2v1.7h-3.2v6.62c0,1.53.43,2.39,1.68,2.39a5.27,5.27,0,0,0,1.29-.15l.1,1.67a5.37,5.37,0,0,1-2,.31,3.1,3.1,0,0,1-2.41-.94,4.57,4.57,0,0,1-.86-3.2v-6.7h-1.91v-1.7h1.91v-2.95Z"/><path class="cls-5" d="M1068.71,567.45l-.18-1.54h-.07a4.6,4.6,0,0,1-3.76,1.82,3.5,3.5,0,0,1-3.76-3.53c0-3,2.64-4.59,7.39-4.57v-.25a2.53,2.53,0,0,0-2.79-2.84,6.11,6.11,0,0,0-3.2.91l-.51-1.47a7.65,7.65,0,0,1,4-1.09c3.76,0,4.67,2.56,4.67,5v4.6a17.41,17.41,0,0,0,.2,2.94Zm-.33-6.27c-2.44,0-5.2.38-5.2,2.77a2,2,0,0,0,2.1,2.13,3,3,0,0,0,3-2.05,2.27,2.27,0,0,0,.13-.71Z"/><path class="cls-5" d="M1076.23,551.64v3.53h3.2v1.7h-3.2v6.62c0,1.53.43,2.39,1.67,2.39a5.29,5.29,0,0,0,1.3-.15l.1,1.67a5.41,5.41,0,0,1-2,.31,3.09,3.09,0,0,1-2.41-.94,4.52,4.52,0,0,1-.87-3.2v-6.7h-1.9v-1.7h1.9v-2.95Z"/><path class="cls-5" d="M1091.72,564.1c0,1.27,0,2.39.1,3.35h-2l-.13-2h0a4.62,4.62,0,0,1-4.06,2.28c-1.93,0-4.24-1.06-4.24-5.38v-7.18h2.23V562c0,2.34.71,3.91,2.74,3.91a3.13,3.13,0,0,0,3.15-3.17v-7.54h2.24Z"/><path class="cls-5" d="M1097.61,551.64v3.53h3.2v1.7h-3.2v6.62c0,1.53.43,2.39,1.67,2.39a5.29,5.29,0,0,0,1.3-.15l.1,1.67a5.41,5.41,0,0,1-2,.31,3.09,3.09,0,0,1-2.41-.94,4.52,4.52,0,0,1-.87-3.2v-6.7h-1.9v-1.7h1.9v-2.95Z"/><path class="cls-5" d="M1113.78,561.21c0,4.54-3.15,6.52-6.12,6.52-3.32,0-5.89-2.43-5.89-6.32,0-4.11,2.69-6.52,6.09-6.52S1113.78,557.45,1113.78,561.21Zm-9.75.13c0,2.69,1.55,4.72,3.73,4.72s3.74-2,3.74-4.77c0-2.09-1-4.73-3.69-4.73S1104,559,1104,561.34Z"/><path class="cls-5" d="M1116.09,559c0-1.45,0-2.69-.1-3.83h2l.08,2.41h.1a3.69,3.69,0,0,1,3.4-2.69,2.46,2.46,0,0,1,.64.07v2.11a3.41,3.41,0,0,0-.76-.08,3.14,3.14,0,0,0-3,2.87,6.44,6.44,0,0,0-.1,1v6.55h-2.21Z"/><path class="cls-5" d="M1125.33,555.17l2.69,7.26c.28.81.59,1.77.79,2.51h0c.23-.74.48-1.67.79-2.56l2.44-7.21h2.36l-3.35,8.76c-1.6,4.21-2.69,6.37-4.22,7.69a6.19,6.19,0,0,1-2.74,1.45l-.56-1.88a6.11,6.11,0,0,0,2-1.09,6.89,6.89,0,0,0,1.88-2.49,1.6,1.6,0,0,0,.17-.54,2,2,0,0,0-.15-.58l-4.54-11.32Z"/><path class="cls-5" d="M1044.46,584.39c0-1.45,0-2.69-.1-3.83h2l.07,2.41h.11a3.67,3.67,0,0,1,3.4-2.69,2.43,2.43,0,0,1,.63.07v2.11a3.34,3.34,0,0,0-.76-.08,3.15,3.15,0,0,0-3,2.87,6.44,6.44,0,0,0-.1,1v6.56h-2.21Z"/><path class="cls-5" d="M1053.25,587.11c0,3,2,4.26,4.21,4.26a8.22,8.22,0,0,0,3.41-.63l.38,1.6a10.1,10.1,0,0,1-4.09.76c-3.78,0-6-2.49-6-6.2s2.18-6.62,5.76-6.62c4,0,5.08,3.53,5.08,5.79a7.57,7.57,0,0,1-.08,1Zm6.55-1.6c0-1.42-.58-3.63-3.1-3.63-2.26,0-3.25,2.08-3.43,3.63Z"/><path class="cls-5" d="M1064.22,584.57c0-1.58,0-2.85-.1-4h2l.1,2.1h0a4.86,4.86,0,0,1,4.37-2.38c3,0,5.21,2.51,5.21,6.24,0,4.42-2.69,6.6-5.59,6.6a4.31,4.31,0,0,1-3.78-1.92h0v6.67h-2.21Zm2.21,3.27a5.18,5.18,0,0,0,.1.92,3.43,3.43,0,0,0,3.35,2.61c2.36,0,3.73-1.93,3.73-4.75,0-2.46-1.29-4.57-3.65-4.57a3.57,3.57,0,0,0-3.38,2.77,3.47,3.47,0,0,0-.15.92Z"/><path class="cls-5" d="M1089.28,586.6c0,4.54-3.15,6.52-6.12,6.52-3.33,0-5.89-2.43-5.89-6.32,0-4.11,2.69-6.52,6.09-6.52S1089.28,582.84,1089.28,586.6Zm-9.75.13c0,2.69,1.55,4.72,3.73,4.72s3.73-2,3.73-4.77c0-2.09-1-4.73-3.68-4.73S1079.53,584.39,1079.53,586.73Z"/><path class="cls-5" d="M1091.59,584.39c0-1.45,0-2.69-.1-3.83h2l.08,2.41h.1a3.68,3.68,0,0,1,3.4-2.69,2.51,2.51,0,0,1,.64.07v2.11a3.41,3.41,0,0,0-.76-.08,3.14,3.14,0,0,0-3,2.87,6.44,6.44,0,0,0-.1,1v6.56h-2.21Z"/><path class="cls-5" d="M1102.68,577v3.53h3.2v1.7h-3.2v6.62c0,1.53.44,2.39,1.68,2.39a4.76,4.76,0,0,0,1.29-.15l.11,1.67a5.45,5.45,0,0,1-2,.31,3.11,3.11,0,0,1-2.42-.94,4.57,4.57,0,0,1-.86-3.2v-6.7h-1.9v-1.7h1.9v-2.95Z"/><path class="cls-5" d="M1107.58,590.56a5.88,5.88,0,0,0,3,.89c1.62,0,2.39-.81,2.39-1.83s-.64-1.65-2.29-2.26c-2.21-.79-3.25-2-3.25-3.48,0-2,1.6-3.6,4.24-3.6a6.05,6.05,0,0,1,3,.76l-.56,1.62a4.81,4.81,0,0,0-2.51-.71c-1.32,0-2.06.76-2.06,1.68s.74,1.47,2.34,2.08c2.13.81,3.22,1.88,3.22,3.71,0,2.16-1.67,3.68-4.59,3.68a7,7,0,0,1-3.45-.84Z"/><path class="cls-5" d="M628.82,64.76a39.15,39.15,0,0,1,6.7-.47c3.05,0,5.23.61,6.69,1.83a6.78,6.78,0,0,1,2.34,5.28,7.48,7.48,0,0,1-2,5.42c-1.69,1.66-4.2,2.4-7.12,2.4a11.62,11.62,0,0,1-1.69-.1v8.16h-4.91Zm4.91,10.36a6.77,6.77,0,0,0,1.66.14c2.63,0,4.25-1.39,4.25-3.72,0-2.1-1.39-3.36-3.86-3.36a8.12,8.12,0,0,0-2,.21Z"/><path class="cls-5" d="M647.25,76.17c0-2.43-.07-4-.13-5.45h4.26l.16,3h.13A4.69,4.69,0,0,1,656,70.35a4.77,4.77,0,0,1,1,.07v4.84a6.61,6.61,0,0,0-1.33-.14,3.2,3.2,0,0,0-3.38,2.61,5.93,5.93,0,0,0-.1,1.15v8.4h-4.94Z"/><path class="cls-5" d="M675,78.81c0,6.06-4.13,8.84-8.39,8.84-4.65,0-8.22-3.18-8.22-8.53s3.38-8.77,8.48-8.77C671.79,70.35,675,73.84,675,78.81ZM663.53,79c0,2.85,1.14,5,3.25,5,1.92,0,3.15-2,3.15-5,0-2.47-.91-5-3.15-5S663.53,76.55,663.53,79Z"/><path class="cls-5" d="M693.37,70.72c-.07,1-.13,2.44-.13,4.91v9.24c0,3.19-.62,5.8-2.41,7.45a9.52,9.52,0,0,1-6.47,2,11.93,11.93,0,0,1-5.72-1.29l1-3.89a9.46,9.46,0,0,0,4.61,1.25c2.34,0,4.13-1.32,4.13-4.37V85h-.07A5,5,0,0,1,684,87.14c-3.93,0-6.72-3.31-6.72-8.09,0-5.31,3.31-8.7,7.21-8.7a4.74,4.74,0,0,1,4.36,2.34h.06l.17-2Zm-5.08,6.74a4.58,4.58,0,0,0-.09-.95,2.75,2.75,0,0,0-2.67-2.27c-1.78,0-3.25,1.7-3.25,4.71,0,2.47,1.17,4.4,3.25,4.4a2.7,2.7,0,0,0,2.6-2.1,4.51,4.51,0,0,0,.16-1.35Z"/><path class="cls-5" d="M697.2,76.17c0-2.43-.07-4-.13-5.45h4.26l.16,3h.13a4.69,4.69,0,0,1,4.29-3.42,4.77,4.77,0,0,1,1,.07v4.84a6.61,6.61,0,0,0-1.33-.14,3.2,3.2,0,0,0-3.38,2.61,5.93,5.93,0,0,0-.1,1.15v8.4H697.2Z"/><path class="cls-5" d="M718.23,87.28l-.3-1.66h-.09a5.63,5.63,0,0,1-4.55,2,5,5,0,0,1-5.14-5.08c0-4.3,3.71-6.36,9.33-6.33V76c0-.88-.46-2.13-2.89-2.13a8.73,8.73,0,0,0-4.39,1.25l-.91-3.31a12.58,12.58,0,0,1,6.17-1.46c5.3,0,7,3.25,7,7.14v5.76a27,27,0,0,0,.23,4Zm-.59-7.82c-2.6,0-4.61.61-4.61,2.61a1.8,1.8,0,0,0,2,2,2.7,2.7,0,0,0,2.56-1.9,3.54,3.54,0,0,0,.1-.88Z"/><path class="cls-5" d="M726.35,76c0-2.06-.06-3.82-.13-5.28h4.16l.23,2.24h.1a5.46,5.46,0,0,1,4.81-2.61,4.49,4.49,0,0,1,4.35,2.81h.07a7.29,7.29,0,0,1,2-2,5.6,5.6,0,0,1,3-.81c3,0,5.36,2.23,5.36,7.18v9.75h-4.81v-9c0-2.4-.75-3.79-2.34-3.79a2.44,2.44,0,0,0-2.28,1.8,4.44,4.44,0,0,0-.19,1.32v9.68h-4.81V78c0-2.1-.72-3.52-2.28-3.52a2.54,2.54,0,0,0-2.3,1.86,3.41,3.41,0,0,0-.2,1.29v9.65h-4.81Z"/><path class="cls-5" d="M644.06,97.09v19.1c0,1.86.07,3.83.13,4.94h-4.38l-.23-2.43h-.07a5.49,5.49,0,0,1-5,2.81c-3.77,0-6.79-3.36-6.79-8.5,0-5.59,3.31-8.81,7.12-8.81a4.77,4.77,0,0,1,4.19,1.87h.06v-9Zm-4.94,14.5c0-.28,0-.65-.06-.92a3,3,0,0,0-2.89-2.54c-2.25,0-3.42,2.1-3.42,4.71,0,2.81,1.34,4.57,3.38,4.57a2.93,2.93,0,0,0,2.86-2.47,4.48,4.48,0,0,0,.13-1.19Z"/><path class="cls-5" d="M651.83,114.5c.16,2.13,2.18,3.15,4.48,3.15a13.49,13.49,0,0,0,4.39-.68l.65,3.49a15.22,15.22,0,0,1-5.75,1c-5.4,0-8.48-3.25-8.48-8.43,0-4.2,2.5-8.84,8-8.84,5.14,0,7.09,4.17,7.09,8.27a13.51,13.51,0,0,1-.16,2Zm5.82-3.52c0-1.26-.52-3.36-2.8-3.36-2.08,0-2.92,2-3.05,3.36Z"/><path class="cls-5" d="M665.15,116.63a9.33,9.33,0,0,0,4.26,1.25c1.5,0,2.11-.54,2.11-1.38s-.48-1.26-2.34-1.9c-3.28-1.15-4.55-3-4.51-5,0-3.08,2.53-5.42,6.46-5.42a10.25,10.25,0,0,1,4.49,1l-.88,3.56a7.49,7.49,0,0,0-3.44-.95c-1.21,0-1.89.51-1.89,1.35S670,110.3,672,111c3,1.08,4.29,2.68,4.32,5.11,0,3.08-2.34,5.35-6.89,5.35a10.82,10.82,0,0,1-5.13-1.15Z"/><path class="cls-5" d="M684.39,100a2.52,2.52,0,0,1-2.66,2.57,2.59,2.59,0,0,1,0-5.17A2.52,2.52,0,0,1,684.39,100Zm-5.1,21.16V104.58h4.94v16.55Z"/><path class="cls-5" d="M703.37,104.58c-.06,1-.13,2.44-.13,4.91v9.24c0,3.18-.61,5.79-2.4,7.45a9.53,9.53,0,0,1-6.47,2,11.93,11.93,0,0,1-5.72-1.29l1-3.89a9.43,9.43,0,0,0,4.61,1.25c2.34,0,4.13-1.32,4.13-4.36v-1.09h-.07A5,5,0,0,1,694,121c-3.93,0-6.72-3.32-6.72-8.09,0-5.32,3.31-8.71,7.21-8.71a4.77,4.77,0,0,1,4.36,2.34h.06l.16-2Zm-5.07,6.73a4.55,4.55,0,0,0-.09-.94,2.74,2.74,0,0,0-2.67-2.27c-1.79,0-3.25,1.69-3.25,4.7,0,2.48,1.17,4.41,3.25,4.41a2.7,2.7,0,0,0,2.6-2.1,4.61,4.61,0,0,0,.16-1.36Z"/><path class="cls-5" d="M707.21,109.86c0-2.07-.07-3.83-.13-5.28h4.29l.23,2.27h.09a5.78,5.78,0,0,1,4.91-2.65c3.25,0,5.69,2.24,5.69,7.11v9.82h-4.94V112c0-2.13-.72-3.59-2.5-3.59a2.66,2.66,0,0,0-2.51,1.93,3.66,3.66,0,0,0-.19,1.29v9.54h-4.94Z"/><path class="cls-5" d="M1049.58,64.46V87.28h-4.87V64.46Z"/><path class="cls-5" d="M1053.71,76c0-2.06-.06-3.82-.12-5.28h4.07l.22,2.24h.1a5.34,5.34,0,0,1,4.71-2.61,4.4,4.4,0,0,1,4.27,2.81h.06a7.17,7.17,0,0,1,2-2,5.38,5.38,0,0,1,3-.81c3,0,5.26,2.23,5.26,7.18v9.75h-4.71v-9c0-2.4-.74-3.79-2.3-3.79a2.38,2.38,0,0,0-2.22,1.8,4.44,4.44,0,0,0-.19,1.32v9.68h-4.72V78c0-2.1-.7-3.52-2.22-3.52a2.49,2.49,0,0,0-2.26,1.86,3.61,3.61,0,0,0-.19,1.29v9.65h-4.72Z"/><path class="cls-5" d="M1081.08,76.28c0-2.17-.06-4-.13-5.56h4.21l.22,2.31h.06a5.85,5.85,0,0,1,5.19-2.68c3.41,0,6.46,3.15,6.46,8.43,0,6-3.59,8.87-7.06,8.87a4.74,4.74,0,0,1-4-1.89h-.06V94h-4.84Zm4.84,3.89a4.9,4.9,0,0,0,.1,1.08,3,3,0,0,0,2.83,2.44c2.1,0,3.34-1.86,3.34-4.67,0-2.64-1.11-4.64-3.28-4.64A3.08,3.08,0,0,0,1086,77a3.85,3.85,0,0,0-.1.91Z"/><path class="cls-5" d="M1100.11,63.24H1105v24h-4.84Z"/><path class="cls-5" d="M1112.59,80.64c.16,2.14,2.13,3.15,4.39,3.15a13.29,13.29,0,0,0,4.3-.67l.63,3.48a14.47,14.47,0,0,1-5.63,1c-5.28,0-8.31-3.25-8.31-8.43,0-4.2,2.45-8.84,7.86-8.84,5,0,6.94,4.17,6.94,8.26a12.17,12.17,0,0,1-.16,2Zm5.69-3.52c0-1.25-.51-3.35-2.73-3.35-2,0-2.87,2-3,3.35Z"/><path class="cls-5" d="M1125.66,76c0-2.06-.06-3.82-.12-5.28h4.07l.22,2.24h.1a5.34,5.34,0,0,1,4.71-2.61,4.4,4.4,0,0,1,4.27,2.81h.06a7.07,7.07,0,0,1,2-2,5.34,5.34,0,0,1,3-.81c3,0,5.25,2.23,5.25,7.18v9.75h-4.71v-9c0-2.4-.74-3.79-2.3-3.79a2.38,2.38,0,0,0-2.22,1.8,4.44,4.44,0,0,0-.19,1.32v9.68h-4.72V78c0-2.1-.7-3.52-2.22-3.52a2.5,2.5,0,0,0-2.26,1.86,3.61,3.61,0,0,0-.19,1.29v9.65h-4.72Z"/><path class="cls-5" d="M1156.76,80.64c.16,2.14,2.13,3.15,4.39,3.15a13.29,13.29,0,0,0,4.3-.67l.63,3.48a14.47,14.47,0,0,1-5.63,1c-5.29,0-8.31-3.25-8.31-8.43,0-4.2,2.45-8.84,7.86-8.84,5,0,6.94,4.17,6.94,8.26a12.17,12.17,0,0,1-.16,2Zm5.69-3.52c0-1.25-.51-3.35-2.73-3.35-2,0-2.87,2-3,3.35Z"/><path class="cls-5" d="M1169.83,76c0-2.06-.06-3.82-.12-5.28h4.2l.22,2.27h.1a5.61,5.61,0,0,1,4.8-2.64c3.19,0,5.57,2.23,5.57,7.11v9.82h-4.83V78.1c0-2.13-.7-3.58-2.46-3.58a2.62,2.62,0,0,0-2.45,1.93,3.88,3.88,0,0,0-.19,1.28v9.55h-4.84Z"/><path class="cls-5" d="M1193.7,66v4.74h3.47v3.8h-3.47v6c0,2,.45,2.91,1.91,2.91a8.12,8.12,0,0,0,1.43-.13l0,3.89a9,9,0,0,1-3.15.44,4.89,4.89,0,0,1-3.63-1.42c-.89-1-1.34-2.58-1.34-4.91V74.52h-2.07v-3.8H1189V67.13Z"/><path class="cls-5" d="M1208.82,87.28l-.29-1.66h-.09a5.46,5.46,0,0,1-4.46,2,4.92,4.92,0,0,1-5-5.08c0-4.3,3.63-6.36,9.14-6.33V76c0-.88-.45-2.13-2.84-2.13a8.41,8.41,0,0,0-4.29,1.25l-.89-3.31a12.12,12.12,0,0,1,6-1.46c5.19,0,6.85,3.25,6.85,7.14v5.76a27.2,27.2,0,0,0,.22,4Zm-.57-7.82c-2.55,0-4.52.61-4.52,2.61a1.78,1.78,0,0,0,1.91,2,2.66,2.66,0,0,0,2.51-1.9,4.09,4.09,0,0,0,.1-.88Z"/><path class="cls-5" d="M1221.93,66v4.74h3.47v3.8h-3.47v6c0,2,.45,2.91,1.91,2.91a8.22,8.22,0,0,0,1.43-.13l0,3.89a9,9,0,0,1-3.15.44,4.9,4.9,0,0,1-3.63-1.42c-.89-1-1.33-2.58-1.33-4.91V74.52h-2.07v-3.8h2.07V67.13Z"/><path class="cls-5" d="M1233.19,66.12a2.49,2.49,0,0,1-2.61,2.57,2.59,2.59,0,0,1,0-5.18A2.49,2.49,0,0,1,1233.19,66.12Zm-5,21.16V70.72H1233V87.28Z"/><path class="cls-5" d="M1252.29,78.81c0,6.06-4,8.84-8.21,8.84-4.55,0-8.06-3.18-8.06-8.53s3.32-8.77,8.31-8.77C1249.11,70.35,1252.29,73.84,1252.29,78.81ZM1241,79c0,2.85,1.12,5,3.19,5,1.87,0,3.08-2,3.08-5,0-2.47-.89-5-3.08-5S1241,76.55,1241,79Z"/><path class="cls-5" d="M1255.28,76c0-2.06-.07-3.82-.13-5.28h4.2l.23,2.27h.09a5.63,5.63,0,0,1,4.81-2.64c3.18,0,5.57,2.23,5.57,7.11v9.82h-4.84V78.1c0-2.13-.7-3.58-2.45-3.58a2.61,2.61,0,0,0-2.45,1.93,3.64,3.64,0,0,0-.19,1.28v9.55h-4.84Z"/><path class="cls-5" d="M1053.4,121.13l-.29-1.66H1053a5.47,5.47,0,0,1-4.46,2,4.92,4.92,0,0,1-5-5.08c0-4.3,3.63-6.37,9.14-6.33v-.24c0-.88-.45-2.13-2.84-2.13a8.32,8.32,0,0,0-4.29,1.25l-.89-3.32a12.23,12.23,0,0,1,6-1.46c5.19,0,6.85,3.25,6.85,7.15v5.76a27,27,0,0,0,.22,4Zm-.57-7.82c-2.55,0-4.52.61-4.52,2.61a1.78,1.78,0,0,0,1.91,2,2.65,2.65,0,0,0,2.51-1.89,4.16,4.16,0,0,0,.1-.88Z"/><path class="cls-5" d="M1061.35,109.86c0-2.07-.06-3.83-.12-5.28h4.2l.22,2.27h.1a5.6,5.6,0,0,1,4.8-2.65c3.18,0,5.57,2.24,5.57,7.11v9.82h-4.84V112c0-2.13-.7-3.59-2.45-3.59a2.62,2.62,0,0,0-2.45,1.93,3.66,3.66,0,0,0-.19,1.29v9.54h-4.84Z"/><path class="cls-5" d="M1095.09,97.09v19.1c0,1.86.06,3.83.13,4.94h-4.3l-.22-2.43h-.07a5.36,5.36,0,0,1-4.87,2.81c-3.69,0-6.65-3.36-6.65-8.5,0-5.59,3.25-8.81,7-8.81a4.64,4.64,0,0,1,4.11,1.87h.06v-9Zm-4.84,14.5c0-.28,0-.65-.06-.92a3,3,0,0,0-2.84-2.54c-2.19,0-3.34,2.1-3.34,4.71,0,2.81,1.31,4.57,3.31,4.57a2.88,2.88,0,0,0,2.8-2.47,4.48,4.48,0,0,0,.13-1.19Z"/><path class="cls-5" d="M1109.12,114.5c.16,2.13,2.13,3.15,4.39,3.15a13,13,0,0,0,4.3-.68l.64,3.49a14.74,14.74,0,0,1-5.64,1c-5.28,0-8.31-3.25-8.31-8.43,0-4.2,2.46-8.84,7.87-8.84,5,0,6.93,4.17,6.93,8.27a13.83,13.83,0,0,1-.15,2Zm5.7-3.52c0-1.26-.51-3.36-2.74-3.36-2,0-2.87,2-3,3.36Z"/><path class="cls-5" d="M1125.6,104.58l2.1,7.68a40.35,40.35,0,0,1,.9,4h.09c.26-1.35.51-2.6.86-4l2-7.68h5.09l-5.79,16.55H1126l-5.67-16.55Z"/><path class="cls-5" d="M1147.5,121.13l-.29-1.66h-.09a5.47,5.47,0,0,1-4.46,2,4.92,4.92,0,0,1-5-5.08c0-4.3,3.63-6.37,9.14-6.33v-.24c0-.88-.45-2.13-2.84-2.13a8.32,8.32,0,0,0-4.29,1.25l-.89-3.32a12.23,12.23,0,0,1,6-1.46c5.19,0,6.85,3.25,6.85,7.15v5.76a27,27,0,0,0,.22,4Zm-.57-7.82c-2.55,0-4.52.61-4.52,2.61a1.78,1.78,0,0,0,1.91,2,2.65,2.65,0,0,0,2.51-1.89,4.16,4.16,0,0,0,.1-.88Z"/><path class="cls-5" d="M1155.45,97.09h4.84v24h-4.84Z"/><path class="cls-5" d="M1178.88,115.82c0,2.17.06,3.93.13,5.31h-4.21l-.22-2.33h-.09a5.51,5.51,0,0,1-4.87,2.71c-3.16,0-5.48-2.1-5.48-7.22v-9.71H1169v8.9c0,2.41.73,3.86,2.42,3.86a2.62,2.62,0,0,0,2.42-1.79,3,3,0,0,0,.16-1.12v-9.85h4.87Z"/><path class="cls-5" d="M1191.61,121.13l-.29-1.66h-.1a5.45,5.45,0,0,1-4.45,2,4.92,4.92,0,0,1-5-5.08c0-4.3,3.63-6.37,9.13-6.33v-.24c0-.88-.44-2.13-2.83-2.13a8.35,8.35,0,0,0-4.3,1.25l-.89-3.32a12.27,12.27,0,0,1,6.05-1.46c5.19,0,6.84,3.25,6.84,7.15v5.76a26.83,26.83,0,0,0,.23,4Zm-.58-7.82c-2.54,0-4.52.61-4.52,2.61a1.79,1.79,0,0,0,1.91,2,2.66,2.66,0,0,0,2.52-1.89,4.17,4.17,0,0,0,.09-.88Z"/><path class="cls-5" d="M1204.72,99.84v4.74h3.47v3.79h-3.47v6c0,2,.44,2.91,1.91,2.91a7.34,7.34,0,0,0,1.43-.13l0,3.89a9,9,0,0,1-3.15.44,4.85,4.85,0,0,1-3.63-1.42c-.89-1-1.34-2.57-1.34-4.91v-6.77h-2.07v-3.79H1200V101Z"/><path class="cls-5" d="M1216,100a2.5,2.5,0,0,1-2.61,2.57,2.59,2.59,0,0,1,0-5.17A2.49,2.49,0,0,1,1216,100Zm-5,21.16V104.58h4.84v16.55Z"/><path class="cls-5" d="M1235.08,112.67c0,6.06-4,8.84-8.21,8.84-4.56,0-8.06-3.19-8.06-8.54s3.31-8.77,8.31-8.77C1231.89,104.2,1235.08,107.69,1235.08,112.67Zm-11.27.17c0,2.84,1.11,5,3.18,5,1.88,0,3.09-2,3.09-5,0-2.47-.89-5-3.09-5S1223.81,110.4,1223.81,112.84Z"/><path class="cls-5" d="M1238.06,109.86c0-2.07-.06-3.83-.12-5.28h4.2l.22,2.27h.1a5.62,5.62,0,0,1,4.8-2.65c3.19,0,5.57,2.24,5.57,7.11v9.82H1248V112c0-2.13-.7-3.59-2.46-3.59a2.62,2.62,0,0,0-2.45,1.93,3.9,3.9,0,0,0-.19,1.29v9.54h-4.84Z"/><polyline class="cls-6" points="76.1 381 76.1 385.04 108.44 385.04 108.44 368.87 76.1 368.87 76.1 372.92"/><rect class="cls-6" x="76.1" y="401.21" width="32.34" height="16.17"/><polyline class="cls-6" points="108.44 437.6 108.44 433.56 76.1 433.56 76.1 449.73 108.44 449.73 108.44 445.68"/><polyline class="cls-6" points="70.62 376.96 57.24 376.96 57.24 441.64 64.8 441.64"/><path class="cls-7" d="M73.36,373.09a4.5,4.5,0,1,0,6.8,3.87A4.5,4.5,0,0,0,73.36,373.09Z"/><polygon class="cls-5" points="63.05 447.62 73.41 441.64 63.05 435.66 63.05 447.62"/><polyline class="cls-6" points="113.73 441.64 127.31 441.64 127.31 409.3 119.75 409.3"/><path class="cls-7" d="M111,445.51a4.5,4.5,0,1,0-6.8-3.87A4.51,4.51,0,0,0,111,445.51Z"/><polygon class="cls-5" points="121.5 403.32 111.14 409.3 121.5 415.28 121.5 403.32"/><polygon class="cls-6" points="97.11 554.87 77.74 570.86 69.96 563.08 85.95 543.71 97.11 554.87"/><polyline class="cls-6" points="117.76 541.93 98.64 556.4 84.42 542.18 99.14 523.06"/><circle class="cls-6" cx="62.42" cy="579.71" r="10.78"/><polyline class="cls-6" points="68.54 597.12 105.98 597.12 105.98 567.51"/><polygon class="cls-5" points="111.96 569.27 105.98 558.9 99.99 569.27 111.96 569.27"/><circle class="cls-6" cx="121.09" cy="538.89" r="4.5"/><circle class="cls-6" cx="101.4" cy="520.46" r="4.5"/><line class="cls-6" x1="104.71" y1="522.26" x2="118.38" y2="536.19"/><polyline class="cls-6" points="573 415.26 573 372.57 527.78 372.57"/><polygon class="cls-5" points="578.98 413.51 573 423.88 567.02 413.51 578.98 413.51"/><polyline class="cls-6" points="516.33 381.68 516.33 443.98 558.8 443.98 573 429.21"/><path class="cls-7" d="M512.47,378.94a4.5,4.5,0,0,0,7.73,0h0a4.5,4.5,0,1,0-7.73,0Z"/><line class="cls-6" x1="540.92" y1="388.95" x2="566.26" y2="389.21"/><line class="cls-6" x1="541.57" y1="431.04" x2="555.65" y2="431.04"/><line class="cls-6" x1="541.31" y1="409.67" x2="566.04" y2="409.67"/><polyline class="cls-6" points="525.13 387.4 528.7 391.24 534.63 385.31"/><polyline class="cls-6" points="525.13 408.03 528.7 411.86 534.63 405.93"/><polyline class="cls-6" points="525.13 427.56 528.7 431.39 534.63 425.46"/><path class="cls-6" d="M120.31,80.57h0s0-.08,0-.11,0-.08,0-.12h0a18.28,18.28,0,0,0-.31-3.15l2.91-2.42a21.57,21.57,0,0,0-2-5l-3.81.35a18.34,18.34,0,0,0-4.77-4.77l.35-3.85a21.54,21.54,0,0,0-4.92-2l-2.48,3a17.37,17.37,0,0,0-6.74,0l-2.48-3a21.73,21.73,0,0,0-4.92,2l.36,3.85a18.53,18.53,0,0,0-4.78,4.77l-3.8-.35a21.6,21.6,0,0,0-2,5l2.91,2.42a18.28,18.28,0,0,0-.31,3.15h0v.23h0a18.28,18.28,0,0,0,.31,3.15l-2.91,2.42a21.6,21.6,0,0,0,2,5l3.8-.35a18.72,18.72,0,0,0,4.78,4.78l-.36,3.84a22,22,0,0,0,4.92,2.05l2.48-3a17.91,17.91,0,0,0,6.74,0l2.48,3a21.57,21.57,0,0,0,4.92-2.05l-.35-3.84a18.53,18.53,0,0,0,4.77-4.78l3.81.35a21.57,21.57,0,0,0,2-5L120,83.72A18.28,18.28,0,0,0,120.31,80.57ZM101.9,90.7a10.24,10.24,0,1,1,10.24-10.24A10.25,10.25,0,0,1,101.9,90.7Z"/><polyline class="cls-6" points="107.51 137.12 107.51 125.9 120.88 119.91 120.88 112.87"/><path class="cls-7" d="M124.75,110.13h0a4.5,4.5,0,1,1-3.87-6.8A4.51,4.51,0,0,1,124.75,110.13Z"/><path class="cls-6" d="M118.93,51.42H78.61A14.36,14.36,0,0,0,64.25,65.78V82.05c0,7.73-6.39,16.23-9.62,19.64l1.11,1H66l-.15,23.17H82.67v11.28"/><polygon class="cls-5" points="117.18 45.44 127.54 51.42 117.18 57.41 117.18 45.44"/><line class="cls-6" x1="65.91" y1="113.85" x2="75.9" y2="113.85"/><path class="cls-6" d="M946.76,425.94c-6-5.24-10-13.87-10-24.53a35.06,35.06,0,0,1,67.35-13.64"/><line class="cls-6" x1="971.81" y1="366.36" x2="971.81" y2="373.65"/><line class="cls-6" x1="944.87" y1="401.42" x2="936.76" y2="401.42"/><line class="cls-6" x1="951.35" y1="381.57" x2="946.72" y2="376.94"/><line class="cls-6" x1="995.76" y1="376.94" x2="991.45" y2="381.26"/><line class="cls-6" x1="951.63" y1="421.07" x2="945.88" y2="426.82"/><polyline class="cls-6" points="950.7 440.43 970.85 421.39 978.12 427.58 1000.24 404.86"/><polygon class="cls-5" points="1003.31 410.28 1006.25 398.68 994.73 401.94 1003.31 410.28"/><circle class="cls-6" cx="973.03" cy="403.58" r="4.5"/><circle class="cls-6" cx="946.57" cy="443.76" r="4.5"/><line class="cls-6" x1="976.38" y1="401.42" x2="989.44" y2="388.36"/><polyline class="cls-8" points="955.71 520.44 987.35 520.44 1001.54 534.85 1001.54 551.22"/><polygon class="cls-5" points="995.56 549.47 1001.54 559.83 1007.52 549.47 995.56 549.47"/><polyline class="cls-8" points="968.58 591.62 942.76 591.62 942.76 527.32"/><line class="cls-8" x1="956.42" y1="537.75" x2="985.42" y2="537.75"/><line class="cls-8" x1="956.42" y1="554.75" x2="985.62" y2="554.75"/><line class="cls-8" x1="956.42" y1="572.73" x2="968.38" y2="572.73"/><circle class="cls-8" cx="942.58" cy="521.45" r="4.5"/><path class="cls-8" d="M1004.93,578.77a14.08,14.08,0,0,0-23-7.38"/><polygon class="cls-5" points="978.34 566.83 977.51 578.77 988.26 573.52 978.34 566.83"/><path class="cls-8" d="M977.51,585.28a14.08,14.08,0,0,0,23,7.38"/><polygon class="cls-5" points="1004.1 597.22 1004.93 585.28 994.17 590.53 1004.1 597.22"/><path class="cls-9" d="M61.44,269.6A28.23,28.23,0,1,1,75,284.44"/><path class="cls-9" d="M68.62,265a20,20,0,1,1,12.15,12.86"/><path class="cls-9" d="M104.24,282.55l15.05,15.16a4.83,4.83,0,0,0,6.84,0,4.84,4.84,0,0,0,0-6.83l-15-15.17"/><line class="cls-9" x1="65.63" y1="279.76" x2="82.01" y2="264.77"/><path class="cls-7" d="M66.22,284.46a4.5,4.5,0,1,0-7.63,1.74A4.5,4.5,0,0,0,66.22,284.46Z"/><polygon class="cls-5" points="84.76 270.37 88.36 258.96 76.68 261.54 84.76 270.37"/><path class="cls-9" d="M78.77,257.91a9,9,0,1,1,10,10.35"/><line class="cls-8" x1="545.87" y1="116.96" x2="545.87" y2="132.69"/><line class="cls-8" x1="532.25" y1="132.69" x2="559.49" y2="132.69"/><line class="cls-8" x1="560.22" y1="60.72" x2="563.94" y2="60.72"/><path class="cls-7" d="M566.67,64.58a4.5,4.5,0,1,1,6.8-3.86A4.5,4.5,0,0,1,566.67,64.58Z"/><polyline class="cls-8" points="582.59 68.75 582.59 116.97 509.15 116.97 509.15 60.72"/><polygon class="cls-5" points="576.61 70.5 582.59 60.14 588.57 70.5 576.61 70.5"/><line class="cls-8" x1="509.62" y1="105.04" x2="582.59" y2="105.04"/><rect class="cls-8" x="515.32" y="55.85" width="38.81" height="39.01"/><polyline class="cls-8" points="541.19 72.72 547.46 78.99 541.19 85.26"/><polyline class="cls-8" points="527.9 85.26 521.63 78.99 527.9 72.72"/><line class="cls-8" x1="536.91" y1="71.31" x2="532.33" y2="88.17"/><line class="cls-8" x1="515.32" y1="65.52" x2="553.47" y2="65.52"/><line class="cls-8" x1="520.09" y1="60.72" x2="522.03" y2="60.72"/><rect class="cls-6" x="533.03" y="529.56" width="26.81" height="38.88"/><polygon class="cls-10" points="528.13 604.15 522.92 604.15 533.03 568.43 559.84 568.43 528.13 604.15"/><polygon class="cls-10" points="564.74 604.15 569.95 604.15 559.84 568.43 533.03 568.43 564.74 604.15"/><line class="cls-6" x1="523.23" y1="529.78" x2="570.98" y2="529.78"/><path class="cls-7" d="M520.49,533.64a4.5,4.5,0,0,0,0-7.73h0a4.5,4.5,0,1,0,0,7.73Z"/><polygon class="cls-5" points="569.23 535.76 579.59 529.78 569.23 523.79 569.23 535.76"/><line class="cls-6" x1="523.23" y1="556.54" x2="570.98" y2="556.54"/><path class="cls-7" d="M520.49,560.4a4.5,4.5,0,0,0,0-7.73h0a4.5,4.5,0,0,0-6.8,3.87h0A4.49,4.49,0,0,0,520.49,560.4Z"/><polygon class="cls-5" points="569.23 562.52 579.59 556.54 569.23 550.55 569.23 562.52"/><polyline class="cls-6" points="533.03 556.98 559.84 529.56 546.44 520.67 533.03 529.56 559.84 556.98"/><path class="cls-6" d="M961,114.72a22.62,22.62,0,0,0,5.28,1.91l2.45-3.26a19.25,19.25,0,0,0,3.57.17,20.42,20.42,0,0,0,3.53-.5l2.76,3a22.45,22.45,0,0,0,5.07-2.4l-.56-4a19.42,19.42,0,0,0,4.79-5.27l4,.19a22.88,22.88,0,0,0,1.88-5.34l-3.18-2.4a20.42,20.42,0,0,0,.17-3.33h0s0-.08,0-.12v-.12h0a19.89,19.89,0,0,0-.49-3.3l3-2.69a23.25,23.25,0,0,0-2.37-5.13l-4,.56a19.38,19.38,0,0,0-5.26-4.79l.18-4.07a23.08,23.08,0,0,0-5.28-1.91L974,75.17a19.25,19.25,0,0,0-3.57-.17,20.42,20.42,0,0,0-3.53.5l-2.76-3a22.89,22.89,0,0,0-5.07,2.4l.56,4a19.24,19.24,0,0,0-4.79,5.26l-4-.18A22.64,22.64,0,0,0,949,89.33l3.18,2.4a21.6,21.6,0,0,0-.17,3.33h0s0,.08,0,.12v.12h0a19.89,19.89,0,0,0,.49,3.3l-3,2.69a23.25,23.25,0,0,0,2.37,5.13"/><circle class="cls-6" cx="971.5" cy="94.26" r="11.74"/><line class="cls-6" x1="963.85" y1="103.12" x2="952.93" y2="114.05"/><path class="cls-6" d="M947.42,68.19a35.49,35.49,0,0,1,47.8-.33"/><polygon class="cls-5" points="953.19 70.95 941.85 74.75 944.23 63.03 953.19 70.95"/><path class="cls-7" d="M993.88,72.55h0a4.5,4.5,0,0,1,5.91-5h0a4.5,4.5,0,1,1-5.91,5Z"/><path class="cls-6" d="M1006.16,86.53a35.58,35.58,0,0,1-23.75,41.53"/><polygon class="cls-5" points="1000.82 90.13 1003.27 78.42 1012.19 86.4 1000.82 90.13"/><path class="cls-7" d="M979,124.52h0a4.5,4.5,0,1,1-6,5A4.5,4.5,0,0,1,979,124.52Z"/><path class="cls-6" d="M960.3,128a35.57,35.57,0,0,1-23.57-40.91"/><polygon class="cls-5" points="959.92 121.59 968.75 129.66 957.34 133.27 959.92 121.59"/><path class="cls-7" d="M941.47,85.85h0a4.5,4.5,0,0,1-7.28-2.61h0a4.51,4.51,0,0,1,5.94-5.1h0A4.5,4.5,0,0,1,941.47,85.85Z"/><path class="cls-6" d="M994.05,269.15a23,23,0,0,0,0-8.44l3.67-3a27,27,0,0,0-2.61-6.19l-4.71.44a23.39,23.39,0,0,0-2.52-3.06h0l-.11-.1-.09-.1h0a23.31,23.31,0,0,0-3.06-2.51l.43-4.71a26.76,26.76,0,0,0-6.18-2.62h-1.82"/><polygon class="cls-5" points="978.81 232.83 968.45 238.81 978.81 244.8 978.81 232.83"/><path class="cls-6" d="M949,260.9a23.53,23.53,0,0,0,0,8.45l-3.67,3a27.24,27.24,0,0,0,2.61,6.19l4.72-.44a23.31,23.31,0,0,0,2.51,3.06h0l.1.09.1.11h0a24.23,24.23,0,0,0,3.07,2.51l-.44,4.71a26.76,26.76,0,0,0,6.18,2.62h1.28"/><polygon class="cls-5" points="963.65 297.22 974.02 291.25 963.66 285.25 963.65 297.22"/><circle class="cls-6" cx="971.51" cy="265.03" r="12.8"/><circle class="cls-6" cx="948.5" cy="242.22" r="14.33"/><circle class="cls-6" cx="994.51" cy="287.83" r="14.33"/><path class="cls-6" d="M946.9,249.41h-2a1.6,1.6,0,0,1-1.6-1.6v-3.39a2.83,2.83,0,0,0-2.2-2.2h0a2.81,2.81,0,0,0,2.2-2.2v-3.39a1.6,1.6,0,0,1,1.6-1.6h2"/><path class="cls-6" d="M949.4,249.41h2a1.59,1.59,0,0,0,1.6-1.6v-3.39a2.83,2.83,0,0,1,2.2-2.2h0A2.81,2.81,0,0,1,953,240v-3.39a1.6,1.6,0,0,0-1.6-1.6h-2"/><polyline class="cls-6" points="991.05 281.04 986.01 287.83 991.05 294.62"/><polyline class="cls-6" points="999.28 281.04 1004.32 287.83 999.28 294.62"/><line class="cls-6" x1="996.22" y1="280.14" x2="994.17" y2="295.52"/><polyline class="cls-6" points="561.09 298.13 561.09 290.91 574.46 284.92 574.46 273.86"/><path class="cls-7" d="M576,272.76a1.8,1.8,0,1,1-1.55-2.72A1.81,1.81,0,0,1,576,272.76Z"/><path class="cls-6" d="M570.51,224.43H532.19a14.36,14.36,0,0,0-14.36,14.36v8.27c0,7.73-6.39,16.23-9.62,19.64l1.11,1h10.25l-.15,23.17h16.82v7.28"/><polygon class="cls-5" points="568.76 218.45 579.12 224.44 568.76 230.42 568.76 218.45"/><line class="cls-6" x1="519.49" y1="278.86" x2="529.48" y2="278.86"/><path class="cls-6" d="M531.26,260c-.09-.45-.15-.92-.2-1.39a13.18,13.18,0,0,1,0-4.1,19.21,19.21,0,0,1,16.21-16.94l-7.33,20.16h6.45l-4.61,14.38,18.55-19.92h-9L558,239a19.26,19.26,0,0,1,11.28,15.5,15.8,15.8,0,0,1,0,4.1,19.24,19.24,0,0,1-10.7,15.23"/><polygon class="cls-5" points="536.48 256.11 534.66 267.93 525.33 260.45 536.48 256.11"/><polygon class="cls-5" points="558.61 267.32 550.16 275.78 561.72 278.87 558.61 267.32"/><line class="cls-6" x1="530.9" y1="304.06" x2="565.95" y2="304.06"/><line class="cls-6" x1="536.85" y1="311.36" x2="560" y2="311.36"/></g></svg>