<svg id="Layer_1" data-name="Layer 1" xmlns="http://www.w3.org/2000/svg" viewBox="0 0 689.56 445.7"><defs><style>.cls-1,.cls-2{fill:none;}.cls-1{stroke:#061838;stroke-miterlimit:10;}.cls-3{fill:#64b5f6;}.cls-4{fill:#90caf9;}.cls-5{fill:#1e88e5;}.cls-6{fill:#2196f3;}.cls-7{fill:#42a5f5;}.cls-8{fill:#061838;}.cls-9{fill:#fff;}</style></defs><title>Artboard 1</title><polyline class="cls-1" points="344.57 75.94 414.81 26.7 688.31 26.7"/><polyline class="cls-1" points="429.31 338.25 478.45 395.94 688.31 395.94"/><polyline class="cls-1" points="258.31 337.4 211.11 395.94 1.25 395.94"/><line class="cls-1" x1="481.06" y1="176.94" x2="688.31" y2="176.94"/><line class="cls-1" x1="1.25" y1="175.71" x2="208.5" y2="175.71"/><polyline class="cls-1" points="344.99 76.23 274.75 27 1.25 27"/><polygon class="cls-2" points="344.57 105.51 234.51 185.47 276.55 314.85 412.58 314.85 454.62 185.47 344.57 105.51"/><polygon class="cls-3" points="415.52 197.02 483.16 176.94 344.54 75.5 344.57 145.47 415.52 197.02"/><polygon class="cls-4" points="388.42 280.43 429.98 339.12 483.16 176.94 415.52 197.02 388.42 280.43"/><polygon class="cls-5" points="258.66 338.37 429.98 339.12 388.42 280.43 300.71 280.43 258.66 338.37"/><polygon class="cls-6" points="205.97 175.71 273.61 197.02 300.71 280.43 258.66 338.37 205.97 175.71"/><polygon class="cls-7" points="205.97 175.71 273.61 197.02 344.57 145.47 344.54 75.5 205.97 175.71"/><polygon class="cls-8" points="344.57 143.22 271.48 196.32 299.39 282.25 389.74 282.25 417.65 196.32 344.57 143.22"/><path class="cls-9" d="M331,196.1v3.53q0,3.17-3.16,3.16h-.64q-3.17,0-3.16-3.16v-11c0-2.12,1-3.17,3.16-3.17h.64c2.09,0,3.11,1,3.11,3.12v3.06h-1.9v-3.11a1.12,1.12,0,0,0-1.29-1.29h-.48a1.12,1.12,0,0,0-1.29,1.29v11.19a1.12,1.12,0,0,0,1.29,1.29h.53a1.12,1.12,0,0,0,1.29-1.29V196.1Z"/><path class="cls-9" d="M334.65,185.61v15.23h3.21v1.8H332.7v-17Z"/><path class="cls-9" d="M341.27,202.64h-1.95v-17h1.95Z"/><path class="cls-9" d="M348.5,185.61v1.8h-3.41v5.64h3.28v1.78h-3.28v6h3.45v1.8h-5.4v-17Z"/><path class="cls-9" d="M352,189.31v13.33h-1.85v-17h2.68l2.82,12.29V185.61h1.85v17h-2.43Z"/><path class="cls-9" d="M361.22,202.64V187.41h-2.55v-1.8h7.06v1.8h-2.56v15.23Z"/><path class="cls-9" d="M322,209.61h3.21c2.55,0,3.77,1.21,3.77,3.77v9.49c0,2.56-1.22,3.77-3.77,3.77H322ZM324,224.87h1.17c1.32,0,1.92-.66,1.92-2v-9.54c0-1.32-.6-2-1.92-2H324Z"/><path class="cls-9" d="M332.76,226.64h-1.94v-17h1.94Z"/><path class="cls-9" d="M338.17,219.37v-1.78h3.48v6c0,2.11-1,3.16-3.17,3.16h-.73c-2.12,0-3.16-1-3.16-3.16v-11c0-2.12,1-3.17,3.16-3.17h.73c2.1,0,3.12,1,3.12,3.12v2.33h-1.9v-2.38a1.12,1.12,0,0,0-1.29-1.29h-.58a1.12,1.12,0,0,0-1.29,1.29v11.19a1.12,1.12,0,0,0,1.29,1.29h.63a1.13,1.13,0,0,0,1.29-1.29v-4.35Z"/><path class="cls-9" d="M345.37,226.64h-1.95v-17h1.95Z"/><path class="cls-9" d="M349.12,226.64V211.41h-2.56v-1.8h7.06v1.8h-2.56v15.23Z"/><path class="cls-9" d="M359.12,226.64l-.42-2.84h-3.13l-.39,2.84H353.3l2.63-17.08h2.48L361,226.64Zm-3.31-4.6h2.65l-1.34-9.44Z"/><path class="cls-9" d="M364.33,209.61v15.23h3.21v1.8h-5.16v-17Z"/><path class="cls-9" d="M321.46,247.48c0,2.12-1,3.16-3.16,3.16h-1.2v-1.8h1.07a1.18,1.18,0,0,0,1.34-1.34V233.61h1.95Z"/><path class="cls-9" d="M327.13,250.79h-.73c-2.12,0-3.16-1-3.16-3.16v-11c0-2.11,1-3.16,3.16-3.16h.73c2.12,0,3.16,1,3.16,3.16v11C330.29,249.74,329.25,250.79,327.13,250.79Zm-.07-15.55h-.59a1.13,1.13,0,0,0-1.29,1.29v11.19a1.13,1.13,0,0,0,1.29,1.29h.59a1.13,1.13,0,0,0,1.29-1.29V236.53A1.13,1.13,0,0,0,327.06,235.24Z"/><path class="cls-9" d="M339,247.63c0,2.11-1.05,3.16-3.17,3.16h-.61q-3.17,0-3.16-3.16v-14H334v14.11a1.12,1.12,0,0,0,1.29,1.29h.46a1.12,1.12,0,0,0,1.29-1.29V233.61H339Z"/><path class="cls-9" d="M347.65,244.9v5.74H345.7V245c0-1-.46-1.48-1.49-1.48h-1.43v7.15h-1.95v-17h3.63c2.11,0,3.16,1,3.16,3.16v3.16c0,1.54-.53,2.29-1.51,2.68C347.18,242.9,347.65,243.59,347.65,244.9Zm-3.27-9.52h-1.6v6.38h1.46a1.25,1.25,0,0,0,1.43-1.44v-3.65A1.13,1.13,0,0,0,344.38,235.38Z"/><path class="cls-9" d="M351.3,237.31v13.33h-1.85v-17h2.67L355,245.9V233.61h1.85v17h-2.44Z"/><path class="cls-9" d="M364,233.61v1.8h-3.41v5.64h3.29v1.78h-3.29v6h3.46v1.8h-5.41v-17Z"/><path class="cls-9" d="M369.52,244.68v6h-1.94v-5.81l-2.75-11.22h2l1.73,8.34,1.8-8.34h1.92Z"/><path d="M260.91,165.94l-3.32,2.35,1.83,2.59,3.71-2.63.94,1.32-5.32,3.77-6.24-8.81,5.12-3.62.94,1.31-3.51,2.49,1.61,2.28,3.31-2.35Z"/><path d="M270.19,165.23,268,164.16c-.86-.41-1.45-.71-2.05-1l0,0c.15.65.25,1.29.38,2.22l.36,2.37-1.84,1.31-.54-6.31-5.59-2.57,1.84-1.31,2.24,1.14c.67.35,1.19.63,1.77,1l0,0c-.15-.71-.25-1.23-.35-2l-.35-2.48,1.84-1.3.47,6.12,5.87,2.61Z"/><path d="M267.08,154.39a17.45,17.45,0,0,1,2.32-1.92,4.87,4.87,0,0,1,3.11-1.12,3,3,0,0,1,2.24,1.33,3.31,3.31,0,0,1,.66,2.54,4.79,4.79,0,0,1-2.12,2.91,5.65,5.65,0,0,1-.82.5l2.35,3.32-1.59,1.13Zm4.5,3a4.39,4.39,0,0,0,.83-.49c1.2-.86,1.51-2,.78-3s-1.74-1-2.85-.24a5.25,5.25,0,0,0-.87.74Z"/><path d="M282.69,150.52l-3.32,2.35,1.83,2.58,3.71-2.63.93,1.32-5.31,3.77-6.24-8.8,5.12-3.63.94,1.32-3.52,2.49,1.61,2.27,3.32-2.35Z"/><path d="M281.1,144.46a18.15,18.15,0,0,1,2.3-1.9,5,5,0,0,1,3.21-1.22,2.74,2.74,0,0,1,2,1.22,2.87,2.87,0,0,1,0,3.34l0,0a2.75,2.75,0,0,1,2.43.83,21.85,21.85,0,0,0,2.43,2l-1.66,1.18a16.17,16.17,0,0,1-2.06-1.66c-1.06-1-1.74-1.05-2.67-.42l-.81.57,2.56,3.62-1.59,1.13Zm4.35,2.76.95-.67c1.09-.77,1.36-1.83.74-2.7s-1.68-.93-2.72-.19a5.73,5.73,0,0,0-.94.78Z"/><path d="M290.05,137.94l6.24,8.81-1.61,1.13-6.24-8.8Z"/><path d="M300.28,138.05,297,140.4,298.8,143l3.71-2.62.93,1.32-5.31,3.76-6.24-8.8L297,133l.94,1.32-3.52,2.49,1.61,2.27,3.32-2.35Z"/><path d="M304.85,140.68l-6.24-8.8,1.83-1.3,4.95,2.17a30.2,30.2,0,0,1,3.59,1.88l0,0c-.94-1.1-1.78-2.21-2.73-3.55L304.1,128l1.49-1.06,6.24,8.81-1.66,1.17-5-2.24a35.54,35.54,0,0,1-3.74-1.92l0,0c.87,1.09,1.71,2.24,2.74,3.7l2.23,3.14Z"/><path d="M319.8,129.7a7,7,0,0,1-2,2c-2.8,2-5.74,1.43-7.64-1.25a5.43,5.43,0,0,1,1.41-8,6.18,6.18,0,0,1,2.42-1.12l.56,1.53a5.15,5.15,0,0,0-2,.88c-1.79,1.27-2.28,3.31-.79,5.42a3.55,3.55,0,0,0,5.32,1,5.31,5.31,0,0,0,1.52-1.57Z"/><path d="M323.51,121.59,320.19,124l1.84,2.58,3.71-2.63.93,1.32L321.35,129l-6.23-8.81,5.12-3.62.93,1.32-3.51,2.49,1.61,2.27,3.32-2.35Z"/><path d="M378.83,125.44l-6.28,8.77-1.6-1.14,6.28-8.77Z"/><path d="M374.39,135.53l6.27-8.78,1.83,1.31-.43,5.38a28.79,28.79,0,0,1-.61,4l0,0c.73-1.25,1.5-2.41,2.46-3.75l2.19-3.06,1.49,1.07-6.28,8.77-1.65-1.18.46-5.5a37.53,37.53,0,0,1,.6-4.16h-.05c-.75,1.18-1.56,2.35-2.6,3.79l-2.24,3.14Z"/><path d="M384.39,140.05a5.52,5.52,0,0,0,1.72,2.08c1,.73,1.95.66,2.46-.06s.31-1.37-.52-2.57c-1.07-1.56-1.44-3-.54-4.25,1-1.43,3-1.67,4.9-.31a5.76,5.76,0,0,1,1.8,1.95l-1.31,1a4.72,4.72,0,0,0-1.45-1.66c-1-.73-1.85-.5-2.21,0-.49.68-.2,1.35.64,2.65,1.11,1.66,1.31,3,.4,4.22-1,1.41-2.95,1.87-5.21.25a6.6,6.6,0,0,1-2-2.25Z"/><path d="M397.82,139l-6.28,8.78-1.6-1.15,6.27-8.77Z"/><path d="M400.69,153.74a10.84,10.84,0,0,1-3.18-1.53,5.84,5.84,0,0,1-2.6-3.63,5.38,5.38,0,0,1,1.09-4.11c2-2.77,5.24-3.14,8.14-1.06a7.11,7.11,0,0,1,2,2.08l-1.27,1a5.84,5.84,0,0,0-1.72-1.8,3.61,3.61,0,0,0-5.45.87,3.57,3.57,0,0,0,.78,5.35,3.9,3.9,0,0,0,1.34.69l1.56-2.19-1.55-1.11.91-1.26,3.1,2.22Z"/><path d="M409.92,147.68l-2.52,3.52,3.71,2.65,2.52-3.51,1.6,1.14L409,160.26l-1.6-1.15,2.77-3.87-3.71-2.65-2.77,3.87-1.6-1.15,6.28-8.77Z"/><path d="M417.78,155.33l-2.5-1.78,1-1.34,6.63,4.74-1,1.34-2.53-1.81-5.32,7.43-1.6-1.14Z"/><path d="M418.4,279.32l10.3,3.2-.58,1.88-10.3-3.2Z"/><path d="M429.37,280.36l-10.3-3.2.66-2.14,5.25-1.28a28.68,28.68,0,0,1,4-.69v0c-1.42-.3-2.76-.67-4.34-1.16l-3.59-1.12.54-1.74,10.3,3.2-.6,1.94-5.36,1.29a38.14,38.14,0,0,1-4.13.74v.05c1.35.34,2.72.74,4.41,1.27l3.69,1.15Z"/><path d="M432.58,270l-10.3-3.2.66-2.14,5.24-1.28a28.81,28.81,0,0,1,4-.69v0c-1.42-.3-2.76-.67-4.34-1.16l-3.59-1.12.54-1.74,10.3,3.2-.6,1.94-5.36,1.29a37.88,37.88,0,0,1-4.14.74v.05c1.35.34,2.71.75,4.41,1.27l3.68,1.15Z"/><path d="M433.37,248.93c3.45,1.07,4.77,3.78,3.89,6.62s-3.69,4.05-6.71,3.11c-3.17-1-4.78-3.66-3.88-6.56S430.43,248,433.37,248.93Zm-2.24,7.74c2.1.65,4.09.11,4.65-1.69s-.8-3.37-2.95-4c-1.94-.6-4.08-.21-4.66,1.67S429,256,431.13,256.67Z"/><path d="M439.84,246.64l-11.33.13.63-2.05,5.12.05c1.42,0,2.73,0,4.07.16v0c-1.14-.66-2.28-1.41-3.4-2.21l-4.24-3,.62-2,9.19,6.77Z"/><path d="M439.43,237.68l2.64,1.79-.6,1.95-9.28-6.51.75-2.4,11.34-.14-.63,2-3.21,0Zm-.51-3.39-2.79,0c-.69,0-1.44-.05-2.09-.08v0c.54.34,1.22.72,1.77,1.09l2.29,1.58Z"/><path d="M436.22,227.49l-.91,2.93-1.57-.49,2.41-7.78,1.58.49-.92,3,8.73,2.71L445,230.2Z"/><path d="M444.05,217l-1.21,3.88,3,.94,1.35-4.34,1.54.48-1.93,6.22-10.3-3.2,1.86-6,1.54.48-1.27,4.11,2.66.82,1.2-3.88Z"/><path d="M300.61,316.48l-.93,3h-2l3.46-10.78h2.51l3.51,10.78H305l-1-3ZM303.7,315l-.85-2.66c-.21-.65-.39-1.39-.55-2h0c-.16.62-.32,1.37-.51,2l-.83,2.66Z"/><path d="M316,319.21a6.86,6.86,0,0,1-2.79.48c-3.42,0-5.51-2.14-5.51-5.42a5.43,5.43,0,0,1,5.77-5.7,6.16,6.16,0,0,1,2.62.48l-.43,1.57a5.31,5.31,0,0,0-2.11-.42c-2.2,0-3.78,1.38-3.78,4a3.54,3.54,0,0,0,3.76,3.89,5.57,5.57,0,0,0,2.15-.4Z"/><path d="M325,319.21a6.86,6.86,0,0,1-2.79.48c-3.42,0-5.5-2.14-5.5-5.42a5.43,5.43,0,0,1,5.76-5.7,6.13,6.13,0,0,1,2.62.48l-.43,1.57a5.27,5.27,0,0,0-2.11-.42c-2.19,0-3.78,1.38-3.78,4a3.54,3.54,0,0,0,3.76,3.89,5.53,5.53,0,0,0,2.15-.4Z"/><path d="M332.72,314.75h-4.07v3.17h4.55v1.61h-6.51V308.75H333v1.61h-4.31v2.79h4.07Z"/><path d="M334.93,308.75h2v9.14h4.44v1.64h-6.4Z"/><path d="M348.85,314.75h-4.07v3.17h4.55v1.61h-6.52V308.75h6.28v1.61h-4.31v2.79h4.07Z"/><path d="M351.05,308.89a18.56,18.56,0,0,1,3-.22,5,5,0,0,1,3.33.86,2.75,2.75,0,0,1,.93,2.16,2.9,2.9,0,0,1-2,2.71v0a2.78,2.78,0,0,1,1.5,2.09,20.89,20.89,0,0,0,.85,3h-2a14.87,14.87,0,0,1-.72-2.54c-.31-1.41-.82-1.86-1.94-1.89h-1v4.43h-2Zm2,4.77h1.16c1.33,0,2.17-.7,2.17-1.78s-.84-1.73-2.12-1.73a5.39,5.39,0,0,0-1.21.1Z"/><path d="M362.43,316.48l-.93,3h-2l3.46-10.78h2.51L369,319.53h-2.12l-1-3Zm3.09-1.49-.85-2.66c-.21-.65-.38-1.39-.54-2h0c-.16.62-.31,1.37-.51,2l-.83,2.66Z"/><path d="M371.21,310.4h-3.07v-1.65h8.15v1.65h-3.11v9.13h-2Z"/><path d="M383.58,314.75h-4.06v3.17h4.54v1.61h-6.51V308.75h6.27v1.61h-4.3v2.79h4.06Z"/><path d="M245.61,227.08l-3.19.17-.69-1.91,11.32-.44.86,2.37-8.94,7-.73-2,2.54-2Zm2.46,2.39,2.21-1.7c.54-.42,1.17-.84,1.71-1.2l0,0c-.64.06-1.4.17-2.07.2l-2.78.13Z"/><path d="M247.48,234.88a5.44,5.44,0,0,0,.24,2.68c.43,1.19,1.23,1.65,2.06,1.35s1-.95,1-2.42c0-1.88.49-3.27,1.95-3.8,1.66-.61,3.42.32,4.22,2.51a5.69,5.69,0,0,1,.37,2.63l-1.65.09a4.67,4.67,0,0,0-.25-2.19c-.43-1.18-1.24-1.46-1.83-1.24-.78.28-.93,1-1,2.54,0,2-.59,3.18-2.05,3.71-1.63.59-3.49-.13-4.44-2.74a6.38,6.38,0,0,1-.36-3Z"/><path d="M250.31,242.68a5.38,5.38,0,0,0,.25,2.69c.43,1.19,1.23,1.65,2.05,1.35s1-1,1-2.42c0-1.89.5-3.28,2-3.81,1.65-.6,3.42.32,4.21,2.52a5.7,5.7,0,0,1,.38,2.62l-1.65.09a4.58,4.58,0,0,0-.26-2.19c-.42-1.17-1.24-1.45-1.83-1.24-.78.28-.93,1-1,2.55,0,2-.6,3.18-2.06,3.71-1.62.59-3.49-.13-4.44-2.75a6.37,6.37,0,0,1-.36-3Z"/><path d="M262,249.41,256,251.56c-2,.72-2.6,1.88-2.15,3.13s1.7,1.81,3.68,1.09l5.92-2.15.67,1.85-5.79,2.1c-3.13,1.14-5.1,0-6-2.41s-.09-4.34,3.1-5.5l5.8-2.11Z"/><path d="M264.79,257.65a18.53,18.53,0,0,1,1.23,2.72,5,5,0,0,1,.32,3.42,2.69,2.69,0,0,1-1.71,1.61,2.87,2.87,0,0,1-3.21-.91l-.05,0a2.7,2.7,0,0,1-1.44,2.12,21.55,21.55,0,0,0-2.54,1.83l-.69-1.92a16.25,16.25,0,0,1,2.15-1.54c1.22-.77,1.46-1.4,1.11-2.47l-.34-.93-4.17,1.51-.66-1.83ZM261,261.11l.4,1.1c.46,1.25,1.4,1.79,2.41,1.42s1.34-1.37.9-2.57a5.87,5.87,0,0,0-.5-1.12Z"/><path d="M264.45,273.87l-1.38-3.82-3,1.08,1.55,4.28-1.52.55-2.22-6.12L268,266.15l2.14,5.9-1.52.55-1.47-4.05-2.62,1,1.39,3.82Z"/><path d="M491.21,68.11l-.84,2.54H489.3L492,62.57h1.26l2.76,8.08h-1.12l-.86-2.54Zm2.65-.81L493.07,65c-.18-.53-.3-1-.42-1.48h0c-.12.48-.25,1-.41,1.47l-.79,2.34Z"/><path d="M497.18,66.42c0-.6,0-1.09-.05-1.57h.94l.06,1h0a2.14,2.14,0,0,1,1.92-1.09c.8,0,2.05.48,2.05,2.47v3.46h-1.06V67.31c0-.94-.34-1.72-1.34-1.72a1.5,1.5,0,0,0-1.41,1.08,1.44,1.44,0,0,0-.08.49v3.49h-1.05Z"/><path d="M507.05,70.65l-.08-.73h0a2.14,2.14,0,0,1-1.77.87,1.66,1.66,0,0,1-1.78-1.67c0-1.4,1.25-2.17,3.49-2.16v-.12a1.19,1.19,0,0,0-1.32-1.34,2.84,2.84,0,0,0-1.51.43l-.24-.7a3.63,3.63,0,0,1,1.91-.51c1.78,0,2.21,1.21,2.21,2.37v2.17a8.32,8.32,0,0,0,.09,1.39Zm-.15-3c-1.15,0-2.46.18-2.46,1.31a.93.93,0,0,0,1,1,1.45,1.45,0,0,0,1.41-1,1.2,1.2,0,0,0,.06-.33Z"/><path d="M509.62,62.14h1.06v8.51h-1.06Z"/><path d="M512.84,64.85l1.27,3.43c.13.38.28.84.37,1.19h0c.1-.35.22-.8.37-1.21L516,64.85h1.11L515.56,69c-.75,2-1.27,3-2,3.63a2.75,2.75,0,0,1-1.29.68l-.27-.88a2.85,2.85,0,0,0,.93-.52,3.27,3.27,0,0,0,.88-1.17.8.8,0,0,0,.09-.26.9.9,0,0,0-.08-.27l-2.14-5.35Z"/><path d="M519.38,63.18v1.67h1.51v.8h-1.51v3.13c0,.72.2,1.13.79,1.13a2.6,2.6,0,0,0,.61-.07l.05.79a2.69,2.69,0,0,1-.94.14,1.47,1.47,0,0,1-1.14-.44,2.15,2.15,0,0,1-.4-1.51V65.65h-.9v-.8h.9V63.46Z"/><path d="M523.25,63.22a.62.62,0,0,1-.67.65.63.63,0,0,1-.63-.65.64.64,0,0,1,.66-.66A.62.62,0,0,1,523.25,63.22Zm-1.17,7.43v-5.8h1v5.8Z"/><path d="M529,70.44a4,4,0,0,1-1.67.33,2.75,2.75,0,0,1-2.89-3,2.94,2.94,0,0,1,3.12-3.08,3.44,3.44,0,0,1,1.46.3l-.24.81a2.5,2.5,0,0,0-1.22-.27,2.18,2.18,0,0,0,0,4.36,3.07,3.07,0,0,0,1.3-.28Z"/><path d="M530.12,69.57a2.69,2.69,0,0,0,1.39.42c.77,0,1.13-.38,1.13-.86s-.3-.78-1.08-1.07c-1-.37-1.54-.94-1.54-1.64a1.8,1.8,0,0,1,2-1.7,2.79,2.79,0,0,1,1.42.36l-.26.76a2.32,2.32,0,0,0-1.19-.33c-.62,0-1,.36-1,.79s.35.7,1.1,1c1,.39,1.53.89,1.53,1.75,0,1-.79,1.74-2.17,1.74a3.27,3.27,0,0,1-1.63-.39Z"/><path d="M540,67v.78h-3V67Z"/><path d="M544.87,62.57V66h3.91V62.57h1.05v8.08h-1.05V66.86h-3.91v3.79h-1V62.57Z"/><path d="M557.3,70.39a5.25,5.25,0,0,1-2.14.38,3.77,3.77,0,0,1-4-4.09,4,4,0,0,1,4.22-4.24,4.26,4.26,0,0,1,1.92.36l-.25.85a3.84,3.84,0,0,0-1.63-.34,3,3,0,0,0-3.16,3.34,2.94,2.94,0,0,0,3.11,3.25,4.08,4.08,0,0,0,1.7-.34Z"/><path d="M558.61,62.67a11.33,11.33,0,0,1,2-.16,3.34,3.34,0,0,1,2.27.67,2.19,2.19,0,0,1,.7,1.69A2.38,2.38,0,0,1,563,66.6a3.34,3.34,0,0,1-2.47.89,3.61,3.61,0,0,1-.84-.07v3.23h-1Zm1,3.89a3.49,3.49,0,0,0,.86.09c1.26,0,2-.61,2-1.73s-.75-1.58-1.91-1.58a4.32,4.32,0,0,0-1,.08Z"/><path d="M567.41,69.44a3.57,3.57,0,0,0,1.73.49c1.36,0,1.78-.86,1.76-1.51,0-1.09-1-1.56-2-1.56h-.59v-.79h.59c.77,0,1.74-.39,1.74-1.32,0-.62-.4-1.17-1.37-1.17a2.89,2.89,0,0,0-1.56.51l-.27-.76a3.69,3.69,0,0,1,2-.6c1.53,0,2.23.91,2.23,1.86a1.94,1.94,0,0,1-1.44,1.83v0a2,2,0,0,1,1.74,2c0,1.24-1,2.34-2.85,2.34a4,4,0,0,1-2-.53Z"/><path d="M577.77,63.6a3.8,3.8,0,0,0-.79,0,3.17,3.17,0,0,0-2.71,2.77h0A2.38,2.38,0,0,1,578.54,68,2.61,2.61,0,0,1,576,70.79c-1.67,0-2.76-1.3-2.76-3.33A4.89,4.89,0,0,1,574.51,64,4.19,4.19,0,0,1,577,62.8a4.84,4.84,0,0,1,.77-.06Zm-.3,4.5a1.59,1.59,0,0,0-1.61-1.79,1.75,1.75,0,0,0-1.51,1,.93.93,0,0,0-.12.47c0,1.28.61,2.23,1.72,2.23C576.86,70,577.47,69.22,577.47,68.1Z"/><path d="M584.66,66.67c0,2.65-1,4.12-2.71,4.12-1.53,0-2.56-1.43-2.58-4s1.12-4.05,2.71-4.05S584.66,64.19,584.66,66.67Zm-4.24.12c0,2,.63,3.18,1.59,3.18s1.59-1.26,1.59-3.25-.49-3.18-1.58-3.18C581.09,63.54,580.42,64.67,580.42,66.79Z"/><path d="M589.89,70.65l-2.64-8.08h1.13l1.26,4c.35,1.09.64,2.08.86,3h0c.22-.93.56-1.95.92-3l1.37-4h1.11L591,70.65Z"/><path d="M595.76,63.22a.66.66,0,0,1-1.31,0,.65.65,0,0,1,.66-.66A.63.63,0,0,1,595.76,63.22Zm-1.18,7.43v-5.8h1.06v5.8Z"/><path d="M598,67.94a1.86,1.86,0,0,0,2,2,3.83,3.83,0,0,0,1.61-.3l.18.75a4.72,4.72,0,0,1-1.94.36A2.69,2.69,0,0,1,597,67.85c0-1.75,1-3.13,2.72-3.13a2.45,2.45,0,0,1,2.4,2.73,4.49,4.49,0,0,1,0,.49Zm3.09-.75a1.5,1.5,0,0,0-1.46-1.72A1.75,1.75,0,0,0,598,67.19Z"/><path d="M603.82,64.85l.77,3c.17.65.32,1.25.43,1.85h0c.13-.59.32-1.21.51-1.84l.95-3h.89l.9,2.9c.21.7.38,1.31.51,1.9h0a16.78,16.78,0,0,1,.44-1.89l.83-2.91h1l-1.87,5.8h-1l-.88-2.77a16.58,16.58,0,0,1-.52-1.9h0c-.15.69-.33,1.29-.53,1.92l-.94,2.75h-1l-1.75-5.8Z"/><path d="M491.21,86.11l-.84,2.54H489.3L492,80.57h1.26l2.76,8.08h-1.12l-.86-2.54Zm2.65-.81L493.07,83c-.18-.53-.3-1-.42-1.48h0c-.12.48-.25,1-.41,1.47l-.79,2.34Z"/><path d="M498.29,80.57v8.08h-1V80.57Z"/><path d="M502.74,88.65v-5h-.82v-.8h.82v-.28a2.68,2.68,0,0,1,.67-2,2,2,0,0,1,1.41-.54,2.55,2.55,0,0,1,.9.16l-.14.82a1.62,1.62,0,0,0-.67-.13c-.9,0-1.13.79-1.13,1.68v.31h1.4v.8h-1.4v5Z"/><path d="M511.23,85.7a2.84,2.84,0,0,1-2.89,3.09,2.76,2.76,0,0,1-2.78-3,2.83,2.83,0,0,1,2.87-3.08A2.75,2.75,0,0,1,511.23,85.7Zm-4.61.06c0,1.27.73,2.23,1.77,2.23s1.76-.94,1.76-2.25c0-1-.49-2.23-1.74-2.23S506.62,84.66,506.62,85.76Z"/><path d="M512.56,84.66c0-.68,0-1.27,0-1.81h.92l0,1.14h0a1.75,1.75,0,0,1,1.61-1.27,1.39,1.39,0,0,1,.3,0v1a1.32,1.32,0,0,0-.36,0,1.5,1.5,0,0,0-1.42,1.36,3.47,3.47,0,0,0,0,.49v3.09h-1.05Z"/><path d="M519.07,80.68a14.33,14.33,0,0,1,2.22-.17,4.64,4.64,0,0,1,3.27,1,3.71,3.71,0,0,1,1.14,2.9,4.28,4.28,0,0,1-1.16,3.14A5,5,0,0,1,521,88.73a16.58,16.58,0,0,1-1.89-.1Zm1,7.15a7.69,7.69,0,0,0,1.06.06,3.11,3.11,0,0,0,3.44-3.43c0-1.91-1.07-3.12-3.28-3.12a5.89,5.89,0,0,0-1.22.11Z"/><path d="M528.2,81.22a.66.66,0,0,1-1.31,0,.65.65,0,0,1,.66-.66A.63.63,0,0,1,528.2,81.22ZM527,88.65v-5.8h1.06v5.8Z"/><path d="M534.83,82.85c0,.42-.05.89-.05,1.59v3.37a3.37,3.37,0,0,1-.82,2.66,3.12,3.12,0,0,1-2.11.69,3.79,3.79,0,0,1-1.94-.48l.27-.8a3.25,3.25,0,0,0,1.7.45c1.08,0,1.87-.56,1.87-2v-.65h0a2.08,2.08,0,0,1-1.85,1,2.59,2.59,0,0,1-2.47-2.83A2.78,2.78,0,0,1,532,82.72a1.94,1.94,0,0,1,1.81,1h0l0-.87Zm-1.09,2.29a1.44,1.44,0,0,0-.06-.48,1.53,1.53,0,0,0-1.48-1.12c-1,0-1.72.86-1.72,2.2,0,1.14.57,2.09,1.71,2.09a1.55,1.55,0,0,0,1.47-1.08,1.87,1.87,0,0,0,.08-.57Z"/><path d="M537.64,81.22a.62.62,0,0,1-.67.65.63.63,0,0,1-.64-.65.65.65,0,0,1,.66-.66A.63.63,0,0,1,537.64,81.22Zm-1.17,7.43v-5.8h1v5.8Z"/><path d="M540.55,81.18v1.67h1.51v.8h-1.51v3.13c0,.72.2,1.13.79,1.13a2.68,2.68,0,0,0,.61-.07l0,.79a2.73,2.73,0,0,1-.94.14,1.45,1.45,0,0,1-1.14-.44,2.15,2.15,0,0,1-.41-1.51V83.65h-.9v-.8h.9V81.46Z"/><path d="M546.46,88.65l-.08-.73h0a2.15,2.15,0,0,1-1.77.87,1.66,1.66,0,0,1-1.78-1.67c0-1.4,1.25-2.17,3.49-2.16v-.12A1.19,1.19,0,0,0,545,83.5a2.84,2.84,0,0,0-1.51.43l-.24-.7a3.63,3.63,0,0,1,1.91-.51c1.77,0,2.2,1.21,2.2,2.37v2.17a8.24,8.24,0,0,0,.1,1.39Zm-.15-3c-1.16,0-2.46.18-2.46,1.31a.93.93,0,0,0,1,1,1.45,1.45,0,0,0,1.41-1,1.2,1.2,0,0,0,.06-.33Z"/><path d="M549,80.14h1.06v8.51H549Z"/><path d="M554.44,80.67a11.55,11.55,0,0,1,2-.16,3.31,3.31,0,0,1,2.26.67,2.16,2.16,0,0,1,.71,1.69,2.42,2.42,0,0,1-.62,1.73,3.35,3.35,0,0,1-2.47.89,3.56,3.56,0,0,1-.84-.07v3.23h-1Zm1,3.89a3.38,3.38,0,0,0,.86.09c1.26,0,2-.61,2-1.73s-.76-1.58-1.91-1.58a4.26,4.26,0,0,0-1,.08Z"/><path d="M560.73,80.14h1.06v8.51h-1.06Z"/><path d="M566.78,88.65l-.09-.73h0a2.17,2.17,0,0,1-1.78.87,1.65,1.65,0,0,1-1.77-1.67c0-1.4,1.24-2.17,3.49-2.16v-.12a1.19,1.19,0,0,0-1.32-1.34,2.81,2.81,0,0,0-1.51.43l-.24-.7a3.6,3.6,0,0,1,1.9-.51c1.78,0,2.21,1.21,2.21,2.37v2.17a7.31,7.31,0,0,0,.1,1.39Zm-.16-3c-1.15,0-2.46.18-2.46,1.31a.94.94,0,0,0,1,1,1.44,1.44,0,0,0,1.4-1,.92.92,0,0,0,.06-.33Z"/><path d="M569.35,84.42c0-.6,0-1.09-.05-1.57h.94l0,1h0a2.14,2.14,0,0,1,1.92-1.09c.8,0,2,.48,2,2.47v3.46h-1.06V85.31c0-.94-.34-1.72-1.34-1.72a1.5,1.5,0,0,0-1.42,1.08,1.75,1.75,0,0,0-.07.49v3.49h-1Z"/><path d="M577.23,81.18v1.67h1.51v.8h-1.51v3.13c0,.72.2,1.13.79,1.13a2.6,2.6,0,0,0,.61-.07l0,.79a2.67,2.67,0,0,1-.93.14,1.44,1.44,0,0,1-1.14-.44,2.15,2.15,0,0,1-.41-1.51V83.65h-.9v-.8h.9V81.46Z"/><path d="M491,98.57v8.08h-1V98.57Z"/><path d="M492.86,102.42c0-.6,0-1.09-.05-1.57h.94l.06,1h0a2.14,2.14,0,0,1,1.92-1.09c.8,0,2.05.48,2.05,2.47v3.46h-1.06v-3.34c0-.94-.34-1.72-1.34-1.72a1.5,1.5,0,0,0-1.41,1.08,1.44,1.44,0,0,0-.08.49v3.49h-1.05Z"/><path d="M499.38,105.57a2.69,2.69,0,0,0,1.39.42c.76,0,1.12-.38,1.12-.86s-.3-.78-1.07-1.07c-1.05-.37-1.54-.94-1.54-1.64a1.79,1.79,0,0,1,2-1.7,2.81,2.81,0,0,1,1.43.36l-.26.76a2.32,2.32,0,0,0-1.19-.33c-.63,0-1,.36-1,.79s.34.7,1.1,1c1,.39,1.52.89,1.52,1.75,0,1-.79,1.74-2.17,1.74a3.33,3.33,0,0,1-1.63-.39Z"/><path d="M505.45,99.22a.66.66,0,0,1-1.31,0,.65.65,0,0,1,.66-.66A.63.63,0,0,1,505.45,99.22Zm-1.18,7.43v-5.8h1.06v5.8Z"/><path d="M512.08,100.85c0,.42-.05.89-.05,1.59v3.37a3.37,3.37,0,0,1-.82,2.66,3.13,3.13,0,0,1-2.12.69,3.78,3.78,0,0,1-1.93-.48l.27-.8a3.25,3.25,0,0,0,1.7.45c1.08,0,1.87-.56,1.87-2v-.65h0a2.08,2.08,0,0,1-1.85,1,2.59,2.59,0,0,1-2.47-2.83,2.78,2.78,0,0,1,2.61-3.08,2,2,0,0,1,1.82,1h0l.05-.87ZM511,103.14a1.44,1.44,0,0,0-.06-.48,1.53,1.53,0,0,0-1.48-1.12c-1,0-1.72.86-1.72,2.2,0,1.14.57,2.09,1.71,2.09a1.55,1.55,0,0,0,1.47-1.08,1.87,1.87,0,0,0,.08-.57Z"/><path d="M513.79,98.14h1.05v3.62h0a1.91,1.91,0,0,1,.75-.74,2.19,2.19,0,0,1,1.08-.3c.78,0,2,.48,2,2.48v3.45h-1.06v-3.33c0-.94-.34-1.73-1.34-1.73a1.53,1.53,0,0,0-1.42,1.06,1.47,1.47,0,0,0-.07.5v3.5h-1.05Z"/><path d="M521.67,99.18v1.67h1.51v.8h-1.51v3.13c0,.72.2,1.13.79,1.13a2.6,2.6,0,0,0,.61-.07l0,.79a2.67,2.67,0,0,1-.93.14,1.44,1.44,0,0,1-1.14-.44,2.15,2.15,0,0,1-.41-1.51v-3.17h-.9v-.8h.9V99.46Z"/><path d="M524.23,105.57a2.69,2.69,0,0,0,1.39.42c.77,0,1.12-.38,1.12-.86s-.29-.78-1.07-1.07c-1-.37-1.54-.94-1.54-1.64a1.79,1.79,0,0,1,2-1.7,2.81,2.81,0,0,1,1.43.36l-.26.76a2.32,2.32,0,0,0-1.19-.33c-.62,0-1,.36-1,.79s.35.7,1.1,1c1,.39,1.52.89,1.52,1.75,0,1-.79,1.74-2.17,1.74a3.33,3.33,0,0,1-1.63-.39Z"/><path d="M531.57,103v.78h-3V103Z"/><path d="M536,106.65l-.08-.73h0a2.15,2.15,0,0,1-1.77.87,1.66,1.66,0,0,1-1.78-1.67c0-1.4,1.25-2.17,3.49-2.16v-.12a1.19,1.19,0,0,0-1.32-1.34,2.84,2.84,0,0,0-1.51.43l-.24-.7a3.63,3.63,0,0,1,1.91-.51c1.77,0,2.2,1.21,2.2,2.37v2.17a8.24,8.24,0,0,0,.1,1.39Zm-.16-3c-1.15,0-2.45.18-2.45,1.31a.93.93,0,0,0,1,1,1.45,1.45,0,0,0,1.41-1,1.2,1.2,0,0,0,.05-.33Z"/><path d="M538.45,105.57a2.69,2.69,0,0,0,1.39.42c.77,0,1.12-.38,1.12-.86s-.3-.78-1.07-1.07c-1-.37-1.54-.94-1.54-1.64a1.79,1.79,0,0,1,2-1.7,2.81,2.81,0,0,1,1.43.36l-.26.76a2.32,2.32,0,0,0-1.19-.33c-.62,0-1,.36-1,.79s.35.7,1.1,1c1,.39,1.52.89,1.52,1.75,0,1-.79,1.74-2.17,1.74a3.33,3.33,0,0,1-1.63-.39Z"/><path d="M545.79,103v.78h-3V103Z"/><path d="M550.24,106.65l-.08-.73h0a2.15,2.15,0,0,1-1.77.87,1.66,1.66,0,0,1-1.78-1.67c0-1.4,1.25-2.17,3.49-2.16v-.12a1.19,1.19,0,0,0-1.32-1.34,2.84,2.84,0,0,0-1.51.43l-.24-.7a3.63,3.63,0,0,1,1.91-.51c1.77,0,2.2,1.21,2.2,2.37v2.17a8.24,8.24,0,0,0,.1,1.39Zm-.16-3c-1.15,0-2.45.18-2.45,1.31a.93.93,0,0,0,1,1,1.45,1.45,0,0,0,1.41-1,1.2,1.2,0,0,0,.05-.33Z"/><path d="M555.26,103v.78h-3V103Z"/><path d="M556.39,105.38a3.65,3.65,0,0,0,1.87.53c1.06,0,1.69-.56,1.69-1.38s-.43-1.19-1.52-1.61c-1.32-.46-2.14-1.15-2.14-2.29a2.32,2.32,0,0,1,2.61-2.19,3.73,3.73,0,0,1,1.79.39l-.29.86a3.11,3.11,0,0,0-1.53-.39c-1.1,0-1.52.66-1.52,1.21,0,.76.49,1.13,1.6,1.56,1.37.53,2.07,1.19,2.07,2.38s-.93,2.32-2.83,2.32a4.18,4.18,0,0,1-2.07-.51Z"/><path d="M563.07,103.94a1.86,1.86,0,0,0,2,2,3.8,3.8,0,0,0,1.61-.3l.18.75a4.67,4.67,0,0,1-1.93.36,2.69,2.69,0,0,1-2.86-2.92c0-1.75,1-3.13,2.72-3.13a2.45,2.45,0,0,1,2.4,2.73,4.49,4.49,0,0,1,0,.49Zm3.09-.75a1.5,1.5,0,0,0-1.46-1.72,1.76,1.76,0,0,0-1.62,1.72Z"/><path d="M568.49,102.66c0-.68,0-1.27,0-1.81h.92l0,1.14h0a1.75,1.75,0,0,1,1.61-1.27,1.39,1.39,0,0,1,.3,0v1a1.32,1.32,0,0,0-.36,0,1.48,1.48,0,0,0-1.41,1.36,2.38,2.38,0,0,0-.05.49v3.09h-1Z"/><path d="M573.13,100.85l1.14,3.26a15.54,15.54,0,0,1,.46,1.49h0c.13-.48.3-1,.49-1.49l1.13-3.26h1.1l-2.28,5.8h-1l-2.2-5.8Z"/><path d="M579.66,99.22a.62.62,0,0,1-.67.65.63.63,0,0,1-.63-.65.64.64,0,0,1,.66-.66A.62.62,0,0,1,579.66,99.22Zm-1.17,7.43v-5.8h1.06v5.8Z"/><path d="M585.44,106.44a4,4,0,0,1-1.67.33,2.75,2.75,0,0,1-2.89-3,2.94,2.94,0,0,1,3.12-3.08,3.44,3.44,0,0,1,1.46.3l-.24.81a2.5,2.5,0,0,0-1.22-.27,2.19,2.19,0,0,0,0,4.36,3.07,3.07,0,0,0,1.3-.28Z"/><path d="M587.19,103.94a1.86,1.86,0,0,0,2,2,3.8,3.8,0,0,0,1.61-.3l.18.75a4.67,4.67,0,0,1-1.93.36,2.69,2.69,0,0,1-2.86-2.92c0-1.75,1-3.13,2.72-3.13a2.45,2.45,0,0,1,2.4,2.73,4.49,4.49,0,0,1,0,.49Zm3.09-.75a1.5,1.5,0,0,0-1.46-1.72,1.76,1.76,0,0,0-1.62,1.72Z"/><path d="M479.8,70.17l3.51-3.51a.23.23,0,0,0,.07-.17.24.24,0,0,0-.07-.18L479.8,62.8a.25.25,0,0,0-.18-.08.25.25,0,0,0-.17.08l-.38.38a.23.23,0,0,0-.07.17.22.22,0,0,0,.07.17l3,3-3,3a.23.23,0,0,0-.07.17.24.24,0,0,0,.07.18l.38.37a.21.21,0,0,0,.17.08A.22.22,0,0,0,479.8,70.17Z"/><path d="M479.8,87.62l3.51-3.52a.23.23,0,0,0,.07-.17.24.24,0,0,0-.07-.18l-3.51-3.51a.24.24,0,0,0-.18-.07.23.23,0,0,0-.17.07l-.38.38a.23.23,0,0,0-.07.17.22.22,0,0,0,.07.17l3,3-3,3a.24.24,0,0,0-.07.18.23.23,0,0,0,.07.17l.38.38a.23.23,0,0,0,.17.07A.24.24,0,0,0,479.8,87.62Z"/><path d="M479.8,105.81l3.51-3.51a.24.24,0,0,0,.07-.18.23.23,0,0,0-.07-.17l-3.51-3.51a.25.25,0,0,0-.18-.08.25.25,0,0,0-.17.08l-.38.37A.24.24,0,0,0,479,99a.23.23,0,0,0,.07.17l3,3-3,3a.23.23,0,0,0-.07.17.22.22,0,0,0,.07.17l.38.38a.25.25,0,0,0,.17.08A.25.25,0,0,0,479.8,105.81Z"/><path d="M491.21,251.11l-.84,2.54H489.3l2.74-8.08h1.26l2.76,8.08h-1.12l-.86-2.54Zm2.65-.81-.79-2.33c-.18-.53-.3-1-.42-1.48h0c-.12.48-.25,1-.41,1.47l-.79,2.34Z"/><path d="M497.25,245.68a10.66,10.66,0,0,1,2-.17,3.28,3.28,0,0,1,2.34.66,2,2,0,0,1,.64,1.54,2.12,2.12,0,0,1-1.53,2.06v0a2,2,0,0,1,1.19,1.64,13,13,0,0,0,.63,2.21h-1.08a9,9,0,0,1-.54-1.93c-.24-1.11-.67-1.53-1.62-1.57h-1v3.5h-1Zm1,3.68h1.07c1.12,0,1.82-.61,1.82-1.53s-.75-1.5-1.85-1.52a4.18,4.18,0,0,0-1,.1Z"/><path d="M502.78,254.13l3.35-8.69H507l-3.36,8.69Z"/><path d="M509.6,253.65,507,245.57h1.13l1.26,4c.34,1.09.64,2.08.86,3h0c.23-.93.57-1.95.93-3l1.36-4h1.12l-2.89,8.08Z"/><path d="M514.52,245.68a10.66,10.66,0,0,1,2-.17,3.28,3.28,0,0,1,2.34.66,2,2,0,0,1,.64,1.54,2.14,2.14,0,0,1-1.53,2.06v0a2,2,0,0,1,1.19,1.64,13.36,13.36,0,0,0,.62,2.21H518.7a10.51,10.51,0,0,1-.54-1.93c-.24-1.11-.67-1.53-1.61-1.57h-1v3.5h-1Zm1,3.68h1.07c1.11,0,1.82-.61,1.82-1.53s-.75-1.5-1.86-1.52a4.15,4.15,0,0,0-1,.1Z"/><path d="M523.59,253.65v-5h-.81v-.8h.81v-.28a2.74,2.74,0,0,1,.67-2,2,2,0,0,1,1.42-.54,2.36,2.36,0,0,1,.9.17l-.15.81a1.58,1.58,0,0,0-.67-.13c-.9,0-1.13.79-1.13,1.68v.31H526v.8h-1.41v5Z"/><path d="M532.08,250.7a2.84,2.84,0,0,1-2.89,3.09,2.76,2.76,0,0,1-2.78-3,2.83,2.83,0,0,1,2.88-3.08A2.74,2.74,0,0,1,532.08,250.7Zm-4.6.06c0,1.27.73,2.23,1.76,2.23s1.76-.94,1.76-2.25c0-1-.49-2.23-1.73-2.23S527.48,249.66,527.48,250.76Z"/><path d="M533.42,249.66c0-.68,0-1.27,0-1.81h.92l0,1.14h0a1.74,1.74,0,0,1,1.61-1.27,1.23,1.23,0,0,1,.29,0v1a1.69,1.69,0,0,0-.35,0,1.48,1.48,0,0,0-1.42,1.36,3.37,3.37,0,0,0,0,.49v3.09h-1Z"/><path d="M541,245.57V249h3.91v-3.38h1v8.08h-1v-3.79H541v3.79h-1.05v-8.08Z"/><path d="M553.4,253.39a5.26,5.26,0,0,1-2.14.39,3.77,3.77,0,0,1-4-4.09,4,4,0,0,1,4.22-4.25,4.26,4.26,0,0,1,1.92.36l-.26.85a3.77,3.77,0,0,0-1.63-.34,3,3,0,0,0-3.15,3.34,2.94,2.94,0,0,0,3.11,3.25,4.08,4.08,0,0,0,1.7-.34Z"/><path d="M554.71,245.67a11.33,11.33,0,0,1,2-.16,3.34,3.34,0,0,1,2.27.67,2.19,2.19,0,0,1,.7,1.69,2.36,2.36,0,0,1-.62,1.73,3.34,3.34,0,0,1-2.47.89,3.61,3.61,0,0,1-.84-.07v3.23h-1Zm1,3.89a3.49,3.49,0,0,0,.86.09c1.26,0,2-.61,2-1.73s-.76-1.58-1.91-1.58a4.32,4.32,0,0,0-1,.08Z"/><path d="M567.82,249.86h-3.14v2.92h3.5v.87h-4.55v-8.08H568v.88h-3.32V249h3.14Z"/><path d="M574.47,245.14v7c0,.51,0,1.1,0,1.49h-.94l-.05-1h0a2.18,2.18,0,0,1-2,1.14c-1.41,0-2.49-1.19-2.49-2.95,0-1.94,1.19-3.12,2.61-3.12a2,2,0,0,1,1.75.89h0v-3.47Zm-1.06,5.07a1.65,1.65,0,0,0,0-.44,1.55,1.55,0,0,0-1.52-1.23c-1.09,0-1.74,1-1.74,2.25s.58,2.15,1.72,2.15a1.59,1.59,0,0,0,1.54-1.26,1.71,1.71,0,0,0,0-.46Z"/><path d="M581.08,252.07c0,.6,0,1.13,0,1.58h-.94l-.06-.94h0a2.19,2.19,0,0,1-1.92,1.08c-.91,0-2-.51-2-2.55v-3.39h1v3.21c0,1.11.34,1.85,1.3,1.85a1.47,1.47,0,0,0,1.48-1.5v-3.56h1.06Z"/><path d="M587,253.44a3.93,3.93,0,0,1-1.67.34,2.76,2.76,0,0,1-2.89-3,3,3,0,0,1,3.12-3.08,3.52,3.52,0,0,1,1.46.3l-.23.82a2.42,2.42,0,0,0-1.23-.28,2.19,2.19,0,0,0,0,4.37,3,3,0,0,0,1.29-.29Z"/><path d="M591.42,253.65l-.08-.73h0a2.14,2.14,0,0,1-1.77.87,1.66,1.66,0,0,1-1.78-1.67c0-1.4,1.25-2.17,3.49-2.16v-.12a1.19,1.19,0,0,0-1.32-1.34,2.93,2.93,0,0,0-1.51.43l-.24-.7a3.63,3.63,0,0,1,1.91-.51c1.78,0,2.21,1.21,2.21,2.37v2.17a8.32,8.32,0,0,0,.09,1.39Zm-.15-3c-1.15,0-2.46.18-2.46,1.31a.94.94,0,0,0,1,1,1.45,1.45,0,0,0,1.41-1,1.2,1.2,0,0,0,.06-.33Z"/><path d="M595.22,246.18v1.67h1.51v.8h-1.51v3.13c0,.72.2,1.13.79,1.13a2.68,2.68,0,0,0,.61-.07l0,.79a2.7,2.7,0,0,1-.94.15,1.46,1.46,0,0,1-1.14-.45,2.15,2.15,0,0,1-.4-1.51v-3.17h-.9v-.8h.9v-1.39Z"/><path d="M599.09,246.22a.62.62,0,0,1-.67.65.63.63,0,0,1-.64-.65.65.65,0,0,1,.67-.66A.62.62,0,0,1,599.09,246.22Zm-1.17,7.43v-5.8H599v5.8Z"/><path d="M606,250.7a2.84,2.84,0,0,1-2.89,3.09,2.76,2.76,0,0,1-2.78-3,2.83,2.83,0,0,1,2.87-3.08A2.75,2.75,0,0,1,606,250.7Zm-4.61.06c0,1.27.73,2.23,1.77,2.23s1.76-.94,1.76-2.25c0-1-.49-2.23-1.74-2.23S601.37,249.66,601.37,250.76Z"/><path d="M607.31,249.42c0-.6,0-1.09,0-1.57h.93l.06,1h0a2.14,2.14,0,0,1,1.92-1.09c.81,0,2,.48,2,2.47v3.46h-1v-3.34c0-.94-.35-1.72-1.34-1.72a1.51,1.51,0,0,0-1.42,1.08,1.45,1.45,0,0,0-.07.49v3.49h-1.06Z"/><path d="M491.21,269.11l-.84,2.54H489.3l2.74-8.08h1.26l2.76,8.08h-1.12l-.86-2.54Zm2.65-.81-.79-2.33c-.18-.53-.3-1-.42-1.48h0c-.12.48-.25,1-.41,1.47l-.79,2.34Z"/><path d="M498.29,263.57v8.08h-1v-8.08Z"/><path d="M499.2,272.13l3.34-8.69h.82L500,272.13Z"/><path d="M511.05,268.11c-.06-1.13-.14-2.49-.12-3.5h0c-.28.95-.61,2-1,3.08l-1.43,3.92h-.79l-1.3-3.85c-.39-1.14-.71-2.19-.94-3.15h0c0,1-.09,2.37-.16,3.58l-.22,3.46h-1l.56-8.08h1.33l1.38,3.91c.34,1,.61,1.88.82,2.72h0c.21-.81.5-1.7.86-2.72l1.44-3.91h1.33l.5,8.08h-1Z"/><path d="M513.88,263.57h1v7.21h3.45v.87h-4.5Z"/><path d="M522.16,271.65v-5h-.81v-.8h.81v-.28a2.74,2.74,0,0,1,.67-2,2,2,0,0,1,1.42-.54,2.32,2.32,0,0,1,.9.17L525,264a1.58,1.58,0,0,0-.67-.13c-.9,0-1.12.79-1.12,1.68v.31h1.4v.8h-1.4v5Z"/><path d="M530.66,268.7a2.84,2.84,0,0,1-2.89,3.09,2.77,2.77,0,0,1-2.79-3,2.83,2.83,0,0,1,2.88-3.08A2.75,2.75,0,0,1,530.66,268.7Zm-4.61.06c0,1.27.73,2.23,1.76,2.23s1.77-.94,1.77-2.25c0-1-.5-2.23-1.74-2.23S526.05,267.66,526.05,268.76Z"/><path d="M532,267.66c0-.68,0-1.27,0-1.81h.93l0,1.14H533a1.74,1.74,0,0,1,1.61-1.27,1.39,1.39,0,0,1,.3,0v1a1.88,1.88,0,0,0-.36,0,1.49,1.49,0,0,0-1.42,1.36,3.37,3.37,0,0,0-.05.49v3.09h-1Z"/><path d="M545.31,268.11c-.06-1.13-.14-2.49-.12-3.5h0c-.28.95-.61,2-1,3.08l-1.43,3.92h-.79l-1.3-3.85c-.39-1.14-.71-2.19-.94-3.15h0c0,1-.09,2.37-.16,3.58l-.22,3.46h-1l.56-8.08h1.33l1.38,3.91c.34,1,.61,1.88.82,2.72h0c.21-.81.5-1.7.86-2.72l1.44-3.91H546l.5,8.08h-1Z"/><path d="M548.77,268.94a1.86,1.86,0,0,0,2,2,3.75,3.75,0,0,0,1.6-.3l.18.75a4.6,4.6,0,0,1-1.93.37,2.7,2.7,0,0,1-2.85-2.93c0-1.75,1-3.13,2.72-3.13a2.45,2.45,0,0,1,2.4,2.73,2.63,2.63,0,0,1,0,.49Zm3.09-.75a1.51,1.51,0,0,0-1.46-1.72,1.75,1.75,0,0,0-1.62,1.72Z"/><path d="M559.2,263.14v7c0,.51,0,1.1,0,1.49h-1l0-1h0a2.16,2.16,0,0,1-2,1.14c-1.4,0-2.48-1.19-2.48-3,0-1.94,1.19-3.12,2.6-3.12a1.93,1.93,0,0,1,1.75.89h0v-3.47Zm-1.05,5.07a1.65,1.65,0,0,0,0-.44,1.56,1.56,0,0,0-1.52-1.23c-1.09,0-1.74,1-1.74,2.25s.57,2.15,1.71,2.15a1.59,1.59,0,0,0,1.55-1.26,1.71,1.71,0,0,0,0-.46Z"/><path d="M562,263.57v8.08h-1v-8.08Z"/><path d="M564,267.42c0-.6,0-1.09-.05-1.57h.93l.06,1h0a2.14,2.14,0,0,1,1.92-1.09c.8,0,2,.48,2,2.47v3.46h-1.06v-3.34c0-.94-.35-1.72-1.34-1.72a1.51,1.51,0,0,0-1.42,1.08,1.75,1.75,0,0,0-.07.49v3.49h-1Z"/><path d="M570.71,271.65v-5h-.81v-.8h.81v-.28a2.7,2.7,0,0,1,.68-2,2,2,0,0,1,1.41-.54,2.32,2.32,0,0,1,.9.17l-.14.81a1.62,1.62,0,0,0-.67-.13c-.9,0-1.13.79-1.13,1.68v.31h1.4v.8h-1.4v5Z"/><path d="M579.21,268.7a2.84,2.84,0,0,1-2.89,3.09,2.77,2.77,0,0,1-2.79-3,2.84,2.84,0,0,1,2.88-3.08A2.75,2.75,0,0,1,579.21,268.7Zm-4.61.06c0,1.27.73,2.23,1.76,2.23s1.77-.94,1.77-2.25c0-1-.49-2.23-1.74-2.23S574.6,267.66,574.6,268.76Z"/><path d="M489.91,281.68a9.65,9.65,0,0,1,1.9-.17,3.31,3.31,0,0,1,2.22.59,1.69,1.69,0,0,1,.67,1.43,1.91,1.91,0,0,1-1.36,1.77v0a2.09,2.09,0,0,1,1.66,2,2.17,2.17,0,0,1-.68,1.62,4,4,0,0,1-2.79.76,11.63,11.63,0,0,1-1.62-.1Zm1,3.31h.95c1.1,0,1.75-.58,1.75-1.36,0-.94-.72-1.32-1.78-1.32a4,4,0,0,0-.92.08Zm0,3.87a5.06,5.06,0,0,0,.88.05c1.07,0,2.07-.39,2.07-1.57s-.95-1.56-2.09-1.56H491Z"/><path d="M496.37,281.14h1.06v8.51h-1.06Z"/><path d="M504.46,286.7a2.84,2.84,0,0,1-2.89,3.09,2.76,2.76,0,0,1-2.78-3,2.83,2.83,0,0,1,2.88-3.08A2.75,2.75,0,0,1,504.46,286.7Zm-4.61.06c0,1.27.74,2.23,1.77,2.23s1.76-.94,1.76-2.25c0-1-.49-2.23-1.74-2.23S499.85,285.66,499.85,286.76Z"/><path d="M509.93,289.44a3.87,3.87,0,0,1-1.66.34,2.76,2.76,0,0,1-2.9-3,3,3,0,0,1,3.12-3.08,3.61,3.61,0,0,1,1.47.3l-.24.82a2.42,2.42,0,0,0-1.23-.28,2.19,2.19,0,0,0,0,4.37,3,3,0,0,0,1.29-.29Z"/><path d="M512.21,286.51h0c.14-.2.35-.45.51-.66l1.71-2h1.27l-2.24,2.39,2.55,3.41h-1.28l-2-2.78-.54.6v2.18h-1v-8.51h1Z"/><path d="M520.94,289.44a4,4,0,0,1-1.67.34,2.76,2.76,0,0,1-2.89-3,3,3,0,0,1,3.12-3.08,3.6,3.6,0,0,1,1.46.3l-.24.82a2.37,2.37,0,0,0-1.22-.28,2.19,2.19,0,0,0,0,4.37,3,3,0,0,0,1.3-.29Z"/><path d="M522.17,281.14h1.06v3.62h0A2,2,0,0,1,524,284a2.16,2.16,0,0,1,1.08-.3c.78,0,2,.48,2,2.48v3.45h-1.06v-3.33c0-.94-.35-1.73-1.34-1.73a1.51,1.51,0,0,0-1.42,1.06,1.26,1.26,0,0,0-.07.5v3.5h-1.06Z"/><path d="M532.05,289.65l-.08-.73h0a2.16,2.16,0,0,1-1.78.87,1.65,1.65,0,0,1-1.77-1.67c0-1.4,1.25-2.17,3.49-2.16v-.12a1.19,1.19,0,0,0-1.32-1.34,2.93,2.93,0,0,0-1.51.43l-.24-.7a3.61,3.61,0,0,1,1.91-.51c1.77,0,2.2,1.21,2.2,2.37v2.17a8.24,8.24,0,0,0,.1,1.39Zm-.16-3c-1.15,0-2.46.18-2.46,1.31a.94.94,0,0,0,1,1,1.42,1.42,0,0,0,1.4-1,.92.92,0,0,0,.06-.33Z"/><path d="M535.79,282.22a.62.62,0,0,1-.67.65.63.63,0,0,1-.63-.65.64.64,0,0,1,.66-.66A.62.62,0,0,1,535.79,282.22Zm-1.17,7.43v-5.8h1v5.8Z"/><path d="M537.43,285.42c0-.6,0-1.09,0-1.57h.94l0,1h0a2.14,2.14,0,0,1,1.92-1.09c.8,0,2,.48,2,2.47v3.46h-1.06v-3.34c0-.94-.34-1.72-1.34-1.72a1.51,1.51,0,0,0-1.42,1.08,1.75,1.75,0,0,0-.07.49v3.49h-1.05Z"/><path d="M546.74,289.65v-5h-.82v-.8h.82v-.28a2.74,2.74,0,0,1,.67-2,2,2,0,0,1,1.42-.54,2.36,2.36,0,0,1,.9.17l-.15.81a1.58,1.58,0,0,0-.67-.13c-.9,0-1.13.79-1.13,1.68v.31h1.41v.8h-1.41v5Z"/><path d="M555.23,286.7a2.84,2.84,0,0,1-2.89,3.09,2.76,2.76,0,0,1-2.78-3,2.83,2.83,0,0,1,2.88-3.08A2.74,2.74,0,0,1,555.23,286.7Zm-4.6.06c0,1.27.73,2.23,1.76,2.23s1.76-.94,1.76-2.25c0-1-.49-2.23-1.74-2.23S550.63,285.66,550.63,286.76Z"/><path d="M556.57,285.66c0-.68,0-1.27-.05-1.81h.92l0,1.14h0a1.74,1.74,0,0,1,1.6-1.27,1.32,1.32,0,0,1,.3,0v1a1.79,1.79,0,0,0-.36,0,1.48,1.48,0,0,0-1.41,1.36,2.38,2.38,0,0,0,0,.49v3.09h-1Z"/><path d="M563.07,281.68a14.44,14.44,0,0,1,2.22-.17,4.6,4.6,0,0,1,3.27,1,3.71,3.71,0,0,1,1.14,2.9,4.24,4.24,0,0,1-1.16,3.14,5,5,0,0,1-3.57,1.17,16.77,16.77,0,0,1-1.9-.1Zm1,7.15a7.79,7.79,0,0,0,1.06.06,3.11,3.11,0,0,0,3.44-3.43c0-1.91-1.07-3.12-3.27-3.12a6,6,0,0,0-1.23.11Z"/><path d="M572.2,282.22a.62.62,0,0,1-.67.65.63.63,0,0,1-.64-.65.65.65,0,0,1,.66-.66A.63.63,0,0,1,572.2,282.22ZM571,289.65v-5.8h1.05v5.8Z"/><path d="M573.69,288.57a2.69,2.69,0,0,0,1.39.42c.77,0,1.13-.38,1.13-.86s-.3-.78-1.08-1.07c-1-.37-1.54-.94-1.54-1.64a1.8,1.8,0,0,1,2-1.7,2.94,2.94,0,0,1,1.43.36l-.27.77a2.22,2.22,0,0,0-1.19-.34c-.62,0-1,.36-1,.79s.35.7,1.11,1c1,.39,1.52.89,1.52,1.75,0,1-.79,1.75-2.17,1.75a3.27,3.27,0,0,1-1.63-.4Z"/><path d="M579.86,282.18v1.67h1.51v.8h-1.51v3.13c0,.72.2,1.13.79,1.13a2.6,2.6,0,0,0,.61-.07l0,.79a2.65,2.65,0,0,1-.94.15,1.47,1.47,0,0,1-1.14-.45,2.15,2.15,0,0,1-.4-1.51v-3.17h-.9v-.8h.9v-1.39Z"/><path d="M582.56,285.66c0-.68,0-1.27,0-1.81h.92l0,1.14h0a1.74,1.74,0,0,1,1.6-1.27,1.32,1.32,0,0,1,.3,0v1a1.69,1.69,0,0,0-.35,0,1.48,1.48,0,0,0-1.42,1.36,3.37,3.37,0,0,0,0,.49v3.09h-1Z"/><path d="M587.7,282.22a.62.62,0,0,1-.67.65.63.63,0,0,1-.63-.65.64.64,0,0,1,.66-.66A.62.62,0,0,1,587.7,282.22Zm-1.17,7.43v-5.8h1.06v5.8Z"/><path d="M589.29,289.65c0-.39.05-1,.05-1.49v-7h1v3.64h0a2.19,2.19,0,0,1,2-1.06c1.44,0,2.46,1.2,2.45,3,0,2.08-1.31,3.11-2.6,3.11a2.06,2.06,0,0,1-1.94-1.1h0l0,1Zm1.09-2.32a1.58,1.58,0,0,0,0,.38A1.63,1.63,0,0,0,592,289c1.11,0,1.77-.9,1.77-2.23,0-1.17-.6-2.16-1.73-2.16a1.69,1.69,0,0,0-1.61,1.29,2.47,2.47,0,0,0-.06.43Z"/><path d="M601,288.07c0,.6,0,1.13.05,1.58h-.93l-.07-.94h0a2.18,2.18,0,0,1-1.92,1.08c-.91,0-2-.51-2-2.55v-3.39h1.06v3.21c0,1.11.33,1.85,1.29,1.85a1.5,1.5,0,0,0,1.49-1.5v-3.56h1Z"/><path d="M604.05,282.18v1.67h1.51v.8h-1.51v3.13c0,.72.2,1.13.79,1.13a2.6,2.6,0,0,0,.61-.07l0,.79a2.65,2.65,0,0,1-.94.15,1.47,1.47,0,0,1-1.14-.45,2.15,2.15,0,0,1-.4-1.51v-3.17h-.9v-.8h.9v-1.39Z"/><path d="M607.92,282.22a.62.62,0,0,1-.67.65.63.63,0,0,1-.63-.65.64.64,0,0,1,.66-.66A.62.62,0,0,1,607.92,282.22Zm-1.17,7.43v-5.8h1.06v5.8Z"/><path d="M614.81,286.7a2.84,2.84,0,0,1-2.89,3.09,2.76,2.76,0,0,1-2.78-3,2.83,2.83,0,0,1,2.88-3.08A2.75,2.75,0,0,1,614.81,286.7Zm-4.61.06c0,1.27.74,2.23,1.77,2.23s1.76-.94,1.76-2.25c0-1-.49-2.23-1.74-2.23S610.2,285.66,610.2,286.76Z"/><path d="M616.15,285.42c0-.6,0-1.09,0-1.57H617l.06,1h0a2.13,2.13,0,0,1,1.92-1.09c.8,0,2.05.48,2.05,2.47v3.46H620v-3.34c0-.94-.35-1.72-1.34-1.72a1.51,1.51,0,0,0-1.42,1.08,1.75,1.75,0,0,0-.07.49v3.49h-1.05Z"/><path d="M479.8,253.17l3.51-3.51a.23.23,0,0,0,.07-.17.24.24,0,0,0-.07-.18l-3.51-3.51a.25.25,0,0,0-.18-.08.25.25,0,0,0-.17.08l-.38.38a.23.23,0,0,0-.07.17.22.22,0,0,0,.07.17l3,3-3,3a.23.23,0,0,0-.07.17.24.24,0,0,0,.07.18l.38.37a.21.21,0,0,0,.17.08A.22.22,0,0,0,479.8,253.17Z"/><path d="M479.8,271.54l3.51-3.51a.24.24,0,0,0,.07-.18.23.23,0,0,0-.07-.17l-3.51-3.51a.25.25,0,0,0-.18-.08.25.25,0,0,0-.17.08l-.38.37a.24.24,0,0,0-.07.18.23.23,0,0,0,.07.17l3,3-3,3a.24.24,0,0,0,0,.34l.38.38a.25.25,0,0,0,.17.08A.25.25,0,0,0,479.8,271.54Z"/><path d="M479.8,288.72l3.51-3.52a.23.23,0,0,0,.07-.17.24.24,0,0,0-.07-.18l-3.51-3.51a.24.24,0,0,0-.18-.07.23.23,0,0,0-.17.07l-.38.38a.23.23,0,0,0-.07.17.22.22,0,0,0,.07.17l3,3-3,3a.24.24,0,0,0-.07.18.23.23,0,0,0,.07.17l.38.38a.23.23,0,0,0,.17.07A.24.24,0,0,0,479.8,288.72Z"/><path d="M272.53,351.68a10.66,10.66,0,0,1,2-.17,3.28,3.28,0,0,1,2.34.66,2,2,0,0,1,.63,1.54,2.13,2.13,0,0,1-1.52,2.06v0a2,2,0,0,1,1.19,1.64,12.4,12.4,0,0,0,.62,2.21h-1.08a10.51,10.51,0,0,1-.54-1.93c-.24-1.11-.67-1.53-1.62-1.57h-1v3.5h-1Zm1,3.68h1.07c1.11,0,1.82-.61,1.82-1.53s-.75-1.5-1.86-1.52a4.15,4.15,0,0,0-1,.1Z"/><path d="M279,351.67a11.55,11.55,0,0,1,2-.16,3.31,3.31,0,0,1,2.26.67,2.16,2.16,0,0,1,.71,1.69,2.4,2.4,0,0,1-.62,1.73,3.34,3.34,0,0,1-2.47.89,3.56,3.56,0,0,1-.84-.07v3.23h-1Zm1,3.89a3.38,3.38,0,0,0,.86.09c1.26,0,2-.61,2-1.73s-.76-1.58-1.91-1.58a4.26,4.26,0,0,0-1,.08Z"/><path d="M285.67,357.11l-.84,2.54h-1.08l2.74-8.08h1.26l2.76,8.08H289.4l-.87-2.54Zm2.65-.81-.79-2.33c-.18-.53-.3-1-.42-1.48h0c-.12.48-.25,1-.41,1.47l-.79,2.34Z"/><path d="M294.32,359.65v-5h-.82v-.8h.82v-.28a2.72,2.72,0,0,1,.67-2,2,2,0,0,1,1.42-.54,2.59,2.59,0,0,1,.9.16l-.15.82a1.58,1.58,0,0,0-.67-.13c-.9,0-1.13.79-1.13,1.68v.31h1.41v.8h-1.41v5Z"/><path d="M302.81,356.7a2.84,2.84,0,0,1-2.89,3.09,2.76,2.76,0,0,1-2.78-3,2.83,2.83,0,0,1,2.88-3.08A2.74,2.74,0,0,1,302.81,356.7Zm-4.6.06c0,1.27.73,2.23,1.76,2.23s1.76-.94,1.76-2.25c0-1-.49-2.23-1.74-2.23S298.21,355.66,298.21,356.76Z"/><path d="M304.15,355.66c0-.68,0-1.27,0-1.81H305l0,1.14h.05a1.74,1.74,0,0,1,1.6-1.27,1.32,1.32,0,0,1,.3,0v1a1.79,1.79,0,0,0-.36,0,1.48,1.48,0,0,0-1.41,1.36,2.38,2.38,0,0,0-.05.49v3.09h-1Z"/><path d="M316.3,359.39a5.21,5.21,0,0,1-2.14.38,3.78,3.78,0,0,1-4-4.09,4,4,0,0,1,4.22-4.24,4.22,4.22,0,0,1,1.92.36l-.25.85a3.84,3.84,0,0,0-1.63-.34,3,3,0,0,0-3.16,3.34,2.94,2.94,0,0,0,3.11,3.25,4,4,0,0,0,1.7-.34Z"/><path d="M317.57,351.14h1.06v8.51h-1.06Z"/><path d="M321.58,352.22a.65.65,0,1,1-1.3,0,.64.64,0,0,1,.65-.66A.63.63,0,0,1,321.58,352.22Zm-1.17,7.43v-5.8h1v5.8Z"/><path d="M323.22,355.42c0-.6,0-1.09-.05-1.57h.93l.06,1h0a2.13,2.13,0,0,1,1.92-1.09c.8,0,2.05.48,2.05,2.47v3.46H327.1v-3.34c0-.94-.35-1.72-1.34-1.72a1.5,1.5,0,0,0-1.42,1.08,1.45,1.45,0,0,0-.07.49v3.49h-1Z"/><path d="M331.05,352.22a.62.62,0,0,1-.67.65.63.63,0,0,1-.64-.65.65.65,0,0,1,.66-.66A.63.63,0,0,1,331.05,352.22Zm-1.18,7.43v-5.8h1.06v5.8Z"/><path d="M336.82,359.44a4,4,0,0,1-1.67.33,2.75,2.75,0,0,1-2.89-3,3,3,0,0,1,3.12-3.08,3.52,3.52,0,0,1,1.46.3l-.23.81a2.54,2.54,0,0,0-1.23-.27,2,2,0,0,0-2.05,2.19,2,2,0,0,0,2,2.17,3,3,0,0,0,1.29-.28Z"/><path d="M341.27,359.65l-.08-.73h0a2.14,2.14,0,0,1-1.77.87,1.66,1.66,0,0,1-1.78-1.67c0-1.4,1.25-2.17,3.49-2.16v-.12a1.19,1.19,0,0,0-1.32-1.34,2.84,2.84,0,0,0-1.51.43l-.24-.7a3.63,3.63,0,0,1,1.91-.51c1.77,0,2.21,1.21,2.21,2.37v2.17a8.32,8.32,0,0,0,.09,1.39Zm-.15-3c-1.15,0-2.46.18-2.46,1.31a.93.93,0,0,0,1,1,1.45,1.45,0,0,0,1.41-1,1.2,1.2,0,0,0,.06-.33Z"/><path d="M343.84,351.14h1.06v8.51h-1.06Z"/><path d="M272.53,369.68a9.65,9.65,0,0,1,1.9-.17,3.31,3.31,0,0,1,2.22.59,1.69,1.69,0,0,1,.67,1.43A1.91,1.91,0,0,1,276,373.3v0a2.09,2.09,0,0,1,1.66,2,2.17,2.17,0,0,1-.68,1.62,4,4,0,0,1-2.79.76,11.75,11.75,0,0,1-1.62-.1Zm1,3.31h.95c1.1,0,1.75-.58,1.75-1.36,0-.94-.72-1.32-1.78-1.32a4,4,0,0,0-.92.08Zm0,3.87a5.13,5.13,0,0,0,.88.05c1.08,0,2.07-.39,2.07-1.57s-.95-1.56-2.09-1.56h-.86Z"/><path d="M279.63,374.94a1.86,1.86,0,0,0,2,2,3.8,3.8,0,0,0,1.61-.3l.18.75a4.67,4.67,0,0,1-1.93.36,2.69,2.69,0,0,1-2.86-2.92c0-1.75,1-3.13,2.73-3.13a2.45,2.45,0,0,1,2.39,2.73,4.49,4.49,0,0,1,0,.49Zm3.1-.75a1.51,1.51,0,0,0-1.47-1.72,1.77,1.77,0,0,0-1.62,1.72Z"/><path d="M285.06,373.42c0-.6,0-1.09-.05-1.57h.93l.06,1h0a2.13,2.13,0,0,1,1.92-1.09c.8,0,2.05.48,2.05,2.47v3.46h-1.06v-3.34c0-.94-.35-1.72-1.34-1.72a1.5,1.5,0,0,0-1.42,1.08,1.45,1.45,0,0,0-.07.49v3.49h-1.05Z"/><path d="M292.3,374.94a1.87,1.87,0,0,0,2,2,3.76,3.76,0,0,0,1.61-.3l.18.75a4.67,4.67,0,0,1-1.93.36,2.69,2.69,0,0,1-2.85-2.92c0-1.75,1-3.13,2.72-3.13a2.46,2.46,0,0,1,2.4,2.73,4,4,0,0,1,0,.49Zm3.1-.75a1.51,1.51,0,0,0-1.47-1.72,1.75,1.75,0,0,0-1.61,1.72Z"/><path d="M297.83,377.65v-5H297v-.8h.81v-.31a2.33,2.33,0,0,1,2.54-2.53,2.87,2.87,0,0,1,1.47.38l-.3.8a2.22,2.22,0,0,0-1.22-.33c-1.12,0-1.44.78-1.44,1.7v.29h3.37v5.8H301.2v-5h-2.32v5Z"/><path d="M305.27,370.18v1.67h1.52v.8h-1.52v3.13c0,.72.21,1.13.8,1.13a2.68,2.68,0,0,0,.61-.07l.05.79a2.73,2.73,0,0,1-.94.14,1.45,1.45,0,0,1-1.14-.44,2.15,2.15,0,0,1-.41-1.51v-3.17h-.9v-.8h.9v-1.39Z"/><path d="M313.73,377.65l-.08-.73h0a2.14,2.14,0,0,1-1.77.87,1.66,1.66,0,0,1-1.78-1.67c0-1.4,1.25-2.17,3.49-2.16v-.12a1.19,1.19,0,0,0-1.32-1.34,2.84,2.84,0,0,0-1.51.43l-.24-.7a3.63,3.63,0,0,1,1.91-.51c1.77,0,2.21,1.21,2.21,2.37v2.17a8.32,8.32,0,0,0,.09,1.39Zm-.15-3c-1.15,0-2.46.18-2.46,1.31a.93.93,0,0,0,1,1,1.45,1.45,0,0,0,1.41-1,1.2,1.2,0,0,0,.06-.33Z"/><path d="M316.3,373.42c0-.6,0-1.09,0-1.57h.93l.06,1h0a2.11,2.11,0,0,1,1.91-1.09c.81,0,2.05.48,2.05,2.47v3.46h-1.05v-3.34c0-.94-.35-1.72-1.34-1.72a1.5,1.5,0,0,0-1.42,1.08,1.45,1.45,0,0,0-.07.49v3.49H316.3Z"/><path d="M328,369.14v7c0,.52,0,1.11,0,1.5h-.94l-.05-1h0a2.18,2.18,0,0,1-2,1.14c-1.41,0-2.49-1.19-2.49-3,0-1.94,1.19-3.12,2.61-3.12a2,2,0,0,1,1.75.89h0v-3.47Zm-1.06,5.07a1.65,1.65,0,0,0-.05-.44,1.55,1.55,0,0,0-1.52-1.23c-1.09,0-1.74,1-1.74,2.25s.58,2.14,1.72,2.14a1.58,1.58,0,0,0,1.54-1.25,1.71,1.71,0,0,0,.05-.46Z"/><path d="M332.31,369.68a10.66,10.66,0,0,1,2-.17,3.28,3.28,0,0,1,2.34.66,2,2,0,0,1,.64,1.54,2.13,2.13,0,0,1-1.52,2.06v0a2,2,0,0,1,1.18,1.64,13,13,0,0,0,.63,2.21H336.5a9.72,9.72,0,0,1-.54-1.93c-.24-1.11-.67-1.53-1.62-1.57h-1v3.5h-1.05Zm1.05,3.68h1.06c1.12,0,1.82-.61,1.82-1.53s-.75-1.5-1.85-1.52a4,4,0,0,0-1,.1Z"/><path d="M340,370.22a.66.66,0,0,1-1.31,0,.65.65,0,0,1,.66-.66A.63.63,0,0,1,340,370.22Zm-1.18,7.43v-5.8h1.06v5.8Z"/><path d="M341.52,376.57a2.69,2.69,0,0,0,1.39.42c.76,0,1.12-.38,1.12-.86s-.3-.78-1.08-1.07c-1-.37-1.53-.94-1.53-1.64a1.79,1.79,0,0,1,2-1.7,2.91,2.91,0,0,1,1.43.36l-.26.76a2.32,2.32,0,0,0-1.19-.33c-.62,0-1,.36-1,.79s.35.7,1.1,1c1,.39,1.52.89,1.52,1.75,0,1-.79,1.74-2.17,1.74a3.33,3.33,0,0,1-1.63-.39Z"/><path d="M347.45,374.51h0c.14-.2.35-.45.51-.66l1.71-2H351l-2.24,2.39,2.55,3.41H350l-2-2.78-.54.6v2.18h-1v-8.51h1Z"/><path d="M361.43,374.1c-.06-1.12-.13-2.48-.12-3.49h0c-.28.95-.62,2-1,3.07l-1.43,3.93H358l-1.31-3.85c-.38-1.14-.71-2.19-.94-3.15h0c0,1-.08,2.37-.16,3.58l-.21,3.46h-1l.57-8.08h1.33l1.38,3.91c.33,1,.61,1.88.81,2.72h0c.2-.81.49-1.7.85-2.72l1.44-3.91h1.33l.5,8.08h-1Z"/><path d="M367.52,377.65l-.09-.73h0a2.17,2.17,0,0,1-1.78.87,1.65,1.65,0,0,1-1.77-1.67c0-1.4,1.24-2.17,3.49-2.16v-.12A1.19,1.19,0,0,0,366,372.5a2.81,2.81,0,0,0-1.51.43l-.24-.7a3.6,3.6,0,0,1,1.9-.51c1.78,0,2.21,1.21,2.21,2.37v2.17a7.31,7.31,0,0,0,.1,1.39Zm-.16-3c-1.15,0-2.46.18-2.46,1.31a.94.94,0,0,0,1,1,1.44,1.44,0,0,0,1.4-1,.92.92,0,0,0,.06-.33Z"/><path d="M370.09,373.42c0-.6,0-1.09,0-1.57H371l.06,1h0a2.14,2.14,0,0,1,1.92-1.09c.8,0,2,.48,2,2.47v3.46H374v-3.34c0-.94-.35-1.72-1.34-1.72a1.5,1.5,0,0,0-1.42,1.08,1.75,1.75,0,0,0-.07.49v3.49h-1.05Z"/><path d="M380,377.65l-.08-.73h0a2.15,2.15,0,0,1-1.77.87,1.66,1.66,0,0,1-1.78-1.67c0-1.4,1.25-2.17,3.49-2.16v-.12a1.19,1.19,0,0,0-1.32-1.34,2.84,2.84,0,0,0-1.51.43l-.24-.7a3.63,3.63,0,0,1,1.91-.51c1.77,0,2.2,1.21,2.2,2.37v2.17a8.24,8.24,0,0,0,.1,1.39Zm-.15-3c-1.16,0-2.46.18-2.46,1.31a.93.93,0,0,0,1,1,1.45,1.45,0,0,0,1.41-1,1.2,1.2,0,0,0,.06-.33Z"/><path d="M387.53,371.85c0,.42,0,.89,0,1.59v3.38a3.36,3.36,0,0,1-.82,2.65,3.12,3.12,0,0,1-2.11.69,3.79,3.79,0,0,1-1.94-.48l.27-.8a3.25,3.25,0,0,0,1.7.45c1.08,0,1.87-.56,1.87-2v-.65h0a2.07,2.07,0,0,1-1.85,1,2.59,2.59,0,0,1-2.47-2.83,2.79,2.79,0,0,1,2.62-3.08,1.93,1.93,0,0,1,1.81,1h0l.05-.88Zm-1.09,2.29a1.44,1.44,0,0,0-.06-.48,1.53,1.53,0,0,0-1.47-1.12c-1,0-1.73.86-1.73,2.2,0,1.14.57,2.09,1.71,2.09a1.55,1.55,0,0,0,1.47-1.08,1.87,1.87,0,0,0,.08-.57Z"/><path d="M389.83,374.94a1.86,1.86,0,0,0,2,2,3.75,3.75,0,0,0,1.6-.3l.19.75a4.72,4.72,0,0,1-1.94.36,2.69,2.69,0,0,1-2.85-2.92c0-1.75,1-3.13,2.72-3.13a2.45,2.45,0,0,1,2.4,2.73,2.63,2.63,0,0,1,0,.49Zm3.09-.75a1.5,1.5,0,0,0-1.46-1.72,1.75,1.75,0,0,0-1.62,1.72Z"/><path d="M395.25,373.42c0-.6,0-1.09-.05-1.57h.93l0,.93h0a2,2,0,0,1,1.82-1.06,1.74,1.74,0,0,1,1.65,1.16h0a2.42,2.42,0,0,1,.65-.75,2,2,0,0,1,1.28-.41c.77,0,1.91.5,1.91,2.52v3.41h-1v-3.28c0-1.12-.41-1.79-1.26-1.79a1.38,1.38,0,0,0-1.25,1,1.69,1.69,0,0,0-.08.53v3.58h-1v-3.47c0-.93-.4-1.6-1.21-1.6a1.43,1.43,0,0,0-1.3,1.06,1.4,1.4,0,0,0-.09.51v3.5h-1Z"/><path d="M405.85,374.94a1.86,1.86,0,0,0,2,2,3.75,3.75,0,0,0,1.6-.3l.18.75a4.63,4.63,0,0,1-1.93.36,2.69,2.69,0,0,1-2.85-2.92c0-1.75,1-3.13,2.72-3.13a2.45,2.45,0,0,1,2.4,2.73,2.63,2.63,0,0,1,0,.49Zm3.09-.75a1.51,1.51,0,0,0-1.46-1.72,1.75,1.75,0,0,0-1.62,1.72Z"/><path d="M411.27,373.42c0-.6,0-1.09,0-1.57h.94l.06,1h0a2.14,2.14,0,0,1,1.92-1.09c.8,0,2,.48,2,2.47v3.46h-1v-3.34c0-.94-.35-1.72-1.35-1.72a1.5,1.5,0,0,0-1.41,1.08,1.45,1.45,0,0,0-.07.49v3.49h-1.06Z"/><path d="M419.15,370.18v1.67h1.52v.8h-1.52v3.13c0,.72.21,1.13.8,1.13a2.68,2.68,0,0,0,.61-.07l.05.79a2.73,2.73,0,0,1-.94.14,1.45,1.45,0,0,1-1.14-.44,2.15,2.15,0,0,1-.41-1.51v-3.17h-.9v-.8h.9v-1.39Z"/><path d="M279.34,392.1c-.06-1.12-.13-2.48-.12-3.49h0c-.27.95-.61,2-1,3.07l-1.42,3.93H276l-1.31-3.85c-.39-1.14-.71-2.19-.94-3.15h0c0,1-.08,2.37-.16,3.58l-.21,3.46h-1l.57-8.08h1.33l1.38,3.91c.33,1,.61,1.88.81,2.72h0c.2-.81.49-1.7.85-2.72l1.44-3.91h1.33l.5,8.08h-1Z"/><path d="M287.24,395.65c-.23-.22-.45-.45-.76-.79a3.29,3.29,0,0,1-2.36.93,2.29,2.29,0,0,1-2.48-2.27,2.65,2.65,0,0,1,1.58-2.36v0a2.77,2.77,0,0,1-.67-1.69,2,2,0,0,1,2.05-2,1.68,1.68,0,0,1,1.79,1.71c0,.86-.5,1.53-1.78,2.16v0c.68.79,1.45,1.68,2,2.25a6,6,0,0,0,.78-2.36h1a6.22,6.22,0,0,1-1.17,3l1.33,1.42ZM286,394.26c-.48-.52-1.38-1.51-2.28-2.54a2,2,0,0,0-1.05,1.64A1.59,1.59,0,0,0,284.3,395,2.28,2.28,0,0,0,286,394.26Zm-2.46-4.93a2.24,2.24,0,0,0,.61,1.45c.81-.46,1.34-.89,1.34-1.58a1,1,0,0,0-.93-1A1,1,0,0,0,283.51,389.33Z"/><path d="M290.74,393.11l-.84,2.54h-1.08l2.75-8.08h1.26l2.76,8.08h-1.12l-.86-2.54Zm2.65-.81L292.6,390c-.18-.53-.3-1-.42-1.48h0c-.12.48-.25,1-.41,1.47L291,392.3Z"/><path d="M305,395.39a5.2,5.2,0,0,1-2.13.38,3.78,3.78,0,0,1-4-4.09,4,4,0,0,1,4.23-4.24,4.2,4.2,0,0,1,1.91.36l-.25.85a3.8,3.8,0,0,0-1.63-.34,3,3,0,0,0-3.15,3.34,2.94,2.94,0,0,0,3.1,3.25,4.1,4.1,0,0,0,1.71-.34Z"/><path d="M311.37,392.7a2.84,2.84,0,0,1-2.89,3.09,2.76,2.76,0,0,1-2.78-3,2.83,2.83,0,0,1,2.87-3.08A2.75,2.75,0,0,1,311.37,392.7Zm-4.61.06c0,1.27.73,2.23,1.77,2.23s1.76-.94,1.76-2.25c0-1-.49-2.23-1.74-2.23S306.76,391.66,306.76,392.76Z"/><path d="M316.93,391.86h-3.15v2.92h3.5v.87h-4.54v-8.08h4.37v.88h-3.33V391h3.15Z"/><path d="M273.57,405.57V409h3.91v-3.38h1.06v8.08h-1.06v-3.79h-3.91v3.79h-1v-8.08Z"/><path d="M283.53,413.65l-.08-.73h0a2.16,2.16,0,0,1-1.78.87,1.65,1.65,0,0,1-1.77-1.67c0-1.4,1.25-2.17,3.49-2.16v-.12A1.19,1.19,0,0,0,282,408.5a2.84,2.84,0,0,0-1.51.43l-.24-.7a3.61,3.61,0,0,1,1.91-.51c1.77,0,2.2,1.21,2.2,2.37v2.17a8.24,8.24,0,0,0,.1,1.39Zm-.16-3c-1.15,0-2.46.18-2.46,1.31a.94.94,0,0,0,1,1,1.42,1.42,0,0,0,1.4-1,.92.92,0,0,0,.06-.33Z"/><path d="M286.1,409.66c0-.68,0-1.27-.05-1.81H287l0,1.14h.05a1.74,1.74,0,0,1,1.61-1.27,1.39,1.39,0,0,1,.3,0v1a1.88,1.88,0,0,0-.36,0,1.48,1.48,0,0,0-1.42,1.36,3.37,3.37,0,0,0-.05.49v3.09h-1Z"/><path d="M294.92,405.14v7c0,.52,0,1.11,0,1.5H294l0-1h0a2.18,2.18,0,0,1-2,1.14c-1.41,0-2.49-1.19-2.49-3,0-1.94,1.19-3.12,2.61-3.12a2,2,0,0,1,1.75.89h0v-3.47Zm-1.06,5.07a1.65,1.65,0,0,0-.05-.44,1.55,1.55,0,0,0-1.52-1.23c-1.09,0-1.74,1-1.74,2.25s.58,2.14,1.72,2.14a1.58,1.58,0,0,0,1.54-1.25,1.71,1.71,0,0,0,.05-.46Z"/><path d="M297.09,407.85l.77,2.95c.17.65.32,1.25.43,1.85h0c.13-.59.32-1.21.51-1.84l1-3h.89l.9,2.9c.21.7.38,1.31.51,1.9h0a16.78,16.78,0,0,1,.44-1.89l.83-2.91h1l-1.87,5.8h-1l-.89-2.77a18.89,18.89,0,0,1-.51-1.9h0c-.15.69-.33,1.29-.53,1.92l-.94,2.75h-1l-1.75-5.8Z"/><path d="M308.67,413.65l-.08-.73h0a2.16,2.16,0,0,1-1.78.87,1.65,1.65,0,0,1-1.77-1.67c0-1.4,1.25-2.17,3.49-2.16v-.12a1.19,1.19,0,0,0-1.32-1.34,2.84,2.84,0,0,0-1.51.43l-.24-.7a3.61,3.61,0,0,1,1.91-.51c1.77,0,2.2,1.21,2.2,2.37v2.17a8.24,8.24,0,0,0,.1,1.39Zm-.16-3c-1.15,0-2.46.18-2.46,1.31a.94.94,0,0,0,1,1,1.42,1.42,0,0,0,1.4-1,.92.92,0,0,0,.06-.33Z"/><path d="M311.24,409.66c0-.68,0-1.27-.05-1.81h.92l0,1.14h.05a1.74,1.74,0,0,1,1.61-1.27,1.39,1.39,0,0,1,.3,0v1a1.88,1.88,0,0,0-.36,0,1.48,1.48,0,0,0-1.42,1.36,3.37,3.37,0,0,0-.05.49v3.09h-1Z"/><path d="M315.63,410.94a1.86,1.86,0,0,0,2,2,3.8,3.8,0,0,0,1.61-.3l.18.75a4.67,4.67,0,0,1-1.93.36,2.69,2.69,0,0,1-2.86-2.92c0-1.75,1-3.13,2.73-3.13a2.45,2.45,0,0,1,2.39,2.73,4.49,4.49,0,0,1,0,.49Zm3.09-.75a1.5,1.5,0,0,0-1.46-1.72,1.76,1.76,0,0,0-1.62,1.72Z"/><path d="M324.94,411.11l-.84,2.54H323l2.75-8.08H327l2.76,8.08h-1.12l-.86-2.54Zm2.65-.81L326.8,408c-.18-.53-.3-1-.42-1.48h0c-.12.48-.25,1-.41,1.47l-.79,2.34Z"/><path d="M335.8,407.85c0,.42-.05.89-.05,1.59v3.38a3.32,3.32,0,0,1-.83,2.65,3.11,3.11,0,0,1-2.11.69,3.78,3.78,0,0,1-1.93-.48l.27-.8a3.25,3.25,0,0,0,1.7.45c1.08,0,1.87-.56,1.87-2v-.65h0a2.08,2.08,0,0,1-1.85,1,2.59,2.59,0,0,1-2.47-2.83,2.78,2.78,0,0,1,2.61-3.08,1.91,1.91,0,0,1,1.81,1h0l.05-.88Zm-1.09,2.29a1.44,1.44,0,0,0-.06-.48,1.53,1.53,0,0,0-1.48-1.12c-1,0-1.72.86-1.72,2.2,0,1.14.57,2.09,1.71,2.09a1.53,1.53,0,0,0,1.46-1.08,1.88,1.88,0,0,0,.09-.57Z"/><path d="M337.43,409.42c0-.6,0-1.09,0-1.57h.93l.06,1h0a2.11,2.11,0,0,1,1.91-1.09c.81,0,2.06.48,2.06,2.47v3.46h-1.06v-3.34c0-.94-.35-1.72-1.34-1.72a1.5,1.5,0,0,0-1.42,1.08,1.45,1.45,0,0,0-.07.49v3.49h-1.06Z"/><path d="M349.35,410.7a2.84,2.84,0,0,1-2.89,3.09,2.77,2.77,0,0,1-2.79-3,2.84,2.84,0,0,1,2.88-3.08A2.75,2.75,0,0,1,349.35,410.7Zm-4.61.06c0,1.27.73,2.23,1.76,2.23s1.77-.94,1.77-2.25c0-1-.49-2.23-1.74-2.23S344.74,409.66,344.74,410.76Z"/><path d="M350.54,412.57a2.69,2.69,0,0,0,1.39.42c.77,0,1.13-.38,1.13-.86s-.3-.78-1.08-1.07c-1.05-.37-1.54-.94-1.54-1.64a1.8,1.8,0,0,1,2-1.7,2.9,2.9,0,0,1,1.42.36l-.26.76a2.32,2.32,0,0,0-1.19-.33c-.62,0-1,.36-1,.79s.35.7,1.1,1c1,.39,1.53.89,1.53,1.75,0,1-.8,1.74-2.18,1.74a3.33,3.33,0,0,1-1.63-.39Z"/><path d="M356.71,406.18v1.67h1.51v.8h-1.51v3.13c0,.72.2,1.13.79,1.13a2.68,2.68,0,0,0,.61-.07l.05.79a2.73,2.73,0,0,1-.94.14,1.45,1.45,0,0,1-1.14-.44,2.15,2.15,0,0,1-.41-1.51v-3.17h-.9v-.8h.9v-1.39Z"/><path d="M360.58,406.22a.62.62,0,0,1-.67.65.63.63,0,0,1-.64-.65.65.65,0,0,1,.66-.66A.63.63,0,0,1,360.58,406.22Zm-1.17,7.43v-5.8h1v5.8Z"/><path d="M366.35,413.44a4,4,0,0,1-1.67.33,2.75,2.75,0,0,1-2.89-3,3,3,0,0,1,3.12-3.08,3.61,3.61,0,0,1,1.47.3l-.24.81a2.54,2.54,0,0,0-1.23-.27,2.19,2.19,0,0,0,0,4.36,3,3,0,0,0,1.29-.28Z"/><path d="M371.21,405.57v8.08h-1v-8.08Z"/><path d="M378.25,410.7a2.84,2.84,0,0,1-2.89,3.09,2.76,2.76,0,0,1-2.78-3,2.83,2.83,0,0,1,2.88-3.08A2.74,2.74,0,0,1,378.25,410.7Zm-4.6.06c0,1.27.73,2.23,1.76,2.23s1.77-.94,1.77-2.25c0-1-.5-2.23-1.74-2.23S373.65,409.66,373.65,410.76Z"/><path d="M380.68,406.46h-2.46v-.89h6v.89h-2.47v7.19h-1.06Z"/><path d="M387.65,405.67a11.55,11.55,0,0,1,2-.16,3.31,3.31,0,0,1,2.26.67,2.16,2.16,0,0,1,.71,1.69,2.4,2.4,0,0,1-.62,1.73,3.34,3.34,0,0,1-2.47.89,3.56,3.56,0,0,1-.84-.07v3.23h-1.05Zm1.05,3.89a3.38,3.38,0,0,0,.86.09c1.26,0,2-.61,2-1.73s-.76-1.58-1.91-1.58a4.26,4.26,0,0,0-1,.08Z"/><path d="M393.94,405.14H395v8.51h-1.06Z"/><path d="M400,413.65l-.09-.73h0a2.17,2.17,0,0,1-1.78.87,1.65,1.65,0,0,1-1.77-1.67c0-1.4,1.25-2.17,3.49-2.16v-.12a1.19,1.19,0,0,0-1.32-1.34,2.84,2.84,0,0,0-1.51.43l-.24-.7a3.61,3.61,0,0,1,1.91-.51c1.77,0,2.2,1.21,2.2,2.37v2.17a8.24,8.24,0,0,0,.1,1.39Zm-.16-3c-1.15,0-2.46.18-2.46,1.31a.94.94,0,0,0,1,1,1.44,1.44,0,0,0,1.4-1,.92.92,0,0,0,.06-.33Z"/><path d="M403.78,406.18v1.67h1.51v.8h-1.51v3.13c0,.72.21,1.13.79,1.13a2.6,2.6,0,0,0,.61-.07l.05.79a2.67,2.67,0,0,1-.93.14,1.45,1.45,0,0,1-1.14-.44,2.15,2.15,0,0,1-.41-1.51v-3.17h-.9v-.8h.9v-1.39Z"/><path d="M406.59,413.65v-5h-.82v-.8h.82v-.28a2.72,2.72,0,0,1,.67-2,2,2,0,0,1,1.42-.54,2.59,2.59,0,0,1,.9.16l-.15.82a1.58,1.58,0,0,0-.67-.13c-.9,0-1.13.79-1.13,1.68v.31H409v.8h-1.41v5Z"/><path d="M415.08,410.7a2.84,2.84,0,0,1-2.89,3.09,2.76,2.76,0,0,1-2.78-3,2.83,2.83,0,0,1,2.88-3.08A2.74,2.74,0,0,1,415.08,410.7Zm-4.6.06c0,1.27.73,2.23,1.76,2.23s1.76-.94,1.76-2.25c0-1-.49-2.23-1.74-2.23S410.48,409.66,410.48,410.76Z"/><path d="M416.42,409.66c0-.68,0-1.27-.05-1.81h.92l0,1.14h.05a1.74,1.74,0,0,1,1.6-1.27,1.32,1.32,0,0,1,.3,0v1a1.71,1.71,0,0,0-.36,0,1.48,1.48,0,0,0-1.41,1.36,3.37,3.37,0,0,0-.05.49v3.09h-1Z"/><path d="M420.39,409.42c0-.6,0-1.09-.05-1.57h.92l.05.93h0a2,2,0,0,1,1.82-1.06,1.74,1.74,0,0,1,1.65,1.16h0a2.42,2.42,0,0,1,.65-.75,1.93,1.93,0,0,1,1.28-.41c.77,0,1.91.5,1.91,2.52v3.41h-1v-3.28c0-1.12-.41-1.79-1.26-1.79a1.38,1.38,0,0,0-1.25,1,1.68,1.68,0,0,0-.09.53v3.58h-1v-3.47c0-.93-.41-1.6-1.21-1.6a1.45,1.45,0,0,0-1.31,1.06,1.65,1.65,0,0,0-.08.51v3.5h-1Z"/><path d="M262.41,359.17l3.52-3.51a.23.23,0,0,0,.07-.17.24.24,0,0,0-.07-.18l-3.52-3.51a.23.23,0,0,0-.17-.08.25.25,0,0,0-.17.08l-.38.38a.23.23,0,0,0-.07.17.22.22,0,0,0,.07.17l3,3-3,3a.23.23,0,0,0-.07.17.24.24,0,0,0,.07.18l.38.37a.21.21,0,0,0,.17.08A.2.2,0,0,0,262.41,359.17Z"/><path d="M262.41,395.31l3.52-3.51a.24.24,0,0,0,.07-.18.23.23,0,0,0-.07-.17l-3.52-3.52a.22.22,0,0,0-.17-.07.23.23,0,0,0-.17.07l-.38.38a.24.24,0,0,0-.07.18.23.23,0,0,0,.07.17l3,3-3,3a.22.22,0,0,0-.07.17.23.23,0,0,0,.07.17l.38.38a.23.23,0,0,0,.17.07A.22.22,0,0,0,262.41,395.31Z"/><path d="M262.41,377.1l3.52-3.51a.26.26,0,0,0,.07-.18.23.23,0,0,0-.07-.17l-3.52-3.52a.22.22,0,0,0-.17-.07.23.23,0,0,0-.17.07l-.38.38a.23.23,0,0,0-.07.17.24.24,0,0,0,.07.18l3,3-3,3a.22.22,0,0,0-.07.17.23.23,0,0,0,.07.17l.38.38a.23.23,0,0,0,.17.07A.22.22,0,0,0,262.41,377.1Z"/><path d="M262.41,413.18l3.52-3.52a.24.24,0,0,0,0-.34l-3.52-3.52a.22.22,0,0,0-.17-.07.23.23,0,0,0-.17.07l-.38.38a.23.23,0,0,0-.07.17.24.24,0,0,0,.07.18l3,3-3,3a.24.24,0,0,0-.07.18.23.23,0,0,0,.07.17l.38.38a.23.23,0,0,0,.17.07A.22.22,0,0,0,262.41,413.18Z"/><path d="M25.68,253.65,23,245.57h1.13l1.26,4c.35,1.09.65,2.08.86,3h0c.23-.93.56-1.95.92-3l1.37-4h1.11l-2.89,8.08Z"/><path d="M33.39,253.65l-.09-.73h0a2.17,2.17,0,0,1-1.78.87,1.65,1.65,0,0,1-1.77-1.67c0-1.4,1.24-2.17,3.49-2.16v-.12a1.2,1.2,0,0,0-1.32-1.34,2.9,2.9,0,0,0-1.51.43l-.24-.7a3.6,3.6,0,0,1,1.9-.51c1.78,0,2.21,1.21,2.21,2.37v2.17a7.31,7.31,0,0,0,.1,1.39Zm-.16-3c-1.15,0-2.46.18-2.46,1.31a.94.94,0,0,0,1,1,1.44,1.44,0,0,0,1.4-1,.92.92,0,0,0,.06-.33Z"/><path d="M36,245.14h1v8.51H36Z"/><path d="M40,246.22a.62.62,0,0,1-.67.65.63.63,0,0,1-.63-.65.64.64,0,0,1,.66-.66A.62.62,0,0,1,40,246.22Zm-1.17,7.43v-5.8h1.05v5.8Z"/><path d="M46.61,245.14v7c0,.51,0,1.1,0,1.49h-.95l-.05-1h0a2.17,2.17,0,0,1-2,1.14c-1.4,0-2.48-1.19-2.48-2.95,0-1.94,1.18-3.12,2.6-3.12a1.93,1.93,0,0,1,1.75.89h0v-3.47Zm-1.06,5.07a2.18,2.18,0,0,0,0-.44A1.57,1.57,0,0,0,44,248.54c-1.09,0-1.74,1-1.74,2.25s.58,2.15,1.72,2.15a1.6,1.6,0,0,0,1.55-1.26,2.25,2.25,0,0,0,0-.46Z"/><path d="M51.58,253.65l-.09-.73h0a2.17,2.17,0,0,1-1.78.87,1.65,1.65,0,0,1-1.77-1.67c0-1.4,1.25-2.17,3.49-2.16v-.12a1.19,1.19,0,0,0-1.32-1.34,2.93,2.93,0,0,0-1.51.43l-.24-.7a3.61,3.61,0,0,1,1.91-.51c1.77,0,2.2,1.21,2.2,2.37v2.17a8.24,8.24,0,0,0,.1,1.39Zm-.16-3c-1.15,0-2.46.18-2.46,1.31a.94.94,0,0,0,1,1,1.44,1.44,0,0,0,1.4-1,.92.92,0,0,0,.06-.33Z"/><path d="M55.37,246.18v1.67h1.51v.8H55.37v3.13c0,.72.21,1.13.79,1.13a2.78,2.78,0,0,0,.62-.07l0,.79a2.59,2.59,0,0,1-.93.15,1.46,1.46,0,0,1-1.14-.45,2.15,2.15,0,0,1-.41-1.51v-3.17h-.9v-.8h.9v-1.39Z"/><path d="M58.59,250.94a1.86,1.86,0,0,0,2,2,3.83,3.83,0,0,0,1.61-.3l.18.75a4.69,4.69,0,0,1-1.94.37,2.7,2.7,0,0,1-2.85-2.93c0-1.75,1-3.13,2.72-3.13a2.45,2.45,0,0,1,2.4,2.73,4.49,4.49,0,0,1,0,.49Zm3.09-.75a1.5,1.5,0,0,0-1.46-1.72,1.75,1.75,0,0,0-1.62,1.72Z"/><path d="M69,245.14v7c0,.51,0,1.1,0,1.49h-.94l0-1h0a2.16,2.16,0,0,1-2,1.14c-1.4,0-2.48-1.19-2.48-2.95,0-1.94,1.19-3.12,2.6-3.12a2,2,0,0,1,1.76.89h0v-3.47ZM68,250.21a1.65,1.65,0,0,0,0-.44,1.55,1.55,0,0,0-1.52-1.23c-1.09,0-1.74,1-1.74,2.25s.58,2.15,1.71,2.15a1.59,1.59,0,0,0,1.55-1.26,1.71,1.71,0,0,0,0-.46Z"/><path d="M79,253.39a5.18,5.18,0,0,1-2.14.39,3.78,3.78,0,0,1-4-4.09,4,4,0,0,1,4.22-4.25,4.26,4.26,0,0,1,1.92.36l-.25.85a3.84,3.84,0,0,0-1.63-.34A3,3,0,0,0,74,249.65a2.94,2.94,0,0,0,3.11,3.25,4,4,0,0,0,1.7-.34Z"/><path d="M80.28,245.14h1.06v8.51H80.28Z"/><path d="M88.37,250.7a2.84,2.84,0,0,1-2.89,3.09,2.76,2.76,0,0,1-2.78-3,2.83,2.83,0,0,1,2.87-3.08A2.75,2.75,0,0,1,88.37,250.7Zm-4.61.06c0,1.27.74,2.23,1.77,2.23s1.76-.94,1.76-2.25c0-1-.49-2.23-1.74-2.23S83.76,249.66,83.76,250.76Z"/><path d="M94.56,252.07c0,.6,0,1.13,0,1.58h-.94l-.06-.94h0a2.19,2.19,0,0,1-1.92,1.08c-.91,0-2-.51-2-2.55v-3.39h1v3.21c0,1.11.34,1.85,1.3,1.85a1.5,1.5,0,0,0,1.49-1.5v-3.56h1Z"/><path d="M101.33,245.14v7c0,.51,0,1.1,0,1.49h-.95l-.05-1h0a2.17,2.17,0,0,1-2,1.14c-1.4,0-2.48-1.19-2.48-2.95,0-1.94,1.18-3.12,2.6-3.12a1.93,1.93,0,0,1,1.75.89h0v-3.47Zm-1.06,5.07a2.18,2.18,0,0,0,0-.44,1.57,1.57,0,0,0-1.53-1.23c-1.09,0-1.74,1-1.74,2.25s.58,2.15,1.72,2.15a1.6,1.6,0,0,0,1.55-1.26,2.25,2.25,0,0,0,0-.46Z"/><path d="M105.66,245.67a11.55,11.55,0,0,1,2-.16,3.31,3.31,0,0,1,2.26.67,2.16,2.16,0,0,1,.71,1.69,2.4,2.4,0,0,1-.62,1.73,3.34,3.34,0,0,1-2.47.89,3.56,3.56,0,0,1-.84-.07v3.23h-1Zm1,3.89a3.38,3.38,0,0,0,.86.09c1.26,0,2-.61,2-1.73s-.76-1.58-1.91-1.58a4.26,4.26,0,0,0-1,.08Z"/><path d="M112,245.14H113v8.51H112Z"/><path d="M118,253.65l-.09-.73h0a2.17,2.17,0,0,1-1.78.87,1.65,1.65,0,0,1-1.77-1.67c0-1.4,1.24-2.17,3.49-2.16v-.12a1.19,1.19,0,0,0-1.32-1.34,2.93,2.93,0,0,0-1.51.43l-.24-.7a3.6,3.6,0,0,1,1.9-.51c1.78,0,2.21,1.21,2.21,2.37v2.17a7.31,7.31,0,0,0,.1,1.39Zm-.16-3c-1.15,0-2.46.18-2.46,1.31a.94.94,0,0,0,1,1,1.44,1.44,0,0,0,1.4-1,.92.92,0,0,0,.06-.33Z"/><path d="M121.79,246.18v1.67h1.51v.8h-1.51v3.13c0,.72.2,1.13.79,1.13a2.6,2.6,0,0,0,.61-.07l0,.79a2.63,2.63,0,0,1-.93.15,1.45,1.45,0,0,1-1.14-.45,2.15,2.15,0,0,1-.41-1.51v-3.17h-.9v-.8h.9v-1.39Z"/><path d="M124.6,253.65v-5h-.82v-.8h.82v-.28a2.74,2.74,0,0,1,.67-2,2,2,0,0,1,1.42-.54,2.36,2.36,0,0,1,.9.17l-.15.81a1.58,1.58,0,0,0-.67-.13c-.9,0-1.13.79-1.13,1.68v.31h1.41v.8h-1.41v5Z"/><path d="M133.09,250.7a2.84,2.84,0,0,1-2.89,3.09,2.76,2.76,0,0,1-2.78-3,2.83,2.83,0,0,1,2.88-3.08A2.74,2.74,0,0,1,133.09,250.7Zm-4.6.06c0,1.27.73,2.23,1.76,2.23s1.76-.94,1.76-2.25c0-1-.49-2.23-1.74-2.23S128.49,249.66,128.49,250.76Z"/><path d="M134.43,249.66c0-.68,0-1.27-.05-1.81h.92l0,1.14h0a1.74,1.74,0,0,1,1.6-1.27,1.32,1.32,0,0,1,.3,0v1a1.71,1.71,0,0,0-.36,0,1.48,1.48,0,0,0-1.41,1.36,2.38,2.38,0,0,0-.05.49v3.09h-1Z"/><path d="M138.4,249.42c0-.6,0-1.09-.05-1.57h.92l0,.93h0a2,2,0,0,1,1.82-1.06,1.71,1.71,0,0,1,1.64,1.16h0a2.42,2.42,0,0,1,.65-.75,1.93,1.93,0,0,1,1.28-.41c.77,0,1.91.5,1.91,2.52v3.41h-1v-3.28c0-1.12-.4-1.79-1.25-1.79a1.38,1.38,0,0,0-1.25,1,1.73,1.73,0,0,0-.09.53v3.58h-1v-3.47c0-.93-.41-1.6-1.21-1.6a1.45,1.45,0,0,0-1.31,1.06,1.4,1.4,0,0,0-.08.51v3.5h-1Z"/><path d="M148.26,252.57a2.72,2.72,0,0,0,1.39.42c.77,0,1.13-.38,1.13-.86s-.3-.78-1.08-1.07c-1-.37-1.53-.94-1.53-1.64a1.79,1.79,0,0,1,2-1.7,2.94,2.94,0,0,1,1.43.36l-.27.77a2.15,2.15,0,0,0-1.18-.34c-.63,0-1,.36-1,.79s.35.7,1.11,1c1,.39,1.52.89,1.52,1.75,0,1-.79,1.75-2.17,1.75a3.3,3.3,0,0,1-1.63-.4Z"/><path d="M23.76,270.38a3.71,3.71,0,0,0,1.87.53c1.07,0,1.7-.56,1.7-1.38s-.44-1.19-1.53-1.61c-1.32-.46-2.13-1.15-2.13-2.29a2.32,2.32,0,0,1,2.61-2.19,3.73,3.73,0,0,1,1.79.39l-.29.86a3.11,3.11,0,0,0-1.53-.39c-1.11,0-1.53.66-1.53,1.21,0,.76.5,1.13,1.61,1.56,1.37.53,2.06,1.19,2.06,2.38s-.92,2.33-2.83,2.33a4.13,4.13,0,0,1-2.06-.52Z"/><path d="M36.73,267.53c0,2.78-1.69,4.26-3.75,4.26s-3.64-1.66-3.64-4.1,1.6-4.25,3.76-4.25S36.73,265.13,36.73,267.53Zm-6.27.13c0,1.73.93,3.28,2.58,3.28s2.59-1.53,2.59-3.36c0-1.61-.84-3.29-2.58-3.29S30.46,265.89,30.46,267.66Z"/><path d="M43.74,271.39a5.16,5.16,0,0,1-2.13.39,3.78,3.78,0,0,1-4-4.09,4,4,0,0,1,4.22-4.25,4.22,4.22,0,0,1,1.92.36l-.25.85a3.8,3.8,0,0,0-1.63-.34,3,3,0,0,0-3.15,3.34,2.93,2.93,0,0,0,3.1,3.25,4.1,4.1,0,0,0,1.71-.34Z"/><path d="M23.91,281.67a11.33,11.33,0,0,1,2-.16,3.34,3.34,0,0,1,2.27.67,2.19,2.19,0,0,1,.7,1.69,2.36,2.36,0,0,1-.62,1.73,3.34,3.34,0,0,1-2.47.89,3.61,3.61,0,0,1-.84-.07v3.23h-1Zm1,3.89a3.49,3.49,0,0,0,.86.09c1.26,0,2-.61,2-1.73s-.75-1.58-1.91-1.58a4.32,4.32,0,0,0-1,.08Z"/><path d="M33.16,289.65l-.09-.73h0a2.17,2.17,0,0,1-1.78.87,1.65,1.65,0,0,1-1.77-1.67c0-1.4,1.25-2.17,3.49-2.16v-.12a1.19,1.19,0,0,0-1.32-1.34,2.93,2.93,0,0,0-1.51.43l-.24-.7a3.6,3.6,0,0,1,1.9-.51c1.78,0,2.21,1.21,2.21,2.37v2.17a8.24,8.24,0,0,0,.1,1.39Zm-.16-3c-1.15,0-2.46.18-2.46,1.31a.94.94,0,0,0,1,1,1.44,1.44,0,0,0,1.4-1,.92.92,0,0,0,.06-.33Z"/><path d="M35.73,285.74c0-.74,0-1.34,0-1.89h1l0,1h0a2.27,2.27,0,0,1,2.06-1.13c1.4,0,2.46,1.18,2.46,2.95,0,2.09-1.27,3.12-2.64,3.12a2,2,0,0,1-1.79-.92h0V292h-1Zm1,1.55a1.88,1.88,0,0,0,0,.43A1.63,1.63,0,0,0,38.4,289c1.12,0,1.76-.91,1.76-2.24,0-1.17-.61-2.16-1.72-2.16a1.69,1.69,0,0,0-1.6,1.3,2.13,2.13,0,0,0-.07.44Z"/><path d="M43.14,286.94a1.87,1.87,0,0,0,2,2,3.8,3.8,0,0,0,1.61-.3l.18.75a4.63,4.63,0,0,1-1.93.37,2.7,2.7,0,0,1-2.86-2.93c0-1.75,1-3.13,2.73-3.13a2.46,2.46,0,0,1,2.4,2.73,4,4,0,0,1,0,.49Zm3.1-.75a1.51,1.51,0,0,0-1.47-1.72,1.77,1.77,0,0,0-1.62,1.72Z"/><path d="M48.57,285.66c0-.68,0-1.27,0-1.81h.92l0,1.14h.05a1.74,1.74,0,0,1,1.6-1.27,1.32,1.32,0,0,1,.3,0v1a1.79,1.79,0,0,0-.36,0,1.48,1.48,0,0,0-1.41,1.36,2.38,2.38,0,0,0,0,.49v3.09h-1Z"/><path d="M52.54,281.14h1.05v8.51H52.54Z"/><path d="M56,286.94a1.86,1.86,0,0,0,2,2,3.83,3.83,0,0,0,1.61-.3l.18.75a4.67,4.67,0,0,1-1.93.37A2.7,2.7,0,0,1,55,286.85c0-1.75,1-3.13,2.72-3.13a2.45,2.45,0,0,1,2.4,2.73,4.49,4.49,0,0,1,0,.49Zm3.09-.75a1.5,1.5,0,0,0-1.46-1.72A1.75,1.75,0,0,0,56,286.19Z"/><path d="M61.24,288.57a2.69,2.69,0,0,0,1.39.42c.77,0,1.13-.38,1.13-.86s-.3-.78-1.08-1.07c-1-.37-1.54-.94-1.54-1.64a1.8,1.8,0,0,1,2-1.7,2.9,2.9,0,0,1,1.42.36l-.26.77a2.22,2.22,0,0,0-1.19-.34c-.62,0-1,.36-1,.79s.35.7,1.1,1c1,.39,1.53.89,1.53,1.75,0,1-.79,1.75-2.17,1.75a3.34,3.34,0,0,1-1.64-.4Z"/><path d="M66,288.57a2.69,2.69,0,0,0,1.39.42c.77,0,1.13-.38,1.13-.86s-.3-.78-1.08-1.07c-1-.37-1.54-.94-1.54-1.64a1.8,1.8,0,0,1,2-1.7,2.87,2.87,0,0,1,1.42.36l-.26.77a2.22,2.22,0,0,0-1.19-.34c-.62,0-1,.36-1,.79s.35.7,1.11,1c1,.39,1.52.89,1.52,1.75,0,1-.79,1.75-2.17,1.75a3.27,3.27,0,0,1-1.63-.4Z"/><path d="M74.81,289.65l-2.64-8.08H73.3l1.26,4c.34,1.09.65,2.08.86,3h0c.22-.93.56-1.95.92-3l1.37-4h1.11L76,289.65Z"/><path d="M82.51,289.65l-.08-.73h0a2.14,2.14,0,0,1-1.77.87,1.66,1.66,0,0,1-1.78-1.67c0-1.4,1.25-2.17,3.49-2.16v-.12A1.19,1.19,0,0,0,81,284.5a2.93,2.93,0,0,0-1.51.43l-.24-.7a3.63,3.63,0,0,1,1.91-.51c1.77,0,2.21,1.21,2.21,2.37v2.17a8.32,8.32,0,0,0,.09,1.39Zm-.15-3c-1.16,0-2.46.18-2.46,1.31a.93.93,0,0,0,1,1,1.45,1.45,0,0,0,1.41-1,1.2,1.2,0,0,0,.06-.33Z"/><path d="M85.08,281.14h1.06v8.51H85.08Z"/><path d="M89.09,282.22a.62.62,0,0,1-.67.65.63.63,0,0,1-.64-.65.65.65,0,0,1,.66-.66A.63.63,0,0,1,89.09,282.22Zm-1.18,7.43v-5.8H89v5.8Z"/><path d="M95.74,281.14v7c0,.51,0,1.1,0,1.49h-.94l0-1h0a2.15,2.15,0,0,1-2,1.14c-1.41,0-2.49-1.19-2.49-3,0-1.94,1.19-3.12,2.6-3.12a2,2,0,0,1,1.76.89h0v-3.47Zm-1.06,5.07a1.65,1.65,0,0,0-.05-.44,1.55,1.55,0,0,0-1.52-1.23c-1.09,0-1.74,1-1.74,2.25s.58,2.15,1.72,2.15a1.59,1.59,0,0,0,1.54-1.26,1.71,1.71,0,0,0,.05-.46Z"/><path d="M100.7,289.65l-.08-.73h0a2.14,2.14,0,0,1-1.77.87A1.66,1.66,0,0,1,97,288.12c0-1.4,1.25-2.17,3.49-2.16v-.12a1.19,1.19,0,0,0-1.31-1.34,3,3,0,0,0-1.52.43l-.24-.7a3.63,3.63,0,0,1,1.91-.51c1.78,0,2.21,1.21,2.21,2.37v2.17a8.32,8.32,0,0,0,.09,1.39Zm-.15-3c-1.15,0-2.46.18-2.46,1.31a.94.94,0,0,0,1,1,1.44,1.44,0,0,0,1.4-1,1.2,1.2,0,0,0,.06-.33Z"/><path d="M104.5,282.18v1.67H106v.8H104.5v3.13c0,.72.2,1.13.79,1.13a2.6,2.6,0,0,0,.61-.07l0,.79a2.65,2.65,0,0,1-.94.15,1.47,1.47,0,0,1-1.14-.45,2.15,2.15,0,0,1-.4-1.51v-3.17h-.9v-.8h.9v-1.39Z"/><path d="M108.37,282.22a.62.62,0,0,1-.67.65.63.63,0,0,1-.63-.65.64.64,0,0,1,.66-.66A.62.62,0,0,1,108.37,282.22Zm-1.17,7.43v-5.8h1v5.8Z"/><path d="M115.26,286.7a2.84,2.84,0,0,1-2.89,3.09,2.76,2.76,0,0,1-2.78-3,2.83,2.83,0,0,1,2.88-3.08A2.75,2.75,0,0,1,115.26,286.7Zm-4.61.06c0,1.27.74,2.23,1.77,2.23s1.76-.94,1.76-2.25c0-1-.49-2.23-1.74-2.23S110.65,285.66,110.65,286.76Z"/><path d="M116.59,285.42c0-.6,0-1.09,0-1.57h.93l.06,1h0a2.13,2.13,0,0,1,1.92-1.09c.8,0,2.05.48,2.05,2.47v3.46h-1.06v-3.34c0-.94-.35-1.72-1.34-1.72a1.51,1.51,0,0,0-1.42,1.08,1.45,1.45,0,0,0-.07.49v3.49h-1.06Z"/><path d="M13.8,253.17l3.51-3.51a.23.23,0,0,0,.07-.17.24.24,0,0,0-.07-.18L13.8,245.8a.25.25,0,0,0-.18-.08.25.25,0,0,0-.17.08l-.38.38a.23.23,0,0,0-.07.17.22.22,0,0,0,.07.17l3,3-3,3a.23.23,0,0,0-.07.17.24.24,0,0,0,.07.18l.38.37a.21.21,0,0,0,.17.08A.22.22,0,0,0,13.8,253.17Z"/><path d="M13.8,271.31l3.51-3.51a.23.23,0,0,0,.07-.17.24.24,0,0,0-.07-.18l-3.51-3.51a.25.25,0,0,0-.18-.08.25.25,0,0,0-.17.08l-.38.38a.23.23,0,0,0-.07.17.22.22,0,0,0,.07.17l3,3-3,3a.23.23,0,0,0-.07.17.24.24,0,0,0,.07.18l.38.37a.21.21,0,0,0,.17.08A.22.22,0,0,0,13.8,271.31Z"/><path d="M13.8,289.19l3.51-3.51a.24.24,0,0,0,.07-.18.23.23,0,0,0-.07-.17l-3.51-3.51a.25.25,0,0,0-.18-.08.25.25,0,0,0-.17.08l-.38.37a.24.24,0,0,0-.07.18.23.23,0,0,0,.07.17l3,3-3,3a.23.23,0,0,0-.07.17.22.22,0,0,0,.07.17l.38.38a.25.25,0,0,0,.17.08A.25.25,0,0,0,13.8,289.19Z"/><path d="M23.76,69.38a3.71,3.71,0,0,0,1.87.53c1.07,0,1.7-.56,1.7-1.38s-.44-1.19-1.53-1.61c-1.32-.46-2.13-1.15-2.13-2.29a2.32,2.32,0,0,1,2.61-2.19,3.73,3.73,0,0,1,1.79.39l-.29.86a3.11,3.11,0,0,0-1.53-.39c-1.11,0-1.53.66-1.53,1.21,0,.76.5,1.13,1.61,1.56,1.37.53,2.06,1.19,2.06,2.38s-.92,2.32-2.83,2.32a4.14,4.14,0,0,1-2.06-.51Z"/><path d="M33,70.65,33,69.92h0a2.17,2.17,0,0,1-1.78.87,1.65,1.65,0,0,1-1.77-1.67c0-1.4,1.24-2.17,3.49-2.16v-.12a1.19,1.19,0,0,0-1.32-1.34,2.84,2.84,0,0,0-1.51.43l-.24-.7a3.6,3.6,0,0,1,1.9-.51c1.78,0,2.21,1.21,2.21,2.37v2.17a7.31,7.31,0,0,0,.1,1.39Zm-.16-3c-1.15,0-2.46.18-2.46,1.31a.94.94,0,0,0,1,1,1.44,1.44,0,0,0,1.4-1,.92.92,0,0,0,.06-.33Z"/><path d="M42.46,67.1c-.06-1.12-.14-2.48-.12-3.49h0c-.28,1-.61,2-1,3.07l-1.43,3.93h-.79l-1.31-3.85c-.38-1.14-.7-2.19-.93-3.15h0c0,1-.09,2.37-.16,3.58l-.22,3.46h-1L36,62.57h1.33l1.38,3.91c.34,1,.61,1.88.82,2.72h0c.21-.81.5-1.7.85-2.72l1.44-3.91h1.34l.5,8.08h-1Z"/><path d="M45.29,62.68a14.44,14.44,0,0,1,2.22-.17,4.6,4.6,0,0,1,3.27,1,3.71,3.71,0,0,1,1.14,2.9,4.24,4.24,0,0,1-1.16,3.14,5,5,0,0,1-3.57,1.17,16.77,16.77,0,0,1-1.9-.1Zm1,7.15a7.79,7.79,0,0,0,1.06.06,3.11,3.11,0,0,0,3.44-3.43c0-1.91-1.07-3.12-3.27-3.12a6,6,0,0,0-1.23.11Z"/><path d="M23.91,80.68a14.33,14.33,0,0,1,2.22-.17,4.62,4.62,0,0,1,3.27,1,3.71,3.71,0,0,1,1.14,2.9,4.28,4.28,0,0,1-1.16,3.14,5,5,0,0,1-3.58,1.17,16.72,16.72,0,0,1-1.89-.1Zm1,7.15a7.79,7.79,0,0,0,1.06.06,3.11,3.11,0,0,0,3.44-3.43c0-1.91-1.07-3.12-3.28-3.12a5.89,5.89,0,0,0-1.22.11Z"/><path d="M33,81.22a.62.62,0,0,1-.67.65.63.63,0,0,1-.64-.65.65.65,0,0,1,.66-.66A.63.63,0,0,1,33,81.22Zm-1.18,7.43v-5.8h1.06v5.8Z"/><path d="M39.67,82.85c0,.42-.05.89-.05,1.59v3.37a3.37,3.37,0,0,1-.82,2.66,3.12,3.12,0,0,1-2.11.69,3.73,3.73,0,0,1-1.93-.48l.26-.8a3.25,3.25,0,0,0,1.7.45c1.08,0,1.87-.56,1.87-2v-.65h0a2.07,2.07,0,0,1-1.85,1,2.59,2.59,0,0,1-2.47-2.83,2.79,2.79,0,0,1,2.62-3.08,1.93,1.93,0,0,1,1.81,1h0l0-.87Zm-1.09,2.29a1.44,1.44,0,0,0-.06-.48,1.53,1.53,0,0,0-1.47-1.12c-1,0-1.73.86-1.73,2.2,0,1.14.57,2.09,1.71,2.09a1.55,1.55,0,0,0,1.47-1.08,1.87,1.87,0,0,0,.08-.57Z"/><path d="M42.48,81.22a.62.62,0,0,1-.67.65.63.63,0,0,1-.63-.65.64.64,0,0,1,.66-.66A.62.62,0,0,1,42.48,81.22Zm-1.17,7.43v-5.8h1v5.8Z"/><path d="M45.39,81.18v1.67H46.9v.8H45.39v3.13c0,.72.2,1.13.79,1.13a2.68,2.68,0,0,0,.61-.07l.05.79a2.73,2.73,0,0,1-.94.14,1.47,1.47,0,0,1-1.14-.44,2.15,2.15,0,0,1-.4-1.51V83.65h-.9v-.8h.9V81.46Z"/><path d="M51.3,88.65l-.08-.73h0a2.15,2.15,0,0,1-1.77.87,1.66,1.66,0,0,1-1.78-1.67c0-1.4,1.25-2.17,3.49-2.16v-.12A1.19,1.19,0,0,0,49.8,83.5a2.84,2.84,0,0,0-1.51.43l-.24-.7A3.63,3.63,0,0,1,50,82.72c1.77,0,2.21,1.21,2.21,2.37v2.17a8.32,8.32,0,0,0,.09,1.39Zm-.15-3c-1.16,0-2.46.18-2.46,1.31a.93.93,0,0,0,1,1,1.45,1.45,0,0,0,1.41-1,1.2,1.2,0,0,0,.06-.33Z"/><path d="M53.87,80.14h1.06v8.51H53.87Z"/><path d="M60.33,81.46H57.87v-.89h6v.89H61.38v7.19H60.33Z"/><path d="M64.18,84.66c0-.68,0-1.27-.05-1.81h.93l0,1.14h0a1.74,1.74,0,0,1,1.61-1.27,1.39,1.39,0,0,1,.3,0v1a1.32,1.32,0,0,0-.36,0,1.49,1.49,0,0,0-1.42,1.36,3.37,3.37,0,0,0,0,.49v3.09h-1Z"/><path d="M69.33,81.22a.66.66,0,0,1-1.31,0,.65.65,0,0,1,.66-.66A.63.63,0,0,1,69.33,81.22Zm-1.18,7.43v-5.8h1.06v5.8Z"/><path d="M74.17,88.65l-.08-.73h0a2.14,2.14,0,0,1-1.77.87,1.66,1.66,0,0,1-1.78-1.67C70.5,85.72,71.75,85,74,85v-.12a1.19,1.19,0,0,0-1.32-1.34,2.84,2.84,0,0,0-1.51.43l-.24-.7a3.63,3.63,0,0,1,1.91-.51c1.78,0,2.21,1.21,2.21,2.37v2.17a8.32,8.32,0,0,0,.09,1.39Zm-.15-3c-1.15,0-2.46.18-2.46,1.31a.94.94,0,0,0,1,1A1.45,1.45,0,0,0,74,87,1.2,1.2,0,0,0,74,86.7Z"/><path d="M76.74,80.14H77.8v8.51H76.74Z"/><path d="M23.91,98.67a11.33,11.33,0,0,1,2-.16,3.34,3.34,0,0,1,2.27.67,2.19,2.19,0,0,1,.7,1.69,2.38,2.38,0,0,1-.62,1.73,3.34,3.34,0,0,1-2.47.89,3.61,3.61,0,0,1-.84-.07v3.23h-1Zm1,3.89a3.49,3.49,0,0,0,.86.09c1.26,0,2-.61,2-1.73s-.75-1.58-1.91-1.58a4.32,4.32,0,0,0-1,.08Z"/><path d="M33.16,106.65l-.09-.73h0a2.17,2.17,0,0,1-1.78.87,1.65,1.65,0,0,1-1.77-1.67c0-1.4,1.25-2.17,3.49-2.16v-.12a1.19,1.19,0,0,0-1.32-1.34,2.84,2.84,0,0,0-1.51.43l-.24-.7a3.6,3.6,0,0,1,1.9-.51c1.78,0,2.21,1.21,2.21,2.37v2.17a8.24,8.24,0,0,0,.1,1.39Zm-.16-3c-1.15,0-2.46.18-2.46,1.31a.94.94,0,0,0,1,1,1.44,1.44,0,0,0,1.4-1,.92.92,0,0,0,.06-.33Z"/><path d="M37,99.18v1.67h1.51v.8H37v3.13c0,.72.2,1.13.79,1.13a2.6,2.6,0,0,0,.61-.07l0,.79a2.67,2.67,0,0,1-.93.14,1.44,1.44,0,0,1-1.14-.44,2.15,2.15,0,0,1-.41-1.51v-3.17H35v-.8h.9V99.46Z"/><path d="M40.83,99.22a.63.63,0,0,1-.68.65.63.63,0,0,1-.63-.65.65.65,0,0,1,.66-.66A.63.63,0,0,1,40.83,99.22Zm-1.18,7.43v-5.8h1.06v5.8Z"/><path d="M43.05,103.94a1.86,1.86,0,0,0,2,2,3.75,3.75,0,0,0,1.6-.3l.18.75a4.63,4.63,0,0,1-1.93.36A2.69,2.69,0,0,1,42,103.85c0-1.75,1-3.13,2.72-3.13a2.45,2.45,0,0,1,2.4,2.73,2.63,2.63,0,0,1,0,.49Zm3.09-.75a1.5,1.5,0,0,0-1.46-1.72,1.75,1.75,0,0,0-1.62,1.72Z"/><path d="M48.47,102.42c0-.6,0-1.09,0-1.57h.94l.06,1h0a2.14,2.14,0,0,1,1.92-1.09c.8,0,2,.48,2,2.47v3.46h-1v-3.34c0-.94-.35-1.72-1.35-1.72a1.5,1.5,0,0,0-1.41,1.08,1.45,1.45,0,0,0-.07.49v3.49H48.47Z"/><path d="M56.35,99.18v1.67h1.52v.8H56.35v3.13c0,.72.21,1.13.8,1.13a2.68,2.68,0,0,0,.61-.07l.05.79a2.73,2.73,0,0,1-.94.14,1.45,1.45,0,0,1-1.14-.44,2.15,2.15,0,0,1-.41-1.51v-3.17h-.9v-.8h.9V99.46Z"/><path d="M61.44,103v.78h-3V103Z"/><path d="M62.71,98.57h4.36v.88H63.76v2.68h3.06V103H63.76v3.65h-1Z"/><path d="M68.21,102.66c0-.68,0-1.27,0-1.81h.93l0,1.14h0a1.74,1.74,0,0,1,1.61-1.27,1.39,1.39,0,0,1,.3,0v1a1.32,1.32,0,0,0-.36,0,1.49,1.49,0,0,0-1.42,1.36,3.37,3.37,0,0,0,0,.49v3.09h-1Z"/><path d="M73.36,99.22a.66.66,0,0,1-1.31,0,.65.65,0,0,1,.66-.66A.63.63,0,0,1,73.36,99.22Zm-1.18,7.43v-5.8h1.06v5.8Z"/><path d="M75.58,103.94a1.86,1.86,0,0,0,2,2,3.83,3.83,0,0,0,1.61-.3l.18.75a4.71,4.71,0,0,1-1.93.36,2.69,2.69,0,0,1-2.86-2.92c0-1.75,1-3.13,2.72-3.13a2.45,2.45,0,0,1,2.4,2.73,4.49,4.49,0,0,1,0,.49Zm3.09-.75a1.5,1.5,0,0,0-1.46-1.72,1.75,1.75,0,0,0-1.62,1.72Z"/><path d="M81,102.42c0-.6,0-1.09,0-1.57h.94l.06,1h0a2.14,2.14,0,0,1,1.92-1.09c.81,0,2,.48,2,2.47v3.46h-1v-3.34c0-.94-.35-1.72-1.34-1.72a1.5,1.5,0,0,0-1.42,1.08,1.45,1.45,0,0,0-.07.49v3.49H81Z"/><path d="M92.68,98.14v7c0,.52,0,1.11,0,1.5h-.94l0-1h0a2.15,2.15,0,0,1-2,1.14c-1.41,0-2.49-1.19-2.49-3,0-1.94,1.19-3.12,2.6-3.12a2,2,0,0,1,1.76.88h0V98.14Zm-1.06,5.07a1.65,1.65,0,0,0-.05-.44,1.55,1.55,0,0,0-1.52-1.23c-1.09,0-1.74,1-1.74,2.25s.58,2.14,1.72,2.14a1.58,1.58,0,0,0,1.54-1.26,1.59,1.59,0,0,0,.05-.45Z"/><path d="M94.43,98.14h1.06v8.51H94.43Z"/><path d="M97.65,100.85l1.27,3.43c.13.38.27.84.37,1.19h0c.11-.35.23-.8.38-1.21l1.15-3.41H102L100.37,105c-.76,2-1.27,3-2,3.63a2.73,2.73,0,0,1-1.3.68l-.26-.88a2.82,2.82,0,0,0,.92-.52,3.17,3.17,0,0,0,.89-1.17.73.73,0,0,0,.08-.26.81.81,0,0,0-.07-.27l-2.15-5.35Z"/><path d="M112.31,103.1c-.06-1.12-.14-2.48-.12-3.49h0c-.28,1-.61,2-1,3.07l-1.43,3.93h-.79l-1.3-3.85c-.39-1.14-.71-2.19-.94-3.15h0c0,1-.09,2.37-.16,3.58l-.22,3.46h-1l.56-8.08h1.33l1.38,3.91c.34,1,.61,1.88.82,2.72h0c.21-.81.5-1.7.86-2.72l1.44-3.91H113l.5,8.08h-1Z"/><path d="M115.77,103.94a1.86,1.86,0,0,0,2,2,3.75,3.75,0,0,0,1.6-.3l.18.75a4.63,4.63,0,0,1-1.93.36,2.69,2.69,0,0,1-2.85-2.92c0-1.75,1-3.13,2.72-3.13a2.45,2.45,0,0,1,2.4,2.73,2.63,2.63,0,0,1,0,.49Zm3.09-.75a1.51,1.51,0,0,0-1.46-1.72,1.75,1.75,0,0,0-1.62,1.72Z"/><path d="M126.2,98.14v7c0,.52,0,1.11,0,1.5h-1l0-1h0a2.16,2.16,0,0,1-2,1.14c-1.4,0-2.48-1.19-2.48-3,0-1.94,1.19-3.12,2.6-3.12a1.94,1.94,0,0,1,1.75.88h0V98.14Zm-1,5.07a1.65,1.65,0,0,0-.05-.44,1.56,1.56,0,0,0-1.52-1.23c-1.09,0-1.74,1-1.74,2.25s.57,2.14,1.71,2.14a1.67,1.67,0,0,0,1.6-1.71Z"/><path d="M129.13,99.22a.62.62,0,0,1-.67.65.63.63,0,0,1-.63-.65.64.64,0,0,1,.66-.66A.62.62,0,0,1,129.13,99.22ZM128,106.65v-5.8h1v5.8Z"/><path d="M134.9,106.44a3.9,3.9,0,0,1-1.66.33,2.75,2.75,0,0,1-2.89-3,2.94,2.94,0,0,1,3.11-3.08,3.45,3.45,0,0,1,1.47.3l-.24.81a2.51,2.51,0,0,0-1.23-.27,2.19,2.19,0,0,0,0,4.36,3,3,0,0,0,1.29-.28Z"/><path d="M139.36,106.65l-.09-.73h0a2.17,2.17,0,0,1-1.78.87,1.65,1.65,0,0,1-1.77-1.67c0-1.4,1.24-2.17,3.49-2.16v-.12a1.2,1.2,0,0,0-1.32-1.34,2.81,2.81,0,0,0-1.51.43l-.24-.7a3.6,3.6,0,0,1,1.9-.51c1.78,0,2.21,1.21,2.21,2.37v2.17a7.31,7.31,0,0,0,.1,1.39Zm-.16-3c-1.15,0-2.46.18-2.46,1.31a.94.94,0,0,0,1,1,1.44,1.44,0,0,0,1.4-1,.92.92,0,0,0,.06-.33Z"/><path d="M141.93,98.14h1v8.51h-1Z"/><path d="M147.34,98.68a14.33,14.33,0,0,1,2.22-.17,4.62,4.62,0,0,1,3.27,1,3.71,3.71,0,0,1,1.14,2.9,4.28,4.28,0,0,1-1.16,3.14,5,5,0,0,1-3.58,1.17,16.58,16.58,0,0,1-1.89-.1Zm1,7.15a7.69,7.69,0,0,0,1.06.06,3.11,3.11,0,0,0,3.44-3.43c0-1.91-1.07-3.12-3.28-3.12a5.89,5.89,0,0,0-1.22.11Z"/><path d="M155.93,103.94a1.86,1.86,0,0,0,2,2,3.83,3.83,0,0,0,1.61-.3l.18.75a4.71,4.71,0,0,1-1.93.36,2.69,2.69,0,0,1-2.86-2.92c0-1.75,1-3.13,2.72-3.13a2.45,2.45,0,0,1,2.4,2.73,4.49,4.49,0,0,1,0,.49Zm3.09-.75a1.5,1.5,0,0,0-1.46-1.72,1.75,1.75,0,0,0-1.62,1.72Z"/><path d="M161.76,100.85l1.14,3.26c.19.53.35,1,.47,1.49h0c.14-.48.3-1,.5-1.49l1.12-3.26h1.11l-2.28,5.8h-1l-2.21-5.8Z"/><path d="M168.3,99.22a.62.62,0,0,1-.67.65.63.63,0,0,1-.64-.65.65.65,0,0,1,.66-.66A.63.63,0,0,1,168.3,99.22Zm-1.17,7.43v-5.8h1.05v5.8Z"/><path d="M174.07,106.44a4,4,0,0,1-1.67.33,2.75,2.75,0,0,1-2.89-3,3,3,0,0,1,3.12-3.08,3.37,3.37,0,0,1,1.46.3l-.24.81a2.47,2.47,0,0,0-1.22-.27,2,2,0,0,0-2,2.19,2,2,0,0,0,2,2.17,3,3,0,0,0,1.29-.28Z"/><path d="M175.82,103.94a1.87,1.87,0,0,0,2,2,3.75,3.75,0,0,0,1.6-.3l.18.75a4.63,4.63,0,0,1-1.93.36,2.69,2.69,0,0,1-2.85-2.92c0-1.75,1-3.13,2.72-3.13a2.46,2.46,0,0,1,2.4,2.73,4,4,0,0,1,0,.49Zm3.1-.75a1.51,1.51,0,0,0-1.46-1.72,1.75,1.75,0,0,0-1.62,1.72Z"/><path d="M181.1,105.57a2.76,2.76,0,0,0,1.4.42c.76,0,1.12-.38,1.12-.86s-.3-.78-1.08-1.07c-1-.37-1.53-.94-1.53-1.64a1.79,1.79,0,0,1,2-1.7,2.83,2.83,0,0,1,1.43.36l-.27.76a2.25,2.25,0,0,0-1.18-.33c-.63,0-1,.36-1,.79s.34.7,1.1,1c1,.39,1.52.89,1.52,1.75,0,1-.79,1.74-2.17,1.74a3.33,3.33,0,0,1-1.63-.39Z"/><path d="M30.72,121.1c-.06-1.12-.13-2.48-.12-3.49h0c-.27,1-.61,2-1,3.07l-1.42,3.93h-.79L26,120.76c-.39-1.14-.71-2.19-.94-3.15h0c0,1-.08,2.37-.16,3.58l-.21,3.46h-1l.57-8.08h1.33L27,120.48c.33,1,.61,1.88.81,2.72h0c.2-.81.49-1.7.85-2.72l1.44-3.91h1.33l.5,8.08h-1Z"/><path d="M38.41,123.07c0,.6,0,1.13.05,1.58h-.93l-.06-.94h0a2.2,2.2,0,0,1-1.92,1.08c-.91,0-2-.51-2-2.55v-3.39h1.06v3.21c0,1.11.33,1.85,1.29,1.85a1.5,1.5,0,0,0,1.49-1.5v-3.56h1Z"/><path d="M40.17,116.14h1v8.51h-1Z"/><path d="M44.27,117.18v1.67h1.51v.8H44.27v3.13c0,.72.2,1.13.79,1.13a2.6,2.6,0,0,0,.61-.07l0,.79a2.67,2.67,0,0,1-.93.14,1.44,1.44,0,0,1-1.14-.44,2.15,2.15,0,0,1-.41-1.51v-3.17h-.9v-.8h.9v-1.39Z"/><path d="M48.15,117.22a.66.66,0,0,1-1.31,0,.65.65,0,0,1,.66-.66A.63.63,0,0,1,48.15,117.22ZM47,124.65v-5.8H48v5.8Z"/><path d="M52.23,121v.78h-3V121Z"/><path d="M59.32,124.39a5.25,5.25,0,0,1-2.14.38,3.77,3.77,0,0,1-4-4.09,4,4,0,0,1,4.22-4.24,4.26,4.26,0,0,1,1.92.36l-.25.85a3.84,3.84,0,0,0-1.63-.34,3,3,0,0,0-3.16,3.34,2.94,2.94,0,0,0,3.11,3.25,4.08,4.08,0,0,0,1.7-.34Z"/><path d="M60.59,116.14h1.06v3.62h0a1.93,1.93,0,0,1,.76-.74,2.16,2.16,0,0,1,1.08-.3c.78,0,2,.48,2,2.48v3.45h-1v-3.33c0-.94-.35-1.73-1.35-1.73a1.51,1.51,0,0,0-1.41,1.06,1.26,1.26,0,0,0-.07.5v3.5H60.59Z"/><path d="M70.47,124.65l-.09-.73h0a2.17,2.17,0,0,1-1.78.87,1.65,1.65,0,0,1-1.77-1.67c0-1.4,1.24-2.17,3.49-2.16v-.12A1.2,1.2,0,0,0,69,119.5a2.81,2.81,0,0,0-1.51.43l-.24-.7a3.6,3.6,0,0,1,1.9-.51c1.78,0,2.21,1.21,2.21,2.37v2.17a7.31,7.31,0,0,0,.1,1.39Zm-.16-3c-1.15,0-2.46.18-2.46,1.31a.94.94,0,0,0,1,1,1.44,1.44,0,0,0,1.4-1,.92.92,0,0,0,.06-.33Z"/><path d="M73,120.42c0-.6,0-1.09-.05-1.57h.93l.06,1h0a2.14,2.14,0,0,1,1.92-1.09c.8,0,2,.48,2,2.47v3.46H76.92v-3.34c0-.94-.35-1.72-1.34-1.72a1.5,1.5,0,0,0-1.42,1.08,1.75,1.75,0,0,0-.07.49v3.49H73Z"/><path d="M79.7,120.42c0-.6,0-1.09,0-1.57h.93l.06,1h0a2.14,2.14,0,0,1,1.92-1.09c.8,0,2,.48,2,2.47v3.46H83.58v-3.34c0-.94-.35-1.72-1.34-1.72a1.5,1.5,0,0,0-1.42,1.08,1.75,1.75,0,0,0-.07.49v3.49h-1Z"/><path d="M86.94,121.94a1.87,1.87,0,0,0,2,2,3.76,3.76,0,0,0,1.61-.3l.18.75a4.67,4.67,0,0,1-1.93.36,2.69,2.69,0,0,1-2.85-2.92c0-1.75,1-3.13,2.72-3.13a2.46,2.46,0,0,1,2.4,2.73,4,4,0,0,1,0,.49Zm3.1-.75a1.51,1.51,0,0,0-1.47-1.72A1.75,1.75,0,0,0,87,121.19Z"/><path d="M92.37,116.14h1v8.51h-1Z"/><path d="M104.59,121.1c-.06-1.12-.13-2.48-.12-3.49h0c-.28,1-.62,2-1,3.07L102,124.61h-.79l-1.31-3.85c-.38-1.14-.71-2.19-.93-3.15h0c0,1-.08,2.37-.15,3.58l-.22,3.46h-1l.57-8.08h1.33l1.38,3.91c.33,1,.61,1.88.81,2.72h0c.2-.81.49-1.7.85-2.72l1.44-3.91h1.33l.51,8.08h-1Z"/><path d="M110.68,124.65l-.09-.73h0a2.17,2.17,0,0,1-1.78.87,1.65,1.65,0,0,1-1.77-1.67c0-1.4,1.25-2.17,3.49-2.16v-.12a1.19,1.19,0,0,0-1.32-1.34,2.84,2.84,0,0,0-1.51.43l-.24-.7a3.61,3.61,0,0,1,1.91-.51c1.77,0,2.2,1.21,2.2,2.37v2.17a8.24,8.24,0,0,0,.1,1.39Zm-.16-3c-1.15,0-2.46.18-2.46,1.31a.94.94,0,0,0,1,1,1.44,1.44,0,0,0,1.4-1,.92.92,0,0,0,.06-.33Z"/><path d="M113.25,120.66c0-.68,0-1.27,0-1.81h.92l0,1.14h0a1.74,1.74,0,0,1,1.6-1.27,1.32,1.32,0,0,1,.3,0v1a1.23,1.23,0,0,0-.36,0,1.48,1.48,0,0,0-1.41,1.36,3.37,3.37,0,0,0,0,.49v3.09h-1Z"/><path d="M118.26,121.51h0c.14-.2.34-.45.51-.66l1.71-2h1.27l-2.25,2.39,2.56,3.41h-1.28l-2-2.78-.54.6v2.18h-1v-8.51h1Z"/><path d="M123.44,121.94a1.86,1.86,0,0,0,2,2,3.75,3.75,0,0,0,1.6-.3l.18.75a4.63,4.63,0,0,1-1.93.36,2.69,2.69,0,0,1-2.85-2.92c0-1.75,1-3.13,2.72-3.13a2.45,2.45,0,0,1,2.4,2.73,4,4,0,0,1,0,.49Zm3.09-.75a1.51,1.51,0,0,0-1.46-1.72,1.75,1.75,0,0,0-1.62,1.72Z"/><path d="M130.13,117.18v1.67h1.51v.8h-1.51v3.13c0,.72.2,1.13.79,1.13a2.6,2.6,0,0,0,.61-.07l.05.79a2.67,2.67,0,0,1-.93.14,1.44,1.44,0,0,1-1.14-.44,2.15,2.15,0,0,1-.41-1.51v-3.17h-.9v-.8h.9v-1.39Z"/><path d="M134,117.22a.63.63,0,0,1-.68.65.63.63,0,0,1-.63-.65.64.64,0,0,1,.66-.66A.63.63,0,0,1,134,117.22Zm-1.18,7.43v-5.8h1.06v5.8Z"/><path d="M135.64,120.42c0-.6,0-1.09,0-1.57h.94l.06,1h0a2.14,2.14,0,0,1,1.92-1.09c.8,0,2.05.48,2.05,2.47v3.46h-1.06v-3.34c0-.94-.34-1.72-1.34-1.72a1.5,1.5,0,0,0-1.41,1.08,1.44,1.44,0,0,0-.08.49v3.49h-1.05Z"/><path d="M147.3,118.85c0,.42-.05.89-.05,1.59v3.37a3.34,3.34,0,0,1-.83,2.66,3.09,3.09,0,0,1-2.11.69,3.78,3.78,0,0,1-1.93-.48l.27-.8a3.25,3.25,0,0,0,1.7.45c1.08,0,1.87-.56,1.87-2v-.65h0a2.08,2.08,0,0,1-1.85,1,2.59,2.59,0,0,1-2.47-2.83,2.78,2.78,0,0,1,2.61-3.08,1.92,1.92,0,0,1,1.81,1h0l0-.87Zm-1.09,2.29a1.44,1.44,0,0,0-.06-.48,1.53,1.53,0,0,0-1.48-1.12c-1,0-1.72.86-1.72,2.2,0,1.14.57,2.09,1.71,2.09a1.53,1.53,0,0,0,1.46-1.08,1.88,1.88,0,0,0,.09-.57Z"/><path d="M13.8,70.17l3.51-3.51a.23.23,0,0,0,.07-.17.24.24,0,0,0-.07-.18L13.8,62.8a.25.25,0,0,0-.18-.08.25.25,0,0,0-.17.08l-.38.38a.23.23,0,0,0-.07.17.22.22,0,0,0,.07.17l3,3-3,3a.23.23,0,0,0-.07.17.24.24,0,0,0,.07.18l.38.37a.21.21,0,0,0,.17.08A.22.22,0,0,0,13.8,70.17Z"/><path d="M13.8,88.38l3.51-3.51a.23.23,0,0,0,.07-.17.24.24,0,0,0-.07-.18L13.8,81a.25.25,0,0,0-.18-.08.25.25,0,0,0-.17.08l-.38.37a.26.26,0,0,0-.07.18.23.23,0,0,0,.07.17l3,3-3,3a.23.23,0,0,0-.07.17.24.24,0,0,0,.07.18l.38.37a.25.25,0,0,0,.17.08A.25.25,0,0,0,13.8,88.38Z"/><path d="M13.8,105.9l3.51-3.52a.22.22,0,0,0,.07-.17.23.23,0,0,0-.07-.17L13.8,98.52a.24.24,0,0,0-.18-.07.23.23,0,0,0-.17.07l-.38.38a.23.23,0,0,0-.07.17.24.24,0,0,0,.07.18l3,3-3,3a.26.26,0,0,0-.07.18.23.23,0,0,0,.07.17l.38.38a.23.23,0,0,0,.17.07A.24.24,0,0,0,13.8,105.9Z"/><path d="M13.8,124l3.51-3.52a.22.22,0,0,0,.07-.17.23.23,0,0,0-.07-.17l-3.51-3.52a.24.24,0,0,0-.18-.07.23.23,0,0,0-.17.07l-.38.38a.23.23,0,0,0-.07.17.24.24,0,0,0,.07.18l3,3-3,3a.24.24,0,0,0-.07.18.23.23,0,0,0,.07.17l.38.38a.23.23,0,0,0,.17.07A.24.24,0,0,0,13.8,124Z"/></svg>