<svg xmlns="http://www.w3.org/2000/svg" viewBox="0 0 1300 669.28"><defs><style>.cls-1{fill:#bee3ff;}.cls-2{fill:#92d1ff;}.cls-3,.cls-4,.cls-6,.cls-7,.cls-8,.cls-9{fill:none;}.cls-3{stroke:#92d1ff;}.cls-3,.cls-4,.cls-6,.cls-8{stroke-miterlimit:10;}.cls-3,.cls-4{stroke-width:2.31px;}.cls-4{stroke:#0f9ffa;}.cls-5{fill:#061838;}.cls-6,.cls-7,.cls-8,.cls-9{stroke:#061838;stroke-width:3px;}.cls-6{stroke-linecap:square;}.cls-9{stroke-miterlimit:7;}</style></defs><title>energy-trading-risk-management-lrg</title><g id="Layer_3" data-name="Layer 3"><polygon class="cls-1" points="925.42 0.48 894.48 0.68 894.48 669.15 1300 669.15 1300 0.48 925.42 0.48"/><polygon class="cls-2" points="477.21 0.64 448 0.48 448 669.31 853.52 669.31 853.52 0.64 477.21 0.64"/><polygon class="cls-1" points="28.96 0.64 0 0.48 0 669.31 405.52 669.31 405.52 0.64 28.96 0.64"/><line class="cls-3" x1="27.28" y1="189.92" x2="368.9" y2="190.25"/><polygon class="cls-1" points="410.93 93.07 410.93 149.15 438.98 121.11 410.93 93.07"/><polygon class="cls-2" points="858.73 93.07 858.73 149.15 886.77 121.11 858.73 93.07"/><line class="cls-3" x1="925.84" y1="189.92" x2="1267.46" y2="189.35"/><line class="cls-4" x1="479.95" y1="189.92" x2="821.57" y2="189.35"/></g><g id="Layer_1" data-name="Layer 1"><path class="cls-5" d="M1064.48,125.69l-2,6.47h-4.3l7.32-22.82h5.31l7.42,22.82h-4.47l-2.07-6.47Zm6.53-3.15-1.79-5.62c-.44-1.39-.81-3-1.15-4.27H1068c-.34,1.32-.68,2.92-1.08,4.27l-1.76,5.62Z"/><path class="cls-5" d="M1081.1,120.58c0-1.9,0-3.49-.13-4.91h3.65l.21,2.47h.1a5.92,5.92,0,0,1,5.24-2.84c2.88,0,5.86,1.86,5.86,7.07v9.79h-4.16v-9.31c0-2.37-.88-4.17-3.15-4.17a3.5,3.5,0,0,0-3.25,2.44,4.1,4.1,0,0,0-.17,1.35v9.69h-4.2Z"/><path class="cls-5" d="M1109.74,132.16l-.27-1.83h-.1a6.12,6.12,0,0,1-4.88,2.2,4.9,4.9,0,0,1-5.18-4.91c0-4.16,3.69-6.26,9.79-6.23v-.27c0-1.08-.44-2.88-3.35-2.88a8.75,8.75,0,0,0-4.44,1.22l-.81-2.71a11.93,11.93,0,0,1,6-1.45c5.28,0,6.8,3.35,6.8,6.94v6a26.32,26.32,0,0,0,.24,4Zm-.54-8.06c-3-.07-5.76.57-5.76,3.08a2.19,2.19,0,0,0,2.37,2.37,3.39,3.39,0,0,0,3.26-2.27,3,3,0,0,0,.13-.91Z"/><path class="cls-5" d="M1117.66,108.12h4.2v24h-4.2Z"/><path class="cls-5" d="M1129,115.67l3,8.84c.34,1,.68,2.26.91,3.21h.11c.27-1,.57-2.17.88-3.25l2.57-8.8h4.47l-4.13,11.24c-2.27,6.16-3.79,8.9-5.76,10.6a8.36,8.36,0,0,1-4.37,2.13l-.94-3.52a7.06,7.06,0,0,0,2.43-1.15,7.21,7.21,0,0,0,2.27-2.61,1.64,1.64,0,0,0,.27-.74,1.8,1.8,0,0,0-.23-.82l-6-15.13Z"/><path class="cls-5" d="M1148.06,111v4.71h4v3.11h-4v7.28c0,2,.55,3.05,2.14,3.05a6.19,6.19,0,0,0,1.62-.2l.07,3.18a9,9,0,0,1-3,.41,4.8,4.8,0,0,1-3.59-1.36c-.88-.95-1.29-2.44-1.29-4.6v-7.76h-2.37v-3.11H1144v-3.73Z"/><path class="cls-5" d="M1159.61,111.06a2.21,2.21,0,0,1-2.37,2.24,2.19,2.19,0,0,1-2.3-2.24,2.34,2.34,0,0,1,4.67,0Zm-4.44,21.1V115.67h4.2v16.49Z"/><path class="cls-5" d="M1176,131.65a12,12,0,0,1-4.67.85c-5.15,0-8.5-3.29-8.5-8.4,0-4.94,3.39-8.8,9.18-8.8a10.43,10.43,0,0,1,4,.77l-.75,3.12a7.28,7.28,0,0,0-3.15-.64c-3.18,0-5.08,2.33-5,5.35,0,3.38,2.2,5.31,5,5.31a8.17,8.17,0,0,0,3.29-.64Z"/><path class="cls-5" d="M1178.84,128.33a9.23,9.23,0,0,0,4.23,1.19c1.83,0,2.64-.75,2.64-1.83s-.68-1.69-2.71-2.41c-3.21-1.11-4.57-2.87-4.54-4.8,0-2.92,2.41-5.18,6.24-5.18a9.66,9.66,0,0,1,4.36,1l-.81,2.94a7.48,7.48,0,0,0-3.49-.94c-1.49,0-2.3.71-2.3,1.72s.78,1.56,2.88,2.3c3,1.09,4.37,2.61,4.4,5,0,3-2.34,5.15-6.7,5.15a10.63,10.63,0,0,1-5-1.16Z"/><g id="_Group_" data-name="&lt;Group&gt;"><circle id="_Ellipse_" data-name="&lt;Ellipse&gt;" class="cls-6" cx="998.77" cy="86.68" r="4.36"/><g id="_Group_2" data-name="&lt;Group&gt;"><polyline class="cls-6" points="1013.58 94.45 1013.58 140.92 942.89 140.92 942.89 86.68 992.43 86.68"/><polygon class="cls-5" points="1007.6 96.2 1013.58 85.84 1019.56 96.2 1007.6 96.2"/></g><g id="_Group_3" data-name="&lt;Group&gt;"><polyline class="cls-6" points="996.55 106.82 985.91 116.67 980.01 111.39 967.32 122.83 962.42 117.68 953.49 126.03"/><polygon class="cls-5" points="991.2 103.62 1002.86 100.97 999.33 112.4 991.2 103.62"/></g><line id="_Path_" data-name="&lt;Path&gt;" class="cls-6" x1="953.21" y1="100.06" x2="974.46" y2="100.06"/></g><path class="cls-5" d="M614.76,101.39a14.58,14.58,0,0,1-5.89,1c-7.25,0-11.65-4.54-11.65-11.48,0-7.51,5.22-12,12.19-12a13.11,13.11,0,0,1,5.55,1l-.91,3.32a11.13,11.13,0,0,0-4.47-.88c-4.64,0-8,2.91-8,8.4,0,5,2.95,8.23,8,8.23a11.58,11.58,0,0,0,4.53-.85Z"/><path class="cls-5" d="M633.28,93.67c0,6.06-4.27,8.76-8.46,8.76-4.68,0-8.27-3.21-8.27-8.49s3.56-8.74,8.54-8.74S633.28,88.65,633.28,93.67Zm-12.43.17c0,3.18,1.56,5.58,4.1,5.58,2.37,0,4-2.33,4-5.65,0-2.58-1.15-5.52-4-5.52S620.85,91.09,620.85,93.84Z"/><path class="cls-5" d="M636.7,90.48c0-1.89,0-3.48-.14-4.91h3.59l.17,2.44h.1a5.69,5.69,0,0,1,5.08-2.81,4.75,4.75,0,0,1,4.57,3h.07a6.19,6.19,0,0,1,2-2.07,5.51,5.51,0,0,1,3.32-1c2.74,0,5.52,1.86,5.52,7.14v9.72h-4.07V93c0-2.74-.94-4.36-2.94-4.36a3.17,3.17,0,0,0-2.91,2.2,5.47,5.47,0,0,0-.21,1.39v9.88h-4.06V92.51c0-2.3-.91-3.92-2.84-3.92A3.25,3.25,0,0,0,641,91a3.52,3.52,0,0,0-.24,1.35v9.75H636.7Z"/><path class="cls-5" d="M665.4,91.06c0-2.17-.06-3.93-.13-5.49h3.66l.2,2.54h.07a6.43,6.43,0,0,1,5.65-2.91c3.79,0,6.94,3.25,6.94,8.4,0,6-3.76,8.83-7.52,8.83a5.4,5.4,0,0,1-4.63-2.2h-.07v8.54H665.4Zm4.17,4.1a4.41,4.41,0,0,0,.13,1.15,3.77,3.77,0,0,0,3.66,2.91c2.64,0,4.2-2.2,4.2-5.45,0-2.91-1.42-5.28-4.1-5.28a3.87,3.87,0,0,0-3.72,3.08,3.78,3.78,0,0,0-.17,1.05Z"/><path class="cls-5" d="M685.21,78h4.2v24h-4.2Z"/><path class="cls-5" d="M698.34,81a2.34,2.34,0,0,1-4.67,0,2.34,2.34,0,0,1,4.67,0Zm-4.43,21.09V85.57h4.2v16.49Z"/><path class="cls-5" d="M711.85,102.06l-.27-1.83h-.1a6.1,6.1,0,0,1-4.87,2.2,4.89,4.89,0,0,1-5.18-4.9c0-4.17,3.69-6.27,9.78-6.23V91c0-1.08-.44-2.87-3.35-2.87a8.66,8.66,0,0,0-4.44,1.22l-.81-2.71a11.81,11.81,0,0,1,6-1.46c5.28,0,6.8,3.35,6.8,6.94v6a26.23,26.23,0,0,0,.24,4ZM711.31,94c-2.94-.06-5.75.58-5.75,3.09a2.19,2.19,0,0,0,2.37,2.37,3.4,3.4,0,0,0,3.25-2.27,3.09,3.09,0,0,0,.13-.92Z"/><path class="cls-5" d="M719.77,90.48c0-1.89,0-3.48-.13-4.91h3.65l.21,2.48h.1a6,6,0,0,1,5.25-2.85c2.88,0,5.86,1.86,5.86,7.08v9.78h-4.17V92.75c0-2.37-.88-4.16-3.15-4.16A3.49,3.49,0,0,0,724.14,91a4.45,4.45,0,0,0-.17,1.36v9.68h-4.2Z"/><path class="cls-5" d="M751.26,101.55a12,12,0,0,1-4.67.85c-5.15,0-8.5-3.28-8.5-8.4,0-4.94,3.38-8.8,9.17-8.8a10.34,10.34,0,0,1,4,.78l-.74,3.11a7.43,7.43,0,0,0-3.15-.64c-3.18,0-5.08,2.34-5,5.35,0,3.39,2.21,5.32,5,5.32a8.06,8.06,0,0,0,3.28-.65Z"/><path class="cls-5" d="M757,95c.1,3,2.44,4.26,5.08,4.26a12.47,12.47,0,0,0,4.57-.74l.61,2.88a15.67,15.67,0,0,1-5.76,1c-5.35,0-8.5-3.28-8.5-8.33,0-4.57,2.78-8.87,8.06-8.87s7.11,4.4,7.11,8A10.27,10.27,0,0,1,768,95Zm7.25-2.92c0-1.52-.65-4-3.42-4-2.58,0-3.66,2.33-3.83,4Z"/><path class="cls-5" d="M607.52,135.92l-.28-1.83h-.1a6.1,6.1,0,0,1-4.87,2.2,4.89,4.89,0,0,1-5.18-4.91c0-4.16,3.69-6.26,9.78-6.23v-.27c0-1.08-.44-2.88-3.35-2.88a8.78,8.78,0,0,0-4.44,1.22l-.81-2.71a11.92,11.92,0,0,1,6-1.46c5.28,0,6.81,3.36,6.81,7v6a27.87,27.87,0,0,0,.23,4Zm-.55-8.06c-2.94-.07-5.75.57-5.75,3.08a2.19,2.19,0,0,0,2.37,2.37,3.36,3.36,0,0,0,3.25-2.27,3,3,0,0,0,.13-.91Z"/><path class="cls-5" d="M615.44,124.34c0-1.9,0-3.49-.14-4.91H619l.2,2.47h.1a6,6,0,0,1,5.25-2.85c2.88,0,5.86,1.87,5.86,7.08v9.79H626.2v-9.31c0-2.37-.88-4.17-3.14-4.17a3.51,3.51,0,0,0-3.26,2.44,4.39,4.39,0,0,0-.16,1.35v9.69h-4.2Z"/><path class="cls-5" d="M650,111.88v19.4c0,1.69.07,3.52.14,4.64h-3.73l-.17-2.61h-.06a5.93,5.93,0,0,1-5.39,3c-3.92,0-7-3.35-7-8.43,0-5.52,3.42-8.81,7.38-8.81a5.25,5.25,0,0,1,4.64,2.17h.07v-9.34Zm-4.16,14.42a5.64,5.64,0,0,0-.1-1.08,3.66,3.66,0,0,0-3.59-3c-2.68,0-4.17,2.37-4.17,5.45s1.49,5.22,4.13,5.22A3.66,3.66,0,0,0,645.7,130a4.3,4.3,0,0,0,.14-1.22Z"/><path class="cls-5" d="M661.48,124.74c0-2.23,0-3.82-.14-5.31H665l.14,3.15h.13a4.94,4.94,0,0,1,4.51-3.53,4.26,4.26,0,0,1,1,.11v3.92a6.41,6.41,0,0,0-1.22-.13,3.67,3.67,0,0,0-3.72,3.15,6.86,6.86,0,0,0-.14,1.28v8.54h-4.16Z"/><path class="cls-5" d="M676.17,128.84c.1,3,2.44,4.27,5.08,4.27a12.24,12.24,0,0,0,4.57-.75l.61,2.88a15.45,15.45,0,0,1-5.76,1c-5.35,0-8.5-3.29-8.5-8.33,0-4.57,2.78-8.88,8.06-8.88s7.11,4.41,7.11,8a11.21,11.21,0,0,1-.13,1.76Zm7.25-2.91c0-1.52-.65-4-3.42-4-2.58,0-3.66,2.34-3.83,4Z"/><path class="cls-5" d="M690.69,124.91c0-2.16-.07-3.92-.13-5.48h3.65l.21,2.54h.06a6.42,6.42,0,0,1,5.66-2.92c3.79,0,6.94,3.26,6.94,8.4,0,6-3.76,8.84-7.52,8.84a5.43,5.43,0,0,1-4.64-2.2h-.06v8.53h-4.17Zm4.17,4.1a4.32,4.32,0,0,0,.13,1.15,3.77,3.77,0,0,0,3.66,2.91c2.64,0,4.2-2.2,4.2-5.45,0-2.91-1.42-5.28-4.1-5.28a3.87,3.87,0,0,0-3.72,3.08,3.49,3.49,0,0,0-.17,1Z"/><path class="cls-5" d="M726.17,127.52c0,6.06-4.26,8.77-8.46,8.77-4.67,0-8.26-3.22-8.26-8.5s3.55-8.74,8.53-8.74S726.17,122.51,726.17,127.52Zm-12.42.17c0,3.18,1.56,5.59,4.09,5.59,2.37,0,4-2.34,4-5.66,0-2.57-1.15-5.52-4-5.52S713.75,125,713.75,127.69Z"/><path class="cls-5" d="M729.59,124.74c0-2.23,0-3.82-.13-5.31h3.62l.13,3.15h.14a4.92,4.92,0,0,1,4.5-3.53,4.13,4.13,0,0,1,1,.11v3.92a6.3,6.3,0,0,0-1.21-.13,3.68,3.68,0,0,0-3.73,3.15,6.91,6.91,0,0,0-.13,1.28v8.54h-4.17Z"/><path class="cls-5" d="M747.19,114.72v4.71h4v3.11h-4v7.28c0,2,.55,3.05,2.14,3.05a6.19,6.19,0,0,0,1.62-.2l.07,3.18a9,9,0,0,1-3,.41,4.8,4.8,0,0,1-3.59-1.36c-.88-1-1.29-2.44-1.29-4.6v-7.76h-2.37v-3.11h2.37V115.7Z"/><path class="cls-5" d="M758.74,114.82a2.21,2.21,0,0,1-2.37,2.24,2.19,2.19,0,0,1-2.3-2.24,2.34,2.34,0,0,1,4.67,0Zm-4.44,21.1V119.43h4.2v16.49Z"/><path class="cls-5" d="M763,124.34c0-1.9,0-3.49-.14-4.91h3.66l.2,2.47h.11a5.93,5.93,0,0,1,5.24-2.85c2.88,0,5.86,1.87,5.86,7.08v9.79h-4.16v-9.31c0-2.37-.88-4.17-3.15-4.17a3.5,3.5,0,0,0-3.25,2.44,4.1,4.1,0,0,0-.17,1.35v9.69H763Z"/><path class="cls-5" d="M797.4,119.43c-.07,1.12-.13,2.47-.13,4.74v9.34c0,3.46-.71,5.93-2.44,7.49a9.51,9.51,0,0,1-6.37,2,11.64,11.64,0,0,1-5.75-1.32l.91-3.15a10,10,0,0,0,4.81,1.26c2.71,0,4.74-1.43,4.74-5v-1.42h-.07a5.58,5.58,0,0,1-4.81,2.44c-4.09,0-7-3.39-7-8.06,0-5.42,3.53-8.71,7.49-8.71a5.18,5.18,0,0,1,4.77,2.58h.07l.17-2.2Zm-4.3,6.6a4.14,4.14,0,0,0-.13-1.12,3.46,3.46,0,0,0-3.39-2.67c-2.34,0-4.06,2-4.06,5.38,0,2.81,1.42,5.08,4,5.08a3.56,3.56,0,0,0,3.38-2.51,7.14,7.14,0,0,0,.17-1.48Z"/><g id="_Group_4" data-name="&lt;Group&gt;"><g id="_Group_5" data-name="&lt;Group&gt;"><polyline class="cls-6" points="503.05 89.08 527.14 64.98 545.73 83.56 518.16 111.14 511.66 104.64"/><polygon class="cls-5" points="517.13 101.64 505.57 98.55 508.66 110.1 517.13 101.64"/></g><g id="_Group_6" data-name="&lt;Group&gt;"><polygon class="cls-6" points="560.79 121.36 534.89 94.4 529 100.3 554.9 127.25 560.79 121.36"/></g><rect id="_Path_2" data-name="&lt;Path&gt;" class="cls-6" x="500.29" y="118.08" width="29.95" height="11.5"/><rect id="_Path_3" data-name="&lt;Path&gt;" class="cls-6" x="491.45" y="129.63" width="47.64" height="11.5"/><circle id="_Path_4" data-name="&lt;Path&gt;" class="cls-6" cx="499.96" cy="93" r="4.5"/></g><g id="_Group_7" data-name="&lt;Group&gt;"><polyline id="_Path_5" data-name="&lt;Path&gt;" class="cls-6" points="517.09 257.28 521.16 260.5 527.47 260.61"/><polyline id="_Path_6" data-name="&lt;Path&gt;" class="cls-6" points="506.07 318.78 545.34 318.78 560.84 303.78 560.84 266.43 553.84 273.13 536.96 252.87 559.97 235.25 560.27 233.18"/><g id="_Group_8" data-name="&lt;Group&gt;"><polyline class="cls-6" points="546.47 232.45 495.05 232.28 495.07 235.91 518.66 255.7 500.64 276.61 494.85 270.13 494.84 313.14"/><polygon class="cls-5" points="544.74 226.46 555.08 232.48 544.7 238.43 544.74 226.46"/><path class="cls-7" d="M491,315.87h0a4.5,4.5,0,1,1,3.87,6.81A4.51,4.51,0,0,1,491,315.87Z"/></g><path id="_Path_7" data-name="&lt;Path&gt;" class="cls-6" d="M504.07,272.84l2.89,2.44.86,3.42,14.91,14.91,5.51,5.51a3.17,3.17,0,0,0,4.49,0l13.54-13.53"/><path id="_Path_8" data-name="&lt;Path&gt;" class="cls-6" d="M538.77,255.54l-6.29,4.89h-4l-9.76,9.37a2.94,2.94,0,0,0,0,4.16h0a2.94,2.94,0,0,0,4.16,0l5.47-5.06s2.81,2.44,5.5,4.89a3.39,3.39,0,0,0,4.8-.15l7.59,7.46a3.17,3.17,0,0,1,0,4.49h0"/><polyline id="_Path_9" data-name="&lt;Path&gt;" class="cls-6" points="550.68 270.34 545.79 274.57 546.27 280.2"/><polyline id="_Path_10" data-name="&lt;Path&gt;" class="cls-6" points="545.34 317.58 545.34 303.78 559.64 303.78"/></g><path class="cls-5" d="M164.79,77.57a42.6,42.6,0,0,1,6.63-.47c4.27,0,7.22.88,9.32,2.64s3.55,4.5,3.55,8.4c0,4.06-1.39,7.11-3.55,9.07s-5.9,3.12-10.33,3.12a45.05,45.05,0,0,1-5.62-.31ZM169,96.91a15.8,15.8,0,0,0,2.3.1c5.42,0,8.64-3,8.64-8.74,0-5-2.88-7.92-8.09-7.92a13.08,13.08,0,0,0-2.85.24Z"/><path class="cls-5" d="M190.69,93c.1,3,2.43,4.27,5.08,4.27a12.28,12.28,0,0,0,4.57-.75l.61,2.88a15.49,15.49,0,0,1-5.76,1c-5.35,0-8.5-3.29-8.5-8.33,0-4.57,2.78-8.87,8.06-8.87s7.11,4.4,7.11,8a9.88,9.88,0,0,1-.14,1.76Zm7.24-2.91c0-1.52-.64-4-3.42-4-2.57,0-3.65,2.34-3.82,4Z"/><path class="cls-5" d="M214.49,100.09l-.27-1.83h-.11a6.1,6.1,0,0,1-4.87,2.2,4.89,4.89,0,0,1-5.18-4.91c0-4.16,3.69-6.26,9.78-6.23v-.27c0-1.08-.44-2.88-3.35-2.88a8.72,8.72,0,0,0-4.43,1.22l-.82-2.71a12,12,0,0,1,6-1.45c5.28,0,6.81,3.35,6.81,6.94v6a26.32,26.32,0,0,0,.24,4ZM214,92c-2.95-.07-5.76.58-5.76,3.08a2.18,2.18,0,0,0,2.37,2.37,3.36,3.36,0,0,0,3.25-2.27,3,3,0,0,0,.14-.91Z"/><path class="cls-5" d="M222.41,76.05h4.2v24h-4.2Z"/><path class="cls-5" d="M164.62,122.36c0-1.89,0-3.48-.14-4.9h3.59l.17,2.43h.1a5.74,5.74,0,0,1,5.08-2.81,4.75,4.75,0,0,1,4.57,3h.07a6.38,6.38,0,0,1,2-2.07,5.56,5.56,0,0,1,3.32-1c2.74,0,5.52,1.86,5.52,7.15v9.71h-4.06v-9.1c0-2.75-1-4.37-3-4.37a3.17,3.17,0,0,0-2.91,2.2,6,6,0,0,0-.2,1.39v9.88h-4.07V124.4c0-2.31-.91-3.93-2.84-3.93a3.25,3.25,0,0,0-3,2.37,3.56,3.56,0,0,0-.24,1.35v9.75h-4.06Z"/><path class="cls-5" d="M202.6,133.94l-.27-1.82h-.1a6.13,6.13,0,0,1-4.87,2.2,4.91,4.91,0,0,1-5.19-4.91c0-4.17,3.7-6.27,9.79-6.23v-.27c0-1.09-.44-2.88-3.35-2.88a8.75,8.75,0,0,0-4.44,1.22l-.81-2.71a11.81,11.81,0,0,1,6-1.46c5.28,0,6.81,3.35,6.81,6.94v6a26.38,26.38,0,0,0,.23,4Zm-.54-8c-2.94-.07-5.75.57-5.75,3.08a2.19,2.19,0,0,0,2.37,2.37,3.39,3.39,0,0,0,3.25-2.27,3.09,3.09,0,0,0,.13-.92Z"/><path class="cls-5" d="M210.52,122.36c0-1.89,0-3.48-.13-4.9h3.66l.2,2.47h.1a6,6,0,0,1,5.25-2.85c2.88,0,5.86,1.86,5.86,7.08v9.78h-4.17v-9.31c0-2.37-.88-4.16-3.15-4.16a3.49,3.49,0,0,0-3.25,2.44,4.38,4.38,0,0,0-.17,1.35v9.68h-4.2Z"/><path class="cls-5" d="M239.17,133.94l-.27-1.82h-.11a6.13,6.13,0,0,1-4.87,2.2,4.9,4.9,0,0,1-5.18-4.91c0-4.17,3.69-6.27,9.78-6.23v-.27c0-1.09-.44-2.88-3.35-2.88a8.72,8.72,0,0,0-4.43,1.22l-.82-2.71a11.84,11.84,0,0,1,6-1.46c5.28,0,6.81,3.35,6.81,6.94v6a27.78,27.78,0,0,0,.23,4Zm-.54-8c-2.95-.07-5.76.57-5.76,3.08a2.19,2.19,0,0,0,2.37,2.37,3.38,3.38,0,0,0,3.25-2.27,3.12,3.12,0,0,0,.14-.92Z"/><path class="cls-5" d="M262.15,117.46c-.06,1.11-.13,2.47-.13,4.74v9.34c0,3.45-.71,5.93-2.44,7.48a9.46,9.46,0,0,1-6.36,2,11.68,11.68,0,0,1-5.76-1.32l.91-3.15a10,10,0,0,0,4.81,1.25c2.71,0,4.74-1.42,4.74-5v-1.42h-.07a5.56,5.56,0,0,1-4.8,2.43c-4.1,0-7-3.38-7-8.06,0-5.41,3.52-8.7,7.48-8.7a5.19,5.19,0,0,1,4.78,2.58h.06l.17-2.2Zm-4.3,6.6a4.09,4.09,0,0,0-.13-1.12,3.46,3.46,0,0,0-3.39-2.67c-2.33,0-4.06,2-4.06,5.38,0,2.81,1.42,5.08,4,5.08a3.57,3.57,0,0,0,3.39-2.51,7.24,7.24,0,0,0,.16-1.49Z"/><path class="cls-5" d="M269.43,126.87c.1,3,2.44,4.26,5.08,4.26a12.47,12.47,0,0,0,4.57-.74l.61,2.88a15.67,15.67,0,0,1-5.76,1c-5.34,0-8.49-3.28-8.49-8.33,0-4.57,2.77-8.87,8.05-8.87s7.12,4.4,7.12,8a9.88,9.88,0,0,1-.14,1.76Zm7.25-2.91c0-1.53-.65-4-3.42-4-2.58,0-3.66,2.33-3.83,4Z"/><path class="cls-5" d="M284,122.36c0-1.89,0-3.48-.13-4.9h3.59l.17,2.43h.1a5.71,5.71,0,0,1,5.08-2.81,4.76,4.76,0,0,1,4.57,3h.07a6.29,6.29,0,0,1,2-2.07,5.51,5.51,0,0,1,3.32-1c2.74,0,5.52,1.86,5.52,7.15v9.71H304.2v-9.1c0-2.75-.95-4.37-2.94-4.37a3.18,3.18,0,0,0-2.92,2.2,6,6,0,0,0-.2,1.39v9.88h-4.06V124.4c0-2.31-.92-3.93-2.85-3.93a3.27,3.27,0,0,0-3,2.37,3.76,3.76,0,0,0-.23,1.35v9.75H284Z"/><path class="cls-5" d="M315.61,126.87c.1,3,2.44,4.26,5.08,4.26a12.51,12.51,0,0,0,4.57-.74l.61,2.88a15.67,15.67,0,0,1-5.76,1c-5.35,0-8.5-3.28-8.5-8.33,0-4.57,2.78-8.87,8.06-8.87s7.11,4.4,7.11,8a11.21,11.21,0,0,1-.13,1.76Zm7.24-2.91c0-1.53-.64-4-3.42-4-2.57,0-3.65,2.33-3.82,4Z"/><path class="cls-5" d="M330.13,122.36c0-1.89,0-3.48-.13-4.9h3.65l.21,2.47h.1a5.93,5.93,0,0,1,5.25-2.85c2.87,0,5.85,1.86,5.85,7.08v9.78H340.9v-9.31c0-2.37-.88-4.16-3.15-4.16a3.49,3.49,0,0,0-3.25,2.44,4.1,4.1,0,0,0-.17,1.35v9.68h-4.2Z"/><path class="cls-5" d="M354.1,112.75v4.71h4v3.11h-4v7.28c0,2,.54,3.05,2.13,3.05a5.75,5.75,0,0,0,1.63-.21l.07,3.19a9.43,9.43,0,0,1-3,.4,4.82,4.82,0,0,1-3.59-1.35c-.88-1-1.28-2.44-1.28-4.61v-7.75h-2.37v-3.11H350v-3.73Z"/><line id="_Path_11" data-name="&lt;Path&gt;" class="cls-6" x1="978.87" y1="299.01" x2="978.87" y2="314.93"/><line id="_Path_12" data-name="&lt;Path&gt;" class="cls-6" x1="965.08" y1="314.93" x2="992.66" y2="314.93"/><line id="_Path_13" data-name="&lt;Path&gt;" class="cls-6" x1="981.87" y1="242.05" x2="996.96" y2="242.05"/><g id="_Group_10" data-name="&lt;Group&gt;"><polyline class="cls-6" points="1016.05 250.07 1016.05 299.01 941.68 299.01 941.68 242.05"/><polygon class="cls-5" points="1010.07 251.82 1016.05 241.46 1022.03 251.82 1010.07 251.82"/></g><circle id="_Ellipse_2" data-name="&lt;Ellipse&gt;" class="cls-6" cx="1001.45" cy="242.05" r="4.42"/><line id="_Path_14" data-name="&lt;Path&gt;" class="cls-6" x1="942.16" y1="286.93" x2="1016.05" y2="286.93"/><polygon id="_Path_15" data-name="&lt;Path&gt;" class="cls-8" points="975.15 268.3 975.15 241.84 948.71 241.84 948.71 274.31 969.34 274.31 975.15 268.3"/><line id="_Path_16" data-name="&lt;Path&gt;" class="cls-8" x1="963.6" y1="251.44" x2="970.66" y2="251.44"/><polyline id="_Path_17" data-name="&lt;Path&gt;" class="cls-8" points="953.56 249.63 956.38 252.56 961.22 247.72"/><polyline id="_Path_18" data-name="&lt;Path&gt;" class="cls-8" points="953.56 260.84 956.38 263.77 961.22 258.93"/><line id="_Path_19" data-name="&lt;Path&gt;" class="cls-8" x1="963.6" y1="263.3" x2="970.66" y2="263.3"/><g id="_Group_11" data-name="&lt;Group&gt;"><g id="_Group_12" data-name="&lt;Group&gt;"><g id="_Group_13" data-name="&lt;Group&gt;"><g id="_Group_14" data-name="&lt;Group&gt;"><circle id="_Ellipse_3" data-name="&lt;Ellipse&gt;" class="cls-6" cx="994.63" cy="266.8" r="6.21"/><path id="_Path_20" data-name="&lt;Path&gt;" class="cls-6" d="M1005.38,286v-4.47a4.78,4.78,0,0,0-4.78-4.79H987.89a4.78,4.78,0,0,0-4.78,4.79V286"/></g></g></g></g><path class="cls-5" d="M612.68,269a11.12,11.12,0,0,1-4.52.81c-4.83,0-8.46-3-8.46-8.66,0-5.35,3.63-9,8.94-9a9,9,0,0,1,4.06.77l-.53,1.8a8,8,0,0,0-3.45-.71c-4,0-6.68,2.56-6.68,7.06,0,4.19,2.41,6.88,6.57,6.88a8.88,8.88,0,0,0,3.61-.71Z"/><path class="cls-5" d="M615.37,251.49h2.23v18h-2.23Z"/><path class="cls-5" d="M622.6,263.78c.06,3,2,4.26,4.22,4.26a8.17,8.17,0,0,0,3.4-.63l.38,1.6a10,10,0,0,1-4.09.76c-3.78,0-6-2.49-6-6.19s2.19-6.63,5.77-6.63c4,0,5.07,3.53,5.07,5.79a10.18,10.18,0,0,1-.07,1Zm6.56-1.6c0-1.42-.59-3.63-3.1-3.63-2.26,0-3.25,2.08-3.43,3.63Z"/><path class="cls-5" d="M640.89,269.52l-.18-1.55h-.08a4.58,4.58,0,0,1-3.76,1.83,3.5,3.5,0,0,1-3.75-3.53c0-3,2.64-4.6,7.38-4.57v-.26a2.53,2.53,0,0,0-2.79-2.84,6.13,6.13,0,0,0-3.2.91L634,258a7.65,7.65,0,0,1,4-1.09c3.76,0,4.67,2.56,4.67,5v4.59a16.55,16.55,0,0,0,.21,2.95Zm-.33-6.27c-2.44-.06-5.21.38-5.21,2.76a2,2,0,0,0,2.11,2.14,3.06,3.06,0,0,0,3-2.06,2.53,2.53,0,0,0,.13-.71Z"/><path class="cls-5" d="M646.32,261.06c0-1.45,0-2.69-.1-3.83h1.95l.08,2.41h.1a3.68,3.68,0,0,1,3.4-2.69,2.51,2.51,0,0,1,.64.07v2.11a3.45,3.45,0,0,0-.76-.07,3.13,3.13,0,0,0-3,2.86,6.57,6.57,0,0,0-.1,1.05v6.55h-2.21Z"/><path class="cls-5" d="M657.21,253.77a1.32,1.32,0,0,1-1.42,1.38,1.33,1.33,0,0,1-1.35-1.38,1.36,1.36,0,0,1,1.4-1.39A1.32,1.32,0,0,1,657.21,253.77Zm-2.49,15.75V257.23H657v12.29Z"/><path class="cls-5" d="M660.66,260.55c0-1.27,0-2.31-.1-3.32h2l.13,2h.05a4.51,4.51,0,0,1,4.06-2.31c1.7,0,4.35,1,4.35,5.23v7.34h-2.24v-7.09c0-2-.74-3.63-2.84-3.63a3.17,3.17,0,0,0-3,2.29,3.26,3.26,0,0,0-.15,1v7.39h-2.24Z"/><path class="cls-5" d="M685.34,257.23c-.05.89-.1,1.88-.1,3.37v7.14c0,2.82-.56,4.54-1.75,5.61a6.49,6.49,0,0,1-4.47,1.47,8,8,0,0,1-4.09-1l.56-1.7a7,7,0,0,0,3.61,1c2.28,0,4-1.19,4-4.29v-1.37h0a4.4,4.4,0,0,1-3.91,2.06c-3.05,0-5.23-2.59-5.23-6,0-4.16,2.71-6.52,5.53-6.52a4.11,4.11,0,0,1,3.84,2.13h0l.1-1.85ZM683,262.08a3.29,3.29,0,0,0-.12-1,3.23,3.23,0,0,0-3.13-2.36c-2.13,0-3.65,1.8-3.65,4.65,0,2.41,1.22,4.41,3.63,4.41a3.27,3.27,0,0,0,3.1-2.28,4.08,4.08,0,0,0,.17-1.19Z"/><path class="cls-5" d="M701.14,269.52,701,268h-.08a4.58,4.58,0,0,1-3.76,1.83,3.5,3.5,0,0,1-3.75-3.53c0-3,2.64-4.6,7.39-4.57v-.26a2.54,2.54,0,0,0-2.8-2.84,6.13,6.13,0,0,0-3.2.91l-.5-1.47a7.58,7.58,0,0,1,4-1.09c3.76,0,4.67,2.56,4.67,5v4.59a17.55,17.55,0,0,0,.21,2.95Zm-.33-6.27c-2.44-.06-5.21.38-5.21,2.76a2,2,0,0,0,2.11,2.14,3.06,3.06,0,0,0,3-2.06,2.22,2.22,0,0,0,.13-.71Z"/><path class="cls-5" d="M706.57,260.55c0-1.27,0-2.31-.1-3.32h2l.13,2h0a4.51,4.51,0,0,1,4.06-2.31c1.7,0,4.34,1,4.34,5.23v7.34H714.8v-7.09c0-2-.74-3.63-2.85-3.63a3.17,3.17,0,0,0-3,2.29,3.25,3.25,0,0,0-.16,1v7.39h-2.23Z"/><path class="cls-5" d="M731.27,251.49v14.85c0,1.09,0,2.34.11,3.18h-2l-.1-2.14h0A4.55,4.55,0,0,1,725,269.8c-3,0-5.26-2.52-5.26-6.25,0-4.09,2.52-6.6,5.51-6.6a4.12,4.12,0,0,1,3.71,1.88h0v-7.34ZM729,262.23a4.29,4.29,0,0,0-.1-.94,3.29,3.29,0,0,0-3.23-2.59c-2.31,0-3.68,2-3.68,4.75,0,2.49,1.22,4.54,3.63,4.54a3.37,3.37,0,0,0,3.28-2.66,4.25,4.25,0,0,0,.1-1Z"/><path class="cls-5" d="M600.34,292.62a5.87,5.87,0,0,0,2.94.89c1.63,0,2.39-.81,2.39-1.83s-.64-1.65-2.29-2.26c-2.2-.78-3.25-2-3.25-3.48,0-2,1.6-3.6,4.24-3.6a6.13,6.13,0,0,1,3,.76l-.56,1.63a4.72,4.72,0,0,0-2.52-.72c-1.32,0-2.05.77-2.05,1.68s.73,1.47,2.33,2.08c2.14.82,3.23,1.88,3.23,3.71,0,2.16-1.68,3.68-4.6,3.68a7,7,0,0,1-3.45-.84Z"/><path class="cls-5" d="M611.94,289.17a3.93,3.93,0,0,0,4.22,4.26,8,8,0,0,0,3.4-.63l.38,1.6a9.89,9.89,0,0,1-4.09.76c-3.78,0-6-2.49-6-6.19s2.18-6.63,5.76-6.63c4,0,5.08,3.53,5.08,5.79a7.43,7.43,0,0,1-.08,1Zm6.55-1.6c0-1.42-.58-3.63-3.1-3.63-2.26,0-3.25,2.08-3.42,3.63Z"/><path class="cls-5" d="M626.11,279.09v3.53h3.2v1.7h-3.2V291c0,1.52.43,2.38,1.67,2.38a4.84,4.84,0,0,0,1.3-.15l.1,1.68a5.67,5.67,0,0,1-2,.3,3.09,3.09,0,0,1-2.41-.94,4.52,4.52,0,0,1-.87-3.2v-6.7H622v-1.7h1.9v-2.95Z"/><path class="cls-5" d="M634.51,279.09v3.53h3.2v1.7h-3.2V291c0,1.52.43,2.38,1.68,2.38a4.81,4.81,0,0,0,1.29-.15l.11,1.68a5.73,5.73,0,0,1-2,.3,3.1,3.1,0,0,1-2.41-.94,4.57,4.57,0,0,1-.86-3.2v-6.7h-1.91v-1.7h1.91v-2.95Z"/><path class="cls-5" d="M640.23,276.88h2.23v18h-2.23Z"/><path class="cls-5" d="M647.46,289.17a3.93,3.93,0,0,0,4.22,4.26,8,8,0,0,0,3.4-.63l.38,1.6a9.89,9.89,0,0,1-4.09.76c-3.78,0-6-2.49-6-6.19s2.18-6.63,5.76-6.63c4,0,5.08,3.53,5.08,5.79a7.43,7.43,0,0,1-.08,1Zm6.55-1.6c0-1.42-.58-3.63-3.1-3.63-2.26,0-3.25,2.08-3.42,3.63Z"/><path class="cls-5" d="M658.94,285.94c0-1.27,0-2.31-.1-3.32h1.95l.1,2H661a4.23,4.23,0,0,1,3.86-2.26,3.64,3.64,0,0,1,3.48,2.46h.05a5.08,5.08,0,0,1,1.37-1.6,4.2,4.2,0,0,1,2.72-.86c1.62,0,4,1.07,4,5.33v7.24H674.3v-7c0-2.36-.86-3.78-2.67-3.78a2.89,2.89,0,0,0-2.64,2,3.72,3.72,0,0,0-.17,1.12v7.59h-2.19v-7.37c0-2-.86-3.37-2.56-3.37a3,3,0,0,0-2.77,2.23,3,3,0,0,0-.18,1.09v7.42h-2.18Z"/><path class="cls-5" d="M681.36,289.17c0,3,2,4.26,4.21,4.26a8.06,8.06,0,0,0,3.41-.63l.38,1.6a9.93,9.93,0,0,1-4.09.76c-3.79,0-6-2.49-6-6.19s2.18-6.63,5.76-6.63c4,0,5.08,3.53,5.08,5.79a7.43,7.43,0,0,1-.08,1Zm6.55-1.6c0-1.42-.59-3.63-3.1-3.63-2.26,0-3.25,2.08-3.43,3.63Z"/><path class="cls-5" d="M692.83,285.94c0-1.27,0-2.31-.1-3.32h2l.13,2h0a4.51,4.51,0,0,1,4.06-2.31c1.7,0,4.35,1,4.35,5.23v7.34h-2.24v-7.09c0-2-.74-3.63-2.84-3.63a3.17,3.17,0,0,0-3,2.29,3.26,3.26,0,0,0-.15,1v7.39h-2.24Z"/><path class="cls-5" d="M709.52,279.09v3.53h3.19v1.7h-3.19V291c0,1.52.43,2.38,1.67,2.38a4.84,4.84,0,0,0,1.3-.15l.1,1.68a5.67,5.67,0,0,1-2,.3,3.09,3.09,0,0,1-2.41-.94,4.52,4.52,0,0,1-.87-3.2v-6.7h-1.9v-1.7h1.9v-2.95Z"/><path class="cls-5" d="M600.41,405.78a7.83,7.83,0,0,0,4,1.12c2.26,0,3.58-1.2,3.58-2.92s-.91-2.52-3.22-3.41c-2.79-1-4.52-2.43-4.52-4.85,0-2.66,2.21-4.64,5.54-4.64a7.66,7.66,0,0,1,3.78.84l-.61,1.8a6.76,6.76,0,0,0-3.25-.81c-2.34,0-3.23,1.39-3.23,2.56,0,1.6,1,2.39,3.41,3.3,2.89,1.12,4.36,2.52,4.36,5s-2,4.92-6,4.92a8.8,8.8,0,0,1-4.36-1.09Z"/><path class="cls-5" d="M613.77,396.18l2.69,7.26c.28.82.58,1.78.79,2.52h0c.23-.74.48-1.68.79-2.57l2.43-7.21h2.36l-3.35,8.76c-1.6,4.22-2.69,6.37-4.21,7.69a6,6,0,0,1-2.74,1.45L612,412.2a5.71,5.71,0,0,0,2-1.09,6.72,6.72,0,0,0,1.88-2.49,1.63,1.63,0,0,0,.18-.53,1.94,1.94,0,0,0-.15-.58l-4.55-11.33Z"/><path class="cls-5" d="M624.46,406.19a5.87,5.87,0,0,0,2.94.88c1.63,0,2.39-.81,2.39-1.82s-.63-1.65-2.28-2.26c-2.21-.79-3.25-2-3.25-3.48,0-2,1.6-3.61,4.24-3.61a6.22,6.22,0,0,1,3,.76l-.56,1.63a4.73,4.73,0,0,0-2.52-.71c-1.32,0-2.05.76-2.05,1.67s.73,1.48,2.33,2.09c2.14.81,3.23,1.88,3.23,3.7,0,2.16-1.68,3.68-4.6,3.68a7.09,7.09,0,0,1-3.45-.83Z"/><path class="cls-5" d="M637.51,392.65v3.53h3.2v1.7h-3.2v6.63c0,1.52.43,2.39,1.68,2.39a4.73,4.73,0,0,0,1.29-.16l.1,1.68a5.44,5.44,0,0,1-2,.3,3.12,3.12,0,0,1-2.41-.93,4.54,4.54,0,0,1-.86-3.2v-6.71h-1.91v-1.7h1.91v-2.94Z"/><path class="cls-5" d="M644.31,402.73c.05,3,2,4.27,4.22,4.27a8,8,0,0,0,3.4-.64l.38,1.6a9.89,9.89,0,0,1-4.09.76c-3.78,0-6-2.48-6-6.19s2.18-6.63,5.76-6.63c4,0,5.08,3.53,5.08,5.79a10,10,0,0,1-.07,1Zm6.55-1.6c0-1.42-.58-3.63-3.09-3.63-2.26,0-3.25,2.08-3.43,3.63Z"/><path class="cls-5" d="M655.79,399.51c0-1.27,0-2.31-.1-3.33h1.95l.11,2h.07a4.24,4.24,0,0,1,3.86-2.26,3.63,3.63,0,0,1,3.48,2.47h.05a5,5,0,0,1,1.37-1.6,4.2,4.2,0,0,1,2.72-.87c1.62,0,4,1.07,4,5.33v7.24h-2.19v-7c0-2.36-.86-3.78-2.66-3.78a2.91,2.91,0,0,0-2.65,2,3.77,3.77,0,0,0-.17,1.12v7.59h-2.19v-7.36c0-2-.86-3.38-2.56-3.38a3.06,3.06,0,0,0-2.77,2.24,3,3,0,0,0-.18,1.09v7.41h-2.18Z"/><path class="cls-5" d="M607.45,433.86l-.18-1.55h-.08a4.54,4.54,0,0,1-3.75,1.83,3.5,3.5,0,0,1-3.76-3.53c0-3,2.64-4.59,7.39-4.57v-.25a2.54,2.54,0,0,0-2.8-2.85,6.14,6.14,0,0,0-3.2.92l-.5-1.48a7.58,7.58,0,0,1,4-1.09c3.76,0,4.67,2.57,4.67,5v4.6a17.5,17.5,0,0,0,.21,2.94Zm-.33-6.27c-2.44,0-5.21.38-5.21,2.77a2,2,0,0,0,2.11,2.13,3.06,3.06,0,0,0,3-2.06,2.17,2.17,0,0,0,.13-.71Z"/><path class="cls-5" d="M612.88,424.9c0-1.27,0-2.31-.1-3.33h2l.13,2h.05a4.53,4.53,0,0,1,4.06-2.31c1.7,0,4.34,1,4.34,5.23v7.34h-2.23v-7.08c0-2-.74-3.63-2.85-3.63a3.17,3.17,0,0,0-3,2.28,3.25,3.25,0,0,0-.16,1v7.39h-2.23Z"/><path class="cls-5" d="M637.59,415.83v14.86c0,1.09,0,2.33.1,3.17h-2l-.1-2.13h-.05a4.56,4.56,0,0,1-4.19,2.41c-3,0-5.26-2.51-5.26-6.25,0-4.08,2.52-6.6,5.51-6.6a4.12,4.12,0,0,1,3.71,1.88h.05v-7.34Zm-2.24,10.74a3.81,3.81,0,0,0-.1-.94,3.28,3.28,0,0,0-3.23-2.58c-2.31,0-3.68,2-3.68,4.74,0,2.49,1.22,4.55,3.63,4.55a3.36,3.36,0,0,0,3.28-2.67,3.68,3.68,0,0,0,.1-1Z"/><path class="cls-5" d="M646.67,424.9c0-1.27,0-2.31-.1-3.33h2l.1,2h.08a4.22,4.22,0,0,1,3.86-2.26,3.63,3.63,0,0,1,3.47,2.47h.05a5.11,5.11,0,0,1,1.38-1.6,4.15,4.15,0,0,1,2.71-.87c1.63,0,4,1.07,4,5.34v7.23H662v-7c0-2.36-.87-3.78-2.67-3.78a2.89,2.89,0,0,0-2.64,2,3.75,3.75,0,0,0-.18,1.12v7.59h-2.18V426.5c0-2-.87-3.38-2.57-3.38a3,3,0,0,0-2.76,2.24,3,3,0,0,0-.18,1.09v7.41h-2.19Z"/><path class="cls-5" d="M674.66,433.86l-.18-1.55h-.08a4.55,4.55,0,0,1-3.76,1.83,3.5,3.5,0,0,1-3.75-3.53c0-3,2.64-4.59,7.38-4.57v-.25a2.53,2.53,0,0,0-2.79-2.85,6.14,6.14,0,0,0-3.2.92l-.51-1.48a7.65,7.65,0,0,1,4-1.09c3.76,0,4.67,2.57,4.67,5v4.6a16.51,16.51,0,0,0,.21,2.94Zm-.33-6.27c-2.44,0-5.21.38-5.21,2.77a2,2,0,0,0,2.11,2.13,3.06,3.06,0,0,0,3-2.06,2.47,2.47,0,0,0,.13-.71Z"/><path class="cls-5" d="M680.09,425.41c0-1.45,0-2.69-.1-3.84h2L682,424h.1a3.68,3.68,0,0,1,3.4-2.69,2.49,2.49,0,0,1,.64.08v2.11a3.41,3.41,0,0,0-.76-.08,3.13,3.13,0,0,0-3,2.87,6.33,6.33,0,0,0-.1,1v6.55h-2.21Z"/><path class="cls-5" d="M690.7,427.21h0c.31-.43.74-1,1.09-1.4l3.61-4.24h2.69l-4.75,5.06,5.41,7.23h-2.72L691.84,428l-1.14,1.27v4.62h-2.21v-18h2.21Z"/><path class="cls-5" d="M701.65,428.12c.05,3,2,4.27,4.21,4.27a8,8,0,0,0,3.4-.64l.38,1.6a9.8,9.8,0,0,1-4.08.77c-3.79,0-6-2.49-6-6.2s2.19-6.63,5.77-6.63c4,0,5.07,3.53,5.07,5.79a10,10,0,0,1-.07,1Zm6.55-1.6c0-1.42-.59-3.63-3.1-3.63-2.26,0-3.25,2.08-3.43,3.63Z"/><path class="cls-5" d="M715.81,418v3.53H719v1.7h-3.2v6.63c0,1.52.43,2.39,1.68,2.39a4.73,4.73,0,0,0,1.29-.16l.1,1.68a5.37,5.37,0,0,1-2,.31,3.1,3.1,0,0,1-2.41-.94,4.59,4.59,0,0,1-.86-3.2v-6.71h-1.91v-1.7h1.91v-2.94Z"/><path class="cls-5" d="M603.13,443.51a1.31,1.31,0,0,1-1.42,1.37,1.33,1.33,0,0,1-1.35-1.37,1.37,1.37,0,0,1,1.4-1.4A1.33,1.33,0,0,1,603.13,443.51Zm-2.49,15.74V447h2.24v12.29Z"/><path class="cls-5" d="M606.58,450.29c0-1.27,0-2.31-.1-3.33h2l.13,2h0a4.53,4.53,0,0,1,4.06-2.31c1.7,0,4.34,1,4.34,5.23v7.34h-2.23v-7.08c0-2-.74-3.63-2.84-3.63a3.17,3.17,0,0,0-3,2.28,3.26,3.26,0,0,0-.15,1v7.39h-2.24Z"/><path class="cls-5" d="M623.26,443.43V447h3.2v1.7h-3.2v6.63c0,1.52.44,2.39,1.68,2.39a5.36,5.36,0,0,0,1.3-.15l.1,1.67a5.41,5.41,0,0,1-2,.31,3.12,3.12,0,0,1-2.42-.94,4.59,4.59,0,0,1-.86-3.2v-6.71h-1.9V447h1.9V444Z"/><path class="cls-5" d="M630.07,453.51c0,3,2,4.27,4.21,4.27a8,8,0,0,0,3.41-.64l.38,1.6a9.89,9.89,0,0,1-4.09.77c-3.78,0-6-2.49-6-6.2s2.18-6.63,5.76-6.63c4,0,5.08,3.53,5.08,5.79a7.3,7.3,0,0,1-.08,1Zm6.55-1.6c0-1.42-.58-3.63-3.1-3.63-2.26,0-3.25,2.09-3.43,3.63Z"/><path class="cls-5" d="M641.55,450.8c0-1.45,0-2.69-.11-3.84h2l.08,2.42h.1a3.68,3.68,0,0,1,3.4-2.7,2.41,2.41,0,0,1,.63.08v2.11a3.28,3.28,0,0,0-.76-.08,3.13,3.13,0,0,0-3,2.87,6.38,6.38,0,0,0-.11,1v6.55h-2.2Z"/><path class="cls-5" d="M650.84,459.25V448.66h-1.73V447h1.73v-.58a5.79,5.79,0,0,1,1.42-4.29,4.3,4.3,0,0,1,3-1.14,5.15,5.15,0,0,1,1.9.35l-.3,1.73a3.39,3.39,0,0,0-1.43-.28c-1.9,0-2.38,1.67-2.38,3.55V447h3v1.7h-3v10.59Z"/><path class="cls-5" d="M664.83,459.25l-.18-1.55h-.08a4.54,4.54,0,0,1-3.75,1.83,3.5,3.5,0,0,1-3.76-3.53c0-3,2.64-4.59,7.39-4.57v-.25a2.54,2.54,0,0,0-2.8-2.85,6.08,6.08,0,0,0-3.19.92l-.51-1.47a7.61,7.61,0,0,1,4-1.1c3.76,0,4.68,2.57,4.68,5v4.6a17.57,17.57,0,0,0,.2,2.94ZM664.5,453c-2.44-.05-5.21.38-5.21,2.77a2,2,0,0,0,2.11,2.13,3,3,0,0,0,3-2.06,2.17,2.17,0,0,0,.13-.71Z"/><path class="cls-5" d="M679,458.8a8.3,8.3,0,0,1-3.53.71c-3.7,0-6.12-2.52-6.12-6.28a6.24,6.24,0,0,1,6.61-6.52,7.52,7.52,0,0,1,3.09.63l-.5,1.73a5.29,5.29,0,0,0-2.59-.58c-2.82,0-4.35,2.08-4.35,4.64,0,2.85,1.83,4.6,4.27,4.6a6.31,6.31,0,0,0,2.74-.61Z"/><path class="cls-5" d="M682.73,453.51c0,3,2,4.27,4.21,4.27a8,8,0,0,0,3.41-.64l.38,1.6a9.89,9.89,0,0,1-4.09.77c-3.78,0-6-2.49-6-6.2s2.18-6.63,5.76-6.63c4,0,5.08,3.53,5.08,5.79a7.3,7.3,0,0,1-.08,1Zm6.55-1.6c0-1.42-.58-3.63-3.1-3.63-2.26,0-3.25,2.09-3.43,3.63Z"/><path class="cls-5" d="M693.9,457a5.88,5.88,0,0,0,3,.89c1.62,0,2.38-.82,2.38-1.83s-.63-1.65-2.28-2.26c-2.21-.79-3.25-2-3.25-3.48,0-2,1.6-3.61,4.24-3.61a6.11,6.11,0,0,1,3,.77l-.56,1.62a4.81,4.81,0,0,0-2.51-.71c-1.32,0-2.06.76-2.06,1.68s.74,1.47,2.34,2.08c2.13.81,3.22,1.88,3.22,3.7,0,2.16-1.68,3.69-4.59,3.69a7,7,0,0,1-3.46-.84Z"/><path class="cls-5" d="M600.72,533.91a25.27,25.27,0,0,1,4.24-.33,7,7,0,0,1,4.8,1.42,4.59,4.59,0,0,1,1.5,3.58,5,5,0,0,1-1.32,3.65,7.09,7.09,0,0,1-5.24,1.88,7.4,7.4,0,0,1-1.77-.15v6.86h-2.21Zm2.21,8.25a7.73,7.73,0,0,0,1.83.18c2.66,0,4.29-1.3,4.29-3.66s-1.6-3.35-4-3.35a8.7,8.7,0,0,0-2.08.18Z"/><path class="cls-5" d="M613.74,542.36c0-1.45,0-2.69-.1-3.83h2l.07,2.41h.1a3.69,3.69,0,0,1,3.41-2.69,2.43,2.43,0,0,1,.63.07v2.11a3.34,3.34,0,0,0-.76-.08,3.15,3.15,0,0,0-3,2.87,6.44,6.44,0,0,0-.1,1v6.56h-2.21Z"/><path class="cls-5" d="M623,545.08c.05,3,2,4.26,4.21,4.26a8.14,8.14,0,0,0,3.4-.63l.38,1.6a10,10,0,0,1-4.08.76c-3.79,0-6.05-2.49-6.05-6.2s2.19-6.62,5.77-6.62c4,0,5.08,3.53,5.08,5.79a9.62,9.62,0,0,1-.08,1Zm6.55-1.6c0-1.42-.59-3.63-3.1-3.63-2.26,0-3.25,2.08-3.43,3.63Z"/><path class="cls-5" d="M645.13,532.79v14.85c0,1.09,0,2.34.1,3.18h-2l-.1-2.14h0a4.55,4.55,0,0,1-4.19,2.41c-3,0-5.26-2.51-5.26-6.24,0-4.09,2.52-6.6,5.51-6.6a4.12,4.12,0,0,1,3.71,1.88h0v-7.34Zm-2.24,10.74a3.76,3.76,0,0,0-.1-.94,3.29,3.29,0,0,0-3.22-2.59c-2.31,0-3.69,2-3.69,4.75,0,2.49,1.22,4.54,3.64,4.54a3.36,3.36,0,0,0,3.27-2.66,3.75,3.75,0,0,0,.1-1Z"/><path class="cls-5" d="M651.32,535.07a1.31,1.31,0,0,1-1.42,1.37,1.32,1.32,0,0,1-1.35-1.37,1.36,1.36,0,0,1,1.4-1.39A1.32,1.32,0,0,1,651.32,535.07Zm-2.49,15.75V538.53h2.24v12.29Z"/><path class="cls-5" d="M663.53,550.36a8.26,8.26,0,0,1-3.53.71c-3.7,0-6.11-2.51-6.11-6.27a6.24,6.24,0,0,1,6.6-6.53,7.39,7.39,0,0,1,3.1.64l-.51,1.72a5.26,5.26,0,0,0-2.59-.58c-2.82,0-4.34,2.08-4.34,4.65,0,2.84,1.82,4.59,4.26,4.59a6.31,6.31,0,0,0,2.74-.61Z"/><path class="cls-5" d="M669.17,535v3.53h3.2v1.7h-3.2v6.62c0,1.53.43,2.39,1.68,2.39a4.81,4.81,0,0,0,1.29-.15l.1,1.67a5.37,5.37,0,0,1-2,.31,3.09,3.09,0,0,1-2.41-.94,4.57,4.57,0,0,1-.86-3.2v-6.7h-1.91v-1.7H667v-2.95Z"/><path class="cls-5" d="M677.37,535.07a1.31,1.31,0,0,1-1.42,1.37,1.32,1.32,0,0,1-1.35-1.37,1.36,1.36,0,0,1,1.4-1.39A1.32,1.32,0,0,1,677.37,535.07Zm-2.49,15.75V538.53h2.24v12.29Z"/><path class="cls-5" d="M681.69,538.53l2.41,6.9a30.36,30.36,0,0,1,1,3.15h.08c.28-1,.63-2,1-3.15l2.38-6.9h2.34l-4.82,12.29H684l-4.67-12.29Z"/><path class="cls-5" d="M694,545.08c.05,3,2,4.26,4.21,4.26a8.14,8.14,0,0,0,3.4-.63l.39,1.6a10.1,10.1,0,0,1-4.09.76c-3.79,0-6.05-2.49-6.05-6.2s2.19-6.62,5.77-6.62c4,0,5.08,3.53,5.08,5.79a7.57,7.57,0,0,1-.08,1Zm6.55-1.6c0-1.42-.59-3.63-3.1-3.63-2.26,0-3.25,2.08-3.43,3.63Z"/><path class="cls-5" d="M600.64,567.24c0-1.27,0-2.31-.1-3.32h2l.1,2h.07a4.24,4.24,0,0,1,3.86-2.26A3.62,3.62,0,0,1,610,566.1h0a5.21,5.21,0,0,1,1.37-1.6,4.2,4.2,0,0,1,2.72-.86c1.62,0,4,1.06,4,5.33v7.24H616v-7c0-2.36-.86-3.78-2.66-3.78a2.89,2.89,0,0,0-2.64,2,3.68,3.68,0,0,0-.18,1.11v7.6h-2.18v-7.37c0-2-.87-3.37-2.57-3.37A3,3,0,0,0,603,567.7a3.23,3.23,0,0,0-.17,1.09v7.42h-2.19Z"/><path class="cls-5" d="M632.94,570c0,4.55-3.15,6.53-6.12,6.53-3.33,0-5.89-2.44-5.89-6.33,0-4.11,2.69-6.52,6.09-6.52S632.94,566.2,632.94,570Zm-9.75.13c0,2.69,1.55,4.72,3.73,4.72s3.73-2,3.73-4.77c0-2.09-1-4.73-3.68-4.73S623.19,567.75,623.19,570.09Z"/><path class="cls-5" d="M646.37,558.18V573c0,1.09,0,2.34.1,3.18h-2l-.11-2.14h-.05a4.54,4.54,0,0,1-4.19,2.42c-3,0-5.25-2.52-5.25-6.25,0-4.09,2.51-6.6,5.51-6.6a4.12,4.12,0,0,1,3.71,1.88h0v-7.34Zm-2.23,10.74A3.77,3.77,0,0,0,644,568a3.28,3.28,0,0,0-3.22-2.59c-2.31,0-3.68,2-3.68,4.75,0,2.49,1.22,4.54,3.63,4.54A3.35,3.35,0,0,0,644,572a3.74,3.74,0,0,0,.11-1Z"/><path class="cls-5" d="M651.32,570.47a3.93,3.93,0,0,0,4.22,4.26,8.17,8.17,0,0,0,3.4-.63l.38,1.6a10.06,10.06,0,0,1-4.09.76c-3.78,0-6-2.49-6-6.2s2.18-6.62,5.76-6.62c4,0,5.08,3.53,5.08,5.79a7.57,7.57,0,0,1-.08,1Zm6.55-1.6c0-1.42-.58-3.63-3.1-3.63-2.26,0-3.25,2.08-3.42,3.63Z"/><path class="cls-5" d="M662.8,558.18H665v18H662.8Z"/><path class="cls-5" d="M671.28,560.46a1.39,1.39,0,0,1-2.77,0,1.36,1.36,0,0,1,1.4-1.39A1.32,1.32,0,0,1,671.28,560.46Zm-2.49,15.75V563.92H671v12.29Z"/><path class="cls-5" d="M674.73,567.24c0-1.27,0-2.31-.1-3.32h2l.13,2h0a4.51,4.51,0,0,1,4.06-2.31c1.7,0,4.34,1,4.34,5.23v7.34H683v-7.09c0-2-.74-3.63-2.85-3.63a3.17,3.17,0,0,0-3,2.29,3.26,3.26,0,0,0-.15,1v7.39h-2.24Z"/><path class="cls-5" d="M699.41,563.92c0,.89-.1,1.88-.1,3.37v7.14c0,2.82-.56,4.54-1.75,5.61a6.51,6.51,0,0,1-4.47,1.47,8,8,0,0,1-4.09-1l.56-1.7a7,7,0,0,0,3.6,1c2.29,0,4-1.19,4-4.29V574.1h-.06a4.38,4.38,0,0,1-3.91,2.06c-3,0-5.23-2.59-5.23-6,0-4.16,2.72-6.52,5.54-6.52a4.09,4.09,0,0,1,3.83,2.13h.05l.11-1.85Zm-2.31,4.85a3.28,3.28,0,0,0-.13-1,3.21,3.21,0,0,0-3.12-2.36c-2.13,0-3.66,1.8-3.66,4.65,0,2.41,1.22,4.41,3.63,4.41a3.26,3.26,0,0,0,3.1-2.28,3.78,3.78,0,0,0,.18-1.19Z"/><path class="cls-5" d="M719.52,570c0,4.55-3.15,6.53-6.12,6.53-3.33,0-5.89-2.44-5.89-6.33,0-4.11,2.69-6.52,6.09-6.52S719.52,566.2,719.52,570Zm-9.75.13c0,2.69,1.55,4.72,3.73,4.72s3.73-2,3.73-4.77c0-2.09-1-4.73-3.68-4.73S709.77,567.75,709.77,570.09Z"/><path class="cls-5" d="M722.57,576.21V565.62h-1.73v-1.7h1.73v-.59A5.8,5.8,0,0,1,724,559a4.27,4.27,0,0,1,3-1.14,5.14,5.14,0,0,1,1.91.36l-.31,1.72a3.34,3.34,0,0,0-1.42-.28c-1.9,0-2.38,1.68-2.38,3.56v.66h3v1.7h-3v10.59Z"/><path class="cls-5" d="M611.23,589.31c-.05.89-.1,1.88-.1,3.37v7.14c0,2.82-.56,4.54-1.75,5.61a6.51,6.51,0,0,1-4.47,1.47,8,8,0,0,1-4.09-1l.56-1.7a7,7,0,0,0,3.6,1c2.29,0,4-1.19,4-4.29v-1.37h-.05a4.38,4.38,0,0,1-3.91,2.06c-3,0-5.23-2.59-5.23-6,0-4.16,2.72-6.52,5.54-6.52a4.09,4.09,0,0,1,3.83,2.13h0l.1-1.85Zm-2.31,4.85a3.28,3.28,0,0,0-.13-1,3.22,3.22,0,0,0-3.12-2.36c-2.13,0-3.66,1.8-3.66,4.65,0,2.41,1.22,4.41,3.63,4.41a3.26,3.26,0,0,0,3.1-2.28,3.78,3.78,0,0,0,.18-1.19Z"/><path class="cls-5" d="M616.08,595.86c0,3,2,4.26,4.21,4.26a8.22,8.22,0,0,0,3.41-.63l.38,1.6a10.1,10.1,0,0,1-4.09.76c-3.78,0-6-2.49-6-6.19s2.18-6.63,5.76-6.63c4,0,5.08,3.53,5.08,5.79a7.57,7.57,0,0,1-.08,1Zm6.55-1.6c0-1.42-.58-3.63-3.1-3.63-2.26,0-3.25,2.08-3.43,3.63Z"/><path class="cls-5" d="M627.56,592.63c0-1.27,0-2.31-.11-3.32h2l.13,2h.05a4.51,4.51,0,0,1,4.06-2.31c1.71,0,4.35,1,4.35,5.23v7.34h-2.24v-7.09c0-2-.73-3.63-2.84-3.63a3.18,3.18,0,0,0-3,2.29,3.26,3.26,0,0,0-.15,1v7.39h-2.23Z"/><path class="cls-5" d="M642.89,595.86a3.93,3.93,0,0,0,4.22,4.26,8.17,8.17,0,0,0,3.4-.63l.38,1.6a10.06,10.06,0,0,1-4.09.76c-3.78,0-6-2.49-6-6.19s2.18-6.63,5.76-6.63c4,0,5.08,3.53,5.08,5.79a7.57,7.57,0,0,1-.08,1Zm6.55-1.6c0-1.42-.58-3.63-3.1-3.63-2.25,0-3.25,2.08-3.42,3.63Z"/><path class="cls-5" d="M654.37,593.14c0-1.45,0-2.69-.1-3.83h2l.08,2.41h.1a3.68,3.68,0,0,1,3.4-2.69,2.51,2.51,0,0,1,.64.07v2.11a3.49,3.49,0,0,0-.77-.07,3.13,3.13,0,0,0-3,2.87,6.33,6.33,0,0,0-.1,1v6.55h-2.21Z"/><path class="cls-5" d="M669.35,601.6l-.18-1.55h-.08a4.57,4.57,0,0,1-3.75,1.83,3.51,3.51,0,0,1-3.76-3.53c0-3,2.64-4.6,7.39-4.57v-.26a2.54,2.54,0,0,0-2.8-2.84,6.07,6.07,0,0,0-3.19.91l-.51-1.47a7.61,7.61,0,0,1,4-1.09c3.76,0,4.68,2.56,4.68,5v4.59a17.62,17.62,0,0,0,.2,3Zm-.33-6.27c-2.44-.06-5.21.38-5.21,2.76a2,2,0,0,0,2.11,2.14,3.05,3.05,0,0,0,3-2.06,2.22,2.22,0,0,0,.13-.71Z"/><path class="cls-5" d="M677.37,585.78v3.53h3.2V591h-3.2v6.63c0,1.52.43,2.38,1.68,2.38a4.81,4.81,0,0,0,1.29-.15l.1,1.68a5.62,5.62,0,0,1-2,.3,3.09,3.09,0,0,1-2.41-.94,4.57,4.57,0,0,1-.86-3.2V591h-1.91v-1.7h1.91v-2.95Z"/><path class="cls-5" d="M685.57,585.85a1.38,1.38,0,1,1-2.76,0,1.36,1.36,0,0,1,1.39-1.39A1.32,1.32,0,0,1,685.57,585.85Zm-2.49,15.75V589.31h2.24V601.6Z"/><path class="cls-5" d="M700.15,595.35c0,4.55-3.15,6.53-6.12,6.53-3.33,0-5.89-2.44-5.89-6.33,0-4.11,2.69-6.52,6.09-6.52S700.15,591.59,700.15,595.35Zm-9.75.13c0,2.69,1.55,4.72,3.73,4.72s3.73-2,3.73-4.77c0-2.09-1-4.73-3.68-4.73S690.4,593.14,690.4,595.48Z"/><path class="cls-5" d="M703,592.63c0-1.27,0-2.31-.1-3.32h2l.13,2h0a4.51,4.51,0,0,1,4.06-2.31c1.71,0,4.35,1,4.35,5.23v7.34h-2.24v-7.09c0-2-.73-3.63-2.84-3.63a3.18,3.18,0,0,0-3,2.29,3.26,3.26,0,0,0-.15,1v7.39H703Z"/><path class="cls-5" d="M607.45,627l-.18-1.55h-.08a4.57,4.57,0,0,1-3.75,1.83,3.51,3.51,0,0,1-3.76-3.53c0-3,2.64-4.6,7.39-4.57v-.26a2.54,2.54,0,0,0-2.8-2.84,6.13,6.13,0,0,0-3.2.91l-.5-1.47a7.58,7.58,0,0,1,4-1.09c3.76,0,4.67,2.56,4.67,5V624a17.55,17.55,0,0,0,.21,3Zm-.33-6.27c-2.44-.05-5.21.38-5.21,2.76a2,2,0,0,0,2.11,2.14,3.06,3.06,0,0,0,3-2.06,2.22,2.22,0,0,0,.13-.71Z"/><path class="cls-5" d="M612.88,618c0-1.26,0-2.31-.1-3.32h2l.13,2h.05a4.51,4.51,0,0,1,4.06-2.31c1.7,0,4.34,1,4.34,5.23V627h-2.23V619.9c0-2-.74-3.63-2.85-3.63a3.17,3.17,0,0,0-3,2.29,3.25,3.25,0,0,0-.16,1V627h-2.23Z"/><path class="cls-5" d="M637.59,609v14.85c0,1.1,0,2.34.1,3.18h-2l-.1-2.14h-.05a4.55,4.55,0,0,1-4.19,2.42c-3,0-5.26-2.52-5.26-6.25,0-4.09,2.52-6.6,5.51-6.6a4.12,4.12,0,0,1,3.71,1.88h.05V609Zm-2.24,10.74a3.76,3.76,0,0,0-.1-.94,3.29,3.29,0,0,0-3.23-2.59c-2.31,0-3.68,2-3.68,4.75,0,2.49,1.22,4.54,3.63,4.54a3.37,3.37,0,0,0,3.28-2.66,3.75,3.75,0,0,0,.1-1Z"/><path class="cls-5" d="M646.67,609h2.24v18h-2.24Z"/><path class="cls-5" d="M663.79,620.74c0,4.55-3.15,6.53-6.12,6.53-3.33,0-5.89-2.44-5.89-6.33,0-4.11,2.69-6.52,6.09-6.52S663.79,617,663.79,620.74Zm-9.75.13c0,2.69,1.55,4.72,3.73,4.72s3.73-2,3.73-4.77c0-2.08-1-4.73-3.68-4.73S654,618.53,654,620.87Z"/><path class="cls-5" d="M673.41,627l-.18-1.55h-.07a4.61,4.61,0,0,1-3.76,1.83,3.51,3.51,0,0,1-3.76-3.53c0-3,2.64-4.6,7.39-4.57v-.26a2.53,2.53,0,0,0-2.79-2.84,6.08,6.08,0,0,0-3.2.91l-.51-1.47a7.65,7.65,0,0,1,4-1.09c3.75,0,4.67,2.56,4.67,5V624a17.62,17.62,0,0,0,.2,3Zm-.33-6.27c-2.44-.05-5.2.38-5.2,2.76a2,2,0,0,0,2.1,2.14,3.05,3.05,0,0,0,3-2.06,2.22,2.22,0,0,0,.13-.71Z"/><path class="cls-5" d="M689.46,609v14.85c0,1.1,0,2.34.1,3.18h-2l-.1-2.14h-.05a4.53,4.53,0,0,1-4.19,2.42c-3,0-5.25-2.52-5.25-6.25,0-4.09,2.51-6.6,5.51-6.6a4.11,4.11,0,0,1,3.7,1.88h.05V609Zm-2.24,10.74a3.76,3.76,0,0,0-.1-.94,3.29,3.29,0,0,0-3.22-2.59c-2.31,0-3.68,2-3.68,4.75,0,2.49,1.21,4.54,3.63,4.54a3.35,3.35,0,0,0,3.27-2.66,3.75,3.75,0,0,0,.1-1Z"/><path class="cls-5" d="M167.56,254.83h-5.2V253H175v1.88H169.8v15.23h-2.24Z"/><path class="cls-5" d="M175.71,261.61c0-1.45,0-2.7-.1-3.84h2l.07,2.41h.11a3.67,3.67,0,0,1,3.4-2.69,2.41,2.41,0,0,1,.63.08v2.11a3.34,3.34,0,0,0-.76-.08,3.14,3.14,0,0,0-3,2.87,6.33,6.33,0,0,0-.1,1v6.55h-2.21Z"/><path class="cls-5" d="M190.69,270.06l-.17-1.55h-.08a4.55,4.55,0,0,1-3.76,1.83,3.49,3.49,0,0,1-3.75-3.53c0-3,2.64-4.59,7.38-4.57V262a2.54,2.54,0,0,0-2.79-2.85,6.14,6.14,0,0,0-3.2.92l-.51-1.48a7.65,7.65,0,0,1,4-1.09c3.76,0,4.67,2.57,4.67,5v4.6a16.51,16.51,0,0,0,.21,2.94Zm-.33-6.27c-2.43-.05-5.2.38-5.2,2.77a2,2,0,0,0,2.11,2.13,3.06,3.06,0,0,0,3-2.06,2.52,2.52,0,0,0,.12-.71Z"/><path class="cls-5" d="M206.74,252v14.86c0,1.09,0,2.33.1,3.17h-2l-.1-2.13h-.05a4.56,4.56,0,0,1-4.19,2.41c-3,0-5.26-2.51-5.26-6.25,0-4.08,2.51-6.6,5.51-6.6a4.12,4.12,0,0,1,3.71,1.88h0V252Zm-2.23,10.74a4.29,4.29,0,0,0-.1-.94,3.29,3.29,0,0,0-3.23-2.59c-2.31,0-3.68,2-3.68,4.75,0,2.49,1.22,4.55,3.63,4.55a3.36,3.36,0,0,0,3.28-2.67,4.16,4.16,0,0,0,.1-1Z"/><path class="cls-5" d="M211.69,264.32c.05,3,2,4.27,4.22,4.27a8,8,0,0,0,3.4-.64l.38,1.6a9.89,9.89,0,0,1-4.09.76c-3.78,0-6-2.48-6-6.19s2.18-6.63,5.76-6.63c4,0,5.08,3.53,5.08,5.79a10,10,0,0,1-.07,1Zm6.55-1.6c0-1.42-.58-3.63-3.09-3.63-2.26,0-3.25,2.08-3.43,3.63Z"/><path class="cls-5" d="M237.31,269.6a8.14,8.14,0,0,1-3.53.71c-3.7,0-6.12-2.51-6.12-6.27a6.24,6.24,0,0,1,6.6-6.52,7.53,7.53,0,0,1,3.1.63l-.51,1.73a5.12,5.12,0,0,0-2.59-.58c-2.81,0-4.34,2.08-4.34,4.64,0,2.85,1.83,4.6,4.27,4.6a6.31,6.31,0,0,0,2.74-.61Z"/><path class="cls-5" d="M246.73,270.06l-.18-1.55h-.07a4.58,4.58,0,0,1-3.76,1.83,3.5,3.5,0,0,1-3.76-3.53c0-3,2.64-4.59,7.39-4.57V262a2.54,2.54,0,0,0-2.79-2.85,6.11,6.11,0,0,0-3.2.92l-.51-1.48a7.65,7.65,0,0,1,4-1.09c3.76,0,4.67,2.57,4.67,5v4.6a17.57,17.57,0,0,0,.2,2.94Zm-.33-6.27c-2.44-.05-5.2.38-5.2,2.77a2,2,0,0,0,2.1,2.13,3.05,3.05,0,0,0,3-2.06,2.22,2.22,0,0,0,.13-.71Z"/><path class="cls-5" d="M252.17,261.78c0-1.57-.06-2.84-.11-4h2l.1,2.11h.05a4.84,4.84,0,0,1,4.37-2.39c3,0,5.2,2.52,5.2,6.25,0,4.42-2.69,6.6-5.58,6.6a4.32,4.32,0,0,1-3.79-1.93h0v6.68h-2.2Zm2.2,3.28a4.28,4.28,0,0,0,.11.91,3.44,3.44,0,0,0,3.35,2.62c2.36,0,3.73-1.93,3.73-4.75,0-2.46-1.3-4.57-3.66-4.57a3.56,3.56,0,0,0-3.37,2.77,3.47,3.47,0,0,0-.16.91Z"/><path class="cls-5" d="M269.3,254.24v3.53h3.2v1.7h-3.2v6.63c0,1.52.43,2.39,1.68,2.39a4.73,4.73,0,0,0,1.29-.16l.11,1.68a5.48,5.48,0,0,1-2,.3,3.14,3.14,0,0,1-2.42-.93,4.59,4.59,0,0,1-.86-3.2v-6.71h-1.9v-1.7h1.9v-2.94Z"/><path class="cls-5" d="M285.3,266.71c0,1.27,0,2.39.1,3.35h-2l-.13-2h-.05a4.6,4.6,0,0,1-4.06,2.29c-1.93,0-4.24-1.07-4.24-5.38v-7.19h2.23v6.81c0,2.33.72,3.91,2.75,3.91a3.16,3.16,0,0,0,3.15-3.18v-7.54h2.23Z"/><path class="cls-5" d="M289,261.61c0-1.45,0-2.7-.11-3.84h2l.08,2.41h.1a3.68,3.68,0,0,1,3.4-2.69,2.41,2.41,0,0,1,.63.08v2.11a3.28,3.28,0,0,0-.76-.08,3.13,3.13,0,0,0-3,2.87,6.33,6.33,0,0,0-.1,1v6.55H289Z"/><path class="cls-5" d="M298.3,264.32c.05,3,2,4.27,4.21,4.27a8,8,0,0,0,3.41-.64l.38,1.6a9.93,9.93,0,0,1-4.09.76c-3.78,0-6-2.48-6-6.19s2.18-6.63,5.76-6.63c4,0,5.08,3.53,5.08,5.79a7.43,7.43,0,0,1-.08,1Zm6.55-1.6c0-1.42-.58-3.63-3.1-3.63-2.26,0-3.25,2.08-3.43,3.63Z"/><path class="cls-5" d="M171,295.45l-.18-1.55h-.07a4.58,4.58,0,0,1-3.76,1.83,3.5,3.5,0,0,1-3.76-3.53c0-3,2.64-4.59,7.39-4.57v-.25a2.54,2.54,0,0,0-2.79-2.85,6.11,6.11,0,0,0-3.2.92l-.51-1.48a7.65,7.65,0,0,1,4-1.09c3.76,0,4.67,2.57,4.67,5v4.6a17.57,17.57,0,0,0,.2,2.94Zm-.33-6.27c-2.44-.05-5.2.38-5.2,2.77a2,2,0,0,0,2.1,2.13,3.08,3.08,0,0,0,3-2.06,2.46,2.46,0,0,0,.12-.71Z"/><path class="cls-5" d="M176.48,286.49c0-1.27,0-2.31-.11-3.33h2l.13,2h.05a4.53,4.53,0,0,1,4.06-2.31c1.71,0,4.35,1,4.35,5.23v7.34H184.7v-7.08c0-2-.73-3.63-2.84-3.63a3.18,3.18,0,0,0-3,2.28,3.26,3.26,0,0,0-.15,1v7.39h-2.23Z"/><path class="cls-5" d="M201.18,277.42v14.86c0,1.09,0,2.33.1,3.17h-2l-.11-2.13h0a4.54,4.54,0,0,1-4.19,2.41c-3,0-5.25-2.51-5.25-6.25,0-4.08,2.51-6.6,5.51-6.6a4.12,4.12,0,0,1,3.71,1.88h0v-7.34ZM199,288.16a3.77,3.77,0,0,0-.11-.94,3.28,3.28,0,0,0-3.22-2.59c-2.31,0-3.68,2-3.68,4.75,0,2.49,1.22,4.55,3.63,4.55a3.35,3.35,0,0,0,3.27-2.67,3.67,3.67,0,0,0,.11-1Z"/><path class="cls-5" d="M210.27,287.17c0-1.57-.05-2.84-.1-4h2l.11,2.11h.05a4.82,4.82,0,0,1,4.36-2.39c3,0,5.21,2.52,5.21,6.25,0,4.42-2.69,6.6-5.59,6.6a4.31,4.31,0,0,1-3.78-1.93h-.05v6.68h-2.21Zm2.21,3.28a5.07,5.07,0,0,0,.1.91,3.45,3.45,0,0,0,3.35,2.62c2.36,0,3.73-1.93,3.73-4.75,0-2.46-1.29-4.57-3.65-4.57a3.56,3.56,0,0,0-3.38,2.77,3.93,3.93,0,0,0-.15.91Z"/><path class="cls-5" d="M224.72,287c0-1.45,0-2.7-.1-3.84h1.95l.08,2.41h.1a3.68,3.68,0,0,1,3.4-2.69,2.55,2.55,0,0,1,.64.08v2.11A3.44,3.44,0,0,0,230,285a3.13,3.13,0,0,0-3,2.87,6.33,6.33,0,0,0-.1,1v6.55h-2.21Z"/><path class="cls-5" d="M243.89,289.21c0,4.54-3.15,6.52-6.12,6.52-3.33,0-5.89-2.44-5.89-6.32,0-4.11,2.69-6.53,6.09-6.53S243.89,285.45,243.89,289.21Zm-9.75.12c0,2.69,1.55,4.72,3.73,4.72s3.73-2,3.73-4.77c0-2.08-1-4.72-3.68-4.72S234.14,287,234.14,289.33Z"/><path class="cls-5" d="M255.46,295a8.06,8.06,0,0,1-3.52.72c-3.71,0-6.12-2.52-6.12-6.28a6.24,6.24,0,0,1,6.6-6.52,7.57,7.57,0,0,1,3.1.63l-.51,1.73a5.26,5.26,0,0,0-2.59-.58c-2.82,0-4.34,2.08-4.34,4.64,0,2.85,1.82,4.6,4.26,4.6a6.31,6.31,0,0,0,2.74-.61Z"/><path class="cls-5" d="M259.17,289.71c.05,3,2,4.27,4.22,4.27a8,8,0,0,0,3.4-.64l.38,1.6a9.85,9.85,0,0,1-4.09.77c-3.78,0-6-2.49-6-6.2s2.18-6.63,5.76-6.63c4,0,5.08,3.53,5.08,5.79a7.43,7.43,0,0,1-.08,1Zm6.55-1.6c0-1.42-.58-3.63-3.09-3.63-2.26,0-3.25,2.08-3.43,3.63Z"/><path class="cls-5" d="M270.34,293.17a5.88,5.88,0,0,0,3,.88c1.62,0,2.39-.81,2.39-1.82s-.64-1.65-2.29-2.26c-2.21-.79-3.25-2-3.25-3.48,0-2,1.6-3.61,4.24-3.61a6.16,6.16,0,0,1,3,.76l-.56,1.63a4.81,4.81,0,0,0-2.51-.71c-1.32,0-2.06.76-2.06,1.67s.74,1.48,2.34,2.09c2.13.81,3.22,1.88,3.22,3.7,0,2.16-1.67,3.69-4.59,3.69a7,7,0,0,1-3.45-.84Z"/><path class="cls-5" d="M280.4,293.17a5.87,5.87,0,0,0,2.94.88c1.63,0,2.39-.81,2.39-1.82s-.63-1.65-2.28-2.26c-2.21-.79-3.25-2-3.25-3.48,0-2,1.6-3.61,4.24-3.61a6.22,6.22,0,0,1,3,.76l-.56,1.63a4.82,4.82,0,0,0-2.52-.71c-1.32,0-2.05.76-2.05,1.67s.73,1.48,2.33,2.09c2.14.81,3.23,1.88,3.23,3.7,0,2.16-1.68,3.69-4.6,3.69a7,7,0,0,1-3.45-.84Z"/><path class="cls-5" d="M293.25,279.71a1.39,1.39,0,0,1-2.77,0,1.36,1.36,0,0,1,1.4-1.4A1.33,1.33,0,0,1,293.25,279.71Zm-2.49,15.74V283.16H293v12.29Z"/><path class="cls-5" d="M296.7,286.49c0-1.27,0-2.31-.1-3.33h2l.13,2h.05a4.53,4.53,0,0,1,4.06-2.31c1.7,0,4.34,1,4.34,5.23v7.34h-2.23v-7.08c0-2-.74-3.63-2.85-3.63a3.17,3.17,0,0,0-3,2.28,3,3,0,0,0-.16,1v7.39H296.7Z"/><path class="cls-5" d="M321.38,283.16c-.05.89-.1,1.88-.1,3.38v7.13c0,2.82-.56,4.55-1.75,5.62a6.56,6.56,0,0,1-4.47,1.47,7.92,7.92,0,0,1-4.09-1l.56-1.7a6.89,6.89,0,0,0,3.6,1c2.29,0,4-1.2,4-4.29v-1.38h0a4.36,4.36,0,0,1-3.91,2.06c-3,0-5.23-2.59-5.23-6,0-4.17,2.72-6.53,5.54-6.53a4.08,4.08,0,0,1,3.83,2.14h.05l.1-1.86ZM319.07,288a3.17,3.17,0,0,0-.13-1,3.22,3.22,0,0,0-3.12-2.37c-2.13,0-3.66,1.81-3.66,4.65,0,2.41,1.22,4.42,3.63,4.42a3.26,3.26,0,0,0,3.1-2.29,3.78,3.78,0,0,0,.18-1.19Z"/><path class="cls-5" d="M164.31,402.26a25.46,25.46,0,0,1,4.24-.33,7,7,0,0,1,4.8,1.42,4.62,4.62,0,0,1,1.5,3.58,5.06,5.06,0,0,1-1.32,3.66,7.11,7.11,0,0,1-5.23,1.88,8,8,0,0,1-1.78-.15v6.85h-2.21Zm2.21,8.25a7.24,7.24,0,0,0,1.83.18c2.67,0,4.29-1.29,4.29-3.66s-1.6-3.35-4-3.35a9.33,9.33,0,0,0-2.08.18Z"/><path class="cls-5" d="M177.34,410.72c0-1.45,0-2.7-.1-3.84h1.95l.08,2.41h.1a3.68,3.68,0,0,1,3.4-2.69,2.49,2.49,0,0,1,.64.08v2.11a3.41,3.41,0,0,0-.76-.08,3.13,3.13,0,0,0-3,2.87,6.33,6.33,0,0,0-.1,1v6.55h-2.21Z"/><path class="cls-5" d="M196.51,412.92c0,4.55-3.15,6.53-6.12,6.53-3.33,0-5.89-2.44-5.89-6.32,0-4.12,2.69-6.53,6.09-6.53S196.51,409.17,196.51,412.92Zm-9.75.13c0,2.69,1.55,4.72,3.73,4.72s3.73-2,3.73-4.77c0-2.08-1-4.72-3.68-4.72S186.76,410.72,186.76,413.05Z"/><path class="cls-5" d="M208.09,418.71a8.18,8.18,0,0,1-3.53.71c-3.71,0-6.12-2.51-6.12-6.27a6.24,6.24,0,0,1,6.6-6.52,7.57,7.57,0,0,1,3.1.63l-.51,1.73a5.12,5.12,0,0,0-2.59-.58c-2.82,0-4.34,2.08-4.34,4.64,0,2.85,1.83,4.6,4.26,4.6a6.39,6.39,0,0,0,2.75-.61Z"/><path class="cls-5" d="M211.79,413.43c.06,3,2,4.27,4.22,4.27a8,8,0,0,0,3.4-.64l.38,1.6a9.85,9.85,0,0,1-4.09.76c-3.78,0-6-2.48-6-6.19s2.19-6.63,5.77-6.63c4,0,5.07,3.53,5.07,5.79a10,10,0,0,1-.07,1Zm6.56-1.6c0-1.42-.59-3.63-3.1-3.63-2.26,0-3.25,2.08-3.43,3.63Z"/><path class="cls-5" d="M223,416.89a5.84,5.84,0,0,0,2.94.88c1.63,0,2.39-.81,2.39-1.82s-.64-1.65-2.29-2.26c-2.21-.79-3.25-2-3.25-3.48,0-2,1.6-3.61,4.24-3.61a6.16,6.16,0,0,1,3,.76l-.55,1.63a4.76,4.76,0,0,0-2.52-.71c-1.32,0-2,.76-2,1.67s.73,1.48,2.33,2.09c2.13.81,3.23,1.88,3.23,3.7,0,2.16-1.68,3.68-4.6,3.68a7.09,7.09,0,0,1-3.45-.83Z"/><path class="cls-5" d="M233,416.89a5.88,5.88,0,0,0,2.95.88c1.62,0,2.38-.81,2.38-1.82s-.63-1.65-2.28-2.26c-2.21-.79-3.25-2-3.25-3.48,0-2,1.6-3.61,4.24-3.61a6.22,6.22,0,0,1,3,.76l-.56,1.63a4.72,4.72,0,0,0-2.51-.71c-1.32,0-2.06.76-2.06,1.67s.74,1.48,2.34,2.09c2.13.81,3.22,1.88,3.22,3.7,0,2.16-1.67,3.68-4.59,3.68a7.13,7.13,0,0,1-3.46-.83Z"/><path class="cls-5" d="M164.24,436.11c0-1.45,0-2.69-.1-3.84h2l.08,2.41h.1a3.68,3.68,0,0,1,3.4-2.69,2.55,2.55,0,0,1,.64.08v2.11a3.44,3.44,0,0,0-.77-.08,3.13,3.13,0,0,0-3,2.87,6.33,6.33,0,0,0-.1,1v6.55h-2.21Z"/><path class="cls-5" d="M179.22,444.56,179,443H179a4.54,4.54,0,0,1-3.75,1.83,3.5,3.5,0,0,1-3.76-3.53c0-3,2.64-4.59,7.39-4.57v-.25a2.54,2.54,0,0,0-2.8-2.85,6.08,6.08,0,0,0-3.19.92l-.51-1.47a7.52,7.52,0,0,1,4-1.1c3.76,0,4.68,2.57,4.68,5v4.6a17.57,17.57,0,0,0,.2,2.94Zm-.33-6.27c-2.44-.05-5.21.38-5.21,2.77a2,2,0,0,0,2.11,2.13,3.05,3.05,0,0,0,3-2.06,2.17,2.17,0,0,0,.13-.71Z"/><path class="cls-5" d="M187.24,428.74v3.53h3.2V434h-3.2v6.63c0,1.52.43,2.39,1.68,2.39a5.27,5.27,0,0,0,1.29-.15l.1,1.67a5.37,5.37,0,0,1-2,.31,3.09,3.09,0,0,1-2.41-.94,4.59,4.59,0,0,1-.86-3.2V434h-1.91v-1.7h1.91v-2.94Z"/><path class="cls-5" d="M195.44,428.82a1.38,1.38,0,0,1-2.76,0,1.36,1.36,0,0,1,1.39-1.4A1.33,1.33,0,0,1,195.44,428.82ZM193,444.56V432.27h2.24v12.29Z"/><path class="cls-5" d="M210,438.32c0,4.54-3.15,6.52-6.12,6.52-3.33,0-5.89-2.44-5.89-6.32,0-4.11,2.69-6.53,6.09-6.53S210,434.56,210,438.32Zm-9.75.12c0,2.69,1.55,4.73,3.73,4.73s3.73-2,3.73-4.78c0-2.08-1-4.72-3.68-4.72S200.27,436.11,200.27,438.44Z"/><path class="cls-5" d="M212.84,435.6c0-1.27,0-2.31-.11-3.33h2l.13,2h0A4.53,4.53,0,0,1,219,432c1.71,0,4.35,1,4.35,5.23v7.34h-2.24v-7.08c0-2-.73-3.63-2.84-3.63a3.18,3.18,0,0,0-3,2.28,3.26,3.26,0,0,0-.15,1v7.39h-2.23Z"/><path class="cls-5" d="M233.73,444.56l-.18-1.55h-.07a4.58,4.58,0,0,1-3.76,1.83,3.5,3.5,0,0,1-3.76-3.53c0-3,2.64-4.59,7.39-4.57v-.25a2.54,2.54,0,0,0-2.79-2.85,6.11,6.11,0,0,0-3.2.92l-.51-1.47a7.56,7.56,0,0,1,4-1.1c3.76,0,4.67,2.57,4.67,5v4.6a17.57,17.57,0,0,0,.2,2.94Zm-.33-6.27c-2.44-.05-5.2.38-5.2,2.77a2,2,0,0,0,2.1,2.13,3.05,3.05,0,0,0,3-2.06,2.17,2.17,0,0,0,.13-.71Z"/><path class="cls-5" d="M239.17,426.53h2.23v18h-2.23Z"/><path class="cls-5" d="M247.65,428.82a1.39,1.39,0,0,1-2.77,0,1.36,1.36,0,0,1,1.39-1.4A1.33,1.33,0,0,1,247.65,428.82Zm-2.49,15.74V432.27h2.23v12.29Z"/><path class="cls-5" d="M249.7,443.27l5.56-7.24c.54-.66,1-1.24,1.6-1.9v-.05h-6.65v-1.81h9.37l0,1.4-5.48,7.13c-.51.69-1,1.3-1.57,1.93v0h7.18v1.78h-10Z"/><path class="cls-5" d="M268.77,444.56l-.18-1.55h-.07a4.58,4.58,0,0,1-3.76,1.83,3.5,3.5,0,0,1-3.76-3.53c0-3,2.64-4.59,7.39-4.57v-.25a2.54,2.54,0,0,0-2.79-2.85,6.09,6.09,0,0,0-3.2.92l-.51-1.47a7.56,7.56,0,0,1,4-1.1c3.76,0,4.67,2.57,4.67,5v4.6a17.57,17.57,0,0,0,.2,2.94Zm-.33-6.27c-2.44-.05-5.2.38-5.2,2.77a2,2,0,0,0,2.1,2.13,3.05,3.05,0,0,0,3-2.06,2.17,2.17,0,0,0,.13-.71Z"/><path class="cls-5" d="M276.79,428.74v3.53H280V434h-3.2v6.63c0,1.52.44,2.39,1.68,2.39a5.36,5.36,0,0,0,1.3-.15l.1,1.67a5.41,5.41,0,0,1-2,.31,3.12,3.12,0,0,1-2.42-.94,4.59,4.59,0,0,1-.86-3.2V434h-1.9v-1.7h1.9v-2.94Z"/><path class="cls-5" d="M285,428.82a1.39,1.39,0,0,1-2.77,0,1.36,1.36,0,0,1,1.39-1.4A1.33,1.33,0,0,1,285,428.82Zm-2.49,15.74V432.27h2.23v12.29Z"/><path class="cls-5" d="M299.57,438.32c0,4.54-3.15,6.52-6.12,6.52-3.33,0-5.89-2.44-5.89-6.32,0-4.11,2.69-6.53,6.09-6.53S299.57,434.56,299.57,438.32Zm-9.75.12c0,2.69,1.55,4.73,3.73,4.73s3.73-2,3.73-4.78c0-2.08-1-4.72-3.68-4.72S289.82,436.11,289.82,438.44Z"/><path class="cls-5" d="M302.39,435.6c0-1.27,0-2.31-.1-3.33h2l.12,2h.05a4.55,4.55,0,0,1,4.07-2.31c1.7,0,4.34,1,4.34,5.23v7.34h-2.24v-7.08c0-2-.73-3.63-2.84-3.63a3.19,3.19,0,0,0-3,2.28,3.26,3.26,0,0,0-.15,1v7.39h-2.23Z"/><path class="cls-5" d="M164.31,541.37a25.46,25.46,0,0,1,4.24-.33,7,7,0,0,1,4.8,1.42,4.62,4.62,0,0,1,1.5,3.58,5.06,5.06,0,0,1-1.32,3.66,7.11,7.11,0,0,1-5.23,1.88,8,8,0,0,1-1.78-.15v6.85h-2.21Zm2.21,8.25a7.24,7.24,0,0,0,1.83.18c2.67,0,4.29-1.29,4.29-3.66s-1.6-3.35-4-3.35a9.33,9.33,0,0,0-2.08.18Z"/><path class="cls-5" d="M177.34,549.83c0-1.45,0-2.7-.1-3.84h1.95l.08,2.41h.1a3.68,3.68,0,0,1,3.4-2.69,2.49,2.49,0,0,1,.64.08v2.11a3.41,3.41,0,0,0-.76-.08,3.13,3.13,0,0,0-3,2.87,6.33,6.33,0,0,0-.1,1v6.55h-2.21Z"/><path class="cls-5" d="M186.63,552.54c.05,3,2,4.27,4.22,4.27a8,8,0,0,0,3.4-.64l.38,1.6a9.85,9.85,0,0,1-4.09.77c-3.78,0-6-2.49-6-6.2s2.18-6.63,5.76-6.63c4,0,5.08,3.53,5.08,5.79a10,10,0,0,1-.07,1Zm6.55-1.6c0-1.42-.58-3.63-3.09-3.63-2.26,0-3.25,2.08-3.43,3.63Z"/><path class="cls-5" d="M204,550.59v1.65h-6.27v-1.65Z"/><path class="cls-5" d="M209.31,542.46V546h3.2v1.7h-3.2v6.63c0,1.52.43,2.39,1.67,2.39a4.76,4.76,0,0,0,1.3-.16l.1,1.68a5.41,5.41,0,0,1-2,.31,3.09,3.09,0,0,1-2.41-.94,4.54,4.54,0,0,1-.87-3.2v-6.71h-1.9V546h1.9v-2.94Z"/><path class="cls-5" d="M215,549.83c0-1.45,0-2.7-.1-3.84h2l.08,2.41h.1a3.68,3.68,0,0,1,3.4-2.69,2.49,2.49,0,0,1,.64.08v2.11a3.41,3.41,0,0,0-.76-.08,3.13,3.13,0,0,0-3,2.87,6.33,6.33,0,0,0-.1,1v6.55H215Z"/><path class="cls-5" d="M230,558.28l-.18-1.55h-.07a4.58,4.58,0,0,1-3.76,1.83,3.5,3.5,0,0,1-3.76-3.53c0-3,2.64-4.59,7.39-4.57v-.25a2.54,2.54,0,0,0-2.79-2.85,6.09,6.09,0,0,0-3.2.92l-.51-1.48a7.62,7.62,0,0,1,4-1.09c3.75,0,4.67,2.57,4.67,5v4.6a17.57,17.57,0,0,0,.2,2.94Zm-.33-6.27c-2.44,0-5.21.38-5.21,2.77a2,2,0,0,0,2.11,2.13,3.05,3.05,0,0,0,3-2.06,2.17,2.17,0,0,0,.13-.71Z"/><path class="cls-5" d="M246.05,540.25v14.86c0,1.09,0,2.33.1,3.17h-2l-.1-2.13h0a4.55,4.55,0,0,1-4.19,2.41c-3,0-5.26-2.51-5.26-6.25,0-4.08,2.52-6.6,5.51-6.6a4.12,4.12,0,0,1,3.71,1.88h.05v-7.34ZM243.81,551a3.81,3.81,0,0,0-.1-.94,3.28,3.28,0,0,0-3.22-2.58c-2.31,0-3.69,2-3.69,4.74,0,2.49,1.22,4.55,3.64,4.55a3.36,3.36,0,0,0,3.27-2.67,3.68,3.68,0,0,0,.1-1Z"/><path class="cls-5" d="M251,552.54c.05,3,2,4.27,4.21,4.27a8,8,0,0,0,3.4-.64l.39,1.6a9.89,9.89,0,0,1-4.09.77c-3.79,0-6-2.49-6-6.2s2.19-6.63,5.77-6.63c4,0,5.08,3.53,5.08,5.79a7.43,7.43,0,0,1-.08,1Zm6.55-1.6c0-1.42-.59-3.63-3.1-3.63-2.26,0-3.25,2.08-3.43,3.63Z"/><path class="cls-5" d="M166.73,567.93a1.39,1.39,0,0,1-2.77,0,1.36,1.36,0,0,1,1.39-1.4A1.33,1.33,0,0,1,166.73,567.93Zm-2.49,15.74V571.38h2.23v12.29Z"/><path class="cls-5" d="M170.18,574.71c0-1.27,0-2.31-.1-3.33h2l.12,2h.06a4.52,4.52,0,0,1,4.06-2.31c1.7,0,4.34,1,4.34,5.23v7.34h-2.23v-7.08c0-2-.74-3.63-2.85-3.63a3.17,3.17,0,0,0-3,2.28,3,3,0,0,0-.16,1v7.39h-2.23Z"/><path class="cls-5" d="M184,581.39a5.84,5.84,0,0,0,2.94.89c1.63,0,2.39-.82,2.39-1.83s-.64-1.65-2.29-2.26c-2.21-.79-3.25-2-3.25-3.48,0-2,1.6-3.61,4.24-3.61a6,6,0,0,1,3,.77l-.55,1.62a4.89,4.89,0,0,0-2.52-.71c-1.32,0-2,.76-2,1.68s.73,1.47,2.33,2.08c2.13.81,3.23,1.88,3.23,3.7,0,2.16-1.68,3.69-4.6,3.69a7,7,0,0,1-3.45-.84Z"/><path class="cls-5" d="M196.81,567.93a1.38,1.38,0,0,1-2.76,0,1.36,1.36,0,0,1,1.39-1.4A1.33,1.33,0,0,1,196.81,567.93Zm-2.48,15.74V571.38h2.23v12.29Z"/><path class="cls-5" d="M210.85,571.38c0,.89-.1,1.88-.1,3.38v7.13c0,2.82-.56,4.55-1.75,5.62a6.54,6.54,0,0,1-4.47,1.47,8,8,0,0,1-4.09-1l.56-1.7a7,7,0,0,0,3.61,1c2.28,0,4-1.2,4-4.29v-1.38h0a4.38,4.38,0,0,1-3.91,2.06c-3.05,0-5.23-2.59-5.23-6,0-4.16,2.71-6.53,5.53-6.53a4.09,4.09,0,0,1,3.84,2.14h.05l.1-1.86Zm-2.31,4.85a3.18,3.18,0,0,0-.12-1,3.22,3.22,0,0,0-3.13-2.36c-2.13,0-3.65,1.8-3.65,4.64,0,2.41,1.22,4.42,3.63,4.42a3.27,3.27,0,0,0,3.1-2.29,4.08,4.08,0,0,0,.17-1.19Z"/><path class="cls-5" d="M214.46,565.64h2.23v7.67h.06a4.14,4.14,0,0,1,1.59-1.57,4.62,4.62,0,0,1,2.29-.64c1.65,0,4.29,1,4.29,5.26v7.31h-2.23v-7.06c0-2-.74-3.65-2.85-3.65a3.2,3.2,0,0,0-3,2.23,2.68,2.68,0,0,0-.16,1.07v7.41h-2.23Z"/><path class="cls-5" d="M231.14,567.85v3.53h3.2v1.7h-3.2v6.63c0,1.52.43,2.39,1.68,2.39a5.27,5.27,0,0,0,1.29-.15l.1,1.67a5.37,5.37,0,0,1-2,.31,3.09,3.09,0,0,1-2.41-.94,4.59,4.59,0,0,1-.86-3.2v-6.71h-1.91v-1.7H229v-2.94Z"/><path class="cls-5" d="M236.55,581.39a5.88,5.88,0,0,0,2.95.89c1.62,0,2.38-.82,2.38-1.83s-.63-1.65-2.28-2.26c-2.21-.79-3.25-2-3.25-3.48,0-2,1.6-3.61,4.24-3.61a6.11,6.11,0,0,1,3,.77l-.56,1.62a4.81,4.81,0,0,0-2.51-.71c-1.32,0-2.06.76-2.06,1.68s.74,1.47,2.34,2.08c2.13.81,3.22,1.88,3.22,3.7,0,2.16-1.68,3.69-4.6,3.69a7,7,0,0,1-3.45-.84Z"/><g id="_Group_15" data-name="&lt;Group&gt;"><g id="_Group_16" data-name="&lt;Group&gt;"><path id="_Path_21" data-name="&lt;Path&gt;" class="cls-6" d="M96.44,257.94h-5a3.21,3.21,0,0,0-3.21,3.21v.27a3.21,3.21,0,0,0,3.21,3.21h2.58a3.21,3.21,0,0,1,3.21,3.2h0A3.21,3.21,0,0,1,94.06,271H88.68"/><line id="_Path_22" data-name="&lt;Path&gt;" class="cls-6" x1="93.02" y1="257.94" x2="93.02" y2="254.81"/><line id="_Path_23" data-name="&lt;Path&gt;" class="cls-6" x1="93.02" y1="271.04" x2="93.02" y2="273.83"/></g><g id="_Group_17" data-name="&lt;Group&gt;"><line id="_Path_24" data-name="&lt;Path&gt;" class="cls-6" x1="92.51" y1="305.36" x2="92.51" y2="321.28"/><line id="_Path_25" data-name="&lt;Path&gt;" class="cls-6" x1="78.72" y1="321.28" x2="106.31" y2="321.28"/><g id="_Group_18" data-name="&lt;Group&gt;"><polyline class="cls-6" points="129.7 256.43 129.7 305.36 55.33 305.36 55.33 248.4 110.61 248.4"/><polygon class="cls-5" points="123.72 258.18 129.7 247.82 135.68 258.18 123.72 258.18"/></g><circle id="_Ellipse_4" data-name="&lt;Ellipse&gt;" class="cls-6" cx="115.1" cy="248.4" r="4.5"/><line id="_Path_26" data-name="&lt;Path&gt;" class="cls-6" x1="55.81" y1="293.28" x2="129.7" y2="293.28"/></g><g id="_Group_19" data-name="&lt;Group&gt;"><g id="_Group_20" data-name="&lt;Group&gt;"><g id="_Group_21" data-name="&lt;Group&gt;"><g id="_Group_22" data-name="&lt;Group&gt;"><g id="_Group_23" data-name="&lt;Group&gt;"><g id="_Group_24" data-name="&lt;Group&gt;"><g id="_Group_25" data-name="&lt;Group&gt;"><circle class="cls-6" cx="76.25" cy="271.7" r="4.83"/></g><g id="_Group_26" data-name="&lt;Group&gt;"><path class="cls-6" d="M85.8,286.54v-4.49a4.23,4.23,0,0,0-4.23-4.22H70.34a4.22,4.22,0,0,0-4.23,4.22v4.49"/></g></g></g></g></g></g><g id="_Group_27" data-name="&lt;Group&gt;"><g id="_Group_28" data-name="&lt;Group&gt;"><g id="_Group_29" data-name="&lt;Group&gt;"><g id="_Group_30" data-name="&lt;Group&gt;"><g id="_Group_31" data-name="&lt;Group&gt;"><g id="_Group_32" data-name="&lt;Group&gt;"><circle class="cls-6" cx="109.85" cy="271.7" r="4.83"/></g><g id="_Group_33" data-name="&lt;Group&gt;"><path class="cls-6" d="M119.4,286.54v-4.49a4.22,4.22,0,0,0-4.23-4.22H103.94a4.23,4.23,0,0,0-4.23,4.22v4.49"/></g></g></g></g></g></g></g></g><path class="cls-5" d="M1071.39,268.45a10.88,10.88,0,0,1-4.52.81c-4.82,0-8.45-3-8.45-8.66,0-5.35,3.63-9,8.94-9a9.12,9.12,0,0,1,4.06.76l-.53,1.8a8,8,0,0,0-3.46-.71c-4,0-6.68,2.56-6.68,7.06,0,4.19,2.42,6.88,6.58,6.88a8.88,8.88,0,0,0,3.61-.71Z"/><path class="cls-5" d="M1084.93,262.76c0,4.55-3.15,6.53-6.12,6.53-3.33,0-5.89-2.44-5.89-6.32,0-4.12,2.69-6.53,6.09-6.53S1084.93,259,1084.93,262.76Zm-9.75.13c0,2.69,1.55,4.72,3.73,4.72s3.73-2,3.73-4.77c0-2.08-1-4.72-3.68-4.72S1075.18,260.55,1075.18,262.89Z"/><path class="cls-5" d="M1087.74,260.05c0-1.27,0-2.31-.1-3.33h2l.13,2h0a4.51,4.51,0,0,1,4.06-2.31c1.71,0,4.35,1,4.35,5.23V269H1096v-7.09c0-2-.74-3.63-2.84-3.63a3.18,3.18,0,0,0-3,2.29,3.26,3.26,0,0,0-.15,1V269h-2.24Z"/><path class="cls-5" d="M1104.43,253.19v3.53h3.2v1.7h-3.2v6.63c0,1.52.43,2.38,1.67,2.38a4.84,4.84,0,0,0,1.3-.15l.1,1.68a5.44,5.44,0,0,1-2,.3,3.09,3.09,0,0,1-2.41-.94,4.52,4.52,0,0,1-.87-3.2v-6.7h-1.9v-1.7h1.9v-3Z"/><path class="cls-5" d="M1110.14,260.55c0-1.44,0-2.69-.1-3.83h2l.08,2.41h.1a3.68,3.68,0,0,1,3.4-2.69,2.49,2.49,0,0,1,.64.08v2.1a3.45,3.45,0,0,0-.76-.07,3.13,3.13,0,0,0-3,2.87,6.33,6.33,0,0,0-.1,1V269h-2.21Z"/><path class="cls-5" d="M1125.12,269l-.18-1.55h-.07a4.61,4.61,0,0,1-3.76,1.83,3.5,3.5,0,0,1-3.76-3.53c0-3,2.64-4.6,7.39-4.57v-.26a2.53,2.53,0,0,0-2.79-2.84,6.09,6.09,0,0,0-3.2.92l-.51-1.48a7.62,7.62,0,0,1,4-1.09c3.75,0,4.67,2.57,4.67,5v4.59a17.62,17.62,0,0,0,.2,2.95Zm-.33-6.27c-2.44-.05-5.21.38-5.21,2.77a2,2,0,0,0,2.11,2.13,3.05,3.05,0,0,0,3-2.06,2.22,2.22,0,0,0,.13-.71Z"/><path class="cls-5" d="M1139.31,268.55a8.14,8.14,0,0,1-3.53.71c-3.7,0-6.12-2.51-6.12-6.27a6.24,6.24,0,0,1,6.61-6.52,7.52,7.52,0,0,1,3.09.63l-.5,1.73a5.16,5.16,0,0,0-2.59-.59c-2.82,0-4.35,2.09-4.35,4.65,0,2.84,1.83,4.6,4.27,4.6a6.31,6.31,0,0,0,2.74-.61Z"/><path class="cls-5" d="M1145,253.19v3.53h3.2v1.7H1145v6.63c0,1.52.43,2.38,1.68,2.38a4.81,4.81,0,0,0,1.29-.15l.1,1.68a5.44,5.44,0,0,1-2,.3,3.09,3.09,0,0,1-2.41-.94,4.53,4.53,0,0,1-.86-3.2v-6.7h-1.91v-1.7h1.91v-3Z"/><path class="cls-5" d="M1059.36,285.44c0-1.27,0-2.31-.1-3.33h2l.1,2h.08a4.23,4.23,0,0,1,3.86-2.26,3.65,3.65,0,0,1,3.48,2.46h0a5.19,5.19,0,0,1,1.37-1.6,4.25,4.25,0,0,1,2.72-.86c1.62,0,4,1.07,4,5.33v7.24h-2.18v-7c0-2.36-.86-3.78-2.67-3.78a2.89,2.89,0,0,0-2.64,2,3.75,3.75,0,0,0-.18,1.12v7.59h-2.18V287c0-2-.86-3.38-2.56-3.38a3.33,3.33,0,0,0-3,3.33v7.41h-2.18Z"/><path class="cls-5" d="M1087.34,294.4l-.18-1.55h-.08a4.54,4.54,0,0,1-3.75,1.83,3.5,3.5,0,0,1-3.76-3.53c0-3,2.64-4.6,7.39-4.57v-.25a2.54,2.54,0,0,0-2.8-2.85,6.08,6.08,0,0,0-3.19.92l-.51-1.48a7.61,7.61,0,0,1,4-1.09c3.76,0,4.68,2.57,4.68,5v4.59a17.62,17.62,0,0,0,.2,2.95Zm-.33-6.27c-2.44-.05-5.21.38-5.21,2.77a2,2,0,0,0,2.11,2.13,3.05,3.05,0,0,0,3-2.06,2.22,2.22,0,0,0,.13-.71Z"/><path class="cls-5" d="M1092.77,285.44c0-1.27,0-2.31-.1-3.33h2l.13,2h0a4.51,4.51,0,0,1,4.06-2.31c1.7,0,4.34,1,4.34,5.23v7.34H1101v-7.08c0-2-.74-3.64-2.85-3.64a3.18,3.18,0,0,0-3,2.29,3.26,3.26,0,0,0-.15,1v7.39h-2.24Z"/><path class="cls-5" d="M1113.67,294.4l-.18-1.55h-.08a4.54,4.54,0,0,1-3.75,1.83,3.5,3.5,0,0,1-3.76-3.53c0-3,2.64-4.6,7.39-4.57v-.25a2.54,2.54,0,0,0-2.8-2.85,6.08,6.08,0,0,0-3.19.92l-.51-1.48a7.61,7.61,0,0,1,4-1.09c3.76,0,4.68,2.57,4.68,5v4.59a17.62,17.62,0,0,0,.2,2.95Zm-.33-6.27c-2.44-.05-5.21.38-5.21,2.77a2,2,0,0,0,2.11,2.13,3.05,3.05,0,0,0,3-2.06,2.22,2.22,0,0,0,.13-.71Z"/><path class="cls-5" d="M1129.69,282.11c0,.89-.1,1.88-.1,3.38v7.13c0,2.82-.56,4.55-1.75,5.61a6.52,6.52,0,0,1-4.47,1.48,8,8,0,0,1-4.09-1l.56-1.7a6.89,6.89,0,0,0,3.6,1c2.29,0,4-1.19,4-4.29v-1.37h-.05a4.38,4.38,0,0,1-3.91,2.06c-3,0-5.23-2.59-5.23-6,0-4.17,2.72-6.53,5.54-6.53a4.09,4.09,0,0,1,3.83,2.13h.05l.1-1.85Zm-2.31,4.85a3.28,3.28,0,0,0-.13-1,3.22,3.22,0,0,0-3.12-2.36c-2.13,0-3.66,1.81-3.66,4.65,0,2.41,1.22,4.42,3.63,4.42a3.27,3.27,0,0,0,3.1-2.29,3.78,3.78,0,0,0,.18-1.19Z"/><path class="cls-5" d="M1134.54,288.66c0,3,2,4.27,4.21,4.27a8,8,0,0,0,3.41-.64l.38,1.6a9.93,9.93,0,0,1-4.09.76c-3.78,0-6-2.48-6-6.19s2.18-6.63,5.76-6.63c4,0,5.08,3.53,5.08,5.79a7.43,7.43,0,0,1-.08,1Zm6.55-1.6c0-1.42-.58-3.63-3.1-3.63-2.26,0-3.25,2.08-3.43,3.63Z"/><path class="cls-5" d="M1146,285.44c0-1.27,0-2.31-.11-3.33h2l.1,2h.08a4.23,4.23,0,0,1,3.86-2.26,3.63,3.63,0,0,1,3.47,2.46h.06a5.19,5.19,0,0,1,1.37-1.6,4.22,4.22,0,0,1,2.71-.86c1.63,0,4,1.07,4,5.33v7.24h-2.18v-7c0-2.36-.87-3.78-2.67-3.78a2.89,2.89,0,0,0-2.64,2,3.75,3.75,0,0,0-.18,1.12v7.59h-2.18V287c0-2-.86-3.38-2.57-3.38a3.33,3.33,0,0,0-2.94,3.33v7.41H1146Z"/><path class="cls-5" d="M1168.44,288.66c0,3,2,4.27,4.21,4.27a8,8,0,0,0,3.4-.64l.38,1.6a9.83,9.83,0,0,1-4.08.76c-3.79,0-6-2.48-6-6.19s2.19-6.63,5.77-6.63c4,0,5.07,3.53,5.07,5.79a10,10,0,0,1-.07,1Zm6.55-1.6c0-1.42-.59-3.63-3.1-3.63-2.26,0-3.25,2.08-3.43,3.63Z"/><path class="cls-5" d="M1179.91,285.44c0-1.27,0-2.31-.1-3.33h2l.13,2h0a4.51,4.51,0,0,1,4.06-2.31c1.7,0,4.34,1,4.34,5.23v7.34h-2.23v-7.08c0-2-.74-3.64-2.84-3.64a3.18,3.18,0,0,0-3,2.29,3.26,3.26,0,0,0-.15,1v7.39h-2.24Z"/><path class="cls-5" d="M1196.59,278.58v3.53h3.2v1.7h-3.2v6.63c0,1.52.44,2.39,1.68,2.39a4.67,4.67,0,0,0,1.29-.16l.11,1.68a5.48,5.48,0,0,1-2,.3,3.11,3.11,0,0,1-2.42-.94,4.57,4.57,0,0,1-.86-3.2v-6.7h-1.9v-1.7h1.9v-2.94Z"/><path class="cls-5" d="M1059.43,384.13a25.46,25.46,0,0,1,4.24-.33,7,7,0,0,1,4.8,1.42,4.59,4.59,0,0,1,1.5,3.58,5,5,0,0,1-1.32,3.65,7.07,7.07,0,0,1-5.23,1.88,7.48,7.48,0,0,1-1.78-.15V401h-2.21Zm2.21,8.25a7.29,7.29,0,0,0,1.83.18c2.67,0,4.29-1.3,4.29-3.66s-1.6-3.35-4-3.35a8.8,8.8,0,0,0-2.09.18Z"/><path class="cls-5" d="M1079,401l-.18-1.55h-.07a4.61,4.61,0,0,1-3.76,1.83,3.51,3.51,0,0,1-3.76-3.53c0-3,2.64-4.6,7.39-4.57V393a2.53,2.53,0,0,0-2.79-2.84,6.08,6.08,0,0,0-3.2.91l-.51-1.47a7.65,7.65,0,0,1,4-1.09c3.75,0,4.67,2.56,4.67,5v4.59a17.62,17.62,0,0,0,.2,3Zm-.33-6.28c-2.44-.05-5.2.39-5.2,2.77a2,2,0,0,0,2.1,2.14,3.05,3.05,0,0,0,3-2.06,2.22,2.22,0,0,0,.13-.71Z"/><path class="cls-5" d="M1085.05,388.75l2.7,7.26c.27.81.58,1.78.78,2.51h0c.23-.73.49-1.67.79-2.56l2.44-7.21h2.36l-3.35,8.76c-1.6,4.21-2.69,6.37-4.22,7.69a6,6,0,0,1-2.74,1.45l-.56-1.88a5.92,5.92,0,0,0,2-1.09,6.89,6.89,0,0,0,1.88-2.49,1.63,1.63,0,0,0,.17-.53,2,2,0,0,0-.15-.59l-4.54-11.32Z"/><path class="cls-5" d="M1096.2,392.07c0-1.27,0-2.31-.1-3.32h2l.11,2h.07a4.24,4.24,0,0,1,3.86-2.26,3.62,3.62,0,0,1,3.48,2.46h0a5.08,5.08,0,0,1,1.37-1.6,4.2,4.2,0,0,1,2.72-.86c1.62,0,4,1.06,4,5.33V401h-2.19v-7c0-2.36-.86-3.78-2.66-3.78a2.91,2.91,0,0,0-2.65,2,3.7,3.7,0,0,0-.17,1.11V401h-2.19v-7.37c0-1.95-.86-3.37-2.56-3.37a3,3,0,0,0-2.77,2.23,3,3,0,0,0-.18,1.09V401h-2.18Z"/><path class="cls-5" d="M1118.62,395.3a3.93,3.93,0,0,0,4.22,4.26,8.21,8.21,0,0,0,3.4-.63l.38,1.6a10.06,10.06,0,0,1-4.09.76c-3.78,0-6-2.49-6-6.2s2.18-6.62,5.76-6.62c4,0,5.08,3.53,5.08,5.79a7.57,7.57,0,0,1-.08,1Zm6.55-1.6c0-1.42-.58-3.63-3.1-3.63-2.26,0-3.25,2.08-3.42,3.63Z"/><path class="cls-5" d="M1130.1,392.07c0-1.27,0-2.31-.1-3.32h2l.12,2h.05a4.52,4.52,0,0,1,4.07-2.31c1.7,0,4.34,1,4.34,5.23V401h-2.24V394c0-2-.73-3.63-2.84-3.63a3.18,3.18,0,0,0-3,2.29,3.26,3.26,0,0,0-.15,1V401h-2.23Z"/><path class="cls-5" d="M1146.78,385.22v3.53h3.2v1.7h-3.2v6.63c0,1.52.43,2.38,1.67,2.38a4.84,4.84,0,0,0,1.3-.15l.1,1.68a5.67,5.67,0,0,1-2,.3,3.09,3.09,0,0,1-2.41-.94,4.52,4.52,0,0,1-.87-3.2v-6.7h-1.9v-1.7h1.9V385.8Z"/><path class="cls-5" d="M1152.19,398.75a5.84,5.84,0,0,0,2.94.89c1.63,0,2.39-.81,2.39-1.83s-.64-1.65-2.29-2.26c-2.21-.79-3.25-2-3.25-3.48,0-2,1.6-3.6,4.24-3.6a6.13,6.13,0,0,1,3,.76l-.56,1.62a4.85,4.85,0,0,0-2.52-.71c-1.32,0-2.05.77-2.05,1.68s.73,1.47,2.33,2.08c2.14.81,3.23,1.88,3.23,3.71,0,2.16-1.68,3.68-4.6,3.68a7,7,0,0,1-3.45-.84Z"/><path class="cls-5" d="M1160.82,404.16a36.63,36.63,0,0,0,1.52-6.07l2.49-.25a30.9,30.9,0,0,1-2.41,6.17Z"/><path class="cls-5" d="M1059.36,417.46c0-1.27,0-2.31-.1-3.32h2l.1,2h.08a4.23,4.23,0,0,1,3.86-2.26,3.64,3.64,0,0,1,3.48,2.46h0a5.08,5.08,0,0,1,1.37-1.6,4.2,4.2,0,0,1,2.72-.86c1.62,0,4,1.06,4,5.33v7.24h-2.18v-7c0-2.36-.86-3.78-2.67-3.78a2.89,2.89,0,0,0-2.64,2,3.7,3.7,0,0,0-.18,1.12v7.59h-2.18v-7.37c0-1.95-.86-3.37-2.56-3.37a3,3,0,0,0-2.77,2.23,3,3,0,0,0-.18,1.09v7.42h-2.18Z"/><path class="cls-5" d="M1087.34,426.43l-.18-1.55h-.08a4.57,4.57,0,0,1-3.75,1.83,3.51,3.51,0,0,1-3.76-3.53c0-3,2.64-4.6,7.39-4.57v-.26a2.54,2.54,0,0,0-2.8-2.84,6.07,6.07,0,0,0-3.19.91l-.51-1.47a7.61,7.61,0,0,1,4-1.09c3.76,0,4.68,2.56,4.68,5v4.59a17.62,17.62,0,0,0,.2,2.95Zm-.33-6.27c-2.44-.06-5.21.38-5.21,2.76a2,2,0,0,0,2.11,2.14,3.05,3.05,0,0,0,3-2.06,2.22,2.22,0,0,0,.13-.71Z"/><path class="cls-5" d="M1092.77,418c0-1.45,0-2.69-.1-3.83h2l.07,2.41h.1a3.69,3.69,0,0,1,3.41-2.69,2.43,2.43,0,0,1,.63.07V416a3.45,3.45,0,0,0-.76-.07,3.13,3.13,0,0,0-3,2.87,6.33,6.33,0,0,0-.1,1v6.55h-2.21Z"/><path class="cls-5" d="M1111.46,414.14c0,.89-.1,1.88-.1,3.37v7.14c0,2.82-.56,4.54-1.75,5.61a6.51,6.51,0,0,1-4.47,1.47,7.92,7.92,0,0,1-4.09-1l.56-1.7a7,7,0,0,0,3.6,1c2.29,0,4-1.19,4-4.29v-1.37h-.05a4.38,4.38,0,0,1-3.91,2.06c-3,0-5.23-2.59-5.23-6,0-4.16,2.72-6.52,5.54-6.52a4.09,4.09,0,0,1,3.83,2.13h.05l.1-1.85Zm-2.31,4.85a3.28,3.28,0,0,0-.13-1,3.22,3.22,0,0,0-3.12-2.36c-2.13,0-3.66,1.8-3.66,4.65,0,2.41,1.22,4.41,3.63,4.41a3.27,3.27,0,0,0,3.1-2.28,3.78,3.78,0,0,0,.18-1.19Z"/><path class="cls-5" d="M1117.4,410.68a1.32,1.32,0,0,1-1.42,1.38,1.33,1.33,0,0,1-1.35-1.38,1.36,1.36,0,0,1,1.4-1.39A1.32,1.32,0,0,1,1117.4,410.68Zm-2.49,15.75V414.14h2.24v12.29Z"/><path class="cls-5" d="M1120.85,417.46c0-1.27,0-2.31-.1-3.32h2l.13,2h.05a4.51,4.51,0,0,1,4.06-2.31c1.7,0,4.34,1,4.34,5.23v7.34h-2.23v-7.09c0-2-.74-3.63-2.84-3.63a3.17,3.17,0,0,0-3,2.29,3.26,3.26,0,0,0-.15,1v7.39h-2.24Z"/><path class="cls-5" d="M1147.13,426.43l-.18-1.55h-.07a4.61,4.61,0,0,1-3.76,1.83,3.51,3.51,0,0,1-3.76-3.53c0-3,2.64-4.6,7.39-4.57v-.26a2.53,2.53,0,0,0-2.79-2.84,6.11,6.11,0,0,0-3.2.91l-.51-1.47a7.65,7.65,0,0,1,4-1.09c3.76,0,4.67,2.56,4.67,5v4.59a17.62,17.62,0,0,0,.2,2.95Zm-.33-6.27c-2.44-.06-5.2.38-5.2,2.76a2,2,0,0,0,2.1,2.14,3.08,3.08,0,0,0,3-2.06,2.52,2.52,0,0,0,.12-.71Z"/><path class="cls-5" d="M1152.57,417.46c0-1.27,0-2.31-.11-3.32h2l.13,2h0a4.52,4.52,0,0,1,4.07-2.31c1.7,0,4.34,1,4.34,5.23v7.34h-2.24v-7.09c0-2-.73-3.63-2.84-3.63a3.18,3.18,0,0,0-3,2.29,3.26,3.26,0,0,0-.15,1v7.39h-2.23Z"/><path class="cls-5" d="M1177.27,408.4v14.85c0,1.09,0,2.34.1,3.18h-2l-.1-2.14h-.06a4.53,4.53,0,0,1-4.19,2.42c-3,0-5.25-2.52-5.25-6.25,0-4.09,2.51-6.6,5.51-6.6a4.12,4.12,0,0,1,3.71,1.88h0V408.4ZM1175,419.14a4.29,4.29,0,0,0-.1-.94,3.29,3.29,0,0,0-3.23-2.59c-2.31,0-3.68,2-3.68,4.75,0,2.49,1.22,4.54,3.63,4.54a3.37,3.37,0,0,0,3.28-2.66,4.25,4.25,0,0,0,.1-1Z"/><path class="cls-5" d="M1068.12,451.36a8.18,8.18,0,0,1-3.53.71c-3.71,0-6.12-2.51-6.12-6.27a6.25,6.25,0,0,1,6.6-6.53,7.39,7.39,0,0,1,3.1.64l-.51,1.73a5.1,5.1,0,0,0-2.59-.59c-2.82,0-4.34,2.08-4.34,4.65,0,2.84,1.83,4.59,4.26,4.59a6.39,6.39,0,0,0,2.75-.61Z"/><path class="cls-5" d="M1081.7,445.57c0,4.55-3.15,6.53-6.12,6.53-3.32,0-5.89-2.44-5.89-6.33,0-4.11,2.69-6.52,6.1-6.52S1081.7,441.81,1081.7,445.57Zm-9.75.13c0,2.69,1.55,4.72,3.73,4.72s3.74-2,3.74-4.77c0-2.08-1-4.73-3.69-4.73S1072,443.36,1072,445.7Z"/><path class="cls-5" d="M1084.52,433.79h2.23v18h-2.23Z"/><path class="cls-5" d="M1090.51,433.79h2.24v18h-2.24Z"/><path class="cls-5" d="M1103.31,451.82l-.18-1.55h-.07a4.61,4.61,0,0,1-3.76,1.83,3.51,3.51,0,0,1-3.76-3.53c0-3,2.64-4.6,7.39-4.57v-.26a2.53,2.53,0,0,0-2.79-2.84,6.17,6.17,0,0,0-3.2.91l-.51-1.47a7.62,7.62,0,0,1,4-1.09c3.75,0,4.67,2.56,4.67,5v4.59a17.62,17.62,0,0,0,.2,2.95Zm-.33-6.27c-2.44-.05-5.21.38-5.21,2.76a2,2,0,0,0,2.11,2.14,3.05,3.05,0,0,0,3-2.06,2.22,2.22,0,0,0,.13-.71Z"/><path class="cls-5" d="M1111.33,436v3.53h3.2v1.7h-3.2v6.63c0,1.52.43,2.38,1.68,2.38a4.81,4.81,0,0,0,1.29-.15l.1,1.68a5.62,5.62,0,0,1-2,.3,3.1,3.1,0,0,1-2.41-.94,4.57,4.57,0,0,1-.86-3.2v-6.7h-1.91v-1.7h1.91v-2.95Z"/><path class="cls-5" d="M1118.14,446.08c0,3,2,4.26,4.21,4.26a8,8,0,0,0,3.4-.63l.39,1.6a9.93,9.93,0,0,1-4.09.76c-3.79,0-6-2.49-6-6.19s2.19-6.63,5.77-6.63c4,0,5.08,3.53,5.08,5.79a7.43,7.43,0,0,1-.08,1Zm6.55-1.6c0-1.42-.59-3.63-3.1-3.63-2.26,0-3.25,2.08-3.43,3.63Z"/><path class="cls-5" d="M1129.61,443.36c0-1.44,0-2.69-.1-3.83h2l.07,2.41h.11a3.67,3.67,0,0,1,3.4-2.69,2,2,0,0,1,.63.08v2.1a3.39,3.39,0,0,0-.76-.07,3.14,3.14,0,0,0-3,2.87,6.33,6.33,0,0,0-.1,1v6.55h-2.21Z"/><path class="cls-5" d="M1144.59,451.82l-.17-1.55h-.08a4.58,4.58,0,0,1-3.76,1.83,3.5,3.5,0,0,1-3.75-3.53c0-3,2.64-4.6,7.38-4.57v-.26a2.53,2.53,0,0,0-2.79-2.84,6.23,6.23,0,0,0-3.2.91l-.51-1.47a7.65,7.65,0,0,1,4-1.09c3.76,0,4.67,2.56,4.67,5v4.59a16.55,16.55,0,0,0,.21,2.95Zm-.33-6.27c-2.43-.05-5.2.38-5.2,2.76a2,2,0,0,0,2.11,2.14,3.06,3.06,0,0,0,3-2.06,2.52,2.52,0,0,0,.12-.71Z"/><path class="cls-5" d="M1150,433.79h2.23v18H1150Z"/><path class="cls-5" d="M1059.36,468.25c0-1.27,0-2.32-.1-3.33h2l.1,2h.08a4.23,4.23,0,0,1,3.86-2.26,3.65,3.65,0,0,1,3.48,2.46h0a5.08,5.08,0,0,1,1.37-1.6,4.2,4.2,0,0,1,2.72-.86c1.62,0,4,1.07,4,5.33v7.24h-2.18v-7c0-2.36-.86-3.78-2.67-3.78a2.89,2.89,0,0,0-2.64,2,3.7,3.7,0,0,0-.18,1.12v7.59h-2.18v-7.37c0-1.95-.86-3.37-2.56-3.37a3.05,3.05,0,0,0-2.77,2.23,3,3,0,0,0-.18,1.09v7.42h-2.18Z"/><path class="cls-5" d="M1087.34,477.21l-.18-1.55h-.08a4.57,4.57,0,0,1-3.75,1.83,3.5,3.5,0,0,1-3.76-3.53c0-3,2.64-4.6,7.39-4.57v-.26a2.54,2.54,0,0,0-2.8-2.84,6.17,6.17,0,0,0-3.19.91l-.51-1.47a7.61,7.61,0,0,1,4-1.09c3.76,0,4.68,2.56,4.68,5v4.59a17.62,17.62,0,0,0,.2,2.95Zm-.33-6.27c-2.44-.05-5.21.38-5.21,2.76a2,2,0,0,0,2.11,2.14,3.05,3.05,0,0,0,3-2.06,2.22,2.22,0,0,0,.13-.71Z"/><path class="cls-5" d="M1092.77,468.25c0-1.27,0-2.32-.1-3.33h2l.13,2h0a4.51,4.51,0,0,1,4.06-2.31c1.7,0,4.34,1,4.34,5.23v7.34H1101v-7.09c0-2-.74-3.63-2.85-3.63a3.17,3.17,0,0,0-3,2.29,3.26,3.26,0,0,0-.15,1v7.39h-2.24Z"/><path class="cls-5" d="M1113.67,477.21l-.18-1.55h-.08a4.57,4.57,0,0,1-3.75,1.83,3.5,3.5,0,0,1-3.76-3.53c0-3,2.64-4.6,7.39-4.57v-.26a2.54,2.54,0,0,0-2.8-2.84,6.17,6.17,0,0,0-3.19.91l-.51-1.47a7.61,7.61,0,0,1,4-1.09c3.76,0,4.68,2.56,4.68,5v4.59a17.62,17.62,0,0,0,.2,2.95Zm-.33-6.27c-2.44-.05-5.21.38-5.21,2.76a2,2,0,0,0,2.11,2.14,3.05,3.05,0,0,0,3-2.06,2.22,2.22,0,0,0,.13-.71Z"/><path class="cls-5" d="M1129.69,464.92c0,.89-.1,1.88-.1,3.38v7.13c0,2.82-.56,4.55-1.75,5.61a6.51,6.51,0,0,1-4.47,1.47,8,8,0,0,1-4.09-1l.56-1.7a6.89,6.89,0,0,0,3.6,1c2.29,0,4-1.19,4-4.29V475.1h-.05a4.38,4.38,0,0,1-3.91,2.06c-3,0-5.23-2.59-5.23-6,0-4.17,2.72-6.53,5.54-6.53a4.09,4.09,0,0,1,3.83,2.13h.05l.1-1.85Zm-2.31,4.85a3.28,3.28,0,0,0-.13-1,3.22,3.22,0,0,0-3.12-2.36c-2.13,0-3.66,1.8-3.66,4.65,0,2.41,1.22,4.42,3.63,4.42a3.27,3.27,0,0,0,3.1-2.29,3.78,3.78,0,0,0,.18-1.19Z"/><path class="cls-5" d="M1134.54,471.47c0,3,2,4.27,4.21,4.27a8,8,0,0,0,3.41-.64l.38,1.6a9.93,9.93,0,0,1-4.09.76c-3.78,0-6-2.49-6-6.19s2.18-6.63,5.76-6.63c4,0,5.08,3.53,5.08,5.79a7.43,7.43,0,0,1-.08,1Zm6.55-1.6c0-1.42-.58-3.63-3.1-3.63-2.26,0-3.25,2.08-3.43,3.63Z"/><path class="cls-5" d="M1146,468.25c0-1.27,0-2.32-.11-3.33h2l.1,2h.08a4.23,4.23,0,0,1,3.86-2.26,3.63,3.63,0,0,1,3.47,2.46h.06a5.08,5.08,0,0,1,1.37-1.6,4.17,4.17,0,0,1,2.71-.86c1.63,0,4,1.07,4,5.33v7.24h-2.18v-7c0-2.36-.87-3.78-2.67-3.78a2.89,2.89,0,0,0-2.64,2,3.7,3.7,0,0,0-.18,1.12v7.59h-2.18v-7.37c0-1.95-.86-3.37-2.57-3.37a3,3,0,0,0-2.76,2.23,3,3,0,0,0-.18,1.09v7.42H1146Z"/><path class="cls-5" d="M1168.44,471.47c0,3,2,4.27,4.21,4.27a8,8,0,0,0,3.4-.64l.38,1.6a9.83,9.83,0,0,1-4.08.76c-3.79,0-6-2.49-6-6.19s2.19-6.63,5.77-6.63c4,0,5.07,3.53,5.07,5.79a10,10,0,0,1-.07,1Zm6.55-1.6c0-1.42-.59-3.63-3.1-3.63-2.26,0-3.25,2.08-3.43,3.63Z"/><path class="cls-5" d="M1179.91,468.25c0-1.27,0-2.32-.1-3.33h2l.13,2h0a4.51,4.51,0,0,1,4.06-2.31c1.7,0,4.34,1,4.34,5.23v7.34h-2.23v-7.09c0-2-.74-3.63-2.84-3.63a3.17,3.17,0,0,0-3,2.29,3.26,3.26,0,0,0-.15,1v7.39h-2.24Z"/><path class="cls-5" d="M1196.59,461.39v3.53h3.2v1.7h-3.2v6.63c0,1.52.44,2.38,1.68,2.38a4.76,4.76,0,0,0,1.29-.15l.11,1.68a5.48,5.48,0,0,1-2,.3,3.11,3.11,0,0,1-2.42-.94,4.57,4.57,0,0,1-.86-3.2v-6.7h-1.9v-1.7h1.9V462Z"/><path class="cls-5" d="M1059.43,552.93a26.59,26.59,0,0,1,4.24-.33,7,7,0,0,1,4.8,1.43,4.59,4.59,0,0,1,1.5,3.58,5.05,5.05,0,0,1-1.32,3.65,7.07,7.07,0,0,1-5.23,1.88,7.48,7.48,0,0,1-1.78-.15v6.85h-2.21Zm2.21,8.26a7.85,7.85,0,0,0,1.83.17c2.67,0,4.29-1.29,4.29-3.65s-1.6-3.35-4-3.35a9.54,9.54,0,0,0-2.09.17Z"/><path class="cls-5" d="M1083.35,563.6c0,4.54-3.15,6.52-6.12,6.52-3.32,0-5.89-2.43-5.89-6.32,0-4.11,2.69-6.52,6.1-6.52S1083.35,559.84,1083.35,563.6Zm-9.75.12c0,2.7,1.55,4.73,3.73,4.73s3.74-2,3.74-4.78c0-2.08-1-4.72-3.68-4.72S1073.6,561.39,1073.6,563.72Z"/><path class="cls-5" d="M1085.87,567.56a5.84,5.84,0,0,0,2.94.89c1.63,0,2.39-.82,2.39-1.83s-.64-1.65-2.29-2.26c-2.21-.79-3.25-2-3.25-3.48,0-2,1.6-3.6,4.24-3.6a6.05,6.05,0,0,1,3,.76l-.55,1.62a4.89,4.89,0,0,0-2.52-.71c-1.32,0-2,.76-2,1.68s.73,1.47,2.33,2.08c2.13.81,3.23,1.88,3.23,3.71,0,2.15-1.68,3.68-4.6,3.68a7,7,0,0,1-3.45-.84Z"/><path class="cls-5" d="M1098.92,554v3.52h3.2v1.71h-3.2v6.62c0,1.53.43,2.39,1.67,2.39a5.29,5.29,0,0,0,1.3-.15l.1,1.67a5.41,5.41,0,0,1-2,.31,3.09,3.09,0,0,1-2.41-.94,4.52,4.52,0,0,1-.87-3.2v-6.7h-1.9v-1.71h1.9v-2.94Z"/><path class="cls-5" d="M1109.68,562.15v1.65h-6.27v-1.65Z"/><path class="cls-5" d="M1115,554v3.52h3.2v1.71H1115v6.62c0,1.53.43,2.39,1.68,2.39a5.27,5.27,0,0,0,1.29-.15l.1,1.67a5.41,5.41,0,0,1-2,.31,3.09,3.09,0,0,1-2.41-.94,4.53,4.53,0,0,1-.86-3.2v-6.7h-1.91v-1.71h1.91v-2.94Z"/><path class="cls-5" d="M1120.7,561.39c0-1.45,0-2.69-.1-3.84h2l.07,2.42h.1a3.69,3.69,0,0,1,3.41-2.69,2.43,2.43,0,0,1,.63.07v2.11a3.41,3.41,0,0,0-.76-.08,3.14,3.14,0,0,0-3,2.87,6.44,6.44,0,0,0-.1,1v6.55h-2.21Z"/><path class="cls-5" d="M1135.68,569.84l-.18-1.54h-.07a4.6,4.6,0,0,1-3.76,1.82,3.5,3.5,0,0,1-3.76-3.53c0-3,2.64-4.59,7.39-4.57v-.25a2.53,2.53,0,0,0-2.79-2.84,6.11,6.11,0,0,0-3.2.91l-.51-1.47a7.65,7.65,0,0,1,4-1.09c3.76,0,4.67,2.56,4.67,5v4.6a17.41,17.41,0,0,0,.2,2.94Zm-.33-6.27c-2.43-.05-5.2.38-5.2,2.77a2,2,0,0,0,2.1,2.13,3.07,3.07,0,0,0,3-2.05,2.58,2.58,0,0,0,.12-.71Z"/><path class="cls-5" d="M1151.73,551.82v14.85c0,1.09,0,2.34.1,3.17h-2l-.11-2.13h0a4.54,4.54,0,0,1-4.19,2.41c-3,0-5.25-2.51-5.25-6.24,0-4.09,2.51-6.6,5.51-6.6a4.08,4.08,0,0,1,3.7,1.87h.06v-7.33Zm-2.23,10.74a3.77,3.77,0,0,0-.11-.94,3.29,3.29,0,0,0-3.22-2.59c-2.31,0-3.68,2-3.68,4.75,0,2.48,1.22,4.54,3.63,4.54a3.35,3.35,0,0,0,3.27-2.67,3.62,3.62,0,0,0,.11-1Z"/><path class="cls-5" d="M1156.68,564.11a3.93,3.93,0,0,0,4.22,4.26,8.17,8.17,0,0,0,3.4-.63l.38,1.6a10.06,10.06,0,0,1-4.09.76c-3.78,0-6-2.49-6-6.2s2.18-6.62,5.76-6.62c4,0,5.08,3.52,5.08,5.78a7.61,7.61,0,0,1-.08,1.05Zm6.55-1.6c0-1.43-.58-3.63-3.1-3.63-2.26,0-3.25,2.08-3.42,3.63Z"/><path class="cls-5" d="M1068.12,594.78a8.33,8.33,0,0,1-3.53.71c-3.71,0-6.12-2.52-6.12-6.27a6.24,6.24,0,0,1,6.6-6.53,7.39,7.39,0,0,1,3.1.64l-.51,1.72a5.23,5.23,0,0,0-2.59-.58c-2.82,0-4.34,2.08-4.34,4.65,0,2.84,1.83,4.59,4.26,4.59a6.39,6.39,0,0,0,2.75-.61Z"/><path class="cls-5" d="M1077.54,595.23l-.18-1.54h-.08a4.56,4.56,0,0,1-3.75,1.82,3.5,3.5,0,0,1-3.76-3.53c0-3,2.64-4.59,7.39-4.57v-.25a2.53,2.53,0,0,0-2.8-2.84,6.13,6.13,0,0,0-3.2.91l-.5-1.47a7.61,7.61,0,0,1,4-1.09c3.76,0,4.68,2.56,4.68,5v4.6a17.41,17.41,0,0,0,.2,2.94Zm-.33-6.27c-2.44-.05-5.21.38-5.21,2.77a2,2,0,0,0,2.11,2.13,3,3,0,0,0,3-2.05,2.27,2.27,0,0,0,.13-.71Z"/><path class="cls-5" d="M1083,577.21h2.24v18H1083Z"/><path class="cls-5" d="M1091.45,579.49a1.31,1.31,0,0,1-1.42,1.37,1.33,1.33,0,0,1-1.35-1.37,1.36,1.36,0,0,1,1.4-1.39A1.32,1.32,0,0,1,1091.45,579.49ZM1089,595.23V583h2.24v12.28Z"/><path class="cls-5" d="M1094.8,595.23c0-.83.1-2.08.1-3.17V577.21h2.21v7.72h.05a4.57,4.57,0,0,1,4.19-2.26c3.05,0,5.21,2.54,5.18,6.27,0,4.39-2.76,6.57-5.51,6.57a4.37,4.37,0,0,1-4.11-2.31h-.08l-.1,2Zm2.31-4.92a3.52,3.52,0,0,0,.11.81,3.44,3.44,0,0,0,3.35,2.62c2.33,0,3.73-1.91,3.73-4.73,0-2.46-1.27-4.57-3.66-4.57a3.56,3.56,0,0,0-3.4,2.75,4.31,4.31,0,0,0-.13.91Z"/><path class="cls-5" d="M1109.35,586.78c0-1.45,0-2.69-.1-3.83h2l.07,2.41h.1a3.69,3.69,0,0,1,3.41-2.69,2.43,2.43,0,0,1,.63.07v2.11a3.41,3.41,0,0,0-.76-.08,3.14,3.14,0,0,0-3,2.87,6.44,6.44,0,0,0-.1,1v6.55h-2.21Z"/><path class="cls-5" d="M1124.33,595.23l-.18-1.54h-.07a4.6,4.6,0,0,1-3.76,1.82,3.5,3.5,0,0,1-3.76-3.53c0-3,2.64-4.59,7.39-4.57v-.25a2.53,2.53,0,0,0-2.79-2.84,6.11,6.11,0,0,0-3.2.91l-.51-1.47a7.65,7.65,0,0,1,4-1.09c3.76,0,4.67,2.56,4.67,5v4.6a17.41,17.41,0,0,0,.2,2.94ZM1124,589c-2.43-.05-5.2.38-5.2,2.77a2,2,0,0,0,2.1,2.13,3.07,3.07,0,0,0,3-2.05,2.58,2.58,0,0,0,.12-.71Z"/><path class="cls-5" d="M1132.36,579.42V583h3.2v1.7h-3.2v6.62c0,1.53.43,2.39,1.67,2.39a5.29,5.29,0,0,0,1.3-.15l.1,1.67a5.41,5.41,0,0,1-2,.31,3.09,3.09,0,0,1-2.41-.94,4.52,4.52,0,0,1-.87-3.2v-6.7h-1.9V583h1.9v-3Z"/><path class="cls-5" d="M1140.56,579.49a1.39,1.39,0,0,1-2.77,0,1.36,1.36,0,0,1,1.4-1.39A1.33,1.33,0,0,1,1140.56,579.49Zm-2.49,15.74V583h2.23v12.28Z"/><path class="cls-5" d="M1155.13,589c0,4.54-3.15,6.52-6.12,6.52-3.32,0-5.89-2.43-5.89-6.32,0-4.11,2.69-6.52,6.1-6.52S1155.13,585.23,1155.13,589Zm-9.75.13c0,2.69,1.55,4.72,3.73,4.72s3.74-2,3.74-4.78c0-2.08-1-4.72-3.69-4.72S1145.38,586.78,1145.38,589.12Z"/><path class="cls-5" d="M1158,586.27c0-1.27,0-2.31-.1-3.32h2l.13,2h0a4.51,4.51,0,0,1,4.06-2.31c1.7,0,4.34,1,4.34,5.23v7.33h-2.23v-7.08c0-2-.74-3.63-2.85-3.63a3.17,3.17,0,0,0-3,2.28,3.05,3.05,0,0,0-.16,1.05v7.38H1158Z"/><g id="_Group_34" data-name="&lt;Group&gt;"><g id="_Group_35" data-name="&lt;Group&gt;"><g id="_Group_36" data-name="&lt;Group&gt;"><path id="_Compound_Path_" data-name="&lt;Compound Path&gt;" class="cls-8" d="M114,418.12h0s0-.05,0-.08l0-.07h0a13.23,13.23,0,0,0,.38-2.13l2.37-1a15.3,15.3,0,0,0-.4-3.65l-2.57-.48a12.53,12.53,0,0,0-2.24-4l1-2.46a14.62,14.62,0,0,0-2.85-2.26l-2.18,1.49a12.33,12.33,0,0,0-4.43-1.26L102,399.74a15.07,15.07,0,0,0-3.62.43l-.48,2.59a12.47,12.47,0,0,0-4,2.24l-2.43-.94A15.19,15.19,0,0,0,89.2,407l1.47,2.14a11.86,11.86,0,0,0-.8,2h0l0,.08,0,.07h0a12.22,12.22,0,0,0-.38,2.13l-2.37,1.05a15.22,15.22,0,0,0,.4,3.64l2.56.48a12.8,12.8,0,0,0,2.25,4l-1,2.46a14.62,14.62,0,0,0,2.85,2.26l2.18-1.5a12.33,12.33,0,0,0,4.43,1.26l1.07,2.42a15.06,15.06,0,0,0,3.62-.42l.48-2.6a12.47,12.47,0,0,0,4-2.24l2.43.94a15.19,15.19,0,0,0,2.26-2.89l-1.47-2.13A12.56,12.56,0,0,0,114,418.12Zm-13.23.53a4.21,4.21,0,1,1,5.2-2.89A4.2,4.2,0,0,1,100.79,418.65Z"/></g><g id="_Group_37" data-name="&lt;Group&gt;"><polyline class="cls-8" points="107.52 466.54 107.52 455.32 120.89 449.34 120.89 442.29"/><path class="cls-7" d="M124.76,439.55h0a4.5,4.5,0,0,1-7.73,0h0a4.5,4.5,0,1,1,7.73,0Z"/></g><g id="_Group_38" data-name="&lt;Group&gt;"><path class="cls-6" d="M118.94,380.85H78.62A14.36,14.36,0,0,0,64.26,395.2v16.27c0,7.74-6.39,16.23-9.61,19.65l1.1,1H66l-.15,23.17H82.68v11.27"/><polygon class="cls-5" points="117.19 374.86 127.55 380.85 117.19 386.83 117.19 374.86"/></g></g><line id="_Path_27" data-name="&lt;Path&gt;" class="cls-8" x1="65.92" y1="443.28" x2="75.92" y2="443.28"/></g><g id="_Group_39" data-name="&lt;Group&gt;"><circle id="_Path_28" data-name="&lt;Path&gt;" class="cls-6" cx="529.24" cy="420.99" r="21.27"/><g id="_Group_40" data-name="&lt;Group&gt;"><g id="_Group_41" data-name="&lt;Group&gt;"><polyline class="cls-6" points="507.97 420.99 491.74 420.99 491.74 383.49 529.24 383.49 529.24 389.51"/><polygon class="cls-5" points="523.26 387.76 529.24 398.12 535.23 387.76 523.26 387.76"/></g><g id="_Group_42" data-name="&lt;Group&gt;"><line class="cls-6" x1="534.28" y1="420.99" x2="545.22" y2="420.99"/><path class="cls-7" d="M531.54,424.86a4.5,4.5,0,1,0-6.8-3.87h0A4.5,4.5,0,0,0,531.54,424.86Z"/></g><line id="_Path_29" data-name="&lt;Path&gt;" class="cls-6" x1="529.24" y1="437.19" x2="529.24" y2="425.93"/><g id="_Group_43" data-name="&lt;Group&gt;"><polyline class="cls-6" points="551.74 420.99 566.74 420.99 566.74 458.49 529.24 458.49 529.24 452.11"/><polygon class="cls-5" points="535.23 453.86 529.24 443.49 523.26 453.86 535.23 453.86"/></g></g></g><path class="cls-6" d="M509.41,280.29l-2.52,2.35a3.78,3.78,0,0,0-.12,5.4L517.45,299a3.77,3.77,0,0,0,5.2.19l3-2.63"/><line class="cls-6" x1="509.48" y1="290.19" x2="514.61" y2="285.5"/><line class="cls-6" x1="514.22" y1="295.49" x2="519.36" y2="290.79"/><line class="cls-6" x1="536.59" y1="282.98" x2="542.86" y2="289"/><line class="cls-6" x1="530.09" y1="287.84" x2="536.96" y2="294.89"/><polyline id="_Path_30" data-name="&lt;Path&gt;" class="cls-6" points="516.97 576.47 516.97 584.43 550.09 584.43 550.09 561.8"/><line id="_Path_31" data-name="&lt;Path&gt;" class="cls-6" x1="527.75" y1="583.59" x2="527.75" y2="568.89"/><line id="_Path_32" data-name="&lt;Path&gt;" class="cls-6" x1="538.98" y1="584.43" x2="538.98" y2="568.53"/><g id="_Group_44" data-name="&lt;Group&gt;"><line id="_Path_33" data-name="&lt;Path&gt;" class="cls-6" x1="528.96" y1="605.42" x2="528.96" y2="621.34"/><line id="_Path_34" data-name="&lt;Path&gt;" class="cls-6" x1="515.17" y1="621.34" x2="542.75" y2="621.34"/><line id="_Path_35" data-name="&lt;Path&gt;" class="cls-6" x1="522.63" y1="548.46" x2="547.36" y2="548.46"/><g id="_Group_45" data-name="&lt;Group&gt;"><polyline class="cls-6" points="566.14 556.49 566.14 605.42 491.78 605.42 491.78 562.6"/><polygon class="cls-5" points="560.16 558.24 566.14 547.87 572.13 558.24 560.16 558.24"/></g><circle id="_Ellipse_5" data-name="&lt;Ellipse&gt;" class="cls-6" cx="551.85" cy="548.46" r="4.5"/><line id="_Path_36" data-name="&lt;Path&gt;" class="cls-6" x1="492.26" y1="593.34" x2="566.15" y2="593.34"/></g><g id="_Group_46" data-name="&lt;Group&gt;"><line id="_Path_37" data-name="&lt;Path&gt;" class="cls-8" x1="503.53" y1="540.26" x2="503.53" y2="536.93"/><line id="_Path_38" data-name="&lt;Path&gt;" class="cls-8" x1="496.21" y1="542.94" x2="493.79" y2="540.19"/><line id="_Path_39" data-name="&lt;Path&gt;" class="cls-8" x1="493.87" y1="548.6" x2="490.21" y2="548.6"/><line id="_Path_40" data-name="&lt;Path&gt;" class="cls-8" x1="495.22" y1="554.24" x2="492.26" y2="556.33"/><line id="_Path_41" data-name="&lt;Path&gt;" class="cls-8" x1="513.31" y1="548.6" x2="516.97" y2="548.6"/><line id="_Path_42" data-name="&lt;Path&gt;" class="cls-8" x1="511.96" y1="554.24" x2="514.93" y2="556.33"/></g><line id="_Path_43" data-name="&lt;Path&gt;" class="cls-8" x1="510.52" y1="542.7" x2="512.93" y2="539.95"/><g id="_Group_47" data-name="&lt;Group&gt;"><line id="_Path_44" data-name="&lt;Path&gt;" class="cls-8" x1="503.53" y1="540.26" x2="503.53" y2="536.93"/><line id="_Path_45" data-name="&lt;Path&gt;" class="cls-8" x1="496.21" y1="542.94" x2="493.79" y2="540.19"/><line id="_Path_46" data-name="&lt;Path&gt;" class="cls-8" x1="493.87" y1="548.6" x2="490.21" y2="548.6"/><line id="_Path_47" data-name="&lt;Path&gt;" class="cls-8" x1="495.22" y1="554.24" x2="492.26" y2="556.33"/><line id="_Path_48" data-name="&lt;Path&gt;" class="cls-8" x1="513.31" y1="548.6" x2="516.97" y2="548.6"/><line id="_Path_49" data-name="&lt;Path&gt;" class="cls-8" x1="511.96" y1="554.24" x2="514.93" y2="556.33"/></g><line class="cls-8" x1="499.65" y1="565.33" x2="507.93" y2="565.33"/><path class="cls-8" d="M509.84,549.62a6.2,6.2,0,1,0-11,3.89,9.49,9.49,0,0,1,2.14,6v.76h5.37v-.87a9.74,9.74,0,0,1,2.2-6A6.11,6.11,0,0,0,509.84,549.62Z"/><polyline class="cls-9" points="101.87 429.47 98.4 438.05 92.51 438.05"/><polyline class="cls-9" points="116.81 414.8 125.01 411.54 125.01 399.74"/><polyline class="cls-9" points="98.4 400.17 93.93 391.74 84.39 391.74"/><polyline class="cls-6" points="989.22 440.13 989.22 461.08 942.2 461.08 942.2 390.23 975.35 390.23"/><line class="cls-6" x1="942.12" y1="447.99" x2="960.75" y2="447.99"/><line class="cls-6" x1="972.38" y1="447.99" x2="988.32" y2="447.99"/><path class="cls-6" d="M983.82,409.35c1.52-.1,3.22-.14,5.1-.1,6.67.14,13.59,1.18,18.68,1.27,5.51.11,7.42-.72,7.42-.72v27a33.6,33.6,0,0,1-9.29.6c-5.54-.37-11-1.45-17-1.3a110.47,110.47,0,0,0-14.37,1V421.53"/><circle class="cls-6" cx="965.82" cy="447.93" r="4.5"/><line class="cls-6" x1="1000.5" y1="413.73" x2="989.5" y2="432.33"/><circle class="cls-6" cx="1003.45" cy="426.82" r="4.5"/><circle class="cls-6" cx="986.26" cy="419.58" r="4.5"/><polyline class="cls-6" points="952.76 421.12 966.12 409.87 972.65 412.07 988.38 394.37"/><polygon class="cls-5" points="991.69 399.65 994.1 387.93 982.74 391.71 991.69 399.65"/><path class="cls-6" d="M1011.69,572.3a33,33,0,0,0-29.38-29.64"/><path class="cls-6" d="M975.42,542.66A33,33,0,0,0,946,572.3"/><path class="cls-6" d="M946.1,579.19a33,33,0,0,0,29.32,29.07"/><path class="cls-6" d="M982.31,608.26a33,33,0,0,0,29.32-29.07"/><line class="cls-6" x1="978.87" y1="547.31" x2="978.87" y2="536.61"/><line class="cls-6" x1="978.87" y1="614.31" x2="978.87" y2="603.61"/><line class="cls-6" x1="950.72" y1="575.46" x2="940.02" y2="575.46"/><line class="cls-6" x1="1017.71" y1="575.46" x2="1007.01" y2="575.46"/><line class="cls-6" x1="978.87" y1="585.29" x2="978.87" y2="579.96"/><line class="cls-6" x1="978.87" y1="570.96" x2="978.87" y2="565.62"/><line class="cls-6" x1="988.7" y1="575.46" x2="983.37" y2="575.46"/><line class="cls-6" x1="974.37" y1="575.46" x2="969.04" y2="575.46"/><line class="cls-6" x1="969.89" y1="560.38" x2="959.91" y2="572.57"/><polygon class="cls-5" points="956.39 567.42 954.46 579.23 965.65 575 956.39 567.42"/><line class="cls-6" x1="987.09" y1="590.9" x2="997.33" y2="579"/><polygon class="cls-5" points="1000.73 584.23 1002.95 572.48 991.65 576.43 1000.73 584.23"/><circle class="cls-6" cx="978.87" cy="575.46" r="4.5"/><polyline class="cls-6" points="81.54 100.06 85.46 102.96 93.38 103.09"/><path class="cls-6" d="M64.71,116.89l3.75,3.75,1,4.09,17.85,17.85,6.59,6.6a3.8,3.8,0,1,0,5.38-5.37l-6.6-6.6,0,0,6.59,6.6a3.8,3.8,0,1,0,5.38-5.37l-6.6-6.6,0,0,6.59,6.6a3.8,3.8,0,0,0,5.38-5.38l-6.6-6.59,0,0,6.6,6.6a3.8,3.8,0,0,0,5.37,0h0a3.81,3.81,0,0,0,0-5.38l-9.08-8.92"/><path class="cls-6" d="M71.43,126.81,70.3,128a3.8,3.8,0,0,0,5.37,5.37l1.14-1.13,0,0-1.13,1.14a3.8,3.8,0,1,0,5.37,5.37l1.14-1.13,0,0-1.13,1.14a3.8,3.8,0,0,0,5.37,5.37L87.61,143l0,0-1.14,1.13a3.8,3.8,0,0,0,0,5.37h0a3.78,3.78,0,0,0,5.37,0L93,148.39"/><polyline class="cls-6" points="62.72 77.46 83.43 98.17 63.18 118.42 56.63 111.87"/><polygon class="cls-5" points="59.72 82.93 56.63 71.37 68.19 74.47 59.72 82.93"/><polyline class="cls-6" points="127.17 111.51 121.33 117.35 101.08 97.1 121.08 77.11"/><polygon class="cls-5" points="124.07 82.57 127.17 71.02 115.61 74.11 124.07 82.57"/><path class="cls-6" d="M102.74,99.15,99,102.88H94L82.81,114.32a3.52,3.52,0,0,0,0,5h0a3.51,3.51,0,0,0,5,0L94.1,113s3.31,3,6.57,5.86c3.62,3.2,7-.7,7-.7"/><polyline class="cls-6" points="119.35 115.45 115.44 119.36 115.63 124.28 113.86 126.05"/><circle class="cls-6" cx="124.24" cy="102.83" r="4.5"/><circle class="cls-6" cx="61.13" cy="102.83" r="4.5"/><path class="cls-8" d="M121.49,566.15s-9.4,16.52-29.71,16.52-29.71-16.52-29.71-16.52a26.27,26.27,0,0,1,2-2.89,35.23,35.23,0,0,1,27.68-13.64C112.09,549.62,121.49,566.15,121.49,566.15Z"/><circle class="cls-8" cx="91.78" cy="566.15" r="14.54"/><circle class="cls-8" cx="91.78" cy="566.15" r="5.45"/><line class="cls-8" x1="91.78" y1="542.17" x2="91.78" y2="530.72"/><polygon class="cls-5" points="97.77 532.47 91.78 522.11 85.8 532.47 97.77 532.47"/><line class="cls-8" x1="91.78" y1="601.58" x2="91.78" y2="590.12"/><polygon class="cls-5" points="97.77 599.83 91.78 610.19 85.8 599.83 97.77 599.83"/><line class="cls-8" x1="70.32" y1="544.69" x2="62.1" y2="536.47"/><polygon class="cls-5" points="67.57 533.47 56.02 530.38 59.11 541.94 67.57 533.47"/><line class="cls-8" x1="121.46" y1="595.83" x2="113.25" y2="587.61"/><polygon class="cls-5" points="124.46 590.36 127.55 601.92 116 598.82 124.46 590.36"/><line class="cls-8" x1="113.25" y1="544.69" x2="121.46" y2="536.47"/><polygon class="cls-5" points="124.46 541.94 127.55 530.38 116 533.47 124.46 541.94"/><line class="cls-8" x1="62.1" y1="595.83" x2="70.32" y2="587.61"/><polygon class="cls-5" points="67.57 598.82 56.02 601.92 59.11 590.36 67.57 598.82"/></g></svg>