<svg id="ICONS" xmlns="http://www.w3.org/2000/svg" width="100" height="116.67" viewBox="0 0 100 116.67"><defs><style>.cls-1,.cls-2{fill:none;stroke:#000;stroke-miterlimit:10;stroke-width:3px;}.cls-1{stroke-linecap:square;}</style></defs><title>Big Data</title><g id="_Group_" data-name="&lt;Group&gt;"><circle id="_Path_" data-name="&lt;Path&gt;" class="cls-1" cx="70.14" cy="90.86" r="5"/></g><polyline id="_Path_2" data-name="&lt;Path&gt;" class="cls-2" points="63.52 67.08 63.52 73.64 70.14 78.26 70.14 86.24"/><g id="_Group_2" data-name="&lt;Group&gt;"><circle id="_Path_3" data-name="&lt;Path&gt;" class="cls-1" cx="35.47" cy="90.86" r="5"/></g><polyline id="_Path_4" data-name="&lt;Path&gt;" class="cls-2" points="42.09 67.08 42.09 73.64 35.47 78.26 35.47 86.24"/><g id="_Group_3" data-name="&lt;Group&gt;"><polyline class="cls-2" points="53.11 68.46 53.11 80.94 53.11 89.13 53.11 95.93"/><polygon points="47.13 94.18 53.11 104.54 59.09 94.18 47.13 94.18"/></g><g id="_Group_4" data-name="&lt;Group&gt;"><polygon id="_Path_5" data-name="&lt;Path&gt;" class="cls-2" points="33.12 37.39 53.22 31.74 72.3 40.13 72.3 57.48 53.22 62.56 33.12 59.14 33.12 37.39"/><line id="_Path_6" data-name="&lt;Path&gt;" class="cls-2" x1="53.22" y1="31.91" x2="53.22" y2="62.56"/><line id="_Path_7" data-name="&lt;Path&gt;" class="cls-2" x1="66.99" y1="37.27" x2="66.99" y2="59.22"/><line id="_Path_8" data-name="&lt;Path&gt;" class="cls-2" x1="60.87" y1="35.11" x2="60.87" y2="60.97"/></g><path class="cls-2" d="M78.45,59.24a13.2,13.2,0,0,0,.45-26.4,20.75,20.75,0,0,0,.54-4.69,21.1,21.1,0,0,0-41.68-4.69A10.12,10.12,0,0,0,19.92,30a10.4,10.4,0,0,0,.41,2.86,13.21,13.21,0,0,0,1.22,26.37H27"/><path class="cls-2" d="M19.92,30a10.13,10.13,0,1,1,20.25,0"/></svg>