<svg id="ICONS" xmlns="http://www.w3.org/2000/svg" width="100" height="116.67" viewBox="0 0 100 116.67"><defs><style>.cls-1,.cls-2{fill:none;stroke:#000;stroke-miterlimit:10;stroke-width:3px;}.cls-1{stroke-linecap:square;}</style></defs><title>Case Studies_1</title><polyline class="cls-1" points="64.03 99.67 16.67 99.67 16.67 33 33.33 16.33 83.33 16.33 83.33 35.13"/><polygon points="77.35 33.38 83.33 43.74 89.32 33.38 77.35 33.38"/><polyline class="cls-1" points="83.33 87.6 83.33 99.67 74.28 99.67"/><path class="cls-1" d="M89.42,64.39a20.17,20.17,0,1,0-24.1,19.78v20.54a3.93,3.93,0,0,0,3.93,3.93h0a3.93,3.93,0,0,0,3.93-3.93V84.17A20.17,20.17,0,0,0,89.42,64.39Z"/><circle class="cls-1" cx="69.25" cy="64.19" r="13.87"/><polyline class="cls-2" points="33.33 16.33 33.33 33 16.67 33"/><line class="cls-2" x1="50" y1="27.22" x2="69.25" y2="27.22"/><line class="cls-2" x1="29.25" y1="45.47" x2="61.84" y2="45.47"/><line class="cls-2" x1="29.25" y1="59.72" x2="49.08" y2="59.72"/><line class="cls-2" x1="29.25" y1="73.97" x2="50.5" y2="73.97"/><line class="cls-2" x1="29.25" y1="88.22" x2="64.49" y2="88.22"/></svg>