<?xml version="1.0" encoding="utf-8"?>
<!-- Generator: Adobe Illustrator 22.0.1, SVG Export Plug-In . SVG Version: 6.00 Build 0)  -->
<svg version="1.1" xmlns="http://www.w3.org/2000/svg" xmlns:xlink="http://www.w3.org/1999/xlink" x="0px" y="0px" width="100px"
	 height="116px" viewBox="0 0 100 116" style="enable-background:new 0 0 100 116;" xml:space="preserve">
<style type="text/css">
	.st0{display:none;}
	.st1{display:inline;}
	.st2{fill:none;stroke:#000000;stroke-width:0.1397;stroke-miterlimit:10;}
	.st3{display:inline;fill:none;}
	.st4{fill:none;stroke:#061838;stroke-width:0.5887;stroke-miterlimit:10;}
	.st5{fill:none;stroke:#FFFFFF;stroke-width:1.4995;stroke-miterlimit:22.9256;}
	.st6{fill:none;stroke:#00321D;stroke-width:3;stroke-miterlimit:10;}
	.st7{fill:none;stroke:#00321D;stroke-width:3;stroke-linecap:square;stroke-miterlimit:10;}
	.st8{fill:#00321D;}
	.st9{fill:none;stroke:#00321D;stroke-width:3;stroke-linejoin:bevel;stroke-miterlimit:10;}
	.st10{fill:none;stroke:#020202;stroke-width:3;stroke-miterlimit:10;}
	.st11{fill:none;stroke:#00321D;stroke-width:3;stroke-miterlimit:22.9256;}
	.st12{fill:none;stroke:#00321D;stroke-width:3;stroke-linejoin:bevel;}
	.st13{fill:none;stroke:#000000;stroke-width:3;stroke-miterlimit:10;}
	.st14{fill:none;stroke:#231F20;stroke-width:3;stroke-miterlimit:10;}
	.st15{fill:none;stroke:#231F20;stroke-width:3;stroke-linejoin:bevel;stroke-miterlimit:10;}
	.st16{fill:none;stroke:#231F20;stroke-width:3;stroke-linejoin:bevel;}
	.st17{fill:#231F20;}
	.st18{fill:none;stroke:#231F20;stroke-width:3;stroke-linecap:square;stroke-miterlimit:10;}
</style>
<g id="Layer_3">
</g>
<g id="Layer_4" class="st0">
	<g class="st1">
		<rect y="-0.3" class="st2" width="16.7" height="16.7"/>
		<rect x="16.7" y="-0.3" class="st2" width="16.7" height="16.7"/>
		<rect x="33.3" y="-0.3" class="st2" width="16.7" height="16.7"/>
		<rect x="50" y="-0.3" class="st2" width="16.7" height="16.7"/>
		<rect x="66.7" y="-0.3" class="st2" width="16.7" height="16.7"/>
		<rect x="83.3" y="-0.3" class="st2" width="16.7" height="16.7"/>
		<rect y="16.3" class="st2" width="16.7" height="16.7"/>
		<rect x="16.7" y="16.3" class="st2" width="16.7" height="16.7"/>
		<rect x="33.3" y="16.3" class="st2" width="16.7" height="16.7"/>
		<rect x="50" y="16.3" class="st2" width="16.7" height="16.7"/>
		<rect x="66.7" y="16.3" class="st2" width="16.7" height="16.7"/>
		<rect x="83.3" y="16.3" class="st2" width="16.7" height="16.7"/>
		<rect y="33" class="st2" width="16.7" height="16.7"/>
		<rect x="16.7" y="33" class="st2" width="16.7" height="16.7"/>
		<rect x="33.3" y="33" class="st2" width="16.7" height="16.7"/>
		<rect x="50" y="33" class="st2" width="16.7" height="16.7"/>
		<rect x="66.7" y="33" class="st2" width="16.7" height="16.7"/>
		<rect x="83.3" y="33" class="st2" width="16.7" height="16.7"/>
		<rect y="49.7" class="st2" width="16.7" height="16.7"/>
		<rect x="16.7" y="49.7" class="st2" width="16.7" height="16.7"/>
		<rect x="33.3" y="49.7" class="st2" width="16.7" height="16.7"/>
		<rect x="50" y="49.7" class="st2" width="16.7" height="16.7"/>
		<rect x="66.7" y="49.7" class="st2" width="16.7" height="16.7"/>
		<rect x="83.3" y="49.7" class="st2" width="16.7" height="16.7"/>
		<rect y="66.3" class="st2" width="16.7" height="16.7"/>
		<rect x="16.7" y="66.3" class="st2" width="16.7" height="16.7"/>
		<rect x="33.3" y="66.3" class="st2" width="16.7" height="16.7"/>
		<rect x="50" y="66.3" class="st2" width="16.7" height="16.7"/>
		<rect x="66.7" y="66.3" class="st2" width="16.7" height="16.7"/>
		<rect x="83.3" y="66.3" class="st2" width="16.7" height="16.7"/>
		<rect y="83" class="st2" width="16.7" height="16.7"/>
		<rect x="16.7" y="83" class="st2" width="16.7" height="16.7"/>
		<rect x="33.3" y="83" class="st2" width="16.7" height="16.7"/>
		<rect x="50" y="83" class="st2" width="16.7" height="16.7"/>
		<rect x="66.7" y="83" class="st2" width="16.7" height="16.7"/>
		<rect x="83.3" y="83" class="st2" width="16.7" height="16.7"/>
		<rect y="99.7" class="st2" width="16.7" height="16.7"/>
		<rect x="16.7" y="99.7" class="st2" width="16.7" height="16.7"/>
		<rect x="33.3" y="99.7" class="st2" width="16.7" height="16.7"/>
		<rect x="50" y="99.7" class="st2" width="16.7" height="16.7"/>
		<rect x="66.7" y="99.7" class="st2" width="16.7" height="16.7"/>
		<rect x="83.3" y="99.7" class="st2" width="16.7" height="16.7"/>
	</g>
</g>
<g id="Layer_1">
	<path class="st14" d="M24,78.6c0,0,16.4-4.7,40.2,0"/>
	<ellipse id="XMLID_56_" class="st14" cx="44.1" cy="60.3" rx="26.9" ry="27.5"/>
	<ellipse id="XMLID_55_" class="st14" cx="44.1" cy="60.3" rx="12.3" ry="27.5"/>
	<polyline id="XMLID_59_" class="st14" points="16.7,23 16.7,41.7 24.1,41.7 	"/>
	<polyline id="XMLID_53_" class="st14" points="83.3,48.4 83.3,60.3 71.1,60.3 17.2,60.3 	"/>
	<path class="st14" d="M24,42.3c0,0,16.4,4.7,40.2,0"/>
	<g>
		<g>
			<polyline class="st18" points="44.1,31 44.1,16.6 58.8,16.6 			"/>
			<g>
				<polygon class="st17" points="57.1,22.6 67.4,16.6 57.1,10.7 				"/>
			</g>
		</g>
	</g>
	<polyline class="st18" points="50,86.7 50,99.5 76.5,99.5 	"/>
	<ellipse class="st18" cx="83.3" cy="99.2" rx="5" ry="5"/>
	<ellipse class="st18" cx="83.3" cy="43.4" rx="5" ry="5"/>
	<ellipse class="st18" cx="74.4" cy="16.6" rx="5" ry="5"/>
	<ellipse class="st18" cx="16.6" cy="16.6" rx="5" ry="5"/>
</g>
</svg>
