<?xml version="1.0" encoding="utf-8"?>
<!-- Generator: Adobe Illustrator 22.0.1, SVG Export Plug-In . SVG Version: 6.00 Build 0)  -->
<svg version="1.1" xmlns="http://www.w3.org/2000/svg" xmlns:xlink="http://www.w3.org/1999/xlink" x="0px" y="0px" width="100px"
	 height="116px" viewBox="0 0 100 116" style="enable-background:new 0 0 100 116;" xml:space="preserve">
<style type="text/css">
	.st0{display:none;}
	.st1{display:inline;}
	.st2{fill:none;stroke:#000000;stroke-width:0.1397;stroke-miterlimit:10;}
	.st3{display:inline;fill:none;}
	.st4{fill:none;stroke:#061838;stroke-width:0.5887;stroke-miterlimit:10;}
	.st5{fill:none;stroke:#FFFFFF;stroke-width:1.4995;stroke-miterlimit:22.9256;}
	.st6{fill:none;stroke:#00321D;stroke-width:3;stroke-miterlimit:10;}
	.st7{fill:none;stroke:#00321D;stroke-width:3;stroke-linecap:square;stroke-miterlimit:10;}
	.st8{fill:#00321D;}
	.st9{fill:none;stroke:#00321D;stroke-width:3;stroke-linejoin:bevel;stroke-miterlimit:10;}
	.st10{fill:none;stroke:#020202;stroke-width:3;stroke-miterlimit:10;}
	.st11{fill:none;stroke:#00321D;stroke-width:3;stroke-miterlimit:22.9256;}
	.st12{fill:none;stroke:#00321D;stroke-width:3;stroke-linejoin:bevel;}
	.st13{fill:none;stroke:#000000;stroke-width:3;stroke-miterlimit:10;}
	.st14{fill:none;stroke:#231F20;stroke-width:3;stroke-miterlimit:10;}
	.st15{fill:none;stroke:#231F20;stroke-width:3;stroke-linejoin:bevel;stroke-miterlimit:10;}
	.st16{fill:none;stroke:#231F20;stroke-width:3;stroke-linejoin:bevel;}
	.st17{fill:#231F20;}
	.st18{fill:none;stroke:#231F20;stroke-width:3;stroke-linecap:square;stroke-miterlimit:10;}
</style>
<g id="Layer_3">
</g>
<g id="Layer_4" class="st0">
	<g class="st1">
		<rect y="-0.3" class="st2" width="16.7" height="16.7"/>
		<rect x="16.7" y="-0.3" class="st2" width="16.7" height="16.7"/>
		<rect x="33.3" y="-0.3" class="st2" width="16.7" height="16.7"/>
		<rect x="50" y="-0.3" class="st2" width="16.7" height="16.7"/>
		<rect x="66.7" y="-0.3" class="st2" width="16.7" height="16.7"/>
		<rect x="83.3" y="-0.3" class="st2" width="16.7" height="16.7"/>
		<rect y="16.3" class="st2" width="16.7" height="16.7"/>
		<rect x="16.7" y="16.3" class="st2" width="16.7" height="16.7"/>
		<rect x="33.3" y="16.3" class="st2" width="16.7" height="16.7"/>
		<rect x="50" y="16.3" class="st2" width="16.7" height="16.7"/>
		<rect x="66.7" y="16.3" class="st2" width="16.7" height="16.7"/>
		<rect x="83.3" y="16.3" class="st2" width="16.7" height="16.7"/>
		<rect y="33" class="st2" width="16.7" height="16.7"/>
		<rect x="16.7" y="33" class="st2" width="16.7" height="16.7"/>
		<rect x="33.3" y="33" class="st2" width="16.7" height="16.7"/>
		<rect x="50" y="33" class="st2" width="16.7" height="16.7"/>
		<rect x="66.7" y="33" class="st2" width="16.7" height="16.7"/>
		<rect x="83.3" y="33" class="st2" width="16.7" height="16.7"/>
		<rect y="49.7" class="st2" width="16.7" height="16.7"/>
		<rect x="16.7" y="49.7" class="st2" width="16.7" height="16.7"/>
		<rect x="33.3" y="49.7" class="st2" width="16.7" height="16.7"/>
		<rect x="50" y="49.7" class="st2" width="16.7" height="16.7"/>
		<rect x="66.7" y="49.7" class="st2" width="16.7" height="16.7"/>
		<rect x="83.3" y="49.7" class="st2" width="16.7" height="16.7"/>
		<rect y="66.3" class="st2" width="16.7" height="16.7"/>
		<rect x="16.7" y="66.3" class="st2" width="16.7" height="16.7"/>
		<rect x="33.3" y="66.3" class="st2" width="16.7" height="16.7"/>
		<rect x="50" y="66.3" class="st2" width="16.7" height="16.7"/>
		<rect x="66.7" y="66.3" class="st2" width="16.7" height="16.7"/>
		<rect x="83.3" y="66.3" class="st2" width="16.7" height="16.7"/>
		<rect y="83" class="st2" width="16.7" height="16.7"/>
		<rect x="16.7" y="83" class="st2" width="16.7" height="16.7"/>
		<rect x="33.3" y="83" class="st2" width="16.7" height="16.7"/>
		<rect x="50" y="83" class="st2" width="16.7" height="16.7"/>
		<rect x="66.7" y="83" class="st2" width="16.7" height="16.7"/>
		<rect x="83.3" y="83" class="st2" width="16.7" height="16.7"/>
		<rect y="99.7" class="st2" width="16.7" height="16.7"/>
		<rect x="16.7" y="99.7" class="st2" width="16.7" height="16.7"/>
		<rect x="33.3" y="99.7" class="st2" width="16.7" height="16.7"/>
		<rect x="50" y="99.7" class="st2" width="16.7" height="16.7"/>
		<rect x="66.7" y="99.7" class="st2" width="16.7" height="16.7"/>
		<rect x="83.3" y="99.7" class="st2" width="16.7" height="16.7"/>
	</g>
</g>
<g id="Layer_1">
	<polyline class="st15" points="36.4,54.1 12.4,69.5 12.4,103.8 87.6,103.8 87.6,75.3 43.2,53.4 	"/>
	<line class="st15" x1="39.9" y1="56.4" x2="39.9" y2="103.1"/>
	<polyline class="st15" points="12.4,79.4 39.9,68 87.6,83.9 	"/>
	<polyline class="st15" points="54.1,103.9 54.1,86 63.7,88.2 63.7,104.2 	"/>
	<circle class="st15" cx="39.9" cy="27.9" r="6.6"/>
	<path class="st15" d="M57.1,28.9c0,9.5-17.2,27.8-17.2,27.8S22.6,38.4,22.6,28.9s7.7-17.2,17.2-17.2S57.1,19.4,57.1,28.9z"/>
	<g>
		<g>
			<polyline class="st16" points="73.7,29.6 86.8,29.6 86.8,65.1 			"/>
			<g>
				<polygon class="st17" points="75.4,35.6 65.1,29.6 75.4,23.6 				"/>
			</g>
		</g>
	</g>
</g>
</svg>
