<svg id="Layer_1" data-name="Layer 1" xmlns="http://www.w3.org/2000/svg" width="500" height="472.33"><defs><style>.cls-1,.cls-3,.cls-5{fill:none;stroke-width:1.61px}.cls-1,.cls-5{stroke:#963596}.cls-1,.cls-3{stroke-miterlimit:10}.cls-2{fill:#963596}.cls-3{stroke:#372261}.cls-4{fill:#372261}.cls-5{stroke-linejoin:bevel}</style></defs><path class="cls-1" d="M277.09 178.88a63.17 63.17 0 0 0-29.77-8.21V77"/><path class="cls-2" d="M250.53 77.97l-3.21-5.55-3.2 5.55h6.41z"/><path class="cls-1" d="M188.86 259.86a63.54 63.54 0 0 0 20.88 25.6l-34.49 53.63H95.7"/><path class="cls-2" d="M96.64 335.88l-5.56 3.21 5.56 3.2v-6.41z"/><path class="cls-1" d="M204.25 186.85a63.54 63.54 0 0 0-17.79 27.38L155 198.37H60.29"/><path class="cls-2" d="M61.23 195.16l-5.56 3.21 5.56 3.2v-6.41z"/><path class="cls-1" d="M184.62 221.17a64 64 0 0 0 1.84 32.48l-31.91 14.52H60.29"/><path class="cls-2" d="M61.23 264.96l-5.56 3.21 5.56 3.21v-6.42z"/><path class="cls-1" d="M240.15 170.83a63.07 63.07 0 0 0-30.41 11.59L174.59 128H95.7"/><path class="cls-2" d="M96.64 124.75l-5.56 3.21 5.56 3.2v-6.41z"/><path class="cls-1" d="M215.91 288.63a63.17 63.17 0 0 0 29.77 8.21v93.63"/><path class="cls-2" d="M242.47 389.54l3.21 5.55 3.2-5.55h-6.41z"/><path class="cls-3" d="M304.15 207.65a63.71 63.71 0 0 0-20.88-25.6l34.48-53.63h79.55"/><path class="cls-4" d="M396.37 131.63l5.55-3.21-5.55-3.2v6.41z"/><path class="cls-3" d="M288.75 280.66a63.45 63.45 0 0 0 17.79-27.38L338 269.15h94.7"/><path class="cls-4" d="M431.78 272.35l5.55-3.21-5.55-3.2v6.41z"/><path class="cls-3" d="M308.38 246.35a64 64 0 0 0 1.29-12.78 63.31 63.31 0 0 0-3.13-19.71l31.91-14.52h94.27"/><path class="cls-4" d="M431.78 202.54l5.55-3.2-5.55-3.21v6.41z"/><path class="cls-3" d="M252.85 296.69a63.09 63.09 0 0 0 30.41-11.6l35.15 54.47h78.89"/><path class="cls-4" d="M396.37 342.76l5.55-3.2-5.55-3.21v6.41z"/><path class="cls-1" d="M263.72 44.98v16.46h-41.16V26.48h10.7"/><path class="cls-2" d="M260.51 45.92l3.21-5.56 3.2 5.56h-6.41z"/><path class="cls-1" d="M245.32 18.51h6.2l3.39-14.1h1.61c3.3 0 5.35 2.14 4.65 6-.33 1.84-.94 5.51-.94 5.51h11a3 3 0 0 1 3 3.57l-2.33 12.75a5.26 5.26 0 0 1-5.17 4.31h-14.81l-2.36-2h-4.08"/><path class="cls-1" d="M235.58 15.49h9.74v21.97h-9.74"/><circle class="cls-1" cx="236.35" cy="26.29" r="2.41"/><path d="M226.59 226.92h-3.65v3.39H227v1h-5.28v-9.39h5.07v1h-3.86v3h3.65zM228.54 226.41v-1.83h1.08l.07 1.12a2.48 2.48 0 0 1 2.23-1.27c.93 0 2.38.56 2.38 2.87v4h-1.22v-3.89c0-1.09-.41-2-1.56-2a1.75 1.75 0 0 0-1.65 1.25 2 2 0 0 0-.08.57v4.06h-1.23zM240 231.33l-.1-.85a2.51 2.51 0 0 1-2.06 1 1.92 1.92 0 0 1-2.06-1.94c0-1.63 1.45-2.52 4.05-2.5v-.14a1.39 1.39 0 0 0-1.53-1.56 3.35 3.35 0 0 0-1.76.5l-.28-.81a4.23 4.23 0 0 1 2.22-.6c2.06 0 2.56 1.41 2.56 2.76v2.52a9.9 9.9 0 0 0 .11 1.62zm-.18-3.44c-1.34 0-2.86.21-2.86 1.51a1.08 1.08 0 0 0 1.16 1.17 1.68 1.68 0 0 0 1.63-1.12 1.4 1.4 0 0 0 .07-.39zM242.94 231.33c0-.46.05-1.15.05-1.74v-8.15h1.21v4.23a2.51 2.51 0 0 1 2.3-1.24c1.67 0 2.86 1.39 2.84 3.44 0 2.41-1.52 3.61-3 3.61a2.41 2.41 0 0 1-2.26-1.27l-.05 1.12zm1.26-2.71a2.13 2.13 0 0 0 .06.45 1.9 1.9 0 0 0 1.84 1.44c1.28 0 2.05-1 2.05-2.6 0-1.35-.7-2.5-2-2.5a2 2 0 0 0-1.87 1.5 3.17 3.17 0 0 0-.07.5zM250.92 221.44h1.23v9.89h-1.23zM255.57 222.69a.72.72 0 0 1-.78.75.73.73 0 0 1-.74-.75.76.76 0 0 1 .77-.77.73.73 0 0 1 .75.77zm-1.36 8.64v-6.75h1.22v6.75zM257.47 226.41c0-.7 0-1.27-.06-1.83h1.09l.07 1.12a2.47 2.47 0 0 1 2.23-1.27c.93 0 2.38.56 2.38 2.87v4H262v-3.89c0-1.09-.4-2-1.56-2a1.74 1.74 0 0 0-1.64 1.25 1.66 1.66 0 0 0-.09.57v4.06h-1.22zM271 224.58c0 .49-.05 1-.05 1.86v3.91c0 1.55-.31 2.5-1 3.08a3.58 3.58 0 0 1-2.45.81 4.35 4.35 0 0 1-2.24-.56l.31-.93a3.76 3.76 0 0 0 2 .53c1.26 0 2.18-.66 2.18-2.36v-.75a2.41 2.41 0 0 1-2.15 1.13 3 3 0 0 1-2.87-3.29c0-2.28 1.5-3.58 3-3.58a2.23 2.23 0 0 1 2.1 1.17l.06-1zm-1.27 2.67a1.66 1.66 0 0 0-.07-.56 1.76 1.76 0 0 0-1.71-1.3c-1.17 0-2 1-2 2.55 0 1.33.67 2.43 2 2.43a1.81 1.81 0 0 0 1.7-1.26 2.43 2.43 0 0 0 .09-.65zM217.3 243.18a2.17 2.17 0 0 0 2.32 2.35 4.5 4.5 0 0 0 1.86-.35l.21.87a5.36 5.36 0 0 1-2.24.42 3.13 3.13 0 0 1-3.32-3.4c0-2 1.2-3.63 3.17-3.63 2.2 0 2.78 1.93 2.78 3.17a5.55 5.55 0 0 1 0 .57zm3.6-.87a1.75 1.75 0 0 0-1.7-2 2 2 0 0 0-1.88 2zM228.41 246.08a4.47 4.47 0 0 1-1.94.39 3.21 3.21 0 0 1-3.36-3.44 3.44 3.44 0 0 1 3.63-3.58 4.09 4.09 0 0 1 1.7.35l-.28.95a2.8 2.8 0 0 0-1.42-.32 2.54 2.54 0 0 0-.05 5.07 3.4 3.4 0 0 0 1.51-.34zM235.86 242.91a3.29 3.29 0 0 1-3.35 3.58 3.21 3.21 0 0 1-3.24-3.47 3.29 3.29 0 0 1 3.35-3.58 3.19 3.19 0 0 1 3.24 3.47zm-5.35.07c0 1.47.85 2.59 2.05 2.59s2.05-1.1 2.05-2.62c0-1.14-.57-2.59-2-2.59s-2.1 1.33-2.1 2.64zM237.24 245.08a3.23 3.23 0 0 0 1.62.49c.89 0 1.31-.45 1.31-1s-.35-.9-1.25-1.24c-1.22-.43-1.79-1.1-1.79-1.9a2.08 2.08 0 0 1 2.33-2 3.32 3.32 0 0 1 1.66.42l-.31.89a2.61 2.61 0 0 0-1.38-.39c-.72 0-1.13.41-1.13.92s.41.8 1.28 1.14c1.17.44 1.77 1 1.77 2 0 1.19-.92 2-2.52 2a3.8 3.8 0 0 1-1.89-.46zM243.37 239.59l1.48 4c.15.45.32 1 .43 1.38.13-.4.27-.92.43-1.4l1.34-4h1.3l-1.84 4.81c-.88 2.31-1.48 3.49-2.32 4.22a3.17 3.17 0 0 1-1.5.79l-.31-1a3.3 3.3 0 0 0 1.08-.6 3.77 3.77 0 0 0 1-1.36 1 1 0 0 0 .09-.3 1 1 0 0 0-.08-.32l-2.47-6.22zM249.24 245.08a3.17 3.17 0 0 0 1.62.49c.89 0 1.31-.45 1.31-1s-.35-.9-1.26-1.24c-1.21-.43-1.78-1.1-1.78-1.9a2.08 2.08 0 0 1 2.33-2 3.25 3.25 0 0 1 1.65.42l-.3.89a2.64 2.64 0 0 0-1.38-.39c-.73 0-1.13.41-1.13.92s.4.8 1.28 1.14c1.17.44 1.77 1 1.77 2 0 1.19-.92 2-2.52 2a3.87 3.87 0 0 1-1.9-.46zM256.4 237.65v1.94h1.76v.93h-1.76v3.64c0 .84.24 1.31.92 1.31a2.82 2.82 0 0 0 .71-.08l.06.92a3.26 3.26 0 0 1-1.09.16 1.7 1.7 0 0 1-1.32-.51 2.5 2.5 0 0 1-.48-1.76v-3.68h-1v-.93h1V238zM260.14 243.18a2.16 2.16 0 0 0 2.31 2.35 4.52 4.52 0 0 0 1.87-.35l.2.87a5.36 5.36 0 0 1-2.24.42 3.13 3.13 0 0 1-3.31-3.4c0-2 1.19-3.63 3.16-3.63 2.2 0 2.79 1.93 2.79 3.17a3.4 3.4 0 0 1-.05.57zm3.59-.87a1.75 1.75 0 0 0-1.7-2 2 2 0 0 0-1.88 2zM266.43 241.42c0-.7 0-1.27-.05-1.83h1.07l.06 1.09a2.33 2.33 0 0 1 2.12-1.24 2 2 0 0 1 1.91 1.35 2.77 2.77 0 0 1 .76-.88 2.27 2.27 0 0 1 1.49-.47c.89 0 2.21.58 2.21 2.92v4h-1.2v-3.81c0-1.3-.47-2.08-1.46-2.08a1.59 1.59 0 0 0-1.45 1.11 2.23 2.23 0 0 0-.1.62v4.16h-1.19v-4c0-1.07-.48-1.85-1.41-1.85a1.84 1.84 0 0 0-1.62 1.83v4.06h-1.2z"/><path class="cls-2" d="M114 351.7l-.83 2.5h-1.07l2.7-7.95h1.2l2.71 7.95h-1.1l-.85-2.5zm2.6-.8l-.78-2.29c-.17-.51-.29-1-.41-1.45-.12.47-.25 1-.4 1.44l-.78 2.3zM119.92 346.35a12.15 12.15 0 0 1 2-.15 3.26 3.26 0 0 1 2.23.66 2.13 2.13 0 0 1 .69 1.66 2.34 2.34 0 0 1-.61 1.7 3.28 3.28 0 0 1-2.43.87 3.52 3.52 0 0 1-.83-.07v3.18h-1zm1 3.83a3.4 3.4 0 0 0 .85.09c1.24 0 2-.61 2-1.7S123 347 121.91 347a4.89 4.89 0 0 0-1 .08zM127.21 346.25v7.95h-1v-7.95zM128.1 354.68l3.29-8.56h.8l-3.3 8.56zM135.37 353.14a2.74 2.74 0 0 0 1.37.42c.76 0 1.11-.38 1.11-.85s-.3-.77-1.06-1c-1-.37-1.51-.93-1.51-1.62a1.76 1.76 0 0 1 2-1.67 2.82 2.82 0 0 1 1.4.35l-.26.76a2.14 2.14 0 0 0-1.17-.34c-.61 0-.95.36-.95.78s.34.69 1.08 1c1 .38 1.5.87 1.5 1.72s-.78 1.71-2.13 1.71a3.22 3.22 0 0 1-1.61-.39zM140.76 351.54a1.83 1.83 0 0 0 2 2 3.86 3.86 0 0 0 1.58-.29l.18.74a4.74 4.74 0 0 1-1.9.35 2.65 2.65 0 0 1-2.81-2.88c0-1.72 1-3.07 2.68-3.07a2.42 2.42 0 0 1 2.36 2.69 4.14 4.14 0 0 1 0 .48zm3-.74a1.48 1.48 0 0 0-1.44-1.69 1.72 1.72 0 0 0-1.59 1.69zM146.09 350.28c0-.67 0-1.25-.05-1.78h.96v1.12a1.71 1.71 0 0 1 1.58-1.25 1.39 1.39 0 0 1 .3 0v1a1.86 1.86 0 0 0-.36 0 1.45 1.45 0 0 0-1.39 1.33 3.45 3.45 0 0 0 0 .48v3h-1zM150.64 348.5l1.12 3.2a14.41 14.41 0 0 1 .46 1.47c.13-.48.29-.95.48-1.47l1.11-3.2h1.08l-2.24 5.7h-1l-2.17-5.7zM157.07 346.89a.65.65 0 0 1-1.29 0 .64.64 0 0 1 .65-.65.62.62 0 0 1 .64.65zm-1.16 7.31v-5.7h1v5.7zM162.74 354a3.83 3.83 0 0 1-1.64.33 2.71 2.71 0 0 1-2.84-2.91 2.89 2.89 0 0 1 3.06-3 3.47 3.47 0 0 1 1.44.29l-.23.81a2.33 2.33 0 0 0-1.21-.28 2.16 2.16 0 0 0 0 4.3 2.89 2.89 0 0 0 1.27-.29zM164.46 351.54a1.83 1.83 0 0 0 2 2 3.86 3.86 0 0 0 1.58-.29l.17.74a4.68 4.68 0 0 1-1.89.35 2.65 2.65 0 0 1-2.81-2.88c0-1.72 1-3.07 2.68-3.07a2.41 2.41 0 0 1 2.35 2.69 4.64 4.64 0 0 1 0 .48zm3-.74a1.48 1.48 0 0 0-1.44-1.69 1.72 1.72 0 0 0-1.59 1.69zM168.91 354.68l3.3-8.56h.8l-3.31 8.56zM111.47 365.05v-1.55h.9v.92a2 2 0 0 1 1.79-1.05 1.69 1.69 0 0 1 1.62 1.15 2.39 2.39 0 0 1 .64-.75 1.94 1.94 0 0 1 1.26-.4c.75 0 1.87.5 1.87 2.48v3.36h-1V366c0-1.1-.4-1.76-1.24-1.76a1.36 1.36 0 0 0-1.23.94 2 2 0 0 0-.08.52v3.53h-1v-3.42c0-.91-.4-1.57-1.19-1.57a1.43 1.43 0 0 0-1.29 1 1.4 1.4 0 0 0-.08.51v3.44h-1zM122.46 361.9a.64.64 0 0 1-1.28 0 .63.63 0 0 1 .65-.65.61.61 0 0 1 .63.65zm-1.15 7.31v-5.71h1v5.71zM128.13 369a3.82 3.82 0 0 1-1.63.33 2.72 2.72 0 0 1-2.85-2.92 2.91 2.91 0 0 1 3.07-3 3.49 3.49 0 0 1 1.44.3l-.24.8a2.41 2.41 0 0 0-1.2-.27 2 2 0 0 0-2 2.16 2 2 0 0 0 2 2.13 3 3 0 0 0 1.28-.28zM129.35 365.28v-1.78h.91v1.12a1.73 1.73 0 0 1 1.58-1.25 1 1 0 0 1 .3 0v1a1.32 1.32 0 0 0-.36 0 1.45 1.45 0 0 0-1.39 1.33 3.52 3.52 0 0 0 0 .49v3h-1zM138.25 366.31a2.79 2.79 0 0 1-2.84 3 2.71 2.71 0 0 1-2.74-2.94 2.79 2.79 0 0 1 2.83-3 2.7 2.7 0 0 1 2.75 2.94zm-4.53.06c0 1.25.72 2.19 1.74 2.19s1.73-.93 1.73-2.22c0-1-.48-2.19-1.71-2.19s-1.76 1.13-1.76 2.22zM141.92 368.15a2.67 2.67 0 0 0 1.36.41c.76 0 1.11-.38 1.11-.85s-.29-.76-1.06-1c-1-.36-1.51-.93-1.51-1.61a1.76 1.76 0 0 1 2-1.68 2.79 2.79 0 0 1 1.4.36l-.26.75a2.19 2.19 0 0 0-1.16-.33c-.62 0-1 .35-1 .78s.34.68 1.09 1c1 .37 1.49.87 1.49 1.72s-.77 1.71-2.13 1.71a3.18 3.18 0 0 1-1.6-.39zM147.3 366.54a1.84 1.84 0 0 0 2 2 3.68 3.68 0 0 0 1.58-.3l.18.74a4.54 4.54 0 0 1-1.9.36 2.65 2.65 0 0 1-2.81-2.88c0-1.72 1-3.08 2.68-3.08a2.42 2.42 0 0 1 2.36 2.69 2.59 2.59 0 0 1 0 .48zm3-.74a1.48 1.48 0 0 0-1.44-1.69 1.72 1.72 0 0 0-1.59 1.69zM152.63 365.28v-1.78h.91v1.12h.05a1.72 1.72 0 0 1 1.58-1.25.88.88 0 0 1 .29 0v1a1.2 1.2 0 0 0-.35 0 1.45 1.45 0 0 0-1.39 1.33 2.46 2.46 0 0 0-.05.49v3h-1zM157.18 363.5l1.12 3.21a12.74 12.74 0 0 1 .46 1.46c.13-.47.29-.94.48-1.46l1.11-3.21h1.09l-2.24 5.71h-1l-2.17-5.71zM163.61 361.9a.65.65 0 0 1-1.29 0 .64.64 0 0 1 .65-.65.62.62 0 0 1 .64.65zm-1.16 7.31v-5.71h1v5.71zM169.28 369a3.83 3.83 0 0 1-1.64.33 2.71 2.71 0 0 1-2.84-2.92 2.9 2.9 0 0 1 3.07-3 3.53 3.53 0 0 1 1.44.3l-.24.8a2.44 2.44 0 0 0-1.2-.27 2 2 0 0 0-2 2.16 2 2 0 0 0 2 2.13 2.91 2.91 0 0 0 1.27-.28zM171 366.54a1.84 1.84 0 0 0 2 2 3.68 3.68 0 0 0 1.58-.3l.18.74a4.54 4.54 0 0 1-1.9.36 2.65 2.65 0 0 1-2.81-2.88c0-1.72 1-3.08 2.68-3.08a2.42 2.42 0 0 1 2.36 2.69 3.94 3.94 0 0 1 0 .48zm3-.74a1.47 1.47 0 0 0-1.43-1.69 1.74 1.74 0 0 0-1.6 1.69zM140.88 376.87v1.64h1.49v.79h-1.49v3.08c0 .7.2 1.11.78 1.11a2.05 2.05 0 0 0 .6-.08l.05.78a2.39 2.39 0 0 1-.92.14 1.42 1.42 0 0 1-1.12-.43 2.11 2.11 0 0 1-.41-1.49v-3.11H139v-.79h.88v-1.37zM144 381.55a1.83 1.83 0 0 0 2 2 3.86 3.86 0 0 0 1.58-.29l.17.74a4.52 4.52 0 0 1-1.89.35 2.65 2.65 0 0 1-2.81-2.87c0-1.73 1-3.08 2.68-3.08a2.41 2.41 0 0 1 2.35 2.69 4.64 4.64 0 0 1 0 .48zm3-.74a1.48 1.48 0 0 0-1.44-1.69 1.72 1.72 0 0 0-1.59 1.69zM149.23 383.15a2.58 2.58 0 0 0 1.36.42c.76 0 1.11-.38 1.11-.85s-.29-.77-1.06-1.05c-1-.37-1.51-.93-1.51-1.62a1.76 1.76 0 0 1 2-1.67 2.79 2.79 0 0 1 1.4.35l-.25.76a2.27 2.27 0 0 0-1.17-.33c-.62 0-1 .35-1 .78s.34.68 1.09 1c1 .38 1.5.88 1.5 1.72 0 1-.78 1.71-2.14 1.71a3.21 3.21 0 0 1-1.6-.39zM155.29 376.87v1.64h1.48v.79h-1.48v3.08c0 .7.2 1.11.77 1.11a2.08 2.08 0 0 0 .61-.08v.78a2.39 2.39 0 0 1-.92.14 1.45 1.45 0 0 1-1.12-.43 2.16 2.16 0 0 1-.4-1.49v-3.11h-.88v-.79h.88v-1.37zM159.09 376.9a.6.6 0 0 1-.66.64.62.62 0 0 1-.62-.64.64.64 0 0 1 .65-.65.61.61 0 0 1 .63.65zm-1.15 7.32v-5.71h1v5.71zM160.7 380.05v-1.54h.92l.06.94a2.12 2.12 0 0 1 1.89-1.07c.79 0 2 .47 2 2.43v3.41h-1v-3.29c0-.92-.34-1.69-1.32-1.69a1.46 1.46 0 0 0-1.39 1.06 1.43 1.43 0 0 0-.07.48v3.44h-1zM172.16 378.51v4.88a3.31 3.31 0 0 1-.81 2.61 3 3 0 0 1-2.08.68 3.67 3.67 0 0 1-1.9-.47l.26-.79a3.2 3.2 0 0 0 1.68.45c1.06 0 1.84-.56 1.84-2v-.63a2 2 0 0 1-1.81.95 2.55 2.55 0 0 1-2.43-2.78 2.74 2.74 0 0 1 2.57-3 1.9 1.9 0 0 1 1.78 1l.05-.86zm-1.07 2.25a1.68 1.68 0 0 0-.06-.47 1.5 1.5 0 0 0-1.45-1.1c-1 0-1.7.84-1.7 2.16 0 1.12.56 2 1.68 2a1.51 1.51 0 0 0 1.44-1.06 1.81 1.81 0 0 0 .09-.55zM93 281.36l-.83 2.5h-1.04l2.7-7.95h1.24l2.71 7.95h-1.09l-.85-2.5zm2.61-.8l-.78-2.29c-.18-.52-.3-1-.42-1.45-.12.47-.25.95-.4 1.44l-.78 2.3zM103.69 278.15V283a3.31 3.31 0 0 1-.81 2.61 3 3 0 0 1-2.08.68 3.67 3.67 0 0 1-1.9-.47l.26-.79a3.2 3.2 0 0 0 1.68.45c1.06 0 1.84-.55 1.84-2v-.64a2 2 0 0 1-1.81 1 2.56 2.56 0 0 1-2.43-2.79 2.74 2.74 0 0 1 2.57-3 1.9 1.9 0 0 1 1.78 1v-.86zm-1.07 2.25a1.73 1.73 0 0 0-.06-.47 1.5 1.5 0 0 0-1.45-1.1c-1 0-1.7.84-1.7 2.16 0 1.12.56 2.05 1.68 2.05a1.51 1.51 0 0 0 1.44-1.06 1.71 1.71 0 0 0 .09-.55zM106.45 276.55a.65.65 0 0 1-1.29 0 .63.63 0 0 1 .65-.65.62.62 0 0 1 .64.65zm-1.16 7.31v-5.71h1v5.71zM108.05 275.48h1v8.38h-1zM111.41 281.19a1.82 1.82 0 0 0 2 2 3.86 3.86 0 0 0 1.58-.29l.18.74a4.54 4.54 0 0 1-1.9.36 2.65 2.65 0 0 1-2.81-2.88c0-1.72 1-3.08 2.68-3.08a2.42 2.42 0 0 1 2.36 2.69 3.94 3.94 0 0 1 0 .48zm3-.74a1.48 1.48 0 0 0-1.44-1.69 1.72 1.72 0 0 0-1.59 1.69zM115.87 284.33l3.29-8.55h.8l-3.3 8.55zM128.21 275.48v8.38h-.93v-1a2.13 2.13 0 0 1-2 1.12c-1.38 0-2.44-1.17-2.44-2.9 0-1.9 1.17-3.07 2.56-3.07a1.91 1.91 0 0 1 1.72.87v-3.41zm-1 5a2.09 2.09 0 0 0 0-.43 1.54 1.54 0 0 0-1.5-1.21c-1.07 0-1.71.95-1.71 2.21s.57 2.11 1.69 2.11a1.56 1.56 0 0 0 1.52-1.24 2.09 2.09 0 0 0 0-.45zM130.51 281.19a1.82 1.82 0 0 0 2 2 3.86 3.86 0 0 0 1.58-.29l.18.74a4.54 4.54 0 0 1-1.9.36 2.65 2.65 0 0 1-2.81-2.88c0-1.72 1-3.08 2.68-3.08a2.42 2.42 0 0 1 2.36 2.69 3.94 3.94 0 0 1 0 .48zm3-.74a1.48 1.48 0 0 0-1.44-1.69 1.72 1.72 0 0 0-1.59 1.69zM136.24 278.15l1.12 3.21a15.09 15.09 0 0 1 .46 1.46c.13-.47.29-.94.48-1.46l1.11-3.21h1.08l-2.24 5.71h-1l-2.17-5.71zM146.56 281a2.79 2.79 0 0 1-2.84 3 2.71 2.71 0 0 1-2.74-2.94 2.79 2.79 0 0 1 2.83-3 2.7 2.7 0 0 1 2.75 2.94zm-4.56 0c0 1.25.72 2.19 1.73 2.19s1.74-.93 1.74-2.22c0-1-.49-2.19-1.71-2.19S142 279.93 142 281zM147.87 280c0-.73 0-1.32-.05-1.86h.93l.05 1a2.25 2.25 0 0 1 2-1.11c1.38 0 2.42 1.17 2.42 2.9 0 2.05-1.25 3.07-2.6 3.07a2 2 0 0 1-1.75-.9v3.1h-1zm1 1.52a2.68 2.68 0 0 0 .05.43 1.6 1.6 0 0 0 1.56 1.21c1.09 0 1.73-.89 1.73-2.2 0-1.15-.6-2.12-1.7-2.12a1.65 1.65 0 0 0-1.57 1.28 1.93 1.93 0 0 0-.07.43zM154.43 282.8a2.74 2.74 0 0 0 1.37.41c.75 0 1.11-.38 1.11-.85s-.3-.77-1.06-1.05c-1-.37-1.51-.93-1.51-1.62a1.76 1.76 0 0 1 2-1.67 3 3 0 0 1 1.4.35l-.26.76a2.24 2.24 0 0 0-1.17-.33c-.61 0-.95.35-.95.78s.34.68 1.08 1c1 .38 1.5.88 1.5 1.73 0 1-.78 1.71-2.13 1.71a3.33 3.33 0 0 1-1.61-.39zM126.29 291.52v1.63h1.49v.79h-1.49V297c0 .71.2 1.11.78 1.11a2.12 2.12 0 0 0 .6-.07v.78a2.61 2.61 0 0 1-.92.14 1.42 1.42 0 0 1-1.12-.43 2.11 2.11 0 0 1-.41-1.49v-3.12h-.88v-.79h.88v-1.36zM129.45 296.2a1.83 1.83 0 0 0 2 2 3.86 3.86 0 0 0 1.58-.29l.17.74a4.68 4.68 0 0 1-1.89.35 2.65 2.65 0 0 1-2.81-2.88c0-1.72 1-3.07 2.68-3.07a2.41 2.41 0 0 1 2.35 2.68 4.68 4.68 0 0 1 0 .49zm3-.75a1.47 1.47 0 0 0-1.44-1.68 1.72 1.72 0 0 0-1.59 1.68zM134.64 297.8a2.67 2.67 0 0 0 1.36.42c.76 0 1.11-.38 1.11-.85s-.29-.77-1.06-1.05c-1-.37-1.51-.94-1.51-1.62a1.76 1.76 0 0 1 2-1.67 2.79 2.79 0 0 1 1.4.35l-.25.75a2.27 2.27 0 0 0-1.17-.33c-.62 0-1 .36-1 .78s.34.69 1.09 1c1 .38 1.5.87 1.5 1.72 0 1-.78 1.71-2.14 1.71a3.21 3.21 0 0 1-1.6-.39zM140.7 291.52v1.63h1.48v.79h-1.48V297c0 .71.2 1.11.77 1.11a2.15 2.15 0 0 0 .61-.07v.78a2.61 2.61 0 0 1-.92.14 1.45 1.45 0 0 1-1.12-.43 2.16 2.16 0 0 1-.4-1.49v-3.12h-.88v-.79h.88v-1.36zM144.5 291.55a.61.61 0 0 1-.66.64.62.62 0 0 1-.62-.64.64.64 0 0 1 .65-.65.61.61 0 0 1 .63.65zm-1.15 7.31v-5.71h1v5.71zM146.11 294.7c0-.59 0-1.07-.05-1.55h.94l.06 1A2.12 2.12 0 0 1 149 293c.79 0 2 .47 2 2.42v3.41h-1v-3.29c0-.92-.34-1.68-1.32-1.68a1.46 1.46 0 0 0-1.39 1.06 1.39 1.39 0 0 0-.07.48v3.43h-1zM157.57 293.15V298a3.31 3.31 0 0 1-.81 2.61 3.09 3.09 0 0 1-2.08.68 3.77 3.77 0 0 1-1.9-.47l.26-.79a3.3 3.3 0 0 0 1.68.45c1.06 0 1.84-.56 1.84-2v-.63a2 2 0 0 1-1.81.95 2.55 2.55 0 0 1-2.43-2.78 2.73 2.73 0 0 1 2.57-3 1.89 1.89 0 0 1 1.78 1v-.87zm-1.07 2.26a1.68 1.68 0 0 0-.06-.47 1.49 1.49 0 0 0-1.45-1.1c-1 0-1.7.84-1.7 2.16 0 1.12.56 2.05 1.68 2.05a1.51 1.51 0 0 0 1.44-1.06 1.82 1.82 0 0 0 .09-.56zM130.84 175.34a5.1 5.1 0 0 1-2.1.38 3.72 3.72 0 0 1-3.93-4 4 4 0 0 1 4.15-4.17 4.32 4.32 0 0 1 1.89.35l-.25.84a3.7 3.7 0 0 0-1.6-.33 3 3 0 0 0-3.11 3.28 2.89 2.89 0 0 0 3.06 3.2 4.1 4.1 0 0 0 1.67-.33zM132.08 167.22h1v8.38h-1zM140 172.7a2.79 2.79 0 0 1-2.84 3 2.71 2.71 0 0 1-2.74-2.94 2.79 2.79 0 0 1 2.83-3 2.7 2.7 0 0 1 2.75 2.94zm-4.53.06c0 1.25.72 2.19 1.74 2.19s1.79-.95 1.79-2.22c0-1-.48-2.19-1.71-2.19s-1.79 1.13-1.79 2.22zM146.12 174v1.56h-.92l-.06-.93a2.14 2.14 0 0 1-1.89 1.06c-.89 0-2-.5-2-2.5v-3.34h1v3.16c0 1.09.33 1.82 1.28 1.82a1.49 1.49 0 0 0 1.36-1 1.47 1.47 0 0 0 .1-.53v-3.5h1zM152.77 167.22v8.38h-.93v-1a2.12 2.12 0 0 1-1.95 1.12c-1.38 0-2.44-1.17-2.44-2.9 0-1.9 1.17-3.07 2.56-3.07a1.88 1.88 0 0 1 1.72.87v-3.41zm-1 5a1.58 1.58 0 0 0 0-.43 1.53 1.53 0 0 0-1.5-1.21c-1.07 0-1.71 1-1.71 2.21s.57 2.11 1.69 2.11a1.56 1.56 0 0 0 1.52-1.24 1.59 1.59 0 0 0 0-.45zM114.05 190.6l-.09-.72a2.12 2.12 0 0 1-1.75.85 1.62 1.62 0 0 1-1.74-1.64c0-1.38 1.22-2.13 3.43-2.12v-.12a1.18 1.18 0 0 0-1.3-1.32 2.82 2.82 0 0 0-1.48.43l-.24-.69a3.61 3.61 0 0 1 1.88-.5c1.74 0 2.17 1.19 2.17 2.33v2.14a8.09 8.09 0 0 0 .09 1.36zm-.16-2.91c-1.13 0-2.41.18-2.41 1.29a.91.91 0 0 0 1 1 1.4 1.4 0 0 0 1.38-1 .92.92 0 0 0 .06-.33zM116.57 186.44v-1.54h.92l.06.94a2.12 2.12 0 0 1 1.89-1.07c.79 0 2 .47 2 2.43v3.4h-1v-3.29c0-.92-.34-1.68-1.32-1.68a1.46 1.46 0 0 0-1.39 1.06 1.39 1.39 0 0 0-.07.48v3.43h-1zM128 182.23v6.9c0 .51 0 1.08.05 1.47h-.93v-1a2.12 2.12 0 0 1-2 1.12c-1.38 0-2.44-1.16-2.44-2.9 0-1.9 1.17-3.06 2.56-3.06a1.91 1.91 0 0 1 1.72.87v-3.41zm-1 5a2.18 2.18 0 0 0 0-.44 1.53 1.53 0 0 0-1.5-1.2c-1.07 0-1.71.94-1.71 2.21s.57 2.11 1.69 2.11a1.56 1.56 0 0 0 1.52-1.24 2.15 2.15 0 0 0 0-.45zM133.42 183.29a.65.65 0 0 1-1.29 0 .64.64 0 0 1 .65-.65.62.62 0 0 1 .64.65zm-1.16 7.31v-5.7h1v5.7zM135 186.44c0-.59 0-1.07-.05-1.54h.92l.06.94a2.12 2.12 0 0 1 1.89-1.07c.79 0 2 .47 2 2.43v3.4h-1v-3.29c0-.92-.34-1.68-1.32-1.68a1.47 1.47 0 0 0-1.39 1.06 1.39 1.39 0 0 0-.07.48v3.43h-1zM141.67 190.6v-4.91h-.8v-.79h.8v-.28a2.7 2.7 0 0 1 .66-2 2 2 0 0 1 1.39-.53 2.26 2.26 0 0 1 .89.17l-.15.8a1.53 1.53 0 0 0-.66-.13c-.88 0-1.1.78-1.1 1.65v.31h1.38v.79h-1.38v4.91zM145 186.68v-1.78h.91v1.12a1.7 1.7 0 0 1 1.58-1.25 1.23 1.23 0 0 1 .29 0v1a1.69 1.69 0 0 0-.35 0 1.46 1.46 0 0 0-1.39 1.34 3.22 3.22 0 0 0-.05.48v3h-1zM152 190.6l-.08-.72a2.14 2.14 0 0 1-1.75.85 1.63 1.63 0 0 1-1.75-1.64c0-1.38 1.23-2.13 3.44-2.12v-.12a1.18 1.18 0 0 0-1.3-1.32 2.86 2.86 0 0 0-1.56.47l-.23-.69a3.58 3.58 0 0 1 1.87-.5c1.75 0 2.17 1.19 2.17 2.33v2.14a8 8 0 0 0 .1 1.36zm-.15-2.91c-1.13 0-2.42.18-2.42 1.29a.92.92 0 0 0 1 1 1.41 1.41 0 0 0 1.38-1 .92.92 0 0 0 .06-.33zM126.94 105.43l-2-8H126l.95 4c.23 1 .44 2 .58 2.74.13-.79.38-1.73.65-2.76l1.06-4h1.07l1 4c.22.94.43 1.88.55 2.72.16-.87.39-1.76.63-2.75l1.05-4h1l-2.25 8h-1.07l-1-4.14a23.91 23.91 0 0 1-.51-2.59 25.19 25.19 0 0 1-.61 2.59l-1.1 4.19zM135.77 102.77a1.83 1.83 0 0 0 2 2 3.68 3.68 0 0 0 1.58-.3l.18.75a4.74 4.74 0 0 1-1.9.35 2.65 2.65 0 0 1-2.81-2.88c0-1.72 1-3.08 2.68-3.08a2.42 2.42 0 0 1 2.36 2.69 2.72 2.72 0 0 1 0 .49zm3-.75a1.47 1.47 0 0 0-1.44-1.68 1.71 1.71 0 0 0-1.59 1.68zM144.26 105.43l-.08-.72a2.14 2.14 0 0 1-1.75.85 1.63 1.63 0 0 1-1.75-1.64c0-1.38 1.23-2.13 3.44-2.12v-.12a1.18 1.18 0 0 0-1.3-1.32 2.86 2.86 0 0 0-1.49.43l-.23-.69a3.49 3.49 0 0 1 1.87-.51c1.75 0 2.17 1.2 2.17 2.34v2.13a8.07 8.07 0 0 0 .1 1.37zm-.15-2.91c-1.13 0-2.42.18-2.42 1.28a.92.92 0 0 0 1 1 1.43 1.43 0 0 0 1.38-1 1 1 0 0 0 .06-.33zM146.79 101.51v-1.79h.91v1.12a1.72 1.72 0 0 1 1.58-1.25 1.19 1.19 0 0 1 .29 0v1a1.69 1.69 0 0 0-.35 0 1.46 1.46 0 0 0-1.39 1.34 2.28 2.28 0 0 0-.05.48v3h-1zM153.74 105.43l-.08-.72a2.14 2.14 0 0 1-1.75.85 1.63 1.63 0 0 1-1.75-1.64c0-1.38 1.23-2.13 3.44-2.12v-.12a1.18 1.18 0 0 0-1.3-1.32 2.86 2.86 0 0 0-1.49.43l-.23-.69a3.49 3.49 0 0 1 1.87-.51c1.75 0 2.17 1.2 2.17 2.34v2.13a8.07 8.07 0 0 0 .1 1.37zm-.15-2.91c-1.13 0-2.42.18-2.42 1.28a.92.92 0 0 0 1 1 1.43 1.43 0 0 0 1.38-1 1 1 0 0 0 .06-.33zM156.22 105.43V97.06h1v3.58a2.15 2.15 0 0 1 1.95-1c1.42 0 2.42 1.18 2.41 2.92 0 2-1.29 3-2.56 3a2 2 0 0 1-1.91-1.07v.94zm1.07-2.29a1.58 1.58 0 0 0 .05.38 1.6 1.6 0 0 0 1.55 1.22c1.09 0 1.74-.89 1.74-2.2 0-1.14-.59-2.12-1.7-2.12a1.65 1.65 0 0 0-1.58 1.27 2.34 2.34 0 0 0-.06.43zM163 97.06h1v8.37h-1zM166.33 102.77a1.83 1.83 0 0 0 2 2 3.68 3.68 0 0 0 1.58-.3l.18.75a4.74 4.74 0 0 1-1.9.35 2.65 2.65 0 0 1-2.81-2.88c0-1.72 1-3.08 2.68-3.08a2.42 2.42 0 0 1 2.36 2.69 2.72 2.72 0 0 1 0 .49zm3-.75a1.47 1.47 0 0 0-1.44-1.68 1.71 1.71 0 0 0-1.59 1.68zM171.52 104.37a2.74 2.74 0 0 0 1.37.41c.75 0 1.11-.37 1.11-.85s-.3-.76-1.06-1.05c-1-.36-1.51-.93-1.51-1.61a1.76 1.76 0 0 1 2-1.68 2.85 2.85 0 0 1 1.4.36l-.26.75a2.24 2.24 0 0 0-1.17-.33c-.61 0-1 .36-1 .78s.34.69 1.08 1c1 .38 1.5.87 1.5 1.72s-.78 1.71-2.13 1.71a3.22 3.22 0 0 1-1.61-.39zM143.44 120.44l-.08-.72a2.12 2.12 0 0 1-1.75.85 1.63 1.63 0 0 1-1.74-1.64c0-1.38 1.23-2.14 3.43-2.12v-.12a1.18 1.18 0 0 0-1.3-1.32 2.81 2.81 0 0 0-1.48.42l-.24-.68a3.52 3.52 0 0 1 1.88-.51c1.74 0 2.17 1.19 2.17 2.34v2.13a8.14 8.14 0 0 0 .09 1.37zm-.15-2.91c-1.14 0-2.42.17-2.42 1.28a.92.92 0 0 0 1 1 1.43 1.43 0 0 0 1.38-1 1.36 1.36 0 0 0 .06-.33zM146 116.28c0-.59 0-1.08-.05-1.55h.92l.06.94a2.09 2.09 0 0 1 1.88-1.07c.79 0 2 .47 2 2.43v3.41h-1v-3.29c0-.92-.34-1.69-1.32-1.69a1.48 1.48 0 0 0-1.39 1.06 1.45 1.45 0 0 0-.07.49v3.43h-1zM157.43 112.06v8.42h-.93l-.05-1a2.13 2.13 0 0 1-1.95 1.12c-1.38 0-2.44-1.17-2.44-2.9 0-1.9 1.17-3.07 2.56-3.07a1.91 1.91 0 0 1 1.72.87v-3.41zm-1 5a2.1 2.1 0 0 0-.05-.43 1.53 1.53 0 0 0-1.5-1.21c-1.07 0-1.71 1-1.71 2.21s.57 2.11 1.69 2.11a1.56 1.56 0 0 0 1.52-1.24 2.06 2.06 0 0 0 .05-.45zM162.71 112.49v8h-1v-8zM169.64 117.54a2.79 2.79 0 0 1-2.85 3 2.71 2.71 0 0 1-2.73-2.94 2.79 2.79 0 0 1 2.83-3 2.7 2.7 0 0 1 2.75 2.94zm-4.53.06c0 1.25.72 2.19 1.73 2.19s1.74-.93 1.74-2.22c0-1-.49-2.19-1.71-2.19s-1.76 1.13-1.76 2.22zM172 113.36h-2.4v-.87h5.88v.87h-2.43v7.08h-1zM176.53 31.22a15.32 15.32 0 0 1 2.18-.16 4.56 4.56 0 0 1 3.22 1 3.65 3.65 0 0 1 1.12 2.85 4.21 4.21 0 0 1-1.14 3.09 4.88 4.88 0 0 1-3.52 1.15 16.15 16.15 0 0 1-1.86-.1zm1 7a6.19 6.19 0 0 0 1 .06 3.06 3.06 0 0 0 3.47-3.34c0-1.88-1-3.07-3.22-3.07a5.85 5.85 0 0 0-1.21.11zM185.5 31.75a.65.65 0 0 1-1.29 0 .64.64 0 0 1 .65-.65.62.62 0 0 1 .64.65zm-1.16 7.32v-5.71h1v5.71zM192 33.36c0 .41-.05.87-.05 1.57v3.31a3.31 3.31 0 0 1-.81 2.61 3 3 0 0 1-2.08.68 3.63 3.63 0 0 1-1.89-.47l.26-.79a3.13 3.13 0 0 0 1.67.45c1.06 0 1.84-.56 1.84-2v-.63a2 2 0 0 1-1.82.95 2.55 2.55 0 0 1-2.43-2.78 2.73 2.73 0 0 1 2.57-3 1.9 1.9 0 0 1 1.78 1v-.86zm-1 2.25a1.38 1.38 0 0 0-.06-.47 1.5 1.5 0 0 0-1.45-1.1c-1 0-1.7.84-1.7 2.16 0 1.12.57 2 1.69 2a1.53 1.53 0 0 0 1.44-1.06 2.15 2.15 0 0 0 .08-.55zM194.78 31.75a.65.65 0 0 1-1.29 0 .64.64 0 0 1 .65-.65.62.62 0 0 1 .64.65zm-1.16 7.32v-5.71h1v5.71zM197.63 31.72v1.64h1.49v.79h-1.49v3.08c0 .7.2 1.1.78 1.1a2.12 2.12 0 0 0 .6-.07l.05.78a2.39 2.39 0 0 1-.92.14 1.45 1.45 0 0 1-1.12-.43 2.11 2.11 0 0 1-.4-1.49v-3.11h-.89v-.79h.89V32zM203.45 39.07l-.09-.72a2.15 2.15 0 0 1-1.75.85 1.63 1.63 0 0 1-1.74-1.64c0-1.38 1.22-2.14 3.43-2.13v-.11A1.18 1.18 0 0 0 202 34a2.88 2.88 0 0 0-1.49.43l-.23-.69a3.58 3.58 0 0 1 1.87-.5c1.75 0 2.17 1.19 2.17 2.33v2.13a8.15 8.15 0 0 0 .1 1.37zm-.16-2.92c-1.13 0-2.42.18-2.42 1.29a.92.92 0 0 0 1 1 1.4 1.4 0 0 0 1.38-1 .92.92 0 0 0 .06-.33zM206 30.69h1v8.38h-1zM163.25 54.07l-.08-.72a2.1 2.1 0 0 1-1.74.85 1.63 1.63 0 0 1-1.75-1.64c0-1.38 1.23-2.13 3.44-2.12v-.12a1.18 1.18 0 0 0-1.3-1.32 3 3 0 0 0-1.49.42l-.23-.68a3.49 3.49 0 0 1 1.87-.51c1.75 0 2.17 1.19 2.17 2.34v2.13a8.07 8.07 0 0 0 .1 1.37zm-.15-2.91c-1.13 0-2.42.18-2.42 1.28a.92.92 0 0 0 1 1 1.43 1.43 0 0 0 1.38-1 1 1 0 0 0 .06-.33zM165.63 53a2.74 2.74 0 0 0 1.37.41c.76 0 1.11-.37 1.11-.85s-.3-.76-1.06-1c-1-.36-1.51-.93-1.51-1.61a1.76 1.76 0 0 1 2-1.68 2.82 2.82 0 0 1 1.4.36l-.26.75a2.21 2.21 0 0 0-1.17-.33c-.61 0-.95.36-.95.78s.34.68 1.08 1c1 .37 1.5.87 1.5 1.72 0 1-.78 1.71-2.13 1.71a3.22 3.22 0 0 1-1.61-.39zM170.3 53a2.74 2.74 0 0 0 1.37.41c.75 0 1.11-.37 1.11-.85s-.3-.76-1.06-1c-1-.36-1.51-.93-1.51-1.61a1.76 1.76 0 0 1 2-1.68 2.85 2.85 0 0 1 1.4.36l-.26.75a2.24 2.24 0 0 0-1.17-.33c-.61 0-1 .36-1 .78s.34.68 1.08 1c1 .37 1.5.87 1.5 1.72 0 1-.78 1.71-2.13 1.71a3.22 3.22 0 0 1-1.63-.46zM179.89 52.51c0 .59 0 1.11.05 1.56H179l-.06-.93a2.14 2.14 0 0 1-1.88 1.06c-.9 0-2-.49-2-2.5v-3.34h1v3.16c0 1.09.34 1.82 1.28 1.82a1.51 1.51 0 0 0 1.37-.94 1.55 1.55 0 0 0 .09-.53v-3.51h1zM181.61 50.14c0-.67 0-1.25-.05-1.78h.91v1.12h.05a1.73 1.73 0 0 1 1.58-1.25 1.36 1.36 0 0 1 .3 0v1a1.32 1.32 0 0 0-.36 0 1.46 1.46 0 0 0-1.39 1.34 3.22 3.22 0 0 0-.05.48v3h-1zM188.57 54.07l-.09-.72a2.12 2.12 0 0 1-1.75.85 1.62 1.62 0 0 1-1.73-1.64c0-1.38 1.22-2.13 3.43-2.12v-.12a1.18 1.18 0 0 0-1.3-1.32 2.91 2.91 0 0 0-1.48.42l-.24-.68a3.52 3.52 0 0 1 1.88-.51c1.74 0 2.17 1.19 2.17 2.34v2.13a8.14 8.14 0 0 0 .09 1.37zm-.16-2.91c-1.13 0-2.41.18-2.41 1.28a.92.92 0 0 0 1 1 1.42 1.42 0 0 0 1.38-1 1 1 0 0 0 .06-.33zM191.09 49.91c0-.59 0-1.07-.05-1.55h.96l.06 1a2.11 2.11 0 0 1 1.89-1.08c.79 0 2 .48 2 2.43v3.41h-1v-3.34c0-.92-.34-1.69-1.32-1.69a1.47 1.47 0 0 0-1.39 1.07 1.39 1.39 0 0 0-.07.48v3.43h-1zM201.7 53.86a3.83 3.83 0 0 1-1.64.33 2.71 2.71 0 0 1-2.84-2.91 2.9 2.9 0 0 1 3.07-3 3.46 3.46 0 0 1 1.43.29l-.23.8a2.44 2.44 0 0 0-1.2-.27 2 2 0 0 0-2 2.16 2 2 0 0 0 2 2.13 2.91 2.91 0 0 0 1.27-.28zM203.42 51.41a1.83 1.83 0 0 0 2 2 3.68 3.68 0 0 0 1.58-.3l.18.75a4.74 4.74 0 0 1-1.9.35 2.65 2.65 0 0 1-2.81-2.88c0-1.72 1-3.08 2.68-3.08a2.42 2.42 0 0 1 2.36 2.69 4.35 4.35 0 0 1 0 .49zm3-.75A1.47 1.47 0 0 0 205 49a1.71 1.71 0 0 0-1.59 1.68z"/><path class="cls-4" d="M318.47 100.86l-.83 2.5h-1.06l2.7-7.94h1.24l2.71 7.94h-1.09l-.85-2.5zm2.61-.8l-.78-2.29c-.18-.51-.3-1-.42-1.45-.12.48-.25 1-.4 1.44l-.78 2.3zM324.33 99.2c0-.59 0-1.07-.05-1.54h.92l.06.94a2.12 2.12 0 0 1 1.89-1.07c.79 0 2 .47 2 2.43v3.4h-1v-3.29c0-.92-.34-1.68-1.32-1.68a1.47 1.47 0 0 0-1.39 1.06 1.43 1.43 0 0 0-.07.48v3.43h-1zM334 103.36l-.08-.71a2.16 2.16 0 0 1-1.75.84 1.62 1.62 0 0 1-1.75-1.63c0-1.38 1.23-2.14 3.44-2.13v-.12a1.18 1.18 0 0 0-1.3-1.32 2.86 2.86 0 0 0-1.49.43l-.23-.69a3.58 3.58 0 0 1 1.87-.5c1.75 0 2.17 1.19 2.17 2.33V102a8 8 0 0 0 .1 1.36zm-.15-2.91c-1.13 0-2.42.18-2.42 1.29a.92.92 0 0 0 1 1 1.41 1.41 0 0 0 1.38-1 .92.92 0 0 0 .06-.33zM336.55 95h1v8.37h-1zM339.71 97.66L341 101c.13.38.28.83.37 1.17.11-.34.23-.78.37-1.19l1.13-3.35H344l-1.56 4.07c-.74 2-1.25 3-2 3.57a2.77 2.77 0 0 1-1.27.67l-.26-.87a2.74 2.74 0 0 0 .91-.51 3.06 3.06 0 0 0 .87-1.15.69.69 0 0 0 .08-.25.81.81 0 0 0-.07-.27l-2.11-5.26zM346.14 96v1.64h1.49v.79h-1.49v3.08c0 .7.2 1.1.78 1.1a2.12 2.12 0 0 0 .6-.07l.05.78a2.61 2.61 0 0 1-.92.14 1.44 1.44 0 0 1-1.12-.43 2.11 2.11 0 0 1-.4-1.49v-3.09h-.89v-.79h.89v-1.37zM350 96.05a.65.65 0 0 1-1.29 0 .64.64 0 0 1 .65-.65.62.62 0 0 1 .64.65zm-1.16 7.31v-5.7h1v5.7zM355.62 103.15a3.83 3.83 0 0 1-1.64.33 2.71 2.71 0 0 1-2.84-2.91 2.9 2.9 0 0 1 3.07-3 3.46 3.46 0 0 1 1.43.29l-.23.8a2.44 2.44 0 0 0-1.2-.27 2.16 2.16 0 0 0 0 4.3 2.89 2.89 0 0 0 1.27-.29zM356.69 102.3a2.74 2.74 0 0 0 1.37.42c.76 0 1.11-.38 1.11-.85s-.3-.77-1.06-1.05c-1-.37-1.51-.93-1.51-1.62a1.76 1.76 0 0 1 2-1.67 2.82 2.82 0 0 1 1.4.35l-.26.75a2.21 2.21 0 0 0-1.17-.33c-.61 0-1 .36-1 .78s.34.69 1.08 1c1 .38 1.5.87 1.5 1.72 0 1-.78 1.71-2.13 1.71a3.22 3.22 0 0 1-1.61-.39zM322.08 110v6.9c0 .5 0 1.08.05 1.47h-.94v-1a2.1 2.1 0 0 1-1.94 1.12c-1.38 0-2.44-1.17-2.44-2.9 0-1.9 1.16-3.07 2.55-3.07a1.91 1.91 0 0 1 1.73.87V110zm-1 5a1.65 1.65 0 0 0-.05-.44 1.52 1.52 0 0 0-1.49-1.2c-1.08 0-1.71.94-1.71 2.2s.56 2.11 1.68 2.11A1.65 1.65 0 0 0 321 116zM323.8 114.44c0-.67 0-1.25-.05-1.78h.91v1.12h.05a1.73 1.73 0 0 1 1.58-1.25 1 1 0 0 1 .3 0v1a1.32 1.32 0 0 0-.36 0 1.46 1.46 0 0 0-1.39 1.33 3.52 3.52 0 0 0-.05.49v3h-1zM328.86 111.06a.65.65 0 0 1-1.29 0 .63.63 0 0 1 .65-.65.62.62 0 0 1 .64.65zm-1.16 7.31v-5.71h1v5.71zM330.86 112.66l1.12 3.21a15.09 15.09 0 0 1 .46 1.46c.13-.47.29-.94.48-1.46l1.11-3.21h1.08l-2.24 5.71h-1l-2.17-5.71zM336.59 115.71a1.83 1.83 0 0 0 2 2 3.68 3.68 0 0 0 1.58-.3l.18.74a4.54 4.54 0 0 1-1.9.36 2.65 2.65 0 0 1-2.81-2.88c0-1.72 1-3.08 2.68-3.08a2.42 2.42 0 0 1 2.36 2.69 4.35 4.35 0 0 1 0 .49zm3-.75a1.47 1.47 0 0 0-1.44-1.68 1.71 1.71 0 0 0-1.55 1.72zM341.92 114.21c0-.59 0-1.08-.05-1.55h.92l.06 1a2.11 2.11 0 0 1 1.89-1.08c.79 0 2 .47 2 2.43v3.41h-1v-3.29c0-.92-.34-1.69-1.32-1.69a1.48 1.48 0 0 0-1.39 1.06 1.45 1.45 0 0 0-.07.49v3.43h-1zM357.55 119.54c-1.07-.28-2.12-.6-3-.92a1.47 1.47 0 0 0-.48-.12c-1.89-.07-3.5-1.46-3.5-4s1.55-4.19 3.7-4.19 3.56 1.68 3.56 4c0 2-.94 3.35-2.26 3.81.79.2 1.65.39 2.32.51zm-.84-5.18c0-1.59-.83-3.23-2.52-3.23s-2.58 1.6-2.57 3.32.92 3.21 2.53 3.21 2.56-1.48 2.56-3.3zM360.24 115.87l-.82 2.5h-1.07l2.71-8h1.23l2.72 8h-1.1l-.85-2.5zm2.61-.8l-.78-2.29c-.18-.52-.29-1-.41-1.45-.11.47-.24 1-.4 1.44l-.78 2.3zM340.84 167.22a13.89 13.89 0 0 1 2.18-.17 4.56 4.56 0 0 1 3.22 1 3.66 3.66 0 0 1 1.12 2.86 4.21 4.21 0 0 1-1.14 3.09 4.93 4.93 0 0 1-3.52 1.14 16.39 16.39 0 0 1-1.86-.09zm1 7a6.19 6.19 0 0 0 1 .06 3.06 3.06 0 0 0 3.39-3.38c0-1.87-1.05-3.06-3.22-3.06a6 6 0 0 0-1.21.1zM350 175.06l-2-7.95h1.09l.94 4c.24 1 .45 2 .59 2.75.13-.79.38-1.73.65-2.76l1.06-4h1.08l1 4c.23.94.44 1.88.56 2.72.17-.87.39-1.76.64-2.75l1.05-4h1.05l-2.25 7.95h-1.08l-1-4.14a24.16 24.16 0 0 1-.52-2.59 23.06 23.06 0 0 1-.62 2.59l-1.13 4.14zM357.76 175.53l3.29-8.55h.8l-3.3 8.55zM362.71 167.22a9.4 9.4 0 0 1 1.87-.17 3.32 3.32 0 0 1 2.19.58 1.68 1.68 0 0 1 .66 1.4 1.89 1.89 0 0 1-1.35 1.75 2.05 2.05 0 0 1 1.64 2 2.15 2.15 0 0 1-.67 1.59 4 4 0 0 1-2.75.74 11.59 11.59 0 0 1-1.59-.09zm1 3.25h.94c1.08 0 1.72-.56 1.72-1.33 0-.93-.71-1.3-1.75-1.3a5 5 0 0 0-.91.07zm0 3.81a4.94 4.94 0 0 0 .86.05c1.07 0 2.05-.39 2.05-1.54s-.94-1.54-2.06-1.54h-.85zM370.13 167.11v7.95h-1v-7.95zM377.54 175.06l-.08-.72a2.1 2.1 0 0 1-1.74.85 1.63 1.63 0 0 1-1.75-1.64c0-1.38 1.23-2.13 3.43-2.12v-.12a1.17 1.17 0 0 0-1.29-1.32 2.85 2.85 0 0 0-1.49.42l-.24-.68a3.55 3.55 0 0 1 1.88-.51c1.75 0 2.17 1.19 2.17 2.34v2.13a7.16 7.16 0 0 0 .1 1.37zm-.15-2.91c-1.13 0-2.42.18-2.42 1.28a.92.92 0 0 0 1 1 1.43 1.43 0 0 0 1.38-.95 1.28 1.28 0 0 0 .06-.33zM380.06 170.9v-1.55h.92l.06 1a2.08 2.08 0 0 1 1.89-1.08c.79 0 2 .47 2 2.43v3.41h-1v-3.29c0-.92-.34-1.69-1.32-1.69a1.48 1.48 0 0 0-1.39 1.07 1.68 1.68 0 0 0-.07.48v3.43h-1zM391.54 166.69V175.06h-.93v-1a2.1 2.1 0 0 1-1.95 1.12c-1.38 0-2.44-1.17-2.44-2.9 0-1.9 1.17-3.07 2.56-3.07a1.89 1.89 0 0 1 1.72.88v-3.41zm-1 5a1.65 1.65 0 0 0-.05-.44A1.52 1.52 0 0 0 389 170c-1.07 0-1.71.94-1.71 2.2s.57 2.11 1.69 2.11a1.56 1.56 0 0 0 1.52-1.23 1.68 1.68 0 0 0 .05-.45zM340.75 190.07c0-.39.05-1 .05-1.48v-6.9h1v3.59a2.13 2.13 0 0 1 1.95-1.05c1.41 0 2.42 1.18 2.4 2.91 0 2-1.28 3.06-2.55 3.06a2 2 0 0 1-1.92-1.08l-.05.95zm1.08-2.29a1.61 1.61 0 0 0 1.6 1.59c1.09 0 1.74-.88 1.74-2.19 0-1.15-.59-2.13-1.7-2.13a1.66 1.66 0 0 0-1.58 1.28 1.7 1.7 0 0 0-.06.42zM348.67 182.75a.65.65 0 0 1-1.29 0 .63.63 0 0 1 .65-.64.61.61 0 0 1 .64.64zm-1.16 7.32v-5.71h1v5.71zM355.19 184.36c0 .41-.05.87-.05 1.57v3.31a3.31 3.31 0 0 1-.81 2.61 3 3 0 0 1-2.08.68 3.67 3.67 0 0 1-1.9-.47l.26-.79a3.2 3.2 0 0 0 1.68.45c1.06 0 1.84-.56 1.84-2v-.64a2 2 0 0 1-1.81.95 2.55 2.55 0 0 1-2.43-2.78 2.74 2.74 0 0 1 2.57-3 1.9 1.9 0 0 1 1.78 1v-.86zm-1.08 2.25a1.7 1.7 0 0 0-.05-.47 1.51 1.51 0 0 0-1.46-1.1c-1 0-1.69.84-1.69 2.16 0 1.12.56 2.05 1.68 2.05a1.51 1.51 0 0 0 1.44-1.06 1.75 1.75 0 0 0 .08-.55zM364.29 181.69v8.38h-.93l-.05-1a2.11 2.11 0 0 1-1.94 1.12c-1.38 0-2.44-1.17-2.44-2.9 0-1.9 1.17-3.07 2.56-3.07a1.91 1.91 0 0 1 1.72.87v-3.41zm-1 5a2.09 2.09 0 0 0 0-.43 1.54 1.54 0 0 0-1.5-1.21c-1.08 0-1.71 1-1.71 2.21s.56 2.11 1.68 2.11a1.57 1.57 0 0 0 1.53-1.24 2.09 2.09 0 0 0 0-.45zM369.17 190.07l-.08-.72a2.12 2.12 0 0 1-1.74.85 1.63 1.63 0 0 1-1.75-1.64c0-1.38 1.23-2.14 3.43-2.13v-.11a1.17 1.17 0 0 0-1.33-1.32 2.85 2.85 0 0 0-1.49.42l-.24-.68a3.55 3.55 0 0 1 1.88-.51c1.74 0 2.17 1.19 2.17 2.33v2.14a8.22 8.22 0 0 0 .09 1.37zm-.15-2.92c-1.14 0-2.42.18-2.42 1.29a.92.92 0 0 0 1 1 1.43 1.43 0 0 0 1.38-1 1.36 1.36 0 0 0 .06-.33zM372.9 182.72v1.64h1.48v.79h-1.48v3.08c0 .71.2 1.11.77 1.11a2.6 2.6 0 0 0 .61-.07v.77a2.37 2.37 0 0 1-.92.15 1.46 1.46 0 0 1-1.12-.44 2.14 2.14 0 0 1-.4-1.49v-3.11H371v-.79h.88V183zM378.71 190.07l-.08-.72a2.12 2.12 0 0 1-1.75.85 1.63 1.63 0 0 1-1.74-1.64c0-1.38 1.23-2.14 3.43-2.13v-.11a1.17 1.17 0 0 0-1.3-1.32 2.81 2.81 0 0 0-1.48.42l-.24-.68a3.52 3.52 0 0 1 1.88-.51c1.74 0 2.17 1.19 2.17 2.33v2.14a8.22 8.22 0 0 0 .09 1.37zm-.15-2.92c-1.14 0-2.42.18-2.42 1.29a.92.92 0 0 0 1 1 1.43 1.43 0 0 0 1.38-1 1.36 1.36 0 0 0 .06-.33zM385 182.72v1.64h1.49v.79H385v3.08c0 .71.2 1.11.78 1.11a2.58 2.58 0 0 0 .6-.07l.05.77a2.37 2.37 0 0 1-.92.15 1.43 1.43 0 0 1-1.12-.44 2.09 2.09 0 0 1-.41-1.49v-3.11h-.88v-.79h.9V183zM388.14 187.4a1.82 1.82 0 0 0 2 2 3.86 3.86 0 0 0 1.58-.29l.17.74a4.48 4.48 0 0 1-1.89.36 2.65 2.65 0 0 1-2.81-2.88c0-1.72 1-3.08 2.68-3.08a2.41 2.41 0 0 1 2.35 2.69 4.45 4.45 0 0 1 0 .48zm3-.74a1.48 1.48 0 0 0-1.44-1.69 1.72 1.72 0 0 0-1.59 1.69zM393.33 189a2.71 2.71 0 0 0 1.37.41c.75 0 1.1-.38 1.1-.85s-.29-.77-1.06-1c-1-.37-1.51-.93-1.51-1.62a1.76 1.76 0 0 1 2-1.67 2.86 2.86 0 0 1 1.41.35l-.26.76a2.27 2.27 0 0 0-1.17-.33c-.61 0-1 .35-1 .78s.35.68 1.09 1c1 .38 1.5.88 1.5 1.73 0 1-.78 1.71-2.14 1.71a3.32 3.32 0 0 1-1.6-.39zM399.39 182.72v1.64h1.48v.79h-1.48v3.08c0 .71.2 1.11.78 1.11a2.58 2.58 0 0 0 .6-.07v.77a2.33 2.33 0 0 1-.92.15 1.46 1.46 0 0 1-1.12-.44 2.14 2.14 0 0 1-.4-1.49v-3.11h-.88v-.79h.88V183zM403.2 182.75a.65.65 0 0 1-1.29 0 .63.63 0 0 1 .65-.64.61.61 0 0 1 .64.64zm-1.2 7.32v-5.71h1v5.71zM404.8 185.9c0-.59 0-1.07-.05-1.54h.92l.06.94a2.12 2.12 0 0 1 1.89-1.07c.79 0 2 .47 2 2.43v3.41h-1v-3.29c0-.92-.34-1.69-1.32-1.69a1.47 1.47 0 0 0-1.39 1.06 1.45 1.45 0 0 0-.07.49v3.43h-1zM416.26 184.36c0 .41-.05.87-.05 1.57v3.31a3.31 3.31 0 0 1-.81 2.61 3 3 0 0 1-2.08.68 3.67 3.67 0 0 1-1.9-.47l.26-.79a3.2 3.2 0 0 0 1.68.45c1.06 0 1.84-.56 1.84-2v-.64a2 2 0 0 1-1.81.95 2.55 2.55 0 0 1-2.43-2.78 2.74 2.74 0 0 1 2.57-3 1.9 1.9 0 0 1 1.78 1l.05-.86zm-1.07 2.25a1.68 1.68 0 0 0-.06-.47 1.5 1.5 0 0 0-1.45-1.1c-1 0-1.7.84-1.7 2.16 0 1.12.56 2.05 1.69 2.05a1.51 1.51 0 0 0 1.43-1.06 1.76 1.76 0 0 0 .09-.55zM342 277.61a12.15 12.15 0 0 1 2-.15 3.26 3.26 0 0 1 2.23.66 2.15 2.15 0 0 1 .69 1.66 2.34 2.34 0 0 1-.61 1.7 3.28 3.28 0 0 1-2.43.87 3.52 3.52 0 0 1-.83-.07v3.19h-1zm1 3.84a4 4 0 0 0 .85.08c1.24 0 2-.6 2-1.7s-.75-1.56-1.88-1.56a4.07 4.07 0 0 0-1 .09zM351 285.47l-.08-.72a2.12 2.12 0 0 1-1.75.85 1.63 1.63 0 0 1-1.74-1.64c0-1.38 1.23-2.14 3.43-2.13v-.11a1.17 1.17 0 0 0-1.3-1.32 2.81 2.81 0 0 0-1.48.42l-.24-.68a3.52 3.52 0 0 1 1.88-.51c1.74 0 2.17 1.19 2.17 2.33v2.14a8.22 8.22 0 0 0 .09 1.37zm-.15-2.92c-1.14 0-2.42.18-2.42 1.29a.92.92 0 0 0 1 1 1.43 1.43 0 0 0 1.38-.95 1.36 1.36 0 0 0 .06-.33zM357.63 285.26a3.83 3.83 0 0 1-1.64.33 2.71 2.71 0 0 1-2.84-2.92 2.89 2.89 0 0 1 3.06-3 3.3 3.3 0 0 1 1.44.3l-.23.8a2.45 2.45 0 0 0-1.21-.27 2.15 2.15 0 0 0 0 4.29 2.91 2.91 0 0 0 1.27-.28zM359.87 282.38c.14-.2.34-.45.51-.65l1.67-2h1.25l-2.2 2.35 2.51 3.36h-1.26l-2-2.74-.53.59v2.15h-1v-8.38h1zM367.75 285.47l-.09-.72a2.12 2.12 0 0 1-1.75.85 1.63 1.63 0 0 1-1.74-1.64c0-1.38 1.22-2.14 3.43-2.13v-.11a1.17 1.17 0 0 0-1.3-1.32 2.81 2.81 0 0 0-1.48.42l-.24-.68a3.51 3.51 0 0 1 1.87-.51c1.75 0 2.17 1.19 2.17 2.33v2.14a8.15 8.15 0 0 0 .1 1.37zm-.16-2.92c-1.13 0-2.42.18-2.42 1.29a.92.92 0 0 0 1 1 1.41 1.41 0 0 0 1.38-.95 1 1 0 0 0 .06-.33zM375.19 279.76c0 .41-.05.87-.05 1.57v3.31a3.31 3.31 0 0 1-.81 2.61 3 3 0 0 1-2.08.68 3.64 3.64 0 0 1-1.9-.47l.26-.79a3.19 3.19 0 0 0 1.67.45c1.07 0 1.84-.56 1.84-2v-.64a2 2 0 0 1-1.82.95 2.55 2.55 0 0 1-2.43-2.78 2.75 2.75 0 0 1 2.58-3 1.9 1.9 0 0 1 1.78 1v-.86zm-1.08 2.24a1.38 1.38 0 0 0-.06-.47 1.49 1.49 0 0 0-1.45-1.1c-1 0-1.7.84-1.7 2.16 0 1.12.57 2 1.69 2a1.51 1.51 0 0 0 1.44-1.06 1.75 1.75 0 0 0 .08-.55zM377.44 282.8a1.82 1.82 0 0 0 1.95 2 3.82 3.82 0 0 0 1.58-.29l.18.74a4.5 4.5 0 0 1-1.9.36 2.65 2.65 0 0 1-2.81-2.88c0-1.72 1-3.08 2.68-3.08a2.42 2.42 0 0 1 2.36 2.69 4.45 4.45 0 0 1 0 .48zm3-.74a1.48 1.48 0 0 0-1.44-1.69 1.72 1.72 0 0 0-1.59 1.69zM343.16 293.12v1.64h1.49v.79h-1.49v3.08c0 .71.2 1.11.78 1.11a2.12 2.12 0 0 0 .6-.07v.78a2.61 2.61 0 0 1-.92.14 1.42 1.42 0 0 1-1.12-.44 2.07 2.07 0 0 1-.4-1.48v-3.12h-.89v-.79h.89v-1.36zM346.32 297.81a1.83 1.83 0 0 0 2 2 3.68 3.68 0 0 0 1.58-.3l.18.75a4.74 4.74 0 0 1-1.9.35 2.65 2.65 0 0 1-2.81-2.88c0-1.72 1-3.08 2.68-3.08a2.42 2.42 0 0 1 2.36 2.69 4.15 4.15 0 0 1 0 .49zm3.05-.75a1.48 1.48 0 0 0-1.44-1.68 1.73 1.73 0 0 0-1.6 1.68zM351.51 299.41a2.74 2.74 0 0 0 1.37.41c.75 0 1.11-.37 1.11-.84s-.3-.77-1.07-1.05c-1-.37-1.51-.94-1.51-1.62a1.77 1.77 0 0 1 2-1.68 2.86 2.86 0 0 1 1.41.36l-.26.75a2.27 2.27 0 0 0-1.17-.33c-.61 0-.95.36-.95.78s.34.69 1.08 1c1 .38 1.5.87 1.5 1.72s-.78 1.71-2.14 1.71a3.21 3.21 0 0 1-1.6-.39zM357.57 293.12v1.64h1.49v.79h-1.49v3.08c0 .71.2 1.11.78 1.11a2.12 2.12 0 0 0 .6-.07l.05.78a2.61 2.61 0 0 1-.92.14 1.4 1.4 0 0 1-1.12-.44 2.07 2.07 0 0 1-.41-1.48v-3.12h-.88v-.79h.88v-1.36zM361.38 293.16a.65.65 0 0 1-1.29 0 .63.63 0 0 1 .65-.65.62.62 0 0 1 .64.65zm-1.16 7.31v-5.71h1v5.71zM363 296.31c0-.59 0-1.07-.05-1.55h.92l.06.95a2.1 2.1 0 0 1 1.88-1.08c.79 0 2 .48 2 2.43v3.41h-1v-3.29c0-.92-.34-1.68-1.32-1.68a1.48 1.48 0 0 0-1.39 1.06 1.39 1.39 0 0 0-.07.48v3.43h-1zM374.44 294.76v4.89a3.24 3.24 0 0 1-.82 2.6 3 3 0 0 1-2.07.69 3.74 3.74 0 0 1-1.9-.47l.26-.79a3.23 3.23 0 0 0 1.67.44c1.06 0 1.84-.55 1.84-2v-.64a2 2 0 0 1-1.82 1 2.55 2.55 0 0 1-2.43-2.78 2.74 2.74 0 0 1 2.57-3 1.88 1.88 0 0 1 1.78 1v-.87zm-1.07 2.24a1.38 1.38 0 0 0-.06-.47 1.49 1.49 0 0 0-1.45-1.1c-1 0-1.7.84-1.7 2.16 0 1.12.57 2.05 1.69 2.05a1.53 1.53 0 0 0 1.44-1.06 1.81 1.81 0 0 0 .08-.56zM324.53 353.56c-.06-1.11-.13-2.44-.12-3.43-.27.93-.6 1.92-1 3L322 357h-.78l-1.29-3.78c-.38-1.12-.69-2.15-.92-3.09 0 1-.08 2.32-.16 3.51l-.21 3.41h-1l.56-7.95h1.31l1.35 3.85c.33 1 .61 1.85.81 2.67.2-.8.49-1.67.84-2.67l1.41-3.85h1.31l.5 7.95h-1zM330.5 357.05l-.08-.72a2.1 2.1 0 0 1-1.74.85 1.63 1.63 0 0 1-1.75-1.64c0-1.38 1.23-2.13 3.43-2.12v-.12A1.17 1.17 0 0 0 329 352a2.85 2.85 0 0 0-1.49.42l-.24-.68a3.55 3.55 0 0 1 1.88-.51c1.75 0 2.17 1.19 2.17 2.34v2.13a7.16 7.16 0 0 0 .1 1.37zm-.15-2.91c-1.13 0-2.42.17-2.42 1.28a.92.92 0 0 0 1 1 1.43 1.43 0 0 0 1.38-1 1.36 1.36 0 0 0 .06-.33zM333 352.89v-1.55h.92l.06.94a2.1 2.1 0 0 1 1.89-1.07c.79 0 2 .47 2 2.43v3.41h-1v-3.29c0-.92-.34-1.69-1.32-1.69a1.49 1.49 0 0 0-1.39 1.06 1.45 1.45 0 0 0-.07.49v3.43h-1zM342.73 357.05l-.08-.72a2.12 2.12 0 0 1-1.75.85 1.62 1.62 0 0 1-1.74-1.64c0-1.38 1.23-2.13 3.43-2.12v-.12a1.18 1.18 0 0 0-1.3-1.32 2.81 2.81 0 0 0-1.48.42l-.24-.68a3.52 3.52 0 0 1 1.88-.51c1.74 0 2.17 1.19 2.17 2.34v2.13a8.14 8.14 0 0 0 .09 1.37zm-.15-2.91c-1.14 0-2.42.17-2.42 1.28a.92.92 0 0 0 1 1 1.43 1.43 0 0 0 1.38-1 1.36 1.36 0 0 0 .06-.33zM350.17 351.34c0 .41-.05.87-.05 1.57v3.32a3.29 3.29 0 0 1-.81 2.6 3 3 0 0 1-2.08.69 3.67 3.67 0 0 1-1.9-.48l.26-.79a3.2 3.2 0 0 0 1.68.45c1.06 0 1.84-.55 1.84-2v-.64a2 2 0 0 1-1.81 1 2.56 2.56 0 0 1-2.43-2.79 2.74 2.74 0 0 1 2.57-3 1.9 1.9 0 0 1 1.78 1l.05-.86zm-1.08 2.25a1.74 1.74 0 0 0 0-.47 1.5 1.5 0 0 0-1.46-1.09c-1 0-1.69.83-1.69 2.15 0 1.12.56 2.06 1.68 2.06a1.51 1.51 0 0 0 1.44-1.06 1.81 1.81 0 0 0 .08-.56zM352.42 354.38a1.83 1.83 0 0 0 2 2 3.68 3.68 0 0 0 1.58-.3l.17.74a4.48 4.48 0 0 1-1.89.36 2.65 2.65 0 0 1-2.81-2.88c0-1.72 1-3.08 2.68-3.08a2.41 2.41 0 0 1 2.35 2.69 4.45 4.45 0 0 1 0 .48zm3-.74A1.48 1.48 0 0 0 354 352a1.72 1.72 0 0 0-1.59 1.69zM362.68 348.68V357.05h-.93v-1a2.1 2.1 0 0 1-1.94 1.12 2.61 2.61 0 0 1-2.45-2.9c0-1.9 1.17-3.07 2.56-3.07a1.91 1.91 0 0 1 1.73.87v-3.4zm-1 5a1.65 1.65 0 0 0-.05-.44 1.52 1.52 0 0 0-1.5-1.2c-1.07 0-1.71.94-1.71 2.2s.57 2.11 1.69 2.11a1.65 1.65 0 0 0 1.57-1.68zM317.65 371a2.74 2.74 0 0 0 1.37.42c.75 0 1.11-.38 1.11-.85s-.3-.77-1.07-1.05c-1-.37-1.51-.93-1.51-1.62a1.76 1.76 0 0 1 2-1.67 2.86 2.86 0 0 1 1.41.35l-.26.76a2.27 2.27 0 0 0-1.17-.33c-.61 0-.95.35-.95.78s.34.68 1.08 1c1 .38 1.5.87 1.5 1.72 0 1-.78 1.71-2.14 1.71a3.21 3.21 0 0 1-1.6-.39zM323 369.39a1.83 1.83 0 0 0 2 2 3.86 3.86 0 0 0 1.58-.29l.17.74a4.53 4.53 0 0 1-1.9.35 2.64 2.64 0 0 1-2.8-2.87c0-1.73 1-3.08 2.67-3.08a2.42 2.42 0 0 1 2.36 2.69 4.64 4.64 0 0 1 0 .48zm3-.74a1.48 1.48 0 0 0-1.44-1.69 1.72 1.72 0 0 0-1.59 1.69zM328.37 368.13c0-.67 0-1.25-.05-1.78h.91v1.12h.05a1.7 1.7 0 0 1 1.58-1.25 1.23 1.23 0 0 1 .29 0v1a1.75 1.75 0 0 0-.35 0 1.45 1.45 0 0 0-1.39 1.33 3.37 3.37 0 0 0-.05.48v3.05h-1zM332.92 366.35l1.12 3.21a14.27 14.27 0 0 1 .46 1.46c.13-.47.3-.95.49-1.46l1.11-3.21h1.08l-2.18 5.71h-1l-2.17-5.71zM339.34 364.74a.61.61 0 0 1-.66.64.62.62 0 0 1-.62-.64.64.64 0 0 1 .65-.65.61.61 0 0 1 .63.65zm-1.15 7.32v-5.71h1v5.71zM345 371.84a3.76 3.76 0 0 1-1.64.33 2.71 2.71 0 0 1-2.85-2.91 2.9 2.9 0 0 1 3.07-3 3.51 3.51 0 0 1 1.44.29l-.24.81a2.38 2.38 0 0 0-1.2-.27 2.15 2.15 0 0 0 0 4.29 3.16 3.16 0 0 0 1.28-.28zM346.74 369.39a1.83 1.83 0 0 0 1.95 2 3.82 3.82 0 0 0 1.58-.29l.18.74a4.53 4.53 0 0 1-1.9.35 2.64 2.64 0 0 1-2.8-2.87c0-1.73 1-3.08 2.67-3.08a2.42 2.42 0 0 1 2.36 2.69 4.64 4.64 0 0 1 0 .48zm3-.74a1.48 1.48 0 0 0-1.44-1.69 1.72 1.72 0 0 0-1.59 1.69zM351.92 371a2.74 2.74 0 0 0 1.37.42c.76 0 1.11-.38 1.11-.85s-.3-.77-1.06-1.05c-1-.37-1.51-.93-1.51-1.62a1.76 1.76 0 0 1 2-1.67 2.82 2.82 0 0 1 1.4.35l-.26.76a2.21 2.21 0 0 0-1.17-.33c-.61 0-.95.35-.95.78s.34.68 1.08 1c1 .38 1.5.87 1.5 1.72 0 1-.78 1.71-2.13 1.71a3.22 3.22 0 0 1-1.61-.39zM295.16 428.82c-1.08-.29-2.12-.6-3-.92a1.53 1.53 0 0 0-.49-.12c-1.88-.07-3.5-1.46-3.5-4s1.56-4.19 3.7-4.19 3.56 1.67 3.56 4c0 2-.94 3.35-2.26 3.81v.05c.79.2 1.65.39 2.32.51zm-.85-5.18c0-1.59-.83-3.23-2.51-3.23s-2.59 1.6-2.57 3.32.92 3.21 2.52 3.21 2.56-1.49 2.56-3.3zM301.5 426.09c0 .59 0 1.11.05 1.56h-.92l-.06-.93a2.14 2.14 0 0 1-1.88 1.06c-.9 0-2-.5-2-2.5v-3.34h1v3.16c0 1.09.33 1.82 1.27 1.82a1.51 1.51 0 0 0 1.37-.95 1.47 1.47 0 0 0 .09-.53v-3.5h1zM306.38 427.65l-.08-.72a2.1 2.1 0 0 1-1.74.85 1.63 1.63 0 0 1-1.75-1.64c0-1.38 1.23-2.14 3.43-2.12v-.12a1.17 1.17 0 0 0-1.29-1.32 2.85 2.85 0 0 0-1.49.42l-.24-.68a3.55 3.55 0 0 1 1.88-.51c1.75 0 2.17 1.19 2.17 2.34v2.13a7.16 7.16 0 0 0 .1 1.37zm-.15-2.91c-1.13 0-2.42.17-2.42 1.28a.92.92 0 0 0 1 1 1.43 1.43 0 0 0 1.38-.95 1.36 1.36 0 0 0 .06-.33zM308.9 419.28h1v8.37h-1zM312.84 420.34a.64.64 0 0 1-1.28 0 .63.63 0 0 1 .64-.65.62.62 0 0 1 .64.65zm-1.15 7.31v-5.71h1v5.71zM315.69 420.3v1.64h1.49v.79h-1.49v3.08c0 .71.2 1.11.78 1.11a2.58 2.58 0 0 0 .6-.07l.05.78a2.61 2.61 0 0 1-.92.14 1.46 1.46 0 0 1-1.12-.44 2.14 2.14 0 0 1-.4-1.49v-3.11h-.89v-.79h.89v-1.37zM318.83 421.94l1.25 3.37c.13.38.27.83.37 1.17.11-.34.22-.78.36-1.19l1.14-3.35h1.09l-1.53 4.06c-.75 2-1.25 3-2 3.57a2.86 2.86 0 0 1-1.27.68l-.26-.88a2.57 2.57 0 0 0 .9-.5 3.2 3.2 0 0 0 .88-1.16 1 1 0 0 0 .08-.25.81.81 0 0 0-.07-.27l-2.11-5.26zM289.14 440a1.83 1.83 0 0 0 2 2 3.86 3.86 0 0 0 1.58-.29l.18.74a4.74 4.74 0 0 1-1.9.35 2.65 2.65 0 0 1-2.81-2.87c0-1.73 1-3.08 2.68-3.08a2.42 2.42 0 0 1 2.36 2.69 2.68 2.68 0 0 1 0 .48zm3.05-.74a1.48 1.48 0 0 0-1.44-1.69 1.72 1.72 0 0 0-1.59 1.69zM294.47 438.49c0-.59 0-1.07-.05-1.54h.92l.06.94a2.1 2.1 0 0 1 1.89-1.07c.79 0 2 .47 2 2.43v3.4h-1v-3.29c0-.92-.34-1.68-1.32-1.68a1.48 1.48 0 0 0-1.39 1.06 1.43 1.43 0 0 0-.07.48v3.43h-1zM305.93 437v4.88a3.28 3.28 0 0 1-.82 2.61 3 3 0 0 1-2.07.68 3.74 3.74 0 0 1-1.9-.47l.26-.79a3.23 3.23 0 0 0 1.67.45c1.06 0 1.84-.56 1.84-2v-.63a2 2 0 0 1-1.82.95 2.55 2.55 0 0 1-2.43-2.78 2.73 2.73 0 0 1 2.57-3 1.91 1.91 0 0 1 1.79 1v-.86zm-1.07 2.25a1.38 1.38 0 0 0-.06-.47 1.5 1.5 0 0 0-1.45-1.1c-1 0-1.7.84-1.7 2.16 0 1.12.57 2 1.69 2a1.52 1.52 0 0 0 1.44-1.06 1.79 1.79 0 0 0 .08-.55zM308.69 435.34a.64.64 0 1 1-1.28 0 .63.63 0 0 1 .64-.65.62.62 0 0 1 .64.65zm-1.15 7.31V437h1v5.7zM310.29 438.49v-1.54h.92l.06.94a2.1 2.1 0 0 1 1.89-1.07c.79 0 2 .47 2 2.43v3.4h-1v-3.29c0-.92-.35-1.68-1.33-1.68a1.48 1.48 0 0 0-1.39 1.06 1.73 1.73 0 0 0-.07.48v3.43h-1zM317.42 440a1.83 1.83 0 0 0 1.95 2 3.82 3.82 0 0 0 1.58-.29l.18.74a4.7 4.7 0 0 1-1.9.35 2.65 2.65 0 0 1-2.81-2.87c0-1.73 1-3.08 2.68-3.08a2.42 2.42 0 0 1 2.36 2.69 4.64 4.64 0 0 1 0 .48zm3-.74a1.48 1.48 0 0 0-1.44-1.69 1.72 1.72 0 0 0-1.59 1.69zM323.32 440a1.83 1.83 0 0 0 2 2 3.86 3.86 0 0 0 1.58-.29l.18.74a4.74 4.74 0 0 1-1.9.35 2.65 2.65 0 0 1-2.81-2.87c0-1.73 1-3.08 2.68-3.08a2.42 2.42 0 0 1 2.36 2.69 4.14 4.14 0 0 1 0 .48zm3.05-.74a1.49 1.49 0 0 0-1.44-1.69 1.74 1.74 0 0 0-1.6 1.69zM328.65 438.73v-1.78h.91v1.12a1.71 1.71 0 0 1 1.58-1.25 1.32 1.32 0 0 1 .3 0v1a1.83 1.83 0 0 0-.35 0 1.46 1.46 0 0 0-1.4 1.33 3.45 3.45 0 0 0 0 .48v3h-1zM333.71 435.34a.65.65 0 0 1-1.29 0 .64.64 0 0 1 .65-.65.62.62 0 0 1 .64.65zm-1.16 7.31V437h1v5.7zM335.31 438.49c0-.59 0-1.07-.05-1.54h.92l.06.94a2.1 2.1 0 0 1 1.89-1.07c.79 0 2 .47 2 2.43v3.4h-1v-3.29c0-.92-.34-1.68-1.32-1.68a1.48 1.48 0 0 0-1.39 1.06 1.43 1.43 0 0 0-.07.48v3.43h-1zM346.77 437v4.88a3.28 3.28 0 0 1-.82 2.61 3 3 0 0 1-2.07.68 3.74 3.74 0 0 1-1.9-.47l.26-.79a3.29 3.29 0 0 0 1.67.45c1.06 0 1.84-.56 1.84-2v-.63a2 2 0 0 1-1.82.95 2.55 2.55 0 0 1-2.43-2.78 2.74 2.74 0 0 1 2.57-3 1.91 1.91 0 0 1 1.79 1l.05-.86zm-1.07 2.25a1.38 1.38 0 0 0-.06-.47 1.5 1.5 0 0 0-1.45-1.1c-1 0-1.7.84-1.7 2.16 0 1.12.57 2 1.69 2a1.52 1.52 0 0 0 1.44-1.06 1.79 1.79 0 0 0 .08-.55zM288.42 456.6a2.74 2.74 0 0 0 1.37.41c.76 0 1.11-.38 1.11-.85s-.29-.76-1.06-1.05c-1-.36-1.51-.93-1.51-1.61a1.76 1.76 0 0 1 2-1.68 2.82 2.82 0 0 1 1.4.36l-.26.75a2.19 2.19 0 0 0-1.16-.33c-.62 0-1 .35-1 .78s.34.68 1.09 1c1 .37 1.49.87 1.49 1.72 0 1-.77 1.71-2.13 1.71a3.25 3.25 0 0 1-1.61-.39zM293.81 455a1.84 1.84 0 0 0 2 2 3.68 3.68 0 0 0 1.58-.3l.18.74a4.54 4.54 0 0 1-1.9.36 2.65 2.65 0 0 1-2.81-2.88c0-1.72 1-3.08 2.68-3.08a2.42 2.42 0 0 1 2.36 2.69 3.94 3.94 0 0 1 0 .48zm3.05-.74a1.48 1.48 0 0 0-1.44-1.68 1.73 1.73 0 0 0-1.6 1.68zM299.14 453.73c0-.67 0-1.25-.05-1.78h.91v1.12a1.73 1.73 0 0 1 1.58-1.25.91.91 0 0 1 .3 0v1a1.25 1.25 0 0 0-.35 0 1.47 1.47 0 0 0-1.4 1.33 3.6 3.6 0 0 0 0 .49v3h-1zM303.69 452l1.12 3.21a15.09 15.09 0 0 1 .46 1.46c.13-.47.29-.94.48-1.46l1.15-3.21h1.1l-2.25 5.71h-1l-2.17-5.71zM310.12 450.35a.65.65 0 0 1-1.29 0 .63.63 0 0 1 .65-.65.62.62 0 0 1 .64.65zm-1.12 7.31V452h1v5.71zM315.79 457.45a3.83 3.83 0 0 1-1.64.33 2.71 2.71 0 0 1-2.84-2.92 2.9 2.9 0 0 1 3.06-3 3.45 3.45 0 0 1 1.44.3l-.23.8a2.45 2.45 0 0 0-1.21-.27 2 2 0 0 0-2 2.16 2 2 0 0 0 2 2.13 2.91 2.91 0 0 0 1.27-.28zM317.51 455a1.83 1.83 0 0 0 2 2 3.68 3.68 0 0 0 1.58-.3l.17.74a4.48 4.48 0 0 1-1.89.36 2.65 2.65 0 0 1-2.81-2.88c0-1.72 1-3.08 2.68-3.08a2.41 2.41 0 0 1 2.35 2.69 4.45 4.45 0 0 1 0 .48zm3-.74a1.47 1.47 0 0 0-1.44-1.68 1.71 1.71 0 0 0-1.59 1.68zM322.7 456.6a2.71 2.71 0 0 0 1.37.41c.75 0 1.1-.38 1.1-.85s-.29-.76-1.06-1.05c-1-.36-1.51-.93-1.51-1.61a1.77 1.77 0 0 1 2-1.68 2.86 2.86 0 0 1 1.41.36l-.26.75a2.27 2.27 0 0 0-1.17-.33c-.61 0-1 .35-1 .78s.35.68 1.09 1c1 .37 1.5.87 1.5 1.72 0 1-.78 1.71-2.14 1.71a3.21 3.21 0 0 1-1.6-.39z"/><path class="cls-1" d="M35.14 180.34v19.01H2.81v-10.78h11.4"/><path class="cls-2" d="M31.94 181.28l3.2-5.56 3.21 5.56h-6.41z"/><path class="cls-1" d="M2.81 199.35h32.34v10.78H2.81zM2.81 210.13h32.34v10.78H2.81zM16.27 193.82h14.3M16.27 204.74h14.3M16.27 215.65h14.3"/><path class="cls-5" d="M39 188.05h10a4.36 4.36 0 0 0 4.33-3.38 4.26 4.26 0 0 0-4.17-5.13h-.18a9.53 9.53 0 0 0-1.75-7.54 10.52 10.52 0 0 0-8-4.7 10.35 10.35 0 0 0-8 3.28 6.15 6.15 0 0 0-4.69-.31 6.29 6.29 0 0 0-3.3 9.44c-1.19-.3-2.51-.25-4.24 1.56a3.5 3.5 0 0 0-1 1.73 4.26 4.26 0 0 0 4.18 5.05h8.5"/><path class="cls-1" d="M11.37 193.82H7.43M11.37 204.74H7.43M11.37 215.65H7.43M54.03 363.64v11.13M44.39 374.77h19.28M80.02 328.03v35.61H28.04v-39.82h38.64"/><path class="cls-2" d="M76.81 328.96l3.21-5.55 3.21 5.55h-6.42z"/><circle class="cls-1" cx="69.82" cy="323.82" r="2.41"/><path class="cls-1" d="M70.72 355.19h9.3M28.37 355.19h19.37"/><circle class="cls-1" cx="59.11" cy="347.83" r="5.12"/><path class="cls-1" d="M69.83 349.21a10.43 10.43 0 0 0 .09-1.38 10.7 10.7 0 0 0-.09-1.39l-2.42-1.14a8.43 8.43 0 0 0-.64-1.55l.9-2.52a11.36 11.36 0 0 0-2-2l-2.52.9a8.43 8.43 0 0 0-1.55-.64l-1.14-2.42a12.64 12.64 0 0 0-1.39-.09 12.46 12.46 0 0 0-1.38.09l-1.14 2.42a8.15 8.15 0 0 0-1.55.64l-2.52-.9a11 11 0 0 0-2 2l.9 2.52a8.43 8.43 0 0 0-.64 1.55l-2.42 1.14a10.7 10.7 0 0 0-.09 1.39 10.43 10.43 0 0 0 .09 1.38l2.42 1.15a8.43 8.43 0 0 0 .64 1.55l-.9 2.51a10.39 10.39 0 0 0 2 2l2.52-.9a8.18 8.18 0 0 0 1.55.65l1.14 2.41a10.43 10.43 0 0 0 1.38.09 10.58 10.58 0 0 0 1.39-.09l1.14-2.41a8.46 8.46 0 0 0 1.55-.65l2.52.9a10.7 10.7 0 0 0 2-2l-.9-2.51a8.43 8.43 0 0 0 .64-1.55zM34.77 331.48h14.14"/><path class="cls-3" d="M461.57 109.45v36.41h-51.6v-40.11h40.62"/><path class="cls-4" d="M458.36 110.39l3.21-5.55 3.2 5.55h-6.41z"/><circle class="cls-3" cx="453.44" cy="105.76" r="2.41"/><path class="cls-3" d="M419.27 115.28h15.04M418.87 133.33l4.01 3.67 10.33-9.83 7.05 3.05 12.55-10.66"/><path class="cls-4" d="M454.17 122.62l2.16-6.04-6.31 1.15 4.15 4.89z"/><circle class="cls-3" cx="427.26" cy="327.33" r="4.91"/><path class="cls-3" d="M436 342.07v-2.26a4.72 4.72 0 0 0-4.66-5h-7.74a5 5 0 0 0-5 5v2.26z"/><circle class="cls-3" cx="408.38" cy="358.25" r="4.91"/><path class="cls-3" d="M399.68 373v-2.27a5 5 0 0 1 5-5h7.75a4.71 4.71 0 0 1 4.66 5V373z"/><circle class="cls-3" cx="445.51" cy="358.25" r="4.91"/><path class="cls-3" d="M454.21 373v-2.27a4.71 4.71 0 0 0-4.66-5h-7.74a5 5 0 0 0-5 5V373zM438.24 356.53l-5.45-8.02"/><path class="cls-4" d="M435.97 347.49l-5.77-2.79.47 6.39 5.3-3.6z"/><path class="cls-3" d="M420.9 369.85h7.74"/><path class="cls-4" d="M427.7 373.06l5.55-3.21-5.55-3.2v6.41z"/><path class="cls-3" d="M423.81 345.54l-5.45 8.01"/><path class="cls-4" d="M416.24 350.98l-.47 6.39 5.77-2.79-5.3-3.6z"/><path class="cls-1" d="M80.01 139.44l-6.14 3.77H47.05l-6.14-3.77v-32.07l6.14-3.76h26.82l6.14 3.76v32.07zM54.98 155.99h-4.44l-3.49-12.78h26.82l-3.49 12.78h-3.82"/><path class="cls-2" d="M54.04 152.78l5.56 3.21-5.56 3.2v-6.41zM67.49 152.78l-5.55 3.21 5.55 3.2v-6.41z"/><path class="cls-5" d="M54.75 92.41h-4.21l-3.49 11.2h26.82l-3.49-11.2h-3.34"/><path class="cls-2" d="M53.81 89.2l5.56 3.21-5.56 3.21V89.2zM67.98 89.2l-5.56 3.21 5.56 3.21V89.2z"/><path class="cls-1" d="M56.22 125.61a7 7 0 0 1 9.83 0M52.36 121.75a12.42 12.42 0 0 1 17.56 0M48.42 117.81a18 18 0 0 1 25.43 0"/><circle class="cls-1" cx="61.14" cy="131.04" r="2.41"/><path class="cls-3" d="M466.12 292.47h-18.39v-48.59h50.46v20.61"/><path class="cls-4" d="M494.98 263.56l3.21 5.55 3.21-5.55h-6.42z"/><path class="cls-3" d="M467.17 243.88h11.57v11.57h-11.57zM477.68 273.83h20.51v20.51h-20.51z"/><path class="cls-3" d="M482.55 283.29l4.09 4.09 6.88-6.88"/><circle class="cls-3" cx="469.33" cy="292.42" r="2.41"/><path class="cls-3" d="M453.6 195.27h11.41v17.29H453.6z"/><path class="cls-3" d="M465 176.81h11.41v35.76H465z"/><path class="cls-3" d="M487.82 179.73v32.83h-11.41V168.1h11.41v6.62M449.42 212.56h42.61"/><circle class="cls-3" cx="487.82" cy="177.14" r="2.41"/><path class="cls-3" d="M468.68 168.19H450.6v19.86"/><path class="cls-4" d="M447.39 187.12l3.21 5.55 3.2-5.55h-6.41z"/><path class="cls-3" d="M474.14 220.07h22.15v-19.24"/><path class="cls-4" d="M499.5 201.77l-3.21-5.55-3.2 5.55h6.41z"/><path class="cls-3" d="M260.78 444a12.66 12.66 0 1 1-12.35-15.46 12.38 12.38 0 0 1 3.83.59"/><path class="cls-4" d="M249.93 431.7l6.4-.4-3.54-5.34-2.86 5.74z"/><path class="cls-3" d="M274.93 444.62a27.54 27.54 0 0 0 .22-3.42 27.83 27.83 0 0 0-.22-3.43l-6-2.83a21.74 21.74 0 0 0-1.58-3.83l2.22-6.22a26.51 26.51 0 0 0-4.85-4.85l-6.22 2.23a20.47 20.47 0 0 0-3.83-1.59l-2.83-6a25.62 25.62 0 0 0-6.85 0l-2.83 6a20.47 20.47 0 0 0-3.83 1.59l-6.21-2.27a26.77 26.77 0 0 0-4.84 4.85l2.22 6.22a22.56 22.56 0 0 0-1.59 3.83l-6 2.83a27.83 27.83 0 0 0-.22 3.43 27.54 27.54 0 0 0 .22 3.42l6 2.83a21.91 21.91 0 0 0 1.59 3.83l-2.22 6.23a27 27 0 0 0 4.84 4.84l6.23-2.22a21.16 21.16 0 0 0 3.83 1.59l2.83 6a25.62 25.62 0 0 0 6.85 0l2.83-6a21.16 21.16 0 0 0 3.83-1.59l6.22 2.22a26.77 26.77 0 0 0 4.85-4.84l-2.22-6.23a21.13 21.13 0 0 0 1.58-3.83z"/><path class="cls-3" d="M243.08 439.69l5.27 5.28 10.56-10.55"/><circle class="cls-3" cx="260.9" cy="441.41" r="2.41"/><path class="cls-1" d="M25.76 285.48h-6.24a13.37 13.37 0 1 1 13.36-13.37v1.23"/><path class="cls-2" d="M29.68 272.4l3.2 5.56 3.21-5.56h-6.41z"/><path class="cls-1" d="M43.24 285.48H30.81"/><path class="cls-2" d="M42.31 282.27l5.55 3.21-5.55 3.2v-6.41z"/><path class="cls-1" d="M25.32 255.48a8.68 8.68 0 0 1 17.36 0v.86"/><path class="cls-2" d="M39.47 255.4l3.21 5.55 3.2-5.55h-6.41z"/><path class="cls-1" d="M6.42 292.71h18.37l2.52-4.24"/><path class="cls-2" d="M7.36 295.92l-5.55-3.21 5.55-3.2v6.41z"/><circle class="cls-1" cx="28.13" cy="286.2" r="2.41"/></svg>