<svg id="Layer_3" data-name="Layer 3" xmlns="http://www.w3.org/2000/svg" width="100" height="116" viewBox="0 0 100 116"><defs><style>.cls-1,.cls-2{fill:none;stroke:#000;stroke-miterlimit:10;stroke-width:3px;}.cls-2{stroke-linecap:square;}</style></defs><title>Apps</title><line id="_Path_" data-name="&lt;Path&gt;" class="cls-1" x1="65.5" y1="68.67" x2="65.5" y2="91.76"/><g id="_Group_" data-name="&lt;Group&gt;"><line id="_Path_2" data-name="&lt;Path&gt;" class="cls-1" x1="33.59" y1="36.59" x2="35.63" y2="36.59"/><line id="_Path_3" data-name="&lt;Path&gt;" class="cls-1" x1="38.12" y1="36.59" x2="40.17" y2="36.59"/><line id="_Path_4" data-name="&lt;Path&gt;" class="cls-1" x1="42.65" y1="36.59" x2="44.7" y2="36.59"/><polyline id="_Path_5" data-name="&lt;Path&gt;" class="cls-2" points="82.53 67.64 29.46 67.64 29.46 32.19 82.53 32.19 82.53 67.1"/><line id="_Path_6" data-name="&lt;Path&gt;" class="cls-2" x1="82.53" y1="40.63" x2="29.46" y2="40.63"/><line id="_Path_7" data-name="&lt;Path&gt;" class="cls-2" x1="67.17" y1="36.59" x2="76.99" y2="36.59"/></g><g id="_Group_2" data-name="&lt;Group&gt;"><g id="_Group_3" data-name="&lt;Group&gt;"><polyline class="cls-1" points="65.5 90.29 17.47 90.29 17.47 21.24 60.88 21.24"/><polygon points="59.13 27.22 69.5 21.24 59.13 15.26 59.13 27.22"/></g><line id="_Path_8" data-name="&lt;Path&gt;" class="cls-1" x1="17.47" y1="76.84" x2="35.71" y2="76.84"/><line id="_Path_9" data-name="&lt;Path&gt;" class="cls-1" x1="48.21" y1="76.84" x2="66.44" y2="76.84"/></g></svg>