<?xml version="1.0" encoding="utf-8"?>
<!-- Generator: Adobe Illustrator 22.0.1, SVG Export Plug-In . SVG Version: 6.00 Build 0)  -->
<svg version="1.1" xmlns="http://www.w3.org/2000/svg" xmlns:xlink="http://www.w3.org/1999/xlink" x="0px" y="0px" width="100px"
	 height="116px" viewBox="0 0 100 116" style="enable-background:new 0 0 100 116;" xml:space="preserve">
<style type="text/css">
	.st0{display:none;}
	.st1{display:inline;}
	.st2{fill:none;stroke:#000000;stroke-width:0.1397;stroke-miterlimit:10;}
	.st3{display:inline;fill:none;}
	.st4{fill:none;stroke:#061838;stroke-width:0.5887;stroke-miterlimit:10;}
	.st5{fill:none;stroke:#FFFFFF;stroke-width:1.4995;stroke-miterlimit:22.9256;}
	.st6{fill:none;stroke:#00321D;stroke-width:3;stroke-miterlimit:10;}
	.st7{fill:none;stroke:#00321D;stroke-width:3;stroke-linecap:square;stroke-miterlimit:10;}
	.st8{fill:#00321D;}
	.st9{fill:none;stroke:#00321D;stroke-width:3;stroke-linejoin:bevel;stroke-miterlimit:10;}
	.st10{fill:none;stroke:#020202;stroke-width:3;stroke-miterlimit:10;}
	.st11{fill:none;stroke:#00321D;stroke-width:3;stroke-miterlimit:22.9256;}
	.st12{fill:none;stroke:#00321D;stroke-width:3;stroke-linejoin:bevel;}
	.st13{fill:none;stroke:#000000;stroke-width:3;stroke-miterlimit:10;}
	.st14{fill:none;stroke:#231F20;stroke-width:3;stroke-miterlimit:10;}
	.st15{fill:none;stroke:#231F20;stroke-width:3;stroke-linejoin:bevel;stroke-miterlimit:10;}
	.st16{fill:none;stroke:#231F20;stroke-width:3;stroke-linejoin:bevel;}
	.st17{fill:#231F20;}
	.st18{fill:none;stroke:#231F20;stroke-width:3;stroke-linecap:square;stroke-miterlimit:10;}
</style>
<g id="Layer_3">
</g>
<g id="Layer_4" class="st0">
	<g class="st1">
		<rect y="-0.3" class="st2" width="16.7" height="16.7"/>
		<rect x="16.7" y="-0.3" class="st2" width="16.7" height="16.7"/>
		<rect x="33.3" y="-0.3" class="st2" width="16.7" height="16.7"/>
		<rect x="50" y="-0.3" class="st2" width="16.7" height="16.7"/>
		<rect x="66.7" y="-0.3" class="st2" width="16.7" height="16.7"/>
		<rect x="83.3" y="-0.3" class="st2" width="16.7" height="16.7"/>
		<rect y="16.3" class="st2" width="16.7" height="16.7"/>
		<rect x="16.7" y="16.3" class="st2" width="16.7" height="16.7"/>
		<rect x="33.3" y="16.3" class="st2" width="16.7" height="16.7"/>
		<rect x="50" y="16.3" class="st2" width="16.7" height="16.7"/>
		<rect x="66.7" y="16.3" class="st2" width="16.7" height="16.7"/>
		<rect x="83.3" y="16.3" class="st2" width="16.7" height="16.7"/>
		<rect y="33" class="st2" width="16.7" height="16.7"/>
		<rect x="16.7" y="33" class="st2" width="16.7" height="16.7"/>
		<rect x="33.3" y="33" class="st2" width="16.7" height="16.7"/>
		<rect x="50" y="33" class="st2" width="16.7" height="16.7"/>
		<rect x="66.7" y="33" class="st2" width="16.7" height="16.7"/>
		<rect x="83.3" y="33" class="st2" width="16.7" height="16.7"/>
		<rect y="49.7" class="st2" width="16.7" height="16.7"/>
		<rect x="16.7" y="49.7" class="st2" width="16.7" height="16.7"/>
		<rect x="33.3" y="49.7" class="st2" width="16.7" height="16.7"/>
		<rect x="50" y="49.7" class="st2" width="16.7" height="16.7"/>
		<rect x="66.7" y="49.7" class="st2" width="16.7" height="16.7"/>
		<rect x="83.3" y="49.7" class="st2" width="16.7" height="16.7"/>
		<rect y="66.3" class="st2" width="16.7" height="16.7"/>
		<rect x="16.7" y="66.3" class="st2" width="16.7" height="16.7"/>
		<rect x="33.3" y="66.3" class="st2" width="16.7" height="16.7"/>
		<rect x="50" y="66.3" class="st2" width="16.7" height="16.7"/>
		<rect x="66.7" y="66.3" class="st2" width="16.7" height="16.7"/>
		<rect x="83.3" y="66.3" class="st2" width="16.7" height="16.7"/>
		<rect y="83" class="st2" width="16.7" height="16.7"/>
		<rect x="16.7" y="83" class="st2" width="16.7" height="16.7"/>
		<rect x="33.3" y="83" class="st2" width="16.7" height="16.7"/>
		<rect x="50" y="83" class="st2" width="16.7" height="16.7"/>
		<rect x="66.7" y="83" class="st2" width="16.7" height="16.7"/>
		<rect x="83.3" y="83" class="st2" width="16.7" height="16.7"/>
		<rect y="99.7" class="st2" width="16.7" height="16.7"/>
		<rect x="16.7" y="99.7" class="st2" width="16.7" height="16.7"/>
		<rect x="33.3" y="99.7" class="st2" width="16.7" height="16.7"/>
		<rect x="50" y="99.7" class="st2" width="16.7" height="16.7"/>
		<rect x="66.7" y="99.7" class="st2" width="16.7" height="16.7"/>
		<rect x="83.3" y="99.7" class="st2" width="16.7" height="16.7"/>
	</g>
</g>
<g id="Layer_1">
	<polyline class="st15" points="70.1,42.7 86.3,50.4 86.3,98.7 	"/>
	<g>
		<g>
			<line class="st16" x1="45.7" y1="30.9" x2="45.7" y2="94.1"/>
			<g>
				<polygon class="st17" points="39.8,32.6 45.7,22.3 51.7,32.6 				"/>
			</g>
		</g>
	</g>
	<line class="st15" x1="52.7" y1="57.7" x2="57.5" y2="57.7"/>
	<line class="st15" x1="52.7" y1="72.2" x2="57.5" y2="72.2"/>
	<line class="st15" x1="52.8" y1="44.8" x2="57.4" y2="44.8"/>
	<line class="st15" x1="49.4" y1="99.2" x2="92.6" y2="99.2"/>
	<line class="st15" x1="7.4" y1="99.2" x2="41.7" y2="99.2"/>
	<polyline class="st15" points="63.1,98.5 63.1,46.8 71.3,42.7 71.3,28 45.7,16 28.1,22.3 28.1,97.8 	"/>
	<line class="st15" x1="40.9" y1="45.9" x2="32.9" y2="48"/>
	<line class="st15" x1="40.9" y1="59.1" x2="32.9" y2="61.3"/>
	<line class="st15" x1="40.9" y1="72" x2="32.9" y2="73.1"/>
	<line class="st15" x1="40.9" y1="85.7" x2="32.9" y2="86.5"/>
	<polyline class="st15" points="22,98.7 22,52.2 28.1,54.4 	"/>
	<line class="st15" x1="79.4" y1="56.1" x2="79.4" y2="62.7"/>
	<line class="st15" x1="79.4" y1="69.4" x2="79.4" y2="76"/>
	<line class="st15" x1="79.4" y1="83.6" x2="79.4" y2="90.2"/>
	<polyline class="st15" points="22,52.2 12.1,56.1 12.1,99.2 	"/>
	<line class="st15" x1="71.3" y1="42.7" x2="71.3" y2="93.2"/>
	<circle class="st15" cx="45.7" cy="99.2" r="5"/>
</g>
</svg>
