<svg id="ICONS" xmlns="http://www.w3.org/2000/svg" width="100" height="116.67" viewBox="0 0 100 116.67"><defs><style>.cls-1{fill:none;}.cls-1,.cls-2{stroke:#000;stroke-miterlimit:10;stroke-width:3px;}.cls-2{fill:#fff;}</style></defs><title>Security</title><path class="cls-1" d="M37.25,54.17H63.09a0,0,0,0,1,0,0V69.82a4.7,4.7,0,0,1-4.7,4.7H41.95a4.7,4.7,0,0,1-4.7-4.7V54.17A0,0,0,0,1,37.25,54.17Z"/><path class="cls-1" d="M49.22,38h1.9a8.47,8.47,0,0,1,8.47,8.47v7.71a0,0,0,0,1,0,0H40.74a0,0,0,0,1,0,0V46.46A8.47,8.47,0,0,1,49.22,38Z"/><line class="cls-1" x1="50.17" y1="61.2" x2="50.17" y2="67.97"/><path class="cls-1" d="M83.17,40.53v14.3A48.19,48.19,0,0,1,60,96l-10.12,6.12L39.72,96A48.19,48.19,0,0,1,16.5,54.83V31.92c21.1-2.25,33.33-14.09,33.33-14.09s8.71,9.39,26.8,13.08"/><polygon points="77.18 42.28 83.17 31.92 89.15 42.28 77.18 42.28"/><circle class="cls-2" cx="72.23" cy="29.52" r="5"/></svg>