<svg id="Layer_3" data-name="Layer 3" xmlns="http://www.w3.org/2000/svg" width="100" height="116" viewBox="0 0 100 116"><defs><style>.cls-1{fill:none;stroke:#000;stroke-linecap:square;stroke-miterlimit:10;stroke-width:3px;}</style></defs><title>Opensource</title><g id="_Group_" data-name="&lt;Group&gt;"><g id="_Group_2" data-name="&lt;Group&gt;"><g id="_Group_3" data-name="&lt;Group&gt;"><g id="_Group_4" data-name="&lt;Group&gt;"><g id="_Group_5" data-name="&lt;Group&gt;"><line id="_Path_" data-name="&lt;Path&gt;" class="cls-1" x1="36.74" y1="88.62" x2="36.74" y2="98.54"/></g><g id="_Group_6" data-name="&lt;Group&gt;"><line id="_Path_2" data-name="&lt;Path&gt;" class="cls-1" x1="26.21" y1="99.67" x2="47.28" y2="99.67"/></g></g><g id="_Group_7" data-name="&lt;Group&gt;"><line id="_Path_3" data-name="&lt;Path&gt;" class="cls-1" x1="8.33" y1="78.38" x2="65.15" y2="78.38"/></g></g></g><g id="_Group_8" data-name="&lt;Group&gt;"><path class="cls-1" d="M65.48,52.16V87.5H8.33V44.16h41.9V29.24A20.12,20.12,0,0,1,70.35,9.12h0A20.12,20.12,0,0,1,90.48,29.24v7"/><polygon points="84.5 34.5 90.48 44.86 96.46 34.5 84.5 34.5"/></g><path id="_Path_4" data-name="&lt;Path&gt;" class="cls-1" d="M42.13,56.21a5.39,5.39,0,1,0-8,4.7l-.92,10.26h7l-.93-10.26A5.37,5.37,0,0,0,42.13,56.21Z"/></g><g id="_Group_9" data-name="&lt;Group&gt;"><circle id="_Path_5" data-name="&lt;Path&gt;" class="cls-1" cx="65.67" cy="46.57" r="5"/></g></svg>