<?xml version="1.0" encoding="utf-8"?>
<!-- Generator: Adobe Illustrator 22.1.0, SVG Export Plug-In . SVG Version: 6.00 Build 0)  -->
<svg version="1.1" xmlns="http://www.w3.org/2000/svg" xmlns:xlink="http://www.w3.org/1999/xlink" x="0px" y="0px" width="350px"
	 height="350px" viewBox="0 0 350 350" style="enable-background:new 0 0 350 350;" xml:space="preserve">
<style type="text/css">
	.st0{fill:#FCDDD6;}
	.st1{fill:#FBC2BA;}
	.st2{fill:#F16C51;}
	.st3{fill:#EAC8A5;}
	.st4{fill:#ECE1CE;}
	.st5{fill:#DF9926;}
	.st6{fill:#D8E7DA;}
	.st7{fill:none;stroke:#A8D7CD;stroke-width:2.3054;stroke-miterlimit:10;}
	.st8{fill:none;stroke:#FBC2BA;stroke-width:2.3054;stroke-miterlimit:10;}
	.st9{display:none;}
	.st10{display:inline;}
	.st11{fill:none;stroke:#000000;stroke-width:0.1397;stroke-miterlimit:10;}
	.st12{display:inline;fill:none;stroke:#061838;stroke-width:2;stroke-linejoin:bevel;stroke-miterlimit:10;}
	.st13{fill:none;stroke:#4D4F55;stroke-width:0.1397;stroke-miterlimit:10;}
	.st14{fill:none;stroke:#FFFFFF;stroke-width:1.5;stroke-linecap:square;stroke-miterlimit:10;}
	.st15{fill:none;stroke:#FFFFFF;stroke-width:1.4992;stroke-miterlimit:10;}
	.st16{fill:#FFFFFF;}
	.st17{fill:none;stroke:#FFFFFF;stroke-width:1.4992;}
	.st18{fill:none;stroke:#FCFCFC;stroke-width:1.5;stroke-miterlimit:10;}
	.st19{fill:#FCFCFC;}
	.st20{fill:none;stroke:#FCFCFC;stroke-width:1.5;stroke-linecap:square;stroke-miterlimit:10;}
	.st21{fill:none;stroke:#FFFFFF;stroke-width:1.5;stroke-miterlimit:10;}
	.st22{fill:none;stroke:#F8F1F3;stroke-width:1.5;stroke-linecap:square;stroke-miterlimit:10;}
	.st23{fill:#F8F1F3;}
	.st24{fill:none;stroke:#FFFFFF;stroke-miterlimit:10;}
	.st25{fill:none;stroke:#00321D;stroke-width:3;stroke-linecap:square;stroke-miterlimit:10;}
	.st26{fill:#00321D;}
	.st27{fill:none;stroke:#00321D;stroke-width:3;stroke-miterlimit:10;}
	.st28{fill:#4C0519;}
	.st29{fill:none;stroke:#4C0519;stroke-width:3;stroke-linecap:square;stroke-miterlimit:10;}
	.st30{fill:none;stroke:#4C0519;stroke-width:3;stroke-miterlimit:10;}
	.st31{fill:none;stroke:#00321D;stroke-width:3;stroke-miterlimit:10;stroke-dasharray:6;}
	.st32{fill:none;stroke:#00321D;stroke-width:3;stroke-linecap:square;stroke-miterlimit:10;stroke-dasharray:5,8;}
	.st33{display:inline;fill:none;stroke:#FCFCFC;stroke-width:1.5;stroke-miterlimit:10;}
</style>
<g id="Layer_3">
	<path class="st0" d="M342.9,175c0,54.5-26,103-66.2,133.6c-2,1.5-4,3-6,4.4c-27.2,18.9-60.1,29.9-95.7,29.9
		c-35.6,0-68.5-11.1-95.7-29.9c-2-1.4-4-2.9-6-4.4C33.1,278,7.1,229.5,7.1,175c0-16.8,2.5-33.1,7.1-48.4c0.7-2.4,1.5-4.7,2.3-7.1
		C39,55.2,99.6,8.7,171.3,7.1c1.2,0,2.5,0,3.7,0c1.2,0,2.5,0,3.7,0C250.4,8.7,311,55.2,333.5,119.6c0.8,2.3,1.6,4.7,2.3,7v0
		C340.4,141.9,342.9,158.2,342.9,175z"/>
	<path class="st1" d="M171.3,0v7.1C99.6,8.7,39,55.2,16.4,119.6l-6.7-2.2c5.6-16,13.5-31.2,23.5-45c10.6-14.7,23.4-27.5,37.9-38.3
		C100.4,12.5,134.9,0.7,171.3,0z"/>
	<path class="st2" d="M171.3,7.1v117.3c-19.2,1.4-35.9,13.5-43.2,31.4L16.4,119.6C39,55.2,99.6,8.7,171.3,7.1z"/>
	<path class="st1" d="M340.3,117.4l-6.7,2.2C311,55.2,250.4,8.7,178.7,7.1V0c36.3,0.7,70.9,12.5,100.1,34.1
		c14.6,10.7,27.3,23.6,37.9,38.3C326.8,86.2,334.7,101.3,340.3,117.4z"/>
	<path class="st2" d="M333.5,119.6l-111.6,36.3c-7.3-17.9-24-30-43.2-31.4V7.1C250.4,8.7,311,55.2,333.5,119.6z"/>
	<path class="st1" d="M73.3,308.6l-4.1,5.7c-20.5-15.6-37.6-35.9-49.5-58.7C6.8,231,0,203.1,0,175c0-17.2,2.5-34.2,7.4-50.5l6.7,2.2
		c-4.6,15.3-7.1,31.6-7.1,48.4C7.1,229.5,33.1,278,73.3,308.6z"/>
	<path class="st2" d="M142.3,213.7l-69,95C33.1,278,7.1,229.5,7.1,175c0-16.8,2.5-33.1,7.1-48.4l111.6,36.3c-1,3.9-1.5,8-1.5,12.1
		C124.3,189.9,131,204.1,142.3,213.7z"/>
	<path class="st1" d="M274.8,318.7C245.5,339.2,211,350,175,350c-36,0-70.4-10.8-99.8-31.3l4.2-5.7c27.1,18.9,60.1,29.9,95.7,29.9
		c35.6,0,68.5-11.1,95.7-29.9L274.8,318.7z"/>
	<path class="st2" d="M270.7,313c-27.2,18.9-60.1,29.9-95.7,29.9c-35.6,0-68.5-11.1-95.7-29.9l69-95c8,5,17.2,7.6,26.7,7.6
		c9.5,0,18.7-2.6,26.7-7.6L270.7,313z"/>
	<path class="st1" d="M350,175c0,28.1-6.8,56-19.7,80.7c-11.9,22.8-29,43.1-49.5,58.7l-4.2-5.7c40.3-30.7,66.2-79.1,66.2-133.6
		c0-16.8-2.5-33.1-7.1-48.4v0l6.7-2.2C347.5,140.8,350,157.8,350,175z"/>
	<path class="st2" d="M342.9,175c0,54.5-26,103-66.2,133.6l-69-95c11.3-9.6,18-23.8,18-38.7c0-4.1-0.5-8.1-1.5-12.1l111.6-36.3
		C340.4,141.9,342.9,158.2,342.9,175z"/>
	<path class="st0" d="M238.2,175c0,20.5-9.8,38.7-24.9,50.3c-0.7,0.6-1.5,1.1-2.3,1.6c-10.2,7.1-22.6,11.3-36,11.3
		c-13.4,0-25.8-4.2-36-11.3c-0.8-0.5-1.5-1.1-2.3-1.6c-15.1-11.5-24.9-29.8-24.9-50.3c0-6.3,0.9-12.4,2.7-18.2
		c0.3-0.9,0.6-1.8,0.9-2.7c8.5-24.2,31.3-41.7,58.2-42.3c0.5,0,0.9,0,1.4,0c0.5,0,0.9,0,1.4,0c27,0.6,49.8,18.1,58.2,42.3
		c0.3,0.9,0.6,1.8,0.9,2.7v0C237.2,162.6,238.2,168.7,238.2,175z"/>
</g>
<g id="Layer_4" class="st9">
	<g class="st10">
		<rect x="211.6" y="29.5" class="st11" width="10" height="10"/>
		<rect x="221.6" y="29.5" class="st11" width="10" height="10"/>
		<rect x="231.6" y="29.5" class="st11" width="10" height="10"/>
		<rect x="241.6" y="29.5" class="st11" width="10" height="10"/>
		<rect x="251.6" y="29.5" class="st11" width="10" height="10"/>
		<rect x="261.6" y="29.5" class="st11" width="10" height="10"/>
		<rect x="211.6" y="39.5" class="st11" width="10" height="10"/>
		<rect x="221.6" y="39.5" class="st11" width="10" height="10"/>
		<rect x="231.6" y="39.5" class="st11" width="10" height="10"/>
		<rect x="241.6" y="39.5" class="st11" width="10" height="10"/>
		<rect x="251.6" y="39.5" class="st11" width="10" height="10"/>
		<rect x="261.6" y="39.5" class="st11" width="10" height="10"/>
		<rect x="211.6" y="49.5" class="st11" width="10" height="10"/>
		<rect x="221.6" y="49.5" class="st11" width="10" height="10"/>
		<rect x="231.6" y="49.5" class="st11" width="10" height="10"/>
		<rect x="241.6" y="49.5" class="st11" width="10" height="10"/>
		<rect x="251.6" y="49.5" class="st11" width="10" height="10"/>
		<rect x="261.6" y="49.5" class="st11" width="10" height="10"/>
		<rect x="211.6" y="59.5" class="st11" width="10" height="10"/>
		<rect x="221.6" y="59.5" class="st11" width="10" height="10"/>
		<rect x="231.6" y="59.5" class="st11" width="10" height="10"/>
		<rect x="241.6" y="59.5" class="st11" width="10" height="10"/>
		<rect x="251.6" y="59.5" class="st11" width="10" height="10"/>
		<rect x="261.6" y="59.5" class="st11" width="10" height="10"/>
		<rect x="211.6" y="69.5" class="st11" width="10" height="10"/>
		<rect x="221.6" y="69.5" class="st11" width="10" height="10"/>
		<rect x="231.6" y="69.5" class="st11" width="10" height="10"/>
		<rect x="241.6" y="69.5" class="st11" width="10" height="10"/>
		<rect x="251.6" y="69.5" class="st11" width="10" height="10"/>
		<rect x="261.6" y="69.5" class="st11" width="10" height="10"/>
		<rect x="211.6" y="79.5" class="st11" width="10" height="10"/>
		<rect x="221.6" y="79.5" class="st11" width="10" height="10"/>
		<rect x="231.6" y="79.5" class="st11" width="10" height="10"/>
		<rect x="241.6" y="79.5" class="st11" width="10" height="10"/>
		<rect x="251.6" y="79.5" class="st11" width="10" height="10"/>
		<rect x="261.6" y="79.5" class="st11" width="10" height="10"/>
		<rect x="211.6" y="89.5" class="st11" width="10" height="10"/>
		<rect x="221.6" y="89.5" class="st11" width="10" height="10"/>
		<rect x="231.6" y="89.5" class="st11" width="10" height="10"/>
		<rect x="241.6" y="89.5" class="st11" width="10" height="10"/>
		<rect x="251.6" y="89.5" class="st11" width="10" height="10"/>
		<rect x="261.6" y="89.5" class="st11" width="10" height="10"/>
	</g>
	<g class="st10">
		<rect x="76.5" y="29.5" class="st11" width="10" height="10"/>
		<rect x="86.5" y="29.5" class="st11" width="10" height="10"/>
		<rect x="96.5" y="29.5" class="st11" width="10" height="10"/>
		<rect x="106.5" y="29.5" class="st11" width="10" height="10"/>
		<rect x="116.5" y="29.5" class="st11" width="10" height="10"/>
		<rect x="126.5" y="29.5" class="st11" width="10" height="10"/>
		<rect x="76.5" y="39.5" class="st11" width="10" height="10"/>
		<rect x="86.5" y="39.5" class="st11" width="10" height="10"/>
		<rect x="96.5" y="39.5" class="st11" width="10" height="10"/>
		<rect x="106.5" y="39.5" class="st11" width="10" height="10"/>
		<rect x="116.5" y="39.5" class="st11" width="10" height="10"/>
		<rect x="126.5" y="39.5" class="st11" width="10" height="10"/>
		<rect x="76.5" y="49.5" class="st11" width="10" height="10"/>
		<rect x="86.5" y="49.5" class="st11" width="10" height="10"/>
		<rect x="96.5" y="49.5" class="st11" width="10" height="10"/>
		<rect x="106.5" y="49.5" class="st11" width="10" height="10"/>
		<rect x="116.5" y="49.5" class="st11" width="10" height="10"/>
		<rect x="126.5" y="49.5" class="st11" width="10" height="10"/>
		<rect x="76.5" y="59.5" class="st11" width="10" height="10"/>
		<rect x="86.5" y="59.5" class="st11" width="10" height="10"/>
		<rect x="96.5" y="59.5" class="st11" width="10" height="10"/>
		<rect x="106.5" y="59.5" class="st11" width="10" height="10"/>
		<rect x="116.5" y="59.5" class="st11" width="10" height="10"/>
		<rect x="126.5" y="59.5" class="st11" width="10" height="10"/>
		<rect x="76.5" y="69.5" class="st11" width="10" height="10"/>
		<rect x="86.5" y="69.5" class="st11" width="10" height="10"/>
		<rect x="96.5" y="69.5" class="st11" width="10" height="10"/>
		<rect x="106.5" y="69.5" class="st11" width="10" height="10"/>
		<rect x="116.5" y="69.5" class="st11" width="10" height="10"/>
		<rect x="126.5" y="69.5" class="st11" width="10" height="10"/>
		<rect x="76.5" y="79.5" class="st11" width="10" height="10"/>
		<rect x="86.5" y="79.5" class="st11" width="10" height="10"/>
		<rect x="96.5" y="79.5" class="st11" width="10" height="10"/>
		<rect x="106.5" y="79.5" class="st11" width="10" height="10"/>
		<rect x="116.5" y="79.5" class="st11" width="10" height="10"/>
		<rect x="126.5" y="79.5" class="st11" width="10" height="10"/>
		<rect x="76.5" y="89.5" class="st11" width="10" height="10"/>
		<rect x="86.5" y="89.5" class="st11" width="10" height="10"/>
		<rect x="96.5" y="89.5" class="st11" width="10" height="10"/>
		<rect x="106.5" y="89.5" class="st11" width="10" height="10"/>
		<rect x="116.5" y="89.5" class="st11" width="10" height="10"/>
		<rect x="126.5" y="89.5" class="st11" width="10" height="10"/>
	</g>
	<g class="st10">
		<rect x="44.3" y="170.1" class="st11" width="10" height="10"/>
		<rect x="54.3" y="170.1" class="st11" width="10" height="10"/>
		<rect x="64.3" y="170.1" class="st11" width="10" height="10"/>
		<rect x="74.3" y="170.1" class="st11" width="10" height="10"/>
		<rect x="84.3" y="170.1" class="st11" width="10" height="10"/>
		<rect x="94.3" y="170.1" class="st11" width="10" height="10"/>
		<rect x="44.3" y="180.1" class="st11" width="10" height="10"/>
		<rect x="54.3" y="180.1" class="st11" width="10" height="10"/>
		<rect x="64.3" y="180.1" class="st11" width="10" height="10"/>
		<rect x="74.3" y="180.1" class="st11" width="10" height="10"/>
		<rect x="84.3" y="180.1" class="st11" width="10" height="10"/>
		<rect x="94.3" y="180.1" class="st11" width="10" height="10"/>
		<rect x="44.3" y="190.1" class="st11" width="10" height="10"/>
		<rect x="54.3" y="190.1" class="st11" width="10" height="10"/>
		<rect x="64.3" y="190.1" class="st11" width="10" height="10"/>
		<rect x="74.3" y="190.1" class="st11" width="10" height="10"/>
		<rect x="84.3" y="190.1" class="st11" width="10" height="10"/>
		<rect x="94.3" y="190.1" class="st11" width="10" height="10"/>
		<rect x="44.3" y="200.1" class="st11" width="10" height="10"/>
		<rect x="54.3" y="200.1" class="st11" width="10" height="10"/>
		<rect x="64.3" y="200.1" class="st11" width="10" height="10"/>
		<rect x="74.3" y="200.1" class="st11" width="10" height="10"/>
		<rect x="84.3" y="200.1" class="st11" width="10" height="10"/>
		<rect x="94.3" y="200.1" class="st11" width="10" height="10"/>
		<rect x="44.3" y="210.1" class="st11" width="10" height="10"/>
		<rect x="54.3" y="210.1" class="st11" width="10" height="10"/>
		<rect x="64.3" y="210.1" class="st11" width="10" height="10"/>
		<rect x="74.3" y="210.1" class="st11" width="10" height="10"/>
		<rect x="84.3" y="210.1" class="st11" width="10" height="10"/>
		<rect x="94.3" y="210.1" class="st11" width="10" height="10"/>
		<rect x="44.3" y="220.1" class="st11" width="10" height="10"/>
		<rect x="54.3" y="220.1" class="st11" width="10" height="10"/>
		<rect x="64.3" y="220.1" class="st11" width="10" height="10"/>
		<rect x="74.3" y="220.1" class="st11" width="10" height="10"/>
		<rect x="84.3" y="220.1" class="st11" width="10" height="10"/>
		<rect x="94.3" y="220.1" class="st11" width="10" height="10"/>
		<rect x="44.3" y="230.1" class="st11" width="10" height="10"/>
		<rect x="54.3" y="230.1" class="st11" width="10" height="10"/>
		<rect x="64.3" y="230.1" class="st11" width="10" height="10"/>
		<rect x="74.3" y="230.1" class="st11" width="10" height="10"/>
		<rect x="84.3" y="230.1" class="st11" width="10" height="10"/>
		<rect x="94.3" y="230.1" class="st11" width="10" height="10"/>
	</g>
	<g class="st10">
		<rect x="143.3" y="245.6" class="st11" width="10" height="10"/>
		<rect x="153.3" y="245.6" class="st11" width="10" height="10"/>
		<rect x="163.3" y="245.6" class="st11" width="10" height="10"/>
		<rect x="173.3" y="245.6" class="st11" width="10" height="10"/>
		<rect x="183.3" y="245.6" class="st11" width="10" height="10"/>
		<rect x="193.3" y="245.6" class="st11" width="10" height="10"/>
		<rect x="143.3" y="255.6" class="st11" width="10" height="10"/>
		<rect x="153.3" y="255.6" class="st11" width="10" height="10"/>
		<rect x="163.3" y="255.6" class="st11" width="10" height="10"/>
		<rect x="173.3" y="255.6" class="st11" width="10" height="10"/>
		<rect x="183.3" y="255.6" class="st11" width="10" height="10"/>
		<rect x="193.3" y="255.6" class="st11" width="10" height="10"/>
		<rect x="143.3" y="265.6" class="st11" width="10" height="10"/>
		<rect x="153.3" y="265.6" class="st11" width="10" height="10"/>
		<rect x="163.3" y="265.6" class="st11" width="10" height="10"/>
		<rect x="173.3" y="265.6" class="st11" width="10" height="10"/>
		<rect x="183.3" y="265.6" class="st11" width="10" height="10"/>
		<rect x="193.3" y="265.6" class="st11" width="10" height="10"/>
		<rect x="143.3" y="275.6" class="st11" width="10" height="10"/>
		<rect x="153.3" y="275.6" class="st11" width="10" height="10"/>
		<rect x="163.3" y="275.6" class="st11" width="10" height="10"/>
		<rect x="173.3" y="275.6" class="st11" width="10" height="10"/>
		<rect x="183.3" y="275.6" class="st11" width="10" height="10"/>
		<rect x="193.3" y="275.6" class="st11" width="10" height="10"/>
		<rect x="143.3" y="285.6" class="st11" width="10" height="10"/>
		<rect x="153.3" y="285.6" class="st11" width="10" height="10"/>
		<rect x="163.3" y="285.6" class="st11" width="10" height="10"/>
		<rect x="173.3" y="285.6" class="st11" width="10" height="10"/>
		<rect x="183.3" y="285.6" class="st11" width="10" height="10"/>
		<rect x="193.3" y="285.6" class="st11" width="10" height="10"/>
		<rect x="143.3" y="295.6" class="st11" width="10" height="10"/>
		<rect x="153.3" y="295.6" class="st11" width="10" height="10"/>
		<rect x="163.3" y="295.6" class="st11" width="10" height="10"/>
		<rect x="173.3" y="295.6" class="st11" width="10" height="10"/>
		<rect x="183.3" y="295.6" class="st11" width="10" height="10"/>
		<rect x="193.3" y="295.6" class="st11" width="10" height="10"/>
		<rect x="143.3" y="305.6" class="st11" width="10" height="10"/>
		<rect x="153.3" y="305.6" class="st11" width="10" height="10"/>
		<rect x="163.3" y="305.6" class="st11" width="10" height="10"/>
		<rect x="173.3" y="305.6" class="st11" width="10" height="10"/>
		<rect x="183.3" y="305.6" class="st11" width="10" height="10"/>
		<rect x="193.3" y="305.6" class="st11" width="10" height="10"/>
	</g>
	<g class="st10">
		<rect x="251.6" y="155.1" class="st11" width="10" height="10"/>
		<rect x="261.6" y="155.1" class="st11" width="10" height="10"/>
		<rect x="271.6" y="155.1" class="st11" width="10" height="10"/>
		<rect x="281.6" y="155.1" class="st11" width="10" height="10"/>
		<rect x="291.6" y="155.1" class="st11" width="10" height="10"/>
		<rect x="301.6" y="155.1" class="st11" width="10" height="10"/>
		<rect x="251.6" y="165.1" class="st11" width="10" height="10"/>
		<rect x="261.6" y="165.1" class="st11" width="10" height="10"/>
		<rect x="271.6" y="165.1" class="st11" width="10" height="10"/>
		<rect x="281.6" y="165.1" class="st11" width="10" height="10"/>
		<rect x="291.6" y="165.1" class="st11" width="10" height="10"/>
		<rect x="301.6" y="165.1" class="st11" width="10" height="10"/>
		<rect x="251.6" y="175.1" class="st11" width="10" height="10"/>
		<rect x="261.6" y="175.1" class="st11" width="10" height="10"/>
		<rect x="271.6" y="175.1" class="st11" width="10" height="10"/>
		<rect x="281.6" y="175.1" class="st11" width="10" height="10"/>
		<rect x="291.6" y="175.1" class="st11" width="10" height="10"/>
		<rect x="301.6" y="175.1" class="st11" width="10" height="10"/>
		<rect x="251.6" y="185.1" class="st11" width="10" height="10"/>
		<rect x="261.6" y="185.1" class="st11" width="10" height="10"/>
		<rect x="271.6" y="185.1" class="st11" width="10" height="10"/>
		<rect x="281.6" y="185.1" class="st11" width="10" height="10"/>
		<rect x="291.6" y="185.1" class="st11" width="10" height="10"/>
		<rect x="301.6" y="185.1" class="st11" width="10" height="10"/>
		<rect x="251.6" y="195.1" class="st11" width="10" height="10"/>
		<rect x="261.6" y="195.1" class="st11" width="10" height="10"/>
		<rect x="271.6" y="195.1" class="st11" width="10" height="10"/>
		<rect x="281.6" y="195.1" class="st11" width="10" height="10"/>
		<rect x="291.6" y="195.1" class="st11" width="10" height="10"/>
		<rect x="301.6" y="195.1" class="st11" width="10" height="10"/>
		<rect x="251.6" y="205.1" class="st11" width="10" height="10"/>
		<rect x="261.6" y="205.1" class="st11" width="10" height="10"/>
		<rect x="271.6" y="205.1" class="st11" width="10" height="10"/>
		<rect x="281.6" y="205.1" class="st11" width="10" height="10"/>
		<rect x="291.6" y="205.1" class="st11" width="10" height="10"/>
		<rect x="301.6" y="205.1" class="st11" width="10" height="10"/>
		<rect x="251.6" y="215.1" class="st11" width="10" height="10"/>
		<rect x="261.6" y="215.1" class="st11" width="10" height="10"/>
		<rect x="271.6" y="215.1" class="st11" width="10" height="10"/>
		<rect x="281.6" y="215.1" class="st11" width="10" height="10"/>
		<rect x="291.6" y="215.1" class="st11" width="10" height="10"/>
		<rect x="301.6" y="215.1" class="st11" width="10" height="10"/>
	</g>
</g>
<g id="Layer_1">
	<g id="XMLID_757_">
		<g id="XMLID_758_">
			<line id="XMLID_763_" class="st14" x1="62.9" y1="215" x2="77.9" y2="215"/>
			<g id="XMLID_759_">
				<line id="XMLID_762_" class="st15" x1="70.5" y1="206.7" x2="70.5" y2="214.6"/>
				<g id="XMLID_761_">
					<g>
						<polyline class="st15" points="89.3,197.9 89.3,206.7 49.9,206.7 49.9,175.8 67.2,175.8 						"/>
						<g>
							<polygon class="st16" points="66.3,178.8 71.5,175.8 66.3,172.8 							"/>
						</g>
					</g>
				</g>
				<line id="XMLID_760_" class="st15" x1="50.2" y1="200.7" x2="89.3" y2="200.7"/>
			</g>
		</g>
	</g>
	<g id="XMLID_748_">
		<g id="XMLID_749_">
			<line id="XMLID_756_" class="st14" x1="164.2" y1="298.1" x2="181.8" y2="298.1"/>
			<g id="XMLID_750_">
				<line id="XMLID_755_" class="st15" x1="173.1" y1="288.3" x2="173.1" y2="297.7"/>
				<g id="XMLID_753_">
					<g>
						<polyline class="st15" points="197.4,256.5 197.4,288.3 148.8,288.3 148.8,251.8 186.1,251.8 						"/>
						<g>
							<polygon class="st16" points="194.4,257.4 197.4,252.2 200.4,257.4 							"/>
						</g>
					</g>
				</g>
				<path id="XMLID_752_" class="st17" d="M187.2,253.5L187.2,253.5c-1.5-0.9-1.5-3,0-3.9c1.5-0.9,3.4,0.2,3.4,1.9
					C190.6,253.3,188.7,254.4,187.2,253.5z"/>
				<line id="XMLID_751_" class="st15" x1="149.1" y1="281.2" x2="197.4" y2="281.2"/>
			</g>
		</g>
	</g>
	<g id="XMLID_731_">
		<g id="XMLID_742_">
			<polyline id="XMLID_747_" class="st18" points="291.5,165.6 291.5,175.4 300.9,175.4 			"/>
			<g id="XMLID_57_">
				<g>
					<polyline class="st18" points="265.1,191.2 265.1,165.6 291.5,165.6 301.2,175.4 301.2,211.2 289.8,211.2 					"/>
					<g>
						<polygon class="st19" points="290.7,208.2 285.5,211.2 290.7,214.2 						"/>
					</g>
				</g>
			</g>
			<line id="XMLID_745_" class="st18" x1="273.1" y1="183.4" x2="295.3" y2="183.4"/>
			<line id="XMLID_744_" class="st18" x1="273.1" y1="192.4" x2="295.3" y2="192.4"/>
			<line id="XMLID_743_" class="st18" x1="285.5" y1="201.4" x2="295.3" y2="201.4"/>
		</g>
	</g>
	<g>
		<g>
			<path class="st16" d="M126.3,312.7l-0.1-0.6h0c-0.3,0.4-0.9,0.7-1.6,0.7c-1.1,0-1.7-0.8-1.7-1.7c0-1.4,1.2-2.1,3.3-2.1V309
				c0-0.4-0.1-1-1.1-1c-0.5,0-1.1,0.2-1.5,0.4l-0.3-0.9c0.4-0.3,1.1-0.5,2-0.5c1.8,0,2.3,1.1,2.3,2.3v2c0,0.5,0,1,0.1,1.3H126.3z
				 M126.1,310c-1,0-1.9,0.2-1.9,1c0,0.5,0.4,0.8,0.8,0.8c0.6,0,1-0.4,1.1-0.8c0-0.1,0-0.2,0-0.3V310z"/>
			<path class="st16" d="M134,304.7v6.5c0,0.6,0,1.2,0,1.6h-1.3l-0.1-0.9h0c-0.3,0.6-1,1-1.8,1c-1.3,0-2.4-1.1-2.4-2.8
				c0-1.9,1.1-3,2.5-3c0.8,0,1.3,0.3,1.6,0.7h0v-3.1H134z M132.6,309.5c0-0.1,0-0.3,0-0.4c-0.1-0.5-0.6-1-1.2-1
				c-0.9,0-1.4,0.8-1.4,1.8c0,1,0.5,1.8,1.4,1.8c0.6,0,1.1-0.4,1.2-1c0-0.1,0-0.3,0-0.4V309.5z"/>
			<path class="st16" d="M137.9,304.7h1.4v3.3h0c0.2-0.3,0.4-0.5,0.7-0.6c0.3-0.2,0.6-0.3,1-0.3c0.9,0,1.9,0.6,1.9,2.4v3.3h-1.4
				v-3.1c0-0.8-0.3-1.4-1.1-1.4c-0.5,0-0.9,0.4-1.1,0.8c0,0.1-0.1,0.3-0.1,0.4v3.3h-1.4V304.7z"/>
			<path class="st16" d="M149.7,309.9c0,2-1.4,2.9-2.8,2.9c-1.6,0-2.8-1.1-2.8-2.9c0-1.8,1.2-2.9,2.9-2.9
				C148.6,307.1,149.7,308.2,149.7,309.9z M145.5,310c0,1.1,0.5,1.9,1.4,1.9c0.8,0,1.4-0.8,1.4-1.9c0-0.9-0.4-1.9-1.3-1.9
				C145.9,308.1,145.5,309.1,145.5,310z"/>
			<path class="st16" d="M154.9,312.6c-0.3,0.1-0.9,0.3-1.6,0.3c-1.7,0-2.9-1.1-2.9-2.8c0-1.7,1.1-3,3.1-3c0.5,0,1,0.1,1.4,0.3
				l-0.3,1c-0.2-0.1-0.6-0.2-1.1-0.2c-1.1,0-1.7,0.8-1.7,1.8c0,1.1,0.7,1.8,1.7,1.8c0.5,0,0.8-0.1,1.1-0.2L154.9,312.6z"/>
			<path class="st16" d="M158.3,309c0-0.8,0-1.3,0-1.8h1.2l0,1.1h0c0.3-0.8,0.9-1.2,1.5-1.2c0.1,0,0.2,0,0.3,0v1.3
				c-0.1,0-0.2,0-0.4,0c-0.7,0-1.1,0.4-1.3,1.1c0,0.1,0,0.3,0,0.4v2.9h-1.4V309z"/>
			<path class="st16" d="M163.3,310.4c0,1,0.8,1.4,1.7,1.4c0.6,0,1.1-0.1,1.5-0.3l0.2,1c-0.5,0.2-1.1,0.3-1.9,0.3
				c-1.8,0-2.9-1.1-2.9-2.8c0-1.5,0.9-3,2.7-3c1.8,0,2.4,1.5,2.4,2.7c0,0.3,0,0.5,0,0.6H163.3z M165.7,309.4c0-0.5-0.2-1.4-1.1-1.4
				c-0.9,0-1.2,0.8-1.3,1.4H165.7z"/>
			<path class="st16" d="M168.1,309c0-0.7,0-1.3,0-1.8h1.2l0.1,0.9h0c0.4-0.6,1.1-1,1.9-1c1.3,0,2.3,1.1,2.3,2.8c0,2-1.3,3-2.5,3
				c-0.7,0-1.3-0.3-1.6-0.7h0v2.9h-1.4V309z M169.5,310.4c0,0.1,0,0.3,0,0.4c0.1,0.6,0.6,1,1.2,1c0.9,0,1.4-0.7,1.4-1.8
				c0-1-0.5-1.8-1.4-1.8c-0.6,0-1.1,0.4-1.3,1c0,0.1-0.1,0.2-0.1,0.4V310.4z"/>
			<path class="st16" d="M180.1,309.9c0,2-1.4,2.9-2.8,2.9c-1.6,0-2.8-1.1-2.8-2.9c0-1.8,1.2-2.9,2.9-2.9
				C179,307.1,180.1,308.2,180.1,309.9z M175.9,310c0,1.1,0.5,1.9,1.4,1.9c0.8,0,1.4-0.8,1.4-1.9c0-0.9-0.4-1.9-1.3-1.9
				C176.3,308.1,175.9,309.1,175.9,310z"/>
			<path class="st16" d="M181.2,309c0-0.8,0-1.3,0-1.8h1.2l0,1.1h0c0.3-0.8,0.9-1.2,1.5-1.2c0.1,0,0.2,0,0.3,0v1.3
				c-0.1,0-0.2,0-0.4,0c-0.7,0-1.1,0.4-1.3,1.1c0,0.1,0,0.3,0,0.4v2.9h-1.4V309z"/>
			<path class="st16" d="M187.1,305.6v1.6h1.3v1h-1.3v2.4c0,0.7,0.2,1,0.7,1c0.2,0,0.4,0,0.5-0.1l0,1.1c-0.2,0.1-0.6,0.1-1,0.1
				c-0.5,0-0.9-0.2-1.2-0.5c-0.3-0.3-0.4-0.8-0.4-1.5v-2.6H185v-1h0.8v-1.3L187.1,305.6z"/>
			<path class="st16" d="M191,305.7c0,0.4-0.3,0.8-0.8,0.8c-0.5,0-0.8-0.3-0.8-0.8c0-0.4,0.3-0.8,0.8-0.8
				C190.7,304.9,191,305.2,191,305.7z M189.5,312.7v-5.5h1.4v5.5H189.5z"/>
			<path class="st16" d="M192.4,308.9c0-0.6,0-1.2,0-1.7h1.2l0.1,0.8h0c0.2-0.4,0.8-1,1.8-1c1,0,2,0.6,2,2.4v3.3h-1.4v-3.1
				c0-0.8-0.3-1.4-1.1-1.4c-0.6,0-0.9,0.4-1.1,0.8c0,0.1-0.1,0.3-0.1,0.5v3.3h-1.4V308.9z"/>
			<path class="st16" d="M204,307.2c0,0.4,0,0.8,0,1.6v3.1c0,1.2-0.2,2-0.8,2.5c-0.6,0.5-1.4,0.7-2.1,0.7c-0.7,0-1.5-0.1-1.9-0.4
				l0.3-1.1c0.4,0.2,0.9,0.4,1.6,0.4c0.9,0,1.6-0.5,1.6-1.7v-0.5h0c-0.3,0.5-0.9,0.8-1.6,0.8c-1.4,0-2.4-1.1-2.4-2.7
				c0-1.8,1.2-2.9,2.5-2.9c0.8,0,1.3,0.4,1.6,0.9h0l0.1-0.7H204z M202.6,309.4c0-0.1,0-0.3,0-0.4c-0.1-0.5-0.5-0.9-1.1-0.9
				c-0.8,0-1.4,0.7-1.4,1.8c0,0.9,0.5,1.7,1.4,1.7c0.5,0,1-0.3,1.1-0.8c0-0.1,0.1-0.3,0.1-0.5V309.4z"/>
			<path class="st16" d="M211,312.7l-0.1-0.6h0c-0.3,0.4-0.9,0.7-1.6,0.7c-1.1,0-1.7-0.8-1.7-1.7c0-1.4,1.2-2.1,3.3-2.1V309
				c0-0.4-0.1-1-1.1-1c-0.5,0-1.1,0.2-1.5,0.4l-0.3-0.9c0.4-0.3,1.1-0.5,2-0.5c1.8,0,2.3,1.1,2.3,2.3v2c0,0.5,0,1,0.1,1.3H211z
				 M210.8,310c-1,0-1.9,0.2-1.9,1c0,0.5,0.4,0.8,0.8,0.8c0.6,0,1-0.4,1.1-0.8c0-0.1,0-0.2,0-0.3V310z"/>
			<path class="st16" d="M213.6,308.9c0-0.6,0-1.2,0-1.7h1.2l0.1,0.8h0c0.2-0.4,0.8-1,1.8-1c1,0,2,0.6,2,2.4v3.3h-1.4v-3.1
				c0-0.8-0.3-1.4-1.1-1.4c-0.6,0-0.9,0.4-1.1,0.8c0,0.1-0.1,0.3-0.1,0.5v3.3h-1.4V308.9z"/>
			<path class="st16" d="M225.2,304.7v6.5c0,0.6,0,1.2,0,1.6H224l-0.1-0.9h0c-0.3,0.6-1,1-1.8,1c-1.3,0-2.4-1.1-2.4-2.8
				c0-1.9,1.1-3,2.5-3c0.8,0,1.3,0.3,1.6,0.7h0v-3.1H225.2z M223.9,309.5c0-0.1,0-0.3,0-0.4c-0.1-0.5-0.6-1-1.2-1
				c-0.9,0-1.4,0.8-1.4,1.8c0,1,0.5,1.8,1.4,1.8c0.6,0,1.1-0.4,1.2-1c0-0.1,0-0.3,0-0.4V309.5z"/>
			<path class="st16" d="M135.3,323.1c0.3,0.2,0.9,0.4,1.4,0.4c0.6,0,0.9-0.3,0.9-0.6c0-0.4-0.2-0.6-0.9-0.8c-1.1-0.4-1.5-1-1.5-1.6
				c0-1,0.8-1.7,2.1-1.7c0.6,0,1.1,0.2,1.5,0.3l-0.3,1c-0.2-0.1-0.7-0.3-1.2-0.3c-0.5,0-0.8,0.2-0.8,0.6c0,0.4,0.3,0.5,1,0.8
				c1,0.4,1.5,0.9,1.5,1.7c0,1-0.8,1.7-2.3,1.7c-0.7,0-1.3-0.2-1.7-0.4L135.3,323.1z"/>
			<path class="st16" d="M141.6,317.3c0,0.4-0.3,0.8-0.8,0.8c-0.5,0-0.8-0.3-0.8-0.8c0-0.4,0.3-0.8,0.8-0.8
				C141.3,316.6,141.6,316.9,141.6,317.3z M140.1,324.4v-5.5h1.4v5.5H140.1z"/>
			<path class="st16" d="M148.1,318.9c0,0.4,0,0.8,0,1.6v3.1c0,1.2-0.2,2-0.8,2.5c-0.6,0.5-1.4,0.7-2.1,0.7c-0.7,0-1.5-0.1-1.9-0.4
				l0.3-1.1c0.4,0.2,0.9,0.4,1.6,0.4c0.9,0,1.6-0.5,1.6-1.7v-0.5h0c-0.3,0.5-0.9,0.8-1.6,0.8c-1.4,0-2.4-1.1-2.4-2.7
				c0-1.8,1.2-2.9,2.5-2.9c0.8,0,1.3,0.4,1.6,0.9h0l0.1-0.7H148.1z M146.7,321.1c0-0.1,0-0.3,0-0.4c-0.1-0.5-0.5-0.9-1.1-0.9
				c-0.8,0-1.4,0.7-1.4,1.8c0,0.9,0.5,1.7,1.4,1.7c0.5,0,1-0.3,1.1-0.8c0-0.1,0.1-0.3,0.1-0.5V321.1z"/>
			<path class="st16" d="M149.5,320.5c0-0.6,0-1.2,0-1.7h1.2l0.1,0.8h0c0.2-0.4,0.8-1,1.8-1c1,0,2,0.6,2,2.4v3.3h-1.4v-3.1
				c0-0.8-0.3-1.4-1.1-1.4c-0.6,0-0.9,0.4-1.1,0.8c0,0.1-0.1,0.3-0.1,0.5v3.3h-1.4V320.5z"/>
			<path class="st16" d="M159.2,324.4l-0.1-0.6h0c-0.3,0.4-0.9,0.7-1.6,0.7c-1.1,0-1.7-0.8-1.7-1.7c0-1.4,1.2-2.1,3.3-2.1v-0.1
				c0-0.4-0.1-1-1.1-1c-0.5,0-1.1,0.2-1.5,0.4l-0.3-0.9c0.4-0.3,1.1-0.5,2-0.5c1.8,0,2.3,1.1,2.3,2.3v2c0,0.5,0,1,0.1,1.3H159.2z
				 M159,321.7c-1,0-1.9,0.2-1.9,1c0,0.5,0.4,0.8,0.8,0.8c0.6,0,1-0.4,1.1-0.8c0-0.1,0-0.2,0-0.3V321.7z"/>
			<path class="st16" d="M161.8,316.3h1.4v8.1h-1.4V316.3z"/>
			<path class="st16" d="M172.2,316.3v6.5c0,0.6,0,1.2,0,1.6H171l-0.1-0.9h0c-0.3,0.6-1,1-1.8,1c-1.3,0-2.4-1.1-2.4-2.8
				c0-1.9,1.1-3,2.5-3c0.8,0,1.3,0.3,1.6,0.7h0v-3.1H172.2z M170.8,321.2c0-0.1,0-0.3,0-0.4c-0.1-0.5-0.6-1-1.2-1
				c-0.9,0-1.4,0.8-1.4,1.8c0,1,0.5,1.8,1.4,1.8c0.6,0,1.1-0.4,1.2-1c0-0.1,0-0.3,0-0.4V321.2z"/>
			<path class="st16" d="M174.7,322c0,1,0.8,1.4,1.7,1.4c0.6,0,1.1-0.1,1.5-0.3l0.2,1c-0.5,0.2-1.1,0.3-1.9,0.3
				c-1.8,0-2.9-1.1-2.9-2.8c0-1.5,0.9-3,2.7-3c1.8,0,2.4,1.5,2.4,2.7c0,0.3,0,0.5,0,0.6H174.7z M177.1,321.1c0-0.5-0.2-1.4-1.1-1.4
				c-0.9,0-1.2,0.8-1.3,1.4H177.1z"/>
			<path class="st16" d="M181.2,317.3v1.6h1.3v1h-1.3v2.4c0,0.7,0.2,1,0.7,1c0.2,0,0.4,0,0.5-0.1l0,1.1c-0.2,0.1-0.6,0.1-1,0.1
				c-0.5,0-0.9-0.2-1.2-0.5c-0.3-0.3-0.4-0.8-0.4-1.5v-2.6H179v-1h0.8v-1.3L181.2,317.3z"/>
			<path class="st16" d="M184.5,322c0,1,0.8,1.4,1.7,1.4c0.6,0,1.1-0.1,1.5-0.3l0.2,1c-0.5,0.2-1.1,0.3-1.9,0.3
				c-1.8,0-2.9-1.1-2.9-2.8c0-1.5,0.9-3,2.7-3c1.8,0,2.4,1.5,2.4,2.7c0,0.3,0,0.5,0,0.6H184.5z M186.9,321.1c0-0.5-0.2-1.4-1.1-1.4
				c-0.9,0-1.2,0.8-1.3,1.4H186.9z"/>
			<path class="st16" d="M193.5,324.3c-0.3,0.1-0.9,0.3-1.6,0.3c-1.7,0-2.9-1.1-2.9-2.8c0-1.7,1.1-3,3.1-3c0.5,0,1,0.1,1.4,0.3
				l-0.3,1c-0.2-0.1-0.6-0.2-1.1-0.2c-1.1,0-1.7,0.8-1.7,1.8c0,1.1,0.7,1.8,1.7,1.8c0.5,0,0.8-0.1,1.1-0.2L193.5,324.3z"/>
			<path class="st16" d="M196.3,317.3v1.6h1.3v1h-1.3v2.4c0,0.7,0.2,1,0.7,1c0.2,0,0.4,0,0.5-0.1l0,1.1c-0.2,0.1-0.6,0.1-1,0.1
				c-0.5,0-0.9-0.2-1.2-0.5c-0.3-0.3-0.4-0.8-0.4-1.5v-2.6h-0.8v-1h0.8v-1.3L196.3,317.3z"/>
			<path class="st16" d="M200.2,317.3c0,0.4-0.3,0.8-0.8,0.8c-0.5,0-0.8-0.3-0.8-0.8c0-0.4,0.3-0.8,0.8-0.8
				C199.9,316.6,200.2,316.9,200.2,317.3z M198.7,324.4v-5.5h1.4v5.5H198.7z"/>
			<path class="st16" d="M206.9,321.6c0,2-1.4,2.9-2.8,2.9c-1.6,0-2.8-1.1-2.8-2.9c0-1.8,1.2-2.9,2.9-2.9
				C205.8,318.8,206.9,319.9,206.9,321.6z M202.7,321.7c0,1.1,0.5,1.9,1.4,1.9c0.8,0,1.4-0.8,1.4-1.9c0-0.9-0.4-1.9-1.3-1.9
				C203.1,319.8,202.7,320.7,202.7,321.7z"/>
			<path class="st16" d="M208,320.5c0-0.6,0-1.2,0-1.7h1.2l0.1,0.8h0c0.2-0.4,0.8-1,1.8-1c1,0,2,0.6,2,2.4v3.3h-1.4v-3.1
				c0-0.8-0.3-1.4-1.1-1.4c-0.6,0-0.9,0.4-1.1,0.8c0,0.1-0.1,0.3-0.1,0.5v3.3H208V320.5z"/>
		</g>
	</g>
	<g>
		<g>
			<path class="st16" d="M61.4,232.4c-0.5,0.2-1.4,0.4-2.5,0.4c-1.3,0-2.3-0.3-3-1c-0.7-0.6-1.1-1.7-1.1-2.8c0-2.4,1.7-4,4.3-4
				c0.9,0,1.7,0.2,2,0.4l-0.3,1.1c-0.4-0.2-0.9-0.3-1.7-0.3c-1.6,0-2.8,1-2.8,2.8c0,1.7,1.1,2.8,2.7,2.8c0.5,0,0.9-0.1,1.1-0.2v-1.9
				h-1.4v-1.1h2.7V232.4z"/>
			<path class="st16" d="M62.9,224.7h1.4v8.1h-1.4V224.7z"/>
			<path class="st16" d="M71.1,229.9c0,2-1.4,2.9-2.8,2.9c-1.6,0-2.8-1.1-2.8-2.9c0-1.8,1.2-2.9,2.9-2.9
				C69.9,227.1,71.1,228.2,71.1,229.9z M66.9,230c0,1.1,0.5,1.9,1.4,1.9c0.8,0,1.4-0.8,1.4-1.9c0-0.9-0.4-1.9-1.3-1.9
				C67.3,228.1,66.9,229.1,66.9,230z"/>
			<path class="st16" d="M72.2,232.7c0-0.4,0-1,0-1.6v-6.5h1.4v3.3h0c0.3-0.5,0.9-0.9,1.8-0.9c1.4,0,2.3,1.1,2.3,2.8
				c0,2-1.3,3-2.5,3c-0.7,0-1.4-0.3-1.8-1h0l-0.1,0.8H72.2z M73.6,230.5c0,0.1,0,0.2,0,0.3c0.1,0.6,0.6,1,1.2,1
				c0.9,0,1.4-0.7,1.4-1.8c0-1-0.5-1.8-1.4-1.8c-0.6,0-1.1,0.4-1.2,1c0,0.1,0,0.2,0,0.4V230.5z"/>
			<path class="st16" d="M82,232.7l-0.1-0.6h0c-0.3,0.4-0.9,0.7-1.6,0.7c-1.1,0-1.7-0.8-1.7-1.7c0-1.4,1.2-2.1,3.3-2.1V229
				c0-0.4-0.1-1-1.1-1c-0.5,0-1.1,0.2-1.5,0.4l-0.3-0.9c0.4-0.3,1.1-0.5,2-0.5c1.8,0,2.3,1.1,2.3,2.3v2c0,0.5,0,1,0.1,1.3H82z
				 M81.8,230c-1,0-1.9,0.2-1.9,1c0,0.5,0.4,0.8,0.8,0.8c0.6,0,1-0.4,1.1-0.8c0-0.1,0-0.2,0-0.3V230z"/>
			<path class="st16" d="M84.6,224.7h1.4v8.1h-1.4V224.7z"/>
			<path class="st16" d="M43.4,243.1c0.3,0.2,0.9,0.4,1.4,0.4c0.6,0,0.9-0.3,0.9-0.6c0-0.4-0.2-0.6-0.9-0.8c-1.1-0.4-1.5-1-1.5-1.6
				c0-1,0.8-1.7,2.1-1.7c0.6,0,1.1,0.2,1.5,0.3l-0.3,1c-0.2-0.1-0.7-0.3-1.2-0.3c-0.5,0-0.8,0.2-0.8,0.6c0,0.4,0.3,0.5,1,0.8
				c1,0.4,1.5,0.9,1.5,1.7c0,1-0.8,1.7-2.3,1.7c-0.7,0-1.3-0.2-1.7-0.4L43.4,243.1z"/>
			<path class="st16" d="M53.2,242.8c0,0.7,0,1.2,0,1.7H52l-0.1-0.8h0c-0.2,0.4-0.8,1-1.8,1c-1,0-1.9-0.6-1.9-2.4v-3.3h1.4v3
				c0,0.9,0.3,1.5,1,1.5c0.6,0,0.9-0.4,1.1-0.8c0-0.1,0.1-0.3,0.1-0.4v-3.3h1.4V242.8z"/>
			<path class="st16" d="M54.7,244.4c0-0.4,0-1,0-1.6v-6.5h1.4v3.3h0c0.3-0.5,0.9-0.9,1.8-0.9c1.4,0,2.3,1.1,2.3,2.8
				c0,2-1.3,3-2.5,3c-0.7,0-1.4-0.3-1.8-1h0l-0.1,0.8H54.7z M56.1,242.1c0,0.1,0,0.2,0,0.3c0.1,0.6,0.6,1,1.2,1
				c0.9,0,1.4-0.7,1.4-1.8c0-1-0.5-1.8-1.4-1.8c-0.6,0-1.1,0.4-1.2,1c0,0.1,0,0.2,0,0.4V242.1z"/>
			<path class="st16" d="M61.4,240.5c0-0.6,0-1.2,0-1.7h1.2l0.1,0.8h0c0.3-0.4,0.8-0.9,1.7-0.9c0.7,0,1.3,0.4,1.5,1h0
				c0.2-0.3,0.4-0.5,0.7-0.7c0.3-0.2,0.7-0.3,1.1-0.3c0.9,0,1.9,0.6,1.9,2.4v3.3h-1.4v-3.1c0-0.9-0.3-1.5-1-1.5
				c-0.5,0-0.8,0.3-1,0.7c0,0.1-0.1,0.3-0.1,0.5v3.3h-1.4v-3.2c0-0.8-0.3-1.3-1-1.3c-0.5,0-0.9,0.4-1,0.8c-0.1,0.1-0.1,0.3-0.1,0.5
				v3.3h-1.4V240.5z"/>
			<path class="st16" d="M72.5,237.3c0,0.4-0.3,0.8-0.8,0.8c-0.5,0-0.8-0.3-0.8-0.8c0-0.4,0.3-0.8,0.8-0.8
				C72.2,236.6,72.5,236.9,72.5,237.3z M71,244.4v-5.5h1.4v5.5H71z"/>
			<path class="st16" d="M73.9,243.1c0.3,0.2,0.9,0.4,1.4,0.4c0.6,0,0.9-0.3,0.9-0.6c0-0.4-0.2-0.6-0.9-0.8c-1.1-0.4-1.5-1-1.5-1.6
				c0-1,0.8-1.7,2.1-1.7c0.6,0,1.1,0.2,1.5,0.3l-0.3,1c-0.2-0.1-0.7-0.3-1.2-0.3c-0.5,0-0.8,0.2-0.8,0.6c0,0.4,0.3,0.5,1,0.8
				c1,0.4,1.5,0.9,1.5,1.7c0,1-0.8,1.7-2.3,1.7c-0.7,0-1.3-0.2-1.7-0.4L73.9,243.1z"/>
			<path class="st16" d="M78.6,243.1c0.3,0.2,0.9,0.4,1.4,0.4c0.6,0,0.9-0.3,0.9-0.6c0-0.4-0.2-0.6-0.9-0.8c-1.1-0.4-1.5-1-1.5-1.6
				c0-1,0.8-1.7,2.1-1.7c0.6,0,1.1,0.2,1.5,0.3l-0.3,1c-0.2-0.1-0.7-0.3-1.2-0.3c-0.5,0-0.8,0.2-0.8,0.6c0,0.4,0.3,0.5,1,0.8
				c1,0.4,1.5,0.9,1.5,1.7c0,1-0.8,1.7-2.3,1.7c-0.7,0-1.3-0.2-1.7-0.4L78.6,243.1z"/>
			<path class="st16" d="M85,237.3c0,0.4-0.3,0.8-0.8,0.8c-0.5,0-0.8-0.3-0.8-0.8c0-0.4,0.3-0.8,0.8-0.8
				C84.6,236.6,84.9,236.9,85,237.3z M83.5,244.4v-5.5h1.4v5.5H83.5z"/>
			<path class="st16" d="M91.6,241.6c0,2-1.4,2.9-2.8,2.9c-1.6,0-2.8-1.1-2.8-2.9c0-1.8,1.2-2.9,2.9-2.9
				C90.5,238.7,91.6,239.9,91.6,241.6z M87.5,241.7c0,1.1,0.5,1.9,1.4,1.9c0.8,0,1.4-0.8,1.4-1.9c0-0.9-0.4-1.9-1.3-1.9
				C87.9,239.8,87.5,240.7,87.5,241.7z"/>
			<path class="st16" d="M92.8,240.5c0-0.6,0-1.2,0-1.7H94l0.1,0.8h0c0.2-0.4,0.8-1,1.8-1c1,0,2,0.6,2,2.4v3.3h-1.4v-3.1
				c0-0.8-0.3-1.4-1.1-1.4c-0.6,0-0.9,0.4-1.1,0.8c0,0.1-0.1,0.3-0.1,0.5v3.3h-1.4V240.5z"/>
		</g>
	</g>
	<g>
		<g>
			<path class="st16" d="M78.6,103.9c0.5,0.3,1.1,0.5,1.9,0.5c0.9,0,1.4-0.4,1.4-1c0-0.6-0.4-0.9-1.4-1.3c-1.3-0.5-2.1-1.1-2.1-2.2
				c0-1.3,1-2.2,2.7-2.2c0.8,0,1.4,0.2,1.8,0.4l-0.3,1.1c-0.3-0.1-0.8-0.4-1.5-0.4c-0.9,0-1.3,0.5-1.3,0.9c0,0.6,0.4,0.9,1.5,1.3
				c1.3,0.5,2,1.2,2,2.3c0,1.2-0.9,2.3-2.9,2.3c-0.8,0-1.7-0.2-2.1-0.5L78.6,103.9z"/>
			<path class="st16" d="M87.7,105.4l-0.1-0.6h0c-0.3,0.4-0.9,0.7-1.6,0.7c-1.1,0-1.7-0.8-1.7-1.7c0-1.4,1.2-2.1,3.3-2.1v-0.1
				c0-0.4-0.1-1-1.1-1c-0.5,0-1.1,0.2-1.5,0.4l-0.3-0.9c0.4-0.3,1.1-0.5,2-0.5c1.8,0,2.3,1.1,2.3,2.3v2c0,0.5,0,1,0.1,1.3H87.7z
				 M87.5,102.7c-1,0-1.9,0.2-1.9,1c0,0.5,0.4,0.8,0.8,0.8c0.6,0,1-0.4,1.1-0.8c0-0.1,0-0.2,0-0.3V102.7z"/>
			<path class="st16" d="M90.5,105.4v-4.5h-0.8v-1h0.8v-0.2c0-0.7,0.2-1.4,0.7-1.9c0.4-0.4,1-0.5,1.4-0.5c0.4,0,0.7,0.1,0.9,0.1
				l-0.1,1.1c-0.1-0.1-0.3-0.1-0.6-0.1c-0.7,0-0.9,0.6-0.9,1.3v0.3h1.2v1h-1.2v4.5H90.5z"/>
			<path class="st16" d="M94.8,103c0,1,0.8,1.4,1.7,1.4c0.6,0,1.1-0.1,1.5-0.3l0.2,1c-0.5,0.2-1.1,0.3-1.9,0.3
				c-1.8,0-2.9-1.1-2.9-2.8c0-1.5,0.9-3,2.7-3c1.8,0,2.4,1.5,2.4,2.7c0,0.3,0,0.5,0,0.6H94.8z M97.3,102c0-0.5-0.2-1.4-1.1-1.4
				c-0.9,0-1.2,0.8-1.3,1.4H97.3z"/>
			<path class="st16" d="M101.3,98.2v1.6h1.3v1h-1.3v2.4c0,0.7,0.2,1,0.7,1c0.2,0,0.4,0,0.5-0.1l0,1.1c-0.2,0.1-0.6,0.1-1,0.1
				c-0.5,0-0.9-0.2-1.2-0.5c-0.3-0.3-0.4-0.8-0.4-1.5v-2.6h-0.8v-1h0.8v-1.3L101.3,98.2z"/>
			<path class="st16" d="M104.7,99.8l1,3c0.1,0.3,0.2,0.8,0.3,1.1h0c0.1-0.3,0.2-0.7,0.3-1.1l0.9-3h1.5l-1.4,3.8
				c-0.8,2.1-1.3,3-1.9,3.6c-0.5,0.5-1.1,0.7-1.5,0.7l-0.3-1.2c0.2-0.1,0.5-0.2,0.8-0.4c0.3-0.2,0.6-0.5,0.8-0.9
				c0.1-0.1,0.1-0.2,0.1-0.3c0-0.1,0-0.1-0.1-0.3l-2-5.1H104.7z"/>
			<path class="st16" d="M116.9,97.3v6.5c0,0.6,0,1.2,0,1.6h-1.3l-0.1-0.9h0c-0.3,0.6-1,1-1.8,1c-1.3,0-2.4-1.1-2.4-2.8
				c0-1.9,1.1-3,2.5-3c0.8,0,1.3,0.3,1.6,0.7h0v-3.1H116.9z M115.5,102.1c0-0.1,0-0.3,0-0.4c-0.1-0.5-0.6-1-1.2-1
				c-0.9,0-1.4,0.8-1.4,1.8c0,1,0.5,1.8,1.4,1.8c0.6,0,1.1-0.4,1.2-1c0-0.1,0-0.3,0-0.4V102.1z"/>
			<path class="st16" d="M121.6,105.4l-0.1-0.6h0c-0.3,0.4-0.9,0.7-1.6,0.7c-1.1,0-1.7-0.8-1.7-1.7c0-1.4,1.2-2.1,3.3-2.1v-0.1
				c0-0.4-0.1-1-1.1-1c-0.5,0-1.1,0.2-1.5,0.4l-0.3-0.9c0.4-0.3,1.1-0.5,2-0.5c1.8,0,2.3,1.1,2.3,2.3v2c0,0.5,0,1,0.1,1.3H121.6z
				 M121.4,102.7c-1,0-1.9,0.2-1.9,1c0,0.5,0.4,0.8,0.8,0.8c0.6,0,1-0.4,1.1-0.8c0-0.1,0-0.2,0-0.3V102.7z"/>
			<path class="st16" d="M125.8,98.2v1.6h1.3v1h-1.3v2.4c0,0.7,0.2,1,0.7,1c0.2,0,0.4,0,0.5-0.1l0,1.1c-0.2,0.1-0.6,0.1-1,0.1
				c-0.5,0-0.9-0.2-1.2-0.5c-0.3-0.3-0.4-0.8-0.4-1.5v-2.6h-0.8v-1h0.8v-1.3L125.8,98.2z"/>
			<path class="st16" d="M131.3,105.4l-0.1-0.6h0c-0.3,0.4-0.9,0.7-1.6,0.7c-1.1,0-1.7-0.8-1.7-1.7c0-1.4,1.2-2.1,3.3-2.1v-0.1
				c0-0.4-0.1-1-1.1-1c-0.5,0-1.1,0.2-1.5,0.4l-0.3-0.9c0.4-0.3,1.1-0.5,2-0.5c1.8,0,2.3,1.1,2.3,2.3v2c0,0.5,0,1,0.1,1.3H131.3z
				 M131.1,102.7c-1,0-1.9,0.2-1.9,1c0,0.5,0.4,0.8,0.8,0.8c0.6,0,1-0.4,1.1-0.8c0-0.1,0-0.2,0-0.3V102.7z"/>
			<path class="st16" d="M83.5,114.7c0,1,0.8,1.4,1.7,1.4c0.6,0,1.1-0.1,1.5-0.3l0.2,1c-0.5,0.2-1.1,0.3-1.9,0.3
				c-1.8,0-2.9-1.1-2.9-2.8c0-1.5,0.9-3,2.7-3c1.8,0,2.4,1.5,2.4,2.7c0,0.3,0,0.5,0,0.6H83.5z M85.9,113.7c0-0.5-0.2-1.4-1.1-1.4
				c-0.9,0-1.2,0.8-1.3,1.4H85.9z"/>
			<path class="st16" d="M89.2,111.5l0.7,1c0.2,0.3,0.3,0.6,0.5,0.9h0c0.2-0.3,0.3-0.6,0.5-0.9l0.6-1H93l-1.9,2.7l1.9,2.9h-1.6
				l-0.7-1.1c-0.2-0.3-0.3-0.6-0.5-0.9h0c-0.2,0.3-0.3,0.6-0.5,0.9l-0.6,1.1h-1.5l1.9-2.8l-1.9-2.7H89.2z"/>
			<path class="st16" d="M97.8,116.9c-0.3,0.1-0.9,0.3-1.6,0.3c-1.7,0-2.9-1.1-2.9-2.8c0-1.7,1.1-3,3.1-3c0.5,0,1,0.1,1.4,0.3
				l-0.3,1c-0.2-0.1-0.6-0.2-1.1-0.2c-1.1,0-1.7,0.8-1.7,1.8c0,1.1,0.7,1.8,1.7,1.8c0.5,0,0.8-0.1,1.1-0.2L97.8,116.9z"/>
			<path class="st16" d="M98.8,109h1.4v3.3h0c0.2-0.3,0.4-0.5,0.7-0.6c0.3-0.2,0.6-0.3,1-0.3c0.9,0,1.9,0.6,1.9,2.4v3.3h-1.4v-3.1
				c0-0.8-0.3-1.4-1.1-1.4c-0.5,0-0.9,0.4-1.1,0.8c0,0.1-0.1,0.3-0.1,0.4v3.3h-1.4V109z"/>
			<path class="st16" d="M108.4,117.1l-0.1-0.6h0c-0.3,0.4-0.9,0.7-1.6,0.7c-1.1,0-1.7-0.8-1.7-1.7c0-1.4,1.2-2.1,3.3-2.1v-0.1
				c0-0.4-0.1-1-1.1-1c-0.5,0-1.1,0.2-1.5,0.4l-0.3-0.9c0.4-0.3,1.1-0.5,2-0.5c1.8,0,2.3,1.1,2.3,2.3v2c0,0.5,0,1,0.1,1.3H108.4z
				 M108.2,114.3c-1,0-1.9,0.2-1.9,1c0,0.5,0.4,0.8,0.8,0.8c0.6,0,1-0.4,1.1-0.8c0-0.1,0-0.2,0-0.3V114.3z"/>
			<path class="st16" d="M111.1,113.2c0-0.6,0-1.2,0-1.7h1.2l0.1,0.8h0c0.2-0.4,0.8-1,1.8-1c1,0,2,0.6,2,2.4v3.3h-1.4v-3.1
				c0-0.8-0.3-1.4-1.1-1.4c-0.6,0-0.9,0.4-1.1,0.8c0,0.1-0.1,0.3-0.1,0.5v3.3h-1.4V113.2z"/>
			<path class="st16" d="M122.7,111.5c0,0.4,0,0.8,0,1.6v3.1c0,1.2-0.2,2-0.8,2.5c-0.6,0.5-1.4,0.7-2.1,0.7c-0.7,0-1.5-0.1-1.9-0.4
				l0.3-1.1c0.4,0.2,0.9,0.4,1.6,0.4c0.9,0,1.6-0.5,1.6-1.7v-0.5h0c-0.3,0.5-0.9,0.8-1.6,0.8c-1.4,0-2.4-1.1-2.4-2.7
				c0-1.8,1.2-2.9,2.5-2.9c0.8,0,1.3,0.4,1.6,0.9h0l0.1-0.7H122.7z M121.2,113.7c0-0.1,0-0.3,0-0.4c-0.1-0.5-0.5-0.9-1.1-0.9
				c-0.8,0-1.4,0.7-1.4,1.8c0,0.9,0.5,1.7,1.4,1.7c0.5,0,1-0.3,1.1-0.8c0-0.1,0.1-0.3,0.1-0.5V113.7z"/>
			<path class="st16" d="M125.1,114.7c0,1,0.8,1.4,1.7,1.4c0.6,0,1.1-0.1,1.5-0.3l0.2,1c-0.5,0.2-1.1,0.3-1.9,0.3
				c-1.8,0-2.9-1.1-2.9-2.8c0-1.5,0.9-3,2.7-3c1.8,0,2.4,1.5,2.4,2.7c0,0.3,0,0.5,0,0.6H125.1z M127.6,113.7c0-0.5-0.2-1.4-1.1-1.4
				c-0.9,0-1.2,0.8-1.3,1.4H127.6z"/>
		</g>
	</g>
	<g>
		<g>
			<path class="st16" d="M234.1,103.9c0.5,0.3,1.1,0.5,1.9,0.5c0.9,0,1.4-0.4,1.4-1c0-0.6-0.4-0.9-1.4-1.3c-1.3-0.5-2.1-1.1-2.1-2.2
				c0-1.3,1-2.2,2.7-2.2c0.8,0,1.4,0.2,1.8,0.4l-0.3,1.1c-0.3-0.1-0.8-0.4-1.5-0.4c-0.9,0-1.3,0.5-1.3,0.9c0,0.6,0.4,0.9,1.5,1.3
				c1.3,0.5,2,1.2,2,2.3c0,1.2-0.9,2.3-2.9,2.3c-0.8,0-1.7-0.2-2.1-0.5L234.1,103.9z"/>
			<path class="st16" d="M241.6,103.2l-0.7,2.2h-1.4l2.5-7.7h1.8l2.5,7.7h-1.5l-0.7-2.2H241.6z M243.8,102.1l-0.6-1.9
				c-0.1-0.5-0.3-1-0.4-1.4h0c-0.1,0.4-0.2,1-0.4,1.4l-0.6,1.9H243.8z"/>
			<path class="st16" d="M251.6,102h-2.9v2.3h3.2v1.1h-4.6v-7.7h4.5v1.1h-3.1v2h2.9V102z"/>
			<path class="st16" d="M208.8,109.5c0.5-0.1,1.3-0.2,2.1-0.2c1.1,0,1.9,0.2,2.4,0.6c0.4,0.4,0.7,0.9,0.7,1.5c0,1-0.7,1.7-1.4,1.9
				v0c0.5,0.2,0.9,0.7,1.1,1.5c0.2,1,0.4,1.8,0.6,2.1h-1.4c-0.1-0.2-0.3-0.9-0.5-1.8c-0.2-1-0.6-1.3-1.4-1.3h-0.7v3.2h-1.4V109.5z
				 M210.1,112.9h0.8c0.9,0,1.5-0.5,1.5-1.3c0-0.8-0.6-1.2-1.5-1.2c-0.4,0-0.7,0-0.9,0.1V112.9z"/>
			<path class="st16" d="M216.2,114.7c0,1,0.8,1.4,1.7,1.4c0.6,0,1.1-0.1,1.5-0.3l0.2,1c-0.5,0.2-1.1,0.3-1.9,0.3
				c-1.8,0-2.9-1.1-2.9-2.8c0-1.5,0.9-3,2.7-3c1.8,0,2.4,1.5,2.4,2.7c0,0.3,0,0.5,0,0.6H216.2z M218.6,113.7c0-0.5-0.2-1.4-1.2-1.4
				c-0.9,0-1.2,0.8-1.3,1.4H218.6z"/>
			<path class="st16" d="M225.2,116.9c-0.3,0.1-0.9,0.3-1.6,0.3c-1.7,0-2.9-1.1-2.9-2.8c0-1.7,1.1-3,3.1-3c0.5,0,1,0.1,1.4,0.3
				l-0.3,1c-0.2-0.1-0.6-0.2-1.1-0.2c-1.1,0-1.7,0.8-1.7,1.8c0,1.1,0.7,1.8,1.7,1.8c0.5,0,0.8-0.1,1.1-0.2L225.2,116.9z"/>
			<path class="st16" d="M231.4,114.2c0,2-1.4,2.9-2.8,2.9c-1.6,0-2.8-1.1-2.8-2.9c0-1.8,1.2-2.9,2.9-2.9
				C230.3,111.4,231.4,112.5,231.4,114.2z M227.2,114.3c0,1.1,0.5,1.9,1.4,1.9c0.8,0,1.4-0.8,1.4-1.9c0-0.9-0.4-1.9-1.3-1.9
				C227.6,112.4,227.2,113.4,227.2,114.3z"/>
			<path class="st16" d="M232.5,113.2c0-0.6,0-1.2,0-1.7h1.2l0.1,0.8h0c0.2-0.4,0.8-1,1.8-1c1,0,2,0.6,2,2.4v3.3h-1.4v-3.1
				c0-0.8-0.3-1.4-1.1-1.4c-0.6,0-0.9,0.4-1.1,0.8c0,0.1-0.1,0.3-0.1,0.5v3.3h-1.4V113.2z"/>
			<path class="st16" d="M243.1,116.9c-0.3,0.1-0.9,0.3-1.6,0.3c-1.7,0-2.9-1.1-2.9-2.8c0-1.7,1.1-3,3.1-3c0.5,0,1,0.1,1.4,0.3
				l-0.3,1c-0.2-0.1-0.6-0.2-1.1-0.2c-1.1,0-1.7,0.8-1.7,1.8c0,1.1,0.7,1.8,1.7,1.8c0.5,0,0.8-0.1,1.1-0.2L243.1,116.9z"/>
			<path class="st16" d="M245.6,110c0,0.4-0.3,0.8-0.8,0.8c-0.5,0-0.8-0.3-0.8-0.8c0-0.4,0.3-0.8,0.8-0.8
				C245.3,109.2,245.6,109.5,245.6,110z M244.1,117.1v-5.5h1.4v5.5H244.1z"/>
			<path class="st16" d="M247.1,109h1.4v8.1h-1.4V109z"/>
			<path class="st16" d="M251.5,110c0,0.4-0.3,0.8-0.8,0.8c-0.5,0-0.8-0.3-0.8-0.8c0-0.4,0.3-0.8,0.8-0.8
				C251.2,109.2,251.5,109.5,251.5,110z M250,117.1v-5.5h1.4v5.5H250z"/>
			<path class="st16" d="M256,117.1l-0.1-0.6h0c-0.3,0.4-0.9,0.7-1.6,0.7c-1.1,0-1.7-0.8-1.7-1.7c0-1.4,1.2-2.1,3.3-2.1v-0.1
				c0-0.4-0.1-1-1.1-1c-0.5,0-1.1,0.2-1.5,0.4l-0.3-0.9c0.4-0.3,1.1-0.5,2-0.5c1.8,0,2.3,1.1,2.3,2.3v2c0,0.5,0,1,0.1,1.3H256z
				 M255.8,114.3c-1,0-1.9,0.2-1.9,1c0,0.5,0.4,0.8,0.8,0.8c0.6,0,1-0.4,1.1-0.8c0-0.1,0-0.2,0-0.3V114.3z"/>
			<path class="st16" d="M260.2,109.9v1.6h1.3v1h-1.3v2.4c0,0.7,0.2,1,0.7,1c0.2,0,0.4,0,0.5-0.1l0,1.1c-0.2,0.1-0.6,0.1-1,0.1
				c-0.5,0-0.9-0.2-1.2-0.5c-0.3-0.3-0.4-0.8-0.4-1.5v-2.6h-0.8v-1h0.8v-1.3L260.2,109.9z"/>
			<path class="st16" d="M264.1,110c0,0.4-0.3,0.8-0.8,0.8c-0.5,0-0.8-0.3-0.8-0.8c0-0.4,0.3-0.8,0.8-0.8
				C263.8,109.2,264.1,109.5,264.1,110z M262.6,117.1v-5.5h1.4v5.5H262.6z"/>
			<path class="st16" d="M270.8,114.2c0,2-1.4,2.9-2.8,2.9c-1.6,0-2.8-1.1-2.8-2.9c0-1.8,1.2-2.9,2.9-2.9
				C269.7,111.4,270.8,112.5,270.8,114.2z M266.6,114.3c0,1.1,0.5,1.9,1.4,1.9c0.8,0,1.4-0.8,1.4-1.9c0-0.9-0.4-1.9-1.3-1.9
				C267,112.4,266.6,113.4,266.6,114.3z"/>
			<path class="st16" d="M271.9,113.2c0-0.6,0-1.2,0-1.7h1.2l0.1,0.8h0c0.2-0.4,0.8-1,1.8-1c1,0,2,0.6,2,2.4v3.3h-1.4v-3.1
				c0-0.8-0.3-1.4-1.1-1.4c-0.6,0-0.9,0.4-1.1,0.8c0,0.1-0.1,0.3-0.1,0.5v3.3h-1.4V113.2z"/>
		</g>
	</g>
	<g>
		<g>
			<path class="st16" d="M255.5,225.2c0.6-0.1,1.4-0.2,2.2-0.2c1.4,0,2.4,0.3,3.1,0.9c0.7,0.6,1.2,1.5,1.2,2.8
				c0,1.4-0.5,2.4-1.2,3.1c-0.8,0.7-2,1-3.5,1c-0.8,0-1.4,0-1.9-0.1V225.2z M256.9,231.7c0.2,0,0.5,0,0.8,0c1.8,0,2.9-1,2.9-2.9
				c0-1.7-1-2.7-2.7-2.7c-0.4,0-0.8,0-1,0.1V231.7z"/>
			<path class="st16" d="M268.4,229.9c0,2-1.4,2.9-2.8,2.9c-1.6,0-2.8-1.1-2.8-2.9c0-1.8,1.2-2.9,2.9-2.9
				C267.3,227.1,268.4,228.2,268.4,229.9z M264.3,230c0,1.1,0.5,1.9,1.4,1.9c0.8,0,1.4-0.8,1.4-1.9c0-0.9-0.4-1.9-1.3-1.9
				C264.7,228.1,264.3,229.1,264.3,230z"/>
			<path class="st16" d="M273.7,232.6c-0.3,0.1-0.9,0.3-1.6,0.3c-1.7,0-2.9-1.1-2.9-2.8c0-1.7,1.1-3,3.1-3c0.5,0,1,0.1,1.4,0.3
				l-0.3,1c-0.2-0.1-0.6-0.2-1.1-0.2c-1.1,0-1.7,0.8-1.7,1.8c0,1.1,0.7,1.8,1.7,1.8c0.5,0,0.8-0.1,1.1-0.2L273.7,232.6z"/>
			<path class="st16" d="M279.7,231.1c0,0.7,0,1.2,0,1.7h-1.2l-0.1-0.8h0c-0.2,0.4-0.8,1-1.8,1c-1,0-1.9-0.6-1.9-2.4v-3.3h1.4v3
				c0,0.9,0.3,1.5,1,1.5c0.6,0,0.9-0.4,1.1-0.8c0-0.1,0.1-0.3,0.1-0.4v-3.3h1.4V231.1z"/>
			<path class="st16" d="M281.2,228.8c0-0.6,0-1.2,0-1.7h1.2l0.1,0.8h0c0.3-0.4,0.8-0.9,1.7-0.9c0.7,0,1.3,0.4,1.5,1h0
				c0.2-0.3,0.4-0.5,0.7-0.7c0.3-0.2,0.7-0.3,1.1-0.3c0.9,0,1.9,0.6,1.9,2.4v3.3H288v-3.1c0-0.9-0.3-1.5-1-1.5c-0.5,0-0.8,0.3-1,0.7
				c0,0.1-0.1,0.3-0.1,0.5v3.3h-1.4v-3.2c0-0.8-0.3-1.3-1-1.3c-0.5,0-0.9,0.4-1,0.8c-0.1,0.1-0.1,0.3-0.1,0.5v3.3h-1.4V228.8z"/>
			<path class="st16" d="M291.8,230.4c0,1,0.8,1.4,1.7,1.4c0.6,0,1.1-0.1,1.5-0.3l0.2,1c-0.5,0.2-1.1,0.3-1.9,0.3
				c-1.8,0-2.9-1.1-2.9-2.8c0-1.5,0.9-3,2.7-3c1.8,0,2.4,1.5,2.4,2.7c0,0.3,0,0.5,0,0.6H291.8z M294.3,229.4c0-0.5-0.2-1.4-1.1-1.4
				c-0.9,0-1.2,0.8-1.3,1.4H294.3z"/>
			<path class="st16" d="M296.7,228.8c0-0.6,0-1.2,0-1.7h1.2l0.1,0.8h0c0.2-0.4,0.8-1,1.8-1c1,0,2,0.6,2,2.4v3.3h-1.4v-3.1
				c0-0.8-0.3-1.4-1.1-1.4c-0.6,0-0.9,0.4-1.1,0.8c0,0.1-0.1,0.3-0.1,0.5v3.3h-1.4V228.8z"/>
			<path class="st16" d="M304.8,225.6v1.6h1.3v1h-1.3v2.4c0,0.7,0.2,1,0.7,1c0.2,0,0.4,0,0.5-0.1l0,1.1c-0.2,0.1-0.6,0.1-1,0.1
				c-0.5,0-0.9-0.2-1.2-0.5c-0.3-0.3-0.4-0.8-0.4-1.5v-2.6h-0.8v-1h0.8v-1.3L304.8,225.6z"/>
			<path class="st16" d="M267.8,244.2c-0.3,0.1-0.9,0.3-1.6,0.3c-1.7,0-2.9-1.1-2.9-2.8c0-1.7,1.1-3,3.1-3c0.5,0,1,0.1,1.4,0.3
				l-0.3,1c-0.2-0.1-0.6-0.2-1.1-0.2c-1.1,0-1.7,0.8-1.7,1.8c0,1.1,0.7,1.8,1.7,1.8c0.5,0,0.8-0.1,1.1-0.2L267.8,244.2z"/>
			<path class="st16" d="M274,241.6c0,2-1.4,2.9-2.8,2.9c-1.6,0-2.8-1.1-2.8-2.9c0-1.8,1.2-2.9,2.9-2.9
				C272.9,238.7,274,239.9,274,241.6z M269.8,241.7c0,1.1,0.5,1.9,1.4,1.9c0.8,0,1.4-0.8,1.4-1.9c0-0.9-0.4-1.9-1.3-1.9
				C270.2,239.8,269.8,240.7,269.8,241.7z"/>
			<path class="st16" d="M275.1,240.5c0-0.6,0-1.2,0-1.7h1.2l0.1,0.8h0c0.2-0.4,0.8-1,1.8-1c1,0,2,0.6,2,2.4v3.3h-1.4v-3.1
				c0-0.8-0.3-1.4-1.1-1.4c-0.6,0-0.9,0.4-1.1,0.8c0,0.1-0.1,0.3-0.1,0.5v3.3h-1.4V240.5z"/>
			<path class="st16" d="M283.2,237.3v1.6h1.3v1h-1.3v2.4c0,0.7,0.2,1,0.7,1c0.2,0,0.4,0,0.5-0.1l0,1.1c-0.2,0.1-0.6,0.1-1,0.1
				c-0.5,0-0.9-0.2-1.2-0.5c-0.3-0.3-0.4-0.8-0.4-1.5v-2.6H281v-1h0.8v-1.3L283.2,237.3z"/>
			<path class="st16" d="M285.6,240.7c0-0.8,0-1.3,0-1.8h1.2l0,1.1h0c0.3-0.8,0.9-1.2,1.5-1.2c0.1,0,0.2,0,0.3,0v1.3
				c-0.1,0-0.2,0-0.4,0c-0.7,0-1.1,0.4-1.3,1.1c0,0.1,0,0.3,0,0.4v2.9h-1.4V240.7z"/>
			<path class="st16" d="M294.8,241.6c0,2-1.4,2.9-2.8,2.9c-1.6,0-2.8-1.1-2.8-2.9c0-1.8,1.2-2.9,2.9-2.9
				C293.7,238.7,294.8,239.9,294.8,241.6z M290.6,241.7c0,1.1,0.5,1.9,1.4,1.9c0.8,0,1.4-0.8,1.4-1.9c0-0.9-0.4-1.9-1.3-1.9
				C291,239.8,290.6,240.7,290.6,241.7z"/>
			<path class="st16" d="M296,236.3h1.4v8.1H296V236.3z"/>
		</g>
	</g>
	<path class="st15" d="M271.2,218.2c10.4-6.3,9-15.3,9-15.3c-5.6-0.5-9-4.1-9-4.1s-3.7,3.3-9,4.1
		C262.2,202.9,260.8,211.9,271.2,218.2z"/>
	<rect x="153.3" y="256.6" class="st18" width="7.6" height="7.6"/>
	<line class="st20" x1="153.3" y1="269.7" x2="160.9" y2="269.7"/>
	<polyline class="st18" points="163,275.2 166,275.2 168.9,266.2 172.5,275 176.1,275 178.1,269.5 179.9,275.2 183.2,275.2 
		186.1,262.7 189.2,275.2 193,275.2 	"/>
	<line class="st14" x1="56.5" y1="184.5" x2="69" y2="184.5"/>
	<line class="st14" x1="56.5" y1="191.7" x2="69" y2="191.7"/>
	<g id="XMLID_6_">
		<ellipse id="XMLID_70_" class="st14" cx="84.9" cy="183.3" rx="11.6" ry="11.9"/>
		<ellipse id="XMLID_69_" class="st14" cx="84.9" cy="183.3" rx="5.3" ry="11.9"/>
		<line id="XMLID_60_" class="st14" x1="73.3" y1="183.3" x2="96.6" y2="183.3"/>
		<path class="st21" d="M76.3,191.2c0,0,7.3-2.4,17.4,0"/>
		<path class="st21" d="M76.3,175.5c0,0,7.5,2.8,17.4,0"/>
	</g>
	<g>
		<g>
			<path class="st18" d="M261.6,73.7L244,43c-1.2-2-4-2-5.2,0l-21.2,36.7c-1.2,2,0.3,4.5,2.6,4.5H233"/>
			<g>
				<polygon class="st19" points="232.1,87.2 237.3,84.2 232.1,81.2 				"/>
			</g>
		</g>
	</g>
	<line class="st18" x1="241.7" y1="50.2" x2="241.7" y2="66.1"/>
	<circle class="st18" cx="265.2" cy="192.9" r="2.3"/>
	<polyline class="st18" points="105.1,36.9 117.1,36.9 127.6,47.4 127.6,78.9 97.9,78.9 	"/>
	<g>
		<g>
			<line class="st18" x1="96.1" y1="69.8" x2="96.1" y2="41"/>
			<g>
				<polygon class="st19" points="99,41.9 96.1,36.7 93.1,41.9 				"/>
			</g>
		</g>
	</g>
	<polyline class="st18" points="117.1,36.9 117.1,47.4 126.9,47.4 	"/>
	<line class="st18" x1="101.3" y1="53" x2="122" y2="53"/>
	<line class="st18" x1="107.4" y1="61.4" x2="122" y2="61.4"/>
	<line class="st18" x1="109.9" y1="69.8" x2="122" y2="69.8"/>
	<path class="st18" d="M92.5,71.9l10.8-6.5c0,0,3.2,5.7-1.5,8.5c-0.7,0.4-2.9,1.7-2.9,1.7l-0.8,0.5V81l-4.7,3.7"/>
	<polyline class="st18" points="96.1,62.1 85.2,69.4 85.2,91.9 	"/>
	<polyline class="st18" points="101.8,78.9 101.8,85.1 96.7,89.1 96.7,91.9 	"/>
	<circle class="st18" cx="102.8" cy="36.9" r="2.3"/>
	<circle class="st18" cx="253.8" cy="84.5" r="6.5"/>
	<path class="st18" d="M266.8,84.5c0,0-5.8,6.5-13,6.5c-7.2,0-13-6.5-13-6.5s5.8-6.5,13-6.5C261,77.9,266.8,84.5,266.8,84.5z"/>
	<circle class="st18" cx="241.6" cy="71.4" r="2.3"/>
	<g class="st9">
		<line class="st33" x1="253.8" y1="77.6" x2="253.8" y2="73.7"/>
		<line class="st33" x1="246.9" y1="79.8" x2="244.4" y2="76.4"/>
		<line class="st33" x1="260.4" y1="79.3" x2="262.8" y2="75.9"/>
		<line class="st33" x1="253.8" y1="91.2" x2="253.8" y2="95.2"/>
		<line class="st33" x1="246.9" y1="89" x2="244.4" y2="92.5"/>
		<line class="st33" x1="260.4" y1="89.5" x2="262.8" y2="93"/>
	</g>
</g>
</svg>
