<svg id="Layer_1" data-name="Layer 1" xmlns="http://www.w3.org/2000/svg" width="100" height="100" viewBox="0 0 100 100"><title>access project data</title><path d="M48.43,60.82V51.18c0-2.33,0-4.66,0-7,0-1.65.45-2.08,2.12-2.11,2.53,0,5.05-.1,7.58-.1a1.11,1.11,0,0,0,1.25-.88A6.2,6.2,0,0,1,70.92,41a1.19,1.19,0,0,0,1.39.88c4.23-.1,7.77-4.42,7.21-8.85C79,29.18,76.86,27,73,26.55A1.5,1.5,0,0,1,71.88,24a4.83,4.83,0,0,0,.72-4.17c-.82-2.84-4-4-6.72-2.45a7,7,0,0,0-1.42,1.06,1.63,1.63,0,0,1-2.23.33,1.51,1.51,0,0,1-.4-2.1,9,9,0,0,0,.6-5.56,10.12,10.12,0,0,0-8.65-8,9.23,9.23,0,0,0-10,4.94,2.38,2.38,0,0,1-2.28,1.13A9.9,9.9,0,0,0,32.37,17a16.63,16.63,0,0,0-.21,1.88,1.61,1.61,0,0,1-1.61,1.57,16.53,16.53,0,0,0-3.13.54c-8.11,2.43-9.1,13.08-3.4,18.19A10.23,10.23,0,0,0,30.18,42V36.54l12.6,7-12.53,7v-5.5A14.24,14.24,0,0,1,17.31,30.37c.17-6.76,4.21-11.25,11.78-12.93a12.79,12.79,0,0,1,4.76-8.38A14,14,0,0,1,40.4,6.24a2,2,0,0,0,1.23-.7A12.76,12.76,0,0,1,56.48.71a12.82,12.82,0,0,1,9.25,12.47V14c3-.7,5.79-.42,8,1.84s2.56,5,1.75,7.94a3,3,0,0,0,.52.29c7.21,2.44,8.71,11.95,3.8,17.22-2.07,2.23-4.53,3.69-7.69,3.5a1.44,1.44,0,0,0-1.52,1,6.21,6.21,0,0,1-10.85.09A1.46,1.46,0,0,0,58.22,45c-2.16,0-4.32,0-6.57,0V60.83c2.64.26,5.25.36,7.8.8a48,48,0,0,1,7,1.81c2.09.71,3.09,2.2,3,4.61-.12,8.33-.1,16.65,0,25a4.07,4.07,0,0,1-2.69,4.26,31.79,31.79,0,0,1-6.1,1.78,60.65,60.65,0,0,1-24.08-.58,18.26,18.26,0,0,1-4-1.6,3.56,3.56,0,0,1-2-3.48c.05-8.52.08-17,0-25.57a4,4,0,0,1,2.7-4.24,45.92,45.92,0,0,1,7.27-2C43.07,61.18,45.68,61.09,48.43,60.82ZM33.68,79.28v2c0,4.28,0,4.32,4.2,5.24a58.78,58.78,0,0,0,21.4.52,41.53,41.53,0,0,0,6-1.62,1.55,1.55,0,0,0,1-1c.1-1.71,0-3.42,0-5.08A60.53,60.53,0,0,1,33.68,79.28Zm0,9.1v2.09c0,4.28,0,4.31,4.19,5.24a58.78,58.78,0,0,0,21.4.53,39.69,39.69,0,0,0,6-1.63,1.52,1.52,0,0,0,1-1c.1-1.7,0-3.42,0-5.22A48.22,48.22,0,0,1,50,90.7,48,48,0,0,1,33.68,88.38Zm32.63-18A48,48,0,0,1,50,72.71a48.65,48.65,0,0,1-16.32-2.32v1.33c0,4.55,0,4.59,4.51,5.57a56.84,56.84,0,0,0,19.29.7,64.6,64.6,0,0,0,7.68-1.77,1.49,1.49,0,0,0,1.17-1.76C66.24,73.16,66.31,71.86,66.31,70.37Zm0-3.72a32.29,32.29,0,0,0-3.37-1.26A54.92,54.92,0,0,0,46,64.08a36.54,36.54,0,0,0-10.21,1.73,22.26,22.26,0,0,0-2,1C39.22,70.63,61.55,70.59,66.27,66.65ZM62,43.05a3.11,3.11,0,0,0,3.17,3.11A3.21,3.21,0,0,0,68.37,43a3.11,3.11,0,0,0-3.16-3A3,3,0,0,0,62,43.05Z"/></svg>