<svg id="Layer_1" data-name="Layer 1" xmlns="http://www.w3.org/2000/svg" width="75" height="75" viewBox="0 0 75 75"><title>app-store</title><path d="M70.42,53.29a9.06,9.06,0,0,0-8.25-9.17,89.32,89.32,0,0,0-11.91-.07c-5.35.35-8.82,4.36-8.82,9.71,0,3.09,0,6.18,0,9.26a9.39,9.39,0,0,0,9.2,9.3c3.54.05,7.09.05,10.63,0a9.46,9.46,0,0,0,8.9-7.06c.18-.7.24-1.43.38-2.24H75c-1.22-2.06-2.3-4-3.49-5.87A6.67,6.67,0,0,1,70.42,53.29ZM68,63a6.62,6.62,0,0,1-2.18,5A6.92,6.92,0,0,1,61,69.91c-3.33,0-6.67,0-10,0a6.94,6.94,0,0,1-7-6.86c-.1-3.26-.11-6.54,0-9.8a6.86,6.86,0,0,1,7-6.83c3.36-.07,6.72-.06,10.08,0a7,7,0,0,1,7,7.15,5.38,5.38,0,0,1-.84,3.19c-1.13,1.74-2.13,3.56-3.18,5.35-.15.25-.29.52-.5.92Z"/><path d="M22.42,5.05C18.5,4.8,14.55,5,10.62,5a3.3,3.3,0,0,0-1,.11A1.54,1.54,0,0,1,8,4.74a5.06,5.06,0,0,0-6.8.7,4.85,4.85,0,0,0,.22,6.71,1.42,1.42,0,0,1,.37.85c0,3.66-.06,7.33,0,11a9.12,9.12,0,0,0,7.76,9.07,49.43,49.43,0,0,0,6.67,0v.16c1.8,0,3.6,0,5.4,0A9.43,9.43,0,0,0,30.8,24c0-3.24,0-6.47,0-9.71A9.19,9.19,0,0,0,22.42,5.05Zm-20,3.63A2.59,2.59,0,0,1,5,6.14,2.6,2.6,0,0,1,7.67,8.62,2.68,2.68,0,0,1,5,11.24,2.7,2.7,0,0,1,2.42,8.68ZM28.31,23.5a7,7,0,0,1-7.37,7.37c-3.11,0-6.23,0-9.34,0a7.06,7.06,0,0,1-7.36-7.4c0-2.9,0-5.8,0-8.7V13.71c4.62-.71,5.79-2,5.83-6.26.5,0,1-.08,1.52-.08,3.12,0,6.23,0,9.35,0a7,7,0,0,1,7.37,7.34Q28.34,19.11,28.31,23.5Z"/><path d="M22.45,44.12a98,98,0,0,0-12.36,0,8.94,8.94,0,0,0-8.16,7.7A47.76,47.76,0,0,0,1.88,58h-.1c0,1.68,0,3.36,0,5a9.39,9.39,0,0,0,9.33,9.26c3.45,0,6.91,0,10.36,0A9.42,9.42,0,0,0,30.8,63c0-3.18,0-6.36,0-9.53A9.16,9.16,0,0,0,22.45,44.12Zm5.86,18.52A7,7,0,0,1,21,69.92c-3.18,0-6.36,0-9.53,0A7,7,0,0,1,4.24,62.6c0-3,0-6,0-9a7,7,0,0,1,7.07-7.21c1.65,0,3.3,0,5,0s3.18,0,4.77,0a7,7,0,0,1,7.28,7.25C28.33,56.65,28.33,59.65,28.31,62.64Z"/><path d="M49.21,33.06a49.43,49.43,0,0,0,6.67,0v.16c1.83,0,3.67,0,5.5,0a9.35,9.35,0,0,0,9.06-9.13c0-3.36,0-6.73,0-10.09a9.13,9.13,0,0,0-8.28-9A97,97,0,0,0,50.35,5c-5.39.31-8.91,4.33-8.91,9.72,0,3.06,0,6.11,0,9.17A9.18,9.18,0,0,0,49.21,33.06Zm-5.3-18.48a7,7,0,0,1,7.24-7.22H56c1.19,0,2.38,0,3.57,0h1.2A7,7,0,0,1,68,14.6c0,3,0,6,0,9a7,7,0,0,1-7.29,7.29q-4.77,0-9.53,0a7,7,0,0,1-7.27-7.22C43.87,20.63,43.88,17.6,43.91,14.58Z"/><path d="M58.68,57.3c-.63-.37-1.33-.61-2-.92a6.87,6.87,0,0,1-1.46-.73,1.07,1.07,0,0,1,.22-1.95A3.15,3.15,0,0,1,57,53.49a23.54,23.54,0,0,1,2.4.47L60,51.68c-2.25-.79-4.42-1-6.53.11a3.43,3.43,0,0,0-.23,6.06,16.32,16.32,0,0,0,2,1,11.2,11.2,0,0,1,1.63.8,1.2,1.2,0,0,1-.32,2.21,5.8,5.8,0,0,1-2.16.12,18.24,18.24,0,0,1-2.4-.59l-.6,2.37a8.84,8.84,0,0,0,7,.07,3.49,3.49,0,0,0,2.13-3.08A3.39,3.39,0,0,0,58.68,57.3Z"/><path d="M19.09,15.71c-.31-1-.41-2.33-1.09-2.81s-2-.1-3-.17c-.61,0-.84.21-1,.76-1.17,3.82-2.37,7.63-3.56,11.44-.07.25-.12.51-.21.84.89,0,1.68,0,2.47,0,.51,0,.68-.19.8-.65.21-.88.49-1.75.77-2.68,1.12,0,2.22,0,3.31,0a.85.85,0,0,1,.61.48c.29.74.47,1.51.74,2.26.08.21.31.51.48.52.93.06,1.87,0,2.87,0a7.28,7.28,0,0,0-.19-.73C21.07,21.93,20.09,18.81,19.09,15.71Zm-4.4,4.49,1.38-5.11,1.48,5.11Z"/><path d="M19.16,51.73c-2.39-1-4.84-.54-7.28-.31V64.2h3V60a31.21,31.21,0,0,0,4.4-1.06,3.61,3.61,0,0,0,2.16-3.72A3.51,3.51,0,0,0,19.16,51.73Zm-1.09,4.72a2.87,2.87,0,0,1-3.19.8V53.48c1.18-.08,2.37-.35,3.2.74A1.88,1.88,0,0,1,18.07,56.45Z"/><path d="M54.49,23.46v-2a30,30,0,0,0,4.24-.92,3.8,3.8,0,0,0,2.34-4.15A3.7,3.7,0,0,0,58.17,13a18,18,0,0,0-6.59-.06V25.74h2.91Zm0-8.06a.56.56,0,0,1,.17-.39,3.79,3.79,0,0,1,2.8.41,1.94,1.94,0,0,1,.4,2.34,2.78,2.78,0,0,1-3.38,1C54.49,17.64,54.49,16.52,54.5,15.4Z"/></svg>