<svg id="Layer_1" data-name="Layer 1" xmlns="http://www.w3.org/2000/svg" width="60" height="60" viewBox="0 0 60 60"><defs><style>.cls-1{fill:#fff;}</style></defs><title>excellence-w</title><path class="cls-1" d="M0,55.78l7.39-4.19v3.23h4.44V25.62h3.44c.34-1.94.68-3.83,1-5.72a5.66,5.66,0,0,0,.27-2.36c-.22-.66-1-1.12-1.62-1.67-1.65-1.59-3.3-3.18-5-4.76a4.18,4.18,0,0,0-.65-.4l.17-.24,3.35-.5c2.06-.29,4.12-.56,6.18-.89a1.21,1.21,0,0,0,.74-.58c1.32-2.57,2.61-5.16,3.9-7.74.11-.23.24-.44.41-.76.16.29.29.49.39.71,1.3,2.58,2.61,5.16,3.88,7.75a1.07,1.07,0,0,0,.94.67c3,.4,6,.84,9,1.27a5.38,5.38,0,0,1,.65.2,7.59,7.59,0,0,0-.77.52c-2.09,2-4.17,4-6.28,6a1,1,0,0,0-.33,1c.45,2.46.86,4.92,1.3,7.45h3.44v.8c0,2.87,0,5.74,0,8.62a.73.73,0,0,0,.52.81,3.42,3.42,0,0,1,2.27,3.34,3.58,3.58,0,0,1-2.28,3.42c-.21.11-.48.4-.48.6,0,3.8,0,7.6,0,11.39a1.81,1.81,0,0,0,0,.25H41V51.56l7.44,4.22L41,60V56.73H7.43V60Zm34.4-1c0-.17,0-.31,0-.44,0-3.7,0-7.41,0-11.11,0-.47-.23-.57-.57-.72a3.49,3.49,0,0,1-2.25-3.37,3.43,3.43,0,0,1,2.27-3.35.76.76,0,0,0,.54-.87c0-2.27,0-4.54,0-6.81,0-.22,0-.44,0-.66H13.72V54.81ZM13.19,11.76c.32.28.51.41.67.57,1.46,1.39,2.9,2.8,4.37,4.18a1,1,0,0,1,.32,1c-.4,2.17-.76,4.36-1.16,6.67l.7-.34c1.8-.94,3.62-1.86,5.42-2.82a1,1,0,0,1,1.08,0c1.19.66,2.42,1.27,3.63,1.89l2.46,1.28a3.59,3.59,0,0,0,0-.44c-.36-2.09-.71-4.19-1.1-6.28a.92.92,0,0,1,.31-1c1.5-1.41,3-2.85,4.47-4.27.14-.14.26-.29.43-.47a3.73,3.73,0,0,0-.41-.12c-2.06-.29-4.12-.6-6.19-.86a1.21,1.21,0,0,1-1.1-.76c-.87-1.81-1.79-3.6-2.7-5.4-.08-.16-.19-.32-.33-.56C23,6.18,22,8.17,21,10.13a1.29,1.29,0,0,1-.8.61c-1.09.21-2.2.32-3.3.48ZM19,25.46l.05.11H29.12c-1.6-.95-3.23-1.8-4.87-2.63a.55.55,0,0,0-.45,0Zm16.4,11.85a1.91,1.91,0,0,0-2,1.84,1.93,1.93,0,0,0,3.85,0A1.84,1.84,0,0,0,35.36,37.31Z"/></svg>