<svg id="Layer_1" data-name="Layer 1" xmlns="http://www.w3.org/2000/svg" width="100" height="100" viewBox="0 0 100 100"><title>application-maintenance</title><path d="M3.41,13.39V80.52h76v-6l13.81,7.7L79.46,89.89v-6H0V10.11H94.78v1.51q0,21.66,0,43.33a1.73,1.73,0,0,0,1.21,2,6.46,6.46,0,0,1,3.88,7.33,7,7,0,0,1-13.57-.06,6.49,6.49,0,0,1,3.94-7.3,1.58,1.58,0,0,0,1.17-1.76q0-20.21,0-40.4c0-1.13-.32-1.42-1.43-1.42q-42.66,0-85.31,0C4.27,13.34,3.87,13.37,3.41,13.39ZM96.64,63a3.37,3.37,0,0,0-3.57-3.54A3.41,3.41,0,0,0,89.46,63a3.59,3.59,0,0,0,7.18,0Z"/><path d="M10.7,31.62V74H71v3.18H7.3V28.36H88V52.17H84.65V31.62Z"/><path d="M37.42,66.38a2.3,2.3,0,0,0-.82-2.31c-1.19-1.29-2.39-2.07-4.2-1.53a1,1,0,0,1-.85-.43c-.75-1.61-1.47-3.23-2.08-4.9-.11-.31.29-.89.58-1.25.42-.52,1.27-.89,1.37-1.43a8.9,8.9,0,0,0-.11-3.25c-.09-.45-.73-.84-1.19-1.14a1.26,1.26,0,0,1-.54-1.84c.57-1.29,1.12-2.59,1.63-3.91A1.38,1.38,0,0,1,33,43.48c.62.12,1.46.31,1.88,0A9,9,0,0,0,37.37,41c.33-.5-.06-1.42,0-2.13A1.65,1.65,0,0,1,38,37.71c1.41-.69,2.9-1.22,4.34-1.84a1.35,1.35,0,0,1,1.85.57c.37.51.82,1.24,1.33,1.33a10.73,10.73,0,0,0,3.62,0c.54-.1,1-.87,1.41-1.42a1.21,1.21,0,0,1,1.65-.48c1.38.57,2.76,1.13,4.16,1.65a1.29,1.29,0,0,1,.94,1.78c-.47,1.4.29,2.16,1.22,3.06S60.3,44,61.68,43.5c1-.32,1.51.09,1.86,1,.52,1.36,1.07,2.71,1.66,4A1,1,0,0,1,64.71,50c-2.08,1-1.51,2.93-1.39,4.56,0,.52,1,.94,1.46,1.49a1.66,1.66,0,0,1,.4,1.28c-.49,1.45-1.13,2.85-1.7,4.28a1.29,1.29,0,0,1-1.69.9,3.06,3.06,0,0,0-2,0A9.18,9.18,0,0,0,57.29,65c-.31.45,0,1.33.08,2a1.14,1.14,0,0,1-.76,1.42c-1.47.57-2.93,1.17-4.38,1.77a1.13,1.13,0,0,1-1.63-.5c-1.18-2.25-3.3-1.35-5.06-1.4-.49,0-1,.93-1.48,1.49a1.09,1.09,0,0,1-1.45.44c-1.38-.56-2.76-1.13-4.17-1.62C37.28,68.18,37.14,67.4,37.42,66.38Zm24-18c-.12-1.39-.75-1.65-1.77-1.41a2,2,0,0,1-2.34-1,6.57,6.57,0,0,0-2.11-2.15,2.72,2.72,0,0,1-1.53-3.24,1.15,1.15,0,0,0-.58-.95,1.58,1.58,0,0,0-1.13.21,2,2,0,0,0-.64.72,1.59,1.59,0,0,1-1.84.69,12.66,12.66,0,0,0-4,0,2.18,2.18,0,0,1-2.53-1c-.34-.49-.66-1-1.47-.62s-.66.92-.53,1.48a2,2,0,0,1-1,2.4,7.44,7.44,0,0,0-2.29,2.14A2.57,2.57,0,0,1,34.56,47c-.94-.25-1.2.41-1.23,1.05,0,.32.41.74.75,1a2,2,0,0,1,1,2.41,7.28,7.28,0,0,0,0,3.25A1.93,1.93,0,0,1,34.14,57c-.46.31-1.08.55-.76,1.41s1,.7,1.59.6a2.2,2.2,0,0,1,2.44,1,9.36,9.36,0,0,0,2.5,2.44A2.07,2.07,0,0,1,41,65c-.12.52-.31,1,.48,1.4s1.13,0,1.49-.54a2.12,2.12,0,0,1,2.63-1.06,6,6,0,0,0,2.77.06c1.56-.31,2.82-.18,3.7,1.34.12.2.72.29,1,.19s.7-.6.64-.8c-.53-1.84.46-2.83,1.87-3.67a3.34,3.34,0,0,0,1-1c.92-1.41,2-2.37,3.86-1.85.2.06.64-.38.78-.68s0-.81-.15-.89c-1.68-.84-1.76-2.18-1.34-3.76a2.33,2.33,0,0,0,0-1.2C59.26,50.63,59.55,49.14,61.46,48.42Z"/><path d="M22.68,16.57a4.61,4.61,0,0,1,4.69,4.56,4.71,4.71,0,0,1-9.41,0A4.59,4.59,0,0,1,22.68,16.57Zm0,6.27c.58-.83,1.2-1.34,1.14-1.76a1.77,1.77,0,0,0-1.17-1.18,1,1,0,0,0-1.25,1.23C21.52,21.62,22.08,22,22.71,22.84Z"/><path d="M33.42,16.57a4.6,4.6,0,0,1,4.7,4.55,4.71,4.71,0,0,1-9.41,0A4.59,4.59,0,0,1,33.42,16.57Zm0,6.27c.6-.82,1.23-1.32,1.18-1.73a1.76,1.76,0,0,0-1.16-1.21,1.05,1.05,0,0,0-1.27,1.21C32.25,21.6,32.82,22,33.43,22.84Z"/><path d="M11.9,16.57a4.53,4.53,0,1,1,0,9.05,4.61,4.61,0,0,1-4.63-4.5A4.54,4.54,0,0,1,11.9,16.57Zm-.3,5.9h.55c.34-.45,1-.93.93-1.34A1.78,1.78,0,0,0,12,19.9a1,1,0,0,0-1.28,1.17C10.76,21.57,11.28,22,11.6,22.47Z"/><path d="M47.44,43.88A9.14,9.14,0,1,1,37.86,53,9.38,9.38,0,0,1,47.44,43.88Zm-.11,14.93a5.82,5.82,0,1,0,0-11.62,5.81,5.81,0,1,0,0,11.62Z"/></svg>