<svg id="Layer_1" data-name="Layer 1" xmlns="http://www.w3.org/2000/svg" width="100" height="100" viewBox="0 0 100 100"><title>automation</title><path d="M24.59,45.15l-2.72-1.47L15.46,54.54l5.05,2.87L8.12,64.49v-14L12.76,53l6.42-10.88L16.5,40.58c.26-.45.47-.84.7-1.22q5.73-9.75,11.5-19.49a1.65,1.65,0,0,0,0-2,11.45,11.45,0,0,1,.5-13A12.24,12.24,0,0,1,41.92.35a11.81,11.81,0,0,1,8.95,9.75,9.35,9.35,0,0,1,.06,2.84,2.59,2.59,0,0,0,.94,2.69C58,21.31,64,27.05,70.12,32.74a3.61,3.61,0,0,0,1.91.9c8.79,1,15.13,8.09,14.87,16.71A15.37,15.37,0,0,1,81.45,61.8a1.69,1.69,0,0,0-.55,2.11q5.34,17.4,10.6,34.82c.12.39.23.78.38,1.27H48.31c.15-.49.28-1,.43-1.41,3.7-11.59,7.38-23.2,11.12-34.78a1.61,1.61,0,0,0-.55-2c-5-4.69-6.6-10.36-4.67-17a2,2,0,0,0-.29-1.94Q48,33.65,41.67,24.33c-.45-.67-.88-1.07-1.7-.77a.29.29,0,0,1-.13,0c-2.24-.52-3.1.91-4.05,2.59-3.41,6-7,11.87-10.45,17.79C25.11,44.34,24.86,44.71,24.59,45.15ZM87.75,97c-3.33-10.94-6.62-21.76-9.82-32.26-2.67.44-5.13,1.16-7.6,1.15s-4.93-.73-7.54-1.17C59.43,75.27,56,86.09,52.49,97ZM56.94,50A13.44,13.44,0,1,0,70.05,36.63,13.35,13.35,0,0,0,56.94,50Zm-7.32-32.3a36.13,36.13,0,0,1-2.48,2.76,32.54,32.54,0,0,1-3,2.16L56.61,40.78a17.24,17.24,0,0,1,10.26-6.85ZM47.9,11.81a8.93,8.93,0,0,0-17.85,0,8.93,8.93,0,0,0,17.85,0ZM31.41,21.3,20.71,39.47,23.48,41l10.7-18.16Z"/><path d="M78.69,49.88a8.32,8.32,0,1,1-8.24-8.22A8.28,8.28,0,0,1,78.69,49.88Zm-13.5-.08a5.19,5.19,0,1,0,5.16-5.07A5.1,5.1,0,0,0,65.19,49.8Z"/><path d="M39,5.68a6.18,6.18,0,0,1,6.24,6.11,6.29,6.29,0,0,1-12.57,0A6.2,6.2,0,0,1,39,5.68Zm3.17,6.15A3.12,3.12,0,0,0,39,8.65a3.21,3.21,0,0,0-3.26,3.19A3.26,3.26,0,0,0,38.92,15,3.17,3.17,0,0,0,42.2,11.83Z"/></svg>