<svg id="Layer_1" data-name="Layer 1" xmlns="http://www.w3.org/2000/svg" width="75" height="75" viewBox="0 0 75 75"><defs><style>.cls-1{fill:#fff;}</style></defs><title>Business process management-w</title><path class="cls-1" d="M29.14,27.14c0-1-.05-1.83,0-2.67A3.87,3.87,0,0,1,33,20.83q4.81-.06,9.64,0a3.88,3.88,0,0,1,3.86,3.93c0,.75,0,1.49,0,2.38,1.22,0,2.38,0,3.53,0a17.18,17.18,0,0,1,3.05.18,4.36,4.36,0,0,1,3.51,4.32c0,5.08,0,10.15,0,15.23a4.56,4.56,0,0,1-4.72,4.54c-1.56.05-3.13,0-4.69,0h-23a5.06,5.06,0,0,1-4.17-1.74,4.46,4.46,0,0,1-1-3c0-5,0-9.91,0-14.87a4.58,4.58,0,0,1,4.76-4.69C25.53,27.12,27.26,27.14,29.14,27.14ZM37.82,49h13.7c1.86,0,2.61-.76,2.61-2.63v-14c0-2.07-.7-2.78-2.74-2.77-5.32,0-10.63,0-16,0-3.78,0-7.57,0-11.35,0-1.78,0-2.59.81-2.6,2.58V46.32c0,1.83.81,2.64,2.64,2.64Zm6.29-21.84c0-.84,0-1.59,0-2.33a1.56,1.56,0,0,0-1.7-1.6c-3.06,0-6.11,0-9.17,0a1.46,1.46,0,0,0-1.61,1.27,19.62,19.62,0,0,0,0,2.66Z"/><path class="cls-1" d="M22.78,8.47l1.1,2.14-.87.47a31.22,31.22,0,0,0-8.38,6.46.8.8,0,0,0-.19,1.08A4.9,4.9,0,0,1,10,25.89H9L6.77,34.36h4.45L5.6,43.86,0,34.43H4.28c.57-2.37,1.11-4.6,1.65-6.83a2,2,0,0,1,.15-.43,2.86,2.86,0,0,0-.35-3.7c-1.31-1.48-1-3.85.21-5.44a5,5,0,0,1,5.47-1.79,1.16,1.16,0,0,0,1.44-.37,32.13,32.13,0,0,1,9-6.95C22.14,8.77,22.44,8.64,22.78,8.47ZM10,18.44A2.54,2.54,0,0,0,7.4,21a2.61,2.61,0,0,0,5.21-.06A2.55,2.55,0,0,0,10,18.44Z"/><path class="cls-1" d="M75,41.12c-1.32,0-2.43,0-3.53,0-.55,0-.77.14-.84.74a30.55,30.55,0,0,1-2.89,9.51.92.92,0,0,0,.07,1.12,4.75,4.75,0,0,1,.21,5.7,5.05,5.05,0,0,1-5.55,2,1.23,1.23,0,0,0-1.4.34,32.29,32.29,0,0,1-8.43,5.93l-1.13-2.14a31.14,31.14,0,0,0,8.18-5.9,4.85,4.85,0,0,1,0-5.89c1.37-1.83,3.29-2.28,5.56-1.84a27.87,27.87,0,0,0,2.9-9.54H63.77l5.62-9.49ZM63.72,58a2.49,2.49,0,0,0,2.67-2.51,2.55,2.55,0,0,0-2.57-2.54,2.6,2.6,0,0,0-2.65,2.49A2.54,2.54,0,0,0,63.72,58Z"/><path class="cls-1" d="M40.35,7.55v4.18L30.62,6.27,40.29.82V5.13a34.08,34.08,0,0,1,15.89,5.41A32.84,32.84,0,0,1,67.43,23L65.25,24C59.77,14.31,51.5,8.89,40.35,7.55Z"/><path class="cls-1" d="M7.86,52.12,10.09,51c5.24,9.3,13.11,14.65,23.7,16.27V63.25l9.74,5.47-9.7,5.46V69.79C22.28,68.13,13.62,62.36,7.86,52.12Z"/></svg>