<svg id="Layer_1" data-name="Layer 1" xmlns="http://www.w3.org/2000/svg" width="75" height="75" viewBox="0 0 75 75"><defs><style>.cls-1{fill:#fff;}</style></defs><title>business-consulting</title><path class="cls-1" d="M55.56,65.27v4.92L44.7,63.92l10.88-6.29V62.5H72.27V38.42c-.29,0-.57-.05-.85-.05H36.23a1,1,0,0,0-1.14.64,5,5,0,0,1-2.87,2.53c-.39.15-.6.31-.6.79,0,6.58,0,13.15,0,19.73a4.48,4.48,0,0,0,.06.51c1.57,0,3.11-.05,4.64,0a1.84,1.84,0,0,1,1.25.71,1.5,1.5,0,0,1-.07,1.35,1.75,1.75,0,0,1-1.24.59c-1.91.06-3.84,0-5.76,0-1.11,0-1.6-.47-1.62-1.58,0-1.33,0-2.67,0-4,0-5.71,0-11.41,0-17.11a.94.94,0,0,0-.69-1.09,5.43,5.43,0,0,1-3.33-6.07,5.48,5.48,0,0,1,10.65-.5l.21.67H39c0-1.91,0-3.79,0-5.68a9.6,9.6,0,0,1,.92-4.39A9.08,9.08,0,0,1,47.56,20a52.77,52.77,0,0,1,8.8,0,9.45,9.45,0,0,1,8.57,9.6c0,1.95,0,3.89,0,6h8c1.64,0,2,.39,2,2V63.34c0,1.59-.34,1.93-2,1.93H55.56Zm6.63-29.71c0-2.24.12-4.4,0-6.53a6.83,6.83,0,0,0-6.66-6.38c-2.41-.07-4.83-.07-7.24,0a6.86,6.86,0,0,0-6.5,6.8c0,1.78,0,3.55,0,5.33,0,.25,0,.49.06.77Zm-31.85-1.9a2.82,2.82,0,0,0-2.85,2.7,2.85,2.85,0,0,0,2.73,2.83,2.77,2.77,0,0,0,.12-5.53Z"/><path class="cls-1" d="M22.08,55c0-1.92,0-3.84,0-5.76s-.87-2.83-2.82-2.85c-3.52,0-7,0-10.56,0C3.14,46.46.25,42.46.08,38,0,34.64,0,31.23.06,27.82a7.84,7.84,0,0,1,15.66-.24c.14,3.34,0,6.7,0,10a1.35,1.35,0,0,1-1.32,1.45A1.39,1.39,0,0,1,13,37.54c0-2.33,0-4.66,0-7,0-.81,0-1.63,0-2.44A5.07,5.07,0,0,0,8.2,23a5,5,0,0,0-5.35,4.71c-.13,3.57-.14,7.16,0,10.73.15,3.25,2.48,5.25,5.81,5.27,3.49,0,7,0,10.48,0a5.54,5.54,0,0,1,4.57,1.93A5.16,5.16,0,0,1,24.82,49c0,4,0,8,0,12.05,0,1.12-.5,1.73-1.4,1.71s-1.33-.61-1.33-1.68Q22.07,58,22.08,55Z"/><path class="cls-1" d="M51.94,4.81a6.83,6.83,0,1,1-6.83,6.8A6.81,6.81,0,0,1,51.94,4.81Zm-4.07,6.78A4.11,4.11,0,0,0,52,15.75a4.18,4.18,0,0,0,4.1-4.13A4.22,4.22,0,0,0,52,7.49,4.13,4.13,0,0,0,47.87,11.59Z"/><path class="cls-1" d="M7.86,4.81a6.83,6.83,0,1,1,0,13.65,6.83,6.83,0,1,1,0-13.65ZM12,11.62A4.14,4.14,0,0,0,7.86,7.49a4.13,4.13,0,1,0,0,8.26A4.11,4.11,0,0,0,12,11.62Z"/></svg>