<svg id="Layer_1" data-name="Layer 1" xmlns="http://www.w3.org/2000/svg" width="75" height="75" viewBox="0 0 75 75"><title>catalogues</title><path d="M3.68,53.11V5.93C16.49,5.45,28.2,7.72,37.05,17.75c1.74-1.56,3.4-3.29,5.28-4.72A35.7,35.7,0,0,1,58.78,6.47c1.71-.27,3.44-.41,5.17-.53a1,1,0,0,0,1-.74,4.81,4.81,0,0,1,5-3,4.89,4.89,0,0,1,4.24,4,4.84,4.84,0,0,1-2.61,5.13c-.31.16-.64.29-1,.44V38.87H75l-5.57,9.66c-1.87-3.22-3.67-6.35-5.56-9.62h4.32V11.79a5.16,5.16,0,0,1-3.35-3.08c-.08-.2-.58-.34-.87-.32A43.11,43.11,0,0,0,52.4,10.57a27.64,27.64,0,0,0-14.87,11c-.09.14-.21.28-.37.48a3.82,3.82,0,0,1-.39-.46c-3.84-5.87-9.38-9.36-16-11.39A49,49,0,0,0,7,8.23c-.67,0-.9.19-.9.91q0,21.66,0,43.34c0,.2,0,.4,0,.66a5,5,0,0,1,3.41,3.39c10.67.67,20.38,3.54,27.58,12.07,8.63-9.86,20-12.27,32.4-12,0,.51,0,.88-.06,1.25s-.1.75-.16,1.21c-1.49,0-3-.05-4.48,0a40.22,40.22,0,0,0-18.23,4.82,25.37,25.37,0,0,0-8.72,8c-.21.32-.44.62-.71,1a4.85,4.85,0,0,1-.34-.42c-3.91-6-9.54-9.51-16.26-11.53a46,46,0,0,0-10.22-1.79c-.47,0-.78,0-1,.57a4.69,4.69,0,0,1-5.21,3,4.84,4.84,0,0,1-1-9.29Zm3.63,4.71a2.52,2.52,0,0,0-2.43-2.43,2.5,2.5,0,0,0-2.46,2.49A2.45,2.45,0,0,0,4.84,60.3,2.48,2.48,0,0,0,7.31,57.82ZM69.4,4.63A2.4,2.4,0,0,0,67,7a2.44,2.44,0,1,0,2.41-2.4Z"/><path d="M63.64,15V51.62c-9.32-.88-17.36,1.6-23.41,9.2l-.17-.17v-.84q0-15.62,0-31.24a3.29,3.29,0,0,1,.48-1.63c4.16-6.61,10.29-10.22,17.88-11.47C60.14,15.19,61.87,15.15,63.64,15Zm-2.43,2.53c-1,.14-1.83.23-2.69.4C52,19.16,46.65,22.15,42.94,27.75a2.81,2.81,0,0,0-.45,1.45q0,12.4,0,24.8c0,.28,0,.55.05,1,5.52-4.45,11.82-6.09,18.68-6Z"/><path d="M34,60.79a23.71,23.71,0,0,0-10.42-7.73,27.4,27.4,0,0,0-13-1.38V15.06c1.46.08,2.92.07,4.35.27a25.36,25.36,0,0,1,15,7,50.15,50.15,0,0,1,4,5.09,1.43,1.43,0,0,1,.23.82q0,16,0,32.12c0,.1,0,.21,0,.32ZM13,49c6.9-.14,13.21,1.53,18.7,6,0-.26,0-.37,0-.49q0-12.75,0-25.49a2.24,2.24,0,0,0-.38-1.13,21.87,21.87,0,0,0-11.12-8.69A26.14,26.14,0,0,0,13,17.58Z"/></svg>