<svg id="Layer_1" data-name="Layer 1" xmlns="http://www.w3.org/2000/svg" width="100" height="100" viewBox="0 0 100 100"><title>personal-informatio</title><path d="M3.2,92a12.15,12.15,0,0,1,1.38-3.18,29.75,29.75,0,0,1,3.74-3.22V46.07h26V44.82c0-3.22,0-6.44,0-9.67A13.52,13.52,0,0,1,47.8,21.61c3.78,0,7.57-.14,11.32.21,6.48.6,11.61,6.55,11.63,13.07,0,3.67,0,7.33,0,11.13H96.8V94.27l-1.55,0H40.66V100L28,92.66l12.7-7.34v5.59H93.37V49.45H11.71V86.14A6.71,6.71,0,1,1,3.43,94c-.06-.28-.15-.55-.23-.82ZM67.41,45.89c0-4,.2-7.84,0-11.63a10.09,10.09,0,0,0-10.2-9.32c-3.11,0-6.22,0-9.33,0A10.23,10.23,0,0,0,37.66,35.13c0,3.26,0,6.51,0,9.77,0,.35,0,.71.05,1ZM10.07,89.31a3.4,3.4,0,0,0-3.46,3.31A3.47,3.47,0,0,0,10,96a3.46,3.46,0,0,0,3.41-3.39A3.4,3.4,0,0,0,10.07,89.31Z"/><path d="M53.89,0a11.46,11.46,0,0,1,5.55,3,9.51,9.51,0,0,1-8.62,15.88A9.51,9.51,0,0,1,50.62.22a3.33,3.33,0,0,0,.6-.22ZM52.51,15.67a6.25,6.25,0,0,0,6.23-6.09,6.19,6.19,0,1,0-12.37-.06A6.18,6.18,0,0,0,52.51,15.67Z"/><path d="M49.74,65.11h3.4V84h-3.4Z"/><path d="M51.4,61.84a2.15,2.15,0,1,1,0-4.29,2.15,2.15,0,1,1,0,4.29Z"/></svg>