<svg id="Layer_1" data-name="Layer 1" xmlns="http://www.w3.org/2000/svg" width="100" height="100" viewBox="0 0 100 100"><title>data-management</title><path d="M11.49,71.75c0,4-.05,8.22.06,12.39a2.85,2.85,0,0,0,1.29,1.72,22.59,22.59,0,0,0,7.9,3c2.15.5,4.34.86,6.62,1.3l-.47,3.35c-5.36-.85-10.64-1.68-15.41-4.36A6.27,6.27,0,0,1,8,83.06C8.12,72.37,8,61.68,8,51Q8,32.83,8,14.67a4.76,4.76,0,0,1,1.45-3.5,15.07,15.07,0,0,1,6.15-3.44,1.4,1.4,0,0,0,1.17-1.39A6.77,6.77,0,0,1,22.31.12a6.86,6.86,0,0,1,7.65,4,1,1,0,0,0,1.22.67,127,127,0,0,1,24.89.19c5.29.58,10.56,1.38,15.51,3.49a19.71,19.71,0,0,1,3.93,2.32,5.05,5.05,0,0,1,1.93,4.44c-.06,4.52,0,9,0,13.56,0,3.76,0,7.51,0,11.26,0,.83.27,1.16,1.06,1.44,1.4.49,2.72,1.19,4.09,1.77a1,1,0,0,1,.67,1.25c0,.11,0,.23-.06.34a3.56,3.56,0,0,0,1.2,3.59,4.23,4.23,0,0,0,4.38,1.53,1.19,1.19,0,0,1,1,.56q1.19,2.61,2.17,5.3c.11.31-.18.78-.33,1.17a.76.76,0,0,1-.34.29,2.85,2.85,0,0,0-1.53,3.33.59.59,0,0,1,0,.23,2.73,2.73,0,0,0,1.55,3.26,1.27,1.27,0,0,1,.58,1.82C91.17,67.43,90.56,69,90,70.56a1.14,1.14,0,0,1-1.51.83c-1.72-.5-2.81.3-4,1.47a3.5,3.5,0,0,0-1.23,3.8,1.12,1.12,0,0,1-.79,1.51C81,78.75,79.6,79.41,78.18,80c-.54.21-.81.45-.78,1.06,0,.84,0,1.68,0,2.52a5.39,5.39,0,0,1-2.55,5A21.43,21.43,0,0,1,66.1,92c-4.81.87-9.68,1.43-14.53,2.12-.56.08-1.13.1-1.79.16V100L36.56,92.38l13.16-7.61v6c1.65-.12,3.16-.2,4.66-.35a60.68,60.68,0,0,0,15.47-3.2l.74-.29c2.44-.84,3.88-2.28,3.4-5.13a25.62,25.62,0,0,1,0-4c-1.24,0-2.38-.06-3.51,0-.37,0-.76.44-1,.76-1.59,1.89-1.58,1.9-4,1.07-.36-.13-.72-.26-1.07-.41-1.78-.79-4-1.26-2.83-4.14C44.56,77.43,27.87,77.87,11.49,71.75Zm0-52.51c0,3.53.12,6.94-.05,10.34A3.11,3.11,0,0,0,13.6,33a68.59,68.59,0,0,0,8.15,2.66,99.91,99.91,0,0,0,24,1.94,85.53,85.53,0,0,0,18-2,74.61,74.61,0,0,0,8.64-3A2.5,2.5,0,0,0,74,30c-.1-1.53,0-3.06,0-4.6V19.22c-.28.09-.42.12-.55.18a35.31,35.31,0,0,1-10.12,3.24,111.11,111.11,0,0,1-26.07,1.64C28.46,23.85,19.74,23.11,11.49,19.24Zm.06,16.7c0,.38-.06.64-.06.9,0,3.56.08,7.13,0,10.69a2.74,2.74,0,0,0,1.8,3A52.37,52.37,0,0,0,20,53c10.33,2.52,20.83,2.75,31.39,2,1-.07,1.69-.38,1.9-1.47a5.53,5.53,0,0,1,.51-1.27c1.08-2.41,1.08-2.41,3.64-2.23h.23c.81.05,3.8-2.67,3.82-3.47a1.81,1.81,0,0,0,0-.23c-.15-3-.15-3,2.62-4.19.46-.2.92-.38,1.39-.55,2.3-.81,2.29-.8,3.88,1,.3.35.73.79,1.12.81a30.26,30.26,0,0,0,3.38-.13V36.05c-.14,0-.23,0-.28,0C67.75,39,61.38,39.9,55,40.55a121.45,121.45,0,0,1-24.19,0C24.21,39.94,17.71,39,11.55,35.94ZM86.08,67.83c.39-.09,1.2,0,1.51-.4.57-.67.83-1.57-.29-2.17a2.36,2.36,0,0,1-1.2-3,6.22,6.22,0,0,0,0-3.06A2.54,2.54,0,0,1,87.4,56c.49-.31.85-.63.56-1.4s-.75-1.29-1.67-1a2.36,2.36,0,0,1-3-1.26A7.46,7.46,0,0,0,81,50c-1.37-.86-2-1.84-1.48-3.44.23-.76-.16-1.14-.88-1.45s-1.13,0-1.51.52c-.22.31-.53.56-.73.88a1.31,1.31,0,0,1-1.53.6,11.4,11.4,0,0,0-4-.17c-1.69.36-2.86.09-3.69-1.45-.3-.56-.71-.62-1.34-.4-.85.3-1.16.77-.92,1.63a2.38,2.38,0,0,1-1.2,3,8.25,8.25,0,0,0-2.5,2.49,2.45,2.45,0,0,1-3.11,1.28c-.77-.23-1.25,0-1.55.86s-.19,1.16.45,1.51a2.57,2.57,0,0,1,1.36,3.3,5.56,5.56,0,0,0,0,2.72,2.79,2.79,0,0,1-1.49,3.58c-.62.33-.53.78-.33,1.35.28.78.66,1.11,1.53.9A2.55,2.55,0,0,1,61.27,69a9.67,9.67,0,0,0,2.78,2.7,2,2,0,0,1,1,2.49c0,.19,0,.39-.08.57-.19.75.16,1.09.82,1.37s1.13.24,1.53-.41a3.59,3.59,0,0,1,.89-1,2.7,2.7,0,0,1,1.35-.49c1.82-.06,3.65-.06,5.47,0a2.89,2.89,0,0,1,1.35.52,3.47,3.47,0,0,1,.81,1c.39.55.75.85,1.51.5s1.06-.65.89-1.44c-.08-.41-.06-.85-.15-1.26-.15-.65.12-1,.62-1.42a25.81,25.81,0,0,0,3.44-3.33A2,2,0,0,1,86.08,67.83ZM11.49,53.7c0,4,.06,7.86,0,11.77a2.64,2.64,0,0,0,1.64,2.84,49.59,49.59,0,0,0,7.08,2.57,101.53,101.53,0,0,0,35.36,1.53c1.12-.13,2.23-.31,3.35-.47l0-.43a6,6,0,0,0-1.15-.27,11.22,11.22,0,0,0-1.83.17,1,1,0,0,1-1.25-.68C54,69,53.27,67.27,52.62,65.52c-.11-.3,0-.94.24-1,1.9-1,2.28-2.64,1.92-4.59a1.93,1.93,0,0,1,0-.34c.08-1.33,0-1.37-1.35-1.28-2.68.17-5.35.46-8,.48C33.9,58.83,22.46,58.43,11.49,53.7ZM44.47,21c2.6-.17,6.93-.34,11.23-.76A52,52,0,0,0,70.1,17.1a15.09,15.09,0,0,0,3.18-1.79c.88-.63.86-1.31,0-2a11.26,11.26,0,0,0-2.45-1.46,52.53,52.53,0,0,0-15-3.48,123.11,123.11,0,0,0-23.51-.28c-1.17.09-2.06.22-2.3,1.58a3.3,3.3,0,0,1-.64,1.21,6.94,6.94,0,0,1-11,.52c-.26-.27-.79-.62-1-.53a31.08,31.08,0,0,0-4.5,2c-1.75,1-1.76,2.05.05,3a31,31,0,0,0,5.92,2.4C26.6,20.46,34.66,20.88,44.47,21ZM27.15,6.93a3.59,3.59,0,0,0-3.5-3.53,3.66,3.66,0,0,0-3.53,3.54,3.58,3.58,0,0,0,3.53,3.5A3.54,3.54,0,0,0,27.15,6.93Z"/></svg>