<svg id="Layer_1" data-name="Layer 1" xmlns="http://www.w3.org/2000/svg" width="100" height="100" viewBox="0 0 100 100"><title>opt-in-and-opt-out </title><path d="M48.93,86.1v5.4c.48,0,.82.06,1.17.06H64.84c4.88,0,7.92-3,7.94-7.93,0-5.11,0-10.22,0-15.34a1.67,1.67,0,0,0-.88-1.63,15.25,15.25,0,0,1,0-25.88,1.77,1.77,0,0,0,.92-1.73c0-5.35,0-10.7,0-16.06,0-5-3-7.93-8-7.94h-5v5.22H24.61V15c-2.9.23-5.74-.49-8.46.59a7.12,7.12,0,0,0-4.5,5.5c-.1.5-.2.95.52,1.23a5.73,5.73,0,0,1,4,5.82A5.83,5.83,0,0,1,12,33.73l-.4.2V35.2c0,16.06.08,32.12-.05,48.18a7.77,7.77,0,0,0,8.22,8.21c3.07-.12,6.14,0,9.31,0v2.86a9.72,9.72,0,0,1-1,.08c-3,0-6.07,0-9.11,0A10.3,10.3,0,0,1,8.51,84q0-24.27,0-48.54V33.89l-.29.24A19.47,19.47,0,0,1,5,31.28a5.85,5.85,0,0,1,2.6-8.8,1.43,1.43,0,0,0,1-1.24c.91-5.75,5-9.19,10.86-9.21h5V6.71H34a8.47,8.47,0,0,1,3.59-5.34,8.35,8.35,0,0,1,5-1.36C46.27.15,49,2.47,50.36,6.68h9.38V12h5c6.73,0,11.09,4.38,11.09,11.11v15.7c7.61-1.54,13.84.39,17.93,7.06a14.18,14.18,0,0,1-.47,16.37c-4.19,6.07-10.2,7.8-17.46,6.29v1.27c0,4.67,0,9.35,0,14A10.3,10.3,0,0,1,65.16,94.5c-4.91,0-9.82,0-14.74,0H49V100l-6.08-3.43L36.76,93Zm44-32.42A12.61,12.61,0,1,0,80.41,66.15,12.55,12.55,0,0,0,92.94,53.68Zm-65.22-44v7.59H56.61V9.72ZM10.07,24.9A3.13,3.13,0,0,0,6.84,28,3.28,3.28,0,0,0,10,31.13,3.27,3.27,0,0,0,13.23,28,3.13,3.13,0,0,0,10.07,24.9Zm37-18.23A5.05,5.05,0,0,0,42,3a4.84,4.84,0,0,0-4.67,3.7Z"/><path d="M22.91,42.06H33.8V52.88H22.91Zm3,3v4.76h4.88V45.09Z"/><path d="M22.91,80.89V70.12H33.8V80.89Zm3-7.8v4.76H30.8V73.09Z"/><path d="M33.83,28.11V38.86H22.91V28.11Zm-7.92,7.77h4.86V31.09H25.91Z"/><path d="M33.81,66.87H22.93V56.15H33.81Zm-7.88-3h4.85V59.06H25.93Z"/><path d="M63.31,32.13V34.9H40V32.13Z"/><path d="M63.31,59.31v2.8H40v-2.8Z"/><path d="M39.93,48.84V46.09H63.25v2.75Z"/><path d="M39.94,76.89V74.1H63.27v2.79Z"/><path d="M72.47,53.76l2-2.09L78.25,56l8.1-8.6,1.91,2.09-10,10.35Z"/></svg>