<svg id="Layer_1" data-name="Layer 1" xmlns="http://www.w3.org/2000/svg" width="100" height="100" viewBox="0 0 100 100"><title>data-transfer1</title><path d="M95.12,77.52c0,5-.05,10,0,15.08A3.72,3.72,0,0,1,93,96.42a33.5,33.5,0,0,1-7.07,2.4,65.38,65.38,0,0,1-27.22-.52A22.12,22.12,0,0,1,54,96.43a4.09,4.09,0,0,1-2.22-4q0-15.14,0-30.27a4.08,4.08,0,0,1,2.71-4A38.09,38.09,0,0,1,62,55.85a65.93,65.93,0,0,1,25.84.56,24.24,24.24,0,0,1,5.32,2.1,3.72,3.72,0,0,1,2,3.69C95.07,67.31,95.12,72.41,95.12,77.52Zm-3.26,9.13a66.06,66.06,0,0,1-36.77,0c0,1.86,0,3.77,0,5.68a1.5,1.5,0,0,0,1,1.64,30.51,30.51,0,0,0,3.78,1.27,63.06,63.06,0,0,0,24.33.56A45.77,45.77,0,0,0,90.75,94a1.8,1.8,0,0,0,1.06-1.2C91.92,90.72,91.86,88.67,91.86,86.65ZM55.09,75.76c0,2,0,3.92,0,5.84a1.48,1.48,0,0,0,1,1.63,33.21,33.21,0,0,0,4.23,1.39,64.24,64.24,0,0,0,22.8.63,54.77,54.77,0,0,0,7.47-2c.48-.14,1.16-.71,1.18-1.11.12-2.13.06-4.26.06-6.44C80.77,79.42,67.47,79.42,55.09,75.76Zm0-10c0,1.81-.05,3.68,0,5.55A1.61,1.61,0,0,0,56,72.4a21.92,21.92,0,0,0,3.86,1.37,63.35,63.35,0,0,0,24.31.58,45.69,45.69,0,0,0,6.54-1.82,1.77,1.77,0,0,0,1.11-1.16c.12-1.9,0-3.81,0-5.62A65.36,65.36,0,0,1,55.1,65.75ZM91.82,62v-.67a35.63,35.63,0,0,0-3.53-1.42c-5.72-1.64-11.59-1.85-17.49-1.69a45.17,45.17,0,0,0-12.86,1.93,24.42,24.42,0,0,0-2.81,1.27V62A34.64,34.64,0,0,0,59,63.41a62.73,62.73,0,0,0,27.64.29A48.83,48.83,0,0,0,91.82,62Z"/><path d="M4.86,22.65c0-5.14,0-10.29,0-15.43A4.08,4.08,0,0,1,7,3.56a19.06,19.06,0,0,1,7.08-2.43,67.29,67.29,0,0,1,27.33.56,20.18,20.18,0,0,1,4.47,1.76,4.2,4.2,0,0,1,2.37,4.12q-.11,15,0,29.92a4.22,4.22,0,0,1-2.72,4.37,40.84,40.84,0,0,1-7.73,2.31,65.73,65.73,0,0,1-25.5-.58,24.17,24.17,0,0,1-5.23-2,4,4,0,0,1-2.21-4c.08-5,0-10,0-15Zm3.29-1.78c0,2-.06,4,0,5.95A1.93,1.93,0,0,0,9,28.26a20.49,20.49,0,0,0,4.09,1.44,63.61,63.61,0,0,0,23.38.65,49.63,49.63,0,0,0,7.13-1.89c.5-.15,1.19-.77,1.22-1.21.13-2.09.06-4.19.06-6.37-6.05,2.25-12.2,2.72-18.42,2.72S14.14,23.11,8.15,20.87Zm0,10.93c0,1.94,0,4,0,6A1.58,1.58,0,0,0,9,39a20.92,20.92,0,0,0,3.74,1.36,63.73,63.73,0,0,0,24.88.57,40.89,40.89,0,0,0,6.09-1.72c.48-.15,1.16-.7,1.19-1.11.11-2.12,0-4.25,0-6.25A66.39,66.39,0,0,1,8.15,31.8Zm0-20.9v2.93c0,3.8,0,3.81,3.69,4.83l.12,0a63.05,63.05,0,0,0,25.59.76,44.29,44.29,0,0,0,6.3-1.82,1.7,1.7,0,0,0,1-1.1c.1-1.91,0-3.82,0-5.62A65.57,65.57,0,0,1,8.15,10.9Zm0-4.49,0,.71A37.42,37.42,0,0,0,11.85,8.5a58.34,58.34,0,0,0,17.51,1.64A43.83,43.83,0,0,0,42.55,8a21.48,21.48,0,0,0,2.32-1.12l0-.39a12.75,12.75,0,0,0-2.42-1.09A75.4,75.4,0,0,0,33.9,3.73a60.78,60.78,0,0,0-21,1.05A47.34,47.34,0,0,0,8.17,6.41Z"/><path d="M21.06,86.81V62.64H15.44L22.72,50c2.45,4.23,4.8,8.3,7.25,12.55h-5.5V83.44c.33,0,.67.06,1,.07,1.88,0,3.77-.09,5.65,0,1.58.09,2.62-.14,3.45-1.82a6.21,6.21,0,0,1,7.52-2.81,6.61,6.61,0,0,1-.72,12.77,6.45,6.45,0,0,1-7.25-3.76,1.61,1.61,0,0,0-1.83-1.13C28.62,86.83,24.93,86.81,21.06,86.81Zm22.37-1.56a3.34,3.34,0,1,0-6.68-.11,3.46,3.46,0,0,0,3.35,3.41A3.41,3.41,0,0,0,43.43,85.25Z"/><path d="M75.22,36.64V15.71c-.37,0-.71-.07-1-.07-1.73,0-3.46,0-5.19,0s-3.06,0-4,2c-1.28,2.68-4.74,3.59-7.59,2.61a6.69,6.69,0,0,1-4.4-6.8,6.57,6.57,0,0,1,5.5-5.93,6.46,6.46,0,0,1,7.1,3.81,1.45,1.45,0,0,0,1.61,1.09c3.34,0,6.68,0,10,0h1.37V36.57h5.67l-7.3,12.64L69.66,36.64ZM62.86,14a3.32,3.32,0,1,0-3.24,3.37A3.37,3.37,0,0,0,62.86,14Z"/></svg>