<svg id="Layer_1" data-name="Layer 1" xmlns="http://www.w3.org/2000/svg" width="100" height="100" viewBox="0 0 100 100"><title>data-monetization</title><path d="M0,64.21a36.09,36.09,0,0,1,1.1-3.89,15.6,15.6,0,0,1,12.27-10l1.11-.24V4.13H83.06V33.36H79.75V7.44H17.93V50.17a16.28,16.28,0,0,1,11.4,7.13L46.07,42.18l13.38,14L89.33,30.09l-4.6-4.36,15.11-4.05c-1.36,5.06-2.68,10-4,15.11l-4-4.3L59.23,60.92c-4.44-4.67-8.86-9.31-13.34-14l-7.06,6.37c-2.42,2.19-4.83,4.39-7.27,6.56a1.17,1.17,0,0,0-.41,1.41A15.88,15.88,0,0,1,18.86,81.68c-.31.06-.63.14-1,.22V92.74H79.65V60.56a6.86,6.86,0,1,1,4.58-.43,1.52,1.52,0,0,0-1.1,1.68c0,11,0,22.09,0,33.14,0,.4.06.8.1,1.2H14.54v-14c-.18-.17-.2-.21-.23-.21l-.65-.12C7,80.55,2.56,76.69.56,70.15.34,69.43.19,68.68,0,68ZM15.91,78.59A12.58,12.58,0,1,0,3.37,65.83,12.65,12.65,0,0,0,15.91,78.59Zm65.55-28A3.5,3.5,0,0,0,78,54a3.44,3.44,0,1,0,3.46-3.4Z"/><path d="M29.69,20.31V17.05H68v3.26Z"/><path d="M29.7,35V31.79H68V35Z"/><path d="M33.72,79.3V76H67.94V79.3Z"/><path d="M68,63.36v3.18H38.15V63.36Z"/><path d="M11.83,71.44l.55-2.11a19.1,19.1,0,0,0,3.24.55A2.15,2.15,0,0,0,17.27,69c.36-.78-.45-1.19-1.1-1.48-.87-.4-1.79-.68-2.61-1.16a3,3,0,0,1,.14-5.42c1.07-.51,1.79-1,1.45-2.3h1.76L17,60a9.81,9.81,0,0,1,2.53,1c.24.17-.17,1.21-.29,1.91-.76-.18-1.42-.36-2.09-.48a2.09,2.09,0,0,0-1.08,0c-.43.18-1,.48-1.11.83s.36.93.73,1.14c.95.54,2,.84,3,1.4A3.23,3.23,0,0,1,19,71.12a13.84,13.84,0,0,1-2,1l-.08,1.7H15.11L15,72.29Z"/></svg>