<svg id="Layer_1" data-name="Layer 1" xmlns="http://www.w3.org/2000/svg" width="100" height="100" viewBox="0 0 100 100"><title>Privacy-policy </title><path d="M24.08,100V92.54c-5.26-1.74-6.79-7.83-2.46-12H6.32a4.53,4.53,0,0,1-.13-.68c0-4.6-.09-9.21,0-13.8.21-7.53,5.55-13.46,13-14a78.7,78.7,0,0,1,13.9.15c6.72.66,12.08,7,12.1,13.79,0,4.45,0,8.89,0,13.33V80.5H29.94c3.89,5.52,3,9.78-2.46,12v4.06H90.31V3.48H27.48V9.56h6L25.69,22.89l-7.6-13.3h6V0H93.84V100ZM42,77.14c0-3.67.05-7.24,0-10.8a11.15,11.15,0,0,0-11.28-11.1q-4.87,0-9.75,0A11.17,11.17,0,0,0,9.52,66.58c0,3.17,0,6.34,0,9.51,0,.34.05.68.07,1ZM29.08,86a3.34,3.34,0,1,0-6.67,0,3.34,3.34,0,1,0,6.67,0Z"/><path d="M25.69,48.81a10.12,10.12,0,1,1,10.17-10A10.07,10.07,0,0,1,25.69,48.81Zm0-3.3A6.8,6.8,0,1,0,19,38.63,6.81,6.81,0,0,0,25.69,45.51Z"/><path d="M51.49,19.06V15.89H86.25v3.17Z"/><path d="M86.29,26.39v3.17H51.49V26.39Z"/><path d="M51.49,40V36.85H86.25V40Z"/><path d="M51.46,50.49V47.37H86.25v3.12Z"/><path d="M86.29,57.82V61H51.49V57.82Z"/><path d="M86.29,68.3v3.16H51.49V68.3Z"/><path d="M86.29,78.78v3.16H51.49V78.78Z"/></svg>