<svg id="Layer_1" data-name="Layer 1" xmlns="http://www.w3.org/2000/svg" width="60" height="60" viewBox="0 0 60 60"><defs><style>.cls-1{fill:#fff;}</style></defs><title>Consultation-w</title><path class="cls-1" d="M44.45,52.19v3.94l-8.69-5,8.7-5V50H57.81V30.73c-.23,0-.45,0-.68,0H29a.84.84,0,0,0-.92.51,3.93,3.93,0,0,1-2.27,2c-.31.12-.48.24-.48.6V49.61c0,.14,0,.27.05.41,1.26,0,2.49,0,3.71,0a1.36,1.36,0,0,1,1,.6A1.2,1.2,0,0,1,30,51.71a1.35,1.35,0,0,1-1,.47c-1.54.06-3.07,0-4.61,0-.89,0-1.28-.38-1.3-1.26V34a.76.76,0,0,0-.55-.87A4.37,4.37,0,1,1,28.4,27.9c.05.17.11.34.17.53H31.2V23.89a7.76,7.76,0,0,1,.73-3.49A7.25,7.25,0,0,1,38,16a41.38,41.38,0,0,1,7,0,7.56,7.56,0,0,1,6.86,7.68v4.8h6.44c1.31,0,1.62.3,1.62,1.58V50.67c0,1.27-.27,1.54-1.56,1.54h-14Zm5.3-23.76c0-1.8.09-3.52,0-5.23a5.46,5.46,0,0,0-5.35-5.08c-1.93-.06-3.87-.06-5.8,0a5.46,5.46,0,0,0-5.19,5.44v4.25a3,3,0,0,0,0,.6ZM24.27,26.92A2.22,2.22,0,0,0,24,31.34h.21a2.22,2.22,0,0,0,.1-4.43Z"/><path class="cls-1" d="M17.67,44V39.4a2,2,0,0,0-2.26-2.28H7C2.51,37.16.2,34,.06,30.43,0,27.7,0,25,.05,22.26a6.28,6.28,0,1,1,12.55-.2c.11,2.67,0,5.36,0,8a1.08,1.08,0,0,1-1,1.16h-.07a1.12,1.12,0,0,1-1.14-1.09V22.48a4.08,4.08,0,0,0-3.84-4.1A4,4,0,0,0,2.29,22c0,.05,0,.11,0,.17-.11,2.86-.11,5.73,0,8.58a4.27,4.27,0,0,0,4.64,4.2h8.4A4.48,4.48,0,0,1,19,36.48a4,4,0,0,1,.87,2.67v9.64c0,.9-.4,1.38-1.11,1.37s-1.07-.48-1.07-1.34C17.66,47.23,17.67,45.6,17.67,44Z"/><path class="cls-1" d="M41.55,3.85A5.46,5.46,0,1,1,36.08,9.3v0a5.44,5.44,0,0,1,5.43-5.43ZM38.3,9.25a3.28,3.28,0,0,0,3.21,3.35h.09a3.35,3.35,0,0,0,3.28-3.31A3.38,3.38,0,0,0,41.58,6,3.29,3.29,0,0,0,38.3,9.27Z"/><path class="cls-1" d="M6.29,3.85a5.46,5.46,0,0,1,0,10.92h0a5.46,5.46,0,0,1,0-10.92ZM9.56,9.29A3.3,3.3,0,0,0,6.29,6a3.31,3.31,0,1,0-.4,6.6h.4A3.29,3.29,0,0,0,9.56,9.29Z"/></svg>