<svg id="Layer_1" data-name="Layer 1" xmlns="http://www.w3.org/2000/svg" width="75" height="75" viewBox="0 0 75 75"><defs><style>.cls-1{fill:#fff;}</style></defs><title>Consulting-w</title><path class="cls-1" d="M55.56,65.25v4.92L44.7,63.91l10.88-6.28V62.5H72.26V38.41c-.28,0-.56,0-.85,0H36.23a1,1,0,0,0-1.14.63,4.92,4.92,0,0,1-2.84,2.53c-.39.14-.6.3-.6.75V62a4.18,4.18,0,0,0,.07.51c1.56,0,3.1-.05,4.63,0a1.79,1.79,0,0,1,1.25.75,1.53,1.53,0,0,1-.1,1.38,1.72,1.72,0,0,1-1.24.58c-1.92.07-3.84,0-5.76,0-1.12,0-1.6-.47-1.63-1.58V42.52a.94.94,0,0,0-.69-1.08,5.46,5.46,0,1,1,7.32-6.57c.06.22.14.44.21.67H39V29.86a9.65,9.65,0,0,1,.91-4.36A9.09,9.09,0,0,1,47.56,20a51.6,51.6,0,0,1,8.79,0,9.44,9.44,0,0,1,8.58,9.59v6h8c1.64,0,2,.39,2,2V63.34c0,1.59-.34,1.92-2,1.92H55.56Zm6.63-29.71c0-2.25.11-4.39,0-6.53a6.82,6.82,0,0,0-6.69-6.36c-2.42-.08-4.83-.08-7.25,0a6.85,6.85,0,0,0-6.49,6.8v5.32a3.17,3.17,0,0,0,.06.75ZM30.34,33.66A2.77,2.77,0,1,0,30,39.18h.26a2.76,2.76,0,0,0,.12-5.52Z"/><path class="cls-1" d="M22.09,55V49.26c0-1.92-.86-2.84-2.82-2.85H8.71c-5.57,0-8.46-4-8.63-8.37C0,34.63,0,31.23.06,27.82a7.85,7.85,0,0,1,15.69-.24c.14,3.34.05,6.69,0,10a1.34,1.34,0,0,1-1.24,1.44h-.08A1.4,1.4,0,0,1,13,37.7V28.11A5.08,5.08,0,0,0,8.24,23a5,5,0,0,0-5.37,4.5,1.49,1.49,0,0,0,0,.21c-.13,3.58-.14,7.16,0,10.73.15,3.25,2.48,5.25,5.81,5.25h10.5a5.58,5.58,0,0,1,4.57,1.93,5.18,5.18,0,0,1,1.09,3.34V61c0,1.13-.5,1.73-1.4,1.71s-1.33-.6-1.33-1.68C22.08,59,22.09,57,22.09,55Z"/><path class="cls-1" d="M51.94,4.81a6.83,6.83,0,1,1-6.84,6.81h0a6.8,6.8,0,0,1,6.78-6.8Zm-4.07,6.75a4.12,4.12,0,0,0,4,4.19H52a4.2,4.2,0,0,0,4.11-4.13A4.24,4.24,0,0,0,52,7.49a4.13,4.13,0,0,0-4.11,4.1Z"/><path class="cls-1" d="M7.86,4.81a6.83,6.83,0,1,1,0,13.65h0a6.83,6.83,0,0,1,0-13.65ZM12,11.62A4.15,4.15,0,0,0,7.86,7.5a4.13,4.13,0,0,0-.5,8.25h.5A4.12,4.12,0,0,0,12,11.62Z"/></svg>