<svg id="Layer_1" data-name="Layer 1" xmlns="http://www.w3.org/2000/svg" width="100" height="100" viewBox="0 0 100 100"><title>Data protection</title><path d="M9.72,71.71c0,4-.05,8.16.06,12.27a2.94,2.94,0,0,0,1.29,1.85,22.1,22.1,0,0,0,7.82,3c2.17.49,4.37.86,6.69,1.32l-.45,3.4c-2.2-.42-4.38-.68-6.46-1.26-2.76-.78-5.48-1.75-8.16-2.76a9.12,9.12,0,0,1-2.4-1.57,5,5,0,0,1-1.86-4.16q.09-8.19.09-16.39c0-5.46-.07-10.93-.08-16.39,0-12,0-24.07,0-36.11a5.21,5.21,0,0,1,2.67-4.68,44.11,44.11,0,0,1,5.18-2.5c.59-.26.89-.49.93-1.2A6.9,6.9,0,0,1,28.13,4a1.17,1.17,0,0,0,1.37.81,124.42,124.42,0,0,1,22.59,0C57.92,5.27,63.73,6,69.21,8.21a22.35,22.35,0,0,1,4.49,2.54,4.56,4.56,0,0,1,1.91,4c0,5.27,0,10.55-.07,15.82A29.27,29.27,0,0,1,75,34.19c2.36,3.73,6.28,6,10.76,7.45a41.11,41.11,0,0,0,5.73,1.22c1.84.31,2.28.73,2.28,2.64,0,7,0,14,0,21a10,10,0,0,1-5.44,9.26c-3.85,2.1-7.8,4-11.74,5.92-.76.37-1.15.78-1,1.65.34,2.51-.93,4.18-2.91,5.45a26.85,26.85,0,0,1-10.25,3.66c-4.28.72-8.61,1.15-12.91,1.69-.46.06-.91.09-1.43.14V100L34.8,92.35,48,84.73V91c3.74-.46,7.34-.72,10.88-1.37,3.16-.58,6.25-1.54,9.35-2.42a11.21,11.21,0,0,0,2.58-1.26,2.81,2.81,0,0,0,1.34-3.46,1.37,1.37,0,0,0-.69-.67q-6.25-3.21-12.55-6.36a2.19,2.19,0,0,0-1.2-.07,108.07,108.07,0,0,1-40.24-1.12C14.85,73.64,12.36,72.58,9.72,71.71ZM73.84,38.4C69.55,42.79,64.32,45,58.51,46c-.91.16-1.1.48-1.09,1.31q0,9.53,0,19a6.66,6.66,0,0,0,3.71,6.31c4,2.13,8.16,4.13,12.25,6.16a1.36,1.36,0,0,0,1.06.06c4.19-2.08,8.42-4.11,12.53-6.36a6.34,6.34,0,0,0,3.33-5.94c0-6.38,0-12.77,0-19.16V46.23C84,45.26,78.38,43.05,73.84,38.4ZM9.72,19.4v1.06c0,3.16.08,6.32,0,9.47a2.65,2.65,0,0,0,1.67,2.84,53.85,53.85,0,0,0,6.45,2.41,81.27,81.27,0,0,0,18.25,2.41,100.58,100.58,0,0,0,26.14-2,63.2,63.2,0,0,0,8.25-2.82,2.69,2.69,0,0,0,1.75-2.92c-.1-3.11,0-6.23,0-9.34v-1c-3,.95-5.9,2-8.86,2.74-8.49,2-17.13,2.31-25.8,2.12a88.07,88.07,0,0,1-20.89-2.59C14.31,21.16,12.09,20.22,9.72,19.4Zm60.9,17.35-.94.3c-2.77.79-5.5,1.75-8.31,2.31a106.85,106.85,0,0,1-24.22,1.73,100.29,100.29,0,0,1-16.84-1.73A37.42,37.42,0,0,1,9.72,35.87v1.3c0,3.42.09,6.85,0,10.27a2.84,2.84,0,0,0,1.86,3.08A45.52,45.52,0,0,0,18.24,53c11.53,2.72,23.21,2.94,35,1.67.76-.09.81-.48.81-1.09,0-2.77,0-5.54,0-8.31,0-1.65.38-2,2-2.32a52.88,52.88,0,0,0,5.19-1A21.49,21.49,0,0,0,70.62,36.75ZM9.72,53.6c0,4.11,0,8.11,0,12.1a2.32,2.32,0,0,0,1.38,2.43,42.25,42.25,0,0,0,6.08,2.41c11,2.88,22.26,3.14,33.56,2.2,1.58-.14,3.16-.37,4.87-.58-2.75-4.54-1-9.42-1.73-14.11-.43,0-.85,0-1.27.08a101.22,101.22,0,0,1-17.75.51C26.31,58.17,17.81,57.43,9.72,53.6ZM40.93,21.24c5.32-.43,10.66-.75,16-1.34A41.75,41.75,0,0,0,68.71,17a15.77,15.77,0,0,0,2.86-1.68,1.07,1.07,0,0,0,0-1.85,5.31,5.31,0,0,0-1.31-.93,45.61,45.61,0,0,0-5.7-2.15C53,7.39,41.24,7.28,29.42,8.25a1.39,1.39,0,0,0-.9.8c-2,5.43-8.28,6.55-12.13,2.17-.19-.21-.62-.44-.81-.36A38.23,38.23,0,0,0,10.87,13c-1.53.89-1.53,1.91,0,2.75a29,29,0,0,0,5.59,2.38C24.45,20.44,32.67,20.91,40.93,21.24ZM21.76,10.47a3.57,3.57,0,0,0,3.63-3.42A3.6,3.6,0,0,0,22,3.42a3.53,3.53,0,0,0-.2,7.05Z"/></svg>