<svg id="Layer_1" data-name="Layer 1" xmlns="http://www.w3.org/2000/svg" width="75" height="75" viewBox="0 0 75 75"><defs><style>.cls-1{fill:#fff;}</style></defs><title>design-thinking</title><path class="cls-1" d="M59.84,63.89c0-1.69,0-3.32,0-4.94,0-.22-.38-.51-.65-.63a5.6,5.6,0,0,1-3.59-4.94,5.44,5.44,0,0,1,3.09-5.5,5.71,5.71,0,1,1,4.77,10.37,1,1,0,0,0-.76,1.13c0,2.15,0,4.3,0,6.45v.92H0V19H23.9V14.1l11,6.32L24,26.71V21.88H2.83v42ZM64.14,53a2.88,2.88,0,0,0-5.76-.15,2.88,2.88,0,1,0,5.76.15Z"/><path class="cls-1" d="M75,42.78l-8.23-8.24L45.56,55.75c-6-6-12-12-18-18L48.77,16.62l-8.2-8.19.08-.18,30.92,3.41C72.71,22,73.84,32.26,75,42.78Zm-43.51-5,14,14L66.8,30.4l4.47,4.52c-.07-.57-.12-1-.17-1.47q-1-9.29-2-18.56c0-.49-.24-.68-.76-.73C63,13.59,57.71,13,52.4,12.4L48.5,12l-.07.16,4.42,4.29Z"/></svg>