<svg id="Layer_1" data-name="Layer 1" xmlns="http://www.w3.org/2000/svg" width="60" height="60" viewBox="0 0 60 60"><defs><style>.cls-1{fill:#fff;}</style></defs><title>Digital Business Platforms-w</title><path class="cls-1" d="M8.36,60H0V51.68H6.33V47.09H0V38.73H6.34V34.19H0V25.82H6.34V21.28H0V12.86H6.35V8.38H0V0H8.31V6.38h6.45v8.4H8.38v4.51h6.38v8.45H8.38v4.48h6.37v8.42H8.38v4.48h6.37v8.45H8.36Zm0-34.24h4.46V21.31H8.36Zm0,12.91h4.45V34.24H8.37Zm0,12.92h4.45V47.15H8.36Zm0-43.2v4.46c1.42,0,2.8,0,4.18,0,.11,0,.3-.23.3-.35,0-1.36,0-2.71,0-4.1ZM2,6.37H6.33V1.94H2ZM6.33,19.29V14.87H2v4.42ZM1.93,32.2h4.4V27.81H1.93Zm4.42,8.51H2v4.4h4.4ZM1.94,53.61v4.45h4.4V53.61Z"/><path class="cls-1" d="M39.31,25.69a1.64,1.64,0,0,0,1.8-1.83.73.73,0,0,1,.5-1c.47-.18.92-.42,1.38-.63.73-.33,1.36-.41,1.86.45.29.51,1.74.48,2.06,0a1.19,1.19,0,0,1,1.74-.44c.32.15.65.26,1,.4,1,.49,1,.49,1,1.64,0,.51.94,1.45,1.48,1.44,1.14,0,1.15,0,1.61,1,.15.34.26.7.41,1a1.1,1.1,0,0,1-.42,1.58,1.52,1.52,0,0,0,0,2.07,1,1,0,0,1,.4,1.45c-.16.38-.3.78-.45,1.16-.27.72-.62,1.22-1.56,1-.63-.15-1.6.93-1.48,1.6A1,1,0,0,1,49.89,38c-.39.14-.77.33-1.15.5-.73.33-1.35.4-1.86-.44-.32-.52-1.78-.45-2.13.09a1,1,0,0,1-1.5.44c-.37-.19-.78-.3-1.16-.47-1-.46-1-.47-.92-1.57,0-.58-1-1.62-1.56-1.48-.86.21-1.23-.2-1.48-.89a10.2,10.2,0,0,0-.4-1c-.34-.75-.38-1.36.44-1.88.47-.3.39-1.64-.11-2a1,1,0,0,1-.42-1.51c.22-.48.42-1,.61-1.47S38.77,25.48,39.31,25.69Zm3.8-.79c.24.57,0,.8-.41,1.08a5.6,5.6,0,0,0-1.22,1.21,1.08,1.08,0,0,1-1.26.56c-.16,0-.35.1-.53.16.09.15.15.35.28.43.56.32.58.77.48,1.35a4.78,4.78,0,0,0,0,1.51,1,1,0,0,1-.43,1.12c-.16.11-.24.35-.35.52.2,0,.43.18.61.14a.94.94,0,0,1,1.13.51,4.45,4.45,0,0,0,1.16,1.17,1.08,1.08,0,0,1,.57,1.25c0,.17.08.37.12.56.18-.11.43-.18.53-.34A1,1,0,0,1,45,35.68a4.1,4.1,0,0,0,1.44,0c.67-.11,1.26-.16,1.63.57a.38.38,0,0,0,.33.17.4.4,0,0,0,.18-.31c-.26-.91.3-1.35.93-1.77a2.07,2.07,0,0,0,.58-.6c.38-.59.77-1.09,1.59-.78a.37.37,0,0,0,.33-.16.39.39,0,0,0-.09-.35c-.8-.39-.73-1.05-.59-1.76a1.91,1.91,0,0,0,0-.89c-.17-.66-.14-1.21.54-1.58.1-.05.15-.27.14-.4s-.24-.17-.33-.14c-.83.29-1.2-.25-1.6-.81a2.94,2.94,0,0,0-.85-.8,1.15,1.15,0,0,1-.65-1.36c0-.14-.08-.32-.12-.48-.16.08-.39.13-.48.27a1.06,1.06,0,0,1-1.27.49,5.13,5.13,0,0,0-1.79,0,.86.86,0,0,1-1-.35,2.3,2.3,0,0,0-.61-.43Z"/><path class="cls-1" d="M24.47,21.23H16.14V12.92h8.33Zm-1.95-1.95V14.85H18.1v4.43Z"/><path class="cls-1" d="M35.59,19.71V28H27.25V19.71Zm-2,1.95H29.2v4.42h4.44Z"/><path class="cls-1" d="M27.24,40.61V32.29h8.32v8.32Zm6.4-6.37H29.21v4.43h4.43Z"/><path class="cls-1" d="M24.47,46.62H16.15V38.27h8.32Zm-6.4-2h4.46V40.21H18.07Z"/><path class="cls-1" d="M16.15,25.84h8.32v8.29H16.15Zm6.43,2h-4.5v4.4h4.5V27.8Z"/><path class="cls-1" d="M45.87,34.19a3.9,3.9,0,1,1,3.9-3.92A3.88,3.88,0,0,1,45.87,34.19Zm2-3.88a2,2,0,0,0-4,0,2,2,0,0,0,1.95,1.95A2,2,0,0,0,47.84,30.31Z"/></svg>