<svg id="Layer_1" data-name="Layer 1" xmlns="http://www.w3.org/2000/svg" width="75" height="75" viewBox="0 0 75 75"><defs><style>.cls-1{fill:#fff;}</style></defs><title>digital-transformation-w</title><path class="cls-1" d="M42.4,60.15v9.09h-9V62.7a18.09,18.09,0,0,0-2.08-.21,1.1,1.1,0,0,0-.75.38c-.8.91-1.5,1.88-2.36,2.77a1.05,1.05,0,0,1-.9.28c-2.19-.86-4.37-1.78-6.55-2.68a.84.84,0,0,1-.56-1.05,33,33,0,0,0,.3-3.45,1.43,1.43,0,0,0-.39-1c-1.43-1.5-2.89-2.93-4.36-4.36a1.32,1.32,0,0,0-.9-.38c-1.18.05-2.37.18-3.54.31a.75.75,0,0,1-.93-.5c-.89-2.25-1.82-4.5-2.68-6.75a1,1,0,0,1,.26-.84c.9-.81,1.87-1.55,2.78-2.35a1.15,1.15,0,0,0,.33-.84,18.87,18.87,0,0,1,0-5.81,1.1,1.1,0,0,0-.36-.78Q9.37,34.35,8,33.23a.8.8,0,0,1-.33-1.07c.9-2.18,1.77-4.37,2.65-6.56a.82.82,0,0,1,1-.54c1.12.14,2.25.21,3.36.34a1.23,1.23,0,0,0,1.15-.48c1.36-1.45,2.79-2.86,4.23-4.24a1.08,1.08,0,0,0,.46-1.05c-.15-1.2-.26-2.41-.32-3.62a.87.87,0,0,1,.37-.71c2.27-1,4.55-2,6.85-2.86a.93.93,0,0,1,.75.3c.75.84,1.5,1.69,2.17,2.6a1.28,1.28,0,0,0,1.42.59c.49-.11,1-.14,1.56-.21V9.23h9.1v6.6H56.14V29.19H69.5v9.07H62.92v7.27H56.24v3.41h6.6V58H56.22V64.3H47.14v-9h6.59V51.76H47.14V42.68h6.58v-11H47.15c0-.48-.06-.89-.06-1.29V25.74c0-.63-.17-.84-.81-.82h-5.9V18.4c-.15-.08-.22-.16-.29-.15-3.21.06-6.42-.29-9.62.26a1.2,1.2,0,0,1-.9-.33q-1.12-1.29-2.25-2.67a.75.75,0,0,0-1-.28c-1,.45-2.07.89-3.12,1.3-.53.2-.6.52-.53,1,.14,1.12.23,2.25.28,3.37a1.11,1.11,0,0,1-.38.81,23.26,23.26,0,0,0-5.77,5.77,1.22,1.22,0,0,1-.9.37c-1.13-.06-2.25-.23-3.37-.28a1.1,1.1,0,0,0-.81.48c-.49,1.07-.88,2.19-1.36,3.27a.68.68,0,0,0,.25.93h0c.84.66,1.64,1.38,2.49,2a1.07,1.07,0,0,1,.46,1.22,19.13,19.13,0,0,0,0,7.31A1,1,0,0,1,13.18,44c-.87.67-1.73,1.37-2.54,2.12a1,1,0,0,0-.23.82c.41,1.14.85,2.25,1.36,3.36a1,1,0,0,0,.82.44c1.13,0,2.25-.22,3.37-.27a1.29,1.29,0,0,1,.94.46,22,22,0,0,0,5.61,5.58.92.92,0,0,1,.5,1c-.15,1.12-.24,2.25-.29,3.37a1.08,1.08,0,0,0,.42.83c1.1.53,2.22,1,3.37,1.42a.9.9,0,0,0,.82-.25c.79-.87,1.5-1.82,2.29-2.7a1.1,1.1,0,0,1,.75-.35c1.85.07,3.69.23,5.55.28C38,60.18,40.18,60.15,42.4,60.15Zm7.11-2.5v4.24H53.7V57.65ZM40,15.8V11.6H35.8v4.2Zm7,6.7V18.27H42.83V22.5Zm2.62-4.23v4.21h4.15V18.27ZM53.74,25H49.85a.5.5,0,0,0-.36.34v3.82h4.25Zm6.6,10.91V31.73H56.22v4.19Zm6.75,0V31.73H63V36ZM49.5,49.25h4.21V45.1H49.5ZM35.81,62.61v4.24H40V62.61ZM60.38,43.1V38.93H56.25v4.19Zm0,8.26H56.67a.74.74,0,0,0-.51.54c0,1.05,0,2.09,0,3.12,0,.21.27.56.43.57,1.25,0,2.51,0,3.8,0Z"/><path class="cls-1" d="M33.11,52.13V48l9.6,5.54L33.16,59V54.69l-1.63-.29a15.72,15.72,0,0,1-2.6-30.13,1.25,1.25,0,0,0,.95-1,4.7,4.7,0,0,1,5-3.64A4.82,4.82,0,1,1,30.44,27l-.29-.49c-5.25,1-9.51,7.78-8.86,14S27.71,52.27,33.11,52.13Zm1.44-25.28A2.48,2.48,0,0,0,37,24.42a2.44,2.44,0,0,0-4.87,0A2.49,2.49,0,0,0,34.55,26.85Z"/><path class="cls-1" d="M56.14.93V10h-9v-9ZM53.72,7.6V3.4h-4.2V7.6Z"/><path class="cls-1" d="M69.51,24.9h-9v-9h9ZM67.1,22.5V18.27H62.94V22.5Z"/><path class="cls-1" d="M60.51,66.93h9v9h-9Zm2.43,6.58h4.19v-4.2H62.94Z"/></svg>