<svg id="Layer_1" data-name="Layer 1" xmlns="http://www.w3.org/2000/svg" viewBox="0 0 689.56 405.28"><defs><style>.cls-1,.cls-2{fill:none;}.cls-1{stroke:#061838;stroke-miterlimit:10;}.cls-3{fill:#64b5f6;}.cls-4{fill:#90caf9;}.cls-5{fill:#1e88e5;}.cls-6{fill:#2196f3;}.cls-7{fill:#42a5f5;}.cls-8{fill:#061838;}.cls-9{fill:#fff;}</style></defs><title>media-entertainment</title><polyline class="cls-1" points="344.57 59.77 414.81 10.54 688.31 10.54"/><polyline class="cls-1" points="429.31 322.09 478.45 379.78 688.31 379.78"/><polyline class="cls-1" points="258.88 321.8 211.11 379.78 1.25 379.78"/><line class="cls-1" x1="481.06" y1="160.78" x2="688.31" y2="160.78"/><line class="cls-1" x1="1.25" y1="159.55" x2="208.5" y2="159.55"/><polyline class="cls-1" points="344.99 60.07 274.75 10.84 1.25 10.84"/><polygon class="cls-2" points="344.57 89.35 234.51 169.31 276.55 298.69 412.58 298.69 454.62 169.31 344.57 89.35"/><polygon class="cls-3" points="415.52 180.86 483.16 160.78 344.54 59.34 344.57 129.31 415.52 180.86"/><polygon class="cls-4" points="388.42 264.27 429.98 322.96 483.16 160.78 415.52 180.86 388.42 264.27"/><polygon class="cls-5" points="258.66 322.2 429.98 322.96 388.42 264.27 300.71 264.27 258.66 322.2"/><polygon class="cls-6" points="205.97 159.55 273.61 180.86 300.71 264.27 258.66 322.2 205.97 159.55"/><polygon class="cls-7" points="205.97 159.55 273.61 180.86 344.57 129.31 344.54 59.34 205.97 159.55"/><polygon class="cls-8" points="344.57 127.06 271.48 180.16 299.39 266.08 389.74 266.08 417.65 180.16 344.57 127.06"/><path class="cls-9" d="M329.59,169.45v17h-1.9V172.39l-2.34,14.09h-2L321,172.39v14.09h-1.85v-17h3.07l2.16,13.43,2.17-13.43Z"/><path class="cls-9" d="M333.14,180.59v3.14a1,1,0,0,0,1.17,1.17h.34a1,1,0,0,0,1.17-1.17v-1.51h1.8v1.44a2.63,2.63,0,0,1-3,3h-.39a2.63,2.63,0,0,1-3-3v-7.5a2.63,2.63,0,0,1,3-3h.39a2.63,2.63,0,0,1,3,3v4.43Zm0-1.75h2.63v-2.75a1,1,0,0,0-1.17-1.17h-.29a1,1,0,0,0-1.17,1.17Z"/><path class="cls-9" d="M345.65,186.48H343.8v-.85a3.1,3.1,0,0,1-2.26,1c-1.59,0-2.36-1-2.36-2.61V175.8c0-1.56.77-2.61,2.36-2.61a3.16,3.16,0,0,1,2.26.95V169.2h1.85Zm-1.85-10.85a2.61,2.61,0,0,0-1.7-.68A.94.94,0,0,0,341,176v7.79a.94.94,0,0,0,1.07,1.07,2.62,2.62,0,0,0,1.7-.69Z"/><path class="cls-9" d="M347.38,169.93h1.94V172h-1.94Zm.05,3.41h1.85v13.14h-1.85Z"/><path class="cls-9" d="M350.88,181.91a2.46,2.46,0,0,1,1.95-2.78l2.48-.85v-2.19a1,1,0,0,0-1.17-1.19H354a1,1,0,0,0-1.17,1.19v1.63H351v-1.56a2.63,2.63,0,0,1,3-3h.19a2.63,2.63,0,0,1,3,3v10.32h-1.85v-.83a3.11,3.11,0,0,1-2.26,1c-1.49,0-2.17-.85-2.17-2.31Zm4.43,2.36V180l-1.68.59a1.22,1.22,0,0,0-.9,1.36v2a.83.83,0,0,0,.9.95A2.94,2.94,0,0,0,355.31,184.27Z"/><path class="cls-9" d="M367.87,184.39c-.56,1.61-1.22,2.24-3.21,2.24h-.27a2.63,2.63,0,0,1-3-3v-3.43a3.51,3.51,0,0,1,1.14-2.87l.95-.83-.56-1a4.5,4.5,0,0,1-.58-2.51v-.73a2.63,2.63,0,0,1,3-3h.44a2.58,2.58,0,0,1,2.92,2.92v2.51h-1.88v-2.49a1,1,0,0,0-1.17-1.16h-.19a1,1,0,0,0-1.17,1.16V173a3.17,3.17,0,0,0,.34,1.68l2.95,5.57,1.19-3.87h1.8l-1.83,5.77,2.39,4.33H369Zm-1.56-.88.37-1.12-2.32-4.26-.34.32a2,2,0,0,0-.73,1.7v3.53a1,1,0,0,0,1.17,1.17H365C365.78,184.85,366,184.46,366.31,183.51Z"/><path class="cls-9" d="M307.21,193.45v1.8H303.8v5.64h3.29v1.78H303.8v6h3.46v1.8h-5.4v-17Z"/><path class="cls-9" d="M308.79,197.34h1.85v.85a3.24,3.24,0,0,1,2.34-1,2.06,2.06,0,0,1,2.24,2.36v10.93h-1.85V199.94c0-.68-.32-1-.95-1a3,3,0,0,0-1.78.65v10.88h-1.85Z"/><path class="cls-9" d="M319.23,210.48h-1.85V199h-.87v-1.7h.87v-2.19h1.85v2.19h1.34V199h-1.34Z"/><path class="cls-9" d="M323.34,204.59v3.14a1,1,0,0,0,1.17,1.17h.34a1,1,0,0,0,1.17-1.17v-1.51h1.8v1.44a2.63,2.63,0,0,1-3,3h-.39a2.63,2.63,0,0,1-3-3v-7.5a2.63,2.63,0,0,1,3-3h.39a2.63,2.63,0,0,1,3,3v4.43Zm0-1.75H326v-2.75a1,1,0,0,0-1.17-1.17h-.29a1,1,0,0,0-1.17,1.17Z"/><path class="cls-9" d="M329.43,197.34h1.85v1.39c.56-1,1.12-1.51,2.12-1.51v2.09a3.26,3.26,0,0,0-2.12.83v10.34h-1.85Z"/><path class="cls-9" d="M336.8,210.48H335V199h-.87v-1.7H335v-2.19h1.85v2.19h1.34V199H336.8Z"/><path class="cls-9" d="M339,205.91a2.46,2.46,0,0,1,1.94-2.78l2.49-.85v-2.19a1,1,0,0,0-1.17-1.19h-.15a1,1,0,0,0-1.17,1.19v1.63h-1.8v-1.56a2.63,2.63,0,0,1,3-3h.2a2.63,2.63,0,0,1,3,3v10.32h-1.85v-.83a3.13,3.13,0,0,1-2.27,1c-1.48,0-2.16-.85-2.16-2.31Zm4.43,2.36V204l-1.68.59a1.22,1.22,0,0,0-.9,1.36v2c0,.63.31.95.9.95A2.94,2.94,0,0,0,343.45,208.27Z"/><path class="cls-9" d="M347,193.93h1.95V196H347Zm0,3.41h1.85v13.14H347Z"/><path class="cls-9" d="M350.65,197.34h1.85v.85a3.22,3.22,0,0,1,2.34-1c1.53,0,2.23.88,2.23,2.36v10.93h-1.84V199.94c0-.68-.32-1-1-1a3,3,0,0,0-1.78.65v10.88h-1.85Z"/><path class="cls-9" d="M365,210.48h-1.85V199.9c0-.66-.31-1-.87-1a3,3,0,0,0-1.71.65v10.88h-1.85V197.34h1.85v.85a3.2,3.2,0,0,1,2.27-1,2,2,0,0,1,1.92,1.07,3.79,3.79,0,0,1,2.51-1.07,2,2,0,0,1,2.16,2.32v11h-1.85V199.9c0-.66-.31-1-.87-1a3,3,0,0,0-1.71.65Z"/><path class="cls-9" d="M372.92,204.59v3.14a1,1,0,0,0,1.17,1.17h.34a1,1,0,0,0,1.17-1.17v-1.51h1.8v1.44a2.63,2.63,0,0,1-3,3H374a2.63,2.63,0,0,1-3-3v-7.5a2.63,2.63,0,0,1,3-3h.39a2.63,2.63,0,0,1,3,3v4.43Zm0-1.75h2.63v-2.75a1,1,0,0,0-1.17-1.17h-.29a1,1,0,0,0-1.17,1.17Z"/><path class="cls-9" d="M379,197.34h1.85v.85a3.24,3.24,0,0,1,2.34-1,2.06,2.06,0,0,1,2.24,2.36v10.93h-1.85V199.94c0-.68-.32-1-.95-1a3,3,0,0,0-1.78.65v10.88H379Z"/><path class="cls-9" d="M389.44,210.48h-1.85V199h-.87v-1.7h.87v-2.19h1.85v2.19h1.34V199h-1.34Z"/><path class="cls-9" d="M319.91,234.63h-.73c-2.11,0-3.16-1-3.16-3.17v-11q0-3.17,3.16-3.16h.73c2.12,0,3.17,1,3.17,3.16v11C323.08,233.58,322,234.63,319.91,234.63Zm-.07-15.55h-.58a1.12,1.12,0,0,0-1.29,1.29v11.19a1.12,1.12,0,0,0,1.29,1.29h.58a1.12,1.12,0,0,0,1.29-1.29V220.37A1.12,1.12,0,0,0,319.84,219.08Z"/><path class="cls-9" d="M325.22,219.85a2.34,2.34,0,0,1,2.65-2.65h.76v1.71h-.69a.77.77,0,0,0-.87.87v1.56h1.48V223h-1.48v11.44h-1.85V223h-.76v-1.7h.76Z"/><path class="cls-9" d="M330,219.85a2.34,2.34,0,0,1,2.65-2.65h.76v1.71h-.69a.77.77,0,0,0-.87.87v1.56h1.48V223h-1.48v11.44H330V223h-.76v-1.7H330Z"/><path class="cls-9" d="M335.93,228.59v3.14a1,1,0,0,0,1.16,1.17h.35a1,1,0,0,0,1.16-1.17v-1.51h1.8v1.44a2.63,2.63,0,0,1-3,3h-.39a2.63,2.63,0,0,1-3-3v-7.5a2.63,2.63,0,0,1,3-3h.39a2.63,2.63,0,0,1,3,3v4.43Zm0-1.75h2.62v-2.75a1,1,0,0,0-1.16-1.17h-.3a1,1,0,0,0-1.16,1.17Z"/><path class="cls-9" d="M342,221.34h1.85v1.39c.56-1,1.12-1.51,2.12-1.51v2.09a3.28,3.28,0,0,0-2.12.83v10.34H342Z"/><path class="cls-9" d="M347.19,217.93h1.95V220h-1.95Zm.05,3.41h1.85v13.14h-1.85Z"/><path class="cls-9" d="M350.87,221.34h1.85v.85a3.22,3.22,0,0,1,2.34-1c1.53,0,2.23.88,2.23,2.36v10.93h-1.84V223.94c0-.68-.32-1-.95-1a3,3,0,0,0-1.78.65v10.88h-1.85Z"/><path class="cls-9" d="M365.4,234.41c0,2-.93,2.85-2.87,2.85h-1c-1.75,0-2.58-.81-2.58-2.56V234h1.73v.63c0,.65.29,1,.95,1h1c.66,0,.95-.37.95-1v-2.39a3.19,3.19,0,0,1-2.26.9c-1.59,0-2.37-1-2.37-2.6V223.8c0-1.56.78-2.61,2.37-2.61a3.16,3.16,0,0,1,2.26.95v-.8h1.85Zm-1.85-10.78a2.61,2.61,0,0,0-1.7-.68.94.94,0,0,0-1.08,1.07v6.3a1,1,0,0,0,1.08,1.07,2.83,2.83,0,0,0,1.7-.63Z"/><path class="cls-9" d="M371.41,224a1,1,0,0,0-1.12-1.12H370a1,1,0,0,0-1.12,1.12v1.15a1.27,1.27,0,0,0,.68,1.24l2.2,1.36a2.68,2.68,0,0,1,1.53,2.6v1.32a2.63,2.63,0,0,1-3,3h-.37a2.59,2.59,0,0,1-2.92-2.92v-2h1.83v2.07A1,1,0,0,0,370,233h.36a1,1,0,0,0,1.12-1.12v-1.24a1.32,1.32,0,0,0-.68-1.24L368.56,228a2.72,2.72,0,0,1-1.53-2.6v-1.22a2.63,2.63,0,0,1,3-3h.31a2.6,2.6,0,0,1,2.93,2.92V226h-1.83Z"/><path d="M264.91,147.78l-3.32,2.35,1.83,2.59,3.71-2.63.94,1.32-5.32,3.76-6.24-8.8,5.12-3.63.94,1.32-3.51,2.49,1.61,2.27,3.31-2.35Z"/><path d="M266,143.34l1.61.66c.45.19.86.38,1.27.57l0,0c-.07-.49-.11-.94-.16-1.4l-.13-1.67,1.75-1.24,0,4.56,4.5,1.77-1.81,1.29-1.68-.72c-.45-.19-.87-.4-1.31-.62l0,0c.07.49.11.94.15,1.44l.17,1.78L268.61,151l-.08-4.8-4.35-1.62Z"/><path d="M272.85,141.64c-.59-.83-1.1-1.49-1.55-2.08l1.41-1,.77.93,0,0a3.05,3.05,0,0,1,1.38-2.67c1.47-1,3.57-.64,5,1.34,1.63,2.3,1,4.44-.49,5.47A2.59,2.59,0,0,1,277,144l0,0,2.33,3.29-1.61,1.13Zm2.73.45a2,2,0,0,0,.36.4,1.79,1.79,0,0,0,2.21.13c1-.73,1-2,.13-3.25s-2-1.65-3-.92a1.83,1.83,0,0,0-.6,2.2,2.43,2.43,0,0,0,.22.46Z"/><path d="M282.7,136.94a2.12,2.12,0,0,0,3.12.26,5.7,5.7,0,0,0,1.56-1.54l1,1a7.32,7.32,0,0,1-2,2,3.68,3.68,0,0,1-5.55-.89c-1.25-1.76-1.36-4.18.68-5.62s4-.25,4.94,1.15a5.09,5.09,0,0,1,.43.72Zm2-3.1a1.67,1.67,0,0,0-2.42-.62,1.94,1.94,0,0,0-.38,2.6Z"/><path d="M287.18,131.39c-.61-.86-1.06-1.46-1.51-2l1.4-1,.92,1.18.05,0a2.32,2.32,0,0,1,.77-2.59,1.84,1.84,0,0,1,.41-.22l1.07,1.51a3,3,0,0,0-.51.28,1.73,1.73,0,0,0-.57,2.23,3.35,3.35,0,0,0,.3.54l2.33,3.29-1.61,1.14Z"/><path d="M290.83,123.06a1,1,0,0,1-.31,1.51,1,1,0,0,1-1.49-.23,1,1,0,0,1,.28-1.51A1.06,1.06,0,0,1,290.83,123.06Zm4.05,9.35-4.5-6.36L292,124.9l4.51,6.37Z"/><path d="M297.43,126.51a2.11,2.11,0,0,0,3.12.26,5.7,5.7,0,0,0,1.56-1.54l1,1a7.4,7.4,0,0,1-1.94,2,3.69,3.69,0,0,1-5.56-.89c-1.24-1.76-1.35-4.18.69-5.62s3.94-.25,4.93,1.15a4,4,0,0,1,.43.71Zm2-3.1a1.66,1.66,0,0,0-2.41-.62,1.92,1.92,0,0,0-.38,2.6Z"/><path d="M301.8,120.81c-.52-.74-1-1.34-1.4-1.86l1.41-1,.76.9,0,0a2.79,2.79,0,0,1,1.24-2.53c1.11-.79,2.77-.88,4.2,1.13l2.67,3.77-1.61,1.14-2.54-3.59c-.65-.92-1.48-1.37-2.35-.75a1.66,1.66,0,0,0-.59,1.83,2,2,0,0,0,.3.57l2.65,3.74L305,125.27Z"/><path d="M317,116.47a5.78,5.78,0,0,1-1.58,1.61,3.75,3.75,0,0,1-5.57-.92,4,4,0,0,1,1.13-5.9,4.93,4.93,0,0,1,1.77-.8l.57,1.4a3.54,3.54,0,0,0-1.39.61,2.53,2.53,0,0,0,2.91,4.12,3.8,3.8,0,0,0,1.09-1.15Z"/><path d="M317.37,112.38a2.13,2.13,0,0,0,3.13.26,6,6,0,0,0,1.56-1.54l1,.94a7.42,7.42,0,0,1-1.94,2,3.7,3.7,0,0,1-5.56-.89c-1.24-1.77-1.35-4.18.69-5.63s3.94-.24,4.93,1.16a4,4,0,0,1,.43.71Zm2-3.11a1.68,1.68,0,0,0-2.42-.62,1.94,1.94,0,0,0-.37,2.61Z"/><path d="M384.83,111.28l-6.28,8.77-1.6-1.14,6.28-8.78Z"/><path d="M383.59,116.92c.52-.73.94-1.35,1.29-1.92l1.41,1-.6,1,0,0a2.8,2.8,0,0,1,2.8.35c1.1.79,1.74,2.32.3,4.33l-2.69,3.76-1.6-1.14,2.56-3.58c.65-.92.81-1.85-.06-2.47a1.66,1.66,0,0,0-1.93,0,2,2,0,0,0-.43.48L382,122.53l-1.61-1.16Z"/><path d="M388.82,125.17a4.37,4.37,0,0,0,1.3,1.62c.7.5,1.22.44,1.52,0s.2-.84-.38-1.67c-.93-1.32-1-2.37-.43-3.1.81-1.12,2.36-1.33,3.83-.28a4.46,4.46,0,0,1,1.4,1.58l-1.12.91a3.49,3.49,0,0,0-1.08-1.32c-.57-.41-1.08-.36-1.36,0s-.13.81.48,1.67c.84,1.24,1,2.21.3,3.15-.82,1.15-2.31,1.34-4,.14a5,5,0,0,1-1.61-1.82Z"/><path d="M393.27,130.58l4.54-6.34,1.61,1.16-4.54,6.34Zm7.51-6.89a1.05,1.05,0,0,1-1.53.21,1.06,1.06,0,1,1,1.53-.21Z"/><path d="M406.93,130.77c-.33.41-.73.91-1.36,1.78l-2.57,3.6a4.52,4.52,0,0,1-3,2.2,4.45,4.45,0,0,1-3-1,5.47,5.47,0,0,1-1.85-2.09l1.22-1a4.57,4.57,0,0,0,1.5,1.8,2.07,2.07,0,0,0,3.19-.6l.39-.55,0,0a2.62,2.62,0,0,1-2.52-.39c-1.58-1.12-1.76-3.23-.48-5,1.49-2.08,3.75-2.38,5.27-1.29a2.45,2.45,0,0,1,1.13,2.3l0,0,.67-.8Zm-3.47,1.35a1.72,1.72,0,0,0,.25-.46,1.63,1.63,0,0,0-.56-2c-.9-.64-2.12-.34-3,1-.78,1.08-.85,2.34.15,3.06a1.68,1.68,0,0,0,2,0,3,3,0,0,0,.47-.53Z"/><path d="M410.67,129.06l1.61,1.15-2.7,3.78h0a2.75,2.75,0,0,1,1.31-.16,2.62,2.62,0,0,1,1.3.5c1.08.77,1.7,2.3.25,4.33l-2.67,3.74-1.6-1.15,2.54-3.55c.66-.93.82-1.86-.07-2.49a1.6,1.6,0,0,0-1.88,0,1.7,1.7,0,0,0-.41.43l-2.71,3.79-1.61-1.15Z"/><path d="M419.1,136.74l-1.29,1.81,1.52,1.09-.86,1.2L417,139.75l-2,2.8c-.55.77-.63,1.32,0,1.76a2.85,2.85,0,0,0,.68.36l-.85,1.25a4.33,4.33,0,0,1-1.27-.68,2.25,2.25,0,0,1-1-1.5,3.14,3.14,0,0,1,.77-2.13l2.14-3-.91-.65.85-1.2.91.65,1-1.43Z"/><path d="M418.4,256.16l10.3,3.2-.58,1.88-10.3-3.2Z"/><path d="M424.15,255.56c-.86-.26-1.58-.47-2.24-.62l.51-1.65,1.15.25v0a2.81,2.81,0,0,1-.55-2.76c.41-1.3,1.67-2.39,4-1.66l4.42,1.38-.59,1.88-4.2-1.31c-1.07-.33-2-.19-2.32.84a1.66,1.66,0,0,0,.64,1.81,2,2,0,0,0,.59.26l4.37,1.36-.59,1.9Z"/><path d="M426.86,246.82c-.85-.26-1.58-.47-2.23-.62l.51-1.66,1.14.26,0-.05a2.79,2.79,0,0,1-.55-2.76c.4-1.3,1.66-2.39,4-1.66l4.41,1.38-.58,1.88-4.2-1.31c-1.07-.33-2-.19-2.33.84a1.65,1.65,0,0,0,.65,1.81,1.88,1.88,0,0,0,.59.26l4.37,1.36-.59,1.9Z"/><path d="M433.21,231.45A3.86,3.86,0,0,1,436,236.5a3.76,3.76,0,0,1-5,2.54,3.85,3.85,0,0,1-2.75-5.08A3.75,3.75,0,0,1,433.21,231.45Zm-1.66,5.64c1.43.44,2.74.08,3.09-1.07s-.49-2.15-2-2.61c-1.16-.36-2.65-.26-3,1S430.31,236.7,431.55,237.09Z"/><path d="M430.37,227.71l4.15,0c.72,0,1.37,0,2,.08l0-.05c-.57-.33-1.1-.67-1.71-1.08l-3.41-2.35.62-2,6.56,5.16-.58,1.85-8.3.45Z"/><path d="M441.13,219.35l-.87-.13v0a2.89,2.89,0,0,1,.31,2.51,2.31,2.31,0,0,1-2.94,1.65c-1.88-.58-2.31-2.54-1.44-5.29l-.13,0c-.48-.15-1.36-.2-1.77,1.11a4.28,4.28,0,0,0-.07,2.18h-1.33a5.62,5.62,0,0,1,.17-2.9c.74-2.38,2.47-2.6,4.09-2.1l2.69.84a12.89,12.89,0,0,0,1.82.45Zm-3.72-.88c-.44,1.32-.54,2.68.59,3a1,1,0,0,0,1.4-.74,1.59,1.59,0,0,0-.57-1.78,1.17,1.17,0,0,0-.39-.19Z"/><path d="M433.31,210.74l2.12.66.56-1.78,1.41.43-.56,1.79,3.29,1c.9.28,1.45.18,1.67-.53a3.16,3.16,0,0,0,.14-.77l1.44.42a4.2,4.2,0,0,1-.23,1.42,2.35,2.35,0,0,1-1.12,1.43,3.1,3.1,0,0,1-2.26-.07l-3.5-1.09-.33,1.08-1.41-.44.33-1.07-1.68-.52Z"/><path d="M441.07,208.28a2.12,2.12,0,0,0,2.63-1.7,5.84,5.84,0,0,0,.31-2.17l1.38.13a7.18,7.18,0,0,1-.35,2.74,3.68,3.68,0,0,1-5,2.67c-2.06-.64-3.61-2.5-2.87-4.88s3-2.59,4.62-2.08a4.41,4.41,0,0,1,.77.3Zm-.3-3.68a1.67,1.67,0,0,0-2.3,1,1.92,1.92,0,0,0,1.28,2.29Z"/><path d="M311.61,298.25l-.93,3.06h-2l3.46-10.79h2.51l3.51,10.79H316l-1-3.06Zm3.09-1.48-.85-2.66c-.21-.66-.39-1.39-.55-2h0c-.16.63-.32,1.38-.51,2l-.83,2.66Z"/><path d="M325.06,301.07a5.71,5.71,0,0,1-2.21.4,3.74,3.74,0,0,1-4-4,4,4,0,0,1,4.33-4.16,4.91,4.91,0,0,1,1.91.37l-.35,1.47a3.57,3.57,0,0,0-1.49-.3,2.52,2.52,0,0,0,0,5,3.82,3.82,0,0,0,1.55-.3Z"/><path d="M332.1,301.07a5.71,5.71,0,0,1-2.21.4,3.74,3.74,0,0,1-4-4,4,4,0,0,1,4.33-4.16,4.91,4.91,0,0,1,1.91.37l-.35,1.47a3.57,3.57,0,0,0-1.49-.3,2.52,2.52,0,0,0,0,5,3.82,3.82,0,0,0,1.55-.3Z"/><path d="M334.81,298a2.11,2.11,0,0,0,2.4,2,6,6,0,0,0,2.16-.35l.28,1.36a7.37,7.37,0,0,1-2.72.48,3.68,3.68,0,0,1-4-3.94c0-2.16,1.31-4.19,3.81-4.19s3.36,2.08,3.36,3.79a4.15,4.15,0,0,1-.07.84Zm3.42-1.38a1.68,1.68,0,0,0-1.62-1.91,1.92,1.92,0,0,0-1.8,1.91Z"/><path d="M341.67,290h2v11.36h-2Z"/><path d="M347.17,298a2.12,2.12,0,0,0,2.4,2,6,6,0,0,0,2.17-.35L352,301a7.37,7.37,0,0,1-2.72.48,3.69,3.69,0,0,1-4-3.94c0-2.16,1.32-4.19,3.81-4.19s3.37,2.08,3.37,3.79a5.05,5.05,0,0,1-.07.84Zm3.43-1.38a1.69,1.69,0,0,0-1.62-1.91,1.94,1.94,0,0,0-1.81,1.91Z"/><path d="M354,296c0-1.06,0-1.81-.07-2.51h1.72l.06,1.48h.06a2.33,2.33,0,0,1,2.13-1.66,2.26,2.26,0,0,1,.47.05v1.86a2.3,2.3,0,0,0-.58-.07,1.74,1.74,0,0,0-1.76,1.49,3.6,3.6,0,0,0-.06.61v4h-2Z"/><path d="M364,301.31l-.12-.86h-.05a2.9,2.9,0,0,1-2.31,1,2.32,2.32,0,0,1-2.45-2.32c0-2,1.75-3,4.63-2.95v-.13c0-.51-.21-1.36-1.58-1.36a4.1,4.1,0,0,0-2.1.58L359.6,294a5.66,5.66,0,0,1,2.82-.69c2.5,0,3.22,1.58,3.22,3.28v2.82a12.53,12.53,0,0,0,.11,1.87Zm-.25-3.81c-1.39,0-2.72.27-2.72,1.46a1,1,0,0,0,1.12,1.12,1.58,1.58,0,0,0,1.53-1.07,1.44,1.44,0,0,0,.07-.44Z"/><path d="M369.88,291.29v2.23h1.87V295h-1.87v3.44c0,.94.25,1.44,1,1.44a3.27,3.27,0,0,0,.76-.09l0,1.5a4.41,4.41,0,0,1-1.43.19,2.25,2.25,0,0,1-1.69-.64,3.09,3.09,0,0,1-.61-2.18V295h-1.12v-1.47H368v-1.76Z"/><path d="M374.53,298a2.12,2.12,0,0,0,2.4,2,5.91,5.91,0,0,0,2.16-.35l.29,1.36a7.37,7.37,0,0,1-2.72.48,3.69,3.69,0,0,1-4-3.94c0-2.16,1.32-4.19,3.81-4.19s3.37,2.08,3.37,3.79a5.05,5.05,0,0,1-.07.84Zm3.43-1.38a1.69,1.69,0,0,0-1.62-1.91,1.93,1.93,0,0,0-1.81,1.91Z"/><path d="M250.59,214.48H247.4l-.59-2,11.33.17.73,2.4-9.3,6.5-.62-2,2.64-1.83Zm2.33,2.53,2.29-1.59c.57-.39,1.22-.77,1.77-1.11v0c-.64,0-1.41.1-2.07.1l-2.79,0Z"/><path d="M251.66,222.29a4.3,4.3,0,0,0,.05,2.07c.25.83.7,1.09,1.19.95s.67-.54.71-1.56c.07-1.61.68-2.46,1.55-2.71,1.32-.4,2.68.37,3.2,2.1a4.46,4.46,0,0,1,.16,2.11l-1.44,0a3.59,3.59,0,0,0-.05-1.71c-.21-.67-.64-.94-1.1-.8s-.6.56-.65,1.62c-.08,1.49-.58,2.33-1.67,2.68-1.35.41-2.65-.35-3.25-2.32a5,5,0,0,1-.17-2.43Z"/><path d="M253.6,228.67a4.47,4.47,0,0,0,.05,2.08c.25.82.7,1.09,1.19.94s.67-.54.72-1.56c.06-1.61.67-2.46,1.55-2.71,1.31-.4,2.67.37,3.2,2.1a4.58,4.58,0,0,1,.15,2.11l-1.44,0a3.59,3.59,0,0,0,0-1.71c-.21-.67-.64-.94-1.1-.8s-.6.57-.65,1.62c-.08,1.5-.57,2.33-1.67,2.68-1.35.41-2.65-.34-3.25-2.32a5,5,0,0,1-.17-2.43Z"/><path d="M258.11,241.67c-.89.27-1.61.52-2.22.74l-.5-1.66,1.11-.43v0a2.82,2.82,0,0,1-2-2c-.42-1.36,0-2.85,2.45-3.59l4.38-1.33.57,1.88-4.05,1.24c-1.24.38-1.92,1-1.62,2a1.66,1.66,0,0,0,1.45,1.13,1.72,1.72,0,0,0,.62-.07l4.5-1.37.57,1.89Z"/><path d="M261.55,242.84c1-.3,1.72-.54,2.38-.79l.5,1.64-1.4.49v.06a2.35,2.35,0,0,1,2.22,1.56,1.94,1.94,0,0,1,.08.45l-1.77.54a2.88,2.88,0,0,0-.11-.56,1.74,1.74,0,0,0-1.93-1.26,3.74,3.74,0,0,0-.6.12l-3.86,1.17-.58-1.88Z"/><path d="M261.71,250.05a2.12,2.12,0,0,0-1.23,2.88,5.83,5.83,0,0,0,1,2l-1.22.67a7.48,7.48,0,0,1-1.25-2.46,3.69,3.69,0,0,1,2.6-5c2.07-.63,4.39,0,5.12,2.42s-1,3.82-2.65,4.32a4.45,4.45,0,0,1-.82.18Zm2.32,2.88a1.68,1.68,0,0,0,1.35-2.1,1.92,1.92,0,0,0-2.35-1.18Z"/><path d="M491.21,61.07l-.84,2.54H489.3L492,55.53h1.26l2.76,8.08h-1.12l-.86-2.54Zm2.65-.82-.79-2.32c-.18-.53-.3-1-.42-1.48h0c-.12.48-.25,1-.41,1.46l-.79,2.34Z"/><path d="M497.18,59.38c0-.6,0-1.09-.05-1.57h.94l.06,1h0a2.13,2.13,0,0,1,1.92-1.1c.8,0,2.05.48,2.05,2.47v3.47h-1.06V60.26c0-.93-.34-1.71-1.34-1.71a1.5,1.5,0,0,0-1.41,1.08,1.44,1.44,0,0,0-.08.49v3.49h-1.05Z"/><path d="M507.05,63.61l-.08-.73h0a2.16,2.16,0,0,1-1.77.86,1.66,1.66,0,0,1-1.78-1.66c0-1.41,1.25-2.18,3.49-2.16V59.8a1.2,1.2,0,0,0-1.32-1.35,2.93,2.93,0,0,0-1.51.43l-.24-.69a3.64,3.64,0,0,1,1.91-.52c1.78,0,2.21,1.21,2.21,2.38v2.17a8.47,8.47,0,0,0,.09,1.39Zm-.15-3c-1.15,0-2.46.18-2.46,1.3a.93.93,0,0,0,1,1,1.45,1.45,0,0,0,1.41-1,1.36,1.36,0,0,0,.06-.33Z"/><path d="M509.62,55.1h1.06v8.51h-1.06Z"/><path d="M512.84,57.81l1.27,3.43c.13.38.28.84.37,1.18h0c.1-.34.22-.79.37-1.21l1.15-3.4h1.11l-1.58,4.13c-.75,2-1.27,3-2,3.64a3,3,0,0,1-1.29.68l-.27-.89a2.8,2.8,0,0,0,.93-.51,3.32,3.32,0,0,0,.88-1.18.76.76,0,0,0,.09-.25,1,1,0,0,0-.08-.28l-2.14-5.34Z"/><path d="M519.38,56.14v1.67h1.51v.8h-1.51v3.13c0,.72.2,1.13.79,1.13a2.08,2.08,0,0,0,.61-.08l.05.8a2.69,2.69,0,0,1-.94.14,1.5,1.5,0,0,1-1.14-.44,2.17,2.17,0,0,1-.4-1.51V58.61h-.9v-.8h.9v-1.4Z"/><path d="M523.25,56.17a.62.62,0,0,1-.67.65.63.63,0,0,1-.63-.65.64.64,0,0,1,.66-.66A.62.62,0,0,1,523.25,56.17Zm-1.17,7.44v-5.8h1v5.8Z"/><path d="M529,63.39a3.81,3.81,0,0,1-1.67.34,2.76,2.76,0,0,1-2.89-3,2.94,2.94,0,0,1,3.12-3.08,3.44,3.44,0,0,1,1.46.3l-.24.81a2.48,2.48,0,0,0-1.22-.28,2.19,2.19,0,0,0,0,4.37,3,3,0,0,0,1.3-.29Z"/><path d="M530.12,62.53a2.79,2.79,0,0,0,1.39.42c.77,0,1.13-.38,1.13-.86s-.3-.78-1.08-1.07c-1-.37-1.54-1-1.54-1.64a1.8,1.8,0,0,1,2-1.71,2.9,2.9,0,0,1,1.42.36l-.26.77a2.32,2.32,0,0,0-1.19-.33c-.62,0-1,.36-1,.79s.35.69,1.1,1c1,.38,1.53.89,1.53,1.75,0,1-.79,1.74-2.17,1.74a3.27,3.27,0,0,1-1.63-.4Z"/><path d="M537.46,60v.78h-3V60Z"/><path d="M543.93,55.1v7c0,.52,0,1.1.05,1.5h-1l0-1h0a2.15,2.15,0,0,1-2,1.14c-1.41,0-2.48-1.18-2.48-3,0-1.93,1.18-3.12,2.6-3.12a1.93,1.93,0,0,1,1.75.89h0V55.1Zm-1.06,5.07a1.77,1.77,0,0,0,0-.45,1.54,1.54,0,0,0-1.52-1.22c-1.09,0-1.74,1-1.74,2.24s.58,2.15,1.72,2.15a1.58,1.58,0,0,0,1.54-1.26,1.64,1.64,0,0,0,0-.45Z"/><path d="M545.68,59.62c0-.69,0-1.27,0-1.81h.92l0,1.13h0a1.76,1.76,0,0,1,1.61-1.27,1.36,1.36,0,0,1,.3,0v1a1.94,1.94,0,0,0-.36,0A1.47,1.47,0,0,0,546.78,60a2.57,2.57,0,0,0,0,.5v3.09h-1.05Z"/><path d="M550.83,56.17a.62.62,0,0,1-.67.65.63.63,0,0,1-.64-.65.65.65,0,0,1,.66-.66A.63.63,0,0,1,550.83,56.17Zm-1.18,7.44v-5.8h1.06v5.8Z"/><path d="M552.87,57.81,554,61.07c.19.53.35,1,.47,1.49h0c.14-.48.3-1,.5-1.49l1.12-3.26h1.11L555,63.61h-1l-2.21-5.8Z"/><path d="M558.7,60.9a1.86,1.86,0,0,0,2,2,3.8,3.8,0,0,0,1.61-.3l.18.76a4.67,4.67,0,0,1-1.93.36,2.69,2.69,0,0,1-2.85-2.93c0-1.75,1-3.13,2.72-3.13a2.47,2.47,0,0,1,2.4,2.74,4.35,4.35,0,0,1,0,.49Zm3.1-.76a1.5,1.5,0,0,0-1.47-1.71,1.76,1.76,0,0,0-1.62,1.71Z"/><path d="M564.13,59.38c0-.6,0-1.09,0-1.57H565l.06,1h0a2.13,2.13,0,0,1,1.92-1.1c.8,0,2.05.48,2.05,2.47v3.47H568V60.26c0-.93-.35-1.71-1.34-1.71a1.5,1.5,0,0,0-1.42,1.08,1.75,1.75,0,0,0-.07.49v3.49h-1Z"/><path d="M573.22,62.34a3.68,3.68,0,0,0,1.87.53c1.07,0,1.69-.57,1.69-1.38s-.43-1.19-1.52-1.61c-1.32-.47-2.13-1.15-2.13-2.29a2.33,2.33,0,0,1,2.61-2.2,3.72,3.72,0,0,1,1.79.4l-.29.85a3.25,3.25,0,0,0-1.54-.38c-1.1,0-1.52.66-1.52,1.21,0,.75.49,1.13,1.61,1.56,1.37.53,2.06,1.19,2.06,2.37s-.92,2.33-2.83,2.33a4.13,4.13,0,0,1-2.06-.52Z"/><path d="M584.1,62c0,.6,0,1.12,0,1.58h-.93l-.06-1h0a2.18,2.18,0,0,1-1.92,1.08c-.91,0-2-.5-2-2.54V57.81h1.06V61c0,1.1.33,1.85,1.29,1.85a1.53,1.53,0,0,0,1.39-1,1.57,1.57,0,0,0,.1-.54V57.81h1.05Z"/><path d="M585.86,59.7c0-.74,0-1.34-.05-1.89h1l0,1h0a2.28,2.28,0,0,1,2.06-1.13c1.41,0,2.46,1.19,2.46,2.95,0,2.09-1.27,3.12-2.64,3.12a2,2,0,0,1-1.78-.91h0V66h-1Zm1,1.55a2.82,2.82,0,0,0,.05.43,1.63,1.63,0,0,0,1.58,1.23c1.12,0,1.77-.91,1.77-2.24,0-1.16-.62-2.16-1.73-2.16a1.7,1.7,0,0,0-1.6,1.31,2,2,0,0,0-.07.43Z"/><path d="M592.69,59.7c0-.74,0-1.34-.05-1.89h1l0,1h0a2.27,2.27,0,0,1,2.06-1.13c1.4,0,2.46,1.19,2.46,2.95,0,2.09-1.27,3.12-2.64,3.12a2,2,0,0,1-1.79-.91h0V66h-1Zm1,1.55a2,2,0,0,0,0,.43,1.63,1.63,0,0,0,1.58,1.23c1.12,0,1.76-.91,1.76-2.24,0-1.16-.61-2.16-1.72-2.16a1.7,1.7,0,0,0-1.6,1.31,2,2,0,0,0-.07.43Z"/><path d="M599.51,55.1h1.06v8.51h-1.06Z"/><path d="M602.73,57.81,604,61.24c.13.38.28.84.37,1.18h0c.1-.34.22-.79.37-1.21l1.15-3.4H607l-1.58,4.13c-.75,2-1.27,3-2,3.64a2.9,2.9,0,0,1-1.29.68l-.27-.89a2.8,2.8,0,0,0,.93-.51,3.32,3.32,0,0,0,.88-1.18.76.76,0,0,0,.09-.25,1.36,1.36,0,0,0-.07-.28l-2.15-5.34Z"/><path d="M616.23,63.35a5.29,5.29,0,0,1-2.14.38,3.77,3.77,0,0,1-4-4.09,4,4,0,0,1,4.22-4.25,4.4,4.4,0,0,1,1.92.36l-.25.86a3.69,3.69,0,0,0-1.63-.34,3,3,0,0,0-3.16,3.33,2.94,2.94,0,0,0,3.11,3.25,4.25,4.25,0,0,0,1.7-.33Z"/><path d="M617.5,55.1h1.06v3.62h0a2,2,0,0,1,.76-.75,2.16,2.16,0,0,1,1.08-.3c.78,0,2,.48,2,2.49v3.45h-1.05V60.28c0-.94-.35-1.73-1.35-1.73a1.51,1.51,0,0,0-1.41,1.05,1.31,1.31,0,0,0-.07.51v3.5H617.5Z"/><path d="M627.38,63.61l-.09-.73h0a2.19,2.19,0,0,1-1.78.86,1.65,1.65,0,0,1-1.77-1.66c0-1.41,1.24-2.18,3.49-2.16V59.8a1.21,1.21,0,0,0-1.32-1.35,2.9,2.9,0,0,0-1.51.43l-.24-.69a3.6,3.6,0,0,1,1.9-.52c1.78,0,2.21,1.21,2.21,2.38v2.17a7.44,7.44,0,0,0,.1,1.39Zm-.16-3c-1.15,0-2.46.18-2.46,1.3a.94.94,0,0,0,1,1,1.45,1.45,0,0,0,1.4-1,1,1,0,0,0,.06-.33Z"/><path d="M631.12,56.17a.62.62,0,0,1-.67.65.63.63,0,0,1-.64-.65.65.65,0,0,1,.66-.66A.63.63,0,0,1,631.12,56.17ZM630,63.61v-5.8h1v5.8Z"/><path d="M632.75,59.38c0-.6,0-1.09,0-1.57h.93l.06,1h0a2.11,2.11,0,0,1,1.91-1.1c.81,0,2.06.48,2.06,2.47v3.47h-1.06V60.26c0-.93-.35-1.71-1.34-1.71a1.5,1.5,0,0,0-1.42,1.08,1.45,1.45,0,0,0-.07.49v3.49h-1.06Z"/><path d="M491.21,77.07l-.84,2.54H489.3L492,71.53h1.26l2.76,8.08h-1.12l-.86-2.54Zm2.65-.82-.79-2.32c-.18-.53-.3-1-.42-1.48h0c-.12.48-.25,1-.41,1.46l-.79,2.34Z"/><path d="M502.08,71.1v7c0,.52,0,1.1.05,1.5h-.95l0-1h0a2.14,2.14,0,0,1-2,1.14c-1.4,0-2.48-1.18-2.48-2.95,0-1.93,1.19-3.12,2.6-3.12a1.93,1.93,0,0,1,1.75.89h0V71.1ZM501,76.17a1.77,1.77,0,0,0,0-.45,1.55,1.55,0,0,0-1.52-1.22c-1.09,0-1.74,1-1.74,2.24s.57,2.15,1.71,2.15A1.59,1.59,0,0,0,501,77.63a1.64,1.64,0,0,0,0-.45Z"/><path d="M507.46,71.53v8.08h-1V71.53Z"/><path d="M509.37,75.38c0-.6,0-1.09-.05-1.57h.94l.06,1h0a2.13,2.13,0,0,1,1.92-1.1c.81,0,2,.48,2,2.47v3.47h-1V76.26c0-.93-.35-1.71-1.35-1.71a1.5,1.5,0,0,0-1.41,1.08,1.45,1.45,0,0,0-.07.49v3.49h-1.06Z"/><path d="M515.89,78.53a2.79,2.79,0,0,0,1.39.42c.77,0,1.12-.38,1.12-.86s-.29-.78-1.07-1.07c-1.05-.37-1.54-1-1.54-1.64a1.79,1.79,0,0,1,2-1.71,2.91,2.91,0,0,1,1.43.36l-.26.77a2.32,2.32,0,0,0-1.19-.33c-.62,0-1,.36-1,.79s.35.69,1.1,1c1,.38,1.52.89,1.52,1.75,0,1-.79,1.74-2.17,1.74a3.33,3.33,0,0,1-1.63-.4Z"/><path d="M522,72.17a.66.66,0,0,1-1.31,0,.65.65,0,0,1,.66-.66A.63.63,0,0,1,522,72.17Zm-1.18,7.44v-5.8h1.06v5.8Z"/><path d="M528.59,73.81c0,.41-.05.88-.05,1.59v3.37a3.35,3.35,0,0,1-.82,2.65,3.08,3.08,0,0,1-2.11.7,3.79,3.79,0,0,1-1.94-.48l.27-.81a3.25,3.25,0,0,0,1.7.46c1.08,0,1.87-.56,1.87-2v-.65h0a2.09,2.09,0,0,1-1.85,1,2.6,2.6,0,0,1-2.47-2.83,2.79,2.79,0,0,1,2.62-3.09,2,2,0,0,1,1.81,1h0l0-.87ZM527.5,76.1a1.44,1.44,0,0,0-.06-.48A1.51,1.51,0,0,0,526,74.5c-1,0-1.73.85-1.73,2.2,0,1.14.57,2.08,1.71,2.08a1.55,1.55,0,0,0,1.47-1.08,1.81,1.81,0,0,0,.08-.56Z"/><path d="M530.3,71.1h1.05v3.62h0a2,2,0,0,1,.75-.75,2.22,2.22,0,0,1,1.08-.3c.78,0,2,.48,2,2.49v3.45h-1.06V76.28c0-.94-.34-1.73-1.34-1.73a1.51,1.51,0,0,0-1.41,1,1.3,1.3,0,0,0-.08.51v3.5H530.3Z"/><path d="M538.18,72.14v1.67h1.51v.8h-1.51v3.13c0,.72.21,1.13.79,1.13a2.22,2.22,0,0,0,.62-.08l0,.8a2.63,2.63,0,0,1-.93.14,1.49,1.49,0,0,1-1.14-.44,2.17,2.17,0,0,1-.41-1.51V74.61h-.9v-.8h.9v-1.4Z"/><path d="M540.74,78.53a2.79,2.79,0,0,0,1.39.42c.77,0,1.13-.38,1.13-.86s-.3-.78-1.08-1.07c-1-.37-1.54-1-1.54-1.64a1.8,1.8,0,0,1,2-1.71,2.9,2.9,0,0,1,1.42.36l-.26.77a2.32,2.32,0,0,0-1.19-.33c-.62,0-1,.36-1,.79s.35.69,1.1,1c1,.38,1.53.89,1.53,1.75,0,1-.79,1.74-2.17,1.74a3.34,3.34,0,0,1-1.64-.4Z"/><path d="M495.56,95.35a5.29,5.29,0,0,1-2.14.38,3.77,3.77,0,0,1-4-4.09,4,4,0,0,1,4.22-4.25,4.4,4.4,0,0,1,1.92.36l-.25.86a3.69,3.69,0,0,0-1.63-.34,3,3,0,0,0-3.16,3.33,2.94,2.94,0,0,0,3.11,3.25,4.25,4.25,0,0,0,1.7-.33Z"/><path d="M500,95.61l-.08-.73h0a2.17,2.17,0,0,1-1.77.86,1.66,1.66,0,0,1-1.78-1.66c0-1.41,1.25-2.18,3.49-2.16V91.8a1.2,1.2,0,0,0-1.32-1.35,2.93,2.93,0,0,0-1.51.43l-.24-.69a3.64,3.64,0,0,1,1.91-.52c1.77,0,2.2,1.21,2.2,2.38v2.17a8.4,8.4,0,0,0,.1,1.39Zm-.15-3c-1.16,0-2.46.18-2.46,1.3a.93.93,0,0,0,1,1,1.45,1.45,0,0,0,1.41-1,1.36,1.36,0,0,0,.06-.33Z"/><path d="M502.53,91.38c0-.6,0-1.09,0-1.57h.93l0,.93h0a2,2,0,0,1,1.82-1.07A1.72,1.72,0,0,1,507,90.84h0a2.35,2.35,0,0,1,.65-.76,2,2,0,0,1,1.28-.41c.77,0,1.91.51,1.91,2.52v3.42h-1V92.32c0-1.11-.41-1.78-1.26-1.78a1.36,1.36,0,0,0-1.25,1,1.62,1.62,0,0,0-.08.52v3.59h-1V92.13c0-.92-.41-1.59-1.22-1.59a1.42,1.42,0,0,0-1.3,1,1.5,1.5,0,0,0-.09.52v3.5h-1Z"/><path d="M512.54,91.7c0-.74,0-1.34,0-1.89h1l0,1h0a2.28,2.28,0,0,1,2.06-1.13c1.41,0,2.46,1.19,2.46,3,0,2.09-1.27,3.12-2.64,3.12a2,2,0,0,1-1.78-.91h0V98h-1Zm1,1.55a2.82,2.82,0,0,0,0,.43,1.63,1.63,0,0,0,1.58,1.23c1.12,0,1.77-.91,1.77-2.24,0-1.16-.62-2.16-1.73-2.16a1.7,1.7,0,0,0-1.6,1.31,2,2,0,0,0-.07.43Z"/><path d="M522.58,95.61l-.08-.73h0a2.17,2.17,0,0,1-1.77.86,1.66,1.66,0,0,1-1.78-1.66c0-1.41,1.25-2.18,3.49-2.16V91.8a1.2,1.2,0,0,0-1.32-1.35,2.93,2.93,0,0,0-1.51.43l-.24-.69a3.64,3.64,0,0,1,1.91-.52c1.77,0,2.2,1.21,2.2,2.38v2.17a8.4,8.4,0,0,0,.1,1.39Zm-.15-3c-1.16,0-2.46.18-2.46,1.3a.93.93,0,0,0,1,1,1.43,1.43,0,0,0,1.4-1,1,1,0,0,0,.07-.33Z"/><path d="M526.33,88.17a.63.63,0,0,1-.68.65.63.63,0,0,1-.63-.65.64.64,0,0,1,.66-.66A.63.63,0,0,1,526.33,88.17Zm-1.18,7.44v-5.8h1.06v5.8Z"/><path d="M533,89.81c0,.41-.05.88-.05,1.59v3.37a3.31,3.31,0,0,1-.83,2.65,3.06,3.06,0,0,1-2.11.7,3.78,3.78,0,0,1-1.93-.48l.27-.81a3.25,3.25,0,0,0,1.7.46c1.08,0,1.87-.56,1.87-2v-.65h0a2.09,2.09,0,0,1-1.85,1,2.6,2.6,0,0,1-2.47-2.83,2.79,2.79,0,0,1,2.61-3.09,1.92,1.92,0,0,1,1.81,1h0l0-.87Zm-1.09,2.29a1.44,1.44,0,0,0-.06-.48,1.52,1.52,0,0,0-1.48-1.12c-1,0-1.72.85-1.72,2.2,0,1.14.57,2.08,1.71,2.08a1.53,1.53,0,0,0,1.46-1.08,1.82,1.82,0,0,0,.09-.56Z"/><path d="M534.59,91.38c0-.6,0-1.09,0-1.57h.93l.06,1h0a2.12,2.12,0,0,1,1.92-1.1c.8,0,2,.48,2,2.47v3.47h-1.06V92.26c0-.93-.35-1.71-1.34-1.71a1.5,1.5,0,0,0-1.42,1.08,1.45,1.45,0,0,0-.07.49v3.49h-1.06Z"/><path d="M548,91.82h-3.14v2.91h3.5v.88h-4.55V87.53h4.37v.87h-3.32V91H548Z"/><path d="M553.29,95.61v-5h-2.44v5h-1v-5H549v-.8h.82v-.2a2.74,2.74,0,0,1,.65-2,2,2,0,0,1,1.46-.53,1.81,1.81,0,0,1,.83.2l-.22.78a1.53,1.53,0,0,0-.62-.15c-.83,0-1.06.71-1.06,1.62v.26h2.44v-.28a2.75,2.75,0,0,1,.68-2,2,2,0,0,1,1.4-.54,2.43,2.43,0,0,1,.9.17l-.13.82a1.5,1.5,0,0,0-.68-.14c-.89,0-1.13.8-1.13,1.68v.32h1.41v.8h-1.4v5Z"/><path d="M557.13,92.9a1.85,1.85,0,0,0,2,2,3.8,3.8,0,0,0,1.61-.3l.18.76a4.67,4.67,0,0,1-1.93.36,2.7,2.7,0,0,1-2.86-2.93c0-1.75,1-3.13,2.73-3.13a2.46,2.46,0,0,1,2.39,2.74,4.88,4.88,0,0,1,0,.49Zm3.09-.76a1.49,1.49,0,0,0-1.46-1.71,1.75,1.75,0,0,0-1.62,1.71Z"/><path d="M566.69,95.39a3.76,3.76,0,0,1-1.66.34,2.76,2.76,0,0,1-2.9-3,3,3,0,0,1,3.12-3.08,3.45,3.45,0,0,1,1.47.3l-.24.81a2.53,2.53,0,0,0-1.23-.28,2.19,2.19,0,0,0,0,4.37,3,3,0,0,0,1.29-.29Z"/><path d="M569.36,88.14v1.67h1.51v.8h-1.51v3.13c0,.72.2,1.13.79,1.13a2.13,2.13,0,0,0,.61-.08l0,.8a2.73,2.73,0,0,1-.94.14,1.5,1.5,0,0,1-1.14-.44,2.17,2.17,0,0,1-.4-1.51V90.61h-.9v-.8h.9v-1.4Z"/><path d="M573.23,88.17a.62.62,0,0,1-.67.65.63.63,0,0,1-.63-.65.64.64,0,0,1,.66-.66A.62.62,0,0,1,573.23,88.17Zm-1.17,7.44v-5.8h1.05v5.8Z"/><path d="M575.27,89.81l1.14,3.26a13.28,13.28,0,0,1,.47,1.49h0c.13-.48.3-1,.49-1.49l1.13-3.26h1.1l-2.28,5.8h-1l-2.2-5.8Z"/><path d="M581.11,92.9a1.85,1.85,0,0,0,2,2,3.75,3.75,0,0,0,1.6-.3l.18.76a4.63,4.63,0,0,1-1.93.36,2.69,2.69,0,0,1-2.85-2.93c0-1.75,1-3.13,2.72-3.13a2.46,2.46,0,0,1,2.4,2.74,2.81,2.81,0,0,1,0,.49Zm3.09-.76a1.5,1.5,0,0,0-1.46-1.71,1.74,1.74,0,0,0-1.62,1.71Z"/><path d="M586.53,91.38c0-.6,0-1.09,0-1.57h.94l.06,1h0a2.13,2.13,0,0,1,1.92-1.1c.8,0,2.05.48,2.05,2.47v3.47h-1.05V92.26c0-.93-.35-1.71-1.35-1.71a1.5,1.5,0,0,0-1.41,1.08,1.45,1.45,0,0,0-.07.49v3.49h-1.06Z"/><path d="M593.78,92.9a1.85,1.85,0,0,0,2,2,3.83,3.83,0,0,0,1.61-.3l.18.76a4.72,4.72,0,0,1-1.94.36,2.69,2.69,0,0,1-2.85-2.93c0-1.75,1-3.13,2.72-3.13a2.46,2.46,0,0,1,2.4,2.74,4.88,4.88,0,0,1,0,.49Zm3.09-.76a1.5,1.5,0,0,0-1.46-1.71,1.74,1.74,0,0,0-1.62,1.71Z"/><path d="M599.06,94.53a2.79,2.79,0,0,0,1.39.42c.77,0,1.13-.38,1.13-.86s-.3-.78-1.08-1.07c-1-.37-1.54-1-1.54-1.64a1.79,1.79,0,0,1,2-1.71,2.91,2.91,0,0,1,1.43.36l-.26.77a2.32,2.32,0,0,0-1.19-.33c-.62,0-1,.36-1,.79s.35.69,1.1,1c1,.38,1.53.89,1.53,1.75,0,1-.8,1.74-2.18,1.74a3.33,3.33,0,0,1-1.63-.4Z"/><path d="M603.81,94.53a2.79,2.79,0,0,0,1.39.42c.77,0,1.13-.38,1.13-.86s-.3-.78-1.08-1.07c-1-.37-1.54-1-1.54-1.64a1.8,1.8,0,0,1,2-1.71,2.9,2.9,0,0,1,1.42.36l-.26.77a2.32,2.32,0,0,0-1.19-.33c-.62,0-1,.36-1,.79s.35.69,1.1,1c1,.38,1.53.89,1.53,1.75,0,1-.79,1.74-2.17,1.74a3.27,3.27,0,0,1-1.63-.4Z"/><path d="M479.8,63.13l3.51-3.51a.24.24,0,0,0,.07-.18.23.23,0,0,0-.07-.17l-3.51-3.51a.25.25,0,0,0-.18-.08.25.25,0,0,0-.17.08l-.38.37a.24.24,0,0,0-.07.18.23.23,0,0,0,.07.17l3,3-3,3a.23.23,0,0,0-.07.17.22.22,0,0,0,.07.17l.38.38a.25.25,0,0,0,.17.08A.25.25,0,0,0,479.8,63.13Z"/><path d="M479.8,79.29l3.51-3.52a.22.22,0,0,0,.07-.17.23.23,0,0,0-.07-.17l-3.51-3.52a.24.24,0,0,0-.18-.07.23.23,0,0,0-.17.07l-.38.38a.23.23,0,0,0-.07.17.24.24,0,0,0,.07.18l3,3-3,3a.22.22,0,0,0-.07.17.23.23,0,0,0,.07.17l.38.38a.23.23,0,0,0,.17.07A.24.24,0,0,0,479.8,79.29Z"/><path d="M479.8,95.29l3.51-3.52a.22.22,0,0,0,.07-.17.23.23,0,0,0-.07-.17l-3.51-3.52a.24.24,0,0,0-.18-.07.23.23,0,0,0-.17.07l-.38.38a.23.23,0,0,0-.07.17.24.24,0,0,0,.07.18l3,3-3,3a.22.22,0,0,0-.07.17.23.23,0,0,0,.07.17l.38.38a.23.23,0,0,0,.17.07A.24.24,0,0,0,479.8,95.29Z"/><path d="M489.91,223.62a11.33,11.33,0,0,1,2-.16,3.34,3.34,0,0,1,2.27.67,2.19,2.19,0,0,1,.7,1.69,2.36,2.36,0,0,1-.62,1.73,3.34,3.34,0,0,1-2.47.89,3.61,3.61,0,0,1-.84-.07v3.24h-1Zm1,3.9a3.54,3.54,0,0,0,.86.08c1.26,0,2-.61,2-1.73s-.75-1.58-1.91-1.58a5,5,0,0,0-1,.08Z"/><path d="M496.54,228.89a1.87,1.87,0,0,0,2,2,3.8,3.8,0,0,0,1.61-.3l.18.76a4.84,4.84,0,0,1-1.93.36,2.7,2.7,0,0,1-2.86-2.93c0-1.75,1-3.13,2.73-3.13a2.46,2.46,0,0,1,2.4,2.73,4,4,0,0,1,0,.49Zm3.1-.75a1.51,1.51,0,0,0-1.47-1.72,1.77,1.77,0,0,0-1.62,1.72Z"/><path d="M502,227.61c0-.68,0-1.27-.05-1.81h.92l0,1.14h.05a1.74,1.74,0,0,1,1.6-1.27,1.32,1.32,0,0,1,.3,0v1a1.71,1.71,0,0,0-.36,0,1.48,1.48,0,0,0-1.41,1.36,2.38,2.38,0,0,0-.05.49v3.1h-1Z"/><path d="M505.75,230.53a2.79,2.79,0,0,0,1.39.42c.77,0,1.13-.39,1.13-.87s-.3-.78-1.08-1.07c-1.05-.37-1.54-.94-1.54-1.64a1.79,1.79,0,0,1,2-1.7,2.91,2.91,0,0,1,1.43.36l-.26.77a2.22,2.22,0,0,0-1.19-.34c-.62,0-1,.36-1,.79s.35.7,1.1,1c1,.38,1.52.88,1.52,1.75s-.79,1.74-2.17,1.74a3.33,3.33,0,0,1-1.63-.4Z"/><path d="M515.9,228.66a2.84,2.84,0,0,1-2.89,3.08,2.76,2.76,0,0,1-2.79-3,2.83,2.83,0,0,1,2.88-3.08A2.75,2.75,0,0,1,515.9,228.66Zm-4.61.05c0,1.28.73,2.24,1.76,2.24s1.77-.95,1.77-2.26c0-1-.5-2.23-1.74-2.23S511.29,227.61,511.29,228.71Z"/><path d="M517.23,227.37c0-.6,0-1.09-.05-1.57h.94l.06,1h0a2.14,2.14,0,0,1,1.92-1.09c.8,0,2,.48,2,2.47v3.47h-1v-3.35c0-.94-.35-1.72-1.35-1.72a1.54,1.54,0,0,0-1.48,1.58v3.49h-1.06Z"/><path d="M527.11,231.61l-.09-.74h0a2.17,2.17,0,0,1-1.78.87,1.65,1.65,0,0,1-1.77-1.67c0-1.4,1.24-2.17,3.48-2.16v-.12a1.19,1.19,0,0,0-1.31-1.34,3,3,0,0,0-1.52.43l-.24-.7a3.63,3.63,0,0,1,1.91-.51c1.78,0,2.21,1.21,2.21,2.37v2.17a8.52,8.52,0,0,0,.09,1.4Zm-.16-3c-1.15,0-2.46.18-2.46,1.31a.94.94,0,0,0,1,1,1.45,1.45,0,0,0,1.4-1,1.35,1.35,0,0,0,.06-.34Z"/><path d="M529.67,223.09h1.06v8.52h-1.06Z"/><path d="M533.68,224.17a.62.62,0,0,1-.67.65.63.63,0,0,1-.64-.65.65.65,0,0,1,.66-.66A.63.63,0,0,1,533.68,224.17Zm-1.17,7.44V225.8h1v5.81Z"/><path d="M534.65,231l2.63-3.41c.25-.32.49-.59.76-.9v0H534.9v-.85h4.42v.66l-2.59,3.37c-.24.32-.48.61-.75.91v0h3.4v.84h-4.72Z"/><path d="M543.66,231.61l-.08-.74h0a2.14,2.14,0,0,1-1.77.87,1.66,1.66,0,0,1-1.78-1.67c0-1.4,1.25-2.17,3.5-2.16v-.12a1.2,1.2,0,0,0-1.32-1.34,3,3,0,0,0-1.52.43l-.24-.7a3.63,3.63,0,0,1,1.91-.51c1.78,0,2.21,1.21,2.21,2.37v2.17a8.52,8.52,0,0,0,.09,1.4Zm-.15-3c-1.15,0-2.46.18-2.46,1.31a.94.94,0,0,0,1,1,1.45,1.45,0,0,0,1.4-1,1,1,0,0,0,.06-.34Z"/><path d="M547.46,224.13v1.67H549v.8h-1.51v3.13c0,.72.2,1.13.79,1.13a2.15,2.15,0,0,0,.61-.07l0,.79a2.7,2.7,0,0,1-.94.15,1.47,1.47,0,0,1-1.14-.45,2.15,2.15,0,0,1-.4-1.51V226.6h-.9v-.8h.9v-1.39Z"/><path d="M551.33,224.17a.62.62,0,0,1-.67.65.63.63,0,0,1-.63-.65.64.64,0,0,1,.66-.66A.62.62,0,0,1,551.33,224.17Zm-1.17,7.44V225.8h1.05v5.81Z"/><path d="M558.22,228.66a2.84,2.84,0,0,1-2.89,3.08,2.76,2.76,0,0,1-2.78-3,2.83,2.83,0,0,1,2.87-3.08A2.75,2.75,0,0,1,558.22,228.66Zm-4.61.05c0,1.28.74,2.24,1.77,2.24s1.76-.95,1.76-2.26c0-1-.49-2.23-1.74-2.23S553.61,227.61,553.61,228.71Z"/><path d="M559.55,227.37c0-.6,0-1.09,0-1.57h.93l.06,1h0a2.12,2.12,0,0,1,1.91-1.09c.81,0,2,.48,2,2.47v3.47h-1v-3.35c0-.94-.35-1.72-1.34-1.72a1.54,1.54,0,0,0-1.49,1.58v3.49h-1.06Z"/><path d="M489.91,239.63a10.66,10.66,0,0,1,2-.17,3.34,3.34,0,0,1,2.34.66,2,2,0,0,1,.63,1.54,2.13,2.13,0,0,1-1.52,2.06v0a2,2,0,0,1,1.19,1.64,12.89,12.89,0,0,0,.62,2.22h-1.08a11,11,0,0,1-.54-1.94c-.24-1.11-.67-1.53-1.62-1.57h-1v3.51h-1Zm1,3.68H492c1.11,0,1.82-.61,1.82-1.53s-.75-1.5-1.86-1.51a4.3,4.3,0,0,0-1,.09Z"/><path d="M497,244.89a1.87,1.87,0,0,0,2,2,3.8,3.8,0,0,0,1.61-.3l.18.76a4.84,4.84,0,0,1-1.93.36A2.7,2.7,0,0,1,496,244.8c0-1.75,1-3.13,2.73-3.13a2.46,2.46,0,0,1,2.4,2.73,4,4,0,0,1,0,.49Zm3.1-.75a1.51,1.51,0,0,0-1.47-1.72,1.77,1.77,0,0,0-1.62,1.72Z"/><path d="M505.6,247.61l-.08-.74h0a2.15,2.15,0,0,1-1.77.87,1.66,1.66,0,0,1-1.78-1.67c0-1.4,1.25-2.17,3.49-2.16v-.12a1.19,1.19,0,0,0-1.32-1.34,2.93,2.93,0,0,0-1.51.43l-.24-.7a3.63,3.63,0,0,1,1.91-.51c1.77,0,2.2,1.21,2.2,2.37v2.17a8.44,8.44,0,0,0,.1,1.4Zm-.15-3c-1.16,0-2.46.18-2.46,1.31a.93.93,0,0,0,1,1,1.45,1.45,0,0,0,1.41-1,1.35,1.35,0,0,0,.06-.34Z"/><path d="M508.17,239.09h1.06v8.52h-1.06Z"/><path d="M513.45,244v.78h-3V244Z"/><path d="M516,240.13v1.67h1.51v.8H516v3.13c0,.72.2,1.13.79,1.13a2.15,2.15,0,0,0,.61-.07l0,.79a2.65,2.65,0,0,1-.94.15,1.47,1.47,0,0,1-1.14-.45,2.15,2.15,0,0,1-.4-1.51V242.6H514v-.8h.9v-1.39Z"/><path d="M519.83,240.17a.62.62,0,0,1-.67.65.63.63,0,0,1-.63-.65.64.64,0,0,1,.66-.66A.62.62,0,0,1,519.83,240.17Zm-1.17,7.44V241.8h1.05v5.81Z"/><path d="M521.47,243.37c0-.6,0-1.09-.05-1.57h.92l0,.94h0a2,2,0,0,1,1.82-1.07,1.71,1.71,0,0,1,1.64,1.16h0a2.39,2.39,0,0,1,.64-.75,2,2,0,0,1,1.29-.41c.76,0,1.9.5,1.9,2.52v3.42h-1v-3.29c0-1.12-.4-1.79-1.26-1.79a1.37,1.37,0,0,0-1.24,1,1.73,1.73,0,0,0-.09.53v3.59h-1v-3.48c0-.93-.41-1.6-1.21-1.6a1.45,1.45,0,0,0-1.31,1.06,1.4,1.4,0,0,0-.08.51v3.51h-1Z"/><path d="M532.06,244.89a1.87,1.87,0,0,0,2,2,3.76,3.76,0,0,0,1.61-.3l.18.76a4.84,4.84,0,0,1-1.93.36,2.69,2.69,0,0,1-2.85-2.93c0-1.75,1-3.13,2.72-3.13a2.46,2.46,0,0,1,2.4,2.73,4,4,0,0,1,0,.49Zm3.1-.75a1.51,1.51,0,0,0-1.47-1.72,1.77,1.77,0,0,0-1.62,1.72Z"/><path d="M541.37,245.06l-.84,2.55h-1.08l2.75-8.09h1.26l2.76,8.09H545.1l-.86-2.55Zm2.65-.81-.79-2.33c-.18-.53-.3-1-.42-1.47h0c-.12.47-.25,1-.41,1.46l-.79,2.34Z"/><path d="M552.24,239.09v7c0,.51,0,1.1,0,1.5h-.94l-.05-1h0a2.14,2.14,0,0,1-2,1.14c-1.4,0-2.48-1.19-2.48-3,0-1.93,1.19-3.12,2.6-3.12a2,2,0,0,1,1.76.89h0v-3.47Zm-1,5.07a1.65,1.65,0,0,0-.05-.44,1.54,1.54,0,0,0-1.52-1.22c-1.09,0-1.74.95-1.74,2.24s.57,2.15,1.71,2.15a1.59,1.59,0,0,0,1.55-1.26,1.71,1.71,0,0,0,.05-.46Z"/><path d="M556.58,239.62a11.33,11.33,0,0,1,2-.16,3.34,3.34,0,0,1,2.27.67,2.19,2.19,0,0,1,.71,1.69,2.37,2.37,0,0,1-.63,1.73,3.34,3.34,0,0,1-2.47.89,3.61,3.61,0,0,1-.84-.07v3.24h-1Zm1,3.9a3.58,3.58,0,0,0,.87.08c1.25,0,2-.61,2-1.73s-.75-1.58-1.9-1.58a5.05,5.05,0,0,0-1,.08Z"/><path d="M562.87,239.09h1v8.52h-1Z"/><path d="M568.91,247.61l-.08-.74h0a2.14,2.14,0,0,1-1.77.87,1.66,1.66,0,0,1-1.78-1.67c0-1.4,1.25-2.17,3.49-2.16v-.12a1.19,1.19,0,0,0-1.32-1.34,2.93,2.93,0,0,0-1.51.43l-.24-.7a3.63,3.63,0,0,1,1.91-.51c1.78,0,2.21,1.21,2.21,2.37v2.17a8.52,8.52,0,0,0,.09,1.4Zm-.15-3c-1.15,0-2.46.18-2.46,1.31a.93.93,0,0,0,1,1,1.45,1.45,0,0,0,1.41-1,1.35,1.35,0,0,0,.06-.34Z"/><path d="M571.48,243.37c0-.6,0-1.09,0-1.57h.93l.06,1h0a2.14,2.14,0,0,1,1.92-1.09c.81,0,2,.48,2,2.47v3.47h-1v-3.35c0-.94-.35-1.72-1.34-1.72a1.54,1.54,0,0,0-1.49,1.58v3.49h-1.06Z"/><path d="M578.14,243.37c0-.6,0-1.09,0-1.57H579l.06,1h0a2.14,2.14,0,0,1,1.92-1.09c.81,0,2.05.48,2.05,2.47v3.47H582v-3.35c0-.94-.35-1.72-1.34-1.72a1.54,1.54,0,0,0-1.49,1.58v3.49h-1.06Z"/><path d="M586,240.17a.62.62,0,0,1-.67.65.63.63,0,0,1-.64-.65.65.65,0,0,1,.66-.66A.63.63,0,0,1,586,240.17Zm-1.18,7.44V241.8h1.06v5.81Z"/><path d="M587.61,243.37c0-.6,0-1.09-.05-1.57h.94l.06,1h0a2.14,2.14,0,0,1,1.92-1.09c.81,0,2,.48,2,2.47v3.47h-1v-3.35c0-.94-.35-1.72-1.35-1.72a1.54,1.54,0,0,0-1.48,1.58v3.49h-1.06Z"/><path d="M599.27,241.8c0,.42,0,.89,0,1.6v3.37a3.36,3.36,0,0,1-.82,2.65,3.12,3.12,0,0,1-2.11.69,3.73,3.73,0,0,1-1.93-.48l.26-.8a3.25,3.25,0,0,0,1.7.45c1.08,0,1.87-.56,1.87-2v-.65h0a2.07,2.07,0,0,1-1.85,1,2.59,2.59,0,0,1-2.47-2.83,2.78,2.78,0,0,1,2.62-3.08,1.94,1.94,0,0,1,1.81,1h0l.05-.88Zm-1.09,2.29a1.44,1.44,0,0,0-.06-.48,1.52,1.52,0,0,0-1.47-1.11c-1,0-1.73.85-1.73,2.19,0,1.14.57,2.09,1.71,2.09a1.55,1.55,0,0,0,1.47-1.08,1.87,1.87,0,0,0,.08-.57Z"/><path d="M489.91,255.62a11.33,11.33,0,0,1,2-.16,3.34,3.34,0,0,1,2.27.67,2.19,2.19,0,0,1,.7,1.69,2.36,2.36,0,0,1-.62,1.73,3.34,3.34,0,0,1-2.47.89,3.61,3.61,0,0,1-.84-.07v3.24h-1Zm1,3.9a3.54,3.54,0,0,0,.86.08c1.26,0,2-.61,2-1.73s-.75-1.58-1.91-1.58a5,5,0,0,0-1,.08Z"/><path d="M496.06,259.61c0-.68,0-1.27,0-1.81h.92l0,1.14h0a1.75,1.75,0,0,1,1.61-1.27,1.39,1.39,0,0,1,.3,0v1a1.88,1.88,0,0,0-.36,0,1.5,1.5,0,0,0-1.42,1.36,3.47,3.47,0,0,0,0,.49v3.1h-1.05Z"/><path d="M505.12,260.66a2.84,2.84,0,0,1-2.89,3.08,2.76,2.76,0,0,1-2.78-3,2.83,2.83,0,0,1,2.87-3.08A2.75,2.75,0,0,1,505.12,260.66Zm-4.61,0c0,1.28.74,2.24,1.77,2.24S504,262,504,260.69c0-1-.49-2.23-1.74-2.23S500.51,259.61,500.51,260.71Z"/><path d="M511.47,255.09v7c0,.51,0,1.1,0,1.5h-.95l-.05-1h0a2.16,2.16,0,0,1-2,1.14c-1.41,0-2.49-1.19-2.49-2.95,0-1.93,1.19-3.12,2.61-3.12a1.94,1.94,0,0,1,1.75.89h0v-3.47Zm-1.06,5.07a1.65,1.65,0,0,0-.05-.44,1.54,1.54,0,0,0-1.52-1.22c-1.09,0-1.74.95-1.74,2.24s.58,2.15,1.72,2.15a1.58,1.58,0,0,0,1.54-1.26,1.71,1.71,0,0,0,.05-.46Z"/><path d="M518.08,262c0,.6,0,1.13,0,1.59h-.94l-.06-.95h0a2.19,2.19,0,0,1-1.92,1.08c-.91,0-2-.51-2-2.55V257.8h1V261c0,1.11.34,1.85,1.3,1.85a1.47,1.47,0,0,0,1.48-1.5V257.8h1.06Z"/><path d="M524,263.39a3.91,3.91,0,0,1-1.66.34,2.76,2.76,0,0,1-2.9-3,3,3,0,0,1,3.12-3.08,3.61,3.61,0,0,1,1.47.3l-.24.82a2.42,2.42,0,0,0-1.23-.28,2.19,2.19,0,0,0,0,4.37,3,3,0,0,0,1.29-.29Z"/><path d="M526.64,256.13v1.67h1.51v.8h-1.51v3.13c0,.72.2,1.13.79,1.13a2.21,2.21,0,0,0,.61-.07l.05.79a2.7,2.7,0,0,1-.94.15,1.47,1.47,0,0,1-1.14-.45,2.15,2.15,0,0,1-.4-1.51V258.6h-.9v-.8h.9v-1.39Z"/><path d="M536.1,259.82H533v2.91h3.5v.88h-4.54v-8.09h4.36v.88H533V259h3.14Z"/><path d="M537.79,259.37c0-.6,0-1.09,0-1.57h.93l.06,1h0a2.14,2.14,0,0,1,1.92-1.09c.8,0,2.05.48,2.05,2.47v3.47h-1.06v-3.35c0-.94-.35-1.72-1.34-1.72a1.51,1.51,0,0,0-1.42,1.08,1.83,1.83,0,0,0-.07.5v3.49h-1.05Z"/><path d="M549.45,257.8c0,.42-.05.89-.05,1.6v3.37a3.36,3.36,0,0,1-.83,2.65,3.11,3.11,0,0,1-2.11.69,3.76,3.76,0,0,1-1.93-.48l.26-.8a3.32,3.32,0,0,0,1.71.45c1.08,0,1.87-.56,1.87-2v-.65h0a2.05,2.05,0,0,1-1.84,1,2.59,2.59,0,0,1-2.47-2.83,2.78,2.78,0,0,1,2.61-3.08,1.92,1.92,0,0,1,1.81,1h0l0-.88Zm-1.09,2.29a1.75,1.75,0,0,0-.06-.48,1.53,1.53,0,0,0-1.48-1.11c-1,0-1.73.85-1.73,2.19,0,1.14.58,2.09,1.72,2.09a1.54,1.54,0,0,0,1.46-1.08,1.88,1.88,0,0,0,.09-.57Z"/><path d="M552.26,256.17a.66.66,0,0,1-1.31,0,.65.65,0,0,1,.66-.66A.63.63,0,0,1,552.26,256.17Zm-1.18,7.44V257.8h1.06v5.81Z"/><path d="M553.89,259.37c0-.6,0-1.09,0-1.57h.94l.06,1h0a2.14,2.14,0,0,1,1.92-1.09c.8,0,2.05.48,2.05,2.47v3.47h-1.05v-3.35c0-.94-.35-1.72-1.35-1.72a1.54,1.54,0,0,0-1.48,1.58v3.49h-1.06Z"/><path d="M561.14,260.89a1.86,1.86,0,0,0,2,2,3.83,3.83,0,0,0,1.61-.3l.17.76a4.8,4.8,0,0,1-1.93.36,2.7,2.7,0,0,1-2.85-2.93c0-1.75,1-3.13,2.72-3.13a2.46,2.46,0,0,1,2.4,2.73,2.63,2.63,0,0,1,0,.49Zm3.09-.75a1.5,1.5,0,0,0-1.46-1.72,1.75,1.75,0,0,0-1.62,1.72Z"/><path d="M567.15,260.89a1.86,1.86,0,0,0,2,2,3.8,3.8,0,0,0,1.61-.3l.18.76a4.88,4.88,0,0,1-1.93.36,2.7,2.7,0,0,1-2.86-2.93c0-1.75,1-3.13,2.72-3.13a2.46,2.46,0,0,1,2.4,2.73,4.49,4.49,0,0,1,0,.49Zm3.09-.75a1.5,1.5,0,0,0-1.46-1.72,1.75,1.75,0,0,0-1.62,1.72Z"/><path d="M572.57,259.61c0-.68,0-1.27,0-1.81h.92l0,1.14h0a1.75,1.75,0,0,1,1.61-1.27,1.39,1.39,0,0,1,.3,0v1a1.88,1.88,0,0,0-.36,0,1.5,1.5,0,0,0-1.42,1.36,3.47,3.47,0,0,0,0,.49v3.1h-1Z"/><path d="M577.72,256.17a.62.62,0,0,1-.67.65.63.63,0,0,1-.64-.65.65.65,0,0,1,.66-.66A.63.63,0,0,1,577.72,256.17Zm-1.18,7.44V257.8h1.06v5.81Z"/><path d="M579.35,259.37c0-.6,0-1.09-.05-1.57h.94l.06,1h0a2.14,2.14,0,0,1,1.92-1.09c.81,0,2,.48,2,2.47v3.47h-1v-3.35c0-.94-.35-1.72-1.34-1.72a1.54,1.54,0,0,0-1.49,1.58v3.49h-1.06Z"/><path d="M591,257.8c0,.42,0,.89,0,1.6v3.37a3.36,3.36,0,0,1-.83,2.65,3.12,3.12,0,0,1-2.11.69,3.73,3.73,0,0,1-1.93-.48l.26-.8a3.25,3.25,0,0,0,1.7.45c1.08,0,1.87-.56,1.87-2v-.65h0a2.07,2.07,0,0,1-1.85,1,2.59,2.59,0,0,1-2.47-2.83,2.79,2.79,0,0,1,2.62-3.08,1.94,1.94,0,0,1,1.81,1h0l.05-.88Zm-1.09,2.29a1.44,1.44,0,0,0-.06-.48,1.52,1.52,0,0,0-1.47-1.11c-1,0-1.73.85-1.73,2.19,0,1.14.58,2.09,1.71,2.09a1.55,1.55,0,0,0,1.47-1.08,1.87,1.87,0,0,0,.08-.57Z"/><path d="M489.91,271.63a9.65,9.65,0,0,1,1.9-.17,3.31,3.31,0,0,1,2.22.59,1.69,1.69,0,0,1,.67,1.43,1.91,1.91,0,0,1-1.36,1.77v0a2.07,2.07,0,0,1,1.66,2,2.15,2.15,0,0,1-.68,1.62,4,4,0,0,1-2.79.76,11.63,11.63,0,0,1-1.62-.1Zm1,3.31h.95c1.1,0,1.75-.58,1.75-1.36,0-.94-.72-1.31-1.78-1.31a4.21,4.21,0,0,0-.92.07Zm0,3.87a5.06,5.06,0,0,0,.88.05c1.07,0,2.07-.39,2.07-1.57s-.95-1.56-2.09-1.56H491Z"/><path d="M496.37,271.09h1.06v8.52h-1.06Z"/><path d="M504.46,276.66a2.84,2.84,0,0,1-2.89,3.08,2.76,2.76,0,0,1-2.78-3,2.83,2.83,0,0,1,2.88-3.08A2.75,2.75,0,0,1,504.46,276.66Zm-4.61,0c0,1.28.74,2.24,1.77,2.24s1.76-.95,1.76-2.26c0-1-.49-2.23-1.74-2.23S499.85,275.61,499.85,276.71Z"/><path d="M509.93,279.39a3.87,3.87,0,0,1-1.66.34,2.76,2.76,0,0,1-2.9-3,3,3,0,0,1,3.12-3.08,3.61,3.61,0,0,1,1.47.3l-.24.82a2.42,2.42,0,0,0-1.23-.28,2.19,2.19,0,0,0,0,4.37,3,3,0,0,0,1.29-.29Z"/><path d="M512.21,276.46h0c.14-.2.35-.45.51-.66l1.71-2h1.27l-2.24,2.39,2.55,3.42h-1.28l-2-2.79-.54.6v2.19h-1v-8.52h1Z"/><path d="M520.94,279.39a4,4,0,0,1-1.67.34,2.76,2.76,0,0,1-2.89-3,3,3,0,0,1,3.12-3.08,3.6,3.6,0,0,1,1.46.3l-.24.82a2.37,2.37,0,0,0-1.22-.28,2.19,2.19,0,0,0,0,4.37,3,3,0,0,0,1.3-.29Z"/><path d="M522.17,271.09h1.06v3.62h0A2,2,0,0,1,524,274a2.16,2.16,0,0,1,1.08-.3c.78,0,2,.48,2,2.48v3.46h-1.06v-3.34c0-.93-.35-1.73-1.34-1.73a1.51,1.51,0,0,0-1.42,1.06,1.26,1.26,0,0,0-.07.5v3.51h-1.06Z"/><path d="M532.05,279.61l-.08-.74h0a2.16,2.16,0,0,1-1.78.87,1.65,1.65,0,0,1-1.77-1.67c0-1.4,1.25-2.17,3.49-2.16v-.12a1.19,1.19,0,0,0-1.32-1.34,2.93,2.93,0,0,0-1.51.43l-.24-.7a3.61,3.61,0,0,1,1.91-.51c1.77,0,2.2,1.21,2.2,2.37v2.17a8.44,8.44,0,0,0,.1,1.4Zm-.16-3c-1.15,0-2.46.18-2.46,1.31a.94.94,0,0,0,1,1,1.43,1.43,0,0,0,1.4-1,1,1,0,0,0,.06-.34Z"/><path d="M535.79,272.17a.62.62,0,0,1-.67.65.63.63,0,0,1-.63-.65.64.64,0,0,1,.66-.66A.62.62,0,0,1,535.79,272.17Zm-1.17,7.44V273.8h1v5.81Z"/><path d="M537.43,275.37c0-.6,0-1.09,0-1.57h.94l0,1h0a2.14,2.14,0,0,1,1.92-1.09c.8,0,2,.48,2,2.47v3.47h-1.06v-3.35c0-.94-.34-1.72-1.34-1.72a1.51,1.51,0,0,0-1.42,1.08,1.83,1.83,0,0,0-.07.5v3.49h-1.05Z"/><path d="M546.67,279.61v-8.09h1.14l2.59,4.09a23.83,23.83,0,0,1,1.45,2.63h0c-.09-1.08-.12-2.07-.12-3.33v-3.38h1v8.09h-1.06l-2.57-4.11a26.34,26.34,0,0,1-1.51-2.7l0,0c.06,1,.08,2,.08,3.33v3.46Z"/><path d="M555.11,276.89a1.87,1.87,0,0,0,2,2,3.75,3.75,0,0,0,1.6-.3l.18.76a4.8,4.8,0,0,1-1.93.36,2.69,2.69,0,0,1-2.85-2.93c0-1.75,1-3.13,2.72-3.13a2.46,2.46,0,0,1,2.4,2.73,4,4,0,0,1,0,.49Zm3.1-.75a1.51,1.51,0,0,0-1.46-1.72,1.75,1.75,0,0,0-1.62,1.72Z"/><path d="M561.81,272.13v1.67h1.51v.8h-1.51v3.13c0,.72.2,1.13.79,1.13a2.15,2.15,0,0,0,.61-.07l0,.79a2.63,2.63,0,0,1-.93.15,1.45,1.45,0,0,1-1.14-.45,2.15,2.15,0,0,1-.41-1.51V274.6h-.9v-.8h.9v-1.39Z"/><path d="M565,273.8l.77,2.95c.16.65.32,1.25.43,1.85h0c.14-.59.33-1.21.52-1.84l1-3h.88l.9,2.9c.22.7.39,1.31.52,1.9h0a16.78,16.78,0,0,1,.44-1.89l.83-2.91h1l-1.87,5.81h-1l-.89-2.78a18.89,18.89,0,0,1-.51-1.9h0a17.93,17.93,0,0,1-.52,1.92l-.94,2.76h-1L564,273.8Z"/><path d="M578.58,276.66a2.84,2.84,0,0,1-2.89,3.08,2.76,2.76,0,0,1-2.78-3,2.83,2.83,0,0,1,2.88-3.08A2.74,2.74,0,0,1,578.58,276.66Zm-4.6,0c0,1.28.73,2.24,1.76,2.24s1.76-.95,1.76-2.26c0-1-.49-2.23-1.73-2.23S574,275.61,574,276.71Z"/><path d="M579.92,275.61c0-.68,0-1.27,0-1.81h.92l0,1.14h0a1.74,1.74,0,0,1,1.61-1.27,1.23,1.23,0,0,1,.29,0v1a1.69,1.69,0,0,0-.35,0A1.48,1.48,0,0,0,581,276a3.37,3.37,0,0,0,0,.49v3.1h-1Z"/><path d="M584.93,276.46h0c.14-.2.35-.45.51-.66l1.71-2h1.27l-2.24,2.39,2.55,3.42h-1.28l-2-2.79-.54.6v2.19h-1v-8.52h1Z"/><path d="M479.8,231.13l3.51-3.52a.23.23,0,0,0,.07-.17.24.24,0,0,0-.07-.18l-3.51-3.51a.24.24,0,0,0-.18-.07.23.23,0,0,0-.17.07l-.38.38a.23.23,0,0,0-.07.17.22.22,0,0,0,.07.17l3,3-3,3a.24.24,0,0,0-.07.18.23.23,0,0,0,.07.17l.38.38a.23.23,0,0,0,.17.07A.24.24,0,0,0,479.8,231.13Z"/><path d="M479.8,247.28l3.51-3.51a.23.23,0,0,0,.07-.17.24.24,0,0,0-.07-.18l-3.51-3.51a.25.25,0,0,0-.18-.08.25.25,0,0,0-.17.08l-.38.38a.22.22,0,0,0-.07.17.23.23,0,0,0,.07.17l3,3-3,3a.23.23,0,0,0-.07.17.24.24,0,0,0,.07.18l.38.37a.25.25,0,0,0,.17.08A.25.25,0,0,0,479.8,247.28Z"/><path d="M479.8,263.28l3.51-3.51a.23.23,0,0,0,.07-.17.24.24,0,0,0-.07-.18l-3.51-3.51a.25.25,0,0,0-.18-.08.25.25,0,0,0-.17.08l-.38.38a.22.22,0,0,0-.07.17.23.23,0,0,0,.07.17l3,3-3,3a.23.23,0,0,0-.07.17.24.24,0,0,0,.07.18l.38.37a.25.25,0,0,0,.17.08A.25.25,0,0,0,479.8,263.28Z"/><path d="M479.8,279.1l3.51-3.51a.24.24,0,0,0,.07-.18.23.23,0,0,0-.07-.17l-3.51-3.51a.22.22,0,0,0-.18-.08.21.21,0,0,0-.17.08l-.38.37a.24.24,0,0,0-.07.18.23.23,0,0,0,.07.17l3,3-3,3a.22.22,0,0,0-.07.17.23.23,0,0,0,.07.17l.38.38a.25.25,0,0,0,.17.08A.25.25,0,0,0,479.8,279.1Z"/><path d="M278.38,347.61l3.51-3.51a.25.25,0,0,0,.08-.18.25.25,0,0,0-.08-.17l-3.51-3.52a.24.24,0,0,0-.18-.07.23.23,0,0,0-.17.07l-.38.38a.24.24,0,0,0-.07.18.23.23,0,0,0,.07.17l3,3-3,3a.22.22,0,0,0-.07.17.23.23,0,0,0,.07.17l.38.38a.23.23,0,0,0,.17.07A.24.24,0,0,0,278.38,347.61Z"/><path d="M294.64,347.73a7.5,7.5,0,0,1-2.48.44A3.79,3.79,0,0,1,288,344.1a4.06,4.06,0,0,1,4.38-4.18,5.15,5.15,0,0,1,2,.37l-.25.86a4.06,4.06,0,0,0-1.79-.35,3,3,0,0,0-3.25,3.25,3,3,0,0,0,3.12,3.26,3.39,3.39,0,0,0,1.39-.22v-2.41H292v-.84h2.66Z"/><path d="M296.21,339.57h1.05v8.52h-1.05Z"/><path d="M304.29,345.14a2.83,2.83,0,0,1-2.89,3.08,2.76,2.76,0,0,1-2.78-3,2.84,2.84,0,0,1,2.88-3.09A2.75,2.75,0,0,1,304.29,345.14Zm-4.61.06c0,1.27.74,2.23,1.77,2.23s1.76-.95,1.76-2.26c0-1-.49-2.23-1.74-2.23S299.68,344.1,299.68,345.2Z"/><path d="M305.58,348.09c0-.4.05-1,.05-1.5v-7h1v3.65h0a2.17,2.17,0,0,1,2-1.07c1.44,0,2.46,1.2,2.45,3,0,2.07-1.31,3.1-2.6,3.1a2.07,2.07,0,0,1-1.95-1.09h0l-.05,1Zm1.09-2.33a1.67,1.67,0,0,0,.05.39,1.62,1.62,0,0,0,1.58,1.23c1.1,0,1.76-.9,1.76-2.23,0-1.16-.6-2.16-1.72-2.16a1.68,1.68,0,0,0-1.61,1.3,1.71,1.71,0,0,0-.06.43Z"/><path d="M315.67,348.09l-.09-.73h0a2.19,2.19,0,0,1-1.78.86,1.65,1.65,0,0,1-1.77-1.67c0-1.4,1.24-2.17,3.49-2.15v-.12a1.2,1.2,0,0,0-1.32-1.35,2.9,2.9,0,0,0-1.51.43l-.24-.69a3.6,3.6,0,0,1,1.9-.52c1.78,0,2.21,1.21,2.21,2.38v2.17a7.44,7.44,0,0,0,.1,1.39Zm-.16-3c-1.15,0-2.46.18-2.46,1.3a.94.94,0,0,0,1,1,1.45,1.45,0,0,0,1.4-1,1,1,0,0,0,.06-.34Z"/><path d="M318.24,339.57h1.05v8.52h-1.05Z"/><path d="M323.65,340.11a15.81,15.81,0,0,1,2.22-.16,4.62,4.62,0,0,1,3.27,1,3.74,3.74,0,0,1,1.14,2.91,4.32,4.32,0,0,1-1.16,3.14,5,5,0,0,1-3.58,1.16,17,17,0,0,1-1.89-.09Zm1,7.15a6.45,6.45,0,0,0,1.06.06,3.1,3.1,0,0,0,3.44-3.43c0-1.9-1.07-3.12-3.27-3.12a6,6,0,0,0-1.23.11Z"/><path d="M332.78,340.65a.62.62,0,0,1-.67.65.63.63,0,0,1-.64-.65.65.65,0,0,1,.66-.66A.63.63,0,0,1,332.78,340.65Zm-1.18,7.44v-5.8h1.06v5.8Z"/><path d="M334.27,347a2.79,2.79,0,0,0,1.39.42c.77,0,1.13-.38,1.13-.86s-.3-.78-1.08-1.07c-1-.37-1.54-.95-1.54-1.64a1.8,1.8,0,0,1,2-1.71,2.9,2.9,0,0,1,1.42.36l-.26.77a2.31,2.31,0,0,0-1.19-.34c-.62,0-1,.36-1,.8s.35.69,1.1,1c1,.38,1.53.89,1.53,1.75,0,1-.79,1.74-2.17,1.74a3.27,3.27,0,0,1-1.63-.4Z"/><path d="M340.44,340.62v1.67H342v.8h-1.51v3.13c0,.72.2,1.13.79,1.13a2.13,2.13,0,0,0,.61-.08l.05.8a2.73,2.73,0,0,1-.94.14,1.49,1.49,0,0,1-1.14-.44,2.18,2.18,0,0,1-.41-1.52v-3.16h-.89v-.8h.89v-1.4Z"/><path d="M343.14,344.1c0-.69,0-1.28-.05-1.81H344l0,1.13h.05a1.74,1.74,0,0,1,1.6-1.27.91.91,0,0,1,.3,0v1a1.86,1.86,0,0,0-.36,0,1.47,1.47,0,0,0-1.41,1.35,2.57,2.57,0,0,0-.05.5v3.09h-1Z"/><path d="M348.28,340.65a.62.62,0,0,1-.67.65.63.63,0,0,1-.63-.65.64.64,0,0,1,.66-.66A.62.62,0,0,1,348.28,340.65Zm-1.17,7.44v-5.8h1.05v5.8Z"/><path d="M349.87,348.09c0-.4.05-1,.05-1.5v-7h1v3.65h0a2.18,2.18,0,0,1,2-1.07c1.44,0,2.46,1.2,2.45,3,0,2.07-1.31,3.1-2.6,3.1a2.08,2.08,0,0,1-1.95-1.09h0l-.05,1Zm1.09-2.33a1.67,1.67,0,0,0,.05.39,1.62,1.62,0,0,0,1.58,1.23c1.1,0,1.76-.9,1.76-2.23,0-1.16-.6-2.16-1.72-2.16a1.69,1.69,0,0,0-1.61,1.3,2.34,2.34,0,0,0-.06.43Z"/><path d="M361.6,346.51c0,.6,0,1.12,0,1.58h-.94l-.06-.95h0a2.19,2.19,0,0,1-1.92,1.08c-.91,0-2-.5-2-2.54v-3.39h1.05v3.21c0,1.1.34,1.85,1.3,1.85a1.53,1.53,0,0,0,1.39-1,1.57,1.57,0,0,0,.1-.54v-3.56h1.05Z"/><path d="M364.63,340.62v1.67h1.51v.8h-1.51v3.13c0,.72.2,1.13.79,1.13a2.13,2.13,0,0,0,.61-.08l.05.8a2.73,2.73,0,0,1-.94.14,1.49,1.49,0,0,1-1.14-.44,2.18,2.18,0,0,1-.4-1.52v-3.16h-.9v-.8h.9v-1.4Z"/><path d="M368.5,340.65a.62.62,0,0,1-.67.65.63.63,0,0,1-.63-.65.64.64,0,0,1,.66-.66A.62.62,0,0,1,368.5,340.65Zm-1.17,7.44v-5.8h1.05v5.8Z"/><path d="M375.39,345.14a2.83,2.83,0,0,1-2.89,3.08,2.76,2.76,0,0,1-2.78-3,2.83,2.83,0,0,1,2.87-3.09A2.75,2.75,0,0,1,375.39,345.14Zm-4.61.06c0,1.27.74,2.23,1.77,2.23s1.76-.95,1.76-2.26c0-1-.49-2.23-1.74-2.23S370.78,344.1,370.78,345.2Z"/><path d="M376.72,343.86c0-.6,0-1.1,0-1.57h.93l.06.95h0a2.11,2.11,0,0,1,1.91-1.09c.81,0,2.05.48,2.05,2.47v3.47h-1.05v-3.35c0-.93-.35-1.71-1.34-1.71a1.5,1.5,0,0,0-1.42,1.08,1.45,1.45,0,0,0-.07.49v3.49h-1.06Z"/><path d="M288.49,356h1v7.2H293v.88h-4.5Z"/><path d="M294.54,361.38a1.85,1.85,0,0,0,2,2,3.75,3.75,0,0,0,1.6-.3l.18.76a4.63,4.63,0,0,1-1.93.36,2.7,2.7,0,0,1-2.85-2.93c0-1.75,1-3.13,2.72-3.13a2.46,2.46,0,0,1,2.4,2.74,2.81,2.81,0,0,1,0,.49Zm3.09-.76a1.5,1.5,0,0,0-1.46-1.71,1.74,1.74,0,0,0-1.62,1.71Z"/><path d="M305,358.29c0,.41,0,.88,0,1.59v3.37a3.35,3.35,0,0,1-.82,2.65,3.08,3.08,0,0,1-2.11.7,3.79,3.79,0,0,1-1.94-.48l.27-.81a3.25,3.25,0,0,0,1.7.46c1.08,0,1.87-.57,1.87-2v-.65h0a2.09,2.09,0,0,1-1.85,1,2.6,2.6,0,0,1-2.47-2.83,2.79,2.79,0,0,1,2.62-3.09,2,2,0,0,1,1.81,1h0l.05-.87Zm-1.09,2.29a1.44,1.44,0,0,0-.06-.48,1.51,1.51,0,0,0-1.47-1.12c-1,0-1.73.85-1.73,2.19,0,1.14.57,2.09,1.71,2.09a1.55,1.55,0,0,0,1.47-1.08,1.81,1.81,0,0,0,.08-.56Z"/><path d="M309.88,364.09l-.08-.73h0a2.16,2.16,0,0,1-1.77.86,1.66,1.66,0,0,1-1.78-1.67c0-1.4,1.25-2.17,3.49-2.15v-.12a1.2,1.2,0,0,0-1.32-1.35,2.93,2.93,0,0,0-1.51.43l-.24-.69a3.64,3.64,0,0,1,1.91-.52c1.77,0,2.21,1.21,2.21,2.38v2.17a8.47,8.47,0,0,0,.09,1.39Zm-.15-3c-1.15,0-2.46.18-2.46,1.3a.93.93,0,0,0,1,1,1.45,1.45,0,0,0,1.41-1,1.35,1.35,0,0,0,.06-.34Z"/><path d="M316.59,363.87a3.81,3.81,0,0,1-1.67.34,2.76,2.76,0,0,1-2.89-3,3,3,0,0,1,3.12-3.09,3.52,3.52,0,0,1,1.46.3l-.24.82a2.45,2.45,0,0,0-1.22-.28,2,2,0,0,0-2,2.2,2,2,0,0,0,2,2.17,3,3,0,0,0,1.29-.29Z"/><path d="M318.43,358.29l1.27,3.42c.13.39.28.84.37,1.19h0c.1-.35.22-.79.37-1.21l1.15-3.4h1.11l-1.58,4.13c-.75,2-1.27,3-2,3.64a2.93,2.93,0,0,1-1.3.68l-.26-.89a2.77,2.77,0,0,0,.92-.51,3.22,3.22,0,0,0,.89-1.18.76.76,0,0,0,.09-.25,1,1,0,0,0-.08-.28l-2.14-5.34Z"/><path d="M333.09,360.54c-.06-1.13-.13-2.48-.12-3.49h0c-.27.95-.61,1.95-1,3.07L330.49,364h-.8l-1.3-3.85c-.39-1.14-.71-2.18-.94-3.14h0c0,1-.09,2.36-.16,3.57l-.21,3.47h-1l.56-8.08H328l1.37,3.91c.34,1,.62,1.88.82,2.72h0c.2-.82.49-1.7.85-2.72l1.44-3.91h1.33l.5,8.08h-1Z"/><path d="M341.21,361.14a2.83,2.83,0,0,1-2.89,3.08,2.76,2.76,0,0,1-2.78-3,2.84,2.84,0,0,1,2.88-3.09A2.74,2.74,0,0,1,341.21,361.14Zm-4.6.06c0,1.27.73,2.23,1.76,2.23s1.76-.95,1.76-2.26c0-1-.49-2.23-1.73-2.23S336.61,360.1,336.61,361.2Z"/><path d="M347.56,355.57v7c0,.52,0,1.1.05,1.5h-.95l-.05-1h0a2.14,2.14,0,0,1-2,1.14c-1.4,0-2.48-1.19-2.48-3,0-1.93,1.19-3.12,2.6-3.12a1.93,1.93,0,0,1,1.75.89h0v-3.47Zm-1.05,5.08a2.38,2.38,0,0,0-.05-.45,1.55,1.55,0,0,0-1.52-1.22c-1.1,0-1.74,1-1.74,2.24s.57,2.15,1.71,2.15a1.59,1.59,0,0,0,1.55-1.26,2.14,2.14,0,0,0,.05-.45Z"/><path d="M349.9,361.38a1.86,1.86,0,0,0,2,2,3.75,3.75,0,0,0,1.6-.3l.18.76a4.67,4.67,0,0,1-1.93.36,2.69,2.69,0,0,1-2.85-2.93c0-1.75,1-3.13,2.72-3.13a2.47,2.47,0,0,1,2.4,2.74,4.35,4.35,0,0,1,0,.49Zm3.1-.76a1.5,1.5,0,0,0-1.46-1.71,1.74,1.74,0,0,0-1.62,1.71Z"/><path d="M355.33,360.1c0-.69,0-1.28-.05-1.81h.92l0,1.13h.05a1.74,1.74,0,0,1,1.61-1.27.88.88,0,0,1,.29,0v1a1.79,1.79,0,0,0-.36,0,1.47,1.47,0,0,0-1.41,1.35,3.68,3.68,0,0,0-.05.5v3.09h-1Z"/><path d="M359.3,359.86c0-.6,0-1.1-.05-1.57h.94l.06.95h0a2.14,2.14,0,0,1,1.92-1.09c.8,0,2.05.48,2.05,2.47v3.47h-1.05v-3.35c0-.93-.35-1.71-1.35-1.71a1.5,1.5,0,0,0-1.41,1.08,1.45,1.45,0,0,0-.07.49v3.49H359.3Z"/><path d="M367.14,356.65a.63.63,0,0,1-.68.65.63.63,0,0,1-.63-.65.64.64,0,0,1,.66-.66A.63.63,0,0,1,367.14,356.65ZM366,364.09v-5.8H367v5.8Z"/><path d="M368.11,363.48l2.63-3.42.75-.9v0h-3.14v-.85h4.42v.65l-2.59,3.37c-.24.33-.48.62-.74.92v0h3.39v.84h-4.71Z"/><path d="M377.12,364.09l-.09-.73h0a2.19,2.19,0,0,1-1.78.86,1.65,1.65,0,0,1-1.77-1.67c0-1.4,1.25-2.17,3.49-2.15v-.12a1.2,1.2,0,0,0-1.32-1.35,2.93,2.93,0,0,0-1.51.43l-.24-.69a3.6,3.6,0,0,1,1.9-.52c1.78,0,2.21,1.21,2.21,2.38v2.17a7.44,7.44,0,0,0,.1,1.39Zm-.16-3c-1.15,0-2.46.18-2.46,1.3a.94.94,0,0,0,1,1,1.45,1.45,0,0,0,1.4-1,1,1,0,0,0,.06-.34Z"/><path d="M380.91,356.62v1.67h1.51v.8h-1.51v3.13c0,.72.2,1.13.79,1.13a2.08,2.08,0,0,0,.61-.08l.05.8a2.67,2.67,0,0,1-.93.14,1.47,1.47,0,0,1-1.14-.44,2.18,2.18,0,0,1-.41-1.52v-3.16H379v-.8h.9v-1.4Z"/><path d="M384.79,356.65a.63.63,0,0,1-.68.65.63.63,0,0,1-.63-.65.64.64,0,0,1,.66-.66A.63.63,0,0,1,384.79,356.65Zm-1.18,7.44v-5.8h1.06v5.8Z"/><path d="M391.67,361.14a2.83,2.83,0,0,1-2.89,3.08,2.76,2.76,0,0,1-2.78-3,2.84,2.84,0,0,1,2.88-3.09A2.74,2.74,0,0,1,391.67,361.14Zm-4.6.06c0,1.27.73,2.23,1.76,2.23s1.76-.95,1.76-2.26c0-1-.49-2.23-1.74-2.23S387.07,360.1,387.07,361.2Z"/><path d="M393,359.86c0-.6,0-1.1-.05-1.57h.94l.05.95h0a2.14,2.14,0,0,1,1.92-1.09c.8,0,2.05.48,2.05,2.47v3.47h-1.06v-3.35c0-.93-.34-1.71-1.34-1.71a1.5,1.5,0,0,0-1.42,1.08,1.75,1.75,0,0,0-.07.49v3.49H393Z"/><path d="M294.14,379.83a5.25,5.25,0,0,1-2.14.38,3.77,3.77,0,0,1-4-4.09,4,4,0,0,1,4.22-4.25,4.4,4.4,0,0,1,1.92.36l-.25.86a3.69,3.69,0,0,0-1.63-.34,3,3,0,0,0-3.16,3.33,2.94,2.94,0,0,0,3.11,3.25,4.25,4.25,0,0,0,1.7-.33Z"/><path d="M295.41,371.57h1.06v8.52h-1.06Z"/><path d="M303.5,377.14a2.83,2.83,0,0,1-2.89,3.08,2.76,2.76,0,0,1-2.78-3,2.83,2.83,0,0,1,2.87-3.09A2.75,2.75,0,0,1,303.5,377.14Zm-4.61.06c0,1.27.73,2.23,1.77,2.23s1.76-.95,1.76-2.26c0-1-.49-2.23-1.74-2.23S298.89,376.1,298.89,377.2Z"/><path d="M309.69,378.51c0,.6,0,1.12.05,1.58h-.94l-.06-.95h0a2.19,2.19,0,0,1-1.92,1.08c-.91,0-2-.5-2-2.54v-3.39h1.05v3.21c0,1.1.34,1.85,1.3,1.85a1.53,1.53,0,0,0,1.39-1,1.57,1.57,0,0,0,.09-.54v-3.56h1.06Z"/><path d="M316.46,371.57v7c0,.52,0,1.1.05,1.5h-.95l-.05-1h0a2.15,2.15,0,0,1-2,1.14c-1.41,0-2.48-1.19-2.48-3,0-1.93,1.18-3.12,2.6-3.12a1.94,1.94,0,0,1,1.75.89h0v-3.47Zm-1.06,5.08a1.77,1.77,0,0,0,0-.45,1.54,1.54,0,0,0-1.52-1.22c-1.09,0-1.74,1-1.74,2.24s.58,2.15,1.72,2.15a1.58,1.58,0,0,0,1.54-1.26,1.64,1.64,0,0,0,0-.45Z"/><path d="M327.61,376.54c-.06-1.13-.14-2.48-.12-3.49h0c-.28.95-.61,1.95-1,3.07L325,380h-.79l-1.31-3.85c-.38-1.14-.7-2.18-.93-3.14h0c0,1-.08,2.36-.15,3.57l-.22,3.47h-1l.56-8.08h1.33l1.38,3.91c.34,1,.61,1.88.82,2.72h0c.21-.82.49-1.7.85-2.72L327,372h1.33l.51,8.08h-1Z"/><path d="M331.72,372.65a.62.62,0,0,1-.67.65.63.63,0,0,1-.63-.65.64.64,0,0,1,.66-.66A.62.62,0,0,1,331.72,372.65Zm-1.17,7.44v-5.8h1.05v5.8Z"/><path d="M338.36,374.29c0,.41-.05.88-.05,1.59v3.37a3.31,3.31,0,0,1-.83,2.65,3.06,3.06,0,0,1-2.11.7,3.78,3.78,0,0,1-1.93-.48l.26-.81a3.31,3.31,0,0,0,1.71.46c1.08,0,1.87-.57,1.87-2v-.65h0a2.09,2.09,0,0,1-1.85,1,2.6,2.6,0,0,1-2.47-2.83,2.79,2.79,0,0,1,2.61-3.09,1.92,1.92,0,0,1,1.81,1h0l0-.87Zm-1.09,2.29a1.44,1.44,0,0,0-.06-.48,1.52,1.52,0,0,0-1.48-1.12c-1,0-1.73.85-1.73,2.19,0,1.14.58,2.09,1.72,2.09a1.53,1.53,0,0,0,1.46-1.08,1.82,1.82,0,0,0,.09-.56Z"/><path d="M340,376.1c0-.69,0-1.28,0-1.81h.92l0,1.13H341a1.75,1.75,0,0,1,1.61-1.27,1,1,0,0,1,.3,0v1a1.94,1.94,0,0,0-.36,0,1.49,1.49,0,0,0-1.42,1.35,3.75,3.75,0,0,0,0,.5v3.09H340Z"/><path d="M347.07,380.09l-.08-.73h0a2.17,2.17,0,0,1-1.77.86,1.66,1.66,0,0,1-1.78-1.67c0-1.4,1.25-2.17,3.49-2.15v-.12a1.2,1.2,0,0,0-1.32-1.35,2.93,2.93,0,0,0-1.51.43l-.24-.69a3.64,3.64,0,0,1,1.91-.52c1.77,0,2.2,1.21,2.2,2.38v2.17a8.4,8.4,0,0,0,.1,1.39Zm-.15-3c-1.16,0-2.46.18-2.46,1.3a.93.93,0,0,0,1,1,1.45,1.45,0,0,0,1.41-1,1.35,1.35,0,0,0,.06-.34Z"/><path d="M350.86,372.62v1.67h1.52v.8h-1.52v3.13c0,.72.21,1.13.79,1.13a2.16,2.16,0,0,0,.62-.08l.05.8a2.73,2.73,0,0,1-.94.14,1.49,1.49,0,0,1-1.14-.44,2.18,2.18,0,0,1-.41-1.52v-3.16h-.9v-.8h.9v-1.4Z"/><path d="M354.74,372.65a.62.62,0,0,1-.67.65.63.63,0,0,1-.64-.65.65.65,0,0,1,.66-.66A.63.63,0,0,1,354.74,372.65Zm-1.18,7.44v-5.8h1.06v5.8Z"/><path d="M361.63,377.14a2.83,2.83,0,0,1-2.89,3.08,2.76,2.76,0,0,1-2.79-3,2.84,2.84,0,0,1,2.88-3.09A2.75,2.75,0,0,1,361.63,377.14Zm-4.61.06c0,1.27.73,2.23,1.76,2.23s1.77-.95,1.77-2.26c0-1-.49-2.23-1.74-2.23S357,376.1,357,377.2Z"/><path d="M363,375.86c0-.6,0-1.1,0-1.57h.94l.06.95h0a2.14,2.14,0,0,1,1.92-1.09c.8,0,2,.48,2,2.47v3.47h-1v-3.35c0-.93-.35-1.71-1.35-1.71a1.5,1.5,0,0,0-1.41,1.08,1.45,1.45,0,0,0-.07.49v3.49H363Z"/><path d="M289.81,396.09,287.76,388h1.1l1,4.09c.24,1,.46,2,.6,2.79h0c.14-.8.39-1.76.66-2.81l1.08-4.07h1.09l1,4.1c.23,1,.44,1.92.56,2.77h0c.16-.89.39-1.79.64-2.8l1.07-4.07h1.07l-2.29,8.08h-1.09l-1-4.21a22.78,22.78,0,0,1-.53-2.64h0a24.18,24.18,0,0,1-.62,2.64l-1.15,4.21Z"/><path d="M303.46,393.14a2.83,2.83,0,0,1-2.89,3.08,2.76,2.76,0,0,1-2.78-3,2.84,2.84,0,0,1,2.88-3.09A2.74,2.74,0,0,1,303.46,393.14Zm-4.6.06c0,1.27.73,2.23,1.76,2.23s1.76-.95,1.76-2.26c0-1-.49-2.23-1.74-2.23S298.86,392.1,298.86,393.2Z"/><path d="M304.8,392.1c0-.69,0-1.28-.05-1.81h.92l0,1.13h.05a1.74,1.74,0,0,1,1.6-1.27.91.91,0,0,1,.3,0v1a1.79,1.79,0,0,0-.36,0,1.47,1.47,0,0,0-1.41,1.35,2.57,2.57,0,0,0-.05.5v3.09h-1Z"/><path d="M309.81,393h0a7.77,7.77,0,0,1,.51-.66l1.71-2h1.27l-2.25,2.38,2.56,3.42h-1.28l-2-2.78-.54.6v2.18h-1v-8.52h1Z"/><path d="M314.51,396.09v-5h-.82v-.8h.82V390a2.61,2.61,0,0,1,.81-2,2.8,2.8,0,0,1,1.86-.59,3.73,3.73,0,0,1,1.74.39v8.26h-1v-7.68a2,2,0,0,0-.87-.15c-1.1,0-1.46.8-1.46,1.74v.29h1.35v.8h-1.35v5Z"/><path d="M325.93,393.14a2.83,2.83,0,0,1-2.89,3.08,2.76,2.76,0,0,1-2.79-3,2.84,2.84,0,0,1,2.88-3.09A2.75,2.75,0,0,1,325.93,393.14Zm-4.61.06c0,1.27.73,2.23,1.76,2.23s1.77-.95,1.77-2.26c0-1-.5-2.23-1.74-2.23S321.32,392.1,321.32,393.2Z"/><path d="M327.6,390.29l.76,2.95c.17.64.33,1.24.44,1.84h0c.13-.59.33-1.21.52-1.83l.95-3h.88l.9,2.9c.22.69.39,1.3.52,1.89h0a18.69,18.69,0,0,1,.45-1.88l.83-2.91h1l-1.87,5.8h-1l-.89-2.77a19.09,19.09,0,0,1-.51-1.91h0a14.91,14.91,0,0,1-.53,1.92l-.93,2.76h-1l-1.75-5.8Z"/><path d="M339.9,393.55l-.84,2.54H338l2.74-8.08H342l2.76,8.08h-1.11l-.87-2.54Zm2.65-.82-.79-2.33c-.18-.52-.3-1-.42-1.47h0c-.12.48-.25,1-.41,1.46l-.79,2.34Z"/><path d="M350.61,394.51c0,.6,0,1.12.05,1.58h-.94l-.06-.95h0a2.19,2.19,0,0,1-1.92,1.08c-.91,0-2-.5-2-2.54v-3.39h1v3.21c0,1.1.34,1.85,1.3,1.85a1.53,1.53,0,0,0,1.39-1,1.57,1.57,0,0,0,.09-.54v-3.56h1.06Z"/><path d="M353.64,388.62v1.67h1.51v.8h-1.51v3.13c0,.72.2,1.13.79,1.13a2.13,2.13,0,0,0,.61-.08l0,.8a2.73,2.73,0,0,1-.94.14,1.49,1.49,0,0,1-1.14-.44,2.18,2.18,0,0,1-.41-1.52v-3.16h-.89v-.8h.89v-1.4Z"/><path d="M361.52,393.14a2.83,2.83,0,0,1-2.89,3.08,2.76,2.76,0,0,1-2.78-3,2.83,2.83,0,0,1,2.87-3.09A2.75,2.75,0,0,1,361.52,393.14Zm-4.61.06c0,1.27.74,2.23,1.77,2.23s1.76-.95,1.76-2.26c0-1-.49-2.23-1.74-2.23S356.91,392.1,356.91,393.2Z"/><path d="M362.85,391.86c0-.6,0-1.1,0-1.57h.92l0,.93h0a2,2,0,0,1,1.83-1.07,1.71,1.71,0,0,1,1.64,1.17h0a2.35,2.35,0,0,1,.65-.76,2,2,0,0,1,1.28-.41c.77,0,1.91.51,1.91,2.52v3.42h-1V392.8c0-1.11-.41-1.78-1.26-1.78a1.36,1.36,0,0,0-1.25,1,2,2,0,0,0-.08.52v3.59h-1v-3.48c0-.92-.41-1.59-1.21-1.59a1.44,1.44,0,0,0-1.31,1.05,1.5,1.5,0,0,0-.09.52v3.5h-1Z"/><path d="M376.07,396.09l-.08-.73h0a2.19,2.19,0,0,1-1.78.86,1.66,1.66,0,0,1-1.78-1.67c0-1.4,1.25-2.17,3.5-2.15v-.12a1.21,1.21,0,0,0-1.32-1.35,2.9,2.9,0,0,0-1.51.43l-.25-.69a3.66,3.66,0,0,1,1.91-.52c1.78,0,2.21,1.21,2.21,2.38v2.17a8.47,8.47,0,0,0,.09,1.39Zm-.15-3c-1.15,0-2.46.18-2.46,1.3a.94.94,0,0,0,1,1,1.45,1.45,0,0,0,1.4-1,1,1,0,0,0,.06-.34Z"/><path d="M379.87,388.62v1.67h1.51v.8h-1.51v3.13c0,.72.2,1.13.79,1.13a2.08,2.08,0,0,0,.61-.08l.05.8a2.69,2.69,0,0,1-.94.14,1.5,1.5,0,0,1-1.14-.44,2.18,2.18,0,0,1-.4-1.52v-3.16h-.9v-.8h.9v-1.4Z"/><path d="M383.74,388.65a.62.62,0,0,1-.67.65.63.63,0,0,1-.63-.65.64.64,0,0,1,.66-.66A.62.62,0,0,1,383.74,388.65Zm-1.17,7.44v-5.8h1.05v5.8Z"/><path d="M390.63,393.14a2.83,2.83,0,0,1-2.89,3.08,2.76,2.76,0,0,1-2.78-3,2.83,2.83,0,0,1,2.87-3.09A2.75,2.75,0,0,1,390.63,393.14Zm-4.61.06c0,1.27.74,2.23,1.77,2.23s1.76-.95,1.76-2.26c0-1-.49-2.23-1.74-2.23S386,392.1,386,393.2Z"/><path d="M392,391.86c0-.6,0-1.1,0-1.57h.93l.06.95h0a2.13,2.13,0,0,1,1.92-1.09c.8,0,2.05.48,2.05,2.47v3.47h-1.06v-3.35c0-.93-.35-1.71-1.34-1.71a1.5,1.5,0,0,0-1.42,1.08,1.45,1.45,0,0,0-.07.49v3.49H392Z"/><path d="M278.38,363.77l3.51-3.52a.22.22,0,0,0,0-.34l-3.51-3.52a.24.24,0,0,0-.18-.07.23.23,0,0,0-.17.07l-.38.38a.23.23,0,0,0-.07.17.24.24,0,0,0,.07.18l3,3-3,3a.24.24,0,0,0-.07.18.23.23,0,0,0,.07.17l.38.38a.23.23,0,0,0,.17.07A.24.24,0,0,0,278.38,363.77Z"/><path d="M278.38,380.77l3.51-3.52a.22.22,0,0,0,0-.34l-3.51-3.52a.24.24,0,0,0-.18-.07.23.23,0,0,0-.17.07l-.38.38a.23.23,0,0,0-.07.17.24.24,0,0,0,.07.18l3,3-3,3a.24.24,0,0,0-.07.18.23.23,0,0,0,.07.17l.38.38a.23.23,0,0,0,.17.07A.24.24,0,0,0,278.38,380.77Z"/><path d="M278.38,396.77l3.51-3.52a.22.22,0,0,0,0-.34l-3.51-3.52a.24.24,0,0,0-.18-.07.23.23,0,0,0-.17.07l-.38.38a.23.23,0,0,0-.07.17.24.24,0,0,0,.07.18l3,3-3,3a.24.24,0,0,0-.07.18.23.23,0,0,0,.07.17l.38.38a.23.23,0,0,0,.17.07A.24.24,0,0,0,278.38,396.77Z"/><path d="M23.91,53.93a10.66,10.66,0,0,1,2-.17,3.28,3.28,0,0,1,2.34.66A2,2,0,0,1,28.88,56,2.13,2.13,0,0,1,27.36,58v0a2,2,0,0,1,1.19,1.63,13.27,13.27,0,0,0,.62,2.22H28.09A10.79,10.79,0,0,1,27.55,60c-.24-1.11-.67-1.53-1.62-1.57H25v3.5h-1Zm1,3.68H26c1.11,0,1.82-.61,1.82-1.54s-.75-1.5-1.86-1.51a4.15,4.15,0,0,0-1,.1Z"/><path d="M31,59.19a1.87,1.87,0,0,0,2,2,3.92,3.92,0,0,0,1.61-.3l.18.75a4.67,4.67,0,0,1-1.93.36A2.69,2.69,0,0,1,30,59.1C30,57.34,31,56,32.68,56a2.46,2.46,0,0,1,2.4,2.73,4.15,4.15,0,0,1,0,.49Zm3.1-.75a1.51,1.51,0,0,0-1.47-1.72A1.74,1.74,0,0,0,31,58.44Z"/><path d="M40.53,61.69a4,4,0,0,1-1.67.33,2.76,2.76,0,0,1-2.89-3A2.94,2.94,0,0,1,39.09,56a3.44,3.44,0,0,1,1.46.3l-.24.81a2.5,2.5,0,0,0-1.22-.27,2.18,2.18,0,0,0,0,4.36,2.9,2.9,0,0,0,1.3-.29Z"/><path d="M46.94,59A2.83,2.83,0,0,1,44.05,62a2.76,2.76,0,0,1-2.78-3A2.83,2.83,0,0,1,44.15,56,2.74,2.74,0,0,1,46.94,59Zm-4.6.06c0,1.27.73,2.23,1.76,2.23s1.77-.94,1.77-2.25c0-1-.5-2.23-1.74-2.23S42.34,57.91,42.34,59Z"/><path d="M48.28,57.67c0-.6,0-1.09-.05-1.57h.92l.05.93h0A2,2,0,0,1,51.06,56a1.74,1.74,0,0,1,1.65,1.16h0a2.46,2.46,0,0,1,.65-.76,2,2,0,0,1,1.28-.4c.77,0,1.91.5,1.91,2.51V61.9h-1V58.62c0-1.12-.41-1.79-1.26-1.79a1.36,1.36,0,0,0-1.25,1,1.64,1.64,0,0,0-.08.53V61.9h-1V58.42c0-.92-.4-1.59-1.21-1.59a1.45,1.45,0,0,0-1.31,1.05,1.77,1.77,0,0,0-.08.52v3.5h-1Z"/><path d="M58.29,57.67c0-.6,0-1.09,0-1.57h.92l.05.93h0A2,2,0,0,1,61.07,56a1.71,1.71,0,0,1,1.64,1.16h0a2.44,2.44,0,0,1,.64-.76,2,2,0,0,1,1.29-.4c.77,0,1.9.5,1.9,2.51V61.9h-1V58.62c0-1.12-.4-1.79-1.26-1.79a1.35,1.35,0,0,0-1.24,1,1.63,1.63,0,0,0-.09.53V61.9h-1V58.42c0-.92-.41-1.59-1.21-1.59a1.45,1.45,0,0,0-1.31,1.05,1.49,1.49,0,0,0-.08.52v3.5h-1Z"/><path d="M68.88,59.19a1.87,1.87,0,0,0,2,2,3.92,3.92,0,0,0,1.61-.3l.18.75a4.67,4.67,0,0,1-1.93.36,2.69,2.69,0,0,1-2.85-2.92c0-1.76,1-3.13,2.72-3.13A2.46,2.46,0,0,1,73,58.7a4.15,4.15,0,0,1,0,.49Zm3.1-.75a1.51,1.51,0,0,0-1.47-1.72,1.76,1.76,0,0,0-1.62,1.72Z"/><path d="M74.31,57.67c0-.6,0-1.09,0-1.57h.93l.06,1h0A2.14,2.14,0,0,1,77.2,56c.8,0,2,.48,2,2.47V61.9H78.19V58.56c0-.94-.35-1.72-1.34-1.72a1.5,1.5,0,0,0-1.42,1.08,1.75,1.75,0,0,0-.07.49V61.9h-1Z"/><path d="M86,53.39v7c0,.52,0,1.11,0,1.5h-1l0-1h0A2.15,2.15,0,0,1,83,62c-1.4,0-2.48-1.18-2.48-3,0-1.93,1.18-3.11,2.6-3.11a1.94,1.94,0,0,1,1.75.88h0V53.39Zm-1.06,5.07a2.18,2.18,0,0,0,0-.44,1.56,1.56,0,0,0-1.53-1.23c-1.09,0-1.74,1-1.74,2.25s.58,2.14,1.72,2.14a1.6,1.6,0,0,0,1.55-1.26,2.09,2.09,0,0,0,0-.45Z"/><path d="M91,61.9l-.09-.73h0a2.15,2.15,0,0,1-1.78.86,1.65,1.65,0,0,1-1.77-1.66c0-1.41,1.25-2.17,3.49-2.16v-.12a1.19,1.19,0,0,0-1.32-1.34,2.84,2.84,0,0,0-1.51.43l-.24-.7A3.61,3.61,0,0,1,89.61,56c1.77,0,2.2,1.21,2.2,2.37v2.17a8.32,8.32,0,0,0,.1,1.39Zm-.16-3c-1.15,0-2.46.18-2.46,1.31a.93.93,0,0,0,1,1,1.43,1.43,0,0,0,1.4-1,.92.92,0,0,0,.06-.33Z"/><path d="M94.74,54.43V56.1h1.51v.8H94.74V60c0,.72.21,1.13.79,1.13a2.78,2.78,0,0,0,.62-.07l0,.79a2.63,2.63,0,0,1-.93.14,1.45,1.45,0,0,1-1.14-.44,2.15,2.15,0,0,1-.41-1.51V56.9h-.9v-.8h.9V54.71Z"/><path d="M98.62,54.47a.66.66,0,0,1-1.31,0,.64.64,0,0,1,.66-.66A.62.62,0,0,1,98.62,54.47ZM97.44,61.9V56.1H98.5v5.8Z"/><path d="M105.5,59A2.83,2.83,0,0,1,102.61,62a2.76,2.76,0,0,1-2.78-3A2.83,2.83,0,0,1,102.71,56,2.74,2.74,0,0,1,105.5,59Zm-4.6.06c0,1.27.73,2.23,1.76,2.23s1.76-.94,1.76-2.25c0-1-.49-2.23-1.74-2.23S100.9,57.91,100.9,59Z"/><path d="M106.84,57.67c0-.6,0-1.09,0-1.57h.94l.06,1h0A2.14,2.14,0,0,1,109.73,56c.8,0,2,.48,2,2.47V61.9h-1.06V58.56c0-.94-.34-1.72-1.34-1.72A1.5,1.5,0,0,0,108,57.92a1.44,1.44,0,0,0-.08.49V61.9h-1Z"/><path d="M120.26,58.11h-3.14V61h3.5v.87h-4.54V53.82h4.36v.87h-3.32v2.56h3.14Z"/><path d="M122,57.67c0-.6,0-1.09,0-1.57h.93l.06,1h0A2.13,2.13,0,0,1,124.84,56c.8,0,2,.48,2,2.47V61.9h-1.06V58.56c0-.94-.35-1.72-1.34-1.72a1.5,1.5,0,0,0-1.42,1.08,1.75,1.75,0,0,0-.07.49V61.9h-1Z"/><path d="M133.61,56.1c0,.42-.05.88-.05,1.59v3.37a3.35,3.35,0,0,1-.83,2.65,3.06,3.06,0,0,1-2.11.7,3.76,3.76,0,0,1-1.93-.48l.26-.8a3.32,3.32,0,0,0,1.71.45c1.08,0,1.87-.56,1.87-2v-.64h0a2.05,2.05,0,0,1-1.84,1,2.59,2.59,0,0,1-2.47-2.83A2.78,2.78,0,0,1,130.8,56a1.92,1.92,0,0,1,1.81,1h0l.05-.87Zm-1.1,2.29a1.77,1.77,0,0,0,0-.48A1.54,1.54,0,0,0,131,56.79c-1,0-1.73.85-1.73,2.2,0,1.14.58,2.08,1.72,2.08A1.53,1.53,0,0,0,132.43,60a1.87,1.87,0,0,0,.08-.57Z"/><path d="M136.42,54.47a.63.63,0,0,1-.68.64.62.62,0,0,1-.63-.64.64.64,0,0,1,.66-.66A.63.63,0,0,1,136.42,54.47Zm-1.18,7.43V56.1h1.06v5.8Z"/><path d="M138.05,57.67c0-.6,0-1.09-.05-1.57h.94l.06,1h0A2.14,2.14,0,0,1,140.94,56c.8,0,2.05.48,2.05,2.47V61.9h-1.06V58.56c0-.94-.34-1.72-1.34-1.72a1.5,1.5,0,0,0-1.41,1.08,1.44,1.44,0,0,0-.08.49V61.9h-1Z"/><path d="M145.3,59.19a1.86,1.86,0,0,0,2,2,3.91,3.91,0,0,0,1.6-.3l.18.75a4.63,4.63,0,0,1-1.93.36,2.69,2.69,0,0,1-2.85-2.92c0-1.76,1-3.13,2.72-3.13a2.45,2.45,0,0,1,2.4,2.73,2.72,2.72,0,0,1,0,.49Zm3.09-.75a1.51,1.51,0,0,0-1.46-1.72,1.74,1.74,0,0,0-1.62,1.72Z"/><path d="M25.22,75.36l-.84,2.54H23.3L26,69.82H27.3l2.76,8.08H29l-.87-2.54Zm2.65-.82-.8-2.32c-.18-.53-.3-1-.42-1.48h0c-.12.48-.25,1-.41,1.47l-.79,2.33Z"/><path d="M35.21,77.69a4,4,0,0,1-1.67.33,2.76,2.76,0,0,1-2.89-3A3,3,0,0,1,33.77,72a3.4,3.4,0,0,1,1.46.3l-.24.81a2.47,2.47,0,0,0-1.22-.27,2.19,2.19,0,0,0,0,4.36,2.9,2.9,0,0,0,1.3-.29Z"/><path d="M40.51,77.69a3.9,3.9,0,0,1-1.66.33,2.76,2.76,0,0,1-2.89-3A2.94,2.94,0,0,1,39.07,72a3.45,3.45,0,0,1,1.47.3l-.24.81a2.51,2.51,0,0,0-1.23-.27,2.19,2.19,0,0,0,0,4.36,2.86,2.86,0,0,0,1.29-.29Z"/><path d="M46.93,75A2.83,2.83,0,0,1,44,78a2.76,2.76,0,0,1-2.78-3A2.83,2.83,0,0,1,44.14,72,2.74,2.74,0,0,1,46.93,75Zm-4.6.06c0,1.27.73,2.23,1.76,2.23s1.76-.94,1.76-2.25c0-1-.49-2.23-1.74-2.23S42.33,73.91,42.33,75Z"/><path d="M53.13,76.32c0,.6,0,1.13,0,1.58h-.93l-.06-1h0A2.16,2.16,0,0,1,50.23,78c-.91,0-2-.5-2-2.54V72.1h1.06v3.21c0,1.1.33,1.85,1.29,1.85a1.52,1.52,0,0,0,1.39-1,1.57,1.57,0,0,0,.1-.54V72.1h1.06Z"/><path d="M54.88,73.67c0-.6,0-1.09-.05-1.57h.94l.06,1h0A2.14,2.14,0,0,1,57.77,72c.8,0,2,.48,2,2.47V77.9h-1V74.56c0-.94-.35-1.72-1.35-1.72A1.5,1.5,0,0,0,56,73.92a1.45,1.45,0,0,0-.07.49V77.9H54.88Z"/><path d="M62.76,70.43V72.1h1.51v.8H62.76V76c0,.72.21,1.13.79,1.13a2.78,2.78,0,0,0,.62-.07l0,.79a2.63,2.63,0,0,1-.93.14,1.45,1.45,0,0,1-1.14-.44,2.15,2.15,0,0,1-.41-1.51V72.9h-.9v-.8h.9V70.71Z"/><path d="M74.86,74.35c-.06-1.13-.14-2.48-.12-3.49h0c-.28,1-.61,2-1,3.07l-1.43,3.92h-.79L70.15,74c-.38-1.13-.7-2.18-.93-3.14h0c0,1-.08,2.36-.15,3.58l-.22,3.46h-1l.56-8.08h1.33l1.38,3.91c.34,1,.61,1.88.82,2.72h0c.21-.81.49-1.7.85-2.72l1.44-3.91h1.33l.51,8.08h-1Z"/><path d="M80.94,77.9l-.08-.73h0a2.14,2.14,0,0,1-1.77.86,1.65,1.65,0,0,1-1.78-1.66c0-1.41,1.25-2.17,3.49-2.16v-.12a1.19,1.19,0,0,0-1.32-1.34,2.84,2.84,0,0,0-1.51.43l-.24-.7A3.63,3.63,0,0,1,79.6,72c1.77,0,2.2,1.21,2.2,2.37v2.17a8.32,8.32,0,0,0,.1,1.39Zm-.15-3c-1.16,0-2.46.18-2.46,1.31a.93.93,0,0,0,1,1,1.45,1.45,0,0,0,1.41-1,1.2,1.2,0,0,0,.06-.33Z"/><path d="M83.51,73.67c0-.6,0-1.09-.05-1.57h.94l.06,1h0A2.14,2.14,0,0,1,86.4,72c.8,0,2,.48,2,2.47V77.9h-1V74.56c0-.94-.35-1.72-1.35-1.72a1.5,1.5,0,0,0-1.41,1.08,1.45,1.45,0,0,0-.07.49V77.9H83.51Z"/><path d="M93.39,77.9l-.09-.73h0a2.16,2.16,0,0,1-1.78.86,1.65,1.65,0,0,1-1.77-1.66c0-1.41,1.24-2.17,3.49-2.16v-.12a1.2,1.2,0,0,0-1.32-1.34,2.81,2.81,0,0,0-1.51.43l-.25-.7A3.63,3.63,0,0,1,92,72c1.78,0,2.21,1.21,2.21,2.37v2.17a8.39,8.39,0,0,0,.09,1.39Zm-.16-3c-1.15,0-2.46.18-2.46,1.31a.93.93,0,0,0,1,1,1.45,1.45,0,0,0,1.4-1,.92.92,0,0,0,.06-.33Z"/><path d="M101,72.1c0,.42,0,.88,0,1.59v3.37a3.35,3.35,0,0,1-.83,2.65,3.06,3.06,0,0,1-2.11.7A3.76,3.76,0,0,1,96,79.93l.26-.8a3.32,3.32,0,0,0,1.71.45c1.08,0,1.87-.56,1.87-2v-.64h0a2.05,2.05,0,0,1-1.84,1,2.59,2.59,0,0,1-2.47-2.83A2.78,2.78,0,0,1,98.15,72,1.92,1.92,0,0,1,100,73h0l0-.87Zm-1.1,2.29a1.77,1.77,0,0,0,0-.48,1.54,1.54,0,0,0-1.48-1.12c-1,0-1.73.85-1.73,2.2,0,1.14.58,2.08,1.72,2.08A1.53,1.53,0,0,0,99.78,76a1.87,1.87,0,0,0,.08-.57Z"/><path d="M103.25,75.19a1.87,1.87,0,0,0,2,2,4,4,0,0,0,1.61-.3l.18.75a4.67,4.67,0,0,1-1.93.36,2.69,2.69,0,0,1-2.86-2.92c0-1.76,1-3.13,2.73-3.13a2.45,2.45,0,0,1,2.39,2.73,4.68,4.68,0,0,1,0,.49Zm3.1-.75a1.51,1.51,0,0,0-1.47-1.72,1.75,1.75,0,0,0-1.62,1.72Z"/><path d="M108.67,73.67c0-.6,0-1.09,0-1.57h.92l0,.93h0A2,2,0,0,1,111.46,72a1.71,1.71,0,0,1,1.64,1.16h0a2.46,2.46,0,0,1,.65-.76,2,2,0,0,1,1.29-.4c.76,0,1.9.5,1.9,2.51V77.9h-1V74.62c0-1.12-.41-1.79-1.26-1.79a1.36,1.36,0,0,0-1.25,1,2,2,0,0,0-.08.53V77.9h-1V74.42c0-.92-.41-1.59-1.21-1.59a1.45,1.45,0,0,0-1.31,1,1.49,1.49,0,0,0-.08.52v3.5h-1Z"/><path d="M119.27,75.19a1.86,1.86,0,0,0,2,2,4,4,0,0,0,1.61-.3l.18.75a4.67,4.67,0,0,1-1.93.36,2.69,2.69,0,0,1-2.86-2.92c0-1.76,1-3.13,2.73-3.13a2.45,2.45,0,0,1,2.39,2.73,4.68,4.68,0,0,1,0,.49Zm3.09-.75a1.49,1.49,0,0,0-1.46-1.72,1.75,1.75,0,0,0-1.62,1.72Z"/><path d="M124.69,73.67c0-.6,0-1.09,0-1.57h.93l.06,1h0A2.13,2.13,0,0,1,127.59,72c.8,0,2,.48,2,2.47V77.9h-1.06V74.56c0-.94-.35-1.72-1.34-1.72a1.5,1.5,0,0,0-1.42,1.08,1.45,1.45,0,0,0-.07.49V77.9h-1.06Z"/><path d="M132.58,70.43V72.1h1.51v.8h-1.51V76c0,.72.2,1.13.79,1.13a2.6,2.6,0,0,0,.61-.07l.05.79a2.73,2.73,0,0,1-.94.14,1.47,1.47,0,0,1-1.14-.44,2.15,2.15,0,0,1-.4-1.51V72.9h-.9v-.8h.9V70.71Z"/><path d="M30.72,90.35c-.06-1.13-.13-2.48-.12-3.49h0c-.27,1-.61,2-1,3.07l-1.42,3.92h-.79L26,90c-.39-1.13-.71-2.18-.94-3.14h0c0,1-.08,2.36-.16,3.58l-.21,3.46h-1l.57-8.08h1.33L27,89.73c.33,1,.61,1.88.81,2.72h0c.2-.81.49-1.7.85-2.72l1.44-3.91h1.33l.5,8.08h-1Z"/><path d="M38.41,92.32c0,.6,0,1.13.05,1.58h-.93l-.06-1h0A2.18,2.18,0,0,1,35.52,94c-.91,0-2-.5-2-2.54V88.1h1.06v3.21c0,1.1.33,1.85,1.29,1.85a1.52,1.52,0,0,0,1.39-1,1.57,1.57,0,0,0,.1-.54V88.1h1Z"/><path d="M40.17,85.39h1V93.9h-1Z"/><path d="M44.27,86.43V88.1h1.51v.8H44.27V92c0,.72.2,1.13.79,1.13a2.6,2.6,0,0,0,.61-.07l0,.79a2.67,2.67,0,0,1-.93.14,1.44,1.44,0,0,1-1.14-.44,2.15,2.15,0,0,1-.41-1.51V88.9h-.9v-.8h.9V86.71Z"/><path d="M48.15,86.47a.66.66,0,0,1-1.31,0,.64.64,0,0,1,.66-.66A.62.62,0,0,1,48.15,86.47ZM47,93.9V88.1H48v5.8Z"/><path d="M52.23,90.27v.78h-3v-.78Z"/><path d="M53.46,90c0-.74,0-1.34,0-1.89h.94l0,1h0A2.28,2.28,0,0,1,56.5,88c1.4,0,2.46,1.18,2.46,3C59,93,57.69,94,56.32,94a2,2,0,0,1-1.79-.91h0v3.16h-1Zm1,1.55a1.88,1.88,0,0,0,.05.43,1.63,1.63,0,0,0,1.58,1.24c1.11,0,1.76-.91,1.76-2.25,0-1.16-.61-2.15-1.73-2.15a1.67,1.67,0,0,0-1.59,1.3,1.55,1.55,0,0,0-.07.43Z"/><path d="M60.29,85.39h1.06V93.9H60.29Z"/><path d="M66.34,93.9l-.09-.73h0a2.16,2.16,0,0,1-1.78.86,1.65,1.65,0,0,1-1.77-1.66c0-1.41,1.24-2.17,3.49-2.16v-.12a1.19,1.19,0,0,0-1.32-1.34,2.84,2.84,0,0,0-1.51.43l-.24-.7A3.6,3.6,0,0,1,65,88c1.78,0,2.21,1.21,2.21,2.37v2.17a7.38,7.38,0,0,0,.1,1.39Zm-.16-3c-1.15,0-2.46.18-2.46,1.31a.93.93,0,0,0,1,1,1.45,1.45,0,0,0,1.4-1,.92.92,0,0,0,.06-.33Z"/><path d="M70.13,86.43V88.1h1.51v.8H70.13V92c0,.72.2,1.13.79,1.13a2.6,2.6,0,0,0,.61-.07l0,.79a2.67,2.67,0,0,1-.93.14,1.44,1.44,0,0,1-1.14-.44,2.15,2.15,0,0,1-.41-1.51V88.9h-.9v-.8h.9V86.71Z"/><path d="M72.94,93.9v-5h-.82v-.8h.82v-.28a2.76,2.76,0,0,1,.67-2A2,2,0,0,1,75,85.25a2.46,2.46,0,0,1,.89.17l-.14.82a1.58,1.58,0,0,0-.67-.13c-.9,0-1.13.79-1.13,1.68v.31h1.41v.8H74v5Z"/><path d="M81.43,91A2.83,2.83,0,0,1,78.54,94a2.76,2.76,0,0,1-2.78-3A2.83,2.83,0,0,1,78.64,88,2.75,2.75,0,0,1,81.43,91Zm-4.6.06c0,1.27.73,2.23,1.76,2.23s1.76-.94,1.76-2.25c0-1-.49-2.23-1.74-2.23S76.83,89.91,76.83,91Z"/><path d="M82.77,89.91c0-.69,0-1.27,0-1.81h.92l0,1.14h0A1.74,1.74,0,0,1,85.33,88a1.32,1.32,0,0,1,.3,0v1a1.23,1.23,0,0,0-.36,0,1.47,1.47,0,0,0-1.41,1.36,2.38,2.38,0,0,0,0,.49V93.9h-1Z"/><path d="M86.74,89.67c0-.6,0-1.09,0-1.57h.92l0,.93h0A2,2,0,0,1,89.52,88a1.71,1.71,0,0,1,1.64,1.16h0a2.46,2.46,0,0,1,.65-.76,2,2,0,0,1,1.28-.4c.77,0,1.91.5,1.91,2.51V93.9H94V90.62c0-1.12-.4-1.79-1.25-1.79a1.36,1.36,0,0,0-1.25,1,1.63,1.63,0,0,0-.09.53V93.9h-1V90.42c0-.92-.41-1.59-1.21-1.59a1.45,1.45,0,0,0-1.31,1,1.49,1.49,0,0,0-.08.52v3.5h-1Z"/><path d="M103.51,90.11h-3.14V93h3.5v.87H99.33V85.82h4.36v.87h-3.32v2.56h3.14Z"/><path d="M105.19,89.67c0-.6,0-1.09,0-1.57h.93l.06,1h0A2.12,2.12,0,0,1,108.08,88c.81,0,2.06.48,2.06,2.47V93.9h-1.06V90.56c0-.94-.35-1.72-1.34-1.72a1.5,1.5,0,0,0-1.42,1.08,1.45,1.45,0,0,0-.07.49V93.9h-1.06Z"/><path d="M116.86,88.1c0,.42,0,.88,0,1.59v3.37a3.35,3.35,0,0,1-.83,2.65,3.06,3.06,0,0,1-2.11.7,3.76,3.76,0,0,1-1.93-.48l.26-.8a3.31,3.31,0,0,0,1.7.45c1.08,0,1.88-.56,1.88-2v-.64h0a2.07,2.07,0,0,1-1.85,1,2.6,2.6,0,0,1-2.47-2.83A2.79,2.79,0,0,1,114.05,88a1.92,1.92,0,0,1,1.81,1h0l.05-.87Zm-1.1,2.29a1.44,1.44,0,0,0-.06-.48,1.52,1.52,0,0,0-1.47-1.12c-1,0-1.73.85-1.73,2.2,0,1.14.58,2.08,1.72,2.08A1.54,1.54,0,0,0,115.68,92a1.87,1.87,0,0,0,.08-.57Z"/><path d="M121.78,93.9l-.09-.73h0a2.16,2.16,0,0,1-1.78.86,1.65,1.65,0,0,1-1.77-1.66c0-1.41,1.24-2.17,3.49-2.16v-.12a1.2,1.2,0,0,0-1.32-1.34,2.81,2.81,0,0,0-1.51.43l-.24-.7a3.6,3.6,0,0,1,1.9-.51c1.78,0,2.21,1.21,2.21,2.37v2.17a7.38,7.38,0,0,0,.1,1.39Zm-.16-3c-1.15,0-2.46.18-2.46,1.31a.93.93,0,0,0,1,1,1.45,1.45,0,0,0,1.4-1,.92.92,0,0,0,.06-.33Z"/><path d="M129.35,88.1c0,.42,0,.88,0,1.59v3.37a3.31,3.31,0,0,1-.83,2.65,3.06,3.06,0,0,1-2.11.7,3.78,3.78,0,0,1-1.93-.48l.26-.8a3.32,3.32,0,0,0,1.71.45c1.08,0,1.87-.56,1.87-2v-.64h0a2.05,2.05,0,0,1-1.84,1,2.59,2.59,0,0,1-2.47-2.83A2.78,2.78,0,0,1,126.54,88a1.92,1.92,0,0,1,1.81,1h0l0-.87Zm-1.09,2.29a1.75,1.75,0,0,0-.06-.48,1.54,1.54,0,0,0-1.48-1.12c-1,0-1.73.85-1.73,2.2,0,1.14.58,2.08,1.72,2.08A1.53,1.53,0,0,0,128.17,92a1.88,1.88,0,0,0,.09-.57Z"/><path d="M131.64,91.19a1.87,1.87,0,0,0,2,2,4,4,0,0,0,1.61-.3l.18.75a4.67,4.67,0,0,1-1.93.36,2.69,2.69,0,0,1-2.86-2.92c0-1.76,1-3.13,2.73-3.13a2.46,2.46,0,0,1,2.4,2.73,4.15,4.15,0,0,1,0,.49Zm3.1-.75a1.51,1.51,0,0,0-1.47-1.72,1.76,1.76,0,0,0-1.62,1.72Z"/><path d="M137.07,89.67c0-.6,0-1.09,0-1.57h.92L138,89h0A2,2,0,0,1,139.85,88a1.71,1.71,0,0,1,1.64,1.16h0a2.44,2.44,0,0,1,.64-.76,2,2,0,0,1,1.29-.4c.76,0,1.9.5,1.9,2.51V93.9h-1V90.62c0-1.12-.41-1.79-1.26-1.79a1.34,1.34,0,0,0-1.24,1,1.63,1.63,0,0,0-.09.53V93.9h-1V90.42c0-.92-.41-1.59-1.21-1.59a1.45,1.45,0,0,0-1.31,1,1.49,1.49,0,0,0-.08.52v3.5h-1Z"/><path d="M147.66,91.19a1.87,1.87,0,0,0,2,2,4,4,0,0,0,1.61-.3l.18.75a4.67,4.67,0,0,1-1.93.36,2.69,2.69,0,0,1-2.86-2.92c0-1.76,1-3.13,2.73-3.13a2.46,2.46,0,0,1,2.4,2.73,4.15,4.15,0,0,1,0,.49Zm3.1-.75a1.51,1.51,0,0,0-1.47-1.72,1.75,1.75,0,0,0-1.62,1.72Z"/><path d="M153.09,89.67c0-.6,0-1.09-.05-1.57H154l.06,1h0A2.13,2.13,0,0,1,156,88c.8,0,2.05.48,2.05,2.47V93.9H157V90.56c0-.94-.35-1.72-1.34-1.72a1.5,1.5,0,0,0-1.42,1.08,1.45,1.45,0,0,0-.07.49V93.9h-1Z"/><path d="M161,86.43V88.1h1.51v.8H161V92c0,.72.2,1.13.79,1.13a2.6,2.6,0,0,0,.61-.07l0,.79a2.69,2.69,0,0,1-.94.14,1.47,1.47,0,0,1-1.14-.44,2.2,2.2,0,0,1-.4-1.51V88.9H159v-.8h.9V86.71Z"/><path d="M13.8,61.42l3.51-3.51a.23.23,0,0,0,.07-.17.24.24,0,0,0-.07-.18L13.8,54.05a.25.25,0,0,0-.18-.08.25.25,0,0,0-.17.08l-.38.37a.26.26,0,0,0-.07.18.23.23,0,0,0,.07.17l3,3-3,3a.23.23,0,0,0-.07.17.24.24,0,0,0,.07.18l.38.37a.25.25,0,0,0,.17.08A.25.25,0,0,0,13.8,61.42Z"/><path d="M13.8,77.63l3.51-3.51a.24.24,0,0,0,.07-.18.23.23,0,0,0-.07-.17L13.8,70.26a.25.25,0,0,0-.18-.08.25.25,0,0,0-.17.08l-.38.37a.24.24,0,0,0-.07.18.23.23,0,0,0,.07.17l3,3-3,3a.24.24,0,0,0,0,.34l.38.38a.25.25,0,0,0,.17.08A.25.25,0,0,0,13.8,77.63Z"/><path d="M13.8,94.15l3.51-3.52a.23.23,0,0,0,.07-.17.22.22,0,0,0-.07-.17L13.8,86.77a.24.24,0,0,0-.18-.07.23.23,0,0,0-.17.07l-.38.38a.23.23,0,0,0-.07.17.24.24,0,0,0,.07.18l3,3-3,3a.24.24,0,0,0-.07.18.23.23,0,0,0,.07.17l.38.38a.23.23,0,0,0,.17.07A.24.24,0,0,0,13.8,94.15Z"/><path d="M23.91,223.63a10.66,10.66,0,0,1,2-.17,3.28,3.28,0,0,1,2.34.66,2,2,0,0,1,.63,1.54,2.13,2.13,0,0,1-1.52,2.06v0a2,2,0,0,1,1.19,1.64,13.36,13.36,0,0,0,.62,2.21H28.09a10.51,10.51,0,0,1-.54-1.93c-.24-1.11-.67-1.53-1.62-1.57H25v3.5h-1Zm1,3.68H26c1.11,0,1.82-.61,1.82-1.53s-.75-1.5-1.86-1.52a4.15,4.15,0,0,0-1,.1Z"/><path d="M35.63,228.65a2.84,2.84,0,0,1-2.89,3.09,2.76,2.76,0,0,1-2.78-3,2.83,2.83,0,0,1,2.87-3.08A2.75,2.75,0,0,1,35.63,228.65Zm-4.61.06c0,1.28.74,2.24,1.77,2.24s1.76-.95,1.76-2.26c0-1-.49-2.23-1.74-2.23S31,227.61,31,228.71Z"/><path d="M37.26,225.8l1.28,3.43c.13.38.27.84.37,1.19h0c.11-.35.23-.79.37-1.21l1.15-3.41h1.12L40,229.94c-.76,2-1.27,3-2,3.63a2.77,2.77,0,0,1-1.3.68l-.26-.88a2.82,2.82,0,0,0,.92-.52,3.17,3.17,0,0,0,.89-1.17.73.73,0,0,0,.08-.26.87.87,0,0,0-.07-.27l-2.15-5.35Z"/><path d="M45.7,231.6l-.09-.73h0a2.17,2.17,0,0,1-1.78.87A1.65,1.65,0,0,1,42,230.07c0-1.4,1.25-2.17,3.49-2.16v-.12a1.19,1.19,0,0,0-1.32-1.34,2.93,2.93,0,0,0-1.51.43l-.24-.7a3.6,3.6,0,0,1,1.9-.51c1.78,0,2.21,1.21,2.21,2.37v2.17a8.24,8.24,0,0,0,.1,1.39Zm-.16-3c-1.15,0-2.46.18-2.46,1.31a.94.94,0,0,0,1,1,1.45,1.45,0,0,0,1.4-1,1,1,0,0,0,.06-.34Z"/><path d="M48.27,223.09h1v8.51h-1Z"/><path d="M52.37,224.13v1.67h1.51v.8H52.37v3.13c0,.72.2,1.13.79,1.13a2.15,2.15,0,0,0,.61-.07l0,.79a2.67,2.67,0,0,1-.93.14,1.45,1.45,0,0,1-1.14-.44,2.15,2.15,0,0,1-.41-1.51V226.6h-.9v-.8h.9v-1.39Z"/><path d="M55.56,225.8l1.27,3.43c.14.38.28.84.38,1.19h0c.11-.35.23-.79.37-1.21l1.15-3.41h1.12l-1.58,4.14c-.76,2-1.28,3-2,3.63a2.7,2.7,0,0,1-1.29.68l-.26-.88a2.82,2.82,0,0,0,.92-.52,3.17,3.17,0,0,0,.89-1.17,1,1,0,0,0,.08-.26.87.87,0,0,0-.07-.27l-2.15-5.35Z"/><path d="M70.22,228.05c-.06-1.12-.13-2.48-.12-3.49h0c-.28.95-.61,2-1,3.07l-1.43,3.93h-.79l-1.31-3.85c-.38-1.14-.71-2.19-.93-3.15h0c0,1-.08,2.37-.15,3.58l-.22,3.46h-1l.56-8.08h1.33l1.38,3.91c.34,1,.61,1.88.81,2.72h0c.21-.81.49-1.7.85-2.72l1.44-3.91h1.33l.51,8.08h-1Z"/><path d="M76.31,231.6l-.08-.73h0a2.16,2.16,0,0,1-1.78.87,1.65,1.65,0,0,1-1.77-1.67c0-1.4,1.25-2.17,3.49-2.16v-.12a1.19,1.19,0,0,0-1.32-1.34,2.93,2.93,0,0,0-1.51.43l-.24-.7a3.61,3.61,0,0,1,1.91-.51c1.77,0,2.2,1.21,2.2,2.37v2.17a8.24,8.24,0,0,0,.1,1.39Zm-.16-3c-1.15,0-2.46.18-2.46,1.31a.94.94,0,0,0,1,1,1.43,1.43,0,0,0,1.4-1,1,1,0,0,0,.06-.34Z"/><path d="M78.88,227.37c0-.6,0-1.09,0-1.57h.94l.06,1h0a2.14,2.14,0,0,1,1.92-1.09c.8,0,2,.48,2,2.47v3.46H82.76v-3.34c0-.94-.34-1.72-1.34-1.72A1.51,1.51,0,0,0,80,227.62a1.44,1.44,0,0,0-.08.49v3.49H78.88Z"/><path d="M88.75,231.6l-.08-.73h0a2.14,2.14,0,0,1-1.77.87,1.66,1.66,0,0,1-1.78-1.67c0-1.4,1.25-2.17,3.49-2.16v-.12a1.19,1.19,0,0,0-1.32-1.34,2.93,2.93,0,0,0-1.51.43l-.24-.7a3.63,3.63,0,0,1,1.91-.51c1.78,0,2.21,1.21,2.21,2.37v2.17a8.32,8.32,0,0,0,.09,1.39Zm-.15-3c-1.15,0-2.46.18-2.46,1.31a.93.93,0,0,0,1,1,1.45,1.45,0,0,0,1.41-1,1.35,1.35,0,0,0,.06-.34Z"/><path d="M96.32,225.8c0,.42,0,.89,0,1.6v3.37a3.36,3.36,0,0,1-.83,2.65,3.11,3.11,0,0,1-2.11.69,3.76,3.76,0,0,1-1.93-.48l.26-.8a3.25,3.25,0,0,0,1.7.45c1.08,0,1.88-.56,1.88-2v-.65h0a2.07,2.07,0,0,1-1.85,1,2.6,2.6,0,0,1-2.47-2.83,2.79,2.79,0,0,1,2.62-3.08,1.92,1.92,0,0,1,1.81,1h0l.05-.88Zm-1.09,2.29a1.44,1.44,0,0,0-.06-.48,1.51,1.51,0,0,0-1.47-1.11c-1,0-1.73.85-1.73,2.19,0,1.14.58,2.09,1.72,2.09a1.55,1.55,0,0,0,1.46-1.08,1.87,1.87,0,0,0,.08-.57Z"/><path d="M98.62,228.89a1.86,1.86,0,0,0,2,2,3.8,3.8,0,0,0,1.61-.3l.18.76a4.88,4.88,0,0,1-1.93.35,2.69,2.69,0,0,1-2.86-2.92c0-1.75,1-3.13,2.72-3.13a2.45,2.45,0,0,1,2.4,2.73,4.49,4.49,0,0,1,0,.49Zm3.09-.75a1.5,1.5,0,0,0-1.46-1.72,1.76,1.76,0,0,0-1.62,1.72Z"/><path d="M104,227.37c0-.6,0-1.09,0-1.57h.92l0,.94h0a2,2,0,0,1,1.83-1.07,1.71,1.71,0,0,1,1.64,1.16h0a2.42,2.42,0,0,1,.65-.75,2,2,0,0,1,1.28-.41c.77,0,1.91.5,1.91,2.52v3.41h-1v-3.28c0-1.12-.41-1.79-1.26-1.79a1.38,1.38,0,0,0-1.25,1,1.69,1.69,0,0,0-.08.53v3.58h-1v-3.47c0-.93-.41-1.6-1.21-1.6a1.45,1.45,0,0,0-1.31,1.06,1.4,1.4,0,0,0-.09.51v3.5h-1Z"/><path d="M114.64,228.89a1.86,1.86,0,0,0,2,2,3.83,3.83,0,0,0,1.61-.3l.18.76a4.92,4.92,0,0,1-1.93.35,2.69,2.69,0,0,1-2.86-2.92c0-1.75,1-3.13,2.72-3.13a2.45,2.45,0,0,1,2.4,2.73,4.49,4.49,0,0,1,0,.49Zm3.09-.75a1.5,1.5,0,0,0-1.46-1.72,1.75,1.75,0,0,0-1.62,1.72Z"/><path d="M120.06,227.37c0-.6,0-1.09,0-1.57H121l.06,1h0a2.14,2.14,0,0,1,1.92-1.09c.81,0,2,.48,2,2.47v3.46h-1v-3.34c0-.94-.35-1.72-1.34-1.72a1.51,1.51,0,0,0-1.42,1.08,1.45,1.45,0,0,0-.07.49v3.49h-1.06Z"/><path d="M128,224.13v1.67h1.51v.8H128v3.13c0,.72.2,1.13.79,1.13a2.21,2.21,0,0,0,.61-.07l.05.79a2.73,2.73,0,0,1-.94.14,1.45,1.45,0,0,1-1.14-.44,2.15,2.15,0,0,1-.41-1.51V226.6H126v-.8h.89v-1.39Z"/><path d="M23.91,239.63a14.33,14.33,0,0,1,2.22-.17,4.62,4.62,0,0,1,3.27,1,3.71,3.71,0,0,1,1.14,2.9,4.28,4.28,0,0,1-1.16,3.14,5,5,0,0,1-3.58,1.17,16.72,16.72,0,0,1-1.89-.1Zm1,7.15a6.45,6.45,0,0,0,1.06.06,3.11,3.11,0,0,0,3.44-3.43c0-1.91-1.07-3.12-3.28-3.12a5.89,5.89,0,0,0-1.22.11Z"/><path d="M33,240.17a.62.62,0,0,1-.67.65.63.63,0,0,1-.64-.65.65.65,0,0,1,.66-.66A.63.63,0,0,1,33,240.17Zm-1.18,7.43v-5.8h1.06v5.8Z"/><path d="M39.67,241.8c0,.42-.05.89-.05,1.6v3.37a3.36,3.36,0,0,1-.82,2.65,3.12,3.12,0,0,1-2.11.69,3.73,3.73,0,0,1-1.93-.48l.26-.8a3.25,3.25,0,0,0,1.7.45c1.08,0,1.87-.56,1.87-2v-.65h0a2.07,2.07,0,0,1-1.85,1,2.59,2.59,0,0,1-2.47-2.83,2.79,2.79,0,0,1,2.62-3.08,1.94,1.94,0,0,1,1.81,1h0l0-.88Zm-1.09,2.29a1.44,1.44,0,0,0-.06-.48,1.52,1.52,0,0,0-1.47-1.11c-1,0-1.73.85-1.73,2.19,0,1.14.57,2.09,1.71,2.09a1.55,1.55,0,0,0,1.47-1.08,1.87,1.87,0,0,0,.08-.57Z"/><path d="M42.48,240.17a.62.62,0,0,1-.67.65.63.63,0,0,1-.63-.65.64.64,0,0,1,.66-.66A.62.62,0,0,1,42.48,240.17Zm-1.17,7.43v-5.8h1v5.8Z"/><path d="M45.39,240.13v1.67H46.9v.8H45.39v3.13c0,.72.2,1.13.79,1.13a2.21,2.21,0,0,0,.61-.07l.05.79a2.73,2.73,0,0,1-.94.14,1.47,1.47,0,0,1-1.14-.44,2.15,2.15,0,0,1-.4-1.51V242.6h-.9v-.8h.9v-1.39Z"/><path d="M51.3,247.6l-.08-.73h0a2.15,2.15,0,0,1-1.77.87,1.66,1.66,0,0,1-1.78-1.67c0-1.4,1.25-2.17,3.49-2.16v-.12a1.19,1.19,0,0,0-1.32-1.34,2.93,2.93,0,0,0-1.51.43l-.24-.7a3.63,3.63,0,0,1,1.91-.51c1.77,0,2.21,1.21,2.21,2.37v2.17a8.32,8.32,0,0,0,.09,1.39Zm-.15-3c-1.16,0-2.46.18-2.46,1.31a.93.93,0,0,0,1,1,1.45,1.45,0,0,0,1.41-1,1.35,1.35,0,0,0,.06-.34Z"/><path d="M53.87,239.09h1.06v8.51H53.87Z"/><path d="M59.28,239.63a10.77,10.77,0,0,1,2-.17,3.31,3.31,0,0,1,2.34.66,2,2,0,0,1,.63,1.54,2.13,2.13,0,0,1-1.52,2.06v0a2,2,0,0,1,1.18,1.64,13,13,0,0,0,.63,2.21H63.47a10.51,10.51,0,0,1-.54-1.93c-.24-1.11-.67-1.53-1.62-1.57h-1v3.5h-1Zm1,3.68h1.06c1.12,0,1.83-.61,1.83-1.53s-.76-1.5-1.86-1.52a4.09,4.09,0,0,0-1,.1Z"/><path d="M67,240.17a.62.62,0,0,1-.67.65.63.63,0,0,1-.64-.65.65.65,0,0,1,.66-.66A.63.63,0,0,1,67,240.17Zm-1.18,7.43v-5.8h1.06v5.8Z"/><path d="M73.63,241.8c0,.42,0,.89,0,1.6v3.37a3.36,3.36,0,0,1-.82,2.65,3.12,3.12,0,0,1-2.11.69,3.73,3.73,0,0,1-1.93-.48l.26-.8a3.25,3.25,0,0,0,1.7.45c1.08,0,1.87-.56,1.87-2v-.65h0a2.07,2.07,0,0,1-1.85,1,2.59,2.59,0,0,1-2.47-2.83,2.79,2.79,0,0,1,2.62-3.08,1.94,1.94,0,0,1,1.81,1h0l0-.88Zm-1.09,2.29a1.44,1.44,0,0,0-.06-.48A1.52,1.52,0,0,0,71,242.5c-1,0-1.73.85-1.73,2.19,0,1.14.57,2.09,1.71,2.09a1.55,1.55,0,0,0,1.47-1.08,1.87,1.87,0,0,0,.08-.57Z"/><path d="M75.34,239.09H76.4v3.62h0a2,2,0,0,1,.75-.74,2.22,2.22,0,0,1,1.08-.3c.78,0,2,.48,2,2.48v3.45h-1v-3.33c0-.94-.35-1.73-1.35-1.73a1.51,1.51,0,0,0-1.41,1.06,1.26,1.26,0,0,0-.07.5v3.5H75.34Z"/><path d="M83.22,240.13v1.67h1.51v.8H83.22v3.13c0,.72.21,1.13.79,1.13a2.29,2.29,0,0,0,.62-.07l0,.79a2.63,2.63,0,0,1-.93.14,1.45,1.45,0,0,1-1.14-.44,2.15,2.15,0,0,1-.41-1.51V242.6h-.9v-.8h.9v-1.39Z"/><path d="M85.78,246.53a2.79,2.79,0,0,0,1.39.42c.77,0,1.13-.39,1.13-.87s-.3-.78-1.08-1.07c-1-.37-1.54-.94-1.54-1.64a1.8,1.8,0,0,1,2-1.7,2.9,2.9,0,0,1,1.42.36l-.26.76a2.32,2.32,0,0,0-1.19-.33c-.62,0-1,.36-1,.79s.35.7,1.1,1c1,.39,1.53.89,1.53,1.76s-.79,1.73-2.17,1.73a3.27,3.27,0,0,1-1.63-.39Z"/><path d="M100.07,244.05c-.06-1.12-.13-2.48-.12-3.49h0c-.27.95-.61,2-1,3.07l-1.43,3.93h-.79l-1.3-3.85c-.39-1.14-.71-2.19-.94-3.15h0c0,1-.09,2.37-.16,3.58L94,247.6H93l.56-8.08h1.33l1.38,3.91c.34,1,.61,1.88.82,2.72h0c.21-.81.5-1.7.86-2.72l1.44-3.91h1.33l.5,8.08h-1Z"/><path d="M106.15,247.6l-.08-.73h0a2.14,2.14,0,0,1-1.77.87,1.66,1.66,0,0,1-1.78-1.67c0-1.4,1.25-2.17,3.49-2.16v-.12a1.19,1.19,0,0,0-1.32-1.34,2.93,2.93,0,0,0-1.51.43l-.24-.7a3.63,3.63,0,0,1,1.91-.51c1.77,0,2.21,1.21,2.21,2.37v2.17a8.32,8.32,0,0,0,.09,1.39Zm-.15-3c-1.15,0-2.46.18-2.46,1.31a.93.93,0,0,0,1,1,1.45,1.45,0,0,0,1.41-1,1.35,1.35,0,0,0,.06-.34Z"/><path d="M108.72,243.37c0-.6,0-1.09,0-1.57h.94l.06,1h0a2.14,2.14,0,0,1,1.92-1.09c.81,0,2,.48,2,2.47v3.46h-1v-3.34c0-.94-.35-1.72-1.35-1.72a1.51,1.51,0,0,0-1.41,1.08,1.45,1.45,0,0,0-.07.49v3.49h-1.06Z"/><path d="M118.6,247.6l-.09-.73h0a2.17,2.17,0,0,1-1.78.87,1.65,1.65,0,0,1-1.77-1.67c0-1.4,1.24-2.17,3.49-2.16v-.12a1.2,1.2,0,0,0-1.32-1.34,2.9,2.9,0,0,0-1.51.43l-.24-.7a3.6,3.6,0,0,1,1.9-.51c1.78,0,2.21,1.21,2.21,2.37v2.17a7.31,7.31,0,0,0,.1,1.39Zm-.16-3c-1.15,0-2.46.18-2.46,1.31a.94.94,0,0,0,1,1,1.45,1.45,0,0,0,1.4-1,1,1,0,0,0,.06-.34Z"/><path d="M126.17,241.8c0,.42,0,.89,0,1.6v3.37a3.32,3.32,0,0,1-.83,2.65,3.11,3.11,0,0,1-2.11.69,3.78,3.78,0,0,1-1.93-.48l.26-.8a3.32,3.32,0,0,0,1.71.45c1.08,0,1.87-.56,1.87-2v-.65h0a2.05,2.05,0,0,1-1.84,1,2.59,2.59,0,0,1-2.47-2.83,2.78,2.78,0,0,1,2.61-3.08,1.92,1.92,0,0,1,1.81,1h0l0-.88Zm-1.09,2.29a1.75,1.75,0,0,0-.06-.48,1.53,1.53,0,0,0-1.48-1.11c-1,0-1.73.85-1.73,2.19,0,1.14.58,2.09,1.72,2.09A1.54,1.54,0,0,0,125,245.7a1.88,1.88,0,0,0,.09-.57Z"/><path d="M128.46,244.89a1.87,1.87,0,0,0,2,2,3.8,3.8,0,0,0,1.61-.3l.18.76a4.88,4.88,0,0,1-1.93.35,2.69,2.69,0,0,1-2.86-2.92c0-1.75,1-3.13,2.73-3.13a2.46,2.46,0,0,1,2.4,2.73,4,4,0,0,1,0,.49Zm3.1-.75a1.51,1.51,0,0,0-1.47-1.72,1.77,1.77,0,0,0-1.62,1.72Z"/><path d="M133.89,243.37c0-.6,0-1.09,0-1.57h.92l.05.94h0a2,2,0,0,1,1.82-1.07,1.71,1.71,0,0,1,1.64,1.16h0a2.39,2.39,0,0,1,.64-.75,2,2,0,0,1,1.29-.41c.76,0,1.9.5,1.9,2.52v3.41h-1v-3.28c0-1.12-.41-1.79-1.26-1.79a1.37,1.37,0,0,0-1.24,1,1.68,1.68,0,0,0-.09.53v3.58h-1v-3.47c0-.93-.41-1.6-1.21-1.6a1.45,1.45,0,0,0-1.31,1.06,1.4,1.4,0,0,0-.08.51v3.5h-1Z"/><path d="M144.48,244.89a1.87,1.87,0,0,0,2,2,3.8,3.8,0,0,0,1.61-.3l.18.76a4.88,4.88,0,0,1-1.93.35,2.69,2.69,0,0,1-2.86-2.92c0-1.75,1-3.13,2.73-3.13a2.46,2.46,0,0,1,2.4,2.73,4,4,0,0,1,0,.49Zm3.1-.75a1.51,1.51,0,0,0-1.47-1.72,1.77,1.77,0,0,0-1.62,1.72Z"/><path d="M149.91,243.37c0-.6,0-1.09,0-1.57h.93l.06,1h0a2.14,2.14,0,0,1,1.92-1.09c.8,0,2,.48,2,2.47v3.46h-1.06v-3.34c0-.94-.35-1.72-1.34-1.72a1.51,1.51,0,0,0-1.42,1.08,1.75,1.75,0,0,0-.07.49v3.49h-1.05Z"/><path d="M157.79,240.13v1.67h1.51v.8h-1.51v3.13c0,.72.2,1.13.79,1.13a2.15,2.15,0,0,0,.61-.07l.05.79a2.67,2.67,0,0,1-.93.14,1.44,1.44,0,0,1-1.14-.44,2.15,2.15,0,0,1-.41-1.51V242.6h-.9v-.8h.9v-1.39Z"/><path d="M25,255.52v8.08h-1v-8.08Z"/><path d="M28.31,256.41H25.85v-.89h6v.89H29.37v7.19H28.31Z"/><path d="M35.14,262.33a3.68,3.68,0,0,0,1.87.53c1.07,0,1.69-.56,1.69-1.38s-.43-1.19-1.52-1.61c-1.32-.46-2.14-1.15-2.14-2.29a2.34,2.34,0,0,1,2.62-2.19,3.6,3.6,0,0,1,1.79.4l-.29.85a3.19,3.19,0,0,0-1.54-.39c-1.1,0-1.52.66-1.52,1.21,0,.76.49,1.13,1.61,1.56,1.36.53,2.06,1.19,2.06,2.38s-.92,2.32-2.83,2.32a4.14,4.14,0,0,1-2.06-.51Z"/><path d="M41.82,260.89a1.87,1.87,0,0,0,2,2,3.76,3.76,0,0,0,1.61-.3l.18.76a4.88,4.88,0,0,1-1.93.35,2.69,2.69,0,0,1-2.85-2.92c0-1.75,1-3.13,2.72-3.13a2.46,2.46,0,0,1,2.4,2.73,4,4,0,0,1,0,.49Zm3.1-.75a1.51,1.51,0,0,0-1.47-1.72,1.75,1.75,0,0,0-1.61,1.72Z"/><path d="M51.38,263.39a3.9,3.9,0,0,1-1.66.33,2.75,2.75,0,0,1-2.89-3A3,3,0,0,1,50,257.68a3.6,3.6,0,0,1,1.46.3l-.24.81a2.5,2.5,0,0,0-1.22-.27,2.18,2.18,0,0,0,0,4.36,3.07,3.07,0,0,0,1.3-.28Z"/><path d="M57.48,262c0,.6,0,1.13.05,1.58h-.94l-.06-.94h0a2.21,2.21,0,0,1-1.92,1.08c-.91,0-2-.51-2-2.55V257.8h1V261c0,1.11.34,1.85,1.3,1.85a1.47,1.47,0,0,0,1.48-1.5V257.8h1.06Z"/><path d="M59.24,259.61c0-.68,0-1.27-.05-1.81h.92l0,1.14h0a1.75,1.75,0,0,1,1.61-1.27,1.32,1.32,0,0,1,.3,0v1a1.79,1.79,0,0,0-.36,0A1.48,1.48,0,0,0,60.33,260a2.38,2.38,0,0,0,0,.49v3.09h-1Z"/><path d="M64.38,256.17a.65.65,0,1,1-1.3,0,.64.64,0,0,1,.66-.66A.62.62,0,0,1,64.38,256.17Zm-1.17,7.43v-5.8h1.05v5.8Z"/><path d="M67.29,256.13v1.67H68.8v.8H67.29v3.13c0,.72.2,1.13.79,1.13a2.21,2.21,0,0,0,.61-.07l0,.79a2.73,2.73,0,0,1-.94.14,1.45,1.45,0,0,1-1.14-.44,2.15,2.15,0,0,1-.4-1.51V258.6h-.9v-.8h.9v-1.39Z"/><path d="M70.48,257.8l1.27,3.43c.13.38.28.84.37,1.19h0c.1-.35.22-.79.37-1.21l1.15-3.41h1.11l-1.58,4.14c-.75,2-1.27,3-2,3.63a2.75,2.75,0,0,1-1.29.68l-.27-.88a2.72,2.72,0,0,0,.92-.52,3.17,3.17,0,0,0,.89-1.17.8.8,0,0,0,.09-.26,1,1,0,0,0-.08-.27l-2.14-5.35Z"/><path d="M23.91,271.63a9.65,9.65,0,0,1,1.9-.17,3.31,3.31,0,0,1,2.22.59,1.7,1.7,0,0,1,.68,1.43,1.92,1.92,0,0,1-1.37,1.77v0a2.07,2.07,0,0,1,1.67,2,2.16,2.16,0,0,1-.69,1.62,4,4,0,0,1-2.79.76,11.75,11.75,0,0,1-1.62-.1Zm1,3.31h.95c1.1,0,1.75-.58,1.75-1.36,0-.94-.72-1.32-1.78-1.32a4.08,4.08,0,0,0-.92.08Zm0,3.87a5.06,5.06,0,0,0,.88.05c1.08,0,2.07-.39,2.07-1.57s-.95-1.56-2.09-1.56H25Z"/><path d="M31.55,272.17a.62.62,0,0,1-.67.65.63.63,0,0,1-.64-.65.65.65,0,0,1,.66-.66A.63.63,0,0,1,31.55,272.17Zm-1.17,7.43v-5.8h1.05v5.8Z"/><path d="M33.18,271.09h1.06v8.51H33.18Z"/><path d="M36,271.09h1v8.51H36Z"/><path d="M40,272.17a.62.62,0,0,1-.67.65.63.63,0,0,1-.63-.65.64.64,0,0,1,.66-.66A.62.62,0,0,1,40,272.17Zm-1.17,7.43v-5.8h1v5.8Z"/><path d="M41.66,275.37c0-.6,0-1.09,0-1.57h.93l.06,1h0a2.14,2.14,0,0,1,1.92-1.09c.8,0,2.05.48,2.05,2.47v3.46H45.54v-3.34c0-.94-.35-1.72-1.34-1.72a1.51,1.51,0,0,0-1.42,1.08,1.75,1.75,0,0,0-.07.49v3.49H41.66Z"/><path d="M53.32,273.8c0,.42,0,.89,0,1.6v3.37a3.32,3.32,0,0,1-.83,2.65,3.11,3.11,0,0,1-2.11.69,3.76,3.76,0,0,1-1.93-.48l.26-.8a3.32,3.32,0,0,0,1.71.45c1.08,0,1.87-.56,1.87-2v-.65h0a2.05,2.05,0,0,1-1.84,1,2.59,2.59,0,0,1-2.47-2.83,2.78,2.78,0,0,1,2.61-3.08,1.92,1.92,0,0,1,1.81,1h0l0-.88Zm-1.09,2.29a1.75,1.75,0,0,0-.06-.48,1.53,1.53,0,0,0-1.48-1.11c-1,0-1.73.85-1.73,2.19,0,1.14.58,2.09,1.72,2.09a1.54,1.54,0,0,0,1.46-1.08,1.88,1.88,0,0,0,.09-.57Z"/><path d="M25.22,293.06l-.84,2.54H23.3L26,287.52H27.3l2.76,8.08H29l-.87-2.54Zm2.65-.81-.8-2.33c-.18-.53-.3-1-.42-1.48h0c-.12.48-.25,1-.41,1.47l-.79,2.34Z"/><path d="M35.93,294c0,.6,0,1.13,0,1.58H35l-.06-.94h0A2.21,2.21,0,0,1,33,295.74c-.91,0-2-.51-2-2.55V289.8h1.05V293c0,1.11.34,1.85,1.3,1.85a1.47,1.47,0,0,0,1.48-1.5V289.8h1.06Z"/><path d="M42.7,287.09v7c0,.51,0,1.1,0,1.49H41.8l0-1h0a2.16,2.16,0,0,1-2,1.14c-1.41,0-2.49-1.19-2.49-2.95,0-1.93,1.19-3.12,2.61-3.12a2,2,0,0,1,1.75.89h0v-3.47Zm-1.06,5.07a1.65,1.65,0,0,0,0-.44,1.54,1.54,0,0,0-1.52-1.22c-1.09,0-1.74.95-1.74,2.24s.58,2.14,1.72,2.14a1.58,1.58,0,0,0,1.54-1.25,1.71,1.71,0,0,0,0-.46Z"/><path d="M45.63,288.17a.66.66,0,0,1-1.31,0,.65.65,0,0,1,.66-.66A.63.63,0,0,1,45.63,288.17Zm-1.18,7.43v-5.8h1.06v5.8Z"/><path d="M48.53,288.13v1.67H50v.8H48.53v3.13c0,.72.21,1.13.79,1.13a2.15,2.15,0,0,0,.61-.07l0,.79a2.67,2.67,0,0,1-.93.14,1.45,1.45,0,0,1-1.14-.44,2.15,2.15,0,0,1-.41-1.51V290.6h-.9v-.8h.9v-1.39Z"/><path d="M60.62,292.05c-.06-1.12-.13-2.48-.12-3.49h0c-.28.95-.61,2-1,3.07L58,295.56h-.79l-1.31-3.85c-.38-1.14-.7-2.19-.93-3.15h0c0,1-.08,2.37-.15,3.58l-.22,3.46h-1l.56-8.08h1.33l1.38,3.91c.34,1,.61,1.88.82,2.72h0c.21-.81.49-1.7.85-2.72L60,287.52h1.33l.51,8.08h-1Z"/><path d="M66.71,295.6l-.08-.73h0a2.15,2.15,0,0,1-1.77.87A1.66,1.66,0,0,1,63,294.07c0-1.4,1.25-2.17,3.49-2.16v-.12a1.19,1.19,0,0,0-1.32-1.34,2.93,2.93,0,0,0-1.51.43l-.24-.7a3.63,3.63,0,0,1,1.91-.51c1.77,0,2.2,1.21,2.2,2.37v2.17a8.24,8.24,0,0,0,.1,1.39Zm-.16-3c-1.15,0-2.45.18-2.45,1.31a.93.93,0,0,0,1,1,1.43,1.43,0,0,0,1.4-1,1,1,0,0,0,.06-.34Z"/><path d="M69.28,291.37c0-.6,0-1.09,0-1.57h.94l.06,1h0a2.14,2.14,0,0,1,1.92-1.09c.8,0,2,.48,2,2.47v3.46h-1v-3.34c0-.94-.35-1.72-1.35-1.72a1.51,1.51,0,0,0-1.41,1.08,1.45,1.45,0,0,0-.07.49v3.49H69.28Z"/><path d="M79.15,295.6l-.08-.73h0a2.14,2.14,0,0,1-1.77.87,1.66,1.66,0,0,1-1.78-1.67c0-1.4,1.25-2.17,3.49-2.16v-.12a1.19,1.19,0,0,0-1.32-1.34,3,3,0,0,0-1.51.43l-.24-.7a3.63,3.63,0,0,1,1.91-.51c1.78,0,2.21,1.21,2.21,2.37v2.17a8.32,8.32,0,0,0,.09,1.39Zm-.15-3c-1.15,0-2.46.18-2.46,1.31a.94.94,0,0,0,1,1,1.45,1.45,0,0,0,1.4-1,1.35,1.35,0,0,0,.06-.34Z"/><path d="M86.73,289.8c0,.42,0,.89,0,1.6v3.37a3.36,3.36,0,0,1-.83,2.65,3.11,3.11,0,0,1-2.11.69,3.76,3.76,0,0,1-1.93-.48l.26-.8a3.32,3.32,0,0,0,1.71.45c1.07,0,1.87-.56,1.87-2v-.65h0a2.07,2.07,0,0,1-1.84,1,2.6,2.6,0,0,1-2.48-2.83,2.79,2.79,0,0,1,2.62-3.08,1.92,1.92,0,0,1,1.81,1h0l0-.88Zm-1.1,2.29a1.44,1.44,0,0,0-.06-.48,1.51,1.51,0,0,0-1.47-1.11c-1,0-1.73.85-1.73,2.19,0,1.14.58,2.09,1.72,2.09a1.55,1.55,0,0,0,1.46-1.08,1.87,1.87,0,0,0,.08-.57Z"/><path d="M89,292.89a1.86,1.86,0,0,0,2,2,3.8,3.8,0,0,0,1.61-.3l.18.76a4.88,4.88,0,0,1-1.93.35A2.69,2.69,0,0,1,88,292.8c0-1.75,1-3.13,2.73-3.13a2.45,2.45,0,0,1,2.39,2.73,4.49,4.49,0,0,1,0,.49Zm3.09-.75a1.5,1.5,0,0,0-1.46-1.72A1.76,1.76,0,0,0,89,292.14Z"/><path d="M94.44,291.37c0-.6,0-1.09,0-1.57h.92l.05.94h0a2,2,0,0,1,1.83-1.07,1.71,1.71,0,0,1,1.64,1.16h0a2.42,2.42,0,0,1,.65-.75,2,2,0,0,1,1.28-.41c.77,0,1.91.5,1.91,2.52v3.41h-1v-3.28c0-1.12-.41-1.79-1.26-1.79a1.38,1.38,0,0,0-1.25,1,2,2,0,0,0-.08.53v3.58h-1v-3.47c0-.93-.41-1.6-1.21-1.6a1.45,1.45,0,0,0-1.31,1.06,1.4,1.4,0,0,0-.08.51v3.5h-1Z"/><path d="M105,292.89a1.86,1.86,0,0,0,2,2,3.8,3.8,0,0,0,1.61-.3l.18.76a4.88,4.88,0,0,1-1.93.35A2.69,2.69,0,0,1,104,292.8c0-1.75,1-3.13,2.72-3.13a2.45,2.45,0,0,1,2.4,2.73,4.49,4.49,0,0,1,0,.49Zm3.09-.75a1.5,1.5,0,0,0-1.46-1.72,1.76,1.76,0,0,0-1.62,1.72Z"/><path d="M110.46,291.37c0-.6,0-1.09,0-1.57h.93l.06,1h0a2.11,2.11,0,0,1,1.91-1.09c.81,0,2.05.48,2.05,2.47v3.46h-1.05v-3.34c0-.94-.35-1.72-1.34-1.72a1.51,1.51,0,0,0-1.42,1.08,1.45,1.45,0,0,0-.07.49v3.49h-1.06Z"/><path d="M118.35,288.13v1.67h1.51v.8h-1.51v3.13c0,.72.2,1.13.79,1.13a2.21,2.21,0,0,0,.61-.07l0,.79a2.73,2.73,0,0,1-.94.14,1.45,1.45,0,0,1-1.14-.44,2.15,2.15,0,0,1-.4-1.51V290.6h-.9v-.8h.9v-1.39Z"/><path d="M13.8,231.13l3.51-3.52a.23.23,0,0,0,.07-.17.24.24,0,0,0-.07-.18l-3.51-3.51a.24.24,0,0,0-.18-.07.23.23,0,0,0-.17.07l-.38.38a.23.23,0,0,0-.07.17.22.22,0,0,0,.07.17l3,3-3,3a.24.24,0,0,0-.07.18.23.23,0,0,0,.07.17l.38.38a.23.23,0,0,0,.17.07A.24.24,0,0,0,13.8,231.13Z"/><path d="M13.8,295.21l3.51-3.52a.23.23,0,0,0,.07-.17.24.24,0,0,0-.07-.18l-3.51-3.51a.25.25,0,0,0-.18-.08.25.25,0,0,0-.17.08l-.38.38a.23.23,0,0,0-.07.17.22.22,0,0,0,.07.17l3,3-3,3a.23.23,0,0,0-.07.17.24.24,0,0,0,.07.18l.38.38a.23.23,0,0,0,.17.07A.24.24,0,0,0,13.8,295.21Z"/><path d="M13.8,279.31l3.51-3.51a.24.24,0,0,0,.07-.18.23.23,0,0,0-.07-.17l-3.51-3.51a.25.25,0,0,0-.18-.08.25.25,0,0,0-.17.08l-.38.37a.24.24,0,0,0-.07.18.23.23,0,0,0,.07.17l3,3-3,3a.23.23,0,0,0-.07.17.22.22,0,0,0,.07.17l.38.38a.25.25,0,0,0,.17.08A.25.25,0,0,0,13.8,279.31Z"/><path d="M13.8,264.21l3.51-3.52a.23.23,0,0,0,.07-.17.24.24,0,0,0-.07-.18l-3.51-3.51a.25.25,0,0,0-.18-.08.25.25,0,0,0-.17.08l-.38.38a.23.23,0,0,0-.07.17.22.22,0,0,0,.07.17l3,3-3,3a.23.23,0,0,0-.07.17.24.24,0,0,0,.07.18l.38.38a.23.23,0,0,0,.17.07A.24.24,0,0,0,13.8,264.21Z"/><path d="M13.8,248.21l3.51-3.52a.23.23,0,0,0,.07-.17.24.24,0,0,0-.07-.18l-3.51-3.51a.25.25,0,0,0-.18-.08.25.25,0,0,0-.17.08l-.38.38a.23.23,0,0,0-.07.17.22.22,0,0,0,.07.17l3,3-3,3a.23.23,0,0,0-.07.17.24.24,0,0,0,.07.18l.38.38a.23.23,0,0,0,.17.07A.24.24,0,0,0,13.8,248.21Z"/></svg>