<svg id="Layer_1" data-name="Layer 1" xmlns="http://www.w3.org/2000/svg" width="100" height="100" viewBox="0 0 100 100"><title>Document storage security</title><path d="M18.36,70.37l4.23-4.46c1.46,5.46,2.88,10.74,4.36,16.27L11,77.91l4.67-4.6.14-.68A5,5,0,0,1,14.55,72c-4.49-4.46-8.94-9-13.44-13.4A3.44,3.44,0,0,1,0,55.94Q0,34,0,12.11c0-2.06.51-2.57,2.57-2.57h8.08V5.33c0-1.69.58-2.28,2.23-2.28h41c1.57,0,2.17.62,2.19,2.21,0,1.37,0,2.74,0,4.28h6.64c2.39,0,2.85.46,2.85,2.82,0,2,0,4.06,0,6.3h5.53c.63,0,1.25,0,1.88,0,1.37,0,2,.63,2,2,0,2.41,0,4.82,0,7.41h6.41c.54,0,1.2-.13,1.59.13a7.64,7.64,0,0,1,1.47,1.62c.07.07,0,.24,0,.36-.52,2.56.75,4.22,2.52,5.9,4.17,4,8.18,8.06,12.21,12.16a3.1,3.1,0,0,1,.8,2q.08,22.23,0,44.45c0,1.65-.63,2.29-2.25,2.29H40.68c-1.65,0-2.2-.63-2.2-2.44,0-14.11,0-28.22,0-42.33a3.52,3.52,0,0,0-1.12-2.73Q21.09,33.25,4.87,17c-.32-.32-.59-.7-1.09-1.31-.08.66-.14.95-.14,1.25q0,19,0,38.08a2.06,2.06,0,0,0,.44,1.32c4.57,4.62,9.17,9.2,13.76,13.79A3.58,3.58,0,0,0,18.36,70.37ZM42.15,93.23h54.1V51.72H42.15ZM80.76,31.87h-38V47.93h38Zm-9.49-9.49h-38c0,5.8,0,11.49,0,17.19a1.27,1.27,0,0,0,.23.81C35.28,42.2,37.1,44,39.1,46V30.9c0-2.38.46-2.84,2.83-2.84H71.27ZM23.83,13.21v1.45c0,4,.19,8.08-.07,12.1-.19,2.92.54,5.12,2.89,6.87a31,31,0,0,1,3,2.92V21.35c0-2.25.44-2.69,2.68-2.69q14,0,28,0h1.54V13.21Zm-4,13.65.3-.13V12.05c0-2,.57-2.51,2.53-2.51H52.31V6.78h-38c0,4.75,0,9.4,0,14a1.42,1.42,0,0,0,.41.86C16.44,23.43,18.13,25.14,19.82,26.86ZM84.53,39.18v8.71h8.66ZM10.61,13.28H6.76l3.85,4Z"/><path d="M69.17,90c-2.16,0-4.33,0-6.49,0a6.13,6.13,0,0,1-6.3-6.31q0-4.31,0-8.61a6.31,6.31,0,0,1,2.76-5.31,2.23,2.23,0,0,0,.78-1.47c.12-1.53,0-3.08.12-4.61A9,9,0,0,1,69.67,55a9.14,9.14,0,0,1,8.59,9.15c0,1.42,0,2.83,0,4.24A1.69,1.69,0,0,0,79,69.53a6.28,6.28,0,0,1,3.09,5.62c0,2.83,0,5.65,0,8.48A6.11,6.11,0,0,1,75.78,90C73.58,90,71.37,90,69.17,90Zm0-3.63c2.12,0,4.24,0,6.36,0,1.91,0,2.85-1,2.87-2.85q.06-4.11,0-8.23c0-1.91-1-2.8-2.87-2.8H63c-2,0-2.9.87-2.92,2.87q0,4,0,8c0,2.1.91,3,3,3S67.16,86.34,69.19,86.33ZM63.67,68.69H74.58c0-1.66,0-3.23,0-4.8a5.45,5.45,0,0,0-10.85-.59A48.29,48.29,0,0,0,63.67,68.69Z"/></svg>