<svg id="Layer_1" data-name="Layer 1" xmlns="http://www.w3.org/2000/svg" width="100" height="100" viewBox="0 0 100 100"><title>Email signature</title><path d="M61.34,40.57H43.26c-4.87,0-7.84-2.86-8-7.75q-.09-3.18,0-6.35c.16-5.18,3.2-8.66,8.35-8.84,7-.26,14.05-.07,21.24-.07v1.31c0,7.35,0,14.71,0,22.06a8.46,8.46,0,0,0,.43,2.69,2.44,2.44,0,0,0,3,1.6,6.15,6.15,0,0,0,4.07-3.1,25.16,25.16,0,0,0-1.47-28.17C64.3,5.38,55.42,1.87,44.86,4S27.37,12.81,24.74,23.37c-3.6,14.41,6.73,29.21,21.48,31.08,1.18.15,2.38.22,3.73.34V49l14,8L50,65V58.33c-2-.26-4-.4-5.86-.76A29.15,29.15,0,0,1,20.57,29.39a29.43,29.43,0,0,1,58.28-5.76A27.58,27.58,0,0,1,75.23,44a9.52,9.52,0,0,1-5,4.23,6.28,6.28,0,0,1-8.7-5.59C61.43,42,61.4,41.32,61.34,40.57Zm0-19.61c-5.85,0-11.56-.13-17.26.05-3.64.11-5.34,2.18-5.36,5.84,0,1.8,0,3.59,0,5.39,0,3.52,1.41,4.92,5,4.93H60.19c.38,0,.76-.05,1.15-.07Z"/><path d="M13.17,76.42V73H79.8L80.17,72A7,7,0,1,1,89,80.67a6.92,6.92,0,0,1-8.21-3.25,1.67,1.67,0,0,0-1.76-1q-32.13,0-64.25,0Zm70.1-2.36a3.59,3.59,0,0,0,3.53,3.6,3.71,3.71,0,0,0,3.7-3.61,3.64,3.64,0,0,0-3.71-3.57A3.53,3.53,0,0,0,83.27,74.06Z"/><path d="M86.81,91.35v3.39h-1.5q-31.94,0-63.88,0a1.73,1.73,0,0,0-1.95,1.2,6.87,6.87,0,0,1-7.8,3.92,6.92,6.92,0,0,1-.09-13.55,6.85,6.85,0,0,1,7.9,3.93,1.63,1.63,0,0,0,1.85,1.15q32,0,63.88,0ZM16.72,93a3.56,3.56,0,0,0-3.55-3.57,3.59,3.59,0,1,0-.09,7.17A3.55,3.55,0,0,0,16.72,93Z"/></svg>