<svg id="Layer_1" data-name="Layer 1" xmlns="http://www.w3.org/2000/svg" width="100" height="100" viewBox="0 0 100 100"><title>Data leakage protection</title><path d="M55.6,73.54H13.25V72.07q0-29.19,0-58.38A1.48,1.48,0,0,0,12.2,12,6.12,6.12,0,0,1,8.43,5.66,6.37,6.37,0,0,1,13.53.15a6.31,6.31,0,0,1,6.87,3,1.9,1.9,0,0,0,2,1.11q25.46,0,50.91,0H74.9c0,.51.06,1,.06,1.39Q75,20.29,75,35c0,4.52,0,9,0,13.55,0,.9.19,1.31,1.14,1.55a12.44,12.44,0,0,1,9.59,12.44c0,2.45,0,4.9,0,7.35A1.06,1.06,0,0,0,86.44,71a7.86,7.86,0,0,1,5.16,7.79q0,6.44,0,12.87A8.08,8.08,0,0,1,83.33,100Q73,100,62.64,100a8.08,8.08,0,0,1-8.24-8.22c0-4.36-.12-8.73,0-13.09A27.7,27.7,0,0,1,55.6,73.54Zm5.94-51.18L48.7,29.59V24H16.53V37.19H71.71V7.37H22.34c-.16,0-.34-.06-.46,0-.28.16-.7.33-.79.58a6.47,6.47,0,0,1-4,4.28c-.26.1-.6.42-.6.65-.05,2.6,0,5.19,0,7.83H48.7v-5.6Zm-45,31.45c.4,0,.71,0,1,0q22.34,0,44.67,0a2.78,2.78,0,0,0,1.68-.71A13.79,13.79,0,0,1,70,49.91c.58-.13,1.18-.22,1.75-.33v-9H16.49ZM73,73.54v0c-3.36,0-6.73,0-10.1,0a5,5,0,0,0-5.29,5.32q0,6.32,0,12.64a5,5,0,0,0,5.27,5.35q10.17.06,20.33,0a4.92,4.92,0,0,0,5.22-5.28q0-6.37,0-12.75a5,5,0,0,0-5.32-5.29C79.72,73.53,76.35,73.54,73,73.54ZM61,57.08H16.52V70.3H59.83C60.18,65.83,59.21,61.33,61,57.08ZM82.41,70.34c0-3.27.21-6.46-.06-9.61-.36-4.26-4.27-7.59-8.9-8a9.6,9.6,0,0,0-9.62,6.21c-1.18,3.72-.53,7.57-.71,11.41ZM14.84,3a3.28,3.28,0,1,0,0,6.55A3.26,3.26,0,0,0,18.2,6.24,3.3,3.3,0,0,0,14.84,3Z"/><path d="M71.32,83.71h3v7.5h-3Z"/></svg>