<svg id="Layer_1" data-name="Layer 1" xmlns="http://www.w3.org/2000/svg" width="75" height="75" viewBox="0 0 75 75"><title>dashboard</title><path d="M0,7.85H70.57V39.73H75c-1.94,3.35-3.77,6.53-5.66,9.81L63.7,39.77H68V10.43H2.54v51.5c.34,0,.64,0,1,0q30,0,60,0a1.06,1.06,0,0,0,1.18-.79,5.13,5.13,0,1,1,4.82,7.21,5.24,5.24,0,0,1-4.85-3.13c-.1-.23-.18-.48-.3-.77H0Zm72,55.4a2.65,2.65,0,0,0-2.56-2.6,2.59,2.59,0,0,0-.1,5.18A2.64,2.64,0,0,0,72,63.25Z"/><path d="M58.86,42.41v2.7H10.72v-2.7Z"/><path d="M10.71,50v-2.7H58.82V50Z"/><path d="M10.66,54.79c0-.66,0-1.28,0-1.91,0-.25,0-.5.05-.79H58.83v2.7Z"/><path d="M41.31,28.6H51.66v-10A8.61,8.61,0,0,1,59.08,27a8.83,8.83,0,0,1-7.85,9.13C46.71,36.79,42.65,33.74,41.31,28.6Zm13,2.54h-9a6,6,0,0,0,6.38,2.32,6.36,6.36,0,0,0,4.76-5.3c.26-2.34-.74-4.84-2.17-5.51Z"/><path d="M50.06,17.11v10H40A8.86,8.86,0,0,1,50.06,17.11Zm-2.58,2.7a5.81,5.81,0,0,0-4.76,4.77h4.76Z"/><path d="M17.78,33.32H15V15.78h2.77Z"/><path d="M34.68,33.31H31.9V19.76h2.78Z"/><path d="M19.22,22.64H22V33.33H19.22Z"/><path d="M27.7,22.38h2.71V33.3H27.7Z"/><path d="M23.41,33.31V24.87h2.8v8.44Z"/><path d="M10.7,33.26V24.87h2.78v8.39Z"/></svg>