<svg id="Layer_1" data-name="Layer 1" xmlns="http://www.w3.org/2000/svg" width="100" height="100" viewBox="0 0 100 100"><title>flight-schedule</title><path d="M84.59,1.92c-.47,2.64-.92,5.29-1.43,7.92a3.12,3.12,0,0,1-.75,1.52Q75.78,18.08,69.06,24.7a2.36,2.36,0,0,1-1.85.53C66.07,25,66,23.61,67,22.61c2.94-3,5.91-5.92,8.86-8.88a16.08,16.08,0,0,1,2.09-2c3-2,2.67-5.28,3.27-8.43-2.09.35-4,.64-5.9,1-.33.07-.63.44-.9.7-4.12,4.12-8.25,8.22-12.34,12.37a2.23,2.23,0,0,1-2.51.66c-2.16-.67-4.35-1.25-6.51-1.91a1.42,1.42,0,0,0-1.72.41,5.59,5.59,0,0,1-5.88,1.66,5.62,5.62,0,0,1-4.29-4.62,1.28,1.28,0,0,0-1-1.17c-2.75-.73-5.47-1.58-8.22-2.31a1.6,1.6,0,0,0-1.31.29c-1.11,1-2.12,2.07-3.28,3.22L30,15.22,49.19,26.51c1.77,1,1.87,1.8.43,3.25q-7.87,7.87-15.74,15.76a2.1,2.1,0,0,1-2.51.59c-2.07-.79-4.19-1.47-6.28-2.24a1.12,1.12,0,0,0-1.44.29c-.64.72-1.38,1.35-2.21,2.13,3.63,1.52,7,3,10.45,4.36a3.26,3.26,0,0,1,2,2C35.21,56,36.66,59.39,38.16,63c.87-.87,1.7-1.61,2.4-2.46.2-.23.11-.8,0-1.16-.7-2.11-1.42-4.22-2.2-6.3a2,2,0,0,1,.5-2.32q8.06-8,16.09-16.06c1.13-1.13,2.07-1,2.89.41L70.09,55.84c.23.4.48.8.81,1.34,1.23-1.23,2.41-2.39,3.57-3.58a.81.81,0,0,0,.07-.64c-1-3.48-2-7-3-10.56l-5.17,1.34c1.19-4.47,2.34-8.77,3.45-12.93q4.69,4.71,9.47,9.47l-4.85,1.34c.93,3.25,1.67,6.49,2.79,9.59.83,2.28.52,3.89-1.4,5.39a46.72,46.72,0,0,0-3.75,3.7c-1.25,1.23-2.16,1.12-3.06-.4q-6.26-10.57-12.5-21.17c-.14-.24-.29-.47-.49-.79a6.09,6.09,0,0,0-.71.57C50.89,42.92,46.48,47.36,42,51.75a1.41,1.41,0,0,0-.36,1.74c.77,2,1.44,4.13,2.19,6.18a2,2,0,0,1-.56,2.41C41.82,63.48,40.42,65,39,66.37c-1.18,1.17-2.23,1-2.88-.58C34.5,62,33,58.22,31.32,54.47A2.78,2.78,0,0,0,30,53.16C26.29,51.54,22.54,50,18.8,48.43c-1.66-.71-1.86-1.74-.59-3,1.43-1.44,2.89-2.86,4.3-4.32a1.83,1.83,0,0,1,2.2-.51c2.12.79,4.26,1.54,6.41,2.23a1.57,1.57,0,0,0,1.32-.15c4.73-4.65,9.43-9.35,14.22-14.14l-6.09-3.61q-7.92-4.68-15.83-9.34c-1.77-1.05-1.87-1.84-.44-3.27s3.14-3.05,4.62-4.66a2.55,2.55,0,0,1,3-.75c2.9.92,5.85,1.69,8.76,2.57A1.05,1.05,0,0,0,42.13,9a5.93,5.93,0,0,1,10.81,3c0,.69.2,1,.92,1.2,1.81.46,3.61,1,5.39,1.56a1.32,1.32,0,0,0,1.53-.4c4-4.06,8-8.1,12.11-12.1a4,4,0,0,1,1.9-1C77.2.82,79.63.48,82.06.07A2.15,2.15,0,0,1,84.59,1ZM44,12.41a3,3,0,0,0,2.92,3,3.14,3.14,0,0,0,3.1-3,3.07,3.07,0,0,0-3.09-3A3,3,0,0,0,44,12.41Z"/><path d="M15.41,80.23c.23-1.65.39-3.3.68-4.94A34.54,34.54,0,0,1,26.5,55.93c.11-.11.23-.21.35-.31.86-.73,1.71-.79,2.25-.09s.33,1.48-.32,2.16A47.24,47.24,0,0,0,24.85,62c-5.15,7-7.4,14.73-6.15,23.36.62,4.27,2.76,7.92,5.09,11.46a7.46,7.46,0,0,1,.7,1.09,1.39,1.39,0,0,1-2.36,1.46c-2.93-4.23-5.44-8.66-6.25-13.85-.16-1.06-.31-2.13-.47-3.2Z"/></svg>