<svg id="Layer_1" data-name="Layer 1" xmlns="http://www.w3.org/2000/svg" width="100" height="100" viewBox="0 0 100 100"><title>Information data security</title><path d="M68.89,100a9.75,9.75,0,0,1-4.43-2.36,7.39,7.39,0,0,1-2.12-5.11c0-4.22-.05-8.44,0-12.66A19.48,19.48,0,0,1,63,76.53H38.79V82L26.41,74.88l12.34-7.13v5.5H66.22c.78,0,1.15-.31,1.12-1.2-.06-2.18,0-4.36,0-6.55a11.53,11.53,0,0,1,9.36-11.74c.54-.12.84-.26.84-.88,0-4,0-8.08,0-12.11a1.71,1.71,0,0,0-.1-.39H12.29c0,.37-.06.76-.06,1.14,0,8.66,0,17.32,0,26a1.3,1.3,0,0,0,.94,1.44,6.46,6.46,0,0,1-2.82,12.41,6.4,6.4,0,0,1-6.1-5.51A2.92,2.92,0,0,0,4,75.33v-.88c.14-.51.26-1,.43-1.55A5.86,5.86,0,0,1,8,69c.92-.35,1-.85,1-1.7q0-14.4,0-28.81V37.1H29.93c0-.49.05-.87.05-1.26,0-2.4,0-4.8,0-7.2a10.81,10.81,0,0,1,9.56-11,50.74,50.74,0,0,1,10.67,0c5.66.62,9.55,5.38,9.6,11.17,0,2.33,0,4.65,0,7v1.32H80.7V53.6A12.23,12.23,0,0,1,87,56.72a11.81,11.81,0,0,1,3.69,8.9c0,2.14,0,4.29,0,6.44,0,.31.13.82.33.9A8.19,8.19,0,0,1,96,79V93.45a33.88,33.88,0,0,1-2.19,4.13c-1.08,1.5-2.86,2-4.58,2.42ZM79.16,75.76H70.1a4.26,4.26,0,0,0-4.55,4.47q0,6,0,12A4.28,4.28,0,0,0,70,96.71q9.1,0,18.22,0a4.28,4.28,0,0,0,4.43-4.5q0-6,0-12a4.25,4.25,0,0,0-4.47-4.44ZM56.58,37c0-3.1.18-6,0-8.89a7.69,7.69,0,0,0-7.62-7.39,71.83,71.83,0,0,0-8.17,0c-4.57.28-7.56,3.62-7.56,8.22,0,2.32,0,4.65,0,7,0,.91.27,1.16,1.17,1.15C39.21,37,44.08,37,49,37ZM77.44,57a8,8,0,0,0-6.55,5.82,17.06,17.06,0,0,0-.35,3.78c-.05,2,0,3.9,0,5.87h6.91Zm10,15.47c0-2.71.07-5.32,0-7.93a7.81,7.81,0,0,0-.74-2.82A8.23,8.23,0,0,0,80.77,57V72.46Zm-76.76-.84a3.26,3.26,0,1,0,3.27,3.23A3.26,3.26,0,0,0,10.64,71.62Z"/><path d="M46,0c.55.17,1.1.33,1.63.52A7.93,7.93,0,0,1,44.67,15.9,8,8,0,0,1,37,9.09,7.9,7.9,0,0,1,42.56.41L43.78,0ZM44.87,12.66a4.69,4.69,0,0,0,0-9.38,4.74,4.74,0,0,0-4.7,4.62A4.77,4.77,0,0,0,44.87,12.66Z"/><path d="M42.56,66.34V51.18h2.71V66.34Z"/><path d="M45.7,46.79a1.67,1.67,0,0,1-1.77,1.77,1.74,1.74,0,0,1-.06-3.47A1.67,1.67,0,0,1,45.7,46.79Z"/></svg>