<svg id="Layer_1" data-name="Layer 1" xmlns="http://www.w3.org/2000/svg" width="100" height="100" viewBox="0 0 100 100"><title>inspection</title><path d="M100,38.32c-.33,1.86-.59,3.75-1,5.59A35.6,35.6,0,0,1,46.56,66.53c-.54-.31-.91-.47-1.46.08Q28.78,83,12.41,99.34a2.76,2.76,0,0,0-.3.5h-.49a9.33,9.33,0,0,0-.73-.93q-4.82-4.84-9.67-9.66A7.37,7.37,0,0,0,0,88.46l5.73-5.72c.83-.83,1.62-1.71,2.51-2.49,1.58-1.38,2.64-2.59,1.8-5.14-1-3,.35-5.71,2.86-7.62a7.74,7.74,0,0,1,8.51-.73L34,54.2a34.79,34.79,0,0,1-4.82-14c-1.22-11,1.76-20.75,9.38-28.8a35.51,35.51,0,0,1,59.6,13.19,70.38,70.38,0,0,1,1.66,7.84c.06.27.15.53.22.8ZM62.38,4.21C45.11,5.11,33.09,20.09,33,33.7H39.5v-7l15.67,9L39.44,44.81v-7H32.93c.46,15.08,13.74,28.86,29.44,29.44V61h-7c3.07-5.32,6-10.43,9.05-15.66l9.1,15.77H66.43v6.28a31.3,31.3,0,0,0,21.93-11,30.69,30.69,0,0,0,7.58-18.59H90v7L74.27,35.73l15.79-9.11V33.7h5.79c-.59-16.29-15-29.21-29.43-29.39v6.22h7c-3.05,5.28-6,10.37-9,15.65L55.33,10.49h7.05ZM11.84,94C21.88,84,32,73.85,41.92,63.92L36.1,58c-3.69,3.69-7.46,7.45-11.19,11.24a1.28,1.28,0,0,0-.08,1.14,8.09,8.09,0,0,1,.6,4.77,7.91,7.91,0,0,1-11.06,5.8c-.33-.15-.94-.21-1.13,0-2.48,2.4-4.91,4.85-7.27,7.22Zm9.79-20.23a4,4,0,0,0-3.89-4,4.09,4.09,0,0,0-4.08,4,4,4,0,0,0,4,3.94A3.92,3.92,0,0,0,21.63,73.77Z"/></svg>