<svg id="Layer_1" data-name="Layer 1" xmlns="http://www.w3.org/2000/svg" width="75" height="75" viewBox="0 0 75 75"><title>HR</title><path d="M75,29.5A15.27,15.27,0,0,1,73.85,32a5.57,5.57,0,1,1-8.4-7.26c.25-.25.52-.48.78-.71A31.35,31.35,0,0,0,7.55,27.16l4.59,1.7L2.32,37.11.08,24.48l4.77,1.7L5.29,25c5.14-13,14.6-20.69,28.5-22.39a33.75,33.75,0,0,1,34.82,19.7,1.12,1.12,0,0,0,1.17.79,5.5,5.5,0,0,1,5,4.21c0,.2.13.38.19.58Zm-5.63,2a2.82,2.82,0,0,0,2.83-2.82,2.88,2.88,0,0,0-2.86-2.82,2.84,2.84,0,0,0-2.77,2.8A2.79,2.79,0,0,0,69.37,31.46Z"/><path d="M75,51.59l-4.75-1.65c-.71,1.66-1.3,3.31-2.1,4.85C62.84,65,54.48,71.27,43.14,73.26A34.08,34.08,0,0,1,6.44,53.79,1.13,1.13,0,0,0,5.28,53,5.55,5.55,0,0,1,.17,48.42,4.11,4.11,0,0,0,0,47.85V47c.15-.5.27-1,.45-1.5a5.63,5.63,0,0,1,5.22-3.64,5.66,5.66,0,0,1,5.2,3.55,5.58,5.58,0,0,1-1.44,6.19c-.19.18-.4.35-.6.51C12.07,60.5,22,70.73,37.12,71a31.3,31.3,0,0,0,30.4-22l-4.61-1.7L72.72,39c.31,1.7.58,3.23.85,4.77l1.26,7.09a1.92,1.92,0,0,0,.17.39Zm-69.32-7a2.83,2.83,0,0,0-2.83,2.82,2.91,2.91,0,0,0,2.86,2.83,2.89,2.89,0,0,0,2.78-2.81A2.81,2.81,0,0,0,5.68,44.62Z"/><path d="M61.23,54.39H12.91c0-.6,0-1.18,0-1.77,0-2.52-.07-5,.08-7.57a8.14,8.14,0,0,1,8.07-7.5c2.28,0,4.56.08,6.84.1a1.23,1.23,0,0,0,.7-.28,9.54,9.54,0,0,1,6.14-2c2.43,0,4.87,0,7.29.15a8.23,8.23,0,0,1,4,1.57,2.9,2.9,0,0,0,1.37.43c1.75,0,3.5,0,5.26,0a8.16,8.16,0,0,1,8.51,7.81C61.39,48.31,61.23,51.29,61.23,54.39Zm-14-2.75c0-2.49,0-4.8,0-7.11a6.49,6.49,0,0,0-6.49-6.35c-2.14,0-4.27,0-6.41,0a6.31,6.31,0,0,0-5.39,3,6.23,6.23,0,0,0-1.09,3.6v6.91ZM26.08,40.34c-1.73,0-3.33,0-4.93,0a5.24,5.24,0,0,0-5.31,4.57,60.39,60.39,0,0,0-.05,6.73H25C25.45,47.86,24.34,44.05,26.08,40.34ZM58.44,51.61c0-2.1.07-4.09,0-6.06a5.17,5.17,0,0,0-3.48-4.82c-1.92-.77-3.93-.25-6-.41,1.78,3.74.72,7.58,1.15,11.29Z"/><path d="M37.4,34.21A6.63,6.63,0,1,1,37.71,21a6.63,6.63,0,0,1-.31,13.26Zm-3.73-6.63a3.85,3.85,0,1,0,3.83-3.84A3.83,3.83,0,0,0,33.67,27.58Z"/><path d="M24,25.05A5.92,5.92,0,1,1,18,31,5.87,5.87,0,0,1,24,25.05ZM27.08,31a3.16,3.16,0,1,0-3.18,3.17A3.24,3.24,0,0,0,27.08,31Z"/><path d="M56.15,31a5.91,5.91,0,1,1-5.92-5.93A5.88,5.88,0,0,1,56.15,31Zm-2.74-.06a3.17,3.17,0,0,0-6.34,0,3.17,3.17,0,1,0,6.34,0Z"/></svg>