<svg id="Layer_1" data-name="Layer 1" xmlns="http://www.w3.org/2000/svg" width="60" height="60" viewBox="0 0 60 60"><defs><style>.cls-1{fill:#fff;}</style></defs><title>Implementation-w</title><path class="cls-1" d="M59.86,32.92h-3.4a27.07,27.07,0,0,1-2.84,9.36,4,4,0,0,1,1.15,3.58,3.84,3.84,0,0,1-5.09,3,1,1,0,0,0-1.24.3,25,25,0,0,1-6,4.31,3.11,3.11,0,0,1-.43.18L41.16,52l.53-.32a23.94,23.94,0,0,0,5.51-4,.88.88,0,0,0,.21-.73c-1.23-3.23,1-6,4.42-5.54A21.65,21.65,0,0,0,54.42,33H50.91l4.46-7.73.35.53c1.25,2.16,2.49,4.32,3.74,6.47.11.19.27.36.4.54Zm-7,12.21a2,2,0,0,0-2-1.93A2,2,0,0,0,49,45.15a2.07,2.07,0,0,0,2,2A2,2,0,0,0,52.91,45.13Z"/><path class="cls-1" d="M.14,27.5h3.6A26.82,26.82,0,0,1,6.6,17.77a3.91,3.91,0,0,1,4.06-6.59.73.73,0,0,0,1-.17,26,26,0,0,1,6-4.4,6.64,6.64,0,0,1,.65-.29L19.16,8c-.18.11-.32.21-.48.29A25.72,25.72,0,0,0,13,12.42a.83.83,0,0,0-.26,1,3.89,3.89,0,0,1-3.81,5.21A1,1,0,0,0,8.2,19a23.47,23.47,0,0,0-2.42,8,5,5,0,0,0,0,.55h3.3L4.61,35.24ZM9.08,16.69a2,2,0,0,0,2-2,2,2,0,0,0-4,0A2,2,0,0,0,9.08,16.69Z"/><path class="cls-1" d="M32.27,0V3.59A26.4,26.4,0,0,1,53.82,18.15L52.1,19A24.5,24.5,0,0,0,39.8,7.44a22.83,22.83,0,0,0-7.53-1.87V9L24.5,4.49Z"/><path class="cls-1" d="M27.07,60c0-1.13,0-2.1,0-3.06,0-.52-.18-.66-.66-.73-9-1.38-15.59-6.24-20-14.26l1.74-.9A24.72,24.72,0,0,0,27.05,54.38V51l7.79,4.5Z"/></svg>