<svg id="Layer_1" data-name="Layer 1" xmlns="http://www.w3.org/2000/svg" width="75" height="75" viewBox="0 0 75 75"><defs><style>.cls-1{fill:#fff;}</style></defs><title>implementation</title><path class="cls-1" d="M40.39,0V4.47C52.51,5.85,61.46,11.89,67.32,22.7l-1.1.56-1.1.54A30.74,30.74,0,0,0,51,9.85,29.92,29.92,0,0,0,40.41,7v4.31L30.62,5.63l4.11-2.38L40.23,0Z"/><path class="cls-1" d="M7.23,34.35h4.13L5.75,44.07.16,34.38H4.68A33.67,33.67,0,0,1,8.21,22.29c-2.07-2.41-2.32-4.79-.76-6.83a4.87,4.87,0,0,1,6.29-1.29c2.39-1.75,4.69-3.45,7-5.11a19.59,19.59,0,0,1,2.11-1.18L23.93,10c-1,.61-2,1.11-2.95,1.78-1.67,1.24-3.27,2.56-4.87,3.89a1,1,0,0,0-.25.89c1.18,3.67-1.13,6.82-5,6.74a.74.74,0,0,0-.55.21C9.08,25.14,7.09,32,7.23,34.35Zm4.11-13.47A2.46,2.46,0,1,0,11.29,16a2.46,2.46,0,0,0,.05,4.91Z"/><path class="cls-1" d="M69.24,31.52c1.9,3.29,3.71,6.42,5.6,9.71-1.26,0-2.39,0-3.5,0-.59,0-.84.13-.91.75a31.83,31.83,0,0,1-3.11,10.3c-.18.37-.29.62,0,1a4.81,4.81,0,0,1,.2,6.14,4.9,4.9,0,0,1-5.91,1.47l-.36-.13a33.81,33.81,0,0,1-8.75,6.31L51.46,65l.79-.44a31.6,31.6,0,0,0,6.77-5,.84.84,0,0,0,.2-1.13,4.85,4.85,0,0,1,5-6.78c.38,0,.66.07.88-.36a31.19,31.19,0,0,0,3-9.66,1.53,1.53,0,0,0,0-.4H63.64Zm-8,25a2.43,2.43,0,0,0,2.48,2.45A2.45,2.45,0,1,0,63.63,54,2.36,2.36,0,0,0,61.24,56.48Z"/><path class="cls-1" d="M8,52.46c.26-.15.4-.24.55-.31l1.6-.8c5.12,9.43,12.92,15,23.64,16.66v-4.2l9.71,5.61L33.88,75V70.47C22.22,68.79,13.66,62.8,8,52.46Z"/></svg>