<svg id="Layer_1" data-name="Layer 1" xmlns="http://www.w3.org/2000/svg" width="100" height="100" viewBox="0 0 100 100"><title>infrastucture</title><path d="M6.1,8.85c.09-.25.2-.49.27-.75a6.39,6.39,0,0,1,5.55-4.74A6.21,6.21,0,0,1,18.33,7.2a1.32,1.32,0,0,0,1.49,1c5.74,0,11.47,0,17.34,0v40.6H50.09V8.19H61.5V2.37L74.18,9.69,61.59,17V11.33H53.35V48.7h8.17V43.06l12.66,7.3L61.57,57.64V52H53.34V88.63h8.18v-4.9L74.18,91,61.6,98.3V91.9H50.14V52H37.26V92.62H19.74c-.56,0-1,0-1.3.69a6.29,6.29,0,0,1-6.64,4,6.36,6.36,0,0,1-5.49-5.08,2.19,2.19,0,0,0-.21-.4V90.19a1.71,1.71,0,0,0,.21-.4,6.33,6.33,0,0,1,12.13-1,1,1,0,0,0,1.15.71H33c.34,0,.68,0,1-.08V51.91H32.84c-4.34,0-8.69,0-13,0a1.32,1.32,0,0,0-1.48,1A6.2,6.2,0,0,1,12,56.7a6.33,6.33,0,0,1-5.55-4.4c-.12-.37-.26-.74-.39-1.1V49.52a1.71,1.71,0,0,0,.21-.4,6.33,6.33,0,0,1,12.13-1,1,1,0,0,0,1.15.7H33c.34,0,.67,0,1-.08V11.24H32.73c-4.27,0-8.53,0-12.8,0a1.47,1.47,0,0,0-1.65,1.06A6.16,6.16,0,0,1,12.05,16a6.37,6.37,0,0,1-5.64-4.63c-.09-.29-.21-.58-.31-.86Zm6.48,38.31a3.2,3.2,0,0,0-.16,6.4,3.21,3.21,0,0,0,3.31-3.17A3.27,3.27,0,0,0,12.58,47.16Zm-.07-34.27a3.2,3.2,0,1,0,0-6.4A3.29,3.29,0,0,0,9.3,9.67,3.3,3.3,0,0,0,12.51,12.89Zm.05,81.34a3.2,3.2,0,0,0,0-6.4,3.2,3.2,0,1,0,0,6.4Z"/><path d="M93.9,59.57H74.58V40.19H93.9ZM77.68,56.41h13V43.52h-13Z"/><path d="M93.9,19.38H74.52V0H93.9ZM77.69,16.15h13V3.22h-13Z"/><path d="M74.52,100V80.62H93.9V100ZM90.69,83.82h-13v13h13Z"/></svg>