<svg id="Layer_1" data-name="Layer 1" xmlns="http://www.w3.org/2000/svg" width="75" height="75" viewBox="0 0 75 75"><defs><style>.cls-1{fill:#fff;}</style></defs><title>management</title><path class="cls-1" d="M3.23,55.27c4.84-2.77,9.71-5.49,14.49-8.35A9.51,9.51,0,0,1,23,45.54c6.41.1,12.82.09,19.22,0a4.23,4.23,0,0,1,4.52,4.06c.09,2.35-1.8,4.07-4.43,4.13,0,0-.11,0-.2.15,1.34.42,2.67.86,4,1.22.28.08.65-.13,1-.25,6.41-2.47,12.82-5,19.24-7.42A3.72,3.72,0,0,1,69.84,54L52,65.85l-6.44,4.29L44.14,68c.31-.22.58-.41.86-.59L67.91,52.18c1-.7,1.32-1.21,1-1.87S68,49.55,66.8,50Q56.92,53.83,47,57.64a2.06,2.06,0,0,1-1.22.1q-10-3.14-20.07-6.32a.4.4,0,0,1-.28-.23h.89c5.3,0,10.6,0,15.9,0a2.39,2.39,0,0,0,1.61-.69,1.46,1.46,0,0,0-1-2.32,3.84,3.84,0,0,0-.68,0c-6.86,0-13.72,0-20.58,0a2.51,2.51,0,0,0-1.2.3c-4.63,2.61-9.25,5.26-13.87,7.89a1,1,0,0,0-.65,1c0,4.34,0,8.67,0,13a3.83,3.83,0,0,0,.06.43c.26-.11.48-.2.69-.31,3.6-1.85,7.18-3.74,10.81-5.52a4.4,4.4,0,0,1,2.28-.33c2.58.25,5.16.62,7.8,1l.59-4.26,9.39,7.21L26.55,73l.62-4.92c-2.72-.35-5.38-.71-8-1a2.14,2.14,0,0,0-1,.32q-7,3.65-14,7.29a8,8,0,0,1-.86.33Z"/><path class="cls-1" d="M71.77,34.35c-.6,1.49-1.21,3-1.81,4.46a.84.84,0,0,1-1.11.61,3.1,3.1,0,0,0-3.3,1.1c-1.09,1.07-1.62,2-1.24,3.49a.8.8,0,0,1-.55,1.06c-1.36.55-2.71,1.11-4.07,1.68a.7.7,0,0,1-1-.3,3.34,3.34,0,0,0-3.38-1.68c-1.45,0-2.41.31-3.1,1.52a.9.9,0,0,1-1.28.42L47,45c-.42-.18-.65-.46-.52-.92.44-1.56-.16-2.6-1.33-3.71a2.87,2.87,0,0,0-3-1,1,1,0,0,1-1.37-.72c-.5-1.29-1-2.57-1.54-3.86a.82.82,0,0,1,.36-1.15c1.34-.71,1.53-1.81,1.53-3.26a2.75,2.75,0,0,0-1.4-2.73,1,1,0,0,1-.44-1.42c.55-1.3,1.07-2.61,1.6-3.92a.76.76,0,0,1,1-.54,3.18,3.18,0,0,0,3.45-1.15c1-1,1.55-1.95,1.17-3.35a.89.89,0,0,1,.65-1.18c1.33-.53,2.66-1.1,4-1.64a.72.72,0,0,1,1,.31,3.32,3.32,0,0,0,3.38,1.68c1.42,0,2.37-.3,3.05-1.49a1,1,0,0,1,1.41-.42c1.32.57,2.66,1.11,4,1.72a.91.91,0,0,1,.4.76,3.59,3.59,0,0,0,1.32,3.73,3.06,3.06,0,0,0,3.15,1.05.93.93,0,0,1,1.24.66c.58,1.47,1.18,2.93,1.77,4.39v.34c-.42.32-.83.67-1.27.94a1.5,1.5,0,0,0-.79,1.67c.09.69,0,1.4,0,2.1a1,1,0,0,0,.23.66c.59.5,1.22,1,1.84,1.43ZM61.54,41.48c-.24-.61.11-1,.72-1.44a7.25,7.25,0,0,0,2-1.89c.81-1.28,1.74-1.87,3.24-1.44a.86.86,0,0,0,.71-.23c.7-.91.61-1.43-.27-2.17a2.38,2.38,0,0,0-.4-.31c-.67-.35-.68-.9-.59-1.57a7.7,7.7,0,0,0,.11-2.78,2.45,2.45,0,0,1,1.26-3.07.85.85,0,0,0,.37-.65c-.14-1.2-.57-1.52-1.78-1.38a5.06,5.06,0,0,0-.68.09,1,1,0,0,1-1.13-.48,11.78,11.78,0,0,0-2.49-2.63,2.2,2.2,0,0,1-1-2.68c.16-.69-.07-1-.71-1.28s-1.15-.25-1.54.41c-.16.26-.42.46-.59.72a1,1,0,0,1-1.22.47,9.42,9.42,0,0,0-3-.15c-1.51.32-2.61.09-3.38-1.32a.82.82,0,0,0-.67-.32c-1.14.19-1.37.52-1.3,1.68a3.07,3.07,0,0,0,.06.68c.18.6,0,.94-.55,1.32a12.62,12.62,0,0,0-2.51,2.38c-.69,1-1.37,1.47-2.56,1.1-.76-.24-1.16.1-1.43.85s-.19,1,.37,1.35c.31.19.56.48.86.69a1,1,0,0,1,.39,1.08,10.08,10.08,0,0,0-.09,3.19,2.33,2.33,0,0,1-1.22,2.85c-.52.29-.51.66-.34,1.21.25.84.7,1.14,1.54.94.28-.06.57-.05.85-.11a.94.94,0,0,1,1.05.46,10,10,0,0,0,2.16,2.37,2.71,2.71,0,0,1,1.41,3.26.84.84,0,0,0,.23.71c.91.7,1.38.62,2.09-.25a6.65,6.65,0,0,0,.54-.65,1,1,0,0,1,1.15-.44,9.64,9.64,0,0,0,3.11.16c1.47-.28,2.57-.1,3.32,1.29a.8.8,0,0,0,.66.35c1.07-.12,1.41-.58,1.32-1.63C61.56,42,61.55,41.82,61.54,41.48Z"/><path class="cls-1" d="M32.48,0C33.64.49,34.8,1,36,1.47a.83.83,0,0,1,.57,1.05c-.08.44-.22,1,0,1.32A5.29,5.29,0,0,0,38,5.33c.28.18.82,0,1.23,0a.88.88,0,0,1,1.13.59c.27.68.61,1.34.91,2,.45,1,.58,1.89-.61,2.57-.58.34-.56,2.4,0,2.75,1.13.66,1,1.52.59,2.49-.3.7-.65,1.38-.94,2.08a.8.8,0,0,1-1.06.55,1.87,1.87,0,0,0-2.06.69,1.88,1.88,0,0,0-.7,2.05.82.82,0,0,1-.58,1.12c-1,.39-2,.85-3,1.19a1.07,1.07,0,0,1-1-.28c-.71-1.35-2-1.05-3.05-1-.36,0-.72.58-1,.95a.82.82,0,0,1-1.09.35l-2.9-1.19A.88.88,0,0,1,23.31,21c.5-1.46-.82-1.95-1.5-2.73-.18-.21-.86,0-1.3,0a.81.81,0,0,1-1-.52c-.4-1-.81-2-1.22-3a.82.82,0,0,1,.37-1.21c1.22-.62.94-1.75.84-2.74,0-.34-.55-.68-.91-.93a.8.8,0,0,1-.33-1.09C18.64,7.91,19,7,19.41,6a1,1,0,0,1,1.25-.66c.38.07.9.21,1.15,0a6.91,6.91,0,0,0,1.54-1.56c.16-.23,0-.72-.05-1.07a1.08,1.08,0,0,1,.77-1.37c.58-.23,1.12-.55,1.7-.76C27.34,0,27.33,0,28.46,1.2a1.69,1.69,0,0,0,.87.35,2.48,2.48,0,0,0,3-1.55ZM22.3,15.62c.55-.28.87.1,1.26.61A7.43,7.43,0,0,0,25.28,18,1.57,1.57,0,0,1,26,19.65a2.64,2.64,0,0,0,.24.87c.27-.15.63-.25.78-.48a1.48,1.48,0,0,1,1.73-.63,8.12,8.12,0,0,0,2.36,0c.64-.07,1.12-.07,1.52.54.18.27.59.38.89.56a3,3,0,0,0,.22-1.05,1.25,1.25,0,0,1,.64-1.39,8.11,8.11,0,0,0,1.74-1.72,1.4,1.4,0,0,1,1.59-.74c.28.06.62-.18.93-.28a2.71,2.71,0,0,0-.54-.83,1.31,1.31,0,0,1-.58-1.43,8.48,8.48,0,0,0,0-2.36,1.4,1.4,0,0,1,.59-1.58c.24-.17.34-.55.5-.83a2.36,2.36,0,0,0-1-.25,1.34,1.34,0,0,1-1.52-.71,6.32,6.32,0,0,0-1.6-1.62A1.47,1.47,0,0,1,33.8,4c.05-.25-.17-.57-.27-.86-.26.15-.62.24-.77.47A1.48,1.48,0,0,1,31,4.22a9.5,9.5,0,0,0-2.44,0,1.26,1.26,0,0,1-1.39-.48c-.2-.29-.62-.43-.95-.64a3.36,3.36,0,0,0-.2,1.06,1.34,1.34,0,0,1-.67,1.4A6.93,6.93,0,0,0,23.7,7.24,1.51,1.51,0,0,1,22,8c-.24,0-.54.15-.81.23.14.27.2.65.42.8a1.42,1.42,0,0,1,.63,1.72,3.9,3.9,0,0,0,0,1.86,1.65,1.65,0,0,1-.76,2.08.65.65,0,0,0-.24.6c0,.16.36.24.58.31A2.05,2.05,0,0,0,22.3,15.62Z"/><path class="cls-1" d="M55.33,39a8.39,8.39,0,1,1,8.51-8.33A8.39,8.39,0,0,1,55.33,39Zm.07-2.52a5.86,5.86,0,1,0,0-11.72,5.86,5.86,0,1,0,0,11.72Z"/><path class="cls-1" d="M29.87,17a5.05,5.05,0,0,1-5.09-5.13A5.08,5.08,0,0,1,29.9,6.78a5.13,5.13,0,1,1,0,10.25Zm2.61-5.11a2.57,2.57,0,0,0-2.55-2.61A2.67,2.67,0,0,0,27.28,12a2.66,2.66,0,0,0,2.64,2.56A2.55,2.55,0,0,0,32.48,11.92Z"/></svg>