<svg id="Layer_1" data-name="Layer 1" xmlns="http://www.w3.org/2000/svg" width="60" height="60" viewBox="0 0 60 60"><defs><style>.cls-1{fill:#fff;}</style></defs><title>Migration-w</title><path class="cls-1" d="M0,28.43c.07-.36.15-.71.22-1.06a8.58,8.58,0,0,1,6.33-6.9,8.6,8.6,0,0,1,9.06,2.59c.08.08.14.17.25.3l21.8-12.58-2-3L45.73,7,41.3,16.12l-2.4-3.51L17.1,25.19a9.48,9.48,0,0,1,0,7.67L40.2,46.2l2.25-3.31L46.89,52l-10.11-.72L39,48,15.88,34.7a9.16,9.16,0,0,1-4.19,2.83A8.93,8.93,0,0,1,.12,30,2.9,2.9,0,0,0,0,29.61Zm15.72.6A6.74,6.74,0,1,0,9,35.76,6.75,6.75,0,0,0,15.72,29Z"/><path class="cls-1" d="M52.4,60a11.61,11.61,0,0,1-2.22-1.14,4.3,4.3,0,0,1-1.16-5,4.42,4.42,0,0,1,8.34.67c0,.14.1.27.15.41V56.2a19.05,19.05,0,0,1-1.25,2.37A4.44,4.44,0,0,1,53.71,60ZM53,57.77a2.15,2.15,0,0,0,2.26-2.12,2.22,2.22,0,0,0-2.16-2.32,2.27,2.27,0,0,0-2.28,2.22A2.21,2.21,0,0,0,53,57.77Z"/><path class="cls-1" d="M57.51,5.11c-.13.36-.24.73-.4,1.08a4.41,4.41,0,1,1-5.36-6c.18-.06.35-.15.52-.22h1.57a4.71,4.71,0,0,1,2.73,1.75,18.14,18.14,0,0,1,.94,2.05Zm-2.23-.69A2.21,2.21,0,0,0,53.1,2.19a2.25,2.25,0,0,0-2.26,2.24,2.28,2.28,0,0,0,2.21,2.23A2.23,2.23,0,0,0,55.28,4.42Z"/></svg>