<svg id="Layer_1" data-name="Layer 1" xmlns="http://www.w3.org/2000/svg" width="100" height="100" viewBox="0 0 100 100"><title>files</title><path d="M68.22,100a2.43,2.43,0,0,1-1.63-2.36q-1.44-15-3-30t-3-30c-.21-2.1-.41-4.19-.83-6.29V97.13c0,2.18-.4,2.59-2.56,2.59H6c-2.1,0-2.48-.39-2.48-2.52V11.73c0-2.05.39-2.44,2.43-2.44q25.68,0,51.35,0a7.69,7.69,0,0,1,3.26.87,2.42,2.42,0,0,1,.84,1.7c.4,3.48.71,7,1.06,10.47l2.28,22.85Q65.89,56.64,67,68.07q1.26,12.68,2.54,25.35c.09.94.2,1.88.31,3l23-2.29c-2.78-27.81-5.54-55.51-8.31-83.32l-5.31.51L80,17.83,63.52,10.69,77.94,0c.33,2.74.63,5.28,1,7.93L84,7.46c.52,0,1-.12,1.55-.14,1.59-.09,2.12.34,2.27,1.91Q89.16,22.91,90.5,36.6q1.38,13.86,2.78,27.73c.84,8.37,1.65,16.74,2.49,25.11.19,1.85.47,3.69.7,5.53v1a2.52,2.52,0,0,1-2.29,1.4q-10.16,1-20.31,2c-1.81.18-3.61.45-5.41.68ZM56.4,96.36V12.66h-23v83.7Zm-26.56,0V12.7h-23V96.34Z"/><path d="M83.81,63c.16,1.91-.18,2.33-2.08,2.53-2.3.24-4.6.5-6.9.69-1.52.12-2-.32-2.2-1.85q-1-10-2-20.11t-2-20.36c-.1-1-.21-2-.31-3-.14-1.47.32-2.1,1.78-2.27,2.5-.29,5-.53,7.5-.76a1.64,1.64,0,0,1,1.92,1.65C80,25,80.58,30.46,81.13,35.9l2.58,25.83C83.75,62.16,83.78,62.6,83.81,63ZM71.74,21.89c1.37,13.75,2.73,27.32,4.09,40.94l4.58-.48C79,48.64,77.68,35.06,76.32,21.42Z"/><path d="M86.69,81.54a6.7,6.7,0,1,1-13.4-.1,6.7,6.7,0,0,1,13.4.1ZM80,84.89a3.45,3.45,0,0,0,3.4-3.31,3.37,3.37,0,1,0-6.74,0A3.46,3.46,0,0,0,80,84.89Z"/><path d="M39.25,43q0-10.71,0-21.41c0-2,.42-2.48,2.41-2.48h6.82c1.47,0,2,.56,2,2V64.92c0,1.45-.56,2-2,2-2.35,0-4.71,0-7.06,0-1.62,0-2.15-.53-2.15-2.15Q39.24,53.88,39.25,43Zm7.86,20.56V22.5H42.67V63.56Z"/><path d="M44.84,90a6.69,6.69,0,1,1,6.74-6.64A6.67,6.67,0,0,1,44.84,90Zm3.43-6.7A3.44,3.44,0,0,0,44.93,80a3.4,3.4,0,1,0,3.34,3.37Z"/><path d="M12.79,43q0-10.77,0-21.53c0-1.95.42-2.37,2.39-2.37H22c1.47,0,2,.54,2,2q0,21.89,0,43.77c0,1.47-.58,2-2.05,2-2.35,0-4.71,0-7.06,0-1.64,0-2.14-.5-2.14-2.14Q12.77,53.89,12.79,43Zm3.36-20.54V63.52h4.44V22.47Z"/><path d="M18.22,90a6.69,6.69,0,1,1,6.86-6.39A6.66,6.66,0,0,1,18.22,90Zm-3.16-6.67a3.38,3.38,0,0,0,3.29,3.39,3.45,3.45,0,0,0,3.42-3.42A3.41,3.41,0,0,0,18.33,80,3.37,3.37,0,0,0,15.06,83.36Z"/></svg>