<svg id="Layer_1" data-name="Layer 1" xmlns="http://www.w3.org/2000/svg" width="75" height="75" viewBox="0 0 75 75"><title>self-service</title><path d="M0,53.17c.1-.39.2-.78.31-1.16a4.94,4.94,0,0,1,3.08-3.47,1.11,1.11,0,0,0,.81-1.28q0-8.91,0-17.82A10.38,10.38,0,0,1,15.45,19.12c3.87.26,6.64,2.31,9.2,4.88,2.36,2.36,4.7,4.73,7.05,7.09.17.17.34.31.55.5,2.29-2.9,4.54-5.78,6.8-8.65,1.88-2.39,3.77-4.77,5.63-7.18a1.31,1.31,0,0,1,1.37-.59c7.56.81,15.12,1.58,22.68,2.37l6.27.67v.18a5.29,5.29,0,0,0-.52.54c-2.64,3.76-5.28,7.51-7.88,11.3a2.71,2.71,0,0,0-.39,1.46q0,21.12,0,42.23V75.1h-2.7V35l-.21-.07L46.35,59.15,34.42,54.84V75.1H31.7V74c0-6.32,0-12.64,0-19,0-.89-.19-1.33-1.1-1.63-2.61-.85-5.18-1.83-7.76-2.77l-.74-.23v9.89H26.9L20.7,71.07,14.51,60.35h4.83V31.61L34.14,46l4.14-4.34a.72.72,0,0,0-.12-.18Q30,33.29,21.88,25.11A10.32,10.32,0,0,0,16.6,22c-4.73-.93-8.89,1.76-9.67,6.33a5.14,5.14,0,0,0-.08.88V47.8c0,.12,0,.23,0,.38.32.14.64.27,1,.42A5.4,5.4,0,1,1,.15,54.18,3.06,3.06,0,0,0,0,53.69Zm23.82-5c7.09,2.56,14,5.07,21,7.6.61.23.77-.18,1-.53q11.88-17,23.74-33.94c.17-.25.32-.52.51-.81a2,2,0,0,0-.33-.11Q58.44,19.18,47.13,18A1.13,1.13,0,0,0,46,18.5c-2.86,3.67-5.75,7.32-8.62,11L34,33.74l8.13,7.75-8,8.29-6.61-6.4ZM8.23,53.53a2.8,2.8,0,0,0-2.67-2.8,2.8,2.8,0,0,0-2.79,2.69,2.73,2.73,0,0,0,5.46.11ZM22.34,38.15l-.19.16v7.58l3.3-4.22Z"/><path d="M22.9.62A8.89,8.89,0,1,1,14,9.45,8.84,8.84,0,0,1,22.9.62Zm0,2.66a6.26,6.26,0,0,0-6.21,6.19,6.23,6.23,0,0,0,12.45,0A6.27,6.27,0,0,0,22.9,3.28Z"/></svg>