<svg id="Layer_1" data-name="Layer 1" xmlns="http://www.w3.org/2000/svg" width="75" height="75" viewBox="0 0 75 75"><defs><style>.cls-1{fill:none;}</style></defs><title>platform-independent</title><rect class="cls-1" x="22.37" y="34.56" width="6.94" height="4.42"/><rect class="cls-1" x="55.23" y="50.41" width="13.7" height="17.66"/><path class="cls-1" d="M67.4,46.73H56.76A1.5,1.5,0,0,0,55.26,48H68.91A1.54,1.54,0,0,0,67.4,46.73Z"/><path class="cls-1" d="M55.23,71.52a1.5,1.5,0,0,0,1.5,1.5H67.4a1.54,1.54,0,0,0,1.5-1.5v-1H55.23Z"/><path d="M38,66.3h-28V47.55a5,5,0,1,0-2.45,0v21.2H38v4.5l9.92-5.73L38,61.8ZM6.16,42.68a2.55,2.55,0,1,1,2.56,2.54h0A2.54,2.54,0,0,1,6.16,42.68Z"/><path d="M61,12.88h2.54V31.67a5,5,0,1,0,2.45,0V10.43H61V5.93l-9.93,5.72L61,17.38ZM67.29,36.5A2.54,2.54,0,1,1,64.75,34h0A2.54,2.54,0,0,1,67.29,36.5Z"/><path d="M43.92.5H7.76a4,4,0,0,0-4,4.05v26a4,4,0,0,0,4.05,4H19.92V39H17.16v2.45H34.55V39H31.76V34.56H43.92a4,4,0,0,0,4-4V15.36H45.52V30.5a1.6,1.6,0,0,1-1.6,1.59H7.76a1.6,1.6,0,0,1-1.6-1.59V4.55A1.6,1.6,0,0,1,7.76,3H43.92a1.6,1.6,0,0,1,1.6,1.6h0V9.34h0v6H48v-6h0V4.55a4,4,0,0,0-4-4ZM22.37,34.56H29.3V39H22.37Z"/><path d="M71.37,48a4,4,0,0,0-4-3.68H56.76a4,4,0,0,0-4,3.68h0V71.52a4,4,0,0,0,4,4H67.4a4,4,0,0,0,4-4V48ZM56.76,46.73H67.4A1.54,1.54,0,0,1,68.9,48H55.26A1.5,1.5,0,0,1,56.76,46.73ZM68.94,71.52a1.54,1.54,0,0,1-1.5,1.5H56.76a1.5,1.5,0,0,1-1.5-1.5v-1H68.94Zm0-3.45H55.23V50.41H68.94Z"/></svg>