<svg id="Layer_1" data-name="Layer 1" xmlns="http://www.w3.org/2000/svg" width="75" height="75" viewBox="0 0 75 75"><title>portfolio-management</title><path d="M53,.7V13.29H72.66V55.13a7.28,7.28,0,0,1,1.09,1.12,17.43,17.43,0,0,1,.91,2c.45,1,.57,1.88-.61,2.58-.69.41-.61,2.53.09,3A1.53,1.53,0,0,1,74.73,66c-.19.41-.3.85-.48,1.26-.7,1.57-.71,1.52-2.38,1.56-.39,0-.79.38-1.16.63a2.08,2.08,0,0,0-1,2.46,1,1,0,0,1-.41.83A28.92,28.92,0,0,1,66,74.13a1.13,1.13,0,0,1-1-.46c-.76-1.38-2.05-.84-3.13-.86-.32,0-.68.62-1,1a.81.81,0,0,1-1.08.33c-1-.41-1.94-.8-2.91-1.18a1,1,0,0,1-.7-1.26,2.43,2.43,0,0,0-2.86-2.79.88.88,0,0,1-1.11-.6c-.39-1-.78-2-1.19-2.92a1,1,0,0,1,.42-1.3,2.32,2.32,0,0,0,0-3.7,1,1,0,0,1-.41-1.3c.24-.59.43-1.19.64-1.79.41-1.2,1-2,2.52-1.69.32.08.8-.46,1.2-.73a1.76,1.76,0,0,0,.81-2.14.91.91,0,0,1,.65-1.19c.64-.27,1.24-.6,1.89-.85,1.56-.59,1.55-.56,2.69.63a1.81,1.81,0,0,0,.91.37c.26.06.55-.06.81,0a1.43,1.43,0,0,0,1.71-.79,1.08,1.08,0,0,1,1.58-.47c.54.24,1.13.4,1.68.65,1.59.72,1.57.74,1.52,2.48a.85.85,0,0,0,.42.69V31.46H44.31v4.63h-12v-4.6H6.46V59.73H38.27V55.15l10.22,5.9L38.3,66.94V62.32H3.86V19.6A5.25,5.25,0,0,1,.23,16.08a5.12,5.12,0,0,1,9.58-3.56,1.11,1.11,0,0,0,1.25.81c3.86,0,7.71,0,11.56,0h1V12.16q0-5.16,0-10.3c0-.39.06-.78.09-1.16ZM44.31,28.79H70.12V15.88h-59c-.15,0-.33-.06-.45,0s-.59.26-.69.48a5.16,5.16,0,0,1-3,3,.81.81,0,0,0-.61.92c0,2.62,0,5.24,0,7.86a6.28,6.28,0,0,0,.08.66H32.27V24.15h12ZM26.24,3.42V13.2H50.35V3.42ZM59,54.44c.33.65-.2,1-.72,1.4a11.86,11.86,0,0,0-1.82,1.86,1.34,1.34,0,0,1-1.33.65,3.55,3.55,0,0,0-1.16.27,3.59,3.59,0,0,0,.63.94,1.24,1.24,0,0,1,.51,1.38,7.29,7.29,0,0,0,0,2.42A1.42,1.42,0,0,1,54.44,65c-.25.17-.32.6-.47.91a2.49,2.49,0,0,0,.93.21,1.35,1.35,0,0,1,1.57.68,6.24,6.24,0,0,0,1.62,1.66A1.68,1.68,0,0,1,59,70.42c0,.24.2.53.31.8.26-.13.63-.2.75-.41a1.53,1.53,0,0,1,1.9-.71,4.28,4.28,0,0,0,1.78.06c1-.2,1.87-.23,2.43.84a.62.62,0,0,0,.57.2c.16,0,.39-.36.35-.49-.36-1.25.35-1.9,1.26-2.53a4.7,4.7,0,0,0,1.26-1.4,1.31,1.31,0,0,1,1.5-.64,2.86,2.86,0,0,0,1-.26c-.17-.3-.27-.7-.53-.88A1.39,1.39,0,0,1,71,63.38a6.29,6.29,0,0,0,0-2.33,1.37,1.37,0,0,1,.62-1.59c.24-.18.34-.55.51-.83a2.74,2.74,0,0,0-1-.3,1.44,1.44,0,0,1-1.56-.7,7.3,7.3,0,0,0-1.77-1.78A1.44,1.44,0,0,1,67,54.23c.06-.3-.19-.65-.29-1-.3.18-.69.29-.88.55a1.28,1.28,0,0,1-1.5.6,5.76,5.76,0,0,0-2.15-.06c-1,.18-1.8.16-2.33-.87a.63.63,0,0,0-.56-.21,1.18,1.18,0,0,0-.37.6A1.68,1.68,0,0,0,59,54.44ZM41.74,26.71H34.87v6.8h6.91V27.12C41.78,27,41.76,26.89,41.74,26.71ZM5.12,17.14a2.58,2.58,0,0,0,2.62-2.55A2.7,2.7,0,0,0,5.14,12a2.63,2.63,0,0,0-2.59,2.6A2.53,2.53,0,0,0,5.12,17.14Z"/><path d="M56.57,62.2A6.43,6.43,0,1,1,63,68.63,6.46,6.46,0,0,1,56.57,62.2Zm6.36,3.87a3.84,3.84,0,1,0-3.8-3.91A3.94,3.94,0,0,0,62.93,66.07Z"/></svg>