<svg id="Layer_1" data-name="Layer 1" xmlns="http://www.w3.org/2000/svg" width="60" height="60" viewBox="0 0 60 60"><defs><style>.cls-1{fill:#fff;}</style></defs><title>Product-implimentation-w</title><path class="cls-1" d="M0,14.22v-.64a6.66,6.66,0,0,1,1-.73Q7.76,8.89,14.59,5A.8.8,0,0,0,15.1,4a3.15,3.15,0,0,1,1-2.93A11,11,0,0,1,18,0h1.56c.16.08.33.17.5.24A3.58,3.58,0,0,1,22.31,4.1a.68.68,0,0,0,.44.83q6.93,4,13.85,8a6.63,6.63,0,0,1,.77.65v.9a1.15,1.15,0,0,0-.1.23C36.14,22.16,35,29.6,33.91,37.05a2.47,2.47,0,0,1-1.22,2c-1.37.83-2.67,1.78-4,2.65a3.68,3.68,0,0,1,.51.62c.39.88.74,1.78,1.12,2.67A.81.81,0,0,1,30,46.13a2,2,0,0,0-1,1.93A2.4,2.4,0,0,0,30.2,50.5a.76.76,0,0,1,.21.68c-.36,1-.75,2-1.2,3a.82.82,0,0,1-.66.39,2.15,2.15,0,0,0-2.61,1l-.09.09c-.86.43-.88,1.17-.73,2a.61.61,0,0,0,0,.13c.17.51-.06.79-.53,1l-3,1.25h-.25c-.36-.45-.72-.91-1.09-1.36a.52.52,0,0,0-.3-.19c-1.38.09-3-.4-3.77,1.34A.74.74,0,0,1,16,60h-.25l-3.13-1.33a.57.57,0,0,1-.4-.75,2.35,2.35,0,0,0-.86-2.5c-.74-.69-1.35-1.16-2.37-.86a.68.68,0,0,1-.91-.48c-.21-.53-.51-1-.72-1.58-.63-1.61-.62-1.61.67-2.74a1,1,0,0,0,.29-.57c0-.31-.12-.65,0-.95a2,2,0,0,0-1.09-2.3A.76.76,0,0,1,7,45.27c.37-1,.78-2,1.22-3.05.08-.2.34-.33.54-.52-1.09-.74-2.2-1.57-3.38-2.25a3.68,3.68,0,0,1-2-3C2.57,30.3,1.58,24.13.64,18,.44,16.71.21,15.47,0,14.22Zm26.26,26.9c1.86-1.26,3.71-2.5,5.56-3.77a.88.88,0,0,0,.25-.54Q33.14,29.92,34.16,23c.37-2.42.74-4.84,1.13-7.36l-.63.34q-7.53,4.34-15,8.69a1.59,1.59,0,0,1-1.83,0c-5-2.91-10-5.78-15-8.67l-.67-.35.38,2.6c.84,5.53,1.74,11,2.48,16.59a4.19,4.19,0,0,0,2.22,3.64A43.26,43.26,0,0,1,11.06,41a1.86,1.86,0,0,0,1.2-2.49v-.06c-.12-.36,0-.57.36-.71.76-.34,1.51-.73,2.29-1,1.07-.4,1.08-.36,1.8.51a4.78,4.78,0,0,0,.55.63c.23.18.53.22.54-.19,0-1,0-2,0-3H14.52l4.18-7.24,4.21,7.28H19.66v3.37a2.36,2.36,0,0,0,.61-.34c.32-.32.57-.71.89-1a.69.69,0,0,1,.58-.18c1.05.39,2.08.81,3.09,1.28a.75.75,0,0,1,.32.64,2.09,2.09,0,0,0,1,2.57ZM2.78,13.89c.32.19.54.33.76.45q7.29,4.22,14.58,8.43a1,1,0,0,0,1.16,0c4.95-2.87,9.91-5.72,14.87-8.59.13-.08.25-.18.38-.27l-.06-.09Q28.05,10.1,21.62,6.39a.69.69,0,0,0-.6.09,3.82,3.82,0,0,1-2.46.79,4,4,0,0,1-2.49-1Zm20.5,43.46c0-.38-.05-.79-.12-1.19a1,1,0,0,1,.47-1.07,6.62,6.62,0,0,0,1.67-1.58,1.72,1.72,0,0,1,2.07-.89.78.78,0,0,0,.64-.11,1,1,0,0,0-.14-1.59,4,4,0,0,0-.45-.37c-.35-.21-.36-.47-.31-.86a6.7,6.7,0,0,0,.09-2.18,1.74,1.74,0,0,1,.87-2.18.64.64,0,0,0,.33-.48,1,1,0,0,0-1.22-1,3,3,0,0,0-.52,0c-.44.11-.68-.09-.95-.43a7.09,7.09,0,0,0-1.58-1.69,1.74,1.74,0,0,1-.89-2.18.72.72,0,0,0-.13-.58,1,1,0,0,0-1.58.15,3.19,3.19,0,0,0-.33.4c-.25.41-.58.44-1,.36a6,6,0,0,0-2.11-.08,1.93,1.93,0,0,1-2.41-1,.56.56,0,0,0-.45-.26,1,1,0,0,0-1,1.19,2.85,2.85,0,0,0,0,.51c.12.5-.1.77-.49,1.06a6,6,0,0,0-1.59,1.49,1.87,1.87,0,0,1-2.3.94.58.58,0,0,0-.49.15,1,1,0,0,0,.19,1.6,3,3,0,0,1,.53.46,1.06,1.06,0,0,1,.22.61A11.7,11.7,0,0,0,10.24,49a1.77,1.77,0,0,1-.91,2.07.66.66,0,0,0-.31.48c.05.79.43,1.09,1.23,1a3,3,0,0,0,.52-.06c.42-.13.63.09.9.4a17,17,0,0,0,2,2.05,1.1,1.1,0,0,1,.54,1.23c0,.14,0,.3,0,.45-.16.53.05.78.56,1s.8.13,1.06-.31c.09-.14.24-.25.33-.4.28-.47.67-.51,1.2-.45a11,11,0,0,0,2.63,0,1.28,1.28,0,0,1,1.41.54c.68.91.72.89,1.75.35ZM20.55,3.66a1.85,1.85,0,0,0-3.7,0,1.87,1.87,0,0,0,1.82,1.81A1.84,1.84,0,0,0,20.55,3.66Z"/><path class="cls-1" d="M18.71,42.13a6.09,6.09,0,1,1-6.15,6A6.12,6.12,0,0,1,18.71,42.13Zm0,1.82A4.27,4.27,0,1,0,23,48.22,4.36,4.36,0,0,0,18.72,44Z"/></svg>