<svg id="Layer_1" data-name="Layer 1" xmlns="http://www.w3.org/2000/svg" width="100" height="100" viewBox="0 0 100 100"><title>reactive-to-proactive</title><path d="M87.73,40.77c-.36,1.9-.62,3.82-1.07,5.69A37.07,37.07,0,0,1,71.88,68.34a1.3,1.3,0,0,0-.57,1.82c2.9,7.8,5.75,15.61,8.61,23.41.12.31.23.63.38,1.05H66.6V91.81h9.54C73.52,84.65,71,77.7,68.37,70.63a37.9,37.9,0,0,1-36.67,0L24,91.71H48.5V86.44l11.68,6.74c-.41.27-.7.48-1,.66l-9.54,5.51a8.94,8.94,0,0,0-.87.65h-.22V94.7H19.72l9.4-25.64-.53-.39A37.55,37.55,0,0,1,12.85,43.81c-.22-1.31-.38-2.63-.58-4V35.59a2.94,2.94,0,0,0,.19-.62,37,37,0,0,1,8-20.55,1.24,1.24,0,0,0,.18-1.5A5.86,5.86,0,0,1,29,5.45a1.25,1.25,0,0,0,1.58,0A36.63,36.63,0,0,1,42.45.77C43.94.46,45.46.25,47,0H53c.8.14,1.6.3,2.41.41A37.66,37.66,0,0,1,86.83,29.64c.36,1.67.6,3.36.9,5ZM31.46,8.34c.07.28.12.45.16.63,1,4.89-3.08,8.54-7.82,7-.82-.27-1,.21-1.32.62a33.94,33.94,0,0,0-6.76,26.49A34.78,34.78,0,0,0,55.4,72C77.72,68.61,91.06,44.6,81.88,24,76.16,11.14,66,4.15,52,3A33,33,0,0,0,31.46,8.34ZM28.91,10.5a3,3,0,1,0-6-.09,3.05,3.05,0,0,0,3,3A3.1,3.1,0,0,0,28.91,10.5Z"/><path d="M61.51,27.59h6.35V60.53H59V33.22c-1.05,1-2,1.78-2.73,2.66A2,2,0,0,0,56,37.13c0,7.32,0,14.63,0,21.95V60.5H47.07V59.21c0-6.35,0-12.69,0-19,0-1-.18-1.38-1.31-1.51a15.52,15.52,0,0,1-3.93-1.21,1.16,1.16,0,0,0-1.53.27C36.71,41.39,33.06,45,29.43,48.65c-.29.29-.59.56-.81.77l-5.29-5.29.7-.74q5.49-5.49,11-11a1.12,1.12,0,0,0,.26-1.52C33,25.65,33.52,20.65,37.18,16.25a13,13,0,0,1,14.07-4.48c5.49,1.45,8.86,5.17,10,10.75A35.51,35.51,0,0,1,61.51,27.59ZM41.17,33.52V21H54V33.79a10.69,10.69,0,0,0,4.22-11.6,10.83,10.83,0,0,0-20.57-1A10.64,10.64,0,0,0,41.17,33.52Zm20.87-3v27h2.89v-27ZM44.15,23.88c0,3.7,0,7.28,0,10.87a1,1,0,0,0,.68.66c1.77.1,3.54.15,5.31.11.25,0,.69-.58.7-.89,0-3.45,0-6.89,0-10.33a1.44,1.44,0,0,0-.13-.42ZM50,57.59h3V37.9a16.54,16.54,0,0,1-2.11.59c-.73.1-.92.44-.91,1.12,0,2.55,0,5.09,0,7.64ZM37.61,34.39l-10,10,.74.7,10-10Z"/><path d="M35.24,45.52h8.85V60.38H35.24Zm5.83,12v-9h-2.9v9Z"/></svg>