<svg id="Layer_1" data-name="Layer 1" xmlns="http://www.w3.org/2000/svg" width="100" height="100" viewBox="0 0 100 100"><title>real-time-3D-drawings</title><path d="M11.6,62.61c-3.87,2.58-7.5,2.38-10-.5a6.38,6.38,0,0,1,0-8.41c2.51-2.89,6.19-3.09,10-.5,4.86-2.72,9.7-5.53,14.64-8.14a3.39,3.39,0,0,0,2.14-3.59c-.15-5.71-.11-11.43,0-17.14a2.43,2.43,0,0,1,1-1.79C36,18.73,42.76,15,49.46,11.25a2.31,2.31,0,0,1,2.51,0Q62,16.89,72.1,22.49a1.93,1.93,0,0,1,1,2c0,6.12,0,12.25,0,18.38a1.43,1.43,0,0,0,.84,1.49Q81,48.23,88.09,52.24a1.56,1.56,0,0,0,1.8,0,6.79,6.79,0,0,1,8.4,1.3,6.38,6.38,0,0,1,.59,8,6.82,6.82,0,0,1-9,2,1.46,1.46,0,0,0-1.7,0Q73.22,71.93,58.25,80.29c-.52.29-1,.49-.87,1.32a6.17,6.17,0,0,1-3.3,6.56,6.51,6.51,0,0,1-7.21-.29c-2.44-1.66-3.28-4-2.74-7ZM73.09,47.82c0,1.54-.07,2.85,0,4.15a2.52,2.52,0,0,1-1.53,2.67Q61.88,60,52.24,65.47a2.72,2.72,0,0,1-3,0Q39.62,60,30,54.72a2.71,2.71,0,0,1-1.67-2.84c.09-1.27,0-2.56,0-4-.6.32-1,.49-1.31.69-3.72,2.08-7.39,4.22-11.16,6.2-1.62.85-2.93,1.67-2.38,3.78a.2.2,0,0,1,0,.11c-.25.77.16,1.12.78,1.47q10.53,5.85,21,11.74L45.87,77.8c3.8-2.48,5.56-2.48,9.72,0L58.71,76q13.58-7.61,27.16-15.19c.71-.39,1-.7.8-1.62a6.59,6.59,0,0,1,0-2.76,1.08,1.08,0,0,0-.62-1.41c-2.53-1.37-5-2.79-7.53-4.2ZM69.83,26.67l-1.46.79Q60.22,32,52.1,36.58a2.22,2.22,0,0,1-2.4.21Q43,33,36.26,29.24c-1.51-.85-3-1.67-4.63-2.55,0,.37-.08.55-.08.74,0,7.91,0,15.83,0,23.75a1.63,1.63,0,0,0,.71,1.18c4.17,2.39,8.36,4.72,12.55,7.06,1.38.78,2.77,1.54,4.26,2.36V52.92h-6l7.58-12.73L58.3,52.94h-6v8.75c.35-.15.63-.23.88-.37q7.94-4.44,15.89-8.87a1.49,1.49,0,0,0,.82-1.52c0-7.66,0-15.32,0-23C69.89,27.6,69.86,27.24,69.83,26.67ZM33.21,24c.38.28.57.45.78.57,5.33,3,10.65,6,16,8.93a1.89,1.89,0,0,0,1.51,0c4-2.16,7.87-4.38,11.8-6.58l5-2.8c-.45-.29-.72-.47-1-.63-5.23-2.93-10.47-5.84-15.68-8.8a1.54,1.54,0,0,0-1.73,0c-2.72,1.56-5.45,3.08-8.18,4.61ZM50.74,79.13a3.4,3.4,0,1,0,0,6.79,3.45,3.45,0,0,0,3.55-3.39A3.39,3.39,0,0,0,50.74,79.13ZM6.64,61.31A3.42,3.42,0,1,0,7,54.48a3.48,3.48,0,0,0-3.76,3.3A3.44,3.44,0,0,0,6.64,61.31Zm86.65-6.83a3.42,3.42,0,1,0-.21,6.84,3.43,3.43,0,1,0,.21-6.84Z"/></svg>