<svg id="Layer_1" data-name="Layer 1" xmlns="http://www.w3.org/2000/svg" width="100" height="100" viewBox="0 0 100 100"><title>P1-outages</title><path d="M84.08,94.49l8.58-9.07-19-18.33-3.27,3.46c-1.35-5-2.6-9.68-3.91-14.58L80.9,59.81,76.4,64l22,21.24L84,100l-4.15-4.19L62.23,78c-3.95-4-7.91-8-11.83-12a1.36,1.36,0,0,0-1.9-.34A32.11,32.11,0,0,1,2.41,44.15C-1.81,26.34,10.5,8.07,28.6,5.32,30,5.11,31.36,5,32.75,4.9A1.21,1.21,0,0,0,34,4.1,6.75,6.75,0,0,1,47,6.87c0,.73.33.93.86,1.2,10.29,5.23,16.48,13.58,17.88,25,1.46,11.81-2.75,21.61-11.93,29.24l-.83.66Zm-22-58.08c-.53-10.71-5.6-19.27-15.78-24.7a1.2,1.2,0,0,0-1.64.16A6.7,6.7,0,0,1,34.07,9.71a1.37,1.37,0,0,0-1.53-.92,28.25,28.25,0,1,0,18.4,50.68C58.29,53.92,61.83,46.31,62.12,36.41ZM43.6,6.87a3.36,3.36,0,0,0-3.33-3.45,3.43,3.43,0,0,0-3.51,3.29,3.51,3.51,0,0,0,3.42,3.56A3.45,3.45,0,0,0,43.6,6.87Z"/><path d="M51.89,23.94l3,2.38a66.33,66.33,0,0,1-4.39,5.36,8.68,8.68,0,0,1-3.2,1.5c-.79.29-1.14.68-1,1.54a19.06,19.06,0,0,1,0,2.14c1.93.11,3.88-.19,5.51.4,2.12.77,4,2.25,6,3.48l-2,3.36c-3-1.66-5.59-4.22-9.47-3l-.25,4c1.78.64,3.59,1.33,5.43,1.94a1.17,1.17,0,0,1,1,1.34c-.05,2.66,0,5.32,0,8H48.58c0-1.81,0-3.55,0-5.29,0-.71-.17-1.14-.9-1.27a1.49,1.49,0,0,1-.44-.17,4.36,4.36,0,0,0-5.28.5C38.06,53.35,28,53.39,24.06,49c-.18-.19-.59-.18-.9-.24a.49.49,0,0,0-.22.06c-1.26.48-3,.63-3.64,1.55s-.22,2.58-.25,3.93c0,.7,0,1.41,0,2.18h-3.9c0-2.91,0-5.76,0-8.62,0-.23.47-.56.79-.68,1.92-.73,3.87-1.41,5.72-2.07V40.7a26.79,26.79,0,0,0-5.23.74,28,28,0,0,0-4.65,2.66l-2-3.36c2.08-1.24,4-2.51,6.12-3.58A5.61,5.61,0,0,1,18.28,37c1.07,0,2.14,0,3.39,0,0-1,0-1.88,0-2.78A1,1,0,0,0,21,33.5C18,32.75,16,30.69,14.26,28.21c-.42-.62-.94-1.18-1.5-1.89l3-2.45C16.7,25,17.64,26,18.43,27.15a4.89,4.89,0,0,0,3.08,2.25c1.28-1.37,2.51-2.64,3.65-4a1.7,1.7,0,0,0,.24-1.21c-.37-2.44.63-4.19,2.21-6a7.1,7.1,0,0,1,5.87-2.64c3.17-.09,5.39.71,7.39,3.28A6.84,6.84,0,0,1,42.44,24a2.21,2.21,0,0,0,.88,2,38.13,38.13,0,0,1,2.92,3.33C49,28.77,49.77,25.63,51.89,23.94Zm-20,4.36H29.17a3.55,3.55,0,0,0-3.59,3.58c0,3.49.15,7,0,10.48-.21,3.79,3.21,5.91,6.36,5.86ZM36,48.55A31,31,0,0,0,39.89,47a4.3,4.3,0,0,0,2.4-4c0-3.82,0-7.64,0-11.45a3.59,3.59,0,0,0-.62-1.73c-1.38-2.21-3.57-1.51-5.64-1.54ZM38.51,24.4c.15-1.7-1-4.38-2.39-4.68s-3.32-.48-4.47.19c-1.39.82-3,2.22-2.24,4.49Z"/></svg>