<svg id="Layer_1" data-name="Layer 1" xmlns="http://www.w3.org/2000/svg" width="100" height="100" viewBox="0 0 100 100"><title>risk-analysis</title><path d="M45.16,100V78.78H4.52C19.73,52.43,34.83,26.29,50,0L72.67,39.26,70,40.8c-6.67-11.56-13.3-23-20-34.7L9.8,75.73H45.12c0-.48,0-.9,0-1.32.08-.7-.19-1-.89-1.21-7.05-2.31-11.73-7-13.68-14.19A20.05,20.05,0,0,1,47,34.07l1.45-.25v-13h3v13c1,.19,2,.34,2.93.54A20.12,20.12,0,0,1,56.48,73c-1.59.54-1.59.53-1.39,2.71h35.1L81.72,61l-4.59,2.61V49.77l12,6.95L84.36,59.5C88,65.89,91.7,72.22,95.48,78.77H55.05v1.32q0,9.15,0,18.3a12.83,12.83,0,0,0,.19,1.61Zm3.3-63A17,17,0,0,0,32.94,54.26c.17,9.41,8.27,17.12,17.37,16.79A17.17,17.17,0,0,0,67.07,53.31C66.62,42.74,57.53,37,51.44,37.08V50.66h-3ZM52,78.86H48.26v18H52Zm0-4.75H48.08l.08,1.61H52Z"/><path d="M44,62.22a6.06,6.06,0,1,1,5.94,6.23A6,6,0,0,1,44,62.22Zm3,.09a3.08,3.08,0,0,0,3,3.14A3.09,3.09,0,1,0,50,59.27,3.09,3.09,0,0,0,47,62.31Z"/></svg>