<svg id="Layer_1" data-name="Layer 1" xmlns="http://www.w3.org/2000/svg" width="100" height="100" viewBox="0 0 100 100"><title>robotics</title><path d="M100,30.65,83.89,39.14,75.4,30.26l-.14,2.79H57.36V28H33.3c2.68,6,5.32,11.9,8,17.92l-3.17,1.44L30.08,29.44C25.25,35.85,19,38.12,11.16,36.09l5.62,12.55c3.35,7.5,6.72,15,10,22.5a1.76,1.76,0,0,0,1.93,1.22c6.24-.09,12.48-.11,18.72-.16.52,0,1-.07,1.71-.12l-3.3-7.37L40,67.14,42,51.2l12.8,9.71-5.69,2.44c1.1,2.47,2.25,4.88,3.23,7.35.49,1.25,1.11,1.84,2.52,1.66a32.52,32.52,0,0,1,3.84,0c.81,2.83,1.61,5.63,2.42,8.43q2.34,8.14,4.67,16.3A9.7,9.7,0,0,1,66,98.39H10.92a4.82,4.82,0,0,1,.09-.86c2.33-8.12,4.69-16.24,7-24.38.19-.64.46-.85,1.1-.83,1.42,0,2.83,0,4.37,0-.17-.43-.24-.66-.34-.88Q14.76,52.68,6.36,34a5.06,5.06,0,0,0-1.1-1.46A16.4,16.4,0,0,1,.35,23.37C.24,22.74.12,22.1,0,21.46V19.73a3.54,3.54,0,0,0,.21-.68,16.19,16.19,0,0,1,30-6.74,1.72,1.72,0,0,0,1.74,1c8,0,16,0,24.06,0,.4,0,.8,0,1.31-.06v-5h17.9l.18,2.36,8.45-9h.25c1.78,1,3.55,2,5.35,3,3.5,1.85,7,3.64,10.53,5.46v.25l-1.71,2.87c-.46-.23-.87-.41-1.26-.62-3.87-2-7.75-4.06-11.6-6.12A1,1,0,0,0,84,6.62c-2.63,2.8-5.31,5.55-7.91,8.37a3.16,3.16,0,0,0-.71,1.85q-.12,3.54,0,7.06a3.25,3.25,0,0,0,.75,2c2.59,2.83,5.28,5.57,7.91,8.38a1,1,0,0,0,1.38.16c1.78-1,3.57-1.89,5.36-2.83l7.5-3.94L100,30.4ZM15.47,94.71h46c-1.82-6.36-3.62-12.61-5.41-18.85H20.87C19.08,82.12,17.29,88.34,15.47,94.71Zm13.63-74A12.88,12.88,0,0,0,16.48,7.85,12.94,12.94,0,0,0,3.55,20.52a12.78,12.78,0,1,0,25.55.15Zm31.78-9V29.56H71.8V11.63ZM32.38,24.39H57.23V16.81H32.38Z"/><path d="M16.42,13.69a7,7,0,1,1-7,6.8A6.83,6.83,0,0,1,16.42,13.69Zm3.43,7a3.51,3.51,0,1,0-3.6,3.48A3.56,3.56,0,0,0,19.85,20.68Z"/></svg>