<svg id="Layer_1" data-name="Layer 1" xmlns="http://www.w3.org/2000/svg" width="100" height="100" viewBox="0 0 100 100"><title>safety</title><path d="M52.6,100c-6.46-3.19-12.93-6.37-19.37-9.59-2.74-1.36-5.47-2.72-8.12-4.23C18.55,82.42,15,76.79,15,69.15c0-6.15,0-12.3,0-18.45V49.35H9.1l7.58-13,7.43,13H18.23V69c0,6.39,2.83,11.27,8.4,14.21,8.47,4.48,17.09,8.64,25.66,12.91a1.64,1.64,0,0,0,1.25,0c8.57-4.26,17.21-8.42,25.67-12.9,5.52-2.92,8.37-7.74,8.37-14.1q0-20.13,0-40.24V27.41c-2.7-.51-5.34-.92-7.93-1.52-8.64-2-16.53-5.59-23.19-11.61a7.74,7.74,0,0,1-.82-.8A1.34,1.34,0,0,0,54,13a4.27,4.27,0,0,1-2,0,2,2,0,0,0-2.11.59c-6.47,6.24-14.32,9.93-22.94,12-3.14.76-6.38,1.17-9.58,1.69C16,27.56,15.14,27.05,15,26s.58-1.73,2.08-1.89a58.7,58.7,0,0,0,19.75-5.48A42.21,42.21,0,0,0,48,10.93,6.58,6.58,0,0,1,49.72.9c.7-.36,1.46-.6,2.19-.9H54c.31.13.61.27.92.38A6.43,6.43,0,0,1,59,8.82a22.83,22.83,0,0,1-1.22,2.41c2,1.49,3.89,3.13,6,4.51,7.47,4.9,15.79,7.36,24.59,8.34,1.06.12,2.07.22,2.53,1.38v46.1a1.56,1.56,0,0,0-.19.39,19.12,19.12,0,0,1-10.5,14.52q-5.82,3-11.69,6c-5.07,2.54-10.16,5-15.23,7.54Zm.27-90.14a3.37,3.37,0,0,0,3.37-3.2,3.39,3.39,0,0,0-3.33-3.38,3.34,3.34,0,0,0-3.29,3.28A3.31,3.31,0,0,0,52.87,9.86Z"/><path d="M47.7,62.92l4.93-5L68.35,42.24a8.27,8.27,0,0,1,.74-.71,1.63,1.63,0,0,1,2.26,2.35c-.19.23-.42.44-.64.66L49.48,65.77c-1.44,1.44-2.11,1.45-3.52,0L33.4,53.24a6.09,6.09,0,0,1-.77-.84,1.52,1.52,0,0,1,.14-2.09A1.55,1.55,0,0,1,35,50.18a7.07,7.07,0,0,1,.74.71Z"/></svg>