<svg id="Layer_1" data-name="Layer 1" xmlns="http://www.w3.org/2000/svg" width="100" height="100" viewBox="0 0 100 100"><title>Collaboration</title><path d="M22.3,14.14l8.23-12,2.67,5C48.55,1.74,63,3.52,76.6,12.64l-2,2.58a42.56,42.56,0,0,0-39.82-5.06L37.21,15Z"/><path d="M13,38H2.38C.45,38,0,37.48,0,35.54V29.26c0-5.53,3.47-9.54,9-10a49.91,49.91,0,0,1,8.73.07,9.37,9.37,0,0,1,8.43,9.46c0,2.26,0,4.52,0,6.77,0,1.91-.47,2.38-2.42,2.38Zm9.75-3.33c0-2.26.11-4.39,0-6.51a5.94,5.94,0,0,0-5.33-5.55,63.14,63.14,0,0,0-8.59,0,5.71,5.71,0,0,0-5.21,4.68,62.65,62.65,0,0,0-.06,7.39Z"/><path d="M5.34,41.68l3.27.4c-1.34,14.41,3.55,26.26,14.6,35.68l1.58-2.25,1.58-2.27c2.23,4.37,4.35,8.53,6.6,13l-14.91-1,3.26-4.77C9.32,70.36,3.84,57.56,5.34,41.68Z"/><path d="M90.3,55l-5.88-.5,8.45-11.9,6.46,13-5.59-.37C90.2,70.44,81.12,80.78,66.89,87l-1.31-3a41.86,41.86,0,0,0,16-11.39A38.88,38.88,0,0,0,90.3,55Z"/><path d="M86.9,38.81H76.08c-1.68,0-2.18-.52-2.19-2.2,0-2.22,0-4.43,0-6.64,0-5,3.08-9,8-9.64a40.65,40.65,0,0,1,10.28,0C96.9,21,100,25,100,29.8c0,2.3,0,4.59,0,6.89,0,1.58-.53,2.11-2.15,2.11Zm9.73-3.28c0-2.14.1-4.22,0-6.29a6.21,6.21,0,0,0-6.07-5.93c-2.41-.1-4.84-.09-7.25,0a5.92,5.92,0,0,0-5.74,4.55,62.58,62.58,0,0,0-.44,7.67Z"/><path d="M49.63,97.9H38.79c-1.69,0-2.17-.49-2.18-2.21,0-2.3,0-4.6,0-6.9a9.54,9.54,0,0,1,9.62-9.61,54.92,54.92,0,0,1,8.71.27,9.22,9.22,0,0,1,7.78,9.15c.07,2.42,0,4.84,0,7.26,0,1.5-.59,2-2.13,2Zm9.73-3.24c0-2.06,0-4,0-6a6.32,6.32,0,0,0-6.14-6.28c-2.37-.07-4.75-.06-7.13,0-2.66.07-5.29,1.82-5.77,4.35a62.41,62.41,0,0,0-.54,7.91Z"/><path d="M13,18.44a6.93,6.93,0,0,1-7-6.77,7,7,0,0,1,7.09-6.85,7,7,0,0,1,7,6.79A6.93,6.93,0,0,1,13,18.44Zm.08-3.23a3.62,3.62,0,0,0,3.66-3.65,3.71,3.71,0,0,0-7.41.1A3.62,3.62,0,0,0,13.1,15.21Z"/><path d="M56.68,71.58a7,7,0,1,1-7-6.75A6.89,6.89,0,0,1,56.68,71.58Zm-7-3.52A3.61,3.61,0,0,0,46,71.6a3.69,3.69,0,0,0,3.71,3.62,3.75,3.75,0,0,0,3.72-3.51A3.64,3.64,0,0,0,49.71,68.06Z"/><path d="M86.9,5.74A6.92,6.92,0,0,1,94,12.55a7.07,7.07,0,0,1-14.13,0A6.92,6.92,0,0,1,86.9,5.74Zm0,3.22a3.61,3.61,0,0,0-3.68,3.62,3.71,3.71,0,0,0,7.41,0A3.62,3.62,0,0,0,86.92,9Z"/></svg>