<svg id="Layer_1" data-name="Layer 1" xmlns="http://www.w3.org/2000/svg" width="100" height="100" viewBox="0 0 100 100"><title>application</title><path d="M91.34,13.27H3.41V80.55h76V74.61L93.19,82.3,79.46,90V84H0V10H94.75v1.46q0,21.83,0,43.65a1.54,1.54,0,0,0,1.12,1.76,6.53,6.53,0,0,1,4,7.39,7,7,0,0,1-13.57.1,6.62,6.62,0,0,1,4-7.52c.7-.29,1.06-.53,1.06-1.4q-.06-20.56,0-41.13Zm1.71,53.16A3.46,3.46,0,0,0,96.62,63,3.54,3.54,0,0,0,93,59.49,3.64,3.64,0,0,0,89.47,63,3.56,3.56,0,0,0,93.05,66.43Z"/><path d="M7.24,28.21H87.9V52.16H84.63V31.59H10.69V74.11H71v3.18H7.24Z"/><path d="M21.06,46.54c.43-.2.78-.38,1.14-.53,8.13-3.35,16.25-6.72,24.4-10a2.63,2.63,0,0,1,1.79-.08c8.33,3.39,16.64,6.84,25,10.27.25.11.49.25.84.43L56.56,53.88c-2.7,1.11-5.39,2.25-8.1,3.32a2.14,2.14,0,0,1-1.45.08Q34.23,52.08,21.5,46.77C21.39,46.73,21.29,46.66,21.06,46.54Zm8.59,0C35.62,49,41.31,51.37,47,53.7a1.54,1.54,0,0,0,1,.07c5.77-2.36,11.53-4.74,17.41-7.16a7.91,7.91,0,0,0-.71-.41c-5.47-2.26-10.93-4.53-16.42-6.75a2.3,2.3,0,0,0-1.57.07c-3.67,1.47-7.32,3-11,4.51Z"/><path d="M74.25,49.24a25,25,0,0,1,0,3c0,.33-.52.74-.89.89Q64,57.06,54.59,60.91c-2,.84-4.05,1.72-6.11,2.49a2.69,2.69,0,0,1-1.77,0c-8.15-3.32-16.27-6.69-24.41-10-.77-.32-1.17-.68-1.08-1.57a22,22,0,0,0,0-2.46c.61.24,1.07.4,1.53.59q12,4.95,24,9.86a2.57,2.57,0,0,0,1.77,0q12.22-5,24.4-10C73.3,49.59,73.7,49.45,74.25,49.24Z"/><path d="M21.24,55.83c.61.23,1.06.38,1.5.56q11.91,4.92,23.83,9.86a2.37,2.37,0,0,0,2,0q12.13-5,24.29-10l1.37-.53a20.58,20.58,0,0,1-.05,3,1.64,1.64,0,0,1-.94,1C65.52,62.89,57.73,66,50,69.33a5.57,5.57,0,0,1-4.83,0C37.67,66.11,30.12,63,22.56,60c-1-.41-1.49-.89-1.34-2A14.93,14.93,0,0,0,21.24,55.83Z"/><path d="M28.74,21a4.59,4.59,0,0,1,4.61-4.55A4.67,4.67,0,0,1,38.11,21a4.67,4.67,0,0,1-4.76,4.55A4.59,4.59,0,0,1,28.74,21Zm6.1.32v-.56c-.46-.33-1-.93-1.38-.9a1.79,1.79,0,0,0-1.26,1.07,1,1,0,0,0,1.19,1.25C33.91,22.08,34.36,21.59,34.84,21.29Z"/><path d="M22.66,16.41A4.56,4.56,0,1,1,18,20.91,4.66,4.66,0,0,1,22.66,16.41ZM24.1,21.3l0-.53c-.45-.34-.87-.85-1.37-1a1,1,0,0,0-1.31,1.12,1.68,1.68,0,0,0,1.12,1.19C23,22.16,23.58,21.6,24.1,21.3Z"/><path d="M16.57,21a4.59,4.59,0,0,1-4.67,4.5,4.67,4.67,0,0,1-4.71-4.61,4.67,4.67,0,0,1,4.71-4.5A4.59,4.59,0,0,1,16.57,21Zm-5,1.34.55,0c.35-.46,1-.93,1-1.4s-.63-1.06-1.1-1.19a1,1,0,0,0-1.29,1.13C10.74,21.44,11.24,21.89,11.54,22.37Z"/></svg>