<svg id="Layer_1" data-name="Layer 1" xmlns="http://www.w3.org/2000/svg" width="75" height="75" viewBox="0 0 75 75"><title>security</title><path d="M40.77.5a2.48,2.48,0,0,0,.37.17,4.89,4.89,0,0,1,2.67,7.62l-.32.49c1.13.92,2.22,1.88,3.4,2.73a39.4,39.4,0,0,0,16.69,6.63c1.17.2,2.35.33,3.53.49.85.11,1.17.45,1.17,1.34,0,11.25.16,22.5-.07,33.75-.1,5.15-3,9-7.5,11.43s-9.09,4.66-13.65,7c-2.26,1.14-4.53,2.25-6.8,3.38h-.85l-3.59-1.83c-5.69-2.87-11.45-5.61-17-8.66a13.56,13.56,0,0,1-7.39-12.54c0-4.66,0-9.32,0-14v-1H7v-.17l5.12-8.68c.15-.26.32-.51.54-.86l5.54,9.7H13.82V52.34A11.21,11.21,0,0,0,20,62.89c6.37,3.4,12.89,6.53,19.36,9.75a1.29,1.29,0,0,0,1,0c6.34-3.15,12.7-6.29,19-9.51a11.81,11.81,0,0,0,6.42-8.86,5.65,5.65,0,0,0,.1-1V21.69c0-.22,0-.44,0-.67-1.83-.34-3.64-.61-5.42-1-6.66-1.49-12.77-4.15-17.87-8.82-.77-.7-1.44-1.31-2.55-.88a.36.36,0,0,1-.25,0c-1.3-.53-2,.32-2.89,1.08A37.83,37.83,0,0,1,20,19.82c-2.17.51-4.39.79-6.59,1.17a3.78,3.78,0,0,1-.67.05,1.19,1.19,0,0,1-1.34-1.11,1.22,1.22,0,0,1,1.16-1.3c2.72-.5,5.48-.85,8.14-1.54a34.65,34.65,0,0,0,14.9-7.9c.12-.12.25-.23.37-.36s.06-.09,0,0A16.41,16.41,0,0,1,35,5.72a4.7,4.7,0,0,1,3.53-5A2.92,2.92,0,0,0,38.9.5Zm1.52,4.9a2.46,2.46,0,0,0-2.47-2.48,2.51,2.51,0,0,0-2.44,2.44,2.51,2.51,0,0,0,2.45,2.52A2.46,2.46,0,0,0,42.29,5.4Z"/></svg>