<svg id="Layer_1" data-name="Layer 1" xmlns="http://www.w3.org/2000/svg" width="60" height="60" viewBox="0 0 60 60"><defs><style>.cls-1{fill:#fff;}</style></defs><title>Support-w</title><path class="cls-1" d="M33.72,19l-2.1-1.61A10.45,10.45,0,0,1,26.83,24a10.91,10.91,0,0,1-6.48,1.55c-4.47-.24-8-3.17-9.63-8.13L10.1,18a5,5,0,0,1-5.65.74A4.67,4.67,0,0,1,6,9.92a.9.9,0,0,0,.77-.63C9.67,3.22,14.52,0,21.2,0S32.73,3.24,35.6,9.32a.92.92,0,0,0,.79.61,4.72,4.72,0,0,1,4.06,4.54,4.8,4.8,0,0,1-3.72,4.68,1.2,1.2,0,0,0-.75.62c-2.06,5.62-6.3,8.38-12,9.2-.77.11-1.57.12-2.35.17-.24,0-.47,0-.76,0V26.87C26.65,26.76,31.48,25,33.72,19ZM21.07,23.21a8.21,8.21,0,0,0,8.4-7.79A8.29,8.29,0,0,0,12.91,15,8.16,8.16,0,0,0,21.07,23.21Zm12.32-13c-1.75-4.74-7-8.06-12.53-8A13,13,0,0,0,9,10.25L11,12c1.8-4.46,5.06-7.09,10-7.19,5.14-.1,8.58,2.53,10.49,7.19ZM9.26,14.58a2.51,2.51,0,0,0-5,0,2.51,2.51,0,0,0,5,0Zm26.39-2.46a2.55,2.55,0,0,0-2.54,2.39,2.51,2.51,0,0,0,5,.05A2.53,2.53,0,0,0,35.65,12.12Z"/><path class="cls-1" d="M0,60V44.18a5.59,5.59,0,0,1,.09-.7A15.22,15.22,0,0,1,12.2,30.56a13.91,13.91,0,0,1,2.65-.32c4.23,0,8.46-.07,12.69,0A15.29,15.29,0,0,1,41.68,40.81a14.87,14.87,0,0,1,.69,4c.08,4.91,0,9.83,0,14.74,0,.13,0,.25,0,.43Zm40-2.31c0-4.22,0-8.34,0-12.47A12.79,12.79,0,0,0,28.17,32.63c-4.38-.22-8.78-.18-13.17-.08A13,13,0,0,0,2.32,46c.11,3.6,0,7.2,0,10.8v.88Z"/></svg>