<svg id="Layer_1" data-name="Layer 1" xmlns="http://www.w3.org/2000/svg" width="100" height="100" viewBox="0 0 100 100"><title>technical-support</title><path d="M70.86,31.7,67.36,29a17.51,17.51,0,0,1-8,10.9,18.29,18.29,0,0,1-10.81,2.59c-7.44-.42-13.28-5.29-16-13.56l-1,1a8.3,8.3,0,0,1-9.42,1.23,7.77,7.77,0,0,1,2.6-14.61,1.52,1.52,0,0,0,1.28-1C30.76,5.37,38.85,0,50,0S69.2,5.4,74,15.53a1.5,1.5,0,0,0,1.31,1,7.86,7.86,0,0,1,6.77,7.57,8,8,0,0,1-6.2,7.81,2.1,2.1,0,0,0-1.26,1c-3.41,9.38-10.48,14-20,15.34-1.3.18-2.62.21-3.93.29-.39,0-.78,0-1.27,0v-3.8C59.06,44.59,67.12,41.65,70.86,31.7Zm-21.08,7c7.45.14,13.83-5.78,14-13A13.68,13.68,0,0,0,50.15,11.79c-7.49-.11-13.87,5.88-14,13.14A13.62,13.62,0,0,0,49.78,38.68ZM70.31,17.06C67.39,9.16,58.64,3.63,49.41,3.79,39.12,4,31.75,11.09,29.66,17.08L32.92,20c3-7.44,8.44-11.82,16.62-12C58.1,7.86,63.84,12.25,67,20ZM30.09,24.29a4.18,4.18,0,0,0-8.35,0,4.18,4.18,0,0,0,8.35,0Zm44-4.1a4.25,4.25,0,0,0-4.22,4,4.18,4.18,0,0,0,8.35.09A4.24,4.24,0,0,0,74.06,20.19Z"/><path d="M14.65,100c0-8.86,0-17.61,0-26.36a9.36,9.36,0,0,1,.15-1.17A25.37,25.37,0,0,1,35,50.93a23.61,23.61,0,0,1,4.42-.53c7.05,0,14.1-.12,21.15,0A25.48,25.48,0,0,1,84.12,68a24.26,24.26,0,0,1,1.15,6.69c.13,8.19,0,16.38,0,24.57,0,.21,0,.43,0,.72Zm66.72-3.85c0-7,0-13.91,0-20.78-.06-10.88-8.89-20.45-19.76-21C54.3,54,47,54.09,39.66,54.25A21.67,21.67,0,0,0,18.52,76.68c.18,6,0,12,0,18v1.46Z"/></svg>