<svg id="Layer_1" data-name="Layer 1" xmlns="http://www.w3.org/2000/svg" width="100" height="100" viewBox="0 0 100 100"><title>exchange</title><path d="M79.17,34.56V65.48H21V34.56Zm-3.35,3.3H24.27V62.14H75.82Z"/><path d="M89.65,30.41l-3,1.5A40.9,40.9,0,0,0,68.23,13.49a39.47,39.47,0,0,0-14-4.05V15L41.14,7.52,54.16,0V6A44.23,44.23,0,0,1,89.65,30.41Z"/><path d="M45,100V94.33A44.13,44.13,0,0,1,20.39,83.39c-4.21-3.73-8.63-9.6-10-13.25l2.91-1.5A40.88,40.88,0,0,0,30.84,86.52C35.57,89,41.37,90.72,45,90.81V85l13,7.5Z"/><path d="M43.31,50A6.6,6.6,0,0,1,50,43.28,6.74,6.74,0,1,1,43.31,50Zm3.29.06A3.44,3.44,0,1,0,50,46.57,3.49,3.49,0,0,0,46.6,50.06Z"/></svg>