<svg id="Layer_1" data-name="Layer 1" xmlns="http://www.w3.org/2000/svg" width="100" height="100" viewBox="0 0 100 100"><title>sales users</title><path d="M29.82,93.56h6.9V81.93H10.19c-5.4,0-8.59-3.18-8.6-8.61,0-7.82,0-15.64,0-23.46,0-10.38,0-20.75,0-31.13,0-2.91.84-5.41,3.25-7.2A8.29,8.29,0,0,1,10,10.05q26.89,0,53.79,0a1.65,1.65,0,0,0,1.91-1.2,6.42,6.42,0,0,1,6.21-4A6.67,6.67,0,0,1,78,9.14c.11.29.21.57.33.92h8.93c5.2,0,8.39,3.21,8.39,8.43v22.7H92.3V18.48c0-3.38-1.77-5.14-5.14-5.14-2.71,0-5.42,0-8.13,0a1.45,1.45,0,0,0-1.11.62,6.48,6.48,0,0,1-6.22,4.08,6.41,6.41,0,0,1-6.17-4.3,2.92,2.92,0,0,0-.25-.43H10.14c-3.46,0-5.2,1.74-5.2,5.19V73.46c0,3.41,1.71,5.17,5.11,5.18q13,0,26,0c7.85,0,15.71-.07,23.57-.06,9.11,0,18.23,0,27.34.06,3.69,0,5.36-1.69,5.36-5.39V61.75h-6C88.94,57.23,91.41,53,94,48.51c2.55,4.48,5,8.77,7.56,13.23h-6v1.31c0,3.63,0,7.25,0,10.87a7.78,7.78,0,0,1-8,8H60.5V93.5h6.9v3.25H29.82ZM40.12,82v11.4h17V82Zm35-70.52a3.34,3.34,0,1,0-6.68,0,3.34,3.34,0,1,0,6.68,0Z"/><path d="M65,58.4h8.09v3.21H23.72V58.4h8.53c-3.86-5.61-5.11-11.56-3.31-18a19.78,19.78,0,0,1,7.81-11.08,20.4,20.4,0,0,1,25.71,1.58C69.08,36.83,72.08,48.28,65,58.4Zm-16.37,0c3.66,0,7.32,0,11,0a2,2,0,0,0,1.3-.46,16.54,16.54,0,0,0,4.85-12.43A17.06,17.06,0,0,0,45.63,29.12,16.22,16.22,0,0,0,32.35,40.63c-2.1,6.34-.7,12.11,3.77,17.07a2.36,2.36,0,0,0,1.56.66C41.34,58.42,45,58.39,48.66,58.39Z"/><path d="M49.37,52.49V55H47.26V52.79l-4.32-1.2.73-2.46c1.25.33,2.41.7,3.6.9a3.94,3.94,0,0,0,1.89-.23,1.81,1.81,0,0,0,.52-3.26,9.17,9.17,0,0,0-1.8-1c-.82-.4-1.69-.71-2.48-1.15a3.93,3.93,0,0,1-2.19-4.07A4.18,4.18,0,0,1,46,36.78c.39-.16.79-.27,1.28-.44v-2.4h2.21l.12,2.17,3.5.92-.7,2.43a13.66,13.66,0,0,0-2.08-.59,6.58,6.58,0,0,0-2.58,0,2.21,2.21,0,0,0-1.26,1.39c-.1.42.37,1.1.76,1.5a5.2,5.2,0,0,0,1.48.83c.86.4,1.77.73,2.6,1.18a4.25,4.25,0,0,1,2.37,4.45A4.36,4.36,0,0,1,50.79,52C50.37,52.18,49.93,52.3,49.37,52.49Z"/></svg>