<svg id="Layer_1" data-name="Layer 1" xmlns="http://www.w3.org/2000/svg" width="100" height="100" viewBox="0 0 100 100"><title>users</title><path d="M72.42,97.34c0-3.47,0-6.93,0-10.39A10.86,10.86,0,0,1,83.71,75.82c2.32,0,4.64,0,7,0a10.51,10.51,0,0,1,9.91,6.57A26.51,26.51,0,0,1,101.5,85v12.3ZM76,93.76H98.07c0-2.34,0-4.61,0-6.89a7.49,7.49,0,0,0-7.47-7.68c-2.4-.07-4.8-.06-7.2,0-3.81.1-7.06,2.8-7.37,6.38C75.8,88.25,76,91,76,93.76Z"/><path d="M1.5,31.14c.14-.52.3-1,.43-1.55a10.74,10.74,0,0,1,10.43-8.18q3.72,0,7.45,0a10.64,10.64,0,0,1,10.68,9.81c.25,3.8.05,7.63.05,11.55-.36,0-.7.07-1,.07H2.55a9.35,9.35,0,0,1-1-.11ZM27.12,39.4c0-2.7.13-5.26,0-7.81a7.32,7.32,0,0,0-7.43-6.79q-3.6,0-7.2,0a7.28,7.28,0,0,0-7.19,5.69A24.47,24.47,0,0,0,5,35c0,1.47,0,2.95,0,4.45Z"/><path d="M1.5,85.52a5.15,5.15,0,0,0,.24-.76,10.82,10.82,0,0,1,10.65-8.94h7.32A10.81,10.81,0,0,1,30.57,86.59c0,3.58,0,7.16,0,10.75H1.5Zm25.65,8.24c0-2.34,0-4.62,0-6.89a7.5,7.5,0,0,0-7.46-7.69c-2.41-.05-4.81-.06-7.21,0A7.48,7.48,0,0,0,5,86.86c0,1.3,0,2.6,0,3.9v3Z"/><path d="M101.5,43c-.51,0-1-.11-1.52-.11H72.46c0-1.06,0-2,0-2.92.05-3-.08-6.07.19-9.08a10.37,10.37,0,0,1,9.21-9.32,63.9,63.9,0,0,1,10.26,0c4.44.36,8.08,3.91,9.13,8.38a6.75,6.75,0,0,0,.25.76ZM98,39.4c0-2.72.15-5.32,0-7.9a7.3,7.3,0,0,0-7.39-6.7q-3.61,0-7.21,0a7.05,7.05,0,0,0-7.19,5.79c-.4,2.87-.08,5.84-.08,8.81Z"/><path d="M37,97.34c0-3.46,0-6.93,0-10.39.07-5.84,4.19-10.65,9.69-11.06a84.74,84.74,0,0,1,8.73,0,11.55,11.55,0,0,1,3.45.63A10.69,10.69,0,0,1,66,86.71c0,3.54,0,7.09,0,10.63Zm3.56-3.61H62.61c0-2.39,0-4.67,0-7a7.49,7.49,0,0,0-7.44-7.6c-2.4-.06-4.81-.05-7.21,0a7.35,7.35,0,0,0-7.4,6.48C40.35,88.31,40.52,91,40.52,93.73Z"/><path d="M17.34,4.66a9.65,9.65,0,0,1,4.73,2.87,7.83,7.83,0,0,1,.46,9.25A7.75,7.75,0,1,1,14.1,5c.29-.08.58-.19.88-.29Zm-1.25,12.1a4.28,4.28,0,0,0,4.32-4.34,4.35,4.35,0,0,0-4.28-4.3,4.43,4.43,0,0,0-4.42,4.32A4.37,4.37,0,0,0,16.09,16.76Z"/><path d="M52.8,4.66A22.19,22.19,0,0,1,56,6.12,7.71,7.71,0,1,1,49.56,5c.29-.08.58-.19.88-.29Zm-1.22,12.1a4.28,4.28,0,0,0,4.29-4.38,4.36,4.36,0,0,0-4.33-4.26,4.42,4.42,0,0,0-4.37,4.36A4.35,4.35,0,0,0,51.58,16.76Z"/><path d="M88.26,4.66a9.83,9.83,0,0,1,4.65,2.79A7.75,7.75,0,0,1,84.6,19.83a7.77,7.77,0,0,1,.53-14.91c.26-.07.51-.17.77-.26ZM87,16.76a4.3,4.3,0,0,0,4.35-4.32A4.38,4.38,0,0,0,87,8.11a4.43,4.43,0,0,0-4.32,4.31A4.31,4.31,0,0,0,87,16.76Z"/><path d="M66,42.78H37c0-1.27,0-2.47,0-3.68,0-2.71-.08-5.44.17-8.14a10.62,10.62,0,0,1,10.65-9.55q3.72,0,7.44,0A10.69,10.69,0,0,1,66,31.44C66.17,35.16,66,38.91,66,42.78ZM62.55,39.4c0-2.73.16-5.37,0-8a7.29,7.29,0,0,0-7.35-6.61c-2.44,0-4.88,0-7.32,0a7.21,7.21,0,0,0-7.21,6.09,77.75,77.75,0,0,0-.06,8.51Z"/><path d="M8.36,66.84a7.73,7.73,0,0,1,7.72-7.75A7.78,7.78,0,1,1,16,74.64,7.71,7.71,0,0,1,8.36,66.84ZM16,62.55a4.33,4.33,0,1,0,4.38,4.31A4.33,4.33,0,0,0,16,62.55Z"/><path d="M43.79,66.85a7.76,7.76,0,1,1,7.69,7.79A7.79,7.79,0,0,1,43.79,66.85Zm7.72-4.3a4.33,4.33,0,1,0,4.36,4.33A4.33,4.33,0,0,0,51.51,62.55Z"/><path d="M79.24,66.82a7.76,7.76,0,1,1,7.67,7.82A7.8,7.8,0,0,1,79.24,66.82ZM87,62.55a4.37,4.37,0,0,0-4.32,4.39A4.42,4.42,0,0,0,87,71.21a4.33,4.33,0,1,0,0-8.66Z"/></svg>