<svg id="Layer_1" data-name="Layer 1" xmlns="http://www.w3.org/2000/svg" width="100" height="100" viewBox="0 0 100 100"><title>user-experience </title><path d="M101.85,74.68H83.43v3.75l-9.9-5.75,9.82-5.63v3.59H97.62V23.76H50A15.78,15.78,0,0,1,42.3,35.24a15.39,15.39,0,0,1-9.22,2.07A15.83,15.83,0,0,1,18.79,23.75H16.84v21.7a36.79,36.79,0,0,1,3.61-1,32.82,32.82,0,0,1,5.39-.67c5.94-.09,11.88-.06,17.82,0,11.35.05,22,8.4,24.46,19.17a17.93,17.93,0,0,1,.45,3.86c0,7.8,0,15.61,0,23.41,0,.34-.06.67-.09,1.06H36.09v-4H64.6V85.67c0-5.55-.07-11.1,0-16.65.14-8.77-4.23-14.73-11.6-18.82a20.34,20.34,0,0,0-10.12-2.45c-6.33,0-12.67-.2-19,.18A19.73,19.73,0,0,0,6,65.14a51.91,51.91,0,0,0-.09,5.72c0,5.37,0,10.74,0,16.23h8.48a6.74,6.74,0,0,1,5.28-4.42,6.69,6.69,0,0,1,3.48,12.86c-.39.14-.77.32-1.15.49H19.62a7.64,7.64,0,0,1-5.18-4.33c-.1-.25-.71-.38-1.09-.38-3.34,0-6.68,0-10,0H1.89V89.66c0-7.33.1-14.66,0-22-.15-8.2,3.4-14.41,9.81-19.19a2.33,2.33,0,0,0,1.08-2.13c0-8.37,0-16.74,0-25.11v-1.6c1.76,0,3.32-.05,4.88,0,.88,0,1.28-.2,1.48-1.13A15.34,15.34,0,0,1,29.29,6.86c1-.38,2.06-.59,3.09-.88h4.16c.35.12.7.25,1.07.34C44,7.89,48.08,11.85,49.67,18.22c.31,1.23.76,1.45,1.88,1.44q24.26,0,48.5,0c.6,0,1.2.08,1.8.12ZM34.36,33.31a11.64,11.64,0,1,0,0-23.28,11.64,11.64,0,0,0,0,23.28ZM20.7,91.89a2.62,2.62,0,0,0,2.69-2.58,2.66,2.66,0,0,0-2.6-2.69,2.73,2.73,0,0,0-2.71,2.61A2.66,2.66,0,0,0,20.7,91.89Z"/></svg>