<svg id="Layer_1" data-name="Layer 1" xmlns="http://www.w3.org/2000/svg" viewBox="0 0 1238.23 404"><defs><style>.cls-4,.cls-6{fill:none;stroke-miterlimit:10;stroke-width:3px}.cls-3{fill:#e6dbe6}.cls-4{stroke:#d0b5d5}.cls-5{fill:#372261}.cls-6{stroke:#372261}</style></defs><path fill="#d0b5d5" d="M415.21 0v404h407.97V.09L415.21 0z"/><path stroke="#963596" fill="none" stroke-miterlimit="10" stroke-width="3" d="M434.31 170.99l369.76 1.14"/><path class="cls-3" d="M830.34.11v403.8h407.97V0L830.34.11z"/><path class="cls-4" d="M849.44 170.99l369.76-.06"/><path class="cls-3" d="M.08 0v404h407.97V.09L.08 0z"/><path class="cls-4" d="M19.18 170.99l369.76-.06"/><path class="cls-5" d="M137.49 91.48c0 7.65-4.63 12-10.93 12s-10.49-4.91-10.49-11.61c0-7 4.4-12 10.83-12 6.67.07 10.59 5.13 10.59 11.61zm-17 .34c0 4.64 2.33 8.33 6.33 8.33s6.29-3.73 6.29-8.5c0-4.3-2.13-8.36-6.29-8.36s-6.35 3.83-6.35 8.53zM141 92c0-2.24 0-3.83-.14-5.32h3.62l.14 3.15h.13a4.91 4.91 0 0 1 4.5-3.52 4.31 4.31 0 0 1 1 .1v3.89a5.69 5.69 0 0 0-1.22-.14 3.68 3.68 0 0 0-3.73 3.15 7.91 7.91 0 0 0-.13 1.29v8.52H141zM168 79.1v19.39c0 1.69.07 3.52.13 4.63h-3.72l-.17-2.6h-.07a5.92 5.92 0 0 1-5.38 3c-3.92 0-7-3.35-7-8.43 0-5.52 3.42-8.8 7.38-8.8a5.26 5.26 0 0 1 4.64 2.17h.07V79.1zm-4.2 14.41a5.65 5.65 0 0 0-.11-1.08 3.64 3.64 0 0 0-3.58-2.94c-2.68 0-4.17 2.36-4.17 5.44s1.49 5.22 4.13 5.22a3.67 3.67 0 0 0 3.59-3 4.7 4.7 0 0 0 .14-1.15zM175.37 96.05c.11 3 2.44 4.27 5.08 4.27a12.45 12.45 0 0 0 4.57-.75l.61 2.88a15.65 15.65 0 0 1-5.75 1c-5.35 0-8.5-3.28-8.5-8.32 0-4.57 2.78-8.87 8.06-8.87s7.1 4.4 7.1 8a10.09 10.09 0 0 1-.13 1.76zm7.25-2.91c0-1.52-.65-4-3.42-4-2.57 0-3.66 2.34-3.83 4zM189.9 92c0-2.24 0-3.83-.14-5.32h3.62l.14 3.15h.13a4.93 4.93 0 0 1 4.51-3.52 4.28 4.28 0 0 1 1 .1v3.89a5.62 5.62 0 0 0-1.22-.14 3.67 3.67 0 0 0-3.72 3.15 6.88 6.88 0 0 0-.14 1.29v8.52h-4.18zM555.62 83.8h-6.5v-3.49h17.23v3.49h-6.57v19.32h-4.16zM567.16 92c0-2.24 0-3.83-.13-5.32h3.62l.13 3.15h.14a4.91 4.91 0 0 1 4.5-3.52 4.22 4.22 0 0 1 1 .1v3.89a5.62 5.62 0 0 0-1.22-.14 3.67 3.67 0 0 0-3.72 3.15 6.94 6.94 0 0 0-.13 1.29v8.52h-4.17zM588.18 103.12l-.27-1.82h-.1a6.13 6.13 0 0 1-4.87 2.2 4.9 4.9 0 0 1-5.18-4.91c0-4.16 3.69-6.26 9.78-6.23v-.27c0-1.08-.44-2.88-3.35-2.88a8.72 8.72 0 0 0-4.43 1.22l-.82-2.7a11.81 11.81 0 0 1 6-1.46c5.28 0 6.8 3.35 6.8 6.94v6a26.23 26.23 0 0 0 .24 4zm-.54-8.05c-2.94-.07-5.75.58-5.75 3.08a2.19 2.19 0 0 0 2.37 2.37 3.37 3.37 0 0 0 3.25-2.27 3 3 0 0 0 .13-.91zM596.11 91.55c0-1.9 0-3.49-.14-4.91h3.66l.2 2.47h.1a6 6 0 0 1 5.25-2.84c2.87 0 5.85 1.86 5.85 7.07v9.78h-4.16v-9.3c0-2.37-.88-4.17-3.15-4.17a3.5 3.5 0 0 0-3.25 2.44 4.38 4.38 0 0 0-.17 1.35v9.68h-4.19zM615.27 99.3a9.2 9.2 0 0 0 4.23 1.18c1.82 0 2.64-.74 2.64-1.82s-.68-1.69-2.71-2.41c-3.22-1.11-4.57-2.87-4.54-4.8 0-2.91 2.41-5.18 6.23-5.18a9.67 9.67 0 0 1 4.37 1l-.82 3a7.34 7.34 0 0 0-3.48-1c-1.49 0-2.3.71-2.3 1.72s.78 1.56 2.87 2.31c3 1.08 4.37 2.6 4.4 5 0 3-2.33 5.14-6.7 5.14a10.63 10.63 0 0 1-5-1.15zM629.58 92.13c0-2.17-.06-3.93-.13-5.49h3.65l.21 2.54h.06a6.43 6.43 0 0 1 5.63-2.91c3.79 0 6.93 3.25 6.93 8.39 0 6-3.75 8.84-7.51 8.84a5.4 5.4 0 0 1-4.63-2.2h-.07v8.53h-4.17zm4.17 4.09a4.32 4.32 0 0 0 .13 1.15 3.77 3.77 0 0 0 3.66 2.91c2.64 0 4.19-2.2 4.19-5.45 0-2.91-1.42-5.28-4.09-5.28a4.31 4.31 0 0 0-3.89 4.13zM665.06 94.73c0 6.06-4.27 8.77-8.46 8.77-4.67 0-8.26-3.22-8.26-8.5s3.55-8.73 8.53-8.73 8.19 3.45 8.19 8.46zm-12.42.17c0 3.18 1.55 5.58 4.09 5.58 2.37 0 4-2.33 4-5.65 0-2.57-1.15-5.51-4-5.51s-4.09 2.84-4.09 5.58zM668.48 92c0-2.24 0-3.83-.14-5.32H672l.14 3.15h.14a4.91 4.91 0 0 1 4.5-3.52 4.28 4.28 0 0 1 1 .1v3.89a5.62 5.62 0 0 0-1.22-.14 3.67 3.67 0 0 0-3.72 3.15 6.88 6.88 0 0 0-.14 1.29v8.52h-4.16zM686.08 81.94v4.7h4v3.12h-4V97c0 2 .54 3 2.13 3a6.34 6.34 0 0 0 1.63-.2l.06 3.18a9.31 9.31 0 0 1-3 .4 4.82 4.82 0 0 1-3.59-1.35c-.87-1-1.28-2.44-1.28-4.6v-7.67h-2.37v-3.12H682v-3.72zM702.46 103.12l-.27-1.82h-.1a6.13 6.13 0 0 1-4.87 2.2 4.9 4.9 0 0 1-5.22-4.91c0-4.16 3.69-6.26 9.78-6.23v-.27c0-1.08-.44-2.88-3.35-2.88a8.72 8.72 0 0 0-4.43 1.22l-.82-2.7a11.81 11.81 0 0 1 6-1.46c5.28 0 6.8 3.35 6.8 6.94v6a26.23 26.23 0 0 0 .24 4zm-.54-8.05c-2.94-.07-5.75.58-5.75 3.08a2.19 2.19 0 0 0 2.37 2.37 3.37 3.37 0 0 0 3.25-2.27 3 3 0 0 0 .13-.91zM715 81.94v4.7h4v3.12h-4V97c0 2 .55 3 2.14 3a6.19 6.19 0 0 0 1.62-.2l.07 3.18a9.36 9.36 0 0 1-3 .4 4.8 4.8 0 0 1-3.59-1.35c-.88-1-1.29-2.44-1.29-4.6v-7.67h-2.36v-3.12h2.36v-3.72zM726.5 82a2.21 2.21 0 0 1-2.37 2.23 2.18 2.18 0 0 1-2.3-2.23 2.34 2.34 0 0 1 4.67 0zm-4.43 21.08V86.64h4.19v16.48zM746.4 94.73c0 6.06-4.26 8.77-8.46 8.77-4.67 0-8.26-3.22-8.26-8.5s3.56-8.73 8.53-8.73 8.19 3.45 8.19 8.46zm-12.4.17c0 3.18 1.56 5.58 4.09 5.58 2.37 0 4-2.33 4-5.65 0-2.57-1.15-5.51-4-5.51S734 92.16 734 94.9zM749.82 91.55c0-1.9 0-3.49-.13-4.91h3.65l.21 2.47h.1a5.94 5.94 0 0 1 5.24-2.84c2.88 0 5.86 1.86 5.86 7.07v9.78h-4.17v-9.3c0-2.37-.88-4.17-3.14-4.17a3.5 3.5 0 0 0-3.25 2.44 4.1 4.1 0 0 0-.17 1.35v9.68h-4.2zM954.15 98.59a11.55 11.55 0 0 0 5.52 1.45c2.67 0 4.16-1.25 4.16-3.11s-1.15-2.74-4.06-3.79c-3.76-1.35-6.16-3.35-6.16-6.63 0-3.73 3.11-6.57 8-6.57a12.06 12.06 0 0 1 5.49 1.15l-1 3.35a9.64 9.64 0 0 0-4.53-1.08c-2.64 0-3.79 1.42-3.79 2.74 0 1.76 1.32 2.57 4.36 3.76 4 1.49 5.89 3.48 5.89 6.77 0 3.65-2.77 6.83-8.66 6.83a13.45 13.45 0 0 1-6.16-1.42zM976.29 81.94v4.7h4v3.12h-4V97c0 2 .54 3 2.13 3a6.34 6.34 0 0 0 1.63-.2l.06 3.18a9.36 9.36 0 0 1-3 .4 4.82 4.82 0 0 1-3.59-1.35c-.88-1-1.28-2.44-1.28-4.6v-7.67h-2.37v-3.12h2.37v-3.72zM998.87 94.73c0 6.06-4.27 8.77-8.46 8.77-4.68 0-8.26-3.22-8.26-8.5s3.55-8.73 8.53-8.73 8.19 3.45 8.19 8.46zm-12.42.17c0 3.18 1.55 5.58 4.09 5.58 2.37 0 4-2.33 4-5.65 0-2.57-1.15-5.51-4-5.51s-4.09 2.84-4.09 5.58zM1002.29 92c0-2.24 0-3.83-.14-5.32h3.62l.14 3.15h.13a4.93 4.93 0 0 1 4.51-3.52 4.28 4.28 0 0 1 1 .1v3.89a5.62 5.62 0 0 0-1.22-.14 3.67 3.67 0 0 0-3.72 3.15 6.88 6.88 0 0 0-.14 1.29v8.52h-4.16zM1023.31 103.12l-.27-1.82h-.1a6.16 6.16 0 0 1-4.88 2.2 4.9 4.9 0 0 1-5.18-4.91c0-4.16 3.69-6.26 9.78-6.23v-.27c0-1.08-.44-2.88-3.35-2.88a8.75 8.75 0 0 0-4.43 1.22l-.81-2.7a11.81 11.81 0 0 1 6-1.46c5.27 0 6.8 3.35 6.8 6.94v6a27.78 27.78 0 0 0 .23 4zm-.54-8.05c-2.95-.07-5.76.58-5.76 3.08a2.19 2.19 0 0 0 2.37 2.37 3.36 3.36 0 0 0 3.25-2.27 3 3 0 0 0 .14-.91zM1046.29 86.64c-.07 1.12-.13 2.47-.13 4.74v9.34c0 3.45-.71 5.92-2.44 7.48a9.51 9.51 0 0 1-6.36 2 11.68 11.68 0 0 1-5.76-1.32l.92-3.15a9.94 9.94 0 0 0 4.8 1.25c2.71 0 4.74-1.42 4.74-5v-1.42h-.06a5.56 5.56 0 0 1-4.8 2.43c-4.1 0-7-3.38-7-8 0-5.42 3.52-8.7 7.48-8.7a5.19 5.19 0 0 1 4.77 2.57h.07l.17-2.2zm-4.3 6.6a4 4 0 0 0-.13-1.11 3.46 3.46 0 0 0-3.39-2.68c-2.33 0-4.06 2-4.06 5.38 0 2.81 1.42 5.08 4 5.08a3.55 3.55 0 0 0 3.38-2.51 6.52 6.52 0 0 0 .17-1.48zM1053.57 96.05c.1 3 2.44 4.27 5.08 4.27a12.49 12.49 0 0 0 4.57-.75l.61 2.88a15.67 15.67 0 0 1-5.76 1c-5.34 0-8.49-3.28-8.49-8.32 0-4.57 2.77-8.87 8.05-8.87s7.11 4.4 7.11 8a11.21 11.21 0 0 1-.13 1.76zm7.24-2.91c0-1.52-.64-4-3.41-4-2.58 0-3.66 2.34-3.83 4zM88.74 223.27a10.91 10.91 0 0 1-4.52.81c-4.82 0-8.46-3-8.46-8.66 0-5.35 3.64-9 8.94-9a9.08 9.08 0 0 1 4.06.76l-.53 1.8a8 8 0 0 0-3.45-.71c-4 0-6.68 2.56-6.68 7.06 0 4.19 2.41 6.88 6.58 6.88a8.87 8.87 0 0 0 3.6-.71zM101.41 220.48c0 1.27 0 2.38.1 3.35h-2l-.13-2h-.05a4.62 4.62 0 0 1-4.06 2.29c-1.93 0-4.24-1.07-4.24-5.39v-7.18h2.23v6.8c0 2.34.71 3.91 2.74 3.91a3.24 3.24 0 0 0 3-2 3.17 3.17 0 0 0 .2-1.14v-7.54h2.24zM104.81 221.54a5.87 5.87 0 0 0 2.94.89c1.63 0 2.39-.81 2.39-1.83s-.63-1.65-2.28-2.26c-2.21-.78-3.25-2-3.25-3.47 0-2 1.59-3.61 4.24-3.61a6.22 6.22 0 0 1 3 .76l-.56 1.63a4.73 4.73 0 0 0-2.52-.71c-1.32 0-2.05.76-2.05 1.67s.73 1.47 2.33 2.08c2.14.82 3.23 1.88 3.23 3.71 0 2.16-1.68 3.68-4.6 3.68a7 7 0 0 1-3.45-.84zM117.86 208v3.53h3.2v1.7h-3.2v6.63c0 1.52.43 2.38 1.67 2.38a4.84 4.84 0 0 0 1.3-.15l.1 1.68a5.44 5.44 0 0 1-2 .3 3.09 3.09 0 0 1-2.41-.94 4.52 4.52 0 0 1-.87-3.2v-6.7h-1.9v-1.7h1.9v-2.95zM134.54 217.58c0 4.55-3.15 6.53-6.12 6.53-3.33 0-5.89-2.44-5.89-6.32 0-4.12 2.69-6.53 6.09-6.53s5.92 2.56 5.92 6.32zm-9.75.13c0 2.69 1.55 4.72 3.73 4.72s3.73-2 3.73-4.77c0-2.08-1-4.72-3.68-4.72s-3.78 2.43-3.78 4.77zM137.36 214.87c0-1.27 0-2.32-.11-3.33h2l.1 2h.08a4.23 4.23 0 0 1 3.86-2.26 3.65 3.65 0 0 1 3.48 2.46h.05a5.08 5.08 0 0 1 1.37-1.6 4.17 4.17 0 0 1 2.71-.86c1.63 0 4 1.07 4 5.33v7.24h-2.18v-7c0-2.36-.87-3.78-2.67-3.78a2.89 2.89 0 0 0-2.64 2 3.7 3.7 0 0 0-.18 1.12v7.59h-2.18v-7.37c0-2-.86-3.37-2.56-3.37a3.05 3.05 0 0 0-2.77 2.23 3 3 0 0 0-.18 1.09v7.42h-2.18zM159.77 218.09c0 3 2 4.27 4.22 4.27a8 8 0 0 0 3.4-.64l.38 1.6a9.85 9.85 0 0 1-4.09.76c-3.78 0-6-2.49-6-6.19s2.18-6.63 5.77-6.63c4 0 5.07 3.53 5.07 5.79a10 10 0 0 1-.07 1zm6.55-1.6c0-1.42-.58-3.63-3.09-3.63-2.26 0-3.25 2.08-3.43 3.63zM171.25 215.37c0-1.44 0-2.69-.1-3.83h1.95l.08 2.41h.1a3.69 3.69 0 0 1 3.4-2.69 2.43 2.43 0 0 1 .64.08v2.1a3.45 3.45 0 0 0-.76-.07 3.13 3.13 0 0 0-3 2.87 6.33 6.33 0 0 0-.1 1v6.55h-2.21zM186.18 218.09c0 3 2 4.27 4.21 4.27a8 8 0 0 0 3.4-.64l.39 1.6a9.93 9.93 0 0 1-4.09.76c-3.79 0-6.05-2.49-6.05-6.19s2.19-6.63 5.77-6.63c4 0 5.08 3.53 5.08 5.79a7.43 7.43 0 0 1-.08 1zm6.55-1.6c0-1.42-.59-3.63-3.1-3.63-2.26 0-3.25 2.08-3.43 3.63zM197.65 214.87c0-1.27 0-2.32-.1-3.33h2l.13 2h.05a4.51 4.51 0 0 1 4.06-2.31c1.7 0 4.34 1 4.34 5.23v7.34h-2.23v-7.09c0-2-.74-3.63-2.84-3.63a3.17 3.17 0 0 0-3 2.29 3.26 3.26 0 0 0-.15 1v7.39h-2.24zM222.33 211.54c-.05.89-.1 1.88-.1 3.38v7.13c0 2.82-.56 4.55-1.75 5.61a6.51 6.51 0 0 1-4.47 1.47 8 8 0 0 1-4.09-1l.56-1.7a6.9 6.9 0 0 0 3.61 1c2.28 0 4-1.19 4-4.29v-1.37H220a4.4 4.4 0 0 1-3.91 2.06c-3.05 0-5.23-2.59-5.23-6 0-4.17 2.71-6.53 5.53-6.53a4.09 4.09 0 0 1 3.83 2.13h.06l.1-1.85zm-2.33 4.85a3 3 0 0 0-.13-1 3.21 3.21 0 0 0-3.12-2.36c-2.13 0-3.65 1.8-3.65 4.65 0 2.41 1.21 4.42 3.63 4.42a3.26 3.26 0 0 0 3.09-2.29 3.78 3.78 0 0 0 .18-1.19zM232.74 223.83l-.18-1.55h-.07a4.61 4.61 0 0 1-3.76 1.83 3.5 3.5 0 0 1-3.76-3.53c0-3 2.64-4.6 7.39-4.57v-.26a2.53 2.53 0 0 0-2.79-2.84 6.17 6.17 0 0 0-3.2.91l-.51-1.47a7.62 7.62 0 0 1 4-1.09c3.75 0 4.67 2.56 4.67 5v4.59a17.62 17.62 0 0 0 .2 3zm-.33-6.27c-2.44-.05-5.21.38-5.21 2.76a2 2 0 0 0 2.11 2.14 3.05 3.05 0 0 0 3-2.06 2.22 2.22 0 0 0 .13-.71zM248.76 211.54c0 .89-.1 1.88-.1 3.38v7.13c0 2.82-.56 4.55-1.75 5.61a6.51 6.51 0 0 1-4.47 1.47 8 8 0 0 1-4.09-1l.56-1.7a6.89 6.89 0 0 0 3.6 1c2.29 0 4-1.19 4-4.29v-1.37h-.06a4.38 4.38 0 0 1-3.91 2.06c-3 0-5.23-2.59-5.23-6 0-4.17 2.72-6.53 5.54-6.53a4.09 4.09 0 0 1 3.83 2.13l.11-1.85zm-2.31 4.85a3.28 3.28 0 0 0-.13-1 3.22 3.22 0 0 0-3.12-2.39c-2.13 0-3.66 1.8-3.66 4.65 0 2.41 1.22 4.42 3.63 4.42a3.27 3.27 0 0 0 3.1-2.29 3.78 3.78 0 0 0 .18-1.19zM253.61 218.09c0 3 2 4.27 4.21 4.27a8 8 0 0 0 3.41-.64l.38 1.6a9.93 9.93 0 0 1-4.09.76c-3.78 0-6-2.49-6-6.19s2.18-6.63 5.76-6.63c4 0 5.08 3.53 5.08 5.79a7.43 7.43 0 0 1-.08 1zm6.55-1.6c0-1.42-.58-3.63-3.1-3.63-2.26 0-3.25 2.08-3.43 3.63zM265.08 214.87c0-1.27 0-2.32-.1-3.33h2l.1 2h.08a4.22 4.22 0 0 1 3.86-2.26 3.63 3.63 0 0 1 3.47 2.46h.05a5.23 5.23 0 0 1 1.38-1.6 4.15 4.15 0 0 1 2.71-.86c1.63 0 4 1.07 4 5.33v7.24h-2.18v-7c0-2.36-.87-3.78-2.67-3.78a2.89 2.89 0 0 0-2.64 2 3.7 3.7 0 0 0-.18 1.12v7.59h-2.18v-7.37c0-2-.87-3.37-2.57-3.37a3 3 0 0 0-2.76 2.23 3 3 0 0 0-.18 1.09v7.42h-2.19zM287.5 218.09c.05 3 2 4.27 4.22 4.27a8 8 0 0 0 3.4-.64l.38 1.6a9.89 9.89 0 0 1-4.09.76c-3.78 0-6-2.49-6-6.19s2.18-6.63 5.76-6.63c4 0 5.08 3.53 5.08 5.79a10 10 0 0 1-.07 1zm6.55-1.6c0-1.42-.58-3.63-3.09-3.63-2.26 0-3.25 2.08-3.43 3.63zM299 214.87c0-1.27 0-2.32-.1-3.33h2l.12 2a4.53 4.53 0 0 1 4.07-2.31c1.7 0 4.34 1 4.34 5.23v7.34h-2.23v-7.09c0-2-.73-3.63-2.84-3.63a3.17 3.17 0 0 0-3 2.29 3 3 0 0 0-.16 1v7.39H299zM315.66 208v3.53h3.2v1.7h-3.2v6.63c0 1.52.43 2.38 1.67 2.38a4.84 4.84 0 0 0 1.3-.15l.1 1.68a5.44 5.44 0 0 1-2 .3 3.09 3.09 0 0 1-2.41-.94 4.53 4.53 0 0 1-.86-3.2v-6.7h-1.91v-1.7h1.91v-2.95zM85.64 271.19H79v6.17h7.4v1.86h-9.62V262.1H86v1.9h-7v5.41h6.65zM89.2 261.19h2.23v18H89.2zM96.43 273.48a3.93 3.93 0 0 0 4.22 4.26 8.21 8.21 0 0 0 3.4-.63l.38 1.6a10.06 10.06 0 0 1-4.09.76c-3.78 0-6-2.49-6-6.19s2.18-6.63 5.76-6.63c4 0 5.08 3.53 5.08 5.79a7.57 7.57 0 0 1-.08 1zm6.55-1.6c0-1.42-.58-3.63-3.1-3.63-2.26 0-3.25 2.08-3.42 3.63zM116.67 278.76a8.33 8.33 0 0 1-3.53.71c-3.71 0-6.12-2.51-6.12-6.27a6.25 6.25 0 0 1 6.6-6.53 7.39 7.39 0 0 1 3.1.64l-.51 1.73a5.1 5.1 0 0 0-2.59-.59c-2.82 0-4.34 2.08-4.34 4.65 0 2.84 1.83 4.59 4.26 4.59a6.31 6.31 0 0 0 2.74-.61zM122.3 263.4v3.53h3.2v1.7h-3.2v6.63c0 1.52.43 2.38 1.68 2.38a4.81 4.81 0 0 0 1.29-.15l.1 1.68a5.62 5.62 0 0 1-2 .3 3.09 3.09 0 0 1-2.41-.94 4.57 4.57 0 0 1-.86-3.2v-6.7h-1.91v-1.7h1.91V264zM128 270.76c0-1.45 0-2.69-.1-3.83h2l.07 2.41h.1a3.69 3.69 0 0 1 3.41-2.69 2.43 2.43 0 0 1 .63.07v2.11a3.45 3.45 0 0 0-.76-.07 3.14 3.14 0 0 0-3 2.87 6.33 6.33 0 0 0-.1 1v6.55H128zM147.18 273c0 4.55-3.15 6.53-6.12 6.53-3.32 0-5.89-2.44-5.89-6.33 0-4.11 2.69-6.52 6.1-6.52s5.91 2.53 5.91 6.32zm-9.75.13c0 2.69 1.55 4.72 3.73 4.72s3.74-2 3.74-4.77c0-2.09-1-4.73-3.68-4.73s-3.79 2.41-3.79 4.75zM150 270.25c0-1.27 0-2.31-.1-3.32h2l.13 2h.05a4.51 4.51 0 0 1 4.06-2.31c1.7 0 4.34 1 4.34 5.23v7.34h-2.23v-7.09c0-2-.74-3.63-2.85-3.63a3.17 3.17 0 0 0-3 2.29 3 3 0 0 0-.16 1v7.39H150zM166.58 263.47a1.39 1.39 0 0 1-2.77 0 1.36 1.36 0 0 1 1.4-1.39 1.32 1.32 0 0 1 1.37 1.39zm-2.49 15.75v-12.29h2.23v12.29zM178.79 278.76a8.3 8.3 0 0 1-3.53.71c-3.71 0-6.12-2.51-6.12-6.27a6.25 6.25 0 0 1 6.6-6.53 7.39 7.39 0 0 1 3.1.64l-.51 1.73a5.1 5.1 0 0 0-2.59-.59c-2.81 0-4.34 2.08-4.34 4.65 0 2.84 1.83 4.59 4.27 4.59a6.31 6.31 0 0 0 2.74-.61zM197.4 261.19V276c0 1.09 0 2.34.1 3.18h-2l-.11-2.14a4.53 4.53 0 0 1-4.19 2.42c-3 0-5.25-2.52-5.25-6.25 0-4.09 2.51-6.6 5.51-6.6a4.12 4.12 0 0 1 3.71 1.88v-7.34zm-2.23 10.74a3.77 3.77 0 0 0-.11-.94 3.28 3.28 0 0 0-3.22-2.59c-2.31 0-3.68 2-3.68 4.75 0 2.49 1.22 4.54 3.63 4.54a3.35 3.35 0 0 0 3.27-2.66 3.74 3.74 0 0 0 .11-1zM207.91 279.22l-.18-1.55h-.07a4.61 4.61 0 0 1-3.76 1.83 3.51 3.51 0 0 1-3.76-3.53c0-3 2.64-4.6 7.39-4.57v-.26a2.53 2.53 0 0 0-2.79-2.84 6.08 6.08 0 0 0-3.2.91l-.51-1.47a7.65 7.65 0 0 1 4-1.09c3.75 0 4.67 2.56 4.67 5v4.59a17.62 17.62 0 0 0 .2 3zm-.33-6.27c-2.44-.06-5.2.38-5.2 2.76a2 2 0 0 0 2.1 2.14 3.05 3.05 0 0 0 3-2.06 2.22 2.22 0 0 0 .13-.71zM215.93 263.4v3.53h3.2v1.7h-3.2v6.63c0 1.52.44 2.38 1.68 2.38a4.81 4.81 0 0 0 1.29-.15l.11 1.68a5.71 5.71 0 0 1-2 .3 3.11 3.11 0 0 1-2.42-.94 4.57 4.57 0 0 1-.86-3.2v-6.7h-1.9v-1.7h1.9V264zM228.45 279.22l-.18-1.55h-.07a4.61 4.61 0 0 1-3.76 1.83 3.51 3.51 0 0 1-3.76-3.53c0-3 2.64-4.6 7.39-4.57v-.26a2.53 2.53 0 0 0-2.79-2.84 6.08 6.08 0 0 0-3.2.91l-.51-1.47a7.62 7.62 0 0 1 4-1.09c3.75 0 4.67 2.56 4.67 5v4.59a17.62 17.62 0 0 0 .2 3zm-.33-6.27c-2.44-.06-5.21.38-5.21 2.76a2 2 0 0 0 2.11 2.14 3.05 3.05 0 0 0 3-2.06 2.22 2.22 0 0 0 .13-.71zM241.75 263.47a1.38 1.38 0 1 1-2.76 0 1.36 1.36 0 0 1 1.39-1.39 1.32 1.32 0 0 1 1.37 1.39zm-2.49 15.75v-12.29h2.24v12.29zM245.2 270.25c0-1.27 0-2.31-.1-3.32h2l.13 2a4.51 4.51 0 0 1 4.06-2.31c1.71 0 4.35 1 4.35 5.23v7.34h-2.24v-7.09c0-2-.73-3.63-2.84-3.63a3.18 3.18 0 0 0-3 2.29 3.26 3.26 0 0 0-.15 1v7.39h-2.21zM261.89 263.4v3.53h3.19v1.7h-3.19v6.63c0 1.52.43 2.38 1.67 2.38a4.84 4.84 0 0 0 1.3-.15l.1 1.68a5.67 5.67 0 0 1-2 .3 3.09 3.09 0 0 1-2.41-.94 4.52 4.52 0 0 1-.87-3.2v-6.7h-1.9v-1.7h1.9V264zM268.69 273.48c.05 3 2 4.26 4.21 4.26a8.22 8.22 0 0 0 3.41-.63l.38 1.6a10.1 10.1 0 0 1-4.09.76c-3.78 0-6-2.49-6-6.19s2.18-6.63 5.76-6.63c4 0 5.08 3.53 5.08 5.79a7.57 7.57 0 0 1-.08 1zm6.55-1.6c0-1.42-.58-3.63-3.1-3.63-2.26 0-3.25 2.08-3.43 3.63zM280.16 270.76c0-1.45 0-2.69-.1-3.83h2l.07 2.41h.11a3.67 3.67 0 0 1 3.4-2.69 2.43 2.43 0 0 1 .63.07v2.11a3.39 3.39 0 0 0-.76-.07 3.13 3.13 0 0 0-3 2.87 5.35 5.35 0 0 0-.11 1v6.55h-2.21zM297 278.76a8.3 8.3 0 0 1-3.53.71c-3.7 0-6.12-2.51-6.12-6.27a6.25 6.25 0 0 1 6.61-6.53 7.34 7.34 0 0 1 3.09.64l-.5 1.73a5.16 5.16 0 0 0-2.59-.59c-2.82 0-4.35 2.08-4.35 4.65 0 2.84 1.83 4.59 4.27 4.59a6.31 6.31 0 0 0 2.74-.61zM299.59 261.19h2.23v7.67h.05a4.19 4.19 0 0 1 1.6-1.58 4.62 4.62 0 0 1 2.29-.63c1.65 0 4.29 1 4.29 5.25v7.32h-2.24v-7.06c0-2-.73-3.66-2.84-3.66a3.22 3.22 0 0 0-3 2.24 2.8 2.8 0 0 0-.15 1.06v7.42h-2.23zM320.48 279.22l-.18-1.55h-.07a4.61 4.61 0 0 1-3.76 1.83 3.51 3.51 0 0 1-3.76-3.53c0-3 2.64-4.6 7.39-4.57v-.26a2.53 2.53 0 0 0-2.79-2.84 6.11 6.11 0 0 0-3.2.91l-.51-1.47a7.65 7.65 0 0 1 4-1.09c3.76 0 4.67 2.56 4.67 5v4.59a17.62 17.62 0 0 0 .2 3zm-.33-6.27c-2.44-.06-5.2.38-5.2 2.76a2 2 0 0 0 2.1 2.14 3.08 3.08 0 0 0 3-2.06 2.52 2.52 0 0 0 .12-.71zM325.91 270.25c0-1.27 0-2.31-.1-3.32h2l.13 2h.06a4.51 4.51 0 0 1 4.06-2.31c1.71 0 4.35 1 4.35 5.23v7.34h-2.24v-7.09c0-2-.73-3.63-2.84-3.63a3.17 3.17 0 0 0-3 2.29 3.26 3.26 0 0 0-.15 1v7.39h-2.24zM350.59 266.93c0 .89-.1 1.88-.1 3.37v7.14c0 2.82-.56 4.54-1.75 5.61a6.49 6.49 0 0 1-4.47 1.47 8 8 0 0 1-4.09-1l.56-1.7a7 7 0 0 0 3.61 1c2.28 0 4-1.19 4-4.29v-1.37h-.05a4.4 4.4 0 0 1-3.91 2.06c-3.05 0-5.23-2.59-5.23-6 0-4.16 2.71-6.52 5.53-6.52a4.12 4.12 0 0 1 3.84 2.13h.05l.1-1.85zm-2.31 4.85a3.29 3.29 0 0 0-.12-1 3.23 3.23 0 0 0-3.16-2.38c-2.13 0-3.65 1.8-3.65 4.65 0 2.41 1.22 4.41 3.63 4.41a3.27 3.27 0 0 0 3.1-2.28 4.08 4.08 0 0 0 .17-1.19zM355.44 273.48a3.93 3.93 0 0 0 4.22 4.26 8.17 8.17 0 0 0 3.4-.63l.38 1.6a10.06 10.06 0 0 1-4.09.76c-3.78 0-6-2.49-6-6.19s2.18-6.63 5.76-6.63c4 0 5.08 3.53 5.08 5.79a7.57 7.57 0 0 1-.08 1zm6.55-1.6c0-1.42-.58-3.63-3.1-3.63-2.26 0-3.25 2.08-3.42 3.63zM76.78 317.72a32.13 32.13 0 0 1 4.7-.36c3.17 0 5.43.74 6.93 2.14a7.87 7.87 0 0 1 2.41 6.14 9 9 0 0 1-2.46 6.65c-1.6 1.6-4.24 2.47-7.57 2.47a34.84 34.84 0 0 1-4-.21zM79 332.85a14.07 14.07 0 0 0 2.23.13c4.73 0 7.29-2.64 7.29-7.26 0-4-2.26-6.6-6.93-6.6a12.31 12.31 0 0 0-2.59.23zM96.1 318.86a1.31 1.31 0 0 1-1.42 1.37 1.33 1.33 0 0 1-1.35-1.37 1.36 1.36 0 0 1 1.4-1.39 1.32 1.32 0 0 1 1.37 1.39zm-2.49 15.74v-12.28h2.24v12.28zM110.14 322.32c0 .88-.1 1.87-.1 3.37v7.14c0 2.82-.56 4.54-1.75 5.61a6.51 6.51 0 0 1-4.47 1.47 8 8 0 0 1-4.09-1l.56-1.71a6.89 6.89 0 0 0 3.6 1c2.29 0 4-1.19 4-4.29v-1.41h-.06a4.37 4.37 0 0 1-3.91 2.05c-3 0-5.23-2.59-5.23-6 0-4.16 2.72-6.52 5.54-6.52a4.07 4.07 0 0 1 3.83 2.13l.11-1.85zm-2.31 4.85a3.28 3.28 0 0 0-3.25-3.38c-2.13 0-3.66 1.8-3.66 4.65 0 2.41 1.22 4.41 3.63 4.41a3.26 3.26 0 0 0 3.1-2.28 3.8 3.8 0 0 0 .18-1.2zM116.08 318.86a1.31 1.31 0 0 1-1.42 1.37 1.33 1.33 0 0 1-1.35-1.37 1.36 1.36 0 0 1 1.4-1.39 1.32 1.32 0 0 1 1.37 1.39zm-2.49 15.74v-12.28h2.24v12.28zM122.22 318.79v3.53h3.2V324h-3.2v6.62c0 1.53.44 2.39 1.68 2.39a5.27 5.27 0 0 0 1.29-.15l.11 1.67a5.45 5.45 0 0 1-2 .31 3.11 3.11 0 0 1-2.42-.94 4.57 4.57 0 0 1-.86-3.2V324h-1.9v-1.7H120v-2.95zM134.74 334.6l-.18-1.54h-.07a4.6 4.6 0 0 1-3.76 1.82 3.5 3.5 0 0 1-3.76-3.53c0-3 2.64-4.59 7.39-4.57v-.25a2.53 2.53 0 0 0-2.79-2.84 6.08 6.08 0 0 0-3.2.91l-.51-1.47a7.62 7.62 0 0 1 4-1.09c3.75 0 4.67 2.56 4.67 5v4.6a17.41 17.41 0 0 0 .2 2.94zm-.33-6.27c-2.44-.05-5.21.38-5.21 2.77a2 2 0 0 0 2.11 2.13 3 3 0 0 0 3-2.05 2.27 2.27 0 0 0 .13-.71zM140.17 316.58h2.24v18h-2.24zM151.24 332.32a5.88 5.88 0 0 0 2.95.89c1.62 0 2.38-.81 2.38-1.83s-.63-1.65-2.28-2.26c-2.21-.79-3.25-2-3.25-3.48 0-2 1.6-3.6 4.24-3.6a6.11 6.11 0 0 1 3 .76l-.56 1.62a4.81 4.81 0 0 0-2.51-.71c-1.32 0-2.06.76-2.06 1.68s.74 1.47 2.34 2.08c2.13.81 3.22 1.88 3.22 3.71 0 2.16-1.67 3.68-4.59 3.68a7 7 0 0 1-3.46-.84zM168.4 334.6l-.17-1.54h-.08a4.6 4.6 0 0 1-3.76 1.82 3.5 3.5 0 0 1-3.76-3.53c0-3 2.65-4.59 7.39-4.57v-.25a2.53 2.53 0 0 0-2.79-2.84 6.11 6.11 0 0 0-3.2.91l-.51-1.47a7.65 7.65 0 0 1 4-1.09c3.76 0 4.67 2.56 4.67 5v4.6a16.37 16.37 0 0 0 .21 2.94zm-.33-6.27c-2.43-.05-5.2.38-5.2 2.77a2 2 0 0 0 2.11 2.13 3.06 3.06 0 0 0 3-2.05 2.58 2.58 0 0 0 .12-.71zM173.84 316.58h2.23v18h-2.23zM181.07 328.87a3.93 3.93 0 0 0 4.22 4.26 8.17 8.17 0 0 0 3.4-.63l.38 1.6a10.06 10.06 0 0 1-4.09.76c-3.78 0-6-2.49-6-6.2s2.18-6.62 5.76-6.62c4 0 5.08 3.53 5.08 5.79a7.57 7.57 0 0 1-.08 1zm6.55-1.6c0-1.42-.58-3.63-3.09-3.63-2.26 0-3.25 2.08-3.43 3.63zM192.24 332.32a5.88 5.88 0 0 0 2.95.89c1.62 0 2.38-.81 2.38-1.83s-.63-1.65-2.28-2.26c-2.21-.79-3.25-2-3.25-3.48 0-2 1.6-3.6 4.24-3.6a6.08 6.08 0 0 1 3 .76l-.56 1.62a4.81 4.81 0 0 0-2.51-.71c-1.32 0-2.06.76-2.06 1.68s.74 1.47 2.34 2.08c2.13.81 3.22 1.88 3.22 3.71 0 2.16-1.67 3.68-4.59 3.68a7 7 0 0 1-3.46-.84zM214.79 334.6l-.18-1.54h-.08a4.56 4.56 0 0 1-3.75 1.82 3.5 3.5 0 0 1-3.76-3.53c0-3 2.64-4.59 7.39-4.57v-.25a2.54 2.54 0 0 0-2.8-2.84 6.13 6.13 0 0 0-3.2.91l-.5-1.47a7.61 7.61 0 0 1 4-1.09c3.76 0 4.68 2.56 4.68 5v4.6a17.41 17.41 0 0 0 .2 2.94zm-.33-6.27c-2.44-.05-5.21.38-5.21 2.77a2 2 0 0 0 2.11 2.13 3 3 0 0 0 3-2.05 2.27 2.27 0 0 0 .13-.71zM220.22 325.64c0-1.27 0-2.31-.1-3.32h2l.13 2h.05a4.51 4.51 0 0 1 4.06-2.31c1.7 0 4.34 1 4.34 5.23v7.33h-2.23v-7.08c0-2-.74-3.63-2.85-3.63a3.17 3.17 0 0 0-3 2.29 3.2 3.2 0 0 0-.16 1v7.38h-2.23zM244.92 316.58v14.85c0 1.09 0 2.34.11 3.17h-2l-.1-2.13a4.56 4.56 0 0 1-4.19 2.41c-3 0-5.26-2.51-5.26-6.24 0-4.09 2.52-6.6 5.51-6.6a4.12 4.12 0 0 1 3.71 1.88h.05v-7.34zm-2.23 10.74a4.29 4.29 0 0 0-.1-.94 3.29 3.29 0 0 0-3.23-2.59c-2.31 0-3.68 2-3.68 4.75 0 2.48 1.22 4.54 3.63 4.54a3.37 3.37 0 0 0 3.28-2.66 4.25 4.25 0 0 0 .1-1zM254 325.64c0-1.27 0-2.31-.1-3.32h2l.1 2a4.24 4.24 0 0 1 3.9-2.32 3.62 3.62 0 0 1 3.48 2.46h.05a5.09 5.09 0 0 1 1.37-1.6 4.2 4.2 0 0 1 2.72-.86c1.63 0 4 1.06 4 5.33v7.23h-2.19v-7c0-2.36-.86-3.79-2.66-3.79a2.89 2.89 0 0 0-2.64 2 3.68 3.68 0 0 0-.18 1.11v7.59h-2.18v-7.36c0-1.95-.87-3.38-2.57-3.38a3.06 3.06 0 0 0-2.77 2.24 3.23 3.23 0 0 0-.17 1.09v7.41H254zM282 334.6l-.18-1.54h-.07a4.6 4.6 0 0 1-3.76 1.82 3.5 3.5 0 0 1-3.76-3.53c0-3 2.64-4.59 7.39-4.57v-.25a2.53 2.53 0 0 0-2.79-2.84 6.08 6.08 0 0 0-3.2.91l-.51-1.47a7.65 7.65 0 0 1 4-1.09c3.76 0 4.67 2.56 4.67 5v4.6a17.41 17.41 0 0 0 .2 2.94zm-.33-6.27c-2.44-.05-5.2.38-5.2 2.77a2 2 0 0 0 2.1 2.13 3 3 0 0 0 3-2.05 2.27 2.27 0 0 0 .13-.71zM287.42 326.15c0-1.45 0-2.69-.1-3.83h2l.07 2.41h.1a3.69 3.69 0 0 1 3.41-2.69 2.43 2.43 0 0 1 .63.07v2.11a3.41 3.41 0 0 0-.76-.08 3.15 3.15 0 0 0-3 2.87 6.44 6.44 0 0 0-.1 1v6.55h-2.21zM298 328c.3-.43.73-1 1.09-1.39l3.6-4.24h2.7l-4.75 5.05 5.41 7.23h-2.72l-4.24-5.89L298 330v4.62h-2.21v-18H298zM309 328.87c0 3 2 4.26 4.21 4.26a8.22 8.22 0 0 0 3.41-.63l.38 1.6a10.1 10.1 0 0 1-4.09.76c-3.78 0-6-2.49-6-6.2s2.09-6.66 5.7-6.66c4 0 5.08 3.53 5.08 5.79a7.57 7.57 0 0 1-.08 1zm6.55-1.6c0-1.42-.58-3.63-3.1-3.63-2.26 0-3.25 2.08-3.43 3.63zM323.15 318.79v3.53h3.19V324h-3.19v6.62c0 1.53.43 2.39 1.67 2.39a5.29 5.29 0 0 0 1.3-.15l.1 1.67a5.41 5.41 0 0 1-2 .31 3.12 3.12 0 0 1-2.42-.94 4.57 4.57 0 0 1-.86-3.2V324h-1.9v-1.7H321v-2.95zM331.35 318.86a1.39 1.39 0 0 1-2.77 0 1.36 1.36 0 0 1 1.39-1.39 1.33 1.33 0 0 1 1.38 1.39zm-2.49 15.74v-12.28h2.23v12.28zM334.8 325.64c0-1.27 0-2.31-.1-3.32h2l.12 2h.05a4.53 4.53 0 0 1 4.07-2.31c1.7 0 4.34 1 4.34 5.23v7.33H343v-7.08c0-2-.73-3.63-2.84-3.63a3.27 3.27 0 0 0-3.15 3.33v7.38h-2.21zM359.48 322.32c-.05.88-.11 1.87-.11 3.37v7.14c0 2.82-.55 4.54-1.75 5.61a6.49 6.49 0 0 1-4.47 1.47 7.91 7.91 0 0 1-4.08-1l.55-1.71a7 7 0 0 0 3.61 1c2.29 0 4-1.19 4-4.29v-1.41h-.05a4.4 4.4 0 0 1-3.91 2.05c-3.05 0-5.23-2.59-5.23-6 0-4.16 2.72-6.52 5.53-6.52a4.08 4.08 0 0 1 3.84 2.13h.05l.1-1.85zm-2.31 4.85a3.28 3.28 0 0 0-3.25-3.38c-2.14 0-3.66 1.8-3.66 4.65 0 2.41 1.22 4.41 3.63 4.41a3.27 3.27 0 0 0 3.1-2.28 3.8 3.8 0 0 0 .18-1.2z"/><circle class="cls-6" cx="41.48" cy="217" r="4.5"/><circle class="cls-6" cx="41.85" cy="272" r="4.5"/><circle class="cls-6" cx="42.22" cy="327" r="4.5"/><path class="cls-5" d="M493.55 218.45l-1.78 5.38h-2.28l5.81-17.12h2.7l5.84 17.12h-2.37l-1.82-5.38zm5.61-1.73l-1.68-4.93c-.38-1.11-.63-2.13-.89-3.12-.25 1-.53 2.06-.86 3.1l-1.73 4.95zM506.17 214.87c0-1.27 0-2.32-.11-3.33h2l.13 2h.05a4.51 4.51 0 0 1 4.06-2.31c1.71 0 4.35 1 4.35 5.23v7.34h-2.24v-7.09c0-2-.73-3.63-2.84-3.63a3.18 3.18 0 0 0-3 2.29 3.26 3.26 0 0 0-.15 1v7.39h-2.23zM527.06 223.83l-.18-1.55h-.07a4.61 4.61 0 0 1-3.76 1.83 3.5 3.5 0 0 1-3.76-3.53c0-3 2.64-4.6 7.39-4.57v-.26a2.53 2.53 0 0 0-2.79-2.84 6.17 6.17 0 0 0-3.2.91l-.51-1.47a7.65 7.65 0 0 1 4-1.09c3.76 0 4.67 2.56 4.67 5v4.59a17.62 17.62 0 0 0 .2 3zm-.33-6.27c-2.44-.05-5.2.38-5.2 2.76a2 2 0 0 0 2.1 2.14 3.05 3.05 0 0 0 3-2.06 2.22 2.22 0 0 0 .13-.71zM532.49 205.8h2.24v18h-2.24zM539.3 211.54l2.7 7.26c.28.81.58 1.78.79 2.51h.05c.23-.73.48-1.67.78-2.56l2.44-7.21h2.36l-3.35 8.76c-1.6 4.21-2.69 6.37-4.21 7.69a6 6 0 0 1-2.75 1.45l-.55-1.88a6 6 0 0 0 2-1.09 6.8 6.8 0 0 0 1.88-2.49 1.71 1.71 0 0 0 .18-.53 2 2 0 0 0-.15-.59l-4.55-11.32zM553.13 208v3.53h3.2v1.7h-3.2v6.63c0 1.52.44 2.38 1.68 2.38a4.9 4.9 0 0 0 1.3-.15l.1 1.68a5.44 5.44 0 0 1-2 .3 3.12 3.12 0 0 1-2.42-.94 4.57 4.57 0 0 1-.86-3.2v-6.7h-1.9v-1.7H551v-2.95zM561.33 208.09a1.31 1.31 0 0 1-1.42 1.37 1.33 1.33 0 0 1-1.34-1.37 1.36 1.36 0 0 1 1.39-1.4 1.33 1.33 0 0 1 1.37 1.4zm-2.48 15.74v-12.29h2.23v12.29zM573.55 223.37a8.18 8.18 0 0 1-3.53.71c-3.71 0-6.12-2.51-6.12-6.27a6.24 6.24 0 0 1 6.6-6.52 7.57 7.57 0 0 1 3.1.63l-.51 1.73a5.1 5.1 0 0 0-2.59-.59c-2.82 0-4.34 2.08-4.34 4.65 0 2.84 1.83 4.59 4.26 4.59a6.57 6.57 0 0 0 2.75-.6zM575.86 221.54a5.84 5.84 0 0 0 2.94.89c1.63 0 2.39-.81 2.39-1.83s-.64-1.65-2.29-2.26c-2.21-.78-3.25-2-3.25-3.47 0-2 1.6-3.61 4.24-3.61a6.16 6.16 0 0 1 3 .76l-.55 1.63a4.76 4.76 0 0 0-2.52-.71c-1.32 0-2.05.76-2.05 1.67s.73 1.47 2.33 2.08c2.13.82 3.23 1.88 3.23 3.71 0 2.16-1.68 3.68-4.6 3.68a7 7 0 0 1-3.45-.84zM490.78 262.31A25.36 25.36 0 0 1 495 262a7 7 0 0 1 4.8 1.42 4.6 4.6 0 0 1 1.5 3.58 5 5 0 0 1-1.32 3.65 7.08 7.08 0 0 1-5.23 1.88 7.48 7.48 0 0 1-1.78-.15v6.86h-2.21zm2.21 8.25a7.24 7.24 0 0 0 1.83.18c2.66 0 4.29-1.3 4.29-3.66s-1.6-3.35-4-3.35a8.76 8.76 0 0 0-2.08.18zM504.08 261.19h2.24v18h-2.24zM516.88 279.22l-.18-1.55h-.07a4.61 4.61 0 0 1-3.76 1.83 3.51 3.51 0 0 1-3.76-3.53c0-3 2.64-4.6 7.39-4.57v-.26a2.53 2.53 0 0 0-2.79-2.84 6.08 6.08 0 0 0-3.2.91l-.51-1.47a7.62 7.62 0 0 1 4-1.09c3.75 0 4.67 2.56 4.67 5v4.59a17.62 17.62 0 0 0 .2 3zm-.33-6.27c-2.44-.06-5.21.38-5.21 2.76a2 2 0 0 0 2.11 2.14 3.05 3.05 0 0 0 3-2.06 2.22 2.22 0 0 0 .13-.71zM522.31 270.25c0-1.27 0-2.31-.1-3.32h2l.13 2a4.51 4.51 0 0 1 4.06-2.31c1.7 0 4.34 1 4.34 5.23v7.34h-2.23v-7.09c0-2-.74-3.63-2.84-3.63a3.17 3.17 0 0 0-3 2.29 3.26 3.26 0 0 0-.15 1v7.39h-2.24zM536.4 270.25c0-1.27 0-2.31-.1-3.32h2l.13 2h.05a4.51 4.51 0 0 1 4.06-2.31c1.7 0 4.34 1 4.34 5.23v7.34h-2.23v-7.09c0-2-.74-3.63-2.84-3.63a3.17 3.17 0 0 0-3 2.29 3.26 3.26 0 0 0-.15 1v7.39h-2.26zM553 263.47a1.32 1.32 0 0 1-1.42 1.38 1.33 1.33 0 0 1-1.35-1.38 1.36 1.36 0 0 1 1.4-1.39 1.32 1.32 0 0 1 1.37 1.39zm-2.49 15.75v-12.29h2.24v12.29zM556.43 270.25c0-1.27 0-2.31-.1-3.32h2l.13 2a4.51 4.51 0 0 1 4.06-2.31c1.7 0 4.35 1 4.35 5.23v7.34h-2.24v-7.09c0-2-.74-3.63-2.84-3.63a3.17 3.17 0 0 0-3 2.29 3.26 3.26 0 0 0-.15 1v7.39h-2.24zM581.11 266.93c-.05.89-.1 1.88-.1 3.37v7.14c0 2.82-.56 4.54-1.75 5.61a6.49 6.49 0 0 1-4.47 1.47 8 8 0 0 1-4.09-1l.56-1.7a7 7 0 0 0 3.61 1c2.28 0 4-1.19 4-4.29v-1.37h-.05a4.4 4.4 0 0 1-3.91 2.06c-3 0-5.23-2.59-5.23-6 0-4.16 2.71-6.52 5.53-6.52a4.12 4.12 0 0 1 3.84 2.13l.1-1.85zm-2.31 4.85a3.29 3.29 0 0 0-.12-1 3.23 3.23 0 0 0-3.13-2.36c-2.13 0-3.65 1.8-3.65 4.65 0 2.41 1.22 4.41 3.63 4.41a3.25 3.25 0 0 0 3.09-2.28 3.78 3.78 0 0 0 .18-1.19zM596.9 279.22l-.17-1.55h-.08a4.61 4.61 0 0 1-3.76 1.83 3.51 3.51 0 0 1-3.76-3.53c0-3 2.64-4.6 7.39-4.57v-.26a2.53 2.53 0 0 0-2.79-2.84 6.11 6.11 0 0 0-3.2.91l-.51-1.47a7.65 7.65 0 0 1 4-1.09c3.76 0 4.67 2.56 4.67 5v4.59a17.62 17.62 0 0 0 .2 3zm-.33-6.27c-2.43-.06-5.2.38-5.2 2.76a2 2 0 0 0 2.11 2.14 3.07 3.07 0 0 0 3-2.06 2.52 2.52 0 0 0 .12-.71zM602.34 270.25c0-1.27 0-2.31-.11-3.32h2l.13 2a4.51 4.51 0 0 1 4.06-2.31c1.71 0 4.35 1 4.35 5.23v7.34h-2.24v-7.09c0-2-.73-3.63-2.84-3.63a3.18 3.18 0 0 0-3 2.29 3.26 3.26 0 0 0-.15 1v7.39h-2.23zM627 261.19V276c0 1.09 0 2.34.1 3.18h-2l-.11-2.14a4.53 4.53 0 0 1-4.19 2.42c-3 0-5.25-2.52-5.25-6.25 0-4.09 2.51-6.6 5.51-6.6a4.09 4.09 0 0 1 3.7 1.88h.06v-7.34zm-2.23 10.74a3.77 3.77 0 0 0-.11-.94 3.28 3.28 0 0 0-3.22-2.59c-2.31 0-3.68 2-3.68 4.75 0 2.49 1.22 4.54 3.63 4.54a3.35 3.35 0 0 0 3.31-2.69 3.74 3.74 0 0 0 .11-1zM635.82 276.93a5.88 5.88 0 0 0 2.95.89c1.62 0 2.39-.81 2.39-1.83s-.64-1.65-2.29-2.26c-2.21-.78-3.25-2-3.25-3.48 0-2 1.6-3.6 4.24-3.6a6.08 6.08 0 0 1 3 .76l-.56 1.63a4.71 4.71 0 0 0-2.51-.72c-1.32 0-2.06.77-2.06 1.68s.74 1.47 2.34 2.08c2.13.81 3.22 1.88 3.22 3.71 0 2.16-1.67 3.68-4.59 3.68a7 7 0 0 1-3.46-.84zM654.94 278.76a8.3 8.3 0 0 1-3.53.71c-3.71 0-6.12-2.51-6.12-6.27a6.25 6.25 0 0 1 6.6-6.53 7.39 7.39 0 0 1 3.1.64l-.51 1.73a5.1 5.1 0 0 0-2.59-.59c-2.81 0-4.34 2.08-4.34 4.65 0 2.84 1.83 4.59 4.27 4.59a6.31 6.31 0 0 0 2.74-.61zM657.56 261.19h2.23v7.67h.05a4.12 4.12 0 0 1 1.6-1.58 4.62 4.62 0 0 1 2.29-.63c1.65 0 4.29 1 4.29 5.25v7.32h-2.24v-7.06c0-2-.73-3.66-2.84-3.66a3.22 3.22 0 0 0-3 2.24 2.8 2.8 0 0 0-.15 1.06v7.42h-2.23zM672.89 273.48a3.93 3.93 0 0 0 4.22 4.26 8.21 8.21 0 0 0 3.4-.63l.38 1.6a10.06 10.06 0 0 1-4.09.76c-3.78 0-6-2.49-6-6.19s2.18-6.63 5.76-6.63c4 0 5.08 3.53 5.08 5.79a7.57 7.57 0 0 1-.08 1zm6.55-1.6c0-1.42-.58-3.63-3.1-3.63-2.26 0-3.25 2.08-3.42 3.63zM695 261.19V276c0 1.09 0 2.34.1 3.18h-2l-.1-2.14h-.05a4.53 4.53 0 0 1-4.19 2.42c-3 0-5.25-2.52-5.25-6.25 0-4.09 2.51-6.6 5.51-6.6a4.09 4.09 0 0 1 3.7 1.88v-7.34zm-2.24 10.74a3.76 3.76 0 0 0-.1-.94 3.29 3.29 0 0 0-3.22-2.59c-2.31 0-3.68 2-3.68 4.75 0 2.49 1.22 4.54 3.63 4.54a3.35 3.35 0 0 0 3.27-2.66 3.75 3.75 0 0 0 .1-1zM709 275.87c0 1.26 0 2.38.1 3.35h-2l-.13-2h-.05a4.62 4.62 0 0 1-4.06 2.29c-1.93 0-4.24-1.07-4.24-5.39v-7.18h2.23v6.8c0 2.34.71 3.91 2.75 3.91a3.24 3.24 0 0 0 2.94-2 3.17 3.17 0 0 0 .2-1.14v-7.54H709zM712.67 261.19h2.24v18h-2.24zM721.15 263.47a1.32 1.32 0 0 1-1.42 1.38 1.33 1.33 0 0 1-1.34-1.38 1.36 1.36 0 0 1 1.39-1.39 1.32 1.32 0 0 1 1.37 1.39zm-2.48 15.75v-12.29h2.23v12.29zM724.61 270.25c0-1.27 0-2.31-.11-3.32h2l.12 2a4.52 4.52 0 0 1 4.07-2.31c1.7 0 4.34 1 4.34 5.23v7.34h-2.24v-7.09c0-2-.73-3.63-2.84-3.63a3.18 3.18 0 0 0-3 2.29 3.26 3.26 0 0 0-.15 1v7.39h-2.23zM749.28 266.93c0 .89-.1 1.88-.1 3.37v7.14c0 2.82-.56 4.54-1.75 5.61a6.49 6.49 0 0 1-4.47 1.47 8 8 0 0 1-4.09-1l.56-1.7a7.06 7.06 0 0 0 3.61 1c2.28 0 4-1.19 4-4.29v-1.37a4.4 4.4 0 0 1-3.91 2.06c-3 0-5.23-2.59-5.23-6 0-4.16 2.72-6.52 5.53-6.52a4.11 4.11 0 0 1 3.84 2.13h.05l.1-1.85zm-2.28 4.85a3.29 3.29 0 0 0-.12-1 3.23 3.23 0 0 0-3.13-2.36c-2.13 0-3.65 1.8-3.65 4.65 0 2.41 1.22 4.41 3.63 4.41a3.27 3.27 0 0 0 3.1-2.28 4.08 4.08 0 0 0 .17-1.2zM490.78 317.72a21.6 21.6 0 0 1 4-.36c2.21 0 3.63.39 4.69 1.25a3.58 3.58 0 0 1 1.43 3 4.08 4.08 0 0 1-2.9 3.76v.05a4.41 4.41 0 0 1 3.53 4.29 4.6 4.6 0 0 1-1.45 3.43c-1.19 1.09-3.12 1.6-5.91 1.6a24.21 24.21 0 0 1-3.43-.21zm2.21 7h2c2.34 0 3.71-1.22 3.71-2.87 0-2-1.52-2.79-3.76-2.79a9.2 9.2 0 0 0-1.95.15zm0 8.2a11.38 11.38 0 0 0 1.85.1c2.29 0 4.4-.84 4.4-3.33 0-2.33-2-3.3-4.42-3.3H493zM505.81 328.87a3.93 3.93 0 0 0 4.22 4.26 8.21 8.21 0 0 0 3.4-.63l.38 1.6a10.06 10.06 0 0 1-4.09.76c-3.78 0-6-2.49-6-6.2s2.18-6.62 5.76-6.62c4 0 5.08 3.53 5.08 5.79a7.57 7.57 0 0 1-.08 1zm6.55-1.6c0-1.42-.58-3.63-3.1-3.63-2.26 0-3.25 2.08-3.42 3.63zM517.29 325.64c0-1.27 0-2.31-.11-3.32h2l.13 2h.05a4.52 4.52 0 0 1 4.07-2.31c1.7 0 4.34 1 4.34 5.23v7.33h-2.24v-7.08c0-2-.73-3.63-2.84-3.63a3.18 3.18 0 0 0-3 2.29 3.22 3.22 0 0 0-.15 1v7.38h-2.23zM540.14 334.15a8.33 8.33 0 0 1-3.53.71c-3.71 0-6.12-2.51-6.12-6.27a6.24 6.24 0 0 1 6.6-6.53 7.39 7.39 0 0 1 3.1.64l-.51 1.72a5.23 5.23 0 0 0-2.59-.58c-2.82 0-4.34 2.08-4.34 4.65 0 2.84 1.83 4.59 4.26 4.59a6.39 6.39 0 0 0 2.75-.61zM542.75 316.58H545v7.67a4.05 4.05 0 0 1 1.6-1.58 4.58 4.58 0 0 1 2.28-.63c1.65 0 4.29 1 4.29 5.25v7.31H551v-7.05c0-2-.74-3.66-2.85-3.66a3.21 3.21 0 0 0-3 2.23 2.69 2.69 0 0 0-.15 1.07v7.41h-2.24zM556.84 325.64c0-1.27 0-2.31-.1-3.32h2l.1 2h.07a4.24 4.24 0 0 1 3.86-2.26 3.62 3.62 0 0 1 3.48 2.46 5 5 0 0 1 1.37-1.6 4.2 4.2 0 0 1 2.72-.86c1.62 0 4 1.06 4 5.33v7.23h-2.14v-7c0-2.36-.86-3.79-2.66-3.79a2.89 2.89 0 0 0-2.64 2 3.4 3.4 0 0 0-.18 1.11v7.59h-2.19v-7.36c0-1.95-.86-3.38-2.56-3.38a3.06 3.06 0 0 0-2.77 2.24 3.23 3.23 0 0 0-.17 1.09v7.41h-2.19zM584.82 334.6l-.18-1.54h-.07a4.6 4.6 0 0 1-3.76 1.82 3.5 3.5 0 0 1-3.76-3.53c0-3 2.64-4.59 7.39-4.57v-.25a2.53 2.53 0 0 0-2.79-2.84 6.08 6.08 0 0 0-3.2.91l-.51-1.47a7.62 7.62 0 0 1 4-1.09c3.75 0 4.67 2.56 4.67 5v4.6a17.41 17.41 0 0 0 .2 2.94zm-.33-6.27c-2.44-.05-5.21.38-5.21 2.77a2 2 0 0 0 2.11 2.13 3 3 0 0 0 3-2.05 2.27 2.27 0 0 0 .13-.71zM590.25 326.15c0-1.45 0-2.69-.1-3.83h2l.07 2.41h.1a3.69 3.69 0 0 1 3.41-2.69 2.43 2.43 0 0 1 .63.07v2.11a3.41 3.41 0 0 0-.76-.08 3.15 3.15 0 0 0-3 2.87 6.44 6.44 0 0 0-.1 1v6.55h-2.21zM600.87 328c.3-.43.73-1 1.09-1.39l3.6-4.24h2.69l-4.74 5.05 5.4 7.23h-2.71l-4.2-5.94-1.13 1.29v4.62h-2.21v-18h2.21zM613.48 318.86a1.38 1.38 0 0 1-2.76 0 1.36 1.36 0 0 1 1.39-1.39 1.32 1.32 0 0 1 1.37 1.39zM611 334.6v-12.28h2.24v12.28zM616.94 325.64c0-1.27 0-2.31-.11-3.32h2l.13 2a4.51 4.51 0 0 1 4.06-2.31c1.71 0 4.35 1 4.35 5.23v7.33h-2.24v-7.08c0-2-.73-3.63-2.84-3.63a3.18 3.18 0 0 0-3 2.29 3.22 3.22 0 0 0-.15 1v7.38h-2.23zM641.61 322.32c-.05.88-.1 1.87-.1 3.37v7.14c0 2.82-.56 4.54-1.75 5.61a6.49 6.49 0 0 1-4.47 1.47 8 8 0 0 1-4.09-1l.56-1.71a6.9 6.9 0 0 0 3.61 1c2.28 0 4-1.19 4-4.29v-1.41h-.05a4.4 4.4 0 0 1-3.91 2.05c-3 0-5.23-2.59-5.23-6 0-4.16 2.71-6.52 5.53-6.52a4.09 4.09 0 0 1 3.84 2.13l.1-1.85zm-2.31 4.85a3.24 3.24 0 0 0-3.25-3.38c-2.13 0-3.65 1.8-3.65 4.65 0 2.41 1.22 4.41 3.63 4.41a3.27 3.27 0 0 0 3.1-2.28 4.1 4.1 0 0 0 .17-1.2zM657.41 334.6l-.18-1.54h-.08a4.57 4.57 0 0 1-3.76 1.82 3.5 3.5 0 0 1-3.75-3.53c0-3 2.64-4.59 7.38-4.57v-.25a2.53 2.53 0 0 0-2.79-2.84 6.13 6.13 0 0 0-3.2.91l-.51-1.47a7.65 7.65 0 0 1 4-1.09c3.76 0 4.67 2.56 4.67 5v4.6a16.37 16.37 0 0 0 .21 2.94zm-.34-6.27c-2.43-.05-5.2.38-5.2 2.77a2 2 0 0 0 2.11 2.13 3.06 3.06 0 0 0 3-2.05 2.58 2.58 0 0 0 .12-.71zM662.84 325.64c0-1.27 0-2.31-.1-3.32h2l.12 2A4.53 4.53 0 0 1 669 322c1.7 0 4.34 1 4.34 5.23v7.33h-2.24v-7.08c0-2-.73-3.63-2.84-3.63a3.27 3.27 0 0 0-3.15 3.33v7.38h-2.23zM687.54 316.58v14.85c0 1.09 0 2.34.1 3.17h-2l-.1-2.13a4.56 4.56 0 0 1-4.19 2.41c-3 0-5.26-2.51-5.26-6.24 0-4.09 2.51-6.6 5.51-6.6a4.12 4.12 0 0 1 3.71 1.88v-7.34zm-2.23 10.74a4.29 4.29 0 0 0-.1-.94 3.29 3.29 0 0 0-3.23-2.59c-2.31 0-3.68 2-3.68 4.75 0 2.48 1.22 4.54 3.63 4.54a3.37 3.37 0 0 0 3.28-2.66 4.25 4.25 0 0 0 .1-1zM490.93 360v-10.59h-1.72v-1.71h1.72v-.58a5.79 5.79 0 0 1 1.42-4.29 4.3 4.3 0 0 1 3-1.14 5.1 5.1 0 0 1 1.9.35l-.3 1.73a3.38 3.38 0 0 0-1.42-.28c-1.91 0-2.39 1.68-2.39 3.55v.66h3v1.71h-3V360zM508.91 353.75c0 4.54-3.15 6.52-6.12 6.52-3.33 0-5.89-2.43-5.89-6.32 0-4.11 2.69-6.52 6.09-6.52s5.92 2.57 5.92 6.32zm-9.75.12c0 2.7 1.55 4.73 3.73 4.73s3.73-2 3.73-4.78c0-2.08-1-4.72-3.68-4.72s-3.78 2.44-3.78 4.77zM511.73 351.54c0-1.45 0-2.69-.11-3.84h2l.08 2.42h.1a3.68 3.68 0 0 1 3.4-2.69 2.43 2.43 0 0 1 .63.07v2.11a3.28 3.28 0 0 0-.76-.08 3.13 3.13 0 0 0-3 2.87 6.38 6.38 0 0 0-.11 1v6.6h-2.2zM521 354.26c.05 3 2 4.26 4.21 4.26a8.22 8.22 0 0 0 3.41-.63l.38 1.6a10.1 10.1 0 0 1-4.09.76c-3.78 0-6-2.49-6-6.2s2.18-6.62 5.76-6.62c4 0 5.08 3.52 5.08 5.78a7.61 7.61 0 0 1-.08 1.05zm6.55-1.6c0-1.43-.58-3.64-3.1-3.64-2.26 0-3.25 2.09-3.43 3.64zM541.25 359.54a8.3 8.3 0 0 1-3.53.71c-3.7 0-6.11-2.52-6.11-6.27a6.24 6.24 0 0 1 6.6-6.53 7.3 7.3 0 0 1 3.09.64l-.5 1.72a5.26 5.26 0 0 0-2.59-.58c-2.82 0-4.34 2.08-4.34 4.64 0 2.85 1.82 4.6 4.26 4.6a6.31 6.31 0 0 0 2.74-.61zM550.67 360l-.18-1.55h-.07a4.58 4.58 0 0 1-3.76 1.83 3.5 3.5 0 0 1-3.76-3.53c0-3 2.64-4.59 7.39-4.57v-.25a2.53 2.53 0 0 0-2.79-2.84 6.11 6.11 0 0 0-3.2.91l-.51-1.47a7.65 7.65 0 0 1 4-1.09c3.76 0 4.67 2.56 4.67 5v4.6a17.49 17.49 0 0 0 .2 2.94zm-.33-6.27c-2.43-.05-5.2.38-5.2 2.77a2 2 0 0 0 2.1 2.13 3.07 3.07 0 0 0 3-2.05 2.58 2.58 0 0 0 .12-.72zM555.8 357.71a5.88 5.88 0 0 0 3 .89c1.62 0 2.38-.82 2.38-1.83s-.63-1.65-2.28-2.26c-2.21-.79-3.25-2-3.25-3.48 0-2 1.6-3.6 4.24-3.6a6.11 6.11 0 0 1 3 .76l-.56 1.62a4.81 4.81 0 0 0-2.51-.71c-1.32 0-2.06.76-2.06 1.68s.74 1.47 2.34 2.08c2.13.81 3.22 1.88 3.22 3.71 0 2.15-1.67 3.68-4.59 3.68a7 7 0 0 1-3.46-.84zM568.85 344.18v3.52h3.2v1.71h-3.2V356c0 1.53.43 2.39 1.68 2.39a5.27 5.27 0 0 0 1.29-.15l.1 1.67a5.37 5.37 0 0 1-2 .31 3.09 3.09 0 0 1-2.41-.94 4.57 4.57 0 0 1-.86-3.2v-6.7h-1.91v-1.68h1.91v-2.94zM577.05 344.25a1.31 1.31 0 0 1-1.42 1.37 1.33 1.33 0 0 1-1.35-1.37 1.37 1.37 0 0 1 1.4-1.4 1.33 1.33 0 0 1 1.37 1.4zM574.56 360v-12.3h2.24V360zM580.5 351c0-1.27 0-2.31-.1-3.33h2l.13 2a4.51 4.51 0 0 1 4.06-2.31c1.7 0 4.34 1 4.34 5.23V360h-2.23v-7.08c0-2-.74-3.63-2.84-3.63a3.17 3.17 0 0 0-3 2.28 3.26 3.26 0 0 0-.15 1V360h-2.21zM605.18 347.7c0 .89-.1 1.88-.1 3.38v7.14c0 2.81-.56 4.54-1.75 5.61a6.56 6.56 0 0 1-4.47 1.47 8 8 0 0 1-4.09-1l.56-1.7a6.9 6.9 0 0 0 3.61 1c2.28 0 4-1.2 4-4.29v-1.37a4.4 4.4 0 0 1-3.91 2.05c-3.05 0-5.24-2.59-5.24-6 0-4.16 2.72-6.52 5.54-6.52a4.07 4.07 0 0 1 3.83 2.13l.11-1.86zm-2.31 4.85a2.91 2.91 0 0 0-.13-1 3.2 3.2 0 0 0-3.12-2.36c-2.13 0-3.66 1.8-3.66 4.64 0 2.42 1.22 4.42 3.64 4.42a3.25 3.25 0 0 0 3.09-2.28 3.84 3.84 0 0 0 .18-1.2z"/><circle class="cls-6" cx="455.48" cy="217" r="4.5"/><circle class="cls-6" cx="455.85" cy="272" r="4.5"/><circle class="cls-6" cx="456.22" cy="327" r="4.5"/><path class="cls-5" d="M904.78 206.94a32.23 32.23 0 0 1 4.7-.35c3.17 0 5.43.73 6.93 2.13a7.91 7.91 0 0 1 2.41 6.15 9.06 9.06 0 0 1-2.46 6.65c-1.6 1.6-4.24 2.46-7.57 2.46a37.54 37.54 0 0 1-4-.2zm2.22 15.14a14.22 14.22 0 0 0 2.23.12c4.73 0 7.29-2.64 7.29-7.26 0-4-2.26-6.6-6.93-6.6a12.31 12.31 0 0 0-2.59.23zM932.83 217.58c0 4.55-3.14 6.53-6.11 6.53-3.33 0-5.9-2.44-5.9-6.32 0-4.12 2.7-6.53 6.1-6.53s5.91 2.56 5.91 6.32zm-9.75.13c0 2.69 1.55 4.72 3.74 4.72s3.73-2 3.73-4.77c0-2.08-1-4.72-3.68-4.72s-3.79 2.43-3.79 4.77zM944.41 223.37a8.14 8.14 0 0 1-3.53.71c-3.7 0-6.12-2.51-6.12-6.27a6.24 6.24 0 0 1 6.61-6.52 7.52 7.52 0 0 1 3.09.63l-.51 1.73a5.09 5.09 0 0 0-2.58-.59c-2.82 0-4.35 2.08-4.35 4.65 0 2.84 1.83 4.59 4.27 4.59a6.47 6.47 0 0 0 2.74-.6zM957.31 220.48c0 1.27 0 2.38.1 3.35h-2l-.13-2a4.62 4.62 0 0 1-4.06 2.29c-1.93 0-4.24-1.07-4.24-5.39v-7.18h2.23v6.8c0 2.34.72 3.91 2.75 3.91a3.22 3.22 0 0 0 2.94-2 3.17 3.17 0 0 0 .2-1.14v-7.54h2.24zM961 214.87c0-1.27 0-2.32-.11-3.33h2l.1 2h.08a4.22 4.22 0 0 1 3.86-2.26 3.63 3.63 0 0 1 3.47 2.46h.06a5.08 5.08 0 0 1 1.37-1.6 4.17 4.17 0 0 1 2.71-.86c1.63 0 4 1.07 4 5.33v7.24h-2.18v-7c0-2.36-.87-3.78-2.67-3.78a2.89 2.89 0 0 0-2.64 2 3.7 3.7 0 0 0-.18 1.12v7.59h-2.18v-7.37c0-2-.86-3.37-2.57-3.37a3 3 0 0 0-2.76 2.23 3 3 0 0 0-.18 1.09v7.42H961zM983.43 218.09c.05 3 2 4.27 4.22 4.27a8 8 0 0 0 3.4-.64l.38 1.6a9.89 9.89 0 0 1-4.09.76c-3.78 0-6-2.49-6-6.19s2.18-6.63 5.76-6.63c4 0 5.08 3.53 5.08 5.79a10 10 0 0 1-.07 1zm6.55-1.6c0-1.42-.58-3.63-3.09-3.63-2.26 0-3.25 2.08-3.43 3.63zM994.91 214.87c0-1.27 0-2.32-.1-3.33h2l.12 2h.07a4.5 4.5 0 0 1 4.06-2.31c1.7 0 4.34 1 4.34 5.23v7.34h-2.23v-7.09c0-2-.74-3.63-2.85-3.63a3.17 3.17 0 0 0-3 2.29 3 3 0 0 0-.16 1v7.39h-2.23zM1011.59 208v3.53h3.2v1.7h-3.2v6.63c0 1.52.43 2.38 1.68 2.38a4.81 4.81 0 0 0 1.29-.15l.1 1.68a5.44 5.44 0 0 1-2 .3 3.09 3.09 0 0 1-2.41-.94 4.53 4.53 0 0 1-.86-3.2v-6.7h-1.91v-1.7h1.91v-2.95zM1024.11 223.83l-.18-1.55h-.08a4.58 4.58 0 0 1-3.76 1.83 3.5 3.5 0 0 1-3.75-3.53c0-3 2.64-4.6 7.39-4.57v-.26a2.54 2.54 0 0 0-2.8-2.84 6.23 6.23 0 0 0-3.2.91l-.5-1.47a7.58 7.58 0 0 1 4-1.09c3.76 0 4.67 2.56 4.67 5v4.59a17.55 17.55 0 0 0 .21 3zm-.33-6.27c-2.44-.05-5.21.38-5.21 2.76a2 2 0 0 0 2.11 2.14 3.06 3.06 0 0 0 3-2.06 2.22 2.22 0 0 0 .13-.71zM1032.13 208v3.53h3.2v1.7h-3.2v6.63c0 1.52.43 2.38 1.67 2.38a4.84 4.84 0 0 0 1.3-.15l.1 1.68a5.44 5.44 0 0 1-2 .3 3.09 3.09 0 0 1-2.41-.94 4.53 4.53 0 0 1-.86-3.2v-6.7H1028v-1.7h2v-2.95zM1040.33 208.09a1.39 1.39 0 0 1-2.77 0 1.37 1.37 0 0 1 1.4-1.4 1.33 1.33 0 0 1 1.37 1.4zm-2.49 15.74v-12.29h2.23v12.29zM1054.9 217.58c0 4.55-3.15 6.53-6.12 6.53-3.32 0-5.89-2.44-5.89-6.32 0-4.12 2.69-6.53 6.1-6.53s5.91 2.56 5.91 6.32zm-9.75.13c0 2.69 1.55 4.72 3.73 4.72s3.74-2 3.74-4.77c0-2.08-1-4.72-3.68-4.72s-3.79 2.43-3.79 4.77zM1057.72 214.87c0-1.27 0-2.32-.1-3.33h2l.13 2a4.51 4.51 0 0 1 4.06-2.31c1.7 0 4.34 1 4.34 5.23v7.34H1066v-7.09c0-2-.74-3.63-2.85-3.63a3.17 3.17 0 0 0-3 2.29 3 3 0 0 0-.16 1v7.39h-2.23zM904.78 262.33A23 23 0 0 1 909 262c2.36 0 3.89.43 5 1.39a4.27 4.27 0 0 1 1.35 3.25 4.49 4.49 0 0 1-3.23 4.37v.08c1.32.45 2.11 1.67 2.52 3.45a26 26 0 0 0 1.32 4.7h-2.29a22.3 22.3 0 0 1-1.14-4.09c-.51-2.36-1.42-3.25-3.43-3.33H907v7.42h-2.21zm2.21 7.8h2.26c2.36 0 3.86-1.3 3.86-3.25 0-2.21-1.6-3.18-3.94-3.2a9.19 9.19 0 0 0-2.18.2zM929.59 273c0 4.55-3.15 6.53-6.12 6.53-3.33 0-5.89-2.44-5.89-6.33 0-4.11 2.69-6.52 6.09-6.52s5.92 2.53 5.92 6.32zm-9.75.13c0 2.69 1.54 4.72 3.73 4.72s3.73-2 3.73-4.77c0-2.09-1-4.73-3.68-4.73s-3.78 2.41-3.78 4.75zM932.3 279.22c.05-.84.1-2.09.1-3.18v-14.85h2.21v7.72a4.58 4.58 0 0 1 4.19-2.26c3 0 5.21 2.54 5.18 6.27 0 4.39-2.77 6.58-5.51 6.58a4.37 4.37 0 0 1-4.11-2.31h-.08l-.1 2zm2.31-4.93a4.17 4.17 0 0 0 .1.81 3.46 3.46 0 0 0 3.36 2.62c2.33 0 3.73-1.91 3.73-4.72 0-2.47-1.27-4.57-3.66-4.57a3.56 3.56 0 0 0-3.4 2.74 4.41 4.41 0 0 0-.13.91zM958 273c0 4.55-3.15 6.53-6.12 6.53-3.33 0-5.89-2.44-5.89-6.33 0-4.11 2.69-6.52 6.09-6.52S958 269.21 958 273zm-9.75.13c0 2.69 1.55 4.72 3.73 4.72s3.73-2 3.73-4.77c0-2.09-1-4.73-3.68-4.73s-3.81 2.41-3.81 4.75zM963.48 263.4v3.53h3.2v1.7h-3.2v6.63c0 1.52.43 2.38 1.67 2.38a4.84 4.84 0 0 0 1.3-.15l.1 1.68a5.67 5.67 0 0 1-2 .3 3.09 3.09 0 0 1-2.41-.94 4.52 4.52 0 0 1-.87-3.2v-6.7h-1.9v-1.7h1.9V264zM971.68 263.47a1.39 1.39 0 0 1-2.77 0 1.36 1.36 0 0 1 1.4-1.39 1.32 1.32 0 0 1 1.37 1.39zm-2.49 15.75v-12.29h2.23v12.29zM983.89 278.76a8.3 8.3 0 0 1-3.53.71c-3.71 0-6.12-2.51-6.12-6.27a6.25 6.25 0 0 1 6.6-6.53 7.39 7.39 0 0 1 3.1.64l-.51 1.73a5.1 5.1 0 0 0-2.59-.59c-2.81 0-4.34 2.08-4.34 4.65 0 2.84 1.83 4.59 4.27 4.59a6.34 6.34 0 0 0 2.74-.61zM998.69 279.22l-.18-1.55h-.07a4.61 4.61 0 0 1-3.76 1.83 3.51 3.51 0 0 1-3.76-3.53c0-3 2.64-4.6 7.39-4.57v-.26a2.53 2.53 0 0 0-2.79-2.84 6.08 6.08 0 0 0-3.2.91l-.51-1.47a7.65 7.65 0 0 1 4-1.09c3.76 0 4.67 2.56 4.67 5v4.59a17.62 17.62 0 0 0 .2 3zm-.33-6.27c-2.44-.06-5.2.38-5.2 2.76a2 2 0 0 0 2.1 2.14 3.05 3.05 0 0 0 3-2.06 2.22 2.22 0 0 0 .13-.71zM1014.41 275.87c0 1.26 0 2.38.1 3.35h-2l-.13-2a4.62 4.62 0 0 1-4.06 2.29c-1.93 0-4.24-1.07-4.24-5.39v-7.18h2.23v6.8c0 2.34.71 3.91 2.74 3.91a3.24 3.24 0 0 0 3-2 3.17 3.17 0 0 0 .2-1.14v-7.54h2.24zM1020.8 263.4v3.53h3.2v1.7h-3.2v6.63c0 1.52.44 2.38 1.68 2.38a4.9 4.9 0 0 0 1.3-.15l.1 1.68a5.67 5.67 0 0 1-2 .3 3.12 3.12 0 0 1-2.42-.94 4.57 4.57 0 0 1-.86-3.2v-6.7h-1.9v-1.7h1.9V264zM1037.49 273c0 4.55-3.15 6.53-6.12 6.53-3.33 0-5.89-2.44-5.89-6.33 0-4.11 2.69-6.52 6.09-6.52s5.92 2.53 5.92 6.32zm-9.75.13c0 2.69 1.54 4.72 3.73 4.72s3.73-2 3.73-4.77c0-2.09-1-4.73-3.68-4.73s-3.78 2.41-3.78 4.75zM1040.3 270.25c0-1.27 0-2.31-.1-3.32h2l.1 2h.07a4.24 4.24 0 0 1 3.86-2.26 3.62 3.62 0 0 1 3.48 2.46 5.21 5.21 0 0 1 1.37-1.6 4.2 4.2 0 0 1 2.72-.86c1.63 0 4 1.06 4 5.33v7.24h-2.19v-7c0-2.36-.86-3.78-2.66-3.78a2.89 2.89 0 0 0-2.64 2 3.7 3.7 0 0 0-.18 1.12v7.59H1048v-7.37c0-2-.87-3.37-2.57-3.37a3 3 0 0 0-2.77 2.23 3.23 3.23 0 0 0-.17 1.09v7.42h-2.19zM1068.28 279.22l-.18-1.55h-.1a4.61 4.61 0 0 1-3.76 1.83 3.51 3.51 0 0 1-3.76-3.53c0-3 2.64-4.6 7.39-4.57v-.26a2.53 2.53 0 0 0-2.79-2.84 6.08 6.08 0 0 0-3.2.91l-.51-1.47a7.65 7.65 0 0 1 4-1.09c3.76 0 4.67 2.56 4.67 5v4.59a17.62 17.62 0 0 0 .2 3zM1068 273c-2.44-.06-5.2.38-5.2 2.76a2 2 0 0 0 2.1 2.14 3.05 3.05 0 0 0 3-2.06 2.22 2.22 0 0 0 .13-.71zM1076.3 263.4v3.53h3.2v1.7h-3.2v6.63c0 1.52.44 2.38 1.68 2.38a4.81 4.81 0 0 0 1.29-.15l.11 1.68a5.71 5.71 0 0 1-2 .3 3.11 3.11 0 0 1-2.42-.94 4.57 4.57 0 0 1-.86-3.2v-6.7h-1.9v-1.7h1.9V264zM1084.5 263.47a1.38 1.38 0 1 1-2.76 0 1.36 1.36 0 0 1 1.39-1.39 1.32 1.32 0 0 1 1.37 1.39zm-2.5 15.75v-12.29h2.23v12.29zM1099.08 273c0 4.55-3.15 6.53-6.12 6.53-3.33 0-5.89-2.44-5.89-6.33 0-4.11 2.69-6.52 6.09-6.52s5.92 2.53 5.92 6.32zm-9.75.13c0 2.69 1.55 4.72 3.73 4.72s3.73-2 3.73-4.77c0-2.09-1-4.73-3.68-4.73s-3.78 2.41-3.78 4.75zM1101.89 270.25c0-1.27 0-2.31-.1-3.32h2l.13 2a4.51 4.51 0 0 1 4.06-2.31c1.7 0 4.35 1 4.35 5.23v7.34h-2.24v-7.09c0-2-.74-3.63-2.84-3.63a3.17 3.17 0 0 0-3 2.29 3.26 3.26 0 0 0-.15 1v7.39h-2.24zM907.57 334.6l-4.34-17.11h2.34l2 8.66c.51 2.13 1 4.27 1.27 5.92.28-1.71.81-3.74 1.4-5.95l2.28-8.63h2.31l2.08 8.69c.49 2 .94 4.06 1.2 5.86.35-1.88.83-3.78 1.37-5.92l2.26-8.63H924l-4.85 17.11H917l-2.16-8.91a52.83 52.83 0 0 1-1.12-5.58h-.05a51.09 51.09 0 0 1-1.32 5.58l-2.44 8.91zM932.15 334.6l-.18-1.54h-.07a4.6 4.6 0 0 1-3.76 1.82 3.5 3.5 0 0 1-3.76-3.53c0-3 2.64-4.59 7.39-4.57v-.25a2.53 2.53 0 0 0-2.79-2.84 6.08 6.08 0 0 0-3.2.91l-.51-1.47a7.62 7.62 0 0 1 4-1.09c3.75 0 4.67 2.56 4.67 5v4.6a17.41 17.41 0 0 0 .2 2.94zm-.33-6.27c-2.44-.05-5.21.38-5.21 2.77a2 2 0 0 0 2.11 2.13 3 3 0 0 0 3-2.05 2.27 2.27 0 0 0 .13-.71zM937.58 326.15c0-1.45 0-2.69-.1-3.83h2l.07 2.41h.1A3.69 3.69 0 0 1 943 322a2.43 2.43 0 0 1 .63.07v2.11a3.41 3.41 0 0 0-.76-.08 3.14 3.14 0 0 0-3 2.87 6.44 6.44 0 0 0-.1 1v6.55h-2.21zM946.87 328.87c.06 3 2 4.26 4.22 4.26a8.17 8.17 0 0 0 3.4-.63l.38 1.6a10 10 0 0 1-4.09.76c-3.78 0-6-2.49-6-6.2s2.19-6.62 5.77-6.62c4 0 5.07 3.53 5.07 5.79a10.18 10.18 0 0 1-.07 1zm6.56-1.6c0-1.42-.59-3.63-3.1-3.63-2.26 0-3.25 2.08-3.43 3.63zM958.35 316.58h2.23v7.67h.06a4.05 4.05 0 0 1 1.6-1.58 4.58 4.58 0 0 1 2.28-.63c1.65 0 4.29 1 4.29 5.25v7.31h-2.23v-7.05c0-2-.74-3.66-2.85-3.66a3.21 3.21 0 0 0-3 2.23 2.68 2.68 0 0 0-.16 1.07v7.41h-2.23zM983.56 328.36c0 4.54-3.15 6.52-6.12 6.52-3.32 0-5.89-2.43-5.89-6.32 0-4.11 2.69-6.52 6.1-6.52s5.91 2.56 5.91 6.32zm-9.75.13c0 2.69 1.55 4.72 3.73 4.72s3.74-2 3.74-4.77c0-2.09-1-4.73-3.68-4.73s-3.79 2.44-3.79 4.78zM996.66 331.25c0 1.27 0 2.39.1 3.35h-2l-.12-2a4.63 4.63 0 0 1-4.07 2.28c-1.93 0-4.24-1.06-4.24-5.38v-7.18h2.24v6.8c0 2.34.71 3.91 2.74 3.91a3.24 3.24 0 0 0 3-2 3.45 3.45 0 0 0 .2-1.14v-7.54h2.23zM1000.06 332.32a5.88 5.88 0 0 0 3 .89c1.62 0 2.39-.81 2.39-1.83s-.64-1.65-2.29-2.26c-2.21-.79-3.25-2-3.25-3.48 0-2 1.6-3.6 4.24-3.6a6.05 6.05 0 0 1 3 .76l-.56 1.62a4.81 4.81 0 0 0-2.51-.71c-1.32 0-2.06.76-2.06 1.68s.74 1.47 2.34 2.08c2.13.81 3.22 1.88 3.22 3.71 0 2.16-1.67 3.68-4.59 3.68a7 7 0 0 1-3.45-.84zM1011.67 328.87c.05 3 2 4.26 4.21 4.26a8.14 8.14 0 0 0 3.4-.63l.38 1.6a10 10 0 0 1-4.08.76c-3.79 0-6.05-2.49-6.05-6.2s2.19-6.62 5.77-6.62c4 0 5.08 3.53 5.08 5.79a9.62 9.62 0 0 1-.08 1zm6.55-1.6c0-1.42-.59-3.63-3.1-3.63-2.26 0-3.25 2.08-3.43 3.63zM1026.65 335.62l7.08-18.41h1.73l-7.11 18.41zM1053.23 316.58v14.85c0 1.09 0 2.34.1 3.17h-2l-.1-2.13a4.54 4.54 0 0 1-4.19 2.41c-3 0-5.25-2.51-5.25-6.24 0-4.09 2.51-6.6 5.51-6.6a4.11 4.11 0 0 1 3.7 1.88v-7.34zm-2.23 10.74a3.76 3.76 0 0 0-.1-.94 3.29 3.29 0 0 0-3.22-2.59c-2.31 0-3.68 2-3.68 4.75 0 2.48 1.21 4.54 3.63 4.54a3.35 3.35 0 0 0 3.27-2.66 3.75 3.75 0 0 0 .1-1zM1059.42 318.86a1.31 1.31 0 0 1-1.42 1.37 1.33 1.33 0 0 1-1.35-1.37 1.36 1.36 0 0 1 1.4-1.39 1.32 1.32 0 0 1 1.37 1.39zm-2.49 15.74v-12.28h2.24v12.28zM1062.57 332.32a5.87 5.87 0 0 0 2.94.89c1.63 0 2.39-.81 2.39-1.83s-.63-1.65-2.28-2.26c-2.21-.79-3.25-2-3.25-3.48 0-2 1.6-3.6 4.24-3.6a6.11 6.11 0 0 1 3 .76l-.56 1.62a4.81 4.81 0 0 0-2.51-.71c-1.32 0-2.06.76-2.06 1.68s.74 1.47 2.33 2.08c2.14.81 3.23 1.88 3.23 3.71 0 2.16-1.68 3.68-4.6 3.68a7 7 0 0 1-3.44-.86zM1075.62 318.79v3.53h3.2V324h-3.2v6.62c0 1.53.43 2.39 1.67 2.39a5.29 5.29 0 0 0 1.3-.15l.1 1.67a5.41 5.41 0 0 1-2 .31 3.09 3.09 0 0 1-2.41-.94 4.53 4.53 0 0 1-.86-3.2V324h-1.91v-1.7h1.91v-2.95zM1081.33 326.15c0-1.45 0-2.69-.1-3.83h2l.08 2.41h.1a3.69 3.69 0 0 1 3.4-2.69 2.46 2.46 0 0 1 .64.07v2.11a3.41 3.41 0 0 0-.76-.08 3.14 3.14 0 0 0-3 2.87 6.44 6.44 0 0 0-.1 1v6.55h-2.21zM1092.22 318.86a1.31 1.31 0 0 1-1.42 1.37 1.33 1.33 0 0 1-1.35-1.37 1.36 1.36 0 0 1 1.4-1.39 1.32 1.32 0 0 1 1.37 1.39zm-2.49 15.74v-12.28h2.27v12.28zM1095.57 334.6c0-.83.1-2.08.1-3.17v-14.85h2.21v7.72a4.58 4.58 0 0 1 4.19-2.26c3.05 0 5.21 2.54 5.18 6.27 0 4.39-2.77 6.57-5.51 6.57a4.37 4.37 0 0 1-4.11-2.31h-.08l-.1 2zm2.31-4.92a4.17 4.17 0 0 0 .1.81 3.46 3.46 0 0 0 3.36 2.62c2.33 0 3.73-1.91 3.73-4.73 0-2.46-1.27-4.57-3.66-4.57a3.56 3.56 0 0 0-3.4 2.75 4.31 4.31 0 0 0-.13.91zM1120.4 331.25c0 1.27 0 2.39.1 3.35h-2l-.12-2h-.05a4.63 4.63 0 0 1-4.07 2.28c-1.93 0-4.24-1.06-4.24-5.38v-7.18h2.24v6.8c0 2.34.71 3.91 2.74 3.91a3.16 3.16 0 0 0 3.15-3.17v-7.54h2.23zM1126.8 318.79v3.53h3.2V324h-3.2v6.62c0 1.53.43 2.39 1.68 2.39a5.27 5.27 0 0 0 1.29-.15l.1 1.67a5.41 5.41 0 0 1-2 .31 3.09 3.09 0 0 1-2.41-.94 4.53 4.53 0 0 1-.86-3.2V324h-1.91v-1.7h1.91v-2.95zM1135 318.86a1.31 1.31 0 0 1-1.42 1.37 1.33 1.33 0 0 1-1.35-1.37 1.36 1.36 0 0 1 1.4-1.39 1.32 1.32 0 0 1 1.37 1.39zm-2.49 15.74v-12.28h2.24v12.28zM1149.57 328.36c0 4.54-3.15 6.52-6.12 6.52-3.32 0-5.89-2.43-5.89-6.32 0-4.11 2.69-6.52 6.1-6.52s5.91 2.56 5.91 6.32zm-9.75.13c0 2.69 1.55 4.72 3.74 4.72s3.73-2 3.73-4.77c0-2.09-1-4.73-3.68-4.73s-3.79 2.44-3.79 4.78zM1152.39 325.64c0-1.27 0-2.31-.1-3.32h2l.13 2a4.51 4.51 0 0 1 4.06-2.31c1.7 0 4.34 1 4.34 5.23v7.33h-2.23v-7.08c0-2-.74-3.63-2.85-3.63a3.17 3.17 0 0 0-3 2.29 3.2 3.2 0 0 0-.16 1v7.38h-2.23zM913.46 359.54a8.3 8.3 0 0 1-3.53.71c-3.7 0-6.11-2.52-6.11-6.27a6.24 6.24 0 0 1 6.6-6.53 7.3 7.3 0 0 1 3.09.64l-.5 1.72a5.26 5.26 0 0 0-2.59-.58c-2.82 0-4.35 2.08-4.35 4.64 0 2.85 1.83 4.6 4.27 4.6a6.31 6.31 0 0 0 2.74-.61zM917.17 354.26c.05 3 2 4.26 4.21 4.26a8.22 8.22 0 0 0 3.41-.63l.38 1.6a10.1 10.1 0 0 1-4.09.76c-3.78 0-6-2.49-6-6.2s2.18-6.62 5.76-6.62c4 0 5.08 3.52 5.08 5.78a7.61 7.61 0 0 1-.08 1.05zm6.55-1.6c0-1.43-.58-3.64-3.1-3.64-2.26 0-3.25 2.09-3.42 3.64zM928.65 351c0-1.27 0-2.31-.11-3.33h2l.13 2h.05a4.51 4.51 0 0 1 4.06-2.31c1.71 0 4.35 1 4.35 5.23V360h-2.24v-7.08c0-2-.73-3.63-2.84-3.63a3.18 3.18 0 0 0-3 2.28 3.26 3.26 0 0 0-.15 1V360h-2.23zM945.33 344.18v3.52h3.2v1.71h-3.2V356c0 1.53.43 2.39 1.67 2.39a5.29 5.29 0 0 0 1.3-.15l.1 1.67a5.41 5.41 0 0 1-2 .31 3.09 3.09 0 0 1-2.41-.94 4.52 4.52 0 0 1-.87-3.2v-6.7h-1.9v-1.68h1.9v-2.94zM952.13 354.26c0 3 2 4.26 4.21 4.26a8.22 8.22 0 0 0 3.41-.63l.38 1.6a10.1 10.1 0 0 1-4.09.76c-3.78 0-6-2.49-6-6.2s2.18-6.62 5.76-6.62c4 0 5.08 3.52 5.08 5.78a7.61 7.61 0 0 1-.08 1.05zm6.55-1.6c0-1.43-.58-3.64-3.1-3.64-2.26 0-3.25 2.09-3.42 3.64zM963.61 351.54c0-1.45 0-2.69-.11-3.84h2l.07 2.42h.11a3.68 3.68 0 0 1 3.4-2.69 2.43 2.43 0 0 1 .63.07v2.11a3.28 3.28 0 0 0-.76-.08 3.13 3.13 0 0 0-3 2.87 6.38 6.38 0 0 0-.11 1v6.6h-2.2zM977.29 351c0-1.27 0-2.31-.1-3.33h1.95l.1 2h.08a4.24 4.24 0 0 1 3.86-2.26 3.63 3.63 0 0 1 3.48 2.46h.05a5 5 0 0 1 1.37-1.6 4.2 4.2 0 0 1 2.72-.86c1.62 0 4 1.06 4 5.33V360h-2.18v-7c0-2.36-.86-3.79-2.67-3.79a2.89 2.89 0 0 0-2.64 2 3.82 3.82 0 0 0-.17 1.12V360H985v-7.36c0-1.95-.86-3.38-2.56-3.38a3.06 3.06 0 0 0-2.77 2.24 3 3 0 0 0-.18 1.09V360h-2.18zM1005.27 360l-.18-1.55h-.09a4.54 4.54 0 0 1-3.75 1.83 3.5 3.5 0 0 1-3.76-3.53c0-3 2.64-4.59 7.39-4.57v-.25a2.53 2.53 0 0 0-2.8-2.84 6.13 6.13 0 0 0-3.2.91l-.5-1.47a7.58 7.58 0 0 1 4-1.09c3.76 0 4.68 2.56 4.68 5v4.6a17.49 17.49 0 0 0 .2 2.94zm-.33-6.27c-2.44-.05-5.21.38-5.21 2.77a2 2 0 0 0 2.11 2.13 3.06 3.06 0 0 0 3-2.05 2.28 2.28 0 0 0 .13-.72zM1010.7 351c0-1.27 0-2.31-.1-3.33h2l.13 2a4.51 4.51 0 0 1 4.06-2.31c1.7 0 4.34 1 4.34 5.23V360h-2.23v-7.08c0-2-.74-3.63-2.85-3.63a3.17 3.17 0 0 0-3 2.28 3.25 3.25 0 0 0-.16 1V360h-2.23zM1031.6 360l-.18-1.55h-.08a4.55 4.55 0 0 1-3.76 1.83 3.5 3.5 0 0 1-3.75-3.53c0-3 2.64-4.59 7.38-4.57v-.25a2.52 2.52 0 0 0-2.79-2.84 6.13 6.13 0 0 0-3.2.91l-.51-1.47a7.65 7.65 0 0 1 4-1.09c3.76 0 4.67 2.56 4.67 5v4.6a16.44 16.44 0 0 0 .21 2.94zm-.33-6.27c-2.44-.05-5.21.38-5.21 2.77a2 2 0 0 0 2.11 2.13 3.06 3.06 0 0 0 3-2.05 2.6 2.6 0 0 0 .13-.72zM1047.62 347.7c0 .89-.11 1.88-.11 3.38v7.14c0 2.81-.55 4.54-1.75 5.61a6.54 6.54 0 0 1-4.47 1.47 7.91 7.91 0 0 1-4.08-1l.55-1.7a7 7 0 0 0 3.61 1c2.29 0 4-1.2 4-4.29v-1.37a4.4 4.4 0 0 1-3.91 2.05c-3 0-5.23-2.59-5.23-6 0-4.16 2.72-6.52 5.53-6.52a4.08 4.08 0 0 1 3.84 2.13l.1-1.86zm-2.31 4.85a3.17 3.17 0 0 0-.13-1 3.22 3.22 0 0 0-3.12-2.36c-2.14 0-3.66 1.8-3.66 4.64 0 2.42 1.22 4.42 3.63 4.42a3.27 3.27 0 0 0 3.1-2.28 4.16 4.16 0 0 0 .18-1.2zM1052.46 354.26c.06 3 2 4.26 4.22 4.26a8.17 8.17 0 0 0 3.4-.63l.38 1.6a10 10 0 0 1-4.09.76c-3.78 0-6-2.49-6-6.2s2.19-6.62 5.77-6.62c4 0 5.07 3.52 5.07 5.78a10.2 10.2 0 0 1-.07 1.05zm6.56-1.6c0-1.43-.59-3.64-3.1-3.64-2.26 0-3.25 2.09-3.43 3.64zM1063.94 351c0-1.27 0-2.31-.1-3.33h2l.11 2h.07a4.24 4.24 0 0 1 3.86-2.26 3.62 3.62 0 0 1 3.48 2.46 5 5 0 0 1 1.37-1.6 4.2 4.2 0 0 1 2.72-.86c1.62 0 4 1.06 4 5.33V360h-2.19v-7c0-2.36-.86-3.79-2.66-3.79a2.91 2.91 0 0 0-2.65 2 3.82 3.82 0 0 0-.17 1.12V360h-2.19v-7.36c0-1.95-.86-3.38-2.56-3.38a3.06 3.06 0 0 0-2.77 2.24 3 3 0 0 0-.18 1.09V360h-2.18zM1086.36 354.26c.05 3 2 4.26 4.21 4.26a8.22 8.22 0 0 0 3.41-.63l.38 1.6a10.1 10.1 0 0 1-4.09.76c-3.78 0-6-2.49-6-6.2s2.18-6.62 5.76-6.62c4 0 5.08 3.52 5.08 5.78a7.61 7.61 0 0 1-.08 1.05zm6.55-1.6c0-1.43-.59-3.64-3.1-3.64-2.26 0-3.25 2.09-3.43 3.64zM1097.83 351c0-1.27 0-2.31-.1-3.33h2l.13 2h.05a4.51 4.51 0 0 1 4.06-2.31c1.7 0 4.34 1 4.34 5.23V360h-2.23v-7.08c0-2-.74-3.63-2.84-3.63a3.17 3.17 0 0 0-3 2.28 3.26 3.26 0 0 0-.15 1V360h-2.24zM1114.51 344.18v3.52h3.2v1.71h-3.2V356c0 1.53.44 2.39 1.68 2.39a5.36 5.36 0 0 0 1.3-.15l.1 1.67a5.41 5.41 0 0 1-2 .31 3.12 3.12 0 0 1-2.42-.94 4.57 4.57 0 0 1-.86-3.2v-6.7h-1.9v-1.68h1.9v-2.94z"/><circle class="cls-6" cx="869.48" cy="217" r="4.5"/><circle class="cls-6" cx="869.85" cy="272" r="4.5"/><circle class="cls-6" cx="870.22" cy="327" r="4.5"/><path class="cls-5" d="M89.35 47.73a1.69 1.69 0 0 1 .85 1.75v30.68h3.13c1.36 0 1.66.3 1.66 1.63v42.9c0 1.36-.32 1.66-1.72 1.66H78.09v4.37l-9.69-5.59 9.66-5.58v4.3h14.43V82.56a17.27 17.27 0 0 0-2.5 0c-.3 0-.67.46-.8.79-1 2.71-1.93 5.44-2.89 8.17-.24.67-.46 1.33-1.39 1.31s-1.06-.67-1.29-1.3c-1-2.72-1.94-5.44-2.87-8.17a1.07 1.07 0 0 0-1.21-.86h-8.38a1.52 1.52 0 0 0-1.45.78 19.61 19.61 0 0 1-9.07 7.52 1.33 1.33 0 0 0-.94 1.48v31.82a8.35 8.35 0 0 1 0 1c-.08.65-.49 1.14-1.12 1a2.4 2.4 0 0 1-1.18-1c-.18-.25-.07-.71-.07-1.08V92c-8.15 1.4-15.07-.67-20.28-7s-5.81-13.54-3-20.92l-2-3.13V58.7a5 5 0 0 1 8.13-2.59c7.31-5.5 16.3-5.52 22.63-1.56 9.69 6.06 12.1 14.85 8.83 25.52h8v-30.3c0-.83 0-1.61.9-2zm-18.7 23c-.27-5.79-3.43-11.28-9.86-14.52s-12.58-2.6-18.48 1.39a1.3 1.3 0 0 0-.66 1.45 4.66 4.66 0 0 1-4.46 5.45 1 1 0 0 0-1 .78 17.68 17.68 0 0 0-1.06 10.16A18 18 0 0 0 54.45 90c9.16-.85 16.21-8.63 16.2-19.3zM82.16 50.2V80h5.58V50.2zm-42.84 9.5a2.37 2.37 0 0 0-2.49-2.39 2.43 2.43 0 1 0 2.49 2.39zm45.52 28.08h.24c.62-1.75 1.23-3.5 1.87-5.32H83z"/><path class="cls-5" d="M76.17 94.13h9.07a6.58 6.58 0 0 1 .89 0 1.18 1.18 0 0 1 0 2.35 5.46 5.46 0 0 1-.7 0h-18.9c-.82 0-1.39-.31-1.4-1.18s.55-1.22 1.38-1.22h9.66zM76.17 101.18h9.63c.81 0 1.36.36 1.34 1.25s-.55 1.17-1.32 1.17H66.39a1.16 1.16 0 0 1-1.3-1.2c0-.86.56-1.22 1.38-1.22zM76.18 110.62h-9.47c-1.1 0-1.6-.38-1.59-1.18s.58-1.21 1.61-1.21h18.93c1.08 0 1.63.51 1.51 1.38s-.68 1-1.43 1zM53.77 71.94h7a1.07 1.07 0 0 1 1.1 1.17 1.06 1.06 0 0 1-1.1 1.16h-8.18a1.07 1.07 0 0 1-1.15-1.21V60.9a1.07 1.07 0 0 1 1.16-1.2c.8 0 1.18.52 1.18 1.3v9.57zM473 122.07a5.67 5.67 0 0 1-3.2-2.11c-.32-.5-.57-1-.9-1.65h-9.68v-16.4h-4.48l5.71-9.91 5.72 9.9h-4.42v3.71H496V79.94h-12.76a.91.91 0 0 0-1 .62A16.91 16.91 0 0 1 450.41 77c-.14-.63-.27-1.26-.41-1.89V71.5a2.6 2.6 0 0 0 .16-.44 16.87 16.87 0 0 1 12.27-14c.88-.25 1.78-.42 2.68-.63h3.61c.74.16 1.48.31 2.21.49a16.93 16.93 0 0 1 12.62 19.68c-.05.26-.08.52-.13.87h15.14v7.83h12.57a1.24 1.24 0 0 1 1.19.63c2.93 4.28 5.89 8.55 8.82 12.84a1.64 1.64 0 0 1 .32.89v18.3a2.22 2.22 0 0 1-.06.36h-9.45a5.41 5.41 0 0 1-4 3.8h-1.64l-.76-.27a4.72 4.72 0 0 1-3.08-2.86.89.89 0 0 0-1-.66h-22.16c-.24 0-.64.1-.69.25a5.43 5.43 0 0 1-4 3.52zm-4-6.28l.15-.4a5 5 0 0 1 4.71-3.34 4.92 4.92 0 0 1 4.66 3.26c.21.55.52.52.94.52h22.74c.85-2.34 2.43-3.72 4.9-3.71a4.91 4.91 0 0 1 4.85 3.7h7a3 3 0 0 0 0-.36v-15a1.64 1.64 0 0 0-.32-.89c-2.56-3.74-5.14-7.47-7.7-11.22a1.12 1.12 0 0 0-1.07-.55h-11.3v20.51h-36.83v7.48zm12.42-42.5a14.45 14.45 0 1 0-14 14.5 14.46 14.46 0 0 0 13.97-14.5zm28.21 43.78a2.54 2.54 0 0 0-2.48-2.54 2.53 2.53 0 1 0 2.48 2.54zm-38.28 0a2.54 2.54 0 0 0 2.52 2.5 2.53 2.53 0 1 0 0-5 2.54 2.54 0 0 0-2.55 2.51z"/><path class="cls-5" d="M468.15 72.11h6.15v2.39h-8.54V61.84h2.39zM925.85 75.07v.16h-4.42v47H868V56.28h52.21v2.44h-49.66v18.59H919v-2.1h-4.4l5.63-9.75.88 1.54zm-55.3 23.49h48.38V79.94h-48.38zm0 2.57v18.57h48.38v-18.57z"/><path class="cls-5" d="M904.36 63.18a4.78 4.78 0 0 1 4.84 4.93 4.86 4.86 0 1 1-9.72-.11 4.79 4.79 0 0 1 4.88-4.82zm0 2.42a2.39 2.39 0 0 0-2.41 2.47 2.42 2.42 0 0 0 2.4 2.41 2.47 2.47 0 0 0 2.44-2.48 2.44 2.44 0 0 0-2.46-2.4zM877.43 73.39h-2.32V62.74h2.32zM882.86 73.39h-2.31V62.74h2.31zM885.94 62.72h2.3v10.64h-2.3zM891.38 62.72h2.29v10.66h-2.29zM909.2 89.26a4.86 4.86 0 1 1-9.72-.1 4.86 4.86 0 1 1 9.72.1zm-7.28 0a2.43 2.43 0 0 0 2.46 2.44 2.46 2.46 0 0 0 0-4.92 2.45 2.45 0 0 0-2.46 2.47zM877.4 94.88h-2.3V84.22h2.3zM882.85 94.89h-2.29V84.2h2.29zM886 84.2h2.28v10.68H886zM891.39 84.2h2.27v10.67h-2.27zM909.2 110.48a4.86 4.86 0 1 1-4.88-4.92 4.83 4.83 0 0 1 4.88 4.92zm-7.28 0a2.41 2.41 0 0 0 2.47 2.42 2.44 2.44 0 0 0 0-4.88 2.39 2.39 0 0 0-2.47 2.44zM877.42 115.77h-2.3v-10.65h2.3zM882.87 115.76h-2.32v-10.64h2.32zM888.24 115.77h-2.3v-10.65h2.3zM893.65 115.77h-2.28V105.1h2.28z"/></svg>