<svg xmlns="http://www.w3.org/2000/svg" width="350" height="350"><defs><style>.cls-2{fill:#d8e7da}.cls-3{fill:#a8d7cd}.cls-4{fill:#00b28f}.cls-5{fill:#fff}.cls-6{clip-path:url(#clip-path)}</style><clipPath id="clip-path"><path fill="none" d="M87.73 49.12l21.44 23.23 21.58-23.23H87.73z"/></clipPath></defs><g id="Layer_3" data-name="Layer 3"><path class="cls-2" d="M342.91 175a167.63 167.63 0 0 1-66.22 133.63c-2 1.5-4 2.95-6 4.36a168 168 0 0 1-191.38 0c-2-1.41-4-2.87-6-4.37a168.22 168.22 0 0 1-59.17-182c.72-2.37 1.48-4.72 2.3-7A168 168 0 0 1 171.3 7.12h7.41a168 168 0 0 1 154.84 112.45q1.21 3.48 2.29 7a168 168 0 0 1 7.07 48.43z"/><path class="cls-3" d="M171.3 0v7.1A168 168 0 0 0 16.45 119.58l-6.74-2.19A175.08 175.08 0 0 1 171.3 0z"/><path class="cls-4" d="M171.3 7.12v117.34a50.48 50.48 0 0 0-43.21 31.38L16.45 119.58A168 168 0 0 1 171.3 7.12z"/><path class="cls-3" d="M340.29 117.37l-6.74 2.2A168 168 0 0 0 178.71 7.12V0a173.47 173.47 0 0 1 100.14 34.1 175.45 175.45 0 0 1 61.44 83.25z"/><path class="cls-4" d="M333.55 119.57l-111.63 36.27a50.51 50.51 0 0 0-43.21-31.38V7.12a168 168 0 0 1 154.84 112.45z"/><path class="cls-3" d="M73.32 308.63l-4.15 5.72A175.18 175.18 0 0 1 7.42 124.44l6.73 2.19a168.22 168.22 0 0 0 59.17 182z"/><path class="cls-4" d="M142.31 213.67l-69 95a168.22 168.22 0 0 1-59.17-182l111.66 36.22a50.75 50.75 0 0 0 16.51 50.78z"/><path class="cls-3" d="M274.85 318.71a175 175 0 0 1-199.69 0l4.16-5.71a168 168 0 0 0 191.38 0z"/><path class="cls-4" d="M270.7 313a168 168 0 0 1-191.38 0l69-95a50.68 50.68 0 0 0 53.39 0z"/><path class="cls-3" d="M350 175a174.69 174.69 0 0 1-69.16 139.36l-4.15-5.71a168.2 168.2 0 0 0 59.15-182l6.74-2.18A175.11 175.11 0 0 1 350 175z"/><path class="cls-4" d="M342.91 175a167.63 167.63 0 0 1-66.22 133.63l-69-95a50.67 50.67 0 0 0 16.51-50.78l111.64-36.27a168 168 0 0 1 7.07 48.42z"/><path class="cls-2" d="M238.16 175a63.06 63.06 0 0 1-24.91 50.26c-.74.56-1.49 1.11-2.26 1.64a63.15 63.15 0 0 1-72 0c-.76-.53-1.52-1.07-2.25-1.64a63.23 63.23 0 0 1-22.26-68.45c.27-.89.56-1.78.87-2.66a63.17 63.17 0 0 1 58.24-42.29h2.79a63.17 63.17 0 0 1 58.23 42.29c.31.88.6 1.76.86 2.65a62.89 62.89 0 0 1 2.69 18.2z"/></g><g id="Layer_4" data-name="Layer 4"><path class="cls-5" d="M210.51 93.43h-2.19v-1.17h5.79v1.17h-2.2v6.49h-1.4zM214.39 96.17v-1.78h1.22v1h.05a1.65 1.65 0 0 1 1.51-1.18 1.11 1.11 0 0 1 .33 0v1.32a1.53 1.53 0 0 0-.41-.05 1.23 1.23 0 0 0-1.25 1.06 2.63 2.63 0 0 0 0 .43v2.86h-1.4zM223.6 97.1a2.74 2.74 0 0 1-2.84 3 2.68 2.68 0 0 1-2.76-2.9 2.74 2.74 0 0 1 2.87-2.94 2.66 2.66 0 0 1 2.73 2.84zm-4.17.06c0 1.07.52 1.88 1.37 1.88s1.35-.79 1.35-1.9c0-.87-.38-1.85-1.34-1.85s-1.38.95-1.38 1.87zM229.71 98.26v1.66h-1.23l-.06-.84a2 2 0 0 1-1.77 1c-1 0-1.93-.6-1.93-2.41v-3.28h1.4v3c0 .92.29 1.51 1 1.51a1.18 1.18 0 0 0 1.07-.75 1.37 1.37 0 0 0 .08-.43v-3.33h1.4zM231.18 99.92v-8.07h1.4v3.3a2 2 0 0 1 1.78-.89c1.35 0 2.32 1.13 2.3 2.81 0 2-1.26 3-2.51 3a1.9 1.9 0 0 1-1.75-1l-.07.83zm1.44-2.28a1.76 1.76 0 0 0 0 .33 1.29 1.29 0 0 0 1.24 1c.88 0 1.41-.71 1.41-1.82s-.46-1.78-1.4-1.78a1.3 1.3 0 0 0-1.23 1 1.25 1.25 0 0 0 0 .36zM237.88 91.85h1.41v8.07h-1.41zM241.79 97.55a1.5 1.5 0 0 0 1.7 1.43 4.16 4.16 0 0 0 1.54-.25l.2 1a5.22 5.22 0 0 1-1.93.34 2.61 2.61 0 0 1-2.85-2.8 2.74 2.74 0 0 1 2.7-3 2.41 2.41 0 0 1 2.39 2.7 2.79 2.79 0 0 1 0 .59zm2.43-1a1.19 1.19 0 0 0-1.15-1.35 1.37 1.37 0 0 0-1.28 1.35zM246.6 98.64a3.16 3.16 0 0 0 1.4.36c.62 0 .89-.25.89-.62s-.23-.57-.91-.8c-1.08-.38-1.54-1-1.52-1.62a1.85 1.85 0 0 1 2.09-1.74 3.21 3.21 0 0 1 1.46.33l-.27 1a2.44 2.44 0 0 0-1.17-.32c-.5 0-.77.24-.77.58s.26.53 1 .78c1 .36 1.47.87 1.48 1.69 0 1-.78 1.73-2.25 1.73a3.53 3.53 0 0 1-1.68-.39zM251.41 91.85h1.41v3.3a2 2 0 0 1 .7-.64 1.87 1.87 0 0 1 1-.25c.95 0 1.94.63 1.94 2.4v3.26H255v-3.1c0-.81-.3-1.41-1.07-1.41a1.13 1.13 0 0 0-1.08.79 1.07 1.07 0 0 0-.06.42v3.3h-1.41zM263.18 97.1a2.74 2.74 0 0 1-2.84 3 2.67 2.67 0 0 1-2.77-2.85 2.74 2.74 0 0 1 2.86-2.94 2.65 2.65 0 0 1 2.75 2.79zm-4.17.06c0 1.07.52 1.88 1.38 1.88s1.35-.79 1.35-1.9c0-.87-.39-1.85-1.34-1.85s-1.4.95-1.4 1.87zM269.6 97.1a2.74 2.74 0 0 1-2.84 3 2.68 2.68 0 0 1-2.76-2.9 2.74 2.74 0 0 1 2.87-2.94 2.66 2.66 0 0 1 2.73 2.84zm-4.17.06c0 1.07.52 1.88 1.37 1.88s1.35-.79 1.35-1.9c0-.87-.38-1.85-1.34-1.85s-1.38.95-1.38 1.87zM272.35 92.81v1.58h1.33v1h-1.33v2.45c0 .67.19 1 .72 1a1.76 1.76 0 0 0 .54-.07v1.07a3.07 3.07 0 0 1-1 .14 1.6 1.6 0 0 1-1.21-.46A2.23 2.23 0 0 1 271 98v-2.57h-.8v-1h.8v-1.29zM276.23 92.84a.79.79 0 0 1-1.57 0 .79.79 0 0 1 1.57 0zm-1.49 7.08v-5.53h1.41v5.53zM277.65 96v-1.65h1.23l.06.83a2 2 0 0 1 1.76-1c1 0 2 .63 2 2.38v3.28h-1.4V96.8c0-.8-.3-1.4-1.06-1.4a1.17 1.17 0 0 0-1.09.82 1.53 1.53 0 0 0-.06.45v3.25h-1.41zM289.22 94.39c0 .37-.05.83-.05 1.59v3.14a2.66 2.66 0 0 1-2.95 3.18 3.93 3.93 0 0 1-1.93-.44l.3-1.06a3.45 3.45 0 0 0 1.62.42 1.47 1.47 0 0 0 1.59-1.67v-.48a1.88 1.88 0 0 1-1.62.82 2.46 2.46 0 0 1-2.35-2.71 2.65 2.65 0 0 1 2.51-2.92 1.73 1.73 0 0 1 1.6.87l.05-.74zm-1.44 2.21a1.5 1.5 0 0 0 0-.37 1.17 1.17 0 0 0-1.14-.9c-.78 0-1.36.68-1.36 1.81 0 .94.48 1.7 1.35 1.7a1.2 1.2 0 0 0 1.14-.84 2.73 2.73 0 0 0 .06-.5zM216.63 111.59l-.09-.61a2.06 2.06 0 0 1-1.64.74 1.65 1.65 0 0 1-1.74-1.65c0-1.4 1.24-2.11 3.29-2.09v-.1c0-.36-.15-1-1.13-1a3 3 0 0 0-1.49.41l-.27-.91a4 4 0 0 1 2-.49 2.07 2.07 0 0 1 2.28 2.33v2a9.88 9.88 0 0 0 .08 1.33zm-.18-2.71c-1 0-1.93.2-1.93 1a.73.73 0 0 0 .79.79 1.12 1.12 0 0 0 1.09-.76.82.82 0 0 0 0-.3zM219.3 107.7c0-.63 0-1.17-.05-1.65h1.23l.07.83a2 2 0 0 1 1.76-.95c1 0 2 .62 2 2.38v3.28h-1.4v-3.13c0-.79-.29-1.39-1.06-1.39a1.17 1.17 0 0 0-1.09.81 1.66 1.66 0 0 0 0 .46v3.25h-1.46zM230.91 103.52V111.56h-1.21l-.06-.88a2 2 0 0 1-1.81 1c-1.31 0-2.36-1.13-2.36-2.84s1.15-2.95 2.48-2.95a1.78 1.78 0 0 1 1.56.73v-3.14zm-1.4 4.84a1.47 1.47 0 0 0 0-.36 1.21 1.21 0 0 0-1.2-1c-.9 0-1.4.79-1.4 1.83s.5 1.75 1.39 1.75a1.22 1.22 0 0 0 1.2-1 1.32 1.32 0 0 0 0-.41zM234.92 111.59v-4.49h-.75v-1h.75v-.23a2.58 2.58 0 0 1 .68-1.89 2.08 2.08 0 0 1 1.44-.54 2.74 2.74 0 0 1 .9.14l-.11 1.08a1.53 1.53 0 0 0-.59-.1c-.69 0-.93.58-.93 1.26v.28h1.22v1h-1.21v4.49zM241.51 111.59l-.09-.61a2.06 2.06 0 0 1-1.63.74 1.64 1.64 0 0 1-1.74-1.65c0-1.4 1.24-2.11 3.28-2.09v-.1c0-.36-.15-1-1.12-1a2.9 2.9 0 0 0-1.49.41l-.27-.91a3.94 3.94 0 0 1 2-.49 2.07 2.07 0 0 1 2.28 2.33v2a8.46 8.46 0 0 0 .08 1.33zm-.18-2.71c-1 0-1.94.2-1.94 1a.74.74 0 0 0 .8.79 1.12 1.12 0 0 0 1.09-.76.82.82 0 0 0 .05-.3zM245.66 104.51a.79.79 0 0 1-1.57 0 .79.79 0 0 1 1.57 0zm-1.49 7.08v-5.54h1.41v5.54zM247.08 103.52h1.41v8.07h-1.41zM255 109.93v1.66h-1.23l-.07-.84a2 2 0 0 1-1.77 1c-1 0-1.94-.61-1.94-2.41v-3.26h1.4v3c0 .92.3 1.51 1 1.51a1.19 1.19 0 0 0 1.07-.75 1.43 1.43 0 0 0 .08-.43v-3.35H255zM256.48 107.84c0-.75 0-1.29-.05-1.79h1.22l.05 1.06a1.65 1.65 0 0 1 1.51-1.18 1.61 1.61 0 0 1 .33 0v1.32a2.18 2.18 0 0 0-.41 0 1.23 1.23 0 0 0-1.25 1.05 2.87 2.87 0 0 0 0 .44v2.86h-1.4zM261.42 109.21a1.5 1.5 0 0 0 1.7 1.44 4.16 4.16 0 0 0 1.54-.25l.2 1a5.1 5.1 0 0 1-1.93.34 2.62 2.62 0 0 1-2.86-2.79 2.75 2.75 0 0 1 2.71-3 2.41 2.41 0 0 1 2.39 2.69 3.57 3.57 0 0 1-.05.59zm2.43-1a1.2 1.2 0 0 0-1.15-1.36 1.37 1.37 0 0 0-1.28 1.36zM268.65 107.84v-1.79h1.21l.05 1.06a1.66 1.66 0 0 1 1.51-1.18 1.61 1.61 0 0 1 .33 0v1.32a2.09 2.09 0 0 0-.41 0 1.23 1.23 0 0 0-1.25 1.05 2.87 2.87 0 0 0 0 .44v2.86h-1.4zM274.19 104.51a.74.74 0 0 1-.8.75.74.74 0 0 1-.77-.75.79.79 0 0 1 1.57 0zm-1.49 7.08v-5.54h1.41v5.54zM275.54 110.31a3.16 3.16 0 0 0 1.42.39c.62 0 .89-.25.89-.61s-.23-.57-.91-.81c-1.08-.37-1.53-1-1.52-1.61a1.85 1.85 0 0 1 2.09-1.74 3.26 3.26 0 0 1 1.47.33l-.28 1a2.44 2.44 0 0 0-1.17-.32c-.5 0-.77.24-.77.58s.26.52 1 .77c1 .37 1.46.88 1.47 1.7 0 1-.78 1.72-2.25 1.72a3.66 3.66 0 0 1-1.68-.38zM281.75 108.49a6.16 6.16 0 0 1 .44-.65l1.34-1.79h1.68l-2 2.27 2.34 3.27h-1.72l-1.59-2.44-.48.55v1.89h-1.39v-8.07h1.39zM223.48 123.26l-.09-.62a2.06 2.06 0 0 1-1.64.74 1.64 1.64 0 0 1-1.74-1.65c0-1.39 1.24-2.1 3.28-2.09v-.09c0-.36-.14-1-1.12-1a3 3 0 0 0-1.49.41l-.27-.91a4 4 0 0 1 2-.48 2.07 2.07 0 0 1 2.28 2.33v2a8.46 8.46 0 0 0 .08 1.33zm-.18-2.71c-1 0-1.93.2-1.93 1a.73.73 0 0 0 .79.79 1.12 1.12 0 0 0 1.09-.76.87.87 0 0 0 .05-.31zM226.08 122a3 3 0 0 0 1.42.4c.61 0 .88-.25.88-.61s-.22-.57-.91-.81c-1.08-.38-1.53-1-1.52-1.61a1.85 1.85 0 0 1 2.05-1.77 3.26 3.26 0 0 1 1.47.33l-.27 1a2.48 2.48 0 0 0-1.18-.32c-.5 0-.77.24-.77.58s.26.52 1 .77c1 .36 1.46.87 1.48 1.69 0 1-.79 1.73-2.26 1.73a3.53 3.53 0 0 1-1.68-.39zM230.82 122a3 3 0 0 0 1.42.4c.61 0 .89-.25.89-.61s-.23-.57-.91-.81c-1.08-.38-1.54-1-1.53-1.61 0-1 .81-1.74 2.1-1.74a3.25 3.25 0 0 1 1.46.33l-.27 1a2.44 2.44 0 0 0-1.17-.32c-.5 0-.77.24-.77.58s.26.52 1 .77c1 .36 1.47.87 1.48 1.69 0 1-.79 1.73-2.25 1.73a3.61 3.61 0 0 1-1.69-.39zM236.62 120.88a1.5 1.5 0 0 0 1.7 1.43 4.16 4.16 0 0 0 1.54-.25l.2 1a5.22 5.22 0 0 1-1.93.34 2.61 2.61 0 0 1-2.85-2.8 2.73 2.73 0 0 1 2.7-3 2.4 2.4 0 0 1 2.39 2.69 3.85 3.85 0 0 1 0 .59zm2.43-1a1.19 1.19 0 0 0-1.15-1.35 1.37 1.37 0 0 0-1.28 1.35zM241.43 122a3 3 0 0 0 1.42.4c.62 0 .89-.25.89-.61s-.23-.57-.91-.81c-1.08-.38-1.54-1-1.52-1.61a1.85 1.85 0 0 1 2.09-1.74 3.21 3.21 0 0 1 1.46.33l-.27 1a2.44 2.44 0 0 0-1.17-.32c-.5 0-.77.24-.77.58s.26.52 1 .77c1 .36 1.47.87 1.48 1.69 0 1-.78 1.73-2.25 1.73a3.53 3.53 0 0 1-1.68-.39zM246.17 122a3.08 3.08 0 0 0 1.43.4c.61 0 .88-.25.88-.61s-.23-.57-.91-.81c-1.08-.38-1.53-1-1.52-1.61a1.85 1.85 0 0 1 2.09-1.74 3.26 3.26 0 0 1 1.47.33l-.28 1a2.41 2.41 0 0 0-1.17-.32c-.5 0-.77.24-.77.58s.26.52 1 .77c1 .36 1.46.87 1.47 1.69 0 1-.78 1.73-2.25 1.73a3.53 3.53 0 0 1-1.68-.39zM251 119.37c0-.64 0-1.17-.05-1.65h1.21v.82a1.91 1.91 0 0 1 1.7-.94 1.6 1.6 0 0 1 1.54 1 2 2 0 0 1 .68-.69 1.83 1.83 0 0 1 1.11-.33c.93 0 1.86.62 1.86 2.39v3.27h-1.37v-3.04c0-.92-.31-1.47-1-1.47a1.05 1.05 0 0 0-1 .74 1.78 1.78 0 0 0-.07.47v3.32h-1.37v-3.21c0-.77-.3-1.32-.95-1.32a1.09 1.09 0 0 0-1 .8 1.12 1.12 0 0 0-.08.45v3.28H251zM261.62 120.88a1.51 1.51 0 0 0 1.71 1.43 4.14 4.14 0 0 0 1.53-.25l.21 1a5.32 5.32 0 0 1-1.94.34 2.62 2.62 0 0 1-2.85-2.8 2.74 2.74 0 0 1 2.71-3 2.4 2.4 0 0 1 2.38 2.69 3.85 3.85 0 0 1 0 .59zm2.43-1a1.18 1.18 0 0 0-1.14-1.35 1.37 1.37 0 0 0-1.29 1.35zM266.5 119.37v-1.65h1.22l.07.83a2 2 0 0 1 1.76-1c1 0 2 .62 2 2.37v3.29h-1.39v-3.13c0-.79-.3-1.4-1.06-1.4a1.17 1.17 0 0 0-1.09.82 1.35 1.35 0 0 0-.06.46v3.25h-1.45zM274.55 116.14v1.58h1.33v1h-1.33v2.44c0 .67.19 1 .72 1a2.4 2.4 0 0 0 .55-.06v1.06a3.07 3.07 0 0 1-1 .14 1.63 1.63 0 0 1-1.21-.45 2.24 2.24 0 0 1-.43-1.55v-2.6h-.8v-1h.8v-1.25zM53 91.26v7.66h-1.4v-7.66zM54.6 95c0-.64 0-1.17-.05-1.65h1.23l.07.83a2 2 0 0 1 1.76-1c1 0 2 .63 2 2.38v3.28h-1.4V95.8c0-.8-.29-1.4-1.05-1.4a1.19 1.19 0 0 0-1.1.82 1.55 1.55 0 0 0-.05.45v3.25H54.6zM62.65 91.81v1.58H64v1h-1.35v2.45c0 .67.18 1 .72 1a1.76 1.76 0 0 0 .54-.07v1.07a3.09 3.09 0 0 1-1 .14 1.59 1.59 0 0 1-1.2-.46 2.18 2.18 0 0 1-.42-1.52v-2.57h-.8v-1h.8v-1.29zM66 96.55A1.51 1.51 0 0 0 67.67 98a4.14 4.14 0 0 0 1.53-.25l.21 1a5.32 5.32 0 0 1-1.94.34 2.62 2.62 0 0 1-2.85-2.8 2.74 2.74 0 0 1 2.71-3A2.41 2.41 0 0 1 69.71 96a4 4 0 0 1 0 .59zm2.43-1a1.18 1.18 0 0 0-1.14-1.35A1.37 1.37 0 0 0 66 95.57zM70.84 95.17v-1.78H72v1a1.66 1.66 0 0 1 1.52-1.18 1.19 1.19 0 0 1 .33 0v1.32a1.58 1.58 0 0 0-.41-.05 1.23 1.23 0 0 0-1.25 1.06 1.81 1.81 0 0 0-.05.43v2.86h-1.4zM74.89 95v-1.65h1.22l.07.83a2 2 0 0 1 1.76-1c1 0 2 .63 2 2.38v3.28h-1.43V95.8c0-.8-.3-1.4-1.06-1.4a1.17 1.17 0 0 0-1.09.82 1.26 1.26 0 0 0-.06.45v3.25h-1.41zM82.39 96.55a1.5 1.5 0 0 0 1.7 1.45 4.16 4.16 0 0 0 1.54-.25l.2 1a5.3 5.3 0 0 1-1.93.25 2.62 2.62 0 0 1-2.9-2.76 2.75 2.75 0 0 1 2.71-3A2.41 2.41 0 0 1 86.14 96a2.79 2.79 0 0 1 0 .59zm2.43-1a1.19 1.19 0 0 0-1.15-1.35 1.36 1.36 0 0 0-1.28 1.35zM88.87 91.81v1.58h1.33v1h-1.33v2.45c0 .67.18 1 .72 1a1.81 1.81 0 0 0 .54-.07v1.07a3 3 0 0 1-1 .14 1.59 1.59 0 0 1-1.2-.46 2.18 2.18 0 0 1-.42-1.52v-2.57h-.8v-1h.8v-1.29zM98.88 96.1a2.74 2.74 0 0 1-2.84 3 2.68 2.68 0 0 1-2.78-2.85 2.74 2.74 0 0 1 2.87-2.94 2.65 2.65 0 0 1 2.75 2.79zm-4.17.06c0 1.07.52 1.88 1.37 1.88s1.35-.79 1.35-1.9c0-.87-.38-1.85-1.34-1.85s-1.38.95-1.38 1.87zM100.19 98.92v-4.49h-.75v-1h.75v-.24a2.58 2.58 0 0 1 .67-1.89 2.15 2.15 0 0 1 1.44-.53 2.72 2.72 0 0 1 .9.13l-.1 1.08a1.8 1.8 0 0 0-.59-.1c-.7 0-.93.58-.93 1.26v.29h1.21v1h-1.2v4.49zM107.08 92.43h-2.18v-1.17h5.78v1.17h-2.2v6.49h-1.4zM111.42 90.85h1.4v3.3a1.93 1.93 0 0 1 .69-.64 1.88 1.88 0 0 1 1-.25c.94 0 1.93.63 1.93 2.4v3.26H115v-3.1c0-.81-.3-1.41-1.07-1.41a1.14 1.14 0 0 0-1.08.79 1.29 1.29 0 0 0-.06.42v3.3h-1.4zM119.41 91.84a.79.79 0 0 1-1.57 0 .79.79 0 0 1 1.57 0zm-1.49 7.08v-5.53h1.41v5.53zM120.83 95v-1.65H122l.06.83a2 2 0 0 1 1.76-1c1 0 2 .63 2 2.38v3.28h-1.4V95.8c0-.8-.3-1.4-1.06-1.4a1.17 1.17 0 0 0-1.09.82 1.26 1.26 0 0 0-.06.45v3.25h-1.41zM132.4 93.39c0 .37-.05.83-.05 1.59v3.14a2.66 2.66 0 0 1-2.95 3.18 4 4 0 0 1-1.94-.44l.31-1.06a3.45 3.45 0 0 0 1.62.42 1.47 1.47 0 0 0 1.61-1.67v-.48a1.88 1.88 0 0 1-1.62.82 2.45 2.45 0 0 1-2.38-2.71 2.65 2.65 0 0 1 2.51-2.92 1.73 1.73 0 0 1 1.6.87l.05-.74zM131 95.6a1.5 1.5 0 0 0-.05-.37 1.17 1.17 0 0 0-1.14-.9c-.78 0-1.36.68-1.36 1.81 0 .94.48 1.7 1.35 1.7a1.2 1.2 0 0 0 1.1-.84 2.73 2.73 0 0 0 .06-.5zM133.79 97.64a3.16 3.16 0 0 0 1.42.4c.61 0 .89-.25.89-.62s-.23-.57-.91-.8c-1.08-.38-1.54-1-1.52-1.62a1.85 1.85 0 0 1 2.09-1.74 3.25 3.25 0 0 1 1.46.33l-.27 1a2.44 2.44 0 0 0-1.17-.32c-.5 0-.77.24-.77.58s.26.53 1 .78c1 .36 1.47.87 1.48 1.69 0 1-.78 1.73-2.25 1.73a3.53 3.53 0 0 1-1.68-.39zM141.09 95.41v1h-2.9v-1zM65 110.59v-8.07h1.4v3.3a2 2 0 0 1 1.78-.89c1.35 0 2.32 1.12 2.31 2.81 0 2-1.27 3-2.52 3a1.92 1.92 0 0 1-1.75-1l-.07.83zm1.44-2.28a1.24 1.24 0 0 0 0 .33 1.28 1.28 0 0 0 1.23 1c.88 0 1.41-.7 1.41-1.82s-.4-1.82-1.33-1.82a1.31 1.31 0 0 0-1.24 1 1.38 1.38 0 0 0-.05.37zM74.83 110.59l-.09-.61a2.06 2.06 0 0 1-1.64.74 1.65 1.65 0 0 1-1.74-1.65c0-1.4 1.24-2.11 3.29-2.09v-.1c0-.36-.15-1-1.13-1a3 3 0 0 0-1.49.41l-.27-.91a4 4 0 0 1 2-.49 2.07 2.07 0 0 1 2.24 2.37v2a9.88 9.88 0 0 0 .08 1.33zm-.18-2.71c-1 0-1.93.2-1.93 1a.73.73 0 0 0 .79.79 1.14 1.14 0 0 0 1.1-.76 1.08 1.08 0 0 0 0-.3zM77.43 109.31a3.16 3.16 0 0 0 1.42.39c.61 0 .89-.25.89-.61s-.23-.57-.91-.81c-1.08-.37-1.54-1-1.53-1.61a1.85 1.85 0 0 1 2.09-1.74 3.26 3.26 0 0 1 1.47.33l-.27 1a2.44 2.44 0 0 0-1.17-.32c-.5 0-.78.24-.78.58s.27.52 1 .77c1 .37 1.47.88 1.48 1.7 0 1-.79 1.72-2.25 1.72a3.7 3.7 0 0 1-1.69-.38zM83.23 108.21a1.51 1.51 0 0 0 1.7 1.44 4.16 4.16 0 0 0 1.54-.25l.2 1a5 5 0 0 1-1.93.34 2.61 2.61 0 0 1-2.85-2.79 2.74 2.74 0 0 1 2.7-3 2.41 2.41 0 0 1 2.41 2.67 2.73 2.73 0 0 1 0 .59zm2.43-1a1.19 1.19 0 0 0-1.15-1.36 1.37 1.37 0 0 0-1.28 1.36zM93.21 102.52V109c0 .57 0 1.19.05 1.56H92l-.06-.88a2 2 0 0 1-1.81 1c-1.32 0-2.36-1.13-2.36-2.84s1.14-2.95 2.47-2.95a1.76 1.76 0 0 1 1.56.73v-3.14zm-1.4 4.84a2.19 2.19 0 0 0 0-.36 1.22 1.22 0 0 0-1.2-1c-.9 0-1.4.79-1.4 1.83s.5 1.75 1.38 1.75a1.24 1.24 0 0 0 1.21-1 1.73 1.73 0 0 0 0-.41zM97.07 102.52h1.41v3.3a1.81 1.81 0 0 1 .7-.64 1.87 1.87 0 0 1 1-.25c.95 0 1.94.62 1.94 2.4v3.26h-1.4v-3.1c0-.81-.3-1.41-1.07-1.41a1.14 1.14 0 0 0-1.08.78 1.09 1.09 0 0 0-.06.42v3.31h-1.44zM104.57 108.21a1.51 1.51 0 0 0 1.7 1.44 4.16 4.16 0 0 0 1.54-.25l.2 1a5.06 5.06 0 0 1-1.93.34 2.61 2.61 0 0 1-2.85-2.79 2.74 2.74 0 0 1 2.7-3 2.41 2.41 0 0 1 2.39 2.69 2.73 2.73 0 0 1 0 .59zm2.43-1a1.2 1.2 0 0 0-1.15-1.36 1.37 1.37 0 0 0-1.28 1.36zM112.56 110.59l-.09-.61a2.06 2.06 0 0 1-1.64.74 1.65 1.65 0 0 1-1.74-1.65c0-1.4 1.24-2.11 3.29-2.09v-.1c0-.36-.15-1-1.13-1a3 3 0 0 0-1.49.41l-.27-.91a4 4 0 0 1 2-.49 2.07 2.07 0 0 1 2.28 2.33v2a9.88 9.88 0 0 0 .08 1.33zm-.18-2.71c-1 0-1.93.2-1.93 1a.73.73 0 0 0 .79.79 1.12 1.12 0 0 0 1.09-.76.82.82 0 0 0 0-.3zM115.23 102.52h1.41v8.07h-1.41zM119.75 103.47v1.58h1.33v1h-1.33v2.44c0 .67.18 1 .72 1a2.14 2.14 0 0 0 .54-.07v1.07a3.12 3.12 0 0 1-1 .13 1.63 1.63 0 0 1-1.21-.45 2.19 2.19 0 0 1-.43-1.55v-2.6h-.8v-1h.8v-1.22zM122.14 102.52h1.41v3.3a1.81 1.81 0 0 1 .7-.64 1.87 1.87 0 0 1 1-.25c1 0 1.94.62 1.94 2.4v3.26h-1.4v-3.1c0-.81-.3-1.41-1.07-1.41a1.14 1.14 0 0 0-1.08.78 1.09 1.09 0 0 0-.06.42v3.31h-1.41zM63.83 118.37v-1.65H65l.05.82a1.91 1.91 0 0 1 1.71-.94 1.6 1.6 0 0 1 1.53 1 2 2 0 0 1 .68-.69 1.84 1.84 0 0 1 1.12-.33c.92 0 1.85.62 1.85 2.39v3.27h-1.31v-3.04c0-.92-.32-1.47-1-1.47a1.07 1.07 0 0 0-1 .74 2.31 2.31 0 0 0-.07.47v3.32h-1.33v-3.21c0-.77-.31-1.32-1-1.32a1.1 1.1 0 0 0-1 .8 1.33 1.33 0 0 0-.08.45v3.28h-1.32zM76.59 122.26l-.09-.62a2 2 0 0 1-1.63.74 1.64 1.64 0 0 1-1.74-1.65c0-1.39 1.24-2.1 3.28-2.09v-.09c0-.36-.14-1-1.12-1a3 3 0 0 0-1.49.41l-.27-.91a4 4 0 0 1 2-.48 2.07 2.07 0 0 1 2.28 2.33v2a8.46 8.46 0 0 0 .08 1.33zm-.18-2.71c-1 0-1.94.2-1.94 1a.74.74 0 0 0 .8.79 1.12 1.12 0 0 0 1.09-.76.87.87 0 0 0 0-.31zM79.25 118.37v-1.65h1.23l.06.83a2 2 0 0 1 1.76-1c1 0 2 .62 2 2.37v3.29h-1.4v-3.13c0-.79-.3-1.4-1.06-1.4a1.17 1.17 0 0 0-1.09.82 1.35 1.35 0 0 0-.06.46v3.25h-1.44zM88.88 122.26l-.1-.62a2 2 0 0 1-1.64.74 1.64 1.64 0 0 1-1.74-1.65c0-1.39 1.24-2.1 3.29-2.09v-.09c0-.36-.15-1-1.13-1A3.06 3.06 0 0 0 86 118l-.27-.91a4 4 0 0 1 2-.48 2.07 2.07 0 0 1 2.29 2.33v2a8.46 8.46 0 0 0 .08 1.33zm-.19-2.71c-1 0-1.93.2-1.93 1a.73.73 0 0 0 .8.79 1.05 1.05 0 0 0 1.13-1.07zM96.6 116.72v4.73a2.67 2.67 0 0 1-3 3.18 3.89 3.89 0 0 1-1.94-.44l.31-1.06a3.26 3.26 0 0 0 1.61.42 1.47 1.47 0 0 0 1.6-1.67v-.48a1.86 1.86 0 0 1-1.61.82 2.45 2.45 0 0 1-2.35-2.7 2.65 2.65 0 0 1 2.51-2.92 1.74 1.74 0 0 1 1.6.86l.06-.74zm-1.45 2.22a1.58 1.58 0 0 0 0-.38 1.17 1.17 0 0 0-1.14-.9c-.78 0-1.36.69-1.36 1.81 0 1 .47 1.71 1.35 1.71a1.2 1.2 0 0 0 1.14-.84 2.73 2.73 0 0 0 .05-.5zM99 119.88a1.51 1.51 0 0 0 1.71 1.43 4.2 4.2 0 0 0 1.54-.25l.2 1a5.3 5.3 0 0 1-1.93.34 2.62 2.62 0 0 1-2.86-2.8 2.74 2.74 0 0 1 2.71-3 2.4 2.4 0 0 1 2.39 2.69 3.57 3.57 0 0 1 0 .59zm2.44-1a1.19 1.19 0 0 0-1.15-1.35A1.37 1.37 0 0 0 99 118.9zM103.93 118.37c0-.64 0-1.17-.05-1.65h1.2l.06.82a1.91 1.91 0 0 1 1.7-.94 1.6 1.6 0 0 1 1.54 1 2 2 0 0 1 .68-.69 1.83 1.83 0 0 1 1.11-.33c.93 0 1.86.62 1.86 2.39v3.27h-1.37v-3.04c0-.92-.31-1.47-1-1.47a1.05 1.05 0 0 0-1 .74 1.78 1.78 0 0 0-.07.47v3.32h-1.37v-3.21c0-.77-.3-1.32-.95-1.32a1.09 1.09 0 0 0-1 .8 1.12 1.12 0 0 0-.08.45v3.28h-1.36zM114.56 119.88c0 1 .82 1.43 1.71 1.43a4.14 4.14 0 0 0 1.53-.25l.2 1a5.22 5.22 0 0 1-1.93.34 2.62 2.62 0 0 1-2.85-2.8 2.73 2.73 0 0 1 2.7-3 2.4 2.4 0 0 1 2.39 2.69 3.85 3.85 0 0 1 0 .59zm2.43-1a1.19 1.19 0 0 0-1.15-1.35 1.37 1.37 0 0 0-1.28 1.35zM119.44 118.37v-1.65h1.23l.07.83a2 2 0 0 1 1.77-1c1 0 2 .62 2 2.37v3.29h-1.39v-3.13c0-.79-.3-1.4-1.06-1.4a1.16 1.16 0 0 0-1.09.82 1.35 1.35 0 0 0-.06.46v3.25h-1.41zM127.49 115.14v1.58h1.33v1h-1.33v2.44c0 .67.19 1 .72 1a2.23 2.23 0 0 0 .54-.06v1.06a3.07 3.07 0 0 1-1 .14 1.63 1.63 0 0 1-1.21-.45 2.24 2.24 0 0 1-.43-1.55v-2.6h-.8v-1h.8v-1.25zM40.17 218H38v-1.2h5.79v1.2h-2.23v6.49h-1.39zM44.73 222.08a1.51 1.51 0 0 0 1.7 1.44 4.16 4.16 0 0 0 1.54-.25l.2 1a5 5 0 0 1-1.93.34 2.61 2.61 0 0 1-2.85-2.79 2.74 2.74 0 0 1 2.7-3 2.41 2.41 0 0 1 2.39 2.69 2.73 2.73 0 0 1 0 .59zm2.43-1a1.19 1.19 0 0 0-1.16-1.33 1.37 1.37 0 0 0-1.28 1.36zM50.45 218.92l.66 1.05.5.85.48-.87.61-1h1.53l-1.85 2.66 1.88 2.88h-1.55l-.68-1.1c-.18-.3-.34-.59-.5-.9-.16.32-.32.59-.5.9l-.64 1.1h-1.57l1.93-2.82-1.86-2.72zM56.89 217.34v1.58h1.33V220h-1.33v2.44c0 .67.18 1 .71 1a2.31 2.31 0 0 0 .55-.07v1.07a3.08 3.08 0 0 1-1 .13 1.62 1.62 0 0 1-1.2-.45 2.19 2.19 0 0 1-.44-1.55V220h-.79v-1.05h.79v-1.25zM64.75 224.46l-.09-.61a2.06 2.06 0 0 1-1.64.74 1.64 1.64 0 0 1-1.73-1.65c0-1.4 1.23-2.11 3.28-2.09v-.1c0-.36-.15-1-1.13-1a2.89 2.89 0 0 0-1.48.41l-.28-.91a4 4 0 0 1 2-.49 2.07 2.07 0 0 1 2.29 2.33v2a8.46 8.46 0 0 0 .08 1.33zm-.19-2.71c-1 0-1.93.2-1.93 1a.73.73 0 0 0 .8.79 1.14 1.14 0 0 0 1.09-.76 1.08 1.08 0 0 0 0-.3zM67.41 220.57v-1.65h1.23l.07.83a2 2 0 0 1 1.77-.95c1 0 2 .62 2 2.38v3.28H71v-3.13c0-.79-.29-1.39-1-1.39a1.15 1.15 0 0 0-1.09.81 1.35 1.35 0 0 0-.06.46v3.25h-1.44zM77 224.46l-.09-.61a2.08 2.08 0 0 1-1.64.74 1.64 1.64 0 0 1-1.74-1.65c0-1.4 1.24-2.11 3.28-2.09v-.1c0-.36-.14-1-1.12-1a2.92 2.92 0 0 0-1.49.41l-.27-.91a4 4 0 0 1 2-.49 2.07 2.07 0 0 1 2.28 2.33v2a9.88 9.88 0 0 0 .08 1.33zm-.18-2.71c-1 0-1.93.2-1.93 1a.73.73 0 0 0 .79.79 1.12 1.12 0 0 0 1.09-.76.82.82 0 0 0 0-.3zM79.7 216.39h1.4v8.07h-1.4zM83.49 218.92l1 3c.12.34.23.76.31 1.08.1-.32.2-.73.3-1.09l.86-3h1.5l-1.38 3.78c-.76 2.07-1.28 3-1.94 3.56a2.72 2.72 0 0 1-1.46.71l-.32-1.18a2.41 2.41 0 0 0 .82-.39 2.44 2.44 0 0 0 .76-.87.51.51 0 0 0 .09-.25.54.54 0 0 0-.03-.27l-2-5.09zM89.91 217.34v1.58h1.33V220h-1.33v2.44c0 .67.18 1 .71 1a2.31 2.31 0 0 0 .55-.07v1.07a3.08 3.08 0 0 1-1 .13 1.62 1.62 0 0 1-1.2-.45 2.19 2.19 0 0 1-.44-1.55V220h-.79v-1.05h.79v-1.25zM93.79 217.38a.74.74 0 0 1-.8.75.74.74 0 0 1-.77-.75.79.79 0 0 1 1.57 0zm-1.49 7.08v-5.54h1.41v5.54zM99.28 224.29a4 4 0 0 1-1.57.28 2.65 2.65 0 0 1-2.85-2.82 2.86 2.86 0 0 1 3.08-2.95 3.45 3.45 0 0 1 1.35.26l-.29 1.05a2.37 2.37 0 0 0-1.06-.22 1.79 1.79 0 0 0 0 3.58 2.88 2.88 0 0 0 1.11-.21zM100.25 223.18a3.16 3.16 0 0 0 1.42.39c.61 0 .89-.25.89-.61s-.23-.57-.91-.81c-1.08-.37-1.54-1-1.53-1.61 0-1 .81-1.74 2.1-1.74a3.25 3.25 0 0 1 1.46.33l-.27 1a2.44 2.44 0 0 0-1.17-.32c-.5 0-.77.24-.77.58s.26.52 1 .77c1 .37 1.47.88 1.48 1.7 0 1-.78 1.72-2.25 1.72a3.54 3.54 0 0 1-1.68-.38zM39.76 236.13l-.09-.62a2.08 2.08 0 0 1-1.64.74 1.64 1.64 0 0 1-1.74-1.65c0-1.39 1.24-2.1 3.28-2.09v-.09c0-.36-.14-1-1.12-1a3 3 0 0 0-1.49.41l-.27-.91a4 4 0 0 1 2-.48 2.07 2.07 0 0 1 2.28 2.33v2a9.88 9.88 0 0 0 .08 1.33zm-.18-2.71c-1 0-1.93.19-1.93 1a.73.73 0 0 0 .79.79 1.12 1.12 0 0 0 1.09-.76.87.87 0 0 0 0-.31zM42.42 232.24v-1.65h1.23l.06.83a2 2 0 0 1 1.76-.95c1 0 2 .62 2 2.37v3.29H46V233c0-.79-.3-1.4-1.06-1.4a1.18 1.18 0 0 0-1.09.82 1.65 1.65 0 0 0-.06.46v3.25h-1.37zM54 228.06v8.07h-1.17l-.06-.88a2 2 0 0 1-1.81 1c-1.31 0-2.36-1.12-2.36-2.83s1.15-2.95 2.48-2.95a1.75 1.75 0 0 1 1.55.72v-3.13zm-1.4 4.84a1.55 1.55 0 0 0 0-.37 1.22 1.22 0 0 0-1.2-1c-.9 0-1.4.79-1.4 1.83s.5 1.75 1.39 1.75a1.22 1.22 0 0 0 1.2-1 1.36 1.36 0 0 0 0-.41zM57.83 234.84a3 3 0 0 0 1.42.4c.61 0 .88-.25.88-.61s-.22-.57-.91-.81c-1.08-.38-1.53-1-1.52-1.61a1.85 1.85 0 0 1 2.09-1.74 3.26 3.26 0 0 1 1.47.33l-.27 1a2.61 2.61 0 0 0-1.17-.31c-.5 0-.78.24-.78.58s.26.52 1 .77c1 .36 1.47.87 1.48 1.69 0 1-.79 1.73-2.25 1.73a3.58 3.58 0 0 1-1.69-.39zM64.24 229v1.58h1.33v1h-1.33v2.44c0 .67.18 1 .72 1a2.23 2.23 0 0 0 .54-.06v1.06a3.09 3.09 0 0 1-1 .14 1.62 1.62 0 0 1-1.2-.45 2.19 2.19 0 0 1-.43-1.55v-2.6h-.8v-1h.8v-1.25zM69.75 236.13l-.1-.62a2.06 2.06 0 0 1-1.64.74 1.65 1.65 0 0 1-1.74-1.65c0-1.39 1.24-2.1 3.29-2.09v-.09c0-.36-.15-1-1.13-1a3 3 0 0 0-1.48.41l-.28-.91a4 4 0 0 1 2-.48 2.07 2.07 0 0 1 2.29 2.33v2a8.46 8.46 0 0 0 .08 1.33zm-.19-2.71c-1 0-1.93.19-1.93 1a.73.73 0 0 0 .8.79 1.05 1.05 0 0 0 1.13-1.07zM73.94 229v1.58h1.33v1h-1.33v2.44c0 .67.19 1 .72 1a2.4 2.4 0 0 0 .55-.06v1.06a3.07 3.07 0 0 1-1 .14 1.65 1.65 0 0 1-1.21-.45 2.24 2.24 0 0 1-.43-1.55v-2.6h-.8v-1h.8v-1.25zM77.82 229a.79.79 0 0 1-1.57 0 .75.75 0 0 1 .79-.76.74.74 0 0 1 .78.76zm-1.49 7.09v-5.54h1.41v5.54zM79.18 234.84a3 3 0 0 0 1.42.4c.61 0 .88-.25.88-.61s-.22-.57-.9-.81c-1.08-.38-1.54-1-1.53-1.61a1.85 1.85 0 0 1 2.09-1.74 3.26 3.26 0 0 1 1.47.33l-.27 1a2.57 2.57 0 0 0-1.17-.31c-.5 0-.78.24-.78.58s.26.52 1 .77c1 .36 1.47.87 1.48 1.69 0 1-.79 1.73-2.25 1.73a3.58 3.58 0 0 1-1.69-.39zM85.59 229v1.58h1.33v1h-1.33v2.44c0 .67.18 1 .72 1a2.23 2.23 0 0 0 .54-.06v1.06a3.09 3.09 0 0 1-1 .14 1.62 1.62 0 0 1-1.2-.45 2.19 2.19 0 0 1-.43-1.55v-2.6h-.8v-1h.8v-1.25zM89.47 229a.74.74 0 0 1-.8.75.73.73 0 0 1-.77-.75.79.79 0 0 1 1.57 0zM88 236.13v-5.54h1.41v5.54zM95 236a4.14 4.14 0 0 1-1.57.28 2.66 2.66 0 0 1-2.85-2.82 2.86 2.86 0 0 1 3.08-2.95 3.41 3.41 0 0 1 1.35.26l-.25 1a2.45 2.45 0 0 0-1-.21 1.79 1.79 0 0 0 0 3.58 2.6 2.6 0 0 0 1.1-.22zM99.12 236.13l-.1-.62a2.06 2.06 0 0 1-1.64.74 1.65 1.65 0 0 1-1.74-1.65c0-1.39 1.24-2.1 3.29-2.09v-.09c0-.36-.15-1-1.13-1a3 3 0 0 0-1.48.41L96 231a4 4 0 0 1 2-.48 2.07 2.07 0 0 1 2.29 2.33v2a8.46 8.46 0 0 0 .08 1.33zm-.19-2.71c-1 0-1.93.19-1.93 1a.73.73 0 0 0 .8.79 1.05 1.05 0 0 0 1.13-1.07zM101.78 228.06h1.41v8.07h-1.41zM49.3 247.79l-.09-.61a2.06 2.06 0 0 1-1.63.74 1.64 1.64 0 0 1-1.74-1.65c0-1.4 1.24-2.1 3.28-2.09v-.09c0-.37-.14-1-1.12-1a2.9 2.9 0 0 0-1.49.41l-.27-.91a4 4 0 0 1 2-.49 2.07 2.07 0 0 1 2.28 2.33v2a8.46 8.46 0 0 0 .08 1.33zm-.18-2.7c-1 0-1.94.19-1.94 1a.74.74 0 0 0 .8.8 1.13 1.13 0 0 0 1.09-.76.91.91 0 0 0 0-.31zM52 243.91v-1.65h1.23l.06.83a2 2 0 0 1 1.76-1c1 0 2 .63 2 2.38v3.28h-1.4v-3.12c0-.8-.3-1.4-1.06-1.4a1.17 1.17 0 0 0-1.09.82 1.26 1.26 0 0 0-.06.45v3.25H52zM61.58 247.79l-.09-.61a2.06 2.06 0 0 1-1.64.74 1.65 1.65 0 0 1-1.74-1.65c0-1.4 1.24-2.1 3.29-2.09v-.09c0-.37-.15-1-1.13-1a3 3 0 0 0-1.49.41l-.27-.91a4 4 0 0 1 2-.49 2.08 2.08 0 0 1 2.29 2.33v2a8.46 8.46 0 0 0 .08 1.33zm-.18-2.7c-1 0-1.93.19-1.93 1a.74.74 0 0 0 .8.8 1.15 1.15 0 0 0 1.09-.76 1.2 1.2 0 0 0 0-.31zM64.25 239.72h1.41v8.07h-1.41zM68.05 242.26l1 3c.11.35.22.77.3 1.08.09-.31.19-.72.29-1.09l.87-3h1.5L70.66 246c-.76 2.07-1.27 3-1.93 3.56a2.88 2.88 0 0 1-1.47.72l-.32-1.19a2.29 2.29 0 0 0 .82-.38 2.39 2.39 0 0 0 .76-.88.51.51 0 0 0 .09-.25.68.68 0 0 0-.07-.27l-2-5.08zM72.65 246.51a3.21 3.21 0 0 0 1.43.4c.61 0 .88-.25.88-.62s-.23-.56-.91-.8c-1.08-.38-1.53-1-1.52-1.62a1.85 1.85 0 0 1 2.09-1.74 3.29 3.29 0 0 1 1.47.33l-.28 1a2.41 2.41 0 0 0-1.17-.32c-.5 0-.77.24-.77.58s.26.53 1 .78c1 .36 1.46.87 1.47 1.69 0 1-.78 1.73-2.25 1.73a3.53 3.53 0 0 1-1.68-.39zM79 240.71a.78.78 0 1 1-.78-.76.74.74 0 0 1 .78.76zm-1.48 7.08v-5.53h1.41v5.53zM80.31 246.51a3.16 3.16 0 0 0 1.42.4c.61 0 .89-.25.89-.62s-.23-.56-.91-.8c-1.08-.38-1.54-1-1.53-1.62 0-1 .81-1.74 2.1-1.74a3.25 3.25 0 0 1 1.46.33l-.27 1a2.44 2.44 0 0 0-1.17-.32c-.5 0-.77.24-.77.58s.26.53 1 .78c1 .36 1.47.87 1.48 1.69 0 1-.78 1.73-2.25 1.73a3.53 3.53 0 0 1-1.68-.39zM92.74 245a2.74 2.74 0 0 1-2.84 2.95 2.68 2.68 0 0 1-2.78-2.85 2.74 2.74 0 0 1 2.88-2.97 2.65 2.65 0 0 1 2.74 2.87zm-4.17.06c0 1.07.52 1.88 1.37 1.88s1.35-.79 1.35-1.9c0-.86-.38-1.85-1.34-1.85s-1.38.92-1.38 1.81zM94.05 247.79v-4.49h-.75v-1h.75v-.3a2.58 2.58 0 0 1 .67-1.89 2.15 2.15 0 0 1 1.44-.53 2.72 2.72 0 0 1 .9.13l-.1 1.08a1.8 1.8 0 0 0-.59-.1c-.69 0-.93.58-.93 1.26v.29h1.21v1h-1.2v4.49zM39.73 255.57v-1.65h1.21l.06.82a1.91 1.91 0 0 1 1.7-.94 1.6 1.6 0 0 1 1.54 1 2.24 2.24 0 0 1 .68-.69 1.84 1.84 0 0 1 1.08-.31c.92 0 1.85.62 1.85 2.4v3.26h-1.32v-3.06c0-.92-.32-1.46-1-1.46a1.07 1.07 0 0 0-1 .73 2.31 2.31 0 0 0-.07.47v3.32h-1.33v-3.21c0-.77-.31-1.31-1-1.31a1.1 1.1 0 0 0-1 .79 1.39 1.39 0 0 0-.08.46v3.27h-1.32zM52.49 259.46l-.09-.61a2.09 2.09 0 0 1-1.64.74 1.64 1.64 0 0 1-1.76-1.65c0-1.4 1.24-2.11 3.28-2.09v-.1c0-.36-.14-1-1.12-1a2.9 2.9 0 0 0-1.49.41l-.27-.91a4 4 0 0 1 2-.49 2.07 2.07 0 0 1 2.28 2.33v2a8.46 8.46 0 0 0 .08 1.33zm-.18-2.71c-1 0-1.93.2-1.93 1a.73.73 0 0 0 .79.79 1.12 1.12 0 0 0 1.09-.76.82.82 0 0 0 .05-.3zM56.64 252.38a.79.79 0 0 1-1.57 0 .75.75 0 0 1 .79-.76.74.74 0 0 1 .78.76zm-1.49 7.08v-5.54h1.41v5.54zM58.07 255.57v-1.65h1.23l.07.83a2 2 0 0 1 1.76-.95c1 0 2 .62 2 2.38v3.28h-1.4v-3.13c0-.79-.3-1.39-1.06-1.39a1.17 1.17 0 0 0-1.09.81 1.65 1.65 0 0 0-.06.46v3.25h-1.4zM66.12 252.34v1.58h1.33V255h-1.33v2.44c0 .67.18 1 .71 1a2.31 2.31 0 0 0 .55-.07v1.07a3.08 3.08 0 0 1-1 .13 1.62 1.62 0 0 1-1.2-.45 2.19 2.19 0 0 1-.44-1.55V255H64v-1.05h.79v-1.25zM69.43 257.08a1.51 1.51 0 0 0 1.7 1.44 4.16 4.16 0 0 0 1.54-.25l.2 1a5 5 0 0 1-1.93.34 2.61 2.61 0 0 1-2.85-2.79 2.74 2.74 0 0 1 2.7-3 2.41 2.41 0 0 1 2.39 2.69 2.73 2.73 0 0 1-.05.59zm2.43-1a1.19 1.19 0 0 0-1.15-1.36 1.37 1.37 0 0 0-1.28 1.36zM74.31 255.57v-1.65h1.23l.07.83a2 2 0 0 1 1.77-.95c1 0 2 .62 2 2.38v3.28h-1.4v-3.13c0-.79-.29-1.39-1-1.39a1.15 1.15 0 0 0-1.09.81 1.35 1.35 0 0 0-.06.46v3.25h-1.52zM83.93 259.46l-.09-.61a2.06 2.06 0 0 1-1.63.74 1.64 1.64 0 0 1-1.74-1.65c0-1.4 1.24-2.11 3.28-2.09v-.1c0-.36-.14-1-1.12-1a2.9 2.9 0 0 0-1.49.41l-.27-.91a4 4 0 0 1 2-.49 2.07 2.07 0 0 1 2.28 2.33v2a8.46 8.46 0 0 0 .08 1.33zm-.18-2.71c-1 0-1.93.2-1.93 1a.73.73 0 0 0 .79.79 1.12 1.12 0 0 0 1.09-.76.82.82 0 0 0 0-.3zM86.59 255.57v-1.65h1.23l.06.83a2 2 0 0 1 1.76-.95c1 0 2 .62 2 2.38v3.28h-1.4v-3.13c0-.79-.3-1.39-1.06-1.39a1.16 1.16 0 0 0-1.09.81 1.35 1.35 0 0 0-.06.46v3.25h-1.44zM97.17 259.29a4 4 0 0 1-1.57.28 2.65 2.65 0 0 1-2.85-2.82 2.86 2.86 0 0 1 3.08-2.95 3.45 3.45 0 0 1 1.35.26l-.25 1.05a2.37 2.37 0 0 0-1.06-.22 1.79 1.79 0 0 0 0 3.58 2.88 2.88 0 0 0 1.11-.21zM99.09 257.08a1.52 1.52 0 0 0 1.71 1.44 4.11 4.11 0 0 0 1.53-.25l.21 1a5.1 5.1 0 0 1-1.93.34 2.62 2.62 0 0 1-2.86-2.79 2.74 2.74 0 0 1 2.71-3 2.41 2.41 0 0 1 2.39 2.69 3.57 3.57 0 0 1 0 .59zm2.44-1a1.2 1.2 0 0 0-1.15-1.36 1.38 1.38 0 0 0-1.29 1.36zM65.91 263.06v8.07h-1.2l-.06-.88a2 2 0 0 1-1.81 1c-1.32 0-2.37-1.12-2.37-2.83s1.15-2.95 2.48-2.95a1.77 1.77 0 0 1 1.56.72v-3.13zm-1.4 4.84a2.31 2.31 0 0 0 0-.37 1.23 1.23 0 0 0-1.21-1c-.89 0-1.39.79-1.39 1.83s.5 1.75 1.38 1.75a1.24 1.24 0 0 0 1.21-1 1.78 1.78 0 0 0 0-.41zM70.53 271.13l-.09-.62a2.09 2.09 0 0 1-1.64.74 1.64 1.64 0 0 1-1.8-1.65c0-1.39 1.24-2.1 3.28-2.09v-.09c0-.36-.14-1-1.12-1a3 3 0 0 0-1.49.41l-.27-.91a4 4 0 0 1 2-.48 2.07 2.07 0 0 1 2.28 2.33v2a9.88 9.88 0 0 0 .08 1.33zm-.18-2.71c-1 0-1.93.19-1.93 1a.73.73 0 0 0 .79.79 1.12 1.12 0 0 0 1.09-.76.87.87 0 0 0 0-.31zM74.73 264v1.58h1.33v1.05h-1.33v2.44c0 .67.18 1 .71 1A2.33 2.33 0 0 0 76 270v1.06a3 3 0 0 1-1 .14 1.62 1.62 0 0 1-1.2-.45 2.19 2.19 0 0 1-.44-1.55v-2.6h-.79v-1.05h.79v-1.25zM80.23 271.13l-.09-.62a2.06 2.06 0 0 1-1.64.74 1.65 1.65 0 0 1-1.74-1.65c0-1.39 1.24-2.1 3.29-2.09v-.09c0-.36-.15-1-1.13-1a3.06 3.06 0 0 0-1.49.41l-.27-.91a4 4 0 0 1 2-.48 2.07 2.07 0 0 1 2.29 2.33v2a8.46 8.46 0 0 0 .08 1.33zm-.18-2.71c-1 0-1.93.19-1.93 1a.73.73 0 0 0 .79.79 1.05 1.05 0 0 0 1.14-1.07zM242 217.73a14.49 14.49 0 0 1 2.23-.15 4.65 4.65 0 0 1 3.12.88 3.42 3.42 0 0 1 1.2 2.82 4 4 0 0 1-1.2 3.05 5.11 5.11 0 0 1-3.46 1 14.72 14.72 0 0 1-1.89-.1zm1.4 6.5a5.87 5.87 0 0 0 .77 0 2.62 2.62 0 0 0 2.9-2.93 2.43 2.43 0 0 0-2.72-2.66 4.13 4.13 0 0 0-1 .08zM251.18 218.21a.78.78 0 1 1-.78-.76.74.74 0 0 1 .78.76zm-1.48 7.08v-5.53h1.41v5.53zM257.67 219.76c0 .37-.05.83-.05 1.59v3.14a2.67 2.67 0 0 1-3 3.18 4 4 0 0 1-1.93-.44l.31-1.06a3.37 3.37 0 0 0 1.61.42 1.48 1.48 0 0 0 1.6-1.67v-.48a1.86 1.86 0 0 1-1.61.82 2.46 2.46 0 0 1-2.36-2.71 2.66 2.66 0 0 1 2.52-2.92 1.73 1.73 0 0 1 1.6.87l.06-.74zm-1.45 2.24a1.5 1.5 0 0 0 0-.37 1.17 1.17 0 0 0-1.14-.9c-.78 0-1.36.68-1.36 1.81 0 .94.47 1.7 1.35 1.7a1.2 1.2 0 0 0 1.14-.84 2.65 2.65 0 0 0 .05-.5zM260.57 218.21a.74.74 0 0 1-.8.75.74.74 0 0 1-.77-.75.79.79 0 0 1 1.57 0zm-1.49 7.08v-5.53h1.41v5.53zM263.59 218.18v1.58h1.33v1h-1.33v2.45c0 .67.19 1 .72 1a1.89 1.89 0 0 0 .55-.07v1.07a3.07 3.07 0 0 1-1 .14 1.61 1.61 0 0 1-1.21-.46 2.23 2.23 0 0 1-.43-1.54v-2.55h-.79v-1h.79v-1.25zM269.1 225.29l-.09-.61a2.06 2.06 0 0 1-1.63.74 1.64 1.64 0 0 1-1.74-1.65c0-1.4 1.24-2.1 3.28-2.09v-.09c0-.37-.14-1-1.12-1a2.9 2.9 0 0 0-1.49.41l-.27-.91a3.94 3.94 0 0 1 2-.49 2.07 2.07 0 0 1 2.28 2.33v2a8.46 8.46 0 0 0 .08 1.33zm-.18-2.7c-1 0-1.94.19-1.94 1a.74.74 0 0 0 .8.8 1.13 1.13 0 0 0 1.09-.76.91.91 0 0 0 .05-.31zM271.76 217.22h1.41v8.07h-1.41zM278.64 218.18v1.58H280v1h-1.33v2.45c0 .67.19 1 .72 1a1.76 1.76 0 0 0 .54-.07v1.07a3.07 3.07 0 0 1-1 .14 1.6 1.6 0 0 1-1.21-.46 2.23 2.23 0 0 1-.43-1.54v-2.55h-.8v-1h.8v-1.25zM282 219.76l.58 2.51q.2.89.36 1.8c.11-.61.29-1.22.45-1.79l.72-2.52h1.14l.69 2.45c.17.65.32 1.25.44 1.86.09-.61.21-1.21.36-1.86l.61-2.45h1.38l-1.73 5.53h-1.3L285 223a15.83 15.83 0 0 1-.43-1.77 13.6 13.6 0 0 1-.42 1.77l-.7 2.25h-1.31l-1.64-5.53zM291.12 218.21a.79.79 0 0 1-1.57 0 .79.79 0 0 1 1.57 0zm-1.49 7.08v-5.53H291v5.53zM292.54 221.41v-1.65h1.23l.06.83a2 2 0 0 1 1.76-1c1 0 2 .63 2 2.38v3.28h-1.4v-3.12c0-.8-.3-1.4-1.06-1.4a1.17 1.17 0 0 0-1.09.82 1.26 1.26 0 0 0-.06.45v3.25h-1.41zM299.05 221.41c0-.64 0-1.17-.05-1.65h1.23l.07.83a2 2 0 0 1 1.77-1c1 0 2 .63 2 2.38v3.28h-1.39v-3.12c0-.8-.3-1.4-1.06-1.4a1.16 1.16 0 0 0-1.09.82 1.26 1.26 0 0 0-.06.45v3.25h-1.41zM307.05 218.21a.74.74 0 0 1-.8.75.73.73 0 0 1-.77-.75.74.74 0 0 1 .78-.76.75.75 0 0 1 .79.76zm-1.49 7.08v-5.53H307v5.53zM308.47 221.41c0-.64 0-1.17-.05-1.65h1.23l.07.83a2 2 0 0 1 1.77-1c1 0 2 .63 2 2.38v3.28h-1.4v-3.12c0-.8-.29-1.4-1.05-1.4a1.16 1.16 0 0 0-1.09.82 1.26 1.26 0 0 0-.06.45v3.25h-1.41zM320 219.76v4.73a2.67 2.67 0 0 1-3 3.18 4 4 0 0 1-1.93-.44l.31-1.06a3.37 3.37 0 0 0 1.61.42 1.47 1.47 0 0 0 1.59-1.67v-.48a1.87 1.87 0 0 1-1.61.82 2.46 2.46 0 0 1-2.36-2.71 2.65 2.65 0 0 1 2.51-2.92 1.74 1.74 0 0 1 1.61.87l.06-.74zm-1.41 2.24a1.25 1.25 0 0 0-1.18-1.27c-.79 0-1.37.68-1.37 1.81 0 .94.48 1.7 1.36 1.7a1.18 1.18 0 0 0 1.13-.84 2 2 0 0 0 .06-.5zM264.37 234.14a2.75 2.75 0 0 1-2.85 3 2.68 2.68 0 0 1-2.77-2.86 2.73 2.73 0 0 1 2.87-2.93 2.66 2.66 0 0 1 2.75 2.79zm-4.18.06c0 1.07.53 1.87 1.38 1.87s1.35-.78 1.35-1.89c0-.87-.38-1.86-1.34-1.86s-1.39.96-1.39 1.88zM265.68 237v-4.49h-.75v-1.05h.75v-.23a2.57 2.57 0 0 1 .67-1.89 2.09 2.09 0 0 1 1.44-.54 2.69 2.69 0 0 1 .9.14l-.1 1.08a1.57 1.57 0 0 0-.59-.1c-.7 0-.94.58-.94 1.26v.28h1.22v1.05h-1.2V237zM275.57 236.79a4 4 0 0 1-1.57.28 2.65 2.65 0 0 1-2.85-2.82 2.86 2.86 0 0 1 3.08-2.95 3.45 3.45 0 0 1 1.35.26l-.25 1.05a2.33 2.33 0 0 0-1.06-.22 1.79 1.79 0 0 0 0 3.58 2.88 2.88 0 0 0 1.11-.21zM276.61 233.21c0-.75 0-1.29-.05-1.79h1.22v1.06h.05a1.65 1.65 0 0 1 1.51-1.18 1.61 1.61 0 0 1 .33 0v1.32a2.18 2.18 0 0 0-.41 0 1.23 1.23 0 0 0-1.25 1 2.87 2.87 0 0 0 0 .44V237h-1.4zM282.15 229.88a.74.74 0 0 1-.8.75.73.73 0 0 1-.77-.75.75.75 0 0 1 .78-.76.75.75 0 0 1 .79.76zm-1.49 7.12v-5.54h1.41V237zM285.17 229.84v1.58h1.33v1.05h-1.33v2.44c0 .67.18 1 .72 1a2.14 2.14 0 0 0 .54-.07v1.07a3.12 3.12 0 0 1-1 .13 1.63 1.63 0 0 1-1.21-.45 2.19 2.19 0 0 1-.43-1.55v-2.6H283v-1.05h.8v-1.25zM289.05 229.88a.79.79 0 0 1-1.57 0 .79.79 0 0 1 1.57 0zm-1.49 7.12v-5.54H289V237zM294.54 236.79a4 4 0 0 1-1.57.28 2.66 2.66 0 0 1-2.85-2.82 2.86 2.86 0 0 1 3.08-2.95 3.41 3.41 0 0 1 1.35.26l-.25 1.05a2.28 2.28 0 0 0-1.05-.22 1.79 1.79 0 0 0 0 3.58 2.78 2.78 0 0 0 1.1-.21zM298.7 237l-.1-.61a2.06 2.06 0 0 1-1.64.74 1.65 1.65 0 0 1-1.74-1.65c0-1.4 1.24-2.11 3.29-2.09v-.1c0-.36-.15-1-1.13-1a2.89 2.89 0 0 0-1.48.41l-.28-.91a4 4 0 0 1 2-.49 2.07 2.07 0 0 1 2.29 2.33v2A8.46 8.46 0 0 0 300 237zm-.19-2.71c-1 0-1.93.2-1.93 1a.73.73 0 0 0 .8.79 1.14 1.14 0 0 0 1.09-.76 1.08 1.08 0 0 0 0-.3zM301.36 228.89h1.41V237h-1.41zM246.4 248.63l-.09-.62a2.06 2.06 0 0 1-1.64.74 1.64 1.64 0 0 1-1.74-1.65c0-1.39 1.24-2.1 3.28-2.09v-.09c0-.36-.14-1-1.12-1a3 3 0 0 0-1.49.4l-.27-.9a4 4 0 0 1 2-.49 2.07 2.07 0 0 1 2.28 2.33v2a9.88 9.88 0 0 0 .08 1.33zm-.18-2.71c-1 0-1.93.2-1.93 1a.73.73 0 0 0 .79.79 1.12 1.12 0 0 0 1.09-.76.87.87 0 0 0 .05-.31zM250.55 241.55a.79.79 0 0 1-1.57 0 .75.75 0 0 1 .79-.77.74.74 0 0 1 .78.77zm-1.49 7.08v-5.54h1.41v5.54zM252 244.88v-1.79h1.22v1.06h.05a1.64 1.64 0 0 1 1.51-1.18 1.61 1.61 0 0 1 .33 0v1.32a2.08 2.08 0 0 0-.41 0 1.24 1.24 0 0 0-1.25 1.06 2.68 2.68 0 0 0 0 .43v2.87H252zM260 248.46a4.14 4.14 0 0 1-1.57.28 2.66 2.66 0 0 1-2.85-2.82 2.86 2.86 0 0 1 3.08-2.95 3.41 3.41 0 0 1 1.35.26l-.25 1a2.45 2.45 0 0 0-1.05-.21 1.79 1.79 0 0 0 0 3.58 2.6 2.6 0 0 0 1.1-.22zM261 244.88v-1.79h1.22l.05 1.06a1.64 1.64 0 0 1 1.53-1.15 1.61 1.61 0 0 1 .33 0v1.32a2.08 2.08 0 0 0-.41 0 1.24 1.24 0 0 0-1.25 1.06 2.74 2.74 0 0 0 0 .43v2.87H261zM268.09 248.63L268 248a2 2 0 0 1-1.64.74 1.64 1.64 0 0 1-1.74-1.65c0-1.39 1.24-2.1 3.29-2.09v-.09c0-.36-.15-1-1.13-1a3.05 3.05 0 0 0-1.49.4l-.27-.9a4 4 0 0 1 2-.49 2.07 2.07 0 0 1 2.28 2.33v2a9.88 9.88 0 0 0 .08 1.33zm-.18-2.71c-1 0-1.93.2-1.93 1a.73.73 0 0 0 .79.79 1.05 1.05 0 0 0 1.14-1.07zM270.91 248.63v-4.49h-.75v-1h.75v-.24a2.57 2.57 0 0 1 .68-1.88 2.08 2.08 0 0 1 1.44-.54 2.74 2.74 0 0 1 .9.14l-.11 1.08a1.53 1.53 0 0 0-.59-.1c-.69 0-.93.58-.93 1.26v.28h1.22v1h-1.21v4.49zM276.13 241.51v1.58h1.33v1h-1.33v2.44c0 .67.19 1 .72 1a2.4 2.4 0 0 0 .55-.06v1.06a3.07 3.07 0 0 1-1 .14 1.65 1.65 0 0 1-1.21-.45 2.24 2.24 0 0 1-.43-1.55v-2.6H274v-1h.8v-1.25zM280.81 247.34a3 3 0 0 0 1.42.4c.62 0 .89-.25.89-.61s-.23-.57-.91-.81c-1.08-.38-1.54-1-1.52-1.61a1.85 1.85 0 0 1 2.09-1.74 3.21 3.21 0 0 1 1.46.33l-.27 1a2.44 2.44 0 0 0-1.17-.32c-.5 0-.77.24-.77.58s.26.52 1 .77c1 .36 1.47.87 1.48 1.69 0 1-.78 1.73-2.25 1.73a3.53 3.53 0 0 1-1.68-.39zM286.5 243.09l1 3c.11.34.23.76.3 1.08.09-.32.19-.73.29-1.09l.87-3h1.5l-1.39 3.78c-.76 2.06-1.27 3-1.93 3.55a2.85 2.85 0 0 1-1.47.72l-.32-1.18a2.33 2.33 0 0 0 .82-.39 2.44 2.44 0 0 0 .76-.87.63.63 0 0 0 .1-.25.75.75 0 0 0-.08-.28l-2-5.08zM291.11 247.34a3 3 0 0 0 1.42.4c.61 0 .88-.25.88-.61s-.22-.57-.91-.81c-1.08-.38-1.53-1-1.52-1.61a1.85 1.85 0 0 1 2.09-1.74 3.26 3.26 0 0 1 1.47.33l-.27 1a2.48 2.48 0 0 0-1.18-.32c-.5 0-.77.24-.77.58s.26.52 1 .77c1 .36 1.46.87 1.48 1.69 0 1-.79 1.73-2.26 1.73a3.53 3.53 0 0 1-1.68-.39zM297.52 241.51v1.58h1.33v1h-1.33v2.44c0 .67.18 1 .72 1a2.3 2.3 0 0 0 .54-.06v1.06a3 3 0 0 1-1 .14 1.62 1.62 0 0 1-1.2-.45 2.19 2.19 0 0 1-.43-1.55v-2.6h-.8v-1h.8v-1.25zM300.83 246.25c0 1 .82 1.43 1.71 1.43a4.14 4.14 0 0 0 1.53-.25l.2 1a5.22 5.22 0 0 1-1.93.34 2.62 2.62 0 0 1-2.85-2.8 2.73 2.73 0 0 1 2.7-3 2.4 2.4 0 0 1 2.39 2.69 3.85 3.85 0 0 1 0 .59zm2.43-1a1.18 1.18 0 0 0-1.14-1.35 1.37 1.37 0 0 0-1.29 1.35zM305.71 244.74v-1.65h1.21l.06.82a1.91 1.91 0 0 1 1.71-.94 1.6 1.6 0 0 1 1.53 1 2.07 2.07 0 0 1 .69-.69A1.79 1.79 0 0 1 312 243c.92 0 1.85.62 1.85 2.39v3.27h-1.36v-3.06c0-.92-.32-1.47-1-1.47a1.07 1.07 0 0 0-1 .74 2.31 2.31 0 0 0-.07.47v3.32h-1.36v-3.21c0-.77-.31-1.32-1-1.32a1.1 1.1 0 0 0-1 .8 1.33 1.33 0 0 0-.08.45v3.28h-1.36zM315.29 247.34a3 3 0 0 0 1.42.4c.61 0 .89-.25.89-.61s-.23-.57-.91-.81c-1.08-.38-1.54-1-1.53-1.61a1.85 1.85 0 0 1 2.09-1.74 3.26 3.26 0 0 1 1.47.33l-.27 1a2.44 2.44 0 0 0-1.17-.32c-.5 0-.78.24-.78.58s.27.52 1 .77c1 .36 1.47.87 1.48 1.69 0 1-.79 1.73-2.25 1.73a3.5 3.5 0 0 1-1.68-.39zM120.56 302.63a13.35 13.35 0 0 1 2.11-.16 3.56 3.56 0 0 1 2.37.61 2 2 0 0 1 .66 1.54 2.06 2.06 0 0 1-1.39 1.92 2 2 0 0 1 1.07 1.48 16 16 0 0 0 .6 2.14h-1.44a10.94 10.94 0 0 1-.51-1.81c-.22-1-.58-1.32-1.38-1.34H122v3.15h-1.39zM122 306h.83c.94 0 1.53-.5 1.53-1.26s-.59-1.23-1.5-1.23a4.2 4.2 0 0 0-.86.07zM132.27 307.37a2.74 2.74 0 0 1-2.84 2.94 2.67 2.67 0 0 1-2.77-2.85 2.74 2.74 0 0 1 2.86-2.94 2.66 2.66 0 0 1 2.75 2.85zm-4.17.05c0 1.07.53 1.88 1.38 1.88s1.35-.79 1.35-1.9c0-.86-.39-1.85-1.34-1.85s-1.39.95-1.39 1.87zM138.69 307.37a2.74 2.74 0 0 1-2.84 2.94 2.68 2.68 0 0 1-2.78-2.85 2.74 2.74 0 0 1 2.87-2.94 2.66 2.66 0 0 1 2.75 2.85zm-4.17.05c0 1.07.52 1.88 1.37 1.88s1.36-.79 1.36-1.9c0-.86-.39-1.85-1.35-1.85s-1.38.95-1.38 1.87zM141.44 303.07v1.58h1.33v1.05h-1.33v2.44c0 .67.19 1 .72 1a1.89 1.89 0 0 0 .55-.07v1.07a3.07 3.07 0 0 1-1 .14 1.61 1.61 0 0 1-1.21-.46 2.2 2.2 0 0 1-.43-1.54v-2.6h-.8v-1.05h.8v-1.23zM150.26 310a4.23 4.23 0 0 1-1.57.28 2.65 2.65 0 0 1-2.85-2.82 2.86 2.86 0 0 1 3.08-3 3.44 3.44 0 0 1 1.35.27l-.25 1a2.54 2.54 0 0 0-1.06-.21 1.79 1.79 0 0 0 0 3.58 2.76 2.76 0 0 0 1.1-.22zM154.41 310.19l-.09-.62a2.09 2.09 0 0 1-1.64.74 1.64 1.64 0 0 1-1.74-1.65c0-1.4 1.24-2.1 3.28-2.09v-.09c0-.36-.14-1-1.12-1a2.92 2.92 0 0 0-1.49.41l-.27-.91a4 4 0 0 1 2-.49 2.07 2.07 0 0 1 2.28 2.33v2a10 10 0 0 0 .08 1.33zm-.18-2.71c-1 0-1.93.19-1.93 1a.73.73 0 0 0 .79.8 1.12 1.12 0 0 0 1.09-.76.87.87 0 0 0 0-.31zM162 308.53c0 .66 0 1.2.05 1.66h-1.23l-.07-.85a2 2 0 0 1-1.78 1c-1 0-1.93-.6-1.93-2.41v-3.25h1.4v3c0 .92.3 1.51 1 1.51a1.17 1.17 0 0 0 1.07-.75 1.14 1.14 0 0 0 .08-.43v-3.34H162zM163.48 308.9a3.16 3.16 0 0 0 1.42.4c.61 0 .89-.25.89-.61s-.23-.57-.91-.81c-1.08-.38-1.54-1-1.53-1.62a1.86 1.86 0 0 1 2.09-1.74 3.26 3.26 0 0 1 1.47.33l-.27 1a2.56 2.56 0 0 0-1.17-.32c-.5 0-.78.24-.78.58s.27.53 1 .78c1 .36 1.47.87 1.48 1.69 0 1-.79 1.73-2.25 1.73a3.5 3.5 0 0 1-1.68-.39zM169.28 307.81a1.5 1.5 0 0 0 1.7 1.43 4.16 4.16 0 0 0 1.54-.25l.2 1a5.22 5.22 0 0 1-1.93.34 2.61 2.61 0 0 1-2.85-2.8 2.74 2.74 0 0 1 2.7-3 2.41 2.41 0 0 1 2.39 2.7 2.79 2.79 0 0 1-.05.59zm2.43-1a1.19 1.19 0 0 0-1.15-1.35 1.36 1.36 0 0 0-1.28 1.35zM179.63 310.19l-.09-.62a2.06 2.06 0 0 1-1.63.74 1.64 1.64 0 0 1-1.74-1.65c0-1.4 1.24-2.1 3.28-2.09v-.09c0-.36-.15-1-1.12-1a2.9 2.9 0 0 0-1.49.41l-.28-.91a4 4 0 0 1 2-.49 2.07 2.07 0 0 1 2.28 2.33v2a8.54 8.54 0 0 0 .08 1.33zm-.18-2.71c-1 0-1.94.19-1.94 1a.74.74 0 0 0 .8.8 1.12 1.12 0 0 0 1.09-.76 1.18 1.18 0 0 0 0-.31zM182.29 306.3v-1.65h1.22l.07.83a2 2 0 0 1 1.76-1c1 0 2 .63 2 2.38v3.29h-1.39v-3.13c0-.8-.3-1.4-1.06-1.4a1.17 1.17 0 0 0-1.09.82 1.29 1.29 0 0 0-.06.45v3.26h-1.41zM191.91 310.19l-.09-.62a2.06 2.06 0 0 1-1.64.74 1.65 1.65 0 0 1-1.74-1.65c0-1.4 1.24-2.1 3.29-2.09v-.09c0-.36-.15-1-1.13-1a3 3 0 0 0-1.49.41l-.27-.91a4 4 0 0 1 2-.49 2.07 2.07 0 0 1 2.28 2.33v2a10 10 0 0 0 .08 1.33zm-.18-2.71c-1 0-1.93.19-1.93 1a.73.73 0 0 0 .79.8 1.05 1.05 0 0 0 1.14-1.07zM194.58 302.11H196v8.08h-1.41zM198.38 304.65l1 3c.11.34.22.76.3 1.08.09-.32.19-.73.29-1.1l.87-3h1.5l-1.34 3.79c-.76 2.07-1.27 3-1.93 3.56a2.88 2.88 0 0 1-1.47.72l-.32-1.18a2.52 2.52 0 0 0 .82-.39 2.39 2.39 0 0 0 .76-.88.51.51 0 0 0 .09-.25.59.59 0 0 0-.08-.27l-2-5.08zM203 308.9a3.16 3.16 0 0 0 1.42.4c.62 0 .89-.25.89-.61s-.23-.57-.91-.81c-1.08-.38-1.53-1-1.52-1.62a1.86 1.86 0 0 1 2.09-1.74 3.29 3.29 0 0 1 1.47.33l-.28 1a2.56 2.56 0 0 0-1.17-.32c-.5 0-.77.24-.77.58s.26.53 1 .78c1 .36 1.46.87 1.47 1.69 0 1-.78 1.73-2.25 1.73a3.53 3.53 0 0 1-1.68-.39zM209.28 303.1a.79.79 0 0 1-1.57 0 .75.75 0 0 1 .79-.76.74.74 0 0 1 .78.76zm-1.49 7.09v-5.54h1.41v5.54zM210.64 308.9a3.16 3.16 0 0 0 1.42.4c.61 0 .89-.25.89-.61s-.23-.57-.91-.81c-1.08-.38-1.54-1-1.53-1.62a1.86 1.86 0 0 1 2.09-1.74 3.26 3.26 0 0 1 1.47.33l-.27 1a2.56 2.56 0 0 0-1.17-.32c-.5 0-.78.24-.78.58s.27.53 1 .78c1 .36 1.47.87 1.48 1.69 0 1-.79 1.73-2.25 1.73a3.5 3.5 0 0 1-1.68-.39zM223.07 307.37a2.75 2.75 0 0 1-2.85 2.94 2.68 2.68 0 0 1-2.77-2.85 2.74 2.74 0 0 1 2.87-2.94 2.66 2.66 0 0 1 2.75 2.85zm-4.17.05c0 1.07.52 1.88 1.37 1.88s1.35-.79 1.35-1.9c0-.86-.38-1.85-1.34-1.85s-1.38.95-1.38 1.87zM224.38 310.19v-4.49h-.75v-1.05h.75v-.24a2.58 2.58 0 0 1 .67-1.89 2.15 2.15 0 0 1 1.44-.53 2.69 2.69 0 0 1 .9.14l-.1 1.08a1.55 1.55 0 0 0-.59-.11c-.7 0-.93.58-.93 1.27v.28H227v1.05h-1.2v4.49zM126.13 318v-1.64h1.2l.06.81a1.94 1.94 0 0 1 1.71-.94 1.6 1.6 0 0 1 1.54 1 2.14 2.14 0 0 1 .68-.69 1.83 1.83 0 0 1 1.11-.33c.92 0 1.86.63 1.86 2.4v3.26h-1.37v-3.06c0-.92-.32-1.46-1-1.46a1.05 1.05 0 0 0-1 .74 1.64 1.64 0 0 0-.07.46v3.32h-1.37v-3.2c0-.78-.3-1.32-.95-1.32a1.09 1.09 0 0 0-1 .79 1.17 1.17 0 0 0-.08.46v3.27h-1.37zM138.9 321.85l-.1-.61a2.06 2.06 0 0 1-1.64.74 1.65 1.65 0 0 1-1.74-1.65c0-1.4 1.24-2.1 3.29-2.09v-.09c0-.37-.15-1-1.13-1a3 3 0 0 0-1.49.41l-.27-.91a4 4 0 0 1 2-.49 2.07 2.07 0 0 1 2.29 2.33v2a8.46 8.46 0 0 0 .08 1.33zm-.19-2.7c-1 0-1.93.19-1.93 1a.74.74 0 0 0 .8.8 1.15 1.15 0 0 0 1.09-.76 1.2 1.2 0 0 0 0-.31zM143.05 314.77a.74.74 0 0 1-.8.75.74.74 0 0 1-.77-.75.79.79 0 0 1 1.57 0zm-1.49 7.08v-5.53H143v5.53zM144.47 318c0-.63 0-1.17-.05-1.64h1.23l.07.83a2 2 0 0 1 1.77-1c1 0 2 .63 2 2.38v3.28h-1.39v-3.12c0-.8-.3-1.4-1.06-1.4a1.16 1.16 0 0 0-1.09.82 1.26 1.26 0 0 0-.06.45v3.25h-1.41zM152.52 314.74v1.58h1.33v1h-1.33v2.45c0 .67.19 1 .72 1a2.31 2.31 0 0 0 .55-.07v1.07a3.07 3.07 0 0 1-1 .14 1.6 1.6 0 0 1-1.21-.46 2.24 2.24 0 0 1-.43-1.55v-2.6h-.8v-1h.8v-1.25zM155.83 319.48a1.51 1.51 0 0 0 1.71 1.43 4.11 4.11 0 0 0 1.53-.25l.21 1a5.08 5.08 0 0 1-1.93.35 2.63 2.63 0 0 1-2.86-2.8 2.74 2.74 0 0 1 2.71-3 2.41 2.41 0 0 1 2.38 2.7 4 4 0 0 1 0 .59zm2.44-1a1.19 1.19 0 0 0-1.15-1.35 1.37 1.37 0 0 0-1.29 1.35zM160.71 318v-1.64h1.23l.06.83a2 2 0 0 1 1.76-1c1 0 2 .63 2 2.38v3.28h-1.4v-3.12c0-.8-.3-1.4-1.06-1.4a1.17 1.17 0 0 0-1.09.82 1.26 1.26 0 0 0-.06.45v3.25h-1.41zM170.33 321.85l-.09-.61a2.06 2.06 0 0 1-1.64.74 1.65 1.65 0 0 1-1.74-1.65c0-1.4 1.24-2.1 3.29-2.09v-.09c0-.37-.15-1-1.13-1a3 3 0 0 0-1.49.41l-.27-.91a4 4 0 0 1 2-.49 2.07 2.07 0 0 1 2.29 2.33v2a8.46 8.46 0 0 0 .08 1.33zm-.18-2.7c-1 0-1.93.19-1.93 1a.74.74 0 0 0 .8.8 1.15 1.15 0 0 0 1.09-.76 1.2 1.2 0 0 0 0-.31zM173 318c0-.63 0-1.17-.05-1.64h1.23l.07.83a2 2 0 0 1 1.77-1c1 0 2 .63 2 2.38v3.28h-1.4v-3.12c0-.8-.29-1.4-1.05-1.4a1.16 1.16 0 0 0-1.09.82 1.26 1.26 0 0 0-.06.45v3.25H173zM183.58 321.68a4 4 0 0 1-1.58.32 2.67 2.67 0 0 1-2.86-2.82 2.87 2.87 0 0 1 3.08-3 3.46 3.46 0 0 1 1.36.26l-.25 1.05a2.51 2.51 0 0 0-1.06-.22 1.66 1.66 0 0 0-1.7 1.8 1.64 1.64 0 0 0 1.7 1.78 2.78 2.78 0 0 0 1.1-.21zM185.5 319.48a1.5 1.5 0 0 0 1.7 1.43 4.16 4.16 0 0 0 1.54-.25l.2 1a5 5 0 0 1-1.94.34 2.62 2.62 0 0 1-2.85-2.8 2.74 2.74 0 0 1 2.7-3 2.41 2.41 0 0 1 2.39 2.7 4 4 0 0 1 0 .59zm2.43-1a1.19 1.19 0 0 0-1.15-1.35 1.37 1.37 0 0 0-1.28 1.35zM194.22 314.77a.78.78 0 1 1-.78-.76.74.74 0 0 1 .78.76zm-1.49 7.08v-5.53h1.41v5.53zM195.58 320.57a3.16 3.16 0 0 0 1.42.4c.61 0 .89-.25.89-.62s-.23-.57-.91-.81c-1.08-.37-1.54-1-1.53-1.61a1.85 1.85 0 0 1 2.09-1.74 3.26 3.26 0 0 1 1.47.33l-.27 1a2.44 2.44 0 0 0-1.17-.32c-.5 0-.78.24-.78.58s.27.52 1 .77c1 .37 1.47.88 1.48 1.7 0 1-.79 1.73-2.25 1.73a3.58 3.58 0 0 1-1.69-.39zM200.32 320.57a3.16 3.16 0 0 0 1.42.4c.62 0 .89-.25.89-.62s-.23-.57-.91-.81c-1.08-.37-1.54-1-1.52-1.61a1.85 1.85 0 0 1 2.09-1.74 3.21 3.21 0 0 1 1.46.33l-.27 1a2.44 2.44 0 0 0-1.17-.32c-.5 0-.77.24-.77.58s.26.52 1 .77c1 .37 1.47.88 1.48 1.7 0 1-.78 1.73-2.25 1.73a3.53 3.53 0 0 1-1.68-.39zM210.09 320.19v1.66h-1.22l-.07-.84a2 2 0 0 1-1.78 1c-1 0-1.93-.61-1.93-2.41v-3.25h1.4v3c0 .92.29 1.51 1 1.51a1.18 1.18 0 0 0 1.15-1.18v-3.34h1.4zM212.59 319.48a1.51 1.51 0 0 0 1.71 1.43 4.11 4.11 0 0 0 1.53-.25l.21 1a5.08 5.08 0 0 1-1.93.35 2.63 2.63 0 0 1-2.86-2.8 2.74 2.74 0 0 1 2.71-3 2.42 2.42 0 0 1 2.39 2.7 3.69 3.69 0 0 1 0 .59zm2.44-1a1.19 1.19 0 0 0-1.15-1.35 1.37 1.37 0 0 0-1.29 1.35zM217.41 320.57a3.13 3.13 0 0 0 1.42.4c.61 0 .88-.25.88-.62s-.22-.57-.91-.81c-1.08-.37-1.53-1-1.52-1.61a1.85 1.85 0 0 1 2.09-1.74 3.26 3.26 0 0 1 1.47.33l-.27 1a2.47 2.47 0 0 0-1.17-.32c-.5 0-.78.24-.78.58s.26.52 1 .77c1 .37 1.46.88 1.48 1.7 0 1-.79 1.73-2.25 1.73a3.55 3.55 0 0 1-1.69-.39z"/><g class="cls-6"><path class="cls-5" d="M109.18 84a11.69 11.69 0 1 1 11.68-11.69A11.7 11.7 0 0 1 109.18 84zm0-21.93a10.25 10.25 0 1 0 10.24 10.24 10.26 10.26 0 0 0-10.24-10.2z"/></g><g class="cls-6"><path class="cls-5" d="M109.18 77.56a5.21 5.21 0 1 1 5.2-5.21 5.22 5.22 0 0 1-5.2 5.21zm0-9a3.77 3.77 0 1 0 3.76 3.76 3.77 3.77 0 0 0-3.76-3.73z"/></g><path class="cls-5" d="M127.34 67.71V53.84a2.92 2.92 0 1 0-2.57-5.08l-12.72-7.35a3.26 3.26 0 0 0 .11-.78 2.93 2.93 0 1 0-5.86 0 2.83 2.83 0 0 0 .12.78l-12.73 7.35a2.86 2.86 0 0 0-1.85-.68 2.92 2.92 0 0 0-.71 5.76v13.87a2.93 2.93 0 1 0 2.69 5l12.6 7.29a2.61 2.61 0 0 0-.12.79 2.93 2.93 0 1 0 5.75-.79l12.59-7.27a3 3 0 0 0 2 .77 2.93 2.93 0 0 0 .72-5.77zm.77-16.7a1.49 1.49 0 1 1-1.49-1.49 1.5 1.5 0 0 1 1.49 1.48zm-18.88-11.87a1.5 1.5 0 0 1 1.5 1.49 2 2 0 0 1 0 .24.19.19 0 0 1 0 .08l-.06.21a1.17 1.17 0 0 0 0 .11l-.09.17-.09.12-.14.15a1.2 1.2 0 0 1-.21.17 1.47 1.47 0 0 1-1.64 0l-.12-.1a1.24 1.24 0 0 1-.25-.26.18.18 0 0 1-.05-.07.78.78 0 0 1-.11-.2v-.07a2.25 2.25 0 0 1-.08-.24 1.45 1.45 0 0 1 0-.3 1.49 1.49 0 0 1 1.34-1.5zM90.35 51a1.5 1.5 0 1 1 1.49 1.5 1.49 1.49 0 0 1-1.49-1.5zm3 19.74a1.51 1.51 0 0 1-.87 1.16 1.55 1.55 0 0 1-.61.13 1.48 1.48 0 0 1-.71-2.79 1.44 1.44 0 0 1 1.43 0 1.49 1.49 0 0 1 .78 1.3 1.23 1.23 0 0 1-.05.21zm15.91 11.52a1.5 1.5 0 0 1-1.49-1.5 1.48 1.48 0 0 1 .73-1.24 1.41 1.41 0 0 1 .76-.22 1.47 1.47 0 0 1 .77.22 1.5 1.5 0 0 1 .72 1.24 1.5 1.5 0 0 1-1.52 1.51zm14.46-11.72a3 3 0 0 0 .16 1l-12.52 7.23a2.91 2.91 0 0 0-4.19 0L94.61 71.5a2.75 2.75 0 0 0 .17-1 2.94 2.94 0 0 0-2.22-2.84V53.84A2.93 2.93 0 0 0 94.78 51a2.87 2.87 0 0 0-.22-1.09l12.57-7.26a2.91 2.91 0 0 0 4.21 0l12.57 7.26a2.87 2.87 0 0 0-.22 1.09 2.93 2.93 0 0 0 2.21 2.83v13.88a2.93 2.93 0 0 0-2.21 2.84zm2.9 1.46a1.5 1.5 0 0 1-.6-.13 1.48 1.48 0 0 1-.87-1.16 1.23 1.23 0 0 1 0-.2 1.5 1.5 0 0 1 1.49-1.49 1.46 1.46 0 0 1 .72.19 1.48 1.48 0 0 1 .77 1.3 1.49 1.49 0 0 1-1.51 1.49z"/><path class="cls-5" d="M123.49 61.83l-2.74-6.14-1.48 2a17.72 17.72 0 0 0-7.14-2.91 2.92 2.92 0 0 0-5.77 0 17.84 17.84 0 0 0-7.21 2.88l-1.44-2L95 61.83l6.68-.7-1.68-2.29a16.19 16.19 0 0 1 6.48-2.6 2.91 2.91 0 0 0 5.51 0 16.35 16.35 0 0 1 6.44 2.63l-1.62 2.24zm-14.25-5a1.5 1.5 0 1 1 1.49-1.49 1.49 1.49 0 0 1-1.49 1.44zM256.14 63.02l5.65 3.26-5.65 3.26v-6.52zM241.15 86.63l-.04-13.06h1.4l.03 11.66h1.86l-.04-11.54h1.4l.04 12.93-4.65.01z"/><path class="cls-5" d="M243.41 74.42A9.45 9.45 0 0 1 234 65a9.45 9.45 0 0 1 9.42-9.47 9.45 9.45 0 0 1 0 18.89zm-8-9.43a8.07 8.07 0 0 0 8 8 8 8 0 0 0 0-16.09 8.06 8.06 0 0 0-8 8.06z"/><path class="cls-5" d="M244.83 66.47a2.82 2.82 0 0 0-2.16-.28 2.77 2.77 0 0 0-1.67 1.33 2.84 2.84 0 0 0 2.46 4.26 2.84 2.84 0 0 0 1.42-5.31zm.44 3.53a2.15 2.15 0 1 1-.79-2.93 2.14 2.14 0 0 1 .79 2.93z"/><path class="cls-5" d="M244.48 67.07a2.15 2.15 0 1 0 .79 2.93 2.14 2.14 0 0 0-.79-2.93zm.19 2.58a1.45 1.45 0 1 1-1.67-2.12 1.73 1.73 0 0 1 .38 0 1.46 1.46 0 0 1 1.26 2.17z"/><path class="cls-5" d="M264.77 76.64h-42.72l21.36-37 10.64 18.43-1.21.7-9.43-16.34-18.94 32.82h37.89l-4.55-7.87 1.21-.7 5.75 9.96z"/><path class="cls-5" d="M242.71 49.35h1.4v14.11h-1.4zM291.39 204.55l-3.7-1.48c-1.38-.56-2.76-1.11-4.13-1.69a1.21 1.21 0 0 0-1 0c-2.44 1-4.89 2-7.33 3l-.48.19v-4.56a1.17 1.17 0 0 1 .84-1.32c1.18-.49 2.32-1.1 3.49-1.62a.6.6 0 0 0 .4-.66v-11c0-.44-.07-.55-.52-.43-4.87 1.25-9.75 2.48-14.63 3.74-.41.11-.51.06-.51-.38v-4.94a.73.73 0 0 1 .44-.76c1.84-1 3.67-2 5.51-3a.57.57 0 0 0 .35-.63 2.6 2.6 0 0 1 1.47-2.72 2.71 2.71 0 0 1 3.08.3.43.43 0 0 0 .58 0c1.27-.71 2.54-1.41 3.83-2.09a.64.64 0 0 0 .4-.67v-10a1.32 1.32 0 0 1 .28-.85q1.56-2.1 3.09-4.24c.21-.3.31-.3.52 0 1.05 1.47 2.11 2.92 3.18 4.37a.91.91 0 0 1 .19.57v10.61c0 .35-.11.41-.43.41-1 0-1 0-1-1v-9.32a1.58 1.58 0 0 0-.35-1c-.57-.74-1.12-1.51-1.67-2.28-.15-.23-.24-.22-.39 0-.61.85-1.22 1.7-1.85 2.53a1.06 1.06 0 0 0-.15.69v10.35a.63.63 0 0 1-.39.68c-1.5.79-3 1.62-4.47 2.42a.55.55 0 0 0-.36.63 2.59 2.59 0 0 1-1.43 2.73 2.69 2.69 0 0 1-3.09-.27.56.56 0 0 0-.72 0l-4.82 2.63a.57.57 0 0 0-.36.59v2.91l8.26-2.1c2.31-.58 4.62-1.16 6.92-1.77.37-.1.47 0 .46.35v13.81a.57.57 0 0 1-.38.62c-1.32.6-2.63 1.24-4 1.85a.52.52 0 0 0-.38.57v2c.22.07.38-.07.55-.13l5.94-2.41a1 1 0 0 1 .83 0c2 .83 4 1.63 6 2.46.36.15.47.11.44-.3s0-1.09 0-1.64a.49.49 0 0 0-.34-.54c-1.32-.6-2.63-1.24-3.95-1.85a.6.6 0 0 1-.42-.65v-13.75c0-.41.08-.49.48-.38l14.64 3.73.52.11v-3a.45.45 0 0 0-.29-.43q-3.17-1.71-6.31-3.45c-.29-.16-.4-.09-.54.18-.29.57-.62 1.13-1 1.74l-3.33-5.41h6.33c-.28.51-.58 1.11-.92 1.66-.21.33-.18.46.17.65 2.3 1.23 4.57 2.49 6.86 3.72a.68.68 0 0 1 .42.71v5c0 .38-.1.42-.43.33L287.27 185c-.59-.15-.59-.15-.59.47v10.87a.67.67 0 0 0 .47.72c1.29.59 2.57 1.21 3.86 1.81a.57.57 0 0 1 .4.61c-.03 1.68-.02 3.35-.02 5.07zm-18.53-24.37a1.39 1.39 0 0 0 1.44-1.4 1.44 1.44 0 0 0-2.88 0 1.4 1.4 0 0 0 1.44 1.4zM167.47 284.54l5.22 4.02-6.09 2.52.87-6.54z"/><path class="cls-5" d="M153.58 292.25v-11.11l9.45-5.4h12.57a2.28 2.28 0 1 1 0 4.56h-.6l2.66.84 11.38-4.4a2.07 2.07 0 0 1 1.89 3.66l-13.64 9.08-.78-1.18 13.64-9.08a.66.66 0 0 0-.6-1.16l-11.85 4.57-11.87-3.74h9.81a.87.87 0 0 0 0-1.74h-12.23L155 282v7.94c6.79-3.59 7-3.59 7.18-3.59s.2 0 7.63 1l-.18 1.4c-4-.52-6.71-.86-7.35-.94-.82.37-5.05 2.58-7.66 4z"/><path class="cls-5" d="M190.71 268.33V266.57h-.05v-.2l1.2-1-.12-.44a9.6 9.6 0 0 0-.87-2.14l-.23-.4-1.57.15a7.84 7.84 0 0 0-1.49-1.5l.14-1.58-.39-.23a9.39 9.39 0 0 0-2.12-.88l-.44-.12-1 1.23a7.46 7.46 0 0 0-2.11 0l-1-1.23-.44.12a9.39 9.39 0 0 0-2.12.88l-.4.23.15 1.58a8.19 8.19 0 0 0-1.5 1.5l-1.56-.15-.23.4a9.6 9.6 0 0 0-.87 2.14l-.12.44 1.2 1v1.93l-1.2 1 .12.44a9.6 9.6 0 0 0 .87 2.14l.23.4 1.57-.14a8.08 8.08 0 0 0 1.49 1.49l-.14 1.59.39.22a9.39 9.39 0 0 0 2.12.88l.44.12 1-1.22a7.46 7.46 0 0 0 2.11 0l1 1.22.44-.12a9.21 9.21 0 0 0 2.12-.88l.4-.22-.15-1.59a8.46 8.46 0 0 0 1.5-1.49l1.56.14.23-.4a9.6 9.6 0 0 0 .87-2.14l.12-.44zm-.81 2.48l-1.46-.13-.23.34a6.7 6.7 0 0 1-1.72 1.72l-.34.23.14 1.48a9 9 0 0 1-1 .4l-.95-1.14-.41.07a6.21 6.21 0 0 1-2.43 0l-.4-.07-.95 1.14a7.59 7.59 0 0 1-1-.4l.13-1.48-.34-.23a6.86 6.86 0 0 1-1.72-1.72l-.23-.34-1.46.13a8.53 8.53 0 0 1-.4-1l1.12-.93-.07-.4a7.35 7.35 0 0 1-.12-1.14v-.07a6.24 6.24 0 0 1 .11-1l.07-.41-1.12-.93a8.53 8.53 0 0 1 .4-1l1.46.14.23-.35A6.51 6.51 0 0 1 179 262l.34-.24-.14-1.47a8.44 8.44 0 0 1 1-.41l.94 1.15.41-.08a6.62 6.62 0 0 1 2.43 0l.41.08.94-1.15a8.44 8.44 0 0 1 1 .41l-.14 1.47.34.24a6.54 6.54 0 0 1 1.72 1.72l.23.34 1.46-.14a8.53 8.53 0 0 1 .4 1l-1.12.93.07.41a6.13 6.13 0 0 1 .11 1v.07a7.35 7.35 0 0 1-.12 1.14l-.07.4 1.12.93a8.53 8.53 0 0 1-.43 1.01z"/><path class="cls-5" d="M187.49 267.34v-.05a4.74 4.74 0 0 0-9.47 0v.05a4.74 4.74 0 0 0 9.47 0zm-8.07.05v-.07a3.33 3.33 0 0 1 6.65 0v.07a3.33 3.33 0 0 1-6.65 0zM174.27 257.44v-1.24l.81-.67-.12-.44a7.11 7.11 0 0 0-.62-1.53l-.23-.4-1.11.1a5.6 5.6 0 0 0-.91-.91l.1-1.12-.39-.23a7 7 0 0 0-1.52-.63l-.44-.12-.72.87a5.57 5.57 0 0 0-1.29 0l-.72-.87-.44.12a7 7 0 0 0-1.52.63l-.4.23.11 1.12a5.6 5.6 0 0 0-.91.91l-1.11-.1-.23.39a6.45 6.45 0 0 0-.62 1.54l-.12.44.81.67v1.23l-.81.67.12.44a7.4 7.4 0 0 0 .62 1.54l.23.39 1.11-.1a5.6 5.6 0 0 0 .91.91l-.11 1.12.4.23a7 7 0 0 0 1.52.63l.44.12.72-.87a5.57 5.57 0 0 0 1.29 0l.72.87.44-.12a7 7 0 0 0 1.52-.63l.39-.23-.1-1.12a5.6 5.6 0 0 0 .91-.91l1.11.11.23-.4a7.4 7.4 0 0 0 .62-1.54l.12-.44zm-1 1.55l-1-.09-.23.34a4.41 4.41 0 0 1-1.14 1.14l-.34.23.09 1-.37.15-.65-.77-.4.07a4 4 0 0 1-1.61 0l-.41-.07-.64.77-.37-.15.09-1-.34-.23a4.41 4.41 0 0 1-1.14-1.14l-.24-.34-1 .09c-.06-.12-.11-.25-.16-.38l.76-.63-.07-.41a3.56 3.56 0 0 1 0-1.5l.07-.4-.76-.64c.05-.13.1-.26.16-.38l1 .09.23-.34a4.41 4.41 0 0 1 1.14-1.14l.34-.23-.09-1 .37-.16.64.77.41-.07a4.36 4.36 0 0 1 1.61 0l.4.07.65-.77.37.16-.09 1 .34.23a4.41 4.41 0 0 1 1.14 1.14l.23.34 1-.09c.05.12.11.25.15.38l-.76.64.08.4a4.05 4.05 0 0 1 0 1.5l-.08.41.76.63c.01.13-.05.26-.1.39z"/><path class="cls-5" d="M167.14 254.33a2.87 2.87 0 0 0-1.21 3.88 2.87 2.87 0 0 0 2.55 1.54 2.79 2.79 0 0 0 1.33-.33 2.87 2.87 0 1 0-2.67-5.09zm2 3.84a1.45 1.45 0 0 1-2-.62 1.39 1.39 0 0 1-.1-1.11 1.42 1.42 0 0 1 .71-.86 1.46 1.46 0 1 1 1.36 2.59zM89.33 196.75v-.11-.06a.19.19 0 0 0 0-.07l-5.76-9.13a7.67 7.67 0 0 0-2.25-14.73V172a1.41 1.41 0 0 0 0-.35v-5.51c0-2.72-7.55-3.43-11.54-3.43-.73 0-1.57 0-2.46.08a2.75 2.75 0 0 0-5.43.59v.17c-2.08.53-3.65 1.35-3.65 2.59v5.51a1.63 1.63 0 0 0 0 .31v5.51a1.77 1.77 0 0 0 0 .23.81.81 0 0 0 0 .16v5.32l-8 13.28a.43.43 0 0 0 0 .07v.08a.17.17 0 0 0 0 .07v7.8a.68.68 0 0 0 .67.68h38a.68.68 0 0 0 .67-.68v-7.71zm-29.84-28.92c2.35 1.29 7.24 1.69 10.19 1.69s7.84-.4 10.19-1.69v3.77c0 .62-3.47 2.08-10.19 2.08s-10.19-1.46-10.19-2.08zm14.74 12.72v-.37a5.55 5.55 0 0 1 .08-1 6.33 6.33 0 0 1 5.57-5.29h1.35a6.32 6.32 0 0 1 1.52 12.22 7 7 0 0 1-1.38.34h-.14a5.17 5.17 0 0 1-.68 0 4.92 4.92 0 0 1-.67 0 6.21 6.21 0 0 1-2.23-.66 6.52 6.52 0 0 1-1.46-1.05 6.28 6.28 0 0 1-1.96-4.19zM69.68 175a40 40 0 0 0 5.57-.4 7.64 7.64 0 0 0-2.33 4.71 31.11 31.11 0 0 1-3.24.16c-6.72 0-10.19-1.46-10.19-2.08v-4.08c2.35 1.33 7.24 1.69 10.19 1.69zm-10.19 8.28v-4.15c2.35 1.3 7.24 1.69 10.19 1.69 1.07 0 2.15 0 3.21-.15a7.63 7.63 0 0 0 1.72 4.33 33.37 33.37 0 0 1-4.93.37c-6.7 0-10.17-1.45-10.19-2.08zm5.05-21.38a1.4 1.4 0 0 1 1.31.91 1.63 1.63 0 0 1 .09.49 1.41 1.41 0 0 1-1.4 1.4 1.37 1.37 0 0 1-.82-.27 1.4 1.4 0 0 1-.58-1.13.49.49 0 0 1 0-.12 1.4 1.4 0 0 1 1.4-1.25zm-2.33 2.85a2.75 2.75 0 0 0 5-.7c.78-.05 1.61-.08 2.5-.08 6.72 0 10.19 1.46 10.19 2.09s-3.47 2.08-10.19 2.08-10.19-1.46-10.19-2.08c-.03-.29.89-.83 2.69-1.28zm-4.06 20.95v3.45c0 1.84 3.42 2.7 6.3 3.09l.18-1.33c-3.92-.54-5.14-1.48-5.14-1.76v-4.12c2.35 1.3 7.24 1.69 10.19 1.69a35.26 35.26 0 0 0 6.12-.55 7.68 7.68 0 0 0 4.07 1.62v1.36c0 .53-2.57 1.69-7.57 2v-2.25l-5.21 3 5.21 3v-2.42c4-.26 8.92-1.15 8.92-3.34v-1.36a9.27 9.27 0 0 0 .92-.14l5.3 8.41H51.88zM88 203.8H51.36v-6.37H88z"/><path class="cls-5" d="M59.33 201.29H80a.68.68 0 0 0 0-1.35H59.33a.68.68 0 0 0 0 1.35zM78.43 180.77l1.44 1.44 1.35 1.34 2 2 2.78-2.86-4.75-4.69a4.59 4.59 0 0 0 0-.8 2.6 2.6 0 0 0-.68-1.44 2.45 2.45 0 0 0-.67-.48 3.32 3.32 0 0 0-1.65-.34H78L76.9 176l1.15 1.15-.42.42-1.15-1.15-1.09 1.09v.25a3.69 3.69 0 0 0 .17 1.24 2.71 2.71 0 0 0 .65 1.07l.16.15a3.14 3.14 0 0 0 2.06.55zm.48-1.42l-.34.05a1.94 1.94 0 0 1-1.43-.3 1.25 1.25 0 0 1-.26-.4 1.11 1.11 0 0 0 1.54 0l.58-.7.1-.1a1.15 1.15 0 0 0 .09-1.53 1.05 1.05 0 0 1 .64.87 1.1 1.1 0 0 1 0 .18v.97l.46.46.89.88 2.87 2.88-.92.92-2-2-1.35-1.34-.83-.83z"/></g></svg>