<svg id="Layer_1" data-name="Layer 1" xmlns="http://www.w3.org/2000/svg" width="100" height="100" viewBox="0 0 100 100"><title>always-on-learning</title><path d="M67.48,92.85V94.9H65.89q-21.75,0-43.52,0a1.6,1.6,0,0,0-1.84,1.23A6,6,0,0,1,14.21,100a6.12,6.12,0,0,1-1.54-11.73c.37-.15.76-.26,1.17-.4V10.53h-5L14.93,0l6,10.42H16V22.48H61.26a19.41,19.41,0,0,1,2.29-3.33,6,6,0,0,1,9.75,2.39,1.26,1.26,0,0,0,1.47,1c3,0,6,0,9.23,0v-10c-3.06-1.13-3.53-1.6-5.08-5H32.66v-2h1.5q21.63,0,43.27,0c1,0,1.65-.11,2.06-1.29A5.94,5.94,0,0,1,85.86.43,6.21,6.21,0,0,1,91.1,5.71a6.1,6.1,0,0,1-3.85,6.46c-.34.13-.68.24-1.06.37V88.92h5L85.07,99.45,79,89h4.89V77.4H82.65q-21.47,0-42.91,0a1.35,1.35,0,0,0-1.56,1.08,6,6,0,0,1-11.42-.08,1.16,1.16,0,0,0-1.36-1c-2.79,0-5.57,0-8.36,0-.87,0-1.12.28-1.11,1.12q.06,4.19,0,8.36a1.13,1.13,0,0,0,.94,1.3,5.37,5.37,0,0,1,3.71,3.63c.3,1,.82,1.07,1.68,1.07q16.35,0,32.7,0H67.48ZM83.92,40.19V24.7c-3.11,0-6.13,0-9.16,0a1.28,1.28,0,0,0-1.47,1,6,6,0,0,1-9.56,2.52,20.19,20.19,0,0,1-2.51-3.46H16.06V40.19c3.1,0,6.09,0,9.07,0A1.73,1.73,0,0,0,27.06,39a5.61,5.61,0,0,1,5.38-3.42,5.68,5.68,0,0,1,5.49,3.45,1.68,1.68,0,0,0,1.82,1.15q21.39,0,42.78,0Zm0,19.62H82.49c-8.36,0-16.71,0-25.07,0A1.51,1.51,0,0,0,55.67,61a6,6,0,0,1-11.25,0c-.34-1-.83-1.16-1.76-1.15-8.4,0-16.8,0-25.19,0-.48,0-.95,0-1.42.07V75.37c3.14,0,6.17,0,9.2,0a1.34,1.34,0,0,0,1.56-1.07,6,6,0,0,1,10.33-1.81,16.58,16.58,0,0,1,1.55,2.78H84Zm0-17.54H38.67c-1.13,3.66-3,5.51-6,5.48a8.1,8.1,0,0,1-3.46-1c-1.74-.91-2.43-2.65-2.82-4.45H16V57.65H44c1.17-3.26,3-4.92,5.74-4.88a8.5,8.5,0,0,1,3.49.85,5.76,5.76,0,0,1,2.87,4H83.94ZM67.62,19.59a4,4,0,1,0,4,4A4.13,4.13,0,0,0,67.62,19.59ZM46.09,58.78a4,4,0,1,0,3.91-4A4,4,0,0,0,46.09,58.78ZM32.51,37.72a4,4,0,1,0,4,4A4,4,0,0,0,32.51,37.72Zm-.06,42.64a4,4,0,1,0-4-4A4,4,0,0,0,32.45,80.36ZM85.06,10.47a4,4,0,0,0,4-3.94,4,4,0,1,0-8,0A4,4,0,0,0,85.06,10.47ZM14.88,89.9a4,4,0,1,0,4,3.92A3.95,3.95,0,0,0,14.88,89.9Z"/></svg>