<svg xmlns="http://www.w3.org/2000/svg" width="350" height="350"><defs><style>.cls-3{fill:#df9926}.cls-4{fill:#fff}.cls-10,.cls-5,.cls-6,.cls-7,.cls-8,.cls-9{fill:none;stroke:#fff}.cls-10,.cls-5,.cls-8,.cls-9{stroke-miterlimit:10}.cls-5,.cls-6,.cls-7{stroke-width:1.5px}.cls-6,.cls-7{stroke-miterlimit:22.93}.cls-8,.cls-9{stroke-width:1.7px}.cls-10,.cls-9{stroke-linecap:square}.cls-10{stroke-width:1.8px}</style></defs><g id="Layer_3" data-name="Layer 3"><path d="M220.91 134.66l-5.57-5.57 80.59-80.59a175 175 0 0 0-241.86 0l82 82-5.61 5.5-82-82a175 175 0 0 0 0 241.86l80.59-80.59 5.57 5.57-80.55 80.66a175 175 0 0 0 241.86 0l-79.22-79.21 5.58-5.58 79.21 79.22a175 175 0 0 0 0-241.86z" fill="#eac8a5"/><circle id="_Ellipse_" data-name="&lt;Ellipse&gt;" cx="175" cy="175" r="167.88" fill="#ece1ce"/><path class="cls-3" d="M127.71 133.29L53.5 59.08a167.91 167.91 0 0 0 0 231.84l74.21-74.21a63.06 63.06 0 0 1 0-83.42zM216.71 127.71l74.21-74.21a167.91 167.91 0 0 0-231.84 0l74.21 74.21a63.06 63.06 0 0 1 83.42 0zM133.29 222.29L59.08 296.5a167.91 167.91 0 0 0 231.84 0l-74.21-74.21a63.06 63.06 0 0 1-83.42 0zM222.29 216.71l74.21 74.21a167.91 167.91 0 0 0 0-231.84l-74.21 74.21a63.06 63.06 0 0 1 0 83.42z"/></g><g id="Layer_4" data-name="Layer 4"><path class="cls-4" d="M147.36 79a13.39 13.39 0 0 1 2.12-.16 3.54 3.54 0 0 1 2.37.62 1.93 1.93 0 0 1 .66 1.53 2.06 2.06 0 0 1-1.39 1.93 2 2 0 0 1 1.07 1.48 15.07 15.07 0 0 0 .6 2.14h-1.45a11.73 11.73 0 0 1-.51-1.81c-.21-1-.58-1.32-1.37-1.34h-.71v3.15h-1.39zm1.39 3.39h.83c.95 0 1.54-.5 1.54-1.26s-.59-1.23-1.51-1.23a4.28 4.28 0 0 0-.86.07zM159.09 83.75a2.75 2.75 0 0 1-2.85 3 2.68 2.68 0 0 1-2.78-2.86 2.74 2.74 0 0 1 2.87-2.94 2.66 2.66 0 0 1 2.76 2.8zm-4.18.06c0 1.07.52 1.87 1.38 1.87s1.35-.78 1.35-1.9c0-.86-.39-1.85-1.34-1.85s-1.39.95-1.39 1.88zM160.24 78.49h1.41v8.08h-1.41zM164.16 84.19a1.5 1.5 0 0 0 1.7 1.44 4.16 4.16 0 0 0 1.54-.25l.2 1a5 5 0 0 1-1.93.35 2.63 2.63 0 0 1-2.86-2.81 2.75 2.75 0 0 1 2.71-3 2.41 2.41 0 0 1 2.39 2.7 3.85 3.85 0 0 1 0 .59zm2.43-1a1.19 1.19 0 0 0-1.15-1.35 1.36 1.36 0 0 0-1.28 1.35zM171.86 83.05v1H169v-1zM172.91 86.57c0-.37.05-1 .05-1.56v-6.52h1.4v3.3a2 2 0 0 1 1.78-.89c1.35 0 2.32 1.13 2.31 2.81 0 2-1.27 3-2.52 3a1.91 1.91 0 0 1-1.75-1l-.06.83zm1.45-2.29a1.69 1.69 0 0 0 0 .33 1.29 1.29 0 0 0 1.24 1c.88 0 1.41-.7 1.41-1.82s-.46-1.77-1.4-1.77a1.31 1.31 0 0 0-1.24 1 1.88 1.88 0 0 0 0 .36zM182.74 86.57l-.09-.61a2.06 2.06 0 0 1-1.64.74 1.65 1.65 0 0 1-1.74-1.65c0-1.4 1.24-2.11 3.29-2.1v-.09c0-.36-.15-1-1.13-1a3 3 0 0 0-1.49.41l-.27-.91a4 4 0 0 1 2-.49 2.08 2.08 0 0 1 2.29 2.34v2a8.46 8.46 0 0 0 .08 1.33zm-.19-2.71c-1 0-1.93.2-1.93 1a.73.73 0 0 0 .8.79 1.14 1.14 0 0 0 1.09-.76 1.08 1.08 0 0 0 0-.3zM185.33 85.29a3.21 3.21 0 0 0 1.43.39c.61 0 .88-.25.88-.61s-.22-.57-.91-.81c-1.08-.38-1.53-1-1.52-1.62a1.86 1.86 0 0 1 2.09-1.74 3.26 3.26 0 0 1 1.47.33l-.27 1a2.56 2.56 0 0 0-1.17-.32c-.5 0-.78.24-.78.58s.26.53 1 .78c1 .36 1.47.88 1.48 1.7 0 1-.79 1.73-2.25 1.73a3.55 3.55 0 0 1-1.69-.39zM191.14 84.19a1.51 1.51 0 0 0 1.71 1.44 4.11 4.11 0 0 0 1.53-.25l.21 1a5.1 5.1 0 0 1-1.94.35 2.63 2.63 0 0 1-2.85-2.81 2.74 2.74 0 0 1 2.71-3 2.42 2.42 0 0 1 2.39 2.7 3.57 3.57 0 0 1-.05.59zm2.44-1a1.19 1.19 0 0 0-1.15-1.35 1.37 1.37 0 0 0-1.29 1.35zM201.14 78.49v8.07h-1.25l-.06-.88a2 2 0 0 1-1.81 1c-1.32 0-2.37-1.13-2.37-2.84s1.15-3 2.48-3a1.76 1.76 0 0 1 1.56.73v-3.08zm-1.4 4.85a2.33 2.33 0 0 0 0-.37 1.23 1.23 0 0 0-1.2-1c-.9 0-1.4.8-1.4 1.84s.5 1.75 1.38 1.75a1.24 1.24 0 0 0 1.21-1 1.77 1.77 0 0 0 .05-.41zM143.73 98.25l-.09-.61a2.06 2.06 0 0 1-1.64.74 1.64 1.64 0 0 1-1.74-1.66c0-1.4 1.24-2.1 3.29-2.09v-.09c0-.37-.15-1-1.13-1a2.9 2.9 0 0 0-1.49.41l-.27-.91a4 4 0 0 1 2-.49 2.08 2.08 0 0 1 2.29 2.33v2a8.46 8.46 0 0 0 .08 1.33zm-.18-2.71c-1 0-1.93.19-1.93 1a.73.73 0 0 0 .79.79 1.12 1.12 0 0 0 1.09-.76.87.87 0 0 0 .05-.31zM150.47 98.08a4 4 0 0 1-1.57.28 2.66 2.66 0 0 1-2.9-2.82 2.87 2.87 0 0 1 3.09-3 3.6 3.6 0 0 1 1.35.26l-.25 1a2.42 2.42 0 0 0-1-.22 1.8 1.8 0 0 0 0 3.59 2.63 2.63 0 0 0 1.1-.22zM155.48 98.08a4 4 0 0 1-1.57.28 2.66 2.66 0 0 1-2.86-2.82 2.87 2.87 0 0 1 3.09-3 3.6 3.6 0 0 1 1.35.26l-.25 1a2.42 2.42 0 0 0-1.05-.22 1.8 1.8 0 0 0 0 3.59 2.63 2.63 0 0 0 1.1-.22zM157.41 95.87a1.51 1.51 0 0 0 1.71 1.44 4.13 4.13 0 0 0 1.53-.26l.21 1a5.12 5.12 0 0 1-1.94.34 2.61 2.61 0 0 1-2.85-2.8 2.74 2.74 0 0 1 2.7-3 2.42 2.42 0 0 1 2.4 2.7 3.57 3.57 0 0 1 0 .59zm2.43-1a1.18 1.18 0 0 0-1.14-1.35 1.36 1.36 0 0 0-1.29 1.35zM162.23 97a3 3 0 0 0 1.42.4c.61 0 .89-.25.89-.61s-.23-.57-.91-.81c-1.09-.38-1.54-1-1.53-1.62 0-1 .81-1.74 2.1-1.74a3.25 3.25 0 0 1 1.46.33l-.27 1a2.56 2.56 0 0 0-1.17-.32c-.5 0-.78.24-.78.58s.27.53 1 .78c1 .36 1.47.87 1.48 1.69 0 1-.78 1.73-2.25 1.73A3.67 3.67 0 0 1 162 98zM167 97a3.08 3.08 0 0 0 1.43.4c.61 0 .88-.25.88-.61s-.22-.57-.91-.81c-1.08-.38-1.53-1-1.52-1.62a1.85 1.85 0 0 1 2.09-1.74 3.26 3.26 0 0 1 1.47.33l-.27 1a2.57 2.57 0 0 0-1.18-.32c-.5 0-.77.24-.77.58s.26.53 1 .78c1 .36 1.47.87 1.48 1.69 0 1-.79 1.73-2.26 1.73a3.66 3.66 0 0 1-1.74-.41zM178.22 98.08a4 4 0 0 1-1.57.28 2.66 2.66 0 0 1-2.86-2.82 2.87 2.87 0 0 1 3.09-3 3.64 3.64 0 0 1 1.35.26l-.25 1a2.44 2.44 0 0 0-1.06-.22 1.8 1.8 0 0 0 0 3.59A2.65 2.65 0 0 0 178 97zM184.43 95.43a2.76 2.76 0 0 1-2.85 2.95 2.69 2.69 0 0 1-2.78-2.86 2.74 2.74 0 0 1 2.87-2.94 2.66 2.66 0 0 1 2.76 2.85zm-4.18 0c0 1.07.52 1.88 1.38 1.88s1.35-.78 1.35-1.9c0-.86-.39-1.85-1.34-1.85s-1.39 1-1.39 1.92zM185.58 94.36c0-.64 0-1.18-.05-1.65h1.23l.07.83a2 2 0 0 1 1.76-1c1 0 2 .63 2 2.38v3.29h-1.4v-3.09c0-.8-.3-1.4-1.06-1.4a1.17 1.17 0 0 0-1.09.82 1.26 1.26 0 0 0-.04.46v3.26h-1.41zM193.64 91.12v1.59H195v1h-1.33v2.49c0 .67.18 1 .72 1a2.14 2.14 0 0 0 .54-.07v1.07a3.15 3.15 0 0 1-1 .13 1.62 1.62 0 0 1-1.2-.45 2.19 2.19 0 0 1-.44-1.55v-2.58h-.79v-1h.79v-1.3zM196 94.49v-1.78h1.22v1.06a1.67 1.67 0 0 1 1.52-1.19 1.11 1.11 0 0 1 .33 0v1.32a1.53 1.53 0 0 0-.41 0 1.23 1.23 0 0 0-1.18 1.1 2.55 2.55 0 0 0 0 .43v2.87H196zM205.25 95.43a2.75 2.75 0 0 1-2.84 2.95 2.69 2.69 0 0 1-2.78-2.86 2.74 2.74 0 0 1 2.87-2.94 2.66 2.66 0 0 1 2.75 2.85zm-4.17 0c0 1.07.52 1.88 1.37 1.88s1.36-.78 1.36-1.9c0-.86-.39-1.85-1.35-1.85s-1.38 1-1.38 1.92zM206.41 90.17h1.41v8.08h-1.41z"/><path class="cls-3" d="M163.62 168c-.05-1.07-.11-2.36-.1-3.48-.27 1-.61 2.13-1 3.17l-1.2 3.58h-1.17l-1.1-3.53c-.32-1.06-.62-2.19-.84-3.22 0 1.08-.09 2.4-.15 3.52l-.18 3.33h-1.41l.55-8.27h2l1.08 3.33c.29 1 .55 1.95.76 2.87.22-.9.51-1.92.83-2.89l1.14-3.31h2l.48 8.27h-1.47zM172.46 168.34a3 3 0 0 1-3.07 3.17 2.88 2.88 0 0 1-3-3.08 3 3 0 0 1 3.09-3.16 2.87 2.87 0 0 1 2.98 3.07zm-4.5.06c0 1.15.56 2 1.48 2s1.46-.84 1.46-2c0-.93-.42-2-1.45-2s-1.45 1-1.45 2zM173.64 171.38c0-.41.05-1.07.05-1.68v-7h1.51v3.56a2.15 2.15 0 0 1 1.91-1c1.46 0 2.5 1.21 2.49 3 0 2.15-1.36 3.21-2.71 3.21a2.05 2.05 0 0 1-1.89-1l-.08.9zm1.56-2.47a1.37 1.37 0 0 0 0 .36 1.39 1.39 0 0 0 1.34 1c.94 0 1.52-.76 1.52-2s-.51-1.91-1.51-1.91a1.42 1.42 0 0 0-1.34 1.1 2.18 2.18 0 0 0-.05.39zM182.47 163.74a.85.85 0 0 1-1.69 0 .81.81 0 0 1 .85-.83.81.81 0 0 1 .84.83zm-1.6 7.64v-6h1.52v6zM184 162.67h1.52v8.71H184zM188.23 168.81a1.62 1.62 0 0 0 1.84 1.55 4.47 4.47 0 0 0 1.65-.27l.22 1a5.54 5.54 0 0 1-2.08.37 2.83 2.83 0 0 1-3.08-3 3 3 0 0 1 2.92-3.21c1.94 0 2.57 1.59 2.57 2.91a3.1 3.1 0 0 1-.05.63zm2.62-1.05a1.29 1.29 0 0 0-1.24-1.46 1.47 1.47 0 0 0-1.38 1.46zM144.61 184l-.09-.67a2.22 2.22 0 0 1-1.77.8 1.78 1.78 0 0 1-1.88-1.78c0-1.51 1.34-2.27 3.55-2.26V180c0-.4-.16-1.05-1.21-1.05a3.14 3.14 0 0 0-1.61.45l-.3-1a4.35 4.35 0 0 1 2.16-.52 2.23 2.23 0 0 1 2.47 2.51v2.16A8.57 8.57 0 0 0 146 184zm-.19-2.92c-1.07 0-2.09.21-2.09 1.11a.79.79 0 0 0 .86.86 1.23 1.23 0 0 0 1.18-.82 1 1 0 0 0 0-.33zM147.48 180v-2h1.33l.07.92a2.33 2.33 0 0 1 2-1.05c1.38 0 2.52 1.17 2.52 3 0 2.16-1.36 3.2-2.72 3.2a2 2 0 0 1-1.69-.8v3.09h-1.51zm1.51 1.48a1.42 1.42 0 0 0 0 .42 1.38 1.38 0 0 0 1.32 1.06c1 0 1.53-.8 1.53-2s-.52-1.91-1.49-1.91a1.41 1.41 0 0 0-1.35 1.11 1.31 1.31 0 0 0-.06.38zM154.66 180v-2h1.32l.07.92a2.33 2.33 0 0 1 2.05-1.05c1.37 0 2.51 1.17 2.51 3 0 2.16-1.36 3.2-2.72 3.2a2 2 0 0 1-1.68-.8v3.09h-1.5zm1.5 1.48a1.86 1.86 0 0 0 .05.42 1.38 1.38 0 0 0 1.33 1.06c1 0 1.52-.8 1.52-2s-.52-1.91-1.48-1.91a1.39 1.39 0 0 0-1.35 1.11 1.33 1.33 0 0 0-.07.38zM161.83 175.25h1.52V184h-1.52zM166.59 176.31a.85.85 0 0 1-1.7 0 .85.85 0 0 1 1.7 0zM165 184v-6h1.52v6zM172.51 183.77a4.29 4.29 0 0 1-1.69.31 2.87 2.87 0 0 1-3.08-3 3.09 3.09 0 0 1 3.32-3.19 3.72 3.72 0 0 1 1.46.28l-.27 1.13a2.62 2.62 0 0 0-1.14-.24 1.94 1.94 0 0 0 0 3.87 3 3 0 0 0 1.19-.23zM177 184l-.1-.67a2.2 2.2 0 0 1-1.76.8 1.77 1.77 0 0 1-1.88-1.78c0-1.51 1.34-2.27 3.54-2.26V180c0-.4-.16-1.05-1.21-1.05a3.17 3.17 0 0 0-1.61.45l-.29-1a4.29 4.29 0 0 1 2.16-.52 2.23 2.23 0 0 1 2.46 2.51v2.16a9.78 9.78 0 0 0 .09 1.44zm-.2-2.92c-1.07 0-2.08.21-2.08 1.11a.79.79 0 0 0 .85.86 1.21 1.21 0 0 0 1.18-.82 1 1 0 0 0 0-.33zM181.51 176.28V178H183v1.13h-1.44v2.64c0 .72.2 1.1.78 1.1a2.07 2.07 0 0 0 .58-.07v1.15a3.17 3.17 0 0 1-1.09.15 1.76 1.76 0 0 1-1.3-.49 2.38 2.38 0 0 1-.47-1.67v-2.81h-.86V178h.8v-1.35zM185.69 176.31a.8.8 0 0 1-.86.81.79.79 0 0 1-.83-.81.85.85 0 0 1 1.69 0zm-1.6 7.65v-6h1.52v6zM192.91 180.91a3 3 0 0 1-3.07 3.18 2.88 2.88 0 0 1-3-3.08 2.94 2.94 0 0 1 3.09-3.16 2.86 2.86 0 0 1 2.98 3.06zm-4.51.06c0 1.16.57 2 1.49 2s1.46-.85 1.46-2.05c0-.93-.42-2-1.45-2s-1.5 1.08-1.5 2.08zM194.14 179.76v-1.78h1.33l.07.9a2.15 2.15 0 0 1 1.9-1c1 0 2.12.67 2.12 2.56V184H198v-3.38c0-.86-.32-1.51-1.14-1.51a1.27 1.27 0 0 0-1.18.89 1.5 1.5 0 0 0-.06.49V184h-1.52zM201.08 182.57a3.4 3.4 0 0 0 1.54.43c.66 0 .95-.27.95-.66s-.24-.62-1-.87c-1.16-.41-1.65-1.05-1.64-1.75 0-1.05.87-1.87 2.26-1.87a3.59 3.59 0 0 1 1.58.35l-.3 1.07a2.6 2.6 0 0 0-1.26-.34c-.54 0-.83.25-.83.62s.28.57 1 .84c1.08.39 1.58.94 1.59 1.82 0 1.08-.84 1.87-2.43 1.87a3.78 3.78 0 0 1-1.81-.42z"/><path class="cls-4" d="M262.79 203.41h-2.19v-1.18h5.8v1.18h-2.21v6.5h-1.4zM267.13 201.82h1.41v3.31a1.81 1.81 0 0 1 .7-.64 1.87 1.87 0 0 1 .95-.25c1 0 1.94.62 1.94 2.4v3.27h-1.4v-3.11c0-.81-.3-1.41-1.07-1.41a1.13 1.13 0 0 0-1.08.78 1.09 1.09 0 0 0-.06.42v3.32h-1.41zM275.13 202.81a.75.75 0 0 1-.8.76.74.74 0 0 1-.77-.76.79.79 0 0 1 1.57 0zm-1.49 7.1v-5.55h1.41v5.55zM276.55 206.15v-1.79h1.22v1.06h.05a1.65 1.65 0 0 1 1.51-1.18 1.61 1.61 0 0 1 .33 0v1.32a2.18 2.18 0 0 0-.41 0 1.23 1.23 0 0 0-1.25 1.06 2.63 2.63 0 0 0 0 .43v2.87h-1.41zM285.62 201.82v8.09h-1.25l-.06-.88a2 2 0 0 1-1.81 1 2.54 2.54 0 0 1-2.37-2.83c0-1.86 1.15-3 2.48-3a1.76 1.76 0 0 1 1.56.73v-3.15zm-1.4 4.85a1.47 1.47 0 0 0 0-.36 1.22 1.22 0 0 0-1.2-1c-.9 0-1.4.8-1.4 1.83s.5 1.75 1.38 1.75a1.23 1.23 0 0 0 1.21-1 1.32 1.32 0 0 0 .05-.41zM289.61 206.39v1h-2.9v-1zM290.71 206.21v-1.85h1.23l.07.86a2.15 2.15 0 0 1 1.9-1c1.28 0 2.34 1.09 2.34 2.82 0 2-1.27 3-2.53 3a1.82 1.82 0 0 1-1.56-.74v2.87h-1.4zm1.4 1.37a1.61 1.61 0 0 0 0 .39 1.27 1.27 0 0 0 1.23 1c.89 0 1.41-.74 1.41-1.83s-.47-1.78-1.37-1.78a1.3 1.3 0 0 0-1.25 1 1.07 1.07 0 0 0-.06.35zM300.49 209.91l-.09-.62a2.06 2.06 0 0 1-1.64.74 1.65 1.65 0 0 1-1.74-1.65c0-1.4 1.24-2.1 3.29-2.09v-.09c0-.37-.15-1-1.13-1a3 3 0 0 0-1.49.41l-.27-.91a4 4 0 0 1 2-.49 2.07 2.07 0 0 1 2.29 2.33v2a8.52 8.52 0 0 0 .08 1.34zm-.18-2.71c-1 0-1.94.19-1.94 1a.74.74 0 0 0 .8.8 1.14 1.14 0 0 0 1.09-.76 1.18 1.18 0 0 0 .05-.31zM303.15 206.15v-1.79h1.22v1.06h.05a1.65 1.65 0 0 1 1.51-1.18 1.61 1.61 0 0 1 .33 0v1.32a2.18 2.18 0 0 0-.41 0 1.23 1.23 0 0 0-1.25 1.06 2.55 2.55 0 0 0-.05.43v2.87h-1.4zM309.07 202.78v1.58h1.34v1h-1.34v2.45c0 .67.19 1 .72 1a1.89 1.89 0 0 0 .55-.07v1.07a3.07 3.07 0 0 1-1 .14 1.63 1.63 0 0 1-1.21-.45 2.19 2.19 0 0 1-.43-1.55v-2.61h-.8v-1h.8v-1.25zM312.42 204.36l1 3c.12.35.23.77.31 1.09.09-.32.19-.73.29-1.1l.87-3h1.5l-1.39 3.79c-.76 2.07-1.27 3-1.94 3.57a2.79 2.79 0 0 1-1.46.71l-.32-1.18a2.52 2.52 0 0 0 1.62-1.24.51.51 0 0 0 .09-.25.59.59 0 0 0-.08-.27l-2-5.09zM252.15 214.49a.79.79 0 0 1-1.57 0 .75.75 0 0 1 .79-.76.74.74 0 0 1 .78.76zm-1.49 7.09V216h1.41v5.54zM253.58 217.69c0-.64 0-1.17-.05-1.65h1.23l.07.83a2 2 0 0 1 1.77-1c1 0 2 .62 2 2.38v3.28h-1.4v-3.12c0-.8-.3-1.41-1.06-1.41a1.19 1.19 0 0 0-1.1.82 1.66 1.66 0 0 0 0 .46v3.25h-1.41zM261.64 214.46V216H263v1.05h-1.33v2.45c0 .67.18 1 .71 1a1.84 1.84 0 0 0 .55-.07v1.07a3 3 0 0 1-1 .14 1.63 1.63 0 0 1-1.21-.46 2.23 2.23 0 0 1-.43-1.54v-2.61h-.8V216h.8v-1.25zM265 219.21a1.51 1.51 0 0 0 1.71 1.43 4.2 4.2 0 0 0 1.54-.25l.2 1a5.32 5.32 0 0 1-1.94.34 2.62 2.62 0 0 1-2.85-2.8 2.74 2.74 0 0 1 2.71-3 2.41 2.41 0 0 1 2.39 2.69 2.83 2.83 0 0 1 0 .6zm2.44-1a1.2 1.2 0 0 0-1.15-1.36 1.38 1.38 0 0 0-1.29 1.36zM274.9 216v4.74a2.67 2.67 0 0 1-3 3.18 3.89 3.89 0 0 1-1.94-.44l.31-1.06a3.26 3.26 0 0 0 1.61.42 1.47 1.47 0 0 0 1.6-1.67v-.48a1.88 1.88 0 0 1-1.62.82 2.46 2.46 0 0 1-2.36-2.71 2.65 2.65 0 0 1 2.52-2.92 1.74 1.74 0 0 1 1.6.86l.05-.74zm-1.44 2.22a1.14 1.14 0 0 0 0-.37 1.16 1.16 0 0 0-1.14-.9c-.78 0-1.36.68-1.36 1.81 0 .94.47 1.7 1.35 1.7a1.19 1.19 0 0 0 1.14-.84 2.73 2.73 0 0 0 .06-.5zM276.32 217.83c0-.75 0-1.29-.05-1.79h1.22v1.06h.05a1.64 1.64 0 0 1 1.51-1.18 1.61 1.61 0 0 1 .33 0v1.32a2.18 2.18 0 0 0-.41 0 1.23 1.23 0 0 0-1.25 1.05 2.81 2.81 0 0 0-.05.44v2.86h-1.39zM283.38 221.58l-.09-.61a2.06 2.06 0 0 1-1.64.74 1.65 1.65 0 0 1-1.74-1.65c0-1.4 1.24-2.11 3.29-2.09v-.1c0-.36-.15-1-1.13-1a3 3 0 0 0-1.49.41l-.27-.91a4 4 0 0 1 2-.49 2.07 2.07 0 0 1 2.29 2.33v2a8.46 8.46 0 0 0 .08 1.33zm-.18-2.7c-1 0-1.93.19-1.93 1a.73.73 0 0 0 .79.8 1.16 1.16 0 0 0 1.1-.76 1.2 1.2 0 0 0 0-.31zM287.59 214.46V216h1.33v1.05h-1.33v2.45c0 .67.18 1 .71 1a1.84 1.84 0 0 0 .55-.07v1.07a3 3 0 0 1-1 .14 1.63 1.63 0 0 1-1.21-.46 2.23 2.23 0 0 1-.43-1.54v-2.61h-.8V216h.8v-1.25zM291.47 214.49a.75.75 0 0 1-.8.76.74.74 0 0 1-.77-.76.79.79 0 0 1 1.57 0zm-1.47 7.09V216h1.41v5.54zM298.16 218.76a2.74 2.74 0 0 1-2.84 3 2.68 2.68 0 0 1-2.78-2.86 2.73 2.73 0 0 1 2.87-2.93 2.65 2.65 0 0 1 2.75 2.79zm-4.17.06c0 1.07.52 1.88 1.37 1.88s1.36-.79 1.36-1.9c0-.87-.39-1.86-1.34-1.86s-1.38.96-1.38 1.88zM299.32 217.69c0-.64 0-1.17-.05-1.65h1.23l.07.83a2 2 0 0 1 1.77-1c1 0 2 .62 2 2.38v3.28h-1.4v-3.12c0-.8-.3-1.41-1.06-1.41a1.16 1.16 0 0 0-1.09.82 1.35 1.35 0 0 0-.06.46v3.25h-1.41zM308.19 213.5h1.41v3.3a1.91 1.91 0 0 1 .69-.63 1.93 1.93 0 0 1 1-.25c1 0 1.94.62 1.94 2.4v3.26h-1.4v-3.1c0-.81-.3-1.41-1.07-1.41a1.15 1.15 0 0 0-1.09.78 1.34 1.34 0 0 0 0 .42v3.31h-1.41zM319.66 219.92v1.66h-1.23l-.07-.84a2 2 0 0 1-1.78 1c-1 0-1.93-.6-1.93-2.41V216h1.4v3c0 .92.29 1.51 1 1.51a1.17 1.17 0 0 0 1.07-.75 1.14 1.14 0 0 0 .08-.43V216h1.4zM321.13 221.58c0-.37.05-1 .05-1.55v-6.53h1.4v3.3a2 2 0 0 1 1.78-.88c1.35 0 2.32 1.12 2.31 2.81 0 2-1.27 3-2.52 3a1.9 1.9 0 0 1-1.75-1l-.07.83zm1.45-2.28a1.84 1.84 0 0 0 0 .33 1.29 1.29 0 0 0 1.24 1c.88 0 1.41-.71 1.41-1.82s-.46-1.78-1.4-1.78a1.31 1.31 0 0 0-1.24 1 2 2 0 0 0 0 .37zM149.31 312.93a7.64 7.64 0 0 1-2.47.43 4.12 4.12 0 0 1-3-1 3.76 3.76 0 0 1-1.07-2.83c0-2.42 1.73-4 4.27-4a5.08 5.08 0 0 1 2 .36l-.3 1.13a4.24 4.24 0 0 0-1.75-.33 2.57 2.57 0 0 0-2.79 2.76 2.53 2.53 0 0 0 2.67 2.77 2.7 2.7 0 0 0 1.06-.16v-1.91h-1.33v-1.1h2.71zM151.75 310.9a1.51 1.51 0 0 0 1.71 1.44 4.11 4.11 0 0 0 1.53-.25l.21 1a5.12 5.12 0 0 1-1.94.34 2.61 2.61 0 0 1-2.85-2.8 2.74 2.74 0 0 1 2.71-3 2.42 2.42 0 0 1 2.39 2.7 3.57 3.57 0 0 1 0 .59zm2.44-1a1.19 1.19 0 0 0-1.15-1.35 1.37 1.37 0 0 0-1.29 1.35zM161.9 310.46a2.74 2.74 0 0 1-2.84 3 2.68 2.68 0 0 1-2.78-2.86 2.74 2.74 0 0 1 2.87-2.94 2.66 2.66 0 0 1 2.75 2.8zm-4.17.05c0 1.07.52 1.88 1.37 1.88s1.36-.78 1.36-1.9c0-.86-.39-1.85-1.34-1.85s-1.39.95-1.39 1.87zM165.72 309.76v1h-2.9v-1zM166.81 305.2h1.42v8.08h-1.42zM175 310.46a2.74 2.74 0 0 1-2.84 3 2.68 2.68 0 0 1-2.78-2.86 2.74 2.74 0 0 1 2.87-2.94 2.66 2.66 0 0 1 2.75 2.8zm-4.18.05c0 1.07.53 1.88 1.38 1.88s1.36-.78 1.36-1.9c0-.86-.39-1.85-1.35-1.85s-1.38.95-1.38 1.87zM180.24 313.11a4 4 0 0 1-1.57.28 2.66 2.66 0 0 1-2.86-2.82 2.87 2.87 0 0 1 3.08-3 3.65 3.65 0 0 1 1.36.26l-.25 1.05a2.54 2.54 0 0 0-1.06-.21 1.79 1.79 0 0 0 0 3.58 2.6 2.6 0 0 0 1.1-.22zM184.39 313.28l-.09-.61a2.06 2.06 0 0 1-1.64.74 1.64 1.64 0 0 1-1.74-1.65c0-1.4 1.24-2.11 3.29-2.1v-.09c0-.36-.15-1-1.13-1a2.92 2.92 0 0 0-1.49.41l-.27-.91a4 4 0 0 1 2-.49 2.08 2.08 0 0 1 2.29 2.34v2a8.46 8.46 0 0 0 .08 1.33zm-.18-2.71c-1 0-1.93.2-1.93 1a.73.73 0 0 0 .79.79 1.14 1.14 0 0 0 1.1-.76 1.1 1.1 0 0 0 0-.31zM188.6 306.16v1.58h1.33v1.05h-1.33v2.44c0 .67.18 1 .71 1a2.31 2.31 0 0 0 .55-.07v1.07a3.08 3.08 0 0 1-1 .13 1.65 1.65 0 0 1-1.21-.45 2.24 2.24 0 0 1-.43-1.55v-2.6h-.8v-1.05h.8v-1.25zM192.48 306.19a.74.74 0 0 1-.8.75.73.73 0 0 1-.77-.75.79.79 0 0 1 1.57 0zm-1.48 7.09v-5.54h1.41v5.54zM199.17 310.46a2.74 2.74 0 0 1-2.84 3 2.68 2.68 0 0 1-2.78-2.86 2.74 2.74 0 0 1 2.87-2.94 2.66 2.66 0 0 1 2.75 2.8zm-4.17.05c0 1.07.52 1.88 1.37 1.88s1.36-.78 1.36-1.9c0-.86-.39-1.85-1.35-1.85s-1.38.95-1.38 1.87zM200.32 309.39v-1.65h1.23l.07.83a2 2 0 0 1 1.77-1c1 0 2 .63 2 2.38v3.29h-1.4v-3.13c0-.8-.29-1.4-1.05-1.4a1.19 1.19 0 0 0-1.1.82 1.66 1.66 0 0 0 0 .46v3.25h-1.42zM152.51 317.83v1.59h1.33v1h-1.33v2.45c0 .67.19 1 .72 1a2.31 2.31 0 0 0 .55-.07v1.07a3.12 3.12 0 0 1-1 .13 1.63 1.63 0 0 1-1.21-.45 2.19 2.19 0 0 1-.43-1.55v-2.61h-.8v-1h.8v-1.26zM155.83 322.58a1.5 1.5 0 0 0 1.7 1.43 4.16 4.16 0 0 0 1.54-.25l.21 1a5.12 5.12 0 0 1-1.94.34 2.62 2.62 0 0 1-2.86-2.8 2.75 2.75 0 0 1 2.71-3 2.41 2.41 0 0 1 2.39 2.7 3.85 3.85 0 0 1 0 .59zm2.43-1a1.19 1.19 0 0 0-1.15-1.35 1.36 1.36 0 0 0-1.28 1.35zM160.71 316.88h1.41V325h-1.41zM164.63 322.58c0 1 .82 1.43 1.71 1.43a4.14 4.14 0 0 0 1.53-.25l.21 1a5.12 5.12 0 0 1-1.94.34 2.61 2.61 0 0 1-2.85-2.8 2.74 2.74 0 0 1 2.7-3 2.41 2.41 0 0 1 2.39 2.7 3.85 3.85 0 0 1 0 .59zm2.43-1a1.18 1.18 0 0 0-1.15-1.35 1.36 1.36 0 0 0-1.28 1.35zM169.51 321.07v-1.65h1.2l.06.82a1.89 1.89 0 0 1 1.7-.95 1.6 1.6 0 0 1 1.54 1 2.17 2.17 0 0 1 .68-.7 1.86 1.86 0 0 1 1.12-.33c.92 0 1.86.63 1.86 2.4V325h-1.37v-3.1c0-.92-.32-1.47-1-1.47a1.07 1.07 0 0 0-1 .74 2.31 2.31 0 0 0-.07.47V325h-1.36v-3.21c0-.77-.31-1.32-1-1.32a1.25 1.25 0 0 0-1.08 1.25V325h-1.37zM180.16 322.58c0 1 .82 1.43 1.71 1.43a4.11 4.11 0 0 0 1.53-.25l.21 1a5.12 5.12 0 0 1-1.94.34 2.62 2.62 0 0 1-2.85-2.8 2.74 2.74 0 0 1 2.71-3 2.42 2.42 0 0 1 2.39 2.7 3.57 3.57 0 0 1 0 .59zm2.44-1a1.19 1.19 0 0 0-1.15-1.35 1.37 1.37 0 0 0-1.29 1.35zM186.65 317.83v1.59H188v1h-1.33v2.45c0 .67.18 1 .72 1a2.14 2.14 0 0 0 .54-.07v1.07a3.15 3.15 0 0 1-1 .13 1.62 1.62 0 0 1-1.2-.45 2.19 2.19 0 0 1-.44-1.55v-2.61h-.79v-1h.79v-1.26zM189 321.2v-1.78h1.21v1.05a1.67 1.67 0 0 1 1.52-1.18 1.11 1.11 0 0 1 .33 0v1.32a1.53 1.53 0 0 0-.41 0 1.23 1.23 0 0 0-1.25 1.06 1.81 1.81 0 0 0-.05.43v2.9H189zM194.22 319.42l1 3c.12.34.23.76.31 1.08.1-.32.2-.73.3-1.09l.86-3h1.51l-1.39 3.78c-.76 2.07-1.28 3-1.94 3.56a2.83 2.83 0 0 1-1.46.72l-.32-1.19a2.41 2.41 0 0 0 .82-.39 2.44 2.44 0 0 0 .76-.87.51.51 0 0 0 .09-.25.59.59 0 0 0-.08-.28l-2-5.08zM25.93 199.26v3.07h3.24v-3.07h1.4v7.67h-1.4v-3.38h-3.24v3.38h-1.4v-7.67zM33.11 204.55a1.51 1.51 0 0 0 1.71 1.45 4.18 4.18 0 0 0 1.54-.26l.2 1a5.1 5.1 0 0 1-1.93.34 2.62 2.62 0 0 1-2.86-2.8 2.74 2.74 0 0 1 2.71-3 2.41 2.41 0 0 1 2.39 2.7 3.57 3.57 0 0 1 0 .59zm2.44-1a1.19 1.19 0 0 0-1.15-1.35 1.37 1.37 0 0 0-1.29 1.35zM41.12 206.93l-.1-.61a2.06 2.06 0 0 1-1.64.73 1.64 1.64 0 0 1-1.74-1.65c0-1.4 1.24-2.1 3.29-2.09v-.09c0-.37-.15-1-1.13-1a2.92 2.92 0 0 0-1.49.41l-.27-.91a4 4 0 0 1 2-.49 2.07 2.07 0 0 1 2.29 2.33v2a8.46 8.46 0 0 0 .08 1.33zm-.19-2.71c-1 0-1.93.19-1.93 1a.73.73 0 0 0 .79.79 1.05 1.05 0 0 0 1.14-1.01zM45.32 199.8v1.59h1.33v1h-1.33v2.45c0 .67.18 1 .71 1a2.23 2.23 0 0 0 .55-.07v1.07a3.08 3.08 0 0 1-1 .13 1.65 1.65 0 0 1-1.21-.45A2.24 2.24 0 0 1 44 205v-2.61h-.8v-1h.8v-1.26zM50.07 203v-1.65h1.21l.05.82a1.9 1.9 0 0 1 1.71-1 1.6 1.6 0 0 1 1.53 1 2.2 2.2 0 0 1 .69-.7 1.87 1.87 0 0 1 1.11-.33c.92 0 1.86.63 1.86 2.4v3.27h-1.36v-3.06c0-.92-.32-1.47-1-1.47a1.07 1.07 0 0 0-1 .74 2.31 2.31 0 0 0-.07.47v3.32h-1.33v-3.21c0-.77-.31-1.32-1-1.32a1.25 1.25 0 0 0-1.08 1.25v3.28h-1.32zM62.84 206.93l-.09-.61a2 2 0 0 1-1.63.73 1.65 1.65 0 0 1-1.75-1.65c0-1.4 1.24-2.1 3.29-2.09v-.09c0-.37-.14-1-1.12-1a2.9 2.9 0 0 0-1.49.41l-.28-.91a4 4 0 0 1 2-.49 2.07 2.07 0 0 1 2.23 2.36v2a9.88 9.88 0 0 0 .08 1.33zm-.18-2.71c-1 0-1.94.19-1.94 1a.74.74 0 0 0 .8.79 1.12 1.12 0 0 0 1.09-.76.87.87 0 0 0 0-.31zM65.51 203.23c0-.73 0-1.32-.05-1.84h1.23l.07.85a2.15 2.15 0 0 1 1.9-1c1.28 0 2.34 1.09 2.34 2.82 0 2-1.27 3-2.53 3a1.81 1.81 0 0 1-1.56-.73v2.86h-1.4zm1.4 1.38a1.72 1.72 0 0 0 0 .39 1.27 1.27 0 0 0 1.23 1c.89 0 1.41-.74 1.41-1.83s-.48-1.77-1.38-1.77a1.31 1.31 0 0 0-1.25 1 1.41 1.41 0 0 0 0 .35zM72.1 205.64a3 3 0 0 0 1.42.4c.62 0 .89-.25.89-.61s-.23-.57-.91-.81c-1.08-.38-1.54-1-1.53-1.62 0-1 .81-1.74 2.1-1.74a3.29 3.29 0 0 1 1.47.33l-.28 1a2.56 2.56 0 0 0-1.17-.32c-.5 0-.77.24-.77.58s.26.53 1 .78c1 .36 1.47.87 1.48 1.69 0 1-.78 1.73-2.25 1.73a3.66 3.66 0 0 1-1.68-.38zM82.39 206.93l-.09-.61a2.09 2.09 0 0 1-1.64.73 1.65 1.65 0 0 1-1.75-1.65c0-1.4 1.25-2.1 3.29-2.09v-.09c0-.37-.14-1-1.12-1a2.9 2.9 0 0 0-1.49.41l-.28-.91a4 4 0 0 1 2-.49 2.07 2.07 0 0 1 2.28 2.33v2a9.88 9.88 0 0 0 .08 1.33zm-.18-2.71c-1 0-1.94.19-1.94 1a.74.74 0 0 0 .8.79 1.12 1.12 0 0 0 1.09-.76.87.87 0 0 0 0-.31zM85.06 203v-1.65h1.23l.07.83a2 2 0 0 1 1.77-1c1 0 2 .63 2 2.38v3.29h-1.4v-3.05c0-.8-.3-1.4-1.06-1.4a1.19 1.19 0 0 0-1.1.82 1.55 1.55 0 0 0 0 .45v3.26h-1.51zM96.68 198.85v8.08h-1.21v-.88a2 2 0 0 1-1.81 1c-1.32 0-2.36-1.12-2.36-2.83s1.15-3 2.48-3a1.77 1.77 0 0 1 1.56.73v-3.14zm-1.4 4.85a2.31 2.31 0 0 0 0-.37 1.24 1.24 0 0 0-1.21-1c-.9 0-1.4.8-1.4 1.83s.5 1.76 1.39 1.76a1.22 1.22 0 0 0 1.2-1 1.36 1.36 0 0 0 0-.41zM34.59 214.72c0-.64 0-1.18-.05-1.65h1.21v.81a1.91 1.91 0 0 1 1.7-.94 1.6 1.6 0 0 1 1.54 1 2.27 2.27 0 0 1 .69-.69 1.81 1.81 0 0 1 1.11-.33c.92 0 1.86.63 1.86 2.4v3.27h-1.26v-3.06c0-.92-.32-1.47-1-1.47a1.07 1.07 0 0 0-1 .74 2.32 2.32 0 0 0-.06.47v3.32H38v-3.19c0-.77-.31-1.32-1-1.32a1.25 1.25 0 0 0-1 1.25v3.28h-1.41zM49.51 215.79a2.74 2.74 0 0 1-2.84 2.94 2.67 2.67 0 0 1-2.78-2.85 2.74 2.74 0 0 1 2.87-2.94 2.66 2.66 0 0 1 2.75 2.85zm-4.18.05c0 1.07.53 1.88 1.38 1.88s1.36-.78 1.36-1.9c0-.86-.39-1.86-1.35-1.86s-1.39.96-1.39 1.88zM51.46 213.07l.9 2.81a13.72 13.72 0 0 1 .37 1.39c.1-.46.23-.89.37-1.39l.88-2.81h1.52l-2.12 5.54H52l-2-5.54zM57.2 216.23c0 1 .82 1.43 1.71 1.43a4.14 4.14 0 0 0 1.53-.25l.21 1a5.32 5.32 0 0 1-1.94.34 2.61 2.61 0 0 1-2.85-2.8 2.74 2.74 0 0 1 2.7-3 2.42 2.42 0 0 1 2.4 2.7 3.69 3.69 0 0 1-.05.59zm2.43-1a1.18 1.18 0 0 0-1.15-1.35 1.37 1.37 0 0 0-1.28 1.35zM62.08 214.72v-1.65h1.21v.81a1.91 1.91 0 0 1 1.7-.94 1.6 1.6 0 0 1 1.54 1 2.16 2.16 0 0 1 .69-.69 1.81 1.81 0 0 1 1.11-.33c.92 0 1.86.63 1.86 2.4v3.27h-1.3v-3.06c0-.92-.32-1.47-1-1.47a1.07 1.07 0 0 0-1 .74 2.31 2.31 0 0 0-.07.47v3.32h-1.33v-3.19c0-.77-.31-1.32-1-1.32a1.25 1.25 0 0 0-1.08 1.25v3.28h-1.33zM72.73 216.23c0 1 .82 1.43 1.71 1.43a4.11 4.11 0 0 0 1.53-.25l.21 1a5.32 5.32 0 0 1-1.94.34 2.62 2.62 0 0 1-2.85-2.8 2.74 2.74 0 0 1 2.71-3 2.42 2.42 0 0 1 2.39 2.7 3.69 3.69 0 0 1 0 .59zm2.44-1A1.19 1.19 0 0 0 74 213.9a1.37 1.37 0 0 0-1.29 1.35zM77.62 214.72c0-.64 0-1.18-.05-1.65h1.23l.07.83a2 2 0 0 1 1.77-1c1 0 2 .63 2 2.38v3.29h-1.4v-3.13c0-.8-.29-1.4-1-1.4a1.19 1.19 0 0 0-1.1.82 1.55 1.55 0 0 0 0 .45v3.26h-1.52zM85.68 211.48v1.59H87v1h-1.32v2.45c0 .67.18 1 .71 1a2.4 2.4 0 0 0 .55-.06v1.07a3.08 3.08 0 0 1-1 .13 1.65 1.65 0 0 1-1.21-.45 2.24 2.24 0 0 1-.43-1.55v-2.61h-.8v-1h.8v-1.26zM42.71 230.29l-.09-.62a2 2 0 0 1-1.64.74 1.65 1.65 0 0 1-1.74-1.65c0-1.4 1.24-2.1 3.29-2.09v-.09c0-.37-.15-1-1.12-1a3 3 0 0 0-1.5.41l-.27-.91a4 4 0 0 1 2-.49 2.07 2.07 0 0 1 2.25 2.41v2a9.88 9.88 0 0 0 .08 1.33zm-.18-2.71c-1 0-1.94.19-1.94 1a.74.74 0 0 0 .8.8 1.12 1.12 0 0 0 1.09-.76.87.87 0 0 0 .05-.31zM45.37 226.39v-1.65h1.23l.07.84a2 2 0 0 1 1.76-1c1 0 2 .63 2 2.38v3.29H49v-3.13c0-.8-.29-1.4-1.05-1.4a1.19 1.19 0 0 0-1.1.82 1.55 1.55 0 0 0-.05.45v3.26h-1.43zM55 230.29l-.09-.62a2 2 0 0 1-1.64.74 1.65 1.65 0 0 1-1.74-1.65c0-1.4 1.24-2.1 3.29-2.09v-.09c0-.37-.15-1-1.13-1a3 3 0 0 0-1.49.41l-.27-.91a4 4 0 0 1 2-.49 2.07 2.07 0 0 1 2.26 2.41v2a8.46 8.46 0 0 0 .08 1.33zm-.19-2.71c-1 0-1.93.19-1.93 1a.74.74 0 0 0 .8.8 1.05 1.05 0 0 0 1.13-1.07zM57.67 222.21h1.41v8.08h-1.41zM61.47 224.74l1 3c.11.35.22.77.3 1.09.09-.32.19-.73.29-1.1l.87-3h1.5l-1.39 3.78c-.76 2.07-1.27 3-1.93 3.57a2.77 2.77 0 0 1-1.47.71l-.32-1.18a2.41 2.41 0 0 0 .82-.39 2.44 2.44 0 0 0 .76-.87.58.58 0 0 0 .09-.25.59.59 0 0 0-.08-.28l-2-5.09zM67.9 223.16v1.58h1.33v1H67.9v2.45c0 .67.18 1 .71 1a1.89 1.89 0 0 0 .55-.07v1.07a3 3 0 0 1-1 .14A1.65 1.65 0 0 1 67 230a2.24 2.24 0 0 1-.43-1.55v-2.61h-.8v-1h.8v-1.25zM71.78 223.2a.74.74 0 0 1-.8.75.74.74 0 0 1-.77-.75.79.79 0 0 1 1.57 0zm-1.49 7.09v-5.55h1.41v5.55zM77.28 230.12a4.23 4.23 0 0 1-1.57.28 2.66 2.66 0 0 1-2.86-2.82 2.87 2.87 0 0 1 3.08-3 3.46 3.46 0 0 1 1.36.26l-.29 1.09a2.51 2.51 0 0 0-1.06-.22 1.8 1.8 0 0 0 0 3.59 2.76 2.76 0 0 0 1.1-.22zM78.25 229a3.16 3.16 0 0 0 1.42.4c.62 0 .89-.25.89-.61s-.23-.57-.91-.81c-1.08-.38-1.54-1-1.53-1.62 0-1 .81-1.74 2.1-1.74a3.21 3.21 0 0 1 1.46.33l-.27 1a2.44 2.44 0 0 0-1.17-.32c-.5 0-.78.24-.78.58s.27.52 1 .77c1 .37 1.47.88 1.48 1.7 0 1-.78 1.73-2.25 1.73A3.58 3.58 0 0 1 78 230z"/><path class="cls-5" d="M163 257.33l-13.87 4.15-2.5-8.35 13.87-4.14M166.86 246.96l13.87-4.15 2.49 8.35-13.87 4.15M164.15 260.15l-3.64-11.87a3.07 3.07 0 0 1 2.06-3.85 3.07 3.07 0 0 1 3.82 2l3.66 11.92"/><path class="cls-5" d="M173.93 262a5.77 5.77 0 0 0-11.05 3.3zM171 266.28a2.38 2.38 0 0 1-3.22 1M173.72 267.78a5.52 5.52 0 0 1-7.48 2.23M176.44 269.24a8.62 8.62 0 0 1-11.67 3.5"/><path class="cls-6" d="M183.16 284.1h6.58l3.09 6.24v5.14h-2.24"/><path class="cls-7" d="M168.91 295.44h-2.73v-14.49h17.04v14.49h-10.86"/><circle class="cls-7" cx="170.59" cy="296.03" r="2.25"/><circle class="cls-7" cx="187.8" cy="296.03" r="2.25"/><path class="cls-6" d="M183.22 295.44h2.1M150.12 265.27v23.8h7.19"/><path class="cls-4" d="M156.44 292.06l5.18-2.99-5.18-2.99v5.98zM185.14 64.6v-7.08a2.6 2.6 0 0 0-2.41-2.65 3.41 3.41 0 0 0 .17-1.06V24.82a3.48 3.48 0 0 0-3.47-3.47h-14.69a3.48 3.48 0 0 0-3.47 3.47v29a3.48 3.48 0 0 0 3.47 3.47h3.67v-1.66h-3.67a1.86 1.86 0 0 1-1.86-1.86V24.82a1.87 1.87 0 0 1 1.86-1.82h14.69a1.87 1.87 0 0 1 1.87 1.87v29a2.52 2.52 0 0 0-2.06-1.29 2.59 2.59 0 0 0-1.34.3 2.56 2.56 0 0 0-.54-.76 7.8 7.8 0 1 0-7.77 1.65v11.59a.34.34 0 0 1-.22.34.33.33 0 0 1-.39-.08l-3.3-3.31a2.59 2.59 0 0 0-3.19-.43 2.55 2.55 0 0 0-.47 4l6.45 6.47a5.36 5.36 0 0 0 3.85 1.6h4v-1.6h-4a3.81 3.81 0 0 1-2.72-1.13l-6.45-6.47a1 1 0 0 1-.28-.67 1 1 0 0 1 .46-.82 1 1 0 0 1 1.21.2l3.3 3.31a2 2 0 0 0 3.35-1.39v-18.5a.94.94 0 0 1 .3-.69.9.9 0 0 1 .7-.26 1 1 0 0 1 .89 1v12.16h1.6v-5.21a.94.94 0 0 1 .3-.69.92.92 0 0 1 .69-.26 1 1 0 0 1 .9 1v5.11h1.6v-4a1 1 0 0 1 .29-.7 1 1 0 0 1 .7-.25 1 1 0 0 1 .89 1v4h1.6v-1.71a1 1 0 0 1 .3-.69.94.94 0 0 1 .7-.26 1 1 0 0 1 .89 1v5.87a2.82 2.82 0 0 0-.83-.12A2.79 2.79 0 1 0 185.5 66a2.73 2.73 0 0 0-.36-1.4zm-10.46-13.09V47a2.6 2.6 0 0 0-2.41-2.64 2.51 2.51 0 0 0-1.88.7 2.54 2.54 0 0 0-.8 1.85V52a6.21 6.21 0 1 1 6.1-.64 2.48 2.48 0 0 0-1.01.15zM181.29 66a1.42 1.42 0 1 1 1.42 1.42 1.43 1.43 0 0 1-1.42-1.42z"/><circle class="cls-8" cx="276.04" cy="190.55" r="2.84"/><path class="cls-9" d="M287.36 160H282a2.29 2.29 0 0 1-4.58 0h-5.36v-15.33h15.3V150a2.3 2.3 0 1 0 0 4.59z"/><path class="cls-9" d="M287.36 160v-5.35a2.3 2.3 0 1 1 0-4.59v-5.35h15.29V160h-5.35a2.3 2.3 0 1 0-4.59 0zM291.94 177.42v-2.93a2.29 2.29 0 1 0 0-4.58v-5.36h5.36a2.3 2.3 0 1 1 4.59 0h5.35v15.3h-6.65M287.36 160v5.36a2.3 2.3 0 0 1 0 4.59v5.35h-15.3V160h5.36a2.29 2.29 0 0 0 4.58 0z"/><path class="cls-8" d="M287.19 190.76h6.7l5.11-5.47a2.57 2.57 0 0 0-4.16-.17l8.71-9.34a1.58 1.58 0 0 0-2.27-2.16l-5.92 6.38-5.51-2.75a3.31 3.31 0 0 0-4 .64l-3.53 4.35-1.09 3.3-3.19 3"/><path class="cls-4" d="M288.17 194.16l-5.87-3.43 5.91-3.36-.04 6.79z"/><g id="_Group_" data-name="Group"><g id="_Group_2" data-name="Group 2"><circle id="_Path_" data-name="Path" class="cls-10" cx="75.03" cy="142.84" r="2.99"/></g><g id="_Group_3" data-name="Group 3"><path id="_Path_2" data-name="Path 2" class="cls-10" d="M62.07 176.65v7.49"/><path id="_Path_3" data-name="Path 3" class="cls-10" d="M54.12 184.98h15.9"/></g><g id="_Group_4" data-name="Group 4"><g id="_Group_5" data-name="Group 5"><path id="_Path_4" data-name="Path 4" class="cls-10" d="M70.04 152.97l1.15-1.03"/><g id="_Group_6" data-name="Group 6"><path id="_Path_5" data-name="Path 5" class="cls-4" d="M72.8 155.31l2.23-6.81-7.01 1.48 4.78 5.33z"/></g></g></g><g id="_Group_7" data-name="Group 7"><g id="_Group_8" data-name="Group 8"><path id="_Path_6" data-name="Path 6" class="cls-10" d="M83.75 146.91v28.89H40.64v-32.7H71.4"/><g id="_Group_9" data-name="Group 9"><path id="_Path_7" data-name="Path 7" class="cls-4" d="M80.17 147.96l3.58-6.2 3.58 6.2h-7.16z"/></g></g></g><path id="_Path_8" data-name="Path 8" class="cls-10" d="M57.53 162.58l-1.45 1.14-2.21-2.81-4.98 3.6"/><circle id="_Ellipse_2" data-name="Ellipse" class="cls-10" cx="64.16" cy="158.19" r="5.33"/><path id="_Path_9" data-name="Path 9" class="cls-10" d="M68.08 161.73l3.04 3.04"/><path id="_Path_10" data-name="Path 10" class="cls-10" d="M40.64 168.93H83.5"/></g></g></svg>