<svg id="Layer_1" data-name="Layer 1" xmlns="http://www.w3.org/2000/svg" width="100" height="100" viewBox="0 0 100 100"><title>time</title><path d="M11.9,91.83q6.14-3.51,12.29-7c.47-.27.94-.54,1.58-.89v6.23c1.55,0,3,0,4.48,0,.26,0,.54-.29.77-.49,6.33-5.44,13.52-9,21.9-9.74a33,33,0,0,1,20.9,5.33c.87.54,1.72,1.12,2.74,1.78,0-1.26,0-2.36,0-3.46-.07-5.48-.2-11-.21-16.45a12.75,12.75,0,0,0-1.91-6.6A23,23,0,0,0,57.9,49.13c-4.45-.77-8.67.43-12.59,2.59-4.79,2.64-8.64,6.19-10.69,11.4-.12.3-.2.6-.32,1a8.31,8.31,0,0,1,4.36,6.53A8.22,8.22,0,1,1,22.28,72a8.28,8.28,0,0,1,7.77-8.84,1.42,1.42,0,0,0,1.05-.62C33.67,55.52,38.8,51,45.4,47.8l1.18-.57a29.38,29.38,0,0,1-9.42-6.11c-3.31-3.23-5.86-7-6.54-11.61a63.08,63.08,0,0,1-.25-8c-.09-5.6-.16-11.21-.24-16.81,0-.35,0-.7-.07-1.15H22.24V0H88.1V3.52H80.18c0,.38-.05.57-.05.77C80,11.66,80,19,79.78,26.39A19,19,0,0,1,79,31.92C76.62,38.86,71.5,43.28,65.1,46.43l-1.37.67,1.12.53a28.45,28.45,0,0,1,10,7.5,19.47,19.47,0,0,1,5,13.26c-.13,6,.11,12.09.19,18.14,0,1.18,0,2.37,0,3.68h8v3.44H25.84V100H25.6c-2.73-1.63-5.44-3.27-8.19-4.87-1.81-1.06-3.67-2-5.51-3.06ZM76.56,3.57H33.66a6,6,0,0,0-.08.88c.07,6.81.14,13.61.25,20.41a24.83,24.83,0,0,0,.37,4.89,17.71,17.71,0,0,0,5.87,9.42c4.07,3.66,8.77,6.25,14.32,6.2,8.38-.07,14.79-4.11,19.55-10.85a13,13,0,0,0,2.44-7.77c0-4.64.13-9.28.18-13.92C76.59,9.79,76.56,6.75,76.56,3.57ZM36,90.07H74.66C62.25,80.65,48,81.11,36,90.07Zm-.79-18.64a4.76,4.76,0,1,0-9.52,0,4.76,4.76,0,1,0,9.52,0Z"/><path d="M67.66,32.7a3.31,3.31,0,0,0-3.6,3.48,1.69,1.69,0,0,1-1.19,2.1c-.71.28-1.38.65-2.09.92-2.17.83-2.15.8-3.76-.86a2.23,2.23,0,0,0-1.14-.45c-.3-.06-.65.11-.94,0a2,2,0,0,0-2.49,1.12,1.3,1.3,0,0,1-1.89.6c-1.2-.53-2.42-1-3.64-1.52A1.26,1.26,0,0,1,46,36.45c.56-1.92-1-2.7-2-3.67-.36-.33-1.31,0-2-.08a1.73,1.73,0,0,1-1.18-.63c-.66-1.36-1.17-2.79-1.76-4.19-.29-.68,0-1.07.51-1.5a3,3,0,0,0,0-5.05,1.24,1.24,0,0,1-.49-1.63c.53-1.29,1.08-2.57,1.57-3.88.31-.85.88-1,1.69-.88A3.21,3.21,0,0,0,46,11.4a1.62,1.62,0,0,1,1.1-1.94c.74-.29,1.43-.7,2.18-1,2.19-.84,2.16-.79,3.78.86a2.92,2.92,0,0,0,1.47.48A3,3,0,0,0,58,8.31,1.29,1.29,0,0,1,59.14,8c1.4.48,2.73,1.12,4.12,1.63A1.26,1.26,0,0,1,64,11.35c-.58,2,1.25,2.55,2.13,3.64.2.25,1.06,0,1.6-.05a1.25,1.25,0,0,1,1.61.82c.37.93.8,1.83,1.22,2.74.61,1.35.76,2.5-.8,3.43-.86.5-.75,3.43.14,4,1.37.81,1.29,1.81.76,3-.37.84-.74,1.69-1.07,2.54S68.68,33.13,67.66,32.7ZM44.6,29.06c.79-.31,1.22.2,1.74.87a11.38,11.38,0,0,0,2.34,2.36,2,2,0,0,1,1,2.26c-.08.38.22.82.35,1.24.37-.22.88-.35,1.11-.67a1.88,1.88,0,0,1,2.22-.84,9.32,9.32,0,0,0,3.33,0,1.87,1.87,0,0,1,2.15.75c.25.35.77.51,1.17.75a3.86,3.86,0,0,0,.34-1.46,1.67,1.67,0,0,1,.83-1.88,14,14,0,0,0,2.54-2.51,1.74,1.74,0,0,1,1.85-.9,4.11,4.11,0,0,0,1.48-.32c-.26-.43-.42-1-.79-1.26a1.74,1.74,0,0,1-.7-1.95,9.16,9.16,0,0,0,0-3.09,2,2,0,0,1,.86-2.34c.3-.21.4-.73.59-1.11-.41-.12-.85-.39-1.22-.31a1.83,1.83,0,0,1-2.16-.95,8.91,8.91,0,0,0-2.26-2.28,2,2,0,0,1-1-2.35c.07-.36-.26-.79-.41-1.19-.34.2-.82.31-1,.6a2,2,0,0,1-2.54.88,5.75,5.75,0,0,0-2.26-.07c-1.39.29-2.58.34-3.35-1.13a.89.89,0,0,0-.78-.21c-.18,0-.44.43-.39.58.56,1.75-.51,2.61-1.75,3.45a4,4,0,0,0-1.15,1.21c-.69,1.18-1.53,1.88-3,1.39a.83.83,0,0,0-.71.38.84.84,0,0,0,.15.8c1.35.75,1.55,1.84,1.17,3.23a3.62,3.62,0,0,0,0,1.79,2.39,2.39,0,0,1-1.12,3.12.85.85,0,0,0-.23.79c.09.21.47.33.74.4A3,3,0,0,0,44.6,29.06Z"/><path d="M55,15.34a8.53,8.53,0,0,1,8.61,8.48,8.59,8.59,0,0,1-17.17.05A8.51,8.51,0,0,1,55,15.34Zm0,13.55a5.07,5.07,0,0,0,5.12-5.08A5.19,5.19,0,0,0,55,18.75a5.27,5.27,0,0,0-5.09,5.07A5.17,5.17,0,0,0,55,28.89Z"/></svg>