<svg id="Layer_1" data-name="Layer 1" xmlns="http://www.w3.org/2000/svg" width="100" height="100" viewBox="0 0 100 100"><title>quality-management</title><path d="M57.4,0c1.49,1.4,3,2.82,4.5,4.19A2,2,0,0,0,63,4.6c1.65.19,3.29.36,5,.46a1.94,1.94,0,0,1,1.83,1.33c.63,1.49,1.23,3,1.93,4.44A2.91,2.91,0,0,0,72.76,12c1.34.82,2.72,1.57,4.12,2.3a2.14,2.14,0,0,1,1.26,2.27c0,.32-.06.64-.07,1C77.92,22,77.84,22,80.6,25.45c1.28,1.58,1.74,3,.53,4.77a8.29,8.29,0,0,0-.89,8.12c.15.37.15.79.29,1.17a2.1,2.1,0,0,1-.85,2.54c-1.18,1-2.33,2-3.47,3a2.15,2.15,0,0,0-.7.93c-.39,1.73-.74,3.48-1,5.23a2.13,2.13,0,0,0,.35,1.12q9,18.69,18.13,37.37c.13.28.25.57.47,1.08L79.5,86.16,74.41,100,55.35,60.19c-1.27.75-2.49,1.44-3.67,2.19a2.06,2.06,0,0,1-2.48,0,15.06,15.06,0,0,1-1.35-.81c-2.34-2.05-5-2.25-7.9-1.58a3.09,3.09,0,0,1-1.43.15,4.81,4.81,0,0,1-1.84-.87,4.57,4.57,0,0,1-1.13-1.56c-1.37-2.87-3.79-4.11-6.95-4.42L13.2,85l9.42-3.12,3.45,9.34c2.52-5.16,4.9-10.06,7.36-15.1-1.75-.85-3.46-1.69-5.35-2.63l13-8.85c.41,5.28.79,10.33,1.19,15.66l-5.71-2.71L25.63,100,20.56,86.17l-14,4.67c1.25-2.57,2.37-4.91,3.51-7.25q7.86-16.17,15.69-32.36A5.33,5.33,0,0,0,25.9,49c0-2.5-1.32-4.19-3.23-5.73-3.09-2.5-3-1.81-1.88-5.76A8.51,8.51,0,0,0,20.12,31c-1.86-3.68-2-2.81.66-6.11a8.44,8.44,0,0,0,2-6.19c-.22-4.2-.46-3.36,3.06-5.38l2.64-1.49c-2.53-3.3-2.79-6.7-.42-9.3,1-1.1,2.56-1.7,3.87-2.52h2.67a7.68,7.68,0,0,1,4.8,3.75L43.56,0h1.22c1.76.64,3.53,1.29,5.3,1.91a.92.92,0,0,0,.59,0C52.43,1.3,54.18.65,55.94,0ZM74.66,20.53a10.87,10.87,0,0,1,0-1.56A2.24,2.24,0,0,0,73,16.11c-3.14-1-4.71-3.46-5.56-6.45a1.74,1.74,0,0,0-2-1.41c-3.14.14-5.87-.73-7.84-3.35-.17-.23-.44-.37-.61-.59-.48-.63-1-.6-1.7-.34a23.87,23.87,0,0,1-3.55,1.19,5.93,5.93,0,0,1-2.55,0c-1.29-.29-2.51-.88-3.8-1.22A1.69,1.69,0,0,0,44,4.23c-1.24,1-2.41,2.16-3.58,3.27a1.82,1.82,0,0,0-.49.79c-1.16,3.74-3.47,5.43-7.33,5.34a1.78,1.78,0,0,0-.93.09c-1.63.95-3.21,2-4.85,2.92-.58.33-.84.65-.73,1.32a10.07,10.07,0,0,1-3,9.43A1.17,1.17,0,0,0,22.92,29a9.89,9.89,0,0,1,1,9.73,1.23,1.23,0,0,0,.53,1.66,9.69,9.69,0,0,1,4.86,8.36,1.35,1.35,0,0,0,1.3,1.43,9.5,9.5,0,0,1,7.66,5.51,1.4,1.4,0,0,0,1.85.86,9.67,9.67,0,0,1,9.34,2,1.3,1.3,0,0,0,1.84,0c2.67-2.11,5.59-3.12,9-2.05.07,0,.16,0,.24,0a1.5,1.5,0,0,0,2-.94,9.25,9.25,0,0,1,7.36-5.36,1.64,1.64,0,0,0,1.58-1.75A8.92,8.92,0,0,1,75.9,40.8a1.89,1.89,0,0,0,.84-2.65,8.34,8.34,0,0,1,.82-8.36c.84-1.22.5-2.11-.37-3.17C75.68,24.77,73.79,23,74.66,20.53Zm2.77,61.34L86.85,85,71.52,53.43c-3.82.86-3.82.86-5.94,3.88-.41.59-.87,1.17-1.25,1.79A2.11,2.11,0,0,1,62,60.18c-.92-.14-1.86-.2-3-.32L74,91.2ZM33.29,3.4a3.5,3.5,0,0,0-3.48,3.45,3.47,3.47,0,0,0,6.93,0A3.49,3.49,0,0,0,33.29,3.4Z"/><path d="M50.43,52.21a20.82,20.82,0,1,1,20.8-20.54A20.84,20.84,0,0,1,50.43,52.21Zm0-38.18a17.39,17.39,0,1,0,17.4,17.4A17.34,17.34,0,0,0,50.43,14Z"/><path d="M40,30.59l6.24,6.31L61.09,22.05l2.24,2.64L46.63,41.63l-8.86-8.86Z"/></svg>