<svg id="Layer_1" data-name="Layer 1" xmlns="http://www.w3.org/2000/svg" width="100" height="100" viewBox="0 0 100 100"><title>centralized-digital-platform-solution</title><path d="M36.2,44.74c1.6-11.83,12.65-16.69,21.73-14.91A17.8,17.8,0,0,1,71.65,52.59c.22.13.45.28.69.41A6.7,6.7,0,0,1,76,60.57a6.8,6.8,0,0,1-6.71,5.22c-11,0-21.95,0-32.92,0a16.32,16.32,0,0,1-4.88-.63,10.39,10.39,0,0,1-7-11.5,10.76,10.76,0,0,1,10.71-8.9ZM41,50.88a7.44,7.44,0,0,0-9.12-2.2,7.26,7.26,0,0,0,3,13.87c11.39,0,22.78,0,34.17,0a6.27,6.27,0,0,0,.75,0,3.6,3.6,0,0,0,3.12-3.35,3.55,3.55,0,0,0-2.8-3.61c-.36-.08-.74-.09-1.1-.18a1.54,1.54,0,0,1-1.12-2.36,13,13,0,0,0,.88-9.3c-2.25-8.84-11.88-13.44-20.63-9.85a13,13,0,0,0-8.43,10.38,2.06,2.06,0,0,0,.39,1.6c1.26,1.1,2.66,2,4.14,3.17l5-2.83V61.06L36.07,53.75Z"/><path d="M76.3,78.19l-3.68-3.8c-.89-.91-1-1.77-.36-2.49s1.67-.72,2.61.17,2.11,2,3.1,3a1.47,1.47,0,0,0,1.83.41,6.67,6.67,0,0,1,7.41,2,6.43,6.43,0,0,1,.61,7.22,6.73,6.73,0,0,1-8.95,2.59A6.45,6.45,0,0,1,76,78.77C76.13,78.55,76.23,78.33,76.3,78.19ZM82,85a3.42,3.42,0,0,0,3.46-3.3,3.52,3.52,0,0,0-3.41-3.41,3.46,3.46,0,0,0-3.48,3.42A3.32,3.32,0,0,0,82,85Z"/><path d="M26.24,24.43l4.18,4.09-2.56,2.66c-1.18-1.35-2.31-2.6-3.41-3.89a1.4,1.4,0,0,0-1.72-.42,6.61,6.61,0,0,1-8.41-4.51,6.51,6.51,0,0,1,4.71-8,6.66,6.66,0,0,1,8.21,4.92A6.59,6.59,0,0,1,26.24,24.43ZM20.8,24a3.28,3.28,0,0,0,3.34-3.39,3.4,3.4,0,0,0-6.8.11A3.3,3.3,0,0,0,20.8,24Z"/><path d="M73.56,31.13l-2.14-2.7c.86-.85,1.86-1.94,3-2.93a1.22,1.22,0,0,0,.32-1.67,6.42,6.42,0,0,1,3.81-8.5,6.71,6.71,0,0,1,8.67,4.06,6.47,6.47,0,0,1-4.26,8.2c-1.78.57-3.09.45-5.69-.6Zm7.26-13.07a3.48,3.48,0,0,0-3.44,3.36,3.45,3.45,0,0,0,3.56,3.34,3.35,3.35,0,1,0-.12-6.7Z"/><path d="M26.79,71.6,29.18,74c-1.09,1.13-2.11,2.26-3.22,3.29A1.23,1.23,0,0,0,25.65,79,6.41,6.41,0,0,1,22,87.67a6.71,6.71,0,0,1-8.78-4,6.35,6.35,0,0,1,4.55-8.2c1.34-.31,2.83.11,4.26.13a2.08,2.08,0,0,0,1.36-.31C24.56,74.12,25.61,72.89,26.79,71.6ZM19.61,85A3.39,3.39,0,0,0,23,81.63a3.5,3.5,0,0,0-3.41-3.39,3.44,3.44,0,0,0-3.46,3.44A3.29,3.29,0,0,0,19.61,85Z"/><path d="M13.29,49.19h5.36v3.2c-1.48,0-3,0-4.43,0a1.58,1.58,0,0,0-1.69,1A6.66,6.66,0,0,1,3.23,56a6.4,6.4,0,0,1-2.19-9,6.4,6.4,0,0,1,6.39-3,6.42,6.42,0,0,1,5.45,4.12C13,48.39,13.13,48.74,13.29,49.19ZM6.7,47a3.36,3.36,0,1,0-.08,6.72A3.36,3.36,0,1,0,6.7,47Z"/><path d="M52.45,19.42H49.18c0-1.51,0-3,0-4.39a1.22,1.22,0,0,0-.88-1.38,6.39,6.39,0,0,1-4-7.39,6.69,6.69,0,0,1,13.06.23,6.38,6.38,0,0,1-4.05,7.15A1.18,1.18,0,0,0,52.44,15C52.48,16.45,52.45,17.89,52.45,19.42ZM50.86,4.33A3.39,3.39,0,0,0,47.35,7.6,3.5,3.5,0,0,0,50.74,11a3.44,3.44,0,0,0,3.47-3.33A3.28,3.28,0,0,0,50.86,4.33Z"/><path d="M49.18,80.58h3.27c0,1.49,0,3,0,4.43a1.19,1.19,0,0,0,.87,1.36,6.38,6.38,0,0,1,4,7.16,6.7,6.7,0,0,1-13.06.2,6.37,6.37,0,0,1,3.93-7.34,1.37,1.37,0,0,0,1-1.56C49.14,83.44,49.18,82,49.18,80.58Zm1.56,15.09a3.28,3.28,0,0,0,3.47-3.27A3.44,3.44,0,0,0,50.85,89a3.52,3.52,0,0,0-3.5,3.33A3.38,3.38,0,0,0,50.74,95.67Z"/><path d="M81.32,49.17c1.44,0,2.8-.05,4.15,0a1.64,1.64,0,0,0,1.85-1.14,6.21,6.21,0,0,1,6.08-3.73,6.28,6.28,0,0,1,5.94,3.79,6.05,6.05,0,0,1-.85,6.75,6.67,6.67,0,0,1-11.23-1.43,1.48,1.48,0,0,0-1.65-1.06c-1.39.07-2.8,0-4.29,0Zm12,4.95a3.31,3.31,0,0,0,3.37-3.38,3.45,3.45,0,0,0-3.47-3.33,3.5,3.5,0,0,0-3.4,3.44A3.4,3.4,0,0,0,93.35,54.12Z"/></svg>