<svg id="Layer_1" data-name="Layer 1" xmlns="http://www.w3.org/2000/svg" width="100" height="100" viewBox="0 0 100 100"><title>cloud-native</title><path d="M51.66,46.7V63.18h1.28c4.18,0,8.37,0,12.56,0a5.9,5.9,0,0,1,6.29,6.22q0,8.75,0,17.49a5.9,5.9,0,0,1-6.16,6.26q-15.66.07-31.34,0A5.86,5.86,0,0,1,28.21,87q0-8.8,0-17.61a5.9,5.9,0,0,1,6.24-6.16c4.18,0,8.37,0,12.56,0H48.4V46c0-1.84.44-2.29,2.25-2.32,2.5,0,5-.09,7.51-.1a1.17,1.17,0,0,0,1.36-.91,6.3,6.3,0,0,1,11.8-.09,1.09,1.09,0,0,0,1.23.88c4.13,0,7.65-3.81,7.61-8.24s-2.34-7-6.76-7.66A1.56,1.56,0,0,1,72.21,25a8.42,8.42,0,0,0,1-2.58A4.29,4.29,0,0,0,71.08,18a4.73,4.73,0,0,0-5.21.28,8.93,8.93,0,0,0-1.26,1,1.58,1.58,0,0,1-2.14.19,1.5,1.5,0,0,1-.46-2,9.48,9.48,0,0,0,.42-7C60.93,6,57.63,3.72,53,3.17c-3.83-.45-7.31,1.47-9.34,5.17a2.18,2.18,0,0,1-2,1.18c-5,.43-8.63,3.41-9.67,8a18.08,18.08,0,0,0-.26,2.09c-.09,1-.64,1.46-1.65,1.63a18.1,18.1,0,0,0-4.41,1.06c-4.09,1.84-5.75,5.28-5.86,9.62A11.52,11.52,0,0,0,28.22,43.3a15,15,0,0,0,1.56.25V37.91L42.65,45.2l-12.8,7.27V46.82a24.49,24.49,0,0,1-2.69-.56C21.59,44.45,18,40.67,17,34.93s.36-10.8,5.34-14.28a22.38,22.38,0,0,1,5.45-2.3c.63-.22,1-.4,1.11-1.09A13.32,13.32,0,0,1,40,6.52a2.48,2.48,0,0,0,1.5-.87A12.39,12.39,0,0,1,54.94.32,13,13,0,0,1,65.71,10.49a29.76,29.76,0,0,1,.46,4.07c3-.82,5.85-.42,8.12,1.94S76.9,21.65,76,24.72c.24.12.44.22.65.31,4.62,1.87,7.06,6,6.65,11.24a11.47,11.47,0,0,1-8.54,10.06c-1,.21-2.25-.14-3.1.3S70.59,48.28,69.9,49a6.28,6.28,0,0,1-10-1.42,1.45,1.45,0,0,0-1.54-.88C56.19,46.73,54,46.7,51.66,46.7ZM50,90H65.38c2.24,0,3.2-1,3.2-3.23V69.51c0-2.13-1-3.2-3.15-3.2q-15.44,0-30.87,0c-2.11,0-3.13,1.07-3.13,3.21q0,8.63,0,17.25c0,2.25,1,3.22,3.2,3.22ZM62.2,44.69a3.26,3.26,0,0,0,3.22,3.19,3.31,3.31,0,0,0,3.26-3.3,3.22,3.22,0,0,0-3.31-3.09A3.15,3.15,0,0,0,62.2,44.69Z"/><path d="M39.63,100V97H60.35v3Z"/></svg>