<svg xmlns="http://www.w3.org/2000/svg" viewBox="0 0 971.61 1352.15"><defs><style>.cls-1{fill:#09321d}.cls-2{fill:#d8e7da}.cls-3,.cls-5{fill:none;stroke:#fff;stroke-miterlimit:10;stroke-width:3px}.cls-4{fill:#fff}.cls-5{stroke-linecap:square}</style></defs><g id="Layer_3" data-name="Layer 3"><path class="cls-1" transform="rotate(45 413.763 67.616)" d="M349.43 3.29H478.1v128.67H349.43z"/><path class="cls-1" transform="rotate(45 513.81 167.667)" d="M449.47 103.33h128.67V232H449.47z"/><path class="cls-1" transform="rotate(45 413.764 270.527)" d="M349.43 206.19H478.1v128.67H349.43z"/><path class="cls-1" transform="rotate(45 513.807 370.566)" d="M449.47 306.24h128.67v128.67H449.47z"/><path class="cls-1" transform="rotate(45 413.76 473.425)" d="M349.43 409.1H478.1v128.67H349.43z"/><path class="cls-1" transform="rotate(45 513.808 573.476)" d="M449.47 509.14h128.67v128.67H449.47z"/><path class="cls-1" transform="rotate(45 413.762 676.336)" d="M349.43 612H478.1v128.67H349.43z"/><path class="cls-1" transform="rotate(45 513.805 776.375)" d="M449.47 712.05h128.67v128.67H449.47z"/><path class="cls-1" transform="rotate(45 413.76 879.235)" d="M349.43 814.9H478.1v128.67H349.43z"/><path class="cls-1" transform="rotate(45 513.807 979.286)" d="M449.47 914.95h128.67v128.67H449.47z"/><path class="cls-2" d="M971.5 230.08V105.25H552.93l62.41 62.42-62.41 62.41H971.5zM971.5 432.99V308.15H552.93l62.41 62.42-62.41 62.42H971.5zM971.5 635.89V511.06H552.93l62.41 62.42-62.41 62.41H971.5zM971.5 838.8V713.96H552.93v.01l62.41 62.41-62.41 62.42H971.5zM971.5 1041.7V916.87H552.93l62.41 62.42-62.41 62.41H971.5zM1.4 130.04V5.2h373.21v.01L312.2 67.62l62.41 62.42H1.4zM1.32 355.41V185.45h396.01l-84.44 84.98 84.44 84.98H1.32zM1.4 535.85V411.01h373.21l-62.41 62.42 62.41 62.42H1.4zM1.4 738.75V613.92h373.21l-62.41 62.42 62.41 62.41H1.4zM1.4 941.66V816.82h373.21v.01l-62.41 62.41 62.41 62.42H1.4z"/><path class="cls-1" transform="rotate(45 413.762 1079.826)" d="M349.43 1015.5H478.1v128.67H349.43z"/><path class="cls-1" transform="rotate(45 513.81 1179.877)" d="M449.47 1115.55h128.67v128.67H449.47z"/><path class="cls-1" transform="rotate(45 413.763 1282.736)" d="M349.43 1218.4H478.1v128.67H349.43z"/><path class="cls-2" d="M971.5 1242.3v-124.84H552.93l62.41 62.42-62.41 62.42H971.5zM1.4 1142.25v-124.83h373.21l-62.41 62.42 62.41 62.41H1.4zM1.4 1345.16v-124.84h373.21l-62.41 62.42 62.41 62.42H1.4z"/><path class="cls-3" d="M406.82 27.86l-34.31 16.98 41.25 20.41 41.25-20.41-38.35-18.98"/><path class="cls-4" d="M402.6 23.27l11.94.77-6.63 9.96-5.31-10.73z"/><path class="cls-3" d="M436.83 75.2c4.49-2.85 7.19-6.51 7.19-10.51V49.76M382.16 49.76v14.93c0 9 13.85 16.39 30.93 16.39a54.37 54.37 0 0 0 14.08-1.79"/><path class="cls-3" d="M413.76 44.59L432 56.22v37.37"/><circle class="cls-3" cx="432" cy="98.36" r="5"/><path class="cls-3" d="M435.01 102.36v9.61M429.13 102.66v9.31"/><g id="_Group_" data-name="Group"><circle id="_Ellipse_" data-name="Ellipse" class="cls-3" cx="500.8" cy="128.84" r="5"/><g id="_Group_2" data-name="Group 2"><path id="_Path_" data-name="Path" class="cls-3" d="M527.81 204.85v-15.78h15.04"/><g id="_Group_3" data-name="Group 3"><g id="_Group_4" data-name="Group 4"><g id="_Group_5" data-name="Group 5"><path id="_Path_2" data-name="Path 2" class="cls-3" d="M484.13 134.28v70.57h43.68l15.04-15.49v-60.72h-37.31"/><g id="_Group_6" data-name="Group 6"><path id="_Path_3" data-name="Path 3" class="cls-4" d="M478.15 136.03l5.98-10.36 5.99 10.36h-11.97z"/></g></g></g><path id="_Path_4" data-name="Path 4" class="cls-3" d="M494.22 146.4h29.17"/><g id="_Group_7" data-name="Group 7"><path id="_Path_5" data-name="Path 5" class="cls-3" d="M494.2 156.43H514"/><path id="_Path_6" data-name="Path 6" class="cls-3" d="M494.2 165.58H514"/></g><g id="_Group_8" data-name="Group 8"><path id="_Path_7" data-name="Path 7" class="cls-3" d="M490.75 204.85v6.65h43.68l15.04-15.49v-60.72h-6.62"/></g></g></g></g><rect class="cls-3" x="391.1" y="245.37" width="45.32" height="30.21" rx="4.94" ry="4.94"/><path class="cls-3" d="M389.57 295.75v-7.31a4.78 4.78 0 0 1 4.72-4.82h38.89a4.77 4.77 0 0 1 4.77 4.77v7.31M387.9 253.87h3.2v13.21h-3.2a4.35 4.35 0 0 1-4.35-4.35v-4.51a4.35 4.35 0 0 1 4.35-4.35zM436.42 253.87h3.2a4.35 4.35 0 0 1 4.35 4.35v4.51a4.35 4.35 0 0 1-4.35 4.35h-3.2v-13.21zM402.58 245.07v-6.84M424.94 245.07v-6.84"/><circle class="cls-3" cx="424.94" cy="233.81" r="4.53"/><circle class="cls-3" cx="402.58" cy="233.81" r="4.53"/><circle class="cls-3" cx="402.79" cy="257" r="5"/><circle class="cls-3" cx="424.73" cy="257" r="5"/><path class="cls-3" d="M418.29 265.21a4.53 4.53 0 0 1-9.06 0M403.94 283.66v-8.08h19.64v8.08M442.87 240.31a41.64 41.64 0 1 1-51.11-5.58"/><path class="cls-4" d="M440.34 246.16l-4.22-11.2 11.81 1.95-7.59 9.25z"/><circle class="cls-5" cx="515.85" cy="347.56" r="5"/><path class="cls-5" d="M521.57 348.81a20.9 20.9 0 1 1-34.26 7.19"/><path class="cls-4" d="M491.77 360.77l.25-11.96-10.49 5.77 10.24 6.19z"/><path class="cls-5" d="M528.06 342.28a30.07 30.07 0 1 0-4.19 46l17.75 17.81a5.43 5.43 0 1 0 7.68-7.68l-17.75-17.75a30.08 30.08 0 0 0-3.49-38.38z"/><path class="cls-3" d="M398.19 467.62H424v15.65a4.7 4.7 0 0 1-4.7 4.7h-16.41a4.69 4.69 0 0 1-4.7-4.7v-15.65z"/><path class="cls-3" d="M410.16 451.45h1.9a8.48 8.48 0 0 1 8.47 8.47v7.71h-18.85v-7.72a8.47 8.47 0 0 1 8.48-8.46zM411.11 474.65v6.77"/><path class="cls-3" d="M444.11 454v14.3a48.19 48.19 0 0 1-23.17 41.17l-10.12 6.12-10.16-6.12a48.15 48.15 0 0 1-23.22-41.17v-22.93c21.1-2.25 33.33-14.09 33.33-14.09s5.44 5.87 16.66 10.16"/><path class="cls-4" d="M438.12 455.73l5.99-10.36 5.98 10.36h-11.97z"/><circle class="cls-3" cx="433.17" cy="442.97" r="5"/><circle class="cls-3" cx="491.52" cy="540.14" r="8.24"/><path class="cls-3" d="M494.52 583.91h17.16A14.32 14.32 0 0 1 526 598.22v16.83h-9.25v-14.7a6.45 6.45 0 0 0-6.45-6.45h-19.78a7.82 7.82 0 0 1-7.82-7.82V560a6.51 6.51 0 0 1 6.52-6.52h6.56l16.74 12.82h10.73a4.26 4.26 0 0 1 4.27 4.25v3.88h-20l-11.67-9.52M500.32 568.91v15M537.68 533.58v34.52M537.68 550.24h8.17v25M512.34 574.43h46.17M551.51 574.43v40.63"/><path class="cls-3" d="M475.09 551.68v42.06h26.92"/><path class="cls-4" d="M469.11 553.43l5.98-10.35 5.99 10.35h-11.97z"/><path class="cls-3" d="M490.54 593.91v21.15M452.44 649.19v55.18H369.1v-63.79h41.72"/><path class="cls-4" d="M446.45 650.94l5.99-10.36 5.98 10.36h-11.97z"/><path class="cls-3" d="M452.44 689.86H369.1M410.77 704.37v17.54M394.1 721.91h33.34"/><circle class="cls-3" cx="426.44" cy="640.58" r="5"/><path class="cls-3" d="M441.35 640.58s-4 9.82-14.91 9.82c-10.69 0-14.92-9.82-14.92-9.82s4.46-9.82 14.92-9.82a15.82 15.82 0 0 1 14.91 9.82zM383.27 679.08h11.02v10.77h-11.02zM394.29 670.11h11.03v19.74h-11.03zM405.32 659.21h11.02v30.64h-11.02zM416.34 665.84h11.03v24.02h-11.03zM427.37 671.01h11.02v18.84h-11.02z"/><path class="cls-5" d="M524.79 813.57h-47.36v-66.68l16.66-16.66h50v18.79"/><path class="cls-4" d="M538.11 747.27l5.98 10.36 5.99-10.36h-11.97z"/><path class="cls-5" d="M544.09 801.5v12.07h-9.05"/><path class="cls-5" d="M550.18 778.28a20.17 20.17 0 1 0-24.1 19.78v20.54a3.92 3.92 0 0 0 3.93 3.93 3.92 3.92 0 0 0 3.93-3.93v-20.54a20.16 20.16 0 0 0 16.24-19.78z"/><circle class="cls-5" cx="530.01" cy="778.08" r="13.87"/><path class="cls-3" d="M494.09 730.23v16.66h-16.66M510.76 741.11h19.25M490.01 759.36h32.59M490.01 773.61h19.83M490.01 787.86h21.25M490.01 802.11h35.24"/><g id="_Group_2-2" data-name="Group"><g id="_Group_2-3" data-name="Group 2"><circle id="_Path_2-2" data-name="Path" class="cls-5" cx="396.88" cy="837.08" r="5"/></g><g id="_Group_3-2" data-name="Group 3"><path class="cls-3" d="M403.48 837.08h42.91v61.37"/><path class="cls-4" d="M440.41 896.69l5.98 10.37 5.98-10.37h-11.96z"/></g><g id="_Group_4-2" data-name="Group 4"><path id="_Path_2-3" data-name="Path 2" class="cls-5" d="M423.75 907.06l16.28 19.33"/><g id="_Group_5-2" data-name="Group 5"><path id="_Path_3-2" data-name="Path 3" class="cls-5" d="M396.11 896.58a22.57 22.57 0 0 0 8.59 0l3.19 3.79a26.8 26.8 0 0 0 6.26-2.6l-.45-4.9a23.13 23.13 0 0 0 6.08-6.08l4.85.45a27 27 0 0 0 2.14-4.89"/><path id="_Path_4-2" data-name="Path 4" class="cls-5" d="M423.89 874a20.6 20.6 0 0 0-30.74 26.15"/><path id="_Path_5-2" data-name="Path 5" class="cls-5" d="M393.15 900.15A20.61 20.61 0 1 0 423.89 874"/></g><path id="_Path_6-2" data-name="Path 6" class="cls-3" d="M415.26 869.5a15.43 15.43 0 0 1-24.13 16.5"/><g id="_Group_6-2" data-name="Group 6"><path id="_Path_7-2" data-name="Path 7" class="cls-5" d="M416.44 869.54a11 11 0 0 0-.24-1.9l3-2.54a23.08 23.08 0 0 0-2.12-5.21l-4 .37a19.64 19.64 0 0 0-5-5l.37-4a22.78 22.78 0 0 0-5.15-2.14l-2.6 3.12a18.68 18.68 0 0 0-7.07 0l-2.63-3.12a23.52 23.52 0 0 0-5.16 2.14l.38 4a19.48 19.48 0 0 0-5 5l-4-.37a23.52 23.52 0 0 0-2.11 5.21l3.05 2.54a19.31 19.31 0 0 0-.32 3.3v.23a19.22 19.22 0 0 0 .32 3.3l-3 2.53a22.71 22.71 0 0 0 2.12 5.21l4-.37a19.17 19.17 0 0 0 5 5l-.38 4a22.48 22.48 0 0 0 3.74 1.7"/><path id="_Path_8" data-name="Path 8" class="cls-5" d="M389.59 881.18a12.69 12.69 0 1 1 19.86-13.56"/></g></g></g><path class="cls-3" d="M550.18 974.95v33.79h-78.73v-60.6h27.2"/><path class="cls-4" d="M544.2 976.7l5.98-10.36 5.99 10.36H544.2z"/><path class="cls-3" d="M513.37 1008.7v16.7M496.45 1025.4h33.33M516.23 941.17h9.56v16.5h-9.56z"/><path class="cls-3" d="M541.35 965.67l-15.57-8v-16.5l15.57-8v32.5z"/><circle class="cls-3" cx="504.55" cy="948.14" r="5"/><path class="cls-3" d="M546.37 950.32h7.95M546.37 958.9h7.95M546.37 941.99h7.95"/><g id="_Group_3-3" data-name="Group"><circle id="_Ellipse_2" data-name="Ellipse" class="cls-5" cx="440.77" cy="1057.33" r="5"/><g id="_Group_2-4" data-name="Group 2"><path class="cls-5" d="M435.77 1057.33h-53a5.33 5.33 0 0 0-5.33 5.33V1102a5.32 5.32 0 0 0 5.33 5.33h54.67a6.66 6.66 0 0 0 6.66-6.66v-24"/><path class="cls-4" d="M450.09 1078.36L444.1 1068l-5.98 10.36h11.97z"/></g><path id="_Path_3-3" data-name="Path" class="cls-5" d="M410.09 1077.2v10.72"/><path id="_Path_2-4" data-name="Path 2" class="cls-5" d="M415.45 1073.03v21.15"/><path id="_Path_3-4" data-name="Path 3" class="cls-5" d="M421.41 1065.58v30.83"/><path id="_Path_4-3" data-name="Path 4" class="cls-5" d="M427.07 1072.88v21.45"/><path id="_Path_5-3" data-name="Path 5" class="cls-5" d="M432.43 1077.2v10.72"/><path id="_Path_6-3" data-name="Path 6" class="cls-5" d="M387.44 1077.2v10.72"/><path id="_Path_7-3" data-name="Path 7" class="cls-5" d="M392.81 1073.03v21.15"/><path id="_Path_8-2" data-name="Path 8" class="cls-5" d="M398.77 1065.58v30.83"/><path id="_Path_9" data-name="Path 9" class="cls-5" d="M404.43 1072.88v21.45"/></g><path class="cls-3" d="M546 1179.89s-10.17 17.88-32.17 17.88-32.17-17.88-32.17-17.88a26.86 26.86 0 0 1 2.17-3.13 38.12 38.12 0 0 1 30-14.77c21.98.01 32.17 17.9 32.17 17.9z"/><circle class="cls-3" cx="513.81" cy="1179.88" r="15.74"/><circle class="cls-3" cx="513.81" cy="1179.88" r="5.19"/><path class="cls-3" d="M513.81 1152.44v-13.11"/><path class="cls-4" d="M519.79 1141.08l-5.98-10.36-5.98 10.36h11.96z"/><path class="cls-3" d="M513.81 1220.43v-13.11"/><path class="cls-4" d="M519.79 1218.68l-5.98 10.36-5.98-10.36h11.96z"/><path class="cls-3" d="M490.57 1155.17l-9.4-9.41"/><path class="cls-4" d="M486.63 1142.77l-11.55-3.09 3.09 11.55 8.46-8.46z"/><path class="cls-3" d="M546.45 1214l-9.4-9.41"/><path class="cls-4" d="M549.45 1208.53l3.09 11.56-11.56-3.1 8.47-8.46z"/><path class="cls-3" d="M537.05 1155.17l9.4-9.41"/><path class="cls-4" d="M549.45 1151.23l3.09-11.55-11.56 3.09 8.47 8.46z"/><path class="cls-3" d="M481.17 1214l9.4-9.41"/><path class="cls-4" d="M486.63 1216.99l-11.55 3.1 3.09-11.56 8.46 8.46z"/><g id="_Group_4-3" data-name="Group"><path id="_Path_4-4" data-name="Path" class="cls-5" d="M442.91 1248.88v36.76"/><path id="_Path_2-5" data-name="Path 2" class="cls-5" d="M418.18 1244.87h18.89"/><g id="_Group_2-5" data-name="Group 2"><path class="cls-5" d="M444.47 1320.61h-47.2V1313h-15.21v-22.82h-7.61c0-9.52 7.61-15.22 7.61-15.22v-14.71a15.37 15.37 0 0 1 15.37-15.39h10"/><path class="cls-4" d="M442.72 1314.63l10.36 5.98-10.36 5.99v-11.97z"/></g><path id="_Path_3-5" data-name="Path 3" class="cls-5" d="M382.57 1302.44h10.13"/><path id="_Path_4-5" data-name="Path 4" class="cls-5" d="M412.48 1249.42v25.55"/><path id="_Path_5-4" data-name="Path 5" class="cls-5" d="M442.91 1274.97h-41"/><path id="_Path_6-4" data-name="Path 6" class="cls-5" d="M427.7 1264.31v56.3"/><g id="_Group_3-4" data-name="Group 3"><circle id="_Ellipse_3" data-name="Ellipse" class="cls-5" cx="442.91" cy="1291.69" r="5"/></g><g id="_Group_4-4" data-name="Group 4"><circle id="_Ellipse_2-2" data-name="Ellipse 2" class="cls-5" cx="395.91" cy="1274.97" r="5"/></g><g id="_Group_5-3" data-name="Group 5"><circle id="_Ellipse_3-2" data-name="Ellipse 3" class="cls-5" cx="412.48" cy="1243.88" r="5"/></g><g id="_Group_6-3" data-name="Group 6"><circle id="_Ellipse_4" data-name="Ellipse 4" class="cls-5" cx="442.52" cy="1243.89" r="5"/></g></g></g><g id="Layer_1" data-name="Layer 1"><path class="cls-1" d="M47.28 31.71V56h-3.13V31.71zM53 43.27c0-1.8 0-3.28-.14-4.72h2.81l.18 2.88h.07a6.41 6.41 0 0 1 5.76-3.27c2.41 0 6.15 1.44 6.15 7.41V56h-3.16V46c0-2.81-1.05-5.15-4-5.15A4.5 4.5 0 0 0 56.39 44a4.43 4.43 0 0 0-.22 1.48V56H53zM76.66 33.55v5h4.53V41h-4.53v9.4c0 2.16.61 3.38 2.37 3.38a7.53 7.53 0 0 0 1.84-.21L81 55.9a7.79 7.79 0 0 1-2.81.43A4.38 4.38 0 0 1 74.78 55c-.9-.93-1.22-2.48-1.22-4.53V41h-2.7v-2.45h2.7v-4.17zM86.3 47.84c.07 4.28 2.81 6 6 6a11.5 11.5 0 0 0 4.8-.84l.54 2.26a14 14 0 0 1-5.79 1.08c-5.37 0-8.57-3.52-8.57-8.78s3.09-9.39 8.17-9.39c5.69 0 7.2 5 7.2 8.2a11.11 11.11 0 0 1-.11 1.48zm9.29-2.27c0-2-.83-5.15-4.39-5.15-3.21 0-4.61 3-4.86 5.15zM102.57 30.42h3.17V56h-3.17zM111.07 30.42h3.17V56h-3.17zM123.09 33.66a1.86 1.86 0 0 1-2 1.94 1.88 1.88 0 0 1-1.91-1.94 1.93 1.93 0 0 1 2-2 1.87 1.87 0 0 1 1.91 2zM119.57 56V38.55h3.16V56zM143 38.55c-.07 1.26-.14 2.67-.14 4.79v10.11c0 4-.8 6.45-2.49 8A9.25 9.25 0 0 1 134 63.5a11.33 11.33 0 0 1-5.8-1.44l.79-2.41a9.88 9.88 0 0 0 5.16 1.35c3.23 0 5.61-1.69 5.61-6.08V53h-.07a6.22 6.22 0 0 1-5.54 2.91c-4.32 0-7.42-3.67-7.42-8.49 0-5.91 3.85-9.25 7.85-9.25a5.78 5.78 0 0 1 5.43 3h.07l.15-2.63zm-3.28 6.88a4.34 4.34 0 0 0-.18-1.44 4.55 4.55 0 0 0-4.42-3.35c-3 0-5.19 2.56-5.19 6.59 0 3.42 1.73 6.26 5.15 6.26a4.62 4.62 0 0 0 4.39-3.24 5.5 5.5 0 0 0 .25-1.69zM149.88 47.84c.07 4.28 2.81 6 6 6a11.55 11.55 0 0 0 4.83-.9l.54 2.26a14.06 14.06 0 0 1-5.8 1.08c-5.36 0-8.57-3.52-8.57-8.78s3.1-9.39 8.18-9.39c5.68 0 7.19 5 7.19 8.2a13.68 13.68 0 0 1-.1 1.48zm9.28-2.27c0-2-.82-5.15-4.39-5.15-3.2 0-4.6 3-4.86 5.15zM166.15 43.27c0-1.8 0-3.28-.15-4.72h2.81l.18 2.88h.07a6.42 6.42 0 0 1 5.76-3.27c2.42 0 6.16 1.44 6.16 7.41V56h-3.17V46c0-2.81-1-5.15-4-5.15a4.51 4.51 0 0 0-4.28 3.15 4.72 4.72 0 0 0-.21 1.48V56h-3.17zM189.8 33.55v5h4.54V41h-4.54v9.4c0 2.16.61 3.38 2.38 3.38a7.43 7.43 0 0 0 1.83-.21l.15 2.37a7.87 7.87 0 0 1-2.81.43 4.35 4.35 0 0 1-3.42-1.37c-.9-.93-1.23-2.48-1.23-4.53V41H184v-2.45h2.7v-4.17zM43.61 95.93a8.2 8.2 0 0 0 4.17 1.26c2.31 0 3.39-1.15 3.39-2.59s-.9-2.34-3.24-3.2c-3.13-1.12-4.61-2.84-4.61-4.93 0-2.81 2.27-5.11 6-5.11a8.64 8.64 0 0 1 4.28 1.08l-.79 2.3a6.77 6.77 0 0 0-3.56-1c-1.87 0-2.92 1.08-2.92 2.38s1 2.09 3.32 3c3 1.15 4.57 2.66 4.57 5.25 0 3.06-2.38 5.22-6.52 5.22a9.9 9.9 0 0 1-4.89-1.18zM74.06 90.32c0 6.44-4.46 9.25-8.67 9.25-4.72 0-8.35-3.46-8.35-9 0-5.83 3.81-9.25 8.63-9.25 5.01.04 8.39 3.68 8.39 9zm-13.82.18c0 3.81 2.2 6.69 5.29 6.69s5.29-2.84 5.29-6.76c0-3-1.47-6.7-5.22-6.7s-5.36 3.46-5.36 6.77zM78.06 73.62h3.17v25.55h-3.17zM101.13 94.42c0 1.8 0 3.39.15 4.75h-2.81l-.18-2.84h-.07a6.57 6.57 0 0 1-5.76 3.24c-2.74 0-6-1.51-6-7.63V81.75h3.17v9.65c0 3.31 1 5.54 3.88 5.54a4.57 4.57 0 0 0 4.18-2.88 4.62 4.62 0 0 0 .31-1.62V81.75h3.16zM110.21 76.75v5h4.53v2.41h-4.53v9.4c0 2.16.61 3.38 2.37 3.38a7.53 7.53 0 0 0 1.84-.21l.14 2.37a7.79 7.79 0 0 1-2.81.43 4.38 4.38 0 0 1-3.42-1.33c-.89-.93-1.22-2.48-1.22-4.53v-9.51h-2.7v-2.41h2.7v-4.17zM121.83 76.86a1.86 1.86 0 0 1-2 1.94 1.88 1.88 0 0 1-1.91-1.94 1.93 1.93 0 0 1 2-2 1.87 1.87 0 0 1 1.91 2zm-3.52 22.31V81.75h3.16v17.42zM142.5 90.32c0 6.44-4.47 9.25-8.68 9.25-4.71 0-8.35-3.46-8.35-9 0-5.83 3.82-9.25 8.64-9.25 5 .04 8.39 3.68 8.39 9zm-13.83.18c0 3.81 2.2 6.69 5.29 6.69s5.3-2.84 5.3-6.76c0-3-1.48-6.7-5.22-6.7s-5.37 3.46-5.37 6.77zM146.49 86.47c0-1.8 0-3.28-.14-4.72h2.81l.18 2.88h.07a6.41 6.41 0 0 1 5.76-3.27c2.41 0 6.15 1.44 6.15 7.41v10.4h-3.16v-10c0-2.81-1-5.15-4-5.15a4.51 4.51 0 0 0-4.25 3.24 4.43 4.43 0 0 0-.22 1.48v10.43h-3.17zM166 95.93a8.23 8.23 0 0 0 4.18 1.26c2.3 0 3.38-1.15 3.38-2.59s-.9-2.34-3.24-3.2c-3.13-1.12-4.61-2.84-4.61-4.93 0-2.81 2.27-5.11 6-5.11a8.64 8.64 0 0 1 4.28 1.08l-.79 2.3a6.84 6.84 0 0 0-3.57-1c-1.87 0-2.91 1.08-2.91 2.38s1 2.09 3.31 3c3 1.15 4.57 2.66 4.57 5.25 0 3.06-2.38 5.22-6.51 5.22a9.94 9.94 0 0 1-4.9-1.18zM43.72 234a11 11 0 0 0 5.61 1.59c3.2 0 5.08-1.69 5.08-4.14 0-2.27-1.3-3.57-4.58-4.83-3.95-1.4-6.4-3.45-6.4-6.87 0-3.78 3.13-6.59 7.84-6.59a11.05 11.05 0 0 1 5.37 1.19l-.87 2.56a9.53 9.53 0 0 0-4.6-1.16c-3.31 0-4.57 2-4.57 3.64 0 2.27 1.47 3.38 4.82 4.68 4.1 1.58 6.19 3.56 6.19 7.13 0 3.74-2.77 7-8.49 7a12.63 12.63 0 0 1-6.2-1.55zM61.79 226.07c0-2.23-.07-4-.15-5.68h2.85l.14 3h.07a6.86 6.86 0 0 1 6.19-3.39c4.22 0 7.38 3.56 7.38 8.86 0 6.26-3.81 9.35-7.92 9.35a6.09 6.09 0 0 1-5.35-2.74h-.07v9.47h-3.14zm3.13 4.65a7.18 7.18 0 0 0 .14 1.29 4.89 4.89 0 0 0 4.75 3.71c3.35 0 5.3-2.73 5.3-6.73 0-3.49-1.84-6.48-5.19-6.48a5 5 0 0 0-4.78 3.92 5.13 5.13 0 0 0-.22 1.3zM84 229.67c.08 4.29 2.81 6.05 6 6.05a11.31 11.31 0 0 0 4.82-.9l.54 2.27a14.13 14.13 0 0 1-5.79 1.08c-5.37 0-8.57-3.53-8.57-8.78s3.1-9.4 8.17-9.4c5.69 0 7.2 5 7.2 8.21a10.93 10.93 0 0 1-.11 1.47zm9.29-2.26c0-2-.83-5.15-4.39-5.15-3.2 0-4.61 3-4.86 5.15zM102.07 229.67c.07 4.29 2.81 6.05 6 6.05a11.38 11.38 0 0 0 4.82-.9l.54 2.27a14.23 14.23 0 0 1-5.8 1.08c-5.36 0-8.56-3.53-8.56-8.78s3.09-9.4 8.17-9.4c5.69 0 7.2 5 7.2 8.21a12.92 12.92 0 0 1-.11 1.47zm9.29-2.26c0-2-.83-5.15-4.39-5.15-3.21 0-4.61 3-4.86 5.15zM130.76 237.16a11.68 11.68 0 0 1-5 1c-5.26 0-8.68-3.56-8.68-8.89s3.67-9.25 9.36-9.25a10.44 10.44 0 0 1 4.39.9l-.72 2.44a7.35 7.35 0 0 0-3.67-.82c-4 0-6.15 2.95-6.15 6.58 0 4 2.59 6.52 6 6.52a9.11 9.11 0 0 0 3.89-.86zM134.47 212.25h3.17v10.87h.07a5.87 5.87 0 0 1 2.27-2.23 6.5 6.5 0 0 1 3.24-.9c2.34 0 6.08 1.44 6.08 7.45v10.37h-3.17v-10c0-2.81-1-5.18-4-5.18a4.56 4.56 0 0 0-4.25 3.17 3.83 3.83 0 0 0-.21 1.51v10.51h-3.17zM56.46 280.36a11.73 11.73 0 0 1-5 1c-5.25 0-8.67-3.56-8.67-8.89s3.67-9.25 9.36-9.25a10.44 10.44 0 0 1 4.39.9l-.72 2.44a7.38 7.38 0 0 0-3.67-.82c-4 0-6.16 2.95-6.16 6.58 0 4 2.59 6.52 6.05 6.52a9.11 9.11 0 0 0 3.89-.86zM75.72 272.15c0 6.45-4.47 9.25-8.68 9.25-4.71 0-8.35-3.45-8.35-9 0-5.83 3.82-9.25 8.64-9.25 5 .04 8.39 3.68 8.39 9zm-13.82.18c0 3.82 2.19 6.7 5.29 6.7s5.29-2.84 5.29-6.77c0-2.95-1.48-6.69-5.22-6.69s-5.36 3.43-5.36 6.76zM79.72 268.3c0-1.8 0-3.27-.15-4.71h2.81l.18 2.88h.07a6.4 6.4 0 0 1 5.76-3.28c2.41 0 6.16 1.44 6.16 7.42V281h-3.17v-10c0-2.81-1-5.15-4-5.15a4.49 4.49 0 0 0-4.25 3.24 4.33 4.33 0 0 0-.22 1.47V281h-3.19zM100.45 263.59l3.42 9.79a43.51 43.51 0 0 1 1.41 4.46h.1c.4-1.44.9-2.88 1.48-4.46l3.38-9.79h3.31L106.71 281h-3l-6.62-17.42zM118 272.87c.07 4.29 2.8 6.05 6 6.05a11.39 11.39 0 0 0 4.83-.9l.54 2.27a14.23 14.23 0 0 1-5.8 1.08c-5.36 0-8.57-3.53-8.57-8.78s3.1-9.4 8.17-9.4c5.69 0 7.2 5 7.2 8.21a13.46 13.46 0 0 1-.1 1.47zm9.28-2.26c0-2-.82-5.15-4.39-5.15-3.2 0-4.6 3-4.86 5.15zM134.22 269c0-2 0-3.81-.15-5.43h2.78L137 267h.15a5.23 5.23 0 0 1 4.82-3.82 3.52 3.52 0 0 1 .9.11v3a4.33 4.33 0 0 0-1.08-.11c-2.23 0-3.81 1.69-4.25 4.07a9.06 9.06 0 0 0-.14 1.47V281h-3.13zM145.56 277.77a8.29 8.29 0 0 0 4.17 1.26c2.31 0 3.39-1.15 3.39-2.59s-.9-2.34-3.24-3.21c-3.13-1.11-4.61-2.84-4.61-4.93 0-2.81 2.27-5.11 6-5.11a8.68 8.68 0 0 1 4.29 1.08l-.8 2.3a6.78 6.78 0 0 0-3.56-1c-1.87 0-2.92 1.08-2.92 2.37s1.05 2.09 3.32 2.95c3 1.16 4.57 2.67 4.57 5.26 0 3.06-2.38 5.22-6.52 5.22a9.9 9.9 0 0 1-4.89-1.19zM169.89 281l-.25-2.2h-.11a6.47 6.47 0 0 1-5.32 2.59 5 5 0 0 1-5.33-5c0-4.21 3.74-6.51 10.47-6.48v-.36c0-1.44-.39-4-4-4a8.58 8.58 0 0 0-4.53 1.3l-.72-2.09a10.78 10.78 0 0 1 5.72-1.55c5.33 0 6.63 3.64 6.63 7.13v6.51a25.22 25.22 0 0 0 .28 4.18zm-.46-8.89c-3.46-.07-7.38.54-7.38 3.92a2.8 2.8 0 0 0 3 3 4.35 4.35 0 0 0 4.22-2.92 3.52 3.52 0 0 0 .18-1zM181.27 258.58v5h4.54V266h-4.54v9.39c0 2.16.61 3.39 2.38 3.39a6.89 6.89 0 0 0 1.83-.22l.15 2.38a7.87 7.87 0 0 1-2.81.43 4.39 4.39 0 0 1-3.42-1.37c-.9-.94-1.23-2.49-1.23-4.54V266h-2.7v-2.41h2.7v-4.18zM192.9 258.69a2 2 0 0 1-3.93 0 1.94 1.94 0 0 1 2-2 1.89 1.89 0 0 1 1.93 2zM189.37 281v-17.41h3.17V281zM213.56 272.15c0 6.45-4.46 9.25-8.67 9.25-4.72 0-8.36-3.45-8.36-9 0-5.83 3.82-9.25 8.64-9.25 5.01.04 8.39 3.68 8.39 9zm-13.82.18c0 3.82 2.19 6.7 5.29 6.7s5.29-2.84 5.29-6.77c0-2.95-1.47-6.69-5.22-6.69s-5.36 3.43-5.36 6.76zM217.56 268.3c0-1.8 0-3.27-.15-4.71h2.81l.18 2.88h.07a6.41 6.41 0 0 1 5.76-3.28c2.41 0 6.16 1.44 6.16 7.42V281h-3.17v-10c0-2.81-1-5.15-4-5.15a4.49 4.49 0 0 0-4.25 3.24 4.61 4.61 0 0 0-.21 1.47V281h-3.17zM247.18 281l-.25-2.2h-.11a6.47 6.47 0 0 1-5.32 2.59 5 5 0 0 1-5.33-5c0-4.21 3.74-6.51 10.47-6.48v-.36c0-1.44-.39-4-3.95-4a8.61 8.61 0 0 0-4.54 1.3l-.72-2.09a10.78 10.78 0 0 1 5.72-1.55c5.33 0 6.63 3.64 6.63 7.13v6.51a25.22 25.22 0 0 0 .28 4.18zm-.46-8.89c-3.46-.07-7.38.54-7.38 3.92a2.8 2.8 0 0 0 3 3 4.35 4.35 0 0 0 4.22-2.92 3.52 3.52 0 0 0 .18-1zM254.89 255.45h3.17V281h-3.17zM47.57 301.89a2 2 0 0 1-3.93 0 1.94 1.94 0 0 1 2-2 1.89 1.89 0 0 1 1.93 2zM44 324.21v-17.42h3.17v17.42zM52.46 311.5c0-1.8 0-3.27-.14-4.71h2.81l.18 2.88h.07a6.4 6.4 0 0 1 5.76-3.28c2.41 0 6.15 1.44 6.15 7.42v10.4h-3.16v-10c0-2.81-1-5.15-4-5.15a4.49 4.49 0 0 0-4.24 3.24 4.33 4.33 0 0 0-.22 1.47v10.48h-3.21zM76.12 301.78v5h4.53v2.41h-4.53v9.39c0 2.16.61 3.39 2.37 3.39a7 7 0 0 0 1.84-.22l.14 2.38a7.79 7.79 0 0 1-2.81.43 4.42 4.42 0 0 1-3.42-1.33c-.9-.94-1.22-2.49-1.22-4.54v-9.5h-2.7v-2.41H73v-4.18zM85.76 316.07c.08 4.29 2.81 6.05 6 6.05a11.34 11.34 0 0 0 4.82-.9l.54 2.27a14.13 14.13 0 0 1-5.79 1.08c-5.37 0-8.57-3.53-8.57-8.78s3.1-9.4 8.17-9.4c5.69 0 7.2 5 7.2 8.21a10.93 10.93 0 0 1-.11 1.47zm9.29-2.26c0-2-.83-5.15-4.39-5.15-3.21 0-4.61 2.95-4.86 5.15zM102 298.65h3.17v25.56H102zM110.53 298.65h3.17v25.56h-3.17zM122.55 301.89a1.87 1.87 0 0 1-2 1.95 1.89 1.89 0 0 1-1.91-1.95 1.94 1.94 0 0 1 2-2 1.88 1.88 0 0 1 1.91 2zM119 324.21v-17.42h3.16v17.42zM142.46 306.79c-.07 1.26-.14 2.66-.14 4.78v10.12c0 4-.8 6.44-2.49 7.95a9.2 9.2 0 0 1-6.33 2.09 11.23 11.23 0 0 1-5.8-1.44l.79-2.41a9.88 9.88 0 0 0 5.12 1.37c3.23 0 5.61-1.69 5.61-6.08v-1.95h-.07a6.23 6.23 0 0 1-5.54 2.92c-4.32 0-7.42-3.67-7.42-8.5 0-5.9 3.85-9.25 7.85-9.25a5.78 5.78 0 0 1 5.43 3h.07l.15-2.62zm-3.28 6.87a4.34 4.34 0 0 0-.18-1.44 4.56 4.56 0 0 0-4.42-3.35c-3 0-5.19 2.56-5.19 6.59 0 3.42 1.73 6.27 5.15 6.27a4.64 4.64 0 0 0 4.39-3.24 5.56 5.56 0 0 0 .25-1.7zM149.34 316.07c.07 4.29 2.81 6.05 6 6.05a11.39 11.39 0 0 0 4.83-.9l.54 2.27a14.23 14.23 0 0 1-5.8 1.08c-5.36 0-8.57-3.53-8.57-8.78s3.1-9.4 8.18-9.4c5.68 0 7.19 5 7.19 8.21a13.46 13.46 0 0 1-.1 1.47zm9.28-2.26c0-2-.82-5.15-4.39-5.15-3.2 0-4.6 2.95-4.86 5.15zM165.61 311.5c0-1.8 0-3.27-.15-4.71h2.81l.18 2.88h.07a6.41 6.41 0 0 1 5.76-3.28c2.42 0 6.16 1.44 6.16 7.42v10.4h-3.17v-10c0-2.81-1-5.15-4-5.15a4.49 4.49 0 0 0-4.25 3.24 4.61 4.61 0 0 0-.21 1.47v10.48h-3.17zM198 323.56a11.73 11.73 0 0 1-5 1c-5.25 0-8.67-3.56-8.67-8.89s3.67-9.25 9.36-9.25a10.6 10.6 0 0 1 4.39.9l-.72 2.44a7.38 7.38 0 0 0-3.67-.82c-4 0-6.16 2.95-6.16 6.58 0 4 2.59 6.52 6.05 6.52a9.11 9.11 0 0 0 3.89-.86zM203.27 316.07c.07 4.29 2.8 6.05 6 6.05a11.31 11.31 0 0 0 4.82-.9l.54 2.27a14.13 14.13 0 0 1-5.79 1.08c-5.36 0-8.57-3.53-8.57-8.78s3.1-9.4 8.17-9.4c5.69 0 7.2 5 7.2 8.21a10.93 10.93 0 0 1-.11 1.47zm9.28-2.26c0-2-.83-5.15-4.39-5.15-3.2 0-4.61 2.95-4.86 5.15zM44.15 437.81a36.44 36.44 0 0 1 6-.47c3.09 0 5.36.72 6.8 2a6.52 6.52 0 0 1 2.13 5.07 7.13 7.13 0 0 1-1.88 5.19c-1.65 1.76-4.35 2.66-7.41 2.66a11.35 11.35 0 0 1-2.52-.21v9.71h-3.12zm3.13 11.7a10.5 10.5 0 0 0 2.59.25c3.78 0 6.08-1.83 6.08-5.18s-2.26-4.75-5.72-4.75a12.79 12.79 0 0 0-2.95.25zM62.62 449.8c0-2.05 0-3.82-.15-5.44h2.77l.11 3.42h.14a5.24 5.24 0 0 1 4.83-3.78 3.54 3.54 0 0 1 .9.1v3a4.92 4.92 0 0 0-1.08-.11c-2.23 0-3.82 1.7-4.25 4.07a9.19 9.19 0 0 0-.14 1.48v9.28h-3.13zM75.79 453.65c.07 4.28 2.81 6.05 6 6.05a11.53 11.53 0 0 0 4.82-.9l.54 2.26a14 14 0 0 1-5.8 1.08c-5.36 0-8.56-3.52-8.56-8.78s3.07-9.36 8.15-9.36c5.69 0 7.2 5 7.2 8.2a11.26 11.26 0 0 1-.11 1.48zm9.29-2.27c0-2-.83-5.15-4.39-5.15-3.21 0-4.61 3-4.86 5.15zM93.29 444.36l3.42 9.79c.57 1.59 1 3 1.4 4.47h.11c.4-1.44.9-2.88 1.48-4.47l3.38-9.79h3.31l-6.84 17.42h-3l-6.65-17.42zM110.78 453.65c.08 4.28 2.81 6.05 6 6.05a11.5 11.5 0 0 0 4.82-.9l.54 2.26a14 14 0 0 1-5.79 1.08c-5.37 0-8.57-3.52-8.57-8.78s3.1-9.39 8.17-9.39c5.69 0 7.2 5 7.2 8.2a11.26 11.26 0 0 1-.11 1.48zm9.29-2.27c0-2-.83-5.15-4.39-5.15-3.21 0-4.61 3-4.86 5.15zM127.06 449.08c0-1.8 0-3.28-.15-4.72h2.81l.18 2.88h.1a6.41 6.41 0 0 1 5.76-3.27c2.41 0 6.16 1.44 6.16 7.41v10.4h-3.17v-10c0-2.81-1.05-5.15-4-5.15a4.51 4.51 0 0 0-4.25 3.24 4.43 4.43 0 0 0-.22 1.48v10.47h-3.16zM150.71 439.36v5h4.53v2.41h-4.53v9.4c0 2.16.61 3.38 2.37 3.38a7.53 7.53 0 0 0 1.84-.21l.14 2.37a7.79 7.79 0 0 1-2.81.43 4.38 4.38 0 0 1-3.42-1.33c-.89-.93-1.22-2.48-1.22-4.53v-9.51h-2.7v-2.41h2.7v-4.17zM162.33 439.47a1.86 1.86 0 0 1-2 1.94 1.88 1.88 0 0 1-1.91-1.94 1.93 1.93 0 0 1 2-2 1.87 1.87 0 0 1 1.91 2zm-3.52 22.31v-17.42H162v17.42zM168.45 444.36l3.42 9.79a44.45 44.45 0 0 1 1.41 4.47h.11c.39-1.44.89-2.88 1.47-4.47l3.38-9.79h3.32l-6.84 17.42h-3l-6.62-17.42zM186 453.65c.07 4.28 2.81 6.05 6 6.05a11.55 11.55 0 0 0 4.83-.9l.54 2.26a14.06 14.06 0 0 1-5.8 1.08c-5.36 0-8.56-3.52-8.56-8.78S186 444 191.1 444c5.68 0 7.2 5 7.2 8.2a13.35 13.35 0 0 1-.11 1.48zm9.29-2.27c0-2-.83-5.15-4.39-5.15-3.21 0-4.61 3-4.86 5.15zM44 492.28c0-1.8 0-3.28-.14-4.72h2.77l.14 2.81h.11a6 6 0 0 1 5.47-3.2 5.14 5.14 0 0 1 4.93 3.49h.07a7.22 7.22 0 0 1 2-2.27 5.93 5.93 0 0 1 3.85-1.22c2.3 0 5.72 1.51 5.72 7.56V505h-3.1v-9.86c0-3.35-1.23-5.36-3.78-5.36a4.11 4.11 0 0 0-3.75 2.88 5.34 5.34 0 0 0-.25 1.58V505H55v-10.45c0-2.78-1.23-4.79-3.64-4.79a4.72 4.72 0 0 0-4.17 4.71V505H44zM83.71 505l-.25-2.19h-.11a6.48 6.48 0 0 1-5.35 2.57 5 5 0 0 1-5.32-5c0-4.22 3.74-6.52 10.47-6.48v-.36c0-1.44-.39-4-4-4a8.66 8.66 0 0 0-4.53 1.29l-.62-2.12a10.84 10.84 0 0 1 5.72-1.54c5.33 0 6.62 3.63 6.62 7.12v6.52a24 24 0 0 0 .29 4.17zm-.47-8.89c-3.45-.07-7.38.54-7.38 3.93a2.8 2.8 0 0 0 3 3 4.32 4.32 0 0 0 4.21-2.92 3.2 3.2 0 0 0 .18-1zM94.94 482.67a1.86 1.86 0 0 1-2 1.94 1.88 1.88 0 0 1-1.94-1.94 1.93 1.93 0 0 1 2-2 1.87 1.87 0 0 1 1.94 2zM91.42 505v-17.44h3.16V505zM99.84 492.28c0-1.8 0-3.28-.14-4.72h2.8l.18 2.88h.07a6.42 6.42 0 0 1 5.76-3.27c2.42 0 6.16 1.44 6.16 7.41V505h-3.17v-10c0-2.81-1-5.15-4-5.15a4.51 4.51 0 0 0-4.25 3.24 4.72 4.72 0 0 0-.21 1.48V505h-3.2zM123.49 482.56v5H128V490h-4.54v9.4c0 2.16.61 3.38 2.38 3.38a7.43 7.43 0 0 0 1.83-.21l.15 2.37a7.87 7.87 0 0 1-2.81.43 4.35 4.35 0 0 1-3.42-1.33c-.9-.93-1.22-2.48-1.22-4.53V490h-2.7v-2.41h2.7v-4.17zM133.14 496.85c.07 4.28 2.81 6 6 6a11.55 11.55 0 0 0 4.83-.9l.54 2.26a14.06 14.06 0 0 1-5.8 1.08c-5.36 0-8.56-3.52-8.56-8.78s3.09-9.39 8.17-9.39c5.68 0 7.2 5 7.2 8.2a13.35 13.35 0 0 1-.11 1.48zm9.29-2.27c0-2-.83-5.15-4.4-5.15-3.2 0-4.6 3-4.86 5.15zM149.41 492.28c0-1.8 0-3.28-.14-4.72h2.8l.18 2.88h.08a6.41 6.41 0 0 1 5.76-3.27c2.41 0 6.15 1.44 6.15 7.41V505h-3.17v-10c0-2.81-1-5.15-4-5.15a4.51 4.51 0 0 0-4.25 3.24 4.72 4.72 0 0 0-.21 1.48V505h-3.17zM179 505l-.26-2.19h-.1a6.5 6.5 0 0 1-5.33 2.59 5 5 0 0 1-5.33-5c0-4.22 3.75-6.52 10.48-6.48v-.36c0-1.44-.4-4-4-4a8.73 8.73 0 0 0-4.46 1.24l-.72-2.09a10.88 10.88 0 0 1 5.73-1.54c5.32 0 6.62 3.63 6.62 7.12v6.52a24 24 0 0 0 .29 4.17zm-.47-8.89c-3.46-.07-7.38.54-7.38 3.93a2.8 2.8 0 0 0 3 3 4.32 4.32 0 0 0 4.21-2.92 3.2 3.2 0 0 0 .18-1zM186.74 492.28c0-1.8 0-3.28-.14-4.72h2.81l.18 2.88h.07a6.41 6.41 0 0 1 5.76-3.27c2.41 0 6.15 1.44 6.15 7.41V505h-3.17v-10c0-2.81-1-5.15-4-5.15a4.48 4.48 0 0 0-4.24 3.24 4.43 4.43 0 0 0-.22 1.48V505h-3.17zM219.14 504.34a11.71 11.71 0 0 1-5 1c-5.26 0-8.68-3.56-8.68-8.89s3.67-9.25 9.36-9.25a10.6 10.6 0 0 1 4.39.9l-.72 2.45a7.33 7.33 0 0 0-3.67-.83c-4 0-6.15 2.95-6.15 6.59 0 4 2.59 6.51 6 6.51a9 9 0 0 0 3.89-.86zM224.4 496.85c.07 4.28 2.81 6 6 6a11.55 11.55 0 0 0 4.83-.9l.54 2.26a14.06 14.06 0 0 1-5.8 1.08c-5.36 0-8.57-3.52-8.57-8.78s3.1-9.39 8.18-9.39c5.68 0 7.19 5 7.19 8.2a13.88 13.88 0 0 1-.1 1.48zm9.29-2.27c0-2-.83-5.15-4.4-5.15-3.2 0-4.6 3-4.86 5.15zM49.48 664.69l-7.92-24.26h3.38l3.78 12c1 3.27 1.94 6.23 2.59 9.07h.07c.69-2.81 1.69-5.87 2.77-9l4.11-12h3.35l-8.68 24.26zM67.08 642.37a2 2 0 0 1-3.92 0 1.93 1.93 0 0 1 2-2 1.88 1.88 0 0 1 1.92 2zm-3.53 22.32v-17.42h3.17v17.42zM87 639.13v21.06c0 1.55 0 3.31.15 4.5h-2.83l-.14-3h-.07a6.46 6.46 0 0 1-5.94 3.41c-4.21 0-7.45-3.56-7.45-8.85 0-5.8 3.56-9.36 7.81-9.36a5.82 5.82 0 0 1 5.25 2.66h.07v-10.4zm-3.17 15.23a5.42 5.42 0 0 0-.14-1.33 4.67 4.67 0 0 0-4.57-3.68c-3.28 0-5.22 2.88-5.22 6.74 0 3.52 1.73 6.44 5.15 6.44a4.76 4.76 0 0 0 4.64-3.78 5.39 5.39 0 0 0 .14-1.37zM94 656.55c.08 4.29 2.81 6.05 6 6.05a11.5 11.5 0 0 0 4.82-.9l.54 2.27a14.13 14.13 0 0 1-5.79 1.08c-5.37 0-8.57-3.53-8.57-8.78s3.1-9.4 8.17-9.4c5.69 0 7.2 5 7.2 8.21a10.93 10.93 0 0 1-.11 1.47zm9.29-2.26c0-2-.83-5.15-4.39-5.15-3.2 0-4.61 3-4.86 5.15zM126.08 655.83c0 6.45-4.46 9.25-8.67 9.25-4.72 0-8.35-3.45-8.35-9 0-5.83 3.81-9.25 8.63-9.25 5.01.04 8.39 3.68 8.39 9zm-13.82.18c0 3.82 2.19 6.7 5.29 6.7s5.29-2.84 5.29-6.77c0-3-1.47-6.69-5.22-6.69s-5.36 3.45-5.36 6.75zM147.36 664.69l-.25-2.2H147a6.49 6.49 0 0 1-5.33 2.59 5 5 0 0 1-5.33-5c0-4.21 3.75-6.51 10.48-6.48v-.36c0-1.44-.4-4-4-4a8.64 8.64 0 0 0-4.54 1.3l-.72-2.09a10.79 10.79 0 0 1 5.73-1.55c5.32 0 6.62 3.64 6.62 7.13v6.51a24.12 24.12 0 0 0 .29 4.18zm-.47-8.89c-3.46-.07-7.38.54-7.38 3.92a2.8 2.8 0 0 0 3 3 4.32 4.32 0 0 0 4.21-2.91 3.21 3.21 0 0 0 .18-1zM155.06 652c0-1.8 0-3.27-.14-4.71h2.81l.18 2.88h.09a6.4 6.4 0 0 1 5.76-3.28c2.41 0 6.15 1.44 6.15 7.42v10.4h-3.17v-10c0-2.81-1-5.15-4-5.15a4.49 4.49 0 0 0-4.24 3.24 4.33 4.33 0 0 0-.22 1.47v10.48h-3.17zM190.09 639.13v21.06c0 1.55 0 3.31.14 4.5h-2.84l-.15-3h-.07a6.44 6.44 0 0 1-5.94 3.41c-4.21 0-7.45-3.56-7.45-8.85 0-5.8 3.57-9.36 7.81-9.36a5.83 5.83 0 0 1 5.26 2.66h.07v-10.4zm-3.17 15.23a6 6 0 0 0-.14-1.33 4.67 4.67 0 0 0-4.57-3.68c-3.28 0-5.22 2.88-5.22 6.74 0 3.52 1.72 6.44 5.14 6.44a4.76 4.76 0 0 0 4.65-3.78 5.89 5.89 0 0 0 .14-1.37zM206.51 642.37a2 2 0 0 1-3.93 0 1.94 1.94 0 0 1 2-2 1.89 1.89 0 0 1 1.93 2zM203 664.69v-17.42h3.17v17.42zM211.4 652c0-1.8 0-3.27-.14-4.71H214l.14 2.8h.11a6 6 0 0 1 5.47-3.2 5.14 5.14 0 0 1 4.93 3.49h.08a7.2 7.2 0 0 1 1.94-2.27 6 6 0 0 1 3.85-1.22c2.31 0 5.73 1.51 5.73 7.56v10.26h-3.1v-9.86c0-3.35-1.23-5.37-3.78-5.37a4.09 4.09 0 0 0-3.74 2.88 5 5 0 0 0-.26 1.59v10.76h-3.09v-10.46c0-2.77-1.23-4.79-3.64-4.79a4.33 4.33 0 0 0-3.92 3.17 4.38 4.38 0 0 0-.25 1.55v10.51h-3.1zM251.07 664.69l-.25-2.2h-.11a6.48 6.48 0 0 1-5.33 2.59 5 5 0 0 1-5.32-5c0-4.21 3.74-6.51 10.47-6.48v-.36c0-1.44-.39-4-4-4a8.58 8.58 0 0 0-4.53 1.3l-.72-2.09a10.75 10.75 0 0 1 5.72-1.55c5.33 0 6.62 3.64 6.62 7.13v6.51a25.15 25.15 0 0 0 .29 4.18zm-.47-8.89c-3.45-.07-7.37.54-7.37 3.92a2.8 2.8 0 0 0 3 3 4.32 4.32 0 0 0 4.21-2.91 3.21 3.21 0 0 0 .18-1zM273.79 647.27c-.08 1.26-.15 2.66-.15 4.78v10.12c0 4-.79 6.44-2.48 8a9.21 9.21 0 0 1-6.34 2.09 11.19 11.19 0 0 1-5.79-1.44l.79-2.41a9.81 9.81 0 0 0 5.11 1.37c3.24 0 5.62-1.69 5.62-6.09v-1.99h-.07a6.24 6.24 0 0 1-5.55 2.92c-4.32 0-7.41-3.67-7.41-8.5 0-5.9 3.85-9.25 7.84-9.25a5.8 5.8 0 0 1 5.44 3h.07l.15-2.62zm-3.28 6.87a4.34 4.34 0 0 0-.18-1.44 4.56 4.56 0 0 0-4.43-3.35c-3 0-5.18 2.56-5.18 6.59 0 3.42 1.73 6.26 5.15 6.26a4.63 4.63 0 0 0 4.39-3.23 5.56 5.56 0 0 0 .25-1.7zM280.66 656.55c.08 4.29 2.81 6.05 6 6.05a11.46 11.46 0 0 0 4.82-.9l.52 2.3a14.13 14.13 0 0 1-5.79 1.08c-5.37 0-8.57-3.53-8.57-8.78s3.1-9.4 8.17-9.4c5.69 0 7.2 5 7.2 8.21a10.93 10.93 0 0 1-.11 1.47zm9.29-2.26c0-2-.83-5.15-4.39-5.15-3.2 0-4.61 3-4.86 5.15zM59.09 682.33v21.06c0 1.55 0 3.31.14 4.5h-2.84l-.15-3h-.07a6.45 6.45 0 0 1-5.94 3.41c-4.21 0-7.45-3.56-7.45-8.85 0-5.8 3.56-9.36 7.81-9.36a5.85 5.85 0 0 1 5.26 2.66h.07v-10.4zm-3.17 15.23a5.43 5.43 0 0 0-.15-1.33 4.65 4.65 0 0 0-4.57-3.68c-3.27 0-5.22 2.88-5.22 6.74 0 3.52 1.73 6.44 5.15 6.44a4.75 4.75 0 0 0 4.64-3.73 5.38 5.38 0 0 0 .15-1.37zM74 707.89l-.25-2.2h-.11a6.48 6.48 0 0 1-5.33 2.59 5 5 0 0 1-5.32-5c0-4.21 3.74-6.51 10.47-6.48v-.36c0-1.44-.4-4-4-4a8.64 8.64 0 0 0-4.54 1.3l-.71-2.09a10.75 10.75 0 0 1 5.79-1.58c5.33 0 6.62 3.64 6.62 7.13v6.51a24.19 24.19 0 0 0 .29 4.18zm-.48-8.89c-3.45-.07-7.38.54-7.38 3.92a2.8 2.8 0 0 0 3 3 4.32 4.32 0 0 0 4.2-2.92 3.21 3.21 0 0 0 .18-1zM85.37 685.46v5h4.53v2.41h-4.53v9.39c0 2.16.61 3.39 2.37 3.39a7 7 0 0 0 1.84-.22l.14 2.38a7.79 7.79 0 0 1-2.81.43 4.42 4.42 0 0 1-3.42-1.33c-.89-.94-1.22-2.49-1.22-4.54v-9.5h-2.7v-2.41h2.7v-4.18zM103.11 707.89l-.25-2.2h-.11a6.47 6.47 0 0 1-5.32 2.59 5 5 0 0 1-5.33-5c0-4.21 3.74-6.51 10.47-6.48v-.36c0-1.44-.39-4-3.95-4a8.59 8.59 0 0 0-4.54 1.3l-.72-2.09a10.78 10.78 0 0 1 5.72-1.55c5.33 0 6.63 3.64 6.63 7.13v6.51a25.3 25.3 0 0 0 .28 4.18zm-.46-8.89c-3.46-.07-7.38.54-7.38 3.92a2.8 2.8 0 0 0 3 3 4.34 4.34 0 0 0 4.22-2.91 3.52 3.52 0 0 0 .18-1zM122 685.57a2 2 0 0 1-3.93 0 1.94 1.94 0 0 1 2-2 1.89 1.89 0 0 1 1.93 2zm-3.53 22.32v-17.42h3.17v17.42zM126.87 695.18c0-1.8 0-3.27-.14-4.71h2.81l.18 2.88h.07a6.4 6.4 0 0 1 5.76-3.28c2.41 0 6.15 1.44 6.15 7.42v10.4h-3.16v-10c0-2.81-1-5.15-4-5.15a4.49 4.49 0 0 0-4.25 3.24 4.33 4.33 0 0 0-.22 1.47v10.48h-3.17zM146.42 704.65a8.33 8.33 0 0 0 4.18 1.26c2.3 0 3.38-1.15 3.38-2.59s-.9-2.34-3.24-3.21c-3.13-1.11-4.61-2.84-4.61-4.93 0-2.81 2.27-5.11 6-5.11a8.64 8.64 0 0 1 4.28 1.08l-.79 2.3a6.85 6.85 0 0 0-3.57-1c-1.87 0-2.91 1.08-2.91 2.37s1 2.09 3.31 2.95c3 1.16 4.57 2.67 4.57 5.26 0 3.06-2.38 5.22-6.51 5.22a9.94 9.94 0 0 1-4.9-1.19zM164.64 685.57a2 2 0 0 1-3.93 0 1.94 1.94 0 0 1 2-2 1.89 1.89 0 0 1 1.93 2zm-3.53 22.32v-17.42h3.17v17.42zM184.54 690.47c-.07 1.26-.14 2.66-.14 4.78v10.12c0 4-.79 6.44-2.48 8a9.23 9.23 0 0 1-6.34 2.09 11.17 11.17 0 0 1-5.79-1.44l.79-2.41a9.81 9.81 0 0 0 5.11 1.37c3.24 0 5.61-1.69 5.61-6.09v-1.99h-.07a6.21 6.21 0 0 1-5.54 2.92c-4.32 0-7.42-3.67-7.42-8.5 0-5.9 3.86-9.25 7.85-9.25a5.81 5.81 0 0 1 5.44 3h.07l.14-2.62zm-3.27 6.87a4.64 4.64 0 0 0-4.61-4.79c-3 0-5.18 2.56-5.18 6.59 0 3.42 1.72 6.27 5.14 6.27a4.65 4.65 0 0 0 4.4-3.24 5.56 5.56 0 0 0 .25-1.7zM189.66 682.33h3.16v10.87h.08a5.84 5.84 0 0 1 2.26-2.23 6.56 6.56 0 0 1 3.25-.9c2.33 0 6.08 1.44 6.08 7.45v10.37h-3.17v-10c0-2.81-1-5.18-4-5.18a4.56 4.56 0 0 0-4.25 3.17 3.82 3.82 0 0 0-.22 1.51v10.51h-3.16zM213.31 685.46v5h4.53v2.41h-4.53v9.39c0 2.16.61 3.39 2.37 3.39a7 7 0 0 0 1.84-.22l.14 2.38a7.76 7.76 0 0 1-2.8.43 4.39 4.39 0 0 1-3.42-1.33c-.9-.94-1.23-2.49-1.23-4.54v-9.5h-2.7v-2.41h2.7v-4.18zM221 704.65a8.29 8.29 0 0 0 4.17 1.26c2.31 0 3.39-1.15 3.39-2.59s-.9-2.34-3.24-3.21c-3.14-1.11-4.61-2.84-4.61-4.93 0-2.81 2.27-5.11 6-5.11a8.64 8.64 0 0 1 4.28 1.08l-.79 2.3a6.78 6.78 0 0 0-3.56-1c-1.87 0-2.92 1.08-2.92 2.37s1 2.09 3.31 2.95c3 1.16 4.58 2.67 4.58 5.26 0 3.06-2.38 5.22-6.52 5.22a9.9 9.9 0 0 1-4.89-1.19zM64.88 878c0 8.35-5.07 12.78-11.27 12.78-6.4 0-10.9-5-10.9-12.31 0-7.7 4.78-12.74 11.26-12.74 6.63.01 10.91 5.08 10.91 12.27zm-18.82.4c0 5.18 2.8 9.82 7.73 9.82s7.78-4.57 7.78-10.07c0-4.83-2.52-9.87-7.74-9.87s-7.77 4.8-7.77 10.13zM68.7 890.39c.07-1.18.14-2.95.14-4.5v-21H72v10.94h.07a6.49 6.49 0 0 1 5.94-3.2c4.32 0 7.38 3.6 7.34 8.89 0 6.22-3.92 9.32-7.81 9.32a6.19 6.19 0 0 1-5.83-3.28h-.11l-.14 2.88zm3.28-7a6 6 0 0 0 .14 1.15 4.89 4.89 0 0 0 4.75 3.71c3.31 0 5.29-2.7 5.29-6.7 0-3.49-1.8-6.47-5.18-6.47a5 5 0 0 0-4.82 3.92 5.74 5.74 0 0 0-.18 1.3zM85.08 895.43a5.1 5.1 0 0 0 3.45-1.33c.87-1 1.19-2.37 1.19-6.55V873h3.17v15.8c0 3.39-.54 5.58-2.09 7.17a8.06 8.06 0 0 1-5.4 2zm8.17-27.35a1.86 1.86 0 0 1-2 1.94 1.89 1.89 0 0 1-1.94-1.94 1.94 1.94 0 0 1 2-2 1.87 1.87 0 0 1 1.94 2zM99.84 882.26c.07 4.28 2.81 6 6 6a11.55 11.55 0 0 0 4.83-.9l.54 2.26a14.06 14.06 0 0 1-5.8 1.08c-5.36 0-8.56-3.52-8.56-8.78s3.09-9.39 8.17-9.39c5.68 0 7.2 5 7.2 8.2a13.35 13.35 0 0 1-.11 1.48zm9.29-2.27c0-2-.83-5.15-4.4-5.15-3.2 0-4.6 3-4.86 5.15zM128.53 889.75a11.71 11.71 0 0 1-5 1c-5.26 0-8.68-3.56-8.68-8.89s3.67-9.25 9.36-9.25a10.6 10.6 0 0 1 4.39.9l-.72 2.45a7.33 7.33 0 0 0-3.67-.83c-4 0-6.16 3-6.16 6.59 0 4 2.6 6.51 6 6.51a9 9 0 0 0 3.89-.86zM136.52 868v5h4.54v2.41h-4.54v9.4c0 2.16.61 3.38 2.38 3.38a7.43 7.43 0 0 0 1.83-.21l.15 2.37a7.87 7.87 0 0 1-2.81.43 4.37 4.37 0 0 1-3.42-1.33c-.9-.93-1.22-2.48-1.22-4.53v-9.51h-2.7V873h2.7v-4.2zM167.3 864.84v21c0 1.55 0 3.32.14 4.5h-2.84l-.14-3h-.08a6.44 6.44 0 0 1-5.93 3.42c-4.22 0-7.46-3.56-7.46-8.86 0-5.79 3.57-9.35 7.81-9.35a5.83 5.83 0 0 1 5.26 2.66h.07v-10.4zm-3.17 15.22a5.52 5.52 0 0 0-.14-1.33 4.67 4.67 0 0 0-4.57-3.67c-3.28 0-5.22 2.88-5.22 6.73 0 3.53 1.72 6.44 5.14 6.44a4.76 4.76 0 0 0 4.65-3.78 5.36 5.36 0 0 0 .14-1.36zM174.32 882.26c.07 4.28 2.81 6 6 6a11.53 11.53 0 0 0 4.82-.9l.54 2.26a14 14 0 0 1-5.8 1.08c-5.36 0-8.56-3.52-8.56-8.78s3.09-9.39 8.17-9.39c5.69 0 7.2 5 7.2 8.2a11.26 11.26 0 0 1-.11 1.48zm9.29-2.27c0-2-.83-5.15-4.39-5.15-3.21 0-4.61 3-4.86 5.15zM194.41 868v5h4.53v2.41h-4.53v9.4c0 2.16.61 3.38 2.37 3.38a7.53 7.53 0 0 0 1.84-.21l.14 2.37a7.76 7.76 0 0 1-2.8.43 4.35 4.35 0 0 1-3.42-1.33c-.9-.93-1.23-2.48-1.23-4.53v-9.51h-2.7V873h2.7v-4.2zM204.06 882.26c.07 4.28 2.8 6 6 6a11.55 11.55 0 0 0 4.83-.9l.54 2.26a14.06 14.06 0 0 1-5.8 1.08c-5.36 0-8.57-3.52-8.57-8.78s3.1-9.39 8.17-9.39c5.69 0 7.2 5 7.2 8.2a11.26 11.26 0 0 1-.11 1.48zm9.28-2.27c0-2-.82-5.15-4.39-5.15-3.2 0-4.61 3-4.86 5.15zM232.75 889.75a11.77 11.77 0 0 1-5 1c-5.25 0-8.67-3.56-8.67-8.89s3.67-9.25 9.36-9.25a10.64 10.64 0 0 1 4.39.9l-.73 2.49a7.36 7.36 0 0 0-3.67-.83c-4 0-6.16 3-6.16 6.59 0 4 2.59 6.51 6 6.51a9 9 0 0 0 3.89-.86zM240.74 868v5h4.53v2.41h-4.53v9.4c0 2.16.61 3.38 2.38 3.38A7.5 7.5 0 0 0 245 888l.14 2.37a7.76 7.76 0 0 1-2.8.43 4.35 4.35 0 0 1-3.42-1.33c-.9-.93-1.23-2.48-1.23-4.53v-9.51h-2.7V873h2.7v-4.2zM252.37 868.08a2 2 0 0 1-3.93 0 1.93 1.93 0 0 1 2-2 1.88 1.88 0 0 1 1.93 2zm-3.53 22.31V873H252v17.42zM273 881.54c0 6.44-4.46 9.25-8.68 9.25-4.71 0-8.35-3.46-8.35-9 0-5.83 3.82-9.25 8.64-9.25 5.04.04 8.39 3.67 8.39 9zm-13.82.18c0 3.81 2.19 6.69 5.29 6.69s5.29-2.84 5.29-6.76c0-3-1.48-6.7-5.22-6.7s-5.33 3.46-5.33 6.77zM277 877.69c0-1.8 0-3.28-.15-4.72h2.81l.18 2.88h.07a6.42 6.42 0 0 1 5.76-3.27c2.41 0 6.16 1.44 6.16 7.41v10.4h-3.17v-10c0-2.81-1-5.15-4-5.15a4.51 4.51 0 0 0-4.25 3.24 4.71 4.71 0 0 0-.22 1.48v10.47H277zM646.66 144.64h-9.43v8.75h10.51V156H634.1v-24.24h13.1v2.63h-10v7.66h9.43zM653.18 138.6l2.48 3.74c.65 1 1.19 1.87 1.77 2.84h.11c.57-1 1.15-1.94 1.72-2.88l2.45-3.7h3.42l-5.94 8.4 6.12 9h-3.6l-2.55-3.92c-.69-1-1.26-2-1.88-3h-.07c-.57 1.05-1.19 2-1.83 3l-2.52 3.92h-3.49l6.19-8.89-5.91-8.53zM672.66 133.59v5h4.53V141h-4.53v9.39c0 2.16.61 3.39 2.37 3.39a7 7 0 0 0 1.84-.22L677 156a7.79 7.79 0 0 1-2.81.43 4.42 4.42 0 0 1-3.42-1.33c-.9-.94-1.22-2.49-1.22-4.54V141h-2.7v-2.4h2.7v-4.18zM680.76 144c0-2.05 0-3.81-.15-5.43h2.77l.11 3.42h.14a5.24 5.24 0 0 1 4.83-3.82 3.52 3.52 0 0 1 .9.11v3a4.38 4.38 0 0 0-1.08-.11c-2.23 0-3.82 1.69-4.25 4.07a9.06 9.06 0 0 0-.14 1.47V156h-3.13zM702 156l-.25-2.2h-.11a6.48 6.48 0 0 1-5.32 2.6 5 5 0 0 1-5.33-5c0-4.21 3.74-6.51 10.47-6.48v-.36c0-1.44-.39-4-4-4a8.67 8.67 0 0 0-4.53 1.3l-.72-2.09a10.78 10.78 0 0 1 5.79-1.57c5.33 0 6.63 3.64 6.63 7.13v6.51a25.22 25.22 0 0 0 .28 4.18zm-.46-8.89c-3.46-.07-7.38.54-7.38 3.92a2.8 2.8 0 0 0 3 3 4.35 4.35 0 0 0 4.22-2.92 3.52 3.52 0 0 0 .18-1zM722.12 155.37a11.72 11.72 0 0 1-5 1c-5.26 0-8.68-3.56-8.68-8.89s3.67-9.25 9.36-9.25a10.6 10.6 0 0 1 4.39.9l-.72 2.44a7.38 7.38 0 0 0-3.67-.82c-4 0-6.16 3-6.16 6.58 0 4 2.6 6.52 6.05 6.52a9.11 9.11 0 0 0 3.89-.86zM730.11 133.59v5h4.54V141h-4.54v9.39c0 2.16.61 3.39 2.38 3.39a6.89 6.89 0 0 0 1.83-.22l.15 2.38a7.87 7.87 0 0 1-2.81.43 4.39 4.39 0 0 1-3.42-1.33c-.9-.94-1.23-2.49-1.23-4.54V141h-2.7v-2.4H727v-4.18zM741.74 133.7a2 2 0 0 1-3.93 0 1.94 1.94 0 0 1 2-2 1.89 1.89 0 0 1 1.93 2zm-3.53 22.3v-17.4h3.17V156zM746.63 143.31c0-1.8 0-3.27-.14-4.71h2.81l.18 2.88h.07a6.4 6.4 0 0 1 5.76-3.28c2.41 0 6.15 1.44 6.15 7.42V156h-3.16v-10c0-2.81-1-5.15-4-5.15a4.49 4.49 0 0 0-4.25 3.24 4.33 4.33 0 0 0-.22 1.47V156h-3.17zM781.62 138.6c-.07 1.26-.14 2.66-.14 4.78v10.12c0 4-.79 6.44-2.48 7.95a9.23 9.23 0 0 1-6.34 2.09 11.17 11.17 0 0 1-5.79-1.44l.79-2.41a9.81 9.81 0 0 0 5.11 1.37c3.24 0 5.61-1.69 5.61-6.08V153h-.07a6.21 6.21 0 0 1-5.54 2.92c-4.32 0-7.42-3.67-7.42-8.5 0-5.9 3.86-9.25 7.85-9.25a5.83 5.83 0 0 1 5.44 3h.07l.14-2.62zm-3.27 6.87a4.62 4.62 0 0 0-.18-1.44 4.57 4.57 0 0 0-4.43-3.34c-3 0-5.18 2.55-5.18 6.58 0 3.42 1.72 6.27 5.14 6.27a4.65 4.65 0 0 0 4.4-3.24 5.56 5.56 0 0 0 .25-1.7zM643.64 199.22l-.25-2.2h-.11a6.48 6.48 0 0 1-5.33 2.6 5 5 0 0 1-5.33-5c0-4.21 3.75-6.51 10.48-6.48v-.36c0-1.44-.4-4-4-4a8.64 8.64 0 0 0-4.54 1.3l-.72-2.09a10.79 10.79 0 0 1 5.73-1.55c5.33 0 6.62 3.64 6.62 7.13V195a24.12 24.12 0 0 0 .29 4.18zm-.47-8.89c-3.45-.07-7.38.54-7.38 3.92a2.81 2.81 0 0 0 3 3 4.32 4.32 0 0 0 4.21-2.92 3.21 3.21 0 0 0 .18-1zM655 176.79v5h4.53v2.41H655v9.39c0 2.16.61 3.39 2.37 3.39a7 7 0 0 0 1.84-.22l.14 2.38a7.79 7.79 0 0 1-2.81.43 4.42 4.42 0 0 1-3.42-1.33c-.9-.94-1.22-2.49-1.22-4.54v-9.5h-2.7v-2.4h2.7v-4.18zM666.93 176.79v5h4.54v2.41h-4.54v9.39c0 2.16.61 3.39 2.38 3.39a6.83 6.83 0 0 0 1.83-.22l.15 2.38a7.83 7.83 0 0 1-2.81.43 4.4 4.4 0 0 1-3.42-1.33c-.9-.94-1.22-2.49-1.22-4.54v-9.5h-2.7v-2.4h2.7v-4.18zM675 187.23c0-2 0-3.81-.14-5.43h2.77l.11 3.42h.14a5.23 5.23 0 0 1 4.83-3.82 3.44 3.44 0 0 1 .89.11v3a4.27 4.27 0 0 0-1.08-.11c-2.23 0-3.81 1.69-4.24 4.07a9 9 0 0 0-.15 1.47v9.29H675zM690.48 176.9a2 2 0 0 1-3.93 0 1.94 1.94 0 0 1 2-2 1.89 1.89 0 0 1 1.93 2zM687 199.22V181.8h3.17v17.42zM695.23 199.22c.07-1.19.14-2.95.14-4.5v-21.06h3.13v10.94h.07a6.51 6.51 0 0 1 5.94-3.2c4.32 0 7.38 3.6 7.35 8.89 0 6.23-3.93 9.33-7.81 9.33a6.21 6.21 0 0 1-5.83-3.28h-.11l-.15 2.88zm3.27-7a5.4 5.4 0 0 0 .15 1.15 4.89 4.89 0 0 0 4.75 3.71c3.31 0 5.29-2.7 5.29-6.7 0-3.49-1.8-6.48-5.18-6.48a5.06 5.06 0 0 0-4.83 3.89 6.36 6.36 0 0 0-.18 1.29zM730.43 194.47c0 1.8 0 3.38.15 4.75h-2.81l-.18-2.84h-.07a6.57 6.57 0 0 1-5.76 3.24c-2.74 0-6-1.52-6-7.64V181.8h3.16v9.64c0 3.32 1 5.55 3.89 5.55a4.59 4.59 0 0 0 4.18-2.88 4.67 4.67 0 0 0 .29-1.62V181.8h3.16zM739.51 176.79v5H744v2.41h-4.53v9.39c0 2.16.61 3.39 2.37 3.39a7 7 0 0 0 1.84-.22l.14 2.38a7.79 7.79 0 0 1-2.81.43 4.42 4.42 0 0 1-3.42-1.33c-.89-.94-1.22-2.49-1.22-4.54v-9.5h-2.7v-2.4h2.7v-4.18zM749.16 191.08c.07 4.29 2.8 6 6 6a11.31 11.31 0 0 0 4.82-.9l.54 2.27a14.13 14.13 0 0 1-5.79 1.08c-5.37 0-8.57-3.53-8.57-8.78s3.1-9.4 8.17-9.4c5.69 0 7.2 5 7.2 8.21a10.93 10.93 0 0 1-.11 1.47zm9.28-2.26c0-2-.83-5.15-4.39-5.15-3.2 0-4.61 3-4.86 5.15zM765 196a8.36 8.36 0 0 0 4.18 1.26c2.3 0 3.38-1.15 3.38-2.59s-.9-2.34-3.24-3.21c-3.13-1.11-4.6-2.84-4.6-4.93 0-2.8 2.26-5.11 6-5.11a8.75 8.75 0 0 1 4.28 1.08l-.79 2.3a6.78 6.78 0 0 0-3.56-1c-1.88 0-2.92 1.08-2.92 2.37 0 1.44 1 2.09 3.31 2.95 3 1.16 4.57 2.67 4.57 5.26 0 3.06-2.37 5.22-6.51 5.22a10 10 0 0 1-4.9-1.19zM633.67 355.11a11.1 11.1 0 0 0 5.61 1.58c3.21 0 5.08-1.69 5.08-4.14 0-2.26-1.3-3.56-4.57-4.82-4-1.4-6.41-3.46-6.41-6.88 0-3.78 3.13-6.58 7.85-6.58a11.06 11.06 0 0 1 5.36 1.18l-.86 2.56a9.68 9.68 0 0 0-4.61-1.15c-3.31 0-4.57 2-4.57 3.63 0 2.27 1.47 3.39 4.82 4.68 4.11 1.59 6.19 3.57 6.19 7.13 0 3.74-2.77 7-8.49 7a12.56 12.56 0 0 1-6.19-1.54zM653.72 350.79c.07 4.28 2.81 6 6 6a11.53 11.53 0 0 0 4.82-.9l.54 2.26a14.06 14.06 0 0 1-5.8 1.08c-5.36 0-8.56-3.52-8.56-8.78s3.09-9.39 8.17-9.39c5.69 0 7.2 5 7.2 8.2a13.14 13.14 0 0 1-.11 1.48zm9.29-2.27c0-2-.83-5.15-4.39-5.15-3.21 0-4.61 3-4.86 5.15zM670 346.22c0-1.8 0-3.28-.14-4.72h2.81l.18 2.88h.07a6.41 6.41 0 0 1 5.76-3.27c2.41 0 6.15 1.44 6.15 7.41v10.4h-3.17v-10c0-2.81-1-5.15-4-5.15a4.48 4.48 0 0 0-4.24 3.24 4.43 4.43 0 0 0-.22 1.48v10.47H670zM693.64 336.5v5h4.54v2.41h-4.54v9.4c0 2.16.61 3.38 2.38 3.38a7.37 7.37 0 0 0 1.83-.21l.15 2.37a7.83 7.83 0 0 1-2.81.43 4.38 4.38 0 0 1-3.42-1.33c-.9-.93-1.22-2.48-1.22-4.53v-9.51h-2.7v-2.41h2.7v-4.17zM705.27 336.61a1.86 1.86 0 0 1-2 1.94 1.88 1.88 0 0 1-1.91-1.94 1.93 1.93 0 0 1 2-2 1.87 1.87 0 0 1 1.91 2zm-3.53 22.31V341.5h3.17v17.42zM710.17 346.22c0-1.8 0-3.28-.15-4.72h2.77l.15 2.81h.11a6 6 0 0 1 5.47-3.2 5.16 5.16 0 0 1 4.93 3.49h.07a7.22 7.22 0 0 1 2-2.27 5.93 5.93 0 0 1 3.85-1.22c2.3 0 5.72 1.51 5.72 7.56v10.25H732v-9.86c0-3.35-1.23-5.36-3.79-5.36a4.1 4.1 0 0 0-3.74 2.88 5.34 5.34 0 0 0-.25 1.58v10.76h-3.1v-10.43c0-2.78-1.22-4.79-3.63-4.79a4.31 4.31 0 0 0-3.92 3.17 4.09 4.09 0 0 0-.26 1.54v10.51h-3.09zM742 350.79c.07 4.28 2.8 6 6 6a11.46 11.46 0 0 0 4.82-.9l.54 2.26a14 14 0 0 1-5.79 1.08c-5.36 0-8.57-3.52-8.57-8.78s3.1-9.39 8.17-9.39c5.69 0 7.2 5 7.2 8.2a11.11 11.11 0 0 1-.11 1.48zm9.28-2.27c0-2-.83-5.15-4.39-5.15-3.2 0-4.61 3-4.86 5.15zM758.23 346.22c0-1.8 0-3.28-.15-4.72h2.81l.18 2.88h.07a6.42 6.42 0 0 1 5.76-3.27c2.41 0 6.16 1.44 6.16 7.41v10.4h-3.17v-10c0-2.81-1-5.15-4-5.15a4.51 4.51 0 0 0-4.25 3.24 4.71 4.71 0 0 0-.22 1.48v10.47h-3.16zM781.88 336.5v5h4.53v2.41h-4.53v9.4c0 2.16.61 3.38 2.37 3.38a7.53 7.53 0 0 0 1.84-.21l.14 2.37a7.76 7.76 0 0 1-2.8.43A4.35 4.35 0 0 1 780 358c-.9-.93-1.23-2.48-1.23-4.53v-9.51h-2.7v-2.46h2.7v-4.17zM643.64 402.12l-.25-2.19h-.11a6.48 6.48 0 0 1-5.33 2.59 5 5 0 0 1-5.33-5c0-4.21 3.75-6.52 10.48-6.48v-.36c0-1.44-.4-4-4-4a8.73 8.73 0 0 0-4.54 1.29l-.72-2.09a10.88 10.88 0 0 1 5.73-1.54c5.33 0 6.62 3.63 6.62 7.12V398a24 24 0 0 0 .29 4.17zm-.47-8.89c-3.45-.07-7.38.54-7.38 3.93a2.8 2.8 0 0 0 3 3 4.32 4.32 0 0 0 4.21-2.92 3.2 3.2 0 0 0 .18-1zM651.34 389.42c0-1.8 0-3.28-.14-4.72h2.8l.18 2.88h.07a6.41 6.41 0 0 1 5.76-3.27c2.41 0 6.15 1.44 6.15 7.41v10.4H663v-10c0-2.81-1-5.15-4-5.15a4.51 4.51 0 0 0-4.25 3.24 4.43 4.43 0 0 0-.22 1.48v10.47h-3.17zM681 402.12l-.25-2.19h-.11a6.48 6.48 0 0 1-5.33 2.59 5 5 0 0 1-5.32-5c0-4.21 3.74-6.52 10.47-6.48v-.36c0-1.44-.4-4-4-4a8.66 8.66 0 0 0-4.53 1.29l-.72-2.09a10.84 10.84 0 0 1 5.72-1.54c5.33 0 6.62 3.63 6.62 7.12V398a24 24 0 0 0 .29 4.17zm-.47-8.89c-3.45-.07-7.38.54-7.38 3.93a2.8 2.8 0 0 0 3 3 4.32 4.32 0 0 0 4.21-2.92 3.2 3.2 0 0 0 .18-1zM688.68 376.57h3.16v25.55h-3.16zM698.32 384.7l3.82 10.3c.39 1.15.83 2.52 1.11 3.56h.08c.32-1 .68-2.38 1.11-3.64l3.46-10.22h3.35l-4.76 12.42c-2.26 6-3.81 9-6 10.91a8.54 8.54 0 0 1-3.89 2.05l-.79-2.66a8.53 8.53 0 0 0 2.77-1.55 9.61 9.61 0 0 0 2.67-3.53 2.34 2.34 0 0 0 .25-.76 2.86 2.86 0 0 0-.22-.82l-6.44-16.06zM713.48 398.88a8.23 8.23 0 0 0 4.18 1.26c2.3 0 3.38-1.15 3.38-2.59s-.9-2.34-3.24-3.2c-3.13-1.12-4.61-2.84-4.61-4.93 0-2.81 2.27-5.11 6-5.11a8.68 8.68 0 0 1 4.29 1.08l-.8 2.3a6.77 6.77 0 0 0-3.56-1c-1.87 0-2.91 1.08-2.91 2.38s1 2.09 3.31 2.95c3 1.15 4.57 2.66 4.57 5.25 0 3.06-2.38 5.22-6.52 5.22a9.92 9.92 0 0 1-4.89-1.18zM731.7 379.81a2 2 0 0 1-3.93 0 1.93 1.93 0 0 1 2-2 1.88 1.88 0 0 1 1.93 2zm-3.53 22.31V384.7h3.16v17.42zM736.16 398.88a8.23 8.23 0 0 0 4.17 1.26c2.31 0 3.39-1.15 3.39-2.59s-.9-2.34-3.24-3.2c-3.13-1.12-4.61-2.84-4.61-4.93 0-2.81 2.27-5.11 6-5.11a8.68 8.68 0 0 1 4.29 1.08l-.8 2.3a6.77 6.77 0 0 0-3.56-1c-1.87 0-2.91 1.08-2.91 2.38s1 2.09 3.31 2.95c3 1.15 4.57 2.66 4.57 5.25 0 3.06-2.38 5.22-6.52 5.22a9.92 9.92 0 0 1-4.89-1.18zM646.66 550.45h-9.43v8.75h10.51v2.63H634.1v-24.26h13.1v2.63h-10v7.66h9.43zM663.44 559.13h-.07a6.2 6.2 0 0 1-5.69 3.09c-4.07 0-7.38-3.52-7.38-8.81 0-6.52 4.21-9.4 7.88-9.4a5.74 5.74 0 0 1 5.37 3h.07l.11-2.62h3c-.07 1.47-.1 3-.1 4.78V569h-3.17zm0-7.67a5.32 5.32 0 0 0-.15-1.33 4.63 4.63 0 0 0-4.53-3.6c-3.28 0-5.26 2.77-5.26 6.7 0 3.45 1.66 6.48 5.15 6.48a4.72 4.72 0 0 0 4.54-3.46 5.42 5.42 0 0 0 .25-1.51zM686.41 557.08c0 1.8 0 3.38.14 4.75h-2.81l-.18-2.84h-.07a6.56 6.56 0 0 1-5.76 3.23c-2.74 0-6-1.51-6-7.63v-10.18h3.17v9.64c0 3.32 1 5.55 3.89 5.55a4.59 4.59 0 0 0 4.17-2.88 4.67 4.67 0 0 0 .29-1.62v-10.69h3.17zM695.19 539.51a1.87 1.87 0 0 1-2 2 1.89 1.89 0 0 1-1.91-2 1.94 1.94 0 0 1 2-2 1.88 1.88 0 0 1 1.91 2zm-3.53 22.32v-17.42h3.17v17.42zM700.09 550.09c0-2.23-.07-4-.15-5.68h2.85l.14 3h.07a6.86 6.86 0 0 1 6.19-3.38c4.22 0 7.38 3.56 7.38 8.86 0 6.26-3.81 9.35-7.92 9.35a6.09 6.09 0 0 1-5.36-2.73h-.07V569h-3.13zm3.13 4.65a7.18 7.18 0 0 0 .14 1.29 4.89 4.89 0 0 0 4.75 3.71c3.35 0 5.3-2.73 5.3-6.73 0-3.49-1.84-6.48-5.19-6.48a5 5 0 0 0-4.78 3.92 5.13 5.13 0 0 0-.22 1.3zM720.57 549.12c0-1.8 0-3.27-.14-4.71h2.77l.14 2.8h.11a6 6 0 0 1 5.47-3.2 5.14 5.14 0 0 1 4.93 3.49h.08a7.18 7.18 0 0 1 1.94-2.27 5.93 5.93 0 0 1 3.85-1.22c2.3 0 5.72 1.51 5.72 7.56v10.26h-3.09V552c0-3.35-1.23-5.37-3.78-5.37a4.12 4.12 0 0 0-3.75 2.88 5.36 5.36 0 0 0-.25 1.59v10.76h-3.09v-10.47c0-2.77-1.23-4.79-3.64-4.79a4.33 4.33 0 0 0-3.92 3.17 4.38 4.38 0 0 0-.25 1.55v10.51h-3.1zM752.36 553.69c.07 4.29 2.81 6 6 6a11.39 11.39 0 0 0 4.83-.9l.54 2.27a14.23 14.23 0 0 1-5.8 1.08c-5.36 0-8.56-3.53-8.56-8.78s3.09-9.4 8.17-9.4c5.68 0 7.2 5 7.2 8.21a12.92 12.92 0 0 1-.11 1.47zm9.29-2.26c0-2-.83-5.15-4.4-5.15-3.2 0-4.6 3-4.85 5.15zM768.63 549.12c0-1.8 0-3.27-.14-4.71h2.8l.18 2.88h.08a6.4 6.4 0 0 1 5.76-3.28c2.41 0 6.15 1.44 6.15 7.42v10.4h-3.17v-10c0-2.81-1-5.15-4-5.15a4.49 4.49 0 0 0-4.25 3.24 4.61 4.61 0 0 0-.21 1.47v10.48h-3.17zM792.28 539.4v5h4.54v2.41h-4.54v9.39c0 2.16.61 3.39 2.38 3.39a6.83 6.83 0 0 0 1.83-.22l.15 2.38a7.83 7.83 0 0 1-2.81.43 4.4 4.4 0 0 1-3.42-1.33c-.9-.94-1.22-2.49-1.22-4.54v-9.5h-2.7v-2.41h2.7v-4.18zM634 592.32c0-1.8 0-3.27-.14-4.71h2.77l.14 2.8h.11a6 6 0 0 1 5.47-3.2 5.16 5.16 0 0 1 4.94 3.49h.07a7.2 7.2 0 0 1 1.94-2.27 6 6 0 0 1 3.85-1.22c2.31 0 5.73 1.51 5.73 7.56V605h-3.1v-9.86c0-3.35-1.22-5.37-3.78-5.37a4.09 4.09 0 0 0-3.74 2.88 5 5 0 0 0-.26 1.59V605h-3.1v-10.41c0-2.77-1.22-4.79-3.64-4.79a4.33 4.33 0 0 0-3.92 3.17 4.38 4.38 0 0 0-.25 1.55V605H634zM679.78 596.17c0 6.45-4.46 9.25-8.67 9.25-4.72 0-8.35-3.45-8.35-9 0-5.83 3.81-9.25 8.64-9.25 5 .04 8.38 3.68 8.38 9zm-13.82.18c0 3.82 2.2 6.7 5.29 6.7s5.29-2.84 5.29-6.77c0-2.95-1.47-6.69-5.22-6.69S666 593 666 596.35zM683.78 592.32c0-1.8 0-3.27-.14-4.71h2.8l.18 2.88h.08a6.4 6.4 0 0 1 5.76-3.28c2.41 0 6.15 1.44 6.15 7.42V605h-3.17v-10c0-2.81-1-5.15-4-5.15a4.49 4.49 0 0 0-4.25 3.24 4.61 4.61 0 0 0-.21 1.47V605h-3.17zM707.29 582.71a2 2 0 0 1-3.93 0 1.94 1.94 0 0 1 2-2 1.89 1.89 0 0 1 1.93 2zM703.76 605v-17.39h3.17V605zM716 582.6v5h4.53v2.4H716v9.39c0 2.16.61 3.39 2.38 3.39a6.89 6.89 0 0 0 1.83-.22l.15 2.38a7.87 7.87 0 0 1-2.81.43 4.39 4.39 0 0 1-3.42-1.33c-.9-.94-1.23-2.49-1.23-4.54V590h-2.7v-2.41h2.7v-4.18zM739.65 596.17c0 6.45-4.46 9.25-8.67 9.25-4.72 0-8.36-3.45-8.36-9 0-5.83 3.82-9.25 8.64-9.25 5.01.04 8.39 3.68 8.39 9zm-13.82.18c0 3.82 2.19 6.7 5.29 6.7s5.29-2.84 5.29-6.77c0-2.95-1.47-6.69-5.22-6.69s-5.36 3.41-5.36 6.76zM743.65 593c0-2 0-3.81-.15-5.43h2.78l.1 3.42h.15a5.23 5.23 0 0 1 4.82-3.82 3.52 3.52 0 0 1 .9.11v3a4.33 4.33 0 0 0-1.08-.11c-2.23 0-3.81 1.69-4.25 4.07a9.06 9.06 0 0 0-.14 1.47V605h-3.13zM759.09 582.71a1.87 1.87 0 0 1-2 1.95 1.89 1.89 0 0 1-1.91-1.95 1.94 1.94 0 0 1 2-2 1.88 1.88 0 0 1 1.91 2zM755.56 605v-17.39h3.17V605zM764 592.32c0-1.8 0-3.27-.15-4.71h2.81l.18 2.88h.07a6.41 6.41 0 0 1 5.76-3.28c2.41 0 6.16 1.44 6.16 7.42V605h-3.17v-10c0-2.81-1-5.15-4-5.15a4.49 4.49 0 0 0-4.25 3.24 4.61 4.61 0 0 0-.21 1.47V605H764zM799 587.61c-.07 1.26-.15 2.66-.15 4.78v10.12c0 4-.79 6.44-2.48 8a9.21 9.21 0 0 1-6.34 2.09 11.19 11.19 0 0 1-5.79-1.44l.79-2.41a9.81 9.81 0 0 0 5.11 1.37c3.24 0 5.62-1.69 5.62-6.09V602h-.07a6.24 6.24 0 0 1-5.55 2.92c-4.32 0-7.41-3.67-7.41-8.5 0-5.9 3.85-9.25 7.84-9.25a5.8 5.8 0 0 1 5.44 3h.07l.15-2.62zm-3.28 6.87a4.34 4.34 0 0 0-.18-1.44 4.56 4.56 0 0 0-4.43-3.35c-3 0-5.18 2.56-5.18 6.59 0 3.42 1.73 6.27 5.15 6.27a4.64 4.64 0 0 0 4.39-3.24 5.56 5.56 0 0 0 .25-1.7zM646.66 754h-9.43v8.75h10.51v2.63H634.1v-24.29h13.1v2.62h-10v7.67h9.43zM651.7 752.64c0-1.8 0-3.28-.14-4.72h2.81l.18 2.88h.07a6.41 6.41 0 0 1 5.76-3.27c2.41 0 6.15 1.44 6.15 7.41v10.41h-3.16V755.3c0-2.8-1-5.14-4-5.14a4.49 4.49 0 0 0-4.25 3.24 4.33 4.33 0 0 0-.22 1.47v10.48h-3.2zM675.36 742.92v5h4.53v2.42h-4.53v9.39c0 2.16.61 3.39 2.37 3.39a7 7 0 0 0 1.84-.22l.14 2.37a7.54 7.54 0 0 1-2.81.44 4.39 4.39 0 0 1-3.42-1.34c-.9-.93-1.22-2.48-1.22-4.53v-9.5h-2.7v-2.42h2.7v-4.17zM685 757.21c.08 4.29 2.81 6 6 6a11.5 11.5 0 0 0 4.82-.9l.54 2.27a14.13 14.13 0 0 1-5.79 1.08c-5.37 0-8.57-3.53-8.57-8.79s3.1-9.39 8.17-9.39c5.69 0 7.2 5 7.2 8.21a11.08 11.08 0 0 1-.11 1.47zm9.29-2.27c0-2-.83-5.14-4.39-5.14-3.2 0-4.61 3-4.86 5.14zM701.28 753.36c0-2.05 0-3.82-.15-5.44h2.77l.11 3.42h.15a5.22 5.22 0 0 1 4.82-3.81 3.52 3.52 0 0 1 .9.11v3a5 5 0 0 0-1.08-.1c-2.23 0-3.82 1.69-4.25 4.06a9.31 9.31 0 0 0-.14 1.48v9.29h-3.13zM713.19 753.61c0-2.23-.07-4-.14-5.69h2.84l.15 3h.07a6.84 6.84 0 0 1 6.19-3.38c4.21 0 7.38 3.56 7.38 8.85 0 6.27-3.82 9.36-7.92 9.36a6.1 6.1 0 0 1-5.36-2.75h-.08v9.46h-3.13zm3.13 4.65a7.25 7.25 0 0 0 .15 1.29 4.88 4.88 0 0 0 4.75 3.71c3.35 0 5.29-2.74 5.29-6.73 0-3.49-1.84-6.48-5.18-6.48a5.06 5.06 0 0 0-4.79 3.92 5.13 5.13 0 0 0-.22 1.3zM733.68 753.36c0-2.05 0-3.82-.15-5.44h2.77l.11 3.42h.14a5.23 5.23 0 0 1 4.83-3.81 3.52 3.52 0 0 1 .9.11v3a5 5 0 0 0-1.08-.1c-2.23 0-3.82 1.69-4.25 4.06a9.31 9.31 0 0 0-.14 1.48v9.29h-3.13zM749.12 743a2 2 0 0 1-3.93 0 1.93 1.93 0 0 1 2-2 1.88 1.88 0 0 1 1.93 2zm-3.53 22.32v-17.4h3.17v17.43zM753.58 762.11a8.33 8.33 0 0 0 4.18 1.26c2.3 0 3.38-1.15 3.38-2.59s-.9-2.34-3.24-3.21c-3.13-1.11-4.61-2.84-4.61-4.93 0-2.81 2.27-5.11 6-5.11a8.64 8.64 0 0 1 4.28 1.08l-.79 2.3a6.84 6.84 0 0 0-3.57-1c-1.87 0-2.91 1.08-2.91 2.38s1 2.09 3.31 3c3 1.15 4.57 2.67 4.57 5.26 0 3.06-2.38 5.22-6.51 5.22a9.94 9.94 0 0 1-4.9-1.19zM770 757.21c.08 4.29 2.81 6 6 6a11.5 11.5 0 0 0 4.82-.9l.54 2.27a14.13 14.13 0 0 1-5.79 1.08c-5.37 0-8.57-3.53-8.57-8.79s3.1-9.39 8.17-9.39c5.69 0 7.2 5 7.2 8.21a11.08 11.08 0 0 1-.11 1.47zm9.29-2.27c0-2-.83-5.14-4.39-5.14-3.2 0-4.61 3-4.86 5.14zM806.36 764.7a11.73 11.73 0 0 1-5 1c-5.25 0-8.67-3.57-8.67-8.89s3.67-9.25 9.36-9.25a10.66 10.66 0 0 1 4.39.89l-.72 2.45a7.39 7.39 0 0 0-3.67-.83c-4 0-6.16 3-6.16 6.59 0 4 2.59 6.52 6 6.52a8.94 8.94 0 0 0 3.89-.87zM825.62 756.49c0 6.44-4.47 9.25-8.68 9.25-4.71 0-8.35-3.45-8.35-9 0-5.83 3.82-9.25 8.64-9.25 5 .04 8.39 3.67 8.39 9zm-13.83.18c0 3.82 2.2 6.7 5.29 6.7s5.3-2.85 5.3-6.77c0-3-1.48-6.7-5.22-6.7s-5.37 3.46-5.37 6.77zM829.61 752.64c0-1.8 0-3.28-.14-4.72h2.81l.18 2.88h.07a6.41 6.41 0 0 1 5.76-3.27c2.41 0 6.15 1.44 6.15 7.41v10.41h-3.16V755.3c0-2.8-1-5.14-4-5.14a4.49 4.49 0 0 0-4.28 3.24 4.33 4.33 0 0 0-.22 1.47v10.48h-3.17zM853.27 742.92v5h4.53v2.42h-4.53v9.39c0 2.16.61 3.39 2.37 3.39a7 7 0 0 0 1.84-.22l.14 2.37a7.54 7.54 0 0 1-2.81.44 4.39 4.39 0 0 1-3.42-1.34c-.9-.93-1.22-2.48-1.22-4.53v-9.5h-2.7v-2.42h2.7v-4.17zM862.91 757.21c.08 4.29 2.81 6 6 6a11.5 11.5 0 0 0 4.82-.9l.54 2.27a14.13 14.13 0 0 1-5.79 1.08c-5.37 0-8.57-3.53-8.57-8.79s3.1-9.39 8.17-9.39c5.69 0 7.2 5 7.2 8.21a11.08 11.08 0 0 1-.11 1.47zm9.29-2.27c0-2-.83-5.14-4.39-5.14-3.21 0-4.61 3-4.86 5.14zM879.19 752.64c0-1.8 0-3.28-.15-4.72h2.81l.18 2.88h.07a6.41 6.41 0 0 1 5.76-3.27c2.41 0 6.16 1.44 6.16 7.41v10.41h-3.17V755.3c0-2.8-1.05-5.14-4-5.14a4.49 4.49 0 0 0-4.25 3.24 4.33 4.33 0 0 0-.22 1.47v10.48h-3.16zM902.84 742.92v5h4.53v2.42h-4.53v9.39c0 2.16.61 3.39 2.37 3.39a7 7 0 0 0 1.84-.22l.14 2.37a7.54 7.54 0 0 1-2.81.44 4.39 4.39 0 0 1-3.42-1.34c-.89-.93-1.22-2.48-1.22-4.53v-9.5H897v-2.42h2.7v-4.17zM649 783v21.06c0 1.55 0 3.31.14 4.5h-2.84l-.14-3h-.08a6.43 6.43 0 0 1-5.94 3.42c-4.21 0-7.45-3.56-7.45-8.85 0-5.8 3.57-9.36 7.81-9.36a5.83 5.83 0 0 1 5.26 2.66h.07V783zm-3.17 15.23a6.1 6.1 0 0 0-.14-1.34 4.67 4.67 0 0 0-4.57-3.67c-3.28 0-5.22 2.88-5.22 6.73 0 3.53 1.72 6.45 5.14 6.45a4.77 4.77 0 0 0 4.65-3.78 5.94 5.94 0 0 0 .14-1.37zM657.82 786.23a1.86 1.86 0 0 1-2 1.94 1.88 1.88 0 0 1-1.91-1.94 1.93 1.93 0 0 1 2-2 1.87 1.87 0 0 1 1.91 2zm-3.52 22.32v-17.43h3.16v17.43zM662.29 805.31a8.29 8.29 0 0 0 4.17 1.26c2.31 0 3.39-1.15 3.39-2.59s-.9-2.34-3.24-3.21c-3.13-1.11-4.61-2.84-4.61-4.93 0-2.81 2.27-5.11 6-5.11a8.61 8.61 0 0 1 4.28 1.08l-.79 2.3a6.77 6.77 0 0 0-3.56-1c-1.87 0-2.92 1.08-2.92 2.38s1.05 2.09 3.32 2.95c3 1.15 4.57 2.67 4.57 5.26 0 3.06-2.38 5.22-6.52 5.22a9.9 9.9 0 0 1-4.89-1.19zM689.39 807.9a11.64 11.64 0 0 1-5 1c-5.25 0-8.67-3.57-8.67-8.89s3.67-9.26 9.35-9.26a10.66 10.66 0 0 1 4.4.9l-.72 2.45a7.41 7.41 0 0 0-3.68-.83c-4 0-6.15 3-6.15 6.59 0 4 2.59 6.52 6.05 6.52a8.89 8.89 0 0 0 3.88-.87zM708.65 799.69c0 6.44-4.46 9.25-8.67 9.25-4.72 0-8.35-3.45-8.35-9 0-5.83 3.81-9.25 8.64-9.25 5 .04 8.38 3.67 8.38 9zm-13.82.18c0 3.82 2.2 6.7 5.29 6.7s5.29-2.85 5.29-6.77c0-2.95-1.47-6.7-5.21-6.7s-5.37 3.46-5.37 6.77zM713.62 791.12l3.42 9.8a43.51 43.51 0 0 1 1.41 4.46h.11c.39-1.44.9-2.88 1.47-4.46l3.39-9.8h3.31l-6.84 17.43h-3l-6.62-17.43zM731.12 800.41c.07 4.29 2.81 6.05 6 6.05a11.55 11.55 0 0 0 4.83-.9l.54 2.27a14.23 14.23 0 0 1-5.8 1.08c-5.36 0-8.56-3.53-8.56-8.79s3.09-9.39 8.17-9.39c5.68 0 7.2 5 7.2 8.21a13.13 13.13 0 0 1-.11 1.47zm9.29-2.27c0-2-.83-5.14-4.39-5.14-3.21 0-4.61 3-4.86 5.14zM747.39 796.56c0-2 0-3.82-.14-5.44H750l.11 3.42h.14a5.22 5.22 0 0 1 4.83-3.81 3.06 3.06 0 0 1 .89.11v3a4.84 4.84 0 0 0-1.08-.1c-2.23 0-3.81 1.69-4.24 4.06a9.25 9.25 0 0 0-.15 1.48v9.29h-3.13zM761.22 791.12l3.81 10.3c.4 1.15.83 2.52 1.12 3.56h.07c.32-1 .68-2.37 1.11-3.63l3.46-10.23h3.35l-4.75 12.42c-2.27 6-3.82 9-6 10.91a8.49 8.49 0 0 1-3.89 2l-.79-2.66a8.34 8.34 0 0 0 2.77-1.55 9.52 9.52 0 0 0 2.67-3.53 2.3 2.3 0 0 0 .25-.75 2.59 2.59 0 0 0-.22-.83l-6.44-16.06zM44.15 1068.19v-24.26h3.42l7.77 12.27a69.27 69.27 0 0 1 4.36 7.88h.07c-.29-3.24-.36-6.19-.36-10v-10.15h3v24.26h-3.22l-7.7-12.31a78.33 78.33 0 0 1-4.54-8.1h-.1c.18 3.06.25 6 .25 10v10.37zM77.37 1068.19l-.25-2.2H77a6.47 6.47 0 0 1-5.32 2.59 5 5 0 0 1-5.33-5c0-4.21 3.74-6.51 10.47-6.48v-.36c0-1.44-.39-4-4-4a8.58 8.58 0 0 0-4.53 1.3l-.72-2.09a10.78 10.78 0 0 1 5.72-1.55c5.33 0 6.63 3.64 6.63 7.13v6.47a25.3 25.3 0 0 0 .28 4.18zm-.46-8.89c-3.46-.08-7.38.54-7.38 3.92a2.8 2.8 0 0 0 3 3 4.35 4.35 0 0 0 4.22-2.91 3.64 3.64 0 0 0 .18-1zM88.75 1045.76v5h4.54v2.41h-4.54v9.39c0 2.16.61 3.39 2.38 3.39a6.89 6.89 0 0 0 1.83-.22l.15 2.38a7.87 7.87 0 0 1-2.81.43 4.39 4.39 0 0 1-3.42-1.33c-.9-.94-1.22-2.49-1.22-4.54v-9.5H83v-2.41h2.71v-4.18zM111.43 1063.44c0 1.8 0 3.38.14 4.75h-2.8l-.18-2.85h-.08a6.53 6.53 0 0 1-5.76 3.24c-2.73 0-6-1.51-6-7.63v-10.18h3.17v9.64c0 3.31 1 5.55 3.89 5.55a4.57 4.57 0 0 0 4.17-2.88 4.67 4.67 0 0 0 .29-1.62v-10.69h3.17zM116.69 1056.2c0-2 0-3.81-.15-5.43h2.77l.11 3.42h.15a5.23 5.23 0 0 1 4.82-3.82 3.52 3.52 0 0 1 .9.11v3a4.33 4.33 0 0 0-1.08-.11c-2.23 0-3.82 1.69-4.25 4.07a9.06 9.06 0 0 0-.14 1.47v9.29h-3.13zM137.93 1068.19l-.26-2.2h-.1a6.5 6.5 0 0 1-5.33 2.59 5 5 0 0 1-5.33-5c0-4.21 3.74-6.51 10.48-6.48v-.36c0-1.44-.4-4-4-4a8.64 8.64 0 0 0-4.54 1.3l-.72-2.09a10.78 10.78 0 0 1 5.72-1.55c5.33 0 6.63 3.64 6.63 7.13v6.47a24.19 24.19 0 0 0 .29 4.18zm-.47-8.89c-3.46-.08-7.38.54-7.38 3.92a2.8 2.8 0 0 0 3 3 4.35 4.35 0 0 0 4.21-2.91 3.31 3.31 0 0 0 .18-1zM145.63 1042.63h3.17v25.56h-3.17zM161.76 1042.63h3.17v25.56h-3.17zM179.9 1068.19l-.25-2.2h-.11a6.48 6.48 0 0 1-5.33 2.59 5 5 0 0 1-5.32-5c0-4.21 3.74-6.51 10.47-6.48v-.36c0-1.44-.4-4-4-4a8.58 8.58 0 0 0-4.53 1.3l-.72-2.09a10.75 10.75 0 0 1 5.72-1.55c5.33 0 6.62 3.64 6.62 7.13v6.47a24.19 24.19 0 0 0 .29 4.18zm-.47-8.89c-3.45-.08-7.38.54-7.38 3.92a2.8 2.8 0 0 0 3 3 4.33 4.33 0 0 0 4.21-2.91 3.31 3.31 0 0 0 .18-1zM187.61 1055.48c0-1.8 0-3.27-.15-4.71h2.81l.18 2.88h.07a6.41 6.41 0 0 1 5.76-3.28c2.41 0 6.16 1.44 6.16 7.42v10.4h-3.17v-10c0-2.81-1.05-5.15-4-5.15a4.49 4.49 0 0 0-4.25 3.24 4.6 4.6 0 0 0-.22 1.47v10.48h-3.16zM222.6 1050.77c-.08 1.26-.15 2.66-.15 4.78v10.12c0 4-.79 6.44-2.48 7.95a9.21 9.21 0 0 1-6.34 2.09 11.17 11.17 0 0 1-5.79-1.44l.79-2.41a9.81 9.81 0 0 0 5.11 1.37c3.24 0 5.62-1.69 5.62-6.09v-1.94h-.08a6.21 6.21 0 0 1-5.54 2.92c-4.32 0-7.41-3.68-7.41-8.5 0-5.9 3.85-9.25 7.84-9.25a5.8 5.8 0 0 1 5.44 3h.07l.14-2.62zm-3.28 6.87a4.62 4.62 0 0 0-.18-1.44 4.57 4.57 0 0 0-4.43-3.35c-3 0-5.18 2.56-5.18 6.59 0 3.42 1.73 6.26 5.15 6.26a4.63 4.63 0 0 0 4.39-3.24 5.5 5.5 0 0 0 .25-1.69zM242.29 1063.44c0 1.8 0 3.38.14 4.75h-2.81l-.18-2.85h-.07a6.54 6.54 0 0 1-5.76 3.24c-2.73 0-6-1.51-6-7.63v-10.18h3.17v9.64c0 3.31 1 5.55 3.89 5.55a4.57 4.57 0 0 0 4.17-2.88 4.67 4.67 0 0 0 .29-1.62v-10.69h3.17zM257.19 1068.19l-.25-2.2h-.11a6.48 6.48 0 0 1-5.33 2.59 5 5 0 0 1-5.32-5c0-4.21 3.74-6.51 10.47-6.48v-.36c0-1.44-.39-4-4-4a8.58 8.58 0 0 0-4.53 1.3l-.72-2.09a10.75 10.75 0 0 1 5.72-1.55c5.33 0 6.62 3.64 6.62 7.13v6.47a25.23 25.23 0 0 0 .29 4.18zm-.47-8.89c-3.45-.08-7.38.54-7.38 3.92a2.8 2.8 0 0 0 3 3 4.33 4.33 0 0 0 4.21-2.91 3.31 3.31 0 0 0 .18-1zM279.91 1050.77c-.08 1.26-.15 2.66-.15 4.78v10.12c0 4-.79 6.44-2.48 7.95a9.21 9.21 0 0 1-6.34 2.09 11.19 11.19 0 0 1-5.79-1.44l.79-2.41a9.81 9.81 0 0 0 5.11 1.37c3.24 0 5.62-1.69 5.62-6.09v-1.94h-.07a6.24 6.24 0 0 1-5.55 2.92c-4.32 0-7.41-3.68-7.41-8.5 0-5.9 3.85-9.25 7.84-9.25a5.8 5.8 0 0 1 5.44 3h.08l.15-2.62zm-3.28 6.87a4.34 4.34 0 0 0-.18-1.44 4.56 4.56 0 0 0-4.43-3.35c-3 0-5.18 2.56-5.18 6.59 0 3.42 1.73 6.26 5.15 6.26a4.62 4.62 0 0 0 4.39-3.24 5.5 5.5 0 0 0 .25-1.69zM286.78 1060.05c.08 4.29 2.81 6 6 6a11.5 11.5 0 0 0 4.82-.9l.54 2.27a14.13 14.13 0 0 1-5.79 1.08c-5.37 0-8.57-3.53-8.57-8.79s3.1-9.39 8.17-9.39c5.69 0 7.2 5 7.2 8.21a11.08 11.08 0 0 1-.11 1.47zm9.29-2.26c0-2-.83-5.15-4.39-5.15-3.2 0-4.61 2.95-4.86 5.15zM44 1099.65c0-2.23-.07-4-.14-5.68h2.84l.14 3H47a6.87 6.87 0 0 1 6.2-3.38c4.21 0 7.38 3.56 7.38 8.85 0 6.27-3.82 9.36-7.92 9.36a6.11 6.11 0 0 1-5.37-2.73h-.07v9.46H44zm3.13 4.65a6.43 6.43 0 0 0 .15 1.29 4.88 4.88 0 0 0 4.75 3.71c3.34 0 5.29-2.74 5.29-6.73 0-3.49-1.84-6.48-5.19-6.48a5 5 0 0 0-4.78 3.92 5.13 5.13 0 0 0-.22 1.3zM64.52 1099.4c0-2.05 0-3.81-.14-5.43h2.77l.11 3.42h.14a5.23 5.23 0 0 1 4.83-3.82 3.52 3.52 0 0 1 .9.11v3a4.38 4.38 0 0 0-1.08-.11c-2.24 0-3.82 1.69-4.25 4.07a9.06 9.06 0 0 0-.14 1.47v9.29h-3.14zM91.7 1102.53c0 6.45-4.46 9.25-8.67 9.25-4.72 0-8.35-3.45-8.35-9 0-5.83 3.81-9.25 8.63-9.25 5.01.04 8.39 3.68 8.39 9zm-13.82.18c0 3.82 2.19 6.7 5.29 6.7s5.29-2.85 5.29-6.77c0-3-1.47-6.69-5.22-6.69s-5.36 3.45-5.36 6.76zM108.12 1110.74a11.73 11.73 0 0 1-5 1c-5.25 0-8.67-3.57-8.67-8.89s3.67-9.25 9.36-9.25a10.48 10.48 0 0 1 4.39.9l-.72 2.44a7.38 7.38 0 0 0-3.67-.82c-4 0-6.16 2.95-6.16 6.58 0 4 2.59 6.52 6 6.52a8.94 8.94 0 0 0 3.89-.87zM113.37 1103.25c.08 4.29 2.81 6 6 6a11.46 11.46 0 0 0 4.82-.9l.54 2.27a14.13 14.13 0 0 1-5.79 1.08c-5.37 0-8.57-3.53-8.57-8.79s3.1-9.39 8.17-9.39c5.69 0 7.2 5 7.2 8.21a11.08 11.08 0 0 1-.11 1.47zm9.29-2.27c0-2-.83-5.14-4.39-5.14-3.2 0-4.61 3-4.86 5.14zM129.21 1108.15a8.36 8.36 0 0 0 4.18 1.26c2.3 0 3.38-1.15 3.38-2.59s-.9-2.34-3.24-3.21c-3.13-1.11-4.6-2.84-4.6-4.93 0-2.81 2.27-5.11 6-5.11a8.64 8.64 0 0 1 4.28 1.08l-.79 2.3a6.78 6.78 0 0 0-3.56-1c-1.88 0-2.92 1.08-2.92 2.37 0 1.44 1 2.09 3.31 3 3 1.15 4.57 2.67 4.57 5.26 0 3.06-2.37 5.22-6.51 5.22a10 10 0 0 1-4.9-1.19zM143.47 1108.15a8.33 8.33 0 0 0 4.18 1.26c2.3 0 3.38-1.15 3.38-2.59s-.9-2.34-3.24-3.21c-3.13-1.11-4.61-2.84-4.61-4.93 0-2.81 2.27-5.11 6-5.11a8.65 8.65 0 0 1 4.29 1.08l-.79 2.3a6.85 6.85 0 0 0-3.57-1c-1.87 0-2.91 1.08-2.91 2.37 0 1.44 1 2.09 3.31 3 3 1.15 4.57 2.67 4.57 5.26 0 3.06-2.38 5.22-6.52 5.22a9.92 9.92 0 0 1-4.89-1.19zM161.69 1089.07a2 2 0 0 1-3.93 0 1.93 1.93 0 0 1 2-2 1.88 1.88 0 0 1 1.93 2zm-3.53 22.32V1094h3.17v17.42zM166.58 1098.68c0-1.8 0-3.27-.14-4.71h2.81l.18 2.88h.07a6.4 6.4 0 0 1 5.76-3.28c2.41 0 6.15 1.44 6.15 7.41v10.41h-3.17v-10c0-2.81-1-5.15-4-5.15a4.49 4.49 0 0 0-4.24 3.24 4.33 4.33 0 0 0-.22 1.47v10.48h-3.17zM201.57 1094c-.07 1.26-.14 2.66-.14 4.78v10.12c0 4-.79 6.44-2.49 8a9.18 9.18 0 0 1-6.33 2.09 11.23 11.23 0 0 1-5.8-1.44l.8-2.41a9.81 9.81 0 0 0 5.11 1.37c3.24 0 5.61-1.69 5.61-6.09v-1.94h-.07a6.21 6.21 0 0 1-5.54 2.92c-4.32 0-7.42-3.68-7.42-8.5 0-5.9 3.85-9.25 7.85-9.25a5.78 5.78 0 0 1 5.43 3h.08l.14-2.62zm-3.27 6.87a4.64 4.64 0 0 0-4.61-4.79c-3 0-5.18 2.56-5.18 6.59 0 3.42 1.72 6.26 5.14 6.26a4.61 4.61 0 0 0 4.39-3.24 5.51 5.51 0 0 0 .26-1.69zM48.07 1285.67l-2.52 7.64h-3.24l8.24-24.31h3.78l8.28 24.27h-3.34l-2.6-7.64zm8-2.44l-2.38-7c-.54-1.58-.9-3-1.26-4.42h-.07a72.84 72.84 0 0 1-1.23 4.39l-2.37 7zM69.31 1269v24.27h-3.13V1269zM82.31 1281.57c0-2.23-.07-4-.15-5.69H85l.14 3h.07a6.86 6.86 0 0 1 6.19-3.38c4.22 0 7.38 3.56 7.38 8.85 0 6.27-3.81 9.36-7.92 9.36a6.12 6.12 0 0 1-5.36-2.73h-.07v9.46h-3.12zm3.13 4.64a7.4 7.4 0 0 0 .14 1.3 4.89 4.89 0 0 0 4.75 3.71c3.35 0 5.3-2.74 5.3-6.73 0-3.49-1.84-6.48-5.19-6.48a5 5 0 0 0-4.78 3.92 5.13 5.13 0 0 0-.22 1.3zM102.79 1281.32c0-2 0-3.82-.14-5.44h2.77l.11 3.42h.14a5.22 5.22 0 0 1 4.82-3.81 3.08 3.08 0 0 1 .9.11v3a4.84 4.84 0 0 0-1.08-.1c-2.23 0-3.81 1.69-4.24 4.06a8.13 8.13 0 0 0-.15 1.48v9.29h-3.13zM118.23 1271a1.86 1.86 0 0 1-2 1.94 1.88 1.88 0 0 1-1.91-1.94 1.93 1.93 0 0 1 2-2 1.87 1.87 0 0 1 1.91 2zm-3.52 22.32v-17.43h3.16v17.43zM123.13 1280.6c0-1.8 0-3.28-.14-4.72h2.8l.18 2.88h.08a6.41 6.41 0 0 1 5.76-3.27c2.41 0 6.15 1.44 6.15 7.41v10.41h-3.17v-10c0-2.8-1-5.14-4-5.14a4.49 4.49 0 0 0-4.25 3.24 4.61 4.61 0 0 0-.21 1.47v10.48h-3.17zM155.53 1292.66a11.68 11.68 0 0 1-5 1c-5.26 0-8.68-3.57-8.68-8.9s3.67-9.25 9.36-9.25a10.6 10.6 0 0 1 4.39.9l-.72 2.45a7.36 7.36 0 0 0-3.67-.83c-4 0-6.16 3-6.16 6.59 0 4 2.6 6.52 6 6.52a8.94 8.94 0 0 0 3.89-.87zM162.77 1271a2 2 0 0 1-3.93 0 1.93 1.93 0 0 1 2-2 1.88 1.88 0 0 1 1.93 2zm-3.53 22.32v-17.43h3.17v17.43zM167.66 1281.57c0-2.23-.07-4-.14-5.69h2.84l.15 3h.07a6.84 6.84 0 0 1 6.19-3.38c4.21 0 7.38 3.56 7.38 8.85 0 6.27-3.82 9.36-7.92 9.36a6.1 6.1 0 0 1-5.36-2.73h-.08v9.46h-3.13zm3.13 4.64a7.37 7.37 0 0 0 .15 1.3 4.88 4.88 0 0 0 4.75 3.71c3.35 0 5.29-2.74 5.29-6.73 0-3.49-1.84-6.48-5.18-6.48a5.06 5.06 0 0 0-4.79 3.92 5.13 5.13 0 0 0-.22 1.3zM188.15 1267.75h3.16v25.56h-3.16zM198.41 1285.17c.07 4.28 2.8 6 6 6a11.46 11.46 0 0 0 4.82-.9l.54 2.27a14.13 14.13 0 0 1-5.79 1.08c-5.37 0-8.57-3.53-8.57-8.79s3.1-9.39 8.17-9.39c5.69 0 7.2 5 7.2 8.2a11.11 11.11 0 0 1-.11 1.48zm9.28-2.27c0-2-.83-5.14-4.39-5.14-3.2 0-4.61 3-4.86 5.14zM214.24 1290.07a8.36 8.36 0 0 0 4.18 1.26c2.3 0 3.38-1.16 3.38-2.6s-.9-2.34-3.24-3.2c-3.13-1.12-4.6-2.84-4.6-4.93 0-2.81 2.26-5.11 6-5.11a8.64 8.64 0 0 1 4.28 1.08l-.79 2.3a6.77 6.77 0 0 0-3.56-1c-1.88 0-2.92 1.08-2.92 2.38s1 2.09 3.31 3c3 1.15 4.57 2.66 4.57 5.26 0 3.06-2.37 5.22-6.51 5.22a10 10 0 0 1-4.9-1.19zM651.05 1189.65a15.41 15.41 0 0 1-6.4 1.16c-6.84 0-12-4.32-12-12.28 0-7.59 5.15-12.74 12.67-12.74a13 13 0 0 1 5.76 1.08l-.76 2.55a11.47 11.47 0 0 0-4.89-1c-5.69 0-9.47 3.63-9.47 10 0 5.94 3.42 9.76 9.33 9.76a12.59 12.59 0 0 0 5.11-1zM670.24 1181.59c0 6.44-4.46 9.25-8.67 9.25-4.72 0-8.35-3.45-8.35-9 0-5.83 3.81-9.25 8.64-9.25 5 .04 8.38 3.67 8.38 9zm-13.82.18c0 3.82 2.2 6.7 5.29 6.7s5.29-2.85 5.29-6.77c0-3-1.47-6.7-5.22-6.7s-5.36 3.46-5.36 6.77zM674.24 1177.74c0-1.8 0-3.28-.14-4.72h2.77l.14 2.81h.11a6 6 0 0 1 5.47-3.2 5.14 5.14 0 0 1 4.93 3.49h.08a7.07 7.07 0 0 1 1.94-2.27 5.93 5.93 0 0 1 3.85-1.22c2.3 0 5.72 1.51 5.72 7.56v10.26H696v-9.87c0-3.34-1.23-5.36-3.78-5.36a4.11 4.11 0 0 0-3.75 2.88 5.34 5.34 0 0 0-.25 1.58v10.77h-3.09V1180c0-2.77-1.23-4.79-3.64-4.79a4.31 4.31 0 0 0-3.92 3.17 4.38 4.38 0 0 0-.25 1.55v10.51h-3.1zM704.26 1178.71c0-2.23-.07-4-.14-5.69H707l.15 3h.07a6.86 6.86 0 0 1 6.19-3.38c4.21 0 7.38 3.56 7.38 8.85 0 6.27-3.82 9.36-7.92 9.36a6.12 6.12 0 0 1-5.36-2.73h-.07v9.46h-3.14zm3.14 4.64a7.4 7.4 0 0 0 .14 1.3 4.89 4.89 0 0 0 4.75 3.71c3.35 0 5.29-2.74 5.29-6.73 0-3.49-1.83-6.48-5.18-6.48a5.06 5.06 0 0 0-4.79 3.92 5.12 5.12 0 0 0-.21 1.3zM739.33 1185.69c0 1.8 0 3.39.14 4.76h-2.81l-.18-2.85h-.07a6.54 6.54 0 0 1-5.76 3.24c-2.74 0-6-1.51-6-7.63V1173h3.17v9.65c0 3.31 1 5.54 3.89 5.54a4.46 4.46 0 0 0 4.46-4.5V1173h3.17zM748.4 1168v5h4.53v2.42h-4.53v9.39c0 2.16.61 3.38 2.38 3.38a7 7 0 0 0 1.83-.21l.14 2.37a7.52 7.52 0 0 1-2.8.44 4.36 4.36 0 0 1-3.42-1.34c-.9-.93-1.23-2.48-1.23-4.53v-9.5h-2.7V1173h2.7v-4.17zM758.05 1182.31c.07 4.28 2.81 6 6 6a11.55 11.55 0 0 0 4.83-.9l.54 2.27a14.23 14.23 0 0 1-5.8 1.08c-5.36 0-8.57-3.53-8.57-8.79s3.1-9.39 8.18-9.39c5.68 0 7.19 5 7.19 8.2a13.68 13.68 0 0 1-.1 1.48zm9.28-2.27c0-2-.82-5.14-4.39-5.14-3.2 0-4.6 2.95-4.86 5.14zM774.32 1178.46c0-2 0-3.82-.14-5.44H777l.11 3.42h.14a5.22 5.22 0 0 1 4.82-3.81 3.13 3.13 0 0 1 .9.11v3a4.84 4.84 0 0 0-1.08-.1c-2.23 0-3.81 1.69-4.24 4.06a8.22 8.22 0 0 0-.15 1.48v9.29h-3.13zM795 1173l3.42 9.79c.57 1.59 1 3 1.4 4.47h.11c.39-1.44.9-2.88 1.47-4.47l3.39-9.79h3.31l-6.84 17.43h-3l-6.7-17.43zM814.57 1168.13a2 2 0 0 1-3.93 0 1.93 1.93 0 0 1 2-2 1.88 1.88 0 0 1 1.93 2zm-3.57 22.32V1173h3.17v17.43zM819 1187.21a8.33 8.33 0 0 0 4.18 1.26c2.3 0 3.38-1.16 3.38-2.6s-.9-2.34-3.24-3.2c-3.13-1.11-4.61-2.84-4.61-4.93 0-2.81 2.27-5.11 6-5.11a8.65 8.65 0 0 1 4.29 1.08l-.8 2.3a6.77 6.77 0 0 0-3.56-1c-1.87 0-2.91 1.08-2.91 2.38s1 2.09 3.31 2.95c3 1.15 4.57 2.66 4.57 5.26 0 3.06-2.38 5.22-6.52 5.22a9.92 9.92 0 0 1-4.89-1.19zM837.25 1168.13a2 2 0 0 1-3.93 0 1.93 1.93 0 0 1 2-2 1.88 1.88 0 0 1 1.93 2zm-3.53 22.32V1173h3.17v17.43zM857.91 1181.59c0 6.44-4.46 9.25-8.68 9.25-4.71 0-8.35-3.45-8.35-9 0-5.83 3.82-9.25 8.64-9.25 5 .04 8.39 3.67 8.39 9zm-13.82.18c0 3.82 2.19 6.7 5.29 6.7s5.29-2.85 5.29-6.77c0-3-1.48-6.7-5.22-6.7s-5.36 3.46-5.36 6.77zM861.91 1177.74c0-1.8 0-3.28-.15-4.72h2.81l.18 2.88h.07a6.42 6.42 0 0 1 5.76-3.27c2.41 0 6.16 1.44 6.16 7.41v10.41h-3.17v-10c0-2.8-1.05-5.14-4-5.14a4.49 4.49 0 0 0-4.25 3.24 4.6 4.6 0 0 0-.22 1.47v10.48h-3.16zM654.55 979.2c-.18-3.39-.4-7.45-.36-10.48h-.11c-.83 2.85-1.84 5.87-3.06 9.22l-4.28 11.77h-2.38l-3.92-11.56c-1.16-3.42-2.13-6.55-2.81-9.43h-.07c-.08 3-.26 7.09-.47 10.73l-.65 10.4h-3l1.69-24.26h4l4.14 11.74c1 3 1.84 5.65 2.45 8.17h.1c.62-2.45 1.48-5.12 2.56-8.17l4.32-11.74h4l1.51 24.26h-3.06zM672.8 989.85l-.25-2.19h-.11a6.5 6.5 0 0 1-5.33 2.59 5 5 0 0 1-5.33-5c0-4.21 3.75-6.51 10.48-6.48v-.35c0-1.44-.4-4-4-4a8.73 8.73 0 0 0-4.54 1.3l-.72-2.09a10.88 10.88 0 0 1 5.73-1.55c5.32 0 6.62 3.64 6.62 7.13v6.52a24.07 24.07 0 0 0 .29 4.17zm-.47-8.89c-3.46-.07-7.38.54-7.38 3.92a2.81 2.81 0 0 0 3 3 4.32 4.32 0 0 0 4.21-2.92 3.21 3.21 0 0 0 .18-1zM692.92 989.2a11.53 11.53 0 0 1-5 1c-5.26 0-8.68-3.56-8.68-8.89s3.67-9.25 9.36-9.25a10.6 10.6 0 0 1 4.39.9l-.72 2.45a7.33 7.33 0 0 0-3.67-.83c-4 0-6.15 2.95-6.15 6.59 0 4 2.59 6.51 6 6.51a9.11 9.11 0 0 0 3.89-.86zM696.63 964.29h3.17v10.88h.07a5.89 5.89 0 0 1 2.27-2.24 6.5 6.5 0 0 1 3.24-.9c2.34 0 6.08 1.44 6.08 7.45v10.37h-3.17v-10c0-2.81-1-5.19-4-5.19a4.54 4.54 0 0 0-4.24 3.17 3.65 3.65 0 0 0-.22 1.51v10.51h-3.17zM720.14 967.53a2 2 0 0 1-3.92 0 1.93 1.93 0 0 1 2-2 1.88 1.88 0 0 1 1.92 2zm-3.53 22.32v-17.42h3.17v17.42zM725 977.15c0-1.8 0-3.28-.15-4.72h2.81l.18 2.88h.16a6.41 6.41 0 0 1 5.76-3.28c2.41 0 6.16 1.44 6.16 7.42v10.4h-3.22v-10c0-2.81-1.05-5.15-4-5.15a4.51 4.51 0 0 0-4.25 3.24 4.71 4.71 0 0 0-.22 1.48v10.47H725zM746.78 981.72c.07 4.28 2.81 6 6 6a11.39 11.39 0 0 0 4.83-.9l.54 2.27a14.06 14.06 0 0 1-5.8 1.08c-5.36 0-8.56-3.53-8.56-8.78s3.09-9.4 8.17-9.4c5.68 0 7.2 5 7.2 8.21a13.35 13.35 0 0 1-.11 1.48zm9.29-2.27c0-2-.83-5.15-4.4-5.15-3.2 0-4.6 3-4.85 5.15zM770.68 964.29h3.17v25.56h-3.17zM780.94 981.72c.07 4.28 2.81 6 6 6a11.34 11.34 0 0 0 4.82-.9l.54 2.27a14 14 0 0 1-5.79 1.08c-5.37 0-8.57-3.53-8.57-8.78s3.09-9.4 8.17-9.4c5.69 0 7.2 5 7.2 8.21a11.26 11.26 0 0 1-.11 1.48zm9.29-2.27c0-2-.83-5.15-4.39-5.15-3.21 0-4.61 3-4.86 5.15zM806.86 989.85l-.25-2.19h-.11a6.5 6.5 0 0 1-5.33 2.59 5 5 0 0 1-5.32-5c0-4.21 3.74-6.51 10.47-6.48v-.35c0-1.44-.4-4-4-4a8.73 8.73 0 0 0-4.54 1.3l-.71-2.09a10.84 10.84 0 0 1 5.72-1.55c5.33 0 6.62 3.64 6.62 7.13v6.52a24.07 24.07 0 0 0 .29 4.17zm-.47-8.89c-3.45-.07-7.38.54-7.38 3.92a2.81 2.81 0 0 0 3 3 4.32 4.32 0 0 0 4.21-2.92 3.21 3.21 0 0 0 .18-1zM814.57 977.87c0-2.06 0-3.82-.15-5.44h2.77l.11 3.42h.15a5.23 5.23 0 0 1 4.82-3.82 3.52 3.52 0 0 1 .9.11v3a4.92 4.92 0 0 0-1.08-.11c-2.23 0-3.82 1.69-4.25 4.07a9.06 9.06 0 0 0-.14 1.47v9.29h-3.13zM826.48 977.15c0-1.8 0-3.28-.14-4.72h2.8l.18 2.88h.08a6.4 6.4 0 0 1 5.76-3.28c2.41 0 6.15 1.44 6.15 7.42v10.4h-3.17v-10c0-2.81-1-5.15-4-5.15a4.48 4.48 0 0 0-4.24 3.24 4.43 4.43 0 0 0-.22 1.48v10.47h-3.17zM850 967.53a2 2 0 0 1-3.92 0 1.93 1.93 0 0 1 2-2 1.88 1.88 0 0 1 1.92 2zm-3.53 22.32v-17.42h3.17v17.42zM854.89 977.15c0-1.8 0-3.28-.15-4.72h2.81l.18 2.88h.07a6.4 6.4 0 0 1 5.76-3.28c2.41 0 6.16 1.44 6.16 7.42v10.4h-3.17v-10c0-2.81-1-5.15-4-5.15a4.51 4.51 0 0 0-4.25 3.24 4.43 4.43 0 0 0-.22 1.48v10.47h-3.16zM889.87 972.43c-.07 1.26-.14 2.66-.14 4.79v10.11c0 4-.79 6.45-2.48 8a9.25 9.25 0 0 1-6.34 2.08 11.17 11.17 0 0 1-5.79-1.44l.79-2.41a9.81 9.81 0 0 0 5.11 1.37c3.24 0 5.62-1.69 5.62-6.08v-1.95h-.08a6.21 6.21 0 0 1-5.54 2.92c-4.32 0-7.41-3.67-7.41-8.5 0-5.9 3.85-9.25 7.84-9.25a5.8 5.8 0 0 1 5.44 3h.11l.14-2.63zm-3.27 6.88a4.64 4.64 0 0 0-4.61-4.79c-3 0-5.18 2.55-5.18 6.58 0 3.42 1.73 6.27 5.15 6.27a4.65 4.65 0 0 0 4.39-3.24 5.5 5.5 0 0 0 .25-1.69z"/></g></svg>