<svg id="Layer_1" data-name="Layer 1" xmlns="http://www.w3.org/2000/svg" width="770.36" height="148.65" viewBox="0 0 770.36 148.65"><title>true-example-transformation</title><path d="M10.56,99.89a26.89,26.89,0,0,1,4.07-.31c2.75,0,4.71.64,6,1.85a6.82,6.82,0,0,1,2.09,5.32,7.85,7.85,0,0,1-2.14,5.77c-1.38,1.38-3.67,2.13-6.55,2.13a31.07,31.07,0,0,1-3.48-.17ZM12.47,113a11.94,11.94,0,0,0,1.94.11c4.09,0,6.32-2.29,6.32-6.29,0-3.5-2-5.72-6-5.72a10.28,10.28,0,0,0-2.25.2Z"/><path d="M26.31,109.55A3.41,3.41,0,0,0,30,113.24a7,7,0,0,0,2.95-.55l.33,1.39a8.59,8.59,0,0,1-3.54.66c-3.28,0-5.24-2.16-5.24-5.37s1.9-5.74,5-5.74c3.47,0,4.4,3.06,4.4,5a7.67,7.67,0,0,1-.07.91ZM32,108.16c0-1.23-.51-3.15-2.69-3.15-1.95,0-2.81,1.81-3,3.15Z"/><path d="M36.45,114.52v-9.18H35v-1.47h1.49v-.57a4.27,4.27,0,0,1,4.65-4.64,5.27,5.27,0,0,1,2.7.7l-.55,1.47a4.07,4.07,0,0,0-2.24-.61c-2,0-2.64,1.43-2.64,3.12v.53h6.18v10.65H42.64v-9.18H38.37v9.18Z"/><path d="M47.76,106.75c0-1.1,0-2-.09-2.88h1.72l.11,1.76h0a3.92,3.92,0,0,1,3.52-2c1.48,0,3.77.88,3.77,4.53v6.36H54.89v-6.14c0-1.72-.64-3.15-2.46-3.15a2.76,2.76,0,0,0-2.6,2,2.82,2.82,0,0,0-.13.91v6.4H47.76Z"/><path d="M61.05,109.55a3.4,3.4,0,0,0,3.65,3.69,7,7,0,0,0,3-.55l.33,1.39a8.59,8.59,0,0,1-3.54.66c-3.28,0-5.24-2.16-5.24-5.37s1.89-5.74,5-5.74c3.47,0,4.4,3.06,4.4,5a7.67,7.67,0,0,1-.07.91Zm5.68-1.39c0-1.23-.51-3.15-2.69-3.15-2,0-2.81,1.81-3,3.15Z"/><path d="M80.19,98.9v12.87c0,1,0,2,.09,2.75H78.54l-.09-1.85h0a3.94,3.94,0,0,1-3.63,2.09c-2.58,0-4.56-2.18-4.56-5.41,0-3.54,2.18-5.72,4.78-5.72a3.55,3.55,0,0,1,3.21,1.63h0V98.9Zm-1.94,9.3a3.71,3.71,0,0,0-.08-.81,2.86,2.86,0,0,0-2.8-2.24c-2,0-3.19,1.76-3.19,4.11,0,2.16,1.06,3.94,3.15,3.94a2.92,2.92,0,0,0,2.84-2.31,3.74,3.74,0,0,0,.08-.84Z"/><path d="M25.11,138.59a6.86,6.86,0,0,0,3.43,1c2,0,3.11-1,3.11-2.53s-.79-2.17-2.8-2.94c-2.42-.86-3.91-2.12-3.91-4.21,0-2.31,1.91-4,4.79-4a6.8,6.8,0,0,1,3.28.72l-.53,1.57a5.79,5.79,0,0,0-2.81-.71c-2,0-2.8,1.21-2.8,2.22,0,1.39.9,2.07,2.95,2.86,2.51,1,3.79,2.18,3.79,4.36s-1.7,4.27-5.2,4.27a7.62,7.62,0,0,1-3.78-.95Z"/><path d="M36.22,126.09h1.92v13.22h6.33v1.61H36.22Z"/><path d="M49,136.26l-1.54,4.66h-2l5-14.83h2.31l5.06,14.83h-2l-1.59-4.66Zm4.87-1.5-1.45-4.27c-.34-1-.56-1.85-.78-2.71h0c-.22.88-.46,1.79-.75,2.69l-1.45,4.29Z"/><path d="M59.61,138.94a5.09,5.09,0,0,0,2.55.77c1.41,0,2.07-.7,2.07-1.59s-.55-1.43-2-2c-1.92-.69-2.82-1.74-2.82-3,0-1.71,1.39-3.12,3.68-3.12a5.31,5.31,0,0,1,2.61.66l-.48,1.41a4.1,4.1,0,0,0-2.18-.62c-1.14,0-1.78.66-1.78,1.45s.64,1.28,2,1.81c1.85.7,2.8,1.62,2.8,3.21,0,1.87-1.45,3.19-4,3.19a6.1,6.1,0,0,1-3-.73Z"/><path d="M220.85,99.89a26.78,26.78,0,0,1,4.07-.31c2.75,0,4.71.64,6,1.85a6.82,6.82,0,0,1,2.09,5.32,7.85,7.85,0,0,1-2.13,5.77c-1.39,1.38-3.67,2.13-6.56,2.13a30.88,30.88,0,0,1-3.47-.17ZM222.76,113a11.87,11.87,0,0,0,1.94.11c4.09,0,6.31-2.29,6.31-6.29,0-3.5-2-5.72-6-5.72a10.17,10.17,0,0,0-2.24.2Z"/><path d="M236.6,109.55a3.4,3.4,0,0,0,3.65,3.69,7,7,0,0,0,2.95-.55l.33,1.39a8.59,8.59,0,0,1-3.54.66c-3.28,0-5.24-2.16-5.24-5.37s1.89-5.74,5-5.74c3.48,0,4.4,3.06,4.4,5a8.16,8.16,0,0,1-.06.91Zm5.67-1.39c0-1.23-.5-3.15-2.68-3.15-2,0-2.82,1.81-3,3.15Z"/><path d="M254.13,114.12a7,7,0,0,1-3.06.62,5.06,5.06,0,0,1-5.3-5.44,5.41,5.41,0,0,1,5.72-5.65,6.55,6.55,0,0,1,2.69.55l-.44,1.5a4.46,4.46,0,0,0-2.25-.51c-2.44,0-3.76,1.8-3.76,4a3.65,3.65,0,0,0,3.7,4,5.49,5.49,0,0,0,2.37-.53Z"/><path d="M256.4,107.19c0-1.25,0-2.33-.09-3.32H258l.07,2.09h.09a3.19,3.19,0,0,1,2.95-2.33,2.32,2.32,0,0,1,.55.06v1.83a3.18,3.18,0,0,0-.66-.07,2.72,2.72,0,0,0-2.6,2.49,5.82,5.82,0,0,0-.09.9v5.68H256.4Z"/><path d="M264.45,109.55a3.4,3.4,0,0,0,3.65,3.69,7,7,0,0,0,2.95-.55l.33,1.39a8.59,8.59,0,0,1-3.54.66c-3.28,0-5.24-2.16-5.24-5.37s1.89-5.74,5-5.74c3.47,0,4.4,3.06,4.4,5a7.67,7.67,0,0,1-.07.91Zm5.68-1.39c0-1.23-.51-3.15-2.69-3.15-2,0-2.81,1.81-3,3.15Z"/><path d="M280.29,114.52l-.15-1.34h-.07a4,4,0,0,1-3.26,1.58,3,3,0,0,1-3.25-3.06c0-2.57,2.29-4,6.4-4v-.22a2.19,2.19,0,0,0-2.42-2.46,5.34,5.34,0,0,0-2.77.79l-.44-1.28a6.61,6.61,0,0,1,3.5-.94c3.25,0,4,2.22,4,4.35v4a15.21,15.21,0,0,0,.18,2.55Zm-.29-5.43c-2.11,0-4.51.33-4.51,2.39a1.71,1.71,0,0,0,1.83,1.85,2.63,2.63,0,0,0,2.57-1.78,1.93,1.93,0,0,0,.11-.62Z"/><path d="M284.73,112.54a5.13,5.13,0,0,0,2.56.77c1.4,0,2.06-.71,2.06-1.59s-.55-1.43-2-2c-1.91-.68-2.81-1.74-2.81-3,0-1.71,1.38-3.12,3.67-3.12a5.33,5.33,0,0,1,2.62.66l-.48,1.41a4.1,4.1,0,0,0-2.18-.62c-1.15,0-1.78.66-1.78,1.45s.63,1.28,2,1.81c1.85.7,2.79,1.62,2.79,3.21,0,1.87-1.45,3.19-4,3.19a6.09,6.09,0,0,1-3-.73Z"/><path d="M294.79,109.55a3.4,3.4,0,0,0,3.65,3.69,7,7,0,0,0,2.95-.55l.33,1.39a8.59,8.59,0,0,1-3.54.66c-3.28,0-5.24-2.16-5.24-5.37s1.89-5.74,5-5.74c3.48,0,4.4,3.06,4.4,5a8.16,8.16,0,0,1-.06.91Zm5.67-1.39c0-1.23-.5-3.15-2.68-3.15-2,0-2.82,1.81-3,3.15Z"/><path d="M313.93,98.9v12.87c0,1,0,2,.09,2.75h-1.74l-.09-1.85h0a4,4,0,0,1-3.63,2.09c-2.58,0-4.56-2.18-4.56-5.41,0-3.54,2.18-5.72,4.78-5.72a3.57,3.57,0,0,1,3.21,1.63h0V98.9ZM312,108.2a3.2,3.2,0,0,0-.09-.81,2.84,2.84,0,0,0-2.79-2.24c-2,0-3.19,1.76-3.19,4.11,0,2.16,1.06,3.94,3.15,3.94a2.91,2.91,0,0,0,2.83-2.31,3.23,3.23,0,0,0,.09-.84Z"/><path d="M257.65,140.52a7,7,0,0,1-3.06.62,5.06,5.06,0,0,1-5.3-5.44,5.41,5.41,0,0,1,5.72-5.65,6.55,6.55,0,0,1,2.69.55l-.44,1.5a4.46,4.46,0,0,0-2.25-.51c-2.44,0-3.76,1.8-3.76,4a3.65,3.65,0,0,0,3.7,4,5.49,5.49,0,0,0,2.37-.53Z"/><path d="M269.42,135.51c0,3.93-2.72,5.65-5.3,5.65-2.88,0-5.1-2.11-5.1-5.48,0-3.56,2.33-5.65,5.28-5.65S269.42,132.25,269.42,135.51Zm-8.45.11c0,2.33,1.35,4.09,3.24,4.09s3.23-1.74,3.23-4.14c0-1.8-.9-4.09-3.19-4.09S261,133.59,261,135.62Z"/><path d="M271.6,138.94a5.09,5.09,0,0,0,2.55.77c1.41,0,2.07-.7,2.07-1.59s-.55-1.43-2-2c-1.91-.69-2.82-1.74-2.82-3,0-1.71,1.39-3.12,3.68-3.12a5.36,5.36,0,0,1,2.62.66l-.49,1.41a4.1,4.1,0,0,0-2.18-.62c-1.14,0-1.78.66-1.78,1.45s.64,1.28,2,1.81c1.84.7,2.79,1.62,2.79,3.21,0,1.87-1.45,3.19-4,3.19a6,6,0,0,1-3-.73Z"/><path d="M282.91,127.21v3.06h2.77v1.47h-2.77v5.75c0,1.32.37,2.06,1.45,2.06a4.1,4.1,0,0,0,1.12-.13l.09,1.46a4.84,4.84,0,0,1-1.72.26,2.72,2.72,0,0,1-2.09-.81,4,4,0,0,1-.74-2.78v-5.81h-1.65v-1.47H281v-2.55Z"/><path d="M453.83,99.89a26.89,26.89,0,0,1,4.07-.31c2.75,0,4.71.64,6,1.85a6.82,6.82,0,0,1,2.09,5.32,7.85,7.85,0,0,1-2.14,5.77c-1.38,1.38-3.67,2.13-6.55,2.13a31.07,31.07,0,0,1-3.48-.17ZM455.74,113a11.94,11.94,0,0,0,1.94.11c4.09,0,6.32-2.29,6.32-6.29,0-3.5-2-5.72-6-5.72a10.28,10.28,0,0,0-2.25.2Z"/><path d="M469.58,109.55a3.41,3.41,0,0,0,3.65,3.69,7,7,0,0,0,2.95-.55l.33,1.39a8.59,8.59,0,0,1-3.54.66c-3.28,0-5.24-2.16-5.24-5.37s1.9-5.74,5-5.74c3.48,0,4.4,3.06,4.4,5a7.67,7.67,0,0,1-.07.91Zm5.68-1.39c0-1.23-.51-3.15-2.69-3.15-1.95,0-2.81,1.81-3,3.15Z"/><path d="M487.12,114.12a7.05,7.05,0,0,1-3.06.62,5.06,5.06,0,0,1-5.3-5.44,5.41,5.41,0,0,1,5.72-5.65,6.54,6.54,0,0,1,2.68.55l-.44,1.5a4.41,4.41,0,0,0-2.24-.51c-2.45,0-3.77,1.8-3.77,4a3.66,3.66,0,0,0,3.7,4,5.55,5.55,0,0,0,2.38-.53Z"/><path d="M489.38,107.19c0-1.25,0-2.33-.09-3.32H491l.06,2.09h.09a3.2,3.2,0,0,1,2.95-2.33,2.32,2.32,0,0,1,.55.06v1.83a3.18,3.18,0,0,0-.66-.07,2.73,2.73,0,0,0-2.6,2.49,5.82,5.82,0,0,0-.09.9v5.68h-1.91Z"/><path d="M497.43,109.55a3.41,3.41,0,0,0,3.66,3.69,7,7,0,0,0,3-.55l.33,1.39a8.64,8.64,0,0,1-3.55.66c-3.28,0-5.23-2.16-5.23-5.37s1.89-5.74,5-5.74c3.48,0,4.4,3.06,4.4,5a6,6,0,0,1-.07.91Zm5.68-1.39c0-1.23-.5-3.15-2.68-3.15-2,0-2.82,1.81-3,3.15Z"/><path d="M513.27,114.52l-.15-1.34h-.07a4,4,0,0,1-3.25,1.58,3,3,0,0,1-3.26-3.06c0-2.57,2.29-4,6.4-4v-.22a2.19,2.19,0,0,0-2.42-2.46,5.34,5.34,0,0,0-2.77.79l-.44-1.28a6.64,6.64,0,0,1,3.5-.94c3.26,0,4.05,2.22,4.05,4.35v4a14.22,14.22,0,0,0,.18,2.55Zm-.28-5.43c-2.11,0-4.51.33-4.51,2.39a1.71,1.71,0,0,0,1.82,1.85,2.66,2.66,0,0,0,2.58-1.78,2.25,2.25,0,0,0,.11-.62Z"/><path d="M517.72,112.54a5.09,5.09,0,0,0,2.55.77c1.41,0,2.07-.71,2.07-1.59s-.55-1.43-2-2c-1.92-.68-2.82-1.74-2.82-3,0-1.71,1.39-3.12,3.67-3.12a5.33,5.33,0,0,1,2.62.66l-.48,1.41a4.1,4.1,0,0,0-2.18-.62c-1.14,0-1.78.66-1.78,1.45s.64,1.28,2,1.81c1.85.7,2.8,1.62,2.8,3.21,0,1.87-1.45,3.19-4,3.19a6.09,6.09,0,0,1-3-.73Z"/><path d="M527.77,109.55a3.4,3.4,0,0,0,3.65,3.69,7,7,0,0,0,3-.55l.33,1.39a8.59,8.59,0,0,1-3.54.66c-3.28,0-5.24-2.16-5.24-5.37s1.89-5.74,5-5.74c3.47,0,4.4,3.06,4.4,5a7.67,7.67,0,0,1-.07.91Zm5.68-1.39c0-1.23-.51-3.15-2.69-3.15-2,0-2.81,1.81-3,3.15Z"/><path d="M546.91,98.9v12.87c0,1,0,2,.09,2.75h-1.74l-.09-1.85h0a3.93,3.93,0,0,1-3.63,2.09c-2.57,0-4.55-2.18-4.55-5.41,0-3.54,2.17-5.72,4.77-5.72a3.55,3.55,0,0,1,3.21,1.63H545V98.9ZM545,108.2a3.2,3.2,0,0,0-.09-.81,2.85,2.85,0,0,0-2.8-2.24c-2,0-3.19,1.76-3.19,4.11,0,2.16,1.06,3.94,3.15,3.94a2.91,2.91,0,0,0,2.84-2.31,3.23,3.23,0,0,0,.09-.84Z"/><path d="M462.15,127.28a1.2,1.2,0,0,1-2.4,0,1.17,1.17,0,0,1,1.21-1.21A1.14,1.14,0,0,1,462.15,127.28ZM460,140.92V130.27h1.94v10.65Z"/><path d="M465.14,133.15c0-1.1,0-2-.09-2.88h1.72l.11,1.76h0a3.92,3.92,0,0,1,3.52-2c1.47,0,3.76.88,3.76,4.53v6.36h-1.93v-6.14c0-1.72-.64-3.15-2.47-3.15a2.76,2.76,0,0,0-2.59,2,2.81,2.81,0,0,0-.14.91v6.4h-1.93Z"/><path d="M484.94,140.52a7.05,7.05,0,0,1-3.06.62,5.06,5.06,0,0,1-5.3-5.44,5.41,5.41,0,0,1,5.72-5.65,6.5,6.5,0,0,1,2.68.55l-.44,1.5a4.39,4.39,0,0,0-2.24-.51c-2.44,0-3.76,1.8-3.76,4a3.65,3.65,0,0,0,3.69,4,5.55,5.55,0,0,0,2.38-.53Z"/><path d="M489.36,127.28a1.14,1.14,0,0,1-1.23,1.19,1.16,1.16,0,0,1-1.17-1.19,1.18,1.18,0,0,1,1.21-1.21A1.14,1.14,0,0,1,489.36,127.28Zm-2.15,13.64V130.27h1.93v10.65Z"/><path d="M501.55,125.3v12.87c0,.94,0,2,.09,2.75H499.9l-.09-1.85h0a3.94,3.94,0,0,1-3.63,2.09c-2.58,0-4.56-2.18-4.56-5.41,0-3.54,2.18-5.72,4.78-5.72a3.57,3.57,0,0,1,3.21,1.63h0V125.3Zm-1.94,9.3a3.71,3.71,0,0,0-.08-.81,2.86,2.86,0,0,0-2.8-2.24c-2,0-3.19,1.76-3.19,4.11,0,2.16,1.06,3.94,3.15,3.94a2.93,2.93,0,0,0,2.84-2.31,3.74,3.74,0,0,0,.08-.84Z"/><path d="M505.84,136a3.41,3.41,0,0,0,3.65,3.69,7,7,0,0,0,3-.55l.33,1.39a8.59,8.59,0,0,1-3.54.66c-3.28,0-5.24-2.16-5.24-5.37s1.89-5.74,5-5.74c3.48,0,4.4,3.06,4.4,5a8.16,8.16,0,0,1-.06.91Zm5.68-1.39c0-1.23-.51-3.15-2.69-3.15-2,0-2.82,1.81-3,3.15Z"/><path d="M515.78,133.15c0-1.1,0-2-.09-2.88h1.72l.11,1.76h0a3.92,3.92,0,0,1,3.52-2c1.48,0,3.77.88,3.77,4.53v6.36h-1.94v-6.14c0-1.72-.64-3.15-2.46-3.15a2.76,2.76,0,0,0-2.6,2,2.82,2.82,0,0,0-.13.91v6.4h-1.94Z"/><path d="M530.24,127.21v3.06H533v1.47h-2.77v5.75c0,1.32.37,2.06,1.45,2.06a4.16,4.16,0,0,0,1.12-.13l.09,1.46a4.89,4.89,0,0,1-1.72.26,2.71,2.71,0,0,1-2.09-.81,4,4,0,0,1-.75-2.78v-5.81h-1.65v-1.47h1.65v-2.55Z"/><path d="M534.92,138.94a5.13,5.13,0,0,0,2.55.77c1.41,0,2.07-.7,2.07-1.59s-.55-1.43-2-2c-1.91-.69-2.81-1.74-2.81-3,0-1.71,1.38-3.12,3.67-3.12a5.33,5.33,0,0,1,2.62.66l-.49,1.41a4,4,0,0,0-2.17-.62c-1.15,0-1.79.66-1.79,1.45s.64,1.28,2,1.81c1.85.7,2.79,1.62,2.79,3.21,0,1.87-1.45,3.19-4,3.19a6.06,6.06,0,0,1-3-.73Z"/><path d="M459.93,32.88c.18-1.33.33-2.67.56-4a28.45,28.45,0,0,1,56-.14,27.49,27.49,0,0,1-3.32,19.41,1.07,1.07,0,0,0,.21,1.58q13,13,26,26c.17.17.37.33.56.49v.19a1.07,1.07,0,0,0-.32.16q-4.23,4.22-8.45,8.45a1.07,1.07,0,0,0-.16.32h-.38a5,5,0,0,0-.4-.51L517.05,71.65c-.13-.13-.27-.25-.46-.42l-3.76,3.53c-1-4.28-2-8.4-3-12.7l12.52,3.72-3.58,3.42c4,4,8,8,11.93,11.93l4.91-4.91L510.92,51.57c-.42.47-.93,1.09-1.49,1.67-8.05,8.25-17.77,11.12-28.8,8s-17.55-10.69-20.07-21.78c-.33-1.47-.43-3-.63-4.48Zm28.54,26.7A25.64,25.64,0,1,0,462.85,34,25.63,25.63,0,0,0,488.47,59.58Z"/><path d="M468.2,46.48l20.29-35.15,20.29,35.15Zm4.92-2.84h30.73L488.49,17Z"/><path d="M487.07,24h2.85c0,2,0,3.89,0,5.81a1.08,1.08,0,0,0,.8,1.24,5.69,5.69,0,1,1-4.49,0,1.15,1.15,0,0,0,.87-1.3C487,27.85,487.07,26,487.07,24Zm1.41,15.16a2.89,2.89,0,0,0,0-5.78,2.89,2.89,0,0,0,0,5.78Z"/><path d="M682.78,99.69v14.83h-1.91V99.69Z"/><path d="M686.28,106.75c0-1.1,0-2-.09-2.88h1.72l.11,1.76h0a3.92,3.92,0,0,1,3.52-2c1.47,0,3.76.88,3.76,4.53v6.36h-1.93v-6.14c0-1.72-.64-3.15-2.47-3.15a2.76,2.76,0,0,0-2.59,2,2.81,2.81,0,0,0-.14.91v6.4h-1.93Z"/><path d="M706.08,114.12a7.05,7.05,0,0,1-3.06.62,5.06,5.06,0,0,1-5.3-5.44,5.41,5.41,0,0,1,5.72-5.65,6.5,6.5,0,0,1,2.68.55l-.44,1.5a4.39,4.39,0,0,0-2.24-.51c-2.44,0-3.76,1.8-3.76,4a3.65,3.65,0,0,0,3.69,4,5.55,5.55,0,0,0,2.38-.53Z"/><path d="M708.35,107.19c0-1.25,0-2.33-.09-3.32H710L710,106h.09a3.19,3.19,0,0,1,2.94-2.33,2.26,2.26,0,0,1,.55.06v1.83a3,3,0,0,0-.66-.07,2.72,2.72,0,0,0-2.59,2.49,4.8,4.8,0,0,0-.09.9v5.68h-1.91Z"/><path d="M716.4,109.55a3.4,3.4,0,0,0,3.65,3.69,7,7,0,0,0,3-.55l.33,1.39a8.59,8.59,0,0,1-3.54.66c-3.28,0-5.24-2.16-5.24-5.37s1.89-5.74,5-5.74c3.48,0,4.4,3.06,4.4,5a8.16,8.16,0,0,1-.06.91Zm5.67-1.39c0-1.23-.5-3.15-2.68-3.15-2,0-2.82,1.81-3,3.15Z"/><path d="M732.24,114.52l-.16-1.34H732a4,4,0,0,1-3.26,1.58,3,3,0,0,1-3.26-3.06c0-2.57,2.29-4,6.41-4v-.22a2.2,2.2,0,0,0-2.42-2.46,5.38,5.38,0,0,0-2.78.79l-.44-1.28a6.64,6.64,0,0,1,3.5-.94c3.26,0,4.05,2.22,4.05,4.35v4a15.21,15.21,0,0,0,.18,2.55Zm-.29-5.43c-2.11,0-4.51.33-4.51,2.39a1.71,1.71,0,0,0,1.83,1.85,2.65,2.65,0,0,0,2.57-1.78,1.93,1.93,0,0,0,.11-.62Z"/><path d="M736.68,112.54a5.13,5.13,0,0,0,2.55.77c1.41,0,2.07-.71,2.07-1.59s-.55-1.43-2-2c-1.91-.68-2.82-1.74-2.82-3,0-1.71,1.39-3.12,3.68-3.12a5.36,5.36,0,0,1,2.62.66l-.49,1.41a4.07,4.07,0,0,0-2.18-.62c-1.14,0-1.78.66-1.78,1.45s.64,1.28,2,1.81c1.84.7,2.79,1.62,2.79,3.21,0,1.87-1.45,3.19-4,3.19a6.06,6.06,0,0,1-3-.73Z"/><path d="M746.73,109.55a3.41,3.41,0,0,0,3.66,3.69,7,7,0,0,0,3-.55l.33,1.39a8.64,8.64,0,0,1-3.55.66c-3.28,0-5.23-2.16-5.23-5.37s1.89-5.74,5-5.74c3.48,0,4.4,3.06,4.4,5a6,6,0,0,1-.07.91Zm5.68-1.39c0-1.23-.5-3.15-2.68-3.15-2,0-2.82,1.81-3,3.15Z"/><path d="M765.88,98.9v12.87c0,1,0,2,.08,2.75h-1.74l-.08-1.85h0a3.93,3.93,0,0,1-3.63,2.09c-2.57,0-4.55-2.18-4.55-5.41,0-3.54,2.18-5.72,4.77-5.72a3.55,3.55,0,0,1,3.21,1.63h.05V98.9Zm-1.94,9.3a3.2,3.2,0,0,0-.09-.81,2.85,2.85,0,0,0-2.79-2.24c-2,0-3.19,1.76-3.19,4.11,0,2.16,1,3.94,3.14,3.94a2.91,2.91,0,0,0,2.84-2.31,3.23,3.23,0,0,0,.09-.84Z"/><path d="M688.69,138.94a5.09,5.09,0,0,0,2.55.77c1.41,0,2.07-.7,2.07-1.59s-.55-1.43-2-2c-1.92-.69-2.82-1.74-2.82-3,0-1.71,1.39-3.12,3.68-3.12a5.28,5.28,0,0,1,2.61.66l-.48,1.41a4.1,4.1,0,0,0-2.18-.62c-1.14,0-1.78.66-1.78,1.45s.64,1.28,2,1.81c1.85.7,2.8,1.62,2.8,3.21,0,1.87-1.45,3.19-4,3.19a6,6,0,0,1-3-.73Z"/><path d="M698.74,136a3.41,3.41,0,0,0,3.65,3.69,7,7,0,0,0,3-.55l.33,1.39a8.55,8.55,0,0,1-3.54.66c-3.28,0-5.24-2.16-5.24-5.37s1.9-5.74,5-5.74c3.48,0,4.4,3.06,4.4,5a6,6,0,0,1-.07.91Zm5.68-1.39c0-1.23-.51-3.15-2.69-3.15-2,0-2.81,1.81-3,3.15Z"/><path d="M716.28,140.52a7.05,7.05,0,0,1-3.06.62,5.06,5.06,0,0,1-5.3-5.44,5.41,5.41,0,0,1,5.72-5.65,6.54,6.54,0,0,1,2.68.55l-.44,1.5a4.41,4.41,0,0,0-2.24-.51c-2.45,0-3.77,1.8-3.77,4a3.66,3.66,0,0,0,3.7,4,5.55,5.55,0,0,0,2.38-.53Z"/><path d="M727.45,138c0,1.1,0,2.07.09,2.91h-1.71l-.12-1.74h0a4,4,0,0,1-3.52,2c-1.67,0-3.67-.92-3.67-4.66v-6.23h1.93v5.9c0,2,.62,3.38,2.38,3.38a2.74,2.74,0,0,0,2.73-2.75v-6.53h1.93Z"/><path d="M730.66,133.59c0-1.25,0-2.33-.08-3.32h1.69l.07,2.09h.08a3.2,3.2,0,0,1,3-2.33,2.26,2.26,0,0,1,.55.06v1.83a3.11,3.11,0,0,0-.66-.07,2.72,2.72,0,0,0-2.59,2.49,4.8,4.8,0,0,0-.09.9v5.68h-1.92Z"/><path d="M740.1,127.28a1.14,1.14,0,0,1-1.23,1.19,1.16,1.16,0,0,1-1.17-1.19,1.18,1.18,0,0,1,1.21-1.21A1.14,1.14,0,0,1,740.1,127.28ZM738,140.92V130.27h1.93v10.65Z"/><path d="M745.43,127.21v3.06h2.77v1.47h-2.77v5.75c0,1.32.37,2.06,1.45,2.06a4.16,4.16,0,0,0,1.12-.13l.09,1.46a4.89,4.89,0,0,1-1.72.26,2.71,2.71,0,0,1-2.09-.81,4,4,0,0,1-.75-2.78v-5.81h-1.65v-1.47h1.65v-2.55Z"/><path d="M751.28,130.27l2.33,6.29c.24.71.51,1.54.68,2.18h.05c.19-.64.41-1.45.68-2.22l2.11-6.25h2l-2.91,7.59c-1.38,3.65-2.33,5.52-3.65,6.67a5.31,5.31,0,0,1-2.38,1.25l-.48-1.63a5.1,5.1,0,0,0,1.69-.94,5.89,5.89,0,0,0,1.63-2.16,1.39,1.39,0,0,0,.16-.46,1.79,1.79,0,0,0-.14-.51l-3.93-9.81Z"/><path d="M237.17,64.78V8.59c0-1.78.33-2.12,2.08-2.12h43.36c1.74,0,2.06.32,2.06,2V64.72c.44,0,.78.06,1.13.06,2.83,0,5.66,0,8.49,0,.85,0,1.61.14,1.83,1.09s-.35,1.36-1.06,1.76q-16.51,9.24-33,18.52a2.08,2.08,0,0,1-2.27,0q-16.49-9.28-33-18.52c-.71-.4-1.26-.87-1-1.76s1-1.08,1.83-1.08C230.73,64.79,233.88,64.78,237.17,64.78Zm51.84,3-.05-.2H284c-1.74,0-2.11-.37-2.11-2.12V9.33h-42V65.46c0,1.74-.39,2.12-2.12,2.12h-4.93a2.07,2.07,0,0,0,.75.66q13.19,7.4,26.36,14.81a1.63,1.63,0,0,0,1.85,0Q273.91,76.25,286,69.49C287,68.93,288,68.35,289,67.78Z"/><path d="M266.79,33.83l-.87,2.55a9,9,0,0,0-4.88-1c-2.18.2-3.54,1.68-3.37,3.63a3,3,0,0,0,1.59,2.43c.86.52,1.79.91,2.7,1.35s1.84.82,2.7,1.33a5.61,5.61,0,0,1,2.92,5.64,5.81,5.81,0,0,1-4,5.2c-.39.16-.8.29-1.24.44v6h5L261,72.51l-6.41-11.08h4.94c0-1.87,0-3.65,0-5.42,0-.17-.49-.39-.78-.47-1.19-.32-2.4-.57-3.59-.89-.67-.18-.94-.58-.6-1.3a15.2,15.2,0,0,0,.49-1.56,10,10,0,0,0,5.91,1.37A3.73,3.73,0,0,0,264.59,50a3.24,3.24,0,0,0-1.31-3.35,21.81,21.81,0,0,0-2.83-1.5c-.95-.48-2-.85-2.88-1.4a5.6,5.6,0,0,1,.95-10.17,1.29,1.29,0,0,0,1-1.54,22.27,22.27,0,0,1,0-2.83,1,1,0,0,0-.75-1.14,5.53,5.53,0,0,1-3.42-5.6,5.58,5.58,0,0,1,10.34-2.41,5.45,5.45,0,0,1-.6,6.52,15.49,15.49,0,0,1-2.19,1.58,1.43,1.43,0,0,0-.56.83c-.06,1.07,0,2.15,0,3.22,0,.59.2.74.77.83C264.3,33.22,265.48,33.54,266.79,33.83ZM261,20.15a2.81,2.81,0,0,0-2.86,2.73A2.89,2.89,0,0,0,261,25.75a2.81,2.81,0,0,0,2.78-2.81A2.75,2.75,0,0,0,261,20.15Z"/><path d="M722.65,11.12c.13.06.25.14.39.19a5.21,5.21,0,0,1,2.85,8.12l-.34.53c1.21,1,2.37,2,3.63,2.91A42.15,42.15,0,0,0,747,29.94c1.25.21,2.51.35,3.76.52.91.12,1.25.49,1.25,1.43,0,12,.18,24-.07,36-.11,5.49-3.19,9.6-8,12.2s-9.7,5-14.56,7.42c-2.41,1.22-4.84,2.41-7.26,3.61h-.9l-3.83-2c-6.07-3.07-12.21-6-18.18-9.24a14.45,14.45,0,0,1-7.88-13.37c0-5,0-9.94,0-14.91V50.58h-4.67V50.4l5.45-9.26c.17-.28.35-.55.59-.91l5.91,10.34H693.9V66.42a12,12,0,0,0,6.59,11.25c6.8,3.63,13.75,7,20.66,10.4a1.35,1.35,0,0,0,1.06,0c6.77-3.36,13.54-6.71,20.27-10.15a12.58,12.58,0,0,0,6.85-9.44,6.48,6.48,0,0,0,.1-1.08V33.73c0-.24,0-.48,0-.72-1.95-.36-3.88-.65-5.78-1.08-7.11-1.59-13.62-4.43-19.06-9.4-.82-.75-1.54-1.4-2.72-1a.36.36,0,0,1-.27,0c-1.39-.57-2.17.34-3.08,1.15a40.34,40.34,0,0,1-18,9c-2.31.54-4.68.84-7,1.25a4.36,4.36,0,0,1-.72.05,1.27,1.27,0,0,1-1.43-1.18,1.3,1.3,0,0,1,1.23-1.39c2.91-.53,5.85-.9,8.69-1.65a36.85,36.85,0,0,0,15.89-8.42c.13-.13.27-.25.39-.38s.07-.1,0,0a18.17,18.17,0,0,1-1-3.35,5,5,0,0,1,3.77-5.38c.13-.05.26-.13.38-.19Zm1.62,5.22a2.63,2.63,0,0,0-2.63-2.64,2.65,2.65,0,0,0,0,5.29A2.62,2.62,0,0,0,724.27,16.34Z"/><path d="M54.78,6.88V9.73H46.85V19c17.06,2,27.44,11.38,31.43,28.2h5.31L77,58.56,70.46,47.2h4.68a23.23,23.23,0,0,0-2-6.82C68,29.24,59.3,23,47,22.05A29,29,0,0,0,28.8,26.91a1.19,1.19,0,0,0-.67,1.32,5.63,5.63,0,0,1-6.59,6.45,1,1,0,0,0-1.17.53,30.36,30.36,0,0,0-5.26,16.92c0,3,0,6.09,0,9.21H25.92V39.44H64.79V61.38H85.34V64.3H64.81v1.3q0,8.59,0,17.21c0,.38-.06.76-.09,1.15H26V64.3H5.34V61.58c1.71-.06,3.42-.12,5.12-.16.6,0,1.2,0,1.86,0,0-3.31,0-6.45,0-9.59a32,32,0,0,1,1.51-9.56,33.41,33.41,0,0,1,4.54-9.17c-2.06-2.89-2.07-5.74-.06-7.93s4.78-2.36,8.35-.24a33.3,33.3,0,0,1,17.18-5.8V9.74H36.07L35.9,6.88ZM28.82,81H61.89V42.23H28.82ZM25.39,29a2.89,2.89,0,1,0-5.78.1A3,3,0,0,0,22.5,32,3,3,0,0,0,25.39,29Z"/><path d="M55.06,56.46V59.1H36V56.46Z"/><path d="M55.06,49.12v2.66H36V49.12Z"/><path d="M35.93,66.43V63.78H55v2.65Z"/><path d="M55.05,71.13v2.68H36V71.13Z"/></svg>