<svg id="Layer_1" data-name="Layer 1" xmlns="http://www.w3.org/2000/svg" viewBox="0 0 1238.23 404"><defs><style>.cls-4,.cls-6{fill:none;stroke-miterlimit:10;stroke-width:3px}.cls-3{fill:#ece1ce}.cls-4{stroke:#eac8a5}.cls-5{fill:#2f1113}.cls-6{stroke:#2f1113}</style></defs><path fill="#eac8a5" d="M415.13 0v404H823.1V.09L415.13 0z"/><path stroke="#df9926" fill="none" stroke-miterlimit="10" stroke-width="3" d="M434.23 170.99L804 172.13"/><path class="cls-3" d="M830.26.11v403.8h407.97V0L830.26.11z"/><path class="cls-4" d="M849.36 170.99l369.77-.06"/><path class="cls-3" d="M0 0v404h407.97V.09L0 0z"/><path class="cls-4" d="M19.1 170.99l369.77-.06"/><path class="cls-5" d="M128.18 63.59h4.16v19.33h9.37v3.48h-13.53zM154 86.4l-.27-1.82h-.1a6.15 6.15 0 0 1-4.88 2.2 4.89 4.89 0 0 1-5.17-4.91c0-4.16 3.68-6.26 9.78-6.23v-.27c0-1.08-.44-2.88-3.35-2.88a8.75 8.75 0 0 0-4.44 1.22l-.84-2.71a11.93 11.93 0 0 1 6-1.45c5.28 0 6.8 3.35 6.8 6.94v6a26.23 26.23 0 0 0 .24 4zm-.54-8.05c-3-.07-5.76.57-5.76 3.08a2.19 2.19 0 0 0 2.3 2.37 3.38 3.38 0 0 0 3.25-2.27 3 3 0 0 0 .14-.91zM161.69 82.58a9.36 9.36 0 0 0 4.23 1.18c1.83 0 2.64-.74 2.64-1.82s-.68-1.7-2.71-2.41c-3.21-1.11-4.57-2.87-4.53-4.8 0-2.91 2.4-5.18 6.22-5.18a9.67 9.67 0 0 1 4.37 1l-.81 2.94a7.48 7.48 0 0 0-3.49-.94c-1.49 0-2.3.71-2.3 1.72s.78 1.56 2.88 2.3c3 1.09 4.36 2.61 4.4 5 0 3-2.34 5.14-6.7 5.14a10.6 10.6 0 0 1-5-1.15zM180.78 65.22v4.7h4V73h-4v7.27c0 2 .54 3 2.13 3a5.86 5.86 0 0 0 1.63-.21l.06 3.19a9.31 9.31 0 0 1-3 .4 4.86 4.86 0 0 1-3.6-1.26c-.88-1-1.28-2.44-1.28-4.6V73h-2.37v-3.08h2.37V66.2zM194.9 74.83c0-1.9 0-3.49-.14-4.91h3.59l.17 2.44h.1a5.69 5.69 0 0 1 5.08-2.81 4.75 4.75 0 0 1 4.56 3h.07a6.25 6.25 0 0 1 2-2.06 5.56 5.56 0 0 1 3.32-1c2.74 0 5.52 1.86 5.52 7.14v9.77h-4.06v-9.1c0-2.74-.95-4.37-2.95-4.37a3.18 3.18 0 0 0-2.91 2.2 6.13 6.13 0 0 0-.2 1.39v9.88H205v-9.54c0-2.3-.92-3.93-2.85-3.93a3.27 3.27 0 0 0-3 2.37 3.57 3.57 0 0 0-.23 1.36v9.74h-4.02zM228 65.32a2.34 2.34 0 1 1-2.34-2.27 2.23 2.23 0 0 1 2.34 2.27zm-4.4 21.08V69.92h4.2V86.4zM232.27 62.37h4.19v24h-4.19zM243.91 79.33c.1 3 2.44 4.26 5.08 4.26a12.51 12.51 0 0 0 4.57-.74l.61 2.88a15.71 15.71 0 0 1-5.76 1c-5.34 0-8.49-3.28-8.49-8.32 0-4.57 2.77-8.87 8.05-8.87s7.11 4.4 7.11 8a9.88 9.88 0 0 1-.14 1.76zm7.24-2.91c0-1.52-.64-4-3.41-4-2.58 0-3.66 2.34-3.83 4zM135 96.8a24.14 24.14 0 0 0-3.82 13.78 24.33 24.33 0 0 0 3.82 13.67h-3a22.94 22.94 0 0 1-4.1-13.67A23.59 23.59 0 0 1 132 96.8zM153.39 96.23v19.39c0 1.69.07 3.52.14 4.63h-3.73l-.16-2.6h-.07a5.93 5.93 0 0 1-5.38 3c-3.93 0-7-3.35-7-8.43 0-5.52 3.42-8.8 7.37-8.8a5.25 5.25 0 0 1 4.64 2.17h.07v-9.36zm-4.16 14.41a5.64 5.64 0 0 0-.1-1.08 3.64 3.64 0 0 0-3.59-2.94c-2.67 0-4.16 2.36-4.16 5.44s1.49 5.22 4.13 5.22a3.66 3.66 0 0 0 3.58-3 4.3 4.3 0 0 0 .14-1.22zM160.81 113.18c.1 3 2.44 4.27 5.08 4.27a12.43 12.43 0 0 0 4.56-.75l.61 2.88a15.61 15.61 0 0 1-5.75 1c-5.35 0-8.5-3.28-8.5-8.32 0-4.57 2.78-8.87 8.06-8.87s7.11 4.4 7.11 8a9.88 9.88 0 0 1-.14 1.76zm7.24-2.91c0-1.52-.64-4-3.42-4-2.57 0-3.65 2.34-3.82 4zM175.33 96.23h4.2v24h-4.2zM188.46 99.17a2.34 2.34 0 0 1-4.67 0 2.34 2.34 0 0 1 4.67 0zM184 120.25v-16.48h4.2v16.48zM195.34 103.77l2.67 8.36c.47 1.46.81 2.78 1.12 4.13h.1c.3-1.35.67-2.64 1.12-4.13l2.6-8.36h4.4l-6.3 16.48H197l-6.13-16.48zM212.4 113.18c.1 3 2.43 4.27 5.07 4.27a12.45 12.45 0 0 0 4.57-.75l.61 2.88a15.61 15.61 0 0 1-5.75 1c-5.35 0-8.5-3.28-8.5-8.32 0-4.57 2.78-8.87 8.06-8.87s7.11 4.4 7.11 8a9.88 9.88 0 0 1-.14 1.76zm7.24-2.91c0-1.52-.64-4-3.42-4-2.57 0-3.65 2.34-3.82 4zM226.92 109.09c0-2.24 0-3.83-.14-5.32h3.63l.13 3.15h.14a4.91 4.91 0 0 1 4.5-3.52 4.28 4.28 0 0 1 1 .1v3.93a5.62 5.62 0 0 0-1.22-.14 3.67 3.67 0 0 0-3.72 3.15 6.88 6.88 0 0 0-.14 1.29v8.52h-4.16zM242.32 103.77l3 8.84c.34 1 .68 2.26.91 3.21h.1c.28-.95.58-2.16.88-3.25l2.58-8.8h4.46L250.1 115c-2.26 6.16-3.79 8.9-5.75 10.59a8.29 8.29 0 0 1-4.36 2.13l-1-3.52a6.88 6.88 0 0 0 2.43-1.15 7.09 7.09 0 0 0 2.27-2.6 1.67 1.67 0 0 0 .27-.75 1.77 1.77 0 0 0-.23-.81l-6-15.13zM255.35 124.25a24.36 24.36 0 0 0 3.79-13.74 24.3 24.3 0 0 0-3.79-13.71h3a22.79 22.79 0 0 1 4.13 13.74 23.11 23.11 0 0 1-4.13 13.71zM557.54 83.8H551v-3.49h17.23v3.49h-6.56v19.32h-4.17zM569.09 92c0-2.24 0-3.83-.14-5.32h3.62l.14 3.15h.13a4.93 4.93 0 0 1 4.51-3.52 4.28 4.28 0 0 1 1 .1v3.89a5.62 5.62 0 0 0-1.22-.14 3.67 3.67 0 0 0-3.72 3.15 6.88 6.88 0 0 0-.14 1.29v8.52h-4.16zM590.11 103.12l-.27-1.82h-.11a6.13 6.13 0 0 1-4.87 2.2 4.9 4.9 0 0 1-5.18-4.91c0-4.16 3.69-6.26 9.78-6.23v-.27c0-1.08-.44-2.88-3.35-2.88a8.75 8.75 0 0 0-4.43 1.22l-.81-2.7a11.8 11.8 0 0 1 6-1.46c5.28 0 6.81 3.35 6.81 6.94v6a26.38 26.38 0 0 0 .23 4zm-.55-8.05c-2.94-.07-5.75.58-5.75 3.08a2.19 2.19 0 0 0 2.37 2.37 3.36 3.36 0 0 0 3.25-2.27 3 3 0 0 0 .13-.91zM598 91.55c0-1.9 0-3.49-.14-4.91h3.66l.2 2.47h.1a6 6 0 0 1 5.25-2.84c2.88 0 5.85 1.86 5.85 7.07v9.78h-4.16v-9.3c0-2.37-.88-4.17-3.15-4.17a3.5 3.5 0 0 0-3.24 2.44 4.1 4.1 0 0 0-.17 1.35v9.68H598zM617.19 99.3a9.23 9.23 0 0 0 4.23 1.18c1.83 0 2.64-.74 2.64-1.82s-.68-1.69-2.71-2.41c-3.21-1.11-4.57-2.87-4.53-4.8 0-2.91 2.4-5.18 6.22-5.18a9.67 9.67 0 0 1 4.37 1l-.81 3a7.35 7.35 0 0 0-3.49-1c-1.49 0-2.3.71-2.3 1.72s.78 1.56 2.88 2.31c3 1.08 4.36 2.6 4.4 5 0 3-2.34 5.14-6.7 5.14a10.6 10.6 0 0 1-5-1.15zM635.94 82a2.34 2.34 0 0 1-4.67 0 2.34 2.34 0 0 1 4.67 0zm-4.43 21.08V86.64h4.19v16.48zM645 81.94v4.7h4v3.12h-4V97c0 2 .54 3 2.13 3a6.19 6.19 0 0 0 1.62-.2l.07 3.18a9.36 9.36 0 0 1-3 .4 4.8 4.8 0 0 1-3.59-1.35c-.88-1-1.29-2.44-1.29-4.6v-7.67h-2.37v-3.12h2.37v-3.72zM960.18 63.59h13.16V67h-9v6.3h8.39v3.41h-8.39v9.69h-4.16zM980.93 65.32a2.21 2.21 0 0 1-2.37 2.23 2.18 2.18 0 0 1-2.3-2.23 2.34 2.34 0 0 1 4.67 0zm-4.44 21.08V69.92h4.2V86.4zM985.16 75.23c0-2.23 0-3.82-.14-5.31h3.62l.14 3.15h.14a4.91 4.91 0 0 1 4.5-3.52 4.28 4.28 0 0 1 1 .1v3.93a5.62 5.62 0 0 0-1.22-.14 3.67 3.67 0 0 0-3.72 3.15 6.88 6.88 0 0 0-.14 1.29v8.52h-4.16zM997 82.58a9.32 9.32 0 0 0 4.23 1.18c1.82 0 2.64-.74 2.64-1.82s-.68-1.7-2.71-2.41c-3.22-1.11-4.57-2.87-4.54-4.8 0-2.91 2.41-5.18 6.23-5.18a9.67 9.67 0 0 1 4.37 1l-.81 2.94a7.55 7.55 0 0 0-3.49-.94c-1.49 0-2.3.71-2.3 1.72s.78 1.56 2.87 2.3c3 1.09 4.37 2.61 4.4 5 0 3-2.33 5.14-6.7 5.14a10.63 10.63 0 0 1-5-1.15zM1016.1 65.22v4.7h4V73h-4v7.27c0 2 .54 3 2.13 3a5.72 5.72 0 0 0 1.62-.21l.07 3.19a9.36 9.36 0 0 1-3 .4 4.86 4.86 0 0 1-3.59-1.35c-.88-1-1.28-2.44-1.28-4.6V73h-2.37v-3.08h2.32V66.2zM1030.21 74.83c0-1.9 0-3.49-.13-4.91h3.59l.16 2.44h.11a5.69 5.69 0 0 1 5.07-2.81 4.75 4.75 0 0 1 4.57 3h.07a6.16 6.16 0 0 1 2-2.06 5.51 5.51 0 0 1 3.32-1c2.74 0 5.51 1.86 5.51 7.14v9.77h-4.06v-9.1c0-2.74-1-4.37-2.94-4.37a3.18 3.18 0 0 0-2.91 2.2 6.13 6.13 0 0 0-.21 1.39v9.88h-4.06v-9.54c0-2.3-.91-3.93-2.84-3.93a3.25 3.25 0 0 0-3 2.37 3.57 3.57 0 0 0-.24 1.36v9.74h-4.06zM1063.35 65.32a2.34 2.34 0 0 1-4.67 0 2.34 2.34 0 0 1 4.67 0zm-4.43 21.08V69.92h4.2V86.4zM1067.59 62.37h4.19v24h-4.19zM1079.23 79.33c.1 3 2.44 4.26 5.07 4.26a12.47 12.47 0 0 0 4.57-.74l.61 2.88a15.61 15.61 0 0 1-5.75 1c-5.35 0-8.5-3.28-8.5-8.32 0-4.57 2.78-8.87 8.06-8.87s7.11 4.4 7.11 8a9.88 9.88 0 0 1-.14 1.76zm7.24-2.91c0-1.52-.64-4-3.42-4-2.57 0-3.65 2.34-3.82 4zM967 96.8a24.14 24.14 0 0 0-3.82 13.78 24.33 24.33 0 0 0 3.82 13.67h-3a22.94 22.94 0 0 1-4.1-13.67A23.59 23.59 0 0 1 964 96.8zM970.2 109.26c0-2.17-.07-3.93-.14-5.49h3.66l.2 2.54h.08a6.41 6.41 0 0 1 5.65-2.91c3.79 0 6.94 3.25 6.94 8.39 0 6-3.76 8.84-7.52 8.84a5.4 5.4 0 0 1-4.63-2.2h-.07V127h-4.17zm4.16 4.09a4.32 4.32 0 0 0 .13 1.15 3.77 3.77 0 0 0 3.66 2.91c2.64 0 4.2-2.2 4.2-5.45 0-2.91-1.42-5.28-4.1-5.28a4.31 4.31 0 0 0-3.89 4.13zM994.43 99.17a2.34 2.34 0 0 1-4.67 0 2.34 2.34 0 0 1 4.67 0zM990 120.25v-16.48h4.2v16.48zM1010.78 119.75a12.16 12.16 0 0 1-4.67.84c-5.14 0-8.49-3.28-8.49-8.39 0-4.94 3.38-8.8 9.17-8.8a10.33 10.33 0 0 1 4 .78l-.74 3.11a7.43 7.43 0 0 0-3.15-.64c-3.18 0-5.07 2.33-5 5.35 0 3.38 2.2 5.31 5 5.31a8.17 8.17 0 0 0 3.29-.64zM1018 111h.06c.41-.65.88-1.36 1.32-1.93l4-5.32h5l-6.1 6.74 7 9.74h-5.11l-4.74-7.27-1.42 1.66v5.61h-4.17v-24h4.16zM1045.85 115.31c0 2 .07 3.59.13 4.94h-3.65l-.2-2.5h-.07a6 6 0 0 1-5.28 2.88c-3 0-5.75-1.8-5.75-7.18v-9.68h4.16v9c0 2.74.88 4.5 3.08 4.5a3.5 3.5 0 0 0 3.18-2.23 3.66 3.66 0 0 0 .24-1.29v-10h4.16zM1050.35 109.26c0-2.17-.06-3.93-.13-5.49h3.65l.21 2.54h.06a6.43 6.43 0 0 1 5.66-2.91c3.79 0 6.93 3.25 6.93 8.39 0 6-3.75 8.84-7.51 8.84a5.4 5.4 0 0 1-4.63-2.2h-.07V127h-4.17zm4.17 4.09a4.32 4.32 0 0 0 .13 1.15 3.77 3.77 0 0 0 3.66 2.91c2.64 0 4.19-2.2 4.19-5.45 0-2.91-1.42-5.28-4.09-5.28a4.31 4.31 0 0 0-3.89 4.13zM1068.67 124.25a24.44 24.44 0 0 0 3.79-13.74 24.38 24.38 0 0 0-3.79-13.71h3a22.79 22.79 0 0 1 4.13 13.74 23.11 23.11 0 0 1-4.13 13.71zM88.66 223.27a10.91 10.91 0 0 1-4.52.81c-4.82 0-8.45-3-8.45-8.66 0-5.35 3.63-9 8.94-9a9.12 9.12 0 0 1 4.06.76l-.54 1.8a8 8 0 0 0-3.45-.71c-4 0-6.68 2.56-6.68 7.06 0 4.19 2.42 6.88 6.58 6.88a8.88 8.88 0 0 0 3.61-.71zM91.35 205.8h2.24v7.67a4.12 4.12 0 0 1 1.6-1.58 4.58 4.58 0 0 1 2.28-.63c1.65 0 4.29 1 4.29 5.26v7.31h-2.18v-7.06c0-2-.74-3.66-2.85-3.66a3.21 3.21 0 0 0-3 2.24 2.61 2.61 0 0 0-.15 1.06v7.42h-2.23zM112.25 223.83l-.18-1.55H112a4.57 4.57 0 0 1-3.75 1.83 3.5 3.5 0 0 1-3.76-3.53c0-3 2.64-4.6 7.39-4.57v-.26a2.54 2.54 0 0 0-2.8-2.84 6.23 6.23 0 0 0-3.2.91l-.5-1.47a7.58 7.58 0 0 1 4-1.09c3.76 0 4.68 2.56 4.68 5v4.59a17.62 17.62 0 0 0 .2 3zm-.33-6.27c-2.44-.05-5.21.38-5.21 2.76a2 2 0 0 0 2.11 2.14 3.06 3.06 0 0 0 3-2.06 2.22 2.22 0 0 0 .13-.71zM120.27 208v3.53h3.2v1.7h-3.2v6.63c0 1.52.43 2.38 1.68 2.38a4.81 4.81 0 0 0 1.29-.15l.1 1.68a5.44 5.44 0 0 1-2 .3 3.09 3.09 0 0 1-2.41-.94 4.53 4.53 0 0 1-.86-3.2v-6.7h-1.91v-1.7h1.91v-2.95zM125.88 223.83c.05-.84.1-2.08.1-3.18V205.8h2.21v7.72h.05a4.58 4.58 0 0 1 4.19-2.26c3 0 5.21 2.54 5.18 6.27 0 4.39-2.77 6.58-5.51 6.58a4.37 4.37 0 0 1-4.1-2.31h-.08l-.1 2zm2.31-4.93a4.17 4.17 0 0 0 .1.81 3.45 3.45 0 0 0 3.35 2.62c2.34 0 3.74-1.9 3.74-4.72 0-2.47-1.27-4.57-3.66-4.57a3.56 3.56 0 0 0-3.4 2.74 4.41 4.41 0 0 0-.13.91zM151.55 217.58c0 4.55-3.15 6.53-6.12 6.53-3.33 0-5.89-2.44-5.89-6.32 0-4.12 2.69-6.53 6.09-6.53s5.92 2.56 5.92 6.32zm-9.75.13c0 2.69 1.55 4.72 3.73 4.72s3.73-2 3.73-4.77c0-2.08-1-4.72-3.68-4.72s-3.78 2.43-3.78 4.77zM157.06 208v3.53h3.2v1.7h-3.2v6.63c0 1.52.43 2.38 1.67 2.38a4.84 4.84 0 0 0 1.3-.15l.1 1.68a5.44 5.44 0 0 1-2 .3 3.09 3.09 0 0 1-2.41-.94 4.52 4.52 0 0 1-.87-3.2v-6.7H153v-1.7h1.9v-2.95zM162.46 221.54a5.88 5.88 0 0 0 2.95.89c1.62 0 2.39-.81 2.39-1.83s-.64-1.65-2.29-2.26c-2.21-.78-3.25-2-3.25-3.47 0-2 1.6-3.61 4.24-3.61a6.16 6.16 0 0 1 3 .76l-.56 1.63a4.72 4.72 0 0 0-2.51-.71c-1.32 0-2.06.76-2.06 1.67s.74 1.47 2.34 2.08c2.13.82 3.22 1.88 3.22 3.71 0 2.16-1.67 3.68-4.59 3.68a7 7 0 0 1-3.45-.84zM89.73 278.46a16.17 16.17 0 0 1-5.26.93 8 8 0 0 1-8.78-8.63c0-5.1 3.53-8.83 9.27-8.83a10.69 10.69 0 0 1 4.26.78l-.53 1.81a8.85 8.85 0 0 0-3.79-.74c-4.16 0-6.88 2.59-6.88 6.88s2.62 6.91 6.61 6.91a7.26 7.26 0 0 0 2.94-.46V272h-3.48v-1.78h5.64zM100 279.22l-.18-1.55h-.08A4.58 4.58 0 0 1 96 279.5a3.5 3.5 0 0 1-3.73-3.5c0-3 2.64-4.6 7.38-4.57v-.26a2.53 2.53 0 0 0-2.79-2.84 6.13 6.13 0 0 0-3.2.91l-.51-1.47a7.65 7.65 0 0 1 4-1.09c3.76 0 4.67 2.56 4.67 5v4.59a16.55 16.55 0 0 0 .21 3zm-.29-6.22c-2.44-.06-5.21.38-5.21 2.76a2 2 0 0 0 2.11 2.14 3.06 3.06 0 0 0 3-2.06 2.53 2.53 0 0 0 .13-.71zM105.47 270.25c0-1.27 0-2.31-.1-3.32h1.95l.1 2h.08a4.23 4.23 0 0 1 3.86-2.26 3.64 3.64 0 0 1 3.48 2.46 5.08 5.08 0 0 1 1.37-1.6 4.2 4.2 0 0 1 2.72-.86c1.62 0 4 1.06 4 5.33v7.24h-2.18v-7c0-2.36-.86-3.78-2.67-3.78a2.89 2.89 0 0 0-2.64 2 3.72 3.72 0 0 0-.17 1.12v7.59h-2.19v-7.37c0-2-.86-3.37-2.56-3.37a3 3 0 0 0-2.77 2.23 3 3 0 0 0-.18 1.09v7.42h-2.18zM129.13 263.47a1.32 1.32 0 0 1-1.42 1.38 1.33 1.33 0 0 1-1.35-1.38 1.36 1.36 0 0 1 1.4-1.39 1.32 1.32 0 0 1 1.37 1.39zm-2.49 15.75v-12.29h2.24v12.29zM132.81 279.22v-10.59h-1.73v-1.7h1.73v-.66c0-3.25 1.91-5.36 5.36-5.36a6.2 6.2 0 0 1 3.12.81l-.63 1.7a4.73 4.73 0 0 0-2.59-.71c-2.36 0-3 1.65-3 3.61v.61h7.13v12.29H140v-10.59h-5v10.59zM154.62 278.76a8.3 8.3 0 0 1-3.53.71c-3.71 0-6.12-2.51-6.12-6.27a6.25 6.25 0 0 1 6.6-6.53 7.39 7.39 0 0 1 3.1.64l-.51 1.73a5.1 5.1 0 0 0-2.59-.59c-2.81 0-4.34 2.08-4.34 4.65 0 2.84 1.83 4.59 4.27 4.59a6.34 6.34 0 0 0 2.74-.61zM164 279.22l-.18-1.55h-.07a4.61 4.61 0 0 1-3.75 1.83 3.51 3.51 0 0 1-3.76-3.53c0-3 2.64-4.6 7.39-4.57v-.26a2.53 2.53 0 0 0-2.79-2.84 6.08 6.08 0 0 0-3.2.91l-.51-1.47a7.62 7.62 0 0 1 4-1.09c3.75 0 4.67 2.56 4.67 5v4.59a17.62 17.62 0 0 0 .2 3zm-.33-6.27c-2.44-.06-5.21.38-5.21 2.76a2 2 0 0 0 2.11 2.14 3.05 3.05 0 0 0 3-2.06 2.22 2.22 0 0 0 .13-.71zM172.06 263.4v3.53h3.2v1.7h-3.2v6.63c0 1.52.43 2.38 1.68 2.38a4.81 4.81 0 0 0 1.29-.15l.1 1.68a5.62 5.62 0 0 1-2 .3 3.09 3.09 0 0 1-2.41-.94 4.57 4.57 0 0 1-.86-3.2v-6.7H168v-1.7h1.91V264zM180.26 263.47a1.32 1.32 0 0 1-1.42 1.38 1.33 1.33 0 0 1-1.35-1.38 1.36 1.36 0 0 1 1.4-1.39 1.32 1.32 0 0 1 1.37 1.39zm-2.49 15.75v-12.29H180v12.29zM194.84 273c0 4.55-3.15 6.53-6.12 6.53-3.33 0-5.89-2.44-5.89-6.33 0-4.11 2.69-6.52 6.09-6.52s5.92 2.53 5.92 6.32zm-9.75.13c0 2.69 1.54 4.72 3.73 4.72s3.73-2 3.73-4.77c0-2.09-1-4.73-3.68-4.73s-3.78 2.41-3.78 4.75zM197.65 270.25c0-1.27 0-2.31-.1-3.32h2l.13 2h.05a4.51 4.51 0 0 1 4.06-2.31c1.7 0 4.34 1 4.34 5.23v7.34h-2.23v-7.09c0-2-.74-3.63-2.84-3.63a3.17 3.17 0 0 0-3 2.29 3.26 3.26 0 0 0-.15 1v7.39h-2.24zM79.47 329.22l-1.78 5.38h-2.28l5.81-17.11h2.67l5.84 17.11h-2.36l-1.83-5.38zm5.61-1.72l-1.67-4.93c-.38-1.12-.64-2.13-.89-3.12-.26 1-.54 2.05-.87 3.09l-1.67 5zM102.14 331.25c0 1.27 0 2.39.11 3.35h-2l-.12-2a4.63 4.63 0 0 1-4.13 2.28c-1.92 0-4.24-1.06-4.24-5.38v-7.18H94v6.8c0 2.34.71 3.91 2.74 3.91a3.24 3.24 0 0 0 2.95-2 3.45 3.45 0 0 0 .2-1.14v-7.54h2.23zM108.54 318.79v3.53h3.2V324h-3.2v6.62c0 1.53.43 2.39 1.68 2.39a5.27 5.27 0 0 0 1.29-.15l.1 1.67a5.37 5.37 0 0 1-2 .31 3.09 3.09 0 0 1-2.41-.94 4.57 4.57 0 0 1-.86-3.2V324h-1.91v-1.7h1.91v-2.95zM125.22 328.36c0 4.54-3.15 6.52-6.12 6.52-3.32 0-5.89-2.43-5.89-6.32 0-4.11 2.69-6.52 6.1-6.52s5.91 2.56 5.91 6.32zm-9.75.13c0 2.69 1.55 4.72 3.73 4.72s3.74-2 3.74-4.77c0-2.09-1-4.73-3.68-4.73s-3.79 2.44-3.79 4.78zM128 325.64c0-1.27 0-2.31-.1-3.32h2l.13 2a4.51 4.51 0 0 1 4.06-2.31c1.7 0 4.34 1 4.34 5.23v7.33h-2.23v-7.08c0-2-.74-3.63-2.85-3.63a3.17 3.17 0 0 0-3 2.29 3 3 0 0 0-.16 1v7.38H128zM153.25 328.36c0 4.54-3.15 6.52-6.12 6.52-3.32 0-5.89-2.43-5.89-6.32 0-4.11 2.69-6.52 6.1-6.52s5.91 2.56 5.91 6.32zm-9.75.13c0 2.69 1.55 4.72 3.73 4.72s3.74-2 3.74-4.77c0-2.09-1-4.73-3.69-4.73s-3.78 2.44-3.78 4.78zM156.07 325.64c0-1.27 0-2.31-.1-3.32h1.95l.1 2h.08A4.24 4.24 0 0 1 162 322a3.63 3.63 0 0 1 3.48 2.46h.05a5 5 0 0 1 1.37-1.6 4.2 4.2 0 0 1 2.72-.86c1.62 0 4 1.06 4 5.33v7.23h-2.18v-7c0-2.36-.86-3.79-2.67-3.79a2.89 2.89 0 0 0-2.64 2A3.7 3.7 0 0 0 166 327v7.59h-2.19v-7.36c0-1.95-.86-3.38-2.56-3.38a3.06 3.06 0 0 0-2.77 2.24 3 3 0 0 0-.18 1.09v7.41h-2.18zM188.36 328.36c0 4.54-3.14 6.52-6.12 6.52-3.32 0-5.89-2.43-5.89-6.32 0-4.11 2.7-6.52 6.1-6.52s5.91 2.56 5.91 6.32zm-9.75.13c0 2.69 1.55 4.72 3.74 4.72s3.73-2 3.73-4.77c0-2.09-1-4.73-3.68-4.73s-3.79 2.44-3.79 4.78zM201.46 331.25c0 1.27 0 2.39.11 3.35h-2l-.13-2h-.05a4.63 4.63 0 0 1-4.06 2.28c-1.93 0-4.25-1.06-4.25-5.38v-7.18h2.24v6.8c0 2.34.71 3.91 2.74 3.91a3.24 3.24 0 0 0 2.95-2 3.45 3.45 0 0 0 .2-1.14v-7.54h2.23zM204.87 332.32a5.84 5.84 0 0 0 2.94.89c1.63 0 2.39-.81 2.39-1.83s-.64-1.65-2.29-2.26c-2.21-.79-3.25-2-3.25-3.48 0-2 1.6-3.6 4.24-3.6a6.05 6.05 0 0 1 3 .76l-.55 1.62a4.89 4.89 0 0 0-2.52-.71c-1.32 0-2 .76-2 1.68s.73 1.47 2.33 2.08c2.13.81 3.23 1.88 3.23 3.71 0 2.16-1.68 3.68-4.6 3.68a7 7 0 0 1-3.45-.84zM221.47 322.32l2.41 6.9a29.62 29.62 0 0 1 1 3.15h.12c.28-1 .63-2 1-3.15l2.39-6.9h2.33l-4.82 12.28h-2.14l-4.67-12.28zM233.81 328.87c.05 3 2 4.26 4.21 4.26a8.22 8.22 0 0 0 3.41-.63l.38 1.6a10.1 10.1 0 0 1-4.09.76c-3.79 0-6-2.49-6-6.2s2.18-6.62 5.76-6.62c4 0 5.08 3.53 5.08 5.79a7.57 7.57 0 0 1-.08 1zm6.55-1.6c0-1.42-.59-3.63-3.1-3.63-2.26 0-3.25 2.08-3.43 3.63zM245.28 316.58h2.24v7.67a4.05 4.05 0 0 1 1.6-1.58 4.61 4.61 0 0 1 2.28-.63c1.65 0 4.29 1 4.29 5.25v7.31h-2.23v-7.05c0-2-.74-3.66-2.84-3.66a3.22 3.22 0 0 0-3 2.23 2.69 2.69 0 0 0-.15 1.07v7.41h-2.24zM261.86 318.86a1.38 1.38 0 0 1-2.76 0 1.36 1.36 0 0 1 1.39-1.39 1.32 1.32 0 0 1 1.37 1.39zm-2.49 15.74v-12.28h2.24v12.28zM274.07 334.15a8.24 8.24 0 0 1-3.52.71c-3.71 0-6.12-2.51-6.12-6.27a6.24 6.24 0 0 1 6.6-6.53 7.39 7.39 0 0 1 3.1.64l-.51 1.72a5.26 5.26 0 0 0-2.59-.58c-2.82 0-4.34 2.08-4.34 4.65 0 2.84 1.82 4.59 4.26 4.59a6.31 6.31 0 0 0 2.74-.61zM276.69 316.58h2.23v18h-2.23zM283.92 328.87a3.93 3.93 0 0 0 4.22 4.26 8.17 8.17 0 0 0 3.4-.63l.38 1.6a10 10 0 0 1-4.09.76c-3.78 0-6-2.49-6-6.2S284 322 287.55 322c4 0 5.08 3.53 5.08 5.79a10.18 10.18 0 0 1-.07 1zm6.55-1.6c0-1.42-.58-3.63-3.09-3.63-2.26 0-3.25 2.08-3.43 3.63zM295.1 332.32a5.84 5.84 0 0 0 2.94.89c1.63 0 2.39-.81 2.39-1.83s-.64-1.65-2.29-2.26c-2.21-.79-3.25-2-3.25-3.48 0-2 1.6-3.6 4.24-3.6a6.05 6.05 0 0 1 3 .76l-.55 1.62a4.89 4.89 0 0 0-2.52-.71c-1.32 0-2.06.76-2.06 1.68s.74 1.47 2.34 2.08c2.13.81 3.23 1.88 3.23 3.71 0 2.16-1.68 3.68-4.6 3.68a7 7 0 0 1-3.45-.84z"/><circle class="cls-6" cx="41.4" cy="217" r="4.5"/><circle class="cls-6" cx="41.4" cy="272" r="4.5"/><circle class="cls-6" cx="41.38" cy="326.74" r="4.48"/><path class="cls-5" d="M505.33 215.09c0 5.89-3.58 9-7.95 9s-7.69-3.51-7.69-8.69c0-5.43 3.37-9 7.95-9s7.69 3.6 7.69 8.69zm-13.28.28c0 3.66 2 6.93 5.46 6.93s5.48-3.22 5.48-7.1c0-3.41-1.77-7-5.46-7s-5.48 3.42-5.48 7.17zM508.12 215.37c0-1.44 0-2.69-.1-3.83h2l.08 2.41h.1a3.68 3.68 0 0 1 3.4-2.69 2.49 2.49 0 0 1 .64.08v2.1a3.45 3.45 0 0 0-.76-.07 3.13 3.13 0 0 0-3 2.87 6.33 6.33 0 0 0-.1 1v6.55h-2.21zM526.81 211.54c0 .89-.11 1.88-.11 3.38v7.13c0 2.82-.55 4.55-1.75 5.61a6.49 6.49 0 0 1-4.47 1.47 7.91 7.91 0 0 1-4.08-1l.55-1.7a7 7 0 0 0 3.61 1c2.29 0 4-1.19 4-4.29v-1.37a4.4 4.4 0 0 1-3.91 2.06c-3 0-5.23-2.59-5.23-6 0-4.17 2.72-6.53 5.53-6.53a4.09 4.09 0 0 1 3.84 2.13l.1-1.85zm-2.31 4.85a3.28 3.28 0 0 0-.13-1 3.23 3.23 0 0 0-3.12-2.36c-2.14 0-3.66 1.8-3.66 4.65 0 2.41 1.22 4.42 3.63 4.42a3.27 3.27 0 0 0 3.1-2.29 4.09 4.09 0 0 0 .18-1.19zM537.21 223.83l-.17-1.55H537a4.61 4.61 0 0 1-3.76 1.83 3.5 3.5 0 0 1-3.76-3.53c0-3 2.65-4.6 7.39-4.57v-.26a2.53 2.53 0 0 0-2.79-2.84 6.2 6.2 0 0 0-3.2.91l-.51-1.47a7.65 7.65 0 0 1 4-1.09c3.76 0 4.67 2.56 4.67 5v4.59a16.55 16.55 0 0 0 .21 3zm-.33-6.27c-2.43-.05-5.2.38-5.2 2.76a2 2 0 0 0 2.11 2.14 3.06 3.06 0 0 0 3-2.06 2.52 2.52 0 0 0 .12-.71zM542.65 214.87c0-1.27 0-2.32-.1-3.33h2l.12 2h.05a4.52 4.52 0 0 1 4.07-2.31c1.7 0 4.34 1 4.34 5.23v7.34h-2.24v-7.09c0-2-.73-3.63-2.84-3.63a3.18 3.18 0 0 0-3 2.29 3.26 3.26 0 0 0-.15 1v7.39h-2.23zM559.23 208.09a1.39 1.39 0 0 1-2.77 0 1.36 1.36 0 0 1 1.39-1.4 1.33 1.33 0 0 1 1.38 1.4zm-2.49 15.74v-12.29H559v12.29zM561.28 222.53l5.56-7.23c.54-.66 1-1.25 1.6-1.91h-6.65v-1.8h9.37v1.4l-5.48 7.13c-.51.69-1 1.3-1.58 1.93v.05h7.19v1.78h-10zM580.35 223.83l-.18-1.55h-.07a4.61 4.61 0 0 1-3.76 1.83 3.5 3.5 0 0 1-3.76-3.53c0-3 2.64-4.6 7.39-4.57v-.26a2.53 2.53 0 0 0-2.79-2.84 6.17 6.17 0 0 0-3.2.91l-.51-1.47a7.62 7.62 0 0 1 4-1.09c3.75 0 4.67 2.56 4.67 5v4.59a17.62 17.62 0 0 0 .2 3zm-.33-6.27c-2.44-.05-5.21.38-5.21 2.76a2 2 0 0 0 2.11 2.14 3.05 3.05 0 0 0 3-2.06 2.22 2.22 0 0 0 .13-.71zM588.37 208v3.53h3.2v1.7h-3.2v6.63c0 1.52.43 2.38 1.68 2.38a4.81 4.81 0 0 0 1.29-.15l.1 1.68a5.4 5.4 0 0 1-2 .3 3.09 3.09 0 0 1-2.41-.94 4.57 4.57 0 0 1-.86-3.2v-6.7h-1.91v-1.7h1.91v-2.95zM596.57 208.09a1.31 1.31 0 0 1-1.42 1.37 1.33 1.33 0 0 1-1.35-1.37 1.37 1.37 0 0 1 1.4-1.4 1.33 1.33 0 0 1 1.37 1.4zm-2.49 15.74v-12.29h2.24v12.29zM611.14 217.58c0 4.55-3.14 6.53-6.11 6.53-3.33 0-5.89-2.44-5.89-6.32 0-4.12 2.69-6.53 6.09-6.53s5.91 2.56 5.91 6.32zm-9.75.13c0 2.69 1.55 4.72 3.74 4.72s3.73-2 3.73-4.77c0-2.08-1-4.72-3.68-4.72s-3.79 2.43-3.79 4.77zM614 214.87c0-1.27 0-2.32-.1-3.33h2l.13 2a4.51 4.51 0 0 1 4.06-2.31c1.7 0 4.34 1 4.34 5.23v7.34h-2.23v-7.09c0-2-.74-3.63-2.84-3.63a3.17 3.17 0 0 0-3 2.29 3.26 3.26 0 0 0-.15 1v7.39H614zM633.43 215.37c0-1.44 0-2.69-.1-3.83h2l.07 2.41h.11a3.67 3.67 0 0 1 3.4-2.69 2.41 2.41 0 0 1 .63.08v2.1a3.39 3.39 0 0 0-.76-.07 3.13 3.13 0 0 0-3 2.87 5.35 5.35 0 0 0-.11 1v6.55h-2.21zM642.73 218.09c0 3 2 4.27 4.21 4.27a8 8 0 0 0 3.4-.64l.38 1.6a9.83 9.83 0 0 1-4.08.76c-3.79 0-6-2.49-6-6.19s2.19-6.63 5.77-6.63c4 0 5.08 3.53 5.08 5.79a7.43 7.43 0 0 1-.08 1zm6.55-1.6c0-1.42-.59-3.63-3.1-3.63-2.26 0-3.25 2.08-3.43 3.63zM664.82 205.8v14.85c0 1.1 0 2.34.1 3.18h-2l-.1-2.13a4.55 4.55 0 0 1-4.19 2.41c-3 0-5.26-2.52-5.26-6.25 0-4.09 2.52-6.6 5.51-6.6a4.12 4.12 0 0 1 3.71 1.88h.05v-7.34zm-2.24 10.74a3.76 3.76 0 0 0-.1-.94 3.29 3.29 0 0 0-3.22-2.59c-2.32 0-3.69 2-3.69 4.75 0 2.49 1.22 4.54 3.63 4.54a3.37 3.37 0 0 0 3.28-2.66 3.75 3.75 0 0 0 .1-1zM669.77 218.09c.05 3 2 4.27 4.21 4.27a8 8 0 0 0 3.4-.64l.38 1.6a9.83 9.83 0 0 1-4.08.76c-3.79 0-6-2.49-6-6.19s2.19-6.63 5.77-6.63c4 0 5.07 3.53 5.07 5.79a10 10 0 0 1-.07 1zm6.55-1.6c0-1.42-.59-3.63-3.1-3.63-2.26 0-3.25 2.08-3.43 3.63zM680.94 221.54a5.84 5.84 0 0 0 2.94.89c1.63 0 2.39-.81 2.39-1.83s-.64-1.65-2.29-2.26c-2.21-.78-3.25-2-3.25-3.47 0-2 1.6-3.61 4.24-3.61a6.23 6.23 0 0 1 3 .76l-.56 1.63a4.76 4.76 0 0 0-2.52-.71c-1.32 0-2 .76-2 1.67s.73 1.47 2.33 2.08c2.14.82 3.23 1.88 3.23 3.71 0 2.16-1.68 3.68-4.6 3.68a7 7 0 0 1-3.45-.84zM693.78 208.09a1.38 1.38 0 0 1-2.76 0 1.36 1.36 0 0 1 1.39-1.4 1.33 1.33 0 0 1 1.37 1.4zm-2.48 15.74v-12.29h2.23v12.29zM707.82 211.54c-.05.89-.1 1.88-.1 3.38v7.13c0 2.82-.56 4.55-1.75 5.61a6.49 6.49 0 0 1-4.47 1.47 8 8 0 0 1-4.09-1l.56-1.7a6.9 6.9 0 0 0 3.61 1c2.28 0 4-1.19 4-4.29v-1.37a4.4 4.4 0 0 1-3.91 2.06c-3.05 0-5.23-2.59-5.23-6 0-4.17 2.71-6.53 5.53-6.53a4.12 4.12 0 0 1 3.84 2.13l.1-1.85zm-2.31 4.85a3.29 3.29 0 0 0-.12-1 3.23 3.23 0 0 0-3.13-2.36c-2.13 0-3.65 1.8-3.65 4.65 0 2.41 1.22 4.42 3.63 4.42a3.28 3.28 0 0 0 3.1-2.29 4.08 4.08 0 0 0 .17-1.19zM711.27 214.87c0-1.27 0-2.32-.1-3.33h2l.13 2h.05a4.51 4.51 0 0 1 4.06-2.31c1.71 0 4.35 1 4.35 5.23v7.34h-2.26v-7.09c0-2-.74-3.63-2.84-3.63a3.17 3.17 0 0 0-3 2.29 3.26 3.26 0 0 0-.15 1v7.39h-2.24zM490.7 279.22V262.1h2.42l5.48 8.66a48.45 48.45 0 0 1 3.07 5.56h.05c-.2-2.29-.25-4.37-.25-7v-7.22h2.08v17.12h-2.23l-5.44-8.69a56.09 56.09 0 0 1-3.2-5.71h-.07c.12 2.15.18 4.21.18 7v7.32zM508.58 273.48c.05 3 2 4.26 4.21 4.26a8.14 8.14 0 0 0 3.4-.63l.38 1.6a10 10 0 0 1-4.08.76c-3.79 0-6.05-2.49-6.05-6.19s2.19-6.63 5.77-6.63c4 0 5.08 3.53 5.08 5.79a9.62 9.62 0 0 1-.08 1zm6.55-1.6c0-1.42-.59-3.63-3.1-3.63-2.26 0-3.25 2.08-3.43 3.63zM522.74 263.4v3.53h3.2v1.7h-3.2v6.63c0 1.52.44 2.38 1.68 2.38a4.81 4.81 0 0 0 1.29-.15l.11 1.68a5.71 5.71 0 0 1-2 .3 3.11 3.11 0 0 1-2.42-.94 4.57 4.57 0 0 1-.86-3.2v-6.7h-1.9v-1.7h1.9V264zM529.57 266.93l1.63 6.24c.35 1.37.68 2.64.91 3.91h.08c.28-1.24.68-2.56 1.09-3.88l2-6.27h1.87l1.91 6.14c.46 1.47.81 2.77 1.09 4h.08a35.15 35.15 0 0 1 .94-4l1.75-6.17h2.21l-4 12.29h-2l-1.87-5.87a39.93 39.93 0 0 1-1.1-4 35.43 35.43 0 0 1-1.11 4.07l-2 5.84h-2l-3.7-12.29zM558.24 273c0 4.55-3.15 6.53-6.12 6.53-3.33 0-5.89-2.44-5.89-6.33 0-4.11 2.69-6.52 6.09-6.52s5.92 2.53 5.92 6.32zm-9.75.13c0 2.69 1.55 4.72 3.73 4.72s3.73-2 3.73-4.77c0-2.09-1-4.73-3.68-4.73s-3.78 2.41-3.78 4.75zM561.05 270.76c0-1.45 0-2.69-.1-3.83h2l.07 2.41h.11a3.67 3.67 0 0 1 3.4-2.69 2.43 2.43 0 0 1 .63.07v2.11a3.39 3.39 0 0 0-.76-.07 3.14 3.14 0 0 0-3 2.87 6.33 6.33 0 0 0-.1 1v6.55h-2.21zM571.67 272.56h.05c.3-.43.73-1 1.09-1.39l3.6-4.24h2.7l-4.75 5.07 5.41 7.24h-2.72l-4.24-5.89-1.14 1.27v4.62h-2.21v-18h2.21zM597.87 273c0 4.55-3.15 6.53-6.12 6.53-3.33 0-5.89-2.44-5.89-6.33 0-4.11 2.69-6.52 6.09-6.52s5.92 2.53 5.92 6.32zm-9.75.13c0 2.69 1.55 4.72 3.73 4.72s3.73-2 3.73-4.77c0-2.09-1-4.73-3.68-4.73s-3.78 2.41-3.78 4.75zM600.68 270.94c0-1.57 0-2.84-.1-4h2l.1 2.11a4.84 4.84 0 0 1 4.37-2.39c3 0 5.2 2.51 5.2 6.24 0 4.42-2.69 6.61-5.58 6.61a4.32 4.32 0 0 1-3.79-1.93h-.05v6.67h-2.21zm2.21 3.27a4.38 4.38 0 0 0 .11.92 3.43 3.43 0 0 0 3.35 2.61c2.36 0 3.73-1.93 3.73-4.74 0-2.47-1.3-4.57-3.66-4.57a3.56 3.56 0 0 0-3.37 2.76 3.48 3.48 0 0 0-.16.92zM617.82 263.4v3.53H621v1.7h-3.2v6.63c0 1.52.43 2.38 1.68 2.38a4.81 4.81 0 0 0 1.29-.15l.1 1.68a5.62 5.62 0 0 1-2 .3 3.09 3.09 0 0 1-2.41-.94 4.57 4.57 0 0 1-.86-3.2v-6.7h-1.91v-1.7h1.91V264zM626 263.47a1.32 1.32 0 0 1-1.42 1.38 1.33 1.33 0 0 1-1.35-1.38 1.36 1.36 0 0 1 1.4-1.39 1.32 1.32 0 0 1 1.37 1.39zm-2.49 15.75v-12.29h2.24v12.29zM629.47 270.25c0-1.27 0-2.31-.1-3.32h2l.1 2h.08a4.21 4.21 0 0 1 3.85-2.26 3.62 3.62 0 0 1 3.48 2.46 5.21 5.21 0 0 1 1.37-1.6 4.2 4.2 0 0 1 2.72-.86c1.63 0 4 1.06 4 5.33v7.24h-2.18v-7c0-2.36-.87-3.78-2.67-3.78a2.89 2.89 0 0 0-2.64 2 3.7 3.7 0 0 0-.18 1.12v7.59h-2.18v-7.37c0-2-.87-3.37-2.57-3.37a3 3 0 0 0-2.76 2.23 3 3 0 0 0-.18 1.09v7.42h-2.19zM653.14 263.47a1.39 1.39 0 0 1-2.77 0 1.36 1.36 0 0 1 1.39-1.39 1.33 1.33 0 0 1 1.38 1.39zm-2.49 15.75v-12.29h2.23v12.29zM655.19 277.92l5.56-7.23c.54-.66 1-1.25 1.6-1.91h-6.65v-1.8h9.37v1.39l-5.48 7.14c-.51.68-1 1.29-1.58 1.93v.05h7.19v1.78h-10zM674.26 279.22l-.18-1.55H674a4.61 4.61 0 0 1-3.76 1.83 3.51 3.51 0 0 1-3.76-3.53c0-3 2.64-4.6 7.39-4.57v-.26a2.53 2.53 0 0 0-2.79-2.84 6.08 6.08 0 0 0-3.2.91l-.51-1.47a7.62 7.62 0 0 1 4-1.09c3.75 0 4.67 2.56 4.67 5v4.59a17.62 17.62 0 0 0 .2 3zm-.33-6.27c-2.44-.06-5.21.38-5.21 2.76a2 2 0 0 0 2.11 2.14 3.05 3.05 0 0 0 3-2.06 2.22 2.22 0 0 0 .13-.71zM682.28 263.4v3.53h3.2v1.7h-3.2v6.63c0 1.52.43 2.38 1.68 2.38a4.81 4.81 0 0 0 1.29-.15l.1 1.68a5.62 5.62 0 0 1-2 .3 3.09 3.09 0 0 1-2.41-.94 4.57 4.57 0 0 1-.86-3.2v-6.7h-1.91v-1.7h1.91V264zM690.48 263.47a1.32 1.32 0 0 1-1.42 1.38 1.33 1.33 0 0 1-1.35-1.38 1.36 1.36 0 0 1 1.4-1.39 1.32 1.32 0 0 1 1.37 1.39zM688 279.22v-12.29h2.24v12.29zM705.05 273c0 4.55-3.14 6.53-6.11 6.53-3.33 0-5.89-2.44-5.89-6.33 0-4.11 2.69-6.52 6.09-6.52s5.91 2.53 5.91 6.32zm-9.75.13c0 2.69 1.55 4.72 3.74 4.72s3.73-2 3.73-4.77c0-2.09-1-4.73-3.68-4.73s-3.79 2.41-3.79 4.75zM707.87 270.25c0-1.27 0-2.31-.1-3.32h2l.13 2a4.51 4.51 0 0 1 4.06-2.31c1.7 0 4.34 1 4.34 5.23v7.34h-2.2v-7.09c0-2-.74-3.63-2.84-3.63a3.17 3.17 0 0 0-3 2.29 3.26 3.26 0 0 0-.15 1v7.39h-2.24zM490.7 334.6v-17.11h2.42l5.48 8.66a48.45 48.45 0 0 1 3.07 5.56h.05c-.2-2.29-.25-4.37-.25-7v-7.16h2.08v17.05h-2.23l-5.44-8.68a56.09 56.09 0 0 1-3.2-5.71h-.07c.12 2.16.18 4.22.18 7.06v7.31zM508.58 328.87c.05 3 2 4.26 4.21 4.26a8.14 8.14 0 0 0 3.4-.63l.38 1.6a10 10 0 0 1-4.08.76c-3.79 0-6.05-2.49-6.05-6.2s2.19-6.62 5.77-6.62c4 0 5.08 3.53 5.08 5.79a9.62 9.62 0 0 1-.08 1zm6.55-1.6c0-1.42-.59-3.63-3.1-3.63-2.26 0-3.25 2.08-3.43 3.63zM520.94 322.32l1.63 6.24c.35 1.37.68 2.64.91 3.91h.08c.28-1.24.68-2.56 1.09-3.88l2-6.27h1.88l1.91 6.14c.45 1.47.81 2.77 1.09 4h.07a40.07 40.07 0 0 1 .94-4l1.76-6.17h2.21l-4 12.28h-2l-1.88-5.86c-.43-1.37-.78-2.59-1.09-4a34 34 0 0 1-1.12 4.07l-2 5.83h-2l-3.7-12.28zM544 334.6c.05-.83.1-2.08.1-3.17v-14.85h2.21v7.72a4.58 4.58 0 0 1 4.19-2.26c3 0 5.2 2.54 5.18 6.27 0 4.39-2.77 6.57-5.51 6.57a4.36 4.36 0 0 1-4.11-2.31h-.08l-.1 2zm2.31-4.92a4.17 4.17 0 0 0 .1.81 3.45 3.45 0 0 0 3.35 2.62c2.34 0 3.73-1.91 3.73-4.73 0-2.46-1.27-4.57-3.65-4.57a3.55 3.55 0 0 0-3.4 2.75 3.75 3.75 0 0 0-.13.91zM568.85 331.25c0 1.27 0 2.39.1 3.35h-2l-.13-2h-.05a4.62 4.62 0 0 1-4.06 2.28c-1.93 0-4.24-1.06-4.24-5.38v-7.18h2.23v6.8c0 2.34.71 3.91 2.75 3.91a3.13 3.13 0 0 0 3.14-3.17v-7.54h2.24zM572.25 332.32a5.87 5.87 0 0 0 2.94.89c1.63 0 2.39-.81 2.39-1.83s-.63-1.65-2.28-2.26c-2.21-.79-3.25-2-3.25-3.48 0-2 1.6-3.6 4.24-3.6a6.11 6.11 0 0 1 3 .76l-.56 1.62a4.81 4.81 0 0 0-2.51-.71c-1.32 0-2.06.76-2.06 1.68s.74 1.47 2.33 2.08c2.14.81 3.23 1.88 3.23 3.71 0 2.16-1.68 3.68-4.6 3.68a7 7 0 0 1-3.45-.84zM585.1 318.86a1.39 1.39 0 0 1-2.77 0 1.36 1.36 0 0 1 1.39-1.39 1.33 1.33 0 0 1 1.38 1.39zm-2.49 15.74v-12.28h2.23v12.28zM588.55 325.64c0-1.27 0-2.31-.1-3.32h2l.12 2h.05a4.53 4.53 0 0 1 4.07-2.31c1.7 0 4.34 1 4.34 5.23v7.33h-2.24v-7.08c0-2-.73-3.63-2.84-3.63a3.27 3.27 0 0 0-3.15 3.33v7.38h-2.23zM603.88 328.87a3.93 3.93 0 0 0 4.22 4.26 8.17 8.17 0 0 0 3.4-.63l.38 1.6a10.06 10.06 0 0 1-4.09.76c-3.78 0-6-2.49-6-6.2s2.18-6.62 5.76-6.62c4 0 5.08 3.53 5.08 5.79a10.18 10.18 0 0 1-.07 1zm6.55-1.6c0-1.42-.58-3.63-3.09-3.63-2.26 0-3.25 2.08-3.43 3.63zM615.05 332.32a5.88 5.88 0 0 0 3 .89c1.62 0 2.39-.81 2.39-1.83s-.64-1.65-2.29-2.26c-2.21-.79-3.25-2-3.25-3.48 0-2 1.6-3.6 4.24-3.6a6.05 6.05 0 0 1 3 .76l-.56 1.62a4.81 4.81 0 0 0-2.51-.71c-1.32 0-2.06.76-2.06 1.68s.74 1.47 2.34 2.08c2.13.81 3.22 1.88 3.22 3.71 0 2.16-1.67 3.68-4.59 3.68a7 7 0 0 1-3.45-.84zM625.11 332.32a5.87 5.87 0 0 0 2.94.89c1.63 0 2.39-.81 2.39-1.83s-.64-1.65-2.29-2.26c-2.2-.79-3.25-2-3.25-3.48 0-2 1.6-3.6 4.24-3.6a6.13 6.13 0 0 1 3 .76l-.56 1.62a4.82 4.82 0 0 0-2.52-.71c-1.32 0-2.05.76-2.05 1.68s.73 1.47 2.33 2.08c2.14.81 3.23 1.88 3.23 3.71 0 2.16-1.68 3.68-4.6 3.68a7 7 0 0 1-3.45-.84zM640.85 325.64c0-1.27 0-2.31-.1-3.32h2l.1 2h.08a4.23 4.23 0 0 1 3.86-2.26 3.64 3.64 0 0 1 3.48 2.46 5 5 0 0 1 1.37-1.6 4.2 4.2 0 0 1 2.72-.86c1.62 0 4 1.06 4 5.33v7.23h-2.18v-7c0-2.36-.86-3.79-2.67-3.79a2.89 2.89 0 0 0-2.64 2 3.68 3.68 0 0 0-.18 1.11v7.59h-2.18v-7.36c0-1.95-.86-3.38-2.56-3.38a3 3 0 0 0-2.77 2.24 3 3 0 0 0-.18 1.09v7.41h-2.18zM673.14 328.36c0 4.54-3.15 6.52-6.12 6.52-3.32 0-5.89-2.43-5.89-6.32 0-4.11 2.69-6.52 6.1-6.52s5.91 2.56 5.91 6.32zm-9.75.13c0 2.69 1.55 4.72 3.74 4.72s3.73-2 3.73-4.77c0-2.09-1-4.73-3.68-4.73s-3.79 2.44-3.79 4.78zM686.57 316.58v14.85c0 1.09 0 2.34.11 3.17h-2l-.1-2.13h-.05a4.56 4.56 0 0 1-4.19 2.41c-3 0-5.26-2.51-5.26-6.24 0-4.09 2.52-6.6 5.51-6.6a4.12 4.12 0 0 1 3.71 1.88h.05v-7.34zm-2.23 10.74a4.29 4.29 0 0 0-.1-.94 3.29 3.29 0 0 0-3.23-2.59c-2.31 0-3.68 2-3.68 4.75 0 2.48 1.22 4.54 3.63 4.54a3.37 3.37 0 0 0 3.28-2.66 4.25 4.25 0 0 0 .1-1zM691.52 328.87a3.93 3.93 0 0 0 4.22 4.26 8.17 8.17 0 0 0 3.4-.63l.38 1.6a10.06 10.06 0 0 1-4.09.76c-3.78 0-6-2.49-6-6.2s2.18-6.62 5.76-6.62c4 0 5.08 3.53 5.08 5.79a10.18 10.18 0 0 1-.07 1zm6.55-1.6c0-1.42-.58-3.63-3.09-3.63-2.26 0-3.25 2.08-3.43 3.63zM703 316.58h2.23v18H703zM708.69 332.32a5.84 5.84 0 0 0 2.94.89c1.63 0 2.39-.81 2.39-1.83s-.64-1.65-2.29-2.26c-2.21-.79-3.25-2-3.25-3.48 0-2 1.6-3.6 4.24-3.6a6.05 6.05 0 0 1 3 .76l-.55 1.62a4.89 4.89 0 0 0-2.52-.71c-1.32 0-2 .76-2 1.68s.73 1.47 2.33 2.08c2.13.81 3.23 1.88 3.23 3.71 0 2.16-1.68 3.68-4.6 3.68a7 7 0 0 1-3.45-.84z"/><circle class="cls-6" cx="457.39" cy="217.26" r="4.48"/><circle class="cls-6" cx="457.76" cy="272" r="4.48"/><circle class="cls-6" cx="458.13" cy="326.74" r="4.48"/><path class="cls-5" d="M919.13 216.31c-.13-2.38-.28-5.25-.26-7.39h-.07c-.59 2-1.3 4.14-2.16 6.5l-3 8.31h-1.68l-2.77-8.15c-.81-2.42-1.5-4.62-2-6.66h-.05c0 2.14-.18 5-.33 7.57l-.46 7.34h-2.1l1.19-17.12h2.82l2.92 8.28c.71 2.11 1.29 4 1.72 5.77h.1c.43-1.73 1-3.61 1.8-5.77l3.05-8.28h2.82l1.07 17.12h-2.16zM936.31 217.58c0 4.55-3.15 6.53-6.12 6.53-3.32 0-5.89-2.44-5.89-6.32 0-4.12 2.69-6.53 6.1-6.53s5.91 2.56 5.91 6.32zm-9.75.13c0 2.69 1.55 4.72 3.74 4.72s3.73-2 3.73-4.77c0-2.08-1-4.72-3.68-4.72s-3.79 2.43-3.79 4.77zM939 223.83c.05-.84.1-2.08.1-3.18V205.8h2.21v7.72a4.58 4.58 0 0 1 4.19-2.26c3 0 5.2 2.54 5.18 6.27 0 4.39-2.77 6.58-5.51 6.58a4.37 4.37 0 0 1-4.11-2.31h-.08l-.1 2zm2.31-4.93a4.17 4.17 0 0 0 .1.81 3.45 3.45 0 0 0 3.35 2.62c2.34 0 3.73-1.9 3.73-4.72 0-2.47-1.26-4.57-3.65-4.57a3.56 3.56 0 0 0-3.4 2.74 4.41 4.41 0 0 0-.13.91zM956.06 208.09a1.38 1.38 0 0 1-2.76 0 1.36 1.36 0 0 1 1.39-1.4 1.33 1.33 0 0 1 1.37 1.4zm-2.48 15.74v-12.29h2.23v12.29zM959.52 205.8h2.23v18h-2.23zM966.75 218.09c0 3 2 4.27 4.22 4.27a8 8 0 0 0 3.4-.64l.38 1.6a9.89 9.89 0 0 1-4.09.76c-3.78 0-6-2.49-6-6.19s2.18-6.63 5.76-6.63c4 0 5.08 3.53 5.08 5.79a7.43 7.43 0 0 1-.08 1zm6.55-1.6c0-1.42-.58-3.63-3.1-3.63-2.26 0-3.25 2.08-3.42 3.63zM984.85 218.09c0 3 2 4.27 4.22 4.27a8 8 0 0 0 3.4-.64l.38 1.6a9.89 9.89 0 0 1-4.09.76c-3.78 0-6-2.49-6-6.19s2.18-6.63 5.76-6.63c4 0 5.08 3.53 5.08 5.79a10 10 0 0 1-.07 1zm6.55-1.6c0-1.42-.58-3.63-3.09-3.63-2.26 0-3.25 2.08-3.43 3.63zM996.33 214.87c0-1.27 0-2.32-.1-3.33h2l.12 2h.06a4.5 4.5 0 0 1 4.06-2.31c1.7 0 4.34 1 4.34 5.23v7.34h-2.24v-7.09c0-2-.73-3.63-2.84-3.63a3.17 3.17 0 0 0-3 2.29 3 3 0 0 0-.16 1v7.39h-2.23zM1017.22 223.83l-.17-1.55h-.05a4.61 4.61 0 0 1-3.76 1.83 3.5 3.5 0 0 1-3.76-3.53c0-3 2.65-4.6 7.39-4.57v-.26a2.53 2.53 0 0 0-2.79-2.84 6.2 6.2 0 0 0-3.2.91l-.51-1.47a7.65 7.65 0 0 1 4-1.09c3.76 0 4.67 2.56 4.67 5v4.59a16.55 16.55 0 0 0 .21 3zm-.33-6.27c-2.43-.05-5.2.38-5.2 2.76a2 2 0 0 0 2.11 2.14 3.06 3.06 0 0 0 3-2.06 2.52 2.52 0 0 0 .12-.71zM1022.55 223.83c.06-.84.11-2.08.11-3.18V205.8h2.21v7.72h.05a4.57 4.57 0 0 1 4.19-2.26c3 0 5.2 2.54 5.18 6.27 0 4.39-2.77 6.58-5.51 6.58a4.4 4.4 0 0 1-4.12-2.31h-.07l-.11 2zm2.32-4.93a4.17 4.17 0 0 0 .1.81 3.44 3.44 0 0 0 3.35 2.62c2.33 0 3.73-1.9 3.73-4.72 0-2.47-1.27-4.57-3.66-4.57a3.56 3.56 0 0 0-3.4 2.74 4.47 4.47 0 0 0-.12.91zM1037.1 205.8h2.24v18h-2.24zM1044.34 218.09c.05 3 2 4.27 4.21 4.27a8 8 0 0 0 3.4-.64l.39 1.6a9.93 9.93 0 0 1-4.09.76c-3.79 0-6-2.49-6-6.19s2.19-6.63 5.77-6.63c4 0 5.08 3.53 5.08 5.79a7.43 7.43 0 0 1-.08 1zm6.55-1.6c0-1.42-.59-3.63-3.1-3.63-2.26 0-3.25 2.08-3.43 3.63zM1055.81 214.87c0-1.27 0-2.32-.1-3.33h2l.1 2h.07a4.24 4.24 0 0 1 3.86-2.26 3.63 3.63 0 0 1 3.48 2.46 5.21 5.21 0 0 1 1.37-1.6 4.2 4.2 0 0 1 2.72-.86c1.63 0 4 1.07 4 5.33v7.24h-2.19v-7c0-2.36-.86-3.78-2.66-3.78a2.89 2.89 0 0 0-2.64 2 3.7 3.7 0 0 0-.18 1.12v7.59h-2.18v-7.37c0-2-.87-3.37-2.57-3.37a3.07 3.07 0 0 0-2.77 2.23 3.23 3.23 0 0 0-.17 1.09v7.42h-2.19zM1078.23 218.09c0 3 2 4.27 4.22 4.27a8 8 0 0 0 3.4-.64l.38 1.6a9.89 9.89 0 0 1-4.09.76c-3.78 0-6-2.49-6-6.19s2.18-6.63 5.76-6.63c4 0 5.08 3.53 5.08 5.79a7.43 7.43 0 0 1-.08 1zm6.55-1.6c0-1.42-.58-3.63-3.1-3.63-2.26 0-3.25 2.08-3.42 3.63zM1089.71 214.87c0-1.27 0-2.32-.11-3.33h2l.12 2a4.52 4.52 0 0 1 4.07-2.31c1.7 0 4.34 1 4.34 5.23v7.34h-2.24v-7.09c0-2-.73-3.63-2.84-3.63a3.18 3.18 0 0 0-3 2.29 3.26 3.26 0 0 0-.15 1v7.39h-2.23zM1106.39 208v3.53h3.2v1.7h-3.2v6.63c0 1.52.43 2.38 1.67 2.38a4.84 4.84 0 0 0 1.3-.15l.1 1.68a5.44 5.44 0 0 1-2 .3 3.09 3.09 0 0 1-2.41-.94 4.52 4.52 0 0 1-.87-3.2v-6.7h-1.9v-1.7h1.9v-2.95zM906.91 262.1v17.12h-2.21V262.1zM911 270.25c0-1.27 0-2.31-.1-3.32h2l.12 2H913a4.5 4.5 0 0 1 4.06-2.31c1.7 0 4.34 1 4.34 5.23v7.34h-2.23v-7.09c0-2-.74-3.63-2.85-3.63a3.17 3.17 0 0 0-3 2.29 3 3 0 0 0-.16 1v7.39H911zM925.57 266.93l2.41 6.9a30.36 30.36 0 0 1 1 3.15h.08c.28-1 .64-2 1-3.15l2.39-6.9h2.33L930 279.22h-2.13l-4.67-12.29zM947.79 273c0 4.55-3.15 6.53-6.12 6.53-3.33 0-5.89-2.44-5.89-6.33 0-4.11 2.69-6.52 6.09-6.52s5.92 2.53 5.92 6.32zm-9.75.13c0 2.69 1.55 4.72 3.73 4.72s3.73-2 3.73-4.77c0-2.09-1-4.73-3.68-4.73s-3.82 2.41-3.82 4.75zM953.09 263.47a1.32 1.32 0 0 1-1.42 1.38 1.33 1.33 0 0 1-1.34-1.38 1.36 1.36 0 0 1 1.39-1.39 1.32 1.32 0 0 1 1.37 1.39zm-2.48 15.75v-12.29h2.23v12.29zM965.31 278.76a8.33 8.33 0 0 1-3.53.71c-3.71 0-6.12-2.51-6.12-6.27a6.25 6.25 0 0 1 6.6-6.53 7.39 7.39 0 0 1 3.1.64l-.51 1.73a5.1 5.1 0 0 0-2.59-.59c-2.82 0-4.34 2.08-4.34 4.65 0 2.84 1.83 4.59 4.26 4.59a6.39 6.39 0 0 0 2.75-.61zM969 273.48a3.93 3.93 0 0 0 4.22 4.26 8.17 8.17 0 0 0 3.4-.63l.38 1.6a10.06 10.06 0 0 1-4.09.76c-3.78 0-6-2.49-6-6.19s2.18-6.63 5.76-6.63c4 0 5.08 3.53 5.08 5.79a10.18 10.18 0 0 1-.07 1zm6.55-1.6c0-1.42-.58-3.63-3.09-3.63-2.26 0-3.25 2.08-3.43 3.63zM992.68 279.22l-.18-1.55h-.08a4.58 4.58 0 0 1-3.76 1.83 3.5 3.5 0 0 1-3.75-3.53c0-3 2.64-4.6 7.38-4.57v-.26a2.53 2.53 0 0 0-2.79-2.84 6.13 6.13 0 0 0-3.2.91l-.51-1.47a7.65 7.65 0 0 1 4-1.09c3.76 0 4.67 2.56 4.67 5v4.59a16.55 16.55 0 0 0 .21 3zm-.33-6.27c-2.44-.06-5.21.38-5.21 2.76a2 2 0 0 0 2.11 2.14 3.06 3.06 0 0 0 3-2.06 2.53 2.53 0 0 0 .13-.71zM998.11 270.25c0-1.27 0-2.31-.1-3.32h2l.12 2a4.53 4.53 0 0 1 4.07-2.31c1.7 0 4.34 1 4.34 5.23v7.34h-2.24v-7.09c0-2-.73-3.63-2.84-3.63a3.19 3.19 0 0 0-3 2.29 3.26 3.26 0 0 0-.15 1v7.39h-2.23zM1022.81 261.19V276c0 1.09 0 2.34.1 3.18h-2l-.1-2.14a4.55 4.55 0 0 1-4.19 2.42c-3 0-5.26-2.52-5.26-6.25 0-4.09 2.51-6.6 5.51-6.6a4.12 4.12 0 0 1 3.71 1.88h.05v-7.34zm-2.23 10.74a4.29 4.29 0 0 0-.1-.94 3.29 3.29 0 0 0-3.23-2.59c-2.31 0-3.68 2-3.68 4.75 0 2.49 1.22 4.54 3.63 4.54a3.37 3.37 0 0 0 3.28-2.66 4.25 4.25 0 0 0 .1-1zM1033.14 273.48a3.93 3.93 0 0 0 4.22 4.26 8.17 8.17 0 0 0 3.4-.63l.38 1.6a10.06 10.06 0 0 1-4.09.76c-3.78 0-6-2.49-6-6.19s2.18-6.63 5.76-6.63c4 0 5.08 3.53 5.08 5.79a10.18 10.18 0 0 1-.07 1zm6.55-1.6c0-1.42-.58-3.63-3.09-3.63-2.26 0-3.25 2.08-3.43 3.63zM1050.51 271.52v1.65h-6.27v-1.65zM1053.12 270.94c0-1.57 0-2.84-.1-4h2l.1 2.11a4.83 4.83 0 0 1 4.37-2.39c3 0 5.2 2.51 5.2 6.24 0 4.42-2.69 6.61-5.58 6.61a4.32 4.32 0 0 1-3.79-1.93h-.05v6.67h-2.21zm2.21 3.27a5.18 5.18 0 0 0 .1.92 3.45 3.45 0 0 0 3.36 2.61c2.36 0 3.73-1.93 3.73-4.74 0-2.47-1.3-4.57-3.66-4.57a3.58 3.58 0 0 0-3.38 2.76 3.93 3.93 0 0 0-.15.92zM1074.37 279.22l-.17-1.55h-.08a4.61 4.61 0 0 1-3.76 1.83 3.51 3.51 0 0 1-3.76-3.53c0-3 2.64-4.6 7.39-4.57v-.26a2.53 2.53 0 0 0-2.79-2.84 6.11 6.11 0 0 0-3.2.91l-.51-1.47a7.65 7.65 0 0 1 4-1.09c3.76 0 4.67 2.56 4.67 5v4.59a17.62 17.62 0 0 0 .2 3zM1074 273c-2.43-.06-5.2.38-5.2 2.76a2 2 0 0 0 2.11 2.14 3.06 3.06 0 0 0 3-2.06 2.52 2.52 0 0 0 .12-.71zM1080.42 266.93l2.69 7.26c.28.81.58 1.78.78 2.51h.06c.22-.73.48-1.67.78-2.56l2.44-7.21h2.36l-3.35 8.76c-1.6 4.21-2.69 6.37-4.21 7.69a6 6 0 0 1-2.75 1.45l-.56-1.88a5.92 5.92 0 0 0 2-1.09 6.8 6.8 0 0 0 1.88-2.49 1.71 1.71 0 0 0 .18-.53 1.79 1.79 0 0 0-.16-.59l-4.56-11.32zM1091.56 270.25c0-1.27 0-2.31-.1-3.32h2l.1 2h.07a4.24 4.24 0 0 1 3.86-2.26 3.62 3.62 0 0 1 3.48 2.46 5.21 5.21 0 0 1 1.37-1.6 4.2 4.2 0 0 1 2.72-.86c1.62 0 4 1.06 4 5.33v7.24h-2.19v-7c0-2.36-.86-3.78-2.66-3.78a2.89 2.89 0 0 0-2.64 2 3.41 3.41 0 0 0-.18 1.12v7.59h-2.18v-7.37c0-2-.87-3.37-2.57-3.37a3 3 0 0 0-2.77 2.23 3.23 3.23 0 0 0-.17 1.09v7.42h-2.19zM1114 273.48c0 3 2 4.26 4.21 4.26a8.22 8.22 0 0 0 3.41-.63l.38 1.6a10.06 10.06 0 0 1-4.09.76c-3.78 0-6-2.49-6-6.19s2.18-6.63 5.76-6.63c4 0 5.08 3.53 5.08 5.79a7.57 7.57 0 0 1-.08 1zm6.55-1.6c0-1.42-.58-3.63-3.1-3.63-2.26 0-3.25 2.08-3.42 3.63zM1125.46 270.25c0-1.27 0-2.31-.11-3.32h2l.13 2a4.51 4.51 0 0 1 4.06-2.31c1.71 0 4.35 1 4.35 5.23v7.34h-2.24v-7.09c0-2-.73-3.63-2.84-3.63a3.18 3.18 0 0 0-3 2.29 3.26 3.26 0 0 0-.15 1v7.39h-2.23zM1142.14 263.4v3.53h3.2v1.7h-3.2v6.63c0 1.52.43 2.38 1.67 2.38a4.84 4.84 0 0 0 1.3-.15l.1 1.68a5.67 5.67 0 0 1-2 .3 3.09 3.09 0 0 1-2.41-.94 4.52 4.52 0 0 1-.87-3.2v-6.7h-1.9v-1.7h1.9V264zM904.7 317.69a26.59 26.59 0 0 1 4.24-.33 7 7 0 0 1 4.8 1.43 4.59 4.59 0 0 1 1.5 3.58 5 5 0 0 1-1.32 3.65 7.07 7.07 0 0 1-5.23 1.88 7.48 7.48 0 0 1-1.78-.15v6.85h-2.21zm2.21 8.26a7.79 7.79 0 0 0 1.83.17c2.67 0 4.29-1.29 4.29-3.65s-1.6-3.35-4-3.35a9.5 9.5 0 0 0-2.08.17zM918 316.58h2.23v18H918zM930.8 334.6l-.17-1.54h-.08a4.6 4.6 0 0 1-3.76 1.82 3.5 3.5 0 0 1-3.76-3.53c0-3 2.64-4.59 7.39-4.57v-.25a2.53 2.53 0 0 0-2.79-2.84 6.11 6.11 0 0 0-3.2.91l-.51-1.47a7.65 7.65 0 0 1 4-1.09c3.76 0 4.67 2.56 4.67 5v4.6a17.41 17.41 0 0 0 .2 2.94zm-.33-6.27c-2.43-.05-5.2.38-5.2 2.77a2 2 0 0 0 2.11 2.13 3.07 3.07 0 0 0 3-2.05 2.58 2.58 0 0 0 .12-.71zM936.24 325.64c0-1.27 0-2.31-.11-3.32h2l.13 2a4.51 4.51 0 0 1 4.06-2.31c1.71 0 4.35 1 4.35 5.23v7.33h-2.24v-7.08c0-2-.73-3.63-2.84-3.63a3.18 3.18 0 0 0-3 2.29 3.22 3.22 0 0 0-.15 1v7.38h-2.23zM950.33 325.64c0-1.27 0-2.31-.11-3.32h2l.12 2a4.52 4.52 0 0 1 4.07-2.31c1.7 0 4.34 1 4.34 5.23v7.33h-2.24v-7.08c0-2-.73-3.63-2.84-3.63a3.18 3.18 0 0 0-3 2.29 3.22 3.22 0 0 0-.15 1v7.38h-2.23zM966.91 318.86a1.39 1.39 0 0 1-2.77 0 1.36 1.36 0 0 1 1.39-1.39 1.33 1.33 0 0 1 1.38 1.39zm-2.49 15.74v-12.28h2.23v12.28zM970.36 325.64c0-1.27 0-2.31-.1-3.32h2l.12 2a4.53 4.53 0 0 1 4.07-2.31c1.7 0 4.34 1 4.34 5.23v7.33h-2.24v-7.08c0-2-.73-3.63-2.84-3.63a3.27 3.27 0 0 0-3.15 3.33v7.38h-2.23zM995 322.32c0 .88-.11 1.87-.11 3.37v7.14c0 2.82-.55 4.54-1.75 5.61a6.49 6.49 0 0 1-4.47 1.47 7.91 7.91 0 0 1-4.08-1l.55-1.71a7 7 0 0 0 3.61 1c2.29 0 4-1.19 4-4.29v-1.41a4.4 4.4 0 0 1-3.91 2.05c-3 0-5.23-2.59-5.23-6 0-4.16 2.72-6.52 5.54-6.52a4.07 4.07 0 0 1 3.83 2.13h.02l.1-1.85zm-2.31 4.85a3.28 3.28 0 0 0-3.25-3.38c-2.14 0-3.66 1.8-3.66 4.65 0 2.41 1.22 4.41 3.63 4.41a3.27 3.27 0 0 0 3.1-2.28 3.8 3.8 0 0 0 .18-1.2zM1010.83 334.6l-.18-1.54h-.08a4.57 4.57 0 0 1-3.76 1.82 3.5 3.5 0 0 1-3.75-3.53c0-3 2.64-4.59 7.39-4.57v-.25a2.54 2.54 0 0 0-2.8-2.84 6.13 6.13 0 0 0-3.2.91l-.5-1.47a7.58 7.58 0 0 1 4-1.09c3.76 0 4.67 2.56 4.67 5v4.6a17.34 17.34 0 0 0 .21 2.94zm-.33-6.27c-2.44-.05-5.21.38-5.21 2.77a2 2 0 0 0 2.11 2.13 3.06 3.06 0 0 0 3-2.05 2.27 2.27 0 0 0 .13-.71zM1016.26 325.64c0-1.27 0-2.31-.1-3.32h2l.12 2h.06a4.51 4.51 0 0 1 4.06-2.31c1.7 0 4.34 1 4.34 5.23v7.33h-2.23v-7.08c0-2-.74-3.63-2.85-3.63a3.17 3.17 0 0 0-3 2.29 3 3 0 0 0-.16 1v7.38h-2.23zM1041 316.58v14.85c0 1.09 0 2.34.1 3.17h-2l-.1-2.13a4.56 4.56 0 0 1-4.19 2.41c-3 0-5.26-2.51-5.26-6.24 0-4.09 2.51-6.6 5.51-6.6a4.12 4.12 0 0 1 3.71 1.88v-7.34zm-2.23 10.74a4.29 4.29 0 0 0-.1-.94 3.29 3.29 0 0 0-3.23-2.59c-2.31 0-3.68 2-3.68 4.75 0 2.48 1.22 4.54 3.63 4.54a3.37 3.37 0 0 0 3.28-2.66 4.25 4.25 0 0 0 .1-1zM1049.75 332.32a5.84 5.84 0 0 0 2.94.89c1.63 0 2.39-.81 2.39-1.83s-.64-1.65-2.29-2.26c-2.21-.79-3.25-2-3.25-3.48 0-2 1.6-3.6 4.24-3.6a6.05 6.05 0 0 1 3 .76l-.55 1.62a4.85 4.85 0 0 0-2.52-.71c-1.32 0-2 .76-2 1.68s.73 1.47 2.33 2.08c2.13.81 3.23 1.88 3.23 3.71 0 2.16-1.68 3.68-4.6 3.68a7 7 0 0 1-3.45-.84zM1068.86 334.15a8.24 8.24 0 0 1-3.52.71c-3.71 0-6.12-2.51-6.12-6.27a6.24 6.24 0 0 1 6.6-6.53 7.39 7.39 0 0 1 3.1.64l-.51 1.72a5.26 5.26 0 0 0-2.59-.58c-2.82 0-4.34 2.08-4.34 4.65 0 2.84 1.82 4.59 4.26 4.59a6.31 6.31 0 0 0 2.74-.61zM1071.48 316.58h2.23v7.67a4.19 4.19 0 0 1 1.6-1.58 4.62 4.62 0 0 1 2.29-.63c1.65 0 4.29 1 4.29 5.25v7.31h-2.23v-7.05c0-2-.74-3.66-2.85-3.66a3.2 3.2 0 0 0-3 2.23 2.68 2.68 0 0 0-.16 1.07v7.41h-2.23zM1086.81 328.87a3.93 3.93 0 0 0 4.22 4.26 8.17 8.17 0 0 0 3.4-.63l.38 1.6a10.06 10.06 0 0 1-4.09.76c-3.78 0-6-2.49-6-6.2s2.18-6.62 5.76-6.62c4 0 5.08 3.53 5.08 5.79a10.18 10.18 0 0 1-.07 1zm6.55-1.6c0-1.42-.58-3.63-3.09-3.63-2.26 0-3.25 2.08-3.43 3.63zM1108.9 316.58v14.85c0 1.09 0 2.34.1 3.17h-2l-.1-2.13h-.05a4.56 4.56 0 0 1-4.19 2.41c-3 0-5.26-2.51-5.26-6.24 0-4.09 2.51-6.6 5.51-6.6a4.12 4.12 0 0 1 3.71 1.88h.05v-7.34zm-2.23 10.74a4.29 4.29 0 0 0-.1-.94 3.29 3.29 0 0 0-3.23-2.59c-2.31 0-3.68 2-3.68 4.75 0 2.48 1.22 4.54 3.63 4.54a3.37 3.37 0 0 0 3.28-2.66 4.25 4.25 0 0 0 .1-1zM1122.89 331.25c0 1.27 0 2.39.1 3.35h-2l-.12-2h-.05a4.63 4.63 0 0 1-4.07 2.28c-1.93 0-4.24-1.06-4.24-5.38v-7.18h2.24v6.8c0 2.34.71 3.91 2.74 3.91a3.16 3.16 0 0 0 3.15-3.17v-7.54h2.23zM1126.6 316.58h2.23v18h-2.23zM1135.08 318.86a1.39 1.39 0 0 1-2.77 0 1.36 1.36 0 0 1 1.4-1.39 1.33 1.33 0 0 1 1.37 1.39zm-2.49 15.74v-12.28h2.23v12.28zM1138.53 325.64c0-1.27 0-2.31-.1-3.32h2l.13 2a4.51 4.51 0 0 1 4.06-2.31c1.7 0 4.34 1 4.34 5.23v7.33h-2.23v-7.08c0-2-.74-3.63-2.85-3.63a3.17 3.17 0 0 0-3 2.29 3 3 0 0 0-.16 1v7.38h-2.23zM1163.21 322.32c0 .88-.1 1.87-.1 3.37v7.14c0 2.82-.56 4.54-1.76 5.61a6.49 6.49 0 0 1-4.46 1.47 7.92 7.92 0 0 1-4.09-1l.56-1.71a6.89 6.89 0 0 0 3.6 1c2.29 0 4-1.19 4-4.29v-1.41h-.05a4.37 4.37 0 0 1-3.91 2.05c-3 0-5.23-2.59-5.23-6 0-4.16 2.72-6.52 5.54-6.52a4.07 4.07 0 0 1 3.83 2.13h.05l.1-1.85zm-2.31 4.85a3.28 3.28 0 0 0-3.25-3.38c-2.14 0-3.66 1.8-3.66 4.65 0 2.41 1.22 4.41 3.63 4.41a3.27 3.27 0 0 0 3.1-2.28 3.8 3.8 0 0 0 .18-1.2z"/><circle class="cls-6" cx="869.42" cy="217.26" r="4.48"/><circle class="cls-6" cx="869.79" cy="272" r="4.48"/><circle class="cls-6" cx="870.16" cy="326.74" r="4.48"/><path class="cls-5" d="M935 106.65v12.92h-5a4.91 4.91 0 0 1-3.62 3.43h-1.64a4.88 4.88 0 0 1-3.63-3.39H909.4a9.31 9.31 0 0 1-1.27 1.91 16.07 16.07 0 0 1-2.38 1.48H904a5 5 0 0 1-3.62-3.47H894V107.2c-1.11-.15-2.14-.24-3.15-.44A24.84 24.84 0 0 1 889 58.34c1-.26 1.63-.55 2-1.64.46-1.49 1.79-2.17 3.16-2.7h2a5 5 0 0 1 3.49 3.53c0 .18.38.34.6.4 1.07.32 2.17.53 3.22.89a24.85 24.85 0 0 1 15 32.89c-.08.21-.14.43-.25.75h2v5h7.68a1.18 1.18 0 0 1 1.13.58q2.09 3.12 4.25 6.19c.53.84 1.15 1.62 1.72 2.42zm-40.5-34.51c-.23 0-.34-.06-.44-.06h-8.83c-.55 0-.68.33-.83.71a25.51 25.51 0 0 0-.11 18.9.91.91 0 0 0 1 .68h8.42c.23 0 .46 0 .69-.06V89h-4l5.3-9 5.3 9.17h-4.11v3.08a2.1 2.1 0 0 0 .35.08h8.5a1 1 0 0 0 .71-.58 25.31 25.31 0 0 0-.06-19 .87.87 0 0 0-1-.64h-8.59v3h-2.26zm1.79 38.54h21.48V94.76h-21.46zm0 2.36v4.24h3.39a.79.79 0 0 0 .88-.6 4.47 4.47 0 0 1 5.32-2.7 4.64 4.64 0 0 1 3.36 3.26h11.8a4.48 4.48 0 0 1 4.17-3.38c2.43-.14 4 1.19 4.76 3.35h2.71v-9.52a1.59 1.59 0 0 0-.34-.72c-1.31-1.91-2.69-3.77-3.91-5.73a2.67 2.67 0 0 0-2.8-1.5c-1.8.14-3.63 0-5.53 0V113zm-14.11-41h-6.51c-.24 0-.58.36-.7.63a22.43 22.43 0 0 0-.3 18.66 1.31 1.31 0 0 0 1.52 1 17.36 17.36 0 0 1 2 0h3.85a28.28 28.28 0 0 1 .17-20.26zm26.46 20.27h6.56a.9.9 0 0 0 .62-.5 22.3 22.3 0 0 0-.15-19.26.86.86 0 0 0-.57-.46h-6.56a28.38 28.38 0 0 1 .13 20.25zm-17.84 12.11c0-.16 0-.23-.07-.26l-.49-.43a25.18 25.18 0 0 1-6.3-7.63 2.45 2.45 0 0 0-2.75-1.59c-1.52.15-3.06 0-4.79 0a22.9 22.9 0 0 0 14.43 9.94zm-14.16-34.65h6.26c.21 0 .5-.29.62-.51a27.59 27.59 0 0 1 4.38-6.07c.94-1 1.94-1.87 2.92-2.81a22.22 22.22 0 0 0-14.18 9.39zm23.23-9.48a30.06 30.06 0 0 1 7.47 9.1.93.93 0 0 0 .71.37h5.46a2.5 2.5 0 0 0 .54-.13 22.41 22.41 0 0 0-14.18-9.34zm-5.94 43.35v-9h-8.22a25.65 25.65 0 0 0 8.22 9zm.54-40.39c-.65-.3-1.26-.62-1.89-.84a.82.82 0 0 0-.69.16 41.49 41.49 0 0 0-3.12 3.1c-1 1.23-1.95 2.58-3 4h8.72zm10.41 6.48a25.25 25.25 0 0 0-6.51-7.59c-1.74.23-1.65 1.37-1.59 2.52v5.07zm-.11 51a2.3 2.3 0 0 0 2.34-2.3 2.31 2.31 0 1 0-4.61 0 2.29 2.29 0 0 0 2.27 2.28zm-11.93-62.2a2.24 2.24 0 0 0 2.28 2.34 2.3 2.3 0 0 0 .08-4.59 2.23 2.23 0 0 0-2.36 2.25zm35 59.91a2.29 2.29 0 1 0-4.58-.06 2.24 2.24 0 0 0 2.29 2.33 2.28 2.28 0 0 0 2.28-2.27zM528.14 73.64c-.2 1.09-.37 2.19-.59 3.27A23.25 23.25 0 0 1 499 94.46c-.25-.07-.5-.17-.8-.27l.71-2.36a20.92 20.92 0 0 0 25.19-12.38 20.61 20.61 0 1 0-36.45 4l-2.09 1.39a21.87 21.87 0 0 1-3.25-7.45A23.18 23.18 0 0 1 502.1 49a1.9 1.9 0 0 0 .42-.18h4.57a3.54 3.54 0 0 0 .55.18 23.07 23.07 0 0 1 19.75 17.52c.32 1.3.5 2.63.75 4zM470.55 135c-1-.21-2-.41-3.06-.64s-1.55-.82-1.37-1.68.84-1.11 2-.87a21.61 21.61 0 0 0 2.13.4c.78.1 1.55.17 1.73 1.14s-.47 1.33-1.2 1.65zM473.73 135c-.61-.39-1.12-.84-.88-1.67s.8-.92 1.52-1c.95-.06 1.89-.25 2.84-.37a1.19 1.19 0 0 1 1.5 1 1.25 1.25 0 0 1-1.1 1.5c-.76.17-1.53.31-2.29.46z"/><path class="cls-5" d="M501.26 76.2l-3.64-2.94 11.17-4.35L507 80.75l-3.62-2.86c-.5.57-1 1.11-1.43 1.66q-11.76 14-23.52 27.92a1.48 1.48 0 0 0-.28 2 5.55 5.55 0 0 1-1.75 7A5.72 5.72 0 0 1 468 109a5.63 5.63 0 0 1 6.71-2.64 1.28 1.28 0 0 0 1.66-.46q12.23-14.61 24.51-29.17c.12-.12.2-.29.38-.53zm-28.37 38.74a3.14 3.14 0 1 0 .1-6.28 3.2 3.2 0 0 0-3.17 3.15 3.16 3.16 0 0 0 3.07 3.13zM490.37 126.38c0 1.21-2.94 4-3.88 3.82a1.64 1.64 0 0 1-1.07-.82 1.6 1.6 0 0 1 .28-1.33 18.16 18.16 0 0 1 2.53-2.35 1.84 1.84 0 0 1 1.44-.16c.33.12.55.65.7.84zM465.67 92a4.16 4.16 0 0 1-.87.88c-.84.52-1.74.93-2.62 1.39a1.31 1.31 0 0 1-1.9-.37 1.27 1.27 0 0 1 .55-1.85 29.57 29.57 0 0 1 3.07-1.57c.92-.38 1.8.27 1.77 1.52zM496.13 110.32c0 1.51-.36 2-1.21 2.07s-1.27-.43-1.37-1.63c-.08-.85-.21-1.69-.32-2.54s.24-1.59 1-1.75 1.37.36 1.53 1.3.29 1.95.37 2.55zM459.85 128.35c-.22.29-.41.81-.76 1a1.59 1.59 0 0 1-1.37-.08 18.2 18.2 0 0 1-2.65-2.76 1.66 1.66 0 0 1 .18-1.56 1.47 1.47 0 0 1 1.45-.2 32.16 32.16 0 0 1 2.87 2.85c.14.1.15.4.28.75zM465.42 131.59c0 1.16-.73 1.82-1.57 1.47a25 25 0 0 1-3.48-1.82 1.13 1.13 0 0 1-.29-1.67 1.19 1.19 0 0 1 1.64-.47 31.32 31.32 0 0 1 3.12 1.69 2.18 2.18 0 0 1 .58.8zM475.35 88.73c.54.08 1.55.22 2.55.42a1.3 1.3 0 1 1-.49 2.55c-.88-.11-1.75-.3-2.64-.38-1.21-.12-1.78-.57-1.72-1.45s.62-1.21 2.3-1.14zM453 104.7c-1.14 0-1.79-.86-1.43-1.73a26.15 26.15 0 0 1 1.71-3.33 1.14 1.14 0 0 1 1.65-.37 1.18 1.18 0 0 1 .56 1.61 31.87 31.87 0 0 1-1.66 3.24c-.22.32-.69.46-.83.58zM449.92 109c.1-.53.25-1.54.46-2.54a1.26 1.26 0 0 1 1.58-1.1c.75.12 1.1.73 1 1.66s-.31 1.75-.42 2.63c-.14 1.12-.6 1.65-1.48 1.57s-1.22-.58-1.14-2.22zM455.63 123.09c-.34.38-.61 1-1 1.06a1.64 1.64 0 0 1-1.46-.37 17.29 17.29 0 0 1-1.74-3.53 1.58 1.58 0 0 1 .62-1.36c.33-.21 1.24-.13 1.4.14.79 1.23 1.41 2.58 2.18 4.06zM491.42 125.26c-1.15 0-1.84-.91-1.43-1.76a35.53 35.53 0 0 1 1.78-3.19 1.27 1.27 0 0 1 2.26 1.14c-.57 1.15-1.21 2.26-1.89 3.35-.14.27-.58.37-.72.46zM495.15 104.52c-.47.47-.79 1-1.21 1.14a1.63 1.63 0 0 1-1.41-.52 17 17 0 0 1-1.5-3.41 1.56 1.56 0 0 1 .54-1.39c.35-.22 1.3-.15 1.47.12.78 1.24 1.37 2.6 2.11 4.06zM496.05 114.67c-.26 1.19-.5 2.38-.81 3.56a1.28 1.28 0 0 1-2.47-.67c.21-1.1.4-2.21.65-3.3a1.22 1.22 0 0 1 1.46-1 1.34 1.34 0 0 1 1.17 1.41zM483.85 129.38c.39.34.95.6 1.08 1a1.57 1.57 0 0 1-.32 1.38 22.29 22.29 0 0 1-3.73 1.76 1.45 1.45 0 0 1-1.25-.63c-.2-.36-.12-1.25.14-1.41 1.23-.76 2.6-1.36 4.08-2.1zM472.24 90a1.31 1.31 0 0 1-1.19 1.35l-3.11.52a1.21 1.21 0 0 1-1.55-.86 1.18 1.18 0 0 1 .87-1.62 33.37 33.37 0 0 1 3.6-.6c.83-.14 1.27.37 1.38 1.21zM456.36 99c-1.1 0-1.8-1.16-1.19-1.92a19.13 19.13 0 0 1 2.94-2.89 1.51 1.51 0 0 1 1.45.26 1.58 1.58 0 0 1 .16 1.49 29.38 29.38 0 0 1-2.72 2.78 1.6 1.6 0 0 1-.64.28zM452.91 117a1.11 1.11 0 0 1-1 1 1.13 1.13 0 0 1-1.46-.85 34.72 34.72 0 0 1-.53-3.8c-.07-.74.42-1.16 1.14-1.22a1.16 1.16 0 0 1 1.36 1c.17 1.16.29 2.34.49 3.87z"/><path class="cls-5" d="M481 90.13a1.42 1.42 0 0 1 1.44 1.34 1.24 1.24 0 0 1-1.33 1.26 1.31 1.31 0 0 1-1.42-1.3 1.28 1.28 0 0 1 1.31-1.3zM58.14 123.93h19.07a10.25 10.25 0 0 1 4.88-7.32 9.76 9.76 0 0 1 6-1.43c5 .44 8.29 3.55 9.43 8.78h6.64v-2.79-7.16a1.22 1.22 0 0 0-.93-1.34q-7.25-3-14.46-6a3 3 0 0 1-1.28-1.09c-2.14-3.43-4.22-6.9-6.38-10.45l2.1-1.25c.22.33.42.61.6.91 1.78 2.93 3.55 5.87 5.37 8.78a3.17 3.17 0 0 0 1.34 1.15c5 2.14 10.06 4.22 15.09 6.32l1 .44v14.94H95.1c.12-3-.73-5.53-3.24-7.32a7.48 7.48 0 0 0-5.08-1.41 7.59 7.59 0 0 0-5.41 2.81 8.38 8.38 0 0 0-1.72 5.92h-24a7.89 7.89 0 0 0-2.79-7 7.75 7.75 0 0 0-10.82 1 7.89 7.89 0 0 0-1.76 6h-7.34v-.85-17.66a1.2 1.2 0 0 1 .85-1.29c2.41-1.1 4.81-2.21 7.18-3.37a3.44 3.44 0 0 0 1.23-1Q45 98.09 47.7 94a1.46 1.46 0 0 1 1.43-.74H64v-4.52l10 5.72-10 5.7v-4.48H50.44a1.47 1.47 0 0 0-1.43.74q-2.58 3.89-5.24 7.7a3.14 3.14 0 0 1-1.15 1c-2.17 1.06-4.38 2.05-6.54 3.11a1.27 1.27 0 0 0-.68.87v14.79h2.32c1.63-6.1 5.53-9.43 12.05-8.49 4.7.65 7.38 3.83 8.37 8.53zM50.52 66.09l-1.67-1.8c.67-.56 1.28-1.1 1.92-1.59A29.87 29.87 0 0 1 64 56.83a1.2 1.2 0 0 0 1-.94 5 5 0 0 1 9.51 0 1.32 1.32 0 0 0 1.21 1 30.64 30.64 0 0 1 14.19 6.93c.19.17.42.3.67.48l-1.75 1.85a28.54 28.54 0 0 0-14.27-7 5.19 5.19 0 0 1-3.34 3.11 5 5 0 0 1-5.92-2.46.92.92 0 0 0-1.22-.55 28.52 28.52 0 0 0-13 6.39zm16.68-8.57a2.58 2.58 0 1 0 2.58-2.61 2.56 2.56 0 0 0-2.58 2.61z"/><path class="cls-5" d="M42.1 125.17A5.89 5.89 0 1 1 48 131a5.8 5.8 0 0 1-5.9-5.83zm2.49 0a3.38 3.38 0 1 0 3.41-3.32 3.36 3.36 0 0 0-3.41 3.36zM87.5 119.41a5.8 5.8 0 1 1-5.86 5.84 5.82 5.82 0 0 1 5.86-5.84zm0 9.13a3.41 3.41 0 0 0 3.39-3.36 3.41 3.41 0 0 0-6.82 0 3.39 3.39 0 0 0 3.48 3.36zM81.69 73.74a18 18 0 0 0-24 0L56 72a20.21 20.21 0 0 1 27.29 0zM75.71 80.08l-1.59 1.7c-2.94-2.18-5.85-2.23-8.89 0l-1.6-1.7c2.89-3.18 9.01-3.19 12.08 0z"/></svg>