<svg xmlns="http://www.w3.org/2000/svg" width="350" height="350"><defs><style>.cls-1{fill:#92d1ff}.cls-2{fill:#0f9ffa}.cls-3{fill:#fff}.cls-4{fill:none}</style></defs><g id="Layer_4" data-name="Layer 4"><path class="cls-1" d="M220.91 134.66l-5.57-5.57 80.59-80.59a175 175 0 0 0-241.86 0l82 82-5.61 5.5-82-82a175 175 0 0 0 0 241.86l80.59-80.59 5.57 5.57-80.55 80.66a175 175 0 0 0 241.86 0l-79.22-79.21 5.58-5.58 79.21 79.22a175 175 0 0 0 0-241.86z"/><circle id="_Ellipse_" data-name="&lt;Ellipse&gt;" class="cls-1" cx="175" cy="175" r="167.88"/><path class="cls-2" d="M127.71 133.29L53.5 59.08a167.91 167.91 0 0 0 0 231.84l74.21-74.21a63.06 63.06 0 0 1 0-83.42zM216.71 127.71l74.21-74.21a167.91 167.91 0 0 0-231.84 0l74.21 74.21a63.06 63.06 0 0 1 83.42 0zM133.29 222.29L59.08 296.5a167.91 167.91 0 0 0 231.84 0l-74.21-74.21a63.06 63.06 0 0 1-83.42 0zM222.29 216.71l74.21 74.21a167.91 167.91 0 0 0 0-231.84l-74.21 74.21a63.06 63.06 0 0 1 0 83.42z"/><path class="cls-3" d="M149.64 86.22a7.64 7.64 0 0 1-2.47.43 4.14 4.14 0 0 1-3-1 3.76 3.76 0 0 1-1.07-2.83c0-2.42 1.73-4 4.26-4a5.1 5.1 0 0 1 2 .36l-.3 1.13a4.24 4.24 0 0 0-1.75-.33 2.57 2.57 0 0 0-2.79 2.76 2.53 2.53 0 0 0 2.67 2.77 2.74 2.74 0 0 0 1.06-.16v-1.91h-1.36v-1.1h2.71zM154.23 86.57l-.09-.61a2.09 2.09 0 0 1-1.64.74 1.64 1.64 0 0 1-1.74-1.65c0-1.4 1.24-2.11 3.28-2.1v-.09c0-.36-.14-1-1.12-1a2.9 2.9 0 0 0-1.49.41l-.28-.91a4 4 0 0 1 2-.49 2.08 2.08 0 0 1 2.29 2.34v2a10.07 10.07 0 0 0 .07 1.33zm-.18-2.71c-1 0-1.94.2-1.94 1a.74.74 0 0 0 .8.79 1.12 1.12 0 0 0 1.09-.76.82.82 0 0 0 .05-.3zM156.9 82.68c0-.64 0-1.17-.05-1.65h1.21l.05.82a1.9 1.9 0 0 1 1.71-.95 1.6 1.6 0 0 1 1.53 1 2.08 2.08 0 0 1 .68-.7 1.89 1.89 0 0 1 1.11-.33c.93 0 1.86.63 1.86 2.4v3.27h-1.3v-3.03c0-.92-.31-1.47-1-1.47a1.08 1.08 0 0 0-1 .74 2.32 2.32 0 0 0-.06.47v3.32h-1.34v-3.21c0-.77-.31-1.32-1-1.32a1.1 1.1 0 0 0-1 .8 1.29 1.29 0 0 0-.08.45v3.28h-1.32zM168 79.48a.79.79 0 0 1-1.57 0 .75.75 0 0 1 .79-.76.74.74 0 0 1 .78.76zm-1.49 7.09V81H168v5.54zM169.63 86.57v-4.49h-.75V81h.75v-.26a2.36 2.36 0 0 1 2.68-2.41 3.23 3.23 0 0 1 1.53.36l-.31 1.06a2.5 2.5 0 0 0-1.22-.3A1.16 1.16 0 0 0 171 80.8v.2h3.31v5.54h-1.41v-4.46H171v4.49zM179.91 86.4a4 4 0 0 1-1.57.29 2.67 2.67 0 0 1-2.86-2.83 2.87 2.87 0 0 1 3.08-3 3.65 3.65 0 0 1 1.36.26l-.25 1a2.54 2.54 0 0 0-1.06-.21 1.79 1.79 0 0 0 0 3.58 2.6 2.6 0 0 0 1.1-.22zM184.06 86.57L184 86a2.06 2.06 0 0 1-1.64.74 1.64 1.64 0 0 1-1.74-1.65c0-1.4 1.24-2.11 3.29-2.1v-.09c0-.36-.15-1-1.13-1a2.9 2.9 0 0 0-1.49.41l-.27-.91a4 4 0 0 1 2-.49 2.08 2.08 0 0 1 2.29 2.34v2a8.46 8.46 0 0 0 .08 1.33zm-.18-2.71c-1 0-1.93.2-1.93 1a.73.73 0 0 0 .79.79 1.14 1.14 0 0 0 1.1-.76 1.08 1.08 0 0 0 0-.3zM188.27 79.45V81h1.33v1h-1.33v2.44c0 .67.18 1 .71 1a2.31 2.31 0 0 0 .55-.07v1.07a3 3 0 0 1-1 .14 1.65 1.65 0 0 1-1.21-.46 2.24 2.24 0 0 1-.43-1.55v-2.6h-.8V81h.8v-1.22zM192.15 79.48a.74.74 0 0 1-.8.75.74.74 0 0 1-.77-.75.79.79 0 0 1 1.57 0zm-1.49 7.09V81h1.41v5.54zM198.84 83.75a2.74 2.74 0 0 1-2.84 3 2.68 2.68 0 0 1-2.78-2.86 2.74 2.74 0 0 1 2.87-2.94 2.66 2.66 0 0 1 2.75 2.8zm-4.17.06c0 1.07.52 1.87 1.37 1.87s1.36-.78 1.36-1.9c0-.86-.39-1.85-1.35-1.85s-1.38.95-1.38 1.88zM200 82.68v-1.65h1.23l.07.83a2 2 0 0 1 1.76-1c1 0 2 .63 2 2.38v3.29h-1.4v-3.09c0-.8-.29-1.4-1.05-1.4a1.19 1.19 0 0 0-1.1.82 1.66 1.66 0 0 0-.05.46v3.25H200z"/><path class="cls-2" d="M148 163.22a13 13 0 0 1 2.31-.17 3.76 3.76 0 0 1 2.44.67 2.35 2.35 0 0 1 .81 1.83 2.49 2.49 0 0 1-.71 1.88 3.65 3.65 0 0 1-2.61.88 4 4 0 0 1-.74-.05v3.12H148zm1.5 3.85a3 3 0 0 0 .74.06c1.13 0 1.81-.55 1.81-1.52s-.64-1.41-1.68-1.41a3.82 3.82 0 0 0-.87.08zM157.93 171.38l-.1-.66a2.25 2.25 0 0 1-1.77.79 1.78 1.78 0 0 1-1.88-1.78c0-1.5 1.34-2.26 3.55-2.25v-.1c0-.39-.16-1-1.22-1a3.13 3.13 0 0 0-1.6.44l-.3-1a4.31 4.31 0 0 1 2.16-.53 2.23 2.23 0 0 1 2.47 2.51v2.16a9.94 9.94 0 0 0 .08 1.44zm-.19-2.92c-1.07 0-2.09.21-2.09 1.12a.79.79 0 0 0 .86.85 1.23 1.23 0 0 0 1.18-.82 1.32 1.32 0 0 0 .05-.33zM160.73 170a3.32 3.32 0 0 0 1.53.43c.66 0 1-.27 1-.66s-.25-.61-1-.87c-1.17-.41-1.66-1-1.65-1.74a2 2 0 0 1 2.26-1.88 3.41 3.41 0 0 1 1.58.36l-.29 1.06a2.8 2.8 0 0 0-1.27-.34c-.54 0-.83.26-.83.62s.28.57 1 .84c1.08.39 1.58.94 1.6 1.83 0 1.08-.85 1.86-2.43 1.86a3.79 3.79 0 0 1-1.82-.42zM165.84 170a3.32 3.32 0 0 0 1.53.43c.67 0 1-.27 1-.66s-.25-.61-1-.87c-1.17-.41-1.66-1-1.64-1.74a2 2 0 0 1 2.25-1.88 3.41 3.41 0 0 1 1.58.36l-.29 1.06a2.79 2.79 0 0 0-1.26-.34c-.54 0-.84.26-.84.62s.28.57 1 .84c1.07.39 1.58.94 1.59 1.83 0 1.08-.85 1.86-2.43 1.86a3.85 3.85 0 0 1-1.82-.42zM172.09 168.81a1.63 1.63 0 0 0 1.84 1.55 4.53 4.53 0 0 0 1.66-.27l.22 1a5.58 5.58 0 0 1-2.08.37 2.83 2.83 0 0 1-3.08-3 3 3 0 0 1 2.92-3.21c1.93 0 2.57 1.59 2.57 2.91a3.1 3.1 0 0 1 0 .63zm2.63-1.05a1.29 1.29 0 0 0-1.24-1.46 1.49 1.49 0 0 0-1.39 1.46zM177.35 167.18v-1.78h1.32l.07.9a2.15 2.15 0 0 1 1.9-1c1.05 0 2.12.67 2.12 2.56v3.55h-1.5V168c0-.86-.32-1.51-1.14-1.51a1.26 1.26 0 0 0-1.18.88 1.5 1.5 0 0 0-.06.49v3.51h-1.53zM189.83 165.4c0 .41-.05.9-.05 1.72v3.39a2.87 2.87 0 0 1-3.19 3.43 4.25 4.25 0 0 1-2.09-.48l.34-1.14a3.58 3.58 0 0 0 1.74.46 1.59 1.59 0 0 0 1.71-1.81v-.51a2 2 0 0 1-1.74.88 2.64 2.64 0 0 1-2.54-2.92 2.86 2.86 0 0 1 2.71-3.15 1.88 1.88 0 0 1 1.73.93l.07-.8zm-1.56 2.4a1.36 1.36 0 0 0-.05-.41 1.26 1.26 0 0 0-1.23-1c-.84 0-1.47.74-1.47 2 0 1 .52 1.84 1.46 1.84a1.28 1.28 0 0 0 1.23-.9 2.42 2.42 0 0 0 .06-.54zM192.46 168.81a1.63 1.63 0 0 0 1.84 1.55 4.53 4.53 0 0 0 1.66-.27l.22 1a5.59 5.59 0 0 1-2.09.37 2.82 2.82 0 0 1-3.07-3 3 3 0 0 1 2.92-3.21c1.93 0 2.57 1.59 2.57 2.91a3.1 3.1 0 0 1 0 .63zm2.63-1.05a1.29 1.29 0 0 0-1.24-1.46 1.48 1.48 0 0 0-1.39 1.46zM197.72 167.33c0-.81 0-1.39-.05-1.93H199v1.15h.05a1.77 1.77 0 0 1 1.63-1.28 1.29 1.29 0 0 1 .35 0v1.42a1.72 1.72 0 0 0-.44 0 1.34 1.34 0 0 0-1.35 1.14 3.23 3.23 0 0 0-.05.47v3.09h-1.51zM142.13 181.39a1.63 1.63 0 0 0 1.84 1.55 4.57 4.57 0 0 0 1.66-.27l.22 1a5.63 5.63 0 0 1-2.09.37 2.83 2.83 0 0 1-3.08-3 3 3 0 0 1 2.92-3.21c1.94 0 2.58 1.59 2.58 2.9a4.1 4.1 0 0 1-.05.64zm2.62-1a1.28 1.28 0 0 0-1.23-1.46 1.47 1.47 0 0 0-1.39 1.46zM147.39 179.76v-1.78h1.33l.07.9a2.13 2.13 0 0 1 1.9-1c1 0 2.12.67 2.12 2.56V184h-1.51v-3.38c0-.86-.32-1.51-1.14-1.51a1.27 1.27 0 0 0-1.16.89 1.5 1.5 0 0 0-.06.49V184h-1.52zM159.86 178c0 .41-.05.9-.05 1.72v3.38a2.87 2.87 0 0 1-3.19 3.44 4.18 4.18 0 0 1-2.08-.48l.33-1.14a3.62 3.62 0 0 0 1.74.45 1.59 1.59 0 0 0 1.72-1.8V183a2 2 0 0 1-1.74.88A2.66 2.66 0 0 1 154 181a2.86 2.86 0 0 1 2.71-3.15 1.88 1.88 0 0 1 1.73.93l.06-.8zm-1.56 2.39a1.75 1.75 0 0 0 0-.4 1.26 1.26 0 0 0-1.23-1c-.85 0-1.47.74-1.47 1.95 0 1 .51 1.84 1.46 1.84a1.28 1.28 0 0 0 1.22-.91 2.42 2.42 0 0 0 .06-.54zM164.79 184l-.1-.67a2.22 2.22 0 0 1-1.77.8 1.78 1.78 0 0 1-1.88-1.78c0-1.51 1.34-2.27 3.55-2.26V180c0-.4-.16-1.05-1.22-1.05a3.13 3.13 0 0 0-1.6.45l-.3-1a4.32 4.32 0 0 1 2.16-.52 2.23 2.23 0 0 1 2.47 2.51v2.16a9.94 9.94 0 0 0 .08 1.44zm-.19-3c-1.07 0-2.09.21-2.09 1.11a.79.79 0 0 0 .86.86 1.23 1.23 0 0 0 1.18-.82 1.32 1.32 0 0 0 0-.33zM173.12 178c0 .41-.05.9-.05 1.72v3.38a3.5 3.5 0 0 1-.88 2.72 3.46 3.46 0 0 1-2.31.72 4.25 4.25 0 0 1-2.09-.48l.34-1.14a3.59 3.59 0 0 0 1.74.45 1.59 1.59 0 0 0 1.72-1.8V183a2 2 0 0 1-1.74.88 2.65 2.65 0 0 1-2.54-2.92 2.86 2.86 0 0 1 2.71-3.15 1.88 1.88 0 0 1 1.73.93l.06-.8zm-1.56 2.39a1.33 1.33 0 0 0-.05-.4 1.26 1.26 0 0 0-1.22-1c-.85 0-1.48.74-1.48 1.95 0 1 .52 1.84 1.46 1.84a1.29 1.29 0 0 0 1.23-.91 2.42 2.42 0 0 0 .06-.54zM175.75 181.39a1.63 1.63 0 0 0 1.84 1.55 4.53 4.53 0 0 0 1.66-.27l.22 1a5.58 5.58 0 0 1-2.08.37 2.83 2.83 0 0 1-3.08-3 3 3 0 0 1 2.92-3.21c1.93 0 2.57 1.59 2.57 2.9a3.14 3.14 0 0 1-.05.64zm2.63-1a1.29 1.29 0 0 0-1.24-1.46 1.48 1.48 0 0 0-1.39 1.46zM181 179.76v-1.78h1.31l.06.88a2.09 2.09 0 0 1 1.84-1 1.73 1.73 0 0 1 1.66 1.1 2.31 2.31 0 0 1 .74-.75 2 2 0 0 1 1.2-.35c1 0 2 .67 2 2.59V184h-1.47v-3.3c0-1-.34-1.59-1.07-1.59a1.15 1.15 0 0 0-1.05.8 2 2 0 0 0-.08.5V184h-1.47v-3.5c0-.84-.33-1.43-1-1.43a1.2 1.2 0 0 0-1.08.86 1.33 1.33 0 0 0-.08.49V184H181zM192.48 181.39a1.63 1.63 0 0 0 1.84 1.55 4.57 4.57 0 0 0 1.66-.27l.22 1a5.63 5.63 0 0 1-2.09.37 2.83 2.83 0 0 1-3.08-3 3 3 0 0 1 2.92-3.21c1.94 0 2.58 1.59 2.58 2.9a4.1 4.1 0 0 1-.05.64zm2.63-1a1.29 1.29 0 0 0-1.24-1.46 1.47 1.47 0 0 0-1.39 1.46zM197.74 179.76c0-.69 0-1.26-.05-1.78H199l.07.9a2.13 2.13 0 0 1 1.9-1c1 0 2.12.67 2.12 2.56V184h-1.51v-3.38c0-.86-.32-1.51-1.14-1.51a1.27 1.27 0 0 0-1.18.89 1.5 1.5 0 0 0-.06.49V184h-1.52zM206.42 176.28V178h1.44v1.13h-1.44v2.64c0 .72.2 1.1.78 1.1a2.15 2.15 0 0 0 .59-.07v1.15a3.17 3.17 0 0 1-1.09.15 1.77 1.77 0 0 1-1.3-.49 2.38 2.38 0 0 1-.47-1.67v-2.81h-.86V178h.93v-1.35z"/><path class="cls-3" d="M269.06 203.41l-2.49-7.68h1.53l1 3.49c.29 1 .54 1.86.75 2.8.21-.91.48-1.85.79-2.78l1.11-3.51h1.49l-2.65 7.68zM275.33 196.31a.75.75 0 0 1-.8.76.74.74 0 0 1-.77-.76.79.79 0 0 1 1.57 0zm-1.49 7.1v-5.55h1.41v5.55zM276.75 199.65v-1.79h1.22v1.06a1.65 1.65 0 0 1 1.51-1.18 1.61 1.61 0 0 1 .33 0v1.32a2.18 2.18 0 0 0-.41 0 1.23 1.23 0 0 0-1.25 1 2.81 2.81 0 0 0-.05.44v2.87h-1.4zM282.67 196.28v1.58H284v1h-1.34v2.45c0 .67.19 1 .72 1a1.89 1.89 0 0 0 .55-.07v1.07a3.07 3.07 0 0 1-1 .14 1.6 1.6 0 0 1-1.21-.46 2.15 2.15 0 0 1-.43-1.54v-2.61h-.8v-1h.8v-1.25zM290 201.74v1.67h-1.23l-.06-.85a2 2 0 0 1-1.77 1c-1 0-1.94-.6-1.94-2.41v-3.26h1.4v3c0 .92.3 1.51 1 1.51a1.18 1.18 0 0 0 1.07-.75 1.37 1.37 0 0 0 .08-.43v-3.35H290zM294.66 203.41l-.09-.62a2.06 2.06 0 0 1-1.64.74 1.64 1.64 0 0 1-1.74-1.65c0-1.4 1.24-2.11 3.29-2.09v-.09c0-.37-.15-1-1.13-1a2.9 2.9 0 0 0-1.49.41l-.27-.91a4 4 0 0 1 2-.49 2.07 2.07 0 0 1 2.29 2.33v2a8.6 8.6 0 0 0 .08 1.34zm-.18-2.71c-1 0-1.93.19-1.93 1a.73.73 0 0 0 .79.8 1.14 1.14 0 0 0 1.1-.76 1.2 1.2 0 0 0 0-.31zM297.33 195.32h1.41v8.09h-1.41zM265.28 215.08l-.09-.61a2.09 2.09 0 0 1-1.64.74 1.65 1.65 0 0 1-1.75-1.65c0-1.4 1.25-2.11 3.29-2.09v-.1c0-.36-.14-1-1.12-1a2.9 2.9 0 0 0-1.49.41l-.28-.91a4 4 0 0 1 2-.49 2.07 2.07 0 0 1 2.28 2.33v2a9.88 9.88 0 0 0 .08 1.33zm-.18-2.7c-1 0-1.94.19-1.94 1a.74.74 0 0 0 .8.8 1.13 1.13 0 0 0 1.09-.76.91.91 0 0 0 .05-.31zM267.88 213.8a3.16 3.16 0 0 0 1.42.4c.62 0 .89-.25.89-.62s-.23-.57-.91-.81c-1.08-.37-1.54-1-1.53-1.61 0-1 .81-1.74 2.1-1.74a3.21 3.21 0 0 1 1.46.33l-.27 1a2.44 2.44 0 0 0-1.17-.32c-.5 0-.77.24-.77.58s.26.52 1 .77c1 .37 1.47.88 1.48 1.7 0 1-.78 1.73-2.25 1.73a3.58 3.58 0 0 1-1.69-.39zM272.63 213.8a3.13 3.13 0 0 0 1.42.4c.61 0 .89-.25.89-.62s-.23-.57-.91-.81c-1.09-.37-1.54-1-1.53-1.61 0-1 .81-1.74 2.1-1.74a3.25 3.25 0 0 1 1.46.33l-.27 1a2.44 2.44 0 0 0-1.17-.32c-.5 0-.78.24-.78.58s.27.52 1 .77c1 .37 1.47.88 1.48 1.7 0 1-.78 1.73-2.25 1.73a3.58 3.58 0 0 1-1.69-.39zM278.93 208a.79.79 0 0 1-1.57 0 .75.75 0 0 1 .79-.76.74.74 0 0 1 .78.76zm-1.49 7.09v-5.54h1.41v5.54zM280.29 213.8a3.16 3.16 0 0 0 1.42.4c.62 0 .89-.25.89-.62s-.23-.57-.91-.81c-1.08-.37-1.54-1-1.53-1.61 0-1 .81-1.74 2.1-1.74a3.29 3.29 0 0 1 1.47.33l-.28 1a2.44 2.44 0 0 0-1.17-.32c-.5 0-.77.24-.77.58s.26.52 1 .77c1 .37 1.47.88 1.48 1.7 0 1-.78 1.73-2.25 1.73a3.53 3.53 0 0 1-1.68-.39zM286.71 208v1.58H288v1.05h-1.33V213c0 .67.18 1 .72 1a1.76 1.76 0 0 0 .61 0v1.07a3.09 3.09 0 0 1-1 .14 1.59 1.59 0 0 1-1.2-.46 2.18 2.18 0 0 1-.44-1.54v-2.61h-.79v-1.05h.79v-1.25zM292.22 215.08l-.09-.61a2.09 2.09 0 0 1-1.64.74 1.65 1.65 0 0 1-1.75-1.65c0-1.4 1.25-2.11 3.29-2.09v-.1c0-.36-.14-1-1.12-1a2.9 2.9 0 0 0-1.49.41l-.28-.91a4 4 0 0 1 2-.49 2.07 2.07 0 0 1 2.28 2.33v2a9.88 9.88 0 0 0 .08 1.33zm-.18-2.7c-1 0-1.94.19-1.94 1a.74.74 0 0 0 .8.8 1.13 1.13 0 0 0 1.09-.76.91.91 0 0 0 .05-.31zM294.89 211.19c0-.64 0-1.17-.05-1.65h1.23l.07.83a2 2 0 0 1 1.77-1c1 0 2 .62 2 2.38v3.28h-1.4V212c0-.79-.3-1.4-1.06-1.4a1.19 1.19 0 0 0-1.1.82 1.66 1.66 0 0 0-.05.46v3.25h-1.41zM303 208v1.58h1.33v1.05H303V213c0 .67.18 1 .71 1a1.84 1.84 0 0 0 .55-.07V215a3 3 0 0 1-1 .14 1.63 1.63 0 0 1-1.21-.46 2.23 2.23 0 0 1-.43-1.54v-2.61h-.8v-1.05h.8v-1.25zM148.05 309.51a31 31 0 0 1-3-1 1.8 1.8 0 0 0-.5-.11 3.55 3.55 0 0 1-3.35-3.9c0-2.36 1.46-4 3.66-4s3.54 1.71 3.54 3.87a3.54 3.54 0 0 1-2 3.54v.05c.66.18 1.4.34 2 .47zm-1.13-5.09c0-1.47-.72-2.81-2.1-2.81s-2.16 1.33-2.14 2.87.77 2.8 2.11 2.8 2.13-1.28 2.13-2.86zM154.56 306.62c0 .66 0 1.21.05 1.66h-1.23l-.07-.84a2 2 0 0 1-1.78 1c-1 0-1.93-.61-1.93-2.42v-3.25h1.4v3c0 .93.29 1.52 1 1.52a1.18 1.18 0 0 0 1.07-.75 1.23 1.23 0 0 0 .08-.44v-3.34h1.4zM157.07 305.9a1.51 1.51 0 0 0 1.71 1.44 4.14 4.14 0 0 0 1.53-.25l.21 1a5.12 5.12 0 0 1-1.94.34 2.62 2.62 0 0 1-2.86-2.8 2.75 2.75 0 0 1 2.71-3 2.41 2.41 0 0 1 2.39 2.7 3.85 3.85 0 0 1 0 .59zm2.43-1a1.18 1.18 0 0 0-1.15-1.35 1.36 1.36 0 0 0-1.28 1.35zM166.92 306.62v1.66h-1.23l-.07-.84a2 2 0 0 1-1.77 1c-1 0-1.94-.61-1.94-2.42v-3.25h1.4v3c0 .93.3 1.52 1 1.52a1.19 1.19 0 0 0 1.07-.75 1.5 1.5 0 0 0 .08-.44v-3.34h1.4zM169.42 305.9a1.52 1.52 0 0 0 1.71 1.44 4.2 4.2 0 0 0 1.54-.25l.2 1a5.1 5.1 0 0 1-1.93.34 2.62 2.62 0 0 1-2.86-2.8 2.74 2.74 0 0 1 2.71-3 2.41 2.41 0 0 1 2.39 2.7 2.73 2.73 0 0 1-.05.59zm2.44-1a1.19 1.19 0 0 0-1.15-1.35 1.37 1.37 0 0 0-1.29 1.35zM176.62 308.28v-8.08h1.4v3.3a2 2 0 0 1 1.77-.89c1.36 0 2.32 1.13 2.31 2.81 0 2-1.26 3-2.51 3a1.93 1.93 0 0 1-1.76-1l-.07.83zm1.44-2.29a1.66 1.66 0 0 0 0 .33 1.29 1.29 0 0 0 1.24 1c.88 0 1.41-.7 1.41-1.82s-.47-1.77-1.4-1.77a1.31 1.31 0 0 0-1.24 1 1.84 1.84 0 0 0-.05.36zM188.29 306.62v1.66h-1.19l-.06-.84a2 2 0 0 1-1.77 1c-1 0-1.94-.61-1.94-2.42v-3.25h1.4v3c0 .93.3 1.52 1 1.52a1.18 1.18 0 0 0 1.07-.75 1.5 1.5 0 0 0 .08-.44v-3.34h1.4zM189.74 307a3.13 3.13 0 0 0 1.42.39c.61 0 .89-.25.89-.61s-.23-.57-.91-.81c-1.09-.38-1.54-1-1.53-1.62a1.86 1.86 0 0 1 2.1-1.74 3.25 3.25 0 0 1 1.46.33l-.27 1a2.56 2.56 0 0 0-1.17-.32c-.5 0-.78.24-.78.58s.27.53 1 .78c1 .36 1.47.87 1.48 1.7 0 1-.78 1.72-2.25 1.72a3.58 3.58 0 0 1-1.69-.38zM196.16 301.16v1.58h1.33v1.05h-1.33v2.44c0 .67.18 1 .71 1a2.23 2.23 0 0 0 .55-.07v1.07a3.08 3.08 0 0 1-1 .13 1.66 1.66 0 0 1-1.21-.45 2.24 2.24 0 0 1-.43-1.55v-2.6H194v-1.05h.8v-1.25zM199.47 305.9a1.51 1.51 0 0 0 1.71 1.44 4.11 4.11 0 0 0 1.53-.25l.21 1a5.12 5.12 0 0 1-1.94.34 2.62 2.62 0 0 1-2.85-2.8 2.74 2.74 0 0 1 2.71-3 2.41 2.41 0 0 1 2.39 2.7 3.57 3.57 0 0 1 0 .59zm2.44-1a1.19 1.19 0 0 0-1.15-1.35 1.37 1.37 0 0 0-1.29 1.35zM204.36 304.52c0-.75 0-1.28-.05-1.78h1.22v1.06h.05a1.65 1.65 0 0 1 1.51-1.19 1.11 1.11 0 0 1 .33 0V304a1.53 1.53 0 0 0-.41-.05 1.23 1.23 0 0 0-1.21 1.05 2.74 2.74 0 0 0 0 .43v2.87h-1.4zM43.42 199.26h1.4v6.5H48v1.17h-4.58zM54.12 204.11a2.74 2.74 0 0 1-2.84 2.94 2.68 2.68 0 0 1-2.78-2.85 2.74 2.74 0 0 1 2.87-2.94 2.66 2.66 0 0 1 2.75 2.85zm-4.17 0c0 1.07.52 1.88 1.37 1.88s1.36-.78 1.36-1.9c0-.86-.39-1.85-1.35-1.85s-1.33 1-1.33 1.92zM56.06 201.39l1 3c.12.34.23.76.31 1.08l.3-1.09.86-3h1.51l-1.39 3.78c-.76 2.07-1.28 3-1.94 3.56a2.81 2.81 0 0 1-1.47.72l-.24-1.18a2.5 2.5 0 0 0 .82-.39 2.54 2.54 0 0 0 .76-.87.63.63 0 0 0 .09-.25.59.59 0 0 0-.08-.28l-2-5.08zM63.93 206.93l-.09-.62a2 2 0 0 1-1.64.74 1.64 1.64 0 0 1-1.74-1.65c0-1.4 1.24-2.1 3.29-2.09v-.09c0-.37-.15-1-1.13-1a3 3 0 0 0-1.49.41l-.27-.91a4 4 0 0 1 2-.49 2.07 2.07 0 0 1 2.29 2.33v2a8.46 8.46 0 0 0 .08 1.33zm-.18-2.71c-1 0-1.94.19-1.94 1a.73.73 0 0 0 .8.79 1.14 1.14 0 0 0 1.09-.76 1.18 1.18 0 0 0 0-.31zM66.59 198.85H68v8.08h-1.41zM71.12 199.8v1.59h1.34v1h-1.34v2.45c0 .67.19 1 .72 1a2.31 2.31 0 0 0 .55-.07v1.07a3.08 3.08 0 0 1-1 .13 1.65 1.65 0 0 1-1.21-.45 2.24 2.24 0 0 1-.43-1.55v-2.61H69v-1h.8v-1.26zM74.47 201.39l1 3c.12.34.23.76.31 1.08.09-.32.19-.73.29-1.09l.87-3h1.5l-1.39 3.78c-.76 2.07-1.27 3-1.94 3.56a2.83 2.83 0 0 1-1.46.72l-.32-1.19a2.41 2.41 0 0 0 .82-.39A2.44 2.44 0 0 0 75 207a.51.51 0 0 0 .09-.25.59.59 0 0 0-.08-.28l-2-5.08zM34.13 218.61L34 218a2 2 0 0 1-1.64.74 1.64 1.64 0 0 1-1.74-1.65c0-1.4 1.24-2.1 3.29-2.09v-.09c0-.37-.15-1-1.13-1a2.92 2.92 0 0 0-1.49.41l-.27-.91a4 4 0 0 1 2-.49 2.07 2.07 0 0 1 2.29 2.33v2a8.46 8.46 0 0 0 .08 1.33zM34 215.9c-1 0-1.93.19-1.93 1a.73.73 0 0 0 .79.79 1.05 1.05 0 0 0 1.14-1.03zM36.8 214.72v-1.66H38l.07.84a2 2 0 0 1 1.76-1c1 0 2 .63 2 2.38v3.29h-1.4v-3.13c0-.8-.3-1.4-1.06-1.4a1.17 1.17 0 0 0-1.09.82 1.26 1.26 0 0 0-.06.45v3.26H36.8zM48.42 210.53v8.08h-1.2l-.06-.88a2 2 0 0 1-1.81 1c-1.32 0-2.37-1.12-2.37-2.83 0-1.86 1.15-3 2.48-3a1.77 1.77 0 0 1 1.56.73v-3.14zM47 215.38a2.31 2.31 0 0 0 0-.37 1.23 1.23 0 0 0-1.21-1c-.9 0-1.4.8-1.4 1.83s.5 1.76 1.39 1.76a1.24 1.24 0 0 0 1.21-1 1.84 1.84 0 0 0 0-.41zM52.29 214.85v-1.79h1.22v1.06a1.65 1.65 0 0 1 1.51-1.18 1.61 1.61 0 0 1 .33 0v1.32a2.18 2.18 0 0 0-.41 0 1.23 1.23 0 0 0-1.25 1.06 2.63 2.63 0 0 0 0 .43v2.87h-1.4zM57.23 216.23a1.5 1.5 0 0 0 1.7 1.43 4.16 4.16 0 0 0 1.54-.25l.21 1a5.32 5.32 0 0 1-1.94.34 2.62 2.62 0 0 1-2.86-2.8 2.75 2.75 0 0 1 2.71-3 2.41 2.41 0 0 1 2.39 2.7 4 4 0 0 1 0 .59zm2.43-1a1.19 1.19 0 0 0-1.15-1.35 1.36 1.36 0 0 0-1.28 1.35zM62.92 213.06l.58 2.52c.13.59.25 1.2.35 1.8.11-.6.29-1.22.45-1.79l.72-2.53h1.14l.69 2.46c.17.65.32 1.26.45 1.86.09-.6.21-1.21.36-1.86l.62-2.46h1.42l-1.7 5.55h-1.33l-.67-2.26c-.17-.58-.29-1.1-.42-1.77a13.6 13.6 0 0 1-.42 1.77l-.71 2.26h-1.3l-1.64-5.55zM73.66 218.61l-.09-.62a2 2 0 0 1-1.64.74 1.64 1.64 0 0 1-1.74-1.65c0-1.4 1.24-2.1 3.29-2.09v-.09c0-.37-.15-1-1.13-1a3 3 0 0 0-1.49.41l-.27-.91a4 4 0 0 1 2-.49 2.07 2.07 0 0 1 2.29 2.33v2a8.46 8.46 0 0 0 .08 1.33zm-.19-2.71c-1 0-1.93.19-1.93 1a.73.73 0 0 0 .8.79 1.05 1.05 0 0 0 1.13-1.07zM76.32 214.85v-1.79h1.18v1.06a1.65 1.65 0 0 1 1.51-1.18 1.61 1.61 0 0 1 .33 0v1.32a2.18 2.18 0 0 0-.41 0 1.23 1.23 0 0 0-1.25 1.06 2.55 2.55 0 0 0 0 .43v2.87h-1.4zM85.38 210.53v6.52c0 .57 0 1.18.05 1.56h-1.25l-.06-.88a2 2 0 0 1-1.81 1c-1.32 0-2.37-1.12-2.37-2.83 0-1.86 1.15-3 2.48-3a1.76 1.76 0 0 1 1.56.73v-3.14zM84 215.38a2.31 2.31 0 0 0 0-.37 1.22 1.22 0 0 0-1.21-1c-.9 0-1.4.8-1.4 1.83s.5 1.76 1.39 1.76a1.24 1.24 0 0 0 1.21-1 1.84 1.84 0 0 0 0-.41zM86.82 217.32a3 3 0 0 0 1.42.4c.62 0 .89-.25.89-.61s-.23-.57-.91-.81c-1.08-.38-1.54-1-1.52-1.62a1.85 1.85 0 0 1 2.09-1.74 3.29 3.29 0 0 1 1.47.33l-.27 1a2.48 2.48 0 0 0-1.18-.32c-.5 0-.77.24-.77.58s.26.53 1 .78c1 .36 1.46.87 1.48 1.69 0 1-.79 1.73-2.26 1.73a3.66 3.66 0 0 1-1.68-.38zM28.27 226.39c0-.63 0-1.17-.05-1.65h1.21l.05.82a1.91 1.91 0 0 1 1.71-.94 1.6 1.6 0 0 1 1.53 1 2.27 2.27 0 0 1 .69-.69 1.81 1.81 0 0 1 1.11-.33c.92 0 1.86.62 1.86 2.4v3.27h-1.31v-3.06c0-.93-.32-1.47-1-1.47a1.07 1.07 0 0 0-1 .74 2.14 2.14 0 0 0-.07.52v3.33h-1.33v-3.21c0-.78-.31-1.32-1-1.32a1.1 1.1 0 0 0-1 .79 1.17 1.17 0 0 0-.08.46v3.28h-1.32zM41 230.29l-.09-.62a2.09 2.09 0 0 1-1.64.74 1.65 1.65 0 0 1-1.75-1.65c0-1.4 1.24-2.1 3.29-2.09v-.09c0-.37-.14-1-1.12-1a2.9 2.9 0 0 0-1.49.41l-.28-.91a4 4 0 0 1 2-.49 2.07 2.07 0 0 1 2.3 2.41v2a9.88 9.88 0 0 0 .08 1.33zm-.18-2.71c-1 0-1.94.19-1.94 1a.74.74 0 0 0 .8.8 1.12 1.12 0 0 0 1.09-.76.87.87 0 0 0 0-.31zM43.71 226.39c0-.63 0-1.17-.05-1.65h1.23l.07.83a2 2 0 0 1 1.77-.95c1 0 2 .62 2 2.38v3.29h-1.4v-3.13c0-.8-.3-1.4-1.06-1.4a1.19 1.19 0 0 0-1.1.82 1.55 1.55 0 0 0-.05.45v3.26h-1.41zM53.34 230.29l-.09-.62a2.06 2.06 0 0 1-1.64.74 1.65 1.65 0 0 1-1.74-1.65c0-1.4 1.24-2.1 3.29-2.09v-.09c0-.37-.15-1-1.13-1a3 3 0 0 0-1.49.41l-.27-.91a4 4 0 0 1 2-.49 2.07 2.07 0 0 1 2.25 2.41v2a8.46 8.46 0 0 0 .08 1.33zm-.18-2.71c-1 0-1.94.19-1.94 1a.74.74 0 0 0 .8.8 1.14 1.14 0 0 0 1.09-.76 1.18 1.18 0 0 0 0-.31zM61.07 224.74v4.74a3.2 3.2 0 0 1-.87 2.52 3.14 3.14 0 0 1-2.14.68 3.88 3.88 0 0 1-1.93-.45l.31-1.06a3.26 3.26 0 0 0 1.61.42 1.47 1.47 0 0 0 1.6-1.67v-.48a1.86 1.86 0 0 1-1.61.82 2.46 2.46 0 0 1-2.36-2.71 2.65 2.65 0 0 1 2.52-2.92 1.74 1.74 0 0 1 1.6.86l.06-.74zM59.62 227a1.5 1.5 0 0 0 0-.37 1.17 1.17 0 0 0-1.14-.9c-.79 0-1.37.68-1.37 1.81 0 .94.48 1.71 1.36 1.71a1.21 1.21 0 0 0 1.14-.85 2.65 2.65 0 0 0 0-.5zM63.52 227.91c0 1 .82 1.43 1.71 1.43a4.14 4.14 0 0 0 1.53-.25l.21 1a5.32 5.32 0 0 1-1.94.34 2.62 2.62 0 0 1-2.86-2.8 2.75 2.75 0 0 1 2.71-3 2.41 2.41 0 0 1 2.39 2.7 4 4 0 0 1 0 .59zm2.43-1a1.19 1.19 0 0 0-1.15-1.36 1.37 1.37 0 0 0-1.28 1.36zM68.4 226.39v-1.65h1.2l.06.82a1.91 1.91 0 0 1 1.7-.94 1.6 1.6 0 0 1 1.54 1 2.24 2.24 0 0 1 .68-.69 1.86 1.86 0 0 1 1.12-.33c.92 0 1.86.62 1.86 2.4v3.27h-1.35v-3.06c0-.93-.32-1.47-1-1.47a1.07 1.07 0 0 0-1 .74 2.11 2.11 0 0 0-.07.46v3.33h-1.33v-3.21c0-.78-.31-1.32-1-1.32a1.09 1.09 0 0 0-1 .79 1.17 1.17 0 0 0-.08.46v3.28H68.4zM79.05 227.91c0 1 .82 1.43 1.71 1.43a4.11 4.11 0 0 0 1.53-.25l.21 1a5.32 5.32 0 0 1-1.94.34 2.61 2.61 0 0 1-2.85-2.8 2.74 2.74 0 0 1 2.71-3 2.42 2.42 0 0 1 2.39 2.7 3.69 3.69 0 0 1 0 .59zm2.44-1a1.2 1.2 0 0 0-1.15-1.36 1.38 1.38 0 0 0-1.29 1.36zM83.93 226.39v-1.65h1.23l.07.83a2 2 0 0 1 1.76-.95c1 0 2 .62 2 2.38v3.29h-1.4v-3.13c0-.8-.29-1.4-1-1.4a1.19 1.19 0 0 0-1.1.82 1.55 1.55 0 0 0-.05.45v3.26h-1.51zM92 223.16v1.58h1.33v1H92v2.45c0 .67.18 1 .71 1a1.89 1.89 0 0 0 .55-.07v1.07a3 3 0 0 1-1 .14 1.65 1.65 0 0 1-1.21-.45 2.24 2.24 0 0 1-.43-1.55v-2.61h-.8v-1h.8v-1.25z"/><path class="cls-4" d="M288.38 140.38c-1.85-1.87-4.74-2.86-8.33-2.86a14.45 14.45 0 0 0-5.18.87 3.24 3.24 0 0 1 .14.94 3.27 3.27 0 0 1-4.68 3 10.53 10.53 0 0 0-1.11 4.44h21.66a9.28 9.28 0 0 0-2.5-6.39z"/><path class="cls-4" d="M271.23 140.92a1.66 1.66 0 0 0 2.17-1.59 1.79 1.79 0 0 0 0-.23 1.67 1.67 0 0 0-1-1.29 1.57 1.57 0 0 0-.68-.15 1.67 1.67 0 0 0-1.67 1.67 1.42 1.42 0 0 0 .06.42 1.66 1.66 0 0 0 1.12 1.17zM293.37 148.34h-26.63a1.69 1.69 0 0 0-1.69 1.69v8.86a1.69 1.69 0 0 0 1.29 1.64l8.29 2a4.18 4.18 0 0 0 2-.58l1.29-.77a4.12 4.12 0 0 1 4.25 0l1.29.77a4.15 4.15 0 0 0 2 .58l8.29-2a1.69 1.69 0 0 0 1.3-1.64V150a1.69 1.69 0 0 0-1.68-1.66zm-25.83 9.18h-1.61V150h1.61zm15-6.69h-5v-1.6h5zm11.62 6.69h-1.61V150h1.61z"/><path class="cls-3" d="M293.37 146.73h-.88a10.8 10.8 0 0 0-3-7.48c-2.16-2.18-5.44-3.34-9.47-3.34a15.86 15.86 0 0 0-6 1.08 3.27 3.27 0 0 0-4.95 4.25 12 12 0 0 0-1.46 5.49h-.87a3.3 3.3 0 0 0-3.3 3.3v8.85a3.29 3.29 0 0 0 2.52 3.21l8.39 2h.19a5.66 5.66 0 0 0 2.92-.81l1.29-.77a2.5 2.5 0 0 1 2.6 0l1.29.77a5.66 5.66 0 0 0 2.92.81h.1l8.48-2.06a3.29 3.29 0 0 0 2.53-3.21V150a3.3 3.3 0 0 0-3.3-3.27zm-23.31-7.4a1.67 1.67 0 0 1 1.67-1.67 1.57 1.57 0 0 1 .68.15 1.67 1.67 0 0 1 1 1.29 1.79 1.79 0 0 1 0 .23 1.67 1.67 0 0 1-3.28.42 1.42 1.42 0 0 1-.07-.42zm.27 3a3.27 3.27 0 0 0 4.54-3.9 14.45 14.45 0 0 1 5.18-.87c3.59 0 6.48 1 8.33 2.86a9.28 9.28 0 0 1 2.5 6.35h-21.66a10.53 10.53 0 0 1 1.11-4.48zm24.73 16.6a1.69 1.69 0 0 1-1.3 1.64l-8.29 2a4.15 4.15 0 0 1-2-.58l-1.29-.77a4.12 4.12 0 0 0-4.25 0l-1.29.77a4.18 4.18 0 0 1-2 .58l-8.29-2a1.69 1.69 0 0 1-1.29-1.64V150a1.69 1.69 0 0 1 1.69-1.69h26.63a1.69 1.69 0 0 1 1.69 1.69zM289.18 170a6.24 6.24 0 0 0 2.49-5v-.83h-1.6v.83c0 1.8-.71 2.72-2.3 4.12-1.16 1-2.54 2.05-3.75 2.93a6.69 6.69 0 0 1-7.94 0c-1.2-.88-2.59-1.92-3.74-2.93-1.59-1.4-2.3-2.32-2.3-4.12v-.83h-1.61v.83a6.22 6.22 0 0 0 2.5 5v5.81h1.6v-4.45c.87.7 1.78 1.37 2.6 2a8.32 8.32 0 0 0 9.84 0c.82-.61 1.73-1.28 2.6-2v6.42h-2.95l3.75 6.51 3.76-6.51h-2.95z"/><path class="cls-3" d="M277.56 149.23h4.99v1.61h-4.99zM265.93 150.03h1.61v7.49h-1.61zM292.56 150.03h1.61v7.49h-1.61z"/><path class="cls-4" d="M173.5 258.34h3.69v3.69h-3.69zM165.64 284.52h3.69v3.69h-3.69zM182.51 274.04h3.69v3.69h-3.69zM160.4 293.44h3.69v-3.69h-3.69v3.69zM173.5 268.81h3.69v3.69h-3.69zM173.5 278.89h3.69v3.69h-3.69zM160.4 282.97h3.69v-3.69h-3.69v3.69zM165.64 256.8h3.69v-3.69h-3.69v3.69zM160.4 247.87v3.69h3.69v-3.69h-3.69zM164.09 272.5v-3.69h-3.69v3.69h3.69zM160.4 262.03h3.69v-3.69h-3.69v3.69zM165.64 274.04h3.69v3.69h-3.69zM165.64 263.58h3.69v3.69h-3.69zM182.51 263.85h3.69v3.69h-3.69zM200.35 269.75l.78-.65c0-.11-.09-.22-.14-.33l-1 .09-.26-.37a4.57 4.57 0 0 0-1.16-1.16l-.37-.25.1-1-.33-.13-.65.79-.45-.08a4.07 4.07 0 0 0-1.63 0l-.45.08-.66-.79-.32.13.1 1-.38.25a4.69 4.69 0 0 0-1.15 1.16l-.26.37-1-.09c-.05.11-.09.22-.13.33l.77.65-.08.44a4 4 0 0 0-.07.77 3.91 3.91 0 0 0 .07.76l.08.44-.77.65c0 .11.08.22.13.33l1-.09.26.37a4.38 4.38 0 0 0 1.15 1.16l.38.25-.1 1 .32.13.66-.79.45.08a4.07 4.07 0 0 0 1.63 0l.45-.08.65.79.33-.13-.1-1 .37-.25a4.41 4.41 0 0 0 1.16-1.16l.26-.37 1 .09.13-.33-.78-.65.09-.44a4.22 4.22 0 0 0 0-1.53zm-4.3 4.3a3.15 3.15 0 1 1 3.15-3.15 3.15 3.15 0 0 1-3.15 3.15z"/><path class="cls-3" d="M202.06 271.62l-1.34.19v-.09h-.17v-.76a5 5 0 0 1-.07.77l-.09.44.78.65-.13.33-1-.09-.26.37a4.41 4.41 0 0 1-1.16 1.16l-.37.25.1 1-.35.16-.65-.79-.45.08a4.07 4.07 0 0 1-1.63 0l-.45-.08-.66.79-.32-.13.1-1-.38-.25a4.38 4.38 0 0 1-1.15-1.16l-.26-.37-1 .09c-.05-.11-.09-.22-.13-.33l.77-.65-.08-.44a3.91 3.91 0 0 1-.07-.76v.76h-.77v-.08l-.12.07-.65-.76v.62l-.84.7.13.48a7.35 7.35 0 0 0 .64 1.59l.25.43 1.15-.1a5.53 5.53 0 0 0 .91.9l-.11 1.16.43.25a6.65 6.65 0 0 0 1.58.65l.48.14.74-.9a5.57 5.57 0 0 0 1.29 0l.74.9.48-.14a7 7 0 0 0 1.58-.65l.43-.25-.11-1.16a5.53 5.53 0 0 0 .91-.9l1.15.1.24-.43a6.73 6.73 0 0 0 .65-1.59l.13-.48-.84-.7z"/><path class="cls-3" d="M190.82 270.13v.06h.76v.76a4 4 0 0 1 .07-.77l.08-.44-.77-.65c0-.11.08-.22.13-.33l1 .09.26-.37a4.69 4.69 0 0 1 1.15-1.16l.38-.25-.1-1 .32-.13.66.79.45-.08a4.07 4.07 0 0 1 1.63 0l.45.08.65-.79.33.13-.1 1 .37.25a4.57 4.57 0 0 1 1.16 1.16l.26.37 1-.09c0 .11.1.22.14.33l-.78.65.09.44a5 5 0 0 1 .07.76v-.76h.76v-.06h.78v1.44-1.23l.84-.7-.13-.47a6.56 6.56 0 0 0-.65-1.59l-.24-.44-1.15.1a6 6 0 0 0-.91-.9l.11-1.16-.43-.25a6.65 6.65 0 0 0-1.58-.65l-.48-.13-.75.89a5.48 5.48 0 0 0-1.28 0l-.74-.89-.49.13a6.75 6.75 0 0 0-1.57.65l-.43.25.11 1.16a6 6 0 0 0-.91.9l-1.15-.1-.24.44a6.56 6.56 0 0 0-.65 1.59l-.13.47.84.7v.67-.76z"/><path class="cls-3" d="M202.06 270.13h-.78v.12-.06h-.76l-.01.76v.01l.02.76h.17l.02.09 1.34-.19v-1.49zM190.82 271.64v.08h.77l.01-.76v-.01l-.02-.76h-.76v-.06l-.77.06v.76l.65.76.12-.07zM160.4 251.56v-3.69h3.69v3.69h1.55v-5.23h-6.78v6.78h5.23v-1.55h-3.69z"/><path class="cls-3" d="M165.64 253.11h3.69v3.69h-3.69v1.54h5.23v-6.78h-5.23v1.55zM164.09 253.11h1.54v3.69h-1.54zM165.64 251.56h-1.55v1.55h1.55v-1.55zM172 263.58h6.77v-6.78H172zm1.54-5.24h3.69V262h-3.73zM181 269.09h6.78v-6.78H181zm1.55-5.24h3.68v3.69h-3.68zM160.4 262.03v-3.69h3.69v-1.54h-5.23v6.78h5.23v-1.55h-3.69zM164.09 258.34h1.54v3.69h-1.54z"/><path class="cls-3" d="M165.64 256.8h-1.55v1.54h1.55v-1.54zM164.09 263.58h1.54v3.69h-1.54zM169.33 263.58v3.68h-3.69v1.55h5.23v-6.78h-5.23v1.55h3.69zM164.09 262.03v1.55h1.55v-1.55h-1.55z"/><path class="cls-3" d="M164.09 267.26h-5.23v6.79h5.23v-1.55h-3.69v-3.69h3.69v3.69h1.55v-3.69h-1.55v-1.55z"/><path class="cls-3" d="M164.09 267.27h1.54v1.54h-1.54z"/><rect class="cls-3" x="164.09" y="272.5"/><path class="cls-3" d="M169.33 274.05v3.69h-3.69v1.54h5.23v-6.78h-5.23v1.55h3.69zM164.09 274.04h1.54v3.69h-1.54z"/><path class="cls-3" d="M164.09 272.5v1.55h1.55v-1.55h-1.55zM172 274h6.77v-6.77H172zm1.54-5.23h3.69v3.69h-3.73zM160.4 282.97v-3.69h3.69v-1.54h-5.23v6.77h5.23v-1.54h-3.69zM164.09 279.28h1.54v3.69h-1.54z"/><path class="cls-3" d="M164.09 277.74v1.54h1.55v-1.54h-1.55zM164.09 293.44h-3.69v-3.69h3.69v-1.55h-5.23v6.78h6.78v-5.23h-1.55v3.69zM169.33 284.51v3.69h-3.69v1.55h5.23v-6.78h-5.23v1.54h3.69z"/><path class="cls-3" d="M164.09 284.52h1.54v3.69h-1.54zM164.09 282.97v1.54h1.55v-1.54h-1.55z"/><path class="cls-3" d="M164.09 288.2v1.55h1.55v-1.55h-1.55zM172 284.13h6.77v-6.78H172zm1.54-5.24h3.69v3.69h-3.73zM181 279.28h6.78v-6.78H181zm1.55-5.24h3.68v3.7h-3.68zM196.05 267.75a3.15 3.15 0 1 0 3.15 3.15 3.15 3.15 0 0 0-3.15-3.15zm0 5.53a2.38 2.38 0 1 1 2.38-2.38 2.38 2.38 0 0 1-2.38 2.38z"/><path class="cls-3" d="M196.05 268.52a2.38 2.38 0 1 0 2.38 2.38 2.38 2.38 0 0 0-2.38-2.38zm0 4a1.6 1.6 0 1 1 1.61-1.6 1.6 1.6 0 0 1-1.61 1.58zM72.92 182a2.1 2.1 0 0 1 1.19-1.76c.26-.19.5 0 .71.18.5.44.86 1 1.34 1.45s.43.36.57-.15c.56-1.93 1.12-3.87 1.66-5.81.14-.47.1-.51-.37-.4L72.1 177c-.35.08-.43.18-.15.46s.76.86 1.16 1.27.32.5 0 .84c-1.62 1.57-1.31 1-1.34 3.12v1.13c0 .38-.13.62-.65.62H63.9c-.65 0-.76-.1-.76-.74v-5.3a5.64 5.64 0 0 1 .84-2.73 8.31 8.31 0 0 1 1.93-2.33c.79-.67 1.5-1.42 2.26-2.13 1.18-1.11 2.34-2.24 3.55-3.32a2.78 2.78 0 0 1 .33-.27 1.33 1.33 0 0 1 1.72-.08 1.66 1.66 0 0 1 .06 1.71 4.43 4.43 0 0 1-.67.83c-.88.81-1.64 1.74-2.48 2.59-.48.48-.47.71 0 1.22.87.93 1.1.95 2 0 1.18-1.14 2.38-2.26 3.58-3.37a3.18 3.18 0 0 0 1.07-2.47v-8.46a5.61 5.61 0 0 1 0-.58 1.5 1.5 0 0 1 .92-1.45 1.67 1.67 0 0 1 1.83.38 2 2 0 0 1 .64 1.42v11a4.86 4.86 0 0 1-.83 2.62c-.07.12-.16.23-.22.36a.52.52 0 0 0 .12.68.53.53 0 0 0 .69 0 2 2 0 0 0 .53-.66 7.87 7.87 0 0 0 .78-2.16c0-.18 0-.45.29-.49V170c-.17-.13-.1-.32-.1-.49v-9.82c0-.16-.07-.36.1-.49v-.11c-.29 0-.24-.31-.3-.49a3 3 0 0 0-2.47-2.3 2.63 2.63 0 0 0-2.93 1.7 4.71 4.71 0 0 0-.25 1.58v8.6a2 2 0 0 1-.64 1.48c-.11.1-.24.22-.4.16l-.08.08v-.11c-.13-.09-.08-.26 0-.4l.12-.53a2.09 2.09 0 0 0-.68-2.31 2.42 2.42 0 0 0-2.81-.11 8.5 8.5 0 0 0-1.64 1.38c-1.58 1.54-3.21 3-4.81 4.55a13.83 13.83 0 0 0-1.83 2 8.43 8.43 0 0 0-1.49 4.88v4.12a3.58 3.58 0 0 0 .39 2.29h10.4a9.51 9.51 0 0 0 .26-3.66z"/><path class="cls-3" d="M82 158.75a3.1 3.1 0 0 0-3.41-2.56 2.78 2.78 0 0 0-2.54 3v9a2.1 2.1 0 0 1-.92 1.65c.16.06.29-.06.4-.16a2 2 0 0 0 .64-1.48v-8.6a4.71 4.71 0 0 1 .25-1.58 2.63 2.63 0 0 1 2.93-1.7 3 3 0 0 1 2.47 2.3c.06.18 0 .45.3.49-.22-.06-.12-.23-.12-.36z"/><path class="cls-3" d="M61.89 183.37v-4.12a8.43 8.43 0 0 1 1.49-4.88 13.83 13.83 0 0 1 1.83-2c1.6-1.52 3.23-3 4.81-4.55a8.5 8.5 0 0 1 1.59-1.34 2.42 2.42 0 0 1 2.81.11 2.09 2.09 0 0 1 .68 2.31l-.12.53c0 .14-.08.31 0 .4.11-.47.21-.82.26-1.18a2.26 2.26 0 0 0-2.24-2.72 3.42 3.42 0 0 0-2.34 1.13l-6 5.68a8 8 0 0 0-2.76 5.48c-.1 2.24 0 4.49 0 6.73 0 .36.23.54.48.71a3.58 3.58 0 0 1-.49-2.29z"/><path class="cls-3" d="M73.08 184.54v-1.92a2.12 2.12 0 0 1 .91-2.15c.33-.24.46-.27.75 0 .63.67 1.31 1.28 2 1.92l2.07-7.27-7.49 1.88c.63.65 1.2 1.26 1.79 1.85.21.21.19.31 0 .49s-.64.62-1 .91a1.21 1.21 0 0 0-.47 1.07v2.46c0 .38-.13.47-.49.46h-7.47c-.4 0-.47-.12-.46-.48V179a6.68 6.68 0 0 1 2.14-5c1.94-1.91 4-3.75 5.94-5.62a4.15 4.15 0 0 1 1.22-.94c.57-.23 1.25 0 1.33.48a1.64 1.64 0 0 1-.37 1.49l-2.9 3.06c-.6.64-.6.92 0 1.52l.53.53a.72.72 0 0 0 1.09 0c1.47-1.38 2.94-2.75 4.39-4.15a2.6 2.6 0 0 0 .86-1.94v-6.85-2.62a1.31 1.31 0 0 1 1-1.35 1.64 1.64 0 0 1 1.86.83 2.71 2.71 0 0 1 .3 1.28v9.79a5.73 5.73 0 0 1-1 3.54.74.74 0 0 0 .08 1.12.75.75 0 0 0 1.07-.26 6.26 6.26 0 0 0 1-2.11 3.45 3.45 0 0 1 .31-1.14c-.29 0-.25.31-.29.49a7.87 7.87 0 0 1-.78 2.16 2 2 0 0 1-.53.66.53.53 0 0 1-.69 0 .52.52 0 0 1-.12-.68c.06-.13.15-.24.22-.36a4.86 4.86 0 0 0 .83-2.62v-11a2 2 0 0 0-.64-1.42 1.67 1.67 0 0 0-1.83-.38 1.5 1.5 0 0 0-.92 1.45 5.61 5.61 0 0 0 0 .58V168a3.18 3.18 0 0 1-1.07 2.47c-1.2 1.11-2.4 2.23-3.58 3.37-.93.9-1.16.88-2 0-.48-.51-.49-.74 0-1.22.84-.85 1.6-1.78 2.48-2.59a4.43 4.43 0 0 0 .67-.83 1.66 1.66 0 0 0-.06-1.71 1.33 1.33 0 0 0-1.72.08 2.78 2.78 0 0 0-.33.27c-1.21 1.08-2.37 2.21-3.55 3.32-.76.71-1.47 1.46-2.26 2.13a8.31 8.31 0 0 0-1.93 2.33 5.64 5.64 0 0 0-.84 2.73v5.3c0 .64.11.73.76.74H71.11c.52 0 .62-.11.65-.62s0-.75 0-1.13c0-2.08-.28-1.55 1.34-3.12.35-.34.37-.48 0-.84s-.75-.86-1.16-1.27-.2-.38.15-.46l5.91-1.46c.47-.11.51-.07.37.4-.54 1.94-1.1 3.88-1.66 5.81-.14.51-.18.51-.57.15s-.84-1-1.34-1.45c-.21-.18-.45-.37-.71-.18a2.1 2.1 0 0 0-1.17 1.78 9.51 9.51 0 0 1-.26 3.68 1.33 1.33 0 0 0 .42-1.14zM59.35 182.63v-3.69a7.87 7.87 0 0 0-2.26-5.56c-1.59-1.66-3.32-3.18-5-4.74a25.15 25.15 0 0 0-2.09-1.92 2.56 2.56 0 0 0-2.4-.52 2.06 2.06 0 0 0-1.48 2.36q.06.42.15.84c0 .12.06.26-.07.34v.1a.39.39 0 0 1-.1-.08.37.37 0 0 1-.31-.12 1.58 1.58 0 0 1-.69-1.37v-6.41-2.73a2.69 2.69 0 0 0-2.2-2.77 2.94 2.94 0 0 0-3.33 2c-.1.28 0 .66-.42.79v.11c.11 0 .11.12.11.21v10.9h.06a18.7 18.7 0 0 0 .7 2.46 4.94 4.94 0 0 0 .57 1c.22.27.5.45.83.22a.56.56 0 0 0 .11-.85 6.58 6.58 0 0 1-1-3.92v-9.36a3.25 3.25 0 0 1 .21-1.31 1.7 1.7 0 0 1 1.51-1.11 1.42 1.42 0 0 1 1.68 1.32 6 6 0 0 1 .11 1.12v7.49a4 4 0 0 1 0 .69 2.23 2.23 0 0 0 .6 1.93c1.43 1.53 3 2.94 4.56 4.35.41.37.69.25 1.38-.45.51-.53.54-.74.17-1.18-.89-1.09-2-2-2.87-3.09a2 2 0 0 1-.56-1.24 1.06 1.06 0 0 1 1.51-1.11 2.7 2.7 0 0 1 1 .66c2.09 2 4.26 4 6.32 6a7 7 0 0 1 2 3.66 4 4 0 0 1 .08.85v5.13c0 .72-.08.81-.79.81h-7c-.74 0-.82-.09-.83-.84s0-1.39 0-2.08a1.43 1.43 0 0 0-.45-1.1c-.31-.29-.61-.6-.91-.9a.52.52 0 0 1 0-.83l1.2-1.22a.41.41 0 0 0 .19-.37c-2.21-.57-4.46-1.12-6.7-1.68-.14.17 0 .32 0 .46q.81 2.88 1.64 5.76c.16.56.22.57.63.16s1-.92 1.39-1.4a.52.52 0 0 1 .83 0 2.07 2.07 0 0 1 1 2 6.15 6.15 0 0 0 0 1 3.92 3.92 0 0 0 .39 2.36h10.25a7.21 7.21 0 0 0 .28-3.13z"/><path class="cls-3" d="M59.49 184.59v-5.61a8 8 0 0 0-2.54-6c-2.08-2.05-4.23-4-6.36-6a4.28 4.28 0 0 0-1.22-.84 2.34 2.34 0 0 0-3.37 2.49c0 .34.12.68.2 1.11.13-.08.1-.22.07-.34q-.09-.42-.15-.84a2.06 2.06 0 0 1 1.48-2.36 2.56 2.56 0 0 1 2.4.52 25.15 25.15 0 0 1 2.08 1.92c1.69 1.56 3.42 3.08 5 4.74a7.87 7.87 0 0 1 2.26 5.56v3.69a7.21 7.21 0 0 1-.28 3 1.26 1.26 0 0 0 .43-1.04z"/><path class="cls-3" d="M39.59 158.34a2.94 2.94 0 0 1 3.33-2 2.69 2.69 0 0 1 2.2 2.77v9.14a1.58 1.58 0 0 0 .69 1.37.37.37 0 0 0 .31.12 1.87 1.87 0 0 1-.87-1.57v-9a2.83 2.83 0 0 0-2.07-2.9 3 3 0 0 0-3.71 2c-.11.29-.09.62-.31.87.4-.14.33-.52.43-.8z"/><path class="cls-3" d="M48.3 183.3a6.15 6.15 0 0 1 0-1 2.07 2.07 0 0 0-1-2 .52.52 0 0 0-.83 0c-.44.48-.92.94-1.39 1.4s-.47.4-.63-.16l-1.64-5.76c0-.14-.16-.29 0-.46 2.24.56 4.49 1.11 6.7 1.68a.41.41 0 0 1-.19.37l-1.2 1.22a.52.52 0 0 0 0 .83c.3.3.6.61.91.9a1.43 1.43 0 0 1 .45 1.1v2.08c0 .69.09.84.83.84h7c.71 0 .79-.09.79-.81v-5.13a4 4 0 0 0-.08-.85 7 7 0 0 0-2-3.66c-2.06-2-4.23-4-6.32-6a2.7 2.7 0 0 0-1-.66 1.06 1.06 0 0 0-1.51 1.11 2 2 0 0 0 .56 1.24c.92 1.06 2 2 2.87 3.09.37.44.34.65-.17 1.18-.69.7-1 .82-1.38.45-1.48-1.3-3.07-2.73-4.48-4.3a2.23 2.23 0 0 1-.6-1.93 4 4 0 0 0 0-.69v-7.49a6 6 0 0 0-.11-1.12 1.42 1.42 0 0 0-1.68-1.32 1.7 1.7 0 0 0-1.51 1.11 3.25 3.25 0 0 0-.21 1.31v9.36a6.58 6.58 0 0 0 1 3.92.56.56 0 0 1-.11.85c-.33.23-.61.05-.83-.22a4.94 4.94 0 0 1-.57-1 18.7 18.7 0 0 1-.7-2.46h-.06a6.75 6.75 0 0 0 1.33 3.68.71.71 0 1 0 1.15-.84 5.17 5.17 0 0 1-1-3.2v-10.27a2.42 2.42 0 0 1 .39-1.36 1.62 1.62 0 0 1 1.79-.67 1.28 1.28 0 0 1 1 1.21 4.5 4.5 0 0 1 .07.63c0 2.8.06 5.6 0 8.4a3.53 3.53 0 0 0 1.24 2.91c1.15 1.06 2.29 2.14 3.43 3.21s1.13 1.05 2.2 0c.6-.61.61-.85 0-1.47-.95-1-1.89-2-2.87-3a1.66 1.66 0 0 1-.45-1.1.92.92 0 0 1 1.36-1 2.78 2.78 0 0 1 .86.62c2.09 2 4.2 3.91 6.26 5.9a6.67 6.67 0 0 1 2.17 4.73v5.08c0 .43-.15.49-.52.48h-6.77c-1.21 0-1.29 0-1.19-1.21.11-1.52-.06-2.86-1.5-3.73-.23-.14-.2-.26 0-.44.6-.59 1.18-1.21 1.81-1.87l-7.45-1.86 2.08 7.27c.58-.56 1.16-1.09 1.71-1.63s.63-.61 1.34 0a1.49 1.49 0 0 1 .58 1.38v2.51a1 1 0 0 0 .49 1 3.92 3.92 0 0 1-.42-2.38zM59.72 142.52a2.68 2.68 0 0 0-1.72 2.17.83.83 0 0 1-.65.73c-4.79 1.6-7.68 4.89-8.4 9.88a11.22 11.22 0 0 0 2.91 9.38 11.85 11.85 0 0 0 20.68-8 11.31 11.31 0 0 0-3.33-8 11.76 11.76 0 0 0-5.23-3.18.72.72 0 0 1-.62-.68 2.69 2.69 0 0 0-1.72-2.21c-.15-.06-.38 0-.38-.29H60c.05.13-.15.15-.28.2zm3.17 4.3a.48.48 0 0 1 .61-.21 10.68 10.68 0 0 1 7.55 8.39c.08.6.12 1.21.16 1.58a10.57 10.57 0 1 1-13.5-10 .55.55 0 0 1 .7.22 2.82 2.82 0 0 0 4.48.02zm-2.25-3.19a1.44 1.44 0 0 1 1.43 1.48 1.41 1.41 0 0 1-1.44 1.4 1.45 1.45 0 0 1-1.44-1.42 1.47 1.47 0 0 1 1.45-1.46z"/><path class="cls-3" d="M59.56 142.43a2.7 2.7 0 0 0-1.73 2.2.69.69 0 0 1-.61.68 12 12 0 1 0 7.27.14c-.62-.2-1-.38-1.14-1.15-.18-1.15-1.1-1.71-2.14-2.07 0 .25.23.23.38.29a2.69 2.69 0 0 1 1.72 2.21.72.72 0 0 0 .62.68 11.76 11.76 0 0 1 5.23 3.18 11.31 11.31 0 0 1 3.33 8 11.48 11.48 0 0 1-4.49 9.49 11.8 11.8 0 0 1-16.17-1.4 11.22 11.22 0 0 1-2.91-9.38c.72-5 3.61-8.28 8.4-9.88a.83.83 0 0 0 .65-.73 2.68 2.68 0 0 1 1.77-2.17c.13-.05.33-.07.31-.29-.14.15-.34.13-.49.2zM82 159.65v10.41-10.8.39zM82 159.73v9.82c0 .17-.07.36.1.49-.09-.13 0-.27 0-.41v-10-.41c-.2.15-.1.35-.1.51z"/><path class="cls-3" d="M60 149.35a1.13 1.13 0 0 1 0 .26c0 .34.09.74-.06 1s-.54.18-.81.29a2.93 2.93 0 0 0-2 2.42 2.81 2.81 0 0 0 1.39 2.9 8.68 8.68 0 0 0 1.52.77 6.77 6.77 0 0 1 1.42.72 1.9 1.9 0 0 1 .9 2.11 2 2 0 0 1-1.76 1.35 4.65 4.65 0 0 1-2.44-.38c-.8-.34-.77-.33-1.1.49-.13.34-.08.5.25.65a5.58 5.58 0 0 0 1.67.52c.9.13.9.13.9 1 0 1 0 1 .86 1 .27 0 .38-.07.36-.36s0-.68 0-1c-.07-.48.11-.66.57-.79a3.07 3.07 0 0 0 2.4-2.52 3.1 3.1 0 0 0-1.4-3.33 8.84 8.84 0 0 0-1.46-.77 8.18 8.18 0 0 1-1.62-.81 1.52 1.52 0 0 1-.74-1.73 1.56 1.56 0 0 1 1.4-1.21 3.88 3.88 0 0 1 2.44.34c.44.22.61.19.77-.3.26-.83.29-.82-.52-1.1-.2-.07-.41-.12-.61-.18-.37-.11-.9.05-1.07-.27a2.06 2.06 0 0 1 0-1.16c.06-.49-.14-.56-.58-.57s-.75.13-.68.66zM176.54 59.85l-5.32-3 5.29-3v2.56a25.62 25.62 0 0 0 2.78 0 1.21 1.21 0 0 0 .73-2c-.46-.55-.37-.92.29-1.26a5.3 5.3 0 0 0 .89-.52.82.82 0 0 0 .08-1.4 2 2 0 0 0-.38-.27c-.71-.48-.72-1.1 0-1.56 1.18-.76 1.15-1.64-.08-2.35-.69-.41-.69-1 0-1.38a4.08 4.08 0 0 0 .44-.28 1.15 1.15 0 0 0 .44-1.39 1.16 1.16 0 0 0-1.09-.9h-5.8a1.86 1.86 0 0 1-2.05-2.4c.21-1.3.36-2.61.53-3.91.09-.69-.42-1.14-1.19-1.09-.17.6-.34 1.19-.5 1.79a8.76 8.76 0 0 1-1.68 3.51 5.25 5.25 0 0 0-1.17 3.76c.08 3.89 0 7.78 0 11.67v.67h-1.31v-.56-13.75a1.83 1.83 0 0 1 .28-.9A18.17 18.17 0 0 0 170 38a8.21 8.21 0 0 0 .69-2.9.63.63 0 0 1 .61-.71 6.18 6.18 0 0 1 1.55.05 2.18 2.18 0 0 1 1.71 2.43c-.15 1.29-.33 2.57-.51 3.85-.13.92 0 1 .88 1h5.5A2.52 2.52 0 0 1 183 45a7.45 7.45 0 0 1-.72 1.32c1.13 1.37 1.12 2.34-.12 3.77a2.44 2.44 0 0 1 .78 2.13 2.7 2.7 0 0 1-1.51 1.78c.06.23.15.45.2.68a2.52 2.52 0 0 1-2.1 3 18.59 18.59 0 0 1-2.12.09h-.87zM166 57.72h-5v-2.41a.4.4 0 0 0-.34-.47 2.61 2.61 0 0 1-1.92-2.54 2.65 2.65 0 0 1 1.94-2.48l.31-.1v-7.18H166zm-3.73-13.91v5.81a.54.54 0 0 0 .27.36 2.58 2.58 0 0 1 1.48 2.39 2.55 2.55 0 0 1-1.49 2.32.51.51 0 0 0-.26.32v1.39h2.42V43.81zm-.88 7.19a1.38 1.38 0 1 0 0 2.75 1.36 1.36 0 0 0 1.38-1.37 1.33 1.33 0 0 0-1.38-1.38zM152.64 49.75h-1.39c-.41 0-.7-.18-.74-.63s.26-.66.74-.67h2.79c.49 0 .76.27.73.67s-.33.62-.73.63zM189.83 49.75h-1.39c-.46 0-.71-.2-.7-.65s.3-.63.72-.64h2.84c.41 0 .71.21.7.66s-.31.63-.72.64zM172.08 30.21v1.34a.65.65 0 0 1-.63.74c-.39 0-.68-.26-.69-.73v-2.74c0-.47.29-.76.68-.73a.65.65 0 0 1 .64.73c.01.46 0 .93 0 1.39zM172.08 68v1.39c0 .46-.21.7-.65.71a.62.62 0 0 1-.67-.69v-2.84a.61.61 0 0 1 .65-.66.63.63 0 0 1 .67.69c.01.47 0 .93 0 1.4zM153.35 38.2a4.54 4.54 0 0 1 .53.22l2.34 1.32a.66.66 0 1 1-.61 1.14c-.82-.45-1.63-.91-2.44-1.38-.29-.17-.49-.44-.34-.77s.35-.36.52-.53zM156.67 58a1.59 1.59 0 0 1-.4.46c-.8.48-1.61.94-2.43 1.39a.64.64 0 0 1-1-.23c-.21-.41 0-.69.34-.9.81-.46 1.61-.93 2.43-1.37a.67.67 0 0 1 1.06.65zM190 59.18c0 .56-.46.9-.87.69-.93-.48-1.84-1-2.74-1.55a.52.52 0 0 1-.15-.81c.15-.18.56-.35.73-.26 1 .47 1.88 1 2.8 1.56.23.08.23.3.23.37zM182.53 31.38a4.63 4.63 0 0 1-.24.52c-.44.76-.88 1.53-1.34 2.28-.27.45-.63.58-1 .35a.65.65 0 0 1-.16-1c.47-.79.9-1.6 1.42-2.35a1 1 0 0 1 .77-.31c.21.03.38.34.55.51zM186.72 41.05c-.13-.11-.41-.24-.48-.43a.77.77 0 0 1 .14-.69 31.74 31.74 0 0 1 2.84-1.6c.16-.09.6.1.71.28a.81.81 0 0 1-.12.76c-.9.57-1.84 1.08-2.77 1.6a1.74 1.74 0 0 1-.32.08zM182.47 66.88c-.11.11-.25.39-.45.43a.84.84 0 0 1-.72-.19c-.56-.87-1.09-1.76-1.57-2.68a.79.79 0 0 1 .24-.73c.15-.13.64-.11.72 0 .62 1 1.18 1.94 1.76 2.91.01.05 0 .09.02.26zM163.19 34.15c-.11.11-.26.37-.46.42a.79.79 0 0 1-.68-.18c-.57-.88-1.11-1.79-1.59-2.72a.74.74 0 0 1 .21-.7c.19-.11.68-.11.77 0 .61.93 1.16 1.91 1.72 2.87a1.57 1.57 0 0 1 .03.31zM161.17 67.38c-.56 0-.94-.45-.73-.84.49-.92 1-1.83 1.59-2.72a.56.56 0 0 1 .82-.16.58.58 0 0 1 .25.84c-.49.88-1 1.74-1.53 2.59-.09.15-.31.23-.4.29z"/></g></svg>