<svg id="Layer_1" data-name="Layer 1" xmlns="http://www.w3.org/2000/svg" width="100" height="100" viewBox="0 0 100 100"><title>data-virtualization</title><path d="M78,100a14.76,14.76,0,0,1-3.31-1.62,18.19,18.19,0,0,1-2.43-3.25c-2.64,0-5.62.11-8.6,0a50.56,50.56,0,0,1-13.81-2.2,20.16,20.16,0,0,1-3.59-1.67,4.1,4.1,0,0,1-2.1-3.85c0-14.78,0-29.57,0-44.35,0-3.94.74-5.07,4.44-6.51A41.33,41.33,0,0,1,60.8,34.1c3-.23,6-.35,9.06-.3s6,.34,9.24.54a14.27,14.27,0,0,0-1.36-1.28,9.24,9.24,0,0,0-5-1.61c-1.74-.1-2.31-1.21-1.37-2.7,2.09-3.32,1.14-7.33-2.16-8.71-2.4-1-4.53-.3-6.45,1.29-.23.19-.43.41-.64.62a1.5,1.5,0,0,1-2,.23,1.46,1.46,0,0,1-.52-1.95,12.63,12.63,0,0,0,.92-6.69,12.33,12.33,0,0,0-10-10.18,10.9,10.9,0,0,0-12.24,6c-.54,1.07-1.39,1.15-2.36,1.23A11.91,11.91,0,0,0,25,19.75a15.16,15.16,0,0,0-.35,2.51c-.1,1.31-.52,1.79-1.82,1.84a12.17,12.17,0,0,0-5.6,1.53c-4.84,2.69-6.46,7.1-6.15,12.3A14.86,14.86,0,0,0,25.55,51.84a16.93,16.93,0,0,1,3.33.8V46.55l11.85,6.84L29,60.18V54.24a21.74,21.74,0,0,1-4,.59A18,18,0,0,1,8,38.64a2.7,2.7,0,0,0-.19-.59v-2A1.48,1.48,0,0,0,8,35.58c.72-7.94,5.1-12.86,12.85-14.37.62-.12.82-.39.91-1A15.15,15.15,0,0,1,34.93,7.5a1.84,1.84,0,0,0,1.17-.75A13.79,13.79,0,0,1,44.37.55c.73-.2,1.47-.37,2.2-.55h3.1a5.84,5.84,0,0,0,.82.22A15.18,15.18,0,0,1,63.27,11.65,44.05,44.05,0,0,1,63.9,17c3.38-1,6.62-.71,9.26,2s2.89,6,1.91,9.53c.78.25,1.45.44,2.1.69C79,30,80.94,31,81.65,32.8c.82,2.12,2.27,2.76,4.2,3.11a11,11,0,0,1,2.38.86,6.86,6.86,0,0,1,3.92,3.5V88.72c-1.41,3.07-4.42,3.71-7.22,4.72a6.28,6.28,0,0,1-3.88,6c-.49.22-1,.37-1.51.55ZM47.23,56.53c0,2.19.05,4.51,0,6.83a1.66,1.66,0,0,0,1.11,1.82A41.08,41.08,0,0,0,53.74,67a74.25,74.25,0,0,0,24,.84,32.8,32.8,0,0,0,9.62-2.34c1.17-.5,1.88-1.17,1.69-2.58a21.29,21.29,0,0,1,0-2.65V56.55A72.16,72.16,0,0,1,47.23,56.53Zm0,11.9c0,2.24,0,4.6,0,7A1.47,1.47,0,0,0,48.15,77,34.85,34.85,0,0,0,53,78.72,71.51,71.51,0,0,0,81.75,79a38.19,38.19,0,0,0,6.07-1.93c.48-.18,1.11-.77,1.13-1.19.11-2.55,0-5.11,0-7.46A72.29,72.29,0,0,1,47.23,68.43Zm0-23.28c0,2.06,0,4.23,0,6.4a1.52,1.52,0,0,0,1,1.66,30.24,30.24,0,0,0,4.43,1.63,71.78,71.78,0,0,0,28.61.52,40.88,40.88,0,0,0,6.32-1.89c.56-.2,1.35-.8,1.37-1.26.14-2.4.07-4.81.07-7.05A71.71,71.71,0,0,1,47.23,45.15ZM89,80.32a71.87,71.87,0,0,1-41.77,0c0,2.39,0,4.92,0,7.45a1.42,1.42,0,0,0,.74,1,20,20,0,0,0,3.44,1.47c6.77,1.92,13.72,2.12,20.69,1.83a1.11,1.11,0,0,0,.75-.6c2.18-4.59,7.34-5.3,10.75-1.49a1.06,1.06,0,0,0,.88.31,31.61,31.61,0,0,0,3.67-1.48A1.63,1.63,0,0,0,89,87.6C89.05,85.13,89,82.67,89,80.32ZM47.24,40.71v.43a7.67,7.67,0,0,0,1.62,1A47.6,47.6,0,0,0,55,44a72.12,72.12,0,0,0,23.86.4,65.78,65.78,0,0,0,8.71-2.3c.52-.16.92-.75,1.37-1.14a5.27,5.27,0,0,0-1.42-1.12,54.08,54.08,0,0,0-6.75-2,75.11,75.11,0,0,0-20.8-.65A36.58,36.58,0,0,0,49.72,39.4,24.5,24.5,0,0,0,47.24,40.71Zm34.57,53a3.13,3.13,0,1,0-3.07,3.16A3.22,3.22,0,0,0,81.81,93.71Z"/></svg>