<svg id="Layer_1" data-name="Layer 1" xmlns="http://www.w3.org/2000/svg" width="100" height="100" viewBox="0 0 100 100"><title>trend</title><path d="M45.78,96.84c-2.38-.45-4.78-.79-7.12-1.36a46.24,46.24,0,0,1-23.39-13.9,7.31,7.31,0,0,1-.52-.61,1.52,1.52,0,0,1-.12-.34L40,56.05,50.08,65.9c4.87-4.67,9.69-9.32,14.6-14l-3-2.81,12.17-3.36c-1.07,4.13-2.09,8-3.16,12.15l-2.89-2.73-17.69,17L40.05,62.27,21,80.74C31.28,91.37,51.43,97,69.37,87.63c19.1-10,25.36-30.34,22.1-45.46-4.1,0-7.31-1.7-8.91-5.6S82,29.2,84.87,26.27a42.09,42.09,0,0,0-51.7-15.08C12.61,20.16,4.93,41.4,8.36,57.71a27.54,27.54,0,0,1,2.85.41,9,9,0,0,1-.27,17.54A9,9,0,0,1,3.16,60a1.6,1.6,0,0,0,.68-1.76A46.81,46.81,0,0,1,88.27,23.18a1.86,1.86,0,0,0,2,1,8.94,8.94,0,0,1,9.42,7.24c.07.39.19.76.29,1.13v1.33a4,4,0,0,0-.25.71,8.36,8.36,0,0,1-3,5.32A1.92,1.92,0,0,0,96.07,42a44.74,44.74,0,0,1,.42,13.22,46.79,46.79,0,0,1-35.6,40.29c-2.27.54-4.58.87-6.87,1.3ZM90.87,37.65a4.55,4.55,0,1,0-4.6-4.53A4.61,4.61,0,0,0,90.87,37.65ZM9,62.32a4.54,4.54,0,1,0,4.62,4.48A4.6,4.6,0,0,0,9,62.32Z"/></svg>