<svg id="Layer_1" data-name="Layer 1" xmlns="http://www.w3.org/2000/svg" width="100" height="100" viewBox="0 0 100 100"><title>productivity</title><path d="M31,3c1.56.29,3.14.49,4.68.89A22.5,22.5,0,0,1,52.28,27.35c-.63,10-8.81,18.92-19,20.44a22.48,22.48,0,0,1-7.8-44.26c1.08-.22,2.17-.36,3.26-.53ZM29.84,44.76a19.19,19.19,0,1,0-19.2-19.18A19.26,19.26,0,0,0,29.84,44.76Z"/><path d="M100,47.15c-.08.23-.18.46-.24.7A6.62,6.62,0,1,1,89.56,41a1.28,1.28,0,0,0,.63-1.78A41.39,41.39,0,0,0,69.05,13.63l-.61-.29a1.81,1.81,0,0,0-.37-.05l-2,5.32L56.33,6.78l15.1-2.49L69.31,10l1.86,1a44.49,44.49,0,0,1,22.3,27.7A1.59,1.59,0,0,0,94.81,40,6.4,6.4,0,0,1,99.75,45c.07.28.17.55.25.83Zm-6.78-4a3.3,3.3,0,0,0-3.28,3.37,3.34,3.34,0,1,0,6.67-.11A3.3,3.3,0,0,0,93.22,43.12Z"/><path d="M51.64,63.75c1.32.6,2.2-.34,3.33-1.35,1.52-1.36,2.34-2.71,1.81-4.77a1.28,1.28,0,0,1,.59-1.08c1.69-.79,3.42-1.47,5.13-2.19a.94.94,0,0,1,1.32.43c1,1.79,2.45,2.13,4.42,2.09,1.69,0,2.94-.32,3.76-1.83a1.31,1.31,0,0,1,2-.56c1.56.69,3.14,1.35,4.72,2a.91.91,0,0,1,.65,1.21c-.5,1.82.09,3,1.48,4.45s2.61,2,4.42,1.54a.94.94,0,0,1,1.24.62q1,2.59,2.1,5.17a1,1,0,0,1-.42,1.32,4,4,0,0,0-2,3.86c0,1.86.31,3.13,1.9,4a1.05,1.05,0,0,1,.47,1.5c-.69,1.68-1.39,3.36-2.07,5a.92.92,0,0,1-1.22.66c-1.92-.6-3.13.26-4.52,1.59S78.84,90,79.31,91.74a1,1,0,0,1-.73,1.39c-1.69.68-3.36,1.41-5.07,2a1.33,1.33,0,0,1-1.2-.33,4.58,4.58,0,0,0-4.4-2.14,4.15,4.15,0,0,0-4,2,1.06,1.06,0,0,1-1.49.5c-1.64-.72-3.29-1.38-4.94-2.05a1,1,0,0,1-.74-1.29c.51-1.89-.19-3.14-1.6-4.51s-2.39-2-4.13-1.44A1.18,1.18,0,0,1,49.46,85c-.64-1.66-1.28-3.33-2-5a.89.89,0,0,1,.43-1.3c1.76-.91,1.89-2.38,2-4.2A3.54,3.54,0,0,0,48.08,71a1.17,1.17,0,0,1-.54-1.67c.61-1.44,1.09-2.93,1.73-4.35S49.92,63.65,51.64,63.75ZM75.88,87.89c1.52-1.52,3-2.79,4.21-4.28a2.15,2.15,0,0,1,2.38-1.06c.21,0,.45,0,.66.06.89.27,1.32-.06,1.67-.92s.47-1.59-.51-2.13c-.35-.19-.62-.54-1-.77a1.16,1.16,0,0,1-.49-1.32A11.48,11.48,0,0,0,83,73.7c-.38-1.8,0-3.06,1.57-4a1.11,1.11,0,0,0,.51-.86c-.15-1.59-.81-2.08-2.4-1.88-.19,0-.38,0-.56.08a1.55,1.55,0,0,1-1.78-.73,10.3,10.3,0,0,0-2.64-2.85A3.38,3.38,0,0,1,76,59.42a1.13,1.13,0,0,0-.3-.94c-1.18-.93-1.87-.82-2.83.32a6.13,6.13,0,0,0-.57.69,1.41,1.41,0,0,1-1.61.64,13.43,13.43,0,0,0-4-.15,3.36,3.36,0,0,1-4.06-1.71,1.05,1.05,0,0,0-.87-.42c-1.68.3-1.94.7-1.75,2.37,0,.22,0,.45.07.67a1.6,1.6,0,0,1-.79,1.76,13.17,13.17,0,0,0-3,2.82c-1,1.4-2,1.94-3.59,1.48a1.36,1.36,0,0,0-1.11.2,1.83,1.83,0,0,0,.25,3,4.59,4.59,0,0,0,.6.49,1.45,1.45,0,0,1,.69,1.69A10.56,10.56,0,0,0,53,76a3.2,3.2,0,0,1-1.65,4,1.08,1.08,0,0,0-.41.89c.24,1.55.71,1.89,2.25,1.76a5,5,0,0,0,.78,0c.81-.21,1.23.18,1.73.8a14.86,14.86,0,0,0,3.1,3.18A2.49,2.49,0,0,1,60,89.59c-.27,1,.06,1.56,1.06,1.92.81.3,1.39.35,1.87-.48.22-.38.58-.68.84-1a1.24,1.24,0,0,1,1.4-.55,11.3,11.3,0,0,0,4,.2c1.94-.42,3.27,0,4.21,1.73.44.79,1,.34,1.55.11s1.29-.26,1.14-1.22S75.93,88.47,75.88,87.89Z"/><path d="M42.09,94.52,27,97l2.12-5.71c-2.33-1.56-4.72-3-6.89-4.64a44.05,44.05,0,0,1-15.68-23c-.2-.67-.38-1.14-1.25-1.29A6.41,6.41,0,0,1,0,56.28a6.55,6.55,0,0,1,4.91-6.76A6.62,6.62,0,0,1,11,60.85c-.44.39-.95.71-1.54,1.16A41.93,41.93,0,0,0,30.34,88l2.05-5.33C35.63,86.64,38.78,90.49,42.09,94.52ZM6.56,59.25A3.32,3.32,0,0,0,9.94,56a3.4,3.4,0,0,0-3.3-3.41,3.44,3.44,0,0,0-3.39,3.32A3.35,3.35,0,0,0,6.56,59.25Z"/><path d="M28.33,10.84h2.52c.18,0,.36,0,.64.07V24.46h8.14v3.27H28.33Z"/><path d="M57.33,74.82A10.69,10.69,0,1,1,68,85.41,10.65,10.65,0,0,1,57.33,74.82Zm18.31,0a7.65,7.65,0,0,0-15.3-.05,7.78,7.78,0,0,0,7.71,7.6A7.68,7.68,0,0,0,75.64,74.79Z"/></svg>