<svg id="Layer_1" data-name="Layer 1" xmlns="http://www.w3.org/2000/svg" width="100" height="100" viewBox="0 0 100 100"><title>platform</title><path d="M9,68.35l1.69-2.56,2.54,1.44q17.51,10.09,35,20.23a2.28,2.28,0,0,0,2.67,0q18.46-10.76,37-21.39a3.77,3.77,0,0,1,.92-.46,1.62,1.62,0,0,1,1.48,2.83,12.83,12.83,0,0,1-1.48.88Q69.89,80.29,51,91.25a2.52,2.52,0,0,1-2.85-.1Q28.59,79.84,9,68.58Z"/><path d="M49.4,100,10.15,77.35c-.35-.2-.74-.34-1.12-.52v-.45l1.73-2.46,7.39,4.27Q33.38,87,48.58,95.78a1.76,1.76,0,0,0,2.05,0Q69.2,85,87.81,74.29a8.78,8.78,0,0,1,.9-.49,1.5,1.5,0,0,1,2,.66,1.53,1.53,0,0,1-.39,2.14,6.28,6.28,0,0,1-.78.48L51.15,99.24c-.49.28-1,.51-1.52.76Z"/><path d="M50.09,0a15.93,15.93,0,0,1,3.47,1.6,6.1,6.1,0,0,1-1.24,10.14c-.34.17-.69.31-1,.47v4.48h5.4c-2.44,4.17-4.74,8.12-7.13,12.22l-7-12.23h5.35V12.21a6.5,6.5,0,0,1-3.85-3.33,6.13,6.13,0,0,1,4-8.6c.29-.08.56-.19.83-.28Zm2.59,6.24a3.08,3.08,0,0,0-3-3.09,3.16,3.16,0,0,0-3.17,3.09,3.21,3.21,0,0,0,3.06,3.11A3.14,3.14,0,0,0,52.68,6.24Z"/><path d="M69,30.55l2.56,4.61H57.48L64.68,23l2.69,4.7L71,25.58A21.44,21.44,0,0,1,70.93,23a6,6,0,0,1,4.78-5.45,6.14,6.14,0,0,1,5.83,10.13A5.86,5.86,0,0,1,74.34,29a2.37,2.37,0,0,0-2.93.14C70.67,29.65,69.85,30.05,69,30.55Zm5-7a3,3,0,0,0,3,3,3.09,3.09,0,1,0,0-6.18A3,3,0,0,0,73.94,23.56Z"/><path d="M35,52.25,30.68,49l13-5.5c-.58,4.71-1.12,9.23-1.7,14l-4.33-3.23L35,57.66a6.63,6.63,0,0,1,1.15,4.88,6.14,6.14,0,0,1-12.12-2,6,6,0,0,1,7.06-5.09,1.68,1.68,0,0,0,2.13-.85C33.69,53.82,34.33,53.1,35,52.25Zm-1.79,9.18a3.09,3.09,0,1,0-3.1,3.17A3.18,3.18,0,0,0,33.18,61.43Z"/><path d="M61,54.6l-4.32,3.22-1.72-14,13,5.51-4.29,3.27c.81,1.08,1.58,2.17,2.44,3.17.18.21.72.22,1.08.18a6.09,6.09,0,0,1,6.1,2.57A5.86,5.86,0,0,1,73.55,65,6.12,6.12,0,1,1,63,58.89,1.32,1.32,0,0,0,62.84,57C62.18,56.28,61.62,55.45,61,54.6Zm7.21,10.51a3.08,3.08,0,1,0-3.09-3.17A3.14,3.14,0,0,0,68.17,65.11Z"/><path d="M30.7,30.53c-1.29-.74-2.49-1.47-3.75-2.09-.25-.12-.75.13-1.07.32a6.23,6.23,0,0,1-7.34-.71,6.14,6.14,0,1,1,10.17-3.39c0,.25-.1.51-.17.85l3.76,2.15,1.32-2.31L35,23l7.2,12.16h-14Zm-4.93-7A3.09,3.09,0,1,0,22.6,26.6,3.1,3.1,0,0,0,25.77,23.53Z"/><path d="M49.65,43.81a6.16,6.16,0,0,1-6.18-6.08,6.15,6.15,0,0,1,12.3-.09A6.22,6.22,0,0,1,49.65,43.81Zm0-9.24a3.1,3.1,0,1,0,0,6.19,3.1,3.1,0,0,0,0-6.19Z"/></svg>