<svg id="Layer_1" data-name="Layer 1" xmlns="http://www.w3.org/2000/svg" width="100" height="100" viewBox="0 0 100 100"><title>investments</title><path d="M82.17,47.76v2.91c-.07.24-.17.48-.23.73a9.38,9.38,0,0,1-6.83,7.16A9.16,9.16,0,0,1,65.57,56a27.32,27.32,0,0,1-2.07-2.7c-3.87,1.58-7.77,3.16-11.65,4.77a.8.8,0,0,0-.41.57c0,2.12,0,4.24,0,6.35.51.1.91.18,1.32.24a17.47,17.47,0,0,1,5.36,32.7,46.56,46.56,0,0,1-6.2,2.09h-4a5,5,0,0,0-.72-.22,17.51,17.51,0,0,1-.84-34.43c.68-.15,1.37-.25,2.12-.38,0-1.93,0-3.75,0-5.58a1.19,1.19,0,0,0-.9-1.31c-3.46-1.38-6.91-2.81-10.36-4.21-.3-.12-.61-.2-.92-.3-.18.3-.3.53-.45.75a9.3,9.3,0,0,1-9.21,4.56,9.29,9.29,0,0,1-8.19-6.52c-.25-.69-.39-1.42-.58-2.14v-2a2.45,2.45,0,0,0,.2-.48,9.65,9.65,0,0,1,19.15,2.2c0,.71.26.88.78,1.09l9.43,3.8c.3.12.6.21.92.31a2.36,2.36,0,0,0,.1-.42c0-5.41,0-10.83,0-16.24a1.43,1.43,0,0,0-.77-1A5.83,5.83,0,0,1,44.1,33a1.36,1.36,0,0,0-1-1.19c-2.21-.88-4.43-1.77-6.62-2.7a1.14,1.14,0,0,0-1.59.38,9.58,9.58,0,0,1-15.49-1.08,23.38,23.38,0,0,1-1.61-4.23v-2a4.71,4.71,0,0,0,.22-.59,9.62,9.62,0,0,1,9.24-8A9.43,9.43,0,0,1,36.88,21a31.27,31.27,0,0,1,.3,5.24l7.06,2.86a36.69,36.69,0,0,1,3.36-2.54,1.33,1.33,0,0,0,.84-1.34c0-4.11,0-8.22,0-12.33,0-.33,0-.65-.09-1.13H43.27c2.1-3.64,4.1-7.09,6.09-10.55.21-.38.35-.8.53-1.2h.22l6.82,11.79H51.47V25.86l4,3,3.69-1.5,4-1.63c0-.28-.06-.43-.09-.57a9.67,9.67,0,0,1,5.69-10.8A9.54,9.54,0,0,1,80.54,18a24.9,24.9,0,0,1,1.63,3.73v2.91a5,5,0,0,0-.21.62,9.71,9.71,0,0,1-17.64,3.24c-2.5,1-5,2.05-7.46,3a1.46,1.46,0,0,0-1.09,1.33,5.47,5.47,0,0,1-3.52,4.55,1.16,1.16,0,0,0-.84,1.31c0,5.08,0,10.15,0,15.23,0,.29,0,.58.06,1l11.38-4.58v-1a9.54,9.54,0,0,1,6-9,9.65,9.65,0,0,1,10.53,2.19A11.86,11.86,0,0,1,82.17,47.76ZM64.46,82.5A14.56,14.56,0,1,0,49.91,97.05,14.57,14.57,0,0,0,64.46,82.5Zm8.09-39.9A6.71,6.71,0,0,0,72.45,56a6.71,6.71,0,1,0,.1-13.41ZM65.81,23.34A6.75,6.75,0,0,0,72.54,30a6.71,6.71,0,1,0-.08-13.42A6.75,6.75,0,0,0,65.81,23.34ZM34.23,49.28a6.65,6.65,0,0,0-6.67-6.68,6.71,6.71,0,1,0,6.67,6.68Zm0-25.95A6.69,6.69,0,1,0,27.53,30,6.72,6.72,0,0,0,34.23,23.33ZM49.94,35a3.06,3.06,0,0,0,3-3,3.15,3.15,0,0,0-3-3,3.06,3.06,0,0,0-3,3A3,3,0,0,0,49.94,35Z"/><path d="M50.72,88.63v2.12H48.86c.59-1.94-.66-2.17-2.09-2.45-1.58-.31-1.62-.62-.8-2.45a34.18,34.18,0,0,0,3.5.67,1.8,1.8,0,0,0,2.15-1.38c.22-1-.48-1.59-1.3-2s-1.52-.62-2.26-1c-1.85-.89-2.67-2.08-2.53-3.7a3.72,3.72,0,0,1,3-3.36L49,75v-2h1.82L51,74.78l2.95.77-.57,2a21.56,21.56,0,0,0-2.2-.56,3.12,3.12,0,0,0-1.64.08,2,2,0,0,0-1.12,1.17,1.61,1.61,0,0,0,.7,1.33A29.22,29.22,0,0,0,51.88,81a3.83,3.83,0,0,1,2.52,3.16,3.78,3.78,0,0,1-2.5,4.06C51.56,88.35,51.2,88.46,50.72,88.63Z"/><path d="M72.44,45.17l2,1.39-.16.89a14.39,14.39,0,0,0-1.8-.13.78.78,0,0,0-.53.43c-.05.1.17.4.33.5.42.23.88.4,1.32.6a1.77,1.77,0,0,1,1.2,1.71,2,2,0,0,1-1.15,1.76,6.07,6.07,0,0,0-1,1.17L70.24,52l.2-1a12,12,0,0,0,1.87.29c.27,0,.54-.3.81-.47-.18-.25-.31-.59-.55-.74-.43-.27-1-.38-1.41-.64a1.71,1.71,0,0,1,0-3A11.87,11.87,0,0,0,72.44,45.17Z"/><path d="M74.48,20l-.24,1c-.62-.05-1.21-.14-1.79-.13-.19,0-.43.26-.52.45s.17.4.34.49a6.42,6.42,0,0,1,1.39.68,3,3,0,0,1,1,1.64c0,.57-.6,1.16-1,1.69a7.44,7.44,0,0,1-.94.92v.46c-.29-.22-.57-.46-.86-.67a2.37,2.37,0,0,0-.74-.47c-1-.2-1.11-.7-.61-1.49a8.91,8.91,0,0,0,1.64.31c.31,0,.62-.3.93-.47a3.14,3.14,0,0,0-.63-.8c-.36-.24-.82-.33-1.21-.55a1.72,1.72,0,0,1-.07-3.14c.32-.21.48-.67.81-.88a2.66,2.66,0,0,1,1-.19C72.9,19.82,73.94,19.44,74.48,20Z"/><path d="M25.24,52.07,25.52,51a13.8,13.8,0,0,0,1.84.3c.26,0,.53-.32.79-.49-.18-.25-.3-.59-.54-.74-.4-.26-.9-.36-1.32-.59a1.72,1.72,0,0,1,0-3.14,6.46,6.46,0,0,0,1-.92l0-.42,2.24,1.55-.17.9c-.6-.06-1.14-.16-1.68-.16a.5.5,0,0,0-.26,1,7.27,7.27,0,0,1,1.4.68c.46.42,1,1,1,1.55s-.6,1.17-1,1.73a4,4,0,0,1-.85,1,2.43,2.43,0,0,1-.9.23C27.08,52.22,25.87,52.61,25.24,52.07Z"/><path d="M25.25,25.59l.27-1.1a9.42,9.42,0,0,0,1.79.3c.29,0,.57-.35.85-.55a2.74,2.74,0,0,0-.6-.7c-.4-.25-.89-.36-1.31-.61a1.71,1.71,0,0,1,0-3.07,9.51,9.51,0,0,0,1.25-1.21l2,1.37-.21.94a6.51,6.51,0,0,0-1.37-.19,2.87,2.87,0,0,0-.92.41,3.2,3.2,0,0,0,.61.7c.3.2.77.2,1,.45.48.51,1.17,1.11,1.18,1.69s-.68,1.17-1.09,1.75a3.56,3.56,0,0,1-.7.84,3.21,3.21,0,0,1-.87.33C27.09,25.74,25.89,26.07,25.25,25.59Z"/></svg>