<svg id="Layer_1" data-name="Layer 1" xmlns="http://www.w3.org/2000/svg" width="100" height="100" viewBox="0 0 100 100"><title>APIs</title><path d="M100,83.3H94.07c-.17,1.08-.26,2-.49,3A12.66,12.66,0,0,1,81.71,95.7q-7.08.09-14.18,0A12.53,12.53,0,0,1,55.26,83.3c0-4.12,0-8.23,0-12.35C55.26,63.82,59.88,58.47,67,58a116.74,116.74,0,0,1,15.87.08,12.08,12.08,0,0,1,11,12.23,8.86,8.86,0,0,0,1.44,5.14C96.94,78,98.37,80.54,100,83.3Zm-15.34,0c.29-.54.47-.89.67-1.23,1.4-2.38,2.74-4.81,4.24-7.13A7.2,7.2,0,0,0,90.7,70.7a9.36,9.36,0,0,0-9.4-9.54c-4.48-.08-9-.09-13.44,0a9.14,9.14,0,0,0-9.28,9.09q-.19,6.54,0,13.08A9.26,9.26,0,0,0,68,92.48c4.44.07,8.88,0,13.32,0a9.17,9.17,0,0,0,6.42-2.57,8.83,8.83,0,0,0,2.9-6.6Z"/><path d="M21.62,43.42c-3,0-6,.33-8.89-.07A12.14,12.14,0,0,1,2.39,31.26c0-4.89.06-9.77,0-14.66A1.84,1.84,0,0,0,2,15.47a6.47,6.47,0,0,1-.29-9,6.76,6.76,0,0,1,9.06-.94,2.05,2.05,0,0,0,2.1.46,4,4,0,0,1,1.33-.16c5.25,0,10.52-.21,15.75.13A12.25,12.25,0,0,1,41.07,18.25q0,6.48,0,13A12.58,12.58,0,0,1,28.83,43.63c-2.4,0-4.81,0-7.21,0Zm-16-25.87V19c0,3.87,0,7.73,0,11.6,0,5.82,4,9.83,9.81,9.87,4.16,0,8.31,0,12.46,0,5.86,0,9.8-4,9.83-9.83q0-5.87,0-11.73c0-5.88-3.93-9.76-9.83-9.78-4.15,0-8.31,0-12.46,0-.68,0-1.36.07-2,.11C13.37,14.93,11.81,16.61,5.65,17.55Zm1-10.1a3.47,3.47,0,0,0-3.46,3.39A3.57,3.57,0,0,0,6.7,14.25a3.57,3.57,0,0,0,3.52-3.49A3.46,3.46,0,0,0,6.69,7.45Z"/><path d="M2.51,76.64a63.79,63.79,0,0,1,.06-8.3A11.93,11.93,0,0,1,13.46,58.09a133.1,133.1,0,0,1,16.47,0,12.19,12.19,0,0,1,11.14,12.4q0,6.36,0,12.71A12.57,12.57,0,0,1,28.64,95.7q-6.9.06-13.81,0A12.5,12.5,0,0,1,2.39,83.36c0-2.24,0-4.48,0-6.72Zm19.17-15.5c-2.2,0-4.4,0-6.6,0a9.32,9.32,0,0,0-9.43,9.61c0,4,0,8,0,12a9.41,9.41,0,0,0,9.68,9.77q6.34,0,12.71,0a9.36,9.36,0,0,0,9.71-9.71q0-6,0-12c0-5.74-4-9.62-9.71-9.67C25.92,61.12,23.8,61.14,21.68,61.14Z"/><path d="M74.5,43.41c-3,0-6,.34-8.89-.07A12.21,12.21,0,0,1,55.26,31.12c0-4.08,0-8.15,0-12.22,0-7.19,4.69-12.55,11.87-13A127.35,127.35,0,0,1,82.88,6a12.16,12.16,0,0,1,11,12q.09,6.72,0,13.45A12.47,12.47,0,0,1,81.84,43.62c-2.45.06-4.89,0-7.34,0Zm.18-34.33c-2.16,0-4.32,0-6.48,0a9.29,9.29,0,0,0-9.65,9.62q-.07,6,0,12.1a9.37,9.37,0,0,0,9.68,9.62q6.36,0,12.71,0a9.41,9.41,0,0,0,9.73-9.72c0-4,0-8,0-12A9.33,9.33,0,0,0,81,9.09C78.92,9.07,76.8,9.08,74.68,9.08Z"/><path d="M68.52,84.23l.79-3.17a25.08,25.08,0,0,0,3.21.8,7.55,7.55,0,0,0,2.88-.17,1.59,1.59,0,0,0,.43-2.94,14.69,14.69,0,0,0-2.18-1.07A21.13,21.13,0,0,1,71,76.41a4.57,4.57,0,0,1,.31-8.09c2.8-1.52,5.7-1.2,8.7-.15l-.88,3C78,71,77,70.69,76,70.59a4.24,4.24,0,0,0-2,.27,1.44,1.44,0,0,0-.29,2.61,8.87,8.87,0,0,0,2,1c.88.41,1.81.74,2.65,1.22a4.56,4.56,0,0,1,2.48,4.55,4.65,4.65,0,0,1-2.84,4.11C74.81,85.74,71.73,85.4,68.52,84.23Z"/><path d="M19,29.21c-.37,1.24-.74,2.39-1,3.57-.15.61-.38.9-1.06.87-1,0-2.11,0-3.29,0,.11-.44.18-.79.28-1.12,1.58-5.08,3.18-10.16,4.74-15.26.22-.72.53-1.06,1.34-1,1.38.08,3.12-.44,4.05.21s1,2.45,1.46,3.75c1.33,4.14,2.63,8.29,3.95,12.44.08.26.13.54.25,1-1.34,0-2.59,0-3.83,0-.23,0-.54-.41-.64-.7-.36-1-.61-2-1-3a1.16,1.16,0,0,0-.81-.64C21.93,29.17,20.47,29.21,19,29.21Zm4.43-3-2-6.82-1.84,6.82Z"/><path d="M19.81,79.23v5.64h-4v-17c3.26-.31,6.52-.87,9.7.41a4.68,4.68,0,0,1,3,4.62c0,2.19-.77,4.13-2.89,5A43.66,43.66,0,0,1,19.81,79.23Zm0-3.62c1.84.46,3.53,0,4.24-1.07a2.49,2.49,0,0,0,0-3c-1.11-1.46-2.7-1.11-4.26-1Z"/><path d="M72.65,33.59H68.77V16.51a23.84,23.84,0,0,1,8.79.08,4.92,4.92,0,0,1,3.86,4.5c.19,2.56-.86,4.72-3.12,5.54a40.2,40.2,0,0,1-5.65,1.22v5.74Zm0-9.34c1.94.59,3.84,0,4.5-1.31a2.57,2.57,0,0,0-.53-3.11c-.69-.58-3.18-1-3.73-.55a.76.76,0,0,0-.23.52C72.65,21.29,72.66,22.79,72.66,24.25Z"/></svg>