<svg id="Layer_1" data-name="Layer 1" xmlns="http://www.w3.org/2000/svg" width="100" height="100" viewBox="0 0 100 100"><title>faster-delivery</title><path d="M32.17,96c-1.74-.61-3.43-1.31-4.48-2.95-.45-.7-.79-1.47-1.25-2.31H12.89v-23H6.61l8-13.87,8,13.85H16.44v5.2H64.35V37c-.39,0-.73-.06-1.06-.06-5.59,0-11.18,0-16.77,0a1.28,1.28,0,0,0-1.38.86A23.67,23.67,0,0,1,.57,32.89C.37,32,.19,31.12,0,30.24V25.18a3.42,3.42,0,0,0,.22-.61A23.62,23.62,0,0,1,17.39,4.92c1.24-.34,2.5-.59,3.75-.88H26.2c1,.23,2.06.44,3.09.68A23.71,23.71,0,0,1,47,32.27c-.08.36-.12.73-.19,1.22H68v11h1.37c5.4,0,10.8,0,16.19,0a1.77,1.77,0,0,1,1.68.88c4.1,6,8.24,12,12.34,18a2.39,2.39,0,0,1,.44,1.25c0,8.53,0,17.07,0,25.61,0,.14,0,.28-.08.51H86.69c-.81,2.93-2.88,4.46-5.57,5.31h-2.3c-.35-.12-.71-.26-1.06-.37a6.61,6.61,0,0,1-4.31-4A1.24,1.24,0,0,0,72,90.66c-7.36,0-14.71,0-22.06,0-3,0-6,0-9,0-.33,0-.88.14-.95.34-.92,2.74-3,4.17-5.59,4.93Zm-5.61-8.79c.07-.2.13-.38.2-.56a7,7,0,0,1,6.59-4.67,6.9,6.9,0,0,1,6.53,4.56c.29.77.72.73,1.3.73h30.9c.33,0,.67,0,1,0C74.24,83.9,76.45,82,79.92,82s5.66,2,6.78,5.18h9.76c0-.21.05-.36.05-.5q0-10.51,0-21a2.42,2.42,0,0,0-.44-1.25c-3.58-5.24-7.2-10.46-10.78-15.71a1.57,1.57,0,0,0-1.5-.76c-4.9,0-9.8,0-14.7,0-.33,0-.66,0-1.12.07V76.71H16.42V87.17ZM43.93,27.69A20.23,20.23,0,0,0,23.31,7.51c-10.95,0-19.92,9.27-19.82,20.61S13.47,48.26,24.32,48A20.41,20.41,0,0,0,43.93,27.69ZM83.42,89a3.54,3.54,0,0,0-3.48-3.54A3.6,3.6,0,0,0,76.34,89a3.66,3.66,0,0,0,3.56,3.51A3.59,3.59,0,0,0,83.42,89ZM29.83,89a3.59,3.59,0,0,0,3.53,3.51A3.67,3.67,0,0,0,36.91,89a3.6,3.6,0,0,0-3.61-3.55A3.55,3.55,0,0,0,29.83,89Z"/><path d="M25.4,26H34v3.35H22.06V11.66H25.4Z"/></svg>