<svg id="Layer_1" data-name="Layer 1" xmlns="http://www.w3.org/2000/svg" viewBox="0 0 1238.23 437"><defs><style>.cls-4,.cls-6{fill:none;stroke-miterlimit:10;stroke-width:3px}.cls-3{fill:#ece1ce}.cls-4{stroke:#eac8a5}.cls-5{fill:#2f1113}.cls-6{stroke:#2f1113}</style></defs><path fill="#eac8a5" d="M415.51 0v437h407.97V.1L415.51 0z"/><path stroke="#df9926" fill="none" stroke-miterlimit="10" stroke-width="3" d="M434.61 170.99l369.77 1.14"/><path class="cls-3" d="M830.64.12V436.9h407.97V0L830.64.12z"/><path class="cls-4" d="M849.74 170.99l369.77-.06"/><path class="cls-3" d="M.38 0v437h407.97V.1L.38 0z"/><path class="cls-4" d="M19.48 170.99l369.77-.06"/><path class="cls-5" d="M128.56 86.4V63.59h4.74l5.89 9.78a63.44 63.44 0 0 1 3.89 7.63h.06c-.27-3-.37-6-.37-9.47v-8h3.86V86.4h-4.3l-6-10a80.07 80.07 0 0 1-4.1-7.89h-.1c.17 3 .2 6 .2 9.72v8.17zM154.22 79.33c.1 3 2.43 4.26 5.07 4.26a12.47 12.47 0 0 0 4.57-.74l.61 2.88a15.61 15.61 0 0 1-5.75 1c-5.35 0-8.5-3.28-8.5-8.32 0-4.57 2.78-8.87 8.06-8.87s7.1 4.4 7.1 8a10.09 10.09 0 0 1-.13 1.76zm7.24-2.91c0-1.52-.64-4-3.42-4-2.57 0-3.65 2.34-3.82 4zM173.51 65.22v4.7h4V73h-4v7.27c0 2 .54 3 2.13 3a5.8 5.8 0 0 0 1.63-.21l.07 3.19a9.43 9.43 0 0 1-3 .4 4.81 4.81 0 0 1-3.58-1.35c-.88-1-1.29-2.44-1.29-4.6V73h-2.37v-3.08h2.37V66.2zM183.36 69.92l1.73 7.48c.37 1.76.74 3.55 1 5.35h.07c.33-1.8.87-3.62 1.35-5.32l2.13-7.51h3.39l2.06 7.31c.51 1.93 1 3.72 1.32 5.52h.07c.27-1.8.64-3.59 1.08-5.52l1.83-7.31h4.09l-5.13 16.48h-3.85l-2-6.7a51.36 51.36 0 0 1-1.25-5.28h-.07A40.76 40.76 0 0 1 190 79.7l-2.1 6.7H184l-4.9-16.48zM221.44 78c0 6.06-4.26 8.77-8.46 8.77-4.67 0-8.26-3.22-8.26-8.5s3.56-8.73 8.53-8.73 8.19 3.46 8.19 8.46zm-12.44.18c0 3.18 1.56 5.58 4.1 5.58 2.37 0 4-2.33 4-5.65 0-2.57-1.15-5.52-4-5.52s-4.1 2.85-4.1 5.59zM224.86 75.23c0-2.23 0-3.82-.13-5.31h3.62l.14 3.15h.13a4.91 4.91 0 0 1 4.5-3.52 4.22 4.22 0 0 1 1 .1v3.93a5.62 5.62 0 0 0-1.22-.14 3.67 3.67 0 0 0-3.72 3.15 6.94 6.94 0 0 0-.13 1.29v8.52h-4.17zM241.08 77.16h.07a31 31 0 0 1 1.31-1.93l4-5.31h5l-6.09 6.74 7 9.74h-5.11l-4.74-7.27-1.42 1.66v5.61h-4.16v-24h4.16zM128.19 116.43a9.2 9.2 0 0 0 4.23 1.19c1.82 0 2.64-.75 2.64-1.83s-.68-1.69-2.71-2.41c-3.22-1.11-4.57-2.87-4.54-4.8 0-2.91 2.41-5.18 6.23-5.18a9.67 9.67 0 0 1 4.37 1l-.82 3a7.34 7.34 0 0 0-3.48-1c-1.49 0-2.3.71-2.3 1.72s.78 1.56 2.87 2.31c3 1.08 4.37 2.6 4.4 5 0 3-2.33 5.14-6.7 5.14a10.63 10.63 0 0 1-5-1.15zM147.28 99.07v4.7h4v3.12h-4v7.27c0 2 .54 3 2.13 3A6.19 6.19 0 0 0 151 117l.07 3.18a9.36 9.36 0 0 1-3 .4 4.82 4.82 0 0 1-3.59-1.35c-.88-.95-1.29-2.44-1.29-4.6v-7.75h-2.36v-3.12h2.36v-3.72zM154.39 109.09c0-2.24 0-3.83-.14-5.32h3.62l.14 3.15h.13a4.91 4.91 0 0 1 4.5-3.52 4.31 4.31 0 0 1 1 .1v3.93a5.62 5.62 0 0 0-1.22-.14 3.68 3.68 0 0 0-3.73 3.15 7.91 7.91 0 0 0-.13 1.29v8.52h-4.16zM175.41 120.25l-.28-1.82H175a6.13 6.13 0 0 1-4.87 2.2 4.9 4.9 0 0 1-5.18-4.91c0-4.16 3.69-6.26 9.78-6.23v-.27c0-1.08-.44-2.88-3.35-2.88a8.75 8.75 0 0 0-4.43 1.22l-.81-2.7a11.77 11.77 0 0 1 6-1.46c5.28 0 6.81 3.35 6.81 6.94v6a26.38 26.38 0 0 0 .23 4zm-.55-8c-2.94-.07-5.75.58-5.75 3.08a2.19 2.19 0 0 0 2.37 2.37 3.36 3.36 0 0 0 3.25-2.27 3 3 0 0 0 .13-.91zM187.9 99.07v4.7h4v3.12h-4v7.27c0 2 .54 3 2.13 3a6.19 6.19 0 0 0 1.62-.2l.07 3.18a9.36 9.36 0 0 1-3 .4 4.82 4.82 0 0 1-3.59-1.35c-.88-.95-1.28-2.44-1.28-4.6v-7.75h-2.37v-3.12h2.37V100zM197.75 113.18c.1 3 2.44 4.27 5.08 4.27a12.43 12.43 0 0 0 4.56-.75l.61 2.88a15.61 15.61 0 0 1-5.75 1c-5.35 0-8.49-3.28-8.49-8.32 0-4.57 2.77-8.87 8.05-8.87s7.11 4.4 7.11 8a9.88 9.88 0 0 1-.14 1.76zm7.24-2.91c0-1.52-.64-4-3.42-4-2.57 0-3.65 2.34-3.82 4zM227.33 103.77c-.07 1.12-.13 2.47-.13 4.74v9.34c0 3.45-.71 5.92-2.44 7.48a9.49 9.49 0 0 1-6.36 2 11.71 11.71 0 0 1-5.76-1.32l.92-3.15a9.94 9.94 0 0 0 4.8 1.25c2.71 0 4.74-1.42 4.74-5v-1.42h-.1a5.56 5.56 0 0 1-4.8 2.43c-4.1 0-7-3.38-7-8.05 0-5.42 3.52-8.7 7.48-8.7a5.17 5.17 0 0 1 4.77 2.57h.07l.17-2.2zm-4.3 6.6a4 4 0 0 0-.13-1.11 3.46 3.46 0 0 0-3.39-2.68c-2.33 0-4.06 2-4.06 5.38 0 2.81 1.43 5.08 4 5.08a3.57 3.57 0 0 0 3.39-2.5 7.31 7.31 0 0 0 .16-1.49zM234.27 103.77l3 8.84c.34 1 .68 2.26.92 3.21h.1c.27-.95.57-2.16.88-3.25l2.57-8.8h4.47L242.06 115c-2.27 6.16-3.79 8.9-5.76 10.59a8.26 8.26 0 0 1-4.36 2.13l-.95-3.52a7 7 0 0 0 2.44-1.15 7.18 7.18 0 0 0 2.27-2.6 1.67 1.67 0 0 0 .27-.75 1.83 1.83 0 0 0-.24-.81l-6-15.13zM558.13 79.94l-2 6.46h-4.29l7.31-22.81h5.31l7.44 22.81h-4.47l-2.06-6.46zm6.53-3.15l-1.79-5.62c-.45-1.38-.82-2.94-1.16-4.26h-.06c-.34 1.32-.68 2.91-1.09 4.26l-1.76 5.62zM574.58 82.58a9.36 9.36 0 0 0 4.23 1.18c1.83 0 2.64-.74 2.64-1.82s-.68-1.7-2.71-2.41c-3.21-1.11-4.57-2.87-4.53-4.8 0-2.91 2.4-5.18 6.22-5.18a9.67 9.67 0 0 1 4.37 1l-.8 2.92a7.48 7.48 0 0 0-3.49-.94c-1.49 0-2.3.71-2.3 1.72s.78 1.56 2.88 2.3c3 1.09 4.36 2.61 4.4 5 0 3-2.34 5.14-6.7 5.14a10.6 10.6 0 0 1-5-1.15zM588.7 82.58a9.32 9.32 0 0 0 4.23 1.18c1.82 0 2.64-.74 2.64-1.82s-.68-1.7-2.71-2.41c-3.22-1.11-4.57-2.87-4.54-4.8 0-2.91 2.41-5.18 6.23-5.18a9.67 9.67 0 0 1 4.37 1l-.82 2.94a7.47 7.47 0 0 0-3.48-.94c-1.49 0-2.3.71-2.3 1.72s.77 1.56 2.87 2.3c3 1.09 4.37 2.61 4.4 5 0 3-2.33 5.14-6.7 5.14a10.6 10.6 0 0 1-5-1.15zM606 79.33c.1 3 2.43 4.26 5.08 4.26a12.45 12.45 0 0 0 4.56-.74l.61 2.88a15.61 15.61 0 0 1-5.75 1c-5.35 0-8.5-3.28-8.5-8.32 0-4.57 2.78-8.87 8.06-8.87s7.11 4.4 7.11 8a9.88 9.88 0 0 1-.14 1.76zm7.24-2.91c0-1.52-.64-4-3.42-4-2.57 0-3.65 2.34-3.82 4zM625.25 65.22v4.7h4V73h-4v7.27c0 2 .54 3 2.13 3a5.75 5.75 0 0 0 1.63-.21l.07 3.19a9.4 9.4 0 0 1-3 .4 4.84 4.84 0 0 1-3.59-1.35c-.88-1-1.29-2.44-1.29-4.6V73h-2.37v-3.08h2.37V66.2zM553.39 108.68c0-1.89 0-3.49-.14-4.91h3.59l.17 2.44h.1a5.69 5.69 0 0 1 5.08-2.81 4.76 4.76 0 0 1 4.57 3h.07a6.19 6.19 0 0 1 2-2.07 5.5 5.5 0 0 1 3.31-1c2.74 0 5.52 1.86 5.52 7.14v9.71h-4.06v-9.1c0-2.74-1-4.36-3-4.36a3.17 3.17 0 0 0-2.91 2.19 6.13 6.13 0 0 0-.2 1.39v9.88h-4.06v-9.54c0-2.3-.92-3.92-2.84-3.92a3.24 3.24 0 0 0-3 2.36 3.57 3.57 0 0 0-.24 1.36v9.74h-4.06zM591.37 120.25l-.27-1.82h-.1a6.16 6.16 0 0 1-4.88 2.2 4.9 4.9 0 0 1-5.18-4.91c0-4.16 3.69-6.26 9.78-6.23v-.27c0-1.08-.43-2.88-3.35-2.88a8.75 8.75 0 0 0-4.43 1.22l-.81-2.7a11.8 11.8 0 0 1 6-1.46c5.28 0 6.81 3.35 6.81 6.94v6a27.78 27.78 0 0 0 .23 4zm-.54-8c-3-.07-5.76.58-5.76 3.08a2.19 2.19 0 0 0 2.37 2.37 3.36 3.36 0 0 0 3.25-2.27 3 3 0 0 0 .14-.91zM599.29 108.68c0-1.89 0-3.49-.13-4.91h3.65l.2 2.47h.11a5.94 5.94 0 0 1 5.24-2.84c2.88 0 5.86 1.86 5.86 7.07v9.78h-4.17V111c0-2.37-.88-4.16-3.14-4.16a3.49 3.49 0 0 0-3.25 2.43 4.12 4.12 0 0 0-.17 1.36v9.67h-4.2zM627.93 120.25l-.27-1.82h-.11a6.13 6.13 0 0 1-4.87 2.2 4.9 4.9 0 0 1-5.18-4.91c0-4.16 3.69-6.26 9.78-6.23v-.27c0-1.08-.44-2.88-3.35-2.88a8.75 8.75 0 0 0-4.43 1.22l-.81-2.7a11.8 11.8 0 0 1 5.95-1.46c5.28 0 6.81 3.35 6.81 6.94v6a26.38 26.38 0 0 0 .23 4zm-.55-8c-2.94-.07-5.75.58-5.75 3.08a2.19 2.19 0 0 0 2.37 2.37 3.36 3.36 0 0 0 3.25-2.27 3 3 0 0 0 .13-.91zM650.91 103.77c-.07 1.12-.13 2.47-.13 4.74v9.34c0 3.45-.72 5.92-2.44 7.48a9.51 9.51 0 0 1-6.36 2 11.68 11.68 0 0 1-5.76-1.32l.92-3.15a9.91 9.91 0 0 0 4.8 1.25c2.71 0 4.74-1.42 4.74-5v-1.42h-.07a5.57 5.57 0 0 1-4.8 2.43c-4.1 0-7-3.38-7-8.05 0-5.42 3.52-8.7 7.48-8.7a5.2 5.2 0 0 1 4.77 2.57h.07l.17-2.2zm-4.3 6.6a4 4 0 0 0-.13-1.11 3.46 3.46 0 0 0-3.39-2.68c-2.33 0-4.06 2-4.06 5.38 0 2.81 1.42 5.08 4 5.08a3.55 3.55 0 0 0 3.38-2.5 7.31 7.31 0 0 0 .17-1.49zM658.19 113.18c.1 3 2.44 4.27 5.08 4.27a12.49 12.49 0 0 0 4.57-.75l.61 2.88a15.71 15.71 0 0 1-5.76 1c-5.35 0-8.49-3.28-8.49-8.32 0-4.57 2.77-8.87 8-8.87s7.11 4.4 7.11 8a9.88 9.88 0 0 1-.14 1.76zm7.24-2.91c0-1.52-.64-4-3.41-4-2.58 0-3.66 2.34-3.83 4zM672.71 108.68c0-1.89 0-3.49-.13-4.91h3.59l.16 2.44h.11a5.69 5.69 0 0 1 5.07-2.81 4.75 4.75 0 0 1 4.57 3h.07a6.19 6.19 0 0 1 2-2.07 5.51 5.51 0 0 1 3.32-1c2.74 0 5.51 1.86 5.51 7.14v9.71H693v-9.1c0-2.74-1-4.36-2.94-4.36a3.17 3.17 0 0 0-2.96 2.28 6.13 6.13 0 0 0-.21 1.39v9.88h-4.06v-9.54c0-2.3-.91-3.92-2.84-3.92a3.24 3.24 0 0 0-3 2.36 3.57 3.57 0 0 0-.24 1.36v9.74h-4.06zM704.36 113.18c.1 3 2.44 4.27 5.08 4.27a12.45 12.45 0 0 0 4.57-.75l.61 2.88a15.67 15.67 0 0 1-5.76 1c-5.34 0-8.49-3.28-8.49-8.32 0-4.57 2.77-8.87 8-8.87s7.11 4.4 7.11 8a11.21 11.21 0 0 1-.13 1.76zm7.25-2.91c0-1.52-.65-4-3.42-4-2.57 0-3.66 2.34-3.83 4zM718.89 108.68c0-1.89 0-3.49-.14-4.91h3.66l.2 2.47h.1a6 6 0 0 1 5.29-2.84c2.87 0 5.85 1.86 5.85 7.07v9.78h-4.16V111c0-2.37-.88-4.16-3.15-4.16a3.49 3.49 0 0 0-3.25 2.43 4.41 4.41 0 0 0-.17 1.36v9.67h-4.19zM742.85 99.07v4.7h4v3.12h-4v7.27c0 2 .54 3 2.13 3a6.28 6.28 0 0 0 1.63-.2l.07 3.18a9.43 9.43 0 0 1-3 .4 4.78 4.78 0 0 1-3.58-1.35c-.88-.95-1.29-2.44-1.29-4.6v-7.75h-2.37v-3.12h2.37V100zM960.56 63.59h13.16V67h-9v6.3h8.39v3.41h-8.39v9.69h-4.16zM977.08 62.37h4.19v24h-4.19zM988.72 79.33c.1 3 2.44 4.26 5.08 4.26a12.51 12.51 0 0 0 4.57-.74l.61 2.88a15.71 15.71 0 0 1-5.76 1c-5.34 0-8.49-3.28-8.49-8.32 0-4.57 2.77-8.87 8-8.87s7.11 4.4 7.11 8a9.88 9.88 0 0 1-.14 1.76zm7.28-2.91c0-1.52-.64-4-3.41-4-2.58 0-3.66 2.34-3.83 4zM1006.19 79.33c.1 3 2.44 4.26 5.07 4.26a12.47 12.47 0 0 0 4.57-.74l.61 2.88a15.61 15.61 0 0 1-5.75 1c-5.35 0-8.5-3.28-8.5-8.32 0-4.57 2.78-8.87 8.06-8.87s7.11 4.4 7.11 8a9.88 9.88 0 0 1-.14 1.76zm7.24-2.91c0-1.52-.64-4-3.42-4-2.57 0-3.65 2.34-3.82 4zM1025.48 65.22v4.7h4V73h-4v7.27c0 2 .54 3 2.14 3a5.72 5.72 0 0 0 1.62-.21l.07 3.19a9.38 9.38 0 0 1-3 .4 4.83 4.83 0 0 1-3.58-1.35c-.88-1-1.29-2.44-1.29-4.6V73h-2.37v-3.08h2.37V66.2zM976.06 111.86c0 6.06-4.27 8.77-8.46 8.77-4.67 0-8.26-3.22-8.26-8.5s3.55-8.73 8.53-8.73 8.19 3.45 8.19 8.46zm-12.42.17c0 3.18 1.55 5.59 4.09 5.59 2.37 0 4-2.34 4-5.66 0-2.57-1.15-5.51-4-5.51s-4.09 2.84-4.09 5.55zM979.48 109.26c0-2.17-.07-3.93-.13-5.49H983l.2 2.54h.07a6.43 6.43 0 0 1 5.65-2.91c3.79 0 6.94 3.25 6.94 8.39 0 6-3.76 8.84-7.51 8.84a5.42 5.42 0 0 1-4.64-2.2h-.07V127h-4.16zm4.16 4.09a4.32 4.32 0 0 0 .14 1.15 3.76 3.76 0 0 0 3.65 2.91c2.64 0 4.2-2.2 4.2-5.45 0-2.91-1.42-5.28-4.09-5.28a3.9 3.9 0 0 0-3.73 3.08 3.84 3.84 0 0 0-.17 1zM1004.06 99.07v4.7h4v3.12h-4v7.27c0 2 .54 3 2.13 3a6.19 6.19 0 0 0 1.62-.2l.07 3.18a9.36 9.36 0 0 1-3 .4 4.8 4.8 0 0 1-3.59-1.35c-.88-.95-1.29-2.44-1.29-4.6v-7.75h-2.36v-3.12h2.36V100zM1015.6 99.17a2.34 2.34 0 1 1-2.34-2.27 2.23 2.23 0 0 1 2.34 2.27zm-4.43 21.08v-16.48h4.19v16.48zM1019.83 108.68c0-1.89 0-3.49-.13-4.91h3.58l.17 2.44h.1a5.72 5.72 0 0 1 5.08-2.81 4.75 4.75 0 0 1 4.57 3h.07a6.19 6.19 0 0 1 2-2.07 5.5 5.5 0 0 1 3.31-1c2.75 0 5.52 1.86 5.52 7.14v9.71h-4.06v-9.1c0-2.74-1-4.36-2.94-4.36a3.18 3.18 0 0 0-2.92 2.19 6.13 6.13 0 0 0-.2 1.39v9.88H1030v-9.54c0-2.3-.91-3.92-2.84-3.92a3.24 3.24 0 0 0-3 2.36 3.57 3.57 0 0 0-.24 1.36v9.74h-4.06zM1053 99.17a2.34 2.34 0 1 1-2.34-2.27 2.2 2.2 0 0 1 2.34 2.27zm-4.43 21.08v-16.48h4.19v16.48zM1055.65 117.85l6.19-7.92c.85-1 1.56-1.83 2.44-2.77v-.07h-8v-3.32h13.1v2.54l-6.06 7.75c-.81 1-1.59 1.93-2.43 2.81v.07h8.7v3.31h-13.91zM1081.71 120.25l-.27-1.82h-.1a6.16 6.16 0 0 1-4.88 2.2 4.89 4.89 0 0 1-5.17-4.91c0-4.16 3.68-6.26 9.78-6.23v-.27c0-1.08-.44-2.88-3.36-2.88a8.75 8.75 0 0 0-4.43 1.22l-.81-2.7a11.81 11.81 0 0 1 6-1.46c5.28 0 6.8 3.35 6.8 6.94v6a27.78 27.78 0 0 0 .23 4zm-.54-8c-3-.07-5.76.58-5.76 3.08a2.19 2.19 0 0 0 2.37 2.37 3.36 3.36 0 0 0 3.25-2.27 3 3 0 0 0 .14-.91zM1094.2 99.07v4.7h4v3.12h-4v7.27c0 2 .54 3 2.13 3a6.34 6.34 0 0 0 1.63-.2l.07 3.18a9.43 9.43 0 0 1-3 .4 4.78 4.78 0 0 1-3.58-1.35c-.88-.95-1.29-2.44-1.29-4.6v-7.75h-2.37v-3.12h2.37V100zM1105.74 99.17a2.34 2.34 0 0 1-4.67 0 2.34 2.34 0 0 1 4.67 0zm-4.43 21.08v-16.48h4.2v16.48zM1125.65 111.86c0 6.06-4.27 8.77-8.47 8.77-4.67 0-8.25-3.22-8.25-8.5s3.55-8.73 8.53-8.73 8.19 3.45 8.19 8.46zm-12.43.17c0 3.18 1.56 5.59 4.1 5.59 2.37 0 4-2.34 4-5.66 0-2.57-1.15-5.51-4-5.51s-4.1 2.84-4.1 5.55zM1129.07 108.68c0-1.89 0-3.49-.14-4.91h3.66l.2 2.47h.1a6 6 0 0 1 5.25-2.84c2.88 0 5.85 1.86 5.85 7.07v9.78h-4.16V111c0-2.37-.88-4.16-3.15-4.16a3.49 3.49 0 0 0-3.25 2.43 4.41 4.41 0 0 0-.17 1.36v9.67h-4.19zM77.08 206.94a32.23 32.23 0 0 1 4.7-.35c3.18 0 5.44.73 6.93 2.13a7.88 7.88 0 0 1 2.42 6.15 9.06 9.06 0 0 1-2.47 6.65c-1.6 1.6-4.24 2.46-7.56 2.46a37.6 37.6 0 0 1-4-.2zm2.21 15.14a14.35 14.35 0 0 0 2.24.12c4.72 0 7.29-2.64 7.29-7.26 0-4-2.26-6.6-6.94-6.6a12.38 12.38 0 0 0-2.59.23zM95.26 218.09c0 3 2 4.27 4.22 4.27a8 8 0 0 0 3.4-.64l.38 1.6a9.89 9.89 0 0 1-4.09.76c-3.78 0-6-2.49-6-6.19s2.18-6.63 5.76-6.63c4 0 5.08 3.53 5.08 5.79a10 10 0 0 1-.07 1zm6.55-1.6c0-1.42-.58-3.63-3.09-3.63-2.26 0-3.25 2.08-3.43 3.63zM106.74 214.87c0-1.27 0-2.32-.1-3.33h2l.1 2h.08a4.24 4.24 0 0 1 3.86-2.26 3.65 3.65 0 0 1 3.48 2.46 5.08 5.08 0 0 1 1.37-1.6 4.2 4.2 0 0 1 2.72-.86c1.62 0 4 1.07 4 5.33v7.24h-2.15v-7c0-2.36-.86-3.78-2.67-3.78a2.89 2.89 0 0 0-2.64 2 3.72 3.72 0 0 0-.17 1.12v7.59h-2.19v-7.37c0-2-.86-3.37-2.56-3.37a3.06 3.06 0 0 0-2.77 2.23 3 3 0 0 0-.18 1.09v7.42h-2.18zM134.72 223.83l-.18-1.55h-.08a4.57 4.57 0 0 1-3.75 1.83 3.5 3.5 0 0 1-3.76-3.53c0-3 2.64-4.6 7.39-4.57v-.26a2.54 2.54 0 0 0-2.8-2.84 6.23 6.23 0 0 0-3.2.91l-.5-1.47a7.58 7.58 0 0 1 4-1.09c3.76 0 4.67 2.56 4.67 5v4.59a17.55 17.55 0 0 0 .21 3zm-.33-6.27c-2.44-.05-5.21.38-5.21 2.76a2 2 0 0 0 2.11 2.14 3.06 3.06 0 0 0 3-2.06 2.22 2.22 0 0 0 .13-.71zM140.15 214.87c0-1.27 0-2.32-.1-3.33h2l.13 2h.05a4.51 4.51 0 0 1 4.06-2.31c1.7 0 4.34 1 4.34 5.23v7.34h-2.23v-7.09c0-2-.74-3.63-2.85-3.63a3.17 3.17 0 0 0-3 2.29 3 3 0 0 0-.16 1v7.39h-2.23zM164.85 205.8v14.85c0 1.1 0 2.34.11 3.18h-2l-.1-2.13a4.56 4.56 0 0 1-4.19 2.41c-3 0-5.26-2.52-5.26-6.25 0-4.09 2.52-6.6 5.51-6.6a4.12 4.12 0 0 1 3.71 1.88h.05v-7.34zm-2.23 10.74a4.29 4.29 0 0 0-.1-.94 3.29 3.29 0 0 0-3.23-2.59c-2.31 0-3.68 2-3.68 4.75 0 2.49 1.22 4.54 3.63 4.54a3.37 3.37 0 0 0 3.28-2.66 4.25 4.25 0 0 0 .1-1zM174.17 223.83v-10.59h-1.73v-1.7h1.73V211a5.81 5.81 0 0 1 1.42-4.3 4.3 4.3 0 0 1 3-1.14 5.08 5.08 0 0 1 1.9.36l-.3 1.72a3.38 3.38 0 0 0-1.42-.28c-1.91 0-2.39 1.68-2.39 3.56v.66h3v1.7h-3v10.59zM192.15 217.58c0 4.55-3.15 6.53-6.12 6.53-3.33 0-5.89-2.44-5.89-6.32 0-4.12 2.69-6.53 6.09-6.53s5.92 2.56 5.92 6.32zm-9.75.13c0 2.69 1.54 4.72 3.73 4.72s3.73-2 3.73-4.77c0-2.08-1-4.72-3.68-4.72s-3.78 2.43-3.78 4.77zM195 215.37c0-1.44 0-2.69-.1-3.83h2l.07 2.41h.1a3.69 3.69 0 0 1 3.41-2.69 2.41 2.41 0 0 1 .63.08v2.1a3.45 3.45 0 0 0-.76-.07 3.14 3.14 0 0 0-3 2.87 6.33 6.33 0 0 0-.1 1v6.55H195zM204.26 218.09c.05 3 2 4.27 4.21 4.27a8 8 0 0 0 3.4-.64l.38 1.6a9.83 9.83 0 0 1-4.08.76c-3.79 0-6-2.49-6-6.19s2.19-6.63 5.77-6.63c4 0 5.07 3.53 5.07 5.79a10 10 0 0 1-.07 1zm6.55-1.6c0-1.42-.59-3.63-3.1-3.63-2.26 0-3.25 2.08-3.43 3.63zM224.49 223.37a8.14 8.14 0 0 1-3.53.71c-3.71 0-6.12-2.51-6.12-6.27a6.24 6.24 0 0 1 6.6-6.52 7.57 7.57 0 0 1 3.1.63l-.51 1.73a5.1 5.1 0 0 0-2.59-.59c-2.81 0-4.34 2.08-4.34 4.65 0 2.84 1.83 4.59 4.27 4.59a6.47 6.47 0 0 0 2.74-.6zM233.91 223.83l-.18-1.55h-.07a4.61 4.61 0 0 1-3.76 1.83 3.5 3.5 0 0 1-3.76-3.53c0-3 2.64-4.6 7.39-4.57v-.26a2.53 2.53 0 0 0-2.79-2.84 6.17 6.17 0 0 0-3.2.91l-.51-1.47a7.62 7.62 0 0 1 4-1.09c3.75 0 4.67 2.56 4.67 5v4.59a17.62 17.62 0 0 0 .2 3zm-.33-6.27c-2.44-.05-5.2.38-5.2 2.76a2 2 0 0 0 2.1 2.14 3.05 3.05 0 0 0 3-2.06 2.22 2.22 0 0 0 .13-.71zM239 221.54a5.87 5.87 0 0 0 2.94.89c1.63 0 2.39-.81 2.39-1.83s-.63-1.65-2.29-2.26c-2.2-.78-3.25-2-3.25-3.47 0-2 1.6-3.61 4.25-3.61a6.22 6.22 0 0 1 3 .76l-.56 1.63a4.73 4.73 0 0 0-2.52-.71c-1.32 0-2.05.76-2.05 1.67s.73 1.47 2.33 2.08c2.14.82 3.23 1.88 3.23 3.71 0 2.16-1.68 3.68-4.6 3.68a7 7 0 0 1-3.45-.84zM252.09 208v3.53h3.2v1.7h-3.2v6.63c0 1.52.43 2.38 1.67 2.38a4.84 4.84 0 0 0 1.3-.15l.1 1.68a5.44 5.44 0 0 1-2 .3 3.09 3.09 0 0 1-2.41-.94 4.52 4.52 0 0 1-.87-3.2v-6.7H248v-1.7h1.9v-2.95zM260.29 208.09a1.39 1.39 0 0 1-2.77 0 1.36 1.36 0 0 1 1.4-1.4 1.33 1.33 0 0 1 1.37 1.4zm-2.49 15.74v-12.29h2.2v12.29zM263.74 214.87c0-1.27 0-2.32-.1-3.33h2l.13 2h.05a4.51 4.51 0 0 1 4.06-2.31c1.7 0 4.34 1 4.34 5.23v7.34H272v-7.09c0-2-.74-3.63-2.85-3.63a3.17 3.17 0 0 0-3 2.29 3.25 3.25 0 0 0-.16 1v7.39h-2.23zM288.42 211.54c-.05.89-.1 1.88-.1 3.38v7.13c0 2.82-.56 4.55-1.75 5.61a6.51 6.51 0 0 1-4.47 1.47 7.92 7.92 0 0 1-4.09-1l.56-1.7a6.89 6.89 0 0 0 3.6 1c2.29 0 4-1.19 4-4.29v-1.37h-.05a4.38 4.38 0 0 1-3.91 2.06c-3 0-5.23-2.59-5.23-6 0-4.17 2.72-6.53 5.54-6.53a4.09 4.09 0 0 1 3.83 2.13h.05l.1-1.85zm-2.31 4.85a3.28 3.28 0 0 0-.13-1 3.22 3.22 0 0 0-3.12-2.36c-2.13 0-3.66 1.8-3.66 4.65 0 2.41 1.22 4.42 3.63 4.42a3.27 3.27 0 0 0 3.1-2.29 3.78 3.78 0 0 0 .18-1.19zM77.08 262.1h9.22v1.9h-7v5.68h6.48v1.83h-6.49v7.75h-2.21zM88.94 261.19h2.24v18h-2.24zM96.18 273.48c0 3 2 4.26 4.21 4.26a8.14 8.14 0 0 0 3.4-.63l.38 1.6a10 10 0 0 1-4.08.76c-3.79 0-6-2.49-6-6.19s2.19-6.63 5.77-6.63c4 0 5.08 3.53 5.08 5.79a9.62 9.62 0 0 1-.08 1zm6.55-1.6c0-1.42-.59-3.63-3.1-3.63-2.26 0-3.25 2.08-3.43 3.63zM108.9 273.48c0 3 2 4.26 4.21 4.26a8.14 8.14 0 0 0 3.4-.63l.38 1.6a10 10 0 0 1-4.08.76c-3.79 0-6-2.49-6-6.19s2.19-6.63 5.77-6.63c4 0 5.08 3.53 5.08 5.79a9.62 9.62 0 0 1-.08 1zm6.55-1.6c0-1.42-.59-3.63-3.1-3.63-2.26 0-3.25 2.08-3.43 3.63zM123.06 263.4v3.53h3.2v1.7h-3.2v6.63c0 1.52.44 2.38 1.68 2.38a4.81 4.81 0 0 0 1.29-.15l.11 1.68a5.71 5.71 0 0 1-2 .3 3.11 3.11 0 0 1-2.42-.94 4.57 4.57 0 0 1-.86-3.2v-6.7H119v-1.7h1.9V264zM134.16 270.94c0-1.57 0-2.84-.1-4h2l.1 2.11h.05a4.85 4.85 0 0 1 4.37-2.39c3 0 5.21 2.51 5.21 6.24 0 4.42-2.7 6.61-5.59 6.61a4.3 4.3 0 0 1-3.78-1.93v6.67h-2.21zm2.21 3.27a5.18 5.18 0 0 0 .1.92 3.43 3.43 0 0 0 3.35 2.61c2.36 0 3.73-1.93 3.73-4.74 0-2.47-1.29-4.57-3.65-4.57a3.56 3.56 0 0 0-3.38 2.76 3.47 3.47 0 0 0-.15.92zM148.6 261.19h2.24v18h-2.24zM161.4 279.22l-.18-1.55h-.08a4.57 4.57 0 0 1-3.75 1.83 3.51 3.51 0 0 1-3.76-3.53c0-3 2.64-4.6 7.39-4.57v-.26a2.54 2.54 0 0 0-2.8-2.84 6.07 6.07 0 0 0-3.19.91l-.51-1.47a7.61 7.61 0 0 1 4-1.09c3.76 0 4.68 2.56 4.68 5v4.59a17.62 17.62 0 0 0 .2 3zm-.33-6.27c-2.44-.06-5.21.38-5.21 2.76a2 2 0 0 0 2.11 2.14 3.05 3.05 0 0 0 3-2.06 2.22 2.22 0 0 0 .13-.71zM166.83 270.25c0-1.27 0-2.31-.1-3.32h2l.13 2a4.51 4.51 0 0 1 4.06-2.31c1.7 0 4.34 1 4.34 5.23v7.34h-2.23v-7.09c0-2-.74-3.63-2.85-3.63a3.17 3.17 0 0 0-3 2.29 3.26 3.26 0 0 0-.15 1v7.39h-2.24zM180.92 270.25c0-1.27 0-2.31-.1-3.32h2l.13 2a4.51 4.51 0 0 1 4.06-2.31c1.7 0 4.34 1 4.34 5.23v7.34h-2.23v-7.09c0-2-.74-3.63-2.85-3.63a3.17 3.17 0 0 0-3 2.29 3.26 3.26 0 0 0-.15 1v7.39h-2.24zM197.5 263.47a1.32 1.32 0 0 1-1.42 1.38 1.33 1.33 0 0 1-1.35-1.38 1.36 1.36 0 0 1 1.4-1.39 1.32 1.32 0 0 1 1.37 1.39zm-2.5 15.75v-12.29h2.24v12.29zM201 270.25c0-1.27 0-2.31-.1-3.32h2l.13 2a4.51 4.51 0 0 1 4.06-2.31c1.7 0 4.34 1 4.34 5.23v7.34h-2.23v-7.09c0-2-.74-3.63-2.84-3.63a3.17 3.17 0 0 0-3 2.29 3.26 3.26 0 0 0-.15 1v7.39H201zM225.63 266.93c0 .89-.1 1.88-.1 3.37v7.14c0 2.82-.56 4.54-1.75 5.61a6.51 6.51 0 0 1-4.47 1.47 8 8 0 0 1-4.09-1l.56-1.7a7 7 0 0 0 3.61 1c2.28 0 4-1.19 4-4.29v-1.37a4.4 4.4 0 0 1-3.91 2.06c-3 0-5.23-2.59-5.23-6 0-4.16 2.71-6.52 5.53-6.52a4.09 4.09 0 0 1 3.83 2.13h.06l.1-1.85zm-2.31 4.85a3 3 0 0 0-.13-1 3.21 3.21 0 0 0-3.12-2.36c-2.13 0-3.65 1.8-3.65 4.65 0 2.41 1.21 4.41 3.63 4.41a3.25 3.25 0 0 0 3.09-2.28 3.78 3.78 0 0 0 .18-1.19zM245.41 279.22c-.48-.49-.94-1-1.6-1.68a7 7 0 0 1-5 2c-3.33 0-5.26-2.24-5.26-4.8a5.61 5.61 0 0 1 3.35-5v-.08a5.87 5.87 0 0 1-1.42-3.58 4.16 4.16 0 0 1 4.34-4.22 3.57 3.57 0 0 1 3.79 3.64c0 1.8-1 3.22-3.76 4.57v.07c1.45 1.68 3.07 3.56 4.16 4.78a12.57 12.57 0 0 0 1.65-5h2a13 13 0 0 1-2.46 6.33c.92 1 1.8 1.93 2.82 3zm-2.69-3c-1-1.12-2.92-3.2-4.83-5.38a4.2 4.2 0 0 0-2.21 3.48 3.38 3.38 0 0 0 3.51 3.45 4.78 4.78 0 0 0 3.53-1.5zm-5.21-10.43a4.81 4.81 0 0 0 1.3 3.07c1.72-1 2.84-1.91 2.84-3.35a2 2 0 0 0-2-2.21 2.23 2.23 0 0 0-2.14 2.54zM266.48 273c0 4.55-3.15 6.53-6.12 6.53-3.32 0-5.89-2.44-5.89-6.33 0-4.11 2.69-6.52 6.1-6.52s5.91 2.53 5.91 6.32zm-9.75.13c0 2.69 1.55 4.72 3.73 4.72s3.74-2 3.74-4.77c0-2.09-1-4.73-3.69-4.73s-3.78 2.41-3.78 4.75zM269.3 270.94c0-1.57-.05-2.84-.1-4h2l.1 2.11h.06a4.82 4.82 0 0 1 4.36-2.39c3 0 5.21 2.51 5.21 6.24 0 4.42-2.69 6.61-5.59 6.61a4.3 4.3 0 0 1-3.78-1.93h-.05v6.67h-2.21zm2.21 3.27a5.18 5.18 0 0 0 .1.92 3.44 3.44 0 0 0 3.35 2.61c2.36 0 3.73-1.93 3.73-4.74 0-2.47-1.29-4.57-3.65-4.57a3.56 3.56 0 0 0-3.38 2.76 3.47 3.47 0 0 0-.15.92zM286.44 263.4v3.53h3.19v1.7h-3.19v6.63c0 1.52.43 2.38 1.67 2.38a4.84 4.84 0 0 0 1.3-.15l.1 1.68a5.67 5.67 0 0 1-2 .3 3.09 3.09 0 0 1-2.41-.94 4.52 4.52 0 0 1-.87-3.2v-6.7h-1.9v-1.7h1.9V264zM294.64 263.47a1.39 1.39 0 0 1-2.77 0 1.36 1.36 0 0 1 1.39-1.39 1.33 1.33 0 0 1 1.38 1.39zm-2.49 15.75v-12.29h2.23v12.29zM298.09 270.25c0-1.27 0-2.31-.1-3.32h1.95l.1 2h.08a4.23 4.23 0 0 1 3.86-2.26 3.64 3.64 0 0 1 3.48 2.46h.05a5.08 5.08 0 0 1 1.37-1.6 4.2 4.2 0 0 1 2.72-.86c1.62 0 4 1.06 4 5.33v7.24h-2.18v-7c0-2.36-.86-3.78-2.67-3.78a2.89 2.89 0 0 0-2.64 2 3.7 3.7 0 0 0-.18 1.12v7.59h-2.18v-7.37c0-2-.86-3.37-2.56-3.37a3 3 0 0 0-2.77 2.23 3 3 0 0 0-.18 1.09v7.42h-2.18zM321.75 263.47a1.32 1.32 0 0 1-1.42 1.38 1.33 1.33 0 0 1-1.35-1.38 1.36 1.36 0 0 1 1.4-1.39 1.32 1.32 0 0 1 1.37 1.39zm-2.49 15.75v-12.29h2.24v12.29zM323.81 277.92l5.56-7.23c.53-.66 1-1.25 1.6-1.91h-6.66v-1.8h9.37v1.39l-5.49 7.14c-.5.68-1 1.29-1.57 1.93v.05h7.18v1.78h-10zM342.87 279.22l-.17-1.55h-.08a4.61 4.61 0 0 1-3.76 1.83 3.51 3.51 0 0 1-3.76-3.5c0-3 2.64-4.6 7.39-4.57v-.26a2.53 2.53 0 0 0-2.79-2.84 6.11 6.11 0 0 0-3.2.91l-.51-1.47a7.65 7.65 0 0 1 4-1.09c3.76 0 4.67 2.56 4.67 5v4.59a17.62 17.62 0 0 0 .2 3zm-.33-6.27c-2.43-.06-5.2.38-5.2 2.76a2 2 0 0 0 2.11 2.14 3.07 3.07 0 0 0 3-2.06 2.52 2.52 0 0 0 .12-.71zM350.9 263.4v3.53h3.19v1.7h-3.19v6.63c0 1.52.43 2.38 1.67 2.38a4.84 4.84 0 0 0 1.3-.15l.1 1.68a5.67 5.67 0 0 1-2 .3 3.09 3.09 0 0 1-2.41-.94 4.52 4.52 0 0 1-.87-3.2v-6.7h-1.9v-1.7h1.9V264zM359.1 263.47a1.39 1.39 0 0 1-2.77 0 1.36 1.36 0 0 1 1.39-1.39 1.33 1.33 0 0 1 1.38 1.39zm-2.49 15.75v-12.29h2.23v12.29zM373.67 273c0 4.55-3.15 6.53-6.12 6.53-3.33 0-5.89-2.44-5.89-6.33 0-4.11 2.69-6.52 6.09-6.52s5.92 2.53 5.92 6.32zm-9.75.13c0 2.69 1.55 4.72 3.73 4.72s3.73-2 3.73-4.77c0-2.09-1-4.73-3.68-4.73s-3.78 2.41-3.78 4.75zM376.49 270.25c0-1.27 0-2.31-.11-3.32h2l.12 2h.05a4.52 4.52 0 0 1 4.07-2.31c1.7 0 4.34 1 4.34 5.23v7.34h-2.24v-7.09c0-2-.73-3.63-2.84-3.63a3.18 3.18 0 0 0-3 2.29 3.26 3.26 0 0 0-.15 1v7.39h-2.23zM76.78 331.91a7.83 7.83 0 0 0 4 1.12c2.26 0 3.58-1.19 3.58-2.92s-.91-2.51-3.22-3.4c-2.8-1-4.52-2.44-4.52-4.85 0-2.67 2.21-4.65 5.53-4.65a7.85 7.85 0 0 1 3.79.84l-.61 1.8A6.91 6.91 0 0 0 82 319c-2.34 0-3.23 1.4-3.23 2.57 0 1.6 1 2.38 3.4 3.3 2.9 1.11 4.37 2.51 4.37 5s-2 4.93-6 4.93a8.87 8.87 0 0 1-4.37-1.09zM98.44 334.15a8.33 8.33 0 0 1-3.53.71c-3.71 0-6.12-2.51-6.12-6.27a6.24 6.24 0 0 1 6.6-6.53 7.39 7.39 0 0 1 3.1.64l-.49 1.72a5.23 5.23 0 0 0-2.59-.58c-2.82 0-4.34 2.08-4.34 4.65 0 2.84 1.83 4.59 4.26 4.59a6.39 6.39 0 0 0 2.75-.61zM101.05 316.58h2.24v7.67a4.05 4.05 0 0 1 1.6-1.58 4.58 4.58 0 0 1 2.28-.63c1.65 0 4.29 1 4.29 5.25v7.32h-2.23v-7.06c0-2-.74-3.66-2.85-3.66a3.21 3.21 0 0 0-3 2.24 2.61 2.61 0 0 0-.15 1.06v7.42h-2.24zM116.39 328.87c0 3 2 4.26 4.21 4.26a8.14 8.14 0 0 0 3.4-.63l.38 1.6a10 10 0 0 1-4.08.76c-3.79 0-6-2.49-6-6.2s2.14-6.66 5.7-6.66c4 0 5.08 3.53 5.08 5.79a9.62 9.62 0 0 1-.08 1zm6.55-1.6c0-1.42-.59-3.63-3.1-3.63-2.26 0-3.25 2.08-3.43 3.63zM138.48 316.58v14.85c0 1.09 0 2.34.1 3.18h-2l-.1-2.14h-.05a4.55 4.55 0 0 1-4.19 2.41c-3 0-5.26-2.51-5.26-6.24 0-4.09 2.52-6.6 5.51-6.6a4.12 4.12 0 0 1 3.71 1.88h.05v-7.34zm-2.24 10.74a3.76 3.76 0 0 0-.1-.94 3.29 3.29 0 0 0-3.22-2.59c-2.32 0-3.69 2-3.69 4.75 0 2.49 1.22 4.54 3.63 4.54a3.37 3.37 0 0 0 3.28-2.66 3.75 3.75 0 0 0 .1-1zM152.46 331.25c0 1.27 0 2.39.11 3.36h-2l-.13-2h-.05a4.63 4.63 0 0 1-4.06 2.28c-1.93 0-4.24-1.06-4.24-5.38v-7.18h2.23v6.8c0 2.34.71 3.91 2.74 3.91a3.24 3.24 0 0 0 2.95-2 3.45 3.45 0 0 0 .2-1.14v-7.54h2.23zM156.17 316.58h2.24v18h-2.24zM163.41 328.87c.05 3 2 4.26 4.21 4.26a8.14 8.14 0 0 0 3.4-.63l.38 1.6a10 10 0 0 1-4.08.76c-3.79 0-6-2.49-6-6.2S163.46 322 167 322c4 0 5.08 3.53 5.08 5.79a9.62 9.62 0 0 1-.08 1zm6.55-1.6c0-1.42-.59-3.63-3.1-3.63-2.26 0-3.25 2.08-3.43 3.63zM180.26 326.33c0-1.58 0-2.85-.1-4h2l.1 2.1a4.84 4.84 0 0 1 4.37-2.38c3 0 5.2 2.51 5.2 6.24 0 4.42-2.69 6.6-5.58 6.6a4.33 4.33 0 0 1-3.79-1.92h-.05v6.67h-2.21zm2.21 3.27a5.18 5.18 0 0 0 .1.92 3.45 3.45 0 0 0 3.36 2.61c2.36 0 3.73-1.93 3.73-4.75 0-2.46-1.3-4.57-3.66-4.57a3.57 3.57 0 0 0-3.37 2.77 3.48 3.48 0 0 0-.16.92zM194.71 316.58h2.23v18h-2.23zM207.5 334.61l-.17-1.55h-.08a4.57 4.57 0 0 1-3.76 1.82 3.49 3.49 0 0 1-3.75-3.52c0-3 2.64-4.6 7.38-4.57v-.26a2.53 2.53 0 0 0-2.79-2.84 6.13 6.13 0 0 0-3.2.91l-.51-1.47a7.65 7.65 0 0 1 4-1.09c3.76 0 4.67 2.56 4.67 5v4.6a16.55 16.55 0 0 0 .21 2.95zm-.33-6.28c-2.43-.05-5.2.38-5.2 2.77a2 2 0 0 0 2.11 2.13 3.06 3.06 0 0 0 3-2.05 2.52 2.52 0 0 0 .12-.71zM212.94 325.64c0-1.27 0-2.31-.1-3.32h2l.12 2h.04a4.53 4.53 0 0 1 4.07-2.31c1.7 0 4.34 1 4.34 5.23v7.34h-2.24v-7.09c0-2-.73-3.63-2.84-3.63a3.19 3.19 0 0 0-3 2.29 3.26 3.26 0 0 0-.15 1v7.39h-2.23zM227 325.64c0-1.27 0-2.31-.1-3.32h2l.12 2h.05a4.53 4.53 0 0 1 4.07-2.31c1.7 0 4.34 1 4.34 5.23v7.34h-2.24v-7.09c0-2-.73-3.63-2.84-3.63a3.17 3.17 0 0 0-3 2.29 3 3 0 0 0-.16 1v7.39H227zM243.61 318.86a1.39 1.39 0 0 1-2.77 0 1.36 1.36 0 0 1 1.4-1.39 1.33 1.33 0 0 1 1.37 1.39zm-2.49 15.75v-12.29h2.23v12.29zM247.06 325.64c0-1.27 0-2.31-.1-3.32h2l.13 2h.05a4.51 4.51 0 0 1 4.06-2.31c1.7 0 4.34 1 4.34 5.23v7.34h-2.23v-7.09c0-2-.74-3.63-2.85-3.63a3.17 3.17 0 0 0-3 2.29 3 3 0 0 0-.16 1v7.39h-2.23zM271.74 322.32c-.05.89-.1 1.88-.1 3.37v7.14c0 2.82-.56 4.54-1.76 5.61a6.49 6.49 0 0 1-4.46 1.47 7.92 7.92 0 0 1-4.09-1l.56-1.7a7 7 0 0 0 3.6 1c2.29 0 4-1.19 4-4.29v-1.42h-.05a4.37 4.37 0 0 1-3.91 2.05c-3 0-5.23-2.59-5.23-6 0-4.16 2.72-6.52 5.54-6.52a4.07 4.07 0 0 1 3.83 2.13h.05l.1-1.85zm-2.31 4.85a3.28 3.28 0 0 0-.13-1 3.23 3.23 0 0 0-3.12-2.36c-2.14 0-3.66 1.8-3.66 4.65 0 2.41 1.22 4.41 3.63 4.41a3.27 3.27 0 0 0 3.1-2.28 3.78 3.78 0 0 0 .18-1.19zM291.51 334.61c-.48-.49-.93-1-1.59-1.68a7 7 0 0 1-5 1.95c-3.32 0-5.25-2.23-5.25-4.79 0-2.34 1.39-3.94 3.35-5V325a5.87 5.87 0 0 1-1.42-3.58 4.15 4.15 0 0 1 4.34-4.22 3.56 3.56 0 0 1 3.78 3.63c0 1.81-1 3.23-3.76 4.57v.08c1.45 1.68 3.08 3.55 4.17 4.77a12.46 12.46 0 0 0 1.65-5h2a13 13 0 0 1-2.46 6.32l2.82 3zm-2.69-2.95c-1-1.12-2.92-3.2-4.82-5.38a4.18 4.18 0 0 0-2.21 3.48 3.38 3.38 0 0 0 3.5 3.45 4.76 4.76 0 0 0 3.53-1.55zm-5.2-10.44a4.86 4.86 0 0 0 1.29 3.08c1.73-1 2.85-1.91 2.85-3.35a2 2 0 0 0-2-2.21 2.22 2.22 0 0 0-2.14 2.48zM310.23 334.15a8.33 8.33 0 0 1-3.53.71c-3.71 0-6.12-2.51-6.12-6.27a6.24 6.24 0 0 1 6.6-6.53 7.39 7.39 0 0 1 3.1.64l-.51 1.72a5.23 5.23 0 0 0-2.59-.58c-2.82 0-4.34 2.08-4.34 4.65 0 2.84 1.83 4.59 4.26 4.59a6.31 6.31 0 0 0 2.74-.61zM323.81 328.36c0 4.54-3.15 6.52-6.12 6.52-3.33 0-5.89-2.43-5.89-6.32 0-4.11 2.69-6.52 6.09-6.52s5.92 2.56 5.92 6.32zm-9.75.13c0 2.69 1.55 4.72 3.73 4.72s3.73-2 3.73-4.77c0-2.09-1-4.73-3.68-4.73s-3.78 2.44-3.78 4.78zM326.63 325.64c0-1.27 0-2.31-.11-3.32h2l.13 2h.05a4.52 4.52 0 0 1 4.07-2.31c1.7 0 4.34 1 4.34 5.23v7.34h-2.24v-7.09c0-2-.73-3.63-2.84-3.63a3.18 3.18 0 0 0-3 2.29 3.26 3.26 0 0 0-.15 1v7.39h-2.23zM343.31 318.79v3.53h3.2V324h-3.2v6.62c0 1.53.43 2.39 1.67 2.39a4.84 4.84 0 0 0 1.3-.15l.1 1.67a5.41 5.41 0 0 1-2 .31 3.09 3.09 0 0 1-2.41-.94 4.52 4.52 0 0 1-.87-3.2V324h-1.9v-1.7h1.9v-2.95zM349 326.15c0-1.45 0-2.69-.1-3.83h1.95l.08 2.41h.1a3.68 3.68 0 0 1 3.4-2.69 2.51 2.51 0 0 1 .64.07v2.11a3.41 3.41 0 0 0-.76-.08 3.14 3.14 0 0 0-3 2.87 6.44 6.44 0 0 0-.1 1v6.56H349zM368.19 328.36c0 4.54-3.15 6.52-6.12 6.52-3.33 0-5.89-2.43-5.89-6.32 0-4.11 2.69-6.52 6.09-6.52s5.92 2.56 5.92 6.32zm-9.75.13c0 2.69 1.55 4.72 3.73 4.72s3.73-2 3.73-4.77c0-2.09-1-4.73-3.68-4.73s-3.78 2.44-3.78 4.78zM371 316.58h2.24v18H371z"/><circle class="cls-6" cx="41.78" cy="217" r="4.5"/><circle class="cls-6" cx="41.78" cy="271" r="4.5"/><circle class="cls-6" cx="41.76" cy="331" r="4.48"/><path class="cls-5" d="M504.11 223.07a16.06 16.06 0 0 1-5.26.94 8 8 0 0 1-8.78-8.64c0-5.1 3.53-8.83 9.27-8.83a10.65 10.65 0 0 1 4.26.78l-.53 1.81a8.8 8.8 0 0 0-3.78-.74c-4.17 0-6.88 2.59-6.88 6.88s2.61 6.91 6.6 6.91a7.26 7.26 0 0 0 2.94-.46v-5.1h-3.48v-1.78h5.64zM509.69 206.71v17.12h-2.2v-17.12zM513.25 221.14a7.83 7.83 0 0 0 4 1.11c2.26 0 3.58-1.19 3.58-2.92s-.91-2.51-3.23-3.4c-2.79-1-4.52-2.44-4.52-4.85 0-2.66 2.21-4.64 5.54-4.64a7.79 7.79 0 0 1 3.78.83l-.61 1.81a6.7 6.7 0 0 0-3.25-.82c-2.33 0-3.22 1.4-3.22 2.57 0 1.6 1 2.38 3.4 3.3 2.9 1.12 4.37 2.51 4.37 5s-2 4.92-6 4.92a8.84 8.84 0 0 1-4.37-1.09zM538.18 223.83l-.18-1.55h-.07a4.61 4.61 0 0 1-3.76 1.83 3.5 3.5 0 0 1-3.76-3.53c0-3 2.64-4.6 7.39-4.57v-.26a2.53 2.53 0 0 0-2.79-2.84 6.17 6.17 0 0 0-3.2.91l-.51-1.47a7.62 7.62 0 0 1 4-1.09c3.75 0 4.67 2.56 4.67 5v4.59a17.62 17.62 0 0 0 .2 3zm-.33-6.27c-2.44-.05-5.21.38-5.21 2.76a2 2 0 0 0 2.11 2.14 3.05 3.05 0 0 0 3-2.06 2.22 2.22 0 0 0 .13-.71zM543.61 215.55c0-1.57-.05-2.84-.1-4h2l.1 2.11a4.83 4.83 0 0 1 4.37-2.39c3 0 5.2 2.51 5.2 6.25 0 4.41-2.69 6.6-5.58 6.6a4.32 4.32 0 0 1-3.79-1.93v6.68h-2.21zm2.21 3.28a5.07 5.07 0 0 0 .1.91 3.45 3.45 0 0 0 3.35 2.62c2.37 0 3.74-1.93 3.74-4.75 0-2.47-1.3-4.57-3.66-4.57a3.58 3.58 0 0 0-3.35 2.76 3.93 3.93 0 0 0-.15.92zM558.06 215.55c0-1.57 0-2.84-.1-4h2l.1 2.11h.05a4.85 4.85 0 0 1 4.37-2.39c3 0 5.21 2.51 5.21 6.25 0 4.41-2.69 6.6-5.59 6.6a4.3 4.3 0 0 1-3.78-1.93h-.05v6.68h-2.21zm2.21 3.28a5.07 5.07 0 0 0 .1.91 3.44 3.44 0 0 0 3.35 2.62c2.36 0 3.73-1.93 3.73-4.75 0-2.47-1.29-4.57-3.65-4.57a3.56 3.56 0 0 0-3.38 2.76 3.47 3.47 0 0 0-.15.92zM572.5 205.8h2.24v18h-2.24zM581 208.09a1.31 1.31 0 0 1-1.42 1.37 1.33 1.33 0 0 1-1.35-1.37 1.37 1.37 0 0 1 1.4-1.4 1.33 1.33 0 0 1 1.37 1.4zm-2.49 15.74v-12.29h2.24v12.29zM593.19 223.37a8.09 8.09 0 0 1-3.52.71c-3.71 0-6.12-2.51-6.12-6.27a6.24 6.24 0 0 1 6.6-6.52 7.57 7.57 0 0 1 3.1.63l-.51 1.73a5.13 5.13 0 0 0-2.59-.59c-2.82 0-4.34 2.08-4.34 4.65 0 2.84 1.82 4.59 4.26 4.59a6.47 6.47 0 0 0 2.74-.6zM602.61 223.83l-.17-1.55h-.08a4.61 4.61 0 0 1-3.76 1.83 3.5 3.5 0 0 1-3.76-3.53c0-3 2.64-4.6 7.39-4.57v-.26a2.53 2.53 0 0 0-2.79-2.84 6.2 6.2 0 0 0-3.2.91l-.51-1.47a7.65 7.65 0 0 1 4-1.09c3.76 0 4.67 2.56 4.67 5v4.59a17.62 17.62 0 0 0 .2 3zm-.33-6.27c-2.43-.05-5.2.38-5.2 2.76a2 2 0 0 0 2.11 2.14 3.06 3.06 0 0 0 3-2.06 2.52 2.52 0 0 0 .12-.71zM610.64 208v3.53h3.19v1.7h-3.19v6.63c0 1.52.43 2.38 1.67 2.38a4.84 4.84 0 0 0 1.3-.15l.1 1.68a5.44 5.44 0 0 1-2 .3 3.09 3.09 0 0 1-2.41-.94 4.52 4.52 0 0 1-.87-3.2v-6.7h-1.9v-1.7h1.9v-2.95zM618.84 208.09a1.39 1.39 0 0 1-2.77 0 1.36 1.36 0 0 1 1.39-1.4 1.33 1.33 0 0 1 1.38 1.4zm-2.49 15.74v-12.29h2.23v12.29zM633.41 217.58c0 4.55-3.15 6.53-6.12 6.53-3.33 0-5.89-2.44-5.89-6.32 0-4.12 2.69-6.53 6.09-6.53s5.92 2.56 5.92 6.32zm-9.75.13c0 2.69 1.55 4.72 3.73 4.72s3.73-2 3.73-4.77c0-2.08-1-4.72-3.68-4.72s-3.78 2.43-3.78 4.77zM636.23 214.87c0-1.27 0-2.32-.1-3.33h2l.12 2a4.52 4.52 0 0 1 4.07-2.31c1.7 0 4.34 1 4.34 5.23v7.34h-2.24v-7.09c0-2-.73-3.63-2.84-3.63a3.18 3.18 0 0 0-3 2.29 3.26 3.26 0 0 0-.15 1v7.39h-2.23zM650 221.54a5.88 5.88 0 0 0 3 .89c1.62 0 2.38-.81 2.38-1.83s-.63-1.65-2.28-2.26c-2.21-.78-3.25-2-3.25-3.47 0-2 1.6-3.61 4.24-3.61a6.19 6.19 0 0 1 3 .76l-.56 1.63a4.72 4.72 0 0 0-2.51-.71c-1.32 0-2.06.76-2.06 1.67s.74 1.47 2.34 2.08c2.13.82 3.22 1.88 3.22 3.71 0 2.16-1.67 3.68-4.59 3.68a7 7 0 0 1-3.46-.84zM491.08 262.31a25.5 25.5 0 0 1 4.25-.33 7 7 0 0 1 4.79 1.42 4.6 4.6 0 0 1 1.5 3.58 5 5 0 0 1-1.32 3.65 7.07 7.07 0 0 1-5.23 1.88 7.48 7.48 0 0 1-1.78-.15v6.86h-2.21zm2.21 8.25a7.34 7.34 0 0 0 1.83.18c2.67 0 4.29-1.3 4.29-3.66s-1.6-3.35-4-3.35a8.8 8.8 0 0 0-2.09.18zM504.11 270.76c0-1.45 0-2.69-.1-3.83H506l.08 2.41h.1a3.68 3.68 0 0 1 3.4-2.69 2.51 2.51 0 0 1 .64.07v2.11a3.45 3.45 0 0 0-.76-.07 3.13 3.13 0 0 0-3 2.87 6.33 6.33 0 0 0-.1 1v6.55h-2.21zM513.4 273.48a3.93 3.93 0 0 0 4.22 4.26 8.17 8.17 0 0 0 3.4-.63l.38 1.6a10.06 10.06 0 0 1-4.09.76c-3.78 0-6-2.49-6-6.19s2.18-6.63 5.76-6.63c4 0 5.08 3.53 5.08 5.79a7.57 7.57 0 0 1-.08 1zm6.55-1.6c0-1.42-.58-3.63-3.1-3.63-2.26 0-3.25 2.08-3.42 3.63zM535.49 261.19V276c0 1.09 0 2.34.1 3.18h-2l-.11-2.14h-.05a4.53 4.53 0 0 1-4.19 2.42c-3 0-5.25-2.52-5.25-6.25 0-4.09 2.51-6.6 5.51-6.6a4.12 4.12 0 0 1 3.71 1.88v-7.34zm-2.23 10.74a3.77 3.77 0 0 0-.11-.94 3.28 3.28 0 0 0-3.22-2.59c-2.31 0-3.68 2-3.68 4.75 0 2.49 1.22 4.54 3.63 4.54a3.35 3.35 0 0 0 3.27-2.66 3.74 3.74 0 0 0 .11-1zM541.68 263.47a1.32 1.32 0 0 1-1.42 1.38 1.33 1.33 0 0 1-1.34-1.38 1.36 1.36 0 0 1 1.39-1.39 1.32 1.32 0 0 1 1.37 1.39zm-2.48 15.75v-12.29h2.23v12.29zM553.9 278.76a8.33 8.33 0 0 1-3.53.71c-3.71 0-6.12-2.51-6.12-6.27a6.25 6.25 0 0 1 6.6-6.53 7.39 7.39 0 0 1 3.1.64l-.51 1.73a5.1 5.1 0 0 0-2.59-.59c-2.82 0-4.34 2.08-4.34 4.65 0 2.84 1.83 4.59 4.26 4.59a6.39 6.39 0 0 0 2.75-.61zM559.53 263.4v3.53h3.2v1.7h-3.2v6.63c0 1.52.43 2.38 1.68 2.38a4.81 4.81 0 0 0 1.29-.15l.1 1.68a5.62 5.62 0 0 1-2 .3 3.1 3.1 0 0 1-2.41-.94 4.57 4.57 0 0 1-.86-3.2v-6.7h-1.91v-1.7h1.91V264zM567.73 263.47a1.32 1.32 0 0 1-1.42 1.38 1.33 1.33 0 0 1-1.35-1.38 1.36 1.36 0 0 1 1.4-1.39 1.32 1.32 0 0 1 1.37 1.39zm-2.49 15.75v-12.29h2.24v12.29zM572.05 266.93l2.41 6.9a30.36 30.36 0 0 1 1 3.15h.08c.28-1 .63-2 1-3.15l2.38-6.9h2.34l-4.82 12.29h-2.14l-4.67-12.29zM584.39 273.48c.05 3 2 4.26 4.21 4.26a8.14 8.14 0 0 0 3.4-.63l.38 1.6a10 10 0 0 1-4.08.76c-3.79 0-6-2.49-6-6.19s2.19-6.63 5.77-6.63c4 0 5.08 3.53 5.08 5.79a9.62 9.62 0 0 1-.08 1zm6.55-1.6c0-1.42-.59-3.63-3.1-3.63-2.26 0-3.25 2.08-3.43 3.63zM601.24 270.25c0-1.27 0-2.31-.1-3.32h2l.1 2h.08a4.21 4.21 0 0 1 3.85-2.26 3.62 3.62 0 0 1 3.48 2.46 5.1 5.1 0 0 1 1.38-1.6 4.15 4.15 0 0 1 2.71-.86c1.63 0 4 1.06 4 5.33v7.24h-2.18v-7c0-2.36-.87-3.78-2.67-3.78a2.89 2.89 0 0 0-2.64 2 3.7 3.7 0 0 0-.18 1.12v7.59h-2.18v-7.37c0-2-.87-3.37-2.57-3.37a3 3 0 0 0-2.76 2.23 3 3 0 0 0-.18 1.09v7.42h-2.19zM629.22 279.22l-.18-1.55H629a4.61 4.61 0 0 1-3.76 1.83 3.51 3.51 0 0 1-3.76-3.53c0-3 2.64-4.6 7.39-4.57v-.26a2.53 2.53 0 0 0-2.79-2.84 6.11 6.11 0 0 0-3.2.91l-.51-1.47a7.65 7.65 0 0 1 4-1.09c3.76 0 4.67 2.56 4.67 5v4.59a17.62 17.62 0 0 0 .2 3zm-.33-6.27c-2.43-.06-5.2.38-5.2 2.76a2 2 0 0 0 2.1 2.14 3.08 3.08 0 0 0 3-2.06 2.52 2.52 0 0 0 .12-.71zM637.14 263.47a1.38 1.38 0 1 1-2.76 0 1.36 1.36 0 0 1 1.39-1.39 1.32 1.32 0 0 1 1.37 1.39zm-2.48 15.75v-12.29h2.23v12.29zM640.6 270.25c0-1.27 0-2.31-.11-3.32h2l.13 2a4.51 4.51 0 0 1 4.06-2.31c1.71 0 4.35 1 4.35 5.23v7.34h-2.24v-7.09c0-2-.73-3.63-2.84-3.63a3.18 3.18 0 0 0-3 2.29 3.26 3.26 0 0 0-.15 1v7.39h-2.2zM657.28 263.4v3.53h3.2v1.7h-3.2v6.63c0 1.52.43 2.38 1.67 2.38a4.84 4.84 0 0 0 1.3-.15l.1 1.68a5.67 5.67 0 0 1-2 .3 3.09 3.09 0 0 1-2.41-.94 4.52 4.52 0 0 1-.87-3.2v-6.7h-1.9v-1.7h1.9V264zM664.08 273.48c0 3 2 4.26 4.21 4.26a8.22 8.22 0 0 0 3.41-.63l.38 1.6a10.06 10.06 0 0 1-4.09.76c-3.78 0-6-2.49-6-6.19s2.18-6.63 5.76-6.63c4 0 5.08 3.53 5.08 5.79a7.57 7.57 0 0 1-.08 1zm6.55-1.6c0-1.42-.58-3.63-3.1-3.63-2.26 0-3.25 2.08-3.42 3.63zM675.56 270.25c0-1.27 0-2.31-.11-3.32h2l.13 2h.05a4.51 4.51 0 0 1 4.06-2.31c1.71 0 4.35 1 4.35 5.23v7.34h-2.24v-7.09c0-2-.73-3.63-2.84-3.63a3.18 3.18 0 0 0-3 2.29 3.26 3.26 0 0 0-.15 1v7.39h-2.23zM696.45 279.22l-.18-1.55h-.07a4.61 4.61 0 0 1-3.76 1.83 3.51 3.51 0 0 1-3.76-3.53c0-3 2.64-4.6 7.39-4.57v-.26a2.53 2.53 0 0 0-2.79-2.84 6.08 6.08 0 0 0-3.2.91l-.51-1.47a7.65 7.65 0 0 1 4-1.09c3.76 0 4.67 2.56 4.67 5v4.59a17.62 17.62 0 0 0 .2 3zm-.33-6.27c-2.44-.06-5.2.38-5.2 2.76a2 2 0 0 0 2.1 2.14 3.05 3.05 0 0 0 3-2.06 2.22 2.22 0 0 0 .13-.71zM701.88 270.25c0-1.27 0-2.31-.1-3.32h2l.13 2h.05a4.51 4.51 0 0 1 4.06-2.31c1.7 0 4.34 1 4.34 5.23v7.34h-2.23v-7.09c0-2-.74-3.63-2.84-3.63a3.17 3.17 0 0 0-3 2.29 3.26 3.26 0 0 0-.15 1v7.39h-2.24zM724.73 278.76a8.24 8.24 0 0 1-3.52.71c-3.71 0-6.12-2.51-6.12-6.27a6.25 6.25 0 0 1 6.6-6.53 7.39 7.39 0 0 1 3.1.64l-.51 1.73a5.13 5.13 0 0 0-2.59-.59c-2.82 0-4.34 2.08-4.34 4.65 0 2.84 1.82 4.59 4.26 4.59a6.31 6.31 0 0 0 2.74-.61zM728.44 273.48a3.93 3.93 0 0 0 4.22 4.26 8.21 8.21 0 0 0 3.4-.63l.38 1.6a10.06 10.06 0 0 1-4.09.76c-3.78 0-6-2.49-6-6.19s2.18-6.63 5.76-6.63c4 0 5.08 3.53 5.08 5.79a7.57 7.57 0 0 1-.08 1zm6.55-1.6c0-1.42-.58-3.63-3.1-3.63-2.26 0-3.25 2.08-3.42 3.63zM492.25 328.87a3.93 3.93 0 0 0 4.22 4.26 8.17 8.17 0 0 0 3.4-.63l.38 1.6a10.06 10.06 0 0 1-4.09.76c-3.78 0-6-2.49-6-6.2s2.18-6.62 5.76-6.62c4 0 5.08 3.53 5.08 5.79a10.18 10.18 0 0 1-.07 1zm6.55-1.6c0-1.42-.58-3.63-3.09-3.63-2.26 0-3.25 2.08-3.43 3.63zM509.62 326.91v1.65h-6.27v-1.65zM512.31 317.49h2.21v15.26h7.31v1.86h-9.52zM535 328.36c0 4.54-3.15 6.52-6.12 6.52-3.32 0-5.89-2.43-5.89-6.32 0-4.11 2.69-6.52 6.1-6.52s5.91 2.56 5.91 6.32zm-9.75.13c0 2.69 1.55 4.72 3.73 4.72s3.74-2 3.74-4.77c0-2.09-1-4.73-3.68-4.73s-3.81 2.44-3.81 4.78zM548.39 322.32c0 .89-.1 1.88-.1 3.37v7.14c0 2.82-.56 4.54-1.76 5.61a6.49 6.49 0 0 1-4.46 1.47 7.92 7.92 0 0 1-4.09-1l.56-1.7a7 7 0 0 0 3.6 1c2.29 0 4-1.19 4-4.29v-1.42h-.05a4.37 4.37 0 0 1-3.91 2.05c-3 0-5.23-2.59-5.23-6 0-4.16 2.72-6.52 5.54-6.52a4.07 4.07 0 0 1 3.83 2.13h.05l.1-1.85zm-2.31 4.85a3.28 3.28 0 0 0-.13-1 3.23 3.23 0 0 0-3.12-2.36c-2.14 0-3.66 1.8-3.66 4.65 0 2.41 1.22 4.41 3.63 4.41a3.27 3.27 0 0 0 3.1-2.28 3.78 3.78 0 0 0 .18-1.19zM551.89 334.61c.05-.84.1-2.09.1-3.18v-14.85h2.21v7.72a4.58 4.58 0 0 1 4.19-2.26c3 0 5.21 2.54 5.18 6.27 0 4.39-2.77 6.57-5.51 6.57a4.36 4.36 0 0 1-4.11-2.31h-.08l-.1 2zm2.31-4.93a4.17 4.17 0 0 0 .1.81 3.45 3.45 0 0 0 3.35 2.62c2.34 0 3.74-1.91 3.74-4.73 0-2.46-1.27-4.57-3.66-4.57a3.57 3.57 0 0 0-3.4 2.75 4.41 4.41 0 0 0-.13.91zM577.56 328.36c0 4.54-3.15 6.52-6.12 6.52-3.33 0-5.89-2.43-5.89-6.32 0-4.11 2.69-6.52 6.09-6.52s5.92 2.56 5.92 6.32zm-9.75.13c0 2.69 1.55 4.72 3.73 4.72s3.73-2 3.73-4.77c0-2.09-1-4.73-3.68-4.73s-3.78 2.44-3.78 4.78zM591.5 328.36c0 4.54-3.15 6.52-6.12 6.52-3.33 0-5.89-2.43-5.89-6.32 0-4.11 2.69-6.52 6.09-6.52s5.92 2.56 5.92 6.32zm-9.75.13c0 2.69 1.55 4.72 3.73 4.72s3.73-2 3.73-4.77c0-2.09-1-4.73-3.68-4.73s-3.78 2.44-3.78 4.78zM596.52 328h.05c.31-.43.74-1 1.1-1.39l3.6-4.24H604l-4.75 5.05 5.41 7.24h-2.71l-4.24-5.9-1.19 1.24v4.63h-2.21v-18h2.21z"/><circle class="cls-6" cx="457.77" cy="217.26" r="4.48"/><circle class="cls-6" cx="458.14" cy="272" r="4.48"/><circle class="cls-6" cx="458.51" cy="326.74" r="4.48"/><path class="cls-5" d="M905.08 206.71h9.22v1.86h-7v5.69h6.48v1.82h-6.48v7.75h-2.21zM916.94 205.8h2.24v18h-2.24zM924.18 218.09c.05 3 2 4.27 4.21 4.27a8 8 0 0 0 3.4-.64l.38 1.6a9.83 9.83 0 0 1-4.08.76c-3.79 0-6.05-2.49-6.05-6.19s2.19-6.63 5.77-6.63c4 0 5.08 3.53 5.08 5.79a9.4 9.4 0 0 1-.08 1zm6.55-1.6c0-1.42-.59-3.63-3.1-3.63-2.26 0-3.25 2.08-3.43 3.63zM936.9 218.09c.05 3 2 4.27 4.21 4.27a8 8 0 0 0 3.4-.64l.38 1.6a9.83 9.83 0 0 1-4.08.76c-3.79 0-6-2.49-6-6.19s2.19-6.63 5.77-6.63c4 0 5.08 3.53 5.08 5.79a9.4 9.4 0 0 1-.08 1zm6.55-1.6c0-1.42-.59-3.63-3.1-3.63-2.26 0-3.25 2.08-3.43 3.63zM951.06 208v3.53h3.2v1.7h-3.2v6.63c0 1.52.44 2.38 1.68 2.38a4.81 4.81 0 0 0 1.29-.15l.11 1.68a5.48 5.48 0 0 1-2 .3 3.11 3.11 0 0 1-2.42-.94 4.57 4.57 0 0 1-.86-3.2v-6.7H947v-1.7h1.9v-2.95zM969 223.83l-.18-1.55h-.07a4.61 4.61 0 0 1-3.76 1.83 3.5 3.5 0 0 1-3.76-3.53c0-3 2.64-4.6 7.39-4.57v-.26a2.53 2.53 0 0 0-2.79-2.84 6.2 6.2 0 0 0-3.2.91l-.51-1.47a7.65 7.65 0 0 1 4-1.09c3.76 0 4.67 2.56 4.67 5v4.59a17.62 17.62 0 0 0 .2 3zm-.33-6.27c-2.44-.05-5.2.38-5.2 2.76a2 2 0 0 0 2.1 2.14 3.05 3.05 0 0 0 3-2.06 2.22 2.22 0 0 0 .13-.71zM974.39 214.87c0-1.27 0-2.32-.1-3.33h2l.13 2h.05a4.51 4.51 0 0 1 4.06-2.31c1.7 0 4.35 1 4.35 5.23v7.34h-2.24v-7.09c0-2-.74-3.63-2.84-3.63a3.17 3.17 0 0 0-3 2.29 3.26 3.26 0 0 0-.15 1v7.39h-2.24zM995.29 223.83l-.18-1.55H995a4.61 4.61 0 0 1-3.76 1.83 3.5 3.5 0 0 1-3.76-3.53c0-3 2.64-4.6 7.39-4.57v-.26a2.53 2.53 0 0 0-2.79-2.84 6.17 6.17 0 0 0-3.2.91l-.51-1.47a7.62 7.62 0 0 1 4-1.09c3.75 0 4.67 2.56 4.67 5v4.59a17.62 17.62 0 0 0 .2 3zm-.33-6.27c-2.44-.05-5.21.38-5.21 2.76a2 2 0 0 0 2.11 2.14 3.05 3.05 0 0 0 3-2.06 2.22 2.22 0 0 0 .13-.71zM1000.72 205.8h2.28v18h-2.24zM1007.53 211.54l2.69 7.26c.28.81.58 1.78.78 2.51h.06c.22-.73.48-1.67.78-2.56l2.44-7.21h2.36l-3.35 8.76c-1.6 4.21-2.69 6.37-4.21 7.69a6 6 0 0 1-2.75 1.45l-.56-1.88a5.92 5.92 0 0 0 2-1.09 6.8 6.8 0 0 0 1.88-2.49 1.71 1.71 0 0 0 .18-.53 1.79 1.79 0 0 0-.16-.59l-4.54-11.32zM1021.36 208v3.53h3.2v1.7h-3.2v6.63c0 1.52.43 2.38 1.68 2.38a4.81 4.81 0 0 0 1.29-.15l.11 1.68a5.48 5.48 0 0 1-2 .3 3.11 3.11 0 0 1-2.42-.94 4.57 4.57 0 0 1-.86-3.2v-6.7h-1.9v-1.7h1.9v-2.95zM1029.56 208.09a1.38 1.38 0 0 1-2.76 0 1.36 1.36 0 0 1 1.39-1.4 1.33 1.33 0 0 1 1.37 1.4zm-2.48 15.74v-12.29h2.23v12.29zM1041.78 223.37a8.18 8.18 0 0 1-3.53.71c-3.71 0-6.12-2.51-6.12-6.27a6.24 6.24 0 0 1 6.6-6.52 7.57 7.57 0 0 1 3.1.63l-.51 1.73a5.1 5.1 0 0 0-2.59-.59c-2.82 0-4.34 2.08-4.34 4.65 0 2.84 1.82 4.59 4.26 4.59a6.47 6.47 0 0 0 2.74-.6zM1044.08 221.54a5.91 5.91 0 0 0 3 .89c1.63 0 2.39-.81 2.39-1.83s-.64-1.65-2.29-2.26c-2.21-.78-3.25-2-3.25-3.47 0-2 1.6-3.61 4.24-3.61a6.16 6.16 0 0 1 3 .76l-.56 1.63a4.72 4.72 0 0 0-2.51-.71c-1.32 0-2.06.76-2.06 1.67s.74 1.47 2.34 2.08c2.13.82 3.23 1.88 3.23 3.71 0 2.16-1.68 3.68-4.6 3.68a7 7 0 0 1-3.45-.84zM905.08 262.1h2.21v15.26h7.32v1.86h-9.53zM923.8 279.22l-.18-1.55h-.08a4.57 4.57 0 0 1-3.75 1.83A3.51 3.51 0 0 1 916 276c0-3 2.64-4.6 7.39-4.57v-.26a2.54 2.54 0 0 0-2.8-2.84 6.13 6.13 0 0 0-3.2.91l-.5-1.47a7.58 7.58 0 0 1 4-1.09c3.76 0 4.68 2.56 4.68 5v4.59a17.62 17.62 0 0 0 .2 3zm-.33-6.27c-2.44-.06-5.21.38-5.21 2.76a2 2 0 0 0 2.11 2.14 3.06 3.06 0 0 0 3-2.06 2.22 2.22 0 0 0 .13-.71zM928.92 276.93a5.88 5.88 0 0 0 3 .89c1.63 0 2.39-.81 2.39-1.83s-.64-1.65-2.29-2.26c-2.21-.78-3.25-2-3.25-3.48 0-2 1.6-3.6 4.24-3.6a6.05 6.05 0 0 1 3 .76l-.56 1.63a4.71 4.71 0 0 0-2.51-.72c-1.32 0-2.06.77-2.06 1.68s.74 1.47 2.34 2.08c2.13.81 3.23 1.88 3.23 3.71 0 2.16-1.68 3.68-4.6 3.68a7 7 0 0 1-3.45-.84zM942 263.4v3.53h3.2v1.7H942v6.63c0 1.52.44 2.38 1.68 2.38a4.9 4.9 0 0 0 1.3-.15l.1 1.68a5.67 5.67 0 0 1-2 .3 3.12 3.12 0 0 1-2.42-.94 4.57 4.57 0 0 1-.86-3.2v-6.7h-1.9v-1.7h1.9V264zM953.07 270.25c0-1.27 0-2.31-.1-3.32h1.95l.1 2h.08a4.24 4.24 0 0 1 3.86-2.26 3.64 3.64 0 0 1 3.48 2.46 5.08 5.08 0 0 1 1.37-1.6 4.2 4.2 0 0 1 2.72-.86c1.62 0 4 1.06 4 5.33v7.24h-2.18v-7c0-2.36-.86-3.78-2.67-3.78a2.89 2.89 0 0 0-2.64 2 3.72 3.72 0 0 0-.17 1.12v7.59h-2.19v-7.37c0-2-.86-3.37-2.56-3.37a3 3 0 0 0-2.77 2.23 3 3 0 0 0-.18 1.09v7.42h-2.18zM976.73 263.47a1.32 1.32 0 0 1-1.42 1.38 1.33 1.33 0 0 1-1.35-1.38 1.36 1.36 0 0 1 1.4-1.39 1.32 1.32 0 0 1 1.37 1.39zm-2.49 15.75v-12.29h2.24v12.29zM980.18 261.19h2.24v18h-2.24zM987.42 273.48c.05 3 2 4.26 4.21 4.26a8.22 8.22 0 0 0 3.41-.63l.38 1.6a10.1 10.1 0 0 1-4.09.76c-3.79 0-6-2.49-6-6.19s2.18-6.63 5.76-6.63c4 0 5.08 3.53 5.08 5.79a7.57 7.57 0 0 1-.08 1zm6.55-1.6c0-1.42-.59-3.63-3.1-3.63-2.26 0-3.25 2.08-3.43 3.63zM1004.28 270.25c0-1.27 0-2.31-.11-3.32h2l.1 2h.08a4.22 4.22 0 0 1 3.86-2.26 3.62 3.62 0 0 1 3.47 2.46h.06a5.08 5.08 0 0 1 1.37-1.6 4.17 4.17 0 0 1 2.71-.86c1.63 0 4 1.06 4 5.33v7.24h-2.18v-7c0-2.36-.87-3.78-2.67-3.78a2.89 2.89 0 0 0-2.64 2 3.7 3.7 0 0 0-.18 1.12v7.59H1012v-7.37c0-2-.86-3.37-2.57-3.37a3 3 0 0 0-2.76 2.23 3 3 0 0 0-.18 1.09v7.42h-2.18zM1036.57 273c0 4.55-3.15 6.53-6.12 6.53-3.32 0-5.89-2.44-5.89-6.33 0-4.11 2.69-6.52 6.09-6.52s5.92 2.53 5.92 6.32zm-9.75.13c0 2.69 1.55 4.72 3.73 4.72s3.74-2 3.74-4.77c0-2.09-1-4.73-3.69-4.73s-3.78 2.41-3.78 4.75zM1039.29 279.22c0-.84.1-2.09.1-3.18v-14.85h2.21v7.72h.05a4.57 4.57 0 0 1 4.19-2.26c3 0 5.2 2.54 5.18 6.27 0 4.39-2.77 6.58-5.51 6.58a4.4 4.4 0 0 1-4.12-2.31h-.07l-.1 2zm2.31-4.93a4.17 4.17 0 0 0 .1.81 3.44 3.44 0 0 0 3.35 2.62c2.34 0 3.73-1.91 3.73-4.72 0-2.47-1.27-4.57-3.65-4.57a3.57 3.57 0 0 0-3.41 2.74 4.47 4.47 0 0 0-.12.91zM1056.32 263.47a1.32 1.32 0 0 1-1.42 1.38 1.33 1.33 0 0 1-1.35-1.38 1.36 1.36 0 0 1 1.4-1.39 1.32 1.32 0 0 1 1.37 1.39zm-2.49 15.75v-12.29h2.24v12.29zM1059.77 261.19h2.23v18h-2.24zM1068.25 263.47a1.38 1.38 0 1 1-2.76 0 1.36 1.36 0 0 1 1.39-1.39 1.32 1.32 0 0 1 1.37 1.39zm-2.49 15.75v-12.29h2.24v12.29zM1074.4 263.4v3.53h3.2v1.7h-3.2v6.63c0 1.52.43 2.38 1.67 2.38a4.84 4.84 0 0 0 1.3-.15l.1 1.68a5.67 5.67 0 0 1-2 .3 3.09 3.09 0 0 1-2.41-.94 4.52 4.52 0 0 1-.87-3.2v-6.7h-1.9v-1.7h1.9V264zM1081.15 266.93l2.69 7.26c.28.81.58 1.78.79 2.51.23-.73.48-1.67.79-2.56l2.43-7.21h2.36l-3.35 8.76c-1.6 4.21-2.69 6.37-4.21 7.69a6 6 0 0 1-2.74 1.45l-.56-1.88a5.88 5.88 0 0 0 1.95-1.09 6.8 6.8 0 0 0 1.88-2.49 1.71 1.71 0 0 0 .18-.53 2 2 0 0 0-.15-.59l-4.55-11.32zM905.08 317.72a23 23 0 0 1 4.25-.35c2.36 0 3.88.43 4.95 1.39a4.27 4.27 0 0 1 1.34 3.25 4.5 4.5 0 0 1-3.22 4.37v.08c1.32.45 2.1 1.67 2.51 3.45a28.18 28.18 0 0 0 1.32 4.7H914a22.87 22.87 0 0 1-1.15-4.09c-.5-2.36-1.42-3.25-3.42-3.33h-2.09v7.42h-2.21zm2.21 7.8h2.26c2.37 0 3.86-1.3 3.86-3.25 0-2.21-1.6-3.18-3.93-3.2a9.3 9.3 0 0 0-2.19.2zM929.89 328.36c0 4.54-3.15 6.52-6.12 6.52-3.32 0-5.89-2.43-5.89-6.32 0-4.11 2.69-6.52 6.09-6.52s5.92 2.56 5.92 6.32zm-9.75.13c0 2.69 1.55 4.72 3.73 4.72s3.74-2 3.74-4.77c0-2.09-1.05-4.73-3.69-4.73s-3.78 2.44-3.78 4.78zM943.83 328.36c0 4.54-3.15 6.52-6.12 6.52-3.33 0-5.89-2.43-5.89-6.32 0-4.11 2.69-6.52 6.09-6.52s5.92 2.56 5.92 6.32zm-9.75.13c0 2.69 1.55 4.72 3.73 4.72s3.73-2 3.73-4.77c0-2.09-1-4.73-3.68-4.73s-3.78 2.44-3.78 4.78zM949.34 318.79v3.53h3.2V324h-3.2v6.62c0 1.53.43 2.39 1.67 2.39a4.84 4.84 0 0 0 1.3-.15l.1 1.67a5.41 5.41 0 0 1-2 .31 3.09 3.09 0 0 1-2.41-.94 4.52 4.52 0 0 1-.87-3.2V324h-1.9v-1.7h1.9v-2.95zM969.19 334.15a8.3 8.3 0 0 1-3.53.71c-3.7 0-6.12-2.51-6.12-6.27a6.24 6.24 0 0 1 6.6-6.53 7.39 7.39 0 0 1 3.1.64l-.51 1.72a5.23 5.23 0 0 0-2.59-.58c-2.81 0-4.34 2.08-4.34 4.65 0 2.84 1.83 4.59 4.27 4.59a6.31 6.31 0 0 0 2.74-.61zM978.61 334.61l-.18-1.55h-.07a4.6 4.6 0 0 1-3.76 1.82 3.5 3.5 0 0 1-3.76-3.52c0-3 2.64-4.6 7.39-4.57v-.26a2.53 2.53 0 0 0-2.79-2.84 6.08 6.08 0 0 0-3.2.91l-.51-1.47a7.65 7.65 0 0 1 4-1.09c3.75 0 4.67 2.56 4.67 5v4.6a17.62 17.62 0 0 0 .2 2.95zm-.33-6.28c-2.44-.05-5.2.38-5.2 2.77a2 2 0 0 0 2.1 2.13 3 3 0 0 0 3-2.05 2.22 2.22 0 0 0 .13-.71zM994.33 331.25c0 1.27 0 2.39.1 3.36h-2l-.13-2h-.05a4.62 4.62 0 0 1-4.06 2.28c-1.93 0-4.24-1.06-4.24-5.38v-7.18h2.23v6.8c0 2.34.71 3.91 2.74 3.91a3.13 3.13 0 0 0 3.15-3.17v-7.54h2.24zM997.73 332.32a5.87 5.87 0 0 0 2.94.89c1.63 0 2.39-.81 2.39-1.83s-.64-1.65-2.29-2.26c-2.2-.79-3.25-2-3.25-3.48 0-2 1.6-3.6 4.24-3.6a6.13 6.13 0 0 1 3 .76l-.56 1.62a4.82 4.82 0 0 0-2.52-.71c-1.32 0-2.05.76-2.05 1.68s.73 1.47 2.33 2.08c2.14.81 3.23 1.88 3.23 3.71 0 2.16-1.68 3.68-4.6 3.68a7 7 0 0 1-3.45-.84zM1009.33 328.87c0 3 2 4.26 4.21 4.26a8.22 8.22 0 0 0 3.41-.63l.38 1.6a10.06 10.06 0 0 1-4.09.76c-3.78 0-6-2.49-6-6.2s2.18-6.62 5.76-6.62c4 0 5.08 3.53 5.08 5.79a7.57 7.57 0 0 1-.08 1zm6.55-1.6c0-1.42-.58-3.63-3.1-3.63-2.26 0-3.25 2.08-3.42 3.63zM1033 334.61l-.18-1.55h-.07a4.6 4.6 0 0 1-3.76 1.82 3.5 3.5 0 0 1-3.76-3.52c0-3 2.64-4.6 7.39-4.57v-.26a2.53 2.53 0 0 0-2.79-2.84 6.11 6.11 0 0 0-3.2.91l-.51-1.47a7.65 7.65 0 0 1 4-1.09c3.76 0 4.67 2.56 4.67 5v4.6a17.62 17.62 0 0 0 .2 2.95zm-.33-6.28c-2.44-.05-5.2.38-5.2 2.77a2 2 0 0 0 2.1 2.13 3.07 3.07 0 0 0 3-2.05 2.52 2.52 0 0 0 .12-.71zM1038.42 325.64c0-1.27 0-2.31-.1-3.32h2l.13 2a4.51 4.51 0 0 1 4.06-2.31c1.71 0 4.35 1 4.35 5.23v7.34h-2.24v-7.09c0-2-.73-3.63-2.84-3.63a3.17 3.17 0 0 0-3 2.29 3.26 3.26 0 0 0-.15 1v7.39h-2.24zM1059.32 334.61l-.18-1.55h-.07a4.6 4.6 0 0 1-3.76 1.82 3.5 3.5 0 0 1-3.76-3.52c0-3 2.64-4.6 7.39-4.57v-.26a2.53 2.53 0 0 0-2.79-2.84 6.08 6.08 0 0 0-3.2.91l-.51-1.47a7.65 7.65 0 0 1 4-1.09c3.75 0 4.67 2.56 4.67 5v4.6a17.62 17.62 0 0 0 .2 2.95zm-.33-6.28c-2.44-.05-5.2.38-5.2 2.77a2 2 0 0 0 2.1 2.13 3 3 0 0 0 3-2.05 2.22 2.22 0 0 0 .13-.71zM1064.75 316.58h2.25v18h-2.24zM1071.56 322.32l2.69 7.26c.28.81.58 1.78.79 2.51.22-.73.48-1.67.78-2.56l2.44-7.21h2.36l-3.35 8.76c-1.6 4.21-2.69 6.37-4.21 7.69a6.15 6.15 0 0 1-2.75 1.45l-.56-1.88a6.11 6.11 0 0 0 2-1.09 6.89 6.89 0 0 0 1.88-2.49 1.67 1.67 0 0 0 .18-.54 1.81 1.81 0 0 0-.16-.58l-4.54-11.32zM1082.25 332.32a5.84 5.84 0 0 0 2.94.89c1.63 0 2.39-.81 2.39-1.83s-.64-1.65-2.29-2.26c-2.21-.79-3.25-2-3.25-3.48 0-2 1.6-3.6 4.24-3.6a6.05 6.05 0 0 1 3 .76l-.55 1.62a4.89 4.89 0 0 0-2.52-.71c-1.32 0-2.06.76-2.06 1.68s.74 1.47 2.34 2.08c2.13.81 3.23 1.88 3.23 3.71 0 2.16-1.68 3.68-4.6 3.68a7 7 0 0 1-3.45-.84zM1095.09 318.86a1.31 1.31 0 0 1-1.42 1.37 1.32 1.32 0 0 1-1.35-1.37 1.36 1.36 0 0 1 1.4-1.39 1.32 1.32 0 0 1 1.37 1.39zm-2.49 15.75v-12.29h2.24v12.29zM1098.24 332.32a5.87 5.87 0 0 0 2.94.89c1.63 0 2.39-.81 2.39-1.83s-.63-1.65-2.28-2.26c-2.21-.79-3.25-2-3.25-3.48 0-2 1.6-3.6 4.24-3.6a6.11 6.11 0 0 1 3 .76l-.56 1.62a4.81 4.81 0 0 0-2.51-.71c-1.32 0-2.06.76-2.06 1.68s.74 1.47 2.33 2.08c2.14.81 3.23 1.88 3.23 3.71 0 2.16-1.68 3.68-4.6 3.68a7 7 0 0 1-3.45-.84zM905.08 373.11a32.13 32.13 0 0 1 4.7-.36c3.18 0 5.44.74 6.93 2.14a7.84 7.84 0 0 1 2.42 6.14 9 9 0 0 1-2.47 6.65c-1.6 1.6-4.24 2.47-7.56 2.47a34.9 34.9 0 0 1-4-.21zm2.21 15.13a14.2 14.2 0 0 0 2.24.13c4.72 0 7.29-2.64 7.29-7.26 0-4-2.26-6.6-6.94-6.6a13.26 13.26 0 0 0-2.59.22zM921.92 381.54c0-1.45 0-2.69-.1-3.83h1.95l.08 2.41h.1a3.68 3.68 0 0 1 3.4-2.69 2.56 2.56 0 0 1 .64.07v2.11a3.44 3.44 0 0 0-.77-.08 3.13 3.13 0 0 0-3 2.87 6.44 6.44 0 0 0-.1 1v6.6h-2.21zM932.81 374.25a1.39 1.39 0 0 1-2.77 0 1.36 1.36 0 0 1 1.4-1.39 1.32 1.32 0 0 1 1.37 1.39zM930.32 390v-12.29h2.23V390zM937.12 377.71l2.42 6.9c.4 1.12.73 2.13 1 3.15h.07c.28-1 .64-2 1-3.15l2.39-6.9h2.34l-4.8 12.29h-2.13l-4.67-12.28zM949.46 384.26a3.93 3.93 0 0 0 4.22 4.26 8.17 8.17 0 0 0 3.4-.63l.38 1.6a10.06 10.06 0 0 1-4.09.76c-3.78 0-6-2.49-6-6.2s2.18-6.62 5.76-6.62c4 0 5.08 3.53 5.08 5.78a10.2 10.2 0 0 1-.07 1.05zm6.55-1.6c0-1.43-.58-3.63-3.09-3.63-2.26 0-3.25 2.08-3.43 3.63zM960.94 381.54c0-1.45 0-2.69-.1-3.83h1.95l.08 2.41h.1a3.68 3.68 0 0 1 3.4-2.69 2.51 2.51 0 0 1 .64.07v2.11a3.41 3.41 0 0 0-.76-.08 3.14 3.14 0 0 0-3 2.87 6.44 6.44 0 0 0-.1 1v6.6h-2.21zM974.32 387.71a5.87 5.87 0 0 0 2.94.89c1.63 0 2.39-.81 2.39-1.83s-.64-1.65-2.29-2.26c-2.2-.79-3.25-2-3.25-3.48 0-2 1.6-3.6 4.24-3.6a6.13 6.13 0 0 1 3 .76l-.56 1.62a4.85 4.85 0 0 0-2.52-.71c-1.32 0-2 .76-2 1.68s.73 1.47 2.33 2.08c2.14.81 3.23 1.88 3.23 3.71 0 2.15-1.68 3.68-4.6 3.68a7 7 0 0 1-3.45-.84zM993.44 389.54a8.33 8.33 0 0 1-3.53.71c-3.71 0-6.12-2.52-6.12-6.27a6.24 6.24 0 0 1 6.6-6.53 7.39 7.39 0 0 1 3.1.64l-.51 1.72a5.23 5.23 0 0 0-2.59-.58c-2.82 0-4.34 2.08-4.34 4.65 0 2.84 1.83 4.59 4.26 4.59a6.31 6.31 0 0 0 2.74-.61zM1007 383.75c0 4.54-3.15 6.52-6.12 6.52-3.33 0-5.89-2.43-5.89-6.32 0-4.11 2.69-6.52 6.09-6.52s5.92 2.57 5.92 6.32zm-9.75.13c0 2.69 1.55 4.72 3.73 4.72s3.73-2 3.73-4.78c0-2.08-1-4.72-3.68-4.72s-3.76 2.44-3.76 4.78zM1009.84 381.54c0-1.45 0-2.69-.11-3.83h2l.08 2.41h.1a3.68 3.68 0 0 1 3.4-2.69 2.43 2.43 0 0 1 .63.07v2.11a3.28 3.28 0 0 0-.76-.08 3.13 3.13 0 0 0-3 2.87 6.38 6.38 0 0 0-.11 1v6.6h-2.2zM1019.13 384.26c0 3 2 4.26 4.21 4.26a8.22 8.22 0 0 0 3.41-.63l.38 1.6a10.1 10.1 0 0 1-4.09.76c-3.79 0-6-2.49-6-6.2s2.18-6.62 5.76-6.62c4 0 5.08 3.53 5.08 5.78a7.61 7.61 0 0 1-.08 1.05zm6.55-1.6c0-1.43-.59-3.63-3.1-3.63-2.26 0-3.25 2.08-3.43 3.63zM1039.36 389.54a8.3 8.3 0 0 1-3.53.71c-3.7 0-6.12-2.52-6.12-6.27a6.25 6.25 0 0 1 6.61-6.53 7.34 7.34 0 0 1 3.09.64l-.5 1.72a5.26 5.26 0 0 0-2.59-.58c-2.82 0-4.35 2.08-4.35 4.65 0 2.84 1.83 4.59 4.27 4.59a6.31 6.31 0 0 0 2.74-.61zM1048.78 390l-.18-1.54h-.07a4.6 4.6 0 0 1-3.76 1.82 3.5 3.5 0 0 1-3.76-3.53c0-3 2.64-4.59 7.39-4.57v-.25a2.53 2.53 0 0 0-2.79-2.84 6.11 6.11 0 0 0-3.2.91l-.51-1.47a7.65 7.65 0 0 1 4-1.09c3.76 0 4.67 2.56 4.67 5v4.6a17.41 17.41 0 0 0 .2 2.94zm-.33-6.27c-2.44-.05-5.2.38-5.2 2.77a2 2 0 0 0 2.1 2.13 3.07 3.07 0 0 0 3-2.05 2.58 2.58 0 0 0 .12-.71zM1054.21 381.54c0-1.45 0-2.69-.1-3.83h2l.07 2.41h.11a3.67 3.67 0 0 1 3.4-2.69 2.43 2.43 0 0 1 .63.07v2.11a3.34 3.34 0 0 0-.76-.08 3.13 3.13 0 0 0-3 2.87 5.44 5.44 0 0 0-.11 1v6.6h-2.21zM1072.88 372v14.85c0 1.09 0 2.34.1 3.17h-2l-.1-2.13a4.55 4.55 0 0 1-4.19 2.41c-3 0-5.25-2.51-5.25-6.24 0-4.09 2.51-6.6 5.5-6.6a4.11 4.11 0 0 1 3.71 1.87h.05V372zm-2.24 10.74a3.76 3.76 0 0 0-.1-.94 3.29 3.29 0 0 0-3.22-2.59c-2.31 0-3.69 2-3.69 4.75 0 2.48 1.22 4.54 3.64 4.54a3.36 3.36 0 0 0 3.27-2.67 3.63 3.63 0 0 0 .1-1z"/><circle class="cls-6" cx="869.81" cy="217.26" r="4.48"/><circle class="cls-6" cx="870.18" cy="272" r="4.48"/><circle class="cls-6" cx="870.55" cy="326.74" r="4.48"/><circle class="cls-6" cx="870.55" cy="378.74" r="4.48"/><path class="cls-5" d="M454.75 109.88c4.89-2.81 9.81-5.55 14.65-8.44a9.6 9.6 0 0 1 5.33-1.4c6.47.1 12.95.09 19.42 0a4.27 4.27 0 0 1 4.57 4.11c.09 2.36-1.81 4.11-4.47 4.17-.06 0-.12 0-.21.15 1.35.42 2.7.87 4.07 1.24.28.07.66-.14 1-.26l19.45-7.5a3.76 3.76 0 0 1 3.55 6.62l-18 12-6.51 4.34-1.44-2.14c.31-.21.58-.41.86-.59l23.16-15.43c1.07-.71 1.34-1.22 1-1.89s-.93-.76-2.11-.31q-10 3.87-20 7.72a2 2 0 0 1-1.23.1q-10.15-3.16-20.29-6.39a.38.38 0 0 1-.28-.23h16.97a2.42 2.42 0 0 0 1.63-.69 1.48 1.48 0 0 0-1-2.35 4 4 0 0 0-.69 0h-20.8a2.52 2.52 0 0 0-1.21.3c-4.69 2.64-9.35 5.31-14 8a1 1 0 0 0-.66 1v13.15c0 .11 0 .22.05.44.27-.12.49-.21.7-.32 3.64-1.87 7.26-3.78 10.93-5.58a4.48 4.48 0 0 1 2.3-.33c2.62.25 5.22.62 7.89 1l.6-4.31 9.5 7.29-11.07 4.58.63-5c-2.75-.35-5.44-.71-8.14-1a2.07 2.07 0 0 0-1 .32l-14.16 7.37a8 8 0 0 1-.86.33z"/><path class="cls-5" d="M524 88.73c-.61 1.5-1.23 3-1.83 4.51a.85.85 0 0 1-1.13.61 3.15 3.15 0 0 0-3.3 1.15c-1.09 1.09-1.63 2.06-1.24 3.53a.81.81 0 0 1-.56 1.07c-1.38.56-2.74 1.13-4.11 1.7a.72.72 0 0 1-1-.3 3.36 3.36 0 0 0-3.41-1.7c-1.47 0-2.44.32-3.14 1.54a.91.91 0 0 1-1.29.42l-4-1.69a.72.72 0 0 1-.53-.93c.45-1.58-.16-2.62-1.35-3.75a2.91 2.91 0 0 0-3-1 1 1 0 0 1-1.39-.73c-.5-1.3-1-2.6-1.55-3.89a.83.83 0 0 1 .37-1.17c1.34-.72 1.54-1.83 1.54-3.3a2.79 2.79 0 0 0-1.49-2.8 1 1 0 0 1-.45-1.43c.56-1.32 1.08-2.64 1.62-4a.77.77 0 0 1 1-.55 3.23 3.23 0 0 0 3.49-1.16c1-1.06 1.57-2 1.18-3.39a.92.92 0 0 1 .65-1.2c1.36-.53 2.69-1.1 4-1.65a.73.73 0 0 1 1 .31 3.35 3.35 0 0 0 3.42 1.7c1.43-.05 2.4-.31 3.08-1.5a1 1 0 0 1 1.42-.43c1.34.57 2.69 1.12 4 1.74a.9.9 0 0 1 .41.77 3.63 3.63 0 0 0 1.4 3.79 3.1 3.1 0 0 0 3.19 1.06 1 1 0 0 1 1.26.67 228 228 0 0 0 1.79 4.44v.34c-.43.32-.84.67-1.29.95a1.53 1.53 0 0 0-.8 1.69 16.68 16.68 0 0 1 0 2.12 1 1 0 0 0 .23.66c.6.52 1.24 1 1.87 1.46zm-10.35 7.21c-.24-.62.12-1 .74-1.46a7.57 7.57 0 0 0 2.06-1.92c.81-1.28 1.75-1.88 3.27-1.45a.83.83 0 0 0 .72-.24c.7-.91.62-1.43-.28-2.18a2.44 2.44 0 0 0-.4-.32c-.68-.36-.69-.9-.59-1.58a8.1 8.1 0 0 0 .11-2.81 2.48 2.48 0 0 1 1.27-3.11.87.87 0 0 0 .37-.66c-.14-1.21-.58-1.53-1.8-1.39a5.06 5.06 0 0 0-.68.09 1 1 0 0 1-1.14-.49 12.73 12.73 0 0 0-2.52-2.65 2.22 2.22 0 0 1-1.05-2.72c.16-.69-.08-1-.72-1.28s-1.17-.26-1.56.41c-.16.26-.43.47-.59.73a1.07 1.07 0 0 1-1.24.47 9.06 9.06 0 0 0-3.06-.15c-1.53.32-2.64.09-3.42-1.33a.82.82 0 0 0-.68-.33c-1.15.2-1.39.53-1.31 1.7a3 3 0 0 0 .06.68c.18.61-.05 1-.55 1.34a12.13 12.13 0 0 0-2.54 2.41c-.71 1-1.39 1.48-2.59 1.1-.77-.23-1.18.11-1.45.87-.22.61-.19 1 .37 1.36.32.2.57.49.87.7a1 1 0 0 1 .4 1.09 10.65 10.65 0 0 0-.1 3.23 2.34 2.34 0 0 1-1.22 2.88c-.53.3-.52.67-.35 1.22.26.85.71 1.16 1.56.95.28-.06.58 0 .85-.11a1 1 0 0 1 1.07.46 10.06 10.06 0 0 0 2.18 2.4 2.75 2.75 0 0 1 1.43 3.3.86.86 0 0 0 .23.72c.92.7 1.39.63 2.12-.26a6.76 6.76 0 0 0 .54-.66 1 1 0 0 1 1.16-.44 10.21 10.21 0 0 0 3.15.17c1.49-.29 2.59-.11 3.35 1.3a.83.83 0 0 0 .67.35c1.08-.12 1.43-.58 1.33-1.65.02-.2.02-.4 0-.74zM484.32 54l3.52 1.49a.83.83 0 0 1 .57 1.06c-.08.44-.22 1 0 1.33a5.23 5.23 0 0 0 1.5 1.5c.29.19.83 0 1.25 0a.9.9 0 0 1 1.14.6c.27.69.61 1.35.92 2 .46 1 .59 1.91-.61 2.6-.59.33-.57 2.42 0 2.77 1.15.67 1 1.54.61 2.52-.31.71-.67 1.4-1 2.11a.81.81 0 0 1-1.07.55 2.48 2.48 0 0 0-2.79 2.77.83.83 0 0 1-.59 1.13c-1 .39-2 .87-3 1.21a1.07 1.07 0 0 1-1-.29c-.72-1.37-2-1.06-3.09-1-.35 0-.73.59-1 1a.84.84 0 0 1-1.1.34l-2.93-1.19a.9.9 0 0 1-.63-1.2c.5-1.48-.84-2-1.52-2.76-.19-.21-.87 0-1.32 0a.81.81 0 0 1-1-.53c-.4-1-.82-2-1.23-3a.84.84 0 0 1 .37-1.23c1.24-.62 1-1.77.86-2.77 0-.35-.56-.69-.92-.94a.81.81 0 0 1-.34-1.1c.39-1 .79-2 1.17-2.94a1 1 0 0 1 1.26-.68c.38.08.91.22 1.16 0a6.83 6.83 0 0 0 1.55-1.58c.17-.23 0-.72 0-1.08a1.08 1.08 0 0 1 .78-1.38c.58-.23 1.13-.56 1.71-.78 1.59-.59 1.58-.56 2.73.64a1.71 1.71 0 0 0 .87.35 2.54 2.54 0 0 0 3-1.57zM474 69.79c.56-.28.89.1 1.27.61a7.65 7.65 0 0 0 1.73 1.76 1.57 1.57 0 0 1 .77 1.71 2.55 2.55 0 0 0 .25.88c.27-.16.63-.26.79-.49a1.48 1.48 0 0 1 1.75-.63 9 9 0 0 0 2.38 0c.65-.08 1.14-.07 1.54.54.18.27.6.38.9.57a3.05 3.05 0 0 0 .22-1.07 1.27 1.27 0 0 1 .65-1.41 8 8 0 0 0 1.75-1.74 1.42 1.42 0 0 1 1.61-.75c.28.06.62-.18.94-.29a3.08 3.08 0 0 0-.55-.83 1.34 1.34 0 0 1-.59-1.45 8.25 8.25 0 0 0 0-2.38 1.41 1.41 0 0 1 .6-1.6c.24-.17.34-.56.5-.84a2.36 2.36 0 0 0-1-.25 1.35 1.35 0 0 1-1.54-.72 6.28 6.28 0 0 0-1.62-1.63 1.49 1.49 0 0 1-.8-1.75c.06-.26-.17-.58-.27-.87-.27.15-.63.24-.78.47a1.49 1.49 0 0 1-1.75.64 9.3 9.3 0 0 0-2.47 0 1.27 1.27 0 0 1-1.4-.49 3.38 3.38 0 0 0-1-.65 3.5 3.5 0 0 0-.21 1.07 1.34 1.34 0 0 1-.67 1.42 7.29 7.29 0 0 0-1.7 1.67 1.53 1.53 0 0 1-1.76.8c-.24-.06-.54.15-.82.23.14.28.2.65.42.81a1.42 1.42 0 0 1 .64 1.74 4 4 0 0 0 0 1.87 1.68 1.68 0 0 1-.77 2.11.67.67 0 0 0-.24.61c.06.16.37.24.59.31a1.7 1.7 0 0 0 .64.02z"/><path class="cls-5" d="M507.42 93.43A8.48 8.48 0 1 1 516 85a8.5 8.5 0 0 1-8.58 8.43zm.07-2.55a5.93 5.93 0 1 0 0-11.85 5.93 5.93 0 1 0 0 11.85zM481.68 71.22a5.18 5.18 0 0 1 0-10.36 5.18 5.18 0 1 1 0 10.36zm2.64-5.16a2.62 2.62 0 0 0-2.58-2.65 2.63 2.63 0 1 0 0 5.26 2.58 2.58 0 0 0 2.58-2.61zM917.69 127a7.08 7.08 0 0 0-1.07-1.79q-11-10-22-19.92a1.64 1.64 0 0 0-.23-.16l-3.14 3-2.93-10 10.25 2.5-2.64 2.81 16.85 15.21.15-.1-.44-.81q-3.15-5.46-6.31-10.91c-2.31-4-3-8.13-1.36-12.53a14.06 14.06 0 0 1 16.51-8.67 13.85 13.85 0 0 1 10.48 15.36 15.51 15.51 0 0 1-1.84 5.18c-3.94 7-8 14-12.06 20.91zm.12-4.66a3.52 3.52 0 0 0 .26-.29c3.37-5.82 6.8-11.62 10.1-17.49a10.83 10.83 0 0 0-.29-11.56 11.67 11.67 0 0 0-15.18-4.34 11.51 11.51 0 0 0-5.7 14.54 27.34 27.34 0 0 0 1.79 3.49c2.98 5.2 5.98 10.38 9.02 15.65zM933.8 59c-.76 4-3.45 7.07-5.25 10.55-1 1.93-2.16 3.76-3.3 5.73-.2-.29-.36-.49-.48-.71-2.21-3.81-4.38-7.65-6.62-11.44a8.47 8.47 0 0 1 4.38-12.66l1.25-.42h2.86c.31.1.61.22.91.31a8.3 8.3 0 0 1 5.8 5.68 17.31 17.31 0 0 1 .45 1.89zm-8.63 11.7a4 4 0 0 0 .3-.41c1.68-2.89 3.4-5.75 5-8.68a7.69 7.69 0 0 0 .94-3.12 6.06 6.06 0 0 0-3.85-5.72 6.21 6.21 0 0 0-6.76 1.45 5.84 5.84 0 0 0-1.1 6.79c1.7 3.19 3.58 6.33 5.47 9.64zM883.26 94.17c-1.77-3.06-3.65-6.31-5.52-9.56-1.21-2.09-2.45-4.16-3.61-6.27-2.62-4.75-1.94-10 1.7-13.47a10.94 10.94 0 0 1 14.25-.9 10.69 10.69 0 0 1 3 13.84c-2 3.63-4.13 7.18-6.2 10.76l-.58 1 25.82-11.8-1.57-3.72L921 75.29l-6.29 8.49-1.71-3.85-5.21 2.36c-7.44 3.41-14.9 6.8-22.32 10.24a14.65 14.65 0 0 0-2.21 1.64zm.19-4.26c2.7-4.74 5.34-9.3 7.91-13.89a6.92 6.92 0 0 0 .63-4.87 8.3 8.3 0 0 0-6.34-6.79 8.12 8.12 0 0 0-8.82 2.86 8 8 0 0 0-1 9.42c2.43 4.42 5.01 8.74 7.62 13.27z"/><path class="cls-5" d="M910.7 99.33a7.21 7.21 0 1 1 7.23 7.23 7.24 7.24 0 0 1-7.23-7.23zm2.3 0a5 5 0 0 0 4.86 4.93 4.93 4.93 0 1 0 0-9.85 5 5 0 0 0-4.86 4.92zM925.28 63.13a4.6 4.6 0 1 1 4.56-4.62 4.58 4.58 0 0 1-4.56 4.62zm2.26-4.54a2.29 2.29 0 0 0-2.28-2.36 2.32 2.32 0 0 0-.08 4.64 2.3 2.3 0 0 0 2.36-2.28zM877.73 72.81a5.76 5.76 0 1 1 5.77 5.81 5.76 5.76 0 0 1-5.77-5.81zm9.19 0a3.46 3.46 0 0 0-3.46-3.46 3.48 3.48 0 0 0 0 7 3.47 3.47 0 0 0 3.46-3.53zM32.18 112.39a21.58 21.58 0 0 1 1.65-3.69 7.67 7.67 0 0 1 6.61-3.38h5.68a7.94 7.94 0 0 1 8 6.22 2 2 0 0 0 .12.34h11v-6.34h-4.47l5.81-10.06 5.79 10h-4.5v6.35h12.35a8.43 8.43 0 0 1 2.78-4.6 7.89 7.89 0 0 1 5.2-1.94H94a7.83 7.83 0 0 1 8.13 8.14v8.13H80.1v-7.13H54.34v7.14H32.5a3.16 3.16 0 0 1-.32 0zm67.42 6.72a1 1 0 0 0 .07-.22v-5.51a5.13 5.13 0 0 0-4.58-5.38 43.15 43.15 0 0 0-7.54-.06 5.19 5.19 0 0 0-4.77 4.32 68.19 68.19 0 0 0-.3 6.88zm-47.81 0v-5.56a5.39 5.39 0 0 0-5.32-5.71c-2.11-.11-4.23-.1-6.33 0a5.49 5.49 0 0 0-5.28 4.59 64.57 64.57 0 0 0 0 6.68z"/><path class="cls-5" d="M84.22 81.74l-12.67 4.84a5.13 5.13 0 0 1-1.27 4.27 5 5 0 0 1-5.58 1.29 5.09 5.09 0 0 1-3.19-4.76c0-.37.11-.71-.45-.87C57 85.32 53 84.1 48.94 82.89h-.32L46 89.41a23.45 23.45 0 0 1 2.82 2.3 7.27 7.27 0 0 1 .83 8.57 7.39 7.39 0 1 1-6.91-11.12 1.1 1.1 0 0 0 .81-.46c1.95-4.77 3.86-9.54 5.86-14.51L42 76.64c.17-.35.26-.57.37-.77 1.09-2 2.18-4 3.3-6a.89.89 0 0 0-.06-1.1 8.56 8.56 0 1 1 15.26-7.26c.09.34.17.69.26 1.08H73a8.92 8.92 0 0 1 2.48-4.78 8.55 8.55 0 0 1 13.08 10.86 1.11 1.11 0 0 0-.07 1.38c1.1 1.92 2.16 3.88 3.22 5.82.12.21.22.43.4.78l-8.19-2.71c.14.41.23.71.34 1 1.81 4.49 3.63 9 5.41 13.49a1 1 0 0 0 1.2.75 7.37 7.37 0 1 1-3.94 1.29c.53-.36.64-.64.39-1.23-1-2.4-2-4.82-2.94-7.23a1.83 1.83 0 0 0-.16-.27zm-.88-2.36c-.8-2-1.59-3.9-2.33-5.84a1.68 1.68 0 0 0-1-.94 23.94 23.94 0 0 1-3.8-2 8.52 8.52 0 0 1-3.26-5.38H61.48c-.17 0-.43.29-.49.49a9.47 9.47 0 0 1-6.64 6.8 3.43 3.43 0 0 0-2.55 2.38c-.62 1.88-1.44 3.69-2.17 5.51a1.26 1.26 0 0 0 .21.15C53.92 81.75 58 83 62.1 84.19a1 1 0 0 0 .83-.25 5 5 0 0 1 7.16-.06.79.79 0 0 0 1 .19l4.29-1.65zm-36-7.33l.12.16c2.37-.82 4.8-1.5 7.09-2.5a6.28 6.28 0 0 0 4.13-5.66 6 6 0 1 0-10.43 4 7.53 7.53 0 0 0 .86.68zM85 68.91l.86-.85a6 6 0 1 0-10.44-3.6c.37 2.91 2.25 4.61 4.84 5.59 2 .74 4 1.34 5.93 2a4 4 0 0 0 .59.12zm6 32.52a4.89 4.89 0 1 0-4.78-5 5 5 0 0 0 4.78 5zm-42.87-4.9a4.9 4.9 0 1 0-4.92 4.91 5 5 0 0 0 4.93-4.91zM66.6 84.92a2.56 2.56 0 0 0-2.6 2.52A2.59 2.59 0 0 0 66.57 90a2.54 2.54 0 0 0 0-5.08z"/></svg>