<svg id="Layer_1" data-name="Layer 1" xmlns="http://www.w3.org/2000/svg" width="100" height="100" viewBox="0 0 100 100"><title>focuse</title><path d="M51.58,89.28v9.5H48.09V89.27C37.88,88.64,29,85,21.76,77.93A38.6,38.6,0,0,1,9.89,51.82H0V48.33H9.88a38.69,38.69,0,0,1,11.8-26.11A39.91,39.91,0,0,1,48,10.82V1.22h3.54v9.59A39.91,39.91,0,0,1,78,22.23,38.49,38.49,0,0,1,89.75,48.28H100v3.5H94.81c-1.37,0-2.74,0-4.11,0-.76,0-1,.22-1.07,1a37.19,37.19,0,0,1-7.72,20.61A39.41,39.41,0,0,1,53.48,89.08ZM48,14.36c-20.86,1-34.34,18.51-34.35,33.87h4.83V42L32.69,50,18.35,58.16V51.85H13.46A35,35,0,0,0,25.18,76.31,36,36,0,0,0,48,85.74V80.63H41.59l8.23-14L58.1,80.72H51.66v5A36.17,36.17,0,0,0,76.34,74.48a34.63,34.63,0,0,0,9.82-22.62h-5v6.25L67,50l14.3-8.11v6.33H86c-.14-17-15.42-33.4-34.35-33.82v5H58l-8.22,14L41.56,19.38H48Z"/><path d="M49.75,57.08a7.05,7.05,0,1,1,7.29-7A7.07,7.07,0,0,1,49.75,57.08Zm.12-3.41A3.7,3.7,0,0,0,53.56,50a3.78,3.78,0,0,0-3.74-3.64,3.67,3.67,0,0,0-3.66,3.69A3.63,3.63,0,0,0,49.87,53.67Z"/></svg>