<svg id="Layer_1" data-name="Layer 1" xmlns="http://www.w3.org/2000/svg" width="100" height="100" viewBox="0 0 100 100"><title>revenue</title><path d="M8.17,75.66c2.56-1.42,5.11-2.83,7.66-4.26,1.64-.92,3.25-1.9,4.92-2.78a2.43,2.43,0,0,0,1.35-1.8Q25.6,51,29.16,35.15c.6-2.66,1.27-5.3,2-7.93,1.11-4.1,3.9-6.7,7.68-8.38.39-.18.79-.33,1.29-.54L35.23,7.06,42.5,6,41.43,0H58.29L56.13,6.29,63.67,7l-6,11.1c.76.32,1.42.59,2.07.88a12.63,12.63,0,0,1,7.69,9q3.48,14.88,7,29.73c.91,3.9,1.76,7.81,2.66,11.84,2.89-1.11,5.67-2.22,8.48-3.25A4.52,4.52,0,0,1,91.8,71,4.1,4.1,0,0,1,90,74.11c-9.94,6.64-19.9,13.26-30,20l-1.77-2.62L71.8,82.4,87.24,72.13l.6-.4c.71-.47,1.11-1.1.68-1.93a1.42,1.42,0,0,0-2-.6c-2.17.83-4.33,1.68-6.5,2.52C74,74,68,76.38,62,78.66a3.62,3.62,0,0,1-2.16.08c-7.89-2.43-15.76-4.93-23.63-7.41a1.67,1.67,0,0,1-.84-.49H55.51a6.47,6.47,0,0,0,1.08,0,1.78,1.78,0,0,0,1.62-1.68,1.72,1.72,0,0,0-1.34-1.9,6.14,6.14,0,0,0-1.43-.13c-8.15,0-16.3,0-24.45,0a4.82,4.82,0,0,0-2.26.59C23.24,70.81,17.79,74,12.3,77.05a1.65,1.65,0,0,0-1,1.66c.05,5,0,10,0,14.93V94.9l6.62-3.46c2.17-1.12,4.39-2.17,6.52-3.37a7.19,7.19,0,0,1,4.85-.76c2.77.44,5.57.73,8.52,1.11l.76-5.23L50.09,92,36.67,97.58l.75-6c-2.5-.32-4.94-.5-7.32-1a8.33,8.33,0,0,0-5.92,1.18c-5,2.71-10,5.28-15,7.89a7.89,7.89,0,0,1-1,.36Zm47.57-1.49c1.37.43,2.72.91,4.1,1.26a3.35,3.35,0,0,0,1.83,0C65.5,74,69.29,72.45,73.12,71c.75-.28,1-.63.79-1.42q-4.78-20.47-9.55-41a9,9,0,0,0-5.18-6.41,23,23,0,0,0-19.68-.13A9.31,9.31,0,0,0,34,28.9c-2,8.63-4,17.25-6,25.88-.83,3.63-1.6,7.27-2.43,11.08a13.64,13.64,0,0,0,1.31-.74A6.91,6.91,0,0,1,31.23,64c8.11.06,16.22,0,24.33,0A11.49,11.49,0,0,1,57,64a5,5,0,0,1,3.8,7.25A5.37,5.37,0,0,1,55.74,74.17Zm-4-65.06,2-5.77H45.27l.86,5.3-6.34,1c1.1,2.53,2.09,4.9,3.17,7.22a1.33,1.33,0,0,0,1.12.46,30.94,30.94,0,0,1,9.7-.1c.27,0,.73,0,.83-.18,1.34-2.4,2.63-4.82,4-7.31Z"/><path d="M50.69,29.63l5.6,1.57-1.07,2.85a31.19,31.19,0,0,0-4.34-1.12,7.54,7.54,0,0,0-3.4.38A3.28,3.28,0,0,0,46.53,39a22.48,22.48,0,0,0,3.74,2.13c1.16.62,2.4,1.12,3.52,1.82A6.74,6.74,0,0,1,57,50.14a6.66,6.66,0,0,1-5.09,5.67A1.71,1.71,0,0,0,50.45,58c.07.86,0,1.74,0,2.65H47.72V56.45c-2.3-.3-4.52-.59-6.48-2l.9-2.55a40,40,0,0,0,5.47,1.41,7.09,7.09,0,0,0,3.7-.67,3.7,3.7,0,0,0,.92-6.08,17.91,17.91,0,0,0-3.63-2.27c-1.3-.72-2.7-1.25-4-2a6,6,0,0,1-3-6.24,6.45,6.45,0,0,1,4.17-5.32c.65-.28,1.35-.46,2.14-.72V25.9h2.7Z"/></svg>