<svg id="Layer_1" data-name="Layer 1" xmlns="http://www.w3.org/2000/svg" width="100" height="100" viewBox="0 0 100 100"><title>agile</title><path d="M79.13,100V94.4H8.18V91.34H9.55q18.13,0,36.27,0a39,39,0,0,0,9-.7A25.13,25.13,0,0,0,74.19,65.1,23.92,23.92,0,0,0,71.3,54.8c-.27-.51-.5-.75-1.19-.56a5.91,5.91,0,0,1-6.44-1.88,5.74,5.74,0,0,1-.84-6.54c-6.63-5-19.51-6.84-29.67.57-10.33,7.54-12.22,20-8.67,28.53l5.7-2.25c-.65,4.7-1.27,9.24-1.93,14L16.72,78.06l4.75-1.93a27.61,27.61,0,0,1-.93-16.38,28.14,28.14,0,0,1,8.63-14.14,21,21,0,0,1-13.89-9.44,19.63,19.63,0,0,1-2.93-12.1A20.71,20.71,0,0,1,31.22,5.56V0L43.88,7.09,31.29,14.16V8.77c-7.46.37-14.43,6.71-15.61,14.07a17.22,17.22,0,0,0,16.4,20,2.9,2.9,0,0,0,1.46-.36Q49.13,34,64.37,43a1.38,1.38,0,0,0,1.5,0A6.27,6.27,0,0,1,73,44.55a6,6,0,0,1,.7,7,1.42,1.42,0,0,0,0,1.16A27.62,27.62,0,0,1,63,90.61L62,91.25H79.11v-5.5l12.71,7.12ZM68.36,51.59a3.08,3.08,0,1,0,0-6.16,3.08,3.08,0,1,0,0,6.16Z"/></svg>