<svg id="Layer_1" data-name="Layer 1" xmlns="http://www.w3.org/2000/svg" width="100" height="100" viewBox="0 0 100 100"><title>improvement-in-load-profitability</title><path d="M0,64.09A36.09,36.09,0,0,1,1.1,60.2a15.6,15.6,0,0,1,12.29-10l1.12-.24v-46H83.2V33.19H79.88v-26H18V50a16.31,16.31,0,0,1,11.42,7.15L46.14,42,59.55,56.09,89.48,29.92c-1.53-1.45-3-2.84-4.61-4.36L100,21.5c-1.36,5.07-2.68,10-4,15.13l-4-4.3L59.33,60.8,46,46.77,38.9,53.16c-2.43,2.19-4.84,4.4-7.29,6.57a1.17,1.17,0,0,0-.41,1.41A15.9,15.9,0,0,1,18.89,81.59l-1,.22V92.67H79.78V60.44a6.82,6.82,0,1,1,8.11-9.11A6.72,6.72,0,0,1,84.37,60a1.51,1.51,0,0,0-1.1,1.68q0,16.59,0,33.2c0,.4.07.79.11,1.19H14.56V82c-.18-.16-.2-.2-.23-.21l-.65-.11C7,80.46,2.57,76.6.56,70c-.22-.72-.37-1.46-.56-2.2ZM15.93,78.5A12.6,12.6,0,1,0,3.38,65.72,12.68,12.68,0,0,0,15.93,78.5ZM81.6,50.42a3.48,3.48,0,0,0-3.47,3.4,3.44,3.44,0,1,0,3.47-3.4Z"/><path d="M29.74,20.13V16.86H68.08v3.27Z"/><path d="M29.74,34.86V31.62H68.07v3.24Z"/><path d="M33.77,79.21V75.89H68.05v3.32Z"/><path d="M68.07,63.25v3.18H38.21V63.25Z"/><path d="M11.85,71.33l.55-2.11a18.26,18.26,0,0,0,3.25.55,2.14,2.14,0,0,0,1.65-.9c.35-.79-.46-1.2-1.1-1.49-.87-.4-1.8-.68-2.62-1.16a3,3,0,0,1,.14-5.43c1.08-.51,1.8-1,1.45-2.31h1.76l.13,1.38a9.74,9.74,0,0,1,2.54,1c.24.17-.17,1.21-.29,1.92-.76-.18-1.42-.36-2.09-.49a2.2,2.2,0,0,0-1.08,0c-.44.18-1,.48-1.11.83s.36.93.73,1.14c1,.55,2,.84,3,1.41A3.24,3.24,0,0,1,19,71a15.21,15.21,0,0,1-2,1L17,73.76H15.13L15,72.19Z"/></svg>