<svg id="Layer_1" data-name="Layer 1" xmlns="http://www.w3.org/2000/svg" width="100" height="100" viewBox="0 0 100 100"><title>annual-revenue</title><path d="M8.57,39.37c.41-1.46.7-3,1.25-4.36A16.93,16.93,0,0,1,30.37,25a1.72,1.72,0,0,0,1.89-.46c3.3-3.06,6.65-6.07,10.09-9.2l6.58,6.91,6.53,6.85,24-21-4-3.52.18-.37,6.82-1.85L90,.41a6.76,6.76,0,0,0,1-.41h.49L87.28,15.81l-5.14-5.19L55.23,34.13,42.17,20.42,35,27c1,.91,2,1.7,2.89,2.63,4.78,5.24,6.08,11.3,3.52,17.88A16,16,0,0,1,26.81,58.21c-9.15.64-16.53-5.41-18-14.43a2.78,2.78,0,0,0-.22-.54Zm3.63,1.9A13.41,13.41,0,1,0,25.67,27.85,13.46,13.46,0,0,0,12.2,41.27Z"/><path d="M73.55,100V26.89H91.14V28.4q0,35.25,0,70.52c0,.36,0,.72,0,1.08Zm3.7-69.51V96.28H87.5V30.49Z"/><path d="M46,100c0-.44,0-.88,0-1.33q0-28,0-56.11V41.28H63.53v1.3q0,28.05,0,56.11c0,.44-.07.87-.11,1.31Zm13.77-3.67V44.92H49.61V96.33Z"/><path d="M35.86,68.25V99.63H18.36V98.18c0-6.48,0-13,0-19.44a1.35,1.35,0,0,0-1-1.51,7.22,7.22,0,1,1,9.18-10,1.38,1.38,0,0,0,1.48.86c2.5,0,5,0,7.49,0A1.46,1.46,0,0,1,35.86,68.25ZM22,96H32.26V71.7c-1.43,0-2.75,0-4.07,0-.63,0-.89.17-1.07.82A6.73,6.73,0,0,1,23,77.21a1.4,1.4,0,0,0-1,1.6c0,5.3,0,10.61,0,15.91Zm1.81-25.31a3.62,3.62,0,1,0-3.64,3.58A3.64,3.64,0,0,0,23.79,70.64Z"/><path d="M21.23,47.1l.55-2.25c1.21.22,2.32.5,3.46.61.75.07,1.74-.08,1.75-1,0-.52-.66-1.18-1.19-1.54A14.09,14.09,0,0,0,23.7,42c-1.39-.65-2.43-1.61-2.34-3.3A3.45,3.45,0,0,1,24,35.47l.73-.28.1-1.8h1.85l.11,1.6,2.9.71-.58,2.19a14.66,14.66,0,0,0-2.93-.46c-.56,0-1.1.56-1.65.86a5.25,5.25,0,0,0,1.11,1.37c.92.55,2,.81,2.93,1.37a3.42,3.42,0,0,1-.18,6c-1.19.6-2.2,1-1.72,2.66h-1.9L24.63,48Z"/></svg>