<svg id="Layer_1" data-name="Layer 1" xmlns="http://www.w3.org/2000/svg" viewBox="0 0 640.38 985.91"><defs><style>.cls-1{fill:#fbc2ba;}.cls-2{fill:#fcddd6;}.cls-3{fill:#4c0519;}.cls-4{fill:none;stroke:#4c0519;stroke-miterlimit:10;stroke-width:3px;}</style></defs><title>Artboard 5</title><rect class="cls-1" x="0.55" width="641.45" height="160"/><rect class="cls-2" x="0.55" y="165" width="641.45" height="160"/><rect class="cls-1" y="330" width="641.45" height="160"/><rect class="cls-2" y="495" width="641.45" height="160"/><path class="cls-3" d="M86.91,99.72H81.53V96.84H95.78v2.88H90.35v16H86.91Z"/><path class="cls-3" d="M98.14,109.86c.08,2.46,2,3.53,4.2,3.53a10.32,10.32,0,0,0,3.78-.62l.5,2.38a12.78,12.78,0,0,1-4.76.84c-4.42,0-7-2.71-7-6.89,0-3.78,2.3-7.33,6.67-7.33s5.88,3.64,5.88,6.63a7.94,7.94,0,0,1-.12,1.46Zm6-2.41c0-1.26-.53-3.33-2.83-3.33-2.13,0-3,1.93-3.16,3.33Z"/><path class="cls-3" d="M117.82,115.71l-.22-1.51h-.09a5.08,5.08,0,0,1-4,1.82A4,4,0,0,1,109.2,112c0-3.44,3-5.18,8.09-5.15v-.23c0-.89-.37-2.38-2.77-2.38a7.18,7.18,0,0,0-3.67,1l-.67-2.24a9.85,9.85,0,0,1,4.92-1.2c4.37,0,5.63,2.77,5.63,5.74v4.93a21.74,21.74,0,0,0,.2,3.27Zm-.45-6.66c-2.43-.06-4.76.47-4.76,2.54a1.81,1.81,0,0,0,2,2,2.8,2.8,0,0,0,2.69-1.88,2.59,2.59,0,0,0,.11-.76Z"/><path class="cls-3" d="M124.37,106.13c0-1.56,0-2.88-.11-4h3l.14,2h.08a4.73,4.73,0,0,1,4.2-2.32,3.94,3.94,0,0,1,3.78,2.52h.06a5,5,0,0,1,1.68-1.71,4.54,4.54,0,0,1,2.74-.81c2.27,0,4.57,1.54,4.57,5.9v8h-3.36v-7.53c0-2.27-.79-3.61-2.44-3.61a2.63,2.63,0,0,0-2.41,1.82,5,5,0,0,0-.17,1.15v8.17h-3.36v-7.89c0-1.91-.75-3.25-2.35-3.25a2.69,2.69,0,0,0-2.46,2,2.9,2.9,0,0,0-.2,1.12v8.06h-3.36Z"/><path class="cls-3" d="M148,112.55a7.75,7.75,0,0,0,3.5,1c1.51,0,2.18-.62,2.18-1.51s-.56-1.4-2.24-2c-2.66-.93-3.78-2.38-3.75-4,0-2.41,2-4.28,5.15-4.28a8,8,0,0,1,3.61.81l-.67,2.44a6.08,6.08,0,0,0-2.88-.79c-1.23,0-1.91.59-1.91,1.43s.65,1.29,2.38,1.9c2.47.9,3.62,2.16,3.64,4.18,0,2.46-1.93,4.25-5.54,4.25a8.76,8.76,0,0,1-4.14-.95Z"/><path class="cls-3" d="M289.47,28.7a25.27,25.27,0,0,1,4.24-.33,7.07,7.07,0,0,1,4.8,1.42A4.6,4.6,0,0,1,300,33.37,5,5,0,0,1,298.68,37a7.09,7.09,0,0,1-5.23,1.87,7.35,7.35,0,0,1-1.77-.15v6.86h-2.21ZM291.68,37a7.2,7.2,0,0,0,1.82.18c2.67,0,4.29-1.3,4.29-3.66s-1.59-3.35-4-3.35a9.27,9.27,0,0,0-2.08.18Z"/><path class="cls-3" d="M302.49,37.15c0-1.44,0-2.69-.1-3.83h1.95l.08,2.41h.1a3.69,3.69,0,0,1,3.4-2.69,2.08,2.08,0,0,1,.64.08v2.1a3.45,3.45,0,0,0-.76-.07,3.13,3.13,0,0,0-3,2.87,6.33,6.33,0,0,0-.1,1v6.55h-2.21Z"/><path class="cls-3" d="M321.66,39.36c0,4.55-3.15,6.53-6.12,6.53-3.33,0-5.89-2.44-5.89-6.33,0-4.11,2.69-6.52,6.09-6.52S321.66,35.6,321.66,39.36Zm-9.75.13c0,2.69,1.55,4.72,3.73,4.72s3.74-2,3.74-4.77c0-2.08-1.05-4.73-3.69-4.73S311.91,37.15,311.91,39.49Z"/><path class="cls-3" d="M324.55,28.72a21.8,21.8,0,0,1,4-.35c2.21,0,3.63.38,4.7,1.24a3.59,3.59,0,0,1,1.42,3,4.07,4.07,0,0,1-2.89,3.76v0a4.41,4.41,0,0,1,3.52,4.29,4.62,4.62,0,0,1-1.44,3.43c-1.2,1.09-3.13,1.6-5.92,1.6a26.35,26.35,0,0,1-3.43-.2Zm2.21,7h2c2.33,0,3.71-1.22,3.71-2.87,0-2-1.53-2.79-3.76-2.79a9.31,9.31,0,0,0-2,.15Zm0,8.2a11.44,11.44,0,0,0,1.86.1c2.28,0,4.39-.83,4.39-3.32s-2-3.3-4.42-3.3h-1.83Z"/><path class="cls-3" d="M348.52,42.26c0,1.27,0,2.38.1,3.35h-2l-.12-2h-.06a4.61,4.61,0,0,1-4.06,2.29c-1.93,0-4.24-1.07-4.24-5.39V33.32h2.24v6.8c0,2.34.71,3.91,2.74,3.91a3.21,3.21,0,0,0,2.94-2,3.17,3.17,0,0,0,.21-1.14V33.32h2.23Z"/><path class="cls-3" d="M362.84,27.58V42.43c0,1.1,0,2.34.1,3.18h-2l-.11-2.14h-.05a4.53,4.53,0,0,1-4.19,2.42c-3,0-5.25-2.52-5.25-6.25,0-4.09,2.51-6.6,5.51-6.6a4.12,4.12,0,0,1,3.71,1.88h.05V27.58Zm-2.23,10.74a3.77,3.77,0,0,0-.11-.94,3.28,3.28,0,0,0-3.22-2.59c-2.31,0-3.68,2-3.68,4.75,0,2.49,1.22,4.54,3.63,4.54a3.35,3.35,0,0,0,3.27-2.66,3.74,3.74,0,0,0,.11-1Z"/><path class="cls-3" d="M377.16,27.58V42.43c0,1.1,0,2.34.1,3.18h-2l-.11-2.14h0a4.53,4.53,0,0,1-4.19,2.42c-3,0-5.25-2.52-5.25-6.25,0-4.09,2.51-6.6,5.51-6.6a4.12,4.12,0,0,1,3.71,1.88h.05V27.58Zm-2.23,10.74a3.77,3.77,0,0,0-.11-.94,3.28,3.28,0,0,0-3.22-2.59c-2.31,0-3.68,2-3.68,4.75,0,2.49,1.22,4.54,3.63,4.54a3.35,3.35,0,0,0,3.27-2.66,3.74,3.74,0,0,0,.11-1Z"/><path class="cls-3" d="M381.68,33.32l2.69,7.26c.28.81.58,1.78.79,2.51h0c.23-.73.48-1.67.79-2.56l2.43-7.21h2.36l-3.35,8.76c-1.6,4.21-2.69,6.37-4.21,7.69a6,6,0,0,1-2.74,1.45l-.56-1.88a5.88,5.88,0,0,0,1.95-1.09,6.8,6.8,0,0,0,1.88-2.49,1.71,1.71,0,0,0,.18-.53,2,2,0,0,0-.15-.59l-4.55-11.32Z"/><path class="cls-3" d="M403.39,37.91v1.65h-6.28V37.91Z"/><path class="cls-3" d="M423.42,45.05a11,11,0,0,1-4.52.81c-4.83,0-8.46-3-8.46-8.66,0-5.35,3.63-9,8.94-9a9,9,0,0,1,4.06.77l-.53,1.8a8,8,0,0,0-3.45-.71c-4,0-6.68,2.56-6.68,7.06,0,4.19,2.41,6.88,6.57,6.88A8.88,8.88,0,0,0,423,43.3Z"/><path class="cls-3" d="M426.11,27.58h2.23v7.67h.05a4.19,4.19,0,0,1,1.6-1.58,4.62,4.62,0,0,1,2.29-.63c1.65,0,4.29,1,4.29,5.25v7.32h-2.24V38.55c0-2-.73-3.66-2.84-3.66a3.22,3.22,0,0,0-3,2.24,2.8,2.8,0,0,0-.15,1.06v7.42h-2.23Z"/><path class="cls-3" d="M447,45.61l-.18-1.55h-.07A4.61,4.61,0,0,1,443,45.89a3.51,3.51,0,0,1-3.76-3.53c0-3,2.64-4.6,7.39-4.57v-.26a2.53,2.53,0,0,0-2.79-2.84,6.11,6.11,0,0,0-3.2.91l-.51-1.47a7.65,7.65,0,0,1,4-1.09c3.76,0,4.67,2.56,4.67,5v4.59a17.62,17.62,0,0,0,.2,3Zm-.33-6.27c-2.44-.05-5.2.38-5.2,2.76a2,2,0,0,0,2.1,2.14,3.05,3.05,0,0,0,3-2.06,2.22,2.22,0,0,0,.13-.71Z"/><path class="cls-3" d="M455,29.79v3.53h3.19V35H455v6.63c0,1.52.43,2.38,1.67,2.38a4.84,4.84,0,0,0,1.3-.15l.1,1.68a5.67,5.67,0,0,1-2,.3,3.09,3.09,0,0,1-2.41-.94,4.52,4.52,0,0,1-.87-3.2V35h-1.9v-1.7h1.9V30.37Z"/><path class="cls-3" d="M460.81,28.72a21.8,21.8,0,0,1,4-.35c2.21,0,3.63.38,4.7,1.24a3.59,3.59,0,0,1,1.42,3,4.07,4.07,0,0,1-2.89,3.76v0a4.41,4.41,0,0,1,3.52,4.29,4.62,4.62,0,0,1-1.44,3.43c-1.2,1.09-3.13,1.6-5.92,1.6a26.35,26.35,0,0,1-3.43-.2Zm2.21,7h2c2.33,0,3.71-1.22,3.71-2.87,0-2-1.53-2.79-3.76-2.79a9.31,9.31,0,0,0-2,.15Zm0,8.2a11.44,11.44,0,0,0,1.86.1c2.28,0,4.39-.83,4.39-3.32s-2-3.3-4.42-3.3H463Z"/><path class="cls-3" d="M485.72,39.36c0,4.55-3.15,6.53-6.12,6.53-3.33,0-5.89-2.44-5.89-6.33,0-4.11,2.69-6.52,6.09-6.52S485.72,35.6,485.72,39.36Zm-9.75.13c0,2.69,1.55,4.72,3.73,4.72s3.73-2,3.73-4.77c0-2.08-1-4.73-3.68-4.73S476,37.15,476,39.49Z"/><path class="cls-3" d="M491.23,29.79v3.53h3.2V35h-3.2v6.63c0,1.52.43,2.38,1.67,2.38a4.84,4.84,0,0,0,1.3-.15l.1,1.68a5.67,5.67,0,0,1-2,.3,3.09,3.09,0,0,1-2.41-.94,4.52,4.52,0,0,1-.87-3.2V35h-1.9v-1.7H489V30.37Z"/><path class="cls-3" d="M301.37,89.05a10.91,10.91,0,0,1-4.52.81c-4.82,0-8.45-3-8.45-8.66,0-5.35,3.63-9,8.93-9a9.1,9.1,0,0,1,4.07.77l-.54,1.8a8,8,0,0,0-3.45-.71c-4,0-6.68,2.56-6.68,7.06,0,4.19,2.41,6.88,6.58,6.88a8.87,8.87,0,0,0,3.6-.71Z"/><path class="cls-3" d="M314.9,83.36c0,4.55-3.15,6.53-6.12,6.53-3.32,0-5.89-2.44-5.89-6.33,0-4.11,2.69-6.52,6.1-6.52S314.9,79.6,314.9,83.36Zm-9.75.13c0,2.69,1.55,4.72,3.73,4.72s3.74-2,3.74-4.77c0-2.08-1-4.73-3.69-4.73S305.15,81.15,305.15,83.49Z"/><path class="cls-3" d="M317.72,71.58H320v18h-2.23Z"/><path class="cls-3" d="M323.71,71.58h2.23v18h-2.23Z"/><path class="cls-3" d="M336.51,89.61l-.18-1.55h-.08a4.58,4.58,0,0,1-3.76,1.83,3.5,3.5,0,0,1-3.75-3.53c0-3,2.64-4.6,7.39-4.57v-.26a2.54,2.54,0,0,0-2.8-2.84,6.13,6.13,0,0,0-3.2.91l-.5-1.47a7.58,7.58,0,0,1,4-1.09c3.76,0,4.67,2.56,4.67,5v4.59a16.55,16.55,0,0,0,.21,3Zm-.33-6.27c-2.44,0-5.21.38-5.21,2.76a2,2,0,0,0,2.11,2.14,3.06,3.06,0,0,0,3-2.06,2.22,2.22,0,0,0,.13-.71Z"/><path class="cls-3" d="M341.84,89.61c.05-.84.1-2.08.1-3.18V71.58h2.21V79.3h.05A4.58,4.58,0,0,1,348.39,77c3,0,5.2,2.54,5.18,6.27,0,4.39-2.77,6.58-5.51,6.58a4.4,4.4,0,0,1-4.12-2.31h-.07l-.1,2Zm2.31-4.93a4.17,4.17,0,0,0,.1.81,3.45,3.45,0,0,0,3.35,2.62c2.34,0,3.73-1.9,3.73-4.72,0-2.47-1.27-4.57-3.65-4.57a3.57,3.57,0,0,0-3.41,2.74,4.47,4.47,0,0,0-.12.91Z"/><path class="cls-3" d="M367.5,83.36c0,4.55-3.14,6.53-6.11,6.53-3.33,0-5.89-2.44-5.89-6.33,0-4.11,2.69-6.52,6.09-6.52S367.5,79.6,367.5,83.36Zm-9.75.13c0,2.69,1.55,4.72,3.74,4.72s3.73-2,3.73-4.77c0-2.08-1-4.73-3.68-4.73S357.75,81.15,357.75,83.49Z"/><path class="cls-3" d="M370.32,81.15c0-1.44,0-2.69-.1-3.83h2l.07,2.41h.1A3.69,3.69,0,0,1,375.76,77a2,2,0,0,1,.63.08v2.1a3.45,3.45,0,0,0-.76-.07,3.13,3.13,0,0,0-3,2.87,6.33,6.33,0,0,0-.1,1v6.55h-2.21Z"/><path class="cls-3" d="M385.3,89.61l-.17-1.55h-.08a4.61,4.61,0,0,1-3.76,1.83,3.51,3.51,0,0,1-3.76-3.53c0-3,2.64-4.6,7.39-4.57v-.26a2.53,2.53,0,0,0-2.79-2.84,6.11,6.11,0,0,0-3.2.91l-.51-1.47a7.65,7.65,0,0,1,4-1.09c3.76,0,4.67,2.56,4.67,5v4.59a17.62,17.62,0,0,0,.2,3ZM385,83.34c-2.43,0-5.2.38-5.2,2.76a2,2,0,0,0,2.11,2.14,3.07,3.07,0,0,0,3-2.06,2.52,2.52,0,0,0,.12-.71Z"/><path class="cls-3" d="M393.33,73.79v3.53h3.19V79h-3.19v6.63c0,1.52.43,2.38,1.67,2.38a4.9,4.9,0,0,0,1.3-.15l.1,1.68a5.67,5.67,0,0,1-2,.3,3.12,3.12,0,0,1-2.42-.94,4.57,4.57,0,0,1-.86-3.2V79h-1.9v-1.7h1.9V74.37Z"/><path class="cls-3" d="M401.53,73.87a1.39,1.39,0,0,1-2.77,0,1.36,1.36,0,0,1,1.39-1.4A1.33,1.33,0,0,1,401.53,73.87ZM399,89.61V77.32h2.23V89.61Z"/><path class="cls-3" d="M416.1,83.36c0,4.55-3.15,6.53-6.12,6.53-3.33,0-5.89-2.44-5.89-6.33,0-4.11,2.69-6.52,6.09-6.52S416.1,79.6,416.1,83.36Zm-9.75.13c0,2.69,1.55,4.72,3.73,4.72s3.73-2,3.73-4.77c0-2.08-1-4.73-3.68-4.73S406.35,81.15,406.35,83.49Z"/><path class="cls-3" d="M418.92,80.64c0-1.26,0-2.31-.11-3.32h2l.13,2H421A4.52,4.52,0,0,1,425,77c1.7,0,4.34,1,4.34,5.23v7.34h-2.24V82.52c0-2-.73-3.63-2.84-3.63a3.18,3.18,0,0,0-3,2.29,3.26,3.26,0,0,0-.15,1v7.39h-2.23Z"/><path class="cls-3" d="M302.38,132.85a16,16,0,0,1-5.25.94,8,8,0,0,1-8.79-8.64c0-5.1,3.53-8.83,9.27-8.83a10.65,10.65,0,0,1,4.26.78l-.53,1.81a8.8,8.8,0,0,0-3.78-.74c-4.17,0-6.88,2.59-6.88,6.88s2.61,6.91,6.6,6.91a7.26,7.26,0,0,0,2.94-.46v-5.1h-3.48v-1.78h5.64Z"/><path class="cls-3" d="M312.69,133.61l-.18-1.55h-.08a4.57,4.57,0,0,1-3.75,1.83,3.51,3.51,0,0,1-3.76-3.53c0-3,2.64-4.6,7.39-4.57v-.26a2.54,2.54,0,0,0-2.8-2.84,6.13,6.13,0,0,0-3.2.91l-.5-1.47a7.58,7.58,0,0,1,4-1.09c3.76,0,4.68,2.56,4.68,5v4.59a17.62,17.62,0,0,0,.2,3Zm-.33-6.27c-2.44,0-5.21.38-5.21,2.76a2,2,0,0,0,2.11,2.14,3.05,3.05,0,0,0,3-2.06,2.22,2.22,0,0,0,.13-.71Z"/><path class="cls-3" d="M318.12,124.64c0-1.26,0-2.31-.1-3.32h2l.11,2h.07A4.24,4.24,0,0,1,324,121a3.62,3.62,0,0,1,3.48,2.46h.05a5.08,5.08,0,0,1,1.37-1.6,4.2,4.2,0,0,1,2.72-.86c1.62,0,4,1.07,4,5.33v7.24h-2.19v-7c0-2.36-.86-3.78-2.66-3.78a2.91,2.91,0,0,0-2.65,2A3.72,3.72,0,0,0,328,126v7.59h-2.19v-7.37c0-1.95-.86-3.37-2.56-3.37a3,3,0,0,0-2.77,2.23,3,3,0,0,0-.18,1.09v7.42h-2.18Z"/><path class="cls-3" d="M341.78,117.87a1.31,1.31,0,0,1-1.42,1.37,1.33,1.33,0,0,1-1.35-1.37,1.37,1.37,0,0,1,1.4-1.4A1.33,1.33,0,0,1,341.78,117.87Zm-2.49,15.74V121.32h2.24v12.29Z"/><path class="cls-3" d="M345.46,133.61V123h-1.72v-1.7h1.72v-.66c0-3.25,1.91-5.36,5.36-5.36a6.2,6.2,0,0,1,3.12.81l-.63,1.7a4.7,4.7,0,0,0-2.59-.71c-2.36,0-3.05,1.65-3.05,3.61v.61h7.14v12.29H352.6V123h-4.93v10.59Z"/><path class="cls-3" d="M367.27,133.15a8.14,8.14,0,0,1-3.53.71c-3.7,0-6.12-2.51-6.12-6.27a6.25,6.25,0,0,1,6.61-6.53,7.34,7.34,0,0,1,3.09.64l-.5,1.73a5.16,5.16,0,0,0-2.59-.59c-2.82,0-4.35,2.08-4.35,4.65,0,2.84,1.83,4.59,4.27,4.59a6.31,6.31,0,0,0,2.74-.61Z"/><path class="cls-3" d="M376.69,133.61l-.18-1.55h-.07a4.61,4.61,0,0,1-3.76,1.83,3.51,3.51,0,0,1-3.76-3.53c0-3,2.64-4.6,7.39-4.57v-.26a2.53,2.53,0,0,0-2.79-2.84,6.11,6.11,0,0,0-3.2.91l-.51-1.47a7.65,7.65,0,0,1,4-1.09c3.76,0,4.67,2.56,4.67,5v4.59a17.62,17.62,0,0,0,.2,3Zm-.33-6.27c-2.44,0-5.2.38-5.2,2.76a2,2,0,0,0,2.1,2.14,3.05,3.05,0,0,0,3-2.06,2.22,2.22,0,0,0,.13-.71Z"/><path class="cls-3" d="M384.71,117.79v3.53h3.2V123h-3.2v6.63c0,1.52.44,2.38,1.68,2.38a4.76,4.76,0,0,0,1.29-.15l.11,1.68a5.71,5.71,0,0,1-2,.3,3.11,3.11,0,0,1-2.42-.94,4.57,4.57,0,0,1-.86-3.2V123h-1.9v-1.7h1.9v-2.95Z"/><path class="cls-3" d="M392.91,117.87a1.31,1.31,0,0,1-1.42,1.37,1.33,1.33,0,0,1-1.34-1.37,1.36,1.36,0,0,1,1.39-1.4A1.33,1.33,0,0,1,392.91,117.87Zm-2.48,15.74V121.32h2.23v12.29Z"/><path class="cls-3" d="M407.49,127.36c0,4.55-3.15,6.53-6.12,6.53-3.33,0-5.89-2.44-5.89-6.33,0-4.11,2.69-6.52,6.09-6.52S407.49,123.6,407.49,127.36Zm-9.75.13c0,2.69,1.55,4.72,3.73,4.72s3.73-2,3.73-4.77c0-2.08-1-4.73-3.68-4.73S397.74,125.15,397.74,127.49Z"/><path class="cls-3" d="M410.3,124.64c0-1.26,0-2.31-.1-3.32h2l.13,2h.05a4.51,4.51,0,0,1,4.06-2.31c1.71,0,4.35,1,4.35,5.23v7.34h-2.24v-7.09c0-2-.74-3.63-2.84-3.63a3.17,3.17,0,0,0-3,2.29,3.26,3.26,0,0,0-.15,1v7.39H410.3Z"/><circle class="cls-4" cx="264.36" cy="39" r="4.5"/><circle class="cls-4" cx="264.37" cy="81.97" r="4.5"/><circle class="cls-4" cx="264.39" cy="124.93" r="4.5"/><circle class="cls-4" cx="264.36" cy="199" r="4.5"/><circle class="cls-4" cx="264.37" cy="241.97" r="4.5"/><circle class="cls-4" cx="264.39" cy="284.93" r="4.5"/><circle class="cls-4" cx="264.36" cy="366" r="4.5"/><circle class="cls-4" cx="264.37" cy="408.97" r="4.5"/><circle class="cls-4" cx="264.39" cy="451.93" r="4.5"/><circle class="cls-4" cx="264.36" cy="528" r="4.5"/><circle class="cls-4" cx="264.37" cy="570.97" r="4.5"/><circle class="cls-4" cx="264.39" cy="613.93" r="4.5"/><path class="cls-3" d="M85.93,299.36l-1.63,5.35H80.75l6-18.87h4.39l6.13,18.87H93.63l-1.71-5.35Zm5.4-2.6-1.48-4.65c-.37-1.15-.67-2.44-.95-3.53h-.06c-.28,1.09-.56,2.41-.9,3.53l-1.45,4.65Z"/><path class="cls-3" d="M111.91,291.08c0,.92-.11,2-.11,3.92v7.72c0,2.86-.59,4.9-2,6.19a7.81,7.81,0,0,1-5.26,1.65,9.63,9.63,0,0,1-4.76-1.09l.76-2.6a8.24,8.24,0,0,0,4,1c2.24,0,3.92-1.17,3.92-4.11v-1.18h0a4.61,4.61,0,0,1-4,2c-3.39,0-5.8-2.8-5.8-6.67,0-4.48,2.92-7.19,6.19-7.19a4.29,4.29,0,0,1,4,2.13h.06l.14-1.82Zm-3.55,5.46a3.17,3.17,0,0,0-.12-.93,2.85,2.85,0,0,0-2.8-2.21c-1.93,0-3.36,1.68-3.36,4.45,0,2.32,1.18,4.2,3.34,4.2a3,3,0,0,0,2.8-2.07,6.18,6.18,0,0,0,.14-1.23Z"/><path class="cls-3" d="M119.05,287.27a1.93,1.93,0,1,1-1.93-1.88A1.83,1.83,0,0,1,119.05,287.27Zm-3.67,17.44V291.08h3.48v13.63Z"/><path class="cls-3" d="M122.55,284.83H126v19.88h-3.47Z"/><path class="cls-3" d="M133.42,287.27a1.94,1.94,0,1,1-1.94-1.88A1.83,1.83,0,0,1,133.42,287.27Zm-3.67,17.44V291.08h3.47v13.63Z"/><path class="cls-3" d="M140.86,287.18v3.9h3.28v2.57h-3.28v6c0,1.65.45,2.52,1.77,2.52A4.8,4.8,0,0,0,144,302l.06,2.64a7.79,7.79,0,0,1-2.49.33,4,4,0,0,1-3-1.12,5.41,5.41,0,0,1-1.07-3.81v-6.41h-2v-2.57h2V288Z"/><path class="cls-3" d="M149.09,291.08l2.47,7.3c.28.84.56,1.88.75,2.66h.09c.22-.78.48-1.79.73-2.68l2.12-7.28H159l-3.41,9.29c-1.88,5.1-3.14,7.37-4.77,8.76a6.86,6.86,0,0,1-3.61,1.77l-.78-2.91a5.93,5.93,0,0,0,2-.95,6,6,0,0,0,1.88-2.16,1.4,1.4,0,0,0,.23-.62,1.46,1.46,0,0,0-.2-.67l-5-12.51Z"/><path class="cls-3" d="M289.39,188.91h2.21v8.25h.08c.46-.66.91-1.27,1.34-1.82l5.23-6.43H301l-6.2,7.26,6.68,9.86h-2.62l-5.63-8.41-1.63,1.88V206h-2.21Z"/><path class="cls-3" d="M310.29,206l-.18-1.55H310a4.6,4.6,0,0,1-3.76,1.82,3.5,3.5,0,0,1-3.76-3.52c0-3,2.64-4.6,7.39-4.57V198a2.53,2.53,0,0,0-2.79-2.84,6.08,6.08,0,0,0-3.2.91l-.51-1.47a7.62,7.62,0,0,1,4-1.09c3.75,0,4.67,2.56,4.67,5v4.6a17.62,17.62,0,0,0,.2,2.95Zm-.33-6.28c-2.44-.05-5.21.38-5.21,2.77a2,2,0,0,0,2.11,2.13,3,3,0,0,0,3-2.05,2.22,2.22,0,0,0,.13-.71Z"/><path class="cls-3" d="M315.72,197.06c0-1.27,0-2.31-.1-3.32h2l.13,2h0a4.51,4.51,0,0,1,4.06-2.31c1.7,0,4.34,1,4.34,5.23V206H324v-7.09c0-2-.74-3.63-2.85-3.63a3.17,3.17,0,0,0-3,2.29,3.26,3.26,0,0,0-.15,1V206h-2.24Z"/><path class="cls-3" d="M329.71,206c.05-.84.1-2.09.1-3.18V188H332v7.72h.05a4.58,4.58,0,0,1,4.19-2.26c3.05,0,5.21,2.54,5.18,6.27,0,4.39-2.77,6.57-5.51,6.57a4.36,4.36,0,0,1-4.11-2.31h-.08l-.1,2ZM332,201.1a4.17,4.17,0,0,0,.1.81,3.45,3.45,0,0,0,3.35,2.62c2.34,0,3.74-1.91,3.74-4.73,0-2.46-1.27-4.57-3.66-4.57a3.57,3.57,0,0,0-3.4,2.75,4.41,4.41,0,0,0-.13.91Z"/><path class="cls-3" d="M351.06,206l-.18-1.55h-.07a4.6,4.6,0,0,1-3.76,1.82,3.5,3.5,0,0,1-3.76-3.52c0-3,2.64-4.6,7.39-4.57V198a2.53,2.53,0,0,0-2.79-2.84,6.11,6.11,0,0,0-3.2.91l-.51-1.47a7.65,7.65,0,0,1,4-1.09c3.76,0,4.67,2.56,4.67,5v4.6a17.62,17.62,0,0,0,.2,2.95Zm-.33-6.28c-2.44-.05-5.2.38-5.2,2.77a2,2,0,0,0,2.1,2.13,3.07,3.07,0,0,0,3-2.05,2.52,2.52,0,0,0,.12-.71Z"/><path class="cls-3" d="M356.5,197.06c0-1.27,0-2.31-.11-3.32h2l.13,2h.05a4.51,4.51,0,0,1,4.06-2.31c1.71,0,4.35,1,4.35,5.23V206h-2.24v-7.09c0-2-.73-3.63-2.84-3.63a3.18,3.18,0,0,0-3,2.29,3.26,3.26,0,0,0-.15,1V206H356.5Z"/><path class="cls-3" d="M386.76,206c-.48-.49-.94-1-1.6-1.68a7,7,0,0,1-5,2c-3.33,0-5.26-2.23-5.26-4.79,0-2.34,1.4-3.94,3.35-5v-.07a5.87,5.87,0,0,1-1.42-3.58,4.16,4.16,0,0,1,4.34-4.22,3.56,3.56,0,0,1,3.79,3.63c0,1.81-1,3.23-3.76,4.57v.08c1.45,1.68,3.07,3.55,4.16,4.77a12.46,12.46,0,0,0,1.65-5h2a12.91,12.91,0,0,1-2.46,6.32c.92,1,1.8,1.93,2.82,3Zm-2.69-2.95c-1-1.12-2.92-3.2-4.83-5.38a4.2,4.2,0,0,0-2.21,3.48,3.38,3.38,0,0,0,3.51,3.45A4.8,4.8,0,0,0,384.07,203.08Zm-5.21-10.44a4.82,4.82,0,0,0,1.3,3.08c1.72-1,2.84-1.91,2.84-3.35a2,2,0,0,0-2-2.21A2.22,2.22,0,0,0,378.86,192.64Z"/><path class="cls-3" d="M396.71,197.57c0-1.45,0-2.69-.1-3.83h1.95l.08,2.41h.1a3.69,3.69,0,0,1,3.4-2.69,2.46,2.46,0,0,1,.64.07v2.11a3.41,3.41,0,0,0-.76-.08,3.14,3.14,0,0,0-3,2.87,6.44,6.44,0,0,0-.1,1V206h-2.21Z"/><path class="cls-3" d="M406,200.29a3.93,3.93,0,0,0,4.22,4.26,8.17,8.17,0,0,0,3.4-.63l.38,1.6a10.06,10.06,0,0,1-4.09.76c-3.78,0-6-2.49-6-6.2s2.18-6.62,5.76-6.62c4,0,5.08,3.53,5.08,5.79a7.57,7.57,0,0,1-.08,1Zm6.55-1.6c0-1.42-.58-3.63-3.09-3.63-2.26,0-3.25,2.08-3.43,3.63Z"/><path class="cls-3" d="M417.48,188h2.23v18h-2.23Z"/><path class="cls-3" d="M424.71,200.29a3.93,3.93,0,0,0,4.22,4.26,8.17,8.17,0,0,0,3.4-.63l.38,1.6a10.06,10.06,0,0,1-4.09.76c-3.78,0-6-2.49-6-6.2s2.18-6.62,5.76-6.62c4,0,5.08,3.53,5.08,5.79a10.18,10.18,0,0,1-.07,1Zm6.55-1.6c0-1.42-.58-3.63-3.09-3.63-2.26,0-3.25,2.08-3.43,3.63Z"/><path class="cls-3" d="M443,206l-.17-1.55h-.08A4.6,4.6,0,0,1,439,206.3a3.5,3.5,0,0,1-3.76-3.52c0-3,2.64-4.6,7.39-4.57V198a2.53,2.53,0,0,0-2.79-2.84,6.11,6.11,0,0,0-3.2.91l-.51-1.47a7.65,7.65,0,0,1,4-1.09c3.76,0,4.67,2.56,4.67,5v4.6A17.62,17.62,0,0,0,445,206Zm-.33-6.28c-2.43-.05-5.2.38-5.2,2.77a2,2,0,0,0,2.11,2.13,3.06,3.06,0,0,0,3-2.05,2.52,2.52,0,0,0,.12-.71Z"/><path class="cls-3" d="M448.12,203.74a5.88,5.88,0,0,0,2.95.89c1.62,0,2.38-.81,2.38-1.83s-.63-1.65-2.28-2.26c-2.21-.79-3.25-2-3.25-3.48,0-2,1.6-3.6,4.24-3.6a6.11,6.11,0,0,1,3,.76l-.56,1.62a4.81,4.81,0,0,0-2.51-.71c-1.32,0-2.06.76-2.06,1.68s.74,1.47,2.34,2.08c2.13.81,3.22,1.88,3.22,3.71,0,2.16-1.67,3.68-4.59,3.68a7,7,0,0,1-3.46-.84Z"/><path class="cls-3" d="M459.72,200.29a3.93,3.93,0,0,0,4.22,4.26,8.17,8.17,0,0,0,3.4-.63l.38,1.6a10.06,10.06,0,0,1-4.09.76c-3.78,0-6-2.49-6-6.2s2.18-6.62,5.76-6.62c4,0,5.08,3.53,5.08,5.79a10.18,10.18,0,0,1-.07,1Zm6.55-1.6c0-1.42-.58-3.63-3.09-3.63-2.26,0-3.25,2.08-3.43,3.63Z"/><path class="cls-3" d="M470.89,203.74a5.88,5.88,0,0,0,2.95.89c1.62,0,2.39-.81,2.39-1.83s-.64-1.65-2.29-2.26c-2.21-.79-3.25-2-3.25-3.48,0-2,1.6-3.6,4.24-3.6a6.05,6.05,0,0,1,3,.76l-.56,1.62a4.81,4.81,0,0,0-2.51-.71c-1.32,0-2.06.76-2.06,1.68s.74,1.47,2.34,2.08c2.13.81,3.22,1.88,3.22,3.71,0,2.16-1.67,3.68-4.59,3.68a7,7,0,0,1-3.45-.84Z"/><path class="cls-3" d="M292.64,234.79h-5.2v-1.88h12.67v1.88h-5.23V250h-2.24Z"/><path class="cls-3" d="M300.79,241.57c0-1.45,0-2.69-.1-3.83h2l.07,2.41h.1a3.69,3.69,0,0,1,3.41-2.69,2.43,2.43,0,0,1,.63.07v2.11a3.41,3.41,0,0,0-.76-.08,3.15,3.15,0,0,0-3,2.87,6.44,6.44,0,0,0-.1,1V250h-2.21Z"/><path class="cls-3" d="M315.77,250l-.18-1.55h-.07a4.6,4.6,0,0,1-3.76,1.82,3.5,3.5,0,0,1-3.76-3.52c0-3,2.64-4.6,7.39-4.57V242a2.53,2.53,0,0,0-2.79-2.84,6.11,6.11,0,0,0-3.2.91l-.51-1.47a7.65,7.65,0,0,1,4-1.09c3.76,0,4.67,2.56,4.67,5v4.6a17.62,17.62,0,0,0,.2,2.95Zm-.33-6.28c-2.44-.05-5.2.38-5.2,2.77a2,2,0,0,0,2.1,2.13,3.07,3.07,0,0,0,3-2.05,2.52,2.52,0,0,0,.12-.71Z"/><path class="cls-3" d="M330,249.57a8.24,8.24,0,0,1-3.52.71c-3.71,0-6.12-2.51-6.12-6.27a6.24,6.24,0,0,1,6.6-6.53,7.39,7.39,0,0,1,3.1.64l-.51,1.72a5.26,5.26,0,0,0-2.59-.58c-2.82,0-4.34,2.08-4.34,4.65,0,2.84,1.82,4.59,4.26,4.59a6.31,6.31,0,0,0,2.74-.61Z"/><path class="cls-3" d="M333.67,244.29a3.93,3.93,0,0,0,4.22,4.26,8.17,8.17,0,0,0,3.4-.63l.38,1.6a10.06,10.06,0,0,1-4.09.76c-3.78,0-6-2.49-6-6.2s2.18-6.62,5.76-6.62c4,0,5.08,3.53,5.08,5.79a7.57,7.57,0,0,1-.08,1Zm6.55-1.6c0-1.42-.58-3.63-3.09-3.63-2.26,0-3.25,2.08-3.43,3.63Z"/><path class="cls-3" d="M352,250l-.18-1.55h-.07a4.6,4.6,0,0,1-3.76,1.82,3.5,3.5,0,0,1-3.76-3.52c0-3,2.64-4.6,7.39-4.57V242a2.53,2.53,0,0,0-2.79-2.84,6.11,6.11,0,0,0-3.2.91l-.51-1.47a7.65,7.65,0,0,1,4-1.09c3.76,0,4.67,2.56,4.67,5v4.6A17.62,17.62,0,0,0,354,250Zm-.33-6.28c-2.44-.05-5.2.38-5.2,2.77a2,2,0,0,0,2.1,2.13,3.07,3.07,0,0,0,3-2.05,2.52,2.52,0,0,0,.12-.71Z"/><path class="cls-3" d="M357.28,250c.05-.84.1-2.09.1-3.18V232h2.21v7.72h.05a4.58,4.58,0,0,1,4.19-2.26c3.05,0,5.21,2.54,5.18,6.27,0,4.39-2.76,6.57-5.51,6.57a4.37,4.37,0,0,1-4.11-2.31h-.08l-.1,2Zm2.31-4.93a3.52,3.52,0,0,0,.11.81,3.44,3.44,0,0,0,3.35,2.62c2.33,0,3.73-1.91,3.73-4.73,0-2.46-1.27-4.57-3.66-4.57a3.57,3.57,0,0,0-3.4,2.75,4.41,4.41,0,0,0-.13.91Z"/><path class="cls-3" d="M374.32,234.28a1.39,1.39,0,0,1-2.77,0,1.36,1.36,0,0,1,1.4-1.39A1.32,1.32,0,0,1,374.32,234.28ZM371.83,250V237.74h2.23V250Z"/><path class="cls-3" d="M377.77,232H380v18h-2.23Z"/><path class="cls-3" d="M386.25,234.28a1.31,1.31,0,0,1-1.42,1.37,1.33,1.33,0,0,1-1.35-1.37,1.36,1.36,0,0,1,1.4-1.39A1.32,1.32,0,0,1,386.25,234.28ZM383.76,250V237.74H386V250Z"/><path class="cls-3" d="M392.39,234.21v3.53h3.2v1.7h-3.2v6.62c0,1.53.44,2.39,1.68,2.39a4.81,4.81,0,0,0,1.29-.15l.11,1.67a5.45,5.45,0,0,1-2,.31,3.11,3.11,0,0,1-2.42-.94,4.57,4.57,0,0,1-.86-3.2v-6.7h-1.9v-1.7h1.9v-3Z"/><path class="cls-3" d="M399.15,237.74l2.69,7.26c.28.81.58,1.78.78,2.51h.05c.23-.73.49-1.67.79-2.56l2.44-7.21h2.36l-3.35,8.76c-1.6,4.21-2.69,6.37-4.22,7.69a6.08,6.08,0,0,1-2.74,1.45l-.56-1.88a6.11,6.11,0,0,0,2-1.09,6.89,6.89,0,0,0,1.88-2.49,1.67,1.67,0,0,0,.18-.54,2.14,2.14,0,0,0-.16-.58l-4.54-11.32Z"/><path class="cls-3" d="M415.67,241.06c0-1.27,0-2.31-.1-3.32h2l.1,2h.07a4.24,4.24,0,0,1,3.86-2.26,3.62,3.62,0,0,1,3.48,2.46h0a5.09,5.09,0,0,1,1.37-1.6,4.2,4.2,0,0,1,2.72-.86c1.63,0,4,1.06,4,5.33V250H431v-7c0-2.36-.86-3.78-2.66-3.78a2.88,2.88,0,0,0-2.64,2,3.68,3.68,0,0,0-.18,1.11V250h-2.18v-7.37c0-1.95-.87-3.37-2.57-3.37a3.06,3.06,0,0,0-2.77,2.23,3.23,3.23,0,0,0-.17,1.09V250h-2.19Z"/><path class="cls-3" d="M443.65,250l-.18-1.55h-.07a4.6,4.6,0,0,1-3.76,1.82,3.5,3.5,0,0,1-3.76-3.52c0-3,2.64-4.6,7.39-4.57V242a2.53,2.53,0,0,0-2.79-2.84,6.08,6.08,0,0,0-3.2.91l-.51-1.47a7.65,7.65,0,0,1,4-1.09c3.76,0,4.67,2.56,4.67,5v4.6a17.62,17.62,0,0,0,.2,2.95Zm-.33-6.28c-2.44-.05-5.2.38-5.2,2.77a2,2,0,0,0,2.1,2.13,3,3,0,0,0,3-2.05,2.22,2.22,0,0,0,.13-.71Z"/><path class="cls-3" d="M451.67,234.21v3.53h3.2v1.7h-3.2v6.62c0,1.53.44,2.39,1.68,2.39a4.76,4.76,0,0,0,1.29-.15l.11,1.67a5.45,5.45,0,0,1-2,.31,3.11,3.11,0,0,1-2.42-.94,4.57,4.57,0,0,1-.86-3.2v-6.7h-1.9v-1.7h1.9v-3Z"/><path class="cls-3" d="M457.39,241.57c0-1.45,0-2.69-.11-3.83h2l.08,2.41h.1a3.68,3.68,0,0,1,3.4-2.69,2.43,2.43,0,0,1,.63.07v2.11a3.28,3.28,0,0,0-.76-.08,3.13,3.13,0,0,0-3,2.87,6.38,6.38,0,0,0-.11,1V250h-2.2Z"/><path class="cls-3" d="M468.28,234.28a1.39,1.39,0,0,1-2.77,0,1.36,1.36,0,0,1,1.4-1.39A1.33,1.33,0,0,1,468.28,234.28ZM465.79,250V237.74H468V250Z"/><path class="cls-3" d="M472.77,237.74l1.75,2.64c.46.68.84,1.32,1.25,2h.07c.41-.73.82-1.37,1.22-2l1.73-2.61h2.41L477,243.68l4.32,6.35h-2.54l-1.8-2.77c-.49-.71-.89-1.4-1.32-2.13h-.06c-.4.73-.83,1.39-1.29,2.13L472.54,250h-2.46l4.37-6.28-4.17-6Z"/><path class="cls-3" d="M289.39,277.14a23,23,0,0,1,4.24-.35c2.37,0,3.89.43,4.95,1.39a4.24,4.24,0,0,1,1.35,3.25,4.5,4.5,0,0,1-3.22,4.37v.08c1.32.45,2.1,1.67,2.51,3.45a27.2,27.2,0,0,0,1.32,4.7h-2.29a23.19,23.19,0,0,1-1.14-4.09c-.51-2.36-1.42-3.25-3.43-3.33H291.6V294h-2.21Zm2.21,7.8h2.26c2.36,0,3.86-1.3,3.86-3.25,0-2.21-1.6-3.18-3.93-3.2a9.3,9.3,0,0,0-2.19.2Z"/><path class="cls-3" d="M304.32,288.29a3.93,3.93,0,0,0,4.22,4.26,8.17,8.17,0,0,0,3.4-.63l.38,1.6a10.06,10.06,0,0,1-4.09.76c-3.78,0-6-2.49-6-6.2s2.18-6.62,5.76-6.62c4,0,5.08,3.53,5.08,5.79a10.18,10.18,0,0,1-.07,1Zm6.55-1.6c0-1.42-.58-3.63-3.09-3.63-2.26,0-3.25,2.08-3.43,3.63Z"/><path class="cls-3" d="M321.69,286.33V288h-6.27v-1.65Z"/><path class="cls-3" d="M334.59,290.67c0,1.27,0,2.39.1,3.36h-2l-.13-2h-.05a4.62,4.62,0,0,1-4.06,2.28c-1.93,0-4.24-1.06-4.24-5.38v-7.18h2.23v6.8c0,2.34.71,3.91,2.74,3.91a3.13,3.13,0,0,0,3.15-3.17v-7.54h2.24Z"/><path class="cls-3" d="M338,291.74a5.87,5.87,0,0,0,2.94.89c1.63,0,2.39-.81,2.39-1.83s-.64-1.65-2.29-2.26c-2.2-.79-3.25-2-3.25-3.48,0-2,1.6-3.6,4.24-3.6a6.13,6.13,0,0,1,3,.76l-.56,1.62a4.85,4.85,0,0,0-2.52-.71c-1.32,0-2.05.76-2.05,1.68s.73,1.47,2.33,2.08c2.14.81,3.23,1.88,3.23,3.71,0,2.16-1.68,3.68-4.6,3.68a7,7,0,0,1-3.45-.84Z"/><path class="cls-3" d="M355.15,294l-.18-1.55h-.07a4.6,4.6,0,0,1-3.76,1.82,3.5,3.5,0,0,1-3.76-3.52c0-3,2.64-4.6,7.39-4.57V286a2.53,2.53,0,0,0-2.79-2.84,6.08,6.08,0,0,0-3.2.91l-.51-1.47a7.65,7.65,0,0,1,4-1.09c3.75,0,4.67,2.56,4.67,5v4.6a17.62,17.62,0,0,0,.2,2.95Zm-.33-6.28c-2.44-.05-5.2.38-5.2,2.77a2,2,0,0,0,2.1,2.13,3,3,0,0,0,3-2,2.22,2.22,0,0,0,.13-.71Z"/><path class="cls-3" d="M360.48,294c0-.84.1-2.09.1-3.18V276h2.21v7.72h0a4.58,4.58,0,0,1,4.19-2.26c3.05,0,5.21,2.54,5.18,6.27,0,4.39-2.77,6.57-5.51,6.57a4.36,4.36,0,0,1-4.11-2.31h-.08l-.1,2Zm2.31-4.93a4.17,4.17,0,0,0,.1.81,3.46,3.46,0,0,0,3.36,2.62c2.33,0,3.73-1.91,3.73-4.73,0-2.46-1.27-4.57-3.66-4.57a3.57,3.57,0,0,0-3.4,2.75,4.41,4.41,0,0,0-.13.91Z"/><path class="cls-3" d="M375,276h2.23v18H375Z"/><path class="cls-3" d="M382.26,288.29a3.93,3.93,0,0,0,4.22,4.26,8.17,8.17,0,0,0,3.4-.63l.38,1.6a10.06,10.06,0,0,1-4.09.76c-3.78,0-6-2.49-6-6.2s2.18-6.62,5.76-6.62c4,0,5.08,3.53,5.08,5.79a10.18,10.18,0,0,1-.07,1Zm6.55-1.6c0-1.42-.58-3.63-3.09-3.63-2.26,0-3.25,2.08-3.43,3.63Z"/><path class="cls-3" d="M407.5,292.12h-.05a4.37,4.37,0,0,1-4,2.18c-2.87,0-5.21-2.48-5.21-6.22,0-4.59,3-6.62,5.56-6.62a4,4,0,0,1,3.79,2.13h.05l.07-1.85h2.11c-.05,1-.08,2.1-.08,3.37v13.94H407.5Zm0-5.41a4.17,4.17,0,0,0-.1-.94,3.26,3.26,0,0,0-3.2-2.54c-2.31,0-3.71,2-3.71,4.73,0,2.43,1.17,4.57,3.63,4.57a3.33,3.33,0,0,0,3.2-2.44,3.81,3.81,0,0,0,.18-1.07Z"/><path class="cls-3" d="M423.7,290.67c0,1.27,0,2.39.1,3.36h-2l-.13-2h-.05a4.62,4.62,0,0,1-4.06,2.28c-1.93,0-4.24-1.06-4.24-5.38v-7.18h2.23v6.8c0,2.34.71,3.91,2.74,3.91a3.13,3.13,0,0,0,3.15-3.17v-7.54h2.24Z"/><path class="cls-3" d="M438.52,287.78c0,4.54-3.14,6.52-6.11,6.52-3.33,0-5.9-2.43-5.9-6.32,0-4.11,2.7-6.52,6.1-6.52S438.52,284,438.52,287.78Zm-9.75.13c0,2.69,1.55,4.72,3.74,4.72s3.73-2,3.73-4.77c0-2.09-1-4.73-3.68-4.73S428.77,285.57,428.77,287.91Z"/><path class="cls-3" d="M444,278.21v3.53h3.2v1.7H444v6.62c0,1.53.43,2.39,1.68,2.39a4.81,4.81,0,0,0,1.29-.15l.11,1.67a5.45,5.45,0,0,1-2,.31,3.11,3.11,0,0,1-2.42-.94,4.57,4.57,0,0,1-.86-3.2v-6.7H440v-1.7h1.9v-2.95Z"/><path class="cls-3" d="M452.23,278.28a1.38,1.38,0,0,1-2.76,0,1.36,1.36,0,0,1,1.39-1.39A1.32,1.32,0,0,1,452.23,278.28ZM449.75,294V281.74H452V294Z"/><path class="cls-3" d="M456.93,288.29c.05,3,2,4.26,4.21,4.26a8.22,8.22,0,0,0,3.41-.63l.38,1.6a10.1,10.1,0,0,1-4.09.76c-3.78,0-6-2.49-6-6.2s2.18-6.62,5.76-6.62c4,0,5.08,3.53,5.08,5.79a7.57,7.57,0,0,1-.08,1Zm6.55-1.6c0-1.42-.58-3.63-3.1-3.63-2.26,0-3.25,2.08-3.42,3.63Z"/><path class="cls-3" d="M468.41,285.06c0-1.27,0-2.31-.11-3.32h2l.13,2h0a4.51,4.51,0,0,1,4.06-2.31c1.71,0,4.35,1,4.35,5.23V294h-2.24v-7.09c0-2-.73-3.63-2.84-3.63a3.18,3.18,0,0,0-3,2.29,3.26,3.26,0,0,0-.15,1V294h-2.23Z"/><path class="cls-3" d="M485.09,278.21v3.53h3.2v1.7h-3.2v6.62c0,1.53.43,2.39,1.67,2.39a4.84,4.84,0,0,0,1.3-.15l.1,1.67a5.41,5.41,0,0,1-2,.31,3.09,3.09,0,0,1-2.41-.94,4.52,4.52,0,0,1-.87-3.2v-6.7H481v-1.7h1.9v-2.95Z"/><path class="cls-3" d="M56.91,434.36l-1.63,5.35H51.73l6-18.87h4.4l6.13,18.87H64.61l-1.71-5.35Zm5.4-2.6-1.48-4.65c-.37-1.15-.68-2.44-.95-3.53h-.06c-.28,1.09-.56,2.41-.9,3.53l-1.45,4.65Z"/><path class="cls-3" d="M82.61,435.62c0,1.63.06,3,.11,4.09h-3l-.17-2.07h-.06A4.91,4.91,0,0,1,75.11,440c-2.5,0-4.76-1.48-4.76-5.94v-8h3.44v7.42c0,2.26.73,3.72,2.55,3.72A2.9,2.9,0,0,0,79,435.37a3.17,3.17,0,0,0,.2-1.06v-8.23h3.44Z"/><path class="cls-3" d="M90.28,422.18v3.9h3.28v2.57H90.28v6c0,1.65.45,2.52,1.77,2.52a4.86,4.86,0,0,0,1.34-.17l.06,2.64A7.81,7.81,0,0,1,91,440a4,4,0,0,1-3-1.12,5.41,5.41,0,0,1-1.07-3.81v-6.41H85v-2.57h2V423Z"/><path class="cls-3" d="M109,432.77c0,5-3.53,7.25-7,7.25-3.87,0-6.83-2.66-6.83-7s2.94-7.22,7.05-7.22S109,428.62,109,432.77Zm-10.28.14c0,2.63,1.29,4.62,3.39,4.62s3.33-1.94,3.33-4.68c0-2.13-1-4.56-3.3-4.56S98.68,430.64,98.68,432.91Z"/><path class="cls-3" d="M111.79,430.13c0-1.56,0-2.88-.12-4.05h3l.14,2h.09a4.72,4.72,0,0,1,4.2-2.32,3.94,3.94,0,0,1,3.78,2.52h.05a5.19,5.19,0,0,1,1.68-1.71,4.59,4.59,0,0,1,2.75-.81c2.26,0,4.56,1.54,4.56,5.9v8h-3.36v-7.53c0-2.27-.78-3.61-2.44-3.61a2.62,2.62,0,0,0-2.4,1.82,4.55,4.55,0,0,0-.17,1.15v8.17h-3.36v-7.89c0-1.91-.76-3.25-2.35-3.25a2.7,2.7,0,0,0-2.47,2,2.9,2.9,0,0,0-.19,1.12v8.06h-3.36Z"/><path class="cls-3" d="M143.2,439.71,143,438.2h-.09a5.06,5.06,0,0,1-4,1.82,4,4,0,0,1-4.28-4.06c0-3.44,3-5.18,8.09-5.15v-.23c0-.89-.36-2.38-2.77-2.38a7.18,7.18,0,0,0-3.67,1l-.67-2.24a9.89,9.89,0,0,1,4.93-1.2c4.36,0,5.62,2.77,5.62,5.74v4.93a21.74,21.74,0,0,0,.2,3.27Zm-.45-6.66c-2.43-.06-4.76.47-4.76,2.54a1.81,1.81,0,0,0,2,2,2.79,2.79,0,0,0,2.69-1.88,2.29,2.29,0,0,0,.11-.76Z"/><path class="cls-3" d="M153.53,422.18v3.9h3.28v2.57h-3.28v6c0,1.65.45,2.52,1.77,2.52a4.8,4.8,0,0,0,1.34-.17l.06,2.64a7.79,7.79,0,0,1-2.49.33,4,4,0,0,1-3-1.12,5.41,5.41,0,0,1-1.07-3.81v-6.41h-2v-2.57h2V423Z"/><path class="cls-3" d="M161.68,433.86c.09,2.46,2,3.53,4.2,3.53a10.24,10.24,0,0,0,3.78-.62l.51,2.38a12.78,12.78,0,0,1-4.76.84c-4.43,0-7-2.71-7-6.89,0-3.78,2.29-7.33,6.66-7.33s5.88,3.64,5.88,6.63a8.14,8.14,0,0,1-.11,1.46Zm6-2.41c0-1.26-.53-3.33-2.82-3.33-2.13,0-3,1.93-3.17,3.33Z"/><path class="cls-3" d="M186.27,419.83v16.05c0,1.4,0,2.91.11,3.83H183.3l-.14-2.15h-.06a4.9,4.9,0,0,1-4.45,2.46c-3.25,0-5.82-2.77-5.82-7,0-4.57,2.82-7.28,6.1-7.28a4.35,4.35,0,0,1,3.84,1.79h0v-7.73Zm-3.45,11.93a5.47,5.47,0,0,0-.08-.9,3,3,0,0,0-3-2.43c-2.21,0-3.44,2-3.44,4.51s1.23,4.31,3.41,4.31a3.05,3.05,0,0,0,3-2.44,4,4,0,0,0,.11-1Z"/><path class="cls-3" d="M85.06,443.83v16.05c0,1.4.06,2.91.11,3.83H82.09L82,461.56h0A4.93,4.93,0,0,1,77.44,464c-3.24,0-5.82-2.77-5.82-7,0-4.57,2.83-7.28,6.1-7.28a4.35,4.35,0,0,1,3.84,1.79h.06v-7.73Zm-3.44,11.93a4.58,4.58,0,0,0-.09-.9,3,3,0,0,0-3-2.43c-2.21,0-3.44,2-3.44,4.51s1.23,4.31,3.42,4.31a3,3,0,0,0,3-2.44,3.59,3.59,0,0,0,.12-1Z"/><path class="cls-3" d="M91.19,457.86c.09,2.46,2,3.53,4.2,3.53a10.24,10.24,0,0,0,3.78-.62l.51,2.38a12.78,12.78,0,0,1-4.76.84c-4.43,0-7-2.71-7-6.89,0-3.78,2.29-7.33,6.66-7.33s5.88,3.64,5.88,6.63a8.14,8.14,0,0,1-.11,1.46Zm6-2.41c0-1.26-.53-3.33-2.82-3.33-2.13,0-3,1.93-3.17,3.33Z"/><path class="cls-3" d="M103.2,443.83h3.48v19.88H103.2Z"/><path class="cls-3" d="M114.07,446.27a1.94,1.94,0,1,1-1.93-1.88A1.83,1.83,0,0,1,114.07,446.27Zm-3.67,17.44V450.08h3.47v13.63Z"/><path class="cls-3" d="M119.75,450.08,122,457a34.57,34.57,0,0,1,.93,3.42H123c.25-1.12.56-2.19.93-3.42l2.15-6.91h3.64l-5.21,13.63H121.1L116,450.08Z"/><path class="cls-3" d="M133.86,457.86c.09,2.46,2,3.53,4.2,3.53a10.24,10.24,0,0,0,3.78-.62l.51,2.38a12.78,12.78,0,0,1-4.76.84c-4.43,0-7-2.71-7-6.89,0-3.78,2.3-7.33,6.66-7.33s5.88,3.64,5.88,6.63a8.14,8.14,0,0,1-.11,1.46Zm6-2.41c0-1.26-.54-3.33-2.83-3.33-2.13,0-3,1.93-3.17,3.33Z"/><path class="cls-3" d="M145.88,454.47c0-1.85,0-3.16-.12-4.39h3l.11,2.6H149a4.08,4.08,0,0,1,3.73-2.91,3.42,3.42,0,0,1,.81.08v3.25a4.57,4.57,0,0,0-1-.11,3,3,0,0,0-3.08,2.6,6.53,6.53,0,0,0-.11,1.07v7h-3.44Z"/><path class="cls-3" d="M158.62,450.08l2.46,7.3c.28.84.56,1.88.75,2.66h.09c.22-.78.48-1.79.73-2.68l2.13-7.28h3.69l-3.41,9.29c-1.88,5.1-3.14,7.37-4.77,8.76a6.86,6.86,0,0,1-3.61,1.77L155.9,467a6.14,6.14,0,0,0,3.89-3.11,1.4,1.4,0,0,0,.23-.62,1.46,1.46,0,0,0-.2-.67l-5-12.51Z"/><path class="cls-3" d="M292.16,370.46l-1.78,5.38H288.1l5.81-17.11h2.67l5.84,17.11h-2.36l-1.83-5.38Zm5.61-1.73-1.67-4.93c-.38-1.11-.64-2.13-.89-3.12h0c-.26,1-.54,2.06-.87,3.1l-1.67,5Z"/><path class="cls-3" d="M314.83,372.49c0,1.27,0,2.39.11,3.35h-2l-.13-2h-.05a4.64,4.64,0,0,1-4.07,2.29c-1.92,0-4.24-1.07-4.24-5.38v-7.19h2.24v6.81c0,2.33.71,3.91,2.74,3.91a3.25,3.25,0,0,0,2.95-2,3.4,3.4,0,0,0,.2-1.14v-7.54h2.23Z"/><path class="cls-3" d="M321.23,360v3.53h3.2v1.7h-3.2v6.63c0,1.52.43,2.39,1.68,2.39a4.73,4.73,0,0,0,1.29-.16l.1,1.68a5.4,5.4,0,0,1-2,.3,3.09,3.09,0,0,1-2.41-.94,4.56,4.56,0,0,1-.86-3.19v-6.71h-1.91v-1.7h1.91v-2.94Z"/><path class="cls-3" d="M337.91,369.59c0,4.55-3.15,6.53-6.12,6.53-3.32,0-5.89-2.44-5.89-6.32,0-4.12,2.69-6.53,6.1-6.53S337.91,365.84,337.91,369.59Zm-9.75.13c0,2.69,1.55,4.72,3.73,4.72s3.74-2,3.74-4.77c0-2.08-1-4.72-3.68-4.72S328.16,367.38,328.16,369.72Z"/><path class="cls-3" d="M340.73,366.88c0-1.27,0-2.31-.1-3.33h1.95l.1,2h.08a4.24,4.24,0,0,1,3.86-2.26,3.63,3.63,0,0,1,3.48,2.46h0a5.19,5.19,0,0,1,1.37-1.6,4.25,4.25,0,0,1,2.72-.86c1.62,0,4,1.07,4,5.33v7.24h-2.18v-7c0-2.36-.86-3.78-2.67-3.78a2.91,2.91,0,0,0-2.64,2,3.77,3.77,0,0,0-.17,1.12v7.59h-2.19v-7.36c0-2-.86-3.38-2.56-3.38a3.06,3.06,0,0,0-2.77,2.23,3,3,0,0,0-.18,1.1v7.41h-2.18Z"/><path class="cls-3" d="M368.71,375.84l-.18-1.55h-.08a4.54,4.54,0,0,1-3.75,1.83,3.5,3.5,0,0,1-3.76-3.53c0-3,2.64-4.6,7.39-4.57v-.25a2.54,2.54,0,0,0-2.8-2.85,6.14,6.14,0,0,0-3.2.92l-.5-1.48a7.61,7.61,0,0,1,4-1.09c3.76,0,4.68,2.57,4.68,5v4.59a17.62,17.62,0,0,0,.2,2.95Zm-.33-6.27c-2.44-.05-5.21.38-5.21,2.77a2,2,0,0,0,2.11,2.13,3.05,3.05,0,0,0,3-2.06,2.22,2.22,0,0,0,.13-.71Z"/><path class="cls-3" d="M376.73,360v3.53h3.2v1.7h-3.2v6.63c0,1.52.43,2.39,1.68,2.39a4.73,4.73,0,0,0,1.29-.16l.1,1.68a5.4,5.4,0,0,1-2,.3,3.09,3.09,0,0,1-2.41-.94,4.56,4.56,0,0,1-.86-3.19v-6.71h-1.91v-1.7h1.91v-2.94Z"/><path class="cls-3" d="M384.93,360.1a1.31,1.31,0,0,1-1.42,1.37,1.33,1.33,0,0,1-1.35-1.37,1.37,1.37,0,0,1,1.4-1.4A1.33,1.33,0,0,1,384.93,360.1Zm-2.49,15.74V363.55h2.24v12.29Z"/><path class="cls-3" d="M399.5,369.59c0,4.55-3.14,6.53-6.12,6.53-3.32,0-5.89-2.44-5.89-6.32,0-4.12,2.7-6.53,6.1-6.53S399.5,365.84,399.5,369.59Zm-9.75.13c0,2.69,1.55,4.72,3.74,4.72s3.73-2,3.73-4.77c0-2.08-1-4.72-3.68-4.72S389.75,367.38,389.75,369.72Z"/><path class="cls-3" d="M402.32,366.88c0-1.27,0-2.31-.1-3.33h2l.13,2h.05a4.51,4.51,0,0,1,4.06-2.31c1.7,0,4.34,1,4.34,5.23v7.34h-2.23v-7.08c0-2-.74-3.63-2.85-3.63a3.17,3.17,0,0,0-3,2.28,3.26,3.26,0,0,0-.15,1v7.39h-2.24Z"/><path class="cls-3" d="M292.16,414.46l-1.78,5.38H288.1l5.81-17.11h2.67l5.84,17.11h-2.36l-1.83-5.38Zm5.61-1.73-1.67-4.93c-.38-1.11-.64-2.13-.89-3.12h0c-.26,1-.54,2.06-.87,3.1l-1.67,5Z"/><path class="cls-3" d="M304.4,417.55a5.78,5.78,0,0,0,2.94.89c1.63,0,2.39-.81,2.39-1.82s-.63-1.66-2.28-2.26c-2.21-.79-3.25-2-3.25-3.48,0-2,1.59-3.61,4.24-3.61a6.22,6.22,0,0,1,3,.76l-.56,1.63a4.73,4.73,0,0,0-2.52-.71c-1.32,0-2.05.76-2.05,1.67s.73,1.48,2.33,2.09c2.14.81,3.23,1.87,3.23,3.7,0,2.16-1.68,3.68-4.6,3.68a7.09,7.09,0,0,1-3.45-.83Z"/><path class="cls-3" d="M314.45,417.55a5.78,5.78,0,0,0,2.95.89c1.62,0,2.38-.81,2.38-1.82s-.63-1.66-2.28-2.26c-2.21-.79-3.25-2-3.25-3.48,0-2,1.6-3.61,4.24-3.61a6.19,6.19,0,0,1,3,.76l-.56,1.63a4.72,4.72,0,0,0-2.51-.71c-1.32,0-2.06.76-2.06,1.67s.74,1.48,2.34,2.09c2.13.81,3.22,1.87,3.22,3.7,0,2.16-1.67,3.68-4.59,3.68a7.13,7.13,0,0,1-3.46-.83Z"/><path class="cls-3" d="M326.05,414.1c.06,3,2,4.27,4.22,4.27a8,8,0,0,0,3.4-.64l.38,1.6a9.85,9.85,0,0,1-4.09.76c-3.78,0-6-2.48-6-6.19s2.19-6.63,5.77-6.63c4,0,5.07,3.53,5.07,5.79a10,10,0,0,1-.07,1Zm6.56-1.6c0-1.42-.59-3.63-3.1-3.63-2.26,0-3.25,2.08-3.43,3.63Z"/><path class="cls-3" d="M340.22,404v3.53h3.2v1.7h-3.2v6.63c0,1.52.43,2.39,1.68,2.39a4.73,4.73,0,0,0,1.29-.16l.1,1.68a5.4,5.4,0,0,1-2,.3,3.09,3.09,0,0,1-2.41-.94A4.56,4.56,0,0,1,338,416v-6.71h-1.91v-1.7H338v-2.94Z"/><path class="cls-3" d="M351,417.55a5.78,5.78,0,0,0,2.95.89c1.62,0,2.38-.81,2.38-1.82s-.63-1.66-2.28-2.26c-2.21-.79-3.25-2-3.25-3.48,0-2,1.6-3.61,4.24-3.61a6.22,6.22,0,0,1,3,.76l-.56,1.63A4.72,4.72,0,0,0,355,409c-1.32,0-2.06.76-2.06,1.67s.74,1.48,2.34,2.09c2.13.81,3.22,1.87,3.22,3.7,0,2.16-1.67,3.68-4.59,3.68a7.13,7.13,0,0,1-3.46-.83Z"/><path class="cls-3" d="M364.06,404v3.53h3.2v1.7h-3.2v6.63c0,1.52.43,2.39,1.68,2.39a4.73,4.73,0,0,0,1.29-.16l.1,1.68a5.4,5.4,0,0,1-2,.3,3.09,3.09,0,0,1-2.41-.94,4.56,4.56,0,0,1-.86-3.19v-6.71H360v-1.7h1.91v-2.94Z"/><path class="cls-3" d="M380.74,413.59c0,4.55-3.15,6.53-6.12,6.53-3.32,0-5.89-2.44-5.89-6.32,0-4.12,2.69-6.53,6.1-6.53S380.74,409.84,380.74,413.59Zm-9.75.13c0,2.69,1.55,4.72,3.73,4.72s3.74-2,3.74-4.77c0-2.08-1-4.72-3.69-4.72S371,411.38,371,413.72Z"/><path class="cls-3" d="M383.56,411.38c0-1.44,0-2.69-.1-3.83h2l.08,2.41h.1a3.68,3.68,0,0,1,3.4-2.69,2.49,2.49,0,0,1,.64.08v2.11a2.91,2.91,0,0,0-.76-.08,3.13,3.13,0,0,0-3,2.87,6.33,6.33,0,0,0-.1,1v6.55h-2.21Z"/><path class="cls-3" d="M392.85,414.1c0,3,2,4.27,4.22,4.27a8,8,0,0,0,3.4-.64l.38,1.6a9.89,9.89,0,0,1-4.09.76c-3.78,0-6-2.48-6-6.19s2.18-6.63,5.76-6.63c4,0,5.08,3.53,5.08,5.79a7.43,7.43,0,0,1-.08,1Zm6.55-1.6c0-1.42-.58-3.63-3.1-3.63-2.26,0-3.25,2.08-3.42,3.63Z"/><path class="cls-3" d="M293.15,463.84l-5.58-17.11H290l2.67,8.43c.73,2.31,1.37,4.39,1.83,6.39h.05c.48-2,1.19-4.13,1.95-6.37l2.9-8.45h2.36l-6.12,17.11Z"/><path class="cls-3" d="M305.57,448.1a1.39,1.39,0,0,1-2.77,0,1.36,1.36,0,0,1,1.4-1.4A1.33,1.33,0,0,1,305.57,448.1Zm-2.49,15.74V451.55h2.23v12.29Z"/><path class="cls-3" d="M309,455.38c0-1.44,0-2.69-.1-3.83h1.95L311,454h.1a3.68,3.68,0,0,1,3.4-2.69,2.49,2.49,0,0,1,.64.08v2.11a2.91,2.91,0,0,0-.76-.08,3.13,3.13,0,0,0-3,2.87,6.33,6.33,0,0,0-.1,1v6.55H309Z"/><path class="cls-3" d="M320.62,448v3.53h3.2v1.7h-3.2v6.63c0,1.52.43,2.39,1.68,2.39a4.73,4.73,0,0,0,1.29-.16l.1,1.68a5.4,5.4,0,0,1-2,.3,3.09,3.09,0,0,1-2.41-.94,4.56,4.56,0,0,1-.86-3.19v-6.71h-1.91v-1.7h1.91v-2.94Z"/><path class="cls-3" d="M336.62,460.49c0,1.27,0,2.39.1,3.35h-2l-.13-2h-.05a4.62,4.62,0,0,1-4.06,2.29c-1.93,0-4.24-1.07-4.24-5.38v-7.19h2.23v6.81c0,2.33.71,3.91,2.74,3.91a3.25,3.25,0,0,0,2.95-2,3.17,3.17,0,0,0,.2-1.14v-7.54h2.24Z"/><path class="cls-3" d="M347.13,463.84l-.18-1.55h-.08a4.54,4.54,0,0,1-3.75,1.83,3.5,3.5,0,0,1-3.76-3.53c0-3,2.64-4.6,7.39-4.57v-.25a2.54,2.54,0,0,0-2.8-2.85,6.14,6.14,0,0,0-3.2.92l-.5-1.48a7.58,7.58,0,0,1,4-1.09c3.76,0,4.68,2.57,4.68,5v4.59a17.62,17.62,0,0,0,.2,2.95Zm-.33-6.27c-2.44-.05-5.21.38-5.21,2.77a2,2,0,0,0,2.11,2.13,3.06,3.06,0,0,0,3-2.06,2.22,2.22,0,0,0,.13-.71Z"/><path class="cls-3" d="M352.56,445.81h2.23v18h-2.23Z"/><path class="cls-3" d="M361,448.1a1.39,1.39,0,0,1-2.77,0,1.37,1.37,0,0,1,1.4-1.4A1.33,1.33,0,0,1,361,448.1Zm-2.49,15.74V451.55h2.24v12.29Z"/><path class="cls-3" d="M363.09,462.54l5.57-7.23c.53-.66,1-1.25,1.59-1.91v0H363.6v-1.8H373l0,1.4-5.49,7.13c-.51.69-1,1.3-1.57,1.93v.05h7.18v1.78h-10Z"/><path class="cls-3" d="M376.42,458.1c.05,3,2,4.27,4.22,4.27a8,8,0,0,0,3.4-.64l.38,1.6a9.89,9.89,0,0,1-4.09.76c-3.78,0-6-2.48-6-6.19s2.18-6.63,5.76-6.63c4,0,5.08,3.53,5.08,5.79a10,10,0,0,1-.07,1Zm6.55-1.6c0-1.42-.58-3.63-3.09-3.63-2.26,0-3.25,2.08-3.43,3.63Z"/><path class="cls-3" d="M398.51,445.81v14.86c0,1.09,0,2.33.1,3.17h-2l-.1-2.13h-.05a4.56,4.56,0,0,1-4.19,2.41c-3,0-5.26-2.51-5.26-6.25,0-4.08,2.51-6.6,5.51-6.6a4.12,4.12,0,0,1,3.71,1.88h0v-7.34Zm-2.23,10.74a4.29,4.29,0,0,0-.1-.94A3.29,3.29,0,0,0,393,453c-2.31,0-3.68,2-3.68,4.75,0,2.49,1.22,4.55,3.63,4.55a3.36,3.36,0,0,0,3.28-2.67,4.16,4.16,0,0,0,.1-1Z"/><path class="cls-3" d="M410.29,448v3.53h3.2v1.7h-3.2v6.63c0,1.52.43,2.39,1.68,2.39a4.73,4.73,0,0,0,1.29-.16l.1,1.68a5.4,5.4,0,0,1-2,.3,3.09,3.09,0,0,1-2.41-.94,4.56,4.56,0,0,1-.86-3.19v-6.71H406.2v-1.7h1.91v-2.94Z"/><path class="cls-3" d="M427,457.59c0,4.55-3.15,6.53-6.12,6.53-3.32,0-5.89-2.44-5.89-6.32,0-4.12,2.69-6.53,6.1-6.53S427,453.84,427,457.59Zm-9.75.13c0,2.69,1.55,4.72,3.74,4.72s3.73-2,3.73-4.77c0-2.08-1-4.72-3.68-4.72S417.22,455.38,417.22,457.72Z"/><path class="cls-3" d="M440.91,457.59c0,4.55-3.15,6.53-6.12,6.53-3.32,0-5.89-2.44-5.89-6.32,0-4.12,2.69-6.53,6.1-6.53S440.91,453.84,440.91,457.59Zm-9.75.13c0,2.69,1.55,4.72,3.73,4.72s3.74-2,3.74-4.77c0-2.08-1.05-4.72-3.69-4.72S431.16,455.38,431.16,457.72Z"/><path class="cls-3" d="M443.73,445.81H446v18h-2.23Z"/><path class="cls-3" d="M457.31,457.19h.05c.31-.43.74-1,1.09-1.4l3.61-4.24h2.69L460,456.6l5.41,7.24h-2.72L458.45,458l-1.14,1.27v4.62H455.1v-18h2.21Z"/><path class="cls-3" d="M469.93,448.1a1.39,1.39,0,0,1-2.77,0,1.37,1.37,0,0,1,1.4-1.4A1.33,1.33,0,0,1,469.93,448.1Zm-2.49,15.74V451.55h2.23v12.29Z"/><path class="cls-3" d="M476.07,448v3.53h3.2v1.7h-3.2v6.63c0,1.52.43,2.39,1.68,2.39a4.73,4.73,0,0,0,1.29-.16l.1,1.68a5.4,5.4,0,0,1-2,.3,3.1,3.1,0,0,1-2.41-.94,4.56,4.56,0,0,1-.86-3.19v-6.71H472v-1.7h1.91v-2.94Z"/><path class="cls-3" d="M71.8,624.36l-1.62,5.35H66.62l6-18.87h4.4l6.13,18.87H79.5l-1.71-5.35Zm5.41-2.6-1.49-4.65c-.36-1.15-.67-2.44-1-3.53h-.06c-.27,1.09-.55,2.41-.89,3.53l-1.46,4.65Z"/><path class="cls-3" d="M85.55,620.61c0-1.79,0-3.25-.11-4.53h3l.17,2.09h.06a5.3,5.3,0,0,1,4.67-2.4c3.14,0,5.74,2.69,5.74,6.94,0,4.93-3.1,7.31-6.21,7.31a4.49,4.49,0,0,1-3.84-1.82h0v7H85.55ZM89,624a3.34,3.34,0,0,0,.11,1,3.1,3.1,0,0,0,3,2.41c2.19,0,3.47-1.82,3.47-4.51,0-2.41-1.17-4.37-3.39-4.37A3.22,3.22,0,0,0,89.13,621a3.27,3.27,0,0,0-.13.87Z"/><path class="cls-3" d="M101.93,620.61c0-1.79-.05-3.25-.11-4.53h3l.17,2.09h.06a5.3,5.3,0,0,1,4.67-2.4c3.14,0,5.74,2.69,5.74,6.94,0,4.93-3.1,7.31-6.21,7.31a4.49,4.49,0,0,1-3.84-1.82h-.05v7h-3.45Zm3.45,3.39a3.34,3.34,0,0,0,.11,1,3.1,3.1,0,0,0,3,2.41c2.19,0,3.47-1.82,3.47-4.51,0-2.41-1.17-4.37-3.39-4.37a3.22,3.22,0,0,0-3.08,2.55,3.27,3.27,0,0,0-.13.87Z"/><path class="cls-3" d="M134.13,629.29a9.91,9.91,0,0,1-3.86.7c-4.26,0-7-2.71-7-6.94s2.8-7.28,7.59-7.28a8.69,8.69,0,0,1,3.33.64l-.62,2.58a6.09,6.09,0,0,0-2.6-.53,4.42,4.42,0,0,0,0,8.82,6.7,6.7,0,0,0,2.71-.54Z"/><path class="cls-3" d="M144.35,629.71l-.22-1.51H144a5.08,5.08,0,0,1-4,1.82,4,4,0,0,1-4.28-4.06c0-3.44,3.05-5.18,8.09-5.15v-.23c0-.89-.37-2.38-2.77-2.38a7.18,7.18,0,0,0-3.67,1l-.67-2.24a9.85,9.85,0,0,1,4.92-1.2c4.37,0,5.63,2.77,5.63,5.74v4.93a21.74,21.74,0,0,0,.2,3.27Zm-.45-6.66c-2.43-.06-4.76.47-4.76,2.54a1.81,1.81,0,0,0,2,2,2.8,2.8,0,0,0,2.69-1.88,2.59,2.59,0,0,0,.11-.76Z"/><path class="cls-3" d="M150.9,620.47c0-1.85,0-3.16-.11-4.39h3l.11,2.6H154a4.07,4.07,0,0,1,3.72-2.91,3.46,3.46,0,0,1,.82.08v3.25a4.57,4.57,0,0,0-1-.11,3,3,0,0,0-3.08,2.6,5.59,5.59,0,0,0-.11,1.07v7.05H150.9Z"/><path class="cls-3" d="M163.05,623.86c.09,2.46,2,3.53,4.2,3.53a10.24,10.24,0,0,0,3.78-.62l.51,2.38a12.78,12.78,0,0,1-4.76.84c-4.43,0-7-2.71-7-6.89,0-3.78,2.3-7.33,6.66-7.33s5.88,3.64,5.88,6.63a8.14,8.14,0,0,1-.11,1.46Zm6-2.41c0-1.26-.54-3.33-2.83-3.33-2.13,0-3,1.93-3.17,3.33Z"/><path class="cls-3" d="M292.16,530.64,290.38,536H288.1l5.81-17.12h2.67L302.42,536h-2.36l-1.83-5.39Zm5.61-1.72L296.1,524c-.38-1.12-.64-2.13-.89-3.12h0c-.26,1-.54,2-.87,3.09l-1.67,5Z"/><path class="cls-3" d="M304.78,527.75c0-1.58,0-2.85-.1-4h2l.11,2.1h0a4.83,4.83,0,0,1,4.36-2.38c3,0,5.21,2.51,5.21,6.24,0,4.42-2.69,6.6-5.59,6.6a4.33,4.33,0,0,1-3.78-1.92H307v6.67h-2.21ZM307,531a5.18,5.18,0,0,0,.1.92,3.44,3.44,0,0,0,3.35,2.61c2.36,0,3.73-1.93,3.73-4.75,0-2.46-1.29-4.57-3.65-4.57a3.57,3.57,0,0,0-3.38,2.77,3.47,3.47,0,0,0-.15.92Z"/><path class="cls-3" d="M319.22,527.75c0-1.58-.05-2.85-.1-4h2l.1,2.1h0a4.85,4.85,0,0,1,4.37-2.38c3,0,5.2,2.51,5.2,6.24,0,4.42-2.69,6.6-5.58,6.6a4.33,4.33,0,0,1-3.79-1.92h-.05v6.67h-2.21Zm2.21,3.27a4.38,4.38,0,0,0,.11.92,3.43,3.43,0,0,0,3.35,2.61c2.36,0,3.73-1.93,3.73-4.75,0-2.46-1.3-4.57-3.66-4.57a3.57,3.57,0,0,0-3.37,2.77,3.48,3.48,0,0,0-.16.92Z"/><path class="cls-3" d="M333.67,518h2.23v18h-2.23Z"/><path class="cls-3" d="M342.15,520.28a1.39,1.39,0,0,1-2.77,0,1.36,1.36,0,0,1,1.4-1.39A1.32,1.32,0,0,1,342.15,520.28ZM339.66,536V523.74h2.24V536Z"/><path class="cls-3" d="M354.36,535.57a8.3,8.3,0,0,1-3.53.71c-3.7,0-6.12-2.51-6.12-6.27a6.24,6.24,0,0,1,6.6-6.53,7.39,7.39,0,0,1,3.1.64l-.51,1.72a5.23,5.23,0,0,0-2.59-.58c-2.81,0-4.34,2.08-4.34,4.65,0,2.84,1.83,4.59,4.27,4.59a6.31,6.31,0,0,0,2.74-.61Z"/><path class="cls-3" d="M363.78,536l-.18-1.55h-.07a4.6,4.6,0,0,1-3.76,1.82,3.5,3.5,0,0,1-3.76-3.52c0-3,2.64-4.6,7.39-4.57V528a2.53,2.53,0,0,0-2.79-2.84,6.08,6.08,0,0,0-3.2.91l-.51-1.47a7.65,7.65,0,0,1,4-1.09c3.75,0,4.67,2.56,4.67,5v4.6a17.62,17.62,0,0,0,.2,2.95Zm-.33-6.28c-2.44,0-5.2.38-5.2,2.77a2,2,0,0,0,2.1,2.13,3,3,0,0,0,3-2,2.22,2.22,0,0,0,.13-.71Z"/><path class="cls-3" d="M371.8,520.21v3.53H375v1.7h-3.2v6.62c0,1.53.43,2.39,1.68,2.39a4.81,4.81,0,0,0,1.29-.15l.11,1.67a5.47,5.47,0,0,1-2,.31,3.1,3.1,0,0,1-2.41-.94,4.57,4.57,0,0,1-.86-3.2v-6.7h-1.91v-1.7h1.91v-3Z"/><path class="cls-3" d="M380,520.28a1.38,1.38,0,0,1-2.76,0,1.36,1.36,0,0,1,1.39-1.39A1.32,1.32,0,0,1,380,520.28ZM377.51,536V523.74h2.24V536Z"/><path class="cls-3" d="M394.58,529.78c0,4.54-3.15,6.52-6.12,6.52-3.33,0-5.89-2.43-5.89-6.32,0-4.11,2.69-6.52,6.09-6.52S394.58,526,394.58,529.78Zm-9.75.13c0,2.69,1.55,4.72,3.73,4.72s3.73-2,3.73-4.77c0-2.09-1-4.73-3.68-4.73S384.83,527.57,384.83,529.91Z"/><path class="cls-3" d="M397.39,527.06c0-1.27,0-2.31-.1-3.32h2l.13,2h.05a4.51,4.51,0,0,1,4.06-2.31c1.7,0,4.34,1,4.34,5.23V536h-2.23v-7.09c0-2-.74-3.63-2.84-3.63a3.17,3.17,0,0,0-3,2.29,3.26,3.26,0,0,0-.15,1V536h-2.24Z"/><path class="cls-3" d="M416.87,518h2.23v7.67h0a4.19,4.19,0,0,1,1.6-1.58,4.62,4.62,0,0,1,2.29-.63c1.65,0,4.29,1,4.29,5.25V536h-2.24V529c0-2-.73-3.66-2.84-3.66a3.22,3.22,0,0,0-3,2.23,2.88,2.88,0,0,0-.15,1.07V536h-2.23Z"/><path class="cls-3" d="M432.2,530.29a3.93,3.93,0,0,0,4.22,4.26,8.17,8.17,0,0,0,3.4-.63l.38,1.6a10.06,10.06,0,0,1-4.09.76c-3.78,0-6-2.49-6-6.2s2.18-6.62,5.76-6.62c4,0,5.08,3.53,5.08,5.79a7.57,7.57,0,0,1-.08,1Zm6.55-1.6c0-1.42-.58-3.63-3.1-3.63-2.26,0-3.25,2.08-3.42,3.63Z"/><path class="cls-3" d="M450.48,536l-.18-1.55h-.07a4.6,4.6,0,0,1-3.76,1.82,3.5,3.5,0,0,1-3.76-3.52c0-3,2.64-4.6,7.39-4.57V528a2.53,2.53,0,0,0-2.79-2.84,6.11,6.11,0,0,0-3.2.91l-.51-1.47a7.65,7.65,0,0,1,4-1.09c3.76,0,4.67,2.56,4.67,5v4.6a17.62,17.62,0,0,0,.2,2.95Zm-.33-6.28c-2.44,0-5.2.38-5.2,2.77a2,2,0,0,0,2.1,2.13,3,3,0,0,0,3-2,2.22,2.22,0,0,0,.13-.71Z"/><path class="cls-3" d="M455.91,518h2.24v18h-2.24Z"/><path class="cls-3" d="M464.6,520.21v3.53h3.2v1.7h-3.2v6.62c0,1.53.43,2.39,1.67,2.39a4.84,4.84,0,0,0,1.3-.15l.1,1.67a5.41,5.41,0,0,1-2,.31,3.09,3.09,0,0,1-2.41-.94,4.52,4.52,0,0,1-.87-3.2v-6.7h-1.9v-1.7h1.9v-3Z"/><path class="cls-3" d="M470.31,518h2.23v7.67h0a4.19,4.19,0,0,1,1.6-1.58,4.62,4.62,0,0,1,2.29-.63c1.65,0,4.29,1,4.29,5.25V536h-2.23V529c0-2-.74-3.66-2.85-3.66a3.2,3.2,0,0,0-3,2.23,2.68,2.68,0,0,0-.16,1.07V536h-2.23Z"/><path class="cls-3" d="M289.39,563.14a32.23,32.23,0,0,1,4.7-.35c3.17,0,5.43.73,6.93,2.13a7.84,7.84,0,0,1,2.41,6.14,9,9,0,0,1-2.46,6.65c-1.6,1.6-4.24,2.47-7.56,2.47a34.9,34.9,0,0,1-4-.21Zm2.21,15.13a13,13,0,0,0,2.24.13c4.72,0,7.28-2.64,7.28-7.26,0-4-2.26-6.6-6.93-6.6a12.38,12.38,0,0,0-2.59.23Z"/><path class="cls-3" d="M308.71,564.28a1.38,1.38,0,0,1-2.76,0,1.36,1.36,0,0,1,1.39-1.39A1.32,1.32,0,0,1,308.71,564.28ZM306.23,580V567.74h2.23V580Z"/><path class="cls-3" d="M319,580l-.18-1.55h-.07A4.6,4.6,0,0,1,315,580.3a3.5,3.5,0,0,1-3.76-3.52c0-3,2.64-4.6,7.39-4.57V572a2.53,2.53,0,0,0-2.79-2.84,6.08,6.08,0,0,0-3.2.91l-.51-1.47a7.65,7.65,0,0,1,4-1.09c3.75,0,4.67,2.56,4.67,5v4.6A17.62,17.62,0,0,0,321,580Zm-.33-6.28c-2.44,0-5.2.38-5.2,2.77a2,2,0,0,0,2.1,2.13,3,3,0,0,0,3-2,2.22,2.22,0,0,0,.13-.71Z"/><path class="cls-3" d="M335,567.74c-.05.89-.1,1.88-.1,3.37v7.14c0,2.82-.56,4.54-1.75,5.61a6.51,6.51,0,0,1-4.47,1.47,8,8,0,0,1-4.09-1l.56-1.7a7,7,0,0,0,3.61,1c2.28,0,4-1.19,4-4.29v-1.37h0a4.4,4.4,0,0,1-3.91,2.05c-3.05,0-5.24-2.59-5.24-6,0-4.16,2.72-6.52,5.54-6.52a4.07,4.07,0,0,1,3.83,2.13h.05l.11-1.85Zm-2.31,4.85a3,3,0,0,0-.13-1,3.21,3.21,0,0,0-3.12-2.36c-2.13,0-3.66,1.8-3.66,4.65,0,2.41,1.22,4.41,3.64,4.41A3.25,3.25,0,0,0,332.5,576a3.8,3.8,0,0,0,.18-1.2Z"/><path class="cls-3" d="M338.44,571.06c0-1.27,0-2.31-.1-3.32h2l.13,2h.05a4.51,4.51,0,0,1,4.06-2.31c1.7,0,4.34,1,4.34,5.23V580h-2.23v-7.09c0-2-.74-3.63-2.84-3.63a3.17,3.17,0,0,0-3,2.29,3.26,3.26,0,0,0-.15,1V580h-2.24Z"/><path class="cls-3" d="M363.66,573.78c0,4.54-3.15,6.52-6.12,6.52-3.33,0-5.89-2.43-5.89-6.32,0-4.11,2.69-6.52,6.09-6.52S363.66,570,363.66,573.78Zm-9.75.13c0,2.69,1.54,4.72,3.73,4.72s3.73-2,3.73-4.77c0-2.09-1-4.73-3.68-4.73S353.91,571.57,353.91,573.91Z"/><path class="cls-3" d="M366.17,577.74a5.87,5.87,0,0,0,2.94.89c1.63,0,2.39-.81,2.39-1.83s-.63-1.65-2.29-2.26c-2.2-.79-3.25-2-3.25-3.48,0-2,1.6-3.6,4.25-3.6a6.11,6.11,0,0,1,3,.76l-.56,1.62a4.82,4.82,0,0,0-2.52-.71c-1.32,0-2,.76-2,1.68s.73,1.47,2.33,2.08c2.14.81,3.23,1.88,3.23,3.71,0,2.16-1.68,3.68-4.6,3.68a7,7,0,0,1-3.45-.84Z"/><path class="cls-3" d="M377.77,574.29a3.93,3.93,0,0,0,4.22,4.26,8.21,8.21,0,0,0,3.4-.63l.38,1.6a10.06,10.06,0,0,1-4.09.76c-3.78,0-6-2.49-6-6.2s2.18-6.62,5.76-6.62c4,0,5.08,3.53,5.08,5.79a7.57,7.57,0,0,1-.08,1Zm6.55-1.6c0-1.42-.58-3.63-3.1-3.63-2.26,0-3.25,2.08-3.42,3.63Z"/><path class="cls-3" d="M392.75,581l7.08-18.41h1.73L394.45,581Z"/><path class="cls-3" d="M417.48,579.57a8.33,8.33,0,0,1-3.53.71c-3.71,0-6.12-2.51-6.12-6.27a6.24,6.24,0,0,1,6.6-6.53,7.39,7.39,0,0,1,3.1.64l-.51,1.72a5.23,5.23,0,0,0-2.59-.58c-2.82,0-4.34,2.08-4.34,4.65,0,2.84,1.83,4.59,4.26,4.59a6.39,6.39,0,0,0,2.75-.61Z"/><path class="cls-3" d="M430.38,576.67c0,1.27,0,2.39.1,3.36h-2l-.13-2h-.05a4.63,4.63,0,0,1-4.06,2.28c-1.93,0-4.24-1.06-4.24-5.38v-7.18h2.23v6.8c0,2.34.71,3.91,2.74,3.91a3.24,3.24,0,0,0,2.95-2,3.45,3.45,0,0,0,.2-1.14v-7.54h2.24Z"/><path class="cls-3" d="M433.78,577.74a5.84,5.84,0,0,0,2.94.89c1.63,0,2.39-.81,2.39-1.83s-.64-1.65-2.29-2.26c-2.21-.79-3.25-2-3.25-3.48,0-2,1.6-3.6,4.24-3.6a6.05,6.05,0,0,1,3,.76l-.55,1.62a4.85,4.85,0,0,0-2.52-.71c-1.32,0-2.05.76-2.05,1.68s.73,1.47,2.33,2.08c2.13.81,3.23,1.88,3.23,3.71,0,2.16-1.68,3.68-4.6,3.68a7,7,0,0,1-3.45-.84Z"/><path class="cls-3" d="M446.83,564.21v3.53H450v1.7h-3.2v6.62c0,1.53.43,2.39,1.67,2.39a4.84,4.84,0,0,0,1.3-.15l.1,1.67a5.41,5.41,0,0,1-2,.31,3.09,3.09,0,0,1-2.41-.94,4.52,4.52,0,0,1-.87-3.2v-6.7h-1.9v-1.7h1.9v-3Z"/><path class="cls-3" d="M463.51,573.78c0,4.54-3.15,6.52-6.12,6.52-3.33,0-5.89-2.43-5.89-6.32,0-4.11,2.69-6.52,6.09-6.52S463.51,570,463.51,573.78Zm-9.75.13c0,2.69,1.55,4.72,3.73,4.72s3.73-2,3.73-4.77c0-2.09-1-4.73-3.68-4.73S453.76,571.57,453.76,573.91Z"/><path class="cls-3" d="M466.32,571.06c0-1.27,0-2.31-.1-3.32h2l.1,2h.08a4.21,4.21,0,0,1,3.85-2.26,3.62,3.62,0,0,1,3.48,2.46h.05a5.11,5.11,0,0,1,1.38-1.6,4.15,4.15,0,0,1,2.71-.86c1.63,0,4,1.06,4,5.33V580h-2.18v-7c0-2.36-.87-3.78-2.67-3.78a2.88,2.88,0,0,0-2.64,2,3.68,3.68,0,0,0-.18,1.11V580H474v-7.37c0-1.95-.87-3.37-2.57-3.37a3,3,0,0,0-2.76,2.23,3,3,0,0,0-.18,1.09V580h-2.19Z"/><path class="cls-3" d="M490,564.28a1.39,1.39,0,0,1-2.77,0,1.36,1.36,0,0,1,1.4-1.39A1.33,1.33,0,0,1,490,564.28ZM487.5,580V567.74h2.23V580Z"/><path class="cls-3" d="M492,578.73l5.56-7.24c.54-.66,1-1.24,1.6-1.9v-.05h-6.65v-1.8h9.37l0,1.39-5.48,7.14c-.51.68-1,1.29-1.58,1.93v0H502V580H492Z"/><path class="cls-3" d="M505.37,574.29a3.93,3.93,0,0,0,4.22,4.26,8.17,8.17,0,0,0,3.4-.63l.38,1.6a10.06,10.06,0,0,1-4.09.76c-3.78,0-6-2.49-6-6.2s2.18-6.62,5.76-6.62c4,0,5.08,3.53,5.08,5.79a7.57,7.57,0,0,1-.08,1Zm6.55-1.6c0-1.42-.58-3.63-3.09-3.63-2.26,0-3.25,2.08-3.43,3.63Z"/><path class="cls-3" d="M292.16,618.64,290.38,624H288.1l5.81-17.12h2.67L302.42,624h-2.36l-1.83-5.39Zm5.61-1.72L296.1,612c-.38-1.12-.64-2.13-.89-3.12h0c-.26,1-.54,2-.87,3.09l-1.67,5Z"/><path class="cls-3" d="M314.83,620.67c0,1.27,0,2.39.11,3.36h-2l-.13-2h-.05a4.63,4.63,0,0,1-4.07,2.28c-1.92,0-4.24-1.06-4.24-5.38v-7.18h2.24v6.8c0,2.34.71,3.91,2.74,3.91a3.24,3.24,0,0,0,2.95-2,3.45,3.45,0,0,0,.2-1.14v-7.54h2.23Z"/><path class="cls-3" d="M321.23,608.21v3.53h3.2v1.7h-3.2v6.62c0,1.53.43,2.39,1.68,2.39a4.81,4.81,0,0,0,1.29-.15l.1,1.67a5.37,5.37,0,0,1-2,.31,3.09,3.09,0,0,1-2.41-.94,4.57,4.57,0,0,1-.86-3.2v-6.7h-1.91v-1.7h1.91v-3Z"/><path class="cls-3" d="M337.91,617.78c0,4.54-3.15,6.52-6.12,6.52-3.32,0-5.89-2.43-5.89-6.32,0-4.11,2.69-6.52,6.1-6.52S337.91,614,337.91,617.78Zm-9.75.13c0,2.69,1.55,4.72,3.73,4.72s3.74-2,3.74-4.77c0-2.09-1-4.73-3.68-4.73S328.16,615.57,328.16,617.91Z"/><path class="cls-3" d="M346.11,606h2.24v7.67h0a4.05,4.05,0,0,1,1.6-1.58,4.58,4.58,0,0,1,2.28-.63c1.65,0,4.29,1,4.29,5.25V624h-2.23V617c0-2-.74-3.66-2.85-3.66a3.21,3.21,0,0,0-3,2.23,2.69,2.69,0,0,0-.15,1.07V624h-2.24Z"/><path class="cls-3" d="M361.45,618.29c.05,3,2,4.26,4.21,4.26a8.14,8.14,0,0,0,3.4-.63l.38,1.6a10,10,0,0,1-4.08.76c-3.79,0-6.05-2.49-6.05-6.2s2.19-6.62,5.77-6.62c4,0,5.08,3.53,5.08,5.79a9.62,9.62,0,0,1-.08,1Zm6.55-1.6c0-1.42-.59-3.63-3.1-3.63-2.26,0-3.25,2.08-3.43,3.63Z"/><path class="cls-3" d="M379.73,624l-.18-1.55h-.08a4.57,4.57,0,0,1-3.76,1.82,3.5,3.5,0,0,1-3.75-3.52c0-3,2.64-4.6,7.39-4.57V616a2.54,2.54,0,0,0-2.8-2.84,6.13,6.13,0,0,0-3.2.91l-.5-1.47a7.58,7.58,0,0,1,4-1.09c3.76,0,4.67,2.56,4.67,5v4.6a17.55,17.55,0,0,0,.21,2.95Zm-.33-6.28c-2.44,0-5.21.38-5.21,2.77a2,2,0,0,0,2.11,2.13,3.06,3.06,0,0,0,3-2,2.22,2.22,0,0,0,.13-.71Z"/><path class="cls-3" d="M385.16,606h2.23v18h-2.23Z"/><path class="cls-3" d="M401.38,606.4a16.78,16.78,0,0,0-3.2,10.39,17.14,17.14,0,0,0,3.2,10.31h-1.75a16.42,16.42,0,0,1-3.33-10.31,16.82,16.82,0,0,1,3.33-10.39Z"/><path class="cls-3" d="M406.31,618.64,404.53,624h-2.28l5.81-17.12h2.67L416.57,624H414.2l-1.82-5.39Zm5.61-1.72L410.24,612c-.38-1.12-.63-2.13-.89-3.12h-.05c-.25,1-.53,2-.86,3.09l-1.68,5Z"/><path class="cls-3" d="M421.29,606.91V624h-2.21V606.91Z"/><path class="cls-3" d="M423.72,627.1a17.17,17.17,0,0,0,3.2-10.39,16.85,16.85,0,0,0-3.2-10.31h1.73a16.18,16.18,0,0,1,3.33,10.34,16.47,16.47,0,0,1-3.33,10.36Z"/><rect class="cls-1" y="660" width="641.45" height="160"/><rect class="cls-2" y="825" width="641.45" height="160"/><circle class="cls-4" cx="264.36" cy="696" r="4.5"/><circle class="cls-4" cx="264.37" cy="738.97" r="4.5"/><circle class="cls-4" cx="264.39" cy="781.93" r="4.5"/><circle class="cls-4" cx="264.36" cy="858" r="4.5"/><circle class="cls-4" cx="264.37" cy="900.97" r="4.5"/><circle class="cls-4" cx="264.39" cy="943.93" r="4.5"/><path class="cls-3" d="M53.77,780.34H46.66v5.54h8v2.83H43.21V769.84h11v2.83H46.66v4.87h7.11Z"/><path class="cls-3" d="M57.49,779.13c0-1.56,0-2.88-.11-4h3l.16,2h.09A4.92,4.92,0,0,1,65,774.77c2.38,0,4.84,1.54,4.84,5.85v8.09H66.4V781c0-2-.73-3.44-2.61-3.44a2.88,2.88,0,0,0-2.68,2A3.31,3.31,0,0,0,61,780.7v8H57.49Z"/><path class="cls-3" d="M75.25,775.08,77.46,782c.39,1.21.67,2.3.92,3.42h.09c.25-1.12.56-2.19.92-3.42l2.16-6.91h3.64L80,788.71H76.59l-5.07-13.63Z"/><path class="cls-3" d="M91,771.27A1.93,1.93,0,1,1,89,769.39,1.83,1.83,0,0,1,91,771.27Zm-3.66,17.44V775.08h3.47v13.63Z"/><path class="cls-3" d="M94.45,779.47c0-1.85,0-3.16-.11-4.39h3l.11,2.6h.11a4.07,4.07,0,0,1,3.73-2.91,3.42,3.42,0,0,1,.81.08v3.25a4.57,4.57,0,0,0-1-.11,3,3,0,0,0-3.08,2.6,5.59,5.59,0,0,0-.11,1.07v7.05H94.45Z"/><path class="cls-3" d="M117.13,781.77c0,5-3.52,7.25-7,7.25-3.86,0-6.83-2.66-6.83-7s2.94-7.22,7.06-7.22S117.13,777.62,117.13,781.77Zm-10.27.14c0,2.63,1.29,4.62,3.39,4.62s3.33-1.94,3.33-4.68c0-2.13-1-4.56-3.31-4.56S106.86,779.64,106.86,781.91Z"/><path class="cls-3" d="M120,779.13c0-1.56,0-2.88-.11-4h3l.17,2h.09a4.91,4.91,0,0,1,4.34-2.35c2.38,0,4.84,1.54,4.84,5.85v8.09h-3.44V781c0-2-.73-3.44-2.61-3.44a2.9,2.9,0,0,0-2.69,2,3.58,3.58,0,0,0-.14,1.12v8H120Z"/><path class="cls-3" d="M136,779.13c0-1.56,0-2.88-.11-4h3l.14,2h.09a4.72,4.72,0,0,1,4.2-2.32,3.94,3.94,0,0,1,3.78,2.52h.05a5.19,5.19,0,0,1,1.68-1.71,4.59,4.59,0,0,1,2.75-.81c2.27,0,4.56,1.54,4.56,5.9v8h-3.36v-7.53c0-2.27-.78-3.61-2.43-3.61a2.62,2.62,0,0,0-2.41,1.82,4.55,4.55,0,0,0-.17,1.15v8.17h-3.36v-7.89c0-1.91-.76-3.25-2.35-3.25a2.7,2.7,0,0,0-2.47,2,2.9,2.9,0,0,0-.19,1.12v8.06H136Z"/><path class="cls-3" d="M162.16,782.86c.08,2.46,2,3.53,4.2,3.53a10.32,10.32,0,0,0,3.78-.62l.5,2.38a12.74,12.74,0,0,1-4.76.84c-4.42,0-7-2.71-7-6.89,0-3.78,2.3-7.33,6.67-7.33s5.88,3.64,5.88,6.63a9.21,9.21,0,0,1-.11,1.46Zm6-2.41c0-1.26-.53-3.33-2.83-3.33-2.13,0-3,1.93-3.16,3.33Z"/><path class="cls-3" d="M174.17,779.13c0-1.56,0-2.88-.11-4h3l.17,2h.08a4.94,4.94,0,0,1,4.34-2.35c2.38,0,4.85,1.54,4.85,5.85v8.09h-3.45V781c0-2-.72-3.44-2.6-3.44a2.9,2.9,0,0,0-2.69,2,3.58,3.58,0,0,0-.14,1.12v8h-3.47Z"/><path class="cls-3" d="M194,771.18v3.9h3.28v2.57H194v6c0,1.65.45,2.52,1.77,2.52a4.8,4.8,0,0,0,1.34-.17l.06,2.64a7.79,7.79,0,0,1-2.49.33,4,4,0,0,1-3-1.12,5.41,5.41,0,0,1-1.07-3.81v-6.41h-2v-2.57h2V772Z"/><path class="cls-3" d="M289.09,703.15a7.83,7.83,0,0,0,4,1.12c2.26,0,3.58-1.2,3.58-2.92s-.91-2.52-3.22-3.41c-2.8-1-4.52-2.43-4.52-4.85,0-2.66,2.2-4.64,5.53-4.64a7.66,7.66,0,0,1,3.78.84l-.61,1.8a6.72,6.72,0,0,0-3.25-.81c-2.33,0-3.22,1.39-3.22,2.56,0,1.6,1,2.39,3.4,3.3,2.9,1.12,4.37,2.51,4.37,5s-2,4.92-6,4.92a8.84,8.84,0,0,1-4.37-1.09Z"/><path class="cls-3" d="M308.71,705.84l-.17-1.55h-.08a4.55,4.55,0,0,1-3.76,1.83,3.49,3.49,0,0,1-3.75-3.53c0-3,2.64-4.6,7.38-4.57v-.25a2.54,2.54,0,0,0-2.79-2.85,6.14,6.14,0,0,0-3.2.92l-.51-1.48a7.65,7.65,0,0,1,4-1.09c3.76,0,4.67,2.57,4.67,5v4.59a16.55,16.55,0,0,0,.21,3Zm-.33-6.27c-2.43-.05-5.2.38-5.2,2.77a2,2,0,0,0,2.11,2.13,3.06,3.06,0,0,0,3-2.06,2.52,2.52,0,0,0,.12-.71Z"/><path class="cls-3" d="M314.15,696.88c0-1.27,0-2.31-.1-3.33h2l.12,2h.05a4.53,4.53,0,0,1,4.07-2.31c1.7,0,4.34,1,4.34,5.23v7.34h-2.24v-7.08c0-2-.73-3.63-2.84-3.63a3.19,3.19,0,0,0-3,2.28,3.26,3.26,0,0,0-.15,1v7.39h-2.23Z"/><path class="cls-3" d="M338.85,687.81v14.86c0,1.09,0,2.33.1,3.17h-2l-.1-2.13h-.06a4.53,4.53,0,0,1-4.18,2.41c-3,0-5.26-2.51-5.26-6.25,0-4.08,2.51-6.6,5.51-6.6a4.12,4.12,0,0,1,3.71,1.88h.05v-7.34Zm-2.23,10.74a4.29,4.29,0,0,0-.1-.94,3.29,3.29,0,0,0-3.23-2.59c-2.31,0-3.68,2-3.68,4.75,0,2.49,1.22,4.55,3.63,4.55a3.36,3.36,0,0,0,3.28-2.67,4.16,4.16,0,0,0,.1-1Z"/><path class="cls-3" d="M342.46,705.84c.05-.84.1-2.08.1-3.17V687.81h2.21v7.72h.05a4.57,4.57,0,0,1,4.19-2.26c3,0,5.2,2.54,5.18,6.27,0,4.4-2.77,6.58-5.51,6.58a4.4,4.4,0,0,1-4.12-2.31h-.07l-.1,2Zm2.31-4.93a4.38,4.38,0,0,0,.1.82,3.43,3.43,0,0,0,3.35,2.61c2.34,0,3.73-1.9,3.73-4.72,0-2.46-1.27-4.57-3.65-4.57a3.57,3.57,0,0,0-3.41,2.74,4.48,4.48,0,0,0-.12.92Z"/><path class="cls-3" d="M368.12,699.59c0,4.55-3.14,6.53-6.12,6.53-3.32,0-5.89-2.44-5.89-6.32,0-4.12,2.7-6.53,6.1-6.53S368.12,695.84,368.12,699.59Zm-9.75.13c0,2.69,1.55,4.72,3.74,4.72s3.73-2,3.73-4.77c0-2.08-1-4.72-3.68-4.72S358.37,697.38,358.37,699.72Z"/><path class="cls-3" d="M371.63,693.55l1.75,2.64c.46.69.84,1.32,1.24,2h.08c.41-.74.81-1.37,1.22-2l1.72-2.62h2.42l-4.19,5.94,4.31,6.35h-2.54l-1.8-2.77c-.48-.71-.89-1.39-1.32-2.13h0c-.41.74-.84,1.4-1.29,2.13l-1.78,2.77h-2.46l4.36-6.27-4.16-6Z"/><path class="cls-3" d="M398.51,705.84c-.48-.48-.94-1-1.6-1.68a7,7,0,0,1-5,2c-3.32,0-5.25-2.24-5.25-4.8a5.6,5.6,0,0,1,3.35-5v-.08a5.85,5.85,0,0,1-1.42-3.58,4.14,4.14,0,0,1,4.34-4.21,3.56,3.56,0,0,1,3.78,3.63c0,1.8-1,3.22-3.76,4.57v.07c1.45,1.68,3.08,3.56,4.17,4.78a12.73,12.73,0,0,0,1.65-5h2a13,13,0,0,1-2.46,6.32c.91,1,1.8,1.93,2.81,3Zm-2.69-3c-1-1.11-2.92-3.19-4.82-5.38a4.21,4.21,0,0,0-2.21,3.48,3.37,3.37,0,0,0,3.5,3.45A4.76,4.76,0,0,0,395.82,702.89Zm-5.2-10.43a4.81,4.81,0,0,0,1.29,3.07c1.73-1,2.85-1.9,2.85-3.35a2,2,0,0,0-2-2.21A2.23,2.23,0,0,0,390.62,692.46Z"/><path class="cls-3" d="M408.54,688.73h2.21V704h7.31v1.85h-9.52Z"/><path class="cls-3" d="M422.94,690.1a1.39,1.39,0,0,1-2.77,0,1.36,1.36,0,0,1,1.4-1.4A1.33,1.33,0,0,1,422.94,690.1Zm-2.49,15.74V693.55h2.23v12.29Z"/><path class="cls-3" d="M435.15,705.38a8.18,8.18,0,0,1-3.53.71c-3.71,0-6.12-2.51-6.12-6.27a6.24,6.24,0,0,1,6.6-6.52,7.57,7.57,0,0,1,3.1.63l-.51,1.73a5.1,5.1,0,0,0-2.59-.59c-2.82,0-4.34,2.09-4.34,4.65,0,2.84,1.83,4.6,4.27,4.6a6.38,6.38,0,0,0,2.74-.61Z"/><path class="cls-3" d="M438.85,700.1c.06,3,2,4.27,4.22,4.27a8,8,0,0,0,3.4-.64l.38,1.6a9.85,9.85,0,0,1-4.09.76c-3.78,0-6-2.48-6-6.19s2.19-6.63,5.77-6.63c4,0,5.07,3.53,5.07,5.79a10,10,0,0,1-.07,1Zm6.56-1.6c0-1.42-.59-3.63-3.1-3.63-2.26,0-3.25,2.08-3.43,3.63Z"/><path class="cls-3" d="M450.33,696.88c0-1.27,0-2.31-.1-3.33h2l.13,2h.05a4.51,4.51,0,0,1,4.06-2.31c1.7,0,4.34,1,4.34,5.23v7.34h-2.23v-7.08c0-2-.74-3.63-2.85-3.63a3.17,3.17,0,0,0-3,2.28,3.25,3.25,0,0,0-.16,1v7.39h-2.23Z"/><path class="cls-3" d="M464.12,703.55a5.75,5.75,0,0,0,2.94.89c1.63,0,2.39-.81,2.39-1.82s-.64-1.66-2.29-2.26c-2.21-.79-3.25-2-3.25-3.48,0-2,1.6-3.61,4.24-3.61a6.16,6.16,0,0,1,3,.76l-.55,1.63a4.76,4.76,0,0,0-2.52-.71c-1.32,0-2.05.76-2.05,1.67s.73,1.48,2.33,2.09c2.13.81,3.23,1.87,3.23,3.7,0,2.16-1.68,3.68-4.6,3.68a7.09,7.09,0,0,1-3.45-.83Z"/><path class="cls-3" d="M475.72,700.1c0,3,2,4.27,4.21,4.27a8,8,0,0,0,3.41-.64l.38,1.6a9.93,9.93,0,0,1-4.09.76c-3.78,0-6-2.48-6-6.19s2.18-6.63,5.76-6.63c4,0,5.08,3.53,5.08,5.79a7.43,7.43,0,0,1-.08,1Zm6.55-1.6c0-1.42-.58-3.63-3.1-3.63-2.26,0-3.25,2.08-3.43,3.63Z"/><path class="cls-3" d="M486.89,703.55a5.78,5.78,0,0,0,2.94.89c1.63,0,2.39-.81,2.39-1.82s-.63-1.66-2.28-2.26c-2.21-.79-3.25-2-3.25-3.48,0-2,1.6-3.61,4.24-3.61a6.22,6.22,0,0,1,3,.76l-.56,1.63a4.72,4.72,0,0,0-2.51-.71c-1.32,0-2.06.76-2.06,1.67s.74,1.48,2.34,2.09c2.13.81,3.22,1.87,3.22,3.7,0,2.16-1.68,3.68-4.6,3.68a7.09,7.09,0,0,1-3.45-.83Z"/><path class="cls-3" d="M301.35,749.28a10.88,10.88,0,0,1-4.52.81c-4.82,0-8.45-3-8.45-8.65,0-5.36,3.63-9,8.94-9a9.12,9.12,0,0,1,4.06.76l-.54,1.8a8.1,8.1,0,0,0-3.45-.71c-4,0-6.68,2.57-6.68,7.06,0,4.19,2.42,6.88,6.58,6.88a8.88,8.88,0,0,0,3.61-.71Z"/><path class="cls-3" d="M314.88,743.59c0,4.55-3.14,6.53-6.12,6.53-3.32,0-5.89-2.44-5.89-6.32,0-4.12,2.7-6.53,6.1-6.53S314.88,739.84,314.88,743.59Zm-9.75.13c0,2.69,1.55,4.72,3.74,4.72s3.73-2,3.73-4.77c0-2.08-1-4.72-3.68-4.72S305.13,741.38,305.13,743.72Z"/><path class="cls-3" d="M328.31,731.81v14.86c0,1.09,0,2.33.11,3.17h-2l-.1-2.13h-.05a4.56,4.56,0,0,1-4.19,2.41c-3,0-5.26-2.51-5.26-6.25,0-4.08,2.52-6.6,5.51-6.6a4.12,4.12,0,0,1,3.71,1.88h.05v-7.34Zm-2.23,10.74a4.29,4.29,0,0,0-.1-.94,3.29,3.29,0,0,0-3.23-2.59c-2.31,0-3.68,2-3.68,4.75,0,2.49,1.22,4.55,3.63,4.55a3.36,3.36,0,0,0,3.28-2.67,4.16,4.16,0,0,0,.1-1Z"/><path class="cls-3" d="M333.26,744.1c.06,3,2,4.27,4.22,4.27a8,8,0,0,0,3.4-.64l.38,1.6a9.85,9.85,0,0,1-4.09.76c-3.78,0-6-2.48-6-6.19s2.19-6.63,5.77-6.63c4,0,5.07,3.53,5.07,5.79a10,10,0,0,1-.07,1Zm6.56-1.6c0-1.42-.59-3.63-3.1-3.63-2.26,0-3.25,2.08-3.43,3.63Z"/><path class="cls-3" d="M358.88,749.38a8.14,8.14,0,0,1-3.53.71c-3.7,0-6.12-2.51-6.12-6.27a6.24,6.24,0,0,1,6.6-6.52,7.53,7.53,0,0,1,3.1.63l-.51,1.73a5.1,5.1,0,0,0-2.59-.59c-2.81,0-4.34,2.09-4.34,4.65,0,2.84,1.83,4.6,4.27,4.6a6.31,6.31,0,0,0,2.74-.61Z"/><path class="cls-3" d="M372.46,743.59c0,4.55-3.14,6.53-6.11,6.53-3.33,0-5.89-2.44-5.89-6.32,0-4.12,2.69-6.53,6.09-6.53S372.46,739.84,372.46,743.59Zm-9.75.13c0,2.69,1.55,4.72,3.74,4.72s3.73-2,3.73-4.77c0-2.08-1-4.72-3.68-4.72S362.71,741.38,362.71,743.72Z"/><path class="cls-3" d="M376,737.55l2.41,6.91a28.92,28.92,0,0,1,1,3.15h.08c.28-1,.63-2,1-3.15l2.39-6.91h2.33l-4.82,12.29h-2.14l-4.67-12.29Z"/><path class="cls-3" d="M388.31,744.1c.05,3,2,4.27,4.21,4.27a8,8,0,0,0,3.4-.64l.39,1.6a9.93,9.93,0,0,1-4.09.76c-3.79,0-6.05-2.48-6.05-6.19s2.19-6.63,5.77-6.63c4,0,5.08,3.53,5.08,5.79a7.43,7.43,0,0,1-.08,1Zm6.55-1.6c0-1.42-.59-3.63-3.1-3.63-2.26,0-3.25,2.08-3.43,3.63Z"/><path class="cls-3" d="M399.78,741.38c0-1.44,0-2.69-.1-3.83h2l.07,2.41h.1a3.69,3.69,0,0,1,3.41-2.69,2.41,2.41,0,0,1,.63.08v2.11a2.91,2.91,0,0,0-.76-.08,3.14,3.14,0,0,0-3,2.87,6.33,6.33,0,0,0-.1,1v6.55h-2.21Z"/><path class="cls-3" d="M414.76,749.84l-.18-1.55h-.07a4.58,4.58,0,0,1-3.76,1.83,3.5,3.5,0,0,1-3.76-3.53c0-3,2.64-4.6,7.39-4.57v-.25a2.54,2.54,0,0,0-2.79-2.85,6.11,6.11,0,0,0-3.2.92l-.51-1.48a7.65,7.65,0,0,1,4-1.09c3.76,0,4.67,2.57,4.67,5v4.59a17.62,17.62,0,0,0,.2,3Zm-.33-6.27c-2.43-.05-5.2.38-5.2,2.77a2,2,0,0,0,2.1,2.13,3.08,3.08,0,0,0,3-2.06,2.52,2.52,0,0,0,.12-.71Z"/><path class="cls-3" d="M430.78,737.55c0,.89-.1,1.88-.1,3.38v7.13c0,2.82-.56,4.55-1.75,5.61a6.5,6.5,0,0,1-4.47,1.48,8,8,0,0,1-4.09-1l.56-1.7a6.9,6.9,0,0,0,3.61,1c2.28,0,4-1.19,4-4.29v-1.37h-.05a4.38,4.38,0,0,1-3.91,2.06c-3.05,0-5.23-2.59-5.23-6,0-4.17,2.71-6.53,5.53-6.53a4.12,4.12,0,0,1,3.84,2.13h.05l.1-1.85Zm-2.31,4.85a3.29,3.29,0,0,0-.12-1,3.23,3.23,0,0,0-3.13-2.36c-2.13,0-3.65,1.81-3.65,4.65,0,2.41,1.22,4.42,3.63,4.42a3.26,3.26,0,0,0,3.09-2.29,3.78,3.78,0,0,0,.18-1.19Z"/><path class="cls-3" d="M435.63,744.1c.05,3,2,4.27,4.22,4.27a8,8,0,0,0,3.4-.64l.38,1.6a9.89,9.89,0,0,1-4.09.76c-3.78,0-6-2.48-6-6.19s2.18-6.63,5.76-6.63c4,0,5.08,3.53,5.08,5.79a7.43,7.43,0,0,1-.08,1Zm6.55-1.6c0-1.42-.58-3.63-3.1-3.63-2.25,0-3.25,2.08-3.42,3.63Z"/><path class="cls-3" d="M292.64,778.61h-5.2v-1.88h12.67v1.88h-5.23v15.23h-2.24Z"/><path class="cls-3" d="M313.29,793.28a11,11,0,0,1-4.52.81c-4.83,0-8.46-3-8.46-8.65,0-5.36,3.63-9,8.94-9a9.08,9.08,0,0,1,4.06.76l-.53,1.8a8.15,8.15,0,0,0-3.46-.71c-4,0-6.67,2.57-6.67,7.06,0,4.19,2.41,6.88,6.57,6.88a8.88,8.88,0,0,0,3.61-.71Z"/><path class="cls-3" d="M330.14,785.11c0,5.89-3.58,9-7.94,9-4.52,0-7.7-3.5-7.7-8.68,0-5.44,3.38-9,7.95-9S330.14,780,330.14,785.11Zm-13.28.27c0,3.66,2,6.94,5.46,6.94s5.49-3.23,5.49-7.11c0-3.41-1.78-7-5.46-7S316.86,781.63,316.86,785.38Z"/><path class="cls-3" d="M93.31,962.74a77.61,77.61,0,0,1-7.37-2.44,5,5,0,0,0-1.23-.28c-4.37-.23-8.26-3.44-8.26-9.58,0-5.82,3.61-9.91,9-9.91s8.7,4.2,8.7,9.52c0,4.57-2.09,7.62-4.87,8.71v.11c1.63.45,3.45.84,5,1.15Zm-2.77-12.52c0-3.61-1.77-6.92-5.18-6.92s-5.3,3.28-5.27,7.06,1.91,6.89,5.21,6.89S90.54,954.17,90.54,950.22Z"/><path class="cls-3" d="M109.32,955.62c0,1.63.06,3,.12,4.09h-3l-.17-2.07h0a4.93,4.93,0,0,1-4.37,2.38c-2.49,0-4.76-1.48-4.76-5.94v-8h3.44v7.42c0,2.26.73,3.72,2.55,3.72a2.9,2.9,0,0,0,2.63-1.85,2.94,2.94,0,0,0,.2-1.06v-8.23h3.44Z"/><path class="cls-3" d="M120.72,959.71l-.22-1.51h-.09a5.08,5.08,0,0,1-4,1.82A4,4,0,0,1,112.1,956c0-3.44,3.05-5.18,8.09-5.15v-.23c0-.89-.37-2.38-2.77-2.38a7.18,7.18,0,0,0-3.67,1l-.67-2.24a9.85,9.85,0,0,1,4.92-1.2c4.37,0,5.63,2.77,5.63,5.74v4.93a21.74,21.74,0,0,0,.2,3.27Zm-.45-6.66c-2.44-.06-4.76.47-4.76,2.54a1.81,1.81,0,0,0,2,2,2.8,2.8,0,0,0,2.69-1.88,2.59,2.59,0,0,0,.11-.76Z"/><path class="cls-3" d="M127.27,939.83h3.47v19.88h-3.47Z"/><path class="cls-3" d="M138.13,942.27a1.93,1.93,0,1,1-1.93-1.88A1.83,1.83,0,0,1,138.13,942.27Zm-3.66,17.44V946.08h3.47v13.63Z"/><path class="cls-3" d="M145.58,942.18v3.9h3.28v2.57h-3.28v6c0,1.65.45,2.52,1.77,2.52a4.86,4.86,0,0,0,1.34-.17l.06,2.64a7.81,7.81,0,0,1-2.5.33,4,4,0,0,1-3-1.12,5.41,5.41,0,0,1-1.07-3.81v-6.41h-2v-2.57h2V943Z"/><path class="cls-3" d="M153.81,946.08l2.47,7.3c.28.84.56,1.88.75,2.66h.09c.22-.78.47-1.79.73-2.68l2.12-7.28h3.7l-3.42,9.29c-1.87,5.1-3.13,7.37-4.76,8.76a6.86,6.86,0,0,1-3.61,1.77L151.1,963a5.93,5.93,0,0,0,2-1,6,6,0,0,0,1.88-2.16,1.37,1.37,0,0,0,.22-.62,1.41,1.41,0,0,0-.19-.67l-5-12.51Z"/><path class="cls-3" d="M289.39,849.14a21.8,21.8,0,0,1,4-.35c2.21,0,3.63.38,4.7,1.24a3.59,3.59,0,0,1,1.42,3,4.07,4.07,0,0,1-2.89,3.76v.05a4.41,4.41,0,0,1,3.52,4.29,4.63,4.63,0,0,1-1.44,3.43c-1.2,1.09-3.13,1.6-5.92,1.6a24.32,24.32,0,0,1-3.43-.21Zm2.21,7h2c2.33,0,3.71-1.22,3.71-2.87,0-2-1.53-2.79-3.76-2.79a9.31,9.31,0,0,0-2,.15Zm0,8.2a11.44,11.44,0,0,0,1.86.1c2.28,0,4.39-.84,4.39-3.32s-2-3.31-4.42-3.31H291.6Z"/><path class="cls-3" d="M304.42,860.29a3.93,3.93,0,0,0,4.22,4.26,8.17,8.17,0,0,0,3.4-.63l.38,1.6a10.06,10.06,0,0,1-4.09.76c-3.78,0-6-2.49-6-6.2s2.18-6.62,5.76-6.62c4,0,5.08,3.53,5.08,5.79a10.18,10.18,0,0,1-.07,1Zm6.55-1.6c0-1.42-.58-3.63-3.09-3.63-2.26,0-3.25,2.08-3.43,3.63Z"/><path class="cls-3" d="M315.59,863.74a5.88,5.88,0,0,0,3,.89c1.63,0,2.39-.81,2.39-1.83s-.64-1.65-2.29-2.26c-2.21-.79-3.25-2-3.25-3.48,0-2,1.6-3.6,4.24-3.6a6.05,6.05,0,0,1,3,.76l-.56,1.62a4.81,4.81,0,0,0-2.51-.71c-1.32,0-2.06.76-2.06,1.68s.74,1.47,2.34,2.08c2.13.81,3.22,1.88,3.22,3.71,0,2.16-1.67,3.68-4.59,3.68a7,7,0,0,1-3.45-.84Z"/><path class="cls-3" d="M328.64,850.21v3.53h3.2v1.7h-3.2v6.62c0,1.53.44,2.39,1.68,2.39a4.9,4.9,0,0,0,1.3-.15l.1,1.67a5.41,5.41,0,0,1-2,.31,3.12,3.12,0,0,1-2.42-.94,4.57,4.57,0,0,1-.86-3.2v-6.7h-1.9v-1.7h1.9v-3Z"/><path class="cls-3" d="M339.74,857.75c0-1.58-.05-2.85-.1-4h2l.1,2.1h.05a4.86,4.86,0,0,1,4.37-2.38c3,0,5.21,2.51,5.21,6.24,0,4.42-2.69,6.6-5.59,6.6a4.31,4.31,0,0,1-3.78-1.92H342v6.67h-2.21ZM342,861a5.18,5.18,0,0,0,.1.92,3.44,3.44,0,0,0,3.35,2.61c2.36,0,3.73-1.93,3.73-4.75,0-2.46-1.29-4.57-3.65-4.57A3.57,3.57,0,0,0,342.1,858a3.47,3.47,0,0,0-.15.92Z"/><path class="cls-3" d="M354.18,857.57c0-1.45,0-2.69-.1-3.83h2l.07,2.41h.1a3.69,3.69,0,0,1,3.41-2.69,2.43,2.43,0,0,1,.63.07v2.11a3.41,3.41,0,0,0-.76-.08,3.15,3.15,0,0,0-3,2.87,6.44,6.44,0,0,0-.1,1V866h-2.21Z"/><path class="cls-3" d="M369.16,866l-.17-1.55h-.08a4.6,4.6,0,0,1-3.76,1.82,3.5,3.5,0,0,1-3.76-3.52c0-3,2.64-4.6,7.39-4.57V858a2.53,2.53,0,0,0-2.79-2.84,6.11,6.11,0,0,0-3.2.91l-.51-1.47a7.65,7.65,0,0,1,4-1.09c3.76,0,4.67,2.56,4.67,5v4.6a17.62,17.62,0,0,0,.2,2.95Zm-.33-6.28c-2.43,0-5.2.38-5.2,2.77a2,2,0,0,0,2.11,2.13,3.07,3.07,0,0,0,3-2,2.52,2.52,0,0,0,.12-.71Z"/><path class="cls-3" d="M383.36,865.57a8.33,8.33,0,0,1-3.53.71c-3.71,0-6.12-2.51-6.12-6.27a6.24,6.24,0,0,1,6.6-6.53,7.39,7.39,0,0,1,3.1.64l-.51,1.72a5.23,5.23,0,0,0-2.59-.58c-2.82,0-4.34,2.08-4.34,4.65,0,2.84,1.82,4.59,4.26,4.59a6.31,6.31,0,0,0,2.74-.61Z"/><path class="cls-3" d="M389,850.21v3.53h3.2v1.7H389v6.62c0,1.53.43,2.39,1.68,2.39a4.81,4.81,0,0,0,1.29-.15l.1,1.67a5.37,5.37,0,0,1-2,.31,3.09,3.09,0,0,1-2.41-.94,4.57,4.57,0,0,1-.86-3.2v-6.7H384.9v-1.7h1.91v-3Z"/><path class="cls-3" d="M397.19,850.28a1.31,1.31,0,0,1-1.42,1.37,1.33,1.33,0,0,1-1.35-1.37,1.36,1.36,0,0,1,1.4-1.39A1.32,1.32,0,0,1,397.19,850.28ZM394.7,866V853.74h2.24V866Z"/><path class="cls-3" d="M409.4,865.57a8.3,8.3,0,0,1-3.53.71c-3.7,0-6.12-2.51-6.12-6.27a6.25,6.25,0,0,1,6.61-6.53,7.34,7.34,0,0,1,3.09.64l-.5,1.72a5.26,5.26,0,0,0-2.59-.58c-2.82,0-4.35,2.08-4.35,4.65,0,2.84,1.83,4.59,4.27,4.59a6.31,6.31,0,0,0,2.74-.61Z"/><path class="cls-3" d="M413.11,860.29c.05,3,2,4.26,4.21,4.26a8.22,8.22,0,0,0,3.41-.63l.38,1.6a10.1,10.1,0,0,1-4.09.76c-3.78,0-6-2.49-6-6.2s2.18-6.62,5.76-6.62c4,0,5.08,3.53,5.08,5.79a7.57,7.57,0,0,1-.08,1Zm6.55-1.6c0-1.42-.58-3.63-3.1-3.63-2.26,0-3.25,2.08-3.43,3.63Z"/><path class="cls-3" d="M424.28,863.74a5.88,5.88,0,0,0,3,.89c1.62,0,2.38-.81,2.38-1.83s-.63-1.65-2.28-2.26c-2.21-.79-3.25-2-3.25-3.48,0-2,1.6-3.6,4.24-3.6a6.11,6.11,0,0,1,3,.76l-.56,1.62a4.81,4.81,0,0,0-2.51-.71c-1.32,0-2.06.76-2.06,1.68s.74,1.47,2.34,2.08c2.13.81,3.22,1.88,3.22,3.71,0,2.16-1.68,3.68-4.6,3.68a7,7,0,0,1-3.45-.84Z"/><path class="cls-3" d="M292.64,894.79h-5.2v-1.88h12.67v1.88h-5.23V910h-2.24Z"/><path class="cls-3" d="M301.38,904.29c.05,3,2,4.26,4.21,4.26a8.14,8.14,0,0,0,3.4-.63l.39,1.6a10.1,10.1,0,0,1-4.09.76c-3.79,0-6.05-2.49-6.05-6.2s2.19-6.62,5.77-6.62c4,0,5.08,3.53,5.08,5.79a7.57,7.57,0,0,1-.08,1Zm6.55-1.6c0-1.42-.59-3.63-3.1-3.63-2.26,0-3.25,2.08-3.43,3.63Z"/><path class="cls-3" d="M321.61,909.57a8.3,8.3,0,0,1-3.53.71c-3.7,0-6.12-2.51-6.12-6.27a6.25,6.25,0,0,1,6.61-6.53,7.34,7.34,0,0,1,3.09.64l-.5,1.72a5.29,5.29,0,0,0-2.59-.58c-2.82,0-4.35,2.08-4.35,4.65,0,2.84,1.83,4.59,4.27,4.59a6.31,6.31,0,0,0,2.74-.61Z"/><path class="cls-3" d="M324.23,892h2.23v7.67h.05a4.19,4.19,0,0,1,1.6-1.58,4.62,4.62,0,0,1,2.29-.63c1.65,0,4.29,1,4.29,5.25V910h-2.24V903c0-2-.73-3.66-2.84-3.66a3.22,3.22,0,0,0-3,2.23,2.88,2.88,0,0,0-.15,1.07V910h-2.23Z"/><path class="cls-3" d="M338.32,901.06c0-1.27,0-2.31-.1-3.32h2l.12,2h.05a4.53,4.53,0,0,1,4.07-2.31c1.7,0,4.34,1,4.34,5.23V910h-2.24v-7.09c0-2-.73-3.63-2.84-3.63a3.18,3.18,0,0,0-3,2.29,3.26,3.26,0,0,0-.15,1V910h-2.23Z"/><path class="cls-3" d="M354.9,894.28a1.39,1.39,0,0,1-2.77,0,1.36,1.36,0,0,1,1.4-1.39A1.33,1.33,0,0,1,354.9,894.28ZM352.41,910V897.74h2.23V910Z"/><path class="cls-3" d="M367.11,909.57a8.33,8.33,0,0,1-3.53.71c-3.71,0-6.12-2.51-6.12-6.27a6.24,6.24,0,0,1,6.6-6.53,7.39,7.39,0,0,1,3.1.64l-.51,1.72a5.23,5.23,0,0,0-2.59-.58c-2.82,0-4.34,2.08-4.34,4.65,0,2.84,1.83,4.59,4.27,4.59a6.38,6.38,0,0,0,2.74-.61Z"/><path class="cls-3" d="M376.53,910l-.18-1.55h-.08a4.56,4.56,0,0,1-3.75,1.82,3.5,3.5,0,0,1-3.76-3.52c0-3,2.64-4.6,7.39-4.57V902a2.54,2.54,0,0,0-2.8-2.84,6.13,6.13,0,0,0-3.2.91l-.5-1.47a7.58,7.58,0,0,1,4-1.09c3.76,0,4.68,2.56,4.68,5v4.6a17.62,17.62,0,0,0,.2,2.95Zm-.33-6.28c-2.44,0-5.21.38-5.21,2.77a2,2,0,0,0,2.11,2.13,3.06,3.06,0,0,0,3-2,2.22,2.22,0,0,0,.13-.71Z"/><path class="cls-3" d="M382,892h2.23v18H382Z"/><path class="cls-3" d="M404,892v14.85c0,1.09,0,2.34.1,3.18h-2l-.1-2.14h-.05a4.55,4.55,0,0,1-4.19,2.41c-3,0-5.26-2.51-5.26-6.24,0-4.09,2.52-6.6,5.51-6.6a4.12,4.12,0,0,1,3.71,1.88h0V892Zm-2.24,10.74a3.76,3.76,0,0,0-.1-.94,3.29,3.29,0,0,0-3.22-2.59c-2.31,0-3.69,2-3.69,4.75,0,2.49,1.22,4.54,3.63,4.54a3.37,3.37,0,0,0,3.28-2.66,3.75,3.75,0,0,0,.1-1Z"/><path class="cls-3" d="M408.9,904.29c.05,3,2,4.26,4.21,4.26a8.14,8.14,0,0,0,3.4-.63l.38,1.6a10,10,0,0,1-4.08.76c-3.79,0-6.05-2.49-6.05-6.2s2.19-6.62,5.77-6.62c4,0,5.08,3.53,5.08,5.79a9.62,9.62,0,0,1-.08,1Zm6.55-1.6c0-1.42-.59-3.63-3.1-3.63-2.26,0-3.25,2.08-3.43,3.63Z"/><path class="cls-3" d="M420.27,910c.05-.84.1-2.09.1-3.18V892h2.21v7.72h.05a4.58,4.58,0,0,1,4.19-2.26c3.05,0,5.21,2.54,5.18,6.27,0,4.39-2.77,6.57-5.51,6.57a4.36,4.36,0,0,1-4.11-2.31h-.08l-.1,2Zm2.31-4.93a4.17,4.17,0,0,0,.1.81,3.45,3.45,0,0,0,3.35,2.62c2.34,0,3.74-1.91,3.74-4.73,0-2.46-1.27-4.57-3.66-4.57a3.57,3.57,0,0,0-3.4,2.75,4.41,4.41,0,0,0-.13.91Z"/><path class="cls-3" d="M437.51,894.21v3.53h3.2v1.7h-3.2v6.62c0,1.53.43,2.39,1.67,2.39a4.84,4.84,0,0,0,1.3-.15l.1,1.67a5.41,5.41,0,0,1-2,.31,3.09,3.09,0,0,1-2.41-.94,4.53,4.53,0,0,1-.86-3.2v-6.7h-1.91v-1.7h1.91v-3Z"/><path class="cls-3" d="M291.6,936.91V954h-2.21V936.91Z"/><path class="cls-3" d="M295.64,945.06c0-1.27,0-2.31-.1-3.32h1.95l.1,2h.08a4.24,4.24,0,0,1,3.86-2.26,3.63,3.63,0,0,1,3.48,2.46h.05a5,5,0,0,1,1.37-1.6,4.2,4.2,0,0,1,2.72-.86c1.62,0,4,1.06,4,5.33V954H311v-7c0-2.36-.86-3.78-2.67-3.78a2.88,2.88,0,0,0-2.64,2,3.7,3.7,0,0,0-.17,1.11V954h-2.19v-7.37c0-1.95-.86-3.37-2.56-3.37a3,3,0,0,0-2.77,2.23,3,3,0,0,0-.18,1.09V954h-2.18Z"/><path class="cls-3" d="M316.81,945.75c0-1.58-.05-2.85-.1-4h2l.1,2.1h.05a4.84,4.84,0,0,1,4.37-2.38c3,0,5.2,2.51,5.2,6.24,0,4.42-2.69,6.6-5.58,6.6a4.33,4.33,0,0,1-3.79-1.92H319v6.67h-2.21ZM319,949a5.18,5.18,0,0,0,.1.92,3.45,3.45,0,0,0,3.35,2.61c2.37,0,3.74-1.93,3.74-4.75,0-2.46-1.3-4.57-3.66-4.57a3.59,3.59,0,0,0-3.38,2.77,3.93,3.93,0,0,0-.15.92Z"/><path class="cls-3" d="M338.06,954l-.18-1.55h-.07a4.6,4.6,0,0,1-3.76,1.82,3.5,3.5,0,0,1-3.76-3.52c0-3,2.64-4.6,7.39-4.57V946a2.53,2.53,0,0,0-2.79-2.84,6.11,6.11,0,0,0-3.2.91l-.51-1.47a7.65,7.65,0,0,1,4-1.09c3.76,0,4.67,2.56,4.67,5v4.6a17.62,17.62,0,0,0,.2,2.95Zm-.33-6.28c-2.44,0-5.2.38-5.2,2.77a2,2,0,0,0,2.1,2.13,3.07,3.07,0,0,0,3-2,2.52,2.52,0,0,0,.12-.71Z"/><path class="cls-3" d="M352.25,953.57a8.24,8.24,0,0,1-3.52.71c-3.71,0-6.12-2.51-6.12-6.27a6.24,6.24,0,0,1,6.6-6.53,7.39,7.39,0,0,1,3.1.64l-.51,1.72a5.26,5.26,0,0,0-2.59-.58c-2.82,0-4.34,2.08-4.34,4.65,0,2.84,1.82,4.59,4.26,4.59a6.31,6.31,0,0,0,2.74-.61Z"/><path class="cls-3" d="M357.89,938.21v3.53h3.2v1.7h-3.2v6.62c0,1.53.43,2.39,1.68,2.39a4.81,4.81,0,0,0,1.29-.15L361,954a5.41,5.41,0,0,1-2,.31,3.09,3.09,0,0,1-2.41-.94,4.53,4.53,0,0,1-.86-3.2v-6.7H353.8v-1.7h1.91v-3Z"/><path class="cls-3" d="M375.79,954l-.18-1.55h-.08a4.56,4.56,0,0,1-3.75,1.82,3.5,3.5,0,0,1-3.76-3.52c0-3,2.64-4.6,7.39-4.57V946a2.54,2.54,0,0,0-2.8-2.84,6.07,6.07,0,0,0-3.19.91l-.51-1.47a7.61,7.61,0,0,1,4-1.09c3.76,0,4.68,2.56,4.68,5v4.6a17.62,17.62,0,0,0,.2,2.95Zm-.33-6.28c-2.44,0-5.21.38-5.21,2.77a2,2,0,0,0,2.11,2.13,3,3,0,0,0,3-2,2.22,2.22,0,0,0,.13-.71Z"/><path class="cls-3" d="M381.22,945.06c0-1.27,0-2.31-.1-3.32h2l.13,2h0a4.51,4.51,0,0,1,4.06-2.31c1.7,0,4.34,1,4.34,5.23V954h-2.23v-7.09c0-2-.74-3.63-2.85-3.63a3.17,3.17,0,0,0-3,2.29,3.26,3.26,0,0,0-.15,1V954h-2.24Z"/><path class="cls-3" d="M402.12,954l-.18-1.55h-.08a4.57,4.57,0,0,1-3.76,1.82,3.5,3.5,0,0,1-3.75-3.52c0-3,2.64-4.6,7.39-4.57V946a2.54,2.54,0,0,0-2.8-2.84,6.13,6.13,0,0,0-3.2.91l-.5-1.47a7.58,7.58,0,0,1,4-1.09c3.76,0,4.67,2.56,4.67,5v4.6a17.55,17.55,0,0,0,.21,2.95Zm-.33-6.28c-2.44,0-5.21.38-5.21,2.77a2,2,0,0,0,2.11,2.13,3.06,3.06,0,0,0,3-2,2.22,2.22,0,0,0,.13-.71Z"/><path class="cls-3" d="M407.55,936h2.23v18h-2.23Z"/><path class="cls-3" d="M414.35,941.74,417,949c.28.81.59,1.78.79,2.51h.05c.23-.73.48-1.67.79-2.56l2.44-7.21h2.36l-3.35,8.76c-1.6,4.21-2.7,6.37-4.22,7.69a6.08,6.08,0,0,1-2.74,1.45l-.56-1.88a6.11,6.11,0,0,0,2-1.09,6.77,6.77,0,0,0,1.87-2.49,1.46,1.46,0,0,0,.18-.54,2,2,0,0,0-.15-.58l-4.54-11.32Z"/><path class="cls-3" d="M425,951.74a5.88,5.88,0,0,0,2.95.89c1.62,0,2.38-.81,2.38-1.83s-.63-1.65-2.28-2.26c-2.21-.79-3.25-2-3.25-3.48,0-2,1.6-3.6,4.24-3.6a6.08,6.08,0,0,1,3,.76l-.56,1.62a4.81,4.81,0,0,0-2.51-.71c-1.32,0-2.06.76-2.06,1.68s.74,1.47,2.34,2.08c2.13.81,3.22,1.88,3.22,3.71,0,2.16-1.67,3.68-4.59,3.68a7,7,0,0,1-3.46-.84Z"/><path class="cls-3" d="M437.89,938.28a1.39,1.39,0,0,1-2.77,0,1.36,1.36,0,0,1,1.4-1.39A1.32,1.32,0,0,1,437.89,938.28ZM435.4,954V941.74h2.23V954Z"/><path class="cls-3" d="M441,951.74a5.84,5.84,0,0,0,2.94.89c1.63,0,2.39-.81,2.39-1.83s-.64-1.65-2.29-2.26c-2.21-.79-3.25-2-3.25-3.48,0-2,1.6-3.6,4.24-3.6a6.05,6.05,0,0,1,3,.76l-.55,1.62a4.85,4.85,0,0,0-2.52-.71c-1.32,0-2,.76-2,1.68s.73,1.47,2.33,2.08c2.13.81,3.23,1.88,3.23,3.71,0,2.16-1.68,3.68-4.6,3.68a7,7,0,0,1-3.45-.84Z"/><path class="cls-3" d="M85.74,67.78H80.42L87.21,56,94,67.74H88.67c.13,2.22-.35,4.39.35,6.49a6.2,6.2,0,0,0,5.12,4.27c0-1.64,0-3.2,0-4.77a7.21,7.21,0,0,1,5.36-6.89,22.37,22.37,0,0,1,3.09-.36C99.46,65.24,98,63,98.54,60.22a5.31,5.31,0,0,1,10.43,0c.56,2.78-.92,5-4.08,6.29l3.63.32a9.3,9.3,0,0,1,5.93-4.14,12.3,12.3,0,0,1,2.26-.24c1.72,0,3.45,0,5.17,0a9.66,9.66,0,0,1,8.86,4.4l3.7-.33a5.7,5.7,0,0,1-3.39-2.36,5.18,5.18,0,0,1-.73-4,5.31,5.31,0,0,1,5.26-4.18,5.37,5.37,0,0,1,5.13,4.24c.58,2.77-.82,4.93-4.05,6.35a23.5,23.5,0,0,1,2.7.24,7.23,7.23,0,0,1,5.76,7c0,1.55,0,3.09,0,4.64a5.92,5.92,0,0,0,5.36-5.22,46,46,0,0,0,0-5.39h-5.27L152.05,56l6.78,11.74h-5.31c0,1.52,0,2.94,0,4.36a8.93,8.93,0,0,1-5.6,8.55,10.93,10.93,0,0,1-4.09.77c-5.95.09-11.91.06-17.87,0a1.08,1.08,0,0,0-1.14.68,5.81,5.81,0,0,1-10.33,0,1.19,1.19,0,0,0-1.28-.73c-6,0-12.09,0-18.14,0A9.16,9.16,0,0,1,86,74.18a12.24,12.24,0,0,1-.23-2.35C85.72,70.52,85.74,69.21,85.74,67.78Zm43.53,10.37c0-2.36.18-4.61,0-6.83-.36-3.72-3-6-6.72-6-2.16,0-4.32,0-6.48,0a6.19,6.19,0,0,0-5.9,5.18C109.88,73,110,75.49,110,78c0,.05.07.09.15.19,1,0,2.06,0,3.11,0,.57,0,.74-.25,1-.69a9,9,0,0,1,1.92-2.54A5.72,5.72,0,0,1,125,77.44c.12.28.46.66.71.67C126.87,78.19,128,78.15,129.27,78.15Zm-32.14-.06h10.05V69.6a1.73,1.73,0,0,0-.54-.14c-1.93,0-3.86-.13-5.78,0a4,4,0,0,0-3.69,3.34A48.46,48.46,0,0,0,97.13,78.09Zm35-8.58v8.58H142.2c0-1.6.08-3.14,0-4.68a4,4,0,0,0-3.47-3.83,32.93,32.93,0,0,0-4.45-.16C133.51,69.41,132.76,69.48,132.08,69.51Zm-15.4,10a3,3,0,1,0,5.9.06,3,3,0,1,0-5.9-.06ZM135.5,63.65A2.41,2.41,0,0,0,138,61.24a2.45,2.45,0,0,0-4.9,0A2.42,2.42,0,0,0,135.5,63.65Zm-31.74,0a2.42,2.42,0,0,0,2.45-2.41,2.45,2.45,0,0,0-4.9,0A2.41,2.41,0,0,0,103.76,63.65Z"/><path class="cls-3" d="M119.66,61.37a6.68,6.68,0,1,1,6.67-6.68A6.7,6.7,0,0,1,119.66,61.37Zm-3.82-6.69a3.79,3.79,0,1,0,7.58,0,3.79,3.79,0,1,0-7.58,0Z"/><path class="cls-3" d="M144.26,273.21v-4.74h-60v-2.58h1.16q15.33,0,30.67,0a33.25,33.25,0,0,0,7.57-.59,21.24,21.24,0,0,0,16.42-21.59,20.09,20.09,0,0,0-2.44-8.71c-.23-.43-.42-.63-1-.47a5,5,0,0,1-5.46-1.59,4.86,4.86,0,0,1-.71-5.53c-5.6-4.27-16.49-5.79-25.08.48A20.54,20.54,0,0,0,98.05,252l4.82-1.9L101.24,262l-9.76-7.31,4-1.63a23.33,23.33,0,0,1-.79-13.85,24,24,0,0,1,7.3-12,17.65,17.65,0,0,1-11.74-8A16.53,16.53,0,0,1,87.79,209a17.5,17.5,0,0,1,15.95-15.65v-4.7l10.71,6-10.64,6v-4.56A14.73,14.73,0,0,0,90.61,208a14.55,14.55,0,0,0,13.86,16.89,2.58,2.58,0,0,0,1.24-.3c8.78-4.79,17.47-4.66,26.07.47a1.19,1.19,0,0,0,1.27,0,5.31,5.31,0,0,1,6,1.27,5.09,5.09,0,0,1,.59,6,1.2,1.2,0,0,0,0,1,23.36,23.36,0,0,1-9.08,32l-.89.53h14.51v-4.65l10.75,6Zm-9.1-40.93a2.61,2.61,0,1,0,0-5.22,2.61,2.61,0,1,0,0,5.22Z"/><path class="cls-3" d="M106.43,413a5.89,5.89,0,0,1-3.31-2.18c-.33-.52-.59-1.09-.93-1.72h-10v-17H87.52l5.93-10.27,5.92,10.25H94.79V396h35.45V369.37c-.29,0-.53,0-.78,0-4.14,0-8.28,0-12.41,0a1,1,0,0,0-1,.65,17.52,17.52,0,0,1-33-3.63c-.15-.66-.28-1.31-.42-2v-3.74a2.41,2.41,0,0,0,.16-.45A17.49,17.49,0,0,1,95.5,345.63c.91-.25,1.85-.44,2.77-.65H102c.77.17,1.53.32,2.29.5a17.53,17.53,0,0,1,13.07,20.39c-.05.27-.08.54-.13.9h15.68v8.11h1c4,0,8,0,12,0a1.29,1.29,0,0,1,1.24.65c3,4.44,6.1,8.86,9.14,13.3a1.73,1.73,0,0,1,.32.92q0,9.48,0,18.95c0,.11,0,.21-.05.38h-9.8a5.57,5.57,0,0,1-4.11,3.93H141l-.78-.28a4.84,4.84,0,0,1-3.19-3,.91.91,0,0,0-1-.68c-5.44,0-10.88,0-16.32,0-2.21,0-4.42,0-6.63,0-.25,0-.66.1-.71.25a5.57,5.57,0,0,1-4.14,3.65Zm-4.15-6.5a4.11,4.11,0,0,1,.15-.42,5.2,5.2,0,0,1,4.87-3.45,5.1,5.1,0,0,1,4.84,3.37c.21.57.53.54,1,.54H136c.25,0,.5,0,.73,0,.88-2.42,2.51-3.86,5.08-3.85s4.19,1.46,5,3.84H154c0-.16,0-.27,0-.38q0-7.77,0-15.55a1.73,1.73,0,0,0-.32-.92c-2.65-3.88-5.33-7.74-8-11.63a1.14,1.14,0,0,0-1.11-.56c-3.62,0-7.25,0-10.87,0-.25,0-.49,0-.84.05v21.25H94.78v7.74Zm12.86-44a15,15,0,1,0-14.52,15A15,15,0,0,0,115.14,362.48Zm29.21,45.34a2.62,2.62,0,0,0-2.57-2.62,2.65,2.65,0,0,0-2.66,2.63,2.7,2.7,0,0,0,2.63,2.6A2.65,2.65,0,0,0,144.35,407.82Zm-39.65,0a2.66,2.66,0,0,0,2.61,2.6,2.71,2.71,0,0,0,2.63-2.61,2.67,2.67,0,0,0-2.68-2.62A2.63,2.63,0,0,0,104.7,407.83Z"/><path class="cls-3" d="M101.42,361.26h6.37v2.48H99V350.62h2.47Z"/><path class="cls-3" d="M161.78,579.64h-5c-.15.91-.23,1.73-.42,2.52a10.65,10.65,0,0,1-10,7.93q-6,.09-12,0a10.56,10.56,0,0,1-10.35-10.45c0-3.47,0-6.94,0-10.41,0-6,3.89-10.52,9.91-10.91a99.57,99.57,0,0,1,13.38.07,10.18,10.18,0,0,1,9.29,10.31,7.6,7.6,0,0,0,1.21,4.34C159.2,575.13,160.41,577.32,161.78,579.64Zm-12.93,0c.24-.45.39-.75.56-1,1.18-2,2.32-4.06,3.58-6a6,6,0,0,0,.95-3.58,7.89,7.89,0,0,0-7.92-8c-3.78-.07-7.56-.08-11.34,0a7.72,7.72,0,0,0-7.82,7.67c-.11,3.67-.11,7.35,0,11a7.82,7.82,0,0,0,7.91,7.72c3.75.05,7.49,0,11.24,0a7.77,7.77,0,0,0,5.41-2.17,7.47,7.47,0,0,0,2.45-5.57Z"/><path class="cls-3" d="M95.7,546a55.16,55.16,0,0,1-7.5-.06,10.23,10.23,0,0,1-8.71-10.19c0-4.12,0-8.24,0-12.36a1.53,1.53,0,0,0-.42-.95,5.47,5.47,0,0,1-.25-7.55,5.71,5.71,0,0,1,7.65-.79,1.74,1.74,0,0,0,1.77.38,3.51,3.51,0,0,1,1.12-.13c4.43,0,8.87-.18,13.28.11a10.33,10.33,0,0,1,9.42,10.32q0,5.46,0,10.92a10.59,10.59,0,0,1-10.32,10.47c-2,0-4.06,0-6.08,0ZM82.23,524.2v1.19c0,3.27,0,6.53,0,9.79a7.94,7.94,0,0,0,8.28,8.32q5.25,0,10.5,0a7.9,7.9,0,0,0,8.29-8.29c0-3.29,0-6.59,0-9.89,0-5-3.32-8.23-8.29-8.25-3.5,0-7,0-10.51,0-.57,0-1.15.06-1.71.1C88.74,522,87.43,523.41,82.23,524.2Zm.88-8.51a2.93,2.93,0,0,0-2.92,2.86,3,3,0,0,0,5.9-.06A2.93,2.93,0,0,0,83.11,515.69Z"/><path class="cls-3" d="M79.59,574a52.7,52.7,0,0,1,0-7,10,10,0,0,1,9.18-8.64,111,111,0,0,1,13.89,0,10.29,10.29,0,0,1,9.39,10.45q0,5.37,0,10.72a10.62,10.62,0,0,1-10.48,10.54c-3.88,0-7.77,0-11.65,0a10.55,10.55,0,0,1-10.49-10.4c0-1.89,0-3.78,0-5.67ZM95.75,561c-1.86,0-3.71,0-5.56,0a7.87,7.87,0,0,0-8,8.1q0,5,0,10.1a7.94,7.94,0,0,0,8.16,8.23c3.57,0,7.15,0,10.72,0a7.9,7.9,0,0,0,8.19-8.18q0-5.06,0-10.1a7.84,7.84,0,0,0-8.19-8.16Z"/><path class="cls-3" d="M140.29,546a56.81,56.81,0,0,1-7.5,0,10.31,10.31,0,0,1-8.73-10.31c0-3.44,0-6.87,0-10.31,0-6.06,3.95-10.57,10-10.93a109,109,0,0,1,13.28.07,10.27,10.27,0,0,1,9.31,10.1q.08,5.67,0,11.34a10.53,10.53,0,0,1-10.19,10.27c-2.06,0-4.12,0-6.18,0Zm.14-28.94c-1.82,0-3.64,0-5.46,0a7.85,7.85,0,0,0-8.14,8.11q-.06,5.1,0,10.2A7.92,7.92,0,0,0,135,543.5c3.57,0,7.14,0,10.72,0a7.94,7.94,0,0,0,8.2-8.19q0-5.05,0-10.1a7.88,7.88,0,0,0-8.13-8.14C144,517.05,142.22,517.07,140.43,517.07Z"/><path class="cls-3" d="M135.24,580.43l.67-2.67a21.7,21.7,0,0,0,2.7.67,6.39,6.39,0,0,0,2.43-.14,1.34,1.34,0,0,0,.36-2.48,13,13,0,0,0-1.83-.91,17.45,17.45,0,0,1-2.22-1.07,3.85,3.85,0,0,1,.27-6.81c2.36-1.29,4.81-1,7.33-.13l-.74,2.56a27.13,27.13,0,0,0-2.7-.52,3.51,3.51,0,0,0-1.7.23,1.56,1.56,0,0,0-.85,1,1.63,1.63,0,0,0,.59,1.18,8.19,8.19,0,0,0,1.65.82c.75.34,1.53.62,2.24,1a3.83,3.83,0,0,1,2.08,3.84,3.9,3.9,0,0,1-2.38,3.46C140.55,581.7,138,581.41,135.24,580.43Z"/><path class="cls-3" d="M93.46,534c-.3,1-.62,2-.86,3-.13.51-.33.76-.9.73-.88,0-1.77,0-2.77,0,.09-.38.15-.67.23-.95q2-6.42,4-12.86c.19-.61.44-.9,1.13-.85,1.16.07,2.63-.37,3.41.18s.88,2.06,1.23,3.16q1.68,5.24,3.33,10.49c.07.22.12.45.21.82-1.13,0-2.18,0-3.22,0-.2,0-.46-.36-.55-.6-.3-.83-.51-1.71-.83-2.54a1,1,0,0,0-.68-.54C96,534,94.73,534,93.46,534Zm3.74-2.53-1.67-5.75L94,531.51Z"/><path class="cls-3" d="M94.17,576.22V581H90.82V566.6c2.75-.26,5.5-.73,8.18.34a4,4,0,0,1,2.54,3.9c0,1.84-.65,3.48-2.43,4.18A36.87,36.87,0,0,1,94.17,576.22Zm0-3.06c1.55.39,3,0,3.58-.91a2.1,2.1,0,0,0,0-2.5c-.94-1.23-2.28-.93-3.6-.83Z"/><path class="cls-3" d="M138.72,537.73h-3.27v-14.4a20.07,20.07,0,0,1,7.41.07,4.16,4.16,0,0,1,3.26,3.79c.16,2.16-.73,4-2.63,4.68a33.81,33.81,0,0,1-4.77,1v4.84Zm0-7.88c1.63.51,3.24,0,3.79-1.09a2.16,2.16,0,0,0-.44-2.63c-.58-.49-2.69-.81-3.15-.46a.64.64,0,0,0-.19.44C138.72,527.36,138.73,528.62,138.73,529.85Z"/><path class="cls-3" d="M159.89,721.07c-.81,3.12-1.46,6.1-2.35,9a51.11,51.11,0,0,1-9.3,18c-4.06,4.89-9,8.38-15.35,9.67a29.46,29.46,0,0,1-14.2-.82,2.5,2.5,0,0,0-2,.17,21.65,21.65,0,0,1-14.4,2,24.09,24.09,0,0,1-11.65-6.6,48.3,48.3,0,0,1-11.26-17.34,2.54,2.54,0,0,1-.06-.33,52.42,52.42,0,0,1,13-1.45c-.5-1-1-1.8-1.42-2.67a29.88,29.88,0,0,1,20.3-42.46,1.65,1.65,0,0,0,1.44-1.26,5.38,5.38,0,0,1,10.14.17,1.31,1.31,0,0,0,1.12,1,30,30,0,0,1,23.69,29.2c0,1.52-.14,3-.22,4.6A65.08,65.08,0,0,1,159.89,721.07Zm-37.81,33.81a3.62,3.62,0,0,0,.43.17c8.49,1.57,15.83-.58,21.9-6.8a42.35,42.35,0,0,0,8.46-13.35,64.5,64.5,0,0,0,3.55-11.08c-.35,0-.65,0-.94,0-1.49.13-3,.21-4.47.4a51.77,51.77,0,0,0-17.66,5.15c-9.36,4.89-14.08,12.56-13.72,23.21a2.71,2.71,0,0,0,.12.56A89.56,89.56,0,0,0,137,739.54l-3.39-3.06,11.86-3.9-2.56,12.22L139,741.35A91.33,91.33,0,0,1,122.08,754.88ZM119,716h25.78c-.09-1-.14-1.92-.27-2.83-1.48-10.7-10.39-20.11-21.07-22.31a.74.74,0,0,0-1,.47,4.74,4.74,0,0,1-2.77,2.55c-.59.21-.72.52-.72,1.11q0,10.06,0,20.13Zm-2.75,0c0-.2,0-.34,0-.49,0-6.92,0-13.84,0-20.75a.75.75,0,0,0-.59-.84,4.84,4.84,0,0,1-2.85-2.58.76.76,0,0,0-1.05-.47Q95,695.21,91,712.11a35.48,35.48,0,0,0-.49,3.85Zm-25.67,2.86c0,.4,0,.7,0,1a27.66,27.66,0,0,0,4.24,12.36,2.86,2.86,0,0,0,2.63,1.6,11.27,11.27,0,0,1,2.21.34c6.57,1.34,12.21,4.16,15.94,10,.11.18.35.29.62.51V718.82Zm-7.52,17.89a6.18,6.18,0,0,0,.25.64,45.28,45.28,0,0,0,9.58,13.47c3.54,3.3,7.58,5.64,12.55,6a19.9,19.9,0,0,0,9.84-2l-11.22-7.24-2.75,4.42-6-11,12.48.31-2.39,3.93,10.27,6.53a1.22,1.22,0,0,0,0-.27,18.1,18.1,0,0,0-11.44-13.22,35.9,35.9,0,0,0-15.44-2.09C87,736.29,85.06,736.52,83.09,736.71Zm36,3.49c3.06-6.65,8.09-10.9,14.3-13.9a50.61,50.61,0,0,1,10.23-3.56c.31-.08.77-.35.82-.6.2-1.07.28-2.17.41-3.32H119.07Zm-1.39-54.07a2.72,2.72,0,1,0,2.73,2.69A2.81,2.81,0,0,0,117.68,686.13Z"/><path class="cls-3" d="M125.79,847.91c1.25,1.17,2.49,2.35,3.76,3.49a1.68,1.68,0,0,0,.9.34c1.37.16,2.75.3,4.13.39a1.64,1.64,0,0,1,1.53,1.11c.52,1.24,1,2.49,1.6,3.7a2.58,2.58,0,0,0,.9,1c1.11.68,2.27,1.31,3.43,1.92a1.77,1.77,0,0,1,1.05,1.89c0,.27-.05.54-.06.8-.12,3.66-.18,3.71,2.12,6.57,1.06,1.33,1.45,2.51.44,4a6.88,6.88,0,0,0-.74,6.77c.12.31.12.67.24,1a1.76,1.76,0,0,1-.71,2.12c-1,.82-1.94,1.67-2.89,2.53a1.82,1.82,0,0,0-.59.78c-.33,1.45-.62,2.9-.86,4.36a1.77,1.77,0,0,0,.29.93l15.12,31.17c.12.24.21.48.39.91l-11.61-3.89L140,931.31c-5.36-11.18-10.61-22.15-15.9-33.2-1.06.62-2.08,1.2-3.06,1.82a1.7,1.7,0,0,1-2.07,0,10.42,10.42,0,0,1-1.12-.68,7,7,0,0,0-6.59-1.31,2.81,2.81,0,0,1-1.2.13,4.09,4.09,0,0,1-1.53-.73,3.84,3.84,0,0,1-.94-1.3c-1.15-2.4-3.17-3.43-5.8-3.69L88.94,918.8l7.85-2.61,2.88,7.8c2.1-4.31,4.09-8.39,6.13-12.59l-4.46-2.2,10.82-7.39,1,13.07-4.76-2.26c-3,6.15-6,12.28-9.09,18.66l-4.23-11.51-11.66,3.9c1-2.14,2-4.1,2.92-6q6.56-13.49,13.09-27a4.43,4.43,0,0,0,.1-1.83c0-2.08-1.1-3.49-2.68-4.78-2.59-2.08-2.48-1.51-1.57-4.8a7.15,7.15,0,0,0-.56-5.47c-1.56-3.07-1.69-2.34.54-5.09a7.07,7.07,0,0,0,1.67-5.16c-.19-3.51-.39-2.8,2.55-4.49l2.2-1.24c-2.11-2.75-2.32-5.59-.35-7.76a15.27,15.27,0,0,1,3.22-2.1h2.23a6.36,6.36,0,0,1,4,3.13l3.48-3.13h1l4.42,1.59a.78.78,0,0,0,.5,0l4.39-1.61ZM140.2,865a10.92,10.92,0,0,1,0-1.3,1.88,1.88,0,0,0-1.39-2.39c-2.62-.86-3.93-2.88-4.64-5.38a1.45,1.45,0,0,0-1.69-1.18,7.17,7.17,0,0,1-6.54-2.79c-.14-.18-.37-.3-.51-.49-.4-.52-.84-.5-1.42-.28a21,21,0,0,1-3,1,4.89,4.89,0,0,1-2.12,0c-1.08-.24-2.1-.73-3.17-1a1.44,1.44,0,0,0-1.12.24c-1,.86-2,1.8-3,2.72a1.63,1.63,0,0,0-.41.66c-1,3.12-2.89,4.53-6.11,4.46a1.5,1.5,0,0,0-.77.07c-1.36.79-2.69,1.66-4.06,2.44a1,1,0,0,0-.6,1.1,8.41,8.41,0,0,1-2.52,7.86,1,1,0,0,0-.15,1.36,8.27,8.27,0,0,1,.86,8.12,1,1,0,0,0,.44,1.38,8.07,8.07,0,0,1,4,7,1.14,1.14,0,0,0,1.09,1.2,7.93,7.93,0,0,1,6.39,4.59,1.17,1.17,0,0,0,1.54.72,8,8,0,0,1,7.79,1.68,1.08,1.08,0,0,0,1.54,0c2.22-1.76,4.66-2.6,7.49-1.71.06,0,.14,0,.2,0a1.25,1.25,0,0,0,1.69-.79,7.74,7.74,0,0,1,6.14-4.47,1.36,1.36,0,0,0,1.32-1.45,7.45,7.45,0,0,1,3.64-6.44,1.57,1.57,0,0,0,.71-2.2,7,7,0,0,1,.68-7c.7-1,.42-1.75-.31-2.64C141,868.57,139.47,867.09,140.2,865Zm2.3,51.16,7.86,2.61-12.79-26.33c-3.18.72-3.18.72-4.95,3.23-.35.5-.73,1-1,1.5a1.78,1.78,0,0,1-2,.9c-.77-.11-1.55-.17-2.5-.27L139.64,924Zm-36.81-65.45a2.91,2.91,0,0,0-2.9,2.88,2.88,2.88,0,0,0,2.82,2.85,2.87,2.87,0,1,0,.08-5.73Z"/><path class="cls-3" d="M120,891.45a17.37,17.37,0,1,1,17.35-17.13A17.38,17.38,0,0,1,120,891.45Zm0-31.84a14.51,14.51,0,1,0,14.52,14.51A14.45,14.45,0,0,0,120,859.61Z"/><path class="cls-3" d="M111.3,873.42l5.2,5.26,12.37-12.38,1.87,2.2-13.93,14.13-7.38-7.39Z"/></svg>