<svg id="Layer_1" data-name="Layer 1" xmlns="http://www.w3.org/2000/svg" viewBox="0 0 1227.85 303.85"><defs><style>.cls-1{fill:#bee3ff}.cls-2{fill:none;stroke:#92d1ff;stroke-miterlimit:10;stroke-width:2px}.cls-3{fill:#061838}</style></defs><path class="cls-1" d="M0-1v308h407.97V-.93L0-1z"/><path class="cls-2" d="M19.1 169.99l369.77-.06"/><path class="cls-3" d="M172.79 87h-8.6v6.7h9.61v3.41H160v-22.8h13.3v3.42h-9.11v5.89h8.6zM186.57 97.12l-.27-1.82h-.11a6.13 6.13 0 0 1-4.87 2.2 4.9 4.9 0 0 1-5.18-4.91c0-4.16 3.69-6.26 9.78-6.23v-.27c0-1.08-.44-2.88-3.35-2.88a8.75 8.75 0 0 0-4.43 1.22l-.81-2.7a11.8 11.8 0 0 1 5.95-1.46c5.28 0 6.81 3.35 6.81 6.94v6a26.38 26.38 0 0 0 .23 4zm-.57-8.05c-2.95-.07-5.76.58-5.76 3.08a2.19 2.19 0 0 0 2.37 2.37 3.36 3.36 0 0 0 3.25-2.27 3 3 0 0 0 .14-.91zM194.29 93.3a9.2 9.2 0 0 0 4.23 1.18c1.83 0 2.64-.74 2.64-1.82s-.68-1.69-2.71-2.41c-3.22-1.11-4.57-2.87-4.53-4.8 0-2.91 2.4-5.18 6.22-5.18a9.67 9.67 0 0 1 4.37 1l-.81 3a7.35 7.35 0 0 0-3.49-1c-1.49 0-2.3.71-2.3 1.72s.78 1.56 2.88 2.31c3 1.08 4.36 2.6 4.39 5 0 3-2.33 5.14-6.7 5.14a10.55 10.55 0 0 1-5-1.15zM211.55 90.05c.1 3 2.44 4.27 5.08 4.27a12.49 12.49 0 0 0 4.57-.75l.61 2.88a15.71 15.71 0 0 1-5.76 1c-5.35 0-8.49-3.28-8.49-8.32 0-4.57 2.77-8.87 8.05-8.87s7.11 4.4 7.11 8a9.88 9.88 0 0 1-.14 1.76zm7.24-2.91c0-1.52-.64-4-3.41-4-2.58 0-3.66 2.34-3.83 4zM248.75 88.73c0 6.06-4.26 8.77-8.46 8.77-4.67 0-8.26-3.22-8.26-8.5s3.55-8.73 8.53-8.73 8.19 3.45 8.19 8.46zm-12.42.17c0 3.18 1.56 5.58 4.09 5.58 2.37 0 4-2.33 4-5.65 0-2.57-1.15-5.51-4-5.51s-4.09 2.84-4.09 5.58zM252.65 97.12V83.76h-2.24v-3.12h2.24v-.71a7.72 7.72 0 0 1 2-5.62 6.31 6.31 0 0 1 4.3-1.59 7.92 7.92 0 0 1 2.67.41l-.3 3.21a5.08 5.08 0 0 0-1.76-.3c-2.06 0-2.78 1.73-2.78 3.76v.84h3.63v3.12h-3.59v13.36zM284.73 92.18c0 2 .07 3.59.14 4.94h-3.66l-.2-2.5h-.07a6 6 0 0 1-5.28 2.88c-3 0-5.75-1.8-5.75-7.18v-9.68h4.16v9c0 2.74.88 4.5 3.08 4.5a3.5 3.5 0 0 0 3.18-2.23 3.66 3.66 0 0 0 .24-1.29v-10h4.16zM289 93.3a9.27 9.27 0 0 0 4.24 1.18c1.82 0 2.63-.74 2.63-1.82s-.67-1.69-2.7-2.41c-3.22-1.11-4.57-2.87-4.54-4.8 0-2.91 2.4-5.18 6.23-5.18a9.67 9.67 0 0 1 4.37 1l-.82 3a7.34 7.34 0 0 0-3.48-1c-1.49 0-2.3.71-2.3 1.72s.77 1.56 2.87 2.31c3 1.08 4.37 2.6 4.4 5 0 3-2.33 5.14-6.7 5.14a10.6 10.6 0 0 1-5-1.15zM306.3 90.05c.1 3 2.43 4.27 5.07 4.27a12.45 12.45 0 0 0 4.57-.75l.61 2.88a15.61 15.61 0 0 1-5.75 1c-5.35 0-8.5-3.28-8.5-8.32 0-4.57 2.78-8.87 8.06-8.87s7.11 4.4 7.11 8a9.88 9.88 0 0 1-.14 1.76zm7.24-2.91c0-1.52-.64-4-3.42-4-2.57 0-3.65 2.34-3.82 4zM50.62 212.82H44V219h7.42v1.85h-9.67v-17.12H51v1.85h-7V211h6.66zM61 220.84l-.17-1.55h-.08a4.58 4.58 0 0 1-3.75 1.83 3.5 3.5 0 0 1-3.76-3.53c0-3 2.65-4.6 7.39-4.57v-.25a2.54 2.54 0 0 0-2.79-2.85 6.11 6.11 0 0 0-3.2.92l-.51-1.48a7.65 7.65 0 0 1 4-1.09c3.76 0 4.67 2.57 4.67 5v4.6a16.51 16.51 0 0 0 .21 2.94zm-.33-6.27c-2.43 0-5.2.38-5.2 2.77a2 2 0 0 0 2.11 2.13 3.06 3.06 0 0 0 3-2.06 2.52 2.52 0 0 0 .12-.71zM66.1 218.56a5.88 5.88 0 0 0 3 .88c1.62 0 2.38-.81 2.38-1.82s-.63-1.65-2.28-2.26c-2.21-.79-3.25-2-3.25-3.48 0-2 1.6-3.61 4.24-3.61a6.19 6.19 0 0 1 3 .76l-.56 1.63a4.72 4.72 0 0 0-2.51-.71c-1.32 0-2.06.76-2.06 1.67s.74 1.48 2.34 2.09c2.13.81 3.22 1.87 3.22 3.7 0 2.16-1.67 3.68-4.59 3.68a7.13 7.13 0 0 1-3.46-.83zM77.7 215.1c.06 3 2 4.27 4.22 4.27a8 8 0 0 0 3.4-.64l.38 1.6a9.85 9.85 0 0 1-4.09.76c-3.78 0-6-2.48-6-6.19s2.19-6.63 5.77-6.63c4 0 5.07 3.53 5.07 5.79a10 10 0 0 1-.07 1zm6.56-1.6c0-1.42-.59-3.63-3.1-3.63-2.26 0-3.25 2.08-3.43 3.63zM105.68 214.59c0 4.55-3.15 6.53-6.12 6.53-3.32 0-5.89-2.44-5.89-6.32 0-4.12 2.69-6.53 6.1-6.53s5.91 2.57 5.91 6.32zm-9.75.13c0 2.69 1.55 4.72 3.74 4.72s3.73-2 3.73-4.77c0-2.08-1-4.72-3.68-4.72s-3.79 2.44-3.79 4.77zM108.73 220.84v-10.59H107v-1.7h1.73V208a5.79 5.79 0 0 1 1.42-4.29 4.26 4.26 0 0 1 3-1.15 5.12 5.12 0 0 1 1.9.36l-.3 1.73a3.25 3.25 0 0 0-1.43-.28c-1.9 0-2.38 1.67-2.38 3.55v.66h3v1.7h-3v10.59zM131.58 217.49c0 1.27 0 2.39.1 3.35h-2l-.13-2a4.62 4.62 0 0 1-4.06 2.29c-1.93 0-4.24-1.07-4.24-5.38v-7.19h2.23v6.81c0 2.33.71 3.91 2.75 3.91a3.23 3.23 0 0 0 2.94-2 3.17 3.17 0 0 0 .2-1.14v-7.54h2.24zM135 218.56a5.88 5.88 0 0 0 3 .88c1.62 0 2.38-.81 2.38-1.82s-.63-1.65-2.28-2.26c-2.21-.79-3.25-2-3.25-3.48 0-2 1.6-3.61 4.24-3.61a6.22 6.22 0 0 1 3 .76l-.56 1.63A4.72 4.72 0 0 0 139 210c-1.32 0-2.06.76-2.06 1.67s.74 1.48 2.34 2.09c2.13.81 3.22 1.87 3.22 3.7 0 2.16-1.68 3.68-4.6 3.68a7.09 7.09 0 0 1-3.45-.83zM151.61 208.55l1.62 6.25c.36 1.37.69 2.64.92 3.91h.07c.28-1.25.69-2.57 1.1-3.89l2-6.27h1.88l1.9 6.15c.46 1.47.82 2.76 1.1 4h.07a40.22 40.22 0 0 1 .94-4l1.75-6.17h2.21l-4 12.29h-2L159.3 215c-.43-1.38-.78-2.59-1.09-4h-.05a38 38 0 0 1-1.16 4l-2 5.84h-2l-3.71-12.29zM171.89 205.1a1.38 1.38 0 0 1-2.76 0 1.36 1.36 0 0 1 1.39-1.4 1.33 1.33 0 0 1 1.37 1.4zm-2.48 15.74v-12.29h2.23v12.29zM178 205v3.53h3.2v1.7H178v6.63c0 1.52.43 2.39 1.67 2.39a4.76 4.76 0 0 0 1.3-.16l.1 1.68a5.44 5.44 0 0 1-2 .3 3.09 3.09 0 0 1-2.41-.94 4.51 4.51 0 0 1-.87-3.19v-6.71H174v-1.7h1.9v-2.94zM183.75 202.81H186v7.67a4.23 4.23 0 0 1 1.6-1.57 4.62 4.62 0 0 1 2.29-.64c1.65 0 4.29 1 4.29 5.26v7.31H192v-7.06c0-2-.74-3.65-2.85-3.65a3.19 3.19 0 0 0-3 2.23 2.62 2.62 0 0 0-.16 1.07v7.41h-2.23zM203.3 203.73h2.21V219h7.31v1.85h-9.52zM217.69 205.1a1.38 1.38 0 0 1-2.76 0 1.36 1.36 0 0 1 1.39-1.4 1.33 1.33 0 0 1 1.37 1.4zm-2.48 15.74v-12.29h2.23v12.29zM231.73 208.55c0 .89-.1 1.88-.1 3.38v7.13c0 2.82-.56 4.55-1.75 5.61a6.5 6.5 0 0 1-4.47 1.48 8 8 0 0 1-4.09-1l.56-1.7a6.9 6.9 0 0 0 3.61 1c2.28 0 4-1.2 4-4.3v-1.37a4.38 4.38 0 0 1-3.91 2.06c-3.05 0-5.23-2.59-5.23-6 0-4.17 2.71-6.53 5.53-6.53a4.11 4.11 0 0 1 3.84 2.13h.05l.1-1.85zm-2.31 4.85a3.18 3.18 0 0 0-.12-1 3.23 3.23 0 0 0-3.13-2.37c-2.13 0-3.65 1.81-3.65 4.65 0 2.41 1.22 4.42 3.63 4.42a3.27 3.27 0 0 0 3.1-2.29 4.08 4.08 0 0 0 .17-1.19zM235.34 202.81h2.23v7.67h.05a4.23 4.23 0 0 1 1.6-1.57 4.62 4.62 0 0 1 2.29-.64c1.65 0 4.29 1 4.29 5.26v7.31h-2.24v-7.06c0-2-.73-3.65-2.84-3.65a3.21 3.21 0 0 0-3 2.23 2.82 2.82 0 0 0-.15 1.07v7.41h-2.23zM252 205v3.53h3.2v1.7H252v6.63c0 1.52.43 2.39 1.67 2.39a4.76 4.76 0 0 0 1.3-.16l.1 1.68a5.44 5.44 0 0 1-2 .3 3.09 3.09 0 0 1-2.41-.94 4.51 4.51 0 0 1-.87-3.19v-6.71h-1.9v-1.7h1.9v-2.94zM260.22 205.1a1.39 1.39 0 0 1-2.77 0 1.36 1.36 0 0 1 1.4-1.4 1.33 1.33 0 0 1 1.37 1.4zm-2.49 15.74v-12.29H260v12.29zM263.67 211.88c0-1.27 0-2.31-.1-3.33h2l.13 2h.05a4.51 4.51 0 0 1 4.06-2.31c1.7 0 4.34 1 4.34 5.23v7.34h-2.25v-7.08c0-2-.74-3.63-2.85-3.63a3.17 3.17 0 0 0-3 2.28 3.25 3.25 0 0 0-.16 1v7.39h-2.23zM288.35 208.55c-.05.89-.1 1.88-.1 3.38v7.13c0 2.82-.56 4.55-1.75 5.61a6.52 6.52 0 0 1-4.47 1.48 7.92 7.92 0 0 1-4.09-1l.56-1.7a6.89 6.89 0 0 0 3.6 1c2.29 0 4-1.2 4-4.3v-1.37h-.1a4.36 4.36 0 0 1-3.91 2.06c-3 0-5.23-2.59-5.23-6 0-4.17 2.72-6.53 5.54-6.53a4.09 4.09 0 0 1 3.83 2.13h.05l.1-1.85zM286 213.4a3.17 3.17 0 0 0-.13-1 3.22 3.22 0 0 0-3.12-2.37c-2.13 0-3.66 1.81-3.66 4.65 0 2.41 1.22 4.42 3.63 4.42a3.26 3.26 0 0 0 3.1-2.29 3.78 3.78 0 0 0 .18-1.19zM50.44 245.77a8.18 8.18 0 0 1-3.53.71c-3.71 0-6.12-2.51-6.12-6.27a6.24 6.24 0 0 1 6.6-6.52 7.57 7.57 0 0 1 3.1.63l-.49 1.73a5.1 5.1 0 0 0-2.59-.59c-2.82 0-4.34 2.09-4.34 4.65 0 2.84 1.83 4.6 4.26 4.6a6.39 6.39 0 0 0 2.75-.61zM64 240c0 4.55-3.15 6.53-6.12 6.53-3.32 0-5.89-2.44-5.89-6.32 0-4.12 2.69-6.53 6.09-6.53S64 236.23 64 240zm-9.75.13c0 2.69 1.55 4.72 3.73 4.72s3.74-2 3.74-4.77c0-2.08-1.05-4.72-3.69-4.72s-3.76 2.41-3.76 4.75zM66.84 237.27c0-1.27 0-2.31-.1-3.33h2l.1 2h.08a4.24 4.24 0 0 1 3.86-2.26 3.65 3.65 0 0 1 3.48 2.46h.05a5.08 5.08 0 0 1 1.37-1.6 4.25 4.25 0 0 1 2.72-.86c1.62 0 4 1.07 4 5.33v7.24h-2.2v-7c0-2.36-.86-3.78-2.67-3.78a2.89 2.89 0 0 0-2.64 2 3.72 3.72 0 0 0-.17 1.12v7.59h-2.19v-7.36c0-2-.86-3.38-2.56-3.38a3.06 3.06 0 0 0-2.77 2.23 3 3 0 0 0-.18 1.09v7.42h-2.18zM88 238c0-1.57-.05-2.84-.1-4h2l.1 2.11a4.83 4.83 0 0 1 4.37-2.39c3 0 5.2 2.51 5.2 6.25 0 4.41-2.69 6.6-5.58 6.6a4.32 4.32 0 0 1-3.79-1.93v6.68H88zm2.21 3.28a5.07 5.07 0 0 0 .1.91 3.45 3.45 0 0 0 3.35 2.62c2.37 0 3.74-1.93 3.74-4.75 0-2.46-1.3-4.57-3.66-4.57a3.58 3.58 0 0 0-3.38 2.77 3.76 3.76 0 0 0-.15.91zM113.58 240c0 4.55-3.15 6.53-6.12 6.53-3.33 0-5.89-2.44-5.89-6.32 0-4.12 2.69-6.53 6.09-6.53s5.92 2.55 5.92 6.32zm-9.75.13c0 2.69 1.55 4.72 3.73 4.72s3.73-2 3.73-4.77c0-2.08-1-4.72-3.68-4.72s-3.78 2.41-3.78 4.75zM116.4 237.27c0-1.27 0-2.31-.11-3.33h2l.13 2a4.52 4.52 0 0 1 4.07-2.31c1.7 0 4.34 1 4.34 5.23v7.34h-2.24v-7.08c0-2-.73-3.64-2.84-3.64a3.19 3.19 0 0 0-3 2.29 3.26 3.26 0 0 0-.15 1v7.39h-2.2zM131.73 240.49c.05 3 2 4.27 4.22 4.27a8 8 0 0 0 3.4-.64l.38 1.6a9.89 9.89 0 0 1-4.09.76c-3.78 0-6-2.49-6-6.19s2.18-6.63 5.76-6.63c4 0 5.08 3.53 5.08 5.79a7.43 7.43 0 0 1-.08 1zm6.55-1.6c0-1.42-.58-3.63-3.1-3.63-2.26 0-3.25 2.08-3.42 3.63zM143.21 237.27c0-1.27 0-2.31-.11-3.33h2l.12 2a4.52 4.52 0 0 1 4.07-2.31c1.7 0 4.34 1 4.34 5.23v7.34h-2.24v-7.08c0-2-.73-3.64-2.84-3.64a3.19 3.19 0 0 0-3 2.29 3.26 3.26 0 0 0-.15 1v7.39h-2.23zM159.89 230.41v3.53h3.2v1.7h-3.2v6.63c0 1.52.43 2.38 1.67 2.38a4.84 4.84 0 0 0 1.3-.15l.1 1.68a5.44 5.44 0 0 1-2 .3 3.09 3.09 0 0 1-2.41-.94 4.52 4.52 0 0 1-.87-3.2v-6.7h-1.9v-1.7h1.9V231zM169 228.84a28.9 28.9 0 0 1-2.39 6l-1.42.18a35.92 35.92 0 0 0 1.5-6zM169.25 243.94a5.78 5.78 0 0 0 2.95.89c1.62 0 2.39-.81 2.39-1.83s-.64-1.65-2.29-2.26c-2.21-.78-3.25-2-3.25-3.47 0-2 1.6-3.61 4.24-3.61a6.16 6.16 0 0 1 3 .76l-.56 1.63a4.72 4.72 0 0 0-2.51-.71c-1.32 0-2.06.76-2.06 1.67s.74 1.47 2.34 2.08c2.13.82 3.22 1.88 3.22 3.71 0 2.16-1.67 3.68-4.59 3.68a7.06 7.06 0 0 1-3.45-.83zM185 237.27c0-1.27 0-2.31-.1-3.33h2l.1 2a4.22 4.22 0 0 1 3.86-2.26 3.63 3.63 0 0 1 3.47 2.46 5.23 5.23 0 0 1 1.38-1.6 4.21 4.21 0 0 1 2.71-.86c1.63 0 4 1.07 4 5.33v7.24h-2.18v-7c0-2.36-.87-3.78-2.67-3.78a2.89 2.89 0 0 0-2.64 2 3.7 3.7 0 0 0-.18 1.12v7.59h-2.18v-7.36c0-2-.87-3.38-2.57-3.38a3 3 0 0 0-2.76 2.23 3 3 0 0 0-.18 1.09v7.42H185zM217.29 240c0 4.55-3.15 6.53-6.12 6.53-3.33 0-5.89-2.44-5.89-6.32 0-4.12 2.69-6.53 6.09-6.53s5.92 2.55 5.92 6.32zm-9.75.13c0 2.69 1.55 4.72 3.73 4.72s3.73-2 3.73-4.77c0-2.08-1-4.72-3.68-4.72s-3.78 2.41-3.78 4.75zM230.72 228.2v14.86c0 1.09 0 2.33.1 3.17h-2l-.11-2.13h-.05a4.54 4.54 0 0 1-4.19 2.41c-3 0-5.25-2.52-5.25-6.25 0-4.09 2.51-6.6 5.51-6.6a4.09 4.09 0 0 1 3.7 1.88h.06v-7.34zm-2.23 10.74a3.77 3.77 0 0 0-.11-.94 3.28 3.28 0 0 0-3.22-2.59c-2.31 0-3.68 2-3.68 4.75 0 2.49 1.22 4.55 3.63 4.55a3.35 3.35 0 0 0 3.27-2.67 3.74 3.74 0 0 0 .11-1zM244.71 242.88c0 1.27 0 2.38.1 3.35h-2l-.13-2a4.62 4.62 0 0 1-4.06 2.29c-1.93 0-4.24-1.07-4.24-5.38v-7.19h2.23v6.8c0 2.34.72 3.91 2.75 3.91a3.22 3.22 0 0 0 2.94-2 3.17 3.17 0 0 0 .21-1.14v-7.54h2.23zM248.42 228.2h2.23v18h-2.23zM261.21 246.23l-.18-1.55H261a4.58 4.58 0 0 1-3.76 1.83 3.5 3.5 0 0 1-3.76-3.53c0-3 2.64-4.6 7.39-4.57v-.26a2.53 2.53 0 0 0-2.79-2.84 6.09 6.09 0 0 0-3.2.92l-.51-1.48a7.65 7.65 0 0 1 4-1.09c3.76 0 4.67 2.57 4.67 5v4.59a17.62 17.62 0 0 0 .2 2.95zm-.33-6.27c-2.44-.05-5.2.38-5.2 2.77a2 2 0 0 0 2.1 2.13 3.05 3.05 0 0 0 3-2.06 2.22 2.22 0 0 0 .13-.71zM266.64 237.77c0-1.44 0-2.69-.1-3.83h2l.07 2.41h.11a3.67 3.67 0 0 1 3.4-2.69 2.41 2.41 0 0 1 .63.08v2.1a3.39 3.39 0 0 0-.76-.07 3.14 3.14 0 0 0-3 2.87 6.33 6.33 0 0 0-.1 1v6.55h-2.21zM290.94 228.2v14.86c0 1.09 0 2.33.1 3.17h-2l-.11-2.13h-.05a4.54 4.54 0 0 1-4.19 2.41c-3 0-5.25-2.52-5.25-6.25 0-4.09 2.51-6.6 5.51-6.6a4.12 4.12 0 0 1 3.71 1.88v-7.34zm-2.23 10.74a3.77 3.77 0 0 0-.11-.94 3.28 3.28 0 0 0-3.22-2.59c-2.31 0-3.68 2-3.68 4.75 0 2.49 1.22 4.55 3.63 4.55a3.35 3.35 0 0 0 3.27-2.71 3.74 3.74 0 0 0 .11-1zM294.65 237.77c0-1.44 0-2.69-.1-3.83h1.95l.08 2.41h.1a3.68 3.68 0 0 1 3.4-2.69 2.55 2.55 0 0 1 .64.08v2.1a3.49 3.49 0 0 0-.77-.07 3.13 3.13 0 0 0-3 2.87 6.33 6.33 0 0 0-.1 1v6.55h-2.21zM309.63 246.23l-.18-1.55h-.08a4.54 4.54 0 0 1-3.75 1.83 3.5 3.5 0 0 1-3.76-3.53c0-3 2.64-4.6 7.39-4.57v-.26a2.54 2.54 0 0 0-2.8-2.84 6.14 6.14 0 0 0-3.2.92l-.5-1.48a7.58 7.58 0 0 1 4-1.09c3.76 0 4.68 2.57 4.68 5v4.59a17.62 17.62 0 0 0 .2 2.95zm-.33-6.23c-2.44-.05-5.21.38-5.21 2.77a2 2 0 0 0 2.11 2.13 3.06 3.06 0 0 0 3-2.06 2.22 2.22 0 0 0 .13-.71zM325.65 233.94c0 .89-.1 1.88-.1 3.38v7.13c0 2.82-.56 4.55-1.76 5.61a6.49 6.49 0 0 1-4.46 1.48 7.92 7.92 0 0 1-4.09-1l.56-1.7a6.89 6.89 0 0 0 3.6 1c2.29 0 4-1.19 4-4.29v-1.37h-.05a4.38 4.38 0 0 1-3.91 2.06c-3 0-5.23-2.59-5.23-6 0-4.17 2.72-6.53 5.54-6.53a4.09 4.09 0 0 1 3.83 2.13l.1-1.85zm-2.31 4.85a3.28 3.28 0 0 0-.13-1 3.23 3.23 0 0 0-3.12-2.36c-2.14 0-3.66 1.81-3.66 4.65 0 2.41 1.22 4.42 3.63 4.42a3.27 3.27 0 0 0 3.1-2.29 3.78 3.78 0 0 0 .18-1.19zM48.48 271.62l-.17-1.55h-.08a4.61 4.61 0 0 1-3.76 1.83 3.51 3.51 0 0 1-3.76-3.53c0-3 2.64-4.6 7.39-4.57v-.26a2.53 2.53 0 0 0-2.79-2.84 6.11 6.11 0 0 0-3.2.91l-.51-1.47a7.65 7.65 0 0 1 4-1.09c3.76 0 4.67 2.56 4.67 5v4.59a17.62 17.62 0 0 0 .2 2.95zm-.33-6.27c-2.43-.06-5.2.38-5.2 2.76a2 2 0 0 0 2.11 2.14 3.07 3.07 0 0 0 3-2.06 2.52 2.52 0 0 0 .12-.71zM53.92 262.65c0-1.27 0-2.31-.11-3.32h2l.13 2a4.51 4.51 0 0 1 4.06-2.28c1.71 0 4.35 1 4.35 5.23v7.34h-2.21v-7.09c0-2-.73-3.63-2.84-3.63a3.18 3.18 0 0 0-3 2.29 3.26 3.26 0 0 0-.15 1v7.39h-2.23zM78.62 253.59v14.85c0 1.1 0 2.34.1 3.18h-2l-.11-2.14a4.53 4.53 0 0 1-4.19 2.42c-3 0-5.25-2.52-5.25-6.25 0-4.09 2.51-6.6 5.51-6.6a4.09 4.09 0 0 1 3.7 1.88h.06v-7.34zm-2.23 10.74a3.77 3.77 0 0 0-.11-.94 3.29 3.29 0 0 0-3.22-2.59c-2.31 0-3.68 2-3.68 4.75 0 2.49 1.22 4.54 3.63 4.54a3.35 3.35 0 0 0 3.27-2.66 3.74 3.74 0 0 0 .11-1zM98.32 253.59v14.85c0 1.1 0 2.34.1 3.18h-2l-.11-2.14a4.53 4.53 0 0 1-4.19 2.42c-3 0-5.25-2.52-5.25-6.25 0-4.09 2.51-6.6 5.51-6.6a4.12 4.12 0 0 1 3.62 1.88v-7.34zm-2.23 10.74a3.77 3.77 0 0 0-.11-.94 3.28 3.28 0 0 0-3.22-2.59c-2.31 0-3.68 2-3.68 4.75 0 2.49 1.22 4.54 3.63 4.54a3.35 3.35 0 0 0 3.29-2.66 3.74 3.74 0 0 0 .11-1zM102 263.16c0-1.45 0-2.69-.1-3.83h1.95l.08 2.41h.1a3.68 3.68 0 0 1 3.4-2.69 2.16 2.16 0 0 1 .64.08v2.1a3.49 3.49 0 0 0-.77-.07 3.13 3.13 0 0 0-3 2.87 6.33 6.33 0 0 0-.1 1v6.55H102zM121.2 265.37c0 4.55-3.15 6.53-6.12 6.53-3.33 0-5.89-2.44-5.89-6.33 0-4.11 2.69-6.52 6.09-6.52s5.92 2.56 5.92 6.32zm-9.75.13c0 2.69 1.54 4.72 3.73 4.72s3.73-2 3.73-4.77c0-2.08-1-4.73-3.68-4.73s-3.78 2.44-3.78 4.78zM124 263.34c0-1.57-.05-2.84-.1-4h2l.1 2.11a4.83 4.83 0 0 1 4.37-2.39c3 0 5.2 2.51 5.2 6.24 0 4.42-2.69 6.61-5.58 6.61a4.32 4.32 0 0 1-3.79-1.93v6.67H124zm2.21 3.28a5.07 5.07 0 0 0 .1.91 3.45 3.45 0 0 0 3.36 2.61c2.36 0 3.73-1.93 3.73-4.74 0-2.47-1.3-4.57-3.66-4.57a3.58 3.58 0 0 0-3.38 2.76 3.93 3.93 0 0 0-.15.92zM154.45 253.59v14.85c0 1.1 0 2.34.11 3.18h-2l-.1-2.14a4.55 4.55 0 0 1-4.19 2.42c-3 0-5.26-2.52-5.26-6.25 0-4.09 2.52-6.6 5.51-6.6a4.12 4.12 0 0 1 3.71 1.88h.05v-7.34zm-2.23 10.74a4.29 4.29 0 0 0-.1-.94 3.29 3.29 0 0 0-3.23-2.59c-2.31 0-3.68 2-3.68 4.75 0 2.49 1.22 4.54 3.63 4.54a3.37 3.37 0 0 0 3.28-2.66 4.25 4.25 0 0 0 .1-1zM159.4 265.88a3.93 3.93 0 0 0 4.22 4.26 8 8 0 0 0 3.4-.63l.38 1.6a10.06 10.06 0 0 1-4.09.76c-3.78 0-6-2.49-6-6.19s2.18-6.63 5.76-6.63c4 0 5.08 3.53 5.08 5.79a10.18 10.18 0 0 1-.07 1zm6.55-1.6c0-1.42-.58-3.63-3.09-3.63-2.26 0-3.25 2.08-3.43 3.63zM170.57 269.33a5.88 5.88 0 0 0 3 .89c1.62 0 2.39-.81 2.39-1.83s-.64-1.65-2.29-2.26c-2.21-.78-3.25-2-3.25-3.48 0-2 1.6-3.6 4.24-3.6a6.05 6.05 0 0 1 3 .76l-.56 1.63a4.71 4.71 0 0 0-2.51-.72c-1.32 0-2.06.77-2.06 1.68s.74 1.47 2.34 2.08c2.13.81 3.22 1.88 3.22 3.71 0 2.16-1.67 3.68-4.59 3.68a7 7 0 0 1-3.5-.87zM183.42 255.88a1.31 1.31 0 0 1-1.42 1.37 1.33 1.33 0 0 1-1.35-1.37 1.37 1.37 0 0 1 1.4-1.4 1.33 1.33 0 0 1 1.37 1.4zm-2.49 15.74v-12.29h2.24v12.29zM197.46 259.33c-.05.89-.1 1.88-.1 3.38v7.13c0 2.82-.56 4.54-1.75 5.61a6.51 6.51 0 0 1-4.47 1.47 8 8 0 0 1-4.09-1l.56-1.7a7 7 0 0 0 3.61 1c2.28 0 4-1.19 4-4.29v-1.37h-.05a4.4 4.4 0 0 1-3.91 2.06c-3.05 0-5.24-2.59-5.24-6 0-4.16 2.72-6.52 5.54-6.52a4.09 4.09 0 0 1 3.83 2.13h.05l.11-1.85zm-2.31 4.85a3 3 0 0 0-.13-1 3.21 3.21 0 0 0-3.12-2.36c-2.13 0-3.66 1.8-3.66 4.65 0 2.41 1.22 4.42 3.64 4.42a3.26 3.26 0 0 0 3.09-2.29 3.78 3.78 0 0 0 .18-1.19zM200.91 262.65c0-1.27 0-2.31-.1-3.32h2l.13 2h.06a4.51 4.51 0 0 1 4.06-2.31c1.7 0 4.34 1 4.34 5.23v7.34h-2.23v-7.09c0-2-.74-3.63-2.84-3.63a3.17 3.17 0 0 0-3 2.29 3.26 3.26 0 0 0-.15 1v7.39h-2.24z"/><path class="cls-1" d="M411-1v308h407.97V-.93L411-1z"/><path class="cls-2" d="M430.1 169.99l369.77-.06"/><path class="cls-3" d="M575.19 74.31v9.14h9.65v-9.14H589v22.81h-4.16V87.07h-9.65v10.05H571V74.31zM602.88 97.12l-.27-1.82h-.1a6.14 6.14 0 0 1-4.87 2.2 4.9 4.9 0 0 1-5.18-4.91c0-4.16 3.69-6.26 9.78-6.23v-.27c0-1.08-.44-2.88-3.35-2.88a8.75 8.75 0 0 0-4.44 1.22l-.81-2.7a11.81 11.81 0 0 1 6-1.46c5.28 0 6.8 3.35 6.8 6.94v6a26.23 26.23 0 0 0 .24 4zm-.54-8.05c-2.94-.07-5.75.58-5.75 3.08a2.19 2.19 0 0 0 2.41 2.37 3.38 3.38 0 0 0 3.25-2.27 3 3 0 0 0 .13-.91zM610.81 85.55c0-1.9 0-3.49-.14-4.91h3.65l.21 2.47h.1a6 6 0 0 1 5.25-2.84c2.87 0 5.85 1.86 5.85 7.07v9.78h-4.16v-9.3c0-2.37-.88-4.17-3.15-4.17a3.5 3.5 0 0 0-3.25 2.44 4.38 4.38 0 0 0-.17 1.35v9.68h-4.19zM645.36 73.1v19.39c0 1.69.07 3.52.14 4.63h-3.72l-.17-2.6h-.07a5.93 5.93 0 0 1-5.38 3c-3.93 0-7-3.35-7-8.43 0-5.52 3.42-8.8 7.38-8.8a5.24 5.24 0 0 1 4.63 2.17h.07V73.1zm-4.16 14.41a5.64 5.64 0 0 0-.1-1.08 3.64 3.64 0 0 0-3.59-2.94c-2.67 0-4.16 2.36-4.16 5.44s1.49 5.22 4.13 5.22a3.68 3.68 0 0 0 3.59-3 4.71 4.71 0 0 0 .13-1.15zM652.44 80.64l3 8.84c.34 1 .68 2.26.91 3.21h.1c.28-1 .58-2.17.88-3.25l2.58-8.8h4.46l-4.12 11.24c-2.27 6.16-3.8 8.9-5.76 10.59a8.29 8.29 0 0 1-4.36 2.13l-1-3.52a7 7 0 0 0 2.44-1.15 7.25 7.25 0 0 0 2.26-2.6 1.67 1.67 0 0 0 .27-.75 1.77 1.77 0 0 0-.23-.81l-6-15.13zM678.54 75.94v4.7h4v3.12h-4V91c0 2 .54 3 2.13 3a6.34 6.34 0 0 0 1.63-.2l.06 3.18a9.36 9.36 0 0 1-3 .4 4.82 4.82 0 0 1-3.59-1.35c-.88-1-1.28-2.44-1.28-4.6v-7.67h-2.37v-3.12h2.37v-3.72zM701.12 88.73c0 6.06-4.27 8.77-8.47 8.77-4.67 0-8.25-3.22-8.25-8.5s3.55-8.73 8.53-8.73 8.19 3.45 8.19 8.46zm-12.43.17c0 3.18 1.56 5.58 4.1 5.58 2.37 0 4-2.33 4-5.65 0-2.57-1.15-5.51-4-5.51s-4.1 2.84-4.1 5.58zM720.21 88.73c0 6.06-4.27 8.77-8.46 8.77-4.67 0-8.26-3.22-8.26-8.5s3.51-8.73 8.51-8.73 8.21 3.45 8.21 8.46zm-12.42.17c0 3.18 1.55 5.58 4.09 5.58 2.37 0 4-2.33 4-5.65 0-2.57-1.15-5.51-4-5.51s-4.09 2.84-4.09 5.58zM723.63 73.1h4.2v24h-4.2zM732.13 93.3a9.2 9.2 0 0 0 4.23 1.18c1.82 0 2.64-.74 2.64-1.82s-.68-1.69-2.71-2.41c-3.22-1.11-4.57-2.87-4.54-4.8 0-2.91 2.41-5.18 6.23-5.18a9.67 9.67 0 0 1 4.37 1l-.82 3a7.34 7.34 0 0 0-3.48-1c-1.49 0-2.3.71-2.3 1.72s.78 1.56 2.87 2.31c3 1.08 4.37 2.6 4.4 5 0 3-2.33 5.14-6.7 5.14a10.63 10.63 0 0 1-5-1.15zM455 203.73v7.16h8.28v-7.16h2.24v17.11h-2.24v-8H455v8h-2.21v-17.11zM476 220.84l-.18-1.55h-.08a4.55 4.55 0 0 1-3.76 1.83 3.5 3.5 0 0 1-3.75-3.53c0-3 2.64-4.6 7.38-4.57v-.25a2.53 2.53 0 0 0-2.79-2.85 6.14 6.14 0 0 0-3.2.92l-.51-1.48a7.65 7.65 0 0 1 4-1.09c3.76 0 4.67 2.57 4.67 5v4.6a16.51 16.51 0 0 0 .21 2.94zm-.33-6.27c-2.44 0-5.21.38-5.21 2.77a2 2 0 0 0 2.11 2.13 3.06 3.06 0 0 0 3-2.06 2.53 2.53 0 0 0 .13-.71zM481.47 211.88c0-1.27 0-2.31-.1-3.33h2l.12 2a4.53 4.53 0 0 1 4.07-2.31c1.7 0 4.34 1 4.34 5.23v7.34h-2.24v-7.08c0-2-.73-3.63-2.84-3.63a3.19 3.19 0 0 0-3 2.28 3.26 3.26 0 0 0-.15 1v7.39h-2.23zM506.17 202.81v14.86c0 1.09 0 2.33.1 3.17h-2l-.1-2.13h-.05a4.56 4.56 0 0 1-4.19 2.41c-3 0-5.26-2.51-5.26-6.25 0-4.08 2.51-6.6 5.51-6.6a4.12 4.12 0 0 1 3.71 1.88h.05v-7.34zm-2.23 10.74a4.29 4.29 0 0 0-.1-.94 3.29 3.29 0 0 0-3.23-2.59c-2.31 0-3.68 2-3.68 4.75 0 2.49 1.22 4.55 3.63 4.55a3.36 3.36 0 0 0 3.28-2.67 4.16 4.16 0 0 0 .1-1zM510.69 208.55l2.69 7.26c.28.82.59 1.78.79 2.52h.05c.23-.74.48-1.68.79-2.57l2.43-7.21h2.37l-3.36 8.76c-1.6 4.22-2.69 6.37-4.21 7.69a6 6 0 0 1-2.74 1.45l-.56-1.88a5.71 5.71 0 0 0 1.95-1.09 6.61 6.61 0 0 0 1.88-2.49 1.63 1.63 0 0 0 .18-.53 1.87 1.87 0 0 0-.15-.58l-4.55-11.33zM527.45 220.84v-10.59h-1.73v-1.7h1.73v-.66c0-3.25 1.9-5.36 5.35-5.36a6.14 6.14 0 0 1 3.13.82l-.64 1.7a4.7 4.7 0 0 0-2.59-.71c-2.36 0-3 1.65-3 3.6v.61h7.13v12.29h-2.21v-10.59h-4.92v10.59zM540.5 211.88c0-1.27 0-2.31-.11-3.33h2l.12 2a4.52 4.52 0 0 1 4.07-2.31c1.7 0 4.34 1 4.34 5.23v7.34h-2.24v-7.08c0-2-.73-3.63-2.84-3.63a3.18 3.18 0 0 0-3 2.28 3.26 3.26 0 0 0-.15 1v7.39h-2.19zM561.39 220.84l-.18-1.55h-.07a4.58 4.58 0 0 1-3.76 1.83 3.5 3.5 0 0 1-3.76-3.53c0-3 2.64-4.6 7.39-4.57v-.25a2.54 2.54 0 0 0-2.79-2.85 6.11 6.11 0 0 0-3.2.92l-.51-1.48a7.65 7.65 0 0 1 4-1.09c3.76 0 4.67 2.57 4.67 5v4.6a17.57 17.57 0 0 0 .2 2.94zm-.33-6.27c-2.44 0-5.2.38-5.2 2.77a2 2 0 0 0 2.1 2.13 3.05 3.05 0 0 0 3-2.06 2.22 2.22 0 0 0 .13-.71zM566.82 211.88c0-1.27 0-2.31-.1-3.33h2l.13 2a4.51 4.51 0 0 1 4.06-2.31c1.7 0 4.35 1 4.35 5.23v7.34h-2.24v-7.08c0-2-.74-3.63-2.84-3.63a3.17 3.17 0 0 0-3 2.28 3.26 3.26 0 0 0-.15 1v7.39h-2.24zM589.68 220.38a8.18 8.18 0 0 1-3.53.71c-3.71 0-6.12-2.51-6.12-6.27a6.24 6.24 0 0 1 6.6-6.52 7.57 7.57 0 0 1 3.1.63l-.51 1.73a5.13 5.13 0 0 0-2.59-.59c-2.82 0-4.34 2.09-4.34 4.65 0 2.84 1.82 4.6 4.26 4.6a6.31 6.31 0 0 0 2.74-.61zM594.78 205.1a1.39 1.39 0 0 1-2.77 0 1.36 1.36 0 0 1 1.4-1.4 1.33 1.33 0 0 1 1.37 1.4zm-2.49 15.74v-12.29h2.23v12.29zM605 220.84l-.17-1.55h-.08a4.56 4.56 0 0 1-3.76 1.83 3.49 3.49 0 0 1-3.75-3.53c0-3 2.64-4.6 7.38-4.57v-.25a2.54 2.54 0 0 0-2.79-2.85 6.11 6.11 0 0 0-3.2.92l-.51-1.48a7.65 7.65 0 0 1 4-1.09c3.76 0 4.67 2.57 4.67 5v4.6a16.51 16.51 0 0 0 .21 2.94zm-.33-6.27c-2.43 0-5.2.38-5.2 2.77a2 2 0 0 0 2.11 2.13 3.06 3.06 0 0 0 3-2.06 2.52 2.52 0 0 0 .12-.71zM610.47 202.81h2.23v18h-2.23zM624.53 205v3.53h3.2v1.7h-3.2v6.63c0 1.52.43 2.39 1.68 2.39a4.73 4.73 0 0 0 1.29-.16l.1 1.68a5.4 5.4 0 0 1-2 .3 3.09 3.09 0 0 1-2.41-.94 4.56 4.56 0 0 1-.86-3.19v-6.71h-1.91v-1.7h1.91v-2.94zM641.21 214.59c0 4.55-3.15 6.53-6.12 6.53-3.32 0-5.89-2.44-5.89-6.32 0-4.12 2.69-6.53 6.1-6.53s5.91 2.57 5.91 6.32zm-9.75.13c0 2.69 1.55 4.72 3.73 4.72s3.74-2 3.74-4.77c0-2.08-1-4.72-3.68-4.72s-3.79 2.44-3.79 4.77zM655.15 214.59c0 4.55-3.15 6.53-6.12 6.53-3.32 0-5.89-2.44-5.89-6.32 0-4.12 2.69-6.53 6.09-6.53s5.92 2.57 5.92 6.32zm-9.75.13c0 2.69 1.55 4.72 3.73 4.72s3.74-2 3.74-4.77c0-2.08-1-4.72-3.69-4.72s-3.78 2.44-3.78 4.77zM658 202.81h2.23v18H658zM663.65 218.56a5.88 5.88 0 0 0 3 .88c1.63 0 2.39-.81 2.39-1.82s-.64-1.65-2.29-2.26c-2.21-.79-3.25-2-3.25-3.48 0-2 1.6-3.61 4.24-3.61a6.16 6.16 0 0 1 3 .76l-.56 1.63a4.72 4.72 0 0 0-2.51-.71c-1.32 0-2.06.76-2.06 1.67s.74 1.48 2.34 2.09c2.13.81 3.22 1.87 3.22 3.7 0 2.16-1.67 3.68-4.59 3.68a7.06 7.06 0 0 1-3.45-.83zM681.88 205.1a1.38 1.38 0 0 1-2.76 0 1.36 1.36 0 0 1 1.39-1.4 1.33 1.33 0 0 1 1.37 1.4zm-2.49 15.74v-12.29h2.24v12.29zM685.34 211.88c0-1.27 0-2.31-.11-3.33h2l.13 2a4.51 4.51 0 0 1 4.06-2.31c1.71 0 4.35 1 4.35 5.23v7.34h-2.24v-7.08c0-2-.73-3.63-2.84-3.63a3.18 3.18 0 0 0-3 2.28 3.26 3.26 0 0 0-.15 1v7.39h-2.23zM707.5 205v3.53h3.2v1.7h-3.2v6.63c0 1.52.43 2.39 1.68 2.39a4.73 4.73 0 0 0 1.29-.16l.1 1.68a5.44 5.44 0 0 1-2 .3 3.09 3.09 0 0 1-2.41-.94 4.51 4.51 0 0 1-.86-3.19v-6.71h-1.91v-1.7h1.91v-2.94zM713.21 202.81h2.24v7.67a4.1 4.1 0 0 1 1.6-1.57 4.59 4.59 0 0 1 2.28-.64c1.65 0 4.29 1 4.29 5.26v7.31h-2.23v-7.06c0-2-.74-3.65-2.85-3.65a3.2 3.2 0 0 0-3 2.23 2.64 2.64 0 0 0-.15 1.07v7.41h-2.24zM728.55 215.1c.05 3 2 4.27 4.21 4.27a8 8 0 0 0 3.4-.64l.38 1.6a9.83 9.83 0 0 1-4.08.76c-3.79 0-6.05-2.48-6.05-6.19s2.19-6.63 5.77-6.63c4 0 5.08 3.53 5.08 5.79a9.4 9.4 0 0 1-.08 1zm6.55-1.6c0-1.42-.59-3.63-3.1-3.63-2.26 0-3.25 2.08-3.43 3.63zM455.52 240.85l-1.78 5.38h-2.28l5.81-17.11h2.67l5.84 17.11h-2.36l-1.83-5.38zm5.61-1.73l-1.67-4.93c-.38-1.11-.64-2.13-.89-3.12h-.05c-.26 1-.54 2.06-.87 3.1l-1.67 5zM468.14 238c0-1.57-.05-2.84-.1-4h2l.11 2.11h.05a4.82 4.82 0 0 1 4.36-2.39c3 0 5.21 2.51 5.21 6.25 0 4.41-2.69 6.6-5.59 6.6a4.31 4.31 0 0 1-3.78-1.93v6.68h-2.21zm2.21 3.28a5.07 5.07 0 0 0 .1.91 3.45 3.45 0 0 0 3.35 2.62c2.36 0 3.73-1.93 3.73-4.75 0-2.46-1.29-4.57-3.65-4.57a3.56 3.56 0 0 0-3.38 2.77 3.76 3.76 0 0 0-.15.91zM482.59 238c0-1.57-.06-2.84-.11-4h2l.1 2.11h.05a4.84 4.84 0 0 1 4.37-2.39c3 0 5.2 2.51 5.2 6.25 0 4.41-2.69 6.6-5.58 6.6a4.29 4.29 0 0 1-3.78-1.93h-.06v6.68h-2.2zm2.2 3.28a5 5 0 0 0 .11.91 3.44 3.44 0 0 0 3.35 2.62c2.36 0 3.73-1.93 3.73-4.75 0-2.46-1.3-4.57-3.66-4.57a3.56 3.56 0 0 0-3.37 2.77 3.33 3.33 0 0 0-.16.91zM506 238.21h-6.65v6.17h7.41v1.85h-9.62v-17.11h9.24V231h-7v5.41H506zM510.56 233.94l1.75 2.64c.46.69.84 1.32 1.25 2h.08c.4-.74.81-1.37 1.21-2l1.73-2.62H519l-4.19 5.94 4.32 6.35h-2.54l-1.8-2.77c-.48-.71-.89-1.4-1.32-2.13h-.05c-.41.73-.84 1.4-1.3 2.13l-1.78 2.77h-2.46l4.37-6.27-4.17-6zM529.66 245.77a8.18 8.18 0 0 1-3.53.71c-3.71 0-6.12-2.51-6.12-6.27a6.24 6.24 0 0 1 6.6-6.52 7.57 7.57 0 0 1 3.1.63l-.51 1.73a5.1 5.1 0 0 0-2.59-.59c-2.82 0-4.34 2.09-4.34 4.65 0 2.84 1.83 4.6 4.26 4.6a6.31 6.31 0 0 0 2.74-.61zM532.27 228.2h2.23v7.67h.06a4.07 4.07 0 0 1 1.59-1.57 4.52 4.52 0 0 1 2.29-.64c1.65 0 4.29 1 4.29 5.26v7.31h-2.23v-7.06c0-2-.74-3.66-2.85-3.66a3.21 3.21 0 0 0-3 2.24 2.6 2.6 0 0 0-.16 1.06v7.42h-2.23zM553.17 246.23l-.18-1.55h-.08a4.55 4.55 0 0 1-3.76 1.83 3.5 3.5 0 0 1-3.75-3.51c0-3 2.64-4.6 7.38-4.57v-.26a2.53 2.53 0 0 0-2.79-2.84 6.14 6.14 0 0 0-3.2.92l-.51-1.48a7.65 7.65 0 0 1 4-1.09c3.76 0 4.67 2.57 4.67 5v4.59a16.55 16.55 0 0 0 .21 2.95zm-.33-6.27c-2.44-.05-5.21.38-5.21 2.77a2 2 0 0 0 2.11 2.13 3.06 3.06 0 0 0 3-2.06 2.53 2.53 0 0 0 .13-.71zM558.6 237.27c0-1.27 0-2.31-.1-3.33h2l.12 2a4.53 4.53 0 0 1 4.07-2.31c1.7 0 4.34 1 4.34 5.23v7.34h-2.24v-7.08c0-2-.73-3.64-2.84-3.64a3.2 3.2 0 0 0-3 2.29 3.26 3.26 0 0 0-.15 1v7.39h-2.2zM583.28 233.94c0 .89-.1 1.88-.1 3.38v7.13c0 2.82-.56 4.55-1.76 5.61a6.5 6.5 0 0 1-4.47 1.48 7.91 7.91 0 0 1-4.08-1l.56-1.7a6.89 6.89 0 0 0 3.6 1c2.29 0 4-1.19 4-4.29v-1.37a4.39 4.39 0 0 1-3.91 2.06c-3 0-5.23-2.59-5.23-6 0-4.17 2.72-6.53 5.54-6.53a4.09 4.09 0 0 1 3.83 2.13h.05l.1-1.85zm-2.28 4.85a3.28 3.28 0 0 0-.13-1 3.23 3.23 0 0 0-3.12-2.36c-2.14 0-3.66 1.81-3.66 4.65 0 2.41 1.22 4.42 3.63 4.42a3.27 3.27 0 0 0 3.1-2.29A3.78 3.78 0 0 0 581 241zM588.12 240.49c.06 3 2 4.27 4.22 4.27a8 8 0 0 0 3.4-.64l.38 1.6a9.85 9.85 0 0 1-4.09.76c-3.78 0-6-2.49-6-6.19s2.19-6.63 5.77-6.63c4 0 5.07 3.53 5.07 5.79a10 10 0 0 1-.07 1zm6.56-1.6c0-1.42-.59-3.63-3.1-3.63-2.26 0-3.25 2.08-3.43 3.63zM606.23 240.49c0 3 2 4.27 4.21 4.27a8 8 0 0 0 3.4-.64l.38 1.6a9.83 9.83 0 0 1-4.08.76c-3.79 0-6-2.49-6-6.19s2.19-6.63 5.77-6.63c4 0 5.07 3.53 5.07 5.79a10 10 0 0 1-.07 1zm6.55-1.6c0-1.42-.59-3.63-3.1-3.63-2.26 0-3.25 2.08-3.43 3.63zM626.46 245.77a8.14 8.14 0 0 1-3.53.71c-3.7 0-6.12-2.51-6.12-6.27a6.24 6.24 0 0 1 6.6-6.52 7.57 7.57 0 0 1 3.1.63l-.51 1.73a5.1 5.1 0 0 0-2.59-.59c-2.81 0-4.34 2.09-4.34 4.65 0 2.84 1.83 4.6 4.27 4.6a6.31 6.31 0 0 0 2.74-.61zM640 240c0 4.55-3.14 6.53-6.11 6.53-3.33 0-5.9-2.44-5.9-6.32 0-4.12 2.7-6.53 6.1-6.53S640 236.23 640 240zm-9.75.13c0 2.69 1.55 4.72 3.74 4.72s3.73-2 3.73-4.77c0-2.08-1-4.72-3.68-4.72s-3.75 2.41-3.75 4.75zM642.56 243.94a5.78 5.78 0 0 0 2.94.89c1.63 0 2.39-.81 2.39-1.83s-.64-1.65-2.29-2.26c-2.21-.78-3.25-2-3.25-3.47 0-2 1.6-3.61 4.24-3.61a6.23 6.23 0 0 1 3 .76l-.56 1.63a4.76 4.76 0 0 0-2.52-.71c-1.32 0-2 .76-2 1.67s.73 1.47 2.33 2.08c2.14.82 3.23 1.88 3.23 3.71 0 2.16-1.68 3.68-4.6 3.68a7.09 7.09 0 0 1-3.45-.83zM653.73 233.94l2.69 7.26c.28.81.58 1.78.79 2.52.23-.74.48-1.68.78-2.57l2.44-7.21h2.36l-3.35 8.76c-1.6 4.21-2.69 6.37-4.21 7.69a6 6 0 0 1-2.75 1.45L652 250a6 6 0 0 0 1.95-1.09 6.8 6.8 0 0 0 1.88-2.49 1.63 1.63 0 0 0 .18-.53 2 2 0 0 0-.15-.59l-4.55-11.32zM664.42 243.94a5.78 5.78 0 0 0 2.94.89c1.63 0 2.39-.81 2.39-1.83s-.64-1.65-2.29-2.26c-2.2-.78-3.25-2-3.25-3.47 0-2 1.6-3.61 4.24-3.61a6.23 6.23 0 0 1 3 .76l-.56 1.63a4.76 4.76 0 0 0-2.52-.71c-1.32 0-2 .76-2 1.67s.73 1.47 2.33 2.08c2.14.82 3.23 1.88 3.23 3.71 0 2.16-1.68 3.68-4.6 3.68a7.09 7.09 0 0 1-3.45-.83zM677.47 230.41v3.53h3.2v1.7h-3.2v6.63c0 1.52.43 2.38 1.67 2.38a4.84 4.84 0 0 0 1.3-.15l.1 1.68a5.44 5.44 0 0 1-2 .3 3.09 3.09 0 0 1-2.41-.94 4.52 4.52 0 0 1-.87-3.2v-6.7h-1.9v-1.7h1.9V231zM684.27 240.49c.05 3 2 4.27 4.22 4.27a8 8 0 0 0 3.4-.64l.38 1.6a9.89 9.89 0 0 1-4.09.76c-3.78 0-6-2.49-6-6.19s2.18-6.63 5.76-6.63c4 0 5.08 3.53 5.08 5.79a7.43 7.43 0 0 1-.08 1zm6.55-1.6c0-1.42-.58-3.63-3.1-3.63-2.26 0-3.25 2.08-3.42 3.63zM695.75 237.27c0-1.27 0-2.31-.11-3.33h2l.1 2h.08a4.23 4.23 0 0 1 3.86-2.26 3.65 3.65 0 0 1 3.48 2.46 5.08 5.08 0 0 1 1.37-1.6 4.22 4.22 0 0 1 2.71-.86c1.63 0 4 1.07 4 5.33v7.24h-2.18v-7c0-2.36-.87-3.78-2.67-3.78a2.89 2.89 0 0 0-2.64 2 3.7 3.7 0 0 0-.18 1.12v7.59h-2.18v-7.36c0-2-.86-3.38-2.56-3.38a3.05 3.05 0 0 0-2.77 2.23 3 3 0 0 0-.18 1.09v7.42h-2.18z"/><path class="cls-1" d="M822-1v308h407.97V-.93L822-1z"/><path class="cls-2" d="M841.1 169.99l369.77-.06"/><path class="cls-3" d="M992 43.62a34.76 34.76 0 0 1 6.06-.48c3.08 0 5 .38 6.53 1.46a4.82 4.82 0 0 1 2.37 4.26 5.32 5.32 0 0 1-3.79 5v.06a5.76 5.76 0 0 1 4.6 5.65 5.91 5.91 0 0 1-2.2 4.71c-1.62 1.42-4.3 2.13-8.46 2.13a41.64 41.64 0 0 1-5.11-.3zm4.13 9h2.13c2.88 0 4.5-1.35 4.5-3.28 0-2.13-1.62-3.12-4.26-3.12a11.42 11.42 0 0 0-2.37.17zm0 10.49a17.93 17.93 0 0 0 2.2.1c2.67 0 5-1 5-3.82 0-2.64-2.3-3.72-5.18-3.72h-2.06zM1014.47 59.05c.1 3 2.44 4.27 5.08 4.27a12.45 12.45 0 0 0 4.57-.75l.61 2.88a15.67 15.67 0 0 1-5.76 1c-5.34 0-8.49-3.28-8.49-8.32 0-4.57 2.77-8.87 8-8.87s7.11 4.4 7.11 8a11.21 11.21 0 0 1-.13 1.76zm7.25-2.91c0-1.52-.65-4-3.42-4-2.58 0-3.66 2.34-3.83 4zM1033.77 44.94v4.7h4v3.12h-4V60c0 2 .54 3 2.13 3a6.19 6.19 0 0 0 1.62-.2l.07 3.18a9.36 9.36 0 0 1-3 .4 4.82 4.82 0 0 1-3.59-1.35c-.88-1-1.28-2.44-1.28-4.6v-7.67h-2.37v-3.12h2.37v-3.72zM1045.65 44.94v4.7h4v3.12h-4V60c0 2 .54 3 2.13 3a6.34 6.34 0 0 0 1.63-.2l.06 3.18a9.36 9.36 0 0 1-3 .4 4.82 4.82 0 0 1-3.59-1.35c-.88-1-1.28-2.44-1.28-4.6v-7.67h-2.37v-3.12h2.37v-3.72zM1055.5 59.05c.1 3 2.44 4.27 5.08 4.27a12.39 12.39 0 0 0 4.56-.75l.61 2.88a15.61 15.61 0 0 1-5.75 1c-5.35 0-8.49-3.28-8.49-8.32 0-4.57 2.77-8.87 8-8.87s7.11 4.4 7.11 8a9.88 9.88 0 0 1-.14 1.76zm7.24-2.91c0-1.52-.64-4-3.42-4-2.57 0-3.65 2.34-3.82 4zM1070 55c0-2.24 0-3.83-.13-5.32h3.62l.13 3.15h.14a4.91 4.91 0 0 1 4.5-3.52 4.22 4.22 0 0 1 1 .1v3.89a5.62 5.62 0 0 0-1.22-.14 3.67 3.67 0 0 0-3.72 3.15 6.88 6.88 0 0 0-.14 1.29v8.52H1070zM1004 99.47a12.2 12.2 0 0 1-4.67.84c-5.15 0-8.5-3.28-8.5-8.39 0-4.94 3.39-8.8 9.17-8.8a10.38 10.38 0 0 1 4 .78l-.74 3.11a7.43 7.43 0 0 0-3.15-.64c-3.18 0-5.08 2.34-5 5.35 0 3.38 2.2 5.31 5 5.31a8.12 8.12 0 0 0 3.28-.64zM1021.82 95c0 2 .06 3.59.13 5h-3.65l-.21-2.51h-.09a5.94 5.94 0 0 1-5.27 2.88c-3 0-5.76-1.8-5.76-7.18v-9.7h4.16v9c0 2.74.88 4.5 3.08 4.5a3.51 3.51 0 0 0 3.19-2.23 3.9 3.9 0 0 0 .23-1.29v-10h4.17zM1026.12 96.15a9.2 9.2 0 0 0 4.23 1.19c1.83 0 2.64-.75 2.64-1.83s-.68-1.69-2.71-2.4c-3.22-1.12-4.57-2.88-4.53-4.81 0-2.91 2.4-5.18 6.22-5.18a9.8 9.8 0 0 1 4.37 1l-.81 3a7.35 7.35 0 0 0-3.49-1c-1.49 0-2.3.71-2.3 1.73s.78 1.55 2.88 2.3c3 1.08 4.36 2.6 4.4 5 0 3-2.34 5.14-6.71 5.14a10.55 10.55 0 0 1-5-1.15zM1045.21 78.79v4.7h4v3.12h-4v7.27c0 2 .54 3.05 2.13 3.05a6.34 6.34 0 0 0 1.63-.2l.06 3.18a9.08 9.08 0 0 1-3 .4 4.82 4.82 0 0 1-3.59-1.35c-.88-.95-1.28-2.44-1.28-4.6v-7.75h-2.37v-3.12h2.37v-3.72zM1067.78 91.58c0 6.06-4.26 8.77-8.46 8.77-4.67 0-8.25-3.22-8.25-8.5s3.55-8.73 8.53-8.73 8.18 3.45 8.18 8.46zm-12.42.17c0 3.18 1.56 5.59 4.1 5.59 2.37 0 4-2.34 4-5.66 0-2.57-1.15-5.51-4-5.51s-4.1 2.83-4.1 5.58zM1071.21 88.4c0-1.89 0-3.48-.14-4.91h3.59l.17 2.44h.1a5.71 5.71 0 0 1 5.08-2.81 4.77 4.77 0 0 1 4.57 3h.06a6.29 6.29 0 0 1 2-2.07 5.56 5.56 0 0 1 3.32-1c2.74 0 5.52 1.86 5.52 7.14V100h-4.06v-9.13c0-2.74-1-4.36-3-4.36a3.17 3.17 0 0 0-2.91 2.2 6 6 0 0 0-.2 1.38V100h-4.06v-9.57c0-2.3-.92-3.92-2.85-3.92a3.23 3.23 0 0 0-3 2.37 3.52 3.52 0 0 0-.24 1.35V100h-4.06zM1102.86 92.9c.1 3 2.43 4.27 5.07 4.27a12.24 12.24 0 0 0 4.57-.75l.61 2.88a15.61 15.61 0 0 1-5.75 1c-5.35 0-8.5-3.28-8.5-8.32 0-4.57 2.78-8.87 8.06-8.87s7.11 4.4 7.11 8a9.88 9.88 0 0 1-.14 1.76zm7.24-2.9c0-1.52-.64-4-3.42-4-2.57 0-3.65 2.34-3.82 4zM1117.38 88.81c0-2.24 0-3.83-.14-5.32h3.63l.13 3.15h.14a4.66 4.66 0 0 1 5.48-3.42v3.93a5.62 5.62 0 0 0-1.22-.14 3.67 3.67 0 0 0-3.72 3.15 6.88 6.88 0 0 0-.14 1.29V100h-4.16zM1004 133.32a12 12 0 0 1-4.67.85c-5.15 0-8.5-3.29-8.5-8.4 0-4.94 3.39-8.8 9.17-8.8a10.38 10.38 0 0 1 4 .78l-.74 3.11a7.43 7.43 0 0 0-3.15-.64c-3.18 0-5.08 2.34-5 5.35 0 3.38 2.2 5.31 5 5.31a8.12 8.12 0 0 0 3.28-.64zM1022.43 125.43c0 6.06-4.27 8.77-8.47 8.77-4.67 0-8.25-3.22-8.25-8.5s3.55-8.73 8.52-8.73 8.2 3.45 8.2 8.46zm-12.43.17c0 3.18 1.56 5.59 4.1 5.59 2.37 0 4-2.34 4-5.66 0-2.57-1.15-5.51-4-5.51s-4.1 2.84-4.1 5.58zM1025.85 122.25c0-1.89 0-3.48-.14-4.91h3.66l.2 2.47h.1a6 6 0 0 1 5.25-2.84c2.87 0 5.85 1.86 5.85 7.08v9.78h-4.16v-9.31c0-2.37-.88-4.16-3.15-4.16a3.49 3.49 0 0 0-3.25 2.43 4.45 4.45 0 0 0-.17 1.36v9.68h-4.19zM1045.21 122.25c0-1.89 0-3.48-.14-4.91h3.66l.2 2.47h.1a6 6 0 0 1 5.25-2.84c2.88 0 5.86 1.86 5.86 7.08v9.78H1056v-9.31c0-2.37-.88-4.16-3.14-4.16a3.49 3.49 0 0 0-3.25 2.43 4.16 4.16 0 0 0-.17 1.36v9.68h-4.2zM1067.52 126.75c.1 3 2.43 4.27 5.07 4.27a12.24 12.24 0 0 0 4.57-.75l.61 2.88a15.39 15.39 0 0 1-5.75 1c-5.35 0-8.5-3.29-8.5-8.33 0-4.57 2.78-8.87 8.06-8.87s7.11 4.4 7.11 8a9.88 9.88 0 0 1-.14 1.76zm7.24-2.91c0-1.52-.64-4-3.42-4-2.57 0-3.65 2.34-3.82 4zM1094.16 133.32a12 12 0 0 1-4.67.85c-5.15 0-8.5-3.29-8.5-8.4 0-4.94 3.38-8.8 9.17-8.8a10.42 10.42 0 0 1 4 .78l-.75 3.11a7.34 7.34 0 0 0-3.14-.64c-3.18 0-5.08 2.34-5 5.35 0 3.38 2.19 5.31 5 5.31a8.12 8.12 0 0 0 3.28-.64zM1102.52 112.64v4.7h4v3.12h-4v7.27c0 2 .54 3 2.13 3a6.19 6.19 0 0 0 1.62-.2l.07 3.18a9 9 0 0 1-3 .41 4.82 4.82 0 0 1-3.59-1.36c-.88-.95-1.28-2.44-1.28-4.6v-7.75h-2.37v-3.12h2.37v-3.72zM875.71 220.28a10.88 10.88 0 0 1-4.52.81c-4.82 0-8.45-3-8.45-8.65 0-5.36 3.63-9 8.94-9a9.12 9.12 0 0 1 4.06.76l-.53 1.8a8.19 8.19 0 0 0-3.46-.71c-4 0-6.68 2.57-6.68 7.06 0 4.19 2.42 6.88 6.58 6.88a8.88 8.88 0 0 0 3.61-.71zM888.38 217.49c0 1.27 0 2.39.1 3.35h-2l-.12-2h-.06a4.61 4.61 0 0 1-4.06 2.29c-1.93 0-4.24-1.07-4.24-5.38v-7.19h2.24v6.81c0 2.33.71 3.91 2.74 3.91a3.21 3.21 0 0 0 2.94-2 3.17 3.17 0 0 0 .21-1.14v-7.54h2.23zM891.78 218.56a5.88 5.88 0 0 0 3 .88c1.62 0 2.38-.81 2.38-1.82s-.63-1.65-2.28-2.26c-2.21-.79-3.25-2-3.25-3.48 0-2 1.6-3.61 4.24-3.61a6.19 6.19 0 0 1 3 .76l-.56 1.63a4.72 4.72 0 0 0-2.51-.71c-1.32 0-2.06.76-2.06 1.67s.74 1.48 2.34 2.09c2.13.81 3.22 1.87 3.22 3.7 0 2.16-1.67 3.68-4.59 3.68a7.13 7.13 0 0 1-3.46-.83zM904.83 205v3.53H908v1.7h-3.2v6.63c0 1.52.43 2.39 1.68 2.39a4.73 4.73 0 0 0 1.29-.16l.1 1.68a5.4 5.4 0 0 1-2 .3 3.1 3.1 0 0 1-2.41-.94 4.56 4.56 0 0 1-.86-3.19v-6.71h-1.91v-1.7h1.91v-2.94zM921.51 214.59c0 4.55-3.15 6.53-6.12 6.53-3.32 0-5.89-2.44-5.89-6.32 0-4.12 2.69-6.53 6.1-6.53s5.91 2.57 5.91 6.32zm-9.75.13c0 2.69 1.55 4.72 3.74 4.72s3.73-2 3.73-4.77c0-2.08-1-4.72-3.68-4.72s-3.79 2.44-3.79 4.77zM924.33 211.88c0-1.27 0-2.31-.1-3.33h1.95l.11 2h.07a4.24 4.24 0 0 1 3.86-2.26 3.63 3.63 0 0 1 3.48 2.46 5 5 0 0 1 1.37-1.59 4.2 4.2 0 0 1 2.72-.87c1.62 0 4 1.07 4 5.33v7.24h-2.19v-7c0-2.36-.86-3.78-2.66-3.78a2.89 2.89 0 0 0-2.64 2 3.46 3.46 0 0 0-.18 1.12v7.59H932v-7.36c0-2-.86-3.38-2.56-3.38a3.33 3.33 0 0 0-3 3.33v7.41h-2.18zM946.75 215.1c0 3 2 4.27 4.21 4.27a8 8 0 0 0 3.41-.64l.38 1.6a9.93 9.93 0 0 1-4.09.76c-3.78 0-6-2.48-6-6.19s2.18-6.63 5.76-6.63c4 0 5.08 3.53 5.08 5.79a7.43 7.43 0 0 1-.08 1zm6.55-1.6c0-1.42-.58-3.63-3.1-3.63-2.26 0-3.25 2.08-3.43 3.63zM958.22 212.39c0-1.45 0-2.7-.1-3.84h2l.07 2.41h.11a3.67 3.67 0 0 1 3.4-2.69 2.41 2.41 0 0 1 .63.08v2.11a2.86 2.86 0 0 0-.76-.08 3.14 3.14 0 0 0-3 2.87 6.33 6.33 0 0 0-.1 1v6.55h-2.21zM982.5 208.55c-.06.89-.11 1.88-.11 3.38v7.13c0 2.82-.55 4.55-1.75 5.61a6.5 6.5 0 0 1-4.47 1.48 7.91 7.91 0 0 1-4.08-1l.55-1.7a7 7 0 0 0 3.61 1c2.28 0 4-1.2 4-4.3v-1.37h-.05a4.38 4.38 0 0 1-3.91 2.06c-3 0-5.23-2.59-5.23-6 0-4.17 2.72-6.53 5.53-6.53a4.11 4.11 0 0 1 3.84 2.13h.05l.1-1.85zm-2.32 4.85a3.18 3.18 0 0 0-.12-1 3.23 3.23 0 0 0-3.13-2.37c-2.13 0-3.65 1.81-3.65 4.65 0 2.41 1.22 4.42 3.63 4.42a3.27 3.27 0 0 0 3.1-2.29 4.08 4.08 0 0 0 .17-1.19zM987.34 215.1c0 3 2 4.27 4.22 4.27a8 8 0 0 0 3.4-.64l.38 1.6a9.89 9.89 0 0 1-4.09.76c-3.78 0-6-2.48-6-6.19s2.18-6.63 5.76-6.63c4 0 5.08 3.53 5.08 5.79a10 10 0 0 1-.07 1zm6.55-1.6c0-1.42-.58-3.63-3.09-3.63-2.26 0-3.25 2.08-3.43 3.63zM1001.51 205v3.53h3.2v1.7h-3.2v6.63c0 1.52.43 2.39 1.68 2.39a4.73 4.73 0 0 0 1.29-.16l.1 1.68a5.4 5.4 0 0 1-2 .3 3.09 3.09 0 0 1-2.41-.94 4.56 4.56 0 0 1-.86-3.19v-6.71h-1.91v-1.7h1.91v-2.94zM1019.41 220.84l-.18-1.55h-.08a4.54 4.54 0 0 1-3.75 1.83 3.5 3.5 0 0 1-3.76-3.53c0-3 2.64-4.6 7.39-4.57v-.25a2.54 2.54 0 0 0-2.8-2.85 6.08 6.08 0 0 0-3.19.92l-.51-1.48a7.61 7.61 0 0 1 4-1.09c3.76 0 4.68 2.57 4.68 5v4.6a17.57 17.57 0 0 0 .2 2.94zm-.33-6.27c-2.44 0-5.21.38-5.21 2.77a2 2 0 0 0 2.11 2.13 3.05 3.05 0 0 0 3-2.06 2.22 2.22 0 0 0 .13-.71zM1030.22 212.39c0-1.45 0-2.7-.1-3.84h2l.07 2.41h.1a3.69 3.69 0 0 1 3.41-2.69 2.41 2.41 0 0 1 .63.08v2.11a2.91 2.91 0 0 0-.76-.08 3.14 3.14 0 0 0-3 2.87 6.33 6.33 0 0 0-.1 1v6.55h-2.21zM1039.52 215.1c0 3 2 4.27 4.21 4.27a8 8 0 0 0 3.4-.64l.38 1.6a9.83 9.83 0 0 1-4.08.76c-3.79 0-6-2.48-6-6.19s2.19-6.63 5.77-6.63c4 0 5.07 3.53 5.07 5.79a10 10 0 0 1-.07 1zm6.55-1.6c0-1.42-.59-3.63-3.1-3.63-2.26 0-3.25 2.08-3.43 3.63zM1057.8 220.84l-.18-1.55h-.08a4.55 4.55 0 0 1-3.76 1.83 3.5 3.5 0 0 1-3.75-3.53c0-3 2.64-4.6 7.38-4.57v-.25a2.53 2.53 0 0 0-2.79-2.85 6.14 6.14 0 0 0-3.2.92l-.51-1.48a7.65 7.65 0 0 1 4-1.09c3.76 0 4.67 2.57 4.67 5v4.6a16.51 16.51 0 0 0 .21 2.94zm-.33-6.27c-2.44 0-5.21.38-5.21 2.77a2 2 0 0 0 2.11 2.13 3.06 3.06 0 0 0 3-2.06 2.53 2.53 0 0 0 .13-.71zM1063.23 202.81h2.23v18h-2.23zM1074.4 213.15v1.65h-6.27v-1.65zM1079.7 205v3.53h3.2v1.7h-3.2v6.63c0 1.52.44 2.39 1.68 2.39a4.82 4.82 0 0 0 1.3-.16l.1 1.68a5.44 5.44 0 0 1-2 .3 3.12 3.12 0 0 1-2.42-.94 4.56 4.56 0 0 1-.86-3.19v-6.71h-1.9v-1.7h1.9v-2.94zM1087.9 205.1a1.31 1.31 0 0 1-1.42 1.37 1.33 1.33 0 0 1-1.34-1.37 1.36 1.36 0 0 1 1.39-1.4 1.33 1.33 0 0 1 1.37 1.4zm-2.48 15.74v-12.29h2.23v12.29zM1091.36 211.88c0-1.27 0-2.31-.1-3.33h2l.1 2h.08a4.23 4.23 0 0 1 3.86-2.26 3.65 3.65 0 0 1 3.48 2.46 5 5 0 0 1 1.37-1.59 4.17 4.17 0 0 1 2.71-.87c1.63 0 4 1.07 4 5.33v7.24h-2.18v-7c0-2.36-.87-3.78-2.67-3.78a2.89 2.89 0 0 0-2.64 2 3.75 3.75 0 0 0-.18 1.12v7.59h-2.18v-7.36c0-2-.86-3.38-2.56-3.38a3.33 3.33 0 0 0-3 3.33v7.41h-2.18zM1113.77 215.1c.06 3 2 4.27 4.22 4.27a8 8 0 0 0 3.4-.64l.38 1.6a9.85 9.85 0 0 1-4.09.76c-3.78 0-6-2.48-6-6.19s2.19-6.63 5.77-6.63c4 0 5.07 3.53 5.07 5.79a10 10 0 0 1-.07 1zm6.56-1.6c0-1.42-.59-3.63-3.1-3.63-2.26 0-3.25 2.08-3.43 3.63zM864.54 233.94l2.41 6.91a29.48 29.48 0 0 1 1 3.14h.05c.28-1 .63-2 1-3.14l2.39-6.91h2.33L869 246.23h-2.13l-4.68-12.29zM878.38 230.49a1.39 1.39 0 0 1-2.77 0 1.36 1.36 0 0 1 1.4-1.4 1.33 1.33 0 0 1 1.37 1.4zm-2.49 15.74v-12.29h2.23v12.29zM883.07 240.49c.06 3 2 4.27 4.22 4.27a8 8 0 0 0 3.4-.64l.38 1.6a9.85 9.85 0 0 1-4.09.76c-3.78 0-6-2.49-6-6.19s2.19-6.63 5.77-6.63c4 0 5.07 3.53 5.07 5.79a10 10 0 0 1-.07 1zm6.56-1.6c0-1.42-.59-3.63-3.1-3.63-2.26 0-3.25 2.08-3.43 3.63zM895.44 233.94l1.62 6.25c.36 1.37.69 2.64.92 3.91h.07c.28-1.25.69-2.57 1.1-3.89l2-6.27H903l1.9 6.14c.46 1.48.82 2.77 1.1 4h.07a40.22 40.22 0 0 1 .94-4l1.75-6.17H911l-4 12.29h-2l-1.88-5.87c-.43-1.37-.78-2.59-1.09-4a38 38 0 0 1-1.12 4.06l-2 5.84h-2l-3.71-12.29zM929.74 240c0 4.55-3.15 6.53-6.12 6.53-3.33 0-5.89-2.44-5.89-6.32 0-4.12 2.69-6.53 6.09-6.53s5.92 2.55 5.92 6.32zm-9.75.13c0 2.69 1.55 4.72 3.73 4.72s3.73-2 3.73-4.77c0-2.08-1-4.72-3.68-4.72s-3.77 2.41-3.77 4.75zM932.78 246.23v-10.59h-1.72v-1.7h1.72v-.58a5.83 5.83 0 0 1 1.43-4.3 4.26 4.26 0 0 1 3-1.14 5.14 5.14 0 0 1 1.91.36l-.32 1.72a3.36 3.36 0 0 0-1.42-.27c-1.9 0-2.39 1.67-2.39 3.55v.66h3v1.7h-3v10.59zM948 230.41v3.53h3.2v1.7H948v6.63c0 1.52.43 2.38 1.68 2.38a4.81 4.81 0 0 0 1.29-.15l.1 1.68a5.4 5.4 0 0 1-2 .3 3.1 3.1 0 0 1-2.41-.94 4.57 4.57 0 0 1-.86-3.2v-6.7H944v-1.7h1.91V231zM953.75 228.2H956v7.67a4 4 0 0 1 1.6-1.57 4.51 4.51 0 0 1 2.28-.64c1.65 0 4.3 1 4.3 5.26v7.31H962v-7.06c0-2-.74-3.66-2.84-3.66a3.22 3.22 0 0 0-3 2.24 2.61 2.61 0 0 0-.15 1.06v7.42h-2.24zM969.09 240.49c0 3 2 4.27 4.21 4.27a8 8 0 0 0 3.41-.64l.38 1.6a9.93 9.93 0 0 1-4.09.76c-3.78 0-6-2.49-6-6.19s2.18-6.63 5.76-6.63c4 0 5.08 3.53 5.08 5.79a7.43 7.43 0 0 1-.08 1zm6.55-1.6c0-1.42-.58-3.63-3.1-3.63-2.26 0-3.25 2.08-3.43 3.63zM983.05 230.49a1.38 1.38 0 0 1-2.76 0 1.36 1.36 0 0 1 1.39-1.4 1.33 1.33 0 0 1 1.37 1.4zm-2.49 15.74v-12.29h2.24v12.29zM986.51 237.77c0-1.44 0-2.69-.11-3.83h2l.07 2.41h.11a3.68 3.68 0 0 1 3.4-2.69 2.41 2.41 0 0 1 .63.08v2.1a3.33 3.33 0 0 0-.76-.07 3.13 3.13 0 0 0-3 2.87 6.26 6.26 0 0 0-.11 1v6.55h-2.2zM1000.42 246.23v-10.59h-1.73v-1.7h1.73v-.66c0-3.25 1.9-5.36 5.35-5.36a6.24 6.24 0 0 1 3.13.81l-.64 1.71a4.68 4.68 0 0 0-2.59-.71c-2.36 0-3 1.65-3 3.6v.61h7.13v12.29h-2.21v-10.59h-4.92v10.59zM1013.47 237.27c0-1.27 0-2.31-.1-3.33h2l.12 2a4.53 4.53 0 0 1 4.07-2.31c1.7 0 4.34 1 4.34 5.23v7.34h-2.24v-7.08c0-2-.73-3.64-2.84-3.64a3.19 3.19 0 0 0-3 2.29 3.26 3.26 0 0 0-.15 1v7.39h-2.23zM1034.36 246.23l-.18-1.55h-.07a4.58 4.58 0 0 1-3.76 1.83 3.5 3.5 0 0 1-3.76-3.53c0-3 2.64-4.6 7.39-4.57v-.26a2.53 2.53 0 0 0-2.79-2.84 6.11 6.11 0 0 0-3.2.92l-.51-1.48a7.65 7.65 0 0 1 4-1.09c3.76 0 4.67 2.57 4.67 5v4.59a17.62 17.62 0 0 0 .2 2.95zM1034 240c-2.43-.05-5.2.38-5.2 2.77a2 2 0 0 0 2.1 2.13 3.08 3.08 0 0 0 3-2.06 2.52 2.52 0 0 0 .12-.71zM1039.8 237.27c0-1.27 0-2.31-.11-3.33h2l.13 2a4.51 4.51 0 0 1 4.06-2.31c1.71 0 4.35 1 4.35 5.23v7.34H1048v-7.08c0-2-.73-3.64-2.84-3.64a3.19 3.19 0 0 0-3 2.29 3.26 3.26 0 0 0-.15 1v7.39h-2.23zM1062.65 245.77a8.18 8.18 0 0 1-3.53.71c-3.71 0-6.12-2.51-6.12-6.27a6.24 6.24 0 0 1 6.6-6.52 7.57 7.57 0 0 1 3.1.63l-.51 1.73a5.1 5.1 0 0 0-2.59-.59c-2.82 0-4.34 2.09-4.34 4.65 0 2.84 1.83 4.6 4.26 4.6a6.39 6.39 0 0 0 2.75-.61zM1067.75 230.49a1.39 1.39 0 0 1-2.77 0 1.36 1.36 0 0 1 1.4-1.4 1.33 1.33 0 0 1 1.37 1.4zm-2.49 15.74v-12.29h2.23v12.29zM1078 246.23l-.18-1.55h-.08a4.55 4.55 0 0 1-3.76 1.83 3.5 3.5 0 0 1-3.75-3.53c0-3 2.64-4.6 7.38-4.57v-.26a2.53 2.53 0 0 0-2.79-2.84 6.14 6.14 0 0 0-3.2.92l-.51-1.48a7.65 7.65 0 0 1 4-1.09c3.76 0 4.67 2.57 4.67 5v4.59a16.55 16.55 0 0 0 .21 2.95zm-.33-6.27c-2.44-.05-5.21.38-5.21 2.77a2 2 0 0 0 2.11 2.13 3.06 3.06 0 0 0 3-2.06 2.53 2.53 0 0 0 .13-.71zM1083.44 228.2h2.23v18h-2.23zM1094.81 228.2h2.24v7.67a4 4 0 0 1 1.6-1.57 4.48 4.48 0 0 1 2.28-.64c1.65 0 4.29 1 4.29 5.26v7.31H1103v-7.06c0-2-.74-3.66-2.85-3.66a3.21 3.21 0 0 0-3 2.24 2.61 2.61 0 0 0-.15 1.06v7.42h-2.24zM1110.15 240.49c0 3 2 4.27 4.21 4.27a8 8 0 0 0 3.4-.64l.38 1.6a9.83 9.83 0 0 1-4.08.76c-3.79 0-6-2.49-6-6.19s2.19-6.63 5.77-6.63c4 0 5.07 3.53 5.07 5.79a10 10 0 0 1-.07 1zm6.55-1.6c0-1.42-.59-3.63-3.1-3.63-2.26 0-3.25 2.08-3.43 3.63zM1128.43 246.23l-.18-1.55h-.08a4.55 4.55 0 0 1-3.76 1.83 3.5 3.5 0 0 1-3.75-3.53c0-3 2.64-4.6 7.39-4.57v-.26a2.54 2.54 0 0 0-2.8-2.84 6.14 6.14 0 0 0-3.2.92l-.5-1.48a7.58 7.58 0 0 1 4-1.09c3.76 0 4.67 2.57 4.67 5v4.59a17.55 17.55 0 0 0 .21 2.95zm-.33-6.27c-2.44-.05-5.21.38-5.21 2.77a2 2 0 0 0 2.11 2.13 3.06 3.06 0 0 0 3-2.06 2.22 2.22 0 0 0 .13-.71zM1133.86 228.2h2.23v18h-2.23zM1142.54 230.41v3.53h3.2v1.7h-3.2v6.63c0 1.52.43 2.38 1.68 2.38a4.81 4.81 0 0 0 1.29-.15l.1 1.68a5.4 5.4 0 0 1-2 .3 3.09 3.09 0 0 1-2.41-.94 4.57 4.57 0 0 1-.86-3.2v-6.7h-1.91v-1.7h1.91V231zM1148.25 228.2h2.24v7.67a4 4 0 0 1 1.6-1.57 4.51 4.51 0 0 1 2.28-.64c1.65 0 4.29 1 4.29 5.26v7.31h-2.23v-7.06c0-2-.74-3.66-2.84-3.66a3.22 3.22 0 0 0-3 2.24 2.61 2.61 0 0 0-.15 1.06v7.42h-2.24zM866.37 255.8v3.53h3.2V261h-3.2v6.63c0 1.52.43 2.38 1.68 2.38a4.81 4.81 0 0 0 1.29-.15l.1 1.68a5.67 5.67 0 0 1-2 .3 3.09 3.09 0 0 1-2.41-.94 4.53 4.53 0 0 1-.86-3.2V261h-1.91v-1.7h1.91v-2.95zM883.05 265.37c0 4.55-3.15 6.53-6.12 6.53-3.33 0-5.89-2.44-5.89-6.33 0-4.11 2.69-6.52 6.09-6.52s5.92 2.56 5.92 6.32zm-9.75.13c0 2.69 1.55 4.72 3.73 4.72s3.74-2 3.74-4.77c0-2.08-1-4.73-3.69-4.73s-3.78 2.44-3.78 4.78zM891.25 262.65c0-1.27 0-2.31-.1-3.32h2l.1 2h.08a4.24 4.24 0 0 1 3.86-2.26 3.62 3.62 0 0 1 3.48 2.46 5.08 5.08 0 0 1 1.37-1.6 4.2 4.2 0 0 1 2.72-.86c1.62 0 4 1.07 4 5.33v7.24h-2.18v-7c0-2.36-.86-3.78-2.67-3.78a2.9 2.9 0 0 0-2.64 2 3.72 3.72 0 0 0-.17 1.12v7.59h-2.19v-7.37c0-1.95-.86-3.37-2.56-3.37a3 3 0 0 0-2.77 2.23 3 3 0 0 0-.18 1.09v7.42h-2.18zM919.23 271.62l-.18-1.55H919a4.57 4.57 0 0 1-3.75 1.83 3.51 3.51 0 0 1-3.76-3.53c0-3 2.64-4.6 7.39-4.57v-.26a2.54 2.54 0 0 0-2.8-2.84 6.13 6.13 0 0 0-3.2.91l-.5-1.47a7.61 7.61 0 0 1 4-1.09c3.76 0 4.68 2.56 4.68 5v4.59a17.62 17.62 0 0 0 .2 2.95zm-.33-6.27c-2.44-.06-5.21.38-5.21 2.76a2 2 0 0 0 2.11 2.14 3.05 3.05 0 0 0 3-2.06 2.22 2.22 0 0 0 .13-.71zM926.87 265c.31-.43.74-1 1.09-1.39l3.61-4.24h2.69l-4.75 5.05 5.41 7.24h-2.72l-4.2-5.93-1.13 1.27v4.62h-2.21v-18h2.21zM937.81 265.88a3.93 3.93 0 0 0 4.22 4.26 8 8 0 0 0 3.4-.63l.38 1.6a10.06 10.06 0 0 1-4.09.76c-3.78 0-6-2.49-6-6.19s2.18-6.63 5.76-6.63c4 0 5.08 3.53 5.08 5.79a7.57 7.57 0 0 1-.08 1zm6.55-1.6c0-1.42-.58-3.63-3.09-3.63-2.26 0-3.25 2.08-3.43 3.63zM957.16 255.88a1.39 1.39 0 0 1-2.77 0 1.36 1.36 0 0 1 1.4-1.4 1.33 1.33 0 0 1 1.37 1.4zm-2.49 15.74v-12.29h2.23v12.29zM960.61 262.65c0-1.27 0-2.31-.1-3.32h2l.13 2a4.51 4.51 0 0 1 4.06-2.31c1.7 0 4.34 1 4.34 5.23v7.34h-2.23v-7.09c0-2-.74-3.63-2.85-3.63a3.17 3.17 0 0 0-3 2.29 3 3 0 0 0-.16 1v7.39h-2.23zM974.93 271.62V261h-1.73v-1.7h1.73v-.59a5.8 5.8 0 0 1 1.42-4.29 4.3 4.3 0 0 1 3-1.14 5.12 5.12 0 0 1 1.9.36l-.3 1.72a3.39 3.39 0 0 0-1.43-.28c-1.9 0-2.38 1.68-2.38 3.56v.66h3v1.7h-3v10.59zM992.91 265.37c0 4.55-3.15 6.53-6.12 6.53-3.33 0-5.89-2.44-5.89-6.33 0-4.11 2.69-6.52 6.09-6.52s5.92 2.56 5.92 6.32zm-9.75.13c0 2.69 1.54 4.72 3.73 4.72s3.73-2 3.73-4.77c0-2.08-1-4.73-3.68-4.73s-3.78 2.44-3.78 4.78zM995.72 263.16c0-1.45 0-2.69-.1-3.83h2l.07 2.41h.1a3.69 3.69 0 0 1 3.41-2.69 2 2 0 0 1 .63.08v2.1a3.45 3.45 0 0 0-.76-.07 3.14 3.14 0 0 0-3 2.87 6.33 6.33 0 0 0-.1 1v6.55h-2.21zM1004.13 262.65c0-1.27 0-2.31-.11-3.32h2l.1 2h.08a4.22 4.22 0 0 1 3.86-2.26 3.62 3.62 0 0 1 3.47 2.46h.06a5.08 5.08 0 0 1 1.37-1.6 4.17 4.17 0 0 1 2.71-.86c1.63 0 4 1.07 4 5.33v7.24h-2.18v-7c0-2.36-.87-3.78-2.67-3.78a2.89 2.89 0 0 0-2.64 2 3.7 3.7 0 0 0-.18 1.14v7.59h-2.18v-7.37c0-1.95-.86-3.37-2.57-3.37a3 3 0 0 0-2.76 2.23 3 3 0 0 0-.18 1.09v7.42h-2.18zM1026.54 265.88a3.93 3.93 0 0 0 4.22 4.26 8 8 0 0 0 3.4-.63l.38 1.6a10.06 10.06 0 0 1-4.09.76c-3.78 0-6-2.49-6-6.19s2.18-6.63 5.76-6.63c4 0 5.08 3.53 5.08 5.79a10.18 10.18 0 0 1-.07 1zm6.55-1.6c0-1.42-.58-3.63-3.09-3.63-2.26 0-3.25 2.08-3.43 3.63zM1048.63 253.59v14.85c0 1.1 0 2.34.1 3.18h-2l-.1-2.14h-.05a4.55 4.55 0 0 1-4.19 2.42c-3 0-5.26-2.52-5.26-6.25 0-4.09 2.51-6.6 5.51-6.6a4.12 4.12 0 0 1 3.71 1.88h.05v-7.34zm-2.23 10.74a4.29 4.29 0 0 0-.1-.94 3.29 3.29 0 0 0-3.23-2.59c-2.31 0-3.68 2-3.68 4.75 0 2.49 1.22 4.54 3.63 4.54a3.37 3.37 0 0 0 3.28-2.66 4.25 4.25 0 0 0 .1-1zM1068.33 253.59v14.85c0 1.1 0 2.34.1 3.18h-2l-.1-2.14a4.55 4.55 0 0 1-4.19 2.42c-3 0-5.26-2.52-5.26-6.25 0-4.09 2.52-6.6 5.51-6.6a4.12 4.12 0 0 1 3.71 1.88v-7.34zm-2.23 10.74a4.29 4.29 0 0 0-.1-.94 3.29 3.29 0 0 0-3.23-2.59c-2.31 0-3.68 2-3.68 4.75 0 2.49 1.22 4.54 3.63 4.54a3.37 3.37 0 0 0 3.28-2.66 4.25 4.25 0 0 0 .1-1zM1073.28 265.88a3.93 3.93 0 0 0 4.22 4.26 8 8 0 0 0 3.4-.63l.38 1.6a10.06 10.06 0 0 1-4.09.76c-3.78 0-6-2.49-6-6.19s2.18-6.63 5.76-6.63c4 0 5.08 3.53 5.08 5.79a10.18 10.18 0 0 1-.07 1zm6.55-1.6c0-1.42-.58-3.63-3.09-3.63-2.26 0-3.25 2.08-3.43 3.63zM1093.52 271.16a8.33 8.33 0 0 1-3.53.71c-3.71 0-6.12-2.51-6.12-6.27a6.25 6.25 0 0 1 6.6-6.53 7.39 7.39 0 0 1 3.1.64l-.51 1.73a5.1 5.1 0 0 0-2.59-.59c-2.82 0-4.34 2.08-4.34 4.65 0 2.84 1.83 4.59 4.27 4.59a6.34 6.34 0 0 0 2.74-.61zM1098.62 255.88a1.31 1.31 0 0 1-1.42 1.37 1.33 1.33 0 0 1-1.35-1.37 1.37 1.37 0 0 1 1.4-1.4 1.33 1.33 0 0 1 1.37 1.4zm-2.49 15.74v-12.29h2.24v12.29zM1101.77 269.33a5.87 5.87 0 0 0 2.94.89c1.63 0 2.39-.81 2.39-1.83s-.63-1.65-2.28-2.26c-2.21-.78-3.25-2-3.25-3.48 0-2 1.6-3.6 4.24-3.6a6.11 6.11 0 0 1 3 .76l-.56 1.63a4.71 4.71 0 0 0-2.51-.72c-1.33 0-2.06.77-2.06 1.68s.73 1.47 2.33 2.08c2.14.81 3.23 1.88 3.23 3.71 0 2.16-1.68 3.68-4.6 3.68a7 7 0 0 1-3.45-.84zM1114.62 255.88a1.39 1.39 0 0 1-2.77 0 1.36 1.36 0 0 1 1.39-1.4 1.33 1.33 0 0 1 1.38 1.4zm-2.49 15.74v-12.29h2.23v12.29zM1129.19 265.37c0 4.55-3.15 6.53-6.12 6.53-3.33 0-5.89-2.44-5.89-6.33 0-4.11 2.69-6.52 6.09-6.52s5.92 2.56 5.92 6.32zm-9.75.13c0 2.69 1.55 4.72 3.73 4.72s3.73-2 3.73-4.77c0-2.08-1-4.73-3.68-4.73s-3.78 2.44-3.78 4.78zM1132 262.65c0-1.27 0-2.31-.11-3.32h2l.12 2a4.52 4.52 0 0 1 4.07-2.31c1.7 0 4.34 1 4.34 5.23v7.34h-2.24v-7.09c0-2-.73-3.63-2.84-3.63a3.18 3.18 0 0 0-3 2.29 3.26 3.26 0 0 0-.15 1v7.39H1132zM1145.79 269.33a5.88 5.88 0 0 0 3 .89c1.62 0 2.38-.81 2.38-1.83s-.63-1.65-2.28-2.26c-2.21-.78-3.25-2-3.25-3.48 0-2 1.6-3.6 4.24-3.6a6.08 6.08 0 0 1 3 .76l-.56 1.63a4.71 4.71 0 0 0-2.51-.72c-1.32 0-2.06.77-2.06 1.68s.74 1.47 2.34 2.08c2.13.81 3.22 1.88 3.22 3.71 0 2.16-1.67 3.68-4.59 3.68a7 7 0 0 1-3.46-.84zM118 124.76v-6c0-.25-.53-.55-.87-.7a6.75 6.75 0 0 1-4.39-5.87 6.5 6.5 0 0 1 3.26-6.39 7.14 7.14 0 0 1 10 2.8 6.82 6.82 0 0 1-3.66 9.43c-.26.11-.54.2-.91.33v9.83H44.21V70.9h29.55V65l13.43 7.55-13.39 7.58v-5.8H47.74v50.43zm1.78-16.54a3.45 3.45 0 1 0 3.49 3.5 3.43 3.43 0 0 0-3.5-3.5z"/><path class="cls-3" d="M94.45 58l38 4.08c1.4 12.39 2.8 24.7 4.21 37.22l-10-10-26.35 25.78-22.18-21.51 26.13-25.46-10.06-9.7zm5.69 52.29l26.43-25.74L132 89.9c-.94-8.28-1.86-16.46-2.8-24.72L104 62.46l-.18.33 5.48 5.31-26.14 25.43zM494.62 133c-1.73-.81-3.17-1.89-3.51-3.94a8.75 8.75 0 0 1-.09-1.35V88.54c-1.57.57-3 1.2-4.54 1.62a26.71 26.71 0 0 1-4.33.84 2 2 0 0 0-1.81 1.24c-.29.61-.68 1.18-1 1.77-.09-.06-.19-.08-.2-.13-.8-2.28-2.55-2.85-4.81-3.22A25.91 25.91 0 0 1 453.43 69c-.14-1-.29-2.07-.43-3.1v-1.59c.28-1.74.41-3.52.85-5.22 2.54-9.77 8.68-16.13 18.31-19.15.26-.07.5-.16.76-.25.1-.52.16-1 .28-1.56a6.14 6.14 0 0 1 6.22-4.78 6 6 0 0 1 5.88 5 1.91 1.91 0 0 0 1.6 1.76 26 26 0 0 1 18.22 28.34c0 .38-.07.76-.12 1.29h33c3.72 0 4.77.7 6.16 4.09v55.05a5.62 5.62 0 0 1-3.87 4.09zm-9.69-77.22c-.59-.26-1.06-.48-1.55-.66a8.57 8.57 0 0 0-5.67-.39 3.25 3.25 0 0 0-2.39 2.63 3.09 3.09 0 0 0 1.38 3.36c1.18.75 2.46 1.32 3.7 2s2.32 1.11 3.39 1.81a6.57 6.57 0 0 1 3 6.54 6.78 6.78 0 0 1-4.45 5.82c-.65.28-1.35.46-2 .67v4.3h6L483 87.77a23.56 23.56 0 0 0 7.26-2.45 1.38 1.38 0 0 0 .74-1.42v-9.21a4.79 4.79 0 0 1 4.87-4.91h4.78c.8 0 1.29-.1 1.3-1 0-.75.17-1.5.24-2.26.85-10.44-6.61-20.92-16.74-23.56a1.07 1.07 0 0 0-1.32.44 6 6 0 0 1-5.8 2.35 6.29 6.29 0 0 1-4.49-2.92 22.9 22.9 0 0 0 1.62 44.9l-3.37-5.9h5.4v-4c-1.5-.35-2.92-.57-4.27-1-2.13-.7-2.11-.76-1.37-2.82.11-.31.24-.61.38-1 .56.27 1.05.55 1.57.76a9.28 9.28 0 0 0 6.3.7 3.88 3.88 0 0 0 3-3.2 3.74 3.74 0 0 0-1.65-3.85 30.36 30.36 0 0 0-3.07-1.69c-1.37-.72-2.8-1.35-4.11-2.16a5.58 5.58 0 0 1-2.46-3.29c-1-3.66 1-7.11 5-8.24.85-.24 1.16-.59 1.08-1.46s0-1.95 0-2.93h2.67v3.65l5.49 1.53zM541 101.35V75.2c0-1.8-.56-2.39-2.37-2.39h-42.18c-1.78 0-2.37.63-2.37 2.42v52.3c0 1.85.59 2.44 2.46 2.44h42.07c1.85 0 2.39-.57 2.39-2.47zm-58.66-61.81a3.11 3.11 0 1 0-3.13 3.16 3.09 3.09 0 0 0 3.13-3.16z"/><path class="cls-3" d="M517.73 75.16h18.19c2.34 0 3.43 1.06 3.43 3.36v11.6c0 2.24-1.11 3.37-3.35 3.37h-36.71c-2.21 0-3.33-1.16-3.34-3.39V78.51c0-2.25 1.11-3.35 3.36-3.35zm-18.68 15.23h37.18V78.22h-37.18zM530.08 115.19v-6.14c0-2.33 1-3.36 3.42-3.37h3a2.74 2.74 0 0 1 2.89 2.74v13.52a2.68 2.68 0 0 1-2.83 2.66h-3.29c-2.05 0-3.12-1.09-3.13-3.17s-.06-4.16-.06-6.24zm6.15 6.37v-12.83a18.73 18.73 0 0 1-2 0c-.93-.11-1.14.3-1.13 1.16v10.66c0 .33 0 .65.07 1zM534.7 105.27h-1.59a3.24 3.24 0 0 1-3-3.11q-.06-1.47 0-2.94a3.21 3.21 0 0 1 3.17-3.2c.94-.05 1.89 0 2.83 0a3.22 3.22 0 0 1 3.26 3.23v2.38a3.32 3.32 0 0 1-3.64 3.66h-1zm1.62-4.59c0-1.64 0-1.64-1.48-1.64-1.71 0-1.71 0-1.71 1.5 0 1.68 0 1.68 1.52 1.68s1.66 0 1.67-1.54zM516.61 100.65v1.58a3.22 3.22 0 0 1-3.1 3h-2.94a3.26 3.26 0 0 1-3.22-3.16v-2.84a3.26 3.26 0 0 1 3.22-3.23h2.26c2.53 0 3.77 1.25 3.78 3.74v.91zm-3 .08c0-1.69 0-1.69-1.49-1.69-1.69 0-1.69 0-1.69 1.5 0 1.68 0 1.68 1.49 1.68 1.65.01 1.65.01 1.65-1.49zM523.38 105.28h-1.47a3.25 3.25 0 0 1-3.19-3.09c-.05-1-.05-2.05 0-3.07a3.23 3.23 0 0 1 3.06-3.1 28.58 28.58 0 0 1 3.07 0 3.2 3.2 0 0 1 3.15 3.14v2.38c0 2.45-1.27 3.73-3.69 3.74zm-.08-3.06c1.64 0 1.64 0 1.64-1.56s0-1.62-1.49-1.62c-1.69 0-1.69 0-1.69 1.52s0 1.66 1.54 1.66zM516.61 110.31v1.59a3.21 3.21 0 0 1-3.09 3c-.94.06-1.89 0-2.83 0a3.25 3.25 0 0 1-3.34-3.38v-2.72a3.25 3.25 0 0 1 3.22-3.16h2.49a3.28 3.28 0 0 1 3.56 3.61v1zm-3 0c0-1.62 0-1.62-1.56-1.63s-1.62 0-1.62 1.56 0 1.63 1.56 1.63 1.58.05 1.58-1.51zM523.36 105.7h1.7a3.21 3.21 0 0 1 2.9 3 24 24 0 0 1 0 3.17 3.19 3.19 0 0 1-3.16 3.09 29 29 0 0 1-2.95 0 3.25 3.25 0 0 1-3.15-3.23v-2.38a3.31 3.31 0 0 1 3.63-3.66h1zm0 3c-1.64 0-1.64 0-1.64 1.46 0 1.73 0 1.73 1.48 1.73 1.7 0 1.7 0 1.7-1.52s.1-1.63-1.5-1.64zM505.24 100.63v1.59a3.22 3.22 0 0 1-3.1 3h-3.07a3.17 3.17 0 0 1-3.06-3A24.08 24.08 0 0 1 496 99a3.23 3.23 0 0 1 3.16-3h2.61a3.26 3.26 0 0 1 3.48 3.49v1.14zM500.66 99c-1.66 0-1.66 0-1.66 1.58s0 1.64 1.53 1.64 1.65 0 1.65-1.54.02-1.68-1.52-1.68zM500.63 105.71a15.77 15.77 0 0 1 1.82 0 3.2 3.2 0 0 1 2.78 3.11v3a3.17 3.17 0 0 1-3 3.14 22.5 22.5 0 0 1-3.18 0 3.24 3.24 0 0 1-3.08-3.2v-2.39a3.34 3.34 0 0 1 3.65-3.67h1zm1.57 4.64c0-1.61 0-1.61-1.57-1.62s-1.61 0-1.61 1.57 0 1.62 1.57 1.62 1.61 0 1.61-1.57zM500.61 124.61h-1.58a3.19 3.19 0 0 1-3-3.07q-.08-1.53 0-3.06a3.05 3.05 0 0 1 2.71-3 18.16 18.16 0 0 1 3.83 0 3.07 3.07 0 0 1 2.71 3v2.61c0 2.29-1.28 3.53-3.61 3.53zm.12-6.17c-1.71 0-1.71 0-1.71 1.48 0 1.68 0 1.68 1.53 1.68s1.65 0 1.65-1.56 0-1.6-1.47-1.6zM523.29 124.6c-.6 0-1.21.05-1.81 0a3.21 3.21 0 0 1-2.76-3c-.05-1 0-2 0-3.06a3.07 3.07 0 0 1 2.76-3.08 16.76 16.76 0 0 1 3.61 0 3.1 3.1 0 0 1 2.89 3.09v2.38c0 2.46-1.24 3.71-3.67 3.71h-1zm-1.53-6.16v2.46c0 .2.14.57.24.57a11 11 0 0 0 2.56 0c.19 0 .34-.89.35-1.37 0-1.93.12-1.66-1.69-1.68zM511.92 124.6c-.6 0-1.21.05-1.81 0a3.19 3.19 0 0 1-2.75-3 30.48 30.48 0 0 1 0-3.17 3.06 3.06 0 0 1 2.65-3 17.79 17.79 0 0 1 3.72 0 3.08 3.08 0 0 1 2.88 3.1v2.38c0 2.47-1.22 3.7-3.67 3.7h-1zm1.65-4.49c0-1.66 0-1.66-1.4-1.67-1.78 0-1.78 0-1.78 1.42 0 1.74 0 1.74 1.47 1.74 1.71 0 1.71 0 1.71-1.49zM880.65 91.46h-1.09a1.93 1.93 0 0 0-2.32 1.27 6.16 6.16 0 0 1-7.33 3 6.45 6.45 0 0 1-4.5-6.21A6.35 6.35 0 0 1 877.57 87a2 2 0 0 0 2.67 1.14 1.43 1.43 0 0 0 .47-1c1.11-12.26 7-21.51 17.55-27.76A33 33 0 0 1 912.75 55c.35 0 1-.48 1-.75.07-2.22 0-4.45 0-6.79H908l7.3-12.67 7.29 12.62H917v7.29c19.58 2.74 30.64 13.82 33.26 33.58a5.64 5.64 0 0 0 1.47 0 1.86 1.86 0 0 0 1.14-.8 6.37 6.37 0 0 1 12.36 2.12A6.35 6.35 0 0 1 953 92c-.07-.15-.16-.3-.26-.49h-2.5c-2.77 19.37-13.77 30.31-33.22 33v7.83h5.61L915.31 145c-2.46-4.24-4.82-8.33-7.28-12.59h5.64v-8.12a34.88 34.88 0 0 1-33-32.83zm3.24 0c1 17.9 16.49 29.55 29.87 29.49V112H917v9c16.14-.46 29.39-14.54 29.69-29.58h-9.21v-3.21h9.29a31.49 31.49 0 0 0-29.84-30.08v9.56h-3.2v-9.57c-18.68 1.07-30 17.19-29.72 30.2h9.13v3.1zm75 1.33a3.22 3.22 0 0 0 3.21-3.21 3.33 3.33 0 0 0-3.18-3.15 3.28 3.28 0 0 0-3.26 3.18 3.2 3.2 0 0 0 3.23 3.14zM875 89.63a3.19 3.19 0 1 0-6.37 0 3.19 3.19 0 0 0 6.37 0z"/><path class="cls-3" d="M915.42 105.79h-10c-1.88 0-2.39-.5-2.37-2.41 0-2.61-.08-5.23.18-7.82a8.93 8.93 0 0 1 9-7.93h6.19a9.14 9.14 0 0 1 9.09 9v7.19c0 1.43-.56 2-2 2-3.36-.02-6.73-.03-10.09-.03zm-9.09-3.29h18v-5.74a5.91 5.91 0 0 0-5.78-6q-3.21-.1-6.44 0a5.84 5.84 0 0 0-5.71 5.09c-.22 2.2-.07 4.39-.07 6.65z"/><path class="cls-3" d="M915.28 73.92a6.34 6.34 0 1 1-6.28 6.35 6.34 6.34 0 0 1 6.28-6.35zm3.21 6.31a3.26 3.26 0 0 0-3.23-3.2 3.23 3.23 0 0 0-3.13 3.29 3.18 3.18 0 1 0 6.36-.09z"/></svg>