<svg id="Layer_1" data-name="Layer 1" xmlns="http://www.w3.org/2000/svg" width="100" height="100" viewBox="0 0 100 100"><title>innovative-approach</title><path d="M84.35,36.62c-.3,1.73-.52,3.49-.91,5.2A33.39,33.39,0,0,1,71.05,61.28a2.87,2.87,0,0,1-1.67.57q-19.36,0-38.72,0a2.72,2.72,0,0,1-1.57-.51,33.57,33.57,0,0,1-13.25-25,5.55,5.55,0,0,0-.19-.86V33.15c.09-.75.19-1.5.27-2.25a34.26,34.26,0,0,1,67.55-4c.37,1.68.59,3.39.88,5.08ZM50.05,58.94c6.05,0,12.11,0,18.16,0a2.56,2.56,0,0,0,1.57-.47C78.6,51,82.57,41.44,81,30a31.27,31.27,0,0,0-62.25,4.29A30.56,30.56,0,0,0,30,58.26a3.09,3.09,0,0,0,1.86.65C38,59,44,58.94,50.05,58.94Z"/><path d="M44.56,100,33.45,93.48l10.38-6-.07-.26H31.19v-3H69.67v2.93H56.24l-.06.27,10.36,6c-.36.24-.63.44-.92.61-3,1.73-6,3.46-9,5.21a8.38,8.38,0,0,0-1,.73H55.2V95H44.8v5Zm10.59-8V87.23H44.88V92Z"/><path d="M69.67,68.19V71H31.17V68.19Z"/><path d="M69.67,76.21v2.85H31.17V76.21Z"/><path d="M70.58,32.8h-19a30.13,30.13,0,0,0,0,3.15c0,.26.56.53.91.7a5.94,5.94,0,0,1,3.41,6.14A6,6,0,0,1,44.5,44.34a5.81,5.81,0,0,1,2.83-7.54,1.74,1.74,0,0,0,1.22-2.07,17.35,17.35,0,0,1,0-1.92h-19c0,1-.06,2.06,0,3.07,0,.27.53.56.86.72a6,6,0,1,1-4.88.06c.31-.15.63-.27,1-.42V29.86H48.44V26.77H35.85V13.36H64.16V26.7H51.57v3.09H73.52c0,1.94,0,3.74,0,5.55a1.14,1.14,0,0,0,.84,1.27,6,6,0,1,1-4.65,0c.67-.28,1-.61.91-1.34S70.58,33.67,70.58,32.8ZM38.79,23.6H61.26V16.34H38.79ZM50,39.1a3,3,0,0,0-3,3A3,3,0,0,0,53,42,3,3,0,0,0,50,39.1Zm-19,3a3,3,0,0,0-3-3,3,3,0,0,0-3,3,3.13,3.13,0,0,0,2.95,3A3,3,0,0,0,31,42.13Zm38,0a3,3,0,0,0,3,3,3.09,3.09,0,0,0,3-3,3,3,0,0,0-6,0Z"/></svg>