<svg id="Layer_1" data-name="Layer 1" xmlns="http://www.w3.org/2000/svg" viewBox="0 0 640.38 490"><defs><style>.cls-1{fill:#fbc2ba}.cls-3{fill:#4c0519}.cls-4{fill:none;stroke:#4c0519;stroke-miterlimit:10;stroke-width:3px}</style></defs><path class="cls-1" d="M.55 0H642v160H.55z"/><path fill="#fcddd6" d="M.55 165H642v160H.55z"/><path class="cls-1" d="M0 330h641.45v160H0z"/><path class="cls-3" d="M79.13 115.15a11.9 11.9 0 0 1-4.87.84c-6 0-9.63-3.75-9.63-9.49 0-6.22 4.31-10 10.08-10a10.93 10.93 0 0 1 4.59.84l-.76 2.75a9 9 0 0 0-3.69-.73c-3.84 0-6.61 2.4-6.61 6.94 0 4.15 2.43 6.8 6.58 6.8a9.66 9.66 0 0 0 3.75-.69zM89.35 115.71l-.22-1.51H89a5.08 5.08 0 0 1-4 1.8 4 4 0 0 1-4.27-4c0-3.44 3-5.18 8.09-5.15v-.23c0-.89-.37-2.38-2.77-2.38a7.18 7.18 0 0 0-3.67 1l-.67-2.24a9.85 9.85 0 0 1 4.92-1.2c4.37 0 5.63 2.77 5.63 5.74v4.93a21.74 21.74 0 0 0 .2 3.27zm-.45-6.66c-2.43-.06-4.76.47-4.76 2.54a1.81 1.81 0 0 0 2 2 2.8 2.8 0 0 0 2.69-1.88 2.59 2.59 0 0 0 .11-.76zM95.9 106.47c0-1.85 0-3.16-.11-4.39h3l.11 2.6h.1a4.07 4.07 0 0 1 3.72-2.91 3.46 3.46 0 0 1 .82.08v3.25a4.57 4.57 0 0 0-1-.11 3 3 0 0 0-3.08 2.6 5.59 5.59 0 0 0-.11 1.07v7H95.9zM118.11 102.08c-.06.92-.12 2-.12 3.92v7.72c0 2.86-.58 4.9-2 6.19a7.85 7.85 0 0 1-5.27 1.65 9.65 9.65 0 0 1-4.76-1.09l.76-2.6a8.28 8.28 0 0 0 4 1c2.24 0 3.92-1.17 3.92-4.11v-1.18h-.06a4.59 4.59 0 0 1-4 2c-3.38 0-5.79-2.8-5.79-6.67 0-4.48 2.91-7.19 6.19-7.19a4.28 4.28 0 0 1 3.94 2.13h.08l.14-1.82zm-3.56 5.46a3.54 3.54 0 0 0-.11-.93 2.87 2.87 0 0 0-2.8-2.21c-1.93 0-3.36 1.68-3.36 4.45 0 2.32 1.17 4.2 3.33 4.2a2.94 2.94 0 0 0 2.8-2.07 6.18 6.18 0 0 0 .14-1.23zM134.65 108.77c0 5-3.52 7.25-7 7.25-3.86 0-6.83-2.66-6.83-7s2.94-7.22 7.06-7.22 6.77 2.82 6.77 6.97zm-10.27.14c0 2.63 1.29 4.62 3.39 4.62s3.33-1.94 3.33-4.68c0-2.13-.95-4.56-3.31-4.56s-3.41 2.35-3.41 4.62zM254.09 36.87c0 5.89-3.58 9-8 9s-7.69-3.51-7.69-8.69c0-5.43 3.38-9 8-9s7.69 3.61 7.69 8.69zm-13.28.28c0 3.66 2 6.93 5.46 6.93s5.49-3.22 5.49-7.11c0-3.4-1.78-6.95-5.46-6.95s-5.49 3.37-5.49 7.13zM256.88 36.64c0-1.26 0-2.31-.1-3.32h2l.1 2h.07a4.24 4.24 0 0 1 3.82-2.32 3.62 3.62 0 0 1 3.48 2.46h.05a5.21 5.21 0 0 1 1.37-1.6 4.2 4.2 0 0 1 2.72-.86c1.63 0 4 1.07 4 5.33v7.24h-2.19v-7c0-2.36-.86-3.78-2.66-3.78a2.89 2.89 0 0 0-2.64 2 3.7 3.7 0 0 0-.18 1.12v7.59h-2.18v-7.26c0-2-.87-3.37-2.57-3.37a3.06 3.06 0 0 0-2.77 2.23 3.23 3.23 0 0 0-.17 1.09v7.42h-2.19zM278.06 36.64c0-1.26 0-2.31-.1-3.32h2l.12 2h.05a4.52 4.52 0 0 1 4.05-2.32c1.7 0 4.34 1 4.34 5.23v7.34h-2.24v-7.05c0-2-.73-3.63-2.84-3.63a3.18 3.18 0 0 0-3 2.29 3.26 3.26 0 0 0-.15 1v7.39h-2.23zM294.64 29.87a1.39 1.39 0 0 1-2.77 0 1.36 1.36 0 0 1 1.39-1.4 1.33 1.33 0 0 1 1.38 1.4zm-2.49 15.74V33.32h2.23v12.29zM306.85 45.15a8.18 8.18 0 0 1-3.53.71c-3.71 0-6.12-2.51-6.12-6.27a6.25 6.25 0 0 1 6.6-6.53 7.39 7.39 0 0 1 3.1.64l-.51 1.73a5.1 5.1 0 0 0-2.59-.59c-2.82 0-4.34 2.08-4.34 4.65 0 2.84 1.83 4.59 4.26 4.59a6.39 6.39 0 0 0 2.75-.61zM309.46 27.58h2.24v7.67h.05a4.05 4.05 0 0 1 1.6-1.58 4.58 4.58 0 0 1 2.28-.63c1.65 0 4.29 1 4.29 5.25v7.32h-2.23v-7.06c0-2-.74-3.66-2.85-3.66a3.21 3.21 0 0 0-3 2.24 2.61 2.61 0 0 0-.15 1.06v7.42h-2.24zM330.36 45.61l-.18-1.55h-.08a4.57 4.57 0 0 1-3.75 1.83 3.51 3.51 0 0 1-3.76-3.53c0-3 2.64-4.6 7.39-4.57v-.26a2.54 2.54 0 0 0-2.8-2.84 6.13 6.13 0 0 0-3.2.91l-.5-1.47a7.58 7.58 0 0 1 4-1.09c3.76 0 4.68 2.56 4.68 5v4.59a17.62 17.62 0 0 0 .2 3zm-.36-6.27c-2.44-.05-5.21.38-5.21 2.76a2 2 0 0 0 2.11 2.14 3.06 3.06 0 0 0 3-2.06 2.22 2.22 0 0 0 .13-.71zM335.79 36.64c0-1.26 0-2.31-.1-3.32h2l.13 2h.05a4.51 4.51 0 0 1 4.04-2.32c1.7 0 4.34 1 4.34 5.23v7.34H344v-7.05c0-2-.74-3.63-2.85-3.63a3.17 3.17 0 0 0-3 2.29 3.25 3.25 0 0 0-.16 1v7.39h-2.23zM349.88 36.64c0-1.26 0-2.31-.1-3.32h2l.13 2h.05A4.51 4.51 0 0 1 356 33c1.7 0 4.34 1 4.34 5.23v7.34h-2.23v-7.05c0-2-.74-3.63-2.85-3.63a3.17 3.17 0 0 0-3 2.29 3.26 3.26 0 0 0-.15 1v7.39h-2.24zM365.22 39.87c0 3 2 4.26 4.21 4.26a8 8 0 0 0 3.4-.63l.38 1.6a9.83 9.83 0 0 1-4.08.76c-3.79 0-6.05-2.49-6.05-6.19s2.19-6.67 5.77-6.67c4 0 5.07 3.53 5.07 5.79a10 10 0 0 1-.07 1zm6.55-1.6c0-1.42-.59-3.63-3.1-3.63-2.26 0-3.25 2.08-3.43 3.63zM376.69 27.58h2.24v18h-2.24zM399.19 39.36c0 4.55-3.15 6.53-6.12 6.53-3.33 0-5.89-2.44-5.89-6.33 0-4.11 2.69-6.52 6.09-6.52s5.92 2.56 5.92 6.32zm-9.75.13c0 2.69 1.54 4.72 3.73 4.72s3.73-2 3.73-4.77c0-2.08-1-4.73-3.68-4.73s-3.78 2.44-3.78 4.78zM402 37.15c0-1.44 0-2.69-.1-3.83h2l.07 2.41h.1a3.69 3.69 0 0 1 3.37-2.73 2 2 0 0 1 .63.08v2.1a3.45 3.45 0 0 0-.76-.07 3.14 3.14 0 0 0-3 2.87 6.33 6.33 0 0 0-.1 1v6.55H402zM420.66 27.58v14.85c0 1.1 0 2.34.11 3.18h-2l-.1-2.14h-.05a4.55 4.55 0 0 1-4.19 2.42c-3 0-5.26-2.52-5.26-6.25 0-4.09 2.52-6.6 5.51-6.6a4.12 4.12 0 0 1 3.71 1.88h.05v-7.34zm-2.23 10.74a4.29 4.29 0 0 0-.1-.94 3.29 3.29 0 0 0-3.23-2.59c-2.31 0-3.68 2-3.68 4.75 0 2.49 1.22 4.54 3.63 4.54a3.37 3.37 0 0 0 3.28-2.66 4.25 4.25 0 0 0 .1-1zM425.61 39.87c.06 3 2 4.26 4.22 4.26a8 8 0 0 0 3.4-.63l.38 1.6a9.85 9.85 0 0 1-4.09.76c-3.78 0-6-2.49-6-6.19s2.15-6.67 5.73-6.67c4 0 5.07 3.53 5.07 5.79a10 10 0 0 1-.07 1zm6.56-1.6c0-1.42-.59-3.63-3.1-3.63-2.26 0-3.25 2.08-3.43 3.63zM437.09 37.15c0-1.44 0-2.69-.1-3.83h1.95l.08 2.41h.1a3.69 3.69 0 0 1 3.4-2.69 2.08 2.08 0 0 1 .64.08v2.1a3.45 3.45 0 0 0-.76-.07 3.13 3.13 0 0 0-3 2.87 6.33 6.33 0 0 0-.1 1v6.55h-2.21zM450.77 36.64c0-1.26 0-2.31-.1-3.32h2l.1 2h.07a4.24 4.24 0 0 1 3.82-2.32 3.62 3.62 0 0 1 3.48 2.46h.05a5.21 5.21 0 0 1 1.37-1.6 4.2 4.2 0 0 1 2.72-.86c1.63 0 4 1.07 4 5.33v7.24h-2.19v-7c0-2.36-.86-3.78-2.66-3.78a2.89 2.89 0 0 0-2.64 2 3.7 3.7 0 0 0-.18 1.12v7.59h-2.18v-7.26c0-2-.87-3.37-2.57-3.37a3.06 3.06 0 0 0-2.77 2.23 3.23 3.23 0 0 0-.17 1.09v7.42h-2.19zM478.75 45.61l-.18-1.55h-.07a4.61 4.61 0 0 1-3.76 1.83 3.51 3.51 0 0 1-3.74-3.53c0-3 2.64-4.6 7.39-4.57v-.26a2.53 2.53 0 0 0-2.79-2.84 6.11 6.11 0 0 0-3.2.91l-.51-1.47a7.65 7.65 0 0 1 4-1.09c3.76 0 4.67 2.56 4.67 5v4.59a17.62 17.62 0 0 0 .2 3zm-.33-6.27c-2.44-.05-5.2.38-5.2 2.76a2 2 0 0 0 2.1 2.14 3.05 3.05 0 0 0 3-2.06 2.22 2.22 0 0 0 .13-.71zM484.18 36.64c0-1.26 0-2.31-.1-3.32h2l.13 2h.05A4.51 4.51 0 0 1 490.3 33c1.7 0 4.35 1 4.35 5.23v7.34h-2.24v-7.05c0-2-.74-3.63-2.84-3.63a3.17 3.17 0 0 0-3 2.29 3.26 3.26 0 0 0-.15 1v7.39h-2.24zM505.08 45.61l-.18-1.55h-.07a4.61 4.61 0 0 1-3.76 1.83 3.51 3.51 0 0 1-3.76-3.53c0-3 2.64-4.6 7.39-4.57v-.26a2.53 2.53 0 0 0-2.79-2.84 6.08 6.08 0 0 0-3.2.91l-.51-1.47a7.62 7.62 0 0 1 4-1.09c3.75 0 4.67 2.56 4.67 5v4.59a17.62 17.62 0 0 0 .2 3zm-.33-6.27c-2.44-.05-5.21.38-5.21 2.76a2 2 0 0 0 2.11 2.14 3.05 3.05 0 0 0 3-2.06 2.22 2.22 0 0 0 .13-.71zM521.1 33.32c-.05.89-.1 1.88-.1 3.38v7.13c0 2.82-.56 4.55-1.75 5.61a6.51 6.51 0 0 1-4.47 1.47 8 8 0 0 1-4.09-1l.56-1.7a6.89 6.89 0 0 0 3.6 1c2.29 0 4-1.19 4-4.29V43.5h-.06a4.38 4.38 0 0 1-3.91 2.06c-3 0-5.23-2.59-5.23-6 0-4.16 2.72-6.52 5.54-6.52a4.09 4.09 0 0 1 3.81 2.13l.11-1.85zm-2.31 4.85a3.28 3.28 0 0 0-.13-1 3.21 3.21 0 0 0-3.12-2.36c-2.13 0-3.66 1.8-3.66 4.65 0 2.41 1.22 4.42 3.63 4.42a3.27 3.27 0 0 0 3.1-2.29 3.78 3.78 0 0 0 .18-1.19zM526 39.87c0 3 2 4.26 4.21 4.26a8.06 8.06 0 0 0 3.41-.63l.38 1.6a9.93 9.93 0 0 1-4.09.76c-3.78 0-6-2.49-6-6.19S526 33 529.58 33c4 0 5.08 3.53 5.08 5.79a7.43 7.43 0 0 1-.08 1zm6.55-1.6c0-1.42-.58-3.63-3.1-3.63-2.26 0-3.25 2.08-3.43 3.63zM537.42 36.64c0-1.26 0-2.31-.1-3.32h2l.1 2h.08a4.22 4.22 0 0 1 3.82-2.32 3.62 3.62 0 0 1 3.47 2.46h.05a5.23 5.23 0 0 1 1.38-1.6 4.15 4.15 0 0 1 2.71-.86c1.63 0 4 1.07 4 5.33v7.24h-2.18v-7c0-2.36-.87-3.78-2.67-3.78a2.89 2.89 0 0 0-2.64 2 3.7 3.7 0 0 0-.14 1.21v7.59h-2.18v-7.35c0-2-.87-3.37-2.57-3.37a3 3 0 0 0-2.76 2.23 3 3 0 0 0-.18 1.09v7.42h-2.19zM559.84 39.87a3.93 3.93 0 0 0 4.22 4.26 8 8 0 0 0 3.4-.63l.38 1.6a9.89 9.89 0 0 1-4.09.76c-3.78 0-6-2.49-6-6.19s2.14-6.67 5.72-6.67c4 0 5.08 3.53 5.08 5.79a10 10 0 0 1-.07 1zm6.55-1.6c0-1.42-.58-3.63-3.09-3.63-2.26 0-3.25 2.08-3.43 3.63zM571.32 36.64c0-1.26 0-2.31-.1-3.32h2l.12 2h.06a4.5 4.5 0 0 1 4.04-2.32c1.7 0 4.34 1 4.34 5.23v7.34h-2.24v-7.05c0-2-.73-3.63-2.84-3.63a3.17 3.17 0 0 0-3 2.29 3 3 0 0 0-.16 1v7.39h-2.23zM588 29.79v3.53h3.2V35H588v6.63c0 1.52.43 2.38 1.67 2.38a4.84 4.84 0 0 0 1.3-.15l.1 1.68a5.67 5.67 0 0 1-2 .3 3.09 3.09 0 0 1-2.41-.94 4.53 4.53 0 0 1-.86-3.2V35h-1.91v-1.7h1.91v-2.93zM239.41 72.49h9.22v1.86h-7V80h6.47v1.82h-6.47v7.75h-2.21zM251 81.15c0-1.44 0-2.69-.1-3.83h1.95l.08 2.41h.1a3.68 3.68 0 0 1 3.4-2.69 2.12 2.12 0 0 1 .64.08v2.1a3.45 3.45 0 0 0-.76-.07 3.13 3.13 0 0 0-3 2.87 6.33 6.33 0 0 0-.1 1v6.55H251zM260.33 83.87a3.93 3.93 0 0 0 4.22 4.26 8 8 0 0 0 3.4-.63l.38 1.6a9.89 9.89 0 0 1-4.09.76c-3.78 0-6-2.49-6-6.19S260.38 77 264 77c4 0 5.08 3.53 5.08 5.79a7.43 7.43 0 0 1-.08 1zm6.55-1.6c0-1.42-.58-3.63-3.09-3.63-2.26 0-3.25 2.08-3.43 3.63zM274.3 73.87a1.39 1.39 0 0 1-2.77 0 1.36 1.36 0 0 1 1.39-1.4 1.33 1.33 0 0 1 1.38 1.4zm-2.49 15.74V77.32H274v12.29zM288.34 77.32c0 .89-.11 1.88-.11 3.38v7.13c0 2.82-.55 4.55-1.75 5.61a6.49 6.49 0 0 1-4.48 1.47 7.91 7.91 0 0 1-4.08-1l.55-1.7a7 7 0 0 0 3.61 1c2.29 0 4-1.19 4-4.29V87.5H286a4.4 4.4 0 0 1-3.91 2.06c-3 0-5.23-2.59-5.23-6 0-4.16 2.72-6.52 5.53-6.52a4.09 4.09 0 0 1 3.84 2.13l.1-1.85zM286 82.17a3.28 3.28 0 0 0-.13-1 3.23 3.23 0 0 0-3.12-2.36c-2.14 0-3.66 1.8-3.66 4.65 0 2.41 1.22 4.42 3.63 4.42a3.27 3.27 0 0 0 3.1-2.29 4.09 4.09 0 0 0 .18-1.19zM291.94 71.58h2.23v7.67h.06a4.05 4.05 0 0 1 1.6-1.58 4.58 4.58 0 0 1 2.28-.63c1.65 0 4.29 1 4.29 5.25v7.32h-2.23v-7.06c0-2-.74-3.66-2.85-3.66a3.21 3.21 0 0 0-3 2.24 2.6 2.6 0 0 0-.16 1.06v7.42h-2.23zM308.62 73.79v3.53h3.2V79h-3.2v6.63c0 1.52.43 2.38 1.68 2.38a4.81 4.81 0 0 0 1.29-.15l.1 1.68a5.62 5.62 0 0 1-2 .3 3.09 3.09 0 0 1-2.41-.94 4.57 4.57 0 0 1-.86-3.2V79h-1.91v-1.7h1.91v-2.93zM326.52 89.61l-.18-1.55h-.07a4.61 4.61 0 0 1-3.76 1.83 3.51 3.51 0 0 1-3.76-3.53c0-3 2.64-4.6 7.39-4.57v-.26a2.53 2.53 0 0 0-2.79-2.84 6.08 6.08 0 0 0-3.2.91l-.51-1.47a7.62 7.62 0 0 1 4-1.09c3.75 0 4.67 2.56 4.67 5v4.59a17.62 17.62 0 0 0 .2 3zm-.33-6.27c-2.44 0-5.21.38-5.21 2.76a2 2 0 0 0 2.11 2.14 3.05 3.05 0 0 0 3-2.06 2.22 2.22 0 0 0 .13-.71zM332 80.64c0-1.26 0-2.31-.1-3.32h2l.13 2H334a4.51 4.51 0 0 1 4.07-2.32c1.7 0 4.34 1 4.34 5.23v7.34h-2.23v-7.05c0-2-.74-3.63-2.85-3.63a3.17 3.17 0 0 0-3 2.29 3.26 3.26 0 0 0-.15 1v7.39H332zM356.66 71.58v14.85c0 1.1 0 2.34.1 3.18h-2l-.1-2.14a4.54 4.54 0 0 1-4.19 2.42c-3 0-5.26-2.52-5.26-6.25 0-4.09 2.52-6.6 5.51-6.6a4.12 4.12 0 0 1 3.71 1.88h.05v-7.34zm-2.24 10.74a3.76 3.76 0 0 0-.1-.94 3.29 3.29 0 0 0-3.22-2.59c-2.31 0-3.69 2-3.69 4.75 0 2.49 1.22 4.54 3.63 4.54a3.37 3.37 0 0 0 3.28-2.66 3.75 3.75 0 0 0 .1-1zM374.5 89.15a8.11 8.11 0 0 1-3.53.71c-3.7 0-6.11-2.51-6.11-6.27a6.25 6.25 0 0 1 6.6-6.53 7.3 7.3 0 0 1 3.09.64l-.5 1.73a5.13 5.13 0 0 0-2.59-.59c-2.82 0-4.34 2.08-4.34 4.65 0 2.84 1.82 4.59 4.26 4.59a6.31 6.31 0 0 0 2.74-.61zM377.12 71.58h2.23v18h-2.23zM389.91 89.61l-.17-1.55h-.08a4.61 4.61 0 0 1-3.76 1.83 3.51 3.51 0 0 1-3.76-3.53c0-3 2.65-4.6 7.39-4.57v-.26a2.53 2.53 0 0 0-2.79-2.84 6.11 6.11 0 0 0-3.2.91l-.54-1.47a7.65 7.65 0 0 1 4-1.09c3.76 0 4.67 2.56 4.67 5v4.59a16.55 16.55 0 0 0 .21 3zm-.33-6.27c-2.43 0-5.2.38-5.2 2.76a2 2 0 0 0 2.11 2.14 3.06 3.06 0 0 0 3-2.06 2.52 2.52 0 0 0 .12-.71zM397.83 73.87a1.31 1.31 0 0 1-1.42 1.37 1.33 1.33 0 0 1-1.34-1.37 1.36 1.36 0 0 1 1.39-1.4 1.33 1.33 0 0 1 1.37 1.4zm-2.48 15.74V77.32h2.23v12.29zM401.29 80.64c0-1.26 0-2.31-.1-3.32h1.95l.1 2h.08a4.23 4.23 0 0 1 3.86-2.32 3.64 3.64 0 0 1 3.48 2.46 5.08 5.08 0 0 1 1.37-1.6 4.17 4.17 0 0 1 2.71-.86c1.63 0 4 1.07 4 5.33v7.24h-2.18v-7c0-2.36-.86-3.78-2.67-3.78a2.89 2.89 0 0 0-2.64 2 3.7 3.7 0 0 0-.18 1.12v7.59H409v-7.26c0-1.95-.86-3.37-2.56-3.37a3 3 0 0 0-2.77 2.23 3 3 0 0 0-.18 1.09v7.42h-2.18zM422.16 87.32a5.84 5.84 0 0 0 2.94.89c1.63 0 2.39-.81 2.39-1.83s-.64-1.65-2.29-2.26c-2.21-.78-3.25-2-3.25-3.48 0-2 1.6-3.6 4.24-3.6a6.05 6.05 0 0 1 3 .76l-.55 1.63a4.75 4.75 0 0 0-2.52-.72c-1.32 0-2.05.77-2.05 1.68s.73 1.47 2.33 2.08c2.13.82 3.23 1.88 3.23 3.71 0 2.16-1.68 3.68-4.6 3.68a7 7 0 0 1-3.43-.86zM437.59 87.32a5.88 5.88 0 0 0 3 .89c1.62 0 2.38-.81 2.38-1.83s-.63-1.65-2.28-2.26c-2.21-.78-3.25-2-3.25-3.48 0-2 1.6-3.6 4.24-3.6a6.11 6.11 0 0 1 3 .76l-.56 1.63a4.71 4.71 0 0 0-2.51-.72c-1.32 0-2.06.77-2.06 1.68s.74 1.47 2.34 2.08c2.13.82 3.22 1.88 3.22 3.71 0 2.16-1.67 3.68-4.59 3.68A7 7 0 0 1 437 89zM449.19 83.87c.06 3 2 4.26 4.22 4.26a8 8 0 0 0 3.4-.63l.38 1.6a9.85 9.85 0 0 1-4.09.76c-3.78 0-6-2.49-6-6.19s2.15-6.67 5.73-6.67c4 0 5.07 3.53 5.07 5.79a10 10 0 0 1-.07 1zm6.56-1.6c0-1.42-.59-3.63-3.1-3.63-2.26 0-3.25 2.08-3.43 3.63zM463.36 73.79v3.53h3.2V79h-3.2v6.63c0 1.52.43 2.38 1.68 2.38a4.81 4.81 0 0 0 1.29-.15l.1 1.68a5.62 5.62 0 0 1-2 .3 3.09 3.09 0 0 1-2.41-.94 4.57 4.57 0 0 1-.86-3.2V79h-1.91v-1.7h1.91v-2.93zM471.76 73.79v3.53H475V79h-3.2v6.63c0 1.52.44 2.38 1.68 2.38a4.9 4.9 0 0 0 1.3-.15l.1 1.68a5.67 5.67 0 0 1-2 .3 3.12 3.12 0 0 1-2.42-.94 4.57 4.57 0 0 1-.86-3.2V79h-1.9v-1.7h1.9v-2.93zM477.48 71.58h2.23v18h-2.23zM484.71 83.87a3.93 3.93 0 0 0 4.22 4.26 8 8 0 0 0 3.4-.63l.38 1.6a9.89 9.89 0 0 1-4.09.76c-3.78 0-6-2.49-6-6.19s2.14-6.67 5.72-6.67c4 0 5.08 3.53 5.08 5.79a7.43 7.43 0 0 1-.08 1zm6.55-1.6c0-1.42-.58-3.63-3.09-3.63-2.26 0-3.25 2.08-3.43 3.63zM496.19 80.64c0-1.26 0-2.31-.1-3.32h2l.1 2h.08a4.23 4.23 0 0 1 3.81-2.32 3.64 3.64 0 0 1 3.48 2.46h.05A5.08 5.08 0 0 1 507 77.9a4.18 4.18 0 0 1 2.7-.9c1.62 0 4 1.07 4 5.33v7.24h-2.18v-7c0-2.36-.86-3.78-2.67-3.78a2.89 2.89 0 0 0-2.64 2 3.7 3.7 0 0 0-.18 1.12v7.59h-2.18v-7.26c0-1.95-.86-3.37-2.56-3.37a3 3 0 0 0-2.77 2.23 3 3 0 0 0-.18 1.09v7.42h-2.18zM518.61 83.87c0 3 2 4.26 4.21 4.26a8 8 0 0 0 3.4-.63l.38 1.6a9.83 9.83 0 0 1-4.08.76c-3.79 0-6-2.49-6-6.19s2.14-6.67 5.72-6.67c4 0 5.07 3.53 5.07 5.79a10 10 0 0 1-.07 1zm6.55-1.6c0-1.42-.59-3.63-3.1-3.63-2.26 0-3.25 2.08-3.43 3.63zM530.08 80.64c0-1.26 0-2.31-.1-3.32h2l.13 2A4.51 4.51 0 0 1 536.2 77c1.7 0 4.34 1 4.34 5.23v7.34h-2.23v-7.05c0-2-.74-3.63-2.85-3.63a3.17 3.17 0 0 0-3 2.29 3.26 3.26 0 0 0-.15 1v7.39h-2.24zM546.76 73.79v3.53H550V79h-3.2v6.63c0 1.52.43 2.38 1.68 2.38a4.81 4.81 0 0 0 1.29-.15l.1 1.68a5.62 5.62 0 0 1-2 .3 3.09 3.09 0 0 1-2.41-.94 4.57 4.57 0 0 1-.86-3.2V79h-1.91v-1.7h1.91v-2.93zM239.36 116.72a22.81 22.81 0 0 1 4.24-.35c2.36 0 3.88.43 5 1.39a4.28 4.28 0 0 1 1.34 3.25 4.5 4.5 0 0 1-3.22 4.37v.08c1.32.45 2.11 1.67 2.51 3.45a27.87 27.87 0 0 0 1.32 4.7h-2.28a22.59 22.59 0 0 1-1.15-4.09c-.5-2.36-1.42-3.25-3.42-3.33h-2.09v7.42h-2.2zm2.2 7.8h2.26c2.37 0 3.86-1.3 3.86-3.25 0-2.21-1.6-3.18-3.93-3.2a9.3 9.3 0 0 0-2.19.2zM254.28 127.87a3.93 3.93 0 0 0 4.22 4.26 8 8 0 0 0 3.4-.63l.38 1.6a9.85 9.85 0 0 1-4.09.76c-3.78 0-6-2.49-6-6.19s2.18-6.63 5.77-6.63c4 0 5.07 3.53 5.07 5.79a10 10 0 0 1-.07 1zm6.55-1.6c0-1.42-.58-3.63-3.09-3.63-2.26 0-3.25 2.08-3.43 3.63zM266.62 121.32l2.42 6.9c.4 1.12.73 2.14 1 3.15h.07c.28-1 .64-2 1-3.15l2.39-6.9h2.34L271 133.61h-2.13l-4.67-12.29zM279 127.87a3.93 3.93 0 0 0 4.22 4.26 8 8 0 0 0 3.4-.63l.38 1.6a9.89 9.89 0 0 1-4.09.76c-3.78 0-6-2.49-6-6.19S279 121 282.59 121c4 0 5.08 3.53 5.08 5.79a7.43 7.43 0 0 1-.08 1zm6.55-1.6c0-1.42-.58-3.63-3.09-3.63-2.26 0-3.25 2.08-3.43 3.63zM290.44 125.15c0-1.44 0-2.69-.1-3.83h2l.08 2.41h.1a3.68 3.68 0 0 1 3.4-2.69 2.12 2.12 0 0 1 .64.08v2.1a3.49 3.49 0 0 0-.77-.07 3.13 3.13 0 0 0-3 2.87 6.33 6.33 0 0 0-.1 1v6.55h-2.21zM298.43 131.32a5.88 5.88 0 0 0 2.95.89c1.62 0 2.39-.81 2.39-1.83s-.64-1.65-2.29-2.26c-2.21-.78-3.25-2-3.25-3.48 0-2 1.6-3.6 4.24-3.6a6.05 6.05 0 0 1 3 .76l-.56 1.63a4.71 4.71 0 0 0-2.51-.72c-1.32 0-2.06.77-2.06 1.68s.74 1.47 2.34 2.08c2.13.82 3.22 1.88 3.22 3.71 0 2.16-1.67 3.68-4.59 3.68a7 7 0 0 1-3.45-.84zM310 127.87c0 3 2 4.26 4.21 4.26a8 8 0 0 0 3.4-.63l.39 1.6a9.93 9.93 0 0 1-4.09.76c-3.79 0-6.05-2.49-6.05-6.19s2.19-6.63 5.77-6.63c4 0 5.08 3.53 5.08 5.79a7.43 7.43 0 0 1-.08 1zm6.55-1.6c0-1.42-.59-3.63-3.1-3.63-2.26 0-3.25 2.08-3.43 3.63zM326.89 115.58h2.24v18h-2.24zM344 127.36c0 4.55-3.15 6.53-6.12 6.53-3.33 0-5.89-2.44-5.89-6.33 0-4.11 2.69-6.52 6.09-6.52s5.92 2.56 5.92 6.32zm-9.75.13c0 2.69 1.55 4.72 3.73 4.72s3.73-2 3.73-4.77c0-2.08-1-4.73-3.68-4.73s-3.77 2.44-3.77 4.78zM357.41 121.32c-.05.89-.1 1.88-.1 3.38v7.13c0 2.82-.56 4.55-1.75 5.61a6.49 6.49 0 0 1-4.47 1.47 8 8 0 0 1-4.09-1l.56-1.7a6.9 6.9 0 0 0 3.61 1c2.28 0 4-1.19 4-4.29v-1.42h-.05a4.4 4.4 0 0 1-3.91 2.06c-3.05 0-5.23-2.59-5.23-6 0-4.16 2.71-6.52 5.53-6.52a4.09 4.09 0 0 1 3.83 2.13h.06l.1-1.85zm-2.31 4.85a3 3 0 0 0-.13-1 3.21 3.21 0 0 0-3.12-2.36c-2.13 0-3.65 1.8-3.65 4.65 0 2.41 1.21 4.42 3.63 4.42a3.26 3.26 0 0 0 3.09-2.29 3.78 3.78 0 0 0 .18-1.19zM363.35 117.87a1.31 1.31 0 0 1-1.42 1.37 1.33 1.33 0 0 1-1.35-1.37 1.37 1.37 0 0 1 1.4-1.4 1.33 1.33 0 0 1 1.37 1.4zm-2.49 15.74v-12.29h2.24v12.29zM366.5 131.32a5.87 5.87 0 0 0 2.94.89c1.63 0 2.39-.81 2.39-1.83s-.63-1.65-2.28-2.26c-2.21-.78-3.25-2-3.25-3.48 0-2 1.6-3.6 4.24-3.6a6.11 6.11 0 0 1 3 .76l-.56 1.63a4.71 4.71 0 0 0-2.51-.72c-1.32 0-2.06.77-2.06 1.68s.74 1.47 2.33 2.08c2.14.82 3.23 1.88 3.23 3.71 0 2.16-1.68 3.68-4.6 3.68a7 7 0 0 1-3.45-.84zM379.55 117.79v3.53h3.2V123h-3.2v6.63c0 1.52.43 2.38 1.67 2.38a4.84 4.84 0 0 0 1.3-.15l.1 1.68a5.67 5.67 0 0 1-2 .3 3.09 3.09 0 0 1-2.41-.94 4.53 4.53 0 0 1-.86-3.2V123h-1.91v-1.7h1.91v-2.95zM387.75 117.87a1.39 1.39 0 0 1-2.77 0 1.37 1.37 0 0 1 1.4-1.4 1.33 1.33 0 0 1 1.37 1.4zm-2.49 15.74v-12.29h2.24v12.29zM400 133.15a8.14 8.14 0 0 1-3.53.71c-3.71 0-6.12-2.51-6.12-6.27a6.25 6.25 0 0 1 6.6-6.53 7.39 7.39 0 0 1 3.1.64l-.51 1.73a5.1 5.1 0 0 0-2.59-.59c-2.81 0-4.34 2.08-4.34 4.65 0 2.84 1.83 4.59 4.27 4.59a6.31 6.31 0 0 0 2.74-.61zM402.27 131.32a5.88 5.88 0 0 0 3 .89c1.62 0 2.38-.81 2.38-1.83s-.63-1.65-2.28-2.26c-2.21-.78-3.25-2-3.25-3.48 0-2 1.6-3.6 4.24-3.6a6.11 6.11 0 0 1 3 .76l-.56 1.63a4.71 4.71 0 0 0-2.51-.72c-1.32 0-2.06.77-2.06 1.68s.74 1.47 2.34 2.08c2.13.82 3.22 1.88 3.22 3.71 0 2.16-1.68 3.68-4.59 3.68a7 7 0 0 1-3.46-.84z"/><circle class="cls-4" cx="214.36" cy="39" r="4.5"/><circle class="cls-4" cx="214.37" cy="81.97" r="4.5"/><circle class="cls-4" cx="214.39" cy="124.93" r="4.5"/><circle class="cls-4" cx="214.36" cy="199" r="4.5"/><circle class="cls-4" cx="214.37" cy="241.97" r="4.5"/><circle class="cls-4" cx="214.39" cy="284.93" r="4.5"/><circle class="cls-4" cx="214.36" cy="366" r="4.5"/><circle class="cls-4" cx="214.37" cy="408.97" r="4.5"/><circle class="cls-4" cx="214.39" cy="451.93" r="4.5"/><path class="cls-3" d="M79.49 275.84v7.56h8v-7.56h3.45v18.87h-3.47v-8.31h-8v8.31h-3.42v-18.87zM106.93 290.62c0 1.63.06 3 .12 4.09h-3l-.17-2.07a4.93 4.93 0 0 1-4.45 2.36c-2.49 0-4.76-1.48-4.76-5.94v-8h3.44v7.42c0 2.26.73 3.72 2.55 3.72a2.9 2.9 0 0 0 2.63-1.85 2.94 2.94 0 0 0 .2-1.06v-8.23h3.44zM110.55 294.71c0-.92.11-2.43.11-3.83v-16.05h3.44V283h.06a4.92 4.92 0 0 1 4.37-2.18c3.33 0 5.71 2.77 5.68 6.91 0 4.9-3.11 7.34-6.19 7.34a4.69 4.69 0 0 1-4.31-2.35h-.06l-.16 2zm3.55-5.63a3.68 3.68 0 0 0 .09.82 3.16 3.16 0 0 0 3 2.4c2.15 0 3.47-1.73 3.47-4.48 0-2.4-1.15-4.36-3.44-4.36a3.23 3.23 0 0 0-3.06 2.52 4.5 4.5 0 0 0-.11.89zM248.25 198h-6.65v6.17h7.4V206h-9.63v-17.09h9.25v1.86h-7v5.4h6.65zM252.49 193.74l2.42 6.9c.4 1.12.73 2.14 1 3.15h.09c.28-1 .64-2 1-3.15l2.39-6.9h2.34L256.91 206h-2.13l-4.67-12.29zM264.83 200.29a3.93 3.93 0 0 0 4.22 4.26 8.17 8.17 0 0 0 3.4-.63l.38 1.6a10.06 10.06 0 0 1-4.09.76c-3.78 0-6-2.49-6-6.2s2.18-6.62 5.76-6.62c4 0 5.08 3.53 5.08 5.79a10.18 10.18 0 0 1-.07 1zm6.55-1.6c0-1.42-.58-3.63-3.09-3.63-2.26 0-3.25 2.08-3.43 3.63zM276.31 197.06c0-1.27 0-2.31-.1-3.32h2l.12 2h.06a4.5 4.5 0 0 1 4.06-2.31c1.7 0 4.34 1 4.34 5.23V206h-2.23v-7.09c0-2-.74-3.63-2.85-3.63a3.17 3.17 0 0 0-3 2.29 3 3 0 0 0-.16 1V206h-2.23zM293 190.21v3.53h3.2v1.7H293v6.62c0 1.53.43 2.39 1.68 2.39a4.81 4.81 0 0 0 1.29-.15l.1 1.67a5.37 5.37 0 0 1-2 .31 3.09 3.09 0 0 1-2.41-.94 4.57 4.57 0 0 1-.86-3.2v-6.7h-1.9v-1.7h1.91v-3zM306.78 190.21v3.53H310v1.7h-3.19v6.62c0 1.53.43 2.39 1.67 2.39a4.84 4.84 0 0 0 1.3-.15l.1 1.67a5.41 5.41 0 0 1-2 .31 3.09 3.09 0 0 1-2.41-.94 4.52 4.52 0 0 1-.87-3.2v-6.7h-1.9v-1.7h1.9v-3zM312.49 197.57c0-1.45 0-2.69-.1-3.83h1.95l.08 2.41h.1a3.68 3.68 0 0 1 3.4-2.69 2.56 2.56 0 0 1 .64.07v2.11a3.44 3.44 0 0 0-.77-.08 3.13 3.13 0 0 0-3 2.87 6.44 6.44 0 0 0-.1 1V206h-2.21zM327.47 206l-.18-1.55h-.08a4.56 4.56 0 0 1-3.75 1.82 3.5 3.5 0 0 1-3.76-3.52c0-3 2.64-4.6 7.39-4.57V198a2.54 2.54 0 0 0-2.8-2.84 6.13 6.13 0 0 0-3.2.91l-.5-1.47a7.58 7.58 0 0 1 4-1.09c3.76 0 4.67 2.56 4.67 5v4.6a17.55 17.55 0 0 0 .21 2.95zm-.33-6.28c-2.44-.05-5.21.38-5.21 2.77a2 2 0 0 0 2.11 2.13 3.06 3.06 0 0 0 3-2.05 2.22 2.22 0 0 0 .13-.71zM341.66 205.57a8.3 8.3 0 0 1-3.53.71c-3.71 0-6.12-2.51-6.12-6.27a6.24 6.24 0 0 1 6.6-6.53 7.39 7.39 0 0 1 3.1.64l-.51 1.72a5.23 5.23 0 0 0-2.59-.58c-2.82 0-4.34 2.08-4.34 4.65 0 2.84 1.83 4.59 4.27 4.59a6.34 6.34 0 0 0 2.74-.61zM346.48 199.37c.31-.43.74-1 1.1-1.39l3.6-4.24h2.69l-4.75 5 5.41 7.24h-2.71l-4.24-5.9-1.15 1.27V206h-2.21v-18h2.21zM359.1 190.28a1.31 1.31 0 0 1-1.42 1.37 1.33 1.33 0 0 1-1.35-1.37 1.36 1.36 0 0 1 1.4-1.39 1.32 1.32 0 0 1 1.37 1.39zM356.61 206v-12.26h2.24V206zM362.55 197.06c0-1.27 0-2.31-.1-3.32h2l.13 2h.05a4.51 4.51 0 0 1 4.06-2.31c1.7 0 4.34 1 4.34 5.23V206h-2.23v-7.09c0-2-.74-3.63-2.84-3.63a3.17 3.17 0 0 0-3 2.29 3.26 3.26 0 0 0-.15 1V206h-2.24zM387.23 193.74c-.05.89-.1 1.88-.1 3.37v7.14c0 2.82-.56 4.54-1.75 5.61a6.51 6.51 0 0 1-4.47 1.47 8 8 0 0 1-4.09-1l.56-1.7a7 7 0 0 0 3.61 1c2.28 0 4-1.19 4-4.29v-1.37h-.05A4.4 4.4 0 0 1 381 206c-3.05 0-5.24-2.59-5.24-6 0-4.16 2.72-6.52 5.54-6.52a4.07 4.07 0 0 1 3.83 2.13h.05l.11-1.85zm-2.31 4.85a3 3 0 0 0-.13-1 3.21 3.21 0 0 0-3.12-2.36c-2.13 0-3.66 1.8-3.66 4.65 0 2.41 1.22 4.41 3.64 4.41a3.25 3.25 0 0 0 3.09-2.28 3.8 3.8 0 0 0 .18-1.2zM403 206l-.18-1.55h-.07a4.6 4.6 0 0 1-3.75 1.85 3.5 3.5 0 0 1-3.76-3.52c0-3 2.64-4.6 7.39-4.57V198a2.53 2.53 0 0 0-2.79-2.84 6.11 6.11 0 0 0-3.2.91l-.51-1.47a7.65 7.65 0 0 1 4-1.09c3.76 0 4.67 2.56 4.67 5v4.6a17.62 17.62 0 0 0 .2 2.95zm-.33-6.28c-2.44-.05-5.2.38-5.2 2.77a2 2 0 0 0 2.1 2.13 3 3 0 0 0 3-2.05 2.22 2.22 0 0 0 .13-.71zM408.45 197.06c0-1.27 0-2.31-.1-3.32h2l.13 2h.05a4.51 4.51 0 0 1 4.06-2.31c1.7 0 4.35 1 4.35 5.23V206h-2.24v-7.09c0-2-.74-3.63-2.84-3.63a3.17 3.17 0 0 0-3 2.29 3.26 3.26 0 0 0-.15 1V206h-2.24zM433.16 188v14.85c0 1.09 0 2.34.1 3.18h-2l-.1-2.14a4.54 4.54 0 0 1-4.19 2.41c-3 0-5.25-2.51-5.25-6.24 0-4.09 2.51-6.6 5.51-6.6a4.11 4.11 0 0 1 3.7 1.88h.05V188zm-2.24 10.74a3.76 3.76 0 0 0-.1-.94 3.29 3.29 0 0 0-3.22-2.59c-2.31 0-3.68 2-3.68 4.75 0 2.49 1.21 4.54 3.63 4.54a3.35 3.35 0 0 0 3.27-2.66 3.75 3.75 0 0 0 .1-1zM442.25 197.57c0-1.45 0-2.69-.11-3.83h2l.08 2.41h.1a3.68 3.68 0 0 1 3.4-2.69 2.43 2.43 0 0 1 .63.07v2.11a3.28 3.28 0 0 0-.76-.08 3.13 3.13 0 0 0-3 2.87 6.44 6.44 0 0 0-.1 1V206h-2.21zM451.54 200.29c0 3 2 4.26 4.21 4.26a8.22 8.22 0 0 0 3.41-.63l.38 1.6a10.1 10.1 0 0 1-4.09.76c-3.78 0-6-2.49-6-6.2s2.18-6.62 5.76-6.62c4 0 5.08 3.53 5.08 5.79a7.57 7.57 0 0 1-.08 1zm6.55-1.6c0-1.42-.59-3.63-3.1-3.63-2.26 0-3.25 2.08-3.43 3.63zM463 197.75c0-1.58-.05-2.85-.1-4h2l.1 2.1h.05a4.84 4.84 0 0 1 4.37-2.38c3 0 5.2 2.51 5.2 6.24 0 4.42-2.69 6.6-5.58 6.6a4.33 4.33 0 0 1-3.79-1.92v6.67H463zm2.21 3.27a5.18 5.18 0 0 0 .1.92 3.45 3.45 0 0 0 3.36 2.61c2.36 0 3.73-1.93 3.73-4.75 0-2.46-1.3-4.57-3.66-4.57a3.57 3.57 0 0 0-3.37 2.77 3.48 3.48 0 0 0-.16.92zM488.58 199.78c0 4.54-3.15 6.52-6.12 6.52-3.33 0-5.89-2.43-5.89-6.32 0-4.11 2.69-6.52 6.09-6.52s5.92 2.54 5.92 6.32zm-9.75.13c0 2.69 1.55 4.72 3.73 4.72s3.73-2 3.73-4.77c0-2.09-1-4.73-3.68-4.73s-3.78 2.44-3.78 4.78zM491.4 197.57c0-1.45 0-2.69-.1-3.83h1.95l.08 2.41h.1a3.68 3.68 0 0 1 3.4-2.69 2.56 2.56 0 0 1 .64.07v2.11a3.44 3.44 0 0 0-.77-.08 3.13 3.13 0 0 0-3 2.87 6.44 6.44 0 0 0-.1 1V206h-2.2zM503 190.21v3.53h3.2v1.7H503v6.62c0 1.53.43 2.39 1.68 2.39a4.81 4.81 0 0 0 1.29-.15l.1 1.67a5.37 5.37 0 0 1-2 .31 3.09 3.09 0 0 1-2.41-.94 4.53 4.53 0 0 1-.86-3.2v-6.7h-1.91v-1.7h1.91v-3zM511.2 190.28a1.31 1.31 0 0 1-1.42 1.37 1.33 1.33 0 0 1-1.35-1.37 1.36 1.36 0 0 1 1.4-1.39 1.32 1.32 0 0 1 1.37 1.39zM508.71 206v-12.26H511V206zM514.65 197.06c0-1.27 0-2.31-.1-3.32h2l.13 2h.05a4.51 4.51 0 0 1 4.06-2.31c1.7 0 4.34 1 4.34 5.23V206h-2.23v-7.09c0-2-.74-3.63-2.84-3.63a3.17 3.17 0 0 0-3 2.29 3.26 3.26 0 0 0-.15 1V206h-2.24zM539.33 193.74c-.05.89-.1 1.88-.1 3.37v7.14c0 2.82-.56 4.54-1.75 5.61a6.51 6.51 0 0 1-4.47 1.47 8 8 0 0 1-4.09-1l.56-1.7a7 7 0 0 0 3.6 1c2.29 0 4-1.19 4-4.29v-1.37a4.4 4.4 0 0 1-3.92 2.05c-3 0-5.23-2.59-5.23-6 0-4.16 2.72-6.52 5.54-6.52a4.07 4.07 0 0 1 3.83 2.13l.11-1.85zm-2.33 4.85a3 3 0 0 0-.13-1 3.21 3.21 0 0 0-3.12-2.36c-2.13 0-3.66 1.8-3.66 4.65 0 2.41 1.22 4.41 3.64 4.41a3.25 3.25 0 0 0 3.09-2.28 3.8 3.8 0 0 0 .18-1.2zM239.39 232.91h2.21v15.26h7.32V250h-9.53zM252.39 234.79h-5.2v-1.88h12.67v1.88h-5.23V250h-2.24zM261.76 232.91H264v15.26h7.31V250h-9.52zM277.17 251l7.08-18.41H286L278.87 251zM293.22 232.91h2.2v15.26h7.32V250h-9.52zM316.17 249.47a11.08 11.08 0 0 1-4.52.81c-4.82 0-8.46-3.05-8.46-8.66 0-5.36 3.64-9 8.94-9a9.23 9.23 0 0 1 4.06.76l-.53 1.81a8 8 0 0 0-3.45-.71c-4 0-6.68 2.56-6.68 7 0 4.19 2.41 6.89 6.58 6.89a8.7 8.7 0 0 0 3.6-.72zM318.93 232.91h2.21v15.26h7.32V250h-9.53zM345 249.57a8.3 8.3 0 0 1-3.53.71c-3.7 0-6.12-2.51-6.12-6.27a6.25 6.25 0 0 1 6.61-6.53 7.34 7.34 0 0 1 3.09.64l-.5 1.72a5.26 5.26 0 0 0-2.59-.58c-2.82 0-4.35 2.08-4.35 4.65 0 2.84 1.83 4.59 4.27 4.59a6.31 6.31 0 0 0 2.74-.61zM358.57 243.78c0 4.54-3.15 6.52-6.12 6.52-3.33 0-5.89-2.43-5.89-6.32 0-4.11 2.69-6.52 6.09-6.52s5.92 2.54 5.92 6.32zm-9.75.13c0 2.69 1.55 4.72 3.73 4.72s3.73-2 3.73-4.77c0-2.09-1-4.73-3.68-4.73s-3.78 2.44-3.78 4.78zM361.38 241.06c0-1.27 0-2.31-.1-3.32h2l.13 2h.05a4.51 4.51 0 0 1 4.06-2.31c1.7 0 4.34 1 4.34 5.23V250h-2.23v-7.09c0-2-.74-3.63-2.84-3.63a3.17 3.17 0 0 0-3 2.29 3.26 3.26 0 0 0-.15 1V250h-2.24zM375.17 247.74a5.88 5.88 0 0 0 2.95.89c1.62 0 2.38-.81 2.38-1.83s-.63-1.65-2.28-2.26c-2.21-.79-3.25-2-3.25-3.48 0-2 1.6-3.6 4.24-3.6a6.11 6.11 0 0 1 3 .76l-.56 1.62a4.81 4.81 0 0 0-2.51-.71c-1.32 0-2.06.76-2.06 1.68s.74 1.47 2.34 2.08c2.13.81 3.22 1.88 3.22 3.71 0 2.16-1.68 3.68-4.6 3.68a7 7 0 0 1-3.45-.84zM396.65 243.78c0 4.54-3.15 6.52-6.12 6.52-3.33 0-5.89-2.43-5.89-6.32 0-4.11 2.69-6.52 6.09-6.52s5.92 2.54 5.92 6.32zm-9.75.13c0 2.69 1.55 4.72 3.73 4.72s3.73-2 3.73-4.77c0-2.09-1-4.73-3.68-4.73s-3.78 2.44-3.78 4.78zM399.47 232h2.23v18h-2.23zM408 234.28a1.39 1.39 0 0 1-2.77 0 1.36 1.36 0 0 1 1.4-1.39 1.33 1.33 0 0 1 1.37 1.39zM405.46 250v-12.26h2.23V250zM422 232v14.85c0 1.09 0 2.34.1 3.18h-2l-.1-2.14a4.56 4.56 0 0 1-4.19 2.41c-3 0-5.26-2.51-5.26-6.24 0-4.09 2.51-6.6 5.51-6.6a4.12 4.12 0 0 1 3.71 1.88V232zm-2.23 10.74a4.29 4.29 0 0 0-.1-.94 3.29 3.29 0 0 0-3.23-2.59c-2.31 0-3.68 2-3.68 4.75 0 2.49 1.22 4.54 3.63 4.54a3.37 3.37 0 0 0 3.28-2.66 4.25 4.25 0 0 0 .1-1zM432.52 250l-.18-1.55h-.07a4.6 4.6 0 0 1-3.76 1.82 3.5 3.5 0 0 1-3.76-3.52c0-3 2.64-4.6 7.39-4.57V242a2.53 2.53 0 0 0-2.79-2.84 6.11 6.11 0 0 0-3.2.91l-.51-1.47a7.65 7.65 0 0 1 4-1.09c3.76 0 4.67 2.56 4.67 5v4.6a17.62 17.62 0 0 0 .2 2.95zm-.33-6.28c-2.44-.05-5.2.38-5.2 2.77a2 2 0 0 0 2.1 2.13 3.07 3.07 0 0 0 3-2.05 2.52 2.52 0 0 0 .12-.71zM440.54 234.21v3.53h3.2v1.7h-3.2v6.62c0 1.53.44 2.39 1.68 2.39a4.9 4.9 0 0 0 1.3-.15l.1 1.67a5.41 5.41 0 0 1-2 .31 3.12 3.12 0 0 1-2.42-.94 4.57 4.57 0 0 1-.86-3.2v-6.7h-1.9v-1.7h1.9v-3zM448.75 234.28a1.39 1.39 0 0 1-2.77 0 1.36 1.36 0 0 1 1.39-1.39 1.33 1.33 0 0 1 1.38 1.39zM446.26 250v-12.26h2.23V250zM463.32 243.78c0 4.54-3.15 6.52-6.12 6.52-3.33 0-5.89-2.43-5.89-6.32 0-4.11 2.69-6.52 6.09-6.52s5.92 2.54 5.92 6.32zm-9.75.13c0 2.69 1.55 4.72 3.73 4.72s3.73-2 3.73-4.77c0-2.09-1-4.73-3.68-4.73s-3.78 2.44-3.78 4.78zM466.14 241.06c0-1.27 0-2.31-.11-3.32h2l.13 2h.05a4.51 4.51 0 0 1 4.06-2.31c1.71 0 4.35 1 4.35 5.23V250h-2.24v-7.09c0-2-.73-3.63-2.84-3.63a3.18 3.18 0 0 0-3 2.29 3.26 3.26 0 0 0-.15 1V250h-2.23zM242.19 294l-4.35-17.12h2.34l2 8.66c.51 2.13 1 4.27 1.27 5.92h.05c.28-1.7.81-3.74 1.4-5.95l2.28-8.63h2.31l2.09 8.69c.48 2 .94 4.06 1.19 5.86.36-1.88.84-3.78 1.37-5.92l2.26-8.63h2.26L253.89 294h-2.31l-2.16-8.92a50.16 50.16 0 0 1-1.11-5.58h-.06a51.09 51.09 0 0 1-1.32 5.58L244.5 294zM266.76 294l-.18-1.55h-.07a4.6 4.6 0 0 1-3.76 1.82 3.5 3.5 0 0 1-3.76-3.52c0-3 2.64-4.6 7.39-4.57V286a2.53 2.53 0 0 0-2.79-2.84 6.11 6.11 0 0 0-3.2.91l-.51-1.47a7.65 7.65 0 0 1 4-1.09c3.76 0 4.67 2.56 4.67 5v4.6a17.62 17.62 0 0 0 .2 2.95zm-.33-6.28c-2.43-.05-5.2.38-5.2 2.77a2 2 0 0 0 2.1 2.13 3.07 3.07 0 0 0 3-2 2.52 2.52 0 0 0 .12-.71zM272.2 285.57c0-1.45 0-2.69-.11-3.83h2l.08 2.41h.1a3.68 3.68 0 0 1 3.4-2.69 2.43 2.43 0 0 1 .63.07v2.11a3.28 3.28 0 0 0-.76-.08 3.13 3.13 0 0 0-3 2.87 6.38 6.38 0 0 0-.11 1V294h-2.2zM281.49 288.29c.05 3 2 4.26 4.21 4.26a8.22 8.22 0 0 0 3.41-.63l.38 1.6a10.1 10.1 0 0 1-4.09.76c-3.78 0-6-2.49-6-6.2s2.18-6.62 5.76-6.62c4 0 5.08 3.53 5.08 5.79a7.57 7.57 0 0 1-.08 1zm6.55-1.6c0-1.42-.58-3.63-3.1-3.63-2.26 0-3.25 2.08-3.43 3.63zM293 276h2.24v7.67h.05a4.05 4.05 0 0 1 1.6-1.58 4.61 4.61 0 0 1 2.28-.63c1.65 0 4.29 1 4.29 5.25V294h-2.23v-7c0-2-.74-3.66-2.84-3.66a3.22 3.22 0 0 0-3 2.23 2.69 2.69 0 0 0-.15 1.07V294H293zM318.18 287.78c0 4.54-3.15 6.52-6.12 6.52-3.33 0-5.89-2.43-5.89-6.32 0-4.11 2.69-6.52 6.09-6.52s5.92 2.54 5.92 6.32zm-9.75.13c0 2.69 1.54 4.72 3.73 4.72s3.73-2 3.73-4.77c0-2.09-1-4.73-3.68-4.73s-3.78 2.44-3.78 4.78zM331.28 290.67c0 1.27 0 2.39.1 3.36h-2l-.13-2a4.62 4.62 0 0 1-4.06 2.28c-1.93 0-4.24-1.06-4.24-5.38v-7.18h2.23v6.8c0 2.34.71 3.91 2.74 3.91a3.13 3.13 0 0 0 3.15-3.17v-7.54h2.24zM334.68 291.74a5.87 5.87 0 0 0 2.94.89c1.63 0 2.39-.81 2.39-1.83s-.63-1.65-2.29-2.26c-2.2-.79-3.25-2-3.25-3.48 0-2 1.6-3.6 4.24-3.6a6.13 6.13 0 0 1 3 .76l-.56 1.62a4.82 4.82 0 0 0-2.52-.71c-1.32 0-2.05.76-2.05 1.68s.73 1.47 2.33 2.08c2.14.81 3.23 1.88 3.23 3.71 0 2.16-1.68 3.68-4.6 3.68a7 7 0 0 1-3.45-.84zM346.28 288.29a3.93 3.93 0 0 0 4.22 4.26 8.21 8.21 0 0 0 3.4-.63l.38 1.6a10.06 10.06 0 0 1-4.09.76c-3.78 0-6-2.49-6-6.2s2.18-6.62 5.76-6.62c4 0 5.08 3.53 5.08 5.79a7.57 7.57 0 0 1-.08 1zm6.55-1.6c0-1.42-.58-3.63-3.1-3.63-2.26 0-3.25 2.08-3.42 3.63zM362.83 291.74a5.88 5.88 0 0 0 2.95.89c1.62 0 2.39-.81 2.39-1.83s-.64-1.65-2.29-2.26c-2.21-.79-3.25-2-3.25-3.48 0-2 1.6-3.6 4.24-3.6a6.08 6.08 0 0 1 3 .76l-.56 1.62a4.81 4.81 0 0 0-2.51-.71c-1.32 0-2.06.76-2.06 1.68s.74 1.47 2.34 2.08c2.13.81 3.22 1.88 3.22 3.71 0 2.16-1.67 3.68-4.59 3.68a7 7 0 0 1-3.46-.84zM374.44 288.29c.05 3 2 4.26 4.21 4.26a8.17 8.17 0 0 0 3.4-.63l.38 1.6a10 10 0 0 1-4.08.76c-3.79 0-6.05-2.49-6.05-6.2s2.19-6.62 5.77-6.62c4 0 5.07 3.53 5.07 5.79a10.18 10.18 0 0 1-.07 1zm6.55-1.6c0-1.42-.59-3.63-3.1-3.63-2.26 0-3.25 2.08-3.43 3.63zM385.91 285.57c0-1.45 0-2.69-.1-3.83h1.95l.08 2.41h.1a3.69 3.69 0 0 1 3.4-2.69 2.46 2.46 0 0 1 .64.07v2.11a3.41 3.41 0 0 0-.76-.08 3.14 3.14 0 0 0-3 2.87 6.44 6.44 0 0 0-.1 1V294h-2.21zM395.71 281.74l2.41 6.9a30.36 30.36 0 0 1 1 3.15h.08c.28-1 .63-2 1-3.15l2.39-6.9H405L400.13 294H398l-4.68-12.29zM409.55 278.28a1.39 1.39 0 0 1-2.77 0 1.36 1.36 0 0 1 1.4-1.39 1.33 1.33 0 0 1 1.37 1.39zM407.06 294v-12.26h2.23V294zM421.76 293.57a8.33 8.33 0 0 1-3.53.71c-3.71 0-6.12-2.51-6.12-6.27a6.24 6.24 0 0 1 6.6-6.53 7.39 7.39 0 0 1 3.1.64l-.51 1.72a5.23 5.23 0 0 0-2.59-.58c-2.82 0-4.34 2.08-4.34 4.65 0 2.84 1.83 4.59 4.27 4.59a6.34 6.34 0 0 0 2.74-.61zM425.46 288.29c.06 3 2 4.26 4.22 4.26a8.17 8.17 0 0 0 3.4-.63l.38 1.6a10 10 0 0 1-4.08.76c-3.79 0-6.05-2.49-6.05-6.2s2.19-6.62 5.77-6.62c4 0 5.07 3.53 5.07 5.79a10.18 10.18 0 0 1-.07 1zm6.56-1.6c0-1.42-.59-3.63-3.1-3.63-2.26 0-3.25 2.08-3.43 3.63zM436.64 291.74a5.84 5.84 0 0 0 2.94.89c1.63 0 2.39-.81 2.39-1.83s-.64-1.65-2.29-2.26c-2.21-.79-3.25-2-3.25-3.48 0-2 1.6-3.6 4.24-3.6a6.05 6.05 0 0 1 3 .76l-.55 1.62a4.89 4.89 0 0 0-2.52-.71c-1.32 0-2.05.76-2.05 1.68s.73 1.47 2.33 2.08c2.13.81 3.23 1.88 3.23 3.71 0 2.16-1.68 3.68-4.6 3.68a7 7 0 0 1-3.45-.84zM49.42 454.71v-18.87h3.92l4.88 8.09a51.77 51.77 0 0 1 3.22 6.33h.05c-.22-2.52-.31-5-.31-7.84v-6.58h3.2v18.87h-3.56l-4.93-8.29a67.41 67.41 0 0 1-3.39-6.52h-.08c.14 2.43.17 4.93.17 8v6.75zM70.65 448.86c.08 2.46 2 3.53 4.2 3.53a10.32 10.32 0 0 0 3.78-.62l.5 2.38a12.74 12.74 0 0 1-4.76.84c-4.42 0-7-2.71-7-6.89 0-3.78 2.3-7.33 6.67-7.33s5.88 3.64 5.88 6.63a9.21 9.21 0 0 1-.11 1.46zm6-2.41c0-1.26-.53-3.33-2.83-3.33-2.13 0-3 1.93-3.16 3.33zM86.61 437.18v3.9h3.27v2.57h-3.27v6c0 1.65.45 2.52 1.76 2.52a4.88 4.88 0 0 0 1.35-.17v2.64a7.74 7.74 0 0 1-2.49.33 4 4 0 0 1-3-1.12 5.41 5.41 0 0 1-1.06-3.81v-6.41h-2v-2.57h2V438zM94.75 441.08l1.43 6.18c.31 1.46.62 2.94.87 4.43h.06c.28-1.49.72-3 1.12-4.4l1.76-6.21h2.8l1.71 6c.42 1.6.78 3.08 1.09 4.57h.06c.22-1.49.53-3 .89-4.57l1.51-6h3.39l-4.28 13.63H104l-1.63-5.54a42.64 42.64 0 0 1-1-4.37h-.06a34.78 34.78 0 0 1-1 4.37l-1.73 5.54h-3.32l-4-13.63zM126.25 447.77c0 5-3.52 7.25-7 7.25-3.86 0-6.83-2.66-6.83-7s2.94-7.22 7.06-7.22 6.77 2.82 6.77 6.97zm-10.27.14c0 2.63 1.29 4.62 3.39 4.62s3.33-1.94 3.33-4.68c0-2.13-1-4.56-3.3-4.56s-3.4 2.35-3.4 4.62zM129.08 445.47c0-1.85 0-3.16-.11-4.39h3l.11 2.6h.11a4.07 4.07 0 0 1 3.72-2.91 3.46 3.46 0 0 1 .82.08v3.25a4.57 4.57 0 0 0-1-.11 3 3 0 0 0-3.08 2.6 5.59 5.59 0 0 0-.11 1.07v7h-3.45zM142.49 447.07h.06c.34-.53.73-1.12 1.09-1.6l3.31-4.39h4.14l-5 5.57 5.77 8.06h-4.23l-3.92-6-1.18 1.37v4.65h-3.44v-19.9h3.44zM239.09 373.15a7.83 7.83 0 0 0 4 1.12c2.26 0 3.58-1.2 3.58-2.92s-.91-2.52-3.22-3.41c-2.8-1-4.52-2.43-4.52-4.85 0-2.66 2.2-4.64 5.53-4.64a7.66 7.66 0 0 1 3.78.84l-.61 1.8a6.72 6.72 0 0 0-3.25-.81c-2.33 0-3.22 1.39-3.22 2.56 0 1.6 1 2.39 3.4 3.3 2.9 1.12 4.37 2.51 4.37 5s-2 4.92-6 4.92a8.84 8.84 0 0 1-4.37-1.09zM262.12 372.49c0 1.27 0 2.39.1 3.35h-2l-.13-2h-.05a4.62 4.62 0 0 1-4.06 2.29c-1.93 0-4.24-1.07-4.24-5.38v-7.19H254v6.81c0 2.33.71 3.91 2.74 3.91a3.25 3.25 0 0 0 2.95-2 3.17 3.17 0 0 0 .2-1.14v-7.54h2.24zM265.82 367.56c0-1.57-.05-2.84-.1-4h2l.1 2.11h.05a4.83 4.83 0 0 1 4.37-2.39c3 0 5.2 2.52 5.2 6.25 0 4.42-2.69 6.6-5.58 6.6a4.32 4.32 0 0 1-3.79-1.93H268v6.68h-2.21zm2.21 3.28a5.07 5.07 0 0 0 .1.91 3.46 3.46 0 0 0 3.36 2.62c2.36 0 3.73-1.93 3.73-4.75 0-2.46-1.3-4.57-3.66-4.57a3.58 3.58 0 0 0-3.38 2.77 3.93 3.93 0 0 0-.15.91zM280.27 367.56c0-1.57 0-2.84-.1-4h2l.1 2.11h.06a4.82 4.82 0 0 1 4.36-2.39c3 0 5.21 2.52 5.21 6.25 0 4.42-2.69 6.6-5.59 6.6a4.3 4.3 0 0 1-3.78-1.93v6.68h-2.21zm2.21 3.28a5.07 5.07 0 0 0 .1.91 3.45 3.45 0 0 0 3.35 2.62c2.36 0 3.73-1.93 3.73-4.75 0-2.46-1.29-4.57-3.65-4.57a3.56 3.56 0 0 0-3.38 2.77 3.47 3.47 0 0 0-.15.91zM294.71 357.81H297v18h-2.24zM301.52 363.55l2.69 7.26c.28.82.58 1.78.79 2.52h.05c.23-.74.48-1.68.78-2.57l2.44-7.21h2.36l-3.35 8.76c-1.6 4.22-2.69 6.37-4.21 7.69a6 6 0 0 1-2.75 1.45l-.55-1.88a6 6 0 0 0 2-1.09 6.8 6.8 0 0 0 1.83-2.48 1.63 1.63 0 0 0 .18-.53 1.87 1.87 0 0 0-.15-.58l-4.55-11.33zM326.8 375.38a8.09 8.09 0 0 1-3.52.71c-3.71 0-6.12-2.51-6.12-6.27a6.24 6.24 0 0 1 6.6-6.52 7.57 7.57 0 0 1 3.1.63l-.51 1.73a5.13 5.13 0 0 0-2.59-.59c-2.82 0-4.34 2.09-4.34 4.65 0 2.84 1.82 4.6 4.26 4.6a6.31 6.31 0 0 0 2.74-.61zM329.42 357.81h2.23v7.67h.05a4.23 4.23 0 0 1 1.6-1.57 4.62 4.62 0 0 1 2.29-.64c1.65 0 4.29 1 4.29 5.26v7.31h-2.23v-7.06c0-2-.74-3.65-2.85-3.65a3.19 3.19 0 0 0-3 2.23 2.62 2.62 0 0 0-.16 1.07v7.41h-2.23zM350.31 375.84l-.17-1.55h-.08a4.56 4.56 0 0 1-3.76 1.83 3.5 3.5 0 0 1-3.76-3.53c0-3 2.65-4.6 7.39-4.57v-.25a2.54 2.54 0 0 0-2.79-2.85 6.11 6.11 0 0 0-3.2.92l-.51-1.48a7.65 7.65 0 0 1 4-1.09c3.76 0 4.67 2.57 4.67 5v4.59a16.55 16.55 0 0 0 .21 2.95zm-.33-6.27c-2.43-.05-5.2.38-5.2 2.77a2 2 0 0 0 2.11 2.13 3.06 3.06 0 0 0 3-2.06 2.52 2.52 0 0 0 .12-.71zM358.24 360.1a1.39 1.39 0 0 1-2.77 0 1.36 1.36 0 0 1 1.39-1.4 1.33 1.33 0 0 1 1.38 1.4zm-2.49 15.74v-12.29H358v12.29zM361.69 366.88c0-1.27 0-2.31-.1-3.33h2l.12 2h.05a4.53 4.53 0 0 1 4.07-2.31c1.7 0 4.34 1 4.34 5.23v7.34h-2.24v-7.08c0-2-.73-3.63-2.84-3.63a3.19 3.19 0 0 0-3 2.28 3.26 3.26 0 0 0-.15 1v7.39h-2.23zM381.16 367.38c0-1.44 0-2.69-.1-3.83H383l.08 2.41h.1a3.69 3.69 0 0 1 3.4-2.69 2.43 2.43 0 0 1 .64.08v2.11a2.91 2.91 0 0 0-.76-.08 3.13 3.13 0 0 0-3 2.87 6.33 6.33 0 0 0-.1 1v6.55h-2.21zM392.05 360.1a1.31 1.31 0 0 1-1.42 1.37 1.33 1.33 0 0 1-1.35-1.37 1.37 1.37 0 0 1 1.4-1.4 1.33 1.33 0 0 1 1.37 1.4zm-2.49 15.74v-12.29h2.24v12.29zM395.2 373.55a5.78 5.78 0 0 0 2.94.89c1.63 0 2.39-.81 2.39-1.82s-.63-1.66-2.28-2.26c-2.21-.79-3.25-2-3.25-3.48 0-2 1.6-3.61 4.24-3.61a6.22 6.22 0 0 1 3 .76l-.56 1.63a4.72 4.72 0 0 0-2.51-.71c-1.32 0-2.06.76-2.06 1.67s.74 1.48 2.33 2.09c2.14.81 3.23 1.87 3.23 3.7 0 2.16-1.68 3.68-4.6 3.68a7.09 7.09 0 0 1-3.45-.83zM407.77 369.19h.05c.3-.43.73-1 1.09-1.4l3.6-4.24h2.7l-4.75 5.05 5.41 7.24h-2.72l-4.24-5.84-1.14 1.27v4.62h-2.21v-18h2.21zM422.85 366.88c0-1.27 0-2.31-.1-3.33h1.95l.1 2h.08a4.23 4.23 0 0 1 3.86-2.26 3.65 3.65 0 0 1 3.48 2.46 5.19 5.19 0 0 1 1.37-1.6 4.22 4.22 0 0 1 2.71-.86c1.63 0 4 1.07 4 5.33v7.24h-2.18v-7c0-2.36-.87-3.78-2.67-3.78a2.89 2.89 0 0 0-2.64 2 3.75 3.75 0 0 0-.18 1.12v7.59h-2.18v-7.36c0-2-.86-3.38-2.56-3.38a3.33 3.33 0 0 0-3 3.33v7.41h-2.18zM450.83 375.84l-.18-1.55h-.08a4.55 4.55 0 0 1-3.76 1.83 3.5 3.5 0 0 1-3.75-3.53c0-3 2.64-4.6 7.38-4.57v-.25a2.53 2.53 0 0 0-2.79-2.85 6.14 6.14 0 0 0-3.2.92l-.51-1.48a7.65 7.65 0 0 1 4-1.09c3.76 0 4.67 2.57 4.67 5v4.59a16.55 16.55 0 0 0 .21 2.95zm-.33-6.27c-2.44-.05-5.21.38-5.21 2.77a2 2 0 0 0 2.11 2.13 3.06 3.06 0 0 0 3-2.06 2.53 2.53 0 0 0 .13-.71zM456.26 366.88c0-1.27 0-2.31-.1-3.33h2l.12 2h.05a4.53 4.53 0 0 1 4.07-2.31c1.7 0 4.34 1 4.34 5.23v7.34h-2.24v-7.08c0-2-.73-3.63-2.84-3.63a3.19 3.19 0 0 0-3 2.28 3.26 3.26 0 0 0-.15 1v7.39h-2.23zM477.15 375.84l-.17-1.55h-.08a4.58 4.58 0 0 1-3.76 1.83 3.5 3.5 0 0 1-3.76-3.53c0-3 2.64-4.6 7.39-4.57v-.25a2.54 2.54 0 0 0-2.79-2.85 6.11 6.11 0 0 0-3.2.92l-.51-1.48a7.65 7.65 0 0 1 4-1.09c3.76 0 4.67 2.57 4.67 5v4.59a17.62 17.62 0 0 0 .2 2.95zm-.33-6.27c-2.43-.05-5.2.38-5.2 2.77a2 2 0 0 0 2.11 2.13 3.06 3.06 0 0 0 3-2.06 2.52 2.52 0 0 0 .12-.71zM493.17 363.55c-.05.89-.1 1.88-.1 3.38v7.13c0 2.82-.56 4.55-1.75 5.61a6.5 6.5 0 0 1-4.47 1.48 8 8 0 0 1-4.09-1l.56-1.7a6.9 6.9 0 0 0 3.61 1c2.28 0 4-1.19 4-4.29v-1.37h-.05a4.38 4.38 0 0 1-3.91 2.06c-3.05 0-5.23-2.59-5.23-6 0-4.17 2.71-6.53 5.53-6.53a4.11 4.11 0 0 1 3.84 2.13h.05l.1-1.85zm-2.31 4.85a3.29 3.29 0 0 0-.12-1 3.23 3.23 0 0 0-3.13-2.36c-2.13 0-3.65 1.81-3.65 4.65 0 2.41 1.22 4.42 3.63 4.42a3.28 3.28 0 0 0 3.1-2.29 4.08 4.08 0 0 0 .17-1.19zM498 370.1c.05 3 2 4.27 4.22 4.27a8 8 0 0 0 3.4-.64l.38 1.6a9.89 9.89 0 0 1-4.09.76c-3.78 0-6-2.48-6-6.19s2.18-6.63 5.76-6.63c4 0 5.08 3.53 5.08 5.79a7.43 7.43 0 0 1-.08 1zm6.55-1.6c0-1.42-.58-3.63-3.1-3.63-2.26 0-3.25 2.08-3.42 3.63zM509.5 366.88c0-1.27 0-2.31-.1-3.33h2l.1 2h.08a4.23 4.23 0 0 1 3.86-2.26 3.65 3.65 0 0 1 3.48 2.46 5.19 5.19 0 0 1 1.37-1.6 4.22 4.22 0 0 1 2.71-.86c1.63 0 4 1.07 4 5.33v7.24h-2.18v-7c0-2.36-.86-3.78-2.67-3.78a2.89 2.89 0 0 0-2.64 2 3.75 3.75 0 0 0-.18 1.12v7.59h-2.18v-7.36c0-2-.86-3.38-2.56-3.38a3.33 3.33 0 0 0-2.95 3.33v7.41h-2.14zM531.92 370.1c.05 3 2 4.27 4.21 4.27a8 8 0 0 0 3.4-.64l.38 1.6a9.83 9.83 0 0 1-4.08.76c-3.79 0-6.05-2.48-6.05-6.19s2.19-6.63 5.77-6.63c4 0 5.07 3.53 5.07 5.79a10 10 0 0 1-.07 1zm6.55-1.6c0-1.42-.59-3.63-3.1-3.63-2.26 0-3.25 2.08-3.43 3.63zM543.39 366.88c0-1.27 0-2.31-.1-3.33h2l.13 2h.05a4.51 4.51 0 0 1 4.06-2.31c1.7 0 4.34 1 4.34 5.23v7.34h-2.23v-7.08c0-2-.74-3.63-2.85-3.63a3.17 3.17 0 0 0-3 2.28 3.26 3.26 0 0 0-.15 1v7.39h-2.24zM560.07 360v3.53h3.2v1.7h-3.2v6.63c0 1.52.43 2.39 1.68 2.39a4.73 4.73 0 0 0 1.29-.16l.1 1.68a5.4 5.4 0 0 1-2 .3 3.09 3.09 0 0 1-2.41-.94 4.56 4.56 0 0 1-.86-3.19v-6.71H556v-1.7h1.91v-2.94zM251.35 419.28a10.88 10.88 0 0 1-4.52.81c-4.82 0-8.45-3-8.45-8.65 0-5.36 3.63-9 8.94-9a9.12 9.12 0 0 1 4.06.76l-.54 1.8a8.1 8.1 0 0 0-3.45-.71c-4 0-6.68 2.57-6.68 7.06 0 4.19 2.42 6.88 6.58 6.88a8.88 8.88 0 0 0 3.61-.71zM264.88 413.59c0 4.55-3.14 6.53-6.12 6.53-3.32 0-5.89-2.44-5.89-6.32 0-4.12 2.7-6.53 6.1-6.53s5.91 2.57 5.91 6.32zm-9.75.13c0 2.69 1.55 4.72 3.74 4.72s3.73-2 3.73-4.77c0-2.08-1-4.72-3.68-4.72s-3.79 2.43-3.79 4.77zM267.7 410.88c0-1.27 0-2.31-.1-3.33h1.95l.11 2h.07a4.24 4.24 0 0 1 3.86-2.26 3.63 3.63 0 0 1 3.48 2.46h.05a5.19 5.19 0 0 1 1.37-1.6 4.25 4.25 0 0 1 2.72-.86c1.62 0 4 1.07 4 5.33v7.24h-2.19v-7c0-2.36-.86-3.78-2.66-3.78a2.89 2.89 0 0 0-2.64 2 3.46 3.46 0 0 0-.18 1.12v7.59h-2.19v-7.36c0-2-.86-3.38-2.56-3.38a3.06 3.06 0 0 0-2.77 2.23 3.25 3.25 0 0 0-.18 1.1v7.41h-2.14zM288.88 411.56c0-1.57-.06-2.84-.11-4h2l.1 2.11h.05a4.84 4.84 0 0 1 4.37-2.39c3 0 5.2 2.52 5.2 6.25 0 4.42-2.69 6.6-5.58 6.6a4.32 4.32 0 0 1-3.79-1.93h-.05v6.68h-2.2zm2.2 3.28a4.28 4.28 0 0 0 .11.91 3.44 3.44 0 0 0 3.35 2.62c2.36 0 3.73-1.93 3.73-4.75 0-2.46-1.3-4.57-3.66-4.57a3.56 3.56 0 0 0-3.37 2.77 3.47 3.47 0 0 0-.16.91zM303.32 401.81h2.23v18h-2.23zM311.8 404.1a1.31 1.31 0 0 1-1.42 1.37 1.33 1.33 0 0 1-1.38-1.37 1.37 1.37 0 0 1 1.4-1.4 1.33 1.33 0 0 1 1.4 1.4zm-2.49 15.74v-12.29h2.24v12.29zM322.06 419.84l-.18-1.55h-.08a4.55 4.55 0 0 1-3.76 1.83 3.5 3.5 0 0 1-3.75-3.53c0-3 2.64-4.6 7.39-4.57v-.25a2.54 2.54 0 0 0-2.8-2.85 6.14 6.14 0 0 0-3.2.92l-.5-1.48a7.58 7.58 0 0 1 4-1.09c3.76 0 4.67 2.57 4.67 5v4.59a17.55 17.55 0 0 0 .21 2.95zm-.33-6.27c-2.44-.05-5.21.38-5.21 2.77a2 2 0 0 0 2.11 2.13 3.06 3.06 0 0 0 3-2.06 2.22 2.22 0 0 0 .13-.71zM327.49 410.88c0-1.27 0-2.31-.1-3.33h2l.13 2h.05a4.51 4.51 0 0 1 4.06-2.31c1.7 0 4.34 1 4.34 5.23v7.34h-2.23v-7.08c0-2-.74-3.63-2.85-3.63a3.17 3.17 0 0 0-3 2.28 3 3 0 0 0-.16 1v7.39h-2.23zM350.34 419.38a8.14 8.14 0 0 1-3.53.71c-3.71 0-6.12-2.51-6.12-6.27a6.24 6.24 0 0 1 6.6-6.52 7.57 7.57 0 0 1 3.1.63l-.51 1.73a5.1 5.1 0 0 0-2.59-.59c-2.82 0-4.34 2.09-4.34 4.65 0 2.84 1.83 4.6 4.27 4.6a6.34 6.34 0 0 0 2.74-.61zM354.05 414.1c.05 3 2 4.27 4.21 4.27a8 8 0 0 0 3.4-.64l.38 1.6a9.83 9.83 0 0 1-4.08.76c-3.79 0-6-2.48-6-6.19s2.19-6.63 5.77-6.63c4 0 5.08 3.53 5.08 5.79a7.43 7.43 0 0 1-.08 1zm6.55-1.6c0-1.42-.59-3.63-3.1-3.63-2.26 0-3.25 2.08-3.43 3.63zM377.71 419.84l-.18-1.55h-.07a4.58 4.58 0 0 1-3.76 1.83 3.5 3.5 0 0 1-3.76-3.53c0-3 2.64-4.6 7.39-4.57v-.25a2.54 2.54 0 0 0-2.79-2.85 6.09 6.09 0 0 0-3.2.92l-.51-1.48a7.62 7.62 0 0 1 4-1.09c3.75 0 4.67 2.57 4.67 5v4.59a17.62 17.62 0 0 0 .2 2.95zm-.33-6.27c-2.44-.05-5.21.38-5.21 2.77a2 2 0 0 0 2.11 2.13 3.05 3.05 0 0 0 3-2.06 2.22 2.22 0 0 0 .13-.71zM383.14 410.88c0-1.27 0-2.31-.1-3.33h2l.13 2h.05a4.51 4.51 0 0 1 4.06-2.31c1.7 0 4.34 1 4.34 5.23v7.34h-2.23v-7.08c0-2-.74-3.63-2.85-3.63a3.17 3.17 0 0 0-3 2.28 3.26 3.26 0 0 0-.15 1v7.39h-2.24zM407.85 401.81v14.86c0 1.09 0 2.33.1 3.17h-2l-.1-2.13a4.55 4.55 0 0 1-4.19 2.41c-3 0-5.26-2.51-5.26-6.25 0-4.08 2.52-6.6 5.51-6.6a4.12 4.12 0 0 1 3.71 1.88h.05v-7.34zm-2.24 10.74a3.76 3.76 0 0 0-.1-.94 3.29 3.29 0 0 0-3.22-2.59c-2.32 0-3.69 2-3.69 4.75 0 2.49 1.22 4.55 3.63 4.55a3.36 3.36 0 0 0 3.28-2.67 3.68 3.68 0 0 0 .1-1zM423.74 419.84l-.18-1.55h-.08a4.54 4.54 0 0 1-3.75 1.83 3.5 3.5 0 0 1-3.76-3.53c0-3 2.64-4.6 7.39-4.57v-.25a2.54 2.54 0 0 0-2.8-2.85 6.08 6.08 0 0 0-3.19.92l-.51-1.48a7.61 7.61 0 0 1 4-1.09c3.76 0 4.68 2.57 4.68 5v4.59a17.62 17.62 0 0 0 .2 2.95zm-.33-6.27c-2.44-.05-5.21.38-5.21 2.77a2 2 0 0 0 2.11 2.13 3.05 3.05 0 0 0 3-2.06 2.22 2.22 0 0 0 .13-.71zM439.45 416.49c0 1.27 0 2.39.1 3.35h-2l-.12-2h-.05a4.64 4.64 0 0 1-4.07 2.29c-1.93 0-4.24-1.07-4.24-5.38v-7.19h2.24v6.81c0 2.33.71 3.91 2.74 3.91a3.25 3.25 0 0 0 2.95-2 3.4 3.4 0 0 0 .2-1.14v-7.54h2.23zM453.77 401.81v14.86c0 1.09 0 2.33.11 3.17h-2l-.1-2.13a4.56 4.56 0 0 1-4.19 2.41c-3 0-5.26-2.51-5.26-6.25 0-4.08 2.52-6.6 5.51-6.6a4.12 4.12 0 0 1 3.71 1.88h.05v-7.34zm-2.23 10.74a4.29 4.29 0 0 0-.1-.94 3.29 3.29 0 0 0-3.23-2.59c-2.31 0-3.68 2-3.68 4.75 0 2.49 1.22 4.55 3.63 4.55a3.36 3.36 0 0 0 3.28-2.67 4.16 4.16 0 0 0 .1-1zM460 404.1a1.39 1.39 0 0 1-2.77 0 1.36 1.36 0 0 1 1.4-1.4 1.33 1.33 0 0 1 1.37 1.4zm-2.49 15.74v-12.29h2.23v12.29zM466.11 404v3.53h3.2v1.7h-3.2v6.63c0 1.52.43 2.39 1.68 2.39a4.73 4.73 0 0 0 1.29-.16l.1 1.68a5.4 5.4 0 0 1-2 .3 3.09 3.09 0 0 1-2.41-.94 4.56 4.56 0 0 1-.86-3.19v-6.71H462v-1.7h1.91v-2.94zM471.52 417.55a5.78 5.78 0 0 0 2.94.89c1.63 0 2.39-.81 2.39-1.82s-.64-1.66-2.29-2.26c-2.2-.79-3.25-2-3.25-3.48 0-2 1.6-3.61 4.24-3.61a6.23 6.23 0 0 1 3 .76l-.56 1.63a4.73 4.73 0 0 0-2.52-.71c-1.32 0-2.05.76-2.05 1.67s.73 1.48 2.33 2.09c2.14.81 3.23 1.87 3.23 3.7 0 2.16-1.68 3.68-4.6 3.68a7.09 7.09 0 0 1-3.45-.83zM239.39 463.84v-17.11h2.42l5.48 8.65a47.71 47.71 0 0 1 3.07 5.57c-.2-2.29-.25-4.37-.25-7v-7.16h2.08v17.11H250l-5.44-8.68a56.2 56.2 0 0 1-3.2-5.72h-.07c.12 2.16.18 4.21.18 7.06v7.31zM257.27 458.1c.05 3 2 4.27 4.21 4.27a8 8 0 0 0 3.4-.64l.38 1.6a9.83 9.83 0 0 1-4.08.76c-3.79 0-6.05-2.48-6.05-6.19s2.19-6.63 5.77-6.63c4 0 5.08 3.53 5.08 5.79a9.4 9.4 0 0 1-.08 1zm6.55-1.6c0-1.42-.59-3.63-3.1-3.63-2.26 0-3.25 2.08-3.43 3.63zM271.43 448v3.53h3.2v1.7h-3.2v6.63c0 1.52.44 2.39 1.68 2.39a4.67 4.67 0 0 0 1.29-.16l.11 1.68a5.48 5.48 0 0 1-2 .3 3.11 3.11 0 0 1-2.42-.94 4.56 4.56 0 0 1-.86-3.19v-6.71h-1.9v-1.7h1.9v-2.94zM278.26 451.55l1.63 6.25c.35 1.37.68 2.64.91 3.91h.08c.28-1.25.68-2.57 1.09-3.89l2-6.27h1.87l1.91 6.15c.46 1.47.81 2.76 1.09 4h.08a35.29 35.29 0 0 1 .94-4l1.75-6.17h2.21l-4 12.29h-2L286 458a40.46 40.46 0 0 1-1.1-4h-.05a35.82 35.82 0 0 1-1.15 4l-2 5.84h-2l-3.7-12.29zM306.93 457.59c0 4.55-3.15 6.53-6.12 6.53-3.33 0-5.89-2.44-5.89-6.32 0-4.12 2.69-6.53 6.09-6.53s5.92 2.57 5.92 6.32zm-9.75.13c0 2.69 1.55 4.72 3.73 4.72s3.73-2 3.73-4.77c0-2.08-1-4.72-3.68-4.72s-3.78 2.43-3.78 4.77zM309.74 455.38c0-1.44 0-2.69-.1-3.83h2l.07 2.41h.11a3.67 3.67 0 0 1 3.4-2.69 2.41 2.41 0 0 1 .63.08v2.11a2.86 2.86 0 0 0-.76-.08 3.14 3.14 0 0 0-3 2.87 6.33 6.33 0 0 0-.1 1v6.55h-2.21zM320.36 457.19h.05c.3-.43.73-1 1.09-1.4l3.6-4.24h2.7l-4.75 5.05 5.41 7.24h-2.72L321.5 458l-1.14 1.27v4.62h-2.21v-18h2.21zM342.24 463.84l-.18-1.55H342a4.58 4.58 0 0 1-3.76 1.83 3.5 3.5 0 0 1-3.76-3.53c0-3 2.64-4.6 7.39-4.57v-.25a2.54 2.54 0 0 0-2.79-2.85 6.09 6.09 0 0 0-3.2.92l-.51-1.48a7.65 7.65 0 0 1 4-1.09c3.76 0 4.67 2.57 4.67 5v4.59a17.62 17.62 0 0 0 .2 2.95zm-.33-6.27c-2.44-.05-5.2.38-5.2 2.77a2 2 0 0 0 2.1 2.13 3.05 3.05 0 0 0 3-2.06 2.22 2.22 0 0 0 .13-.71zM347.67 454.88c0-1.27 0-2.31-.1-3.33h2l.13 2h.05a4.51 4.51 0 0 1 4.06-2.31c1.7 0 4.34 1 4.34 5.23v7.34h-2.25v-7.08c0-2-.74-3.63-2.84-3.63a3.17 3.17 0 0 0-3 2.28 3.26 3.26 0 0 0-.15 1v7.39h-2.24zM368.57 463.84l-.18-1.55h-.07a4.58 4.58 0 0 1-3.76 1.83 3.5 3.5 0 0 1-3.76-3.53c0-3 2.64-4.6 7.39-4.57v-.25a2.54 2.54 0 0 0-2.79-2.85 6.09 6.09 0 0 0-3.2.92l-.51-1.48a7.62 7.62 0 0 1 4-1.09c3.75 0 4.67 2.57 4.67 5v4.59a17.62 17.62 0 0 0 .2 2.95zm-.33-6.27c-2.44-.05-5.21.38-5.21 2.77a2 2 0 0 0 2.11 2.13 3.05 3.05 0 0 0 3-2.06 2.22 2.22 0 0 0 .13-.71zM374 445.81h2.24v18H374zM380.81 451.55l2.69 7.26c.28.82.58 1.78.78 2.52h.05c.23-.74.49-1.68.79-2.57l2.44-7.21h2.36l-3.35 8.76c-1.6 4.22-2.69 6.37-4.22 7.69a6 6 0 0 1-2.74 1.45l-.56-1.88a5.92 5.92 0 0 0 2-1.09 6.8 6.8 0 0 0 1.88-2.49 1.63 1.63 0 0 0 .18-.53 2 2 0 0 0-.16-.58l-4.54-11.33zM391.49 461.55a5.78 5.78 0 0 0 2.95.89c1.62 0 2.39-.81 2.39-1.82s-.64-1.66-2.29-2.26c-2.21-.79-3.25-2-3.25-3.48 0-2 1.6-3.61 4.24-3.61a6.16 6.16 0 0 1 3 .76l-.56 1.63a4.72 4.72 0 0 0-2.51-.71c-1.32 0-2.06.76-2.06 1.67s.74 1.48 2.34 2.09c2.13.81 3.22 1.87 3.22 3.7 0 2.16-1.67 3.68-4.59 3.68a7.06 7.06 0 0 1-3.45-.83zM404.34 448.1a1.31 1.31 0 0 1-1.42 1.37 1.33 1.33 0 0 1-1.35-1.37 1.37 1.37 0 0 1 1.4-1.4 1.33 1.33 0 0 1 1.37 1.4zm-2.49 15.74v-12.29h2.24v12.29zM407.49 461.55a5.78 5.78 0 0 0 2.94.89c1.63 0 2.39-.81 2.39-1.82s-.63-1.66-2.28-2.26c-2.21-.79-3.25-2-3.25-3.48 0-2 1.59-3.61 4.24-3.61a6.22 6.22 0 0 1 3 .76l-.56 1.63a4.73 4.73 0 0 0-2.52-.71c-1.32 0-2.05.76-2.05 1.67s.73 1.48 2.33 2.09c2.14.81 3.23 1.87 3.23 3.7 0 2.16-1.68 3.68-4.6 3.68a7.09 7.09 0 0 1-3.45-.83zM125.51 73.94L124.42 70l10.27 2.6-7.38 7.59-1.14-3.91c-.63.15-1.22.28-1.81.44L94 84.87a1.07 1.07 0 0 0-.94 1 4.76 4.76 0 0 1-4.34 4 4.86 4.86 0 0 1-4.88-3.08 4.79 4.79 0 0 1 1.7-5.65 1 1 0 0 0 .46-1.26q-5.23-19.39-10.4-38.82a1.85 1.85 0 0 0-1.12-1.32c-3-1.42-6-2.9-9-4.36-.83-.41-1.11-1-.8-1.7a1.22 1.22 0 0 1 1.79-.49c3.43 1.66 6.86 3.32 10.25 5a2.16 2.16 0 0 1 .88 1.23Q81.55 54 85.43 68.55c1 3.65 2 7.3 2.91 11a1 1 0 0 0 .92.88 4.2 4.2 0 0 1 2.92 1.86c.33.5.65.48 1.12.35l27.29-7.33zm-37.18 8.71A2.49 2.49 0 0 0 85.85 85a2.53 2.53 0 0 0 2.46 2.5 2.49 2.49 0 0 0 2.42-2.44 2.45 2.45 0 0 0-2.4-2.41z"/><path class="cls-3" d="M112.6 42.55c.85 0 1.16.52 1.35 1.22q1.92 7.23 3.87 14.45 1.4 5.19 2.78 10.38c.36 1.37.12 1.8-1.2 2.16l-24.67 6.61c-1.4.37-1.79.14-2.17-1.29Q89.31 63.92 86 51.74c-.46-1.7-.28-2 1.38-2.47l24.42-6.54zM94.73 74.87l23.38-6.27c-2.09-7.81-4.17-15.55-6.27-23.38l-23.38 6.27c2.1 7.85 4.17 15.57 6.27 23.38zM131.63 384.24a3.28 3.28 0 0 1-3.71 2.42c-2.18-.09-4.37 0-6.6 0v2.15l1.37.07V391h-11v-2.1l1.37-.09v-2.11h-7.18a2.89 2.89 0 0 1-3.1-3.09v-5.88h-6.29v5.93a2.86 2.86 0 0 1-3.07 3h-7.19v2.13l1.35.11v2.1h-11v-2.12l1.37-.08v-2.11H71c-2 0-2.82-.69-3.28-2.59 0 0-.06-.07-.09-.11V367c.84-2.3 1.35-2.65 3.91-2.65h21.87a2.85 2.85 0 0 1 3.08 3.09v7.84h6.29v-.84-7a2.87 2.87 0 0 1 3.09-3.09h22.67a2.84 2.84 0 0 1 2.94 2.12 1.16 1.16 0 0 0 .14.24zm-14.4-17.67h-11.08c-1 0-1.18.18-1.18 1.19v15.45c0 1.07.18 1.24 1.22 1.24H128.27c.95 0 1.14-.19 1.14-1.16v-15.6c0-.92-.19-1.12-1.1-1.12zm-35.09 0H71.07c-1 0-1.13.09-1.13 1.12v15.59c0 1.06.11 1.17 1.17 1.17h21.86c1.23 0 1.34-.1 1.34-1.31v-15.3c0-1.16-.1-1.27-1.23-1.27zm-1.91 20.16v2h3.7v-2zm35.13 0v2H119v-2zM104 418.67v2.17h1.37V423h-11v-2.14h1.35v-2.21h-7.36a2.78 2.78 0 0 1-2.87-2.84V409.78h-10v-7.11h-4l5.13-8.81 5 8.78h-3.89v4.85h7.72v-.77-7.29a2.82 2.82 0 0 1 3.05-3h6.2a.7.7 0 0 0 .8-.52 4.4 4.4 0 0 1 8.22 0c.17.44.42.49.82.49h6.56a2.87 2.87 0 0 1 3.11 3.14v7.97h7.38v-4.81h-4l5.15-8.84 5 8.78h-3.84v7.1h-9.65V415.72a2.83 2.83 0 0 1-2.94 2.93zm-4.12-2.19H111c.85 0 1.07-.2 1.07-1v-15.89c0-.79-.2-1-1-1h-6.57a.68.68 0 0 0-.75.5 4.41 4.41 0 0 1-8.19 0 .74.74 0 0 0-.81-.53h-6c-1 0-1.11.15-1.11 1.1v15.67c0 .95.16 1.11 1.1 1.11zm-.23-16.79a2.21 2.21 0 1 0 .07-4.42 2.21 2.21 0 1 0-.07 4.42zM98 420.78h3.7v-2H98zM119.94 242.17l5.1-8.64 5.09 8.62h-4v19.06c0 1.55-.23 1.79-1.75 1.79H70.84c-1.47 0-1.71-.25-1.71-1.73v-42.11c0-1.26.1-1.41 1.28-1.79s2.27-.77 3.43-1.1a.85.85 0 0 0 .73-1v-7.06a1.48 1.48 0 0 1 1.08-1.58c4.26-1.7 8.51-3.45 12.77-5.16a1 1 0 0 0 .77-1 4.42 4.42 0 0 1 8.82-.26c0 .54.33.61.72.72l22.3 6.55c1.32.39 1.42.52 1.42 1.92v8.08c0 .55.15.79.69.9.72.15 1.41.4 2.11.6a1.15 1.15 0 0 1 .93 1.19v5.49a1.09 1.09 0 0 1-1.06 1.21c-.66 0-1.1-.45-1.12-1.24v-4.08c0-.48-.11-.74-.62-.88l-28.06-8.06a5.56 5.56 0 0 0-.56-.11v48.31h29.14v-.85-16.86c0-.7-.16-1-.91-.92-.92.05-1.91-.01-3.05-.01zm-27.49-29.66c-.18.05-.33.07-.48.12-6.7 2.17-13.39 4.36-20.1 6.51-.61.19-.55.56-.55 1v40.66h21.13zm-15.69 2.75c.26-.06.39-.08.51-.12q7.82-2.55 15.63-5.08A2 2 0 0 1 94 210q10.13 2.88 20.23 5.81l6 1.73v-7.14a1 1 0 0 0-.86-1.19c-4.81-1.38-9.61-2.8-14.42-4.21l-7.54-2.2c-2.16 2.59-4.67 2.79-7.18.67a.8.8 0 0 0-.67-.12q-6.21 2.49-12.4 5c-.17.08-.4.31-.41.47 0 2.12.01 4.23.01 6.44zm16.81-12.49a2.24 2.24 0 0 0 2.29-2.25 2.28 2.28 0 0 0-2.25-2.24 2.35 2.35 0 0 0-2.35 2.24 2.27 2.27 0 0 0 2.31 2.25z"/><path class="cls-3" d="M89.68 220c0 .55-.44.83-1 1-3.24.92-6.47 1.86-9.7 2.79l-4.06 1.15c-.86.24-1.46 0-1.64-.71s.21-1.12 1-1.34L88 218.93c1-.27 1.68.14 1.68 1.07zM89.68 225.9c0 .6-.51.86-1.11 1l-8.11 2.1c-1.87.48-3.74 1-5.61 1.42-.84.21-1.39 0-1.58-.7s.2-1.15 1-1.36q6.9-1.77 13.79-3.52c.94-.27 1.62.16 1.62 1.06zM74.39 235.9a1 1 0 0 1-1.14-.92 1 1 0 0 1 .89-1.18c1.78-.4 3.56-.78 5.35-1.17l8.63-1.85c.82-.17 1.41.12 1.54.77s-.25 1.15-1 1.32l-13.75 3c-.2 0-.39.01-.52.03zM88.4 236.6c.74 0 1.17.27 1.26.88a1 1 0 0 1-.91 1.23l-7.24 1.35-6.77 1.24a1.14 1.14 0 0 1-1.5-.88c-.09-.61.34-1.1 1.12-1.24l11.25-2.06zM74.51 246.77a1.08 1.08 0 0 1-1.27-1 1.06 1.06 0 0 1 1-1.15l14-1.83a1.1 1.1 0 0 1 1.34.9c.1.65-.33 1.14-1.1 1.24l-12.35 1.59zM74.91 252.2h-.63a1 1 0 0 1-1-1 1 1 0 0 1 .88-1.1c.77-.11 1.56-.15 2.34-.21L88 249h.63a1 1 0 0 1 1 1 .94.94 0 0 1-.87 1.1c-.83.11-1.66.17-2.49.23l-11.4.85z"/></svg>