<svg id="Layer_1" data-name="Layer 1" xmlns="http://www.w3.org/2000/svg" width="100" height="100" viewBox="0 0 100 100"><title>vendor-management</title><path d="M62.23,100c0-3,0-6,0-9A9,9,0,0,1,71,81.91c2.14-.08,4.29,0,6.44,0a9,9,0,0,1,9,7.75,2.66,2.66,0,0,0,.21.5V100Zm21.4-3c0-2.1,0-4.08,0-6.07a6.19,6.19,0,0,0-6-6.13c-2.15,0-4.31,0-6.46,0a6.12,6.12,0,0,0-5.63,4.07c-.88,2.66-.27,5.39-.43,8.13Z"/><path d="M13.4,100c0-3.2-.09-6.41,0-9.61.1-3.92,3.09-7.69,7-8.17a41,41,0,0,1,10.14,0c4.18.54,7.09,4.42,7.11,8.66,0,3,0,6.09,0,9.14Zm2.83-3.1H34.76c0-2.06,0-4.05,0-6a6.21,6.21,0,0,0-5.92-6.1q-3.33-.11-6.68,0a6.18,6.18,0,0,0-5.9,5.63C16.13,92.52,16.23,94.67,16.23,96.9Z"/><path d="M51,0l1.41.46A8.06,8.06,0,0,1,50.1,16.21,8,8,0,0,1,42,9.51,8,8,0,0,1,48.44.23,4.88,4.88,0,0,0,49.08,0Zm4.19,8.15A5.21,5.21,0,0,0,44.74,8.1a5.21,5.21,0,1,0,10.41.05Z"/><path d="M65.35,41H34.49V30.39c0-6.7,4.26-11.48,10.94-11.95a61.72,61.72,0,0,1,9.71.07A11,11,0,0,1,65.32,29c.23,3.7.07,7.42.08,11.14C65.4,40.39,65.37,40.66,65.35,41ZM62.5,38.16c0-2.9,0-5.71,0-8.52a8.38,8.38,0,0,0-7.61-8.27,79,79,0,0,0-9.61,0,8,8,0,0,0-7.74,7.08,85.37,85.37,0,0,0-.07,9.74Z"/><path d="M42.07,43.34l2.49,1.42-7.2,12.86,4.43,2.5L30.42,66.91V53.78l4.4,2.43Z"/><path d="M69.51,67,58.1,60.13l4.41-2.52c-2.39-4.27-4.76-8.5-7.2-12.84l2.49-1.43L65,56.2l4.47-2.43Z"/><path d="M19,74.3a6.49,6.49,0,1,1,6.48,6.64A6.54,6.54,0,0,1,19,74.3Zm6.51-3.52a3.63,3.63,0,1,0,3.62,3.67A3.67,3.67,0,0,0,25.51,70.78Z"/><path d="M67.86,74.46a6.52,6.52,0,1,1,6.54,6.48A6.58,6.58,0,0,1,67.86,74.46ZM78,74.37a3.62,3.62,0,0,0-3.68-3.59A3.63,3.63,0,0,0,74.38,78,3.62,3.62,0,0,0,78,74.37Z"/></svg>