<svg id="Layer_1" data-name="Layer 1" xmlns="http://www.w3.org/2000/svg" width="100" height="100" viewBox="0 0 100 100"><title>interaction</title><path d="M61.74,100V87.17A12.1,12.1,0,0,1,73.92,75a92.51,92.51,0,0,1,10,.2A11.79,11.79,0,0,1,94.21,86.1a3.31,3.31,0,0,0,.19.61V99.77l-12.91,0a6.41,6.41,0,0,0-1,.18Zm29-3.7V94.75c0-2.81.17-5.64-.07-8.43a8.43,8.43,0,0,0-7.9-7.72c-3.18-.1-6.38-.1-9.56,0a8.34,8.34,0,0,0-7.83,7.26c-.26,3.43-.09,6.89-.1,10.34,0,0,.09.11.08.1Z"/><path d="M23.23,0c1.48.75,3.17,1.25,4.41,2.29A8.4,8.4,0,0,1,29.5,12.73,8.63,8.63,0,1,1,19.6.32c.31-.09.62-.21.93-.32ZM21.89,3.57a5,5,0,0,0-5.08,5,5.1,5.1,0,0,0,5.05,5.12A5.16,5.16,0,0,0,27,8.6,5.12,5.12,0,0,0,21.89,3.57Z"/><path d="M21.47,52.07c2.75,4.75,5.39,9.31,8.12,14.06H23.3V84h1.05c5.74,0,11.48,0,17.23,0A1.32,1.32,0,0,0,43,83a7,7,0,1,1,0,5.54,1.49,1.49,0,0,0-1.64-1.07c-6.72,0-13.44,0-20.16,0H19.79V66.23H13.3ZM46,85.76a3.6,3.6,0,0,0,3.6,3.56,3.69,3.69,0,0,0,3.53-3.56,3.58,3.58,0,0,0-3.58-3.58A3.51,3.51,0,0,0,46,85.76Z"/><path d="M56.86,13.72H79.72V35.06h6.42L78,49.16c-2.73-4.72-5.37-9.31-8.12-14.07h6.31V17.3c-.43,0-.79-.07-1.16-.07-5.7,0-11.41,0-17.11,0a1.28,1.28,0,0,0-1.46,1,7,7,0,0,1-7.85,4.24,7.11,7.11,0,0,1-5.75-7,7.19,7.19,0,0,1,5.58-6.89,7.09,7.09,0,0,1,8,4.16C56.59,13.05,56.71,13.36,56.86,13.72Zm-6.8-1.78a3.57,3.57,0,0,0-.22,7.13,3.66,3.66,0,0,0,3.7-3.46A3.63,3.63,0,0,0,50.06,11.94Z"/><path d="M38.13,43.74H5.69a5.48,5.48,0,0,1-.06-.61c0-4.05-.08-8.11,0-12.16a11.78,11.78,0,0,1,10.82-11.9,61.6,61.6,0,0,1,11.68.13c5.24.54,9.61,5.5,10,10.69,0,.53,0,1.05,0,1.58ZM9.24,40.21a1.62,1.62,0,0,0,.31.09l24.28-.09c.74,0,.86-.32.86-1,0-2.74,0-5.48,0-8.21a8.63,8.63,0,0,0-8.74-8.56c-2.77,0-5.55,0-8.32,0A8.34,8.34,0,0,0,9.3,29.85C9,33.27,9.24,36.73,9.24,40.21Z"/><path d="M69.4,64.68a8.62,8.62,0,1,1,17.23.09,8.62,8.62,0,1,1-17.23-.09Zm8.63-5a5.09,5.09,0,0,0-.11,10.17A5.09,5.09,0,1,0,78,59.65Z"/></svg>