<svg id="Layer_1" data-name="Layer 1" xmlns="http://www.w3.org/2000/svg" viewBox="0 0 350.15 350.15"><defs><style>.cls-4{fill:#fff}</style></defs><g id="Layer_3" data-name="Layer 3"><path d="M221 134.73l-5.6-5.61 80.6-80.6a175 175 0 0 0-241.89 0l82 82-5.61 5.6-82-82a175 175 0 0 0 0 241.9l80.61-80.61 5.6 5.61-80.6 80.6a175 175 0 0 0 241.89 0l-79.19-79.2 5.6-5.6 79.2 79.2a175 175 0 0 0 0-241.9L221 134.73z" fill="#d0b5d5"/><circle id="_Path_" data-name="&lt;Path&gt;" cx="175.13" cy="175.03" r="167.9" fill="#e6dbe6"/><path d="M127.83 133.33l-74.2-74.2a167.87 167.87 0 0 0 0 231.79l74.2-74.19a63.09 63.09 0 0 1 0-83.41zm89-5.6L291 53.53a167.88 167.88 0 0 0-231.8 0l74.2 74.2a63.08 63.08 0 0 1 83.4 0zm-83.4 94.6l-74.2 74.2a167.9 167.9 0 0 0 231.8 0l-74.2-74.2a63.08 63.08 0 0 1-83.4 0zm89-5.6l74.2 74.19a167.9 167.9 0 0 0 0-231.8l-74.2 74.2a63.08 63.08 0 0 1 0 83.4z" fill="#963596"/></g><path class="cls-4" d="M43.16 192.82h-2v-1.08h5.35v1.08h-2v6h-1.35zM52.13 196.21a2.54 2.54 0 0 1-2.63 2.72 2.47 2.47 0 0 1-2.56-2.64 2.52 2.52 0 0 1 2.64-2.7 2.45 2.45 0 0 1 2.55 2.62zm-3.86 0c0 1 .49 1.74 1.27 1.74s1.25-.73 1.25-1.76c0-.8-.35-1.71-1.24-1.71s-1.28.93-1.28 1.78zM58.05 196.21a2.54 2.54 0 0 1-2.63 2.72 2.47 2.47 0 0 1-2.56-2.64 2.52 2.52 0 0 1 2.65-2.7 2.45 2.45 0 0 1 2.54 2.62zm-3.85 0c0 1 .48 1.74 1.26 1.74s1.25-.73 1.25-1.76c0-.8-.35-1.71-1.23-1.71s-1.28.93-1.28 1.78zM59.11 191.36h1.3v7.45h-1.3zM61.74 197.63a2.89 2.89 0 0 0 1.32.37c.56 0 .82-.24.82-.57s-.21-.53-.84-.75c-1-.34-1.42-.89-1.41-1.49 0-.9.74-1.6 1.93-1.6a3 3 0 0 1 1.36.3l-.26.91a2.37 2.37 0 0 0-1.08-.29c-.46 0-.71.22-.71.53s.24.49.89.72c.92.33 1.35.81 1.37 1.56 0 .93-.73 1.6-2.08 1.6a3.33 3.33 0 0 1-1.56-.36zM71.24 198.81l-.09-.56a1.9 1.9 0 0 1-1.51.68 1.52 1.52 0 0 1-1.64-1.52c0-1.29 1.15-1.95 3-1.93v-.09c0-.33-.14-.89-1-.89a2.72 2.72 0 0 0-1.38.38l-.25-.84a3.7 3.7 0 0 1 1.85-.45 1.91 1.91 0 0 1 2.11 2.15v1.85a8.45 8.45 0 0 0 .07 1.22zm-.17-2.49c-.92 0-1.79.17-1.79 1a.69.69 0 0 0 .72.68 1.06 1.06 0 0 0 1-.71 1 1 0 0 0 0-.28zM73.69 195.22v-1.52h1.14l.06.77a1.85 1.85 0 0 1 1.63-.88c.89 0 1.81.57 1.81 2.19v3H77v-2.88c0-.74-.27-1.29-1-1.29a1.06 1.06 0 0 0-1 .75 1.38 1.38 0 0 0 0 .42v3h-1.31zM84.41 191.36v7.43H83.3v-.8a1.86 1.86 0 0 1-1.67.92 2.34 2.34 0 0 1-2.19-2.61 2.43 2.43 0 0 1 2.29-2.73 1.62 1.62 0 0 1 1.44.67v-2.9zm-1.29 4.47a1.84 1.84 0 0 0 0-.33 1.14 1.14 0 0 0-1.11-.92c-.83 0-1.29.74-1.29 1.69s.46 1.62 1.28 1.62a1.15 1.15 0 0 0 1.11-.91 1.53 1.53 0 0 0 0-.38zM33.94 203.27a.73.73 0 0 1-1.45 0 .7.7 0 0 1 .73-.7.69.69 0 0 1 .72.7zm-1.37 6.54v-5.11h1.3v5.11zM35.25 206.22v-1.52h1.14l.06.77a1.85 1.85 0 0 1 1.63-.88c.89 0 1.81.57 1.81 2.19v3h-1.3v-2.88c0-.74-.27-1.29-1-1.29a1.07 1.07 0 0 0-1 .75 1.38 1.38 0 0 0 0 .42v3h-1.34zM41.41 209.81v-4.14h-.7v-1h.7v-.22a2.35 2.35 0 0 1 .62-1.74 1.92 1.92 0 0 1 1.33-.49 2.61 2.61 0 0 1 .83.12l-.1 1a1.48 1.48 0 0 0-.54-.1c-.64 0-.86.54-.86 1.17v.26h1.12v1H42.7v4.14zM44.61 206.35v-1.65h1.12v1a1.53 1.53 0 0 1 1.4-1.09 1.32 1.32 0 0 1 .3 0v1.21a1.82 1.82 0 0 0-.37 0 1.15 1.15 0 0 0-1.16 1 2.25 2.25 0 0 0 0 .4v2.64h-1.29zM51.22 209.81l-.08-.56a1.9 1.9 0 0 1-1.51.68 1.52 1.52 0 0 1-1.63-1.52c0-1.29 1.14-1.95 3-1.93v-.09c0-.33-.13-.89-1-.89a2.71 2.71 0 0 0-1.37.38l-.25-.84a3.7 3.7 0 0 1 1.85-.45 1.91 1.91 0 0 1 2.1 2.15v1.85a8.29 8.29 0 0 0 .08 1.22zm-.17-2.49c-.91 0-1.78.17-1.78 1a.69.69 0 0 0 .73.68 1 1 0 0 0 1-.71 1 1 0 0 0 0-.28zM53.62 208.63a2.85 2.85 0 0 0 1.31.37c.57 0 .82-.24.82-.57s-.21-.53-.84-.75c-1-.34-1.42-.89-1.41-1.49a1.71 1.71 0 0 1 1.93-1.6 3 3 0 0 1 1.36.3l-.25.91a2.37 2.37 0 0 0-1.08-.29c-.47 0-.72.22-.72.53s.24.49.89.72c.93.33 1.36.81 1.37 1.56 0 .93-.73 1.6-2.08 1.6a3.25 3.25 0 0 1-1.55-.36zM59.54 203.24v1.46h1.23v1h-1.23v2.25c0 .62.17 1 .66 1a2.09 2.09 0 0 0 .51-.06v1a2.69 2.69 0 0 1-.94.13 1.5 1.5 0 0 1-1.11-.42 2.05 2.05 0 0 1-.4-1.43v-2.4h-.74v-1h.74v-1.15zM61.74 206.35v-1.65h1.13v1a1.51 1.51 0 0 1 1.4-1.09 1.39 1.39 0 0 1 .3 0v1.21a1.84 1.84 0 0 0-.38 0 1.13 1.13 0 0 0-1.15 1 2.25 2.25 0 0 0 0 .4v2.64h-1.3zM70.06 208.28v1.53H69l-.1-.81a1.85 1.85 0 0 1-1.63.89c-.94 0-1.79-.56-1.79-2.23v-3h1.29v2.78c0 .85.28 1.4 1 1.4a1.11 1.11 0 0 0 1-.69 1.29 1.29 0 0 0 .07-.4v-3.05h1.29zM75.21 209.66a3.8 3.8 0 0 1-1.44.26 2.46 2.46 0 0 1-2.64-2.6 2.64 2.64 0 0 1 2.87-2.73 3.2 3.2 0 0 1 1.25.24l-.24 1a2.28 2.28 0 0 0-1-.2 1.66 1.66 0 0 0 0 3.31 2.45 2.45 0 0 0 1-.2zM77.65 203.24v1.46h1.23v1h-1.23v2.25c0 .62.17 1 .66 1a2.09 2.09 0 0 0 .51-.06v1a2.69 2.69 0 0 1-.94.13 1.5 1.5 0 0 1-1.11-.42 2.05 2.05 0 0 1-.4-1.43v-2.4h-.73v-1h.73v-1.15zM84.43 208.28v1.53h-1.09l-.06-.77a1.87 1.87 0 0 1-1.64.89c-.93 0-1.78-.56-1.78-2.23v-3h1.29v2.78c0 .85.27 1.4 1 1.4a1.1 1.1 0 0 0 1-.69 1.29 1.29 0 0 0 .07-.4v-3.09h1.29zM85.83 206.35v-1.65h1.12v1a1.51 1.51 0 0 1 1.39-1.09 1.48 1.48 0 0 1 .31 0v1.21a1.92 1.92 0 0 0-.38 0 1.15 1.15 0 0 0-1.16 1 2.25 2.25 0 0 0 0 .4v2.64h-1.28zM90.48 207.62a1.39 1.39 0 0 0 1.58 1.32 3.71 3.71 0 0 0 1.41-.23l.19.89a4.76 4.76 0 0 1-1.78.32 2.42 2.42 0 0 1-2.64-2.58 2.53 2.53 0 0 1 2.5-2.75 2.22 2.22 0 0 1 2.26 2.48 2.38 2.38 0 0 1 0 .55zm2.25-.9a1.1 1.1 0 0 0-1.06-1.25 1.27 1.27 0 0 0-1.19 1.25zM126.75 308.74H128v6h2.9v1.08h-4.19zM132.78 313.62a1.39 1.39 0 0 0 1.58 1.32 3.71 3.71 0 0 0 1.41-.23l.19.89a4.76 4.76 0 0 1-1.78.32 2.42 2.42 0 0 1-2.64-2.58 2.53 2.53 0 0 1 2.5-2.75 2.22 2.22 0 0 1 2.21 2.48 3.35 3.35 0 0 1 0 .55zm2.25-.9a1.1 1.1 0 0 0-1.06-1.25 1.26 1.26 0 0 0-1.19 1.25zM140.16 315.81l-.08-.56a1.9 1.9 0 0 1-1.51.68 1.52 1.52 0 0 1-1.61-1.52c0-1.29 1.14-2 3-1.93v-.09c0-.33-.13-.89-1-.89a2.71 2.71 0 0 0-1.37.38l-.25-.84a3.66 3.66 0 0 1 1.84-.45 1.91 1.91 0 0 1 2.11 2.15v1.85a8.29 8.29 0 0 0 .08 1.22zm-.16-2.49c-.92 0-1.79.17-1.79.95a.69.69 0 0 0 .74.74 1 1 0 0 0 1-.71 1 1 0 0 0 .05-.3zM142.62 312.35v-1.65h1.12v1a1.51 1.51 0 0 1 1.39-1.09 1.48 1.48 0 0 1 .31 0v1.21a1.92 1.92 0 0 0-.38 0 1.15 1.15 0 0 0-1.16 1 2.25 2.25 0 0 0 0 .4v2.64h-1.29zM146.36 312.22v-1.52h1.13l.06.77a1.86 1.86 0 0 1 1.63-.88c.89 0 1.82.57 1.82 2.19v3h-1.3v-2.88c0-.74-.28-1.29-1-1.29a1.09 1.09 0 0 0-1 .75 1.38 1.38 0 0 0-.05.42v3h-1.3zM153.74 309.27a.69.69 0 0 1-.74.7.68.68 0 0 1-.71-.7.73.73 0 0 1 1.45 0zm-1.38 6.54v-5.11h1.31v5.11zM155.05 312.22v-1.52h1.13l.07.77a1.85 1.85 0 0 1 1.63-.88c.89 0 1.81.57 1.81 2.19v3h-1.29v-2.88c0-.74-.27-1.29-1-1.29a1.06 1.06 0 0 0-1 .75 1.37 1.37 0 0 0-.06.42v3h-1.3zM165.73 310.7v4.37A2.47 2.47 0 0 1 163 318a3.7 3.7 0 0 1-1.79-.41l.29-1a3.05 3.05 0 0 0 1.5.41 1.36 1.36 0 0 0 1.47-1.54V315a1.73 1.73 0 0 1-1.49.75 2.27 2.27 0 0 1-2.18-2.5 2.44 2.44 0 0 1 2.32-2.69 1.6 1.6 0 0 1 1.48.79l.06-.68zm-1.33 2.05a1 1 0 0 0-.05-.35 1.07 1.07 0 0 0-1-.83c-.72 0-1.26.63-1.26 1.67 0 .87.45 1.58 1.25 1.58a1.1 1.1 0 0 0 1.05-.78 1.82 1.82 0 0 0 .06-.46zM169.39 315.81v-4.14h-.69v-1h.69v-.22a2.39 2.39 0 0 1 .62-1.74 2 2 0 0 1 1.34-.49 2.65 2.65 0 0 1 .83.12l-.1 1a1.48 1.48 0 0 0-.54-.1c-.64 0-.86.54-.86 1.17v.26h1.12v1h-1.11v4.14zM172.6 312.35v-1.65h1.12v1a1.51 1.51 0 0 1 1.4-1.09 1.32 1.32 0 0 1 .3 0v1.21a1.82 1.82 0 0 0-.37 0 1.15 1.15 0 0 0-1.16 1 2.25 2.25 0 0 0 0 .4v2.64h-1.29zM179.21 315.81l-.08-.56a1.91 1.91 0 0 1-1.52.68 1.52 1.52 0 0 1-1.6-1.52c0-1.29 1.14-2 3-1.93v-.09c0-.33-.13-.89-1-.89a2.69 2.69 0 0 0-1.37.38l-.25-.84a3.63 3.63 0 0 1 1.84-.45 1.91 1.91 0 0 1 2.11 2.15v1.85a7.11 7.11 0 0 0 .08 1.22zm-.17-2.49c-.91 0-1.78.17-1.78.95a.68.68 0 0 0 .73.74 1 1 0 0 0 1-.71 1 1 0 0 0 0-.28zM181.67 312.22v-1.52h1.11v.76a1.79 1.79 0 0 1 1.58-.87 1.47 1.47 0 0 1 1.42.94 2 2 0 0 1 .63-.64 1.7 1.7 0 0 1 1-.3c.85 0 1.71.57 1.71 2.21v3H188V313c0-.85-.3-1.35-.92-1.35a1 1 0 0 0-.9.68 1.86 1.86 0 0 0-.06.43v3.06h-1.26v-3c0-.71-.28-1.21-.88-1.21a1 1 0 0 0-.93.73 1.16 1.16 0 0 0-.07.42v3h-1.26zM191.49 313.62a1.38 1.38 0 0 0 1.57 1.32 3.8 3.8 0 0 0 1.42-.23l.19.89a4.78 4.78 0 0 1-1.79.32 2.41 2.41 0 0 1-2.63-2.58 2.53 2.53 0 0 1 2.5-2.75 2.21 2.21 0 0 1 2.2 2.48 3.35 3.35 0 0 1 0 .55zm2.24-.9a1.1 1.1 0 0 0-1.06-1.25 1.26 1.26 0 0 0-1.18 1.25zM196.77 310.7l.53 2.32c.12.55.23 1.1.33 1.66.1-.56.27-1.12.42-1.65l.66-2.33h1.05l.64 2.27c.16.6.29 1.15.41 1.71.09-.56.2-1.11.34-1.71l.56-2.27H203l-1.61 5.11h-1.2l-.61-2.07c-.15-.54-.27-1-.39-1.64a14.28 14.28 0 0 1-.38 1.64l-.66 2.07H197l-1.51-5.11zM208.72 313.21a2.54 2.54 0 0 1-2.63 2.72 2.47 2.47 0 0 1-2.56-2.64 2.52 2.52 0 0 1 2.65-2.7 2.45 2.45 0 0 1 2.54 2.62zm-3.86.05c0 1 .49 1.74 1.27 1.74s1.25-.73 1.25-1.76c0-.8-.35-1.71-1.24-1.71s-1.28.88-1.28 1.73zM209.78 312.35v-1.65h1.12v1a1.52 1.52 0 0 1 1.4-1.09 1.39 1.39 0 0 1 .3 0v1.21a1.82 1.82 0 0 0-.37 0 1.15 1.15 0 0 0-1.16 1 2.25 2.25 0 0 0 0 .4v2.64h-1.29zM214.81 313a6.34 6.34 0 0 1 .41-.6l1.24-1.65H218l-1.89 2.09 2.16 3h-1.58l-1.47-2.25-.44.51v1.74h-1.29v-7.45h1.29zM153.46 326.81l-.09-.56a1.89 1.89 0 0 1-1.51.68 1.52 1.52 0 0 1-1.61-1.52c0-1.29 1.15-2 3-1.93v-.09c0-.33-.14-.89-1-.89a2.72 2.72 0 0 0-1.38.38l-.25-.84a3.7 3.7 0 0 1 1.85-.45 1.91 1.91 0 0 1 2.11 2.15v1.85a8.45 8.45 0 0 0 .07 1.22zm-.17-2.49c-.91 0-1.79.17-1.79.95a.69.69 0 0 0 .74.74 1.06 1.06 0 0 0 1-.71 1 1 0 0 0 0-.28zM155.91 323.22v-1.52H157l.06.77a1.85 1.85 0 0 1 1.63-.88c.89 0 1.81.57 1.81 2.19v3h-1.29v-2.88c0-.74-.27-1.29-1-1.29a1.07 1.07 0 0 0-1 .75 1.37 1.37 0 0 0-.06.42v3h-1.3zM166.63 319.36v7.43h-1.15l-.05-.8a1.86 1.86 0 0 1-1.67.92 2.34 2.34 0 0 1-2.19-2.61 2.43 2.43 0 0 1 2.29-2.73 1.62 1.62 0 0 1 1.44.67v-2.9zm-1.29 4.47a1.84 1.84 0 0 0 0-.33 1.12 1.12 0 0 0-1.11-.92c-.83 0-1.29.74-1.29 1.69s.46 1.62 1.28 1.62a1.15 1.15 0 0 0 1.11-.91 1.53 1.53 0 0 0 0-.38zM171.67 320.24v1.46h1.23v1h-1.23v2.25c0 .62.17.95.66.95a2.09 2.09 0 0 0 .51-.06v1a2.67 2.67 0 0 1-.93.13 1.51 1.51 0 0 1-1.12-.42 2.05 2.05 0 0 1-.4-1.43v-2.4h-.73v-1h.73v-1.15zM178.74 324.21a2.53 2.53 0 0 1-2.62 2.72 2.48 2.48 0 0 1-2.57-2.64 2.53 2.53 0 0 1 2.65-2.7 2.45 2.45 0 0 1 2.54 2.62zm-3.85.05c0 1 .48 1.74 1.27 1.74s1.25-.73 1.25-1.76c0-.8-.36-1.71-1.24-1.71s-1.28.88-1.28 1.73zM184.66 324.21a2.53 2.53 0 0 1-2.62 2.72 2.48 2.48 0 0 1-2.57-2.64 2.53 2.53 0 0 1 2.65-2.7 2.45 2.45 0 0 1 2.54 2.62zm-3.85.05c0 1 .48 1.74 1.27 1.74s1.25-.73 1.25-1.76c0-.8-.36-1.71-1.24-1.71s-1.28.88-1.28 1.73zM185.72 319.36H187v7.45h-1.3zM188.36 325.63a2.85 2.85 0 0 0 1.31.37c.57 0 .82-.24.82-.57s-.21-.53-.84-.75c-1-.34-1.42-.89-1.41-1.49a1.71 1.71 0 0 1 1.93-1.6 3 3 0 0 1 1.36.3l-.25.91a2.37 2.37 0 0 0-1.08-.29c-.47 0-.72.22-.72.53s.24.49.89.72c.93.33 1.36.81 1.37 1.56 0 .93-.73 1.6-2.08 1.6a3.25 3.25 0 0 1-1.55-.36zM244.56 198.6a4.45 4.45 0 0 1-1.83.32 3.34 3.34 0 0 1-3.61-3.56 3.56 3.56 0 0 1 3.78-3.74 4 4 0 0 1 1.72.32l-.28 1a3.41 3.41 0 0 0-1.39-.28 2.36 2.36 0 0 0-2.48 2.61 2.33 2.33 0 0 0 2.47 2.55 3.77 3.77 0 0 0 1.41-.26zM250.47 196.21a2.53 2.53 0 0 1-2.62 2.72 2.48 2.48 0 0 1-2.57-2.64 2.53 2.53 0 0 1 2.65-2.7 2.45 2.45 0 0 1 2.54 2.62zm-3.85 0c0 1 .48 1.74 1.27 1.74s1.25-.73 1.25-1.76c0-.8-.36-1.71-1.24-1.71s-1.28.93-1.28 1.78zM251.53 195.22v-1.52h1.13l.07.77a1.83 1.83 0 0 1 1.62-.88c.9 0 1.82.57 1.82 2.19v3h-1.29v-2.88c0-.74-.27-1.29-1-1.29a1.06 1.06 0 0 0-1 .75 1.12 1.12 0 0 0-.06.42v3h-1.3zM259 192.24v1.46h1.23v1H259v2.25c0 .62.17 1 .66 1a1.93 1.93 0 0 0 .5-.06v1a2.63 2.63 0 0 1-.93.13 1.5 1.5 0 0 1-1.11-.42 2 2 0 0 1-.4-1.43v-2.4H257v-1h.74v-1.15zM262.14 196.62a1.38 1.38 0 0 0 1.57 1.32 3.8 3.8 0 0 0 1.42-.23l.19.89a4.78 4.78 0 0 1-1.79.32 2.41 2.41 0 0 1-2.63-2.58 2.53 2.53 0 0 1 2.5-2.75 2.22 2.22 0 0 1 2.2 2.48 3.35 3.35 0 0 1 0 .55zm2.24-.9a1.1 1.1 0 0 0-1.06-1.25 1.25 1.25 0 0 0-1.18 1.25zM266.64 195.22v-1.52h1.13l.06.77a1.83 1.83 0 0 1 1.62-.88c.9 0 1.82.57 1.82 2.19v3H270v-2.88c0-.74-.27-1.29-1-1.29a1.06 1.06 0 0 0-1 .75 1.12 1.12 0 0 0-.06.42v3h-1.3zM274.13 192.24v1.46h1.23v1h-1.23v2.25c0 .62.16 1 .66 1a1.93 1.93 0 0 0 .5-.06v1a2.63 2.63 0 0 1-.93.13 1.5 1.5 0 0 1-1.11-.42 2 2 0 0 1-.4-1.43v-2.4h-.74v-1h.74v-1.15zM278.65 198.81v-4.14H278v-1h.69v-.22a2.39 2.39 0 0 1 .62-1.74 1.93 1.93 0 0 1 1.33-.49 2.61 2.61 0 0 1 .83.12l-.09 1a1.59 1.59 0 0 0-.55-.1c-.64 0-.86.54-.86 1.17v.26h1.13v1h-1.12v4.14zM281.85 195.35v-1.65h1.13v1a1.51 1.51 0 0 1 1.4-1.09 1.39 1.39 0 0 1 .3 0v1.21a1.84 1.84 0 0 0-.38 0 1.13 1.13 0 0 0-1.15 1 2.25 2.25 0 0 0 0 .4v2.64h-1.3zM288.47 198.81l-.09-.56a1.89 1.89 0 0 1-1.51.68 1.51 1.51 0 0 1-1.6-1.52c0-1.29 1.14-1.95 3-1.93v-.09c0-.33-.14-.89-1-.89a2.69 2.69 0 0 0-1.37.38l-.26-.84a3.7 3.7 0 0 1 1.85-.45 1.91 1.91 0 0 1 2.11 2.15v1.85a8.45 8.45 0 0 0 .07 1.22zm-.17-2.49c-.91 0-1.78.17-1.78 1a.68.68 0 0 0 .73.74 1 1 0 0 0 1-.71 1 1 0 0 0 0-.28zM290.93 195.22c0-.58 0-1.08-.05-1.52H292l.05.76a1.76 1.76 0 0 1 1.58-.87 1.46 1.46 0 0 1 1.41.94 2 2 0 0 1 .63-.64 1.72 1.72 0 0 1 1-.3c.85 0 1.71.57 1.71 2.21v3h-1.18V196c0-.85-.29-1.35-.91-1.35a1 1 0 0 0-.9.68 1.86 1.86 0 0 0-.06.43v3.06h-1.26v-3c0-.71-.29-1.21-.89-1.21a1 1 0 0 0-.92.73 1.16 1.16 0 0 0-.07.42v3h-1.26zM300.74 196.62a1.4 1.4 0 0 0 1.58 1.32 3.8 3.8 0 0 0 1.42-.23l.18.89a4.72 4.72 0 0 1-1.78.32 2.42 2.42 0 0 1-2.64-2.58 2.54 2.54 0 0 1 2.5-2.75 2.22 2.22 0 0 1 2.21 2.48 3.35 3.35 0 0 1 0 .55zm2.25-.9a1.1 1.1 0 0 0-1.06-1.25 1.27 1.27 0 0 0-1.19 1.25zM306 193.7l.53 2.32c.12.55.23 1.1.33 1.66.1-.56.27-1.12.42-1.65l.66-2.33H309l.64 2.27c.16.6.29 1.15.41 1.71.08-.56.2-1.11.34-1.71l.56-2.27h1.27l-1.6 5.11h-1.2l-.61-2.07a16.49 16.49 0 0 1-.39-1.64 12.38 12.38 0 0 1-.39 1.64l-.65 2.07h-1.21l-1.51-5.11zM318 196.21a2.53 2.53 0 0 1-2.62 2.72 2.47 2.47 0 0 1-2.56-2.64 2.52 2.52 0 0 1 2.64-2.7 2.45 2.45 0 0 1 2.54 2.62zm-3.85 0c0 1 .48 1.74 1.27 1.74s1.25-.73 1.25-1.76c0-.8-.36-1.71-1.24-1.71s-1.31.93-1.31 1.78zM319 195.35c0-.69 0-1.19-.05-1.65h1.13v1a1.51 1.51 0 0 1 1.4-1.09 1.39 1.39 0 0 1 .3 0v1.21a1.84 1.84 0 0 0-.38 0 1.13 1.13 0 0 0-1.15 1 2.25 2.25 0 0 0 0 .4v2.64H319zM324.06 196c.13-.2.28-.42.41-.6l1.24-1.65h1.56l-1.89 2.09 2.16 3H326l-1.47-2.25-.44.51v1.74h-1.29v-7.45h1.29zM265.54 209.81l-.08-.56a1.9 1.9 0 0 1-1.51.68 1.52 1.52 0 0 1-1.61-1.52c0-1.29 1.14-1.95 3-1.93v-.09c0-.33-.13-.89-1-.89a2.71 2.71 0 0 0-1.37.38l-.25-.84a3.66 3.66 0 0 1 1.84-.45 1.91 1.91 0 0 1 2.11 2.15v1.85a8.29 8.29 0 0 0 .08 1.22zm-.16-2.49c-.92 0-1.79.17-1.79 1a.69.69 0 0 0 .74.74 1 1 0 0 0 1-.71 1 1 0 0 0 .05-.28zM268 206.22v-1.52h1.13l.07.77a1.83 1.83 0 0 1 1.62-.88c.9 0 1.82.57 1.82 2.19v3h-1.29v-2.88c0-.74-.27-1.29-1-1.29a1.09 1.09 0 0 0-1 .75 1.38 1.38 0 0 0-.05.42v3H268zM278.72 202.36v7.43h-1.15l-.06-.8a1.84 1.84 0 0 1-1.67.92 2.34 2.34 0 0 1-2.18-2.61 2.43 2.43 0 0 1 2.29-2.73 1.63 1.63 0 0 1 1.44.67v-2.9zm-1.29 4.47a1.84 1.84 0 0 0 0-.33 1.14 1.14 0 0 0-1.12-.92c-.82 0-1.29.74-1.29 1.69s.47 1.62 1.28 1.62a1.15 1.15 0 0 0 1.12-.91 1.53 1.53 0 0 0 0-.38zM283.76 203.24v1.46H285v1h-1.23v2.25c0 .62.17 1 .66 1a2.09 2.09 0 0 0 .51-.06v1a2.69 2.69 0 0 1-.94.13 1.5 1.5 0 0 1-1.11-.42 2.05 2.05 0 0 1-.4-1.43v-2.4h-.73v-1h.73v-1.15zM290.83 207.21a2.54 2.54 0 0 1-2.63 2.72 2.47 2.47 0 0 1-2.56-2.64 2.52 2.52 0 0 1 2.65-2.7 2.45 2.45 0 0 1 2.54 2.62zm-3.86 0c0 1 .49 1.74 1.27 1.74s1.25-.73 1.25-1.76c0-.8-.35-1.71-1.24-1.71s-1.25.93-1.25 1.78zM296.75 207.21a2.54 2.54 0 0 1-2.63 2.72 2.47 2.47 0 0 1-2.56-2.64 2.52 2.52 0 0 1 2.65-2.7 2.45 2.45 0 0 1 2.54 2.62zm-3.86 0c0 1 .49 1.74 1.28 1.74s1.24-.73 1.24-1.76c0-.8-.35-1.71-1.23-1.71s-1.29.93-1.29 1.78zM297.81 202.36h1.3v7.45h-1.3zM300.44 208.63a2.89 2.89 0 0 0 1.32.37c.56 0 .82-.24.82-.57s-.21-.53-.84-.75c-1-.34-1.42-.89-1.41-1.49 0-.9.74-1.6 1.93-1.6a3 3 0 0 1 1.36.3l-.26.91a2.37 2.37 0 0 0-1.08-.29c-.46 0-.71.22-.71.53s.24.49.89.72c.92.33 1.35.81 1.37 1.56 0 .93-.73 1.6-2.08 1.6a3.33 3.33 0 0 1-1.56-.36zM139.69 82.74v4.12c0 1.39.57 2 1.44 2s1.5-.64 1.5-2v-4.12h1.29v4c0 2.18-1.13 3.15-2.83 3.15s-2.7-.91-2.7-3.14v-4.01zM145.28 88.63a2.88 2.88 0 0 0 1.31.37c.57 0 .82-.24.82-.57s-.21-.53-.84-.75c-1-.34-1.41-.89-1.4-1.49 0-.9.74-1.6 1.93-1.6a2.93 2.93 0 0 1 1.35.3l-.25.91a2.37 2.37 0 0 0-1.08-.29c-.46 0-.71.22-.71.53s.24.49.89.72c.92.33 1.35.81 1.36 1.56 0 .93-.72 1.6-2.08 1.6a3.28 3.28 0 0 1-1.55-.36zM150.64 87.62a1.38 1.38 0 0 0 1.57 1.32 3.8 3.8 0 0 0 1.42-.23l.19.89a4.78 4.78 0 0 1-1.79.32 2.42 2.42 0 0 1-2.63-2.58 2.53 2.53 0 0 1 2.5-2.75 2.21 2.21 0 0 1 2.2 2.48 3.35 3.35 0 0 1 0 .55zm2.24-.9a1.1 1.1 0 0 0-1.06-1.25 1.26 1.26 0 0 0-1.18 1.25zM155.14 86.35V84.7h1.12v1h.05a1.51 1.51 0 0 1 1.39-1.09 1.48 1.48 0 0 1 .31 0v1.21a1.92 1.92 0 0 0-.38 0 1.15 1.15 0 0 0-1.16 1 2.25 2.25 0 0 0 0 .4v2.64h-1.29zM162 87.62a1.38 1.38 0 0 0 1.57 1.32 3.8 3.8 0 0 0 1.42-.23l.19.89a4.78 4.78 0 0 1-1.79.32 2.41 2.41 0 0 1-2.63-2.58 2.53 2.53 0 0 1 2.5-2.75 2.22 2.22 0 0 1 2.2 2.48 3.35 3.35 0 0 1 0 .55zm2.24-.9a1.1 1.1 0 0 0-1.06-1.25 1.25 1.25 0 0 0-1.18 1.25zM167.33 84.7l.61 1c.17.27.32.52.46.79.15-.29.3-.55.45-.81l.56-1h1.41l-1.71 2.46 1.74 2.65h-1.46l-.63-1c-.17-.28-.31-.55-.46-.83-.15.29-.3.54-.46.83l-.59 1h-1.43l1.77-2.6-1.71-2.51zM171.66 86.4v-1.7h1.13l.06.79a2 2 0 0 1 1.76-.9 2.32 2.32 0 0 1 2.15 2.6 2.43 2.43 0 0 1-2.33 2.74 1.68 1.68 0 0 1-1.44-.68v2.64h-1.29zm1.34 1.27a1.42 1.42 0 0 0 0 .36 1.18 1.18 0 0 0 1.14.9c.81 0 1.3-.68 1.3-1.69s-.44-1.64-1.27-1.64a1.21 1.21 0 0 0-1.16 1 1.19 1.19 0 0 0-.05.32zM178.71 87.62a1.4 1.4 0 0 0 1.58 1.32 3.8 3.8 0 0 0 1.42-.23l.18.89a4.76 4.76 0 0 1-1.78.32 2.42 2.42 0 0 1-2.64-2.58 2.54 2.54 0 0 1 2.5-2.75 2.22 2.22 0 0 1 2.21 2.48 3.35 3.35 0 0 1 0 .55zm2.25-.9a1.1 1.1 0 0 0-1.06-1.25 1.27 1.27 0 0 0-1.19 1.25zM183.22 86.35V84.7h1.12v1a1.51 1.51 0 0 1 1.4-1.09 1.32 1.32 0 0 1 .3 0v1.21a1.82 1.82 0 0 0-.37 0 1.15 1.15 0 0 0-1.16 1 2.25 2.25 0 0 0 0 .4v2.64h-1.29zM188.33 83.27a.73.73 0 0 1-1.45 0 .7.7 0 0 1 .73-.7.69.69 0 0 1 .72.7zM187 89.81V84.7h1.3v5.11zM190.56 87.62a1.38 1.38 0 0 0 1.57 1.32 3.8 3.8 0 0 0 1.42-.23l.19.89a4.78 4.78 0 0 1-1.79.32 2.41 2.41 0 0 1-2.63-2.58 2.53 2.53 0 0 1 2.5-2.75 2.21 2.21 0 0 1 2.2 2.48 3.35 3.35 0 0 1 0 .55zm2.24-.9a1.1 1.1 0 0 0-1.06-1.25 1.26 1.26 0 0 0-1.18 1.25zM195.06 86.22V84.7h1.13l.07.77a1.85 1.85 0 0 1 1.63-.88c.89 0 1.81.57 1.81 2.19v3h-1.3v-2.85c0-.74-.27-1.29-1-1.29a1.06 1.06 0 0 0-1 .75 1.12 1.12 0 0 0-.06.42v3h-1.3zM204.83 89.66a3.9 3.9 0 0 1-1.45.26 2.46 2.46 0 0 1-2.64-2.6 2.64 2.64 0 0 1 2.85-2.73 3.2 3.2 0 0 1 1.25.24l-.23 1a2.37 2.37 0 0 0-1-.2 1.66 1.66 0 0 0 0 3.31 2.45 2.45 0 0 0 1-.2zM206.7 87.62a1.38 1.38 0 0 0 1.57 1.32 3.8 3.8 0 0 0 1.42-.23l.19.89a4.78 4.78 0 0 1-1.79.32 2.41 2.41 0 0 1-2.63-2.58 2.53 2.53 0 0 1 2.5-2.75 2.22 2.22 0 0 1 2.2 2.48 3.35 3.35 0 0 1 0 .55zm2.24-.9a1.1 1.1 0 0 0-1.06-1.25 1.25 1.25 0 0 0-1.18 1.25zM196.58 63h-8.29v1.69l-4.45-2.59 4.42-2.53v1.62h6.42V40.07h-21.42a7.15 7.15 0 0 1-3.47 5.17 6.92 6.92 0 0 1-4.15.93 7.13 7.13 0 0 1-6.43-6.1h-.88v9.76a15.65 15.65 0 0 1 1.62-.46 14.3 14.3 0 0 1 2.43-.31h8a11.56 11.56 0 0 1 11 8.63 8.45 8.45 0 0 1 .21 1.74v10.53a4.43 4.43 0 0 1 0 .48H167v-1.8h12.83v-.7-7.49c.06-3.95-1.91-6.63-5.22-8.47a9.15 9.15 0 0 0-4.56-1.1c-2.85 0-5.7-.1-8.54.08a8.86 8.86 0 0 0-8.07 7.74 22 22 0 0 0 0 2.57v7.31h3.82a3 3 0 0 1 2.38-2 3 3 0 0 1 1.56 5.79c-.17.06-.34.14-.52.22h-1a3.46 3.46 0 0 1-2.33-2c-.05-.11-.32-.17-.49-.17h-5.16v-.74c0-3.29.05-6.59 0-9.89a10 10 0 0 1 4.3-8.59 1.06 1.06 0 0 0 .49-1V38.18h2.19c.4 0 .58-.1.67-.51a6.91 6.91 0 0 1 4.59-5.26c.45-.16.93-.26 1.39-.39h1.87l.48.15a6.91 6.91 0 0 1 5.43 5.36c.14.55.34.65.85.65h21.82c.27 0 .54 0 .81.06zm-30.37-18.63a5.24 5.24 0 1 0 0-10.48 5.24 5.24 0 0 0 0 10.48zm-6.14 26.36a1.17 1.17 0 0 0 1.2-1.16 1.19 1.19 0 0 0-1.17-1.21 1.23 1.23 0 0 0-1.22 1.17 1.21 1.21 0 0 0 1.19 1.2zM41.13 135.16c0-.11.09-.22.12-.33a2.77 2.77 0 0 1 2.4-2.05 2.71 2.71 0 0 1 2.78 1.66.56.56 0 0 0 .64.41h7.51v17.57h5.59v-17.55h4.94v-2.52l5.49 3.17-5.45 3.14v-2.43h-3.57v16.17h3.54V150l5.48 3.16-5.46 3.15v-2.44h-3.56v15.86h3.54v-2.13l5.48 3.17-5.44 3.14v-2.81h-5v-17.28h-5.54v17.59H47c-.25 0-.43 0-.57.3a2.72 2.72 0 0 1-2.87 1.75 2.75 2.75 0 0 1-2.38-2.2.56.56 0 0 0-.09-.17v-.73a1.51 1.51 0 0 0 .1-.17 2.73 2.73 0 0 1 5.24-.44.44.44 0 0 0 .5.3h5.8a3 3 0 0 0 .43 0v-16.26h-6.13a.56.56 0 0 0-.64.42 2.69 2.69 0 0 1-2.73 1.65 2.74 2.74 0 0 1-2.4-1.9c0-.16-.11-.32-.17-.48v-.72a1.51 1.51 0 0 0 .1-.17 2.73 2.73 0 0 1 5.24-.44.44.44 0 0 0 .5.3H53.16v-16.26h-6.08a.65.65 0 0 0-.72.46 2.65 2.65 0 0 1-2.69 1.62 2.75 2.75 0 0 1-2.44-2c0-.13-.09-.25-.14-.38zm2.81 16.58a1.39 1.39 0 1 0-.07 2.77 1.39 1.39 0 1 0 .07-2.77zm0-14.84a1.39 1.39 0 1 0 0-2.77 1.39 1.39 0 1 0 0 2.77zm0 35.21a1.39 1.39 0 0 0 1.37-1.38 1.39 1.39 0 1 0-1.37 1.38zM79.13 157.11h-8.36v-8.39h8.36zm-7-1.37h5.62v-5.58h-5.63zM79.13 139.71h-8.38v-8.38h8.38zm-7-1.39h5.61v-5.6h-5.62zM70.75 174.61v-8.39h8.38v8.39zm7-7h-5.62v5.61h5.62zM192.48 280.17c-.28 1-.58 1.95-.83 2.95q-.85 3.22-1.69 6.45a1 1 0 0 1 0 .32l2.41.64-4.52 4.67L186 289l2.48.61c.74-2.82 1.47-5.64 2.23-8.53-.77-.16-1.5-.33-2.25-.47a24.85 24.85 0 0 0-10.82.38 15.42 15.42 0 0 0-4.48 2.05.89.89 0 0 0-.35.61v13.73a1.1 1.1 0 0 0 0 .28H187V299h-30.29c-.6-2.36-1.2-4.74-1.81-7.1l-3-11.57a2.7 2.7 0 0 1-.06-.41c1.44-.3 2.87-.63 4.3-.9.71-.13 1.41-.18 2.14-.24a.47.47 0 0 0 .52-.41 10 10 0 0 1 1.7-3.62.79.79 0 0 0 .07-.62 2.86 2.86 0 0 1 4.63-3.13.9.9 0 0 0 .62.14c.94-.09 1.88-.3 2.82-.31 2.74 0 5.48-.09 8.21.05a9.36 9.36 0 0 1 8.71 7.47c0 .18.25.47.4.47a32.33 32.33 0 0 1 6.53 1.25zm-38.95.87c0 .15.06.24.08.33l4.11 15.89c.1.4.34.39.64.39h12.48a3 3 0 0 0 .52 0 1.52 1.52 0 0 0 0-.21v-13.88a.77.77 0 0 0-.32-.55 17.54 17.54 0 0 0-1.89-1.06 20.37 20.37 0 0 0-9.49-1.77 29.12 29.12 0 0 0-6.13.82zm6.49-2.3h.67a19.85 19.85 0 0 1 11.15 3.07c.29.2.47.07.68-.08a18.24 18.24 0 0 1 7.82-2.77c1.25-.16 2.52-.2 3.82-.3 0-.18-.09-.4-.15-.61a8.23 8.23 0 0 0-8-5.8h-7.66a19.76 19.76 0 0 0-2.3.27 2.92 2.92 0 0 1-1.21 2.88 3.08 3.08 0 0 1-3.2.09zm3.2-7.1a1.44 1.44 0 0 0 0 2.87 1.44 1.44 0 0 0 0-2.87z"/><path class="cls-4" d="M173.31 252l1 .24a8.81 8.81 0 1 1-3.66-.13l.35-.11zm6.21 8.83a6.65 6.65 0 1 0 0 .11v-.11zM277.77 178a10.4 10.4 0 0 1-1.65-1 6.69 6.69 0 0 1-1-1.41h-2.8a5 5 0 0 1-4.79-3 5 5 0 0 1 .72-5.59 2.8 2.8 0 0 0 .39-.67c2.13-4.91 4.24-9.84 6.37-14.75a1.08 1.08 0 0 0-.06-1 8.84 8.84 0 0 1 1-9.83 8.64 8.64 0 0 1 9.43-3.2 8.76 8.76 0 0 1 6.76 7.14 8.65 8.65 0 0 1-.81 5.9 1.07 1.07 0 0 0 0 1q3.13 7.27 6.26 14.56c.07.17.13.34.24.6a3.76 3.76 0 0 0-3.52 1.3 3.49 3.49 0 0 0-.8 2.34c0 1.9 1.23 3.11 3.63 3.6v1.49h-15.75a3.45 3.45 0 0 1-2.49 2.4zm5.37-25.57h4.39a1.06 1.06 0 0 0 .66-.2 7.23 7.23 0 0 0 2.61-5.81 7.57 7.57 0 0 0-9.07-7.36 7.6 7.6 0 0 0-3.66 13.09 1.17 1.17 0 0 0 .74.28c1.44-.01 2.89-.03 4.33-.03zm-6.79.1l-5.49 12.75h24.63l-5.44-12.63c-.3.28-.54.49-.76.72a2.1 2.1 0 0 1-1.69.66c-2.59-.05-5.18-.06-7.76 0-1.37-.03-2.64-.03-3.49-1.53zm17 14.34h-21.16a3.55 3.55 0 0 0-3.59 3.49A3.62 3.62 0 0 0 272 174c1.08.05 2.17 0 3.28 0a3.19 3.19 0 0 1 6.14 0h12a5.35 5.35 0 0 1-.1-7.16zm-16.56 7.95a1.57 1.57 0 0 0 1.54 1.6 1.6 1.6 0 0 0 1.61-1.6 1.58 1.58 0 0 0-3.15 0z"/><path class="cls-4" d="M261.33 141.93l2.92-5.31c.15-.28.31-.56.5-.92l1.48 2.39c.14-.07.28-.12.4-.19l16.14-9.7a2.17 2.17 0 0 0 .3-.23h.22c.11.09.22.19.34.27l16.15 9.69.27.15 1.47-2.38 3.45 6.35-7.22-.19 1.47-2.42-.7-.43q-7.42-4.45-14.85-8.92a.83.83 0 0 0-1 0q-7.49 4.52-15 9l-.59.36 1.45 2.39-7.2.18zM288.2 158.92v1.5h-9.85v-1.5zM278.35 156.29v-1.49h9.85v1.49zM278.35 158.36v-1.51h9.83v1.51zM280.71 162.4V161h5.15v1.45z"/></svg>