<svg id="Layer_1" data-name="Layer 1" xmlns="http://www.w3.org/2000/svg" viewBox="0 0 349 349"><defs><style>.cls-1{fill:#fbc2ba;}.cls-2{fill:#fcddd6;}.cls-3{fill:#f16c51;}.cls-4{fill:#fff;}.cls-5{fill:#4c0519;}</style></defs><title>live-enterprise-overview</title><path class="cls-1" d="M3.55,209.63A175.36,175.36,0,0,1,0,174.49,172.47,172.47,0,0,1,36.17,68.13l130.7,104.21Z"/><path class="cls-1" d="M40.11,63.19A173.77,173.77,0,0,1,170.8,0V167.4Z"/><path class="cls-1" d="M177.13,0A173.74,173.74,0,0,1,308.45,62.67L177.14,167.39Z"/><path class="cls-1" d="M181.08,172.34,312.42,67.6a174.8,174.8,0,0,1,33,142.25Z"/><path class="cls-1" d="M179.67,178.51,344,216a174.86,174.86,0,0,1-91.15,114.42Z"/><path class="cls-1" d="M95.33,330A174.87,174.87,0,0,1,4.93,215.81l163.34-37.3Z"/><path class="cls-1" d="M174.5,349A172.75,172.75,0,0,1,101,332.8l73-151.55,73.2,151.94A172.87,172.87,0,0,1,174.5,349Z"/><circle class="cls-2" cx="174.5" cy="174.49" r="167.5"/><path class="cls-3" d="M10.39,208.23A168.88,168.88,0,0,1,7,174.49,165.68,165.68,0,0,1,41.7,72.38L167.17,172.43Z"/><path class="cls-3" d="M45.49,67.64A166.81,166.81,0,0,1,171,7V167.68Z"/><path class="cls-3" d="M177,7A166.83,166.83,0,0,1,303.09,67.14L177,167.68Z"/><path class="cls-3" d="M180.82,172.43,306.9,71.87a167.76,167.76,0,0,1,31.67,136.56Z"/><path class="cls-3" d="M179.47,178.35l157.77,36A167.84,167.84,0,0,1,249.73,324.2Z"/><path class="cls-3" d="M98.5,323.81A167.85,167.85,0,0,1,11.72,214.16l156.8-35.81Z"/><path class="cls-3" d="M174.5,342A166,166,0,0,1,104,326.47L174,181l70.27,145.86A165.91,165.91,0,0,1,174.5,342Z"/><circle class="cls-2" cx="174.5" cy="174.49" r="62.5"/><path class="cls-4" d="M197.69,93.27a4.82,4.82,0,0,1-1.92.33A3.5,3.5,0,0,1,192,89.87,3.73,3.73,0,0,1,196,86a4.27,4.27,0,0,1,1.8.33l-.29,1.08a3.72,3.72,0,0,0-1.46-.29,2.47,2.47,0,0,0-2.59,2.73A2.43,2.43,0,0,0,196,92.48a3.75,3.75,0,0,0,1.48-.28Z"/><path class="cls-4" d="M203.7,90.76A2.65,2.65,0,0,1,201,93.61a2.59,2.59,0,0,1-2.68-2.76A2.64,2.64,0,0,1,201,88,2.56,2.56,0,0,1,203.7,90.76Zm-4,0c0,1,.5,1.82,1.33,1.82s1.31-.76,1.31-1.84c0-.83-.38-1.79-1.3-1.79S199.67,89.92,199.67,90.81Z"/><path class="cls-4" d="M204.81,89.73c0-.62,0-1.14,0-1.6H206l.06.8h0a1.94,1.94,0,0,1,1.7-.92c.94,0,1.91.6,1.91,2.3v3.18h-1.36v-3c0-.77-.28-1.35-1-1.35a1.14,1.14,0,0,0-1.06.79,1.52,1.52,0,0,0,0,.44v3.15h-1.37Z"/><path class="cls-4" d="M211.11,89.73c0-.62,0-1.14-.05-1.6h1.19l.07.8h0a1.94,1.94,0,0,1,1.7-.92c.94,0,1.91.6,1.91,2.3v3.18H214.6v-3c0-.77-.28-1.35-1-1.35a1.14,1.14,0,0,0-1.06.79,1.52,1.52,0,0,0-.05.44v3.15h-1.36Z"/><path class="cls-4" d="M218.35,91.19A1.46,1.46,0,0,0,220,92.57a3.94,3.94,0,0,0,1.49-.24l.2.94a5.18,5.18,0,0,1-1.87.33,2.53,2.53,0,0,1-2.76-2.71A2.65,2.65,0,0,1,219.68,88a2.33,2.33,0,0,1,2.3,2.61,3.65,3.65,0,0,1,0,.57Zm2.36-1a1.16,1.16,0,0,0-1.11-1.31,1.33,1.33,0,0,0-1.25,1.31Z"/><path class="cls-4" d="M227,93.32a3.93,3.93,0,0,1-1.52.28,2.57,2.57,0,0,1-2.76-2.73,2.77,2.77,0,0,1,3-2.86,3.43,3.43,0,0,1,1.31.25l-.24,1a2.52,2.52,0,0,0-1-.21,1.74,1.74,0,0,0,0,3.47,2.6,2.6,0,0,0,1.06-.21Z"/><path class="cls-4" d="M229.73,86.6v1.53H231v1h-1.29v2.37c0,.65.17,1,.69,1a2.12,2.12,0,0,0,.53-.07l0,1a3.2,3.2,0,0,1-1,.13,1.57,1.57,0,0,1-1.16-.44,2.12,2.12,0,0,1-.42-1.5V89.14h-.77v-1h.77V86.92Z"/><path class="cls-4" d="M232.93,91.19c0,1,.79,1.38,1.65,1.38a3.85,3.85,0,0,0,1.48-.24l.2.94a5.18,5.18,0,0,1-1.87.33,2.53,2.53,0,0,1-2.76-2.71A2.65,2.65,0,0,1,234.25,88a2.33,2.33,0,0,1,2.31,2.61,3.65,3.65,0,0,1,0,.57Zm2.35-1a1.16,1.16,0,0,0-1.11-1.31,1.32,1.32,0,0,0-1.24,1.31Z"/><path class="cls-4" d="M242.59,85.68V92c0,.55,0,1.14,0,1.51h-1.21l0-.85h0a1.93,1.93,0,0,1-1.74,1,2.45,2.45,0,0,1-2.29-2.74A2.55,2.55,0,0,1,239.7,88a1.72,1.72,0,0,1,1.51.7h0v-3Zm-1.36,4.68a2.07,2.07,0,0,0,0-.35,1.19,1.19,0,0,0-1.17-1c-.86,0-1.35.77-1.35,1.78s.49,1.69,1.34,1.69a1.19,1.19,0,0,0,1.17-1,1.61,1.61,0,0,0,0-.39Z"/><path class="cls-4" d="M266.49,171.7c0,2.49-1.51,3.91-3.55,3.91s-3.42-1.6-3.42-3.77S261,168,263.05,168,266.49,169.59,266.49,171.7Zm-5.54.11c0,1.51.76,2.71,2.06,2.71s2.05-1.21,2.05-2.76c0-1.4-.7-2.72-2.05-2.72S261,170.28,261,171.81Z"/><path class="cls-4" d="M267.55,175.49c0-.37.05-1,.05-1.51v-6.3H269v3.19h0a1.94,1.94,0,0,1,1.72-.86c1.31,0,2.24,1.09,2.23,2.72,0,1.92-1.22,2.88-2.43,2.88a1.84,1.84,0,0,1-1.69-.93h0l-.07.81Zm1.4-2.21a1.66,1.66,0,0,0,0,.32,1.26,1.26,0,0,0,1.2.94c.85,0,1.37-.68,1.37-1.76s-.45-1.72-1.36-1.72a1.27,1.27,0,0,0-1.19,1,1.18,1.18,0,0,0-.05.35Z"/><path class="cls-4" d="M274,174.24a3,3,0,0,0,1.37.39c.6,0,.86-.24.86-.59s-.22-.55-.88-.79c-1.05-.36-1.48-.93-1.47-1.56a1.79,1.79,0,0,1,2-1.68,3.1,3.1,0,0,1,1.42.32l-.26,1a2.35,2.35,0,0,0-1.14-.31c-.48,0-.75.23-.75.56s.26.5.94.75c1,.35,1.42.84,1.43,1.64,0,1-.76,1.67-2.18,1.67a3.47,3.47,0,0,1-1.63-.38Z"/><path class="cls-4" d="M279.58,173.19c0,1,.79,1.38,1.65,1.38a3.88,3.88,0,0,0,1.48-.24l.2.94a5.18,5.18,0,0,1-1.87.33,2.53,2.53,0,0,1-2.76-2.71A2.65,2.65,0,0,1,280.9,170a2.33,2.33,0,0,1,2.31,2.61,2.58,2.58,0,0,1,0,.57Zm2.35-.95a1.16,1.16,0,0,0-1.11-1.31,1.31,1.31,0,0,0-1.24,1.31Z"/><path class="cls-4" d="M284.3,171.86c0-.73,0-1.25-.05-1.73h1.18l0,1h0A1.53,1.53,0,0,1,287.3,170v1.28a2,2,0,0,0-.4,0,1.19,1.19,0,0,0-1.21,1,2.5,2.5,0,0,0,0,.42v2.77H284.3Z"/><path class="cls-4" d="M289.31,170.13l.87,2.72a10.73,10.73,0,0,1,.36,1.34h0c.1-.44.22-.86.36-1.34l.85-2.72h1.43l-2.05,5.36h-1.33l-2-5.36Z"/><path class="cls-4" d="M297,175.49l-.09-.6h0a2,2,0,0,1-1.59.72,1.59,1.59,0,0,1-1.68-1.6c0-1.35,1.2-2,3.18-2v-.09c0-.35-.14-.93-1.09-.93a2.83,2.83,0,0,0-1.44.39l-.26-.88a3.86,3.86,0,0,1,1.93-.47,2,2,0,0,1,2.21,2.25v1.94a9.35,9.35,0,0,0,.08,1.29Zm-.18-2.62c-.95,0-1.87.19-1.87,1a.71.71,0,0,0,.77.77,1.1,1.1,0,0,0,1.06-.74,1.06,1.06,0,0,0,0-.29Z"/><path class="cls-4" d="M299.52,175.49c0-.37,0-1,0-1.51v-6.3h1.36v3.19h0a1.93,1.93,0,0,1,1.71-.86c1.31,0,2.25,1.09,2.24,2.72,0,1.92-1.22,2.88-2.43,2.88a1.86,1.86,0,0,1-1.7-.93h0l-.07.81Zm1.4-2.21a1.66,1.66,0,0,0,0,.32,1.25,1.25,0,0,0,1.2.94c.85,0,1.36-.68,1.36-1.76s-.45-1.72-1.35-1.72a1.27,1.27,0,0,0-1.2,1,1.69,1.69,0,0,0,0,.35Z"/><path class="cls-4" d="M306,167.68h1.36v7.81H306Z"/><path class="cls-4" d="M309.78,173.19c0,1,.79,1.38,1.65,1.38a3.94,3.94,0,0,0,1.49-.24l.2.94a5.23,5.23,0,0,1-1.87.33,2.54,2.54,0,0,1-2.77-2.71A2.66,2.66,0,0,1,311.1,170a2.33,2.33,0,0,1,2.31,2.61,3.65,3.65,0,0,1,0,.57Zm2.36-.95a1.16,1.16,0,0,0-1.11-1.31,1.33,1.33,0,0,0-1.25,1.31Z"/><path class="cls-4" d="M244.13,280a3.67,3.67,0,0,0,1.79.48c.87,0,1.36-.41,1.36-1s-.38-.89-1.32-1.23c-1.22-.44-2-1.09-2-2.15s1-2.14,2.62-2.14a3.83,3.83,0,0,1,1.78.38l-.33,1.09a3,3,0,0,0-1.47-.36c-.86,0-1.23.46-1.23.89s.43.84,1.42,1.23c1.28.48,1.91,1.13,1.91,2.2s-.9,2.22-2.81,2.22a4.45,4.45,0,0,1-2-.46Z"/><path class="cls-4" d="M250.84,279.19c0,1,.79,1.38,1.65,1.38a3.94,3.94,0,0,0,1.49-.24l.19.94a5.18,5.18,0,0,1-1.87.33,2.54,2.54,0,0,1-2.76-2.71,2.65,2.65,0,0,1,2.62-2.88,2.33,2.33,0,0,1,2.31,2.61,3.65,3.65,0,0,1,0,.57Zm2.35-.95a1.14,1.14,0,0,0-1.11-1.31,1.33,1.33,0,0,0-1.24,1.31Z"/><path class="cls-4" d="M255.56,277.73c0-.62,0-1.14,0-1.6h1.18l.07.8h0a2,2,0,0,1,1.71-.92c.93,0,1.9.6,1.9,2.3v3.18h-1.35v-3c0-.77-.29-1.35-1-1.35a1.13,1.13,0,0,0-1,.79,1.51,1.51,0,0,0-.06.44v3.15h-1.36Z"/><path class="cls-4" d="M263.35,274.6v1.53h1.28v1h-1.28v2.37c0,.65.17,1,.69,1a2.12,2.12,0,0,0,.53-.07l0,1a3.2,3.2,0,0,1-1,.13,1.62,1.62,0,0,1-1.17-.44,2.17,2.17,0,0,1-.41-1.5v-2.52h-.77v-1H262v-1.21Z"/><path class="cls-4" d="M267.1,274.63a.76.76,0,1,1-.76-.73A.72.72,0,0,1,267.1,274.63Zm-1.44,6.86v-5.36H267v5.36Z"/><path class="cls-4" d="M269.43,279.19c0,1,.79,1.38,1.65,1.38a3.94,3.94,0,0,0,1.49-.24l.19.94a5.18,5.18,0,0,1-1.87.33,2.54,2.54,0,0,1-2.76-2.71,2.65,2.65,0,0,1,2.62-2.88,2.33,2.33,0,0,1,2.31,2.61,3.65,3.65,0,0,1,0,.57Zm2.35-.95a1.14,1.14,0,0,0-1.11-1.31,1.33,1.33,0,0,0-1.24,1.31Z"/><path class="cls-4" d="M274.15,277.73c0-.62,0-1.14,0-1.6h1.19l.07.8h0a2,2,0,0,1,1.71-.92c.93,0,1.9.6,1.9,2.3v3.18h-1.35v-3c0-.77-.29-1.35-1-1.35a1.13,1.13,0,0,0-1.05.79,1.23,1.23,0,0,0-.06.44v3.15h-1.36Z"/><path class="cls-4" d="M281.94,274.6v1.53h1.28v1h-1.28v2.37c0,.65.17,1,.69,1a2.12,2.12,0,0,0,.53-.07l0,1a3.2,3.2,0,0,1-1,.13,1.62,1.62,0,0,1-1.17-.44,2.17,2.17,0,0,1-.41-1.5v-2.52h-.77v-1h.77v-1.21Z"/><path class="cls-4" d="M164.16,316.39l-.64,2.1h-1.4l2.38-7.42h1.73l2.41,7.42h-1.46l-.67-2.1Zm2.12-1-.58-1.82c-.14-.45-.26-1-.38-1.39h0c-.11.43-.22,1-.35,1.39l-.57,1.82Z"/><path class="cls-4" d="M174.37,313.13c0,.36-.05.8-.05,1.54v3a2.58,2.58,0,0,1-2.86,3.08,3.86,3.86,0,0,1-1.87-.43l.3-1a3.2,3.2,0,0,0,1.56.41,1.42,1.42,0,0,0,1.54-1.62v-.46h0a1.79,1.79,0,0,1-1.56.79,2.38,2.38,0,0,1-2.28-2.61,2.57,2.57,0,0,1,2.43-2.83,1.68,1.68,0,0,1,1.55.84h0l.06-.72Zm-1.4,2.15a1.45,1.45,0,0,0,0-.37,1.14,1.14,0,0,0-1.11-.87c-.75,0-1.32.66-1.32,1.75,0,.92.47,1.65,1.31,1.65a1.15,1.15,0,0,0,1.1-.81,1.93,1.93,0,0,0,.06-.49Z"/><path class="cls-4" d="M177.17,311.63a.76.76,0,1,1-.76-.73A.72.72,0,0,1,177.17,311.63Zm-1.44,6.86v-5.36h1.36v5.36Z"/><path class="cls-4" d="M178.55,310.68h1.36v7.81h-1.36Z"/><path class="cls-4" d="M182.33,316.19c0,1,.79,1.38,1.65,1.38a3.94,3.94,0,0,0,1.49-.24l.19.94a5.18,5.18,0,0,1-1.87.33,2.54,2.54,0,0,1-2.76-2.71,2.65,2.65,0,0,1,2.62-2.88,2.33,2.33,0,0,1,2.31,2.61,3.65,3.65,0,0,1,0,.57Zm2.35-.95a1.14,1.14,0,0,0-1.11-1.31,1.33,1.33,0,0,0-1.24,1.31Z"/><path class="cls-4" d="M66,276.2H63.2v2.18h3.13v1.11H61.85v-7.42h4.31v1.11h-3v1.92H66Z"/><path class="cls-4" d="M68.21,274.13l.87,2.72c.15.47.26.9.36,1.34h0c.1-.44.22-.86.37-1.34l.84-2.72h1.43l-2,5.36H68.74l-2-5.36Z"/><path class="cls-4" d="M77.89,276.76a2.66,2.66,0,0,1-2.75,2.85,2.6,2.6,0,0,1-2.69-2.76A2.65,2.65,0,0,1,75.23,274,2.57,2.57,0,0,1,77.89,276.76Zm-4,.05c0,1,.51,1.82,1.33,1.82s1.31-.76,1.31-1.84c0-.83-.37-1.79-1.3-1.79S73.85,275.92,73.85,276.81Z"/><path class="cls-4" d="M79,271.68h1.36v7.81H79Z"/><path class="cls-4" d="M82.68,274.13l.87,2.72a12.92,12.92,0,0,1,.37,1.34h0c.1-.44.22-.86.36-1.34l.85-2.72h1.43l-2,5.36H83.21l-2-5.36Z"/><path class="cls-4" d="M90.36,279.49l-.09-.6h0a2,2,0,0,1-1.58.72A1.6,1.6,0,0,1,87,278c0-1.35,1.2-2,3.18-2v-.09c0-.35-.14-.93-1.09-.93a2.88,2.88,0,0,0-1.44.39l-.26-.88A3.87,3.87,0,0,1,89.3,274a2,2,0,0,1,2.21,2.25v1.94a9.52,9.52,0,0,0,.07,1.29Zm-.17-2.62c-1,0-1.87.19-1.87,1a.71.71,0,0,0,.77.77,1.08,1.08,0,0,0,1-.74.8.8,0,0,0,0-.29Z"/><path class="cls-4" d="M92.89,279.49c0-.37,0-1,0-1.51v-6.3h1.35v3.19h0A1.93,1.93,0,0,1,96,274c1.31,0,2.24,1.09,2.23,2.72,0,1.92-1.22,2.88-2.43,2.88a1.87,1.87,0,0,1-1.7-.93h0l-.06.81Zm1.4-2.21a1.66,1.66,0,0,0,0,.32,1.25,1.25,0,0,0,1.2.94c.85,0,1.37-.68,1.37-1.76s-.46-1.72-1.36-1.72a1.28,1.28,0,0,0-1.2,1,1.69,1.69,0,0,0,0,.35Z"/><path class="cls-4" d="M99.37,271.68h1.36v7.81H99.37Z"/><path class="cls-4" d="M103.15,277.19a1.46,1.46,0,0,0,1.65,1.38,3.94,3.94,0,0,0,1.49-.24l.2.94a5.18,5.18,0,0,1-1.87.33,2.53,2.53,0,0,1-2.76-2.71,2.65,2.65,0,0,1,2.62-2.88,2.33,2.33,0,0,1,2.3,2.61,3.65,3.65,0,0,1,0,.57Zm2.36-.95a1.16,1.16,0,0,0-1.11-1.31,1.33,1.33,0,0,0-1.25,1.31Z"/><path class="cls-4" d="M44.21,172.07h1.35v6.28h3v1.14h-4.4Z"/><path class="cls-4" d="M51,172.63a.76.76,0,1,1-.76-.73A.72.72,0,0,1,51,172.63Zm-1.44,6.86v-5.36h1.36v5.36Z"/><path class="cls-4" d="M53.25,174.13l.87,2.72a12.8,12.8,0,0,1,.36,1.34h0c.1-.44.22-.86.36-1.34l.85-2.72h1.43l-2,5.36H53.78l-2-5.36Z"/><path class="cls-4" d="M58.8,177.19a1.44,1.44,0,0,0,1.64,1.38,3.94,3.94,0,0,0,1.49-.24l.2.94a5.18,5.18,0,0,1-1.87.33,2.53,2.53,0,0,1-2.76-2.71A2.65,2.65,0,0,1,60.12,174a2.33,2.33,0,0,1,2.31,2.61,3.4,3.4,0,0,1,0,.57Zm2.35-.95A1.16,1.16,0,0,0,60,174.93a1.31,1.31,0,0,0-1.24,1.31Z"/><path class="cls-4" d="M105,90.07v7.42h-1.36V90.07Z"/><path class="cls-4" d="M106.55,93.73c0-.62,0-1.14,0-1.6h1.19l.07.8h0A1.94,1.94,0,0,1,109.5,92c.93,0,1.9.6,1.9,2.3v3.18h-1.35v-3c0-.77-.29-1.35-1-1.35a1.12,1.12,0,0,0-1,.79,1.23,1.23,0,0,0-.06.44v3.15h-1.36Z"/><path class="cls-4" d="M112.84,93.73c0-.62,0-1.14,0-1.6H114l.07.8h0a2,2,0,0,1,1.71-.92c.93,0,1.9.6,1.9,2.3v3.18h-1.35v-3c0-.77-.29-1.35-1-1.35a1.13,1.13,0,0,0-1,.79,1.51,1.51,0,0,0-.06.44v3.15h-1.36Z"/><path class="cls-4" d="M124.23,94.76a2.66,2.66,0,0,1-2.75,2.85,2.6,2.6,0,0,1-2.69-2.76A2.65,2.65,0,0,1,121.56,92,2.57,2.57,0,0,1,124.23,94.76Zm-4,0c0,1,.5,1.82,1.33,1.82s1.31-.76,1.31-1.84c0-.83-.38-1.79-1.3-1.79S120.19,93.92,120.19,94.81Z"/><path class="cls-4" d="M126.11,92.13l.87,2.72c.15.47.26.9.36,1.34h0c.1-.44.22-.86.36-1.34l.85-2.72H130l-2,5.36h-1.34l-2-5.36Z"/><path class="cls-4" d="M133.78,97.49l-.08-.6h0a2,2,0,0,1-1.58.72A1.59,1.59,0,0,1,130.4,96c0-1.35,1.19-2,3.17-2V93.9c0-.35-.14-.93-1.08-.93a2.89,2.89,0,0,0-1.45.39l-.26-.88a3.9,3.9,0,0,1,1.94-.47,2,2,0,0,1,2.21,2.25V96.2a8,8,0,0,0,.08,1.29Zm-.17-2.62c-1,0-1.87.19-1.87,1a.71.71,0,0,0,.77.77,1.08,1.08,0,0,0,1.05-.74.8.8,0,0,0,.05-.29Z"/><path class="cls-4" d="M137.84,90.6v1.53h1.29v1h-1.29v2.37c0,.65.18,1,.7,1a2,2,0,0,0,.52-.07l0,1a3.2,3.2,0,0,1-1,.13,1.58,1.58,0,0,1-1.17-.44,2.12,2.12,0,0,1-.42-1.5V93.14h-.77v-1h.77V90.92Z"/><path class="cls-4" d="M141.59,90.63a.71.71,0,0,1-.77.73.71.71,0,0,1-.74-.73.76.76,0,0,1,1.51,0Zm-1.44,6.86V92.13h1.37v5.36Z"/><path class="cls-4" d="M143.83,92.13l.87,2.72c.15.47.26.9.36,1.34h0c.1-.44.22-.86.37-1.34l.84-2.72h1.43l-2,5.36h-1.34l-2-5.36Z"/><path class="cls-4" d="M149.37,95.19c0,1,.79,1.38,1.65,1.38a3.94,3.94,0,0,0,1.49-.24l.19.94a5.18,5.18,0,0,1-1.87.33,2.54,2.54,0,0,1-2.76-2.71A2.66,2.66,0,0,1,150.69,92,2.33,2.33,0,0,1,153,94.62a3.65,3.65,0,0,1,0,.57Zm2.36-1a1.16,1.16,0,0,0-1.12-1.31,1.33,1.33,0,0,0-1.24,1.31Z"/><path class="cls-4" d="M261.5,154.62a3.79,3.79,0,0,0,.4-.3l16.21-16.21c.12-.12.23-.25.23-.25-.64-1.65-1.4-3.18-1.85-4.78a17.77,17.77,0,0,1,14.15-22.32l1.62-.26h2.65c.43.07.86.15,1.29.21a17.73,17.73,0,0,1,15.08,15.38c.08.68.15,1.36.22,2v.34c-.07.7-.14,1.4-.22,2.1a17.82,17.82,0,0,1-31.43,9.06,2.75,2.75,0,0,0-.22-.26.52.52,0,0,0-.11-.07l-15.43,15.32,3.25,3.26,8.15-8.28-2.41-2.26,8.2-2.2-2.15,8.05-2.26-2.32c-.17.14-.26.21-.33.28q-4.55,4.54-9.08,9.08a2.69,2.69,0,0,0-.2.27h-.11c-1.3-1.32-2.59-2.64-3.89-3.95-.57-.58-1.17-1.13-1.76-1.7Zm48.14-26.28a16,16,0,1,0-16.16,16A16,16,0,0,0,309.64,128.34Z"/><path class="cls-4" d="M293.52,135.57a14.51,14.51,0,0,1-12.23-6.84.65.65,0,0,1,0-.81A14.58,14.58,0,0,1,306,128a.55.55,0,0,1,0,.71,14.34,14.34,0,0,1-11.61,6.84ZM304,128.34a12.72,12.72,0,0,0-20.47-.49.63.63,0,0,0,0,1,12.47,12.47,0,0,0,12.48,4.67A12.26,12.26,0,0,0,304,128.34Z"/><path class="cls-4" d="M293.63,132a3.64,3.64,0,1,1,3.64-3.65A3.62,3.62,0,0,1,293.63,132Zm-1.83-3.64a1.85,1.85,0,0,0,1.74,1.87,1.89,1.89,0,0,0,1.93-1.87,1.86,1.86,0,0,0-1.84-1.83A1.84,1.84,0,0,0,291.8,128.31Z"/><path class="cls-4" d="M44.6,161.16l8-34.89a3.23,3.23,0,0,1-2.2-2.18,4.31,4.31,0,0,1,0-2.08,3.24,3.24,0,0,1,3.29-2.32,3.39,3.39,0,0,1,3.21,2.47c.44,1.66-.24,2.94-2.24,4.12q4,17.4,8,34.88ZM58,150.9,49.82,146l-2.88,12.48Zm1,1.33-10.61,7.31H60.62Zm-8.22-7.63,7.5,4.52-2-8.84Zm-.1-2.08c.27-.2.43-.3.57-.42,1.36-1.07,2.71-2.16,4.09-3.21a.84.84,0,0,0,.37-1c-.63-2.62-1.22-5.24-1.83-7.87,0-.15-.09-.3-.18-.6Zm3-17.79A1.72,1.72,0,0,0,55.39,123a1.77,1.77,0,0,0-3.53,0A1.72,1.72,0,0,0,53.6,124.73Z"/><path class="cls-4" d="M47.26,111.18l.64,1.48a11.32,11.32,0,0,0-6,6.14h2.33c-.79,1.35-1.45,2.66-2.29,3.85a3.25,3.25,0,0,0-.36,3.1,11.1,11.1,0,0,0,5.63,6.74l.67.33-.65,1.5a12.63,12.63,0,0,1-5-3.8,12.38,12.38,0,0,1-2.59-5.86,2.93,2.93,0,0,0-.36-1c-.92-1.6-1.86-3.18-2.86-4.88,1.11,0,2.12,0,3.13,0a.67.67,0,0,0,.78-.53A12.51,12.51,0,0,1,47.26,111.18Z"/><path class="cls-4" d="M59.38,112.66l.66-1.5A11.66,11.66,0,0,1,65,114.92a27.23,27.23,0,0,1,2,3.44c.5.92.88,1.92,1.39,2.84.77,1.4,1.6,2.76,2.46,4.23H67.52a12.86,12.86,0,0,1-7.46,8.9l-.68-1.5a11.24,11.24,0,0,0,6.39-7.38h-2.7l.3-.56c.76-1.3,1.54-2.59,2.27-3.9a1.21,1.21,0,0,0,.13-.85,10.86,10.86,0,0,0-5.81-7.2Z"/><path class="cls-4" d="M57.71,116.9l.62-1.41c2.33.52,4.68,3.67,4.89,6.53a7.9,7.9,0,0,1-4.87,8l-.64-1.45a6.36,6.36,0,0,0,0-11.69Z"/><path class="cls-4" d="M49,115.46l.63,1.44a6.35,6.35,0,0,0,0,11.67L49,130c-2.64-.73-4.84-3.94-4.92-7.14A7.83,7.83,0,0,1,49,115.46Z"/><path class="cls-4" d="M67.5,223v-.54a7.9,7.9,0,0,1,.79-.61l11.36-6.56a.66.66,0,0,0,.43-.78,2.65,2.65,0,0,1,.85-2.45,9.85,9.85,0,0,1,1.55-.91h1.29l.42.2a3,3,0,0,1,1.91,3.21c-.07.4.07.53.36.7q5.78,3.31,11.54,6.66a4.69,4.69,0,0,1,.64.54v.76a.64.64,0,0,0-.08.19q-1.43,9.3-2.81,18.61a2,2,0,0,1-1,1.63c-1.14.7-2.22,1.49-3.3,2.21a2.59,2.59,0,0,1,.42.52c.33.74.63,1.49.94,2.23a.68.68,0,0,1-.3,1,1.68,1.68,0,0,0-.81,1.61,2,2,0,0,0,1,2,.61.61,0,0,1,.17.57c-.3.84-.63,1.67-1,2.48a.65.65,0,0,1-.55.32,1.81,1.81,0,0,0-2.17.86l-.08.08c-.71.36-.73,1-.61,1.64,0,0,0,.07,0,.11.15.43,0,.66-.43.82-.85.33-1.68.69-2.52,1h-.22c-.3-.38-.59-.76-.9-1.13a.35.35,0,0,0-.26-.16c-1.14.07-2.47-.34-3.13,1.11a1.18,1.18,0,0,1-.13.18h-.21L78,260a.47.47,0,0,1-.33-.63,1.94,1.94,0,0,0-.72-2.08c-.61-.57-1.12-1-2-.72a.57.57,0,0,1-.76-.39c-.18-.45-.43-.87-.6-1.32-.53-1.35-.52-1.35.55-2.29a.73.73,0,0,0,.25-.47c0-.26-.1-.55,0-.79a1.66,1.66,0,0,0-.91-1.92.62.62,0,0,1-.18-.56c.3-.86.64-1.7,1-2.54.07-.17.28-.28.45-.43-.91-.62-1.83-1.31-2.82-1.88a3.07,3.07,0,0,1-1.64-2.47c-.69-5.16-1.52-10.29-2.3-15.43C67.87,225.08,67.68,224,67.5,223Zm21.88,22.41c1.55-1,3.1-2.08,4.63-3.14a.74.74,0,0,0,.22-.45L96,230.33c.31-2,.62-4,.94-6.13l-.53.28q-6.27,3.61-12.53,7.25a1.34,1.34,0,0,1-1.53,0q-6.22-3.63-12.48-7.22c-.15-.09-.3-.16-.55-.29.11.79.21,1.47.31,2.16.7,4.61,1.45,9.21,2.07,13.83a3.48,3.48,0,0,0,1.84,3,34.28,34.28,0,0,1,3.21,2.11,1.55,1.55,0,0,0,1-2.07s0,0,0-.06c-.09-.3,0-.47.31-.59.63-.28,1.26-.61,1.91-.85.89-.33.89-.3,1.5.42a3.37,3.37,0,0,0,.46.53c.19.15.44.18.45-.16,0-.82,0-1.64,0-2.52H79.6l3.49-6,3.5,6.07H83.88v2.81a2.27,2.27,0,0,0,.51-.28c.26-.27.47-.59.74-.85a.58.58,0,0,1,.49-.15c.87.32,1.73.67,2.57,1.06a.62.62,0,0,1,.26.54,1.75,1.75,0,0,0,.82,2.14ZM69.82,222.72l.63.38c4,2.34,8.11,4.67,12.15,7a.84.84,0,0,0,1,0Q89.75,226.53,96,223l.32-.23c0-.05,0-.07-.06-.08-3.57-2.06-7.13-4.13-10.71-6.18a.55.55,0,0,0-.49.07,3.25,3.25,0,0,1-2.06.66,3.32,3.32,0,0,1-2.07-.88ZM86.9,258.94c0-.32-.05-.66-.1-1a.81.81,0,0,1,.39-.89,5.87,5.87,0,0,0,1.4-1.32,1.42,1.42,0,0,1,1.72-.74.68.68,0,0,0,.53-.09.83.83,0,0,0-.11-1.33,3.68,3.68,0,0,0-.38-.31c-.29-.17-.3-.39-.26-.72a5.28,5.28,0,0,0,.08-1.81,1.45,1.45,0,0,1,.72-1.82.57.57,0,0,0,.28-.4.84.84,0,0,0-1-.86,2,2,0,0,0-.43,0c-.37.09-.57-.08-.8-.36a5.89,5.89,0,0,0-1.31-1.41,1.47,1.47,0,0,1-.75-1.82.58.58,0,0,0-.1-.48.81.81,0,0,0-1.32.13c-.09.11-.2.21-.28.33-.21.34-.48.36-.86.3a5.23,5.23,0,0,0-1.76-.07,1.61,1.61,0,0,1-2-.79.49.49,0,0,0-.37-.22.81.81,0,0,0-.83,1c0,.14,0,.29,0,.42.11.42-.08.64-.4.88a5.13,5.13,0,0,0-1.33,1.25,1.57,1.57,0,0,1-1.91.78.5.5,0,0,0-.41.12c-.42.55-.37.9.16,1.34a2.32,2.32,0,0,1,.44.38,1,1,0,0,1,.18.51,9.91,9.91,0,0,0-.06,2,1.46,1.46,0,0,1-.75,1.72.6.6,0,0,0-.27.4c0,.65.37.91,1,.86a2,2,0,0,0,.43,0c.36-.11.53.07.75.33A14.37,14.37,0,0,0,78.91,257a.93.93,0,0,1,.45,1c0,.12,0,.26,0,.37-.14.45,0,.66.46.84s.67.11.89-.25c.07-.13.19-.22.27-.34.24-.39.56-.42,1-.37a10,10,0,0,0,2.19,0,1.05,1.05,0,0,1,1.17.45c.57.76.6.74,1.47.3Zm-2.28-44.75a1.53,1.53,0,0,0-1.54-1.53,1.55,1.55,0,0,0-1.54,1.53,1.57,1.57,0,0,0,1.52,1.52A1.53,1.53,0,0,0,84.62,214.19Z"/><path class="cls-4" d="M83.1,246.26a5.08,5.08,0,1,1,0,10.15,5.08,5.08,0,1,1,0-10.15Zm0,1.52a3.56,3.56,0,1,0,3.58,3.55A3.61,3.61,0,0,0,83.1,247.78Z"/><path class="cls-4" d="M188.67,301v-2.8H153.2v-1.53h.68q9.08,0,18.14,0a19.74,19.74,0,0,0,4.47-.35,12.57,12.57,0,0,0,9.71-12.77,11.91,11.91,0,0,0-1.44-5.14c-.14-.26-.25-.38-.6-.28a3,3,0,0,1-3.22-.94,2.88,2.88,0,0,1-.42-3.27c-3.31-2.53-9.75-3.42-14.83.28a12.15,12.15,0,0,0-4.34,14.26l2.85-1.12-1,7-5.77-4.32,2.37-1a13.81,13.81,0,0,1-.46-8.19,14,14,0,0,1,4.31-7.07,10.49,10.49,0,0,1-6.94-4.72,9.83,9.83,0,0,1-1.47-6.05,10.37,10.37,0,0,1,9.44-9.26V251l6.33,3.55-6.3,3.53v-2.69a8.71,8.71,0,0,0-7.8,7,8.61,8.61,0,0,0,8.2,10,1.46,1.46,0,0,0,.73-.18,14.61,14.61,0,0,1,15.41.28.7.7,0,0,0,.75,0,3.15,3.15,0,0,1,3.57.76,3,3,0,0,1,.35,3.52.67.67,0,0,0,0,.57,13.82,13.82,0,0,1-5.37,18.94l-.53.32h8.58v-2.75l6.36,3.56Zm-5.38-24.2a1.57,1.57,0,0,0,1.59-1.52,1.59,1.59,0,0,0-1.6-1.56,1.54,1.54,0,1,0,0,3.08Z"/><path class="cls-4" d="M281.86,242.17a2.21,2.21,0,0,1-2.41,1.47c-1.56-.06-1.57,0-1.56,1.55s0,3.22,0,4.82a4.19,4.19,0,0,1-4.34,4.43c-1,0-2,0-3,0-.42,0-.58.12-.57.56,0,1.3,0,2.59,0,3.89a2.68,2.68,0,0,1-2.93,2.92H247.82a.67.67,0,0,0-.76.48,3.25,3.25,0,0,1-2.29,1.87H243.6l-.52-.22a3.12,3.12,0,0,1,.65-6,3,3,0,0,1,3.29,1.75.76.76,0,0,0,.85.54h19.18c1,0,1.34-.32,1.34-1.35V255a1.87,1.87,0,0,1,2.12-2.15h3a2.68,2.68,0,0,0,2.83-2.79c0-2,0-4-.05-5.93a1.85,1.85,0,0,1,2-2.08c.46,0,.93,0,1.39,0s.67-.19.43-.68c-.42-.87-.83-1.75-1.3-2.6a24,24,0,0,1-2.7-8.51,13.17,13.17,0,0,0-11.67-11.7,23.9,23.9,0,0,0-3.17-.24c-5.2,0-10.39,0-15.58,0H245v3l-6.21-3.62,6.13-3.56H245v2.62l.44,0c5.06,0,10.12,0,15.17,0a19.72,19.72,0,0,1,9.06,1.87,14.16,14.16,0,0,1,7.89,10.5,42.16,42.16,0,0,0,1.12,5.27A57.25,57.25,0,0,0,281.2,240c.2.44.44.86.66,1.28ZM242.64,261a1.59,1.59,0,0,0,1.6,1.57,1.59,1.59,0,1,0-1.6-1.57Z"/><path class="cls-4" d="M254.36,232.61l2.19,2.61L267,229,265.52,227l7.15-.77-2.91,6.57-1.82-2.47-11.74,7L254,234.67l-3.84,2.44a7.74,7.74,0,0,1-.83.52,1.31,1.31,0,0,0-.86,1.63,3,3,0,0,1-2.66,3.25,3.13,3.13,0,0,1-1-6.17,3,3,0,0,1,2.22.41.66.66,0,0,0,.83,0c2-1.28,4-2.54,6-3.81ZM247,239.43a1.55,1.55,0,0,0-1.55-1.6,1.59,1.59,0,0,0-1.58,1.53,1.61,1.61,0,0,0,1.54,1.63A1.56,1.56,0,0,0,247,239.43Z"/><path class="cls-4" d="M261.12,230c.13.36,0,.61-.42.76s-.67.3-1,.46c-.59.27-1.1.36-1.51-.34-.22-.37-1.34-.32-1.58.07-.34.57-.75.56-1.27.34-.26-.12-.53-.23-.8-.33-.6-.22-1-.55-.78-1.29.11-.41-.74-1.16-1.17-1.06a.82.82,0,0,1-1.09-.63c-.11-.31-.24-.61-.38-.91a.93.93,0,0,1,.33-1.37,1.07,1.07,0,0,0,0-1.49.83.83,0,0,1-.34-1.18c.14-.32.28-.64.39-1a.91.91,0,0,1,1.22-.7c.4.1,1.19-.72,1.09-1.15a.85.85,0,0,1,.64-1.14c.31-.11.6-.25.9-.38a.91.91,0,0,1,1.33.33,1.18,1.18,0,0,0,1.64,0,.82.82,0,0,1,1.18-.33c.29.14.61.24.91.36.56.23,1,.52.74,1.25-.12.41.71,1.2,1.14,1.1a.84.84,0,0,1,1.14.63,6,6,0,0,0,.37.91.94.94,0,0,1-.35,1.37,1.07,1.07,0,0,0,.1,1.51.81.81,0,0,1,.31,1.13c-.15.34-.3.67-.42,1a.87.87,0,0,1-1.17.67C261.69,228.53,261.05,229.36,261.12,230Zm1.24-6.87a4.83,4.83,0,0,1-1.35-.34,5.2,5.2,0,0,1-.86-.94.75.75,0,0,0-.17-.14.8.8,0,0,1-.49-1.08c0-.1-.05-.23-.14-.58-.43,1.13-1.19.87-1.9.79a.59.59,0,0,0-.23,0,1.29,1.29,0,0,1-1.63-.54s-.11,0-.19,0a1,1,0,0,0,0,.33.84.84,0,0,1-.45,1,3.63,3.63,0,0,0-.88.91.72.72,0,0,1-.86.38,1.43,1.43,0,0,0-.49.06l-.17.15c1.17.33.68,1.14.74,1.81s.24,1.41-.66,1.9c1-.22,1.37.44,1.88,1s1.21.87.84,1.91c.47-.34.75-.68,1.1-.76s.81.14,1.19.06a1.43,1.43,0,0,1,1.68.57s.08,0,.17,0c.19-.39-.29-1,.36-1.3a2.53,2.53,0,0,0,1-1.06c.33-.65.95-.06,1.42-.48-1-.39-.67-1.12-.67-1.82S261.32,223.6,262.36,223.17Z"/><path class="cls-4" d="M253.93,225a3.47,3.47,0,0,1,3.49-3.51,3.49,3.49,0,1,1-3.49,3.51Zm3.56-1.95a1.93,1.93,0,1,0,1.9,1.94A2,2,0,0,0,257.49,223.09Z"/><path class="cls-4" d="M221.42,76.07v3.8h2.46v1.2H210.65V79.89h2.24V76.07h-9.22a2.89,2.89,0,0,1-3.17-3.17V54a2.91,2.91,0,0,1,3.19-3.16H230.8A2.93,2.93,0,0,1,234,54v3.26h-1.51V55H202.07V71.82h30.37v-4.7H229.7l3.55-6.05,3.53,6H234v5.83a2.9,2.9,0,0,1-3.14,3.15h-9.46Zm11-2.66H202.07a1.3,1.3,0,0,0,0,.26,1.51,1.51,0,0,0,1.6.93h27.12a2.37,2.37,0,0,0,.53,0A1.38,1.38,0,0,0,232.46,73.41Zm0-20c-.25-.89-.66-1.16-1.75-1.16H203.83a3.38,3.38,0,0,0-.78.07,1.27,1.27,0,0,0-1,1.09ZM214.25,76.1v3.74h5.82V76.1Z"/><path class="cls-4" d="M229.79,38.33l-1,1.05A17.14,17.14,0,0,0,223.18,36c-.83-.29-1.69-.49-2.53-.74a.58.58,0,0,0-.8.34,3.08,3.08,0,0,1-5.38,0c-.25-.46-.5-.46-.9-.38a17.49,17.49,0,0,0-7.65,3.69l-.54.44-1-1.09A18.73,18.73,0,0,1,212.3,34l.23-.05a2.23,2.23,0,0,0,2.06-1.41,2.65,2.65,0,0,1,2.95-1.4,2.86,2.86,0,0,1,2.52,2,.84.84,0,0,0,.75.61A18.66,18.66,0,0,1,229.5,38l.22.21A1.16,1.16,0,0,1,229.79,38.33Zm-12.63-2.67a1.58,1.58,0,0,0,1.6-1.53,1.61,1.61,0,0,0-3.21-.05A1.57,1.57,0,0,0,217.16,35.66Z"/><path class="cls-4" d="M225.44,43l-1,1.06a11,11,0,0,0-14.69,0l-.63-.67c-.12-.13-.23-.27-.34-.4A12.34,12.34,0,0,1,225.44,43Z"/><path class="cls-4" d="M213.39,47.87a5.43,5.43,0,0,1,7.4,0l-1,1a4.12,4.12,0,0,0-5.43,0Z"/><path class="cls-4" d="M127.89,32.15c.82.14,1.65.26,2.46.44a17,17,0,0,1,13.24,14.69,16.66,16.66,0,0,1-6.48,15.5,1.64,1.64,0,0,1-.86.29q-9.61,0-19.23,0a1.69,1.69,0,0,1-1-.33,16.8,16.8,0,0,1-6.46-11.56,1.76,1.76,0,0,0-.1-.3V47.73a1.76,1.76,0,0,0,.1-.3,17.06,17.06,0,0,1,12.88-14.74c.93-.24,1.89-.37,2.83-.54Zm-1.28,29.47c3,0,6,0,9.08,0a1.35,1.35,0,0,0,.81-.26c4.8-4.15,6.71-9.37,5.32-15.56A15.43,15.43,0,0,0,123,34.1a14.82,14.82,0,0,0-11.58,11.53c-1.5,6.2.41,11.48,5.22,15.68a1.46,1.46,0,0,0,.85.3C120.56,61.63,123.59,61.62,126.61,61.62Z"/><path class="cls-4" d="M129.55,75.79l5.3,3.07-5.66,3.28V79.63H124v2.52l-5.7-3.28,5.31-3.08,0-.09h-6.37V74.24H136.4v1.43h-6.81ZM124,78.08h5.18V75.7H124a2.68,2.68,0,0,0,0,.35Z"/><path class="cls-4" d="M136.41,66.21v1.42H117.18V66.21Z"/><path class="cls-4" d="M136.41,70.21v1.42H117.18V70.21Z"/><path class="cls-4" d="M124,44.66c.46.59.9,1.19,1.38,1.76a.63.63,0,0,0,.52.15,3,3,0,0,1,3.35,1.55.67.67,0,0,0,.5.29c1.81-.1,3.61-.23,5.42-.35a9.42,9.42,0,0,1,.37-1,3,3,0,0,1,3.28-1.59,3,3,0,0,1,.31,5.75,2.85,2.85,0,0,1-3.41-1.21.92.92,0,0,0-1.07-.49q-2.2.18-4.41.3a.8.8,0,0,0-.87.63,2.93,2.93,0,0,1-4,1.7.61.61,0,0,0-.77.13c-1,.91-2,1.82-3.07,2.7a.82.82,0,0,0-.31,1,2.94,2.94,0,0,1-2.1,3.57,3,3,0,0,1-3.63-2,3,3,0,0,1,1.95-3.7,2.78,2.78,0,0,1,2.32.22.49.49,0,0,0,.68-.08c1.07-1,2.16-1.9,3.22-2.87a.61.61,0,0,0,.13-.54,2.93,2.93,0,0,1,.31-2.78.44.44,0,0,0-.05-.63c-.32-.39-.64-.78-.92-1.2a.81.81,0,0,0-1-.4,2.76,2.76,0,0,1-2.83-1.07,2.88,2.88,0,0,1-.4-3,3,3,0,1,1,5.31,2.64C124.23,44.35,124.14,44.49,124,44.66Zm12.69,3.79a1.56,1.56,0,0,0,1.5,1.51,1.58,1.58,0,0,0,1.52-1.5A1.53,1.53,0,0,0,138.2,47,1.5,1.5,0,0,0,136.72,48.45Zm-8.61,1A1.52,1.52,0,0,0,126.65,48a1.51,1.51,0,1,0,0,3A1.51,1.51,0,0,0,128.11,49.5Zm-9.72,5.71a1.51,1.51,0,0,0,0,3,1.54,1.54,0,0,0,1.47-1.53A1.51,1.51,0,0,0,118.39,55.21Zm1.87-12.5a1.46,1.46,0,0,0,1.49,1.47,1.49,1.49,0,1,0,0-3A1.47,1.47,0,0,0,120.26,42.71Z"/><path class="cls-5" d="M162.27,161.79h1.84v8.57h4.16v1.54h-6Z"/><path class="cls-5" d="M171.55,162.56a1,1,0,0,1-2.07,0,1,1,0,0,1,2.07,0Zm-2,9.34v-7.3h1.86v7.3Z"/><path class="cls-5" d="M174.6,164.6l1.18,3.7c.21.65.36,1.23.5,1.83h0c.14-.6.3-1.17.5-1.83l1.15-3.7h1.95l-2.79,7.3h-1.81l-2.72-7.3Z"/><path class="cls-5" d="M182.35,168.77a2,2,0,0,0,2.25,1.89,5.52,5.52,0,0,0,2-.33l.27,1.27a6.78,6.78,0,0,1-2.55.45,3.46,3.46,0,0,1-3.77-3.69c0-2,1.23-3.93,3.57-3.93s3.15,1.95,3.15,3.56a4.64,4.64,0,0,1-.06.78Zm3.21-1.29a1.57,1.57,0,0,0-1.51-1.79,1.82,1.82,0,0,0-1.7,1.79Z"/><path class="cls-5" d="M146.37,181.42h-3.81v3h4.26v1.51h-6.11V175.79h5.88v1.52h-4v2.61h3.81Z"/><path class="cls-5" d="M148.36,180.77c0-.84,0-1.54-.06-2.17h1.62l.09,1.09h.05a2.62,2.62,0,0,1,2.32-1.26c1.28,0,2.6.83,2.6,3.14v4.33h-1.85v-4.12c0-1.05-.39-1.85-1.39-1.85A1.54,1.54,0,0,0,150.3,181a1.9,1.9,0,0,0-.08.6v4.29h-1.86Z"/><path class="cls-5" d="M159.06,176.51v2.09h1.75V180h-1.75v3.22c0,.89.24,1.35.94,1.35a2.48,2.48,0,0,0,.72-.09l0,1.41a3.91,3.91,0,0,1-1.33.18,2.1,2.1,0,0,1-1.59-.6,2.91,2.91,0,0,1-.57-2V180h-1V178.6h1V177Z"/><path class="cls-5" d="M163.51,182.77a2,2,0,0,0,2.25,1.89,5.52,5.52,0,0,0,2-.33l.27,1.27a6.78,6.78,0,0,1-2.55.45,3.46,3.46,0,0,1-3.77-3.69c0-2,1.23-3.93,3.57-3.93s3.15,1.95,3.15,3.56a4.64,4.64,0,0,1-.06.78Zm3.21-1.29a1.57,1.57,0,0,0-1.51-1.79,1.82,1.82,0,0,0-1.7,1.79Z"/><path class="cls-5" d="M170,181c0-1,0-1.69-.06-2.35h1.6l.06,1.39h.06a2.19,2.19,0,0,1,2-1.56,1.88,1.88,0,0,1,.43,0v1.74a2.53,2.53,0,0,0-.54-.06,1.63,1.63,0,0,0-1.65,1.39,3.22,3.22,0,0,0-.06.57v3.78H170Z"/><path class="cls-5" d="M175.29,181c0-1,0-1.74-.06-2.43h1.62l.09,1.12h0a2.85,2.85,0,0,1,2.5-1.29c1.68,0,3.08,1.44,3.08,3.72,0,2.64-1.67,3.92-3.33,3.92a2.4,2.4,0,0,1-2.06-1h0v3.78h-1.84Zm1.84,1.81a2.1,2.1,0,0,0,.06.51,1.67,1.67,0,0,0,1.62,1.29c1.17,0,1.86-1,1.86-2.41,0-1.29-.63-2.34-1.81-2.34a1.71,1.71,0,0,0-1.65,1.36,1.55,1.55,0,0,0-.08.47Z"/><path class="cls-5" d="M184.06,181c0-1,0-1.69-.06-2.35h1.61l.06,1.39h.06a2.18,2.18,0,0,1,2-1.56,2,2,0,0,1,.44,0v1.74a2.61,2.61,0,0,0-.54-.06,1.62,1.62,0,0,0-1.65,1.39,3.22,3.22,0,0,0-.06.57v3.78h-1.85Z"/><path class="cls-5" d="M191.37,176.56a1,1,0,0,1-1.05,1,1,1,0,0,1-1-1,1,1,0,0,1,2.07,0Zm-2,9.34v-7.3h1.86v7.3Z"/><path class="cls-5" d="M193.15,184.21a4.2,4.2,0,0,0,1.88.52c.81,0,1.17-.33,1.17-.81s-.3-.75-1.2-1.06c-1.43-.5-2-1.28-2-2.13,0-1.29,1.06-2.3,2.76-2.3a4.2,4.2,0,0,1,1.93.44l-.36,1.3a3.26,3.26,0,0,0-1.54-.42c-.66,0-1,.32-1,.77s.34.69,1.27,1c1.32.48,1.94,1.15,1.95,2.23,0,1.32-1,2.28-3,2.28a4.73,4.73,0,0,1-2.22-.51Z"/><path class="cls-5" d="M200.8,182.77a2,2,0,0,0,2.25,1.89,5.52,5.52,0,0,0,2-.33l.27,1.27a6.78,6.78,0,0,1-2.55.45,3.46,3.46,0,0,1-3.77-3.69c0-2,1.23-3.93,3.57-3.93s3.15,1.95,3.15,3.56a4.64,4.64,0,0,1-.06.78Zm3.21-1.29a1.57,1.57,0,0,0-1.51-1.79,1.82,1.82,0,0,0-1.7,1.79Z"/></svg>