<svg id="Layer_1" data-name="Layer 1" xmlns="http://www.w3.org/2000/svg" width="100" height="100" viewBox="0 0 100 100"><title>login-management</title><path d="M14.09,93.5V77.77H7.3V74.43H14V69H7.32V65.73H14V60.29H7.29V57H14V51.54H7.29V48.26H14V42.8H7.3V39.46H14V34.07H7.32V30.79H14V25.34H7.29V22h6.79c0-3,0-5.84,0-8.67,0-.28-.58-.64-.95-.81A6.62,6.62,0,0,1,9.2,6.06,6.55,6.55,0,0,1,21.58,3.6c.16.32.29.64.46,1h1.42q17.28,0,34.56,0a2.63,2.63,0,0,1,2,.86q8.22,8.28,16.49,16.49A2.62,2.62,0,0,1,77.39,24c0,7.89,0,15.78,0,23.67v1.53h6L75.73,62.46l-7.6-13.14h5.93v-1.4c0-7.57,0-15.15,0-22.72a2.75,2.75,0,0,0-.7-1.73Q66,16,58.52,8.66A2.76,2.76,0,0,0,56.79,8c-11.16,0-22.33,0-33.49,0-.8,0-1.24.15-1.52,1a6.33,6.33,0,0,1-3.61,3.7c-.3.14-.73.48-.73.73-.06,2.83,0,5.66,0,8.65h6.82v3.27H17.47v5.48h6.74V34H17.5v5.47h6.68v3.29H17.47v5.47H24.2v3.27H17.48V56.9h6.7v3.32H17.49v5.44h6.69v3.27H17.47V74.4H24.2v3.29H17.49V90.27H49.85V93.5Zm-1.62-87a3.23,3.23,0,0,0,3.28,3.3,3.36,3.36,0,0,0,3.3-3.33,3.43,3.43,0,0,0-3.28-3.27A3.28,3.28,0,0,0,12.47,6.52Z"/><path d="M85.16,69.64a3.74,3.74,0,0,0,4,4,1.54,1.54,0,0,1,2,1.08c.3.81.69,1.59,1.05,2.38.67,1.48.89,2.85-.91,3.73-.2.1-.44.34-.45.52a15.38,15.38,0,0,0,0,3.18c.07.46.7.92,1.18,1.22a1.4,1.4,0,0,1,.57,2c-.5,1.19-1,2.39-1.45,3.6a1.43,1.43,0,0,1-1.9,1c-1.12-.33-1.81.12-2.65.9A3.69,3.69,0,0,0,85.15,97,1.28,1.28,0,0,1,84.56,98c-1.38.66-2.82,1.18-4.22,1.8a1.08,1.08,0,0,1-1.59-.48c-1-2.14-3-1.34-4.67-1.4-.36,0-.84.66-1.11,1.11a1.59,1.59,0,0,1-2.29.67c-1.15-.51-2.3-1-3.47-1.47a1.36,1.36,0,0,1-.94-1.85,2.17,2.17,0,0,0-1-2.7,2.55,2.55,0,0,1-.73-.77,1.48,1.48,0,0,0-1.72-.64c-1.85.27-1.9.26-2.67-1.43-.51-1.1-.83-2.29-1.3-3.41a1.17,1.17,0,0,1,.51-1.59c.49-.36,1.18-.79,1.28-1.29a7.53,7.53,0,0,0,0-3.17c-.14-.56-1-.92-1.46-1.46a1.51,1.51,0,0,1-.36-1.16c.5-1.48,1.13-2.92,1.69-4.39a1.17,1.17,0,0,1,1.57-.78c.61.12,1.43.3,1.84,0a10,10,0,0,0,2.39-2.41c.26-.37,0-1.14-.09-1.72a1.32,1.32,0,0,1,.86-1.68c1.35-.52,2.69-1.09,4-1.65a1.05,1.05,0,0,1,1.56.49c1,2.15,3,1.34,4.68,1.37.47,0,1-.91,1.43-1.46a1,1,0,0,1,1.38-.44c1.23.52,2.48,1,3.73,1.46C85,68,85.61,68.61,85.16,69.64Zm-14.08.16c-1.28.07-1.52.71-1.31,1.62a2,2,0,0,1-1,2.34,10.33,10.33,0,0,0-2.48,2.5,1.73,1.73,0,0,1-2.14.88c-1-.29-1.59.06-1.67,1.19a4.82,4.82,0,0,0,.66.6,2,2,0,0,1,1,2.55,5.22,5.22,0,0,0,0,2.69,2.52,2.52,0,0,1-1.22,3.16,1,1,0,0,0-.25.94c.15.29.57.47.91.64a.9.9,0,0,0,.58,0c1-.29,1.62.15,2.22,1a9.14,9.14,0,0,0,2.31,2.33,2.11,2.11,0,0,1,1.11,2.41c-.1.52-.31,1.13.53,1.47s1.08-.31,1.36-.73a2,2,0,0,1,2.39-.87,8.47,8.47,0,0,0,3.29,0,2,2,0,0,1,2.47.93c.28.45.56,1,1.39.65s.51-1,.43-1.48a2,2,0,0,1,1-2.26,7,7,0,0,0,2.27-2.2,2.35,2.35,0,0,1,2.82-1.22c.67.15,1.14-.11,1.16-.77a1.32,1.32,0,0,0-.54-1,2.16,2.16,0,0,1-1-2.66,6.18,6.18,0,0,0,0-2.57c-.28-1.36-.15-2.41,1.17-3.16a1.1,1.1,0,0,0,.28-1c-.16-.3-.65-.46-1-.6a1.33,1.33,0,0,0-.7.07,1.48,1.48,0,0,1-1.74-.74,11.54,11.54,0,0,0-2.63-2.68,2.09,2.09,0,0,1-1-2.46c.1-.53.25-1-.49-1.36s-1,.14-1.31.59a2.06,2.06,0,0,1-2.57,1A5,5,0,0,0,75,71.43C73.19,71.89,71.82,71.59,71.08,69.8Z"/><path d="M61,58.78H31.37V43.89A10.9,10.9,0,0,1,42,32.64a62.25,62.25,0,0,1,9.56.15A10.68,10.68,0,0,1,61,43C61.12,48.21,61,53.45,61,58.78Zm-3.3-3.29c0-4,0-7.94,0-11.84a7.79,7.79,0,0,0-7.66-7.74c-2.56-.06-5.13,0-7.69,0A7.61,7.61,0,0,0,34.72,43c-.22,4.09,0,8.2,0,12.29,0,.06.08.12.15.21Z"/><path d="M46.23,31.16a7.89,7.89,0,1,1,7.87-7.9A7.87,7.87,0,0,1,46.23,31.16Zm-.07-3.31a4.58,4.58,0,1,0-4.57-4.59A4.58,4.58,0,0,0,46.16,27.85Z"/><path d="M84.71,83.05a9,9,0,1,1-9-9A8.92,8.92,0,0,1,84.71,83.05Zm-3.31,0a5.73,5.73,0,0,0-5.67-5.76A5.82,5.82,0,0,0,70,83a5.72,5.72,0,0,0,5.66,5.65A5.62,5.62,0,0,0,81.4,83.05Z"/></svg>