<svg id="Layer_1" data-name="Layer 1" xmlns="http://www.w3.org/2000/svg" width="100" height="100" viewBox="0 0 100 100"><title>enterprise-mobility</title><path d="M49.21.11h1.58c.06.05.11.13.17.14a6.52,6.52,0,0,1,5.53,7.39,1.23,1.23,0,0,0,.29.89,30.93,30.93,0,0,1,5.46,9.39c.19.47.37.95.53,1.37,2-.77,3.89-1.61,5.83-2.15s4-.77,6.06-1.17a2,2,0,0,0,.93-.54,6.52,6.52,0,1,1,9.2,9.24,2.36,2.36,0,0,0-.56,1.14c-.47,2.15-.78,4.35-1.37,6.47-.48,1.76-1.26,3.43-1.93,5.18l1.5.58a32,32,0,0,1,8.95,5.11,2.49,2.49,0,0,0,1.58.53,6.63,6.63,0,0,1,6.76,4.71c.08.24.19.47.28.71v2.25s-.14.09-.16.15c-1.26,3.86-3.19,5.19-7.37,5.13a1.7,1.7,0,0,0-.86.38c-1.94,1.27-3.82,2.66-5.83,3.81A51.1,51.1,0,0,1,81,63a3.18,3.18,0,0,0,.08.33A31.69,31.69,0,0,1,84.34,75,1.8,1.8,0,0,0,85,76a6.53,6.53,0,1,1-9.2,9.19,3,3,0,0,0-1.59-.81c-1.64-.36-3.35-.47-5-.94C67.1,82.81,65,82,62.82,81.18a.58.58,0,0,0-.12.14c-.08.17-.15.35-.22.52a31.42,31.42,0,0,1-5.7,10,1.54,1.54,0,0,0-.26,1,6.08,6.08,0,0,1-2.7,5.62,18.27,18.27,0,0,1-3.26,1.39H49.44c-.06,0-.1-.13-.16-.15-4-1-5.66-3-5.73-7a1.51,1.51,0,0,0-.31-.9,30.75,30.75,0,0,1-5.56-9.72c-.13-.33-.28-.66-.43-1l-1.35.6A30,30,0,0,1,27,84.31a2.42,2.42,0,0,0-1.94,1,6.39,6.39,0,0,1-8.56,1.57c-2.88-1.81-4.14-5.68-2.24-8.44A11.3,11.3,0,0,0,16,72.69a4.85,4.85,0,0,1,.16-1c.91-2.92,1.83-5.85,2.76-8.82a1.3,1.3,0,0,0-.31-.15A30.86,30.86,0,0,1,8.28,56.86a1.32,1.32,0,0,0-.91-.2A6.55,6.55,0,0,1,.26,51.72c-.07-.28-.17-.55-.26-.82V49.55c.05,0,.14-.1.14-.16a6.57,6.57,0,0,1,7.3-5.68,1.41,1.41,0,0,0,1-.33,31.47,31.47,0,0,1,9.73-5.55c.33-.13.66-.28,1-.44-.23-.49-.41-.9-.59-1.31a28.53,28.53,0,0,1-2.78-10.95A2.4,2.4,0,0,0,15,23.2a6.46,6.46,0,0,1-.12-9.13c2.44-2.53,6.84-2.83,9.06-.12a6.72,6.72,0,0,0,5,2.44,3.39,3.39,0,0,1,.55.13l7.81,2.62c.1-.24.24-.58.37-.93a32.13,32.13,0,0,1,5.36-9.46,2.33,2.33,0,0,0,.48-1.48,6.51,6.51,0,0,1,5.29-7A1.48,1.48,0,0,0,49.21.11ZM65.35,67.79V30.94c-.31,0-.53-.05-.75-.05-9.67,0-19.34,0-29,0-1,0-1,.43-1,1.17q0,17.37,0,34.76c0,.33,0,.65.06,1H48.46v-16H42.62L50,38.86l7.46,12.92H51.56v16ZM26.91,50.24C25,47.13,23,44,21,40.93a1,1,0,0,0-.87-.33,29.85,29.85,0,0,0-9,4.77c2.73,3.22,2.72,6.44,0,9.63,2.24,2,7.33,4.53,9.51,4.86Zm62-4.89a30.92,30.92,0,0,0-8.69-4.67c-.75-.29-1-.08-1.41.53-1.63,2.62-3.24,5.24-5,7.75a1.78,1.78,0,0,0,0,2.5c1.94,2.75,3.75,5.6,5.67,8.49A30.14,30.14,0,0,0,89,55C86.57,52.15,86,49,88.94,45.35ZM31.41,34.27c0-1.52.07-3,0-4.52-.18-3.22.69-5.94,3.6-7.86a27.55,27.55,0,0,0-8.87-2.65c-.8,3.92-3.22,5.79-7,6-.12,2.75,1.59,8.48,3.3,11.12ZM34.73,70.9c-.49,3.21,1.3,5.35,4.39,5.35q11,0,21.88,0c3.07,0,4.88-2.23,4.29-5.35ZM74.3,81.09c.34-4.17,2.74-6.27,6.71-6.71a31.51,31.51,0,0,0-3.28-10.32l-9.11,2.07v6.11a7.45,7.45,0,0,1-3.35,6.17A23,23,0,0,0,74.3,81.09ZM19.05,74.82c3.78.07,6.6,1.59,7.55,6.56l8.28-2.61,0-.33c-2.9-1.9-3.7-4.69-3.51-7.93.08-1.46,0-2.92,0-4.39l-9.1-2.06A30,30,0,0,0,19.05,74.82ZM73.77,19.34A21,21,0,0,0,65.21,22c2.74,1.82,3.62,4.46,3.43,7.6-.09,1.57,0,3.14,0,4.64,2.89.69,5.65,1.36,8.43,2a1.13,1.13,0,0,0,1-.5c.81-2,1.6-4,2.27-6A27.35,27.35,0,0,0,81,26.47C75.93,25.72,74.25,24,73.77,19.34ZM40.24,20.8H59.82a30.29,30.29,0,0,0-5-9.59c-3.29,2.69-5.94,2.69-9.58,0A31.09,31.09,0,0,0,40.24,20.8ZM59.81,79.6H40.37c.45,2.47,3.17,7.77,4.78,9.29A6.69,6.69,0,0,1,55,89,30.81,30.81,0,0,0,59.81,79.6Zm5.53-51.72a4,4,0,0,0-4.19-3.76c-4.06,0-8.12,0-12.17,0-3.38,0-6.76,0-10.14,0-2.32,0-4.16,1.77-4,3.76Zm11,33.17-5.39-8.29c-.87,1.16-2,2-2.19,3.07a51.78,51.78,0,0,0-.1,7Zm0-21.71-7.69-1.73a41.29,41.29,0,0,1,0,5.12c-.27,2.16,1,3.33,2.43,4.78ZM29.14,47.65c.87-1.18,2-2,2.16-3a53.82,53.82,0,0,0,.09-7l-7.63,1.72Zm-.07,5.22-5.31,8.18,7.65,1.74a30.9,30.9,0,0,1,0-4.11A6.15,6.15,0,0,0,29.07,52.87ZM22.86,18.63a3.34,3.34,0,0,0-3.29-3.32,3.4,3.4,0,0,0-3.29,3.34,3.44,3.44,0,0,0,3.26,3.27A3.35,3.35,0,0,0,22.86,18.63ZM53.27,93.24A3.24,3.24,0,0,0,50.08,90a3.29,3.29,0,1,0,0,6.58A3.27,3.27,0,0,0,53.27,93.24ZM6.54,53.45A3.3,3.3,0,0,0,9.9,50.23a3.36,3.36,0,0,0-3.29-3.32,3.34,3.34,0,0,0-3.29,3.2A3.27,3.27,0,0,0,6.54,53.45Zm86.91,0a3.29,3.29,0,0,0,3.31-3.27,3.31,3.31,0,0,0-6.61,0A3.33,3.33,0,0,0,93.45,53.45ZM46.75,6.71A3.4,3.4,0,0,0,50.08,10a3.37,3.37,0,0,0,3.25-3.37,3.3,3.3,0,0,0-3.26-3.21A3.34,3.34,0,0,0,46.75,6.71ZM20,78.15a3.29,3.29,0,0,0-3.32,3.26A3.29,3.29,0,1,0,20,78.15Zm60.4-61.56a3.28,3.28,0,1,0,3.31,3.3A3.35,3.35,0,0,0,80.36,16.59Zm.47,61.18a3.21,3.21,0,0,0-3.25,3.29,3.27,3.27,0,0,0,3.23,3.23A3.34,3.34,0,0,0,84.15,81,3.29,3.29,0,0,0,80.83,77.77Z"/></svg>