<svg id="Layer_1" data-name="Layer 1" xmlns="http://www.w3.org/2000/svg" viewBox="0 0 1237.92 484.44"><defs><style>.cls-4,.cls-6{fill:none;stroke-width:3px}.cls-4{stroke-miterlimit:10}.cls-3{fill:#d8e7da}.cls-4{stroke:#a8d7cd}.cls-5{fill:#00321d}.cls-6{stroke:#00321d;stroke-miterlimit:10}</style></defs><path fill="#a8d7cd" d="M415.13 0v485H823.1V.11L415.13 0z"/><path stroke-miterlimit="10" stroke="#00b28f" fill="none" stroke-width="3" d="M434.23 170.99L804 172.13"/><path class="cls-3" d="M830.26.14v484.75h407.97V0L830.26.14z"/><path class="cls-4" d="M849.36 170.99l369.77-.06"/><path class="cls-3" d="M0 0v485h407.97V.11L0 0z"/><path class="cls-4" d="M19.1 170.99l369.77-.06"/><path class="cls-5" d="M151.34 80.31v22.81h-4.16V80.31zM160.48 83.8H154v-3.49h17.23v3.49h-6.57v19.32h-4.16zM573.42 91.48c0 7.65-4.64 12-10.94 12S552 98.59 552 91.89c0-7 4.4-12 10.83-12 6.66.05 10.59 5.11 10.59 11.59zm-17 .34c0 4.64 2.34 8.33 6.33 8.33s6.3-3.73 6.3-8.5c0-4.3-2.14-8.36-6.3-8.36s-6.36 3.83-6.36 8.53zM576.94 92.13c0-2.17-.07-3.93-.14-5.49h3.66l.2 2.54h.07a6.43 6.43 0 0 1 5.65-2.91c3.79 0 6.94 3.25 6.94 8.39 0 6-3.76 8.84-7.51 8.84a5.42 5.42 0 0 1-4.64-2.2h-.07v8.53h-4.16zm4.16 4.09a4.32 4.32 0 0 0 .14 1.15 3.76 3.76 0 0 0 3.65 2.91c2.64 0 4.2-2.2 4.2-5.45 0-2.91-1.42-5.28-4.1-5.28a3.89 3.89 0 0 0-3.72 3.08 3.84 3.84 0 0 0-.17 1.05zM599.69 96.05c.1 3 2.43 4.27 5.07 4.27a12.45 12.45 0 0 0 4.57-.75l.61 2.88a15.61 15.61 0 0 1-5.75 1c-5.35 0-8.5-3.28-8.5-8.32 0-4.57 2.78-8.87 8.06-8.87s7.1 4.4 7.1 8a10.09 10.09 0 0 1-.13 1.76zm7.24-2.91c0-1.52-.64-4-3.42-4-2.57 0-3.65 2.34-3.82 4zM614.21 92c0-2.24 0-3.83-.14-5.32h3.63l.13 3.15h.17a4.91 4.91 0 0 1 4.5-3.52 4.28 4.28 0 0 1 1 .1v3.89a5.62 5.62 0 0 0-1.22-.14 3.67 3.67 0 0 0-3.72 3.15 6.88 6.88 0 0 0-.14 1.29v8.52h-4.16zM635.23 103.12l-.23-1.82h-.1a6.15 6.15 0 0 1-4.88 2.2 4.9 4.9 0 0 1-5.18-4.91c0-4.16 3.69-6.26 9.79-6.23v-.27c0-1.08-.44-2.88-3.35-2.88a8.75 8.75 0 0 0-4.44 1.22l-.81-2.7a11.81 11.81 0 0 1 6-1.46c5.28 0 6.8 3.35 6.8 6.94v6a26.23 26.23 0 0 0 .24 4zm-.54-8.05c-3-.07-5.76.58-5.76 3.08a2.19 2.19 0 0 0 2.37 2.37 3.36 3.36 0 0 0 3.25-2.27 3 3 0 0 0 .14-.91zM647.72 81.94v4.7h4v3.12h-4V97c0 2 .54 3 2.13 3a6.28 6.28 0 0 0 1.63-.2l.07 3.18a9.43 9.43 0 0 1-3 .4 4.78 4.78 0 0 1-3.58-1.35c-.88-1-1.29-2.44-1.29-4.6v-7.67h-2.37v-3.12h2.37v-3.72zM659.26 82a2.34 2.34 0 0 1-4.67 0 2.34 2.34 0 0 1 4.67 0zm-4.43 21.08V86.64H659v16.48zM679.17 94.73c0 6.06-4.27 8.77-8.46 8.77-4.68 0-8.26-3.22-8.26-8.5s3.55-8.73 8.55-8.73 8.17 3.45 8.17 8.46zm-12.42.17c0 3.18 1.55 5.58 4.09 5.58 2.37 0 4-2.33 4-5.65 0-2.57-1.15-5.51-4-5.51s-4.09 2.84-4.09 5.58zM682.59 91.55c0-1.9 0-3.49-.14-4.91h3.66l.2 2.47h.1a6 6 0 0 1 5.25-2.84c2.88 0 5.85 1.86 5.85 7.07v9.78h-4.16v-9.3c0-2.37-.88-4.17-3.15-4.17a3.51 3.51 0 0 0-3.2 2.44 4.39 4.39 0 0 0-.16 1.35v9.68h-4.2zM701.75 99.3a9.23 9.23 0 0 0 4.23 1.18c1.83 0 2.64-.74 2.64-1.82s-.68-1.69-2.71-2.41c-3.21-1.11-4.57-2.87-4.53-4.8 0-2.91 2.4-5.18 6.22-5.18a9.67 9.67 0 0 1 4.37 1l-.81 3a7.35 7.35 0 0 0-3.49-1c-1.49 0-2.3.71-2.3 1.72s.78 1.56 2.88 2.31c3 1.08 4.36 2.6 4.4 5 0 3-2.34 5.14-6.71 5.14a10.55 10.55 0 0 1-5-1.15zM950.18 80.62a41.22 41.22 0 0 1 6.63-.48c4.26 0 7.21.88 9.31 2.64s3.55 4.51 3.55 8.4c0 4.06-1.39 7.1-3.55 9.07s-5.89 3.11-10.33 3.11a45.36 45.36 0 0 1-5.61-.3zm4.16 19.32a15.66 15.66 0 0 0 2.3.1c5.42 0 8.63-2.94 8.63-8.73 0-5-2.88-7.92-8.09-7.92a12.9 12.9 0 0 0-2.84.24zM982.4 103.12l-.27-1.82H982a6.14 6.14 0 0 1-4.87 2.2 4.9 4.9 0 0 1-5.13-4.91c0-4.16 3.69-6.26 9.78-6.23v-.27c0-1.08-.44-2.88-3.35-2.88a8.75 8.75 0 0 0-4.43 1.22l-.81-2.7a11.81 11.81 0 0 1 6-1.46c5.28 0 6.8 3.35 6.8 6.94v6a26.23 26.23 0 0 0 .24 4zm-.54-8.05c-2.94-.07-5.75.58-5.75 3.08a2.19 2.19 0 0 0 2.36 2.37 3.36 3.36 0 0 0 3.25-2.27 2.73 2.73 0 0 0 .14-.91zM994.89 81.94v4.7h4v3.12h-4V97c0 2 .54 3 2.13 3a6.22 6.22 0 0 0 1.63-.2l.07 3.18a9.4 9.4 0 0 1-3 .4 4.8 4.8 0 0 1-3.59-1.35c-.88-1-1.29-2.44-1.29-4.6v-7.67h-2.37v-3.12h2.37v-3.72zM1011.28 103.12l-.27-1.82h-.11a6.13 6.13 0 0 1-4.87 2.2 4.9 4.9 0 0 1-5.18-4.91c0-4.16 3.69-6.26 9.78-6.23v-.27c0-1.08-.44-2.88-3.35-2.88a8.75 8.75 0 0 0-4.43 1.22l-.81-2.7a11.8 11.8 0 0 1 6-1.46c5.28 0 6.81 3.35 6.81 6.94v6a26.38 26.38 0 0 0 .23 4zm-.55-8.05c-2.94-.07-5.75.58-5.75 3.08a2.19 2.19 0 0 0 2.37 2.37 3.36 3.36 0 0 0 3.25-2.27 3 3 0 0 0 .13-.91zM76.4 221.14a7.83 7.83 0 0 0 4 1.11c2.26 0 3.58-1.19 3.58-2.92s-.91-2.51-3.22-3.4c-2.8-1-4.52-2.44-4.52-4.85 0-2.66 2.2-4.64 5.53-4.64a7.79 7.79 0 0 1 3.78.83l-.61 1.81a6.7 6.7 0 0 0-3.25-.82c-2.33 0-3.22 1.4-3.22 2.57 0 1.6 1 2.38 3.4 3.3 2.9 1.12 4.37 2.51 4.37 5s-2 4.92-6 4.92a8.84 8.84 0 0 1-4.4-1.05zM91.76 208v3.53H95v1.7h-3.2v6.63c0 1.52.43 2.38 1.67 2.38a4.84 4.84 0 0 0 1.3-.15l.1 1.68a5.44 5.44 0 0 1-2 .3 3.09 3.09 0 0 1-2.41-.94 4.53 4.53 0 0 1-.86-3.2v-6.7h-1.93v-1.7h1.91v-2.95zM104.28 223.83l-.18-1.55h-.1a4.58 4.58 0 0 1-3.76 1.83 3.5 3.5 0 0 1-3.75-3.53c0-3 2.64-4.6 7.38-4.57v-.26a2.53 2.53 0 0 0-2.79-2.84 6.23 6.23 0 0 0-3.2.91l-.51-1.47a7.65 7.65 0 0 1 4-1.09c3.76 0 4.67 2.56 4.67 5v4.59a16.55 16.55 0 0 0 .21 3zm-.33-6.27c-2.44-.05-5.21.38-5.21 2.76a2 2 0 0 0 2.11 2.14 3.06 3.06 0 0 0 3-2.06 2.53 2.53 0 0 0 .13-.71zM109.71 214.87c0-1.27 0-2.32-.1-3.33h2l.12 2h.05a4.53 4.53 0 0 1 4.07-2.31c1.7 0 4.34 1 4.34 5.23v7.34h-2.24v-7.09c0-2-.73-3.63-2.84-3.63a3.17 3.17 0 0 0-3 2.29 3 3 0 0 0-.16 1v7.39h-2.23zM134.41 205.8v14.85c0 1.1 0 2.34.1 3.18h-2l-.1-2.13a4.56 4.56 0 0 1-4.19 2.41c-3 0-5.26-2.52-5.26-6.25 0-4.09 2.51-6.6 5.51-6.6a4.12 4.12 0 0 1 3.71 1.88h.05v-7.34zm-2.23 10.74a4.29 4.29 0 0 0-.1-.94 3.29 3.29 0 0 0-3.23-2.59c-2.31 0-3.68 2-3.68 4.75 0 2.49 1.22 4.54 3.63 4.54a3.37 3.37 0 0 0 3.28-2.66 4.25 4.25 0 0 0 .1-1zM144.92 223.83l-.17-1.55h-.08a4.61 4.61 0 0 1-3.76 1.83 3.5 3.5 0 0 1-3.76-3.53c0-3 2.64-4.6 7.39-4.57v-.26a2.53 2.53 0 0 0-2.79-2.84 6.2 6.2 0 0 0-3.2.91l-.51-1.47a7.65 7.65 0 0 1 4-1.09c3.76 0 4.67 2.56 4.67 5v4.59a17.62 17.62 0 0 0 .2 3zm-.33-6.27c-2.43-.05-5.2.38-5.2 2.76a2 2 0 0 0 2.11 2.14 3.06 3.06 0 0 0 3-2.06 2.52 2.52 0 0 0 .12-.71zM150.36 215.37c0-1.44 0-2.69-.11-3.83h2l.08 2.41h.1a3.68 3.68 0 0 1 3.4-2.69 2.41 2.41 0 0 1 .63.08v2.1a3.33 3.33 0 0 0-.76-.07 3.13 3.13 0 0 0-3 2.87 6.26 6.26 0 0 0-.11 1v6.55h-2.2zM169 205.8v14.85c0 1.1 0 2.34.1 3.18h-2l-.1-2.13a4.55 4.55 0 0 1-4.19 2.41c-3 0-5.26-2.52-5.26-6.25 0-4.09 2.52-6.6 5.51-6.6a4.12 4.12 0 0 1 3.71 1.88h.05v-7.34zm-2.24 10.74a3.76 3.76 0 0 0-.1-.94 3.29 3.29 0 0 0-3.22-2.59c-2.31 0-3.69 2-3.69 4.75 0 2.49 1.22 4.54 3.64 4.54a3.36 3.36 0 0 0 3.27-2.66 3.75 3.75 0 0 0 .1-1zM175.21 208.09a1.31 1.31 0 0 1-1.42 1.37 1.33 1.33 0 0 1-1.35-1.37 1.37 1.37 0 0 1 1.4-1.4 1.33 1.33 0 0 1 1.37 1.4zm-2.49 15.74v-12.29H175v12.29zM177.27 222.53l5.56-7.23c.53-.66 1-1.25 1.6-1.91h-6.66v-1.8h9.37v1.4l-5.49 7.13a24.46 24.46 0 0 1-1.57 1.93v.05h7.19v1.78h-10zM196.33 223.83l-.17-1.55h-.08a4.61 4.61 0 0 1-3.76 1.83 3.5 3.5 0 0 1-3.76-3.53c0-3 2.65-4.6 7.39-4.57v-.26a2.53 2.53 0 0 0-2.79-2.84 6.2 6.2 0 0 0-3.2.91l-.51-1.47a7.65 7.65 0 0 1 4-1.09c3.76 0 4.67 2.56 4.67 5v4.59a16.55 16.55 0 0 0 .21 3zm-.33-6.27c-2.43-.05-5.2.38-5.2 2.76a2 2 0 0 0 2.11 2.14 3.06 3.06 0 0 0 3-2.06 2.52 2.52 0 0 0 .12-.71zM204.36 208v3.53h3.2v1.7h-3.2v6.63c0 1.52.43 2.38 1.67 2.38a4.84 4.84 0 0 0 1.3-.15l.1 1.68a5.44 5.44 0 0 1-2 .3 3.09 3.09 0 0 1-2.41-.94 4.52 4.52 0 0 1-.87-3.2v-6.7h-1.9v-1.7h1.9v-2.95zM212.56 208.09a1.39 1.39 0 0 1-2.77 0 1.36 1.36 0 0 1 1.4-1.4 1.33 1.33 0 0 1 1.37 1.4zm-2.49 15.74v-12.29h2.23v12.29zM227.13 217.58c0 4.55-3.15 6.53-6.12 6.53-3.33 0-5.89-2.44-5.89-6.32 0-4.12 2.69-6.53 6.09-6.53s5.92 2.56 5.92 6.32zm-9.75.13c0 2.69 1.55 4.72 3.73 4.72s3.74-2 3.74-4.77c0-2.08-1-4.72-3.69-4.72s-3.78 2.43-3.78 4.77zM230 214.87c0-1.27 0-2.32-.1-3.33h2l.12 2H232a4.5 4.5 0 0 1 4.06-2.31c1.7 0 4.34 1 4.34 5.23v7.34h-2.23v-7.09c0-2-.74-3.63-2.85-3.63a3.17 3.17 0 0 0-3 2.29 3 3 0 0 0-.16 1v7.39H230zM80.46 279.22l-5.58-17.12h2.38l2.67 8.43c.73 2.31 1.37 4.4 1.83 6.4.48-2 1.19-4.14 2-6.37l2.9-8.46H89l-6.1 17.12zM92.88 263.47a1.39 1.39 0 0 1-2.77 0 1.36 1.36 0 0 1 1.4-1.39 1.33 1.33 0 0 1 1.37 1.39zm-2.49 15.75v-12.29h2.23v12.29zM96.33 270.76c0-1.45 0-2.69-.1-3.83h2l.08 2.41h.1a3.68 3.68 0 0 1 3.4-2.69 2.51 2.51 0 0 1 .64.07v2.11a3.45 3.45 0 0 0-.76-.07 3.13 3.13 0 0 0-3 2.87 6.33 6.33 0 0 0-.1 1v6.55h-2.26zM107.93 263.4v3.53h3.2v1.7h-3.2v6.63c0 1.52.43 2.38 1.68 2.38a4.81 4.81 0 0 0 1.29-.15l.1 1.68a5.62 5.62 0 0 1-2 .3 3.09 3.09 0 0 1-2.41-.94 4.57 4.57 0 0 1-.86-3.2v-6.7h-1.91v-1.7h1.91V264zM123.93 275.87c0 1.26 0 2.38.1 3.35h-2l-.13-2a4.62 4.62 0 0 1-4.06 2.29c-1.93 0-4.24-1.07-4.24-5.39v-7.18h2.23v6.8c0 2.34.71 3.91 2.74 3.91a3.24 3.24 0 0 0 2.95-2 3.17 3.17 0 0 0 .2-1.14v-7.54h2.24zM134.44 279.22l-.18-1.55h-.08a4.57 4.57 0 0 1-3.75 1.83 3.51 3.51 0 0 1-3.76-3.53c0-3 2.64-4.6 7.39-4.57v-.26a2.54 2.54 0 0 0-2.8-2.84 6.13 6.13 0 0 0-3.2.91l-.5-1.47a7.58 7.58 0 0 1 4-1.09c3.76 0 4.67 2.56 4.67 5v4.59a17.55 17.55 0 0 0 .21 3zm-.33-6.27c-2.44-.06-5.21.38-5.21 2.76a2 2 0 0 0 2.11 2.14 3.06 3.06 0 0 0 3-2.06 2.22 2.22 0 0 0 .13-.71zM139.87 261.19h2.23v18h-2.23zM151.24 270.76c0-1.45 0-2.69-.1-3.83h2l.07 2.41h.1a3.69 3.69 0 0 1 3.41-2.69 2.43 2.43 0 0 1 .63.07v2.11a3.45 3.45 0 0 0-.76-.07 3.13 3.13 0 0 0-3 2.87 6.33 6.33 0 0 0-.1 1v6.55h-2.21zM160.53 273.48c.06 3 2 4.26 4.22 4.26a8.17 8.17 0 0 0 3.4-.63l.38 1.6a10 10 0 0 1-4.09.76c-3.78 0-6-2.49-6-6.19s2.19-6.63 5.77-6.63c4 0 5.07 3.53 5.07 5.79a10.18 10.18 0 0 1-.07 1zm6.56-1.6c0-1.42-.59-3.63-3.1-3.63-2.26 0-3.25 2.08-3.43 3.63zM178.81 279.22l-.17-1.55h-.08a4.59 4.59 0 0 1-3.76 1.83 3.5 3.5 0 0 1-3.75-3.53c0-3 2.64-4.6 7.38-4.57v-.26a2.53 2.53 0 0 0-2.79-2.84 6.11 6.11 0 0 0-3.2.91l-.51-1.47a7.65 7.65 0 0 1 4-1.09c3.76 0 4.67 2.56 4.67 5v4.59a16.55 16.55 0 0 0 .21 3zm-.33-6.27c-2.43-.06-5.2.38-5.2 2.76a2 2 0 0 0 2.11 2.14 3.06 3.06 0 0 0 3-2.06 2.52 2.52 0 0 0 .12-.71zM184.25 261.19h2.23v18h-2.23zM192.73 263.47a1.39 1.39 0 0 1-2.77 0 1.36 1.36 0 0 1 1.4-1.39 1.33 1.33 0 0 1 1.37 1.39zm-2.49 15.75v-12.29h2.23v12.29zM198.87 263.4v3.53h3.2v1.7h-3.2v6.63c0 1.52.43 2.38 1.68 2.38a4.81 4.81 0 0 0 1.29-.15l.1 1.68a5.62 5.62 0 0 1-2 .3 3.09 3.09 0 0 1-2.41-.94 4.57 4.57 0 0 1-.86-3.2v-6.7h-1.91v-1.7h1.91V264zM205.62 266.93l2.69 7.26c.28.81.59 1.78.79 2.51h.05c.23-.73.49-1.67.79-2.56l2.44-7.21h2.36l-3.35 8.76c-1.6 4.21-2.69 6.37-4.22 7.69a6 6 0 0 1-2.74 1.45l-.56-1.88a5.92 5.92 0 0 0 2-1.09 6.8 6.8 0 0 0 1.88-2.49 1.63 1.63 0 0 0 .17-.53 2 2 0 0 0-.15-.59l-4.54-11.32zM229 279.22l-.18-1.55h-.08a4.58 4.58 0 0 1-3.76 1.83 3.5 3.5 0 0 1-3.75-3.53c0-3 2.64-4.6 7.38-4.57v-.26a2.53 2.53 0 0 0-2.79-2.84 6.13 6.13 0 0 0-3.2.91l-.51-1.47a7.65 7.65 0 0 1 4-1.09c3.76 0 4.67 2.56 4.67 5v4.59a16.55 16.55 0 0 0 .21 3zm-.33-6.27c-2.44-.06-5.21.38-5.21 2.76a2 2 0 0 0 2.11 2.14 3.06 3.06 0 0 0 3-2.06 2.53 2.53 0 0 0 .13-.71zM234.39 270.94c0-1.57 0-2.84-.1-4h2l.1 2.11h.05a4.85 4.85 0 0 1 4.37-2.39c3 0 5.21 2.51 5.21 6.24 0 4.42-2.69 6.61-5.59 6.61a4.3 4.3 0 0 1-3.78-1.93h-.05v6.67h-2.21zm2.21 3.27a5.18 5.18 0 0 0 .1.92 3.43 3.43 0 0 0 3.35 2.61c2.36 0 3.73-1.93 3.73-4.74 0-2.47-1.29-4.57-3.65-4.57a3.56 3.56 0 0 0-3.38 2.76 3.47 3.47 0 0 0-.15.92zM248.83 270.94c0-1.57-.05-2.84-.1-4h2l.1 2.11a4.83 4.83 0 0 1 4.37-2.39c3 0 5.2 2.51 5.2 6.24 0 4.42-2.69 6.61-5.58 6.61a4.32 4.32 0 0 1-3.79-1.93H251v6.67h-2.21zm2.21 3.27a5.18 5.18 0 0 0 .1.92 3.45 3.45 0 0 0 3.36 2.61c2.36 0 3.73-1.93 3.73-4.74 0-2.47-1.3-4.57-3.66-4.57a3.58 3.58 0 0 0-3.38 2.76 3.93 3.93 0 0 0-.15.92zM263 276.93a5.88 5.88 0 0 0 2.95.89c1.62 0 2.39-.81 2.39-1.83s-.64-1.65-2.29-2.26c-2.21-.78-3.25-2-3.25-3.48 0-2 1.6-3.6 4.24-3.6a6.05 6.05 0 0 1 3 .76l-.56 1.63a4.71 4.71 0 0 0-2.51-.72c-1.32 0-2.06.77-2.06 1.68s.74 1.47 2.34 2.08c2.13.81 3.22 1.88 3.22 3.71 0 2.16-1.67 3.68-4.59 3.68a7 7 0 0 1-3.45-.84zM76.7 317.49h2.21v15.26h7.31v1.85H76.7zM89.5 328.87c0 3 2 4.26 4.21 4.26a8.22 8.22 0 0 0 3.41-.63l.38 1.6a10.1 10.1 0 0 1-4.09.76c-3.78 0-6-2.49-6-6.2s2.14-6.66 5.72-6.66c4 0 5.08 3.53 5.08 5.79a7.57 7.57 0 0 1-.08 1zm6.55-1.6c0-1.42-.58-3.63-3.1-3.63-2.26 0-3.25 2.08-3.43 3.63zM111.56 322.32c0 .88-.1 1.87-.1 3.37v7.14c0 2.82-.56 4.54-1.75 5.61a6.49 6.49 0 0 1-4.47 1.47 8 8 0 0 1-4.09-1l.56-1.71a6.9 6.9 0 0 0 3.61 1c2.28 0 4-1.19 4-4.29v-1.41a4.4 4.4 0 0 1-3.91 2.05c-3 0-5.23-2.59-5.23-6 0-4.16 2.71-6.52 5.53-6.52a4.1 4.1 0 0 1 3.84 2.13h.05l.1-1.85zm-2.31 4.85a3.24 3.24 0 0 0-3.25-3.38c-2.13 0-3.65 1.8-3.65 4.65 0 2.41 1.21 4.41 3.63 4.41a3.25 3.25 0 0 0 3.09-2.28 3.8 3.8 0 0 0 .18-1.2zM122 334.6l-.18-1.54h-.07a4.6 4.6 0 0 1-3.76 1.82 3.5 3.5 0 0 1-3.76-3.53c0-3 2.64-4.59 7.39-4.57v-.25a2.53 2.53 0 0 0-2.79-2.84 6.11 6.11 0 0 0-3.2.91l-.51-1.47a7.65 7.65 0 0 1 4-1.09c3.76 0 4.67 2.56 4.67 5v4.6a17.41 17.41 0 0 0 .2 2.94zm-.33-6.27c-2.44-.05-5.2.38-5.2 2.77a2 2 0 0 0 2.1 2.13 3 3 0 0 0 3-2.05 2.27 2.27 0 0 0 .13-.71zM136.16 334.15a8.24 8.24 0 0 1-3.52.71c-3.71 0-6.12-2.51-6.12-6.27a6.24 6.24 0 0 1 6.6-6.53 7.39 7.39 0 0 1 3.1.64l-.51 1.72a5.26 5.26 0 0 0-2.59-.58c-2.82 0-4.34 2.08-4.34 4.65 0 2.84 1.82 4.59 4.26 4.59a6.31 6.31 0 0 0 2.74-.61zM140.05 322.32l2.69 7.26c.28.81.58 1.77.79 2.51h.05c.23-.74.48-1.67.78-2.56l2.44-7.21h2.36l-3.35 8.76c-1.6 4.21-2.69 6.37-4.21 7.69a6.21 6.21 0 0 1-2.75 1.45l-.55-1.88a6.18 6.18 0 0 0 1.95-1.09 6.89 6.89 0 0 0 1.88-2.49 1.67 1.67 0 0 0 .18-.54 2 2 0 0 0-.15-.58l-4.55-11.32zM156.58 325.64c0-1.27 0-2.31-.11-3.32h2l.1 2h.08a4.22 4.22 0 0 1 3.86-2.26 3.62 3.62 0 0 1 3.47 2.46h.02a5 5 0 0 1 1.37-1.6 4.17 4.17 0 0 1 2.71-.86c1.63 0 4 1.06 4 5.33v7.23h-2.18v-7c0-2.36-.87-3.79-2.67-3.79a2.89 2.89 0 0 0-2.64 2 3.68 3.68 0 0 0-.18 1.11v7.59h-2.18v-7.36c0-1.95-.86-3.38-2.57-3.38a3 3 0 0 0-2.76 2.24 3 3 0 0 0-.18 1.09v7.41h-2.18zM188.87 328.36c0 4.54-3.15 6.52-6.12 6.52-3.32 0-5.89-2.43-5.89-6.32 0-4.11 2.69-6.52 6.09-6.52s5.92 2.56 5.92 6.32zm-9.75.13c0 2.69 1.55 4.72 3.73 4.72s3.74-2 3.74-4.77c0-2.09-1.05-4.73-3.69-4.73s-3.78 2.44-3.78 4.78zM202.3 316.58v14.85c0 1.09 0 2.34.1 3.17h-2l-.1-2.13h-.06a4.54 4.54 0 0 1-4.19 2.41c-3 0-5.25-2.51-5.25-6.24 0-4.09 2.51-6.6 5.51-6.6a4.12 4.12 0 0 1 3.71 1.88v-7.34zm-2.23 10.74a4.29 4.29 0 0 0-.1-.94 3.29 3.29 0 0 0-3.23-2.59c-2.31 0-3.68 2-3.68 4.75 0 2.48 1.22 4.54 3.63 4.54a3.37 3.37 0 0 0 3.28-2.66 4.25 4.25 0 0 0 .1-1zM207.25 328.87a3.93 3.93 0 0 0 4.22 4.26 8.17 8.17 0 0 0 3.4-.63l.38 1.6a10.06 10.06 0 0 1-4.09.76c-3.78 0-6-2.49-6-6.2s2.18-6.62 5.76-6.62c4 0 5.08 3.53 5.08 5.79a7.57 7.57 0 0 1-.08 1zm6.55-1.6c0-1.42-.58-3.63-3.1-3.63-2.26 0-3.25 2.08-3.42 3.63zM218.73 326.15c0-1.45 0-2.69-.1-3.83h2l.08 2.41h.1a3.68 3.68 0 0 1 3.4-2.69 2.56 2.56 0 0 1 .64.07v2.11a3.44 3.44 0 0 0-.77-.08 3.13 3.13 0 0 0-3 2.87 6.44 6.44 0 0 0-.1 1v6.55h-2.21zM227.13 325.64c0-1.27 0-2.31-.1-3.32h2l.13 2h.05a4.51 4.51 0 0 1 4.06-2.31c1.7 0 4.34 1 4.34 5.23v7.33h-2.23v-7.08c0-2-.74-3.63-2.85-3.63a3.17 3.17 0 0 0-3 2.29 3.2 3.2 0 0 0-.16 1v7.38h-2.23zM243.71 318.86a1.39 1.39 0 0 1-2.77 0 1.36 1.36 0 0 1 1.4-1.39 1.32 1.32 0 0 1 1.37 1.39zm-2.49 15.74v-12.28h2.24v12.28zM245.76 333.31l5.57-7.24c.53-.66 1-1.24 1.6-1.9v-.05h-6.66v-1.8h9.37v1.39l-5.49 7.14c-.51.68-1 1.29-1.57 1.93v.05h7.18v1.77h-10zM264.83 334.6l-.18-1.54h-.07a4.6 4.6 0 0 1-3.76 1.82 3.5 3.5 0 0 1-3.76-3.53c0-3 2.64-4.59 7.39-4.57v-.25a2.53 2.53 0 0 0-2.79-2.84 6.11 6.11 0 0 0-3.2.91l-.51-1.47a7.65 7.65 0 0 1 4-1.09c3.76 0 4.67 2.56 4.67 5v4.6a17.41 17.41 0 0 0 .2 2.94zm-.33-6.27c-2.44-.05-5.2.38-5.2 2.77a2 2 0 0 0 2.1 2.13 3.07 3.07 0 0 0 3-2.05 2.58 2.58 0 0 0 .12-.71zM272.85 318.79v3.53h3.2V324h-3.2v6.62c0 1.53.44 2.39 1.68 2.39a5.36 5.36 0 0 0 1.3-.15l.1 1.67a5.41 5.41 0 0 1-2 .31 3.12 3.12 0 0 1-2.42-.94 4.57 4.57 0 0 1-.86-3.2V324h-1.9v-1.7h1.9v-2.95zM281.05 318.86a1.31 1.31 0 0 1-1.42 1.37 1.33 1.33 0 0 1-1.34-1.37 1.36 1.36 0 0 1 1.39-1.39 1.32 1.32 0 0 1 1.37 1.39zm-2.48 15.74v-12.28h2.23v12.28zM295.63 328.36c0 4.54-3.15 6.52-6.12 6.52-3.33 0-5.89-2.43-5.89-6.32 0-4.11 2.69-6.52 6.09-6.52s5.92 2.56 5.92 6.32zm-9.75.13c0 2.69 1.55 4.72 3.73 4.72s3.73-2 3.73-4.77c0-2.09-1-4.73-3.68-4.73s-3.78 2.44-3.78 4.78zM298.45 325.64c0-1.27 0-2.31-.11-3.32h2l.13 2h.05a4.51 4.51 0 0 1 4.06-2.31c1.71 0 4.35 1 4.35 5.23v7.33h-2.24v-7.08c0-2-.73-3.63-2.84-3.63a3.18 3.18 0 0 0-3 2.29 3.22 3.22 0 0 0-.15 1v7.38h-2.23zM76.7 373.11a21.69 21.69 0 0 1 4-.36c2.21 0 3.63.38 4.7 1.25a3.57 3.57 0 0 1 1.42 3 4.07 4.07 0 0 1-2.82 3.78v.05a4.4 4.4 0 0 1 3.52 4.29 4.63 4.63 0 0 1-1.44 3.43c-1.2 1.09-3.13 1.6-5.92 1.6a26 26 0 0 1-3.43-.21zm2.21 7h2c2.33 0 3.71-1.22 3.71-2.87 0-2-1.53-2.8-3.76-2.8a9.09 9.09 0 0 0-2 .16zm0 8.2a12.71 12.71 0 0 0 1.86.1c2.28 0 4.39-.84 4.39-3.33 0-2.33-2-3.3-4.42-3.3h-1.83zM100.67 386.64c0 1.27 0 2.39.1 3.35h-2l-.12-2h-.06a4.6 4.6 0 0 1-4.06 2.28c-1.93 0-4.24-1.06-4.24-5.38v-7.19h2.24v6.81c0 2.34.71 3.91 2.74 3.91a3.16 3.16 0 0 0 3.15-3.17v-7.55h2.23zM104.07 387.71a5.88 5.88 0 0 0 3 .89c1.62 0 2.38-.81 2.38-1.83s-.63-1.65-2.28-2.26c-2.21-.79-3.25-2-3.25-3.48 0-2 1.6-3.6 4.24-3.6a6.08 6.08 0 0 1 3 .76l-.56 1.62a4.81 4.81 0 0 0-2.51-.71c-1.32 0-2.06.76-2.06 1.68s.74 1.47 2.34 2.08c2.13.81 3.22 1.88 3.22 3.71 0 2.15-1.67 3.68-4.59 3.68a7 7 0 0 1-3.46-.84zM116.92 374.25a1.39 1.39 0 0 1-2.77 0 1.37 1.37 0 0 1 1.4-1.4 1.33 1.33 0 0 1 1.37 1.4zM114.43 390v-12.3h2.24V390zM120.37 381c0-1.27 0-2.31-.1-3.33h2l.13 2h.05a4.51 4.51 0 0 1 4.06-2.31c1.7 0 4.34 1 4.34 5.23V390h-2.25v-7.08c0-2-.74-3.63-2.85-3.63a3.17 3.17 0 0 0-3 2.28 3.26 3.26 0 0 0-.15 1V390h-2.24zM135.71 384.26c0 3 2 4.26 4.21 4.26a8.14 8.14 0 0 0 3.4-.63l.38 1.6a10 10 0 0 1-4.08.76c-3.79 0-6.05-2.49-6.05-6.2s2.19-6.62 5.77-6.62c4 0 5.08 3.52 5.08 5.78a9.63 9.63 0 0 1-.08 1.05zm6.55-1.6c0-1.43-.59-3.64-3.1-3.64-2.26 0-3.25 2.09-3.43 3.64zM146.88 387.71a5.87 5.87 0 0 0 2.94.89c1.63 0 2.39-.81 2.39-1.83s-.64-1.65-2.29-2.26c-2.2-.79-3.25-2-3.25-3.48 0-2 1.6-3.6 4.24-3.6a6.13 6.13 0 0 1 3 .76l-.56 1.62a4.85 4.85 0 0 0-2.52-.71c-1.32 0-2.05.76-2.05 1.68s.73 1.47 2.33 2.08c2.14.81 3.23 1.88 3.23 3.71 0 2.15-1.68 3.68-4.6 3.68a7 7 0 0 1-3.45-.84zM156.93 387.71a5.88 5.88 0 0 0 2.95.89c1.62 0 2.38-.81 2.38-1.83s-.63-1.65-2.28-2.26c-2.21-.79-3.25-2-3.25-3.48 0-2 1.6-3.6 4.24-3.6a6.11 6.11 0 0 1 3 .76l-.56 1.62a4.81 4.81 0 0 0-2.51-.71c-1.32 0-2.06.76-2.06 1.68s.74 1.47 2.34 2.08c2.13.81 3.22 1.88 3.22 3.71 0 2.15-1.67 3.68-4.59 3.68a7 7 0 0 1-3.46-.84zM172.67 381.72c0-1.58 0-2.85-.1-4h2l.1 2.11a4.82 4.82 0 0 1 4.37-2.38c3 0 5.2 2.51 5.2 6.24 0 4.42-2.69 6.6-5.59 6.6a4.31 4.31 0 0 1-3.78-1.93h-.05V395h-2.21zm2.21 3.27a5.18 5.18 0 0 0 .1.92 3.44 3.44 0 0 0 3.35 2.61c2.36 0 3.74-1.93 3.74-4.75 0-2.46-1.3-4.57-3.66-4.57A3.57 3.57 0 0 0 175 382a3.93 3.93 0 0 0-.15.91zM187.12 381.54c0-1.45 0-2.69-.11-3.84h2l.08 2.42h.1a3.68 3.68 0 0 1 3.4-2.69 2.43 2.43 0 0 1 .63.07v2.11a3.28 3.28 0 0 0-.76-.08 3.13 3.13 0 0 0-3 2.87 6.44 6.44 0 0 0-.1 1v6.6h-2.21zM206.29 383.75c0 4.54-3.15 6.52-6.12 6.52-3.33 0-5.89-2.43-5.89-6.32 0-4.11 2.69-6.52 6.09-6.52s5.92 2.57 5.92 6.32zm-9.75.12c0 2.7 1.54 4.73 3.73 4.73s3.73-2 3.73-4.78c0-2.08-1-4.72-3.68-4.72s-3.78 2.44-3.78 4.77zM217.86 389.54a8.3 8.3 0 0 1-3.53.71c-3.7 0-6.12-2.52-6.12-6.27a6.25 6.25 0 0 1 6.61-6.53 7.34 7.34 0 0 1 3.09.64l-.5 1.72a5.29 5.29 0 0 0-2.59-.58c-2.82 0-4.35 2.08-4.35 4.64 0 2.85 1.83 4.6 4.27 4.6a6.31 6.31 0 0 0 2.74-.61zM221.57 384.26c.05 3 2 4.26 4.21 4.26a8.22 8.22 0 0 0 3.41-.63l.38 1.6a10.1 10.1 0 0 1-4.09.76c-3.78 0-6-2.49-6-6.2s2.18-6.62 5.76-6.62c4 0 5.08 3.52 5.08 5.78a7.61 7.61 0 0 1-.08 1.05zm6.55-1.6c0-1.43-.58-3.64-3.1-3.64-2.26 0-3.25 2.09-3.43 3.64zM232.74 387.71a5.87 5.87 0 0 0 2.94.89c1.63 0 2.39-.81 2.39-1.83s-.63-1.65-2.28-2.26c-2.21-.79-3.25-2-3.25-3.48 0-2 1.6-3.6 4.24-3.6a6.11 6.11 0 0 1 3 .76l-.56 1.62a4.81 4.81 0 0 0-2.51-.71c-1.32 0-2.06.76-2.06 1.68s.74 1.47 2.34 2.08c2.13.81 3.22 1.88 3.22 3.71 0 2.15-1.68 3.68-4.6 3.68a7 7 0 0 1-3.45-.84zM242.79 387.71a5.88 5.88 0 0 0 3 .89c1.62 0 2.39-.81 2.39-1.83s-.64-1.65-2.29-2.26c-2.21-.79-3.25-2-3.25-3.48 0-2 1.6-3.6 4.24-3.6a6.08 6.08 0 0 1 3 .76l-.56 1.62a4.81 4.81 0 0 0-2.51-.71c-1.32 0-2.06.76-2.06 1.68s.74 1.47 2.34 2.08c2.13.81 3.22 1.88 3.22 3.71 0 2.15-1.67 3.68-4.59 3.68a7 7 0 0 1-3.46-.84zM83.43 415.38l-.18-1.55h-.07a4.58 4.58 0 0 1-3.76 1.83 3.5 3.5 0 0 1-3.76-3.53c0-3 2.64-4.59 7.39-4.57v-.25a2.54 2.54 0 0 0-2.79-2.85 6.11 6.11 0 0 0-3.2.92l-.51-1.47a7.65 7.65 0 0 1 4-1.1c3.76 0 4.67 2.57 4.67 5v4.6a17.57 17.57 0 0 0 .2 2.94zm-.33-6.27c-2.44-.05-5.2.38-5.2 2.77A2 2 0 0 0 80 414a3 3 0 0 0 3-2 2.28 2.28 0 0 0 .13-.72zM99.15 412c0 1.27 0 2.39.1 3.35h-2l-.13-2a4.62 4.62 0 0 1-4.12 2.31c-1.93 0-4.24-1.06-4.24-5.38v-7.19H91v6.81c0 2.33.71 3.91 2.74 3.91a3.13 3.13 0 0 0 3.15-3.18v-7.54h2.24zM105.55 399.56v3.53h3.19v1.7h-3.19v6.63c0 1.53.43 2.39 1.67 2.39a5.36 5.36 0 0 0 1.3-.15l.1 1.67a5.41 5.41 0 0 1-2 .31 3.12 3.12 0 0 1-2.42-.94 4.57 4.57 0 0 1-.86-3.2v-6.71h-1.9v-1.7h1.9v-2.94zM122.23 409.14c0 4.54-3.15 6.52-6.12 6.52-3.33 0-5.89-2.44-5.89-6.32 0-4.11 2.69-6.53 6.09-6.53s5.92 2.57 5.92 6.33zm-9.75.12c0 2.7 1.54 4.73 3.73 4.73s3.73-2 3.73-4.78c0-2.08-1-4.72-3.68-4.72s-3.78 2.44-3.78 4.77zM125 406.42c0-1.27 0-2.31-.1-3.33h2l.1 2h.07a4.26 4.26 0 0 1 3.86-2.26 3.63 3.63 0 0 1 3.48 2.47h.05a5.09 5.09 0 0 1 1.37-1.6 4.2 4.2 0 0 1 2.72-.87c1.63 0 4 1.07 4 5.34v7.23h-2.15v-6.95c0-2.37-.86-3.79-2.66-3.79a2.89 2.89 0 0 0-2.64 2 3.75 3.75 0 0 0-.18 1.12v7.59h-2.18V408c0-2-.87-3.38-2.57-3.38a3.07 3.07 0 0 0-2.77 2.24 3.23 3.23 0 0 0-.17 1.09v7.41H125zM153 415.38l-.18-1.55h-.07a4.58 4.58 0 0 1-3.76 1.83 3.5 3.5 0 0 1-3.76-3.53c0-3 2.64-4.59 7.39-4.57v-.25a2.54 2.54 0 0 0-2.79-2.85 6.11 6.11 0 0 0-3.2.92l-.51-1.47a7.65 7.65 0 0 1 4-1.1c3.76 0 4.67 2.57 4.67 5v4.6a17.57 17.57 0 0 0 .2 2.94zm-.33-6.27c-2.44-.05-5.2.38-5.2 2.77a2 2 0 0 0 2.1 2.13 3 3 0 0 0 3-2.05 2.28 2.28 0 0 0 .13-.72zM161 399.56v3.53h3.2v1.7H161v6.63c0 1.53.44 2.39 1.68 2.39a5.2 5.2 0 0 0 1.29-.15l.11 1.67a5.45 5.45 0 0 1-2 .31 3.12 3.12 0 0 1-2.42-.94 4.57 4.57 0 0 1-.86-3.2v-6.71H157v-1.7h1.9v-2.94zM169.24 399.64a1.31 1.31 0 0 1-1.42 1.37 1.33 1.33 0 0 1-1.34-1.37 1.36 1.36 0 0 1 1.39-1.4 1.33 1.33 0 0 1 1.37 1.4zm-2.48 15.74v-12.29H169v12.29zM183.82 409.14c0 4.54-3.15 6.52-6.12 6.52-3.33 0-5.89-2.44-5.89-6.32 0-4.11 2.69-6.53 6.09-6.53s5.92 2.57 5.92 6.33zm-9.75.12c0 2.7 1.55 4.73 3.73 4.73s3.73-2 3.73-4.78c0-2.08-1-4.72-3.68-4.72s-3.78 2.44-3.78 4.77zM186.64 406.42c0-1.27 0-2.31-.11-3.33h2l.13 2h.05a4.52 4.52 0 0 1 4.06-2.32c1.71 0 4.35 1 4.35 5.23v7.34h-2.24v-7.04c0-2-.73-3.63-2.84-3.63a3.18 3.18 0 0 0-3 2.28 3.26 3.26 0 0 0-.15 1v7.39h-2.23z"/><circle class="cls-6" cx="41.4" cy="217" r="4.5"/><circle class="cls-6" cx="41.77" cy="272" r="4.5"/><circle class="cls-6" cx="42.14" cy="327" r="4.5"/><circle class="cls-6" cx="42.51" cy="382" r="4.5"/><path class="cls-5" d="M490.7 206.94a32.23 32.23 0 0 1 4.7-.35c3.17 0 5.43.73 6.93 2.13a7.87 7.87 0 0 1 2.41 6.15 9.06 9.06 0 0 1-2.46 6.65c-1.6 1.6-4.24 2.46-7.56 2.46a37.6 37.6 0 0 1-4-.2zm2.21 15.14a14.28 14.28 0 0 0 2.24.12c4.72 0 7.28-2.64 7.28-7.26 0-4-2.26-6.6-6.93-6.6a12.38 12.38 0 0 0-2.59.23zM508.7 211.54l2.69 7.26c.28.81.59 1.78.79 2.51h.05c.23-.73.49-1.67.79-2.56l2.44-7.21h2.36l-3.35 8.76c-1.6 4.21-2.69 6.37-4.22 7.69a6 6 0 0 1-2.74 1.45l-.56-1.88a5.92 5.92 0 0 0 2-1.09 6.8 6.8 0 0 0 1.88-2.49 1.63 1.63 0 0 0 .17-.53 2 2 0 0 0-.15-.59l-4.54-11.32zM519.85 214.87c0-1.27 0-2.32-.1-3.33h2l.12 2h.06a4.5 4.5 0 0 1 4.06-2.31c1.7 0 4.34 1 4.34 5.23v7.34h-2.23v-7.09c0-2-.74-3.63-2.85-3.63a3.17 3.17 0 0 0-3 2.29 3 3 0 0 0-.16 1v7.39h-2.23zM540.74 223.83l-.17-1.55h-.08a4.61 4.61 0 0 1-3.76 1.83 3.5 3.5 0 0 1-3.76-3.53c0-3 2.65-4.6 7.39-4.57v-.26a2.53 2.53 0 0 0-2.79-2.84 6.2 6.2 0 0 0-3.2.91l-.51-1.47a7.65 7.65 0 0 1 4-1.09c3.76 0 4.67 2.56 4.67 5v4.59a16.55 16.55 0 0 0 .21 3zm-.33-6.27c-2.43-.05-5.2.38-5.2 2.76a2 2 0 0 0 2.11 2.14 3.06 3.06 0 0 0 3-2.06 2.52 2.52 0 0 0 .12-.71zM546.18 214.87c0-1.27 0-2.32-.1-3.33H548l.1 2h.08a4.23 4.23 0 0 1 3.86-2.26 3.65 3.65 0 0 1 3.48 2.46h.05a5.08 5.08 0 0 1 1.37-1.6 4.17 4.17 0 0 1 2.71-.86c1.63 0 4 1.07 4 5.33v7.24h-2.18v-7c0-2.36-.86-3.78-2.67-3.78a2.89 2.89 0 0 0-2.64 2 3.7 3.7 0 0 0-.18 1.12v7.59h-2.18v-7.37c0-2-.86-3.37-2.56-3.37a3.05 3.05 0 0 0-2.77 2.23 3 3 0 0 0-.18 1.09v7.42h-2.18zM569.84 208.09a1.39 1.39 0 0 1-2.77 0 1.37 1.37 0 0 1 1.4-1.4 1.33 1.33 0 0 1 1.37 1.4zm-2.49 15.74v-12.29h2.24v12.29zM582.05 223.37a8.14 8.14 0 0 1-3.53.71c-3.71 0-6.12-2.51-6.12-6.27a6.24 6.24 0 0 1 6.6-6.52 7.57 7.57 0 0 1 3.1.63l-.51 1.73a5.1 5.1 0 0 0-2.59-.59c-2.81 0-4.34 2.08-4.34 4.65 0 2.84 1.83 4.59 4.27 4.59a6.47 6.47 0 0 0 2.74-.6zM590.05 215.37c0-1.44 0-2.69-.1-3.83h1.95l.1 2.46h.1a3.68 3.68 0 0 1 3.4-2.69 2.55 2.55 0 0 1 .64.08v2.1a3.49 3.49 0 0 0-.77-.07 3.13 3.13 0 0 0-3 2.87 6.33 6.33 0 0 0-.1 1v6.55h-2.21zM609.22 217.58c0 4.55-3.15 6.53-6.12 6.53-3.33 0-5.89-2.44-5.89-6.32 0-4.12 2.69-6.53 6.09-6.53s5.92 2.56 5.92 6.32zm-9.75.13c0 2.69 1.54 4.72 3.73 4.72s3.73-2 3.73-4.77c0-2.08-1-4.72-3.68-4.72s-3.78 2.43-3.78 4.77zM622.32 220.48c0 1.27 0 2.38.1 3.35h-2l-.13-2a4.62 4.62 0 0 1-4.06 2.29c-1.93 0-4.24-1.07-4.24-5.39v-7.18h2.23v6.8c0 2.34.71 3.91 2.74 3.91a3.24 3.24 0 0 0 3-2 3.17 3.17 0 0 0 .2-1.14v-7.54h2.24zM628.71 208v3.53h3.2v1.7h-3.2v6.63c0 1.52.44 2.38 1.68 2.38a4.76 4.76 0 0 0 1.29-.15l.11 1.68a5.48 5.48 0 0 1-2 .3 3.11 3.11 0 0 1-2.42-.94 4.57 4.57 0 0 1-.86-3.2v-6.7h-1.9v-1.7h1.9v-2.95zM636.91 208.09a1.31 1.31 0 0 1-1.42 1.37 1.33 1.33 0 0 1-1.34-1.37 1.36 1.36 0 0 1 1.39-1.4 1.33 1.33 0 0 1 1.37 1.4zm-2.48 15.74v-12.29h2.23v12.29zM640.37 214.87c0-1.27 0-2.32-.11-3.33h2l.12 2a4.52 4.52 0 0 1 4.07-2.31c1.7 0 4.34 1 4.34 5.23v7.34h-2.24v-7.09c0-2-.73-3.63-2.84-3.63a3.18 3.18 0 0 0-3 2.29 3.26 3.26 0 0 0-.15 1v7.39h-2.23zM665.05 211.54c-.06.89-.11 1.88-.11 3.38v7.13c0 2.82-.55 4.55-1.75 5.61a6.49 6.49 0 0 1-4.47 1.47 7.91 7.91 0 0 1-4.08-1l.55-1.7a7 7 0 0 0 3.61 1c2.28 0 4-1.19 4-4.29v-1.37a4.4 4.4 0 0 1-3.91 2.06c-3 0-5.23-2.59-5.23-6 0-4.17 2.72-6.53 5.53-6.53a4.11 4.11 0 0 1 3.84 2.13l.1-1.85zm-2.32 4.85a3.29 3.29 0 0 0-.12-1 3.23 3.23 0 0 0-3.13-2.36c-2.13 0-3.65 1.8-3.65 4.65 0 2.41 1.22 4.42 3.63 4.42a3.28 3.28 0 0 0 3.1-2.29 4.08 4.08 0 0 0 .17-1.19zM502.66 278.66a11.08 11.08 0 0 1-4.52.81c-4.82 0-8.45-3.05-8.45-8.66 0-5.35 3.63-9 8.94-9a9.08 9.08 0 0 1 4.06.77l-.54 1.8a8 8 0 0 0-3.45-.71c-4 0-6.68 2.56-6.68 7.06 0 4.19 2.42 6.88 6.58 6.88a8.88 8.88 0 0 0 3.61-.71zM516.19 273c0 4.55-3.14 6.53-6.12 6.53-3.32 0-5.89-2.44-5.89-6.33 0-4.11 2.7-6.52 6.1-6.52s5.91 2.53 5.91 6.32zm-9.75.13c0 2.69 1.55 4.72 3.74 4.72s3.73-2 3.73-4.77c0-2.09-1-4.73-3.68-4.73s-3.79 2.41-3.79 4.75zM519 270.25c0-1.27 0-2.31-.1-3.32h2l.13 2h.05a4.51 4.51 0 0 1 4.06-2.31c1.7 0 4.34 1 4.34 5.23v7.34h-2.23v-7.09c0-2-.74-3.63-2.85-3.63a3.17 3.17 0 0 0-3 2.29 3.26 3.26 0 0 0-.15 1v7.39H519zM535.69 263.4v3.53h3.2v1.7h-3.2v6.63c0 1.52.43 2.38 1.68 2.38a4.81 4.81 0 0 0 1.29-.15l.1 1.68a5.62 5.62 0 0 1-2 .3 3.09 3.09 0 0 1-2.41-.94 4.57 4.57 0 0 1-.86-3.2v-6.7h-1.89v-1.7h1.91V264zM548.21 279.22l-.18-1.55H548a4.57 4.57 0 0 1-3.75 1.83 3.51 3.51 0 0 1-3.76-3.53c0-3 2.64-4.6 7.39-4.57v-.26a2.54 2.54 0 0 0-2.8-2.84 6.07 6.07 0 0 0-3.19.91l-.51-1.47a7.61 7.61 0 0 1 4-1.09c3.76 0 4.68 2.56 4.68 5v4.59a17.62 17.62 0 0 0 .2 3zm-.33-6.27c-2.44-.06-5.21.38-5.21 2.76a2 2 0 0 0 2.11 2.14 3.05 3.05 0 0 0 3-2.06 2.22 2.22 0 0 0 .13-.71zM556.13 263.47a1.39 1.39 0 0 1-2.77 0 1.36 1.36 0 0 1 1.4-1.39 1.32 1.32 0 0 1 1.37 1.39zm-2.49 15.75v-12.29h2.24v12.29zM559.58 270.25c0-1.27 0-2.31-.1-3.32h2l.13 2a4.51 4.51 0 0 1 4.06-2.31c1.7 0 4.34 1 4.34 5.23v7.34h-2.23v-7.09c0-2-.74-3.63-2.85-3.63a3.17 3.17 0 0 0-3 2.29 3.26 3.26 0 0 0-.15 1v7.39h-2.24zM574.92 273.48c.05 3 2 4.26 4.21 4.26a8.14 8.14 0 0 0 3.4-.63l.38 1.6a10 10 0 0 1-4.08.76c-3.79 0-6.05-2.49-6.05-6.19s2.19-6.63 5.77-6.63c4 0 5.08 3.53 5.08 5.79a9.62 9.62 0 0 1-.08 1zm6.55-1.6c0-1.42-.59-3.63-3.1-3.63-2.26 0-3.25 2.08-3.43 3.63zM586.39 270.76c0-1.45 0-2.69-.1-3.83h2l.07 2.41h.1a3.69 3.69 0 0 1 3.41-2.69 2.43 2.43 0 0 1 .63.07v2.11a3.45 3.45 0 0 0-.76-.07 3.13 3.13 0 0 0-3 2.87 6.33 6.33 0 0 0-.1 1v6.55h-2.21zM602.77 263.4v3.53H606v1.7h-3.2v6.63c0 1.52.43 2.38 1.67 2.38a4.84 4.84 0 0 0 1.3-.15l.1 1.68a5.67 5.67 0 0 1-2 .3 3.09 3.09 0 0 1-2.41-.94 4.52 4.52 0 0 1-.87-3.2v-6.7h-1.9v-1.7h1.9V264zM608.48 270.76c0-1.45 0-2.69-.1-3.83h2l.08 2.41h.1a3.68 3.68 0 0 1 3.4-2.69 2.51 2.51 0 0 1 .64.07v2.11a3.45 3.45 0 0 0-.76-.07 3.13 3.13 0 0 0-3 2.87 6.33 6.33 0 0 0-.1 1v6.55h-2.21zM623.46 279.22l-.18-1.55h-.07a4.61 4.61 0 0 1-3.76 1.83 3.51 3.51 0 0 1-3.76-3.53c0-3 2.64-4.6 7.39-4.57v-.26a2.53 2.53 0 0 0-2.79-2.84 6.08 6.08 0 0 0-3.2.91l-.51-1.47a7.62 7.62 0 0 1 4-1.09c3.75 0 4.67 2.56 4.67 5v4.59a17.62 17.62 0 0 0 .2 3zm-.33-6.27c-2.44-.06-5.21.38-5.21 2.76a2 2 0 0 0 2.11 2.14 3.05 3.05 0 0 0 3-2.06 2.22 2.22 0 0 0 .13-.71zM637.65 278.76a8.3 8.3 0 0 1-3.53.71c-3.7 0-6.12-2.51-6.12-6.27a6.25 6.25 0 0 1 6.6-6.53 7.35 7.35 0 0 1 3.1.64l-.51 1.73a5.1 5.1 0 0 0-2.59-.59c-2.81 0-4.34 2.08-4.34 4.65 0 2.84 1.83 4.59 4.27 4.59a6.31 6.31 0 0 0 2.74-.61zM642.47 272.56h.06c.3-.43.73-1 1.09-1.39l3.6-4.24h2.69l-4.74 5.07 5.4 7.24h-2.71l-4.24-5.89-1.15 1.27v4.62h-2.2v-18h2.2zM655.09 263.47a1.38 1.38 0 1 1-2.76 0 1.36 1.36 0 0 1 1.39-1.39 1.32 1.32 0 0 1 1.37 1.39zm-2.49 15.75v-12.29h2.24v12.29zM658.55 270.25c0-1.27 0-2.31-.11-3.32h2l.13 2h.05a4.51 4.51 0 0 1 4.06-2.31c1.71 0 4.35 1 4.35 5.23v7.34h-2.24v-7.09c0-2-.73-3.63-2.84-3.63a3.18 3.18 0 0 0-3 2.29 3.26 3.26 0 0 0-.15 1v7.39h-2.23zM683.22 266.93c-.05.89-.1 1.88-.1 3.37v7.14c0 2.82-.56 4.54-1.75 5.61a6.49 6.49 0 0 1-4.47 1.47 8 8 0 0 1-4.09-1l.56-1.7a7 7 0 0 0 3.61 1c2.28 0 4-1.19 4-4.29v-1.37h-.05a4.4 4.4 0 0 1-3.91 2.06c-3.05 0-5.23-2.59-5.23-6 0-4.16 2.71-6.52 5.53-6.52a4.11 4.11 0 0 1 3.84 2.13l.1-1.85zm-2.31 4.85a3.29 3.29 0 0 0-.12-1 3.23 3.23 0 0 0-3.13-2.36c-2.13 0-3.65 1.8-3.65 4.65 0 2.41 1.22 4.41 3.63 4.41a3.27 3.27 0 0 0 3.1-2.28 4.08 4.08 0 0 0 .17-1.19zM490.4 331.91a7.83 7.83 0 0 0 4 1.12c2.26 0 3.58-1.19 3.58-2.92s-.91-2.51-3.22-3.4c-2.8-1-4.52-2.44-4.52-4.85 0-2.67 2.2-4.65 5.53-4.65a7.78 7.78 0 0 1 3.78.84l-.61 1.8a6.84 6.84 0 0 0-3.25-.81c-2.33 0-3.22 1.4-3.22 2.56 0 1.6 1 2.39 3.4 3.31 2.9 1.11 4.37 2.51 4.37 5s-2 4.93-6 4.93a8.84 8.84 0 0 1-4.37-1.09zM504.54 328.87a3.93 3.93 0 0 0 4.22 4.26 8.21 8.21 0 0 0 3.4-.63l.38 1.6a10.06 10.06 0 0 1-4.09.76c-3.78 0-6-2.49-6-6.2s2.18-6.62 5.76-6.62c4 0 5.08 3.53 5.08 5.79a7.57 7.57 0 0 1-.08 1zm6.55-1.6c0-1.42-.58-3.63-3.1-3.63-2.26 0-3.25 2.08-3.42 3.63zM516 325.64c0-1.27 0-2.31-.11-3.32h2l.13 2h.05a4.52 4.52 0 0 1 4.07-2.31c1.7 0 4.34 1 4.34 5.23v7.33h-2.24v-7.08c0-2-.73-3.63-2.84-3.63a3.18 3.18 0 0 0-3 2.29 3.22 3.22 0 0 0-.15 1v7.38H516zM529.8 332.32a5.88 5.88 0 0 0 3 .89c1.62 0 2.38-.81 2.38-1.83s-.63-1.65-2.28-2.26c-2.21-.79-3.25-2-3.25-3.48 0-2 1.6-3.6 4.24-3.6a6.08 6.08 0 0 1 3 .76l-.56 1.62a4.81 4.81 0 0 0-2.51-.71c-1.32 0-2.06.76-2.06 1.68s.74 1.47 2.34 2.08c2.13.81 3.22 1.88 3.22 3.71 0 2.16-1.67 3.68-4.59 3.68a7 7 0 0 1-3.46-.84zM551.28 328.36c0 4.54-3.15 6.52-6.12 6.52-3.32 0-5.89-2.43-5.89-6.32 0-4.11 2.69-6.52 6.1-6.52s5.91 2.56 5.91 6.32zm-9.75.13c0 2.69 1.55 4.72 3.73 4.72s3.74-2 3.74-4.77c0-2.09-1-4.73-3.69-4.73s-3.78 2.44-3.78 4.78zM554.1 326.15c0-1.45 0-2.69-.1-3.83h2l.08 2.41h.1a3.68 3.68 0 0 1 3.4-2.69 2.51 2.51 0 0 1 .64.07v2.11a3.41 3.41 0 0 0-.76-.08 3.14 3.14 0 0 0-3 2.87 6.44 6.44 0 0 0-.1 1v6.55h-2.26zM567.45 326.91v1.65h-6.27v-1.65zM570 334.6c0-.83.1-2.08.1-3.17v-14.85h2.21v7.72h.05a4.57 4.57 0 0 1 4.19-2.26c3 0 5.2 2.54 5.18 6.27 0 4.39-2.77 6.57-5.51 6.57a4.38 4.38 0 0 1-4.12-2.31h-.1l-.1 2zm2.31-4.92a4.17 4.17 0 0 0 .1.81 3.44 3.44 0 0 0 3.35 2.62c2.34 0 3.73-1.91 3.73-4.73 0-2.46-1.27-4.57-3.65-4.57a3.57 3.57 0 0 0-3.41 2.75 4.37 4.37 0 0 0-.12.91zM591.32 334.6l-.18-1.54h-.08a4.56 4.56 0 0 1-3.75 1.82 3.5 3.5 0 0 1-3.76-3.53c0-3 2.64-4.59 7.39-4.57v-.25a2.54 2.54 0 0 0-2.8-2.84 6.13 6.13 0 0 0-3.2.91l-.5-1.47a7.61 7.61 0 0 1 4-1.09c3.76 0 4.68 2.56 4.68 5v4.6a17.41 17.41 0 0 0 .2 2.94zm-.33-6.27c-2.44-.05-5.21.38-5.21 2.77a2 2 0 0 0 2.11 2.13 3 3 0 0 0 3-2.05 2.27 2.27 0 0 0 .13-.71zM596.45 332.32a5.84 5.84 0 0 0 2.94.89c1.63 0 2.39-.81 2.39-1.83s-.64-1.65-2.29-2.26c-2.21-.79-3.25-2-3.25-3.48 0-2 1.6-3.6 4.24-3.6a6.05 6.05 0 0 1 3 .76l-.55 1.62a4.89 4.89 0 0 0-2.52-.71c-1.32 0-2 .76-2 1.68s.73 1.47 2.33 2.08c2.13.81 3.23 1.88 3.23 3.71 0 2.16-1.68 3.68-4.6 3.68a7 7 0 0 1-3.45-.84zM608.05 328.87c.05 3 2 4.26 4.21 4.26a8.22 8.22 0 0 0 3.41-.63l.38 1.6a10.1 10.1 0 0 1-4.09.76c-3.78 0-6-2.49-6-6.2s2.18-6.62 5.76-6.62c4 0 5.08 3.53 5.08 5.79a7.57 7.57 0 0 1-.08 1zm6.55-1.6c0-1.42-.59-3.63-3.1-3.63-2.26 0-3.25 2.08-3.43 3.63zM630.14 316.58v14.85c0 1.09 0 2.34.1 3.17h-2l-.1-2.13a4.55 4.55 0 0 1-4.19 2.41c-3 0-5.25-2.51-5.25-6.24 0-4.09 2.51-6.6 5.5-6.6a4.12 4.12 0 0 1 3.71 1.88v-7.34zm-2.24 10.74a3.76 3.76 0 0 0-.1-.94 3.29 3.29 0 0 0-3.22-2.59c-2.31 0-3.69 2-3.69 4.75 0 2.48 1.22 4.54 3.64 4.54a3.36 3.36 0 0 0 3.27-2.66 3.75 3.75 0 0 0 .1-1zM639.22 325.64c0-1.27 0-2.31-.1-3.32h2l.1 2h.08a4.22 4.22 0 0 1 3.86-2.26 3.62 3.62 0 0 1 3.47 2.46 5.11 5.11 0 0 1 1.38-1.6 4.15 4.15 0 0 1 2.71-.86c1.63 0 4 1.06 4 5.33v7.23h-2.18v-7c0-2.36-.87-3.79-2.67-3.79a2.89 2.89 0 0 0-2.64 2 3.68 3.68 0 0 0-.18 1.11v7.59h-2.18v-7.36c0-1.95-.87-3.38-2.57-3.38a3 3 0 0 0-2.76 2.24 3 3 0 0 0-.18 1.09v7.41h-2.19zM671.52 328.36c0 4.54-3.15 6.52-6.12 6.52-3.33 0-5.89-2.43-5.89-6.32 0-4.11 2.69-6.52 6.09-6.52s5.92 2.56 5.92 6.32zm-9.75.13c0 2.69 1.55 4.72 3.73 4.72s3.73-2 3.73-4.77c0-2.09-1-4.73-3.68-4.73s-3.78 2.44-3.78 4.78zM674.34 325.64c0-1.27 0-2.31-.1-3.32h2l.12 2a4.53 4.53 0 0 1 4.07-2.31c1.7 0 4.34 1 4.34 5.23v7.33h-2.24v-7.08c0-2-.73-3.63-2.84-3.63a3.18 3.18 0 0 0-3 2.29 3.22 3.22 0 0 0-.15 1v7.38h-2.23zM690.92 318.86a1.39 1.39 0 0 1-2.77 0 1.36 1.36 0 0 1 1.4-1.39 1.33 1.33 0 0 1 1.37 1.39zm-2.49 15.74v-12.28h2.23v12.28zM697.06 318.79v3.53h3.2V324h-3.2v6.62c0 1.53.43 2.39 1.68 2.39a5.27 5.27 0 0 0 1.29-.15l.1 1.67a5.41 5.41 0 0 1-2 .31 3.09 3.09 0 0 1-2.41-.94 4.53 4.53 0 0 1-.86-3.2V324H693v-1.7h1.91v-2.95zM713.74 328.36c0 4.54-3.15 6.52-6.12 6.52-3.32 0-5.89-2.43-5.89-6.32 0-4.11 2.69-6.52 6.09-6.52s5.92 2.56 5.92 6.32zm-9.75.13c0 2.69 1.55 4.72 3.73 4.72s3.74-2 3.74-4.77c0-2.09-1.05-4.73-3.69-4.73s-3.77 2.44-3.77 4.78zM716.56 326.15c0-1.45 0-2.69-.1-3.83h1.95l.08 2.41h.1A3.68 3.68 0 0 1 722 322a2.51 2.51 0 0 1 .64.07v2.11a3.44 3.44 0 0 0-.77-.08 3.13 3.13 0 0 0-3 2.87 6.44 6.44 0 0 0-.1 1v6.55h-2.21zM727.45 318.86a1.39 1.39 0 0 1-2.77 0 1.36 1.36 0 0 1 1.4-1.39 1.32 1.32 0 0 1 1.37 1.39zM725 334.6v-12.28h2.24v12.28zM730.9 325.64c0-1.27 0-2.31-.1-3.32h2l.13 2h.07a4.51 4.51 0 0 1 4-2.32c1.7 0 4.34 1 4.34 5.23v7.33h-2.23v-7.08c0-2-.74-3.63-2.85-3.63a3.17 3.17 0 0 0-3 2.29 3.22 3.22 0 0 0-.15 1v7.38h-2.21zM755.58 322.32c-.05.88-.1 1.87-.1 3.37v7.14c0 2.82-.56 4.54-1.75 5.61a6.51 6.51 0 0 1-4.47 1.47 8 8 0 0 1-4.09-1l.56-1.71a6.89 6.89 0 0 0 3.6 1c2.29 0 4-1.19 4-4.29v-1.41h-.06a4.37 4.37 0 0 1-3.91 2.05c-3 0-5.23-2.59-5.23-6 0-4.16 2.72-6.52 5.54-6.52a4.07 4.07 0 0 1 3.83 2.13l.11-1.85zm-2.31 4.85a3.28 3.28 0 0 0-3.25-3.38c-2.13 0-3.66 1.8-3.66 4.65 0 2.41 1.22 4.41 3.63 4.41a3.26 3.26 0 0 0 3.1-2.28 3.8 3.8 0 0 0 .18-1.2zM494 374.76h-5.2v-1.88h12.67v1.88h-5.23V390H494zM502.1 381.54c0-1.45 0-2.69-.1-3.84h2l.07 2.42h.1a3.69 3.69 0 0 1 3.41-2.69 2.43 2.43 0 0 1 .63.07v2.11a3.41 3.41 0 0 0-.76-.08 3.15 3.15 0 0 0-3 2.87 6.44 6.44 0 0 0-.1 1v6.6h-2.25zM517.08 390l-.18-1.54h-.07a4.6 4.6 0 0 1-3.76 1.82 3.5 3.5 0 0 1-3.76-3.53c0-3 2.64-4.59 7.39-4.57v-.25a2.53 2.53 0 0 0-2.79-2.84 6.11 6.11 0 0 0-3.2.91l-.51-1.47a7.65 7.65 0 0 1 4-1.09c3.76 0 4.67 2.56 4.67 5v4.6a17.41 17.41 0 0 0 .2 2.94zm-.33-6.27c-2.44-.05-5.2.38-5.2 2.77a2 2 0 0 0 2.1 2.13 3.07 3.07 0 0 0 3-2.05 2.58 2.58 0 0 0 .12-.71zM525 374.25a1.38 1.38 0 0 1-2.76 0 1.36 1.36 0 0 1 1.39-1.4 1.33 1.33 0 0 1 1.37 1.4zM522.51 390v-12.3h2.24V390zM528.46 381c0-1.27 0-2.31-.11-3.33h2l.13 2a4.51 4.51 0 0 1 4.06-2.31c1.71 0 4.35 1 4.35 5.23V390h-2.24v-7.08c0-2-.73-3.63-2.84-3.63a3.18 3.18 0 0 0-3 2.28 3.26 3.26 0 0 0-.15 1V390h-2.23zM545 374.25a1.31 1.31 0 0 1-1.42 1.37 1.33 1.33 0 0 1-1.34-1.37 1.36 1.36 0 0 1 1.39-1.4 1.33 1.33 0 0 1 1.37 1.4zM542.55 390v-12.3h2.23V390zM548.49 381c0-1.27 0-2.31-.1-3.33h2l.12 2a4.52 4.52 0 0 1 4.07-2.31c1.7 0 4.34 1 4.34 5.23V390h-2.24v-7.08c0-2-.73-3.63-2.84-3.63a3.18 3.18 0 0 0-3 2.28 3.26 3.26 0 0 0-.15 1V390h-2.23zM573.17 377.7c-.06.89-.11 1.88-.11 3.38v7.14c0 2.82-.55 4.54-1.75 5.61a6.49 6.49 0 0 1-4.47 1.47 7.91 7.91 0 0 1-4.08-1l.55-1.71a7 7 0 0 0 3.61 1c2.28 0 4-1.19 4-4.29v-1.37a4.4 4.4 0 0 1-3.91 2.05c-3 0-5.23-2.59-5.23-6 0-4.16 2.72-6.52 5.53-6.52a4.09 4.09 0 0 1 3.84 2.13h.05l.1-1.86zm-2.32 4.85a3.18 3.18 0 0 0-.12-1 3.22 3.22 0 0 0-3.13-2.36c-2.13 0-3.65 1.8-3.65 4.64 0 2.42 1.22 4.42 3.63 4.42a3.27 3.27 0 0 0 3.1-2.28 4.14 4.14 0 0 0 .17-1.2zM589 390l-.18-1.54h-.08a4.57 4.57 0 0 1-3.76 1.82 3.5 3.5 0 0 1-3.75-3.53c0-3 2.64-4.59 7.38-4.57v-.25a2.52 2.52 0 0 0-2.79-2.84 6.13 6.13 0 0 0-3.2.91l-.51-1.47a7.65 7.65 0 0 1 4-1.09c3.76 0 4.67 2.56 4.67 5v4.6A16.37 16.37 0 0 0 591 390zm-.33-6.27c-2.44-.05-5.21.38-5.21 2.77a2 2 0 0 0 2.11 2.13 3.06 3.06 0 0 0 3-2.05 2.6 2.6 0 0 0 .13-.71zM594.39 381c0-1.27 0-2.31-.1-3.33h2l.12 2h.05a4.53 4.53 0 0 1 4.07-2.31c1.7 0 4.34 1 4.34 5.23V390h-2.24v-7.08c0-2-.73-3.63-2.84-3.63a3.19 3.19 0 0 0-3 2.28 3.26 3.26 0 0 0-.15 1V390h-2.23zM619.09 372v14.85c0 1.09 0 2.34.1 3.17h-2l-.1-2.13H617a4.56 4.56 0 0 1-4.19 2.41c-3 0-5.26-2.51-5.26-6.24 0-4.09 2.51-6.6 5.51-6.6a4.11 4.11 0 0 1 3.71 1.87h.05V372zm-2.23 10.74a4.29 4.29 0 0 0-.1-.94 3.29 3.29 0 0 0-3.23-2.59c-2.31 0-3.68 2-3.68 4.75 0 2.48 1.22 4.54 3.63 4.54a3.36 3.36 0 0 0 3.28-2.67 4.1 4.1 0 0 0 .1-1zM638.79 372v14.85c0 1.09 0 2.34.1 3.17h-2l-.1-2.13a4.56 4.56 0 0 1-4.19 2.41c-3 0-5.26-2.51-5.26-6.24 0-4.09 2.51-6.6 5.51-6.6a4.11 4.11 0 0 1 3.71 1.87V372zm-2.23 10.74a4.29 4.29 0 0 0-.1-.94 3.29 3.29 0 0 0-3.23-2.59c-2.31 0-3.68 2-3.68 4.75 0 2.48 1.22 4.54 3.63 4.54a3.36 3.36 0 0 0 3.28-2.67 4.1 4.1 0 0 0 .1-1zM643.74 384.26a3.93 3.93 0 0 0 4.22 4.26 8.17 8.17 0 0 0 3.4-.63l.38 1.6a10.06 10.06 0 0 1-4.09.76c-3.78 0-6-2.49-6-6.2s2.18-6.62 5.76-6.62c4 0 5.08 3.52 5.08 5.78a10.2 10.2 0 0 1-.07 1.05zm6.55-1.6c0-1.43-.58-3.64-3.09-3.64-2.26 0-3.25 2.09-3.43 3.64zM656.08 377.7l2.41 6.91a29.62 29.62 0 0 1 1 3.15h.08c.28-1 .64-2 1-3.15l2.43-6.91h2.33L660.5 390h-2.13l-4.67-12.3zM668.42 384.26a3.93 3.93 0 0 0 4.22 4.26 8.17 8.17 0 0 0 3.4-.63l.38 1.6a10.06 10.06 0 0 1-4.09.76c-3.78 0-6-2.49-6-6.2s2.18-6.62 5.76-6.62c4 0 5.08 3.52 5.08 5.78a7.61 7.61 0 0 1-.08 1.05zm6.55-1.6c0-1.43-.58-3.64-3.09-3.64-2.26 0-3.25 2.09-3.43 3.64zM679.9 372h2.23v18h-2.23zM697 383.75c0 4.54-3.15 6.52-6.12 6.52-3.33 0-5.89-2.43-5.89-6.32 0-4.11 2.69-6.52 6.09-6.52S697 380 697 383.75zm-9.75.12c0 2.7 1.55 4.73 3.73 4.73s3.73-2 3.73-4.78c0-2.08-1-4.72-3.68-4.72s-3.77 2.44-3.77 4.77zM699.83 381.72c0-1.58-.05-2.85-.1-4h2l.1 2.11a4.84 4.84 0 0 1 4.37-2.38c3 0 5.21 2.51 5.21 6.24 0 4.42-2.7 6.6-5.59 6.6a4.3 4.3 0 0 1-3.78-1.93H702V395h-2.21zM702 385a5.18 5.18 0 0 0 .1.92 3.43 3.43 0 0 0 3.35 2.61c2.36 0 3.73-1.93 3.73-4.75 0-2.46-1.29-4.57-3.65-4.57a3.56 3.56 0 0 0-3.38 2.77 3.47 3.47 0 0 0-.15.91zM714.27 381c0-1.27 0-2.31-.1-3.33h2l.1 2h.07a4.24 4.24 0 0 1 3.86-2.26 3.62 3.62 0 0 1 3.48 2.46h.05a5.09 5.09 0 0 1 1.37-1.6 4.2 4.2 0 0 1 2.72-.86c1.63 0 4 1.06 4 5.33V390h-2.19v-7c0-2.36-.86-3.79-2.66-3.79a2.89 2.89 0 0 0-2.64 2 3.81 3.81 0 0 0-.18 1.12V390H722v-7.36c0-1.95-.87-3.38-2.57-3.38a3.07 3.07 0 0 0-2.77 2.24 3.23 3.23 0 0 0-.17 1.09V390h-2.19zM736.69 384.26a3.93 3.93 0 0 0 4.22 4.26 8.17 8.17 0 0 0 3.4-.63l.38 1.6a10.06 10.06 0 0 1-4.09.76c-3.78 0-6-2.49-6-6.2s2.18-6.62 5.76-6.62c4 0 5.08 3.52 5.08 5.78a7.61 7.61 0 0 1-.08 1.05zm6.55-1.6c0-1.43-.58-3.64-3.1-3.64-2.26 0-3.25 2.09-3.42 3.64zM748.17 381c0-1.27 0-2.31-.11-3.33h2l.12 2h.05a4.52 4.52 0 0 1 4.07-2.31c1.7 0 4.34 1 4.34 5.23V390h-2.24v-7.08c0-2-.73-3.63-2.84-3.63a3.18 3.18 0 0 0-3 2.28 3.26 3.26 0 0 0-.15 1V390h-2.23zM764.85 374.18v3.52h3.2v1.71h-3.2V386c0 1.53.43 2.39 1.67 2.39a5.29 5.29 0 0 0 1.3-.15l.1 1.67a5.41 5.41 0 0 1-2 .31 3.09 3.09 0 0 1-2.41-.94 4.52 4.52 0 0 1-.87-3.2v-6.7h-1.9v-1.68h1.9v-2.94z"/><circle class="cls-6" cx="455.4" cy="217" r="4.5"/><circle class="cls-6" cx="455.77" cy="272" r="4.5"/><circle class="cls-6" cx="456.14" cy="327" r="4.5"/><circle class="cls-6" cx="456.51" cy="382" r="4.5"/><path class="cls-5" d="M904.7 206.94a32.23 32.23 0 0 1 4.7-.35c3.17 0 5.43.73 6.93 2.13a7.87 7.87 0 0 1 2.41 6.15 9.06 9.06 0 0 1-2.46 6.65c-1.6 1.6-4.24 2.46-7.56 2.46a37.6 37.6 0 0 1-4-.2zm2.21 15.14a14.28 14.28 0 0 0 2.24.12c4.72 0 7.28-2.64 7.28-7.26 0-4-2.26-6.6-6.93-6.6a12.38 12.38 0 0 0-2.59.23zM932.76 217.58c0 4.55-3.15 6.53-6.12 6.53-3.33 0-5.89-2.44-5.89-6.32 0-4.12 2.69-6.53 6.09-6.53s5.92 2.56 5.92 6.32zm-9.75.13c0 2.69 1.55 4.72 3.73 4.72s3.73-2 3.73-4.77c0-2.08-1-4.72-3.68-4.72s-3.79 2.43-3.79 4.77zM944.34 223.37a8.18 8.18 0 0 1-3.53.71c-3.71 0-6.12-2.51-6.12-6.27a6.24 6.24 0 0 1 6.6-6.52 7.57 7.57 0 0 1 3.1.63l-.51 1.73a5.1 5.1 0 0 0-2.59-.59c-2.82 0-4.34 2.08-4.34 4.65 0 2.84 1.82 4.59 4.26 4.59a6.47 6.47 0 0 0 2.74-.6zM957.23 220.48c0 1.27 0 2.38.1 3.35h-2l-.12-2h-.05a4.64 4.64 0 0 1-4.07 2.29c-1.93 0-4.24-1.07-4.24-5.39v-7.18h2.24v6.8c0 2.34.71 3.91 2.74 3.91a3.24 3.24 0 0 0 2.95-2 3.4 3.4 0 0 0 .2-1.14v-7.54h2.23zM960.94 214.87c0-1.27 0-2.32-.1-3.33h1.95l.1 2h.11a4.24 4.24 0 0 1 3.86-2.26 3.64 3.64 0 0 1 3.48 2.46h.05a5.08 5.08 0 0 1 1.37-1.6 4.2 4.2 0 0 1 2.72-.86c1.62 0 4 1.07 4 5.33v7.24h-2.18v-7c0-2.36-.86-3.78-2.67-3.78a2.89 2.89 0 0 0-2.64 2 3.72 3.72 0 0 0-.17 1.12v7.59h-2.19v-7.37c0-2-.86-3.37-2.56-3.37a3.06 3.06 0 0 0-2.77 2.23 3 3 0 0 0-.18 1.09v7.42h-2.18zM983.36 218.09c0 3 2 4.27 4.21 4.27a8 8 0 0 0 3.4-.64l.38 1.6a9.83 9.83 0 0 1-4.08.76c-3.79 0-6-2.49-6-6.19s2.19-6.63 5.77-6.63c4 0 5.08 3.53 5.08 5.79a9.4 9.4 0 0 1-.08 1zm6.55-1.6c0-1.42-.59-3.63-3.1-3.63-2.26 0-3.25 2.08-3.43 3.63zM994.83 214.87c0-1.27 0-2.32-.1-3.33h2l.13 2a4.51 4.51 0 0 1 4.06-2.31c1.7 0 4.34 1 4.34 5.23v7.34h-2.23v-7.09c0-2-.74-3.63-2.84-3.63a3.17 3.17 0 0 0-3 2.29 3.26 3.26 0 0 0-.15 1v7.39h-2.24zM1011.51 208v3.53h3.2v1.7h-3.2v6.63c0 1.52.43 2.38 1.68 2.38a4.81 4.81 0 0 0 1.29-.15l.11 1.68a5.5 5.5 0 0 1-2 .3 3.1 3.1 0 0 1-2.41-.94 4.57 4.57 0 0 1-.86-3.2v-6.7h-1.9v-1.7h1.9v-2.95zM1022.61 214.87c0-1.27 0-2.32-.1-3.33h2l.1 2h.08a4.23 4.23 0 0 1 3.86-2.26 3.65 3.65 0 0 1 3.48 2.46 5.08 5.08 0 0 1 1.37-1.6 4.17 4.17 0 0 1 2.71-.86c1.63 0 4 1.07 4 5.33v7.24H1038v-7c0-2.36-.87-3.78-2.67-3.78a2.89 2.89 0 0 0-2.64 2 3.7 3.7 0 0 0-.18 1.12v7.59h-2.18v-7.37c0-2-.86-3.37-2.56-3.37a3.05 3.05 0 0 0-2.77 2.23 3 3 0 0 0-.18 1.09v7.42h-2.18zM1050.59 223.83l-.18-1.55h-.08a4.58 4.58 0 0 1-3.76 1.83 3.5 3.5 0 0 1-3.75-3.53c0-3 2.64-4.6 7.38-4.57v-.26a2.53 2.53 0 0 0-2.79-2.84 6.23 6.23 0 0 0-3.2.91l-.51-1.47a7.65 7.65 0 0 1 4-1.09c3.76 0 4.67 2.56 4.67 5v4.59a16.55 16.55 0 0 0 .21 3zm-.33-6.27c-2.44-.05-5.21.38-5.21 2.76a2 2 0 0 0 2.11 2.14 3.06 3.06 0 0 0 3-2.06 2.53 2.53 0 0 0 .13-.71zM1056 214.87c0-1.27 0-2.32-.1-3.33h2l.12 2a4.53 4.53 0 0 1 4.07-2.31c1.7 0 4.34 1 4.34 5.23v7.34h-2.24v-7.09c0-2-.73-3.63-2.84-3.63a3.19 3.19 0 0 0-3 2.29 3.26 3.26 0 0 0-.15 1v7.39h-2.2zM1076.91 223.83l-.17-1.55h-.08a4.61 4.61 0 0 1-3.76 1.83 3.5 3.5 0 0 1-3.76-3.53c0-3 2.64-4.6 7.39-4.57v-.26a2.53 2.53 0 0 0-2.79-2.84 6.2 6.2 0 0 0-3.2.91l-.51-1.47a7.65 7.65 0 0 1 4-1.09c3.76 0 4.67 2.56 4.67 5v4.59a17.62 17.62 0 0 0 .2 3zm-.33-6.27c-2.43-.05-5.2.38-5.2 2.76a2 2 0 0 0 2.11 2.14 3.06 3.06 0 0 0 3-2.06 2.52 2.52 0 0 0 .12-.71zM1092.93 211.54c0 .89-.1 1.88-.1 3.38v7.13c0 2.82-.56 4.55-1.75 5.61a6.49 6.49 0 0 1-4.47 1.47 8 8 0 0 1-4.09-1l.56-1.7a6.9 6.9 0 0 0 3.61 1c2.28 0 4-1.19 4-4.29v-1.37h-.05a4.4 4.4 0 0 1-3.91 2.06c-3 0-5.23-2.59-5.23-6 0-4.17 2.71-6.53 5.53-6.53a4.11 4.11 0 0 1 3.84 2.13h.05l.1-1.85zm-2.31 4.85a3.29 3.29 0 0 0-.12-1 3.23 3.23 0 0 0-3.13-2.36c-2.13 0-3.65 1.8-3.65 4.65 0 2.41 1.22 4.42 3.63 4.42a3.28 3.28 0 0 0 3.1-2.29 4.08 4.08 0 0 0 .17-1.19zM1097.78 218.09c0 3 2 4.27 4.22 4.27a8 8 0 0 0 3.4-.64l.38 1.6a9.89 9.89 0 0 1-4.09.76c-3.78 0-6-2.49-6-6.19s2.18-6.63 5.76-6.63c4 0 5.08 3.53 5.08 5.79a10 10 0 0 1-.07 1zm6.55-1.6c0-1.42-.58-3.63-3.09-3.63-2.26 0-3.25 2.08-3.43 3.63zM1109.26 214.87c0-1.27 0-2.32-.1-3.33h1.95l.1 2h.08a4.23 4.23 0 0 1 3.86-2.26 3.65 3.65 0 0 1 3.48 2.46 5.08 5.08 0 0 1 1.37-1.6 4.2 4.2 0 0 1 2.72-.86c1.62 0 4 1.07 4 5.33v7.24h-2.18v-7c0-2.36-.86-3.78-2.67-3.78a2.89 2.89 0 0 0-2.64 2 3.72 3.72 0 0 0-.17 1.12v7.59H1117v-7.37c0-2-.86-3.37-2.56-3.37a3.05 3.05 0 0 0-2.77 2.23 3 3 0 0 0-.18 1.09v7.42h-2.18zM1131.68 218.09c0 3 2 4.27 4.21 4.27a8 8 0 0 0 3.4-.64l.38 1.6a9.83 9.83 0 0 1-4.08.76c-3.79 0-6-2.49-6-6.19s2.19-6.63 5.77-6.63c4 0 5.08 3.53 5.08 5.79a9.4 9.4 0 0 1-.08 1zm6.55-1.6c0-1.42-.59-3.63-3.1-3.63-2.26 0-3.25 2.08-3.43 3.63zM1143.15 214.87c0-1.27 0-2.32-.1-3.33h2l.13 2a4.51 4.51 0 0 1 4.06-2.31c1.7 0 4.34 1 4.34 5.23v7.34h-2.23v-7.09c0-2-.74-3.63-2.85-3.63a3.17 3.17 0 0 0-3 2.29 3.26 3.26 0 0 0-.15 1v7.39h-2.24zM1159.83 208v3.53h3.2v1.7h-3.2v6.63c0 1.52.43 2.38 1.68 2.38a4.81 4.81 0 0 0 1.29-.15l.1 1.68a5.4 5.4 0 0 1-2 .3 3.1 3.1 0 0 1-2.41-.94 4.57 4.57 0 0 1-.86-3.2v-6.7h-1.91v-1.7h1.91v-2.95zM916.66 278.66a11.08 11.08 0 0 1-4.52.81c-4.82 0-8.45-3.05-8.45-8.66 0-5.35 3.63-9 8.94-9a9.08 9.08 0 0 1 4.06.77l-.54 1.8a8 8 0 0 0-3.45-.71c-4 0-6.68 2.56-6.68 7.06 0 4.19 2.42 6.88 6.58 6.88a8.88 8.88 0 0 0 3.61-.71zM919.35 261.19h2.24v7.67a4.05 4.05 0 0 1 1.6-1.58 4.58 4.58 0 0 1 2.28-.63c1.65 0 4.29 1 4.29 5.25v7.32h-2.23v-7.06c0-2-.74-3.66-2.85-3.66a3.21 3.21 0 0 0-3 2.24 2.61 2.61 0 0 0-.15 1.06v7.42h-2.24zM940.25 279.22l-.18-1.55H940a4.57 4.57 0 0 1-3.75 1.83 3.51 3.51 0 0 1-3.76-3.53c0-3 2.64-4.6 7.39-4.57v-.26a2.54 2.54 0 0 0-2.8-2.84 6.13 6.13 0 0 0-3.2.91l-.5-1.47a7.58 7.58 0 0 1 4-1.09c3.76 0 4.68 2.56 4.68 5v4.59a17.62 17.62 0 0 0 .2 3zm-.33-6.27c-2.44-.06-5.21.38-5.21 2.76a2 2 0 0 0 2.11 2.14 3.06 3.06 0 0 0 3-2.06 2.22 2.22 0 0 0 .13-.71zM948.27 263.4v3.53h3.2v1.7h-3.2v6.63c0 1.52.43 2.38 1.68 2.38a4.81 4.81 0 0 0 1.29-.15l.1 1.68a5.67 5.67 0 0 1-2 .3 3.09 3.09 0 0 1-2.41-.94 4.53 4.53 0 0 1-.86-3.2v-6.7h-1.91v-1.7h1.91V264zM953.88 279.22c0-.84.1-2.09.1-3.18v-14.85h2.21v7.72a4.58 4.58 0 0 1 4.19-2.26c3.05 0 5.21 2.54 5.18 6.27 0 4.39-2.77 6.58-5.51 6.58a4.37 4.37 0 0 1-4.11-2.31h-.08l-.1 2zm2.31-4.93a4.17 4.17 0 0 0 .1.81 3.45 3.45 0 0 0 3.35 2.62c2.34 0 3.74-1.91 3.74-4.72 0-2.47-1.27-4.57-3.66-4.57a3.56 3.56 0 0 0-3.4 2.74 4.41 4.41 0 0 0-.13.91zM979.55 273c0 4.55-3.15 6.53-6.12 6.53-3.33 0-5.89-2.44-5.89-6.33 0-4.11 2.69-6.52 6.09-6.52s5.92 2.53 5.92 6.32zm-9.75.13c0 2.69 1.55 4.72 3.73 4.72s3.73-2 3.73-4.77c0-2.09-1-4.73-3.68-4.73s-3.78 2.41-3.78 4.75zM985.06 263.4v3.53h3.2v1.7h-3.2v6.63c0 1.52.43 2.38 1.67 2.38a4.84 4.84 0 0 0 1.3-.15l.1 1.68a5.67 5.67 0 0 1-2 .3 3.09 3.09 0 0 1-2.41-.94 4.52 4.52 0 0 1-.87-3.2v-6.7H981v-1.7h1.9V264zM1006.76 261.19V276c0 1.09 0 2.34.11 3.18h-2l-.1-2.14a4.55 4.55 0 0 1-4.19 2.42c-3 0-5.26-2.52-5.26-6.25 0-4.09 2.52-6.6 5.51-6.6a4.12 4.12 0 0 1 3.71 1.88v-7.34zm-2.23 10.74a4.29 4.29 0 0 0-.1-.94 3.29 3.29 0 0 0-3.23-2.59c-2.31 0-3.68 2-3.68 4.75 0 2.49 1.22 4.54 3.63 4.54a3.37 3.37 0 0 0 3.28-2.66 4.25 4.25 0 0 0 .1-1zM1017.27 279.22l-.17-1.55h-.1a4.59 4.59 0 0 1-3.76 1.83 3.5 3.5 0 0 1-3.75-3.53c0-3 2.64-4.6 7.38-4.57v-.26a2.53 2.53 0 0 0-2.79-2.84 6.11 6.11 0 0 0-3.2.91l-.51-1.47a7.65 7.65 0 0 1 4-1.09c3.76 0 4.67 2.56 4.67 5v4.59a16.55 16.55 0 0 0 .21 3zm-.33-6.27c-2.43-.06-5.2.38-5.2 2.76a2 2 0 0 0 2.11 2.14 3.06 3.06 0 0 0 3-2.06 2.52 2.52 0 0 0 .12-.71zM1025.3 263.4v3.53h3.2v1.7h-3.2v6.63c0 1.52.43 2.38 1.67 2.38a4.84 4.84 0 0 0 1.3-.15l.1 1.68a5.67 5.67 0 0 1-2 .3 3.09 3.09 0 0 1-2.41-.94 4.52 4.52 0 0 1-.87-3.2v-6.7h-1.9v-1.7h1.9V264zM1037.81 279.22l-.17-1.55h-.08a4.61 4.61 0 0 1-3.76 1.83 3.51 3.51 0 0 1-3.8-3.5c0-3 2.64-4.6 7.39-4.57v-.26a2.53 2.53 0 0 0-2.79-2.84 6.11 6.11 0 0 0-3.2.91l-.51-1.47a7.65 7.65 0 0 1 4-1.09c3.76 0 4.67 2.56 4.67 5v4.59a16.55 16.55 0 0 0 .21 3zm-.33-6.27c-2.43-.06-5.2.38-5.2 2.76a2 2 0 0 0 2.11 2.14 3.06 3.06 0 0 0 3-2.06 2.52 2.52 0 0 0 .12-.71zM1043.14 279.22c.06-.84.11-2.09.11-3.18v-14.85h2.21v7.72a4.57 4.57 0 0 1 4.19-2.26c3 0 5.2 2.54 5.18 6.27 0 4.39-2.77 6.58-5.51 6.58a4.4 4.4 0 0 1-4.12-2.31h-.07l-.11 2zm2.32-4.93a4.17 4.17 0 0 0 .1.81 3.44 3.44 0 0 0 3.35 2.62c2.33 0 3.73-1.91 3.73-4.72 0-2.47-1.27-4.57-3.66-4.57a3.56 3.56 0 0 0-3.4 2.74 4.47 4.47 0 0 0-.12.91zM1064.5 279.22l-.18-1.55h-.08a4.58 4.58 0 0 1-3.76 1.83 3.5 3.5 0 0 1-3.75-3.53c0-3 2.64-4.6 7.39-4.57v-.26a2.54 2.54 0 0 0-2.8-2.84 6.13 6.13 0 0 0-3.2.91l-.5-1.47a7.58 7.58 0 0 1 4-1.09c3.76 0 4.67 2.56 4.67 5v4.59a17.55 17.55 0 0 0 .21 3zm-.33-6.27c-2.44-.06-5.21.38-5.21 2.76a2 2 0 0 0 2.11 2.14 3.06 3.06 0 0 0 3-2.06 2.22 2.22 0 0 0 .13-.71zM1069.62 276.93a5.88 5.88 0 0 0 3 .89c1.62 0 2.39-.81 2.39-1.83s-.64-1.65-2.29-2.26c-2.21-.78-3.25-2-3.25-3.48 0-2 1.6-3.6 4.24-3.6a6.05 6.05 0 0 1 3 .76l-.56 1.63a4.71 4.71 0 0 0-2.51-.72c-1.32 0-2.06.77-2.06 1.68s.74 1.47 2.34 2.08c2.13.81 3.22 1.88 3.22 3.71 0 2.16-1.67 3.68-4.59 3.68a7 7 0 0 1-3.45-.84zM1081.23 273.48c0 3 2 4.26 4.21 4.26a8.14 8.14 0 0 0 3.4-.63l.38 1.6a10 10 0 0 1-4.08.76c-3.79 0-6.05-2.49-6.05-6.19s2.19-6.63 5.77-6.63c4 0 5.08 3.53 5.08 5.79a7.57 7.57 0 0 1-.08 1zm6.55-1.6c0-1.42-.59-3.63-3.1-3.63-2.26 0-3.25 2.08-3.43 3.63zM1108.7 261.19V276c0 1.09 0 2.34.1 3.18h-2l-.1-2.14a4.53 4.53 0 0 1-4.19 2.42c-3 0-5.25-2.52-5.25-6.25 0-4.09 2.51-6.6 5.51-6.6a4.11 4.11 0 0 1 3.7 1.88v-7.34zm-2.24 10.74a3.76 3.76 0 0 0-.1-.94 3.29 3.29 0 0 0-3.22-2.59c-2.31 0-3.68 2-3.68 4.75 0 2.49 1.21 4.54 3.63 4.54a3.35 3.35 0 0 0 3.27-2.66 3.75 3.75 0 0 0 .1-1zM1113.65 273.48c0 3 2 4.26 4.21 4.26a8.14 8.14 0 0 0 3.4-.63l.39 1.6a10.1 10.1 0 0 1-4.09.76c-3.79 0-6-2.49-6-6.19s2.19-6.63 5.77-6.63c4 0 5.08 3.53 5.08 5.79a7.57 7.57 0 0 1-.08 1zm6.55-1.6c0-1.42-.59-3.63-3.1-3.63-2.26 0-3.25 2.08-3.43 3.63zM1124.82 276.93a5.87 5.87 0 0 0 2.94.89c1.63 0 2.39-.81 2.39-1.83s-.63-1.65-2.28-2.26c-2.21-.78-3.25-2-3.25-3.48 0-2 1.6-3.6 4.24-3.6a6.11 6.11 0 0 1 3 .76l-.56 1.63a4.72 4.72 0 0 0-2.52-.72c-1.32 0-2 .77-2 1.68s.73 1.47 2.33 2.08c2.14.81 3.23 1.88 3.23 3.71 0 2.16-1.68 3.68-4.6 3.68a7 7 0 0 1-3.45-.84zM1137.67 263.47a1.39 1.39 0 0 1-2.77 0 1.36 1.36 0 0 1 1.39-1.39 1.33 1.33 0 0 1 1.38 1.39zm-2.49 15.75v-12.29h2.23v12.29zM1151.71 266.93c-.06.89-.11 1.88-.11 3.37v7.14c0 2.82-.55 4.54-1.75 5.61a6.49 6.49 0 0 1-4.47 1.47 7.91 7.91 0 0 1-4.08-1l.55-1.7a7.06 7.06 0 0 0 3.61 1c2.28 0 4-1.19 4-4.29v-1.37h-.05a4.4 4.4 0 0 1-3.91 2.06c-3 0-5.23-2.59-5.23-6 0-4.16 2.72-6.52 5.53-6.52a4.11 4.11 0 0 1 3.84 2.13h.05l.1-1.85zm-2.32 4.85a3.29 3.29 0 0 0-.12-1 3.23 3.23 0 0 0-3.13-2.36c-2.13 0-3.65 1.8-3.65 4.65 0 2.41 1.22 4.41 3.63 4.41a3.27 3.27 0 0 0 3.1-2.28 4.08 4.08 0 0 0 .17-1.19zM1155.16 270.25c0-1.27 0-2.31-.1-3.32h2l.12 2a4.53 4.53 0 0 1 4.07-2.31c1.7 0 4.34 1 4.34 5.23v7.34h-2.24v-7.09c0-2-.73-3.63-2.84-3.63a3.19 3.19 0 0 0-3 2.29 3.26 3.26 0 0 0-.15 1v7.39h-2.23zM919.33 325.87c0 5.89-3.58 9-8 9s-7.69-3.5-7.69-8.68c0-5.43 3.37-9 7.95-9s7.74 3.6 7.74 8.68zm-13.28.28c0 3.66 2 6.93 5.46 6.93S917 329.86 917 326c0-3.4-1.77-7-5.46-7s-5.49 3.39-5.49 7.15zM922.12 326.33c0-1.58 0-2.85-.1-4h2l.11 2.1a4.83 4.83 0 0 1 4.36-2.38c3 0 5.21 2.51 5.21 6.24 0 4.42-2.69 6.6-5.59 6.6a4.31 4.31 0 0 1-3.78-1.93v6.68h-2.21zm2.21 3.27a5.18 5.18 0 0 0 .1.92 3.44 3.44 0 0 0 3.35 2.61c2.36 0 3.73-1.93 3.73-4.75 0-2.46-1.29-4.57-3.65-4.57a3.57 3.57 0 0 0-3.38 2.77 3.47 3.47 0 0 0-.15.92zM939.26 318.79v3.53h3.2V324h-3.2v6.62c0 1.53.43 2.39 1.67 2.39a5.29 5.29 0 0 0 1.3-.15l.1 1.67a5.41 5.41 0 0 1-2 .31 3.09 3.09 0 0 1-2.41-.94 4.52 4.52 0 0 1-.87-3.2V324h-1.9v-1.7h1.9v-2.95zM947.46 318.86a1.39 1.39 0 0 1-2.77 0 1.36 1.36 0 0 1 1.4-1.39 1.33 1.33 0 0 1 1.37 1.39zM945 334.6v-12.28h2.23v12.28zM959.67 334.15a8.33 8.33 0 0 1-3.53.71c-3.71 0-6.12-2.51-6.12-6.27a6.24 6.24 0 0 1 6.6-6.53 7.39 7.39 0 0 1 3.1.64l-.51 1.72a5.23 5.23 0 0 0-2.59-.58c-2.82 0-4.34 2.08-4.34 4.65 0 2.84 1.83 4.59 4.27 4.59a6.38 6.38 0 0 0 2.74-.61zM969.09 334.6l-.18-1.54h-.08a4.56 4.56 0 0 1-3.75 1.82 3.5 3.5 0 0 1-3.76-3.53c0-3 2.64-4.59 7.39-4.57v-.25a2.54 2.54 0 0 0-2.8-2.84 6.13 6.13 0 0 0-3.2.91l-.5-1.47a7.58 7.58 0 0 1 4-1.09c3.76 0 4.68 2.56 4.68 5v4.6a17.41 17.41 0 0 0 .2 2.94zm-.33-6.27c-2.44-.05-5.21.38-5.21 2.77a2 2 0 0 0 2.11 2.13 3.06 3.06 0 0 0 3-2.05 2.27 2.27 0 0 0 .13-.71zM974.52 316.58h2.23v18h-2.23zM994.65 334.15a8.3 8.3 0 0 1-3.53.71c-3.7 0-6.12-2.51-6.12-6.27a6.25 6.25 0 0 1 6.61-6.53 7.34 7.34 0 0 1 3.09.64l-.5 1.72a5.29 5.29 0 0 0-2.59-.58c-2.82 0-4.35 2.08-4.35 4.65 0 2.84 1.83 4.59 4.27 4.59a6.31 6.31 0 0 0 2.74-.61zM997.27 316.58h2.23v7.67a4.19 4.19 0 0 1 1.6-1.58 4.62 4.62 0 0 1 2.29-.63c1.65 0 4.29 1 4.29 5.25v7.31h-2.24v-7.05c0-2-.73-3.66-2.84-3.66a3.22 3.22 0 0 0-3 2.23 2.88 2.88 0 0 0-.15 1.07v7.41h-2.23zM1018.16 334.6l-.18-1.54h-.07a4.6 4.6 0 0 1-3.76 1.82 3.5 3.5 0 0 1-3.76-3.53c0-3 2.64-4.59 7.39-4.57v-.25a2.53 2.53 0 0 0-2.79-2.84 6.11 6.11 0 0 0-3.2.91l-.51-1.47a7.65 7.65 0 0 1 4-1.09c3.76 0 4.67 2.56 4.67 5v4.6a17.41 17.41 0 0 0 .2 2.94zm-.33-6.27c-2.44-.05-5.2.38-5.2 2.77a2 2 0 0 0 2.1 2.13 3.07 3.07 0 0 0 3-2.05 2.58 2.58 0 0 0 .12-.71zM1023.6 326.15c0-1.45 0-2.69-.11-3.83h2l.07 2.41h.11A3.67 3.67 0 0 1 1029 322a2.43 2.43 0 0 1 .63.07v2.11a3.34 3.34 0 0 0-.76-.08 3.13 3.13 0 0 0-3 2.87 5.44 5.44 0 0 0-.11 1v6.55h-2.2zM1038.57 334.6l-.17-1.54h-.08a4.58 4.58 0 0 1-3.76 1.82 3.5 3.5 0 0 1-3.76-3.53c0-3 2.65-4.59 7.39-4.57v-.25a2.53 2.53 0 0 0-2.79-2.84 6.11 6.11 0 0 0-3.2.91l-.51-1.47a7.65 7.65 0 0 1 4-1.09c3.76 0 4.67 2.56 4.67 5v4.6a16.37 16.37 0 0 0 .21 2.94zm-.33-6.27c-2.43-.05-5.2.38-5.2 2.77a2 2 0 0 0 2.11 2.13 3.06 3.06 0 0 0 3-2.05 2.58 2.58 0 0 0 .12-.71zM1052.77 334.15a8.33 8.33 0 0 1-3.53.71c-3.71 0-6.12-2.51-6.12-6.27a6.24 6.24 0 0 1 6.6-6.53 7.39 7.39 0 0 1 3.1.64l-.51 1.72a5.23 5.23 0 0 0-2.59-.58c-2.82 0-4.34 2.08-4.34 4.65 0 2.84 1.83 4.59 4.26 4.59a6.39 6.39 0 0 0 2.75-.61zM1058.4 318.79v3.53h3.2V324h-3.2v6.62c0 1.53.43 2.39 1.68 2.39a5.27 5.27 0 0 0 1.29-.15l.1 1.67a5.37 5.37 0 0 1-2 .31 3.1 3.1 0 0 1-2.41-.94 4.57 4.57 0 0 1-.86-3.2V324h-1.91v-1.7h1.91v-2.95zM1065.21 328.87c0 3 2 4.26 4.21 4.26a8.14 8.14 0 0 0 3.4-.63l.38 1.6a10 10 0 0 1-4.08.76c-3.79 0-6-2.49-6-6.2s2.19-6.62 5.77-6.62c4 0 5.08 3.53 5.08 5.79a9.62 9.62 0 0 1-.08 1zm6.55-1.6c0-1.42-.59-3.63-3.1-3.63-2.26 0-3.25 2.08-3.43 3.63zM1076.68 326.15c0-1.45 0-2.69-.1-3.83h2l.07 2.41h.1a3.69 3.69 0 0 1 3.41-2.69 2.43 2.43 0 0 1 .63.07v2.11a3.41 3.41 0 0 0-.76-.08 3.14 3.14 0 0 0-3 2.87 6.44 6.44 0 0 0-.1 1v6.55h-2.21zM904.63 351.54c0-1.45 0-2.69-.1-3.84h2l.08 2.42h.1a3.68 3.68 0 0 1 3.4-2.69 2.56 2.56 0 0 1 .64.07v2.11a3.44 3.44 0 0 0-.77-.08 3.13 3.13 0 0 0-3 2.87 6.44 6.44 0 0 0-.1 1v6.6h-2.21zM913.92 354.26c.05 3 2 4.26 4.21 4.26a8.22 8.22 0 0 0 3.41-.63l.38 1.6a10.1 10.1 0 0 1-4.09.76c-3.78 0-6-2.49-6-6.2s2.18-6.62 5.76-6.62c4 0 5.08 3.52 5.08 5.78a7.61 7.61 0 0 1-.08 1.05zm6.55-1.6c0-1.43-.58-3.64-3.1-3.64-2.26 0-3.25 2.09-3.43 3.64zM934.15 359.54a8.24 8.24 0 0 1-3.52.71c-3.71 0-6.12-2.52-6.12-6.27a6.24 6.24 0 0 1 6.6-6.53 7.39 7.39 0 0 1 3.1.64l-.51 1.72a5.26 5.26 0 0 0-2.59-.58c-2.82 0-4.34 2.08-4.34 4.64 0 2.85 1.82 4.6 4.26 4.6a6.31 6.31 0 0 0 2.74-.61zM947.74 353.75c0 4.54-3.15 6.52-6.12 6.52-3.33 0-5.89-2.43-5.89-6.32 0-4.11 2.69-6.52 6.09-6.52s5.92 2.57 5.92 6.32zm-9.75.12c0 2.7 1.55 4.73 3.73 4.73s3.73-2 3.73-4.78c0-2.08-1-4.72-3.68-4.72s-3.77 2.44-3.77 4.77zM961.14 347.7c0 .89-.1 1.88-.1 3.38v7.14c0 2.81-.56 4.54-1.75 5.61a6.54 6.54 0 0 1-4.47 1.47 8 8 0 0 1-4.09-1l.56-1.7a6.9 6.9 0 0 0 3.61 1c2.28 0 4-1.2 4-4.29v-1.37h-.05a4.4 4.4 0 0 1-3.91 2.05c-3 0-5.23-2.59-5.23-6 0-4.16 2.71-6.52 5.53-6.52a4.1 4.1 0 0 1 3.84 2.13h.05l.1-1.86zm-2.31 4.85a3.18 3.18 0 0 0-.12-1 3.22 3.22 0 0 0-3.13-2.36c-2.13 0-3.65 1.8-3.65 4.64 0 2.42 1.21 4.42 3.63 4.42a3.25 3.25 0 0 0 3.09-2.28 3.84 3.84 0 0 0 .18-1.2zM964.6 351c0-1.27 0-2.31-.11-3.33h2l.13 2a4.51 4.51 0 0 1 4.06-2.31c1.71 0 4.35 1 4.35 5.23V360h-2.24v-7.08c0-2-.73-3.63-2.84-3.63a3.18 3.18 0 0 0-3 2.28 3.26 3.26 0 0 0-.15 1V360h-2.2zM981.17 344.25a1.31 1.31 0 0 1-1.42 1.37 1.33 1.33 0 0 1-1.34-1.37 1.36 1.36 0 0 1 1.39-1.4 1.33 1.33 0 0 1 1.37 1.4zM978.69 360v-12.3h2.23V360zM987.32 344.18v3.52h3.2v1.71h-3.2V356c0 1.53.43 2.39 1.67 2.39a5.29 5.29 0 0 0 1.3-.15l.1 1.67a5.41 5.41 0 0 1-2 .31 3.09 3.09 0 0 1-2.41-.94 4.52 4.52 0 0 1-.87-3.2v-6.7h-1.9v-1.68h1.9v-2.94zM995.52 344.25a1.39 1.39 0 0 1-2.77 0 1.36 1.36 0 0 1 1.4-1.4 1.33 1.33 0 0 1 1.37 1.4zM993 360v-12.3h2.23V360zM1010.09 353.75c0 4.54-3.15 6.52-6.12 6.52-3.32 0-5.89-2.43-5.89-6.32 0-4.11 2.69-6.52 6.1-6.52s5.91 2.57 5.91 6.32zm-9.75.12c0 2.7 1.55 4.73 3.73 4.73s3.74-2 3.74-4.78c0-2.08-1-4.72-3.69-4.72s-3.78 2.44-3.78 4.77zM1012.91 351c0-1.27 0-2.31-.1-3.33h2l.12 2h.06a4.5 4.5 0 0 1 4.06-2.31c1.7 0 4.34 1 4.34 5.23V360h-2.23v-7.08c0-2-.74-3.63-2.85-3.63a3.17 3.17 0 0 0-3 2.28 3 3 0 0 0-.16 1V360h-2.23zM907.47 410l-1.78 5.38h-2.28l5.81-17.11h2.67l5.84 17.11h-2.36l-1.83-5.38zm5.61-1.73l-1.67-4.92c-.38-1.12-.64-2.14-.89-3.13-.26 1-.54 2.06-.87 3.1l-1.67 4.95zM920.09 406.93c0-1.45 0-2.69-.1-3.84h2l.08 2.42h.1a3.69 3.69 0 0 1 3.4-2.7 2.49 2.49 0 0 1 .64.08V405a3.41 3.41 0 0 0-.76-.08 3.14 3.14 0 0 0-3 2.87 6.44 6.44 0 0 0-.1 1v6.55h-2.21zM936.9 414.93a8.33 8.33 0 0 1-3.53.71c-3.71 0-6.12-2.52-6.12-6.27a6.24 6.24 0 0 1 6.6-6.53 7.57 7.57 0 0 1 3.1.63l-.51 1.73a5.23 5.23 0 0 0-2.59-.58c-2.82 0-4.34 2.08-4.34 4.64 0 2.85 1.83 4.6 4.26 4.6a6.39 6.39 0 0 0 2.75-.61zM939.51 397.36h2.24V405a4.1 4.1 0 0 1 1.6-1.57 4.59 4.59 0 0 1 2.28-.64c1.65 0 4.29 1 4.29 5.26v7.31h-2.23v-7.06c0-2-.74-3.65-2.85-3.65a3.2 3.2 0 0 0-3 2.23 2.69 2.69 0 0 0-.15 1.07v7.41h-2.24zM956.09 399.64a1.31 1.31 0 0 1-1.42 1.37 1.33 1.33 0 0 1-1.35-1.37 1.37 1.37 0 0 1 1.4-1.4 1.33 1.33 0 0 1 1.37 1.4zm-2.49 15.74v-12.29h2.24v12.29zM960.41 403.09l2.41 6.91c.4 1.12.73 2.13 1 3.15h.07c.28-1 .64-2 1-3.15l2.38-6.91h2.34l-4.83 12.29h-2.13L958 403.09zM978.46 415.38l-.18-1.55h-.08a4.54 4.54 0 0 1-3.75 1.83 3.5 3.5 0 0 1-3.76-3.53c0-3 2.64-4.59 7.39-4.57v-.25a2.54 2.54 0 0 0-2.8-2.85 6.08 6.08 0 0 0-3.19.92l-.51-1.47a7.61 7.61 0 0 1 4-1.1c3.76 0 4.68 2.57 4.68 5v4.6a17.57 17.57 0 0 0 .2 2.94zm-.33-6.27c-2.44-.05-5.21.38-5.21 2.77A2 2 0 0 0 975 414a3 3 0 0 0 3-2.05 2.28 2.28 0 0 0 .13-.72zM983.89 397.36h2.23v18h-2.23zM1002.07 415.38l-.18-1.55h-.08a4.54 4.54 0 0 1-3.75 1.83 3.5 3.5 0 0 1-3.76-3.53c0-3 2.64-4.59 7.39-4.57v-.25a2.54 2.54 0 0 0-2.8-2.85 6.14 6.14 0 0 0-3.2.92l-.5-1.47a7.61 7.61 0 0 1 4-1.1c3.76 0 4.68 2.57 4.68 5v4.6a17.57 17.57 0 0 0 .2 2.94zm-.33-6.27c-2.44-.05-5.21.38-5.21 2.77a2 2 0 0 0 2.11 2.13 3 3 0 0 0 3-2.05 2.28 2.28 0 0 0 .13-.72zM1007.5 406.42c0-1.27 0-2.31-.1-3.33h2l.13 2a4.52 4.52 0 0 1 4.06-2.32c1.7 0 4.34 1 4.34 5.23v7.34h-2.23v-7.04c0-2-.74-3.63-2.85-3.63a3.17 3.17 0 0 0-3 2.28 3.26 3.26 0 0 0-.15 1v7.39h-2.24zM1032.2 397.36v14.85c0 1.09 0 2.33.11 3.17h-2l-.1-2.13a4.56 4.56 0 0 1-4.19 2.41c-3 0-5.26-2.51-5.26-6.24 0-4.09 2.52-6.61 5.51-6.61a4.12 4.12 0 0 1 3.71 1.88v-7.33zm-2.2 10.74a4.29 4.29 0 0 0-.1-.94 3.28 3.28 0 0 0-3.23-2.59c-2.31 0-3.68 2-3.68 4.74 0 2.49 1.22 4.55 3.63 4.55a3.36 3.36 0 0 0 3.28-2.67 4.16 4.16 0 0 0 .1-1zM1043.78 399.64a1.31 1.31 0 0 1-1.42 1.37 1.33 1.33 0 0 1-1.35-1.37 1.37 1.37 0 0 1 1.4-1.4 1.33 1.33 0 0 1 1.37 1.4zm-2.49 15.74v-12.29h2.24v12.29zM1047.23 406.42c0-1.27 0-2.31-.1-3.33h2l.13 2a4.52 4.52 0 0 1 4.06-2.32c1.7 0 4.34 1 4.34 5.23v7.34h-2.23v-7.04c0-2-.74-3.63-2.84-3.63a3.17 3.17 0 0 0-3 2.28 3.26 3.26 0 0 0-.15 1v7.39h-2.24zM1063.91 399.56v3.53h3.2v1.7h-3.2v6.63c0 1.53.44 2.39 1.68 2.39a5.36 5.36 0 0 0 1.3-.15l.1 1.67a5.45 5.45 0 0 1-2 .31 3.12 3.12 0 0 1-2.42-.94 4.57 4.57 0 0 1-.86-3.2v-6.71h-1.9v-1.7h1.9v-2.94zM1070.72 409.64c0 3 2 4.27 4.21 4.27a8.22 8.22 0 0 0 3.41-.63l.38 1.6a10.1 10.1 0 0 1-4.09.76c-3.78 0-6-2.49-6-6.2s2.18-6.63 5.76-6.63c4 0 5.08 3.53 5.08 5.79a7.3 7.3 0 0 1-.08 1zm6.55-1.6c0-1.42-.59-3.63-3.1-3.63-2.26 0-3.25 2.09-3.43 3.63zM1082.19 397.36h2.24v18h-2.24zM1088.18 397.36h2.24v18h-2.24zM1096.66 399.64a1.31 1.31 0 0 1-1.42 1.37 1.33 1.33 0 0 1-1.34-1.37 1.36 1.36 0 0 1 1.39-1.4 1.33 1.33 0 0 1 1.37 1.4zm-2.48 15.74v-12.29h2.23v12.29zM1110.7 403.09c0 .89-.1 1.88-.1 3.38v7.14c0 2.81-.56 4.54-1.75 5.61a6.54 6.54 0 0 1-4.47 1.47 8 8 0 0 1-4.09-1l.56-1.7a6.93 6.93 0 0 0 3.61 1c2.28 0 4-1.2 4-4.29v-1.37h-.05a4.4 4.4 0 0 1-3.91 2.05c-3 0-5.23-2.59-5.23-6 0-4.16 2.71-6.53 5.53-6.53a4.09 4.09 0 0 1 3.84 2.14h.05l.1-1.86zm-2.31 4.85a3.18 3.18 0 0 0-.12-1 3.22 3.22 0 0 0-3.13-2.36c-2.13 0-3.65 1.8-3.65 4.64 0 2.42 1.22 4.42 3.63 4.42a3.27 3.27 0 0 0 3.1-2.28 4.19 4.19 0 0 0 .17-1.2zM1115.55 409.64c0 3 2 4.27 4.22 4.27a8.17 8.17 0 0 0 3.4-.63l.38 1.6a10.06 10.06 0 0 1-4.09.76c-3.78 0-6-2.49-6-6.2s2.18-6.63 5.76-6.63c4 0 5.08 3.53 5.08 5.79a9.75 9.75 0 0 1-.07 1zm6.55-1.6c0-1.42-.58-3.63-3.09-3.63-2.26 0-3.25 2.09-3.43 3.63zM1127 406.42c0-1.27 0-2.31-.1-3.33h2l.12 2h.06a4.51 4.51 0 0 1 4.06-2.32c1.7 0 4.34 1 4.34 5.23v7.34h-2.23v-7.04c0-2-.74-3.63-2.85-3.63a3.17 3.17 0 0 0-3 2.28 3 3 0 0 0-.16 1v7.39H1127zM1143.71 399.56v3.53h3.2v1.7h-3.2v6.63c0 1.53.43 2.39 1.68 2.39a5.27 5.27 0 0 0 1.29-.15l.1 1.67a5.41 5.41 0 0 1-2 .31 3.09 3.09 0 0 1-2.41-.94 4.53 4.53 0 0 1-.86-3.2v-6.71h-1.91v-1.7h1.91v-2.94zM904.32 438.49a5.88 5.88 0 0 0 2.95.88c1.62 0 2.38-.81 2.38-1.82s-.63-1.65-2.28-2.26c-2.21-.79-3.25-2-3.25-3.48 0-2 1.6-3.61 4.24-3.61a6.19 6.19 0 0 1 3 .76l-.56 1.63a4.72 4.72 0 0 0-2.51-.71c-1.32 0-2.06.76-2.06 1.67s.74 1.48 2.34 2.09c2.13.81 3.22 1.87 3.22 3.7 0 2.16-1.67 3.68-4.59 3.68a7.13 7.13 0 0 1-3.46-.83zM915.93 435c.05 3 2 4.27 4.21 4.27a8 8 0 0 0 3.4-.64l.38 1.6a9.83 9.83 0 0 1-4.08.76c-3.79 0-6.05-2.48-6.05-6.19s2.19-6.63 5.77-6.63c4 0 5.07 3.53 5.07 5.79a10 10 0 0 1-.07 1zm6.55-1.6c0-1.42-.59-3.63-3.1-3.63-2.26 0-3.25 2.08-3.43 3.63zM934.21 440.77l-.18-1.55H934a4.55 4.55 0 0 1-3.76 1.83 3.5 3.5 0 0 1-3.75-3.53c0-3 2.64-4.6 7.38-4.57v-.25a2.53 2.53 0 0 0-2.79-2.85 6.14 6.14 0 0 0-3.2.92l-.51-1.48a7.65 7.65 0 0 1 4-1.09c3.76 0 4.67 2.57 4.67 5v4.6a16.51 16.51 0 0 0 .21 2.94zm-.33-6.27c-2.44-.05-5.21.38-5.21 2.77a2 2 0 0 0 2.11 2.13 3.06 3.06 0 0 0 3-2.06 2.53 2.53 0 0 0 .13-.71zM939.64 432.32c0-1.45 0-2.7-.1-3.84h2l.08 2.41h.1a3.68 3.68 0 0 1 3.4-2.69 2.49 2.49 0 0 1 .64.08v2.11a2.94 2.94 0 0 0-.77-.08 3.13 3.13 0 0 0-3 2.87 6.33 6.33 0 0 0-.1 1v6.55h-2.21zM956.45 440.31a8.18 8.18 0 0 1-3.53.71c-3.71 0-6.12-2.51-6.12-6.27a6.24 6.24 0 0 1 6.6-6.52 7.57 7.57 0 0 1 3.1.63l-.51 1.73a5.1 5.1 0 0 0-2.59-.59c-2.82 0-4.34 2.09-4.34 4.65 0 2.85 1.83 4.6 4.26 4.6a6.31 6.31 0 0 0 2.74-.61zM959.06 422.74h2.23v7.67h.06a4.14 4.14 0 0 1 1.59-1.57 4.62 4.62 0 0 1 2.29-.64c1.65 0 4.29 1 4.29 5.26v7.31h-2.23v-7.06c0-2-.74-3.65-2.85-3.65a3.2 3.2 0 0 0-3 2.23 2.62 2.62 0 0 0-.16 1.07v7.41h-2.23z"/><circle class="cls-6" cx="869.4" cy="217" r="4.5"/><circle class="cls-6" cx="869.77" cy="272" r="4.5"/><circle class="cls-6" cx="870.14" cy="327" r="4.5"/><circle class="cls-6" cx="870.51" cy="407" r="4.5"/><path class="cls-5" d="M105 113.73v5.74h3.65v3H86.37v-3h3.36v-5.78h-15c-3.52 0-5.65-2.12-5.65-5.62v-32.7a5.16 5.16 0 0 1 5.54-5.51h3.3c1.08-3.33 3.2-5.25 6.81-4.86 2.84.28 4.53 2.06 5.37 4.89h30.21c3.58 0 5.68 2.1 5.68 5.68v32.64a5.18 5.18 0 0 1-5.52 5.55H105zM78.09 72.91h-3.26c-2 0-2.75.75-2.75 2.77v32c0 2.29.68 3 3 3h45.24c1.87 0 2.65-.81 2.65-2.67V75.47a2.22 2.22 0 0 0-2.54-2.55H90.84a1.19 1.19 0 0 0-1.27.84 6.1 6.1 0 0 1-7.35 3.18 6.29 6.29 0 0 1-4.13-4.03zm14.78 46.48h9v-5.57h-9zM84 67.94a3.11 3.11 0 1 0 3.1 3.12 3.13 3.13 0 0 0-3.1-3.12zM37.18 59.87h25.09v18.2h-2.94V62.94H40.26v56.35h19V96.12h-5.5l7.06-12.24 7 12.19H62.4v26.26H37.18z"/><path class="cls-5" d="M41.18 74.89V66.6H58.3v8.29zm3-3.08h11v-2.12h-11v2.12zM44.8 109.7a4.95 4.95 0 1 1 4.87 5.07 4.93 4.93 0 0 1-4.87-5.07zm6.83.09a1.89 1.89 0 1 0-3.77.07 1.89 1.89 0 0 0 3.77-.07zM497.89 117.54v4.52l-9.32-5.27 9.3-5.27v3.78c1.54-.51 3-.88 4.32-1.43a22.59 22.59 0 0 0 14.08-21.12V80.86a22.71 22.71 0 0 0-17.76-22.3c-.56-.13-.87-.11-1.2.48a4.68 4.68 0 0 1-8.17 0 .86.86 0 0 0-1.12-.5 22.78 22.78 0 0 0-17.54 18.56 24.68 24.68 0 0 0-.25 3.94V97.98a10.9 10.9 0 0 1-12-8.61c-1.25-5.9 2.7-12.25 10-13.06.47-1.55.83-3.12 1.43-4.59 3.39-8.27 9.53-13.34 18.18-15.4a1.25 1.25 0 0 0 1.07-.95 4.69 4.69 0 0 1 8.85.06 1.11 1.11 0 0 0 .95.87c10.27 2.55 16.84 8.86 19.4 19.2.15.58.32.84 1 .92A10.94 10.94 0 0 1 528.77 87a10.83 10.83 0 0 1-9.56 11c-1 .11-1.21.51-1.47 1.37-2.86 9.64-9.27 15.57-19 18zm20.63-38.87v17a8.42 8.42 0 0 0 7.91-8 8.58 8.58 0 0 0-7.91-9zm-50.65 0c-4 .13-7.55 4.09-7.6 8.33-.07 4.43 3.41 8.4 7.6 8.64zm25.35-19.51a2.36 2.36 0 0 0 2.46-2.33 2.45 2.45 0 0 0-4.9 0 2.37 2.37 0 0 0 2.44 2.38z"/><path class="cls-5" d="M505.51 75.35h.52c1.59-.11 1.63-.13 2.28 1.31.45 1 .76 2 1.15 3a.76.76 0 0 1-.32 1.07 3.88 3.88 0 0 0 0 6.22.75.75 0 0 1 .32 1.07c-.53 1.27-1.06 2.53-1.57 3.8a.8.8 0 0 1-1 .58c-1.5-.42-2.47.18-3.55 1.26s-1.56 1.85-1.17 3.22a.93.93 0 0 1-.66 1.24c-1.28.49-2.55 1-3.82 1.53a.72.72 0 0 1-1-.32 3.39 3.39 0 0 0-3.37-1.64c-1.55 0-2.61.34-3.38 1.64a.72.72 0 0 1-1 .32c-1.32-.54-2.64-1.09-4-1.61a.75.75 0 0 1-.53-1c.42-1.49-.18-2.45-1.28-3.52s-1.95-1.54-3.34-1.14a.89.89 0 0 1-1.17-.64c-.5-1.25-1-2.49-1.53-3.73a.74.74 0 0 1 .31-1.07 3.12 3.12 0 0 0 1.57-3.2 3.23 3.23 0 0 0-1.54-3 1 1 0 0 1-.34-1c.5-1.37 1.09-2.7 1.64-4a.72.72 0 0 1 .95-.45 3.24 3.24 0 0 0 3.44-1.11c1-1.08 1.74-2 1.29-3.51a.78.78 0 0 1 .58-1c1.28-.51 2.55-1 3.81-1.55a.8.8 0 0 1 1.14.34 3.3 3.3 0 0 0 3.25 1.6c1.56 0 2.66-.32 3.49-1.65a1 1 0 0 1 .89-.31c1.39.5 2.77 1.06 4.12 1.67a1 1 0 0 1 .42.84 3 3 0 0 0 1.43 3.61 1.93 1.93 0 0 1 .57.6c.37.46.82.75 1.4.53zm1.49 4.27c-.59-2-.59-2-2.45-1.9a.71.71 0 0 0-.25 0c-.55.17-.82-.15-1.17-.54a26.15 26.15 0 0 0-2.8-2.77 1.62 1.62 0 0 1-.74-1.59c.18-1.81.15-1.82-1.63-2.35h-.15c-.4.48-.86 1-1.26 1.51a.93.93 0 0 1-1 .36 10.54 10.54 0 0 0-3.35-.14 2.45 2.45 0 0 1-3.05-1.2c-.29-.52-.66-.53-1.18-.31-1.2.5-1.21.48-1.07 1.72a3.92 3.92 0 0 0 .1.59c.16.64-.15 1-.65 1.37a8.61 8.61 0 0 0-2.35 2.16 2.37 2.37 0 0 1-2.88 1.12.81.81 0 0 0-1.09.57c-.49 1.22-.52 1.21.5 2a6.86 6.86 0 0 0 .59.48c.38.24.43.53.37 1a7.62 7.62 0 0 0-.16 2.76 2.64 2.64 0 0 1-1.33 3.35.74.74 0 0 0-.29.59c.19 1.33.64 1.65 2 1.5h.42a1.26 1.26 0 0 1 1.4.6 7.58 7.58 0 0 0 2 2.13 2.58 2.58 0 0 1 1.35 3.26.79.79 0 0 0 .2.64 1.49 1.49 0 0 0 2.44-.26 3 3 0 0 0 .33-.38c.37-.64.9-.63 1.58-.57a18.86 18.86 0 0 0 3.68 0 1.71 1.71 0 0 1 1.8.65c1.07 1.35 1.1 1.32 2.64.56a2.73 2.73 0 0 0 .26-.17c-.05-.53-.08-1.09-.16-1.64a1.37 1.37 0 0 1 .65-1.46 12.81 12.81 0 0 0 2.59-2.5 1.92 1.92 0 0 1 2.11-.86c1.45.19 1.14.32 1.77-1a.87.87 0 0 0-.37-1.31c-.33-.21-.6-.51-.92-.73a.83.83 0 0 1-.35-1 6.67 6.67 0 0 0 .17-2.42c-.42-1.77-.17-3.14 1.7-3.82z"/><path class="cls-5" d="M493.26 75.62a8.2 8.2 0 1 1-8.42 8.2 8.35 8.35 0 0 1 8.42-8.2zm0 14.09a5.92 5.92 0 1 0 0-11.84 5.92 5.92 0 1 0 0 11.84zM870.58 103.52v4c0 1.71.06 3.42 0 5.13a2.17 2.17 0 0 0 1.22 2.15 21.51 21.51 0 0 0 6.44 2.27c1.51.33 3 .58 4.67.88l-.35 2.62c-4.36-.72-8.67-1.34-12.48-3.71a6.13 6.13 0 0 1-.51-.38 4.06 4.06 0 0 1-1.65-3.39V59.56a3.65 3.65 0 0 1 1.6-3.3 42.86 42.86 0 0 1 4.35-2.26c.43-.21.79-.33.8-.92a5.37 5.37 0 0 1 10.33-1.7 1.33 1.33 0 0 0 .16.26c3-.11 6-.37 8.9-.3 4.32.11 8.65.37 13 .74a32.9 32.9 0 0 1 9.77 2.29 18.46 18.46 0 0 1 3.54 2.06 3.53 3.53 0 0 1 1.42 3v52.87a5.12 5.12 0 0 1-2.85 4.9 25 25 0 0 1-8.32 2.7c-3.13.5-6.29.81-9.44 1.12-.76.08-.91.34-.89 1v3.53L890 119.67l10.23-5.91v4.73c5.62-.42 11-1 16.18-3 .23-.09.45-.2.67-.3a2.86 2.86 0 0 0 2-3.09c-.15-2.84 0-5.68 0-8.62a65.73 65.73 0 0 1-24.27 4c-8.26-.03-16.45-.48-24.23-3.96zm48.47-14c-1.1.4-2.06.79-3 1.09a68.88 68.88 0 0 1-19 2.91 77.18 77.18 0 0 1-19.65-1.67c-2.26-.53-4.46-1.37-6.75-2.09v9.01a2 2 0 0 0 1.29 2.18 36.78 36.78 0 0 0 5.74 2.06 78.6 78.6 0 0 0 33.69 0 58.79 58.79 0 0 0 7-2.31 1.23 1.23 0 0 0 .71-.87c-.02-3.38-.03-6.77-.03-10.26zM870.58 76v9.17a1.77 1.77 0 0 0 1 1.79 29 29 0 0 0 3.94 1.69c6.19 1.88 12.59 2.28 19 2.34a73.85 73.85 0 0 0 15.19-1.45 32.5 32.5 0 0 0 8.61-2.68c.31-.15.71-.52.71-.8V75.95a1.35 1.35 0 0 0-.41.1 31.37 31.37 0 0 1-9.88 2.88 90.94 90.94 0 0 1-17.52.95A65.77 65.77 0 0 1 875 77.59c-1.5-.42-2.89-1.05-4.42-1.59zm0-13v8.53a1.75 1.75 0 0 0 .94 1.74 23.41 23.41 0 0 0 3.23 1.47 55.53 55.53 0 0 0 14.59 2.41 82.28 82.28 0 0 0 22.31-1.49 20.3 20.3 0 0 0 6.42-2.33 1.85 1.85 0 0 0 1-1.79V63.1c-2.19.71-4.26 1.53-6.41 2a77.66 77.66 0 0 1-20.46 1.75c-7.35-.2-14.65-.72-21.62-3.92zm24.18 1.34A76.77 76.77 0 0 0 911 62.76a21 21 0 0 0 7.12-2.51c1.26-.81 1.31-1.53 0-2.23a19.22 19.22 0 0 0-4.18-1.79c-9.23-2.54-18.63-2.61-28.08-1.84a1 1 0 0 0-.65.59c-1.6 4.22-6.37 5.11-9.41 1.74a1 1 0 0 0-.82-.26 24.8 24.8 0 0 0-3.33 1.48c-1.36.78-1.39 1.61 0 2.33a23.9 23.9 0 0 0 4.73 1.91 69.94 69.94 0 0 0 18.38 2.09zm-14.69-13.6a2.73 2.73 0 0 0-2.78 2.68 2.79 2.79 0 0 0 2.71 2.69 2.82 2.82 0 0 0 2.74-2.66 2.74 2.74 0 0 0-2.67-2.78z"/></svg>