<svg id="Layer_1" data-name="Layer 1" xmlns="http://www.w3.org/2000/svg" width="100" height="100" viewBox="0 0 100 100"><title>open-source</title><path d="M100,58.31c-.31,2.15-.52,4.33-1,6.46-3.14,15.49-11.7,27-25.49,34.69a8.11,8.11,0,0,1-.75.35L72,98.26l-.78-1.51c11.1-6,18.86-14.76,22.85-26.68a45,45,0,0,0,.2-28.54C88,21.94,71,11.34,56.73,9.66c-1.29,2.93-3.44,4.7-6.78,4.68s-5.37-1.82-6.66-4.68C27.84,11.55,11.17,23.22,5.55,42.37A45.28,45.28,0,0,0,7.39,73.74a46.08,46.08,0,0,0,21.42,23l-1.56,3a8.62,8.62,0,0,1-1-.43C11.9,91.21,3.3,79,.68,62.68.4,60.94.36,59.17.19,57.42A4,4,0,0,0,0,56.66V54.31a8.6,8.6,0,0,0,.19-.88C.71,49.92.81,46.28,1.8,42.9c6-20.21,19.34-32.45,40-36.62A1.73,1.73,0,0,0,43.42,5,5.25,5.25,0,0,1,45,2.44,30.55,30.55,0,0,1,49.18.19h1.64c.25.08.5.19.75.25A6.84,6.84,0,0,1,56.65,5a1.55,1.55,0,0,0,1.42,1.21,46.12,46.12,0,0,1,16,5.52c14,8,22.47,20,25.23,35.94.29,1.64.46,3.3.69,4.95ZM50,3.75a3.68,3.68,0,0,0-3.58,3.61,3.71,3.71,0,0,0,3.64,3.56,3.64,3.64,0,0,0,3.5-3.56A3.64,3.64,0,0,0,50,3.75Z"/><path d="M60.28,74.36l2.39,4.14a4,4,0,0,0,.32.38l2.62-1.41,2.88-1.55c-.13,5.43-.26,10.67-.4,16.19L54.26,83.66l5.55-3-4.57-7.93c5.64-2.06,9.7-5.71,11.7-11.42A17.37,17.37,0,0,0,67,49.85a17.87,17.87,0,0,0-34.35,1.43c-1.72,6.84.94,17.35,12.09,21.46l-4.56,7.94,5.42,3L31.79,92.1l-.43-16.18L37.07,79l2.69-4.63c-7.15-4.41-11.12-10.68-11.08-19.18a20.53,20.53,0,0,1,6.89-15.43A21.42,21.42,0,1,1,60.28,74.36Z"/></svg>