<svg id="Layer_1" data-name="Layer 1" xmlns="http://www.w3.org/2000/svg" width="100" height="100" viewBox="0 0 100 100"><title>environment</title><path d="M100,49.46c-1,3.87-1.81,7.57-2.92,11.18A63.38,63.38,0,0,1,85.54,83c-5,6.07-11.2,10.41-19.06,12a36.66,36.66,0,0,1-17.65-1,3.13,3.13,0,0,0-2.42.22C40.72,96.92,34.78,98,28.53,96.65a29.94,29.94,0,0,1-14.47-8.19,60.05,60.05,0,0,1-14-21.55c0-.09,0-.2-.08-.4a65.16,65.16,0,0,1,16.11-1.8c-.63-1.18-1.23-2.24-1.77-3.32A37.1,37.1,0,0,1,39.54,8.66a2.06,2.06,0,0,0,1.8-1.56,6.68,6.68,0,0,1,12.6.2,1.57,1.57,0,0,0,1.38,1.28,37.07,37.07,0,0,1,29,30.51,38.24,38.24,0,0,1,.46,5.76c0,1.88-.17,3.77-.28,5.71A80.82,80.82,0,0,1,100,49.46Zm-46.95,42a3.81,3.81,0,0,0,.53.22c10.54,2,19.67-.72,27.2-8.44A52.9,52.9,0,0,0,91.29,66.64,80.7,80.7,0,0,0,95.7,52.87c-.44,0-.81,0-1.17,0-1.85.16-3.71.27-5.55.5a64.49,64.49,0,0,0-21.93,6.39c-11.63,6.08-17.49,15.6-17,28.83a4.39,4.39,0,0,0,.15.69C57.93,84.37,65.24,79.05,71.6,72.4l-4.21-3.81,14.74-4.83L79,78.93l-4.84-4.29A112.82,112.82,0,0,1,53.05,91.44ZM49.26,43.1h32c-.11-1.24-.17-2.38-.32-3.51C79.1,26.3,68,14.61,54.78,11.88a.91.91,0,0,0-1.21.58,5.9,5.9,0,0,1-3.44,3.17c-.73.26-.89.65-.89,1.38,0,8.33,0,16.67,0,25Zm-3.41,0c0-.26,0-.43,0-.61q0-12.9,0-25.78a.93.93,0,0,0-.73-1,6,6,0,0,1-3.55-3.2c-.3-.66-.65-.75-1.29-.58Q19.46,17.34,14.48,38.33a47.39,47.39,0,0,0-.62,4.79ZM14,46.66c0,.5,0,.87,0,1.24a34.51,34.51,0,0,0,5.27,15.34,3.54,3.54,0,0,0,3.26,2,13.68,13.68,0,0,1,2.75.43C33.41,67.32,40.42,70.82,45,78.11a3.75,3.75,0,0,0,.78.63V46.66ZM4.62,68.88c.15.4.22.61.31.8A56.18,56.18,0,0,0,16.83,86.4c4.4,4.11,9.42,7,15.59,7.42a24.66,24.66,0,0,0,12.22-2.53l-13.94-9L27.29,87.8l-7.4-13.6,15.5.38-3,4.88,12.76,8.12a1.93,1.93,0,0,0,0-.34c-2-7.89-6.64-13.42-14.21-16.42a44.72,44.72,0,0,0-19.18-2.6C9.42,68.36,7.07,68.65,4.62,68.88Zm44.69,4.34C53.11,65,59.35,59.68,67.07,56a63.37,63.37,0,0,1,12.71-4.42c.38-.09,1-.43,1-.74.25-1.33.35-2.69.52-4.12h-32ZM47.59,6.07a3.47,3.47,0,0,0-3.38,3.35,3.38,3.38,0,1,0,6.76,0A3.46,3.46,0,0,0,47.59,6.07Z"/></svg>