<svg id="Layer_1" data-name="Layer 1" xmlns="http://www.w3.org/2000/svg" viewBox="0 0 1238.23 404"><defs><style>.cls-4,.cls-6{fill:none;stroke-miterlimit:10;stroke-width:3px}.cls-3{fill:#fcddd6}.cls-4{stroke:#fbc2ba}.cls-5{fill:#4c0519}.cls-6{stroke:#4c0519}</style></defs><path fill="#fbc2ba" d="M415.13 0v404H823.1V.09L415.13 0z"/><path stroke="#f16c51" fill="none" stroke-miterlimit="10" stroke-width="3" d="M434.23 170.99L804 172.13"/><path class="cls-3" d="M830.26.11v403.8h407.97V0L830.26.11z"/><path class="cls-4" d="M849.36 170.99l369.77-.06"/><path class="cls-3" d="M0 0v404h407.97V.09L0 0z"/><path class="cls-4" d="M19.1 170.99l369.77-.06"/><path class="cls-5" d="M133.39 103.12L126 80.31h4.54l3.11 10.36c.88 2.88 1.62 5.55 2.23 8.33h.12c.61-2.71 1.42-5.49 2.34-8.26l3.31-10.43h4.44l-7.89 22.81zM152 82a2.34 2.34 0 0 1-4.67 0 2.34 2.34 0 0 1 4.67 0zm-4.43 21.08V86.64h4.19v16.48zM156.07 99.3a9.23 9.23 0 0 0 4.23 1.18c1.83 0 2.64-.74 2.64-1.82s-.68-1.69-2.71-2.41c-3.21-1.11-4.57-2.87-4.53-4.8 0-2.91 2.4-5.18 6.23-5.18a9.66 9.66 0 0 1 4.36 1l-.81 3a7.35 7.35 0 0 0-3.49-1c-1.49 0-2.3.71-2.3 1.72s.78 1.56 2.88 2.31c3 1.08 4.36 2.6 4.4 5 0 3-2.34 5.14-6.7 5.14a10.6 10.6 0 0 1-5-1.15zM174.82 82a2.34 2.34 0 0 1-4.67 0 2.34 2.34 0 0 1 4.67 0zm-4.43 21.08V86.64h4.2v16.48zM178.92 103.12c.07-1.11.14-2.94.14-4.63V79.1h4.16v9.81h.07a6 6 0 0 1 5.28-2.64c4 0 6.9 3.35 6.87 8.36 0 5.92-3.76 8.87-7.48 8.87a5.69 5.69 0 0 1-5.22-2.85h-.06l-.21 2.47zm4.3-6.8a4.4 4.4 0 0 0 .1 1 3.83 3.83 0 0 0 3.69 2.91c2.6 0 4.19-2.09 4.19-5.41 0-2.91-1.38-5.28-4.16-5.28a3.91 3.91 0 0 0-3.69 3 5.62 5.62 0 0 0-.13 1.09zM203.29 82a2.34 2.34 0 0 1-4.67 0 2.34 2.34 0 0 1 4.67 0zm-4.43 21.08V86.64h4.19v16.48zM207.52 79.1h4.2v24h-4.2zM220.66 82a2.21 2.21 0 0 1-2.37 2.23A2.18 2.18 0 0 1 216 82a2.34 2.34 0 0 1 4.67 0zm-4.44 21.08V86.64h4.2v16.48zM229.66 81.94v4.7h4v3.12h-4V97c0 2 .54 3 2.13 3a6.28 6.28 0 0 0 1.63-.2l.07 3.18a9.43 9.43 0 0 1-3 .4 4.78 4.78 0 0 1-3.58-1.35c-.88-1-1.29-2.44-1.29-4.6v-7.67h-2.37v-3.12h2.37v-3.72zM239.61 86.64l3 8.84c.34 1 .68 2.26.92 3.21h.1c.27-1 .57-2.17.88-3.25l2.57-8.8h4.47l-4.15 11.24c-2.27 6.16-3.79 8.9-5.76 10.59a8.26 8.26 0 0 1-4.36 2.13l-.95-3.52a7 7 0 0 0 2.44-1.15 7.15 7.15 0 0 0 2.26-2.6 1.71 1.71 0 0 0 .28-.75 1.83 1.83 0 0 0-.24-.81l-6-15.13zM576.43 93.82c-.13-2.95-.3-6.5-.27-9.58h-.1c-.74 2.78-1.69 5.85-2.71 8.73l-3.35 9.88h-3.22l-3-9.74c-.88-2.91-1.7-6-2.3-8.87h-.07c-.1 3-.24 6.6-.41 9.71l-.51 9.17h-3.89l1.52-22.81h5.49l3 9.18c.81 2.67 1.52 5.38 2.09 7.91h.11c.6-2.47 1.38-5.27 2.26-8l3.15-9.14h5.42l1.32 22.81h-4.07zM600.84 94.73c0 6.06-4.26 8.77-8.46 8.77-4.67 0-8.26-3.22-8.26-8.5s3.56-8.73 8.53-8.73 8.19 3.45 8.19 8.46zm-12.42.17c0 3.18 1.56 5.58 4.1 5.58 2.36 0 4-2.33 4-5.65 0-2.57-1.15-5.51-4-5.51s-4.1 2.84-4.1 5.58zM604.26 91.55c0-1.9 0-3.49-.13-4.91h3.65l.21 2.47h.1a5.94 5.94 0 0 1 5.24-2.84c2.88 0 5.86 1.86 5.86 7.07v9.78H615v-9.3c0-2.37-.88-4.17-3.15-4.17a3.5 3.5 0 0 0-3.25 2.44 4.1 4.1 0 0 0-.17 1.35v9.68h-4.2zM628.06 82a2.34 2.34 0 1 1-2.34-2.27 2.2 2.2 0 0 1 2.34 2.27zm-4.43 21.08V86.64h4.19v16.48zM637.06 81.94v4.7h4v3.12h-4V97c0 2 .55 3 2.14 3a6.19 6.19 0 0 0 1.62-.2l.07 3.18a9.36 9.36 0 0 1-3 .4 4.8 4.8 0 0 1-3.59-1.35c-.88-1-1.29-2.44-1.29-4.6v-7.67h-2.37v-3.12H633v-3.72zM659.64 94.73c0 6.06-4.26 8.77-8.46 8.77-4.67 0-8.26-3.22-8.26-8.5s3.56-8.73 8.53-8.73 8.19 3.45 8.19 8.46zm-12.42.17c0 3.18 1.56 5.58 4.1 5.58 2.36 0 4-2.33 4-5.65 0-2.57-1.15-5.51-4-5.51s-4.1 2.84-4.1 5.58zM663.06 92c0-2.24 0-3.83-.13-5.32h3.62l.13 3.15h.14a4.91 4.91 0 0 1 4.5-3.52 4.22 4.22 0 0 1 1 .1v3.89a5.62 5.62 0 0 0-1.22-.14 3.67 3.67 0 0 0-3.72 3.15 6.94 6.94 0 0 0-.13 1.29v8.52h-4.17zM679.55 82a2.21 2.21 0 0 1-2.37 2.23 2.18 2.18 0 0 1-2.3-2.23 2.34 2.34 0 0 1 4.67 0zm-4.44 21.08V86.64h4.2v16.48zM683.78 91.55c0-1.9 0-3.49-.14-4.91h3.66l.2 2.47h.1a6 6 0 0 1 5.25-2.84c2.88 0 5.85 1.86 5.85 7.07v9.78h-4.16v-9.3c0-2.37-.88-4.17-3.15-4.17a3.49 3.49 0 0 0-3.24 2.44 4.1 4.1 0 0 0-.17 1.35v9.68h-4.2zM718.2 86.64c-.07 1.12-.13 2.47-.13 4.74v9.34c0 3.45-.71 5.92-2.44 7.48a9.51 9.51 0 0 1-6.36 2 11.71 11.71 0 0 1-5.76-1.32l.92-3.15a9.94 9.94 0 0 0 4.8 1.25c2.71 0 4.74-1.42 4.74-5v-1.42h-.07a5.56 5.56 0 0 1-4.8 2.43c-4.1 0-7-3.38-7-8 0-5.42 3.52-8.7 7.48-8.7a5.17 5.17 0 0 1 4.77 2.57h.07l.17-2.2zm-4.3 6.6a4 4 0 0 0-.13-1.11 3.46 3.46 0 0 0-3.39-2.68c-2.33 0-4.06 2-4.06 5.38 0 2.81 1.42 5.08 4 5.08a3.57 3.57 0 0 0 3.39-2.51 7.14 7.14 0 0 0 .16-1.48zM974.18 80.62a36 36 0 0 1 6.36-.48c3.05 0 5.28.65 6.73 1.87a6.42 6.42 0 0 1 2.24 5 7 7 0 0 1-2 5.18c-1.66 1.66-4.27 2.43-7.21 2.43a11.91 11.91 0 0 1-2-.13v8.59h-4.13zm4.13 10.63a8.69 8.69 0 0 0 2 .16c3.11 0 5-1.52 5-4.19s-1.76-3.89-4.64-3.89a11.64 11.64 0 0 0-2.4.2zM992.52 92c0-2.24 0-3.83-.13-5.32H996l.14 3.15h.13a4.91 4.91 0 0 1 4.5-3.52 4.16 4.16 0 0 1 1 .1v3.89a5.51 5.51 0 0 0-1.21-.14 3.68 3.68 0 0 0-3.73 3.15 6.94 6.94 0 0 0-.13 1.29v8.52h-4.17zM1019.94 94.73c0 6.06-4.26 8.77-8.46 8.77-4.67 0-8.26-3.22-8.26-8.5s3.56-8.73 8.53-8.73 8.19 3.45 8.19 8.46zm-12.42.17c0 3.18 1.56 5.58 4.1 5.58 2.36 0 4-2.33 4-5.65 0-2.57-1.15-5.51-4-5.51s-4.1 2.84-4.1 5.58zM1023.84 103.12V89.76h-2.24v-3.12h2.24v-.78c0-4.43 3.08-7.14 8-7.14a9.76 9.76 0 0 1 4.54 1l-.91 3.15a7.59 7.59 0 0 0-3.63-.88c-2.91 0-3.85 1.76-3.85 3.93v.67h9.84v16.48h-4.19V89.76H1028v13.36zM1047.06 81.94v4.7h4v3.12h-4V97c0 2 .54 3 2.13 3a6.19 6.19 0 0 0 1.62-.2l.07 3.18a9.36 9.36 0 0 1-3 .4 4.82 4.82 0 0 1-3.59-1.35c-.88-1-1.28-2.44-1.28-4.6v-7.67h-2.37v-3.12h2.36v-3.72zM1063.44 103.12l-.27-1.82h-.1a6.15 6.15 0 0 1-4.88 2.2 4.89 4.89 0 0 1-5.17-4.91c0-4.16 3.68-6.26 9.78-6.23v-.27c0-1.08-.44-2.88-3.35-2.88a8.75 8.75 0 0 0-4.44 1.22l-.81-2.7a11.81 11.81 0 0 1 6-1.46c5.28 0 6.8 3.35 6.8 6.94v6a26.23 26.23 0 0 0 .24 4zm-.54-8.05c-3-.07-5.75.58-5.75 3.08a2.18 2.18 0 0 0 2.36 2.37 3.36 3.36 0 0 0 3.25-2.27 2.73 2.73 0 0 0 .14-.91zM1071.23 103.12c.07-1.11.13-2.94.13-4.63V79.1h4.17v9.81h.06a6 6 0 0 1 5.28-2.64c4 0 6.91 3.35 6.87 8.36 0 5.92-3.75 8.87-7.48 8.87a5.68 5.68 0 0 1-5.21-2.85h-.05l-.2 2.47zm4.3-6.8a4.4 4.4 0 0 0 .1 1 3.83 3.83 0 0 0 3.69 2.91c2.6 0 4.19-2.09 4.19-5.41 0-2.91-1.38-5.28-4.16-5.28a3.91 3.91 0 0 0-3.69 3 4.93 4.93 0 0 0-.13 1.09zM1095.6 82a2.34 2.34 0 1 1-2.34-2.27 2.2 2.2 0 0 1 2.34 2.27zm-4.43 21.08V86.64h4.19v16.48zM1099.83 79.1h4.2v24h-4.2zM1113 82a2.34 2.34 0 0 1-4.67 0 2.34 2.34 0 0 1 4.67 0zm-4.43 21.08V86.64h4.2v16.48zM1122 81.94v4.7h4v3.12h-4V97c0 2 .54 3 2.13 3a6.34 6.34 0 0 0 1.63-.2l.06 3.18a9.36 9.36 0 0 1-3 .4 4.82 4.82 0 0 1-3.59-1.35c-.88-1-1.28-2.44-1.28-4.6v-7.67h-2.37v-3.12h2.37v-3.72zM1131.92 86.64l3 8.84c.34 1 .68 2.26.91 3.21h.1c.28-1 .58-2.17.88-3.25l2.58-8.8h4.46l-4.13 11.24c-2.26 6.16-3.79 8.9-5.75 10.59a8.26 8.26 0 0 1-4.36 2.13l-.95-3.52a7 7 0 0 0 2.44-1.15 7.25 7.25 0 0 0 2.26-2.6 1.67 1.67 0 0 0 .27-.75 1.77 1.77 0 0 0-.23-.81l-6-15.13zM76.4 221.14a7.83 7.83 0 0 0 4 1.11c2.26 0 3.58-1.19 3.58-2.92s-.91-2.51-3.22-3.4c-2.8-1-4.52-2.44-4.52-4.85 0-2.66 2.21-4.64 5.53-4.64a7.79 7.79 0 0 1 3.78.83l-.6 1.81a6.77 6.77 0 0 0-3.25-.82c-2.34 0-3.23 1.4-3.23 2.57 0 1.6 1 2.38 3.4 3.3 2.9 1.12 4.37 2.51 4.37 5s-2 4.92-6 4.92a8.84 8.84 0 0 1-4.4-1.05zM99.43 220.48c0 1.27 0 2.38.1 3.35h-2l-.13-2a4.62 4.62 0 0 1-4.06 2.29c-1.93 0-4.24-1.07-4.24-5.39v-7.18h2.2v6.8c0 2.34.71 3.91 2.74 3.91a3.24 3.24 0 0 0 2.95-2 3.17 3.17 0 0 0 .2-1.14v-7.54h2.24zM103.13 215.55c0-1.57 0-2.84-.1-4h2l.1 2.11a4.83 4.83 0 0 1 4.37-2.39c3 0 5.2 2.51 5.2 6.25 0 4.41-2.69 6.6-5.58 6.6a4.32 4.32 0 0 1-3.79-1.93v6.68h-2.21zm2.21 3.28a5.07 5.07 0 0 0 .1.91 3.46 3.46 0 0 0 3.36 2.62c2.36 0 3.73-1.93 3.73-4.75 0-2.47-1.3-4.57-3.66-4.57a3.58 3.58 0 0 0-3.38 2.76 3.93 3.93 0 0 0-.15.92zM117.58 215.55c0-1.57 0-2.84-.1-4h2l.1 2.11h.06a4.82 4.82 0 0 1 4.36-2.39c3 0 5.21 2.51 5.21 6.25 0 4.41-2.69 6.6-5.59 6.6a4.31 4.31 0 0 1-3.78-1.93v6.68h-2.21zm2.21 3.28a5.07 5.07 0 0 0 .1.91 3.45 3.45 0 0 0 3.35 2.62c2.36 0 3.73-1.93 3.73-4.75 0-2.47-1.29-4.57-3.65-4.57a3.56 3.56 0 0 0-3.38 2.76 3.47 3.47 0 0 0-.15.92zM132 205.8h2.24v18H132zM138.83 211.54l2.69 7.26c.28.81.58 1.78.79 2.51h.05c.23-.73.48-1.67.78-2.56l2.44-7.21h2.36l-3.35 8.76c-1.6 4.21-2.69 6.37-4.21 7.69a6 6 0 0 1-2.75 1.45l-.55-1.88a6 6 0 0 0 1.95-1.09 6.8 6.8 0 0 0 1.88-2.49 1.71 1.71 0 0 0 .18-.53 2 2 0 0 0-.15-.59l-4.55-11.32zM164.12 223.37a8.18 8.18 0 0 1-3.53.71c-3.71 0-6.12-2.51-6.12-6.27a6.24 6.24 0 0 1 6.6-6.52 7.57 7.57 0 0 1 3.1.63l-.51 1.73a5.13 5.13 0 0 0-2.59-.59c-2.82 0-4.34 2.08-4.34 4.65 0 2.84 1.82 4.59 4.26 4.59a6.47 6.47 0 0 0 2.74-.6zM166.73 205.8H169v7.67a4.26 4.26 0 0 1 1.6-1.58 4.62 4.62 0 0 1 2.29-.63c1.65 0 4.29 1 4.29 5.26v7.31H175v-7.06c0-2-.74-3.66-2.85-3.66a3.2 3.2 0 0 0-3 2.24 2.6 2.6 0 0 0-.16 1.06v7.42h-2.23zM187.62 223.83l-.17-1.55h-.08a4.58 4.58 0 0 1-3.76 1.83 3.49 3.49 0 0 1-3.75-3.53c0-3 2.64-4.6 7.38-4.57v-.26a2.53 2.53 0 0 0-2.79-2.84 6.23 6.23 0 0 0-3.2.91l-.51-1.47a7.65 7.65 0 0 1 4-1.09c3.76 0 4.67 2.56 4.67 5v4.59a16.55 16.55 0 0 0 .21 3zm-.33-6.27c-2.43-.05-5.2.38-5.2 2.76a2 2 0 0 0 2.11 2.14 3.06 3.06 0 0 0 3-2.06 2.52 2.52 0 0 0 .12-.71zM195.55 208.09a1.39 1.39 0 0 1-2.77 0 1.36 1.36 0 0 1 1.39-1.4 1.33 1.33 0 0 1 1.38 1.4zm-2.49 15.74v-12.29h2.23v12.29zM199 214.87c0-1.27 0-2.32-.1-3.33h2l.12 2h.05a4.53 4.53 0 0 1 4.07-2.31c1.7 0 4.34 1 4.34 5.23v7.34h-2.24v-7.09c0-2-.73-3.63-2.84-3.63a3.19 3.19 0 0 0-3 2.29 3.26 3.26 0 0 0-.15 1v7.39H199zM80 264h-5.2v-1.9h12.62v1.9h-5.23v15.24H80zM88.1 270.76c0-1.45 0-2.69-.1-3.83h2l.07 2.41h.1a3.69 3.69 0 0 1 3.41-2.69 2.43 2.43 0 0 1 .63.07v2.11a3.45 3.45 0 0 0-.76-.07 3.14 3.14 0 0 0-3 2.87 6.33 6.33 0 0 0-.1 1v6.55H88.1zM103.08 279.22l-.17-1.55h-.08a4.61 4.61 0 0 1-3.76 1.83 3.51 3.51 0 0 1-3.76-3.5c0-3 2.64-4.6 7.39-4.57v-.26a2.53 2.53 0 0 0-2.79-2.84 6.11 6.11 0 0 0-3.2.91l-.51-1.47a7.65 7.65 0 0 1 4-1.09c3.76 0 4.67 2.56 4.67 5v4.59a17.62 17.62 0 0 0 .2 3zm-.33-6.27c-2.43-.06-5.2.38-5.2 2.76a2 2 0 0 0 2.11 2.14 3.07 3.07 0 0 0 3-2.06 2.52 2.52 0 0 0 .12-.71zM108.52 270.25c0-1.27 0-2.31-.11-3.32h2l.13 2a4.51 4.51 0 0 1 4.06-2.31c1.71 0 4.35 1 4.35 5.23v7.34h-2.24v-7.09c0-2-.73-3.63-2.84-3.63a3.18 3.18 0 0 0-3 2.29 3.26 3.26 0 0 0-.15 1v7.39h-2.23zM122.3 276.93a5.88 5.88 0 0 0 3 .89c1.62 0 2.38-.81 2.38-1.83s-.63-1.65-2.28-2.26c-2.21-.78-3.25-2-3.25-3.48 0-2 1.6-3.6 4.24-3.6a6.11 6.11 0 0 1 3 .76l-.59 1.59a4.71 4.71 0 0 0-2.51-.72c-1.32 0-2.06.77-2.06 1.68s.74 1.47 2.34 2.08c2.13.81 3.22 1.88 3.22 3.71 0 2.16-1.67 3.68-4.59 3.68a7 7 0 0 1-3.46-.84zM139.46 279.22l-.17-1.55h-.08a4.59 4.59 0 0 1-3.76 1.83 3.5 3.5 0 0 1-3.75-3.5c0-3 2.64-4.6 7.38-4.57v-.26a2.53 2.53 0 0 0-2.79-2.84 6.11 6.11 0 0 0-3.2.91l-.51-1.47a7.65 7.65 0 0 1 4-1.09c3.76 0 4.67 2.56 4.67 5v4.59a16.55 16.55 0 0 0 .21 3zm-.33-6.27c-2.43-.06-5.2.38-5.2 2.76a2 2 0 0 0 2.11 2.14 3.06 3.06 0 0 0 3-2.06 2.52 2.52 0 0 0 .12-.71zM153.66 278.76a8.33 8.33 0 0 1-3.53.71c-3.71 0-6.12-2.51-6.12-6.27a6.25 6.25 0 0 1 6.6-6.53 7.39 7.39 0 0 1 3.1.64l-.51 1.69a5.1 5.1 0 0 0-2.59-.59c-2.82 0-4.34 2.08-4.34 4.65 0 2.84 1.83 4.59 4.26 4.59a6.39 6.39 0 0 0 2.75-.61zM159.29 263.4v3.53h3.2v1.7h-3.2v6.63c0 1.52.43 2.38 1.68 2.38a4.81 4.81 0 0 0 1.29-.15l.11 1.68a5.73 5.73 0 0 1-2 .3 3.1 3.1 0 0 1-2.41-.94 4.57 4.57 0 0 1-.86-3.2v-6.7h-1.9v-1.7h1.91V264zM167.49 263.47a1.38 1.38 0 1 1-2.76 0 1.36 1.36 0 0 1 1.39-1.39 1.32 1.32 0 0 1 1.37 1.39zM165 279.22v-12.29h2.24v12.29zM182.07 273c0 4.55-3.15 6.53-6.12 6.53-3.33 0-5.89-2.44-5.89-6.33 0-4.11 2.69-6.52 6.09-6.52s5.92 2.53 5.92 6.32zm-9.75.13c0 2.69 1.55 4.72 3.73 4.72s3.73-2 3.73-4.77c0-2.09-1-4.73-3.68-4.73s-3.78 2.41-3.78 4.75zM184.88 270.25c0-1.27 0-2.31-.1-3.32h2l.13 2h.05a4.51 4.51 0 0 1 4.06-2.31c1.7 0 4.34 1 4.34 5.23v7.34h-2.23v-7.09c0-2-.74-3.63-2.84-3.63a3.17 3.17 0 0 0-3 2.29 3.26 3.26 0 0 0-.15 1v7.39h-2.24zM198.67 276.93a5.88 5.88 0 0 0 3 .89c1.62 0 2.38-.81 2.38-1.83s-.63-1.65-2.28-2.26c-2.21-.78-3.25-2-3.25-3.48 0-2 1.6-3.6 4.24-3.6a6.11 6.11 0 0 1 3 .76l-.56 1.63a4.71 4.71 0 0 0-2.51-.72c-1.32 0-2.06.77-2.06 1.68s.74 1.47 2.34 2.08c2.13.81 3.22 1.88 3.22 3.71 0 2.16-1.68 3.68-4.6 3.68a7 7 0 0 1-3.45-.84zM80.51 334.6v-7.26l-5.41-9.85h2.52l2.38 4.72c.66 1.3 1.17 2.34 1.7 3.53.48-1.11 1.07-2.23 1.73-3.53l2.57-4.72h2.52l-5.74 9.83v7.28zM95.39 334.6l-.18-1.54h-.07a4.6 4.6 0 0 1-3.76 1.82 3.5 3.5 0 0 1-3.76-3.53c0-3 2.64-4.59 7.39-4.57v-.25a2.53 2.53 0 0 0-2.79-2.84 6.08 6.08 0 0 0-3.2.91l-.51-1.47a7.62 7.62 0 0 1 4-1.09c3.75 0 4.67 2.56 4.67 5v4.6a17.41 17.41 0 0 0 .2 2.94zm-.33-6.27c-2.44-.05-5.21.38-5.21 2.77a2 2 0 0 0 2.15 2.13 3 3 0 0 0 3-2.05 2.27 2.27 0 0 0 .13-.71zM100.82 326.15c0-1.45 0-2.69-.1-3.83h2l.07 2.41h.1a3.69 3.69 0 0 1 3.41-2.69 2.43 2.43 0 0 1 .63.07v2.11a3.41 3.41 0 0 0-.76-.08 3.14 3.14 0 0 0-3 2.87 6.44 6.44 0 0 0-.1 1v6.55h-2.21zM119.48 316.58v14.85c0 1.09 0 2.34.11 3.17h-2l-.1-2.13a4.56 4.56 0 0 1-4.19 2.41c-3 0-5.26-2.51-5.26-6.24 0-4.09 2.52-6.6 5.51-6.6a4.12 4.12 0 0 1 3.71 1.88v-7.34zm-2.23 10.74a4.29 4.29 0 0 0-.1-.94 3.29 3.29 0 0 0-3.23-2.59c-2.31 0-3.68 2-3.68 4.75 0 2.48 1.22 4.54 3.63 4.54a3.37 3.37 0 0 0 3.28-2.66 4.25 4.25 0 0 0 .1-1zM139.69 328.36c0 4.54-3.15 6.52-6.12 6.52-3.32 0-5.89-2.43-5.89-6.32 0-4.11 2.69-6.52 6.1-6.52s5.91 2.56 5.91 6.32zm-9.75.13c0 2.69 1.55 4.72 3.74 4.72s3.73-2 3.73-4.77c0-2.09-1-4.73-3.68-4.73s-3.79 2.44-3.79 4.78zM142.51 326.33c0-1.58 0-2.85-.1-4h2l.11 2.1a4.83 4.83 0 0 1 4.36-2.38c3 0 5.21 2.51 5.21 6.24 0 4.42-2.69 6.6-5.59 6.6a4.31 4.31 0 0 1-3.78-1.93h-.05v6.68h-2.21zm2.21 3.27a5.18 5.18 0 0 0 .1.92 3.44 3.44 0 0 0 3.35 2.61c2.36 0 3.74-1.93 3.74-4.75 0-2.46-1.3-4.57-3.66-4.57a3.58 3.58 0 0 0-3.38 2.77 3.93 3.93 0 0 0-.15.92zM158.2 328.87c.05 3 2 4.26 4.21 4.26a8.22 8.22 0 0 0 3.41-.63l.38 1.6a10.06 10.06 0 0 1-4.09.76c-3.78 0-6-2.49-6-6.2s2.18-6.62 5.76-6.62c4 0 5.08 3.53 5.08 5.79a7.57 7.57 0 0 1-.08 1zm6.55-1.6c0-1.42-.58-3.63-3.1-3.63-2.26 0-3.25 2.08-3.42 3.63zM169.68 326.15c0-1.45 0-2.69-.11-3.83h2l.08 2.41h.1a3.68 3.68 0 0 1 3.4-2.69 2.43 2.43 0 0 1 .63.07v2.11a3.28 3.28 0 0 0-.76-.08 3.13 3.13 0 0 0-3 2.87 6.38 6.38 0 0 0-.11 1v6.55h-2.2zM184.66 334.6l-.18-1.54h-.08a4.57 4.57 0 0 1-3.76 1.82 3.5 3.5 0 0 1-3.75-3.53c0-3 2.64-4.59 7.38-4.57v-.25a2.53 2.53 0 0 0-2.79-2.84 6.13 6.13 0 0 0-3.2.91l-.51-1.47a7.65 7.65 0 0 1 4-1.09c3.76 0 4.67 2.56 4.67 5v4.6a16.37 16.37 0 0 0 .21 2.94zm-.33-6.27c-2.44-.05-5.21.38-5.21 2.77a2 2 0 0 0 2.11 2.13 3.06 3.06 0 0 0 3-2.05 2.6 2.6 0 0 0 .13-.71zM192.68 318.79v3.53h3.2V324h-3.2v6.62c0 1.53.43 2.39 1.67 2.39a5.29 5.29 0 0 0 1.3-.15l.1 1.67a5.41 5.41 0 0 1-2 .31 3.09 3.09 0 0 1-2.41-.94 4.52 4.52 0 0 1-.87-3.2V324h-1.9v-1.7h1.9v-2.95zM200.88 318.86a1.39 1.39 0 0 1-2.77 0 1.36 1.36 0 0 1 1.4-1.39 1.33 1.33 0 0 1 1.37 1.39zm-2.49 15.74v-12.28h2.23v12.28zM215.45 328.36c0 4.54-3.15 6.52-6.12 6.52-3.32 0-5.89-2.43-5.89-6.32 0-4.11 2.69-6.52 6.09-6.52s5.92 2.56 5.92 6.32zm-9.75.13c0 2.69 1.55 4.72 3.73 4.72s3.74-2 3.74-4.77c0-2.09-1-4.73-3.69-4.73s-3.78 2.44-3.78 4.78zM218.27 325.64c0-1.27 0-2.31-.1-3.32h2l.12 2h.06a4.5 4.5 0 0 1 4.06-2.31c1.7 0 4.34 1 4.34 5.23v7.33h-2.24v-7.08c0-2-.73-3.63-2.84-3.63a3.17 3.17 0 0 0-3 2.29 3 3 0 0 0-.16 1v7.38h-2.23zM232.05 332.32a5.88 5.88 0 0 0 2.95.89c1.62 0 2.39-.81 2.39-1.83s-.64-1.65-2.29-2.26c-2.21-.79-3.25-2-3.25-3.48 0-2 1.6-3.6 4.24-3.6a6.05 6.05 0 0 1 3 .76l-.56 1.62a4.81 4.81 0 0 0-2.51-.71c-1.32 0-2.06.76-2.06 1.68s.74 1.47 2.34 2.08c2.13.81 3.22 1.88 3.22 3.71 0 2.16-1.67 3.68-4.59 3.68a7 7 0 0 1-3.45-.84z"/><circle class="cls-6" cx="41.4" cy="217" r="4.5"/><circle class="cls-6" cx="41.4" cy="272" r="4.5"/><circle class="cls-6" cx="41.38" cy="326.74" r="4.48"/><path class="cls-5" d="M502.66 223.27a10.88 10.88 0 0 1-4.52.81c-4.82 0-8.45-3-8.45-8.66 0-5.35 3.63-9 8.94-9a9.12 9.12 0 0 1 4.06.76l-.53 1.8a8 8 0 0 0-3.46-.71c-4 0-6.68 2.56-6.68 7.06 0 4.19 2.42 6.88 6.58 6.88a8.88 8.88 0 0 0 3.61-.71zM512 223.83l-.18-1.55h-.07a4.61 4.61 0 0 1-3.76 1.83 3.5 3.5 0 0 1-3.76-3.53c0-3 2.64-4.6 7.39-4.57v-.26a2.53 2.53 0 0 0-2.79-2.84 6.17 6.17 0 0 0-3.2.91l-.51-1.47a7.62 7.62 0 0 1 4-1.09c3.75 0 4.67 2.56 4.67 5v4.59a17.62 17.62 0 0 0 .2 3zm-.33-6.27c-2.44-.05-5.21.38-5.21 2.76a2 2 0 0 0 2.11 2.14 3.05 3.05 0 0 0 3-2.06 2.22 2.22 0 0 0 .13-.71zM517.41 215.37c0-1.44 0-2.69-.1-3.83h2l.07 2.41h.1a3.69 3.69 0 0 1 3.41-2.69 2.41 2.41 0 0 1 .63.08v2.1a3.45 3.45 0 0 0-.76-.07 3.13 3.13 0 0 0-3 2.87 6.33 6.33 0 0 0-.1 1v6.55h-2.21zM536.1 211.54c-.05.89-.1 1.88-.1 3.38v7.13c0 2.82-.56 4.55-1.76 5.61a6.47 6.47 0 0 1-4.46 1.47 7.92 7.92 0 0 1-4.09-1l.56-1.7a6.89 6.89 0 0 0 3.6 1c2.29 0 4-1.19 4-4.29v-1.37a4.38 4.38 0 0 1-3.91 2.06c-3 0-5.23-2.59-5.23-6 0-4.17 2.72-6.53 5.54-6.53a4.09 4.09 0 0 1 3.83 2.13l.1-1.85zm-2.31 4.85a3.28 3.28 0 0 0-.13-1 3.23 3.23 0 0 0-3.12-2.36c-2.13 0-3.66 1.8-3.66 4.65 0 2.41 1.22 4.42 3.63 4.42a3.27 3.27 0 0 0 3.1-2.29 3.78 3.78 0 0 0 .18-1.19zM550.82 217.58c0 4.55-3.14 6.53-6.12 6.53-3.32 0-5.89-2.44-5.89-6.32 0-4.12 2.7-6.53 6.1-6.53s5.91 2.56 5.91 6.32zm-9.75.13c0 2.69 1.55 4.72 3.74 4.72s3.73-2 3.73-4.77c0-2.08-1-4.72-3.68-4.72s-3.79 2.43-3.79 4.77zM561.51 208.09a1.31 1.31 0 0 1-1.42 1.37 1.33 1.33 0 0 1-1.35-1.37 1.37 1.37 0 0 1 1.4-1.4 1.33 1.33 0 0 1 1.37 1.4zM559 223.83v-12.29h2.24v12.29zM565 214.87c0-1.27 0-2.32-.1-3.33h2l.13 2a4.51 4.51 0 0 1 4.06-2.31c1.7 0 4.34 1 4.34 5.23v7.34h-2.23v-7.09c0-2-.74-3.63-2.84-3.63a3.17 3.17 0 0 0-3 2.29 3.26 3.26 0 0 0-.15 1v7.39H565zM581.65 208v3.53h3.19v1.7h-3.19v6.63c0 1.52.43 2.38 1.67 2.38a4.84 4.84 0 0 0 1.3-.15l.1 1.68a5.44 5.44 0 0 1-2 .3 3.09 3.09 0 0 1-2.41-.94 4.52 4.52 0 0 1-.87-3.2v-6.7h-1.9v-1.7h1.9v-2.95zM588.45 218.09c0 3 2 4.27 4.21 4.27a8 8 0 0 0 3.41-.64l.38 1.6a9.93 9.93 0 0 1-4.09.76c-3.78 0-6-2.49-6-6.19s2.18-6.63 5.76-6.63c4 0 5.08 3.53 5.08 5.79a7.43 7.43 0 0 1-.08 1zm6.55-1.6c0-1.42-.58-3.63-3.1-3.63-2.26 0-3.25 2.08-3.43 3.63zM610.51 211.54c0 .89-.1 1.88-.1 3.38v7.13c0 2.82-.56 4.55-1.75 5.61a6.49 6.49 0 0 1-4.47 1.47 8 8 0 0 1-4.09-1l.56-1.7a6.9 6.9 0 0 0 3.61 1c2.28 0 4-1.19 4-4.29v-1.37h-.05a4.4 4.4 0 0 1-3.91 2.06c-3 0-5.23-2.59-5.23-6 0-4.17 2.71-6.53 5.53-6.53a4.12 4.12 0 0 1 3.84 2.13h.05l.1-1.85zm-2.31 4.85a3.29 3.29 0 0 0-.12-1A3.23 3.23 0 0 0 605 213c-2.13 0-3.65 1.8-3.65 4.65 0 2.41 1.21 4.42 3.63 4.42a3.26 3.26 0 0 0 3.09-2.29 3.78 3.78 0 0 0 .18-1.19zM614 215.37c0-1.44 0-2.69-.1-3.83h2l.07 2.41h.1a3.69 3.69 0 0 1 3.41-2.69 2.41 2.41 0 0 1 .63.08v2.1a3.39 3.39 0 0 0-.76-.07 3.14 3.14 0 0 0-3 2.87 6.33 6.33 0 0 0-.1 1v6.55H614zM624.86 208.09a1.39 1.39 0 0 1-2.77 0 1.36 1.36 0 0 1 1.39-1.4 1.33 1.33 0 0 1 1.38 1.4zm-2.49 15.74v-12.29h2.23v12.29zM631 208v3.53h3.2v1.7H631v6.63c0 1.52.43 2.38 1.67 2.38a4.84 4.84 0 0 0 1.3-.15l.1 1.68a5.44 5.44 0 0 1-2 .3 3.09 3.09 0 0 1-2.41-.94 4.53 4.53 0 0 1-.86-3.2v-6.7h-1.91v-1.7h1.91v-2.95zM637.75 211.54l2.69 7.26c.28.81.59 1.78.79 2.51.23-.73.48-1.67.79-2.56l2.43-7.21h2.37l-3.36 8.76c-1.6 4.21-2.69 6.37-4.21 7.69a6 6 0 0 1-2.74 1.45l-.56-1.88a5.88 5.88 0 0 0 2-1.09 6.7 6.7 0 0 0 1.88-2.49 1.71 1.71 0 0 0 .18-.53 2 2 0 0 0-.15-.59l-4.55-11.32zM490.7 262.1h9.22v1.9h-7v5.68h6.48v1.83h-6.48v7.75h-2.22zM502.56 261.19h2.23v18h-2.23zM509.8 273.48c.05 3 2 4.26 4.21 4.26a8.14 8.14 0 0 0 3.4-.63l.38 1.6a10 10 0 0 1-4.08.76c-3.79 0-6.05-2.49-6.05-6.19s2.19-6.63 5.77-6.63c4 0 5.07 3.53 5.07 5.79a10.18 10.18 0 0 1-.07 1zm6.55-1.6c0-1.42-.59-3.63-3.1-3.63-2.26 0-3.25 2.08-3.43 3.63zM522.52 273.48c.05 3 2 4.26 4.21 4.26a8.17 8.17 0 0 0 3.4-.63l.38 1.6a10 10 0 0 1-4.08.76c-3.79 0-6-2.49-6-6.19s2.19-6.63 5.77-6.63c4 0 5.07 3.53 5.07 5.79a10.18 10.18 0 0 1-.07 1zm6.55-1.6c0-1.42-.59-3.63-3.1-3.63-2.26 0-3.25 2.08-3.43 3.63zM536.68 263.4v3.53h3.2v1.7h-3.2v6.63c0 1.52.43 2.38 1.68 2.38a4.81 4.81 0 0 0 1.29-.15l.1 1.68a5.62 5.62 0 0 1-2 .3 3.1 3.1 0 0 1-2.41-.94 4.57 4.57 0 0 1-.86-3.2v-6.7h-1.91v-1.7h1.91V264zM547.78 270.25c0-1.27 0-2.31-.11-3.32h2l.1 2h.08a4.23 4.23 0 0 1 3.86-2.26 3.64 3.64 0 0 1 3.48 2.46h.05a5.08 5.08 0 0 1 1.37-1.6 4.17 4.17 0 0 1 2.71-.86c1.63 0 4 1.06 4 5.33v7.24h-2.18v-7c0-2.36-.87-3.78-2.67-3.78a2.89 2.89 0 0 0-2.64 2 3.7 3.7 0 0 0-.18 1.12v7.59h-2.18v-7.37c0-2-.86-3.37-2.56-3.37a3 3 0 0 0-2.77 2.23 3 3 0 0 0-.18 1.09v7.42h-2.18zM575.75 279.22l-.17-1.55h-.08a4.59 4.59 0 0 1-3.76 1.83A3.5 3.5 0 0 1 568 276c0-3 2.64-4.6 7.38-4.57v-.26a2.53 2.53 0 0 0-2.79-2.84 6.11 6.11 0 0 0-3.2.91l-.51-1.47a7.65 7.65 0 0 1 4-1.09c3.76 0 4.67 2.56 4.67 5v4.59a16.55 16.55 0 0 0 .21 3zm-.33-6.27c-2.43-.06-5.2.38-5.2 2.76a2 2 0 0 0 2.11 2.14 3.06 3.06 0 0 0 3-2.06 2.52 2.52 0 0 0 .12-.71zM583.68 263.47a1.39 1.39 0 0 1-2.77 0 1.36 1.36 0 0 1 1.39-1.39 1.33 1.33 0 0 1 1.38 1.39zm-2.49 15.75v-12.29h2.23v12.29zM587.13 270.25c0-1.27 0-2.31-.1-3.32h2l.12 2a4.53 4.53 0 0 1 4.07-2.31c1.7 0 4.34 1 4.34 5.23v7.34h-2.24v-7.09c0-2-.73-3.63-2.84-3.63a3.19 3.19 0 0 0-3 2.29 3.26 3.26 0 0 0-.15 1v7.39h-2.23zM603.81 263.4v3.53H607v1.7h-3.2v6.63c0 1.52.43 2.38 1.67 2.38a4.84 4.84 0 0 0 1.3-.15l.1 1.68a5.67 5.67 0 0 1-2 .3 3.09 3.09 0 0 1-2.41-.94 4.52 4.52 0 0 1-.87-3.2v-6.7h-1.9v-1.7h1.9V264zM610.61 273.48a3.93 3.93 0 0 0 4.22 4.26 8.17 8.17 0 0 0 3.4-.63l.38 1.6a10.06 10.06 0 0 1-4.09.76c-3.78 0-6-2.49-6-6.19s2.18-6.63 5.76-6.63c4 0 5.08 3.53 5.08 5.79a7.57 7.57 0 0 1-.08 1zm6.55-1.6c0-1.42-.58-3.63-3.09-3.63-2.26 0-3.25 2.08-3.43 3.63zM622.09 270.25c0-1.27 0-2.31-.1-3.32h2l.12 2a4.53 4.53 0 0 1 4.07-2.31c1.7 0 4.34 1 4.34 5.23v7.34h-2.24v-7.09c0-2-.73-3.63-2.84-3.63a3.19 3.19 0 0 0-3 2.29 3.26 3.26 0 0 0-.15 1v7.39h-2.23zM643 279.22l-.17-1.55h-.08a4.61 4.61 0 0 1-3.75 1.83 3.51 3.51 0 0 1-3.76-3.53c0-3 2.64-4.6 7.39-4.57v-.26a2.53 2.53 0 0 0-2.79-2.84 6.11 6.11 0 0 0-3.2.91l-.51-1.47a7.65 7.65 0 0 1 4-1.09c3.76 0 4.67 2.56 4.67 5v4.59a17.62 17.62 0 0 0 .2 3zm-.33-6.27c-2.43-.06-5.2.38-5.2 2.76a2 2 0 0 0 2.11 2.14 3.06 3.06 0 0 0 3-2.06 2.52 2.52 0 0 0 .12-.71zM648.42 270.25c0-1.27 0-2.31-.11-3.32h2l.13 2h.05a4.51 4.51 0 0 1 4.06-2.31c1.71 0 4.35 1 4.35 5.23v7.34h-2.24v-7.09c0-2-.73-3.63-2.84-3.63a3.18 3.18 0 0 0-3 2.29 3.26 3.26 0 0 0-.15 1v7.39h-2.23zM671.27 278.76a8.33 8.33 0 0 1-3.53.71c-3.71 0-6.12-2.51-6.12-6.27a6.25 6.25 0 0 1 6.6-6.53 7.39 7.39 0 0 1 3.1.64l-.51 1.73a5.1 5.1 0 0 0-2.59-.59c-2.82 0-4.34 2.08-4.34 4.65 0 2.84 1.83 4.59 4.26 4.59a6.39 6.39 0 0 0 2.75-.61zM675 273.48a3.93 3.93 0 0 0 4.22 4.26 8.17 8.17 0 0 0 3.4-.63l.38 1.6a10.06 10.06 0 0 1-4.09.76c-3.78 0-6-2.49-6-6.19s2.18-6.63 5.76-6.63c4 0 5.08 3.53 5.08 5.79a10.18 10.18 0 0 1-.07 1zm6.55-1.6c0-1.42-.58-3.63-3.09-3.63-2.26 0-3.25 2.08-3.43 3.63zM493.47 329.22l-1.78 5.38h-2.28l5.81-17.11h2.67l5.84 17.11h-2.36l-1.83-5.38zm5.61-1.72l-1.67-4.93c-.38-1.12-.64-2.13-.89-3.12-.26 1-.54 2.05-.87 3.09l-1.67 5zM505.71 332.32a5.87 5.87 0 0 0 2.94.89c1.63 0 2.39-.81 2.39-1.83s-.63-1.65-2.28-2.26c-2.21-.79-3.25-2-3.25-3.48 0-2 1.6-3.6 4.24-3.6a6.11 6.11 0 0 1 3 .76l-.56 1.62a4.81 4.81 0 0 0-2.51-.71c-1.33 0-2.06.76-2.06 1.68s.73 1.47 2.33 2.08c2.14.81 3.23 1.88 3.23 3.71 0 2.16-1.68 3.68-4.6 3.68a7 7 0 0 1-3.45-.84zM515.76 332.32a5.88 5.88 0 0 0 3 .89c1.62 0 2.38-.81 2.38-1.83s-.63-1.65-2.28-2.26c-2.21-.79-3.25-2-3.25-3.48 0-2 1.6-3.6 4.24-3.6a6.08 6.08 0 0 1 3 .76l-.56 1.62a4.81 4.81 0 0 0-2.51-.71c-1.32 0-2.06.76-2.06 1.68s.74 1.47 2.34 2.08c2.13.81 3.22 1.88 3.22 3.71 0 2.16-1.67 3.68-4.59 3.68a7 7 0 0 1-3.46-.84zM527.37 328.87c0 3 2 4.26 4.21 4.26a8.17 8.17 0 0 0 3.4-.63l.38 1.6a10 10 0 0 1-4.08.76c-3.79 0-6-2.49-6-6.2S527.42 322 531 322c4 0 5.07 3.53 5.07 5.79a10.18 10.18 0 0 1-.07 1zm6.55-1.6c0-1.42-.59-3.63-3.1-3.63-2.26 0-3.25 2.08-3.43 3.63zM541.53 318.79v3.53h3.2V324h-3.2v6.62c0 1.53.43 2.39 1.68 2.39a5.27 5.27 0 0 0 1.29-.15l.1 1.67a5.37 5.37 0 0 1-2 .31 3.09 3.09 0 0 1-2.41-.94 4.57 4.57 0 0 1-.86-3.2V324h-1.91v-1.7h1.91v-2.95zM552.63 326.33c0-1.58 0-2.85-.11-4h2l.1 2.1a4.85 4.85 0 0 1 4.37-2.38c3 0 5.2 2.51 5.2 6.24 0 4.42-2.69 6.6-5.58 6.6a4.29 4.29 0 0 1-3.78-1.93h-.06v6.68h-2.2zm2.2 3.27a5.15 5.15 0 0 0 .11.92 3.43 3.43 0 0 0 3.35 2.61c2.36 0 3.73-1.93 3.73-4.75 0-2.46-1.29-4.57-3.66-4.57a3.57 3.57 0 0 0-3.37 2.77 3.48 3.48 0 0 0-.16.92zM568.32 328.87c0 3 2 4.26 4.21 4.26a8.17 8.17 0 0 0 3.4-.63l.38 1.6a10 10 0 0 1-4.08.76c-3.79 0-6.05-2.49-6.05-6.2S568.37 322 572 322c4 0 5.07 3.53 5.07 5.79a10.18 10.18 0 0 1-.07 1zm6.55-1.6c0-1.42-.59-3.63-3.1-3.63-2.26 0-3.25 2.08-3.43 3.63zM579.79 326.15c0-1.45 0-2.69-.1-3.83h1.95l.08 2.41h.1a3.69 3.69 0 0 1 3.4-2.69 2.46 2.46 0 0 1 .64.07v2.11a3.41 3.41 0 0 0-.76-.08 3.14 3.14 0 0 0-3 2.87 6.44 6.44 0 0 0-.1 1v6.55h-2.21zM589.08 334.6V324h-1.72v-1.7h1.72v-.59a5.8 5.8 0 0 1 1.42-4.29 4.3 4.3 0 0 1 3-1.14 5.42 5.42 0 0 1 1.91.35l-.31 1.73a3.38 3.38 0 0 0-1.42-.28c-1.91 0-2.39 1.68-2.39 3.56v.66h3v1.7h-3v10.6zM607.06 328.36c0 4.54-3.15 6.52-6.12 6.52-3.33 0-5.89-2.43-5.89-6.32 0-4.11 2.69-6.52 6.09-6.52s5.92 2.56 5.92 6.32zm-9.75.13c0 2.69 1.55 4.72 3.73 4.72s3.73-2 3.73-4.77c0-2.09-1-4.73-3.68-4.73s-3.78 2.44-3.78 4.78zM609.88 326.15c0-1.45 0-2.69-.11-3.83h2l.08 2.41h.1a3.68 3.68 0 0 1 3.4-2.69 2.43 2.43 0 0 1 .63.07v2.11a3.28 3.28 0 0 0-.76-.08 3.13 3.13 0 0 0-3 2.87 6.38 6.38 0 0 0-.11 1v6.55h-2.2zM618.28 325.64c0-1.27 0-2.31-.1-3.32h2l.1 2h.08a4.24 4.24 0 0 1 3.86-2.26 3.62 3.62 0 0 1 3.48 2.46h.05a5 5 0 0 1 1.37-1.6 4.2 4.2 0 0 1 2.72-.86c1.62 0 4 1.06 4 5.33v7.23h-2.18v-7c0-2.36-.86-3.79-2.67-3.79a2.89 2.89 0 0 0-2.64 2 3.7 3.7 0 0 0-.17 1.11v7.59H626v-7.36c0-1.95-.86-3.38-2.56-3.38a3.06 3.06 0 0 0-2.77 2.24 3 3 0 0 0-.18 1.09v7.41h-2.18zM646.26 334.6l-.18-1.54H646a4.56 4.56 0 0 1-3.75 1.82 3.5 3.5 0 0 1-3.76-3.53c0-3 2.64-4.59 7.39-4.57v-.25a2.54 2.54 0 0 0-2.8-2.84 6.13 6.13 0 0 0-3.2.91l-.5-1.47a7.61 7.61 0 0 1 4-1.09c3.76 0 4.68 2.56 4.68 5v4.6a17.41 17.41 0 0 0 .2 2.94zm-.33-6.27c-2.44-.05-5.21.38-5.21 2.77a2 2 0 0 0 2.11 2.13 3 3 0 0 0 3-2.05 2.27 2.27 0 0 0 .13-.71zM651.69 325.64c0-1.27 0-2.31-.1-3.32h2l.13 2a4.51 4.51 0 0 1 4.06-2.31c1.7 0 4.34 1 4.34 5.23v7.33h-2.23v-7.08c0-2-.74-3.63-2.85-3.63a3.17 3.17 0 0 0-3 2.29 3.2 3.2 0 0 0-.16 1v7.38h-2.23zM674.54 334.15a8.3 8.3 0 0 1-3.53.71c-3.71 0-6.12-2.51-6.12-6.27a6.24 6.24 0 0 1 6.6-6.53 7.39 7.39 0 0 1 3.1.64l-.51 1.72a5.23 5.23 0 0 0-2.59-.58c-2.81 0-4.34 2.08-4.34 4.65 0 2.84 1.83 4.59 4.27 4.59a6.31 6.31 0 0 0 2.74-.61zM678.25 328.87c0 3 2 4.26 4.21 4.26a8.14 8.14 0 0 0 3.4-.63l.38 1.6a10 10 0 0 1-4.08.76c-3.79 0-6-2.49-6-6.2s2.19-6.62 5.77-6.62c4 0 5.08 3.53 5.08 5.79a7.57 7.57 0 0 1-.08 1zm6.55-1.6c0-1.42-.59-3.63-3.1-3.63-2.26 0-3.25 2.08-3.43 3.63z"/><circle class="cls-6" cx="457.39" cy="217.26" r="4.48"/><circle class="cls-6" cx="457.76" cy="272" r="4.48"/><circle class="cls-6" cx="458.13" cy="326.74" r="4.48"/><path class="cls-5" d="M904.7 206.71h9.22v1.86h-7v5.69h6.48v1.82h-6.48v7.75h-2.22zM926.39 220.48c0 1.27 0 2.38.1 3.35h-2l-.13-2a4.62 4.62 0 0 1-4.06 2.29c-1.93 0-4.24-1.07-4.24-5.39v-7.18h2.23v6.8c0 2.34.71 3.91 2.74 3.91a3.24 3.24 0 0 0 3-2 3.17 3.17 0 0 0 .2-1.14v-7.54h2.24zM931.34 218.09c0 3 2 4.27 4.21 4.27a8 8 0 0 0 3.4-.64l.38 1.6a9.83 9.83 0 0 1-4.08.76c-3.79 0-6-2.49-6-6.19s2.19-6.63 5.77-6.63c4 0 5.08 3.53 5.08 5.79a9.4 9.4 0 0 1-.08 1zm6.55-1.6c0-1.42-.59-3.63-3.1-3.63-2.26 0-3.25 2.08-3.43 3.63zM942.81 205.8h2.24v18h-2.24zM965.31 217.58c0 4.55-3.15 6.53-6.12 6.53-3.33 0-5.89-2.44-5.89-6.32 0-4.12 2.69-6.53 6.09-6.53s5.92 2.56 5.92 6.32zm-9.75.13c0 2.69 1.55 4.72 3.73 4.72s3.73-2 3.73-4.77c0-2.08-1-4.72-3.68-4.72s-3.78 2.43-3.78 4.77zM968.12 215.55c0-1.57 0-2.84-.1-4h2l.1 2.11a4.83 4.83 0 0 1 4.37-2.39c3 0 5.2 2.51 5.2 6.25 0 4.41-2.69 6.6-5.58 6.6a4.32 4.32 0 0 1-3.79-1.93v6.68h-2.21zm2.21 3.28a5.07 5.07 0 0 0 .1.91 3.46 3.46 0 0 0 3.36 2.62c2.36 0 3.73-1.93 3.73-4.75 0-2.47-1.3-4.57-3.66-4.57a3.56 3.56 0 0 0-3.37 2.76 3.48 3.48 0 0 0-.16.92zM985.26 208v3.53h3.2v1.7h-3.2v6.63c0 1.52.43 2.38 1.68 2.38a4.81 4.81 0 0 0 1.29-.15l.1 1.68a5.4 5.4 0 0 1-2 .3 3.09 3.09 0 0 1-2.41-.94 4.57 4.57 0 0 1-.86-3.2v-6.7h-1.91v-1.7h1.91v-2.95zM993.46 208.09a1.31 1.31 0 0 1-1.42 1.37 1.33 1.33 0 0 1-1.35-1.37 1.37 1.37 0 0 1 1.4-1.4 1.33 1.33 0 0 1 1.37 1.4zM991 223.83v-12.29h2.24v12.29zM996.91 214.87c0-1.27 0-2.32-.1-3.33h2l.1 2h.07a4.24 4.24 0 0 1 3.86-2.26 3.63 3.63 0 0 1 3.48 2.46h.05a5.21 5.21 0 0 1 1.37-1.6 4.2 4.2 0 0 1 2.72-.86c1.63 0 4 1.07 4 5.33v7.24h-2.19v-7c0-2.36-.86-3.78-2.66-3.78a2.89 2.89 0 0 0-2.64 2 3.7 3.7 0 0 0-.18 1.12v7.59h-2.18v-7.37c0-2-.87-3.37-2.57-3.37a3.07 3.07 0 0 0-2.77 2.23 3.23 3.23 0 0 0-.17 1.09v7.42h-2.19zM1020.58 208.09a1.39 1.39 0 0 1-2.77 0 1.36 1.36 0 0 1 1.39-1.4 1.33 1.33 0 0 1 1.38 1.4zm-2.49 15.74v-12.29h2.23v12.29zM1022.63 222.53l5.56-7.23c.53-.66 1-1.25 1.6-1.91h-6.65v-1.8h9.37v1.4l-5.48 7.13c-.51.69-1 1.3-1.58 1.93v.05h7.19v1.78h-10zM1041.7 223.83l-.18-1.55h-.08a4.57 4.57 0 0 1-3.75 1.83 3.5 3.5 0 0 1-3.76-3.53c0-3 2.64-4.6 7.39-4.57v-.26a2.54 2.54 0 0 0-2.8-2.84 6.17 6.17 0 0 0-3.19.91l-.51-1.47a7.61 7.61 0 0 1 4-1.09c3.76 0 4.68 2.56 4.68 5v4.59a17.62 17.62 0 0 0 .2 3zm-.33-6.27c-2.44-.05-5.21.38-5.21 2.76a2 2 0 0 0 2.11 2.14 3.05 3.05 0 0 0 3-2.06 2.22 2.22 0 0 0 .13-.71zM1049.72 208v3.53h3.2v1.7h-3.2v6.63c0 1.52.43 2.38 1.68 2.38a4.81 4.81 0 0 0 1.29-.15l.1 1.68a5.4 5.4 0 0 1-2 .3 3.09 3.09 0 0 1-2.41-.94 4.57 4.57 0 0 1-.86-3.2v-6.7h-1.91v-1.7h1.91v-2.95zM1057.92 208.09a1.31 1.31 0 0 1-1.42 1.37 1.33 1.33 0 0 1-1.35-1.37 1.37 1.37 0 0 1 1.4-1.4 1.33 1.33 0 0 1 1.37 1.4zm-2.49 15.74v-12.29h2.24v12.29zM1072.49 217.58c0 4.55-3.14 6.53-6.12 6.53-3.32 0-5.89-2.44-5.89-6.32 0-4.12 2.7-6.53 6.1-6.53s5.91 2.56 5.91 6.32zm-9.75.13c0 2.69 1.55 4.72 3.74 4.72s3.73-2 3.73-4.77c0-2.08-1-4.72-3.68-4.72s-3.79 2.43-3.79 4.77zM1075.31 214.87c0-1.27 0-2.32-.1-3.33h2l.13 2a4.51 4.51 0 0 1 4.06-2.31c1.7 0 4.34 1 4.34 5.23v7.34h-2.23v-7.09c0-2-.74-3.63-2.85-3.63a3.17 3.17 0 0 0-3 2.29 3.26 3.26 0 0 0-.15 1v7.39h-2.24zM904.7 279.22V262.1h2.42l5.48 8.66a48.45 48.45 0 0 1 3.07 5.56h.05c-.2-2.29-.25-4.37-.25-7v-7.22h2.08v17.12h-2.23l-5.44-8.69a56.09 56.09 0 0 1-3.2-5.71h-.07c.13 2.15.18 4.21.18 7v7.32zM922.58 273.48c0 3 2 4.26 4.21 4.26a8.14 8.14 0 0 0 3.4-.63l.39 1.6a10.1 10.1 0 0 1-4.09.76c-3.79 0-6-2.49-6-6.19s2.19-6.63 5.77-6.63c4 0 5.08 3.53 5.08 5.79a7.57 7.57 0 0 1-.08 1zm6.55-1.6c0-1.42-.59-3.63-3.1-3.63-2.26 0-3.25 2.08-3.43 3.63zM936.74 263.4v3.53h3.2v1.7h-3.2v6.63c0 1.52.44 2.38 1.68 2.38a4.76 4.76 0 0 0 1.29-.15l.11 1.68a5.71 5.71 0 0 1-2 .3 3.11 3.11 0 0 1-2.42-.94 4.57 4.57 0 0 1-.86-3.2v-6.7h-1.9v-1.7h1.9V264zM943.57 266.93l1.63 6.24c.35 1.37.68 2.64.91 3.91h.08c.28-1.24.68-2.56 1.09-3.88l2-6.27h1.87l1.91 6.14c.46 1.47.81 2.77 1.09 4h.08a35.15 35.15 0 0 1 .94-4l1.75-6.17h2.21l-4 12.29h-2l-1.88-5.87a39.93 39.93 0 0 1-1.1-4 35.43 35.43 0 0 1-1.11 4.07l-2 5.84h-2l-3.7-12.29zM972.24 273c0 4.55-3.15 6.53-6.12 6.53-3.33 0-5.89-2.44-5.89-6.33 0-4.11 2.69-6.52 6.09-6.52s5.92 2.53 5.92 6.32zm-9.75.13c0 2.69 1.55 4.72 3.73 4.72s3.73-2 3.73-4.77c0-2.09-1-4.73-3.68-4.73s-3.78 2.41-3.78 4.75zM975.05 270.76c0-1.45 0-2.69-.1-3.83h2l.07 2.41h.11a3.67 3.67 0 0 1 3.4-2.69 2.43 2.43 0 0 1 .63.07v2.11a3.39 3.39 0 0 0-.76-.07 3.13 3.13 0 0 0-3 2.87 5.35 5.35 0 0 0-.11 1v6.55h-2.21zM985.67 272.56h.05c.3-.43.73-1 1.09-1.39l3.6-4.24h2.7l-4.75 5.07 5.41 7.24h-2.72l-4.24-5.89-1.14 1.27v4.62h-2.21v-18h2.21zM1000.75 270.25c0-1.27 0-2.31-.1-3.32h2l.1 2h.08a4.23 4.23 0 0 1 3.86-2.26 3.64 3.64 0 0 1 3.48 2.46 5.08 5.08 0 0 1 1.37-1.6 4.17 4.17 0 0 1 2.71-.86c1.63 0 4 1.06 4 5.33v7.24h-2.18v-7c0-2.36-.87-3.78-2.67-3.78a2.89 2.89 0 0 0-2.64 2 3.7 3.7 0 0 0-.18 1.12v7.59h-2.18v-7.37c0-2-.86-3.37-2.56-3.37a3 3 0 0 0-2.77 2.23 3 3 0 0 0-.18 1.09v7.42h-2.18zM1033 273c0 4.55-3.15 6.53-6.12 6.53-3.32 0-5.89-2.44-5.89-6.33 0-4.11 2.69-6.52 6.1-6.52s5.91 2.53 5.91 6.32zm-9.75.13c0 2.69 1.55 4.72 3.73 4.72s3.74-2 3.74-4.77c0-2.09-1-4.73-3.68-4.73s-3.75 2.41-3.75 4.75zM1046.47 261.19V276c0 1.09 0 2.34.1 3.18h-2l-.1-2.14a4.55 4.55 0 0 1-4.19 2.42c-3 0-5.26-2.52-5.26-6.25 0-4.09 2.51-6.6 5.51-6.6a4.12 4.12 0 0 1 3.71 1.88v-7.34zm-2.23 10.74a4.29 4.29 0 0 0-.1-.94 3.29 3.29 0 0 0-3.23-2.59c-2.31 0-3.68 2-3.68 4.75 0 2.49 1.22 4.54 3.63 4.54a3.37 3.37 0 0 0 3.28-2.66 4.25 4.25 0 0 0 .1-1zM1051.42 273.48a3.93 3.93 0 0 0 4.22 4.26 8.17 8.17 0 0 0 3.4-.63l.38 1.6a10.06 10.06 0 0 1-4.09.76c-3.78 0-6-2.49-6-6.19s2.18-6.63 5.76-6.63c4 0 5.08 3.53 5.08 5.79a10.18 10.18 0 0 1-.07 1zm6.55-1.6c0-1.42-.58-3.63-3.09-3.63-2.26 0-3.25 2.08-3.43 3.63zM1062.9 261.19h2.23v18h-2.23zM1071.38 263.47a1.39 1.39 0 0 1-2.77 0 1.36 1.36 0 0 1 1.4-1.39 1.33 1.33 0 0 1 1.37 1.39zm-2.49 15.75v-12.29h2.23v12.29zM1074.83 270.25c0-1.27 0-2.31-.1-3.32h2l.13 2h.05a4.51 4.51 0 0 1 4.06-2.31c1.7 0 4.34 1 4.34 5.23v7.34h-2.23v-7.09c0-2-.74-3.63-2.85-3.63a3.17 3.17 0 0 0-3 2.29 3.25 3.25 0 0 0-.16 1v7.39h-2.23zM1099.51 266.93c0 .89-.1 1.88-.1 3.37v7.14c0 2.82-.56 4.54-1.75 5.61a6.51 6.51 0 0 1-4.47 1.47 7.92 7.92 0 0 1-4.09-1l.56-1.7a7 7 0 0 0 3.6 1c2.29 0 4-1.19 4-4.29v-1.37a4.38 4.38 0 0 1-3.91 2.06c-3 0-5.23-2.59-5.23-6 0-4.16 2.72-6.52 5.54-6.52a4.09 4.09 0 0 1 3.83 2.13l.1-1.85zm-2.31 4.85a3.28 3.28 0 0 0-.13-1 3.23 3.23 0 0 0-3.12-2.36c-2.13 0-3.66 1.8-3.66 4.65 0 2.41 1.22 4.41 3.63 4.41a3.27 3.27 0 0 0 3.1-2.28 3.78 3.78 0 0 0 .18-1.19zM906.91 317.49v17.11h-2.21v-17.11zM911 325.64c0-1.27 0-2.31-.1-3.32h2l.12 2H913a4.51 4.51 0 0 1 4.06-2.31c1.7 0 4.34 1 4.34 5.23v7.33h-2.23v-7.08c0-2-.74-3.63-2.85-3.63a3.17 3.17 0 0 0-3 2.29 3 3 0 0 0-.16 1v7.38H911zM925.57 322.32l2.42 6.9c.4 1.12.73 2.13 1 3.15h.07c.28-1 .64-2 1-3.15l2.39-6.9h2.34L930 334.6h-2.13l-4.67-12.28zM937.91 328.87a3.93 3.93 0 0 0 4.22 4.26 8.17 8.17 0 0 0 3.4-.63l.38 1.6a10.06 10.06 0 0 1-4.09.76c-3.78 0-6-2.49-6-6.2S938 322 941.54 322c4 0 5.08 3.53 5.08 5.79a7.57 7.57 0 0 1-.08 1zm6.55-1.6c0-1.42-.58-3.63-3.09-3.63-2.26 0-3.25 2.08-3.43 3.63zM949.39 325.64c0-1.27 0-2.31-.1-3.32h2l.12 2h.05a4.53 4.53 0 0 1 4.07-2.31c1.7 0 4.34 1 4.34 5.23v7.33h-2.24v-7.08c0-2-.73-3.63-2.84-3.63a3.27 3.27 0 0 0-3.15 3.33v7.38h-2.23zM966.07 318.79v3.53h3.2V324h-3.2v6.62c0 1.53.43 2.39 1.67 2.39a5.29 5.29 0 0 0 1.3-.15l.1 1.67a5.41 5.41 0 0 1-2 .31 3.09 3.09 0 0 1-2.41-.94 4.52 4.52 0 0 1-.87-3.2V324H962v-1.7h1.9v-2.95zM982.75 328.36c0 4.54-3.15 6.52-6.12 6.52-3.33 0-5.89-2.43-5.89-6.32 0-4.11 2.69-6.52 6.09-6.52s5.92 2.56 5.92 6.32zm-9.75.13c0 2.69 1.55 4.72 3.73 4.72s3.73-2 3.73-4.77c0-2.09-1-4.73-3.68-4.73s-3.78 2.44-3.78 4.78zM985.57 326.15c0-1.45 0-2.69-.1-3.83h1.95l.08 2.41h.1A3.68 3.68 0 0 1 991 322a2.56 2.56 0 0 1 .64.07v2.11a3.44 3.44 0 0 0-.77-.08 3.13 3.13 0 0 0-3 2.87 6.44 6.44 0 0 0-.1 1v6.55h-2.21zM995.32 322.32l2.69 7.26c.28.81.58 1.77.78 2.51h.05c.23-.74.49-1.67.79-2.56l2.44-7.21h2.36l-3.35 8.76c-1.6 4.21-2.69 6.37-4.22 7.69a6.19 6.19 0 0 1-2.74 1.45l-.56-1.88a6.11 6.11 0 0 0 2-1.09 6.89 6.89 0 0 0 1.88-2.49 1.67 1.67 0 0 0 .18-.54 2.14 2.14 0 0 0-.16-.58l-4.54-11.32zM1018.65 334.6l-.18-1.54h-.08a4.56 4.56 0 0 1-3.75 1.82 3.5 3.5 0 0 1-3.76-3.53c0-3 2.64-4.59 7.39-4.57v-.25a2.54 2.54 0 0 0-2.8-2.84 6.13 6.13 0 0 0-3.2.91l-.5-1.47a7.58 7.58 0 0 1 4-1.09c3.76 0 4.68 2.56 4.68 5v4.6a17.41 17.41 0 0 0 .2 2.94zm-.33-6.27c-2.44-.05-5.21.38-5.21 2.77a2 2 0 0 0 2.11 2.13 3.06 3.06 0 0 0 3-2.05 2.27 2.27 0 0 0 .13-.71zM1024.08 325.64c0-1.27 0-2.31-.1-3.32h2l.13 2h.05a4.51 4.51 0 0 1 4.06-2.31c1.7 0 4.34 1 4.34 5.23v7.33h-2.23v-7.08c0-2-.74-3.63-2.85-3.63a3.17 3.17 0 0 0-3 2.29 3.2 3.2 0 0 0-.16 1v7.38h-2.23zM1045 334.6l-.18-1.54h-.08a4.57 4.57 0 0 1-3.76 1.82 3.5 3.5 0 0 1-3.75-3.53c0-3 2.64-4.59 7.38-4.57v-.25a2.53 2.53 0 0 0-2.79-2.84 6.13 6.13 0 0 0-3.2.91l-.51-1.47a7.65 7.65 0 0 1 4-1.09c3.76 0 4.67 2.56 4.67 5v4.6a16.37 16.37 0 0 0 .21 2.94zm-.33-6.27c-2.44-.05-5.21.38-5.21 2.77a2 2 0 0 0 2.11 2.13 3.06 3.06 0 0 0 3-2.05 2.6 2.6 0 0 0 .13-.71zM1050.41 316.58h2.23v18h-2.23zM1057.21 322.32l2.69 7.26c.28.81.59 1.77.79 2.51.23-.74.48-1.67.79-2.56l2.44-7.21h2.36l-3.35 8.76c-1.6 4.21-2.7 6.37-4.22 7.69a6.19 6.19 0 0 1-2.74 1.45l-.56-1.88a6.07 6.07 0 0 0 2-1.09 6.78 6.78 0 0 0 1.88-2.49 1.46 1.46 0 0 0 .18-.54 2 2 0 0 0-.15-.58l-4.55-11.32zM1071.05 318.79v3.53h3.2V324h-3.2v6.62c0 1.53.43 2.39 1.67 2.39a5.29 5.29 0 0 0 1.3-.15l.1 1.67a5.41 5.41 0 0 1-2 .31 3.09 3.09 0 0 1-2.41-.94 4.53 4.53 0 0 1-.86-3.2V324H1067v-1.7h1.91v-2.95zM1079.25 318.86a1.39 1.39 0 0 1-2.77 0 1.36 1.36 0 0 1 1.4-1.39 1.32 1.32 0 0 1 1.37 1.39zm-2.49 15.74v-12.28h2.24v12.28zM1091.46 334.15a8.3 8.3 0 0 1-3.53.71c-3.71 0-6.12-2.51-6.12-6.27a6.24 6.24 0 0 1 6.6-6.53 7.39 7.39 0 0 1 3.1.64l-.51 1.72a5.23 5.23 0 0 0-2.59-.58c-2.81 0-4.34 2.08-4.34 4.65 0 2.84 1.83 4.59 4.27 4.59a6.31 6.31 0 0 0 2.74-.61zM1093.77 332.32a5.88 5.88 0 0 0 3 .89c1.62 0 2.38-.81 2.38-1.83s-.63-1.65-2.28-2.26c-2.21-.79-3.25-2-3.25-3.48 0-2 1.6-3.6 4.24-3.6a6.11 6.11 0 0 1 3 .76l-.56 1.62a4.81 4.81 0 0 0-2.51-.71c-1.32 0-2.06.76-2.06 1.68s.74 1.47 2.34 2.08c2.13.81 3.22 1.88 3.22 3.71 0 2.16-1.68 3.68-4.6 3.68a7 7 0 0 1-3.45-.84z"/><circle class="cls-6" cx="869.42" cy="217.26" r="4.48"/><circle class="cls-6" cx="869.79" cy="272" r="4.48"/><circle class="cls-6" cx="870.16" cy="326.74" r="4.48"/><path class="cls-5" d="M445.11 89.3l14.83-11.6 7 6.47 16.16-14 7.58 7.43 3.88-3.21c.57-.47 1.11-1 1.71-1.41 1.16-.85 1.9-1.63 1.47-3.4a5.4 5.4 0 0 1 3.43-6 5.76 5.76 0 0 1 6.88 2 5.88 5.88 0 0 1-.19 7.11 5.76 5.76 0 0 1-6.86 1.58c-.31-.15-.62-.32-1-.54l-9.36 7.8-7.41-7.53-16.34 14.06-7.1-6.55-7.6 5.94c-2.14 1.68-4.3 3.33-6.4 5a2 2 0 0 0-.65 1.29q-.06 6.52 0 13.07a3.89 3.89 0 0 0 4.12 4.13h26.62a1.6 1.6 0 0 0 1.4-.7 21.91 21.91 0 0 1 34.37-.16 1.89 1.89 0 0 0 1.76.87c1.3-.07 2.6 0 3.9 0a3.81 3.81 0 0 0 4-3.78c.11-3.61 0-7.22 0-11h-5.25l6.72-11.6 6.58 11.58h-5.22V107a6.71 6.71 0 0 1-6.89 6.89c-1.52 0-3.18-.39-4.5.12s-2.1 1.94-3.15 2.94a21.92 21.92 0 0 1-32.36-2.36 1.69 1.69 0 0 0-1.51-.71h-26.41a6.75 6.75 0 0 1-7.09-7.13V58a6.77 6.77 0 0 1 7.1-7.15h67.71a6.75 6.75 0 0 1 7.1 7.13v17.27h-2.82v-8.63-8.4c0-2.8-1.56-4.5-4.42-4.5h-67.4c-2.87 0-4.41 1.59-4.42 4.49V89.3zm34.16 23.25c4.2 5.19 9.59 7.86 16.28 7.52a18.67 18.67 0 0 0 14.22-7.58 19 19 0 0 0-30.5.06zM503.36 66a2.94 2.94 0 0 0-2.86 3 2.9 2.9 0 0 0 3 2.9 2.93 2.93 0 0 0-.13-5.85z"/><path class="cls-5" d="M494.49 118.22a5.77 5.77 0 0 1 0-11.54 5.77 5.77 0 1 1 0 11.54zm0-2.82a2.95 2.95 0 0 0 0-5.89 2.95 2.95 0 0 0 0 5.89zM907.73 58c1.95.47 3.94.78 5.83 1.43 16.93 5.79 22.27 27.4 10 40.44a24.75 24.75 0 0 1-35.81.66c-7-7.07-9.14-15.7-6.1-25.18s9.69-15 19.37-17l1.76-.38zm19.57 24.89a22 22 0 1 0-22 22 22 22 0 0 0 22-22z"/><path class="cls-5" d="M872.48 142c-.31-.13-.6-.27-.91-.39a5.94 5.94 0 0 1-3.43-7.82 5.88 5.88 0 0 1 7.91-3.14 1.2 1.2 0 0 0 1.58-.22q8-7.34 16-14.63c1.07-1 1.77-.93 2.79.16l7.13 7.63c.16.17.35.32.59.54 10.9-9.55 21.77-19.08 32.74-28.71l-3.79-3.61 13.25-3.56c-1.18 4.43-2.33 8.71-3.5 13.11l-3.76-3.94-11.37 9.92-22.08 19.36c-1.4 1.23-1.92 1.19-3.23-.19l-6.86-7.31c-.19-.19-.4-.37-.63-.59-2.83 2.57-5.64 5.11-8.43 7.66-2.34 2.14-4.66 4.32-7 6.45a1 1 0 0 0-.31 1.22 5.91 5.91 0 0 1-4 7.85 2.53 2.53 0 0 0-.44.21zm4.15-6a3 3 0 0 0-6 .09 3 3 0 1 0 6-.09zM906.34 94.77v3.94h-2.49V95c-1.32-.27-2.57-.44-3.76-.79-2.54-.76-2.53-.82-1.64-3.24l.2-.52c.8.35 1.55.73 2.33 1a8.27 8.27 0 0 0 5.22.34 3.67 3.67 0 0 0 2.86-3 3.57 3.57 0 0 0-1.53-3.67 21.59 21.59 0 0 0-2.75-1.54 39.34 39.34 0 0 1-4-2.06 6.06 6.06 0 0 1 1-10.65l.47-.2c.59-.22 1.48-.26 1.73-.69s.11-1.38.12-2.1v-1.67h2.52v3.55l5.25 1.41-1 2.74a25.08 25.08 0 0 0-3.54-1A9.8 9.8 0 0 0 904 73a3.2 3.2 0 0 0-1 5.74c1.06.67 2.21 1.19 3.32 1.78s2.3 1.07 3.34 1.75a6.29 6.29 0 0 1 3 6.41 6.57 6.57 0 0 1-4.54 5.56c-.6.2-1.12.34-1.78.53zM76.27 63.49H72L77.51 54 83 63.45h-4.27v9.07c1.12.17 2.26.29 3.38.53a22.94 22.94 0 0 1 15.22 10.54 1.28 1.28 0 0 0 1.26.69h7.02v-4.34l9.55 5.51-9.5 5.48v-4.2c-.27 0-.45-.08-.64-.08H98.3a1.33 1.33 0 0 0-.9.49 23.22 23.22 0 0 1-18.25 11h-.24a.89.89 0 0 0-.19.1v8.51H83l-5.52 9.55-5.48-9.44h4.3v-2.5-5.47c0-.52-.14-.71-.68-.76a23.12 23.12 0 0 1-18.05-10.95 1.08 1.08 0 0 0-.66-.51h-7.6V91l-9.55-5.51 9.5-5.49v4.2c.35 0 .58.07.82.07h6.39a1.07 1.07 0 0 0 1.06-.57 23.2 23.2 0 0 1 16.55-10.9c.71-.12 1.42-.17 2.19-.25zm-.39 32.34c8.82 0 15.5-3.66 19.37-9.76a1 1 0 0 0 .07-1.26C91.11 78.48 85.21 75 77.63 75S64 78.33 59.72 84.69a1.06 1.06 0 0 0 0 1.39c4.21 6.33 10.15 9.51 16.16 9.75z"/><path class="cls-5" d="M77.43 90.16a4.77 4.77 0 1 1 4.81-4.75 4.75 4.75 0 0 1-4.81 4.75zm2.41-4.77A2.4 2.4 0 0 0 77.43 83a2.42 2.42 0 0 0 0 4.84 2.4 2.4 0 0 0 2.41-2.45z"/></svg>