<svg id="Layer_1" data-name="Layer 1" xmlns="http://www.w3.org/2000/svg" width="100" height="100" viewBox="0 0 100 100"><title>team</title><path d="M6.79,51.41H0l8.66-15,8.63,14.94H10.52c.16,2.84-.44,5.6.44,8.28,1,3.06,3.23,4.8,6.53,5.45,0-2.09,0-4.09,0-6.08a9.21,9.21,0,0,1,6.84-8.79,27.16,27.16,0,0,1,3.95-.45c-4-1.59-5.87-4.42-5.18-8a6.78,6.78,0,0,1,13.31,0c.71,3.54-1.18,6.42-5.22,8l4.64.42a11.77,11.77,0,0,1,7.56-5.28,15.48,15.48,0,0,1,2.88-.31c2.2-.05,4.4,0,6.6,0,4.8-.13,8.63,1.64,11.29,5.62l4.73-.43a7.24,7.24,0,0,1-4.33-3,6.56,6.56,0,0,1-.92-5.13,6.73,6.73,0,0,1,6.7-5.33,6.83,6.83,0,0,1,6.54,5.4c.74,3.53-1,6.29-5.17,8.1a28,28,0,0,1,3.45.31A9.19,9.19,0,0,1,82.51,59c0,2,0,3.94,0,5.91a7.57,7.57,0,0,0,6.84-6.65,60.51,60.51,0,0,0,0-6.88H82.68c2.95-5.1,5.78-10,8.67-15l8.65,15H93.23c0,1.94,0,3.75,0,5.56-.15,5.09-2.46,8.87-7.15,10.9a14,14,0,0,1-5.21,1c-7.6.11-15.2.06-22.8,0a1.36,1.36,0,0,0-1.45.85,7,7,0,0,1-6.56,4.06,7,7,0,0,1-6.61-4,1.5,1.5,0,0,0-1.63-.92c-7.71,0-15.43,0-23.14,0a11.68,11.68,0,0,1-11.58-9.3,15.7,15.7,0,0,1-.29-3C6.75,54.91,6.79,53.24,6.79,51.41ZM62.3,64.63c0-3,.22-5.88,0-8.71-.45-4.75-3.8-7.6-8.56-7.64-2.76,0-5.52,0-8.28,0-3.63.1-7.14,3-7.52,6.6-.33,3.13-.15,6.32-.18,9.48,0,0,.09.11.2.23,1.28,0,2.62,0,4,0,.73,0,.95-.32,1.29-.89a11.6,11.6,0,0,1,2.44-3.23,7.31,7.31,0,0,1,11.29,3.2c.15.36.57.84.9.86C59.24,64.68,60.7,64.63,62.3,64.63Zm-41-.07H34.13V53.73a2.26,2.26,0,0,0-.7-.18c-2.45,0-4.92-.17-7.36,0a5.1,5.1,0,0,0-4.71,4.26A59.92,59.92,0,0,0,21.31,64.56Zm44.58-11v11h12.9c0-2,.1-4,0-6a5.12,5.12,0,0,0-4.42-4.89,41.17,41.17,0,0,0-5.67-.2C67.71,53.49,66.75,53.57,65.89,53.61ZM46.24,66.38a3.77,3.77,0,1,0,7.53.08,3.77,3.77,0,1,0-7.53-.08Zm24-20.23a3.07,3.07,0,0,0,3.12-3.09,3.13,3.13,0,1,0-3.12,3.09Zm-40.49,0a3.09,3.09,0,0,0,3.13-3.09,3.13,3.13,0,0,0-6.25,0A3.08,3.08,0,0,0,29.76,46.15Z"/><path d="M50,43.23a8.52,8.52,0,1,1,8.52-8.52A8.54,8.54,0,0,1,50,43.23ZM45.17,34.7a4.84,4.84,0,1,0,4.89-4.88A4.81,4.81,0,0,0,45.17,34.7Z"/></svg>