<svg id="Layer_1" data-name="Layer 1" xmlns="http://www.w3.org/2000/svg" width="100" height="100" viewBox="0 0 100 100"><title>upgrading-product</title><path d="M18.86,23.71V22.63a14.06,14.06,0,0,1,1.57-1.22Q31.79,14.83,43.17,8.29A1.34,1.34,0,0,0,44,6.72a5.25,5.25,0,0,1,1.7-4.89A18.91,18.91,0,0,1,48.81,0H51.4c.28.13.55.29.84.4a6,6,0,0,1,3.81,6.43c-.13.79.15,1,.73,1.39q11.55,6.65,23.07,13.33a10.11,10.11,0,0,1,1.29,1.08v1.51a1.43,1.43,0,0,0-.17.38c-1.88,12.41-3.78,24.81-5.6,37.23a4.09,4.09,0,0,1-2,3.26c-2.28,1.4-4.45,3-6.59,4.42a5.46,5.46,0,0,1,.83,1c.66,1.47,1.25,3,1.88,4.45a1.36,1.36,0,0,1-.6,2c-1.23.72-1.57,1.71-1.62,3.22a4,4,0,0,0,2,4.07,1.22,1.22,0,0,1,.35,1.13c-.6,1.68-1.25,3.35-2,5a1.35,1.35,0,0,1-1.11.64,3.61,3.61,0,0,0-4.35,1.72.43.43,0,0,1-.15.15c-1.43.72-1.47,2-1.21,3.29a.78.78,0,0,0,0,.21c.29.86-.1,1.33-.88,1.64-1.68.67-3.36,1.38-5,2.08h-.43c-.6-.75-1.19-1.52-1.8-2.26-.13-.15-.35-.33-.51-.32-2.3.15-5-.67-6.28,2.23a1.72,1.72,0,0,1-.25.35h-.43c-1.74-.74-3.47-1.48-5.22-2.21a1,1,0,0,1-.65-1.26,3.92,3.92,0,0,0-1.44-4.16c-1.23-1.15-2.25-1.94-4-1.44a1.13,1.13,0,0,1-1.51-.79c-.36-.9-.86-1.74-1.21-2.64-1.05-2.69-1-2.69,1.12-4.57a1.57,1.57,0,0,0,.49-.94c0-.52-.21-1.1-.08-1.59.46-1.82-.43-2.9-1.82-3.84a1.22,1.22,0,0,1-.37-1.11c.61-1.72,1.3-3.41,2-5.08.15-.34.58-.56.91-.87-1.82-1.23-3.66-2.61-5.64-3.76a6.06,6.06,0,0,1-3.27-4.94c-1.4-10.31-3-20.58-4.61-30.86C19.6,27.86,19.21,25.78,18.86,23.71ZM62.62,68.53c3.1-2.09,6.19-4.17,9.27-6.28a1.41,1.41,0,0,0,.42-.9q1.77-11.49,3.49-23c.61-4,1.23-8.06,1.87-12.27l-1,.57Q64.08,33.9,51.57,41.16a2.69,2.69,0,0,1-3.07,0c-8.3-4.84-16.63-9.63-25-14.44-.3-.17-.61-.32-1.11-.58l.63,4.32c1.4,9.22,2.89,18.43,4.14,27.66.36,2.71,1.13,4.72,3.69,6.06a71.65,71.65,0,0,1,6.4,4.22c2.12-.82,2.43-2.33,2-4.14a.4.4,0,0,0,0-.11.89.89,0,0,1,.6-1.19c1.28-.56,2.52-1.21,3.83-1.7,1.77-.65,1.79-.6,3,.85a6.66,6.66,0,0,0,.92,1c.38.31.88.37.9-.31,0-1.64,0-3.28,0-5.05H43.06l7-12.07,7,12.14H51.63v5.62a4.8,4.8,0,0,0,1-.57c.52-.54.93-1.18,1.47-1.7a1.17,1.17,0,0,1,1-.3c1.74.65,3.46,1.35,5.15,2.13a1.24,1.24,0,0,1,.52,1.07A3.49,3.49,0,0,0,62.4,68.4ZM23.49,23.15l1.27.76q12.15,7,24.3,14.05A1.67,1.67,0,0,0,51,38c8.24-4.8,16.51-9.55,24.77-14.32a7.42,7.42,0,0,0,.64-.46c-.07-.09-.08-.13-.11-.15q-10.69-6.2-21.42-12.38a1.13,1.13,0,0,0-1,.15,6.41,6.41,0,0,1-4.12,1.32,6.5,6.5,0,0,1-4.14-1.76ZM57.65,95.58c-.06-.63-.08-1.31-.19-2a1.62,1.62,0,0,1,.78-1.79A11.15,11.15,0,0,0,61,89.18a2.87,2.87,0,0,1,3.44-1.48,1.3,1.3,0,0,0,1.07-.18,1.65,1.65,0,0,0-.23-2.65,6.08,6.08,0,0,0-.74-.62C64,83.9,64,83.47,64,82.81a10.56,10.56,0,0,0,.15-3.62c-.35-1.66,0-2.81,1.45-3.64a1.12,1.12,0,0,0,.55-.8,1.67,1.67,0,0,0-2-1.72,6,6,0,0,0-.85.06c-.74.19-1.14-.14-1.59-.71a11.81,11.81,0,0,0-2.64-2.81,2.93,2.93,0,0,1-1.49-3.64,1.14,1.14,0,0,0-.2-1,1.63,1.63,0,0,0-2.65.25,5.56,5.56,0,0,0-.54.66c-.42.69-1,.73-1.74.61a10.2,10.2,0,0,0-3.52-.14c-1.78.37-3.1.08-4-1.59a1,1,0,0,0-.74-.43,1.62,1.62,0,0,0-1.66,2,6,6,0,0,0,.06.85c.22.83-.16,1.28-.81,1.76a10.34,10.34,0,0,0-2.65,2.49A3.13,3.13,0,0,1,35.29,73a1,1,0,0,0-.81.25c-.84,1.09-.74,1.8.31,2.67a4.74,4.74,0,0,1,.89.77,1.8,1.8,0,0,1,.36,1,19.14,19.14,0,0,0-.11,4.06,2.94,2.94,0,0,1-1.52,3.44,1.13,1.13,0,0,0-.52.8c.08,1.31.73,1.82,2.06,1.73a4,4,0,0,0,.85-.09c.71-.21,1.06.14,1.51.66a28,28,0,0,0,3.37,3.43c.74.6,1.11,1.12.89,2-.06.24,0,.52-.06.75-.27.9.08,1.31.93,1.67a1.21,1.21,0,0,0,1.78-.5c.14-.25.38-.43.53-.67.48-.79,1.12-.85,2-.76a18.88,18.88,0,0,0,4.38,0,2.13,2.13,0,0,1,2.34.89c1.14,1.53,1.2,1.48,2.93.6A2.39,2.39,0,0,0,57.65,95.58ZM53.1,6.09a3.08,3.08,0,0,0-6.15,0,3.12,3.12,0,0,0,3,3A3.07,3.07,0,0,0,53.1,6.09Z"/><path d="M50.05,70.22A10.15,10.15,0,1,1,39.79,80.29,10.2,10.2,0,0,1,50.05,70.22Zm0,3a7.11,7.11,0,1,0,7.16,7.11A7.24,7.24,0,0,0,50.06,73.26Z"/></svg>