<svg id="Layer_1" data-name="Layer 1" xmlns="http://www.w3.org/2000/svg" width="100" height="100" viewBox="0 0 100 100"><title>assignment</title><path d="M18.81,10.59H36.53V5.28h9.24C46.53,2,48.44,0,51.82,0s5.32,2,6.1,5.24h9.15v5.3H84.82V36.35H90.3L83.4,48.1c-2.32-3.93-4.55-7.72-6.9-11.72h5.34V13.58c-.35,0-.66-.08-1-.08-4.2,0-8.4,0-12.6,0-.89,0-1.2.26-1.15,1.16.06,1.38,0,2.77,0,4.2H36.58V13.58H21.85v53.6c6.07-1.4,11.6-.46,16.28,3.71s6.32,9.44,5.36,15.64H64.82V69.63H88c-.22.27-.38.51-.58.71q-9.93,9.3-19.9,18.58a2.79,2.79,0,0,1-1.71.57q-11,0-22.06,0A1.63,1.63,0,0,0,42,90.55a17.09,17.09,0,0,1-18.5,9.17A16.69,16.69,0,0,1,9.79,84.92c-.64-6.87,2.23-12.19,8-15.87a1.82,1.82,0,0,0,1-1.79q0-27.53,0-55Zm7.88,86.54a13.87,13.87,0,1,0,.07-27.73,13.87,13.87,0,1,0-.07,27.73ZM39.48,16H64.1V8.11c-2.13,0-4.17,0-6.2,0a1.37,1.37,0,0,0-.88.62,6,6,0,0,1-10.34,0c-.17-.25-.41-.62-.63-.63-2.17,0-4.35,0-6.57,0ZM67.82,84.66,80.76,72.55H67.82Zm-16-75.8a3.06,3.06,0,0,0,3.17-3,3.09,3.09,0,0,0-3.09-3,3,3,0,0,0-3.12,3.05A3,3,0,0,0,51.81,8.86Z"/><path d="M35.87,57V54.23h31.7V57Z"/><path d="M35.87,31.28V28.54h31.7v2.74Z"/><path d="M67.57,41.37v2.76H35.91V41.37Z"/><path d="M21.49,81.41l2.9,4.12L35.2,78l1.65,2.24L23.67,89.46,19.18,83Z"/></svg>