<svg id="Layer_1" data-name="Layer 1" xmlns="http://www.w3.org/2000/svg" width="100" height="100" viewBox="0 0 100 100"><title>solution</title><path d="M51.92,84.8h6.57c1.47,0,2.26.67,2.23,1.83s-.77,1.68-2.23,1.69c-2.16,0-4.32,0-6.57,0v2.32c1.36,0,2.7,0,4,0S58,91.3,58,92.4s-.71,1.73-2,1.75-2.68,0-4.08,0v2.32h5.5c.41,0,.82,0,1.23,0,1.41,0,2.14.7,2.1,1.83S59.94,100,58.61,100q-4.05,0-8.09,0c-1.73,0-2.35-.63-2.35-2.37q0-10.05,0-20.09V76.06c-1.85,0-3.6,0-5.34,0A30,30,0,0,1,39.29,76a3.64,3.64,0,0,1-3.41-3.81c.17-3.9-1.36-7.12-3.59-10.17a64.45,64.45,0,0,1-4.2-6.3A25.75,25.75,0,0,1,24.65,42a1.45,1.45,0,0,0-.71-1.51,7,7,0,0,1-3-8.38,7.21,7.21,0,0,1,7.68-4.81,1.7,1.7,0,0,0,1.72-.75c5.81-6.92,13.34-9.67,22.21-9a26.86,26.86,0,0,1,15.31,6.18c6.92,5.75,10,13.12,9,22.12-.1.85.16,1.13.9,1.35,1.55.46,3.07,1,4.8,1.57L69.93,59.7C68.8,54.28,67.71,49,66.56,43.56L73,45.64c1.51-6.4-1.33-16.74-12-22.06-10-5-22.66-2.55-28.15,5.47,4.52,4.87,1.69,11.83-4.59,12.64a19.09,19.09,0,0,0,1.88,10.08,53.75,53.75,0,0,0,4.41,7.31c2,2.86,4,5.71,4.57,9.23a17.26,17.26,0,0,1,.22,3c0,.82.22,1.2,1.1,1.19,2.48,0,5,0,7.57,0V58.48a9.88,9.88,0,0,1-6.9-5.4,9.28,9.28,0,0,1-.6-6.45A9.77,9.77,0,0,1,59.65,47.7C60.2,52,58,56.87,51.89,58.5v14c3.17,0,6.3,0,9.43,0,.31,0,.77-.64.89-1.06.58-2.07,1.06-4.18,1.62-6.26a12.09,12.09,0,0,1,.7-1.65l3,1.4c-.62,2.63-1.2,5.16-1.82,7.66s-1.78,3.4-4.24,3.45c-3.14.08-6.28,0-9.51,0Zm-2-29.66a6.12,6.12,0,0,0,6.31-6.08,6.24,6.24,0,0,0-12.48,0A6.13,6.13,0,0,0,49.93,55.14ZM27.77,30.63A3.74,3.74,0,0,0,24,34.44a3.81,3.81,0,0,0,3.88,3.73,3.76,3.76,0,0,0,3.78-3.82A3.7,3.7,0,0,0,27.77,30.63Z"/><path d="M48.18,6.23c0-1.38,0-2.77,0-4.15S49,0,50.06,0s1.74.8,1.75,2.08q0,4.15,0,8.31a1.86,1.86,0,0,1-1.75,2.09c-1.09,0-1.85-.78-1.87-2.09S48.18,7.62,48.18,6.23Z"/><path d="M80.21,10.21a8.62,8.62,0,0,1-1,1.48c-2,2-4,4-6,5.93-1,.94-2,1-2.8.21S69.79,16,70.76,15c2-2,4-4,6-5.86a2.58,2.58,0,0,1,2.08-.43C79.4,8.88,79.75,9.67,80.21,10.21Z"/><path d="M30.58,16.74c-.41.5-.69,1.18-1.15,1.34A2.27,2.27,0,0,1,27.54,18c-2.32-2.11-4.54-4.32-6.74-6.55A1.71,1.71,0,0,1,20.93,9a1.84,1.84,0,0,1,2.54.1c1.37,1.28,2.68,2.62,4,3.93.75.75,1.54,1.46,2.24,2.24A8.2,8.2,0,0,1,30.58,16.74Z"/><path d="M14.93,71c-.48-.37-1.2-.65-1.39-1.14A2.16,2.16,0,0,1,13.7,68c2.12-2.25,4.34-4.41,6.57-6.55a1.77,1.77,0,0,1,2.53.12A1.68,1.68,0,0,1,22.74,64c-2.12,2.14-4.28,4.24-6.45,6.32A6.18,6.18,0,0,1,14.93,71Z"/><path d="M86.88,69.2c-.33.42-.63,1.13-1.12,1.32a2.21,2.21,0,0,1-1.88-.17c-2.32-2.11-4.54-4.32-6.74-6.55a1.66,1.66,0,0,1,.19-2.41,1.77,1.77,0,0,1,2.54.14c2.11,2,4.18,4.1,6.27,6.16a1.05,1.05,0,0,1,.24.28C86.53,68.29,86.65,68.63,86.88,69.2Z"/><path d="M11.14,36c1.42,0,2.85,0,4.28,0,1.26,0,2.07.74,2.06,1.77a1.78,1.78,0,0,1-2,1.74c-2.94,0-5.87,0-8.81,0a1.74,1.74,0,0,1-1.93-1.76,1.78,1.78,0,0,1,2-1.74C8.2,36,9.67,36,11.14,36Z"/><path d="M88.85,39.53c-1.47,0-2.94,0-4.4,0a1.79,1.79,0,0,1-1.93-1.77,1.8,1.8,0,0,1,2-1.72c2.93,0,5.87,0,8.8,0a1.77,1.77,0,0,1,1.92,1.78,1.76,1.76,0,0,1-2,1.71C91.79,39.55,90.32,39.53,88.85,39.53Z"/></svg>