<svg id="Layer_1" data-name="Layer 1" xmlns="http://www.w3.org/2000/svg" viewBox="0 0 1238.23 404"><defs><style>.cls-4,.cls-6{fill:none;stroke-miterlimit:10;stroke-width:3px}.cls-3{fill:#fcddd6}.cls-4{stroke:#fbc2ba}.cls-5{fill:#4c0519}.cls-6{stroke:#4c0519}</style></defs><path fill="#fbc2ba" d="M415.13 0v404H823.1V.09L415.13 0z"/><path stroke="#f16c51" fill="none" stroke-miterlimit="10" stroke-width="3" d="M434.23 170.99L804 172.13"/><path class="cls-3" d="M830.26.11v403.8h407.97V0L830.26.11z"/><path class="cls-4" d="M849.36 170.99l369.77-.06"/><path class="cls-3" d="M0 0v404h407.97V.09L0 0z"/><path class="cls-4" d="M19.1 170.99l369.77-.06"/><path class="cls-5" d="M121.54 80.88H115v-3.49h17.23v3.49h-6.56v19.33h-4.17zM135.12 93.13c.1 3 2.43 4.27 5.07 4.27a12.24 12.24 0 0 0 4.57-.75l.61 2.88a15.61 15.61 0 0 1-5.75 1c-5.35 0-8.5-3.28-8.5-8.32 0-4.57 2.78-8.87 8.06-8.87s7.11 4.4 7.11 8a9.88 9.88 0 0 1-.14 1.76zm7.24-2.91c0-1.52-.64-4-3.42-4-2.57 0-3.65 2.34-3.82 4zM161.76 99.7a12.22 12.22 0 0 1-4.68.84c-5.14 0-8.49-3.28-8.49-8.39 0-4.94 3.38-8.8 9.17-8.8a10.38 10.38 0 0 1 4 .78l-.76 3.11a7.34 7.34 0 0 0-3.14-.64c-3.18 0-5.08 2.33-5.05 5.35 0 3.38 2.2 5.31 5.05 5.31a8.12 8.12 0 0 0 3.28-.64zM164.84 76.18H169V86h.06a6 6 0 0 1 4.94-2.65c2.81 0 5.75 1.86 5.75 7.14v9.72h-4.15V91c0-2.41-.88-4.2-3.18-4.2a3.39 3.39 0 0 0-3.22 2.33 3.68 3.68 0 0 0-.16 1.26v9.85h-4.2zM184.2 88.63c0-1.89 0-3.49-.13-4.91h3.65l.2 2.47h.08a5.94 5.94 0 0 1 5.24-2.84c2.88 0 5.86 1.86 5.86 7.07v9.79H195V90.9c0-2.37-.88-4.16-3.14-4.16a3.49 3.49 0 0 0-3.25 2.43 4.12 4.12 0 0 0-.17 1.36v9.68h-4.2zM219.23 91.81c0 6.06-4.26 8.77-8.46 8.77-4.67 0-8.26-3.22-8.26-8.5s3.56-8.73 8.53-8.73 8.19 3.45 8.19 8.46zm-12.42.19c0 3.18 1.56 5.59 4.1 5.59 2.37 0 4-2.34 4-5.66 0-2.57-1.15-5.51-4-5.51s-4.1 2.82-4.1 5.58zM222.66 76.18h4.19v24h-4.19zM247 91.81c0 6.06-4.26 8.77-8.46 8.77-4.67 0-8.25-3.22-8.25-8.5s3.55-8.73 8.52-8.73S247 86.8 247 91.81zm-12.4.19c0 3.18 1.56 5.59 4.1 5.59 2.37 0 4-2.34 4-5.66 0-2.57-1.15-5.51-4-5.51s-4.1 2.82-4.1 5.58zM265.51 83.72c-.07 1.12-.14 2.47-.14 4.74v9.34c0 3.45-.71 5.92-2.43 7.48a9.52 9.52 0 0 1-6.37 2 11.64 11.64 0 0 1-5.75-1.32l.91-3.15a10 10 0 0 0 4.81 1.25c2.71 0 4.74-1.42 4.74-5v-1.39h-.07a5.58 5.58 0 0 1-4.81 2.43c-4.09 0-7-3.38-7-8 0-5.42 3.52-8.7 7.48-8.7a5.2 5.2 0 0 1 4.77 2.57h.07l.17-2.2zm-4.3 6.6a4 4 0 0 0-.14-1.11 3.45 3.45 0 0 0-3.38-2.68c-2.34 0-4.06 2-4.06 5.38 0 2.81 1.42 5.08 4 5.08a3.56 3.56 0 0 0 3.38-2.5 7.31 7.31 0 0 0 .17-1.49zM272.45 83.72l3 8.84c.34 1 .67 2.26.91 3.21h.1c.27-1 .58-2.16.88-3.25l2.57-8.8h4.47L280.23 95c-2.26 6.16-3.79 8.9-5.75 10.59a8.28 8.28 0 0 1-4.37 2.13l-.94-3.51a7.1 7.1 0 0 0 2.43-1.21 7.18 7.18 0 0 0 2.27-2.6 1.67 1.67 0 0 0 .27-.75 1.7 1.7 0 0 0-.24-.81l-6-15.13zM556 93.13c.1 3 2.44 4.27 5.08 4.27a12.28 12.28 0 0 0 4.57-.75l.61 2.88a15.67 15.67 0 0 1-5.76 1c-5.34 0-8.49-3.28-8.49-8.32 0-4.57 2.77-8.87 8-8.87s7.11 4.4 7.11 8a9.88 9.88 0 0 1-.14 1.76zm7.24-2.91c0-1.52-.64-4-3.41-4-2.58 0-3.66 2.34-3.83 4zM578.87 89.75v2.87h-8.63v-2.87zM599.07 99.53a14.37 14.37 0 0 1-5.89 1c-7.24 0-11.64-4.53-11.64-11.47 0-7.51 5.21-12 12.19-12a13.1 13.1 0 0 1 5.55 1l-.92 3.31a11.12 11.12 0 0 0-4.46-.88c-4.64 0-8 2.91-8 8.4 0 5 2.94 8.22 8 8.22a11.86 11.86 0 0 0 4.54-.84zM617.59 91.81c0 6.06-4.26 8.77-8.46 8.77-4.67 0-8.26-3.22-8.26-8.5s3.55-8.73 8.53-8.73 8.19 3.45 8.19 8.46zm-12.42.19c0 3.18 1.56 5.59 4.09 5.59 2.37 0 4-2.34 4-5.66 0-2.57-1.15-5.51-4-5.51s-4.09 2.82-4.09 5.58zM621 88.63c0-1.89 0-3.49-.13-4.91h3.58l.17 2.44h.11a5.69 5.69 0 0 1 5.07-2.81 4.75 4.75 0 0 1 4.57 3.05h.07a6.19 6.19 0 0 1 2-2.07 5.51 5.51 0 0 1 3.32-1c2.74 0 5.51 1.86 5.51 7.14v9.72h-4.06V91.1c0-2.74-1-4.36-2.94-4.36a3.17 3.17 0 0 0-2.91 2.19 5.61 5.61 0 0 0-.21 1.39v9.89h-4.06v-9.55c0-2.3-.91-3.92-2.84-3.92a3.24 3.24 0 0 0-3 2.36 3.57 3.57 0 0 0-.24 1.36v9.75H621zM649.72 88.63c0-1.89 0-3.49-.14-4.91h3.59l.17 2.44h.1a5.69 5.69 0 0 1 5.08-2.81 4.76 4.76 0 0 1 4.57 3.05h.06a6.31 6.31 0 0 1 2-2.07 5.5 5.5 0 0 1 3.31-1c2.74 0 5.52 1.86 5.52 7.14v9.72H670V91.1c0-2.74-1-4.36-3-4.36a3.17 3.17 0 0 0-2.91 2.19 6.13 6.13 0 0 0-.2 1.39v9.89h-4.06v-9.55c0-2.3-.92-3.92-2.84-3.92a3.24 3.24 0 0 0-3 2.36 3.57 3.57 0 0 0-.24 1.36v9.75h-4.06zM681.37 93.13c.1 3 2.43 4.27 5.08 4.27a12.23 12.23 0 0 0 4.56-.75l.61 2.88a15.61 15.61 0 0 1-5.75 1c-5.35 0-8.49-3.28-8.49-8.32 0-4.57 2.77-8.87 8-8.87s7.11 4.4 7.11 8a9.88 9.88 0 0 1-.14 1.76zm7.24-2.91c0-1.52-.64-4-3.42-4-2.57 0-3.65 2.34-3.82 4zM695.89 89c0-2.24 0-3.83-.13-5.32h3.62l.13 3.15h.14a4.92 4.92 0 0 1 4.5-3.52 4.28 4.28 0 0 1 1 .1v3.93a5.62 5.62 0 0 0-1.22-.14 3.67 3.67 0 0 0-3.72 3.15 6.88 6.88 0 0 0-.14 1.29v8.53h-4.16zM719.75 99.7a12.16 12.16 0 0 1-4.67.84c-5.14 0-8.49-3.28-8.49-8.39 0-4.94 3.38-8.8 9.17-8.8a10.42 10.42 0 0 1 4 .78l-.76 3.11a7.38 7.38 0 0 0-3.14-.64c-3.19 0-5.08 2.33-5 5.35 0 3.38 2.2 5.31 5 5.31a8.12 8.12 0 0 0 3.28-.64zM725.48 93.13c.1 3 2.43 4.27 5.07 4.27a12.24 12.24 0 0 0 4.57-.75l.61 2.88a15.61 15.61 0 0 1-5.75 1c-5.35 0-8.5-3.28-8.5-8.32 0-4.57 2.78-8.87 8.06-8.87s7.1 4.4 7.1 8a10.09 10.09 0 0 1-.13 1.76zm7.24-2.91c0-1.52-.64-4-3.42-4-2.57 0-3.65 2.34-3.82 4zM970.52 99.53a14.37 14.37 0 0 1-5.89 1C957.39 100.54 953 96 953 89.07c0-7.51 5.21-12 12.19-12a13.1 13.1 0 0 1 5.55 1l-.92 3.31a11.13 11.13 0 0 0-4.47-.88c-4.63 0-8 2.91-8 8.4 0 5 2.94 8.22 7.95 8.22a11.86 11.86 0 0 0 4.54-.84zM973.81 76.18H978v24h-4.2zM986.94 79.12a2.34 2.34 0 0 1-4.67 0 2.34 2.34 0 0 1 4.67 0zm-4.43 21.09V83.72h4.2v16.49zM994.12 93.13c.1 3 2.44 4.27 5.08 4.27a12.28 12.28 0 0 0 4.57-.75l.61 2.88a15.71 15.71 0 0 1-5.76 1c-5.35 0-8.49-3.28-8.49-8.32 0-4.57 2.77-8.87 8-8.87s7.11 4.4 7.11 8a9.88 9.88 0 0 1-.14 1.76zm7.24-2.91c0-1.52-.64-4-3.42-4-2.57 0-3.65 2.34-3.82 4zM1008.64 88.63c0-1.89 0-3.49-.13-4.91h3.65l.21 2.47h.1a5.94 5.94 0 0 1 5.24-2.84c2.88 0 5.86 1.86 5.86 7.07v9.79h-4.17V90.9c0-2.37-.87-4.16-3.14-4.16a3.49 3.49 0 0 0-3.25 2.43 4.12 4.12 0 0 0-.17 1.36v9.68h-4.2zM1032.61 79v4.7h4v3.12h-4v7.27c0 2 .54 3 2.13 3a6.34 6.34 0 0 0 1.63-.2l.06 3.18a9.36 9.36 0 0 1-3 .4 4.82 4.82 0 0 1-3.59-1.35c-.88-1-1.28-2.44-1.28-4.6v-7.68h-2.37v-3.12h2.37V80zM1046.52 96.38a9.23 9.23 0 0 0 4.23 1.19c1.83 0 2.64-.75 2.64-1.83s-.68-1.69-2.71-2.41c-3.21-1.11-4.56-2.87-4.53-4.8 0-2.91 2.4-5.18 6.23-5.18a9.66 9.66 0 0 1 4.36 1l-.81 3a7.35 7.35 0 0 0-3.49-1c-1.48 0-2.3.71-2.3 1.72s.78 1.56 2.88 2.31c3 1.08 4.37 2.6 4.4 5 0 3-2.34 5.14-6.7 5.14a10.6 10.6 0 0 1-5-1.15zM1063.78 93.13c.11 3 2.44 4.27 5.08 4.27a12.24 12.24 0 0 0 4.57-.75l.61 2.88a15.61 15.61 0 0 1-5.75 1c-5.35 0-8.5-3.28-8.5-8.32 0-4.57 2.78-8.87 8.06-8.87s7.1 4.4 7.1 8a10.09 10.09 0 0 1-.13 1.76zm7.25-2.91c0-1.52-.65-4-3.42-4-2.57 0-3.66 2.34-3.83 4zM1078.31 89c0-2.24 0-3.83-.14-5.32h3.62l.14 3.15h.13a4.93 4.93 0 0 1 4.51-3.52 4.28 4.28 0 0 1 1 .1v3.93a5.62 5.62 0 0 0-1.22-.14 3.67 3.67 0 0 0-3.72 3.15 6.88 6.88 0 0 0-.14 1.29v8.53h-4.16zM1093.74 83.72l2.68 8.36c.47 1.46.81 2.78 1.11 4.13h.1c.31-1.35.68-2.64 1.12-4.13l2.61-8.36h4.4l-6.3 16.49h-4.09l-6.13-16.49zM1112.73 79.12a2.34 2.34 0 0 1-4.67 0 2.34 2.34 0 0 1 4.67 0zm-4.43 21.09V83.72h4.2v16.49zM1129.08 99.7a12.2 12.2 0 0 1-4.67.84c-5.14 0-8.49-3.28-8.49-8.39 0-4.94 3.38-8.8 9.17-8.8a10.33 10.33 0 0 1 4 .78l-.74 3.11a7.43 7.43 0 0 0-3.15-.64c-3.18 0-5.07 2.33-5 5.35 0 3.38 2.2 5.31 5 5.31a8.08 8.08 0 0 0 3.28-.64zM1134.8 93.13c.1 3 2.44 4.27 5.08 4.27a12.24 12.24 0 0 0 4.57-.75l.61 2.88a15.67 15.67 0 0 1-5.76 1c-5.34 0-8.49-3.28-8.49-8.32 0-4.57 2.77-8.87 8-8.87s7.11 4.4 7.11 8a11.21 11.21 0 0 1-.13 1.76zm7.25-2.91c0-1.52-.65-4-3.42-4-2.57 0-3.66 2.34-3.83 4zM1149.12 96.38a9.23 9.23 0 0 0 4.23 1.19c1.83 0 2.64-.75 2.64-1.83s-.67-1.69-2.7-2.41c-3.22-1.11-4.57-2.87-4.54-4.8 0-2.91 2.4-5.18 6.23-5.18a9.59 9.59 0 0 1 4.36 1l-.81 3a7.35 7.35 0 0 0-3.49-1c-1.48 0-2.3.71-2.3 1.72s.78 1.56 2.88 2.31c3 1.08 4.37 2.6 4.4 5 0 3-2.33 5.14-6.7 5.14a10.6 10.6 0 0 1-5-1.15zM76.7 206.94a21.8 21.8 0 0 1 4-.35c2.21 0 3.63.38 4.7 1.24a3.59 3.59 0 0 1 1.42 3 4.06 4.06 0 0 1-2.9 3.76 4.41 4.41 0 0 1 3.57 4.41 4.62 4.62 0 0 1-1.44 3.43c-1.2 1.09-3.13 1.6-5.92 1.6a26.35 26.35 0 0 1-3.43-.2zm2.21 7h2c2.33 0 3.71-1.22 3.71-2.87 0-2-1.53-2.79-3.76-2.79a10.08 10.08 0 0 0-2 .15zm0 8.2a11.44 11.44 0 0 0 1.86.1c2.28 0 4.39-.83 4.39-3.32s-2-3.3-4.42-3.3h-1.83zM90.39 205.8h2.23v18h-2.23zM107.5 217.58c0 4.55-3.15 6.53-6.12 6.53-3.33 0-5.89-2.44-5.89-6.32 0-4.12 2.69-6.53 6.09-6.53s5.92 2.56 5.92 6.32zm-9.75.13c0 2.69 1.55 4.72 3.73 4.72s3.73-2 3.73-4.77c0-2.08-1-4.72-3.68-4.72s-3.78 2.43-3.78 4.77zM119.08 223.37a8.18 8.18 0 0 1-3.53.71c-3.71 0-6.12-2.51-6.12-6.27a6.24 6.24 0 0 1 6.6-6.52 7.57 7.57 0 0 1 3.1.63l-.51 1.73a5.1 5.1 0 0 0-2.59-.59c-2.82 0-4.34 2.08-4.34 4.65 0 2.84 1.83 4.59 4.27 4.59a6.55 6.55 0 0 0 2.74-.6zM123.9 217.18c.31-.44.74-1 1.09-1.4l3.61-4.24h2.69l-4.75 5.05 5.41 7.24h-2.72l-4.23-5.89-1.14 1.27v4.62h-2.21v-18h2.21zM142.36 223.37a8.14 8.14 0 0 1-3.53.71c-3.71 0-6.12-2.51-6.12-6.27a6.24 6.24 0 0 1 6.6-6.52 7.57 7.57 0 0 1 3.1.63l-.51 1.73a5.1 5.1 0 0 0-2.59-.59c-2.82 0-4.34 2.08-4.34 4.65 0 2.84 1.83 4.59 4.27 4.59a6.51 6.51 0 0 0 2.74-.6zM145 205.8h2.24v7.67a4.12 4.12 0 0 1 1.6-1.58 4.58 4.58 0 0 1 2.28-.63c1.65 0 4.29 1 4.29 5.26v7.31h-2.21v-7.06c0-2-.74-3.66-2.84-3.66a3.22 3.22 0 0 0-3 2.24 2.61 2.61 0 0 0-.15 1.06v7.42H145zM165.87 223.83l-.18-1.55h-.07a4.61 4.61 0 0 1-3.76 1.83 3.5 3.5 0 0 1-3.76-3.53c0-3 2.64-4.6 7.39-4.57v-.26a2.53 2.53 0 0 0-2.79-2.84 6.17 6.17 0 0 0-3.2.91l-.51-1.47a7.62 7.62 0 0 1 4-1.09c3.75 0 4.67 2.56 4.67 5v4.59a17.62 17.62 0 0 0 .2 3zm-.33-6.27c-2.44-.05-5.21.38-5.21 2.76a2 2 0 0 0 2.11 2.14 3.05 3.05 0 0 0 3-2.06 2.22 2.22 0 0 0 .13-.71zM173.79 208.09a1.39 1.39 0 0 1-2.77 0 1.37 1.37 0 0 1 1.4-1.4 1.33 1.33 0 0 1 1.37 1.4zm-2.49 15.74v-12.29h2.24v12.29zM177.24 214.87c0-1.27 0-2.32-.1-3.33h2l.13 2h.05a4.51 4.51 0 0 1 4.06-2.31c1.7 0 4.34 1 4.34 5.23v7.34h-2.23v-7.09c0-2-.74-3.63-2.84-3.63a3.17 3.17 0 0 0-3 2.29 3.26 3.26 0 0 0-.15 1v7.39h-2.24zM79.47 273.83l-1.78 5.39h-2.28l5.81-17.12h2.67l5.84 17.12h-2.36l-1.83-5.39zm5.61-1.72l-1.67-4.93c-.38-1.12-.64-2.13-.89-3.12-.26 1-.54 2.06-.87 3.1l-1.67 4.95zM102.14 275.87c0 1.26 0 2.38.11 3.35h-2l-.13-2A4.64 4.64 0 0 1 96 279.5c-1.93 0-4.24-1.07-4.24-5.39v-7.18H94v6.8c0 2.34.71 3.91 2.74 3.91a3.24 3.24 0 0 0 2.95-2 3.4 3.4 0 0 0 .2-1.14v-7.54h2.23zM116.44 266.93c0 .89-.1 1.88-.1 3.37v7.14c0 2.82-.56 4.54-1.76 5.61a6.49 6.49 0 0 1-4.46 1.47 7.92 7.92 0 0 1-4.09-1l.56-1.7a7 7 0 0 0 3.6 1c2.29 0 4-1.19 4-4.29v-1.37h-.05a4.38 4.38 0 0 1-3.91 2.06c-3 0-5.23-2.59-5.23-6 0-4.16 2.72-6.52 5.54-6.52a4.09 4.09 0 0 1 3.83 2.13l.1-1.85zm-2.31 4.85a3.28 3.28 0 0 0-.13-1 3.23 3.23 0 0 0-3.12-2.36c-2.14 0-3.66 1.8-3.66 4.65 0 2.41 1.22 4.41 3.63 4.41a3.27 3.27 0 0 0 3.1-2.28 3.78 3.78 0 0 0 .18-1.19zM119.89 270.25c0-1.27 0-2.31-.1-3.32h1.95l.11 2h.07a4.24 4.24 0 0 1 3.86-2.26 3.62 3.62 0 0 1 3.48 2.46h.05a5.08 5.08 0 0 1 1.37-1.6 4.2 4.2 0 0 1 2.72-.86c1.62 0 4 1.06 4 5.33v7.24h-2.19v-7c0-2.36-.86-3.78-2.66-3.78a2.89 2.89 0 0 0-2.64 2 3.41 3.41 0 0 0-.18 1.12v7.59h-2.19v-7.37c0-2-.86-3.37-2.56-3.37a3 3 0 0 0-2.77 2.23 3.24 3.24 0 0 0-.18 1.09v7.42h-2.18zM142.31 273.48c.05 3 2 4.26 4.21 4.26a8.22 8.22 0 0 0 3.41-.63l.38 1.6a10.1 10.1 0 0 1-4.09.76c-3.78 0-6-2.49-6-6.19s2.18-6.63 5.76-6.63c4 0 5.08 3.53 5.08 5.79a7.57 7.57 0 0 1-.08 1zm6.55-1.6c0-1.42-.58-3.63-3.1-3.63-2.26 0-3.25 2.08-3.43 3.63zM153.78 270.25c0-1.27 0-2.31-.1-3.32h2l.13 2h.05a4.51 4.51 0 0 1 4.06-2.31c1.7 0 4.34 1 4.34 5.23v7.34H162v-7.09c0-2-.74-3.63-2.84-3.63a3.17 3.17 0 0 0-3 2.29 3.26 3.26 0 0 0-.15 1v7.39h-2.24zM170.46 263.4v3.53h3.2v1.7h-3.2v6.63c0 1.52.44 2.38 1.68 2.38a4.9 4.9 0 0 0 1.3-.15l.1 1.68a5.67 5.67 0 0 1-2 .3 3.12 3.12 0 0 1-2.42-.94 4.57 4.57 0 0 1-.86-3.2v-6.7h-1.9v-1.7h1.9V264zM177.27 273.48c0 3 2 4.26 4.21 4.26a8.22 8.22 0 0 0 3.41-.63l.38 1.6a10.1 10.1 0 0 1-4.09.76c-3.78 0-6-2.49-6-6.19s2.18-6.63 5.76-6.63c4 0 5.08 3.53 5.08 5.79a7.57 7.57 0 0 1-.08 1zm6.55-1.6c0-1.42-.58-3.63-3.1-3.63-2.26 0-3.25 2.08-3.43 3.63zM199.36 261.19V276c0 1.09 0 2.34.1 3.18h-2l-.1-2.14a4.53 4.53 0 0 1-4.19 2.42c-3 0-5.25-2.52-5.25-6.25 0-4.09 2.51-6.6 5.51-6.6a4.11 4.11 0 0 1 3.7 1.88h.05v-7.34zm-2.24 10.74a3.76 3.76 0 0 0-.1-.94 3.29 3.29 0 0 0-3.22-2.59c-2.31 0-3.68 2-3.68 4.75 0 2.49 1.21 4.54 3.63 4.54A3.35 3.35 0 0 0 197 275a3.75 3.75 0 0 0 .1-1zM208.45 270.76c0-1.45 0-2.69-.11-3.83h2l.08 2.41h.1a3.68 3.68 0 0 1 3.4-2.69 2.43 2.43 0 0 1 .63.07v2.11a3.33 3.33 0 0 0-.76-.07 3.13 3.13 0 0 0-3 2.87 6.26 6.26 0 0 0-.11 1v6.55h-2.2zM217.74 273.48c0 3 2 4.26 4.21 4.26a8.22 8.22 0 0 0 3.41-.63l.38 1.6a10.1 10.1 0 0 1-4.09.76c-3.78 0-6-2.49-6-6.19s2.18-6.63 5.76-6.63c4 0 5.08 3.53 5.08 5.79a7.57 7.57 0 0 1-.08 1zm6.55-1.6c0-1.42-.58-3.63-3.1-3.63-2.26 0-3.25 2.08-3.43 3.63zM236 279.22l-.18-1.55h-.08a4.57 4.57 0 0 1-3.74 1.83 3.51 3.51 0 0 1-3.76-3.53c0-3 2.64-4.6 7.39-4.57v-.26a2.54 2.54 0 0 0-2.8-2.84 6.13 6.13 0 0 0-3.2.91l-.5-1.47a7.61 7.61 0 0 1 4-1.09c3.76 0 4.68 2.56 4.68 5v4.59a17.62 17.62 0 0 0 .2 3zm-.33-6.27c-2.44-.06-5.21.38-5.21 2.76a2 2 0 0 0 2.11 2.14 3.05 3.05 0 0 0 3-2.06 2.22 2.22 0 0 0 .13-.71zM241.45 261.19h2.24v18h-2.24zM249.93 263.47a1.32 1.32 0 0 1-1.42 1.38 1.33 1.33 0 0 1-1.35-1.38 1.36 1.36 0 0 1 1.4-1.39 1.32 1.32 0 0 1 1.37 1.39zm-2.49 15.75v-12.29h2.24v12.29zM256.07 263.4v3.53h3.2v1.7h-3.2v6.63c0 1.52.44 2.38 1.68 2.38a4.76 4.76 0 0 0 1.29-.15l.11 1.68a5.71 5.71 0 0 1-2 .3 3.12 3.12 0 0 1-2.42-.94 4.57 4.57 0 0 1-.86-3.2v-6.7H252v-1.7h1.9V264zM262.83 266.93l2.69 7.26c.28.81.58 1.78.78 2.51h.06c.22-.73.48-1.67.78-2.56l2.44-7.21h2.36l-3.35 8.76c-1.6 4.21-2.69 6.37-4.21 7.69a6 6 0 0 1-2.75 1.45l-.56-1.88a5.92 5.92 0 0 0 2-1.09 6.8 6.8 0 0 0 1.88-2.49 1.71 1.71 0 0 0 .18-.53 1.79 1.79 0 0 0-.16-.59l-4.54-11.32zM76.7 317.72a23 23 0 0 1 4.24-.35c2.36 0 3.89.43 5 1.39a4.24 4.24 0 0 1 1.3 3.24 4.5 4.5 0 0 1-3.24 4.38v.08c1.32.45 2.1 1.67 2.51 3.45a27.2 27.2 0 0 0 1.32 4.7h-2.27a23.19 23.19 0 0 1-1.14-4.09c-.51-2.36-1.42-3.25-3.43-3.33h-2.08v7.42H76.7zm2.21 7.8h2.26c2.36 0 3.86-1.3 3.86-3.25 0-2.21-1.6-3.18-3.93-3.2a9.3 9.3 0 0 0-2.19.2zM101.51 328.36c0 4.54-3.15 6.52-6.12 6.52-3.33 0-5.89-2.43-5.89-6.32 0-4.11 2.69-6.52 6.09-6.52s5.92 2.56 5.92 6.32zm-9.75.13c0 2.69 1.55 4.72 3.73 4.72s3.73-2 3.73-4.77c0-2.09-1-4.73-3.68-4.73s-3.78 2.44-3.78 4.78zM104.22 334.61c.06-.84.11-2.09.11-3.18v-14.85h2.21v7.72a4.56 4.56 0 0 1 4.19-2.26c3 0 5.2 2.54 5.18 6.27 0 4.39-2.77 6.57-5.51 6.57a4.38 4.38 0 0 1-4.12-2.31h-.07l-.11 2zm2.32-4.93a4.17 4.17 0 0 0 .1.81 3.44 3.44 0 0 0 3.35 2.62c2.33 0 3.73-1.91 3.73-4.73 0-2.46-1.27-4.57-3.66-4.57a3.57 3.57 0 0 0-3.4 2.75 4.47 4.47 0 0 0-.12.91zM129.89 328.36c0 4.54-3.15 6.52-6.12 6.52-3.32 0-5.89-2.43-5.89-6.32 0-4.11 2.69-6.52 6.1-6.52s5.91 2.56 5.91 6.32zm-9.75.13c0 2.69 1.55 4.72 3.74 4.72s3.73-2 3.73-4.77c0-2.09-1-4.73-3.68-4.73s-3.79 2.44-3.79 4.78zM135.4 318.79v3.53h3.2V324h-3.2v6.62c0 1.53.43 2.39 1.68 2.39a4.81 4.81 0 0 0 1.29-.15l.1 1.67a5.37 5.37 0 0 1-2 .31 3.1 3.1 0 0 1-2.41-.94 4.57 4.57 0 0 1-.86-3.2V324h-1.91v-1.7h1.91v-2.95zM143.6 318.86a1.31 1.31 0 0 1-1.42 1.37 1.32 1.32 0 0 1-1.35-1.37 1.36 1.36 0 0 1 1.4-1.39 1.32 1.32 0 0 1 1.37 1.39zm-2.49 15.75v-12.29h2.24v12.29zM155.81 334.15a8.24 8.24 0 0 1-3.52.71c-3.71 0-6.12-2.51-6.12-6.27a6.24 6.24 0 0 1 6.6-6.53 7.39 7.39 0 0 1 3.1.64l-.51 1.72a5.26 5.26 0 0 0-2.59-.58c-2.82 0-4.34 2.08-4.34 4.65 0 2.84 1.82 4.59 4.26 4.59a6.31 6.31 0 0 0 2.74-.61zM163.81 326.33c0-1.58-.05-2.85-.1-4h2l.11 2.1h.05a4.83 4.83 0 0 1 4.36-2.38c3 0 5.21 2.51 5.21 6.24 0 4.42-2.69 6.6-5.59 6.6a4.33 4.33 0 0 1-3.78-1.92v6.67h-2.21zm2.19 3.27a5.18 5.18 0 0 0 .1.92 3.44 3.44 0 0 0 3.35 2.61c2.36 0 3.74-1.93 3.74-4.75 0-2.46-1.3-4.57-3.66-4.57a3.58 3.58 0 0 0-3.38 2.77 3.93 3.93 0 0 0-.15.92zM178.26 326.15c0-1.45 0-2.69-.11-3.83h2l.08 2.41h.1a3.68 3.68 0 0 1 3.4-2.69 2.43 2.43 0 0 1 .63.07v2.11a3.28 3.28 0 0 0-.76-.08 3.13 3.13 0 0 0-3 2.87 6.38 6.38 0 0 0-.11 1v6.56h-2.2zM197.42 328.36c0 4.54-3.14 6.52-6.12 6.52-3.32 0-5.89-2.43-5.89-6.32 0-4.11 2.7-6.52 6.1-6.52s5.91 2.56 5.91 6.32zm-9.75.13c0 2.69 1.55 4.72 3.74 4.72s3.73-2 3.73-4.77c0-2.09-1-4.73-3.68-4.73s-3.79 2.44-3.79 4.78zM209 334.15a8.3 8.3 0 0 1-3.53.71c-3.7 0-6.12-2.51-6.12-6.27a6.25 6.25 0 0 1 6.61-6.53 7.34 7.34 0 0 1 3.09.64l-.51 1.72a5.21 5.21 0 0 0-2.58-.58c-2.82 0-4.35 2.08-4.35 4.65 0 2.84 1.83 4.59 4.27 4.59a6.31 6.31 0 0 0 2.74-.61zM212.71 328.87c0 3 2 4.26 4.21 4.26a8.14 8.14 0 0 0 3.4-.63l.39 1.6a10.1 10.1 0 0 1-4.09.76c-3.79 0-6.05-2.49-6.05-6.2s2.19-6.62 5.77-6.62c4 0 5.08 3.53 5.08 5.79a7.57 7.57 0 0 1-.08 1zm6.55-1.6c0-1.42-.59-3.63-3.1-3.63-2.26 0-3.25 2.08-3.43 3.63zM223.88 332.32a5.87 5.87 0 0 0 2.94.89c1.63 0 2.39-.81 2.39-1.83s-.63-1.65-2.28-2.26c-2.21-.79-3.25-2-3.25-3.48 0-2 1.6-3.6 4.24-3.6a6.11 6.11 0 0 1 3 .76l-.56 1.62a4.81 4.81 0 0 0-2.51-.71c-1.33 0-2.06.76-2.06 1.68s.73 1.47 2.33 2.08c2.14.81 3.23 1.88 3.23 3.71 0 2.16-1.68 3.68-4.6 3.68a7 7 0 0 1-3.45-.84zM233.93 332.32a5.88 5.88 0 0 0 2.95.89c1.62 0 2.38-.81 2.38-1.83s-.63-1.65-2.28-2.26c-2.21-.79-3.25-2-3.25-3.48 0-2 1.6-3.6 4.24-3.6a6.11 6.11 0 0 1 3 .76l-.56 1.62a4.81 4.81 0 0 0-2.51-.71c-1.32 0-2.06.76-2.06 1.68s.74 1.47 2.34 2.08c2.13.81 3.22 1.88 3.22 3.71 0 2.16-1.67 3.68-4.59 3.68a7 7 0 0 1-3.46-.84zM256.48 334.61l-.18-1.55h-.08a4.57 4.57 0 0 1-3.76 1.82 3.5 3.5 0 0 1-3.75-3.52c0-3 2.64-4.6 7.39-4.57v-.26a2.54 2.54 0 0 0-2.8-2.84 6.13 6.13 0 0 0-3.2.91l-.5-1.47a7.58 7.58 0 0 1 4-1.09c3.76 0 4.67 2.56 4.67 5v4.6a17.55 17.55 0 0 0 .21 2.95zm-.33-6.28c-2.44-.05-5.21.38-5.21 2.77a2 2 0 0 0 2.11 2.13 3.06 3.06 0 0 0 3-2.05 2.22 2.22 0 0 0 .13-.71zM272.19 331.25c0 1.27 0 2.39.1 3.36h-2l-.12-2h-.05a4.63 4.63 0 0 1-4.07 2.28c-1.93 0-4.24-1.06-4.24-5.38v-7.18h2.24v6.8c0 2.34.71 3.91 2.74 3.91a3.24 3.24 0 0 0 2.95-2 3.45 3.45 0 0 0 .2-1.14v-7.54h2.23zM278.59 318.79v3.53h3.2V324h-3.2v6.62c0 1.53.43 2.39 1.68 2.39a4.81 4.81 0 0 0 1.29-.15l.1 1.67a5.41 5.41 0 0 1-2 .31 3.09 3.09 0 0 1-2.41-.94 4.53 4.53 0 0 1-.86-3.2V324h-1.89v-1.7h1.91v-2.95zM295.27 328.36c0 4.54-3.15 6.52-6.12 6.52-3.32 0-5.89-2.43-5.89-6.32 0-4.11 2.69-6.52 6.1-6.52s5.91 2.56 5.91 6.32zm-9.75.13c0 2.69 1.55 4.72 3.73 4.72s3.74-2 3.74-4.77c0-2.09-1-4.73-3.69-4.73s-3.78 2.44-3.78 4.78zM298.09 325.64c0-1.27 0-2.31-.1-3.32h1.95l.1 2h.08A4.23 4.23 0 0 1 304 322a3.64 3.64 0 0 1 3.48 2.46h.05a5 5 0 0 1 1.37-1.6 4.2 4.2 0 0 1 2.72-.86c1.62 0 4 1.06 4 5.33v7.24h-2.18v-7c0-2.36-.86-3.78-2.67-3.78a2.88 2.88 0 0 0-2.64 2A3.68 3.68 0 0 0 308 327v7.6h-2.18v-7.37c0-1.95-.86-3.37-2.56-3.37a3 3 0 0 0-2.77 2.23 3 3 0 0 0-.18 1.09v7.42h-2.18zM326.07 334.61l-.18-1.55h-.08a4.57 4.57 0 0 1-3.76 1.82 3.5 3.5 0 0 1-3.75-3.52c0-3 2.64-4.6 7.39-4.57v-.26a2.54 2.54 0 0 0-2.8-2.84 6.13 6.13 0 0 0-3.2.91l-.5-1.47a7.58 7.58 0 0 1 4-1.09c3.76 0 4.67 2.56 4.67 5v4.6a17.55 17.55 0 0 0 .21 2.95zm-.33-6.28c-2.44-.05-5.21.38-5.21 2.77a2 2 0 0 0 2.11 2.13 3.06 3.06 0 0 0 3-2.05 2.22 2.22 0 0 0 .13-.71zM334.09 318.79v3.53h3.2V324h-3.2v6.62c0 1.53.43 2.39 1.68 2.39a4.81 4.81 0 0 0 1.29-.15l.1 1.67a5.41 5.41 0 0 1-2 .31 3.09 3.09 0 0 1-2.41-.94 4.53 4.53 0 0 1-.86-3.2V324H330v-1.7h1.91v-2.95zM342.29 318.86a1.39 1.39 0 0 1-2.77 0 1.36 1.36 0 0 1 1.4-1.39 1.32 1.32 0 0 1 1.37 1.39zm-2.49 15.75v-12.29h2.2v12.29zM356.86 328.36c0 4.54-3.15 6.52-6.12 6.52-3.32 0-5.89-2.43-5.89-6.32 0-4.11 2.69-6.52 6.1-6.52s5.91 2.56 5.91 6.32zm-9.75.13c0 2.69 1.55 4.72 3.74 4.72s3.73-2 3.73-4.77c0-2.09-1-4.73-3.68-4.73s-3.79 2.44-3.79 4.78zM359.68 325.64c0-1.27 0-2.31-.1-3.32h2l.13 2h.05a4.51 4.51 0 0 1 4.04-2.32c1.7 0 4.34 1 4.34 5.23v7.34h-2.23v-7.09c0-2-.74-3.63-2.85-3.63a3.17 3.17 0 0 0-3 2.29 3 3 0 0 0-.16 1v7.39h-2.23z"/><circle class="cls-6" cx="41.4" cy="217" r="4.5"/><circle class="cls-6" cx="41.4" cy="272" r="4.5"/><circle class="cls-6" cx="41.38" cy="326.74" r="4.48"/><path class="cls-5" d="M490.7 206.94a32.23 32.23 0 0 1 4.7-.35c3.17 0 5.43.73 6.93 2.13a7.87 7.87 0 0 1 2.41 6.15 9.06 9.06 0 0 1-2.46 6.65c-1.6 1.6-4.24 2.46-7.57 2.46a37.54 37.54 0 0 1-4-.2zm2.21 15.14a14.28 14.28 0 0 0 2.24.12c4.72 0 7.28-2.64 7.28-7.26 0-4-2.26-6.6-6.93-6.6a12.38 12.38 0 0 0-2.59.23zM510 208.09a1.38 1.38 0 0 1-2.76 0 1.36 1.36 0 0 1 1.39-1.4 1.33 1.33 0 0 1 1.37 1.4zm-2.48 15.74v-12.29h2.23v12.29zM524.06 211.54c0 .89-.1 1.88-.1 3.38v7.13c0 2.82-.56 4.55-1.75 5.61a6.49 6.49 0 0 1-4.47 1.47 8 8 0 0 1-4.09-1l.56-1.7a6.93 6.93 0 0 0 3.61 1c2.28 0 4-1.19 4-4.29v-1.37a4.4 4.4 0 0 1-3.91 2.06c-3.05 0-5.23-2.59-5.23-6 0-4.17 2.71-6.53 5.53-6.53a4.11 4.11 0 0 1 3.84 2.13l.1-1.85zm-2.31 4.85a3.29 3.29 0 0 0-.12-1 3.23 3.23 0 0 0-3.13-2.39c-2.13 0-3.65 1.8-3.65 4.65 0 2.41 1.22 4.42 3.63 4.42a3.28 3.28 0 0 0 3.1-2.29 4.08 4.08 0 0 0 .17-1.19zM530 208.09a1.38 1.38 0 0 1-2.76 0 1.36 1.36 0 0 1 1.39-1.4 1.33 1.33 0 0 1 1.37 1.4zm-2.48 15.74v-12.29h2.23v12.29zM536.15 208v3.53h3.2v1.7h-3.2v6.63c0 1.52.43 2.38 1.67 2.38a4.84 4.84 0 0 0 1.3-.15l.1 1.68a5.44 5.44 0 0 1-2 .3 3.09 3.09 0 0 1-2.41-.94 4.52 4.52 0 0 1-.87-3.2v-6.7h-1.9v-1.7H534v-2.95zM548.66 223.83l-.17-1.55h-.08a4.61 4.61 0 0 1-3.76 1.83 3.5 3.5 0 0 1-3.76-3.53c0-3 2.65-4.6 7.39-4.57v-.26a2.53 2.53 0 0 0-2.79-2.84 6.2 6.2 0 0 0-3.2.91l-.51-1.47a7.65 7.65 0 0 1 4-1.09c3.76 0 4.67 2.56 4.67 5v4.59a16.55 16.55 0 0 0 .21 3zm-.33-6.27c-2.43-.05-5.2.38-5.2 2.76a2 2 0 0 0 2.11 2.14 3.06 3.06 0 0 0 3-2.06 2.52 2.52 0 0 0 .12-.71zM554.1 205.8h2.23v18h-2.23zM565.47 214.87c0-1.27 0-2.32-.1-3.33h2l.1 2h.08a4.24 4.24 0 0 1 3.86-2.26 3.64 3.64 0 0 1 3.48 2.46 5.08 5.08 0 0 1 1.37-1.6 4.2 4.2 0 0 1 2.72-.86c1.62 0 4 1.07 4 5.33v7.24h-2.18v-7c0-2.36-.86-3.78-2.67-3.78a2.89 2.89 0 0 0-2.64 2 3.72 3.72 0 0 0-.17 1.12v7.59h-2.19v-7.37c0-2-.86-3.37-2.56-3.37a3.06 3.06 0 0 0-2.77 2.23 3 3 0 0 0-.18 1.09v7.42h-2.18zM593.45 223.83l-.18-1.55h-.08a4.57 4.57 0 0 1-3.75 1.83 3.5 3.5 0 0 1-3.76-3.53c0-3 2.64-4.6 7.39-4.57v-.26a2.54 2.54 0 0 0-2.8-2.84 6.23 6.23 0 0 0-3.2.91l-.5-1.47a7.58 7.58 0 0 1 4-1.09c3.76 0 4.68 2.56 4.68 5v4.59a17.62 17.62 0 0 0 .2 3zm-.33-6.27c-2.44-.05-5.21.38-5.21 2.76a2 2 0 0 0 2.11 2.14 3.06 3.06 0 0 0 3-2.06 2.22 2.22 0 0 0 .13-.71zM598.88 215.37c0-1.44 0-2.69-.1-3.83h2l.08 2.41h.1a3.69 3.69 0 0 1 3.4-2.69 2.43 2.43 0 0 1 .64.08v2.1a3.45 3.45 0 0 0-.76-.07 3.13 3.13 0 0 0-3 2.87 6.33 6.33 0 0 0-.1 1v6.55h-2.21zM609.49 217.18c.31-.44.74-1 1.09-1.4l3.61-4.24h2.69l-4.75 5.05 5.41 7.24h-2.71l-4.25-5.89-1.14 1.27v4.62h-2.21v-18h2.21zM620.44 218.09c0 3 2 4.27 4.21 4.27a8 8 0 0 0 3.4-.64l.38 1.6a9.83 9.83 0 0 1-4.08.76c-3.79 0-6.05-2.49-6.05-6.19s2.19-6.63 5.77-6.63c4 0 5.07 3.53 5.07 5.79a10 10 0 0 1-.07 1zm6.55-1.6c0-1.42-.59-3.63-3.1-3.63-2.26 0-3.25 2.08-3.43 3.63zM634.6 208v3.53h3.2v1.7h-3.2v6.63c0 1.52.43 2.38 1.68 2.38a4.81 4.81 0 0 0 1.29-.15l.1 1.68a5.4 5.4 0 0 1-2 .3 3.09 3.09 0 0 1-2.41-.94 4.57 4.57 0 0 1-.86-3.2v-6.7h-1.91v-1.7h1.91v-2.95zM640.31 215.55c0-1.57 0-2.84-.1-4h2l.1 2.11a4.84 4.84 0 0 1 4.37-2.39c3 0 5.2 2.51 5.2 6.25 0 4.41-2.69 6.6-5.58 6.6a4.32 4.32 0 0 1-3.79-1.93h-.05v6.68h-2.21zm2.21 3.28a4.28 4.28 0 0 0 .11.91 3.44 3.44 0 0 0 3.35 2.62c2.36 0 3.73-1.93 3.73-4.75 0-2.47-1.3-4.57-3.66-4.57a3.56 3.56 0 0 0-3.37 2.76 3.48 3.48 0 0 0-.16.92zM654.76 205.8H657v18h-2.23zM667.55 223.83l-.17-1.55h-.08a4.59 4.59 0 0 1-3.76 1.83 3.49 3.49 0 0 1-3.75-3.53c0-3 2.64-4.6 7.38-4.57v-.26a2.53 2.53 0 0 0-2.79-2.84 6.2 6.2 0 0 0-3.2.91l-.51-1.47a7.65 7.65 0 0 1 4-1.09c3.76 0 4.67 2.56 4.67 5v4.59a16.55 16.55 0 0 0 .21 3zm-.33-6.27c-2.43-.05-5.2.38-5.2 2.76a2 2 0 0 0 2.11 2.14 3.06 3.06 0 0 0 3-2.06 2.52 2.52 0 0 0 .12-.71zM681.75 223.37a8.18 8.18 0 0 1-3.53.71c-3.71 0-6.12-2.51-6.12-6.27a6.24 6.24 0 0 1 6.6-6.52 7.57 7.57 0 0 1 3.1.63l-.51 1.73a5.1 5.1 0 0 0-2.59-.59c-2.82 0-4.34 2.08-4.34 4.65 0 2.84 1.83 4.59 4.27 4.59a6.55 6.55 0 0 0 2.74-.6zM685.45 218.09c0 3 2 4.27 4.22 4.27a8 8 0 0 0 3.4-.64l.38 1.6a9.89 9.89 0 0 1-4.09.76c-3.78 0-6-2.49-6-6.19s2.18-6.63 5.76-6.63c4 0 5.08 3.53 5.08 5.79a10 10 0 0 1-.07 1zm6.55-1.6c0-1.42-.58-3.63-3.09-3.63-2.26 0-3.25 2.08-3.43 3.63zM490.7 262.31a25.46 25.46 0 0 1 4.24-.33 7 7 0 0 1 4.8 1.42 4.6 4.6 0 0 1 1.5 3.58 5 5 0 0 1-1.32 3.65 7.07 7.07 0 0 1-5.23 1.88 7.48 7.48 0 0 1-1.78-.15v6.86h-2.21zm2.21 8.25a7.24 7.24 0 0 0 1.83.18c2.67 0 4.29-1.3 4.29-3.66s-1.6-3.35-4-3.35a8.76 8.76 0 0 0-2.08.18zM503.73 270.76c0-1.45 0-2.69-.1-3.83h1.95l.08 2.41h.1a3.68 3.68 0 0 1 3.4-2.69 2.51 2.51 0 0 1 .64.07v2.11a3.45 3.45 0 0 0-.76-.07 3.13 3.13 0 0 0-3 2.87 6.33 6.33 0 0 0-.1 1v6.55h-2.21zM513 273.48c.05 3 2 4.26 4.21 4.26a8.22 8.22 0 0 0 3.41-.63l.38 1.6a10.1 10.1 0 0 1-4.09.76c-3.78 0-6-2.49-6-6.19s2.18-6.63 5.76-6.63c4 0 5.08 3.53 5.08 5.79a7.57 7.57 0 0 1-.08 1zm6.55-1.6c0-1.42-.58-3.63-3.1-3.63-2.26 0-3.25 2.08-3.43 3.63zM535.11 261.19V276c0 1.09 0 2.34.1 3.18h-2l-.11-2.14h-.05a4.53 4.53 0 0 1-4.19 2.42c-3 0-5.25-2.52-5.25-6.25 0-4.09 2.51-6.6 5.51-6.6a4.09 4.09 0 0 1 3.7 1.88h.06v-7.34zm-2.23 10.74a3.77 3.77 0 0 0-.11-.94 3.29 3.29 0 0 0-3.22-2.59c-2.31 0-3.68 2-3.68 4.75 0 2.49 1.22 4.54 3.63 4.54a3.35 3.35 0 0 0 3.27-2.66 3.74 3.74 0 0 0 .11-1zM541.3 263.47a1.38 1.38 0 1 1-2.76 0 1.36 1.36 0 0 1 1.39-1.39 1.32 1.32 0 0 1 1.37 1.39zm-2.49 15.75v-12.29h2.24v12.29zM553.52 278.76a8.33 8.33 0 0 1-3.53.71c-3.71 0-6.12-2.51-6.12-6.27a6.25 6.25 0 0 1 6.6-6.53 7.39 7.39 0 0 1 3.1.64l-.51 1.73a5.1 5.1 0 0 0-2.59-.59c-2.82 0-4.34 2.08-4.34 4.65 0 2.84 1.83 4.59 4.26 4.59a6.31 6.31 0 0 0 2.74-.61zM559.15 263.4v3.53h3.2v1.7h-3.2v6.63c0 1.52.43 2.38 1.68 2.38a4.81 4.81 0 0 0 1.29-.15l.1 1.68a5.62 5.62 0 0 1-2 .3 3.09 3.09 0 0 1-2.41-.94 4.57 4.57 0 0 1-.86-3.2v-6.7h-1.91v-1.7H557V264zM567.35 263.47a1.32 1.32 0 0 1-1.42 1.38 1.33 1.33 0 0 1-1.35-1.38 1.36 1.36 0 0 1 1.4-1.39 1.32 1.32 0 0 1 1.37 1.39zm-2.49 15.75v-12.29h2.24v12.29zM571.67 266.93l2.41 6.9c.4 1.12.73 2.14 1 3.15h.07c.28-1 .64-2 1.05-3.15l2.38-6.9h2.34l-4.83 12.29H574l-4.67-12.29zM584 273.48c0 3 2 4.26 4.21 4.26a8.14 8.14 0 0 0 3.4-.63l.38 1.6a10 10 0 0 1-4.08.76c-3.79 0-6-2.49-6-6.19s2.19-6.63 5.77-6.63c4 0 5.07 3.53 5.07 5.79a10.18 10.18 0 0 1-.07 1zm6.55-1.6c0-1.42-.59-3.63-3.1-3.63-2.26 0-3.25 2.08-3.43 3.63zM600.86 270.94c0-1.57-.05-2.84-.1-4h2l.1 2.11a4.83 4.83 0 0 1 4.37-2.39c3 0 5.2 2.51 5.2 6.24 0 4.42-2.69 6.61-5.58 6.61a4.32 4.32 0 0 1-3.79-1.93v6.67h-2.21zm2.21 3.27a5.18 5.18 0 0 0 .1.92 3.45 3.45 0 0 0 3.36 2.61c2.36 0 3.73-1.93 3.73-4.74 0-2.47-1.3-4.57-3.66-4.57a3.58 3.58 0 0 0-3.38 2.76 3.93 3.93 0 0 0-.15.92zM615.31 270.76c0-1.45 0-2.69-.1-3.83h1.95l.08 2.41h.1a3.68 3.68 0 0 1 3.4-2.69 2.51 2.51 0 0 1 .64.07v2.11a3.45 3.45 0 0 0-.76-.07 3.13 3.13 0 0 0-3 2.87 6.33 6.33 0 0 0-.1 1v6.55h-2.21zM626.2 263.47a1.39 1.39 0 0 1-2.77 0 1.36 1.36 0 0 1 1.4-1.39 1.32 1.32 0 0 1 1.37 1.39zm-2.49 15.75v-12.29H626v12.29zM638.41 278.76a8.3 8.3 0 0 1-3.53.71c-3.7 0-6.12-2.51-6.12-6.27a6.25 6.25 0 0 1 6.61-6.53 7.34 7.34 0 0 1 3.09.64L638 269a5.16 5.16 0 0 0-2.59-.59c-2.82 0-4.35 2.08-4.35 4.65 0 2.84 1.83 4.59 4.27 4.59a6.31 6.31 0 0 0 2.74-.61zM643.51 263.47a1.38 1.38 0 1 1-2.76 0 1.36 1.36 0 0 1 1.39-1.39 1.32 1.32 0 0 1 1.37 1.39zM641 279.22v-12.29h2.23v12.29zM647 270.25c0-1.27 0-2.31-.1-3.32h2l.12 2a4.52 4.52 0 0 1 4.07-2.31c1.7 0 4.34 1 4.34 5.23v7.34h-2.24v-7.09c0-2-.73-3.63-2.84-3.63a3.18 3.18 0 0 0-3 2.29 3.26 3.26 0 0 0-.15 1v7.39H647zM671.64 266.93c0 .89-.1 1.88-.1 3.37v7.14c0 2.82-.56 4.54-1.75 5.61a6.49 6.49 0 0 1-4.47 1.47 8 8 0 0 1-4.09-1l.56-1.7a7.06 7.06 0 0 0 3.61 1c2.28 0 4-1.19 4-4.29v-1.37h-.05a4.4 4.4 0 0 1-3.91 2.06c-3 0-5.23-2.59-5.23-6 0-4.16 2.71-6.52 5.53-6.52a4.11 4.11 0 0 1 3.84 2.13h.05l.1-1.85zm-2.31 4.85a3.29 3.29 0 0 0-.12-1 3.23 3.23 0 0 0-3.13-2.36c-2.13 0-3.65 1.8-3.65 4.65 0 2.41 1.22 4.41 3.63 4.41a3.27 3.27 0 0 0 3.1-2.28 4.08 4.08 0 0 0 .17-1.19zM502.66 334.05a11.08 11.08 0 0 1-4.52.81c-4.82 0-8.45-3.05-8.45-8.66 0-5.36 3.63-9 8.94-9a9.27 9.27 0 0 1 4.06.76l-.54 1.81a8 8 0 0 0-3.45-.71c-4 0-6.68 2.56-6.68 7.06 0 4.18 2.42 6.88 6.58 6.88a8.71 8.71 0 0 0 3.61-.72zM516.19 328.36c0 4.54-3.15 6.52-6.12 6.52-3.32 0-5.89-2.43-5.89-6.32 0-4.11 2.7-6.52 6.1-6.52s5.91 2.56 5.91 6.32zm-9.75.13c0 2.69 1.55 4.72 3.74 4.72s3.73-2 3.73-4.77c0-2.09-1-4.73-3.68-4.73s-3.79 2.44-3.79 4.78zM519 316.58h2.24v18H519zM525 316.58h2.24v18H525zM537.8 334.61l-.18-1.55h-.08a4.56 4.56 0 0 1-3.75 1.82 3.5 3.5 0 0 1-3.76-3.52c0-3 2.64-4.6 7.39-4.57v-.26a2.53 2.53 0 0 0-2.79-2.84 6.08 6.08 0 0 0-3.2.91l-.51-1.47a7.62 7.62 0 0 1 4-1.09c3.75 0 4.67 2.56 4.67 5v4.6a17.62 17.62 0 0 0 .2 2.95zm-.33-6.28c-2.44-.05-5.21.38-5.21 2.77a2 2 0 0 0 2.11 2.13 3 3 0 0 0 3-2.05 2.22 2.22 0 0 0 .13-.71zM543.13 334.61c0-.84.1-2.09.1-3.18v-14.85h2.21v7.72a4.58 4.58 0 0 1 4.19-2.26c3.05 0 5.2 2.54 5.18 6.27 0 4.39-2.77 6.57-5.51 6.57a4.36 4.36 0 0 1-4.11-2.31h-.08l-.1 2zm2.31-4.93a4.17 4.17 0 0 0 .1.81 3.45 3.45 0 0 0 3.35 2.62c2.34 0 3.74-1.91 3.74-4.73 0-2.46-1.27-4.57-3.66-4.57a3.57 3.57 0 0 0-3.4 2.75 4.41 4.41 0 0 0-.13.91zM568.8 328.36c0 4.54-3.15 6.52-6.12 6.52-3.33 0-5.89-2.43-5.89-6.32 0-4.11 2.69-6.52 6.09-6.52s5.92 2.56 5.92 6.32zm-9.75.13c0 2.69 1.55 4.72 3.73 4.72s3.73-2 3.73-4.77c0-2.09-1-4.73-3.68-4.73s-3.78 2.44-3.78 4.78zM571.62 326.15c0-1.45 0-2.69-.11-3.83h2l.07 2.41h.11a3.68 3.68 0 0 1 3.4-2.69 2.43 2.43 0 0 1 .63.07v2.11a3.28 3.28 0 0 0-.76-.08 3.13 3.13 0 0 0-3 2.87 6.38 6.38 0 0 0-.11 1v6.56h-2.2zM586.6 334.61l-.18-1.55h-.08a4.57 4.57 0 0 1-3.76 1.82 3.5 3.5 0 0 1-3.75-3.52c0-3 2.64-4.6 7.38-4.57v-.26a2.53 2.53 0 0 0-2.79-2.84 6.13 6.13 0 0 0-3.2.91l-.51-1.47a7.65 7.65 0 0 1 4-1.09c3.76 0 4.67 2.56 4.67 5v4.6a16.55 16.55 0 0 0 .21 2.95zm-.33-6.28c-2.44-.05-5.21.38-5.21 2.77a2 2 0 0 0 2.11 2.13 3.06 3.06 0 0 0 3-2.05 2.53 2.53 0 0 0 .13-.71zM594.62 318.79v3.53h3.2V324h-3.2v6.62c0 1.53.43 2.39 1.67 2.39a4.84 4.84 0 0 0 1.3-.15l.1 1.67a5.41 5.41 0 0 1-2 .31 3.09 3.09 0 0 1-2.41-.94 4.52 4.52 0 0 1-.87-3.2V324h-1.9v-1.7h1.9v-2.95zM602.82 318.86a1.39 1.39 0 0 1-2.77 0 1.36 1.36 0 0 1 1.4-1.39 1.32 1.32 0 0 1 1.37 1.39zm-2.49 15.75v-12.29h2.23v12.29zM617.39 328.36c0 4.54-3.15 6.52-6.12 6.52-3.32 0-5.89-2.43-5.89-6.32 0-4.11 2.69-6.52 6.09-6.52s5.92 2.56 5.92 6.32zm-9.75.13c0 2.69 1.55 4.72 3.73 4.72s3.74-2 3.74-4.77c0-2.09-1.05-4.73-3.69-4.73s-3.78 2.44-3.78 4.78zM620.21 325.64c0-1.27 0-2.31-.1-3.32h2l.12 2h.06a4.51 4.51 0 0 1 4.06-2.31c1.7 0 4.34 1 4.34 5.23v7.34h-2.23v-7.09c0-2-.74-3.63-2.85-3.63a3.17 3.17 0 0 0-3 2.29 3 3 0 0 0-.16 1v7.39h-2.23zM639.68 326.33c0-1.58 0-2.85-.1-4h2l.1 2.1a4.84 4.84 0 0 1 4.37-2.38c3 0 5.2 2.51 5.2 6.24 0 4.42-2.69 6.6-5.59 6.6a4.33 4.33 0 0 1-3.78-1.92h-.05v6.67h-2.21zm2.21 3.27a5.18 5.18 0 0 0 .1.92 3.44 3.44 0 0 0 3.35 2.61c2.37 0 3.74-1.93 3.74-4.75 0-2.46-1.3-4.57-3.66-4.57a3.58 3.58 0 0 0-3.38 2.77 3.93 3.93 0 0 0-.15.92zM665.25 328.36c0 4.54-3.15 6.52-6.12 6.52-3.33 0-5.89-2.43-5.89-6.32 0-4.11 2.69-6.52 6.09-6.52s5.92 2.56 5.92 6.32zm-9.75.13c0 2.69 1.55 4.72 3.73 4.72s3.73-2 3.73-4.77c0-2.09-1-4.73-3.68-4.73s-3.78 2.44-3.78 4.78zM668.06 326.15c0-1.45 0-2.69-.1-3.83h2l.07 2.41h.11a3.67 3.67 0 0 1 3.4-2.69 2.43 2.43 0 0 1 .63.07v2.11a3.34 3.34 0 0 0-.76-.08 3.13 3.13 0 0 0-3 2.87 5.44 5.44 0 0 0-.11 1v6.56h-2.21zM679.67 318.79v3.53h3.2V324h-3.2v6.62c0 1.53.43 2.39 1.67 2.39a4.84 4.84 0 0 0 1.3-.15l.1 1.67a5.41 5.41 0 0 1-2 .31 3.09 3.09 0 0 1-2.41-.94 4.52 4.52 0 0 1-.87-3.2V324h-1.9v-1.7h1.9v-2.95zM692.18 334.61l-.17-1.55h-.08a4.6 4.6 0 0 1-3.76 1.82 3.5 3.5 0 0 1-3.76-3.52c0-3 2.64-4.6 7.39-4.57v-.26a2.53 2.53 0 0 0-2.79-2.84 6.11 6.11 0 0 0-3.2.91l-.51-1.47a7.65 7.65 0 0 1 4-1.09c3.76 0 4.67 2.56 4.67 5v4.6a17.62 17.62 0 0 0 .2 2.95zm-.33-6.28c-2.43-.05-5.2.38-5.2 2.77a2 2 0 0 0 2.11 2.13 3.06 3.06 0 0 0 3-2.05 2.52 2.52 0 0 0 .12-.71zM697.62 316.58h2.23v18h-2.23zM703.3 332.32a5.88 5.88 0 0 0 3 .89c1.62 0 2.38-.81 2.38-1.83s-.63-1.65-2.28-2.26c-2.21-.79-3.25-2-3.25-3.48 0-2 1.6-3.6 4.24-3.6a6.08 6.08 0 0 1 3 .76l-.56 1.62a4.81 4.81 0 0 0-2.51-.71c-1.32 0-2.06.76-2.06 1.68s.74 1.47 2.34 2.08c2.13.81 3.22 1.88 3.22 3.71 0 2.16-1.67 3.68-4.59 3.68a7 7 0 0 1-3.46-.84z"/><circle class="cls-6" cx="457.39" cy="217.26" r="4.48"/><circle class="cls-6" cx="457.76" cy="272" r="4.48"/><circle class="cls-6" cx="458.13" cy="326.74" r="4.48"/><path class="cls-5" d="M904.7 206.71h2.21V222h7.31v1.86h-9.52zM927.38 217.58c0 4.55-3.15 6.53-6.12 6.53-3.33 0-5.89-2.44-5.89-6.32 0-4.12 2.69-6.53 6.09-6.53s5.92 2.56 5.92 6.32zm-9.75.13c0 2.69 1.55 4.72 3.73 4.72s3.73-2 3.73-4.77c0-2.08-1-4.72-3.68-4.72s-3.78 2.43-3.78 4.77zM937 223.83l-.18-1.55h-.08a4.57 4.57 0 0 1-3.75 1.83 3.5 3.5 0 0 1-3.76-3.53c0-3 2.64-4.6 7.39-4.57v-.26a2.54 2.54 0 0 0-2.8-2.84 6.17 6.17 0 0 0-3.19.91l-.51-1.47a7.61 7.61 0 0 1 4-1.09c3.76 0 4.68 2.56 4.68 5v4.59a17.62 17.62 0 0 0 .2 3zm-.33-6.27c-2.44-.05-5.21.38-5.21 2.76a2 2 0 0 0 2.11 2.14 3.05 3.05 0 0 0 3-2.06 2.22 2.22 0 0 0 .13-.71zM953 205.8v14.85c0 1.1 0 2.34.11 3.18h-2l-.1-2.13a4.56 4.56 0 0 1-4.19 2.41c-3 0-5.26-2.52-5.26-6.25 0-4.09 2.52-6.6 5.51-6.6a4.12 4.12 0 0 1 3.71 1.88v-7.34zm-2.23 10.74a3.76 3.76 0 0 0-.1-.94 3.29 3.29 0 0 0-3.23-2.59c-2.31 0-3.68 2-3.68 4.75 0 2.49 1.22 4.54 3.63 4.54a3.37 3.37 0 0 0 3.28-2.66 3.75 3.75 0 0 0 .1-1zM960.25 224.84l7.09-18.4h1.72l-7.1 18.4zM976.45 223.83v-10.59h-1.73v-1.7h1.73V211a5.81 5.81 0 0 1 1.42-4.3 4.3 4.3 0 0 1 3-1.14 5.08 5.08 0 0 1 1.9.36l-.3 1.72a3.38 3.38 0 0 0-1.42-.28c-1.91 0-2.39 1.68-2.39 3.56v.66h3v1.7h-3v10.59zM983.63 215.37c0-1.44 0-2.69-.1-3.83h2l.07 2.41h.11a3.67 3.67 0 0 1 3.4-2.69 2.41 2.41 0 0 1 .63.08v2.1a3.39 3.39 0 0 0-.76-.07 3.13 3.13 0 0 0-3 2.87 5.35 5.35 0 0 0-.11 1v6.55h-2.21zM992.93 218.09c.05 3 2 4.27 4.21 4.27a8 8 0 0 0 3.4-.64l.39 1.6a9.93 9.93 0 0 1-4.09.76c-3.79 0-6.05-2.49-6.05-6.19s2.19-6.63 5.77-6.63c4 0 5.08 3.53 5.08 5.79a7.43 7.43 0 0 1-.08 1zm6.55-1.6c0-1.42-.59-3.63-3.1-3.63-2.26 0-3.25 2.08-3.43 3.63zM1006.89 208.09a1.31 1.31 0 0 1-1.42 1.37 1.33 1.33 0 0 1-1.35-1.37 1.37 1.37 0 0 1 1.4-1.4 1.33 1.33 0 0 1 1.37 1.4zm-2.49 15.74v-12.29h2.24v12.29zM1020.93 211.54c0 .89-.1 1.88-.1 3.38v7.13c0 2.82-.56 4.55-1.75 5.61a6.51 6.51 0 0 1-4.47 1.47 8 8 0 0 1-4.09-1l.56-1.7a6.9 6.9 0 0 0 3.61 1c2.28 0 4-1.19 4-4.29v-1.37a4.4 4.4 0 0 1-3.91 2.06c-3.05 0-5.23-2.59-5.23-6 0-4.17 2.71-6.53 5.53-6.53a4.09 4.09 0 0 1 3.83 2.13h.06l.1-1.85zm-2.31 4.85a3 3 0 0 0-.13-1 3.21 3.21 0 0 0-3.12-2.36c-2.13 0-3.66 1.8-3.66 4.65 0 2.41 1.22 4.42 3.64 4.42a3.26 3.26 0 0 0 3.09-2.29 3.78 3.78 0 0 0 .18-1.19zM1024.54 205.8h2.23v7.67a4.19 4.19 0 0 1 1.6-1.58 4.62 4.62 0 0 1 2.29-.63c1.65 0 4.29 1 4.29 5.26v7.31h-2.24v-7.06c0-2-.73-3.66-2.84-3.66a3.22 3.22 0 0 0-3 2.24 2.61 2.61 0 0 0-.15 1.06v7.42h-2.23zM1041.21 208v3.53h3.2v1.7h-3.2v6.63c0 1.52.44 2.38 1.68 2.38a4.9 4.9 0 0 0 1.3-.15l.1 1.68a5.44 5.44 0 0 1-2 .3 3.12 3.12 0 0 1-2.42-.94 4.57 4.57 0 0 1-.86-3.2v-6.7h-1.9v-1.7h1.9v-2.95zM1063.43 217.58c0 4.55-3.15 6.53-6.12 6.53-3.33 0-5.89-2.44-5.89-6.32 0-4.12 2.69-6.53 6.09-6.53s5.92 2.56 5.92 6.32zm-9.75.13c0 2.69 1.55 4.72 3.73 4.72s3.73-2 3.73-4.77c0-2.08-1-4.72-3.68-4.72s-3.78 2.43-3.78 4.77zM1066.25 215.55c0-1.57 0-2.84-.1-4h2l.1 2.11a4.85 4.85 0 0 1 4.37-2.39c3 0 5.21 2.51 5.21 6.25 0 4.41-2.69 6.6-5.59 6.6a4.3 4.3 0 0 1-3.78-1.93v6.68h-2.21zm2.21 3.28a5.07 5.07 0 0 0 .1.91 3.44 3.44 0 0 0 3.35 2.62c2.36 0 3.73-1.93 3.73-4.75 0-2.47-1.29-4.57-3.65-4.57a3.56 3.56 0 0 0-3.38 2.76 3.47 3.47 0 0 0-.15.92zM1083.38 208v3.53h3.2v1.7h-3.2v6.63c0 1.52.44 2.38 1.68 2.38a4.9 4.9 0 0 0 1.3-.15l.1 1.68a5.44 5.44 0 0 1-2 .3 3.12 3.12 0 0 1-2.42-.94 4.57 4.57 0 0 1-.86-3.2v-6.7h-1.9v-1.7h1.9v-2.95zM1091.58 208.09a1.31 1.31 0 0 1-1.42 1.37 1.33 1.33 0 0 1-1.34-1.37 1.36 1.36 0 0 1 1.39-1.4 1.33 1.33 0 0 1 1.37 1.4zm-2.48 15.74v-12.29h2.23v12.29zM1095 214.87c0-1.27 0-2.32-.1-3.33h2l.1 2h.08a4.23 4.23 0 0 1 3.86-2.26 3.65 3.65 0 0 1 3.48 2.46 5.08 5.08 0 0 1 1.37-1.6 4.17 4.17 0 0 1 2.71-.86c1.63 0 4 1.07 4 5.33v7.24h-2.18v-7c0-2.36-.86-3.78-2.67-3.78a2.89 2.89 0 0 0-2.64 2 3.7 3.7 0 0 0-.18 1.12v7.59h-2.18v-7.37c0-2-.86-3.37-2.56-3.37a3.05 3.05 0 0 0-2.77 2.23 3 3 0 0 0-.18 1.09v7.42H1095zM1118.7 208.09a1.39 1.39 0 0 1-2.77 0 1.37 1.37 0 0 1 1.4-1.4 1.33 1.33 0 0 1 1.37 1.4zm-2.49 15.74v-12.29h2.24v12.29zM1120.75 222.53l5.56-7.23c.54-.66 1-1.25 1.6-1.91h-6.65v-1.8h9.37v1.4l-5.49 7.13c-.51.69-1 1.3-1.57 1.93v.05h7.18v1.78h-10zM1139.82 223.83l-.18-1.55h-.07a4.61 4.61 0 0 1-3.76 1.83 3.5 3.5 0 0 1-3.76-3.53c0-3 2.64-4.6 7.39-4.57v-.26a2.53 2.53 0 0 0-2.79-2.84 6.2 6.2 0 0 0-3.2.91l-.51-1.47a7.65 7.65 0 0 1 4-1.09c3.76 0 4.67 2.56 4.67 5v4.59a17.62 17.62 0 0 0 .2 3zm-.33-6.27c-2.44-.05-5.2.38-5.2 2.76a2 2 0 0 0 2.1 2.14 3.08 3.08 0 0 0 3-2.06 2.52 2.52 0 0 0 .12-.71zM1147.85 208v3.53h3.15v1.7h-3.19v6.63c0 1.52.43 2.38 1.67 2.38a4.84 4.84 0 0 0 1.3-.15l.1 1.68a5.44 5.44 0 0 1-2 .3 3.09 3.09 0 0 1-2.41-.94 4.52 4.52 0 0 1-.87-3.2v-6.7h-1.9v-1.7h1.9v-2.95zM1156 208.09a1.31 1.31 0 0 1-1.42 1.37 1.33 1.33 0 0 1-1.34-1.37 1.36 1.36 0 0 1 1.39-1.4 1.33 1.33 0 0 1 1.37 1.4zm-2.48 15.74v-12.29h2.23v12.29zM1170.62 217.58c0 4.55-3.15 6.53-6.12 6.53-3.33 0-5.89-2.44-5.89-6.32 0-4.12 2.69-6.53 6.09-6.53s5.92 2.56 5.92 6.32zm-9.75.13c0 2.69 1.55 4.72 3.73 4.72s3.73-2 3.73-4.77c0-2.08-1-4.72-3.68-4.72s-3.78 2.43-3.78 4.77zM1173.44 214.87c0-1.27 0-2.32-.11-3.33h2l.13 2a4.51 4.51 0 0 1 4.06-2.31c1.71 0 4.35 1 4.35 5.23v7.34h-2.24v-7.09c0-2-.73-3.63-2.84-3.63a3.18 3.18 0 0 0-3 2.29 3.26 3.26 0 0 0-.15 1v7.39h-2.23zM908.46 279.22l-5.58-17.12h2.38l2.67 8.43c.73 2.31 1.37 4.4 1.83 6.4.48-2 1.19-4.14 2-6.37l2.9-8.46H917l-6.12 17.12zM929.08 273c0 4.55-3.15 6.53-6.12 6.53-3.33 0-5.89-2.44-5.89-6.33 0-4.11 2.69-6.52 6.09-6.52s5.92 2.53 5.92 6.32zm-9.75.13c0 2.69 1.55 4.72 3.73 4.72s3.73-2 3.73-4.77c0-2.09-1-4.73-3.68-4.73s-3.78 2.41-3.78 4.75zM934.38 263.47a1.38 1.38 0 1 1-2.76 0 1.36 1.36 0 0 1 1.39-1.39 1.32 1.32 0 0 1 1.37 1.39zm-2.49 15.75v-12.29h2.24v12.29zM946.6 278.76a8.33 8.33 0 0 1-3.53.71c-3.71 0-6.12-2.51-6.12-6.27a6.25 6.25 0 0 1 6.6-6.53 7.39 7.39 0 0 1 3.1.64l-.51 1.73a5.1 5.1 0 0 0-2.59-.59c-2.82 0-4.34 2.08-4.34 4.65 0 2.84 1.83 4.59 4.26 4.59a6.31 6.31 0 0 0 2.74-.61zM950.3 273.48a3.93 3.93 0 0 0 4.22 4.26 8.17 8.17 0 0 0 3.4-.63l.38 1.6a10.06 10.06 0 0 1-4.09.76c-3.78 0-6-2.49-6-6.19s2.18-6.63 5.76-6.63c4 0 5.08 3.53 5.08 5.79a7.57 7.57 0 0 1-.08 1zm6.55-1.6c0-1.42-.58-3.63-3.1-3.63-2.26 0-3.25 2.08-3.42 3.63zM969.65 263.47a1.39 1.39 0 0 1-2.77 0 1.36 1.36 0 0 1 1.4-1.39 1.33 1.33 0 0 1 1.37 1.39zm-2.49 15.75v-12.29h2.23v12.29zM973.1 270.25c0-1.27 0-2.31-.1-3.32h2l.13 2a4.51 4.51 0 0 1 4.06-2.31c1.7 0 4.34 1 4.34 5.23v7.34h-2.23v-7.09c0-2-.74-3.63-2.85-3.63a3.17 3.17 0 0 0-3 2.29 3 3 0 0 0-.16 1v7.39h-2.19zM989.78 263.4v3.53H993v1.7h-3.2v6.63c0 1.52.43 2.38 1.68 2.38a4.81 4.81 0 0 0 1.29-.15l.1 1.68a5.62 5.62 0 0 1-2 .3 3.09 3.09 0 0 1-2.41-.94 4.57 4.57 0 0 1-.86-3.2v-6.7h-1.91v-1.7h1.91V264zM996.58 273.48a3.93 3.93 0 0 0 4.22 4.26 8.17 8.17 0 0 0 3.4-.63l.38 1.6a10.06 10.06 0 0 1-4.09.76c-3.78 0-6-2.49-6-6.19s2.18-6.63 5.76-6.63c4 0 5.08 3.53 5.08 5.79a10.18 10.18 0 0 1-.07 1zm6.55-1.6c0-1.42-.58-3.63-3.09-3.63-2.26 0-3.25 2.08-3.43 3.63zM1018.65 266.93c0 .89-.1 1.88-.1 3.37v7.14c0 2.82-.56 4.54-1.76 5.61a6.47 6.47 0 0 1-4.46 1.47 7.92 7.92 0 0 1-4.09-1l.56-1.7a7 7 0 0 0 3.6 1c2.29 0 4-1.19 4-4.29v-1.37h-.05a4.38 4.38 0 0 1-3.91 2.06c-3 0-5.23-2.59-5.23-6 0-4.16 2.72-6.52 5.54-6.52a4.09 4.09 0 0 1 3.83 2.13h.05l.1-1.85zm-2.31 4.85a3.28 3.28 0 0 0-.13-1 3.23 3.23 0 0 0-3.12-2.36c-2.13 0-3.66 1.8-3.66 4.65 0 2.41 1.22 4.41 3.63 4.41a3.27 3.27 0 0 0 3.1-2.28 3.78 3.78 0 0 0 .18-1.19zM1022.1 270.76c0-1.45 0-2.69-.1-3.83h2l.08 2.41h.1a3.69 3.69 0 0 1 3.4-2.69 2.51 2.51 0 0 1 .64.07v2.11a3.45 3.45 0 0 0-.76-.07 3.13 3.13 0 0 0-3 2.87 6.33 6.33 0 0 0-.1 1v6.55h-2.21zM1037.08 279.22l-.18-1.55h-.07a4.61 4.61 0 0 1-3.76 1.83 3.51 3.51 0 0 1-3.76-3.53c0-3 2.64-4.6 7.39-4.57v-.26a2.53 2.53 0 0 0-2.79-2.84 6.08 6.08 0 0 0-3.2.91l-.51-1.47a7.62 7.62 0 0 1 4-1.09c3.75 0 4.67 2.56 4.67 5v4.59a17.62 17.62 0 0 0 .2 3zm-.33-6.27c-2.44-.06-5.21.38-5.21 2.76a2 2 0 0 0 2.11 2.14 3.05 3.05 0 0 0 3-2.06 2.22 2.22 0 0 0 .13-.71zM1045.1 263.4v3.53h3.2v1.7h-3.2v6.63c0 1.52.43 2.38 1.68 2.38a4.81 4.81 0 0 0 1.29-.15l.1 1.68a5.62 5.62 0 0 1-2 .3 3.09 3.09 0 0 1-2.41-.94 4.57 4.57 0 0 1-.86-3.2v-6.7h-1.9v-1.7h1.91V264zM1053.3 263.47a1.38 1.38 0 1 1-2.76 0 1.36 1.36 0 0 1 1.39-1.39 1.32 1.32 0 0 1 1.37 1.39zm-2.49 15.75v-12.29h2.24v12.29zM1067.88 273c0 4.55-3.15 6.53-6.12 6.53-3.33 0-5.89-2.44-5.89-6.33 0-4.11 2.69-6.52 6.09-6.52s5.92 2.53 5.92 6.32zm-9.75.13c0 2.69 1.54 4.72 3.73 4.72s3.73-2 3.73-4.77c0-2.09-1-4.73-3.68-4.73s-3.78 2.41-3.78 4.75zM1070.69 270.25c0-1.27 0-2.31-.1-3.32h2l.13 2a4.51 4.51 0 0 1 4.06-2.31c1.7 0 4.34 1 4.34 5.23v7.34h-2.23v-7.09c0-2-.74-3.63-2.84-3.63a3.17 3.17 0 0 0-3 2.29 3.26 3.26 0 0 0-.15 1v7.39h-2.24zM904.4 331.91a7.83 7.83 0 0 0 4 1.12c2.26 0 3.58-1.19 3.58-2.92s-.91-2.51-3.23-3.4c-2.79-1-4.51-2.44-4.51-4.85 0-2.67 2.2-4.65 5.53-4.65a7.78 7.78 0 0 1 3.78.84l-.61 1.8a6.84 6.84 0 0 0-3.25-.81c-2.33 0-3.22 1.4-3.22 2.57 0 1.6 1 2.38 3.4 3.3 2.9 1.11 4.37 2.51 4.37 5s-2 4.93-6 4.93a8.84 8.84 0 0 1-4.37-1.09zM917.14 325.64c0-1.27 0-2.31-.1-3.32h2l.1 2h.08A4.22 4.22 0 0 1 923 322a3.62 3.62 0 0 1 3.47 2.46 5.11 5.11 0 0 1 1.38-1.6 4.15 4.15 0 0 1 2.71-.86c1.63 0 4 1.06 4 5.33v7.24h-2.18v-7c0-2.36-.87-3.78-2.67-3.78a2.88 2.88 0 0 0-2.64 2A3.68 3.68 0 0 0 927 327v7.6h-2.18v-7.37c0-1.95-.87-3.37-2.57-3.37a3 3 0 0 0-2.76 2.23 3 3 0 0 0-.18 1.09v7.42h-2.19zM945.12 334.61l-.17-1.55h-.08a4.6 4.6 0 0 1-3.76 1.82 3.5 3.5 0 0 1-3.76-3.52c0-3 2.64-4.6 7.39-4.57v-.26a2.53 2.53 0 0 0-2.79-2.84 6.11 6.11 0 0 0-3.2.91l-.51-1.47a7.65 7.65 0 0 1 4-1.09c3.76 0 4.67 2.56 4.67 5v4.6a17.62 17.62 0 0 0 .2 2.95zm-.33-6.28c-2.43-.05-5.2.38-5.2 2.77a2 2 0 0 0 2.11 2.13 3.07 3.07 0 0 0 3-2.05 2.52 2.52 0 0 0 .12-.71zM950.55 326.15c0-1.45 0-2.69-.1-3.83h2l.07 2.41h.11A3.67 3.67 0 0 1 956 322a2.43 2.43 0 0 1 .63.07v2.11a3.34 3.34 0 0 0-.76-.08 3.13 3.13 0 0 0-3 2.87 5.44 5.44 0 0 0-.11 1v6.56h-2.21zM962.16 318.79v3.53h3.2V324h-3.2v6.62c0 1.53.43 2.39 1.67 2.39a4.84 4.84 0 0 0 1.3-.15l.1 1.67a5.41 5.41 0 0 1-2 .31 3.09 3.09 0 0 1-2.41-.94 4.52 4.52 0 0 1-.87-3.2V324h-1.9v-1.7H960v-2.95zM982 334.15a8.3 8.3 0 0 1-3.53.71c-3.7 0-6.12-2.51-6.12-6.27a6.24 6.24 0 0 1 6.6-6.53 7.35 7.35 0 0 1 3.1.64l-.51 1.72a5.23 5.23 0 0 0-2.59-.58c-2.81 0-4.34 2.08-4.34 4.65 0 2.84 1.83 4.59 4.27 4.59a6.31 6.31 0 0 0 2.74-.61zM995.59 328.36c0 4.54-3.14 6.52-6.12 6.52-3.32 0-5.89-2.43-5.89-6.32 0-4.11 2.7-6.52 6.1-6.52s5.91 2.56 5.91 6.32zm-9.75.13c0 2.69 1.55 4.72 3.74 4.72s3.73-2 3.73-4.77c0-2.09-1-4.73-3.68-4.73s-3.79 2.44-3.79 4.78zM998.41 325.64c0-1.27 0-2.31-.1-3.32h2l.13 2h.05a4.51 4.51 0 0 1 4.06-2.31c1.7 0 4.34 1 4.34 5.23v7.34h-2.23v-7.09c0-2-.74-3.63-2.85-3.63a3.17 3.17 0 0 0-3 2.29 3.26 3.26 0 0 0-.15 1v7.39h-2.24zM1015.09 318.79v3.53h3.2V324h-3.2v6.62c0 1.53.43 2.39 1.68 2.39a4.81 4.81 0 0 0 1.29-.15l.1 1.67a5.37 5.37 0 0 1-2 .31 3.09 3.09 0 0 1-2.41-.94 4.57 4.57 0 0 1-.86-3.2V324H1011v-1.7h1.91v-2.95zM1020.8 326.15c0-1.45 0-2.69-.1-3.83h2l.07 2.41h.11a3.67 3.67 0 0 1 3.4-2.69 2.43 2.43 0 0 1 .63.07v2.11a3.34 3.34 0 0 0-.76-.08 3.13 3.13 0 0 0-3 2.87 5.44 5.44 0 0 0-.11 1v6.56h-2.21zM1035.78 334.61l-.17-1.55h-.08a4.6 4.6 0 0 1-3.76 1.82 3.5 3.5 0 0 1-3.76-3.52c0-3 2.64-4.6 7.39-4.57v-.26a2.53 2.53 0 0 0-2.79-2.84 6.11 6.11 0 0 0-3.2.91l-.51-1.47a7.65 7.65 0 0 1 4-1.09c3.76 0 4.67 2.56 4.67 5v4.6a17.62 17.62 0 0 0 .2 2.95zm-.33-6.28c-2.43-.05-5.2.38-5.2 2.77a2 2 0 0 0 2.11 2.13 3.06 3.06 0 0 0 3-2.05 2.52 2.52 0 0 0 .12-.71zM1050 334.15a8.33 8.33 0 0 1-3.53.71c-3.71 0-6.12-2.51-6.12-6.27a6.24 6.24 0 0 1 6.6-6.53 7.39 7.39 0 0 1 3.1.64l-.51 1.72a5.23 5.23 0 0 0-2.59-.58c-2.82 0-4.34 2.08-4.34 4.65 0 2.84 1.83 4.59 4.26 4.59a6.39 6.39 0 0 0 2.75-.61zM1055.61 318.79v3.53h3.2V324h-3.2v6.62c0 1.53.43 2.39 1.68 2.39a4.81 4.81 0 0 0 1.29-.15l.1 1.67a5.37 5.37 0 0 1-2 .31 3.09 3.09 0 0 1-2.41-.94 4.57 4.57 0 0 1-.86-3.2V324h-1.91v-1.7h1.91v-2.95zM1061 332.32a5.87 5.87 0 0 0 2.94.89c1.63 0 2.39-.81 2.39-1.83s-.63-1.65-2.28-2.26c-2.21-.79-3.25-2-3.25-3.48 0-2 1.6-3.6 4.24-3.6a6.11 6.11 0 0 1 3 .76l-.56 1.62a4.81 4.81 0 0 0-2.51-.71c-1.32 0-2.06.76-2.06 1.68s.74 1.47 2.34 2.08c2.13.81 3.22 1.88 3.22 3.71 0 2.16-1.68 3.68-4.6 3.68a7 7 0 0 1-3.45-.84z"/><circle class="cls-6" cx="869.42" cy="217.26" r="4.48"/><circle class="cls-6" cx="869.79" cy="272" r="4.48"/><circle class="cls-6" cx="870.16" cy="326.74" r="4.48"/><path class="cls-5" d="M46.77 119.71v4.56l-10.44-5.86 10.39-5.84v4.51h11v-10.51H40.66a6.67 6.67 0 0 1-6.73-5.57 6.85 6.85 0 0 1-.07-1.2V63.06a6.61 6.61 0 0 1 6.71-6.77h54.6a6.6 6.6 0 0 1 6.69 6.7v36.75a6.64 6.64 0 0 1-6.86 6.82H76.72v10.51h7.13v-4.55l10.45 5.88-10.44 5.87v-4.57zM67.68 104h27.13a4.12 4.12 0 0 0 4.47-4.5V63.29a4.13 4.13 0 0 0-4.48-4.5H40.89c-2.81 0-4.46 1.7-4.46 4.52v36.14c0 2.92 1.65 4.57 4.57 4.57h24.01v-5.7h-14.7c-3.78 0-6.11-2.33-6.09-6.1a1.27 1.27 0 0 0-.91-1.45 5 5 0 0 1-2.93-5.69 5.29 5.29 0 0 1 10.27 0 4.92 4.92 0 0 1-2.83 5.66c-1 .4-1.06 1-1 1.8.07 1.73 1 3.09 2.52 3.2 2.12.15 4.26 0 6.48 0v-1-9.27c0-1.61-.51-2.13-2.13-2.25a4 4 0 0 1-3.8-4v-1.36l-.88-.27a5.13 5.13 0 0 1-3.54-5.36 5.28 5.28 0 0 1 10.28-.89 5 5 0 0 1-2.61 5.92c-.51.25-.76.52-.67 1.09v1a1.36 1.36 0 0 0 1.1 1.27c.72.16 1.46.23 2.28.35V79.6A4.3 4.3 0 0 1 60 75.12c1.36-.12 1.78-.58 1.8-2a8.22 8.22 0 0 1 0-.86 1.2 1.2 0 0 0-.89-1.46 5 5 0 0 1-3-5.6 5.28 5.28 0 0 1 10.18-.47 4.76 4.76 0 0 1-2.29 5.77 2.21 2.21 0 0 0-1.47 2.67 2.25 2.25 0 0 1 0 .26 4 4 0 0 1-3.91 4.16c-1.45.12-2 .74-2 2.2v15.92h6.62v-3.73a1 1 0 0 0-.72-1.12A5 5 0 0 1 61.2 85a5.27 5.27 0 0 1 5.23-4 5.2 5.2 0 0 1 5 4.12 5.09 5.09 0 0 1-3.15 5.75c-.26.11-.64.4-.64.61-.06 1.39 0 2.79 0 4.2H77v-9a1.77 1.77 0 0 0-1.8-2c-2.85-.35-4.1-1.73-4.09-4.57 0-.6-.13-.88-.77-1.07a5 5 0 0 1-3.65-5.51 5.16 5.16 0 0 1 4.67-4.42 5.23 5.23 0 0 1 5.58 3.62 5 5 0 0 1-2.64 6 .91.91 0 0 0-.62 1v.86A1.49 1.49 0 0 0 75 82.15c.64.1 1.28.17 2 .26v-.67c0-3.39 1.25-4.76 4.6-5.21a1.47 1.47 0 0 0 1.4-1.41v-2.45c-2.83-1.15-4.26-3.21-3.9-5.61a5.29 5.29 0 0 1 10.24-.88 4.93 4.93 0 0 1-.11 3.28 5.46 5.46 0 0 1-3.63 3.23v2.12a4 4 0 0 1-3.75 4.24c-1.84.23-2.22.67-2.22 2.55v14.17h2.61c2.53 0 3.63-1.13 3.67-3.67a1.16 1.16 0 0 0-.91-1.32 5 5 0 0 1-3-5.64 5.28 5.28 0 0 1 10.31.07 5.09 5.09 0 0 1-3.09 5.63l-.85.35a16.57 16.57 0 0 1 0 2.23 5.58 5.58 0 0 1-5.8 4.89h-14.9zm6.32 2.87H60.52v10H74zm7.64-39.24a2.7 2.7 0 0 0 5.4.08 2.7 2.7 0 0 0-5.4-.08zm5.58 21.13a2.61 2.61 0 1 0-2.67-2.62 2.57 2.57 0 0 0 2.62 2.62zm-18-14.61a2.69 2.69 0 0 0 5.37.06 2.69 2.69 0 0 0-5.37-.06zm-2.88 9.39a2.61 2.61 0 1 0 0 5.22 2.61 2.61 0 1 0 0-5.22zm-15.72-8.2a2.58 2.58 0 0 0 2.72-2.58 2.69 2.69 0 0 0-5.38-.06 2.59 2.59 0 0 0 2.63 2.64zM63 68.83a2.61 2.61 0 1 0-2.68-2.66A2.69 2.69 0 0 0 63 68.83zM45.52 83.54a2.61 2.61 0 1 0 0 5.22 2.61 2.61 0 1 0 0-5.22zM463.66 125h5.78v-9.75H447.2c-4.52 0-7.19-2.66-7.2-7.21V62.28a6.63 6.63 0 0 1 7.05-7.28h45.07c.84 0 1.27-.14 1.6-1a5.38 5.38 0 0 1 5.21-3.37 5.58 5.58 0 0 1 5 3.61c.09.24.17.48.28.77h7.48c4.35 0 7 2.69 7 7.06v19H516v-19c0-2.84-1.48-4.29-4.31-4.29h-6.8a1.23 1.23 0 0 0-.94.53 5.43 5.43 0 0 1-5.21 3.41 5.36 5.36 0 0 1-5.17-3.6 2.12 2.12 0 0 0-.21-.36H447.2c-2.88 0-4.35 1.45-4.35 4.35v46c0 2.86 1.43 4.34 4.29 4.35h21.76c6.58 0 13.17-.06 19.75-.06 7.64 0 15.27 0 22.92.06 3.08 0 4.48-1.42 4.48-4.52v-9.61h-5l6.45-11.08 6.33 11.07h-5v10.21a6.49 6.49 0 0 1-6.27 6.73h-23.22v9.67h5.83v2.71h-31.51zm8.63-9.69v9.54h14.21v-9.55zm29.3-59.1a2.8 2.8 0 1 0-5.59-.3 1.5 1.5 0 0 0 0 .3 2.8 2.8 0 1 0 5.59.31 1.6 1.6 0 0 0 0-.32z"/><path class="cls-5" d="M493.16 95.53h6.78v2.66h-41.39v-2.66h7.17c-3.23-4.71-4.29-9.69-2.78-15.1a16.65 16.65 0 0 1 6.55-9.26A17.11 17.11 0 0 1 491 72.5a17.35 17.35 0 0 1 2.16 23.03zm-13.72 0h9.21a1.73 1.73 0 0 0 1.09-.39 13.89 13.89 0 0 0 4.06-10.42 14.3 14.3 0 0 0-14.64-14 13.11 13.11 0 0 0-2.25.23 13.59 13.59 0 0 0-11.13 9.65c-1.76 5.3-.58 10.14 3.16 14.31a1.94 1.94 0 0 0 1.31.55h9.19z"/><path class="cls-5" d="M480 90.61v2.11h-1.76v-1.85l-3.62-1 .6-2.06c1.06.27 2 .59 3 .75a3.29 3.29 0 0 0 1.58-.19 1.52 1.52 0 0 0 .44-2.8 7.59 7.59 0 0 0-1.5-.84c-.68-.33-1.42-.59-2.08-1a3.29 3.29 0 0 1-1.83-3.37 3.49 3.49 0 0 1 2.35-3c.33-.13.67-.22 1.08-.37V75h1.85l.1 1.82 2.93.77-.59 2a10.41 10.41 0 0 0-1.73-.51 5.66 5.66 0 0 0-2.17 0 1.83 1.83 0 0 0-1.05 1.17c-.08.35.31.92.64 1.25a3.92 3.92 0 0 0 1.25.69c.71.35 1.47.62 2.17 1a3.56 3.56 0 0 1 2 3.73 3.65 3.65 0 0 1-2.45 3.14c-.34.25-.71.35-1.21.55zM904.58 61.41v-3.95l9.22 5.15-9.23 5.15v-4a27.07 27.07 0 0 0-6.65.73C886.71 67.3 879 74.05 876 85.3c-3.47 12.62 2.58 25.72 14.36 32 14.47 7.73 32.75 2.42 40.46-11.75a27.29 27.29 0 0 0 3.36-12.21l-.73-.27a4.46 4.46 0 0 1-2.86-5 4.66 4.66 0 0 1 9.07-.19 4.35 4.35 0 0 1-2.5 5 1.08 1.08 0 0 0-.73 1.1 29.92 29.92 0 0 1-13.94 23.73 32.56 32.56 0 0 1-42.68-6.17 30.16 30.16 0 0 1 7.89-45.37 32.19 32.19 0 0 1 16.06-4.69h.63a1.21 1.21 0 0 0 .19-.07zm28.15 27.51a2.31 2.31 0 0 0 2.41 2.29 2.4 2.4 0 0 0 2.37-2.29 2.34 2.34 0 0 0-2.41-2.31 2.27 2.27 0 0 0-2.37 2.31z"/><path class="cls-5" d="M914.09 96.44h-9.33c0-1.65-.13-3.14.9-4.63 2.35-3.34 4.47-6.84 6.67-10.29a1.09 1.09 0 0 1 1.07-.59h5.35v11.9h2.46v3.58h-2.45v4.81h-4.67zm0-11.57l-4.64 7.94h4.64zM889.06 86.11c-.44-1.07-.86-2-1.23-3a.68.68 0 0 1 .22-.62c3.34-2 6.87-2.6 10.51-1a6 6 0 0 1 2.88 8 14.29 14.29 0 0 1-2.56 3.85c-1.29 1.44-2.83 2.66-4.37 4.07h7.79v3.87h-14.88v-2.57a1.22 1.22 0 0 1 .44-.68c1.89-1.7 3.79-3.37 5.66-5.08a17.08 17.08 0 0 0 1.83-2 8.42 8.42 0 0 0 1.17-1.78c1.27-2.61-.13-4.78-3-4.73a7.93 7.93 0 0 0-4.46 1.67z"/></svg>