<svg id="Layer_1" data-name="Layer 1" xmlns="http://www.w3.org/2000/svg" width="100" height="100" viewBox="0 0 100 100"><title>scalable-platform</title><path d="M84.49,65.53c1.49.85,2.78,1.57,4.06,2.32,1.54.9,1.52,2.12,0,3-1.29.75-2.59,1.47-4,2.28,1.3.74,2.52,1.34,3.64,2.11.61.41,1.41,1.1,1.42,1.68s-.76,1.35-1.38,1.7Q70.79,88.53,53.36,98.3c-4,2.26-2.69,2.27-6.68,0Q29.25,88.54,11.87,78.67A3.27,3.27,0,0,1,10.4,77c-.25-.93.71-1.32,1.41-1.72l3.71-2.09-4-2.27c-1.62-.94-1.63-2.15,0-3.09l4-2.26-3.88-2.2c-1.78-1-1.8-2.2,0-3.2L23,53.69c-.35-.23-.58-.43-.84-.58l-10.77-6c-1.42-.79-1.49-1.93-.19-3Q29.41,29.89,47.6,15.66a2,2,0,0,0,.87-1.82c0-3.92,0-7.85,0-11.77,0-.87.17-1.63,1.08-2,1.08-.4,2,.42,2,1.8,0,4,0,7.92,0,11.88a2.14,2.14,0,0,0,.92,1.92Q70.63,29.86,88.76,44.09c1.36,1.06,1.27,2.17-.23,3L76.92,53.61l1.2.73c3.41,1.92,6.84,3.82,10.22,5.8.55.33,1.22,1,1.22,1.56s-.64,1.22-1.18,1.59C87.22,64.08,85.94,64.71,84.49,65.53ZM85,61.81c-.12-.15-.18-.27-.28-.33-3.47-2-6.94-3.94-10.44-5.86a1.42,1.42,0,0,0-1.18.11q-8.31,4.62-16.55,9.33a1.75,1.75,0,0,0-.76,1.18,5.8,5.8,0,0,1-11.58.05,1.78,1.78,0,0,0-.72-1.21C38,61.94,32.47,58.85,27,55.72a1.32,1.32,0,0,0-1.53,0c-3.22,1.85-6.46,3.65-9.69,5.47-.25.15-.47.34-.75.55l.61.39q16.81,9.48,33.61,19A1.53,1.53,0,0,0,51,81L72,69.14Zm.11-16.29L51.54,26.6v1.47c0,10.22,0,20.45,0,30.68,0,1.21.12,2.08,1.44,2.44a2,2,0,0,1,1,.7c.6.79,1.16.68,1.94.23q14.1-8,28.23-15.95C84.36,46,84.66,45.8,85.11,45.52Zm-36.6-19-33.63,19c.55.33.92.57,1.3.78Q30.09,54.16,44,62c.87.49,1.51.73,2.23-.2a2.65,2.65,0,0,1,1.3-.85c.94-.23,1-.84,1-1.62q0-15.63,0-31.26ZM15.13,69.44c.09.06.24.19.4.28q16.86,9.52,33.71,19A1.55,1.55,0,0,0,51,88.61Q67.49,79.3,84,70c.34-.19.67-.4,1.13-.67-1-.59-1.92-1-2.75-1.6a1.65,1.65,0,0,0-2,0c-9.65,5.47-19.32,10.89-29,16.38a2.58,2.58,0,0,1-2.9,0c-8.9-5.06-17.89-10-26.71-15.18C19.26,67.41,17.26,67.1,15.13,69.44ZM85,77c-1-.56-1.78-.94-2.5-1.45a1.89,1.89,0,0,0-2.29,0C70.68,80.94,61.1,86.31,51.55,91.74a2.81,2.81,0,0,1-3.13,0q-14.37-8.17-28.8-16.26c-.36-.2-.9-.52-1.18-.4-1.14.52-2.21,1.19-3.38,1.85.25.19.3.25.37.29q16.93,9.56,33.89,19.08a2,2,0,0,0,1.6-.13c5.93-3.29,11.83-6.64,17.74-10ZM51.57,18.84c0,1.29,0,2.29,0,3.28a1.49,1.49,0,0,0,.92,1.61C58,26.81,63.51,29.93,69,33c.28.16.58.29.87.43l.1-.18ZM29.93,33.36c.23,0,.32.07.37,0q8.79-4.95,17.59-9.91a1.07,1.07,0,0,0,.53-.7c0-1.22,0-2.45,0-3.93ZM50,69a3,3,0,0,0,3-2.92A3,3,0,0,0,47,66,2.94,2.94,0,0,0,50,69Z"/></svg>