<svg id="Layer_1" data-name="Layer 1" xmlns="http://www.w3.org/2000/svg" width="100" height="100" viewBox="0 0 100 100"><title>security-protocols</title><path d="M52.32,0l2.59.55A24.15,24.15,0,0,1,73.77,22.21c0,.14,0,.28.1.57h6L72.2,36.15,64.52,22.86h6c-.17-1.15-.26-2.17-.48-3.15A20.88,20.88,0,0,0,29,21.4a18.28,18.28,0,0,0-.17,2.34c0,6,0,11.9,0,17.85,0,.25,0,.51.07.93H70.11A14.91,14.91,0,0,1,82.4,48.2a14.14,14.14,0,0,1,3.22,9.17q0,13.79,0,27.56A14.83,14.83,0,0,1,73.13,99.8a2.3,2.3,0,0,0-.49.2H27.32a5.78,5.78,0,0,0-.7-.24,14.73,14.73,0,0,1-11.15-9.12,36.3,36.3,0,0,1-1.09-3.59V55.36a4.71,4.71,0,0,0,.22-.59,14.8,14.8,0,0,1,9.86-11.41,1.26,1.26,0,0,0,1-1.43c0-6.24-.19-12.49.11-18.72C26,13.05,31.24,5.93,40.48,1.83A46.45,46.45,0,0,1,47,0ZM50,96.65H70.44A11.57,11.57,0,0,0,82.33,85q.09-13.67,0-27.33A11.52,11.52,0,0,0,70.92,45.89q-20.93-.07-41.84,0A11.39,11.39,0,0,0,17.75,57q-.2,14.22,0,28.45A11.45,11.45,0,0,0,29.38,96.65Z"/><path d="M51.21,74.88V81H48.06V63.63c2.77-.36,5.56-.71,8.32.14a4.73,4.73,0,0,1,3.48,4.56c.09,2.33-.68,4.38-3,5.26A37.75,37.75,0,0,1,51.21,74.88Zm0-3c1.89.09,3.72.36,4.91-1.45A3.17,3.17,0,0,0,56,66.94c-.87-1.11-2.9-1.49-4.77-.88Z"/><path d="M41.21,63.43h3V81h-3Z"/></svg>