<svg id="Layer_1" data-name="Layer 1" xmlns="http://www.w3.org/2000/svg" width="825.73" height="148.65" viewBox="0 0 825.73 148.65"><title>improve-business-agility-compliance</title><path d="M4.42,99.89a27,27,0,0,1,4.08-.31c2.75,0,4.7.64,6,1.85a6.82,6.82,0,0,1,2.09,5.32,7.89,7.89,0,0,1-2.13,5.77c-1.39,1.38-3.68,2.13-6.56,2.13a31.2,31.2,0,0,1-3.48-.17ZM6.34,113a11.81,11.81,0,0,0,1.93.11c4.1,0,6.32-2.29,6.32-6.29,0-3.5-2-5.72-6-5.72a10.76,10.76,0,0,0-2.24.2Z"/><path d="M20.18,109.55a3.41,3.41,0,0,0,3.65,3.69,7,7,0,0,0,3-.55l.33,1.39a8.64,8.64,0,0,1-3.55.66c-3.27,0-5.23-2.16-5.23-5.37s1.89-5.74,5-5.74c3.48,0,4.4,3.06,4.4,5a8.16,8.16,0,0,1-.06.91Zm5.67-1.39c0-1.23-.5-3.15-2.68-3.15-2,0-2.82,1.81-3,3.15Z"/><path d="M30.32,114.52v-9.18h-1.5v-1.47h1.5v-.57A4.26,4.26,0,0,1,35,98.66a5.31,5.31,0,0,1,2.71.7l-.55,1.47a4.08,4.08,0,0,0-2.25-.61c-2,0-2.64,1.43-2.64,3.12v.53h6.19v10.65H36.5v-9.18H32.23v9.18Z"/><path d="M41.63,106.75c0-1.1,0-2-.09-2.88h1.71l.11,1.76h0a3.92,3.92,0,0,1,3.52-2c1.47,0,3.76.88,3.76,4.53v6.36H48.75v-6.14c0-1.72-.63-3.15-2.46-3.15a2.76,2.76,0,0,0-2.6,2,3.12,3.12,0,0,0-.13.91v6.4H41.63Z"/><path d="M54.91,109.55a3.42,3.42,0,0,0,3.66,3.69,6.93,6.93,0,0,0,2.94-.55l.33,1.39a8.55,8.55,0,0,1-3.54.66c-3.28,0-5.23-2.16-5.23-5.37s1.89-5.74,5-5.74c3.48,0,4.4,3.06,4.4,5a6,6,0,0,1-.07.91Zm5.68-1.39c0-1.23-.51-3.15-2.68-3.15-2,0-2.82,1.81-3,3.15Z"/><path d="M74.05,98.9v12.87c0,1,0,2,.09,2.75H72.4l-.08-1.85h0a3.93,3.93,0,0,1-3.63,2.09c-2.57,0-4.55-2.18-4.55-5.41,0-3.54,2.18-5.72,4.77-5.72a3.55,3.55,0,0,1,3.21,1.63h.05V98.9Zm-1.93,9.3a3.2,3.2,0,0,0-.09-.81,2.85,2.85,0,0,0-2.79-2.24c-2,0-3.2,1.76-3.2,4.11,0,2.16,1.06,3.94,3.15,3.94A2.91,2.91,0,0,0,72,110.89a3.23,3.23,0,0,0,.09-.84Z"/><path d="M81.66,112.54a5.16,5.16,0,0,0,2.56.77c1.41,0,2.07-.7,2.07-1.59s-.55-1.43-2-2c-1.91-.69-2.81-1.74-2.81-3,0-1.71,1.39-3.12,3.67-3.12a5.33,5.33,0,0,1,2.62.66l-.48,1.41a4.1,4.1,0,0,0-2.18-.62c-1.15,0-1.78.66-1.78,1.45s.63,1.28,2,1.81c1.85.7,2.8,1.62,2.8,3.21,0,1.87-1.46,3.19-4,3.19a6.09,6.09,0,0,1-3-.73Z"/><path d="M93,100.81v3.06h2.78v1.47H93v5.75c0,1.32.38,2.07,1.45,2.07a4.17,4.17,0,0,0,1.13-.14l.08,1.46a4.78,4.78,0,0,1-1.71.26,2.71,2.71,0,0,1-2.09-.81,4,4,0,0,1-.75-2.78v-5.81H89.43v-1.47h1.65v-2.55Z"/><path d="M103.82,114.52l-.15-1.34h-.07a4,4,0,0,1-3.26,1.58,3,3,0,0,1-3.25-3.06c0-2.57,2.29-4,6.4-4v-.22a2.19,2.19,0,0,0-2.42-2.46,5.31,5.31,0,0,0-2.77.79l-.44-1.28a6.61,6.61,0,0,1,3.5-.94c3.25,0,4,2.22,4,4.35v4a15.21,15.21,0,0,0,.18,2.55Zm-.29-5.44c-2.11,0-4.51.33-4.51,2.4a1.71,1.71,0,0,0,1.83,1.85,2.63,2.63,0,0,0,2.57-1.78,1.93,1.93,0,0,0,.11-.62Z"/><path d="M108.53,106.75c0-1.1,0-2-.09-2.88h1.71l.11,1.76h0a3.92,3.92,0,0,1,3.52-2c1.47,0,3.76.88,3.76,4.53v6.36h-1.93v-6.14c0-1.72-.64-3.15-2.47-3.15a2.77,2.77,0,0,0-2.6,2,3.12,3.12,0,0,0-.13.91v6.4h-1.93Z"/><path d="M129.93,98.9v12.87c0,1,0,2,.09,2.75h-1.74l-.08-1.85h0a3.93,3.93,0,0,1-3.63,2.09c-2.57,0-4.55-2.18-4.55-5.41,0-3.54,2.17-5.72,4.77-5.72a3.55,3.55,0,0,1,3.21,1.63h0V98.9ZM128,108.2a3.2,3.2,0,0,0-.09-.81,2.85,2.85,0,0,0-2.8-2.24c-2,0-3.19,1.76-3.19,4.11,0,2.16,1.06,3.94,3.15,3.94a2.91,2.91,0,0,0,2.84-2.31,3.23,3.23,0,0,0,.09-.84Z"/><path d="M139,114.52l-.15-1.34h-.07a4,4,0,0,1-3.26,1.58,3,3,0,0,1-3.25-3.06c0-2.57,2.29-4,6.4-4v-.22a2.19,2.19,0,0,0-2.42-2.46,5.34,5.34,0,0,0-2.77.79l-.44-1.28a6.61,6.61,0,0,1,3.5-.94c3.25,0,4,2.22,4,4.35v4a15.28,15.28,0,0,0,.17,2.55Zm-.29-5.44c-2.11,0-4.51.33-4.51,2.4a1.71,1.71,0,0,0,1.83,1.85,2.66,2.66,0,0,0,2.58-1.78,2.23,2.23,0,0,0,.1-.62Z"/><path d="M143.75,107.19c0-1.25,0-2.33-.09-3.32h1.69l.07,2.09h.09a3.19,3.19,0,0,1,3-2.33,2.32,2.32,0,0,1,.55.06v1.83a3.18,3.18,0,0,0-.66-.07,2.72,2.72,0,0,0-2.6,2.49,5.82,5.82,0,0,0-.09.9v5.68h-1.91Z"/><path d="M159.92,98.9v12.87c0,1,0,2,.09,2.75h-1.74l-.09-1.85h0a3.94,3.94,0,0,1-3.63,2.09c-2.58,0-4.56-2.18-4.56-5.41,0-3.54,2.18-5.72,4.78-5.72a3.55,3.55,0,0,1,3.21,1.63h0V98.9ZM158,108.2a3.71,3.71,0,0,0-.08-.81,2.86,2.86,0,0,0-2.8-2.24c-2,0-3.19,1.76-3.19,4.11,0,2.16,1.06,3.94,3.15,3.94a2.92,2.92,0,0,0,2.84-2.31,3.74,3.74,0,0,0,.08-.84Z"/><path d="M165.29,100.88a1.2,1.2,0,0,1-2.4,0,1.18,1.18,0,0,1,1.21-1.21A1.16,1.16,0,0,1,165.29,100.88Zm-2.16,13.64V103.87h1.94v10.65Z"/><path d="M167.07,113.4l4.82-6.27c.46-.58.9-1.08,1.38-1.65v0h-5.76v-1.56h8.12l0,1.21-4.76,6.18c-.44.6-.88,1.13-1.36,1.68v0h6.22v1.54h-8.64Z"/><path d="M178.62,109.55a3.41,3.41,0,0,0,3.65,3.69,7,7,0,0,0,2.95-.55l.33,1.39a8.59,8.59,0,0,1-3.54.66c-3.28,0-5.24-2.16-5.24-5.37s1.89-5.74,5-5.74c3.48,0,4.41,3.06,4.41,5a7.67,7.67,0,0,1-.07.91Zm5.67-1.39c0-1.23-.5-3.15-2.68-3.15-2,0-2.82,1.81-3,3.15Z"/><path d="M197.76,98.9v12.87c0,1,0,2,.09,2.75h-1.74l-.09-1.85h0a4,4,0,0,1-3.63,2.09c-2.58,0-4.56-2.18-4.56-5.41,0-3.54,2.18-5.72,4.78-5.72a3.56,3.56,0,0,1,3.21,1.63h0V98.9Zm-1.94,9.3a3.71,3.71,0,0,0-.08-.81,2.86,2.86,0,0,0-2.8-2.24c-2,0-3.19,1.76-3.19,4.11,0,2.16,1.06,3.94,3.15,3.94a2.92,2.92,0,0,0,2.84-2.31,3.74,3.74,0,0,0,.08-.84Z"/><path d="M57.93,133.75c0-1.37,0-2.47-.09-3.48h1.74l.09,1.83h0A4.18,4.18,0,0,1,63.49,130c2.58,0,4.51,2.18,4.51,5.41,0,3.83-2.33,5.72-4.84,5.72a3.71,3.71,0,0,1-3.27-1.67h0v5.79H57.93Zm1.91,2.83a4.89,4.89,0,0,0,.09.8,3,3,0,0,0,2.9,2.26c2,0,3.24-1.67,3.24-4.11,0-2.14-1.12-4-3.17-4A3.09,3.09,0,0,0,60,134a3.35,3.35,0,0,0-.13.79Z"/><path d="M70.45,133.59c0-1.25,0-2.33-.09-3.32h1.69l.07,2.09h.09A3.19,3.19,0,0,1,75.15,130a2.26,2.26,0,0,1,.55.06v1.83a3,3,0,0,0-.66-.07,2.72,2.72,0,0,0-2.59,2.49,4.8,4.8,0,0,0-.09.9v5.68H70.45Z"/><path d="M87.06,135.51c0,3.94-2.73,5.65-5.31,5.65-2.88,0-5.1-2.11-5.1-5.48,0-3.56,2.33-5.65,5.28-5.65S87.06,132.25,87.06,135.51Zm-8.45.11c0,2.33,1.34,4.09,3.23,4.09s3.24-1.74,3.24-4.14c0-1.8-.91-4.09-3.19-4.09S78.61,133.59,78.61,135.62Z"/><path d="M97.09,140.52a7.05,7.05,0,0,1-3.06.62,5.06,5.06,0,0,1-5.3-5.44,5.41,5.41,0,0,1,5.72-5.65,6.54,6.54,0,0,1,2.68.55l-.44,1.5a4.41,4.41,0,0,0-2.24-.51c-2.45,0-3.77,1.8-3.77,4a3.66,3.66,0,0,0,3.7,4,5.55,5.55,0,0,0,2.38-.53Z"/><path d="M100.3,136a3.41,3.41,0,0,0,3.65,3.69,7,7,0,0,0,3-.55l.33,1.39a8.59,8.59,0,0,1-3.54.66c-3.28,0-5.24-2.16-5.24-5.37s1.89-5.74,5-5.74c3.47,0,4.4,3.06,4.4,5a7.67,7.67,0,0,1-.07.91Zm5.68-1.39c0-1.23-.51-3.15-2.69-3.15-2,0-2.81,1.81-3,3.15Z"/><path d="M110,138.94a5.09,5.09,0,0,0,2.55.77c1.41,0,2.07-.7,2.07-1.59s-.55-1.43-2-2c-1.91-.69-2.82-1.74-2.82-3,0-1.71,1.39-3.12,3.68-3.12a5.36,5.36,0,0,1,2.62.66l-.49,1.41a4.1,4.1,0,0,0-2.18-.62c-1.14,0-1.78.66-1.78,1.45s.64,1.28,2,1.81c1.84.7,2.79,1.62,2.79,3.21,0,1.87-1.45,3.19-4,3.19a6,6,0,0,1-3-.73Z"/><path d="M118.69,138.94a5.13,5.13,0,0,0,2.55.77c1.41,0,2.07-.7,2.07-1.59s-.55-1.43-2-2c-1.91-.69-2.82-1.74-2.82-3,0-1.71,1.39-3.12,3.68-3.12a5.36,5.36,0,0,1,2.62.66l-.49,1.41a4,4,0,0,0-2.17-.62c-1.15,0-1.79.66-1.79,1.45s.64,1.28,2,1.81c1.85.7,2.79,1.62,2.79,3.21,0,1.87-1.45,3.19-4,3.19a6.06,6.06,0,0,1-3-.73Z"/><path d="M128.75,136a3.41,3.41,0,0,0,3.65,3.69,7,7,0,0,0,2.95-.55l.33,1.39a8.64,8.64,0,0,1-3.55.66c-3.28,0-5.23-2.16-5.23-5.37s1.89-5.74,5-5.74c3.48,0,4.4,3.06,4.4,5a8.16,8.16,0,0,1-.06.91Zm5.67-1.39c0-1.23-.5-3.15-2.68-3.15-2,0-2.82,1.81-3,3.15Z"/><path d="M138.42,138.94a5.16,5.16,0,0,0,2.56.77c1.4,0,2.06-.7,2.06-1.59s-.54-1.43-2-2c-1.91-.69-2.81-1.74-2.81-3,0-1.71,1.38-3.12,3.67-3.12a5.33,5.33,0,0,1,2.62.66l-.48,1.41a4.1,4.1,0,0,0-2.18-.62c-1.15,0-1.78.66-1.78,1.45s.63,1.28,2,1.81c1.85.7,2.8,1.62,2.8,3.21,0,1.87-1.46,3.19-4,3.19a6.09,6.09,0,0,1-3-.73Z"/><path d="M275.43,99.89a19.72,19.72,0,0,1,3.67-.31c2,0,3.37.37,4.29,1.21a3.69,3.69,0,0,1,1.17,2.82,3.89,3.89,0,0,1-2.8,3.78v.07c1.15.39,1.83,1.45,2.18,3a23.68,23.68,0,0,0,1.15,4.07h-2a17.91,17.91,0,0,1-1-3.54c-.44-2-1.24-2.82-3-2.89h-1.81v6.43h-1.91Zm1.91,6.75h2c2.05,0,3.35-1.12,3.35-2.81,0-1.92-1.39-2.75-3.42-2.78a7.72,7.72,0,0,0-1.89.18Z"/><path d="M288.36,109.55a3.42,3.42,0,0,0,3.66,3.69,6.93,6.93,0,0,0,2.94-.55l.33,1.39a8.55,8.55,0,0,1-3.54.66c-3.28,0-5.23-2.16-5.23-5.37s1.89-5.74,5-5.74c3.48,0,4.4,3.06,4.4,5a6,6,0,0,1-.07.91Zm5.68-1.39c0-1.23-.51-3.15-2.68-3.15-2,0-2.82,1.81-3,3.15Z"/><path d="M307.5,98.9v12.87c0,1,0,2,.09,2.75h-1.74l-.08-1.85h0a3.93,3.93,0,0,1-3.63,2.09c-2.57,0-4.55-2.18-4.55-5.41,0-3.54,2.18-5.72,4.77-5.72a3.55,3.55,0,0,1,3.21,1.63h.05V98.9Zm-1.93,9.3a3.2,3.2,0,0,0-.09-.81,2.85,2.85,0,0,0-2.79-2.24c-2,0-3.2,1.76-3.2,4.11,0,2.16,1.06,3.94,3.15,3.94a2.91,2.91,0,0,0,2.84-2.31,3.23,3.23,0,0,0,.09-.84Z"/><path d="M319.63,111.62c0,1.1,0,2.06.08,2.9H318l-.11-1.74h-.05a4,4,0,0,1-3.52,2c-1.67,0-3.67-.92-3.67-4.66v-6.23h1.94v5.9c0,2,.61,3.39,2.37,3.39a2.75,2.75,0,0,0,2.73-2.76v-6.53h1.94Z"/><path d="M330.43,114.12a7.05,7.05,0,0,1-3.06.62,5.06,5.06,0,0,1-5.3-5.44,5.41,5.41,0,0,1,5.72-5.65,6.54,6.54,0,0,1,2.68.55l-.44,1.5a4.41,4.41,0,0,0-2.24-.51c-2.44,0-3.77,1.8-3.77,4a3.66,3.66,0,0,0,3.7,4,5.55,5.55,0,0,0,2.38-.53Z"/><path d="M333.64,109.55a3.41,3.41,0,0,0,3.65,3.69,7,7,0,0,0,2.95-.55l.33,1.39a8.59,8.59,0,0,1-3.54.66c-3.28,0-5.24-2.16-5.24-5.37s1.89-5.74,5-5.74c3.47,0,4.4,3.06,4.4,5a7.67,7.67,0,0,1-.07.91Zm5.68-1.39c0-1.23-.51-3.15-2.69-3.15-2,0-2.82,1.81-3,3.15Z"/><path d="M352.78,98.9v12.87c0,1,0,2,.09,2.75h-1.74l-.09-1.85h0a3.94,3.94,0,0,1-3.63,2.09c-2.58,0-4.56-2.18-4.56-5.41,0-3.54,2.18-5.72,4.78-5.72a3.55,3.55,0,0,1,3.21,1.63h0V98.9Zm-1.94,9.3a3.71,3.71,0,0,0-.08-.81,2.86,2.86,0,0,0-2.8-2.24c-2,0-3.19,1.76-3.19,4.11,0,2.16,1.06,3.94,3.15,3.94a2.92,2.92,0,0,0,2.84-2.31,3.74,3.74,0,0,0,.08-.84Z"/><path d="M275.88,127.28a1.14,1.14,0,0,1-1.23,1.19,1.16,1.16,0,0,1-1.17-1.19,1.18,1.18,0,0,1,1.21-1.21A1.15,1.15,0,0,1,275.88,127.28Zm-2.16,13.64V130.27h1.94v10.65Z"/><path d="M278.87,133.15c0-1.1,0-2-.09-2.88h1.72l.11,1.76h0a3.92,3.92,0,0,1,3.52-2c1.48,0,3.77.88,3.77,4.53v6.36H286v-6.14c0-1.72-.64-3.15-2.47-3.15a2.76,2.76,0,0,0-2.59,2,2.82,2.82,0,0,0-.13.91v6.4h-1.94Z"/><path d="M298.67,140.52a7,7,0,0,1-3.06.62,5.06,5.06,0,0,1-5.3-5.44,5.41,5.41,0,0,1,5.72-5.65,6.55,6.55,0,0,1,2.69.55l-.45,1.5a4.39,4.39,0,0,0-2.24-.51c-2.44,0-3.76,1.8-3.76,4a3.65,3.65,0,0,0,3.7,4,5.53,5.53,0,0,0,2.37-.53Z"/><path d="M303.09,127.28a1.14,1.14,0,0,1-1.23,1.19,1.16,1.16,0,0,1-1.17-1.19,1.18,1.18,0,0,1,1.21-1.21A1.15,1.15,0,0,1,303.09,127.28Zm-2.15,13.64V130.27h1.93v10.65Z"/><path d="M315.28,125.3v12.87c0,1,0,2,.09,2.75h-1.74l-.09-1.85h0a3.94,3.94,0,0,1-3.63,2.09c-2.58,0-4.56-2.18-4.56-5.41,0-3.54,2.18-5.72,4.78-5.72a3.55,3.55,0,0,1,3.21,1.63h.05V125.3Zm-1.93,9.3a3.72,3.72,0,0,0-.09-.81,2.85,2.85,0,0,0-2.8-2.24c-2,0-3.19,1.76-3.19,4.11,0,2.16,1.06,3.94,3.15,3.94a2.92,2.92,0,0,0,2.84-2.31,3.73,3.73,0,0,0,.09-.84Z"/><path d="M319.57,136a3.41,3.41,0,0,0,3.65,3.69,7,7,0,0,0,2.95-.55l.33,1.39a8.59,8.59,0,0,1-3.54.66c-3.28,0-5.24-2.16-5.24-5.37s1.89-5.74,5-5.74c3.47,0,4.4,3.06,4.4,5a7.67,7.67,0,0,1-.07.91Zm5.68-1.39c0-1.23-.51-3.15-2.69-3.15-2,0-2.81,1.81-3,3.15Z"/><path d="M329.51,133.15c0-1.1,0-2-.08-2.88h1.71l.11,1.76h.05a3.91,3.91,0,0,1,3.52-2c1.47,0,3.76.88,3.76,4.53v6.36h-1.94v-6.14c0-1.72-.63-3.15-2.46-3.15a2.76,2.76,0,0,0-2.6,2,2.82,2.82,0,0,0-.13.91v6.4h-1.94Z"/><path d="M344,127.21v3.06h2.77v1.47H344v5.75c0,1.32.37,2.06,1.45,2.06a4.1,4.1,0,0,0,1.12-.13l.09,1.46a4.84,4.84,0,0,1-1.72.26,2.72,2.72,0,0,1-2.09-.81,4,4,0,0,1-.74-2.78v-5.81h-1.65v-1.47h1.65v-2.55Z"/><path d="M348.65,138.94a5.16,5.16,0,0,0,2.56.77c1.4,0,2.06-.7,2.06-1.59s-.54-1.43-2-2c-1.91-.69-2.81-1.74-2.81-3,0-1.71,1.38-3.12,3.67-3.12a5.33,5.33,0,0,1,2.62.66l-.48,1.41a4.1,4.1,0,0,0-2.18-.62c-1.15,0-1.78.66-1.78,1.45s.63,1.28,2,1.81c1.85.7,2.8,1.62,2.8,3.21,0,1.87-1.46,3.19-4,3.19a6.09,6.09,0,0,1-3-.73Z"/><path d="M486.41,99.89a19.83,19.83,0,0,1,3.68-.31c2,0,3.36.37,4.29,1.21a3.68,3.68,0,0,1,1.16,2.82,3.9,3.9,0,0,1-2.79,3.78v.07c1.14.39,1.82,1.45,2.18,3a23,23,0,0,0,1.14,4.07h-2a19.51,19.51,0,0,1-1-3.54c-.44-2-1.23-2.82-3-2.89h-1.8v6.43h-1.92Zm1.92,6.75h1.95c2.05,0,3.35-1.12,3.35-2.81,0-1.92-1.39-2.75-3.41-2.78a7.6,7.6,0,0,0-1.89.18Z"/><path d="M499.35,109.55a3.41,3.41,0,0,0,3.65,3.69,7,7,0,0,0,2.95-.55l.33,1.39a8.59,8.59,0,0,1-3.54.66c-3.28,0-5.24-2.16-5.24-5.37s1.89-5.74,5-5.74c3.48,0,4.4,3.06,4.4,5a8.16,8.16,0,0,1-.06.91Zm5.67-1.39c0-1.23-.5-3.15-2.68-3.15-2,0-2.82,1.81-3,3.15Z"/><path d="M518.49,98.9v12.87c0,1,0,2,.09,2.75h-1.74l-.09-1.85h0a4,4,0,0,1-3.63,2.09c-2.58,0-4.56-2.18-4.56-5.41,0-3.54,2.18-5.72,4.77-5.72a3.58,3.58,0,0,1,3.22,1.63h0V98.9Zm-1.94,9.3a3.2,3.2,0,0,0-.09-.81,2.84,2.84,0,0,0-2.79-2.24c-2,0-3.19,1.76-3.19,4.11,0,2.16,1.06,3.94,3.15,3.94a2.91,2.91,0,0,0,2.83-2.31,3.23,3.23,0,0,0,.09-.84Z"/><path d="M530.61,111.62c0,1.1,0,2.06.09,2.9H529l-.11-1.74h0a4,4,0,0,1-3.52,2c-1.67,0-3.68-.92-3.68-4.66v-6.23h1.94v5.9c0,2,.62,3.39,2.38,3.39a2.81,2.81,0,0,0,2.55-1.77,2.78,2.78,0,0,0,.17-1v-6.53h1.94Z"/><path d="M541.41,114.12a7,7,0,0,1-3.06.62,5.06,5.06,0,0,1-5.3-5.44,5.41,5.41,0,0,1,5.72-5.65,6.55,6.55,0,0,1,2.69.55l-.44,1.5a4.46,4.46,0,0,0-2.25-.51c-2.44,0-3.76,1.8-3.76,4a3.65,3.65,0,0,0,3.7,4,5.49,5.49,0,0,0,2.37-.53Z"/><path d="M544.62,109.55a3.42,3.42,0,0,0,3.66,3.69,6.93,6.93,0,0,0,2.94-.55l.33,1.39a8.55,8.55,0,0,1-3.54.66c-3.28,0-5.24-2.16-5.24-5.37s1.9-5.74,5-5.74c3.48,0,4.4,3.06,4.4,5a6,6,0,0,1-.07.91Zm5.68-1.39c0-1.23-.51-3.15-2.68-3.15-2,0-2.82,1.81-3,3.15Z"/><path d="M563.76,98.9v12.87c0,1,0,2,.09,2.75h-1.74l-.08-1.85h0a3.93,3.93,0,0,1-3.63,2.09c-2.57,0-4.55-2.18-4.55-5.41,0-3.54,2.18-5.72,4.77-5.72a3.55,3.55,0,0,1,3.21,1.63h.05V98.9Zm-1.93,9.3a3.2,3.2,0,0,0-.09-.81,2.85,2.85,0,0,0-2.79-2.24c-2,0-3.2,1.76-3.2,4.11,0,2.16,1.06,3.94,3.15,3.94a2.91,2.91,0,0,0,2.84-2.31,3.23,3.23,0,0,0,.09-.84Z"/><path d="M515.35,140.52a7,7,0,0,1-3.06.62,5.06,5.06,0,0,1-5.3-5.44,5.41,5.41,0,0,1,5.72-5.65,6.55,6.55,0,0,1,2.69.55l-.44,1.5a4.43,4.43,0,0,0-2.25-.51c-2.44,0-3.76,1.8-3.76,4a3.66,3.66,0,0,0,3.7,4,5.49,5.49,0,0,0,2.37-.53Z"/><path d="M527.12,135.51c0,3.94-2.72,5.65-5.3,5.65-2.88,0-5.1-2.11-5.1-5.48,0-3.56,2.33-5.65,5.28-5.65S527.12,132.25,527.12,135.51Zm-8.45.11c0,2.33,1.35,4.09,3.24,4.09s3.23-1.74,3.23-4.14c0-1.8-.9-4.09-3.19-4.09S518.67,133.59,518.67,135.62Z"/><path d="M529.3,138.94a5.09,5.09,0,0,0,2.55.77c1.41,0,2.07-.7,2.07-1.59s-.55-1.43-2-2c-1.91-.69-2.82-1.74-2.82-3,0-1.71,1.39-3.12,3.68-3.12a5.36,5.36,0,0,1,2.62.66l-.49,1.41a4.07,4.07,0,0,0-2.18-.62c-1.14,0-1.78.66-1.78,1.45s.64,1.28,2,1.81c1.84.7,2.79,1.62,2.79,3.21,0,1.87-1.45,3.19-4,3.19a6,6,0,0,1-3-.73Z"/><path d="M540.61,127.21v3.06h2.77v1.47h-2.77v5.75c0,1.32.37,2.06,1.45,2.06a4.1,4.1,0,0,0,1.12-.13l.09,1.46a4.84,4.84,0,0,1-1.72.26,2.72,2.72,0,0,1-2.09-.81,4,4,0,0,1-.74-2.78v-5.81h-1.65v-1.47h1.65v-2.55Z"/><path d="M274.07,32.88c.18-1.33.33-2.67.56-4a28.45,28.45,0,0,1,56-.14,27.54,27.54,0,0,1-3.31,19.41,1.06,1.06,0,0,0,.2,1.58q13,13,26,26c.17.17.37.33.56.49v.19a1.07,1.07,0,0,0-.32.16q-4.23,4.22-8.44,8.45a.9.9,0,0,0-.17.32h-.38a5,5,0,0,0-.4-.51L331.19,71.65c-.13-.13-.27-.25-.46-.42L327,74.76c-1-4.28-2-8.4-3-12.7l12.52,3.72-3.58,3.42c4,4,8,8,11.93,11.93l4.91-4.91L325.06,51.57c-.42.47-.93,1.09-1.49,1.67-8.05,8.25-17.77,11.12-28.8,8S277.22,50.54,274.7,39.45c-.33-1.47-.43-3-.63-4.48Zm28.54,26.7A25.64,25.64,0,1,0,277,34,25.63,25.63,0,0,0,302.61,59.58Z"/><path d="M282.34,46.48l20.29-35.15,20.29,35.15Zm4.92-2.84H318L302.63,17Z"/><path d="M301.21,24h2.85c0,2,0,3.89,0,5.81a1.08,1.08,0,0,0,.8,1.24,5.69,5.69,0,1,1-4.49,0,1.15,1.15,0,0,0,.87-1.3C301.18,27.85,301.21,26,301.21,24Zm1.41,15.16a2.89,2.89,0,0,0,0-5.78,2.89,2.89,0,0,0,0,5.78Z"/><path d="M626.88,99.69v14.83H625V99.69Z"/><path d="M630.38,106.75c0-1.1,0-2-.09-2.88H632l.11,1.76h0a3.92,3.92,0,0,1,3.52-2c1.48,0,3.77.88,3.77,4.53v6.36h-1.94v-6.14c0-1.72-.64-3.15-2.47-3.15a2.76,2.76,0,0,0-2.59,2,2.82,2.82,0,0,0-.13.91v6.4h-1.94Z"/><path d="M650.18,114.12a7.05,7.05,0,0,1-3.06.62,5.06,5.06,0,0,1-5.3-5.44,5.41,5.41,0,0,1,5.72-5.65,6.5,6.5,0,0,1,2.68.55l-.44,1.5a4.39,4.39,0,0,0-2.24-.51c-2.44,0-3.76,1.8-3.76,4a3.65,3.65,0,0,0,3.69,4,5.55,5.55,0,0,0,2.38-.53Z"/><path d="M652.45,107.19c0-1.25,0-2.33-.09-3.32h1.69l.07,2.09h.09a3.19,3.19,0,0,1,2.94-2.33,2.34,2.34,0,0,1,.56.06v1.83a3.21,3.21,0,0,0-.67-.07,2.72,2.72,0,0,0-2.59,2.49,4.8,4.8,0,0,0-.09.9v5.68h-1.91Z"/><path d="M660.5,109.55a3.41,3.41,0,0,0,3.65,3.69,7,7,0,0,0,3-.55l.33,1.39a8.59,8.59,0,0,1-3.54.66c-3.28,0-5.24-2.16-5.24-5.37s1.89-5.74,5-5.74c3.48,0,4.4,3.06,4.4,5a8.16,8.16,0,0,1-.06.91Zm5.67-1.39c0-1.23-.5-3.15-2.68-3.15-2,0-2.82,1.81-3,3.15Z"/><path d="M676.34,114.52l-.16-1.34h-.06a4,4,0,0,1-3.26,1.58,3,3,0,0,1-3.25-3.06c0-2.57,2.28-4,6.4-4v-.22a2.19,2.19,0,0,0-2.42-2.46,5.31,5.31,0,0,0-2.77.79l-.44-1.28a6.58,6.58,0,0,1,3.49-.94c3.26,0,4,2.22,4,4.35v4a15.21,15.21,0,0,0,.18,2.55Zm-.29-5.44c-2.11,0-4.51.33-4.51,2.4a1.71,1.71,0,0,0,1.83,1.85,2.65,2.65,0,0,0,2.57-1.78,1.93,1.93,0,0,0,.11-.62Z"/><path d="M680.78,112.54a5.13,5.13,0,0,0,2.55.77c1.41,0,2.07-.7,2.07-1.59s-.55-1.43-2-2c-1.91-.69-2.81-1.74-2.81-3,0-1.71,1.38-3.12,3.67-3.12a5.36,5.36,0,0,1,2.62.66l-.49,1.41a4,4,0,0,0-2.17-.62c-1.15,0-1.79.66-1.79,1.45s.64,1.28,2,1.81c1.85.7,2.79,1.62,2.79,3.21,0,1.87-1.45,3.19-4,3.19a6.06,6.06,0,0,1-3-.73Z"/><path d="M690.84,109.55a3.41,3.41,0,0,0,3.65,3.69,7,7,0,0,0,3-.55l.33,1.39a8.64,8.64,0,0,1-3.55.66c-3.27,0-5.23-2.16-5.23-5.37s1.89-5.74,5-5.74c3.48,0,4.4,3.06,4.4,5a8.16,8.16,0,0,1-.06.91Zm5.67-1.39c0-1.23-.5-3.15-2.68-3.15-2,0-2.82,1.81-3,3.15Z"/><path d="M710,98.9v12.87c0,1,0,2,.08,2.75h-1.73l-.09-1.85h0a3.93,3.93,0,0,1-3.63,2.09c-2.57,0-4.55-2.18-4.55-5.41,0-3.54,2.18-5.72,4.77-5.72a3.58,3.58,0,0,1,3.22,1.63h0V98.9ZM708,108.2a3.2,3.2,0,0,0-.09-.81,2.84,2.84,0,0,0-2.79-2.24c-2,0-3.19,1.76-3.19,4.11,0,2.16,1,3.94,3.14,3.94a2.91,2.91,0,0,0,2.84-2.31,3.23,3.23,0,0,0,.09-.84Z"/><path d="M725.44,114.12a7,7,0,0,1-3.06.62,5.06,5.06,0,0,1-5.3-5.44,5.41,5.41,0,0,1,5.72-5.65,6.55,6.55,0,0,1,2.69.55l-.44,1.5a4.46,4.46,0,0,0-2.25-.51c-2.44,0-3.76,1.8-3.76,4a3.65,3.65,0,0,0,3.7,4,5.49,5.49,0,0,0,2.37-.53Z"/><path d="M737.21,109.11c0,3.94-2.73,5.65-5.3,5.65-2.88,0-5.11-2.11-5.11-5.48,0-3.56,2.34-5.65,5.29-5.65S737.21,105.85,737.21,109.11Zm-8.45.11c0,2.33,1.35,4.09,3.24,4.09s3.23-1.74,3.23-4.14c0-1.8-.9-4.09-3.19-4.09S728.76,107.19,728.76,109.22Z"/><path d="M739.65,106.75c0-1.1,0-2-.08-2.88h1.69l.09,1.72h.06a3.67,3.67,0,0,1,3.35-2,3.14,3.14,0,0,1,3,2.13h.05a4.39,4.39,0,0,1,1.18-1.38,3.63,3.63,0,0,1,2.36-.75c1.41,0,3.5.92,3.5,4.62v6.27H753v-6c0-2-.74-3.28-2.31-3.28a2.5,2.5,0,0,0-2.28,1.76,3.18,3.18,0,0,0-.16,1v6.58h-1.89v-6.38c0-1.7-.75-2.93-2.22-2.93a2.65,2.65,0,0,0-2.4,1.94,2.61,2.61,0,0,0-.16.94v6.43h-1.89Z"/><path d="M758,107.35c0-1.37,0-2.47-.09-3.48h1.74l.09,1.83h0a4.2,4.2,0,0,1,3.79-2.07c2.57,0,4.51,2.18,4.51,5.41,0,3.83-2.33,5.72-4.84,5.72a3.73,3.73,0,0,1-3.28-1.67h0v5.79H758Zm1.92,2.83a4.92,4.92,0,0,0,.08.8,3,3,0,0,0,2.91,2.26c2,0,3.23-1.67,3.23-4.11,0-2.14-1.12-4-3.17-4a3.07,3.07,0,0,0-2.92,2.4,2.9,2.9,0,0,0-.13.79Z"/><path d="M770.52,98.9h1.94v15.62h-1.94Z"/><path d="M777.87,100.88a1.2,1.2,0,0,1-2.4,0,1.18,1.18,0,0,1,1.21-1.21A1.15,1.15,0,0,1,777.87,100.88Zm-2.16,13.64V103.87h1.94v10.65Z"/><path d="M786.75,114.52l-.15-1.34h-.06a4,4,0,0,1-3.26,1.58A3,3,0,0,1,780,111.7c0-2.57,2.29-4,6.4-4v-.22a2.19,2.19,0,0,0-2.42-2.46,5.34,5.34,0,0,0-2.77.79l-.44-1.28a6.64,6.64,0,0,1,3.5-.94c3.26,0,4.05,2.22,4.05,4.35v4a14.22,14.22,0,0,0,.18,2.55Zm-.28-5.44c-2.11,0-4.51.33-4.51,2.4a1.71,1.71,0,0,0,1.82,1.85,2.66,2.66,0,0,0,2.58-1.78,2.25,2.25,0,0,0,.11-.62Z"/><path d="M791.46,106.75c0-1.1,0-2-.09-2.88h1.72l.11,1.76h0a3.92,3.92,0,0,1,3.52-2c1.48,0,3.77.88,3.77,4.53v6.36h-1.94v-6.14c0-1.72-.64-3.15-2.46-3.15a2.76,2.76,0,0,0-2.6,2,2.82,2.82,0,0,0-.13.91v6.4h-1.94Z"/><path d="M811.26,114.12a7,7,0,0,1-3.06.62,5.06,5.06,0,0,1-5.3-5.44,5.41,5.41,0,0,1,5.72-5.65,6.55,6.55,0,0,1,2.69.55l-.44,1.5a4.46,4.46,0,0,0-2.25-.51c-2.44,0-3.76,1.8-3.76,4a3.65,3.65,0,0,0,3.7,4,5.49,5.49,0,0,0,2.37-.53Z"/><path d="M814.47,109.55a3.42,3.42,0,0,0,3.66,3.69,7,7,0,0,0,3-.55l.33,1.39a8.64,8.64,0,0,1-3.55.66c-3.28,0-5.23-2.16-5.23-5.37s1.89-5.74,5-5.74c3.48,0,4.4,3.06,4.4,5a8.16,8.16,0,0,1-.06.91Zm5.68-1.39c0-1.23-.5-3.15-2.68-3.15-2,0-2.82,1.81-3,3.15Z"/><path d="M682.56,140.92l-.15-1.34h-.07a4,4,0,0,1-3.25,1.58,3,3,0,0,1-3.26-3.06c0-2.57,2.29-4,6.4-4v-.22a2.19,2.19,0,0,0-2.42-2.46,5.34,5.34,0,0,0-2.77.79L676.6,131a6.64,6.64,0,0,1,3.5-.94c3.26,0,4,2.22,4,4.35v4a14.22,14.22,0,0,0,.18,2.55Zm-.28-5.44c-2.11,0-4.51.33-4.51,2.4a1.71,1.71,0,0,0,1.82,1.85,2.66,2.66,0,0,0,2.58-1.78,2.25,2.25,0,0,0,.11-.62Z"/><path d="M687.27,133.15c0-1.1,0-2-.09-2.88h1.72L689,132h0a3.92,3.92,0,0,1,3.52-2c1.48,0,3.77.88,3.77,4.53v6.36H694.4v-6.14c0-1.72-.64-3.15-2.46-3.15a2.76,2.76,0,0,0-2.6,2,2.82,2.82,0,0,0-.13.91v6.4h-1.94Z"/><path d="M708.68,125.3v12.87c0,1,0,2,.09,2.75H707l-.09-1.85h0a4,4,0,0,1-3.63,2.09c-2.58,0-4.56-2.18-4.56-5.41,0-3.54,2.18-5.72,4.78-5.72a3.57,3.57,0,0,1,3.21,1.63h0V125.3Zm-1.94,9.3a3.2,3.2,0,0,0-.09-.81,2.84,2.84,0,0,0-2.79-2.24c-2,0-3.19,1.76-3.19,4.11,0,2.16,1.06,3.94,3.15,3.94a2.91,2.91,0,0,0,2.83-2.31,3.23,3.23,0,0,0,.09-.84Z"/><path d="M722.45,140.92l-.15-1.34h-.07a4,4,0,0,1-3.26,1.58,3,3,0,0,1-3.25-3.06c0-2.57,2.29-4,6.4-4v-.22a2.19,2.19,0,0,0-2.42-2.46,5.34,5.34,0,0,0-2.77.79l-.44-1.28A6.61,6.61,0,0,1,720,130c3.25,0,4,2.22,4,4.35v4a15.21,15.21,0,0,0,.18,2.55Zm-.29-5.44c-2.11,0-4.51.33-4.51,2.4a1.71,1.71,0,0,0,1.83,1.85,2.63,2.63,0,0,0,2.57-1.78,1.93,1.93,0,0,0,.11-.62Z"/><path d="M736.33,130.27c0,.77-.09,1.63-.09,2.93v6.18c0,2.44-.48,3.94-1.51,4.86a5.66,5.66,0,0,1-3.88,1.28,6.91,6.91,0,0,1-3.54-.88l.48-1.48a6,6,0,0,0,3.13.84c2,0,3.43-1,3.43-3.72v-1.19h0a3.82,3.82,0,0,1-3.39,1.79c-2.64,0-4.53-2.25-4.53-5.2,0-3.61,2.35-5.65,4.79-5.65a3.56,3.56,0,0,1,3.33,1.85h0l.09-1.61Zm-2,4.2a2.72,2.72,0,0,0-.11-.88,2.79,2.79,0,0,0-2.71-2c-1.84,0-3.17,1.56-3.17,4,0,2.09,1.06,3.83,3.15,3.83a2.84,2.84,0,0,0,2.69-2,3.34,3.34,0,0,0,.15-1Z"/><path d="M741.48,127.28a1.14,1.14,0,0,1-1.23,1.19,1.16,1.16,0,0,1-1.17-1.19,1.18,1.18,0,0,1,1.21-1.21A1.15,1.15,0,0,1,741.48,127.28Zm-2.16,13.64V130.27h1.94v10.65Z"/><path d="M744.47,125.3h1.94v15.62h-1.94Z"/><path d="M751.82,127.28a1.14,1.14,0,0,1-1.23,1.19,1.16,1.16,0,0,1-1.17-1.19,1.18,1.18,0,0,1,1.21-1.21A1.15,1.15,0,0,1,751.82,127.28Zm-2.16,13.64V130.27h1.94v10.65Z"/><path d="M757.14,127.21v3.06h2.78v1.47h-2.78v5.75c0,1.32.38,2.06,1.45,2.06a4.25,4.25,0,0,0,1.13-.13l.08,1.46a4.78,4.78,0,0,1-1.71.26,2.71,2.71,0,0,1-2.09-.81,4,4,0,0,1-.75-2.78v-5.81H753.6v-1.47h1.65v-2.55Z"/><path d="M763,130.27l2.34,6.29c.24.71.5,1.54.68,2.18h0c.2-.64.42-1.45.68-2.22l2.12-6.25h2l-2.9,7.59c-1.39,3.65-2.33,5.52-3.65,6.67a5.36,5.36,0,0,1-2.38,1.25l-.48-1.63a5.1,5.1,0,0,0,1.69-.94,5.89,5.89,0,0,0,1.63-2.16,1.32,1.32,0,0,0,.15-.46,1.68,1.68,0,0,0-.13-.51l-3.94-9.81Z"/><path d="M500.89,63.73V7.54c0-1.79.32-2.12,2.08-2.12h43.36c1.73,0,2.06.32,2.06,2V63.67c.43,0,.78,0,1.13,0,2.83,0,5.66,0,8.49,0,.85,0,1.61.13,1.83,1.08s-.36,1.36-1.07,1.76q-16.5,9.25-33,18.53a2.08,2.08,0,0,1-2.27,0l-33-18.52c-.71-.39-1.26-.87-1.05-1.75s1-1.08,1.83-1.08C494.45,63.74,497.6,63.73,500.89,63.73Zm51.83,3,0-.2h-4.92c-1.74,0-2.11-.38-2.11-2.12V8.27h-42V64.4c0,1.74-.38,2.13-2.12,2.13h-4.92a2,2,0,0,0,.75.65Q510.54,74.59,523.72,82a1.63,1.63,0,0,0,1.85,0q12.06-6.81,24.15-13.56Z"/><path d="M530.51,32.78l-.88,2.54a8.94,8.94,0,0,0-4.87-1c-2.18.2-3.55,1.67-3.37,3.62A3.07,3.07,0,0,0,523,40.39c.86.51,1.8.9,2.7,1.35s1.84.82,2.71,1.33a5.57,5.57,0,0,1,2.91,5.64,5.8,5.8,0,0,1-4,5.2c-.39.15-.79.28-1.23.44V60.3h5L524.7,71.46l-6.4-11.09h4.94c0-1.87,0-3.64,0-5.41,0-.17-.49-.39-.79-.47-1.19-.32-2.39-.57-3.58-.89-.67-.18-1-.58-.61-1.31a10.65,10.65,0,0,0,.49-1.56,10.18,10.18,0,0,0,5.92,1.38A3.75,3.75,0,0,0,528.31,49,3.22,3.22,0,0,0,527,45.6a22.41,22.41,0,0,0-2.82-1.51c-1-.48-2-.84-2.89-1.4a5.37,5.37,0,0,1-2.79-5.58,5.43,5.43,0,0,1,3.75-4.59,1.29,1.29,0,0,0,1-1.54,20.55,20.55,0,0,1,0-2.83A1,1,0,0,0,522.5,27a5.53,5.53,0,0,1-3.42-5.6A5.58,5.58,0,0,1,529.43,19a5.45,5.45,0,0,1-.6,6.52,17,17,0,0,1-2.19,1.58,1.38,1.38,0,0,0-.56.82c-.07,1.07,0,2.15,0,3.23,0,.59.21.73.78.82C528,32.17,529.19,32.49,530.51,32.78Zm-5.84-13.69a2.82,2.82,0,0,0-2.86,2.73,2.89,2.89,0,0,0,2.85,2.87,2.81,2.81,0,0,0,2.79-2.81A2.76,2.76,0,0,0,524.67,19.09Z"/><path d="M731.79,74.3v4.32c.38,0,.66,0,.94,0,3.93,0,7.86,0,11.79,0s6.34-2.44,6.35-6.34c0-4.09,0-8.19,0-12.28a1.34,1.34,0,0,0-.71-1.3,12.2,12.2,0,0,1,0-20.7,1.43,1.43,0,0,0,.74-1.39c0-4.28,0-8.56,0-12.85,0-4-2.41-6.34-6.41-6.35h-4v4.18H712.33v-4.2c-2.31.18-4.59-.39-6.77.46A5.69,5.69,0,0,0,702,22.31c-.08.4-.17.75.41,1A4.58,4.58,0,0,1,705.55,28a4.7,4.7,0,0,1-3.34,4.46c-.09,0-.17.08-.32.15v1c0,12.85.07,25.7,0,38.55a6.21,6.21,0,0,0,6.58,6.56c2.45-.1,4.91,0,7.45,0V81c-.24,0-.51.06-.79.06-2.43,0-4.85,0-7.28,0a8.24,8.24,0,0,1-8.35-8.42q0-19.41,0-38.83V32.53l-.23.19a15.07,15.07,0,0,1-2.6-2.28,4.68,4.68,0,0,1,2.09-7,1.15,1.15,0,0,0,.83-1c.72-4.6,4-7.35,8.68-7.37h4V10.78h7.59a6.66,6.66,0,0,1,6.87-5.35c2.94.11,5.14,2,6.21,5.34h7.51V15h4c5.38,0,8.87,3.51,8.87,8.89V36.49c6.09-1.23,11.08.32,14.35,5.65a11.35,11.35,0,0,1-.38,13.1c-3.35,4.85-8.16,6.24-14,5v1c0,3.74,0,7.48,0,11.22A8.23,8.23,0,0,1,744.78,81c-3.93,0-7.86,0-11.8,0h-1.13v4.4L727,82.67l-4.94-2.82ZM767,48.36a10.09,10.09,0,1,0-10,10A10,10,0,0,0,767,48.36ZM714.83,13.19v6.08h23.1V13.19ZM700.7,25.34a2.5,2.5,0,0,0-2.58,2.49,2.56,2.56,0,0,0,5.11,0A2.5,2.5,0,0,0,700.7,25.34Zm29.59-14.59a4,4,0,0,0-4-2.95,3.88,3.88,0,0,0-3.74,3Z"/><path d="M711,39.07h8.72v8.65H711Zm2.42,2.43v3.8h3.9V41.5Z"/><path d="M711,70.13V61.52h8.72v8.61Zm2.43-6.23v3.8h3.88V63.9Z"/><path d="M719.71,27.91v8.6H711v-8.6Zm-6.34,6.21h3.89V30.29h-3.89Z"/><path d="M719.69,58.92H711V50.34h8.7Zm-6.3-2.39h3.88V52.67h-3.88Z"/><path d="M743.29,31.12v2.22H724.6V31.12Z"/><path d="M743.3,52.87v2.24H724.61V52.87Z"/><path d="M724.59,44.49v-2.2h18.66v2.2Z"/><path d="M724.6,66.93V64.7h18.66v2.23Z"/><path d="M750.62,48.43l1.57-1.67,3.06,3.46,6.47-6.88L763.25,45c-2.62,2.74-5.29,5.51-8,8.28Z"/><path d="M137.06,49.33h-4.55a36.83,36.83,0,0,1-3.81,12.54,5.32,5.32,0,0,1,1.53,4.79,5.13,5.13,0,0,1-6.81,4,1.35,1.35,0,0,0-1.66.4,33.82,33.82,0,0,1-8,5.78,6.1,6.1,0,0,1-.58.24L112,74.84c.25-.15.47-.3.7-.43A31.89,31.89,0,0,0,120.1,69a1.13,1.13,0,0,0,.27-1c-1.64-4.33,1.31-8.05,5.93-7.43,1.46-2,3.51-8.6,3.46-11.2h-4.7L131,39c.2.29.35.49.48.71,1.67,2.89,3.34,5.79,5,8.67a7.51,7.51,0,0,0,.54.72Zm-9.31,16.36a2.66,2.66,0,0,0-2.7-2.59,2.69,2.69,0,0,0-2.6,2.62,2.76,2.76,0,0,0,2.67,2.67A2.73,2.73,0,0,0,127.75,65.69Z"/><path d="M57.06,42.07h4.82a36.27,36.27,0,0,1,3.83-13,5.24,5.24,0,0,1-1.88-4.67,5.18,5.18,0,0,1,7.32-4.16A1,1,0,0,0,72.48,20a34.78,34.78,0,0,1,8.06-5.89c.27-.15.56-.25.87-.39l1.13,2.24c-.24.15-.44.28-.64.39a33.59,33.59,0,0,0-7.64,5.54,1.11,1.11,0,0,0-.35,1.35,5.22,5.22,0,0,1-5.11,7,1.19,1.19,0,0,0-.94.44,31.46,31.46,0,0,0-3.25,10.67c0,.21,0,.42,0,.74H69l-6,10.38ZM69,27.59A2.63,2.63,0,1,0,66.36,25,2.67,2.67,0,0,0,69,27.59Z"/><path d="M100.09,5.23V10A35.35,35.35,0,0,1,129,29.55l-2.3,1.19a32.93,32.93,0,0,0-16.47-15.55A30.77,30.77,0,0,0,100.1,12.7v4.56l-10.41-6Z"/><path d="M93.13,85.6c0-1.51,0-2.81,0-4.1,0-.69-.24-.87-.89-1-12.09-1.86-20.88-8.36-26.79-19.11l2.33-1.2C73.27,70.3,81.61,76.28,93.11,78.07v-4.5l10.43,6Z"/></svg>