<svg id="Layer_1" data-name="Layer 1" xmlns="http://www.w3.org/2000/svg" width="100" height="100" viewBox="0 0 100 100"><title>secured-digital-dentity</title><path d="M75.53,28.8c5.09-2,9.93-1.59,13.91,2.53s4.25,8.74,2.34,13.89c.32.13.64.28,1,.4a11,11,0,0,1-2.07,21.26c-.8.13-1,.44-1,1.21,0,1.72,0,3.44,0,5.43L75.3,65.32l14.4-8.21v6.3a10.37,10.37,0,0,0,1.08-.14,7.52,7.52,0,0,0-.67-14.7l-1-.14c-2.19-.2-2.74-1.42-1.48-3.27a9.2,9.2,0,0,0,1.62-5.5,8.33,8.33,0,0,0-11.36-7.88,18.72,18.72,0,0,0-4.41,2.79c-1,.76-1.75,1-2.55.55s-1-1.4-.5-2.63c4.46-10.39-1.68-23-14.63-24.84C47.83,6.53,41.66,9.8,38,16.84a2.28,2.28,0,0,1-2.21,1.3,17.07,17.07,0,0,0-7.25,1.69,18.82,18.82,0,0,1,0,3.45A7,7,0,0,1,20.79,29c-1-.08-1.5.17-1.67,1.15-.33,1.83-.76,3.65-1,5.49-.19,1.52-.64,2.07-2.19,2.14A12.67,12.67,0,0,0,3.59,49.44,12.54,12.54,0,0,0,13.91,62.65a51.28,51.28,0,0,0,6.8.3c4.33.07,8.66.1,13,.15h1.17c0-.51.06-.9.06-1.3,0-2.93,0-5.87,0-8.8A14.48,14.48,0,0,1,63.5,50a15.6,15.6,0,0,1,.36,3.27c0,2.9,0,5.8,0,8.7a1.14,1.14,0,0,0,.83,1.28,8.76,8.76,0,0,1,5.8,8.42c.07,5.14.06,10.28,0,15.42a9.1,9.1,0,0,1-9.22,9.1q-11.67,0-23.34,0A9.18,9.18,0,0,1,28.66,87c0-5.06-.1-10.13.05-15.19a29.37,29.37,0,0,1,1.09-5.26c-1.7,0-3.63,0-5.55,0a105.17,105.17,0,0,1-10.66-.34,16,16,0,0,1-.26-31.63c1.06-.17,1.29-.61,1.46-1.57.32-1.72.92-3.39,1.33-5.09a1.67,1.67,0,0,0-.19-1.23A7.13,7.13,0,0,1,16.1,17a7.27,7.27,0,0,1,9.79-.71,1.41,1.41,0,0,0,1.47.16c2.32-.65,4.66-1.19,7-1.82a1.94,1.94,0,0,0,1.08-.7A20.32,20.32,0,0,1,56.84,4.2C66.48,6,73.61,12.73,75.06,21.56A68.77,68.77,0,0,1,75.53,28.8ZM49.86,66.87v-.22c-4.33,0-8.66.07-13,0a3.63,3.63,0,0,0-3.6,2,8.56,8.56,0,0,0-1,3.62c-.11,4.73,0,9.47,0,14.2a9.82,9.82,0,0,0,.07,1.21,5.54,5.54,0,0,0,5.4,5q11.9.06,23.77,0a5.54,5.54,0,0,0,5.46-5.52c0-5.17,0-10.34,0-15.51a5.4,5.4,0,0,0-1.64-3.85,2.71,2.71,0,0,0-2.13-.89C58.73,66.89,54.29,66.87,49.86,66.87Zm10.46-4.4c0-3.21,0-6.32,0-9.43a10.92,10.92,0,0,0-21.59-2,8.25,8.25,0,0,0-.2,1.63c0,3.25,0,6.5,0,9.8ZM25.16,21.87a3.76,3.76,0,1,0-3.76,3.75A3.69,3.69,0,0,0,25.16,21.87Z"/><path d="M51.11,86.24H47.68V77.67h3.43Z"/></svg>