<svg id="Layer_1" data-name="Layer 1" xmlns="http://www.w3.org/2000/svg" width="100" height="100" viewBox="0 0 100 100"><title>network</title><path d="M100,35.21c-.9,2.84-2.86,3.91-5.79,3.79-3.41-.14-6.82,0-10.31,0v3.36l2.14.11v3.31H68.87V42.46L71,42.32V39c-.4,0-.79-.07-1.19-.07h-10a4.52,4.52,0,0,1-4.85-4.83c0-3,0-6.06,0-9.19H45.1V26c0,2.73,0,5.47,0,8.2A4.46,4.46,0,0,1,40.31,39H29.07v3.32l2.11.17v3.31H14V42.45l2.14-.12V39C15.75,39,15.35,39,15,39H5.27c-3,0-4.41-1.08-5.13-4,0-.07-.09-.11-.14-.16V8.33c1.32-3.6,2.12-4.14,6.12-4.14H40.28A4.45,4.45,0,0,1,45.1,9c0,3.41,0,6.83,0,10.25v2h9.83V20c0-3.64,0-7.29,0-10.93a4.49,4.49,0,0,1,4.83-4.83H95.19a4.4,4.4,0,0,1,4.59,3.32,3.6,3.6,0,0,0,.22.37ZM77.51,7.61H60.2c-1.57,0-1.85.27-1.85,1.86V33.62c0,1.65.28,1.93,1.9,1.93,7.37,0,14.73-.06,22.09-.07,4.14,0,8.28.05,12.41.07,1.49,0,1.79-.3,1.79-1.81q0-12.2,0-24.38c0-1.44-.31-1.75-1.72-1.75Zm-54.83,0H5.37c-1.62,0-1.76.14-1.76,1.75V33.72c0,1.65.17,1.83,1.82,1.83,7.17,0,14.34-.06,21.52-.07,4.21,0,8.42.05,12.63.07,1.93,0,2.11-.17,2.11-2V9.59c0-1.81-.17-2-1.93-2Zm-3,31.5v3.12h5.78V39.11Zm54.89,0v3.18h5.74V39.07Z"/><path d="M56.78,89v3.4h2.14v3.4H41.77V92.46h2.11V89H42.07c-3.22,0-6.45,0-9.68,0a4.35,4.35,0,0,1-4.48-4.44c0-2.7,0-5.39,0-8.09V75.14H12.32V64H6l8-13.75L21.89,64h-6.1v7.59H27.84c0-.41.06-.81.06-1.21V59a4.42,4.42,0,0,1,4.78-4.74c3.23,0,6.45,0,9.68,0a1.12,1.12,0,0,0,1.26-.81,6.88,6.88,0,0,1,12.84,0c.27.7.66.78,1.28.78,3.42,0,6.83,0,10.25,0,3.05,0,4.86,1.83,4.86,4.9q0,5.59,0,11.17v1.29H84.38V64.07H78.17c2.76-4.73,5.36-9.19,8-13.8L94.05,64H87.93V75.07H72.86v2.62c0,2.24,0,4.48,0,6.72A4.42,4.42,0,0,1,68.25,89C64.46,89,60.67,89,56.78,89Zm-6.44-3.42H67.76c1.33,0,1.67-.31,1.67-1.56q0-12.42,0-24.83c0-1.24-.31-1.54-1.57-1.55-3.41,0-6.83,0-10.24,0a1.08,1.08,0,0,0-1.18.78,6.89,6.89,0,0,1-12.8,0,1.13,1.13,0,0,0-1.25-.83c-3.12,0-6.23,0-9.34,0-1.49,0-1.72.24-1.73,1.72V83.85c0,1.5.24,1.74,1.71,1.74ZM50,59.36a3.46,3.46,0,1,0,.11-6.91A3.46,3.46,0,1,0,50,59.36Zm-2.5,33h5.78V89.15H47.48Z"/></svg>