<svg id="Layer_1" data-name="Layer 1" xmlns="http://www.w3.org/2000/svg" width="100" height="100" viewBox="0 0 100 100"><title>delivery</title><path d="M86.92,67.8l-1.55-5.6L100,65.91,89.48,76.73l-1.62-5.57c-.9.22-1.75.4-2.59.62Q63.59,77.59,41.91,83.39a1.51,1.51,0,0,0-1.33,1.49,6.79,6.79,0,0,1-6.19,5.68,6.94,6.94,0,0,1-7-4.4,6.83,6.83,0,0,1,2.43-8,1.4,1.4,0,0,0,.69-1.84Q23.1,48.61,15.73,20.92A2.65,2.65,0,0,0,14.12,19c-4.29-2-8.54-4.14-12.8-6.22C.14,12.23-.27,11.35.17,10.39a1.77,1.77,0,0,1,2.57-.71c4.88,2.37,9.77,4.74,14.61,7.2a3,3,0,0,1,1.25,1.75q5.63,20.73,11.15,41.48c1.4,5.2,2.8,10.41,4.16,15.62A1.42,1.42,0,0,0,35.22,77a6,6,0,0,1,4.16,2.66c.48.71.92.67,1.59.49L79.89,69.68Zm-53,12.41a3.55,3.55,0,0,0-3.53,3.4,3.61,3.61,0,0,0,3.5,3.57,3.56,3.56,0,0,0,3.46-3.48A3.51,3.51,0,0,0,33.89,80.21Z"/><path d="M68.5,23c1.21,0,1.66.74,1.92,1.74Q73.16,35.09,76,45.39q2,7.39,4,14.79c.53,2,.19,2.57-1.7,3.08L43,72.69c-2,.53-2.55.2-3.1-1.84q-4.65-17.35-9.31-34.7c-.65-2.44-.4-2.9,2-3.54L67.41,23.3C67.79,23.19,68.19,23.11,68.5,23ZM43,69.13l33.35-8.94c-3-11.14-5.94-22.19-8.94-33.35L34.07,35.78C37.07,47,40,58,43,69.13Z"/></svg>