<svg id="Layer_1" data-name="Layer 1" xmlns="http://www.w3.org/2000/svg" width="100" height="100" viewBox="0 0 100 100"><title>workplace</title><path d="M100,43.22v36.6a10.59,10.59,0,0,1-1.36.19c-1.86,0-3.71,0-5.68,0V90.38H7.55V80H.78V43.05H14.12V31.52H2.3C.51,31.52,0,31,0,29.23V12c0-1.82.55-2.37,2.38-2.37H29.71c1.74,0,2.32.56,2.35,2.31s0,3.75,0,5.63c0,3.87,0,7.74,0,11.61,0,1.8-.56,2.35-2.27,2.35-2.15,0-4.3,0-6.45,0H17.9V43H36.37c0-2.47-.08-4.85,0-7.22A10.28,10.28,0,0,1,46,26.06C48.45,26,50.87,26,53.3,26a10.52,10.52,0,0,1,7.5,2.78,10.35,10.35,0,0,1,3.42,8c0,2.06,0,4.12,0,6.21h9.51c-.06-.33-.1-.56-.15-.78-1-4.25-2.09-8.49-3.11-12.74-.46-1.93.2-2.79,2.11-2.81h2.89c-.75-2.92-1.45-5.61-2.16-8.38l3.47-.91c.74,2.81,1.47,5.52,2.15,8.24.18.75.46,1.11,1.32,1.07,1.68-.07,3.37-.06,5,0a1.09,1.09,0,0,0,1.29-1c.38-1.63.82-3.25,1.25-4.87.3-1.15.63-2.3,1-3.47l3.44.94c-.72,2.81-1.42,5.5-2.16,8.36H92.8c2,0,2.63.87,2.18,2.75-.65,2.66-1.32,5.31-2,8-.45,1.84-.88,3.69-1.36,5.72h1.67ZM54.7,80.07H11.29v6.65h78V80.08h-10v6.44L64.85,78.17l14.5-8.37v6.45H96.19V46.83H4.32V76.35H54.7ZM28.4,13.31H3.63V27.88H28.4ZM60.62,43c0-2.23,0-4.4,0-6.58a6.88,6.88,0,0,0-6.93-6.79c-2.26,0-4.53,0-6.8,0a6.75,6.75,0,0,0-6.85,6C39.79,38,40,40.47,40,43ZM74.41,30.33c1,4.29,2.06,8.45,3.08,12.61H88c1-4.23,2-8.39,3.06-12.55-1.87-.24-1.86-.24-2.31,1.43-.19.74-.41,1.47-.64,2.27l-3.4-.93.62-2.79h-5l.62,2.82-3.42.88-1-3.74Z"/><path d="M57.8,17.7a7.53,7.53,0,1,1-7.47-7.57A7.52,7.52,0,0,1,57.8,17.7Zm-7.47,3.93a3.93,3.93,0,1,0-4-3.88A4,4,0,0,0,50.33,21.63Z"/><path d="M24.93,19.25H14.41V15.81H24.93Z"/><path d="M14.39,21.91H25v3.44H14.39Z"/><path d="M7,19.23V15.79h3.94v3.44Z"/><path d="M7,21.91h3.87v3.46H7Z"/></svg>