<svg id="Layer_1" data-name="Layer 1" xmlns="http://www.w3.org/2000/svg" viewBox="0 0 629.15 461.15"><defs><style>.cls-1{fill:none;stroke:#963596;stroke-miterlimit:10;stroke-width:3px;}.cls-2{fill:#372261;}.cls-3{fill:#963596;}.cls-4{fill:#fcfcfc;}.cls-5{fill:#061838;}</style></defs><title>student-information-system</title><line class="cls-1" x1="314.58" y1="231.83" x2="314.58" y2="48"/><line class="cls-1" x1="314.58" y1="231.83" x2="254.89" y2="57.96"/><line class="cls-1" x1="314.58" y1="231.83" x2="201.67" y2="86.76"/><line class="cls-1" x1="314.58" y1="231.83" x2="160.68" y2="131.28"/><line class="cls-1" x1="314.58" y1="231.83" x2="136.37" y2="186.7"/><line class="cls-1" x1="314.58" y1="231.83" x2="131.37" y2="247.01"/><line class="cls-1" x1="314.58" y1="231.83" x2="146.23" y2="305.67"/><line class="cls-1" x1="314.58" y1="231.83" x2="179.33" y2="356.33"/><line class="cls-1" x1="314.58" y1="231.83" x2="227.08" y2="393.5"/><line class="cls-1" x1="314.58" y1="231.83" x2="284.32" y2="413.15"/><line class="cls-1" x1="314.58" y1="231.83" x2="344.83" y2="413.15"/><line class="cls-1" x1="314.58" y1="231.83" x2="402.07" y2="393.5"/><line class="cls-1" x1="314.58" y1="231.83" x2="449.82" y2="356.33"/><line class="cls-1" x1="314.58" y1="231.83" x2="482.92" y2="305.67"/><line class="cls-1" x1="314.58" y1="231.83" x2="497.78" y2="247.01"/><line class="cls-1" x1="314.58" y1="231.83" x2="492.78" y2="186.7"/><line class="cls-1" x1="314.58" y1="231.83" x2="468.47" y2="131.28"/><line class="cls-1" x1="314.58" y1="231.83" x2="427.48" y2="86.76"/><line class="cls-1" x1="314.58" y1="231.83" x2="374.26" y2="57.96"/><circle class="cls-2" cx="314.57" cy="230.58" r="130"/><circle class="cls-3" cx="314.57" cy="230.58" r="108.42"/><path class="cls-4" d="M265.28,248a9.58,9.58,0,0,0,4.56,1.2c2.22,0,3.45-1,3.45-2.57s-1-2.27-3.36-3.14c-3.11-1.12-5.1-2.77-5.1-5.49,0-3.08,2.58-5.43,6.67-5.43a10,10,0,0,1,4.53.95l-.84,2.77a8,8,0,0,0-3.75-.89c-2.18,0-3.14,1.18-3.14,2.27,0,1.45,1.1,2.12,3.62,3.1,3.27,1.24,4.87,2.89,4.87,5.6,0,3-2.3,5.66-7.17,5.66a11.1,11.1,0,0,1-5.09-1.18Z"/><path class="cls-4" d="M283.59,234.18v3.9h3.28v2.57h-3.28v6c0,1.65.45,2.52,1.77,2.52a4.8,4.8,0,0,0,1.34-.17l.06,2.63a7.49,7.49,0,0,1-2.5.34,4,4,0,0,1-3-1.12,5.41,5.41,0,0,1-1.07-3.81v-6.41h-2v-2.57h2V235Z"/><path class="cls-4" d="M301.68,247.62c0,1.63.06,3,.11,4.09h-3l-.17-2.07h-.06a4.91,4.91,0,0,1-4.36,2.38c-2.5,0-4.76-1.48-4.76-5.94v-8h3.44v7.42c0,2.26.73,3.72,2.55,3.72a2.9,2.9,0,0,0,2.63-1.85,3.17,3.17,0,0,0,.2-1.06v-8.23h3.44Z"/><path class="cls-4" d="M318,231.83v16c0,1.4,0,2.91.11,3.83H315l-.14-2.16h-.06a4.89,4.89,0,0,1-4.45,2.47c-3.25,0-5.82-2.77-5.82-7,0-4.57,2.82-7.28,6.1-7.28a4.35,4.35,0,0,1,3.84,1.79h0v-7.73Zm-3.45,11.93a5.47,5.47,0,0,0-.08-.9,3,3,0,0,0-3-2.43c-2.21,0-3.44,2-3.44,4.51s1.23,4.31,3.41,4.31a3.05,3.05,0,0,0,3-2.44,4,4,0,0,0,.11-1Z"/><path class="cls-4" d="M324.11,245.86c.08,2.46,2,3.53,4.2,3.53a10.32,10.32,0,0,0,3.78-.62l.5,2.38a12.74,12.74,0,0,1-4.76.84c-4.42,0-7-2.71-7-6.89,0-3.78,2.3-7.33,6.67-7.33s5.88,3.64,5.88,6.63a9.21,9.21,0,0,1-.11,1.46Zm6-2.41c0-1.26-.53-3.33-2.83-3.33-2.13,0-3,1.93-3.16,3.33Z"/><path class="cls-4" d="M336.12,242.13c0-1.56,0-2.88-.11-4h3l.17,2h.08a4.92,4.92,0,0,1,4.34-2.35c2.38,0,4.85,1.54,4.85,5.85v8.09H345V244c0-2-.72-3.44-2.6-3.44a2.9,2.9,0,0,0-2.69,2,3.58,3.58,0,0,0-.14,1.12v8h-3.47Z"/><path class="cls-4" d="M355.94,234.18v3.9h3.28v2.57h-3.28v6c0,1.65.45,2.52,1.77,2.52a4.8,4.8,0,0,0,1.34-.17l.06,2.63a7.46,7.46,0,0,1-2.49.34,4,4,0,0,1-3-1.12,5.41,5.41,0,0,1-1.07-3.81v-6.41h-2v-2.57h2V235Z"/><path class="cls-4" d="M247.72,260.84v18.87h-3.44V260.84Z"/><path class="cls-4" d="M251.7,270.13c0-1.56,0-2.88-.11-4.05h3l.17,2h.08a4.92,4.92,0,0,1,4.34-2.35c2.38,0,4.85,1.54,4.85,5.85v8.09H260.6V272c0-2-.72-3.44-2.6-3.44a2.9,2.9,0,0,0-2.69,2,3.58,3.58,0,0,0-.14,1.12v8H251.7Z"/><path class="cls-4" d="M268.11,279.71V268.65h-1.85v-2.57h1.85v-.59a6.35,6.35,0,0,1,1.65-4.65,5.23,5.23,0,0,1,3.56-1.32,6.57,6.57,0,0,1,2.21.34l-.25,2.66a4,4,0,0,0-1.46-.25c-1.71,0-2.3,1.43-2.3,3.11v.7h3v2.57h-3v11.06Z"/><path class="cls-4" d="M289.3,272.77c0,5-3.52,7.25-7,7.25-3.86,0-6.83-2.66-6.83-7s2.94-7.22,7.06-7.22S289.3,268.62,289.3,272.77Zm-10.27.14c0,2.63,1.29,4.62,3.39,4.62s3.33-1.94,3.33-4.68c0-2.13-.95-4.56-3.31-4.56S279,270.64,279,272.91Z"/><path class="cls-4" d="M292.13,270.47c0-1.85,0-3.16-.11-4.39h3l.11,2.6h.11a4.07,4.07,0,0,1,3.72-2.91,3.46,3.46,0,0,1,.82.08v3.25a4.57,4.57,0,0,0-1-.11,3,3,0,0,0-3.08,2.6,5.57,5.57,0,0,0-.11,1.06v7.06h-3.45Z"/><path class="cls-4" d="M302.1,270.13c0-1.56,0-2.88-.11-4.05h3l.14,2h.08a4.72,4.72,0,0,1,4.2-2.32,3.94,3.94,0,0,1,3.78,2.52h.06a5,5,0,0,1,1.68-1.71,4.54,4.54,0,0,1,2.74-.81c2.27,0,4.56,1.54,4.56,5.9v8h-3.36v-7.53c0-2.27-.78-3.61-2.43-3.61a2.62,2.62,0,0,0-2.41,1.82,5,5,0,0,0-.17,1.15v8.17h-3.36v-7.9c0-1.9-.75-3.24-2.35-3.24a2.68,2.68,0,0,0-2.46,2,2.9,2.9,0,0,0-.2,1.12v8.06H302.1Z"/><path class="cls-4" d="M333.52,279.71l-.23-1.51h-.08a5.08,5.08,0,0,1-4,1.82,4.05,4.05,0,0,1-4.29-4.06c0-3.44,3.05-5.18,8.09-5.15v-.23c0-.89-.36-2.38-2.77-2.38a7.24,7.24,0,0,0-3.67,1l-.67-2.24a9.89,9.89,0,0,1,4.93-1.2c4.37,0,5.63,2.77,5.63,5.74v4.93a21.89,21.89,0,0,0,.19,3.27Zm-.45-6.66c-2.44-.06-4.76.47-4.76,2.54a1.81,1.81,0,0,0,2,2,2.79,2.79,0,0,0,2.69-1.87,2.59,2.59,0,0,0,.11-.76Z"/><path class="cls-4" d="M343.85,262.18v3.9h3.27v2.57h-3.27v6c0,1.65.45,2.52,1.76,2.52A4.88,4.88,0,0,0,347,277l.05,2.63a7.42,7.42,0,0,1-2.49.34,4,4,0,0,1-3-1.12,5.41,5.41,0,0,1-1.06-3.81v-6.41h-2v-2.57h2V263Z"/><path class="cls-4" d="M353.4,262.27a1.94,1.94,0,1,1-1.94-1.88A1.83,1.83,0,0,1,353.4,262.27Zm-3.67,17.44V266.08h3.47v13.63Z"/><path class="cls-4" d="M369.86,272.77c0,5-3.53,7.25-7,7.25-3.86,0-6.83-2.66-6.83-7s2.94-7.22,7.05-7.22S369.86,268.62,369.86,272.77Zm-10.28.14c0,2.63,1.29,4.62,3.39,4.62s3.33-1.94,3.33-4.68c0-2.13-.95-4.56-3.3-4.56S359.58,270.64,359.58,272.91Z"/><path class="cls-4" d="M372.69,270.13c0-1.56,0-2.88-.11-4.05h3l.17,2h.08a4.9,4.9,0,0,1,4.34-2.35c2.38,0,4.85,1.54,4.85,5.85v8.09h-3.45V272c0-2-.73-3.44-2.6-3.44a2.89,2.89,0,0,0-2.69,2,3.58,3.58,0,0,0-.14,1.12v8h-3.47Z"/><path class="cls-4" d="M272.79,304a9.55,9.55,0,0,0,4.56,1.2c2.21,0,3.44-1,3.44-2.57s-1-2.27-3.36-3.14c-3.1-1.12-5.09-2.77-5.09-5.49,0-3.08,2.57-5.43,6.66-5.43a10.06,10.06,0,0,1,4.54,1l-.84,2.77a8.08,8.08,0,0,0-3.75-.89c-2.19,0-3.14,1.18-3.14,2.27,0,1.45,1.09,2.12,3.61,3.1,3.28,1.24,4.87,2.89,4.87,5.6,0,3-2.29,5.66-7.16,5.66a11.15,11.15,0,0,1-5.1-1.18Z"/><path class="cls-4" d="M289.08,294.08l2.46,7.3c.29.84.57,1.88.76,2.66h.08c.23-.78.48-1.79.73-2.68l2.13-7.28h3.7l-3.42,9.29c-1.87,5.1-3.14,7.36-4.76,8.76a6.86,6.86,0,0,1-3.61,1.77l-.78-2.91a6.2,6.2,0,0,0,3.89-3.11,1.37,1.37,0,0,0,.22-.62,1.54,1.54,0,0,0-.19-.67l-5-12.51Z"/><path class="cls-4" d="M300.42,304.55a7.79,7.79,0,0,0,3.5,1c1.51,0,2.19-.62,2.19-1.51s-.57-1.4-2.24-2c-2.66-.93-3.79-2.38-3.76-4,0-2.41,2-4.28,5.16-4.28a8,8,0,0,1,3.61.81l-.67,2.44a6.08,6.08,0,0,0-2.89-.79c-1.23,0-1.9.59-1.9,1.43s.64,1.29,2.38,1.9c2.46.9,3.61,2.16,3.64,4.17,0,2.47-1.94,4.26-5.55,4.26a8.79,8.79,0,0,1-4.14-.95Z"/><path class="cls-4" d="M316.21,290.18v3.9h3.28v2.57h-3.28v6c0,1.65.45,2.52,1.77,2.52a4.8,4.8,0,0,0,1.34-.17l.06,2.63a7.49,7.49,0,0,1-2.5.34,4,4,0,0,1-3-1.12,5.41,5.41,0,0,1-1.07-3.81v-6.41h-2v-2.57h2V291Z"/><path class="cls-4" d="M324.36,301.86c.09,2.46,2,3.53,4.2,3.53a10.28,10.28,0,0,0,3.78-.62l.5,2.38a12.74,12.74,0,0,1-4.76.84c-4.42,0-7-2.71-7-6.89,0-3.78,2.29-7.33,6.66-7.33s5.88,3.64,5.88,6.63a9.21,9.21,0,0,1-.11,1.46Zm6-2.41c0-1.26-.53-3.33-2.82-3.33-2.13,0-3,1.93-3.17,3.33Z"/><path class="cls-4" d="M336.37,298.13c0-1.56,0-2.88-.11-4.05h3l.14,2h.08a4.73,4.73,0,0,1,4.2-2.32,3.94,3.94,0,0,1,3.78,2.52h.06a5,5,0,0,1,1.68-1.71,4.54,4.54,0,0,1,2.74-.81c2.27,0,4.57,1.54,4.57,5.9v8h-3.36v-7.53c0-2.27-.79-3.61-2.44-3.61a2.63,2.63,0,0,0-2.41,1.82,5,5,0,0,0-.17,1.15v8.17h-3.36v-7.9c0-1.9-.75-3.24-2.35-3.24a2.69,2.69,0,0,0-2.46,2,2.9,2.9,0,0,0-.2,1.12v8.06h-3.36Z"/><path class="cls-4" d="M345.3,190.55c-.42,1.52-.87,2.94-1.25,4.46-.86,3.25-1.7,6.5-2.55,9.74a1.47,1.47,0,0,1-.07.5l3.65,1-6.84,7-2.69-9.44,3.76.93c1.11-4.27,2.21-8.53,3.36-12.9-1.15-.24-2.27-.51-3.4-.72a37.45,37.45,0,0,0-16.35.59,22.77,22.77,0,0,0-6.78,3.1,1.33,1.33,0,0,0-.52.91v20.76a2,2,0,0,0,0,.43H337v2.13H291.23c-.91-3.55-1.81-7.15-2.74-10.73l-4.55-17.48c0-.21-.07-.41-.09-.62,2.18-.46,4.34-.95,6.51-1.36a31.09,31.09,0,0,1,3.22-.37.72.72,0,0,0,.8-.62v0a15.25,15.25,0,0,1,2.56-5.47,1.15,1.15,0,0,0,.11-.94,4.31,4.31,0,0,1,7-4.73,1.35,1.35,0,0,0,.94.22c1.42-.14,2.84-.46,4.26-.48,4.14-.05,8.29-.13,12.42.08a14.13,14.13,0,0,1,13.16,11.29c.06.28.37.71.6.71a47.43,47.43,0,0,1,9.87,1.9Zm-58.87,1.31.11.5q3.1,12,6.21,24c.16.6.52.59,1,.59h18.86a4,4,0,0,0,.78-.05,1.55,1.55,0,0,0,.06-.31V195.67a1.16,1.16,0,0,0-.5-.83,27.31,27.31,0,0,0-2.84-1.61,30.67,30.67,0,0,0-14.36-2.66A43.51,43.51,0,0,0,286.43,191.86Zm9.8-3.48h1A30,30,0,0,1,314.1,193c.45.29.71.1,1-.12A27.67,27.67,0,0,1,327,188.72c1.9-.24,3.81-.31,5.77-.46-.07-.27-.13-.59-.22-.91a12.43,12.43,0,0,0-12.15-8.78H308.76a29.08,29.08,0,0,0-3.47.42,4.4,4.4,0,0,1-1.83,4.35,4.69,4.69,0,0,1-4.83.14Zm4.84-10.72A2.17,2.17,0,0,0,301,182h0a2.17,2.17,0,0,0,.05-4.33Z"/><path class="cls-4" d="M316.32,148l1.5.38a13.31,13.31,0,0,1-4.73,26.12c-6.4-.71-11.6-6.21-11.78-12.4-.18-7,4.25-12.68,11-13.92a5.34,5.34,0,0,0,.52-.18Zm9.4,13.36a10.28,10.28,0,1,0,0,.16v-.16Z"/><path class="cls-5" d="M285,19.91h-3.81v3h4.26v1.51h-6.1V14.29h5.88V15.8h-4v2.61H285Z"/><path class="cls-5" d="M287,19.26c0-.84,0-1.54-.06-2.17h1.62l.09,1.09h0A2.64,2.64,0,0,1,291,16.92c1.27,0,2.59.83,2.59,3.14v4.33h-1.84V20.27c0-1.05-.39-1.85-1.4-1.85a1.57,1.57,0,0,0-1.44,1.08,1.9,1.9,0,0,0-.07.6v4.29H287Z"/><path class="cls-5" d="M295.55,19.44c0-1,0-1.69-.06-2.35h1.6l.06,1.39h.06a2.19,2.19,0,0,1,2-1.56,1.88,1.88,0,0,1,.43,0v1.74a2.53,2.53,0,0,0-.54-.06A1.63,1.63,0,0,0,297.45,20a3.22,3.22,0,0,0-.06.57v3.78h-1.84Z"/><path class="cls-5" d="M307.7,20.67A3.62,3.62,0,0,1,304,24.56a3.54,3.54,0,0,1-3.66-3.77,3.6,3.6,0,0,1,3.78-3.87A3.51,3.51,0,0,1,307.7,20.67Zm-5.51.08c0,1.41.69,2.47,1.82,2.47s1.78-1,1.78-2.5c0-1.14-.51-2.45-1.77-2.45S302.19,19.53,302.19,20.75Z"/><path class="cls-5" d="M309.21,13.75h1.86V24.39h-1.86Z"/><path class="cls-5" d="M313.07,13.75h1.86V24.39h-1.86Z"/><path class="cls-5" d="M316.92,19.26c0-.84,0-1.54-.06-2.17h1.59l.08,1.08h0a2.53,2.53,0,0,1,2.25-1.25,2.12,2.12,0,0,1,2,1.35h0a2.7,2.7,0,0,1,.9-.91,2.4,2.4,0,0,1,1.47-.44c1.21,0,2.44.83,2.44,3.17v4.3h-1.8v-4c0-1.22-.42-1.94-1.3-1.94a1.4,1.4,0,0,0-1.29,1,2.36,2.36,0,0,0-.09.61v4.38h-1.8V20.16c0-1-.41-1.74-1.26-1.74a1.44,1.44,0,0,0-1.32,1,1.49,1.49,0,0,0-.11.6v4.32h-1.8Z"/><path class="cls-5" d="M331,21.26a2,2,0,0,0,2.25,1.89,5.46,5.46,0,0,0,2-.33l.27,1.27a6.78,6.78,0,0,1-2.55.45,3.45,3.45,0,0,1-3.76-3.69c0-2,1.23-3.93,3.57-3.93s3.15,1.95,3.15,3.56a4.64,4.64,0,0,1-.06.78ZM334.16,20a1.58,1.58,0,0,0-1.52-1.79A1.8,1.8,0,0,0,331,20Z"/><path class="cls-5" d="M337.38,19.26c0-.84,0-1.54-.06-2.17h1.62l.09,1.09h.05a2.62,2.62,0,0,1,2.32-1.26c1.28,0,2.6.83,2.6,3.14v4.33h-1.85V20.27c0-1.05-.39-1.85-1.39-1.85a1.54,1.54,0,0,0-1.44,1.08,1.9,1.9,0,0,0-.08.6v4.29h-1.86Z"/><path class="cls-5" d="M348,15v2.09h1.76v1.38H348v3.22c0,.89.24,1.35.95,1.35a2.58,2.58,0,0,0,.72-.09l0,1.41a3.94,3.94,0,0,1-1.34.18,2.13,2.13,0,0,1-1.59-.6,2.91,2.91,0,0,1-.57-2V18.47h-1.05V17.09h1.05V15.44Z"/><path class="cls-5" d="M35.78,120l-.87,2.87H33l3.24-10.11H38.6l3.29,10.11h-2L39,120Zm2.9-1.39-.8-2.49c-.19-.62-.36-1.31-.51-1.89h0c-.15.58-.3,1.29-.48,1.89l-.78,2.49Z"/><path class="cls-5" d="M49.76,112.17v8.59c0,.75,0,1.56.06,2.06H48.17l-.07-1.16h0A2.64,2.64,0,0,1,45.68,123c-1.74,0-3.12-1.48-3.12-3.73,0-2.45,1.52-3.9,3.27-3.9a2.33,2.33,0,0,1,2.06,1h0v-4.14Zm-1.84,6.39a2.61,2.61,0,0,0-.05-.48,1.62,1.62,0,0,0-1.59-1.31c-1.18,0-1.84,1-1.84,2.42s.66,2.31,1.83,2.31a1.63,1.63,0,0,0,1.59-1.31,2.23,2.23,0,0,0,.06-.54Z"/><path class="cls-5" d="M56.77,112.71v4.05H61v-4.05h1.85v10.11H61v-4.46H56.77v4.46H54.92V112.71Z"/><path class="cls-5" d="M71.87,119.1A3.62,3.62,0,0,1,68.12,123a3.53,3.53,0,0,1-3.66-3.77,3.61,3.61,0,0,1,3.78-3.86A3.5,3.5,0,0,1,71.87,119.1Zm-5.5.07c0,1.41.69,2.48,1.81,2.48s1.79-1,1.79-2.51c0-1.14-.51-2.44-1.77-2.44S66.37,118,66.37,119.17Z"/><path class="cls-5" d="M78.76,122.59a5.38,5.38,0,0,1-2.07.37,3.51,3.51,0,0,1-3.77-3.71,3.78,3.78,0,0,1,4.07-3.9,4.7,4.7,0,0,1,1.78.34l-.33,1.38a3.31,3.31,0,0,0-1.39-.28,2.36,2.36,0,0,0,0,4.72,3.61,3.61,0,0,0,1.45-.28Z"/><path class="cls-5" d="M83.3,112.84a17.56,17.56,0,0,1,2.79-.21,4.67,4.67,0,0,1,3.12.81,2.55,2.55,0,0,1,.87,2A2.68,2.68,0,0,1,88.25,118v0a2.59,2.59,0,0,1,1.41,2,21.66,21.66,0,0,0,.8,2.82H88.55a14.07,14.07,0,0,1-.67-2.39c-.29-1.32-.77-1.74-1.82-1.77h-.93v4.16H83.3Zm1.83,4.47h1.1c1.24,0,2-.66,2-1.66s-.78-1.62-2-1.62a5,5,0,0,0-1.14.09Z"/><path class="cls-5" d="M93.11,119.68a2,2,0,0,0,2.25,1.89,5.52,5.52,0,0,0,2-.33l.27,1.28a7,7,0,0,1-2.55.44,3.45,3.45,0,0,1-3.77-3.68c0-2,1.23-3.93,3.57-3.93s3.15,1.94,3.15,3.55a4.45,4.45,0,0,1-.06.78Zm3.21-1.29a1.56,1.56,0,0,0-1.51-1.78,1.81,1.81,0,0,0-1.7,1.78Z"/><path class="cls-5" d="M99.55,117.94c0-1,0-1.74-.06-2.43h1.62l.09,1.13h0a2.83,2.83,0,0,1,2.5-1.29c1.68,0,3.08,1.44,3.08,3.72,0,2.64-1.67,3.91-3.33,3.91a2.4,2.4,0,0,1-2.06-1h0v3.79H99.55Zm1.84,1.81a2.18,2.18,0,0,0,.06.52,1.67,1.67,0,0,0,1.62,1.29c1.17,0,1.86-1,1.86-2.42s-.63-2.34-1.81-2.34a1.72,1.72,0,0,0-1.65,1.37,1.48,1.48,0,0,0-.08.46Z"/><path class="cls-5" d="M115.27,119.1a3.62,3.62,0,0,1-3.75,3.88,3.53,3.53,0,0,1-3.66-3.77,3.6,3.6,0,0,1,3.78-3.86A3.51,3.51,0,0,1,115.27,119.1Zm-5.51.07c0,1.41.69,2.48,1.82,2.48s1.78-1,1.78-2.51c0-1.14-.51-2.44-1.77-2.44S109.76,118,109.76,119.17Z"/><path class="cls-5" d="M116.78,117.87c0-1,0-1.7-.06-2.36h1.61l.06,1.4h.06a2.17,2.17,0,0,1,2-1.56,2,2,0,0,1,.44,0v1.74a2.61,2.61,0,0,0-.54-.06,1.62,1.62,0,0,0-1.65,1.4,3.12,3.12,0,0,0-.06.57v3.78h-1.85Z"/><path class="cls-5" d="M124.58,113.43v2.08h1.76v1.38h-1.76v3.23c0,.88.24,1.34,1,1.34a3.12,3.12,0,0,0,.72-.08l0,1.41a4.26,4.26,0,0,1-1.34.17,2.17,2.17,0,0,1-1.59-.59,2.91,2.91,0,0,1-.57-2v-3.44h-1v-1.38h1v-1.65Z"/><path class="cls-5" d="M129.7,113.47a1,1,0,0,1-1,1,1,1,0,0,1-1-1,1,1,0,0,1,2.07,0Zm-2,9.35v-7.31h1.86v7.31Z"/><path class="cls-5" d="M131.57,117.69c0-.84,0-1.55-.06-2.18h1.62l.09,1.1h.05a2.62,2.62,0,0,1,2.32-1.26c1.28,0,2.6.82,2.6,3.13v4.34h-1.85v-4.13c0-1-.39-1.84-1.39-1.84a1.53,1.53,0,0,0-1.44,1.08,1.86,1.86,0,0,0-.08.6v4.29h-1.86Z"/><path class="cls-5" d="M146.83,115.51c0,.5-.06,1.1-.06,2.1v4.14a3.51,3.51,0,0,1-3.9,4.2,5.28,5.28,0,0,1-2.55-.58l.4-1.4a4.44,4.44,0,0,0,2.13.56,1.94,1.94,0,0,0,2.1-2.21v-.63h0a2.48,2.48,0,0,1-2.13,1.08c-1.81,0-3.1-1.5-3.1-3.57,0-2.4,1.56-3.85,3.31-3.85a2.31,2.31,0,0,1,2.12,1.14h0l.07-1Zm-1.91,2.93a1.63,1.63,0,0,0-.06-.5,1.53,1.53,0,0,0-1.5-1.18c-1,0-1.8.9-1.8,2.38,0,1.25.63,2.25,1.79,2.25a1.58,1.58,0,0,0,1.5-1.11,3.6,3.6,0,0,0,.07-.66Z"/><path class="cls-5" d="M163.33,26.69a18.09,18.09,0,0,1,2.94-.21,6.17,6.17,0,0,1,4.13,1.17A4.52,4.52,0,0,1,172,31.37a5.23,5.23,0,0,1-1.57,4,6.79,6.79,0,0,1-4.58,1.38,19,19,0,0,1-2.49-.14Zm1.85,8.56a6.13,6.13,0,0,0,1,0c2.4,0,3.82-1.31,3.82-3.87,0-2.24-1.27-3.51-3.58-3.51a5.92,5.92,0,0,0-1.26.1Z"/><path class="cls-5" d="M177.61,36.66l-.12-.81h0a2.72,2.72,0,0,1-2.16,1,2.18,2.18,0,0,1-2.3-2.18c0-1.84,1.64-2.77,4.34-2.76v-.12c0-.48-.2-1.27-1.49-1.27a3.79,3.79,0,0,0-2,.54l-.36-1.2a5.24,5.24,0,0,1,2.64-.65c2.34,0,3,1.49,3,3.08v2.64a11,11,0,0,0,.11,1.75Zm-.24-3.57c-1.3,0-2.55.26-2.55,1.37a1,1,0,0,0,1.05,1,1.48,1.48,0,0,0,1.44-1,1.14,1.14,0,0,0,.06-.4Z"/><path class="cls-5" d="M183.15,27.27v2.09h1.75v1.38h-1.75V34c0,.89.24,1.35.94,1.35a2.48,2.48,0,0,0,.72-.09l0,1.41a3.91,3.91,0,0,1-1.33.18,2.1,2.1,0,0,1-1.59-.6,2.91,2.91,0,0,1-.57-2V30.74h-1V29.36h1V27.71Z"/><path class="cls-5" d="M190.41,36.66l-.12-.81h0a2.71,2.71,0,0,1-2.16,1,2.17,2.17,0,0,1-2.29-2.18c0-1.84,1.63-2.77,4.33-2.76v-.12c0-.48-.19-1.27-1.48-1.27a3.85,3.85,0,0,0-2,.54l-.36-1.2a5.27,5.27,0,0,1,2.64-.65c2.34,0,3,1.49,3,3.08v2.64a12.43,12.43,0,0,0,.1,1.75Zm-.24-3.57c-1.31,0-2.55.26-2.55,1.37a1,1,0,0,0,1,1,1.5,1.5,0,0,0,1.44-1,1.44,1.44,0,0,0,.06-.4Z"/><path class="cls-5" d="M199.12,33.8l-.87,2.86h-1.9l3.24-10.11h2.35l3.29,10.11h-2l-.92-2.86Zm2.9-1.4-.8-2.49c-.19-.61-.36-1.3-.51-1.89h0c-.15.59-.3,1.29-.48,1.89l-.78,2.49Z"/><path class="cls-5" d="M206.49,31.53c0-.84,0-1.54-.06-2.17h1.62l.09,1.09h0a2.64,2.64,0,0,1,2.33-1.26c1.27,0,2.59.83,2.59,3.14v4.33h-1.84V32.54c0-1.05-.39-1.85-1.4-1.85a1.57,1.57,0,0,0-1.44,1.08,1.9,1.9,0,0,0-.07.6v4.29h-1.86Z"/><path class="cls-5" d="M219.18,36.66l-.12-.81H219a2.71,2.71,0,0,1-2.16,1,2.17,2.17,0,0,1-2.29-2.18c0-1.84,1.63-2.77,4.33-2.76v-.12c0-.48-.19-1.27-1.48-1.27a3.85,3.85,0,0,0-2,.54l-.36-1.2a5.27,5.27,0,0,1,2.64-.65c2.34,0,3,1.49,3,3.08v2.64a12.43,12.43,0,0,0,.1,1.75Zm-.24-3.57c-1.31,0-2.55.26-2.55,1.37a1,1,0,0,0,1.05,1,1.5,1.5,0,0,0,1.44-1,1.44,1.44,0,0,0,.06-.4Z"/><path class="cls-5" d="M222.69,26h1.86V36.66h-1.86Z"/><path class="cls-5" d="M227.7,29.36,229,33.27c.15.45.3,1,.4,1.43h.05c.12-.42.25-1,.39-1.44l1.14-3.9h2l-1.83,5c-1,2.73-1.68,3.94-2.55,4.69a3.68,3.68,0,0,1-1.94.95l-.42-1.56a3.17,3.17,0,0,0,1.08-.51,3.25,3.25,0,0,0,1-1.16.79.79,0,0,0,.12-.33.83.83,0,0,0-.11-.36l-2.67-6.7Z"/><path class="cls-5" d="M236.16,27.27v2.09h1.75v1.38h-1.75V34c0,.89.24,1.35.94,1.35a2.48,2.48,0,0,0,.72-.09l0,1.41a3.91,3.91,0,0,1-1.33.18,2.1,2.1,0,0,1-1.59-.6,2.91,2.91,0,0,1-.57-2V30.74h-1.05V29.36h1.05V27.71Z"/><path class="cls-5" d="M241.27,27.32a1,1,0,0,1-2.07,0,1,1,0,0,1,2.07,0Zm-2,9.34v-7.3h1.86v7.3Z"/><path class="cls-5" d="M248.52,36.44a5.38,5.38,0,0,1-2.07.37,3.51,3.51,0,0,1-3.77-3.72,3.78,3.78,0,0,1,4.07-3.9,4.5,4.5,0,0,1,1.78.35l-.33,1.38a3.14,3.14,0,0,0-1.39-.29A2.19,2.19,0,0,0,244.57,33a2.17,2.17,0,0,0,2.24,2.36,3.59,3.59,0,0,0,1.45-.29Z"/><path class="cls-5" d="M249.79,35a4.2,4.2,0,0,0,1.88.52c.81,0,1.17-.33,1.17-.81s-.3-.75-1.2-1.06c-1.43-.5-2-1.28-2-2.13,0-1.29,1.06-2.3,2.76-2.3a4.2,4.2,0,0,1,1.93.44l-.36,1.3a3.26,3.26,0,0,0-1.54-.42c-.66,0-1,.32-1,.77s.34.69,1.27,1c1.32.48,1.94,1.15,2,2.23,0,1.32-1,2.28-3,2.28a4.73,4.73,0,0,1-2.22-.51Z"/><path class="cls-5" d="M371.79,28.69a18.09,18.09,0,0,1,2.94-.21,6.17,6.17,0,0,1,4.13,1.17,4.52,4.52,0,0,1,1.57,3.72,5.23,5.23,0,0,1-1.57,4,6.79,6.79,0,0,1-4.58,1.38,19,19,0,0,1-2.49-.14Zm1.85,8.56a6.13,6.13,0,0,0,1,0c2.4,0,3.82-1.31,3.82-3.87,0-2.24-1.27-3.51-3.58-3.51a5.92,5.92,0,0,0-1.26.1Z"/><path class="cls-5" d="M383.27,35.53a2,2,0,0,0,2.25,1.89,5.46,5.46,0,0,0,2-.33l.27,1.27a6.78,6.78,0,0,1-2.55.45,3.45,3.45,0,0,1-3.76-3.69c0-2,1.23-3.93,3.57-3.93s3.15,1.95,3.15,3.56a4.64,4.64,0,0,1-.06.78Zm3.21-1.29A1.58,1.58,0,0,0,385,32.45a1.8,1.8,0,0,0-1.69,1.79Z"/><path class="cls-5" d="M389.7,33.53c0-.84,0-1.54-.06-2.17h1.59l.08,1.08h0a2.53,2.53,0,0,1,2.25-1.25,2.12,2.12,0,0,1,2,1.35h0a2.7,2.7,0,0,1,.9-.91,2.4,2.4,0,0,1,1.47-.44c1.21,0,2.44.83,2.44,3.17v4.3h-1.8v-4c0-1.22-.42-1.94-1.3-1.94a1.4,1.4,0,0,0-1.29,1,2.36,2.36,0,0,0-.09.61v4.38h-1.8V34.43c0-1-.41-1.74-1.26-1.74a1.44,1.44,0,0,0-1.32,1.05,1.49,1.49,0,0,0-.11.6v4.32h-1.8Z"/><path class="cls-5" d="M409.37,34.94a3.62,3.62,0,0,1-3.75,3.89A3.54,3.54,0,0,1,402,35.06a3.6,3.6,0,0,1,3.78-3.87A3.51,3.51,0,0,1,409.37,34.94Zm-5.51.08c0,1.41.69,2.47,1.82,2.47s1.78-1,1.78-2.5c0-1.14-.51-2.45-1.77-2.45S403.86,33.8,403.86,35Z"/><path class="cls-5" d="M417.56,31.36c0,.49-.06,1.09-.06,2.1V37.6a4.24,4.24,0,0,1-1.08,3.31,4.2,4.2,0,0,1-2.82.89,5.17,5.17,0,0,1-2.55-.59l.4-1.39a4.45,4.45,0,0,0,2.13.55,1.94,1.94,0,0,0,2.1-2.2v-.63h0a2.48,2.48,0,0,1-2.13,1.08c-1.81,0-3.1-1.5-3.1-3.57,0-2.4,1.56-3.86,3.31-3.86a2.31,2.31,0,0,1,2.12,1.14h0l.07-1Zm-1.91,2.92a1.61,1.61,0,0,0-.06-.49,1.53,1.53,0,0,0-1.5-1.19c-1,0-1.8.9-1.8,2.39,0,1.24.63,2.25,1.79,2.25a1.58,1.58,0,0,0,1.5-1.11,3.6,3.6,0,0,0,.07-.66Z"/><path class="cls-5" d="M419.42,33.71c0-1,0-1.69-.06-2.35H421l.06,1.39h.06a2.19,2.19,0,0,1,2-1.56,1.88,1.88,0,0,1,.43,0V33a2.53,2.53,0,0,0-.54-.06,1.63,1.63,0,0,0-1.65,1.39,3.22,3.22,0,0,0-.06.57v3.78h-1.84Z"/><path class="cls-5" d="M428.73,38.66l-.12-.81h0a2.72,2.72,0,0,1-2.16,1,2.18,2.18,0,0,1-2.3-2.18c0-1.84,1.64-2.77,4.34-2.76v-.12c0-.48-.2-1.27-1.49-1.27a3.79,3.79,0,0,0-2,.54l-.36-1.2a5.24,5.24,0,0,1,2.64-.65c2.34,0,3,1.49,3,3.08v2.64a11,11,0,0,0,.11,1.75Zm-.24-3.57c-1.3,0-2.55.26-2.55,1.37a1,1,0,0,0,1.05,1,1.48,1.48,0,0,0,1.44-1,1.14,1.14,0,0,0,.06-.4Z"/><path class="cls-5" d="M432.24,33.79c0-1,0-1.74-.06-2.43h1.62l.09,1.12h0a2.86,2.86,0,0,1,2.51-1.29c1.68,0,3.07,1.44,3.07,3.72,0,2.64-1.66,3.92-3.33,3.92a2.38,2.38,0,0,1-2.05-1h0v3.78h-1.85Zm1.85,1.81a1.7,1.7,0,0,0,.06.51,1.67,1.67,0,0,0,1.62,1.29c1.17,0,1.86-1,1.86-2.41s-.63-2.34-1.82-2.34A1.72,1.72,0,0,0,434.16,34a1.91,1.91,0,0,0-.07.47Z"/><path class="cls-5" d="M441,28h1.86v4.35h0a2.46,2.46,0,0,1,.91-.84,2.52,2.52,0,0,1,1.26-.33c1.25,0,2.55.83,2.55,3.17v4.3h-1.84V34.57c0-1.07-.39-1.86-1.41-1.86a1.52,1.52,0,0,0-1.43,1,1.59,1.59,0,0,0-.07.56v4.36H441Z"/><path class="cls-5" d="M451.56,29.32a1,1,0,0,1-2.07,0,1,1,0,0,1,2.07,0Zm-2,9.34v-7.3h1.86v7.3Z"/><path class="cls-5" d="M458.81,38.44a5.38,5.38,0,0,1-2.07.37A3.51,3.51,0,0,1,453,35.09a3.78,3.78,0,0,1,4.07-3.9,4.5,4.5,0,0,1,1.78.35l-.33,1.38a3.14,3.14,0,0,0-1.39-.29A2.19,2.19,0,0,0,454.86,35a2.17,2.17,0,0,0,2.24,2.36,3.59,3.59,0,0,0,1.45-.29Z"/><path class="cls-5" d="M460.08,37a4.2,4.2,0,0,0,1.88.52c.81,0,1.17-.33,1.17-.81s-.3-.75-1.2-1.06c-1.43-.5-2-1.28-2-2.13,0-1.29,1.06-2.3,2.76-2.3a4.2,4.2,0,0,1,1.93.44l-.36,1.3a3.26,3.26,0,0,0-1.54-.42c-.66,0-1,.32-1,.77s.34.69,1.27,1c1.32.48,1.94,1.15,2,2.23,0,1.32-1,2.28-3,2.28a4.73,4.73,0,0,1-2.22-.51Z"/><path class="cls-5" d="M115.28,63.07a19.19,19.19,0,0,1,2.94-.21A6.14,6.14,0,0,1,122.34,64a4.52,4.52,0,0,1,1.58,3.72,5.24,5.24,0,0,1-1.58,4,6.71,6.71,0,0,1-4.57,1.38,21.4,21.4,0,0,1-2.49-.13Zm1.84,8.57a7.8,7.8,0,0,0,1,0c2.4,0,3.83-1.3,3.83-3.87,0-2.23-1.28-3.51-3.59-3.51a5.89,5.89,0,0,0-1.26.11Z"/><path class="cls-5" d="M129.56,73.05l-.12-.81h-.05a2.7,2.7,0,0,1-2.16,1A2.16,2.16,0,0,1,124.94,71c0-1.85,1.63-2.78,4.33-2.76v-.12c0-.48-.19-1.28-1.48-1.28a4,4,0,0,0-2,.54l-.36-1.2a5.28,5.28,0,0,1,2.64-.64c2.34,0,3,1.48,3,3.07v2.64a12.58,12.58,0,0,0,.1,1.76Zm-.24-3.57c-1.31,0-2.55.25-2.55,1.36a1,1,0,0,0,1,1,1.51,1.51,0,0,0,1.44-1,1.56,1.56,0,0,0,.06-.41Z"/><path class="cls-5" d="M133,71.35a4,4,0,0,0,1.87.53c.81,0,1.17-.33,1.17-.81s-.3-.75-1.2-1.07c-1.42-.49-2-1.27-2-2.13,0-1.29,1.07-2.29,2.76-2.29a4.39,4.39,0,0,1,1.94.43l-.36,1.31a3.3,3.3,0,0,0-1.55-.42c-.66,0-1,.31-1,.76s.35.69,1.28,1c1.32.48,1.93,1.16,1.95,2.24,0,1.32-1,2.28-3,2.28a4.7,4.7,0,0,1-2.22-.51Z"/><path class="cls-5" d="M139.32,62.4h1.86v4.35h0a2.66,2.66,0,0,1,2.18-1.17c1.24,0,2.55.82,2.55,3.16v4.31h-1.85V69c0-1.06-.39-1.86-1.41-1.86a1.49,1.49,0,0,0-1.42,1,1.52,1.52,0,0,0-.08.55v4.37h-1.86Z"/><path class="cls-5" d="M147.84,73.05c0-.5.06-1.31.06-2.06V62.4h1.85v4.35h0a2.63,2.63,0,0,1,2.34-1.17c1.78,0,3.06,1.48,3,3.7,0,2.63-1.66,3.93-3.31,3.93A2.5,2.5,0,0,1,149.54,72h0l-.09,1.1Zm1.91-3a2.12,2.12,0,0,0,0,.44,1.71,1.71,0,0,0,1.64,1.29c1.15,0,1.86-.93,1.86-2.4,0-1.29-.62-2.34-1.85-2.34a1.72,1.72,0,0,0-1.63,1.35,2.16,2.16,0,0,0-.06.48Z"/><path class="cls-5" d="M163.62,69.33a3.62,3.62,0,0,1-3.75,3.88,3.53,3.53,0,0,1-3.66-3.76A3.61,3.61,0,0,1,160,65.58,3.5,3.5,0,0,1,163.62,69.33Zm-5.5.07c0,1.41.69,2.48,1.81,2.48s1.79-1,1.79-2.51c0-1.14-.51-2.44-1.77-2.44S158.12,68.19,158.12,69.4Z"/><path class="cls-5" d="M169.25,73.05l-.12-.81h0a2.7,2.7,0,0,1-2.16,1A2.16,2.16,0,0,1,164.63,71c0-1.85,1.63-2.78,4.33-2.76v-.12c0-.48-.19-1.28-1.48-1.28a4,4,0,0,0-2,.54l-.36-1.2a5.28,5.28,0,0,1,2.64-.64c2.34,0,3,1.48,3,3.07v2.64a12.58,12.58,0,0,0,.1,1.76ZM169,69.48c-1.31,0-2.55.25-2.55,1.36a1,1,0,0,0,1,1,1.51,1.51,0,0,0,1.44-1,1.56,1.56,0,0,0,.06-.41Z"/><path class="cls-5" d="M172.76,68.1c0-1,0-1.7-.06-2.36h1.6l.06,1.4h.06a2.18,2.18,0,0,1,2-1.56,1.91,1.91,0,0,1,.43,0v1.74a2.53,2.53,0,0,0-.54-.06,1.63,1.63,0,0,0-1.65,1.4,3.12,3.12,0,0,0-.06.57v3.78h-1.84Z"/><path class="cls-5" d="M184.7,62.4V71c0,.75,0,1.56.06,2.06h-1.65L183,71.89h0a2.62,2.62,0,0,1-2.38,1.32c-1.74,0-3.12-1.48-3.12-3.73,0-2.45,1.51-3.9,3.27-3.9a2.32,2.32,0,0,1,2,1h0V62.4Zm-1.85,6.39a2.59,2.59,0,0,0,0-.48A1.62,1.62,0,0,0,181.22,67c-1.19,0-1.85,1-1.85,2.42s.66,2.31,1.83,2.31a1.63,1.63,0,0,0,1.59-1.31,1.82,1.82,0,0,0,.06-.54Z"/><path class="cls-5" d="M186.59,71.35a4,4,0,0,0,1.87.53c.81,0,1.17-.33,1.17-.81s-.3-.75-1.2-1.07c-1.42-.49-2-1.27-2-2.13,0-1.29,1.07-2.29,2.76-2.29a4.39,4.39,0,0,1,1.94.43l-.36,1.31a3.3,3.3,0,0,0-1.55-.42c-.66,0-1,.31-1,.76s.35.69,1.28,1c1.32.48,1.93,1.16,1.95,2.24,0,1.32-1,2.28-3,2.28a4.7,4.7,0,0,1-2.22-.51Z"/><path class="cls-5" d="M480.31,117.81a5.17,5.17,0,0,0,2.45.64c1.18,0,1.84-.55,1.84-1.38s-.51-1.21-1.8-1.68c-1.66-.6-2.73-1.48-2.73-2.94,0-1.65,1.38-2.91,3.57-2.91a5.31,5.31,0,0,1,2.43.51l-.45,1.49a4.2,4.2,0,0,0-2-.48c-1.17,0-1.68.63-1.68,1.21,0,.78.59,1.14,1.94,1.67,1.75.66,2.61,1.54,2.61,3,0,1.62-1.23,3-3.84,3a5.85,5.85,0,0,1-2.73-.63Z"/><path class="cls-5" d="M493.53,119.59a5.38,5.38,0,0,1-2.07.37,3.51,3.51,0,0,1-3.77-3.71,3.78,3.78,0,0,1,4.07-3.9,4.7,4.7,0,0,1,1.78.34l-.33,1.38a3.31,3.31,0,0,0-1.39-.28,2.36,2.36,0,0,0,0,4.72,3.61,3.61,0,0,0,1.45-.28Z"/><path class="cls-5" d="M494.89,109.17h1.86v4.35h0a2.66,2.66,0,0,1,2.18-1.17c1.24,0,2.55.82,2.55,3.16v4.31h-1.85v-4.1c0-1.06-.39-1.86-1.41-1.86a1.53,1.53,0,0,0-1.5,1.59v4.37h-1.86Z"/><path class="cls-5" d="M504.78,116.68a2,2,0,0,0,2.25,1.89,5.46,5.46,0,0,0,2-.33l.27,1.28a7,7,0,0,1-2.55.44,3.45,3.45,0,0,1-3.76-3.68c0-2,1.23-3.93,3.57-3.93s3.15,1.94,3.15,3.55a4.45,4.45,0,0,1-.06.78Zm3.21-1.29a1.58,1.58,0,0,0-1.52-1.78,1.79,1.79,0,0,0-1.69,1.78Z"/><path class="cls-5" d="M518,109.17v8.59c0,.75,0,1.56.06,2.06h-1.65l-.08-1.16h0a2.62,2.62,0,0,1-2.38,1.32c-1.74,0-3.12-1.48-3.12-3.73,0-2.45,1.51-3.9,3.27-3.9a2.32,2.32,0,0,1,2.05,1h0v-4.14Zm-1.85,6.39a2.59,2.59,0,0,0,0-.48,1.62,1.62,0,0,0-1.59-1.31c-1.19,0-1.85,1-1.85,2.42s.66,2.31,1.83,2.31a1.63,1.63,0,0,0,1.59-1.31,1.82,1.82,0,0,0,.06-.54Z"/><path class="cls-5" d="M526.47,117.63c0,.87,0,1.58.06,2.19h-1.62l-.09-1.11h0a2.66,2.66,0,0,1-2.34,1.27c-1.34,0-2.55-.79-2.55-3.18v-4.29h1.84v4c0,1.21.39,2,1.37,2a1.56,1.56,0,0,0,1.41-1,1.66,1.66,0,0,0,.1-.57v-4.41h1.85Z"/><path class="cls-5" d="M528.46,109.17h1.86v10.65h-1.86Z"/><path class="cls-5" d="M534.28,110.47a1,1,0,0,1-2.07,0,1,1,0,0,1,2.07,0Zm-2,9.35v-7.31h1.86v7.31Z"/><path class="cls-5" d="M536.16,114.69c0-.84,0-1.55-.06-2.18h1.62l.09,1.1h0a2.64,2.64,0,0,1,2.33-1.26c1.27,0,2.59.82,2.59,3.13v4.34h-1.84v-4.13c0-1-.39-1.84-1.4-1.84a1.55,1.55,0,0,0-1.44,1.08,1.87,1.87,0,0,0-.07.6v4.29h-1.86Z"/><path class="cls-5" d="M551.41,112.51c0,.5-.06,1.1-.06,2.1v4.14a3.51,3.51,0,0,1-3.9,4.2,5.28,5.28,0,0,1-2.55-.58l.41-1.4a4.37,4.37,0,0,0,2.13.56,1.94,1.94,0,0,0,2.1-2.21v-.63h0a2.48,2.48,0,0,1-2.13,1.08c-1.82,0-3.11-1.5-3.11-3.57,0-2.4,1.56-3.85,3.32-3.85a2.28,2.28,0,0,1,2.11,1.14h0l.08-1Zm-1.9,2.93a2,2,0,0,0-.06-.5,1.54,1.54,0,0,0-1.5-1.18c-1,0-1.8.9-1.8,2.38,0,1.25.63,2.25,1.78,2.25a1.58,1.58,0,0,0,1.5-1.11,2.91,2.91,0,0,0,.08-.66Z"/><path class="cls-5" d="M438,66.18l-.87,2.87H435.2l3.24-10.11h2.36l3.28,10.11h-2l-.91-2.87Zm2.89-1.39-.79-2.49c-.2-.62-.36-1.31-.51-1.89h0c-.15.58-.3,1.29-.48,1.89l-.78,2.49Z"/><path class="cls-5" d="M447.31,59.66v2.08h1.75v1.38h-1.75v3.23c0,.88.24,1.35.94,1.35a2.89,2.89,0,0,0,.72-.09L449,69a4.18,4.18,0,0,1-1.33.18,2.14,2.14,0,0,1-1.59-.6,2.91,2.91,0,0,1-.57-2V63.12h-1.05V61.74h1.05V60.09Z"/><path class="cls-5" d="M452.57,59.66v2.08h1.76v1.38h-1.76v3.23c0,.88.24,1.35.95,1.35a3,3,0,0,0,.72-.09l0,1.41a4.21,4.21,0,0,1-1.34.18,2.17,2.17,0,0,1-1.59-.6,2.91,2.91,0,0,1-.57-2V63.12h-1V61.74h1V60.09Z"/><path class="cls-5" d="M456.94,65.91a2,2,0,0,0,2.25,1.89,5.46,5.46,0,0,0,2-.33l.27,1.28a7,7,0,0,1-2.55.45,3.45,3.45,0,0,1-3.76-3.69c0-2,1.23-3.93,3.57-3.93s3.15,2,3.15,3.55a4.45,4.45,0,0,1-.06.78Zm3.21-1.29a1.58,1.58,0,0,0-1.52-1.78,1.79,1.79,0,0,0-1.69,1.78Z"/><path class="cls-5" d="M463.37,63.92c0-.84,0-1.55-.06-2.18h1.62l.09,1.1h.05a2.62,2.62,0,0,1,2.32-1.26c1.28,0,2.6.82,2.6,3.13v4.34h-1.85V64.92c0-1.05-.39-1.84-1.39-1.84a1.53,1.53,0,0,0-1.44,1.08,1.86,1.86,0,0,0-.08.6v4.29h-1.86Z"/><path class="cls-5" d="M478.69,58.4V67c0,.75,0,1.56.06,2.06H477.1L477,67.89h0a2.62,2.62,0,0,1-2.38,1.32c-1.74,0-3.12-1.48-3.12-3.73,0-2.45,1.51-3.9,3.27-3.9a2.32,2.32,0,0,1,2.05,1h0V58.4Zm-1.85,6.39a2.59,2.59,0,0,0,0-.48A1.62,1.62,0,0,0,475.21,63c-1.19,0-1.85,1-1.85,2.42s.66,2.31,1.83,2.31a1.63,1.63,0,0,0,1.59-1.31,1.82,1.82,0,0,0,.06-.54Z"/><path class="cls-5" d="M482,65.91a2,2,0,0,0,2.25,1.89,5.52,5.52,0,0,0,2-.33l.27,1.28a7,7,0,0,1-2.55.45,3.46,3.46,0,0,1-3.77-3.69c0-2,1.23-3.93,3.57-3.93s3.15,2,3.15,3.55a4.45,4.45,0,0,1-.06.78Zm3.21-1.29a1.56,1.56,0,0,0-1.51-1.78,1.81,1.81,0,0,0-1.7,1.78Z"/><path class="cls-5" d="M489.71,65.91A2,2,0,0,0,492,67.8a5.52,5.52,0,0,0,2-.33l.27,1.28a7,7,0,0,1-2.55.45,3.46,3.46,0,0,1-3.77-3.69c0-2,1.23-3.93,3.57-3.93s3.15,2,3.15,3.55a4.45,4.45,0,0,1-.06.78Zm3.21-1.29a1.56,1.56,0,0,0-1.51-1.78,1.81,1.81,0,0,0-1.7,1.78Z"/><path class="cls-5" d="M507.58,182.42a5,5,0,0,0,2.44.65c1.19,0,1.85-.56,1.85-1.38s-.51-1.22-1.8-1.68c-1.67-.6-2.73-1.49-2.73-2.94,0-1.65,1.38-2.91,3.57-2.91a5.37,5.37,0,0,1,2.43.51l-.45,1.48a4.36,4.36,0,0,0-2-.48c-1.17,0-1.68.63-1.68,1.22,0,.78.58,1.14,1.93,1.66,1.76.66,2.61,1.55,2.61,3,0,1.62-1.23,3-3.84,3a6,6,0,0,1-2.73-.63Z"/><path class="cls-5" d="M515.33,179.56c0-1,0-1.74-.06-2.43h1.62l.09,1.12h0a2.86,2.86,0,0,1,2.51-1.29c1.68,0,3.07,1.44,3.07,3.72,0,2.64-1.66,3.92-3.33,3.92a2.38,2.38,0,0,1-2-1h0v3.78h-1.85Zm1.85,1.81a1.7,1.7,0,0,0,.06.51,1.67,1.67,0,0,0,1.62,1.29c1.17,0,1.86-1,1.86-2.41,0-1.29-.63-2.34-1.82-2.34a1.72,1.72,0,0,0-1.65,1.36,1.91,1.91,0,0,0-.07.47Z"/><path class="cls-5" d="M525.41,181.3a2,2,0,0,0,2.25,1.89,5.52,5.52,0,0,0,2-.33l.27,1.27a6.78,6.78,0,0,1-2.55.45,3.46,3.46,0,0,1-3.77-3.69c0-2,1.23-3.93,3.57-3.93s3.15,1.95,3.15,3.56a4.64,4.64,0,0,1-.06.78Zm3.21-1.29a1.57,1.57,0,0,0-1.51-1.79,1.82,1.82,0,0,0-1.7,1.79Z"/><path class="cls-5" d="M537.22,184.21a5.38,5.38,0,0,1-2.07.37,3.51,3.51,0,0,1-3.77-3.72,3.78,3.78,0,0,1,4.07-3.9,4.5,4.5,0,0,1,1.78.35l-.33,1.38a3.14,3.14,0,0,0-1.39-.29,2.37,2.37,0,0,0,0,4.73,3.59,3.59,0,0,0,1.45-.29Z"/><path class="cls-5" d="M540.55,175.09a1,1,0,0,1-1,1,1,1,0,0,1-1-1,1,1,0,0,1,2.07,0Zm-2,9.34v-7.3h1.86v7.3Z"/><path class="cls-5" d="M546.53,184.43l-.12-.81h0a2.72,2.72,0,0,1-2.16,1,2.18,2.18,0,0,1-2.3-2.18c0-1.84,1.64-2.77,4.34-2.76v-.12c0-.48-.2-1.27-1.49-1.27a3.79,3.79,0,0,0-2,.54l-.36-1.2a5.24,5.24,0,0,1,2.64-.65c2.34,0,3,1.49,3,3.08v2.64a11,11,0,0,0,.11,1.75Zm-.24-3.57c-1.3,0-2.55.26-2.55,1.37a1,1,0,0,0,1,1.05,1.48,1.48,0,0,0,1.44-1,1.14,1.14,0,0,0,.06-.4Z"/><path class="cls-5" d="M550,173.78h1.86v10.65H550Z"/><path class="cls-5" d="M562.73,180h-3.81v3h4.26v1.51h-6.1V174.32H563v1.52h-4v2.61h3.81Z"/><path class="cls-5" d="M571.4,173.78v8.6c0,.75,0,1.56.06,2.05h-1.65l-.07-1.15h0a2.64,2.64,0,0,1-2.39,1.32c-1.74,0-3.12-1.49-3.12-3.74,0-2.44,1.52-3.9,3.27-3.9a2.33,2.33,0,0,1,2.06,1h0v-4.14Zm-1.84,6.39a2.61,2.61,0,0,0,0-.48,1.61,1.61,0,0,0-1.59-1.3c-1.18,0-1.84,1.05-1.84,2.41s.66,2.31,1.83,2.31a1.63,1.63,0,0,0,1.59-1.3,2.35,2.35,0,0,0,.06-.54Z"/><path class="cls-5" d="M579.92,182.24c0,.87,0,1.59.06,2.19h-1.62l-.09-1.11h0a2.62,2.62,0,0,1-2.34,1.28c-1.33,0-2.55-.8-2.55-3.18v-4.29h1.85v4c0,1.22.39,2,1.36,2a1.55,1.55,0,0,0,1.41-1,1.7,1.7,0,0,0,.11-.57v-4.41h1.84Z"/><path class="cls-5" d="M587.29,184.21a5.38,5.38,0,0,1-2.07.37,3.51,3.51,0,0,1-3.77-3.72,3.78,3.78,0,0,1,4.07-3.9,4.5,4.5,0,0,1,1.78.35l-.33,1.38a3.14,3.14,0,0,0-1.39-.29,2.37,2.37,0,0,0,0,4.73,3.59,3.59,0,0,0,1.45-.29Z"/><path class="cls-5" d="M592.76,184.43l-.12-.81h0a2.72,2.72,0,0,1-2.16,1,2.18,2.18,0,0,1-2.3-2.18c0-1.84,1.64-2.77,4.34-2.76v-.12c0-.48-.2-1.27-1.49-1.27a3.79,3.79,0,0,0-2,.54l-.36-1.2a5.24,5.24,0,0,1,2.64-.65c2.34,0,3,1.49,3,3.08v2.64a11,11,0,0,0,.11,1.75Zm-.24-3.57c-1.3,0-2.55.26-2.55,1.37a1,1,0,0,0,1,1.05,1.48,1.48,0,0,0,1.44-1,1.14,1.14,0,0,0,.06-.4Z"/><path class="cls-5" d="M598.3,175v2.09h1.75v1.38H598.3v3.22c0,.89.24,1.35.94,1.35A2.48,2.48,0,0,0,600,183l0,1.41a3.91,3.91,0,0,1-1.33.18,2.1,2.1,0,0,1-1.59-.6,2.91,2.91,0,0,1-.57-2v-3.43h-1v-1.38h1v-1.65Z"/><path class="cls-5" d="M603.41,175.09a1,1,0,0,1-2.07,0,1,1,0,0,1,2.07,0Zm-2,9.34v-7.3h1.86v7.3Z"/><path class="cls-5" d="M612.23,180.71a3.62,3.62,0,0,1-3.75,3.89,3.54,3.54,0,0,1-3.66-3.77A3.61,3.61,0,0,1,608.6,177,3.5,3.5,0,0,1,612.23,180.71Zm-5.5.08c0,1.41.69,2.47,1.81,2.47s1.79-1,1.79-2.5c0-1.14-.51-2.45-1.77-2.45S606.73,179.57,606.73,180.79Z"/><path class="cls-5" d="M613.75,179.3c0-.84,0-1.54-.06-2.17h1.62l.09,1.09h0a2.64,2.64,0,0,1,2.33-1.26c1.27,0,2.59.83,2.59,3.14v4.33h-1.84v-4.12c0-1.05-.39-1.85-1.4-1.85a1.57,1.57,0,0,0-1.44,1.08,1.9,1.9,0,0,0-.07.6v4.29h-1.86Z"/><path class="cls-5" d="M507.58,318.36a10,10,0,0,1-3.25.57,5.43,5.43,0,0,1-4-1.35,5,5,0,0,1-1.41-3.72c0-3.19,2.28-5.25,5.62-5.25a6.83,6.83,0,0,1,2.69.48l-.41,1.49a5.41,5.41,0,0,0-2.29-.44,3.39,3.39,0,0,0-3.68,3.63,3.34,3.34,0,0,0,3.51,3.66,3.56,3.56,0,0,0,1.4-.21V314.7H504v-1.45h3.57Z"/><path class="cls-5" d="M509.44,313.88c0-1,0-1.7-.06-2.36H511l.06,1.4h.06a2.17,2.17,0,0,1,2-1.56,2,2,0,0,1,.44,0v1.74a2.61,2.61,0,0,0-.54-.06,1.62,1.62,0,0,0-1.65,1.4,3.12,3.12,0,0,0-.06.57v3.78h-1.85Z"/><path class="cls-5" d="M518.76,318.83l-.12-.81h0a2.7,2.7,0,0,1-2.16,1,2.16,2.16,0,0,1-2.29-2.17c0-1.85,1.63-2.78,4.33-2.76v-.12c0-.48-.19-1.28-1.48-1.28a4,4,0,0,0-2,.54l-.36-1.2a5.28,5.28,0,0,1,2.64-.64c2.34,0,3,1.48,3,3.07v2.64a12.58,12.58,0,0,0,.1,1.76Zm-.24-3.57c-1.31,0-2.55.25-2.55,1.36a1,1,0,0,0,1,1.05,1.51,1.51,0,0,0,1.44-1,1.56,1.56,0,0,0,.06-.41Z"/><path class="cls-5" d="M529,308.18v8.59c0,.75,0,1.56.06,2.06h-1.65l-.07-1.16h0a2.64,2.64,0,0,1-2.39,1.32c-1.74,0-3.12-1.48-3.12-3.73,0-2.45,1.52-3.9,3.27-3.9a2.33,2.33,0,0,1,2.06,1h0v-4.14Zm-1.84,6.39a2.61,2.61,0,0,0,0-.48,1.62,1.62,0,0,0-1.59-1.31c-1.18,0-1.84,1.05-1.84,2.42s.66,2.31,1.83,2.31a1.63,1.63,0,0,0,1.59-1.31,2.23,2.23,0,0,0,.06-.54Z"/><path class="cls-5" d="M533,309.48a1,1,0,0,1-1.05,1,1,1,0,0,1-1-1,1,1,0,0,1,2.07,0Zm-2,9.35v-7.31h1.86v7.31Z"/><path class="cls-5" d="M534.82,313.7c0-.84,0-1.55-.06-2.18h1.62l.09,1.1h0a2.62,2.62,0,0,1,2.32-1.26c1.28,0,2.6.82,2.6,3.13v4.34h-1.85V314.7c0-1.05-.39-1.84-1.39-1.84a1.53,1.53,0,0,0-1.44,1.08,1.86,1.86,0,0,0-.08.6v4.29h-1.86Z"/><path class="cls-5" d="M550.08,311.52c0,.5-.06,1.1-.06,2.1v4.14a3.51,3.51,0,0,1-3.9,4.2,5.17,5.17,0,0,1-2.55-.58l.4-1.4a4.44,4.44,0,0,0,2.13.56,1.94,1.94,0,0,0,2.1-2.21v-.63h0a2.45,2.45,0,0,1-2.13,1.08c-1.81,0-3.1-1.5-3.1-3.57,0-2.4,1.56-3.85,3.31-3.85a2.31,2.31,0,0,1,2.12,1.14h0l.07-1Zm-1.91,2.93a1.63,1.63,0,0,0-.06-.5,1.53,1.53,0,0,0-1.5-1.18c-1,0-1.8.9-1.8,2.38,0,1.25.63,2.25,1.79,2.25a1.58,1.58,0,0,0,1.5-1.11,3.51,3.51,0,0,0,.07-.66Z"/><path class="cls-5" d="M402.09,411.93a17.46,17.46,0,0,1,2.79-.21,4.7,4.7,0,0,1,3.12.81,2.56,2.56,0,0,1,.87,2,2.71,2.71,0,0,1-1.83,2.54v0a2.59,2.59,0,0,1,1.41,1.95,19.67,19.67,0,0,0,.79,2.82h-1.9a14.5,14.5,0,0,1-.68-2.38c-.28-1.32-.76-1.74-1.81-1.77h-.93v4.15h-1.83Zm1.83,4.47H405c1.25,0,2-.66,2-1.67s-.78-1.62-2-1.62a5.63,5.63,0,0,0-1.14.09Z"/><path class="cls-5" d="M411.9,418.77a2,2,0,0,0,2.25,1.89,5.46,5.46,0,0,0,2-.33l.27,1.27a6.78,6.78,0,0,1-2.55.45,3.45,3.45,0,0,1-3.76-3.69c0-2,1.23-3.93,3.57-3.93s3.15,1.95,3.15,3.56a4.64,4.64,0,0,1-.06.78Zm3.21-1.29a1.58,1.58,0,0,0-1.52-1.79,1.8,1.8,0,0,0-1.69,1.79Z"/><path class="cls-5" d="M418.33,417c0-1,0-1.74-.06-2.43h1.62l.09,1.12h0a2.86,2.86,0,0,1,2.51-1.29c1.68,0,3.07,1.44,3.07,3.72,0,2.64-1.66,3.92-3.33,3.92a2.38,2.38,0,0,1-2.05-1h0v3.78h-1.85Zm1.85,1.81a1.7,1.7,0,0,0,.06.51,1.67,1.67,0,0,0,1.62,1.29c1.17,0,1.86-1,1.86-2.41s-.63-2.34-1.82-2.34a1.72,1.72,0,0,0-1.65,1.36,1.91,1.91,0,0,0-.07.47Z"/><path class="cls-5" d="M434.05,418.18a3.62,3.62,0,0,1-3.75,3.89,3.54,3.54,0,0,1-3.66-3.77,3.61,3.61,0,0,1,3.78-3.87A3.5,3.5,0,0,1,434.05,418.18Zm-5.5.08c0,1.41.69,2.47,1.81,2.47s1.79-1,1.79-2.5c0-1.14-.51-2.45-1.77-2.45S428.55,417,428.55,418.26Z"/><path class="cls-5" d="M435.57,417c0-1,0-1.69-.06-2.35h1.6l.06,1.39h.06a2.19,2.19,0,0,1,2-1.56,1.88,1.88,0,0,1,.43.05v1.74a2.53,2.53,0,0,0-.54-.06,1.63,1.63,0,0,0-1.65,1.39,3.22,3.22,0,0,0-.06.57v3.78h-1.84Z"/><path class="cls-5" d="M443.37,412.51v2.09h1.75V416h-1.75v3.22c0,.89.24,1.35.94,1.35a2.48,2.48,0,0,0,.72-.09l0,1.41a3.91,3.91,0,0,1-1.33.18,2.1,2.1,0,0,1-1.59-.6,2.91,2.91,0,0,1-.57-2V416h-1.05V414.6h1.05V413Z"/><path class="cls-5" d="M456.94,421.6a6.27,6.27,0,0,1-2.61.45,4.77,4.77,0,0,1-5.16-5.08,5.08,5.08,0,0,1,5.4-5.34,5.69,5.69,0,0,1,2.46.45l-.4,1.47a4.91,4.91,0,0,0-2-.39,3.36,3.36,0,0,0-3.54,3.72,3.31,3.31,0,0,0,3.52,3.64,5.26,5.26,0,0,0,2-.37Z"/><path class="cls-5" d="M462.42,421.9l-.12-.81h-.05a2.71,2.71,0,0,1-2.16,1,2.17,2.17,0,0,1-2.29-2.18c0-1.84,1.63-2.77,4.33-2.76V417c0-.48-.19-1.27-1.48-1.27a3.85,3.85,0,0,0-2,.54l-.36-1.2a5.27,5.27,0,0,1,2.64-.65c2.34,0,3,1.49,3,3.08v2.64a12.43,12.43,0,0,0,.1,1.75Zm-.24-3.57c-1.31,0-2.55.26-2.55,1.37a1,1,0,0,0,1.05,1.05,1.5,1.5,0,0,0,1.44-1,1.44,1.44,0,0,0,.06-.4Z"/><path class="cls-5" d="M465.93,417c0-1,0-1.69-.06-2.35h1.6l.06,1.39h.06a2.19,2.19,0,0,1,2-1.56,1.88,1.88,0,0,1,.43.05v1.74a2.53,2.53,0,0,0-.54-.06,1.63,1.63,0,0,0-1.65,1.39,3.22,3.22,0,0,0-.06.57v3.78h-1.84Z"/><path class="cls-5" d="M477.87,411.25v8.6c0,.75,0,1.56.06,2h-1.65l-.08-1.15h0a2.62,2.62,0,0,1-2.38,1.32c-1.74,0-3.12-1.49-3.12-3.74,0-2.44,1.51-3.9,3.27-3.9a2.32,2.32,0,0,1,2.05,1h0v-4.14ZM476,417.64a2.59,2.59,0,0,0,0-.48,1.62,1.62,0,0,0-1.59-1.3c-1.19,0-1.85,1.05-1.85,2.41s.66,2.31,1.83,2.31a1.63,1.63,0,0,0,1.59-1.3,1.9,1.9,0,0,0,.06-.54Z"/><path class="cls-5" d="M479.76,420.21a4.16,4.16,0,0,0,1.87.52c.81,0,1.17-.33,1.17-.81s-.3-.75-1.2-1.06c-1.42-.5-2-1.28-2-2.13,0-1.29,1.07-2.3,2.76-2.3a4.24,4.24,0,0,1,1.94.44l-.36,1.3a3.3,3.3,0,0,0-1.55-.42c-.66,0-1,.32-1,.77s.35.69,1.28,1c1.32.48,1.93,1.15,1.95,2.23,0,1.32-1,2.28-3,2.28a4.7,4.7,0,0,1-2.22-.51Z"/><path class="cls-5" d="M249.23,434.69v4.05h4.28v-4.05h1.84V444.8h-1.84v-4.46h-4.28v4.46h-1.84V434.69Z"/><path class="cls-5" d="M258.7,441.67c0,1.32,1.08,1.88,2.25,1.88a5.46,5.46,0,0,0,2-.33l.27,1.28a7,7,0,0,1-2.55.45,3.45,3.45,0,0,1-3.76-3.69c0-2,1.23-3.93,3.57-3.93s3.15,1.95,3.15,3.55a4.68,4.68,0,0,1-.06.79Zm3.21-1.29a1.58,1.58,0,0,0-1.52-1.79,1.8,1.8,0,0,0-1.69,1.79Z"/><path class="cls-5" d="M269.24,444.8l-.12-.81h0a2.72,2.72,0,0,1-2.16,1,2.17,2.17,0,0,1-2.3-2.17c0-1.84,1.64-2.78,4.34-2.76v-.12c0-.48-.2-1.28-1.49-1.28a3.89,3.89,0,0,0-2,.54l-.36-1.2a5.36,5.36,0,0,1,2.64-.64c2.34,0,3,1.49,3,3.08V443a11,11,0,0,0,.11,1.76Zm-.24-3.57c-1.3,0-2.55.26-2.55,1.36a1,1,0,0,0,1.05,1.05,1.47,1.47,0,0,0,1.44-1,1.21,1.21,0,0,0,.06-.4Z"/><path class="cls-5" d="M272.75,434.15h1.86V444.8h-1.86Z"/><path class="cls-5" d="M278.72,435.41v2.09h1.76v1.38h-1.76v3.22c0,.89.24,1.35.95,1.35a2.58,2.58,0,0,0,.72-.09l0,1.41a3.94,3.94,0,0,1-1.34.18,2.17,2.17,0,0,1-1.59-.6,2.91,2.91,0,0,1-.57-2v-3.43h-1.05V437.5h1.05v-1.66Z"/><path class="cls-5" d="M281.87,434.15h1.86v4.35h0a2.57,2.57,0,0,1,.92-.84,2.49,2.49,0,0,1,1.26-.33c1.24,0,2.55.83,2.55,3.17v4.3h-1.85v-4.09c0-1.07-.39-1.87-1.41-1.87a1.5,1.5,0,0,0-1.42,1,1.52,1.52,0,0,0-.08.55v4.37h-1.86Z"/><path class="cls-5" d="M102.09,373.71a6.44,6.44,0,0,1-2.61.45,4.77,4.77,0,0,1-5.16-5.09,5.08,5.08,0,0,1,5.4-5.34,5.85,5.85,0,0,1,2.46.45l-.4,1.47a4.91,4.91,0,0,0-2-.39A3.36,3.36,0,0,0,96.26,369a3.32,3.32,0,0,0,3.52,3.65,5.07,5.07,0,0,0,2-.38Z"/><path class="cls-5" d="M110.3,370.29a3.62,3.62,0,0,1-3.75,3.88,3.53,3.53,0,0,1-3.66-3.76,3.6,3.6,0,0,1,3.78-3.87A3.51,3.51,0,0,1,110.3,370.29Zm-5.51.07c0,1.41.69,2.48,1.82,2.48s1.78-1,1.78-2.51c0-1.14-.51-2.44-1.77-2.44S104.79,369.15,104.79,370.36Z"/><path class="cls-5" d="M118.35,371.82c0,.87,0,1.59.06,2.19h-1.62l-.09-1.11h0a2.64,2.64,0,0,1-2.34,1.27c-1.33,0-2.55-.79-2.55-3.18V366.7h1.85v4c0,1.21.39,2,1.36,2a1.54,1.54,0,0,0,1.41-1,1.65,1.65,0,0,0,.11-.57V366.7h1.84Z"/><path class="cls-5" d="M120.35,368.88c0-.84,0-1.55-.06-2.18h1.62l.09,1.1h0a2.64,2.64,0,0,1,2.33-1.26c1.27,0,2.59.82,2.59,3.13V374h-1.84v-4.13c0-1.05-.39-1.84-1.4-1.84a1.55,1.55,0,0,0-1.44,1.08,1.87,1.87,0,0,0-.07.6V374h-1.86Z"/><path class="cls-5" d="M128.84,372.31a4,4,0,0,0,1.87.53c.81,0,1.17-.33,1.17-.81s-.3-.75-1.2-1.07c-1.42-.49-2-1.27-2-2.13,0-1.29,1.07-2.29,2.76-2.29a4.39,4.39,0,0,1,1.94.43l-.36,1.31a3.3,3.3,0,0,0-1.55-.42c-.66,0-1,.31-1,.76s.35.69,1.28,1c1.32.48,1.93,1.16,1.95,2.24,0,1.32-1,2.28-3,2.28a4.7,4.7,0,0,1-2.22-.51Z"/><path class="cls-5" d="M136.49,370.87a2,2,0,0,0,2.25,1.89,5.46,5.46,0,0,0,2-.33l.27,1.28a7,7,0,0,1-2.55.45,3.45,3.45,0,0,1-3.76-3.69c0-2,1.23-3.93,3.57-3.93s3.15,1.95,3.15,3.55a4.45,4.45,0,0,1-.06.78Zm3.21-1.29a1.58,1.58,0,0,0-1.52-1.78,1.79,1.79,0,0,0-1.69,1.78Z"/><path class="cls-5" d="M142.92,363.36h1.86V374h-1.86Z"/><path class="cls-5" d="M148.74,364.66a1,1,0,0,1-2.07,0,1,1,0,0,1,2.07,0Zm-2,9.35V366.7h1.86V374Z"/><path class="cls-5" d="M150.62,368.88c0-.84,0-1.55-.06-2.18h1.62l.09,1.1h0a2.64,2.64,0,0,1,2.33-1.26c1.27,0,2.59.82,2.59,3.13V374h-1.84v-4.13c0-1.05-.39-1.84-1.4-1.84a1.55,1.55,0,0,0-1.44,1.08,1.87,1.87,0,0,0-.07.6V374h-1.86Z"/><path class="cls-5" d="M165.87,366.7c0,.5-.06,1.1-.06,2.1v4.14a3.51,3.51,0,0,1-3.9,4.2,5.17,5.17,0,0,1-2.55-.58l.41-1.4a4.37,4.37,0,0,0,2.13.56,1.94,1.94,0,0,0,2.1-2.21v-.63h0a2.45,2.45,0,0,1-2.13,1.08c-1.82,0-3.11-1.5-3.11-3.57,0-2.4,1.56-3.85,3.32-3.85a2.28,2.28,0,0,1,2.11,1.14h0l.08-1Zm-1.9,2.93a2,2,0,0,0-.06-.5,1.54,1.54,0,0,0-1.5-1.18c-1,0-1.8.9-1.8,2.38,0,1.25.63,2.25,1.78,2.25a1.58,1.58,0,0,0,1.5-1.11,2.84,2.84,0,0,0,.08-.66Z"/><path class="cls-5" d="M9.24,249.45a5.16,5.16,0,0,0,2.44.64c1.19,0,1.85-.55,1.85-1.38S13,247.5,11.73,247c-1.67-.6-2.73-1.48-2.73-2.94,0-1.65,1.38-2.91,3.57-2.91a5.37,5.37,0,0,1,2.43.51l-.45,1.49a4.24,4.24,0,0,0-2-.48c-1.17,0-1.68.63-1.68,1.21,0,.78.59,1.14,1.93,1.67,1.76.66,2.61,1.54,2.61,3,0,1.62-1.23,3-3.84,3A6,6,0,0,1,8.83,251Z"/><path class="cls-5" d="M19.05,242.07v2.08H20.8v1.38H19.05v3.23c0,.88.24,1.35.94,1.35a2.89,2.89,0,0,0,.72-.09l0,1.41a4.18,4.18,0,0,1-1.33.18,2.14,2.14,0,0,1-1.59-.6,2.91,2.91,0,0,1-.57-2v-3.44H16.2v-1.38h1.05V242.5Z"/><path class="cls-5" d="M26.31,251.46l-.12-.81h-.05a2.7,2.7,0,0,1-2.16,1,2.16,2.16,0,0,1-2.29-2.17c0-1.85,1.63-2.78,4.33-2.76v-.12c0-.48-.19-1.28-1.48-1.28a4,4,0,0,0-2,.54l-.36-1.2a5.28,5.28,0,0,1,2.64-.64c2.34,0,3,1.48,3,3.07v2.64a12.58,12.58,0,0,0,.1,1.76Zm-.24-3.57c-1.31,0-2.55.25-2.55,1.36a1,1,0,0,0,1.05,1.05,1.51,1.51,0,0,0,1.44-1,1.56,1.56,0,0,0,.06-.41Z"/><path class="cls-5" d="M31.84,242.07v2.08H33.6v1.38H31.84v3.23c0,.88.24,1.35.95,1.35a3,3,0,0,0,.72-.09l0,1.41a4.18,4.18,0,0,1-1.33.18,2.14,2.14,0,0,1-1.59-.6,2.86,2.86,0,0,1-.58-2v-3.44H29v-1.38H30V242.5Z"/><path class="cls-5" d="M36.21,248.32a2,2,0,0,0,2.25,1.89,5.46,5.46,0,0,0,2-.33l.27,1.28a6.92,6.92,0,0,1-2.54.45,3.46,3.46,0,0,1-3.77-3.69c0-2,1.23-3.93,3.57-3.93s3.15,1.95,3.15,3.55a4.45,4.45,0,0,1-.06.78ZM39.42,247a1.58,1.58,0,0,0-1.52-1.78A1.8,1.8,0,0,0,36.21,247Z"/><path class="cls-5" d="M45.82,241.48a17.56,17.56,0,0,1,2.79-.21,4.67,4.67,0,0,1,3.12.81,2.55,2.55,0,0,1,.87,2,2.68,2.68,0,0,1-1.83,2.53v.05a2.55,2.55,0,0,1,1.41,1.95,20.72,20.72,0,0,0,.8,2.82H51.07a14.07,14.07,0,0,1-.67-2.39c-.29-1.32-.77-1.74-1.82-1.77h-.93v4.16H45.82ZM47.65,246h1.1c1.24,0,2-.66,2-1.66s-.78-1.62-2-1.62a5,5,0,0,0-1.14.09Z"/><path class="cls-5" d="M55.63,248.32a2,2,0,0,0,2.25,1.89,5.52,5.52,0,0,0,2-.33l.27,1.28a7,7,0,0,1-2.55.45,3.46,3.46,0,0,1-3.77-3.69c0-2,1.23-3.93,3.57-3.93s3.15,1.95,3.15,3.55a4.45,4.45,0,0,1-.06.78ZM58.84,247a1.56,1.56,0,0,0-1.51-1.78,1.81,1.81,0,0,0-1.7,1.78Z"/><path class="cls-5" d="M62.07,246.58c0-1,0-1.74-.06-2.43h1.62l.09,1.13h0a2.83,2.83,0,0,1,2.5-1.29c1.68,0,3.08,1.44,3.08,3.72,0,2.64-1.67,3.91-3.33,3.91a2.42,2.42,0,0,1-2.06-1h0v3.78H62.07Zm1.84,1.82a2.16,2.16,0,0,0,.06.51,1.67,1.67,0,0,0,1.62,1.29c1.17,0,1.86-1,1.86-2.42,0-1.29-.63-2.34-1.81-2.34A1.72,1.72,0,0,0,64,246.81a1.48,1.48,0,0,0-.08.46Z"/><path class="cls-5" d="M77.79,247.74A3.62,3.62,0,0,1,74,251.62a3.53,3.53,0,0,1-3.66-3.76A3.6,3.6,0,0,1,74.16,244,3.51,3.51,0,0,1,77.79,247.74Zm-5.51.07c0,1.41.69,2.48,1.82,2.48s1.78-1,1.78-2.51c0-1.14-.51-2.44-1.77-2.44S72.28,246.6,72.28,247.81Z"/><path class="cls-5" d="M79.3,246.51c0-1,0-1.7-.06-2.36h1.61l.06,1.4H81A2.17,2.17,0,0,1,83,244a2,2,0,0,1,.44,0v1.74a2.61,2.61,0,0,0-.54-.06,1.62,1.62,0,0,0-1.65,1.4,3.12,3.12,0,0,0-.06.57v3.78H79.3Z"/><path class="cls-5" d="M87.1,242.07v2.08h1.76v1.38H87.1v3.23c0,.88.24,1.35,1,1.35a3,3,0,0,0,.72-.09l0,1.41a4.21,4.21,0,0,1-1.34.18,2.17,2.17,0,0,1-1.59-.6,2.91,2.91,0,0,1-.57-2v-3.44h-1v-1.38h1V242.5Z"/><path class="cls-5" d="M92.22,242.11a1,1,0,0,1-1,1,1,1,0,0,1-1-1,1,1,0,0,1,2.07,0Zm-2,9.35v-7.31h1.86v7.31Z"/><path class="cls-5" d="M94.09,246.33c0-.84,0-1.55-.06-2.18h1.62l.09,1.1h.05A2.62,2.62,0,0,1,98.11,244c1.28,0,2.6.82,2.6,3.13v4.34H98.86v-4.13c0-1.05-.39-1.84-1.39-1.84A1.53,1.53,0,0,0,96,246.57a1.86,1.86,0,0,0-.08.6v4.29H94.09Z"/><path class="cls-5" d="M109.35,244.15c0,.5-.06,1.1-.06,2.1v4.14a3.51,3.51,0,0,1-3.9,4.2,5.17,5.17,0,0,1-2.55-.58l.4-1.4a4.44,4.44,0,0,0,2.13.56,1.94,1.94,0,0,0,2.1-2.21v-.63h0a2.45,2.45,0,0,1-2.13,1.08c-1.81,0-3.1-1.5-3.1-3.57,0-2.4,1.56-3.85,3.31-3.85a2.31,2.31,0,0,1,2.12,1.14h0l.07-1Zm-1.91,2.93a1.63,1.63,0,0,0-.06-.5,1.53,1.53,0,0,0-1.5-1.18c-1,0-1.8.9-1.8,2.38,0,1.25.63,2.25,1.79,2.25a1.58,1.58,0,0,0,1.5-1.11,3.51,3.51,0,0,0,.07-.66Z"/><path class="cls-5" d="M509.22,242.09h1.84v8.57h4.16v1.54h-6Z"/><path class="cls-5" d="M520.65,252.2l-.12-.81h0a2.71,2.71,0,0,1-2.16,1,2.17,2.17,0,0,1-2.29-2.18c0-1.85,1.63-2.77,4.33-2.76v-.12c0-.48-.19-1.27-1.48-1.27a3.85,3.85,0,0,0-2,.54l-.36-1.2a5.17,5.17,0,0,1,2.64-.65c2.34,0,3,1.48,3,3.07v2.65a12.43,12.43,0,0,0,.1,1.75Zm-.24-3.57c-1.31,0-2.55.25-2.55,1.37a1,1,0,0,0,1,1,1.41,1.41,0,0,0,1.5-1.41Z"/><path class="cls-5" d="M524.16,247.07c0-.84,0-1.54-.06-2.17h1.62l.09,1.09h0a2.64,2.64,0,0,1,2.33-1.26c1.27,0,2.59.83,2.59,3.14v4.33h-1.84v-4.12c0-1.05-.39-1.85-1.4-1.85a1.55,1.55,0,0,0-1.44,1.08,1.9,1.9,0,0,0-.07.6v4.29h-1.86Z"/><path class="cls-5" d="M539.41,244.9c0,.49-.06,1.09-.06,2.1v4.13a4.21,4.21,0,0,1-1.08,3.32,4.16,4.16,0,0,1-2.82.88,5.17,5.17,0,0,1-2.55-.58l.41-1.4a4.27,4.27,0,0,0,2.13.56,1.94,1.94,0,0,0,2.1-2.2v-.63h0a2.48,2.48,0,0,1-2.13,1.08c-1.82,0-3.11-1.5-3.11-3.58,0-2.39,1.56-3.85,3.32-3.85a2.28,2.28,0,0,1,2.11,1.14h0l.08-1Zm-1.9,2.92a2,2,0,0,0-.06-.49,1.54,1.54,0,0,0-1.5-1.19c-1,0-1.8.9-1.8,2.39,0,1.24.63,2.25,1.78,2.25a1.58,1.58,0,0,0,1.5-1.11,3,3,0,0,0,.08-.67Z"/><path class="cls-5" d="M547.87,250c0,.87,0,1.59.06,2.19h-1.62l-.09-1.11h0a2.62,2.62,0,0,1-2.34,1.28c-1.33,0-2.55-.8-2.55-3.18V244.9h1.85v4c0,1.21.39,2,1.36,2a1.55,1.55,0,0,0,1.41-1,1.76,1.76,0,0,0,.11-.58v-4.4h1.84Z"/><path class="cls-5" d="M554,252.2l-.12-.81h-.05a2.71,2.71,0,0,1-2.16,1,2.17,2.17,0,0,1-2.29-2.18c0-1.85,1.63-2.77,4.33-2.76v-.12c0-.48-.19-1.27-1.48-1.27a3.85,3.85,0,0,0-2,.54l-.36-1.2a5.17,5.17,0,0,1,2.64-.65c2.34,0,3,1.48,3,3.07v2.65a12.43,12.43,0,0,0,.1,1.75Zm-.24-3.57c-1.31,0-2.55.25-2.55,1.37a1,1,0,0,0,1,1,1.41,1.41,0,0,0,1.5-1.41Z"/><path class="cls-5" d="M564.16,244.9c0,.49-.06,1.09-.06,2.1v4.13a4.21,4.21,0,0,1-1.08,3.32,4.16,4.16,0,0,1-2.82.88,5.17,5.17,0,0,1-2.55-.58l.41-1.4a4.27,4.27,0,0,0,2.13.56,1.94,1.94,0,0,0,2.1-2.2v-.63h0a2.48,2.48,0,0,1-2.13,1.08c-1.82,0-3.11-1.5-3.11-3.58,0-2.39,1.56-3.85,3.32-3.85a2.28,2.28,0,0,1,2.11,1.14h0l.08-1Zm-1.9,2.92a2,2,0,0,0-.06-.49,1.54,1.54,0,0,0-1.5-1.19c-1,0-1.8.9-1.8,2.39,0,1.24.63,2.25,1.78,2.25a1.58,1.58,0,0,0,1.5-1.11,3,3,0,0,0,.08-.67Z"/><path class="cls-5" d="M567.39,249.07a2,2,0,0,0,2.25,1.89,5.68,5.68,0,0,0,2-.33l.27,1.27a6.78,6.78,0,0,1-2.55.45,3.45,3.45,0,0,1-3.76-3.69c0-2,1.23-3.93,3.57-3.93s3.15,2,3.15,3.56a4.64,4.64,0,0,1-.06.78Zm3.21-1.29a1.58,1.58,0,0,0-1.52-1.79,1.8,1.8,0,0,0-1.69,1.79Z"/><path class="cls-5" d="M577,250.19a5,5,0,0,0,2.44.64c1.19,0,1.85-.55,1.85-1.37s-.51-1.22-1.8-1.68c-1.67-.61-2.73-1.49-2.73-2.95,0-1.64,1.38-2.9,3.57-2.9a5.37,5.37,0,0,1,2.43.51l-.45,1.48a4.36,4.36,0,0,0-2-.48c-1.17,0-1.68.63-1.68,1.22,0,.78.58,1.13,1.93,1.66,1.76.66,2.61,1.55,2.61,3,0,1.62-1.23,3-3.84,3a6,6,0,0,1-2.73-.63Z"/><path class="cls-5" d="M591.25,250c0,.87,0,1.59.06,2.19h-1.62l-.09-1.11h0a2.62,2.62,0,0,1-2.34,1.28c-1.33,0-2.55-.8-2.55-3.18V244.9h1.85v4c0,1.21.39,2,1.36,2a1.55,1.55,0,0,0,1.41-1,1.76,1.76,0,0,0,.11-.58v-4.4h1.84Z"/><path class="cls-5" d="M593.25,247.33c0-1,0-1.75-.06-2.43h1.62l.09,1.12h0a2.85,2.85,0,0,1,2.5-1.29c1.68,0,3.08,1.44,3.08,3.72,0,2.64-1.67,3.92-3.33,3.92a2.42,2.42,0,0,1-2.06-1h0v3.78h-1.84Zm1.84,1.81a2.1,2.1,0,0,0,.06.51,1.67,1.67,0,0,0,1.62,1.29c1.17,0,1.86-1,1.86-2.41s-.63-2.34-1.81-2.34a1.71,1.71,0,0,0-1.65,1.36,1.54,1.54,0,0,0-.08.46Z"/><path class="cls-5" d="M602,247.33c0-1,0-1.75-.06-2.43h1.62l.09,1.12h0a2.86,2.86,0,0,1,2.51-1.29c1.68,0,3.07,1.44,3.07,3.72,0,2.64-1.66,3.92-3.33,3.92a2.41,2.41,0,0,1-2.05-1h0v3.78H602Zm1.85,1.81a1.7,1.7,0,0,0,.06.51,1.67,1.67,0,0,0,1.62,1.29c1.17,0,1.86-1,1.86-2.41s-.63-2.34-1.82-2.34a1.72,1.72,0,0,0-1.65,1.36,1.9,1.9,0,0,0-.07.46Z"/><path class="cls-5" d="M617.74,248.48a3.62,3.62,0,0,1-3.75,3.89,3.54,3.54,0,0,1-3.66-3.77,3.61,3.61,0,0,1,3.78-3.87A3.5,3.5,0,0,1,617.74,248.48Zm-5.5.07c0,1.41.69,2.48,1.81,2.48s1.79-1,1.79-2.5c0-1.15-.51-2.45-1.77-2.45S612.24,247.34,612.24,248.55Z"/><path class="cls-5" d="M619.26,247.25c0-1,0-1.69-.06-2.35h1.6l.06,1.39h.06a2.18,2.18,0,0,1,2-1.56,1.88,1.88,0,0,1,.43.05v1.74a2.53,2.53,0,0,0-.54-.06,1.63,1.63,0,0,0-1.65,1.39,3.12,3.12,0,0,0-.06.57v3.78h-1.84Z"/><path class="cls-5" d="M627.06,242.81v2.09h1.75v1.38h-1.75v3.22c0,.88.24,1.35.94,1.35a2.89,2.89,0,0,0,.72-.09l0,1.41a3.91,3.91,0,0,1-1.33.18,2.1,2.1,0,0,1-1.59-.6,2.91,2.91,0,0,1-.57-2v-3.43h-1V244.9h1v-1.65Z"/><path class="cls-5" d="M470.81,377.21a10.08,10.08,0,0,1-3.26.57,5.47,5.47,0,0,1-4-1.35,5,5,0,0,1-1.41-3.72c0-3.2,2.28-5.25,5.63-5.25a6.59,6.59,0,0,1,2.68.48l-.4,1.48a5.65,5.65,0,0,0-2.3-.43,3.38,3.38,0,0,0-3.67,3.63,3.34,3.34,0,0,0,3.51,3.66,3.51,3.51,0,0,0,1.39-.21v-2.52h-1.78v-1.46h3.57Z"/><path class="cls-5" d="M472.67,372.72c0-1,0-1.69-.06-2.35h1.6l.06,1.39h.06a2.18,2.18,0,0,1,2-1.55,1.91,1.91,0,0,1,.43,0V372a2.53,2.53,0,0,0-.54-.06,1.63,1.63,0,0,0-1.65,1.4,3,3,0,0,0-.06.56v3.78h-1.84Z"/><path class="cls-5" d="M482,377.67l-.12-.8h0a2.75,2.75,0,0,1-2.16,1,2.17,2.17,0,0,1-2.3-2.17c0-1.85,1.64-2.78,4.34-2.76v-.12c0-.49-.2-1.28-1.49-1.28a3.89,3.89,0,0,0-2,.54l-.36-1.2a5.25,5.25,0,0,1,2.64-.64c2.34,0,3,1.48,3,3.07v2.64a11,11,0,0,0,.11,1.75Zm-.24-3.57c-1.3,0-2.55.26-2.55,1.37a1,1,0,0,0,1.05,1,1.48,1.48,0,0,0,1.44-1,1.14,1.14,0,0,0,.06-.4Z"/><path class="cls-5" d="M492.23,367v8.59c0,.75,0,1.56.06,2.05h-1.65l-.08-1.15h0a2.62,2.62,0,0,1-2.38,1.32c-1.74,0-3.12-1.49-3.12-3.74,0-2.44,1.51-3.89,3.27-3.89a2.32,2.32,0,0,1,2.05,1h0V367Zm-1.85,6.39a2.63,2.63,0,0,0,0-.49,1.62,1.62,0,0,0-1.59-1.3c-1.19,0-1.85,1.05-1.85,2.41s.66,2.31,1.83,2.31a1.63,1.63,0,0,0,1.59-1.3,1.86,1.86,0,0,0,.06-.54Z"/><path class="cls-5" d="M495.51,374.54a2,2,0,0,0,2.25,1.89,5.52,5.52,0,0,0,2-.33l.27,1.28a7,7,0,0,1-2.55.45,3.46,3.46,0,0,1-3.77-3.7c0-2,1.23-3.92,3.57-3.92s3.15,2,3.15,3.55a4.54,4.54,0,0,1-.06.78Zm3.21-1.29a1.57,1.57,0,0,0-1.51-1.79,1.82,1.82,0,0,0-1.7,1.79Z"/><path class="cls-5" d="M501.86,376a4,4,0,0,0,1.87.52c.81,0,1.17-.33,1.17-.8s-.3-.75-1.2-1.07c-1.42-.5-2-1.28-2-2.13,0-1.29,1.07-2.29,2.76-2.29a4.39,4.39,0,0,1,1.94.43L506,372a3.19,3.19,0,0,0-1.55-.42c-.66,0-1,.31-1,.76s.35.69,1.28,1c1.32.48,1.93,1.15,1.95,2.23,0,1.33-1,2.29-3,2.29a4.58,4.58,0,0,1-2.22-.52Z"/><path class="cls-5" d="M517.77,377.67c-.25-.25-.49-.5-.79-.84a4.25,4.25,0,0,1-2.85,1c-2.24,0-3.35-1.39-3.35-2.85a3.26,3.26,0,0,1,2-2.92V372a3.27,3.27,0,0,1-.81-2,2.64,2.64,0,0,1,2.84-2.6,2.29,2.29,0,0,1,2.5,2.27c0,1-.6,1.9-2.08,2.63l0,.07c.71.8,1.49,1.71,2,2.3a7.21,7.21,0,0,0,.92-2.68h1.65a7.58,7.58,0,0,1-1.58,3.8c.56.61,1.11,1.22,1.74,1.88Zm-1.68-1.87c-.61-.64-1.57-1.71-2.52-2.8a2.05,2.05,0,0,0-1,1.69,1.74,1.74,0,0,0,1.86,1.78A2.32,2.32,0,0,0,516.09,375.8Zm-2.5-6a2.39,2.39,0,0,0,.73,1.61c.86-.53,1.35-1,1.35-1.7a1,1,0,0,0-1-1.15A1.13,1.13,0,0,0,513.59,369.82Z"/><path class="cls-5" d="M525.5,369.11h-2.88v-1.54h7.63v1.54h-2.91v8.56H525.5Z"/><path class="cls-5" d="M530.61,372.72c0-1,0-1.69-.06-2.35h1.61l.06,1.39h.06a2.17,2.17,0,0,1,2-1.55,2,2,0,0,1,.44,0V372a2.61,2.61,0,0,0-.54-.06,1.62,1.62,0,0,0-1.65,1.4,3,3,0,0,0-.06.56v3.78h-1.85Z"/><path class="cls-5" d="M539.93,377.67l-.12-.8h0a2.73,2.73,0,0,1-2.16,1,2.17,2.17,0,0,1-2.29-2.17c0-1.85,1.63-2.78,4.33-2.76v-.12c0-.49-.19-1.28-1.48-1.28a4,4,0,0,0-2,.54l-.36-1.2a5.28,5.28,0,0,1,2.64-.64c2.34,0,3,1.48,3,3.07v2.64a12.43,12.43,0,0,0,.1,1.75Zm-.24-3.57c-1.31,0-2.55.26-2.55,1.37a1,1,0,0,0,1.05,1,1.5,1.5,0,0,0,1.44-1,1.44,1.44,0,0,0,.06-.4Z"/><path class="cls-5" d="M543.44,372.54c0-.83,0-1.54-.06-2.17H545l.09,1.09h0a2.66,2.66,0,0,1,2.33-1.25c1.27,0,2.59.82,2.59,3.13v4.33h-1.84v-4.12c0-1.05-.39-1.84-1.4-1.84a1.55,1.55,0,0,0-1.44,1.08,1.8,1.8,0,0,0-.07.59v4.29h-1.86Z"/><path class="cls-5" d="M551.93,376a4,4,0,0,0,1.87.52c.81,0,1.17-.33,1.17-.8s-.3-.75-1.2-1.07c-1.42-.5-2-1.28-2-2.13,0-1.29,1.07-2.29,2.76-2.29a4.39,4.39,0,0,1,1.94.43L556.1,372a3.19,3.19,0,0,0-1.55-.42c-.66,0-1,.31-1,.76s.35.69,1.28,1c1.32.48,1.93,1.15,2,2.23,0,1.33-1,2.29-3,2.29a4.58,4.58,0,0,1-2.22-.52Z"/><path class="cls-5" d="M563.64,377.45a5.3,5.3,0,0,1-2.07.38,3.51,3.51,0,0,1-3.76-3.73,3.77,3.77,0,0,1,4.06-3.89,4.71,4.71,0,0,1,1.79.34l-.33,1.38a3.21,3.21,0,0,0-1.4-.28,2.36,2.36,0,0,0,0,4.72,3.45,3.45,0,0,0,1.46-.29Z"/><path class="cls-5" d="M565,372.72c0-1,0-1.69-.06-2.35h1.6l.06,1.39h.06a2.18,2.18,0,0,1,2-1.55,1.91,1.91,0,0,1,.43,0V372a2.53,2.53,0,0,0-.54-.06,1.63,1.63,0,0,0-1.65,1.4,3,3,0,0,0-.06.56v3.78H565Z"/><path class="cls-5" d="M572.31,368.33a1,1,0,1,1-1-1A1,1,0,0,1,572.31,368.33Zm-2,9.34v-7.3h1.86v7.3Z"/><path class="cls-5" d="M574.19,372.8c0-1,0-1.74-.06-2.43h1.62l.09,1.13h0a2.83,2.83,0,0,1,2.5-1.29c1.68,0,3.08,1.44,3.08,3.71,0,2.64-1.67,3.92-3.33,3.92a2.42,2.42,0,0,1-2.06-1h0v3.77h-1.84Zm1.84,1.82a2.22,2.22,0,0,0,.06.51,1.67,1.67,0,0,0,1.62,1.29c1.17,0,1.86-1,1.86-2.42s-.63-2.34-1.81-2.34a1.71,1.71,0,0,0-1.65,1.37,1.44,1.44,0,0,0-.08.46Z"/><path class="cls-5" d="M585.08,368.29v2.08h1.75v1.38h-1.75V375c0,.89.24,1.36.94,1.36a2.89,2.89,0,0,0,.72-.09l0,1.4a3.87,3.87,0,0,1-1.33.19,2.11,2.11,0,0,1-1.59-.61,2.91,2.91,0,0,1-.57-2v-3.43h-1v-1.38h1v-1.65Z"/><path class="cls-5" d="M588.14,376a4,4,0,0,0,1.87.52c.81,0,1.17-.33,1.17-.8s-.3-.75-1.2-1.07c-1.42-.5-2-1.28-2-2.13,0-1.29,1.07-2.29,2.76-2.29a4.39,4.39,0,0,1,1.94.43l-.36,1.31a3.19,3.19,0,0,0-1.55-.42c-.66,0-1,.31-1,.76s.35.69,1.28,1c1.32.48,1.93,1.15,2,2.23,0,1.33-1,2.29-3,2.29a4.58,4.58,0,0,1-2.22-.52Z"/><path class="cls-5" d="M328.41,433.83a15.36,15.36,0,0,1,2.68-.21,4.8,4.8,0,0,1,2.9.64,2.12,2.12,0,0,1,1.05,1.89,2.36,2.36,0,0,1-1.68,2.19v0a2.56,2.56,0,0,1,2,2.51,2.62,2.62,0,0,1-1,2.08c-.72.63-1.9,1-3.75,1a17.49,17.49,0,0,1-2.26-.14Zm1.83,4h.94c1.28,0,2-.61,2-1.46s-.72-1.38-1.89-1.38a5.5,5.5,0,0,0-1.05.07Zm0,4.64a6.28,6.28,0,0,0,1,.05c1.19,0,2.24-.45,2.24-1.7s-1-1.64-2.3-1.64h-.91Z"/><path class="cls-5" d="M338.35,440.67a2,2,0,0,0,2.25,1.88,5.52,5.52,0,0,0,2-.33l.27,1.28a7,7,0,0,1-2.55.45,3.46,3.46,0,0,1-3.77-3.69c0-2,1.23-3.93,3.57-3.93s3.15,1.95,3.15,3.55a4.68,4.68,0,0,1-.06.79Zm3.21-1.29a1.57,1.57,0,0,0-1.51-1.79,1.82,1.82,0,0,0-1.7,1.79Z"/><path class="cls-5" d="M344.79,433.15h1.86v4.35h0a2.46,2.46,0,0,1,.91-.84,2.52,2.52,0,0,1,1.26-.33c1.25,0,2.55.83,2.55,3.17v4.3h-1.84v-4.09c0-1.07-.39-1.87-1.41-1.87a1.5,1.5,0,0,0-1.5,1.59v4.37h-1.86Z"/><path class="cls-5" d="M357.48,443.8l-.12-.81h-.05a2.7,2.7,0,0,1-2.16,1,2.16,2.16,0,0,1-2.29-2.17c0-1.84,1.63-2.78,4.33-2.76v-.12c0-.48-.19-1.28-1.48-1.28a4,4,0,0,0-2,.54l-.36-1.2a5.39,5.39,0,0,1,2.64-.64c2.34,0,3,1.49,3,3.08V442a12.49,12.49,0,0,0,.1,1.76Zm-.24-3.57c-1.31,0-2.55.26-2.55,1.36a1,1,0,0,0,1.05,1.05,1.49,1.49,0,0,0,1.44-1,1.55,1.55,0,0,0,.06-.4Z"/><path class="cls-5" d="M362,436.5l1.18,3.7c.21.64.36,1.23.5,1.83h0c.14-.6.3-1.17.5-1.83l1.15-3.7h1.95l-2.79,7.3h-1.81L360,436.5Z"/><path class="cls-5" d="M370.42,434.46a1,1,0,1,1-1-1A1,1,0,0,1,370.42,434.46Zm-2,9.34v-7.3h1.86v7.3Z"/><path class="cls-5" d="M379.24,440.08a3.62,3.62,0,0,1-3.75,3.88,3.53,3.53,0,0,1-3.66-3.76,3.61,3.61,0,0,1,3.78-3.87A3.5,3.5,0,0,1,379.24,440.08Zm-5.5.08c0,1.4.69,2.47,1.81,2.47s1.78-1,1.78-2.5c0-1.14-.5-2.45-1.76-2.45S373.74,438.94,373.74,440.16Z"/><path class="cls-5" d="M380.76,438.85c0-1,0-1.69-.06-2.35h1.6l.06,1.39h.06a2.19,2.19,0,0,1,2-1.56,1.45,1.45,0,0,1,.43.05v1.74a2,2,0,0,0-.54-.07,1.64,1.64,0,0,0-1.65,1.4,3.22,3.22,0,0,0-.06.57v3.78h-1.84Z"/><path class="cls-5" d="M140.72,409.79V419.9h-1.84V409.79Z"/><path class="cls-5" d="M142.85,414.77c0-.84,0-1.54-.06-2.17h1.62l.09,1.09h.05a2.62,2.62,0,0,1,2.32-1.26c1.28,0,2.6.83,2.6,3.14v4.33h-1.85v-4.12c0-1-.39-1.85-1.39-1.85a1.54,1.54,0,0,0-1.44,1.08,1.9,1.9,0,0,0-.08.6v4.29h-1.86Z"/><path class="cls-5" d="M153.47,410.51v2.09h1.76V414h-1.76v3.22c0,.89.24,1.35.95,1.35a2.58,2.58,0,0,0,.72-.09l0,1.41a3.94,3.94,0,0,1-1.34.18,2.13,2.13,0,0,1-1.59-.6,2.91,2.91,0,0,1-.57-2V414h-1V412.6h1V411Z"/><path class="cls-5" d="M157.84,416.77a2,2,0,0,0,2.25,1.89,5.46,5.46,0,0,0,2-.33l.27,1.27a6.78,6.78,0,0,1-2.55.45,3.45,3.45,0,0,1-3.76-3.69c0-2,1.23-3.93,3.57-3.93s3.15,1.95,3.15,3.56a4.64,4.64,0,0,1-.06.78Zm3.21-1.29a1.58,1.58,0,0,0-1.52-1.79,1.8,1.8,0,0,0-1.69,1.79Z"/><path class="cls-5" d="M164.27,415c0-1,0-1.69-.06-2.35h1.61l.06,1.39h.06a2.18,2.18,0,0,1,2-1.56,2,2,0,0,1,.44.05v1.74a2.61,2.61,0,0,0-.54-.06,1.62,1.62,0,0,0-1.65,1.39,3.22,3.22,0,0,0-.06.57v3.78h-1.85Z"/><path class="cls-5" d="M171.11,412.6l1.18,3.7a16.29,16.29,0,0,1,.5,1.83h.05c.13-.6.3-1.17.49-1.83l1.16-3.7h1.95l-2.79,7.3h-1.82l-2.71-7.3Z"/><path class="cls-5" d="M178.67,416.77a2,2,0,0,0,2.25,1.89,5.52,5.52,0,0,0,2-.33l.27,1.27a6.78,6.78,0,0,1-2.55.45,3.46,3.46,0,0,1-3.77-3.69c0-2,1.23-3.93,3.57-3.93s3.15,1.95,3.15,3.56a4.64,4.64,0,0,1-.06.78Zm3.21-1.29a1.57,1.57,0,0,0-1.51-1.79,1.82,1.82,0,0,0-1.7,1.79Z"/><path class="cls-5" d="M185.11,414.77c0-.84,0-1.54-.06-2.17h1.62l.09,1.09h0a2.64,2.64,0,0,1,2.33-1.26c1.27,0,2.59.83,2.59,3.14v4.33h-1.84v-4.12c0-1-.39-1.85-1.4-1.85A1.57,1.57,0,0,0,187,415a1.9,1.9,0,0,0-.07.6v4.29h-1.86Z"/><path class="cls-5" d="M195.73,410.51v2.09h1.75V414h-1.75v3.22c0,.89.24,1.35.94,1.35a2.48,2.48,0,0,0,.72-.09l0,1.41a3.91,3.91,0,0,1-1.33.18,2.1,2.1,0,0,1-1.59-.6,2.91,2.91,0,0,1-.57-2V414h-1.05V412.6h1.05V411Z"/><path class="cls-5" d="M200.84,410.56a1,1,0,0,1-2.07,0,1,1,0,0,1,2.07,0Zm-2,9.34v-7.3h1.86v7.3Z"/><path class="cls-5" d="M209.66,416.18a3.62,3.62,0,0,1-3.75,3.89,3.54,3.54,0,0,1-3.66-3.77,3.61,3.61,0,0,1,3.78-3.87A3.5,3.5,0,0,1,209.66,416.18Zm-5.5.08c0,1.41.69,2.47,1.81,2.47s1.79-1,1.79-2.5c0-1.14-.51-2.45-1.77-2.45S204.16,415,204.16,416.26Z"/><path class="cls-5" d="M211.18,414.77c0-.84,0-1.54-.06-2.17h1.62l.09,1.09h0a2.64,2.64,0,0,1,2.33-1.26c1.27,0,2.59.83,2.59,3.14v4.33H216v-4.12c0-1-.4-1.85-1.4-1.85a1.57,1.57,0,0,0-1.44,1.08,1.9,1.9,0,0,0-.07.6v4.29h-1.86Z"/><path class="cls-5" d="M219.67,418.21a4.16,4.16,0,0,0,1.87.52c.81,0,1.17-.33,1.17-.81s-.3-.75-1.2-1.06c-1.42-.5-2-1.28-2-2.13,0-1.29,1.07-2.3,2.76-2.3a4.24,4.24,0,0,1,1.94.44l-.36,1.3a3.3,3.3,0,0,0-1.55-.42c-.66,0-1,.32-1,.77s.35.69,1.27,1c1.33.48,1.94,1.15,2,2.23,0,1.32-1,2.28-3,2.28a4.7,4.7,0,0,1-2.22-.51Z"/><path class="cls-5" d="M10.89,306.94h1.85v8.57h4.15v1.54h-6Z"/><path class="cls-5" d="M25,313.33a3.62,3.62,0,0,1-3.75,3.89,3.54,3.54,0,0,1-3.66-3.77,3.61,3.61,0,0,1,3.78-3.87A3.5,3.5,0,0,1,25,313.33Zm-5.5.08c0,1.41.69,2.47,1.81,2.47s1.79-1,1.79-2.5c0-1.14-.51-2.45-1.77-2.45S19.49,312.19,19.49,313.41Z"/><path class="cls-5" d="M26.51,311.92c0-.84,0-1.54-.06-2.17h1.62l.09,1.09h0a2.64,2.64,0,0,1,2.33-1.26c1.27,0,2.59.83,2.59,3.14v4.33H31.28v-4.12c0-1.05-.39-1.85-1.4-1.85a1.57,1.57,0,0,0-1.44,1.08,1.9,1.9,0,0,0-.07.6v4.29H26.51Z"/><path class="cls-5" d="M41.76,309.75c0,.49-.06,1.09-.06,2.1V316a4.2,4.2,0,0,1-1.08,3.31,4.16,4.16,0,0,1-2.82.89,5.17,5.17,0,0,1-2.55-.59l.41-1.39a4.38,4.38,0,0,0,2.13.55,1.94,1.94,0,0,0,2.1-2.2v-.63h0A2.48,2.48,0,0,1,37.73,317c-1.82,0-3.11-1.5-3.11-3.57,0-2.4,1.56-3.86,3.32-3.86a2.28,2.28,0,0,1,2.11,1.14h0l.08-1Zm-1.9,2.92a2,2,0,0,0-.06-.49A1.54,1.54,0,0,0,38.3,311c-1,0-1.8.9-1.8,2.39,0,1.24.63,2.25,1.78,2.25a1.58,1.58,0,0,0,1.5-1.11,2.91,2.91,0,0,0,.08-.66Z"/><path class="cls-5" d="M45.59,307.71a1,1,0,0,1-1.05,1,1,1,0,0,1-1-1,1,1,0,0,1,2.07,0Zm-2,9.34v-7.3h1.86v7.3Z"/><path class="cls-5" d="M49.58,307.66v2.09h1.75v1.38H49.58v3.22c0,.89.24,1.35.94,1.35a2.48,2.48,0,0,0,.72-.09l0,1.41a3.91,3.91,0,0,1-1.33.18,2.1,2.1,0,0,1-1.59-.6,2.91,2.91,0,0,1-.57-2v-3.43H46.73v-1.38h1.05V308.1Z"/><path class="cls-5" d="M59.27,314.86c0,.87,0,1.59.06,2.19H57.71l-.09-1.11h0a2.65,2.65,0,0,1-2.34,1.28c-1.34,0-2.55-.8-2.55-3.18v-4.29h1.84v4c0,1.22.39,2,1.37,2a1.57,1.57,0,0,0,1.41-1,1.7,1.7,0,0,0,.1-.57v-4.41h1.85Z"/><path class="cls-5" d="M68,306.4V315c0,.75,0,1.56.06,2.05H66.41l-.08-1.15h0a2.62,2.62,0,0,1-2.38,1.32c-1.74,0-3.12-1.49-3.12-3.74,0-2.44,1.51-3.9,3.27-3.9a2.32,2.32,0,0,1,2.05,1h0V306.4Zm-1.85,6.39a2.59,2.59,0,0,0,0-.48,1.62,1.62,0,0,0-1.59-1.3c-1.19,0-1.85,1.05-1.85,2.41s.66,2.31,1.83,2.31a1.63,1.63,0,0,0,1.59-1.3,1.9,1.9,0,0,0,.06-.54Z"/><path class="cls-5" d="M71.94,307.71a1,1,0,0,1-2.07,0,1,1,0,0,1,2.07,0Zm-2,9.34v-7.3h1.86v7.3Z"/><path class="cls-5" d="M73.82,311.92c0-.84,0-1.54-.06-2.17h1.62l.09,1.09h0a2.64,2.64,0,0,1,2.33-1.26c1.27,0,2.59.83,2.59,3.14v4.33H78.59v-4.12c0-1.05-.39-1.85-1.4-1.85a1.57,1.57,0,0,0-1.44,1.08,1.9,1.9,0,0,0-.07.6v4.29H73.82Z"/><path class="cls-5" d="M86.51,317.05l-.12-.81h0a2.71,2.71,0,0,1-2.16,1A2.17,2.17,0,0,1,81.89,315c0-1.84,1.63-2.77,4.33-2.76v-.12c0-.48-.19-1.27-1.48-1.27a3.85,3.85,0,0,0-2,.54l-.36-1.2a5.27,5.27,0,0,1,2.64-.65c2.34,0,3,1.49,3,3.08v2.64a12.43,12.43,0,0,0,.1,1.75Zm-.24-3.57c-1.31,0-2.55.26-2.55,1.37a1,1,0,0,0,1,1,1.5,1.5,0,0,0,1.44-1,1.44,1.44,0,0,0,.06-.4Z"/><path class="cls-5" d="M90,306.4h1.86v10.65H90Z"/><path class="cls-5" d="M97.05,307.08a18.09,18.09,0,0,1,2.94-.21,6.17,6.17,0,0,1,4.13,1.17,4.52,4.52,0,0,1,1.57,3.72,5.23,5.23,0,0,1-1.57,4,6.79,6.79,0,0,1-4.58,1.38,19,19,0,0,1-2.49-.14Zm1.85,8.56a6.13,6.13,0,0,0,1,.05c2.4,0,3.82-1.31,3.82-3.87,0-2.24-1.27-3.51-3.58-3.51a5.92,5.92,0,0,0-1.26.1Z"/><path class="cls-5" d="M111.33,317.05l-.12-.81h0a2.72,2.72,0,0,1-2.16,1,2.18,2.18,0,0,1-2.3-2.18c0-1.84,1.64-2.77,4.34-2.76v-.12c0-.48-.2-1.27-1.49-1.27a3.79,3.79,0,0,0-2,.54l-.36-1.2a5.24,5.24,0,0,1,2.64-.65c2.34,0,3,1.49,3,3.08v2.64a11,11,0,0,0,.11,1.75Zm-.24-3.57c-1.3,0-2.55.26-2.55,1.37a1,1,0,0,0,1,1,1.48,1.48,0,0,0,1.44-1,1.14,1.14,0,0,0,.06-.4Z"/><path class="cls-5" d="M116.87,307.66v2.09h1.75v1.38h-1.75v3.22c0,.89.24,1.35.94,1.35a2.48,2.48,0,0,0,.72-.09l0,1.41a3.91,3.91,0,0,1-1.33.18,2.1,2.1,0,0,1-1.59-.6,2.91,2.91,0,0,1-.57-2v-3.43h-1v-1.38h1V308.1Z"/><path class="cls-5" d="M124.13,317.05l-.12-.81H124a2.71,2.71,0,0,1-2.16,1,2.17,2.17,0,0,1-2.29-2.18c0-1.84,1.63-2.77,4.33-2.76v-.12c0-.48-.19-1.27-1.48-1.27a3.85,3.85,0,0,0-2,.54l-.36-1.2a5.27,5.27,0,0,1,2.64-.65c2.34,0,3,1.49,3,3.08v2.64a12.43,12.43,0,0,0,.1,1.75Zm-.24-3.57c-1.31,0-2.55.26-2.55,1.37a1,1,0,0,0,1,1,1.5,1.5,0,0,0,1.44-1,1.44,1.44,0,0,0,.06-.4Z"/><path class="cls-5" d="M5.41,166.43H2.53v-1.54h7.64v1.54H7.25V175H5.41Z"/><path class="cls-5" d="M11.42,171.86a2,2,0,0,0,2.25,1.89,5.52,5.52,0,0,0,2-.33L16,174.7a7,7,0,0,1-2.55.45,3.46,3.46,0,0,1-3.77-3.69c0-2,1.23-3.93,3.57-3.93s3.16,1.95,3.16,3.55a4.23,4.23,0,0,1-.07.78Zm3.21-1.29a1.56,1.56,0,0,0-1.51-1.78,1.81,1.81,0,0,0-1.7,1.78Z"/><path class="cls-5" d="M22,175l-.12-.81H21.8a2.69,2.69,0,0,1-2.16,1A2.17,2.17,0,0,1,17.35,173c0-1.85,1.63-2.78,4.34-2.76v-.12c0-.48-.2-1.28-1.49-1.28a4,4,0,0,0-2,.54l-.35-1.2a5.25,5.25,0,0,1,2.64-.64c2.34,0,3,1.48,3,3.07v2.64a12.58,12.58,0,0,0,.1,1.76Zm-.24-3.57c-1.31,0-2.55.25-2.55,1.36a1,1,0,0,0,1.05,1.05,1.51,1.51,0,0,0,1.44-1,1.56,1.56,0,0,0,.06-.41Z"/><path class="cls-5" d="M30.85,174.77a5.34,5.34,0,0,1-2.07.38A3.51,3.51,0,0,1,25,171.43a3.78,3.78,0,0,1,4.07-3.9,4.7,4.7,0,0,1,1.78.34l-.32,1.38a3.41,3.41,0,0,0-1.4-.28,2.36,2.36,0,0,0,0,4.72,3.57,3.57,0,0,0,1.45-.28Z"/><path class="cls-5" d="M32.21,164.35h1.86v4.35h0a2.66,2.66,0,0,1,2.18-1.17c1.24,0,2.55.82,2.55,3.16V175H37v-4.1c0-1.06-.39-1.86-1.41-1.86a1.49,1.49,0,0,0-1.42,1,1.52,1.52,0,0,0-.08.55V175H32.21Z"/><path class="cls-5" d="M42.1,171.86a2,2,0,0,0,2.25,1.89,5.52,5.52,0,0,0,2-.33l.26,1.28a7,7,0,0,1-2.55.45,3.45,3.45,0,0,1-3.76-3.69c0-2,1.23-3.93,3.57-3.93s3.15,1.95,3.15,3.55a4.45,4.45,0,0,1-.06.78Zm3.21-1.29a1.58,1.58,0,0,0-1.52-1.78,1.79,1.79,0,0,0-1.69,1.78Z"/><path class="cls-5" d="M48.53,170.05c0-1,0-1.7-.06-2.36h1.61l.06,1.4h.06a2.17,2.17,0,0,1,2-1.56,2,2,0,0,1,.44,0v1.74a2.61,2.61,0,0,0-.54-.06,1.62,1.62,0,0,0-1.65,1.4,3.12,3.12,0,0,0-.06.57V175H48.53Z"/><path class="cls-5" d="M52.12,176.81a25.23,25.23,0,0,0,1-4l1.93-.15a19.39,19.39,0,0,1-1.68,4Z"/><path class="cls-5" d="M61.73,172.13,60.86,175H59l3.24-10.11h2.35L67.84,175h-2l-.92-2.87Zm2.9-1.39-.8-2.49c-.19-.62-.36-1.31-.51-1.89h0c-.15.58-.3,1.29-.48,1.89L62,170.74Z"/><path class="cls-5" d="M75.71,164.35v8.59c0,.75,0,1.56.06,2.06H74.12l-.07-1.16h0a2.64,2.64,0,0,1-2.39,1.32c-1.74,0-3.12-1.48-3.12-3.73,0-2.45,1.52-3.9,3.27-3.9a2.33,2.33,0,0,1,2.06,1h0v-4.14Zm-1.84,6.39a2.61,2.61,0,0,0-.05-.48A1.62,1.62,0,0,0,72.23,169c-1.18,0-1.84,1.05-1.84,2.42s.66,2.31,1.83,2.31a1.63,1.63,0,0,0,1.59-1.31,2.23,2.23,0,0,0,.06-.54Z"/><path class="cls-5" d="M77.69,169.87c0-.84,0-1.55-.06-2.18h1.59l.08,1.08h0a2.52,2.52,0,0,1,2.25-1.24,2.12,2.12,0,0,1,2,1.35h0a2.65,2.65,0,0,1,.9-.92,2.46,2.46,0,0,1,1.47-.43c1.21,0,2.44.82,2.44,3.16V175h-1.8v-4c0-1.21-.42-1.93-1.3-1.93a1.4,1.4,0,0,0-1.29,1,2.44,2.44,0,0,0-.09.62V175h-1.8v-4.23c0-1-.41-1.74-1.26-1.74a1.44,1.44,0,0,0-1.32,1.05,1.49,1.49,0,0,0-.11.6V175h-1.8Z"/><path class="cls-5" d="M92.38,165.65a1,1,0,0,1-1,1,1,1,0,0,1-1-1,1,1,0,0,1,2.07,0Zm-2,9.35v-7.31h1.86V175Z"/><path class="cls-5" d="M94.25,169.87c0-.84,0-1.55-.06-2.18h1.62l.09,1.1h0a2.62,2.62,0,0,1,2.32-1.26c1.28,0,2.6.82,2.6,3.13V175H99v-4.13c0-1.05-.39-1.84-1.39-1.84a1.53,1.53,0,0,0-1.44,1.08,1.86,1.86,0,0,0-.08.6V175H94.25Z"/><path class="cls-5" d="M102,176.81a24.18,24.18,0,0,0,1-4l1.93-.15a18.85,18.85,0,0,1-1.68,4Z"/><path class="cls-5" d="M109.51,173a5.16,5.16,0,0,0,2.44.64c1.19,0,1.85-.55,1.85-1.38s-.51-1.21-1.8-1.68c-1.67-.6-2.73-1.48-2.73-2.94,0-1.65,1.38-2.91,3.57-2.91a5.37,5.37,0,0,1,2.43.51l-.45,1.49a4.24,4.24,0,0,0-2-.48c-1.17,0-1.68.63-1.68,1.21,0,.78.58,1.14,1.93,1.67,1.76.66,2.61,1.54,2.61,3,0,1.62-1.23,3-3.84,3a6,6,0,0,1-2.73-.63Z"/><path class="cls-5" d="M119.32,165.61v2.08h1.75v1.38h-1.75v3.23c0,.88.24,1.35.94,1.35a2.89,2.89,0,0,0,.72-.09l0,1.41a4.18,4.18,0,0,1-1.33.18,2.14,2.14,0,0,1-1.59-.6,2.91,2.91,0,0,1-.57-2v-3.44h-1v-1.38h1V166Z"/><path class="cls-5" d="M129,172.81c0,.87,0,1.59.06,2.19h-1.62l-.09-1.11h0a2.66,2.66,0,0,1-2.34,1.27c-1.34,0-2.55-.79-2.55-3.18v-4.29h1.84v4c0,1.21.39,2,1.37,2a1.56,1.56,0,0,0,1.41-1,1.66,1.66,0,0,0,.1-.57v-4.41H129Z"/><path class="cls-5" d="M137.74,164.35v8.59c0,.75,0,1.56.06,2.06h-1.65l-.08-1.16h0a2.62,2.62,0,0,1-2.38,1.32c-1.74,0-3.12-1.48-3.12-3.73,0-2.45,1.51-3.9,3.27-3.9a2.32,2.32,0,0,1,2.05,1h0v-4.14Zm-1.85,6.39a2.59,2.59,0,0,0,0-.48,1.62,1.62,0,0,0-1.59-1.31c-1.19,0-1.85,1.05-1.85,2.42s.66,2.31,1.83,2.31a1.63,1.63,0,0,0,1.59-1.31,1.82,1.82,0,0,0,.06-.54Z"/><path class="cls-5" d="M141,171.86a2,2,0,0,0,2.25,1.89,5.52,5.52,0,0,0,2-.33l.27,1.28a7,7,0,0,1-2.55.45,3.46,3.46,0,0,1-3.77-3.69c0-2,1.23-3.93,3.57-3.93s3.15,1.95,3.15,3.55a4.45,4.45,0,0,1-.06.78Zm3.21-1.29a1.56,1.56,0,0,0-1.51-1.78,1.81,1.81,0,0,0-1.7,1.78Z"/><path class="cls-5" d="M147.46,169.87c0-.84,0-1.55-.06-2.18H149l.09,1.1h0a2.64,2.64,0,0,1,2.33-1.26c1.27,0,2.59.82,2.59,3.13V175h-1.84v-4.13c0-1.05-.39-1.84-1.4-1.84a1.55,1.55,0,0,0-1.44,1.08,1.87,1.87,0,0,0-.07.6V175h-1.86Z"/><path class="cls-5" d="M158.08,165.61v2.08h1.75v1.38h-1.75v3.23c0,.88.24,1.35.94,1.35a2.89,2.89,0,0,0,.72-.09l0,1.41a4.18,4.18,0,0,1-1.33.18,2.14,2.14,0,0,1-1.59-.6,2.91,2.91,0,0,1-.57-2v-3.44h-1.05v-1.38h1.05V166Z"/><path class="cls-5" d="M7.51,195l-.12-.81h0a2.7,2.7,0,0,1-2.15,1A2.16,2.16,0,0,1,2.89,193c0-1.85,1.64-2.78,4.33-2.76v-.12c0-.48-.19-1.28-1.48-1.28a3.89,3.89,0,0,0-2,.54l-.36-1.2a5.24,5.24,0,0,1,2.63-.64c2.34,0,3,1.48,3,3.07v2.64a12.58,12.58,0,0,0,.1,1.76Zm-.24-3.57c-1.31,0-2.55.25-2.55,1.36a1,1,0,0,0,1,1.05,1.51,1.51,0,0,0,1.44-1,1.56,1.56,0,0,0,.06-.41Z"/><path class="cls-5" d="M11,189.87c0-.84,0-1.55-.06-2.18h1.62l.09,1.1h0A2.66,2.66,0,0,1,15,187.53c1.27,0,2.59.82,2.59,3.13V195H15.79v-4.13c0-1.05-.39-1.84-1.4-1.84A1.53,1.53,0,0,0,13,190.11a1.62,1.62,0,0,0-.08.6V195H11Z"/><path class="cls-5" d="M26.33,184.35v8.59c0,.75,0,1.56.06,2.06H24.74l-.07-1.16h0a2.63,2.63,0,0,1-2.39,1.32c-1.74,0-3.12-1.48-3.12-3.73,0-2.45,1.52-3.9,3.27-3.9a2.33,2.33,0,0,1,2.06,1h0v-4.14Zm-1.84,6.39a3.88,3.88,0,0,0,0-.48,1.63,1.63,0,0,0-1.6-1.31C21.67,189,21,190,21,191.37s.66,2.31,1.83,2.31a1.63,1.63,0,0,0,1.59-1.31,2.23,2.23,0,0,0,.06-.54Z"/><path class="cls-5" d="M31.49,185a16,16,0,0,1,2.82-.21,4.6,4.6,0,0,1,3,.83,2.85,2.85,0,0,1,1,2.23,3.08,3.08,0,0,1-.87,2.3,4.5,4.5,0,0,1-3.2,1.08,5.8,5.8,0,0,1-.9-.06V195H31.49Zm1.83,4.71a3.74,3.74,0,0,0,.9.08c1.38,0,2.22-.68,2.22-1.86s-.78-1.73-2-1.73a5.58,5.58,0,0,0-1.07.09Z"/><path class="cls-5" d="M43.6,195l-.12-.81h0a2.7,2.7,0,0,1-2.16,1A2.16,2.16,0,0,1,39,193c0-1.85,1.63-2.78,4.33-2.76v-.12c0-.48-.19-1.28-1.48-1.28a4,4,0,0,0-2,.54l-.36-1.2a5.28,5.28,0,0,1,2.64-.64c2.34,0,3,1.48,3,3.07v2.64a12.58,12.58,0,0,0,.1,1.76Zm-.24-3.57c-1.31,0-2.55.25-2.55,1.36a1,1,0,0,0,1,1.05,1.51,1.51,0,0,0,1.44-1,1.56,1.56,0,0,0,.06-.41Z"/><path class="cls-5" d="M47.11,190.05c0-1,0-1.7-.06-2.36h1.6l.06,1.4h.06a2.18,2.18,0,0,1,2-1.56,2.06,2.06,0,0,1,.44,0v1.74a2.71,2.71,0,0,0-.55-.06,1.63,1.63,0,0,0-1.65,1.4,3.18,3.18,0,0,0,0,.57V195H47.11Z"/><path class="cls-5" d="M53.62,191.86a2,2,0,0,0,2.25,1.89,5.46,5.46,0,0,0,2-.33l.27,1.28a6.92,6.92,0,0,1-2.54.45,3.46,3.46,0,0,1-3.77-3.69c0-2,1.23-3.93,3.57-3.93s3.15,1.95,3.15,3.55a4.45,4.45,0,0,1-.06.78Zm3.21-1.29a1.58,1.58,0,0,0-1.52-1.78,1.8,1.8,0,0,0-1.69,1.78Z"/><path class="cls-5" d="M60.05,189.87c0-.84,0-1.55-.06-2.18h1.62l.09,1.1h0a2.62,2.62,0,0,1,2.32-1.26c1.28,0,2.6.82,2.6,3.13V195H64.82v-4.13c0-1.05-.39-1.84-1.39-1.84A1.53,1.53,0,0,0,62,190.11a1.86,1.86,0,0,0-.08.6V195H60.05Z"/><path class="cls-5" d="M70.67,185.61v2.08h1.76v1.38H70.67v3.23c0,.88.24,1.35,1,1.35a3,3,0,0,0,.72-.09l0,1.41a4.21,4.21,0,0,1-1.34.18,2.17,2.17,0,0,1-1.59-.6,2.91,2.91,0,0,1-.56-2v-3.44H67.82v-1.38h1.06V186Z"/><path class="cls-5" d="M77,185a16,16,0,0,1,2.82-.21,4.6,4.6,0,0,1,3,.83,2.85,2.85,0,0,1,1,2.23,3.08,3.08,0,0,1-.87,2.3,4.5,4.5,0,0,1-3.2,1.08,5.8,5.8,0,0,1-.9-.06V195H77Zm1.83,4.71a3.74,3.74,0,0,0,.9.08c1.38,0,2.22-.68,2.22-1.86s-.78-1.73-2-1.73a5.58,5.58,0,0,0-1.07.09Z"/><path class="cls-5" d="M91.88,191.28a3.62,3.62,0,0,1-3.75,3.88,3.53,3.53,0,0,1-3.66-3.76,3.61,3.61,0,0,1,3.78-3.87A3.5,3.5,0,0,1,91.88,191.28Zm-5.5.07c0,1.41.69,2.48,1.81,2.48s1.79-1,1.79-2.51c0-1.14-.51-2.44-1.77-2.44S86.38,190.14,86.38,191.35Z"/><path class="cls-5" d="M93.4,190.05c0-1,0-1.7-.06-2.36h1.6l.06,1.4h.06a2.18,2.18,0,0,1,2-1.56,1.91,1.91,0,0,1,.43,0v1.74a2.53,2.53,0,0,0-.54-.06,1.63,1.63,0,0,0-1.65,1.4,3.12,3.12,0,0,0-.06.57V195H93.4Z"/><path class="cls-5" d="M101.2,185.61v2.08H103v1.38H101.2v3.23c0,.88.24,1.35.94,1.35a2.89,2.89,0,0,0,.72-.09l0,1.41a4.18,4.18,0,0,1-1.33.18,2.14,2.14,0,0,1-1.59-.6,2.91,2.91,0,0,1-.57-2v-3.44H98.35v-1.38H99.4V186Z"/><path class="cls-5" d="M108.46,195l-.12-.81h0a2.7,2.7,0,0,1-2.16,1,2.16,2.16,0,0,1-2.29-2.17c0-1.85,1.63-2.78,4.33-2.76v-.12c0-.48-.19-1.28-1.48-1.28a4,4,0,0,0-2,.54l-.36-1.2a5.28,5.28,0,0,1,2.64-.64c2.34,0,3,1.48,3,3.07v2.64a12.58,12.58,0,0,0,.1,1.76Zm-.24-3.57c-1.31,0-2.55.25-2.55,1.36a1,1,0,0,0,1,1.05,1.51,1.51,0,0,0,1.44-1,1.56,1.56,0,0,0,.06-.41Z"/><path class="cls-5" d="M112,184.35h1.86V195H112Z"/><path class="cls-5" d="M115.73,193.3a4.08,4.08,0,0,0,1.88.53c.81,0,1.17-.33,1.17-.81s-.3-.75-1.2-1.07c-1.43-.49-2-1.27-2-2.13,0-1.29,1.06-2.29,2.76-2.29a4.34,4.34,0,0,1,1.93.43l-.36,1.31a3.26,3.26,0,0,0-1.54-.42c-.66,0-1,.31-1,.76s.34.69,1.27,1c1.32.48,1.94,1.16,2,2.24,0,1.32-1,2.28-3,2.28a4.73,4.73,0,0,1-2.22-.51Z"/></svg>