<svg xmlns="http://www.w3.org/2000/svg" viewBox="0 0 1300 271.47"><defs><style>.cls-1{fill:#f16c51;}.cls-2{fill:#fbc2ba;}.cls-3{fill:#fff;}.cls-4,.cls-5,.cls-6{fill:none;stroke:#fff;stroke-width:3px;}.cls-4{stroke-miterlimit:10;}.cls-5{stroke-linejoin:round;}</style></defs><title>managed-services-lrg</title><g id="Layer_2" data-name="Layer 2"><circle class="cls-1" cx="652.1" cy="136.93" r="114.5"/><circle class="cls-1" cx="396.86" cy="136.93" r="114.5"/><circle class="cls-1" cx="140.82" cy="136.93" r="114.5"/><circle class="cls-1" cx="907.33" cy="136.93" r="114.5"/><circle class="cls-1" cx="1163.88" cy="136.93" r="114.5"/><path class="cls-2" d="M394.22,15.7A119.73,119.73,0,0,1,505.22,90l1.48,3.59,1.2-3.69c0-.08,2.68-8.27,6.16-16.82l.26-.62-.32-.59A135.38,135.38,0,0,0,394.22,0c-74.86,0-135.76,60.9-135.76,135.76a120,120,0,1,1-8-43.18L252,96.66l1.13-4.24a129,129,0,0,1,6.28-17l.28-.62-.31-.61a136.36,136.36,0,0,0-43.33-49.76A135,135,0,0,0,138.41,0C63.56,0,2.66,60.89,2.66,135.75s60.9,135.76,135.75,135.76S274.17,210.6,274.17,135.75A120.19,120.19,0,0,1,394.22,15.7Z"/><path class="cls-2" d="M651.73,16.73a120.81,120.81,0,0,1,112,76.86l1.41,3.66,1.28-3.71c0-.09,3.1-9,6.54-16.66l.27-.62-.3-.6a136.42,136.42,0,0,0-43.57-50.25A134.94,134.94,0,0,0,651.73,1C576.87,1,516,61.92,516,136.77v7.86h.19a120.06,120.06,0,0,1-231.09,37.16L283,176.7l-.68,5.45a48.7,48.7,0,0,1-6,16.64l-.4.69.37.7a135.25,135.25,0,0,0,120.06,72.35c74.85,0,135.75-60.9,135.75-135.76v-7.85h-.19A120,120,0,0,1,651.73,16.73Z"/><path class="cls-2" d="M907.53,16.73a120.72,120.72,0,0,1,112.23,77.38l1.82,4.78.92-5a132.61,132.61,0,0,1,5.31-19l.22-.6-.29-.56a136.64,136.64,0,0,0-42.3-48.06A134.87,134.87,0,0,0,907.53,1c-74.86,0-135.76,60.9-135.76,135.75a120.07,120.07,0,0,1-228.95,50.58l-1.9-4.09-.8,4.44c0,.09-1.73,9.44-5.93,15.34l-.53.74.46.8a136.29,136.29,0,0,0,117.61,67.95c74.85,0,135.75-60.9,135.75-135.76A120.18,120.18,0,0,1,907.53,16.73Z"/><path class="cls-2" d="M1163.33,1c-74.86,0-135.76,60.9-135.76,135.75A120.06,120.06,0,0,1,796,181.2l-1.78-4.46-1,4.71a115.47,115.47,0,0,1-5.52,18.17l-.25.62.31.59a135.3,135.3,0,0,0,119.74,71.7c74.85,0,135.75-60.9,135.75-135.76a120,120,0,1,1,9,45.62l-1.94-4.72-.79,5a71.86,71.86,0,0,1-5.55,17.56l-.32.66.35.65a135.51,135.51,0,0,0,119.32,70.95c74.85,0,135.76-60.9,135.76-135.76S1238.18,1,1163.33,1Z"/></g><g id="Layer_3" data-name="Layer 3"><path class="cls-3" d="M84.74,165.12h3.45v6.81h.06c.35-.59.71-1.14,1.06-1.69l3.49-5.12h4.28L92,171.68l5.37,8.85H93.28l-3.77-6.66-1.32,1.63v5H84.74Z"/><path class="cls-3" d="M98.66,172.91c0-1.39,0-2.58-.1-3.56h3l.16,1.53h.07a4.09,4.09,0,0,1,3.45-1.78c2.29,0,4,1.51,4,4.8v6.63h-3.47v-6.2c0-1.44-.51-2.42-1.76-2.42a1.85,1.85,0,0,0-1.76,1.3,2.44,2.44,0,0,0-.14.87v6.45H98.66Z"/><path class="cls-3" d="M123.09,174.81a5.61,5.61,0,0,1-5.9,6,5.47,5.47,0,0,1-5.78-5.76,5.58,5.58,0,0,1,6-5.92A5.43,5.43,0,0,1,123.09,174.81Zm-8.09.11c0,1.93.8,3.37,2.28,3.37s2.22-1.35,2.22-3.37c0-1.66-.64-3.35-2.22-3.35S115,173.28,115,174.92Z"/><path class="cls-3" d="M127.43,169.35l.9,4.57c.22,1.17.45,2.4.64,3.68h0c.23-1.28.55-2.56.82-3.66l1.19-4.59h2.75l1.12,4.46c.29,1.25.59,2.51.82,3.79h0c.16-1.28.39-2.54.64-3.82l1-4.43h3.41l-3.43,11.18h-3.27L133,176.59c-.27-1.09-.48-2.1-.71-3.47h0a28.17,28.17,0,0,1-.73,3.47l-1.12,3.94h-3.27l-3.25-11.18Z"/><path class="cls-3" d="M142.38,164.3h3.48v16.23h-3.48Z"/><path class="cls-3" d="M151.34,176.05c.12,1.44,1.54,2.12,3.16,2.12a9.68,9.68,0,0,0,3.08-.46l.46,2.36a11,11,0,0,1-4,.68c-3.8,0-6-2.19-6-5.69,0-2.83,1.76-6,5.65-6,3.61,0,5,2.81,5,5.57a7.82,7.82,0,0,1-.12,1.38Zm4.1-2.38a2,2,0,0,0-2-2.26,2.28,2.28,0,0,0-2.15,2.26Z"/><path class="cls-3" d="M171.57,164.3v12.89c0,1.26.05,2.58.1,3.34h-3.09l-.16-1.65h0a3.88,3.88,0,0,1-3.49,1.9c-2.65,0-4.78-2.27-4.78-5.74,0-3.77,2.33-5.94,5-5.94a3.4,3.4,0,0,1,2.94,1.25h0v-6Zm-3.47,9.78a4.44,4.44,0,0,0,0-.62,2.08,2.08,0,0,0-2-1.71c-1.58,0-2.4,1.42-2.4,3.17,0,1.9.94,3.09,2.38,3.09a2,2,0,0,0,2-1.67,2.88,2.88,0,0,0,.09-.8Z"/><path class="cls-3" d="M185,169.35c0,.71-.09,1.64-.09,3.31v6.24c0,2.15-.44,3.91-1.7,5a6.88,6.88,0,0,1-4.54,1.37,8.63,8.63,0,0,1-4-.87l.69-2.62a6.88,6.88,0,0,0,3.24.84,2.67,2.67,0,0,0,2.91-3V179h-.05a3.57,3.57,0,0,1-3,1.46c-2.76,0-4.73-2.24-4.73-5.46,0-3.59,2.33-5.87,5.08-5.87a3.37,3.37,0,0,1,3.06,1.57h0l.11-1.32Zm-3.57,4.55a2.51,2.51,0,0,0-.07-.64,1.89,1.89,0,0,0-1.87-1.53c-1.26,0-2.29,1.14-2.29,3.17,0,1.67.83,3,2.29,3a1.89,1.89,0,0,0,1.83-1.41,3,3,0,0,0,.11-.92Z"/><path class="cls-3" d="M190.41,176.05c.11,1.44,1.53,2.12,3.15,2.12a9.79,9.79,0,0,0,3.09-.46l.46,2.36a11,11,0,0,1-4.05.68c-3.79,0-6-2.19-6-5.69,0-2.83,1.76-6,5.64-6,3.61,0,5,2.81,5,5.57a9.25,9.25,0,0,1-.11,1.38Zm4.09-2.38a2,2,0,0,0-2-2.26,2.27,2.27,0,0,0-2.14,2.26Z"/><path class="cls-3" d="M74.21,194.37c0-1.39,0-2.58-.09-3.57H77l.16,1.51h.07a3.89,3.89,0,0,1,3.38-1.76,3.19,3.19,0,0,1,3.07,1.9h0a5.08,5.08,0,0,1,1.44-1.35,4.12,4.12,0,0,1,2.13-.55c2.15,0,3.77,1.51,3.77,4.85V202H87.72V195.9c0-1.62-.53-2.56-1.65-2.56a1.7,1.7,0,0,0-1.6,1.21,3,3,0,0,0-.14.9V202H81v-6.26c0-1.42-.5-2.38-1.6-2.38a1.76,1.76,0,0,0-1.62,1.26,2.18,2.18,0,0,0-.14.87V202H74.21Z"/><path class="cls-3" d="M100.22,202l-.2-1.12H100a4,4,0,0,1-3.2,1.37,3.42,3.42,0,0,1-3.61-3.42c0-2.91,2.6-4.3,6.56-4.28v-.16c0-.59-.32-1.44-2-1.44a6.24,6.24,0,0,0-3.08.85l-.64-2.24a9.09,9.09,0,0,1,4.34-1c3.72,0,4.91,2.2,4.91,4.83v3.88a17.74,17.74,0,0,0,.16,2.72Zm-.41-5.28c-1.83,0-3.25.41-3.25,1.76a1.26,1.26,0,0,0,1.38,1.33,1.9,1.9,0,0,0,1.8-1.28,2.3,2.3,0,0,0,.07-.6Z"/><path class="cls-3" d="M105.94,194.37c0-1.39,0-2.58-.1-3.57h3l.16,1.54h.07a4.09,4.09,0,0,1,3.45-1.79c2.29,0,4,1.51,4,4.8V202h-3.47v-6.19c0-1.44-.5-2.42-1.76-2.42a1.85,1.85,0,0,0-1.76,1.3,2.4,2.4,0,0,0-.14.87V202h-3.47Z"/><path class="cls-3" d="M125.69,202l-.21-1.12h-.07a4,4,0,0,1-3.2,1.37,3.42,3.42,0,0,1-3.61-3.42c0-2.91,2.61-4.3,6.56-4.28v-.16c0-.59-.32-1.44-2-1.44a6.25,6.25,0,0,0-3.09.85l-.64-2.24a9.15,9.15,0,0,1,4.34-1c3.73,0,4.92,2.2,4.92,4.83v3.88a16.55,16.55,0,0,0,.16,2.72Zm-.42-5.28c-1.82,0-3.24.41-3.24,1.76a1.25,1.25,0,0,0,1.37,1.33,1.9,1.9,0,0,0,1.81-1.28,2.84,2.84,0,0,0,.06-.6Z"/><path class="cls-3" d="M142.07,190.8c0,.71-.09,1.65-.09,3.32v6.24c0,2.15-.43,3.91-1.69,5a6.89,6.89,0,0,1-4.55,1.37,8.74,8.74,0,0,1-4-.87l.69-2.63a6.84,6.84,0,0,0,3.24.85,2.67,2.67,0,0,0,2.91-3v-.73h-.05a3.57,3.57,0,0,1-3,1.46c-2.76,0-4.73-2.24-4.73-5.46,0-3.59,2.33-5.88,5.07-5.88a3.38,3.38,0,0,1,3.07,1.58h0l.12-1.33Zm-3.56,4.55a2.62,2.62,0,0,0-.07-.64,1.9,1.9,0,0,0-1.87-1.53c-1.26,0-2.29,1.15-2.29,3.18,0,1.67.82,3,2.29,3a1.89,1.89,0,0,0,1.83-1.42,3,3,0,0,0,.11-.91Z"/><path class="cls-3" d="M147.45,197.5c.11,1.44,1.53,2.13,3.15,2.13a9.79,9.79,0,0,0,3.09-.46l.45,2.36a11.14,11.14,0,0,1-4,.68c-3.8,0-6-2.19-6-5.69,0-2.83,1.76-6,5.65-6,3.61,0,5,2.82,5,5.58a9,9,0,0,1-.11,1.37Zm4.09-2.37a2,2,0,0,0-2-2.27,2.3,2.3,0,0,0-2.15,2.27Z"/><path class="cls-3" d="M156.84,194.37c0-1.39,0-2.58-.09-3.57h2.93l.16,1.51h.06a3.91,3.91,0,0,1,3.39-1.76,3.17,3.17,0,0,1,3.06,1.9h.05a5,5,0,0,1,1.44-1.35,4.05,4.05,0,0,1,2.12-.55c2.15,0,3.77,1.51,3.77,4.85V202h-3.38V195.9c0-1.62-.53-2.56-1.65-2.56a1.68,1.68,0,0,0-1.59,1.21,2.69,2.69,0,0,0-.14.9V202h-3.39v-6.26c0-1.42-.5-2.38-1.59-2.38a1.78,1.78,0,0,0-1.63,1.26,2.36,2.36,0,0,0-.13.87V202h-3.39Z"/><path class="cls-3" d="M179.17,197.5c.12,1.44,1.54,2.13,3.16,2.13a9.68,9.68,0,0,0,3.08-.46l.46,2.36a11.18,11.18,0,0,1-4,.68c-3.8,0-6-2.19-6-5.69,0-2.83,1.76-6,5.65-6,3.61,0,5,2.82,5,5.58a7.59,7.59,0,0,1-.12,1.37Zm4.1-2.37a2,2,0,0,0-2-2.27,2.29,2.29,0,0,0-2.15,2.27Z"/><path class="cls-3" d="M188.57,194.37c0-1.39,0-2.58-.09-3.57h3l.15,1.54h.07a4.1,4.1,0,0,1,3.46-1.79c2.28,0,4,1.51,4,4.8V202H195.7v-6.19c0-1.44-.5-2.42-1.76-2.42a1.85,1.85,0,0,0-1.76,1.3,2.4,2.4,0,0,0-.14.87V202h-3.47Z"/><path class="cls-3" d="M205.71,187.6v3.2h2.49v2.57h-2.49v4c0,1.35.32,2,1.37,2a6.22,6.22,0,0,0,1-.09l0,2.62a6.65,6.65,0,0,1-2.27.3,3.61,3.61,0,0,1-2.6-1,4.63,4.63,0,0,1-1-3.31v-4.57h-1.49V190.8h1.49v-2.42Z"/><path class="cls-3" d="M370.77,180.09a10,10,0,0,1-4,.66c-5.32,0-8.07-3.31-8.07-7.7,0-5.26,3.75-8.18,8.42-8.18a9.11,9.11,0,0,1,3.79.68l-.71,2.77a7.47,7.47,0,0,0-2.92-.57c-2.77,0-4.92,1.67-4.92,5.1,0,3.08,1.83,5,4.94,5a8.53,8.53,0,0,0,2.9-.5Z"/><path class="cls-3" d="M372.87,164.3h3.48v6.37h0a4.22,4.22,0,0,1,1.37-1.14,4,4,0,0,1,1.81-.43c2.22,0,3.91,1.53,3.91,4.89v6.54H380v-6.15c0-1.47-.5-2.47-1.8-2.47a1.84,1.84,0,0,0-1.74,1.21,2.27,2.27,0,0,0-.11.78v6.63h-3.48Z"/><path class="cls-3" d="M392.62,180.53l-.21-1.12h-.06a4.05,4.05,0,0,1-3.2,1.37,3.43,3.43,0,0,1-3.62-3.43c0-2.9,2.61-4.3,6.57-4.28v-.16c0-.59-.32-1.44-2-1.44a6.24,6.24,0,0,0-3.08.85l-.65-2.24a9.31,9.31,0,0,1,4.35-1c3.72,0,4.91,2.19,4.91,4.82v3.89a17.92,17.92,0,0,0,.16,2.72Zm-.41-5.28c-1.83,0-3.25.41-3.25,1.76a1.25,1.25,0,0,0,1.37,1.32,1.9,1.9,0,0,0,1.81-1.28,2.27,2.27,0,0,0,.07-.59Z"/><path class="cls-3" d="M398.34,172.91c0-1.39,0-2.58-.1-3.56h3l.16,1.53h.07a4.09,4.09,0,0,1,3.45-1.78c2.29,0,4,1.51,4,4.8v6.63h-3.47v-6.2c0-1.44-.51-2.42-1.76-2.42a1.85,1.85,0,0,0-1.76,1.3,2.44,2.44,0,0,0-.14.87v6.45h-3.47Z"/><path class="cls-3" d="M422.4,169.35c0,.71-.09,1.64-.09,3.31v6.24c0,2.15-.43,3.91-1.69,5a6.89,6.89,0,0,1-4.55,1.37,8.61,8.61,0,0,1-4-.87l.69-2.62a6.85,6.85,0,0,0,3.24.84,2.67,2.67,0,0,0,2.91-3V179h-.05a3.57,3.57,0,0,1-3,1.46c-2.76,0-4.73-2.24-4.73-5.46,0-3.59,2.33-5.87,5.07-5.87a3.37,3.37,0,0,1,3.07,1.57h0l.12-1.32Zm-3.56,4.55a2.51,2.51,0,0,0-.07-.64,1.89,1.89,0,0,0-1.87-1.53c-1.26,0-2.29,1.14-2.29,3.17,0,1.67.82,3,2.29,3a1.89,1.89,0,0,0,1.83-1.41,3,3,0,0,0,.11-.92Z"/><path class="cls-3" d="M427.78,176.05c.11,1.44,1.53,2.12,3.15,2.12a9.79,9.79,0,0,0,3.09-.46l.45,2.36a10.93,10.93,0,0,1-4,.68c-3.8,0-6-2.19-6-5.69,0-2.83,1.76-6,5.65-6,3.61,0,5,2.81,5,5.57a9.25,9.25,0,0,1-.11,1.38Zm4.09-2.38a2,2,0,0,0-2-2.26,2.29,2.29,0,0,0-2.15,2.26Z"/><path class="cls-3" d="M330.25,194.37c0-1.39,0-2.58-.09-3.57h2.93l.16,1.51h.06a3.91,3.91,0,0,1,3.39-1.76,3.17,3.17,0,0,1,3.06,1.9h.05a5,5,0,0,1,1.44-1.35,4.05,4.05,0,0,1,2.12-.55c2.15,0,3.77,1.51,3.77,4.85V202h-3.38V195.9c0-1.62-.52-2.56-1.65-2.56a1.71,1.71,0,0,0-1.6,1.21,3,3,0,0,0-.13.9V202H337v-6.26c0-1.42-.5-2.38-1.6-2.38a1.78,1.78,0,0,0-1.62,1.26,2.37,2.37,0,0,0-.14.87V202h-3.38Z"/><path class="cls-3" d="M356.26,202l-.2-1.12H356a4,4,0,0,1-3.2,1.37,3.42,3.42,0,0,1-3.61-3.42c0-2.91,2.6-4.3,6.56-4.28v-.16c0-.59-.32-1.44-2-1.44a6.24,6.24,0,0,0-3.08.85l-.64-2.24a9.15,9.15,0,0,1,4.34-1c3.73,0,4.92,2.2,4.92,4.83v3.88a16.55,16.55,0,0,0,.16,2.72Zm-.41-5.28c-1.83,0-3.24.41-3.24,1.76a1.25,1.25,0,0,0,1.37,1.33,1.88,1.88,0,0,0,1.8-1.28,2.3,2.3,0,0,0,.07-.6Z"/><path class="cls-3" d="M362,194.37c0-1.39-.05-2.58-.09-3.57h3l.17,1.54h.06a4.09,4.09,0,0,1,3.45-1.79c2.29,0,4,1.51,4,4.8V202h-3.48v-6.19c0-1.44-.5-2.42-1.76-2.42a1.85,1.85,0,0,0-1.76,1.3,2.4,2.4,0,0,0-.14.87V202H362Z"/><path class="cls-3" d="M381.73,202l-.21-1.12h-.07a4,4,0,0,1-3.2,1.37,3.42,3.42,0,0,1-3.61-3.42c0-2.91,2.61-4.3,6.56-4.28v-.16c0-.59-.32-1.44-2-1.44a6.28,6.28,0,0,0-3.09.85l-.64-2.24a9.17,9.17,0,0,1,4.35-1c3.72,0,4.91,2.2,4.91,4.83v3.88a17.74,17.74,0,0,0,.16,2.72Zm-.41-5.28c-1.83,0-3.25.41-3.25,1.76a1.25,1.25,0,0,0,1.37,1.33,1.9,1.9,0,0,0,1.81-1.28,2.82,2.82,0,0,0,.07-.6Z"/><path class="cls-3" d="M398.12,190.8c-.05.71-.09,1.65-.09,3.32v6.24c0,2.15-.44,3.91-1.69,5a6.92,6.92,0,0,1-4.55,1.37,8.75,8.75,0,0,1-4-.87l.69-2.63a6.88,6.88,0,0,0,3.24.85,2.67,2.67,0,0,0,2.91-3v-.73h-.05a3.55,3.55,0,0,1-3,1.46c-2.76,0-4.73-2.24-4.73-5.46,0-3.59,2.34-5.88,5.08-5.88a3.37,3.37,0,0,1,3.06,1.58H395l.11-1.33Zm-3.57,4.55a2.62,2.62,0,0,0-.07-.64,1.9,1.9,0,0,0-1.87-1.53c-1.26,0-2.29,1.15-2.29,3.18,0,1.67.83,3,2.29,3a1.89,1.89,0,0,0,1.83-1.42,3,3,0,0,0,.11-.91Z"/><path class="cls-3" d="M403.49,197.5c.11,1.44,1.53,2.13,3.15,2.13a9.79,9.79,0,0,0,3.09-.46l.46,2.36a11.23,11.23,0,0,1-4.05.68c-3.79,0-6-2.19-6-5.69,0-2.83,1.76-6,5.64-6,3.61,0,5,2.82,5,5.58a7.82,7.82,0,0,1-.11,1.37Zm4.09-2.37a2,2,0,0,0-2-2.27,2.28,2.28,0,0,0-2.15,2.27Z"/><path class="cls-3" d="M412.89,194.37c0-1.39-.05-2.58-.1-3.57h2.93l.16,1.51H416a3.89,3.89,0,0,1,3.38-1.76,3.17,3.17,0,0,1,3.06,1.9h.05a5,5,0,0,1,1.44-1.35,4.09,4.09,0,0,1,2.13-.55c2.14,0,3.77,1.51,3.77,4.85V202h-3.39V195.9c0-1.62-.52-2.56-1.64-2.56a1.7,1.7,0,0,0-1.6,1.21,3,3,0,0,0-.14.9V202h-3.38v-6.26c0-1.42-.51-2.38-1.6-2.38a1.79,1.79,0,0,0-1.63,1.26,2.36,2.36,0,0,0-.13.87V202h-3.38Z"/><path class="cls-3" d="M435.22,197.5c.11,1.44,1.53,2.13,3.15,2.13a9.79,9.79,0,0,0,3.09-.46l.45,2.36a11.14,11.14,0,0,1-4,.68c-3.8,0-6-2.19-6-5.69,0-2.83,1.76-6,5.65-6,3.61,0,5,2.82,5,5.58a9,9,0,0,1-.11,1.37Zm4.09-2.37a2,2,0,0,0-2-2.27,2.3,2.3,0,0,0-2.15,2.27Z"/><path class="cls-3" d="M444.61,194.37c0-1.39,0-2.58-.09-3.57h3l.16,1.54h.07a4.08,4.08,0,0,1,3.45-1.79c2.28,0,4,1.51,4,4.8V202h-3.48v-6.19c0-1.44-.5-2.42-1.76-2.42a1.85,1.85,0,0,0-1.76,1.3,2.42,2.42,0,0,0-.13.87V202h-3.48Z"/><path class="cls-3" d="M461.76,187.6v3.2h2.49v2.57h-2.49v4c0,1.35.32,2,1.37,2a6.44,6.44,0,0,0,1-.09l0,2.62a6.62,6.62,0,0,1-2.26.3,3.63,3.63,0,0,1-2.61-1,4.63,4.63,0,0,1-1-3.31v-4.57h-1.49V190.8h1.49v-2.42Z"/><path class="cls-3" d="M632.43,165.33a29.72,29.72,0,0,1,4.64-.32c2.28,0,3.88.34,5,1.21a3.89,3.89,0,0,1,1.42,3.22,4.09,4.09,0,0,1-2.72,3.79v.07a3.93,3.93,0,0,1,2.06,2.88c.48,1.74,1,3.75,1.25,4.35H640.5a19.86,19.86,0,0,1-1.08-3.59c-.41-1.92-1.07-2.45-2.49-2.47h-1v6.06h-3.45Zm3.45,6.62h1.37c1.74,0,2.77-.86,2.77-2.21s-1-2.13-2.56-2.15a9.45,9.45,0,0,0-1.58.11Z"/><path class="cls-3" d="M649.69,166.24a1.75,1.75,0,0,1-1.88,1.74,1.75,1.75,0,1,1,0-3.5A1.75,1.75,0,0,1,649.69,166.24Zm-3.59,14.29V169.35h3.47v11.18Z"/><path class="cls-3" d="M652.34,177.49a6.88,6.88,0,0,0,3,.84c1,0,1.49-.37,1.49-.94s-.34-.84-1.65-1.28c-2.31-.77-3.2-2-3.17-3.36,0-2.08,1.78-3.65,4.54-3.65a7.41,7.41,0,0,1,3.16.64l-.62,2.4a5.39,5.39,0,0,0-2.42-.64c-.85,0-1.33.34-1.33.91s.44.8,1.81,1.28c2.12.73,3,1.81,3,3.45,0,2.08-1.65,3.61-4.85,3.61a8,8,0,0,1-3.61-.77Z"/><path class="cls-3" d="M665.76,174.06h0c.25-.46.53-.92.8-1.35l2.26-3.36h4.19l-4,4.52,4.57,6.66h-4.28l-2.69-4.6-.89,1.1v3.5h-3.48V164.3h3.48Z"/><path class="cls-3" d="M600,194.37c0-1.39-.05-2.58-.09-3.57h2.92l.16,1.51H603a3.89,3.89,0,0,1,3.38-1.76,3.19,3.19,0,0,1,3.07,1.9h0A5.08,5.08,0,0,1,611,191.1a4.12,4.12,0,0,1,2.13-.55c2.15,0,3.77,1.51,3.77,4.85V202h-3.38V195.9c0-1.62-.53-2.56-1.65-2.56a1.7,1.7,0,0,0-1.6,1.21,3,3,0,0,0-.14.9V202H606.7v-6.26c0-1.42-.5-2.38-1.6-2.38a1.76,1.76,0,0,0-1.62,1.26,2.18,2.18,0,0,0-.14.87V202H600Z"/><path class="cls-3" d="M623.2,187.7a1.74,1.74,0,0,1-1.87,1.73,1.75,1.75,0,1,1,0-3.49A1.74,1.74,0,0,1,623.2,187.7ZM619.62,202V190.8h3.47V202Z"/><path class="cls-3" d="M629.77,187.6v3.2h2.49v2.57h-2.49v4c0,1.35.32,2,1.37,2a6.44,6.44,0,0,0,1-.09l0,2.62a6.62,6.62,0,0,1-2.26.3,3.63,3.63,0,0,1-2.61-1,4.63,4.63,0,0,1-1-3.31v-4.57h-1.49V190.8h1.49v-2.42Z"/><path class="cls-3" d="M637.86,187.7a1.74,1.74,0,0,1-1.88,1.73,1.75,1.75,0,1,1,0-3.49A1.74,1.74,0,0,1,637.86,187.7ZM634.27,202V190.8h3.47V202Z"/><path class="cls-3" d="M651.21,190.8c-.05.71-.1,1.65-.1,3.32v6.24c0,2.15-.43,3.91-1.69,5a6.89,6.89,0,0,1-4.55,1.37,8.74,8.74,0,0,1-4-.87l.69-2.63a6.88,6.88,0,0,0,3.24.85,2.67,2.67,0,0,0,2.91-3v-.73h-.05a3.57,3.57,0,0,1-3,1.46c-2.76,0-4.73-2.24-4.73-5.46,0-3.59,2.33-5.88,5.08-5.88a3.37,3.37,0,0,1,3.06,1.58h0l.12-1.33Zm-3.57,4.55a2.62,2.62,0,0,0-.07-.64,1.9,1.9,0,0,0-1.87-1.53c-1.26,0-2.29,1.15-2.29,3.18,0,1.67.83,3,2.29,3a1.89,1.89,0,0,0,1.83-1.42,3,3,0,0,0,.11-.91Z"/><path class="cls-3" d="M660.26,202l-.21-1.12H660a4,4,0,0,1-3.2,1.37,3.42,3.42,0,0,1-3.61-3.42c0-2.91,2.61-4.3,6.56-4.28v-.16c0-.59-.32-1.44-2-1.44a6.28,6.28,0,0,0-3.09.85l-.64-2.24a9.17,9.17,0,0,1,4.35-1c3.72,0,4.91,2.2,4.91,4.83v3.88a17.74,17.74,0,0,0,.16,2.72Zm-.41-5.28c-1.83,0-3.25.41-3.25,1.76a1.25,1.25,0,0,0,1.37,1.33,1.9,1.9,0,0,0,1.81-1.28,2.82,2.82,0,0,0,.07-.6Z"/><path class="cls-3" d="M669.68,187.6v3.2h2.49v2.57h-2.49v4c0,1.35.32,2,1.37,2a6.44,6.44,0,0,0,1-.09l0,2.62a6.62,6.62,0,0,1-2.26.3,3.63,3.63,0,0,1-2.61-1,4.63,4.63,0,0,1-1-3.31v-4.57h-1.49V190.8h1.49v-2.42Z"/><path class="cls-3" d="M677.77,187.7a1.74,1.74,0,0,1-1.88,1.73,1.75,1.75,0,1,1,0-3.49A1.74,1.74,0,0,1,677.77,187.7ZM674.18,202V190.8h3.47V202Z"/><path class="cls-3" d="M691.48,196.27a5.6,5.6,0,0,1-5.89,6,5.48,5.48,0,0,1-5.79-5.76,5.58,5.58,0,0,1,6-5.92A5.44,5.44,0,0,1,691.48,196.27Zm-8.09.11c0,1.92.8,3.36,2.29,3.36s2.21-1.35,2.21-3.36c0-1.67-.64-3.36-2.21-3.36S683.39,194.74,683.39,196.38Z"/><path class="cls-3" d="M693.63,194.37c0-1.39,0-2.58-.09-3.57h3l.16,1.54h.07a4.08,4.08,0,0,1,3.45-1.79c2.28,0,4,1.51,4,4.8V202h-3.48v-6.19c0-1.44-.5-2.42-1.76-2.42a1.85,1.85,0,0,0-1.76,1.3,2.42,2.42,0,0,0-.13.87V202h-3.48Z"/><path class="cls-3" d="M843.44,165.33a27.86,27.86,0,0,1,4.71-.32,7.41,7.41,0,0,1,4.71,1.23,4.52,4.52,0,0,1,1.65,3.56,5,5,0,0,1-1.42,3.66,7.15,7.15,0,0,1-5,1.63,9.72,9.72,0,0,1-1.18-.07v5.51h-3.46Zm3.46,7a5.17,5.17,0,0,0,1.16.09c1.85,0,3-.94,3-2.51s-1-2.27-2.72-2.27a5.8,5.8,0,0,0-1.44.14Z"/><path class="cls-3" d="M858.74,176.05c.11,1.44,1.53,2.12,3.15,2.12a9.79,9.79,0,0,0,3.09-.46l.45,2.36a10.93,10.93,0,0,1-4,.68c-3.8,0-6-2.19-6-5.69,0-2.83,1.76-6,5.65-6,3.61,0,5,2.81,5,5.57a9.25,9.25,0,0,1-.11,1.38Zm4.09-2.38a2,2,0,0,0-2-2.26,2.29,2.29,0,0,0-2.15,2.26Z"/><path class="cls-3" d="M868.13,173c0-1.65,0-2.72-.09-3.68h3l.12,2.06h.09a3.27,3.27,0,0,1,3-2.31,4.06,4.06,0,0,1,.73,0v3.27a5.54,5.54,0,0,0-.94-.09,2.24,2.24,0,0,0-2.38,1.76,4.67,4.67,0,0,0-.06.78v5.67h-3.48Z"/><path class="cls-3" d="M877.82,180.53v-8.62h-1.46v-2.56h1.46v-.44a5.11,5.11,0,0,1,1.42-3.74,4.5,4.5,0,0,1,3.09-1.12,7,7,0,0,1,1.85.22L884,167a3.8,3.8,0,0,0-1.12-.16c-1.14,0-1.62.89-1.62,2v.57h2.24v2.56h-2.22v8.62Z"/><path class="cls-3" d="M896,174.81a5.61,5.61,0,0,1-5.9,6,5.48,5.48,0,0,1-5.78-5.76,5.58,5.58,0,0,1,6-5.92A5.43,5.43,0,0,1,896,174.81Zm-8.09.11c0,1.93.8,3.37,2.29,3.37s2.21-1.35,2.21-3.37c0-1.66-.64-3.35-2.21-3.35S888,173.28,888,174.92Z"/><path class="cls-3" d="M898.19,173c0-1.65,0-2.72-.09-3.68h3l.12,2.06h.09a3.27,3.27,0,0,1,3-2.31,4.06,4.06,0,0,1,.73,0v3.27a5.54,5.54,0,0,0-.94-.09,2.24,2.24,0,0,0-2.38,1.76,4.61,4.61,0,0,0-.07.78v5.67h-3.47Z"/><path class="cls-3" d="M906.88,172.91c0-1.39,0-2.58-.1-3.56h2.93l.16,1.51h.07a3.87,3.87,0,0,1,3.38-1.76,3.19,3.19,0,0,1,3.07,1.89h0a4.91,4.91,0,0,1,1.44-1.34,4,4,0,0,1,2.13-.55c2.15,0,3.77,1.51,3.77,4.84v6.59h-3.38v-6.08c0-1.63-.53-2.57-1.65-2.57a1.7,1.7,0,0,0-1.6,1.22,2.91,2.91,0,0,0-.14.89v6.54h-3.38v-6.27c0-1.41-.5-2.38-1.6-2.38a1.76,1.76,0,0,0-1.62,1.26,2.23,2.23,0,0,0-.14.87v6.52h-3.38Z"/><path class="cls-3" d="M932.89,180.53l-.21-1.12h-.07a4,4,0,0,1-3.2,1.37,3.43,3.43,0,0,1-3.61-3.43c0-2.9,2.61-4.3,6.56-4.28v-.16c0-.59-.32-1.44-2-1.44a6.31,6.31,0,0,0-3.09.85l-.64-2.24a9.31,9.31,0,0,1,4.35-1c3.72,0,4.91,2.19,4.91,4.82v3.89a17.92,17.92,0,0,0,.16,2.72Zm-.41-5.28c-1.83,0-3.25.41-3.25,1.76a1.25,1.25,0,0,0,1.37,1.32,1.9,1.9,0,0,0,1.81-1.28,2.8,2.8,0,0,0,.07-.59Z"/><path class="cls-3" d="M938.6,172.91c0-1.39,0-2.58-.09-3.56h3l.16,1.53h.07a4.09,4.09,0,0,1,3.45-1.78c2.29,0,4,1.51,4,4.8v6.63h-3.47v-6.2c0-1.44-.51-2.42-1.76-2.42a1.84,1.84,0,0,0-1.76,1.3,2.24,2.24,0,0,0-.14.87v6.45H938.6Z"/><path class="cls-3" d="M960.39,180.25a8.37,8.37,0,0,1-3.11.5c-3.61,0-5.92-2.19-5.92-5.71,0-3.27,2.24-5.94,6.4-5.94a8.18,8.18,0,0,1,2.65.43l-.55,2.58a4.81,4.81,0,0,0-1.94-.34A3.13,3.13,0,0,0,958,178a5.31,5.31,0,0,0,2-.34Z"/><path class="cls-3" d="M964.73,176.05c.12,1.44,1.53,2.12,3.16,2.12a9.77,9.77,0,0,0,3.08-.46l.46,2.36a11,11,0,0,1-4,.68c-3.79,0-6-2.19-6-5.69,0-2.83,1.76-6,5.64-6,3.61,0,5,2.81,5,5.57a7.82,7.82,0,0,1-.12,1.38Zm4.09-2.38a2,2,0,0,0-2-2.26,2.27,2.27,0,0,0-2.15,2.26Z"/><path class="cls-3" d="M840.72,194.37c0-1.39,0-2.58-.09-3.57h2.93l.16,1.51h.07a3.89,3.89,0,0,1,3.38-1.76,3.17,3.17,0,0,1,3.06,1.9h0a5,5,0,0,1,1.44-1.35,4.08,4.08,0,0,1,2.12-.55c2.15,0,3.78,1.51,3.78,4.85V202h-3.39V195.9c0-1.62-.52-2.56-1.64-2.56a1.7,1.7,0,0,0-1.6,1.21,3,3,0,0,0-.14.9V202h-3.38v-6.26c0-1.42-.51-2.38-1.6-2.38a1.79,1.79,0,0,0-1.63,1.26,2.36,2.36,0,0,0-.13.87V202h-3.39Z"/><path class="cls-3" d="M866.74,202l-.21-1.12h-.07a4,4,0,0,1-3.2,1.37,3.42,3.42,0,0,1-3.61-3.42c0-2.91,2.61-4.3,6.56-4.28v-.16c0-.59-.32-1.44-2-1.44a6.25,6.25,0,0,0-3.09.85l-.64-2.24a9.15,9.15,0,0,1,4.34-1c3.73,0,4.92,2.2,4.92,4.83v3.88a16.55,16.55,0,0,0,.16,2.72Zm-.41-5.28c-1.83,0-3.25.41-3.25,1.76a1.25,1.25,0,0,0,1.37,1.33,1.9,1.9,0,0,0,1.81-1.28,2.82,2.82,0,0,0,.07-.6Z"/><path class="cls-3" d="M872.45,194.37c0-1.39,0-2.58-.09-3.57h3l.16,1.54h.07a4.08,4.08,0,0,1,3.45-1.79c2.28,0,4,1.51,4,4.8V202h-3.48v-6.19c0-1.44-.5-2.42-1.76-2.42a1.85,1.85,0,0,0-1.76,1.3,2.42,2.42,0,0,0-.13.87V202h-3.48Z"/><path class="cls-3" d="M892.2,202l-.2-1.12h-.07a4,4,0,0,1-3.2,1.37,3.42,3.42,0,0,1-3.61-3.42c0-2.91,2.6-4.3,6.56-4.28v-.16c0-.59-.32-1.44-2-1.44a6.24,6.24,0,0,0-3.08.85l-.64-2.24a9.09,9.09,0,0,1,4.34-1c3.72,0,4.91,2.2,4.91,4.83v3.88a17.74,17.74,0,0,0,.16,2.72Zm-.41-5.28c-1.83,0-3.25.41-3.25,1.76a1.26,1.26,0,0,0,1.38,1.33,1.9,1.9,0,0,0,1.8-1.28,2.3,2.3,0,0,0,.07-.6Z"/><path class="cls-3" d="M908.59,190.8c-.05.71-.09,1.65-.09,3.32v6.24c0,2.15-.43,3.91-1.69,5a6.92,6.92,0,0,1-4.55,1.37,8.71,8.71,0,0,1-4-.87l.68-2.63a6.89,6.89,0,0,0,3.25.85,2.67,2.67,0,0,0,2.9-3v-.73h0a3.58,3.58,0,0,1-3,1.46c-2.77,0-4.73-2.24-4.73-5.46,0-3.59,2.33-5.88,5.07-5.88a3.37,3.37,0,0,1,3.06,1.58h.05l.11-1.33ZM905,195.35a3.22,3.22,0,0,0-.07-.64,1.92,1.92,0,0,0-1.88-1.53c-1.26,0-2.28,1.15-2.28,3.18,0,1.67.82,3,2.28,3a1.89,1.89,0,0,0,1.83-1.42A3,3,0,0,0,905,197Z"/><path class="cls-3" d="M914,197.5c.12,1.44,1.53,2.13,3.16,2.13a9.68,9.68,0,0,0,3.08-.46l.46,2.36a11.19,11.19,0,0,1-4,.68c-3.79,0-6-2.19-6-5.69,0-2.83,1.76-6,5.64-6,3.62,0,5,2.82,5,5.58a7.59,7.59,0,0,1-.12,1.37Zm4.09-2.37a2,2,0,0,0-2-2.27,2.29,2.29,0,0,0-2.15,2.27Z"/><path class="cls-3" d="M923.36,194.37c0-1.39-.05-2.58-.09-3.57h2.92l.16,1.51h.07a3.89,3.89,0,0,1,3.38-1.76,3.19,3.19,0,0,1,3.07,1.9h0a5.08,5.08,0,0,1,1.44-1.35,4.09,4.09,0,0,1,2.13-.55c2.15,0,3.77,1.51,3.77,4.85V202h-3.38V195.9c0-1.62-.53-2.56-1.65-2.56a1.7,1.7,0,0,0-1.6,1.21,3,3,0,0,0-.14.9V202H930.1v-6.26c0-1.42-.5-2.38-1.6-2.38a1.76,1.76,0,0,0-1.62,1.26,2.18,2.18,0,0,0-.14.87V202h-3.38Z"/><path class="cls-3" d="M945.69,197.5c.11,1.44,1.53,2.13,3.15,2.13a9.79,9.79,0,0,0,3.09-.46l.46,2.36a11.23,11.23,0,0,1-4,.68c-3.79,0-6-2.19-6-5.69,0-2.83,1.76-6,5.64-6,3.61,0,5,2.82,5,5.58a7.82,7.82,0,0,1-.11,1.37Zm4.09-2.37a2,2,0,0,0-2-2.27,2.28,2.28,0,0,0-2.15,2.27Z"/><path class="cls-3" d="M955.09,194.37c0-1.39-.05-2.58-.1-3.57h3l.16,1.54h.07a4.09,4.09,0,0,1,3.45-1.79c2.29,0,4,1.51,4,4.8V202h-3.47v-6.19c0-1.44-.51-2.42-1.76-2.42a1.85,1.85,0,0,0-1.76,1.3,2.4,2.4,0,0,0-.14.87V202h-3.47Z"/><path class="cls-3" d="M972.23,187.6v3.2h2.49v2.57h-2.49v4c0,1.35.32,2,1.37,2a6.32,6.32,0,0,0,1-.09l0,2.62a6.62,6.62,0,0,1-2.26.3,3.63,3.63,0,0,1-2.61-1,4.63,4.63,0,0,1-1-3.31v-4.57h-1.48V190.8h1.48v-2.42Z"/><path class="cls-3" d="M1127,165.33a27.86,27.86,0,0,1,4.71-.32,7.41,7.41,0,0,1,4.71,1.23,4.52,4.52,0,0,1,1.65,3.56,5,5,0,0,1-1.42,3.66,7.15,7.15,0,0,1-5,1.63,9.72,9.72,0,0,1-1.18-.07v5.51H1127Zm3.46,7a5.17,5.17,0,0,0,1.16.09c1.85,0,3-.94,3-2.51s-1-2.27-2.73-2.27a5.76,5.76,0,0,0-1.43.14Z"/><path class="cls-3" d="M1139.94,173c0-1.65,0-2.72-.09-3.68h3l.11,2.06h.09a3.28,3.28,0,0,1,3-2.31,4.06,4.06,0,0,1,.73,0v3.27a5.54,5.54,0,0,0-.94-.09,2.23,2.23,0,0,0-2.37,1.76,3.77,3.77,0,0,0-.07.78v5.67h-3.48Z"/><path class="cls-3" d="M1159.49,174.81a5.61,5.61,0,0,1-5.9,6,5.47,5.47,0,0,1-5.78-5.76,5.58,5.58,0,0,1,6-5.92A5.44,5.44,0,0,1,1159.49,174.81Zm-8.09.11c0,1.93.8,3.37,2.28,3.37s2.22-1.35,2.22-3.37c0-1.66-.64-3.35-2.22-3.35S1151.4,173.28,1151.4,174.92Z"/><path class="cls-3" d="M1170.09,180.25a8.31,8.31,0,0,1-3.1.5c-3.62,0-5.92-2.19-5.92-5.71,0-3.27,2.24-5.94,6.4-5.94a8.18,8.18,0,0,1,2.65.43l-.55,2.58a4.81,4.81,0,0,0-1.94-.34,3.13,3.13,0,0,0,.06,6.26,5.24,5.24,0,0,0,2-.34Z"/><path class="cls-3" d="M1174.44,176.05c.11,1.44,1.53,2.12,3.15,2.12a9.79,9.79,0,0,0,3.09-.46l.46,2.36a11,11,0,0,1-4.05.68c-3.79,0-6-2.19-6-5.69,0-2.83,1.76-6,5.65-6,3.61,0,5,2.81,5,5.57a9.25,9.25,0,0,1-.11,1.38Zm4.09-2.38a2,2,0,0,0-2-2.26,2.27,2.27,0,0,0-2.14,2.26Z"/><path class="cls-3" d="M1183.81,177.49a6.92,6.92,0,0,0,3,.84c1.06,0,1.49-.37,1.49-.94s-.34-.84-1.65-1.28c-2.3-.77-3.2-2-3.17-3.36,0-2.08,1.78-3.65,4.55-3.65a7.36,7.36,0,0,1,3.15.64l-.62,2.4a5.39,5.39,0,0,0-2.42-.64c-.85,0-1.33.34-1.33.91s.44.8,1.81,1.28c2.13.73,3,1.81,3,3.45,0,2.08-1.65,3.61-4.85,3.61a8,8,0,0,1-3.61-.77Z"/><path class="cls-3" d="M1193.73,177.49a6.93,6.93,0,0,0,3,.84c1,0,1.48-.37,1.48-.94s-.34-.84-1.64-1.28c-2.31-.77-3.21-2-3.18-3.36,0-2.08,1.78-3.65,4.55-3.65a7.39,7.39,0,0,1,3.15.64l-.62,2.4a5.39,5.39,0,0,0-2.42-.64c-.85,0-1.32.34-1.32.91s.43.8,1.8,1.28c2.13.73,3,1.81,3,3.45,0,2.08-1.64,3.61-4.84,3.61a8,8,0,0,1-3.62-.77Z"/><path class="cls-3" d="M1091.94,187.6v3.2h2.49v2.57h-2.49v4c0,1.35.32,2,1.37,2a6.22,6.22,0,0,0,1-.09l0,2.62a6.58,6.58,0,0,1-2.26.3,3.59,3.59,0,0,1-2.6-1,4.63,4.63,0,0,1-1-3.31v-4.57h-1.49V190.8h1.49v-2.42Z"/><path class="cls-3" d="M1096.44,194.49c0-1.65,0-2.73-.09-3.69h3l.11,2.06h.09a3.29,3.29,0,0,1,3-2.31,3.26,3.26,0,0,1,.73,0v3.27a4.67,4.67,0,0,0-.94-.09,2.22,2.22,0,0,0-2.37,1.76,3.74,3.74,0,0,0-.07.77V202h-3.48Z"/><path class="cls-3" d="M1111.23,202l-.2-1.12H1111a4,4,0,0,1-3.2,1.37,3.42,3.42,0,0,1-3.61-3.42c0-2.91,2.6-4.3,6.56-4.28v-.16c0-.59-.32-1.44-2-1.44a6.24,6.24,0,0,0-3.08.85l-.64-2.24a9.15,9.15,0,0,1,4.34-1c3.73,0,4.92,2.2,4.92,4.83v3.88a16.55,16.55,0,0,0,.16,2.72Zm-.41-5.28c-1.83,0-3.24.41-3.24,1.76a1.25,1.25,0,0,0,1.37,1.33,1.88,1.88,0,0,0,1.8-1.28,2.3,2.3,0,0,0,.07-.6Z"/><path class="cls-3" d="M1117,194.37c0-1.39,0-2.58-.09-3.57h3l.16,1.54h.07a4.09,4.09,0,0,1,3.45-1.79c2.29,0,4,1.51,4,4.8V202h-3.48v-6.19c0-1.44-.5-2.42-1.76-2.42a1.85,1.85,0,0,0-1.76,1.3,2.4,2.4,0,0,0-.14.87V202H1117Z"/><path class="cls-3" d="M1130.32,198.94a6.79,6.79,0,0,0,3,.85c1,0,1.48-.37,1.48-.94s-.34-.84-1.65-1.28c-2.3-.78-3.19-2-3.17-3.36,0-2.08,1.78-3.66,4.55-3.66a7.51,7.51,0,0,1,3.15.64l-.62,2.4a5.52,5.52,0,0,0-2.42-.64c-.84,0-1.32.35-1.32.92s.43.8,1.8,1.28c2.13.73,3,1.8,3,3.45,0,2.08-1.64,3.61-4.84,3.61a7.9,7.9,0,0,1-3.62-.78Z"/><path class="cls-3" d="M1140.65,202v-8.61h-1.46V190.8h1.46v-.43a5.09,5.09,0,0,1,1.42-3.75,4.55,4.55,0,0,1,3.09-1.12,6.59,6.59,0,0,1,1.85.23l-.14,2.68a3.5,3.5,0,0,0-1.12-.16c-1.14,0-1.62.89-1.62,2v.57h2.24v2.57h-2.22V202Z"/><path class="cls-3" d="M1158.87,196.27a5.6,5.6,0,0,1-5.9,6,5.47,5.47,0,0,1-5.78-5.76,5.58,5.58,0,0,1,6-5.92A5.44,5.44,0,0,1,1158.87,196.27Zm-8.09.11c0,1.92.8,3.36,2.29,3.36s2.21-1.35,2.21-3.36c0-1.67-.64-3.36-2.21-3.36S1150.78,194.74,1150.78,196.38Z"/><path class="cls-3" d="M1161,194.49c0-1.65,0-2.73-.09-3.69h3l.12,2.06h.09a3.31,3.31,0,0,1,3.75-2.26v3.27a4.67,4.67,0,0,0-.94-.09,2.23,2.23,0,0,0-2.38,1.76,4.59,4.59,0,0,0-.07.77V202H1161Z"/><path class="cls-3" d="M1169.71,194.37c0-1.39,0-2.58-.1-3.57h2.93l.16,1.51h.07a3.89,3.89,0,0,1,3.38-1.76,3.17,3.17,0,0,1,3.06,1.9h0a5,5,0,0,1,1.44-1.35,4.09,4.09,0,0,1,2.13-.55c2.14,0,3.77,1.51,3.77,4.85V202h-3.39V195.9c0-1.62-.52-2.56-1.64-2.56a1.7,1.7,0,0,0-1.6,1.21,3,3,0,0,0-.14.9V202h-3.38v-6.26c0-1.42-.5-2.38-1.6-2.38a1.76,1.76,0,0,0-1.62,1.26,2.18,2.18,0,0,0-.14.87V202h-3.38Z"/><path class="cls-3" d="M1195.72,202l-.21-1.12h-.07a4,4,0,0,1-3.2,1.37,3.42,3.42,0,0,1-3.61-3.42c0-2.91,2.61-4.3,6.56-4.28v-.16c0-.59-.32-1.44-2-1.44a6.28,6.28,0,0,0-3.09.85l-.64-2.24a9.17,9.17,0,0,1,4.35-1c3.72,0,4.91,2.2,4.91,4.83v3.88a17.74,17.74,0,0,0,.16,2.72Zm-.41-5.28c-1.83,0-3.25.41-3.25,1.76a1.25,1.25,0,0,0,1.37,1.33,1.9,1.9,0,0,0,1.81-1.28,2.82,2.82,0,0,0,.07-.6Z"/><path class="cls-3" d="M1205.14,187.6v3.2h2.49v2.57h-2.49v4c0,1.35.32,2,1.37,2a6.44,6.44,0,0,0,1-.09l0,2.62a6.62,6.62,0,0,1-2.26.3,3.63,3.63,0,0,1-2.61-1,4.63,4.63,0,0,1-1-3.31v-4.57h-1.49V190.8h1.49v-2.42Z"/><path class="cls-3" d="M1213.23,187.7a1.74,1.74,0,0,1-1.88,1.73,1.75,1.75,0,1,1,0-3.49A1.74,1.74,0,0,1,1213.23,187.7ZM1209.64,202V190.8h3.47V202Z"/><path class="cls-3" d="M1226.94,196.27a5.6,5.6,0,0,1-5.89,6,5.48,5.48,0,0,1-5.79-5.76,5.58,5.58,0,0,1,6-5.92A5.44,5.44,0,0,1,1226.94,196.27Zm-8.09.11c0,1.92.8,3.36,2.29,3.36s2.21-1.35,2.21-3.36c0-1.67-.64-3.36-2.21-3.36S1218.85,194.74,1218.85,196.38Z"/><path class="cls-3" d="M1229.09,194.37c0-1.39,0-2.58-.09-3.57h3l.16,1.54h.07a4.08,4.08,0,0,1,3.45-1.79c2.28,0,4,1.51,4,4.8V202h-3.48v-6.19c0-1.44-.5-2.42-1.76-2.42a1.85,1.85,0,0,0-1.76,1.3,2.42,2.42,0,0,0-.13.87V202h-3.48Z"/><rect class="cls-4" x="1126.12" y="88.37" width="26.96" height="22.93"/><polyline class="cls-4" points="1178.32 87.53 1170.67 87.53 1170.67 65.11 1197.63 65.11 1197.63 87.53 1189.88 87.53"/><polyline class="cls-4" points="1139.6 88.37 1139.6 76.9 1158.25 76.9"/><polygon class="cls-3" points="1156.5 82.89 1166.86 76.9 1156.5 70.92 1156.5 82.89"/><polyline class="cls-4" points="1139.6 111.3 1139.6 122.77 1158.25 122.77"/><polygon class="cls-3" points="1156.5 128.75 1166.86 122.77 1156.5 116.78 1156.5 128.75"/><line class="cls-4" x1="1131.57" y1="95.93" x2="1148.22" y2="95.93"/><line class="cls-4" x1="1131.57" y1="103.77" x2="1148.22" y2="103.77"/><line class="cls-4" x1="1184.15" y1="80.55" x2="1184.15" y2="94.87"/><polygon class="cls-3" points="1178.16 93.11 1184.15 103.48 1190.13 93.11 1178.16 93.11"/><circle class="cls-4" cx="1184.15" cy="76.34" r="4.21"/><polyline class="cls-4" points="1178.32 133.35 1170.67 133.35 1170.67 110.94 1197.63 110.94 1197.63 133.35 1189.88 133.35"/><line class="cls-4" x1="1184.15" y1="126.37" x2="1184.15" y2="140.69"/><polygon class="cls-3" points="1178.16 138.94 1184.15 149.3 1190.13 138.94 1178.16 138.94"/><circle class="cls-4" cx="1184.15" cy="122.17" r="4.21"/><circle class="cls-4" cx="372.73" cy="109.58" r="6.63"/><path class="cls-4" d="M372.32,120.52h-7.71a5.81,5.81,0,0,0-5.81,5.81v6.77a2.65,2.65,0,0,0,2.64,2.65h2.64v3.16h16.47v-3.16h2.64a2.65,2.65,0,0,0,2.64-2.65v-6.77a5.81,5.81,0,0,0-5.8-5.81Z"/><line class="cls-4" x1="364.08" y1="135.75" x2="364.08" y2="128.2"/><line class="cls-4" x1="380.48" y1="135.75" x2="380.48" y2="128.2"/><circle class="cls-4" cx="421.81" cy="82.41" r="6.63"/><path class="cls-4" d="M421.4,93.36h-7.71a5.8,5.8,0,0,0-5.8,5.8v6.78a2.64,2.64,0,0,0,2.64,2.64h2.64v3.17h16.47v-3.17h2.64a2.64,2.64,0,0,0,2.64-2.64V99.16a5.81,5.81,0,0,0-5.81-5.8Z"/><line class="cls-4" x1="413.17" y1="108.58" x2="413.17" y2="101.03"/><line class="cls-4" x1="429.57" y1="108.58" x2="429.57" y2="101.03"/><path class="cls-5" d="M372.63,95.47v-6.8a6.94,6.94,0,0,1,6.94-6.94h17.27"/><polygon class="cls-3" points="395.09 87.71 405.45 81.73 395.09 75.75 395.09 87.71"/><path class="cls-5" d="M422,119V132.3a6.93,6.93,0,0,1-6.94,6.94H404.54"/><polygon class="cls-3" points="406.29 133.26 395.93 139.24 406.29 145.23 406.29 133.26"/><circle class="cls-4" cx="906.9" cy="80.77" r="13.13"/><path class="cls-4" d="M922,99.32H891.43a11.48,11.48,0,0,0-11.49,11.48v13.42a5.23,5.23,0,0,0,5.23,5.23h1.67"/><path class="cls-4" d="M923.18,129.45H927a5.23,5.23,0,0,0,5.23-5.23V110.8"/><polyline class="cls-4" points="923.04 121.16 923.04 143.78 890.29 143.78 890.29 138.71"/><polyline class="cls-4" points="894.65 125.47 911.05 109.08 917.33 115.58 933.31 99.6"/><path class="cls-6" d="M895.45,130.14a4.5,4.5,0,1,0-7.55,2.08A4.5,4.5,0,0,0,895.45,130.14Z"/><polygon class="cls-3" points="936.3 105.07 939.39 93.51 927.84 96.61 936.3 105.07"/><polyline class="cls-5" points="167.13 84.78 172.4 84.78 172.4 132.38 104.88 132.38 104.88 84.78 151.79 84.78"/><polyline class="cls-5" points="124.84 111.48 128 114.65 138.09 104.84 144.69 110.91 156.97 98.63"/><polygon class="cls-3" points="159.96 104.09 163.05 92.53 151.5 95.63 159.96 104.09"/><path class="cls-5" d="M166.6,73.7a7.32,7.32,0,1,0-13,4.66c1.55,1.87,2.53,3.44,2.53,5.88v1h6.22v-.88a7.87,7.87,0,0,1,2.33-5.72A7.29,7.29,0,0,0,166.6,73.7Z"/><line class="cls-5" x1="149.42" y1="73.28" x2="144.87" y2="73.28"/><line class="cls-5" x1="159.25" y1="63.46" x2="159.25" y2="58.9"/><line class="cls-5" x1="169.46" y1="73.28" x2="173.63" y2="73.28"/><line class="cls-5" x1="166.47" y1="66.07" x2="169.42" y2="63.11"/><line class="cls-5" x1="152.03" y1="66.07" x2="149.08" y2="63.11"/><circle class="cls-5" cx="121.26" cy="107.79" r="4.5"/><line class="cls-5" x1="138.68" y1="132.38" x2="138.68" y2="146.78"/><line class="cls-5" x1="126.68" y1="146.78" x2="150.69" y2="146.78"/><line class="cls-5" x1="104.88" y1="121.66" x2="172.4" y2="121.66"/><polyline class="cls-5" points="683.14 78.78 683.14 128.18 615.62 128.18 615.62 78.78 662.54 78.78"/><polyline class="cls-5" points="644.25 96.56 638.96 92.17 635.63 95.48 628.48 89.57"/><polyline class="cls-5" points="663.48 93.22 656.3 103.29 653.98 100.33 651.7 103.48 648 99.81"/><line class="cls-5" x1="680.32" y1="69.68" x2="667.09" y2="88.44"/><polygon class="cls-3" points="674.42 67.67 685.28 62.65 684.2 74.56 674.42 67.67"/><line class="cls-5" x1="649.43" y1="128.18" x2="649.43" y2="142.58"/><line class="cls-5" x1="637.43" y1="142.58" x2="661.43" y2="142.58"/><line class="cls-5" x1="667.09" y1="111.26" x2="675.24" y2="119.41"/><line class="cls-5" x1="656.25" y1="123.86" x2="656.25" y2="115.14"/><polygon class="cls-3" points="662.23 116.89 656.25 106.53 650.27 116.89 662.23 116.89"/><path class="cls-5" d="M650.7,111.78a12.66,12.66,0,1,1,12.15,1.72"/></g></svg>