<svg xmlns="http://www.w3.org/2000/svg" viewBox="0 0 1300 848.42"><defs><style>.cls-1{fill:#fbc2ba;}.cls-2{fill:#fcddd6;}.cls-3,.cls-4,.cls-6,.cls-7,.cls-8,.cls-9{fill:none;}.cls-3{stroke:#f16c51;}.cls-3,.cls-4,.cls-6,.cls-8{stroke-miterlimit:10;}.cls-3,.cls-4{stroke-width:2.31px;}.cls-4{stroke:#fbc2ba;}.cls-5{fill:#4c0519;}.cls-6,.cls-7,.cls-8,.cls-9{stroke:#4c0519;stroke-width:3px;}.cls-6{stroke-linecap:square;}.cls-9{stroke-linejoin:bevel;}</style></defs><title>portfolio-analysis-optimization-lrg</title><g id="Layer_2" data-name="Layer 2"><polygon class="cls-1" points="925.42 0.54 894.48 0.77 894.48 849.3 1300 849.3 1300 0.54 925.42 0.54"/><polygon class="cls-2" points="477.21 0.72 448 0.54 448 849.48 853.52 849.48 853.52 0.72 477.21 0.72"/><polygon class="cls-1" points="28.96 0.72 0 0.54 0 849.48 405.52 849.48 405.52 0.72 28.96 0.72"/><line class="cls-3" x1="19.28" y1="186.98" x2="360.9" y2="188.4"/><polygon class="cls-1" points="410.93 69.13 410.93 125.21 438.98 97.17 410.93 69.13"/><polygon class="cls-2" points="858.73 69.13 858.73 125.21 886.77 97.17 858.73 69.13"/><line class="cls-3" x1="925.84" y1="186.98" x2="1267.46" y2="188.4"/><line class="cls-4" x1="479.95" y1="186.98" x2="821.57" y2="188.4"/></g><g id="Layer_3" data-name="Layer 3"><path class="cls-5" d="M1058.81,88a39.79,39.79,0,0,1,6.3-.47c3.29,0,5.52.54,7,1.82a5.78,5.78,0,0,1,2,4.58,6.09,6.09,0,0,1-4.13,5.72v.1c1.62.61,2.6,2.2,3.18,4.4a46.45,46.45,0,0,0,1.79,6.37h-4.3a33,33,0,0,1-1.52-5.39c-.64-3-1.73-3.93-4.1-4h-2.1v9.38h-4.13Zm4.13,10.09h2.48c2.81,0,4.57-1.49,4.57-3.76,0-2.5-1.76-3.65-4.47-3.65a12.27,12.27,0,0,0-2.58.2Z"/><path class="cls-5" d="M1081,103.47c.1,3,2.44,4.27,5.08,4.27a12.45,12.45,0,0,0,4.57-.75l.61,2.88a15.61,15.61,0,0,1-5.75,1c-5.35,0-8.5-3.28-8.5-8.32,0-4.58,2.77-8.88,8.06-8.88s7.11,4.41,7.11,8a9.88,9.88,0,0,1-.14,1.76Zm7.25-2.91c0-1.53-.64-4-3.42-4-2.57,0-3.66,2.33-3.83,4Z"/><path class="cls-5" d="M1095.48,99.54c0-2.16-.07-3.93-.14-5.48H1099l.2,2.54h.07a6.41,6.41,0,0,1,5.65-2.92c3.79,0,6.94,3.25,6.94,8.4,0,6-3.75,8.84-7.51,8.84a5.41,5.41,0,0,1-4.64-2.2h-.07v8.53h-4.16Zm4.16,4.1a3.94,3.94,0,0,0,.14,1.15,3.76,3.76,0,0,0,3.65,2.91c2.64,0,4.2-2.2,4.2-5.45,0-2.91-1.42-5.28-4.1-5.28a3.88,3.88,0,0,0-3.72,3.08,3.84,3.84,0,0,0-.17,1Z"/><path class="cls-5" d="M1131,102.15c0,6.06-4.27,8.77-8.47,8.77-4.67,0-8.26-3.22-8.26-8.5s3.56-8.74,8.53-8.74S1131,97.14,1131,102.15Zm-12.43.17c0,3.18,1.56,5.59,4.1,5.59,2.37,0,4-2.34,4-5.66,0-2.57-1.15-5.52-4-5.52S1118.53,99.58,1118.53,102.32Z"/><path class="cls-5" d="M1134.37,99.37c0-2.23,0-3.82-.13-5.31h3.62l.14,3.15h.13a4.93,4.93,0,0,1,4.51-3.53,4.26,4.26,0,0,1,1,.11v3.92a6.41,6.41,0,0,0-1.22-.13,3.68,3.68,0,0,0-3.73,3.15,7.9,7.9,0,0,0-.13,1.28v8.54h-4.17Z"/><path class="cls-5" d="M1152,89.35v4.71h4v3.11h-4v7.28c0,2,.54,3,2.13,3a6.34,6.34,0,0,0,1.63-.2l.06,3.18a9,9,0,0,1-3,.4,4.82,4.82,0,0,1-3.59-1.35c-.88-1-1.29-2.44-1.29-4.6V97.17h-2.37V94.06h2.37V90.33Z"/><path class="cls-5" d="M1158.88,106.72a9.28,9.28,0,0,0,4.24,1.19c1.83,0,2.64-.75,2.64-1.83s-.68-1.7-2.71-2.41c-3.22-1.11-4.57-2.87-4.54-4.81,0-2.91,2.41-5.18,6.23-5.18a9.66,9.66,0,0,1,4.37,1l-.81,2.94a7.47,7.47,0,0,0-3.49-1c-1.49,0-2.3.72-2.3,1.73s.78,1.56,2.87,2.3c3,1.09,4.37,2.61,4.41,5,0,3-2.34,5.14-6.71,5.14a10.6,10.6,0,0,1-5-1.15Z"/><path class="cls-5" d="M614.44,104.08l-2,6.47h-4.3l7.31-22.83h5.32l7.41,22.83h-4.47l-2.06-6.47Zm6.53-3.15-1.79-5.62c-.44-1.39-.81-3-1.15-4.27H618c-.34,1.32-.68,2.92-1.08,4.27l-1.76,5.62Z"/><path class="cls-5" d="M631.06,99c0-1.9,0-3.49-.13-4.91h3.65l.21,2.47h.1a5.93,5.93,0,0,1,5.25-2.85c2.87,0,5.85,1.87,5.85,7.08v9.79h-4.16v-9.32c0-2.37-.88-4.16-3.15-4.16a3.5,3.5,0,0,0-3.25,2.44,4.1,4.1,0,0,0-.17,1.35v9.69h-4.2Z"/><path class="cls-5" d="M659.7,110.55l-.27-1.83h-.1a6.1,6.1,0,0,1-4.88,2.2,4.9,4.9,0,0,1-5.18-4.91c0-4.17,3.7-6.26,9.79-6.23v-.27c0-1.09-.44-2.88-3.35-2.88a8.75,8.75,0,0,0-4.44,1.22l-.81-2.71a11.92,11.92,0,0,1,6-1.46c5.28,0,6.8,3.36,6.8,6.95v6a26.41,26.41,0,0,0,.24,4Zm-.54-8.06c-2.94-.07-5.75.57-5.75,3.08a2.18,2.18,0,0,0,2.37,2.37,3.38,3.38,0,0,0,3.25-2.27,3,3,0,0,0,.13-.91Z"/><path class="cls-5" d="M667.62,86.51h4.2v24h-4.2Z"/><path class="cls-5" d="M678.93,94.06l3,8.83c.34,1,.68,2.27.92,3.22h.1c.27-1,.57-2.17.88-3.25l2.57-8.8h4.47l-4.13,11.24c-2.27,6.16-3.79,8.9-5.76,10.6A8.41,8.41,0,0,1,676.6,118l-1-3.52a7.06,7.06,0,0,0,2.43-1.15,7.21,7.21,0,0,0,2.27-2.61,1.68,1.68,0,0,0,.27-.74,1.8,1.8,0,0,0-.23-.82l-6-15.13Z"/><path class="cls-5" d="M692.64,106.72a9.23,9.23,0,0,0,4.23,1.19c1.83,0,2.65-.75,2.65-1.83s-.68-1.7-2.71-2.41c-3.22-1.11-4.57-2.87-4.54-4.81,0-2.91,2.4-5.18,6.23-5.18a9.66,9.66,0,0,1,4.37,1l-.82,2.94a7.46,7.46,0,0,0-3.48-1c-1.49,0-2.31.72-2.31,1.73s.78,1.56,2.88,2.3c3,1.09,4.37,2.61,4.4,5,0,3-2.33,5.14-6.7,5.14a10.6,10.6,0,0,1-5-1.15Z"/><path class="cls-5" d="M711.4,89.45A2.21,2.21,0,0,1,709,91.69a2.19,2.19,0,0,1-2.3-2.24,2.34,2.34,0,0,1,4.67,0ZM707,110.55V94.06h4.2v16.49Z"/><path class="cls-5" d="M715.43,106.72a9.2,9.2,0,0,0,4.23,1.19c1.83,0,2.64-.75,2.64-1.83s-.68-1.7-2.71-2.41c-3.22-1.11-4.57-2.87-4.54-4.81,0-2.91,2.41-5.18,6.23-5.18a9.66,9.66,0,0,1,4.37,1l-.81,2.94a7.47,7.47,0,0,0-3.49-1c-1.49,0-2.3.72-2.3,1.73s.78,1.56,2.88,2.3c3,1.09,4.36,2.61,4.4,5,0,3-2.34,5.14-6.71,5.14a10.63,10.63,0,0,1-5-1.15Z"/><path class="cls-5" d="M1072.76,254c-.13-2.39-.28-5.26-.25-7.39h-.08c-.58,2-1.29,4.14-2.16,6.5l-3,8.3h-1.67l-2.77-8.15c-.82-2.41-1.5-4.62-2-6.65h0c0,2.13-.18,5-.33,7.56l-.46,7.34h-2.11l1.2-17.11h2.81l2.92,8.27c.71,2.11,1.3,4,1.73,5.77h.08c.43-1.73,1-3.61,1.8-5.77l3-8.27h2.81l1.07,17.11h-2.16Z"/><path class="cls-5" d="M1085.63,261.47l-.17-1.55h-.08a4.58,4.58,0,0,1-3.76,1.83,3.5,3.5,0,0,1-3.76-3.53c0-3,2.64-4.59,7.39-4.57v-.25a2.54,2.54,0,0,0-2.79-2.85,6.11,6.11,0,0,0-3.2.92l-.51-1.48a7.65,7.65,0,0,1,4-1.09c3.76,0,4.67,2.57,4.67,5v4.6a17.57,17.57,0,0,0,.2,2.94Zm-.33-6.27c-2.43,0-5.2.38-5.2,2.77a2,2,0,0,0,2.11,2.13,3.06,3.06,0,0,0,3-2.06,2.52,2.52,0,0,0,.12-.71Z"/><path class="cls-5" d="M1093.28,254.82h0c.3-.43.73-1,1.09-1.4l3.6-4.24h2.69l-4.74,5,5.4,7.24h-2.71l-4.24-5.89-1.14,1.27v4.62h-2.21v-18h2.21Z"/><path class="cls-5" d="M1104.22,255.73c0,3,2,4.27,4.21,4.27a8,8,0,0,0,3.41-.64l.38,1.6a9.93,9.93,0,0,1-4.09.76c-3.78,0-6-2.48-6-6.19s2.18-6.63,5.76-6.63c4,0,5.08,3.53,5.08,5.79a7.43,7.43,0,0,1-.08,1Zm6.55-1.6c0-1.42-.58-3.63-3.1-3.63-2.26,0-3.25,2.08-3.43,3.63Z"/><path class="cls-5" d="M1121.59,253.78v1.65h-6.28v-1.65Z"/><path class="cls-5" d="M1124.1,261.47c.05-.84.1-2.08.1-3.17V243.44h2.21v7.72h0a4.58,4.58,0,0,1,4.19-2.26c3,0,5.21,2.54,5.18,6.27,0,4.4-2.77,6.58-5.51,6.58a4.37,4.37,0,0,1-4.11-2.31h-.08l-.1,2Zm2.31-4.92a4.38,4.38,0,0,0,.1.81,3.44,3.44,0,0,0,3.35,2.61c2.34,0,3.74-1.9,3.74-4.72,0-2.46-1.27-4.57-3.66-4.57a3.56,3.56,0,0,0-3.4,2.74,4.52,4.52,0,0,0-.13.92Z"/><path class="cls-5" d="M1148.93,258.12c0,1.27,0,2.39.1,3.35h-2l-.13-2h-.05a4.6,4.6,0,0,1-4.06,2.29c-1.93,0-4.24-1.07-4.24-5.38v-7.19h2.24V256c0,2.33.71,3.91,2.74,3.91a3.16,3.16,0,0,0,3.15-3.18v-7.54h2.23Z"/><path class="cls-5" d="M1153.45,249.18l2.69,7.26c.28.82.59,1.78.79,2.52h0c.23-.74.48-1.68.79-2.57l2.43-7.21h2.37l-3.36,8.76c-1.6,4.22-2.69,6.37-4.21,7.69a6,6,0,0,1-2.74,1.45l-.56-1.88a5.71,5.71,0,0,0,2-1.09,6.72,6.72,0,0,0,1.88-2.49,1.63,1.63,0,0,0,.18-.53,1.94,1.94,0,0,0-.15-.58L1151,249.18Z"/><path class="cls-5" d="M1169.67,253.78v1.65h-6.27v-1.65Z"/><path class="cls-5" d="M1172.29,253c0-1.45,0-2.7-.1-3.84h2l.08,2.41h.1a3.69,3.69,0,0,1,3.4-2.69,2.43,2.43,0,0,1,.64.08v2.11a3.41,3.41,0,0,0-.76-.08,3.13,3.13,0,0,0-3,2.87,6.33,6.33,0,0,0-.1,1v6.55h-2.21Z"/><path class="cls-5" d="M1181.58,255.73c.05,3,2,4.27,4.22,4.27a8,8,0,0,0,3.4-.64l.38,1.6a9.89,9.89,0,0,1-4.09.76c-3.78,0-6-2.48-6-6.19s2.18-6.63,5.76-6.63c4,0,5.08,3.53,5.08,5.79a10,10,0,0,1-.07,1Zm6.55-1.6c0-1.42-.58-3.63-3.09-3.63-2.26,0-3.25,2.08-3.43,3.63Z"/><path class="cls-5" d="M1203.34,258.12c0,1.27,0,2.39.1,3.35h-2l-.12-2h0a4.62,4.62,0,0,1-4.07,2.29c-1.93,0-4.24-1.07-4.24-5.38v-7.19h2.24V256c0,2.33.71,3.91,2.74,3.91a3.24,3.24,0,0,0,3-2,3.46,3.46,0,0,0,.2-1.15v-7.54h2.23Z"/><path class="cls-5" d="M1206.74,259.19a5.91,5.91,0,0,0,3,.88c1.63,0,2.39-.81,2.39-1.82s-.64-1.65-2.29-2.26c-2.21-.79-3.25-2-3.25-3.48,0-2,1.6-3.61,4.24-3.61a6.16,6.16,0,0,1,3,.76l-.56,1.63a4.72,4.72,0,0,0-2.51-.71c-1.32,0-2.06.76-2.06,1.67s.74,1.48,2.34,2.09c2.13.81,3.23,1.87,3.23,3.7,0,2.16-1.68,3.68-4.6,3.68a7.06,7.06,0,0,1-3.45-.83Z"/><path class="cls-5" d="M1218.35,255.73c.05,3,2,4.27,4.21,4.27a8,8,0,0,0,3.4-.64l.39,1.6a9.93,9.93,0,0,1-4.09.76c-3.79,0-6-2.48-6-6.19s2.19-6.63,5.77-6.63c4,0,5.08,3.53,5.08,5.79a7.43,7.43,0,0,1-.08,1Zm6.55-1.6c0-1.42-.59-3.63-3.1-3.63-2.26,0-3.25,2.08-3.43,3.63Z"/><path class="cls-5" d="M1068.88,270.83v14.86c0,1.09,0,2.33.1,3.17h-2l-.1-2.13h0a4.55,4.55,0,0,1-4.19,2.41c-3,0-5.26-2.51-5.26-6.25,0-4.08,2.52-6.6,5.51-6.6a4.12,4.12,0,0,1,3.71,1.88h.05v-7.34Zm-2.24,10.74a3.81,3.81,0,0,0-.1-.94,3.28,3.28,0,0,0-3.22-2.58c-2.32,0-3.69,2-3.69,4.74,0,2.49,1.22,4.55,3.63,4.55a3.36,3.36,0,0,0,3.28-2.67,3.68,3.68,0,0,0,.1-1Z"/><path class="cls-5" d="M1073.83,283.12c.05,3,2,4.27,4.21,4.27a8,8,0,0,0,3.4-.64l.39,1.6a9.89,9.89,0,0,1-4.09.77c-3.79,0-6-2.49-6-6.2s2.19-6.63,5.77-6.63c4,0,5.08,3.53,5.08,5.79a7.43,7.43,0,0,1-.08,1Zm6.55-1.6c0-1.42-.59-3.63-3.1-3.63-2.26,0-3.25,2.08-3.43,3.63Z"/><path class="cls-5" d="M1094.06,288.4a8.11,8.11,0,0,1-3.53.72c-3.7,0-6.12-2.52-6.12-6.28a6.24,6.24,0,0,1,6.61-6.52,7.52,7.52,0,0,1,3.09.63l-.5,1.73a5.26,5.26,0,0,0-2.59-.58c-2.82,0-4.35,2.08-4.35,4.64,0,2.85,1.83,4.6,4.27,4.6a6.31,6.31,0,0,0,2.74-.61Z"/><path class="cls-5" d="M1099.17,273.12a1.39,1.39,0,0,1-2.77,0,1.36,1.36,0,0,1,1.4-1.4A1.33,1.33,0,0,1,1099.17,273.12Zm-2.49,15.74V276.57h2.23v12.29Z"/><path class="cls-5" d="M1102.31,286.58a5.88,5.88,0,0,0,3,.88c1.62,0,2.39-.81,2.39-1.82s-.64-1.65-2.29-2.26c-2.21-.79-3.25-2-3.25-3.48,0-2,1.6-3.61,4.24-3.61a6.16,6.16,0,0,1,3,.76l-.56,1.63a4.81,4.81,0,0,0-2.51-.71c-1.32,0-2.06.76-2.06,1.67s.74,1.48,2.34,2.09c2.13.81,3.22,1.88,3.22,3.7,0,2.16-1.67,3.69-4.59,3.69a7,7,0,0,1-3.45-.84Z"/><path class="cls-5" d="M1115.16,273.12a1.31,1.31,0,0,1-1.42,1.37,1.33,1.33,0,0,1-1.35-1.37,1.37,1.37,0,0,1,1.4-1.4A1.33,1.33,0,0,1,1115.16,273.12Zm-2.49,15.74V276.57h2.24v12.29Z"/><path class="cls-5" d="M1129.74,282.62c0,4.54-3.15,6.52-6.12,6.52-3.33,0-5.89-2.44-5.89-6.32,0-4.11,2.69-6.53,6.09-6.53S1129.74,278.86,1129.74,282.62Zm-9.75.12c0,2.69,1.54,4.72,3.73,4.72s3.73-2,3.73-4.77c0-2.08-1-4.72-3.68-4.72S1120,280.41,1120,282.74Z"/><path class="cls-5" d="M1132.55,279.9c0-1.27,0-2.31-.1-3.33h2l.13,2h0a4.53,4.53,0,0,1,4.06-2.31c1.7,0,4.35,1,4.35,5.23v7.34h-2.24v-7.08c0-2-.74-3.63-2.84-3.63a3.17,3.17,0,0,0-3,2.28,3.26,3.26,0,0,0-.15,1v7.39h-2.24Z"/><path class="cls-5" d="M1152,279.9c0-1.27,0-2.31-.1-3.33h2l.1,2h.08a4.24,4.24,0,0,1,3.86-2.26,3.63,3.63,0,0,1,3.48,2.47h0a5,5,0,0,1,1.37-1.6,4.2,4.2,0,0,1,2.72-.87c1.62,0,4,1.07,4,5.34v7.23h-2.18v-7c0-2.36-.86-3.78-2.67-3.78a2.89,2.89,0,0,0-2.64,2,3.77,3.77,0,0,0-.17,1.12v7.59h-2.19V281.5c0-2-.86-3.38-2.56-3.38a3.06,3.06,0,0,0-2.77,2.24,3,3,0,0,0-.18,1.09v7.41H1152Z"/><path class="cls-5" d="M1180,288.86l-.18-1.55h-.07a4.58,4.58,0,0,1-3.76,1.83,3.5,3.5,0,0,1-3.76-3.53c0-3,2.64-4.59,7.39-4.57v-.25a2.54,2.54,0,0,0-2.79-2.85,6.09,6.09,0,0,0-3.2.92l-.51-1.48a7.62,7.62,0,0,1,4-1.09c3.75,0,4.67,2.57,4.67,5v4.6a17.57,17.57,0,0,0,.2,2.94Zm-.33-6.27c-2.44,0-5.21.38-5.21,2.77a2,2,0,0,0,2.11,2.13,3.05,3.05,0,0,0,3-2.06,2.17,2.17,0,0,0,.13-.71Z"/><path class="cls-5" d="M1188,273v3.53h3.2v1.7H1188v6.63c0,1.52.43,2.39,1.68,2.39a4.73,4.73,0,0,0,1.29-.16l.1,1.68a5.37,5.37,0,0,1-2,.31,3.09,3.09,0,0,1-2.41-.94,4.59,4.59,0,0,1-.86-3.2v-6.71h-1.91v-1.7h1.91v-2.94Z"/><path class="cls-5" d="M1193.74,280.41c0-1.45,0-2.7-.1-3.84h2l.07,2.41h.11a3.67,3.67,0,0,1,3.4-2.69,2.41,2.41,0,0,1,.63.08v2.11a3.34,3.34,0,0,0-.76-.08,3.13,3.13,0,0,0-3,2.87,5.35,5.35,0,0,0-.11,1v6.55h-2.21Z"/><path class="cls-5" d="M1204.64,273.12a1.39,1.39,0,0,1-2.77,0,1.36,1.36,0,0,1,1.4-1.4A1.33,1.33,0,0,1,1204.64,273.12Zm-2.49,15.74V276.57h2.23v12.29Z"/><path class="cls-5" d="M1209.13,276.57l1.75,2.64c.46.69.84,1.32,1.25,2h.07c.41-.74.82-1.37,1.22-2l1.73-2.62h2.41l-4.19,5.94,4.32,6.35h-2.54l-1.8-2.77c-.49-.71-.89-1.39-1.32-2.13h0c-.41.74-.84,1.4-1.3,2.13l-1.78,2.77h-2.46l4.37-6.27-4.17-6Z"/><path class="cls-5" d="M1058.34,363.37a22.9,22.9,0,0,1,4.24-.36c2.36,0,3.88.43,5,1.4a4.27,4.27,0,0,1,1.35,3.25,4.5,4.5,0,0,1-3.23,4.37v.07c1.32.46,2.11,1.68,2.51,3.45a26.62,26.62,0,0,0,1.33,4.7h-2.29a21.78,21.78,0,0,1-1.14-4.09c-.51-2.36-1.42-3.25-3.43-3.32h-2.08v7.41h-2.21Zm2.21,7.79h2.26c2.36,0,3.86-1.29,3.86-3.25,0-2.21-1.6-3.17-3.94-3.2a8.47,8.47,0,0,0-2.18.21Z"/><path class="cls-5" d="M1079,380.25l-.18-1.55h-.07a4.58,4.58,0,0,1-3.76,1.83,3.5,3.5,0,0,1-3.76-3.53c0-3,2.64-4.59,7.39-4.57v-.25a2.54,2.54,0,0,0-2.79-2.85,6.11,6.11,0,0,0-3.2.92l-.51-1.47a7.65,7.65,0,0,1,4-1.1c3.76,0,4.67,2.57,4.67,5v4.6a17.57,17.57,0,0,0,.2,2.94Zm-.33-6.27c-2.44-.05-5.2.38-5.2,2.77a2,2,0,0,0,2.1,2.13,3.07,3.07,0,0,0,3-2.06,2.46,2.46,0,0,0,.12-.71Z"/><path class="cls-5" d="M1087.06,364.43V368h3.19v1.7h-3.19v6.63c0,1.52.43,2.39,1.67,2.39a5.29,5.29,0,0,0,1.3-.15l.1,1.67a5.41,5.41,0,0,1-2,.31,3.09,3.09,0,0,1-2.41-.94,4.54,4.54,0,0,1-.87-3.2v-6.71H1083V368h1.9V365Z"/><path class="cls-5" d="M1095.26,364.51a1.39,1.39,0,0,1-2.77,0,1.36,1.36,0,0,1,1.39-1.4A1.33,1.33,0,0,1,1095.26,364.51Zm-2.49,15.74V368H1095v12.29Z"/><path class="cls-5" d="M1109.83,374c0,4.54-3.15,6.52-6.12,6.52-3.33,0-5.89-2.44-5.89-6.32,0-4.11,2.69-6.53,6.09-6.53S1109.83,370.25,1109.83,374Zm-9.75.12c0,2.69,1.55,4.73,3.73,4.73s3.73-2,3.73-4.78c0-2.08-1-4.72-3.68-4.72S1100.08,371.8,1100.08,374.13Z"/><path class="cls-5" d="M1112.65,371.29c0-1.27,0-2.31-.1-3.33h2l.12,2h0a4.55,4.55,0,0,1,4.07-2.31c1.7,0,4.34,1,4.34,5.23v7.34h-2.24v-7.08c0-2-.73-3.63-2.84-3.63a3.19,3.19,0,0,0-3,2.28,3.26,3.26,0,0,0-.15,1v7.39h-2.23Z"/><path class="cls-5" d="M1133.54,380.25l-.17-1.55h-.08a4.56,4.56,0,0,1-3.76,1.83,3.49,3.49,0,0,1-3.75-3.53c0-3,2.64-4.59,7.38-4.57v-.25a2.54,2.54,0,0,0-2.79-2.85,6.11,6.11,0,0,0-3.2.92l-.51-1.47a7.65,7.65,0,0,1,4-1.1c3.76,0,4.67,2.57,4.67,5v4.6a16.51,16.51,0,0,0,.21,2.94Zm-.33-6.27c-2.43-.05-5.2.38-5.2,2.77a2,2,0,0,0,2.11,2.13,3.05,3.05,0,0,0,3-2.06,2.46,2.46,0,0,0,.12-.71Z"/><path class="cls-5" d="M1139,362.22h2.23v18H1139Z"/><path class="cls-5" d="M1147.46,364.51a1.39,1.39,0,0,1-2.77,0,1.37,1.37,0,0,1,1.4-1.4A1.33,1.33,0,0,1,1147.46,364.51ZM1145,380.25V368h2.23v12.29Z"/><path class="cls-5" d="M1149.51,379l5.57-7.24c.53-.66,1-1.24,1.59-1.9v-.05H1150V368h9.37l0,1.4-5.49,7.13c-.51.69-1,1.3-1.57,1.93v.05h7.18v1.78h-10Z"/><path class="cls-5" d="M1168.58,380.25l-.17-1.55h-.08a4.58,4.58,0,0,1-3.76,1.83,3.5,3.5,0,0,1-3.76-3.53c0-3,2.64-4.59,7.39-4.57v-.25a2.54,2.54,0,0,0-2.79-2.85,6.11,6.11,0,0,0-3.2.92l-.51-1.47a7.65,7.65,0,0,1,4-1.1c3.76,0,4.67,2.57,4.67,5v4.6a17.57,17.57,0,0,0,.2,2.94Zm-.33-6.27c-2.43-.05-5.2.38-5.2,2.77a2,2,0,0,0,2.11,2.13,3.06,3.06,0,0,0,3-2.06,2.46,2.46,0,0,0,.12-.71Z"/><path class="cls-5" d="M1176.61,364.43V368h3.2v1.7h-3.2v6.63c0,1.52.43,2.39,1.67,2.39a5.29,5.29,0,0,0,1.3-.15l.1,1.67a5.41,5.41,0,0,1-2,.31,3.09,3.09,0,0,1-2.41-.94,4.54,4.54,0,0,1-.87-3.2v-6.71h-1.9V368h1.9V365Z"/><path class="cls-5" d="M1184.81,364.51a1.39,1.39,0,0,1-2.77,0,1.36,1.36,0,0,1,1.4-1.4A1.33,1.33,0,0,1,1184.81,364.51Zm-2.49,15.74V368h2.23v12.29Z"/><path class="cls-5" d="M1199.38,374c0,4.54-3.15,6.52-6.12,6.52-3.32,0-5.89-2.44-5.89-6.32,0-4.11,2.69-6.53,6.1-6.53S1199.38,370.25,1199.38,374Zm-9.75.12c0,2.69,1.55,4.73,3.73,4.73s3.74-2,3.74-4.78c0-2.08-1-4.72-3.69-4.72S1189.63,371.8,1189.63,374.13Z"/><path class="cls-5" d="M1202.2,371.29c0-1.27,0-2.31-.1-3.33h2l.13,2h0a4.53,4.53,0,0,1,4.06-2.31c1.7,0,4.34,1,4.34,5.23v7.34h-2.23v-7.08c0-2-.74-3.63-2.85-3.63a3.17,3.17,0,0,0-3,2.28,3.25,3.25,0,0,0-.16,1v7.39h-2.23Z"/><path class="cls-5" d="M1058.26,399.19c0-1.45,0-2.69-.1-3.84h2l.07,2.42h.1a3.7,3.7,0,0,1,3.41-2.7,2.41,2.41,0,0,1,.63.08v2.11a3.41,3.41,0,0,0-.76-.08,3.14,3.14,0,0,0-3,2.87,6.44,6.44,0,0,0-.1,1v6.55h-2.21Z"/><path class="cls-5" d="M1067.56,401.9c0,3,2,4.27,4.21,4.27a8.17,8.17,0,0,0,3.4-.63l.38,1.59a9.8,9.8,0,0,1-4.08.77c-3.79,0-6-2.49-6-6.2s2.19-6.63,5.77-6.63c4,0,5.07,3.53,5.07,5.79a9.75,9.75,0,0,1-.07,1Zm6.55-1.6c0-1.42-.59-3.63-3.1-3.63-2.26,0-3.25,2.09-3.43,3.63Z"/><path class="cls-5" d="M1087.79,407.19a8.3,8.3,0,0,1-3.53.71c-3.7,0-6.12-2.52-6.12-6.27a6.24,6.24,0,0,1,6.6-6.53,7.53,7.53,0,0,1,3.1.63l-.51,1.73a5.23,5.23,0,0,0-2.59-.58c-2.81,0-4.34,2.08-4.34,4.64,0,2.85,1.83,4.6,4.27,4.6a6.31,6.31,0,0,0,2.74-.61Z"/><path class="cls-5" d="M1101.38,401.4c0,4.54-3.15,6.52-6.12,6.52-3.33,0-5.89-2.44-5.89-6.32,0-4.11,2.69-6.53,6.09-6.53S1101.38,397.64,1101.38,401.4Zm-9.75.12c0,2.69,1.54,4.73,3.73,4.73s3.73-2,3.73-4.78c0-2.08-1-4.72-3.68-4.72S1091.63,399.19,1091.63,401.52Z"/><path class="cls-5" d="M1104.19,398.68c0-1.27,0-2.31-.1-3.33h2l.1,2h.08a4.23,4.23,0,0,1,3.85-2.26,3.63,3.63,0,0,1,3.48,2.47h0a5,5,0,0,1,1.38-1.6,4.15,4.15,0,0,1,2.71-.87c1.63,0,4,1.07,4,5.34v7.23h-2.18v-6.95c0-2.37-.87-3.79-2.67-3.79a2.89,2.89,0,0,0-2.64,2,3.75,3.75,0,0,0-.18,1.12v7.59h-2.18v-7.36c0-2-.87-3.38-2.57-3.38a3,3,0,0,0-2.76,2.24,3,3,0,0,0-.18,1.09v7.41h-2.19Z"/><path class="cls-5" d="M1125.37,398.68c0-1.27,0-2.31-.1-3.33h2l.11,2h.07a4.26,4.26,0,0,1,3.86-2.26,3.63,3.63,0,0,1,3.48,2.47h0a5,5,0,0,1,1.37-1.6,4.2,4.2,0,0,1,2.72-.87c1.62,0,4,1.07,4,5.34v7.23h-2.18v-6.95c0-2.37-.86-3.79-2.66-3.79a2.91,2.91,0,0,0-2.65,2,3.77,3.77,0,0,0-.17,1.12v7.59h-2.19v-7.36c0-2-.86-3.38-2.56-3.38a3.06,3.06,0,0,0-2.77,2.24,3,3,0,0,0-.18,1.09v7.41h-2.18Z"/><path class="cls-5" d="M1147.79,401.9c0,3,2,4.27,4.21,4.27a8.22,8.22,0,0,0,3.41-.63l.38,1.59a9.85,9.85,0,0,1-4.09.77c-3.78,0-6-2.49-6-6.2s2.18-6.63,5.76-6.63c4,0,5.08,3.53,5.08,5.79a7.3,7.3,0,0,1-.08,1Zm6.55-1.6c0-1.42-.58-3.63-3.1-3.63-2.26,0-3.25,2.09-3.42,3.63Z"/><path class="cls-5" d="M1159.27,398.68c0-1.27,0-2.31-.11-3.33h2l.12,2h0a4.54,4.54,0,0,1,4.07-2.31c1.7,0,4.34,1,4.34,5.23v7.34h-2.24v-7.08c0-2-.73-3.63-2.84-3.63a3.18,3.18,0,0,0-3,2.28,3.26,3.26,0,0,0-.15,1v7.39h-2.23Z"/><path class="cls-5" d="M1184,389.62v14.85c0,1.09,0,2.33.1,3.17h-2l-.11-2.13h0a4.54,4.54,0,0,1-4.19,2.41c-3,0-5.25-2.51-5.25-6.24,0-4.09,2.51-6.61,5.51-6.61a4.12,4.12,0,0,1,3.71,1.88h0v-7.33Zm-2.23,10.74a3.77,3.77,0,0,0-.11-.94,3.27,3.27,0,0,0-3.22-2.59c-2.31,0-3.68,2-3.68,4.74,0,2.49,1.22,4.55,3.63,4.55a3.35,3.35,0,0,0,3.27-2.67,3.67,3.67,0,0,0,.11-1Z"/><path class="cls-5" d="M1194.48,407.64l-.18-1.55h-.07a4.58,4.58,0,0,1-3.76,1.83,3.5,3.5,0,0,1-3.76-3.53c0-3,2.64-4.59,7.39-4.57v-.25a2.54,2.54,0,0,0-2.79-2.85,6.11,6.11,0,0,0-3.2.92l-.51-1.47a7.65,7.65,0,0,1,4-1.1c3.76,0,4.67,2.57,4.67,5v4.6a17.57,17.57,0,0,0,.2,2.94Zm-.33-6.27c-2.44-.05-5.2.38-5.2,2.77a2,2,0,0,0,2.1,2.13,3.07,3.07,0,0,0,3-2.06,2.46,2.46,0,0,0,.12-.71Z"/><path class="cls-5" d="M1202.51,391.82v3.53h3.19v1.7h-3.19v6.63c0,1.53.43,2.39,1.67,2.39a5.29,5.29,0,0,0,1.3-.15l.1,1.67a5.41,5.41,0,0,1-2,.31,3.09,3.09,0,0,1-2.41-.94,4.52,4.52,0,0,1-.87-3.2v-6.71h-1.9v-1.7h1.9v-2.94Z"/><path class="cls-5" d="M1210.71,391.9a1.39,1.39,0,0,1-2.77,0,1.36,1.36,0,0,1,1.4-1.4A1.33,1.33,0,0,1,1210.71,391.9Zm-2.49,15.74V395.35h2.23v12.29Z"/><path class="cls-5" d="M1225.28,401.4c0,4.54-3.15,6.52-6.12,6.52-3.32,0-5.89-2.44-5.89-6.32,0-4.11,2.69-6.53,6.1-6.53S1225.28,397.64,1225.28,401.4Zm-9.75.12c0,2.69,1.55,4.73,3.73,4.73s3.74-2,3.74-4.78c0-2.08-1-4.72-3.69-4.72S1215.53,399.19,1215.53,401.52Z"/><path class="cls-5" d="M1228.1,398.68c0-1.27,0-2.31-.1-3.33h2l.13,2h.05a4.53,4.53,0,0,1,4.06-2.31c1.7,0,4.34,1,4.34,5.23v7.34h-2.23v-7.08c0-2-.74-3.63-2.85-3.63a3.17,3.17,0,0,0-3,2.28,3,3,0,0,0-.16,1v7.39h-2.23Z"/><path class="cls-5" d="M1241.89,405.36a5.84,5.84,0,0,0,2.94.89c1.63,0,2.39-.82,2.39-1.83s-.64-1.65-2.29-2.26c-2.21-.79-3.25-2-3.25-3.48,0-2,1.6-3.61,4.24-3.61a6,6,0,0,1,3,.77l-.55,1.62a4.89,4.89,0,0,0-2.52-.71c-1.32,0-2,.76-2,1.68s.73,1.47,2.33,2.08c2.13.81,3.23,1.88,3.23,3.7,0,2.16-1.68,3.69-4.6,3.69a7,7,0,0,1-3.45-.84Z"/><path class="cls-5" d="M1070.3,500.47a10.88,10.88,0,0,1-4.52.82c-4.83,0-8.46-3.05-8.46-8.66,0-5.36,3.63-9,8.94-9a9.23,9.23,0,0,1,4.06.76l-.53,1.81a8,8,0,0,0-3.45-.72c-4,0-6.68,2.57-6.68,7.06,0,4.19,2.41,6.88,6.58,6.88a8.87,8.87,0,0,0,3.6-.71Z"/><path class="cls-5" d="M1083.83,494.79c0,4.54-3.15,6.52-6.12,6.52-3.32,0-5.89-2.43-5.89-6.32,0-4.11,2.69-6.53,6.09-6.53S1083.83,491,1083.83,494.79Zm-9.75.12c0,2.7,1.55,4.73,3.73,4.73s3.74-2,3.74-4.78c0-2.08-1-4.72-3.69-4.72S1074.08,492.58,1074.08,494.91Z"/><path class="cls-5" d="M1086.34,498.75a5.88,5.88,0,0,0,3,.89c1.62,0,2.39-.82,2.39-1.83s-.64-1.65-2.29-2.26c-2.21-.79-3.25-2-3.25-3.48,0-2,1.6-3.61,4.24-3.61a6,6,0,0,1,3,.77l-.56,1.62a4.81,4.81,0,0,0-2.51-.71c-1.32,0-2.06.76-2.06,1.68s.74,1.47,2.34,2.08c2.13.81,3.22,1.88,3.22,3.71,0,2.15-1.67,3.68-4.59,3.68a7,7,0,0,1-3.45-.84Z"/><path class="cls-5" d="M1099.4,485.21v3.53h3.19v1.71h-3.19v6.62c0,1.53.43,2.39,1.67,2.39a5.29,5.29,0,0,0,1.3-.15l.1,1.67a5.41,5.41,0,0,1-2,.31,3.09,3.09,0,0,1-2.41-.94,4.52,4.52,0,0,1-.87-3.2v-6.7h-1.9v-1.71h1.9V485.8Z"/><path class="cls-5" d="M1110.16,493.34V495h-6.27v-1.65Z"/><path class="cls-5" d="M1112.67,501c.06-.83.11-2.08.11-3.17V483H1115v7.71h0a4.56,4.56,0,0,1,4.19-2.26c3,0,5.2,2.54,5.18,6.28,0,4.39-2.77,6.57-5.51,6.57a4.38,4.38,0,0,1-4.12-2.31h-.07l-.11,2Zm2.32-4.92a4.17,4.17,0,0,0,.1.81,3.44,3.44,0,0,0,3.35,2.62c2.33,0,3.73-1.91,3.73-4.73,0-2.46-1.27-4.57-3.66-4.57a3.56,3.56,0,0,0-3.4,2.74,4.58,4.58,0,0,0-.12.92Z"/><path class="cls-5" d="M1128.47,495.3c0,3,2,4.26,4.21,4.26a8.14,8.14,0,0,0,3.4-.63l.38,1.6a10,10,0,0,1-4.08.76c-3.79,0-6.05-2.49-6.05-6.2s2.19-6.63,5.77-6.63c4,0,5.08,3.53,5.08,5.79a9.63,9.63,0,0,1-.08,1.05Zm6.55-1.6c0-1.43-.59-3.64-3.1-3.64-2.26,0-3.25,2.09-3.43,3.64Z"/><path class="cls-5" d="M1139.94,492.07c0-1.27,0-2.31-.1-3.33h2l.13,2h0a4.52,4.52,0,0,1,4.06-2.32c1.7,0,4.34,1,4.34,5.24V501h-2.23V494c0-2-.74-3.63-2.84-3.63a3.17,3.17,0,0,0-3,2.28,3.26,3.26,0,0,0-.15,1V501h-2.24Z"/><path class="cls-5" d="M1155.28,495.3c0,3,2,4.26,4.21,4.26a8.22,8.22,0,0,0,3.41-.63l.38,1.6a10.1,10.1,0,0,1-4.09.76c-3.78,0-6-2.49-6-6.2s2.18-6.63,5.76-6.63c4,0,5.08,3.53,5.08,5.79a7.61,7.61,0,0,1-.08,1.05Zm6.55-1.6c0-1.43-.58-3.64-3.1-3.64-2.26,0-3.25,2.09-3.43,3.64Z"/><path class="cls-5" d="M1167,501V490.45h-1.72v-1.71H1167v-.66c0-3.25,1.91-5.35,5.36-5.35a6.1,6.1,0,0,1,3.12.81l-.63,1.7a4.7,4.7,0,0,0-2.59-.71c-2.36,0-3,1.65-3,3.6v.61h7.14V501h-2.21V490.45h-4.93V501Z"/><path class="cls-5" d="M1182.73,485.21v3.53h3.19v1.71h-3.19v6.62c0,1.53.43,2.39,1.67,2.39a5.29,5.29,0,0,0,1.3-.15l.1,1.67a5.41,5.41,0,0,1-2,.31,3.09,3.09,0,0,1-2.41-.94,4.52,4.52,0,0,1-.87-3.2v-6.7h-1.9v-1.71h1.9V485.8Z"/><path class="cls-5" d="M1193.49,493.34V495h-6.27v-1.65Z"/><path class="cls-5" d="M1058.26,520c0-1.45,0-2.69-.1-3.84h2l.07,2.42h.1a3.69,3.69,0,0,1,3.41-2.69,2.43,2.43,0,0,1,.63.07V518a3.41,3.41,0,0,0-.76-.08,3.14,3.14,0,0,0-3,2.87,6.44,6.44,0,0,0-.1,1v6.55h-2.21Z"/><path class="cls-5" d="M1069.16,512.68a1.39,1.39,0,0,1-2.77,0,1.35,1.35,0,0,1,1.39-1.39A1.33,1.33,0,0,1,1069.16,512.68Zm-2.49,15.74V516.13h2.23v12.29Z"/><path class="cls-5" d="M1072.3,526.14a5.88,5.88,0,0,0,3,.89c1.62,0,2.39-.82,2.39-1.83s-.64-1.65-2.29-2.26c-2.21-.79-3.25-2-3.25-3.48,0-2,1.6-3.6,4.24-3.6a6.08,6.08,0,0,1,3,.76l-.56,1.62a4.81,4.81,0,0,0-2.51-.71c-1.32,0-2.06.76-2.06,1.68s.74,1.47,2.34,2.08c2.13.81,3.22,1.88,3.22,3.71,0,2.15-1.67,3.68-4.59,3.68a7,7,0,0,1-3.46-.84Z"/><path class="cls-5" d="M1084.87,521.77h.05c.31-.43.74-1,1.09-1.39l3.61-4.25h2.69l-4.75,5.06,5.41,7.23h-2.72l-4.24-5.89-1.14,1.27v4.62h-2.21v-18h2.21Z"/><path class="cls-5" d="M1100,520c0-1.45,0-2.69-.1-3.84h2l.07,2.42h.1a3.69,3.69,0,0,1,3.41-2.69,2.43,2.43,0,0,1,.63.07V518a3.41,3.41,0,0,0-.76-.08,3.15,3.15,0,0,0-3,2.87,6.44,6.44,0,0,0-.1,1v6.55H1100Z"/><path class="cls-5" d="M1109.25,522.69c0,3,2,4.26,4.21,4.26a8.14,8.14,0,0,0,3.4-.63l.38,1.6a10,10,0,0,1-4.08.76c-3.79,0-6.05-2.49-6.05-6.2s2.19-6.62,5.77-6.62c4,0,5.07,3.52,5.07,5.78a10.2,10.2,0,0,1-.07,1.05Zm6.55-1.6c0-1.43-.59-3.63-3.1-3.63-2.26,0-3.25,2.08-3.43,3.63Z"/><path class="cls-5" d="M1120.72,510.4H1123v18h-2.24Z"/><path class="cls-5" d="M1133.52,528.42l-.18-1.54h-.07a4.6,4.6,0,0,1-3.76,1.82,3.5,3.5,0,0,1-3.76-3.53c0-3,2.64-4.59,7.39-4.57v-.25a2.53,2.53,0,0,0-2.79-2.84,6.08,6.08,0,0,0-3.2.91l-.51-1.47a7.62,7.62,0,0,1,4-1.09c3.75,0,4.67,2.56,4.67,5v4.6a17.41,17.41,0,0,0,.2,2.94Zm-.33-6.27c-2.44,0-5.21.38-5.21,2.77a2,2,0,0,0,2.11,2.13,3,3,0,0,0,3-2,2.27,2.27,0,0,0,.13-.71Z"/><path class="cls-5" d="M1141.54,512.61v3.52h3.2v1.71h-3.2v6.62c0,1.53.43,2.39,1.68,2.39a5.27,5.27,0,0,0,1.29-.15l.11,1.67a5.47,5.47,0,0,1-2,.31,3.1,3.1,0,0,1-2.41-.94,4.57,4.57,0,0,1-.86-3.2v-6.7h-1.91v-1.71h1.91v-2.94Z"/><path class="cls-5" d="M1149.74,512.68a1.38,1.38,0,0,1-2.76,0,1.35,1.35,0,0,1,1.39-1.39A1.32,1.32,0,0,1,1149.74,512.68Zm-2.49,15.74V516.13h2.24v12.29Z"/><path class="cls-5" d="M1164.32,522.18c0,4.54-3.15,6.52-6.12,6.52-3.33,0-5.89-2.43-5.89-6.32,0-4.11,2.69-6.52,6.09-6.52S1164.32,518.42,1164.32,522.18Zm-9.75.12c0,2.7,1.55,4.73,3.73,4.73s3.73-2,3.73-4.78c0-2.08-1-4.72-3.68-4.72S1154.57,520,1154.57,522.3Z"/><path class="cls-5" d="M1167.14,519.46c0-1.27,0-2.31-.11-3.33h2l.13,2h0a4.51,4.51,0,0,1,4.06-2.31c1.71,0,4.35,1,4.35,5.23v7.33h-2.24v-7.08c0-2-.73-3.63-2.84-3.63a3.18,3.18,0,0,0-3,2.28,3.28,3.28,0,0,0-.15,1v7.38h-2.23Z"/><path class="cls-5" d="M1180.92,526.14a5.88,5.88,0,0,0,2.95.89c1.62,0,2.38-.82,2.38-1.83s-.63-1.65-2.28-2.26c-2.21-.79-3.25-2-3.25-3.48,0-2,1.6-3.6,4.24-3.6a6.08,6.08,0,0,1,3,.76l-.56,1.62a4.81,4.81,0,0,0-2.51-.71c-1.32,0-2.06.76-2.06,1.68s.74,1.47,2.34,2.08c2.13.81,3.22,1.88,3.22,3.71,0,2.15-1.67,3.68-4.59,3.68a7,7,0,0,1-3.46-.84Z"/><path class="cls-5" d="M1191.28,510.4h2.24v7.66h0a4.1,4.1,0,0,1,1.6-1.57,4.58,4.58,0,0,1,2.28-.63c1.65,0,4.29,1,4.29,5.25v7.31h-2.23v-7c0-2-.74-3.66-2.85-3.66a3.21,3.21,0,0,0-3,2.23,2.69,2.69,0,0,0-.15,1.07v7.41h-2.24Z"/><path class="cls-5" d="M1207.86,512.68a1.31,1.31,0,0,1-1.42,1.37,1.33,1.33,0,0,1-1.35-1.37,1.36,1.36,0,0,1,1.4-1.39A1.32,1.32,0,0,1,1207.86,512.68Zm-2.49,15.74V516.13h2.24v12.29Z"/><path class="cls-5" d="M1211.32,520.15c0-1.58-.06-2.85-.11-4h2l.1,2.11h0a4.83,4.83,0,0,1,4.37-2.38c3,0,5.2,2.51,5.2,6.24,0,4.42-2.69,6.6-5.58,6.6a4.29,4.29,0,0,1-3.78-1.93h-.06v6.68h-2.2Zm2.2,3.27a5.15,5.15,0,0,0,.11.92A3.45,3.45,0,0,0,1217,527c2.36,0,3.73-1.93,3.73-4.75,0-2.46-1.3-4.57-3.66-4.57a3.56,3.56,0,0,0-3.37,2.77,3.47,3.47,0,0,0-.16.91Z"/><path class="cls-5" d="M1058.34,620.93a21.6,21.6,0,0,1,4-.36c2.2,0,3.63.39,4.69,1.25a3.57,3.57,0,0,1,1.42,3,4.07,4.07,0,0,1-2.89,3.76v0a4.4,4.4,0,0,1,3.53,4.29,4.6,4.6,0,0,1-1.45,3.43c-1.19,1.09-3.12,1.6-5.91,1.6a24.21,24.21,0,0,1-3.43-.21Zm2.21,7h2c2.34,0,3.71-1.22,3.71-2.87,0-2-1.52-2.79-3.76-2.79a9.2,9.2,0,0,0-2,.15Zm0,8.2a12.56,12.56,0,0,0,1.85.1c2.29,0,4.39-.84,4.39-3.33,0-2.33-2-3.3-4.41-3.3h-1.83Z"/><path class="cls-5" d="M1082.31,634.46c0,1.27,0,2.39.1,3.35h-2l-.13-2h0a4.62,4.62,0,0,1-4.06,2.28c-1.93,0-4.24-1.06-4.24-5.38v-7.18h2.23v6.8c0,2.34.71,3.91,2.74,3.91a3.13,3.13,0,0,0,3.15-3.17v-7.54h2.24Z"/><path class="cls-5" d="M1085.71,635.53a5.88,5.88,0,0,0,3,.89c1.62,0,2.38-.81,2.38-1.83s-.63-1.65-2.28-2.26c-2.21-.79-3.25-2-3.25-3.48,0-2,1.6-3.6,4.24-3.6a6.11,6.11,0,0,1,3,.76l-.56,1.62a4.81,4.81,0,0,0-2.51-.71c-1.32,0-2.06.76-2.06,1.68s.74,1.47,2.34,2.08c2.13.81,3.22,1.88,3.22,3.71,0,2.16-1.68,3.68-4.6,3.68a7,7,0,0,1-3.45-.84Z"/><path class="cls-5" d="M1098.56,622.07a1.39,1.39,0,0,1-2.77,0,1.36,1.36,0,0,1,1.4-1.39A1.33,1.33,0,0,1,1098.56,622.07Zm-2.49,15.74V625.53h2.23v12.28Z"/><path class="cls-5" d="M1102,628.85c0-1.27,0-2.31-.1-3.32h2l.13,2h0a4.51,4.51,0,0,1,4.06-2.31c1.7,0,4.34,1,4.34,5.23v7.33h-2.23v-7.08c0-2-.74-3.63-2.85-3.63a3.17,3.17,0,0,0-3,2.28,3.05,3.05,0,0,0-.16,1v7.38H1102Z"/><path class="cls-5" d="M1117.35,632.08c.05,3,2,4.26,4.21,4.26a8.17,8.17,0,0,0,3.4-.63l.38,1.6a10,10,0,0,1-4.08.76c-3.79,0-6-2.49-6-6.2s2.19-6.62,5.77-6.62c4,0,5.07,3.53,5.07,5.79a10.18,10.18,0,0,1-.07,1Zm6.55-1.6c0-1.43-.59-3.63-3.1-3.63-2.26,0-3.25,2.08-3.43,3.63Z"/><path class="cls-5" d="M1128.52,635.53a5.87,5.87,0,0,0,2.94.89c1.63,0,2.39-.81,2.39-1.83s-.64-1.65-2.29-2.26c-2.2-.79-3.25-2-3.25-3.48,0-2,1.6-3.6,4.24-3.6a6.13,6.13,0,0,1,3,.76l-.56,1.62a4.85,4.85,0,0,0-2.52-.71c-1.32,0-2,.76-2,1.68s.73,1.47,2.33,2.08c2.14.81,3.23,1.88,3.23,3.71,0,2.16-1.68,3.68-4.6,3.68a7,7,0,0,1-3.45-.84Z"/><path class="cls-5" d="M1138.57,635.53a5.88,5.88,0,0,0,3,.89c1.62,0,2.38-.81,2.38-1.83s-.63-1.65-2.28-2.26c-2.21-.79-3.25-2-3.25-3.48,0-2,1.6-3.6,4.24-3.6a6.08,6.08,0,0,1,3,.76l-.56,1.62a4.81,4.81,0,0,0-2.51-.71c-1.32,0-2.06.76-2.06,1.68s.74,1.47,2.34,2.08c2.13.81,3.22,1.88,3.22,3.71,0,2.16-1.67,3.68-4.59,3.68a7,7,0,0,1-3.46-.84Z"/><path class="cls-5" d="M1163.07,637.36a8.3,8.3,0,0,1-3.53.71c-3.7,0-6.12-2.52-6.12-6.27a6.25,6.25,0,0,1,6.61-6.53,7.34,7.34,0,0,1,3.09.64l-.5,1.72a5.29,5.29,0,0,0-2.59-.58c-2.82,0-4.35,2.08-4.35,4.65,0,2.84,1.83,4.59,4.27,4.59a6.31,6.31,0,0,0,2.74-.61Z"/><path class="cls-5" d="M1172.49,637.81l-.17-1.54h-.08a4.6,4.6,0,0,1-3.76,1.82,3.5,3.5,0,0,1-3.76-3.53c0-3,2.64-4.59,7.39-4.57v-.25a2.53,2.53,0,0,0-2.79-2.84,6.11,6.11,0,0,0-3.2.91l-.51-1.47a7.65,7.65,0,0,1,4-1.09c3.76,0,4.67,2.56,4.67,5v4.6a17.41,17.41,0,0,0,.2,2.94Zm-.33-6.27c-2.43,0-5.2.38-5.2,2.77a2,2,0,0,0,2.11,2.13,3.07,3.07,0,0,0,3-2.05,2.58,2.58,0,0,0,.12-.71Z"/><path class="cls-5" d="M1177.62,635.53a5.88,5.88,0,0,0,3,.89c1.62,0,2.38-.81,2.38-1.83s-.63-1.65-2.28-2.26c-2.21-.79-3.25-2-3.25-3.48,0-2,1.6-3.6,4.24-3.6a6.11,6.11,0,0,1,3,.76l-.56,1.62a4.81,4.81,0,0,0-2.51-.71c-1.32,0-2.06.76-2.06,1.68s.74,1.47,2.34,2.08c2.13.81,3.22,1.88,3.22,3.71,0,2.16-1.67,3.68-4.59,3.68a7,7,0,0,1-3.46-.84Z"/><path class="cls-5" d="M1189.23,632.08c0,3,2,4.26,4.21,4.26a8.17,8.17,0,0,0,3.4-.63l.38,1.6a10,10,0,0,1-4.08.76c-3.79,0-6.05-2.49-6.05-6.2s2.19-6.62,5.77-6.62c4,0,5.07,3.53,5.07,5.79a10.18,10.18,0,0,1-.07,1Zm6.55-1.6c0-1.43-.59-3.63-3.1-3.63-2.26,0-3.25,2.08-3.43,3.63Z"/><path class="cls-5" d="M1060.55,730.09v17.12h-2.21V730.09Z"/><path class="cls-5" d="M1067.66,732h-5.21v-1.88h12.67V732h-5.23v15.24h-2.23Z"/><path class="cls-5" d="M1082.33,738.75c0-1.45,0-2.69-.1-3.83h2l.07,2.41h.1a3.69,3.69,0,0,1,3.41-2.69,2.43,2.43,0,0,1,.63.07v2.11a3.41,3.41,0,0,0-.76-.08,3.15,3.15,0,0,0-3,2.87,6.44,6.44,0,0,0-.1,1v6.56h-2.21Z"/><path class="cls-5" d="M1101.5,741c0,4.54-3.15,6.52-6.12,6.52-3.32,0-5.89-2.43-5.89-6.32,0-4.11,2.69-6.52,6.1-6.52S1101.5,737.2,1101.5,741Zm-9.75.13c0,2.69,1.55,4.72,3.74,4.72s3.73-2,3.73-4.77c0-2.09-1-4.73-3.68-4.73S1091.75,738.75,1091.75,741.09Z"/><path class="cls-5" d="M1111.12,747.21l-.17-1.55h-.08a4.57,4.57,0,0,1-3.76,1.82,3.49,3.49,0,0,1-3.75-3.52c0-3,2.64-4.6,7.38-4.58v-.25a2.53,2.53,0,0,0-2.79-2.84,6.13,6.13,0,0,0-3.2.91l-.51-1.47a7.65,7.65,0,0,1,4-1.09c3.76,0,4.67,2.56,4.67,5v4.6a16.55,16.55,0,0,0,.21,3Zm-.33-6.28c-2.43,0-5.2.38-5.2,2.77a2,2,0,0,0,2.11,2.13,3.06,3.06,0,0,0,3-2.05,2.52,2.52,0,0,0,.12-.71Z"/><path class="cls-5" d="M1127.17,729.18V744c0,1.09,0,2.34.1,3.18h-2l-.1-2.14h-.05a4.56,4.56,0,0,1-4.19,2.41c-3,0-5.26-2.51-5.26-6.24,0-4.09,2.51-6.6,5.51-6.6a4.12,4.12,0,0,1,3.71,1.88h0v-7.34Zm-2.23,10.74a4.29,4.29,0,0,0-.1-.94,3.29,3.29,0,0,0-3.23-2.59c-2.31,0-3.68,2-3.68,4.75,0,2.49,1.22,4.54,3.63,4.54a3.37,3.37,0,0,0,3.28-2.66,4.25,4.25,0,0,0,.1-1Z"/><path class="cls-5" d="M1136.26,738.24c0-1.27,0-2.31-.1-3.32h2l.1,2h.07a4.24,4.24,0,0,1,3.86-2.26,3.62,3.62,0,0,1,3.48,2.46h0a5,5,0,0,1,1.37-1.6,4.2,4.2,0,0,1,2.72-.86c1.62,0,4,1.06,4,5.33v7.24h-2.19v-7c0-2.36-.86-3.79-2.66-3.79a2.89,2.89,0,0,0-2.64,2,3.4,3.4,0,0,0-.18,1.11v7.6H1144v-7.37c0-2-.86-3.38-2.56-3.38a3.06,3.06,0,0,0-2.77,2.24,3.23,3.23,0,0,0-.17,1.09v7.42h-2.19Z"/><path class="cls-5" d="M1164.24,747.21l-.18-1.55H1164a4.6,4.6,0,0,1-3.76,1.82,3.5,3.5,0,0,1-3.76-3.52c0-3,2.64-4.6,7.39-4.58v-.25a2.53,2.53,0,0,0-2.79-2.84,6.11,6.11,0,0,0-3.2.91l-.51-1.47a7.65,7.65,0,0,1,4-1.09c3.76,0,4.67,2.56,4.67,5v4.6a17.62,17.62,0,0,0,.2,3Zm-.33-6.28c-2.44,0-5.2.38-5.2,2.77a2,2,0,0,0,2.1,2.13,3,3,0,0,0,3-2.05,2.22,2.22,0,0,0,.13-.71Z"/><path class="cls-5" d="M1169.68,738.93c0-1.58-.06-2.85-.11-4h2l.1,2.1h0a4.85,4.85,0,0,1,4.37-2.38c3,0,5.2,2.51,5.2,6.24,0,4.42-2.69,6.6-5.58,6.6a4.29,4.29,0,0,1-3.78-1.93h-.06v6.68h-2.2Zm2.2,3.27a5.15,5.15,0,0,0,.11.92,3.43,3.43,0,0,0,3.35,2.61c2.36,0,3.73-1.93,3.73-4.75,0-2.46-1.29-4.57-3.66-4.57a3.57,3.57,0,0,0-3.37,2.77,3.48,3.48,0,0,0-.16.92Z"/><path class="cls-5" d="M612.19,267.33l-1.78,5.38h-2.29l5.82-17.12h2.67l5.84,17.12h-2.37l-1.82-5.38Zm5.61-1.73-1.68-4.93c-.38-1.11-.63-2.13-.89-3.12h-.05c-.25,1-.53,2.06-.86,3.1l-1.68,5Z"/><path class="cls-5" d="M624.81,264.43c0-1.57,0-2.84-.11-4h2l.1,2.11h.05a4.84,4.84,0,0,1,4.37-2.39c3,0,5.21,2.51,5.21,6.25,0,4.41-2.7,6.6-5.59,6.6a4.29,4.29,0,0,1-3.78-1.93H627v6.68h-2.21Zm2.21,3.28a5.07,5.07,0,0,0,.1.91,3.44,3.44,0,0,0,3.35,2.62c2.36,0,3.73-1.93,3.73-4.75,0-2.47-1.29-4.57-3.66-4.57a3.56,3.56,0,0,0-3.37,2.76,3.47,3.47,0,0,0-.15.92Z"/><path class="cls-5" d="M639.25,264.43c0-1.57,0-2.84-.1-4h2l.1,2.11h0a4.83,4.83,0,0,1,4.37-2.39c3,0,5.2,2.51,5.2,6.25,0,4.41-2.69,6.6-5.58,6.6a4.32,4.32,0,0,1-3.79-1.93h0v6.68h-2.21Zm2.21,3.28a5.07,5.07,0,0,0,.1.91,3.46,3.46,0,0,0,3.36,2.62c2.36,0,3.73-1.93,3.73-4.75,0-2.47-1.3-4.57-3.66-4.57a3.56,3.56,0,0,0-3.37,2.76,3.48,3.48,0,0,0-.16.92Z"/><path class="cls-5" d="M653.7,254.68h2.24v18H653.7Z"/><path class="cls-5" d="M662.18,257a1.31,1.31,0,0,1-1.42,1.37,1.33,1.33,0,0,1-1.35-1.37,1.37,1.37,0,0,1,1.4-1.4A1.33,1.33,0,0,1,662.18,257Zm-2.49,15.74V260.42h2.24v12.29Z"/><path class="cls-5" d="M674.39,272.25a8.09,8.09,0,0,1-3.52.71c-3.71,0-6.12-2.51-6.12-6.27a6.24,6.24,0,0,1,6.6-6.52,7.57,7.57,0,0,1,3.1.63l-.51,1.73a5.13,5.13,0,0,0-2.59-.59c-2.82,0-4.34,2.08-4.34,4.65,0,2.84,1.82,4.59,4.26,4.59a6.47,6.47,0,0,0,2.74-.6Z"/><path class="cls-5" d="M683.81,272.71l-.17-1.55h-.08A4.61,4.61,0,0,1,679.8,273a3.5,3.5,0,0,1-3.76-3.53c0-3,2.65-4.6,7.39-4.57v-.26a2.53,2.53,0,0,0-2.79-2.84,6.2,6.2,0,0,0-3.2.91l-.51-1.47a7.65,7.65,0,0,1,4-1.09c3.76,0,4.67,2.56,4.67,5v4.59a16.55,16.55,0,0,0,.21,2.95Zm-.33-6.27c-2.43-.05-5.2.38-5.2,2.76a2,2,0,0,0,2.11,2.14,3.06,3.06,0,0,0,3-2.06,2.52,2.52,0,0,0,.12-.71Z"/><path class="cls-5" d="M691.84,256.89v3.53H695v1.7h-3.2v6.63c0,1.52.43,2.38,1.67,2.38a4.84,4.84,0,0,0,1.3-.15l.1,1.68a5.44,5.44,0,0,1-2,.3,3.09,3.09,0,0,1-2.41-.94,4.52,4.52,0,0,1-.87-3.2v-6.7h-1.9v-1.7h1.9v-2.95Z"/><path class="cls-5" d="M700,257a1.39,1.39,0,0,1-2.77,0,1.37,1.37,0,0,1,1.4-1.4A1.33,1.33,0,0,1,700,257Zm-2.49,15.74V260.42h2.23v12.29Z"/><path class="cls-5" d="M714.61,266.46c0,4.55-3.15,6.53-6.12,6.53-3.32,0-5.89-2.44-5.89-6.32,0-4.12,2.69-6.53,6.1-6.53S714.61,262.7,714.61,266.46Zm-9.75.13c0,2.69,1.55,4.72,3.74,4.72s3.73-2,3.73-4.77c0-2.08-1-4.72-3.68-4.72S704.86,264.25,704.86,266.59Z"/><path class="cls-5" d="M717.43,263.75c0-1.27,0-2.32-.1-3.33h2l.13,2h0a4.51,4.51,0,0,1,4.06-2.31c1.7,0,4.34,1,4.34,5.23v7.34h-2.23v-7.09c0-2-.74-3.63-2.85-3.63a3.17,3.17,0,0,0-3,2.29,3.26,3.26,0,0,0-.15,1v7.39h-2.24Z"/><path class="cls-5" d="M609.34,282.07h2.24v7.67h0a4,4,0,0,1,1.6-1.57,4.51,4.51,0,0,1,2.28-.64c1.65,0,4.29,1,4.29,5.26v7.31h-2.23V293c0-2-.74-3.66-2.84-3.66a3.22,3.22,0,0,0-3,2.24,2.61,2.61,0,0,0-.15,1.06v7.42h-2.24Z"/><path class="cls-5" d="M624.68,294.36c.05,3,2,4.27,4.21,4.27a8,8,0,0,0,3.41-.64l.38,1.6a9.93,9.93,0,0,1-4.09.76c-3.78,0-6-2.49-6-6.19s2.18-6.63,5.76-6.63c4,0,5.08,3.53,5.08,5.79a7.43,7.43,0,0,1-.08,1Zm6.55-1.6c0-1.42-.58-3.63-3.1-3.63-2.26,0-3.25,2.08-3.43,3.63Z"/><path class="cls-5" d="M643,300.1l-.18-1.55h-.07a4.61,4.61,0,0,1-3.76,1.83,3.5,3.5,0,0,1-3.76-3.53c0-3,2.64-4.6,7.39-4.57V292a2.53,2.53,0,0,0-2.79-2.84,6.17,6.17,0,0,0-3.2.91l-.51-1.47a7.65,7.65,0,0,1,4-1.09c3.75,0,4.67,2.56,4.67,5v4.59a17.62,17.62,0,0,0,.2,3Zm-.33-6.27c-2.44-.05-5.2.38-5.2,2.76a2,2,0,0,0,2.1,2.14,3.05,3.05,0,0,0,3-2.06,2.22,2.22,0,0,0,.13-.71Z"/><path class="cls-5" d="M648.39,282.07h2.24v18h-2.24Z"/><path class="cls-5" d="M657.08,284.28v3.53h3.2v1.7h-3.2v6.63c0,1.52.43,2.38,1.67,2.38a4.84,4.84,0,0,0,1.3-.15l.1,1.68a5.44,5.44,0,0,1-2,.3,3.09,3.09,0,0,1-2.41-.94,4.52,4.52,0,0,1-.87-3.2v-6.7H653v-1.7h1.9v-2.95Z"/><path class="cls-5" d="M662.79,282.07H665v7.67h.05a4,4,0,0,1,1.6-1.57,4.48,4.48,0,0,1,2.28-.64c1.65,0,4.29,1,4.29,5.26v7.31H671V293c0-2-.74-3.66-2.85-3.66a3.21,3.21,0,0,0-3,2.24,2.61,2.61,0,0,0-.15,1.06v7.42h-2.24Z"/><path class="cls-5" d="M609.42,377.58a25.36,25.36,0,0,1,4.24-.33,7.07,7.07,0,0,1,4.8,1.42,4.6,4.6,0,0,1,1.5,3.58,5.06,5.06,0,0,1-1.32,3.66,7.12,7.12,0,0,1-5.23,1.88,7.45,7.45,0,0,1-1.78-.16v6.86h-2.21Zm2.21,8.25a7.24,7.24,0,0,0,1.83.18c2.66,0,4.29-1.3,4.29-3.66s-1.6-3.35-4-3.35a9.33,9.33,0,0,0-2.08.18Z"/><path class="cls-5" d="M633.34,388.24c0,4.55-3.15,6.53-6.12,6.53-3.33,0-5.89-2.44-5.89-6.32,0-4.12,2.69-6.53,6.09-6.53S633.34,384.49,633.34,388.24Zm-9.75.13c0,2.69,1.55,4.72,3.73,4.72s3.73-2,3.73-4.77c0-2.08-1-4.72-3.68-4.72S623.59,386,623.59,388.37Z"/><path class="cls-5" d="M636.16,386c0-1.44,0-2.69-.11-3.83h2l.08,2.41h.1a3.68,3.68,0,0,1,3.4-2.69,2.41,2.41,0,0,1,.63.08v2.1a3.33,3.33,0,0,0-.76-.07,3.13,3.13,0,0,0-3,2.87,6.33,6.33,0,0,0-.1,1v6.55h-2.21Z"/><path class="cls-5" d="M647.76,378.67v3.53H651v1.7h-3.2v6.63c0,1.52.43,2.39,1.68,2.39a4.73,4.73,0,0,0,1.29-.16l.1,1.68a5.44,5.44,0,0,1-2,.3,3.09,3.09,0,0,1-2.41-.94,4.53,4.53,0,0,1-.86-3.2v-6.7h-1.91v-1.7h1.91v-2.94Z"/><path class="cls-5" d="M653.7,394.49V383.9H652v-1.7h1.73v-.58a5.79,5.79,0,0,1,1.42-4.29,4.26,4.26,0,0,1,3-1.15,5.08,5.08,0,0,1,1.9.36l-.3,1.72a3.4,3.4,0,0,0-1.42-.27c-1.91,0-2.39,1.67-2.39,3.55v.66h3v1.7h-3v10.59Z"/><path class="cls-5" d="M671.68,388.24c0,4.55-3.15,6.53-6.12,6.53-3.33,0-5.89-2.44-5.89-6.32,0-4.12,2.69-6.53,6.09-6.53S671.68,384.49,671.68,388.24Zm-9.75.13c0,2.69,1.55,4.72,3.73,4.72s3.73-2,3.73-4.77c0-2.08-1-4.72-3.68-4.72S661.93,386,661.93,388.37Z"/><path class="cls-5" d="M674.5,376.46h2.23v18H674.5Z"/><path class="cls-5" d="M683,378.75a1.39,1.39,0,0,1-2.77,0,1.36,1.36,0,0,1,1.4-1.4A1.33,1.33,0,0,1,683,378.75Zm-2.49,15.74V382.2h2.23v12.29Z"/><path class="cls-5" d="M697.55,388.24c0,4.55-3.15,6.53-6.12,6.53-3.32,0-5.89-2.44-5.89-6.32,0-4.12,2.69-6.53,6.09-6.53S697.55,384.49,697.55,388.24Zm-9.75.13c0,2.69,1.55,4.72,3.73,4.72s3.74-2,3.74-4.77c0-2.08-1-4.72-3.69-4.72S687.8,386,687.8,388.37Z"/><path class="cls-5" d="M705.75,376.46H708v7.67h0a4.1,4.1,0,0,1,1.6-1.57,4.48,4.48,0,0,1,2.28-.64c1.65,0,4.29,1,4.29,5.26v7.31H714v-7.06c0-2-.74-3.66-2.85-3.66a3.21,3.21,0,0,0-3,2.24,2.64,2.64,0,0,0-.15,1.07v7.41h-2.24Z"/><path class="cls-5" d="M721.09,388.75c0,3,2,4.27,4.21,4.27a8,8,0,0,0,3.4-.64l.39,1.6a9.93,9.93,0,0,1-4.09.76c-3.79,0-6-2.48-6-6.19s2.19-6.63,5.77-6.63c4,0,5.08,3.53,5.08,5.79a7.43,7.43,0,0,1-.08,1Zm6.55-1.6c0-1.42-.59-3.63-3.1-3.63-2.26,0-3.25,2.08-3.43,3.63Z"/><path class="cls-5" d="M739.37,394.49l-.18-1.55h-.07a4.58,4.58,0,0,1-3.76,1.83,3.5,3.5,0,0,1-3.76-3.53c0-3,2.64-4.6,7.39-4.57v-.25a2.54,2.54,0,0,0-2.79-2.85,6.09,6.09,0,0,0-3.2.92l-.51-1.48a7.62,7.62,0,0,1,4-1.09c3.75,0,4.67,2.57,4.67,5v4.59a17.62,17.62,0,0,0,.2,2.95Zm-.33-6.27c-2.44-.05-5.21.38-5.21,2.77a2,2,0,0,0,2.11,2.13,3.05,3.05,0,0,0,3-2.06,2.22,2.22,0,0,0,.13-.71Z"/><path class="cls-5" d="M744.8,376.46H747v18H744.8Z"/><path class="cls-5" d="M753.49,378.67v3.53h3.2v1.7h-3.2v6.63c0,1.52.43,2.39,1.67,2.39a4.76,4.76,0,0,0,1.3-.16l.1,1.68a5.44,5.44,0,0,1-2,.3,3.09,3.09,0,0,1-2.41-.94,4.52,4.52,0,0,1-.87-3.2v-6.7h-1.9v-1.7h1.9v-2.94Z"/><path class="cls-5" d="M759.2,376.46h2.23v7.67h.05a4.23,4.23,0,0,1,1.6-1.57,4.52,4.52,0,0,1,2.29-.64c1.65,0,4.29,1,4.29,5.26v7.31h-2.23v-7.06c0-2-.74-3.66-2.85-3.66a3.2,3.2,0,0,0-3,2.24,2.62,2.62,0,0,0-.16,1.07v7.41H759.2Z"/><path class="cls-5" d="M609.42,494a22.9,22.9,0,0,1,4.24-.36c2.36,0,3.88.43,5,1.4a4.27,4.27,0,0,1,1.35,3.25,4.49,4.49,0,0,1-3.23,4.36v.08c1.32.46,2.11,1.68,2.52,3.45a26,26,0,0,0,1.32,4.7h-2.29a22,22,0,0,1-1.14-4.09c-.51-2.36-1.42-3.25-3.43-3.32h-2.08v7.41h-2.21Zm2.21,7.79h2.26c2.36,0,3.86-1.29,3.86-3.25,0-2.21-1.6-3.17-3.94-3.2a9.19,9.19,0,0,0-2.18.2Z"/><path class="cls-5" d="M624.35,505.14c0,3,2,4.27,4.21,4.27a8,8,0,0,0,3.41-.64l.38,1.6a9.93,9.93,0,0,1-4.09.76c-3.78,0-6-2.48-6-6.19s2.18-6.63,5.76-6.63c4,0,5.08,3.53,5.08,5.79a7.43,7.43,0,0,1-.08,1Zm6.55-1.6c0-1.42-.58-3.63-3.1-3.63-2.26,0-3.25,2.08-3.43,3.63Z"/><path class="cls-5" d="M646.44,492.85v14.86c0,1.09,0,2.33.1,3.17h-2l-.1-2.13h0a4.54,4.54,0,0,1-4.19,2.41c-3,0-5.25-2.51-5.25-6.25,0-4.08,2.51-6.6,5.51-6.6a4.09,4.09,0,0,1,3.7,1.88h.05v-7.34Zm-2.24,10.74a3.76,3.76,0,0,0-.1-.94,3.29,3.29,0,0,0-3.22-2.59c-2.31,0-3.68,2-3.68,4.75,0,2.49,1.22,4.55,3.63,4.55a3.35,3.35,0,0,0,3.27-2.67,3.68,3.68,0,0,0,.1-1Z"/><path class="cls-5" d="M660.43,507.53c0,1.27,0,2.39.1,3.35h-2l-.13-2h0a4.62,4.62,0,0,1-4.06,2.29c-1.93,0-4.24-1.07-4.24-5.38v-7.19h2.23v6.81c0,2.33.72,3.91,2.75,3.91a3.23,3.23,0,0,0,2.94-2,3.17,3.17,0,0,0,.21-1.14v-7.54h2.23Z"/><path class="cls-5" d="M664.14,501.92c0-1.27,0-2.31-.11-3.33h2l.12,2h.05a4.52,4.52,0,0,1,4.07-2.31c1.7,0,4.34,1,4.34,5.23v7.34h-2.24V503.8c0-2-.73-3.63-2.84-3.63a3.18,3.18,0,0,0-3,2.28,3.26,3.26,0,0,0-.15,1v7.39h-2.23Z"/><path class="cls-5" d="M688.84,492.85v14.86c0,1.09,0,2.33.1,3.17h-2l-.1-2.13h-.06a4.53,4.53,0,0,1-4.18,2.41c-3,0-5.26-2.51-5.26-6.25,0-4.08,2.51-6.6,5.51-6.6a4.12,4.12,0,0,1,3.71,1.88h.05v-7.34Zm-2.23,10.74a4.29,4.29,0,0,0-.1-.94,3.29,3.29,0,0,0-3.23-2.59c-2.31,0-3.68,2-3.68,4.75,0,2.49,1.22,4.55,3.63,4.55a3.36,3.36,0,0,0,3.28-2.67,4.16,4.16,0,0,0,.1-1Z"/><path class="cls-5" d="M699.35,510.88l-.17-1.55h-.08a4.58,4.58,0,0,1-3.76,1.83,3.5,3.5,0,0,1-3.76-3.53c0-3,2.64-4.6,7.39-4.57v-.25a2.54,2.54,0,0,0-2.79-2.85,6.11,6.11,0,0,0-3.2.92l-.51-1.48a7.65,7.65,0,0,1,4-1.09c3.76,0,4.67,2.57,4.67,5v4.59a17.62,17.62,0,0,0,.2,2.95Zm-.33-6.27c-2.43-.05-5.2.38-5.2,2.77a2,2,0,0,0,2.11,2.13,3.06,3.06,0,0,0,3-2.06,2.52,2.52,0,0,0,.12-.71Z"/><path class="cls-5" d="M704.79,501.92c0-1.27,0-2.31-.1-3.33h2l.12,2h.05a4.52,4.52,0,0,1,4.07-2.31c1.7,0,4.34,1,4.34,5.23v7.34H713V503.8c0-2-.73-3.63-2.84-3.63a3.18,3.18,0,0,0-3,2.28,3.26,3.26,0,0,0-.15,1v7.39h-2.23Z"/><path class="cls-5" d="M727.64,510.42a8.18,8.18,0,0,1-3.53.71c-3.71,0-6.12-2.51-6.12-6.27a6.24,6.24,0,0,1,6.6-6.52,7.57,7.57,0,0,1,3.1.63l-.51,1.73a5.1,5.1,0,0,0-2.59-.59c-2.82,0-4.34,2.09-4.34,4.65,0,2.84,1.83,4.6,4.27,4.6a6.38,6.38,0,0,0,2.74-.61Z"/><path class="cls-5" d="M731.52,498.59l2.69,7.26c.28.82.59,1.78.79,2.52h0c.23-.74.48-1.68.79-2.57l2.44-7.21h2.36l-3.35,8.76c-1.6,4.22-2.69,6.37-4.22,7.69a6,6,0,0,1-2.74,1.45l-.56-1.88a5.92,5.92,0,0,0,2-1.09,6.8,6.8,0,0,0,1.88-2.49,1.56,1.56,0,0,0,.17-.53,1.87,1.87,0,0,0-.15-.58l-4.54-11.33Z"/><path class="cls-5" d="M612.67,604h-5.21v-1.88h12.67V604H614.9v15.23h-2.23Z"/><path class="cls-5" d="M621.4,613.53c.05,3,2,4.27,4.22,4.27a8,8,0,0,0,3.4-.64l.38,1.6a9.85,9.85,0,0,1-4.09.76c-3.78,0-6-2.48-6-6.19s2.18-6.63,5.76-6.63c4,0,5.08,3.53,5.08,5.79a10,10,0,0,1-.07,1Zm6.55-1.6c0-1.42-.58-3.63-3.09-3.63-2.26,0-3.25,2.08-3.43,3.63Z"/><path class="cls-5" d="M641.64,618.81a8.14,8.14,0,0,1-3.53.71c-3.71,0-6.12-2.51-6.12-6.27a6.24,6.24,0,0,1,6.6-6.52,7.57,7.57,0,0,1,3.1.63l-.51,1.73a5.12,5.12,0,0,0-2.59-.58c-2.81,0-4.34,2.08-4.34,4.64,0,2.85,1.83,4.6,4.27,4.6a6.34,6.34,0,0,0,2.74-.61Z"/><path class="cls-5" d="M644.26,601.24h2.23v7.67h0a4.16,4.16,0,0,1,1.6-1.57,4.62,4.62,0,0,1,2.29-.64c1.65,0,4.29,1,4.29,5.26v7.31h-2.24v-7.06c0-2-.73-3.65-2.84-3.65a3.21,3.21,0,0,0-3,2.23,2.82,2.82,0,0,0-.15,1.07v7.41h-2.23Z"/><path class="cls-5" d="M658.35,610.31c0-1.27,0-2.31-.1-3.33h2l.12,2h0a4.53,4.53,0,0,1,4.07-2.31c1.7,0,4.34,1,4.34,5.23v7.34h-2.24v-7.08c0-2-.73-3.63-2.84-3.63a3.19,3.19,0,0,0-3,2.28,3.26,3.26,0,0,0-.15,1v7.39h-2.23Z"/><path class="cls-5" d="M674.93,603.53a1.39,1.39,0,0,1-2.77,0,1.36,1.36,0,0,1,1.4-1.4A1.33,1.33,0,0,1,674.93,603.53Zm-2.49,15.74V607h2.23v12.29Z"/><path class="cls-5" d="M687.14,618.81a8.14,8.14,0,0,1-3.53.71c-3.71,0-6.12-2.51-6.12-6.27a6.24,6.24,0,0,1,6.6-6.52,7.57,7.57,0,0,1,3.1.63l-.51,1.73a5.12,5.12,0,0,0-2.59-.58c-2.81,0-4.34,2.08-4.34,4.64,0,2.85,1.83,4.6,4.27,4.6a6.34,6.34,0,0,0,2.74-.61Z"/><path class="cls-5" d="M696.56,619.27l-.18-1.55h-.07a4.58,4.58,0,0,1-3.76,1.83,3.5,3.5,0,0,1-3.76-3.53c0-3,2.64-4.6,7.39-4.57v-.25a2.54,2.54,0,0,0-2.79-2.85,6.09,6.09,0,0,0-3.2.92l-.51-1.48a7.65,7.65,0,0,1,4-1.09c3.75,0,4.67,2.57,4.67,5v4.6a17.57,17.57,0,0,0,.2,2.94Zm-.33-6.27c-2.44,0-5.2.38-5.2,2.77a2,2,0,0,0,2.1,2.13,3.05,3.05,0,0,0,3-2.06,2.22,2.22,0,0,0,.13-.71Z"/><path class="cls-5" d="M702,601.24h2.24v18H702Z"/><path class="cls-5" d="M706.11,620.29l7.08-18.41h1.73l-7.11,18.41Z"/><path class="cls-5" d="M722.31,619.27V608.68h-1.73V607h1.73v-.58a5.79,5.79,0,0,1,1.42-4.29,4.24,4.24,0,0,1,3-1.15,5.14,5.14,0,0,1,1.91.36l-.31,1.73a3.2,3.2,0,0,0-1.42-.28c-1.9,0-2.38,1.67-2.38,3.55V607h3v1.7h-3v10.59Z"/><path class="cls-5" d="M739.78,615.92c0,1.27,0,2.39.1,3.35h-2l-.13-2h0a4.62,4.62,0,0,1-4.06,2.29c-1.93,0-4.24-1.07-4.24-5.38V607h2.23v6.81c0,2.33.71,3.91,2.74,3.91a3.24,3.24,0,0,0,3-2,3.46,3.46,0,0,0,.2-1.15V607h2.24Z"/><path class="cls-5" d="M743.48,610.31c0-1.27,0-2.31-.1-3.33h2l.13,2h0a4.51,4.51,0,0,1,4.06-2.31c1.7,0,4.34,1,4.34,5.23v7.34h-2.23v-7.08c0-2-.74-3.63-2.84-3.63a3.17,3.17,0,0,0-3,2.28,3.26,3.26,0,0,0-.15,1v7.39h-2.24Z"/><path class="cls-5" d="M766.33,618.81a8.14,8.14,0,0,1-3.53.71c-3.7,0-6.11-2.51-6.11-6.27a6.24,6.24,0,0,1,6.6-6.52,7.48,7.48,0,0,1,3.09.63l-.5,1.73a5.15,5.15,0,0,0-2.59-.58c-2.82,0-4.34,2.08-4.34,4.64,0,2.85,1.82,4.6,4.26,4.6a6.31,6.31,0,0,0,2.74-.61Z"/><path class="cls-5" d="M772,603.45V607h3.2v1.7H772v6.63c0,1.52.43,2.39,1.68,2.39a4.73,4.73,0,0,0,1.29-.16l.1,1.68a5.4,5.4,0,0,1-2,.3,3.12,3.12,0,0,1-2.41-.93,4.61,4.61,0,0,1-.86-3.2v-6.71h-1.91V607h1.91V604Z"/><path class="cls-5" d="M780.17,603.53a1.31,1.31,0,0,1-1.42,1.37,1.33,1.33,0,0,1-1.35-1.37,1.37,1.37,0,0,1,1.4-1.4A1.33,1.33,0,0,1,780.17,603.53Zm-2.49,15.74V607h2.24v12.29Z"/><path class="cls-5" d="M794.75,613c0,4.55-3.15,6.53-6.12,6.53-3.33,0-5.89-2.44-5.89-6.32,0-4.12,2.69-6.53,6.09-6.53S794.75,609.27,794.75,613Zm-9.75.13c0,2.69,1.54,4.72,3.73,4.72s3.73-2,3.73-4.77c0-2.08-1-4.72-3.68-4.72S785,610.82,785,613.15Z"/><path class="cls-5" d="M797.56,610.31c0-1.27,0-2.31-.1-3.33h2l.13,2h0a4.51,4.51,0,0,1,4.06-2.31c1.7,0,4.35,1,4.35,5.23v7.34h-2.24v-7.08c0-2-.74-3.63-2.84-3.63a3.17,3.17,0,0,0-3,2.28,3.26,3.26,0,0,0-.15,1v7.39h-2.24Z"/><path class="cls-5" d="M818.46,619.27l-.18-1.55h-.07a4.58,4.58,0,0,1-3.76,1.83,3.5,3.5,0,0,1-3.76-3.53c0-3,2.64-4.6,7.39-4.57v-.25a2.54,2.54,0,0,0-2.79-2.85,6.09,6.09,0,0,0-3.2.92l-.51-1.48a7.65,7.65,0,0,1,4-1.09c3.75,0,4.67,2.57,4.67,5v4.6a17.57,17.57,0,0,0,.2,2.94Zm-.33-6.27c-2.44,0-5.2.38-5.2,2.77a2,2,0,0,0,2.1,2.13,3.05,3.05,0,0,0,3-2.06,2.22,2.22,0,0,0,.13-.71Z"/><path class="cls-5" d="M823.89,601.24h2.24v18h-2.24Z"/><path class="cls-5" d="M609.57,646.66V636.07h-1.72v-1.7h1.72v-.53a5.55,5.55,0,0,1,1.73-4.24,5.84,5.84,0,0,1,3.93-1.25,7.9,7.9,0,0,1,3.69.82v17.49h-2.21V630.41a4,4,0,0,0-1.83-.33c-2.34,0-3.1,1.7-3.1,3.68v.61h2.87v1.7h-2.87v10.59Z"/><path class="cls-5" d="M623.87,640.92c0,3,2,4.27,4.21,4.27a8,8,0,0,0,3.4-.64l.39,1.6a9.89,9.89,0,0,1-4.09.77c-3.79,0-6-2.49-6-6.2s2.19-6.63,5.77-6.63c4,0,5.08,3.53,5.08,5.79a7.43,7.43,0,0,1-.08,1Zm6.55-1.6c0-1.42-.59-3.63-3.1-3.63-2.26,0-3.25,2.08-3.43,3.63Z"/><path class="cls-5" d="M636.31,634.37l1.75,2.64c.46.69.84,1.32,1.24,2h.08c.41-.74.81-1.37,1.22-2l1.73-2.62h2.41l-4.19,5.94,4.32,6.35h-2.54l-1.81-2.77c-.48-.71-.89-1.39-1.32-2.13h-.05c-.4.74-.84,1.4-1.29,2.13l-1.78,2.77h-2.46l4.36-6.27-4.16-6Z"/><path class="cls-5" d="M649.51,630.92a1.31,1.31,0,0,1-1.42,1.37,1.33,1.33,0,0,1-1.35-1.37,1.37,1.37,0,0,1,1.4-1.4A1.33,1.33,0,0,1,649.51,630.92ZM647,646.66V634.37h2.24v12.29Z"/><path class="cls-5" d="M652.86,646.66c0-.84.1-2.08.1-3.17V628.63h2.21v7.72h.05a4.58,4.58,0,0,1,4.19-2.26c3.05,0,5.21,2.54,5.18,6.27,0,4.4-2.76,6.58-5.51,6.58a4.37,4.37,0,0,1-4.11-2.31h-.08l-.1,2Zm2.31-4.92a3.67,3.67,0,0,0,.11.81,3.43,3.43,0,0,0,3.35,2.61c2.33,0,3.73-1.9,3.73-4.72,0-2.46-1.27-4.57-3.66-4.57a3.56,3.56,0,0,0-3.4,2.74,4.52,4.52,0,0,0-.13.92Z"/><path class="cls-5" d="M669.9,630.92a1.31,1.31,0,0,1-1.42,1.37,1.33,1.33,0,0,1-1.35-1.37,1.37,1.37,0,0,1,1.4-1.4A1.33,1.33,0,0,1,669.9,630.92Zm-2.49,15.74V634.37h2.24v12.29Z"/><path class="cls-5" d="M673.35,628.63h2.24v18h-2.24Z"/><path class="cls-5" d="M681.83,630.92a1.38,1.38,0,0,1-2.76,0,1.36,1.36,0,0,1,1.39-1.4A1.33,1.33,0,0,1,681.83,630.92Zm-2.48,15.74V634.37h2.23v12.29Z"/><path class="cls-5" d="M688,630.84v3.53h3.2v1.7H688v6.63c0,1.52.43,2.39,1.67,2.39a4.76,4.76,0,0,0,1.3-.16l.1,1.68a5.41,5.41,0,0,1-2,.31,3.09,3.09,0,0,1-2.41-.94,4.54,4.54,0,0,1-.87-3.2v-6.71h-1.9v-1.7h1.9v-2.94Z"/><path class="cls-5" d="M694.73,634.37l2.69,7.26c.28.82.59,1.78.79,2.52h0c.23-.74.48-1.68.79-2.57l2.44-7.21h2.36l-3.35,8.76c-1.6,4.22-2.7,6.38-4.22,7.7a6,6,0,0,1-2.74,1.44l-.56-1.88a5.74,5.74,0,0,0,2-1.09,6.71,6.71,0,0,0,1.87-2.49,1.37,1.37,0,0,0,.18-.53,1.94,1.94,0,0,0-.15-.58l-4.55-11.33Z"/><path class="cls-5" d="M621.38,744.49a10.88,10.88,0,0,1-4.52.82c-4.83,0-8.46-3-8.46-8.66,0-5.36,3.63-9,8.94-9a9.23,9.23,0,0,1,4.06.76l-.53,1.8a8.14,8.14,0,0,0-3.45-.71c-4,0-6.68,2.57-6.68,7.06,0,4.19,2.41,6.88,6.58,6.88a8.87,8.87,0,0,0,3.6-.71Z"/><path class="cls-5" d="M634.91,738.81c0,4.54-3.15,6.52-6.12,6.52-3.32,0-5.89-2.44-5.89-6.32,0-4.11,2.69-6.53,6.1-6.53S634.91,735.05,634.91,738.81Zm-9.75.12c0,2.69,1.55,4.73,3.73,4.73s3.74-2,3.74-4.78c0-2.08-1-4.72-3.68-4.72S625.16,736.6,625.16,738.93Z"/><path class="cls-5" d="M637.43,742.77a5.84,5.84,0,0,0,2.94.89c1.63,0,2.39-.82,2.39-1.83s-.64-1.65-2.29-2.26c-2.21-.79-3.25-2-3.25-3.48,0-2,1.6-3.61,4.24-3.61a6,6,0,0,1,3,.77l-.55,1.62a4.89,4.89,0,0,0-2.52-.71c-1.32,0-2,.76-2,1.68s.73,1.47,2.33,2.08c2.13.81,3.23,1.88,3.23,3.7,0,2.16-1.68,3.69-4.6,3.69a7,7,0,0,1-3.45-.84Z"/><path class="cls-5" d="M650.48,729.23v3.53h3.2v1.7h-3.2v6.63c0,1.52.43,2.39,1.67,2.39a5.29,5.29,0,0,0,1.3-.15l.1,1.67a5.41,5.41,0,0,1-2,.31,3.09,3.09,0,0,1-2.41-.94,4.54,4.54,0,0,1-.87-3.2v-6.71h-1.9v-1.7h1.9v-2.94Z"/><path class="cls-5" d="M672.69,738.81c0,4.54-3.15,6.52-6.12,6.52-3.32,0-5.89-2.44-5.89-6.32,0-4.11,2.69-6.53,6.1-6.53S672.69,735.05,672.69,738.81Zm-9.75.12c0,2.69,1.55,4.73,3.74,4.73s3.73-2,3.73-4.78c0-2.08-1-4.72-3.68-4.72S662.94,736.6,662.94,738.93Z"/><path class="cls-5" d="M675.74,745.05V734.46H674v-1.7h1.73v-.58a5.79,5.79,0,0,1,1.42-4.29,4.3,4.3,0,0,1,3-1.14,5.1,5.1,0,0,1,1.9.35l-.3,1.73a3.23,3.23,0,0,0-1.42-.28c-1.91,0-2.39,1.67-2.39,3.55v.66h3v1.7h-3v10.59Z"/><path class="cls-5" d="M620.46,758.2c0,4.54-3.14,6.52-6.11,6.52-3.33,0-5.9-2.44-5.9-6.32,0-4.11,2.7-6.53,6.1-6.53S620.46,754.44,620.46,758.2Zm-9.75.12c0,2.69,1.55,4.73,3.74,4.73s3.73-2,3.73-4.78c0-2.08-1-4.72-3.68-4.72S610.71,756,610.71,758.32Z"/><path class="cls-5" d="M623.28,756.17c0-1.58,0-2.85-.1-4h2l.1,2.11h.05a4.83,4.83,0,0,1,4.37-2.39c3,0,5.2,2.52,5.2,6.25,0,4.42-2.69,6.6-5.58,6.6a4.32,4.32,0,0,1-3.79-1.93h0v6.68h-2.21Zm2.21,3.27a5,5,0,0,0,.1.91A3.46,3.46,0,0,0,629,763c2.36,0,3.73-1.93,3.73-4.75,0-2.46-1.3-4.57-3.66-4.57a3.58,3.58,0,0,0-3.38,2.77,3.93,3.93,0,0,0-.15.91Z"/><path class="cls-5" d="M639,758.7c.06,3,2,4.27,4.22,4.27a8.17,8.17,0,0,0,3.4-.63l.38,1.59a9.82,9.82,0,0,1-4.09.77c-3.78,0-6-2.49-6-6.2s2.19-6.63,5.77-6.63c4,0,5.07,3.53,5.07,5.79a9.75,9.75,0,0,1-.07,1Zm6.56-1.6c0-1.42-.59-3.63-3.1-3.63-2.26,0-3.25,2.09-3.43,3.63Z"/><path class="cls-5" d="M650.45,756c0-1.45,0-2.69-.1-3.84h1.95l.08,2.42h.1a3.7,3.7,0,0,1,3.4-2.7,2.43,2.43,0,0,1,.64.08v2.11a3.41,3.41,0,0,0-.76-.08,3.13,3.13,0,0,0-3,2.87,6.44,6.44,0,0,0-.1,1v6.55h-2.21Z"/><path class="cls-5" d="M665.43,764.44l-.18-1.55h-.07a4.58,4.58,0,0,1-3.76,1.83,3.5,3.5,0,0,1-3.76-3.53c0-3,2.64-4.59,7.39-4.57v-.25a2.54,2.54,0,0,0-2.79-2.85,6.11,6.11,0,0,0-3.2.92l-.51-1.47a7.65,7.65,0,0,1,4-1.1c3.76,0,4.67,2.57,4.67,5v4.6a17.57,17.57,0,0,0,.2,2.94Zm-.33-6.27c-2.44,0-5.2.38-5.2,2.77a2,2,0,0,0,2.1,2.13,3,3,0,0,0,3-2.06,2.17,2.17,0,0,0,.13-.71Z"/><path class="cls-5" d="M673.45,748.62v3.53h3.2v1.7h-3.2v6.63c0,1.53.44,2.39,1.68,2.39a5.36,5.36,0,0,0,1.3-.15l.1,1.67a5.41,5.41,0,0,1-2,.31,3.12,3.12,0,0,1-2.42-.94,4.57,4.57,0,0,1-.86-3.2v-6.71h-1.9v-1.7h1.9v-2.94Z"/><path class="cls-5" d="M681.66,748.7a1.39,1.39,0,0,1-2.77,0,1.36,1.36,0,0,1,1.39-1.4A1.33,1.33,0,0,1,681.66,748.7Zm-2.49,15.74V752.15h2.23v12.29Z"/><path class="cls-5" d="M696.23,758.2c0,4.54-3.15,6.52-6.12,6.52-3.33,0-5.89-2.44-5.89-6.32,0-4.11,2.69-6.53,6.09-6.53S696.23,754.44,696.23,758.2Zm-9.75.12c0,2.69,1.55,4.73,3.73,4.73s3.74-2,3.74-4.78c0-2.08-1.05-4.72-3.69-4.72S686.48,756,686.48,758.32Z"/><path class="cls-5" d="M699.05,755.48c0-1.27,0-2.31-.1-3.33h2l.12,2h.06a4.52,4.52,0,0,1,4.06-2.31c1.7,0,4.34,1,4.34,5.23v7.34h-2.23v-7.08c0-2-.74-3.63-2.85-3.63a3.17,3.17,0,0,0-3,2.28,3,3,0,0,0-.16,1v7.39h-2.23Z"/><path class="cls-5" d="M712.84,762.16a5.84,5.84,0,0,0,2.94.89c1.63,0,2.39-.82,2.39-1.83s-.64-1.65-2.29-2.26c-2.21-.79-3.25-2-3.25-3.48,0-2,1.6-3.61,4.24-3.61a6,6,0,0,1,3,.77l-.55,1.62a4.89,4.89,0,0,0-2.52-.71c-1.32,0-2.05.76-2.05,1.68s.73,1.47,2.33,2.08c2.13.81,3.23,1.88,3.23,3.7,0,2.16-1.68,3.69-4.6,3.69a7,7,0,0,1-3.45-.84Z"/><line class="cls-6" x1="546.31" y1="381.97" x2="572.56" y2="371.47"/><polyline class="cls-6" points="573.49 364.71 573.49 416.1 498.49 416.1 498.49 356.1 553.45 356.1"/><polygon class="cls-5" points="567.51 366.46 573.49 356.1 579.47 366.46 567.51 366.46"/><path class="cls-7" d="M556.19,360a4.5,4.5,0,1,1,6.8-3.87A4.5,4.5,0,0,1,556.19,360Z"/><rect class="cls-6" x="525.67" y="345.7" width="20.64" height="10.39"/><line class="cls-6" x1="499.3" y1="371.09" x2="525.72" y2="381.9"/><polygon class="cls-6" points="545.62 382.26 539.68 382.26 539.68 376.33 532.3 376.33 532.3 382.26 526.37 382.26 526.37 389.64 532.3 389.64 532.3 395.58 539.68 395.58 539.68 389.64 545.62 389.64 545.62 382.26"/><line class="cls-8" x1="552.26" y1="654.96" x2="552.26" y2="622.33"/><path class="cls-7" d="M556.12,657.7a4.5,4.5,0,1,0-3.87,6.8A4.5,4.5,0,0,0,556.12,657.7Z"/><polygon class="cls-5" points="558.24 624.08 552.25 613.72 546.27 624.08 558.24 624.08"/><path class="cls-8" d="M557.81,646.27V637.2a7.88,7.88,0,0,1,7.89-7.88h1.71"/><polygon class="cls-5" points="565.66 635.3 576.02 629.32 565.66 623.33 565.66 635.3"/><path class="cls-8" d="M537.1,629.32h1.71a7.88,7.88,0,0,1,7.89,7.88V652"/><polygon class="cls-5" points="538.85 635.3 528.49 629.32 538.85 623.33 538.85 635.3"/><line class="cls-7" x1="987.33" y1="486.8" x2="1000.47" y2="489.41"/><polygon class="cls-5" points="997.58 494.93 1008.91 491.08 999.91 483.2 997.58 494.93"/><polyline class="cls-9" points="1021.21 526.52 1007.68 493.76 994.15 526.52"/><path class="cls-9" d="M993.42,526.45a15.34,15.34,0,0,0,28.52,0Z"/><line class="cls-7" x1="979.39" y1="484.98" x2="966.99" y2="482.41"/><polygon class="cls-5" points="969.91 476.91 958.55 480.67 967.49 488.63 969.91 476.91"/><polyline class="cls-9" points="946.25 517.7 959.78 484.93 973.32 517.7"/><path class="cls-9" d="M974.05,517.63a15.36,15.36,0,0,1-28.53,0Z"/><line class="cls-9" x1="983.58" y1="491.84" x2="983.58" y2="547.58"/><path class="cls-7" d="M979.72,489.1a4.5,4.5,0,1,0,3.87-6.8A4.5,4.5,0,0,0,979.72,489.1Z"/><line class="cls-9" x1="972.56" y1="547.58" x2="994.61" y2="547.58"/><circle class="cls-8" cx="953.92" cy="711.04" r="4.5"/><circle class="cls-8" cx="1013.55" cy="770.97" r="4.5"/><polyline class="cls-8" points="994.51 771.01 953.92 771.01 953.92 741.15 1013.65 741.15 1013.65 711.04 958.89 711.04"/><polygon class="cls-5" points="992.76 765.03 1003.13 771.01 992.76 776.99 992.76 765.03"/><polyline class="cls-8" points="1016.13 109.39 1016.13 65.04 967.69 65.04"/><polygon class="cls-5" points="1022.11 107.64 1016.13 118.01 1010.15 107.64 1022.11 107.64"/><polyline class="cls-8" points="955.99 69.95 955.99 139.87 1001.13 139.87 1016.13 124.23"/><line class="cls-8" x1="967.69" y1="74.2" x2="1004.01" y2="74.46"/><line class="cls-8" x1="968.34" y1="129.02" x2="984.9" y2="129.02"/><line class="cls-8" x1="968.08" y1="119.16" x2="1003.79" y2="119.16"/><circle class="cls-8" cx="955.84" cy="65.85" r="4.5"/><circle class="cls-8" cx="985.9" cy="97.96" r="14.02"/><polyline class="cls-8" points="987.2 84 985.9 97.96 998.74 92.33"/><polyline class="cls-8" points="998.12 104.84 985.39 99.25 976.9 108.71"/><circle class="cls-6" cx="983.42" cy="263.72" r="10.3"/><path class="cls-6" d="M954.76,263.1h9.57a19.06,19.06,0,0,1,38.11,0h10.26"/><polygon class="cls-5" points="956.51 269.09 946.15 263.1 956.51 257.12 956.51 269.09"/><polygon class="cls-5" points="1010.95 269.09 1021.31 263.1 1010.95 257.12 1010.95 269.09"/><path class="cls-6" d="M995.57,299.42h4.1a4.1,4.1,0,0,0,4.1-4.11v-7.66a9,9,0,0,0-9-9h-24a9,9,0,0,0-9,9v7.66a4.11,4.11,0,0,0,4.11,4.11H970"/><polyline class="cls-6" points="969.99 290.55 969.99 304.98 995.57 304.98 995.57 290.55"/><line class="cls-6" x1="983.38" y1="244.05" x2="983.38" y2="232.89"/><polygon class="cls-5" points="989.37 234.64 983.38 224.28 977.4 234.64 989.37 234.64"/><circle class="cls-8" cx="522.84" cy="595.19" r="10.3"/><path class="cls-8" d="M506.74,595.19a16.1,16.1,0,0,1,32.2,0v5.42h-16.1"/><path class="cls-8" d="M543.19,619.12a9,9,0,0,0-9-9h-24a9,9,0,0,0-9,9v7.67a4.11,4.11,0,0,0,4.1,4.1h4.1"/><polyline class="cls-8" points="509.41 622.02 509.41 651.04 534.99 651.04 534.99 639.53"/><circle class="cls-8" cx="513.18" cy="748.05" r="7.17"/><path class="cls-8" d="M526.16,755.42H504.41a6.27,6.27,0,0,0-6.27,6.27V767a2.86,2.86,0,0,0,2.85,2.86h2.85"/><polyline class="cls-8" points="503.84 763.71 503.84 777.89 521.63 777.89 521.63 763.88"/><path class="cls-8" d="M1005.67,346.59H970.23a14.36,14.36,0,0,0-14.36,14.35v11.74c0,7.73-6.4,16.23-9.62,19.64l1.11,1h10.25l-.16,23.17h16.83v11.27"/><polygon class="cls-5" points="1003.92 340.61 1014.28 346.59 1003.92 352.57 1003.92 340.61"/><line class="cls-8" x1="957.52" y1="404.48" x2="967.52" y2="404.48"/><path class="cls-8" d="M975.72,404.66h8.57l9.13-19.5h0c4,0,7.71,2.75,6.4,7.24l-3.68,8.93h17.05a3.48,3.48,0,0,1,3.35,4.46l-5.36,18.29a5,5,0,0,1-4.82,3.61H985.15"/><line class="cls-8" x1="1015.6" y1="407.86" x2="997.75" y2="407.86"/><line class="cls-8" x1="1013.6" y1="414.44" x2="997.45" y2="414.44"/><line class="cls-8" x1="1011.93" y1="421.01" x2="997.48" y2="421.01"/><line class="cls-8" x1="1011.9" y1="394.01" x2="1011.9" y2="369.44"/><path class="cls-7" d="M1015.76,366.7a4.5,4.5,0,1,1-3.86-6.8A4.5,4.5,0,0,1,1015.76,366.7Z"/><line class="cls-6" x1="535.45" y1="123.04" x2="535.45" y2="135.55"/><line class="cls-6" x1="522.17" y1="136.96" x2="548.73" y2="136.96"/><line class="cls-6" x1="548.76" y1="83.49" x2="550.68" y2="81.77"/><polygon class="cls-5" points="553.38 87.39 557.09 76.01 545.38 78.49 553.38 87.39"/><polyline class="cls-6" points="571.66 73.37 571.66 121.63 499.64 121.63 499.64 67 550.68 67"/><polygon class="cls-5" points="565.68 75.12 571.66 64.76 577.65 75.12 565.68 75.12"/><path class="cls-7" d="M553.42,70.87a4.5,4.5,0,1,1,6.8-3.87A4.5,4.5,0,0,1,553.42,70.87Z"/><polyline class="cls-6" points="527.87 99.53 525.44 101.45 521.76 96.74 513.43 102.75"/><circle class="cls-6" cx="538.94" cy="92.2" r="8.91"/><line class="cls-6" x1="545.49" y1="98.12" x2="550.57" y2="103.19"/><line class="cls-6" x1="499.64" y1="110.14" x2="571.25" y2="110.14"/><polyline class="cls-8" points="123.27 109.45 123.27 64.02 75.64 64.02"/><polygon class="cls-5" points="129.25 107.7 123.27 118.06 117.28 107.7 129.25 107.7"/><polyline class="cls-8" points="63.38 73.02 63.38 139.24 108.32 139.24 123.27 123.68"/><path class="cls-7" d="M59.52,70.29a4.5,4.5,0,1,0,3.86-6.81A4.5,4.5,0,0,0,59.52,70.29Z"/><line class="cls-8" x1="89.48" y1="81.27" x2="116.17" y2="81.55"/><line class="cls-8" x1="90.16" y1="125.61" x2="105" y2="125.61"/><line class="cls-8" x1="89.89" y1="103.1" x2="115.94" y2="103.1"/><polyline class="cls-8" points="72.85 79.64 76.61 83.68 82.86 77.44"/><polyline class="cls-8" points="72.85 101.37 76.61 105.41 82.86 99.16"/><polyline class="cls-8" points="72.85 121.94 76.61 125.97 82.86 119.73"/><line class="cls-6" x1="92.79" y1="292.4" x2="92.79" y2="308.12"/><line class="cls-6" x1="79.18" y1="308.12" x2="106.41" y2="308.12"/><line class="cls-6" x1="107.15" y1="236.15" x2="110.86" y2="236.15"/><path class="cls-7" d="M113.6,240a4.5,4.5,0,1,1,6.8-3.87A4.51,4.51,0,0,1,113.6,240Z"/><polyline class="cls-6" points="129.52 244.18 129.52 292.4 56.07 292.4 56.07 236.15"/><polygon class="cls-5" points="123.53 245.93 129.52 235.57 135.5 245.93 123.53 245.93"/><line class="cls-6" x1="105.77" y1="280.47" x2="129.52" y2="280.47"/><path class="cls-8" d="M95.05,244.52a6.58,6.58,0,1,0,0-13.16,6.91,6.91,0,0,0-1.71.23,11.68,11.68,0,0,0-21.63-4.79,8.26,8.26,0,0,0-1-.06,8.89,8.89,0,1,0,0,17.78Z"/><rect class="cls-8" x="64.42" y="251.73" width="32.65" height="9.53"/><rect class="cls-8" x="64.42" y="261.26" width="32.65" height="9.53"/><rect class="cls-8" x="64.42" y="270.79" width="32.65" height="9.53"/><line class="cls-8" x1="73.91" y1="287.19" x2="87.57" y2="287.19"/><line class="cls-8" x1="80.74" y1="280.47" x2="80.74" y2="287.19"/><line class="cls-8" x1="67.96" y1="256.5" x2="71.42" y2="256.5"/><line class="cls-8" x1="67.96" y1="266.03" x2="71.42" y2="266.03"/><line class="cls-8" x1="67.96" y1="275.56" x2="71.42" y2="275.56"/><path class="cls-5" d="M191.47,92.94a14.33,14.33,0,0,1-5.89,1c-7.24,0-11.65-4.54-11.65-11.48,0-7.52,5.22-12,12.19-12a13.16,13.16,0,0,1,5.56,1l-.92,3.32a11.13,11.13,0,0,0-4.47-.88c-4.64,0-8,2.91-8,8.4,0,5,2.95,8.22,8,8.22a11.68,11.68,0,0,0,4.54-.84Z"/><path class="cls-5" d="M209.08,88.68c0,2,.07,3.58.13,4.94h-3.65l-.21-2.51h-.06A6,6,0,0,1,200,94c-3,0-5.75-1.79-5.75-7.18V77.13h4.16v9c0,2.75.88,4.51,3.08,4.51a3.52,3.52,0,0,0,3.19-2.24,3.89,3.89,0,0,0,.23-1.28v-10h4.17Z"/><path class="cls-5" d="M213.58,82.45c0-2.24,0-3.83-.14-5.32h3.63l.13,3.15h.14a4.91,4.91,0,0,1,4.5-3.52,4.28,4.28,0,0,1,1,.1v3.93a5.62,5.62,0,0,0-1.22-.14,3.67,3.67,0,0,0-3.72,3.15,6.88,6.88,0,0,0-.14,1.29v8.53h-4.16Z"/><path class="cls-5" d="M225.63,82.45c0-2.24,0-3.83-.14-5.32h3.63l.13,3.15h.14a4.91,4.91,0,0,1,4.5-3.52,4.22,4.22,0,0,1,1,.1v3.93a5.62,5.62,0,0,0-1.22-.14,3.67,3.67,0,0,0-3.72,3.15,6.88,6.88,0,0,0-.14,1.29v8.53h-4.16Z"/><path class="cls-5" d="M240.32,86.54c.1,3,2.44,4.27,5.08,4.27a12.24,12.24,0,0,0,4.57-.75l.61,2.88a15.39,15.39,0,0,1-5.75,1c-5.35,0-8.5-3.29-8.5-8.33,0-4.57,2.77-8.87,8.06-8.87s7.11,4.4,7.11,8a9.88,9.88,0,0,1-.14,1.76Zm7.25-2.91c0-1.52-.64-4-3.42-4-2.57,0-3.66,2.34-3.83,4Z"/><path class="cls-5" d="M254.84,82c0-1.9,0-3.49-.13-4.91h3.66l.2,2.47h.1a6,6,0,0,1,5.25-2.84c2.88,0,5.86,1.86,5.86,7.07v9.79h-4.17V84.31c0-2.37-.88-4.17-3.15-4.17a3.5,3.5,0,0,0-3.25,2.44,4.41,4.41,0,0,0-.17,1.36v9.68h-4.2Z"/><path class="cls-5" d="M278.81,72.42v4.71h4v3.12h-4v7.27c0,2,.55,3,2.14,3a6.19,6.19,0,0,0,1.62-.2l.07,3.18a9,9,0,0,1-3,.41A4.8,4.8,0,0,1,276,92.6c-.88-.94-1.29-2.43-1.29-4.6V80.25h-2.37V77.13h2.37V73.41Z"/><path class="cls-5" d="M292.73,89.79A9.23,9.23,0,0,0,297,91c1.83,0,2.64-.75,2.64-1.83s-.68-1.69-2.71-2.4c-3.21-1.12-4.57-2.88-4.53-4.81,0-2.91,2.4-5.18,6.23-5.18a9.66,9.66,0,0,1,4.36,1l-.81,3a7.35,7.35,0,0,0-3.49-1c-1.49,0-2.3.71-2.3,1.72s.78,1.56,2.88,2.31c3,1.08,4.37,2.6,4.4,5,0,3-2.34,5.15-6.7,5.15a10.76,10.76,0,0,1-5-1.15Z"/><path class="cls-5" d="M311.82,72.42v4.71h4v3.12h-4v7.27c0,2,.54,3,2.13,3a6.22,6.22,0,0,0,1.63-.2l.07,3.18a9.1,9.1,0,0,1-3,.41A4.82,4.82,0,0,1,309,92.6c-.88-.94-1.28-2.43-1.28-4.6V80.25h-2.37V77.13h2.37V73.41Z"/><path class="cls-5" d="M328.21,93.62l-.27-1.83h-.11A6.1,6.1,0,0,1,323,94a4.89,4.89,0,0,1-5.18-4.91c0-4.16,3.69-6.26,9.78-6.23v-.27c0-1.08-.44-2.88-3.35-2.88a8.72,8.72,0,0,0-4.43,1.22L319,78.21a12,12,0,0,1,6-1.45c5.28,0,6.81,3.35,6.81,6.94v6a26.32,26.32,0,0,0,.24,4Zm-.54-8.06c-2.95-.07-5.76.58-5.76,3.08A2.18,2.18,0,0,0,324.28,91a3.36,3.36,0,0,0,3.25-2.27,3,3,0,0,0,.14-.91Z"/><path class="cls-5" d="M340.7,72.42v4.71h4v3.12h-4v7.27c0,2,.54,3,2.13,3a6.34,6.34,0,0,0,1.63-.2l.07,3.18a9.1,9.1,0,0,1-3,.41,4.82,4.82,0,0,1-3.59-1.36c-.88-.94-1.28-2.43-1.28-4.6V80.25h-2.37V77.13h2.37V73.41Z"/><path class="cls-5" d="M350.55,86.54c.1,3,2.44,4.27,5.08,4.27a12.24,12.24,0,0,0,4.57-.75l.61,2.88a15.45,15.45,0,0,1-5.76,1c-5.35,0-8.49-3.29-8.49-8.33,0-4.57,2.77-8.87,8.05-8.87s7.11,4.4,7.11,8a10.09,10.09,0,0,1-.13,1.76Zm7.25-2.91c0-1.52-.65-4-3.42-4-2.58,0-3.66,2.34-3.83,4Z"/><path class="cls-5" d="M177.9,120.4c.1,3,2.43,4.26,5.08,4.26a12.51,12.51,0,0,0,4.57-.74l.61,2.88a15.71,15.71,0,0,1-5.76,1c-5.35,0-8.5-3.28-8.5-8.33,0-4.57,2.78-8.87,8.06-8.87s7.11,4.4,7.11,8a10,10,0,0,1-.14,1.76Zm7.24-2.91c0-1.53-.64-4-3.42-4-2.57,0-3.65,2.33-3.82,4Z"/><path class="cls-5" d="M195,111l2.67,8.37a40.65,40.65,0,0,1,1.12,4.13h.1c.31-1.36.68-2.64,1.12-4.13l2.61-8.37H207l-6.3,16.49h-4.1L190.45,111Z"/><path class="cls-5" d="M218.59,127.47l-.27-1.83h-.1a6.13,6.13,0,0,1-4.88,2.21,4.9,4.9,0,0,1-5.18-4.91c0-4.17,3.69-6.27,9.79-6.23v-.27c0-1.09-.44-2.88-3.36-2.88a8.75,8.75,0,0,0-4.43,1.22l-.81-2.71a11.81,11.81,0,0,1,6-1.46c5.28,0,6.8,3.35,6.8,6.94v6a26.23,26.23,0,0,0,.24,4Zm-.54-8c-3-.07-5.76.57-5.76,3.08a2.19,2.19,0,0,0,2.37,2.37,3.38,3.38,0,0,0,3.25-2.27,3.12,3.12,0,0,0,.14-.92Z"/><path class="cls-5" d="M226.51,103.43h4.2v24h-4.2Z"/><path class="cls-5" d="M250,122.53c0,2,.07,3.59.14,4.94h-3.66l-.2-2.5h-.07a6,6,0,0,1-5.28,2.88c-3,0-5.76-1.8-5.76-7.18V111h4.17v9c0,2.74.88,4.5,3.08,4.5a3.51,3.51,0,0,0,3.18-2.23,3.75,3.75,0,0,0,.24-1.29V111H250Z"/><path class="cls-5" d="M263.75,127.47l-.27-1.83h-.1a6.13,6.13,0,0,1-4.88,2.21,4.9,4.9,0,0,1-5.18-4.91c0-4.17,3.69-6.27,9.79-6.23v-.27c0-1.09-.44-2.88-3.36-2.88a8.75,8.75,0,0,0-4.43,1.22l-.81-2.71a11.81,11.81,0,0,1,6-1.46c5.28,0,6.8,3.35,6.8,6.94v6a26.23,26.23,0,0,0,.24,4Zm-.54-8c-2.95-.07-5.76.57-5.76,3.08a2.19,2.19,0,0,0,2.37,2.37,3.38,3.38,0,0,0,3.25-2.27,3.12,3.12,0,0,0,.14-.92Z"/><path class="cls-5" d="M276.24,106.28V111h4v3.12h-4v7.28c0,2,.54,3.05,2.13,3.05a6.14,6.14,0,0,0,1.63-.21l.07,3.19a9.43,9.43,0,0,1-3,.4,4.81,4.81,0,0,1-3.58-1.35c-.88-.95-1.29-2.44-1.29-4.61V114.1h-2.37V111h2.37v-3.72Z"/><path class="cls-5" d="M287.78,106.38a2.34,2.34,0,0,1-4.67,0,2.34,2.34,0,0,1,4.67,0Zm-4.43,21.09V111h4.2v16.49Z"/><path class="cls-5" d="M307.69,119.08c0,6.06-4.26,8.77-8.46,8.77-4.67,0-8.26-3.22-8.26-8.5s3.55-8.74,8.53-8.74S307.69,114.07,307.69,119.08Zm-12.42.17c0,3.18,1.56,5.58,4.09,5.58,2.37,0,4-2.33,4-5.65,0-2.58-1.15-5.52-4-5.52S295.27,116.5,295.27,119.25Z"/><path class="cls-5" d="M311.11,115.89c0-1.89,0-3.48-.13-4.91h3.65l.2,2.48h.11a5.93,5.93,0,0,1,5.24-2.85c2.88,0,5.86,1.86,5.86,7.08v9.78h-4.16v-9.31c0-2.37-.88-4.16-3.15-4.16a3.49,3.49,0,0,0-3.25,2.44,4.1,4.1,0,0,0-.17,1.35v9.68h-4.2Z"/><path class="cls-5" d="M176.85,254.83v17.11h-2.2V254.83Z"/><path class="cls-5" d="M184,256.71h-5.2v-1.88h12.67v1.88H186.2v15.23H184Z"/><path class="cls-5" d="M201.13,256.2a1.39,1.39,0,0,1-2.77,0,1.36,1.36,0,0,1,1.4-1.4A1.33,1.33,0,0,1,201.13,256.2Zm-2.49,15.74V259.65h2.23v12.29Z"/><path class="cls-5" d="M204.58,263c0-1.27,0-2.31-.1-3.33h2l.13,2h0a4.51,4.51,0,0,1,4.06-2.31c1.7,0,4.34,1,4.34,5.23v7.33h-2.23v-7.08c0-2-.74-3.63-2.85-3.63a3.17,3.17,0,0,0-3,2.28,3.25,3.25,0,0,0-.16,1v7.39h-2.23Z"/><path class="cls-5" d="M218.9,271.94V261.36h-1.73v-1.71h1.73v-.58a5.79,5.79,0,0,1,1.42-4.29,4.3,4.3,0,0,1,3-1.14,5.1,5.1,0,0,1,1.9.35l-.3,1.73a3.38,3.38,0,0,0-1.42-.28c-1.91,0-2.39,1.68-2.39,3.55v.66h3v1.71h-3v10.58Z"/><path class="cls-5" d="M226.09,263.49c0-1.45,0-2.69-.11-3.84h2l.08,2.42h.1a3.68,3.68,0,0,1,3.4-2.69,2.43,2.43,0,0,1,.63.07v2.11a3.28,3.28,0,0,0-.76-.08,3.13,3.13,0,0,0-3,2.87,6.38,6.38,0,0,0-.11,1v6.55h-2.2Z"/><path class="cls-5" d="M241.07,271.94l-.18-1.55h-.08a4.55,4.55,0,0,1-3.76,1.83,3.5,3.5,0,0,1-3.75-3.53c0-3,2.64-4.59,7.39-4.57v-.25a2.53,2.53,0,0,0-2.8-2.84,6.13,6.13,0,0,0-3.2.91l-.5-1.47a7.58,7.58,0,0,1,4-1.09c3.76,0,4.67,2.56,4.67,5V269a17.42,17.42,0,0,0,.21,2.94Zm-.33-6.27c-2.44-.05-5.21.38-5.21,2.77a2,2,0,0,0,2.11,2.13,3.06,3.06,0,0,0,3-2.05,2.28,2.28,0,0,0,.13-.72Z"/><path class="cls-5" d="M246.2,269.66a5.84,5.84,0,0,0,2.94.89c1.63,0,2.39-.82,2.39-1.83s-.64-1.65-2.29-2.26c-2.21-.79-3.25-2-3.25-3.48,0-2,1.6-3.6,4.24-3.6a6.05,6.05,0,0,1,3,.76l-.55,1.62a4.89,4.89,0,0,0-2.52-.71c-1.32,0-2.06.76-2.06,1.68s.74,1.47,2.34,2.08c2.13.81,3.23,1.88,3.23,3.71,0,2.15-1.68,3.68-4.6,3.68a7,7,0,0,1-3.45-.84Z"/><path class="cls-5" d="M259.25,256.13v3.52h3.2v1.71h-3.2V268c0,1.53.43,2.39,1.67,2.39a5.29,5.29,0,0,0,1.3-.15l.1,1.67a5.41,5.41,0,0,1-2,.31,3.09,3.09,0,0,1-2.41-.94,4.52,4.52,0,0,1-.87-3.2v-6.7h-1.9v-1.71h1.9v-2.94Z"/><path class="cls-5" d="M265,263.49c0-1.45,0-2.69-.1-3.84h1.95l.08,2.42h.1a3.68,3.68,0,0,1,3.4-2.69,2.51,2.51,0,0,1,.64.07v2.11a3.41,3.41,0,0,0-.76-.08,3.14,3.14,0,0,0-3,2.87,6.44,6.44,0,0,0-.1,1v6.55H265Z"/><path class="cls-5" d="M283.54,268.59c0,1.27,0,2.39.11,3.35h-2l-.13-2h-.05a4.63,4.63,0,0,1-4.06,2.28c-1.93,0-4.24-1.06-4.24-5.38v-7.19h2.23v6.81c0,2.34.71,3.91,2.74,3.91a3.24,3.24,0,0,0,2.95-2,3.45,3.45,0,0,0,.2-1.14v-7.55h2.23Z"/><path class="cls-5" d="M296,271.49a8.3,8.3,0,0,1-3.53.71c-3.71,0-6.12-2.52-6.12-6.27a6.24,6.24,0,0,1,6.6-6.53,7.39,7.39,0,0,1,3.1.64l-.51,1.72a5.23,5.23,0,0,0-2.59-.58c-2.81,0-4.34,2.08-4.34,4.64,0,2.85,1.83,4.6,4.27,4.6a6.34,6.34,0,0,0,2.74-.61Z"/><path class="cls-5" d="M301.65,256.13v3.52h3.2v1.71h-3.2V268c0,1.53.43,2.39,1.67,2.39a5.29,5.29,0,0,0,1.3-.15l.1,1.67a5.41,5.41,0,0,1-2,.31,3.09,3.09,0,0,1-2.41-.94,4.52,4.52,0,0,1-.87-3.2v-6.7h-1.9v-1.71h1.9v-2.94Z"/><path class="cls-5" d="M317.64,268.59c0,1.27,0,2.39.1,3.35h-2l-.12-2h-.05a4.63,4.63,0,0,1-4.07,2.28c-1.93,0-4.24-1.06-4.24-5.38v-7.19h2.24v6.81c0,2.34.71,3.91,2.74,3.91a3.24,3.24,0,0,0,2.95-2,3.45,3.45,0,0,0,.2-1.14v-7.55h2.23Z"/><path class="cls-5" d="M321.35,263.49c0-1.45,0-2.69-.1-3.84h1.95l.08,2.42h.1a3.69,3.69,0,0,1,3.4-2.69,2.46,2.46,0,0,1,.64.07v2.11a3.41,3.41,0,0,0-.76-.08,3.14,3.14,0,0,0-3,2.87,6.44,6.44,0,0,0-.1,1v6.55h-2.21Z"/><path class="cls-5" d="M330.64,266.21a3.93,3.93,0,0,0,4.22,4.26,8.17,8.17,0,0,0,3.4-.63l.38,1.6a10.06,10.06,0,0,1-4.09.76c-3.78,0-6-2.49-6-6.2s2.18-6.62,5.76-6.62c4,0,5.08,3.52,5.08,5.78a10.2,10.2,0,0,1-.07,1Zm6.55-1.6c0-1.43-.58-3.64-3.09-3.64-2.26,0-3.25,2.09-3.43,3.64Z"/><path class="cls-5" d="M174.65,373.45a21.49,21.49,0,0,1,4-.36c2.21,0,3.63.38,4.7,1.25a3.57,3.57,0,0,1,1.42,3,4.07,4.07,0,0,1-2.89,3.76v.05a4.41,4.41,0,0,1,3.53,4.29,4.64,4.64,0,0,1-1.45,3.43c-1.19,1.09-3.12,1.6-5.92,1.6a25.66,25.66,0,0,1-3.42-.21Zm2.2,7h2c2.34,0,3.71-1.22,3.71-2.87,0-2-1.53-2.79-3.76-2.79a9.31,9.31,0,0,0-2,.15Zm0,8.2a12.8,12.8,0,0,0,1.86.1c2.28,0,4.39-.84,4.39-3.33,0-2.33-2-3.3-4.42-3.3h-1.83Z"/><path class="cls-5" d="M198.61,387c0,1.27,0,2.39.11,3.35h-2l-.13-2h-.05a4.63,4.63,0,0,1-4.07,2.28c-1.92,0-4.24-1.06-4.24-5.38v-7.18h2.24v6.8c0,2.34.71,3.91,2.74,3.91a3.24,3.24,0,0,0,3-2,3.45,3.45,0,0,0,.2-1.14v-7.54h2.23Z"/><path class="cls-5" d="M202,388.05a5.84,5.84,0,0,0,2.94.89c1.63,0,2.39-.81,2.39-1.83s-.64-1.65-2.29-2.26c-2.21-.79-3.25-2-3.25-3.48,0-2,1.6-3.6,4.24-3.6a6.13,6.13,0,0,1,3,.76l-.56,1.62a4.85,4.85,0,0,0-2.52-.71c-1.32,0-2.05.76-2.05,1.68s.73,1.47,2.33,2.08c2.13.81,3.23,1.88,3.23,3.71,0,2.15-1.68,3.68-4.6,3.68a7,7,0,0,1-3.45-.84Z"/><path class="cls-5" d="M214.86,374.59a1.31,1.31,0,0,1-1.42,1.37,1.33,1.33,0,0,1-1.34-1.37,1.35,1.35,0,0,1,1.39-1.39A1.32,1.32,0,0,1,214.86,374.59Zm-2.48,15.74V378.05h2.23v12.28Z"/><path class="cls-5" d="M218.32,381.37c0-1.27,0-2.31-.11-3.32h2l.12,2h.05a4.52,4.52,0,0,1,4.07-2.31c1.7,0,4.34,1,4.34,5.23v7.33h-2.24v-7.08c0-2-.73-3.63-2.84-3.63a3.18,3.18,0,0,0-3,2.28,3.28,3.28,0,0,0-.15,1.05v7.38h-2.23Z"/><path class="cls-5" d="M233.65,384.6a3.93,3.93,0,0,0,4.22,4.26,8.17,8.17,0,0,0,3.4-.63l.38,1.6a10.06,10.06,0,0,1-4.09.76c-3.78,0-6-2.49-6-6.2s2.18-6.62,5.76-6.62c4,0,5.08,3.53,5.08,5.78a7.61,7.61,0,0,1-.08,1.05Zm6.55-1.6c0-1.43-.58-3.63-3.09-3.63-2.26,0-3.25,2.08-3.43,3.63Z"/><path class="cls-5" d="M244.82,388.05a5.88,5.88,0,0,0,3,.89c1.62,0,2.39-.81,2.39-1.83s-.64-1.65-2.29-2.26c-2.21-.79-3.25-2-3.25-3.48,0-2,1.6-3.6,4.24-3.6a6.05,6.05,0,0,1,3,.76l-.56,1.62a4.81,4.81,0,0,0-2.51-.71c-1.32,0-2.06.76-2.06,1.68s.74,1.47,2.34,2.08c2.13.81,3.22,1.88,3.22,3.71,0,2.15-1.67,3.68-4.59,3.68a7,7,0,0,1-3.45-.84Z"/><path class="cls-5" d="M254.88,388.05a5.87,5.87,0,0,0,2.94.89c1.63,0,2.39-.81,2.39-1.83s-.63-1.65-2.28-2.26c-2.21-.79-3.25-2-3.25-3.48,0-2,1.6-3.6,4.24-3.6a6.11,6.11,0,0,1,3,.76l-.56,1.62a4.81,4.81,0,0,0-2.51-.71c-1.33,0-2.06.76-2.06,1.68s.73,1.47,2.33,2.08c2.14.81,3.23,1.88,3.23,3.71,0,2.15-1.68,3.68-4.6,3.68a7,7,0,0,1-3.45-.84Z"/><path class="cls-5" d="M174.57,411.45c0-1.58,0-2.85-.1-4h2l.11,2.1h0a4.83,4.83,0,0,1,4.36-2.38c3,0,5.21,2.51,5.21,6.24,0,4.42-2.69,6.6-5.59,6.6a4.31,4.31,0,0,1-3.78-1.93h-.05v6.68h-2.21Zm2.21,3.27a5.18,5.18,0,0,0,.1.92,3.44,3.44,0,0,0,3.35,2.61c2.36,0,3.73-1.93,3.73-4.75,0-2.46-1.29-4.57-3.65-4.57a3.57,3.57,0,0,0-3.38,2.77,3.47,3.47,0,0,0-.15.92Z"/><path class="cls-5" d="M189,411.27c0-1.45,0-2.69-.11-3.83h2l.08,2.41h.1a3.68,3.68,0,0,1,3.4-2.69,2.43,2.43,0,0,1,.63.07v2.11a3.28,3.28,0,0,0-.76-.08,3.13,3.13,0,0,0-3,2.87,6.44,6.44,0,0,0-.1,1v6.55H189Z"/><path class="cls-5" d="M208.19,413.48c0,4.54-3.15,6.52-6.12,6.52-3.33,0-5.89-2.43-5.89-6.32,0-4.11,2.69-6.52,6.09-6.52S208.19,409.72,208.19,413.48Zm-9.75.13c0,2.69,1.55,4.72,3.73,4.72s3.73-2,3.73-4.78c0-2.08-1-4.72-3.68-4.72S198.44,411.27,198.44,413.61Z"/><path class="cls-5" d="M219.76,419.27a8.24,8.24,0,0,1-3.52.71c-3.71,0-6.12-2.52-6.12-6.27a6.24,6.24,0,0,1,6.6-6.53,7.39,7.39,0,0,1,3.1.64l-.51,1.72a5.26,5.26,0,0,0-2.59-.58c-2.82,0-4.34,2.08-4.34,4.65,0,2.84,1.82,4.59,4.26,4.59a6.31,6.31,0,0,0,2.74-.61Z"/><path class="cls-5" d="M223.47,414a3.93,3.93,0,0,0,4.22,4.26,8.17,8.17,0,0,0,3.4-.63l.38,1.6a10.06,10.06,0,0,1-4.09.76c-3.78,0-6-2.49-6-6.2s2.18-6.62,5.76-6.62c4,0,5.08,3.53,5.08,5.79a7.57,7.57,0,0,1-.08,1Zm6.55-1.6c0-1.43-.58-3.63-3.1-3.63-2.26,0-3.25,2.08-3.42,3.63Z"/><path class="cls-5" d="M234.64,417.44a5.88,5.88,0,0,0,3,.89c1.62,0,2.38-.81,2.38-1.83s-.63-1.65-2.28-2.26c-2.21-.79-3.25-2-3.25-3.48,0-2,1.6-3.6,4.24-3.6a6.08,6.08,0,0,1,3,.76l-.56,1.62a4.81,4.81,0,0,0-2.51-.71c-1.32,0-2.06.76-2.06,1.68s.74,1.47,2.34,2.08c2.13.81,3.22,1.88,3.22,3.71,0,2.16-1.67,3.68-4.59,3.68a7,7,0,0,1-3.46-.84Z"/><path class="cls-5" d="M244.7,417.44a5.87,5.87,0,0,0,2.94.89c1.63,0,2.39-.81,2.39-1.83s-.64-1.65-2.29-2.26c-2.21-.79-3.25-2-3.25-3.48,0-2,1.6-3.6,4.24-3.6a6.13,6.13,0,0,1,3,.76l-.56,1.62a4.85,4.85,0,0,0-2.52-.71c-1.32,0-2.05.76-2.05,1.68s.73,1.47,2.33,2.08c2.14.81,3.23,1.88,3.23,3.71,0,2.16-1.68,3.68-4.6,3.68a7,7,0,0,1-3.45-.84Z"/><path class="cls-5" d="M256.3,414a3.93,3.93,0,0,0,4.22,4.26,8.17,8.17,0,0,0,3.4-.63l.38,1.6a10.06,10.06,0,0,1-4.09.76c-3.78,0-6-2.49-6-6.2s2.18-6.62,5.76-6.62c4,0,5.08,3.53,5.08,5.79a7.57,7.57,0,0,1-.08,1Zm6.55-1.6c0-1.43-.58-3.63-3.1-3.63-2.26,0-3.25,2.08-3.42,3.63Z"/><path class="cls-5" d="M267.47,417.44a5.88,5.88,0,0,0,2.95.89c1.62,0,2.38-.81,2.38-1.83s-.63-1.65-2.28-2.26c-2.21-.79-3.25-2-3.25-3.48,0-2,1.6-3.6,4.24-3.6a6.08,6.08,0,0,1,3,.76l-.56,1.62a4.81,4.81,0,0,0-2.51-.71c-1.32,0-2.06.76-2.06,1.68s.74,1.47,2.34,2.08c2.13.81,3.22,1.88,3.22,3.71,0,2.16-1.67,3.68-4.59,3.68a7,7,0,0,1-3.46-.84Z"/><path class="cls-5" d="M177.41,510.73l-1.77,5.39h-2.29L179.16,499h2.67l5.84,17.12h-2.36l-1.83-5.39ZM183,509l-1.67-4.93c-.38-1.12-.64-2.13-.89-3.12h-.05c-.25,1-.53,2.05-.86,3.09l-1.68,5Z"/><path class="cls-5" d="M190,507.84c0-1.58-.05-2.85-.1-4h2l.1,2.1h.05a4.84,4.84,0,0,1,4.37-2.38c3,0,5.2,2.51,5.2,6.24,0,4.42-2.69,6.6-5.58,6.6a4.32,4.32,0,0,1-3.79-1.93h0v6.68H190Zm2.21,3.27a5.18,5.18,0,0,0,.1.92,3.44,3.44,0,0,0,3.35,2.61c2.37,0,3.74-1.93,3.74-4.75,0-2.46-1.3-4.57-3.66-4.57a3.59,3.59,0,0,0-3.38,2.77,3.93,3.93,0,0,0-.15.92Z"/><path class="cls-5" d="M204.48,507.84c0-1.58,0-2.85-.1-4h2l.11,2.1h0a4.83,4.83,0,0,1,4.36-2.38c3,0,5.21,2.51,5.21,6.24,0,4.42-2.69,6.6-5.59,6.6a4.31,4.31,0,0,1-3.78-1.93h-.05v6.68h-2.21Zm2.21,3.27a5.18,5.18,0,0,0,.1.92,3.44,3.44,0,0,0,3.35,2.61c2.36,0,3.73-1.93,3.73-4.75,0-2.46-1.29-4.57-3.65-4.57a3.57,3.57,0,0,0-3.38,2.77,3.47,3.47,0,0,0-.15.92Z"/><path class="cls-5" d="M218.93,498.09h2.23v18h-2.23Z"/><path class="cls-5" d="M227.41,500.37a1.39,1.39,0,0,1-2.77,0A1.36,1.36,0,0,1,226,499,1.33,1.33,0,0,1,227.41,500.37Zm-2.49,15.75V503.83h2.23v12.29Z"/><path class="cls-5" d="M239.62,515.66a8.33,8.33,0,0,1-3.53.71c-3.71,0-6.12-2.51-6.12-6.27a6.24,6.24,0,0,1,6.6-6.53,7.39,7.39,0,0,1,3.1.64l-.51,1.72a5.23,5.23,0,0,0-2.59-.58c-2.82,0-4.34,2.08-4.34,4.65,0,2.84,1.83,4.59,4.27,4.59a6.34,6.34,0,0,0,2.74-.61Z"/><path class="cls-5" d="M249,516.12l-.18-1.55h-.08a4.56,4.56,0,0,1-3.75,1.82,3.5,3.5,0,0,1-3.76-3.52c0-3,2.64-4.6,7.39-4.57V508a2.53,2.53,0,0,0-2.79-2.84,6.08,6.08,0,0,0-3.2.91l-.51-1.47a7.62,7.62,0,0,1,4-1.09c3.75,0,4.67,2.56,4.67,5v4.6a17.62,17.62,0,0,0,.2,3Zm-.33-6.28c-2.44,0-5.21.38-5.21,2.77a2,2,0,0,0,2.11,2.13,3,3,0,0,0,3-2,2.22,2.22,0,0,0,.13-.71Z"/><path class="cls-5" d="M257.06,500.3v3.53h3.2v1.7h-3.2v6.62c0,1.53.43,2.39,1.68,2.39a5.27,5.27,0,0,0,1.29-.15l.1,1.67a5.37,5.37,0,0,1-2,.31,3.1,3.1,0,0,1-2.41-.94,4.57,4.57,0,0,1-.86-3.2v-6.7H253v-1.7h1.91v-2.95Z"/><path class="cls-5" d="M265.26,500.37a1.38,1.38,0,0,1-2.76,0,1.36,1.36,0,0,1,1.39-1.39A1.32,1.32,0,0,1,265.26,500.37Zm-2.48,15.75V503.83H265v12.29Z"/><path class="cls-5" d="M279.84,509.87c0,4.54-3.15,6.52-6.12,6.52-3.33,0-5.89-2.43-5.89-6.32,0-4.11,2.69-6.52,6.09-6.52S279.84,506.11,279.84,509.87Zm-9.75.13c0,2.69,1.55,4.72,3.73,4.72s3.73-2,3.73-4.77c0-2.09-1-4.73-3.68-4.73S270.09,507.66,270.09,510Z"/><path class="cls-5" d="M282.66,507.15c0-1.27,0-2.31-.11-3.32h2l.13,2h0a4.51,4.51,0,0,1,4.06-2.31c1.71,0,4.35,1,4.35,5.23v7.34h-2.24V509c0-2-.73-3.63-2.84-3.63a3.18,3.18,0,0,0-3,2.29,3.22,3.22,0,0,0-.15,1v7.39h-2.23Z"/><path class="cls-5" d="M296.44,513.83a5.88,5.88,0,0,0,2.95.89c1.62,0,2.38-.81,2.38-1.83s-.63-1.65-2.28-2.26c-2.21-.79-3.25-2-3.25-3.48,0-2,1.6-3.6,4.24-3.6a6.08,6.08,0,0,1,3,.76l-.56,1.62a4.81,4.81,0,0,0-2.51-.71c-1.32,0-2.06.76-2.06,1.68s.74,1.47,2.34,2.08c2.13.81,3.22,1.88,3.22,3.71,0,2.16-1.67,3.68-4.59,3.68a7,7,0,0,1-3.46-.84Z"/><path class="cls-5" d="M174.34,631.81a7.83,7.83,0,0,0,4,1.12c2.26,0,3.58-1.19,3.58-2.92s-.91-2.51-3.22-3.4c-2.8-1-4.52-2.44-4.52-4.85,0-2.67,2.21-4.65,5.53-4.65a7.85,7.85,0,0,1,3.79.84l-.61,1.8a6.88,6.88,0,0,0-3.25-.81c-2.34,0-3.23,1.4-3.23,2.57,0,1.6,1,2.38,3.4,3.3,2.9,1.11,4.37,2.51,4.37,5s-1.95,4.93-6,4.93a8.87,8.87,0,0,1-4.37-1.09Z"/><path class="cls-5" d="M187.09,626.23c0-1.58-.05-2.85-.1-4h2l.1,2.1h0a4.85,4.85,0,0,1,4.37-2.38c3,0,5.21,2.51,5.21,6.24,0,4.42-2.7,6.61-5.59,6.61a4.31,4.31,0,0,1-3.78-1.93h0v6.67h-2.21Zm2.21,3.27a5.18,5.18,0,0,0,.1.92,3.43,3.43,0,0,0,3.35,2.61c2.36,0,3.73-1.93,3.73-4.74,0-2.47-1.29-4.58-3.65-4.58a3.57,3.57,0,0,0-3.38,2.77,3.47,3.47,0,0,0-.15.92Z"/><path class="cls-5" d="M201.53,626.05c0-1.45,0-2.69-.1-3.83h2l.07,2.41h.11a3.67,3.67,0,0,1,3.4-2.69,2.43,2.43,0,0,1,.63.07v2.11a3.39,3.39,0,0,0-.76-.07,3.14,3.14,0,0,0-3,2.86,6.46,6.46,0,0,0-.1,1.05v6.55h-2.21Z"/><path class="cls-5" d="M210.83,628.77c0,3,2,4.26,4.21,4.26a8.14,8.14,0,0,0,3.4-.63l.39,1.6a10.1,10.1,0,0,1-4.09.76c-3.79,0-6.05-2.49-6.05-6.2s2.19-6.62,5.77-6.62c4,0,5.08,3.53,5.08,5.79a7.57,7.57,0,0,1-.08,1Zm6.55-1.6c0-1.42-.59-3.63-3.1-3.63-2.26,0-3.25,2.08-3.43,3.63Z"/><path class="cls-5" d="M229.11,634.51l-.18-1.55h-.08a4.57,4.57,0,0,1-3.75,1.83,3.51,3.51,0,0,1-3.76-3.53c0-3,2.64-4.6,7.39-4.57v-.26a2.54,2.54,0,0,0-2.8-2.84,6.13,6.13,0,0,0-3.2.91l-.5-1.47a7.58,7.58,0,0,1,4-1.09c3.76,0,4.68,2.56,4.68,5v4.6a17.62,17.62,0,0,0,.2,3Zm-.33-6.28c-2.44-.05-5.21.39-5.21,2.77a2,2,0,0,0,2.11,2.13,3.06,3.06,0,0,0,3-2,2.22,2.22,0,0,0,.13-.71Z"/><path class="cls-5" d="M245.15,616.48v14.85c0,1.09,0,2.34.11,3.18h-2l-.1-2.14h-.05a4.57,4.57,0,0,1-4.19,2.42c-3,0-5.26-2.52-5.26-6.25,0-4.09,2.52-6.6,5.51-6.6a4.12,4.12,0,0,1,3.71,1.88h0v-7.34Zm-2.23,10.74a4.29,4.29,0,0,0-.1-.94,3.29,3.29,0,0,0-3.23-2.59c-2.31,0-3.68,2-3.68,4.75,0,2.49,1.22,4.54,3.63,4.54a3.37,3.37,0,0,0,3.28-2.66,4.25,4.25,0,0,0,.1-1Z"/><path class="cls-5" d="M248.56,632.22a5.84,5.84,0,0,0,2.94.89c1.63,0,2.39-.81,2.39-1.83s-.64-1.65-2.29-2.26c-2.21-.79-3.25-2-3.25-3.48,0-2,1.6-3.6,4.24-3.6a6.13,6.13,0,0,1,3,.76l-.56,1.62a4.85,4.85,0,0,0-2.52-.71c-1.32,0-2,.77-2,1.68s.73,1.47,2.33,2.08c2.13.81,3.23,1.88,3.23,3.71,0,2.16-1.68,3.68-4.6,3.68a7,7,0,0,1-3.45-.84Z"/><path class="cls-5" d="M258.92,616.48h2.23v7.67h.05a4.19,4.19,0,0,1,1.6-1.58,4.62,4.62,0,0,1,2.29-.63c1.65,0,4.29,1,4.29,5.25v7.32h-2.24v-7.06c0-2-.73-3.66-2.84-3.66a3.22,3.22,0,0,0-3,2.24,2.8,2.8,0,0,0-.15,1.06v7.42h-2.23Z"/><path class="cls-5" d="M274.25,628.77a3.93,3.93,0,0,0,4.22,4.26,8.17,8.17,0,0,0,3.4-.63l.38,1.6a10.06,10.06,0,0,1-4.09.76c-3.78,0-6-2.49-6-6.2s2.18-6.62,5.76-6.62c4,0,5.08,3.53,5.08,5.79a7.57,7.57,0,0,1-.08,1Zm6.55-1.6c0-1.42-.58-3.63-3.1-3.63-2.25,0-3.25,2.08-3.42,3.63Z"/><path class="cls-5" d="M287,628.77a3.93,3.93,0,0,0,4.22,4.26,8.17,8.17,0,0,0,3.4-.63L295,634a10.06,10.06,0,0,1-4.09.76c-3.78,0-6-2.49-6-6.2s2.18-6.62,5.76-6.62c4,0,5.08,3.53,5.08,5.79a10.18,10.18,0,0,1-.07,1Zm6.55-1.6c0-1.42-.58-3.63-3.09-3.63-2.26,0-3.25,2.08-3.43,3.63Z"/><path class="cls-5" d="M301.14,618.69v3.53h3.2v1.7h-3.2v6.63c0,1.52.43,2.38,1.68,2.38a4.81,4.81,0,0,0,1.29-.15l.1,1.68a5.67,5.67,0,0,1-2,.3,3.09,3.09,0,0,1-2.41-.94,4.53,4.53,0,0,1-.86-3.2v-6.7h-1.91v-1.7H299v-3Z"/><path class="cls-5" d="M306.55,632.22a5.87,5.87,0,0,0,2.94.89c1.63,0,2.39-.81,2.39-1.83s-.64-1.65-2.29-2.26c-2.2-.79-3.25-2-3.25-3.48,0-2,1.6-3.6,4.24-3.6a6.13,6.13,0,0,1,3,.76l-.56,1.62a4.82,4.82,0,0,0-2.52-.71c-1.32,0-2,.77-2,1.68s.73,1.47,2.33,2.08c2.14.81,3.23,1.88,3.23,3.71,0,2.16-1.68,3.68-4.6,3.68a7,7,0,0,1-3.45-.84Z"/><path class="cls-5" d="M174.65,736a32,32,0,0,1,4.69-.35c3.18,0,5.44.73,6.93,2.13a7.87,7.87,0,0,1,2.42,6.14,9.07,9.07,0,0,1-2.47,6.66c-1.6,1.6-4.24,2.46-7.56,2.46a37.25,37.25,0,0,1-4-.2Zm2.2,15.13a13.09,13.09,0,0,0,2.24.13c4.72,0,7.29-2.64,7.29-7.26,0-4-2.26-6.6-6.94-6.6a12.38,12.38,0,0,0-2.59.23Z"/><path class="cls-5" d="M198.28,752.9l-.17-1.55H198a4.61,4.61,0,0,1-3.76,1.83,3.51,3.51,0,0,1-3.76-3.53c0-3,2.65-4.6,7.39-4.57v-.26a2.53,2.53,0,0,0-2.79-2.84,6.11,6.11,0,0,0-3.2.91l-.51-1.47a7.65,7.65,0,0,1,4-1.09c3.76,0,4.67,2.56,4.67,5V750a16.55,16.55,0,0,0,.21,2.95Zm-.33-6.27c-2.43-.06-5.2.38-5.2,2.76a2,2,0,0,0,2.11,2.14,3.06,3.06,0,0,0,3-2.06,2.52,2.52,0,0,0,.12-.71Z"/><path class="cls-5" d="M206.31,737.08v3.53h3.2v1.7h-3.2v6.63c0,1.52.43,2.38,1.67,2.38a4.84,4.84,0,0,0,1.3-.15l.1,1.68a5.67,5.67,0,0,1-2,.3,3.09,3.09,0,0,1-2.41-.94,4.52,4.52,0,0,1-.87-3.2v-6.7h-1.9v-1.7h1.9v-3Z"/><path class="cls-5" d="M218.82,752.9l-.17-1.55h-.08a4.61,4.61,0,0,1-3.76,1.83,3.51,3.51,0,0,1-3.76-3.53c0-3,2.65-4.6,7.39-4.57v-.26a2.53,2.53,0,0,0-2.79-2.84,6.11,6.11,0,0,0-3.2.91l-.51-1.47a7.65,7.65,0,0,1,4-1.09c3.76,0,4.67,2.56,4.67,5V750a16.55,16.55,0,0,0,.21,2.95Zm-.33-6.27c-2.43-.06-5.2.38-5.2,2.76a2,2,0,0,0,2.11,2.14,3.06,3.06,0,0,0,3-2.06,2.52,2.52,0,0,0,.12-.71Z"/><path class="cls-5" d="M224,750.61a5.88,5.88,0,0,0,3,.89c1.62,0,2.38-.81,2.38-1.83s-.63-1.65-2.28-2.26c-2.21-.78-3.25-2-3.25-3.48,0-2,1.6-3.6,4.24-3.6a6.08,6.08,0,0,1,3,.76l-.56,1.62a4.81,4.81,0,0,0-2.51-.71c-1.32,0-2.06.77-2.06,1.68s.74,1.47,2.34,2.08c2.13.81,3.22,1.88,3.22,3.71,0,2.16-1.67,3.68-4.59,3.68a7,7,0,0,1-3.46-.84Z"/><path class="cls-5" d="M235.56,747.16c.05,3,2,4.26,4.21,4.26a8.14,8.14,0,0,0,3.4-.63l.38,1.6a10,10,0,0,1-4.08.76c-3.79,0-6.05-2.49-6.05-6.19s2.19-6.63,5.77-6.63c4,0,5.08,3.53,5.08,5.79a9.62,9.62,0,0,1-.08,1Zm6.55-1.6c0-1.42-.59-3.63-3.1-3.63-2.26,0-3.25,2.08-3.43,3.63Z"/><path class="cls-5" d="M249.72,737.08v3.53h3.2v1.7h-3.2v6.63c0,1.52.44,2.38,1.68,2.38a4.9,4.9,0,0,0,1.3-.15l.1,1.68a5.67,5.67,0,0,1-2,.3,3.12,3.12,0,0,1-2.42-.94,4.57,4.57,0,0,1-.86-3.2v-6.7h-1.9v-1.7h1.9v-3Z"/><path class="cls-5" d="M255.13,750.61a5.88,5.88,0,0,0,2.95.89c1.62,0,2.38-.81,2.38-1.83s-.63-1.65-2.28-2.26c-2.21-.78-3.25-2-3.25-3.48,0-2,1.6-3.6,4.24-3.6a6.08,6.08,0,0,1,3,.76l-.56,1.62a4.81,4.81,0,0,0-2.51-.71c-1.32,0-2.06.77-2.06,1.68s.74,1.47,2.34,2.08c2.13.81,3.22,1.88,3.22,3.71,0,2.16-1.67,3.68-4.59,3.68a7,7,0,0,1-3.46-.84Z"/><rect class="cls-6" x="56.68" y="706.13" width="55.6" height="16.5"/><polyline class="cls-8" points="87.57 739.12 56.68 739.12 56.68 722.63 112.28 722.63 112.28 738.51"/><polyline class="cls-8" points="79.4 739.01 56.68 739.01 56.68 755.5 89.3 755.5"/><polygon class="cls-5" points="87.55 761.49 97.91 755.5 87.55 749.52 87.55 761.49"/><circle class="cls-6" cx="65.65" cy="714.38" r="4.5"/><circle class="cls-6" cx="65.65" cy="730.87" r="4.5"/><circle class="cls-6" cx="65.65" cy="747.26" r="4.5"/><rect class="cls-6" x="82.09" y="739.01" width="46.82" height="31.84"/><line class="cls-8" x1="75.22" y1="714.38" x2="105.26" y2="714.38"/><line class="cls-8" x1="75.22" y1="730.87" x2="105.26" y2="730.87"/><line class="cls-6" x1="104.11" y1="771.79" x2="104.11" y2="780.83"/><line class="cls-6" x1="97.89" y1="782.18" x2="110.86" y2="782.18"/><polyline class="cls-8" points="130.29 371.01 130.29 428.01 55.61 428.01 55.61 362.4 112.71 362.4"/><polygon class="cls-5" points="124.31 372.76 130.29 362.4 136.28 372.76 124.31 372.76"/><rect class="cls-8" x="80.88" y="352.68" width="23.83" height="9.72"/><path class="cls-8" d="M112,380.41a21.46,21.46,0,0,0-13.52-8.91"/><polygon class="cls-5" points="116.48 376.44 115.37 388.36 105.61 381.43 116.48 376.44"/><path class="cls-8" d="M78.57,374.84a21.43,21.43,0,0,0-8.91,13.52"/><polygon class="cls-5" points="74.6 370.38 86.52 371.5 79.59 381.26 74.6 370.38"/><path class="cls-8" d="M73,408.29a21.41,21.41,0,0,0,13.52,8.92"/><polygon class="cls-5" points="68.54 412.26 69.66 400.35 79.42 407.27 68.54 412.26"/><path class="cls-8" d="M106.45,413.87a21.43,21.43,0,0,0,8.92-13.52"/><polygon class="cls-5" points="110.42 418.32 98.51 417.21 105.43 407.44 110.42 418.32"/><rect class="cls-8" x="89.71" y="369.44" width="4.83" height="6.54"/><rect class="cls-8" x="89.71" y="413.72" width="4.83" height="6.54"/><rect class="cls-8" x="67.19" y="391.08" width="4.83" height="6.54" transform="translate(-324.74 463.96) rotate(-90)"/><rect class="cls-8" x="113.95" y="391.08" width="4.83" height="6.54" transform="translate(-277.99 510.72) rotate(-90)"/><line class="cls-6" x1="92.79" y1="522.85" x2="92.79" y2="538.77"/><line class="cls-6" x1="79" y1="538.77" x2="106.59" y2="538.77"/><polyline class="cls-6" points="129.98 473.92 129.98 522.85 55.61 522.85 55.61 465.89 110.89 465.89"/><polygon class="cls-5" points="124 475.67 129.98 465.31 135.96 475.67 124 475.67"/><circle class="cls-6" cx="115.38" cy="465.89" r="4.5"/><line class="cls-6" x1="56.09" y1="510.77" x2="129.98" y2="510.77"/><line class="cls-6" x1="63.79" y1="474.37" x2="66.65" y2="474.37"/><line class="cls-6" x1="73.7" y1="474.37" x2="76.56" y2="474.37"/><polyline class="cls-6" points="62.83 589.99 62.74 659.52 107.8 659.52 122.8 644.52"/><path class="cls-7" d="M59,587.25a4.5,4.5,0,1,0,3.87-6.8A4.5,4.5,0,0,0,59,587.25Z"/><polyline class="cls-6" points="74.22 584.52 122.8 584.52 122.8 628.41"/><polygon class="cls-5" points="116.81 626.66 122.8 637.02 128.78 626.66 116.81 626.66"/><rect class="cls-6" x="74.13" y="605.52" width="37.33" height="33.5"/><line class="cls-6" x1="74.13" y1="596.02" x2="111.46" y2="596.02"/><line class="cls-6" x1="74.13" y1="612.53" x2="111.46" y2="612.53"/><line class="cls-6" x1="85.9" y1="612.53" x2="85.9" y2="639.02"/><line class="cls-6" x1="97.95" y1="612.53" x2="97.95" y2="639.02"/><line class="cls-6" x1="74.13" y1="622.27" x2="111.46" y2="622.27"/><line class="cls-6" x1="74.13" y1="630.53" x2="111.46" y2="630.53"/><line class="cls-6" x1="535.3" y1="303.33" x2="535.3" y2="318.9"/><line class="cls-6" x1="521.82" y1="318.9" x2="548.79" y2="318.9"/><polyline class="cls-6" points="571.66 255.67 571.66 303.33 498.94 303.33 498.94 247.63 553 247.63"/><polygon class="cls-5" points="565.68 257.42 571.66 247.06 577.65 257.42 565.68 257.42"/><circle class="cls-6" cx="557.39" cy="247.63" r="4.5"/><line class="cls-6" x1="499.41" y1="291.52" x2="571.66" y2="291.52"/><line class="cls-6" x1="506.94" y1="255.92" x2="509.73" y2="255.92"/><line class="cls-6" x1="516.63" y1="255.92" x2="519.43" y2="255.92"/><polyline class="cls-6" points="498.94 277.45 519.38 277.45 523.98 268 530.79 281.62 540.04 261.57 547.58 283.65 554.88 275.26 571.24 275.26"/><polyline class="cls-6" points="565.99 479.53 565.99 499.62 505.99 499.62 505.99 479.62 556.69 479.62"/><polygon class="cls-5" points="560.01 481.28 565.99 470.92 571.97 481.28 560.01 481.28"/><rect class="cls-6" x="505.99" y="499.62" width="60" height="20"/><polyline class="cls-6" points="550.99 539.62 505.99 539.62 505.99 519.62 565.99 519.62 565.99 539.62 559.79 539.62"/><circle class="cls-6" cx="518.46" cy="489.62" r="4.5"/><circle class="cls-6" cx="518.46" cy="509.62" r="4.5"/><circle class="cls-6" cx="518.46" cy="529.62" r="4.5"/><line class="cls-6" x1="531.56" y1="489.62" x2="556.69" y2="489.62"/><line class="cls-6" x1="531.56" y1="509.62" x2="556.69" y2="509.62"/><line class="cls-6" x1="531.56" y1="529.62" x2="556.69" y2="529.62"/><polyline class="cls-6" points="559.79 535.04 559.79 548.47 562.82 551.5"/><polyline class="cls-6" points="547.94 551.52 550.99 548.47 550.99 535.04"/><polyline class="cls-8" points="946.25 608.13 946.25 659.52 954.63 617.82 1021.21 617.82 1021.21 607.02 977.73 607.02 970.23 599.52 962.49 599.52"/><polygon class="cls-5" points="940.27 609.88 946.25 599.52 952.24 609.88 940.27 609.88"/><polygon class="cls-8" points="961.23 625.41 951.46 667.02 1011.66 667.02 1023.93 625.32 961.23 625.41"/><path class="cls-8" d="M973.14,654.8l8.48,6.75a3.47,3.47,0,0,0,4.91-.59h0a3.48,3.48,0,0,0-.59-4.86l-8.48-6.73a3.47,3.47,0,0,0-5,.68h0A3.47,3.47,0,0,0,973.14,654.8Z"/><path class="cls-8" d="M986.86,659.64l.35.26a7.15,7.15,0,0,0,8.08.33l5-3.28a4.13,4.13,0,0,0,.81-6.33l-7.39-7.85a5.35,5.35,0,0,0-7.17-.58h0a2.56,2.56,0,0,1-2.22.45L979,640.21l8.68-8.31H997a8.29,8.29,0,0,1,5.43,2l1.57,1.37,8.65.49"/><line class="cls-8" x1="1001.83" y1="650.82" x2="1007.73" y2="650.82"/><polyline class="cls-8" points="985.03 634.17 978.39 634.17 969.12 634.17"/><line class="cls-8" x1="972.73" y1="650.11" x2="966.01" y2="650.11"/><line class="cls-8" x1="975.29" y1="656" x2="979.9" y2="650.7"/><line class="cls-8" x1="979.54" y1="660.39" x2="984.15" y2="655.09"/><line class="cls-8" x1="990.84" y1="655.45" x2="995.29" y2="660.23"/><line class="cls-8" x1="995.07" y1="651.8" x2="999.94" y2="657.32"/><polyline class="cls-8" points="572.7 711.57 572.7 762.65 520.28 762.65"/><polygon class="cls-5" points="566.71 713.32 572.7 702.96 578.68 713.32 566.71 713.32"/><polyline class="cls-8" points="513 737.6 513 702.96 552.49 702.96"/><line class="cls-8" x1="542.45" y1="716.21" x2="542.45" y2="748.56"/><polygon class="cls-5" points="536.47 717.96 542.45 707.6 548.43 717.96 536.47 717.96"/><polygon class="cls-5" points="536.47 746.81 542.45 757.17 548.43 746.81 536.47 746.81"/><line class="cls-8" x1="526.28" y1="732.38" x2="558.63" y2="732.38"/><polygon class="cls-5" points="528.03 738.37 517.67 732.38 528.03 726.4 528.03 738.37"/><polygon class="cls-5" points="556.88 738.37 567.24 732.38 556.88 726.4 556.88 738.37"/><circle class="cls-8" cx="957.99" cy="599.52" r="4.5"/><circle class="cls-8" cx="557.22" cy="702.96" r="4.5"/><circle class="cls-8" cx="116.37" cy="362.4" r="4.5"/></g></svg>