<?xml version="1.0" encoding="utf-8"?>
<!-- Generator: Adobe Illustrator 22.1.0, SVG Export Plug-In . SVG Version: 6.00 Build 0)  -->
<svg version="1.1" xmlns="http://www.w3.org/2000/svg" xmlns:xlink="http://www.w3.org/1999/xlink" x="0px" y="0px" width="350px"
	 height="350px" viewBox="0 0 350 350" style="enable-background:new 0 0 350 350;" xml:space="preserve">
<style type="text/css">
	.st0{fill:#BEE3FF;}
	.st1{fill:#FCDDD6;}
	.st2{fill:none;stroke:#92D1FF;stroke-width:2.3054;stroke-miterlimit:10;}
	.st3{fill:none;stroke:#FBC2BA;stroke-width:2.3054;stroke-miterlimit:10;}
	.st4{fill:#D8E7DA;}
	.st5{fill:none;stroke:#A8D7CD;stroke-width:2.3054;stroke-miterlimit:10;}
	.st6{fill:none;}
	.st7{fill:#F16C51;}
	.st8{fill:#FBC2BA;}
	.st9{fill:#EAC8A5;}
	.st10{fill:#ECE1CE;}
	.st11{fill:#DF9926;}
	.st12{display:none;}
	.st13{display:inline;}
	.st14{fill:none;stroke:#000000;stroke-width:0.1397;stroke-miterlimit:10;}
	.st15{fill:#061838;}
	.st16{fill:#4C0519;}
	.st17{fill:none;stroke:#061838;stroke-width:3;stroke-linecap:square;stroke-miterlimit:10;}
	.st18{fill:none;stroke:#061838;stroke-width:3;stroke-miterlimit:10;}
	.st19{fill:none;stroke:#4C0519;stroke-width:3;stroke-linecap:square;stroke-miterlimit:10;}
	.st20{fill:#00321D;}
	.st21{fill:none;stroke:#4C0519;stroke-width:3;stroke-miterlimit:10;}
	.st22{fill:none;stroke:#F4F0EC;stroke-width:1.5;stroke-miterlimit:10;}
	.st23{fill:#F4F0EC;}
	.st24{fill:none;stroke:#F4F0EC;stroke-width:1.5;stroke-linecap:square;stroke-miterlimit:10;}
	.st25{fill:#FFFFFF;}
	.st26{fill:none;stroke:#00321D;stroke-width:3;stroke-linecap:square;stroke-miterlimit:10;}
	.st27{fill:none;stroke:#00321D;stroke-width:3;stroke-miterlimit:10;}
</style>
<g id="Layer_3">
	<g>
		<path class="st1" d="M342.9,175c0,26.4-6.1,51.4-16.9,73.6c-2.4,5-5,9.7-7.9,14.4c-27.8,45.1-76.2,76-132.2,79.6
			c-3.6,0.2-7.2,0.4-10.9,0.4c-1.9,0-3.7,0-5.5-0.1c-56.3-1.8-105.6-31.3-134.6-75.4c-3-4.6-5.8-9.3-8.4-14.1
			c-12.4-23.4-19.4-50-19.4-78.3c0-27.3,6.5-53.2,18.1-76c2.5-4.9,5.2-9.7,8.1-14.3C61.8,40.2,110.7,10,166.8,7.3
			c2.7-0.1,5.5-0.2,8.2-0.2c2.7,0,5.5,0.1,8.2,0.2c54.2,2.6,101.7,30.9,130.5,73.1c3.1,4.5,6,9.2,8.6,14
			C335.4,118.3,342.9,145.8,342.9,175z"/>
		<path class="st1" d="M237.6,175c0,9.8-2.3,19.1-6.3,27.4c-0.9,1.8-1.9,3.6-3,5.4c-10.3,16.8-28.4,28.3-49.3,29.7
			c-1.3,0.1-2.7,0.1-4.1,0.1c-0.7,0-1.4,0-2.1,0c-21-0.7-39.3-11.7-50.2-28.1c-1.1-1.7-2.2-3.5-3.1-5.3c-4.6-8.7-7.2-18.6-7.2-29.2
			c0-10.2,2.4-19.8,6.8-28.3c0.9-1.8,1.9-3.6,3-5.3c10.6-16.6,28.8-27.9,49.7-28.9c1,0,2-0.1,3.1-0.1c1,0,2,0,3.1,0.1
			c20.2,1,37.9,11.5,48.6,27.2c1.2,1.7,2.2,3.4,3.2,5.2C234.8,153.9,237.6,164.1,237.6,175z"/>
		<path class="st6" d="M323.6,253.2c-1,1.8-1.9,3.6-3,5.4l-92.4-50.8c-10.3,16.8-28.4,28.3-49.3,29.7l1.7,105.4
			c-1.9,0.1-3.8,0.1-5.7,0.1h-0.4l-1.7-105.4c-21-0.7-39.3-11.7-50.2-28.1L32,263.1c-1.1-1.7-2.1-3.5-3.1-5.3l90.7-53.7
			c-4.6-8.7-7.2-18.6-7.2-29.2c0-10.2,2.4-19.8,6.8-28.3L27.6,94.5c1-1.8,2-3.6,3-5.3l91.6,52.2c10.6-16.6,28.8-27.9,49.7-28.9V7.1
			c1,0,2,0,3.1,0c1,0,2,0,3.1,0v105.4c20.2,1,37.9,11.5,48.6,27.2l89.9-55.1c1.1,1.7,2.2,3.5,3.2,5.2l-89.9,55.1
			c4.9,8.9,7.7,19.2,7.7,30.1c0,9.8-2.3,19.1-6.3,27.4L323.6,253.2z"/>
		<path class="st7" d="M171.9,7.1v105.4c-20.9,1-39.1,12.3-49.7,28.9L30.7,89.2C59.5,40.8,111.8,8.2,171.9,7.1z"/>
		<path class="st6" d="M323.6,253.2l-92.4-50.8c4-8.3,6.3-17.6,6.3-27.4c0-10.9-2.8-21.1-7.7-30.1l89.9-55.1l6-3.7
			c-1-1.8-2.1-3.5-3.2-5.2l-6,3.7l-89.9,55.1c-10.7-15.7-28.4-26.2-48.6-27.2V0c-1,0-2,0-3.1,0c-1,0-2,0-3.1,0v112.5
			c-20.9,1-39.1,12.3-49.7,28.9L30.7,89.2l-6.2-3.5c-1,1.8-2.1,3.5-3,5.3l6.1,3.5l91.6,52.2c-4.3,8.5-6.8,18.1-6.8,28.3
			c0,10.5,2.6,20.5,7.2,29.2l-90.7,53.7l-6.1,3.6c1,1.8,2,3.5,3.1,5.3l6.1-3.6l90.7-53.7c10.8,16.4,29.2,27.4,50.2,28.1l1.7,105.4
			l0.1,7.1h0.3c1.9,0,3.9,0,5.8-0.1l-0.1-7.1l-1.7-105.4c20.8-1.3,38.9-12.9,49.3-29.7l92.4,50.8l6.2,3.4c1-1.8,2-3.5,3-5.4
			L323.6,253.2z"/>
		<path class="st8" d="M350,175c0,29.5-7.3,57.2-20.1,81.6l-6.2-3.4c12.3-23.4,19.3-50,19.3-78.2c0-31.1-8.4-60.2-23.2-85.2l6-3.7
			C341.2,112.2,350,142.6,350,175z"/>
		<path class="st8" d="M326.9,262c-29.3,51-83.5,85.9-146.1,87.9l-0.1-7.1c59.9-2,111.9-35.4,140-84.3L326.9,262z"/>
		<path class="st8" d="M174.7,350c-62.9-0.1-118-33.4-148.8-83.3l6.1-3.6c29.5,47.8,82.3,79.7,142.6,79.8L174.7,350z"/>
		<path class="st8" d="M28.9,257.9l-6.1,3.6C8.3,236,0,206.5,0,175c0-30.5,7.8-59.1,21.5-84l6.1,3.5C14.5,118.4,7.1,145.8,7.1,175
			C7.1,205.1,15,233.4,28.9,257.9z"/>
		<path class="st8" d="M171.9,0v7.1c-60.1,1.1-112.5,33.7-141.3,82l-6.2-3.5C54.5,35.2,109.2,1.1,171.9,0z"/>
		<path class="st8" d="M322.6,80.9l-6,3.7C287.2,38.8,236.3,8.1,178.1,7.1V0C238.8,1.1,292,33.1,322.6,80.9z"/>
		<path class="st7" d="M316.5,84.6l-89.9,55.1c-10.7-15.7-28.4-26.2-48.6-27.2V7.1C236.3,8.1,287.2,38.8,316.5,84.6z"/>
		<path class="st7" d="M342.9,175c0,28.2-7,54.8-19.3,78.2l-92.4-50.8c4-8.3,6.3-17.6,6.3-27.4c0-10.9-2.8-21.1-7.7-30.1l89.9-55.1
			C334.5,114.8,342.9,143.9,342.9,175z"/>
		<path class="st7" d="M320.7,258.5c-28.1,48.9-80,82.3-140,84.3l-1.7-105.4c20.8-1.3,38.9-12.9,49.3-29.7L320.7,258.5z"/>
		<path class="st7" d="M174.6,342.9c-60.3-0.1-113.1-32-142.6-79.8l90.7-53.7c10.8,16.4,29.2,27.4,50.2,28.1L174.6,342.9z"/>
		<path class="st7" d="M119.6,204.2l-90.7,53.7C15,233.4,7.1,205.1,7.1,175c0-29.2,7.4-56.6,20.5-80.5l91.6,52.2
			c-4.3,8.5-6.8,18.1-6.8,28.3C112.4,185.5,115,195.5,119.6,204.2z"/>
	</g>
</g>
<g id="Layer_4" class="st12">
	<g class="st13">
		<rect x="203.7" y="22.8" class="st14" width="9" height="9"/>
		<rect x="212.7" y="22.8" class="st14" width="9" height="9"/>
		<rect x="221.7" y="22.8" class="st14" width="9" height="9"/>
		<rect x="230.7" y="22.8" class="st14" width="9" height="9"/>
		<rect x="239.7" y="22.8" class="st14" width="9" height="9"/>
		<rect x="248.7" y="22.8" class="st14" width="9" height="9"/>
		<rect x="203.7" y="31.8" class="st14" width="9" height="9"/>
		<rect x="212.7" y="31.8" class="st14" width="9" height="9"/>
		<rect x="221.7" y="31.8" class="st14" width="9" height="9"/>
		<rect x="230.7" y="31.8" class="st14" width="9" height="9"/>
		<rect x="239.7" y="31.8" class="st14" width="9" height="9"/>
		<rect x="248.7" y="31.8" class="st14" width="9" height="9"/>
		<rect x="203.7" y="40.8" class="st14" width="9" height="9"/>
		<rect x="212.7" y="40.8" class="st14" width="9" height="9"/>
		<rect x="221.7" y="40.8" class="st14" width="9" height="9"/>
		<rect x="230.7" y="40.8" class="st14" width="9" height="9"/>
		<rect x="239.7" y="40.8" class="st14" width="9" height="9"/>
		<rect x="248.7" y="40.8" class="st14" width="9" height="9"/>
		<rect x="203.7" y="49.8" class="st14" width="9" height="9"/>
		<rect x="212.7" y="49.8" class="st14" width="9" height="9"/>
		<rect x="221.7" y="49.8" class="st14" width="9" height="9"/>
		<rect x="230.7" y="49.8" class="st14" width="9" height="9"/>
		<rect x="239.7" y="49.8" class="st14" width="9" height="9"/>
		<rect x="248.7" y="49.8" class="st14" width="9" height="9"/>
		<rect x="203.7" y="58.8" class="st14" width="9" height="9"/>
		<rect x="212.7" y="58.8" class="st14" width="9" height="9"/>
		<rect x="221.7" y="58.8" class="st14" width="9" height="9"/>
		<rect x="230.7" y="58.8" class="st14" width="9" height="9"/>
		<rect x="239.7" y="58.8" class="st14" width="9" height="9"/>
		<rect x="248.7" y="58.8" class="st14" width="9" height="9"/>
		<rect x="203.7" y="67.8" class="st14" width="9" height="9"/>
		<rect x="212.7" y="67.8" class="st14" width="9" height="9"/>
		<rect x="221.7" y="67.8" class="st14" width="9" height="9"/>
		<rect x="230.7" y="67.8" class="st14" width="9" height="9"/>
		<rect x="239.7" y="67.8" class="st14" width="9" height="9"/>
		<rect x="248.7" y="67.8" class="st14" width="9" height="9"/>
		<rect x="203.7" y="76.8" class="st14" width="9" height="9"/>
		<rect x="212.7" y="76.8" class="st14" width="9" height="9"/>
		<rect x="221.7" y="76.8" class="st14" width="9" height="9"/>
		<rect x="230.7" y="76.8" class="st14" width="9" height="9"/>
		<rect x="239.7" y="76.8" class="st14" width="9" height="9"/>
		<rect x="248.7" y="76.8" class="st14" width="9" height="9"/>
	</g>
	<g class="st13">
		<rect x="87" y="25.4" class="st14" width="9" height="9"/>
		<rect x="96" y="25.4" class="st14" width="9" height="9"/>
		<rect x="105" y="25.4" class="st14" width="9" height="9"/>
		<rect x="114" y="25.4" class="st14" width="9" height="9"/>
		<rect x="123" y="25.4" class="st14" width="9" height="9"/>
		<rect x="132" y="25.4" class="st14" width="9" height="9"/>
		<rect x="87" y="34.4" class="st14" width="9" height="9"/>
		<rect x="96" y="34.4" class="st14" width="9" height="9"/>
		<rect x="105" y="34.4" class="st14" width="9" height="9"/>
		<rect x="114" y="34.4" class="st14" width="9" height="9"/>
		<rect x="123" y="34.4" class="st14" width="9" height="9"/>
		<rect x="132" y="34.4" class="st14" width="9" height="9"/>
		<rect x="87" y="43.4" class="st14" width="9" height="9"/>
		<rect x="96" y="43.4" class="st14" width="9" height="9"/>
		<rect x="105" y="43.4" class="st14" width="9" height="9"/>
		<rect x="114" y="43.4" class="st14" width="9" height="9"/>
		<rect x="123" y="43.4" class="st14" width="9" height="9"/>
		<rect x="132" y="43.4" class="st14" width="9" height="9"/>
		<rect x="87" y="52.4" class="st14" width="9" height="9"/>
		<rect x="96" y="52.4" class="st14" width="9" height="9"/>
		<rect x="105" y="52.4" class="st14" width="9" height="9"/>
		<rect x="114" y="52.4" class="st14" width="9" height="9"/>
		<rect x="123" y="52.4" class="st14" width="9" height="9"/>
		<rect x="132" y="52.4" class="st14" width="9" height="9"/>
		<rect x="87" y="61.4" class="st14" width="9" height="9"/>
		<rect x="96" y="61.4" class="st14" width="9" height="9"/>
		<rect x="105" y="61.4" class="st14" width="9" height="9"/>
		<rect x="114" y="61.4" class="st14" width="9" height="9"/>
		<rect x="123" y="61.4" class="st14" width="9" height="9"/>
		<rect x="132" y="61.4" class="st14" width="9" height="9"/>
		<rect x="87" y="70.4" class="st14" width="9" height="9"/>
		<rect x="96" y="70.4" class="st14" width="9" height="9"/>
		<rect x="105" y="70.4" class="st14" width="9" height="9"/>
		<rect x="114" y="70.4" class="st14" width="9" height="9"/>
		<rect x="123" y="70.4" class="st14" width="9" height="9"/>
		<rect x="132" y="70.4" class="st14" width="9" height="9"/>
		<rect x="87" y="79.4" class="st14" width="9" height="9"/>
		<rect x="96" y="79.4" class="st14" width="9" height="9"/>
		<rect x="105" y="79.4" class="st14" width="9" height="9"/>
		<rect x="114" y="79.4" class="st14" width="9" height="9"/>
		<rect x="123" y="79.4" class="st14" width="9" height="9"/>
		<rect x="132" y="79.4" class="st14" width="9" height="9"/>
	</g>
	<g class="st13">
		<rect x="36.8" y="125.1" class="st14" width="9" height="9"/>
		<rect x="45.8" y="125.1" class="st14" width="9" height="9"/>
		<rect x="54.8" y="125.1" class="st14" width="9" height="9"/>
		<rect x="63.8" y="125.1" class="st14" width="9" height="9"/>
		<rect x="72.8" y="125.1" class="st14" width="9" height="9"/>
		<rect x="81.8" y="125.1" class="st14" width="9" height="9"/>
		<rect x="36.8" y="134.1" class="st14" width="9" height="9"/>
		<rect x="45.8" y="134.1" class="st14" width="9" height="9"/>
		<rect x="54.8" y="134.1" class="st14" width="9" height="9"/>
		<rect x="63.8" y="134.1" class="st14" width="9" height="9"/>
		<rect x="72.8" y="134.1" class="st14" width="9" height="9"/>
		<rect x="81.8" y="134.1" class="st14" width="9" height="9"/>
		<rect x="36.8" y="143.1" class="st14" width="9" height="9"/>
		<rect x="45.8" y="143.1" class="st14" width="9" height="9"/>
		<rect x="54.8" y="143.1" class="st14" width="9" height="9"/>
		<rect x="63.8" y="143.1" class="st14" width="9" height="9"/>
		<rect x="72.8" y="143.1" class="st14" width="9" height="9"/>
		<rect x="81.8" y="143.1" class="st14" width="9" height="9"/>
		<rect x="36.8" y="152.1" class="st14" width="9" height="9"/>
		<rect x="45.8" y="152.1" class="st14" width="9" height="9"/>
		<rect x="54.8" y="152.1" class="st14" width="9" height="9"/>
		<rect x="63.8" y="152.1" class="st14" width="9" height="9"/>
		<rect x="72.8" y="152.1" class="st14" width="9" height="9"/>
		<rect x="81.8" y="152.1" class="st14" width="9" height="9"/>
		<rect x="36.8" y="161.1" class="st14" width="9" height="9"/>
		<rect x="45.8" y="161.1" class="st14" width="9" height="9"/>
		<rect x="54.8" y="161.1" class="st14" width="9" height="9"/>
		<rect x="63.8" y="161.1" class="st14" width="9" height="9"/>
		<rect x="72.8" y="161.1" class="st14" width="9" height="9"/>
		<rect x="81.8" y="161.1" class="st14" width="9" height="9"/>
		<rect x="36.8" y="170.1" class="st14" width="9" height="9"/>
		<rect x="45.8" y="170.1" class="st14" width="9" height="9"/>
		<rect x="54.8" y="170.1" class="st14" width="9" height="9"/>
		<rect x="63.8" y="170.1" class="st14" width="9" height="9"/>
		<rect x="72.8" y="170.1" class="st14" width="9" height="9"/>
		<rect x="81.8" y="170.1" class="st14" width="9" height="9"/>
		<rect x="36.8" y="179.1" class="st14" width="9" height="9"/>
		<rect x="45.8" y="179.1" class="st14" width="9" height="9"/>
		<rect x="54.8" y="179.1" class="st14" width="9" height="9"/>
		<rect x="63.8" y="179.1" class="st14" width="9" height="9"/>
		<rect x="72.8" y="179.1" class="st14" width="9" height="9"/>
		<rect x="81.8" y="179.1" class="st14" width="9" height="9"/>
	</g>
	<g class="st13">
		<rect x="91.8" y="227.2" class="st14" width="9" height="9"/>
		<rect x="100.8" y="227.2" class="st14" width="9" height="9"/>
		<rect x="109.8" y="227.2" class="st14" width="9" height="9"/>
		<rect x="118.8" y="227.2" class="st14" width="9" height="9"/>
		<rect x="127.8" y="227.2" class="st14" width="9" height="9"/>
		<rect x="136.8" y="227.2" class="st14" width="9" height="9"/>
		<rect x="91.8" y="236.2" class="st14" width="9" height="9"/>
		<rect x="100.8" y="236.2" class="st14" width="9" height="9"/>
		<rect x="109.8" y="236.2" class="st14" width="9" height="9"/>
		<rect x="118.8" y="236.2" class="st14" width="9" height="9"/>
		<rect x="127.8" y="236.2" class="st14" width="9" height="9"/>
		<rect x="136.8" y="236.2" class="st14" width="9" height="9"/>
		<rect x="91.8" y="245.2" class="st14" width="9" height="9"/>
		<rect x="100.8" y="245.2" class="st14" width="9" height="9"/>
		<rect x="109.8" y="245.2" class="st14" width="9" height="9"/>
		<rect x="118.8" y="245.2" class="st14" width="9" height="9"/>
		<rect x="127.8" y="245.2" class="st14" width="9" height="9"/>
		<rect x="136.8" y="245.2" class="st14" width="9" height="9"/>
		<rect x="91.8" y="254.2" class="st14" width="9" height="9"/>
		<rect x="100.8" y="254.2" class="st14" width="9" height="9"/>
		<rect x="109.8" y="254.2" class="st14" width="9" height="9"/>
		<rect x="118.8" y="254.2" class="st14" width="9" height="9"/>
		<rect x="127.8" y="254.2" class="st14" width="9" height="9"/>
		<rect x="136.8" y="254.2" class="st14" width="9" height="9"/>
		<rect x="91.8" y="263.2" class="st14" width="9" height="9"/>
		<rect x="100.8" y="263.2" class="st14" width="9" height="9"/>
		<rect x="109.8" y="263.2" class="st14" width="9" height="9"/>
		<rect x="118.8" y="263.2" class="st14" width="9" height="9"/>
		<rect x="127.8" y="263.2" class="st14" width="9" height="9"/>
		<rect x="136.8" y="263.2" class="st14" width="9" height="9"/>
		<rect x="91.8" y="272.2" class="st14" width="9" height="9"/>
		<rect x="100.8" y="272.2" class="st14" width="9" height="9"/>
		<rect x="109.8" y="272.2" class="st14" width="9" height="9"/>
		<rect x="118.8" y="272.2" class="st14" width="9" height="9"/>
		<rect x="127.8" y="272.2" class="st14" width="9" height="9"/>
		<rect x="136.8" y="272.2" class="st14" width="9" height="9"/>
		<rect x="91.8" y="281.2" class="st14" width="9" height="9"/>
		<rect x="100.8" y="281.2" class="st14" width="9" height="9"/>
		<rect x="109.8" y="281.2" class="st14" width="9" height="9"/>
		<rect x="118.8" y="281.2" class="st14" width="9" height="9"/>
		<rect x="127.8" y="281.2" class="st14" width="9" height="9"/>
		<rect x="136.8" y="281.2" class="st14" width="9" height="9"/>
	</g>
	<g class="st13">
		<rect x="201.7" y="221.5" class="st14" width="9" height="9"/>
		<rect x="210.7" y="221.5" class="st14" width="9" height="9"/>
		<rect x="219.7" y="221.5" class="st14" width="9" height="9"/>
		<rect x="228.7" y="221.5" class="st14" width="9" height="9"/>
		<rect x="237.7" y="221.5" class="st14" width="9" height="9"/>
		<rect x="246.7" y="221.5" class="st14" width="9" height="9"/>
		<rect x="201.7" y="230.5" class="st14" width="9" height="9"/>
		<rect x="210.7" y="230.5" class="st14" width="9" height="9"/>
		<rect x="219.7" y="230.5" class="st14" width="9" height="9"/>
		<rect x="228.7" y="230.5" class="st14" width="9" height="9"/>
		<rect x="237.7" y="230.5" class="st14" width="9" height="9"/>
		<rect x="246.7" y="230.5" class="st14" width="9" height="9"/>
		<rect x="201.7" y="239.5" class="st14" width="9" height="9"/>
		<rect x="210.7" y="239.5" class="st14" width="9" height="9"/>
		<rect x="219.7" y="239.5" class="st14" width="9" height="9"/>
		<rect x="228.7" y="239.5" class="st14" width="9" height="9"/>
		<rect x="237.7" y="239.5" class="st14" width="9" height="9"/>
		<rect x="246.7" y="239.5" class="st14" width="9" height="9"/>
		<rect x="201.7" y="248.5" class="st14" width="9" height="9"/>
		<rect x="210.7" y="248.5" class="st14" width="9" height="9"/>
		<rect x="219.7" y="248.5" class="st14" width="9" height="9"/>
		<rect x="228.7" y="248.5" class="st14" width="9" height="9"/>
		<rect x="237.7" y="248.5" class="st14" width="9" height="9"/>
		<rect x="246.7" y="248.5" class="st14" width="9" height="9"/>
		<rect x="201.7" y="257.5" class="st14" width="9" height="9"/>
		<rect x="210.7" y="257.5" class="st14" width="9" height="9"/>
		<rect x="219.7" y="257.5" class="st14" width="9" height="9"/>
		<rect x="228.7" y="257.5" class="st14" width="9" height="9"/>
		<rect x="237.7" y="257.5" class="st14" width="9" height="9"/>
		<rect x="246.7" y="257.5" class="st14" width="9" height="9"/>
		<rect x="201.7" y="266.5" class="st14" width="9" height="9"/>
		<rect x="210.7" y="266.5" class="st14" width="9" height="9"/>
		<rect x="219.7" y="266.5" class="st14" width="9" height="9"/>
		<rect x="228.7" y="266.5" class="st14" width="9" height="9"/>
		<rect x="237.7" y="266.5" class="st14" width="9" height="9"/>
		<rect x="246.7" y="266.5" class="st14" width="9" height="9"/>
		<rect x="201.7" y="275.5" class="st14" width="9" height="9"/>
		<rect x="210.7" y="275.5" class="st14" width="9" height="9"/>
		<rect x="219.7" y="275.5" class="st14" width="9" height="9"/>
		<rect x="228.7" y="275.5" class="st14" width="9" height="9"/>
		<rect x="237.7" y="275.5" class="st14" width="9" height="9"/>
		<rect x="246.7" y="275.5" class="st14" width="9" height="9"/>
	</g>
	<g class="st13">
		<rect x="273.8" y="125.1" class="st14" width="9" height="9"/>
		<rect x="282.8" y="125.1" class="st14" width="9" height="9"/>
		<rect x="291.8" y="125.1" class="st14" width="9" height="9"/>
		<rect x="300.8" y="125.1" class="st14" width="9" height="9"/>
		<rect x="309.8" y="125.1" class="st14" width="9" height="9"/>
		<rect x="318.8" y="125.1" class="st14" width="9" height="9"/>
		<rect x="273.8" y="134.1" class="st14" width="9" height="9"/>
		<rect x="282.8" y="134.1" class="st14" width="9" height="9"/>
		<rect x="291.8" y="134.1" class="st14" width="9" height="9"/>
		<rect x="300.8" y="134.1" class="st14" width="9" height="9"/>
		<rect x="309.8" y="134.1" class="st14" width="9" height="9"/>
		<rect x="318.8" y="134.1" class="st14" width="9" height="9"/>
		<rect x="273.8" y="143.1" class="st14" width="9" height="9"/>
		<rect x="282.8" y="143.1" class="st14" width="9" height="9"/>
		<rect x="291.8" y="143.1" class="st14" width="9" height="9"/>
		<rect x="300.8" y="143.1" class="st14" width="9" height="9"/>
		<rect x="309.8" y="143.1" class="st14" width="9" height="9"/>
		<rect x="318.8" y="143.1" class="st14" width="9" height="9"/>
		<rect x="273.8" y="152.1" class="st14" width="9" height="9"/>
		<rect x="282.8" y="152.1" class="st14" width="9" height="9"/>
		<rect x="291.8" y="152.1" class="st14" width="9" height="9"/>
		<rect x="300.8" y="152.1" class="st14" width="9" height="9"/>
		<rect x="309.8" y="152.1" class="st14" width="9" height="9"/>
		<rect x="318.8" y="152.1" class="st14" width="9" height="9"/>
		<rect x="273.8" y="161.1" class="st14" width="9" height="9"/>
		<rect x="282.8" y="161.1" class="st14" width="9" height="9"/>
		<rect x="291.8" y="161.1" class="st14" width="9" height="9"/>
		<rect x="300.8" y="161.1" class="st14" width="9" height="9"/>
		<rect x="309.8" y="161.1" class="st14" width="9" height="9"/>
		<rect x="318.8" y="161.1" class="st14" width="9" height="9"/>
		<rect x="273.8" y="170.1" class="st14" width="9" height="9"/>
		<rect x="282.8" y="170.1" class="st14" width="9" height="9"/>
		<rect x="291.8" y="170.1" class="st14" width="9" height="9"/>
		<rect x="300.8" y="170.1" class="st14" width="9" height="9"/>
		<rect x="309.8" y="170.1" class="st14" width="9" height="9"/>
		<rect x="318.8" y="170.1" class="st14" width="9" height="9"/>
		<rect x="273.8" y="179.1" class="st14" width="9" height="9"/>
		<rect x="282.8" y="179.1" class="st14" width="9" height="9"/>
		<rect x="291.8" y="179.1" class="st14" width="9" height="9"/>
		<rect x="300.8" y="179.1" class="st14" width="9" height="9"/>
		<rect x="309.8" y="179.1" class="st14" width="9" height="9"/>
		<rect x="318.8" y="179.1" class="st14" width="9" height="9"/>
	</g>
</g>
<g id="Layer_1">
	<g>
		<path id="XMLID_5_" class="st22" d="M59.2,158L59.2,158c-7,4.2-7,14.4,0,18.6c7.2,4.3,16.4-0.9,16.4-9.3
			C75.5,158.9,66.4,153.8,59.2,158z"/>
		<path id="XMLID_25_" class="st22" d="M61.1,161.3L61.1,161.3c-4.6,2.7-4.6,9.4,0,12.1c4.7,2.8,10.7-0.6,10.7-6.1
			C71.8,161.8,65.8,158.4,61.1,161.3z"/>
		<g id="XMLID_2_">
			<g>
				<polyline class="st22" points="80.4,170.5 80.4,138.6 55.1,138.6 47.2,146.8 47.2,181.8 71.4,181.8 				"/>
				<g>
					<polygon class="st23" points="83.4,169.7 80.4,174.9 77.4,169.7 					"/>
				</g>
			</g>
		</g>
		<polyline class="st22" points="55.1,139.4 55.1,147.3 47.5,147.3 		"/>
		<path class="st22" d="M73.7,173.6l7.9,7.9c0.7,0.7,0.7,2,0,2.7h0c-0.7,0.7-2,0.7-2.7,0l-7.9-7.9"/>
	</g>
	<g>
		<g>
			<path class="st25" d="M192.3,86c0.6-0.1,1.4-0.2,2.2-0.2c1.4,0,2.4,0.3,3.1,0.9c0.7,0.6,1.2,1.5,1.2,2.8c0,1.4-0.5,2.4-1.2,3
				c-0.8,0.7-2,1-3.5,1c-0.8,0-1.4,0-1.9-0.1V86z M193.7,92.5c0.2,0,0.5,0,0.8,0c1.8,0,2.9-1,2.9-2.9c0-1.7-1-2.7-2.7-2.7
				c-0.4,0-0.8,0-1,0.1V92.5z"/>
			<path class="st25" d="M203.1,93.6l-0.1-0.6h0c-0.3,0.4-0.9,0.7-1.6,0.7c-1.1,0-1.7-0.8-1.7-1.6c0-1.4,1.2-2.1,3.3-2.1v-0.1
				c0-0.4-0.1-1-1.1-1c-0.5,0-1.1,0.2-1.5,0.4l-0.3-0.9c0.4-0.3,1.1-0.5,2-0.5c1.8,0,2.3,1.1,2.3,2.3v2c0,0.5,0,1,0.1,1.3H203.1z
				 M202.9,90.9c-1,0-1.9,0.2-1.9,1c0,0.5,0.4,0.8,0.8,0.8c0.6,0,1-0.4,1.1-0.8c0-0.1,0-0.2,0-0.3V90.9z"/>
			<path class="st25" d="M207.3,86.4V88h1.3v1h-1.3v2.4c0,0.7,0.2,1,0.7,1c0.2,0,0.4,0,0.5-0.1l0,1.1c-0.2,0.1-0.6,0.1-1,0.1
				c-0.5,0-0.9-0.2-1.2-0.5c-0.3-0.3-0.4-0.8-0.4-1.5v-2.6h-0.8v-1h0.8v-1.3L207.3,86.4z"/>
			<path class="st25" d="M212.8,93.6l-0.1-0.6h0c-0.3,0.4-0.9,0.7-1.6,0.7c-1.1,0-1.7-0.8-1.7-1.6c0-1.4,1.2-2.1,3.3-2.1v-0.1
				c0-0.4-0.1-1-1.1-1c-0.5,0-1.1,0.2-1.5,0.4l-0.3-0.9c0.4-0.3,1.1-0.5,2-0.5c1.8,0,2.3,1.1,2.3,2.3v2c0,0.5,0,1,0.1,1.3H212.8z
				 M212.6,90.9c-1,0-1.9,0.2-1.9,1c0,0.5,0.4,0.8,0.8,0.8c0.6,0,1-0.4,1.1-0.8c0-0.1,0-0.2,0-0.3V90.9z"/>
			<path class="st25" d="M217.8,92.3c0.3,0.2,0.9,0.4,1.4,0.4c0.6,0,0.9-0.3,0.9-0.6c0-0.4-0.2-0.6-0.9-0.8c-1.1-0.4-1.5-1-1.5-1.6
				c0-1,0.8-1.7,2.1-1.7c0.6,0,1.1,0.2,1.5,0.3l-0.3,1c-0.2-0.1-0.7-0.3-1.2-0.3c-0.5,0-0.8,0.2-0.8,0.6c0,0.4,0.3,0.5,1,0.8
				c1,0.4,1.5,0.9,1.5,1.7c0,1-0.8,1.7-2.3,1.7c-0.7,0-1.3-0.2-1.7-0.4L217.8,92.3z"/>
			<path class="st25" d="M224.2,86.4V88h1.3v1h-1.3v2.4c0,0.7,0.2,1,0.7,1c0.2,0,0.4,0,0.5-0.1l0,1.1c-0.2,0.1-0.6,0.1-1,0.1
				c-0.5,0-0.9-0.2-1.2-0.5c-0.3-0.3-0.4-0.8-0.4-1.5v-2.6H222v-1h0.8v-1.3L224.2,86.4z"/>
			<path class="st25" d="M229.7,93.6l-0.1-0.6h0c-0.3,0.4-0.9,0.7-1.6,0.7c-1.1,0-1.7-0.8-1.7-1.6c0-1.4,1.2-2.1,3.3-2.1v-0.1
				c0-0.4-0.1-1-1.1-1c-0.5,0-1.1,0.2-1.5,0.4l-0.3-0.9c0.4-0.3,1.1-0.5,2-0.5c1.8,0,2.3,1.1,2.3,2.3v2c0,0.5,0,1,0.1,1.3H229.7z
				 M229.5,90.9c-1,0-1.9,0.2-1.9,1c0,0.5,0.4,0.8,0.8,0.8c0.6,0,1-0.4,1.1-0.8c0-0.1,0-0.2,0-0.3V90.9z"/>
			<path class="st25" d="M232.3,89.7c0-0.6,0-1.2,0-1.6h1.2l0.1,0.8h0c0.2-0.4,0.8-1,1.8-1c1,0,2,0.6,2,2.4v3.3H236v-3.1
				c0-0.8-0.3-1.4-1.1-1.4c-0.6,0-0.9,0.4-1.1,0.8c0,0.1-0.1,0.3-0.1,0.5v3.3h-1.4V89.7z"/>
			<path class="st25" d="M244,85.5V92c0,0.6,0,1.2,0,1.6h-1.3l-0.1-0.9h0c-0.3,0.6-1,1-1.8,1c-1.3,0-2.4-1.1-2.4-2.8
				c0-1.9,1.1-3,2.5-3c0.8,0,1.3,0.3,1.6,0.7h0v-3.1H244z M242.6,90.3c0-0.1,0-0.3,0-0.4c-0.1-0.5-0.6-1-1.2-1
				c-0.9,0-1.4,0.8-1.4,1.8c0,1,0.5,1.8,1.4,1.8c0.6,0,1.1-0.4,1.2-1c0-0.1,0-0.3,0-0.4V90.3z"/>
			<path class="st25" d="M248.6,93.6l-0.1-0.6h0c-0.3,0.4-0.9,0.7-1.6,0.7c-1.1,0-1.7-0.8-1.7-1.6c0-1.4,1.2-2.1,3.3-2.1v-0.1
				c0-0.4-0.1-1-1.1-1c-0.5,0-1.1,0.2-1.5,0.4l-0.3-0.9c0.4-0.3,1.1-0.5,2-0.5c1.8,0,2.3,1.1,2.3,2.3v2c0,0.5,0,1,0.1,1.3H248.6z
				 M248.4,90.9c-1,0-1.9,0.2-1.9,1c0,0.5,0.4,0.8,0.8,0.8c0.6,0,1-0.4,1.1-0.8c0-0.1,0-0.2,0-0.3V90.9z"/>
			<path class="st25" d="M251.2,89.8c0-0.8,0-1.3,0-1.8h1.2l0,1.1h0c0.3-0.8,0.9-1.2,1.5-1.2c0.1,0,0.2,0,0.3,0v1.3
				c-0.1,0-0.2,0-0.4,0c-0.7,0-1.1,0.4-1.3,1.1c0,0.1,0,0.3,0,0.4v2.9h-1.4V89.8z"/>
			<path class="st25" d="M260.3,85.5V92c0,0.6,0,1.2,0,1.6h-1.3l-0.1-0.9h0c-0.3,0.6-1,1-1.8,1c-1.3,0-2.4-1.1-2.4-2.8
				c0-1.9,1.1-3,2.5-3c0.8,0,1.3,0.3,1.6,0.7h0v-3.1H260.3z M258.9,90.3c0-0.1,0-0.3,0-0.4c-0.1-0.5-0.6-1-1.2-1
				c-0.9,0-1.4,0.8-1.4,1.8c0,1,0.5,1.8,1.4,1.8c0.6,0,1.1-0.4,1.2-1c0-0.1,0-0.3,0-0.4V90.3z"/>
			<path class="st25" d="M261.7,92.3c0.3,0.2,0.9,0.4,1.4,0.4c0.6,0,0.9-0.3,0.9-0.6c0-0.4-0.2-0.6-0.9-0.8c-1.1-0.4-1.5-1-1.5-1.6
				c0-1,0.8-1.7,2.1-1.7c0.6,0,1.1,0.2,1.5,0.3l-0.3,1c-0.2-0.1-0.7-0.3-1.2-0.3c-0.5,0-0.8,0.2-0.8,0.6c0,0.4,0.3,0.5,1,0.8
				c1,0.4,1.5,0.9,1.5,1.7c0,1-0.8,1.7-2.3,1.7c-0.7,0-1.3-0.2-1.7-0.4L261.7,92.3z"/>
			<path class="st25" d="M188.1,105.2l-0.1-0.6h0c-0.3,0.4-0.9,0.7-1.6,0.7c-1.1,0-1.7-0.8-1.7-1.6c0-1.4,1.2-2.1,3.3-2.1v-0.1
				c0-0.4-0.1-1-1.1-1c-0.5,0-1.1,0.2-1.5,0.4l-0.3-0.9c0.4-0.3,1.1-0.5,2-0.5c1.8,0,2.3,1.1,2.3,2.3v2c0,0.5,0,1,0.1,1.3H188.1z
				 M187.9,102.5c-1,0-1.9,0.2-1.9,1c0,0.5,0.4,0.8,0.8,0.8c0.6,0,1-0.4,1.1-0.8c0-0.1,0-0.2,0-0.3V102.5z"/>
			<path class="st25" d="M190.7,101.3c0-0.6,0-1.2,0-1.6h1.2l0.1,0.8h0c0.2-0.4,0.8-1,1.8-1c1,0,2,0.6,2,2.4v3.3h-1.4v-3.1
				c0-0.8-0.3-1.4-1.1-1.4c-0.6,0-0.9,0.4-1.1,0.8c0,0.1-0.1,0.3-0.1,0.5v3.3h-1.4V101.3z"/>
			<path class="st25" d="M202.4,97.2v6.5c0,0.6,0,1.2,0,1.6h-1.3l-0.1-0.9h0c-0.3,0.6-1,1-1.8,1c-1.3,0-2.4-1.1-2.4-2.8
				c0-1.9,1.1-3,2.5-3c0.8,0,1.3,0.3,1.6,0.7h0v-3.1H202.4z M201,102c0-0.1,0-0.3,0-0.4c-0.1-0.5-0.6-1-1.2-1
				c-0.9,0-1.4,0.8-1.4,1.8c0,1,0.5,1.8,1.4,1.8c0.6,0,1.1-0.4,1.2-1c0-0.1,0-0.3,0-0.4V102z"/>
			<path class="st25" d="M207.7,98.1c0,0.4-0.3,0.8-0.8,0.8c-0.5,0-0.8-0.3-0.8-0.8c0-0.4,0.3-0.8,0.8-0.8
				C207.4,97.4,207.7,97.7,207.7,98.1z M206.2,105.2v-5.5h1.4v5.5H206.2z"/>
			<path class="st25" d="M209.1,101.3c0-0.6,0-1.2,0-1.6h1.2l0.1,0.8h0c0.2-0.4,0.8-1,1.8-1c1,0,2,0.6,2,2.4v3.3h-1.4v-3.1
				c0-0.8-0.3-1.4-1.1-1.4c-0.6,0-0.9,0.4-1.1,0.8c0,0.1-0.1,0.3-0.1,0.5v3.3h-1.4V101.3z"/>
			<path class="st25" d="M215.8,105.2v-4.5H215v-1h0.8v-0.2c0-0.7,0.2-1.4,0.7-1.9c0.4-0.4,1-0.5,1.4-0.5c0.4,0,0.7,0.1,0.9,0.1
				l-0.1,1.1c-0.1-0.1-0.3-0.1-0.6-0.1c-0.7,0-0.9,0.6-0.9,1.3v0.3h1.2v1h-1.2v4.5H215.8z"/>
			<path class="st25" d="M219.3,101.5c0-0.8,0-1.3,0-1.8h1.2l0,1.1h0c0.3-0.8,0.9-1.2,1.5-1.2c0.1,0,0.2,0,0.3,0v1.3
				c-0.1,0-0.2,0-0.4,0c-0.7,0-1.1,0.4-1.3,1.1c0,0.1,0,0.3,0,0.4v2.9h-1.4V101.5z"/>
			<path class="st25" d="M226.3,105.2l-0.1-0.6h0c-0.3,0.4-0.9,0.7-1.6,0.7c-1.1,0-1.7-0.8-1.7-1.6c0-1.4,1.2-2.1,3.3-2.1v-0.1
				c0-0.4-0.1-1-1.1-1c-0.5,0-1.1,0.2-1.5,0.4l-0.3-0.9c0.4-0.3,1.1-0.5,2-0.5c1.8,0,2.3,1.1,2.3,2.3v2c0,0.5,0,1,0.1,1.3H226.3z
				 M226.1,102.5c-1,0-1.9,0.2-1.9,1c0,0.5,0.4,0.8,0.8,0.8c0.6,0,1-0.4,1.1-0.8c0-0.1,0-0.2,0-0.3V102.5z"/>
			<path class="st25" d="M228.9,103.9c0.3,0.2,0.9,0.4,1.4,0.4c0.6,0,0.9-0.3,0.9-0.6c0-0.4-0.2-0.6-0.9-0.8c-1.1-0.4-1.5-1-1.5-1.6
				c0-1,0.8-1.7,2.1-1.7c0.6,0,1.1,0.2,1.5,0.3l-0.3,1c-0.2-0.1-0.7-0.3-1.2-0.3c-0.5,0-0.8,0.2-0.8,0.6c0,0.4,0.3,0.5,1,0.8
				c1,0.4,1.5,0.9,1.5,1.7c0,1-0.8,1.7-2.3,1.7c-0.7,0-1.3-0.2-1.7-0.4L228.9,103.9z"/>
			<path class="st25" d="M235.3,98.1v1.6h1.3v1h-1.3v2.4c0,0.7,0.2,1,0.7,1c0.2,0,0.4,0,0.5-0.1l0,1.1c-0.2,0.1-0.6,0.1-1,0.1
				c-0.5,0-0.9-0.2-1.2-0.5c-0.3-0.3-0.4-0.8-0.4-1.5v-2.6h-0.8v-1h0.8v-1.3L235.3,98.1z"/>
			<path class="st25" d="M237.7,101.5c0-0.8,0-1.3,0-1.8h1.2l0,1.1h0c0.3-0.8,0.9-1.2,1.5-1.2c0.1,0,0.2,0,0.3,0v1.3
				c-0.1,0-0.2,0-0.4,0c-0.7,0-1.1,0.4-1.3,1.1c0,0.1,0,0.3,0,0.4v2.9h-1.4V101.5z"/>
			<path class="st25" d="M246.7,103.6c0,0.7,0,1.2,0,1.7h-1.2l-0.1-0.8h0c-0.2,0.4-0.8,1-1.8,1c-1,0-1.9-0.6-1.9-2.4v-3.3h1.4v3
				c0,0.9,0.3,1.5,1,1.5c0.6,0,0.9-0.4,1.1-0.8c0-0.1,0.1-0.3,0.1-0.4v-3.3h1.4V103.6z"/>
			<path class="st25" d="M252.3,105.1c-0.3,0.1-0.9,0.3-1.6,0.3c-1.7,0-2.9-1.1-2.9-2.8c0-1.7,1.1-3,3.1-3c0.5,0,1,0.1,1.4,0.3
				l-0.3,1c-0.2-0.1-0.6-0.2-1.1-0.2c-1.1,0-1.7,0.8-1.7,1.8c0,1.1,0.7,1.8,1.7,1.8c0.5,0,0.8-0.1,1.1-0.2L252.3,105.1z"/>
			<path class="st25" d="M255.1,98.1v1.6h1.3v1h-1.3v2.4c0,0.7,0.2,1,0.7,1c0.2,0,0.4,0,0.5-0.1l0,1.1c-0.2,0.1-0.6,0.1-1,0.1
				c-0.5,0-0.9-0.2-1.2-0.5c-0.3-0.3-0.4-0.8-0.4-1.5v-2.6H253v-1h0.8v-1.3L255.1,98.1z"/>
			<path class="st25" d="M262.5,103.6c0,0.7,0,1.2,0,1.7h-1.2l-0.1-0.8h0c-0.2,0.4-0.8,1-1.8,1c-1,0-1.9-0.6-1.9-2.4v-3.3h1.4v3
				c0,0.9,0.3,1.5,1,1.5c0.6,0,0.9-0.4,1.1-0.8c0-0.1,0.1-0.3,0.1-0.4v-3.3h1.4V103.6z"/>
			<path class="st25" d="M264,101.5c0-0.8,0-1.3,0-1.8h1.2l0,1.1h0c0.3-0.8,0.9-1.2,1.5-1.2c0.1,0,0.2,0,0.3,0v1.3
				c-0.1,0-0.2,0-0.4,0c-0.7,0-1.1,0.4-1.3,1.1c0,0.1,0,0.3,0,0.4v2.9H264V101.5z"/>
			<path class="st25" d="M268.9,102.9c0,1,0.8,1.4,1.7,1.4c0.6,0,1.1-0.1,1.5-0.3l0.2,1c-0.5,0.2-1.1,0.3-1.9,0.3
				c-1.8,0-2.9-1.1-2.9-2.8c0-1.5,0.9-3,2.7-3c1.8,0,2.4,1.5,2.4,2.7c0,0.3,0,0.5,0,0.6H268.9z M271.4,101.9c0-0.5-0.2-1.4-1.1-1.4
				c-0.9,0-1.2,0.8-1.3,1.4H271.4z"/>
		</g>
	</g>
	<g>
		<g>
			<path class="st25" d="M94.5,85.7c0.5-0.1,1.3-0.2,2.1-0.2c1.1,0,1.9,0.2,2.4,0.6c0.4,0.4,0.7,0.9,0.7,1.5c0,1-0.7,1.7-1.4,1.9v0
				c0.5,0.2,0.9,0.7,1.1,1.5c0.2,1,0.4,1.8,0.6,2.1h-1.4c-0.1-0.2-0.3-0.9-0.5-1.8c-0.2-1-0.6-1.3-1.4-1.3h-0.7v3.1h-1.4V85.7z
				 M95.9,89.1h0.8c0.9,0,1.5-0.5,1.5-1.3c0-0.8-0.6-1.2-1.5-1.2c-0.4,0-0.7,0-0.9,0.1V89.1z"/>
			<path class="st25" d="M102,90.9c0,1,0.8,1.4,1.7,1.4c0.6,0,1.1-0.1,1.5-0.3l0.2,1c-0.5,0.2-1.1,0.3-1.9,0.3
				c-1.8,0-2.9-1.1-2.9-2.8c0-1.5,0.9-3,2.7-3c1.8,0,2.4,1.5,2.4,2.7c0,0.3,0,0.5,0,0.6H102z M104.4,89.9c0-0.5-0.2-1.4-1.1-1.4
				c-0.9,0-1.2,0.8-1.3,1.4H104.4z"/>
			<path class="st25" d="M112,85.2v6.5c0,0.6,0,1.2,0,1.6h-1.3l-0.1-0.9h0c-0.3,0.6-1,1-1.8,1c-1.3,0-2.4-1.1-2.4-2.8
				c0-1.9,1.1-3,2.5-3c0.8,0,1.3,0.3,1.6,0.7h0v-3.1H112z M110.6,90.1c0-0.1,0-0.3,0-0.4c-0.1-0.5-0.6-1-1.2-1
				c-0.9,0-1.4,0.8-1.4,1.8c0,1,0.5,1.8,1.4,1.8c0.6,0,1.1-0.4,1.2-1c0-0.1,0-0.3,0-0.4V90.1z"/>
			<path class="st25" d="M118.4,91.6c0,0.7,0,1.2,0,1.7h-1.2l-0.1-0.8h0c-0.2,0.4-0.8,1-1.8,1c-1,0-1.9-0.6-1.9-2.4v-3.3h1.4v3
				c0,0.9,0.3,1.5,1,1.5c0.6,0,0.9-0.4,1.1-0.8c0-0.1,0.1-0.3,0.1-0.4v-3.3h1.4V91.6z"/>
			<path class="st25" d="M124,93.1c-0.3,0.1-0.9,0.3-1.6,0.3c-1.7,0-2.9-1.1-2.9-2.8c0-1.7,1.1-3,3.1-3c0.5,0,1,0.1,1.4,0.3l-0.3,1
				c-0.2-0.1-0.6-0.2-1.1-0.2c-1.1,0-1.7,0.8-1.7,1.8c0,1.1,0.7,1.8,1.7,1.8c0.5,0,0.8-0.1,1.1-0.2L124,93.1z"/>
			<path class="st25" d="M125.9,90.9c0,1,0.8,1.4,1.7,1.4c0.6,0,1.1-0.1,1.5-0.3l0.2,1c-0.5,0.2-1.1,0.3-1.9,0.3
				c-1.8,0-2.9-1.1-2.9-2.8c0-1.5,0.9-3,2.7-3c1.8,0,2.4,1.5,2.4,2.7c0,0.3,0,0.5,0,0.6H125.9z M128.4,89.9c0-0.5-0.2-1.4-1.1-1.4
				c-0.9,0-1.2,0.8-1.3,1.4H128.4z"/>
			<path class="st25" d="M135.9,85.2v6.5c0,0.6,0,1.2,0,1.6h-1.3l-0.1-0.9h0c-0.3,0.6-1,1-1.8,1c-1.3,0-2.4-1.1-2.4-2.8
				c0-1.9,1.1-3,2.5-3c0.8,0,1.3,0.3,1.6,0.7h0v-3.1H135.9z M134.5,90.1c0-0.1,0-0.3,0-0.4c-0.1-0.5-0.6-1-1.2-1
				c-0.9,0-1.4,0.8-1.4,1.8c0,1,0.5,1.8,1.4,1.8c0.6,0,1.1-0.4,1.2-1c0-0.1,0-0.3,0-0.4V90.1z"/>
			<path class="st25" d="M76,101.3c0-0.7,0-1.3,0-1.8h1.2l0.1,0.9h0c0.4-0.6,1.1-1,1.9-1c1.3,0,2.3,1.1,2.3,2.8c0,2-1.3,3-2.5,3
				c-0.7,0-1.3-0.3-1.6-0.7h0v2.9H76V101.3z M77.4,102.6c0,0.1,0,0.3,0,0.4c0.1,0.6,0.6,1,1.2,1c0.9,0,1.4-0.7,1.4-1.8
				c0-1-0.5-1.8-1.4-1.8c-0.6,0-1.1,0.4-1.3,1c0,0.1-0.1,0.2-0.1,0.4V102.6z"/>
			<path class="st25" d="M87.6,103.3c0,0.7,0,1.2,0,1.7h-1.2l-0.1-0.8h0c-0.2,0.4-0.8,1-1.8,1c-1,0-1.9-0.6-1.9-2.4v-3.3H84v3
				c0,0.9,0.3,1.5,1,1.5c0.6,0,0.9-0.4,1.1-0.8c0-0.1,0.1-0.3,0.1-0.4v-3.3h1.4V103.3z"/>
			<path class="st25" d="M89.1,105c0-0.4,0-1,0-1.6v-6.5h1.4v3.3h0c0.3-0.5,0.9-0.9,1.8-0.9c1.4,0,2.3,1.1,2.3,2.8c0,2-1.3,3-2.5,3
				c-0.7,0-1.4-0.3-1.8-1h0l-0.1,0.8H89.1z M90.5,102.7c0,0.1,0,0.2,0,0.3c0.1,0.6,0.6,1,1.2,1c0.9,0,1.4-0.7,1.4-1.8
				c0-1-0.5-1.8-1.4-1.8c-0.6,0-1.1,0.4-1.2,1c0,0.1,0,0.2,0,0.4V102.7z"/>
			<path class="st25" d="M95.8,96.9h1.4v8.1h-1.4V96.9z"/>
			<path class="st25" d="M100.2,97.9c0,0.4-0.3,0.8-0.8,0.8c-0.5,0-0.8-0.3-0.8-0.8c0-0.4,0.3-0.8,0.8-0.8
				C99.9,97.1,100.2,97.4,100.2,97.9z M98.7,105v-5.5h1.4v5.5H98.7z"/>
			<path class="st25" d="M101.6,103.7c0.3,0.2,0.9,0.4,1.4,0.4c0.6,0,0.9-0.3,0.9-0.6c0-0.4-0.2-0.6-0.9-0.8c-1.1-0.4-1.5-1-1.5-1.6
				c0-1,0.8-1.7,2.1-1.7c0.6,0,1.1,0.2,1.5,0.3l-0.3,1c-0.2-0.1-0.7-0.3-1.2-0.3c-0.5,0-0.8,0.2-0.8,0.6c0,0.4,0.3,0.5,1,0.8
				c1,0.4,1.5,0.9,1.5,1.7c0,1-0.8,1.7-2.3,1.7c-0.7,0-1.3-0.2-1.7-0.4L101.6,103.7z"/>
			<path class="st25" d="M106.4,96.9h1.4v3.3h0c0.2-0.3,0.4-0.5,0.7-0.6c0.3-0.2,0.6-0.3,1-0.3c0.9,0,1.9,0.6,1.9,2.4v3.3H110v-3.1
				c0-0.8-0.3-1.4-1.1-1.4c-0.5,0-0.9,0.4-1.1,0.8c0,0.1-0.1,0.3-0.1,0.4v3.3h-1.4V96.9z"/>
			<path class="st25" d="M114.4,97.9c0,0.4-0.3,0.8-0.8,0.8c-0.5,0-0.8-0.3-0.8-0.8c0-0.4,0.3-0.8,0.8-0.8
				C114.1,97.1,114.4,97.4,114.4,97.9z M112.9,105v-5.5h1.4v5.5H112.9z"/>
			<path class="st25" d="M115.8,101.1c0-0.6,0-1.2,0-1.6h1.2l0.1,0.8h0c0.2-0.4,0.8-1,1.8-1c1,0,2,0.6,2,2.4v3.3h-1.4v-3.1
				c0-0.8-0.3-1.4-1.1-1.4c-0.6,0-0.9,0.4-1.1,0.8c0,0.1-0.1,0.3-0.1,0.5v3.3h-1.4V101.1z"/>
			<path class="st25" d="M127.4,99.4c0,0.4,0,0.8,0,1.6v3.1c0,1.2-0.2,2-0.8,2.5c-0.6,0.5-1.4,0.7-2.1,0.7c-0.7,0-1.5-0.1-1.9-0.4
				l0.3-1.1c0.4,0.2,0.9,0.4,1.6,0.4c0.9,0,1.6-0.5,1.6-1.7v-0.5h0c-0.3,0.5-0.9,0.8-1.6,0.8c-1.4,0-2.4-1.1-2.4-2.7
				c0-1.8,1.2-2.9,2.5-2.9c0.8,0,1.3,0.4,1.6,0.9h0l0.1-0.7H127.4z M125.9,101.6c0-0.1,0-0.3,0-0.4c-0.1-0.5-0.5-0.9-1.1-0.9
				c-0.8,0-1.4,0.7-1.4,1.8c0,0.9,0.5,1.7,1.4,1.7c0.5,0,1-0.3,1.1-0.8c0-0.1,0.1-0.3,0.1-0.5V101.6z"/>
			<path class="st25" d="M135.2,104.8c-0.3,0.1-0.9,0.3-1.6,0.3c-1.7,0-2.9-1.1-2.9-2.8c0-1.7,1.1-3,3.1-3c0.5,0,1,0.1,1.4,0.3
				l-0.3,1c-0.2-0.1-0.6-0.2-1.1-0.2c-1.1,0-1.7,0.8-1.7,1.8c0,1.1,0.7,1.8,1.7,1.8c0.5,0,0.8-0.1,1.1-0.2L135.2,104.8z"/>
			<path class="st25" d="M137.3,99.4l1,3c0.1,0.3,0.2,0.8,0.3,1.1h0c0.1-0.3,0.2-0.7,0.3-1.1l0.9-3h1.5l-1.4,3.8
				c-0.8,2.1-1.3,3-1.9,3.6c-0.5,0.5-1.1,0.7-1.5,0.7l-0.3-1.2c0.2-0.1,0.5-0.2,0.8-0.4c0.3-0.2,0.6-0.5,0.8-0.9
				c0.1-0.1,0.1-0.2,0.1-0.3c0-0.1,0-0.1-0.1-0.3l-2-5.1H137.3z"/>
			<path class="st25" d="M146.1,104.8c-0.3,0.1-0.9,0.3-1.6,0.3c-1.7,0-2.9-1.1-2.9-2.8c0-1.7,1.1-3,3.1-3c0.5,0,1,0.1,1.4,0.3
				l-0.3,1c-0.2-0.1-0.6-0.2-1.1-0.2c-1.1,0-1.7,0.8-1.7,1.8c0,1.1,0.7,1.8,1.7,1.8c0.5,0,0.8-0.1,1.1-0.2L146.1,104.8z"/>
			<path class="st25" d="M147.1,96.9h1.4v8.1h-1.4V96.9z"/>
			<path class="st25" d="M151,102.6c0,1,0.8,1.4,1.7,1.4c0.6,0,1.1-0.1,1.5-0.3l0.2,1c-0.5,0.2-1.1,0.3-1.9,0.3
				c-1.8,0-2.9-1.1-2.9-2.8c0-1.5,0.9-3,2.7-3c1.8,0,2.4,1.5,2.4,2.7c0,0.3,0,0.5,0,0.6H151z M153.4,101.6c0-0.5-0.2-1.4-1.1-1.4
				c-0.9,0-1.2,0.8-1.3,1.4H153.4z"/>
		</g>
	</g>
	<g>
		<g>
			<path class="st25" d="M26.1,196.6c-0.3,0.2-1.1,0.3-2,0.3c-2.4,0-3.9-1.5-3.9-3.9c0-2.5,1.8-4,4.1-4c0.9,0,1.6,0.2,1.9,0.3
				l-0.3,1.1c-0.4-0.2-0.9-0.3-1.5-0.3c-1.6,0-2.7,1-2.7,2.8c0,1.7,1,2.8,2.7,2.8c0.6,0,1.2-0.1,1.5-0.3L26.1,196.6z"/>
			<path class="st25" d="M32.4,194.1c0,2-1.4,2.9-2.8,2.9c-1.6,0-2.8-1.1-2.8-2.9c0-1.8,1.2-2.9,2.9-2.9
				C31.3,191.2,32.4,192.4,32.4,194.1z M28.2,194.1c0,1.1,0.5,1.9,1.4,1.9c0.8,0,1.4-0.8,1.4-1.9c0-0.9-0.4-1.9-1.3-1.9
				C28.6,192.2,28.2,193.2,28.2,194.1z"/>
			<path class="st25" d="M33.5,193c0-0.6,0-1.2,0-1.6h1.2l0.1,0.8h0c0.2-0.4,0.8-1,1.8-1c1,0,2,0.6,2,2.4v3.3h-1.4v-3.1
				c0-0.8-0.3-1.4-1.1-1.4c-0.6,0-0.9,0.4-1.1,0.8c0,0.1-0.1,0.3-0.1,0.5v3.3h-1.4V193z"/>
			<path class="st25" d="M41.6,189.8v1.6h1.3v1h-1.3v2.4c0,0.7,0.2,1,0.7,1c0.2,0,0.4,0,0.5-0.1l0,1.1c-0.2,0.1-0.6,0.1-1,0.1
				c-0.5,0-0.9-0.2-1.2-0.5c-0.3-0.3-0.4-0.8-0.4-1.5v-2.6h-0.8v-1h0.8v-1.3L41.6,189.8z"/>
			<path class="st25" d="M44.9,194.5c0,1,0.8,1.4,1.7,1.4c0.6,0,1.1-0.1,1.5-0.3l0.2,1c-0.5,0.2-1.1,0.3-1.9,0.3
				c-1.8,0-2.9-1.1-2.9-2.8c0-1.5,0.9-3,2.7-3c1.8,0,2.4,1.5,2.4,2.7c0,0.3,0,0.5,0,0.6H44.9z M47.3,193.5c0-0.5-0.2-1.4-1.1-1.4
				c-0.9,0-1.2,0.8-1.3,1.4H47.3z"/>
			<path class="st25" d="M49.8,193c0-0.6,0-1.2,0-1.6h1.2l0.1,0.8h0c0.2-0.4,0.8-1,1.8-1c1,0,2,0.6,2,2.4v3.3h-1.4v-3.1
				c0-0.8-0.3-1.4-1.1-1.4c-0.6,0-0.9,0.4-1.1,0.8c0,0.1-0.1,0.3-0.1,0.5v3.3h-1.4V193z"/>
			<path class="st25" d="M57.8,189.8v1.6h1.3v1h-1.3v2.4c0,0.7,0.2,1,0.7,1c0.2,0,0.4,0,0.5-0.1l0,1.1c-0.2,0.1-0.6,0.1-1,0.1
				c-0.5,0-0.9-0.2-1.2-0.5c-0.3-0.3-0.4-0.8-0.4-1.5v-2.6h-0.8v-1h0.8v-1.3L57.8,189.8z"/>
			<path class="st25" d="M67.7,188.8v6.5c0,0.6,0,1.2,0,1.6h-1.3l-0.1-0.9h0c-0.3,0.6-1,1-1.8,1c-1.3,0-2.4-1.1-2.4-2.8
				c0-1.9,1.1-3,2.5-3c0.8,0,1.3,0.3,1.6,0.7h0v-3.1H67.7z M66.3,193.6c0-0.1,0-0.3,0-0.4c-0.1-0.5-0.6-1-1.2-1
				c-0.9,0-1.4,0.8-1.4,1.8c0,1,0.5,1.8,1.4,1.8c0.6,0,1.1-0.4,1.2-1c0-0.1,0-0.3,0-0.4V193.6z"/>
			<path class="st25" d="M70.7,189.8c0,0.4-0.3,0.8-0.8,0.8c-0.5,0-0.8-0.3-0.8-0.8c0-0.4,0.3-0.8,0.8-0.8
				C70.3,189,70.6,189.4,70.7,189.8z M69.2,196.9v-5.5h1.4v5.5H69.2z"/>
			<path class="st25" d="M72,195.6c0.3,0.2,0.9,0.4,1.4,0.4c0.6,0,0.9-0.3,0.9-0.6c0-0.4-0.2-0.6-0.9-0.8c-1.1-0.4-1.5-1-1.5-1.6
				c0-1,0.8-1.7,2.1-1.7c0.6,0,1.1,0.2,1.5,0.3l-0.3,1c-0.2-0.1-0.7-0.3-1.2-0.3c-0.5,0-0.8,0.2-0.8,0.6c0,0.4,0.3,0.5,1,0.8
				c1,0.4,1.5,0.9,1.5,1.7c0,1-0.8,1.7-2.3,1.7c-0.7,0-1.3-0.2-1.7-0.4L72,195.6z"/>
			<path class="st25" d="M80.9,196.7c-0.3,0.1-0.9,0.3-1.6,0.3c-1.7,0-2.9-1.1-2.9-2.8c0-1.7,1.1-3,3.1-3c0.5,0,1,0.1,1.4,0.3
				l-0.3,1c-0.2-0.1-0.6-0.2-1.1-0.2c-1.1,0-1.7,0.8-1.7,1.8c0,1.1,0.7,1.8,1.7,1.8c0.5,0,0.8-0.1,1.1-0.2L80.9,196.7z"/>
			<path class="st25" d="M87.1,194.1c0,2-1.4,2.9-2.8,2.9c-1.6,0-2.8-1.1-2.8-2.9c0-1.8,1.2-2.9,2.9-2.9
				C86,191.2,87.1,192.4,87.1,194.1z M82.9,194.1c0,1.1,0.5,1.9,1.4,1.9c0.8,0,1.4-0.8,1.4-1.9c0-0.9-0.4-1.9-1.3-1.9
				C83.3,192.2,82.9,193.2,82.9,194.1z"/>
			<path class="st25" d="M89,191.3l0.9,2.8c0.2,0.5,0.3,0.9,0.4,1.4h0c0.1-0.5,0.2-0.9,0.4-1.4l0.9-2.8h1.5l-2.1,5.5h-1.4l-2.1-5.5
				H89z"/>
			<path class="st25" d="M94.8,194.5c0,1,0.8,1.4,1.7,1.4c0.6,0,1.1-0.1,1.5-0.3l0.2,1c-0.5,0.2-1.1,0.3-1.9,0.3
				c-1.8,0-2.9-1.1-2.9-2.8c0-1.5,0.9-3,2.7-3c1.8,0,2.4,1.5,2.4,2.7c0,0.3,0,0.5,0,0.6H94.8z M97.2,193.5c0-0.5-0.2-1.4-1.1-1.4
				c-0.9,0-1.2,0.8-1.3,1.4H97.2z"/>
			<path class="st25" d="M99.6,193.1c0-0.8,0-1.3,0-1.8h1.2l0,1.1h0c0.3-0.8,0.9-1.2,1.5-1.2c0.1,0,0.2,0,0.3,0v1.3
				c-0.1,0-0.2,0-0.4,0c-0.7,0-1.1,0.4-1.3,1.1c0,0.1,0,0.3,0,0.4v2.9h-1.4V193.1z"/>
			<path class="st25" d="M104.8,191.3l1,3c0.1,0.3,0.2,0.8,0.3,1.1h0c0.1-0.3,0.2-0.7,0.3-1.1l0.9-3h1.5l-1.4,3.8
				c-0.8,2.1-1.3,3-1.9,3.6c-0.5,0.5-1.1,0.7-1.5,0.7l-0.3-1.2c0.2-0.1,0.5-0.2,0.8-0.4c0.3-0.2,0.6-0.5,0.8-0.9
				c0.1-0.1,0.1-0.2,0.1-0.3c0-0.1,0-0.1-0.1-0.3l-2-5.1H104.8z"/>
			<path class="st25" d="M37.1,208.5l-0.1-0.6h0c-0.3,0.4-0.9,0.7-1.6,0.7c-1.1,0-1.7-0.8-1.7-1.6c0-1.4,1.2-2.1,3.3-2.1v-0.1
				c0-0.4-0.1-1-1.1-1c-0.5,0-1.1,0.2-1.5,0.4l-0.3-0.9c0.4-0.3,1.1-0.5,2-0.5c1.8,0,2.3,1.1,2.3,2.3v2c0,0.5,0,1,0.1,1.3H37.1z
				 M36.9,205.8c-1,0-1.9,0.2-1.9,1c0,0.5,0.4,0.8,0.8,0.8c0.6,0,1-0.4,1.1-0.8c0-0.1,0-0.2,0-0.3V205.8z"/>
			<path class="st25" d="M39.8,204.7c0-0.6,0-1.2,0-1.6h1.2l0.1,0.8h0c0.2-0.4,0.8-1,1.8-1c1,0,2,0.6,2,2.4v3.3h-1.4v-3.1
				c0-0.8-0.3-1.4-1.1-1.4c-0.6,0-0.9,0.4-1.1,0.8c0,0.1-0.1,0.3-0.1,0.5v3.3h-1.4V204.7z"/>
			<path class="st25" d="M51.4,200.5v6.5c0,0.6,0,1.2,0,1.6h-1.3l-0.1-0.9h0c-0.3,0.6-1,1-1.8,1c-1.3,0-2.4-1.1-2.4-2.8
				c0-1.9,1.1-3,2.5-3c0.8,0,1.3,0.3,1.6,0.7h0v-3.1H51.4z M50,205.3c0-0.1,0-0.3,0-0.4c-0.1-0.5-0.6-1-1.2-1
				c-0.9,0-1.4,0.8-1.4,1.8c0,1,0.5,1.8,1.4,1.8c0.6,0,1.1-0.4,1.2-1c0-0.1,0-0.3,0-0.4V205.3z"/>
			<path class="st25" d="M55.2,204.8c0-0.8,0-1.3,0-1.8h1.2l0,1.1h0c0.3-0.8,0.9-1.2,1.5-1.2c0.1,0,0.2,0,0.3,0v1.3
				c-0.1,0-0.2,0-0.4,0c-0.7,0-1.1,0.4-1.3,1.1c0,0.1,0,0.3,0,0.4v2.9h-1.4V204.8z"/>
			<path class="st25" d="M60.2,206.2c0,1,0.8,1.4,1.7,1.4c0.6,0,1.1-0.1,1.5-0.3l0.2,1c-0.5,0.2-1.1,0.3-1.9,0.3
				c-1.8,0-2.9-1.1-2.9-2.8c0-1.5,0.9-3,2.7-3c1.8,0,2.4,1.5,2.4,2.7c0,0.3,0,0.5,0,0.6H60.2z M62.6,205.2c0-0.5-0.2-1.4-1.1-1.4
				c-0.9,0-1.2,0.8-1.3,1.4H62.6z"/>
			<path class="st25" d="M66.6,201.4v1.6H68v1h-1.3v2.4c0,0.7,0.2,1,0.7,1c0.2,0,0.4,0,0.5-0.1l0,1.1c-0.2,0.1-0.6,0.1-1,0.1
				c-0.5,0-0.9-0.2-1.2-0.5c-0.3-0.3-0.4-0.8-0.4-1.5v-2.6h-0.8v-1h0.8v-1.3L66.6,201.4z"/>
			<path class="st25" d="M69,204.8c0-0.8,0-1.3,0-1.8h1.2l0,1.1h0c0.3-0.8,0.9-1.2,1.5-1.2c0.1,0,0.2,0,0.3,0v1.3
				c-0.1,0-0.2,0-0.4,0c-0.7,0-1.1,0.4-1.3,1.1c0,0.1,0,0.3,0,0.4v2.9H69V204.8z"/>
			<path class="st25" d="M74.6,201.5c0,0.4-0.3,0.8-0.8,0.8c-0.5,0-0.8-0.3-0.8-0.8c0-0.4,0.3-0.8,0.8-0.8
				C74.3,200.7,74.6,201,74.6,201.5z M73.1,208.5V203h1.4v5.5H73.1z"/>
			<path class="st25" d="M77,206.2c0,1,0.8,1.4,1.7,1.4c0.6,0,1.1-0.1,1.5-0.3l0.2,1c-0.5,0.2-1.1,0.3-1.9,0.3
				c-1.8,0-2.9-1.1-2.9-2.8c0-1.5,0.9-3,2.7-3c1.8,0,2.4,1.5,2.4,2.7c0,0.3,0,0.5,0,0.6H77z M79.4,205.2c0-0.5-0.2-1.4-1.1-1.4
				c-0.9,0-1.2,0.8-1.3,1.4H79.4z"/>
			<path class="st25" d="M82.7,203l0.9,2.8c0.2,0.5,0.3,0.9,0.4,1.4h0c0.1-0.5,0.2-0.9,0.4-1.4l0.9-2.8h1.5l-2.1,5.5h-1.4l-2.1-5.5
				H82.7z"/>
			<path class="st25" d="M90.7,208.5l-0.1-0.6h0c-0.3,0.4-0.9,0.7-1.6,0.7c-1.1,0-1.7-0.8-1.7-1.6c0-1.4,1.2-2.1,3.3-2.1v-0.1
				c0-0.4-0.1-1-1.1-1c-0.5,0-1.1,0.2-1.5,0.4l-0.3-0.9c0.4-0.3,1.1-0.5,2-0.5c1.8,0,2.3,1.1,2.3,2.3v2c0,0.5,0,1,0.1,1.3H90.7z
				 M90.5,205.8c-1,0-1.9,0.2-1.9,1c0,0.5,0.4,0.8,0.8,0.8c0.6,0,1-0.4,1.1-0.8c0-0.1,0-0.2,0-0.3V205.8z"/>
			<path class="st25" d="M93.3,200.5h1.4v8.1h-1.4V200.5z"/>
		</g>
	</g>
	<g>
		<g>
			<path class="st25" d="M253.5,196.1c-0.3,0.2-1.1,0.3-2,0.3c-2.4,0-3.9-1.5-3.9-3.9c0-2.5,1.8-4,4.1-4c0.9,0,1.6,0.2,1.9,0.3
				l-0.3,1.1c-0.4-0.2-0.9-0.3-1.5-0.3c-1.6,0-2.7,1-2.7,2.8c0,1.7,1,2.8,2.7,2.8c0.6,0,1.2-0.1,1.5-0.3L253.5,196.1z"/>
			<path class="st25" d="M259.7,193.6c0,2-1.4,2.9-2.8,2.9c-1.6,0-2.8-1.1-2.8-2.9c0-1.8,1.2-2.9,2.9-2.9
				C258.6,190.7,259.7,191.9,259.7,193.6z M255.6,193.6c0,1.1,0.5,1.9,1.4,1.9c0.8,0,1.4-0.8,1.4-1.9c0-0.9-0.4-1.9-1.3-1.9
				C256,191.7,255.6,192.7,255.6,193.6z"/>
			<path class="st25" d="M260.9,192.5c0-0.6,0-1.2,0-1.6h1.2l0.1,0.8h0c0.2-0.4,0.8-1,1.8-1c1,0,2,0.6,2,2.4v3.3h-1.4v-3.1
				c0-0.8-0.3-1.4-1.1-1.4c-0.6,0-0.9,0.4-1.1,0.8c0,0.1-0.1,0.3-0.1,0.5v3.3h-1.4V192.5z"/>
			<path class="st25" d="M268.9,189.3v1.6h1.3v1h-1.3v2.4c0,0.7,0.2,1,0.7,1c0.2,0,0.4,0,0.5-0.1l0,1.1c-0.2,0.1-0.6,0.1-1,0.1
				c-0.5,0-0.9-0.2-1.2-0.5c-0.3-0.3-0.4-0.8-0.4-1.5v-2.6h-0.8v-1h0.8v-1.3L268.9,189.3z"/>
			<path class="st25" d="M272.3,194c0,1,0.8,1.4,1.7,1.4c0.6,0,1.1-0.1,1.5-0.3l0.2,1c-0.5,0.2-1.1,0.3-1.9,0.3
				c-1.8,0-2.9-1.1-2.9-2.8c0-1.5,0.9-3,2.7-3c1.8,0,2.4,1.5,2.4,2.7c0,0.3,0,0.5,0,0.6H272.3z M274.7,193c0-0.5-0.2-1.4-1.1-1.4
				c-0.9,0-1.2,0.8-1.3,1.4H274.7z"/>
			<path class="st25" d="M277.1,192.5c0-0.6,0-1.2,0-1.6h1.2l0.1,0.8h0c0.2-0.4,0.8-1,1.8-1c1,0,2,0.6,2,2.4v3.3h-1.4v-3.1
				c0-0.8-0.3-1.4-1.1-1.4c-0.6,0-0.9,0.4-1.1,0.8c0,0.1-0.1,0.3-0.1,0.5v3.3h-1.4V192.5z"/>
			<path class="st25" d="M285.2,189.3v1.6h1.3v1h-1.3v2.4c0,0.7,0.2,1,0.7,1c0.2,0,0.4,0,0.5-0.1l0,1.1c-0.2,0.1-0.6,0.1-1,0.1
				c-0.5,0-0.9-0.2-1.2-0.5c-0.3-0.3-0.4-0.8-0.4-1.5v-2.6H283v-1h0.8v-1.3L285.2,189.3z"/>
			<path class="st25" d="M294,196.2c-0.3,0.1-0.9,0.3-1.6,0.3c-1.7,0-2.9-1.1-2.9-2.8c0-1.7,1.1-3,3.1-3c0.5,0,1,0.1,1.4,0.3l-0.3,1
				c-0.2-0.1-0.6-0.2-1.1-0.2c-1.1,0-1.7,0.8-1.7,1.8c0,1.1,0.7,1.8,1.7,1.8c0.5,0,0.8-0.1,1.1-0.2L294,196.2z"/>
			<path class="st25" d="M295,192.6c0-0.8,0-1.3,0-1.8h1.2l0,1.1h0c0.3-0.8,0.9-1.2,1.5-1.2c0.1,0,0.2,0,0.3,0v1.3
				c-0.1,0-0.2,0-0.4,0c-0.7,0-1.1,0.4-1.3,1.1c0,0.1,0,0.3,0,0.4v2.9H295V192.6z"/>
			<path class="st25" d="M300,194c0,1,0.8,1.4,1.7,1.4c0.6,0,1.1-0.1,1.5-0.3l0.2,1c-0.5,0.2-1.1,0.3-1.9,0.3
				c-1.8,0-2.9-1.1-2.9-2.8c0-1.5,0.9-3,2.7-3c1.8,0,2.4,1.5,2.4,2.7c0,0.3,0,0.5,0,0.6H300z M302.4,193c0-0.5-0.2-1.4-1.1-1.4
				c-0.9,0-1.2,0.8-1.3,1.4H302.4z"/>
			<path class="st25" d="M308,196.4l-0.1-0.6h0c-0.3,0.4-0.9,0.7-1.6,0.7c-1.1,0-1.7-0.8-1.7-1.6c0-1.4,1.2-2.1,3.3-2.1v-0.1
				c0-0.4-0.1-1-1.1-1c-0.5,0-1.1,0.2-1.5,0.4l-0.3-0.9c0.4-0.3,1.1-0.5,2-0.5c1.8,0,2.3,1.1,2.3,2.3v2c0,0.5,0,1,0.1,1.3H308z
				 M307.8,193.7c-1,0-1.9,0.2-1.9,1c0,0.5,0.4,0.8,0.8,0.8c0.6,0,1-0.4,1.1-0.8c0-0.1,0-0.2,0-0.3V193.7z"/>
			<path class="st25" d="M312.2,189.3v1.6h1.3v1h-1.3v2.4c0,0.7,0.2,1,0.7,1c0.2,0,0.4,0,0.5-0.1l0,1.1c-0.2,0.1-0.6,0.1-1,0.1
				c-0.5,0-0.9-0.2-1.2-0.5c-0.3-0.3-0.4-0.8-0.4-1.5v-2.6H310v-1h0.8v-1.3L312.2,189.3z"/>
			<path class="st25" d="M316,189.3c0,0.4-0.3,0.8-0.8,0.8c-0.5,0-0.8-0.3-0.8-0.8c0-0.4,0.3-0.8,0.8-0.8
				C315.7,188.5,316,188.9,316,189.3z M314.6,196.4v-5.5h1.4v5.5H314.6z"/>
			<path class="st25" d="M322.7,193.6c0,2-1.4,2.9-2.8,2.9c-1.6,0-2.8-1.1-2.8-2.9c0-1.8,1.2-2.9,2.9-2.9
				C321.6,190.7,322.7,191.9,322.7,193.6z M318.6,193.6c0,1.1,0.5,1.9,1.4,1.9c0.8,0,1.4-0.8,1.4-1.9c0-0.9-0.4-1.9-1.3-1.9
				C319,191.7,318.6,192.7,318.6,193.6z"/>
			<path class="st25" d="M323.9,192.5c0-0.6,0-1.2,0-1.6h1.2l0.1,0.8h0c0.2-0.4,0.8-1,1.8-1c1,0,2,0.6,2,2.4v3.3h-1.4v-3.1
				c0-0.8-0.3-1.4-1.1-1.4c-0.6,0-0.9,0.4-1.1,0.8c0,0.1-0.1,0.3-0.1,0.5v3.3h-1.4V192.5z"/>
			<path class="st25" d="M253.2,208l-0.1-0.6h0c-0.3,0.4-0.9,0.7-1.6,0.7c-1.1,0-1.7-0.8-1.7-1.6c0-1.4,1.2-2.1,3.3-2.1v-0.1
				c0-0.4-0.1-1-1.1-1c-0.5,0-1.1,0.2-1.5,0.4l-0.3-0.9c0.4-0.3,1.1-0.5,2-0.5c1.8,0,2.3,1.1,2.3,2.3v2c0,0.5,0,1,0.1,1.3H253.2z
				 M253,205.3c-1,0-1.9,0.2-1.9,1c0,0.5,0.4,0.8,0.8,0.8c0.6,0,1-0.4,1.1-0.8c0-0.1,0-0.2,0-0.3V205.3z"/>
			<path class="st25" d="M255.9,204.2c0-0.6,0-1.2,0-1.6h1.2l0.1,0.8h0c0.2-0.4,0.8-1,1.8-1c1,0,2,0.6,2,2.4v3.3h-1.4v-3.1
				c0-0.8-0.3-1.4-1.1-1.4c-0.6,0-0.9,0.4-1.1,0.8c0,0.1-0.1,0.3-0.1,0.5v3.3h-1.4V204.2z"/>
			<path class="st25" d="M267.5,200v6.5c0,0.6,0,1.2,0,1.6h-1.3l-0.1-0.9h0c-0.3,0.6-1,1-1.8,1c-1.3,0-2.4-1.1-2.4-2.8
				c0-1.9,1.1-3,2.5-3c0.8,0,1.3,0.3,1.6,0.7h0V200H267.5z M266.1,204.8c0-0.1,0-0.3,0-0.4c-0.1-0.5-0.6-1-1.2-1
				c-0.9,0-1.4,0.8-1.4,1.8c0,1,0.5,1.8,1.4,1.8c0.6,0,1.1-0.4,1.2-1c0-0.1,0-0.3,0-0.4V204.8z"/>
			<path class="st25" d="M272.3,205.7c0,1,0.8,1.4,1.7,1.4c0.6,0,1.1-0.1,1.5-0.3l0.2,1c-0.5,0.2-1.1,0.3-1.9,0.3
				c-1.8,0-2.9-1.1-2.9-2.8c0-1.5,0.9-3,2.7-3c1.8,0,2.4,1.5,2.4,2.7c0,0.3,0,0.5,0,0.6H272.3z M274.8,204.7c0-0.5-0.2-1.4-1.1-1.4
				c-0.9,0-1.2,0.8-1.3,1.4H274.8z"/>
			<path class="st25" d="M277.2,204.2c0-0.6,0-1.2,0-1.6h1.2l0.1,0.8h0c0.2-0.4,0.8-1,1.8-1c1,0,2,0.6,2,2.4v3.3h-1.4v-3.1
				c0-0.8-0.3-1.4-1.1-1.4c-0.6,0-0.9,0.4-1.1,0.8c0,0.1-0.1,0.3-0.1,0.5v3.3h-1.4V204.2z"/>
			<path class="st25" d="M283.7,204.3c0-0.8,0-1.3,0-1.8h1.2l0,1.1h0c0.3-0.8,0.9-1.2,1.5-1.2c0.1,0,0.2,0,0.3,0v1.3
				c-0.1,0-0.2,0-0.4,0c-0.7,0-1.1,0.4-1.3,1.1c0,0.1,0,0.3,0,0.4v2.9h-1.4V204.3z"/>
			<path class="st25" d="M289.3,201c0,0.4-0.3,0.8-0.8,0.8c-0.5,0-0.8-0.3-0.8-0.8c0-0.4,0.3-0.8,0.8-0.8
				C289,200.2,289.3,200.5,289.3,201z M287.8,208v-5.5h1.4v5.5H287.8z"/>
			<path class="st25" d="M294.8,207.9c-0.3,0.1-0.9,0.3-1.6,0.3c-1.7,0-2.9-1.1-2.9-2.8c0-1.7,1.1-3,3.1-3c0.5,0,1,0.1,1.4,0.3
				l-0.3,1c-0.2-0.1-0.6-0.2-1.1-0.2c-1.1,0-1.7,0.8-1.7,1.8c0,1.1,0.7,1.8,1.7,1.8c0.5,0,0.8-0.1,1.1-0.2L294.8,207.9z"/>
			<path class="st25" d="M295.8,200h1.4v3.3h0c0.2-0.3,0.4-0.5,0.7-0.6c0.3-0.2,0.6-0.3,1-0.3c0.9,0,1.9,0.6,1.9,2.4v3.3h-1.4v-3.1
				c0-0.8-0.3-1.4-1.1-1.4c-0.5,0-0.9,0.4-1.1,0.8c0,0.1-0.1,0.3-0.1,0.4v3.3h-1.4V200z"/>
			<path class="st25" d="M302.3,204.2c0-0.6,0-1.2,0-1.6h1.2l0.1,0.8h0c0.3-0.4,0.8-0.9,1.7-0.9c0.7,0,1.3,0.4,1.5,1h0
				c0.2-0.3,0.4-0.5,0.7-0.7c0.3-0.2,0.7-0.3,1.1-0.3c0.9,0,1.9,0.6,1.9,2.4v3.3h-1.4V205c0-0.9-0.3-1.5-1-1.5c-0.5,0-0.8,0.3-1,0.7
				c0,0.1-0.1,0.3-0.1,0.5v3.3h-1.4v-3.2c0-0.8-0.3-1.3-1-1.3c-0.5,0-0.9,0.4-1,0.8c-0.1,0.1-0.1,0.3-0.1,0.5v3.3h-1.4V204.2z"/>
			<path class="st25" d="M312.9,205.7c0,1,0.8,1.4,1.7,1.4c0.6,0,1.1-0.1,1.5-0.3l0.2,1c-0.5,0.2-1.1,0.3-1.9,0.3
				c-1.8,0-2.9-1.1-2.9-2.8c0-1.5,0.9-3,2.7-3c1.8,0,2.4,1.5,2.4,2.7c0,0.3,0,0.5,0,0.6H312.9z M315.4,204.7c0-0.5-0.2-1.4-1.1-1.4
				c-0.9,0-1.2,0.8-1.3,1.4H315.4z"/>
			<path class="st25" d="M317.8,204.2c0-0.6,0-1.2,0-1.6h1.2l0.1,0.8h0c0.2-0.4,0.8-1,1.8-1c1,0,2,0.6,2,2.4v3.3h-1.4v-3.1
				c0-0.8-0.3-1.4-1.1-1.4c-0.6,0-0.9,0.4-1.1,0.8c0,0.1-0.1,0.3-0.1,0.5v3.3h-1.4V204.2z"/>
			<path class="st25" d="M325.9,200.9v1.6h1.3v1h-1.3v2.4c0,0.7,0.2,1,0.7,1c0.2,0,0.4,0,0.5-0.1l0,1.1c-0.2,0.1-0.6,0.1-1,0.1
				c-0.5,0-0.9-0.2-1.2-0.5c-0.3-0.3-0.4-0.8-0.4-1.5v-2.6h-0.8v-1h0.8v-1.3L325.9,200.9z"/>
		</g>
	</g>
	<g>
		<g>
			<path class="st25" d="M213.8,289.4c-0.3,0.2-1.1,0.3-2,0.3c-2.4,0-3.9-1.5-3.9-3.9c0-2.5,1.8-4,4.1-4c0.9,0,1.6,0.2,1.9,0.3
				l-0.3,1.1c-0.4-0.2-0.9-0.3-1.5-0.3c-1.6,0-2.7,1-2.7,2.8c0,1.7,1,2.8,2.7,2.8c0.6,0,1.2-0.1,1.5-0.3L213.8,289.4z"/>
			<path class="st25" d="M220.1,286.8c0,2-1.4,2.9-2.8,2.9c-1.6,0-2.8-1.1-2.8-2.9c0-1.8,1.2-2.9,2.9-2.9
				C219,284,220.1,285.1,220.1,286.8z M215.9,286.9c0,1.1,0.5,1.9,1.4,1.9c0.8,0,1.4-0.8,1.4-1.9c0-0.9-0.4-1.9-1.3-1.9
				C216.3,285,215.9,285.9,215.9,286.9z"/>
			<path class="st25" d="M221.2,285.7c0-0.6,0-1.2,0-1.6h1.2l0.1,0.8h0c0.2-0.4,0.8-1,1.8-1c1,0,2,0.6,2,2.4v3.3h-1.4v-3.1
				c0-0.8-0.3-1.4-1.1-1.4c-0.6,0-0.9,0.4-1.1,0.8c0,0.1-0.1,0.3-0.1,0.5v3.3h-1.4V285.7z"/>
			<path class="st25" d="M229.3,282.5v1.6h1.3v1h-1.3v2.4c0,0.7,0.2,1,0.7,1c0.2,0,0.4,0,0.5-0.1l0,1.1c-0.2,0.1-0.6,0.1-1,0.1
				c-0.5,0-0.9-0.2-1.2-0.5c-0.3-0.3-0.4-0.8-0.4-1.5v-2.6h-0.8v-1h0.8v-1.3L229.3,282.5z"/>
			<path class="st25" d="M232.6,287.2c0,1,0.8,1.4,1.7,1.4c0.6,0,1.1-0.1,1.5-0.3l0.2,1c-0.5,0.2-1.1,0.3-1.9,0.3
				c-1.8,0-2.9-1.1-2.9-2.8c0-1.5,0.9-3,2.7-3c1.8,0,2.4,1.5,2.4,2.7c0,0.3,0,0.5,0,0.6H232.6z M235,286.3c0-0.5-0.2-1.4-1.1-1.4
				c-0.9,0-1.2,0.8-1.3,1.4H235z"/>
			<path class="st25" d="M237.5,285.7c0-0.6,0-1.2,0-1.6h1.2l0.1,0.8h0c0.2-0.4,0.8-1,1.8-1c1,0,2,0.6,2,2.4v3.3h-1.4v-3.1
				c0-0.8-0.3-1.4-1.1-1.4c-0.6,0-0.9,0.4-1.1,0.8c0,0.1-0.1,0.3-0.1,0.5v3.3h-1.4V285.7z"/>
			<path class="st25" d="M245.5,282.5v1.6h1.3v1h-1.3v2.4c0,0.7,0.2,1,0.7,1c0.2,0,0.4,0,0.5-0.1l0,1.1c-0.2,0.1-0.6,0.1-1,0.1
				c-0.5,0-0.9-0.2-1.2-0.5c-0.3-0.3-0.4-0.8-0.4-1.5v-2.6h-0.8v-1h0.8v-1.3L245.5,282.5z"/>
			<path class="st25" d="M190.3,301.3l-0.1-0.6h0c-0.3,0.4-0.9,0.7-1.6,0.7c-1.1,0-1.7-0.8-1.7-1.6c0-1.4,1.2-2.1,3.3-2.1v-0.1
				c0-0.4-0.1-1-1.1-1c-0.5,0-1.1,0.2-1.5,0.4l-0.3-0.9c0.4-0.3,1.1-0.5,2-0.5c1.8,0,2.3,1.1,2.3,2.3v2c0,0.5,0,1,0.1,1.3H190.3z
				 M190.1,298.6c-1,0-1.9,0.2-1.9,1c0,0.5,0.4,0.8,0.8,0.8c0.6,0,1-0.4,1.1-0.8c0-0.1,0-0.2,0-0.3V298.6z"/>
			<path class="st25" d="M198,295.7c0,0.4,0,0.8,0,1.6v3.1c0,1.2-0.2,2-0.8,2.5c-0.6,0.5-1.4,0.7-2.1,0.7c-0.7,0-1.5-0.1-1.9-0.4
				l0.3-1.1c0.4,0.2,0.9,0.4,1.6,0.4c0.9,0,1.6-0.5,1.6-1.7v-0.5h0c-0.3,0.5-0.9,0.8-1.6,0.8c-1.4,0-2.4-1.1-2.4-2.7
				c0-1.8,1.2-2.9,2.5-2.9c0.8,0,1.3,0.4,1.6,0.9h0l0.1-0.7H198z M196.6,298c0-0.1,0-0.3,0-0.4c-0.1-0.5-0.5-0.9-1.1-0.9
				c-0.8,0-1.4,0.7-1.4,1.8c0,0.9,0.5,1.7,1.4,1.7c0.5,0,1-0.3,1.1-0.8c0-0.1,0.1-0.3,0.1-0.5V298z"/>
			<path class="st25" d="M204.5,295.7c0,0.4,0,0.8,0,1.6v3.1c0,1.2-0.2,2-0.8,2.5c-0.6,0.5-1.4,0.7-2.1,0.7c-0.7,0-1.5-0.1-1.9-0.4
				l0.3-1.1c0.4,0.2,0.9,0.4,1.6,0.4c0.9,0,1.6-0.5,1.6-1.7v-0.5h0c-0.3,0.5-0.9,0.8-1.6,0.8c-1.4,0-2.4-1.1-2.4-2.7
				c0-1.8,1.2-2.9,2.5-2.9c0.8,0,1.3,0.4,1.6,0.9h0l0.1-0.7H204.5z M203.1,298c0-0.1,0-0.3,0-0.4c-0.1-0.5-0.5-0.9-1.1-0.9
				c-0.8,0-1.4,0.7-1.4,1.8c0,0.9,0.5,1.7,1.4,1.7c0.5,0,1-0.3,1.1-0.8c0-0.1,0.1-0.3,0.1-0.5V298z"/>
			<path class="st25" d="M205.9,297.5c0-0.8,0-1.3,0-1.8h1.2l0,1.1h0c0.3-0.8,0.9-1.2,1.5-1.2c0.1,0,0.2,0,0.3,0v1.3
				c-0.1,0-0.2,0-0.4,0c-0.7,0-1.1,0.4-1.3,1.1c0,0.1,0,0.3,0,0.4v2.9h-1.4V297.5z"/>
			<path class="st25" d="M210.9,298.9c0,1,0.8,1.4,1.7,1.4c0.6,0,1.1-0.1,1.5-0.3l0.2,1c-0.5,0.2-1.1,0.3-1.9,0.3
				c-1.8,0-2.9-1.1-2.9-2.8c0-1.5,0.9-3,2.7-3c1.8,0,2.4,1.5,2.4,2.7c0,0.3,0,0.5,0,0.6H210.9z M213.3,297.9c0-0.5-0.2-1.4-1.1-1.4
				c-0.9,0-1.2,0.8-1.3,1.4H213.3z"/>
			<path class="st25" d="M220.8,295.7c0,0.4,0,0.8,0,1.6v3.1c0,1.2-0.2,2-0.8,2.5c-0.6,0.5-1.4,0.7-2.1,0.7c-0.7,0-1.5-0.1-1.9-0.4
				l0.3-1.1c0.4,0.2,0.9,0.4,1.6,0.4c0.9,0,1.6-0.5,1.6-1.7v-0.5h0c-0.3,0.5-0.9,0.8-1.6,0.8c-1.4,0-2.4-1.1-2.4-2.7
				c0-1.8,1.2-2.9,2.5-2.9c0.8,0,1.3,0.4,1.6,0.9h0l0.1-0.7H220.8z M219.4,298c0-0.1,0-0.3,0-0.4c-0.1-0.5-0.5-0.9-1.1-0.9
				c-0.8,0-1.4,0.7-1.4,1.8c0,0.9,0.5,1.7,1.4,1.7c0.5,0,1-0.3,1.1-0.8c0-0.1,0.1-0.3,0.1-0.5V298z"/>
			<path class="st25" d="M225.4,301.3l-0.1-0.6h0c-0.3,0.4-0.9,0.7-1.6,0.7c-1.1,0-1.7-0.8-1.7-1.6c0-1.4,1.2-2.1,3.3-2.1v-0.1
				c0-0.4-0.1-1-1.1-1c-0.5,0-1.1,0.2-1.5,0.4l-0.3-0.9c0.4-0.3,1.1-0.5,2-0.5c1.8,0,2.3,1.1,2.3,2.3v2c0,0.5,0,1,0.1,1.3H225.4z
				 M225.2,298.6c-1,0-1.9,0.2-1.9,1c0,0.5,0.4,0.8,0.8,0.8c0.6,0,1-0.4,1.1-0.8c0-0.1,0-0.2,0-0.3V298.6z"/>
			<path class="st25" d="M229.6,294.2v1.6h1.3v1h-1.3v2.4c0,0.7,0.2,1,0.7,1c0.2,0,0.4,0,0.5-0.1l0,1.1c-0.2,0.1-0.6,0.1-1,0.1
				c-0.5,0-0.9-0.2-1.2-0.5c-0.3-0.3-0.4-0.8-0.4-1.5v-2.6h-0.8v-1h0.8v-1.3L229.6,294.2z"/>
			<path class="st25" d="M233.5,294.2c0,0.4-0.3,0.8-0.8,0.8c-0.5,0-0.8-0.3-0.8-0.8c0-0.4,0.3-0.8,0.8-0.8
				C233.1,293.4,233.4,293.8,233.5,294.2z M232,301.3v-5.5h1.4v5.5H232z"/>
			<path class="st25" d="M240.1,298.5c0,2-1.4,2.9-2.8,2.9c-1.6,0-2.8-1.1-2.8-2.9c0-1.8,1.2-2.9,2.9-2.9
				C239,295.6,240.1,296.8,240.1,298.5z M236,298.5c0,1.1,0.5,1.9,1.4,1.9c0.8,0,1.4-0.8,1.4-1.9c0-0.9-0.4-1.9-1.3-1.9
				C236.4,296.6,236,297.6,236,298.5z"/>
			<path class="st25" d="M241.3,297.4c0-0.6,0-1.2,0-1.6h1.2l0.1,0.8h0c0.2-0.4,0.8-1,1.8-1c1,0,2,0.6,2,2.4v3.3h-1.4v-3.1
				c0-0.8-0.3-1.4-1.1-1.4c-0.6,0-0.9,0.4-1.1,0.8c0,0.1-0.1,0.3-0.1,0.5v3.3h-1.4V297.4z"/>
			<path class="st25" d="M253.3,301.3l-0.1-0.6h0c-0.3,0.4-0.9,0.7-1.6,0.7c-1.1,0-1.7-0.8-1.7-1.6c0-1.4,1.2-2.1,3.3-2.1v-0.1
				c0-0.4-0.1-1-1.1-1c-0.5,0-1.1,0.2-1.5,0.4l-0.3-0.9c0.4-0.3,1.1-0.5,2-0.5c1.8,0,2.3,1.1,2.3,2.3v2c0,0.5,0,1,0.1,1.3H253.3z
				 M253.1,298.6c-1,0-1.9,0.2-1.9,1c0,0.5,0.4,0.8,0.8,0.8c0.6,0,1-0.4,1.1-0.8c0-0.1,0-0.2,0-0.3V298.6z"/>
			<path class="st25" d="M255.9,297.4c0-0.6,0-1.2,0-1.6h1.2l0.1,0.8h0c0.2-0.4,0.8-1,1.8-1c1,0,2,0.6,2,2.4v3.3h-1.4v-3.1
				c0-0.8-0.3-1.4-1.1-1.4c-0.6,0-0.9,0.4-1.1,0.8c0,0.1-0.1,0.3-0.1,0.5v3.3h-1.4V297.4z"/>
			<path class="st25" d="M267.5,293.2v6.5c0,0.6,0,1.2,0,1.6h-1.3l-0.1-0.9h0c-0.3,0.6-1,1-1.8,1c-1.3,0-2.4-1.1-2.4-2.8
				c0-1.9,1.1-3,2.5-3c0.8,0,1.3,0.3,1.6,0.7h0v-3.1H267.5z M266.1,298.1c0-0.1,0-0.3,0-0.4c-0.1-0.5-0.6-1-1.2-1
				c-0.9,0-1.4,0.8-1.4,1.8c0,1,0.5,1.8,1.4,1.8c0.6,0,1.1-0.4,1.2-1c0-0.1,0-0.3,0-0.4V298.1z"/>
			<path class="st25" d="M195.8,309.2c0-0.8,0-1.3,0-1.8h1.2l0,1.1h0c0.3-0.8,0.9-1.2,1.5-1.2c0.1,0,0.2,0,0.3,0v1.3
				c-0.1,0-0.2,0-0.4,0c-0.7,0-1.1,0.4-1.3,1.1c0,0.1,0,0.3,0,0.4v2.9h-1.4V309.2z"/>
			<path class="st25" d="M200.7,310.6c0,1,0.8,1.4,1.7,1.4c0.6,0,1.1-0.1,1.5-0.3l0.2,1c-0.5,0.2-1.1,0.3-1.9,0.3
				c-1.8,0-2.9-1.1-2.9-2.8c0-1.5,0.9-3,2.7-3c1.8,0,2.4,1.5,2.4,2.7c0,0.3,0,0.5,0,0.6H200.7z M203.1,309.6c0-0.5-0.2-1.4-1.1-1.4
				c-0.9,0-1.2,0.8-1.3,1.4H203.1z"/>
			<path class="st25" d="M208.4,309.4v1h-2.9v-1H208.4z"/>
			<path class="st25" d="M209.5,309.3c0-0.7,0-1.3,0-1.8h1.2l0.1,0.9h0c0.4-0.6,1.1-1,1.9-1c1.3,0,2.3,1.1,2.3,2.8c0,2-1.3,3-2.5,3
				c-0.7,0-1.3-0.3-1.6-0.7h0v2.9h-1.4V309.3z M210.9,310.6c0,0.1,0,0.3,0,0.4c0.1,0.6,0.6,1,1.2,1c0.9,0,1.4-0.7,1.4-1.8
				c0-1-0.5-1.8-1.4-1.8c-0.6,0-1.1,0.4-1.3,1c0,0.1-0.1,0.2-0.1,0.4V310.6z"/>
			<path class="st25" d="M221.1,311.3c0,0.7,0,1.2,0,1.7h-1.2l-0.1-0.8h0c-0.2,0.4-0.8,1-1.8,1c-1,0-1.9-0.6-1.9-2.4v-3.3h1.4v3
				c0,0.9,0.3,1.5,1,1.5c0.6,0,0.9-0.4,1.1-0.8c0-0.1,0.1-0.3,0.1-0.4v-3.3h1.4V311.3z"/>
			<path class="st25" d="M222.6,309.2c0-0.8,0-1.3,0-1.8h1.2l0,1.1h0c0.3-0.8,0.9-1.2,1.5-1.2c0.1,0,0.2,0,0.3,0v1.3
				c-0.1,0-0.2,0-0.4,0c-0.7,0-1.1,0.4-1.3,1.1c0,0.1,0,0.3,0,0.4v2.9h-1.4V309.2z"/>
			<path class="st25" d="M226.7,309.3c0-0.7,0-1.3,0-1.8h1.2l0.1,0.9h0c0.4-0.6,1.1-1,1.9-1c1.3,0,2.3,1.1,2.3,2.8c0,2-1.3,3-2.5,3
				c-0.7,0-1.3-0.3-1.6-0.7h0v2.9h-1.4V309.3z M228.1,310.6c0,0.1,0,0.3,0,0.4c0.1,0.6,0.6,1,1.2,1c0.9,0,1.4-0.7,1.4-1.8
				c0-1-0.5-1.8-1.4-1.8c-0.6,0-1.1,0.4-1.3,1c0,0.1-0.1,0.2-0.1,0.4V310.6z"/>
			<path class="st25" d="M238.6,310.1c0,2-1.4,2.9-2.8,2.9c-1.6,0-2.8-1.1-2.8-2.9c0-1.8,1.2-2.9,2.9-2.9
				C237.5,307.3,238.6,308.4,238.6,310.1z M234.4,310.2c0,1.1,0.5,1.9,1.4,1.9c0.8,0,1.4-0.8,1.4-1.9c0-0.9-0.4-1.9-1.3-1.9
				C234.8,308.3,234.4,309.3,234.4,310.2z"/>
			<path class="st25" d="M239.7,311.7c0.3,0.2,0.9,0.4,1.4,0.4c0.6,0,0.9-0.3,0.9-0.6c0-0.4-0.2-0.6-0.9-0.8c-1.1-0.4-1.5-1-1.5-1.6
				c0-1,0.8-1.7,2.1-1.7c0.6,0,1.1,0.2,1.5,0.3l-0.3,1c-0.2-0.1-0.7-0.3-1.2-0.3c-0.5,0-0.8,0.2-0.8,0.6c0,0.4,0.3,0.5,1,0.8
				c1,0.4,1.5,0.9,1.5,1.7c0,1-0.8,1.7-2.3,1.7c-0.7,0-1.3-0.2-1.7-0.4L239.7,311.7z"/>
			<path class="st25" d="M246,305.9c0,0.4-0.3,0.8-0.8,0.8c-0.5,0-0.8-0.3-0.8-0.8c0-0.4,0.3-0.8,0.8-0.8
				C245.7,305.1,246,305.4,246,305.9z M244.5,312.9v-5.5h1.4v5.5H244.5z"/>
			<path class="st25" d="M247.4,309.1c0-0.6,0-1.2,0-1.6h1.2l0.1,0.8h0c0.2-0.4,0.8-1,1.8-1c1,0,2,0.6,2,2.4v3.3H251v-3.1
				c0-0.8-0.3-1.4-1.1-1.4c-0.6,0-0.9,0.4-1.1,0.8c0,0.1-0.1,0.3-0.1,0.5v3.3h-1.4V309.1z"/>
			<path class="st25" d="M259,307.4c0,0.4,0,0.8,0,1.6v3.1c0,1.2-0.2,2-0.8,2.5c-0.6,0.5-1.4,0.7-2.1,0.7c-0.7,0-1.5-0.1-1.9-0.4
				l0.3-1.1c0.4,0.2,0.9,0.4,1.6,0.4c0.9,0,1.6-0.5,1.6-1.7v-0.5h0c-0.3,0.5-0.9,0.8-1.6,0.8c-1.4,0-2.4-1.1-2.4-2.7
				c0-1.8,1.2-2.9,2.5-2.9c0.8,0,1.3,0.4,1.6,0.9h0l0.1-0.7H259z M257.5,309.6c0-0.1,0-0.3,0-0.4c-0.1-0.5-0.5-0.9-1.1-0.9
				c-0.8,0-1.4,0.7-1.4,1.8c0,0.9,0.5,1.7,1.4,1.7c0.5,0,1-0.3,1.1-0.8c0-0.1,0.1-0.3,0.1-0.5V309.6z"/>
		</g>
	</g>
	<g>
		<g>
			<path class="st25" d="M84.9,291.5c-0.3,0.2-1.1,0.3-2,0.3c-2.4,0-3.9-1.5-3.9-3.9c0-2.5,1.8-4,4.1-4c0.9,0,1.6,0.2,1.9,0.3
				l-0.3,1.1c-0.4-0.2-0.9-0.3-1.5-0.3c-1.6,0-2.7,1-2.7,2.8c0,1.7,1,2.8,2.7,2.8c0.6,0,1.2-0.1,1.5-0.3L84.9,291.5z"/>
			<path class="st25" d="M91.1,288.9c0,2-1.4,2.9-2.8,2.9c-1.6,0-2.8-1.1-2.8-2.9c0-1.8,1.2-2.9,2.9-2.9
				C90,286.1,91.1,287.2,91.1,288.9z M86.9,289c0,1.1,0.5,1.9,1.4,1.9c0.8,0,1.4-0.8,1.4-1.9c0-0.9-0.4-1.9-1.3-1.9
				C87.3,287.1,86.9,288,86.9,289z"/>
			<path class="st25" d="M92.2,287.8c0-0.6,0-1.2,0-1.6h1.2l0.1,0.8h0c0.3-0.4,0.8-0.9,1.7-0.9c0.7,0,1.3,0.4,1.5,1h0
				c0.2-0.3,0.4-0.5,0.7-0.7c0.3-0.2,0.7-0.3,1.1-0.3c0.9,0,1.9,0.6,1.9,2.4v3.3H99v-3.1c0-0.9-0.3-1.5-1-1.5c-0.5,0-0.8,0.3-1,0.7
				c0,0.1-0.1,0.3-0.1,0.5v3.3h-1.4v-3.2c0-0.8-0.3-1.3-1-1.3c-0.5,0-0.9,0.4-1,0.8c-0.1,0.1-0.1,0.3-0.1,0.5v3.3h-1.4V287.8z"/>
			<path class="st25" d="M101.9,287.8c0-0.6,0-1.2,0-1.6h1.2l0.1,0.8h0c0.3-0.4,0.8-0.9,1.7-0.9c0.7,0,1.3,0.4,1.5,1h0
				c0.2-0.3,0.4-0.5,0.7-0.7c0.3-0.2,0.7-0.3,1.1-0.3c0.9,0,1.9,0.6,1.9,2.4v3.3h-1.4v-3.1c0-0.9-0.3-1.5-1-1.5
				c-0.5,0-0.8,0.3-1,0.7c0,0.1-0.1,0.3-0.1,0.5v3.3h-1.4v-3.2c0-0.8-0.3-1.3-1-1.3c-0.5,0-0.9,0.4-1,0.8c-0.1,0.1-0.1,0.3-0.1,0.5
				v3.3h-1.4V287.8z"/>
			<path class="st25" d="M116.5,290.1c0,0.7,0,1.2,0,1.7h-1.2l-0.1-0.8h0c-0.2,0.4-0.8,1-1.8,1c-1,0-1.9-0.6-1.9-2.4v-3.3h1.4v3
				c0,0.9,0.3,1.5,1,1.5c0.6,0,0.9-0.4,1.1-0.8c0-0.1,0.1-0.3,0.1-0.4v-3.3h1.4V290.1z"/>
			<path class="st25" d="M118,287.8c0-0.6,0-1.2,0-1.6h1.2l0.1,0.8h0c0.2-0.4,0.8-1,1.8-1c1,0,2,0.6,2,2.4v3.3h-1.4v-3.1
				c0-0.8-0.3-1.4-1.1-1.4c-0.6,0-0.9,0.4-1.1,0.8c0,0.1-0.1,0.3-0.1,0.5v3.3H118V287.8z"/>
			<path class="st25" d="M126,284.6c0,0.4-0.3,0.8-0.8,0.8c-0.5,0-0.8-0.3-0.8-0.8c0-0.4,0.3-0.8,0.8-0.8
				C125.7,283.9,126,284.2,126,284.6z M124.5,291.7v-5.5h1.4v5.5H124.5z"/>
			<path class="st25" d="M131.5,291.5c-0.3,0.1-0.9,0.3-1.6,0.3c-1.7,0-2.9-1.1-2.9-2.8c0-1.7,1.1-3,3.1-3c0.5,0,1,0.1,1.4,0.3
				l-0.3,1c-0.2-0.1-0.6-0.2-1.1-0.2c-1.1,0-1.7,0.8-1.7,1.8c0,1.1,0.7,1.8,1.7,1.8c0.5,0,0.8-0.1,1.1-0.2L131.5,291.5z"/>
			<path class="st25" d="M135.6,291.7l-0.1-0.6h0c-0.3,0.4-0.9,0.7-1.6,0.7c-1.1,0-1.7-0.8-1.7-1.6c0-1.4,1.2-2.1,3.3-2.1V288
				c0-0.4-0.1-1-1.1-1c-0.5,0-1.1,0.2-1.5,0.4l-0.3-0.9c0.4-0.3,1.1-0.5,2-0.5c1.8,0,2.3,1.1,2.3,2.3v2c0,0.5,0,1,0.1,1.3H135.6z
				 M135.5,289c-1,0-1.9,0.2-1.9,1c0,0.5,0.4,0.8,0.8,0.8c0.6,0,1-0.4,1.1-0.8c0-0.1,0-0.2,0-0.3V289z"/>
			<path class="st25" d="M139.8,284.6v1.6h1.3v1h-1.3v2.4c0,0.7,0.2,1,0.7,1c0.2,0,0.4,0,0.5-0.1l0,1.1c-0.2,0.1-0.6,0.1-1,0.1
				c-0.5,0-0.9-0.2-1.2-0.5c-0.3-0.3-0.4-0.8-0.4-1.5v-2.6h-0.8v-1h0.8v-1.3L139.8,284.6z"/>
			<path class="st25" d="M143.7,284.6c0,0.4-0.3,0.8-0.8,0.8c-0.5,0-0.8-0.3-0.8-0.8c0-0.4,0.3-0.8,0.8-0.8
				C143.4,283.9,143.7,284.2,143.7,284.6z M142.2,291.7v-5.5h1.4v5.5H142.2z"/>
			<path class="st25" d="M150.4,288.9c0,2-1.4,2.9-2.8,2.9c-1.6,0-2.8-1.1-2.8-2.9c0-1.8,1.2-2.9,2.9-2.9
				C149.3,286.1,150.4,287.2,150.4,288.9z M146.2,289c0,1.1,0.5,1.9,1.4,1.9c0.8,0,1.4-0.8,1.4-1.9c0-0.9-0.4-1.9-1.3-1.9
				C146.6,287.1,146.2,288,146.2,289z"/>
			<path class="st25" d="M151.6,287.8c0-0.6,0-1.2,0-1.6h1.2l0.1,0.8h0c0.2-0.4,0.8-1,1.8-1c1,0,2,0.6,2,2.4v3.3h-1.4v-3.1
				c0-0.8-0.3-1.4-1.1-1.4c-0.6,0-0.9,0.4-1.1,0.8c0,0.1-0.1,0.3-0.1,0.5v3.3h-1.4V287.8z"/>
			<path class="st25" d="M78.4,303.4l-0.1-0.6h0c-0.3,0.4-0.9,0.7-1.6,0.7c-1.1,0-1.7-0.8-1.7-1.6c0-1.4,1.2-2.1,3.3-2.1v-0.1
				c0-0.4-0.1-1-1.1-1c-0.5,0-1.1,0.2-1.5,0.4l-0.3-0.9c0.4-0.3,1.1-0.5,2-0.5c1.8,0,2.3,1.1,2.3,2.3v2c0,0.5,0,1,0.1,1.3H78.4z
				 M78.2,300.7c-1,0-1.9,0.2-1.9,1c0,0.5,0.4,0.8,0.8,0.8c0.6,0,1-0.4,1.1-0.8c0-0.1,0-0.2,0-0.3V300.7z"/>
			<path class="st25" d="M81,299.5c0-0.6,0-1.2,0-1.6h1.2l0.1,0.8h0c0.2-0.4,0.8-1,1.8-1c1,0,2,0.6,2,2.4v3.3h-1.4v-3.1
				c0-0.8-0.3-1.4-1.1-1.4c-0.6,0-0.9,0.4-1.1,0.8c0,0.1-0.1,0.3-0.1,0.5v3.3H81V299.5z"/>
			<path class="st25" d="M92.7,295.3v6.5c0,0.6,0,1.2,0,1.6h-1.3l-0.1-0.9h0c-0.3,0.6-1,1-1.8,1c-1.3,0-2.4-1.1-2.4-2.8
				c0-1.9,1.1-3,2.5-3c0.8,0,1.3,0.3,1.6,0.7h0v-3.1H92.7z M91.3,300.2c0-0.1,0-0.3,0-0.4c-0.1-0.5-0.6-1-1.2-1
				c-0.9,0-1.4,0.8-1.4,1.8c0,1,0.5,1.8,1.4,1.8c0.6,0,1.1-0.4,1.2-1c0-0.1,0-0.3,0-0.4V300.2z"/>
			<path class="st25" d="M100.6,303.2c-0.3,0.1-0.9,0.3-1.6,0.3c-1.7,0-2.9-1.1-2.9-2.8c0-1.7,1.1-3,3.1-3c0.5,0,1,0.1,1.4,0.3
				l-0.3,1c-0.2-0.1-0.6-0.2-1.1-0.2c-1.1,0-1.7,0.8-1.7,1.8c0,1.1,0.7,1.8,1.7,1.8c0.5,0,0.8-0.1,1.1-0.2L100.6,303.2z"/>
			<path class="st25" d="M106.8,300.6c0,2-1.4,2.9-2.8,2.9c-1.6,0-2.8-1.1-2.8-2.9c0-1.8,1.2-2.9,2.9-2.9
				C105.7,297.7,106.8,298.9,106.8,300.6z M102.6,300.6c0,1.1,0.5,1.9,1.4,1.9c0.8,0,1.4-0.8,1.4-1.9c0-0.9-0.4-1.9-1.3-1.9
				C103,298.7,102.6,299.7,102.6,300.6z"/>
			<path class="st25" d="M107.9,295.3h1.4v8.1h-1.4V295.3z"/>
			<path class="st25" d="M110.9,295.3h1.4v8.1h-1.4V295.3z"/>
			<path class="st25" d="M116.9,303.4l-0.1-0.6h0c-0.3,0.4-0.9,0.7-1.6,0.7c-1.1,0-1.7-0.8-1.7-1.6c0-1.4,1.2-2.1,3.3-2.1v-0.1
				c0-0.4-0.1-1-1.1-1c-0.5,0-1.1,0.2-1.5,0.4l-0.3-0.9c0.4-0.3,1.1-0.5,2-0.5c1.8,0,2.3,1.1,2.3,2.3v2c0,0.5,0,1,0.1,1.3H116.9z
				 M116.7,300.7c-1,0-1.9,0.2-1.9,1c0,0.5,0.4,0.8,0.8,0.8c0.6,0,1-0.4,1.1-0.8c0-0.1,0-0.2,0-0.3V300.7z"/>
			<path class="st25" d="M119.5,303.4c0-0.4,0-1,0-1.6v-6.5h1.4v3.3h0c0.3-0.5,0.9-0.9,1.8-0.9c1.4,0,2.3,1.1,2.3,2.8
				c0,2-1.3,3-2.5,3c-0.7,0-1.4-0.3-1.8-1h0l-0.1,0.8H119.5z M121,301.1c0,0.1,0,0.2,0,0.3c0.1,0.6,0.6,1,1.2,1
				c0.9,0,1.4-0.7,1.4-1.8c0-1-0.5-1.8-1.4-1.8c-0.6,0-1.1,0.4-1.2,1c0,0.1,0,0.2,0,0.4V301.1z"/>
			<path class="st25" d="M131.5,300.6c0,2-1.4,2.9-2.8,2.9c-1.6,0-2.8-1.1-2.8-2.9c0-1.8,1.2-2.9,2.9-2.9
				C130.4,297.7,131.5,298.9,131.5,300.6z M127.3,300.6c0,1.1,0.5,1.9,1.4,1.9c0.8,0,1.4-0.8,1.4-1.9c0-0.9-0.4-1.9-1.3-1.9
				C127.7,298.7,127.3,299.7,127.3,300.6z"/>
			<path class="st25" d="M132.6,299.6c0-0.8,0-1.3,0-1.8h1.2l0,1.1h0c0.3-0.8,0.9-1.2,1.5-1.2c0.1,0,0.2,0,0.3,0v1.3
				c-0.1,0-0.2,0-0.4,0c-0.7,0-1.1,0.4-1.3,1.1c0,0.1,0,0.3,0,0.4v2.9h-1.4V299.6z"/>
			<path class="st25" d="M139.7,303.4l-0.1-0.6h0c-0.3,0.4-0.9,0.7-1.6,0.7c-1.1,0-1.7-0.8-1.7-1.6c0-1.4,1.2-2.1,3.3-2.1v-0.1
				c0-0.4-0.1-1-1.1-1c-0.5,0-1.1,0.2-1.5,0.4l-0.3-0.9c0.4-0.3,1.1-0.5,2-0.5c1.8,0,2.3,1.1,2.3,2.3v2c0,0.5,0,1,0.1,1.3H139.7z
				 M139.5,300.7c-1,0-1.9,0.2-1.9,1c0,0.5,0.4,0.8,0.8,0.8c0.6,0,1-0.4,1.1-0.8c0-0.1,0-0.2,0-0.3V300.7z"/>
			<path class="st25" d="M143.9,296.3v1.6h1.3v1h-1.3v2.4c0,0.7,0.2,1,0.7,1c0.2,0,0.4,0,0.5-0.1l0,1.1c-0.2,0.1-0.6,0.1-1,0.1
				c-0.5,0-0.9-0.2-1.2-0.5c-0.3-0.3-0.4-0.8-0.4-1.5v-2.6h-0.8v-1h0.8v-1.3L143.9,296.3z"/>
			<path class="st25" d="M147.8,296.3c0,0.4-0.3,0.8-0.8,0.8c-0.5,0-0.8-0.3-0.8-0.8c0-0.4,0.3-0.8,0.8-0.8
				C147.5,295.5,147.8,295.9,147.8,296.3z M146.3,303.4v-5.5h1.4v5.5H146.3z"/>
			<path class="st25" d="M154.5,300.6c0,2-1.4,2.9-2.8,2.9c-1.6,0-2.8-1.1-2.8-2.9c0-1.8,1.2-2.9,2.9-2.9
				C153.3,297.7,154.5,298.9,154.5,300.6z M150.3,300.6c0,1.1,0.5,1.9,1.4,1.9c0.8,0,1.4-0.8,1.4-1.9c0-0.9-0.4-1.9-1.3-1.9
				C150.7,298.7,150.3,299.7,150.3,300.6z"/>
			<path class="st25" d="M155.6,299.5c0-0.6,0-1.2,0-1.6h1.2l0.1,0.8h0c0.2-0.4,0.8-1,1.8-1c1,0,2,0.6,2,2.4v3.3h-1.4v-3.1
				c0-0.8-0.3-1.4-1.1-1.4c-0.6,0-0.9,0.4-1.1,0.8c0,0.1-0.1,0.3-0.1,0.5v3.3h-1.4V299.5z"/>
		</g>
	</g>
	<g>
		<g>
			<circle id="XMLID_402_" class="st22" cx="109.3" cy="238.7" r="4.7"/>
			<path id="XMLID_311_" class="st22" d="M103.5,255.5l-3.7,0.1v-5.3c0-2.3,1.8-4.1,4.1-4.1h5.4h5.4c2.3,0,4.1,1.8,4.1,4.1v5.3h-3.6
				"/>
			<line id="XMLID_395_" class="st22" x1="103.5" y1="258.6" x2="103.5" y2="251.1"/>
			<g id="XMLID_394_">
				<g>
					<line class="st22" x1="115.1" y1="261.5" x2="115.1" y2="251.1"/>
					<g>
						<polygon class="st23" points="118.1,260.7 115.1,265.9 112.1,260.7 						"/>
					</g>
				</g>
			</g>
		</g>
		<g>
			<circle id="XMLID_399_" class="st22" cx="127.9" cy="256.2" r="4.7"/>
			<path id="XMLID_390_" class="st22" d="M133.7,273l3.7,0.1v-5.3c0-2.3-1.8-4.1-4.1-4.1h-5.4h-5.4c-2.3,0-4.1,1.8-4.1,4.1v5.3
				l3.7-0.1"/>
			<line id="XMLID_392_" class="st22" x1="122.2" y1="274.6" x2="122.2" y2="268.6"/>
			<g id="XMLID_393_">
				<g>
					<polyline class="st22" points="133.7,268.6 133.7,277.2 103.5,277.2 103.5,265 					"/>
					<g>
						<polygon class="st23" points="106.5,265.9 103.5,260.7 100.6,265.9 						"/>
					</g>
				</g>
			</g>
		</g>
	</g>
	<g>
		<g>
			<g>
				<polyline class="st22" points="218.5,263.4 218.5,238.4 234.2,238.4 239.4,243.6 239.4,266.6 227.4,266.6 				"/>
				<g>
					<polygon class="st23" points="221.5,262.5 218.5,267.7 215.5,262.5 					"/>
				</g>
			</g>
		</g>
		<polyline class="st22" points="233.9,238.7 233.9,244.4 239.4,244.4 		"/>
		<line class="st22" x1="223.6" y1="247.6" x2="234" y2="247.6"/>
		<line class="st22" x1="223.6" y1="253.9" x2="234" y2="253.9"/>
		<line class="st22" x1="223.6" y1="260.2" x2="234" y2="260.2"/>
		<circle class="st22" cx="225.7" cy="266.6" r="2.3"/>
	</g>
	<g>
		<g>
			<polyline class="st22" points="270.4,177 270.4,134.1 296.8,134.1 304.8,142.6 304.8,179.4 281.3,179.4 			"/>
			<g>
				<polygon class="st23" points="273.4,176.2 270.4,181.3 267.4,176.2 				"/>
			</g>
		</g>
	</g>
	<polyline class="st22" points="296.4,134.6 296.4,143 304.8,143 	"/>
	<line class="st22" x1="279.9" y1="148.1" x2="294.9" y2="148.1"/>
	<line class="st22" x1="279.9" y1="158.8" x2="294.9" y2="158.8"/>
	<line class="st22" x1="279.9" y1="169.6" x2="294.9" y2="169.6"/>
	<circle class="st22" cx="278.3" cy="179.4" r="2.3"/>
	<g>
		<rect x="212.7" y="61.9" class="st22" width="5.5" height="10.9"/>
		<rect x="221.6" y="59.3" class="st22" width="5.5" height="13.5"/>
		<rect x="230.5" y="52.9" class="st22" width="5.5" height="19.9"/>
		<polyline class="st22" points="242.7,41.3 239.4,41.3 239.4,72.8 244.9,72.8 244.9,43.5 		"/>
		<g>
			<g>
				<line class="st22" x1="207.8" y1="72.8" x2="249.4" y2="72.8"/>
				<g>
					<polygon class="st23" points="248.5,75.8 253.7,72.8 248.5,69.8 					"/>
				</g>
			</g>
		</g>
		<circle class="st22" cx="244.9" cy="41.3" r="2.3"/>
	</g>
	<g>
		<g>
			<polyline class="st22" points="210.7,230.5 246.7,230.5 246.7,244.2 			"/>
			<g>
				<polygon class="st23" points="243.7,243.3 246.7,248.5 249.7,243.3 				"/>
			</g>
		</g>
	</g>
	<g>
		<g>
			<polyline class="st22" points="246.7,275.5 210.7,275.5 210.7,260.9 			"/>
			<g>
				<polygon class="st23" points="213.7,261.7 210.7,256.6 207.7,261.7 				"/>
			</g>
		</g>
	</g>
	<g>
		<g>
			<g>
				<polyline class="st22" points="103.8,66.7 103.8,39.6 121.4,39.6 126.4,44.8 126.4,69.3 115.5,69.3 				"/>
				<g>
					<polygon class="st23" points="106.8,65.8 103.8,71 100.8,65.8 					"/>
				</g>
			</g>
		</g>
		<polyline class="st22" points="121.1,39.9 121.1,45.6 125.8,45.6 		"/>
		<line class="st22" x1="110.3" y1="49.9" x2="120.3" y2="49.9"/>
		<line class="st22" x1="110.3" y1="55.8" x2="120.3" y2="55.8"/>
		<line class="st22" x1="110.3" y1="61.8" x2="120.3" y2="61.8"/>
		<circle class="st22" cx="112.6" cy="69.3" r="2.3"/>
		<g>
			<g>
				<line class="st22" x1="94" y1="30" x2="98.1" y2="34.9"/>
				<g>
					<polygon class="st23" points="95.3,36.1 100.9,38.1 99.8,32.3 					"/>
				</g>
			</g>
		</g>
		<g>
			<g>
				<line class="st22" x1="132.7" y1="30" x2="128.6" y2="34.9"/>
				<g>
					<polygon class="st23" points="126.9,32.3 125.8,38.1 131.4,36.1 					"/>
				</g>
			</g>
		</g>
		<g>
			<g>
				<line class="st22" x1="94" y1="80.6" x2="98.1" y2="75.7"/>
				<g>
					<polygon class="st23" points="99.8,78.3 100.9,72.4 95.3,74.4 					"/>
				</g>
			</g>
		</g>
		<g>
			<g>
				<line class="st22" x1="132.7" y1="80.6" x2="128.6" y2="75.7"/>
				<g>
					<polygon class="st23" points="131.4,74.4 125.8,72.4 126.9,78.3 					"/>
				</g>
			</g>
		</g>
	</g>
</g>
</svg>
