<?xml version="1.0" encoding="utf-8"?>
<!-- Generator: Adobe Illustrator 22.1.0, SVG Export Plug-In . SVG Version: 6.00 Build 0)  -->
<svg version="1.1" xmlns="http://www.w3.org/2000/svg" xmlns:xlink="http://www.w3.org/1999/xlink" x="0px" y="0px"
	 viewBox="0 0 1300 584.2" style="enable-background:new 0 0 1300 584.2;" xml:space="preserve">
<style type="text/css">
	.st0{fill:#BEE3FF;}
	.st1{fill:#FCDDD6;}
	.st2{fill:none;stroke:#92D1FF;stroke-width:2.3054;stroke-miterlimit:10;}
	.st3{fill:none;stroke:#FBC2BA;stroke-width:2.3054;stroke-miterlimit:10;}
	.st4{fill:#D8E7DA;}
	.st5{fill:none;stroke:#A8D7CD;stroke-width:2.3054;stroke-miterlimit:10;}
	.st6{fill:none;}
	.st7{fill:#F16C51;}
	.st8{fill:#FBC2BA;}
	.st9{fill:#EAC8A5;}
	.st10{fill:#ECE1CE;}
	.st11{fill:#DF9926;}
	.st12{display:none;}
	.st13{display:inline;}
	.st14{fill:none;stroke:#000000;stroke-width:0.1397;stroke-miterlimit:10;}
	.st15{fill:#061838;}
	.st16{fill:#4C0519;}
	.st17{fill:none;stroke:#061838;stroke-width:3;stroke-linecap:square;stroke-miterlimit:10;}
	.st18{fill:none;stroke:#061838;stroke-width:3;stroke-miterlimit:10;}
	.st19{fill:none;stroke:#4C0519;stroke-width:3;stroke-linecap:square;stroke-miterlimit:10;}
	.st20{fill:#00321D;}
	.st21{fill:none;stroke:#4C0519;stroke-width:3;stroke-miterlimit:10;}
	.st22{fill:none;stroke:#F4F0EC;stroke-width:1.5;stroke-miterlimit:10;}
	.st23{fill:#F4F0EC;}
	.st24{fill:none;stroke:#F4F0EC;stroke-width:1.5;stroke-linecap:square;stroke-miterlimit:10;}
	.st25{fill:#FFFFFF;}
	.st26{fill:none;stroke:#00321D;stroke-width:3;stroke-linecap:square;stroke-miterlimit:10;}
	.st27{fill:none;stroke:#00321D;stroke-width:3;stroke-miterlimit:10;}
</style>
<g id="Layer_3">
	<polygon class="st0" points="925.4,0.5 894.5,0.6 894.5,585.8 1300,585.8 1300,0.5 	"/>
	<polygon class="st4" points="477.2,0.5 448,0.5 448,585.9 853.5,585.9 853.5,0.5 	"/>
	<polygon class="st0" points="29,0.5 0,0.5 0,585.9 405.5,585.9 405.5,0.5 	"/>
	<line class="st2" x1="27.3" y1="181.4" x2="368.9" y2="179.2"/>
	<polygon class="st0" points="410.9,89.1 410.9,145.2 439,117.1 	"/>
	<polygon class="st4" points="858.7,89.1 858.7,145.2 886.8,117.1 	"/>
	<line class="st2" x1="925.8" y1="181.4" x2="1267.5" y2="178.3"/>
	<line class="st5" x1="480" y1="181.4" x2="821.6" y2="178.3"/>
</g>
<g id="Layer_4" class="st12">
	<g class="st13">
		<rect x="43.6" y="42.9" class="st14" width="15" height="15"/>
		<rect x="58.6" y="42.9" class="st14" width="15" height="15"/>
		<rect x="73.6" y="42.9" class="st14" width="15" height="15"/>
		<rect x="88.6" y="42.9" class="st14" width="15" height="15"/>
		<rect x="103.6" y="42.9" class="st14" width="15" height="15"/>
		<rect x="118.6" y="42.9" class="st14" width="15" height="15"/>
		<rect x="43.6" y="57.9" class="st14" width="15" height="15"/>
		<rect x="58.6" y="57.9" class="st14" width="15" height="15"/>
		<rect x="73.6" y="57.9" class="st14" width="15" height="15"/>
		<rect x="88.6" y="57.9" class="st14" width="15" height="15"/>
		<rect x="103.6" y="57.9" class="st14" width="15" height="15"/>
		<rect x="118.6" y="57.9" class="st14" width="15" height="15"/>
		<rect x="43.6" y="72.9" class="st14" width="15" height="15"/>
		<rect x="58.6" y="72.9" class="st14" width="15" height="15"/>
		<rect x="73.6" y="72.9" class="st14" width="15" height="15"/>
		<rect x="88.6" y="72.9" class="st14" width="15" height="15"/>
		<rect x="103.6" y="72.9" class="st14" width="15" height="15"/>
		<rect x="118.6" y="72.9" class="st14" width="15" height="15"/>
		<rect x="43.6" y="87.9" class="st14" width="15" height="15"/>
		<rect x="58.6" y="87.9" class="st14" width="15" height="15"/>
		<rect x="73.6" y="87.9" class="st14" width="15" height="15"/>
		<rect x="88.6" y="87.9" class="st14" width="15" height="15"/>
		<rect x="103.6" y="87.9" class="st14" width="15" height="15"/>
		<rect x="118.6" y="87.9" class="st14" width="15" height="15"/>
		<rect x="43.6" y="102.9" class="st14" width="15" height="15"/>
		<rect x="58.6" y="102.9" class="st14" width="15" height="15"/>
		<rect x="73.6" y="102.9" class="st14" width="15" height="15"/>
		<rect x="88.6" y="102.9" class="st14" width="15" height="15"/>
		<rect x="103.6" y="102.9" class="st14" width="15" height="15"/>
		<rect x="118.6" y="102.9" class="st14" width="15" height="15"/>
		<rect x="43.6" y="117.9" class="st14" width="15" height="15"/>
		<rect x="58.6" y="117.9" class="st14" width="15" height="15"/>
		<rect x="73.6" y="117.9" class="st14" width="15" height="15"/>
		<rect x="88.6" y="117.9" class="st14" width="15" height="15"/>
		<rect x="103.6" y="117.9" class="st14" width="15" height="15"/>
		<rect x="118.6" y="117.9" class="st14" width="15" height="15"/>
		<rect x="43.6" y="132.9" class="st14" width="15" height="15"/>
		<rect x="58.6" y="132.9" class="st14" width="15" height="15"/>
		<rect x="73.6" y="132.9" class="st14" width="15" height="15"/>
		<rect x="88.6" y="132.9" class="st14" width="15" height="15"/>
		<rect x="103.6" y="132.9" class="st14" width="15" height="15"/>
		<rect x="118.6" y="132.9" class="st14" width="15" height="15"/>
	</g>
	<g class="st13">
		<rect x="480" y="42.9" class="st14" width="15" height="15"/>
		<rect x="495" y="42.9" class="st14" width="15" height="15"/>
		<rect x="510" y="42.9" class="st14" width="15" height="15"/>
		<rect x="525" y="42.9" class="st14" width="15" height="15"/>
		<rect x="540" y="42.9" class="st14" width="15" height="15"/>
		<rect x="555" y="42.9" class="st14" width="15" height="15"/>
		<rect x="480" y="57.9" class="st14" width="15" height="15"/>
		<rect x="495" y="57.9" class="st14" width="15" height="15"/>
		<rect x="510" y="57.9" class="st14" width="15" height="15"/>
		<rect x="525" y="57.9" class="st14" width="15" height="15"/>
		<rect x="540" y="57.9" class="st14" width="15" height="15"/>
		<rect x="555" y="57.9" class="st14" width="15" height="15"/>
		<rect x="480" y="72.9" class="st14" width="15" height="15"/>
		<rect x="495" y="72.9" class="st14" width="15" height="15"/>
		<rect x="510" y="72.9" class="st14" width="15" height="15"/>
		<rect x="525" y="72.9" class="st14" width="15" height="15"/>
		<rect x="540" y="72.9" class="st14" width="15" height="15"/>
		<rect x="555" y="72.9" class="st14" width="15" height="15"/>
		<rect x="480" y="87.9" class="st14" width="15" height="15"/>
		<rect x="495" y="87.9" class="st14" width="15" height="15"/>
		<rect x="510" y="87.9" class="st14" width="15" height="15"/>
		<rect x="525" y="87.9" class="st14" width="15" height="15"/>
		<rect x="540" y="87.9" class="st14" width="15" height="15"/>
		<rect x="555" y="87.9" class="st14" width="15" height="15"/>
		<rect x="480" y="102.9" class="st14" width="15" height="15"/>
		<rect x="495" y="102.9" class="st14" width="15" height="15"/>
		<rect x="510" y="102.9" class="st14" width="15" height="15"/>
		<rect x="525" y="102.9" class="st14" width="15" height="15"/>
		<rect x="540" y="102.9" class="st14" width="15" height="15"/>
		<rect x="555" y="102.9" class="st14" width="15" height="15"/>
		<rect x="480" y="117.9" class="st14" width="15" height="15"/>
		<rect x="495" y="117.9" class="st14" width="15" height="15"/>
		<rect x="510" y="117.9" class="st14" width="15" height="15"/>
		<rect x="525" y="117.9" class="st14" width="15" height="15"/>
		<rect x="540" y="117.9" class="st14" width="15" height="15"/>
		<rect x="555" y="117.9" class="st14" width="15" height="15"/>
		<rect x="480" y="132.9" class="st14" width="15" height="15"/>
		<rect x="495" y="132.9" class="st14" width="15" height="15"/>
		<rect x="510" y="132.9" class="st14" width="15" height="15"/>
		<rect x="525" y="132.9" class="st14" width="15" height="15"/>
		<rect x="540" y="132.9" class="st14" width="15" height="15"/>
		<rect x="555" y="132.9" class="st14" width="15" height="15"/>
	</g>
	<g class="st13">
		<rect x="950.9" y="42.9" class="st14" width="15" height="15"/>
		<rect x="965.9" y="42.9" class="st14" width="15" height="15"/>
		<rect x="980.9" y="42.9" class="st14" width="15" height="15"/>
		<rect x="995.9" y="42.9" class="st14" width="15" height="15"/>
		<rect x="1010.9" y="42.9" class="st14" width="15" height="15"/>
		<rect x="1025.9" y="42.9" class="st14" width="15" height="15"/>
		<rect x="950.9" y="57.9" class="st14" width="15" height="15"/>
		<rect x="965.9" y="57.9" class="st14" width="15" height="15"/>
		<rect x="980.9" y="57.9" class="st14" width="15" height="15"/>
		<rect x="995.9" y="57.9" class="st14" width="15" height="15"/>
		<rect x="1010.9" y="57.9" class="st14" width="15" height="15"/>
		<rect x="1025.9" y="57.9" class="st14" width="15" height="15"/>
		<rect x="950.9" y="72.9" class="st14" width="15" height="15"/>
		<rect x="965.9" y="72.9" class="st14" width="15" height="15"/>
		<rect x="980.9" y="72.9" class="st14" width="15" height="15"/>
		<rect x="995.9" y="72.9" class="st14" width="15" height="15"/>
		<rect x="1010.9" y="72.9" class="st14" width="15" height="15"/>
		<rect x="1025.9" y="72.9" class="st14" width="15" height="15"/>
		<rect x="950.9" y="87.9" class="st14" width="15" height="15"/>
		<rect x="965.9" y="87.9" class="st14" width="15" height="15"/>
		<rect x="980.9" y="87.9" class="st14" width="15" height="15"/>
		<rect x="995.9" y="87.9" class="st14" width="15" height="15"/>
		<rect x="1010.9" y="87.9" class="st14" width="15" height="15"/>
		<rect x="1025.9" y="87.9" class="st14" width="15" height="15"/>
		<rect x="950.9" y="102.9" class="st14" width="15" height="15"/>
		<rect x="965.9" y="102.9" class="st14" width="15" height="15"/>
		<rect x="980.9" y="102.9" class="st14" width="15" height="15"/>
		<rect x="995.9" y="102.9" class="st14" width="15" height="15"/>
		<rect x="1010.9" y="102.9" class="st14" width="15" height="15"/>
		<rect x="1025.9" y="102.9" class="st14" width="15" height="15"/>
		<rect x="950.9" y="117.9" class="st14" width="15" height="15"/>
		<rect x="965.9" y="117.9" class="st14" width="15" height="15"/>
		<rect x="980.9" y="117.9" class="st14" width="15" height="15"/>
		<rect x="995.9" y="117.9" class="st14" width="15" height="15"/>
		<rect x="1010.9" y="117.9" class="st14" width="15" height="15"/>
		<rect x="1025.9" y="117.9" class="st14" width="15" height="15"/>
		<rect x="950.9" y="132.9" class="st14" width="15" height="15"/>
		<rect x="965.9" y="132.9" class="st14" width="15" height="15"/>
		<rect x="980.9" y="132.9" class="st14" width="15" height="15"/>
		<rect x="995.9" y="132.9" class="st14" width="15" height="15"/>
		<rect x="1010.9" y="132.9" class="st14" width="15" height="15"/>
		<rect x="1025.9" y="132.9" class="st14" width="15" height="15"/>
	</g>
</g>
<g id="Layer_1">
	<g>
		<g>
			<path class="st15" d="M520.6,220.2v16.8h-2.2v-16.8H520.6z"/>
			<path class="st15" d="M524.5,228.2c0-1.2,0-2.3-0.1-3.3h1.9l0.1,2h0c0.6-1.1,2-2.3,4-2.3c1.7,0,4.3,1,4.3,5.1v7.2h-2.2v-7
				c0-1.9-0.7-3.6-2.8-3.6c-1.4,0-2.6,1-2.9,2.3c-0.1,0.3-0.1,0.6-0.1,1v7.3h-2.2V228.2z"/>
			<path class="st15" d="M538.6,237.1v-10.4h-1.7V225h1.7v-0.6c0-1.7,0.4-3.2,1.4-4.2c0.8-0.8,1.9-1.1,2.9-1.1
				c0.8,0,1.4,0.2,1.9,0.3l-0.3,1.7c-0.3-0.2-0.8-0.3-1.4-0.3c-1.9,0-2.3,1.6-2.3,3.5v0.7h2.9v1.7h-2.9v10.4H538.6z"/>
			<path class="st15" d="M556.3,230.9c0,4.5-3.1,6.4-6,6.4c-3.3,0-5.8-2.4-5.8-6.2c0-4,2.6-6.4,6-6.4
				C554,224.7,556.3,227.2,556.3,230.9z M546.7,231c0,2.6,1.5,4.6,3.7,4.6c2.1,0,3.7-2,3.7-4.7c0-2-1-4.6-3.6-4.6
				C547.9,226.3,546.7,228.7,546.7,231z"/>
			<path class="st15" d="M558.8,234.8c0.6,0.4,1.8,0.9,2.9,0.9c1.6,0,2.3-0.8,2.3-1.8c0-1-0.6-1.6-2.2-2.2c-2.2-0.8-3.2-2-3.2-3.4
				c0-1.9,1.6-3.5,4.2-3.5c1.2,0,2.3,0.3,3,0.8l-0.6,1.6c-0.5-0.3-1.3-0.7-2.5-0.7c-1.3,0-2,0.8-2,1.6c0,1,0.7,1.5,2.3,2
				c2.1,0.8,3.2,1.8,3.2,3.6c0,2.1-1.6,3.6-4.5,3.6c-1.3,0-2.5-0.3-3.4-0.8L558.8,234.8z"/>
			<path class="st15" d="M569.8,225l2.6,7.1c0.3,0.8,0.6,1.8,0.8,2.5h0.1c0.2-0.7,0.5-1.6,0.8-2.5l2.4-7.1h2.3l-3.3,8.6
				c-1.6,4.1-2.6,6.3-4.1,7.6c-1.1,1-2.1,1.3-2.7,1.4l-0.5-1.8c0.5-0.2,1.3-0.5,1.9-1.1c0.6-0.5,1.3-1.3,1.8-2.4
				c0.1-0.2,0.2-0.4,0.2-0.5s0-0.3-0.1-0.6l-4.5-11.1H569.8z"/>
			<path class="st15" d="M580.3,234.8c0.6,0.4,1.8,0.9,2.9,0.9c1.6,0,2.3-0.8,2.3-1.8c0-1-0.6-1.6-2.2-2.2c-2.2-0.8-3.2-2-3.2-3.4
				c0-1.9,1.6-3.5,4.2-3.5c1.2,0,2.3,0.3,3,0.8l-0.6,1.6c-0.5-0.3-1.3-0.7-2.5-0.7c-1.3,0-2,0.8-2,1.6c0,1,0.7,1.5,2.3,2
				c2.1,0.8,3.2,1.8,3.2,3.6c0,2.1-1.6,3.6-4.5,3.6c-1.3,0-2.5-0.3-3.4-0.8L580.3,234.8z"/>
			<path class="st15" d="M595.9,220.4c1.3-0.2,2.9-0.3,4.6-0.3c3.1,0,5.3,0.7,6.8,2.1c1.5,1.4,2.4,3.3,2.4,6c0,2.8-0.8,5-2.4,6.5
				c-1.6,1.6-4.2,2.4-7.4,2.4c-1.5,0-2.8-0.1-3.9-0.2V220.4z M598.1,235.3c0.5,0.1,1.3,0.1,2.2,0.1c4.6,0,7.2-2.6,7.2-7.1
				c0-4-2.2-6.5-6.8-6.5c-1.1,0-2,0.1-2.5,0.2V235.3z"/>
			<path class="st15" d="M614.9,221.6c0,0.8-0.5,1.3-1.4,1.3c-0.8,0-1.3-0.6-1.3-1.3c0-0.8,0.6-1.4,1.4-1.4
				C614.4,220.2,614.9,220.8,614.9,221.6z M612.5,237.1V225h2.2v12.1H612.5z"/>
			<path class="st15" d="M628.8,225c-0.1,0.9-0.1,1.8-0.1,3.3v7c0,2.8-0.5,4.5-1.7,5.5c-1.2,1.1-2.9,1.4-4.4,1.4c-1.4,0-3-0.3-4-1
				l0.5-1.7c0.8,0.5,2,0.9,3.5,0.9c2.2,0,3.9-1.2,3.9-4.2V235h0c-0.7,1.1-2,2-3.8,2c-3,0-5.1-2.5-5.1-5.9c0-4.1,2.7-6.4,5.4-6.4
				c2.1,0,3.2,1.1,3.8,2.1h0.1l0.1-1.8H628.8z M626.5,229.7c0-0.4,0-0.7-0.1-1c-0.4-1.3-1.5-2.3-3.1-2.3c-2.1,0-3.6,1.8-3.6,4.6
				c0,2.4,1.2,4.3,3.6,4.3c1.3,0,2.6-0.8,3-2.2c0.1-0.4,0.2-0.8,0.2-1.2V229.7z"/>
			<path class="st15" d="M634.6,221.6c0,0.8-0.5,1.3-1.4,1.3c-0.8,0-1.3-0.6-1.3-1.3c0-0.8,0.6-1.4,1.4-1.4
				C634.1,220.2,634.6,220.8,634.6,221.6z M632.2,237.1V225h2.2v12.1H632.2z"/>
			<path class="st15" d="M640.7,221.5v3.5h3.1v1.7h-3.1v6.5c0,1.5,0.4,2.3,1.6,2.3c0.6,0,1-0.1,1.3-0.1l0.1,1.6
				c-0.4,0.2-1.1,0.3-1.9,0.3c-1,0-1.8-0.3-2.4-0.9c-0.6-0.6-0.9-1.7-0.9-3.1v-6.6h-1.9V225h1.9v-2.9L640.7,221.5z"/>
			<path class="st15" d="M653,237.1l-0.2-1.5h-0.1c-0.7,0.9-2,1.8-3.7,1.8c-2.4,0-3.7-1.7-3.7-3.5c0-2.9,2.6-4.5,7.3-4.5v-0.3
				c0-1-0.3-2.8-2.7-2.8c-1.1,0-2.3,0.3-3.1,0.9l-0.5-1.4c1-0.7,2.4-1.1,4-1.1c3.7,0,4.6,2.5,4.6,4.9v4.5c0,1,0.1,2.1,0.2,2.9H653z
				 M652.7,230.9c-2.4,0-5.1,0.4-5.1,2.7c0,1.4,0.9,2.1,2.1,2.1c1.6,0,2.6-1,2.9-2c0.1-0.2,0.1-0.5,0.1-0.7V230.9z"/>
			<path class="st15" d="M658.3,219.3h2.2v17.7h-2.2V219.3z"/>
			<path class="st15" d="M670.8,231.4c0,3,1.9,4.2,4.1,4.2c1.6,0,2.5-0.3,3.3-0.6l0.4,1.6c-0.8,0.3-2.1,0.8-4,0.8
				c-3.7,0-5.9-2.4-5.9-6.1s2.1-6.5,5.7-6.5c3.9,0,5,3.5,5,5.7c0,0.5,0,0.8-0.1,1H670.8z M677.2,229.8c0-1.4-0.6-3.6-3-3.6
				c-2.2,0-3.2,2-3.4,3.6H677.2z"/>
			<path class="st15" d="M682.1,220.4c1.1-0.2,2.7-0.3,4.2-0.3c2.3,0,3.8,0.4,4.9,1.4c0.8,0.7,1.3,1.9,1.3,3.2
				c0,2.2-1.4,3.7-3.2,4.3v0.1c1.3,0.5,2.1,1.7,2.5,3.4c0.5,2.3,0.9,4,1.3,4.6h-2.2c-0.3-0.5-0.6-1.9-1.1-4
				c-0.5-2.3-1.4-3.2-3.4-3.3h-2v7.3h-2.2V220.4z M684.3,228.1h2.2c2.3,0,3.8-1.3,3.8-3.2c0-2.2-1.6-3.1-3.9-3.1
				c-1,0-1.8,0.1-2.1,0.2V228.1z"/>
			<path class="st15" d="M696.8,231.4c0,3,1.9,4.2,4.1,4.2c1.6,0,2.5-0.3,3.3-0.6l0.4,1.6c-0.8,0.3-2.1,0.8-4,0.8
				c-3.7,0-5.9-2.4-5.9-6.1s2.1-6.5,5.7-6.5c3.9,0,5,3.5,5,5.7c0,0.5,0,0.8-0.1,1H696.8z M703.3,229.8c0-1.4-0.6-3.6-3-3.6
				c-2.2,0-3.2,2-3.4,3.6H703.3z"/>
			<path class="st15" d="M714.8,237.1l-0.2-1.5h-0.1c-0.7,0.9-2,1.8-3.7,1.8c-2.4,0-3.7-1.7-3.7-3.5c0-2.9,2.6-4.5,7.3-4.5v-0.3
				c0-1-0.3-2.8-2.7-2.8c-1.1,0-2.3,0.3-3.1,0.9l-0.5-1.4c1-0.7,2.4-1.1,4-1.1c3.7,0,4.6,2.5,4.6,4.9v4.5c0,1,0.1,2.1,0.2,2.9H714.8
				z M714.5,230.9c-2.4,0-5.1,0.4-5.1,2.7c0,1.4,0.9,2.1,2.1,2.1c1.6,0,2.6-1,2.9-2c0.1-0.2,0.1-0.5,0.1-0.7V230.9z"/>
			<path class="st15" d="M730.6,219.3v14.6c0,1.1,0,2.3,0.1,3.1h-2l-0.1-2.1h0c-0.7,1.3-2.1,2.4-4.1,2.4c-2.9,0-5.2-2.5-5.2-6.1
				c0-4,2.5-6.5,5.4-6.5c1.8,0,3.1,0.9,3.6,1.8h0.1v-7.2H730.6z M728.4,229.9c0-0.3,0-0.7-0.1-0.9c-0.3-1.4-1.5-2.5-3.2-2.5
				c-2.3,0-3.6,2-3.6,4.7c0,2.4,1.2,4.5,3.6,4.5c1.5,0,2.8-1,3.2-2.6c0.1-0.3,0.1-0.6,0.1-1V229.9z"/>
			<path class="st15" d="M735.5,231.4c0,3,1.9,4.2,4.1,4.2c1.6,0,2.5-0.3,3.3-0.6l0.4,1.6c-0.8,0.3-2.1,0.8-4,0.8
				c-3.7,0-5.9-2.4-5.9-6.1s2.1-6.5,5.7-6.5c3.9,0,5,3.5,5,5.7c0,0.5,0,0.8-0.1,1H735.5z M742,229.8c0-1.4-0.6-3.6-3-3.6
				c-2.2,0-3.2,2-3.4,3.6H742z"/>
			<path class="st15" d="M746.8,228.7c0-1.4,0-2.6-0.1-3.8h1.9l0.1,2.4h0.1c0.5-1.6,1.9-2.6,3.3-2.6c0.3,0,0.4,0,0.6,0.1v2.1
				c-0.2,0-0.4-0.1-0.7-0.1c-1.5,0-2.6,1.2-2.9,2.8c-0.1,0.3-0.1,0.7-0.1,1v6.4h-2.2V228.7z"/>
			<path class="st15" d="M518.4,273.4c0.9-0.2,2.4-0.3,4-0.3c2.2,0,3.6,0.4,4.6,1.2c0.9,0.6,1.4,1.6,1.4,3c0,1.6-1.1,3-2.8,3.7v0.1
				c1.6,0.4,3.5,1.7,3.5,4.2c0,1.4-0.6,2.5-1.4,3.4c-1.2,1.1-3.1,1.6-5.8,1.6c-1.5,0-2.6-0.1-3.4-0.2V273.4z M520.6,280.3h2
				c2.3,0,3.6-1.2,3.6-2.8c0-2-1.5-2.7-3.7-2.7c-1,0-1.6,0.1-1.9,0.1V280.3z M520.6,288.4c0.4,0.1,1,0.1,1.8,0.1
				c2.2,0,4.3-0.8,4.3-3.3c0-2.3-2-3.2-4.3-3.2h-1.8V288.4z"/>
			<path class="st15" d="M531.9,272.3h2.2v17.7h-2.2V272.3z"/>
			<path class="st15" d="M548.7,283.9c0,4.5-3.1,6.4-6,6.4c-3.3,0-5.8-2.4-5.8-6.2c0-4,2.6-6.4,6-6.4
				C546.4,277.7,548.7,280.2,548.7,283.9z M539.1,284c0,2.6,1.5,4.6,3.7,4.6c2.1,0,3.7-2,3.7-4.7c0-2-1-4.6-3.6-4.6
				C540.2,279.3,539.1,281.7,539.1,284z"/>
			<path class="st15" d="M561.9,278c0,0.9-0.1,1.8-0.1,3.3v7c0,2.8-0.5,4.5-1.7,5.5c-1.2,1.1-2.9,1.4-4.4,1.4c-1.4,0-3-0.3-4-1
				l0.5-1.7c0.8,0.5,2,0.9,3.5,0.9c2.2,0,3.9-1.2,3.9-4.2V288h0c-0.7,1.1-2,2-3.8,2c-3,0-5.1-2.5-5.1-5.9c0-4.1,2.7-6.4,5.4-6.4
				c2.1,0,3.2,1.1,3.8,2.1h0.1l0.1-1.8H561.9z M559.6,282.7c0-0.4,0-0.7-0.1-1c-0.4-1.3-1.5-2.3-3.1-2.3c-2.1,0-3.6,1.8-3.6,4.6
				c0,2.4,1.2,4.3,3.6,4.3c1.3,0,2.6-0.8,3-2.2c0.1-0.4,0.2-0.8,0.2-1.2V282.7z"/>
			<path class="st15" d="M565.2,287.8c0.6,0.4,1.8,0.9,2.9,0.9c1.6,0,2.3-0.8,2.3-1.8c0-1-0.6-1.6-2.2-2.2c-2.2-0.8-3.2-2-3.2-3.4
				c0-1.9,1.6-3.5,4.2-3.5c1.2,0,2.3,0.3,3,0.8l-0.6,1.6c-0.5-0.3-1.3-0.7-2.5-0.7c-1.3,0-2,0.8-2,1.6c0,1,0.7,1.5,2.3,2
				c2.1,0.8,3.2,1.8,3.2,3.6c0,2.1-1.6,3.6-4.5,3.6c-1.3,0-2.5-0.3-3.4-0.8L565.2,287.8z"/>
			<path class="st15" d="M518.1,340.4c1,0.6,2.4,1.1,3.9,1.1c2.2,0,3.5-1.2,3.5-2.9c0-1.6-0.9-2.5-3.2-3.3c-2.7-1-4.4-2.4-4.4-4.8
				c0-2.6,2.2-4.6,5.4-4.6c1.7,0,3,0.4,3.7,0.8l-0.6,1.8c-0.5-0.3-1.7-0.8-3.2-0.8c-2.3,0-3.2,1.4-3.2,2.5c0,1.6,1,2.3,3.3,3.2
				c2.8,1.1,4.3,2.5,4.3,4.9c0,2.6-1.9,4.8-5.9,4.8c-1.6,0-3.4-0.5-4.3-1.1L518.1,340.4z"/>
			<path class="st15" d="M541.7,336.9c0,4.5-3.1,6.4-6,6.4c-3.3,0-5.8-2.4-5.8-6.2c0-4,2.6-6.4,6-6.4
				C539.4,330.7,541.7,333.2,541.7,336.9z M532.1,337c0,2.6,1.5,4.6,3.7,4.6c2.1,0,3.7-2,3.7-4.7c0-2-1-4.6-3.6-4.6
				C533.3,332.3,532.1,334.7,532.1,337z"/>
			<path class="st15" d="M553.1,342.6c-0.6,0.3-1.8,0.7-3.5,0.7c-3.6,0-6-2.5-6-6.2c0-3.7,2.5-6.4,6.5-6.4c1.3,0,2.4,0.3,3,0.6
				l-0.5,1.7c-0.5-0.3-1.3-0.6-2.5-0.6c-2.8,0-4.3,2-4.3,4.6c0,2.8,1.8,4.5,4.2,4.5c1.3,0,2.1-0.3,2.7-0.6L553.1,342.6z"/>
			<path class="st15" d="M558.2,327.6c0,0.8-0.5,1.3-1.4,1.3c-0.8,0-1.3-0.6-1.3-1.3c0-0.8,0.6-1.4,1.4-1.4
				C557.6,326.2,558.2,326.8,558.2,327.6z M555.7,343.1V331h2.2v12.1H555.7z"/>
			<path class="st15" d="M568.3,343.1l-0.2-1.5H568c-0.7,0.9-2,1.8-3.7,1.8c-2.4,0-3.7-1.7-3.7-3.5c0-2.9,2.6-4.5,7.3-4.5v-0.3
				c0-1-0.3-2.8-2.7-2.8c-1.1,0-2.3,0.3-3.1,0.9l-0.5-1.4c1-0.7,2.4-1.1,4-1.1c3.7,0,4.6,2.5,4.6,4.9v4.5c0,1,0.1,2.1,0.2,2.9H568.3
				z M567.9,336.9c-2.4,0-5.1,0.4-5.1,2.7c0,1.4,0.9,2.1,2.1,2.1c1.6,0,2.6-1,2.9-2c0.1-0.2,0.1-0.5,0.1-0.7V336.9z"/>
			<path class="st15" d="M573.6,325.3h2.2v17.7h-2.2V325.3z"/>
			<path class="st15" d="M584.8,334.2c0-1.2,0-2.3-0.1-3.3h1.9l0.1,2h0c0.6-1.1,2-2.3,4-2.3c1.7,0,4.3,1,4.3,5.1v7.2h-2.2v-7
				c0-1.9-0.7-3.6-2.8-3.6c-1.4,0-2.6,1-2.9,2.3c-0.1,0.3-0.1,0.6-0.1,1v7.3h-2.2V334.2z"/>
			<path class="st15" d="M599.9,337.4c0,3,1.9,4.2,4.1,4.2c1.6,0,2.5-0.3,3.3-0.6l0.4,1.6c-0.8,0.3-2.1,0.8-4,0.8
				c-3.7,0-5.9-2.4-5.9-6.1s2.1-6.5,5.7-6.5c3.9,0,5,3.5,5,5.7c0,0.5,0,0.8-0.1,1H599.9z M606.4,335.8c0-1.4-0.6-3.6-3-3.6
				c-2.2,0-3.2,2-3.4,3.6H606.4z"/>
			<path class="st15" d="M613.9,327.5v3.5h3.1v1.7h-3.1v6.5c0,1.5,0.4,2.3,1.6,2.3c0.6,0,1-0.1,1.3-0.1l0.1,1.6
				c-0.4,0.2-1.1,0.3-1.9,0.3c-1,0-1.8-0.3-2.4-0.9c-0.6-0.6-0.9-1.7-0.9-3.1v-6.6h-1.9V331h1.9v-2.9L613.9,327.5z"/>
			<path class="st15" d="M620.6,331l1.6,6.1c0.4,1.3,0.7,2.6,0.9,3.8h0.1c0.3-1.2,0.7-2.5,1.1-3.8l2-6.2h1.8l1.9,6
				c0.5,1.5,0.8,2.7,1.1,3.9h0.1c0.2-1.2,0.5-2.5,0.9-3.9l1.7-6.1h2.2l-3.9,12.1h-2l-1.8-5.8c-0.4-1.3-0.8-2.5-1.1-4h0
				c-0.3,1.5-0.7,2.7-1.1,4l-1.9,5.7h-2l-3.6-12.1H620.6z"/>
			<path class="st15" d="M648.8,336.9c0,4.5-3.1,6.4-6,6.4c-3.3,0-5.8-2.4-5.8-6.2c0-4,2.6-6.4,6-6.4
				C646.5,330.7,648.8,333.2,648.8,336.9z M639.2,337c0,2.6,1.5,4.6,3.7,4.6c2.1,0,3.7-2,3.7-4.7c0-2-1-4.6-3.6-4.6
				C640.3,332.3,639.2,334.7,639.2,337z"/>
			<path class="st15" d="M651.6,334.7c0-1.4,0-2.6-0.1-3.8h1.9l0.1,2.4h0.1c0.5-1.6,1.9-2.6,3.3-2.6c0.3,0,0.4,0,0.6,0.1v2.1
				c-0.2,0-0.4-0.1-0.7-0.1c-1.5,0-2.6,1.2-2.9,2.8c-0.1,0.3-0.1,0.7-0.1,1v6.4h-2.2V334.7z"/>
			<path class="st15" d="M662,336.5L662,336.5c0.4-0.4,0.8-0.9,1.1-1.4l3.5-4.2h2.6l-4.7,5l5.3,7.1h-2.7l-4.2-5.8l-1.1,1.3v4.5h-2.2
				v-17.7h2.2V336.5z"/>
			<path class="st15" d="M671.3,340.8c0.6,0.4,1.8,0.9,2.9,0.9c1.6,0,2.3-0.8,2.3-1.8c0-1-0.6-1.6-2.2-2.2c-2.2-0.8-3.2-2-3.2-3.4
				c0-1.9,1.6-3.5,4.2-3.5c1.2,0,2.3,0.3,3,0.8l-0.6,1.6c-0.5-0.3-1.3-0.7-2.5-0.7c-1.3,0-2,0.8-2,1.6c0,1,0.7,1.5,2.3,2
				c2.1,0.8,3.2,1.8,3.2,3.6c0,2.1-1.6,3.6-4.5,3.6c-1.3,0-2.5-0.3-3.4-0.8L671.3,340.8z"/>
			<path class="st15" d="M527.1,388.2h-6.5v6.1h7.3v1.8h-9.5v-16.8h9.1v1.8h-6.9v5.3h6.5V388.2z"/>
			<path class="st15" d="M535.7,388.5v1.6h-6.2v-1.6H535.7z"/>
			<path class="st15" d="M538.3,387.2c0-1.2,0-2.3-0.1-3.3h1.9l0.1,1.9h0.1c0.7-1.1,1.8-2.2,3.8-2.2c1.6,0,2.9,1,3.4,2.4h0
				c0.4-0.7,0.9-1.2,1.3-1.6c0.7-0.5,1.5-0.8,2.7-0.8c1.6,0,4,1,4,5.2v7.1h-2.1v-6.8c0-2.3-0.8-3.7-2.6-3.7c-1.2,0-2.2,0.9-2.6,2
				c-0.1,0.3-0.2,0.7-0.2,1.1v7.5h-2.1v-7.2c0-1.9-0.9-3.3-2.5-3.3c-1.4,0-2.4,1.1-2.7,2.2c-0.1,0.3-0.2,0.7-0.2,1.1v7.3h-2.1V387.2
				z"/>
			<path class="st15" d="M565.8,396.1l-0.2-1.5h-0.1c-0.7,0.9-2,1.8-3.7,1.8c-2.4,0-3.7-1.7-3.7-3.5c0-2.9,2.6-4.5,7.3-4.5v-0.3
				c0-1-0.3-2.8-2.7-2.8c-1.1,0-2.3,0.3-3.1,0.9l-0.5-1.4c1-0.7,2.4-1.1,4-1.1c3.7,0,4.6,2.5,4.6,4.9v4.5c0,1,0.1,2.1,0.2,2.9H565.8
				z M565.5,389.9c-2.4,0-5.1,0.4-5.1,2.7c0,1.4,0.9,2.1,2.1,2.1c1.6,0,2.6-1,2.9-2c0.1-0.2,0.1-0.5,0.1-0.7V389.9z"/>
			<path class="st15" d="M573.6,380.6c0,0.8-0.5,1.3-1.4,1.3c-0.8,0-1.3-0.6-1.3-1.3c0-0.8,0.6-1.4,1.4-1.4
				C573.1,379.2,573.6,379.8,573.6,380.6z M571.2,396.1V384h2.2v12.1H571.2z"/>
			<path class="st15" d="M577,378.3h2.2v17.7H577V378.3z"/>
			<path class="st15" d="M518.1,446.4c1,0.6,2.4,1.1,3.9,1.1c2.2,0,3.5-1.2,3.5-2.9c0-1.6-0.9-2.5-3.2-3.3c-2.7-1-4.4-2.4-4.4-4.8
				c0-2.6,2.2-4.6,5.4-4.6c1.7,0,3,0.4,3.7,0.8l-0.6,1.8c-0.5-0.3-1.7-0.8-3.2-0.8c-2.3,0-3.2,1.4-3.2,2.5c0,1.6,1,2.3,3.3,3.2
				c2.8,1.1,4.3,2.5,4.3,4.9c0,2.6-1.9,4.8-5.9,4.8c-1.6,0-3.4-0.5-4.3-1.1L518.1,446.4z"/>
			<path class="st15" d="M532,443.4c0,3,1.9,4.2,4.1,4.2c1.6,0,2.5-0.3,3.3-0.6l0.4,1.6c-0.8,0.3-2.1,0.8-4,0.8
				c-3.7,0-5.9-2.4-5.9-6.1s2.1-6.5,5.7-6.5c3.9,0,5,3.5,5,5.7c0,0.5,0,0.8-0.1,1H532z M538.5,441.8c0-1.4-0.6-3.6-3-3.6
				c-2.2,0-3.2,2-3.4,3.6H538.5z"/>
			<path class="st15" d="M550,449.1l-0.2-1.5h-0.1c-0.7,0.9-2,1.8-3.7,1.8c-2.4,0-3.7-1.7-3.7-3.5c0-2.9,2.6-4.5,7.3-4.5v-0.3
				c0-1-0.3-2.8-2.7-2.8c-1.1,0-2.3,0.3-3.1,0.9l-0.5-1.4c1-0.7,2.4-1.1,4-1.1c3.7,0,4.6,2.5,4.6,4.9v4.5c0,1,0.1,2.1,0.2,2.9H550z
				 M549.7,442.9c-2.4,0-5.1,0.4-5.1,2.7c0,1.4,0.9,2.1,2.1,2.1c1.6,0,2.6-1,2.9-2c0.1-0.2,0.1-0.5,0.1-0.7V442.9z"/>
			<path class="st15" d="M555.4,440.2c0-1.2,0-2.3-0.1-3.3h1.9l0.1,1.9h0.1c0.7-1.1,1.8-2.2,3.8-2.2c1.6,0,2.9,1,3.4,2.4h0
				c0.4-0.7,0.9-1.2,1.3-1.6c0.7-0.5,1.5-0.8,2.7-0.8c1.6,0,4,1,4,5.2v7.1h-2.1v-6.8c0-2.3-0.8-3.7-2.6-3.7c-1.2,0-2.2,0.9-2.6,2
				c-0.1,0.3-0.2,0.7-0.2,1.1v7.5h-2.1v-7.2c0-1.9-0.8-3.3-2.5-3.3c-1.4,0-2.4,1.1-2.7,2.2c-0.1,0.3-0.2,0.7-0.2,1.1v7.3h-2.1V440.2
				z"/>
			<path class="st15" d="M576.2,431.3h2.2v17.7h-2.2V431.3z"/>
			<path class="st15" d="M583.3,443.4c0,3,1.9,4.2,4.1,4.2c1.6,0,2.5-0.3,3.3-0.6l0.4,1.6c-0.8,0.3-2.1,0.8-4,0.8
				c-3.7,0-5.9-2.4-5.9-6.1s2.1-6.5,5.7-6.5c3.9,0,5,3.5,5,5.7c0,0.5,0,0.8-0.1,1H583.3z M589.8,441.8c0-1.4-0.6-3.6-3-3.6
				c-2.2,0-3.2,2-3.4,3.6H589.8z"/>
			<path class="st15" d="M594.3,446.8c0.6,0.4,1.8,0.9,2.9,0.9c1.6,0,2.3-0.8,2.3-1.8c0-1-0.6-1.6-2.2-2.2c-2.2-0.8-3.2-2-3.2-3.4
				c0-1.9,1.6-3.5,4.2-3.5c1.2,0,2.3,0.3,3,0.8l-0.6,1.6c-0.5-0.3-1.3-0.7-2.5-0.7c-1.3,0-2,0.8-2,1.6c0,1,0.7,1.5,2.3,2
				c2.1,0.8,3.2,1.8,3.2,3.6c0,2.1-1.6,3.6-4.5,3.6c-1.3,0-2.5-0.3-3.4-0.8L594.3,446.8z"/>
			<path class="st15" d="M604.2,446.8c0.6,0.4,1.8,0.9,2.9,0.9c1.6,0,2.3-0.8,2.3-1.8c0-1-0.6-1.6-2.2-2.2c-2.2-0.8-3.2-2-3.2-3.4
				c0-1.9,1.6-3.5,4.2-3.5c1.2,0,2.3,0.3,3,0.8l-0.6,1.6c-0.5-0.3-1.3-0.7-2.5-0.7c-1.3,0-2,0.8-2,1.6c0,1,0.7,1.5,2.3,2
				c2.1,0.8,3.2,1.8,3.2,3.6c0,2.1-1.6,3.6-4.5,3.6c-1.3,0-2.5-0.3-3.4-0.8L604.2,446.8z"/>
			<path class="st15" d="M621,443.4c0,3,1.9,4.2,4.1,4.2c1.6,0,2.5-0.3,3.3-0.6l0.4,1.6c-0.8,0.3-2.1,0.8-4,0.8
				c-3.7,0-5.9-2.4-5.9-6.1s2.1-6.5,5.7-6.5c3.9,0,5,3.5,5,5.7c0,0.5,0,0.8-0.1,1H621z M627.4,441.8c0-1.4-0.6-3.6-3-3.6
				c-2.2,0-3.2,2-3.4,3.6H627.4z"/>
			<path class="st15" d="M633.2,437l1.7,2.6c0.5,0.7,0.8,1.3,1.2,2h0.1c0.4-0.7,0.8-1.3,1.2-2l1.7-2.6h2.4l-4.1,5.8l4.2,6.2h-2.5
				l-1.8-2.7c-0.5-0.7-0.9-1.4-1.3-2.1H636c-0.4,0.7-0.8,1.4-1.3,2.1l-1.7,2.7h-2.4l4.3-6.2l-4.1-5.9H633.2z"/>
			<path class="st15" d="M643.8,440.9c0-1.5-0.1-2.8-0.1-3.9h2l0.1,2.1h0.1c0.9-1.5,2.3-2.3,4.3-2.3c2.9,0,5.1,2.5,5.1,6.1
				c0,4.3-2.6,6.5-5.5,6.5c-1.6,0-3-0.7-3.7-1.9h0v6.6h-2.2V440.9z M645.9,444.1c0,0.3,0,0.6,0.1,0.9c0.4,1.5,1.7,2.6,3.3,2.6
				c2.3,0,3.7-1.9,3.7-4.7c0-2.4-1.3-4.5-3.6-4.5c-1.5,0-2.9,1.1-3.3,2.7c-0.1,0.3-0.1,0.6-0.1,0.9V444.1z"/>
			<path class="st15" d="M659.2,443.4c0,3,1.9,4.2,4.1,4.2c1.6,0,2.5-0.3,3.3-0.6l0.4,1.6c-0.8,0.3-2.1,0.8-4,0.8
				c-3.7,0-5.9-2.4-5.9-6.1s2.1-6.5,5.7-6.5c3.9,0,5,3.5,5,5.7c0,0.5,0,0.8-0.1,1H659.2z M665.7,441.8c0-1.4-0.6-3.6-3-3.6
				c-2.2,0-3.2,2-3.4,3.6H665.7z"/>
			<path class="st15" d="M670.5,440.7c0-1.4,0-2.6-0.1-3.8h1.9l0.1,2.4h0.1c0.5-1.6,1.9-2.6,3.3-2.6c0.3,0,0.4,0,0.6,0.1v2.1
				c-0.2,0-0.5-0.1-0.8-0.1c-1.5,0-2.6,1.2-2.9,2.8c-0.1,0.3-0.1,0.7-0.1,1v6.4h-2.2V440.7z"/>
			<path class="st15" d="M681.2,433.6c0,0.8-0.5,1.3-1.4,1.3c-0.8,0-1.3-0.6-1.3-1.3c0-0.8,0.6-1.4,1.4-1.4
				C680.7,432.2,681.2,432.8,681.2,433.6z M678.8,449.1V437h2.2v12.1H678.8z"/>
			<path class="st15" d="M685.9,443.4c0,3,1.9,4.2,4.1,4.2c1.6,0,2.5-0.3,3.3-0.6l0.4,1.6c-0.8,0.3-2.1,0.8-4,0.8
				c-3.7,0-5.9-2.4-5.9-6.1s2.1-6.5,5.7-6.5c3.9,0,5,3.5,5,5.7c0,0.5,0,0.8-0.1,1H685.9z M692.3,441.8c0-1.4-0.6-3.6-3-3.6
				c-2.2,0-3.2,2-3.4,3.6H692.3z"/>
			<path class="st15" d="M697.2,440.2c0-1.2,0-2.3-0.1-3.3h1.9l0.1,2h0c0.6-1.1,2-2.3,4-2.3c1.7,0,4.3,1,4.3,5.1v7.2h-2.2v-7
				c0-1.9-0.7-3.6-2.8-3.6c-1.4,0-2.6,1-2.9,2.3c-0.1,0.3-0.1,0.6-0.1,1v7.3h-2.2V440.2z"/>
			<path class="st15" d="M719.7,448.6c-0.6,0.3-1.8,0.7-3.5,0.7c-3.6,0-6-2.5-6-6.2c0-3.7,2.5-6.4,6.5-6.4c1.3,0,2.4,0.3,3,0.6
				l-0.5,1.7c-0.5-0.3-1.3-0.6-2.5-0.6c-2.8,0-4.3,2-4.3,4.6c0,2.8,1.8,4.5,4.2,4.5c1.3,0,2.1-0.3,2.7-0.6L719.7,448.6z"/>
			<path class="st15" d="M723.3,443.4c0,3,1.9,4.2,4.1,4.2c1.6,0,2.5-0.3,3.3-0.6l0.4,1.6c-0.8,0.3-2.1,0.8-4,0.8
				c-3.7,0-5.9-2.4-5.9-6.1s2.1-6.5,5.7-6.5c3.9,0,5,3.5,5,5.7c0,0.5,0,0.8-0.1,1H723.3z M729.8,441.8c0-1.4-0.6-3.6-3-3.6
				c-2.2,0-3.2,2-3.4,3.6H729.8z"/>
			<path class="st15" d="M525,479.1l-0.2-1.5h-0.1c-0.7,0.9-2,1.8-3.7,1.8c-2.4,0-3.7-1.7-3.7-3.5c0-2.9,2.6-4.5,7.3-4.5v-0.3
				c0-1-0.3-2.8-2.7-2.8c-1.1,0-2.3,0.3-3.1,0.9l-0.5-1.4c1-0.7,2.4-1.1,4-1.1c3.7,0,4.6,2.5,4.6,4.9v4.5c0,1,0.1,2.1,0.2,2.9H525z
				 M524.7,472.9c-2.4,0-5.1,0.4-5.1,2.7c0,1.4,0.9,2.1,2.1,2.1c1.6,0,2.6-1,2.9-2c0.1-0.2,0.1-0.5,0.1-0.7V472.9z"/>
			<path class="st15" d="M539,478.6c-0.6,0.3-1.8,0.7-3.5,0.7c-3.6,0-6-2.5-6-6.2c0-3.7,2.5-6.4,6.5-6.4c1.3,0,2.4,0.3,3,0.6
				l-0.5,1.7c-0.5-0.3-1.3-0.6-2.5-0.6c-2.8,0-4.3,2-4.3,4.6c0,2.8,1.8,4.5,4.2,4.5c1.3,0,2.1-0.3,2.7-0.6L539,478.6z"/>
			<path class="st15" d="M541.6,470.7c0-1.4,0-2.6-0.1-3.8h1.9l0.1,2.4h0.1c0.5-1.6,1.9-2.6,3.3-2.6c0.3,0,0.4,0,0.6,0.1v2.1
				c-0.2,0-0.5-0.1-0.8-0.1c-1.5,0-2.6,1.2-2.9,2.8c-0.1,0.3-0.1,0.7-0.1,1v6.4h-2.2V470.7z"/>
			<path class="st15" d="M560.4,472.9c0,4.5-3.1,6.4-6,6.4c-3.3,0-5.8-2.4-5.8-6.2c0-4,2.6-6.4,6-6.4
				C558.1,466.7,560.4,469.2,560.4,472.9z M550.8,473c0,2.6,1.5,4.6,3.7,4.6c2.1,0,3.7-2,3.7-4.7c0-2-1-4.6-3.6-4.6
				C552,468.3,550.8,470.7,550.8,473z"/>
			<path class="st15" d="M562.9,476.8c0.6,0.4,1.8,0.9,2.9,0.9c1.6,0,2.3-0.8,2.3-1.8c0-1-0.6-1.6-2.2-2.2c-2.2-0.8-3.2-2-3.2-3.4
				c0-1.9,1.6-3.5,4.2-3.5c1.2,0,2.3,0.3,3,0.8l-0.6,1.6c-0.5-0.3-1.3-0.7-2.5-0.7c-1.3,0-2,0.8-2,1.6c0,1,0.7,1.5,2.3,2
				c2.1,0.8,3.2,1.8,3.2,3.6c0,2.1-1.6,3.6-4.5,3.6c-1.3,0-2.5-0.3-3.4-0.8L562.9,476.8z"/>
			<path class="st15" d="M572.8,476.8c0.6,0.4,1.8,0.9,2.9,0.9c1.6,0,2.3-0.8,2.3-1.8c0-1-0.6-1.6-2.2-2.2c-2.2-0.8-3.2-2-3.2-3.4
				c0-1.9,1.6-3.5,4.2-3.5c1.2,0,2.3,0.3,3,0.8l-0.6,1.6c-0.5-0.3-1.3-0.7-2.5-0.7c-1.3,0-2,0.8-2,1.6c0,1,0.7,1.5,2.3,2
				c2.1,0.8,3.2,1.8,3.2,3.6c0,2.1-1.6,3.6-4.5,3.6c-1.3,0-2.5-0.3-3.4-0.8L572.8,476.8z"/>
			<path class="st15" d="M596.9,478.6c-0.6,0.3-1.8,0.7-3.5,0.7c-3.6,0-6-2.5-6-6.2c0-3.7,2.5-6.4,6.5-6.4c1.3,0,2.4,0.3,3,0.6
				l-0.5,1.7c-0.5-0.3-1.3-0.6-2.5-0.6c-2.8,0-4.3,2-4.3,4.6c0,2.8,1.8,4.5,4.2,4.5c1.3,0,2.1-0.3,2.7-0.6L596.9,478.6z"/>
			<path class="st15" d="M599.5,461.3h2.2v7.5h0.1c0.3-0.6,0.9-1.2,1.6-1.5c0.6-0.4,1.4-0.6,2.2-0.6c1.6,0,4.2,1,4.2,5.2v7.2h-2.2
				v-6.9c0-1.9-0.7-3.6-2.8-3.6c-1.4,0-2.5,1-2.9,2.2c-0.1,0.3-0.1,0.6-0.1,1v7.3h-2.2V461.3z"/>
			<path class="st15" d="M620.1,479.1l-0.2-1.5h-0.1c-0.7,0.9-2,1.8-3.7,1.8c-2.4,0-3.7-1.7-3.7-3.5c0-2.9,2.6-4.5,7.3-4.5v-0.3
				c0-1-0.3-2.8-2.7-2.8c-1.1,0-2.3,0.3-3.1,0.9l-0.5-1.4c1-0.7,2.4-1.1,4-1.1c3.7,0,4.6,2.5,4.6,4.9v4.5c0,1,0.1,2.1,0.2,2.9H620.1
				z M619.8,472.9c-2.4,0-5.1,0.4-5.1,2.7c0,1.4,0.9,2.1,2.1,2.1c1.6,0,2.6-1,2.9-2c0.1-0.2,0.1-0.5,0.1-0.7V472.9z"/>
			<path class="st15" d="M625.4,470.2c0-1.2,0-2.3-0.1-3.3h1.9l0.1,2h0c0.6-1.1,2-2.3,4-2.3c1.7,0,4.3,1,4.3,5.1v7.2h-2.2v-7
				c0-1.9-0.7-3.6-2.8-3.6c-1.4,0-2.6,1-2.9,2.3c-0.1,0.3-0.1,0.6-0.1,1v7.3h-2.2V470.2z"/>
			<path class="st15" d="M639.3,470.2c0-1.2,0-2.3-0.1-3.3h1.9l0.1,2h0.1c0.6-1.1,2-2.3,4-2.3c1.7,0,4.3,1,4.3,5.1v7.2h-2.2v-7
				c0-1.9-0.7-3.6-2.8-3.6c-1.4,0-2.6,1-2.9,2.3c-0.1,0.3-0.1,0.6-0.1,1v7.3h-2.2V470.2z"/>
			<path class="st15" d="M654.4,473.4c0,3,1.9,4.2,4.1,4.2c1.6,0,2.5-0.3,3.3-0.6l0.4,1.6c-0.8,0.3-2.1,0.8-4,0.8
				c-3.7,0-5.9-2.4-5.9-6.1s2.1-6.5,5.7-6.5c3.9,0,5,3.5,5,5.7c0,0.5,0,0.8-0.1,1H654.4z M660.9,471.8c0-1.4-0.6-3.6-3-3.6
				c-2.2,0-3.2,2-3.4,3.6H660.9z"/>
			<path class="st15" d="M665.7,461.3h2.2v17.7h-2.2V461.3z"/>
			<path class="st15" d="M671.3,476.8c0.6,0.4,1.8,0.9,2.9,0.9c1.6,0,2.3-0.8,2.3-1.8c0-1-0.6-1.6-2.2-2.2c-2.2-0.8-3.2-2-3.2-3.4
				c0-1.9,1.6-3.5,4.2-3.5c1.2,0,2.3,0.3,3,0.8l-0.6,1.6c-0.5-0.3-1.3-0.7-2.5-0.7c-1.3,0-2,0.8-2,1.6c0,1,0.7,1.5,2.3,2
				c2.1,0.8,3.2,1.8,3.2,3.6c0,2.1-1.6,3.6-4.5,3.6c-1.3,0-2.5-0.3-3.4-0.8L671.3,476.8z"/>
			<path class="st15" d="M532.6,524.7c-0.1-2.3-0.3-5.2-0.3-7.3h-0.1c-0.6,2-1.3,4.1-2.1,6.4l-3,8.2h-1.6l-2.7-8
				c-0.8-2.4-1.5-4.5-1.9-6.5h-0.1c0,2.1-0.2,4.9-0.3,7.4l-0.5,7.2h-2.1l1.2-16.8h2.8l2.9,8.1c0.7,2.1,1.3,3.9,1.7,5.7h0.1
				c0.4-1.7,1-3.5,1.8-5.7l3-8.1h2.8l1,16.8H533L532.6,524.7z"/>
			<path class="st15" d="M545.3,532.1l-0.2-1.5H545c-0.7,0.9-2,1.8-3.7,1.8c-2.4,0-3.7-1.7-3.7-3.5c0-2.9,2.6-4.5,7.3-4.5v-0.3
				c0-1-0.3-2.8-2.7-2.8c-1.1,0-2.3,0.3-3.1,0.9l-0.5-1.4c1-0.7,2.4-1.1,4-1.1c3.7,0,4.6,2.5,4.6,4.9v4.5c0,1,0.1,2.1,0.2,2.9H545.3
				z M544.9,525.9c-2.4,0-5.1,0.4-5.1,2.7c0,1.4,0.9,2.1,2.1,2.1c1.6,0,2.6-1,2.9-2c0.1-0.2,0.1-0.5,0.1-0.7V525.9z"/>
			<path class="st15" d="M550.3,529.8c0.6,0.4,1.8,0.9,2.9,0.9c1.6,0,2.3-0.8,2.3-1.8c0-1-0.6-1.6-2.2-2.2c-2.2-0.8-3.2-2-3.2-3.4
				c0-1.9,1.6-3.5,4.2-3.5c1.2,0,2.3,0.3,3,0.8l-0.6,1.6c-0.5-0.3-1.3-0.7-2.5-0.7c-1.3,0-2,0.8-2,1.6c0,1,0.7,1.5,2.3,2
				c2.1,0.8,3.2,1.8,3.2,3.6c0,2.1-1.6,3.6-4.5,3.6c-1.3,0-2.5-0.3-3.4-0.8L550.3,529.8z"/>
			<path class="st15" d="M560.2,529.8c0.6,0.4,1.8,0.9,2.9,0.9c1.6,0,2.3-0.8,2.3-1.8c0-1-0.6-1.6-2.2-2.2c-2.2-0.8-3.2-2-3.2-3.4
				c0-1.9,1.6-3.5,4.2-3.5c1.2,0,2.3,0.3,3,0.8l-0.6,1.6c-0.5-0.3-1.3-0.7-2.5-0.7c-1.3,0-2,0.8-2,1.6c0,1,0.7,1.5,2.3,2
				c2.1,0.8,3.2,1.8,3.2,3.6c0,2.1-1.6,3.6-4.5,3.6c-1.3,0-2.5-0.3-3.4-0.8L560.2,529.8z"/>
			<path class="st15" d="M575.7,523.2c0-1.2,0-2.3-0.1-3.3h1.9l0.1,1.9h0.1c0.7-1.1,1.8-2.2,3.8-2.2c1.6,0,2.9,1,3.4,2.4h0
				c0.4-0.7,0.9-1.2,1.3-1.6c0.7-0.5,1.5-0.8,2.7-0.8c1.6,0,4,1,4,5.2v7.1h-2.1v-6.8c0-2.3-0.8-3.7-2.6-3.7c-1.2,0-2.2,0.9-2.6,2
				c-0.1,0.3-0.2,0.7-0.2,1.1v7.5h-2.1v-7.2c0-1.9-0.8-3.3-2.5-3.3c-1.4,0-2.4,1.1-2.7,2.2c-0.1,0.3-0.2,0.7-0.2,1.1v7.3h-2.1V523.2
				z"/>
			<path class="st15" d="M597.8,526.4c0,3,1.9,4.2,4.1,4.2c1.6,0,2.5-0.3,3.3-0.6l0.4,1.6c-0.8,0.3-2.1,0.8-4,0.8
				c-3.7,0-5.9-2.4-5.9-6.1s2.1-6.5,5.7-6.5c3.9,0,5,3.5,5,5.7c0,0.5,0,0.8-0.1,1H597.8z M604.2,524.8c0-1.4-0.6-3.6-3-3.6
				c-2.2,0-3.2,2-3.4,3.6H604.2z"/>
			<path class="st15" d="M619.5,514.3v14.6c0,1.1,0,2.3,0.1,3.1h-2l-0.1-2.1h0c-0.7,1.3-2.1,2.4-4.1,2.4c-2.9,0-5.2-2.5-5.2-6.1
				c0-4,2.5-6.5,5.4-6.5c1.8,0,3.1,0.9,3.6,1.8h0.1v-7.2H619.5z M617.3,524.9c0-0.3,0-0.7-0.1-0.9c-0.3-1.4-1.5-2.5-3.2-2.5
				c-2.3,0-3.6,2-3.6,4.7c0,2.4,1.2,4.5,3.6,4.5c1.5,0,2.8-1,3.2-2.6c0.1-0.3,0.1-0.6,0.1-1V524.9z"/>
			<path class="st15" d="M625.6,516.6c0,0.8-0.5,1.3-1.4,1.3c-0.8,0-1.3-0.6-1.3-1.3c0-0.8,0.6-1.4,1.4-1.4
				C625.1,515.2,625.6,515.8,625.6,516.6z M623.2,532.1V520h2.2v12.1H623.2z"/>
			<path class="st15" d="M635.7,532.1l-0.2-1.5h-0.1c-0.7,0.9-2,1.8-3.7,1.8c-2.4,0-3.7-1.7-3.7-3.5c0-2.9,2.6-4.5,7.3-4.5v-0.3
				c0-1-0.3-2.8-2.7-2.8c-1.1,0-2.3,0.3-3.1,0.9l-0.5-1.4c1-0.7,2.4-1.1,4-1.1c3.7,0,4.6,2.5,4.6,4.9v4.5c0,1,0.1,2.1,0.2,2.9H635.7
				z M635.4,525.9c-2.4,0-5.1,0.4-5.1,2.7c0,1.4,0.9,2.1,2.1,2.1c1.6,0,2.6-1,2.9-2c0.1-0.2,0.1-0.5,0.1-0.7V525.9z"/>
		</g>
	</g>
	<g>
		<g>
			<path class="st15" d="M76.2,220.2v16.8H74v-16.8H76.2z"/>
			<path class="st15" d="M80.1,228.2c0-1.3,0-2.3-0.1-3.3h2l0.1,2h0.1c0.6-1.1,2-2.3,4-2.3c1.7,0,4.3,1,4.3,5.1v7.2h-2.2v-7
				c0-1.9-0.7-3.6-2.8-3.6c-1.4,0-2.6,1-2.9,2.2c-0.1,0.3-0.1,0.6-0.1,1v7.3h-2.2V228.2z"/>
			<path class="st15" d="M94.2,237.1v-10.4h-1.7V225h1.7v-0.6c0-1.7,0.4-3.2,1.4-4.2c0.8-0.8,1.9-1.1,2.9-1.1c0.8,0,1.5,0.2,1.9,0.3
				l-0.3,1.7c-0.3-0.1-0.8-0.3-1.4-0.3c-1.9,0-2.3,1.6-2.3,3.5v0.6h2.9v1.7h-2.9v10.4H94.2z"/>
			<path class="st15" d="M111.9,230.9c0,4.5-3.1,6.4-6,6.4c-3.3,0-5.8-2.4-5.8-6.2c0-4,2.6-6.4,6-6.4
				C109.6,224.7,111.9,227.2,111.9,230.9z M102.3,231c0,2.6,1.5,4.6,3.7,4.6c2.1,0,3.7-2,3.7-4.7c0-2-1-4.6-3.6-4.6
				C103.5,226.3,102.3,228.7,102.3,231z"/>
			<path class="st15" d="M114.4,234.8c0.7,0.4,1.8,0.9,2.9,0.9c1.6,0,2.3-0.8,2.3-1.8c0-1-0.6-1.6-2.2-2.2c-2.2-0.8-3.2-2-3.2-3.4
				c0-1.9,1.6-3.5,4.2-3.5c1.2,0,2.3,0.4,3,0.8l-0.6,1.6c-0.5-0.3-1.3-0.7-2.5-0.7c-1.3,0-2,0.7-2,1.6c0,1,0.7,1.4,2.3,2
				c2.1,0.8,3.2,1.8,3.2,3.6c0,2.1-1.7,3.6-4.5,3.6c-1.3,0-2.5-0.3-3.4-0.8L114.4,234.8z"/>
			<path class="st15" d="M125.4,225l2.6,7.1c0.3,0.8,0.6,1.7,0.8,2.5h0.1c0.2-0.7,0.5-1.6,0.8-2.5l2.4-7.1h2.3l-3.3,8.6
				c-1.6,4.1-2.6,6.3-4.1,7.6c-1.1,0.9-2.1,1.3-2.7,1.4l-0.5-1.8c0.5-0.2,1.3-0.5,1.9-1.1c0.6-0.5,1.3-1.3,1.8-2.4
				c0.1-0.2,0.2-0.4,0.2-0.5s0-0.3-0.2-0.6L123,225H125.4z"/>
			<path class="st15" d="M135.9,234.8c0.6,0.4,1.8,0.9,2.9,0.9c1.6,0,2.3-0.8,2.3-1.8c0-1-0.6-1.6-2.3-2.2c-2.2-0.8-3.2-2-3.2-3.4
				c0-1.9,1.6-3.5,4.2-3.5c1.2,0,2.3,0.4,3,0.8l-0.5,1.6c-0.5-0.3-1.3-0.7-2.5-0.7c-1.3,0-2,0.7-2,1.6c0,1,0.7,1.4,2.3,2
				c2.1,0.8,3.2,1.8,3.2,3.6c0,2.1-1.6,3.6-4.5,3.6c-1.3,0-2.5-0.3-3.4-0.8L135.9,234.8z"/>
			<path class="st15" d="M153.7,220.2v16.8h-2.2v-16.8H153.7z"/>
			<path class="st15" d="M157.7,228.2c0-1.3,0-2.3-0.1-3.3h2l0.1,2h0.1c0.6-1.1,2-2.3,4-2.3c1.7,0,4.3,1,4.3,5.1v7.2h-2.2v-7
				c0-1.9-0.7-3.6-2.8-3.6c-1.4,0-2.6,1-2.9,2.2c-0.1,0.3-0.1,0.6-0.1,1v7.3h-2.2V228.2z"/>
			<path class="st15" d="M171.8,237.1v-10.4h-1.7V225h1.7v-0.6c0-1.7,0.4-3.2,1.4-4.2c0.8-0.8,1.9-1.1,2.9-1.1
				c0.8,0,1.5,0.2,1.9,0.3l-0.3,1.7c-0.3-0.1-0.8-0.3-1.4-0.3c-1.9,0-2.3,1.6-2.3,3.5v0.6h2.9v1.7h-2.9v10.4H171.8z"/>
			<path class="st15" d="M189.5,230.9c0,4.5-3.1,6.4-6,6.4c-3.3,0-5.8-2.4-5.8-6.2c0-4,2.6-6.4,6-6.4
				C187.1,224.7,189.5,227.2,189.5,230.9z M179.9,231c0,2.6,1.5,4.6,3.7,4.6c2.1,0,3.7-2,3.7-4.7c0-2-1-4.6-3.6-4.6
				C181,226.3,179.9,228.7,179.9,231z"/>
			<path class="st15" d="M192.2,228.7c0-1.4,0-2.6-0.1-3.8h1.9l0.1,2.4h0.1c0.5-1.6,1.9-2.6,3.3-2.6c0.3,0,0.4,0,0.6,0.1v2.1
				c-0.2,0-0.5-0.1-0.8-0.1c-1.5,0-2.6,1.2-2.9,2.8c0,0.3-0.1,0.6-0.1,1v6.4h-2.2V228.7z"/>
			<path class="st15" d="M200.5,228.2c0-1.3,0-2.3-0.1-3.3h1.9l0.1,1.9h0.1c0.7-1.1,1.8-2.2,3.8-2.2c1.7,0,2.9,1,3.4,2.4h0
				c0.4-0.7,0.8-1.2,1.3-1.6c0.7-0.6,1.5-0.9,2.7-0.9c1.6,0,4,1,4,5.2v7.1h-2.1v-6.8c0-2.3-0.8-3.7-2.6-3.7c-1.2,0-2.2,0.9-2.6,2
				c-0.1,0.3-0.2,0.7-0.2,1.1v7.5h-2.2v-7.2c0-1.9-0.8-3.3-2.5-3.3c-1.4,0-2.4,1.1-2.7,2.2c-0.1,0.3-0.2,0.7-0.2,1.1v7.3h-2.1V228.2
				z"/>
			<path class="st15" d="M228.1,237.1l-0.2-1.5h-0.1c-0.7,0.9-2,1.8-3.7,1.8c-2.4,0-3.7-1.7-3.7-3.5c0-2.9,2.6-4.5,7.3-4.5v-0.3
				c0-1-0.3-2.8-2.7-2.8c-1.1,0-2.3,0.4-3.1,0.9l-0.5-1.4c1-0.6,2.4-1.1,4-1.1c3.7,0,4.6,2.5,4.6,4.9v4.5c0,1,0,2.1,0.2,2.9H228.1z
				 M227.7,230.9c-2.4-0.1-5.1,0.4-5.1,2.7c0,1.4,0.9,2.1,2.1,2.1c1.6,0,2.6-1,2.9-2c0.1-0.2,0.1-0.5,0.1-0.7V230.9z"/>
			<path class="st15" d="M236,221.5v3.5h3.1v1.7H236v6.5c0,1.5,0.4,2.3,1.6,2.3c0.6,0,1-0.1,1.3-0.1l0.1,1.6
				c-0.4,0.2-1.1,0.3-1.9,0.3c-1,0-1.8-0.3-2.4-0.9c-0.6-0.6-0.9-1.7-0.9-3.1v-6.6h-1.9V225h1.9v-2.9L236,221.5z"/>
			<path class="st15" d="M244,221.6c0,0.7-0.5,1.3-1.4,1.3c-0.8,0-1.3-0.6-1.3-1.3c0-0.8,0.6-1.4,1.4-1.4
				C243.5,220.2,244,220.8,244,221.6z M241.6,237.1V225h2.2v12.1H241.6z"/>
			<path class="st15" d="M258.4,230.9c0,4.5-3.1,6.4-6,6.4c-3.3,0-5.8-2.4-5.8-6.2c0-4,2.6-6.4,6-6.4
				C256,224.7,258.4,227.2,258.4,230.9z M248.8,231c0,2.6,1.5,4.6,3.7,4.6c2.1,0,3.7-2,3.7-4.7c0-2-1-4.6-3.6-4.6
				S248.8,228.7,248.8,231z"/>
			<path class="st15" d="M261.2,228.2c0-1.3,0-2.3-0.1-3.3h2l0.1,2h0.1c0.6-1.1,2-2.3,4-2.3c1.7,0,4.3,1,4.3,5.1v7.2h-2.2v-7
				c0-1.9-0.7-3.6-2.8-3.6c-1.4,0-2.6,1-2.9,2.2c-0.1,0.3-0.1,0.6-0.1,1v7.3h-2.2V228.2z"/>
			<path class="st15" d="M74,250.4c1-0.2,2.4-0.3,4.2-0.3c2.1,0,3.7,0.5,4.7,1.4c0.9,0.8,1.5,2,1.5,3.5c0,1.5-0.5,2.7-1.3,3.6
				c-1.1,1.2-3,1.8-5.1,1.8c-0.7,0-1.3,0-1.8-0.1v6.7H74V250.4z M76.2,258.5c0.5,0.1,1.1,0.2,1.8,0.2c2.6,0,4.2-1.3,4.2-3.6
				c0-2.2-1.6-3.3-4-3.3c-1,0-1.7,0.1-2,0.2V258.5z"/>
			<path class="st15" d="M87.1,249.3h2.2v17.7h-2.2V249.3z"/>
			<path class="st15" d="M99.7,267.1l-0.2-1.5h-0.1c-0.7,0.9-2,1.8-3.7,1.8c-2.4,0-3.7-1.7-3.7-3.5c0-2.9,2.6-4.5,7.3-4.5v-0.3
				c0-1-0.3-2.8-2.8-2.8c-1.1,0-2.3,0.4-3.1,0.9l-0.5-1.4c1-0.6,2.4-1.1,4-1.1c3.7,0,4.6,2.5,4.6,4.9v4.5c0,1,0.1,2.1,0.2,2.9H99.7z
				 M99.4,260.9c-2.4-0.1-5.1,0.4-5.1,2.7c0,1.4,1,2.1,2.1,2.1c1.6,0,2.6-1,2.9-2c0.1-0.2,0.1-0.5,0.1-0.7V260.9z"/>
			<path class="st15" d="M107.6,251.5v3.5h3.1v1.7h-3.1v6.5c0,1.5,0.4,2.3,1.6,2.3c0.6,0,1-0.1,1.3-0.1l0.1,1.6
				c-0.4,0.2-1.1,0.3-1.9,0.3c-1,0-1.8-0.3-2.4-0.9c-0.6-0.6-0.8-1.7-0.8-3.1v-6.6h-1.9V255h1.9v-2.9L107.6,251.5z"/>
			<path class="st15" d="M113.4,267.1v-10.4h-1.7V255h1.7v-0.6c0-1.7,0.4-3.2,1.4-4.2c0.8-0.8,1.9-1.1,2.9-1.1
				c0.8,0,1.5,0.2,1.9,0.3l-0.3,1.7c-0.3-0.1-0.8-0.3-1.4-0.3c-1.9,0-2.3,1.6-2.3,3.5v0.6h2.9v1.7h-2.9v10.4H113.4z"/>
			<path class="st15" d="M131.1,260.9c0,4.5-3.1,6.4-6,6.4c-3.3,0-5.8-2.4-5.8-6.2c0-4,2.6-6.4,6-6.4
				C128.8,254.7,131.1,257.2,131.1,260.9z M121.5,261c0,2.6,1.5,4.6,3.7,4.6c2.1,0,3.7-2,3.7-4.7c0-2-1-4.6-3.6-4.6
				C122.7,256.3,121.5,258.7,121.5,261z"/>
			<path class="st15" d="M133.9,258.7c0-1.4,0-2.6-0.1-3.8h1.9l0.1,2.4h0.1c0.5-1.6,1.9-2.6,3.3-2.6c0.3,0,0.4,0,0.6,0.1v2.1
				c-0.2,0-0.4-0.1-0.7-0.1c-1.5,0-2.6,1.2-2.9,2.8c-0.1,0.3-0.1,0.6-0.1,1v6.4h-2.2V258.7z"/>
			<path class="st15" d="M142.2,258.2c0-1.3,0-2.3-0.1-3.3h1.9l0.1,1.9h0.1c0.7-1.1,1.8-2.2,3.8-2.2c1.6,0,2.9,1,3.4,2.4h0
				c0.4-0.7,0.9-1.2,1.3-1.6c0.7-0.6,1.5-0.9,2.7-0.9c1.6,0,4,1,4,5.2v7.1h-2.1v-6.8c0-2.3-0.8-3.7-2.6-3.7c-1.3,0-2.2,0.9-2.6,2
				c-0.1,0.3-0.2,0.7-0.2,1.1v7.5h-2.1v-7.2c0-1.9-0.8-3.3-2.5-3.3c-1.4,0-2.4,1.1-2.7,2.2c-0.1,0.3-0.2,0.7-0.2,1.1v7.3h-2.1V258.2
				z"/>
			<path class="st15" d="M173.1,249.7c-1.8,2.4-3.1,5.7-3.1,10.2c0,4.4,1.4,7.6,3.1,10.1h-1.7c-1.6-2.1-3.3-5.3-3.3-10.1
				c0-4.9,1.7-8.1,3.3-10.2H173.1z"/>
			<path class="st15" d="M177.7,250.2v16.8h-2.2v-16.8H177.7z"/>
			<path class="st15" d="M183.7,250.2v16.8h-2.2v-16.8H183.7z"/>
			<path class="st15" d="M187.5,250.4c1-0.2,2.4-0.3,4.2-0.3c2.1,0,3.7,0.5,4.7,1.4c0.9,0.8,1.5,2,1.5,3.5c0,1.5-0.4,2.7-1.3,3.6
				c-1.1,1.2-3,1.8-5.1,1.8c-0.6,0-1.3,0-1.7-0.1v6.7h-2.2V250.4z M189.6,258.5c0.5,0.1,1.1,0.2,1.8,0.2c2.6,0,4.2-1.3,4.2-3.6
				c0-2.2-1.6-3.3-4-3.3c-0.9,0-1.7,0.1-2,0.2V258.5z"/>
			<path class="st15" d="M199.4,270.1c1.8-2.5,3.1-5.7,3.1-10.2c0-4.5-1.3-7.7-3.1-10.1h1.7c1.6,2,3.3,5.2,3.3,10.2
				c0,4.9-1.7,8.1-3.3,10.2H199.4z"/>
			<path class="st15" d="M76.7,314.8l-1.7,5.3h-2.3l5.7-16.8h2.6l5.7,16.8h-2.3l-1.8-5.3H76.7z M82.2,313.1l-1.6-4.8
				c-0.4-1.1-0.6-2.1-0.9-3.1h0c-0.3,1-0.5,2-0.8,3l-1.6,4.9H82.2z"/>
			<path class="st15" d="M89.1,311.9c0-1.5,0-2.8-0.1-3.9h2l0.1,2.1h0c0.9-1.5,2.3-2.3,4.3-2.3c2.9,0,5.1,2.5,5.1,6.1
				c0,4.3-2.6,6.5-5.5,6.5c-1.6,0-3-0.7-3.7-1.9h0v6.6h-2.2V311.9z M91.3,315.1c0,0.3,0,0.6,0.1,0.9c0.4,1.5,1.7,2.6,3.3,2.6
				c2.3,0,3.7-1.9,3.7-4.7c0-2.4-1.3-4.5-3.6-4.5c-1.5,0-2.9,1.1-3.3,2.7c-0.1,0.3-0.1,0.6-0.1,0.9V315.1z"/>
			<path class="st15" d="M103.4,311.9c0-1.5,0-2.8-0.1-3.9h2l0.1,2.1h0c0.9-1.5,2.3-2.3,4.3-2.3c2.9,0,5.1,2.5,5.1,6.1
				c0,4.3-2.6,6.5-5.5,6.5c-1.6,0-3-0.7-3.7-1.9h0v6.6h-2.2V311.9z M105.5,315.1c0,0.3,0,0.6,0.1,0.9c0.4,1.5,1.7,2.6,3.3,2.6
				c2.3,0,3.7-1.9,3.7-4.7c0-2.4-1.3-4.5-3.6-4.5c-1.5,0-2.9,1.1-3.3,2.7c-0.1,0.3-0.1,0.6-0.1,0.9V315.1z"/>
			<path class="st15" d="M117.6,302.3h2.2v17.7h-2.2V302.3z"/>
			<path class="st15" d="M125.9,304.6c0,0.7-0.5,1.3-1.4,1.3c-0.8,0-1.3-0.6-1.3-1.3c0-0.8,0.6-1.4,1.4-1.4
				C125.4,303.2,125.9,303.8,125.9,304.6z M123.5,320.1V308h2.2v12.1H123.5z"/>
			<path class="st15" d="M138,319.6c-0.6,0.3-1.8,0.7-3.5,0.7c-3.6,0-6-2.5-6-6.2c0-3.7,2.5-6.4,6.5-6.4c1.3,0,2.4,0.3,3,0.6
				l-0.5,1.7c-0.5-0.3-1.3-0.6-2.5-0.6c-2.8,0-4.3,2-4.3,4.6c0,2.8,1.8,4.5,4.2,4.5c1.3,0,2.1-0.3,2.7-0.6L138,319.6z"/>
			<path class="st15" d="M147.2,320.1l-0.2-1.5H147c-0.7,0.9-2,1.8-3.7,1.8c-2.4,0-3.7-1.7-3.7-3.5c0-2.9,2.6-4.5,7.3-4.5v-0.3
				c0-1-0.3-2.8-2.8-2.8c-1.1,0-2.3,0.4-3.1,0.9l-0.5-1.4c1-0.6,2.4-1.1,4-1.1c3.7,0,4.6,2.5,4.6,4.9v4.5c0,1,0.1,2.1,0.2,2.9H147.2
				z M146.9,313.9c-2.4-0.1-5.1,0.4-5.1,2.7c0,1.4,1,2.1,2.1,2.1c1.6,0,2.6-1,2.9-2c0.1-0.2,0.1-0.5,0.1-0.7V313.9z"/>
			<path class="st15" d="M155.1,304.5v3.5h3.1v1.7h-3.1v6.5c0,1.5,0.4,2.3,1.6,2.3c0.6,0,1-0.1,1.3-0.1l0.1,1.6
				c-0.4,0.2-1.1,0.3-1.9,0.3c-1,0-1.8-0.3-2.4-0.9c-0.6-0.6-0.9-1.7-0.9-3.1v-6.6h-1.9V308h1.9v-2.9L155.1,304.5z"/>
			<path class="st15" d="M163.2,304.6c0,0.7-0.5,1.3-1.4,1.3c-0.8,0-1.3-0.6-1.3-1.3c0-0.8,0.6-1.4,1.4-1.4
				C162.7,303.2,163.2,303.8,163.2,304.6z M160.8,320.1V308h2.2v12.1H160.8z"/>
			<path class="st15" d="M177.6,313.9c0,4.5-3.1,6.4-6,6.4c-3.3,0-5.8-2.4-5.8-6.2c0-4,2.6-6.4,6-6.4
				C175.2,307.7,177.6,310.2,177.6,313.9z M168,314c0,2.6,1.5,4.6,3.7,4.6c2.1,0,3.7-2,3.7-4.7c0-2-1-4.6-3.6-4.6
				C169.1,309.3,168,311.7,168,314z"/>
			<path class="st15" d="M180.3,311.2c0-1.3,0-2.3-0.1-3.3h1.9l0.1,2h0c0.6-1.1,2-2.3,4-2.3c1.7,0,4.3,1,4.3,5.1v7.2h-2.2v-7
				c0-1.9-0.7-3.6-2.8-3.6c-1.4,0-2.6,1-2.9,2.2c-0.1,0.3-0.2,0.6-0.2,1v7.3h-2.2V311.2z"/>
			<path class="st15" d="M199.6,303.4c1-0.2,2.4-0.3,4.2-0.3c2.1,0,3.7,0.5,4.7,1.4c0.9,0.8,1.5,2,1.5,3.5c0,1.5-0.4,2.7-1.3,3.6
				c-1.1,1.2-3,1.8-5.1,1.8c-0.6,0-1.3,0-1.7-0.1v6.7h-2.2V303.4z M201.8,311.5c0.5,0.1,1.1,0.2,1.8,0.2c2.6,0,4.2-1.3,4.2-3.6
				c0-2.2-1.6-3.3-4-3.3c-0.9,0-1.7,0.1-2,0.2V311.5z"/>
			<path class="st15" d="M212.4,311.7c0-1.4,0-2.6-0.1-3.8h1.9l0.1,2.4h0.1c0.5-1.6,1.9-2.6,3.3-2.6c0.3,0,0.4,0,0.6,0.1v2.1
				c-0.2,0-0.5-0.1-0.8-0.1c-1.5,0-2.6,1.2-2.9,2.8c0,0.3-0.1,0.6-0.1,1v6.4h-2.2V311.7z"/>
			<path class="st15" d="M231.3,313.9c0,4.5-3.1,6.4-6,6.4c-3.3,0-5.8-2.4-5.8-6.2c0-4,2.6-6.4,6-6.4
				C228.9,307.7,231.3,310.2,231.3,313.9z M221.7,314c0,2.6,1.5,4.6,3.7,4.6c2.1,0,3.7-2,3.7-4.7c0-2-1-4.6-3.6-4.6
				C222.8,309.3,221.7,311.7,221.7,314z"/>
			<path class="st15" d="M244.5,308c0,0.9-0.1,1.8-0.1,3.3v7c0,2.8-0.5,4.5-1.7,5.5c-1.2,1.1-2.9,1.4-4.4,1.4c-1.4,0-3-0.3-4-1
				l0.5-1.7c0.8,0.5,2,0.9,3.5,0.9c2.3,0,3.9-1.2,3.9-4.2V318h0c-0.7,1.1-2,2-3.8,2c-3,0-5.1-2.5-5.1-5.9c0-4.1,2.7-6.4,5.4-6.4
				c2.1,0,3.2,1.1,3.8,2.1h0l0.1-1.8H244.5z M242.2,312.7c0-0.4,0-0.7-0.1-1c-0.4-1.3-1.5-2.3-3.1-2.3c-2.1,0-3.6,1.8-3.6,4.6
				c0,2.4,1.2,4.3,3.6,4.3c1.3,0,2.6-0.8,3-2.2c0.1-0.4,0.2-0.8,0.2-1.2V312.7z"/>
			<path class="st15" d="M247.9,311.7c0-1.4,0-2.6-0.1-3.8h1.9l0.1,2.4h0.1c0.5-1.6,1.9-2.6,3.3-2.6c0.3,0,0.4,0,0.6,0.1v2.1
				c-0.2,0-0.5-0.1-0.8-0.1c-1.5,0-2.6,1.2-2.9,2.8c0,0.3-0.1,0.6-0.1,1v6.4h-2.2V311.7z"/>
			<path class="st15" d="M262.6,320.1l-0.2-1.5h-0.1c-0.7,0.9-2,1.8-3.7,1.8c-2.4,0-3.7-1.7-3.7-3.5c0-2.9,2.6-4.5,7.3-4.5v-0.3
				c0-1-0.3-2.8-2.8-2.8c-1.1,0-2.3,0.4-3.1,0.9l-0.5-1.4c1-0.6,2.4-1.1,4-1.1c3.7,0,4.6,2.5,4.6,4.9v4.5c0,1,0.1,2.1,0.2,2.9H262.6
				z M262.3,313.9c-2.4-0.1-5.1,0.4-5.1,2.7c0,1.4,1,2.1,2.1,2.1c1.6,0,2.6-1,2.9-2c0.1-0.2,0.1-0.5,0.1-0.7V313.9z"/>
			<path class="st15" d="M268,311.2c0-1.3,0-2.3-0.1-3.3h1.9l0.1,1.9h0.1c0.7-1.1,1.8-2.2,3.8-2.2c1.7,0,2.9,1,3.4,2.4h0
				c0.4-0.7,0.8-1.2,1.3-1.6c0.7-0.6,1.5-0.9,2.7-0.9c1.6,0,4,1,4,5.2v7.1h-2.1v-6.8c0-2.3-0.8-3.7-2.6-3.7c-1.2,0-2.2,0.9-2.6,2
				c-0.1,0.3-0.2,0.7-0.2,1.1v7.5h-2.2v-7.2c0-1.9-0.8-3.3-2.5-3.3c-1.4,0-2.4,1.1-2.7,2.2c-0.1,0.3-0.2,0.7-0.2,1.1v7.3H268V311.2z
				"/>
			<path class="st15" d="M288.8,311.2c0-1.3,0-2.3-0.1-3.3h1.9l0.1,1.9h0.1c0.7-1.1,1.8-2.2,3.8-2.2c1.7,0,2.9,1,3.4,2.4h0
				c0.4-0.7,0.8-1.2,1.3-1.6c0.7-0.6,1.5-0.9,2.7-0.9c1.6,0,4,1,4,5.2v7.1H304v-6.8c0-2.3-0.8-3.7-2.6-3.7c-1.2,0-2.2,0.9-2.6,2
				c-0.1,0.3-0.2,0.7-0.2,1.1v7.5h-2.2v-7.2c0-1.9-0.8-3.3-2.5-3.3c-1.4,0-2.4,1.1-2.7,2.2c-0.1,0.3-0.2,0.7-0.2,1.1v7.3h-2.1V311.2
				z"/>
			<path class="st15" d="M312.1,304.6c0,0.7-0.5,1.3-1.4,1.3c-0.8,0-1.3-0.6-1.3-1.3c0-0.8,0.6-1.4,1.4-1.4
				C311.6,303.2,312.1,303.8,312.1,304.6z M309.7,320.1V308h2.2v12.1H309.7z"/>
			<path class="st15" d="M315.5,311.2c0-1.3,0-2.3-0.1-3.3h2l0.1,2h0.1c0.6-1.1,2-2.3,4-2.3c1.7,0,4.3,1,4.3,5.1v7.2h-2.2v-7
				c0-1.9-0.7-3.6-2.8-3.6c-1.4,0-2.6,1-2.9,2.2c-0.1,0.3-0.1,0.6-0.1,1v7.3h-2.2V311.2z"/>
			<path class="st15" d="M339.8,308c-0.1,0.9-0.1,1.8-0.1,3.3v7c0,2.8-0.5,4.5-1.7,5.5c-1.2,1.1-2.9,1.4-4.4,1.4c-1.5,0-3-0.3-4-1
				l0.5-1.7c0.8,0.5,2,0.9,3.5,0.9c2.2,0,3.9-1.2,3.9-4.2V318h0c-0.7,1.1-2,2-3.8,2c-3,0-5.1-2.5-5.1-5.9c0-4.1,2.7-6.4,5.4-6.4
				c2.1,0,3.2,1.1,3.8,2.1h0.1l0.1-1.8H339.8z M337.6,312.7c0-0.4,0-0.7-0.1-1c-0.4-1.3-1.5-2.3-3.1-2.3c-2.1,0-3.6,1.8-3.6,4.6
				c0,2.4,1.2,4.3,3.6,4.3c1.3,0,2.6-0.8,3-2.2c0.1-0.4,0.2-0.8,0.2-1.2V312.7z"/>
			<path class="st15" d="M76.2,333.2v16.8H74v-16.8H76.2z"/>
			<path class="st15" d="M80.1,341.2c0-1.3,0-2.3-0.1-3.3h2l0.1,2h0.1c0.6-1.1,2-2.3,4-2.3c1.7,0,4.3,1,4.3,5.1v7.2h-2.2v-7
				c0-1.9-0.7-3.6-2.8-3.6c-1.4,0-2.6,1-2.9,2.2c-0.1,0.3-0.1,0.6-0.1,1v7.3h-2.2V341.2z"/>
			<path class="st15" d="M96.6,334.5v3.5h3.1v1.7h-3.1v6.5c0,1.5,0.4,2.3,1.6,2.3c0.6,0,1-0.1,1.3-0.1l0.1,1.6
				c-0.4,0.2-1.1,0.3-1.9,0.3c-1,0-1.8-0.3-2.4-0.9c-0.6-0.6-0.8-1.7-0.8-3.1v-6.6h-1.9V338h1.9v-2.9L96.6,334.5z"/>
			<path class="st15" d="M103.3,344.4c0,3,1.9,4.2,4.1,4.2c1.6,0,2.5-0.3,3.3-0.6l0.4,1.6c-0.8,0.4-2.1,0.8-4,0.8
				c-3.7,0-5.9-2.4-5.9-6.1c0-3.6,2.1-6.5,5.7-6.5c3.9,0,5,3.5,5,5.7c0,0.4,0,0.8-0.1,1H103.3z M109.7,342.8c0-1.4-0.6-3.6-3-3.6
				c-2.2,0-3.2,2-3.4,3.6H109.7z"/>
			<path class="st15" d="M114.6,341.7c0-1.4,0-2.6-0.1-3.8h1.9l0.1,2.4h0.1c0.5-1.6,1.9-2.6,3.3-2.6c0.3,0,0.4,0,0.6,0.1v2.1
				c-0.2,0-0.4-0.1-0.7-0.1c-1.5,0-2.6,1.2-2.9,2.8c-0.1,0.3-0.1,0.6-0.1,1v6.4h-2.2V341.7z"/>
			<path class="st15" d="M123.7,350.1v-10.4H122V338h1.7v-0.6c0-1.7,0.4-3.2,1.4-4.2c0.8-0.8,1.9-1.1,2.9-1.1c0.8,0,1.5,0.2,1.9,0.3
				l-0.3,1.7c-0.3-0.1-0.8-0.3-1.4-0.3c-1.9,0-2.3,1.6-2.3,3.5v0.6h2.9v1.7h-2.9v10.4H123.7z"/>
			<path class="st15" d="M137.5,350.1l-0.2-1.5h-0.1c-0.7,0.9-2,1.8-3.7,1.8c-2.4,0-3.7-1.7-3.7-3.5c0-2.9,2.6-4.5,7.3-4.5v-0.3
				c0-1-0.3-2.8-2.8-2.8c-1.1,0-2.3,0.4-3.1,0.9l-0.5-1.4c1-0.6,2.4-1.1,4-1.1c3.7,0,4.6,2.5,4.6,4.9v4.5c0,1,0.1,2.1,0.2,2.9H137.5
				z M137.2,343.9c-2.4-0.1-5.1,0.4-5.1,2.7c0,1.4,1,2.1,2.1,2.1c1.6,0,2.6-1,2.9-2c0.1-0.2,0.1-0.5,0.1-0.7V343.9z"/>
			<path class="st15" d="M151.5,349.6c-0.6,0.3-1.8,0.7-3.5,0.7c-3.6,0-6-2.5-6-6.2c0-3.7,2.5-6.4,6.5-6.4c1.3,0,2.4,0.3,3,0.6
				L151,340c-0.5-0.3-1.3-0.6-2.5-0.6c-2.8,0-4.3,2-4.3,4.6c0,2.8,1.8,4.5,4.2,4.5c1.3,0,2.1-0.3,2.7-0.6L151.5,349.6z"/>
			<path class="st15" d="M155.1,344.4c0,3,1.9,4.2,4.1,4.2c1.6,0,2.5-0.3,3.3-0.6l0.4,1.6c-0.8,0.4-2.1,0.8-4,0.8
				c-3.7,0-5.9-2.4-5.9-6.1c0-3.6,2.1-6.5,5.7-6.5c3.9,0,5,3.5,5,5.7c0,0.4,0,0.8-0.1,1H155.1z M161.6,342.8c0-1.4-0.6-3.6-3-3.6
				c-2.2,0-3.2,2-3.4,3.6H161.6z"/>
			<path class="st15" d="M176.5,332.7c-1.8,2.4-3.1,5.7-3.1,10.2c0,4.4,1.4,7.6,3.1,10.1h-1.7c-1.6-2.1-3.3-5.3-3.3-10.1
				c0-4.9,1.7-8.1,3.3-10.2H176.5z"/>
			<path class="st15" d="M181.3,344.8l-1.7,5.3h-2.3l5.7-16.8h2.6l5.7,16.8h-2.3l-1.8-5.3H181.3z M186.9,343.1l-1.6-4.8
				c-0.4-1.1-0.6-2.1-0.9-3.1h0c-0.3,1-0.5,2-0.8,3l-1.6,4.9H186.9z"/>
			<path class="st15" d="M193.9,333.4c1-0.2,2.4-0.3,4.2-0.3c2.1,0,3.7,0.5,4.7,1.4c0.9,0.8,1.5,2,1.5,3.5c0,1.5-0.5,2.7-1.3,3.6
				c-1.1,1.2-3,1.8-5.1,1.8c-0.7,0-1.3,0-1.8-0.1v6.7h-2.2V333.4z M196.1,341.5c0.5,0.1,1.1,0.2,1.8,0.2c2.6,0,4.2-1.3,4.2-3.6
				c0-2.2-1.6-3.3-4-3.3c-1,0-1.7,0.1-2,0.2V341.5z"/>
			<path class="st15" d="M209.4,333.2v16.8h-2.2v-16.8H209.4z"/>
			<path class="st15" d="M211.8,353.1c1.8-2.5,3.1-5.7,3.1-10.2c0-4.5-1.3-7.7-3.1-10.1h1.7c1.6,2,3.3,5.2,3.3,10.2
				c0,4.9-1.7,8.1-3.3,10.2H211.8z"/>
			<path class="st15" d="M232.2,350.1l-0.2-1.5H232c-0.7,0.9-2,1.8-3.7,1.8c-2.4,0-3.7-1.7-3.7-3.5c0-2.9,2.6-4.5,7.3-4.5v-0.3
				c0-1-0.3-2.8-2.7-2.8c-1.1,0-2.3,0.4-3.1,0.9l-0.5-1.4c1-0.6,2.4-1.1,4-1.1c3.7,0,4.6,2.5,4.6,4.9v4.5c0,1,0,2.1,0.2,2.9H232.2z
				 M231.9,343.9c-2.4-0.1-5.1,0.4-5.1,2.7c0,1.4,0.9,2.1,2.1,2.1c1.6,0,2.6-1,2.9-2c0.1-0.2,0.1-0.5,0.1-0.7V343.9z"/>
			<path class="st15" d="M237.6,341.2c0-1.3,0-2.3-0.1-3.3h2l0.1,2h0.1c0.6-1.1,2-2.3,4-2.3c1.7,0,4.3,1,4.3,5.1v7.2h-2.2v-7
				c0-1.9-0.7-3.6-2.8-3.6c-1.4,0-2.6,1-2.9,2.2c-0.1,0.3-0.1,0.6-0.1,1v7.3h-2.2V341.2z"/>
			<path class="st15" d="M261.9,332.3v14.6c0,1.1,0,2.3,0.1,3.1h-2l-0.1-2.1h0c-0.7,1.3-2.1,2.4-4.1,2.4c-2.9,0-5.2-2.5-5.2-6.1
				c0-4,2.5-6.5,5.4-6.5c1.8,0,3.1,0.9,3.6,1.8h0v-7.2H261.9z M259.7,342.9c0-0.3,0-0.6-0.1-0.9c-0.3-1.4-1.5-2.5-3.2-2.5
				c-2.3,0-3.6,2-3.6,4.7c0,2.4,1.2,4.5,3.6,4.5c1.5,0,2.8-1,3.2-2.6c0.1-0.3,0.1-0.6,0.1-0.9V342.9z"/>
			<path class="st15" d="M270.8,341.9c0-1.5-0.1-2.8-0.1-3.9h2l0.1,2.1h0.1c0.9-1.5,2.3-2.3,4.3-2.3c2.9,0,5.1,2.5,5.1,6.1
				c0,4.3-2.6,6.5-5.5,6.5c-1.6,0-3-0.7-3.7-1.9h0v6.6h-2.2V341.9z M273,345.1c0,0.3,0,0.6,0.1,0.9c0.4,1.5,1.7,2.6,3.3,2.6
				c2.3,0,3.7-1.9,3.7-4.7c0-2.4-1.3-4.5-3.6-4.5c-1.5,0-2.9,1.1-3.3,2.7c-0.1,0.3-0.2,0.6-0.2,0.9V345.1z"/>
			<path class="st15" d="M285.1,332.3h2.2v17.7h-2.2V332.3z"/>
			<path class="st15" d="M301.1,346.8c0,1.3,0,2.3,0.1,3.3h-1.9l-0.1-2h0c-0.6,1-1.8,2.2-4,2.2c-1.9,0-4.2-1-4.2-5.3V338h2.2v6.7
				c0,2.3,0.7,3.8,2.7,3.8c1.5,0,2.5-1,2.9-2c0.1-0.3,0.2-0.7,0.2-1.1V338h2.2V346.8z"/>
			<path class="st15" d="M315.2,338c-0.1,0.9-0.1,1.8-0.1,3.3v7c0,2.8-0.5,4.5-1.7,5.5c-1.2,1.1-2.9,1.4-4.4,1.4c-1.5,0-3-0.3-4-1
				l0.5-1.7c0.8,0.5,2,0.9,3.5,0.9c2.2,0,3.9-1.2,3.9-4.2V348h0c-0.7,1.1-2,2-3.8,2c-3,0-5.1-2.5-5.1-5.9c0-4.1,2.7-6.4,5.4-6.4
				c2.1,0,3.2,1.1,3.8,2.1h0.1l0.1-1.8H315.2z M312.9,342.7c0-0.4,0-0.7-0.1-1c-0.4-1.3-1.5-2.3-3.1-2.3c-2.1,0-3.6,1.8-3.6,4.6
				c0,2.4,1.2,4.3,3.6,4.3c1.3,0,2.6-0.8,3-2.2c0.1-0.4,0.2-0.8,0.2-1.2V342.7z"/>
			<path class="st15" d="M323.8,342.5v1.6h-6.2v-1.6H323.8z"/>
			<path class="st15" d="M328.8,334.6c0,0.7-0.5,1.3-1.4,1.3c-0.8,0-1.3-0.6-1.3-1.3c0-0.8,0.6-1.4,1.4-1.4
				C328.3,333.2,328.8,333.8,328.8,334.6z M326.4,350.1V338h2.2v12.1H326.4z"/>
			<path class="st15" d="M332.2,341.2c0-1.3,0-2.3-0.1-3.3h2l0.1,2h0.1c0.6-1.1,2-2.3,4-2.3c1.7,0,4.3,1,4.3,5.1v7.2h-2.2v-7
				c0-1.9-0.7-3.6-2.8-3.6c-1.4,0-2.6,1-2.9,2.2c-0.1,0.3-0.1,0.6-0.1,1v7.3h-2.2V341.2z"/>
			<path class="st15" d="M345.8,347.8c0.7,0.4,1.8,0.9,2.9,0.9c1.6,0,2.3-0.8,2.3-1.8c0-1-0.6-1.6-2.2-2.2c-2.2-0.8-3.2-2-3.2-3.4
				c0-1.9,1.6-3.5,4.2-3.5c1.2,0,2.3,0.4,3,0.8l-0.6,1.6c-0.5-0.3-1.3-0.7-2.5-0.7c-1.3,0-2,0.7-2,1.6c0,1,0.7,1.4,2.3,2
				c2.1,0.8,3.2,1.8,3.2,3.6c0,2.1-1.7,3.6-4.5,3.6c-1.3,0-2.5-0.3-3.4-0.8L345.8,347.8z"/>
			<path class="st15" d="M74,386.4c1.1-0.2,2.7-0.3,4.2-0.3c2.3,0,3.8,0.4,4.9,1.4c0.8,0.8,1.3,1.9,1.3,3.2c0,2.2-1.4,3.7-3.2,4.3
				v0.1c1.3,0.4,2.1,1.6,2.5,3.4c0.5,2.3,1,4,1.3,4.6h-2.2c-0.3-0.5-0.7-1.9-1.1-4c-0.5-2.3-1.4-3.2-3.4-3.3h-2v7.3H74V386.4z
				 M76.2,394.1h2.2c2.3,0,3.8-1.3,3.8-3.2c0-2.2-1.6-3.1-3.9-3.1c-1,0-1.8,0.1-2.1,0.2V394.1z"/>
			<path class="st15" d="M88.7,397.4c0,3,1.9,4.2,4.1,4.2c1.6,0,2.5-0.3,3.3-0.6l0.4,1.6c-0.8,0.4-2.1,0.8-4,0.8
				c-3.7,0-5.9-2.4-5.9-6.1c0-3.6,2.1-6.5,5.7-6.5c3.9,0,5,3.5,5,5.7c0,0.4,0,0.8-0.1,1H88.7z M95.1,395.8c0-1.4-0.6-3.6-3-3.6
				c-2.2,0-3.2,2-3.4,3.6H95.1z"/>
			<path class="st15" d="M99.7,400.8c0.6,0.4,1.8,0.9,2.9,0.9c1.6,0,2.3-0.8,2.3-1.8c0-1-0.6-1.6-2.3-2.2c-2.2-0.8-3.2-2-3.2-3.4
				c0-1.9,1.6-3.5,4.2-3.5c1.2,0,2.3,0.4,3,0.8l-0.5,1.6c-0.5-0.3-1.3-0.7-2.5-0.7c-1.3,0-2,0.7-2,1.6c0,1,0.7,1.4,2.3,2
				c2.1,0.8,3.2,1.8,3.2,3.6c0,2.1-1.6,3.6-4.5,3.6c-1.3,0-2.5-0.3-3.4-0.8L99.7,400.8z"/>
			<path class="st15" d="M109.9,394.9c0-1.5-0.1-2.8-0.1-3.9h2l0.1,2.1h0.1c0.9-1.5,2.3-2.3,4.3-2.3c2.9,0,5.1,2.5,5.1,6.1
				c0,4.3-2.6,6.5-5.5,6.5c-1.6,0-3-0.7-3.7-1.9h0v6.6h-2.2V394.9z M112.1,398.1c0,0.3,0,0.6,0.1,0.9c0.4,1.5,1.7,2.6,3.3,2.6
				c2.3,0,3.7-1.9,3.7-4.7c0-2.4-1.3-4.5-3.6-4.5c-1.5,0-2.9,1.1-3.3,2.7c-0.1,0.3-0.2,0.6-0.2,0.9V398.1z"/>
			<path class="st15" d="M135.1,396.9c0,4.5-3.1,6.4-6,6.4c-3.3,0-5.8-2.4-5.8-6.2c0-4,2.6-6.4,6-6.4
				C132.7,390.7,135.1,393.2,135.1,396.9z M125.5,397c0,2.6,1.5,4.6,3.7,4.6c2.1,0,3.7-2,3.7-4.7c0-2-1-4.6-3.6-4.6
				S125.5,394.7,125.5,397z"/>
			<path class="st15" d="M137.8,394.2c0-1.3,0-2.3-0.1-3.3h2l0.1,2h0.1c0.6-1.1,2-2.3,4-2.3c1.7,0,4.3,1,4.3,5.1v7.2h-2.2v-7
				c0-1.9-0.7-3.6-2.8-3.6c-1.4,0-2.6,1-2.9,2.2c-0.1,0.3-0.1,0.6-0.1,1v7.3h-2.2V394.2z"/>
			<path class="st15" d="M151.4,400.8c0.7,0.4,1.8,0.9,2.9,0.9c1.6,0,2.3-0.8,2.3-1.8c0-1-0.6-1.6-2.2-2.2c-2.2-0.8-3.2-2-3.2-3.4
				c0-1.9,1.6-3.5,4.2-3.5c1.2,0,2.3,0.4,3,0.8l-0.6,1.6c-0.5-0.3-1.3-0.7-2.5-0.7c-1.3,0-2,0.7-2,1.6c0,1,0.7,1.4,2.3,2
				c2.1,0.8,3.2,1.8,3.2,3.6c0,2.1-1.7,3.6-4.5,3.6c-1.3,0-2.5-0.3-3.4-0.8L151.4,400.8z"/>
			<path class="st15" d="M164.1,387.6c0,0.7-0.5,1.3-1.4,1.3c-0.8,0-1.3-0.6-1.3-1.3c0-0.8,0.6-1.4,1.4-1.4
				C163.5,386.2,164.1,386.8,164.1,387.6z M161.6,403.1V391h2.2v12.1H161.6z"/>
			<path class="st15" d="M168.3,391l2.4,6.8c0.4,1.1,0.7,2.1,1,3.1h0.1c0.3-1,0.6-2,1-3.1l2.3-6.8h2.3l-4.7,12.1h-2.1L166,391H168.3
				z"/>
			<path class="st15" d="M180.5,397.4c0,3,1.9,4.2,4.1,4.2c1.6,0,2.5-0.3,3.3-0.6l0.4,1.6c-0.8,0.4-2.1,0.8-4,0.8
				c-3.7,0-5.9-2.4-5.9-6.1c0-3.6,2.1-6.5,5.7-6.5c3.9,0,5,3.5,5,5.7c0,0.4,0,0.8-0.1,1H180.5z M186.9,395.8c0-1.4-0.6-3.6-3-3.6
				c-2.2,0-3.2,2-3.4,3.6H186.9z"/>
			<path class="st15" d="M197.9,391l1.6,6.1c0.3,1.4,0.7,2.6,0.9,3.8h0.1c0.3-1.2,0.7-2.5,1.1-3.8l2-6.2h1.8l1.9,6
				c0.5,1.4,0.8,2.7,1.1,3.9h0.1c0.2-1.2,0.5-2.5,0.9-3.9l1.7-6.1h2.2l-3.9,12.1h-2l-1.8-5.8c-0.4-1.3-0.8-2.5-1.1-4h0
				c-0.3,1.4-0.7,2.7-1.1,4l-1.9,5.7h-2l-3.6-12.1H197.9z"/>
			<path class="st15" d="M216.4,397.4c0,3,1.9,4.2,4.1,4.2c1.6,0,2.5-0.3,3.3-0.6l0.4,1.6c-0.8,0.4-2.1,0.8-4,0.8
				c-3.7,0-5.9-2.4-5.9-6.1c0-3.6,2.1-6.5,5.7-6.5c3.9,0,5,3.5,5,5.7c0,0.4,0,0.8-0.1,1H216.4z M222.9,395.8c0-1.4-0.6-3.6-3-3.6
				c-2.2,0-3.2,2-3.4,3.6H222.9z"/>
			<path class="st15" d="M227.6,403.1c0-0.8,0.1-2,0.1-3.1v-14.6h2.2v7.6h0c0.8-1.3,2.2-2.2,4.1-2.2c3,0,5.1,2.5,5.1,6.2
				c0,4.3-2.7,6.5-5.4,6.5c-1.7,0-3.1-0.7-4-2.3h-0.1l-0.1,2H227.6z M229.9,398.2c0,0.3,0,0.5,0.1,0.8c0.4,1.5,1.7,2.6,3.3,2.6
				c2.3,0,3.7-1.9,3.7-4.6c0-2.4-1.3-4.5-3.6-4.5c-1.5,0-2.9,1-3.3,2.7c0,0.2-0.1,0.5-0.1,0.9V398.2z"/>
			<path class="st15" d="M257.7,385.3v14.6c0,1.1,0,2.3,0.1,3.1h-2l-0.1-2.1h0c-0.7,1.3-2.1,2.4-4.1,2.4c-2.9,0-5.2-2.5-5.2-6.1
				c0-4,2.5-6.5,5.4-6.5c1.8,0,3.1,0.9,3.6,1.8h0v-7.2H257.7z M255.5,395.9c0-0.3,0-0.6-0.1-0.9c-0.3-1.4-1.5-2.5-3.2-2.5
				c-2.3,0-3.6,2-3.6,4.7c0,2.4,1.2,4.5,3.6,4.5c1.5,0,2.8-1,3.2-2.6c0.1-0.3,0.1-0.6,0.1-0.9V395.9z"/>
			<path class="st15" d="M262.6,397.4c0,3,1.9,4.2,4.1,4.2c1.6,0,2.5-0.3,3.3-0.6l0.4,1.6c-0.8,0.4-2.1,0.8-4,0.8
				c-3.7,0-5.9-2.4-5.9-6.1c0-3.6,2.1-6.5,5.7-6.5c3.9,0,5,3.5,5,5.7c0,0.4,0,0.8-0.1,1H262.6z M269,395.8c0-1.4-0.6-3.6-3-3.6
				c-2.2,0-3.2,2-3.4,3.6H269z"/>
			<path class="st15" d="M273.6,400.8c0.7,0.4,1.8,0.9,2.9,0.9c1.6,0,2.3-0.8,2.3-1.8c0-1-0.6-1.6-2.2-2.2c-2.2-0.8-3.2-2-3.2-3.4
				c0-1.9,1.6-3.5,4.2-3.5c1.2,0,2.3,0.4,3,0.8L280,393c-0.5-0.3-1.3-0.7-2.5-0.7c-1.3,0-2,0.7-2,1.6c0,1,0.7,1.4,2.3,2
				c2.1,0.8,3.2,1.8,3.2,3.6c0,2.1-1.7,3.6-4.5,3.6c-1.3,0-2.5-0.3-3.4-0.8L273.6,400.8z"/>
			<path class="st15" d="M286.2,387.6c0,0.7-0.5,1.3-1.4,1.3c-0.8,0-1.3-0.6-1.3-1.3c0-0.8,0.6-1.4,1.4-1.4
				C285.7,386.2,286.2,386.8,286.2,387.6z M283.8,403.1V391h2.2v12.1H283.8z"/>
			<path class="st15" d="M300.1,391c0,0.9-0.1,1.8-0.1,3.3v7c0,2.8-0.5,4.5-1.7,5.5c-1.2,1.1-2.9,1.4-4.4,1.4c-1.4,0-3-0.3-4-1
				l0.5-1.7c0.8,0.5,2,0.9,3.5,0.9c2.3,0,3.9-1.2,3.9-4.2V401h0c-0.7,1.1-2,2-3.8,2c-3,0-5.1-2.5-5.1-5.9c0-4.1,2.7-6.4,5.4-6.4
				c2.1,0,3.2,1.1,3.8,2.1h0l0.1-1.8H300.1z M297.8,395.7c0-0.4,0-0.7-0.1-1c-0.4-1.3-1.5-2.3-3.1-2.3c-2.1,0-3.6,1.8-3.6,4.6
				c0,2.4,1.2,4.3,3.6,4.3c1.3,0,2.6-0.8,3-2.2c0.1-0.4,0.2-0.8,0.2-1.2V395.7z"/>
			<path class="st15" d="M303.5,394.2c0-1.3,0-2.3-0.1-3.3h1.9l0.1,2h0c0.6-1.1,2-2.3,4-2.3c1.7,0,4.3,1,4.3,5.1v7.2h-2.2v-7
				c0-1.9-0.7-3.6-2.8-3.6c-1.4,0-2.6,1-2.9,2.2c-0.1,0.3-0.2,0.6-0.2,1v7.3h-2.2V394.2z"/>
		</g>
	</g>
	<g>
		<g>
			<path class="st15" d="M971.8,220.2v16.8h-2.2v-16.8H971.8z"/>
			<path class="st15" d="M975.8,228.2c0-1.3,0-2.3-0.1-3.3h1.9l0.1,2h0c0.6-1.1,2-2.3,4-2.3c1.7,0,4.3,1,4.3,5.1v7.2h-2.2v-7
				c0-1.9-0.7-3.6-2.8-3.6c-1.4,0-2.6,1-2.9,2.2c-0.1,0.3-0.2,0.6-0.2,1v7.3h-2.2V228.2z"/>
			<path class="st15" d="M1000.1,219.3v14.6c0,1.1,0,2.3,0.1,3.1h-2l-0.1-2.1h0c-0.7,1.3-2.1,2.4-4.1,2.4c-2.9,0-5.2-2.5-5.2-6.1
				c0-4,2.5-6.5,5.4-6.5c1.8,0,3.1,0.9,3.6,1.8h0v-7.2H1000.1z M997.9,229.9c0-0.3,0-0.6-0.1-0.9c-0.3-1.4-1.5-2.5-3.2-2.5
				c-2.3,0-3.6,2-3.6,4.7c0,2.4,1.2,4.5,3.6,4.5c1.5,0,2.8-1,3.2-2.6c0.1-0.3,0.1-0.6,0.1-0.9V229.9z"/>
			<path class="st15" d="M1005,231.4c0,3,1.9,4.2,4.1,4.2c1.6,0,2.5-0.3,3.3-0.6l0.4,1.6c-0.8,0.4-2.1,0.8-4,0.8
				c-3.7,0-5.9-2.4-5.9-6.1c0-3.6,2.1-6.5,5.7-6.5c3.9,0,5,3.5,5,5.7c0,0.4,0,0.8-0.1,1H1005z M1011.4,229.8c0-1.4-0.6-3.6-3-3.6
				c-2.2,0-3.2,2-3.4,3.6H1011.4z"/>
			<path class="st15" d="M1017.2,225l1.7,2.6c0.5,0.7,0.8,1.3,1.2,2h0.1c0.4-0.7,0.8-1.4,1.2-2l1.7-2.6h2.4l-4.1,5.8l4.2,6.2h-2.5
				l-1.8-2.7c-0.5-0.7-0.9-1.4-1.3-2.1h0c-0.4,0.7-0.8,1.4-1.3,2.1l-1.8,2.7h-2.4l4.3-6.2l-4.1-5.9H1017.2z"/>
			<path class="st15" d="M1030.2,221.6c0,0.7-0.5,1.3-1.4,1.3c-0.8,0-1.3-0.6-1.3-1.3c0-0.8,0.6-1.4,1.4-1.4
				C1029.7,220.2,1030.2,220.8,1030.2,221.6z M1027.8,237.1V225h2.2v12.1H1027.8z"/>
			<path class="st15" d="M1033.6,228.2c0-1.3,0-2.3-0.1-3.3h1.9l0.1,2h0c0.6-1.1,2-2.3,4-2.3c1.7,0,4.3,1,4.3,5.1v7.2h-2.2v-7
				c0-1.9-0.7-3.6-2.8-3.6c-1.4,0-2.6,1-2.9,2.2c-0.1,0.3-0.2,0.6-0.2,1v7.3h-2.2V228.2z"/>
			<path class="st15" d="M1057.9,225c-0.1,0.9-0.1,1.8-0.1,3.3v7c0,2.8-0.5,4.5-1.7,5.5c-1.2,1.1-2.9,1.4-4.4,1.4c-1.5,0-3-0.3-4-1
				l0.5-1.7c0.8,0.5,2,0.9,3.5,0.9c2.2,0,3.9-1.2,3.9-4.2V235h0c-0.7,1.1-2,2-3.8,2c-3,0-5.1-2.5-5.1-5.9c0-4.1,2.7-6.4,5.4-6.4
				c2.1,0,3.2,1.1,3.8,2.1h0.1l0.1-1.8H1057.9z M1055.6,229.7c0-0.4,0-0.7-0.1-1c-0.4-1.3-1.5-2.3-3.1-2.3c-2.1,0-3.6,1.8-3.6,4.6
				c0,2.4,1.2,4.3,3.6,4.3c1.3,0,2.6-0.8,3-2.2c0.1-0.4,0.2-0.8,0.2-1.2V229.7z"/>
			<path class="st15" d="M969.3,287.4c1,0.6,2.4,1.1,3.9,1.1c2.2,0,3.5-1.2,3.5-2.9c0-1.6-0.9-2.5-3.2-3.3c-2.8-1-4.4-2.4-4.4-4.8
				c0-2.6,2.2-4.6,5.4-4.6c1.7,0,3,0.4,3.7,0.8l-0.6,1.8c-0.5-0.3-1.7-0.8-3.2-0.8c-2.3,0-3.2,1.4-3.2,2.5c0,1.6,1,2.3,3.3,3.2
				c2.8,1.1,4.3,2.5,4.3,4.9c0,2.6-1.9,4.8-5.9,4.8c-1.6,0-3.4-0.5-4.3-1.1L969.3,287.4z"/>
			<path class="st15" d="M983.2,284.4c0,3,1.9,4.2,4.1,4.2c1.6,0,2.5-0.3,3.3-0.6l0.4,1.6c-0.8,0.3-2.1,0.8-4,0.8
				c-3.7,0-5.9-2.4-5.9-6.1s2.1-6.5,5.7-6.5c3.9,0,5,3.5,5,5.7c0,0.5,0,0.8-0.1,1H983.2z M989.7,282.8c0-1.4-0.6-3.6-3-3.6
				c-2.2,0-3.2,2-3.4,3.6H989.7z"/>
			<path class="st15" d="M1001.2,290.1l-0.2-1.5h-0.1c-0.7,0.9-2,1.8-3.7,1.8c-2.4,0-3.7-1.7-3.7-3.5c0-2.9,2.6-4.5,7.3-4.5v-0.3
				c0-1-0.3-2.8-2.8-2.8c-1.1,0-2.3,0.3-3.1,0.9l-0.5-1.4c1-0.7,2.4-1.1,4-1.1c3.7,0,4.6,2.5,4.6,4.9v4.5c0,1,0.1,2.1,0.2,2.9
				H1001.2z M1000.9,283.9c-2.4,0-5.1,0.4-5.1,2.7c0,1.4,1,2.1,2.1,2.1c1.6,0,2.6-1,2.9-2c0.1-0.2,0.1-0.5,0.1-0.7V283.9z"/>
			<path class="st15" d="M1006.6,281.7c0-1.4,0-2.6-0.1-3.8h1.9l0.1,2.4h0.1c0.5-1.6,1.9-2.6,3.3-2.6c0.3,0,0.4,0,0.6,0.1v2.1
				c-0.2,0-0.4-0.1-0.7-0.1c-1.5,0-2.6,1.2-2.9,2.8c-0.1,0.3-0.1,0.7-0.1,1v6.4h-2.2V281.7z"/>
			<path class="st15" d="M1023.1,289.6c-0.6,0.3-1.8,0.7-3.5,0.7c-3.6,0-6-2.5-6-6.2c0-3.7,2.5-6.4,6.5-6.4c1.3,0,2.4,0.3,3,0.6
				l-0.5,1.7c-0.5-0.3-1.3-0.6-2.5-0.6c-2.8,0-4.3,2-4.3,4.6c0,2.8,1.8,4.5,4.2,4.5c1.3,0,2.1-0.3,2.7-0.6L1023.1,289.6z"/>
			<path class="st15" d="M1025.7,272.3h2.2v7.5h0c0.3-0.6,0.9-1.2,1.6-1.5c0.7-0.4,1.4-0.6,2.3-0.6c1.6,0,4.2,1,4.2,5.2v7.2h-2.2
				v-6.9c0-1.9-0.7-3.6-2.8-3.6c-1.4,0-2.5,1-2.9,2.2c-0.1,0.3-0.1,0.6-0.1,1v7.3h-2.2V272.3z"/>
			<path class="st15" d="M1053.7,282.2h-6.5v6.1h7.3v1.8h-9.5v-16.8h9.1v1.8h-6.9v5.3h6.5V282.2z"/>
			<path class="st15" d="M1057.2,281.2c0-1.2,0-2.3-0.1-3.3h2l0.1,2h0.1c0.6-1.1,2-2.3,4-2.3c1.7,0,4.3,1,4.3,5.1v7.2h-2.2v-7
				c0-1.9-0.7-3.6-2.8-3.6c-1.4,0-2.6,1-2.9,2.3c-0.1,0.3-0.1,0.6-0.1,1v7.3h-2.2V281.2z"/>
			<path class="st15" d="M1081.5,278c-0.1,0.9-0.1,1.8-0.1,3.3v7c0,2.8-0.5,4.5-1.7,5.5c-1.2,1.1-2.9,1.4-4.4,1.4c-1.5,0-3-0.3-4-1
				l0.5-1.7c0.8,0.5,2,0.9,3.5,0.9c2.2,0,3.9-1.2,3.9-4.2V288h0c-0.7,1.1-2,2-3.8,2c-3,0-5.1-2.5-5.1-5.9c0-4.1,2.7-6.4,5.4-6.4
				c2.1,0,3.2,1.1,3.8,2.1h0.1l0.1-1.8H1081.5z M1079.2,282.7c0-0.4,0-0.7-0.1-1c-0.4-1.3-1.5-2.3-3.1-2.3c-2.1,0-3.6,1.8-3.6,4.6
				c0,2.4,1.2,4.3,3.6,4.3c1.3,0,2.6-0.8,3-2.2c0.1-0.4,0.2-0.8,0.2-1.2V282.7z"/>
			<path class="st15" d="M1087.3,274.6c0,0.8-0.5,1.3-1.4,1.3c-0.8,0-1.3-0.6-1.3-1.3c0-0.8,0.6-1.4,1.4-1.4
				C1086.8,273.2,1087.3,273.8,1087.3,274.6z M1084.9,290.1V278h2.2v12.1H1084.9z"/>
			<path class="st15" d="M1090.7,281.2c0-1.2,0-2.3-0.1-3.3h1.9l0.1,2h0c0.6-1.1,2-2.3,4-2.3c1.7,0,4.3,1,4.3,5.1v7.2h-2.2v-7
				c0-1.9-0.7-3.6-2.8-3.6c-1.4,0-2.6,1-2.9,2.3c-0.1,0.3-0.2,0.6-0.2,1v7.3h-2.2V281.2z"/>
			<path class="st15" d="M1105.8,284.4c0,3,1.9,4.2,4.1,4.2c1.6,0,2.5-0.3,3.3-0.6l0.4,1.6c-0.8,0.3-2.1,0.8-4,0.8
				c-3.7,0-5.9-2.4-5.9-6.1s2.1-6.5,5.7-6.5c3.9,0,5,3.5,5,5.7c0,0.5,0,0.8-0.1,1H1105.8z M1112.3,282.8c0-1.4-0.6-3.6-3-3.6
				c-2.2,0-3.2,2-3.4,3.6H1112.3z"/>
			<path class="st15" d="M984,311.5c0,5.8-3.5,8.9-7.8,8.9c-4.4,0-7.6-3.4-7.6-8.5c0-5.3,3.3-8.8,7.8-8.8
				C981,302.9,984,306.5,984,311.5z M970.9,311.7c0,3.6,2,6.8,5.4,6.8c3.4,0,5.4-3.2,5.4-7c0-3.3-1.7-6.8-5.4-6.8
				C972.7,304.7,970.9,308,970.9,311.7z"/>
			<path class="st15" d="M986.8,311.9c0-1.5-0.1-2.8-0.1-3.9h2l0.1,2.1h0.1c0.9-1.5,2.3-2.3,4.3-2.3c2.9,0,5.1,2.5,5.1,6.1
				c0,4.3-2.6,6.5-5.5,6.5c-1.6,0-3-0.7-3.7-1.9h0v6.6h-2.2V311.9z M988.9,315.1c0,0.3,0,0.6,0.1,0.9c0.4,1.5,1.7,2.6,3.3,2.6
				c2.3,0,3.7-1.9,3.7-4.7c0-2.4-1.3-4.5-3.6-4.5c-1.5,0-2.9,1.1-3.3,2.7c-0.1,0.3-0.2,0.6-0.2,0.9V315.1z"/>
			<path class="st15" d="M1003.6,304.5v3.5h3.1v1.7h-3.1v6.5c0,1.5,0.4,2.3,1.6,2.3c0.6,0,1-0.1,1.3-0.1l0.1,1.6
				c-0.4,0.2-1.1,0.3-1.9,0.3c-1,0-1.8-0.3-2.4-0.9c-0.6-0.6-0.9-1.7-0.9-3.1v-6.6h-1.9V308h1.9v-2.9L1003.6,304.5z"/>
			<path class="st15" d="M1011.7,304.6c0,0.8-0.5,1.3-1.4,1.3c-0.8,0-1.3-0.6-1.3-1.3c0-0.8,0.6-1.4,1.4-1.4
				C1011.2,303.2,1011.7,303.8,1011.7,304.6z M1009.3,320.1V308h2.2v12.1H1009.3z"/>
			<path class="st15" d="M1015.1,311.2c0-1.2,0-2.3-0.1-3.3h1.9l0.1,1.9h0.1c0.7-1.1,1.8-2.2,3.8-2.2c1.6,0,2.9,1,3.4,2.4h0
				c0.4-0.7,0.9-1.2,1.3-1.6c0.7-0.5,1.5-0.8,2.7-0.8c1.6,0,4,1,4,5.2v7.1h-2.1v-6.8c0-2.3-0.8-3.7-2.6-3.7c-1.3,0-2.2,0.9-2.6,2
				c-0.1,0.3-0.2,0.7-0.2,1.1v7.5h-2.1v-7.2c0-1.9-0.8-3.3-2.5-3.3c-1.4,0-2.4,1.1-2.7,2.2c-0.1,0.3-0.2,0.7-0.2,1.1v7.3h-2.1V311.2
				z"/>
			<path class="st15" d="M1038.4,304.6c0,0.8-0.5,1.3-1.4,1.3c-0.8,0-1.3-0.6-1.3-1.3c0-0.8,0.6-1.4,1.4-1.4
				C1037.9,303.2,1038.4,303.8,1038.4,304.6z M1036,320.1V308h2.2v12.1H1036z"/>
			<path class="st15" d="M1040.4,318.8l5.5-7.1c0.5-0.6,1-1.2,1.6-1.9v0h-6.5V308h9.2l0,1.4l-5.4,7c-0.5,0.7-1,1.3-1.5,1.9v0h7.1
				v1.8h-9.8V318.8z"/>
			<path class="st15" d="M1059.2,320.1l-0.2-1.5h-0.1c-0.7,0.9-2,1.8-3.7,1.8c-2.4,0-3.7-1.7-3.7-3.5c0-2.9,2.6-4.5,7.3-4.5v-0.3
				c0-1-0.3-2.8-2.7-2.8c-1.1,0-2.3,0.3-3.1,0.9l-0.5-1.4c1-0.7,2.4-1.1,4-1.1c3.7,0,4.6,2.5,4.6,4.9v4.5c0,1,0,2.1,0.2,2.9H1059.2z
				 M1058.9,313.9c-2.4,0-5.1,0.4-5.1,2.7c0,1.4,0.9,2.1,2.1,2.1c1.6,0,2.6-1,2.9-2c0.1-0.2,0.1-0.5,0.1-0.7V313.9z"/>
			<path class="st15" d="M1067.1,304.5v3.5h3.1v1.7h-3.1v6.5c0,1.5,0.4,2.3,1.6,2.3c0.6,0,1-0.1,1.3-0.1l0.1,1.6
				c-0.4,0.2-1.1,0.3-1.9,0.3c-1,0-1.8-0.3-2.4-0.9c-0.6-0.6-0.8-1.7-0.8-3.1v-6.6h-1.9V308h1.9v-2.9L1067.1,304.5z"/>
			<path class="st15" d="M1075.2,304.6c0,0.8-0.5,1.3-1.4,1.3c-0.8,0-1.3-0.6-1.3-1.3c0-0.8,0.6-1.4,1.4-1.4
				C1074.7,303.2,1075.2,303.8,1075.2,304.6z M1072.7,320.1V308h2.2v12.1H1072.7z"/>
			<path class="st15" d="M1089.5,313.9c0,4.5-3.1,6.4-6,6.4c-3.3,0-5.8-2.4-5.8-6.2c0-4,2.6-6.4,6-6.4
				C1087.2,307.7,1089.5,310.2,1089.5,313.9z M1079.9,314c0,2.6,1.5,4.6,3.7,4.6c2.1,0,3.7-2,3.7-4.7c0-2-1-4.6-3.6-4.6
				S1079.9,311.7,1079.9,314z"/>
			<path class="st15" d="M1092.3,311.2c0-1.2,0-2.3-0.1-3.3h1.9l0.1,2h0c0.6-1.1,2-2.3,4-2.3c1.7,0,4.3,1,4.3,5.1v7.2h-2.2v-7
				c0-1.9-0.7-3.6-2.8-3.6c-1.4,0-2.6,1-2.9,2.3c-0.1,0.3-0.2,0.6-0.2,1v7.3h-2.2V311.2z"/>
			<path class="st15" d="M1116.3,302.7c-1.8,2.4-3.1,5.7-3.1,10.2c0,4.4,1.4,7.6,3.1,10.1h-1.7c-1.6-2.1-3.3-5.3-3.3-10.1
				c0-4.9,1.7-8.1,3.3-10.2H1116.3z"/>
			<path class="st15" d="M1118.4,317.4c1,0.6,2.4,1.1,3.9,1.1c2.2,0,3.5-1.2,3.5-2.9c0-1.6-0.9-2.5-3.2-3.3c-2.8-1-4.4-2.4-4.4-4.8
				c0-2.6,2.2-4.6,5.4-4.6c1.7,0,3,0.4,3.7,0.8l-0.6,1.8c-0.5-0.3-1.7-0.8-3.2-0.8c-2.3,0-3.2,1.4-3.2,2.5c0,1.6,1,2.3,3.3,3.2
				c2.8,1.1,4.3,2.5,4.3,4.9c0,2.6-1.9,4.8-5.9,4.8c-1.6,0-3.4-0.5-4.3-1.1L1118.4,317.4z"/>
			<path class="st15" d="M1139.7,312.2h-6.5v6.1h7.3v1.8h-9.5v-16.8h9.1v1.8h-6.9v5.3h6.5V312.2z"/>
			<path class="st15" d="M1157.7,311.5c0,5.8-3.5,8.9-7.8,8.9c-4.4,0-7.6-3.4-7.6-8.5c0-5.3,3.3-8.8,7.8-8.8
				C1154.7,302.9,1157.7,306.5,1157.7,311.5z M1144.6,311.7c0,3.6,1.9,6.8,5.4,6.8c3.4,0,5.4-3.2,5.4-7c0-3.3-1.8-6.8-5.4-6.8
				C1146.4,304.7,1144.6,308,1144.6,311.7z"/>
			<path class="st15" d="M1158.9,323.1c1.8-2.5,3.1-5.7,3.1-10.2c0-4.5-1.3-7.7-3.1-10.1h1.7c1.6,2,3.3,5.2,3.3,10.2
				c0,4.9-1.7,8.1-3.3,10.2H1158.9z"/>
			<path class="st15" d="M969.6,356.4c1.1-0.2,2.7-0.3,4.2-0.3c2.3,0,3.8,0.4,4.9,1.4c0.8,0.7,1.3,1.9,1.3,3.2
				c0,2.2-1.4,3.7-3.2,4.3v0.1c1.3,0.5,2.1,1.7,2.5,3.4c0.5,2.3,0.9,4,1.3,4.6h-2.3c-0.3-0.5-0.6-1.9-1.1-4
				c-0.5-2.3-1.4-3.2-3.4-3.3h-2v7.3h-2.2V356.4z M971.8,364.1h2.2c2.3,0,3.8-1.3,3.8-3.2c0-2.2-1.6-3.1-3.9-3.1
				c-1,0-1.8,0.1-2.1,0.2V364.1z"/>
			<path class="st15" d="M982.8,370.4c1,0.6,2.4,1.1,3.9,1.1c2.2,0,3.5-1.2,3.5-2.9c0-1.6-0.9-2.5-3.2-3.3c-2.7-1-4.4-2.4-4.4-4.8
				c0-2.6,2.2-4.6,5.4-4.6c1.7,0,3,0.4,3.7,0.8l-0.6,1.8c-0.5-0.3-1.7-0.8-3.2-0.8c-2.3,0-3.2,1.4-3.2,2.5c0,1.6,1,2.3,3.3,3.2
				c2.8,1.1,4.3,2.5,4.3,4.9c0,2.6-1.9,4.8-5.9,4.8c-1.6,0-3.4-0.5-4.3-1.1L982.8,370.4z"/>
			<path class="st15" d="M995.1,370.4c1,0.6,2.4,1.1,3.9,1.1c2.2,0,3.5-1.2,3.5-2.9c0-1.6-0.9-2.5-3.2-3.3c-2.7-1-4.4-2.4-4.4-4.8
				c0-2.6,2.2-4.6,5.4-4.6c1.7,0,3,0.4,3.7,0.8l-0.6,1.8c-0.5-0.3-1.7-0.8-3.2-0.8c-2.3,0-3.2,1.4-3.2,2.5c0,1.6,1,2.3,3.3,3.2
				c2.8,1.1,4.3,2.5,4.3,4.9c0,2.6-1.9,4.8-5.9,4.8c-1.6,0-3.4-0.5-4.3-1.1L995.1,370.4z"/>
			<path class="st15" d="M1013.2,373.1v-10.4h-1.7V361h1.7v-0.6c0-1.7,0.4-3.2,1.4-4.2c0.8-0.8,1.9-1.1,2.9-1.1
				c0.8,0,1.4,0.2,1.9,0.3l-0.3,1.7c-0.3-0.2-0.8-0.3-1.4-0.3c-1.9,0-2.3,1.6-2.3,3.5v0.7h2.9v1.7h-2.9v10.4H1013.2z"/>
			<path class="st15" d="M1021.1,367.4c0,3,1.9,4.2,4.1,4.2c1.6,0,2.5-0.3,3.3-0.6l0.4,1.6c-0.8,0.3-2.1,0.8-4,0.8
				c-3.7,0-5.9-2.4-5.9-6.1s2.1-6.5,5.7-6.5c3.9,0,5,3.5,5,5.7c0,0.5,0,0.8-0.1,1H1021.1z M1027.6,365.8c0-1.4-0.6-3.6-3-3.6
				c-2.2,0-3.2,2-3.4,3.6H1027.6z"/>
			<path class="st15" d="M1033.7,367.4c0,3,1.9,4.2,4.1,4.2c1.6,0,2.5-0.3,3.3-0.6l0.4,1.6c-0.8,0.3-2.1,0.8-4,0.8
				c-3.7,0-5.9-2.4-5.9-6.1s2.1-6.5,5.7-6.5c3.9,0,5,3.5,5,5.7c0,0.5,0,0.8-0.1,1H1033.7z M1040.1,365.8c0-1.4-0.6-3.6-3-3.6
				c-2.2,0-3.2,2-3.4,3.6H1040.1z"/>
			<path class="st15" d="M1055.4,355.3v14.6c0,1.1,0,2.3,0.1,3.1h-2l-0.1-2.1h0c-0.7,1.3-2.1,2.4-4.1,2.4c-2.9,0-5.2-2.5-5.2-6.1
				c0-4,2.5-6.5,5.4-6.5c1.8,0,3.1,0.9,3.6,1.8h0.1v-7.2H1055.4z M1053.2,365.9c0-0.3,0-0.7-0.1-0.9c-0.3-1.4-1.5-2.5-3.2-2.5
				c-2.3,0-3.6,2-3.6,4.7c0,2.4,1.2,4.5,3.6,4.5c1.5,0,2.8-1,3.2-2.6c0.1-0.3,0.1-0.6,0.1-1V365.9z"/>
			<path class="st15" d="M973.3,426.1l-5.5-16.8h2.3l2.6,8.3c0.7,2.3,1.3,4.3,1.8,6.3h0c0.5-2,1.2-4.1,1.9-6.3l2.8-8.3h2.3l-6,16.8
				H973.3z"/>
			<path class="st15" d="M985.5,410.6c0,0.8-0.5,1.3-1.4,1.3c-0.8,0-1.3-0.6-1.3-1.3c0-0.8,0.6-1.4,1.4-1.4
				C985,409.2,985.5,409.8,985.5,410.6z M983.1,426.1V414h2.2v12.1H983.1z"/>
			<path class="st15" d="M988.6,423.8c0.7,0.4,1.8,0.9,2.9,0.9c1.6,0,2.3-0.8,2.3-1.8c0-1-0.6-1.6-2.2-2.2c-2.2-0.8-3.2-2-3.2-3.4
				c0-1.9,1.6-3.5,4.2-3.5c1.2,0,2.3,0.3,3,0.8L995,416c-0.5-0.3-1.3-0.7-2.5-0.7c-1.3,0-2,0.8-2,1.6c0,1,0.7,1.5,2.3,2
				c2.1,0.8,3.2,1.8,3.2,3.6c0,2.1-1.7,3.6-4.5,3.6c-1.3,0-2.5-0.3-3.4-0.8L988.6,423.8z"/>
			<path class="st15" d="M1009,422.8c0,1.2,0,2.3,0.1,3.3h-1.9l-0.1-2h-0.1c-0.6,1-1.8,2.3-4,2.3c-1.9,0-4.2-1-4.2-5.3V414h2.2v6.7
				c0,2.3,0.7,3.8,2.7,3.8c1.5,0,2.5-1,2.9-2c0.1-0.3,0.2-0.7,0.2-1.1V414h2.2V422.8z"/>
			<path class="st15" d="M1019.3,426.1l-0.2-1.5h-0.1c-0.7,0.9-2,1.8-3.7,1.8c-2.4,0-3.7-1.7-3.7-3.5c0-2.9,2.6-4.5,7.3-4.5v-0.3
				c0-1-0.3-2.8-2.8-2.8c-1.1,0-2.3,0.3-3.1,0.9l-0.5-1.4c1-0.7,2.4-1.1,4-1.1c3.7,0,4.6,2.5,4.6,4.9v4.5c0,1,0.1,2.1,0.2,2.9
				H1019.3z M1019,419.9c-2.4,0-5.1,0.4-5.1,2.7c0,1.4,1,2.1,2.1,2.1c1.6,0,2.6-1,2.9-2c0.1-0.2,0.1-0.5,0.1-0.7V419.9z"/>
			<path class="st15" d="M1024.7,408.3h2.2v17.7h-2.2V408.3z"/>
			<path class="st15" d="M1033,410.6c0,0.8-0.5,1.3-1.4,1.3c-0.8,0-1.3-0.6-1.3-1.3c0-0.8,0.6-1.4,1.4-1.4
				C1032.5,409.2,1033,409.8,1033,410.6z M1030.6,426.1V414h2.2v12.1H1030.6z"/>
			<path class="st15" d="M1035,424.8l5.5-7.1c0.5-0.6,1-1.2,1.6-1.9v0h-6.5V414h9.2l0,1.4l-5.4,7c-0.5,0.7-1,1.3-1.5,1.9v0h7.1v1.8
				h-9.8V424.8z"/>
			<path class="st15" d="M1053.8,426.1l-0.2-1.5h-0.1c-0.7,0.9-2,1.8-3.7,1.8c-2.4,0-3.7-1.7-3.7-3.5c0-2.9,2.6-4.5,7.3-4.5v-0.3
				c0-1-0.3-2.8-2.7-2.8c-1.1,0-2.3,0.3-3.1,0.9l-0.5-1.4c1-0.7,2.4-1.1,4-1.1c3.7,0,4.6,2.5,4.6,4.9v4.5c0,1,0,2.1,0.2,2.9H1053.8z
				 M1053.5,419.9c-2.4,0-5.1,0.4-5.1,2.7c0,1.4,0.9,2.1,2.1,2.1c1.6,0,2.6-1,2.9-2c0.1-0.2,0.1-0.5,0.1-0.7V419.9z"/>
			<path class="st15" d="M1061.7,410.5v3.5h3.1v1.7h-3.1v6.5c0,1.5,0.4,2.3,1.6,2.3c0.6,0,1-0.1,1.3-0.1l0.1,1.6
				c-0.4,0.2-1.1,0.3-1.9,0.3c-1,0-1.8-0.3-2.4-0.9c-0.6-0.6-0.9-1.7-0.9-3.1v-6.6h-1.9V414h1.9v-2.9L1061.7,410.5z"/>
			<path class="st15" d="M1069.8,410.6c0,0.8-0.5,1.3-1.4,1.3c-0.8,0-1.3-0.6-1.3-1.3c0-0.8,0.6-1.4,1.4-1.4
				C1069.3,409.2,1069.8,409.8,1069.8,410.6z M1067.3,426.1V414h2.2v12.1H1067.3z"/>
			<path class="st15" d="M1084.1,419.9c0,4.5-3.1,6.4-6,6.4c-3.3,0-5.8-2.4-5.8-6.2c0-4,2.6-6.4,6-6.4
				C1081.8,413.7,1084.1,416.2,1084.1,419.9z M1074.5,420c0,2.6,1.5,4.6,3.7,4.6c2.1,0,3.7-2,3.7-4.7c0-2-1-4.6-3.6-4.6
				S1074.5,417.7,1074.5,420z"/>
			<path class="st15" d="M1086.9,417.2c0-1.2,0-2.3-0.1-3.3h2l0.1,2h0.1c0.6-1.1,2-2.3,4-2.3c1.7,0,4.3,1,4.3,5.1v7.2h-2.2v-7
				c0-1.9-0.7-3.6-2.8-3.6c-1.4,0-2.6,1-2.9,2.3c-0.1,0.3-0.1,0.6-0.1,1v7.3h-2.2V417.2z"/>
			<path class="st15" d="M1112.8,426.1l-0.2-1.5h-0.1c-0.7,0.9-2,1.8-3.7,1.8c-2.4,0-3.7-1.7-3.7-3.5c0-2.9,2.6-4.5,7.3-4.5v-0.3
				c0-1-0.3-2.8-2.8-2.8c-1.1,0-2.3,0.3-3.1,0.9l-0.5-1.4c1-0.7,2.4-1.1,4-1.1c3.7,0,4.6,2.5,4.6,4.9v4.5c0,1,0.1,2.1,0.2,2.9
				H1112.8z M1112.5,419.9c-2.4,0-5.1,0.4-5.1,2.7c0,1.4,1,2.1,2.1,2.1c1.6,0,2.6-1,2.9-2c0.1-0.2,0.1-0.5,0.1-0.7V419.9z"/>
			<path class="st15" d="M1118.1,417.2c0-1.2,0-2.3-0.1-3.3h2l0.1,2h0.1c0.6-1.1,2-2.3,4-2.3c1.7,0,4.3,1,4.3,5.1v7.2h-2.2v-7
				c0-1.9-0.7-3.6-2.8-3.6c-1.4,0-2.6,1-2.9,2.3c-0.1,0.3-0.1,0.6-0.1,1v7.3h-2.2V417.2z"/>
			<path class="st15" d="M1142.5,408.3v14.6c0,1.1,0,2.3,0.1,3.1h-2l-0.1-2.1h0c-0.7,1.3-2.1,2.4-4.1,2.4c-2.9,0-5.2-2.5-5.2-6.1
				c0-4,2.5-6.5,5.4-6.5c1.8,0,3.1,0.9,3.6,1.8h0.1v-7.2H1142.5z M1140.3,418.9c0-0.3,0-0.7-0.1-0.9c-0.3-1.4-1.5-2.5-3.2-2.5
				c-2.3,0-3.6,2-3.6,4.7c0,2.4,1.2,4.5,3.6,4.5c1.5,0,2.8-1,3.2-2.6c0.1-0.3,0.1-0.6,0.1-1V418.9z"/>
			<path class="st15" d="M970.8,450.4c0,3,1.9,4.2,4.1,4.2c1.6,0,2.5-0.3,3.3-0.6l0.4,1.6c-0.8,0.3-2.1,0.8-4,0.8
				c-3.7,0-5.9-2.4-5.9-6.1s2.1-6.5,5.7-6.5c3.9,0,5,3.5,5,5.7c0,0.5,0,0.8-0.1,1H970.8z M977.2,448.8c0-1.4-0.6-3.6-3-3.6
				c-2.2,0-3.2,2-3.4,3.6H977.2z"/>
			<path class="st15" d="M983,444l1.7,2.6c0.5,0.7,0.8,1.3,1.2,2h0.1c0.4-0.7,0.8-1.3,1.2-2l1.7-2.6h2.4l-4.1,5.8l4.2,6.2h-2.5
				l-1.8-2.7c-0.5-0.7-0.9-1.4-1.3-2.1h0c-0.4,0.7-0.8,1.4-1.3,2.1l-1.8,2.7h-2.4l4.3-6.2l-4.1-5.9H983z"/>
			<path class="st15" d="M993.6,447.9c0-1.5-0.1-2.8-0.1-3.9h2l0.1,2.1h0.1c0.9-1.5,2.3-2.3,4.3-2.3c2.9,0,5.1,2.5,5.1,6.1
				c0,4.3-2.6,6.5-5.5,6.5c-1.6,0-3-0.7-3.7-1.9h0v6.6h-2.2V447.9z M995.7,451.1c0,0.3,0,0.6,0.1,0.9c0.4,1.5,1.7,2.6,3.3,2.6
				c2.3,0,3.7-1.9,3.7-4.7c0-2.4-1.3-4.5-3.6-4.5c-1.5,0-2.9,1.1-3.3,2.7c-0.1,0.3-0.2,0.6-0.2,0.9V451.1z"/>
			<path class="st15" d="M1007.8,438.3h2.2v17.7h-2.2V438.3z"/>
			<path class="st15" d="M1024.6,449.9c0,4.5-3.1,6.4-6,6.4c-3.3,0-5.8-2.4-5.8-6.2c0-4,2.6-6.4,6-6.4
				C1022.3,443.7,1024.6,446.2,1024.6,449.9z M1015,450c0,2.6,1.5,4.6,3.7,4.6c2.1,0,3.7-2,3.7-4.7c0-2-1-4.6-3.6-4.6
				C1016.2,445.3,1015,447.7,1015,450z"/>
			<path class="st15" d="M1027.4,447.7c0-1.4,0-2.6-0.1-3.8h1.9l0.1,2.4h0.1c0.5-1.6,1.9-2.6,3.3-2.6c0.3,0,0.4,0,0.6,0.1v2.1
				c-0.2,0-0.4-0.1-0.7-0.1c-1.5,0-2.6,1.2-2.9,2.8c-0.1,0.3-0.1,0.7-0.1,1v6.4h-2.2V447.7z"/>
			<path class="st15" d="M1042.2,456.1l-0.2-1.5h-0.1c-0.7,0.9-2,1.8-3.7,1.8c-2.4,0-3.7-1.7-3.7-3.5c0-2.9,2.6-4.5,7.3-4.5v-0.3
				c0-1-0.3-2.8-2.8-2.8c-1.1,0-2.3,0.3-3.1,0.9l-0.5-1.4c1-0.7,2.4-1.1,4-1.1c3.7,0,4.6,2.5,4.6,4.9v4.5c0,1,0.1,2.1,0.2,2.9
				H1042.2z M1041.8,449.9c-2.4,0-5.1,0.4-5.1,2.7c0,1.4,1,2.1,2.1,2.1c1.6,0,2.6-1,2.9-2c0.1-0.2,0.1-0.5,0.1-0.7V449.9z"/>
			<path class="st15" d="M1050.1,440.5v3.5h3.1v1.7h-3.1v6.5c0,1.5,0.4,2.3,1.6,2.3c0.6,0,1-0.1,1.3-0.1l0.1,1.6
				c-0.4,0.2-1.1,0.3-1.9,0.3c-1,0-1.8-0.3-2.4-0.9c-0.6-0.6-0.9-1.7-0.9-3.1v-6.6h-1.9V444h1.9v-2.9L1050.1,440.5z"/>
			<path class="st15" d="M1058.1,440.6c0,0.8-0.5,1.3-1.4,1.3c-0.8,0-1.3-0.6-1.3-1.3c0-0.8,0.6-1.4,1.4-1.4
				C1057.6,439.2,1058.1,439.8,1058.1,440.6z M1055.7,456.1V444h2.2v12.1H1055.7z"/>
			<path class="st15" d="M1072.5,449.9c0,4.5-3.1,6.4-6,6.4c-3.3,0-5.8-2.4-5.8-6.2c0-4,2.6-6.4,6-6.4
				C1070.1,443.7,1072.5,446.2,1072.5,449.9z M1062.9,450c0,2.6,1.5,4.6,3.7,4.6c2.1,0,3.7-2,3.7-4.7c0-2-1-4.6-3.6-4.6
				C1064,445.3,1062.9,447.7,1062.9,450z"/>
			<path class="st15" d="M1075.3,447.2c0-1.2,0-2.3-0.1-3.3h2l0.1,2h0.1c0.6-1.1,2-2.3,4-2.3c1.7,0,4.3,1,4.3,5.1v7.2h-2.2v-7
				c0-1.9-0.7-3.6-2.8-3.6c-1.4,0-2.6,1-2.9,2.3c-0.1,0.3-0.1,0.6-0.1,1v7.3h-2.2V447.2z"/>
			<path class="st15" d="M969.6,492.4c1.1-0.2,2.7-0.3,4.2-0.3c2.3,0,3.8,0.4,4.9,1.4c0.8,0.7,1.3,1.9,1.3,3.2
				c0,2.2-1.4,3.7-3.2,4.3v0.1c1.3,0.5,2.1,1.7,2.5,3.4c0.5,2.3,0.9,4,1.3,4.6h-2.3c-0.3-0.5-0.6-1.9-1.1-4
				c-0.5-2.3-1.4-3.2-3.4-3.3h-2v7.3h-2.2V492.4z M971.8,500.1h2.2c2.3,0,3.8-1.3,3.8-3.2c0-2.2-1.6-3.1-3.9-3.1
				c-1,0-1.8,0.1-2.1,0.2V500.1z"/>
			<path class="st15" d="M984.3,503.4c0,3,1.9,4.2,4.1,4.2c1.6,0,2.5-0.3,3.3-0.6l0.4,1.6c-0.8,0.3-2.1,0.8-4,0.8
				c-3.7,0-5.9-2.4-5.9-6.1s2.1-6.5,5.7-6.5c3.9,0,5,3.5,5,5.7c0,0.5,0,0.8-0.1,1H984.3z M990.8,501.8c0-1.4-0.6-3.6-3-3.6
				c-2.2,0-3.2,2-3.4,3.6H990.8z"/>
			<path class="st15" d="M1004.2,508.6c-0.6,0.3-1.8,0.7-3.5,0.7c-3.6,0-6-2.5-6-6.2c0-3.7,2.5-6.4,6.5-6.4c1.3,0,2.4,0.3,3,0.6
				l-0.5,1.7c-0.5-0.3-1.3-0.6-2.5-0.6c-2.8,0-4.3,2-4.3,4.6c0,2.8,1.8,4.5,4.2,4.5c1.3,0,2.1-0.3,2.7-0.6L1004.2,508.6z"/>
			<path class="st15" d="M1017.6,502.9c0,4.5-3.1,6.4-6,6.4c-3.3,0-5.8-2.4-5.8-6.2c0-4,2.6-6.4,6-6.4
				C1015.3,496.7,1017.6,499.2,1017.6,502.9z M1008,503c0,2.6,1.5,4.6,3.7,4.6c2.1,0,3.7-2,3.7-4.7c0-2-1-4.6-3.6-4.6
				S1008,500.7,1008,503z"/>
			<path class="st15" d="M1020.4,500.2c0-1.2,0-2.3-0.1-3.3h1.9l0.1,1.9h0.1c0.7-1.1,1.8-2.2,3.8-2.2c1.6,0,2.9,1,3.4,2.4h0
				c0.4-0.7,0.9-1.2,1.3-1.6c0.7-0.5,1.5-0.8,2.7-0.8c1.6,0,4,1,4,5.2v7.1h-2.1v-6.8c0-2.3-0.8-3.7-2.6-3.7c-1.3,0-2.2,0.9-2.6,2
				c-0.1,0.3-0.2,0.7-0.2,1.1v7.5h-2.1v-7.2c0-1.9-0.8-3.3-2.5-3.3c-1.4,0-2.4,1.1-2.7,2.2c-0.1,0.3-0.2,0.7-0.2,1.1v7.3h-2.1V500.2
				z"/>
			<path class="st15" d="M1041.2,500.2c0-1.2,0-2.3-0.1-3.3h1.9l0.1,1.9h0.1c0.7-1.1,1.8-2.2,3.8-2.2c1.7,0,2.9,1,3.4,2.4h0
				c0.4-0.7,0.8-1.2,1.3-1.6c0.7-0.5,1.5-0.8,2.7-0.8c1.6,0,4,1,4,5.2v7.1h-2.1v-6.8c0-2.3-0.8-3.7-2.6-3.7c-1.2,0-2.2,0.9-2.6,2
				c-0.1,0.3-0.2,0.7-0.2,1.1v7.5h-2.2v-7.2c0-1.9-0.8-3.3-2.5-3.3c-1.4,0-2.4,1.1-2.7,2.2c-0.1,0.3-0.2,0.7-0.2,1.1v7.3h-2.1V500.2
				z"/>
			<path class="st15" d="M1063.3,503.4c0,3,1.9,4.2,4.1,4.2c1.6,0,2.5-0.3,3.3-0.6l0.4,1.6c-0.8,0.3-2.1,0.8-4,0.8
				c-3.7,0-5.9-2.4-5.9-6.1s2.1-6.5,5.7-6.5c3.9,0,5,3.5,5,5.7c0,0.5,0,0.8-0.1,1H1063.3z M1069.8,501.8c0-1.4-0.6-3.6-3-3.6
				c-2.2,0-3.2,2-3.4,3.6H1069.8z"/>
			<path class="st15" d="M1074.6,500.2c0-1.2,0-2.3-0.1-3.3h1.9l0.1,2h0c0.6-1.1,2-2.3,4-2.3c1.7,0,4.3,1,4.3,5.1v7.2h-2.2v-7
				c0-1.9-0.7-3.6-2.8-3.6c-1.4,0-2.6,1-2.9,2.3c-0.1,0.3-0.2,0.6-0.2,1v7.3h-2.2V500.2z"/>
			<path class="st15" d="M1098.9,491.3v14.6c0,1.1,0,2.3,0.1,3.1h-2l-0.1-2.1h0c-0.7,1.3-2.1,2.4-4.1,2.4c-2.9,0-5.2-2.5-5.2-6.1
				c0-4,2.5-6.5,5.4-6.5c1.8,0,3.1,0.9,3.6,1.8h0v-7.2H1098.9z M1096.7,501.9c0-0.3,0-0.7-0.1-0.9c-0.3-1.4-1.5-2.5-3.2-2.5
				c-2.3,0-3.6,2-3.6,4.7c0,2.4,1.2,4.5,3.6,4.5c1.5,0,2.8-1,3.2-2.6c0.1-0.3,0.1-0.6,0.1-1V501.9z"/>
			<path class="st15" d="M1109.3,509.1l-0.2-1.5h-0.1c-0.7,0.9-2,1.8-3.7,1.8c-2.4,0-3.7-1.7-3.7-3.5c0-2.9,2.6-4.5,7.3-4.5v-0.3
				c0-1-0.3-2.8-2.7-2.8c-1.1,0-2.3,0.3-3.1,0.9l-0.5-1.4c1-0.7,2.4-1.1,4-1.1c3.7,0,4.6,2.5,4.6,4.9v4.5c0,1,0,2.1,0.2,2.9H1109.3z
				 M1109,502.9c-2.4,0-5.1,0.4-5.1,2.7c0,1.4,0.9,2.1,2.1,2.1c1.6,0,2.6-1,2.9-2c0.1-0.2,0.1-0.5,0.1-0.7V502.9z"/>
			<path class="st15" d="M1117.2,493.5v3.5h3.1v1.7h-3.1v6.5c0,1.5,0.4,2.3,1.6,2.3c0.6,0,1-0.1,1.3-0.1l0.1,1.6
				c-0.4,0.2-1.1,0.3-1.9,0.3c-1,0-1.8-0.3-2.4-0.9c-0.6-0.6-0.8-1.7-0.8-3.1v-6.6h-1.9V497h1.9v-2.9L1117.2,493.5z"/>
			<path class="st15" d="M1125.3,493.6c0,0.8-0.5,1.3-1.4,1.3c-0.8,0-1.3-0.6-1.3-1.3c0-0.8,0.6-1.4,1.4-1.4
				C1124.7,492.2,1125.3,492.8,1125.3,493.6z M1122.8,509.1V497h2.2v12.1H1122.8z"/>
			<path class="st15" d="M1139.6,502.9c0,4.5-3.1,6.4-6,6.4c-3.3,0-5.8-2.4-5.8-6.2c0-4,2.6-6.4,6-6.4
				C1137.3,496.7,1139.6,499.2,1139.6,502.9z M1130,503c0,2.6,1.5,4.6,3.7,4.6c2.1,0,3.7-2,3.7-4.7c0-2-1-4.6-3.6-4.6
				S1130,500.7,1130,503z"/>
			<path class="st15" d="M1142.4,500.2c0-1.2,0-2.3-0.1-3.3h1.9l0.1,2h0c0.6-1.1,2-2.3,4-2.3c1.7,0,4.3,1,4.3,5.1v7.2h-2.2v-7
				c0-1.9-0.7-3.6-2.8-3.6c-1.4,0-2.6,1-2.9,2.3c-0.1,0.3-0.2,0.6-0.2,1v7.3h-2.2V500.2z"/>
		</g>
	</g>
	<g>
		<g>
			<path class="st15" d="M1053.8,83.9c-1,0.5-3.1,1-5.7,1c-7.1,0-11.4-4.4-11.4-11.2c0-7.3,5.1-11.8,11.9-11.8c2.7,0,4.6,0.6,5.4,1
				l-0.9,3.2c-1.1-0.5-2.5-0.9-4.4-0.9c-4.5,0-7.8,2.8-7.8,8.2c0,4.9,2.9,8,7.8,8c1.7,0,3.4-0.3,4.4-0.8L1053.8,83.9z"/>
			<path class="st15" d="M1071.8,76.4c0,5.9-4.2,8.5-8.3,8.5c-4.6,0-8.1-3.1-8.1-8.3c0-5.3,3.5-8.5,8.3-8.5
				C1068.6,68.2,1071.8,71.5,1071.8,76.4z M1059.7,76.6c0,3.1,1.5,5.4,4,5.4c2.3,0,3.9-2.3,3.9-5.5c0-2.5-1.1-5.4-3.9-5.4
				C1060.9,71.1,1059.7,73.9,1059.7,76.6z"/>
			<path class="st15" d="M1075.2,73.3c0-1.8,0-3.4-0.1-4.8h3.6l0.2,2.4h0.1c0.7-1.3,2.4-2.8,5.1-2.8c2.8,0,5.7,1.8,5.7,6.9v9.5h-4.1
				v-9.1c0-2.3-0.9-4.1-3.1-4.1c-1.6,0-2.7,1.2-3.2,2.4c-0.1,0.4-0.2,0.9-0.2,1.3v9.4h-4.1V73.3z"/>
			<path class="st15" d="M1098.5,63.9v4.6h3.9v3h-3.9v7.1c0,1.9,0.5,3,2.1,3c0.7,0,1.2-0.1,1.6-0.2l0.1,3.1
				c-0.6,0.2-1.7,0.4-2.9,0.4c-1.5,0-2.7-0.5-3.5-1.3c-0.9-0.9-1.3-2.4-1.3-4.5v-7.6h-2.3v-3h2.3v-3.6L1098.5,63.9z"/>
			<path class="st15" d="M1108.1,77.7c0.1,2.9,2.4,4.2,5,4.2c1.9,0,3.2-0.3,4.5-0.7l0.6,2.8c-1.4,0.6-3.3,1-5.6,1
				c-5.2,0-8.3-3.2-8.3-8.1c0-4.5,2.7-8.6,7.9-8.6c5.2,0,6.9,4.3,6.9,7.8c0,0.8-0.1,1.4-0.1,1.7H1108.1z M1115.2,74.9
				c0-1.5-0.6-3.9-3.3-3.9c-2.5,0-3.6,2.3-3.7,3.9H1115.2z"/>
			<path class="st15" d="M1122.3,73.3c0-1.8,0-3.4-0.1-4.8h3.6l0.2,2.4h0.1c0.7-1.3,2.4-2.8,5.1-2.8c2.8,0,5.7,1.8,5.7,6.9v9.5h-4.1
				v-9.1c0-2.3-0.9-4.1-3.1-4.1c-1.6,0-2.7,1.2-3.2,2.4c-0.1,0.4-0.2,0.9-0.2,1.3v9.4h-4.1V73.3z"/>
			<path class="st15" d="M1145.7,63.9v4.6h3.9v3h-3.9v7.1c0,1.9,0.5,3,2.1,3c0.7,0,1.2-0.1,1.6-0.2l0.1,3.1
				c-0.6,0.2-1.7,0.4-2.9,0.4c-1.5,0-2.7-0.5-3.5-1.3c-0.9-0.9-1.3-2.4-1.3-4.5v-7.6h-2.3v-3h2.3v-3.6L1145.7,63.9z"/>
			<path class="st15" d="M1052.5,94.2v18.9c0,1.7,0.1,3.4,0.1,4.5h-3.6l-0.2-2.5h-0.1c-1,1.8-2.9,2.9-5.2,2.9
				c-3.8,0-6.9-3.3-6.9-8.2c0-5.4,3.3-8.6,7.2-8.6c2.2,0,3.8,0.9,4.5,2.1h0.1v-9.1H1052.5z M1048.4,108.2c0-0.3,0-0.7-0.1-1.1
				c-0.4-1.6-1.7-2.9-3.5-2.9c-2.6,0-4.1,2.3-4.1,5.3c0,2.9,1.5,5.1,4,5.1c1.7,0,3.1-1.1,3.5-2.9c0.1-0.4,0.1-0.8,0.1-1.2V108.2z"/>
			<path class="st15" d="M1061.2,97c0,1.2-0.9,2.2-2.3,2.2c-1.4,0-2.2-1-2.2-2.2c0-1.3,0.9-2.2,2.3-2.2
				C1060.3,94.8,1061.1,95.8,1061.2,97z M1056.9,117.6v-16.1h4.1v16.1H1056.9z"/>
			<path class="st15" d="M1065.1,113.9c0.9,0.6,2.7,1.2,4.1,1.2c1.8,0,2.6-0.7,2.6-1.8c0-1.1-0.7-1.7-2.6-2.3
				c-3.1-1.1-4.5-2.8-4.4-4.7c0-2.8,2.3-5,6.1-5c1.8,0,3.3,0.5,4.3,1l-0.8,2.9c-0.7-0.4-2-0.9-3.4-0.9c-1.5,0-2.2,0.7-2.2,1.7
				c0,1,0.8,1.5,2.8,2.2c2.9,1.1,4.3,2.5,4.3,4.9c0,2.9-2.3,5-6.5,5c-1.9,0-3.7-0.5-4.9-1.1L1065.1,113.9z"/>
			<path class="st15" d="M1090.9,117.1c-0.9,0.4-2.5,0.8-4.6,0.8c-5,0-8.3-3.2-8.3-8.2c0-4.8,3.3-8.6,8.9-8.6c1.5,0,3,0.3,3.9,0.8
				l-0.7,3c-0.7-0.3-1.6-0.6-3.1-0.6c-3.1,0-5,2.3-4.9,5.2c0,3.3,2.1,5.2,4.9,5.2c1.4,0,2.4-0.3,3.2-0.6L1090.9,117.1z"/>
			<path class="st15" d="M1108.9,109.4c0,5.9-4.2,8.5-8.3,8.5c-4.6,0-8.1-3.1-8.1-8.3c0-5.3,3.5-8.5,8.3-8.5
				C1105.7,101.2,1108.9,104.5,1108.9,109.4z M1096.8,109.6c0,3.1,1.5,5.4,4,5.4c2.3,0,3.9-2.3,3.9-5.5c0-2.5-1.1-5.4-3.9-5.4
				C1097.9,104.1,1096.8,106.9,1096.8,109.6z"/>
			<path class="st15" d="M1114.5,101.5l2.6,8.2c0.5,1.4,0.8,2.7,1.1,4h0.1c0.3-1.3,0.7-2.6,1.1-4l2.5-8.2h4.3l-6.1,16.1h-4l-6-16.1
				H1114.5z"/>
			<path class="st15" d="M1131.1,110.7c0.1,2.9,2.4,4.2,5,4.2c1.9,0,3.2-0.3,4.5-0.7l0.6,2.8c-1.4,0.6-3.3,1-5.6,1
				c-5.2,0-8.3-3.2-8.3-8.1c0-4.5,2.7-8.6,7.9-8.6c5.2,0,6.9,4.3,6.9,7.8c0,0.8-0.1,1.4-0.1,1.7H1131.1z M1138.2,107.9
				c0-1.5-0.6-3.9-3.3-3.9c-2.5,0-3.6,2.3-3.7,3.9H1138.2z"/>
			<path class="st15" d="M1145.3,106.7c0-2.2,0-3.7-0.1-5.2h3.5l0.1,3.1h0.1c0.8-2.3,2.7-3.4,4.4-3.4c0.4,0,0.6,0,1,0.1v3.8
				c-0.3-0.1-0.7-0.1-1.2-0.1c-1.9,0-3.3,1.3-3.6,3.1c-0.1,0.4-0.1,0.8-0.1,1.3v8.3h-4.1V106.7z"/>
			<path class="st15" d="M1160.3,101.5l2.9,8.6c0.3,1,0.7,2.2,0.9,3.1h0.1c0.3-0.9,0.6-2.1,0.9-3.2l2.5-8.6h4.4l-4,11
				c-2.2,6-3.7,8.7-5.6,10.3c-1.6,1.4-3.2,1.9-4.3,2.1l-0.9-3.4c0.7-0.2,1.6-0.5,2.4-1.1c0.8-0.5,1.7-1.5,2.2-2.5
				c0.2-0.3,0.3-0.5,0.3-0.7c0-0.2,0-0.4-0.2-0.8l-5.9-14.8H1160.3z"/>
		</g>
	</g>
	<g>
		<g>
			<path class="st20" d="M603.1,73.2c0,7.5-4.5,11.7-10.7,11.7c-6.3,0-10.2-4.8-10.2-11.3c0-6.8,4.3-11.7,10.6-11.7
				C599.3,62,603.1,66.9,603.1,73.2z M586.5,73.6c0,4.5,2.3,8.1,6.2,8.1c3.9,0,6.1-3.6,6.1-8.3c0-4.2-2.1-8.2-6.1-8.2
				C588.6,65.2,586.5,69,586.5,73.6z"/>
			<path class="st20" d="M606.5,73.3c0-1.8,0-3.4-0.1-4.8h3.5l0.2,2.4h0.1c0.8-1.3,2.2-2.7,5-2.7c2.1,0,3.8,1.2,4.5,3h0.1
				c0.6-0.9,1.2-1.6,2-2c0.9-0.6,1.9-1,3.2-1c2.7,0,5.4,1.8,5.4,7v9.5h-4v-8.9c0-2.7-0.9-4.3-2.9-4.3c-1.4,0-2.4,1-2.8,2.1
				c-0.1,0.4-0.2,0.9-0.2,1.4v9.6h-4v-9.3c0-2.2-0.9-3.8-2.8-3.8c-1.5,0-2.5,1.2-2.9,2.3c-0.2,0.4-0.2,0.9-0.2,1.3v9.5h-4V73.3z"/>
			<path class="st20" d="M634.5,73.3c0-1.8,0-3.4-0.1-4.8h3.6l0.2,2.4h0.1c0.7-1.3,2.4-2.8,5.1-2.8c2.8,0,5.7,1.8,5.7,6.9v9.5H645
				v-9.1c0-2.3-0.9-4.1-3.1-4.1c-1.6,0-2.7,1.2-3.2,2.4c-0.1,0.4-0.2,0.9-0.2,1.3v9.4h-4.1V73.3z"/>
			<path class="st20" d="M657.7,64c0,1.2-0.9,2.2-2.3,2.2c-1.4,0-2.2-1-2.2-2.2c0-1.3,0.9-2.2,2.3-2.2
				C656.8,61.8,657.7,62.8,657.7,64z M653.4,84.6V68.5h4.1v16.1H653.4z"/>
			<path class="st20" d="M669,74.4v2.8h-8.4v-2.8H669z"/>
			<path class="st20" d="M684.6,84.1c-0.9,0.4-2.5,0.8-4.6,0.8c-5,0-8.3-3.2-8.3-8.2c0-4.8,3.3-8.6,8.9-8.6c1.5,0,3,0.3,3.9,0.8
				l-0.7,3c-0.7-0.3-1.6-0.6-3.1-0.6c-3.1,0-5,2.3-4.9,5.2c0,3.3,2.1,5.2,4.9,5.2c1.4,0,2.4-0.3,3.2-0.6L684.6,84.1z"/>
			<path class="st20" d="M687.6,61.2h4.1v9.6h0.1c0.5-0.8,1.2-1.4,2-1.8c0.8-0.5,1.7-0.7,2.8-0.7c2.7,0,5.6,1.8,5.6,7v9.5h-4.1v-9
				c0-2.3-0.9-4.1-3.1-4.1c-1.6,0-2.7,1.1-3.1,2.3c-0.1,0.3-0.2,0.8-0.2,1.2v9.6h-4.1V61.2z"/>
			<path class="st20" d="M715.5,84.6l-0.3-1.8h-0.1c-1,1.3-2.7,2.1-4.8,2.1c-3.2,0-5-2.3-5-4.8c0-4.1,3.6-6.1,9.5-6.1v-0.3
				c0-1.1-0.4-2.8-3.3-2.8c-1.6,0-3.2,0.5-4.3,1.2l-0.8-2.6c1.2-0.7,3.3-1.4,5.8-1.4c5.1,0,6.6,3.3,6.6,6.8v5.8
				c0,1.5,0.1,2.9,0.2,3.9H715.5z M715,76.7c-2.9-0.1-5.6,0.6-5.6,3c0,1.6,1,2.3,2.3,2.3c1.6,0,2.8-1.1,3.2-2.2
				c0.1-0.3,0.1-0.6,0.1-0.9V76.7z"/>
			<path class="st20" d="M723.2,73.3c0-1.8,0-3.4-0.1-4.8h3.6l0.2,2.4h0.1c0.7-1.3,2.4-2.8,5.1-2.8c2.8,0,5.7,1.8,5.7,6.9v9.5h-4.1
				v-9.1c0-2.3-0.9-4.1-3.1-4.1c-1.6,0-2.7,1.2-3.2,2.4c-0.1,0.4-0.2,0.9-0.2,1.3v9.4h-4.1V73.3z"/>
			<path class="st20" d="M742.1,73.3c0-1.8,0-3.4-0.1-4.8h3.6l0.2,2.4h0.1c0.7-1.3,2.4-2.8,5.1-2.8c2.8,0,5.7,1.8,5.7,6.9v9.5h-4.1
				v-9.1c0-2.3-0.9-4.1-3.1-4.1c-1.6,0-2.7,1.2-3.2,2.4c-0.1,0.4-0.2,0.9-0.2,1.3v9.4h-4.1V73.3z"/>
			<path class="st20" d="M763.9,77.7c0.1,2.9,2.4,4.2,5,4.2c1.9,0,3.2-0.3,4.5-0.7l0.6,2.8c-1.4,0.6-3.3,1-5.6,1
				c-5.2,0-8.3-3.2-8.3-8.1c0-4.5,2.7-8.6,7.9-8.6c5.2,0,6.9,4.3,6.9,7.8c0,0.8-0.1,1.4-0.1,1.7H763.9z M770.9,74.9
				c0-1.5-0.6-3.9-3.3-3.9c-2.5,0-3.6,2.3-3.7,3.9H770.9z"/>
			<path class="st20" d="M778,61.2h4.1v23.4H778V61.2z"/>
			<path class="st20" d="M598,94.2v18.9c0,1.7,0.1,3.4,0.1,4.5h-3.6l-0.2-2.5h-0.1c-1,1.8-2.9,2.9-5.2,2.9c-3.8,0-6.9-3.3-6.9-8.2
				c0-5.4,3.3-8.6,7.2-8.6c2.2,0,3.8,0.9,4.5,2.1h0.1v-9.1H598z M593.9,108.2c0-0.3,0-0.7-0.1-1.1c-0.4-1.6-1.7-2.9-3.5-2.9
				c-2.6,0-4.1,2.3-4.1,5.3c0,2.9,1.5,5.1,4,5.1c1.7,0,3.1-1.1,3.5-2.9c0.1-0.4,0.1-0.8,0.1-1.2V108.2z"/>
			<path class="st20" d="M605.2,110.7c0.1,2.9,2.4,4.2,5,4.2c1.9,0,3.2-0.3,4.5-0.7l0.6,2.8c-1.4,0.6-3.3,1-5.6,1
				c-5.2,0-8.3-3.2-8.3-8.1c0-4.5,2.7-8.6,7.9-8.6c5.2,0,6.9,4.3,6.9,7.8c0,0.8-0.1,1.4-0.1,1.7H605.2z M612.3,107.9
				c0-1.5-0.6-3.9-3.3-3.9c-2.5,0-3.6,2.3-3.7,3.9H612.3z"/>
			<path class="st20" d="M619.4,94.2h4.1v23.4h-4.1V94.2z"/>
			<path class="st20" d="M632.2,97c0,1.2-0.9,2.2-2.3,2.2c-1.4,0-2.2-1-2.2-2.2c0-1.3,0.9-2.2,2.3-2.2
				C631.3,94.8,632.2,95.8,632.2,97z M627.9,117.6v-16.1h4.1v16.1H627.9z"/>
			<path class="st20" d="M638.9,101.5l2.6,8.2c0.5,1.4,0.8,2.7,1.1,4h0.1c0.3-1.3,0.7-2.6,1.1-4l2.5-8.2h4.3l-6.1,16.1h-4l-6-16.1
				H638.9z"/>
			<path class="st20" d="M655.5,110.7c0.1,2.9,2.4,4.2,5,4.2c1.9,0,3.2-0.3,4.5-0.7l0.6,2.8c-1.4,0.6-3.3,1-5.6,1
				c-5.2,0-8.3-3.2-8.3-8.1c0-4.5,2.7-8.6,7.9-8.6c5.2,0,6.9,4.3,6.9,7.8c0,0.8-0.1,1.4-0.1,1.7H655.5z M662.6,107.9
				c0-1.5-0.6-3.9-3.3-3.9c-2.5,0-3.6,2.3-3.7,3.9H662.6z"/>
			<path class="st20" d="M669.7,106.7c0-2.2,0-3.7-0.1-5.2h3.5l0.1,3.1h0.1c0.8-2.3,2.7-3.4,4.4-3.4c0.4,0,0.6,0,1,0.1v3.8
				c-0.3-0.1-0.7-0.1-1.2-0.1c-1.9,0-3.3,1.3-3.6,3.1c-0.1,0.4-0.1,0.8-0.1,1.3v8.3h-4.1V106.7z"/>
			<path class="st20" d="M684.7,101.5l2.9,8.6c0.3,1,0.7,2.2,0.9,3.1h0.1c0.3-0.9,0.6-2.1,0.9-3.2l2.5-8.6h4.4l-4,11
				c-2.2,6-3.7,8.7-5.6,10.3c-1.6,1.4-3.2,1.9-4.3,2.1l-0.9-3.4c0.7-0.2,1.6-0.5,2.4-1.1c0.8-0.5,1.7-1.5,2.2-2.5
				c0.2-0.3,0.3-0.5,0.3-0.7c0-0.2,0-0.4-0.2-0.8l-5.9-14.8H684.7z"/>
		</g>
	</g>
	<g>
		<g>
			<path class="st15" d="M159,65.7h-6.3v-3.4h16.8v3.4H163v18.8H159V65.7z"/>
			<path class="st15" d="M184.6,76.4c0,5.9-4.2,8.5-8.3,8.5c-4.6,0-8.1-3.1-8.1-8.3c0-5.3,3.5-8.5,8.3-8.5
				C181.4,68.2,184.6,71.5,184.6,76.4z M172.5,76.6c0,3.1,1.5,5.4,4,5.4c2.3,0,3.9-2.3,3.9-5.5c0-2.5-1.1-5.4-3.9-5.4
				C173.7,71.1,172.5,73.9,172.5,76.6z"/>
			<path class="st15" d="M203.2,76.4c0,5.9-4.2,8.5-8.3,8.5c-4.6,0-8.1-3.1-8.1-8.3c0-5.3,3.5-8.5,8.3-8.5
				C200,68.2,203.2,71.5,203.2,76.4z M191.1,76.6c0,3.1,1.5,5.4,4,5.4c2.3,0,3.9-2.3,3.9-5.5c0-2.5-1.1-5.4-3.9-5.4
				C192.3,71.1,191.1,73.9,191.1,76.6z"/>
			<path class="st15" d="M206.6,61.2h4.1v23.4h-4.1V61.2z"/>
			<path class="st15" d="M214.9,80.9c0.9,0.6,2.7,1.2,4.1,1.2c1.8,0,2.6-0.7,2.6-1.8c0-1.1-0.7-1.7-2.6-2.3
				c-3.1-1.1-4.5-2.8-4.4-4.7c0-2.8,2.3-5,6.1-5c1.8,0,3.3,0.5,4.3,1L224,72c-0.7-0.4-2-0.9-3.4-0.9c-1.5,0-2.2,0.7-2.2,1.7
				c0,1,0.8,1.5,2.8,2.2c2.9,1.1,4.3,2.5,4.3,4.9c0,2.9-2.3,5-6.5,5c-1.9,0-3.7-0.5-4.9-1.1L214.9,80.9z"/>
			<path class="st15" d="M244.7,84.6l-0.3-1.8h-0.1c-1,1.3-2.7,2.1-4.8,2.1c-3.2,0-5-2.3-5-4.8c0-4.1,3.6-6.1,9.5-6.1v-0.3
				c0-1.1-0.4-2.8-3.3-2.8c-1.6,0-3.2,0.5-4.3,1.2l-0.8-2.6c1.2-0.7,3.3-1.4,5.8-1.4c5.1,0,6.6,3.3,6.6,6.8v5.8
				c0,1.5,0.1,2.9,0.2,3.9H244.7z M244.2,76.7c-2.9-0.1-5.6,0.6-5.6,3c0,1.6,1,2.3,2.3,2.3c1.6,0,2.8-1.1,3.2-2.2
				c0.1-0.3,0.1-0.6,0.1-0.9V76.7z"/>
			<path class="st15" d="M252.4,73.3c0-1.8,0-3.4-0.1-4.8h3.6l0.2,2.4h0.1c0.7-1.3,2.4-2.8,5.1-2.8c2.8,0,5.7,1.8,5.7,6.9v9.5h-4.1
				v-9.1c0-2.3-0.9-4.1-3.1-4.1c-1.6,0-2.7,1.2-3.2,2.4c-0.1,0.4-0.2,0.9-0.2,1.3v9.4h-4.1V73.3z"/>
			<path class="st15" d="M286.1,61.2v18.9c0,1.7,0.1,3.4,0.1,4.5h-3.6l-0.2-2.5h-0.1c-1,1.8-2.9,2.9-5.2,2.9c-3.8,0-6.9-3.3-6.9-8.2
				c0-5.4,3.3-8.6,7.2-8.6c2.2,0,3.8,0.9,4.5,2.1h0.1v-9.1H286.1z M282,75.2c0-0.3,0-0.7-0.1-1.1c-0.4-1.6-1.7-2.9-3.5-2.9
				c-2.6,0-4.1,2.3-4.1,5.3c0,2.9,1.5,5.1,4,5.1c1.7,0,3.1-1.1,3.5-2.9c0.1-0.4,0.1-0.8,0.1-1.2V75.2z"/>
			<path class="st15" d="M159.2,96.9v4.6h3.9v3h-3.9v7.1c0,1.9,0.5,3,2.1,3c0.7,0,1.2-0.1,1.6-0.2l0.1,3.1c-0.6,0.2-1.7,0.4-2.9,0.4
				c-1.5,0-2.7-0.5-3.5-1.3c-0.9-0.9-1.3-2.4-1.3-4.5v-7.6h-2.3v-3h2.3v-3.6L159.2,96.9z"/>
			<path class="st15" d="M168.8,110.7c0.1,2.9,2.4,4.2,5,4.2c1.9,0,3.2-0.3,4.5-0.7l0.6,2.8c-1.4,0.6-3.3,1-5.6,1
				c-5.2,0-8.3-3.2-8.3-8.1c0-4.5,2.7-8.6,7.9-8.6c5.2,0,6.9,4.3,6.9,7.8c0,0.8-0.1,1.4-0.1,1.7H168.8z M175.9,107.9
				c0-1.5-0.6-3.9-3.3-3.9c-2.5,0-3.6,2.3-3.7,3.9H175.9z"/>
			<path class="st15" d="M194.8,117.1c-0.9,0.4-2.5,0.8-4.6,0.8c-5,0-8.3-3.2-8.3-8.2c0-4.8,3.3-8.6,8.9-8.6c1.5,0,3,0.3,3.9,0.8
				l-0.7,3c-0.7-0.3-1.6-0.6-3.1-0.6c-3.1,0-5,2.3-4.9,5.2c0,3.3,2.1,5.2,4.9,5.2c1.4,0,2.4-0.3,3.2-0.6L194.8,117.1z"/>
			<path class="st15" d="M197.8,94.2h4.1v9.6h0.1c0.5-0.8,1.2-1.4,2-1.8c0.8-0.5,1.7-0.7,2.8-0.7c2.7,0,5.6,1.8,5.6,7v9.5h-4.1v-9
				c0-2.3-0.9-4.1-3.1-4.1c-1.6,0-2.7,1.1-3.1,2.3c-0.1,0.3-0.2,0.8-0.2,1.2v9.6h-4.1V94.2z"/>
			<path class="st15" d="M216.7,106.3c0-1.8,0-3.4-0.1-4.8h3.6l0.2,2.4h0.1c0.7-1.3,2.4-2.8,5.1-2.8c2.8,0,5.7,1.8,5.7,6.9v9.5h-4.1
				v-9.1c0-2.3-0.9-4.1-3.1-4.1c-1.6,0-2.7,1.2-3.2,2.4c-0.1,0.4-0.2,0.9-0.2,1.3v9.4h-4.1V106.3z"/>
			<path class="st15" d="M250.8,109.4c0,5.9-4.2,8.5-8.3,8.5c-4.6,0-8.1-3.1-8.1-8.3c0-5.3,3.5-8.5,8.3-8.5
				C247.6,101.2,250.8,104.5,250.8,109.4z M238.7,109.6c0,3.1,1.5,5.4,4,5.4c2.3,0,3.9-2.3,3.9-5.5c0-2.5-1.1-5.4-3.9-5.4
				C239.9,104.1,238.7,106.9,238.7,109.6z"/>
			<path class="st15" d="M254.2,94.2h4.1v23.4h-4.1V94.2z"/>
			<path class="st15" d="M277.9,109.4c0,5.9-4.2,8.5-8.3,8.5c-4.6,0-8.1-3.1-8.1-8.3c0-5.3,3.5-8.5,8.3-8.5
				C274.7,101.2,277.9,104.5,277.9,109.4z M265.8,109.6c0,3.1,1.5,5.4,4,5.4c2.3,0,3.9-2.3,3.9-5.5c0-2.5-1.1-5.4-3.9-5.4
				C267,104.1,265.8,106.9,265.8,109.6z"/>
			<path class="st15" d="M295.9,101.5c-0.1,1.1-0.1,2.4-0.1,4.6v9.1c0,3.4-0.7,5.8-2.4,7.3c-1.7,1.5-4,1.9-6.2,1.9
				c-2,0-4.2-0.4-5.6-1.3l0.9-3.1c1,0.6,2.7,1.2,4.7,1.2c2.6,0,4.6-1.4,4.6-4.9v-1.4h-0.1c-0.9,1.4-2.6,2.4-4.7,2.4
				c-4,0-6.8-3.3-6.8-7.9c0-5.3,3.4-8.5,7.3-8.5c2.4,0,3.9,1.2,4.7,2.5h0.1l0.2-2.1H295.9z M291.7,107.9c0-0.4,0-0.8-0.1-1.1
				c-0.4-1.5-1.6-2.6-3.3-2.6c-2.3,0-4,2-4,5.2c0,2.7,1.4,5,3.9,5c1.5,0,2.8-1,3.3-2.4c0.1-0.4,0.2-1,0.2-1.5V107.9z"/>
			<path class="st15" d="M302.7,101.5l2.9,8.6c0.3,1,0.7,2.2,0.9,3.1h0.1c0.3-0.9,0.6-2.1,0.9-3.2l2.5-8.6h4.4l-4,11
				c-2.2,6-3.7,8.7-5.6,10.3c-1.6,1.4-3.2,1.9-4.3,2.1l-0.9-3.4c0.7-0.2,1.6-0.5,2.4-1.1c0.8-0.5,1.7-1.5,2.2-2.5
				c0.2-0.3,0.3-0.5,0.3-0.7c0-0.2,0-0.4-0.2-0.8l-5.9-14.8H302.7z"/>
		</g>
	</g>
	<g>
		<g>
			<line class="st18" x1="88.7" y1="61.9" x2="88.7" y2="51.9"/>
			<line class="st18" x1="74" y1="61.9" x2="74" y2="51.9"/>
			<line class="st18" x1="88.7" y1="130.9" x2="88.7" y2="120.9"/>
			<line class="st18" x1="74" y1="130.9" x2="74" y2="120.9"/>
			<line class="st18" x1="103.4" y1="130.9" x2="103.4" y2="120.9"/>
			<line class="st18" x1="59.2" y1="91.4" x2="49.2" y2="91.4"/>
			<line class="st18" x1="59.2" y1="106.1" x2="49.2" y2="106.1"/>
			<line class="st18" x1="59.2" y1="76.7" x2="49.2" y2="76.7"/>
			<line class="st18" x1="128.2" y1="91.4" x2="118.2" y2="91.4"/>
			<line class="st18" x1="128.2" y1="106.1" x2="118.2" y2="106.1"/>
			<line class="st18" x1="128.2" y1="76.7" x2="118.2" y2="76.7"/>
			<g>
				<g>
					<polyline class="st18" points="118.2,70 118.2,120.9 59.2,120.9 59.2,61.4 100.7,61.4 					"/>
					<g>
						<polygon class="st15" points="112.2,71.7 118.2,61.4 124.2,71.7 						"/>
					</g>
				</g>
			</g>
			<circle class="st18" cx="104.7" cy="61.4" r="4.5"/>
		</g>
	</g>
	<g>
		<g>
			<g id="XMLID_444_">
			</g>
			<g>
				<g id="XMLID_442_">
					<path class="st18" d="M966.4,91.3L966.4,91.3c-11.3,6.7-11.3,23.2,0,29.9c11.6,6.9,26.3-1.4,26.3-15
						C992.8,92.7,978,84.3,966.4,91.3z"/>
				</g>
				<g>
					<line class="st18" x1="989" y1="117" x2="1003.6" y2="131.5"/>
				</g>
			</g>
			<g id="XMLID_240_">
				<g>
					<polyline class="st18" points="1003,113.5 1003,51.3 959.5,51.3 944.8,65.5 944.8,130.2 991.6,130.2 					"/>
					<g>
						<polygon class="st15" points="1009,111.8 1003,122.1 997,111.8 						"/>
					</g>
				</g>
			</g>
			<g>
				<polyline class="st18" points="959.8,52.6 959.8,65.8 945.8,65.8 				"/>
			</g>
		</g>
	</g>
	<circle class="st17" cx="49.5" cy="231.4" r="4.5"/>
	<circle class="st17" cx="49.5" cy="313.8" r="4.5"/>
	<circle class="st17" cx="49.5" cy="396.3" r="4.5"/>
	<circle class="st26" cx="497" cy="231.4" r="4.5"/>
	<circle class="st26" cx="497" cy="282.7" r="4.5"/>
	<circle class="st26" cx="497" cy="333.9" r="4.5"/>
	<circle class="st26" cx="497" cy="388.6" r="4.5"/>
	<circle class="st26" cx="497" cy="443.2" r="4.5"/>
	<circle class="st26" cx="497" cy="522.8" r="4.5"/>
	<circle class="st17" cx="945.9" cy="228.4" r="4.5"/>
	<circle class="st17" cx="945.9" cy="279.7" r="4.5"/>
	<circle class="st17" cx="945.9" cy="367.1" r="4.5"/>
	<circle class="st17" cx="945.9" cy="420.2" r="4.5"/>
	<circle class="st17" cx="945.9" cy="499.8" r="4.5"/>
	<g>
		<g>
			<g>
				<g>
					<polyline class="st27" points="544,84.1 544,52.4 493,52.4 493,125.2 533.2,125.2 					"/>
					<g>
						<polygon class="st20" points="550,82.3 544,92.7 538,82.3 						"/>
					</g>
				</g>
			</g>
			<g>
				<polyline class="st27" points="536,125.3 532,125.3 523.2,90.2 514.7,90.2 				"/>
				<line class="st27" x1="555.1" y1="125.3" x2="545.2" y2="125.3"/>
				<polygon class="st27" points="535.1,115.3 559.9,115.3 565.8,95.2 530.4,95.2 				"/>
				<line class="st27" x1="533.2" y1="105.3" x2="562.9" y2="105.3"/>
				<circle class="st27" cx="558.5" cy="125.3" r="4.5"/>
				<circle class="st27" cx="540.9" cy="125.3" r="4.5"/>
			</g>
			<circle class="st27" cx="518.5" cy="113.6" r="4.5"/>
			<line class="st27" x1="493" y1="113.6" x2="514.1" y2="113.6"/>
			<line class="st27" x1="522.9" y1="113.6" x2="529.1" y2="113.6"/>
		</g>
	</g>
</g>
</svg>
