<?xml version="1.0" encoding="utf-8"?>
<!-- Generator: Adobe Illustrator 22.1.0, SVG Export Plug-In . SVG Version: 6.00 Build 0)  -->
<svg version="1.1" xmlns="http://www.w3.org/2000/svg" xmlns:xlink="http://www.w3.org/1999/xlink" x="0px" y="0px" width="350px"
	 height="350px" viewBox="0 0 350 350" style="enable-background:new 0 0 350 350;" xml:space="preserve">
<style type="text/css">
	.st0{fill:#BEE3FF;}
	.st1{fill:#FCDDD6;}
	.st2{fill:none;stroke:#92D1FF;stroke-width:2.3054;stroke-miterlimit:10;}
	.st3{fill:none;stroke:#FBC2BA;stroke-width:2.3054;stroke-miterlimit:10;}
	.st4{fill:#D8E7DA;}
	.st5{fill:none;stroke:#A8D7CD;stroke-width:2.3054;stroke-miterlimit:10;}
	.st6{fill:none;}
	.st7{fill:#F16C51;}
	.st8{fill:#FBC2BA;}
	.st9{fill:#EAC8A5;}
	.st10{fill:#ECE1CE;}
	.st11{fill:#DF9926;}
	.st12{fill:#E6DBE6;}
	.st13{fill:#D0B5D5;}
	.st14{fill:#963596;}
	.st15{display:none;}
	.st16{display:inline;}
	.st17{fill:none;stroke:#000000;stroke-width:0.1397;stroke-miterlimit:10;}
	.st18{fill:#061838;}
	.st19{fill:#4C0519;}
	.st20{fill:none;stroke:#061838;stroke-width:3;stroke-linecap:square;stroke-miterlimit:10;}
	.st21{fill:none;stroke:#061838;stroke-width:3;stroke-miterlimit:10;}
	.st22{fill:none;stroke:#4C0519;stroke-width:3;stroke-linecap:square;stroke-miterlimit:10;}
	.st23{fill:#00321D;}
	.st24{fill:none;stroke:#4C0519;stroke-width:3;stroke-miterlimit:10;}
	.st25{fill:none;stroke:#F4F0EC;stroke-width:1.5;stroke-miterlimit:10;}
	.st26{fill:#F4F0EC;}
	.st27{fill:none;stroke:#F4F0EC;stroke-width:1.5;stroke-linecap:square;stroke-miterlimit:10;}
	.st28{fill:#FFFFFF;}
	.st29{fill:none;stroke:#00321D;stroke-width:3;stroke-linecap:square;stroke-miterlimit:10;}
	.st30{fill:none;stroke:#00321D;stroke-width:3;stroke-miterlimit:10;}
</style>
<g id="Layer_3">
	<path class="st10" d="M342.9,175c0,54.5-26,103-66.2,133.6c-2,1.5-4,3-6,4.4c-27.2,18.9-60.1,29.9-95.7,29.9
		c-35.6,0-68.5-11.1-95.7-29.9c-2-1.4-4-2.9-6-4.4C33.1,278,7.1,229.5,7.1,175c0-16.8,2.5-33.1,7.1-48.4c0.7-2.4,1.5-4.7,2.3-7.1
		C39,55.2,99.6,8.7,171.3,7.1c1.2,0,2.5,0,3.7,0c1.2,0,2.5,0,3.7,0c71.7,1.6,132.3,48,154.8,112.4c0.8,2.3,1.6,4.7,2.3,7v0
		C340.4,141.9,342.9,158.2,342.9,175z"/>
	<path class="st9" d="M171.3,0v7.1C99.6,8.7,39,55.2,16.4,119.6l-6.7-2.2c5.6-16,13.5-31.2,23.5-45c10.6-14.6,23.4-27.5,37.9-38.3
		C100.4,12.5,134.9,0.8,171.3,0z"/>
	<path class="st11" d="M171.3,7.1v117.3c-19.2,1.4-35.9,13.5-43.2,31.4L16.4,119.6C39,55.2,99.6,8.7,171.3,7.1z"/>
	<path class="st9" d="M340.3,117.4l-6.7,2.2C311,55.2,250.4,8.7,178.7,7.1V0c36.3,0.7,70.9,12.5,100.1,34.1
		c14.6,10.7,27.3,23.6,37.9,38.3C326.8,86.2,334.7,101.3,340.3,117.4z"/>
	<path class="st11" d="M333.5,119.6l-111.6,36.3c-7.3-17.9-24-30-43.2-31.4V7.1C250.4,8.7,311,55.2,333.5,119.6z"/>
	<path class="st9" d="M73.3,308.6l-4.1,5.7c-20.5-15.6-37.6-35.9-49.5-58.7C6.8,230.9,0,203,0,175c0-17.2,2.5-34.2,7.4-50.5l6.7,2.2
		c-4.6,15.3-7.1,31.6-7.1,48.4C7.1,229.5,33.1,278,73.3,308.6z"/>
	<path class="st11" d="M142.3,213.7l-69,95C33.1,278,7.1,229.5,7.1,175c0-16.8,2.5-33.1,7.1-48.4l111.6,36.3c-1,3.9-1.5,8-1.5,12.1
		C124.3,189.9,131,204.1,142.3,213.7z"/>
	<path class="st9" d="M274.8,318.7C245.5,339.2,211,350,175,350c-36,0-70.4-10.8-99.8-31.3l4.2-5.7c27.1,18.9,60.1,29.9,95.7,29.9
		c35.6,0,68.5-11.1,95.7-29.9L274.8,318.7z"/>
	<path class="st11" d="M270.7,313c-27.2,18.9-60.1,29.9-95.7,29.9c-35.6,0-68.5-11.1-95.7-29.9l69-95c8,5,17.2,7.6,26.7,7.6
		c9.5,0,18.7-2.6,26.7-7.6L270.7,313z"/>
	<path class="st9" d="M350,175c0,28.1-6.8,56-19.7,80.7c-11.9,22.8-29,43.1-49.5,58.7l-4.2-5.7c40.3-30.7,66.2-79.1,66.2-133.6
		c0-16.8-2.5-33.1-7.1-48.4v0l6.7-2.2C347.5,140.8,350,157.8,350,175z"/>
	<path class="st11" d="M342.9,175c0,54.5-26,103-66.2,133.6l-69-95c11.3-9.6,18-23.8,18-38.7c0-4.1-0.5-8.1-1.5-12.1l111.6-36.3
		C340.4,141.9,342.9,158.2,342.9,175z"/>
	<path class="st10" d="M238.2,175c0,20.5-9.8,38.7-24.9,50.3c-0.7,0.6-1.5,1.1-2.3,1.6c-10.2,7.1-22.6,11.3-36,11.3
		c-13.4,0-25.8-4.2-36-11.3c-0.8-0.5-1.5-1.1-2.3-1.6c-15.1-11.5-24.9-29.8-24.9-50.3c0-6.3,0.9-12.4,2.7-18.2
		c0.3-0.9,0.6-1.8,0.9-2.7c8.5-24.2,31.3-41.7,58.2-42.3c0.5,0,0.9,0,1.4,0c0.5,0,0.9,0,1.4,0c27,0.6,49.8,18.1,58.2,42.3
		c0.3,0.9,0.6,1.8,0.9,2.7v0C237.2,162.6,238.2,168.7,238.2,175z"/>
</g>
<g id="Layer_4" class="st15">
	<g class="st16">
		<rect x="81.8" y="27.3" class="st17" width="10" height="10"/>
		<rect x="91.8" y="27.3" class="st17" width="10" height="10"/>
		<rect x="101.8" y="27.3" class="st17" width="10" height="10"/>
		<rect x="111.8" y="27.3" class="st17" width="10" height="10"/>
		<rect x="121.8" y="27.3" class="st17" width="10" height="10"/>
		<rect x="131.8" y="27.3" class="st17" width="10" height="10"/>
		<rect x="81.8" y="37.3" class="st17" width="10" height="10"/>
		<rect x="91.8" y="37.3" class="st17" width="10" height="10"/>
		<rect x="101.8" y="37.3" class="st17" width="10" height="10"/>
		<rect x="111.8" y="37.3" class="st17" width="10" height="10"/>
		<rect x="121.8" y="37.3" class="st17" width="10" height="10"/>
		<rect x="131.8" y="37.3" class="st17" width="10" height="10"/>
		<rect x="81.8" y="47.3" class="st17" width="10" height="10"/>
		<rect x="91.8" y="47.3" class="st17" width="10" height="10"/>
		<rect x="101.8" y="47.3" class="st17" width="10" height="10"/>
		<rect x="111.8" y="47.3" class="st17" width="10" height="10"/>
		<rect x="121.8" y="47.3" class="st17" width="10" height="10"/>
		<rect x="131.8" y="47.3" class="st17" width="10" height="10"/>
		<rect x="81.8" y="57.3" class="st17" width="10" height="10"/>
		<rect x="91.8" y="57.3" class="st17" width="10" height="10"/>
		<rect x="101.8" y="57.3" class="st17" width="10" height="10"/>
		<rect x="111.8" y="57.3" class="st17" width="10" height="10"/>
		<rect x="121.8" y="57.3" class="st17" width="10" height="10"/>
		<rect x="131.8" y="57.3" class="st17" width="10" height="10"/>
		<rect x="81.8" y="67.3" class="st17" width="10" height="10"/>
		<rect x="91.8" y="67.3" class="st17" width="10" height="10"/>
		<rect x="101.8" y="67.3" class="st17" width="10" height="10"/>
		<rect x="111.8" y="67.3" class="st17" width="10" height="10"/>
		<rect x="121.8" y="67.3" class="st17" width="10" height="10"/>
		<rect x="131.8" y="67.3" class="st17" width="10" height="10"/>
		<rect x="81.8" y="77.3" class="st17" width="10" height="10"/>
		<rect x="91.8" y="77.3" class="st17" width="10" height="10"/>
		<rect x="101.8" y="77.3" class="st17" width="10" height="10"/>
		<rect x="111.8" y="77.3" class="st17" width="10" height="10"/>
		<rect x="121.8" y="77.3" class="st17" width="10" height="10"/>
		<rect x="131.8" y="77.3" class="st17" width="10" height="10"/>
		<rect x="81.8" y="87.3" class="st17" width="10" height="10"/>
		<rect x="91.8" y="87.3" class="st17" width="10" height="10"/>
		<rect x="101.8" y="87.3" class="st17" width="10" height="10"/>
		<rect x="111.8" y="87.3" class="st17" width="10" height="10"/>
		<rect x="121.8" y="87.3" class="st17" width="10" height="10"/>
		<rect x="131.8" y="87.3" class="st17" width="10" height="10"/>
	</g>
	<g class="st16">
		<rect x="207" y="27.3" class="st17" width="10" height="10"/>
		<rect x="217" y="27.3" class="st17" width="10" height="10"/>
		<rect x="227" y="27.3" class="st17" width="10" height="10"/>
		<rect x="237" y="27.3" class="st17" width="10" height="10"/>
		<rect x="247" y="27.3" class="st17" width="10" height="10"/>
		<rect x="257" y="27.3" class="st17" width="10" height="10"/>
		<rect x="207" y="37.3" class="st17" width="10" height="10"/>
		<rect x="217" y="37.3" class="st17" width="10" height="10"/>
		<rect x="227" y="37.3" class="st17" width="10" height="10"/>
		<rect x="237" y="37.3" class="st17" width="10" height="10"/>
		<rect x="247" y="37.3" class="st17" width="10" height="10"/>
		<rect x="257" y="37.3" class="st17" width="10" height="10"/>
		<rect x="207" y="47.3" class="st17" width="10" height="10"/>
		<rect x="217" y="47.3" class="st17" width="10" height="10"/>
		<rect x="227" y="47.3" class="st17" width="10" height="10"/>
		<rect x="237" y="47.3" class="st17" width="10" height="10"/>
		<rect x="247" y="47.3" class="st17" width="10" height="10"/>
		<rect x="257" y="47.3" class="st17" width="10" height="10"/>
		<rect x="207" y="57.3" class="st17" width="10" height="10"/>
		<rect x="217" y="57.3" class="st17" width="10" height="10"/>
		<rect x="227" y="57.3" class="st17" width="10" height="10"/>
		<rect x="237" y="57.3" class="st17" width="10" height="10"/>
		<rect x="247" y="57.3" class="st17" width="10" height="10"/>
		<rect x="257" y="57.3" class="st17" width="10" height="10"/>
		<rect x="207" y="67.3" class="st17" width="10" height="10"/>
		<rect x="217" y="67.3" class="st17" width="10" height="10"/>
		<rect x="227" y="67.3" class="st17" width="10" height="10"/>
		<rect x="237" y="67.3" class="st17" width="10" height="10"/>
		<rect x="247" y="67.3" class="st17" width="10" height="10"/>
		<rect x="257" y="67.3" class="st17" width="10" height="10"/>
		<rect x="207" y="77.3" class="st17" width="10" height="10"/>
		<rect x="217" y="77.3" class="st17" width="10" height="10"/>
		<rect x="227" y="77.3" class="st17" width="10" height="10"/>
		<rect x="237" y="77.3" class="st17" width="10" height="10"/>
		<rect x="247" y="77.3" class="st17" width="10" height="10"/>
		<rect x="257" y="77.3" class="st17" width="10" height="10"/>
		<rect x="207" y="87.3" class="st17" width="10" height="10"/>
		<rect x="217" y="87.3" class="st17" width="10" height="10"/>
		<rect x="227" y="87.3" class="st17" width="10" height="10"/>
		<rect x="237" y="87.3" class="st17" width="10" height="10"/>
		<rect x="247" y="87.3" class="st17" width="10" height="10"/>
		<rect x="257" y="87.3" class="st17" width="10" height="10"/>
	</g>
	<g class="st16">
		<rect x="38.6" y="157.6" class="st17" width="10" height="10"/>
		<rect x="48.6" y="157.6" class="st17" width="10" height="10"/>
		<rect x="58.6" y="157.6" class="st17" width="10" height="10"/>
		<rect x="68.6" y="157.6" class="st17" width="10" height="10"/>
		<rect x="78.6" y="157.6" class="st17" width="10" height="10"/>
		<rect x="88.6" y="157.6" class="st17" width="10" height="10"/>
		<rect x="38.6" y="167.6" class="st17" width="10" height="10"/>
		<rect x="48.6" y="167.6" class="st17" width="10" height="10"/>
		<rect x="58.6" y="167.6" class="st17" width="10" height="10"/>
		<rect x="68.6" y="167.6" class="st17" width="10" height="10"/>
		<rect x="78.6" y="167.6" class="st17" width="10" height="10"/>
		<rect x="88.6" y="167.6" class="st17" width="10" height="10"/>
		<rect x="38.6" y="177.6" class="st17" width="10" height="10"/>
		<rect x="48.6" y="177.6" class="st17" width="10" height="10"/>
		<rect x="58.6" y="177.6" class="st17" width="10" height="10"/>
		<rect x="68.6" y="177.6" class="st17" width="10" height="10"/>
		<rect x="78.6" y="177.6" class="st17" width="10" height="10"/>
		<rect x="88.6" y="177.6" class="st17" width="10" height="10"/>
		<rect x="38.6" y="187.6" class="st17" width="10" height="10"/>
		<rect x="48.6" y="187.6" class="st17" width="10" height="10"/>
		<rect x="58.6" y="187.6" class="st17" width="10" height="10"/>
		<rect x="68.6" y="187.6" class="st17" width="10" height="10"/>
		<rect x="78.6" y="187.6" class="st17" width="10" height="10"/>
		<rect x="88.6" y="187.6" class="st17" width="10" height="10"/>
		<rect x="38.6" y="197.6" class="st17" width="10" height="10"/>
		<rect x="48.6" y="197.6" class="st17" width="10" height="10"/>
		<rect x="58.6" y="197.6" class="st17" width="10" height="10"/>
		<rect x="68.6" y="197.6" class="st17" width="10" height="10"/>
		<rect x="78.6" y="197.6" class="st17" width="10" height="10"/>
		<rect x="88.6" y="197.6" class="st17" width="10" height="10"/>
		<rect x="38.6" y="207.6" class="st17" width="10" height="10"/>
		<rect x="48.6" y="207.6" class="st17" width="10" height="10"/>
		<rect x="58.6" y="207.6" class="st17" width="10" height="10"/>
		<rect x="68.6" y="207.6" class="st17" width="10" height="10"/>
		<rect x="78.6" y="207.6" class="st17" width="10" height="10"/>
		<rect x="88.6" y="207.6" class="st17" width="10" height="10"/>
		<rect x="38.6" y="217.6" class="st17" width="10" height="10"/>
		<rect x="48.6" y="217.6" class="st17" width="10" height="10"/>
		<rect x="58.6" y="217.6" class="st17" width="10" height="10"/>
		<rect x="68.6" y="217.6" class="st17" width="10" height="10"/>
		<rect x="78.6" y="217.6" class="st17" width="10" height="10"/>
		<rect x="88.6" y="217.6" class="st17" width="10" height="10"/>
	</g>
	<g class="st16">
		<rect x="251.1" y="157.6" class="st17" width="10" height="10"/>
		<rect x="261.1" y="157.6" class="st17" width="10" height="10"/>
		<rect x="271.1" y="157.6" class="st17" width="10" height="10"/>
		<rect x="281.1" y="157.6" class="st17" width="10" height="10"/>
		<rect x="291.1" y="157.6" class="st17" width="10" height="10"/>
		<rect x="301.1" y="157.6" class="st17" width="10" height="10"/>
		<rect x="251.1" y="167.6" class="st17" width="10" height="10"/>
		<rect x="261.1" y="167.6" class="st17" width="10" height="10"/>
		<rect x="271.1" y="167.6" class="st17" width="10" height="10"/>
		<rect x="281.1" y="167.6" class="st17" width="10" height="10"/>
		<rect x="291.1" y="167.6" class="st17" width="10" height="10"/>
		<rect x="301.1" y="167.6" class="st17" width="10" height="10"/>
		<rect x="251.1" y="177.6" class="st17" width="10" height="10"/>
		<rect x="261.1" y="177.6" class="st17" width="10" height="10"/>
		<rect x="271.1" y="177.6" class="st17" width="10" height="10"/>
		<rect x="281.1" y="177.6" class="st17" width="10" height="10"/>
		<rect x="291.1" y="177.6" class="st17" width="10" height="10"/>
		<rect x="301.1" y="177.6" class="st17" width="10" height="10"/>
		<rect x="251.1" y="187.6" class="st17" width="10" height="10"/>
		<rect x="261.1" y="187.6" class="st17" width="10" height="10"/>
		<rect x="271.1" y="187.6" class="st17" width="10" height="10"/>
		<rect x="281.1" y="187.6" class="st17" width="10" height="10"/>
		<rect x="291.1" y="187.6" class="st17" width="10" height="10"/>
		<rect x="301.1" y="187.6" class="st17" width="10" height="10"/>
		<rect x="251.1" y="197.6" class="st17" width="10" height="10"/>
		<rect x="261.1" y="197.6" class="st17" width="10" height="10"/>
		<rect x="271.1" y="197.6" class="st17" width="10" height="10"/>
		<rect x="281.1" y="197.6" class="st17" width="10" height="10"/>
		<rect x="291.1" y="197.6" class="st17" width="10" height="10"/>
		<rect x="301.1" y="197.6" class="st17" width="10" height="10"/>
		<rect x="251.1" y="207.6" class="st17" width="10" height="10"/>
		<rect x="261.1" y="207.6" class="st17" width="10" height="10"/>
		<rect x="271.1" y="207.6" class="st17" width="10" height="10"/>
		<rect x="281.1" y="207.6" class="st17" width="10" height="10"/>
		<rect x="291.1" y="207.6" class="st17" width="10" height="10"/>
		<rect x="301.1" y="207.6" class="st17" width="10" height="10"/>
		<rect x="251.1" y="217.6" class="st17" width="10" height="10"/>
		<rect x="261.1" y="217.6" class="st17" width="10" height="10"/>
		<rect x="271.1" y="217.6" class="st17" width="10" height="10"/>
		<rect x="281.1" y="217.6" class="st17" width="10" height="10"/>
		<rect x="291.1" y="217.6" class="st17" width="10" height="10"/>
		<rect x="301.1" y="217.6" class="st17" width="10" height="10"/>
	</g>
	<g class="st16">
		<rect x="142.1" y="242.3" class="st17" width="10" height="10"/>
		<rect x="152.1" y="242.3" class="st17" width="10" height="10"/>
		<rect x="162.1" y="242.3" class="st17" width="10" height="10"/>
		<rect x="172.1" y="242.3" class="st17" width="10" height="10"/>
		<rect x="182.1" y="242.3" class="st17" width="10" height="10"/>
		<rect x="192.1" y="242.3" class="st17" width="10" height="10"/>
		<rect x="142.1" y="252.3" class="st17" width="10" height="10"/>
		<rect x="152.1" y="252.3" class="st17" width="10" height="10"/>
		<rect x="162.1" y="252.3" class="st17" width="10" height="10"/>
		<rect x="172.1" y="252.3" class="st17" width="10" height="10"/>
		<rect x="182.1" y="252.3" class="st17" width="10" height="10"/>
		<rect x="192.1" y="252.3" class="st17" width="10" height="10"/>
		<rect x="142.1" y="262.3" class="st17" width="10" height="10"/>
		<rect x="152.1" y="262.3" class="st17" width="10" height="10"/>
		<rect x="162.1" y="262.3" class="st17" width="10" height="10"/>
		<rect x="172.1" y="262.3" class="st17" width="10" height="10"/>
		<rect x="182.1" y="262.3" class="st17" width="10" height="10"/>
		<rect x="192.1" y="262.3" class="st17" width="10" height="10"/>
		<rect x="142.1" y="272.3" class="st17" width="10" height="10"/>
		<rect x="152.1" y="272.3" class="st17" width="10" height="10"/>
		<rect x="162.1" y="272.3" class="st17" width="10" height="10"/>
		<rect x="172.1" y="272.3" class="st17" width="10" height="10"/>
		<rect x="182.1" y="272.3" class="st17" width="10" height="10"/>
		<rect x="192.1" y="272.3" class="st17" width="10" height="10"/>
		<rect x="142.1" y="282.3" class="st17" width="10" height="10"/>
		<rect x="152.1" y="282.3" class="st17" width="10" height="10"/>
		<rect x="162.1" y="282.3" class="st17" width="10" height="10"/>
		<rect x="172.1" y="282.3" class="st17" width="10" height="10"/>
		<rect x="182.1" y="282.3" class="st17" width="10" height="10"/>
		<rect x="192.1" y="282.3" class="st17" width="10" height="10"/>
		<rect x="142.1" y="292.3" class="st17" width="10" height="10"/>
		<rect x="152.1" y="292.3" class="st17" width="10" height="10"/>
		<rect x="162.1" y="292.3" class="st17" width="10" height="10"/>
		<rect x="172.1" y="292.3" class="st17" width="10" height="10"/>
		<rect x="182.1" y="292.3" class="st17" width="10" height="10"/>
		<rect x="192.1" y="292.3" class="st17" width="10" height="10"/>
		<rect x="142.1" y="302.3" class="st17" width="10" height="10"/>
		<rect x="152.1" y="302.3" class="st17" width="10" height="10"/>
		<rect x="162.1" y="302.3" class="st17" width="10" height="10"/>
		<rect x="172.1" y="302.3" class="st17" width="10" height="10"/>
		<rect x="182.1" y="302.3" class="st17" width="10" height="10"/>
		<rect x="192.1" y="302.3" class="st17" width="10" height="10"/>
	</g>
</g>
<g id="Layer_1">
	<g>
		<g>
			<g id="XMLID_85_">
				<g id="XMLID_86_">
					<line id="XMLID_91_" class="st25" x1="229" y1="88.1" x2="245.3" y2="88.1"/>
					<g id="XMLID_87_">
						<line id="XMLID_90_" class="st25" x1="237.2" y1="79" x2="237.2" y2="87.7"/>
						<g id="XMLID_88_">
							<g>
								<polyline class="st25" points="260.7,44.2 260.7,79 212.7,79 212.7,41.3 249.5,41.3 								"/>
								<g>
									<polygon class="st26" points="257.7,45.1 260.7,39.9 263.7,45.1 									"/>
								</g>
							</g>
						</g>
					</g>
				</g>
			</g>
		</g>
		<line class="st25" x1="212.7" y1="70.1" x2="260.1" y2="70.1"/>
		<rect x="220" y="62.2" class="st25" width="6" height="7.9"/>
		<rect x="226" y="57.3" class="st25" width="6" height="12.8"/>
		<rect x="232" y="50.9" class="st25" width="6" height="19.1"/>
		<line class="st25" x1="244.4" y1="54.4" x2="253.7" y2="54.4"/>
		<line class="st25" x1="244.4" y1="62.3" x2="253.7" y2="62.3"/>
		<circle class="st25" cx="252.2" cy="41.3" r="2.3"/>
	</g>
	<g>
		<g>
			<g id="XMLID_75_">
				<g>
					<polyline class="st25" points="295.5,204.8 295.5,212.6 280.4,212.6 					"/>
					<g>
						<polygon class="st26" points="281.3,209.6 276.1,212.6 281.3,215.6 						"/>
					</g>
				</g>
			</g>
			<polyline id="XMLID_74_" class="st25" points="295.5,181.7 295.5,172.7 276.2,172.7 			"/>
		</g>
		<g>
			<g>
				<g id="XMLID_70_">
					<g id="XMLID_71_">
					</g>
				</g>
			</g>
			<g>
				<path class="st25" d="M304.9,193.3L304.9,193.3C304.9,193.3,304.9,193.2,304.9,193.3c0-0.1,0-0.1,0-0.1h0c0-0.5-0.1-1.1-0.2-1.6
					l1.5-1.2c-0.2-0.9-0.6-1.7-1-2.5l-1.9,0.2c-0.7-0.9-1.5-1.8-2.4-2.4l0.2-2c-0.8-0.4-1.6-0.8-2.5-1l-1.3,1.5
					c-0.6-0.1-1.1-0.2-1.7-0.2c-0.6,0-1.2,0.1-1.7,0.2l-1.3-1.5c-0.9,0.2-1.7,0.6-2.5,1l0.2,2c-0.9,0.7-1.8,1.5-2.4,2.4l-1.9-0.2
					c-0.4,0.8-0.8,1.6-1,2.5l1.5,1.2c-0.1,0.5-0.2,1.1-0.2,1.6h0c0,0,0,0,0,0.1c0,0,0,0,0,0.1h0c0,0.5,0.1,1.1,0.2,1.6l-1.5,1.2
					c0.2,0.9,0.6,1.7,1,2.5l1.9-0.2c0.7,0.9,1.5,1.8,2.4,2.4l-0.2,2c0.8,0.4,1.6,0.8,2.5,1l1.3-1.5c0.6,0.1,1.1,0.2,1.7,0.2
					c0.6,0,1.2-0.1,1.7-0.2l1.3,1.5c0.9-0.2,1.7-0.6,2.5-1l-0.2-2c0.9-0.7,1.8-1.5,2.4-2.4l1.9,0.2c0.4-0.8,0.8-1.6,1-2.5l-1.5-1.2
					C304.8,194.3,304.9,193.8,304.9,193.3z"/>
				<path class="st25" d="M300,193.2c0,2.5-2,4.5-4.5,4.5s-4.5-2-4.5-4.5c0-2.5,2-4.5,4.5-4.5S300,190.7,300,193.2z"/>
			</g>
		</g>
		<line class="st25" x1="267.5" y1="187.2" x2="267.5" y2="177.4"/>
		<line class="st25" x1="267.5" y1="207.4" x2="267.5" y2="197.5"/>
		<rect x="262.3" y="167.4" class="st25" width="9.7" height="9.7"/>
		<rect x="262.3" y="187.8" class="st25" width="9.7" height="9.7"/>
		<rect x="262.3" y="207.7" class="st25" width="9.7" height="9.7"/>
	</g>
	<g>
		<g>
			<path class="st25" d="M78,209.6h6.8c4.3,0,7.8-3.5,7.8-7.8c0-4.2-3.3-7.6-7.5-7.7c0.2-0.9,0.3-1.8,0.3-2.7
				c0-6.8-5.5-12.4-12.4-12.4c-5.9,0-10.8,4.1-12.1,9.6c-1.1-1.3-2.7-2.1-4.5-2.1c-3.3,0-5.9,2.7-5.9,5.9c0,0.6,0.1,1.1,0.2,1.7
				c-3.9,0.4-7,3.7-7,7.7c0,4.3,3.5,7.8,7.8,7.8h8.8"/>
			<g>
				<polygon class="st26" points="59.3,212.6 64.5,209.6 59.3,206.6 				"/>
			</g>
		</g>
	</g>
	<path class="st25" d="M50.4,192.5c0-3.3,2.7-5.9,5.9-5.9s5.9,2.7,5.9,5.9"/>
	<circle class="st25" cx="75" cy="209.6" r="2.3"/>
	<g>
		<g>
			<line class="st25" x1="68.6" y1="202.4" x2="68.6" y2="221.1"/>
			<g>
				<polygon class="st26" points="65.6,203.3 68.6,198.1 71.6,203.3 				"/>
			</g>
		</g>
	</g>
	<g>
		<g>
			<g>
				<g id="XMLID_77_">
					<g id="XMLID_79_">
						<line id="XMLID_84_" class="st25" x1="164" y1="300.7" x2="179.9" y2="300.7"/>
						<g id="XMLID_80_">
							<line id="XMLID_83_" class="st25" x1="172" y1="291.9" x2="172" y2="300.3"/>
							<g id="XMLID_81_">
								<g>
									<polyline class="st25" points="194.9,276 194.9,291.9 148.1,291.9 148.1,255.1 173.6,255.1 									"/>
									<g>
										<polygon class="st26" points="192,276.9 194.9,271.7 197.9,276.9 										"/>
									</g>
								</g>
							</g>
						</g>
					</g>
				</g>
			</g>
			<line class="st25" x1="148.1" y1="283.1" x2="194.4" y2="283.1"/>
			<rect x="181.8" y="250.4" class="st25" width="14.5" height="18.3"/>
			<line class="st25" x1="181.8" y1="263.9" x2="195.6" y2="263.9"/>
		</g>
		<circle class="st25" cx="176.1" cy="255.1" r="2.3"/>
	</g>
	<g>
		<g>
			<g>
				<g id="XMLID_60_">
					<g id="XMLID_63_">
						<g id="XMLID_64_">
							<g id="XMLID_65_">
								<g>
									<polyline class="st25" points="130.3,40.3 130.3,89 93.5,89 93.5,37.1 120.1,37.1 									"/>
									<g>
										<polygon class="st26" points="127.3,41.1 130.3,36 133.3,41.1 										"/>
									</g>
								</g>
							</g>
						</g>
					</g>
				</g>
			</g>
			<line class="st25" x1="93.5" y1="80.9" x2="109.2" y2="80.9"/>
			<line class="st25" x1="114.7" y1="80.9" x2="129.9" y2="80.9"/>
			<rect x="99.7" y="53.5" class="st25" width="9.4" height="9.4"/>
			<line class="st25" x1="98.6" y1="46.7" x2="108" y2="46.7"/>
			<line class="st25" x1="116.9" y1="46.7" x2="124.8" y2="46.7"/>
		</g>
		<circle class="st25" cx="121.7" cy="37" r="2.3"/>
	</g>
	<g>
		<g>
			<path class="st28" d="M261.8,228.4c0.5-0.1,1.3-0.2,2.3-0.2c1.1,0,1.9,0.2,2.4,0.7c0.5,0.4,0.8,1,0.8,1.8c0,0.8-0.2,1.4-0.7,1.8
				c-0.6,0.6-1.5,0.9-2.6,0.9c-0.3,0-0.5,0-0.7,0v3h-1.5V228.4z M263.3,232.2c0.2,0,0.4,0.1,0.7,0.1c1.1,0,1.8-0.5,1.8-1.5
				c0-0.9-0.6-1.4-1.6-1.4c-0.4,0-0.7,0-0.9,0.1V232.2z"/>
			<path class="st28" d="M268.3,232.5c0-0.8,0-1.4,0-1.9h1.3l0,1.1h0c0.3-0.8,1-1.2,1.6-1.2c0.1,0,0.2,0,0.3,0v1.4
				c-0.1,0-0.3,0-0.4,0c-0.7,0-1.2,0.5-1.3,1.1c0,0.1,0,0.3,0,0.5v3h-1.5V232.5z"/>
			<path class="st28" d="M278,233.4c0,2.1-1.5,3.1-3,3.1c-1.7,0-2.9-1.1-2.9-3c0-1.9,1.3-3.1,3-3.1C276.9,230.4,278,231.7,278,233.4
				z M273.6,233.5c0,1.1,0.6,2,1.5,2c0.8,0,1.4-0.8,1.4-2c0-0.9-0.4-2-1.4-2C274,231.5,273.6,232.5,273.6,233.5z"/>
			<path class="st28" d="M283.5,236.2c-0.3,0.1-0.9,0.3-1.7,0.3c-1.8,0-3-1.2-3-3c0-1.8,1.2-3.1,3.3-3.1c0.5,0,1.1,0.1,1.4,0.3
				l-0.3,1.1c-0.2-0.1-0.6-0.2-1.1-0.2c-1.1,0-1.8,0.8-1.8,1.9c0,1.2,0.8,1.9,1.8,1.9c0.5,0,0.9-0.1,1.2-0.2L283.5,236.2z"/>
			<path class="st28" d="M285.6,233.9c0,1.1,0.9,1.5,1.8,1.5c0.7,0,1.2-0.1,1.6-0.3l0.2,1c-0.5,0.2-1.2,0.4-2,0.4c-1.9,0-3-1.2-3-3
				c0-1.6,1-3.1,2.9-3.1c1.9,0,2.5,1.6,2.5,2.8c0,0.3,0,0.5,0,0.6H285.6z M288.1,232.9c0-0.5-0.2-1.4-1.2-1.4
				c-0.9,0-1.3,0.8-1.4,1.4H288.1z"/>
			<path class="st28" d="M290.6,235.1c0.3,0.2,1,0.4,1.5,0.4c0.6,0,0.9-0.3,0.9-0.6c0-0.4-0.2-0.6-1-0.9c-1.1-0.4-1.6-1-1.6-1.7
				c0-1,0.9-1.8,2.2-1.8c0.6,0,1.2,0.2,1.5,0.3l-0.3,1c-0.3-0.1-0.7-0.3-1.2-0.3c-0.5,0-0.8,0.3-0.8,0.6c0,0.4,0.3,0.6,1,0.8
				c1.1,0.4,1.5,0.9,1.6,1.8c0,1.1-0.8,1.8-2.4,1.8c-0.7,0-1.3-0.2-1.8-0.4L290.6,235.1z"/>
			<path class="st28" d="M295.6,235.1c0.3,0.2,1,0.4,1.5,0.4c0.6,0,0.9-0.3,0.9-0.6c0-0.4-0.2-0.6-1-0.9c-1.1-0.4-1.6-1-1.6-1.7
				c0-1,0.9-1.8,2.2-1.8c0.6,0,1.2,0.2,1.5,0.3l-0.3,1c-0.3-0.1-0.7-0.3-1.2-0.3c-0.5,0-0.8,0.3-0.8,0.6c0,0.4,0.3,0.6,1,0.8
				c1.1,0.4,1.5,0.9,1.6,1.8c0,1.1-0.8,1.8-2.4,1.8c-0.7,0-1.3-0.2-1.8-0.4L295.6,235.1z"/>
			<path class="st28" d="M254,248.1l-0.1-0.6h0c-0.4,0.5-1,0.8-1.7,0.8c-1.2,0-1.8-0.9-1.8-1.7c0-1.5,1.3-2.2,3.5-2.2v-0.1
				c0-0.4-0.2-1-1.2-1c-0.6,0-1.2,0.2-1.6,0.4l-0.3-1c0.4-0.3,1.2-0.5,2.1-0.5c1.9,0,2.4,1.2,2.4,2.5v2.1c0,0.5,0,1,0.1,1.4H254z
				 M253.8,245.2c-1,0-2,0.2-2,1.1c0,0.6,0.4,0.8,0.8,0.8c0.6,0,1-0.4,1.2-0.8c0-0.1,0-0.2,0-0.3V245.2z"/>
			<path class="st28" d="M262.1,246.3c0,0.7,0,1.3,0,1.8h-1.3l-0.1-0.9h0c-0.3,0.4-0.8,1-1.9,1c-1.1,0-2-0.6-2-2.5v-3.4h1.5v3.2
				c0,1,0.3,1.6,1.1,1.6c0.6,0,1-0.4,1.1-0.8c0-0.1,0.1-0.3,0.1-0.5v-3.5h1.5V246.3z"/>
			<path class="st28" d="M265.4,240.6v1.7h1.4v1.1h-1.4v2.6c0,0.7,0.2,1.1,0.8,1.1c0.3,0,0.4,0,0.6-0.1l0,1.1
				c-0.2,0.1-0.6,0.1-1.1,0.1c-0.5,0-1-0.2-1.3-0.5c-0.3-0.3-0.5-0.9-0.5-1.6v-2.7h-0.8v-1.1h0.8v-1.3L265.4,240.6z"/>
			<path class="st28" d="M273.4,245.1c0,2.1-1.5,3.1-3,3.1c-1.7,0-2.9-1.1-2.9-3c0-1.9,1.3-3.1,3-3.1
				C272.2,242.1,273.4,243.3,273.4,245.1z M269,245.2c0,1.1,0.6,2,1.5,2c0.8,0,1.4-0.8,1.4-2c0-0.9-0.4-2-1.4-2
				C269.4,243.2,269,244.2,269,245.2z"/>
			<path class="st28" d="M274.6,244c0-0.7,0-1.2,0-1.7h1.3l0.1,0.9h0c0.3-0.5,0.8-1,1.8-1c0.8,0,1.4,0.4,1.6,1.1h0
				c0.2-0.3,0.4-0.6,0.7-0.7c0.3-0.2,0.7-0.3,1.2-0.3c1,0,2,0.7,2,2.5v3.4h-1.4v-3.2c0-1-0.3-1.5-1-1.5c-0.5,0-0.9,0.4-1,0.8
				c0,0.1-0.1,0.3-0.1,0.5v3.5h-1.4v-3.4c0-0.8-0.3-1.4-1-1.4c-0.6,0-0.9,0.4-1.1,0.8c-0.1,0.1-0.1,0.3-0.1,0.5v3.5h-1.4V244z"/>
			<path class="st28" d="M288,248.1l-0.1-0.6h0c-0.4,0.5-1,0.8-1.7,0.8c-1.2,0-1.8-0.9-1.8-1.7c0-1.5,1.3-2.2,3.5-2.2v-0.1
				c0-0.4-0.2-1-1.2-1c-0.6,0-1.2,0.2-1.6,0.4l-0.3-1c0.4-0.3,1.2-0.5,2.1-0.5c1.9,0,2.4,1.2,2.4,2.5v2.1c0,0.5,0,1,0.1,1.4H288z
				 M287.9,245.2c-1,0-2,0.2-2,1.1c0,0.6,0.4,0.8,0.8,0.8c0.6,0,1-0.4,1.2-0.8c0-0.1,0-0.2,0-0.3V245.2z"/>
			<path class="st28" d="M292.5,240.6v1.7h1.4v1.1h-1.4v2.6c0,0.7,0.2,1.1,0.8,1.1c0.3,0,0.4,0,0.6-0.1l0,1.1
				c-0.2,0.1-0.6,0.1-1.1,0.1c-0.5,0-1-0.2-1.3-0.5c-0.3-0.3-0.5-0.9-0.5-1.6v-2.7h-0.8v-1.1h0.8v-1.3L292.5,240.6z"/>
			<path class="st28" d="M296.6,240.6c0,0.4-0.3,0.8-0.8,0.8c-0.5,0-0.8-0.3-0.8-0.8c0-0.5,0.3-0.8,0.8-0.8
				C296.2,239.8,296.6,240.2,296.6,240.6z M295,248.1v-5.8h1.5v5.8H295z"/>
			<path class="st28" d="M303.6,245.1c0,2.1-1.5,3.1-3,3.1c-1.7,0-2.9-1.1-2.9-3c0-1.9,1.3-3.1,3-3.1
				C302.5,242.1,303.6,243.3,303.6,245.1z M299.2,245.2c0,1.1,0.6,2,1.5,2c0.8,0,1.4-0.8,1.4-2c0-0.9-0.4-2-1.4-2
				C299.6,243.2,299.2,244.2,299.2,245.2z"/>
			<path class="st28" d="M304.8,244c0-0.7,0-1.2,0-1.7h1.3l0.1,0.9h0c0.3-0.5,0.9-1,1.9-1c1,0,2.1,0.7,2.1,2.5v3.5h-1.5v-3.3
				c0-0.8-0.3-1.5-1.1-1.5c-0.6,0-1,0.4-1.2,0.9c0,0.1-0.1,0.3-0.1,0.5v3.4h-1.5V244z"/>
		</g>
	</g>
	<g>
		<g>
			<path class="st28" d="M220.5,100.2c0-1-0.1-2.3-0.1-3.4h0c-0.3,1-0.6,2.1-1,3.1l-1.2,3.5h-1.1l-1.1-3.5c-0.3-1-0.6-2.1-0.8-3.1h0
				c0,1.1-0.1,2.3-0.1,3.4l-0.2,3.3h-1.4l0.5-8.1h1.9l1.1,3.3c0.3,0.9,0.5,1.9,0.7,2.8h0c0.2-0.9,0.5-1.9,0.8-2.8l1.1-3.2h1.9
				l0.5,8.1h-1.4L220.5,100.2z"/>
			<path class="st28" d="M224.6,101c0,1.1,0.9,1.5,1.8,1.5c0.7,0,1.2-0.1,1.6-0.3l0.2,1c-0.5,0.2-1.2,0.4-2,0.4c-1.9,0-3-1.2-3-3
				c0-1.6,1-3.1,2.9-3.1c1.9,0,2.5,1.6,2.5,2.8c0,0.3,0,0.5,0,0.6H224.6z M227.2,100c0-0.5-0.2-1.4-1.2-1.4c-0.9,0-1.3,0.8-1.4,1.4
				H227.2z"/>
			<path class="st28" d="M231.5,96v1.7h1.4v1.1h-1.4v2.6c0,0.7,0.2,1.1,0.8,1.1c0.3,0,0.4,0,0.6-0.1l0,1.1c-0.2,0.1-0.6,0.1-1.1,0.1
				c-0.5,0-1-0.2-1.3-0.5c-0.3-0.3-0.5-0.9-0.5-1.6v-2.7h-0.8v-1.1h0.8v-1.3L231.5,96z"/>
			<path class="st28" d="M237.3,103.5l-0.1-0.6h0c-0.4,0.5-1,0.8-1.7,0.8c-1.2,0-1.8-0.9-1.8-1.7c0-1.5,1.3-2.2,3.5-2.2v-0.1
				c0-0.4-0.2-1-1.2-1c-0.6,0-1.2,0.2-1.6,0.4l-0.3-1c0.4-0.3,1.2-0.5,2.1-0.5c1.9,0,2.4,1.2,2.4,2.5v2.1c0,0.5,0,1,0.1,1.4H237.3z
				 M237.1,100.6c-1,0-2,0.2-2,1.1c0,0.6,0.4,0.8,0.8,0.8c0.6,0,1-0.4,1.2-0.8c0-0.1,0-0.2,0-0.3V100.6z"/>
			<path class="st28" d="M245.5,95v6.9c0,0.6,0,1.2,0,1.6h-1.3l-0.1-0.9h0c-0.3,0.6-1.1,1.1-1.9,1.1c-1.4,0-2.5-1.2-2.5-3
				c0-2,1.2-3.1,2.6-3.1c0.8,0,1.4,0.3,1.6,0.8h0V95H245.5z M244,100.1c0-0.1,0-0.3,0-0.4c-0.1-0.6-0.6-1-1.3-1
				c-0.9,0-1.5,0.8-1.5,1.9c0,1.1,0.5,1.8,1.5,1.8c0.6,0,1.1-0.4,1.3-1c0-0.1,0-0.3,0-0.4V100.1z"/>
			<path class="st28" d="M250.4,103.5l-0.1-0.6h0c-0.4,0.5-1,0.8-1.7,0.8c-1.2,0-1.8-0.9-1.8-1.7c0-1.5,1.3-2.2,3.5-2.2v-0.1
				c0-0.4-0.2-1-1.2-1c-0.6,0-1.2,0.2-1.6,0.4l-0.3-1c0.4-0.3,1.2-0.5,2.1-0.5c1.9,0,2.4,1.2,2.4,2.5v2.1c0,0.5,0,1,0.1,1.4H250.4z
				 M250.2,100.6c-1,0-2,0.2-2,1.1c0,0.6,0.4,0.8,0.8,0.8c0.6,0,1-0.4,1.2-0.8c0-0.1,0-0.2,0-0.3V100.6z"/>
			<path class="st28" d="M254.8,96v1.7h1.4v1.1h-1.4v2.6c0,0.7,0.2,1.1,0.8,1.1c0.3,0,0.4,0,0.6-0.1l0,1.1c-0.2,0.1-0.6,0.1-1.1,0.1
				c-0.5,0-1-0.2-1.3-0.5c-0.3-0.3-0.5-0.9-0.5-1.6v-2.7h-0.8v-1.1h0.8v-1.3L254.8,96z"/>
			<path class="st28" d="M260.6,103.5l-0.1-0.6h0c-0.4,0.5-1,0.8-1.7,0.8c-1.2,0-1.8-0.9-1.8-1.7c0-1.5,1.3-2.2,3.5-2.2v-0.1
				c0-0.4-0.2-1-1.2-1c-0.6,0-1.2,0.2-1.6,0.4l-0.3-1c0.4-0.3,1.2-0.5,2.1-0.5c1.9,0,2.4,1.2,2.4,2.5v2.1c0,0.5,0,1,0.1,1.4H260.6z
				 M260.4,100.6c-1,0-2,0.2-2,1.1c0,0.6,0.4,0.8,0.8,0.8c0.6,0,1-0.4,1.2-0.8c0-0.1,0-0.2,0-0.3V100.6z"/>
			<path class="st28" d="M203.7,111.1c0-0.7,0-1.2,0-1.7h1.3l0.1,0.9h0c0.3-0.5,0.8-1,1.8-1c0.8,0,1.4,0.4,1.6,1.1h0
				c0.2-0.3,0.4-0.6,0.7-0.7c0.3-0.2,0.7-0.3,1.2-0.3c1,0,2,0.7,2,2.5v3.4h-1.4v-3.2c0-1-0.3-1.5-1-1.5c-0.5,0-0.9,0.4-1,0.8
				c0,0.1-0.1,0.3-0.1,0.5v3.5h-1.4v-3.4c0-0.8-0.3-1.4-1-1.4c-0.6,0-0.9,0.4-1.1,0.8c-0.1,0.1-0.1,0.3-0.1,0.5v3.5h-1.4V111.1z"/>
			<path class="st28" d="M217.1,115.2l-0.1-0.6h0c-0.4,0.5-1,0.8-1.7,0.8c-1.2,0-1.8-0.9-1.8-1.7c0-1.5,1.3-2.2,3.5-2.2v-0.1
				c0-0.4-0.2-1-1.2-1c-0.6,0-1.2,0.2-1.6,0.4l-0.3-1c0.4-0.3,1.2-0.5,2.1-0.5c1.9,0,2.4,1.2,2.4,2.5v2.1c0,0.5,0,1,0.1,1.4H217.1z
				 M216.9,112.3c-1,0-2,0.2-2,1.1c0,0.6,0.4,0.8,0.8,0.8c0.6,0,1-0.4,1.2-0.8c0-0.1,0-0.2,0-0.3V112.3z"/>
			<path class="st28" d="M219.9,111.1c0-0.7,0-1.2,0-1.7h1.3l0.1,0.9h0c0.3-0.5,0.9-1,1.9-1c1,0,2.1,0.7,2.1,2.5v3.5h-1.5v-3.3
				c0-0.8-0.3-1.5-1.1-1.5c-0.6,0-1,0.4-1.2,0.9c0,0.1-0.1,0.3-0.1,0.5v3.4h-1.5V111.1z"/>
			<path class="st28" d="M230.1,115.2l-0.1-0.6h0c-0.4,0.5-1,0.8-1.7,0.8c-1.2,0-1.8-0.9-1.8-1.7c0-1.5,1.3-2.2,3.5-2.2v-0.1
				c0-0.4-0.2-1-1.2-1c-0.6,0-1.2,0.2-1.6,0.4l-0.3-1c0.4-0.3,1.2-0.5,2.1-0.5c1.9,0,2.4,1.2,2.4,2.5v2.1c0,0.5,0,1,0.1,1.4H230.1z
				 M229.9,112.3c-1,0-2,0.2-2,1.1c0,0.6,0.4,0.8,0.8,0.8c0.6,0,1-0.4,1.2-0.8c0-0.1,0-0.2,0-0.3V112.3z"/>
			<path class="st28" d="M238.2,109.3c0,0.4,0,0.9,0,1.7v3.3c0,1.2-0.3,2.1-0.9,2.7c-0.6,0.5-1.5,0.7-2.3,0.7c-0.7,0-1.5-0.2-2-0.5
				l0.3-1.1c0.4,0.2,1,0.4,1.7,0.4c1,0,1.7-0.5,1.7-1.8v-0.5h0c-0.3,0.5-0.9,0.9-1.7,0.9c-1.5,0-2.5-1.2-2.5-2.9
				c0-1.9,1.2-3.1,2.7-3.1c0.9,0,1.4,0.4,1.7,0.9h0l0.1-0.8H238.2z M236.7,111.7c0-0.1,0-0.3,0-0.4c-0.2-0.5-0.6-0.9-1.2-0.9
				c-0.8,0-1.4,0.7-1.4,1.9c0,1,0.5,1.8,1.4,1.8c0.6,0,1-0.4,1.2-0.9c0-0.2,0.1-0.4,0.1-0.5V111.7z"/>
			<path class="st28" d="M240.8,112.7c0,1.1,0.9,1.5,1.8,1.5c0.7,0,1.2-0.1,1.6-0.3l0.2,1c-0.5,0.2-1.2,0.4-2,0.4c-1.9,0-3-1.2-3-3
				c0-1.6,1-3.1,2.9-3.1c1.9,0,2.5,1.6,2.5,2.8c0,0.3,0,0.5,0,0.6H240.8z M243.4,111.6c0-0.5-0.2-1.4-1.2-1.4
				c-0.9,0-1.3,0.8-1.4,1.4H243.4z"/>
			<path class="st28" d="M246,111.1c0-0.7,0-1.2,0-1.7h1.3l0.1,0.9h0c0.3-0.5,0.8-1,1.8-1c0.8,0,1.4,0.4,1.6,1.1h0
				c0.2-0.3,0.4-0.6,0.7-0.7c0.3-0.2,0.7-0.3,1.2-0.3c1,0,2,0.7,2,2.5v3.4h-1.4v-3.2c0-1-0.3-1.5-1-1.5c-0.5,0-0.9,0.4-1,0.8
				c0,0.1-0.1,0.3-0.1,0.5v3.5h-1.4v-3.4c0-0.8-0.3-1.4-1-1.4c-0.6,0-0.9,0.4-1.1,0.8c-0.1,0.1-0.1,0.3-0.1,0.5v3.5H246V111.1z"/>
			<path class="st28" d="M257.2,112.7c0,1.1,0.9,1.5,1.8,1.5c0.7,0,1.2-0.1,1.6-0.3l0.2,1c-0.5,0.2-1.2,0.4-2,0.4c-1.9,0-3-1.2-3-3
				c0-1.6,1-3.1,2.9-3.1c1.9,0,2.5,1.6,2.5,2.8c0,0.3,0,0.5,0,0.6H257.2z M259.8,111.6c0-0.5-0.2-1.4-1.2-1.4
				c-0.9,0-1.3,0.8-1.4,1.4H259.8z"/>
			<path class="st28" d="M262.3,111.1c0-0.7,0-1.2,0-1.7h1.3l0.1,0.9h0c0.3-0.5,0.9-1,1.9-1c1,0,2.1,0.7,2.1,2.5v3.5h-1.5v-3.3
				c0-0.8-0.3-1.5-1.1-1.5c-0.6,0-1,0.4-1.2,0.9c0,0.1-0.1,0.3-0.1,0.5v3.4h-1.5V111.1z"/>
			<path class="st28" d="M270.8,107.7v1.7h1.4v1.1h-1.4v2.6c0,0.7,0.2,1.1,0.8,1.1c0.3,0,0.4,0,0.6-0.1l0,1.1
				c-0.2,0.1-0.6,0.1-1.1,0.1c-0.5,0-1-0.2-1.3-0.5c-0.3-0.3-0.5-0.9-0.5-1.6v-2.7h-0.8v-1.1h0.8V108L270.8,107.7z"/>
		</g>
	</g>
	<g>
		<g>
			<path class="st28" d="M152.1,308.3c0.5-0.1,1.3-0.2,2.3-0.2c1.1,0,1.9,0.2,2.4,0.7c0.5,0.4,0.8,1,0.8,1.8c0,0.8-0.2,1.4-0.7,1.8
				c-0.6,0.6-1.5,0.9-2.6,0.9c-0.3,0-0.5,0-0.7,0v3h-1.5V308.3z M153.5,312.1c0.2,0,0.4,0.1,0.7,0.1c1.1,0,1.8-0.5,1.8-1.5
				c0-0.9-0.6-1.4-1.6-1.4c-0.4,0-0.7,0-0.9,0.1V312.1z"/>
			<path class="st28" d="M158.6,312.3c0-0.8,0-1.4,0-1.9h1.3l0,1.1h0c0.3-0.8,1-1.2,1.6-1.2c0.1,0,0.2,0,0.3,0v1.4
				c-0.1,0-0.3,0-0.4,0c-0.7,0-1.2,0.5-1.3,1.1c0,0.1,0,0.3,0,0.5v3h-1.5V312.3z"/>
			<path class="st28" d="M164.4,308.8c0,0.4-0.3,0.8-0.8,0.8c-0.5,0-0.8-0.3-0.8-0.8c0-0.5,0.3-0.8,0.8-0.8
				C164.1,308,164.4,308.3,164.4,308.8z M162.9,316.3v-5.8h1.5v5.8H162.9z"/>
			<path class="st28" d="M165.9,312.2c0-0.7,0-1.2,0-1.7h1.3l0.1,0.9h0c0.3-0.5,0.9-1,1.9-1c1,0,2.1,0.7,2.1,2.5v3.5h-1.5V313
				c0-0.8-0.3-1.5-1.1-1.5c-0.6,0-1,0.4-1.2,0.9c0,0.1-0.1,0.3-0.1,0.5v3.4h-1.5V312.2z"/>
			<path class="st28" d="M174.4,308.8v1.7h1.4v1.1h-1.4v2.6c0,0.7,0.2,1.1,0.8,1.1c0.3,0,0.4,0,0.6-0.1l0,1.1
				c-0.2,0.1-0.6,0.1-1.1,0.1c-0.5,0-1-0.2-1.3-0.5c-0.3-0.3-0.5-0.9-0.5-1.6v-2.7h-0.8v-1.1h0.8v-1.3L174.4,308.8z"/>
			<path class="st28" d="M182.7,316.3l-0.1-0.6h0c-0.4,0.5-1,0.8-1.7,0.8c-1.2,0-1.8-0.9-1.8-1.7c0-1.5,1.3-2.2,3.5-2.2v-0.1
				c0-0.4-0.2-1-1.2-1c-0.6,0-1.2,0.2-1.6,0.4l-0.3-1c0.4-0.3,1.2-0.5,2.1-0.5c1.9,0,2.4,1.2,2.4,2.5v2.1c0,0.5,0,1,0.1,1.4H182.7z
				 M182.5,313.4c-1,0-2,0.2-2,1.1c0,0.6,0.4,0.8,0.8,0.8c0.6,0,1-0.4,1.2-0.8c0-0.1,0-0.2,0-0.3V313.4z"/>
			<path class="st28" d="M185.5,312.2c0-0.7,0-1.2,0-1.7h1.3l0.1,0.9h0c0.3-0.5,0.9-1,1.9-1c1,0,2.1,0.7,2.1,2.5v3.5h-1.5V313
				c0-0.8-0.3-1.5-1.1-1.5c-0.6,0-1,0.4-1.2,0.9c0,0.1-0.1,0.3-0.1,0.5v3.4h-1.5V312.2z"/>
			<path class="st28" d="M197.8,307.8v6.9c0,0.6,0,1.2,0,1.6h-1.3l-0.1-0.9h0c-0.3,0.6-1.1,1.1-1.9,1.1c-1.4,0-2.5-1.2-2.5-3
				c0-2,1.2-3.1,2.6-3.1c0.8,0,1.4,0.3,1.6,0.8h0v-3.3H197.8z M196.3,312.9c0-0.1,0-0.3,0-0.4c-0.1-0.6-0.6-1-1.3-1
				c-0.9,0-1.5,0.8-1.5,1.9c0,1.1,0.5,1.8,1.5,1.8c0.6,0,1.1-0.4,1.3-1c0-0.1,0-0.3,0-0.4V312.9z"/>
			<path class="st28" d="M164.4,319.4v6.9c0,0.6,0,1.2,0,1.6h-1.3l-0.1-0.9h0c-0.3,0.6-1.1,1.1-1.9,1.1c-1.4,0-2.5-1.2-2.5-3
				c0-2,1.2-3.1,2.6-3.1c0.8,0,1.4,0.3,1.6,0.8h0v-3.3H164.4z M162.9,324.5c0-0.1,0-0.3,0-0.4c-0.1-0.6-0.6-1-1.3-1
				c-0.9,0-1.5,0.8-1.5,1.9c0,1.1,0.5,1.8,1.5,1.8c0.6,0,1.1-0.4,1.3-1c0-0.1,0-0.3,0-0.4V324.5z"/>
			<path class="st28" d="M167.6,320.5c0,0.4-0.3,0.8-0.8,0.8c-0.5,0-0.8-0.3-0.8-0.8c0-0.5,0.3-0.8,0.8-0.8
				C167.2,319.7,167.6,320,167.6,320.5z M166,327.9v-5.8h1.5v5.8H166z"/>
			<path class="st28" d="M174.4,322.1c0,0.4,0,0.9,0,1.7v3.3c0,1.2-0.3,2.1-0.9,2.7c-0.6,0.5-1.5,0.7-2.3,0.7c-0.7,0-1.5-0.2-2-0.5
				l0.3-1.1c0.4,0.2,1,0.4,1.7,0.4c1,0,1.7-0.5,1.7-1.8V327h0c-0.3,0.5-0.9,0.9-1.7,0.9c-1.5,0-2.5-1.2-2.5-2.9
				c0-1.9,1.2-3.1,2.7-3.1c0.9,0,1.4,0.4,1.7,0.9h0l0.1-0.8H174.4z M172.9,324.4c0-0.1,0-0.3,0-0.4c-0.2-0.5-0.6-0.9-1.2-0.9
				c-0.8,0-1.4,0.7-1.4,1.9c0,1,0.5,1.8,1.4,1.8c0.6,0,1-0.4,1.2-0.9c0-0.2,0.1-0.4,0.1-0.5V324.4z"/>
			<path class="st28" d="M177.5,320.5c0,0.4-0.3,0.8-0.8,0.8c-0.5,0-0.8-0.3-0.8-0.8c0-0.5,0.3-0.8,0.8-0.8
				C177.1,319.7,177.5,320,177.5,320.5z M175.9,327.9v-5.8h1.5v5.8H175.9z"/>
			<path class="st28" d="M180.7,320.4v1.7h1.4v1.1h-1.4v2.6c0,0.7,0.2,1.1,0.8,1.1c0.3,0,0.4,0,0.6-0.1l0,1.1
				c-0.2,0.1-0.6,0.1-1.1,0.1c-0.5,0-1-0.2-1.3-0.5c-0.3-0.3-0.5-0.9-0.5-1.6v-2.7h-0.8v-1.1h0.8v-1.3L180.7,320.4z"/>
			<path class="st28" d="M186.5,327.9l-0.1-0.6h0c-0.4,0.5-1,0.8-1.7,0.8c-1.2,0-1.8-0.9-1.8-1.7c0-1.5,1.3-2.2,3.5-2.2V324
				c0-0.4-0.2-1-1.2-1c-0.6,0-1.2,0.2-1.6,0.4l-0.3-1c0.4-0.3,1.2-0.5,2.1-0.5c1.9,0,2.4,1.2,2.4,2.5v2.1c0,0.5,0,1,0.1,1.4H186.5z
				 M186.3,325.1c-1,0-2,0.2-2,1.1c0,0.6,0.4,0.8,0.8,0.8c0.6,0,1-0.4,1.2-0.8c0-0.1,0-0.2,0-0.3V325.1z"/>
			<path class="st28" d="M189.3,319.4h1.5v8.5h-1.5V319.4z"/>
		</g>
	</g>
	<g>
		<g>
			<path class="st28" d="M36.7,229.9c0.5-0.1,1.3-0.2,2.3-0.2c1.1,0,1.9,0.2,2.4,0.7c0.5,0.4,0.8,1,0.8,1.8c0,0.8-0.2,1.4-0.7,1.8
				c-0.6,0.6-1.5,0.9-2.6,0.9c-0.3,0-0.5,0-0.7,0v3h-1.5V229.9z M38.2,233.7c0.2,0,0.4,0.1,0.7,0.1c1.1,0,1.8-0.5,1.8-1.5
				c0-0.9-0.6-1.4-1.6-1.4c-0.4,0-0.7,0-0.9,0.1V233.7z"/>
			<path class="st28" d="M48.5,236.2c0,0.7,0,1.3,0,1.8h-1.3l-0.1-0.9h0c-0.3,0.4-0.8,1-1.9,1c-1.1,0-2-0.6-2-2.5v-3.4h1.5v3.2
				c0,1,0.3,1.6,1.1,1.6c0.6,0,1-0.4,1.1-0.8c0-0.1,0.1-0.3,0.1-0.5v-3.5h1.5V236.2z"/>
			<path class="st28" d="M50,237.9c0-0.4,0-1,0-1.6v-6.9h1.5v3.5h0c0.4-0.6,1-0.9,1.9-0.9c1.4,0,2.4,1.2,2.4,3
				c0,2.1-1.3,3.1-2.7,3.1c-0.8,0-1.4-0.3-1.8-1h0l-0.1,0.9H50z M51.5,235.5c0,0.1,0,0.2,0,0.3c0.2,0.6,0.7,1,1.3,1
				c0.9,0,1.5-0.7,1.5-1.9c0-1-0.5-1.9-1.5-1.9c-0.6,0-1.1,0.4-1.3,1.1c0,0.1,0,0.2,0,0.4V235.5z"/>
			<path class="st28" d="M57.1,229.4h1.5v8.5h-1.5V229.4z"/>
			<path class="st28" d="M61.7,230.4c0,0.4-0.3,0.8-0.8,0.8c-0.5,0-0.8-0.3-0.8-0.8c0-0.5,0.3-0.8,0.8-0.8
				C61.4,229.6,61.7,230,61.7,230.4z M60.2,237.9v-5.8h1.5v5.8H60.2z"/>
			<path class="st28" d="M63.2,236.6c0.3,0.2,1,0.4,1.5,0.4c0.6,0,0.9-0.3,0.9-0.6c0-0.4-0.2-0.6-1-0.9c-1.1-0.4-1.6-1-1.6-1.7
				c0-1,0.9-1.8,2.2-1.8c0.6,0,1.2,0.2,1.5,0.3l-0.3,1c-0.3-0.1-0.7-0.3-1.2-0.3c-0.5,0-0.8,0.3-0.8,0.6c0,0.4,0.3,0.6,1,0.8
				c1.1,0.4,1.5,0.9,1.6,1.8c0,1.1-0.8,1.8-2.4,1.8c-0.7,0-1.3-0.2-1.8-0.4L63.2,236.6z"/>
			<path class="st28" d="M68.2,229.4h1.5v3.5h0c0.2-0.3,0.4-0.5,0.7-0.7c0.3-0.2,0.6-0.3,1-0.3c1,0,2,0.7,2,2.5v3.4H72v-3.3
				c0-0.9-0.3-1.5-1.1-1.5c-0.6,0-1,0.4-1.1,0.8c0,0.1-0.1,0.3-0.1,0.4v3.5h-1.5V229.4z"/>
			<path class="st28" d="M80.9,237.9l-0.1-0.6h0c-0.4,0.5-1,0.8-1.7,0.8c-1.2,0-1.8-0.9-1.8-1.7c0-1.5,1.3-2.2,3.5-2.2V234
				c0-0.4-0.2-1-1.2-1c-0.6,0-1.2,0.2-1.6,0.4l-0.3-1c0.4-0.3,1.2-0.5,2.1-0.5c1.9,0,2.4,1.2,2.4,2.5v2.1c0,0.5,0,1,0.1,1.4H80.9z
				 M80.7,235.1c-1,0-2,0.2-2,1.1c0,0.6,0.4,0.8,0.8,0.8c0.6,0,1-0.4,1.2-0.8c0-0.1,0-0.2,0-0.3V235.1z"/>
			<path class="st28" d="M83.7,233.8c0-0.7,0-1.2,0-1.7h1.3L85,233h0c0.3-0.5,0.9-1,1.9-1c1,0,2.1,0.7,2.1,2.5v3.5h-1.5v-3.3
				c0-0.8-0.3-1.5-1.1-1.5c-0.6,0-1,0.4-1.2,0.9c0,0.1-0.1,0.3-0.1,0.5v3.4h-1.5V233.8z"/>
			<path class="st28" d="M95.9,229.4v6.9c0,0.6,0,1.2,0,1.6h-1.3l-0.1-0.9h0c-0.3,0.6-1.1,1.1-1.9,1.1c-1.4,0-2.5-1.2-2.5-3
				c0-2,1.2-3.1,2.6-3.1c0.8,0,1.4,0.3,1.6,0.8h0v-3.3H95.9z M94.5,234.5c0-0.1,0-0.3,0-0.4c-0.1-0.6-0.6-1-1.3-1
				c-0.9,0-1.5,0.8-1.5,1.9c0,1.1,0.5,1.8,1.5,1.8c0.6,0,1.1-0.4,1.3-1c0-0.1,0-0.3,0-0.4V234.5z"/>
			<path class="st28" d="M47.1,241.1v6.9c0,0.6,0,1.2,0,1.6h-1.3l-0.1-0.9h0c-0.3,0.6-1.1,1.1-1.9,1.1c-1.4,0-2.5-1.2-2.5-3
				c0-2,1.2-3.1,2.6-3.1c0.8,0,1.4,0.3,1.6,0.8h0v-3.3H47.1z M45.6,246.2c0-0.1,0-0.3,0-0.4c-0.1-0.6-0.6-1-1.3-1
				c-0.9,0-1.5,0.8-1.5,1.9c0,1.1,0.5,1.8,1.5,1.8c0.6,0,1.1-0.4,1.3-1c0-0.1,0-0.3,0-0.4V246.2z"/>
			<path class="st28" d="M50.2,242.1c0,0.4-0.3,0.8-0.8,0.8c-0.5,0-0.8-0.3-0.8-0.8c0-0.5,0.3-0.8,0.8-0.8
				C49.9,241.3,50.2,241.7,50.2,242.1z M48.7,249.6v-5.8h1.5v5.8H48.7z"/>
			<path class="st28" d="M51.7,248.2c0.3,0.2,1,0.4,1.5,0.4c0.6,0,0.9-0.3,0.9-0.6c0-0.4-0.2-0.6-1-0.9c-1.1-0.4-1.6-1-1.6-1.7
				c0-1,0.9-1.8,2.2-1.8c0.6,0,1.2,0.2,1.5,0.3l-0.3,1c-0.3-0.1-0.7-0.3-1.2-0.3c-0.5,0-0.8,0.3-0.8,0.6c0,0.4,0.3,0.6,1,0.8
				c1.1,0.4,1.5,0.9,1.6,1.8c0,1.1-0.8,1.8-2.4,1.8c-0.7,0-1.3-0.2-1.8-0.4L51.7,248.2z"/>
			<path class="st28" d="M58.4,242.1v1.7h1.4v1.1h-1.4v2.6c0,0.7,0.2,1.1,0.8,1.1c0.3,0,0.4,0,0.6-0.1l0,1.1
				c-0.2,0.1-0.6,0.1-1.1,0.1c-0.5,0-1-0.2-1.3-0.5c-0.3-0.3-0.5-0.9-0.5-1.6v-2.7h-0.8v-1.1H57v-1.3L58.4,242.1z"/>
			<path class="st28" d="M61,245.6c0-0.8,0-1.4,0-1.9h1.3l0,1.1h0c0.3-0.8,1-1.2,1.6-1.2c0.1,0,0.2,0,0.3,0v1.4c-0.1,0-0.3,0-0.4,0
				c-0.7,0-1.2,0.5-1.3,1.1c0,0.1,0,0.3,0,0.5v3H61V245.6z"/>
			<path class="st28" d="M66.8,242.1c0,0.4-0.3,0.8-0.8,0.8c-0.5,0-0.8-0.3-0.8-0.8c0-0.5,0.3-0.8,0.8-0.8
				C66.5,241.3,66.8,241.7,66.8,242.1z M65.2,249.6v-5.8h1.5v5.8H65.2z"/>
			<path class="st28" d="M68.2,249.6c0-0.4,0-1,0-1.6v-6.9h1.5v3.5h0c0.4-0.6,1-0.9,1.9-0.9c1.4,0,2.4,1.2,2.4,3
				c0,2.1-1.3,3.1-2.7,3.1c-0.8,0-1.4-0.3-1.8-1h0l-0.1,0.9H68.2z M69.8,247.2c0,0.1,0,0.2,0,0.3c0.2,0.6,0.7,1,1.3,1
				c0.9,0,1.5-0.7,1.5-1.9c0-1-0.5-1.9-1.5-1.9c-0.6,0-1.1,0.4-1.3,1.1c0,0.1,0,0.2,0,0.4V247.2z"/>
			<path class="st28" d="M80.5,247.8c0,0.7,0,1.3,0,1.8h-1.3l-0.1-0.9h0c-0.3,0.4-0.8,1-1.9,1c-1.1,0-2-0.6-2-2.5v-3.4h1.5v3.2
				c0,1,0.3,1.6,1.1,1.6c0.6,0,1-0.4,1.1-0.8c0-0.1,0.1-0.3,0.1-0.5v-3.5h1.5V247.8z"/>
			<path class="st28" d="M83.8,242.1v1.7h1.4v1.1h-1.4v2.6c0,0.7,0.2,1.1,0.8,1.1c0.3,0,0.4,0,0.6-0.1l0,1.1
				c-0.2,0.1-0.6,0.1-1.1,0.1c-0.5,0-1-0.2-1.3-0.5c-0.3-0.3-0.5-0.9-0.5-1.6v-2.7h-0.8v-1.1h0.8v-1.3L83.8,242.1z"/>
			<path class="st28" d="M87.3,247.1c0,1.1,0.9,1.5,1.8,1.5c0.7,0,1.2-0.1,1.6-0.3l0.2,1c-0.5,0.2-1.2,0.4-2,0.4c-1.9,0-3-1.2-3-3
				c0-1.6,1-3.1,2.9-3.1c1.9,0,2.5,1.6,2.5,2.8c0,0.3,0,0.5,0,0.6H87.3z M89.9,246c0-0.5-0.2-1.4-1.2-1.4c-0.9,0-1.3,0.8-1.4,1.4
				H89.9z"/>
		</g>
	</g>
	<g>
		<g>
			<path class="st28" d="M93.2,103.9c0.5,0.3,1.2,0.5,2,0.5c0.9,0,1.5-0.4,1.5-1.1c0-0.6-0.4-1-1.4-1.3c-1.3-0.5-2.2-1.2-2.2-2.4
				c0-1.3,1.1-2.3,2.9-2.3c0.9,0,1.5,0.2,1.9,0.4l-0.4,1.2c-0.3-0.2-0.9-0.4-1.6-0.4c-0.9,0-1.3,0.5-1.3,1c0,0.6,0.5,0.9,1.5,1.3
				c1.4,0.5,2.1,1.2,2.1,2.4c0,1.3-1,2.4-3.1,2.4c-0.9,0-1.7-0.2-2.2-0.5L93.2,103.9z"/>
			<path class="st28" d="M99.4,101.4c0-0.7,0-1.2,0-1.7h1.3l0.1,0.9h0c0.3-0.5,0.8-1,1.8-1c0.8,0,1.4,0.4,1.6,1.1h0
				c0.2-0.3,0.4-0.6,0.7-0.7c0.3-0.2,0.7-0.3,1.2-0.3c1,0,2,0.7,2,2.5v3.4h-1.4v-3.2c0-1-0.3-1.5-1-1.5c-0.5,0-0.9,0.4-1,0.8
				c0,0.1-0.1,0.3-0.1,0.5v3.5h-1.4v-3.4c0-0.8-0.3-1.4-1-1.4c-0.6,0-0.9,0.4-1.1,0.8c-0.1,0.1-0.1,0.3-0.1,0.5v3.5h-1.4V101.4z"/>
			<path class="st28" d="M112.8,105.5l-0.1-0.6h0c-0.4,0.5-1,0.8-1.7,0.8c-1.2,0-1.8-0.9-1.8-1.7c0-1.5,1.3-2.2,3.5-2.2v-0.1
				c0-0.4-0.2-1-1.2-1c-0.6,0-1.2,0.2-1.6,0.4l-0.3-1c0.4-0.3,1.2-0.5,2.1-0.5c1.9,0,2.4,1.2,2.4,2.5v2.1c0,0.5,0,1,0.1,1.4H112.8z
				 M112.6,102.6c-1,0-2,0.2-2,1.1c0,0.6,0.4,0.8,0.8,0.8c0.6,0,1-0.4,1.2-0.8c0-0.1,0-0.2,0-0.3V102.6z"/>
			<path class="st28" d="M115.6,101.5c0-0.8,0-1.4,0-1.9h1.3l0,1.1h0c0.3-0.8,1-1.2,1.6-1.2c0.1,0,0.2,0,0.3,0v1.4
				c-0.1,0-0.3,0-0.4,0c-0.7,0-1.2,0.5-1.3,1.1c0,0.1,0,0.3,0,0.5v3h-1.5V101.5z"/>
			<path class="st28" d="M121.9,98v1.7h1.4v1.1h-1.4v2.6c0,0.7,0.2,1.1,0.8,1.1c0.3,0,0.4,0,0.6-0.1l0,1.1c-0.2,0.1-0.6,0.1-1.1,0.1
				c-0.5,0-1-0.2-1.3-0.5c-0.3-0.3-0.5-0.9-0.5-1.6v-2.7h-0.8v-1.1h0.8v-1.3L121.9,98z"/>
			<path class="st28" d="M93,117c-0.3,0.1-0.9,0.3-1.7,0.3c-1.8,0-3-1.2-3-3c0-1.8,1.2-3.1,3.3-3.1c0.5,0,1.1,0.1,1.4,0.3l-0.3,1.1
				c-0.2-0.1-0.6-0.2-1.1-0.2c-1.1,0-1.8,0.8-1.8,1.9c0,1.2,0.8,1.9,1.8,1.9c0.5,0,0.9-0.1,1.2-0.2L93,117z"/>
			<path class="st28" d="M99.5,114.2c0,2.1-1.5,3.1-3,3.1c-1.7,0-2.9-1.1-2.9-3c0-1.9,1.3-3.1,3-3.1
				C98.3,111.2,99.5,112.4,99.5,114.2z M95.1,114.2c0,1.1,0.6,2,1.5,2c0.8,0,1.4-0.8,1.4-2c0-0.9-0.4-2-1.4-2
				C95.5,112.3,95.1,113.3,95.1,114.2z"/>
			<path class="st28" d="M100.7,113.1c0-0.7,0-1.2,0-1.7h1.3l0.1,0.9h0c0.3-0.5,0.9-1,1.9-1c1,0,2.1,0.7,2.1,2.5v3.5h-1.5v-3.3
				c0-0.8-0.3-1.5-1.1-1.5c-0.6,0-1,0.4-1.2,0.9c0,0.1-0.1,0.3-0.1,0.5v3.4h-1.5V113.1z"/>
			<path class="st28" d="M109.2,109.7v1.7h1.4v1.1h-1.4v2.6c0,0.7,0.2,1.1,0.8,1.1c0.3,0,0.4,0,0.6-0.1l0,1.1
				c-0.2,0.1-0.6,0.1-1.1,0.1c-0.5,0-1-0.2-1.3-0.5c-0.3-0.3-0.5-0.9-0.5-1.6v-2.7h-0.8v-1.1h0.8V110L109.2,109.7z"/>
			<path class="st28" d="M112.7,114.7c0,1.1,0.9,1.5,1.8,1.5c0.7,0,1.2-0.1,1.6-0.3l0.2,1c-0.5,0.2-1.2,0.4-2,0.4c-1.9,0-3-1.2-3-3
				c0-1.6,1-3.1,2.9-3.1c1.9,0,2.5,1.6,2.5,2.8c0,0.3,0,0.5,0,0.6H112.7z M115.3,113.6c0-0.5-0.2-1.4-1.2-1.4
				c-0.9,0-1.3,0.8-1.4,1.4H115.3z"/>
			<path class="st28" d="M117.8,113.1c0-0.7,0-1.2,0-1.7h1.3l0.1,0.9h0c0.3-0.5,0.9-1,1.9-1c1,0,2.1,0.7,2.1,2.5v3.5h-1.5v-3.3
				c0-0.8-0.3-1.5-1.1-1.5c-0.6,0-1,0.4-1.2,0.9c0,0.1-0.1,0.3-0.1,0.5v3.4h-1.5V113.1z"/>
			<path class="st28" d="M126.3,109.7v1.7h1.4v1.1h-1.4v2.6c0,0.7,0.2,1.1,0.8,1.1c0.3,0,0.4,0,0.6-0.1l0,1.1
				c-0.2,0.1-0.6,0.1-1.1,0.1c-0.5,0-1-0.2-1.3-0.5c-0.3-0.3-0.5-0.9-0.5-1.6v-2.7h-0.8v-1.1h0.8V110L126.3,109.7z"/>
		</g>
	</g>
	<circle class="st25" cx="111.9" cy="80.9" r="2.3"/>
</g>
</svg>
