<?xml version="1.0" encoding="utf-8"?>
<!-- Generator: Adobe Illustrator 22.1.0, SVG Export Plug-In . SVG Version: 6.00 Build 0)  -->
<svg version="1.1" xmlns="http://www.w3.org/2000/svg" xmlns:xlink="http://www.w3.org/1999/xlink" x="0px" y="0px" width="350px"
	 height="350px" viewBox="0 0 350 350" style="enable-background:new 0 0 350 350;" xml:space="preserve">
<style type="text/css">
	.st0{fill:#BEE3FF;}
	.st1{fill:#FCDDD6;}
	.st2{fill:none;stroke:#92D1FF;stroke-width:2.3054;stroke-miterlimit:10;}
	.st3{fill:none;stroke:#FBC2BA;stroke-width:2.3054;stroke-miterlimit:10;}
	.st4{fill:#D8E7DA;}
	.st5{fill:none;stroke:#A8D7CD;stroke-width:2.3054;stroke-miterlimit:10;}
	.st6{fill:none;}
	.st7{fill:#F16C51;}
	.st8{fill:#FBC2BA;}
	.st9{fill:#EAC8A5;}
	.st10{fill:#ECE1CE;}
	.st11{fill:#DF9926;}
	.st12{fill:#E6DBE6;}
	.st13{fill:#D0B5D5;}
	.st14{fill:#963596;}
	.st15{display:none;}
	.st16{display:inline;}
	.st17{fill:none;stroke:#000000;stroke-width:0.1397;stroke-miterlimit:10;}
	.st18{fill:#061838;}
	.st19{fill:#4C0519;}
	.st20{fill:none;stroke:#061838;stroke-width:3;stroke-linecap:square;stroke-miterlimit:10;}
	.st21{fill:none;stroke:#061838;stroke-width:3;stroke-miterlimit:10;}
	.st22{fill:none;stroke:#4C0519;stroke-width:3;stroke-linecap:square;stroke-miterlimit:10;}
	.st23{fill:#00321D;}
	.st24{fill:none;stroke:#4C0519;stroke-width:3;stroke-miterlimit:10;}
	.st25{fill:none;stroke:#F4F0EC;stroke-width:1.5;stroke-miterlimit:10;}
	.st26{fill:#F4F0EC;}
	.st27{fill:none;stroke:#F4F0EC;stroke-width:1.5;stroke-linecap:square;stroke-miterlimit:10;}
	.st28{fill:#FFFFFF;}
	.st29{fill:none;stroke:#00321D;stroke-width:3;stroke-linecap:square;stroke-miterlimit:10;}
	.st30{fill:none;stroke:#00321D;stroke-width:3;stroke-miterlimit:10;}
</style>
<g id="Layer_3">
	<g>
		<path class="st9" d="M220.9,134.7l-5.6-5.6l80.6-80.6c-67.6-64.7-174.3-64.7-241.9,0l82,82l-5.6,5.6l-82-82
			c-64.7,67.6-64.7,174.3,0,241.9l80.6-80.6l5.6,5.6l-80.6,80.6c67.6,64.7,174.3,64.7,241.9,0l-79.2-79.2l5.6-5.6l79.2,79.2
			c64.7-67.6,64.7-174.3,0-241.9L220.9,134.7z"/>
		<circle id="XMLID_159_" class="st10" cx="175" cy="175" r="167.9"/>
		<g>
			<path class="st11" d="M127.7,133.3L53.5,59.1c-61.9,64.8-61.9,167,0,231.8l74.2-74.2C106.7,192.9,106.7,157.1,127.7,133.3z"/>
			<path class="st11" d="M216.7,127.7l74.2-74.2c-64.8-61.9-167-61.9-231.8,0l74.2,74.2C157.1,106.7,192.9,106.7,216.7,127.7z"/>
			<path class="st11" d="M133.3,222.3l-74.2,74.2c64.8,61.9,167,61.9,231.8,0l-74.2-74.2C192.9,243.3,157.1,243.3,133.3,222.3z"/>
			<path class="st11" d="M222.3,216.7l74.2,74.2c61.9-64.8,61.9-167,0-231.8l-74.2,74.2C243.3,157.1,243.3,192.9,222.3,216.7z"/>
		</g>
	</g>
</g>
<g id="Layer_4" class="st15">
	<g class="st16">
		<rect x="36.9" y="125.3" class="st17" width="10" height="10"/>
		<rect x="46.9" y="125.3" class="st17" width="10" height="10"/>
		<rect x="56.9" y="125.3" class="st17" width="10" height="10"/>
		<rect x="66.9" y="125.3" class="st17" width="10" height="10"/>
		<rect x="76.9" y="125.3" class="st17" width="10" height="10"/>
		<rect x="86.9" y="125.3" class="st17" width="10" height="10"/>
		<rect x="36.9" y="135.3" class="st17" width="10" height="10"/>
		<rect x="46.9" y="135.3" class="st17" width="10" height="10"/>
		<rect x="56.9" y="135.3" class="st17" width="10" height="10"/>
		<rect x="66.9" y="135.3" class="st17" width="10" height="10"/>
		<rect x="76.9" y="135.3" class="st17" width="10" height="10"/>
		<rect x="86.9" y="135.3" class="st17" width="10" height="10"/>
		<rect x="36.9" y="145.3" class="st17" width="10" height="10"/>
		<rect x="46.9" y="145.3" class="st17" width="10" height="10"/>
		<rect x="56.9" y="145.3" class="st17" width="10" height="10"/>
		<rect x="66.9" y="145.3" class="st17" width="10" height="10"/>
		<rect x="76.9" y="145.3" class="st17" width="10" height="10"/>
		<rect x="86.9" y="145.3" class="st17" width="10" height="10"/>
		<rect x="36.9" y="155.3" class="st17" width="10" height="10"/>
		<rect x="46.9" y="155.3" class="st17" width="10" height="10"/>
		<rect x="56.9" y="155.3" class="st17" width="10" height="10"/>
		<rect x="66.9" y="155.3" class="st17" width="10" height="10"/>
		<rect x="76.9" y="155.3" class="st17" width="10" height="10"/>
		<rect x="86.9" y="155.3" class="st17" width="10" height="10"/>
		<rect x="36.9" y="165.3" class="st17" width="10" height="10"/>
		<rect x="46.9" y="165.3" class="st17" width="10" height="10"/>
		<rect x="56.9" y="165.3" class="st17" width="10" height="10"/>
		<rect x="66.9" y="165.3" class="st17" width="10" height="10"/>
		<rect x="76.9" y="165.3" class="st17" width="10" height="10"/>
		<rect x="86.9" y="165.3" class="st17" width="10" height="10"/>
		<rect x="36.9" y="175.3" class="st17" width="10" height="10"/>
		<rect x="46.9" y="175.3" class="st17" width="10" height="10"/>
		<rect x="56.9" y="175.3" class="st17" width="10" height="10"/>
		<rect x="66.9" y="175.3" class="st17" width="10" height="10"/>
		<rect x="76.9" y="175.3" class="st17" width="10" height="10"/>
		<rect x="86.9" y="175.3" class="st17" width="10" height="10"/>
		<rect x="36.9" y="185.3" class="st17" width="10" height="10"/>
		<rect x="46.9" y="185.3" class="st17" width="10" height="10"/>
		<rect x="56.9" y="185.3" class="st17" width="10" height="10"/>
		<rect x="66.9" y="185.3" class="st17" width="10" height="10"/>
		<rect x="76.9" y="185.3" class="st17" width="10" height="10"/>
		<rect x="86.9" y="185.3" class="st17" width="10" height="10"/>
	</g>
	<g class="st16">
		<rect x="145" y="24.4" class="st17" width="10" height="10"/>
		<rect x="155" y="24.4" class="st17" width="10" height="10"/>
		<rect x="165" y="24.4" class="st17" width="10" height="10"/>
		<rect x="175" y="24.4" class="st17" width="10" height="10"/>
		<rect x="185" y="24.4" class="st17" width="10" height="10"/>
		<rect x="195" y="24.4" class="st17" width="10" height="10"/>
		<rect x="145" y="34.4" class="st17" width="10" height="10"/>
		<rect x="155" y="34.4" class="st17" width="10" height="10"/>
		<rect x="165" y="34.4" class="st17" width="10" height="10"/>
		<rect x="175" y="34.4" class="st17" width="10" height="10"/>
		<rect x="185" y="34.4" class="st17" width="10" height="10"/>
		<rect x="195" y="34.4" class="st17" width="10" height="10"/>
		<rect x="145" y="44.4" class="st17" width="10" height="10"/>
		<rect x="155" y="44.4" class="st17" width="10" height="10"/>
		<rect x="165" y="44.4" class="st17" width="10" height="10"/>
		<rect x="175" y="44.4" class="st17" width="10" height="10"/>
		<rect x="185" y="44.4" class="st17" width="10" height="10"/>
		<rect x="195" y="44.4" class="st17" width="10" height="10"/>
		<rect x="145" y="54.4" class="st17" width="10" height="10"/>
		<rect x="155" y="54.4" class="st17" width="10" height="10"/>
		<rect x="165" y="54.4" class="st17" width="10" height="10"/>
		<rect x="175" y="54.4" class="st17" width="10" height="10"/>
		<rect x="185" y="54.4" class="st17" width="10" height="10"/>
		<rect x="195" y="54.4" class="st17" width="10" height="10"/>
		<rect x="145" y="64.4" class="st17" width="10" height="10"/>
		<rect x="155" y="64.4" class="st17" width="10" height="10"/>
		<rect x="165" y="64.4" class="st17" width="10" height="10"/>
		<rect x="175" y="64.4" class="st17" width="10" height="10"/>
		<rect x="185" y="64.4" class="st17" width="10" height="10"/>
		<rect x="195" y="64.4" class="st17" width="10" height="10"/>
		<rect x="145" y="74.4" class="st17" width="10" height="10"/>
		<rect x="155" y="74.4" class="st17" width="10" height="10"/>
		<rect x="165" y="74.4" class="st17" width="10" height="10"/>
		<rect x="175" y="74.4" class="st17" width="10" height="10"/>
		<rect x="185" y="74.4" class="st17" width="10" height="10"/>
		<rect x="195" y="74.4" class="st17" width="10" height="10"/>
		<rect x="145" y="84.4" class="st17" width="10" height="10"/>
		<rect x="155" y="84.4" class="st17" width="10" height="10"/>
		<rect x="165" y="84.4" class="st17" width="10" height="10"/>
		<rect x="175" y="84.4" class="st17" width="10" height="10"/>
		<rect x="185" y="84.4" class="st17" width="10" height="10"/>
		<rect x="195" y="84.4" class="st17" width="10" height="10"/>
	</g>
	<g class="st16">
		<rect x="257.4" y="129.2" class="st17" width="10" height="10"/>
		<rect x="267.4" y="129.2" class="st17" width="10" height="10"/>
		<rect x="277.4" y="129.2" class="st17" width="10" height="10"/>
		<rect x="287.4" y="129.2" class="st17" width="10" height="10"/>
		<rect x="297.4" y="129.2" class="st17" width="10" height="10"/>
		<rect x="307.4" y="129.2" class="st17" width="10" height="10"/>
		<rect x="257.4" y="139.2" class="st17" width="10" height="10"/>
		<rect x="267.4" y="139.2" class="st17" width="10" height="10"/>
		<rect x="277.4" y="139.2" class="st17" width="10" height="10"/>
		<rect x="287.4" y="139.2" class="st17" width="10" height="10"/>
		<rect x="297.4" y="139.2" class="st17" width="10" height="10"/>
		<rect x="307.4" y="139.2" class="st17" width="10" height="10"/>
		<rect x="257.4" y="149.2" class="st17" width="10" height="10"/>
		<rect x="267.4" y="149.2" class="st17" width="10" height="10"/>
		<rect x="277.4" y="149.2" class="st17" width="10" height="10"/>
		<rect x="287.4" y="149.2" class="st17" width="10" height="10"/>
		<rect x="297.4" y="149.2" class="st17" width="10" height="10"/>
		<rect x="307.4" y="149.2" class="st17" width="10" height="10"/>
		<rect x="257.4" y="159.2" class="st17" width="10" height="10"/>
		<rect x="267.4" y="159.2" class="st17" width="10" height="10"/>
		<rect x="277.4" y="159.2" class="st17" width="10" height="10"/>
		<rect x="287.4" y="159.2" class="st17" width="10" height="10"/>
		<rect x="297.4" y="159.2" class="st17" width="10" height="10"/>
		<rect x="307.4" y="159.2" class="st17" width="10" height="10"/>
		<rect x="257.4" y="169.2" class="st17" width="10" height="10"/>
		<rect x="267.4" y="169.2" class="st17" width="10" height="10"/>
		<rect x="277.4" y="169.2" class="st17" width="10" height="10"/>
		<rect x="287.4" y="169.2" class="st17" width="10" height="10"/>
		<rect x="297.4" y="169.2" class="st17" width="10" height="10"/>
		<rect x="307.4" y="169.2" class="st17" width="10" height="10"/>
		<rect x="257.4" y="179.2" class="st17" width="10" height="10"/>
		<rect x="267.4" y="179.2" class="st17" width="10" height="10"/>
		<rect x="277.4" y="179.2" class="st17" width="10" height="10"/>
		<rect x="287.4" y="179.2" class="st17" width="10" height="10"/>
		<rect x="297.4" y="179.2" class="st17" width="10" height="10"/>
		<rect x="307.4" y="179.2" class="st17" width="10" height="10"/>
		<rect x="257.4" y="189.2" class="st17" width="10" height="10"/>
		<rect x="267.4" y="189.2" class="st17" width="10" height="10"/>
		<rect x="277.4" y="189.2" class="st17" width="10" height="10"/>
		<rect x="287.4" y="189.2" class="st17" width="10" height="10"/>
		<rect x="297.4" y="189.2" class="st17" width="10" height="10"/>
		<rect x="307.4" y="189.2" class="st17" width="10" height="10"/>
	</g>
	<g class="st16">
		<rect x="143.9" y="238.2" class="st17" width="10" height="10"/>
		<rect x="153.9" y="238.2" class="st17" width="10" height="10"/>
		<rect x="163.9" y="238.2" class="st17" width="10" height="10"/>
		<rect x="173.9" y="238.2" class="st17" width="10" height="10"/>
		<rect x="183.9" y="238.2" class="st17" width="10" height="10"/>
		<rect x="193.9" y="238.2" class="st17" width="10" height="10"/>
		<rect x="143.9" y="248.2" class="st17" width="10" height="10"/>
		<rect x="153.9" y="248.2" class="st17" width="10" height="10"/>
		<rect x="163.9" y="248.2" class="st17" width="10" height="10"/>
		<rect x="173.9" y="248.2" class="st17" width="10" height="10"/>
		<rect x="183.9" y="248.2" class="st17" width="10" height="10"/>
		<rect x="193.9" y="248.2" class="st17" width="10" height="10"/>
		<rect x="143.9" y="258.2" class="st17" width="10" height="10"/>
		<rect x="153.9" y="258.2" class="st17" width="10" height="10"/>
		<rect x="163.9" y="258.2" class="st17" width="10" height="10"/>
		<rect x="173.9" y="258.2" class="st17" width="10" height="10"/>
		<rect x="183.9" y="258.2" class="st17" width="10" height="10"/>
		<rect x="193.9" y="258.2" class="st17" width="10" height="10"/>
		<rect x="143.9" y="268.2" class="st17" width="10" height="10"/>
		<rect x="153.9" y="268.2" class="st17" width="10" height="10"/>
		<rect x="163.9" y="268.2" class="st17" width="10" height="10"/>
		<rect x="173.9" y="268.2" class="st17" width="10" height="10"/>
		<rect x="183.9" y="268.2" class="st17" width="10" height="10"/>
		<rect x="193.9" y="268.2" class="st17" width="10" height="10"/>
		<rect x="143.9" y="278.2" class="st17" width="10" height="10"/>
		<rect x="153.9" y="278.2" class="st17" width="10" height="10"/>
		<rect x="163.9" y="278.2" class="st17" width="10" height="10"/>
		<rect x="173.9" y="278.2" class="st17" width="10" height="10"/>
		<rect x="183.9" y="278.2" class="st17" width="10" height="10"/>
		<rect x="193.9" y="278.2" class="st17" width="10" height="10"/>
		<rect x="143.9" y="288.2" class="st17" width="10" height="10"/>
		<rect x="153.9" y="288.2" class="st17" width="10" height="10"/>
		<rect x="163.9" y="288.2" class="st17" width="10" height="10"/>
		<rect x="173.9" y="288.2" class="st17" width="10" height="10"/>
		<rect x="183.9" y="288.2" class="st17" width="10" height="10"/>
		<rect x="193.9" y="288.2" class="st17" width="10" height="10"/>
		<rect x="143.9" y="298.2" class="st17" width="10" height="10"/>
		<rect x="153.9" y="298.2" class="st17" width="10" height="10"/>
		<rect x="163.9" y="298.2" class="st17" width="10" height="10"/>
		<rect x="173.9" y="298.2" class="st17" width="10" height="10"/>
		<rect x="183.9" y="298.2" class="st17" width="10" height="10"/>
		<rect x="193.9" y="298.2" class="st17" width="10" height="10"/>
	</g>
</g>
<g id="Layer_1">
	<g>
		<g>
			<g>
				<path id="XMLID_30_" class="st27" d="M167.9,49.2h-5.8c-1.9,0-3.4,1.5-3.4,3.4v0.3c0,1.9,1.5,3.4,3.4,3.4h2.8
					c1.9,0,3.4,1.5,3.4,3.4v0c0,1.9-1.5,3.4-3.4,3.4h-5.7"/>
				<line id="XMLID_29_" class="st27" x1="163.7" y1="49.2" x2="163.7" y2="46.5"/>
				<line id="XMLID_28_" class="st27" x1="163.7" y1="63.1" x2="163.7" y2="65.4"/>
			</g>
			<g>
				<g>
					<polyline class="st25" points="197.9,58 197.9,71.7 150,71.7 150,39.8 173,39.8 					"/>
					<g>
						<polygon class="st26" points="194.9,58.9 197.9,53.7 200.9,58.9 						"/>
					</g>
				</g>
			</g>
		</g>
		<rect x="180.8" y="34.4" class="st25" width="6.7" height="10.6"/>
		<polygon class="st25" points="197.7,49.3 187.6,45.1 187.6,34.4 197.7,30.2 		"/>
		<circle class="st25" cx="175.8" cy="39.8" r="2.3"/>
	</g>
	<g>
		<line class="st25" x1="289.7" y1="136.1" x2="295.6" y2="136.1"/>
		<line class="st25" x1="278.1" y1="136.1" x2="284" y2="136.1"/>
		<polyline class="st25" points="296.9,187.4 266.3,187.4 266.3,136.1 272.2,136.1 		"/>
		<g>
			<g>
				<polyline class="st25" points="301.4,136.1 307.3,136.1 307.3,183.3 				"/>
				<g>
					<polygon class="st26" points="304.3,182.4 307.3,187.6 310.3,182.4 					"/>
				</g>
			</g>
		</g>
		<line class="st25" x1="275" y1="132.2" x2="275" y2="139.7"/>
		<line class="st25" x1="286.8" y1="132.2" x2="286.8" y2="139.7"/>
		<line class="st25" x1="298.7" y1="132.2" x2="298.7" y2="139.7"/>
		<g id="XMLID_21_">
			<ellipse id="XMLID_26_" class="st25" cx="286.9" cy="157.5" rx="11.9" ry="12.2"/>
			<ellipse id="XMLID_24_" class="st25" cx="286.9" cy="157.5" rx="5.5" ry="12.2"/>
			<line id="XMLID_22_" class="st25" x1="275" y1="157.5" x2="298.8" y2="157.5"/>
			<path class="st25" d="M278,165.6c0,0,7.3-2.1,17.8,0"/>
			<path class="st25" d="M278,149.6c0,0,7.3,2.1,17.8,0"/>
		</g>
		<line class="st25" x1="273.8" y1="179.7" x2="282.4" y2="179.7"/>
		<circle class="st25" cx="298.8" cy="187.4" r="2.3"/>
	</g>
	<g>
		<g>
			<path class="st25" d="M191.3,268.7c3.5,3.5,5.3,6.9,5.3,6.9s-8.5,14.9-23.5,14.9c-15,0-23.5-14.9-23.5-14.9s8.4-14.9,23.5-14.9
				c6.1,0,11,2.3,14.8,5.2"/>
			<path class="st25" d="M183.8,273.2c0.2,0.8,0.3,1.5,0.3,2.3c0,6-4.9,10.9-10.9,10.9c-6,0-10.9-4.9-10.9-10.9s4.9-10.9,10.9-10.9
				c2.7,0,5.1,1,7,2.5"/>
			<circle class="st25" cx="173.1" cy="275.6" r="2.3"/>
		</g>
		<g>
			<g>
				<polyline class="st25" points="174.9,274.2 182.6,267.7 186.4,271 194.5,261.7 				"/>
				<g>
					<polygon class="st26" points="196.2,264.4 197.4,258.5 191.7,260.4 					"/>
				</g>
			</g>
		</g>
	</g>
	<g>
		<g>
			<path class="st28" d="M148.4,88.6c-0.3,0.2-1.1,0.4-2.1,0.4c-2.6,0-4.1-1.6-4.1-4.1c0-2.7,1.8-4.3,4.3-4.3c1,0,1.7,0.2,2,0.4
				l-0.3,1.2c-0.4-0.2-0.9-0.3-1.6-0.3c-1.6,0-2.8,1-2.8,3c0,1.8,1,2.9,2.8,2.9c0.6,0,1.2-0.1,1.6-0.3L148.4,88.6z"/>
			<path class="st28" d="M152.8,88.8l-0.1-0.6h0c-0.4,0.5-1,0.8-1.7,0.8c-1.2,0-1.8-0.9-1.8-1.7c0-1.5,1.3-2.2,3.5-2.2v-0.1
				c0-0.4-0.2-1-1.2-1c-0.6,0-1.2,0.2-1.6,0.4l-0.3-1c0.4-0.3,1.2-0.5,2.1-0.5c1.9,0,2.4,1.2,2.4,2.5v2.1c0,0.5,0,1,0.1,1.4H152.8z
				 M152.6,86c-1,0-2,0.2-2,1.1c0,0.6,0.4,0.8,0.8,0.8c0.6,0,1-0.4,1.2-0.8c0-0.1,0-0.2,0-0.3V86z"/>
			<path class="st28" d="M155.6,84.7c0-0.7,0-1.2,0-1.7h1.3l0.1,0.9h0c0.3-0.5,0.8-1,1.8-1c0.8,0,1.4,0.4,1.6,1.1h0
				c0.2-0.3,0.4-0.6,0.7-0.7c0.3-0.2,0.7-0.3,1.2-0.3c1,0,2,0.7,2,2.5v3.4h-1.4v-3.2c0-1-0.3-1.5-1-1.5c-0.5,0-0.9,0.4-1,0.8
				c0,0.1-0.1,0.3-0.1,0.5v3.5h-1.4v-3.4c0-0.8-0.3-1.4-1-1.4c-0.6,0-0.9,0.4-1.1,0.8c-0.1,0.1-0.1,0.3-0.1,0.5v3.5h-1.4V84.7z"/>
			<path class="st28" d="M165.8,84.9c0-0.8,0-1.4,0-1.9h1.3l0.1,0.9h0c0.4-0.7,1.1-1,2-1c1.3,0,2.5,1.2,2.5,3c0,2.1-1.3,3.1-2.7,3.1
				c-0.7,0-1.3-0.3-1.6-0.8h0v3h-1.5V84.9z M167.2,86.4c0,0.1,0,0.3,0,0.4c0.1,0.6,0.7,1,1.3,1c0.9,0,1.5-0.8,1.5-1.9
				c0-1-0.5-1.9-1.5-1.9c-0.6,0-1.2,0.4-1.3,1.1c0,0.1-0.1,0.3-0.1,0.4V86.4z"/>
			<path class="st28" d="M176.1,88.8l-0.1-0.6h0c-0.4,0.5-1,0.8-1.7,0.8c-1.2,0-1.8-0.9-1.8-1.7c0-1.5,1.3-2.2,3.5-2.2v-0.1
				c0-0.4-0.2-1-1.2-1c-0.6,0-1.2,0.2-1.6,0.4l-0.3-1c0.4-0.3,1.2-0.5,2.1-0.5c1.9,0,2.4,1.2,2.4,2.5v2.1c0,0.5,0,1,0.1,1.4H176.1z
				 M175.9,86c-1,0-2,0.2-2,1.1c0,0.6,0.4,0.8,0.8,0.8c0.6,0,1-0.4,1.2-0.8c0-0.1,0-0.2,0-0.3V86z"/>
			<path class="st28" d="M180.5,81.3c0,0.4-0.3,0.8-0.8,0.8c-0.5,0-0.8-0.3-0.8-0.8c0-0.5,0.3-0.8,0.8-0.8
				C180.1,80.5,180.4,80.9,180.5,81.3z M178.9,88.8V83h1.5v5.8H178.9z"/>
			<path class="st28" d="M187.3,83c0,0.4,0,0.9,0,1.7V88c0,1.2-0.3,2.1-0.9,2.7c-0.6,0.5-1.5,0.7-2.3,0.7c-0.7,0-1.5-0.2-2-0.5
				l0.3-1.1c0.4,0.2,1,0.4,1.7,0.4c1,0,1.7-0.5,1.7-1.8v-0.5h0c-0.3,0.5-0.9,0.9-1.7,0.9c-1.5,0-2.5-1.2-2.5-2.9
				c0-1.9,1.2-3.1,2.7-3.1c0.9,0,1.4,0.4,1.7,0.9h0L186,83H187.3z M185.8,85.3c0-0.1,0-0.3,0-0.4c-0.2-0.5-0.6-0.9-1.2-0.9
				c-0.8,0-1.4,0.7-1.4,1.9c0,1,0.5,1.8,1.4,1.8c0.6,0,1-0.4,1.2-0.9c0-0.2,0.1-0.4,0.1-0.5V85.3z"/>
			<path class="st28" d="M188.8,84.7c0-0.7,0-1.2,0-1.7h1.3l0.1,0.9h0c0.3-0.5,0.9-1,1.9-1c1,0,2.1,0.7,2.1,2.5v3.5h-1.5v-3.3
				c0-0.8-0.3-1.5-1.1-1.5c-0.6,0-1,0.4-1.2,0.9c0,0.1-0.1,0.3-0.1,0.5v3.4h-1.5V84.7z"/>
			<path class="st28" d="M199.8,81.3V83h1.4v1.1h-1.4v2.6c0,0.7,0.2,1.1,0.8,1.1c0.3,0,0.4,0,0.6-0.1l0,1.1
				c-0.2,0.1-0.6,0.1-1.1,0.1c-0.5,0-1-0.2-1.3-0.5c-0.3-0.3-0.5-0.9-0.5-1.6v-2.7h-0.8V83h0.8v-1.3L199.8,81.3z"/>
			<path class="st28" d="M207.8,85.8c0,2.1-1.5,3.1-3,3.1c-1.7,0-2.9-1.1-2.9-3c0-1.9,1.3-3.1,3-3.1
				C206.7,82.8,207.8,84.1,207.8,85.8z M203.4,85.9c0,1.1,0.6,2,1.5,2c0.8,0,1.4-0.8,1.4-2c0-0.9-0.4-2-1.4-2
				C203.8,83.9,203.4,84.9,203.4,85.9z"/>
			<path class="st28" d="M147.5,100.3c-0.3,0.1-0.9,0.3-1.7,0.3c-1.8,0-3-1.2-3-3c0-1.8,1.2-3.1,3.3-3.1c0.5,0,1.1,0.1,1.4,0.3
				l-0.3,1.1c-0.2-0.1-0.6-0.2-1.1-0.2c-1.1,0-1.8,0.8-1.8,1.9c0,1.2,0.8,1.9,1.8,1.9c0.5,0,0.9-0.1,1.2-0.2L147.5,100.3z"/>
			<path class="st28" d="M151.8,100.5l-0.1-0.6h0c-0.4,0.5-1,0.8-1.7,0.8c-1.2,0-1.8-0.9-1.8-1.7c0-1.5,1.3-2.2,3.5-2.2v-0.1
				c0-0.4-0.2-1-1.2-1c-0.6,0-1.2,0.2-1.6,0.4l-0.3-1c0.4-0.3,1.2-0.5,2.1-0.5c1.9,0,2.4,1.2,2.4,2.5v2.1c0,0.5,0,1,0.1,1.4H151.8z
				 M151.6,97.6c-1,0-2,0.2-2,1.1c0,0.6,0.4,0.8,0.8,0.8c0.6,0,1-0.4,1.2-0.8c0-0.1,0-0.2,0-0.3V97.6z"/>
			<path class="st28" d="M154.6,99.1c0.3,0.2,1,0.4,1.5,0.4c0.6,0,0.9-0.3,0.9-0.6c0-0.4-0.2-0.6-1-0.9c-1.1-0.4-1.6-1-1.6-1.7
				c0-1,0.9-1.8,2.2-1.8c0.6,0,1.2,0.2,1.5,0.3l-0.3,1c-0.3-0.1-0.7-0.3-1.2-0.3c-0.5,0-0.8,0.3-0.8,0.6c0,0.4,0.3,0.6,1,0.8
				c1.1,0.4,1.5,0.9,1.6,1.8c0,1.1-0.8,1.8-2.4,1.8c-0.7,0-1.3-0.2-1.8-0.4L154.6,99.1z"/>
			<path class="st28" d="M159.6,92h1.5v3.5h0c0.2-0.3,0.4-0.5,0.7-0.7c0.3-0.2,0.6-0.3,1-0.3c1,0,2,0.7,2,2.5v3.4h-1.5v-3.3
				c0-0.9-0.3-1.5-1.1-1.5c-0.6,0-1,0.4-1.1,0.8c0,0.1-0.1,0.3-0.1,0.4v3.5h-1.5V92z"/>
			<path class="st28" d="M169,96.6c0-0.8,0-1.4,0-1.9h1.3l0.1,0.9h0c0.4-0.7,1.1-1,2-1c1.3,0,2.5,1.2,2.5,3c0,2.1-1.3,3.1-2.7,3.1
				c-0.7,0-1.3-0.3-1.6-0.8h0v3H169V96.6z M170.5,98c0,0.1,0,0.3,0,0.4c0.1,0.6,0.7,1,1.3,1c0.9,0,1.5-0.8,1.5-1.9
				c0-1-0.5-1.9-1.5-1.9c-0.6,0-1.2,0.4-1.3,1.1c0,0.1-0.1,0.3-0.1,0.4V98z"/>
			<path class="st28" d="M176,96.5c0-0.8,0-1.4,0-1.9h1.3l0,1.1h0c0.3-0.8,1-1.2,1.6-1.2c0.1,0,0.2,0,0.3,0v1.4c-0.1,0-0.3,0-0.4,0
				c-0.7,0-1.2,0.5-1.3,1.1c0,0.1,0,0.3,0,0.5v3H176V96.5z"/>
			<path class="st28" d="M185.7,97.5c0,2.1-1.5,3.1-3,3.1c-1.7,0-2.9-1.1-2.9-3c0-1.9,1.3-3.1,3-3.1
				C184.6,94.5,185.7,95.7,185.7,97.5z M181.3,97.6c0,1.1,0.6,2,1.5,2c0.8,0,1.4-0.8,1.4-2c0-0.9-0.4-2-1.4-2
				C181.7,95.6,181.3,96.6,181.3,97.6z"/>
			<path class="st28" d="M191.2,100.3c-0.3,0.1-0.9,0.3-1.7,0.3c-1.8,0-3-1.2-3-3c0-1.8,1.2-3.1,3.3-3.1c0.5,0,1.1,0.1,1.4,0.3
				l-0.3,1.1c-0.2-0.1-0.6-0.2-1.1-0.2c-1.1,0-1.8,0.8-1.8,1.9c0,1.2,0.8,1.9,1.8,1.9c0.5,0,0.9-0.1,1.2-0.2L191.2,100.3z"/>
			<path class="st28" d="M193.3,98c0,1.1,0.9,1.5,1.8,1.5c0.7,0,1.2-0.1,1.6-0.3l0.2,1c-0.5,0.2-1.2,0.4-2,0.4c-1.9,0-3-1.2-3-3
				c0-1.6,1-3.1,2.9-3.1c1.9,0,2.5,1.6,2.5,2.8c0,0.3,0,0.5,0,0.6H193.3z M195.8,96.9c0-0.5-0.2-1.4-1.2-1.4c-0.9,0-1.3,0.8-1.4,1.4
				H195.8z"/>
			<path class="st28" d="M198.3,99.1c0.3,0.2,1,0.4,1.5,0.4c0.6,0,0.9-0.3,0.9-0.6c0-0.4-0.2-0.6-1-0.9c-1.1-0.4-1.6-1-1.6-1.7
				c0-1,0.9-1.8,2.2-1.8c0.6,0,1.2,0.2,1.5,0.3l-0.3,1c-0.3-0.1-0.7-0.3-1.2-0.3c-0.5,0-0.8,0.3-0.8,0.6c0,0.4,0.3,0.6,1,0.8
				c1.1,0.4,1.5,0.9,1.6,1.8c0,1.1-0.8,1.8-2.4,1.8c-0.7,0-1.3-0.2-1.8-0.4L198.3,99.1z"/>
			<path class="st28" d="M203.3,99.1c0.3,0.2,1,0.4,1.5,0.4c0.6,0,0.9-0.3,0.9-0.6c0-0.4-0.2-0.6-1-0.9c-1.1-0.4-1.6-1-1.6-1.7
				c0-1,0.9-1.8,2.2-1.8c0.6,0,1.2,0.2,1.5,0.3l-0.3,1c-0.3-0.1-0.7-0.3-1.2-0.3c-0.5,0-0.8,0.3-0.8,0.6c0,0.4,0.3,0.6,1,0.8
				c1.1,0.4,1.5,0.9,1.6,1.8c0,1.1-0.8,1.8-2.4,1.8c-0.7,0-1.3-0.2-1.8-0.4L203.3,99.1z"/>
		</g>
	</g>
	<g>
		<g>
			<path class="st28" d="M258.3,200.6v8.1h-1.5v-8.1H258.3z"/>
			<path class="st28" d="M260,200.7c0.5-0.1,1.3-0.2,2.3-0.2c1.1,0,1.9,0.2,2.4,0.7c0.5,0.4,0.8,1,0.8,1.8c0,0.8-0.2,1.4-0.7,1.8
				c-0.6,0.6-1.5,0.9-2.6,0.9c-0.3,0-0.5,0-0.7,0v3H260V200.7z M261.5,204.5c0.2,0,0.4,0.1,0.7,0.1c1.1,0,1.8-0.5,1.8-1.5
				c0-0.9-0.6-1.4-1.6-1.4c-0.4,0-0.7,0-0.9,0.1V204.5z"/>
			<path class="st28" d="M272.4,208.7l-0.1-0.6h0c-0.4,0.5-1,0.8-1.7,0.8c-1.2,0-1.8-0.9-1.8-1.7c0-1.5,1.3-2.2,3.5-2.2v-0.1
				c0-0.4-0.2-1-1.2-1c-0.6,0-1.2,0.2-1.6,0.4l-0.3-1c0.4-0.3,1.2-0.5,2.1-0.5c1.9,0,2.4,1.2,2.4,2.5v2.1c0,0.5,0,1,0.1,1.4H272.4z
				 M272.2,205.9c-1,0-2,0.2-2,1.1c0,0.6,0.4,0.8,0.8,0.8c0.6,0,1-0.4,1.2-0.8c0-0.1,0-0.2,0-0.3V205.9z"/>
			<path class="st28" d="M275.2,204.6c0-0.7,0-1.2,0-1.7h1.3l0.1,0.9h0c0.3-0.5,0.9-1,1.9-1c1,0,2.1,0.7,2.1,2.5v3.5h-1.5v-3.3
				c0-0.8-0.3-1.5-1.1-1.5c-0.6,0-1,0.4-1.2,0.9c0,0.1-0.1,0.3-0.1,0.5v3.4h-1.5V204.6z"/>
			<path class="st28" d="M287.5,200.2v6.9c0,0.6,0,1.2,0,1.6h-1.3l-0.1-0.9h0c-0.3,0.6-1.1,1.1-1.9,1.1c-1.4,0-2.5-1.2-2.5-3
				c0-2,1.2-3.1,2.6-3.1c0.8,0,1.4,0.3,1.6,0.8h0v-3.3H287.5z M286,205.3c0-0.1,0-0.3,0-0.4c-0.1-0.6-0.6-1-1.3-1
				c-0.9,0-1.5,0.8-1.5,1.9c0,1.1,0.5,1.8,1.5,1.8c0.6,0,1.1-0.4,1.3-1c0-0.1,0-0.3,0-0.4V205.3z"/>
			<path class="st28" d="M291.6,204.7c0-0.8,0-1.4,0-1.9h1.3l0,1.1h0c0.3-0.8,1-1.2,1.6-1.2c0.1,0,0.2,0,0.3,0v1.4
				c-0.1,0-0.3,0-0.4,0c-0.7,0-1.2,0.5-1.3,1.1c0,0.1,0,0.3,0,0.5v3h-1.5V204.7z"/>
			<path class="st28" d="M297.4,201.2c0,0.4-0.3,0.8-0.8,0.8c-0.5,0-0.8-0.3-0.8-0.8c0-0.5,0.3-0.8,0.8-0.8
				C297.1,200.4,297.4,200.8,297.4,201.2z M295.8,208.7v-5.8h1.5v5.8H295.8z"/>
			<path class="st28" d="M304.2,202.9c0,0.4,0,0.9,0,1.7v3.3c0,1.2-0.3,2.1-0.9,2.7c-0.6,0.5-1.5,0.7-2.3,0.7c-0.7,0-1.5-0.2-2-0.5
				l0.3-1.1c0.4,0.2,1,0.4,1.7,0.4c1,0,1.7-0.5,1.7-1.8v-0.5h0c-0.3,0.5-0.9,0.9-1.7,0.9c-1.5,0-2.5-1.2-2.5-2.9
				c0-1.9,1.2-3.1,2.7-3.1c0.9,0,1.4,0.4,1.7,0.9h0l0.1-0.8H304.2z M302.7,205.2c0-0.1,0-0.3,0-0.4c-0.2-0.5-0.6-0.9-1.2-0.9
				c-0.8,0-1.4,0.7-1.4,1.9c0,1,0.5,1.8,1.4,1.8c0.6,0,1-0.4,1.2-0.9c0-0.2,0.1-0.4,0.1-0.5V205.2z"/>
			<path class="st28" d="M305.8,200.2h1.5v3.5h0c0.2-0.3,0.4-0.5,0.7-0.7c0.3-0.2,0.6-0.3,1-0.3c1,0,2,0.7,2,2.5v3.4h-1.5v-3.3
				c0-0.9-0.3-1.5-1.1-1.5c-0.6,0-1,0.4-1.1,0.8c0,0.1-0.1,0.3-0.1,0.4v3.5h-1.5V200.2z"/>
			<path class="st28" d="M314.3,201.2v1.7h1.4v1.1h-1.4v2.6c0,0.7,0.2,1.1,0.8,1.1c0.3,0,0.4,0,0.6-0.1l0,1.1
				c-0.2,0.1-0.6,0.1-1.1,0.1c-0.5,0-1-0.2-1.3-0.5c-0.3-0.3-0.5-0.9-0.5-1.6V204H312v-1.1h0.8v-1.3L314.3,201.2z"/>
			<path class="st28" d="M316.7,207.4c0.3,0.2,1,0.4,1.5,0.4c0.6,0,0.9-0.3,0.9-0.6c0-0.4-0.2-0.6-1-0.9c-1.1-0.4-1.6-1-1.6-1.7
				c0-1,0.9-1.8,2.2-1.8c0.6,0,1.2,0.2,1.5,0.3l-0.3,1c-0.3-0.1-0.7-0.3-1.2-0.3c-0.5,0-0.8,0.3-0.8,0.6c0,0.4,0.3,0.6,1,0.8
				c1.1,0.4,1.5,0.9,1.6,1.8c0,1.1-0.8,1.8-2.4,1.8c-0.7,0-1.3-0.2-1.8-0.4L316.7,207.4z"/>
			<path class="st28" d="M254.4,216.3c0-0.7,0-1.2,0-1.7h1.3l0.1,0.9h0c0.3-0.5,0.8-1,1.8-1c0.8,0,1.4,0.4,1.6,1.1h0
				c0.2-0.3,0.4-0.6,0.7-0.7c0.3-0.2,0.7-0.3,1.2-0.3c1,0,2,0.7,2,2.5v3.4h-1.4v-3.2c0-1-0.3-1.5-1-1.5c-0.5,0-0.9,0.4-1,0.8
				c0,0.1-0.1,0.3-0.1,0.5v3.5H258V217c0-0.8-0.3-1.4-1-1.4c-0.6,0-0.9,0.4-1.1,0.8c-0.1,0.1-0.1,0.3-0.1,0.5v3.5h-1.4V216.3z"/>
			<path class="st28" d="M267.9,220.4l-0.1-0.6h0c-0.4,0.5-1,0.8-1.7,0.8c-1.2,0-1.8-0.9-1.8-1.7c0-1.5,1.3-2.2,3.5-2.2v-0.1
				c0-0.4-0.2-1-1.2-1c-0.6,0-1.2,0.2-1.6,0.4l-0.3-1c0.4-0.3,1.2-0.5,2.1-0.5c1.9,0,2.4,1.2,2.4,2.5v2.1c0,0.5,0,1,0.1,1.4H267.9z
				 M267.7,217.5c-1,0-2,0.2-2,1.1c0,0.6,0.4,0.8,0.8,0.8c0.6,0,1-0.4,1.2-0.8c0-0.1,0-0.2,0-0.3V217.5z"/>
			<path class="st28" d="M270.7,216.3c0-0.7,0-1.2,0-1.7h1.3l0.1,0.9h0c0.3-0.5,0.9-1,1.9-1c1,0,2.1,0.7,2.1,2.5v3.5h-1.5v-3.3
				c0-0.8-0.3-1.5-1.1-1.5c-0.6,0-1,0.4-1.2,0.9c0,0.1-0.1,0.3-0.1,0.5v3.4h-1.5V216.3z"/>
			<path class="st28" d="M280.9,220.4l-0.1-0.6h0c-0.4,0.5-1,0.8-1.7,0.8c-1.2,0-1.8-0.9-1.8-1.7c0-1.5,1.3-2.2,3.5-2.2v-0.1
				c0-0.4-0.2-1-1.2-1c-0.6,0-1.2,0.2-1.6,0.4l-0.3-1c0.4-0.3,1.2-0.5,2.1-0.5c1.9,0,2.4,1.2,2.4,2.5v2.1c0,0.5,0,1,0.1,1.4H280.9z
				 M280.7,217.5c-1,0-2,0.2-2,1.1c0,0.6,0.4,0.8,0.8,0.8c0.6,0,1-0.4,1.2-0.8c0-0.1,0-0.2,0-0.3V217.5z"/>
			<path class="st28" d="M289,214.5c0,0.4,0,0.9,0,1.7v3.3c0,1.2-0.3,2.1-0.9,2.7c-0.6,0.5-1.5,0.7-2.3,0.7c-0.7,0-1.5-0.2-2-0.5
				l0.3-1.1c0.4,0.2,1,0.4,1.7,0.4c1,0,1.7-0.5,1.7-1.8v-0.5h0c-0.3,0.5-0.9,0.9-1.7,0.9c-1.5,0-2.5-1.2-2.5-2.9
				c0-1.9,1.2-3.1,2.7-3.1c0.9,0,1.4,0.4,1.7,0.9h0l0.1-0.8H289z M287.5,216.9c0-0.1,0-0.3,0-0.4c-0.2-0.5-0.6-0.9-1.2-0.9
				c-0.8,0-1.4,0.7-1.4,1.9c0,1,0.5,1.8,1.4,1.8c0.6,0,1-0.4,1.2-0.9c0-0.2,0.1-0.4,0.1-0.5V216.9z"/>
			<path class="st28" d="M291.6,217.9c0,1.1,0.9,1.5,1.8,1.5c0.7,0,1.2-0.1,1.6-0.3l0.2,1c-0.5,0.2-1.2,0.4-2,0.4c-1.9,0-3-1.2-3-3
				c0-1.6,1-3.1,2.9-3.1c1.9,0,2.5,1.6,2.5,2.8c0,0.3,0,0.5,0,0.6H291.6z M294.2,216.8c0-0.5-0.2-1.4-1.2-1.4
				c-0.9,0-1.3,0.8-1.4,1.4H294.2z"/>
			<path class="st28" d="M296.7,216.3c0-0.7,0-1.2,0-1.7h1.3l0.1,0.9h0c0.3-0.5,0.8-1,1.8-1c0.8,0,1.4,0.4,1.6,1.1h0
				c0.2-0.3,0.4-0.6,0.7-0.7c0.3-0.2,0.7-0.3,1.2-0.3c1,0,2,0.7,2,2.5v3.4h-1.4v-3.2c0-1-0.3-1.5-1-1.5c-0.5,0-0.9,0.4-1,0.8
				c0,0.1-0.1,0.3-0.1,0.5v3.5h-1.4V217c0-0.8-0.3-1.4-1-1.4c-0.6,0-0.9,0.4-1.1,0.8c-0.1,0.1-0.1,0.3-0.1,0.5v3.5h-1.4V216.3z"/>
			<path class="st28" d="M308,217.9c0,1.1,0.9,1.5,1.8,1.5c0.7,0,1.2-0.1,1.6-0.3l0.2,1c-0.5,0.2-1.2,0.4-2,0.4c-1.9,0-3-1.2-3-3
				c0-1.6,1-3.1,2.9-3.1c1.9,0,2.5,1.6,2.5,2.8c0,0.3,0,0.5,0,0.6H308z M310.5,216.8c0-0.5-0.2-1.4-1.2-1.4c-0.9,0-1.3,0.8-1.4,1.4
				H310.5z"/>
			<path class="st28" d="M313.1,216.3c0-0.7,0-1.2,0-1.7h1.3l0.1,0.9h0c0.3-0.5,0.9-1,1.9-1c1,0,2.1,0.7,2.1,2.5v3.5h-1.5v-3.3
				c0-0.8-0.3-1.5-1.1-1.5c-0.6,0-1,0.4-1.2,0.9c0,0.1-0.1,0.3-0.1,0.5v3.4h-1.5V216.3z"/>
			<path class="st28" d="M321.6,212.9v1.7h1.4v1.1h-1.4v2.6c0,0.7,0.2,1.1,0.8,1.1c0.3,0,0.4,0,0.6-0.1l0,1.1
				c-0.2,0.1-0.6,0.1-1.1,0.1c-0.5,0-1-0.2-1.3-0.5c-0.3-0.3-0.5-0.9-0.5-1.6v-2.7h-0.8v-1.1h0.8v-1.3L321.6,212.9z"/>
		</g>
	</g>
	<g>
		<g>
			<path class="st28" d="M141.4,305l-0.7,2.3h-1.5l2.6-8.1h1.9l2.6,8.1h-1.6l-0.7-2.3H141.4z M143.7,303.9l-0.6-2
				c-0.2-0.5-0.3-1-0.4-1.5h0c-0.1,0.5-0.2,1-0.4,1.5l-0.6,2H143.7z"/>
			<path class="st28" d="M147.3,303.2c0-0.7,0-1.2,0-1.7h1.3l0.1,0.9h0c0.3-0.5,0.9-1,1.9-1c1,0,2.1,0.7,2.1,2.5v3.5h-1.5V304
				c0-0.8-0.3-1.5-1.1-1.5c-0.6,0-1,0.4-1.2,0.9c0,0.1-0.1,0.3-0.1,0.5v3.4h-1.5V303.2z"/>
			<path class="st28" d="M157.4,307.3l-0.1-0.6h0c-0.4,0.5-1,0.8-1.7,0.8c-1.2,0-1.8-0.9-1.8-1.7c0-1.5,1.3-2.2,3.5-2.2v-0.1
				c0-0.4-0.2-1-1.2-1c-0.6,0-1.2,0.2-1.6,0.4l-0.3-1c0.4-0.3,1.2-0.5,2.1-0.5c1.9,0,2.4,1.2,2.4,2.5v2.1c0,0.5,0,1,0.1,1.4H157.4z
				 M157.2,304.4c-1,0-2,0.2-2,1.1c0,0.6,0.4,0.8,0.8,0.8c0.6,0,1-0.4,1.2-0.8c0-0.1,0-0.2,0-0.3V304.4z"/>
			<path class="st28" d="M160.2,298.8h1.5v8.5h-1.5V298.8z"/>
			<path class="st28" d="M164.2,301.4l1.1,3.1c0.1,0.4,0.2,0.8,0.3,1.1h0c0.1-0.3,0.2-0.8,0.3-1.2l0.9-3.1h1.6l-1.5,4
				c-0.8,2.2-1.3,3.2-2,3.8c-0.6,0.5-1.2,0.7-1.5,0.8l-0.3-1.2c0.3-0.1,0.6-0.2,0.9-0.4c0.3-0.2,0.6-0.5,0.8-0.9
				c0.1-0.1,0.1-0.2,0.1-0.3c0-0.1,0-0.1-0.1-0.3l-2.1-5.4H164.2z"/>
			<path class="st28" d="M171,299.8v1.7h1.4v1.1H171v2.6c0,0.7,0.2,1.1,0.8,1.1c0.3,0,0.4,0,0.6-0.1l0,1.1c-0.2,0.1-0.6,0.1-1.1,0.1
				c-0.5,0-1-0.2-1.3-0.5c-0.3-0.3-0.5-0.9-0.5-1.6v-2.7h-0.8v-1.1h0.8v-1.3L171,299.8z"/>
			<path class="st28" d="M175.1,299.8c0,0.4-0.3,0.8-0.8,0.8c-0.5,0-0.8-0.3-0.8-0.8c0-0.5,0.3-0.8,0.8-0.8
				C174.8,299,175.1,299.3,175.1,299.8z M173.5,307.3v-5.8h1.5v5.8H173.5z"/>
			<path class="st28" d="M180.9,307.1c-0.3,0.1-0.9,0.3-1.7,0.3c-1.8,0-3-1.2-3-3c0-1.8,1.2-3.1,3.3-3.1c0.5,0,1.1,0.1,1.4,0.3
				l-0.3,1.1c-0.2-0.1-0.6-0.2-1.1-0.2c-1.1,0-1.8,0.8-1.8,1.9c0,1.2,0.8,1.9,1.8,1.9c0.5,0,0.9-0.1,1.2-0.2L180.9,307.1z"/>
			<path class="st28" d="M181.9,305.9c0.3,0.2,1,0.4,1.5,0.4c0.6,0,0.9-0.3,0.9-0.6c0-0.4-0.2-0.6-1-0.9c-1.1-0.4-1.6-1-1.6-1.7
				c0-1,0.9-1.8,2.2-1.8c0.6,0,1.2,0.2,1.5,0.3l-0.3,1c-0.3-0.1-0.7-0.3-1.2-0.3c-0.5,0-0.8,0.3-0.8,0.6c0,0.4,0.3,0.6,1,0.8
				c1.1,0.4,1.5,0.9,1.6,1.8c0,1.1-0.8,1.8-2.4,1.8c-0.7,0-1.3-0.2-1.8-0.4L181.9,305.9z"/>
			<path class="st28" d="M192.8,307.3l-0.1-0.6h0c-0.4,0.5-1,0.8-1.7,0.8c-1.2,0-1.8-0.9-1.8-1.7c0-1.5,1.3-2.2,3.5-2.2v-0.1
				c0-0.4-0.2-1-1.2-1c-0.6,0-1.2,0.2-1.6,0.4l-0.3-1c0.4-0.3,1.2-0.5,2.1-0.5c1.9,0,2.4,1.2,2.4,2.5v2.1c0,0.5,0,1,0.1,1.4H192.8z
				 M192.6,304.4c-1,0-2,0.2-2,1.1c0,0.6,0.4,0.8,0.8,0.8c0.6,0,1-0.4,1.2-0.8c0-0.1,0-0.2,0-0.3V304.4z"/>
			<path class="st28" d="M195.6,303.2c0-0.7,0-1.2,0-1.7h1.3l0.1,0.9h0c0.3-0.5,0.9-1,1.9-1c1,0,2.1,0.7,2.1,2.5v3.5h-1.5V304
				c0-0.8-0.3-1.5-1.1-1.5c-0.6,0-1,0.4-1.2,0.9c0,0.1-0.1,0.3-0.1,0.5v3.4h-1.5V303.2z"/>
			<path class="st28" d="M207.8,298.8v6.9c0,0.6,0,1.2,0,1.6h-1.3l-0.1-0.9h0c-0.3,0.6-1.1,1.1-1.9,1.1c-1.4,0-2.5-1.2-2.5-3
				c0-2,1.2-3.1,2.6-3.1c0.8,0,1.4,0.3,1.6,0.8h0v-3.3H207.8z M206.3,303.9c0-0.1,0-0.3,0-0.4c-0.1-0.6-0.6-1-1.3-1
				c-0.9,0-1.5,0.8-1.5,1.9c0,1.1,0.5,1.8,1.5,1.8c0.6,0,1.1-0.4,1.3-1c0-0.1,0-0.3,0-0.4V303.9z"/>
			<path class="st28" d="M156.9,311.5c0,0.4-0.3,0.8-0.8,0.8c-0.5,0-0.8-0.3-0.8-0.8c0-0.5,0.3-0.8,0.8-0.8
				C156.6,310.7,156.9,311,156.9,311.5z M155.3,318.9v-5.8h1.5v5.8H155.3z"/>
			<path class="st28" d="M158.4,314.8c0-0.7,0-1.2,0-1.7h1.3l0.1,0.9h0c0.3-0.5,0.9-1,1.9-1c1,0,2.1,0.7,2.1,2.5v3.5h-1.5v-3.3
				c0-0.8-0.3-1.5-1.1-1.5c-0.6,0-1,0.4-1.2,0.9c0,0.1-0.1,0.3-0.1,0.5v3.4h-1.5V314.8z"/>
			<path class="st28" d="M165.2,317.6c0.3,0.2,1,0.4,1.5,0.4c0.6,0,0.9-0.3,0.9-0.6c0-0.4-0.2-0.6-1-0.9c-1.1-0.4-1.6-1-1.6-1.7
				c0-1,0.9-1.8,2.2-1.8c0.6,0,1.2,0.2,1.5,0.3l-0.3,1c-0.3-0.1-0.7-0.3-1.2-0.3c-0.5,0-0.8,0.3-0.8,0.6c0,0.4,0.3,0.6,1,0.8
				c1.1,0.4,1.5,0.9,1.6,1.8c0,1.1-0.8,1.8-2.4,1.8c-0.7,0-1.3-0.2-1.8-0.4L165.2,317.6z"/>
			<path class="st28" d="M171.8,311.5c0,0.4-0.3,0.8-0.8,0.8c-0.5,0-0.8-0.3-0.8-0.8c0-0.5,0.3-0.8,0.8-0.8
				C171.5,310.7,171.8,311,171.8,311.5z M170.3,318.9v-5.8h1.5v5.8H170.3z"/>
			<path class="st28" d="M178.7,313.1c0,0.4,0,0.9,0,1.7v3.3c0,1.2-0.3,2.1-0.9,2.7c-0.6,0.5-1.5,0.7-2.3,0.7c-0.7,0-1.5-0.2-2-0.5
				l0.3-1.1c0.4,0.2,1,0.4,1.7,0.4c1,0,1.7-0.5,1.7-1.8V318h0c-0.3,0.5-0.9,0.9-1.7,0.9c-1.5,0-2.5-1.2-2.5-2.9
				c0-1.9,1.2-3.1,2.7-3.1c0.9,0,1.4,0.4,1.7,0.9h0l0.1-0.8H178.7z M177.2,315.4c0-0.1,0-0.3,0-0.4c-0.2-0.5-0.6-0.9-1.2-0.9
				c-0.8,0-1.4,0.7-1.4,1.9c0,1,0.5,1.8,1.4,1.8c0.6,0,1-0.4,1.2-0.9c0-0.2,0.1-0.4,0.1-0.5V315.4z"/>
			<path class="st28" d="M180.2,310.4h1.5v3.5h0c0.2-0.3,0.4-0.5,0.7-0.7c0.3-0.2,0.6-0.3,1-0.3c1,0,2,0.7,2,2.5v3.4H184v-3.3
				c0-0.9-0.3-1.5-1.1-1.5c-0.6,0-1,0.4-1.1,0.8c0,0.1-0.1,0.3-0.1,0.4v3.5h-1.5V310.4z"/>
			<path class="st28" d="M188.7,311.4v1.7h1.4v1.1h-1.4v2.6c0,0.7,0.2,1.1,0.8,1.1c0.3,0,0.4,0,0.6-0.1l0,1.1
				c-0.2,0.1-0.6,0.1-1.1,0.1c-0.5,0-1-0.2-1.3-0.5c-0.3-0.3-0.5-0.9-0.5-1.6v-2.7h-0.8v-1.1h0.8v-1.3L188.7,311.4z"/>
			<path class="st28" d="M191.2,317.6c0.3,0.2,1,0.4,1.5,0.4c0.6,0,0.9-0.3,0.9-0.6c0-0.4-0.2-0.6-1-0.9c-1.1-0.4-1.6-1-1.6-1.7
				c0-1,0.9-1.8,2.2-1.8c0.6,0,1.2,0.2,1.5,0.3l-0.3,1c-0.3-0.1-0.7-0.3-1.2-0.3c-0.5,0-0.8,0.3-0.8,0.6c0,0.4,0.3,0.6,1,0.8
				c1.1,0.4,1.5,0.9,1.6,1.8c0,1.1-0.8,1.8-2.4,1.8c-0.7,0-1.3-0.2-1.8-0.4L191.2,317.6z"/>
		</g>
	</g>
	<g>
		<g>
			<path class="st28" d="M42.4,199.8l-0.7,2.3h-1.5l2.6-8.1h1.9l2.6,8.1h-1.6l-0.7-2.3H42.4z M44.7,198.7l-0.6-2
				c-0.2-0.5-0.3-1-0.4-1.5h0c-0.1,0.5-0.2,1-0.4,1.5l-0.6,2H44.7z"/>
			<path class="st28" d="M53.4,200.4c0,0.7,0,1.3,0,1.8h-1.3l-0.1-0.9h0c-0.3,0.4-0.8,1-1.9,1c-1.1,0-2-0.6-2-2.5v-3.4h1.5v3.2
				c0,1,0.3,1.6,1.1,1.6c0.6,0,1-0.4,1.1-0.8c0-0.1,0.1-0.3,0.1-0.5v-3.5h1.5V200.4z"/>
			<path class="st28" d="M60.4,193.6v6.9c0,0.6,0,1.2,0,1.6h-1.3l-0.1-0.9h0c-0.3,0.6-1.1,1.1-1.9,1.1c-1.4,0-2.5-1.2-2.5-3
				c0-2,1.2-3.1,2.6-3.1c0.8,0,1.4,0.3,1.6,0.8h0v-3.3H60.4z M58.9,198.7c0-0.1,0-0.3,0-0.4c-0.1-0.6-0.6-1-1.3-1
				c-0.9,0-1.5,0.8-1.5,1.9c0,1.1,0.5,1.8,1.5,1.8c0.6,0,1.1-0.4,1.3-1c0-0.1,0-0.3,0-0.4V198.7z"/>
			<path class="st28" d="M63.5,194.6c0,0.4-0.3,0.8-0.8,0.8c-0.5,0-0.8-0.3-0.8-0.8c0-0.5,0.3-0.8,0.8-0.8
				C63.2,193.8,63.5,194.2,63.5,194.6z M62,202.1v-5.8h1.5v5.8H62z"/>
			<path class="st28" d="M66.1,199.6c0,1.1,0.9,1.5,1.8,1.5c0.7,0,1.2-0.1,1.6-0.3l0.2,1c-0.5,0.2-1.2,0.4-2,0.4c-1.9,0-3-1.2-3-3
				c0-1.6,1-3.1,2.9-3.1c1.9,0,2.5,1.6,2.5,2.8c0,0.3,0,0.5,0,0.6H66.1z M68.6,198.6c0-0.5-0.2-1.4-1.2-1.4c-0.9,0-1.3,0.8-1.4,1.4
				H68.6z"/>
			<path class="st28" d="M71.2,198c0-0.7,0-1.2,0-1.7h1.3l0.1,0.9h0c0.3-0.5,0.9-1,1.9-1c1,0,2.1,0.7,2.1,2.5v3.5H75v-3.3
				c0-0.8-0.3-1.5-1.1-1.5c-0.6,0-1,0.4-1.2,0.9c0,0.1-0.1,0.3-0.1,0.5v3.4h-1.5V198z"/>
			<path class="st28" d="M82.4,201.9c-0.3,0.1-0.9,0.3-1.7,0.3c-1.8,0-3-1.2-3-3c0-1.8,1.2-3.1,3.3-3.1c0.5,0,1.1,0.1,1.4,0.3
				l-0.3,1.1c-0.2-0.1-0.6-0.2-1.1-0.2c-1.1,0-1.8,0.8-1.8,1.9c0,1.2,0.8,1.9,1.8,1.9c0.5,0,0.9-0.1,1.2-0.2L82.4,201.9z"/>
			<path class="st28" d="M84.4,199.6c0,1.1,0.9,1.5,1.8,1.5c0.7,0,1.2-0.1,1.6-0.3l0.2,1c-0.5,0.2-1.2,0.4-2,0.4c-1.9,0-3-1.2-3-3
				c0-1.6,1-3.1,2.9-3.1c1.9,0,2.5,1.6,2.5,2.8c0,0.3,0,0.5,0,0.6H84.4z M87,198.6c0-0.5-0.2-1.4-1.2-1.4c-0.9,0-1.3,0.8-1.4,1.4H87
				z"/>
			<path class="st28" d="M30.3,209.7c0-0.7,0-1.2,0-1.7h1.3l0.1,0.9h0c0.3-0.5,0.8-1,1.8-1c0.8,0,1.4,0.4,1.6,1.1h0
				c0.2-0.3,0.4-0.6,0.7-0.7c0.3-0.2,0.7-0.3,1.2-0.3c1,0,2,0.7,2,2.5v3.4h-1.4v-3.2c0-1-0.3-1.5-1-1.5c-0.5,0-0.9,0.4-1,0.8
				c0,0.1-0.1,0.3-0.1,0.5v3.5h-1.4v-3.4c0-0.8-0.3-1.4-1-1.4c-0.6,0-0.9,0.4-1.1,0.8c-0.1,0.1-0.1,0.3-0.1,0.5v3.5h-1.4V209.7z"/>
			<path class="st28" d="M43.7,213.8l-0.1-0.6h0c-0.4,0.5-1,0.8-1.7,0.8c-1.2,0-1.8-0.9-1.8-1.7c0-1.5,1.3-2.2,3.5-2.2v-0.1
				c0-0.4-0.2-1-1.2-1c-0.6,0-1.2,0.2-1.6,0.4l-0.3-1c0.4-0.3,1.2-0.5,2.1-0.5c1.9,0,2.4,1.2,2.4,2.5v2.1c0,0.5,0,1,0.1,1.4H43.7z
				 M43.6,210.9c-1,0-2,0.2-2,1.1c0,0.6,0.4,0.8,0.8,0.8c0.6,0,1-0.4,1.2-0.8c0-0.1,0-0.2,0-0.3V210.9z"/>
			<path class="st28" d="M46.6,209.7c0-0.7,0-1.2,0-1.7h1.3l0.1,0.9h0c0.3-0.5,0.9-1,1.9-1c1,0,2.1,0.7,2.1,2.5v3.5h-1.5v-3.3
				c0-0.8-0.3-1.5-1.1-1.5c-0.6,0-1,0.4-1.2,0.9c0,0.1-0.1,0.3-0.1,0.5v3.4h-1.5V209.7z"/>
			<path class="st28" d="M56.7,213.8l-0.1-0.6h0c-0.4,0.5-1,0.8-1.7,0.8c-1.2,0-1.8-0.9-1.8-1.7c0-1.5,1.3-2.2,3.5-2.2v-0.1
				c0-0.4-0.2-1-1.2-1c-0.6,0-1.2,0.2-1.6,0.4l-0.3-1c0.4-0.3,1.2-0.5,2.1-0.5c1.9,0,2.4,1.2,2.4,2.5v2.1c0,0.5,0,1,0.1,1.4H56.7z
				 M56.5,210.9c-1,0-2,0.2-2,1.1c0,0.6,0.4,0.8,0.8,0.8c0.6,0,1-0.4,1.2-0.8c0-0.1,0-0.2,0-0.3V210.9z"/>
			<path class="st28" d="M64.8,207.9c0,0.4,0,0.9,0,1.7v3.3c0,1.2-0.3,2.1-0.9,2.7c-0.6,0.5-1.5,0.7-2.3,0.7c-0.7,0-1.5-0.2-2-0.5
				l0.3-1.1c0.4,0.2,1,0.4,1.7,0.4c1,0,1.7-0.5,1.7-1.8v-0.5h0c-0.3,0.5-0.9,0.9-1.7,0.9c-1.5,0-2.5-1.2-2.5-2.9
				c0-1.9,1.2-3.1,2.7-3.1c0.9,0,1.4,0.4,1.7,0.9h0l0.1-0.8H64.8z M63.3,210.3c0-0.1,0-0.3,0-0.4c-0.2-0.5-0.6-0.9-1.2-0.9
				c-0.8,0-1.4,0.7-1.4,1.9c0,1,0.5,1.8,1.4,1.8c0.6,0,1-0.4,1.2-0.9c0-0.2,0.1-0.4,0.1-0.5V210.3z"/>
			<path class="st28" d="M67.4,211.3c0,1.1,0.9,1.5,1.8,1.5c0.7,0,1.2-0.1,1.6-0.3l0.2,1c-0.5,0.2-1.2,0.4-2,0.4c-1.9,0-3-1.2-3-3
				c0-1.6,1-3.1,2.9-3.1c1.9,0,2.5,1.6,2.5,2.8c0,0.3,0,0.5,0,0.6H67.4z M70,210.2c0-0.5-0.2-1.4-1.2-1.4c-0.9,0-1.3,0.8-1.4,1.4H70
				z"/>
			<path class="st28" d="M72.6,209.7c0-0.7,0-1.2,0-1.7h1.3l0.1,0.9h0c0.3-0.5,0.8-1,1.8-1c0.8,0,1.4,0.4,1.6,1.1h0
				c0.2-0.3,0.4-0.6,0.7-0.7c0.3-0.2,0.7-0.3,1.2-0.3c1,0,2,0.7,2,2.5v3.4h-1.4v-3.2c0-1-0.3-1.5-1-1.5c-0.5,0-0.9,0.4-1,0.8
				c0,0.1-0.1,0.3-0.1,0.5v3.5h-1.4v-3.4c0-0.8-0.3-1.4-1-1.4c-0.6,0-0.9,0.4-1.1,0.8c-0.1,0.1-0.1,0.3-0.1,0.5v3.5h-1.4V209.7z"/>
			<path class="st28" d="M83.8,211.3c0,1.1,0.9,1.5,1.8,1.5c0.7,0,1.2-0.1,1.6-0.3l0.2,1c-0.5,0.2-1.2,0.4-2,0.4c-1.9,0-3-1.2-3-3
				c0-1.6,1-3.1,2.9-3.1c1.9,0,2.5,1.6,2.5,2.8c0,0.3,0,0.5,0,0.6H83.8z M86.4,210.2c0-0.5-0.2-1.4-1.2-1.4c-0.9,0-1.3,0.8-1.4,1.4
				H86.4z"/>
			<path class="st28" d="M88.9,209.7c0-0.7,0-1.2,0-1.7h1.3l0.1,0.9h0c0.3-0.5,0.9-1,1.9-1c1,0,2.1,0.7,2.1,2.5v3.5h-1.5v-3.3
				c0-0.8-0.3-1.5-1.1-1.5c-0.6,0-1,0.4-1.2,0.9c0,0.1-0.1,0.3-0.1,0.5v3.4h-1.5V209.7z"/>
			<path class="st28" d="M97.4,206.3v1.7h1.4v1.1h-1.4v2.6c0,0.7,0.2,1.1,0.8,1.1c0.3,0,0.4,0,0.6-0.1l0,1.1
				c-0.2,0.1-0.6,0.1-1.1,0.1c-0.5,0-1-0.2-1.3-0.5c-0.3-0.3-0.5-0.9-0.5-1.6V209h-0.8v-1.1H96v-1.3L97.4,206.3z"/>
		</g>
	</g>
	<g>
		<circle id="XMLID_337_" class="st27" cx="67.2" cy="153.5" r="5.3"/>
		<g id="XMLID_329_">
			<g id="XMLID_330_">
				<g id="XMLID_331_">
					<g id="XMLID_332_">
						<g id="XMLID_333_">
							<path id="XMLID_336_" class="st27" d="M75,175h3.3v-8.3c0-2.6-2.1-4.7-4.7-4.7h-6.3h-6.3c-2.6,0-4.7,2.1-4.7,4.7v8.3h3.3"/>
						</g>
					</g>
				</g>
			</g>
		</g>
		<polyline id="XMLID_328_" class="st27" points="74.1,168.5 74.1,181.6 60,181.6 60,168.5 		"/>
		<g id="XMLID_209_">
			<g id="XMLID_270_">
				<g id="XMLID_306_">
					<circle id="XMLID_307_" class="st27" cx="53.3" cy="152.2" r="4.7"/>
				</g>
				<g id="XMLID_271_">
					<g id="XMLID_280_">
						<g id="XMLID_290_">
							<g id="XMLID_291_">
								<g id="XMLID_292_">
									<g id="XMLID_294_">
										<path id="XMLID_338_" class="st27" d="M61.8,161.4c-0.8-1-2-1.7-3.3-1.7h-5.6h-5.6c-2.3,0-4.2,1.9-4.2,4.2v7.3h2.9"/>
									</g>
								</g>
							</g>
						</g>
					</g>
				</g>
			</g>
			<polyline id="XMLID_211_" class="st27" points="54.5,173.9 46.7,173.9 46.7,165.5 			"/>
		</g>
		<g id="XMLID_191_">
			<g id="XMLID_193_">
				<g id="XMLID_205_">
					<circle id="XMLID_206_" class="st27" cx="81.2" cy="152.2" r="4.7"/>
				</g>
				<g id="XMLID_194_">
					<g id="XMLID_195_">
						<g id="XMLID_197_">
							<g id="XMLID_198_">
								<g id="XMLID_199_">
									<g id="XMLID_200_">
										<path id="XMLID_204_" class="st27" d="M72.7,161.4c0.8-1,2-1.7,3.3-1.7h5.6h5.6c2.3,0,4.2,1.9,4.2,4.2v7.3h-2.9"/>
									</g>
								</g>
							</g>
						</g>
					</g>
				</g>
			</g>
			<polyline id="XMLID_192_" class="st27" points="79.9,173.9 87.7,173.9 87.7,165.5 			"/>
		</g>
		<g id="XMLID_172_">
			<g id="XMLID_173_">
				<g id="XMLID_174_">
					<g id="XMLID_175_">
						<g id="XMLID_176_">
							<g id="XMLID_177_">
								<g id="XMLID_178_">
									<g id="XMLID_179_">
									</g>
								</g>
							</g>
						</g>
					</g>
				</g>
			</g>
		</g>
		<g id="XMLID_170_">
			<g>
				<line class="st27" x1="46" y1="181.6" x2="88.9" y2="181.6"/>
				<g>
					<polygon class="st26" points="46.9,184.6 41.7,181.6 46.9,178.6 					"/>
				</g>
				<g>
					<polygon class="st26" points="88,184.6 93.2,181.6 88,178.6 					"/>
				</g>
			</g>
		</g>
	</g>
</g>
</svg>
