<?xml version="1.0" encoding="utf-8"?>
<!-- Generator: Adobe Illustrator 22.1.0, SVG Export Plug-In . SVG Version: 6.00 Build 0)  -->
<svg version="1.1" xmlns="http://www.w3.org/2000/svg" xmlns:xlink="http://www.w3.org/1999/xlink" x="0px" y="0px" width="350px"
	 height="350px" viewBox="0 0 350 350" style="enable-background:new 0 0 350 350;" xml:space="preserve">
<style type="text/css">
	.st0{fill:#FCDDD6;}
	.st1{fill:#FBC2BA;}
	.st2{fill:#F16C51;}
	.st3{fill:#EAC8A5;}
	.st4{fill:#ECE1CE;}
	.st5{fill:#DF9926;}
	.st6{fill:none;}
	.st7{fill:#D8E7DA;}
	.st8{fill:#A8D7CD;}
	.st9{fill:#00B28F;}
	.st10{fill:#D0B5D5;}
	.st11{fill:#E6DBE6;}
	.st12{fill:#963596;}
	.st13{fill:#606060;}
	.st14{fill:#92D1FF;}
	.st15{fill:#0F9FFA;}
	.st16{fill:#BEE3FF;}
	.st17{fill:none;stroke:#D0B5D5;stroke-width:1.5572;stroke-miterlimit:10;}
	.st18{fill:none;stroke:#92D1FF;stroke-width:1.5572;stroke-miterlimit:10;}
	.st19{fill:none;stroke:#A8D7CD;stroke-width:2.3054;stroke-miterlimit:10;}
	.st20{fill:none;stroke:#EAC8A5;stroke-width:2.3054;stroke-miterlimit:10;}
	.st21{fill:none;stroke:#FBC2BA;stroke-width:1.5572;stroke-miterlimit:10;}
	.st22{display:none;}
	.st23{display:inline;}
	.st24{fill:none;stroke:#000000;stroke-width:0.1397;stroke-miterlimit:10;}
	.st25{fill:none;stroke:#020204;stroke-width:0.216;stroke-miterlimit:10;}
	.st26{fill:none;stroke:#061838;stroke-width:0.5887;stroke-miterlimit:10;}
	.st27{fill:none;stroke:#FFFFFF;stroke-width:1.5;stroke-linecap:square;stroke-miterlimit:10;}
	.st28{fill:none;stroke:#FFFFFF;stroke-width:1.4992;stroke-miterlimit:10;}
	.st29{fill:#FFFFFF;}
	.st30{fill:none;stroke:#FFFFFF;stroke-width:1.4992;}
	.st31{fill:none;stroke:#FCFCFC;stroke-width:1.5;stroke-miterlimit:10;}
	.st32{fill:#FCFCFC;}
	.st33{fill:none;stroke:#FFFFFF;stroke-width:1.4992;stroke-linecap:square;stroke-miterlimit:10;}
	.st34{fill:none;stroke:#FFFFFF;stroke-width:1.4995;stroke-miterlimit:22.9256;}
	.st35{fill:none;stroke:#FCFCFC;stroke-width:1.5;stroke-linejoin:bevel;stroke-miterlimit:10;}
	.st36{fill:none;stroke:#FFFFFF;stroke-width:1.5001;stroke-linecap:square;stroke-miterlimit:10;}
	.st37{fill:none;stroke:#FFFFFF;stroke-width:1.5;stroke-linecap:square;stroke-miterlimit:10;stroke-dasharray:5;}
	.st38{fill:none;stroke:#FFFFFF;stroke-width:1.5;stroke-miterlimit:10;}
	.st39{fill:none;stroke:#FCFCFC;stroke-width:1.5;stroke-miterlimit:10;stroke-dasharray:3.6495,3.6495;}
	.st40{fill:none;stroke:#FCFCFC;stroke-width:1.5;stroke-miterlimit:10;stroke-dasharray:3.3093,3.3093;}
	.st41{fill:none;stroke:#FFFFFF;stroke-width:1.4992;stroke-linecap:square;stroke-linejoin:bevel;stroke-miterlimit:10;}
	.st42{fill:#372261;}
	.st43{fill:#061838;}
	.st44{fill:none;stroke:#061838;stroke-width:2;stroke-miterlimit:10;}
	.st45{fill:none;stroke:#061838;stroke-width:2;stroke-linejoin:bevel;stroke-miterlimit:10;}
	.st46{fill:none;stroke:#372261;stroke-width:2;stroke-miterlimit:10;}
	.st47{fill:none;stroke:#372261;stroke-width:2;stroke-linecap:square;stroke-miterlimit:10;}
	.st48{fill:none;stroke:#061838;stroke-width:2;stroke-linecap:square;stroke-miterlimit:10;}
	.st49{fill:none;stroke:#061838;stroke-width:2;stroke-miterlimit:10;stroke-dasharray:3,4;}
	.st50{fill:none;stroke:#372261;stroke-width:2;stroke-miterlimit:10;stroke-dasharray:3.4867,3.4867;}
	.st51{fill:none;stroke:#4C0519;stroke-width:2;stroke-miterlimit:10;}
	.st52{fill:#4C0519;}
	.st53{fill:none;stroke:#4C0519;stroke-width:3;stroke-miterlimit:10;}
	.st54{fill:none;stroke:#4C0519;stroke-width:3;stroke-miterlimit:10;stroke-dasharray:6.2002,6.2002;}
	.st55{fill:none;stroke:#4C0519;stroke-width:3;stroke-miterlimit:10;stroke-dasharray:4.9356,4.9356;}
	.st56{fill:none;stroke:#4C0519;stroke-width:3;stroke-miterlimit:10;stroke-dasharray:6.1079,6.1079;}
	.st57{fill:none;stroke:#4C0519;stroke-width:3;stroke-miterlimit:10;stroke-dasharray:6;}
	.st58{fill:none;stroke:#2F1113;stroke-width:3;stroke-miterlimit:10;}
	.st59{fill:#2F1113;}
	.st60{fill:none;stroke:#2F1113;stroke-width:3;stroke-linecap:square;stroke-miterlimit:10;}
	.st61{fill:none;stroke:#2F1113;stroke-width:3;stroke-miterlimit:10;stroke-dasharray:6;}
	.st62{fill:none;stroke:#2F1113;stroke-width:3;stroke-miterlimit:10;stroke-dasharray:6.4132,6.4132;}
	.st63{fill:none;stroke:#2F1113;stroke-width:3;stroke-miterlimit:10;stroke-dasharray:5.8188,5.8188;}
	.st64{fill:none;stroke:#4C0519;stroke-width:3;stroke-linecap:square;stroke-miterlimit:10;}
	.st65{fill:none;stroke:#4C0519;stroke-width:3;stroke-miterlimit:10;stroke-dasharray:6.0387,6.0387;}
	.st66{fill:#00321D;}
	.st67{fill:none;stroke:#00321D;stroke-width:3;stroke-miterlimit:10;}
	.st68{fill:none;stroke:#00321D;stroke-width:3;stroke-linejoin:bevel;stroke-miterlimit:10;}
	.st69{fill:none;stroke:#00321D;stroke-width:3;stroke-linejoin:bevel;}
	.st70{fill:none;stroke:#FFFFFF;stroke-miterlimit:10;}
	.st71{fill:none;stroke:#FFFFFF;stroke-width:0.5;stroke-miterlimit:10;}
	.st72{fill:none;stroke:#FFFFFF;stroke-width:1.5;stroke-linejoin:bevel;stroke-miterlimit:10;}
	.st73{fill:none;stroke:#4C0519;stroke-width:2;stroke-linejoin:bevel;stroke-miterlimit:10;}
	.st74{fill:none;stroke:#4C0519;stroke-width:2;stroke-linejoin:bevel;}
	.st75{fill:none;stroke:#FCFCFC;stroke-width:1.5;stroke-linejoin:bevel;}
	.st76{fill:none;stroke:#FFFFFF;stroke-width:1.4995;stroke-linejoin:bevel;stroke-miterlimit:22.9256;}
</style>
<g id="Layer_3">
	<g>
		<path class="st0" d="M342.9,175c0,26.4-6.1,51.4-16.9,73.6c-2.4,5-5,9.7-7.9,14.4c-27.8,45.1-76.2,76-132.2,79.6
			c-3.6,0.2-7.2,0.4-10.9,0.4c-1.9,0-3.7,0-5.5-0.1c-56.3-1.8-105.6-31.3-134.6-75.4c-3-4.6-5.8-9.3-8.4-14.1
			c-12.4-23.4-19.4-50-19.4-78.3c0-27.3,6.5-53.2,18.1-76c2.5-4.9,5.2-9.7,8.1-14.3C61.8,40.2,110.7,10,166.8,7.3
			c2.7-0.1,5.5-0.2,8.2-0.2c2.7,0,5.5,0.1,8.2,0.2c54.2,2.6,101.7,30.9,130.5,73.1c3.1,4.5,6,9.2,8.6,14
			C335.4,118.3,342.9,145.8,342.9,175z"/>
		<path class="st0" d="M237.6,175c0,9.8-2.3,19.1-6.3,27.4c-0.9,1.8-1.9,3.6-3,5.4c-10.3,16.8-28.4,28.3-49.3,29.7
			c-1.3,0.1-2.7,0.1-4.1,0.1c-0.7,0-1.4,0-2.1,0c-21-0.7-39.3-11.7-50.2-28.1c-1.1-1.7-2.2-3.5-3.1-5.3c-4.6-8.7-7.2-18.6-7.2-29.2
			c0-10.2,2.4-19.8,6.8-28.3c0.9-1.8,1.9-3.6,3-5.3c10.6-16.6,28.8-27.9,49.7-28.9c1,0,2-0.1,3.1-0.1c1,0,2,0,3.1,0.1
			c20.2,1,37.9,11.5,48.6,27.2c1.2,1.7,2.2,3.4,3.2,5.2C234.8,153.9,237.6,164.1,237.6,175z"/>
		<path class="st6" d="M323.6,253.2c-1,1.8-1.9,3.6-3,5.4l-92.4-50.8c-10.3,16.8-28.4,28.3-49.3,29.7l1.7,105.4
			c-1.9,0.1-3.8,0.1-5.7,0.1h-0.4l-1.7-105.4c-21-0.7-39.3-11.7-50.2-28.1L32,263.1c-1.1-1.7-2.1-3.5-3.1-5.3l90.7-53.7
			c-4.6-8.7-7.2-18.6-7.2-29.2c0-10.2,2.4-19.8,6.8-28.3L27.6,94.5c1-1.8,2-3.6,3-5.3l91.6,52.2c10.6-16.6,28.8-27.9,49.7-28.9V7.1
			c1,0,2,0,3.1,0c1,0,2,0,3.1,0v105.4c20.2,1,37.9,11.5,48.6,27.2l89.9-55.1c1.1,1.7,2.2,3.5,3.2,5.2l-89.9,55.1
			c4.9,8.9,7.7,19.2,7.7,30.1c0,9.8-2.3,19.1-6.3,27.4L323.6,253.2z"/>
		<path class="st2" d="M171.9,7.1v105.4c-20.9,1-39.1,12.3-49.7,28.9L30.7,89.2C59.5,40.8,111.8,8.2,171.9,7.1z"/>
		<path class="st6" d="M323.6,253.2l-92.4-50.8c4-8.3,6.3-17.6,6.3-27.4c0-10.9-2.8-21.1-7.7-30.1l89.9-55.1l6-3.7
			c-1-1.8-2.1-3.5-3.2-5.2l-6,3.7l-89.9,55.1c-10.7-15.7-28.4-26.2-48.6-27.2V0c-1,0-2,0-3.1,0c-1,0-2,0-3.1,0v112.5
			c-20.9,1-39.1,12.3-49.7,28.9L30.7,89.2l-6.2-3.5c-1,1.8-2.1,3.5-3,5.3l6.1,3.5l91.6,52.2c-4.3,8.5-6.8,18.1-6.8,28.3
			c0,10.5,2.6,20.5,7.2,29.2l-90.7,53.7l-6.1,3.6c1,1.8,2,3.5,3.1,5.3l6.1-3.6l90.7-53.7c10.8,16.4,29.2,27.4,50.2,28.1l1.7,105.4
			l0.1,7.1h0.3c1.9,0,3.9,0,5.8-0.1l-0.1-7.1l-1.7-105.4c20.8-1.3,38.9-12.9,49.3-29.7l92.4,50.8l6.2,3.4c1-1.8,2-3.5,3-5.4
			L323.6,253.2z"/>
		<path class="st1" d="M350,175c0,29.5-7.3,57.2-20.1,81.6l-6.2-3.4c12.3-23.4,19.3-50,19.3-78.2c0-31.1-8.4-60.2-23.2-85.2l6-3.7
			C341.2,112.2,350,142.6,350,175z"/>
		<path class="st1" d="M326.9,262c-29.3,51-83.5,85.9-146.1,87.9l-0.1-7.1c59.9-2,111.9-35.4,140-84.3L326.9,262z"/>
		<path class="st1" d="M174.7,350c-62.9-0.1-118-33.4-148.8-83.3l6.1-3.6c29.5,47.8,82.3,79.7,142.6,79.8L174.7,350z"/>
		<path class="st1" d="M28.9,257.9l-6.1,3.6C8.3,236,0,206.5,0,175c0-30.5,7.8-59.1,21.5-84l6.1,3.5C14.5,118.4,7.1,145.8,7.1,175
			C7.1,205.1,15,233.4,28.9,257.9z"/>
		<path class="st1" d="M171.9,0v7.1c-60.1,1.1-112.5,33.7-141.3,82l-6.2-3.5C54.5,35.2,109.2,1.1,171.9,0z"/>
		<path class="st1" d="M322.6,80.9l-6,3.7C287.2,38.8,236.3,8.1,178.1,7.1V0C238.8,1.1,292,33.1,322.6,80.9z"/>
		<path class="st2" d="M316.5,84.6l-89.9,55.1c-10.7-15.7-28.4-26.2-48.6-27.2V7.1C236.3,8.1,287.2,38.8,316.5,84.6z"/>
		<path class="st2" d="M342.9,175c0,28.2-7,54.8-19.3,78.2l-92.4-50.8c4-8.3,6.3-17.6,6.3-27.4c0-10.9-2.8-21.1-7.7-30.1l89.9-55.1
			C334.5,114.8,342.9,143.9,342.9,175z"/>
		<path class="st2" d="M320.7,258.5c-28.1,48.9-80,82.3-140,84.3l-1.7-105.4c20.8-1.3,38.9-12.9,49.3-29.7L320.7,258.5z"/>
		<path class="st2" d="M174.6,342.9c-60.3-0.1-113.1-32-142.6-79.8l90.7-53.7c10.8,16.4,29.2,27.4,50.2,28.1L174.6,342.9z"/>
		<path class="st2" d="M119.6,204.2l-90.7,53.7C15,233.4,7.1,205.1,7.1,175c0-29.2,7.4-56.6,20.5-80.5l91.6,52.2
			c-4.3,8.5-6.8,18.1-6.8,28.3C112.4,185.5,115,195.5,119.6,204.2z"/>
	</g>
</g>
<g id="Layer_4" class="st22">
	<g class="st23">
		<rect x="200.4" y="26" class="st24" width="9" height="9"/>
		<rect x="209.4" y="26" class="st24" width="9" height="9"/>
		<rect x="218.4" y="26" class="st24" width="9" height="9"/>
		<rect x="227.4" y="26" class="st24" width="9" height="9"/>
		<rect x="236.4" y="26" class="st24" width="9" height="9"/>
		<rect x="245.4" y="26" class="st24" width="9" height="9"/>
		<rect x="200.4" y="35" class="st24" width="9" height="9"/>
		<rect x="209.4" y="35" class="st24" width="9" height="9"/>
		<rect x="218.4" y="35" class="st24" width="9" height="9"/>
		<rect x="227.4" y="35" class="st24" width="9" height="9"/>
		<rect x="236.4" y="35" class="st24" width="9" height="9"/>
		<rect x="245.4" y="35" class="st24" width="9" height="9"/>
		<rect x="200.4" y="44" class="st24" width="9" height="9"/>
		<rect x="209.4" y="44" class="st24" width="9" height="9"/>
		<rect x="218.4" y="44" class="st24" width="9" height="9"/>
		<rect x="227.4" y="44" class="st24" width="9" height="9"/>
		<rect x="236.4" y="44" class="st24" width="9" height="9"/>
		<rect x="245.4" y="44" class="st24" width="9" height="9"/>
		<rect x="200.4" y="53" class="st24" width="9" height="9"/>
		<rect x="209.4" y="53" class="st24" width="9" height="9"/>
		<rect x="218.4" y="53" class="st24" width="9" height="9"/>
		<rect x="227.4" y="53" class="st24" width="9" height="9"/>
		<rect x="236.4" y="53" class="st24" width="9" height="9"/>
		<rect x="245.4" y="53" class="st24" width="9" height="9"/>
		<rect x="200.4" y="62" class="st24" width="9" height="9"/>
		<rect x="209.4" y="62" class="st24" width="9" height="9"/>
		<rect x="218.4" y="62" class="st24" width="9" height="9"/>
		<rect x="227.4" y="62" class="st24" width="9" height="9"/>
		<rect x="236.4" y="62" class="st24" width="9" height="9"/>
		<rect x="245.4" y="62" class="st24" width="9" height="9"/>
		<rect x="200.4" y="71" class="st24" width="9" height="9"/>
		<rect x="209.4" y="71" class="st24" width="9" height="9"/>
		<rect x="218.4" y="71" class="st24" width="9" height="9"/>
		<rect x="227.4" y="71" class="st24" width="9" height="9"/>
		<rect x="236.4" y="71" class="st24" width="9" height="9"/>
		<rect x="245.4" y="71" class="st24" width="9" height="9"/>
		<rect x="200.4" y="80" class="st24" width="9" height="9"/>
		<rect x="209.4" y="80" class="st24" width="9" height="9"/>
		<rect x="218.4" y="80" class="st24" width="9" height="9"/>
		<rect x="227.4" y="80" class="st24" width="9" height="9"/>
		<rect x="236.4" y="80" class="st24" width="9" height="9"/>
		<rect x="245.4" y="80" class="st24" width="9" height="9"/>
	</g>
	<g class="st23">
		<rect x="87" y="21.9" class="st24" width="9" height="9"/>
		<rect x="96" y="21.9" class="st24" width="9" height="9"/>
		<rect x="105" y="21.9" class="st24" width="9" height="9"/>
		<rect x="114" y="21.9" class="st24" width="9" height="9"/>
		<rect x="123" y="21.9" class="st24" width="9" height="9"/>
		<rect x="132" y="21.9" class="st24" width="9" height="9"/>
		<rect x="87" y="30.9" class="st24" width="9" height="9"/>
		<rect x="96" y="30.9" class="st24" width="9" height="9"/>
		<rect x="105" y="30.9" class="st24" width="9" height="9"/>
		<rect x="114" y="30.9" class="st24" width="9" height="9"/>
		<rect x="123" y="30.9" class="st24" width="9" height="9"/>
		<rect x="132" y="30.9" class="st24" width="9" height="9"/>
		<rect x="87" y="39.9" class="st24" width="9" height="9"/>
		<rect x="96" y="39.9" class="st24" width="9" height="9"/>
		<rect x="105" y="39.9" class="st24" width="9" height="9"/>
		<rect x="114" y="39.9" class="st24" width="9" height="9"/>
		<rect x="123" y="39.9" class="st24" width="9" height="9"/>
		<rect x="132" y="39.9" class="st24" width="9" height="9"/>
		<rect x="87" y="48.9" class="st24" width="9" height="9"/>
		<rect x="96" y="48.9" class="st24" width="9" height="9"/>
		<rect x="105" y="48.9" class="st24" width="9" height="9"/>
		<rect x="114" y="48.9" class="st24" width="9" height="9"/>
		<rect x="123" y="48.9" class="st24" width="9" height="9"/>
		<rect x="132" y="48.9" class="st24" width="9" height="9"/>
		<rect x="87" y="57.9" class="st24" width="9" height="9"/>
		<rect x="96" y="57.9" class="st24" width="9" height="9"/>
		<rect x="105" y="57.9" class="st24" width="9" height="9"/>
		<rect x="114" y="57.9" class="st24" width="9" height="9"/>
		<rect x="123" y="57.9" class="st24" width="9" height="9"/>
		<rect x="132" y="57.9" class="st24" width="9" height="9"/>
		<rect x="87" y="66.9" class="st24" width="9" height="9"/>
		<rect x="96" y="66.9" class="st24" width="9" height="9"/>
		<rect x="105" y="66.9" class="st24" width="9" height="9"/>
		<rect x="114" y="66.9" class="st24" width="9" height="9"/>
		<rect x="123" y="66.9" class="st24" width="9" height="9"/>
		<rect x="132" y="66.9" class="st24" width="9" height="9"/>
		<rect x="87" y="75.9" class="st24" width="9" height="9"/>
		<rect x="96" y="75.9" class="st24" width="9" height="9"/>
		<rect x="105" y="75.9" class="st24" width="9" height="9"/>
		<rect x="114" y="75.9" class="st24" width="9" height="9"/>
		<rect x="123" y="75.9" class="st24" width="9" height="9"/>
		<rect x="132" y="75.9" class="st24" width="9" height="9"/>
	</g>
	<g class="st23">
		<rect x="36.8" y="124.4" class="st24" width="9" height="9"/>
		<rect x="45.8" y="124.4" class="st24" width="9" height="9"/>
		<rect x="54.8" y="124.4" class="st24" width="9" height="9"/>
		<rect x="63.8" y="124.4" class="st24" width="9" height="9"/>
		<rect x="72.8" y="124.4" class="st24" width="9" height="9"/>
		<rect x="81.8" y="124.4" class="st24" width="9" height="9"/>
		<rect x="36.8" y="133.4" class="st24" width="9" height="9"/>
		<rect x="45.8" y="133.4" class="st24" width="9" height="9"/>
		<rect x="54.8" y="133.4" class="st24" width="9" height="9"/>
		<rect x="63.8" y="133.4" class="st24" width="9" height="9"/>
		<rect x="72.8" y="133.4" class="st24" width="9" height="9"/>
		<rect x="81.8" y="133.4" class="st24" width="9" height="9"/>
		<rect x="36.8" y="142.4" class="st24" width="9" height="9"/>
		<rect x="45.8" y="142.4" class="st24" width="9" height="9"/>
		<rect x="54.8" y="142.4" class="st24" width="9" height="9"/>
		<rect x="63.8" y="142.4" class="st24" width="9" height="9"/>
		<rect x="72.8" y="142.4" class="st24" width="9" height="9"/>
		<rect x="81.8" y="142.4" class="st24" width="9" height="9"/>
		<rect x="36.8" y="151.4" class="st24" width="9" height="9"/>
		<rect x="45.8" y="151.4" class="st24" width="9" height="9"/>
		<rect x="54.8" y="151.4" class="st24" width="9" height="9"/>
		<rect x="63.8" y="151.4" class="st24" width="9" height="9"/>
		<rect x="72.8" y="151.4" class="st24" width="9" height="9"/>
		<rect x="81.8" y="151.4" class="st24" width="9" height="9"/>
		<rect x="36.8" y="160.4" class="st24" width="9" height="9"/>
		<rect x="45.8" y="160.4" class="st24" width="9" height="9"/>
		<rect x="54.8" y="160.4" class="st24" width="9" height="9"/>
		<rect x="63.8" y="160.4" class="st24" width="9" height="9"/>
		<rect x="72.8" y="160.4" class="st24" width="9" height="9"/>
		<rect x="81.8" y="160.4" class="st24" width="9" height="9"/>
		<rect x="36.8" y="169.4" class="st24" width="9" height="9"/>
		<rect x="45.8" y="169.4" class="st24" width="9" height="9"/>
		<rect x="54.8" y="169.4" class="st24" width="9" height="9"/>
		<rect x="63.8" y="169.4" class="st24" width="9" height="9"/>
		<rect x="72.8" y="169.4" class="st24" width="9" height="9"/>
		<rect x="81.8" y="169.4" class="st24" width="9" height="9"/>
		<rect x="36.8" y="178.4" class="st24" width="9" height="9"/>
		<rect x="45.8" y="178.4" class="st24" width="9" height="9"/>
		<rect x="54.8" y="178.4" class="st24" width="9" height="9"/>
		<rect x="63.8" y="178.4" class="st24" width="9" height="9"/>
		<rect x="72.8" y="178.4" class="st24" width="9" height="9"/>
		<rect x="81.8" y="178.4" class="st24" width="9" height="9"/>
	</g>
	<g class="st23">
		<rect x="89" y="221.2" class="st24" width="9" height="9"/>
		<rect x="98" y="221.2" class="st24" width="9" height="9"/>
		<rect x="107" y="221.2" class="st24" width="9" height="9"/>
		<rect x="116" y="221.2" class="st24" width="9" height="9"/>
		<rect x="125" y="221.2" class="st24" width="9" height="9"/>
		<rect x="134" y="221.2" class="st24" width="9" height="9"/>
		<rect x="89" y="230.2" class="st24" width="9" height="9"/>
		<rect x="98" y="230.2" class="st24" width="9" height="9"/>
		<rect x="107" y="230.2" class="st24" width="9" height="9"/>
		<rect x="116" y="230.2" class="st24" width="9" height="9"/>
		<rect x="125" y="230.2" class="st24" width="9" height="9"/>
		<rect x="134" y="230.2" class="st24" width="9" height="9"/>
		<rect x="89" y="239.2" class="st24" width="9" height="9"/>
		<rect x="98" y="239.2" class="st24" width="9" height="9"/>
		<rect x="107" y="239.2" class="st24" width="9" height="9"/>
		<rect x="116" y="239.2" class="st24" width="9" height="9"/>
		<rect x="125" y="239.2" class="st24" width="9" height="9"/>
		<rect x="134" y="239.2" class="st24" width="9" height="9"/>
		<rect x="89" y="248.2" class="st24" width="9" height="9"/>
		<rect x="98" y="248.2" class="st24" width="9" height="9"/>
		<rect x="107" y="248.2" class="st24" width="9" height="9"/>
		<rect x="116" y="248.2" class="st24" width="9" height="9"/>
		<rect x="125" y="248.2" class="st24" width="9" height="9"/>
		<rect x="134" y="248.2" class="st24" width="9" height="9"/>
		<rect x="89" y="257.2" class="st24" width="9" height="9"/>
		<rect x="98" y="257.2" class="st24" width="9" height="9"/>
		<rect x="107" y="257.2" class="st24" width="9" height="9"/>
		<rect x="116" y="257.2" class="st24" width="9" height="9"/>
		<rect x="125" y="257.2" class="st24" width="9" height="9"/>
		<rect x="134" y="257.2" class="st24" width="9" height="9"/>
		<rect x="89" y="266.2" class="st24" width="9" height="9"/>
		<rect x="98" y="266.2" class="st24" width="9" height="9"/>
		<rect x="107" y="266.2" class="st24" width="9" height="9"/>
		<rect x="116" y="266.2" class="st24" width="9" height="9"/>
		<rect x="125" y="266.2" class="st24" width="9" height="9"/>
		<rect x="134" y="266.2" class="st24" width="9" height="9"/>
		<rect x="89" y="275.2" class="st24" width="9" height="9"/>
		<rect x="98" y="275.2" class="st24" width="9" height="9"/>
		<rect x="107" y="275.2" class="st24" width="9" height="9"/>
		<rect x="116" y="275.2" class="st24" width="9" height="9"/>
		<rect x="125" y="275.2" class="st24" width="9" height="9"/>
		<rect x="134" y="275.2" class="st24" width="9" height="9"/>
	</g>
	<g class="st23">
		<rect x="204.6" y="222.5" class="st24" width="9" height="9"/>
		<rect x="213.6" y="222.5" class="st24" width="9" height="9"/>
		<rect x="222.6" y="222.5" class="st24" width="9" height="9"/>
		<rect x="231.6" y="222.5" class="st24" width="9" height="9"/>
		<rect x="240.6" y="222.5" class="st24" width="9" height="9"/>
		<rect x="249.6" y="222.5" class="st24" width="9" height="9"/>
		<rect x="204.6" y="231.5" class="st24" width="9" height="9"/>
		<rect x="213.6" y="231.5" class="st24" width="9" height="9"/>
		<rect x="222.6" y="231.5" class="st24" width="9" height="9"/>
		<rect x="231.6" y="231.5" class="st24" width="9" height="9"/>
		<rect x="240.6" y="231.5" class="st24" width="9" height="9"/>
		<rect x="249.6" y="231.5" class="st24" width="9" height="9"/>
		<rect x="204.6" y="240.5" class="st24" width="9" height="9"/>
		<rect x="213.6" y="240.5" class="st24" width="9" height="9"/>
		<rect x="222.6" y="240.5" class="st24" width="9" height="9"/>
		<rect x="231.6" y="240.5" class="st24" width="9" height="9"/>
		<rect x="240.6" y="240.5" class="st24" width="9" height="9"/>
		<rect x="249.6" y="240.5" class="st24" width="9" height="9"/>
		<rect x="204.6" y="249.5" class="st24" width="9" height="9"/>
		<rect x="213.6" y="249.5" class="st24" width="9" height="9"/>
		<rect x="222.6" y="249.5" class="st24" width="9" height="9"/>
		<rect x="231.6" y="249.5" class="st24" width="9" height="9"/>
		<rect x="240.6" y="249.5" class="st24" width="9" height="9"/>
		<rect x="249.6" y="249.5" class="st24" width="9" height="9"/>
		<rect x="204.6" y="258.5" class="st24" width="9" height="9"/>
		<rect x="213.6" y="258.5" class="st24" width="9" height="9"/>
		<rect x="222.6" y="258.5" class="st24" width="9" height="9"/>
		<rect x="231.6" y="258.5" class="st24" width="9" height="9"/>
		<rect x="240.6" y="258.5" class="st24" width="9" height="9"/>
		<rect x="249.6" y="258.5" class="st24" width="9" height="9"/>
		<rect x="204.6" y="267.5" class="st24" width="9" height="9"/>
		<rect x="213.6" y="267.5" class="st24" width="9" height="9"/>
		<rect x="222.6" y="267.5" class="st24" width="9" height="9"/>
		<rect x="231.6" y="267.5" class="st24" width="9" height="9"/>
		<rect x="240.6" y="267.5" class="st24" width="9" height="9"/>
		<rect x="249.6" y="267.5" class="st24" width="9" height="9"/>
		<rect x="204.6" y="276.5" class="st24" width="9" height="9"/>
		<rect x="213.6" y="276.5" class="st24" width="9" height="9"/>
		<rect x="222.6" y="276.5" class="st24" width="9" height="9"/>
		<rect x="231.6" y="276.5" class="st24" width="9" height="9"/>
		<rect x="240.6" y="276.5" class="st24" width="9" height="9"/>
		<rect x="249.6" y="276.5" class="st24" width="9" height="9"/>
	</g>
	<g class="st23">
		<rect x="255.8" y="119.6" class="st24" width="9" height="9"/>
		<rect x="264.8" y="119.6" class="st24" width="9" height="9"/>
		<rect x="273.8" y="119.6" class="st24" width="9" height="9"/>
		<rect x="282.8" y="119.6" class="st24" width="9" height="9"/>
		<rect x="291.8" y="119.6" class="st24" width="9" height="9"/>
		<rect x="300.8" y="119.6" class="st24" width="9" height="9"/>
		<rect x="255.8" y="128.6" class="st24" width="9" height="9"/>
		<rect x="264.8" y="128.6" class="st24" width="9" height="9"/>
		<rect x="273.8" y="128.6" class="st24" width="9" height="9"/>
		<rect x="282.8" y="128.6" class="st24" width="9" height="9"/>
		<rect x="291.8" y="128.6" class="st24" width="9" height="9"/>
		<rect x="300.8" y="128.6" class="st24" width="9" height="9"/>
		<rect x="255.8" y="137.6" class="st24" width="9" height="9"/>
		<rect x="264.8" y="137.6" class="st24" width="9" height="9"/>
		<rect x="273.8" y="137.6" class="st24" width="9" height="9"/>
		<rect x="282.8" y="137.6" class="st24" width="9" height="9"/>
		<rect x="291.8" y="137.6" class="st24" width="9" height="9"/>
		<rect x="300.8" y="137.6" class="st24" width="9" height="9"/>
		<rect x="255.8" y="146.6" class="st24" width="9" height="9"/>
		<rect x="264.8" y="146.6" class="st24" width="9" height="9"/>
		<rect x="273.8" y="146.6" class="st24" width="9" height="9"/>
		<rect x="282.8" y="146.6" class="st24" width="9" height="9"/>
		<rect x="291.8" y="146.6" class="st24" width="9" height="9"/>
		<rect x="300.8" y="146.6" class="st24" width="9" height="9"/>
		<rect x="255.8" y="155.6" class="st24" width="9" height="9"/>
		<rect x="264.8" y="155.6" class="st24" width="9" height="9"/>
		<rect x="273.8" y="155.6" class="st24" width="9" height="9"/>
		<rect x="282.8" y="155.6" class="st24" width="9" height="9"/>
		<rect x="291.8" y="155.6" class="st24" width="9" height="9"/>
		<rect x="300.8" y="155.6" class="st24" width="9" height="9"/>
		<rect x="255.8" y="164.6" class="st24" width="9" height="9"/>
		<rect x="264.8" y="164.6" class="st24" width="9" height="9"/>
		<rect x="273.8" y="164.6" class="st24" width="9" height="9"/>
		<rect x="282.8" y="164.6" class="st24" width="9" height="9"/>
		<rect x="291.8" y="164.6" class="st24" width="9" height="9"/>
		<rect x="300.8" y="164.6" class="st24" width="9" height="9"/>
		<rect x="255.8" y="173.6" class="st24" width="9" height="9"/>
		<rect x="264.8" y="173.6" class="st24" width="9" height="9"/>
		<rect x="273.8" y="173.6" class="st24" width="9" height="9"/>
		<rect x="282.8" y="173.6" class="st24" width="9" height="9"/>
		<rect x="291.8" y="173.6" class="st24" width="9" height="9"/>
		<rect x="300.8" y="173.6" class="st24" width="9" height="9"/>
	</g>
</g>
<g id="Layer_1">
	<g>
		<path class="st29" d="M200.6,94.2l-0.7,2.3h-1.6l2.6-8.3h1.9l2.7,8.3h-1.6l-0.7-2.3H200.6z M202.9,93l-0.6-2
			c-0.2-0.5-0.3-1.1-0.4-1.5h0c-0.1,0.5-0.2,1.1-0.4,1.5l-0.6,2H202.9z"/>
		<path class="st29" d="M206.5,95.1c0.3,0.2,1,0.4,1.5,0.4c0.7,0,1-0.3,1-0.7c0-0.4-0.2-0.6-1-0.9c-1.2-0.4-1.7-1-1.6-1.7
			c0-1.1,0.9-1.9,2.3-1.9c0.7,0,1.2,0.2,1.6,0.4l-0.3,1.1c-0.3-0.1-0.7-0.3-1.3-0.3c-0.5,0-0.8,0.3-0.8,0.6c0,0.4,0.3,0.6,1,0.8
			c1.1,0.4,1.6,0.9,1.6,1.8c0,1.1-0.8,1.9-2.4,1.9c-0.7,0-1.4-0.2-1.8-0.4L206.5,95.1z"/>
		<path class="st29" d="M211.6,95.1c0.3,0.2,1,0.4,1.5,0.4c0.7,0,1-0.3,1-0.7c0-0.4-0.2-0.6-1-0.9c-1.2-0.4-1.7-1-1.6-1.7
			c0-1.1,0.9-1.9,2.3-1.9c0.7,0,1.2,0.2,1.6,0.4l-0.3,1.1c-0.3-0.1-0.7-0.3-1.3-0.3c-0.5,0-0.8,0.3-0.8,0.6c0,0.4,0.3,0.6,1,0.8
			c1.1,0.4,1.6,0.9,1.6,1.8c0,1.1-0.8,1.9-2.4,1.9c-0.7,0-1.4-0.2-1.8-0.4L211.6,95.1z"/>
		<path class="st29" d="M222.5,93.5c0,2.2-1.5,3.2-3.1,3.2c-1.7,0-3-1.2-3-3.1c0-2,1.3-3.2,3.1-3.2
			C221.3,90.4,222.5,91.6,222.5,93.5z M218,93.5c0,1.2,0.6,2,1.5,2c0.9,0,1.5-0.8,1.5-2c0-0.9-0.4-2-1.4-2
			C218.4,91.5,218,92.5,218,93.5z"/>
		<path class="st29" d="M223.7,92.5c0-0.8,0-1.4,0-1.9h1.3l0,1.1h0c0.3-0.8,1-1.3,1.6-1.3c0.1,0,0.2,0,0.4,0v1.4c-0.1,0-0.3,0-0.4,0
			c-0.7,0-1.2,0.5-1.3,1.1c0,0.1,0,0.3,0,0.5v3.1h-1.5V92.5z"/>
		<path class="st29" d="M230.1,88.8v1.7h1.4v1.1h-1.4v2.6c0,0.7,0.2,1.1,0.8,1.1c0.3,0,0.5,0,0.6-0.1l0,1.2
			c-0.2,0.1-0.6,0.1-1.1,0.1c-0.6,0-1-0.2-1.3-0.5c-0.3-0.3-0.5-0.9-0.5-1.7v-2.8h-0.9v-1.1h0.9v-1.3L230.1,88.8z"/>
		<path class="st29" d="M232.7,92.3c0-0.7,0-1.3,0-1.8h1.3l0.1,0.9h0c0.3-0.5,0.8-1,1.8-1c0.8,0,1.4,0.4,1.7,1.1h0
			c0.2-0.3,0.5-0.6,0.7-0.7c0.3-0.2,0.7-0.4,1.2-0.4c1,0,2,0.7,2,2.6v3.5H240v-3.3c0-1-0.3-1.6-1.1-1.6c-0.5,0-0.9,0.4-1.1,0.8
			c0,0.1-0.1,0.3-0.1,0.5v3.6h-1.5V93c0-0.8-0.3-1.4-1-1.4c-0.6,0-0.9,0.4-1.1,0.9c-0.1,0.1-0.1,0.3-0.1,0.5v3.5h-1.5V92.3z"/>
		<path class="st29" d="M244.1,93.9c0,1.1,0.9,1.5,1.8,1.5c0.7,0,1.2-0.1,1.7-0.3l0.2,1c-0.5,0.2-1.2,0.4-2.1,0.4
			c-1.9,0-3.1-1.2-3.1-3c0-1.7,1-3.2,2.9-3.2c1.9,0,2.6,1.6,2.6,2.9c0,0.3,0,0.5,0,0.6H244.1z M246.7,92.9c0-0.6-0.2-1.5-1.2-1.5
			c-0.9,0-1.3,0.8-1.4,1.5H246.7z"/>
		<path class="st29" d="M249.4,92.3c0-0.7,0-1.3,0-1.8h1.3l0.1,0.9h0c0.3-0.5,0.9-1,1.9-1c1,0,2.1,0.7,2.1,2.6v3.5h-1.5v-3.4
			c0-0.9-0.3-1.5-1.1-1.5c-0.6,0-1,0.4-1.2,0.9c0,0.1-0.1,0.3-0.1,0.5v3.5h-1.5V92.3z"/>
		<path class="st29" d="M258.1,88.8v1.7h1.4v1.1h-1.4v2.6c0,0.7,0.2,1.1,0.8,1.1c0.3,0,0.5,0,0.6-0.1l0,1.2
			c-0.2,0.1-0.6,0.1-1.1,0.1c-0.6,0-1-0.2-1.3-0.5c-0.3-0.3-0.5-0.9-0.5-1.7v-2.8h-0.9v-1.1h0.9v-1.3L258.1,88.8z"/>
		<path class="st29" d="M207.9,106.8c0.3,0.2,1,0.4,1.5,0.4c0.7,0,1-0.3,1-0.7c0-0.4-0.2-0.6-1-0.9c-1.2-0.4-1.7-1-1.6-1.7
			c0-1.1,0.9-1.9,2.3-1.9c0.7,0,1.2,0.2,1.6,0.4l-0.3,1.1c-0.3-0.1-0.7-0.3-1.3-0.3c-0.5,0-0.8,0.3-0.8,0.6c0,0.4,0.3,0.6,1,0.8
			c1.1,0.4,1.6,0.9,1.6,1.8c0,1.1-0.8,1.9-2.4,1.9c-0.7,0-1.4-0.2-1.8-0.4L207.9,106.8z"/>
		<path class="st29" d="M214.8,100.5v1.7h1.4v1.1h-1.4v2.6c0,0.7,0.2,1.1,0.8,1.1c0.3,0,0.5,0,0.6-0.1l0,1.2
			c-0.2,0.1-0.6,0.1-1.1,0.1c-0.6,0-1-0.2-1.3-0.5c-0.3-0.3-0.5-0.9-0.5-1.7v-2.8h-0.9v-1.1h0.9v-1.3L214.8,100.5z"/>
		<path class="st29" d="M217.4,104.1c0-0.8,0-1.4,0-1.9h1.3l0,1.1h0c0.3-0.8,1-1.3,1.6-1.3c0.1,0,0.2,0,0.4,0v1.4
			c-0.1,0-0.3,0-0.4,0c-0.7,0-1.2,0.5-1.3,1.1c0,0.1,0,0.3,0,0.5v3.1h-1.5V104.1z"/>
		<path class="st29" d="M225,108.2l-0.1-0.7h0c-0.4,0.5-1,0.8-1.8,0.8c-1.2,0-1.9-0.9-1.9-1.8c0-1.5,1.3-2.3,3.5-2.3v-0.1
			c0-0.4-0.2-1-1.2-1c-0.6,0-1.2,0.2-1.6,0.4l-0.3-1c0.4-0.3,1.2-0.5,2.2-0.5c1.9,0,2.5,1.2,2.5,2.5v2.2c0,0.5,0,1.1,0.1,1.4H225z
			 M224.8,105.2c-1.1,0-2.1,0.2-2.1,1.1c0,0.6,0.4,0.9,0.9,0.9c0.6,0,1-0.4,1.2-0.8c0-0.1,0-0.2,0-0.3V105.2z"/>
		<path class="st29" d="M229.5,100.5v1.7h1.4v1.1h-1.4v2.6c0,0.7,0.2,1.1,0.8,1.1c0.3,0,0.5,0,0.6-0.1l0,1.2
			c-0.2,0.1-0.6,0.1-1.1,0.1c-0.6,0-1-0.2-1.3-0.5c-0.3-0.3-0.5-0.9-0.5-1.7v-2.8h-0.9v-1.1h0.9v-1.3L229.5,100.5z"/>
		<path class="st29" d="M233.1,105.6c0,1.1,0.9,1.5,1.8,1.5c0.7,0,1.2-0.1,1.7-0.3l0.2,1c-0.5,0.2-1.2,0.4-2.1,0.4
			c-1.9,0-3.1-1.2-3.1-3c0-1.7,1-3.2,2.9-3.2c1.9,0,2.6,1.6,2.6,2.9c0,0.3,0,0.5,0,0.6H233.1z M235.7,104.5c0-0.6-0.2-1.5-1.2-1.5
			c-0.9,0-1.3,0.8-1.4,1.5H235.7z"/>
		<path class="st29" d="M243.8,102.2c0,0.4,0,0.9,0,1.7v3.4c0,1.3-0.3,2.1-0.9,2.7c-0.6,0.6-1.5,0.7-2.3,0.7c-0.8,0-1.6-0.2-2.1-0.5
			l0.3-1.1c0.4,0.2,1,0.5,1.7,0.5c1,0,1.7-0.5,1.7-1.8v-0.5h0c-0.3,0.5-1,0.9-1.7,0.9c-1.5,0-2.5-1.2-2.5-2.9c0-2,1.3-3.1,2.7-3.1
			c0.9,0,1.4,0.4,1.7,0.9h0l0.1-0.8H243.8z M242.2,104.6c0-0.1,0-0.3,0-0.4c-0.2-0.6-0.6-1-1.2-1c-0.8,0-1.5,0.7-1.5,1.9
			c0,1,0.5,1.8,1.5,1.8c0.6,0,1.1-0.4,1.2-0.9c0-0.2,0.1-0.4,0.1-0.5V104.6z"/>
		<path class="st29" d="M246.3,102.2l1.1,3.2c0.1,0.4,0.2,0.8,0.3,1.2h0c0.1-0.3,0.2-0.8,0.3-1.2l0.9-3.2h1.6l-1.5,4.1
			c-0.8,2.2-1.4,3.2-2.1,3.8c-0.6,0.5-1.2,0.7-1.6,0.8l-0.3-1.3c0.3-0.1,0.6-0.2,0.9-0.4c0.3-0.2,0.6-0.5,0.8-0.9
			c0.1-0.1,0.1-0.2,0.1-0.3c0-0.1,0-0.1-0.1-0.3l-2.2-5.5H246.3z"/>
	</g>
	<g>
		<path class="st29" d="M57.5,94.9c0.5,0.3,1.2,0.5,2,0.5c1,0,1.5-0.5,1.5-1.1c0-0.6-0.4-1-1.5-1.4c-1.4-0.5-2.2-1.2-2.2-2.4
			c0-1.3,1.1-2.4,2.9-2.4c0.9,0,1.6,0.2,2,0.4l-0.4,1.2c-0.3-0.2-0.9-0.4-1.6-0.4c-1,0-1.4,0.5-1.4,1c0,0.6,0.5,0.9,1.6,1.4
			c1.4,0.5,2.1,1.3,2.1,2.5c0,1.3-1,2.5-3.1,2.5c-0.9,0-1.8-0.2-2.2-0.5L57.5,94.9z"/>
		<path class="st29" d="M69.2,94.7c0,0.7,0,1.3,0,1.8h-1.3l-0.1-0.9h0c-0.3,0.4-0.8,1-1.9,1c-1.1,0-2.1-0.6-2.1-2.6v-3.5h1.5v3.2
			c0,1,0.3,1.6,1.1,1.6c0.6,0,1-0.4,1.2-0.8c0-0.1,0.1-0.3,0.1-0.5v-3.6h1.5V94.7z"/>
		<path class="st29" d="M70.8,92.5c0-0.8,0-1.4,0-2h1.3l0.1,0.9h0c0.4-0.7,1.1-1.1,2-1.1c1.4,0,2.5,1.2,2.5,3c0,2.2-1.4,3.2-2.7,3.2
			c-0.7,0-1.4-0.3-1.7-0.8h0v3.1h-1.5V92.5z M72.3,94c0,0.1,0,0.3,0,0.4c0.1,0.6,0.7,1.1,1.3,1.1c1,0,1.5-0.8,1.5-2
			c0-1.1-0.5-1.9-1.5-1.9c-0.6,0-1.2,0.5-1.3,1.1c0,0.1-0.1,0.3-0.1,0.4V94z"/>
		<path class="st29" d="M78,92.5c0-0.8,0-1.4,0-2h1.3l0.1,0.9h0c0.4-0.7,1.1-1.1,2-1.1c1.4,0,2.5,1.2,2.5,3c0,2.2-1.4,3.2-2.7,3.2
			c-0.7,0-1.4-0.3-1.7-0.8h0v3.1H78V92.5z M79.5,94c0,0.1,0,0.3,0,0.4c0.1,0.6,0.7,1.1,1.3,1.1c1,0,1.5-0.8,1.5-2
			c0-1.1-0.5-1.9-1.5-1.9c-0.6,0-1.2,0.5-1.3,1.1c0,0.1-0.1,0.3-0.1,0.4V94z"/>
		<path class="st29" d="M85.2,87.8h1.5v8.7h-1.5V87.8z"/>
		<path class="st29" d="M89.9,88.9c0,0.5-0.3,0.8-0.9,0.8c-0.5,0-0.8-0.4-0.8-0.8c0-0.5,0.3-0.8,0.8-0.8
			C89.6,88,89.9,88.4,89.9,88.9z M88.3,96.5v-6h1.5v6H88.3z"/>
		<path class="st29" d="M92.5,93.9c0,1.1,0.9,1.5,1.8,1.5c0.7,0,1.2-0.1,1.7-0.3l0.2,1c-0.5,0.2-1.2,0.4-2.1,0.4
			c-1.9,0-3.1-1.2-3.1-3c0-1.7,1-3.2,2.9-3.2c1.9,0,2.6,1.6,2.6,2.9c0,0.3,0,0.5,0,0.6H92.5z M95.1,92.9c0-0.6-0.2-1.5-1.2-1.5
			c-0.9,0-1.3,0.8-1.4,1.5H95.1z"/>
		<path class="st29" d="M97.8,92.5c0-0.8,0-1.4,0-1.9H99l0,1.1h0c0.3-0.8,1-1.3,1.6-1.3c0.1,0,0.2,0,0.4,0v1.4c-0.1,0-0.3,0-0.4,0
			c-0.7,0-1.2,0.5-1.3,1.1c0,0.1,0,0.3,0,0.5v3.1h-1.5V92.5z"/>
		<path class="st29" d="M104.7,92.5c0-0.8,0-1.4,0-1.9h1.3l0,1.1h0c0.3-0.8,1-1.3,1.6-1.3c0.1,0,0.2,0,0.4,0v1.4c-0.1,0-0.3,0-0.4,0
			c-0.7,0-1.2,0.5-1.3,1.1c0,0.1,0,0.3,0,0.5v3.1h-1.5V92.5z"/>
		<path class="st29" d="M110,93.9c0,1.1,0.9,1.5,1.8,1.5c0.7,0,1.2-0.1,1.7-0.3l0.2,1c-0.5,0.2-1.2,0.4-2.1,0.4
			c-1.9,0-3.1-1.2-3.1-3c0-1.7,1-3.2,2.9-3.2c1.9,0,2.6,1.6,2.6,2.9c0,0.3,0,0.5,0,0.6H110z M112.6,92.9c0-0.6-0.2-1.5-1.2-1.5
			c-0.9,0-1.3,0.8-1.4,1.5H112.6z"/>
		<path class="st29" d="M115.2,87.8h1.5v8.7h-1.5V87.8z"/>
		<path class="st29" d="M121.7,96.5l-0.1-0.7h0c-0.4,0.5-1,0.8-1.8,0.8c-1.2,0-1.9-0.9-1.9-1.8c0-1.5,1.3-2.3,3.5-2.3v-0.1
			c0-0.4-0.2-1-1.2-1c-0.6,0-1.2,0.2-1.6,0.4l-0.3-1c0.4-0.3,1.2-0.5,2.2-0.5c1.9,0,2.5,1.2,2.5,2.5v2.2c0,0.5,0,1.1,0.1,1.4H121.7z
			 M121.5,93.6c-1.1,0-2.1,0.2-2.1,1.1c0,0.6,0.4,0.9,0.9,0.9c0.6,0,1-0.4,1.2-0.8c0-0.1,0-0.2,0-0.3V93.6z"/>
		<path class="st29" d="M126.3,88.8v1.7h1.4v1.1h-1.4v2.6c0,0.7,0.2,1.1,0.8,1.1c0.3,0,0.5,0,0.6-0.1l0,1.2
			c-0.2,0.1-0.6,0.1-1.1,0.1c-0.6,0-1-0.2-1.3-0.5c-0.3-0.3-0.5-0.9-0.5-1.7v-2.8h-0.9v-1.1h0.9v-1.3L126.3,88.8z"/>
		<path class="st29" d="M130.4,88.9c0,0.5-0.3,0.8-0.9,0.8c-0.5,0-0.8-0.4-0.8-0.8c0-0.5,0.3-0.8,0.8-0.8
			C130.1,88,130.4,88.4,130.4,88.9z M128.8,96.5v-6h1.5v6H128.8z"/>
		<path class="st29" d="M137.6,93.5c0,2.2-1.5,3.2-3.1,3.2c-1.7,0-3-1.2-3-3.1c0-2,1.3-3.2,3.1-3.2
			C136.5,90.4,137.6,91.6,137.6,93.5z M133.1,93.5c0,1.2,0.6,2,1.5,2c0.9,0,1.5-0.8,1.5-2c0-0.9-0.4-2-1.4-2
			C133.6,91.5,133.1,92.5,133.1,93.5z"/>
		<path class="st29" d="M138.9,92.3c0-0.7,0-1.3,0-1.8h1.3l0.1,0.9h0c0.3-0.5,0.9-1,1.9-1c1,0,2.1,0.7,2.1,2.6v3.5h-1.5v-3.4
			c0-0.9-0.3-1.5-1.1-1.5c-0.6,0-1,0.4-1.2,0.9c0,0.1-0.1,0.3-0.1,0.5v3.5h-1.5V92.3z"/>
		<path class="st29" d="M145.8,95.1c0.3,0.2,1,0.4,1.5,0.4c0.7,0,1-0.3,1-0.7c0-0.4-0.2-0.6-1-0.9c-1.2-0.4-1.7-1-1.6-1.7
			c0-1.1,0.9-1.9,2.3-1.9c0.7,0,1.2,0.2,1.6,0.4l-0.3,1.1c-0.3-0.1-0.7-0.3-1.3-0.3c-0.5,0-0.8,0.3-0.8,0.6c0,0.4,0.3,0.6,1,0.8
			c1.1,0.4,1.6,0.9,1.6,1.8c0,1.1-0.8,1.9-2.4,1.9c-0.7,0-1.4-0.2-1.8-0.4L145.8,95.1z"/>
		<path class="st29" d="M151,87.8h1.5v3.6h0c0.2-0.3,0.4-0.5,0.7-0.7c0.3-0.2,0.6-0.3,1-0.3c1,0,2.1,0.7,2.1,2.6v3.5h-1.5v-3.3
			c0-0.9-0.3-1.5-1.2-1.5c-0.6,0-1,0.4-1.2,0.8c0,0.1-0.1,0.3-0.1,0.5v3.6H151V87.8z"/>
		<path class="st29" d="M159.6,88.9c0,0.5-0.3,0.8-0.9,0.8c-0.5,0-0.8-0.4-0.8-0.8c0-0.5,0.3-0.8,0.8-0.8
			C159.3,88,159.6,88.4,159.6,88.9z M158,96.5v-6h1.5v6H158z"/>
		<path class="st29" d="M161.1,92.5c0-0.8,0-1.4,0-2h1.3l0.1,0.9h0c0.4-0.7,1.1-1.1,2-1.1c1.4,0,2.5,1.2,2.5,3
			c0,2.2-1.4,3.2-2.7,3.2c-0.7,0-1.4-0.3-1.7-0.8h0v3.1h-1.5V92.5z M162.6,94c0,0.1,0,0.3,0,0.4c0.1,0.6,0.7,1.1,1.3,1.1
			c1,0,1.5-0.8,1.5-2c0-1.1-0.5-1.9-1.5-1.9c-0.6,0-1.2,0.5-1.3,1.1c0,0.1-0.1,0.3-0.1,0.4V94z"/>
		<path class="st29" d="M77.3,104c0-0.7,0-1.3,0-1.8h1.3l0.1,0.9h0c0.3-0.5,0.8-1,1.8-1c0.8,0,1.4,0.4,1.7,1.1h0
			c0.2-0.3,0.5-0.6,0.7-0.7c0.3-0.2,0.7-0.4,1.2-0.4c1,0,2,0.7,2,2.6v3.5h-1.5v-3.3c0-1-0.3-1.6-1.1-1.6c-0.5,0-0.9,0.4-1.1,0.8
			c0,0.1-0.1,0.3-0.1,0.5v3.6H81v-3.5c0-0.8-0.3-1.4-1-1.4c-0.6,0-0.9,0.4-1.1,0.9c-0.1,0.1-0.1,0.3-0.1,0.5v3.5h-1.5V104z"/>
		<path class="st29" d="M91.1,108.2l-0.1-0.7h0c-0.4,0.5-1,0.8-1.8,0.8c-1.2,0-1.9-0.9-1.9-1.8c0-1.5,1.3-2.3,3.5-2.3v-0.1
			c0-0.4-0.2-1-1.2-1c-0.6,0-1.2,0.2-1.6,0.4l-0.3-1c0.4-0.3,1.2-0.5,2.2-0.5c1.9,0,2.5,1.2,2.5,2.5v2.2c0,0.5,0,1.1,0.1,1.4H91.1z
			 M90.9,105.2c-1.1,0-2.1,0.2-2.1,1.1c0,0.6,0.4,0.9,0.9,0.9c0.6,0,1-0.4,1.2-0.8c0-0.1,0-0.2,0-0.3V105.2z"/>
		<path class="st29" d="M93.9,104c0-0.7,0-1.3,0-1.8h1.3l0.1,0.9h0c0.3-0.5,0.9-1,1.9-1c1,0,2.1,0.7,2.1,2.6v3.5h-1.5v-3.4
			c0-0.9-0.3-1.5-1.1-1.5c-0.6,0-1,0.4-1.2,0.9c0,0.1-0.1,0.3-0.1,0.5v3.5h-1.5V104z"/>
		<path class="st29" d="M104.3,108.2l-0.1-0.7h0c-0.4,0.5-1,0.8-1.8,0.8c-1.2,0-1.9-0.9-1.9-1.8c0-1.5,1.3-2.3,3.5-2.3v-0.1
			c0-0.4-0.2-1-1.2-1c-0.6,0-1.2,0.2-1.6,0.4l-0.3-1c0.4-0.3,1.2-0.5,2.2-0.5c1.9,0,2.5,1.2,2.5,2.5v2.2c0,0.5,0,1.1,0.1,1.4H104.3z
			 M104.1,105.2c-1.1,0-2.1,0.2-2.1,1.1c0,0.6,0.4,0.9,0.9,0.9c0.6,0,1-0.4,1.2-0.8c0-0.1,0-0.2,0-0.3V105.2z"/>
		<path class="st29" d="M112.6,102.2c0,0.4,0,0.9,0,1.7v3.4c0,1.3-0.3,2.1-0.9,2.7c-0.6,0.6-1.5,0.7-2.3,0.7c-0.8,0-1.6-0.2-2.1-0.5
			l0.3-1.1c0.4,0.2,1,0.5,1.7,0.5c1,0,1.7-0.5,1.7-1.8v-0.5h0c-0.3,0.5-1,0.9-1.7,0.9c-1.5,0-2.5-1.2-2.5-2.9c0-2,1.3-3.1,2.7-3.1
			c0.9,0,1.4,0.4,1.7,0.9h0l0.1-0.8H112.6z M111.1,104.6c0-0.1,0-0.3,0-0.4c-0.2-0.6-0.6-1-1.2-1c-0.8,0-1.5,0.7-1.5,1.9
			c0,1,0.5,1.8,1.5,1.8c0.6,0,1.1-0.4,1.2-0.9c0-0.2,0.1-0.4,0.1-0.5V104.6z"/>
		<path class="st29" d="M115.3,105.6c0,1.1,0.9,1.5,1.8,1.5c0.7,0,1.2-0.1,1.7-0.3l0.2,1c-0.5,0.2-1.2,0.4-2.1,0.4
			c-1.9,0-3.1-1.2-3.1-3c0-1.7,1-3.2,2.9-3.2c1.9,0,2.6,1.6,2.6,2.9c0,0.3,0,0.5,0,0.6H115.3z M117.9,104.5c0-0.6-0.2-1.5-1.2-1.5
			c-0.9,0-1.3,0.8-1.4,1.5H117.9z"/>
		<path class="st29" d="M120.5,104c0-0.7,0-1.3,0-1.8h1.3l0.1,0.9h0c0.3-0.5,0.8-1,1.8-1c0.8,0,1.4,0.4,1.7,1.1h0
			c0.2-0.3,0.5-0.6,0.7-0.7c0.3-0.2,0.7-0.4,1.2-0.4c1,0,2,0.7,2,2.6v3.5h-1.5v-3.3c0-1-0.3-1.6-1.1-1.6c-0.5,0-0.9,0.4-1.1,0.8
			c0,0.1-0.1,0.3-0.1,0.5v3.6h-1.5v-3.5c0-0.8-0.3-1.4-1-1.4c-0.6,0-0.9,0.4-1.1,0.9c-0.1,0.1-0.1,0.3-0.1,0.5v3.5h-1.5V104z"/>
		<path class="st29" d="M132,105.6c0,1.1,0.9,1.5,1.8,1.5c0.7,0,1.2-0.1,1.7-0.3l0.2,1c-0.5,0.2-1.2,0.4-2.1,0.4
			c-1.9,0-3.1-1.2-3.1-3c0-1.7,1-3.2,2.9-3.2c1.9,0,2.6,1.6,2.6,2.9c0,0.3,0,0.5,0,0.6H132z M134.6,104.5c0-0.6-0.2-1.5-1.2-1.5
			c-0.9,0-1.3,0.8-1.4,1.5H134.6z"/>
		<path class="st29" d="M137.2,104c0-0.7,0-1.3,0-1.8h1.3l0.1,0.9h0c0.3-0.5,0.9-1,1.9-1c1,0,2.1,0.7,2.1,2.6v3.5h-1.5v-3.4
			c0-0.9-0.3-1.5-1.1-1.5c-0.6,0-1,0.4-1.2,0.9c0,0.1-0.1,0.3-0.1,0.5v3.5h-1.5V104z"/>
		<path class="st29" d="M145.9,100.5v1.7h1.4v1.1h-1.4v2.6c0,0.7,0.2,1.1,0.8,1.1c0.3,0,0.5,0,0.6-0.1l0,1.2
			c-0.2,0.1-0.6,0.1-1.1,0.1c-0.6,0-1-0.2-1.3-0.5c-0.3-0.3-0.5-0.9-0.5-1.7v-2.8h-0.9v-1.1h0.9v-1.3L145.9,100.5z"/>
	</g>
	<g>
		<path class="st29" d="M209,288.9v8.3h-1.5v-8.3H209z"/>
		<path class="st29" d="M210.7,293c0-0.7,0-1.3,0-1.8h1.3l0.1,0.9h0c0.3-0.5,0.9-1,1.9-1c1,0,2.1,0.7,2.1,2.6v3.5h-1.5v-3.4
			c0-0.9-0.3-1.5-1.1-1.5c-0.6,0-1,0.4-1.2,0.9c0,0.1-0.1,0.3-0.1,0.5v3.5h-1.5V293z"/>
		<path class="st29" d="M220.2,295.8c0.3,0.2,1,0.4,1.5,0.4c0.7,0,1-0.3,1-0.7c0-0.4-0.2-0.6-1-0.9c-1.2-0.4-1.7-1-1.6-1.7
			c0-1.1,0.9-1.9,2.3-1.9c0.7,0,1.2,0.2,1.6,0.4l-0.3,1.1c-0.3-0.1-0.7-0.3-1.3-0.3c-0.5,0-0.8,0.3-0.8,0.6c0,0.4,0.3,0.6,1,0.8
			c1.1,0.4,1.6,0.9,1.6,1.8c0,1.1-0.8,1.9-2.4,1.9c-0.7,0-1.4-0.2-1.8-0.4L220.2,295.8z"/>
		<path class="st29" d="M227.1,289.5v1.7h1.4v1.1h-1.4v2.6c0,0.7,0.2,1.1,0.8,1.1c0.3,0,0.5,0,0.6-0.1l0,1.2
			c-0.2,0.1-0.6,0.1-1.1,0.1c-0.6,0-1-0.2-1.3-0.5c-0.3-0.3-0.5-0.9-0.5-1.7v-2.8h-0.9v-1.1h0.9v-1.3L227.1,289.5z"/>
		<path class="st29" d="M235.3,294.1c0,2.2-1.5,3.2-3.1,3.2c-1.7,0-3-1.2-3-3.1c0-2,1.3-3.2,3.1-3.2
			C234.1,291.1,235.3,292.3,235.3,294.1z M230.8,294.2c0,1.2,0.6,2,1.5,2c0.9,0,1.5-0.8,1.5-2c0-0.9-0.4-2-1.4-2
			C231.2,292.2,230.8,293.2,230.8,294.2z"/>
		<path class="st29" d="M236.5,293.1c0-0.8,0-1.4,0-1.9h1.3l0,1.1h0c0.3-0.8,1-1.3,1.6-1.3c0.1,0,0.2,0,0.4,0v1.4
			c-0.1,0-0.3,0-0.4,0c-0.7,0-1.2,0.5-1.3,1.1c0,0.1,0,0.3,0,0.5v3.1h-1.5V293.1z"/>
		<path class="st29" d="M241.8,294.6c0,1.1,0.9,1.5,1.8,1.5c0.7,0,1.2-0.1,1.7-0.3l0.2,1c-0.5,0.2-1.2,0.4-2.1,0.4
			c-1.9,0-3.1-1.2-3.1-3c0-1.7,1-3.2,2.9-3.2c1.9,0,2.6,1.6,2.6,2.9c0,0.3,0,0.5,0,0.6H241.8z M244.5,293.6c0-0.6-0.2-1.5-1.2-1.5
			c-0.9,0-1.3,0.8-1.4,1.5H244.5z"/>
		<path class="st29" d="M199.8,304.7c0-0.7,0-1.3,0-1.8h1.3l0.1,0.9h0c0.3-0.5,0.8-1,1.8-1c0.8,0,1.4,0.4,1.7,1.1h0
			c0.2-0.3,0.5-0.6,0.7-0.7c0.3-0.2,0.7-0.4,1.2-0.4c1,0,2,0.7,2,2.6v3.5h-1.5v-3.3c0-1-0.3-1.6-1.1-1.6c-0.5,0-0.9,0.4-1.1,0.8
			c0,0.1-0.1,0.3-0.1,0.5v3.6h-1.5v-3.5c0-0.8-0.3-1.4-1-1.4c-0.6,0-0.9,0.4-1.1,0.9c-0.1,0.1-0.1,0.3-0.1,0.5v3.5h-1.5V304.7z"/>
		<path class="st29" d="M213.6,308.8l-0.1-0.7h0c-0.4,0.5-1,0.8-1.8,0.8c-1.2,0-1.9-0.9-1.9-1.8c0-1.5,1.3-2.3,3.5-2.3v-0.1
			c0-0.4-0.2-1-1.2-1c-0.6,0-1.2,0.2-1.6,0.4l-0.3-1c0.4-0.3,1.2-0.5,2.2-0.5c1.9,0,2.5,1.2,2.5,2.5v2.2c0,0.5,0,1.1,0.1,1.4H213.6z
			 M213.4,305.9c-1.1,0-2.1,0.2-2.1,1.1c0,0.6,0.4,0.9,0.9,0.9c0.6,0,1-0.4,1.2-0.8c0-0.1,0-0.2,0-0.3V305.9z"/>
		<path class="st29" d="M216.4,304.8c0-0.8,0-1.4,0-1.9h1.3l0,1.1h0c0.3-0.8,1-1.3,1.6-1.3c0.1,0,0.2,0,0.4,0v1.4
			c-0.1,0-0.3,0-0.4,0c-0.7,0-1.2,0.5-1.3,1.1c0,0.1,0,0.3,0,0.5v3.1h-1.5V304.8z"/>
		<path class="st29" d="M222.3,305.5L222.3,305.5c0.2-0.2,0.3-0.5,0.5-0.7l1.4-1.9h1.8l-2.2,2.4l2.5,3.5h-1.8l-1.7-2.6l-0.5,0.6v2
			h-1.5v-8.7h1.5V305.5z"/>
		<path class="st29" d="M228,306.3c0,1.1,0.9,1.5,1.8,1.5c0.7,0,1.2-0.1,1.7-0.3l0.2,1c-0.5,0.2-1.2,0.4-2.1,0.4
			c-1.9,0-3.1-1.2-3.1-3c0-1.7,1-3.2,2.9-3.2c1.9,0,2.6,1.6,2.6,2.9c0,0.3,0,0.5,0,0.6H228z M230.6,305.2c0-0.6-0.2-1.5-1.2-1.5
			c-0.9,0-1.3,0.8-1.4,1.5H230.6z"/>
		<path class="st29" d="M235,301.2v1.7h1.4v1.1H235v2.6c0,0.7,0.2,1.1,0.8,1.1c0.3,0,0.5,0,0.6-0.1l0,1.2c-0.2,0.1-0.6,0.1-1.1,0.1
			c-0.6,0-1-0.2-1.3-0.5c-0.3-0.3-0.5-0.9-0.5-1.7V304h-0.9v-1.1h0.9v-1.3L235,301.2z"/>
		<path class="st29" d="M239.2,301.2c0,0.5-0.3,0.8-0.9,0.8c-0.5,0-0.8-0.4-0.8-0.8c0-0.5,0.3-0.8,0.8-0.8
			C238.8,300.4,239.1,300.7,239.2,301.2z M237.6,308.8v-6h1.5v6H237.6z"/>
		<path class="st29" d="M240.7,304.7c0-0.7,0-1.3,0-1.8h1.3l0.1,0.9h0c0.3-0.5,0.9-1,1.9-1c1,0,2.1,0.7,2.1,2.6v3.5h-1.5v-3.4
			c0-0.9-0.3-1.5-1.1-1.5c-0.6,0-1,0.4-1.2,0.9c0,0.1-0.1,0.3-0.1,0.5v3.5h-1.5V304.7z"/>
		<path class="st29" d="M253.1,302.9c0,0.4,0,0.9,0,1.7v3.4c0,1.3-0.3,2.1-0.9,2.7c-0.6,0.6-1.5,0.7-2.3,0.7c-0.8,0-1.6-0.2-2.1-0.5
			l0.3-1.1c0.4,0.2,1,0.5,1.7,0.5c1,0,1.7-0.5,1.7-1.8v-0.5h0c-0.3,0.5-1,0.9-1.7,0.9c-1.5,0-2.5-1.2-2.5-2.9c0-2,1.3-3.1,2.7-3.1
			c0.9,0,1.4,0.4,1.7,0.9h0l0.1-0.8H253.1z M251.6,305.3c0-0.1,0-0.3,0-0.4c-0.2-0.6-0.6-1-1.2-1c-0.8,0-1.5,0.7-1.5,1.9
			c0,1,0.5,1.8,1.5,1.8c0.6,0,1.1-0.4,1.2-0.9c0-0.2,0.1-0.4,0.1-0.5V305.3z"/>
	</g>
	<g>
		<path class="st29" d="M103.5,293.8c0.5,0.3,1.2,0.5,2,0.5c1,0,1.5-0.5,1.5-1.1c0-0.6-0.4-1-1.5-1.4c-1.4-0.5-2.2-1.2-2.2-2.4
			c0-1.3,1.1-2.4,2.9-2.4c0.9,0,1.6,0.2,2,0.4l-0.4,1.2c-0.3-0.2-0.9-0.4-1.6-0.4c-1,0-1.4,0.5-1.4,1c0,0.6,0.5,0.9,1.6,1.4
			c1.4,0.5,2.1,1.3,2.1,2.5c0,1.3-1,2.5-3.1,2.5c-0.9,0-1.8-0.2-2.2-0.5L103.5,293.8z"/>
		<path class="st29" d="M110.7,292.9c0,1.1,0.9,1.5,1.8,1.5c0.7,0,1.2-0.1,1.7-0.3l0.2,1c-0.5,0.2-1.2,0.4-2.1,0.4
			c-1.9,0-3.1-1.2-3.1-3c0-1.7,1-3.2,2.9-3.2c1.9,0,2.6,1.6,2.6,2.9c0,0.3,0,0.5,0,0.6H110.7z M113.3,291.9c0-0.6-0.2-1.5-1.2-1.5
			c-0.9,0-1.3,0.8-1.4,1.5H113.3z"/>
		<path class="st29" d="M115.7,291.4c0-0.8,0-1.4,0-1.9h1.3l0,1.1h0c0.3-0.8,1-1.3,1.6-1.3c0.1,0,0.2,0,0.4,0v1.4
			c-0.1,0-0.3,0-0.4,0c-0.7,0-1.2,0.5-1.3,1.1c0,0.1,0,0.3,0,0.5v3.1h-1.5V291.4z"/>
		<path class="st29" d="M121.1,289.5l1,3c0.2,0.5,0.3,1,0.4,1.5h0c0.1-0.5,0.2-1,0.4-1.5l0.9-3h1.6l-2.3,6h-1.5l-2.2-6H121.1z"/>
		<path class="st29" d="M127.7,287.8c0,0.5-0.3,0.8-0.9,0.8c-0.5,0-0.8-0.4-0.8-0.8c0-0.5,0.3-0.8,0.8-0.8
			C127.4,287,127.7,287.4,127.7,287.8z M126.1,295.5v-6h1.5v6H126.1z"/>
		<path class="st29" d="M133.4,295.3c-0.3,0.1-0.9,0.3-1.7,0.3c-1.9,0-3.1-1.2-3.1-3c0-1.8,1.2-3.2,3.3-3.2c0.6,0,1.1,0.1,1.5,0.3
			l-0.3,1.1c-0.2-0.1-0.6-0.2-1.1-0.2c-1.2,0-1.8,0.8-1.8,1.9c0,1.2,0.8,1.9,1.8,1.9c0.5,0,0.9-0.1,1.2-0.2L133.4,295.3z"/>
		<path class="st29" d="M135.2,292.9c0,1.1,0.9,1.5,1.8,1.5c0.7,0,1.2-0.1,1.7-0.3l0.2,1c-0.5,0.2-1.2,0.4-2.1,0.4
			c-1.9,0-3.1-1.2-3.1-3c0-1.7,1-3.2,2.9-3.2c1.9,0,2.6,1.6,2.6,2.9c0,0.3,0,0.5,0,0.6H135.2z M137.8,291.9c0-0.6-0.2-1.5-1.2-1.5
			c-0.9,0-1.3,0.8-1.4,1.5H137.8z"/>
		<path class="st29" d="M82.5,303.2c0-0.8,0-1.4,0-2h1.3l0.1,0.9h0c0.4-0.7,1.1-1.1,2-1.1c1.4,0,2.5,1.2,2.5,3
			c0,2.2-1.4,3.2-2.7,3.2c-0.7,0-1.4-0.3-1.7-0.8h0v3.1h-1.5V303.2z M84,304.6c0,0.1,0,0.3,0,0.4c0.1,0.6,0.7,1.1,1.3,1.1
			c1,0,1.5-0.8,1.5-2c0-1.1-0.5-1.9-1.5-1.9c-0.6,0-1.2,0.5-1.3,1.1c0,0.1-0.1,0.3-0.1,0.4V304.6z"/>
		<path class="st29" d="M90.5,304.6c0,1.1,0.9,1.5,1.8,1.5c0.7,0,1.2-0.1,1.7-0.3l0.2,1c-0.5,0.2-1.2,0.4-2.1,0.4
			c-1.9,0-3.1-1.2-3.1-3c0-1.7,1-3.2,2.9-3.2c1.9,0,2.6,1.6,2.6,2.9c0,0.3,0,0.5,0,0.6H90.5z M93.1,303.5c0-0.6-0.2-1.5-1.2-1.5
			c-0.9,0-1.3,0.8-1.4,1.5H93.1z"/>
		<path class="st29" d="M95.5,303.1c0-0.8,0-1.4,0-1.9h1.3l0,1.1h0c0.3-0.8,1-1.3,1.6-1.3c0.1,0,0.2,0,0.4,0v1.4c-0.1,0-0.3,0-0.4,0
			c-0.7,0-1.2,0.5-1.3,1.1c0,0.1,0,0.3,0,0.5v3.1h-1.5V303.1z"/>
		<path class="st29" d="M99.5,305.8c0.3,0.2,1,0.4,1.5,0.4c0.7,0,1-0.3,1-0.7c0-0.4-0.2-0.6-1-0.9c-1.2-0.4-1.7-1-1.6-1.7
			c0-1.1,0.9-1.9,2.3-1.9c0.7,0,1.2,0.2,1.6,0.4l-0.3,1.1c-0.3-0.1-0.7-0.3-1.3-0.3c-0.5,0-0.8,0.3-0.8,0.6c0,0.4,0.3,0.6,1,0.8
			c1.1,0.4,1.6,0.9,1.6,1.8c0,1.1-0.8,1.9-2.4,1.9c-0.7,0-1.4-0.2-1.8-0.4L99.5,305.8z"/>
		<path class="st29" d="M110.1,304.1c0,2.2-1.5,3.2-3.1,3.2c-1.7,0-3-1.2-3-3.1c0-2,1.3-3.2,3.1-3.2
			C108.9,301,110.1,302.3,110.1,304.1z M105.6,304.2c0,1.2,0.6,2,1.5,2c0.9,0,1.5-0.8,1.5-2c0-0.9-0.4-2-1.4-2
			C106.1,302.1,105.6,303.2,105.6,304.2z"/>
		<path class="st29" d="M111.1,303c0-0.7,0-1.3,0-1.8h1.3l0.1,0.9h0c0.3-0.5,0.9-1,1.9-1c1,0,2.1,0.7,2.1,2.6v3.5H115v-3.4
			c0-0.9-0.3-1.5-1.1-1.5c-0.6,0-1,0.4-1.2,0.9c0,0.1-0.1,0.3-0.1,0.5v3.5h-1.5V303z"/>
		<path class="st29" d="M121.2,307.1l-0.1-0.7h0c-0.4,0.5-1,0.8-1.8,0.8c-1.2,0-1.9-0.9-1.9-1.8c0-1.5,1.3-2.3,3.5-2.3v-0.1
			c0-0.4-0.2-1-1.2-1c-0.6,0-1.2,0.2-1.6,0.4l-0.3-1c0.4-0.3,1.2-0.5,2.2-0.5c1.9,0,2.5,1.2,2.5,2.5v2.2c0,0.5,0,1.1,0.1,1.4H121.2z
			 M121,304.2c-1.1,0-2.1,0.2-2.1,1.1c0,0.6,0.4,0.9,0.9,0.9c0.6,0,1-0.4,1.2-0.8c0-0.1,0-0.2,0-0.3V304.2z"/>
		<path class="st29" d="M123.9,298.4h1.5v8.7h-1.5V298.4z"/>
		<path class="st29" d="M128.4,299.5c0,0.5-0.3,0.8-0.9,0.8c-0.5,0-0.8-0.4-0.8-0.8c0-0.5,0.3-0.8,0.8-0.8
			C128,298.7,128.4,299,128.4,299.5z M126.8,307.1v-6h1.5v6H126.8z"/>
		<path class="st29" d="M129.1,306.3l2.2-2.9c0.3-0.4,0.6-0.7,0.9-1v0h-2.9v-1.2h4.7v0.9l-2.2,2.8c-0.3,0.4-0.6,0.7-0.9,1v0h3.1v1.2
			h-5V306.3z"/>
		<path class="st29" d="M138.3,307.1l-0.1-0.7h0c-0.4,0.5-1,0.8-1.8,0.8c-1.2,0-1.9-0.9-1.9-1.8c0-1.5,1.3-2.3,3.5-2.3v-0.1
			c0-0.4-0.2-1-1.2-1c-0.6,0-1.2,0.2-1.6,0.4l-0.3-1c0.4-0.3,1.2-0.5,2.2-0.5c1.9,0,2.5,1.2,2.5,2.5v2.2c0,0.5,0,1.1,0.1,1.4H138.3z
			 M138.1,304.2c-1.1,0-2.1,0.2-2.1,1.1c0,0.6,0.4,0.9,0.9,0.9c0.6,0,1-0.4,1.2-0.8c0-0.1,0-0.2,0-0.3V304.2z"/>
		<path class="st29" d="M142.6,299.5v1.7h1.4v1.1h-1.4v2.6c0,0.7,0.2,1.1,0.8,1.1c0.3,0,0.5,0,0.6-0.1l0,1.2
			c-0.2,0.1-0.6,0.1-1.1,0.1c-0.6,0-1-0.2-1.3-0.5c-0.3-0.3-0.5-0.9-0.5-1.7v-2.8h-0.9v-1.1h0.9v-1.3L142.6,299.5z"/>
		<path class="st29" d="M146.5,299.5c0,0.5-0.3,0.8-0.9,0.8c-0.5,0-0.8-0.4-0.8-0.8c0-0.5,0.3-0.8,0.8-0.8
			C146.2,298.7,146.5,299,146.5,299.5z M144.9,307.1v-6h1.5v6H144.9z"/>
		<path class="st29" d="M153.4,304.1c0,2.2-1.5,3.2-3.1,3.2c-1.7,0-3-1.2-3-3.1c0-2,1.3-3.2,3.1-3.2
			C152.3,301,153.4,302.3,153.4,304.1z M148.9,304.2c0,1.2,0.6,2,1.5,2c0.9,0,1.5-0.8,1.5-2c0-0.9-0.4-2-1.4-2
			C149.4,302.1,148.9,303.2,148.9,304.2z"/>
		<path class="st29" d="M154.4,303c0-0.7,0-1.3,0-1.8h1.3l0.1,0.9h0c0.3-0.5,0.9-1,1.9-1c1,0,2.1,0.7,2.1,2.6v3.5h-1.5v-3.4
			c0-0.9-0.3-1.5-1.1-1.5c-0.6,0-1,0.4-1.2,0.9c0,0.1-0.1,0.3-0.1,0.5v3.5h-1.5V303z"/>
	</g>
	<g>
		<path class="st29" d="M248.5,189.4c0-1.1-0.1-2.4-0.1-3.5h0c-0.3,1-0.6,2.1-1,3.2l-1.2,3.6H245l-1.1-3.5c-0.3-1.1-0.6-2.2-0.8-3.2
			h0c0,1.1-0.1,2.4-0.1,3.5l-0.2,3.3h-1.4l0.6-8.3h2l1.1,3.3c0.3,1,0.6,1.9,0.8,2.9h0c0.2-0.9,0.5-1.9,0.8-2.9l1.1-3.3h2l0.5,8.3
			h-1.5L248.5,189.4z"/>
		<path class="st29" d="M252.7,190.2c0,1.1,0.9,1.5,1.8,1.5c0.7,0,1.2-0.1,1.7-0.3l0.2,1c-0.5,0.2-1.2,0.4-2.1,0.4
			c-1.9,0-3.1-1.2-3.1-3c0-1.7,1-3.2,2.9-3.2c1.9,0,2.6,1.6,2.6,2.9c0,0.3,0,0.5,0,0.6H252.7z M255.3,189.2c0-0.6-0.2-1.5-1.2-1.5
			c-0.9,0-1.3,0.8-1.4,1.5H255.3z"/>
		<path class="st29" d="M257.9,188.7c0-0.8,0-1.4,0-1.9h1.3l0,1.1h0c0.3-0.8,1-1.3,1.6-1.3c0.1,0,0.2,0,0.4,0v1.4
			c-0.1,0-0.3,0-0.4,0c-0.7,0-1.2,0.5-1.3,1.1c0,0.1,0,0.3,0,0.5v3.1h-1.5V188.7z"/>
		<path class="st29" d="M266.6,192.6c-0.3,0.1-0.9,0.3-1.7,0.3c-1.9,0-3.1-1.2-3.1-3c0-1.8,1.2-3.2,3.3-3.2c0.6,0,1.1,0.1,1.5,0.3
			l-0.3,1.1c-0.2-0.1-0.6-0.2-1.1-0.2c-1.2,0-1.8,0.8-1.8,1.9c0,1.2,0.8,1.9,1.8,1.9c0.5,0,0.9-0.1,1.2-0.2L266.6,192.6z"/>
		<path class="st29" d="M267.7,184.1h1.5v3.6h0c0.2-0.3,0.4-0.5,0.7-0.7c0.3-0.2,0.6-0.3,1-0.3c1,0,2.1,0.7,2.1,2.6v3.5h-1.5v-3.3
			c0-0.9-0.3-1.5-1.2-1.5c-0.6,0-1,0.4-1.2,0.8c0,0.1-0.1,0.3-0.1,0.5v3.6h-1.5V184.1z"/>
		<path class="st29" d="M278.1,192.8l-0.1-0.7h0c-0.4,0.5-1,0.8-1.8,0.8c-1.2,0-1.9-0.9-1.9-1.8c0-1.5,1.3-2.3,3.5-2.3v-0.1
			c0-0.4-0.2-1-1.2-1c-0.6,0-1.2,0.2-1.6,0.4l-0.3-1c0.4-0.3,1.2-0.5,2.2-0.5c1.9,0,2.5,1.2,2.5,2.5v2.2c0,0.5,0,1.1,0.1,1.4H278.1z
			 M277.9,189.9c-1.1,0-2.1,0.2-2.1,1.1c0,0.6,0.4,0.9,0.9,0.9c0.6,0,1-0.4,1.2-0.8c0-0.1,0-0.2,0-0.3V189.9z"/>
		<path class="st29" d="M280.9,188.6c0-0.7,0-1.3,0-1.8h1.3l0.1,0.9h0c0.3-0.5,0.9-1,1.9-1c1,0,2.1,0.7,2.1,2.6v3.5h-1.5v-3.4
			c0-0.9-0.3-1.5-1.1-1.5c-0.6,0-1,0.4-1.2,0.9c0,0.1-0.1,0.3-0.1,0.5v3.5h-1.5V188.6z"/>
		<path class="st29" d="M293.4,184.1v7c0,0.6,0,1.3,0,1.7h-1.3l-0.1-0.9h0c-0.4,0.7-1.1,1.1-1.9,1.1c-1.4,0-2.5-1.2-2.5-3.1
			c0-2,1.2-3.2,2.7-3.2c0.8,0,1.4,0.3,1.7,0.8h0v-3.4H293.4z M291.9,189.3c0-0.1,0-0.3,0-0.4c-0.1-0.6-0.6-1.1-1.3-1.1
			c-1,0-1.5,0.9-1.5,2c0,1.1,0.5,1.9,1.5,1.9c0.6,0,1.2-0.4,1.3-1.1c0-0.1,0-0.3,0-0.4V189.3z"/>
		<path class="st29" d="M296.6,185.1c0,0.5-0.3,0.8-0.9,0.8c-0.5,0-0.8-0.4-0.8-0.8c0-0.5,0.3-0.8,0.8-0.8
			C296.3,184.3,296.6,184.7,296.6,185.1z M295,192.8v-6h1.5v6H295z"/>
		<path class="st29" d="M298.1,191.4c0.3,0.2,1,0.4,1.5,0.4c0.7,0,1-0.3,1-0.7c0-0.4-0.2-0.6-1-0.9c-1.2-0.4-1.7-1-1.6-1.7
			c0-1.1,0.9-1.9,2.3-1.9c0.7,0,1.2,0.2,1.6,0.4l-0.3,1.1c-0.3-0.1-0.7-0.3-1.3-0.3c-0.5,0-0.8,0.3-0.8,0.6c0,0.4,0.3,0.6,1,0.8
			c1.1,0.4,1.6,0.9,1.6,1.8c0,1.1-0.8,1.9-2.4,1.9c-0.7,0-1.4-0.2-1.8-0.4L298.1,191.4z"/>
		<path class="st29" d="M304.4,190.2c0,1.1,0.9,1.5,1.8,1.5c0.7,0,1.2-0.1,1.7-0.3l0.2,1c-0.5,0.2-1.2,0.4-2.1,0.4
			c-1.9,0-3.1-1.2-3.1-3c0-1.7,1-3.2,2.9-3.2c1.9,0,2.6,1.6,2.6,2.9c0,0.3,0,0.5,0,0.6H304.4z M307,189.2c0-0.6-0.2-1.5-1.2-1.5
			c-0.9,0-1.3,0.8-1.4,1.5H307z"/>
		<path class="st29" d="M315.5,192.8l-0.1-0.7h0c-0.4,0.5-1,0.8-1.8,0.8c-1.2,0-1.9-0.9-1.9-1.8c0-1.5,1.3-2.3,3.5-2.3v-0.1
			c0-0.4-0.2-1-1.2-1c-0.6,0-1.2,0.2-1.6,0.4l-0.3-1c0.4-0.3,1.2-0.5,2.2-0.5c1.9,0,2.5,1.2,2.5,2.5v2.2c0,0.5,0,1.1,0.1,1.4H315.5z
			 M315.3,189.9c-1.1,0-2.1,0.2-2.1,1.1c0,0.6,0.4,0.9,0.9,0.9c0.6,0,1-0.4,1.2-0.8c0-0.1,0-0.2,0-0.3V189.9z"/>
		<path class="st29" d="M318.4,188.6c0-0.7,0-1.3,0-1.8h1.3l0.1,0.9h0c0.3-0.5,0.9-1,1.9-1c1,0,2.1,0.7,2.1,2.6v3.5h-1.5v-3.4
			c0-0.9-0.3-1.5-1.1-1.5c-0.6,0-1,0.4-1.2,0.9c0,0.1-0.1,0.3-0.1,0.5v3.5h-1.5V188.6z"/>
		<path class="st29" d="M330.9,184.1v7c0,0.6,0,1.3,0,1.7h-1.3l-0.1-0.9h0c-0.4,0.7-1.1,1.1-1.9,1.1c-1.4,0-2.5-1.2-2.5-3.1
			c0-2,1.2-3.2,2.7-3.2c0.8,0,1.4,0.3,1.7,0.8h0v-3.4H330.9z M329.4,189.3c0-0.1,0-0.3,0-0.4c-0.1-0.6-0.6-1.1-1.3-1.1
			c-1,0-1.5,0.9-1.5,2c0,1.1,0.5,1.9,1.5,1.9c0.6,0,1.2-0.4,1.3-1.1c0-0.1,0-0.3,0-0.4V189.3z"/>
		<path class="st29" d="M246.7,203.1c0.3,0.2,1,0.4,1.5,0.4c0.7,0,1-0.3,1-0.7c0-0.4-0.2-0.6-1-0.9c-1.2-0.4-1.7-1-1.6-1.7
			c0-1.1,0.9-1.9,2.3-1.9c0.7,0,1.2,0.2,1.6,0.4l-0.3,1.1c-0.3-0.1-0.7-0.3-1.3-0.3c-0.5,0-0.8,0.3-0.8,0.6c0,0.4,0.3,0.6,1,0.8
			c1.1,0.4,1.6,0.9,1.6,1.8c0,1.1-0.8,1.9-2.4,1.9c-0.7,0-1.4-0.2-1.8-0.4L246.7,203.1z"/>
		<path class="st29" d="M251.8,200.5c0-0.8,0-1.4,0-2h1.3l0.1,0.9h0c0.4-0.7,1.1-1.1,2-1.1c1.4,0,2.5,1.2,2.5,3
			c0,2.2-1.4,3.2-2.7,3.2c-0.7,0-1.4-0.3-1.7-0.8h0v3.1h-1.5V200.5z M253.3,201.9c0,0.1,0,0.3,0,0.4c0.1,0.6,0.7,1.1,1.3,1.1
			c1,0,1.5-0.8,1.5-2c0-1.1-0.5-1.9-1.5-1.9c-0.6,0-1.2,0.5-1.3,1.1c0,0.1-0.1,0.3-0.1,0.4V201.9z"/>
		<path class="st29" d="M262.4,204.4l-0.1-0.7h0c-0.4,0.5-1,0.8-1.8,0.8c-1.2,0-1.9-0.9-1.9-1.8c0-1.5,1.3-2.3,3.5-2.3v-0.1
			c0-0.4-0.2-1-1.2-1c-0.6,0-1.2,0.2-1.6,0.4l-0.3-1c0.4-0.3,1.2-0.5,2.2-0.5c1.9,0,2.5,1.2,2.5,2.5v2.2c0,0.5,0,1.1,0.1,1.4H262.4z
			 M262.2,201.5c-1.1,0-2.1,0.2-2.1,1.1c0,0.6,0.4,0.9,0.9,0.9c0.6,0,1-0.4,1.2-0.8c0-0.1,0-0.2,0-0.3V201.5z"/>
		<path class="st29" d="M269.6,204.3c-0.3,0.1-0.9,0.3-1.7,0.3c-1.9,0-3.1-1.2-3.1-3c0-1.8,1.2-3.2,3.3-3.2c0.6,0,1.1,0.1,1.5,0.3
			l-0.3,1.1c-0.2-0.1-0.6-0.2-1.1-0.2c-1.2,0-1.8,0.8-1.8,1.9c0,1.2,0.8,1.9,1.8,1.9c0.5,0,0.9-0.1,1.2-0.2L269.6,204.3z"/>
		<path class="st29" d="M271.7,201.9c0,1.1,0.9,1.5,1.8,1.5c0.7,0,1.2-0.1,1.7-0.3l0.2,1c-0.5,0.2-1.2,0.4-2.1,0.4
			c-1.9,0-3.1-1.2-3.1-3c0-1.7,1-3.2,2.9-3.2c1.9,0,2.6,1.6,2.6,2.9c0,0.3,0,0.5,0,0.6H271.7z M274.3,200.8c0-0.6-0.2-1.5-1.2-1.5
			c-0.9,0-1.3,0.8-1.4,1.5H274.3z"/>
		<path class="st29" d="M279.5,200.5c0-0.8,0-1.4,0-2h1.3l0.1,0.9h0c0.4-0.7,1.1-1.1,2-1.1c1.4,0,2.5,1.2,2.5,3
			c0,2.2-1.4,3.2-2.7,3.2c-0.7,0-1.4-0.3-1.7-0.8h0v3.1h-1.5V200.5z M281,201.9c0,0.1,0,0.3,0,0.4c0.1,0.6,0.7,1.1,1.3,1.1
			c1,0,1.5-0.8,1.5-2c0-1.1-0.5-1.9-1.5-1.9c-0.6,0-1.2,0.5-1.3,1.1c0,0.1-0.1,0.3-0.1,0.4V201.9z"/>
		<path class="st29" d="M286.6,195.7h1.5v8.7h-1.5V195.7z"/>
		<path class="st29" d="M293.1,204.4l-0.1-0.7h0c-0.4,0.5-1,0.8-1.8,0.8c-1.2,0-1.9-0.9-1.9-1.8c0-1.5,1.3-2.3,3.5-2.3v-0.1
			c0-0.4-0.2-1-1.2-1c-0.6,0-1.2,0.2-1.6,0.4l-0.3-1c0.4-0.3,1.2-0.5,2.2-0.5c1.9,0,2.5,1.2,2.5,2.5v2.2c0,0.5,0,1.1,0.1,1.4H293.1z
			 M292.9,201.5c-1.1,0-2.1,0.2-2.1,1.1c0,0.6,0.4,0.9,0.9,0.9c0.6,0,1-0.4,1.2-0.8c0-0.1,0-0.2,0-0.3V201.5z"/>
		<path class="st29" d="M296,200.3c0-0.7,0-1.3,0-1.8h1.3l0.1,0.9h0c0.3-0.5,0.9-1,1.9-1c1,0,2.1,0.7,2.1,2.6v3.5h-1.5v-3.4
			c0-0.9-0.3-1.5-1.1-1.5c-0.6,0-1,0.4-1.2,0.9c0,0.1-0.1,0.3-0.1,0.5v3.5H296V200.3z"/>
		<path class="st29" d="M303,200.3c0-0.7,0-1.3,0-1.8h1.3l0.1,0.9h0c0.3-0.5,0.9-1,1.9-1c1,0,2.1,0.7,2.1,2.6v3.5h-1.5v-3.4
			c0-0.9-0.3-1.5-1.1-1.5c-0.6,0-1,0.4-1.2,0.9c0,0.1-0.1,0.3-0.1,0.5v3.5H303V200.3z"/>
		<path class="st29" d="M311.6,196.8c0,0.5-0.3,0.8-0.9,0.8c-0.5,0-0.8-0.4-0.8-0.8c0-0.5,0.3-0.8,0.8-0.8
			C311.3,196,311.6,196.3,311.6,196.8z M310,204.4v-6h1.5v6H310z"/>
		<path class="st29" d="M313.2,200.3c0-0.7,0-1.3,0-1.8h1.3l0.1,0.9h0c0.3-0.5,0.9-1,1.9-1c1,0,2.1,0.7,2.1,2.6v3.5h-1.5v-3.4
			c0-0.9-0.3-1.5-1.1-1.5c-0.6,0-1,0.4-1.2,0.9c0,0.1-0.1,0.3-0.1,0.5v3.5h-1.5V200.3z"/>
		<path class="st29" d="M325.6,198.5c0,0.4,0,0.9,0,1.7v3.4c0,1.3-0.3,2.1-0.9,2.7c-0.6,0.6-1.5,0.7-2.3,0.7c-0.8,0-1.6-0.2-2.1-0.5
			l0.3-1.1c0.4,0.2,1,0.5,1.7,0.5c1,0,1.7-0.5,1.7-1.8v-0.5h0c-0.3,0.5-1,0.9-1.7,0.9c-1.5,0-2.5-1.2-2.5-2.9c0-2,1.3-3.1,2.7-3.1
			c0.9,0,1.4,0.4,1.7,0.9h0l0.1-0.8H325.6z M324.1,200.9c0-0.1,0-0.3,0-0.4c-0.2-0.6-0.6-1-1.2-1c-0.8,0-1.5,0.7-1.5,1.9
			c0,1,0.5,1.8,1.5,1.8c0.6,0,1.1-0.4,1.2-0.9c0-0.2,0.1-0.4,0.1-0.5V200.9z"/>
	</g>
	<g>
		<path class="st29" d="M39.5,192.5c-0.4,0.2-1.1,0.4-2.1,0.4c-2.6,0-4.2-1.6-4.2-4.2c0-2.7,1.9-4.4,4.4-4.4c1,0,1.7,0.2,2,0.4
			l-0.3,1.2c-0.4-0.2-0.9-0.3-1.6-0.3c-1.7,0-2.9,1.1-2.9,3c0,1.8,1.1,3,2.9,3c0.6,0,1.3-0.1,1.6-0.3L39.5,192.5z"/>
		<path class="st29" d="M46.2,189.7c0,2.2-1.5,3.2-3.1,3.2c-1.7,0-3-1.2-3-3.1c0-2,1.3-3.2,3.1-3.2C45,186.7,46.2,187.9,46.2,189.7z
			 M41.7,189.8c0,1.2,0.6,2,1.5,2c0.9,0,1.5-0.8,1.5-2c0-0.9-0.4-2-1.4-2C42.2,187.8,41.7,188.8,41.7,189.8z"/>
		<path class="st29" d="M47.5,188.6c0-0.7,0-1.3,0-1.8h1.3l0.1,0.9h0c0.3-0.5,0.9-1,1.9-1c1,0,2.1,0.7,2.1,2.6v3.5h-1.5v-3.4
			c0-0.9-0.3-1.5-1.1-1.5c-0.6,0-1,0.4-1.2,0.9c0,0.1-0.1,0.3-0.1,0.5v3.5h-1.5V188.6z"/>
		<path class="st29" d="M56.1,185.1v1.7h1.4v1.1h-1.4v2.6c0,0.7,0.2,1.1,0.8,1.1c0.3,0,0.5,0,0.6-0.1l0,1.2
			c-0.2,0.1-0.6,0.1-1.1,0.1c-0.6,0-1-0.2-1.3-0.5c-0.3-0.3-0.5-0.9-0.5-1.7v-2.8h-0.9v-1.1h0.9v-1.3L56.1,185.1z"/>
		<path class="st29" d="M60.3,185.1c0,0.5-0.3,0.8-0.9,0.8c-0.5,0-0.8-0.4-0.8-0.8c0-0.5,0.3-0.8,0.8-0.8
			C60,184.3,60.3,184.7,60.3,185.1z M58.7,192.8v-6h1.5v6H58.7z"/>
		<path class="st29" d="M61.8,188.6c0-0.7,0-1.3,0-1.8h1.3l0.1,0.9h0c0.3-0.5,0.9-1,1.9-1c1,0,2.1,0.7,2.1,2.6v3.5h-1.5v-3.4
			c0-0.9-0.3-1.5-1.1-1.5c-0.6,0-1,0.4-1.2,0.9c0,0.1-0.1,0.3-0.1,0.5v3.5h-1.5V188.6z"/>
		<path class="st29" d="M74.2,191c0,0.7,0,1.3,0,1.8h-1.3l-0.1-0.9h0c-0.3,0.4-0.8,1-1.9,1c-1.1,0-2.1-0.6-2.1-2.6v-3.5h1.5v3.2
			c0,1,0.3,1.6,1.1,1.6c0.6,0,1-0.4,1.2-0.8c0-0.1,0.1-0.3,0.1-0.5v-3.6h1.5V191z"/>
		<path class="st29" d="M81.5,189.7c0,2.2-1.5,3.2-3.1,3.2c-1.7,0-3-1.2-3-3.1c0-2,1.3-3.2,3.1-3.2
			C80.3,186.7,81.5,187.9,81.5,189.7z M77,189.8c0,1.2,0.6,2,1.5,2c0.9,0,1.5-0.8,1.5-2c0-0.9-0.4-2-1.4-2
			C77.4,187.8,77,188.8,77,189.8z"/>
		<path class="st29" d="M88.1,191c0,0.7,0,1.3,0,1.8h-1.3l-0.1-0.9h0c-0.3,0.4-0.8,1-1.9,1c-1.1,0-2.1-0.6-2.1-2.6v-3.5h1.5v3.2
			c0,1,0.3,1.6,1.1,1.6c0.6,0,1-0.4,1.2-0.8c0-0.1,0.1-0.3,0.1-0.5v-3.6h1.5V191z"/>
		<path class="st29" d="M89.6,191.4c0.3,0.2,1,0.4,1.5,0.4c0.7,0,1-0.3,1-0.7c0-0.4-0.2-0.6-1-0.9c-1.2-0.4-1.7-1-1.6-1.7
			c0-1.1,0.9-1.9,2.3-1.9c0.7,0,1.2,0.2,1.6,0.4l-0.3,1.1c-0.3-0.1-0.7-0.3-1.3-0.3c-0.5,0-0.8,0.3-0.8,0.6c0,0.4,0.3,0.6,1,0.8
			c1.1,0.4,1.6,0.9,1.6,1.8c0,1.1-0.8,1.9-2.4,1.9c-0.7,0-1.4-0.2-1.8-0.4L89.6,191.4z"/>
		<path class="st29" d="M25.5,200.4c0-0.8,0-1.4,0-1.9h1.3l0,1.1h0c0.3-0.8,1-1.3,1.6-1.3c0.1,0,0.2,0,0.4,0v1.4c-0.1,0-0.3,0-0.4,0
			c-0.7,0-1.2,0.5-1.3,1.1c0,0.1,0,0.3,0,0.5v3.1h-1.5V200.4z"/>
		<path class="st29" d="M30.8,201.9c0,1.1,0.9,1.5,1.8,1.5c0.7,0,1.2-0.1,1.7-0.3l0.2,1c-0.5,0.2-1.2,0.4-2.1,0.4
			c-1.9,0-3.1-1.2-3.1-3c0-1.7,1-3.2,2.9-3.2c1.9,0,2.6,1.6,2.6,2.9c0,0.3,0,0.5,0,0.6H30.8z M33.4,200.8c0-0.6-0.2-1.5-1.2-1.5
			c-0.9,0-1.3,0.8-1.4,1.5H33.4z"/>
		<path class="st29" d="M36,200.5c0-0.8,0-1.4,0-2h1.3l0.1,0.9h0c0.4-0.7,1.1-1.1,2-1.1c1.4,0,2.5,1.2,2.5,3c0,2.2-1.4,3.2-2.7,3.2
			c-0.7,0-1.4-0.3-1.7-0.8h0v3.1H36V200.5z M37.5,201.9c0,0.1,0,0.3,0,0.4c0.1,0.6,0.7,1.1,1.3,1.1c1,0,1.5-0.8,1.5-2
			c0-1.1-0.5-1.9-1.5-1.9c-0.6,0-1.2,0.5-1.3,1.1c0,0.1-0.1,0.3-0.1,0.4V201.9z"/>
		<path class="st29" d="M43.2,195.7h1.5v8.7h-1.5V195.7z"/>
		<path class="st29" d="M47.4,201.9c0,1.1,0.9,1.5,1.8,1.5c0.7,0,1.2-0.1,1.7-0.3l0.2,1c-0.5,0.2-1.2,0.4-2.1,0.4
			c-1.9,0-3.1-1.2-3.1-3c0-1.7,1-3.2,2.9-3.2c1.9,0,2.6,1.6,2.6,2.9c0,0.3,0,0.5,0,0.6H47.4z M50,200.8c0-0.6-0.2-1.5-1.2-1.5
			c-0.9,0-1.3,0.8-1.4,1.5H50z"/>
		<path class="st29" d="M52.7,200.3c0-0.7,0-1.3,0-1.8h1.3l0.1,0.9h0c0.3-0.5,0.9-1,1.9-1c1,0,2.1,0.7,2.1,2.6v3.5h-1.5v-3.4
			c0-0.9-0.3-1.5-1.1-1.5c-0.6,0-1,0.4-1.2,0.9c0,0.1-0.1,0.3-0.1,0.5v3.5h-1.5V200.3z"/>
		<path class="st29" d="M61.3,196.8c0,0.5-0.3,0.8-0.9,0.8c-0.5,0-0.8-0.4-0.8-0.8c0-0.5,0.3-0.8,0.8-0.8
			C61,196,61.3,196.3,61.3,196.8z M59.7,204.4v-6h1.5v6H59.7z"/>
		<path class="st29" d="M62.7,203.1c0.3,0.2,1,0.4,1.5,0.4c0.7,0,1-0.3,1-0.7c0-0.4-0.2-0.6-1-0.9c-1.2-0.4-1.7-1-1.6-1.7
			c0-1.1,0.9-1.9,2.3-1.9c0.7,0,1.2,0.2,1.6,0.4l-0.3,1.1c-0.3-0.1-0.7-0.3-1.3-0.3c-0.5,0-0.8,0.3-0.8,0.6c0,0.4,0.3,0.6,1,0.8
			c1.1,0.4,1.6,0.9,1.6,1.8c0,1.1-0.8,1.9-2.4,1.9c-0.7,0-1.4-0.2-1.8-0.4L62.7,203.1z"/>
		<path class="st29" d="M67.9,195.7h1.5v3.6h0c0.2-0.3,0.4-0.5,0.7-0.7c0.3-0.2,0.6-0.3,1-0.3c1,0,2.1,0.7,2.1,2.6v3.5h-1.5v-3.3
			c0-0.9-0.3-1.5-1.2-1.5c-0.6,0-1,0.4-1.2,0.8c0,0.1-0.1,0.3-0.1,0.5v3.6h-1.5V195.7z"/>
		<path class="st29" d="M74.9,200.3c0-0.7,0-1.3,0-1.8h1.3l0.1,0.9h0c0.3-0.5,0.8-1,1.8-1c0.8,0,1.4,0.4,1.7,1.1h0
			c0.2-0.3,0.5-0.6,0.7-0.7c0.3-0.2,0.7-0.4,1.2-0.4c1,0,2,0.7,2,2.6v3.5h-1.5v-3.3c0-1-0.3-1.6-1.1-1.6c-0.5,0-0.9,0.4-1.1,0.8
			c0,0.1-0.1,0.3-0.1,0.5v3.6h-1.5V201c0-0.8-0.3-1.4-1-1.4c-0.6,0-0.9,0.4-1.1,0.9c-0.1,0.1-0.1,0.3-0.1,0.5v3.5h-1.5V200.3z"/>
		<path class="st29" d="M86.4,201.9c0,1.1,0.9,1.5,1.8,1.5c0.7,0,1.2-0.1,1.7-0.3l0.2,1c-0.5,0.2-1.2,0.4-2.1,0.4
			c-1.9,0-3.1-1.2-3.1-3c0-1.7,1-3.2,2.9-3.2c1.9,0,2.6,1.6,2.6,2.9c0,0.3,0,0.5,0,0.6H86.4z M89,200.8c0-0.6-0.2-1.5-1.2-1.5
			c-0.9,0-1.3,0.8-1.4,1.5H89z"/>
		<path class="st29" d="M91.6,200.3c0-0.7,0-1.3,0-1.8h1.3l0.1,0.9h0c0.3-0.5,0.9-1,1.9-1c1,0,2.1,0.7,2.1,2.6v3.5h-1.5v-3.4
			c0-0.9-0.3-1.5-1.1-1.5c-0.6,0-1,0.4-1.2,0.9c0,0.1-0.1,0.3-0.1,0.5v3.5h-1.5V200.3z"/>
		<path class="st29" d="M100.3,196.8v1.7h1.4v1.1h-1.4v2.6c0,0.7,0.2,1.1,0.8,1.1c0.3,0,0.5,0,0.6-0.1l0,1.2
			c-0.2,0.1-0.6,0.1-1.1,0.1c-0.6,0-1-0.2-1.3-0.5c-0.3-0.3-0.5-0.9-0.5-1.7v-2.8H98v-1.1h0.9v-1.3L100.3,196.8z"/>
		<path class="st29" d="M41.1,212.1c0-0.8,0-1.4,0-2h1.3l0.1,0.9h0c0.4-0.7,1.1-1.1,2-1.1c1.4,0,2.5,1.2,2.5,3
			c0,2.2-1.4,3.2-2.7,3.2c-0.7,0-1.4-0.3-1.7-0.8h0v3.1h-1.5V212.1z M42.6,213.6c0,0.1,0,0.3,0,0.4c0.1,0.6,0.7,1.1,1.3,1.1
			c1,0,1.5-0.8,1.5-2c0-1.1-0.5-1.9-1.5-1.9c-0.6,0-1.2,0.5-1.3,1.1c0,0.1-0.1,0.3-0.1,0.4V213.6z"/>
		<path class="st29" d="M48.3,212.1c0-0.8,0-1.4,0-1.9h1.3l0,1.1h0c0.3-0.8,1-1.3,1.6-1.3c0.1,0,0.2,0,0.4,0v1.4c-0.1,0-0.3,0-0.4,0
			c-0.7,0-1.2,0.5-1.3,1.1c0,0.1,0,0.3,0,0.5v3.1h-1.5V212.1z"/>
		<path class="st29" d="M58.2,213.1c0,2.2-1.5,3.2-3.1,3.2c-1.7,0-3-1.2-3-3.1c0-2,1.3-3.2,3.1-3.2C57,210,58.2,211.3,58.2,213.1z
			 M53.7,213.1c0,1.2,0.6,2,1.5,2c0.9,0,1.5-0.8,1.5-2c0-0.9-0.4-2-1.4-2C54.1,211.1,53.7,212.1,53.7,213.1z"/>
		<path class="st29" d="M64.9,210.1c0,0.4,0,0.9,0,1.7v3.4c0,1.3-0.3,2.1-0.9,2.7c-0.6,0.6-1.5,0.7-2.3,0.7c-0.8,0-1.6-0.2-2.1-0.5
			l0.3-1.1c0.4,0.2,1,0.5,1.7,0.5c1,0,1.7-0.5,1.7-1.8v-0.5h0c-0.3,0.5-1,0.9-1.7,0.9c-1.5,0-2.5-1.2-2.5-2.9c0-2,1.3-3.1,2.7-3.1
			c0.9,0,1.4,0.4,1.7,0.9h0l0.1-0.8H64.9z M63.3,212.5c0-0.1,0-0.3,0-0.4c-0.2-0.6-0.6-1-1.2-1c-0.8,0-1.5,0.7-1.5,1.9
			c0,1,0.5,1.8,1.5,1.8c0.6,0,1.1-0.4,1.2-0.9c0-0.2,0.1-0.4,0.1-0.5V212.5z"/>
		<path class="st29" d="M66.4,212.1c0-0.8,0-1.4,0-1.9h1.3l0,1.1h0c0.3-0.8,1-1.3,1.6-1.3c0.1,0,0.2,0,0.4,0v1.4c-0.1,0-0.3,0-0.4,0
			c-0.7,0-1.2,0.5-1.3,1.1c0,0.1,0,0.3,0,0.5v3.1h-1.5V212.1z"/>
		<path class="st29" d="M74,216.1l-0.1-0.7h0c-0.4,0.5-1,0.8-1.8,0.8c-1.2,0-1.9-0.9-1.9-1.8c0-1.5,1.3-2.3,3.5-2.3v-0.1
			c0-0.4-0.2-1-1.2-1c-0.6,0-1.2,0.2-1.6,0.4l-0.3-1c0.4-0.3,1.2-0.5,2.2-0.5c1.9,0,2.5,1.2,2.5,2.5v2.2c0,0.5,0,1.1,0.1,1.4H74z
			 M73.8,213.2c-1.1,0-2.1,0.2-2.1,1.1c0,0.6,0.4,0.9,0.9,0.9c0.6,0,1-0.4,1.2-0.8c0-0.1,0-0.2,0-0.3V213.2z"/>
		<path class="st29" d="M76.9,211.9c0-0.7,0-1.3,0-1.8h1.3l0.1,0.9h0c0.3-0.5,0.8-1,1.8-1c0.8,0,1.4,0.4,1.7,1.1h0
			c0.2-0.3,0.5-0.6,0.7-0.7c0.3-0.2,0.7-0.4,1.2-0.4c1,0,2,0.7,2,2.6v3.5h-1.5v-3.3c0-1-0.3-1.6-1.1-1.6c-0.5,0-0.9,0.4-1.1,0.8
			c0,0.1-0.1,0.3-0.1,0.5v3.6h-1.5v-3.5c0-0.8-0.3-1.4-1-1.4c-0.6,0-0.9,0.4-1.1,0.9c-0.1,0.1-0.1,0.3-0.1,0.5v3.5h-1.5V211.9z"/>
	</g>
	<g>
		<polyline class="st28" points="226,51.8 219.4,51.8 219.4,38.8 237.4,38.8 237.4,51.8 231.2,51.8 		"/>
		<g>
			<g>
				<polyline class="st28" points="213.4,64.5 213.4,59.8 243.4,59.8 243.4,64.5 				"/>
				<g>
					<polygon class="st29" points="216.4,63.6 213.4,68.8 210.4,63.6 					"/>
				</g>
				<g>
					<polygon class="st29" points="240.4,63.6 243.4,68.8 246.4,63.6 					"/>
				</g>
			</g>
		</g>
		<g>
			<g>
				<line class="st28" x1="228.4" y1="53.9" x2="228.4" y2="64.5"/>
				<g>
					<polygon class="st29" points="225.4,63.6 228.4,68.8 231.4,63.6 					"/>
				</g>
			</g>
		</g>
		<rect x="208.9" y="70.3" class="st28" width="9" height="9"/>
		<rect x="223.9" y="70.3" class="st28" width="9" height="9"/>
		<rect x="238.9" y="70.3" class="st28" width="9" height="9"/>
		<circle class="st28" cx="228.4" cy="51.4" r="2.3"/>
	</g>
	<line class="st38" x1="276.6" y1="180.3" x2="292.2" y2="180.3"/>
	<g>
		<g>
			<g>
				<polyline class="st38" points="308.9,140.3 308.9,172.7 263.9,172.7 263.9,136.8 298.3,136.8 				"/>
				<g>
					<polygon class="st29" points="305.9,141.1 308.9,136 311.9,141.1 					"/>
				</g>
			</g>
		</g>
		<polyline class="st38" points="285.5,159.6 290.1,149.8 308.5,144.9 		"/>
		<polyline class="st38" points="282.9,154.4 273,158.2 264,156.4 		"/>
		<polyline class="st38" points="272.8,136.8 286.9,162.8 281.1,172.4 		"/>
		<circle class="st38" cx="301.1" cy="136.8" r="2.3"/>
		<line class="st38" x1="285" y1="173.3" x2="285" y2="180.3"/>
		<path class="st38" d="M304.2,158.7c0,3.3-6,9.8-6,9.8s-6-6.5-6-9.8c0-3.3,2.7-6,6-6C301.5,152.7,304.2,155.4,304.2,158.7z"/>
		<circle class="st38" cx="298.2" cy="158.4" r="2.3"/>
	</g>
	<g>
		<g>
			<g>
				<g>
					<g>
						<g>
							<g>
								<circle class="st38" cx="239.5" cy="245.3" r="4.7"/>
								<path class="st38" d="M245,261.5h1.9c1,0,1.9-0.8,1.9-1.9v-3.5c0-2.3-1.8-4.1-4.1-4.1h-5.4h-5.4c-2.3,0-4.1,1.8-4.1,4.1v3.5
									c0,1,0.8,1.9,1.9,1.9h1.9"/>
								<line class="st38" x1="233.4" y1="264" x2="233.4" y2="257.5"/>
							</g>
						</g>
					</g>
				</g>
			</g>
			<line class="st38" x1="245" y1="263.3" x2="245" y2="257.5"/>
		</g>
		<g>
			<g>
				<g>
					<g>
						<g>
							<g>
								<circle class="st38" cx="217.1" cy="261.2" r="4.7"/>
								<path class="st38" d="M222.6,280.7V278h1.9c1,0,1.9-0.8,1.9-1.9v-4.1c0-2.3-1.8-4.1-4.1-4.1h-5.4h-5.4
									c-2.3,0-4.1,1.8-4.1,4.1v4.1c0,1,0.8,1.9,1.9,1.9h1.9v2.7H222.6z"/>
								<line class="st38" x1="211" y1="278" x2="211" y2="273.4"/>
							</g>
						</g>
					</g>
				</g>
			</g>
			<line class="st38" x1="222.6" y1="277.3" x2="222.6" y2="273.4"/>
		</g>
		<polyline class="st38" points="222,264 250,264 242.9,271.7 227,271.7 		"/>
		<g>
			<g>
				<polyline class="st38" points="223.6,248.7 220.2,245.6 210.8,245.6 210.8,236.6 227.8,236.6 227.8,245.6 				"/>
				<g>
					<polygon class="st29" points="224.9,245.8 226.8,251.5 221,250.3 					"/>
				</g>
			</g>
		</g>
	</g>
	<g>
		<g>
			<g>
				<polyline class="st38" points="82.6,139.1 82.6,171 38.3,171 38.3,135.6 72.2,135.6 				"/>
				<g>
					<polygon class="st29" points="79.6,139.9 82.6,134.8 85.6,139.9 					"/>
				</g>
			</g>
		</g>
		<circle class="st38" cx="74.9" cy="135.6" r="2.3"/>
		<line class="st38" x1="59" y1="171.5" x2="59" y2="178.5"/>
		<line class="st38" x1="50.7" y1="178.5" x2="66.2" y2="178.5"/>
		<rect x="44" y="140.1" class="st38" width="8.5" height="8.5"/>
		<rect x="61.7" y="151.7" class="st38" width="6.6" height="6.6"/>
		<line class="st38" x1="58.4" y1="144.4" x2="77" y2="144.4"/>
		<circle class="st38" cx="74.3" cy="154.9" r="2.3"/>
		<line class="st38" x1="44" y1="155.8" x2="52.1" y2="155.8"/>
	</g>
	<g>
		<g>
			<g>
				<polyline class="st28" points="127.8,279.1 105.4,279.1 105.4,239.1 138.6,239.1 138.6,274.8 				"/>
				<g>
					<polygon class="st29" points="135.6,274 138.6,279.1 141.5,274 					"/>
				</g>
			</g>
		</g>
		
			<rect x="113" y="234.8" transform="matrix(-1 -1.224647e-16 1.224647e-16 -1 243.9845 473.8677)" class="st28" width="18" height="4.3"/>
		<line class="st28" x1="113" y1="248.9" x2="131" y2="248.9"/>
		<line class="st28" x1="113" y1="258.9" x2="131" y2="258.9"/>
		<line class="st28" x1="113" y1="268.9" x2="131" y2="268.9"/>
		<circle class="st28" cx="130.2" cy="279.3" r="2.3"/>
	</g>
	<g>
		<g>
			<polyline class="st27" points="108.8,53.1 111.2,54.8 115.9,54.9 			"/>
			<path class="st27" d="M102.8,69l-0.7,0.7c-0.9,0.9-0.9,2.3,0,3.2c0.9,0.9,2.3,0.9,3.2,0l0.7-0.7l0,0l-0.7,0.7
				c-0.9,0.9-0.9,2.3,0,3.2c0.9,0.9,2.3,0.9,3.2,0l0.7-0.7l0,0l-0.7,0.7c-0.9,0.9-0.9,2.3,0,3.2c0.9,0.9,2.3,0.9,3.2,0l0.7-0.7l0,0
				l-0.7,0.7c-0.9,0.9-0.9,2.3,0,3.2l0,0c0.9,0.9,2.3,0.9,3.2,0l0.7-0.7"/>
			<g>
				<g>
					<polyline class="st27" points="97.1,39.1 110,52 97.9,64 94,60.1 					"/>
					<g>
						<polygon class="st29" points="95.6,41.8 94,36 99.8,37.6 						"/>
					</g>
				</g>
			</g>
			<g>
				<g>
					<polyline class="st27" points="136,59.9 132.5,63.4 120.5,51.3 132.9,38.8 					"/>
					<g>
						<polygon class="st29" points="134.4,41.6 136,35.8 130.2,37.3 						"/>
					</g>
				</g>
			</g>
			<path class="st27" d="M121.5,52.5l-2.2,2.2h-3l-6.6,6.8c-0.8,0.8-0.8,2.1,0,3h0c0.8,0.8,2.1,0.8,3,0l3.7-3.7c0,0,2,1.7,3.9,3.5
				c1.8,1.6,3.4-0.1,3.4-0.1l5.4,5.3c0.9,0.9,0.9,2.3,0,3.2l0,0c-0.9,0.9-2.3,0.9-3.2,0l-3.9-3.9l0,0l3.9,3.9c0.9,0.9,0.9,2.3,0,3.2
				c-0.9,0.9-2.3,0.9-3.2,0l-3.9-3.9l0,0l3.9,3.9c0.9,0.9,0.9,2.3,0,3.2c-0.9,0.9-2.3,0.9-3.2,0l-3.9-3.9l0,0l3.9,3.9
				c0.9,0.9,0.9,2.3,0,3.2c-0.9,0.9-2.3,0.9-3.2,0l-3.9-3.9l-10.6-10.6l-0.6-2.4l-2.2-2.2"/>
			<polyline class="st27" points="131.3,62.2 129,64.6 129.1,67.5 128.1,68.5 			"/>
		</g>
		<circle class="st27" cx="134.2" cy="54.7" r="2.3"/>
		<circle class="st27" cx="96.7" cy="54.7" r="2.3"/>
	</g>
	<line class="st38" x1="38.3" y1="162.6" x2="82.6" y2="162.6"/>
</g>
</svg>
