<svg xmlns="http://www.w3.org/2000/svg" width="350" height="350">
  <style>
    .st5{fill:#df9926}.st27{display:inline}.st28{fill:none;stroke:#000;stroke-width:.1397;stroke-miterlimit:10}.st31{fill:#fff}.st33{stroke-miterlimit:10}.st33,.st34,.st35{fill:none;stroke:#fff;stroke-width:1.4992}.st35{stroke:#fcfcfc;stroke-width:1.5;stroke-miterlimit:10}.st36{fill:#fcfcfc}
  </style>
  <g id="Layer_3">
    <path fill="#eac8a5" d="M220.9 134.7l-5.6-5.6 80.6-80.6c-67.6-64.7-174.3-64.7-241.9 0l82 82-5.6 5.6-82-82c-64.7 67.6-64.7 174.3 0 241.9l80.6-80.6 5.6 5.6L54 301.6c67.6 64.7 174.3 64.7 241.9 0l-79.2-79.2 5.6-5.6 79.2 79.2c64.7-67.6 64.7-174.3 0-241.9l-80.6 80.6z"/>
    <circle id="XMLID_196_" cx="175" cy="175" r="167.9" fill="#ece1ce"/>
    <path d="M127.7 133.3L53.5 59.1c-61.9 64.8-61.9 167 0 231.8l74.2-74.2c-21-23.8-21-59.6 0-83.4zM216.7 127.7l74.2-74.2c-64.8-61.9-167-61.9-231.8 0l74.2 74.2c23.8-21 59.6-21 83.4 0zM133.3 222.3l-74.2 74.2c64.8 61.9 167 61.9 231.8 0l-74.2-74.2c-23.8 21-59.6 21-83.4 0zM222.3 216.7l74.2 74.2c61.9-64.8 61.9-167 0-231.8l-74.2 74.2c21 23.8 21 59.6 0 83.4z" class="st5"/>
  </g>
  <g id="Layer_1">
    <path d="M152.6 83.6c.4-.1 1.3-.2 2-.2 1 0 1.7.1 2.2.5.5.3.8.8.8 1.4 0 .7-.4 1.4-1.3 1.7.8.2 1.5.8 1.5 1.9 0 .7-.3 1.2-.7 1.6-.5.5-1.4.7-2.8.7-.8 0-1.4-.1-1.7-.1v-7.5zm1.3 3h.7c1 0 1.5-.5 1.5-1.1 0-.7-.5-1-1.4-1-.4 0-.6 0-.8.1v2zm0 3.5h.7c.9 0 1.7-.3 1.7-1.3 0-.9-.8-1.3-1.7-1.3h-.7v2.6zM164 89.5v1.7h-1.2l-.1-.8c-.2.4-.8 1-1.8 1s-1.9-.6-1.9-2.4v-3.3h1.4v3c0 .9.3 1.5 1 1.5.6 0 .9-.4 1.1-.8 0-.1.1-.3.1-.4v-3.3h1.4v3.8zM165.5 89.9c.3.2.9.4 1.4.4.6 0 .9-.3.9-.6 0-.4-.2-.6-.9-.8-1.1-.4-1.5-1-1.5-1.6 0-1 .8-1.7 2.1-1.7.6 0 1.1.2 1.5.3l-.3 1c-.2-.1-.7-.3-1.2-.3s-.8.2-.8.6c0 .4.3.5 1 .8 1 .4 1.5.9 1.5 1.7 0 1-.8 1.7-2.3 1.7-.7 0-1.3-.2-1.7-.4l.3-1.1zM171.8 84c0 .4-.3.8-.8.8s-.8-.3-.8-.8c0-.4.3-.8.8-.8.5.1.8.4.8.8zm-1.5 7.1v-5.5h1.4v5.5h-1.4zM173.2 87.2v-1.7h1.2l.1.8c.2-.4.8-1 1.8-1s2 .6 2 2.4V91h-1.4v-3c0-.8-.3-1.4-1.1-1.4-.6 0-.9.4-1.1.8 0 .1-.1.3-.1.5v3.3h-1.4v-4zM180.7 88.8c0 1 .8 1.4 1.7 1.4.6 0 1.1-.1 1.5-.3l.2 1c-.5.2-1.1.3-1.9.3-1.8 0-2.9-1.1-2.9-2.8 0-1.5.9-3 2.7-3 1.8 0 2.4 1.5 2.4 2.7v.6h-3.7zm2.4-1c0-.5-.2-1.4-1.1-1.4-.9 0-1.2.8-1.3 1.4h2.4zM185.5 89.9c.3.2.9.4 1.4.4.6 0 .9-.3.9-.6 0-.4-.2-.6-.9-.8-1.1-.4-1.5-1-1.5-1.6 0-1 .8-1.7 2.1-1.7.6 0 1.1.2 1.5.3l-.3 1c-.2-.1-.7-.3-1.2-.3s-.8.2-.8.6c0 .4.3.5 1 .8 1 .4 1.5.9 1.5 1.7 0 1-.8 1.7-2.3 1.7-.7 0-1.3-.2-1.7-.4l.3-1.1zM190.3 89.9c.3.2.9.4 1.4.4.6 0 .9-.3.9-.6 0-.4-.2-.6-.9-.8-1.1-.4-1.5-1-1.5-1.6 0-1 .8-1.7 2.1-1.7.6 0 1.1.2 1.5.3l-.3 1c-.2-.1-.7-.3-1.2-.3s-.8.2-.8.6c0 .4.3.5 1 .8 1 .4 1.5.9 1.5 1.7 0 1-.8 1.7-2.3 1.7-.7 0-1.3-.2-1.7-.4l.3-1.1zM147.1 94.7v8.1h-1.3l-.1-.9c-.3.6-1 1-1.8 1-1.3 0-2.4-1.1-2.4-2.8 0-1.9 1.1-3 2.5-3 .8 0 1.3.3 1.6.7v-3.1h1.5zm-1.4 4.9v-.4c-.1-.5-.6-1-1.2-1-.9 0-1.4.8-1.4 1.8s.5 1.8 1.4 1.8c.6 0 1.1-.4 1.2-1V99.6zM149.6 100.4c0 1 .8 1.4 1.7 1.4.6 0 1.1-.1 1.5-.3l.2 1c-.5.2-1.1.3-1.9.3-1.8 0-2.9-1.1-2.9-2.8 0-1.5.9-3 2.7-3 1.8 0 2.4 1.5 2.4 2.7v.6h-3.7zm2.4-.9c0-.5-.2-1.4-1.1-1.4-.9 0-1.2.8-1.3 1.4h2.4zM155.3 97.3l.9 2.8c.2.5.3.9.4 1.4.1-.5.2-.9.4-1.4l.9-2.8h1.5l-2.1 5.5h-1.4l-2.1-5.5h1.5zM161.1 100.4c0 1 .8 1.4 1.7 1.4.6 0 1.1-.1 1.5-.3l.2 1c-.5.2-1.1.3-1.9.3-1.8 0-2.9-1.1-2.9-2.8 0-1.5.9-3 2.7-3 1.8 0 2.4 1.5 2.4 2.7v.6h-3.7zm2.4-.9c0-.5-.2-1.4-1.1-1.4-.9 0-1.2.8-1.3 1.4h2.4zM166 94.7h1.4v8.1H166v-8.1zM174.2 100c0 2-1.4 2.9-2.8 2.9-1.6 0-2.8-1.1-2.8-2.9 0-1.8 1.2-2.9 2.9-2.9 1.6 0 2.7 1.2 2.7 2.9zm-4.2.1c0 1.1.5 1.9 1.4 1.9.8 0 1.4-.8 1.4-1.9 0-.9-.4-1.9-1.3-1.9-1.1 0-1.5.9-1.5 1.9zM175.3 99.1v-1.8h1.2l.1.9c.4-.6 1.1-1 1.9-1 1.3 0 2.3 1.1 2.3 2.8 0 2-1.3 3-2.5 3-.7 0-1.3-.3-1.6-.7v2.9h-1.4v-6.1zm1.4 1.4v.4c.1.6.6 1 1.2 1 .9 0 1.4-.7 1.4-1.8 0-1-.5-1.8-1.4-1.8-.6 0-1.1.4-1.3 1 0 .1-.1.2-.1.4v.8zM182 98.9v-1.7h1.2l.1.8c.3-.4.8-.9 1.7-.9.7 0 1.3.4 1.5 1 .2-.3.4-.5.7-.7.3-.2.7-.3 1.1-.3.9 0 1.9.6 1.9 2.4v3.3h-1.4v-3.1c0-.9-.3-1.5-1-1.5-.5 0-.8.3-1 .7 0 .1-.1.3-.1.5v3.3h-1.4v-3.2c0-.8-.3-1.3-1-1.3-.5 0-.9.4-1 .8-.1.1-.1.3-.1.5v3.3H182v-3.9zM192.6 100.4c0 1 .8 1.4 1.7 1.4.6 0 1.1-.1 1.5-.3l.2 1c-.5.2-1.1.3-1.9.3-1.8 0-2.9-1.1-2.9-2.8 0-1.5.9-3 2.7-3 1.8 0 2.4 1.5 2.4 2.7v.6h-3.7zm2.5-.9c0-.5-.2-1.4-1.1-1.4-.9 0-1.2.8-1.3 1.4h2.4zM197.5 98.9v-1.7h1.2l.1.8c.2-.4.8-1 1.8-1s2 .6 2 2.4v3.3h-1.4v-3.1c0-.8-.3-1.4-1.1-1.4-.6 0-.9.4-1.1.8 0 .1-.1.3-.1.5v3.3h-1.4v-3.9zM205.6 95.7v1.6h1.3v1h-1.3v2.4c0 .7.2 1 .7 1 .2 0 .4 0 .5-.1v1.1c-.2.1-.6.1-1 .1-.5 0-.9-.2-1.2-.5-.3-.3-.4-.8-.4-1.5v-2.6h-.8v-1h.8V96l1.4-.3zM251.1 212.2c.5.3 1.1.5 1.9.5.9 0 1.4-.4 1.4-1s-.4-.9-1.4-1.3c-1.3-.5-2.1-1.1-2.1-2.2 0-1.3 1-2.2 2.7-2.2.8 0 1.4.2 1.8.4l-.3 1.1c-.3-.1-.8-.4-1.5-.4-.9 0-1.3.5-1.3.9 0 .6.4.9 1.5 1.3 1.3.5 2 1.2 2 2.3 0 1.2-.9 2.3-2.9 2.3-.8 0-1.7-.2-2.1-.5l.3-1.2zM260.1 213.7l-.1-.6c-.3.4-.9.7-1.6.7-1.1 0-1.7-.8-1.7-1.7 0-1.4 1.2-2.1 3.3-2.1 0-.4-.1-1-1.1-1-.5 0-1.1.2-1.5.4l-.3-.9c.4-.3 1.1-.5 2-.5 1.8 0 2.3 1.1 2.3 2.3v2c0 .5 0 1 .1 1.3h-1.4zm-.2-2.7c-1 0-1.9.2-1.9 1 0 .5.4.8.8.8.6 0 1-.4 1.1-.8v-1zM262.8 205.6h1.4v8.1h-1.4v-8.1zM266.7 211.3c0 1 .8 1.4 1.7 1.4.6 0 1.1-.1 1.5-.3l.2 1c-.5.2-1.1.3-1.9.3-1.8 0-2.9-1.1-2.9-2.8 0-1.5.9-3 2.7-3 1.8 0 2.4 1.5 2.4 2.7v.6h-3.7zm2.4-.9c0-.5-.2-1.4-1.1-1.4-.9 0-1.2.8-1.3 1.4h2.4zM271.5 212.4c.3.2.9.4 1.4.4.6 0 .9-.3.9-.6 0-.4-.2-.6-.9-.8-1.1-.4-1.5-1-1.5-1.6 0-1 .8-1.7 2.1-1.7.6 0 1.1.2 1.5.3l-.3 1c-.2-.1-.7-.3-1.2-.3s-.8.2-.8.6c0 .4.3.5 1 .8 1 .4 1.5.9 1.5 1.7 0 1-.8 1.7-2.3 1.7-.7 0-1.3-.2-1.7-.4l.3-1.1zM280.2 206.6c0 .4-.3.8-.8.8s-.8-.3-.8-.8c0-.4.3-.8.8-.8.5.1.8.4.8.8zm-1.5 7.1v-5.5h1.4v5.5h-1.4zM281.6 209.8v-1.7h1.2l.1.8c.2-.4.8-1 1.8-1s2 .6 2 2.4v3.3h-1.4v-3.1c0-.8-.3-1.4-1.1-1.4-.6 0-.9.4-1.1.8 0 .1-.1.3-.1.5v3.3h-1.4v-3.9zM288.8 208.2l.9 2.8c.2.5.3.9.4 1.4.1-.5.2-.9.4-1.4l.9-2.8h1.5l-2.1 5.5h-1.4l-2.1-5.5h1.5zM294.6 211.3c0 1 .8 1.4 1.7 1.4.6 0 1.1-.1 1.5-.3l.2 1c-.5.2-1.1.3-1.9.3-1.8 0-2.9-1.1-2.9-2.8 0-1.5.9-3 2.7-3 1.8 0 2.4 1.5 2.4 2.7v.6h-3.7zm2.4-.9c0-.5-.2-1.4-1.1-1.4-.9 0-1.2.8-1.3 1.4h2.4zM299.5 209.8v-1.7h1.2l.1.8c.2-.4.8-1 1.8-1s2 .6 2 2.4v3.3h-1.4v-3.1c0-.8-.3-1.4-1.1-1.4-.6 0-.9.4-1.1.8 0 .1-.1.3-.1.5v3.3h-1.4v-3.9zM307.5 206.6v1.6h1.3v1h-1.3v2.4c0 .7.2 1 .7 1 .2 0 .4 0 .5-.1v1.1c-.2.1-.6.1-1 .1-.5 0-.9-.2-1.2-.5-.3-.3-.4-.8-.4-1.5v-2.6h-.8v-1h.8v-1.3l1.4-.2zM315.1 210.9c0 2-1.4 2.9-2.8 2.9-1.6 0-2.8-1.1-2.8-2.9 0-1.8 1.2-2.9 2.9-2.9 1.6.1 2.7 1.2 2.7 2.9zm-4.2.1c0 1.1.5 1.9 1.4 1.9.8 0 1.4-.8 1.4-1.9 0-.9-.4-1.9-1.3-1.9-1.1 0-1.5.9-1.5 1.9zM316.3 210v-1.8h1.2v1.1c.3-.8.9-1.2 1.5-1.2h.3v1.3h-.4c-.7 0-1.1.4-1.3 1.1v3.3h-1.4V210zM321.4 208.2l1 3c.1.3.2.8.3 1.1.1-.3.2-.7.3-1.1l.9-3h1.5L324 212c-.8 2.1-1.3 3-1.9 3.6-.5.5-1.1.7-1.5.7l-.3-1.2c.2-.1.5-.2.8-.4.3-.2.6-.5.8-.9.1-.1.1-.2.1-.3 0-.1 0-.1-.1-.3l-2-5.1h1.5zM255.6 221.5v-1.7h1.2l.1.8c.3-.4.8-.9 1.7-.9.7 0 1.3.4 1.5 1 .2-.3.4-.5.7-.7.3-.2.7-.3 1.1-.3.9 0 1.9.6 1.9 2.4v3.3h-1.4v-3.1c0-.9-.3-1.5-1-1.5-.5 0-.8.3-1 .7 0 .1-.1.3-.1.5v3.3H259v-3.2c0-.8-.3-1.3-1-1.3-.5 0-.9.4-1 .8-.1.1-.1.3-.1.5v3.3h-1.4v-3.9zM268.4 225.4l-.1-.6c-.3.4-.9.7-1.6.7-1.1 0-1.7-.8-1.7-1.7 0-1.4 1.2-2.1 3.3-2.1v-.1c0-.4-.1-1-1.1-1-.5 0-1.1.2-1.5.4l-.3-.9c.4-.3 1.1-.5 2-.5 1.8 0 2.3 1.1 2.3 2.3v2c0 .5 0 1 .1 1.3h-1.4zm-.2-2.7c-1 0-1.9.2-1.9 1 0 .5.4.8.8.8.6 0 1-.4 1.1-.8v-1zM271 221.5v-1.7h1.2l.1.8c.2-.4.8-1 1.8-1s2 .6 2 2.4v3.3h-1.4v-3.1c0-.8-.3-1.4-1.1-1.4-.6 0-.9.4-1.1.8 0 .1-.1.3-.1.5v3.3H271v-3.9zM280.7 225.4l-.1-.6c-.3.4-.9.7-1.6.7-1.1 0-1.7-.8-1.7-1.7 0-1.4 1.2-2.1 3.3-2.1v-.1c0-.4-.1-1-1.1-1-.5 0-1.1.2-1.5.4l-.3-.9c.4-.3 1.1-.5 2-.5 1.8 0 2.3 1.1 2.3 2.3v2c0 .5 0 1 .1 1.3h-1.4zm-.2-2.7c-1 0-1.9.2-1.9 1 0 .5.4.8.8.8.6 0 1-.4 1.1-.8v-1zM288.4 219.9v4.7c0 1.2-.2 2-.8 2.5-.6.5-1.4.7-2.1.7-.7 0-1.5-.1-1.9-.4l.3-1.1c.4.2.9.4 1.6.4.9 0 1.6-.5 1.6-1.7v-.5c-.3.5-.9.8-1.6.8-1.4 0-2.4-1.1-2.4-2.7 0-1.8 1.2-2.9 2.5-2.9.8 0 1.3.4 1.6.9l.1-.7h1.1zm-1.5 2.2v-.4c-.1-.5-.5-.9-1.1-.9-.8 0-1.4.7-1.4 1.8 0 .9.5 1.7 1.4 1.7.5 0 1-.3 1.1-.8 0-.1.1-.3.1-.5v-.9zM290.8 223c0 1 .8 1.4 1.7 1.4.6 0 1.1-.1 1.5-.3l.2 1c-.5.2-1.1.3-1.9.3-1.8 0-2.9-1.1-2.9-2.8 0-1.5.9-3 2.7-3 1.8 0 2.4 1.5 2.4 2.7v.6h-3.7zm2.5-1c0-.5-.2-1.4-1.1-1.4-.9 0-1.2.8-1.3 1.4h2.4zM295.7 221.5v-1.7h1.2l.1.8c.3-.4.8-.9 1.7-.9.7 0 1.3.4 1.5 1 .2-.3.4-.5.7-.7.3-.2.7-.3 1.1-.3.9 0 1.9.6 1.9 2.4v3.3h-1.4v-3.1c0-.9-.3-1.5-1-1.5-.5 0-.8.3-1 .7 0 .1-.1.3-.1.5v3.3H299v-3.2c0-.8-.3-1.3-1-1.3-.5 0-.9.4-1 .8-.1.1-.1.3-.1.5v3.3h-1.4v-3.9zM306.4 223c0 1 .8 1.4 1.7 1.4.6 0 1.1-.1 1.5-.3l.2 1c-.5.2-1.1.3-1.9.3-1.8 0-2.9-1.1-2.9-2.8 0-1.5.9-3 2.7-3 1.8 0 2.4 1.5 2.4 2.7v.6h-3.7zm2.4-1c0-.5-.2-1.4-1.1-1.4-.9 0-1.2.8-1.3 1.4h2.4zM311.3 221.5v-1.7h1.2l.1.8c.2-.4.8-1 1.8-1s2 .6 2 2.4v3.3H315v-3.1c0-.8-.3-1.4-1.1-1.4-.6 0-.9.4-1.1.8 0 .1-.1.3-.1.5v3.3h-1.4v-3.9zM319.3 218.3v1.6h1.3v1h-1.3v2.4c0 .7.2 1 .7 1 .2 0 .4 0 .5-.1v1.1c-.2.1-.6.1-1 .1-.5 0-.9-.2-1.2-.5-.3-.3-.4-.8-.4-1.5v-2.6h-.8v-1h.8v-1.3l1.4-.2z" class="st31"/>
    <g>
      <path d="M141.8 308.7c0-1-.1-2.2-.1-3.2-.3.9-.6 2-.9 2.9l-1.1 3.3h-1.1l-1-3.3c-.3-1-.6-2-.8-3 0 1-.1 2.2-.1 3.3l-.2 3.1h-1.3l.5-7.7h1.8l1 3.1c.3.9.5 1.8.7 2.7.2-.8.5-1.8.8-2.7l1.1-3.1h1.8l.4 7.7h-1.4l-.1-3.1zM145.7 309.4c0 1 .8 1.4 1.7 1.4.6 0 1.1-.1 1.5-.3l.2 1c-.5.2-1.1.3-1.9.3-1.8 0-2.9-1.1-2.9-2.8 0-1.5.9-3 2.7-3 1.8 0 2.4 1.5 2.4 2.7v.6h-3.7zm2.4-1c0-.5-.2-1.4-1.1-1.4-.9 0-1.2.8-1.3 1.4h2.4zM150.6 308v-1.8h1.2v1.1c.3-.8.9-1.2 1.5-1.2h.3v1.3h-.4c-.7 0-1.1.4-1.3 1.1v3.3h-1.4V308zM158.6 311.6c-.3.1-.9.3-1.6.3-1.7 0-2.9-1.1-2.9-2.8 0-1.7 1.1-3 3.1-3 .5 0 1 .1 1.4.3l-.3 1c-.2-.1-.6-.2-1.1-.2-1.1 0-1.7.8-1.7 1.8 0 1.1.7 1.8 1.7 1.8.5 0 .8-.1 1.1-.2l.3 1zM159.7 303.7h1.4v3.3c.2-.3.4-.5.7-.6.3-.2.6-.3 1-.3.9 0 1.9.6 1.9 2.4v3.3h-1.4v-3.1c0-.8-.3-1.4-1.1-1.4-.5 0-.9.4-1.1.8 0 .1-.1.3-.1.4v3.3h-1.4v-8.1zM169.3 311.8l-.1-.6c-.3.4-.9.7-1.6.7-1.1 0-1.7-.8-1.7-1.7 0-1.4 1.2-2.1 3.3-2.1v-.1c0-.4-.1-1-1.1-1-.5 0-1.1.2-1.5.4l-.3-.9c.4-.3 1.1-.5 2-.5 1.8 0 2.3 1.1 2.3 2.3v2c0 .5 0 1 .1 1.3h-1.4zm-.2-2.7c-1 0-1.9.2-1.9 1 0 .5.4.8.8.8.6 0 1-.4 1.1-.8v-1zM172 307.9v-1.7h1.2l.1.8c.2-.4.8-1 1.8-1s2 .6 2 2.4v3.3h-1.4v-3.1c0-.8-.3-1.4-1.1-1.4-.6 0-.9.4-1.1.8 0 .1-.1.3-.1.5v3.3H172v-3.9zM183.6 303.7v8.1h-1.3l-.1-.9c-.3.6-1 1-1.8 1-1.3 0-2.4-1.1-2.4-2.8 0-1.9 1.1-3 2.5-3 .8 0 1.3.3 1.6.7v-3.1h1.5zm-1.4 4.8v-.4c-.1-.5-.6-1-1.2-1-.9 0-1.4.8-1.4 1.8s.5 1.8 1.4 1.8c.6 0 1.1-.4 1.2-1V308.5zM186.6 304.7c0 .4-.3.8-.8.8s-.8-.3-.8-.8c0-.4.3-.8.8-.8s.8.4.8.8zm-1.5 7.1v-5.5h1.4v5.5h-1.4zM187.9 310.5c.3.2.9.4 1.4.4.6 0 .9-.3.9-.6 0-.4-.2-.6-.9-.8-1.1-.4-1.5-1-1.5-1.6 0-1 .8-1.7 2.1-1.7.6 0 1.1.2 1.5.3l-.3 1c-.2-.1-.7-.3-1.2-.3s-.8.2-.8.6c0 .4.3.5 1 .8 1 .4 1.5.9 1.5 1.7 0 1-.8 1.7-2.3 1.7-.7 0-1.3-.2-1.7-.4l.3-1.1zM194.2 304.7c0 .4-.3.8-.8.8s-.8-.3-.8-.8c0-.4.3-.8.8-.8s.8.4.8.8zm-1.5 7.1v-5.5h1.4v5.5h-1.4zM195.7 307.9v-1.7h1.2l.1.8c.2-.4.8-1 1.8-1s2 .6 2 2.4v3.3h-1.4v-3.1c0-.8-.3-1.4-1.1-1.4-.6 0-.9.4-1.1.8 0 .1-.1.3-.1.5v3.3h-1.4v-3.9zM207.2 306.2v4.7c0 1.2-.2 2-.8 2.5-.6.5-1.4.7-2.1.7-.7 0-1.5-.1-1.9-.4l.3-1.1c.4.2.9.4 1.6.4.9 0 1.6-.5 1.6-1.7v-.5c-.3.5-.9.8-1.6.8-1.4 0-2.4-1.1-2.4-2.7 0-1.8 1.2-2.9 2.5-2.9.8 0 1.3.4 1.6.9l.1-.7h1.1zm-1.4 2.3v-.4c-.1-.5-.5-.9-1.1-.9-.8 0-1.4.7-1.4 1.8 0 .9.5 1.7 1.4 1.7.5 0 1-.3 1.1-.8 0-.1.1-.3.1-.5v-.9z" class="st31"/>
    </g>
    <g>
      <path d="M44.5 206.7c-.3.2-1.1.3-2 .3-2.4 0-3.9-1.5-3.9-3.9 0-2.5 1.8-4.1 4.1-4.1.9 0 1.6.2 1.9.3l-.3 1.1c-.4-.2-.9-.3-1.5-.3-1.6 0-2.7 1-2.7 2.8 0 1.7 1 2.8 2.7 2.8.6 0 1.2-.1 1.5-.3l.2 1.3zM50.5 205.3v1.7h-1.2l-.1-.8c-.2.4-.8 1-1.8 1s-1.9-.6-1.9-2.4v-3.3h1.4v3c0 .9.3 1.5 1 1.5.6 0 .9-.4 1.1-.8 0-.1.1-.3.1-.4v-3.3h1.4v3.8zM51.9 205.6c.3.2.9.4 1.4.4.6 0 .9-.3.9-.6 0-.4-.2-.6-.9-.8-1.1-.4-1.5-1-1.5-1.6 0-1 .8-1.7 2.1-1.7.6 0 1.1.2 1.5.3l-.3 1c-.2-.1-.7-.3-1.2-.3s-.8.2-.8.6c0 .4.3.5 1 .8 1 .4 1.5.9 1.5 1.7 0 1-.8 1.7-2.3 1.7-.7 0-1.3-.2-1.7-.4l.3-1.1zM58.3 199.8v1.6h1.3v1h-1.3v2.4c0 .7.2 1 .7 1 .2 0 .4 0 .5-.1v1.1c-.2.1-.6.1-1 .1-.5 0-.9-.2-1.2-.5-.3-.3-.4-.8-.4-1.5v-2.6h-.8v-1h.9V200l1.3-.2zM65.9 204.1c0 2-1.4 2.9-2.8 2.9-1.6 0-2.8-1.1-2.8-2.9 0-1.8 1.2-2.9 2.9-2.9 1.6.1 2.7 1.2 2.7 2.9zm-4.2.1c0 1.1.5 1.9 1.4 1.9.8 0 1.4-.8 1.4-1.9 0-.9-.4-1.9-1.3-1.9-1.1 0-1.5.9-1.5 1.9zM67.1 203v-1.7h1.2l.1.8c.3-.4.8-.9 1.7-.9.7 0 1.3.4 1.5 1 .2-.3.4-.5.7-.7.3-.2.7-.3 1.1-.3.9 0 1.9.6 1.9 2.4v3.3h-1.4v-3.1c0-.9-.3-1.5-1-1.5-.5 0-.8.3-1 .7 0 .1-.1.3-.1.5v3.3h-1.4v-3.2c0-.8-.3-1.3-1-1.3-.5 0-.9.4-1 .8-.1.1-.1.3-.1.5v3.3h-1.4V203zM77.7 204.6c0 1 .8 1.4 1.7 1.4.6 0 1.1-.1 1.5-.3l.2 1c-.5.2-1.1.3-1.9.3-1.8 0-2.9-1.1-2.9-2.8 0-1.5.9-3 2.7-3 1.8 0 2.4 1.5 2.4 2.7v.6h-3.7zm2.5-1c0-.5-.2-1.4-1.2-1.4-.9 0-1.2.8-1.3 1.4h2.5zM82.6 203.2v-1.8h1.2v1.1c.3-.8.9-1.2 1.5-1.2h.3v1.3h-.4c-.7 0-1.1.4-1.3 1.1v3.3h-1.4v-3.8zM32.3 216.2c0 1 .8 1.4 1.7 1.4.6 0 1.1-.1 1.5-.3l.2 1c-.5.2-1.1.3-1.9.3-1.8 0-2.9-1.1-2.9-2.8 0-1.5.9-3 2.7-3 1.8 0 2.4 1.5 2.4 2.7v.6h-3.7zm2.4-.9c0-.5-.2-1.4-1.2-1.4-.9 0-1.2.8-1.3 1.4h2.5zM37.2 214.7V213h1.2l.1.8c.2-.4.8-1 1.8-1s2 .6 2 2.4v3.3h-1.4v-3.1c0-.8-.3-1.4-1.1-1.4-.6 0-.9.4-1.1.8 0 .1-.1.3-.1.5v3.3h-1.4v-3.9zM48.7 213.1v4.7c0 1.2-.2 2-.8 2.5-.6.5-1.4.7-2.1.7-.7 0-1.5-.1-1.9-.4l.3-1.1c.4.2.9.4 1.6.4.9 0 1.6-.5 1.6-1.7v-.5c-.3.5-.9.8-1.6.8-1.4 0-2.4-1.1-2.4-2.7 0-1.8 1.2-2.9 2.5-2.9.8 0 1.3.4 1.6.9l.1-.7h1.1zm-1.4 2.2v-.4c-.1-.5-.5-.9-1.1-.9-.8 0-1.4.7-1.4 1.8 0 .9.5 1.7 1.4 1.7.5 0 1-.3 1.1-.8 0-.1.1-.3.1-.5v-.9zM53.3 218.6l-.1-.6c-.3.4-.9.7-1.6.7-1.1 0-1.7-.8-1.7-1.7 0-1.4 1.2-2.1 3.3-2.1v-.1c0-.4-.1-1-1.1-1-.5 0-1.1.2-1.5.4l-.3-.9c.4-.3 1.1-.5 2-.5 1.8 0 2.3 1.1 2.3 2.3v2c0 .5 0 1 .1 1.3h-1.4zm-.2-2.7c-1 0-1.9.2-1.9 1 0 .5.4.8.8.8.6 0 1-.4 1.1-.8v-1zM61 213.1v4.7c0 1.2-.2 2-.8 2.5-.6.5-1.4.7-2.1.7-.7 0-1.5-.1-1.9-.4l.3-1.1c.4.2.9.4 1.6.4.9 0 1.6-.5 1.6-1.7v-.5c-.3.5-.9.8-1.6.8-1.4 0-2.4-1.1-2.4-2.7 0-1.8 1.2-2.9 2.5-2.9.8 0 1.3.4 1.6.9l.1-.7H61zm-1.4 2.2v-.4c-.1-.5-.5-.9-1.1-.9-.8 0-1.4.7-1.4 1.8 0 .9.5 1.7 1.4 1.7.5 0 1-.3 1.1-.8 0-.1.1-.3.1-.5v-.9zM63.5 216.2c0 1 .8 1.4 1.7 1.4.6 0 1.1-.1 1.5-.3l.2 1c-.5.2-1.1.3-1.9.3-1.8 0-2.9-1.1-2.9-2.8 0-1.5.9-3 2.7-3 1.8 0 2.4 1.5 2.4 2.7v.6h-3.7zm2.4-.9c0-.5-.2-1.4-1.2-1.4-.9 0-1.2.8-1.3 1.4h2.5zM68.4 214.7V213h1.2l.1.8c.3-.4.8-.9 1.7-.9.7 0 1.3.4 1.5 1 .2-.3.4-.5.7-.7.3-.2.7-.3 1.1-.3.9 0 1.9.6 1.9 2.4v3.3h-1.4v-3.1c0-.9-.3-1.5-1-1.5-.5 0-.8.3-1 .7 0 .1-.1.3-.1.5v3.3h-1.4v-3.2c0-.8-.3-1.3-1-1.3-.5 0-.9.4-1 .8-.1.1-.1.3-.1.5v3.3h-1.4v-3.9zM79 216.2c0 1 .8 1.4 1.7 1.4.6 0 1.1-.1 1.5-.3l.2 1c-.5.2-1.1.3-1.9.3-1.8 0-2.9-1.1-2.9-2.8 0-1.5.9-3 2.7-3 1.8 0 2.4 1.5 2.4 2.7v.6H79zm2.5-.9c0-.5-.2-1.4-1.2-1.4-.9 0-1.2.8-1.3 1.4h2.5zM83.9 214.7V213h1.2l.1.8c.2-.4.8-1 1.8-1s2 .6 2 2.4v3.3h-1.4v-3.1c0-.8-.3-1.4-1.1-1.4-.6 0-.9.4-1.1.8 0 .1-.1.3-.1.5v3.3h-1.4v-3.9zM92 211.5v1.6h1.3v1H92v2.4c0 .7.2 1 .7 1 .2 0 .4 0 .5-.1v1.1c-.2.1-.6.1-1 .1-.5 0-.9-.2-1.2-.5-.3-.3-.4-.8-.4-1.5V214h-.8v-1h.8v-1.3l1.4-.2z" class="st31"/>
    </g>
    <g>
      <circle cx="169.5" cy="40.4" r="9.6" class="st35"/>
      <path d="M157.6 72.9h-2.8c-1.9 0-3.4-1.5-3.4-3.4v-8.8c0-4.2 3.4-7.5 7.5-7.5h19.3c3.9 0 7 3.1 7 7v9.7c0 1.7-1.4 3.1-3.1 3.1h-3" class="st35"/>
      <path d="M180.9 76.7h10.7V53.6" class="st35"/>
      <path d="M194.6 54.5l-3-5.2-3 5.2z" class="st36"/>
      <path d="M157.6 62.3v14.4h21.5V63" class="st35"/>
    </g>
    <path d="M183.5 32.4h15.3v15.3h-15.3zM191.3 36v8.2M187.2 40.1h8.2" class="st35"/>
    <path id="XMLID_62_" d="M62.9 182.6v9.1" class="st33"/>
    <g id="XMLID_53_">
      <path d="M86.5 149.9v32.7H39.2v-34.7h35.3" class="st33"/>
      <path d="M83.5 150.7l3-5.1 3 5.1z" class="st31"/>
    </g>
    <path id="XMLID_48_" d="M76.5 149.8c-1.6-1-1.6-3.3 0-4.3 1.7-1 3.8.2 3.8 2.1 0 2-2.2 3.2-3.8 2.2z" class="st34"/>
    <path id="XMLID_27_" d="M54.1 191.7h17.5" class="st33"/>
    <g>
      <circle cx="50.8" cy="159.4" r="4" class="st35"/>
      <path d="M44.3 173.4v-3.9c0-2.1 1.7-3.8 3.8-3.8h5.6c2.1 0 3.8 1.7 3.8 3.8v3.9" class="st35"/>
    </g>
    <g>
      <path d="M66.2 171.3l6.5-6 2 1.9 5.2-5.9" class="st35"/>
      <path d="M81.6 163.9l1.1-5.9-5.7 2z" class="st36"/>
    </g>
    <g>
      <path d="M62.9 150.2v2" class="st35"/>
      <path fill="none" stroke="#fcfcfc" stroke-dasharray="3.65 3.65" stroke-miterlimit="10" stroke-width="1.5" d="M62.9 155.8v20.1"/>
      <path d="M62.9 177.7v2" class="st35"/>
    </g>
    <g id="XMLID_331_">
      <path d="M314.6 161.9v32.7h-47.3v-34.7h35.3" class="st33"/>
      <path d="M311.6 162.7l3-5.1 3 5.1z" class="st31"/>
    </g>
    <path id="XMLID_114_" d="M304.5 161.8c-1.6-1-1.6-3.3 0-4.3 1.7-1 3.8.2 3.8 2.1 0 2-2.1 3.2-3.8 2.2z" class="st34"/>
    <g>
      <path d="M290.9 171.2v2" class="st35"/>
      <path fill="none" stroke="#fcfcfc" stroke-dasharray="3.309 3.309" stroke-miterlimit="10" stroke-width="1.5" d="M290.9 176.5v11.6"/>
      <path d="M290.9 189.7v2" class="st35"/>
    </g>
    <path d="M267.3 169.1h47.1M272.9 174.5h10.3v10.3h-10.3zM298.1 174.5h10.3v10.3h-10.3zM276.9 165.1h23.5" class="st33"/>
    <g id="XMLID_437_">
      <path d="M196 257.6v32.7h-47.3v-34.6H184" class="st33"/>
      <path d="M193 258.5l3-5.2 3 5.2z" class="st31"/>
    </g>
    <path id="XMLID_61_" d="M186 257.6c-1.6-1-1.6-3.3 0-4.3 1.7-1 3.8.2 3.8 2.1-.1 2-2.2 3.2-3.8 2.2z" class="st34"/>
    <path d="M154.1 276.6h19.2M154.1 282.6h19.2M163.3 261.7l3.2-1.2-.1 3.5 2.2 2.8-3.4 1-1.9 2.9-2-2.9-3.4-1 2.2-2.8-.1-3.5zM184.2 269.5l4-1.4-.2 4.3 2.6 3.3-4 1.3-2.4 3.5-2.5-3.5-4-1.3 2.6-3.3-.2-4.3z" class="st33"/>
  </g>
</svg>
