<svg xmlns="http://www.w3.org/2000/svg" viewBox="0 0 1050 954.92"><defs><style>.cls-1{fill:#fcddd6;}.cls-2{fill:#fbc2ba;}.cls-3{fill:#4c0519;}.cls-10,.cls-11,.cls-12,.cls-4,.cls-5,.cls-6,.cls-7,.cls-8,.cls-9{fill:none;stroke:#4c0519;stroke-miterlimit:10;stroke-width:3px;}.cls-5{stroke-dasharray:6.2 6.2;}.cls-6{stroke-dasharray:4.94 4.94;}.cls-7{stroke-dasharray:6.11 6.11;}.cls-8{stroke-dasharray:6;}.cls-9{stroke-linecap:square;}.cls-10{stroke-dasharray:6.41 6.41;}.cls-11{stroke-dasharray:5.82 5.82;}.cls-12{stroke-dasharray:6.04 6.04;}</style></defs><title>retail-omni-channel-commerce-lrg</title><g id="Layer_3" data-name="Layer 3"><rect class="cls-1" x="372.03" y="-371.63" width="306.34" height="1049.59" transform="translate(678.37 -372.03) rotate(90)"/><rect class="cls-2" x="372.03" y="-47.5" width="306.34" height="1049.59" transform="translate(1002.49 -47.91) rotate(90)"/><rect class="cls-1" x="372.03" y="276.62" width="306.34" height="1049.59" transform="translate(1326.62 276.21) rotate(90)"/></g><g id="Layer_1" data-name="Layer 1"><path class="cls-3" d="M622.7,61a44.4,44.4,0,0,1,7.9-.59c3.78,0,6.55.8,8.36,2.31A8,8,0,0,1,641.73,69a8.54,8.54,0,0,1-2.44,6.42c-2,2.06-5.29,3-8.94,3a14.11,14.11,0,0,1-2.52-.17V88.94H622.7Zm5.13,13.19a10.85,10.85,0,0,0,2.52.21c3.86,0,6.21-1.89,6.21-5.21,0-3.15-2.18-4.83-5.75-4.83a14,14,0,0,0-3,.25Z"/><path class="cls-3" d="M648.57,80.16c.13,3.7,3,5.29,6.31,5.29a15.37,15.37,0,0,0,5.67-.92l.75,3.57a19.33,19.33,0,0,1-7.14,1.26c-6.64,0-10.54-4.07-10.54-10.33,0-5.67,3.44-11,10-11s8.82,5.46,8.82,10a13.08,13.08,0,0,1-.17,2.18Zm9-3.61c.05-1.89-.79-5-4.24-5-3.19,0-4.54,2.9-4.75,5Z"/><path class="cls-3" d="M666.59,75.08c0-2.77,0-4.75-.17-6.6h4.5l.17,3.91h.16A6.11,6.11,0,0,1,676.84,68a5.07,5.07,0,0,1,1.22.13V73a7.42,7.42,0,0,0-1.51-.17,4.55,4.55,0,0,0-4.62,3.91,8.33,8.33,0,0,0-.17,1.59V88.94h-5.17Z"/><path class="cls-3" d="M681.29,84.19a11.46,11.46,0,0,0,5.25,1.47c2.27,0,3.28-.92,3.28-2.26s-.84-2.11-3.36-3c-4-1.38-5.67-3.57-5.63-6,0-3.62,3-6.43,7.73-6.43A12,12,0,0,1,694,69.24l-1,3.65a9.23,9.23,0,0,0-4.33-1.17c-1.85,0-2.85.88-2.85,2.14s1,1.93,3.57,2.86c3.69,1.34,5.42,3.23,5.46,6.26,0,3.69-2.9,6.38-8.32,6.38a13.23,13.23,0,0,1-6.22-1.43Z"/><path class="cls-3" d="M718.51,78.52c0,7.52-5.3,10.88-10.51,10.88-5.79,0-10.25-4-10.25-10.54,0-6.72,4.42-10.84,10.59-10.84S718.51,72.31,718.51,78.52Zm-15.42.21c0,4,1.93,6.93,5.08,6.93,2.94,0,5-2.89,5-7,0-3.19-1.43-6.85-5-6.85S703.09,75.33,703.09,78.73Z"/><path class="cls-3" d="M722.74,74.57c0-2.35,0-4.32-.16-6.09h4.53l.26,3.07h.12A7.37,7.37,0,0,1,734,68c3.57,0,7.27,2.31,7.27,8.78V88.94H736.1V77.39c0-2.94-1.09-5.17-3.9-5.17a4.35,4.35,0,0,0-4,3,5.48,5.48,0,0,0-.21,1.68v12h-5.21Z"/><path class="cls-3" d="M758.28,88.94l-.34-2.27h-.12a7.6,7.6,0,0,1-6.05,2.73,6.07,6.07,0,0,1-6.43-6.09c0-5.17,4.58-7.77,12.14-7.73v-.33c0-1.35-.55-3.57-4.16-3.57a10.84,10.84,0,0,0-5.5,1.51l-1-3.36A14.66,14.66,0,0,1,754.2,68c6.56,0,8.45,4.16,8.45,8.61V84a32.87,32.87,0,0,0,.29,4.91Zm-.67-10c-3.66-.08-7.15.72-7.15,3.83a2.72,2.72,0,0,0,2.95,2.94,4.19,4.19,0,0,0,4-2.82,3.93,3.93,0,0,0,.17-1.13Z"/><path class="cls-3" d="M768.1,59.12h5.21V88.94H768.1Z"/><path class="cls-3" d="M784.4,62.77A2.9,2.9,0,1,1,781.5,60,2.74,2.74,0,0,1,784.4,62.77Zm-5.5,26.17V68.48h5.21V88.94Z"/><path class="cls-3" d="M787.72,86l7.68-9.83c1.05-1.26,1.94-2.27,3-3.45V72.6h-10V68.48h16.26v3.15l-7.52,9.62c-1,1.22-2,2.4-3,3.49v.08H805v4.12H787.72Z"/><path class="cls-3" d="M820.06,88.94l-.34-2.27h-.12a7.6,7.6,0,0,1-6.05,2.73,6.07,6.07,0,0,1-6.43-6.09c0-5.17,4.58-7.77,12.14-7.73v-.33c0-1.35-.55-3.57-4.16-3.57a10.87,10.87,0,0,0-5.5,1.51l-1-3.36A14.66,14.66,0,0,1,816,68c6.56,0,8.45,4.16,8.45,8.61V84a32.87,32.87,0,0,0,.29,4.91Zm-.67-10c-3.66-.08-7.14.72-7.14,3.83a2.71,2.71,0,0,0,2.94,2.94,4.19,4.19,0,0,0,4-2.82,3.61,3.61,0,0,0,.17-1.13Z"/><path class="cls-3" d="M835.56,62.64v5.84h4.91v3.87h-4.91v9c0,2.48.67,3.78,2.64,3.78a8,8,0,0,0,2-.25l.08,4a11.46,11.46,0,0,1-3.74.5,6,6,0,0,1-4.45-1.68c-1.09-1.18-1.59-3-1.59-5.71V72.35h-2.95V68.48h2.95V63.86Z"/><path class="cls-3" d="M849.88,62.77A2.9,2.9,0,1,1,847,60,2.74,2.74,0,0,1,849.88,62.77Zm-5.5,26.17V68.48h5.2V88.94Z"/><path class="cls-3" d="M874.58,78.52c0,7.52-5.3,10.88-10.51,10.88-5.79,0-10.25-4-10.25-10.54,0-6.72,4.42-10.84,10.59-10.84S874.58,72.31,874.58,78.52Zm-15.42.21c0,4,1.93,6.93,5.08,6.93,2.94,0,5-2.89,5-7,0-3.19-1.43-6.85-5-6.85S859.16,75.33,859.16,78.73Z"/><path class="cls-3" d="M878.81,74.57c0-2.35,0-4.32-.16-6.09h4.53l.26,3.07h.12A7.37,7.37,0,0,1,890.07,68c3.57,0,7.27,2.31,7.27,8.78V88.94h-5.17V77.39c0-2.94-1.09-5.17-3.9-5.17a4.35,4.35,0,0,0-4,3,5.48,5.48,0,0,0-.21,1.68v12h-5.21Z"/><path class="cls-3" d="M626.15,123.16c.12,3.7,3,5.29,6.3,5.29a15.37,15.37,0,0,0,5.67-.92l.75,3.57a19.33,19.33,0,0,1-7.14,1.26c-6.63,0-10.54-4.07-10.54-10.33,0-5.67,3.44-11,10-11s8.82,5.46,8.82,10a12.07,12.07,0,0,1-.17,2.18Zm9-3.61c0-1.89-.8-5-4.25-5-3.19,0-4.53,2.9-4.74,5Z"/><path class="cls-3" d="M644.16,117.57c0-2.35,0-4.32-.16-6.09h4.53l.25,3.07h.13a7.37,7.37,0,0,1,6.51-3.53c3.57,0,7.27,2.31,7.27,8.78v12.14h-5.17V120.39c0-2.94-1.09-5.17-3.9-5.17a4.35,4.35,0,0,0-4,3,5.19,5.19,0,0,0-.21,1.68v12h-5.21Z"/><path class="cls-3" d="M686.88,111.48c-.08,1.39-.17,3.07-.17,5.88V129c0,4.28-.88,7.35-3,9.28s-5.08,2.48-7.9,2.48a14.49,14.49,0,0,1-7.14-1.64l1.13-3.91a12.35,12.35,0,0,0,6,1.56c3.36,0,5.88-1.77,5.88-6.18v-1.76h-.08a6.91,6.91,0,0,1-6,3c-5.08,0-8.69-4.2-8.69-10,0-6.72,4.36-10.8,9.28-10.8a6.42,6.42,0,0,1,5.92,3.19h.09l.21-2.73Zm-5.33,8.19a5.22,5.22,0,0,0-.17-1.38,4.3,4.3,0,0,0-4.2-3.32c-2.9,0-5,2.52-5,6.68,0,3.48,1.76,6.3,5,6.3a4.42,4.42,0,0,0,4.21-3.11,9.36,9.36,0,0,0,.21-1.85Z"/><path class="cls-3" d="M697.59,105.77a2.9,2.9,0,1,1-2.9-2.81A2.74,2.74,0,0,1,697.59,105.77Zm-5.5,26.17V111.48h5.2v20.46Z"/><path class="cls-3" d="M702.84,117.57c0-2.35,0-4.32-.17-6.09h4.54l.25,3.07h.12A7.39,7.39,0,0,1,714.1,111c3.57,0,7.26,2.31,7.26,8.78v12.14H716.2V120.39c0-2.94-1.1-5.17-3.91-5.17a4.32,4.32,0,0,0-4,3,5.19,5.19,0,0,0-.21,1.68v12h-5.21Z"/><path class="cls-3" d="M730.52,123.16c.12,3.7,3,5.29,6.3,5.29a15.37,15.37,0,0,0,5.67-.92l.75,3.57a19.33,19.33,0,0,1-7.14,1.26c-6.63,0-10.54-4.07-10.54-10.33,0-5.67,3.44-11,10-11s8.82,5.46,8.82,10a13.08,13.08,0,0,1-.17,2.18Zm9-3.61c0-1.89-.79-5-4.24-5-3.19,0-4.53,2.9-4.74,5Z"/><path class="cls-3" d="M621.51,181a8.65,8.65,0,0,0,4.37,1.23c2.49,0,4-1.31,4-3.22,0-1.76-1-2.77-3.56-3.75-3.08-1.09-5-2.69-5-5.35,0-2.94,2.43-5.12,6.1-5.12a8.65,8.65,0,0,1,4.17.92l-.67,2a7.55,7.55,0,0,0-3.58-.89c-2.58,0-3.56,1.54-3.56,2.82,0,1.77,1.15,2.64,3.75,3.64,3.2,1.24,4.82,2.78,4.82,5.55s-2.16,5.43-6.61,5.43a9.73,9.73,0,0,1-4.81-1.2Z"/><path class="cls-3" d="M637.11,177.61c0,3.33,2.18,4.71,4.65,4.71a9,9,0,0,0,3.75-.7l.42,1.76a11,11,0,0,1-4.51.84c-4.17,0-6.66-2.74-6.66-6.83s2.4-7.31,6.35-7.31c4.43,0,5.6,3.89,5.6,6.38a9,9,0,0,1-.08,1.15Zm7.22-1.76c0-1.57-.64-4-3.41-4-2.5,0-3.59,2.3-3.78,4Z"/><path class="cls-3" d="M652.73,166.5v3.89h3.53v1.87h-3.53v7.31c0,1.68.48,2.63,1.85,2.63A5.8,5.8,0,0,0,656,182l.11,1.84a5.93,5.93,0,0,1-2.18.34,3.41,3.41,0,0,1-2.67-1,5,5,0,0,1-.95-3.52v-7.4h-2.1v-1.87h2.1v-3.25Z"/><path class="cls-3" d="M658.69,181.42a6.44,6.44,0,0,0,3.25,1c1.79,0,2.63-.9,2.63-2s-.7-1.82-2.52-2.49c-2.43-.87-3.58-2.21-3.58-3.83,0-2.19,1.76-4,4.68-4a6.75,6.75,0,0,1,3.33.84l-.62,1.79a5.32,5.32,0,0,0-2.77-.78c-1.46,0-2.27.84-2.27,1.85s.81,1.62,2.58,2.29c2.35.9,3.55,2.07,3.55,4.09,0,2.38-1.84,4.06-5.06,4.06a7.71,7.71,0,0,1-3.81-.92Z"/><path class="cls-3" d="M685.71,183.44a9.16,9.16,0,0,1-3.89.78c-4.09,0-6.75-2.77-6.75-6.92a6.88,6.88,0,0,1,7.28-7.19,8.17,8.17,0,0,1,3.42.7l-.56,1.9a5.79,5.79,0,0,0-2.86-.64c-3.1,0-4.78,2.29-4.78,5.12,0,3.14,2,5.07,4.7,5.07a7,7,0,0,0,3-.67Z"/><path class="cls-3" d="M700.69,177.05c0,5-3.47,7.2-6.74,7.2-3.67,0-6.5-2.69-6.5-7,0-4.54,3-7.2,6.72-7.2S700.69,172.91,700.69,177.05Zm-10.75.14c0,3,1.71,5.21,4.12,5.21s4.11-2.21,4.11-5.26c0-2.3-1.14-5.21-4.06-5.21S689.94,174.62,689.94,177.19Z"/><path class="cls-3" d="M703.8,174.06c0-1.4,0-2.55-.11-3.67h2.18l.14,2.24h.06a5,5,0,0,1,4.48-2.55c1.88,0,4.79,1.12,4.79,5.77v8.09h-2.47v-7.81c0-2.19-.81-4-3.13-4a3.5,3.5,0,0,0-3.31,2.52,3.63,3.63,0,0,0-.16,1.15v8.15H703.8Z"/><path class="cls-3" d="M722.2,166.5v3.89h3.53v1.87H722.2v7.31c0,1.68.47,2.63,1.85,2.63a5.64,5.64,0,0,0,1.42-.16l.12,1.84a6,6,0,0,1-2.19.34,3.39,3.39,0,0,1-2.66-1,5,5,0,0,1-1-3.52v-7.4h-2.1v-1.87h2.1v-3.25Z"/><path class="cls-3" d="M729.7,177.61c.06,3.33,2.19,4.71,4.65,4.71a8.93,8.93,0,0,0,3.75-.7l.42,1.76a11,11,0,0,1-4.51.84c-4.17,0-6.66-2.74-6.66-6.83s2.41-7.31,6.36-7.31c4.42,0,5.6,3.89,5.6,6.38a8.6,8.6,0,0,1-.09,1.15Zm7.23-1.76c0-1.57-.65-4-3.42-4-2.49,0-3.58,2.3-3.78,4Z"/><path class="cls-3" d="M743.42,170.39l1.93,2.91c.51.76.93,1.46,1.38,2.21h.08c.45-.81.9-1.51,1.34-2.24l1.91-2.88h2.66l-4.62,6.55,4.76,7h-2.8l-2-3.05c-.53-.79-1-1.54-1.46-2.35h-.05c-.45.81-.93,1.54-1.43,2.35l-2,3.05h-2.72l4.82-6.92-4.59-6.63Z"/><path class="cls-3" d="M758.57,166.5v3.89h3.53v1.87h-3.53v7.31c0,1.68.48,2.63,1.85,2.63a5.8,5.8,0,0,0,1.43-.16l.11,1.84a6,6,0,0,1-2.19.34,3.4,3.4,0,0,1-2.66-1,5,5,0,0,1-1-3.52v-7.4h-2.1v-1.87h2.1v-3.25Z"/><path class="cls-3" d="M771.06,183.94V172.26h-1.91v-1.87h1.91v-.65a6.38,6.38,0,0,1,1.57-4.73,4.72,4.72,0,0,1,3.3-1.26,5.86,5.86,0,0,1,2.1.39l-.34,1.91a3.59,3.59,0,0,0-1.56-.31c-2.1,0-2.64,1.85-2.64,3.92v.73h3.28v1.87h-3.28v11.68Z"/><path class="cls-3" d="M790.88,177.05c0,5-3.47,7.2-6.75,7.2-3.66,0-6.49-2.69-6.49-7,0-4.54,3-7.2,6.72-7.2S790.88,172.91,790.88,177.05Zm-10.75.14c0,3,1.71,5.21,4.12,5.21s4.11-2.21,4.11-5.26c0-2.3-1.15-5.21-4.06-5.21S780.13,174.62,780.13,177.19Z"/><path class="cls-3" d="M794,174.62c0-1.6,0-3-.11-4.23H796l.09,2.66h.11a4.07,4.07,0,0,1,3.75-3,2.93,2.93,0,0,1,.7.08v2.33a3.37,3.37,0,0,0-4.14,3.08,6.51,6.51,0,0,0-.11,1.15v7.22H794Z"/><path class="cls-3" d="M809.08,174.06c0-1.4,0-2.55-.11-3.67h2.15l.12,2.18h.08a4.68,4.68,0,0,1,4.26-2.49,4,4,0,0,1,3.83,2.72h.06A5.56,5.56,0,0,1,821,171a4.66,4.66,0,0,1,3-.95c1.79,0,4.45,1.18,4.45,5.88v8H826v-7.67c0-2.61-.95-4.17-2.94-4.17a3.18,3.18,0,0,0-2.91,2.24,4.06,4.06,0,0,0-.2,1.23v8.37h-2.41v-8.12c0-2.16-.95-3.72-2.82-3.72a3.64,3.64,0,0,0-3.25,3.66v8.18h-2.41Z"/><path class="cls-3" d="M833.81,177.61c.05,3.33,2.18,4.71,4.64,4.71a8.9,8.9,0,0,0,3.75-.7l.42,1.76a11,11,0,0,1-4.5.84c-4.18,0-6.67-2.74-6.67-6.83s2.41-7.31,6.36-7.31c4.42,0,5.6,3.89,5.6,6.38a11.34,11.34,0,0,1-.08,1.15Zm7.22-1.76c0-1.57-.65-4-3.42-4-2.49,0-3.58,2.3-3.78,4Z"/><path class="cls-3" d="M846.12,181.42a6.44,6.44,0,0,0,3.25,1c1.79,0,2.63-.9,2.63-2s-.7-1.82-2.52-2.49c-2.43-.87-3.58-2.21-3.58-3.83,0-2.19,1.76-4,4.68-4a6.75,6.75,0,0,1,3.33.84l-.62,1.79a5.32,5.32,0,0,0-2.77-.78c-1.46,0-2.27.84-2.27,1.85s.81,1.62,2.58,2.29c2.35.9,3.55,2.07,3.55,4.09,0,2.38-1.84,4.06-5.06,4.06a7.71,7.71,0,0,1-3.81-.92Z"/><path class="cls-3" d="M857.21,181.42a6.44,6.44,0,0,0,3.25,1c1.79,0,2.63-.9,2.63-2s-.7-1.82-2.52-2.49c-2.43-.87-3.58-2.21-3.58-3.83,0-2.19,1.76-4,4.67-4a6.76,6.76,0,0,1,3.34.84l-.62,1.79a5.32,5.32,0,0,0-2.77-.78c-1.46,0-2.27.84-2.27,1.85s.81,1.62,2.58,2.29c2.35.9,3.55,2.07,3.55,4.09,0,2.38-1.85,4.06-5.07,4.06a7.7,7.7,0,0,1-3.8-.92Z"/><path class="cls-3" d="M876.14,183.94l-.2-1.71h-.08a5,5,0,0,1-4.14,2,3.86,3.86,0,0,1-4.15-3.89c0-3.28,2.91-5.07,8.15-5V175a2.8,2.8,0,0,0-3.08-3.14,6.72,6.72,0,0,0-3.53,1l-.56-1.63a8.5,8.5,0,0,1,4.45-1.2c4.15,0,5.16,2.83,5.16,5.54v5.07a18.87,18.87,0,0,0,.22,3.25Zm-.36-6.92c-2.69-.05-5.74.42-5.74,3.06a2.18,2.18,0,0,0,2.32,2.35,3.39,3.39,0,0,0,3.28-2.27,2.67,2.67,0,0,0,.14-.78Z"/><path class="cls-3" d="M893.81,170.39c-.06,1-.11,2.07-.11,3.72V182c0,3.11-.62,5-1.94,6.19a7.17,7.17,0,0,1-4.92,1.62,8.71,8.71,0,0,1-4.51-1.12l.61-1.87a7.67,7.67,0,0,0,4,1.06c2.52,0,4.37-1.32,4.37-4.73v-1.51h-.06a4.82,4.82,0,0,1-4.31,2.26c-3.36,0-5.77-2.85-5.77-6.6,0-4.6,3-7.2,6.11-7.2a4.49,4.49,0,0,1,4.22,2.35h.06l.11-2Zm-2.55,5.35a3.61,3.61,0,0,0-3.58-3.73c-2.36,0-4,2-4,5.13,0,2.66,1.35,4.87,4,4.87a3.59,3.59,0,0,0,3.41-2.52,4.32,4.32,0,0,0,.2-1.32Z"/><path class="cls-3" d="M900.36,166.58a1.53,1.53,0,0,1-3.05,0,1.5,1.5,0,0,1,1.54-1.54A1.46,1.46,0,0,1,900.36,166.58Zm-2.74,17.36V170.39h2.46v13.55Z"/><path class="cls-3" d="M904.17,174.06c0-1.4,0-2.55-.11-3.67h2.18l.14,2.24h.06a5,5,0,0,1,4.48-2.55c1.87,0,4.78,1.12,4.78,5.77v8.09h-2.46v-7.81c0-2.19-.81-4-3.14-4a3.5,3.5,0,0,0-3.3,2.52,3.62,3.62,0,0,0-.17,1.15v8.15h-2.46Z"/><path class="cls-3" d="M931.38,170.39c0,1-.11,2.07-.11,3.72V182c0,3.11-.61,5-1.93,6.19a7.2,7.2,0,0,1-4.93,1.62,8.77,8.77,0,0,1-4.51-1.12l.62-1.87a7.67,7.67,0,0,0,4,1.06c2.52,0,4.36-1.32,4.36-4.73v-1.51h-.05a4.83,4.83,0,0,1-4.31,2.26c-3.36,0-5.77-2.85-5.77-6.6,0-4.6,3-7.2,6.1-7.2a4.51,4.51,0,0,1,4.23,2.35h.06l.11-2Zm-2.54,5.35a3.61,3.61,0,0,0-3.59-3.73c-2.35,0-4,2-4,5.13,0,2.66,1.34,4.87,4,4.87a3.6,3.6,0,0,0,3.42-2.52,4.32,4.32,0,0,0,.2-1.32Z"/><path class="cls-3" d="M621.65,219.94c.06-.92.11-2.3.11-3.5V200.06h2.44v8.51h.06a5,5,0,0,1,4.62-2.49c3.36,0,5.74,2.8,5.71,6.92,0,4.84-3.05,7.25-6.08,7.25A4.82,4.82,0,0,1,624,217.7h-.09l-.11,2.24Zm2.55-5.43a5,5,0,0,0,.11.89,3.81,3.81,0,0,0,3.7,2.89c2.57,0,4.11-2.1,4.11-5.21,0-2.72-1.4-5-4-5a3.93,3.93,0,0,0-3.75,3,4.64,4.64,0,0,0-.14,1Z"/><path class="cls-3" d="M638.4,206.39l3,8c.31.89.65,2,.87,2.77h.06c.25-.81.53-1.85.87-2.83l2.68-8h2.61l-3.7,9.66c-1.76,4.65-3,7-4.65,8.48a6.57,6.57,0,0,1-3,1.6l-.62-2.07a6.54,6.54,0,0,0,2.16-1.21,7.45,7.45,0,0,0,2.07-2.74,1.84,1.84,0,0,0,.2-.59,2.16,2.16,0,0,0-.17-.64l-5-12.49Z"/><path class="cls-3" d="M668.33,200.06v16.38c0,1.2,0,2.58.11,3.5h-2.21l-.12-2.35h-.05a5,5,0,0,1-4.62,2.66c-3.28,0-5.8-2.77-5.8-6.89,0-4.51,2.77-7.28,6.08-7.28a4.55,4.55,0,0,1,4.09,2.07h.05v-8.09Zm-2.47,11.84a4.57,4.57,0,0,0-.11-1,3.62,3.62,0,0,0-3.56-2.86c-2.54,0-4.06,2.24-4.06,5.24,0,2.74,1.35,5,4,5a3.7,3.7,0,0,0,3.61-2.94,4.48,4.48,0,0,0,.11-1.06Z"/><path class="cls-3" d="M675.16,202.58a1.53,1.53,0,0,1-3,0,1.5,1.5,0,0,1,1.54-1.54A1.46,1.46,0,0,1,675.16,202.58Zm-2.75,17.36V206.39h2.47v13.55Z"/><path class="cls-3" d="M678.63,217.42a6.44,6.44,0,0,0,3.25,1c1.79,0,2.63-.9,2.63-2s-.7-1.82-2.52-2.49c-2.44-.87-3.58-2.21-3.58-3.83,0-2.19,1.76-4,4.67-4a6.72,6.72,0,0,1,3.33.84l-.61,1.79a5.32,5.32,0,0,0-2.77-.78c-1.46,0-2.27.84-2.27,1.85s.81,1.62,2.57,2.29c2.36.9,3.56,2.07,3.56,4.09,0,2.38-1.85,4.06-5.07,4.06a7.77,7.77,0,0,1-3.81-.92Z"/><path class="cls-3" d="M693,202.5v3.89h3.53v1.87H693v7.31c0,1.68.48,2.63,1.85,2.63a5.8,5.8,0,0,0,1.43-.16l.11,1.84a5.93,5.93,0,0,1-2.18.34,3.38,3.38,0,0,1-2.66-1,5,5,0,0,1-1-3.52v-7.4h-2.1v-1.87h2.1v-3.25Z"/><path class="cls-3" d="M702.07,202.58a1.53,1.53,0,0,1-3.06,0,1.5,1.5,0,0,1,1.54-1.54A1.46,1.46,0,0,1,702.07,202.58Zm-2.75,17.36V206.39h2.47v13.55Z"/><path class="cls-3" d="M705.87,200.06h2.47v19.88h-2.47Z"/><path class="cls-3" d="M712.48,200.06H715v19.88h-2.47Z"/><path class="cls-3" d="M721.83,202.58a1.45,1.45,0,0,1-1.56,1.51,1.47,1.47,0,0,1-1.49-1.51,1.5,1.5,0,0,1,1.54-1.54A1.46,1.46,0,0,1,721.83,202.58Zm-2.74,17.36V206.39h2.46v13.55Z"/><path class="cls-3" d="M725.64,210.06c0-1.4,0-2.55-.11-3.67h2.18l.14,2.24h.06a5,5,0,0,1,4.48-2.55c1.88,0,4.79,1.12,4.79,5.77v8.09h-2.47v-7.81c0-2.19-.81-4-3.13-4a3.5,3.5,0,0,0-3.31,2.52,3.63,3.63,0,0,0-.16,1.15v8.15h-2.47Z"/><path class="cls-3" d="M752.86,206.39c-.06,1-.11,2.07-.11,3.72V218c0,3.11-.62,5-1.94,6.19a7.17,7.17,0,0,1-4.92,1.62,8.71,8.71,0,0,1-4.51-1.12l.61-1.87a7.67,7.67,0,0,0,4,1.06c2.52,0,4.37-1.32,4.37-4.73v-1.51h-.06a4.82,4.82,0,0,1-4.31,2.26c-3.36,0-5.77-2.85-5.77-6.6,0-4.6,3-7.2,6.11-7.2a4.49,4.49,0,0,1,4.22,2.35h.06l.11-2Zm-2.55,5.35a3.61,3.61,0,0,0-3.58-3.73c-2.36,0-4,2-4,5.13,0,2.66,1.35,4.87,4,4.87a3.59,3.59,0,0,0,3.41-2.52,4.32,4.32,0,0,0,.2-1.32Z"/><path class="cls-3" d="M763,219.94V208.26h-1.9v-1.87H763v-.65a6.38,6.38,0,0,1,1.57-4.73,4.72,4.72,0,0,1,3.3-1.26,5.81,5.81,0,0,1,2.1.39l-.33,1.91a3.68,3.68,0,0,0-1.57-.31c-2.1,0-2.63,1.85-2.63,3.92v.73h3.27v1.87h-3.27v11.68Z"/><path class="cls-3" d="M772,213.61c.06,3.33,2.19,4.71,4.65,4.71a8.93,8.93,0,0,0,3.75-.7l.42,1.76a11,11,0,0,1-4.51.84c-4.17,0-6.66-2.74-6.66-6.83s2.41-7.31,6.36-7.31c4.42,0,5.6,3.89,5.6,6.38a8.6,8.6,0,0,1-.09,1.15Zm7.23-1.76c0-1.57-.65-4-3.42-4-2.49,0-3.58,2.3-3.78,4Z"/><path class="cls-3" d="M786,213.61c.06,3.33,2.18,4.71,4.65,4.71a8.93,8.93,0,0,0,3.75-.7l.42,1.76a11,11,0,0,1-4.51.84c-4.17,0-6.66-2.74-6.66-6.83s2.41-7.31,6.35-7.31c4.43,0,5.6,3.89,5.6,6.38a9,9,0,0,1-.08,1.15Zm7.22-1.76c0-1.57-.64-4-3.41-4-2.49,0-3.59,2.3-3.78,4Z"/><path class="cls-3" d="M810.34,200.06v16.38c0,1.2,0,2.58.11,3.5h-2.21l-.11-2.35h-.06a5,5,0,0,1-4.62,2.66c-3.27,0-5.79-2.77-5.79-6.89,0-4.51,2.77-7.28,6.07-7.28a4.55,4.55,0,0,1,4.09,2.07h.06v-8.09Zm-2.46,11.84a4.08,4.08,0,0,0-.12-1,3.61,3.61,0,0,0-3.55-2.86c-2.55,0-4.06,2.24-4.06,5.24,0,2.74,1.34,5,4,5a3.7,3.7,0,0,0,3.61-2.94,4,4,0,0,0,.12-1.06Z"/><path class="cls-3" d="M814.32,219.94c0-.92.11-2.3.11-3.5V200.06h2.43v8.51h.06a5.06,5.06,0,0,1,4.62-2.49c3.36,0,5.74,2.8,5.71,6.92,0,4.84-3,7.25-6.07,7.25a4.84,4.84,0,0,1-4.54-2.55h-.08l-.12,2.24Zm2.54-5.43a4.25,4.25,0,0,0,.12.89,3.79,3.79,0,0,0,3.69,2.89c2.58,0,4.12-2.1,4.12-5.21,0-2.72-1.4-5-4-5a4,4,0,0,0-3.76,3,5.34,5.34,0,0,0-.14,1Z"/><path class="cls-3" d="M837.86,219.94l-.19-1.71h-.09a5,5,0,0,1-4.14,2,3.86,3.86,0,0,1-4.14-3.89c0-3.28,2.91-5.07,8.14-5V211a2.79,2.79,0,0,0-3.08-3.14,6.68,6.68,0,0,0-3.52,1l-.56-1.63a8.47,8.47,0,0,1,4.45-1.2c4.14,0,5.15,2.83,5.15,5.54v5.07a19.93,19.93,0,0,0,.22,3.25ZM837.5,213c-2.69-.05-5.74.42-5.74,3.06a2.18,2.18,0,0,0,2.32,2.35,3.37,3.37,0,0,0,3.28-2.27,2.67,2.67,0,0,0,.14-.78Z"/><path class="cls-3" d="M853.52,219.44a9.25,9.25,0,0,1-3.9.78c-4.08,0-6.74-2.77-6.74-6.92a6.88,6.88,0,0,1,7.28-7.19,8.16,8.16,0,0,1,3.41.7l-.56,1.9a5.78,5.78,0,0,0-2.85-.64c-3.11,0-4.79,2.29-4.79,5.12,0,3.14,2,5.07,4.7,5.07a7,7,0,0,0,3-.67Z"/><path class="cls-3" d="M858.84,212.6h0c.34-.47.81-1.06,1.21-1.54l4-4.67h3L861.8,212l6,8h-3l-4.67-6.5-1.26,1.4v5.1H856.4V200.06h2.44Z"/><path class="cls-3" d="M622,255.94V244.26h-1.91v-1.87H622v-.65a6.42,6.42,0,0,1,1.56-4.73,4.76,4.76,0,0,1,3.31-1.26,5.86,5.86,0,0,1,2.1.39l-.34,1.91a3.64,3.64,0,0,0-1.57-.31c-2.1,0-2.63,1.85-2.63,3.92v.73h3.28v1.87h-3.28v11.68Z"/><path class="cls-3" d="M629.94,246.62c0-1.6,0-3-.11-4.23H632l.09,2.66h.11a4.07,4.07,0,0,1,3.75-3,2.93,2.93,0,0,1,.7.08v2.33a3.37,3.37,0,0,0-4.14,3.08,6.51,6.51,0,0,0-.11,1.15v7.22h-2.44Z"/><path class="cls-3" d="M651.08,249.05c0,5-3.47,7.2-6.75,7.2-3.67,0-6.49-2.69-6.49-7,0-4.54,3-7.2,6.72-7.2S651.08,244.91,651.08,249.05Zm-10.75.14c0,3,1.71,5.21,4.11,5.21s4.12-2.21,4.12-5.26c0-2.3-1.15-5.21-4.06-5.21S640.33,246.62,640.33,249.19Z"/><path class="cls-3" d="M654.19,246.06c0-1.4,0-2.55-.11-3.67h2.15l.11,2.18h.09a4.65,4.65,0,0,1,4.25-2.49,4,4,0,0,1,3.84,2.72h.06a5.56,5.56,0,0,1,1.51-1.77,4.65,4.65,0,0,1,3-.95c1.8,0,4.46,1.18,4.46,5.88v8h-2.41v-7.67c0-2.61-1-4.17-2.94-4.17a3.18,3.18,0,0,0-2.91,2.24,3.77,3.77,0,0,0-.2,1.23v8.37h-2.41v-8.12c0-2.16-.95-3.72-2.83-3.72a3.64,3.64,0,0,0-3.24,3.66v8.18h-2.41Z"/><path class="cls-3" d="M693.13,255.44a9.16,9.16,0,0,1-3.89.78c-4.09,0-6.75-2.77-6.75-6.92a6.88,6.88,0,0,1,7.28-7.19,8.17,8.17,0,0,1,3.42.7l-.56,1.9a5.79,5.79,0,0,0-2.86-.64c-3.1,0-4.78,2.29-4.78,5.12,0,3.14,2,5.07,4.7,5.07a7,7,0,0,0,3-.67Z"/><path class="cls-3" d="M703.52,255.94l-.19-1.71h-.09a5,5,0,0,1-4.14,2,3.86,3.86,0,0,1-4.15-3.89c0-3.28,2.92-5.07,8.15-5V247A2.8,2.8,0,0,0,700,243.9a6.75,6.75,0,0,0-3.53,1l-.56-1.63a8.53,8.53,0,0,1,4.46-1.2c4.14,0,5.15,2.83,5.15,5.54v5.07a18.87,18.87,0,0,0,.22,3.25Zm-.36-6.92c-2.69-.05-5.74.42-5.74,3.06a2.18,2.18,0,0,0,2.32,2.35,3.37,3.37,0,0,0,3.28-2.27,2.67,2.67,0,0,0,.14-.78Z"/><path class="cls-3" d="M709.51,246.06c0-1.4,0-2.55-.11-3.67h2.16l.11,2.18h.08a4.68,4.68,0,0,1,4.26-2.49,4,4,0,0,1,3.84,2.72h0a5.56,5.56,0,0,1,1.51-1.77,4.68,4.68,0,0,1,3-.95c1.79,0,4.45,1.18,4.45,5.88v8h-2.41v-7.67c0-2.61-1-4.17-2.94-4.17a3.18,3.18,0,0,0-2.91,2.24,4.07,4.07,0,0,0-.19,1.23v8.37H718v-8.12c0-2.16-1-3.72-2.83-3.72a3.68,3.68,0,0,0-3.25,3.66v8.18h-2.41Z"/><path class="cls-3" d="M732.87,246.81c0-1.73-.06-3.13-.12-4.42H735l.11,2.32h0a5.34,5.34,0,0,1,4.82-2.63c3.28,0,5.74,2.77,5.74,6.89,0,4.87-3,7.28-6.16,7.28a4.76,4.76,0,0,1-4.17-2.13h-.06v7.36h-2.43Zm2.43,3.61a6.12,6.12,0,0,0,.11,1,3.81,3.81,0,0,0,3.7,2.89c2.6,0,4.12-2.13,4.12-5.24,0-2.72-1.43-5-4-5a3.93,3.93,0,0,0-3.72,3.05,4.18,4.18,0,0,0-.17,1Z"/><path class="cls-3" d="M756.3,255.94l-.19-1.71H756a5,5,0,0,1-4.14,2,3.86,3.86,0,0,1-4.15-3.89c0-3.28,2.92-5.07,8.15-5V247a2.8,2.8,0,0,0-3.08-3.14,6.75,6.75,0,0,0-3.53,1l-.56-1.63a8.51,8.51,0,0,1,4.46-1.2c4.14,0,5.15,2.83,5.15,5.54v5.07a18.87,18.87,0,0,0,.22,3.25Zm-.36-6.92c-2.69-.05-5.74.42-5.74,3.06a2.18,2.18,0,0,0,2.32,2.35,3.37,3.37,0,0,0,3.28-2.27,2.67,2.67,0,0,0,.14-.78Z"/><path class="cls-3" d="M765,238.58a1.53,1.53,0,0,1-3,0,1.5,1.5,0,0,1,1.54-1.54A1.46,1.46,0,0,1,765,238.58Zm-2.75,17.36V242.39h2.47v13.55Z"/><path class="cls-3" d="M780.52,242.39c0,1-.11,2.07-.11,3.72V254c0,3.11-.62,5-1.93,6.19a7.2,7.2,0,0,1-4.93,1.62,8.74,8.74,0,0,1-4.51-1.12l.62-1.87a7.6,7.6,0,0,0,4,1.06c2.52,0,4.37-1.32,4.37-4.73v-1.51h0a4.85,4.85,0,0,1-4.32,2.26c-3.36,0-5.76-2.85-5.76-6.6,0-4.6,3-7.2,6.1-7.2a4.51,4.51,0,0,1,4.23,2.35h0l.12-2ZM778,247.74a3.28,3.28,0,0,0-.14-1.12,3.54,3.54,0,0,0-3.44-2.61c-2.35,0-4,2-4,5.13,0,2.66,1.34,4.87,4,4.87a3.6,3.6,0,0,0,3.42-2.52,4.3,4.3,0,0,0,.19-1.32Z"/><path class="cls-3" d="M784.33,246.06c0-1.4,0-2.55-.11-3.67h2.18l.14,2.24h.06a5,5,0,0,1,4.48-2.55c1.87,0,4.79,1.12,4.79,5.77v8.09H793.4v-7.81c0-2.19-.81-4-3.13-4a3.5,3.5,0,0,0-3.31,2.52,3.62,3.62,0,0,0-.17,1.15v8.15h-2.46Z"/><path class="cls-3" d="M799.53,253.42a6.44,6.44,0,0,0,3.25,1c1.79,0,2.63-.9,2.63-2s-.7-1.82-2.52-2.49c-2.43-.87-3.58-2.21-3.58-3.83,0-2.19,1.76-4,4.68-4a6.75,6.75,0,0,1,3.33.84l-.62,1.79a5.32,5.32,0,0,0-2.77-.78c-1.46,0-2.27.84-2.27,1.85s.81,1.62,2.58,2.29c2.35.9,3.55,2.07,3.55,4.09,0,2.38-1.84,4.06-5.06,4.06a7.71,7.71,0,0,1-3.81-.92Z"/><path class="cls-3" d="M622.7,383.75a44.4,44.4,0,0,1,7.9-.59c3.78,0,6.55.8,8.36,2.31a8,8,0,0,1,2.77,6.26,8.58,8.58,0,0,1-2.44,6.43c-2,2-5.29,3-8.94,3a14.11,14.11,0,0,1-2.52-.17v10.67H622.7Zm5.13,13.19a10.32,10.32,0,0,0,2.52.21c3.86,0,6.21-1.89,6.21-5.21,0-3.15-2.18-4.83-5.75-4.83a14,14,0,0,0-3,.25Z"/><path class="cls-3" d="M645.47,397.82c0-2.77-.05-4.75-.17-6.6h4.49l.17,3.91h.17a6.1,6.1,0,0,1,5.59-4.37,5,5,0,0,1,1.21.13v4.87a7.42,7.42,0,0,0-1.51-.17,4.55,4.55,0,0,0-4.62,3.91,9.24,9.24,0,0,0-.17,1.6v10.58h-5.16Z"/><path class="cls-3" d="M663.69,402.9c.13,3.7,3,5.3,6.31,5.3a15.36,15.36,0,0,0,5.67-.93l.75,3.57a19.12,19.12,0,0,1-7.14,1.26c-6.64,0-10.54-4.07-10.54-10.33,0-5.67,3.44-11,10-11s8.82,5.46,8.82,10a13.08,13.08,0,0,1-.17,2.18Zm9-3.61c.05-1.89-.79-5-4.24-5-3.19,0-4.54,2.9-4.75,5Z"/><path class="cls-3" d="M705.44,411.05a14.81,14.81,0,0,1-5.79,1.05c-6.39,0-10.55-4.07-10.55-10.42,0-6.13,4.2-10.92,11.39-10.92a12.84,12.84,0,0,1,5,1l-.93,3.86a9.26,9.26,0,0,0-3.91-.79c-3.94,0-6.3,2.89-6.25,6.63,0,4.2,2.73,6.6,6.25,6.6a10.12,10.12,0,0,0,4.08-.8Z"/><path class="cls-3" d="M728.33,401.26c0,7.52-5.29,10.88-10.5,10.88-5.79,0-10.25-4-10.25-10.54,0-6.72,4.41-10.84,10.59-10.84S728.33,395.05,728.33,401.26Zm-15.41.21c0,3.95,1.93,6.94,5.08,6.94,2.94,0,5-2.9,5-7,0-3.19-1.43-6.85-5-6.85S712.92,398.07,712.92,401.47Z"/><path class="cls-3" d="M732.57,397.32c0-2.36,0-4.33-.17-6.1h4.54l.25,3.07h.13a7.39,7.39,0,0,1,6.51-3.53c3.57,0,7.27,2.31,7.27,8.78v12.14h-5.17V400.13c0-2.94-1.09-5.17-3.91-5.17a4.34,4.34,0,0,0-4,3,5.19,5.19,0,0,0-.21,1.68v12h-5.21Z"/><path class="cls-3" d="M757.18,411.68V395.09h-2.77v-3.87h2.77v-1c0-5.5,3.83-8.86,9.92-8.86a12.1,12.1,0,0,1,5.63,1.3l-1.14,3.9a9.42,9.42,0,0,0-4.49-1.09c-3.61,0-4.79,2.19-4.79,4.87v.84h12.22v20.46h-5.21V395.09h-7v16.59Z"/><path class="cls-3" d="M798.77,391.22c-.09,1.39-.17,3.07-.17,5.89V408.7c0,4.28-.88,7.35-3,9.28a11.75,11.75,0,0,1-7.89,2.48,14.36,14.36,0,0,1-7.14-1.64l1.13-3.9a12.43,12.43,0,0,0,6,1.55c3.36,0,5.88-1.76,5.88-6.17v-1.77h-.09a6.88,6.88,0,0,1-6,3c-5.09,0-8.7-4.2-8.7-10,0-6.72,4.37-10.8,9.29-10.8A6.45,6.45,0,0,1,794,394h.08l.21-2.74Zm-5.34,8.2a4.86,4.86,0,0,0-.17-1.39,4.28,4.28,0,0,0-4.2-3.32c-2.89,0-5,2.52-5,6.68,0,3.49,1.77,6.3,5,6.3a4.41,4.41,0,0,0,4.2-3.11,8.58,8.58,0,0,0,.21-1.84Z"/><path class="cls-3" d="M822.46,405.55c0,2.44.08,4.45.16,6.13h-4.53l-.26-3.11h-.08a7.39,7.39,0,0,1-6.55,3.57c-3.74,0-7.14-2.22-7.14-8.9v-12h5.16v11.14c0,3.4,1.1,5.58,3.83,5.58a4.35,4.35,0,0,0,3.94-2.77,4.64,4.64,0,0,0,.3-1.59V391.22h5.17Z"/><path class="cls-3" d="M828,397.82c0-2.77,0-4.75-.17-6.6h4.49l.17,3.91h.17a6.1,6.1,0,0,1,5.59-4.37,5.13,5.13,0,0,1,1.22.13v4.87a7.53,7.53,0,0,0-1.52-.17,4.55,4.55,0,0,0-4.62,3.91,9.24,9.24,0,0,0-.17,1.6v10.58H828Z"/><path class="cls-3" d="M846.27,402.9c.12,3.7,3,5.3,6.3,5.3a15.36,15.36,0,0,0,5.67-.93l.75,3.57a19.12,19.12,0,0,1-7.14,1.26c-6.63,0-10.54-4.07-10.54-10.33,0-5.67,3.44-11,10-11s8.82,5.46,8.82,10a13.08,13.08,0,0,1-.17,2.18Zm9-3.61c0-1.89-.8-5-4.25-5-3.19,0-4.53,2.9-4.74,5Z"/><path class="cls-3" d="M883.14,381.86v24.07c0,2.1.09,4.37.17,5.75h-4.62l-.21-3.23h-.08a7.36,7.36,0,0,1-6.68,3.69c-4.87,0-8.74-4.15-8.74-10.46,0-6.84,4.24-10.92,9.16-10.92,2.81,0,4.83,1.18,5.75,2.69H878V381.86ZM878,399.75a6.76,6.76,0,0,0-.13-1.34,4.52,4.52,0,0,0-4.45-3.66c-3.32,0-5.17,2.94-5.17,6.77s1.85,6.47,5.13,6.47a4.55,4.55,0,0,0,4.45-3.66,5.55,5.55,0,0,0,.17-1.51Z"/><path class="cls-3" d="M641.94,444.26c0,7.52-5.29,10.88-10.5,10.88-5.8,0-10.25-4-10.25-10.54,0-6.72,4.41-10.84,10.59-10.84S641.94,438.05,641.94,444.26Zm-15.42.21c0,3.95,1.94,6.94,5.09,6.94,2.94,0,5-2.9,5-7,0-3.19-1.43-6.85-5-6.85S626.52,441.07,626.52,444.47Z"/><path class="cls-3" d="M646.18,440.32c0-2.36,0-4.33-.17-6.1h4.45l.21,3h.13a7.08,7.08,0,0,1,6.3-3.49,5.9,5.9,0,0,1,5.67,3.78h.09a7.72,7.72,0,0,1,2.52-2.56,6.79,6.79,0,0,1,4.11-1.22c3.41,0,6.85,2.31,6.85,8.87v12.05h-5v-11.3c0-3.4-1.18-5.42-3.65-5.42a4,4,0,0,0-3.62,2.73,7.84,7.84,0,0,0-.25,1.73v12.26h-5V442.84c0-2.86-1.13-4.88-3.53-4.88a4.06,4.06,0,0,0-3.7,2.94,4.47,4.47,0,0,0-.29,1.68v12.1h-5Z"/><path class="cls-3" d="M681.8,440.32c0-2.36,0-4.33-.17-6.1h4.53l.26,3.07h.12a7.39,7.39,0,0,1,6.51-3.53c3.57,0,7.27,2.31,7.27,8.78v12.14h-5.17V443.13c0-2.94-1.09-5.17-3.9-5.17a4.35,4.35,0,0,0-4,3,5.48,5.48,0,0,0-.21,1.68v12h-5.2Z"/><path class="cls-3" d="M711.32,428.51a2.9,2.9,0,1,1-2.9-2.81A2.73,2.73,0,0,1,711.32,428.51Zm-5.5,26.17V434.22H711v20.46Z"/><path class="cls-3" d="M740.3,454.05a14.81,14.81,0,0,1-5.79,1.05c-6.39,0-10.55-4.07-10.55-10.42,0-6.13,4.2-10.92,11.39-10.92a12.84,12.84,0,0,1,5,1l-.93,3.86a9.26,9.26,0,0,0-3.91-.79c-3.94,0-6.3,2.89-6.25,6.63,0,4.2,2.73,6.6,6.25,6.6a10.12,10.12,0,0,0,4.08-.8Z"/><path class="cls-3" d="M744.12,424.86h5.21V437h.08a7.45,7.45,0,0,1,6.1-3.28c3.48,0,7.14,2.31,7.14,8.87v12.05h-5.17V443.21c0-3-1.09-5.2-4-5.2a4.22,4.22,0,0,0-4,2.89,4.34,4.34,0,0,0-.21,1.56v12.22h-5.21Z"/><path class="cls-3" d="M779.66,454.68l-.34-2.27h-.13a7.58,7.58,0,0,1-6.05,2.73,6.07,6.07,0,0,1-6.42-6.09c0-5.16,4.58-7.77,12.14-7.73V441c0-1.35-.55-3.57-4.16-3.57a10.82,10.82,0,0,0-5.5,1.51l-1-3.36a14.76,14.76,0,0,1,7.39-1.81c6.55,0,8.44,4.16,8.44,8.61v7.4a32.64,32.64,0,0,0,.3,4.91Zm-.68-10c-3.65-.08-7.14.72-7.14,3.83a2.71,2.71,0,0,0,2.94,2.94,4.21,4.21,0,0,0,4-2.82,3.85,3.85,0,0,0,.16-1.13Z"/><path class="cls-3" d="M789.48,440.32c0-2.36,0-4.33-.17-6.1h4.54l.25,3.07h.13a7.39,7.39,0,0,1,6.51-3.53c3.57,0,7.27,2.31,7.27,8.78v12.14h-5.17V443.13c0-2.94-1.09-5.17-3.91-5.17a4.33,4.33,0,0,0-4,3,5.19,5.19,0,0,0-.21,1.68v12h-5.21Z"/><path class="cls-3" d="M813.5,440.32c0-2.36,0-4.33-.16-6.1h4.53l.26,3.07h.12a7.39,7.39,0,0,1,6.51-3.53c3.57,0,7.27,2.31,7.27,8.78v12.14h-5.17V443.13c0-2.94-1.09-5.17-3.9-5.17a4.35,4.35,0,0,0-4,3,5.48,5.48,0,0,0-.21,1.68v12H813.5Z"/><path class="cls-3" d="M841.18,445.9c.13,3.7,3,5.3,6.3,5.3a15.38,15.38,0,0,0,5.68-.93l.75,3.57a19.12,19.12,0,0,1-7.14,1.26c-6.64,0-10.54-4.07-10.54-10.33,0-5.67,3.44-11,10-11s8.83,5.46,8.83,10a13.08,13.08,0,0,1-.17,2.18Zm9-3.61c0-1.89-.8-5-4.24-5-3.19,0-4.54,2.9-4.75,5Z"/><path class="cls-3" d="M859.2,424.86h5.21v29.82H859.2Z"/><path class="cls-3" d="M878.69,424.86h5.21V437H884a6.92,6.92,0,0,1,2.56-2.35,7,7,0,0,1,3.53-.93c3.49,0,7.14,2.31,7.14,8.87v12.05h-5.16V443.21c0-3-1.1-5.2-3.95-5.2a4.2,4.2,0,0,0-4,2.89,4.34,4.34,0,0,0-.21,1.56v12.22h-5.21Z"/><path class="cls-3" d="M921,448.55c0,2.44.08,4.45.16,6.13h-4.53l-.25-3.11h-.09a7.39,7.39,0,0,1-6.55,3.57c-3.74,0-7.14-2.22-7.14-8.9v-12h5.16v11.14c0,3.4,1.1,5.58,3.83,5.58a4.37,4.37,0,0,0,4-2.77,4.89,4.89,0,0,0,.29-1.59V434.22H921Z"/><path class="cls-3" d="M926.44,454.68c.08-1.38.17-3.65.17-5.75V424.86h5.17V437h.08a7.41,7.41,0,0,1,6.55-3.28c5,0,8.57,4.16,8.53,10.38,0,7.35-4.66,11-9.28,11a7,7,0,0,1-6.47-3.52h-.09l-.25,3.06Zm5.34-8.44a6,6,0,0,0,.12,1.22,4.76,4.76,0,0,0,4.58,3.61c3.23,0,5.21-2.6,5.21-6.72,0-3.61-1.72-6.55-5.17-6.55a4.84,4.84,0,0,0-4.58,3.78,6.39,6.39,0,0,0-.16,1.34Z"/><path class="cls-3" d="M624.9,500.75l-2,5.93h-2.52l6.41-18.87h2.94l6.44,18.87h-2.6l-2-5.93Zm6.19-1.91-1.85-5.43c-.42-1.23-.7-2.35-1-3.44h-.06c-.28,1.12-.58,2.26-1,3.41l-1.85,5.46Z"/><path class="cls-3" d="M648.22,506.18a9.16,9.16,0,0,1-3.89.78c-4.09,0-6.75-2.77-6.75-6.91a6.89,6.89,0,0,1,7.28-7.2,8.17,8.17,0,0,1,3.42.7l-.56,1.91a5.67,5.67,0,0,0-2.86-.65c-3.1,0-4.78,2.3-4.78,5.12,0,3.14,2,5.07,4.7,5.07a7,7,0,0,0,3-.67Z"/><path class="cls-3" d="M660.6,506.18a9.16,9.16,0,0,1-3.89.78c-4.09,0-6.75-2.77-6.75-6.91a6.89,6.89,0,0,1,7.28-7.2,8.21,8.21,0,0,1,3.42.7l-.56,1.91a5.7,5.7,0,0,0-2.86-.65c-3.11,0-4.79,2.3-4.79,5.12,0,3.14,2,5.07,4.71,5.07a7,7,0,0,0,3-.67Z"/><path class="cls-3" d="M664.69,500.35c0,3.34,2.18,4.71,4.65,4.71a9,9,0,0,0,3.75-.7l.42,1.76A11,11,0,0,1,669,507c-4.17,0-6.66-2.74-6.66-6.83s2.4-7.31,6.35-7.31c4.43,0,5.6,3.89,5.6,6.39a9,9,0,0,1-.08,1.14Zm7.22-1.76c0-1.57-.64-4-3.41-4-2.5,0-3.59,2.29-3.78,4Z"/><path class="cls-3" d="M677.34,486.8h2.47v19.88h-2.47Z"/><path class="cls-3" d="M685.32,500.35c.06,3.34,2.19,4.71,4.65,4.71a8.9,8.9,0,0,0,3.75-.7l.42,1.76a11,11,0,0,1-4.5.84c-4.18,0-6.67-2.74-6.67-6.83s2.41-7.31,6.36-7.31c4.42,0,5.6,3.89,5.6,6.39a8.57,8.57,0,0,1-.09,1.14Zm7.23-1.76c0-1.57-.65-4-3.42-4-2.49,0-3.58,2.29-3.78,4Z"/><path class="cls-3" d="M698,497.36c0-1.6,0-3-.11-4.23H700l.09,2.66h.11a4.07,4.07,0,0,1,3.75-3,2.48,2.48,0,0,1,.7.09v2.32a3.41,3.41,0,0,0-4.14,3.08,6.6,6.6,0,0,0-.11,1.15v7.22H698Z"/><path class="cls-3" d="M714.5,506.68l-.2-1.71h-.08a5,5,0,0,1-4.14,2,3.86,3.86,0,0,1-4.15-3.89c0-3.28,2.91-5.07,8.15-5v-.28a2.8,2.8,0,0,0-3.08-3.14,6.72,6.72,0,0,0-3.53,1l-.56-1.62a8.41,8.41,0,0,1,4.45-1.21c4.15,0,5.16,2.83,5.16,5.55v5.06a18.87,18.87,0,0,0,.22,3.25Zm-.36-6.91c-2.69-.06-5.74.42-5.74,3.05a2.18,2.18,0,0,0,2.32,2.35A3.39,3.39,0,0,0,714,502.9a2.67,2.67,0,0,0,.14-.78Z"/><path class="cls-3" d="M723.35,489.24v3.89h3.53V495h-3.53v7.3c0,1.69.47,2.64,1.85,2.64a5.54,5.54,0,0,0,1.42-.17l.12,1.85a6.25,6.25,0,0,1-2.19.33,3.42,3.42,0,0,1-2.66-1,5,5,0,0,1-.95-3.53V495h-2.1v-1.88h2.1v-3.25Z"/><path class="cls-3" d="M730.85,500.35c.06,3.34,2.18,4.71,4.65,4.71a8.93,8.93,0,0,0,3.75-.7l.42,1.76a11,11,0,0,1-4.51.84c-4.17,0-6.66-2.74-6.66-6.83s2.41-7.31,6.36-7.31c4.42,0,5.6,3.89,5.6,6.39a8.57,8.57,0,0,1-.09,1.14Zm7.23-1.76c0-1.57-.65-4-3.42-4-2.49,0-3.58,2.29-3.78,4Z"/><path class="cls-3" d="M743.17,504.16a6.44,6.44,0,0,0,3.25,1c1.79,0,2.63-.89,2.63-2s-.7-1.82-2.52-2.5c-2.43-.86-3.58-2.21-3.58-3.83,0-2.19,1.76-4,4.67-4a6.72,6.72,0,0,1,3.33.84l-.61,1.8a5.22,5.22,0,0,0-2.77-.79c-1.46,0-2.27.84-2.27,1.85s.81,1.62,2.57,2.29c2.36.9,3.56,2.08,3.56,4.09,0,2.38-1.85,4.06-5.07,4.06a7.7,7.7,0,0,1-3.8-.92Z"/><path class="cls-3" d="M763.27,489.32a1.45,1.45,0,0,1-1.56,1.51,1.47,1.47,0,0,1-1.49-1.51,1.51,1.51,0,0,1,1.54-1.54A1.46,1.46,0,0,1,763.27,489.32Zm-2.74,17.36V493.13H763v13.55Z"/><path class="cls-3" d="M767.08,496.8c0-1.4,0-2.55-.11-3.67h2.16l.11,2.18h.08a4.7,4.7,0,0,1,4.26-2.49,4,4,0,0,1,3.83,2.72h.06a5.56,5.56,0,0,1,1.51-1.77,4.66,4.66,0,0,1,3-.95c1.79,0,4.45,1.18,4.45,5.88v8H784V499c0-2.6-.95-4.17-2.94-4.17a3.18,3.18,0,0,0-2.91,2.24,4.06,4.06,0,0,0-.2,1.23v8.37h-2.4v-8.12c0-2.15-1-3.72-2.83-3.72a3.36,3.36,0,0,0-3,2.46,3.45,3.45,0,0,0-.2,1.21v8.17h-2.41Z"/><path class="cls-3" d="M790.43,497.55c0-1.73,0-3.13-.11-4.42h2.21l.12,2.33h.05a5.33,5.33,0,0,1,4.82-2.64c3.27,0,5.74,2.77,5.74,6.89,0,4.87-3,7.28-6.16,7.28a4.74,4.74,0,0,1-4.17-2.13h-.06v7.37h-2.44Zm2.44,3.62a6,6,0,0,0,.11,1,3.81,3.81,0,0,0,3.7,2.89c2.6,0,4.11-2.13,4.11-5.24,0-2.71-1.42-5-4-5a3.93,3.93,0,0,0-3.72,3.05,3.82,3.82,0,0,0-.17,1Z"/><path class="cls-3" d="M806.37,486.8h2.46v19.88h-2.46Z"/><path class="cls-3" d="M814.35,500.35c0,3.34,2.18,4.71,4.64,4.71a9,9,0,0,0,3.76-.7l.42,1.76a11.05,11.05,0,0,1-4.51.84c-4.17,0-6.67-2.74-6.67-6.83s2.41-7.31,6.36-7.31c4.42,0,5.6,3.89,5.6,6.39a11.32,11.32,0,0,1-.08,1.14Zm7.22-1.76c0-1.57-.64-4-3.42-4-2.49,0-3.58,2.29-3.78,4Z"/><path class="cls-3" d="M827,496.8c0-1.4,0-2.55-.11-3.67h2.16l.11,2.18h.08a4.7,4.7,0,0,1,4.26-2.49,4,4,0,0,1,3.83,2.72h.06a5.56,5.56,0,0,1,1.51-1.77,4.66,4.66,0,0,1,3-.95c1.79,0,4.45,1.18,4.45,5.88v8h-2.41V499c0-2.6-1-4.17-2.94-4.17a3.18,3.18,0,0,0-2.91,2.24,4.06,4.06,0,0,0-.2,1.23v8.37h-2.4v-8.12c0-2.15-1-3.72-2.83-3.72a3.36,3.36,0,0,0-3,2.46,3.45,3.45,0,0,0-.2,1.21v8.17H827Z"/><path class="cls-3" d="M851.73,500.35c0,3.34,2.18,4.71,4.64,4.71a9,9,0,0,0,3.76-.7l.42,1.76A11.05,11.05,0,0,1,856,507c-4.17,0-6.67-2.74-6.67-6.83s2.41-7.31,6.36-7.31c4.42,0,5.6,3.89,5.6,6.39a11.32,11.32,0,0,1-.08,1.14Zm7.22-1.76c0-1.57-.64-4-3.42-4-2.49,0-3.58,2.29-3.78,4Z"/><path class="cls-3" d="M864.38,496.8c0-1.4,0-2.55-.11-3.67h2.18l.14,2.24h.06a5,5,0,0,1,4.48-2.55c1.88,0,4.79,1.12,4.79,5.77v8.09h-2.47v-7.81c0-2.18-.81-4-3.13-4a3.58,3.58,0,0,0-3.47,3.66v8.15h-2.47Z"/><path class="cls-3" d="M882.78,489.24v3.89h3.53V495h-3.53v7.3c0,1.69.47,2.64,1.84,2.64a5.64,5.64,0,0,0,1.43-.17l.11,1.85A6.15,6.15,0,0,1,884,507a3.42,3.42,0,0,1-2.66-1,5,5,0,0,1-1-3.53V495h-2.1v-1.88h2.1v-3.25Z"/><path class="cls-3" d="M896.58,506.68l-.19-1.71h-.09a5,5,0,0,1-4.14,2A3.86,3.86,0,0,1,888,503.1c0-3.28,2.92-5.07,8.15-5v-.28a2.8,2.8,0,0,0-3.08-3.14,6.72,6.72,0,0,0-3.53,1L889,494a8.41,8.41,0,0,1,4.45-1.21c4.15,0,5.16,2.83,5.16,5.55v5.06a18.87,18.87,0,0,0,.22,3.25Zm-.36-6.91c-2.69-.06-5.74.42-5.74,3.05a2.18,2.18,0,0,0,2.32,2.35,3.38,3.38,0,0,0,3.28-2.27,2.67,2.67,0,0,0,.14-.78Z"/><path class="cls-3" d="M905.43,489.24v3.89H909V495h-3.53v7.3c0,1.69.47,2.64,1.85,2.64a5.54,5.54,0,0,0,1.42-.17l.12,1.85a6.25,6.25,0,0,1-2.19.33,3.42,3.42,0,0,1-2.66-1,5,5,0,0,1-1-3.53V495h-2.1v-1.88H903v-3.25Z"/><path class="cls-3" d="M914.47,489.32a1.53,1.53,0,0,1-3.05,0,1.5,1.5,0,0,1,1.54-1.54A1.47,1.47,0,0,1,914.47,489.32Zm-2.74,17.36V493.13h2.46v13.55Z"/><path class="cls-3" d="M930.54,499.79c0,5-3.47,7.2-6.74,7.2-3.67,0-6.5-2.69-6.5-7,0-4.54,3-7.2,6.72-7.2S930.54,495.65,930.54,499.79Zm-10.75.14c0,3,1.71,5.21,4.12,5.21s4.11-2.21,4.11-5.26c0-2.3-1.14-5.21-4.06-5.21S919.79,497.36,919.79,499.93Z"/><path class="cls-3" d="M933.65,496.8c0-1.4,0-2.55-.11-3.67h2.18l.14,2.24h.06a5,5,0,0,1,4.48-2.55c1.88,0,4.79,1.12,4.79,5.77v8.09h-2.47v-7.81c0-2.18-.81-4-3.13-4a3.58,3.58,0,0,0-3.47,3.66v8.15h-2.47Z"/><path class="cls-3" d="M947.6,510.13a41.25,41.25,0,0,0,1.68-6.7l2.74-.28a34.31,34.31,0,0,1-2.66,6.81Z"/><path class="cls-3" d="M621.76,532.8c0-1.4,0-2.55-.11-3.67h2.16l.11,2.18H624a4.7,4.7,0,0,1,4.26-2.49,4,4,0,0,1,3.84,2.72h0a5.56,5.56,0,0,1,1.51-1.77,4.68,4.68,0,0,1,3-.95c1.79,0,4.45,1.18,4.45,5.88v8H638.7V535c0-2.6-1-4.17-2.94-4.17a3.18,3.18,0,0,0-2.91,2.24,4.07,4.07,0,0,0-.19,1.23v8.37h-2.41v-8.12c0-2.15-1-3.72-2.83-3.72a3.36,3.36,0,0,0-3,2.46,3.45,3.45,0,0,0-.2,1.21v8.17h-2.41Z"/><path class="cls-3" d="M657.38,535.79c0,5-3.47,7.2-6.75,7.2-3.67,0-6.49-2.69-6.49-7,0-4.54,3-7.2,6.72-7.2S657.38,531.65,657.38,535.79Zm-10.75.14c0,3,1.71,5.21,4.11,5.21s4.12-2.21,4.12-5.26c0-2.3-1.15-5.21-4.06-5.21S646.63,533.36,646.63,535.93Z"/><path class="cls-3" d="M660.49,532.8c0-1.4,0-2.55-.11-3.67h2.18l.14,2.24h.06a5,5,0,0,1,4.48-2.55c1.87,0,4.78,1.12,4.78,5.77v8.09h-2.46v-7.81c0-2.18-.81-4-3.14-4a3.62,3.62,0,0,0-3.47,3.66v8.15h-2.46Z"/><path class="cls-3" d="M678.77,525.32a1.53,1.53,0,0,1-3,0,1.5,1.5,0,0,1,1.54-1.54A1.47,1.47,0,0,1,678.77,525.32ZM676,542.68V529.13h2.46v13.55Z"/><path class="cls-3" d="M685.55,525.24v3.89h3.53V531h-3.53v7.3c0,1.69.47,2.64,1.84,2.64a5.64,5.64,0,0,0,1.43-.17l.11,1.85a6.15,6.15,0,0,1-2.18.33,3.42,3.42,0,0,1-2.66-1,5,5,0,0,1-1-3.53V531H681v-1.88h2.1v-3.25Z"/><path class="cls-3" d="M703.94,535.79c0,5-3.47,7.2-6.74,7.2-3.67,0-6.5-2.69-6.5-7,0-4.54,3-7.2,6.72-7.2S703.94,531.65,703.94,535.79Zm-10.75.14c0,3,1.71,5.21,4.12,5.21s4.11-2.21,4.11-5.26c0-2.3-1.15-5.21-4.06-5.21S693.19,533.36,693.19,535.93Z"/><path class="cls-3" d="M707.05,533.36c0-1.6,0-3-.11-4.23h2.15l.09,2.66h.11a4.07,4.07,0,0,1,3.75-3,2.48,2.48,0,0,1,.7.09v2.32a3.41,3.41,0,0,0-4.14,3.08,6.6,6.6,0,0,0-.11,1.15v7.22h-2.44Z"/><path class="cls-3" d="M715.87,540.16a6.44,6.44,0,0,0,3.25,1c1.79,0,2.63-.89,2.63-2s-.7-1.82-2.52-2.5c-2.44-.86-3.58-2.21-3.58-3.83,0-2.19,1.76-4,4.67-4a6.72,6.72,0,0,1,3.33.84l-.61,1.8a5.22,5.22,0,0,0-2.77-.79c-1.46,0-2.27.84-2.27,1.85s.81,1.62,2.57,2.29c2.36.9,3.56,2.08,3.56,4.09,0,2.38-1.85,4.06-5.07,4.06a7.77,7.77,0,0,1-3.81-.92Z"/><path class="cls-3" d="M733.12,542.68c0-.92.11-2.29.11-3.5V522.8h2.44v8.51h.05a5.06,5.06,0,0,1,4.62-2.49c3.36,0,5.74,2.8,5.71,6.92,0,4.84-3,7.25-6.07,7.25a4.84,4.84,0,0,1-4.54-2.55h-.08l-.11,2.24Zm2.55-5.43a4.35,4.35,0,0,0,.11.9,3.8,3.8,0,0,0,3.69,2.88c2.58,0,4.12-2.1,4.12-5.21,0-2.71-1.4-5-4-5a3.92,3.92,0,0,0-3.75,3,4.54,4.54,0,0,0-.14,1Z"/><path class="cls-3" d="M760.5,539c0,1.4,0,2.63.11,3.69h-2.18l-.14-2.21h-.06a5.09,5.09,0,0,1-4.48,2.52c-2.12,0-4.67-1.18-4.67-5.94v-7.92h2.46v7.5c0,2.58.79,4.32,3,4.32a3.55,3.55,0,0,0,3.24-2.24,3.66,3.66,0,0,0,.23-1.26v-8.32h2.46Z"/><path class="cls-3" d="M764.25,540.16a6.44,6.44,0,0,0,3.25,1c1.79,0,2.63-.89,2.63-2s-.7-1.82-2.52-2.5c-2.43-.86-3.58-2.21-3.58-3.83,0-2.19,1.76-4,4.68-4a6.75,6.75,0,0,1,3.33.84l-.62,1.8a5.22,5.22,0,0,0-2.77-.79c-1.46,0-2.27.84-2.27,1.85s.81,1.62,2.58,2.29c2.35.9,3.55,2.08,3.55,4.09,0,2.38-1.84,4.06-5.06,4.06a7.71,7.71,0,0,1-3.81-.92Z"/><path class="cls-3" d="M778.42,525.32a1.53,1.53,0,0,1-3,0,1.5,1.5,0,0,1,1.54-1.54A1.47,1.47,0,0,1,778.42,525.32Zm-2.74,17.36V529.13h2.46v13.55Z"/><path class="cls-3" d="M782.23,532.8c0-1.4,0-2.55-.11-3.67h2.18l.14,2.24h.06a5,5,0,0,1,4.48-2.55c1.87,0,4.79,1.12,4.79,5.77v8.09H791.3v-7.81c0-2.18-.81-4-3.13-4a3.62,3.62,0,0,0-3.48,3.66v8.15h-2.46Z"/><path class="cls-3" d="M799.14,536.35c.06,3.34,2.19,4.71,4.65,4.71a8.93,8.93,0,0,0,3.75-.7l.42,1.76a11,11,0,0,1-4.51.84c-4.17,0-6.66-2.74-6.66-6.83s2.41-7.31,6.36-7.31c4.42,0,5.6,3.89,5.6,6.39a8.57,8.57,0,0,1-.09,1.14Zm7.23-1.76c0-1.57-.65-4-3.42-4-2.49,0-3.58,2.29-3.78,4Z"/><path class="cls-3" d="M811.46,540.16a6.44,6.44,0,0,0,3.25,1c1.79,0,2.63-.89,2.63-2s-.7-1.82-2.52-2.5c-2.43-.86-3.58-2.21-3.58-3.83,0-2.19,1.76-4,4.67-4a6.72,6.72,0,0,1,3.33.84l-.61,1.8a5.22,5.22,0,0,0-2.77-.79c-1.46,0-2.27.84-2.27,1.85s.81,1.62,2.57,2.29c2.36.9,3.56,2.08,3.56,4.09,0,2.38-1.85,4.06-5.07,4.06a7.7,7.7,0,0,1-3.8-.92Z"/><path class="cls-3" d="M822.55,540.16a6.41,6.41,0,0,0,3.25,1c1.79,0,2.63-.89,2.63-2s-.7-1.82-2.52-2.5c-2.44-.86-3.59-2.21-3.59-3.83,0-2.19,1.77-4,4.68-4a6.72,6.72,0,0,1,3.33.84l-.61,1.8a5.29,5.29,0,0,0-2.78-.79c-1.45,0-2.26.84-2.26,1.85s.81,1.62,2.57,2.29c2.35.9,3.56,2.08,3.56,4.09,0,2.38-1.85,4.06-5.07,4.06a7.74,7.74,0,0,1-3.81-.92Z"/><path class="cls-3" d="M839.8,542.68c.05-.92.11-2.29.11-3.5V522.8h2.43v8.51h.06a5.06,5.06,0,0,1,4.62-2.49c3.36,0,5.74,2.8,5.71,6.92,0,4.84-3.05,7.25-6.07,7.25a4.84,4.84,0,0,1-4.54-2.55H842l-.12,2.24Zm2.54-5.43a4.34,4.34,0,0,0,.12.9,3.8,3.8,0,0,0,3.69,2.88c2.58,0,4.12-2.1,4.12-5.21,0-2.71-1.4-5-4-5a3.94,3.94,0,0,0-3.76,3,5.23,5.23,0,0,0-.14,1Z"/><path class="cls-3" d="M857.21,536.35c.06,3.34,2.19,4.71,4.65,4.71a8.93,8.93,0,0,0,3.75-.7l.42,1.76a11,11,0,0,1-4.51.84c-4.17,0-6.66-2.74-6.66-6.83s2.41-7.31,6.36-7.31c4.42,0,5.6,3.89,5.6,6.39a8.57,8.57,0,0,1-.09,1.14Zm7.23-1.76c0-1.57-.65-4-3.42-4-2.49,0-3.58,2.29-3.78,4Z"/><path class="cls-3" d="M869.87,532.8c0-1.4,0-2.55-.11-3.67h2.18l.14,2.24h.06a5,5,0,0,1,4.48-2.55c1.87,0,4.78,1.12,4.78,5.77v8.09h-2.46v-7.81c0-2.18-.81-4-3.14-4a3.62,3.62,0,0,0-3.47,3.66v8.15h-2.46Z"/><path class="cls-3" d="M886.78,536.35c.06,3.34,2.18,4.71,4.65,4.71a8.93,8.93,0,0,0,3.75-.7l.42,1.76a11,11,0,0,1-4.51.84c-4.17,0-6.66-2.74-6.66-6.83s2.41-7.31,6.35-7.31c4.43,0,5.6,3.89,5.6,6.39a9,9,0,0,1-.08,1.14Zm7.22-1.76c0-1.57-.64-4-3.41-4-2.49,0-3.59,2.29-3.78,4Z"/><path class="cls-3" d="M899.69,542.68V531h-1.91v-1.88h1.91v-.73c0-3.58,2.1-5.9,5.91-5.9a6.81,6.81,0,0,1,3.44.89l-.7,1.88a5.18,5.18,0,0,0-2.86-.79c-2.6,0-3.36,1.82-3.36,4v.67H910v13.55h-2.43V531h-5.44v11.67Z"/><path class="cls-3" d="M917.05,525.24v3.89h3.53V531h-3.53v7.3c0,1.69.47,2.64,1.85,2.64a5.54,5.54,0,0,0,1.42-.17l.12,1.85a6.25,6.25,0,0,1-2.19.33,3.42,3.42,0,0,1-2.66-1,5,5,0,0,1-1-3.53V531h-2.1v-1.88h2.1v-3.25Z"/><path class="cls-3" d="M923,540.16a6.44,6.44,0,0,0,3.25,1c1.79,0,2.63-.89,2.63-2s-.7-1.82-2.52-2.5c-2.43-.86-3.58-2.21-3.58-3.83,0-2.19,1.76-4,4.67-4a6.69,6.69,0,0,1,3.33.84l-.61,1.8a5.22,5.22,0,0,0-2.77-.79c-1.46,0-2.27.84-2.27,1.85s.81,1.62,2.57,2.29c2.36.9,3.56,2.08,3.56,4.09,0,2.38-1.85,4.06-5.07,4.06a7.7,7.7,0,0,1-3.8-.92Z"/><path class="cls-3" d="M947.87,542.68l-.19-1.71h-.09a5,5,0,0,1-4.14,2,3.86,3.86,0,0,1-4.14-3.89c0-3.28,2.91-5.07,8.14-5v-.28a2.79,2.79,0,0,0-3.08-3.14,6.68,6.68,0,0,0-3.52,1l-.56-1.62a8.38,8.38,0,0,1,4.45-1.21c4.14,0,5.15,2.83,5.15,5.55v5.06a19.93,19.93,0,0,0,.22,3.25Zm-.36-6.91c-2.69-.06-5.74.42-5.74,3.05a2.18,2.18,0,0,0,2.32,2.35,3.37,3.37,0,0,0,3.28-2.27,2.67,2.67,0,0,0,.14-.78Z"/><path class="cls-3" d="M953.87,532.8c0-1.4,0-2.55-.12-3.67h2.19l.14,2.24h0a5,5,0,0,1,4.48-2.55c1.88,0,4.79,1.12,4.79,5.77v8.09h-2.46v-7.81c0-2.18-.81-4-3.14-4a3.62,3.62,0,0,0-3.47,3.66v8.15h-2.46Z"/><path class="cls-3" d="M981.11,522.8v16.38c0,1.21,0,2.58.11,3.5H979l-.11-2.35h-.06a5,5,0,0,1-4.62,2.66c-3.27,0-5.79-2.77-5.79-6.89,0-4.51,2.77-7.28,6.07-7.28a4.55,4.55,0,0,1,4.09,2.07h.06V522.8Zm-2.46,11.85a4.1,4.1,0,0,0-.12-1,3.61,3.61,0,0,0-3.55-2.86c-2.55,0-4.06,2.25-4.06,5.24,0,2.74,1.34,5,4,5a3.7,3.7,0,0,0,3.61-2.94,4,4,0,0,0,.12-1.06Z"/><path class="cls-3" d="M621.76,568.8c0-1.4,0-2.55-.11-3.67h2.16l.11,2.18H624a4.7,4.7,0,0,1,4.26-2.49,4,4,0,0,1,3.84,2.72h0a5.56,5.56,0,0,1,1.51-1.77,4.68,4.68,0,0,1,3-.95c1.79,0,4.45,1.18,4.45,5.88v8H638.7V571c0-2.6-1-4.17-2.94-4.17a3.18,3.18,0,0,0-2.91,2.24,4.07,4.07,0,0,0-.19,1.23v8.37h-2.41v-8.12c0-2.15-1-3.72-2.83-3.72a3.36,3.36,0,0,0-3,2.46,3.45,3.45,0,0,0-.2,1.21v8.17h-2.41Z"/><path class="cls-3" d="M647.86,561.32a1.53,1.53,0,0,1-3.05,0,1.5,1.5,0,0,1,1.54-1.54A1.47,1.47,0,0,1,647.86,561.32Zm-2.74,17.36V565.13h2.46v13.55Z"/><path class="cls-3" d="M651.67,568.8c0-1.4,0-2.55-.11-3.67h2.18l.14,2.24h.06a5,5,0,0,1,4.48-2.55c1.87,0,4.78,1.12,4.78,5.77v8.09h-2.46v-7.81c0-2.18-.81-4-3.14-4a3.62,3.62,0,0,0-3.47,3.66v8.15h-2.46Z"/><path class="cls-3" d="M670,561.32a1.53,1.53,0,0,1-3.05,0,1.5,1.5,0,0,1,1.54-1.54A1.47,1.47,0,0,1,670,561.32Zm-2.74,17.36V565.13h2.46v13.55Z"/><path class="cls-3" d="M673.76,568.8c0-1.4,0-2.55-.11-3.67h2.15l.11,2.18H676a4.67,4.67,0,0,1,4.25-2.49,4,4,0,0,1,3.84,2.72h.06a5.56,5.56,0,0,1,1.51-1.77,4.65,4.65,0,0,1,3-.95c1.8,0,4.46,1.18,4.46,5.88v8H690.7V571c0-2.6-1-4.17-2.94-4.17a3.18,3.18,0,0,0-2.91,2.24,3.77,3.77,0,0,0-.2,1.23v8.37h-2.41v-8.12c0-2.15-1-3.72-2.83-3.72a3.36,3.36,0,0,0-3,2.46,3.45,3.45,0,0,0-.19,1.21v8.17h-2.41Z"/><path class="cls-3" d="M699.86,561.32a1.53,1.53,0,0,1-3.06,0,1.51,1.51,0,0,1,1.54-1.54A1.47,1.47,0,0,1,699.86,561.32Zm-2.75,17.36V565.13h2.47v13.55Z"/><path class="cls-3" d="M702.12,577.25l6.13-8c.59-.72,1.15-1.37,1.77-2.1v0h-7.34v-2H713l0,1.54-6,7.87c-.56.75-1.12,1.43-1.74,2.13v.05h7.93v2h-11Z"/><path class="cls-3" d="M718.39,561.32a1.53,1.53,0,0,1-3,0,1.5,1.5,0,0,1,1.54-1.54A1.47,1.47,0,0,1,718.39,561.32Zm-2.74,17.36V565.13h2.46v13.55Z"/><path class="cls-3" d="M722.2,568.8c0-1.4,0-2.55-.11-3.67h2.18l.14,2.24h.06a5,5,0,0,1,4.48-2.55c1.87,0,4.78,1.12,4.78,5.77v8.09h-2.46v-7.81c0-2.18-.81-4-3.14-4a3.62,3.62,0,0,0-3.47,3.66v8.15H722.2Z"/><path class="cls-3" d="M749.41,565.13c0,1-.11,2.07-.11,3.72v7.87c0,3.11-.61,5-1.93,6.19a7.2,7.2,0,0,1-4.93,1.62,8.77,8.77,0,0,1-4.51-1.12l.62-1.87a7.67,7.67,0,0,0,4,1.06c2.52,0,4.36-1.31,4.36-4.73v-1.51h0a4.84,4.84,0,0,1-4.31,2.27c-3.36,0-5.77-2.86-5.77-6.61,0-4.59,3-7.2,6.1-7.2a4.51,4.51,0,0,1,4.23,2.35h.06l.11-2Zm-2.54,5.35a3.61,3.61,0,0,0-3.59-3.73c-2.35,0-4,2-4,5.13,0,2.66,1.34,4.87,4,4.87a3.6,3.6,0,0,0,3.42-2.52,4.32,4.32,0,0,0,.2-1.32Z"/><path class="cls-3" d="M769,578.18a9.25,9.25,0,0,1-3.9.78c-4.08,0-6.74-2.77-6.74-6.91a6.88,6.88,0,0,1,7.28-7.2,8.16,8.16,0,0,1,3.41.7l-.56,1.91a5.65,5.65,0,0,0-2.85-.65c-3.11,0-4.79,2.3-4.79,5.12,0,3.14,2,5.07,4.7,5.07a7,7,0,0,0,3-.67Z"/><path class="cls-3" d="M784,571.79c0,5-3.48,7.2-6.75,7.2-3.67,0-6.5-2.69-6.5-7,0-4.54,3-7.2,6.72-7.2S784,567.65,784,571.79Zm-10.76.14c0,3,1.71,5.21,4.12,5.21s4.12-2.21,4.12-5.26c0-2.3-1.15-5.21-4.06-5.21S773.21,569.36,773.21,571.93Z"/><path class="cls-3" d="M786.74,576.16a6.41,6.41,0,0,0,3.25,1c1.79,0,2.63-.89,2.63-2s-.7-1.82-2.52-2.5c-2.44-.86-3.59-2.21-3.59-3.83,0-2.19,1.77-4,4.68-4a6.72,6.72,0,0,1,3.33.84l-.61,1.8a5.29,5.29,0,0,0-2.78-.79c-1.45,0-2.26.84-2.26,1.85s.81,1.62,2.57,2.29c2.35.9,3.56,2.08,3.56,4.09,0,2.38-1.85,4.06-5.07,4.06a7.74,7.74,0,0,1-3.81-.92Z"/><path class="cls-3" d="M801.13,561.24v3.89h3.53V567h-3.53v7.3c0,1.69.48,2.64,1.85,2.64a5.7,5.7,0,0,0,1.43-.17l.11,1.85a6.21,6.21,0,0,1-2.19.33,3.43,3.43,0,0,1-2.66-1,5,5,0,0,1-.95-3.53V567h-2.1v-1.88h2.1v-3.25Z"/><path class="cls-3" d="M807.09,576.16a6.44,6.44,0,0,0,3.25,1c1.79,0,2.63-.89,2.63-2s-.7-1.82-2.52-2.5c-2.43-.86-3.58-2.21-3.58-3.83,0-2.19,1.76-4,4.68-4a6.75,6.75,0,0,1,3.33.84l-.62,1.8a5.22,5.22,0,0,0-2.77-.79c-1.46,0-2.27.84-2.27,1.85s.81,1.62,2.58,2.29c2.35.9,3.55,2.08,3.55,4.09,0,2.38-1.84,4.06-5.06,4.06a7.71,7.71,0,0,1-3.81-.92Z"/><path class="cls-3" d="M627.83,716.84v16.51c0,5.55,2.31,8.11,5.79,8.11,3.74,0,6-2.56,6-8.11V716.84h5.17V733c0,8.74-4.5,12.6-11.3,12.6-6.56,0-10.8-3.65-10.8-12.56V716.84Z"/><path class="cls-3" d="M650.46,730.79c0-2.35,0-4.33-.16-6.09h4.53l.25,3.07h.13a7.37,7.37,0,0,1,6.51-3.53c3.57,0,7.27,2.31,7.27,8.78v12.14h-5.17V733.61c0-2.94-1.09-5.17-3.9-5.17a4.35,4.35,0,0,0-4,3,5.27,5.27,0,0,0-.21,1.68v12h-5.21Z"/><path class="cls-3" d="M680,719a2.9,2.9,0,0,1-5.8,0,2.9,2.9,0,0,1,5.8,0Zm-5.5,26.17V724.7h5.21v20.46Z"/><path class="cls-3" d="M685.83,745.16V728.57h-2.78V724.7h2.78v-1c0-5.5,3.82-8.86,9.91-8.86a12.19,12.19,0,0,1,5.63,1.3l-1.13,3.91a9.38,9.38,0,0,0-4.5-1.09c-3.61,0-4.79,2.18-4.79,4.87v.84h12.23v20.46H698V728.57h-7v16.59Z"/><path class="cls-3" d="M712.37,736.38c.13,3.7,3,5.29,6.3,5.29a15.3,15.3,0,0,0,5.67-.92l.76,3.57a19.33,19.33,0,0,1-7.14,1.26c-6.64,0-10.55-4.08-10.55-10.34,0-5.67,3.45-11,10-11s8.82,5.46,8.82,10a13.36,13.36,0,0,1-.16,2.19Zm9-3.61c0-1.89-.8-5-4.24-5-3.19,0-4.54,2.9-4.75,5Z"/><path class="cls-3" d="M749.25,715.33V739.4c0,2.1.08,4.37.17,5.76H744.8l-.21-3.24h-.09a7.36,7.36,0,0,1-6.68,3.7c-4.87,0-8.73-4.16-8.73-10.46-.05-6.85,4.24-10.92,9.15-10.92,2.82,0,4.83,1.17,5.76,2.69h.08v-11.6Zm-5.17,17.9a7.7,7.7,0,0,0-.12-1.35,4.54,4.54,0,0,0-4.46-3.65c-3.31,0-5.16,2.94-5.16,6.76s1.85,6.47,5.12,6.47a4.55,4.55,0,0,0,4.45-3.65,5.67,5.67,0,0,0,.17-1.52Z"/><path class="cls-3" d="M778.52,744.53a15,15,0,0,1-5.8,1.05c-6.38,0-10.54-4.08-10.54-10.42,0-6.13,4.2-10.92,11.39-10.92a12.75,12.75,0,0,1,5,1l-.92,3.86a9.08,9.08,0,0,0-3.91-.8c-4,0-6.3,2.9-6.26,6.64,0,4.2,2.73,6.59,6.26,6.59a10.14,10.14,0,0,0,4.08-.79Z"/><path class="cls-3" d="M800.66,739c0,2.43.08,4.45.16,6.13h-4.53l-.25-3.11H796a7.39,7.39,0,0,1-6.55,3.57c-3.74,0-7.14-2.23-7.14-8.91v-12h5.16v11.13c0,3.41,1.1,5.59,3.83,5.59a4.37,4.37,0,0,0,4-2.77,5,5,0,0,0,.29-1.6V724.7h5.17Z"/><path class="cls-3" d="M806,740.41a11.42,11.42,0,0,0,5.25,1.47c2.27,0,3.27-.92,3.27-2.27s-.84-2.1-3.36-3c-4-1.39-5.67-3.57-5.63-6,0-3.62,3-6.43,7.73-6.43a12,12,0,0,1,5.42,1.22l-1,3.65a9.23,9.23,0,0,0-4.32-1.17c-1.85,0-2.86.88-2.86,2.14s1,1.93,3.57,2.85c3.7,1.35,5.42,3.24,5.46,6.26,0,3.7-2.9,6.39-8.31,6.39a13.2,13.2,0,0,1-6.22-1.43Z"/><path class="cls-3" d="M829.67,718.86v5.84h4.92v3.87h-4.92v9c0,2.48.68,3.78,2.65,3.78a8,8,0,0,0,2-.25l.08,3.94a11.14,11.14,0,0,1-3.74.51,6,6,0,0,1-4.45-1.68c-1.09-1.18-1.6-3-1.6-5.72v-9.61h-2.94V724.7h2.94v-4.62Z"/><path class="cls-3" d="M857.69,734.74c0,7.52-5.29,10.88-10.5,10.88-5.8,0-10.25-4-10.25-10.54,0-6.72,4.41-10.84,10.59-10.84S857.69,728.52,857.69,734.74Zm-15.42.21c0,3.95,1.94,6.93,5.09,6.93,2.94,0,5-2.9,5-7,0-3.2-1.43-6.85-5-6.85S842.27,731.55,842.27,735Z"/><path class="cls-3" d="M861.93,730.79c0-2.35,0-4.33-.17-6.09h4.45l.21,3h.13a7.08,7.08,0,0,1,6.3-3.49,5.89,5.89,0,0,1,5.67,3.78h.09a7.53,7.53,0,0,1,2.52-2.56,6.79,6.79,0,0,1,4.11-1.22c3.41,0,6.85,2.31,6.85,8.86v12.06h-5v-11.3c0-3.4-1.18-5.42-3.65-5.42a4,4,0,0,0-3.62,2.73,7.66,7.66,0,0,0-.25,1.72v12.27h-5V733.31c0-2.85-1.13-4.87-3.53-4.87a4,4,0,0,0-3.7,2.94,4.4,4.4,0,0,0-.29,1.68v12.1h-5Z"/><path class="cls-3" d="M901.2,736.38c.13,3.7,3,5.29,6.3,5.29a15.3,15.3,0,0,0,5.67-.92l.76,3.57a19.37,19.37,0,0,1-7.14,1.26c-6.64,0-10.55-4.08-10.55-10.34,0-5.67,3.45-11,10-11s8.82,5.46,8.82,10a12.11,12.11,0,0,1-.17,2.19Zm9-3.61c0-1.89-.8-5-4.24-5-3.2,0-4.54,2.9-4.75,5Z"/><path class="cls-3" d="M919.22,731.3c0-2.78,0-4.75-.17-6.6h4.49l.17,3.91h.17a6.1,6.1,0,0,1,5.59-4.37,5.73,5.73,0,0,1,1.22.12v4.88a6.87,6.87,0,0,0-1.52-.17,4.55,4.55,0,0,0-4.62,3.91,9.12,9.12,0,0,0-.17,1.59v10.59h-5.16Z"/><path class="cls-3" d="M628,762a2.9,2.9,0,1,1-2.89-2.82A2.74,2.74,0,0,1,628,762Zm-5.5,26.17V767.7h5.21v20.46Z"/><path class="cls-3" d="M633.24,773.79c0-2.35,0-4.33-.16-6.09h4.53l.25,3.07H638a7.37,7.37,0,0,1,6.51-3.53c3.57,0,7.27,2.31,7.27,8.78v12.14H646.6V776.61c0-2.94-1.09-5.17-3.9-5.17a4.35,4.35,0,0,0-4,3,5.27,5.27,0,0,0-.21,1.68v12h-5.21Z"/><path class="cls-3" d="M663,761.86v5.84h4.92v3.87H663v9c0,2.48.67,3.78,2.65,3.78a7.86,7.86,0,0,0,2-.25l.09,3.94a11.18,11.18,0,0,1-3.74.51,6,6,0,0,1-4.45-1.68c-1.1-1.18-1.6-3-1.6-5.72v-9.61H655V767.7h2.94v-4.62Z"/><path class="cls-3" d="M675.2,779.38c.13,3.7,3,5.29,6.3,5.29a15.3,15.3,0,0,0,5.67-.92l.76,3.57a19.33,19.33,0,0,1-7.14,1.26c-6.64,0-10.54-4.08-10.54-10.34,0-5.67,3.44-11,10-11s8.83,5.46,8.83,10a13.12,13.12,0,0,1-.17,2.19Zm9-3.61c0-1.89-.8-5-4.24-5-3.19,0-4.54,2.9-4.75,5Z"/><path class="cls-3" d="M693.22,774.3c0-2.78,0-4.75-.17-6.6h4.5l.16,3.91h.17a6.1,6.1,0,0,1,5.59-4.37,5.73,5.73,0,0,1,1.22.12v4.88a6.77,6.77,0,0,0-1.51-.17,4.57,4.57,0,0,0-4.63,3.91,9.18,9.18,0,0,0-.16,1.59v10.59h-5.17Z"/><path class="cls-3" d="M719.3,788.16l-.33-2.27h-.13a7.58,7.58,0,0,1-6.05,2.73,6.07,6.07,0,0,1-6.42-6.09c0-5.17,4.57-7.77,12.14-7.73v-.34c0-1.34-.55-3.57-4.16-3.57a10.79,10.79,0,0,0-5.51,1.52l-1-3.37a14.74,14.74,0,0,1,7.39-1.8c6.55,0,8.44,4.16,8.44,8.61v7.39a32.78,32.78,0,0,0,.3,4.92Zm-.67-10c-3.65-.08-7.14.71-7.14,3.82a2.71,2.71,0,0,0,2.94,2.94,4.18,4.18,0,0,0,4-2.81,3.63,3.63,0,0,0,.17-1.14Z"/><path class="cls-3" d="M744.17,787.53a15.05,15.05,0,0,1-5.8,1.05c-6.38,0-10.54-4.08-10.54-10.42,0-6.13,4.2-10.92,11.38-10.92a12.84,12.84,0,0,1,5,1l-.92,3.86a9.08,9.08,0,0,0-3.91-.8c-4,0-6.3,2.9-6.26,6.64,0,4.2,2.73,6.59,6.26,6.59a10.05,10.05,0,0,0,4.07-.79Z"/><path class="cls-3" d="M754.54,761.86v5.84h4.91v3.87h-4.91v9c0,2.48.67,3.78,2.65,3.78a7.86,7.86,0,0,0,2-.25l.09,3.94a11.18,11.18,0,0,1-3.74.51,6,6,0,0,1-4.45-1.68c-1.1-1.18-1.6-3-1.6-5.72v-9.61h-2.94V767.7h2.94v-4.62Z"/><path class="cls-3" d="M768.86,762a2.9,2.9,0,1,1-2.9-2.82A2.74,2.74,0,0,1,768.86,762Zm-5.5,26.17V767.7h5.21v20.46Z"/><path class="cls-3" d="M793.56,777.74c0,7.52-5.29,10.88-10.5,10.88-5.8,0-10.25-4-10.25-10.54,0-6.72,4.41-10.84,10.58-10.84S793.56,771.52,793.56,777.74Zm-15.42.21c0,3.95,1.94,6.93,5.09,6.93,2.94,0,5-2.9,5-7,0-3.2-1.43-6.85-5-6.85S778.14,774.55,778.14,778Z"/><path class="cls-3" d="M797.8,773.79c0-2.35,0-4.33-.17-6.09h4.54l.25,3.07h.13a7.35,7.35,0,0,1,6.51-3.53c3.57,0,7.26,2.31,7.26,8.78v12.14h-5.16V776.61c0-2.94-1.1-5.17-3.91-5.17a4.33,4.33,0,0,0-4,3,5.27,5.27,0,0,0-.21,1.68v12H797.8Z"/><path class="cls-3" d="M637.75,831.87c-.14-2.63-.31-5.8-.28-8.15h-.08c-.65,2.21-1.43,4.57-2.38,7.17l-3.33,9.16h-1.85l-3.05-9c-.9-2.66-1.66-5.1-2.19-7.34h-.05c-.06,2.35-.2,5.52-.37,8.35l-.5,8.09h-2.33l1.32-18.87h3.11l3.22,9.12c.78,2.33,1.43,4.4,1.9,6.36H631c.47-1.9,1.14-4,2-6.36l3.36-9.12h3.11l1.18,18.87h-2.38Z"/><path class="cls-3" d="M652,840.16l-.2-1.71h-.08a5.08,5.08,0,0,1-4.15,2,3.87,3.87,0,0,1-4.14-3.9c0-3.27,2.91-5.06,8.15-5v-.28a2.79,2.79,0,0,0-3.08-3.13,6.72,6.72,0,0,0-3.53,1l-.56-1.63a8.38,8.38,0,0,1,4.45-1.2c4.14,0,5.15,2.83,5.15,5.54v5.07a18.88,18.88,0,0,0,.23,3.25Zm-.37-6.92c-2.69,0-5.74.42-5.74,3a2.19,2.19,0,0,0,2.33,2.36,3.36,3.36,0,0,0,3.27-2.27,2.39,2.39,0,0,0,.14-.79Z"/><path class="cls-3" d="M657.94,830.27c0-1.4,0-2.54-.11-3.66H660l.14,2.24h.06a5,5,0,0,1,4.48-2.55c1.87,0,4.78,1.12,4.78,5.77v8.09H667v-7.81c0-2.19-.81-4-3.14-4a3.5,3.5,0,0,0-3.3,2.52,3.62,3.62,0,0,0-.17,1.15v8.15h-2.46Z"/><path class="cls-3" d="M681,840.16l-.19-1.71h-.09a5,5,0,0,1-4.14,2,3.87,3.87,0,0,1-4.15-3.9c0-3.27,2.92-5.06,8.15-5v-.28a2.79,2.79,0,0,0-3.08-3.13,6.75,6.75,0,0,0-3.53,1l-.56-1.63a8.42,8.42,0,0,1,4.46-1.2c4.14,0,5.15,2.83,5.15,5.54v5.07a18.94,18.94,0,0,0,.22,3.25Zm-.36-6.92c-2.69,0-5.74.42-5.74,3a2.18,2.18,0,0,0,2.32,2.36,3.37,3.37,0,0,0,3.28-2.27,2.68,2.68,0,0,0,.14-.79Z"/><path class="cls-3" d="M698.65,826.61c-.06,1-.11,2.07-.11,3.72v7.87c0,3.11-.62,5-1.93,6.19a7.2,7.2,0,0,1-4.93,1.62,8.71,8.71,0,0,1-4.51-1.12l.62-1.88a7.6,7.6,0,0,0,4,1.07c2.52,0,4.37-1.32,4.37-4.73v-1.52h-.06a4.83,4.83,0,0,1-4.31,2.27c-3.36,0-5.77-2.85-5.77-6.61,0-4.59,3-7.19,6.11-7.19a4.51,4.51,0,0,1,4.23,2.35h0l.11-2ZM696.1,832a3.6,3.6,0,0,0-3.58-3.72c-2.35,0-4,2-4,5.12,0,2.66,1.34,4.88,4,4.88a3.63,3.63,0,0,0,3.42-2.52,4.3,4.3,0,0,0,.19-1.32Z"/><path class="cls-3" d="M704,833.83c0,3.33,2.18,4.7,4.65,4.7a8.81,8.81,0,0,0,3.75-.7l.42,1.77a11,11,0,0,1-4.51.84c-4.17,0-6.66-2.75-6.66-6.83s2.4-7.31,6.35-7.31c4.43,0,5.6,3.89,5.6,6.38a9,9,0,0,1-.08,1.15Zm7.22-1.76c0-1.57-.64-4-3.41-4-2.5,0-3.59,2.3-3.78,4Z"/><path class="cls-3" d="M716.32,837.64a6.51,6.51,0,0,0,3.25,1c1.79,0,2.63-.9,2.63-2s-.7-1.82-2.52-2.49c-2.44-.87-3.59-2.21-3.59-3.84,0-2.18,1.77-4,4.68-4a6.72,6.72,0,0,1,3.33.84l-.61,1.79a5.3,5.3,0,0,0-2.78-.78c-1.45,0-2.26.84-2.26,1.84s.81,1.63,2.57,2.3c2.35.9,3.56,2.07,3.56,4.09,0,2.38-1.85,4.06-5.07,4.06a7.74,7.74,0,0,1-3.81-.93Z"/><path class="cls-3" d="M736.65,822.71v3.9h3.52v1.87h-3.52v7.31c0,1.68.47,2.63,1.84,2.63a5.21,5.21,0,0,0,1.43-.17l.11,1.85a5.89,5.89,0,0,1-2.18.34,3.42,3.42,0,0,1-2.66-1,5,5,0,0,1-1-3.53v-7.39h-2.1v-1.87h2.1v-3.25Z"/><path class="cls-3" d="M743,820.28h2.46v8.45h.06a4.51,4.51,0,0,1,1.76-1.73,5.09,5.09,0,0,1,2.52-.7c1.82,0,4.73,1.12,4.73,5.79v8.07H752v-7.79c0-2.18-.81-4-3.14-4a3.54,3.54,0,0,0-3.3,2.47,3,3,0,0,0-.17,1.17v8.18H743Z"/><path class="cls-3" d="M759.86,833.83c0,3.33,2.18,4.7,4.65,4.7a8.81,8.81,0,0,0,3.75-.7l.42,1.77a11,11,0,0,1-4.51.84c-4.17,0-6.66-2.75-6.66-6.83s2.4-7.31,6.35-7.31c4.43,0,5.6,3.89,5.6,6.38a9,9,0,0,1-.08,1.15Zm7.22-1.76c0-1.57-.64-4-3.41-4-2.5,0-3.59,2.3-3.78,4Z"/><path class="cls-3" d="M788.11,839.65a9,9,0,0,1-3.89.79c-4.09,0-6.75-2.77-6.75-6.92a6.88,6.88,0,0,1,7.28-7.19,8.16,8.16,0,0,1,3.41.7l-.56,1.9a5.64,5.64,0,0,0-2.85-.64c-3.11,0-4.79,2.29-4.79,5.12,0,3.14,2,5.07,4.7,5.07a7.15,7.15,0,0,0,3-.67Z"/><path class="cls-3" d="M802.33,836.46c0,1.4,0,2.63.11,3.7h-2.18l-.14-2.21h-.06a5.09,5.09,0,0,1-4.48,2.52c-2.12,0-4.67-1.18-4.67-5.94v-7.92h2.46v7.5c0,2.58.79,4.31,3,4.31a3.49,3.49,0,0,0,3.47-3.5v-8.31h2.46Z"/><path class="cls-3" d="M806.08,837.64a6.54,6.54,0,0,0,3.25,1c1.79,0,2.63-.9,2.63-2s-.7-1.82-2.52-2.49c-2.43-.87-3.58-2.21-3.58-3.84,0-2.18,1.76-4,4.68-4a6.75,6.75,0,0,1,3.33.84l-.62,1.79a5.23,5.23,0,0,0-2.77-.78c-1.46,0-2.27.84-2.27,1.84s.81,1.63,2.58,2.3c2.35.9,3.55,2.07,3.55,4.09,0,2.38-1.84,4.06-5.06,4.06a7.71,7.71,0,0,1-3.81-.93Z"/><path class="cls-3" d="M820.48,822.71v3.9H824v1.87h-3.52v7.31c0,1.68.47,2.63,1.84,2.63a5.21,5.21,0,0,0,1.43-.17l.11,1.85a5.89,5.89,0,0,1-2.18.34,3.42,3.42,0,0,1-2.66-1,5,5,0,0,1-.95-3.53v-7.39H816v-1.87h2.1v-3.25Z"/><path class="cls-3" d="M838.87,833.27c0,5-3.47,7.2-6.75,7.2-3.66,0-6.49-2.69-6.49-7,0-4.53,3-7.19,6.72-7.19S838.87,829.13,838.87,833.27Zm-10.75.14c0,3,1.71,5.21,4.12,5.21s4.11-2.21,4.11-5.27c0-2.29-1.15-5.2-4.06-5.2S828.12,830.83,828.12,833.41Z"/><path class="cls-3" d="M842,830.27c0-1.4,0-2.54-.11-3.66H844l.12,2.18h.08a4.68,4.68,0,0,1,4.26-2.49,4,4,0,0,1,3.83,2.71h.06a5.63,5.63,0,0,1,1.51-1.76,4.61,4.61,0,0,1,3-1c1.79,0,4.45,1.17,4.45,5.88v8h-2.41v-7.67c0-2.61-.95-4.18-2.94-4.18a3.19,3.19,0,0,0-2.91,2.24,4.18,4.18,0,0,0-.2,1.24v8.37h-2.41V832c0-2.16-1-3.73-2.82-3.73a3.39,3.39,0,0,0-3.06,2.47,3.36,3.36,0,0,0-.19,1.2v8.18H842Z"/><path class="cls-3" d="M866.7,833.83c.06,3.33,2.19,4.7,4.65,4.7a8.74,8.74,0,0,0,3.75-.7l.42,1.77a11,11,0,0,1-4.5.84c-4.18,0-6.67-2.75-6.67-6.83s2.41-7.31,6.36-7.31c4.42,0,5.6,3.89,5.6,6.38a8.6,8.6,0,0,1-.09,1.15Zm7.23-1.76c0-1.57-.65-4-3.42-4-2.49,0-3.58,2.3-3.78,4Z"/><path class="cls-3" d="M879.36,830.83c0-1.59,0-3-.11-4.22h2.15l.09,2.66h.11a4.07,4.07,0,0,1,3.75-3,2.93,2.93,0,0,1,.7.08v2.33a3.37,3.37,0,0,0-4.14,3.08,6.39,6.39,0,0,0-.11,1.14v7.23h-2.44Z"/><path class="cls-3" d="M892.46,821a31.55,31.55,0,0,1-2.63,6.63l-1.57.2a39.29,39.29,0,0,0,1.66-6.58Z"/><path class="cls-3" d="M892.8,837.64a6.54,6.54,0,0,0,3.25,1c1.79,0,2.63-.9,2.63-2s-.7-1.82-2.52-2.49c-2.44-.87-3.58-2.21-3.58-3.84,0-2.18,1.76-4,4.67-4a6.72,6.72,0,0,1,3.33.84l-.61,1.79a5.23,5.23,0,0,0-2.77-.78c-1.46,0-2.27.84-2.27,1.84s.81,1.63,2.57,2.3c2.36.9,3.56,2.07,3.56,4.09,0,2.38-1.85,4.06-5.07,4.06a7.77,7.77,0,0,1-3.81-.93Z"/><path class="cls-3" d="M906.86,844.08a4,4,0,0,0,2.68-1c.68-.78.93-1.85.93-5.09V826.61h2.46V838.9c0,2.63-.42,4.34-1.62,5.57a6.27,6.27,0,0,1-4.2,1.54Zm6.35-21.28a1.44,1.44,0,0,1-1.54,1.51,1.47,1.47,0,0,1-1.51-1.51,1.51,1.51,0,0,1,1.57-1.54A1.46,1.46,0,0,1,913.21,822.8Z"/><path class="cls-3" d="M929.23,833.27c0,5-3.47,7.2-6.75,7.2-3.67,0-6.5-2.69-6.5-7,0-4.53,3-7.19,6.72-7.19S929.23,829.13,929.23,833.27Zm-10.75.14c0,3,1.7,5.21,4.11,5.21s4.12-2.21,4.12-5.27c0-2.29-1.15-5.2-4.06-5.2S918.48,830.83,918.48,833.41Z"/><path class="cls-3" d="M943.68,836.46c0,1.4,0,2.63.11,3.7H941.6l-.14-2.21h-.05a5.11,5.11,0,0,1-4.48,2.52c-2.13,0-4.68-1.18-4.68-5.94v-7.92h2.47v7.5c0,2.58.78,4.31,3,4.31a3.45,3.45,0,0,0,3.47-3.5v-8.31h2.47Z"/><path class="cls-3" d="M947.76,830.83c0-1.59,0-3-.11-4.22h2.16l.08,2.66H950a4.07,4.07,0,0,1,3.75-3,2.93,2.93,0,0,1,.7.08v2.33a3.4,3.4,0,0,0-.83-.09,3.47,3.47,0,0,0-3.31,3.17,6.39,6.39,0,0,0-.11,1.14v7.23h-2.44Z"/><path class="cls-3" d="M957,830.27c0-1.4,0-2.54-.11-3.66h2.18l.14,2.24h.06a5,5,0,0,1,4.48-2.55c1.87,0,4.79,1.12,4.79,5.77v8.09H966.1v-7.81c0-2.19-.81-4-3.13-4a3.5,3.5,0,0,0-3.31,2.52,3.62,3.62,0,0,0-.17,1.15v8.15H957Z"/><path class="cls-3" d="M973.94,833.83c.06,3.33,2.19,4.7,4.65,4.7a8.78,8.78,0,0,0,3.75-.7l.42,1.77a11,11,0,0,1-4.51.84c-4.17,0-6.66-2.75-6.66-6.83S974,826.3,978,826.3c4.42,0,5.6,3.89,5.6,6.38a8.6,8.6,0,0,1-.09,1.15Zm7.23-1.76c0-1.57-.65-4-3.42-4-2.49,0-3.58,2.3-3.78,4Z"/><path class="cls-3" d="M987.49,826.61l3,8c.31.9.65,2,.87,2.78h.06c.25-.82.53-1.85.86-2.83l2.69-7.95h2.61l-3.7,9.66c-1.76,4.64-3,7-4.65,8.48a6.82,6.82,0,0,1-3,1.6l-.62-2.08a6.32,6.32,0,0,0,2.16-1.2,7.45,7.45,0,0,0,2.07-2.74,1.92,1.92,0,0,0,.2-.59,2.28,2.28,0,0,0-.17-.65l-5-12.48Z"/><path class="cls-3" d="M629.27,876.16l-.2-1.71H629a5.07,5.07,0,0,1-4.15,2,3.87,3.87,0,0,1-4.14-3.9c0-3.27,2.91-5.06,8.15-5v-.28a2.79,2.79,0,0,0-3.08-3.13,6.72,6.72,0,0,0-3.53,1l-.56-1.63a8.38,8.38,0,0,1,4.45-1.2c4.15,0,5.15,2.83,5.15,5.54v5.07a18.88,18.88,0,0,0,.23,3.25Zm-.37-6.92c-2.68,0-5.74.42-5.74,3a2.19,2.19,0,0,0,2.33,2.36,3.36,3.36,0,0,0,3.27-2.27,2.39,2.39,0,0,0,.14-.79Z"/><path class="cls-3" d="M644.92,875.65a9,9,0,0,1-3.89.79c-4.09,0-6.75-2.77-6.75-6.92a6.88,6.88,0,0,1,7.28-7.19,8.21,8.21,0,0,1,3.42.7l-.56,1.9a5.71,5.71,0,0,0-2.86-.64c-3.11,0-4.79,2.29-4.79,5.12,0,3.14,2,5.07,4.71,5.07a7.1,7.1,0,0,0,3-.67Z"/><path class="cls-3" d="M647.8,866.83c0-1.59,0-3-.11-4.22h2.16l.08,2.66H650a4.07,4.07,0,0,1,3.76-3,3,3,0,0,1,.7.08v2.33a3.55,3.55,0,0,0-.84-.09,3.47,3.47,0,0,0-3.31,3.17,7.47,7.47,0,0,0-.11,1.14v7.23H647.8Z"/><path class="cls-3" d="M668.94,869.27c0,5-3.47,7.2-6.74,7.2-3.67,0-6.5-2.69-6.5-7,0-4.53,3-7.19,6.72-7.19S668.94,865.13,668.94,869.27Zm-10.75.14c0,3,1.71,5.21,4.12,5.21s4.11-2.21,4.11-5.27c0-2.29-1.14-5.2-4.06-5.2S658.19,866.83,658.19,869.41Z"/><path class="cls-3" d="M671.72,873.64a6.47,6.47,0,0,0,3.24,1c1.8,0,2.64-.9,2.64-2s-.7-1.82-2.52-2.49c-2.44-.87-3.59-2.21-3.59-3.84,0-2.18,1.77-4,4.68-4a6.75,6.75,0,0,1,3.33.84l-.62,1.79a5.23,5.23,0,0,0-2.77-.78c-1.45,0-2.27.84-2.27,1.84s.82,1.63,2.58,2.3c2.35.9,3.56,2.07,3.56,4.09,0,2.38-1.85,4.06-5.07,4.06a7.71,7.71,0,0,1-3.81-.93Z"/><path class="cls-3" d="M682.8,873.64a6.54,6.54,0,0,0,3.25,1c1.79,0,2.63-.9,2.63-2s-.7-1.82-2.52-2.49c-2.43-.87-3.58-2.21-3.58-3.84,0-2.18,1.76-4,4.67-4a6.76,6.76,0,0,1,3.34.84l-.62,1.79a5.23,5.23,0,0,0-2.77-.78c-1.46,0-2.27.84-2.27,1.84s.81,1.63,2.58,2.3c2.35.9,3.55,2.07,3.55,4.09,0,2.38-1.85,4.06-5.07,4.06a7.7,7.7,0,0,1-3.8-.93Z"/><path class="cls-3" d="M709.82,875.65a9,9,0,0,1-3.89.79c-4.09,0-6.75-2.77-6.75-6.92a6.88,6.88,0,0,1,7.28-7.19,8.17,8.17,0,0,1,3.42.7l-.56,1.9a5.68,5.68,0,0,0-2.86-.64c-3.11,0-4.79,2.29-4.79,5.12,0,3.14,2,5.07,4.71,5.07a7.1,7.1,0,0,0,3-.67Z"/><path class="cls-3" d="M724.8,869.27c0,5-3.47,7.2-6.74,7.2-3.67,0-6.5-2.69-6.5-7,0-4.53,3-7.19,6.72-7.19S724.8,865.13,724.8,869.27Zm-10.75.14c0,3,1.71,5.21,4.12,5.21s4.11-2.21,4.11-5.27c0-2.29-1.15-5.2-4.06-5.2S714.05,866.83,714.05,869.41Z"/><path class="cls-3" d="M727.91,866.27c0-1.4,0-2.54-.11-3.66H730l.14,2.24h.06a5,5,0,0,1,4.48-2.55c1.87,0,4.79,1.12,4.79,5.77v8.09H737v-7.81c0-2.19-.81-4-3.13-4a3.5,3.5,0,0,0-3.31,2.52,3.62,3.62,0,0,0-.17,1.15v8.15h-2.46Z"/><path class="cls-3" d="M743.45,866.27c0-1.4,0-2.54-.11-3.66h2.18l.14,2.24h.06a5,5,0,0,1,4.48-2.55c1.87,0,4.79,1.12,4.79,5.77v8.09h-2.47v-7.81c0-2.19-.81-4-3.13-4a3.5,3.5,0,0,0-3.31,2.52,3.62,3.62,0,0,0-.17,1.15v8.15h-2.46Z"/><path class="cls-3" d="M760.36,869.83c.06,3.33,2.19,4.7,4.65,4.7a8.78,8.78,0,0,0,3.75-.7l.42,1.77a11,11,0,0,1-4.51.84c-4.17,0-6.66-2.75-6.66-6.83s2.41-7.31,6.36-7.31c4.42,0,5.6,3.89,5.6,6.38a8.6,8.6,0,0,1-.09,1.15Zm7.23-1.76c0-1.57-.65-4-3.42-4-2.49,0-3.58,2.3-3.78,4Z"/><path class="cls-3" d="M782.68,875.65a9,9,0,0,1-3.89.79c-4.09,0-6.75-2.77-6.75-6.92a6.88,6.88,0,0,1,7.28-7.19,8.16,8.16,0,0,1,3.41.7l-.56,1.9a5.64,5.64,0,0,0-2.85-.64c-3.11,0-4.79,2.29-4.79,5.12,0,3.14,2,5.07,4.7,5.07a7.15,7.15,0,0,0,3-.67Z"/><path class="cls-3" d="M788.89,858.71v3.9h3.53v1.87h-3.53v7.31c0,1.68.48,2.63,1.85,2.63a5.21,5.21,0,0,0,1.43-.17l.11,1.85a5.89,5.89,0,0,1-2.18.34,3.42,3.42,0,0,1-2.66-1,5,5,0,0,1-1-3.53v-7.39h-2.1v-1.87h2.1v-3.25Z"/><path class="cls-3" d="M796.4,869.83c.05,3.33,2.18,4.7,4.65,4.7a8.81,8.81,0,0,0,3.75-.7l.42,1.77a11,11,0,0,1-4.51.84c-4.17,0-6.66-2.75-6.66-6.83s2.4-7.31,6.35-7.31c4.43,0,5.6,3.89,5.6,6.38a9,9,0,0,1-.08,1.15Zm7.22-1.76c0-1.57-.64-4-3.41-4-2.5,0-3.59,2.3-3.78,4Z"/><path class="cls-3" d="M820.76,856.28v16.38c0,1.2,0,2.57.11,3.5h-2.21l-.11-2.35h-.06a5,5,0,0,1-4.62,2.66c-3.28,0-5.8-2.78-5.8-6.89,0-4.51,2.78-7.28,6.08-7.28a4.55,4.55,0,0,1,4.09,2.07h0v-8.09Zm-2.47,11.84a4,4,0,0,0-.11-1,3.62,3.62,0,0,0-3.55-2.86c-2.55,0-4.06,2.24-4.06,5.24,0,2.74,1.34,5,4,5a3.7,3.7,0,0,0,3.61-2.94,4,4,0,0,0,.11-1.07Z"/><path class="cls-3" d="M842.48,856.28v16.38c0,1.2,0,2.57.12,3.5h-2.22l-.11-2.35h0a5,5,0,0,1-4.62,2.66c-3.28,0-5.8-2.78-5.8-6.89,0-4.51,2.77-7.28,6.08-7.28a4.51,4.51,0,0,1,4.08,2.07H840v-8.09ZM840,868.12a4.45,4.45,0,0,0-.11-1,3.63,3.63,0,0,0-3.56-2.86c-2.55,0-4.06,2.24-4.06,5.24,0,2.74,1.35,5,4,5a3.7,3.7,0,0,0,3.61-2.94,4.51,4.51,0,0,0,.11-1.07Z"/><path class="cls-3" d="M847.94,869.83c.06,3.33,2.19,4.7,4.65,4.7a8.74,8.74,0,0,0,3.75-.7l.42,1.77a11,11,0,0,1-4.5.84c-4.18,0-6.67-2.75-6.67-6.83S848,862.3,852,862.3c4.42,0,5.6,3.89,5.6,6.38a8.6,8.6,0,0,1-.09,1.15Zm7.23-1.76c0-1.57-.65-4-3.42-4-2.49,0-3.58,2.3-3.78,4Z"/><path class="cls-3" d="M861.55,862.61l2.66,7.61a34.11,34.11,0,0,1,1.09,3.47h.09c.31-1.12.7-2.24,1.15-3.47l2.63-7.61h2.57l-5.32,13.55h-2.35l-5.15-13.55Z"/><path class="cls-3" d="M876.81,858.8a1.53,1.53,0,0,1-3,0,1.5,1.5,0,0,1,1.54-1.54A1.46,1.46,0,0,1,876.81,858.8Zm-2.74,17.36V862.61h2.46v13.55Z"/><path class="cls-3" d="M890.28,875.65a9,9,0,0,1-3.89.79c-4.09,0-6.75-2.77-6.75-6.92a6.88,6.88,0,0,1,7.28-7.19,8.21,8.21,0,0,1,3.42.7l-.56,1.9a5.71,5.71,0,0,0-2.86-.64c-3.11,0-4.79,2.29-4.79,5.12,0,3.14,2,5.07,4.71,5.07a7.1,7.1,0,0,0,3-.67Z"/><path class="cls-3" d="M894.37,869.83c0,3.33,2.18,4.7,4.65,4.7a8.81,8.81,0,0,0,3.75-.7l.42,1.77a11,11,0,0,1-4.51.84c-4.17,0-6.66-2.75-6.66-6.83s2.4-7.31,6.35-7.31c4.43,0,5.6,3.89,5.6,6.38a9,9,0,0,1-.08,1.15Zm7.22-1.76c0-1.57-.64-4-3.41-4-2.5,0-3.59,2.3-3.78,4Z"/><path class="cls-3" d="M906.69,873.64a6.51,6.51,0,0,0,3.25,1c1.79,0,2.63-.9,2.63-2s-.7-1.82-2.52-2.49c-2.44-.87-3.59-2.21-3.59-3.84,0-2.18,1.77-4,4.68-4a6.72,6.72,0,0,1,3.33.84l-.61,1.79a5.3,5.3,0,0,0-2.78-.78c-1.45,0-2.26.84-2.26,1.84s.81,1.63,2.57,2.3c2.35.9,3.56,2.07,3.56,4.09,0,2.38-1.85,4.06-5.07,4.06a7.74,7.74,0,0,1-3.81-.93Z"/><g id="_Group_" data-name="&lt;Group&gt;"><ellipse id="_Ellipse_" data-name="&lt;Ellipse&gt;" class="cls-4" cx="491.15" cy="169.73" rx="35.84" ry="36.68"/><ellipse id="_Ellipse_2" data-name="&lt;Ellipse&gt;" class="cls-4" cx="491.15" cy="169.73" rx="16.42" ry="36.68"/><line id="_Path_" data-name="&lt;Path&gt;" class="cls-4" x1="455.31" y1="169.73" x2="526.99" y2="169.73"/><path class="cls-4" d="M464.37,194.1s21.84-6.26,53.56,0"/><path class="cls-4" d="M464.37,145.72s21.84,6.26,53.56,0"/></g><polyline class="cls-4" points="540.39 130.08 540.39 218 441.15 218 441.15 121.47 514.93 121.47"/><polygon class="cls-3" points="534.41 131.83 540.39 121.47 546.38 131.83 534.41 131.83"/><circle class="cls-4" cx="521.25" cy="121.9" r="6"/><line class="cls-4" x1="316.99" y1="258.68" x2="319.99" y2="258.68"/><line class="cls-5" x1="326.19" y1="258.68" x2="484.29" y2="258.68"/><polyline class="cls-4" points="487.39 258.68 490.39 258.68 490.39 255.68"/><line class="cls-6" x1="490.39" y1="250.74" x2="490.39" y2="233.47"/><line class="cls-4" x1="490.39" y1="231" x2="490.39" y2="228"/><line class="cls-4" x1="137.63" y1="144.08" x2="140.63" y2="144.08"/><line class="cls-7" x1="146.74" y1="144.08" x2="424.65" y2="144.08"/><line class="cls-4" x1="427.7" y1="144.08" x2="430.7" y2="144.08"/><line class="cls-8" x1="136.99" y1="79.24" x2="244.65" y2="79.24"/><path class="cls-4" d="M317,109.9H260.8A13.42,13.42,0,0,1,247.62,94a11,11,0,0,1,3-5.53c5.45-5.73,9.62-5.87,13.38-4.95a19.78,19.78,0,0,1,10.39-29.75,19.23,19.23,0,0,1,14.78,1A32.65,32.65,0,0,1,314.52,44.4c10.27.45,19.37,6.4,25.27,14.81,6.09,8.7,6.8,16.68,5.46,23.93.19,0,.38,0,.57,0A13.42,13.42,0,0,1,359,99.27c-1.26,6.32-7.19,10.63-13.63,10.63h-2.91"/><polygon class="cls-3" points="344.16 103.92 333.8 109.9 344.16 115.89 344.16 103.92"/><circle class="cls-4" cx="231.02" cy="811.92" r="19.45"/><path class="cls-4" d="M240.42,880h11.4v-7.72h14.1V852.74a15.5,15.5,0,0,0-15.5-15.5H209.23a15.5,15.5,0,0,0-15.5,15.5v19.54h14.1V880h10.65"/><polygon class="cls-3" points="242.17 885.99 231.81 880 242.17 874.02 242.17 885.99"/><polygon class="cls-3" points="216.73 885.99 227.09 880 216.73 874.02 216.73 885.99"/><line class="cls-4" x1="207.83" y1="872.28" x2="207.83" y2="857.73"/><line class="cls-4" x1="251.82" y1="871.5" x2="251.82" y2="857.73"/><circle class="cls-4" cx="271.92" cy="199.69" r="19.45"/><path class="cls-4" d="M281.32,267.77h11.39V260h14.11V240.5A15.51,15.51,0,0,0,291.31,225H250.13a15.5,15.5,0,0,0-15.51,15.5V260h14.1v7.73h10.65"/><polygon class="cls-3" points="283.07 273.75 272.71 267.77 283.07 261.78 283.07 273.75"/><polygon class="cls-3" points="257.62 273.75 267.99 267.77 257.62 261.78 257.62 273.75"/><line class="cls-4" x1="248.72" y1="260.04" x2="248.72" y2="245.5"/><line class="cls-4" x1="292.71" y1="259.27" x2="292.71" y2="245.5"/><path class="cls-4" d="M242.2,509.25a37.16,37.16,0,0,1,6.63,21.24h-8"/><path class="cls-4" d="M182.35,530.49h-8.1a37.3,37.3,0,0,1,56.66-31.87"/><line class="cls-4" x1="211.54" y1="493.2" x2="211.54" y2="501.88"/><line class="cls-4" x1="184.57" y1="504.74" x2="189.7" y2="509.87"/><circle class="cls-4" cx="210.8" cy="528.33" r="6"/><line class="cls-4" x1="215.26" y1="523.87" x2="253.61" y2="486.79"/><polygon class="cls-3" points="256.51 492.31 259.8 480.8 248.19 483.7 256.51 492.31"/><path class="cls-4" d="M258.43,541.43a48.15,48.15,0,1,0-93.78,0Z"/><path class="cls-4" d="M97.07,438.19H86.76a4.67,4.67,0,0,0-4.67,4.67h0a4.67,4.67,0,0,0,4.67,4.68h6a4.69,4.69,0,0,1,4.68,4.68h0a4.69,4.69,0,0,1-4.68,4.68H81.37"/><line class="cls-4" x1="89.9" y1="438.19" x2="89.9" y2="433.59"/><line class="cls-4" x1="89.9" y1="456.9" x2="89.9" y2="461.22"/><line class="cls-9" x1="358.82" y1="521.24" x2="358.82" y2="542.23"/><line class="cls-9" x1="340.64" y1="542.23" x2="377.01" y2="542.23"/><polyline class="cls-9" points="407.85 453.99 407.85 521.24 309.8 521.24 309.8 446.15 382.68 446.15"/><polygon class="cls-3" points="401.86 455.74 407.85 445.38 413.83 455.74 401.86 455.74"/><circle class="cls-9" cx="388.6" cy="446.15" r="6"/><line class="cls-9" x1="366.84" y1="505.32" x2="407.85" y2="505.32"/><line class="cls-9" x1="310.44" y1="505.32" x2="351.73" y2="505.32"/><circle class="cls-9" cx="359.26" cy="477.47" r="11.44"/><path class="cls-9" d="M383.19,480.57a24.46,24.46,0,0,0,.2-3.1,24.18,24.18,0,0,0-.2-3.09l-5.39-2.56a19.87,19.87,0,0,0-1.44-3.46l2-5.62a24.54,24.54,0,0,0-4.38-4.38l-5.62,2a19.09,19.09,0,0,0-3.46-1.43l-2.56-5.4a24,24,0,0,0-6.18,0l-2.56,5.4a18.8,18.8,0,0,0-3.46,1.43l-5.62-2a24.54,24.54,0,0,0-4.38,4.38l2,5.62a19.13,19.13,0,0,0-1.44,3.46l-5.39,2.56a24.18,24.18,0,0,0-.2,3.09,24.46,24.46,0,0,0,.2,3.1l5.39,2.55a18.83,18.83,0,0,0,1.44,3.46l-2,5.63a24.48,24.48,0,0,0,4.38,4.37l5.62-2a18.83,18.83,0,0,0,3.46,1.44l2.56,5.39a22.84,22.84,0,0,0,6.18,0l2.56-5.39a19.13,19.13,0,0,0,3.46-1.44l5.62,2a24.48,24.48,0,0,0,4.38-4.37l-2-5.63a19.55,19.55,0,0,0,1.44-3.46Z"/><polyline class="cls-9" points="561.99 450.13 561.99 482.37 472.85 482.37 472.85 452.66 549.36 452.66"/><polygon class="cls-3" points="556.01 451.88 561.99 441.52 567.98 451.88 556.01 451.88"/><rect class="cls-9" x="472.85" y="482.37" width="89.15" height="29.71"/><rect class="cls-9" x="472.85" y="512.09" width="89.15" height="29.71"/><circle class="cls-9" cx="490.37" cy="527.32" r="6"/><circle class="cls-9" cx="490.37" cy="497.23" r="6"/><circle class="cls-9" cx="490.37" cy="467.14" r="6"/><line class="cls-9" x1="509.97" y1="467.14" x2="549.38" y2="467.14"/><line class="cls-9" x1="509.97" y1="497.23" x2="549.38" y2="497.23"/><line class="cls-9" x1="509.97" y1="527.32" x2="549.38" y2="527.32"/><path class="cls-4" d="M55.68,461.22a33.25,33.25,0,1,1,62.69,6.26"/><polygon class="cls-3" points="113.94 462.82 113.83 474.79 124.25 468.91 113.94 462.82"/><circle class="cls-4" cx="88.08" cy="503.97" r="33.25"/><polyline class="cls-4" points="68.73 516.38 84.5 502.1 91.84 510.08 104.67 497.52"/><polygon class="cls-3" points="107.61 503.02 110.82 491.49 99.23 494.47 107.61 503.02"/><line class="cls-8" x1="124.43" y1="542.16" x2="153.13" y2="542.16"/><line class="cls-4" x1="274.63" y1="542.16" x2="277.63" y2="542.16"/><line class="cls-10" x1="284.05" y1="542.16" x2="306.49" y2="542.16"/><line class="cls-4" x1="309.7" y1="542.16" x2="312.7" y2="542.16"/><line class="cls-4" x1="401.91" y1="541.43" x2="404.91" y2="541.43"/><line class="cls-11" x1="410.73" y1="541.43" x2="454.37" y2="541.43"/><line class="cls-4" x1="457.28" y1="541.43" x2="460.28" y2="541.43"/><polyline class="cls-9" points="419.1 735.05 419.1 790.67 328.08 790.67 328.08 727.22 396.52 727.22"/><polygon class="cls-3" points="413.12 736.8 419.1 726.44 425.09 736.8 413.12 736.8"/><circle class="cls-9" cx="403.66" cy="727.21" r="6"/><line class="cls-9" x1="103.48" y1="795.54" x2="103.48" y2="816.37"/><line class="cls-9" x1="85.44" y1="816.37" x2="121.52" y2="816.37"/><polyline class="cls-9" points="152.13 728.87 152.13 795.54 54.84 795.54 54.84 721.03 127.16 721.03"/><polygon class="cls-3" points="146.14 730.62 152.13 720.26 158.11 730.62 146.14 730.62"/><circle class="cls-9" cx="133.03" cy="721.03" r="6"/><line class="cls-9" x1="111.44" y1="779.74" x2="152.13" y2="779.74"/><line class="cls-9" x1="55.47" y1="779.74" x2="96.44" y2="779.74"/><line class="cls-4" x1="262.85" y1="817.77" x2="265.85" y2="817.77"/><line class="cls-12" x1="271.89" y1="817.77" x2="341.33" y2="817.77"/><line class="cls-4" x1="344.35" y1="817.77" x2="347.35" y2="817.77"/><polyline class="cls-8" points="185.4 850.09 103.75 850.09 103.75 824.8"/><line class="cls-8" x1="262.85" y1="880.01" x2="462.75" y2="880.01"/><polyline class="cls-4" points="517.88 782.06 473.48 782.06 473.48 880.98 540.75 880.98 540.75 790.37"/><polygon class="cls-3" points="546.74 792.12 540.75 781.76 534.77 792.12 546.74 792.12"/><circle class="cls-4" cx="507.54" cy="864.78" r="6"/><path class="cls-9" d="M96.07,767.49a11.2,11.2,0,0,1,15.83,0"/><path class="cls-9" d="M89.84,761.26a20,20,0,0,1,28.29,0"/><path class="cls-9" d="M83.51,754.93a29,29,0,0,1,40.95,0"/><circle class="cls-9" cx="103.99" cy="779.6" r="6"/><line class="cls-4" x1="473.48" y1="864.78" x2="501.54" y2="864.78"/><line class="cls-4" x1="514.07" y1="864.78" x2="540.93" y2="864.78"/><circle class="cls-4" cx="522.65" cy="782.06" r="6"/><polyline class="cls-4" points="106.33 55.45 61.94 55.45 61.94 154.38 129.21 154.38 129.21 63.76"/><polygon class="cls-3" points="135.19 65.52 129.21 55.15 123.23 65.52 135.19 65.52"/><circle class="cls-4" cx="96" cy="138.18" r="6"/><line class="cls-4" x1="61.94" y1="138.18" x2="90" y2="138.18"/><line class="cls-4" x1="102.53" y1="138.18" x2="129.39" y2="138.18"/><circle class="cls-4" cx="111.11" cy="55.45" r="6"/><path class="cls-9" d="M319.8,790.68H424.3a0,0,0,0,1,0,0v3.47a7.27,7.27,0,0,1-7.27,7.27h-90a7.27,7.27,0,0,1-7.27-7.27v-3.47A0,0,0,0,1,319.8,790.68Z"/><circle class="cls-4" cx="321.8" cy="109.9" r="6"/><circle class="cls-4" cx="58.25" cy="467.72" r="6"/></g></svg>