<?xml version="1.0" encoding="utf-8"?>
<!-- Generator: Adobe Illustrator 22.1.0, SVG Export Plug-In . SVG Version: 6.00 Build 0)  -->
<svg version="1.1" xmlns="http://www.w3.org/2000/svg" xmlns:xlink="http://www.w3.org/1999/xlink" x="0px" y="0px" width="350px"
	 height="350px" viewBox="0 0 350 350" style="enable-background:new 0 0 350 350;" xml:space="preserve">
<style type="text/css">
	.st0{fill:#FCDDD6;}
	.st1{fill:#FBC2BA;}
	.st2{fill:#F16C51;}
	.st3{fill:#EAC8A5;}
	.st4{fill:#ECE1CE;}
	.st5{fill:#DF9926;}
	.st6{fill:none;}
	.st7{fill:#D8E7DA;}
	.st8{fill:#A8D7CD;}
	.st9{fill:#00B28F;}
	.st10{fill:#D0B5D5;}
	.st11{fill:#E6DBE6;}
	.st12{fill:#963596;}
	.st13{fill:#606060;}
	.st14{fill:#92D1FF;}
	.st15{fill:#0F9FFA;}
	.st16{fill:#BEE3FF;}
	.st17{fill:none;stroke:#D0B5D5;stroke-width:1.5572;stroke-miterlimit:10;}
	.st18{fill:none;stroke:#92D1FF;stroke-width:1.5572;stroke-miterlimit:10;}
	.st19{fill:none;stroke:#A8D7CD;stroke-width:2.3054;stroke-miterlimit:10;}
	.st20{fill:none;stroke:#EAC8A5;stroke-width:2.3054;stroke-miterlimit:10;}
	.st21{fill:none;stroke:#FBC2BA;stroke-width:1.5572;stroke-miterlimit:10;}
	.st22{display:none;}
	.st23{display:inline;}
	.st24{fill:none;stroke:#000000;stroke-width:0.1397;stroke-miterlimit:10;}
	.st25{fill:none;stroke:#020204;stroke-width:0.216;stroke-miterlimit:10;}
	.st26{fill:none;stroke:#061838;stroke-width:0.5887;stroke-miterlimit:10;}
	.st27{fill:none;stroke:#FFFFFF;stroke-width:1.5;stroke-linecap:square;stroke-miterlimit:10;}
	.st28{fill:none;stroke:#FFFFFF;stroke-width:1.4992;stroke-miterlimit:10;}
	.st29{fill:#FFFFFF;}
	.st30{fill:none;stroke:#FFFFFF;stroke-width:1.4992;}
	.st31{fill:none;stroke:#FCFCFC;stroke-width:1.5;stroke-miterlimit:10;}
	.st32{fill:#FCFCFC;}
	.st33{fill:none;stroke:#FFFFFF;stroke-width:1.4992;stroke-linecap:square;stroke-miterlimit:10;}
	.st34{fill:none;stroke:#FFFFFF;stroke-width:1.4995;stroke-miterlimit:22.9256;}
	.st35{fill:none;stroke:#FCFCFC;stroke-width:1.5;stroke-linejoin:bevel;stroke-miterlimit:10;}
	.st36{fill:none;stroke:#FFFFFF;stroke-width:1.5001;stroke-linecap:square;stroke-miterlimit:10;}
	.st37{fill:none;stroke:#FFFFFF;stroke-width:1.5;stroke-linecap:square;stroke-miterlimit:10;stroke-dasharray:5;}
	.st38{fill:none;stroke:#FFFFFF;stroke-width:1.5;stroke-miterlimit:10;}
	.st39{fill:none;stroke:#FCFCFC;stroke-width:1.5;stroke-miterlimit:10;stroke-dasharray:3.6495,3.6495;}
	.st40{fill:none;stroke:#FCFCFC;stroke-width:1.5;stroke-miterlimit:10;stroke-dasharray:3.3093,3.3093;}
	.st41{fill:none;stroke:#FFFFFF;stroke-width:1.4992;stroke-linecap:square;stroke-linejoin:bevel;stroke-miterlimit:10;}
	.st42{fill:#372261;}
	.st43{fill:#061838;}
	.st44{fill:none;stroke:#061838;stroke-width:2;stroke-miterlimit:10;}
	.st45{fill:none;stroke:#061838;stroke-width:2;stroke-linejoin:bevel;stroke-miterlimit:10;}
	.st46{fill:none;stroke:#372261;stroke-width:2;stroke-miterlimit:10;}
	.st47{fill:none;stroke:#372261;stroke-width:2;stroke-linecap:square;stroke-miterlimit:10;}
	.st48{fill:none;stroke:#061838;stroke-width:2;stroke-linecap:square;stroke-miterlimit:10;}
	.st49{fill:none;stroke:#061838;stroke-width:2;stroke-miterlimit:10;stroke-dasharray:3,4;}
	.st50{fill:none;stroke:#372261;stroke-width:2;stroke-miterlimit:10;stroke-dasharray:3.4867,3.4867;}
	.st51{fill:none;stroke:#4C0519;stroke-width:2;stroke-miterlimit:10;}
	.st52{fill:#4C0519;}
	.st53{fill:none;stroke:#4C0519;stroke-width:3;stroke-miterlimit:10;}
	.st54{fill:none;stroke:#4C0519;stroke-width:3;stroke-miterlimit:10;stroke-dasharray:6.2002,6.2002;}
	.st55{fill:none;stroke:#4C0519;stroke-width:3;stroke-miterlimit:10;stroke-dasharray:4.9356,4.9356;}
	.st56{fill:none;stroke:#4C0519;stroke-width:3;stroke-miterlimit:10;stroke-dasharray:6.1079,6.1079;}
	.st57{fill:none;stroke:#4C0519;stroke-width:3;stroke-miterlimit:10;stroke-dasharray:6;}
	.st58{fill:none;stroke:#2F1113;stroke-width:3;stroke-miterlimit:10;}
	.st59{fill:#2F1113;}
	.st60{fill:none;stroke:#2F1113;stroke-width:3;stroke-linecap:square;stroke-miterlimit:10;}
	.st61{fill:none;stroke:#2F1113;stroke-width:3;stroke-miterlimit:10;stroke-dasharray:6;}
	.st62{fill:none;stroke:#2F1113;stroke-width:3;stroke-miterlimit:10;stroke-dasharray:6.4132,6.4132;}
	.st63{fill:none;stroke:#2F1113;stroke-width:3;stroke-miterlimit:10;stroke-dasharray:5.8188,5.8188;}
	.st64{fill:none;stroke:#4C0519;stroke-width:3;stroke-linecap:square;stroke-miterlimit:10;}
	.st65{fill:none;stroke:#4C0519;stroke-width:3;stroke-miterlimit:10;stroke-dasharray:6.0387,6.0387;}
	.st66{fill:#00321D;}
	.st67{fill:none;stroke:#00321D;stroke-width:3;stroke-miterlimit:10;}
	.st68{fill:none;stroke:#00321D;stroke-width:3;stroke-linejoin:bevel;stroke-miterlimit:10;}
	.st69{fill:none;stroke:#00321D;stroke-width:3;stroke-linejoin:bevel;}
	.st70{fill:none;stroke:#FFFFFF;stroke-miterlimit:10;}
	.st71{fill:none;stroke:#FFFFFF;stroke-width:0.5;stroke-miterlimit:10;}
	.st72{fill:none;stroke:#FFFFFF;stroke-width:1.5;stroke-linejoin:bevel;stroke-miterlimit:10;}
	.st73{fill:none;stroke:#4C0519;stroke-width:2;stroke-linejoin:bevel;stroke-miterlimit:10;}
	.st74{fill:none;stroke:#4C0519;stroke-width:2;stroke-linejoin:bevel;}
	.st75{fill:none;stroke:#FCFCFC;stroke-width:1.5;stroke-linejoin:bevel;}
	.st76{fill:none;stroke:#FFFFFF;stroke-width:1.4995;stroke-linejoin:bevel;stroke-miterlimit:22.9256;}
</style>
<g id="Layer_3">
	<path class="st3" d="M220.9,134.7l-5.6-5.6l80.6-80.6c-67.6-64.7-174.3-64.7-241.9,0l82,82l-5.6,5.6l-82-82
		c-64.7,67.6-64.7,174.3,0,241.9l80.6-80.6l5.6,5.6l-80.6,80.6c67.6,64.7,174.3,64.7,241.9,0l-79.2-79.2l5.6-5.6l79.2,79.2
		c64.7-67.6,64.7-174.3,0-241.9L220.9,134.7z"/>
	<circle id="XMLID_637_" class="st4" cx="175" cy="175" r="167.9"/>
	<g>
		<path class="st5" d="M127.7,133.3L53.5,59.1c-61.9,64.8-61.9,167,0,231.8l74.2-74.2C106.7,192.9,106.7,157.1,127.7,133.3z"/>
		<path class="st5" d="M216.7,127.7l74.2-74.2c-64.8-61.9-167-61.9-231.8,0l74.2,74.2C157.1,106.7,192.9,106.7,216.7,127.7z"/>
		<path class="st5" d="M133.3,222.3l-74.2,74.2c64.8,61.9,167,61.9,231.8,0l-74.2-74.2C192.9,243.3,157.1,243.3,133.3,222.3z"/>
		<path class="st5" d="M222.3,216.7l74.2,74.2c61.9-64.8,61.9-167,0-231.8l-74.2,74.2C243.3,157.1,243.3,192.9,222.3,216.7z"/>
	</g>
</g>
<g id="Layer_4" class="st22">
	<g class="st23">
		<rect x="145.3" y="20.5" class="st24" width="10" height="10"/>
		<rect x="155.3" y="20.5" class="st24" width="10" height="10"/>
		<rect x="165.3" y="20.5" class="st24" width="10" height="10"/>
		<rect x="175.3" y="20.5" class="st24" width="10" height="10"/>
		<rect x="185.3" y="20.5" class="st24" width="10" height="10"/>
		<rect x="195.3" y="20.5" class="st24" width="10" height="10"/>
		<rect x="145.3" y="30.5" class="st24" width="10" height="10"/>
		<rect x="155.3" y="30.5" class="st24" width="10" height="10"/>
		<rect x="165.3" y="30.5" class="st24" width="10" height="10"/>
		<rect x="175.3" y="30.5" class="st24" width="10" height="10"/>
		<rect x="185.3" y="30.5" class="st24" width="10" height="10"/>
		<rect x="195.3" y="30.5" class="st24" width="10" height="10"/>
		<rect x="145.3" y="40.5" class="st24" width="10" height="10"/>
		<rect x="155.3" y="40.5" class="st24" width="10" height="10"/>
		<rect x="165.3" y="40.5" class="st24" width="10" height="10"/>
		<rect x="175.3" y="40.5" class="st24" width="10" height="10"/>
		<rect x="185.3" y="40.5" class="st24" width="10" height="10"/>
		<rect x="195.3" y="40.5" class="st24" width="10" height="10"/>
		<rect x="145.3" y="50.5" class="st24" width="10" height="10"/>
		<rect x="155.3" y="50.5" class="st24" width="10" height="10"/>
		<rect x="165.3" y="50.5" class="st24" width="10" height="10"/>
		<rect x="175.3" y="50.5" class="st24" width="10" height="10"/>
		<rect x="185.3" y="50.5" class="st24" width="10" height="10"/>
		<rect x="195.3" y="50.5" class="st24" width="10" height="10"/>
		<rect x="145.3" y="60.5" class="st24" width="10" height="10"/>
		<rect x="155.3" y="60.5" class="st24" width="10" height="10"/>
		<rect x="165.3" y="60.5" class="st24" width="10" height="10"/>
		<rect x="175.3" y="60.5" class="st24" width="10" height="10"/>
		<rect x="185.3" y="60.5" class="st24" width="10" height="10"/>
		<rect x="195.3" y="60.5" class="st24" width="10" height="10"/>
		<rect x="145.3" y="70.5" class="st24" width="10" height="10"/>
		<rect x="155.3" y="70.5" class="st24" width="10" height="10"/>
		<rect x="165.3" y="70.5" class="st24" width="10" height="10"/>
		<rect x="175.3" y="70.5" class="st24" width="10" height="10"/>
		<rect x="185.3" y="70.5" class="st24" width="10" height="10"/>
		<rect x="195.3" y="70.5" class="st24" width="10" height="10"/>
		<rect x="145.3" y="80.5" class="st24" width="10" height="10"/>
		<rect x="155.3" y="80.5" class="st24" width="10" height="10"/>
		<rect x="165.3" y="80.5" class="st24" width="10" height="10"/>
		<rect x="175.3" y="80.5" class="st24" width="10" height="10"/>
		<rect x="185.3" y="80.5" class="st24" width="10" height="10"/>
		<rect x="195.3" y="80.5" class="st24" width="10" height="10"/>
	</g>
	<g class="st23">
		<rect x="143.3" y="236.6" class="st24" width="10" height="10"/>
		<rect x="153.3" y="236.6" class="st24" width="10" height="10"/>
		<rect x="163.3" y="236.6" class="st24" width="10" height="10"/>
		<rect x="173.3" y="236.6" class="st24" width="10" height="10"/>
		<rect x="183.3" y="236.6" class="st24" width="10" height="10"/>
		<rect x="193.3" y="236.6" class="st24" width="10" height="10"/>
		<rect x="143.3" y="246.6" class="st24" width="10" height="10"/>
		<rect x="153.3" y="246.6" class="st24" width="10" height="10"/>
		<rect x="163.3" y="246.6" class="st24" width="10" height="10"/>
		<rect x="173.3" y="246.6" class="st24" width="10" height="10"/>
		<rect x="183.3" y="246.6" class="st24" width="10" height="10"/>
		<rect x="193.3" y="246.6" class="st24" width="10" height="10"/>
		<rect x="143.3" y="256.6" class="st24" width="10" height="10"/>
		<rect x="153.3" y="256.6" class="st24" width="10" height="10"/>
		<rect x="163.3" y="256.6" class="st24" width="10" height="10"/>
		<rect x="173.3" y="256.6" class="st24" width="10" height="10"/>
		<rect x="183.3" y="256.6" class="st24" width="10" height="10"/>
		<rect x="193.3" y="256.6" class="st24" width="10" height="10"/>
		<rect x="143.3" y="266.6" class="st24" width="10" height="10"/>
		<rect x="153.3" y="266.6" class="st24" width="10" height="10"/>
		<rect x="163.3" y="266.6" class="st24" width="10" height="10"/>
		<rect x="173.3" y="266.6" class="st24" width="10" height="10"/>
		<rect x="183.3" y="266.6" class="st24" width="10" height="10"/>
		<rect x="193.3" y="266.6" class="st24" width="10" height="10"/>
		<rect x="143.3" y="276.6" class="st24" width="10" height="10"/>
		<rect x="153.3" y="276.6" class="st24" width="10" height="10"/>
		<rect x="163.3" y="276.6" class="st24" width="10" height="10"/>
		<rect x="173.3" y="276.6" class="st24" width="10" height="10"/>
		<rect x="183.3" y="276.6" class="st24" width="10" height="10"/>
		<rect x="193.3" y="276.6" class="st24" width="10" height="10"/>
		<rect x="143.3" y="286.6" class="st24" width="10" height="10"/>
		<rect x="153.3" y="286.6" class="st24" width="10" height="10"/>
		<rect x="163.3" y="286.6" class="st24" width="10" height="10"/>
		<rect x="173.3" y="286.6" class="st24" width="10" height="10"/>
		<rect x="183.3" y="286.6" class="st24" width="10" height="10"/>
		<rect x="193.3" y="286.6" class="st24" width="10" height="10"/>
		<rect x="143.3" y="296.6" class="st24" width="10" height="10"/>
		<rect x="153.3" y="296.6" class="st24" width="10" height="10"/>
		<rect x="163.3" y="296.6" class="st24" width="10" height="10"/>
		<rect x="173.3" y="296.6" class="st24" width="10" height="10"/>
		<rect x="183.3" y="296.6" class="st24" width="10" height="10"/>
		<rect x="193.3" y="296.6" class="st24" width="10" height="10"/>
	</g>
	<g class="st23">
		<rect x="33.9" y="128.2" class="st24" width="10" height="10"/>
		<rect x="43.9" y="128.2" class="st24" width="10" height="10"/>
		<rect x="53.9" y="128.2" class="st24" width="10" height="10"/>
		<rect x="63.9" y="128.2" class="st24" width="10" height="10"/>
		<rect x="73.9" y="128.2" class="st24" width="10" height="10"/>
		<rect x="83.9" y="128.2" class="st24" width="10" height="10"/>
		<rect x="33.9" y="138.2" class="st24" width="10" height="10"/>
		<rect x="43.9" y="138.2" class="st24" width="10" height="10"/>
		<rect x="53.9" y="138.2" class="st24" width="10" height="10"/>
		<rect x="63.9" y="138.2" class="st24" width="10" height="10"/>
		<rect x="73.9" y="138.2" class="st24" width="10" height="10"/>
		<rect x="83.9" y="138.2" class="st24" width="10" height="10"/>
		<rect x="33.9" y="148.2" class="st24" width="10" height="10"/>
		<rect x="43.9" y="148.2" class="st24" width="10" height="10"/>
		<rect x="53.9" y="148.2" class="st24" width="10" height="10"/>
		<rect x="63.9" y="148.2" class="st24" width="10" height="10"/>
		<rect x="73.9" y="148.2" class="st24" width="10" height="10"/>
		<rect x="83.9" y="148.2" class="st24" width="10" height="10"/>
		<rect x="33.9" y="158.2" class="st24" width="10" height="10"/>
		<rect x="43.9" y="158.2" class="st24" width="10" height="10"/>
		<rect x="53.9" y="158.2" class="st24" width="10" height="10"/>
		<rect x="63.9" y="158.2" class="st24" width="10" height="10"/>
		<rect x="73.9" y="158.2" class="st24" width="10" height="10"/>
		<rect x="83.9" y="158.2" class="st24" width="10" height="10"/>
		<rect x="33.9" y="168.2" class="st24" width="10" height="10"/>
		<rect x="43.9" y="168.2" class="st24" width="10" height="10"/>
		<rect x="53.9" y="168.2" class="st24" width="10" height="10"/>
		<rect x="63.9" y="168.2" class="st24" width="10" height="10"/>
		<rect x="73.9" y="168.2" class="st24" width="10" height="10"/>
		<rect x="83.9" y="168.2" class="st24" width="10" height="10"/>
		<rect x="33.9" y="178.2" class="st24" width="10" height="10"/>
		<rect x="43.9" y="178.2" class="st24" width="10" height="10"/>
		<rect x="53.9" y="178.2" class="st24" width="10" height="10"/>
		<rect x="63.9" y="178.2" class="st24" width="10" height="10"/>
		<rect x="73.9" y="178.2" class="st24" width="10" height="10"/>
		<rect x="83.9" y="178.2" class="st24" width="10" height="10"/>
		<rect x="33.9" y="188.2" class="st24" width="10" height="10"/>
		<rect x="43.9" y="188.2" class="st24" width="10" height="10"/>
		<rect x="53.9" y="188.2" class="st24" width="10" height="10"/>
		<rect x="63.9" y="188.2" class="st24" width="10" height="10"/>
		<rect x="73.9" y="188.2" class="st24" width="10" height="10"/>
		<rect x="83.9" y="188.2" class="st24" width="10" height="10"/>
	</g>
	<g class="st23">
		<rect x="259.4" y="138.2" class="st24" width="10" height="10"/>
		<rect x="269.4" y="138.2" class="st24" width="10" height="10"/>
		<rect x="279.4" y="138.2" class="st24" width="10" height="10"/>
		<rect x="289.4" y="138.2" class="st24" width="10" height="10"/>
		<rect x="299.4" y="138.2" class="st24" width="10" height="10"/>
		<rect x="309.4" y="138.2" class="st24" width="10" height="10"/>
		<rect x="259.4" y="148.2" class="st24" width="10" height="10"/>
		<rect x="269.4" y="148.2" class="st24" width="10" height="10"/>
		<rect x="279.4" y="148.2" class="st24" width="10" height="10"/>
		<rect x="289.4" y="148.2" class="st24" width="10" height="10"/>
		<rect x="299.4" y="148.2" class="st24" width="10" height="10"/>
		<rect x="309.4" y="148.2" class="st24" width="10" height="10"/>
		<rect x="259.4" y="158.2" class="st24" width="10" height="10"/>
		<rect x="269.4" y="158.2" class="st24" width="10" height="10"/>
		<rect x="279.4" y="158.2" class="st24" width="10" height="10"/>
		<rect x="289.4" y="158.2" class="st24" width="10" height="10"/>
		<rect x="299.4" y="158.2" class="st24" width="10" height="10"/>
		<rect x="309.4" y="158.2" class="st24" width="10" height="10"/>
		<rect x="259.4" y="168.2" class="st24" width="10" height="10"/>
		<rect x="269.4" y="168.2" class="st24" width="10" height="10"/>
		<rect x="279.4" y="168.2" class="st24" width="10" height="10"/>
		<rect x="289.4" y="168.2" class="st24" width="10" height="10"/>
		<rect x="299.4" y="168.2" class="st24" width="10" height="10"/>
		<rect x="309.4" y="168.2" class="st24" width="10" height="10"/>
		<rect x="259.4" y="178.2" class="st24" width="10" height="10"/>
		<rect x="269.4" y="178.2" class="st24" width="10" height="10"/>
		<rect x="279.4" y="178.2" class="st24" width="10" height="10"/>
		<rect x="289.4" y="178.2" class="st24" width="10" height="10"/>
		<rect x="299.4" y="178.2" class="st24" width="10" height="10"/>
		<rect x="309.4" y="178.2" class="st24" width="10" height="10"/>
		<rect x="259.4" y="188.2" class="st24" width="10" height="10"/>
		<rect x="269.4" y="188.2" class="st24" width="10" height="10"/>
		<rect x="279.4" y="188.2" class="st24" width="10" height="10"/>
		<rect x="289.4" y="188.2" class="st24" width="10" height="10"/>
		<rect x="299.4" y="188.2" class="st24" width="10" height="10"/>
		<rect x="309.4" y="188.2" class="st24" width="10" height="10"/>
		<rect x="259.4" y="198.2" class="st24" width="10" height="10"/>
		<rect x="269.4" y="198.2" class="st24" width="10" height="10"/>
		<rect x="279.4" y="198.2" class="st24" width="10" height="10"/>
		<rect x="289.4" y="198.2" class="st24" width="10" height="10"/>
		<rect x="299.4" y="198.2" class="st24" width="10" height="10"/>
		<rect x="309.4" y="198.2" class="st24" width="10" height="10"/>
	</g>
</g>
<g id="Layer_1">
	<g id="XMLID_613_">
		<g id="XMLID_614_">
			<line id="XMLID_636_" class="st27" x1="164.9" y1="76.9" x2="182.1" y2="76.9"/>
			<g id="XMLID_615_">
				<line id="XMLID_631_" class="st28" x1="173.6" y1="67.4" x2="173.6" y2="76.5"/>
				<g id="XMLID_621_">
					<g>
						<polyline class="st28" points="197.3,35.7 197.3,67.4 149.9,67.4 149.9,31.8 186.1,31.8 						"/>
						<g>
							<polygon class="st29" points="194.3,36.5 197.3,31.4 200.3,36.5 							"/>
						</g>
					</g>
				</g>
				<path id="XMLID_617_" class="st30" d="M187.3,33.5L187.3,33.5c-1.5-0.9-1.5-3,0-3.9c1.5-0.9,3.4,0.2,3.4,1.9
					C190.7,33.3,188.8,34.4,187.3,33.5z"/>
			</g>
		</g>
	</g>
	<polyline class="st31" points="158.1,39 158.1,59.7 189.5,59.7 	"/>
	<rect x="163.5" y="54.4" class="st31" width="5.7" height="5.3"/>
	<rect x="169.2" y="50.7" class="st31" width="5.7" height="9"/>
	<rect x="174.8" y="48.2" class="st31" width="5.7" height="11.5"/>
	<rect x="180.5" y="42.3" class="st31" width="5.7" height="17.4"/>
	<g>
		<path class="st29" d="M152.6,83.6c0.4-0.1,1.3-0.2,2-0.2c1,0,1.7,0.1,2.2,0.5c0.5,0.3,0.8,0.8,0.8,1.4c0,0.7-0.4,1.4-1.3,1.7v0
			c0.8,0.2,1.5,0.8,1.5,1.9c0,0.7-0.3,1.2-0.7,1.6c-0.5,0.5-1.4,0.7-2.8,0.7c-0.8,0-1.4-0.1-1.7-0.1V83.6z M153.9,86.6h0.7
			c1,0,1.5-0.5,1.5-1.1c0-0.7-0.5-1-1.4-1c-0.4,0-0.6,0-0.8,0.1V86.6z M153.9,90.1c0.2,0,0.4,0,0.7,0c0.9,0,1.7-0.3,1.7-1.3
			c0-0.9-0.8-1.3-1.7-1.3h-0.7V90.1z"/>
		<path class="st29" d="M164,89.5c0,0.7,0,1.2,0,1.7h-1.2l-0.1-0.8h0c-0.2,0.4-0.8,1-1.8,1c-1,0-1.9-0.6-1.9-2.4v-3.3h1.4v3
			c0,0.9,0.3,1.5,1,1.5c0.6,0,0.9-0.4,1.1-0.8c0-0.1,0.1-0.3,0.1-0.4v-3.3h1.4V89.5z"/>
		<path class="st29" d="M165.5,89.9c0.3,0.2,0.9,0.4,1.4,0.4c0.6,0,0.9-0.3,0.9-0.6c0-0.4-0.2-0.6-0.9-0.8c-1.1-0.4-1.5-1-1.5-1.6
			c0-1,0.8-1.7,2.1-1.7c0.6,0,1.1,0.2,1.5,0.3l-0.3,1c-0.2-0.1-0.7-0.3-1.2-0.3c-0.5,0-0.8,0.2-0.8,0.6c0,0.4,0.3,0.5,1,0.8
			c1,0.4,1.5,0.9,1.5,1.7c0,1-0.8,1.7-2.3,1.7c-0.7,0-1.3-0.2-1.7-0.4L165.5,89.9z"/>
		<path class="st29" d="M171.8,84c0,0.4-0.3,0.8-0.8,0.8c-0.5,0-0.8-0.3-0.8-0.8c0-0.4,0.3-0.8,0.8-0.8
			C171.5,83.3,171.8,83.6,171.8,84z M170.3,91.1v-5.5h1.4v5.5H170.3z"/>
		<path class="st29" d="M173.2,87.2c0-0.6,0-1.2,0-1.7h1.2l0.1,0.8h0c0.2-0.4,0.8-1,1.8-1c1,0,2,0.6,2,2.4v3.3h-1.4V88
			c0-0.8-0.3-1.4-1.1-1.4c-0.6,0-0.9,0.4-1.1,0.8c0,0.1-0.1,0.3-0.1,0.5v3.3h-1.4V87.2z"/>
		<path class="st29" d="M180.7,88.8c0,1,0.8,1.4,1.7,1.4c0.6,0,1.1-0.1,1.5-0.3l0.2,1c-0.5,0.2-1.1,0.3-1.9,0.3
			c-1.8,0-2.9-1.1-2.9-2.8c0-1.5,0.9-3,2.7-3c1.8,0,2.4,1.5,2.4,2.7c0,0.3,0,0.5,0,0.6H180.7z M183.1,87.8c0-0.5-0.2-1.4-1.1-1.4
			c-0.9,0-1.2,0.8-1.3,1.4H183.1z"/>
		<path class="st29" d="M185.5,89.9c0.3,0.2,0.9,0.4,1.4,0.4c0.6,0,0.9-0.3,0.9-0.6c0-0.4-0.2-0.6-0.9-0.8c-1.1-0.4-1.5-1-1.5-1.6
			c0-1,0.8-1.7,2.1-1.7c0.6,0,1.1,0.2,1.5,0.3l-0.3,1c-0.2-0.1-0.7-0.3-1.2-0.3c-0.5,0-0.8,0.2-0.8,0.6c0,0.4,0.3,0.5,1,0.8
			c1,0.4,1.5,0.9,1.5,1.7c0,1-0.8,1.7-2.3,1.7c-0.7,0-1.3-0.2-1.7-0.4L185.5,89.9z"/>
		<path class="st29" d="M190.3,89.9c0.3,0.2,0.9,0.4,1.4,0.4c0.6,0,0.9-0.3,0.9-0.6c0-0.4-0.2-0.6-0.9-0.8c-1.1-0.4-1.5-1-1.5-1.6
			c0-1,0.8-1.7,2.1-1.7c0.6,0,1.1,0.2,1.5,0.3l-0.3,1c-0.2-0.1-0.7-0.3-1.2-0.3c-0.5,0-0.8,0.2-0.8,0.6c0,0.4,0.3,0.5,1,0.8
			c1,0.4,1.5,0.9,1.5,1.7c0,1-0.8,1.7-2.3,1.7c-0.7,0-1.3-0.2-1.7-0.4L190.3,89.9z"/>
		<path class="st29" d="M147.1,94.7v6.5c0,0.6,0,1.2,0,1.6h-1.3l-0.1-0.9h0c-0.3,0.6-1,1-1.8,1c-1.3,0-2.4-1.1-2.4-2.8
			c0-1.9,1.1-3,2.5-3c0.8,0,1.3,0.3,1.6,0.7h0v-3.1H147.1z M145.7,99.6c0-0.1,0-0.3,0-0.4c-0.1-0.5-0.6-1-1.2-1
			c-0.9,0-1.4,0.8-1.4,1.8c0,1,0.5,1.8,1.4,1.8c0.6,0,1.1-0.4,1.2-1c0-0.1,0-0.3,0-0.4V99.6z"/>
		<path class="st29" d="M149.6,100.4c0,1,0.8,1.4,1.7,1.4c0.6,0,1.1-0.1,1.5-0.3l0.2,1c-0.5,0.2-1.1,0.3-1.9,0.3
			c-1.8,0-2.9-1.1-2.9-2.8c0-1.5,0.9-3,2.7-3c1.8,0,2.4,1.5,2.4,2.7c0,0.3,0,0.5,0,0.6H149.6z M152,99.5c0-0.5-0.2-1.4-1.1-1.4
			c-0.9,0-1.2,0.8-1.3,1.4H152z"/>
		<path class="st29" d="M155.3,97.3l0.9,2.8c0.2,0.5,0.3,0.9,0.4,1.4h0c0.1-0.5,0.2-0.9,0.4-1.4l0.9-2.8h1.5l-2.1,5.5h-1.4l-2.1-5.5
			H155.3z"/>
		<path class="st29" d="M161.1,100.4c0,1,0.8,1.4,1.7,1.4c0.6,0,1.1-0.1,1.5-0.3l0.2,1c-0.5,0.2-1.1,0.3-1.9,0.3
			c-1.8,0-2.9-1.1-2.9-2.8c0-1.5,0.9-3,2.7-3c1.8,0,2.4,1.5,2.4,2.7c0,0.3,0,0.5,0,0.6H161.1z M163.5,99.5c0-0.5-0.2-1.4-1.1-1.4
			c-0.9,0-1.2,0.8-1.3,1.4H163.5z"/>
		<path class="st29" d="M166,94.7h1.4v8.1H166V94.7z"/>
		<path class="st29" d="M174.2,100c0,2-1.4,2.9-2.8,2.9c-1.6,0-2.8-1.1-2.8-2.9c0-1.8,1.2-2.9,2.9-2.9
			C173.1,97.1,174.2,98.3,174.2,100z M170,100.1c0,1.1,0.5,1.9,1.4,1.9c0.8,0,1.4-0.8,1.4-1.9c0-0.9-0.4-1.9-1.3-1.9
			C170.4,98.2,170,99.1,170,100.1z"/>
		<path class="st29" d="M175.3,99.1c0-0.7,0-1.3,0-1.8h1.2l0.1,0.9h0c0.4-0.6,1.1-1,1.9-1c1.3,0,2.3,1.1,2.3,2.8c0,2-1.3,3-2.5,3
			c-0.7,0-1.3-0.3-1.6-0.7h0v2.9h-1.4V99.1z M176.7,100.5c0,0.1,0,0.3,0,0.4c0.1,0.6,0.6,1,1.2,1c0.9,0,1.4-0.7,1.4-1.8
			c0-1-0.5-1.8-1.4-1.8c-0.6,0-1.1,0.4-1.3,1c0,0.1-0.1,0.2-0.1,0.4V100.5z"/>
		<path class="st29" d="M182,98.9c0-0.6,0-1.2,0-1.7h1.2l0.1,0.8h0c0.3-0.4,0.8-0.9,1.7-0.9c0.7,0,1.3,0.4,1.5,1h0
			c0.2-0.3,0.4-0.5,0.7-0.7c0.3-0.2,0.7-0.3,1.1-0.3c0.9,0,1.9,0.6,1.9,2.4v3.3h-1.4v-3.1c0-0.9-0.3-1.5-1-1.5c-0.5,0-0.8,0.3-1,0.7
			c0,0.1-0.1,0.3-0.1,0.5v3.3h-1.4v-3.2c0-0.8-0.3-1.3-1-1.3c-0.5,0-0.9,0.4-1,0.8c-0.1,0.1-0.1,0.3-0.1,0.5v3.3H182V98.9z"/>
		<path class="st29" d="M192.6,100.4c0,1,0.8,1.4,1.7,1.4c0.6,0,1.1-0.1,1.5-0.3l0.2,1c-0.5,0.2-1.1,0.3-1.9,0.3
			c-1.8,0-2.9-1.1-2.9-2.8c0-1.5,0.9-3,2.7-3c1.8,0,2.4,1.5,2.4,2.7c0,0.3,0,0.5,0,0.6H192.6z M195.1,99.5c0-0.5-0.2-1.4-1.1-1.4
			c-0.9,0-1.2,0.8-1.3,1.4H195.1z"/>
		<path class="st29" d="M197.5,98.9c0-0.6,0-1.2,0-1.7h1.2l0.1,0.8h0c0.2-0.4,0.8-1,1.8-1c1,0,2,0.6,2,2.4v3.3h-1.4v-3.1
			c0-0.8-0.3-1.4-1.1-1.4c-0.6,0-0.9,0.4-1.1,0.8c0,0.1-0.1,0.3-0.1,0.5v3.3h-1.4V98.9z"/>
		<path class="st29" d="M205.6,95.7v1.6h1.3v1h-1.3v2.4c0,0.7,0.2,1,0.7,1c0.2,0,0.4,0,0.5-0.1l0,1.1c-0.2,0.1-0.6,0.1-1,0.1
			c-0.5,0-0.9-0.2-1.2-0.5c-0.3-0.3-0.4-0.8-0.4-1.5v-2.6h-0.8v-1h0.8V96L205.6,95.7z"/>
	</g>
	<g>
		<path class="st29" d="M251.1,212.2c0.5,0.3,1.1,0.5,1.9,0.5c0.9,0,1.4-0.4,1.4-1c0-0.6-0.4-0.9-1.4-1.3c-1.3-0.5-2.1-1.1-2.1-2.2
			c0-1.3,1-2.2,2.7-2.2c0.8,0,1.4,0.2,1.8,0.4l-0.3,1.1c-0.3-0.1-0.8-0.4-1.5-0.4c-0.9,0-1.3,0.5-1.3,0.9c0,0.6,0.4,0.9,1.5,1.3
			c1.3,0.5,2,1.2,2,2.3c0,1.2-0.9,2.3-2.9,2.3c-0.8,0-1.7-0.2-2.1-0.5L251.1,212.2z"/>
		<path class="st29" d="M260.1,213.7l-0.1-0.6h0c-0.3,0.4-0.9,0.7-1.6,0.7c-1.1,0-1.7-0.8-1.7-1.7c0-1.4,1.2-2.1,3.3-2.1V210
			c0-0.4-0.1-1-1.1-1c-0.5,0-1.1,0.2-1.5,0.4l-0.3-0.9c0.4-0.3,1.1-0.5,2-0.5c1.8,0,2.3,1.1,2.3,2.3v2c0,0.5,0,1,0.1,1.3H260.1z
			 M259.9,211c-1,0-1.9,0.2-1.9,1c0,0.5,0.4,0.8,0.8,0.8c0.6,0,1-0.4,1.1-0.8c0-0.1,0-0.2,0-0.3V211z"/>
		<path class="st29" d="M262.8,205.6h1.4v8.1h-1.4V205.6z"/>
		<path class="st29" d="M266.7,211.4c0,1,0.8,1.4,1.7,1.4c0.6,0,1.1-0.1,1.5-0.3l0.2,1c-0.5,0.2-1.1,0.3-1.9,0.3
			c-1.8,0-2.9-1.1-2.9-2.8c0-1.5,0.9-3,2.7-3c1.8,0,2.4,1.5,2.4,2.7c0,0.3,0,0.5,0,0.6H266.7z M269.1,210.4c0-0.5-0.2-1.4-1.1-1.4
			c-0.9,0-1.2,0.8-1.3,1.4H269.1z"/>
		<path class="st29" d="M271.5,212.4c0.3,0.2,0.9,0.4,1.4,0.4c0.6,0,0.9-0.3,0.9-0.6c0-0.4-0.2-0.6-0.9-0.8c-1.1-0.4-1.5-1-1.5-1.6
			c0-1,0.8-1.7,2.1-1.7c0.6,0,1.1,0.2,1.5,0.3l-0.3,1c-0.2-0.1-0.7-0.3-1.2-0.3c-0.5,0-0.8,0.2-0.8,0.6c0,0.4,0.3,0.5,1,0.8
			c1,0.4,1.5,0.9,1.5,1.7c0,1-0.8,1.7-2.3,1.7c-0.7,0-1.3-0.2-1.7-0.4L271.5,212.4z"/>
		<path class="st29" d="M280.2,206.6c0,0.4-0.3,0.8-0.8,0.8c-0.5,0-0.8-0.3-0.8-0.8c0-0.4,0.3-0.8,0.8-0.8
			C279.9,205.9,280.2,206.2,280.2,206.6z M278.7,213.7v-5.5h1.4v5.5H278.7z"/>
		<path class="st29" d="M281.6,209.8c0-0.6,0-1.2,0-1.7h1.2l0.1,0.8h0c0.2-0.4,0.8-1,1.8-1c1,0,2,0.6,2,2.4v3.3h-1.4v-3.1
			c0-0.8-0.3-1.4-1.1-1.4c-0.6,0-0.9,0.4-1.1,0.8c0,0.1-0.1,0.3-0.1,0.5v3.3h-1.4V209.8z"/>
		<path class="st29" d="M288.8,208.2l0.9,2.8c0.2,0.5,0.3,0.9,0.4,1.4h0c0.1-0.5,0.2-0.9,0.4-1.4l0.9-2.8h1.5l-2.1,5.5h-1.4
			l-2.1-5.5H288.8z"/>
		<path class="st29" d="M294.6,211.4c0,1,0.8,1.4,1.7,1.4c0.6,0,1.1-0.1,1.5-0.3l0.2,1c-0.5,0.2-1.1,0.3-1.9,0.3
			c-1.8,0-2.9-1.1-2.9-2.8c0-1.5,0.9-3,2.7-3c1.8,0,2.4,1.5,2.4,2.7c0,0.3,0,0.5,0,0.6H294.6z M297,210.4c0-0.5-0.2-1.4-1.1-1.4
			c-0.9,0-1.2,0.8-1.3,1.4H297z"/>
		<path class="st29" d="M299.5,209.8c0-0.6,0-1.2,0-1.7h1.2l0.1,0.8h0c0.2-0.4,0.8-1,1.8-1c1,0,2,0.6,2,2.4v3.3h-1.4v-3.1
			c0-0.8-0.3-1.4-1.1-1.4c-0.6,0-0.9,0.4-1.1,0.8c0,0.1-0.1,0.3-0.1,0.5v3.3h-1.4V209.8z"/>
		<path class="st29" d="M307.5,206.6v1.6h1.3v1h-1.3v2.4c0,0.7,0.2,1,0.7,1c0.2,0,0.4,0,0.5-0.1l0,1.1c-0.2,0.1-0.6,0.1-1,0.1
			c-0.5,0-0.9-0.2-1.2-0.5c-0.3-0.3-0.4-0.8-0.4-1.5v-2.6h-0.8v-1h0.8v-1.3L307.5,206.6z"/>
		<path class="st29" d="M315.1,210.9c0,2-1.4,2.9-2.8,2.9c-1.6,0-2.8-1.1-2.8-2.9c0-1.8,1.2-2.9,2.9-2.9
			C314,208.1,315.1,209.2,315.1,210.9z M310.9,211c0,1.1,0.5,1.9,1.4,1.9c0.8,0,1.4-0.8,1.4-1.9c0-0.9-0.4-1.9-1.3-1.9
			C311.3,209.1,310.9,210,310.9,211z"/>
		<path class="st29" d="M316.3,210c0-0.8,0-1.3,0-1.8h1.2l0,1.1h0c0.3-0.8,0.9-1.2,1.5-1.2c0.1,0,0.2,0,0.3,0v1.3
			c-0.1,0-0.2,0-0.4,0c-0.7,0-1.1,0.4-1.3,1.1c0,0.1,0,0.3,0,0.4v2.9h-1.4V210z"/>
		<path class="st29" d="M321.4,208.2l1,3c0.1,0.3,0.2,0.8,0.3,1.1h0c0.1-0.3,0.2-0.7,0.3-1.1l0.9-3h1.5l-1.4,3.8
			c-0.8,2.1-1.3,3-1.9,3.6c-0.5,0.5-1.1,0.7-1.5,0.7l-0.3-1.2c0.2-0.1,0.5-0.2,0.8-0.4c0.3-0.2,0.6-0.5,0.8-0.9
			c0.1-0.1,0.1-0.2,0.1-0.3c0-0.1,0-0.1-0.1-0.3l-2-5.1H321.4z"/>
		<path class="st29" d="M255.6,221.5c0-0.6,0-1.2,0-1.7h1.2l0.1,0.8h0c0.3-0.4,0.8-0.9,1.7-0.9c0.7,0,1.3,0.4,1.5,1h0
			c0.2-0.3,0.4-0.5,0.7-0.7c0.3-0.2,0.7-0.3,1.1-0.3c0.9,0,1.9,0.6,1.9,2.4v3.3h-1.4v-3.1c0-0.9-0.3-1.5-1-1.5c-0.5,0-0.8,0.3-1,0.7
			c0,0.1-0.1,0.3-0.1,0.5v3.3H259v-3.2c0-0.8-0.3-1.3-1-1.3c-0.5,0-0.9,0.4-1,0.8c-0.1,0.1-0.1,0.3-0.1,0.5v3.3h-1.4V221.5z"/>
		<path class="st29" d="M268.4,225.4l-0.1-0.6h0c-0.3,0.4-0.9,0.7-1.6,0.7c-1.1,0-1.7-0.8-1.7-1.7c0-1.4,1.2-2.1,3.3-2.1v-0.1
			c0-0.4-0.1-1-1.1-1c-0.5,0-1.1,0.2-1.5,0.4l-0.3-0.9c0.4-0.3,1.1-0.5,2-0.5c1.8,0,2.3,1.1,2.3,2.3v2c0,0.5,0,1,0.1,1.3H268.4z
			 M268.2,222.7c-1,0-1.9,0.2-1.9,1c0,0.5,0.4,0.8,0.8,0.8c0.6,0,1-0.4,1.1-0.8c0-0.1,0-0.2,0-0.3V222.7z"/>
		<path class="st29" d="M271,221.5c0-0.6,0-1.2,0-1.7h1.2l0.1,0.8h0c0.2-0.4,0.8-1,1.8-1c1,0,2,0.6,2,2.4v3.3h-1.4v-3.1
			c0-0.8-0.3-1.4-1.1-1.4c-0.6,0-0.9,0.4-1.1,0.8c0,0.1-0.1,0.3-0.1,0.5v3.3H271V221.5z"/>
		<path class="st29" d="M280.7,225.4l-0.1-0.6h0c-0.3,0.4-0.9,0.7-1.6,0.7c-1.1,0-1.7-0.8-1.7-1.7c0-1.4,1.2-2.1,3.3-2.1v-0.1
			c0-0.4-0.1-1-1.1-1c-0.5,0-1.1,0.2-1.5,0.4l-0.3-0.9c0.4-0.3,1.1-0.5,2-0.5c1.8,0,2.3,1.1,2.3,2.3v2c0,0.5,0,1,0.1,1.3H280.7z
			 M280.5,222.7c-1,0-1.9,0.2-1.9,1c0,0.5,0.4,0.8,0.8,0.8c0.6,0,1-0.4,1.1-0.8c0-0.1,0-0.2,0-0.3V222.7z"/>
		<path class="st29" d="M288.4,219.9c0,0.4,0,0.8,0,1.6v3.1c0,1.2-0.2,2-0.8,2.5c-0.6,0.5-1.4,0.7-2.1,0.7c-0.7,0-1.5-0.1-1.9-0.4
			l0.3-1.1c0.4,0.2,0.9,0.4,1.6,0.4c0.9,0,1.6-0.5,1.6-1.7v-0.5h0c-0.3,0.5-0.9,0.8-1.6,0.8c-1.4,0-2.4-1.1-2.4-2.7
			c0-1.8,1.2-2.9,2.5-2.9c0.8,0,1.3,0.4,1.6,0.9h0l0.1-0.7H288.4z M286.9,222.1c0-0.1,0-0.3,0-0.4c-0.1-0.5-0.5-0.9-1.1-0.9
			c-0.8,0-1.4,0.7-1.4,1.8c0,0.9,0.5,1.7,1.4,1.7c0.5,0,1-0.3,1.1-0.8c0-0.1,0.1-0.3,0.1-0.5V222.1z"/>
		<path class="st29" d="M290.8,223c0,1,0.8,1.4,1.7,1.4c0.6,0,1.1-0.1,1.5-0.3l0.2,1c-0.5,0.2-1.1,0.3-1.9,0.3
			c-1.8,0-2.9-1.1-2.9-2.8c0-1.5,0.9-3,2.7-3c1.8,0,2.4,1.5,2.4,2.7c0,0.3,0,0.5,0,0.6H290.8z M293.3,222c0-0.5-0.2-1.4-1.1-1.4
			c-0.9,0-1.2,0.8-1.3,1.4H293.3z"/>
		<path class="st29" d="M295.7,221.5c0-0.6,0-1.2,0-1.7h1.2l0.1,0.8h0c0.3-0.4,0.8-0.9,1.7-0.9c0.7,0,1.3,0.4,1.5,1h0
			c0.2-0.3,0.4-0.5,0.7-0.7c0.3-0.2,0.7-0.3,1.1-0.3c0.9,0,1.9,0.6,1.9,2.4v3.3h-1.4v-3.1c0-0.9-0.3-1.5-1-1.5c-0.5,0-0.8,0.3-1,0.7
			c0,0.1-0.1,0.3-0.1,0.5v3.3h-1.4v-3.2c0-0.8-0.3-1.3-1-1.3c-0.5,0-0.9,0.4-1,0.8c-0.1,0.1-0.1,0.3-0.1,0.5v3.3h-1.4V221.5z"/>
		<path class="st29" d="M306.4,223c0,1,0.8,1.4,1.7,1.4c0.6,0,1.1-0.1,1.5-0.3l0.2,1c-0.5,0.2-1.1,0.3-1.9,0.3
			c-1.8,0-2.9-1.1-2.9-2.8c0-1.5,0.9-3,2.7-3c1.8,0,2.4,1.5,2.4,2.7c0,0.3,0,0.5,0,0.6H306.4z M308.8,222c0-0.5-0.2-1.4-1.1-1.4
			c-0.9,0-1.2,0.8-1.3,1.4H308.8z"/>
		<path class="st29" d="M311.3,221.5c0-0.6,0-1.2,0-1.7h1.2l0.1,0.8h0c0.2-0.4,0.8-1,1.8-1c1,0,2,0.6,2,2.4v3.3h-1.4v-3.1
			c0-0.8-0.3-1.4-1.1-1.4c-0.6,0-0.9,0.4-1.1,0.8c0,0.1-0.1,0.3-0.1,0.5v3.3h-1.4V221.5z"/>
		<path class="st29" d="M319.3,218.3v1.6h1.3v1h-1.3v2.4c0,0.7,0.2,1,0.7,1c0.2,0,0.4,0,0.5-0.1l0,1.1c-0.2,0.1-0.6,0.1-1,0.1
			c-0.5,0-0.9-0.2-1.2-0.5c-0.3-0.3-0.4-0.8-0.4-1.5v-2.6h-0.8v-1h0.8v-1.3L319.3,218.3z"/>
	</g>
	<g>
		<path class="st29" d="M144.8,310.5c0-1-0.1-2.2-0.1-3.2h0c-0.3,0.9-0.6,2-0.9,2.9l-1.1,3.3h-1.1l-1-3.3c-0.3-1-0.6-2-0.8-3h0
			c0,1-0.1,2.2-0.1,3.3l-0.2,3.1h-1.3l0.5-7.7h1.8l1,3.1c0.3,0.9,0.5,1.8,0.7,2.7h0c0.2-0.8,0.5-1.8,0.8-2.7l1.1-3.1h1.8l0.4,7.7
			h-1.4L144.8,310.5z"/>
		<path class="st29" d="M148.7,311.2c0,1,0.8,1.4,1.7,1.4c0.6,0,1.1-0.1,1.5-0.3l0.2,1c-0.5,0.2-1.1,0.3-1.9,0.3
			c-1.8,0-2.9-1.1-2.9-2.8c0-1.5,0.9-3,2.7-3c1.8,0,2.4,1.5,2.4,2.7c0,0.3,0,0.5,0,0.6H148.7z M151.1,310.2c0-0.5-0.2-1.4-1.1-1.4
			c-0.9,0-1.2,0.8-1.3,1.4H151.1z"/>
		<path class="st29" d="M153.6,309.8c0-0.8,0-1.3,0-1.8h1.2l0,1.1h0c0.3-0.8,0.9-1.2,1.5-1.2c0.1,0,0.2,0,0.3,0v1.3
			c-0.1,0-0.2,0-0.4,0c-0.7,0-1.1,0.4-1.3,1.1c0,0.1,0,0.3,0,0.4v2.9h-1.4V309.8z"/>
		<path class="st29" d="M161.6,313.4c-0.3,0.1-0.9,0.3-1.6,0.3c-1.7,0-2.9-1.1-2.9-2.8c0-1.7,1.1-3,3.1-3c0.5,0,1,0.1,1.4,0.3
			l-0.3,1c-0.2-0.1-0.6-0.2-1.1-0.2c-1.1,0-1.7,0.8-1.7,1.8c0,1.1,0.7,1.8,1.7,1.8c0.5,0,0.8-0.1,1.1-0.2L161.6,313.4z"/>
		<path class="st29" d="M162.7,305.5h1.4v3.3h0c0.2-0.3,0.4-0.5,0.7-0.6c0.3-0.2,0.6-0.3,1-0.3c0.9,0,1.9,0.6,1.9,2.4v3.3h-1.4v-3.1
			c0-0.8-0.3-1.4-1.1-1.4c-0.5,0-0.9,0.4-1.1,0.8c0,0.1-0.1,0.3-0.1,0.4v3.3h-1.4V305.5z"/>
		<path class="st29" d="M172.3,313.6l-0.1-0.6h0c-0.3,0.4-0.9,0.7-1.6,0.7c-1.1,0-1.7-0.8-1.7-1.7c0-1.4,1.2-2.1,3.3-2.1v-0.1
			c0-0.4-0.1-1-1.1-1c-0.5,0-1.1,0.2-1.5,0.4l-0.3-0.9c0.4-0.3,1.1-0.5,2-0.5c1.8,0,2.3,1.1,2.3,2.3v2c0,0.5,0,1,0.1,1.3H172.3z
			 M172.1,310.9c-1,0-1.9,0.2-1.9,1c0,0.5,0.4,0.8,0.8,0.8c0.6,0,1-0.4,1.1-0.8c0-0.1,0-0.2,0-0.3V310.9z"/>
		<path class="st29" d="M175,309.7c0-0.6,0-1.2,0-1.7h1.2l0.1,0.8h0c0.2-0.4,0.8-1,1.8-1c1,0,2,0.6,2,2.4v3.3h-1.4v-3.1
			c0-0.8-0.3-1.4-1.1-1.4c-0.6,0-0.9,0.4-1.1,0.8c0,0.1-0.1,0.3-0.1,0.5v3.3H175V309.7z"/>
		<path class="st29" d="M186.6,305.5v6.5c0,0.6,0,1.2,0,1.6h-1.3l-0.1-0.9h0c-0.3,0.6-1,1-1.8,1c-1.3,0-2.4-1.1-2.4-2.8
			c0-1.9,1.1-3,2.5-3c0.8,0,1.3,0.3,1.6,0.7h0v-3.1H186.6z M185.2,310.3c0-0.1,0-0.3,0-0.4c-0.1-0.5-0.6-1-1.2-1
			c-0.9,0-1.4,0.8-1.4,1.8c0,1,0.5,1.8,1.4,1.8c0.6,0,1.1-0.4,1.2-1c0-0.1,0-0.3,0-0.4V310.3z"/>
		<path class="st29" d="M189.6,306.5c0,0.4-0.3,0.8-0.8,0.8c-0.5,0-0.8-0.3-0.8-0.8c0-0.4,0.3-0.8,0.8-0.8
			C189.3,305.7,189.6,306.1,189.6,306.5z M188.1,313.6V308h1.4v5.5H188.1z"/>
		<path class="st29" d="M190.9,312.3c0.3,0.2,0.9,0.4,1.4,0.4c0.6,0,0.9-0.3,0.9-0.6c0-0.4-0.2-0.6-0.9-0.8c-1.1-0.4-1.5-1-1.5-1.6
			c0-1,0.8-1.7,2.1-1.7c0.6,0,1.1,0.2,1.5,0.3l-0.3,1c-0.2-0.1-0.7-0.3-1.2-0.3c-0.5,0-0.8,0.2-0.8,0.6c0,0.4,0.3,0.5,1,0.8
			c1,0.4,1.5,0.9,1.5,1.7c0,1-0.8,1.7-2.3,1.7c-0.7,0-1.3-0.2-1.7-0.4L190.9,312.3z"/>
		<path class="st29" d="M197.2,306.5c0,0.4-0.3,0.8-0.8,0.8c-0.5,0-0.8-0.3-0.8-0.8c0-0.4,0.3-0.8,0.8-0.8
			C196.9,305.7,197.2,306.1,197.2,306.5z M195.7,313.6V308h1.4v5.5H195.7z"/>
		<path class="st29" d="M198.7,309.7c0-0.6,0-1.2,0-1.7h1.2l0.1,0.8h0c0.2-0.4,0.8-1,1.8-1c1,0,2,0.6,2,2.4v3.3h-1.4v-3.1
			c0-0.8-0.3-1.4-1.1-1.4c-0.6,0-0.9,0.4-1.1,0.8c0,0.1-0.1,0.3-0.1,0.5v3.3h-1.4V309.7z"/>
		<path class="st29" d="M210.2,308c0,0.4,0,0.8,0,1.6v3.1c0,1.2-0.2,2-0.8,2.5c-0.6,0.5-1.4,0.7-2.1,0.7c-0.7,0-1.5-0.1-1.9-0.4
			l0.3-1.1c0.4,0.2,0.9,0.4,1.6,0.4c0.9,0,1.6-0.5,1.6-1.7v-0.5h0c-0.3,0.5-0.9,0.8-1.6,0.8c-1.4,0-2.4-1.1-2.4-2.7
			c0-1.8,1.2-2.9,2.5-2.9c0.8,0,1.3,0.4,1.6,0.9h0l0.1-0.7H210.2z M208.8,310.3c0-0.1,0-0.3,0-0.4c-0.1-0.5-0.5-0.9-1.1-0.9
			c-0.8,0-1.4,0.7-1.4,1.8c0,0.9,0.5,1.7,1.4,1.7c0.5,0,1-0.3,1.1-0.8c0-0.1,0.1-0.3,0.1-0.5V310.3z"/>
	</g>
	<g>
		<path class="st29" d="M44.5,206.7c-0.3,0.2-1.1,0.3-2,0.3c-2.4,0-3.9-1.5-3.9-3.9c0-2.5,1.8-4.1,4.1-4.1c0.9,0,1.6,0.2,1.9,0.3
			l-0.3,1.1c-0.4-0.2-0.9-0.3-1.5-0.3c-1.6,0-2.7,1-2.7,2.8c0,1.7,1,2.8,2.7,2.8c0.6,0,1.2-0.1,1.5-0.3L44.5,206.7z"/>
		<path class="st29" d="M50.5,205.3c0,0.7,0,1.2,0,1.7h-1.2l-0.1-0.8h0c-0.2,0.4-0.8,1-1.8,1c-1,0-1.9-0.6-1.9-2.4v-3.3h1.4v3
			c0,0.9,0.3,1.5,1,1.5c0.6,0,0.9-0.4,1.1-0.8c0-0.1,0.1-0.3,0.1-0.4v-3.3h1.4V205.3z"/>
		<path class="st29" d="M51.9,205.6c0.3,0.2,0.9,0.4,1.4,0.4c0.6,0,0.9-0.3,0.9-0.6c0-0.4-0.2-0.6-0.9-0.8c-1.1-0.4-1.5-1-1.5-1.6
			c0-1,0.8-1.7,2.1-1.7c0.6,0,1.1,0.2,1.5,0.3l-0.3,1c-0.2-0.1-0.7-0.3-1.2-0.3c-0.5,0-0.8,0.2-0.8,0.6c0,0.4,0.3,0.5,1,0.8
			c1,0.4,1.5,0.9,1.5,1.7c0,1-0.8,1.7-2.3,1.7c-0.7,0-1.3-0.2-1.7-0.4L51.9,205.6z"/>
		<path class="st29" d="M58.3,199.8v1.6h1.3v1h-1.3v2.4c0,0.7,0.2,1,0.7,1c0.2,0,0.4,0,0.5-0.1l0,1.1c-0.2,0.1-0.6,0.1-1,0.1
			c-0.5,0-0.9-0.2-1.2-0.5c-0.3-0.3-0.4-0.8-0.4-1.5v-2.6h-0.8v-1H57v-1.3L58.3,199.8z"/>
		<path class="st29" d="M65.9,204.1c0,2-1.4,2.9-2.8,2.9c-1.6,0-2.8-1.1-2.8-2.9c0-1.8,1.2-2.9,2.9-2.9
			C64.8,201.3,65.9,202.4,65.9,204.1z M61.7,204.2c0,1.1,0.5,1.9,1.4,1.9c0.8,0,1.4-0.8,1.4-1.9c0-0.9-0.4-1.9-1.3-1.9
			C62.1,202.3,61.7,203.2,61.7,204.2z"/>
		<path class="st29" d="M67.1,203c0-0.6,0-1.2,0-1.7h1.2l0.1,0.8h0c0.3-0.4,0.8-0.9,1.7-0.9c0.7,0,1.3,0.4,1.5,1h0
			c0.2-0.3,0.4-0.5,0.7-0.7c0.3-0.2,0.7-0.3,1.1-0.3c0.9,0,1.9,0.6,1.9,2.4v3.3h-1.4v-3.1c0-0.9-0.3-1.5-1-1.5c-0.5,0-0.8,0.3-1,0.7
			c0,0.1-0.1,0.3-0.1,0.5v3.3h-1.4v-3.2c0-0.8-0.3-1.3-1-1.3c-0.5,0-0.9,0.4-1,0.8c-0.1,0.1-0.1,0.3-0.1,0.5v3.3h-1.4V203z"/>
		<path class="st29" d="M77.7,204.6c0,1,0.8,1.4,1.7,1.4c0.6,0,1.1-0.1,1.5-0.3l0.2,1c-0.5,0.2-1.1,0.3-1.9,0.3
			c-1.8,0-2.9-1.1-2.9-2.8c0-1.5,0.9-3,2.7-3c1.8,0,2.4,1.5,2.4,2.7c0,0.3,0,0.5,0,0.6H77.7z M80.2,203.6c0-0.5-0.2-1.4-1.1-1.4
			c-0.9,0-1.2,0.8-1.3,1.4H80.2z"/>
		<path class="st29" d="M82.6,203.2c0-0.8,0-1.3,0-1.8h1.2l0,1.1h0c0.3-0.8,0.9-1.2,1.5-1.2c0.1,0,0.2,0,0.3,0v1.3
			c-0.1,0-0.2,0-0.4,0c-0.7,0-1.1,0.4-1.3,1.1c0,0.1,0,0.3,0,0.4v2.9h-1.4V203.2z"/>
		<path class="st29" d="M32.3,216.2c0,1,0.8,1.4,1.7,1.4c0.6,0,1.1-0.1,1.5-0.3l0.2,1c-0.5,0.2-1.1,0.3-1.9,0.3
			c-1.8,0-2.9-1.1-2.9-2.8c0-1.5,0.9-3,2.7-3c1.8,0,2.4,1.5,2.4,2.7c0,0.3,0,0.5,0,0.6H32.3z M34.7,215.3c0-0.5-0.2-1.4-1.1-1.4
			c-0.9,0-1.2,0.8-1.3,1.4H34.7z"/>
		<path class="st29" d="M37.2,214.7c0-0.6,0-1.2,0-1.7h1.2l0.1,0.8h0c0.2-0.4,0.8-1,1.8-1c1,0,2,0.6,2,2.4v3.3h-1.4v-3.1
			c0-0.8-0.3-1.4-1.1-1.4c-0.6,0-0.9,0.4-1.1,0.8c0,0.1-0.1,0.3-0.1,0.5v3.3h-1.4V214.7z"/>
		<path class="st29" d="M48.7,213.1c0,0.4,0,0.8,0,1.6v3.1c0,1.2-0.2,2-0.8,2.5c-0.6,0.5-1.4,0.7-2.1,0.7c-0.7,0-1.5-0.1-1.9-0.4
			l0.3-1.1c0.4,0.2,0.9,0.4,1.6,0.4c0.9,0,1.6-0.5,1.6-1.7v-0.5h0c-0.3,0.5-0.9,0.8-1.6,0.8c-1.4,0-2.4-1.1-2.4-2.7
			c0-1.8,1.2-2.9,2.5-2.9c0.8,0,1.3,0.4,1.6,0.9h0l0.1-0.7H48.7z M47.3,215.3c0-0.1,0-0.3,0-0.4c-0.1-0.5-0.5-0.9-1.1-0.9
			c-0.8,0-1.4,0.7-1.4,1.8c0,0.9,0.5,1.7,1.4,1.7c0.5,0,1-0.3,1.1-0.8c0-0.1,0.1-0.3,0.1-0.5V215.3z"/>
		<path class="st29" d="M53.3,218.6l-0.1-0.6h0c-0.3,0.4-0.9,0.7-1.6,0.7c-1.1,0-1.7-0.8-1.7-1.7c0-1.4,1.2-2.1,3.3-2.1v-0.1
			c0-0.4-0.1-1-1.1-1c-0.5,0-1.1,0.2-1.5,0.4l-0.3-0.9c0.4-0.3,1.1-0.5,2-0.5c1.8,0,2.3,1.1,2.3,2.3v2c0,0.5,0,1,0.1,1.3H53.3z
			 M53.1,215.9c-1,0-1.9,0.2-1.9,1c0,0.5,0.4,0.8,0.8,0.8c0.6,0,1-0.4,1.1-0.8c0-0.1,0-0.2,0-0.3V215.9z"/>
		<path class="st29" d="M61,213.1c0,0.4,0,0.8,0,1.6v3.1c0,1.2-0.2,2-0.8,2.5c-0.6,0.5-1.4,0.7-2.1,0.7c-0.7,0-1.5-0.1-1.9-0.4
			l0.3-1.1c0.4,0.2,0.9,0.4,1.6,0.4c0.9,0,1.6-0.5,1.6-1.7v-0.5h0c-0.3,0.5-0.9,0.8-1.6,0.8c-1.4,0-2.4-1.1-2.4-2.7
			c0-1.8,1.2-2.9,2.5-2.9c0.8,0,1.3,0.4,1.6,0.9h0l0.1-0.7H61z M59.6,215.3c0-0.1,0-0.3,0-0.4c-0.1-0.5-0.5-0.9-1.1-0.9
			c-0.8,0-1.4,0.7-1.4,1.8c0,0.9,0.5,1.7,1.4,1.7c0.5,0,1-0.3,1.1-0.8c0-0.1,0.1-0.3,0.1-0.5V215.3z"/>
		<path class="st29" d="M63.5,216.2c0,1,0.8,1.4,1.7,1.4c0.6,0,1.1-0.1,1.5-0.3l0.2,1c-0.5,0.2-1.1,0.3-1.9,0.3
			c-1.8,0-2.9-1.1-2.9-2.8c0-1.5,0.9-3,2.7-3c1.8,0,2.4,1.5,2.4,2.7c0,0.3,0,0.5,0,0.6H63.5z M65.9,215.3c0-0.5-0.2-1.4-1.1-1.4
			c-0.9,0-1.2,0.8-1.3,1.4H65.9z"/>
		<path class="st29" d="M68.4,214.7c0-0.6,0-1.2,0-1.7h1.2l0.1,0.8h0c0.3-0.4,0.8-0.9,1.7-0.9c0.7,0,1.3,0.4,1.5,1h0
			c0.2-0.3,0.4-0.5,0.7-0.7c0.3-0.2,0.7-0.3,1.1-0.3c0.9,0,1.9,0.6,1.9,2.4v3.3h-1.4v-3.1c0-0.9-0.3-1.5-1-1.5c-0.5,0-0.8,0.3-1,0.7
			c0,0.1-0.1,0.3-0.1,0.5v3.3h-1.4v-3.2c0-0.8-0.3-1.3-1-1.3c-0.5,0-0.9,0.4-1,0.8c-0.1,0.1-0.1,0.3-0.1,0.5v3.3h-1.4V214.7z"/>
		<path class="st29" d="M79,216.2c0,1,0.8,1.4,1.7,1.4c0.6,0,1.1-0.1,1.5-0.3l0.2,1c-0.5,0.2-1.1,0.3-1.9,0.3
			c-1.8,0-2.9-1.1-2.9-2.8c0-1.5,0.9-3,2.7-3c1.8,0,2.4,1.5,2.4,2.7c0,0.3,0,0.5,0,0.6H79z M81.5,215.3c0-0.5-0.2-1.4-1.1-1.4
			c-0.9,0-1.2,0.8-1.3,1.4H81.5z"/>
		<path class="st29" d="M83.9,214.7c0-0.6,0-1.2,0-1.7h1.2l0.1,0.8h0c0.2-0.4,0.8-1,1.8-1c1,0,2,0.6,2,2.4v3.3h-1.4v-3.1
			c0-0.8-0.3-1.4-1.1-1.4c-0.6,0-0.9,0.4-1.1,0.8c0,0.1-0.1,0.3-0.1,0.5v3.3h-1.4V214.7z"/>
		<path class="st29" d="M92,211.5v1.6h1.3v1H92v2.4c0,0.7,0.2,1,0.7,1c0.2,0,0.4,0,0.5-0.1l0,1.1c-0.2,0.1-0.6,0.1-1,0.1
			c-0.5,0-0.9-0.2-1.2-0.5c-0.3-0.3-0.4-0.8-0.4-1.5v-2.6h-0.8v-1h0.8v-1.3L92,211.5z"/>
	</g>
	<g>
		<g id="XMLID_606_">
			<g>
				<line id="XMLID_612_" class="st27" x1="174.2" y1="287" x2="174.2" y2="296.4"/>
				<line id="XMLID_611_" class="st27" x1="166.1" y1="296.4" x2="182.4" y2="296.4"/>
				<g>
					<g id="XMLID_609_">
						<g>
							<polyline class="st27" points="196.2,257.6 196.2,287 152.3,287 152.3,253.7 184.9,253.7 							"/>
							<g>
								<polygon class="st29" points="193.2,258.5 196.2,253.3 199.2,258.5 								"/>
							</g>
						</g>
					</g>
				</g>
			</g>
			<ellipse id="XMLID_608_" class="st27" cx="187.6" cy="253.7" rx="2.3" ry="2.3"/>
			<line id="XMLID_607_" class="st27" x1="152.6" y1="280" x2="196.2" y2="280"/>
		</g>
		<g id="XMLID_602_">
			<path id="XMLID_605_" class="st27" d="M188,264.4h-2.7c-0.9,0-1.7,0.7-1.7,1.7l0,0c0,0.9,0.7,1.7,1.7,1.7h1.7
				c0.9,0,1.7,0.7,1.7,1.7l0,0c0,0.9-0.7,1.7-1.7,1.7h-3.4"/>
			<line id="XMLID_604_" class="st27" x1="185.9" y1="264.4" x2="185.9" y2="262.2"/>
			<line id="XMLID_603_" class="st27" x1="185.9" y1="273.3" x2="185.9" y2="271.1"/>
		</g>
		<g>
			<g>
				<line class="st27" x1="173" y1="268.1" x2="177.3" y2="268.1"/>
				<g>
					<polygon class="st29" points="176.4,271.1 181.6,268.1 176.4,265.1 					"/>
				</g>
			</g>
		</g>
	</g>
	<rect x="159.3" y="260.9" class="st38" width="9.2" height="12.8"/>
	<g>
		<g id="XMLID_83_">
			<g id="XMLID_222_">
				<path id="XMLID_597_" class="st34" d="M295.7,176.9l-0.7,0c-1.3,0-2.1,0-4.3,0v-17.3l8.8,0l6.1,9.3l-0.1,8c-2.1,0-4.7,0-5.9,0
					l0.5,0"/>
				<polyline id="XMLID_593_" class="st36" points="290.7,172.4 290.7,176.9 279.3,176.9 				"/>
				<polyline id="XMLID_592_" class="st36" points="274.2,176.9 271,176.9 271,172.4 				"/>
				<polyline id="XMLID_562_" class="st36" points="271,172.4 271,157.2 290.7,157.2 290.7,172.4 				"/>
			</g>
			<circle class="st36" cx="276.8" cy="178" r="2.3"/>
			<circle class="st36" cx="297.3" cy="178" r="2.3"/>
		</g>
	</g>
	<line class="st33" x1="290.6" y1="145" x2="298.2" y2="145"/>
	<line class="st33" x1="277.9" y1="145" x2="285.2" y2="145"/>
	<polyline class="st33" points="297.8,191.7 265.5,191.7 265.5,145 272.1,145 	"/>
	<g>
		<g>
			<polyline class="st33" points="303.1,145 310.3,145 310.3,188.9 			"/>
			<g>
				<polygon class="st29" points="307.3,188 310.3,193.2 313.3,188 				"/>
			</g>
		</g>
	</g>
	<line class="st28" x1="274.9" y1="141.6" x2="274.9" y2="148.4"/>
	<line class="st28" x1="287.9" y1="141.6" x2="287.9" y2="148.4"/>
	<line class="st28" x1="300.6" y1="141.6" x2="300.6" y2="148.4"/>
	<circle class="st28" cx="301.3" cy="191.6" r="2.3"/>
	<line class="st36" x1="275.9" y1="164.3" x2="284.8" y2="164.3"/>
	<line class="st36" x1="275.9" y1="169.2" x2="284.8" y2="169.2"/>
	<g>
		<g>
			<polyline class="st27" points="57.2,158.4 59.5,160.2 64.2,160.2 			"/>
			<path class="st27" d="M51.2,174.4l-0.7,0.7c-0.9,0.9-0.9,2.3,0,3.2c0.9,0.9,2.3,0.9,3.2,0l0.7-0.7l0,0l-0.7,0.7
				c-0.9,0.9-0.9,2.3,0,3.2c0.9,0.9,2.3,0.9,3.2,0l0.7-0.7l0,0l-0.7,0.7c-0.9,0.9-0.9,2.3,0,3.2c0.9,0.9,2.3,0.9,3.2,0l0.7-0.7l0,0
				l-0.7,0.7c-0.9,0.9-0.9,2.3,0,3.2l0,0c0.9,0.9,2.3,0.9,3.2,0l0.7-0.7"/>
			<g>
				<g>
					<polyline class="st27" points="45.4,144.4 58.3,157.3 46.2,169.4 42.3,165.5 					"/>
					<g>
						<polygon class="st29" points="43.9,147.2 42.3,141.4 48.1,142.9 						"/>
					</g>
				</g>
			</g>
			<g>
				<g>
					<polyline class="st27" points="84.3,165.3 80.8,168.7 68.8,156.7 81.3,144.2 					"/>
					<g>
						<polygon class="st29" points="82.8,146.9 84.3,141.2 78.5,142.7 						"/>
					</g>
				</g>
			</g>
			<path class="st27" d="M69.8,157.9l-2.2,2.2h-3l-6.6,6.8c-0.8,0.8-0.8,2.1,0,3h0c0.8,0.8,2.1,0.8,3,0l3.7-3.7c0,0,2,1.7,3.9,3.5
				c1.8,1.6,3.4-0.1,3.4-0.1l5.4,5.3c0.9,0.9,0.9,2.3,0,3.2l0,0c-0.9,0.9-2.3,0.9-3.2,0l-3.9-3.9l0,0l3.9,3.9c0.9,0.9,0.9,2.3,0,3.2
				c-0.9,0.9-2.3,0.9-3.2,0l-3.9-3.9l0,0l3.9,3.9c0.9,0.9,0.9,2.3,0,3.2c-0.9,0.9-2.3,0.9-3.2,0l-3.9-3.9l0,0l3.9,3.9
				c0.9,0.9,0.9,2.3,0,3.2c-0.9,0.9-2.3,0.9-3.2,0l-3.9-3.9L50,173.1l-0.6-2.4l-2.2-2.2"/>
			<polyline class="st27" points="79.7,167.6 77.3,169.9 77.4,172.8 76.4,173.9 			"/>
		</g>
		<circle class="st27" cx="82.6" cy="160.1" r="2.3"/>
		<circle class="st27" cx="45" cy="160.1" r="2.3"/>
	</g>
	<line class="st31" x1="149.9" y1="59.7" x2="197.3" y2="59.7"/>
</g>
</svg>
