<svg xmlns="http://www.w3.org/2000/svg" width="350" height="350">
  <style>
    .st0{fill:#fcddd6}.st1{fill:#fbc2ba}.st2{fill:#f16c51}.st6{fill:none}.st23{display:inline}.st24,.st28{fill:none;stroke:#000;stroke-width:.1397;stroke-miterlimit:10}.st28{stroke:#fff;stroke-width:1.4992}.st29{fill:#fff}.st31,.st33{fill:none;stroke:#fcfcfc;stroke-width:1.5;stroke-miterlimit:10}.st33{stroke:#fff;stroke-width:1.4992;stroke-linecap:square}
  </style>
  <g id="Layer_3">
    <path d="M342.9 175c0 26.4-6.1 51.4-16.9 73.6-2.4 5-5 9.7-7.9 14.4-27.8 45.1-76.2 76-132.2 79.6-3.6.2-7.2.4-10.9.4-1.9 0-3.7 0-5.5-.1-56.3-1.8-105.6-31.3-134.6-75.4-3-4.6-5.8-9.3-8.4-14.1-12.4-23.4-19.4-50-19.4-78.3 0-27.3 6.5-53.2 18.1-76 2.5-4.9 5.2-9.7 8.1-14.3C61.8 40.2 110.7 10 166.8 7.3c2.7-.1 5.5-.2 8.2-.2 2.7 0 5.5.1 8.2.2 54.2 2.6 101.7 30.9 130.5 73.1 3.1 4.5 6 9.2 8.6 14 13.1 23.9 20.6 51.4 20.6 80.6z" class="st0"/>
    <path d="M237.6 175c0 9.8-2.3 19.1-6.3 27.4-.9 1.8-1.9 3.6-3 5.4-10.3 16.8-28.4 28.3-49.3 29.7-1.3.1-2.7.1-4.1.1h-2.1c-21-.7-39.3-11.7-50.2-28.1-1.1-1.7-2.2-3.5-3.1-5.3-4.6-8.7-7.2-18.6-7.2-29.2 0-10.2 2.4-19.8 6.8-28.3.9-1.8 1.9-3.6 3-5.3 10.6-16.6 28.8-27.9 49.7-28.9 1 0 2-.1 3.1-.1 1 0 2 0 3.1.1 20.2 1 37.9 11.5 48.6 27.2 1.2 1.7 2.2 3.4 3.2 5.2 5 9 7.8 19.2 7.8 30.1z" class="st0"/>
    <path d="M323.6 253.2c-1 1.8-1.9 3.6-3 5.4l-92.4-50.8c-10.3 16.8-28.4 28.3-49.3 29.7l1.7 105.4c-1.9.1-3.8.1-5.7.1h-.4l-1.7-105.4c-21-.7-39.3-11.7-50.2-28.1L32 263.1c-1.1-1.7-2.1-3.5-3.1-5.3l90.7-53.7c-4.6-8.7-7.2-18.6-7.2-29.2 0-10.2 2.4-19.8 6.8-28.3L27.6 94.5c1-1.8 2-3.6 3-5.3l91.6 52.2c10.6-16.6 28.8-27.9 49.7-28.9V7.1h6.2v105.4c20.2 1 37.9 11.5 48.6 27.2l89.9-55.1c1.1 1.7 2.2 3.5 3.2 5.2l-89.9 55.1c4.9 8.9 7.7 19.2 7.7 30.1 0 9.8-2.3 19.1-6.3 27.4l92.3 50.8z" class="st6"/>
    <path d="M171.9 7.1v105.4c-20.9 1-39.1 12.3-49.7 28.9L30.7 89.2c28.8-48.4 81.1-81 141.2-82.1z" class="st2"/>
    <path d="M323.6 253.2l-92.4-50.8c4-8.3 6.3-17.6 6.3-27.4 0-10.9-2.8-21.1-7.7-30.1l89.9-55.1 6-3.7c-1-1.8-2.1-3.5-3.2-5.2l-6 3.7-89.9 55.1a62.456 62.456 0 0 0-48.6-27.2V0h-6.2v112.5c-20.9 1-39.1 12.3-49.7 28.9L30.7 89.2l-6.2-3.5c-1 1.8-2.1 3.5-3 5.3l6.1 3.5 91.6 52.2c-4.3 8.5-6.8 18.1-6.8 28.3 0 10.5 2.6 20.5 7.2 29.2l-90.7 53.7-6.1 3.6c1 1.8 2 3.5 3.1 5.3l6.1-3.6 90.7-53.7c10.8 16.4 29.2 27.4 50.2 28.1l1.7 105.4.1 7.1h.3c1.9 0 3.9 0 5.8-.1l-.1-7.1-1.7-105.4c20.8-1.3 38.9-12.9 49.3-29.7l92.4 50.8 6.2 3.4c1-1.8 2-3.5 3-5.4l-6.3-3.4z" class="st6"/>
    <path d="M350 175c0 29.5-7.3 57.2-20.1 81.6l-6.2-3.4c12.3-23.4 19.3-50 19.3-78.2 0-31.1-8.4-60.2-23.2-85.2l6-3.7c15.4 26.1 24.2 56.5 24.2 88.9zM326.9 262c-29.3 51-83.5 85.9-146.1 87.9l-.1-7.1c59.9-2 111.9-35.4 140-84.3l6.2 3.5zM174.7 350c-62.9-.1-118-33.4-148.8-83.3l6.1-3.6c29.5 47.8 82.3 79.7 142.6 79.8l.1 7.1zM28.9 257.9l-6.1 3.6C8.3 236 0 206.5 0 175c0-30.5 7.8-59.1 21.5-84l6.1 3.5C14.5 118.4 7.1 145.8 7.1 175c0 30.1 7.9 58.4 21.8 82.9zM171.9 0v7.1c-60.1 1.1-112.5 33.7-141.3 82l-6.2-3.5C54.5 35.2 109.2 1.1 171.9 0zM322.6 80.9l-6 3.7C287.2 38.8 236.3 8.1 178.1 7.1V0C238.8 1.1 292 33.1 322.6 80.9z" class="st1"/>
    <path d="M316.5 84.6l-89.9 55.1a62.456 62.456 0 0 0-48.6-27.2V7.1c58.3 1 109.2 31.7 138.5 77.5zM342.9 175c0 28.2-7 54.8-19.3 78.2l-92.4-50.8c4-8.3 6.3-17.6 6.3-27.4 0-10.9-2.8-21.1-7.7-30.1l89.9-55.1c14.8 25 23.2 54.1 23.2 85.2zM320.7 258.5c-28.1 48.9-80 82.3-140 84.3L179 237.4c20.8-1.3 38.9-12.9 49.3-29.7l92.4 50.8zM174.6 342.9c-60.3-.1-113.1-32-142.6-79.8l90.7-53.7c10.8 16.4 29.2 27.4 50.2 28.1l1.7 105.4zM119.6 204.2l-90.7 53.7C15 233.4 7.1 205.1 7.1 175c0-29.2 7.4-56.6 20.5-80.5l91.6 52.2c-4.3 8.5-6.8 18.1-6.8 28.3 0 10.5 2.6 20.5 7.2 29.2z" class="st2"/>
  </g>
  <g id="Layer_1">
    <path d="M182.9 85.8c.5-.1 1.3-.2 2.1-.2 1.1 0 1.8.1 2.3.5.5.3.8.8.8 1.5s-.5 1.4-1.3 1.8c.9.2 1.6.9 1.6 2 0 .7-.3 1.3-.8 1.7-.6.5-1.5.8-3 .8-.8 0-1.4-.1-1.8-.1v-8zm1.4 3.2h.8c1 0 1.6-.5 1.6-1.2 0-.8-.6-1.1-1.5-1.1-.4 0-.7 0-.8.1V89zm0 3.7h.8c.9 0 1.8-.4 1.8-1.4 0-.9-.8-1.3-1.8-1.3h-.7v2.7zM195 92v1.8h-1.3l-.1-.9c-.3.4-.8 1-1.9 1-1.1 0-2-.6-2-2.5V88h1.5v3.2c0 1 .3 1.6 1.1 1.6.6 0 1-.4 1.1-.8 0-.1.1-.3.1-.5V88h1.5v4zM196.5 92.4c.3.2 1 .4 1.5.4.6 0 .9-.3.9-.6 0-.4-.2-.6-1-.9-1.1-.4-1.6-1-1.6-1.7 0-1 .9-1.8 2.2-1.8.6 0 1.2.2 1.5.3l-.3 1c-.3-.1-.7-.3-1.2-.3s-.8.3-.8.6c0 .4.3.6 1 .8 1.1.4 1.5.9 1.6 1.8 0 1.1-.8 1.8-2.4 1.8-.7 0-1.3-.2-1.8-.4l.4-1zM203.1 86.3c0 .4-.3.8-.8.8s-.8-.3-.8-.8.3-.8.8-.8.8.4.8.8zm-1.5 7.5V88h1.5v5.8h-1.5zM204.6 89.7V88h1.3l.1.9c.3-.5.9-1 1.9-1 1 0 2.1.7 2.1 2.5v3.5h-1.5v-3.3c0-.8-.3-1.5-1.1-1.5-.6 0-1 .4-1.2.9 0 .1-.1.3-.1.5v3.4h-1.5v-4.2zM212.5 91.3c0 1.1.9 1.5 1.8 1.5.7 0 1.2-.1 1.6-.3l.2 1c-.5.2-1.2.4-2 .4-1.9 0-3-1.2-3-3 0-1.6 1-3.1 2.9-3.1s2.5 1.6 2.5 2.8v.6h-4zm2.6-1c0-.5-.2-1.4-1.2-1.4-.9 0-1.3.8-1.4 1.4h2.6zM217.6 92.4c.3.2 1 .4 1.5.4.6 0 .9-.3.9-.6 0-.4-.2-.6-1-.9-1.1-.4-1.6-1-1.6-1.7 0-1 .9-1.8 2.2-1.8.6 0 1.2.2 1.5.3l-.3 1c-.3-.1-.7-.3-1.2-.3s-.8.3-.8.6c0 .4.3.6 1 .8 1.1.4 1.5.9 1.6 1.8 0 1.1-.8 1.8-2.4 1.8-.7 0-1.3-.2-1.8-.4l.4-1zM222.6 92.4c.3.2 1 .4 1.5.4.6 0 .9-.3.9-.6 0-.4-.2-.6-1-.9-1.1-.4-1.6-1-1.6-1.7 0-1 .9-1.8 2.2-1.8.6 0 1.2.2 1.5.3l-.3 1c-.3-.1-.7-.3-1.2-.3s-.8.3-.8.6c0 .4.3.6 1 .8 1.1.4 1.5.9 1.6 1.8 0 1.1-.8 1.8-2.4 1.8-.7 0-1.3-.2-1.8-.4l.4-1zM231.7 86.3c0 .4-.3.8-.8.8s-.8-.3-.8-.8.3-.8.8-.8.8.4.8.8zm-1.5 7.5V88h1.5v5.8h-1.5zM233.2 89.7V88h1.3l.1.9c.3-.5.9-1 1.9-1 1 0 2.1.7 2.1 2.5v3.5h-1.5v-3.3c0-.8-.3-1.5-1.1-1.5-.6 0-1 .4-1.2.9 0 .1-.1.3-.1.5v3.4h-1.5v-4.2zM241.7 86.3V88h1.4v1.1h-1.4v2.6c0 .7.2 1.1.8 1.1.3 0 .4 0 .6-.1v1.1c-.2.1-.6.1-1.1.1-.5 0-1-.2-1.3-.5-.3-.3-.5-.9-.5-1.6v-2.7h-.8V88h.8v-1.3l1.5-.4zM245.2 91.3c0 1.1.9 1.5 1.8 1.5.7 0 1.2-.1 1.6-.3l.2 1c-.5.2-1.2.4-2 .4-1.9 0-3-1.2-3-3 0-1.6 1-3.1 2.9-3.1s2.5 1.6 2.5 2.8v.6h-4zm2.6-1c0-.5-.2-1.4-1.2-1.4-.9 0-1.3.8-1.4 1.4h2.6zM250.4 85.3h1.5v8.5h-1.5v-8.5zM253.5 85.3h1.5v8.5h-1.5v-8.5zM258.1 86.3c0 .4-.3.8-.8.8s-.8-.3-.8-.8.3-.8.8-.8.8.4.8.8zm-1.5 7.5V88h1.5v5.8h-1.5zM265 88v5c0 1.2-.3 2.1-.9 2.7-.6.5-1.5.7-2.3.7-.7 0-1.5-.2-2-.5l.3-1.1c.4.2 1 .4 1.7.4 1 0 1.7-.5 1.7-1.8v-.5c-.3.5-.9.9-1.7.9-1.5 0-2.5-1.2-2.5-2.9 0-1.9 1.2-3.1 2.7-3.1.9 0 1.4.4 1.7.9l.1-.8h1.2zm-1.6 2.3v-.4c-.2-.5-.6-.9-1.2-.9-.8 0-1.4.7-1.4 1.9 0 1 .5 1.8 1.4 1.8.6 0 1-.4 1.2-.9 0-.2.1-.4.1-.5v-1zM267.5 91.3c0 1.1.9 1.5 1.8 1.5.7 0 1.2-.1 1.6-.3l.2 1c-.5.2-1.2.4-2 .4-1.9 0-3-1.2-3-3 0-1.6 1-3.1 2.9-3.1s2.5 1.6 2.5 2.8v.6h-4zm2.6-1c0-.5-.2-1.4-1.2-1.4-.9 0-1.3.8-1.4 1.4h2.6zM272.7 89.7V88h1.3l.1.9c.3-.5.9-1 1.9-1 1 0 2.1.7 2.1 2.5v3.5h-1.5v-3.3c0-.8-.3-1.5-1.1-1.5-.6 0-1 .4-1.2.9 0 .1-.1.3-.1.5v3.4h-1.5v-4.2zM283.8 93.6c-.3.1-.9.3-1.7.3-1.8 0-3-1.2-3-3s1.2-3.1 3.3-3.1c.5 0 1.1.1 1.4.3l-.3 1.1c-.2-.1-.6-.2-1.1-.2-1.1 0-1.8.8-1.8 1.9 0 1.2.8 1.9 1.8 1.9.5 0 .9-.1 1.2-.2l.2 1zM285.9 91.3c0 1.1.9 1.5 1.8 1.5.7 0 1.2-.1 1.6-.3l.2 1c-.5.2-1.2.4-2 .4-1.9 0-3-1.2-3-3 0-1.6 1-3.1 2.9-3.1s2.5 1.6 2.5 2.8v.6h-4zm2.5-1c0-.5-.2-1.4-1.2-1.4-.9 0-1.3.8-1.4 1.4h2.6zM203.4 105.5l-.1-.6c-.4.5-1 .8-1.7.8-1.2 0-1.8-.9-1.8-1.7 0-1.5 1.3-2.2 3.5-2.2v-.1c0-.4-.2-1-1.2-1-.6 0-1.2.2-1.6.4l-.3-1c.4-.3 1.2-.5 2.1-.5 1.9 0 2.4 1.2 2.4 2.5v2.1c0 .5 0 1 .1 1.4h-1.4zm-.2-2.9c-1 0-2 .2-2 1.1 0 .6.4.8.8.8.6 0 1-.4 1.2-.8v-1.1zM206.2 101.4v-1.7h1.3l.1.9c.3-.5.9-1 1.9-1 1 0 2.1.7 2.1 2.5v3.5H210v-3.3c0-.8-.3-1.5-1.1-1.5-.6 0-1 .4-1.2.9 0 .1-.1.3-.1.5v3.4h-1.5v-4.2zM218.4 96.9v8.5h-1.3l-.1-.9c-.3.6-1.1 1.1-1.9 1.1-1.4 0-2.5-1.2-2.5-3 0-2 1.2-3.1 2.6-3.1.8 0 1.4.3 1.6.8V97h1.6zm-1.4 5.2v-.4c-.1-.6-.6-1-1.3-1-.9 0-1.5.8-1.5 1.9 0 1.1.5 1.8 1.5 1.8.6 0 1.1-.4 1.3-1v-1.3zM226.8 105.3c-.3.1-.9.3-1.7.3-1.8 0-3-1.2-3-3s1.2-3.1 3.3-3.1c.5 0 1.1.1 1.4.3l-.3 1.1c-.2-.1-.6-.2-1.1-.2-1.1 0-1.8.8-1.8 1.9 0 1.2.8 1.9 1.8 1.9.5 0 .9-.1 1.2-.2l.2 1zM233.1 103.7v1.8h-1.3l-.1-.9c-.3.4-.8 1-1.9 1-1.1 0-2-.6-2-2.5v-3.4h1.5v3.2c0 1 .3 1.6 1.1 1.6.6 0 1-.4 1.1-.8 0-.1.1-.3.1-.5v-3.5h1.5v4zM234.6 104.1c.3.2 1 .4 1.5.4.6 0 .9-.3.9-.6 0-.4-.2-.6-1-.9-1.1-.4-1.6-1-1.6-1.7 0-1 .9-1.8 2.2-1.8.6 0 1.2.2 1.5.3l-.3 1c-.3-.1-.7-.3-1.2-.3s-.8.3-.8.6c0 .4.3.6 1 .8 1.1.4 1.5.9 1.6 1.8 0 1.1-.8 1.8-2.4 1.8-.7 0-1.3-.2-1.8-.4l.4-1zM241.4 98v1.7h1.4v1.1h-1.4v2.6c0 .7.2 1.1.8 1.1.3 0 .4 0 .6-.1v1.1c-.2.1-.6.1-1.1.1-.5 0-1-.2-1.3-.5-.3-.3-.5-.9-.5-1.6v-2.7h-.8v-1.1h.8v-1.3l1.5-.4zM249.4 102.5c0 2.1-1.5 3.1-3 3.1-1.7 0-2.9-1.1-2.9-3s1.3-3.1 3-3.1c1.8 0 2.9 1.2 2.9 3zm-4.4 0c0 1.1.6 2 1.5 2 .8 0 1.4-.8 1.4-2 0-.9-.4-2-1.4-2-1.1.1-1.5 1.1-1.5 2zM250.6 101.4v-1.7h1.3l.1.9c.3-.5.8-1 1.8-1 .8 0 1.4.4 1.6 1.1.2-.3.4-.6.7-.7.3-.2.7-.3 1.2-.3 1 0 2 .7 2 2.5v3.4h-1.4v-3.2c0-1-.3-1.5-1-1.5-.5 0-.9.4-1 .8 0 .1-.1.3-.1.5v3.5h-1.4v-3.4c0-.8-.3-1.4-1-1.4-.6 0-.9.4-1.1.8-.1.1-.1.3-.1.5v3.5h-1.4v-4.3zM261.9 103c0 1.1.9 1.5 1.8 1.5.7 0 1.2-.1 1.6-.3l.2 1c-.5.2-1.2.4-2 .4-1.9 0-3-1.2-3-3 0-1.6 1-3.1 2.9-3.1s2.5 1.6 2.5 2.8v.6h-4zm2.5-1.1c0-.5-.2-1.4-1.2-1.4-.9 0-1.3.8-1.4 1.4h2.6zM267 101.5v-1.9h1.3v1.1c.3-.8 1-1.2 1.6-1.2h.3v1.4h-.4c-.7 0-1.2.5-1.3 1.1v3.5H267v-4zM217.3 117.1l-.1-.6c-.4.5-1 .8-1.7.8-1.2 0-1.8-.9-1.8-1.7 0-1.5 1.3-2.2 3.5-2.2v-.1c0-.4-.2-1-1.2-1-.6 0-1.2.2-1.6.4l-.3-1c.4-.3 1.2-.5 2.1-.5 1.9 0 2.4 1.2 2.4 2.5v2.1c0 .5 0 1 .1 1.4h-1.4zm-.2-2.8c-1 0-2 .2-2 1.1 0 .6.4.8.8.8.6 0 1-.4 1.2-.8v-1.1zM220.1 113v-1.7h1.3l.1.9c.3-.5.9-1 1.9-1 1 0 2.1.7 2.1 2.5v3.5H224v-3.3c0-.8-.3-1.5-1.1-1.5-.6 0-1 .4-1.2.9 0 .1-.1.3-.1.5v3.4h-1.5V113zM230.3 117.1l-.1-.6c-.4.5-1 .8-1.7.8-1.2 0-1.8-.9-1.8-1.7 0-1.5 1.3-2.2 3.5-2.2v-.1c0-.4-.2-1-1.2-1-.6 0-1.2.2-1.6.4l-.3-1c.4-.3 1.2-.5 2.1-.5 1.9 0 2.4 1.2 2.4 2.5v2.1c0 .5 0 1 .1 1.4h-1.4zm-.2-2.8c-1 0-2 .2-2 1.1 0 .6.4.8.8.8.6 0 1-.4 1.2-.8v-1.1zM233.1 108.6h1.5v8.5h-1.5v-8.5zM237.1 111.3l1.1 3.1c.1.4.2.8.3 1.1.1-.3.2-.8.3-1.2l.9-3.1h1.6l-1.5 4c-.8 2.2-1.3 3.2-2 3.8-.6.5-1.2.7-1.5.8l-.3-1.2c.3-.1.6-.2.9-.4.3-.2.6-.5.8-.9.1-.1.1-.2.1-.3 0-.1 0-.1-.1-.3l-2.1-5.4h1.5zM243.8 109.6v1.7h1.4v1.1h-1.4v2.6c0 .7.2 1.1.8 1.1.3 0 .4 0 .6-.1v1.1c-.2.1-.6.1-1.1.1-.5 0-1-.2-1.3-.5-.3-.3-.5-.9-.5-1.6v-2.7h-.8v-1.1h.8V110l1.5-.4zM247.9 109.7c0 .4-.3.8-.8.8s-.8-.3-.8-.8.3-.8.8-.8.8.3.8.8zm-1.5 7.4v-5.8h1.5v5.8h-1.5zM253.7 117c-.3.1-.9.3-1.7.3-1.8 0-3-1.2-3-3s1.2-3.1 3.3-3.1c.5 0 1.1.1 1.4.3l-.3 1.1c-.2-.1-.6-.2-1.1-.2-1.1 0-1.8.8-1.8 1.9 0 1.2.8 1.9 1.8 1.9.5 0 .9-.1 1.2-.2l.2 1zM254.8 115.8c.3.2 1 .4 1.5.4.6 0 .9-.3.9-.6 0-.4-.2-.6-1-.9-1.1-.4-1.6-1-1.6-1.7 0-1 .9-1.8 2.2-1.8.6 0 1.2.2 1.5.3l-.3 1c-.3-.1-.7-.3-1.2-.3s-.8.3-.8.6c0 .4.3.6 1 .8 1.1.4 1.5.9 1.6 1.8 0 1.1-.8 1.8-2.4 1.8-.7 0-1.3-.2-1.8-.4l.4-1z" class="st29"/>
    <g>
      <path d="M103 92.8h-3.1v2.4h3.5v1.2h-5v-8.3h4.8v1.2h-3.3v2.1h3.1v1.4zM104.6 92.3v-1.8h1.3l.1.9c.3-.5.9-1 1.9-1 1 0 2.1.7 2.1 2.6v3.5h-1.5v-3.4c0-.9-.3-1.5-1.1-1.5-.6 0-1 .4-1.2.9 0 .1-.1.3-.1.5v3.5h-1.5v-4.2zM112.7 93.9c0 1.1.9 1.5 1.8 1.5.7 0 1.2-.1 1.7-.3l.2 1c-.5.2-1.2.4-2.1.4-1.9 0-3.1-1.2-3.1-3 0-1.7 1-3.2 2.9-3.2s2.6 1.6 2.6 2.9v.6h-4zm2.6-1c0-.6-.2-1.5-1.2-1.5-.9 0-1.3.8-1.4 1.5h2.6zM117.9 92.5v-1.9h1.3v1.1c.3-.8 1-1.3 1.6-1.3h.4v1.4h-.4c-.7 0-1.2.5-1.3 1.1v3.6H118v-4zM127.6 90.5v5.1c0 1.3-.3 2.1-.9 2.7-.6.6-1.5.7-2.3.7-.8 0-1.6-.2-2.1-.5l.3-1.1c.4.2 1 .5 1.7.5 1 0 1.7-.5 1.7-1.8v-.5c-.3.5-1 .9-1.7.9-1.5 0-2.5-1.2-2.5-2.9 0-2 1.3-3.1 2.7-3.1.9 0 1.4.4 1.7.9l.1-.8h1.3zm-1.5 2.4v-.4c-.2-.6-.6-1-1.2-1-.8 0-1.5.7-1.5 1.9 0 1 .5 1.8 1.5 1.8.6 0 1.1-.4 1.2-.9 0-.2.1-.4.1-.5v-.9zM130.1 90.5l1.1 3.2.3 1.2c.1-.3.2-.8.3-1.2l.9-3.2h1.6l-1.5 4.1c-.8 2.2-1.4 3.2-2.1 3.8-.6.5-1.2.7-1.6.8l-.3-1.3c.3-.1.6-.2.9-.4.3-.2.6-.5.8-.9.1-.1.1-.2.1-.3 0-.1 0-.1-.1-.3l-2.2-5.5h1.8zM81.2 104v-1.8h1.3l.1.9c.3-.5.8-1 1.8-1 .8 0 1.4.4 1.7 1.1.2-.3.5-.6.7-.7.3-.2.7-.4 1.2-.4 1 0 2 .7 2 2.6v3.5h-1.5v-3.3c0-1-.3-1.6-1.1-1.6-.5 0-.9.4-1.1.8 0 .1-.1.3-.1.5v3.6h-1.5v-3.5c0-.8-.3-1.4-1-1.4-.6 0-.9.4-1.1.9-.1.1-.1.3-.1.5v3.5H81V104zM95 108.2l-.1-.7c-.4.5-1 .8-1.8.8-1.2 0-1.9-.9-1.9-1.8 0-1.5 1.3-2.3 3.5-2.3v-.1c0-.4-.2-1-1.2-1-.6 0-1.2.2-1.6.4l-.3-1c.4-.3 1.2-.5 2.2-.5 1.9 0 2.5 1.2 2.5 2.5v2.2c0 .5 0 1.1.1 1.4H95zm-.2-3c-1.1 0-2.1.2-2.1 1.1 0 .6.4.9.9.9.6 0 1-.4 1.2-.8v-1.2zM97.8 104v-1.8h1.3l.1.9c.3-.5.9-1 1.9-1 1 0 2.1.7 2.1 2.6v3.5h-1.5v-3.4c0-.9-.3-1.5-1.1-1.5-.6 0-1 .4-1.2.9 0 .1-.1.3-.1.5v3.5h-1.5V104zM108.2 108.2l-.1-.7c-.4.5-1 .8-1.8.8-1.2 0-1.9-.9-1.9-1.8 0-1.5 1.3-2.3 3.5-2.3v-.1c0-.4-.2-1-1.2-1-.6 0-1.2.2-1.6.4l-.3-1c.4-.3 1.2-.5 2.2-.5 1.9 0 2.5 1.2 2.5 2.5v2.2c0 .5 0 1.1.1 1.4h-1.4zm-.2-3c-1.1 0-2.1.2-2.1 1.1 0 .6.4.9.9.9.6 0 1-.4 1.2-.8v-1.2zM116.5 102.2v5.1c0 1.3-.3 2.1-.9 2.7-.6.6-1.5.7-2.3.7-.8 0-1.6-.2-2.1-.5l.3-1.1c.4.2 1 .5 1.7.5 1 0 1.7-.5 1.7-1.8v-.5c-.3.5-1 .9-1.7.9-1.5 0-2.5-1.2-2.5-2.9 0-2 1.3-3.1 2.7-3.1.9 0 1.4.4 1.7.9l.1-.8h1.3zm-1.5 2.4v-.4c-.2-.6-.6-1-1.2-1-.8 0-1.5.7-1.5 1.9 0 1 .5 1.8 1.5 1.8.6 0 1.1-.4 1.2-.9 0-.2.1-.4.1-.5v-.9zM119.2 105.6c0 1.1.9 1.5 1.8 1.5.7 0 1.2-.1 1.7-.3l.2 1c-.5.2-1.2.4-2.1.4-1.9 0-3.1-1.2-3.1-3 0-1.7 1-3.2 2.9-3.2s2.6 1.6 2.6 2.9v.6h-4zm2.6-1.1c0-.6-.2-1.5-1.2-1.5-.9 0-1.3.8-1.4 1.5h2.6zM124.4 104v-1.8h1.3l.1.9c.3-.5.8-1 1.8-1 .8 0 1.4.4 1.7 1.1.2-.3.5-.6.7-.7.3-.2.7-.4 1.2-.4 1 0 2 .7 2 2.6v3.5h-1.5v-3.3c0-1-.3-1.6-1.1-1.6-.5 0-.9.4-1.1.8 0 .1-.1.3-.1.5v3.6h-1.5v-3.5c0-.8-.3-1.4-1-1.4-.6 0-.9.4-1.1.9-.1.1-.1.3-.1.5v3.5h-1.5V104zM135.9 105.6c0 1.1.9 1.5 1.8 1.5.7 0 1.2-.1 1.7-.3l.2 1c-.5.2-1.2.4-2.1.4-1.9 0-3.1-1.2-3.1-3 0-1.7 1-3.2 2.9-3.2s2.6 1.6 2.6 2.9v.6h-4zm2.6-1.1c0-.6-.2-1.5-1.2-1.5-.9 0-1.3.8-1.4 1.5h2.6zM141.1 104v-1.8h1.3l.1.9c.3-.5.9-1 1.9-1 1 0 2.1.7 2.1 2.6v3.5H145v-3.4c0-.9-.3-1.5-1.1-1.5-.6 0-1 .4-1.2.9 0 .1-.1.3-.1.5v3.5h-1.5V104zM149.8 100.5v1.7h1.4v1.1h-1.4v2.6c0 .7.2 1.1.8 1.1.3 0 .5 0 .6-.1v1.2c-.2.1-.6.1-1.1.1-.6 0-1-.2-1.3-.5-.3-.3-.5-.9-.5-1.7v-2.8h-.9v-1.1h.9v-1.3l1.5-.3z" class="st29"/>
    </g>
    <g>
      <path d="M196.4 287.2c.5-.1 1.3-.2 2.3-.2 1.1 0 1.9.2 2.4.7.5.4.8 1.1.8 1.8 0 .8-.2 1.4-.7 1.9-.6.6-1.5.9-2.6.9h-.7v3.1h-1.5v-8.2zm1.5 3.9c.2 0 .4.1.7.1 1.1 0 1.8-.6 1.8-1.5s-.6-1.4-1.7-1.4c-.4 0-.7 0-.9.1v2.7zM203.9 292.8c0 1.1.9 1.5 1.8 1.5.7 0 1.2-.1 1.7-.3l.2 1c-.5.2-1.2.4-2.1.4-1.9 0-3.1-1.2-3.1-3 0-1.7 1-3.2 2.9-3.2s2.6 1.6 2.6 2.9v.6h-4zm2.6-1c0-.6-.2-1.5-1.2-1.5-.9 0-1.3.8-1.4 1.5h2.6zM209.2 291.3v-1.9h1.3v1.1c.3-.8 1-1.3 1.6-1.3h.4v1.4h-.4c-.7 0-1.2.5-1.3 1.1v3.6h-1.5v-4zM214 295.4v-4.8h-.8v-1.1h.8v-.3c0-.8.2-1.5.7-2 .4-.4 1-.6 1.6-.6.4 0 .7.1 1 .1l-.1 1.2c-.2-.1-.4-.1-.6-.1-.7 0-1 .6-1 1.4v.3h1.3v1.1h-1.3v4.8H214zM223.3 292.3c0 2.2-1.5 3.2-3.1 3.2-1.7 0-3-1.2-3-3.1 0-2 1.3-3.2 3.1-3.2 1.8.1 3 1.3 3 3.1zm-4.5.1c0 1.2.6 2 1.5 2s1.5-.8 1.5-2c0-.9-.4-2-1.4-2-1.2 0-1.6 1-1.6 2zM224.5 291.3v-1.9h1.3v1.1c.3-.8 1-1.3 1.6-1.3h.4v1.4h-.4c-.7 0-1.2.5-1.3 1.1v3.6h-1.5v-4zM228.9 291.2v-1.8h1.3l.1.9c.3-.5.8-1 1.8-1 .8 0 1.4.4 1.7 1.1.2-.3.5-.6.7-.7.3-.2.7-.4 1.2-.4 1 0 2 .7 2 2.6v3.5h-1.5v-3.3c0-1-.3-1.6-1.1-1.6-.5 0-.9.4-1.1.8 0 .1-.1.3-.1.5v3.6h-1.5v-3.5c0-.8-.3-1.4-1-1.4-.6 0-.9.4-1.1.9-.1.1-.1.3-.1.5v3.5h-1.5v-4.2zM242.6 295.4l-.1-.7c-.4.5-1 .8-1.8.8-1.2 0-1.9-.9-1.9-1.8 0-1.5 1.3-2.3 3.5-2.3v-.1c0-.4-.2-1-1.2-1-.6 0-1.2.2-1.6.4l-.3-1c.4-.3 1.2-.5 2.2-.5 1.9 0 2.5 1.2 2.5 2.5v2.2c0 .5 0 1.1.1 1.4h-1.4zm-.1-2.9c-1.1 0-2.1.2-2.1 1.1 0 .6.4.9.9.9.6 0 1-.4 1.2-.8v-1.2zM245.5 291.2v-1.8h1.3l.1.9c.3-.5.9-1 1.9-1 1 0 2.1.7 2.1 2.6v3.5h-1.5V292c0-.9-.3-1.5-1.1-1.5-.6 0-1 .4-1.2.9 0 .1-.1.3-.1.5v3.5h-1.5v-4.2zM256.9 295.2c-.3.1-.9.3-1.7.3-1.9 0-3.1-1.2-3.1-3s1.2-3.2 3.3-3.2c.6 0 1.1.1 1.5.3l-.3 1.1c-.2-.1-.6-.2-1.1-.2-1.2 0-1.8.8-1.8 1.9 0 1.2.8 1.9 1.8 1.9.5 0 .9-.1 1.2-.2l.2 1.1zM259 292.8c0 1.1.9 1.5 1.8 1.5.7 0 1.2-.1 1.7-.3l.2 1c-.5.2-1.2.4-2.1.4-1.9 0-3.1-1.2-3.1-3 0-1.7 1-3.2 2.9-3.2s2.6 1.6 2.6 2.9v.6h-4zm2.6-1c0-.6-.2-1.5-1.2-1.5-.9 0-1.3.8-1.4 1.5h2.6zM199 304.5c0 1.1.9 1.5 1.8 1.5.7 0 1.2-.1 1.7-.3l.2 1c-.5.2-1.2.4-2.1.4-1.9 0-3.1-1.2-3.1-3 0-1.7 1-3.2 2.9-3.2s2.6 1.6 2.6 2.9v.6h-4zm2.6-1.1c0-.6-.2-1.5-1.2-1.5-.9 0-1.3.8-1.4 1.5h2.6zM204.3 302.9v-1.8h1.3l.1.9c.3-.5.9-1 1.9-1 1 0 2.1.7 2.1 2.6v3.5h-1.5v-3.4c0-.9-.3-1.5-1.1-1.5-.6 0-1 .4-1.2.9 0 .1-.1.3-.1.5v3.5h-1.5v-4.2zM216.7 301.1v5.1c0 1.3-.3 2.1-.9 2.7-.6.6-1.5.7-2.3.7-.8 0-1.6-.2-2.1-.5l.3-1.1c.4.2 1 .5 1.7.5 1 0 1.7-.5 1.7-1.8v-.5c-.3.5-1 .9-1.7.9-1.5 0-2.5-1.2-2.5-2.9 0-2 1.3-3.1 2.7-3.1.9 0 1.4.4 1.7.9l.1-.8h1.3zm-1.5 2.4v-.4c-.2-.6-.6-1-1.2-1-.8 0-1.5.7-1.5 1.9 0 1 .5 1.8 1.5 1.8.6 0 1.1-.4 1.2-.9 0-.2.1-.4.1-.5v-.9zM219.9 299.4c0 .5-.3.8-.9.8-.5 0-.8-.4-.8-.8 0-.5.3-.8.8-.8s.9.3.9.8zm-1.6 7.6v-6h1.5v6h-1.5zM221.4 302.9v-1.8h1.3l.1.9c.3-.5.9-1 1.9-1 1 0 2.1.7 2.1 2.6v3.5h-1.5v-3.4c0-.9-.3-1.5-1.1-1.5-.6 0-1 .4-1.2.9 0 .1-.1.3-.1.5v3.5h-1.5v-4.2zM229.5 304.5c0 1.1.9 1.5 1.8 1.5.7 0 1.2-.1 1.7-.3l.2 1c-.5.2-1.2.4-2.1.4-1.9 0-3.1-1.2-3.1-3 0-1.7 1-3.2 2.9-3.2s2.6 1.6 2.6 2.9v.6h-4zm2.6-1.1c0-.6-.2-1.5-1.2-1.5-.9 0-1.3.8-1.4 1.5h2.6zM235.8 304.5c0 1.1.9 1.5 1.8 1.5.7 0 1.2-.1 1.7-.3l.2 1c-.5.2-1.2.4-2.1.4-1.9 0-3.1-1.2-3.1-3 0-1.7 1-3.2 2.9-3.2s2.6 1.6 2.6 2.9v.6h-4zm2.6-1.1c0-.6-.2-1.5-1.2-1.5-.9 0-1.3.8-1.4 1.5h2.6zM241 303v-1.9h1.3v1.1c.3-.8 1-1.3 1.6-1.3h.4v1.4h-.4c-.7 0-1.2.5-1.3 1.1v3.6H241v-4zM247 299.4c0 .5-.3.8-.9.8-.5 0-.8-.4-.8-.8 0-.5.3-.8.8-.8.6 0 .9.3.9.8zm-1.6 7.6v-6h1.5v6h-1.5zM248.5 302.9v-1.8h1.3l.1.9c.3-.5.9-1 1.9-1 1 0 2.1.7 2.1 2.6v3.5h-1.5v-3.4c0-.9-.3-1.5-1.1-1.5-.6 0-1 .4-1.2.9 0 .1-.1.3-.1.5v3.5h-1.5v-4.2zM261 301.1v5.1c0 1.3-.3 2.1-.9 2.7-.6.6-1.5.7-2.3.7-.8 0-1.6-.2-2.1-.5l.3-1.1c.4.2 1 .5 1.7.5 1 0 1.7-.5 1.7-1.8v-.5c-.3.5-1 .9-1.7.9-1.5 0-2.5-1.2-2.5-2.9 0-2 1.3-3.1 2.7-3.1.9 0 1.4.4 1.7.9l.1-.8h1.3zm-1.6 2.4v-.4c-.2-.6-.6-1-1.2-1-.8 0-1.5.7-1.5 1.9 0 1 .5 1.8 1.5 1.8.6 0 1.1-.4 1.2-.9 0-.2.1-.4.1-.5v-.9z" class="st29"/>
    </g>
    <g>
      <path d="M92.8 285.4v8.3h-1.5v-8.3h1.5zM94.3 289.5v-1.8h1.3l.1.9c.3-.5.9-1 1.9-1 1 0 2.1.7 2.1 2.6v3.5h-1.5v-3.4c0-.9-.3-1.5-1.1-1.5-.6 0-1 .4-1.2.9 0 .1-.1.3-.1.5v3.5h-1.5v-4.2zM101.9 287.7l1 3c.2.5.3 1 .4 1.5.1-.5.2-1 .4-1.5l.9-3h1.6l-2.3 6h-1.5l-2.2-6h1.7zM107.8 291.1c0 1.1.9 1.5 1.8 1.5.7 0 1.2-.1 1.7-.3l.2 1c-.5.2-1.2.4-2.1.4-1.9 0-3.1-1.2-3.1-3 0-1.7 1-3.2 2.9-3.2s2.6 1.6 2.6 2.9v.6h-4zm2.6-1c0-.6-.2-1.5-1.2-1.5-.9 0-1.3.8-1.4 1.5h2.6zM112.8 289.5v-1.8h1.3l.1.9c.3-.5.9-1 1.9-1 1 0 2.1.7 2.1 2.6v3.5h-1.5v-3.4c0-.9-.3-1.5-1.1-1.5-.6 0-1 .4-1.2.9 0 .1-.1.3-.1.5v3.5h-1.5v-4.2zM121.2 286v1.7h1.4v1.1h-1.4v2.6c0 .7.2 1.1.8 1.1.3 0 .5 0 .6-.1v1.2c-.2.1-.6.1-1.1.1-.6 0-1-.2-1.3-.5-.3-.3-.5-.9-.5-1.7v-2.8h-.9v-1.1h.9v-1.3l1.5-.3zM129.1 290.6c0 2.2-1.5 3.2-3.1 3.2-1.7 0-3-1.2-3-3.1 0-2 1.3-3.2 3.1-3.2 1.9.1 3 1.3 3 3.1zm-4.4.1c0 1.2.6 2 1.5 2s1.5-.8 1.5-2c0-.9-.4-2-1.4-2-1.2 0-1.6 1-1.6 2zM130.1 289.6v-1.9h1.3v1.1c.3-.8 1-1.3 1.6-1.3h.4v1.4h-.4c-.7 0-1.2.5-1.3 1.1v3.6h-1.5v-4zM135.5 287.7l1.1 3.2.3 1.2c.1-.3.2-.8.3-1.2l.9-3.2h1.6l-1.5 4.1c-.8 2.2-1.4 3.2-2.1 3.8-.6.5-1.2.7-1.6.8l-.3-1.3c.3-.1.6-.2.9-.4.3-.2.6-.5.8-.9.1-.1.1-.2.1-.3 0-.1 0-.1-.1-.3l-2.2-5.5h1.8zM81.5 301.2v-1.8h1.3l.1.9c.3-.5.8-1 1.8-1 .8 0 1.4.4 1.7 1.1.2-.3.5-.6.7-.7.3-.2.7-.4 1.2-.4 1 0 2 .7 2 2.6v3.5h-1.5V302c0-1-.3-1.6-1.1-1.6-.5 0-.9.4-1.1.8 0 .1-.1.3-.1.5v3.6H85v-3.5c0-.8-.3-1.4-1-1.4-.6 0-.9.4-1.1.9-.1.1-.1.3-.1.5v3.5h-1.5v-4.1zM95 305.3l-.1-.7c-.4.5-1 .8-1.8.8-1.2 0-1.9-.9-1.9-1.8 0-1.5 1.3-2.3 3.5-2.3v-.1c0-.4-.2-1-1.2-1-.6 0-1.2.2-1.6.4l-.3-1c.4-.3 1.2-.5 2.2-.5 1.9 0 2.5 1.2 2.5 2.5v2.2c0 .5 0 1.1.1 1.4H95zm-.2-2.9c-1.1 0-2.1.2-2.1 1.1 0 .6.4.9.9.9.6 0 1-.4 1.2-.8v-1.2zM97.6 301.2v-1.8h1.3l.1.9c.3-.5.9-1 1.9-1 1 0 2.1.7 2.1 2.6v3.5h-1.5V302c0-.9-.3-1.5-1.1-1.5-.6 0-1 .4-1.2.9 0 .1-.1.3-.1.5v3.5h-1.5v-4.2zM107.7 305.3l-.1-.7c-.4.5-1 .8-1.8.8-1.2 0-1.9-.9-1.9-1.8 0-1.5 1.3-2.3 3.5-2.3v-.1c0-.4-.2-1-1.2-1-.6 0-1.2.2-1.6.4l-.3-1c.4-.3 1.2-.5 2.2-.5 1.9 0 2.5 1.2 2.5 2.5v2.2c0 .5 0 1.1.1 1.4h-1.4zm-.2-2.9c-1.1 0-2.1.2-2.1 1.1 0 .6.4.9.9.9.6 0 1-.4 1.2-.8v-1.2zM115.8 299.4v5.1c0 1.3-.3 2.1-.9 2.7-.6.6-1.5.7-2.3.7-.8 0-1.6-.2-2.1-.5l.3-1.1c.4.2 1 .5 1.7.5 1 0 1.7-.5 1.7-1.8v-.5c-.3.5-1 .9-1.7.9-1.5 0-2.5-1.2-2.5-2.9 0-2 1.3-3.1 2.7-3.1.9 0 1.4.4 1.7.9l.1-.8h1.3zm-1.6 2.4v-.4c-.2-.6-.6-1-1.2-1-.8 0-1.5.7-1.5 1.9 0 1 .5 1.8 1.5 1.8.6 0 1.1-.4 1.2-.9 0-.2.1-.4.1-.5v-.9zM118.2 302.8c0 1.1.9 1.5 1.8 1.5.7 0 1.2-.1 1.7-.3l.2 1c-.5.2-1.2.4-2.1.4-1.9 0-3.1-1.2-3.1-3 0-1.7 1-3.2 2.9-3.2s2.6 1.6 2.6 2.9v.6h-4zm2.6-1.1c0-.6-.2-1.5-1.2-1.5-.9 0-1.3.8-1.4 1.5h2.6zM123.2 301.2v-1.8h1.3l.1.9c.3-.5.8-1 1.8-1 .8 0 1.4.4 1.7 1.1.2-.3.5-.6.7-.7.3-.2.7-.4 1.2-.4 1 0 2 .7 2 2.6v3.5h-1.5V302c0-1-.3-1.6-1.1-1.6-.5 0-.9.4-1.1.8 0 .1-.1.3-.1.5v3.6h-1.5v-3.5c0-.8-.3-1.4-1-1.4-.6 0-.9.4-1.1.9-.1.1-.1.3-.1.5v3.5H123v-4.1zM134.4 302.8c0 1.1.9 1.5 1.8 1.5.7 0 1.2-.1 1.7-.3l.2 1c-.5.2-1.2.4-2.1.4-1.9 0-3.1-1.2-3.1-3 0-1.7 1-3.2 2.9-3.2s2.6 1.6 2.6 2.9v.6h-4zm2.6-1.1c0-.6-.2-1.5-1.2-1.5-.9 0-1.3.8-1.4 1.5h2.6zM139.4 301.2v-1.8h1.3l.1.9c.3-.5.9-1 1.9-1 1 0 2.1.7 2.1 2.6v3.5h-1.5V302c0-.9-.3-1.5-1.1-1.5-.6 0-1 .4-1.2.9 0 .1-.1.3-.1.5v3.5h-1.5v-4.2zM147.9 297.7v1.7h1.4v1.1h-1.4v2.6c0 .7.2 1.1.8 1.1.3 0 .5 0 .6-.1v1.2c-.2.1-.6.1-1.1.1-.6 0-1-.2-1.3-.5-.3-.3-.5-.9-.5-1.7v-2.8h-.9v-1.1h.9V298l1.5-.3z" class="st29"/>
    </g>
    <g>
      <path d="M260 200.2h-3.1v2.4h3.5v1.2h-5v-8.3h4.8v1.2h-3.3v2.1h3.1v1.4zM264.3 200.1v1h-3.1v-1h3.1zM270.1 203.7c-.3.1-.9.3-1.7.3-1.9 0-3.1-1.2-3.1-3s1.2-3.2 3.3-3.2c.6 0 1.1.1 1.5.3l-.3 1.1c-.2-.1-.6-.2-1.1-.2-1.2 0-1.8.8-1.8 1.9 0 1.2.8 1.9 1.8 1.9.5 0 .9-.1 1.2-.2l.2 1.1zM276.7 200.8c0 2.2-1.5 3.2-3.1 3.2-1.7 0-3-1.2-3-3.1 0-2 1.3-3.2 3.1-3.2 1.8.1 3 1.3 3 3.1zm-4.5.1c0 1.2.6 2 1.5 2s1.5-.8 1.5-2c0-.9-.4-2-1.4-2-1.1 0-1.6 1-1.6 2zM278 199.7v-1.8h1.3l.1.9c.3-.5.8-1 1.8-1 .8 0 1.4.4 1.7 1.1.2-.3.5-.6.7-.7.3-.2.7-.4 1.2-.4 1 0 2 .7 2 2.6v3.5h-1.5v-3.3c0-1-.3-1.6-1.1-1.6-.5 0-.9.4-1.1.8 0 .1-.1.3-.1.5v3.6h-1.5v-3.5c0-.8-.3-1.4-1-1.4-.6 0-.9.4-1.1.9-.1.1-.1.3-.1.5v3.5H278v-4.2zM288.4 199.7v-1.8h1.3l.1.9c.3-.5.8-1 1.8-1 .8 0 1.4.4 1.7 1.1.2-.3.5-.6.7-.7.3-.2.7-.4 1.2-.4 1 0 2 .7 2 2.6v3.5h-1.5v-3.3c0-1-.3-1.6-1.1-1.6-.5 0-.9.4-1.1.8 0 .1-.1.3-.1.5v3.6H292v-3.5c0-.8-.3-1.4-1-1.4-.6 0-.9.4-1.1.9-.1.1-.1.3-.1.5v3.5h-1.5v-4.2zM299.8 201.3c0 1.1.9 1.5 1.8 1.5.7 0 1.2-.1 1.7-.3l.2 1c-.5.2-1.2.4-2.1.4-1.9 0-3.1-1.2-3.1-3 0-1.7 1-3.2 2.9-3.2s2.6 1.6 2.6 2.9v.6h-4zm2.6-1c0-.6-.2-1.5-1.2-1.5-.9 0-1.3.8-1.4 1.5h2.6zM305.1 199.8v-1.9h1.3v1.1c.3-.8 1-1.3 1.6-1.3h.4v1.4h-.4c-.7 0-1.2.5-1.3 1.1v3.6h-1.5v-4zM313.7 203.7c-.3.1-.9.3-1.7.3-1.9 0-3.1-1.2-3.1-3s1.2-3.2 3.3-3.2c.6 0 1.1.1 1.5.3l-.3 1.1c-.2-.1-.6-.2-1.1-.2-1.2 0-1.8.8-1.8 1.9 0 1.2.8 1.9 1.8 1.9.5 0 .9-.1 1.2-.2l.2 1.1zM315.8 201.3c0 1.1.9 1.5 1.8 1.5.7 0 1.2-.1 1.7-.3l.2 1c-.5.2-1.2.4-2.1.4-1.9 0-3.1-1.2-3.1-3 0-1.7 1-3.2 2.9-3.2s2.6 1.6 2.6 2.9v.6h-4zm2.6-1c0-.6-.2-1.5-1.2-1.5-.9 0-1.3.8-1.4 1.5h2.6z" class="st29"/>
    </g>
    <g>
      <path d="M27.1 186.2c.5-.1 1.3-.2 2.3-.2 1.1 0 1.9.2 2.4.7.5.4.8 1 .8 1.8s-.2 1.4-.7 1.8c-.6.6-1.5.9-2.6.9h-.7v3h-1.5v-8zm1.4 3.8c.2 0 .4.1.7.1 1.1 0 1.8-.5 1.8-1.5 0-.9-.6-1.4-1.6-1.4-.4 0-.7 0-.9.1v2.7zM39 191.2c0 2.1-1.5 3.1-3 3.1-1.7 0-2.9-1.1-2.9-3s1.3-3.1 3-3.1 2.9 1.3 2.9 3zm-4.4.1c0 1.1.6 2 1.5 2 .8 0 1.4-.8 1.4-2 0-.9-.4-2-1.4-2-1.1 0-1.5 1-1.5 2zM41.8 186.7c0 .4-.3.8-.8.8s-.8-.3-.8-.8.3-.8.8-.8c.4 0 .8.4.8.8zm-1.6 7.5v-5.8h1.5v5.8h-1.5zM43.3 190.1v-1.7h1.3l.1.9c.3-.5.9-1 1.9-1 1 0 2.1.7 2.1 2.5v3.5h-1.5V191c0-.8-.3-1.5-1.1-1.5-.6 0-1 .4-1.2.9 0 .1-.1.3-.1.5v3.4h-1.5v-4.2zM51.8 186.7v1.7h1.4v1.1h-1.4v2.6c0 .7.2 1.1.8 1.1.3 0 .4 0 .6-.1v1.1c-.2.1-.6.1-1.1.1-.5 0-1-.2-1.3-.5-.3-.3-.5-.9-.5-1.6v-2.7h-.8v-1.1h.8V187l1.5-.3zM56.9 190.5v1h-3.1v-1h3.1zM63.8 191.2c0 2.1-1.5 3.1-3 3.1-1.7 0-2.9-1.1-2.9-3s1.3-3.1 3-3.1 2.9 1.3 2.9 3zm-4.4.1c0 1.1.6 2 1.5 2 .8 0 1.4-.8 1.4-2 0-.9-.4-2-1.4-2-1.1 0-1.5 1-1.5 2zM65.2 194.2v-4.7h-.8v-1.1h.8v-.3c0-.8.2-1.5.7-2 .4-.4 1-.6 1.5-.6.4 0 .7.1.9.1l-.1 1.1c-.2-.1-.4-.1-.6-.1-.7 0-1 .6-1 1.3v.3h1.3v1.1h-1.3v4.7h-1.4zM71.5 190.5v1h-3.1v-1h3.1zM72.5 192.8c.3.2 1 .4 1.5.4.6 0 .9-.3.9-.6 0-.4-.2-.6-1-.9-1.1-.4-1.6-1-1.6-1.7 0-1 .9-1.8 2.2-1.8.6 0 1.2.2 1.5.3l-.3 1c-.3-.1-.7-.3-1.2-.3s-.8.3-.8.6c0 .4.3.6 1 .8 1.1.4 1.5.9 1.6 1.8 0 1.1-.8 1.8-2.4 1.8-.7 0-1.3-.2-1.8-.4l.4-1zM80.9 194.2l-.1-.6c-.4.5-1 .8-1.7.8-1.2 0-1.8-.9-1.8-1.7 0-1.5 1.3-2.2 3.5-2.2v-.1c0-.4-.2-1-1.2-1-.6 0-1.2.2-1.6.4l-.3-1c.4-.3 1.2-.5 2.1-.5 1.9 0 2.4 1.2 2.4 2.5v2.1c0 .5 0 1 .1 1.4h-1.4zm-.2-2.9c-1 0-2 .2-2 1.1 0 .6.4.8.8.8.6 0 1-.4 1.2-.8v-1.1zM83.7 185.7h1.5v8.5h-1.5v-8.5zM87.8 191.7c0 1.1.9 1.5 1.8 1.5.7 0 1.2-.1 1.6-.3l.2 1c-.5.2-1.2.4-2 .4-1.9 0-3-1.2-3-3 0-1.6 1-3.1 2.9-3.1s2.5 1.6 2.5 2.8v.6h-4zm2.6-1c0-.5-.2-1.4-1.2-1.4-.9 0-1.3.8-1.4 1.4h2.6zM92.3 194.7l2.9-8.7h1l-2.9 8.7h-1zM28.2 204.5c.3.2 1 .4 1.5.4.6 0 .9-.3.9-.6 0-.4-.2-.6-1-.9-1.1-.4-1.6-1-1.6-1.7 0-1 .9-1.8 2.2-1.8.6 0 1.2.2 1.5.3l-.3 1c-.3-.1-.7-.3-1.2-.3s-.8.3-.8.6c0 .4.3.6 1 .8 1.1.4 1.5.9 1.6 1.8 0 1.1-.8 1.8-2.4 1.8-.7 0-1.3-.2-1.8-.4l.4-1zM34.9 198.4v1.7h1.4v1.1h-1.4v2.6c0 .7.2 1.1.8 1.1.3 0 .4 0 .6-.1v1.1c-.2.1-.6.1-1.1.1-.5 0-1-.2-1.3-.5-.3-.3-.5-.9-.5-1.6v-2.7h-.8V200h.8v-1.3l1.5-.3zM42.9 202.9c0 2.1-1.5 3.1-3 3.1-1.7 0-2.9-1.1-2.9-3s1.3-3.1 3-3.1c1.8 0 2.9 1.2 2.9 3zm-4.4.1c0 1.1.6 2 1.5 2 .8 0 1.4-.8 1.4-2 0-.9-.4-2-1.4-2-1.1 0-1.5 1-1.5 2zM44.1 201.9V200h1.3v1.1c.3-.8 1-1.2 1.6-1.2h.3v1.4h-.4c-.7 0-1.2.5-1.3 1.1v3.5h-1.5v-4zM49.3 203.4c0 1.1.9 1.5 1.8 1.5.7 0 1.2-.1 1.6-.3l.2 1c-.5.2-1.2.4-2 .4-1.9 0-3-1.2-3-3 0-1.6 1-3.1 2.9-3.1s2.5 1.6 2.5 2.8v.6h-4zm2.6-1.1c0-.5-.2-1.4-1.2-1.4-.9 0-1.3.8-1.4 1.4h2.6zM56.9 204.5c.3.2 1 .4 1.5.4.6 0 .9-.3.9-.6 0-.4-.2-.6-1-.9-1.1-.4-1.6-1-1.6-1.7 0-1 .9-1.8 2.2-1.8.6 0 1.2.2 1.5.3l-.3 1c-.3-.1-.7-.3-1.2-.3s-.8.3-.8.6c0 .4.3.6 1 .8 1.1.4 1.5.9 1.6 1.8 0 1.1-.8 1.8-2.4 1.8-.7 0-1.3-.2-1.8-.4l.4-1zM62.9 200l1.1 3.1c.1.4.2.8.3 1.1.1-.3.2-.8.3-1.2l.9-3.1h1.6l-1.5 4c-.8 2.2-1.3 3.2-2 3.8-.6.5-1.2.7-1.5.8l-.3-1.2c.3-.1.6-.2.9-.4.3-.2.6-.5.8-.9.1-.1.1-.2.1-.3 0-.1 0-.1-.1-.3l-2.1-5.4h1.5zM67.8 204.5c.3.2 1 .4 1.5.4.6 0 .9-.3.9-.6 0-.4-.2-.6-1-.9-1.1-.4-1.6-1-1.6-1.7 0-1 .9-1.8 2.2-1.8.6 0 1.2.2 1.5.3l-.3 1c-.3-.1-.7-.3-1.2-.3s-.8.3-.8.6c0 .4.3.6 1 .8 1.1.4 1.5.9 1.6 1.8 0 1.1-.8 1.8-2.4 1.8-.7 0-1.3-.2-1.8-.4l.4-1zM74.5 198.4v1.7h1.4v1.1h-1.4v2.6c0 .7.2 1.1.8 1.1.3 0 .4 0 .6-.1v1.1c-.2.1-.6.1-1.1.1-.5 0-1-.2-1.3-.5-.3-.3-.5-.9-.5-1.6v-2.7h-.8V200h.8v-1.3l1.5-.3zM78 203.4c0 1.1.9 1.5 1.8 1.5.7 0 1.2-.1 1.6-.3l.2 1c-.5.2-1.2.4-2 .4-1.9 0-3-1.2-3-3 0-1.6 1-3.1 2.9-3.1s2.5 1.6 2.5 2.8v.6h-4zm2.6-1.1c0-.5-.2-1.4-1.2-1.4-.9 0-1.3.8-1.4 1.4h2.6zM83.2 201.8v-1.7h1.3l.1.9c.3-.5.8-1 1.8-1 .8 0 1.4.4 1.6 1.1.2-.3.4-.6.7-.7.3-.2.7-.3 1.2-.3 1 0 2 .7 2 2.5v3.4h-1.4v-3.2c0-1-.3-1.5-1-1.5-.5 0-.9.4-1 .8 0 .1-.1.3-.1.5v3.5H87v-3.4c0-.8-.3-1.4-1-1.4-.6 0-.9.4-1.1.8-.1.1-.1.3-.1.5v3.5h-1.4v-4.3zM34.5 210.1c0 .4-.3.8-.8.8s-.8-.3-.8-.8.3-.8.8-.8.8.3.8.8zm-1.5 7.4v-5.8h1.5v5.8H33zM36 213.4v-1.7h1.3l.1.9c.3-.5.9-1 1.9-1 1 0 2.1.7 2.1 2.5v3.5h-1.5v-3.3c0-.8-.3-1.5-1.1-1.5-.6 0-1 .4-1.2.9 0 .1-.1.3-.1.5v3.4H36v-4.2zM44.5 210v1.7h1.4v1.1h-1.4v2.6c0 .7.2 1.1.8 1.1.3 0 .4 0 .6-.1v1.1c-.2.1-.6.1-1.1.1-.5 0-1-.2-1.3-.5-.3-.3-.5-.9-.5-1.6v-2.7h-.8v-1.1h.8v-1.3l1.5-.4zM48 215c0 1.1.9 1.5 1.8 1.5.7 0 1.2-.1 1.6-.3l.2 1c-.5.2-1.2.4-2 .4-1.9 0-3-1.2-3-3 0-1.6 1-3.1 2.9-3.1s2.5 1.6 2.5 2.8v.6h-4zm2.6-1c0-.5-.2-1.4-1.2-1.4-.9 0-1.3.8-1.4 1.4h2.6zM58.5 211.7v5c0 1.2-.3 2.1-.9 2.7-.6.5-1.5.7-2.3.7-.7 0-1.5-.2-2-.5l.3-1.1c.4.2 1 .4 1.7.4 1 0 1.7-.5 1.7-1.8v-.5c-.3.5-.9.9-1.7.9-1.5 0-2.5-1.2-2.5-2.9 0-1.9 1.2-3.1 2.7-3.1.9 0 1.4.4 1.7.9l.1-.8h1.2zM57 214v-.4c-.2-.5-.6-.9-1.2-.9-.8 0-1.4.7-1.4 1.9 0 1 .5 1.8 1.4 1.8.6 0 1-.4 1.2-.9 0-.2.1-.4.1-.5v-1zM60 213.6v-1.9h1.3v1.1c.3-.8 1-1.2 1.6-1.2h.3v1.4h-.4c-.7 0-1.2.5-1.3 1.1v3.5H60v-4zM67.4 217.5l-.1-.6c-.4.5-1 .8-1.7.8-1.2 0-1.8-.9-1.8-1.7 0-1.5 1.3-2.2 3.5-2.2v-.1c0-.4-.2-1-1.2-1-.6 0-1.2.2-1.6.4l-.3-1c.4-.3 1.2-.5 2.1-.5 1.9 0 2.4 1.2 2.4 2.5v2.1c0 .5 0 1 .1 1.4h-1.4zm-.1-2.8c-1 0-2 .2-2 1.1 0 .6.4.8.8.8.6 0 1-.4 1.2-.8v-1.1zM71.9 210v1.7h1.4v1.1h-1.4v2.6c0 .7.2 1.1.8 1.1.3 0 .4 0 .6-.1v1.1c-.2.1-.6.1-1.1.1-.5 0-1-.2-1.3-.5-.3-.3-.5-.9-.5-1.6v-2.7h-.8v-1.1h.8v-1.3l1.5-.4zM76 210.1c0 .4-.3.8-.8.8s-.8-.3-.8-.8.3-.8.8-.8c.4 0 .8.3.8.8zm-1.6 7.4v-5.8h1.5v5.8h-1.5zM83 214.6c0 2.1-1.5 3.1-3 3.1-1.7 0-2.9-1.1-2.9-3s1.3-3.1 3-3.1c1.8 0 2.9 1.2 2.9 3zm-4.4 0c0 1.1.6 2 1.5 2 .8 0 1.4-.8 1.4-2 0-.9-.4-2-1.4-2-1.1 0-1.5 1-1.5 2zM84.2 213.4v-1.7h1.3l.1.9c.3-.5.9-1 1.9-1 1 0 2.1.7 2.1 2.5v3.5H88v-3.3c0-.8-.3-1.5-1.1-1.5-.6 0-1 .4-1.2.9 0 .1-.1.3-.1.5v3.4h-1.5v-4.2z" class="st29"/>
    </g>
    <g>
      <path d="M226.8 40v-5.6M218.6 40v-5.6M226.8 78.7v-5.6M218.6 78.7v-5.6M235.1 78.7v-5.6M210.3 56.6h-5.6M210.3 64.8h-5.6M210.3 48.3h-5.6M249 56.6h-5.6M249 64.8h-5.6M249 48.3h-5.6M243.4 44v29.1h-33.1V39.7H233" class="st28"/>
      <path d="M240.4 44.9l3-5.2 3 5.2z" class="st29"/>
      <circle cx="235.2" cy="39.7" r="2.3" class="st28"/>
      <g>
        <path d="M215.3 61.7l2.4 1.6 7.3-6.7 4 2.3 6.2-6.5" class="st28"/>
        <path d="M236.7 55.1l1.4-5.8-5.7 1.7z" class="st29"/>
      </g>
    </g>
    <g>
      <path d="M117.4 239.5h6.5M106.7 239.5h6.2M123.6 279.2H96.1v-39.7h5.6M128.1 239.5h6.1v36.7" class="st28"/>
      <path d="M131.2 275.3l3 5.2 3-5.2z" class="st29"/>
      <path d="M104.1 236.7v5.7M115.2 236.7v5.7M125.9 236.7v5.7" class="st28"/>
      <circle cx="126.5" cy="279.1" r="2.3" class="st28"/>
      <path d="M102.1 246.3h10.4v10.4h-10.4zM117.4 251.5h10.8" class="st31"/>
      <path d="M117.8 261.1h10.4v10.4h-10.4z" class="st31" transform="rotate(180 123 266.285)"/>
      <path d="M112.9 266.3h-10.8" class="st31"/>
    </g>
    <g>
      <path id="XMLID_32_" fill="none" stroke="#fff" stroke-linecap="square" stroke-miterlimit="10" stroke-width="1.5" d="M279.3 189.4h16"/>
      <path id="XMLID_31_" d="M287.4 180.5v8.5" class="st28"/>
      <g id="XMLID_95_">
        <path d="M265.3 152.5v28h41.5v-3.6" class="st28"/>
        <path d="M262.3 153.4l3-5.2 3 5.2z" class="st29"/>
      </g>
      <path id="XMLID_26_" d="M306.8 154.4v-5.9h-32.5" class="st28"/>
      <path d="M309.9 167.5h-10.2l-3-9.2h16.2zM298.2 162.9h13.1M296.7 158.3l-1.2-3.2h-1.7M299.7 167.5l1.2 3.1h10.9" class="st28"/>
      <circle cx="311.9" cy="173" r="2.3" class="st28"/>
      <circle cx="301.6" cy="173" r="2.3" class="st28"/>
      <circle cx="272.6" cy="148.7" r="2.3" class="st28"/>
    </g>
    <g>
      <circle cx="231.6" cy="256.4" r="22.6" class="st33"/>
      <path d="M246 246.4c2 2.8 3.1 6.3 3.1 10h-3.8M217.9 256.4h-3.8c0-9.7 7.8-17.5 17.5-17.5 3.3 0 6.5.9 9.1 2.5M231.6 238.9v4M218.9 244.3l2.4 2.4M221.2 263.9H242v5.5h-20.8z" class="st33"/>
      <circle cx="231.3" cy="255.4" r="2.3" class="st33"/>
      <path d="M233.4 253.3l17.8-17.3" class="st33"/>
      <path d="M252.7 238.8l1.6-5.8-5.8 1.5z" class="st29"/>
    </g>
    <g>
      <path d="M131.2 59.2v-5.5M131.2 70.1v-5.8M96.5 52.7v27h34.7V75" class="st33"/>
      <path d="M93.5 53.6l3-5.2 2.9 5.2z" class="st29"/>
      <path d="M131.2 48.8v-6.3h-7.3" class="st33"/>
      <path d="M134 72.6h-5.7M134 61.7h-5.7M134 51.2h-5.7" class="st28"/>
      <circle cx="96.5" cy="42.6" r="2.3" class="st28"/>
      <path d="M106.4 42.5H100M113.9 34.7c-2.2.5-3.9 2.2-4.4 4.4-.4 2.1.3 4.1 1.7 5.4 1.2 1.1 1.9 2.5 1.9 4.1v.2h4.2v-.2c0-1.6.7-3.1 1.9-4.2 1.1-1 1.8-2.5 1.8-4.1-.2-3.5-3.4-6.3-7.1-5.6zM113.1 52h4M114.4 54.8h1.4M115.1 31.7v-2.4M120.4 33.3l1.3-1.8M123.6 37.8h2.5M109.7 33.3l-1.4-1.8M106.5 37.8H104" class="st33"/>
    </g>
    <g>
      <path d="M75.7 166.7l-.5 9.3h-2.5M50.3 176h-2.9l-1.8-39.1H77l-.4 8.4-.4 8.3" class="st33"/>
      <path d="M73.2 152.6l2.8 5.3 3.2-5.1z" class="st29"/>
      <path d="M70.6 151H51.9l-.3-7.8h19.3zM53.6 157.1h15.2M53.6 162.3h15.2" class="st33"/>
      <path fill="none" stroke="#fff" stroke-linecap="square" stroke-linejoin="bevel" stroke-miterlimit="10" stroke-width="1.499" d="M52.1 136.9h18.3c0-5.1 3.2-5.9 3.2-5.9H55.3s-3.2.5-3.2 5.9z"/>
      <path d="M51.8 171h18.8M53.1 171h16.4v9.9H53.1zM57.7 171v9.5" class="st33"/>
    </g>
    <circle cx="75.7" cy="164.4" r="2.3" class="st33"/>
  </g>
</svg>
