<svg xmlns="http://www.w3.org/2000/svg" viewBox="0 0 1300 757.67"><defs><style>.cls-1{fill:#d8e7da;}.cls-2{fill:#a8d7cd;}.cls-3,.cls-4,.cls-6,.cls-7{fill:none;}.cls-3{stroke:#a8d7cd;}.cls-3,.cls-4,.cls-6{stroke-miterlimit:10;}.cls-3,.cls-4{stroke-width:2.31px;}.cls-4{stroke:#00b28f;}.cls-5{fill:#00321d;}.cls-6,.cls-7{stroke:#00321d;stroke-width:3px;}.cls-7{stroke-linejoin:bevel;}</style></defs><title>retail-grocery-lrg</title><g id="Layer_3" data-name="Layer 3"><polygon class="cls-1" points="925.42 0.48 894.48 0.71 894.48 772.21 1300 772.21 1300 0.48 925.42 0.48"/><polygon class="cls-2" points="477.21 0.66 448 0.48 448 772.39 853.52 772.39 853.52 0.66 477.21 0.66"/><polygon class="cls-1" points="28.96 0.66 0 0.48 0 772.39 405.52 772.39 405.52 0.66 28.96 0.66"/><line class="cls-3" x1="19.28" y1="186.92" x2="360.9" y2="188.19"/><polygon class="cls-1" points="410.93 69.07 410.93 125.15 438.98 97.11 410.93 69.07"/><polygon class="cls-2" points="858.73 69.07 858.73 125.15 886.77 97.11 858.73 69.07"/><line class="cls-3" x1="925.84" y1="186.92" x2="1267.46" y2="188.19"/><line class="cls-4" x1="479.95" y1="186.92" x2="821.57" y2="188.19"/></g><g id="Layer_1" data-name="Layer 1"><path class="cls-5" d="M151.09,65.13a34.91,34.91,0,0,1,6.06-.47c3.08,0,5,.37,6.53,1.45a4.81,4.81,0,0,1,2.37,4.27,5.3,5.3,0,0,1-3.79,4.94v.07A5.76,5.76,0,0,1,166.87,81a5.92,5.92,0,0,1-2.21,4.71c-1.62,1.42-4.3,2.13-8.46,2.13a41.64,41.64,0,0,1-5.11-.3Zm4.13,9h2.13c2.88,0,4.5-1.36,4.5-3.29,0-2.13-1.62-3.11-4.26-3.11a11.42,11.42,0,0,0-2.37.17Zm0,10.49a17.93,17.93,0,0,0,2.2.1c2.67,0,5-1,5-3.82,0-2.64-2.3-3.73-5.18-3.73h-2.06Z"/><path class="cls-5" d="M179.8,87.65l-.27-1.83h-.11a6.1,6.1,0,0,1-4.87,2.2,4.9,4.9,0,0,1-5.18-4.91c0-4.17,3.69-6.26,9.78-6.23v-.27c0-1.08-.44-2.88-3.35-2.88A8.72,8.72,0,0,0,171.37,75l-.82-2.71a12,12,0,0,1,6-1.46c5.28,0,6.81,3.36,6.81,7v6a26.32,26.32,0,0,0,.24,4Zm-.54-8.06c-2.95-.07-5.76.57-5.76,3.08A2.19,2.19,0,0,0,175.87,85a3.36,3.36,0,0,0,3.25-2.27,3,3,0,0,0,.14-.91Z"/><path class="cls-5" d="M187.51,83.82A9.28,9.28,0,0,0,191.75,85c1.83,0,2.64-.75,2.64-1.83s-.68-1.7-2.71-2.41c-3.22-1.11-4.57-2.87-4.54-4.81,0-2.91,2.41-5.18,6.23-5.18a9.66,9.66,0,0,1,4.37,1l-.81,2.94a7.47,7.47,0,0,0-3.49-.95c-1.49,0-2.3.72-2.3,1.73s.78,1.56,2.88,2.3c3,1.09,4.36,2.61,4.4,5,0,3-2.34,5.15-6.71,5.15a10.62,10.62,0,0,1-5-1.16Z"/><path class="cls-5" d="M206,78.4h.07c.4-.64.88-1.35,1.32-1.93l4-5.31h5L210.3,77.9l7,9.75h-5.11l-4.74-7.28L206,82v5.62h-4.17v-24H206Z"/><path class="cls-5" d="M221.77,80.57c.11,3,2.44,4.27,5.08,4.27a12.24,12.24,0,0,0,4.57-.75L232,87a15.59,15.59,0,0,1-5.75,1c-5.35,0-8.5-3.29-8.5-8.33,0-4.58,2.78-8.88,8.06-8.88s7.11,4.41,7.11,8a9.88,9.88,0,0,1-.14,1.76ZM229,77.66c0-1.53-.64-4-3.42-4-2.57,0-3.66,2.33-3.83,4Z"/><path class="cls-5" d="M241.07,66.45v4.71h4v3.11h-4v7.28c0,2,.54,3,2.13,3a6.22,6.22,0,0,0,1.63-.2l.07,3.18a9.1,9.1,0,0,1-3,.41,4.78,4.78,0,0,1-3.58-1.36c-.88-.95-1.29-2.44-1.29-4.6V74.27h-2.37V71.16H237V67.43Z"/><path class="cls-5" d="M150.78,121.5c.07-1.12.14-3,.14-4.64V97.46h4.16v9.82h.07a6,6,0,0,1,5.28-2.64c4,0,6.91,3.35,6.88,8.36,0,5.93-3.76,8.87-7.49,8.87a5.66,5.66,0,0,1-5.21-2.84h-.07l-.2,2.47Zm4.3-6.81a5.27,5.27,0,0,0,.1,1,3.84,3.84,0,0,0,3.69,2.91c2.61,0,4.2-2.1,4.2-5.42,0-2.91-1.38-5.28-4.16-5.28a3.9,3.9,0,0,0-3.69,3,4.72,4.72,0,0,0-.14,1.08Z"/><path class="cls-5" d="M185.48,116.56c0,2,.07,3.59.14,4.94H182l-.2-2.5h-.07a6,6,0,0,1-5.28,2.87c-3,0-5.76-1.79-5.76-7.18V105h4.17v9c0,2.75.88,4.51,3.08,4.51a3.51,3.51,0,0,0,3.18-2.24,3.65,3.65,0,0,0,.24-1.28V105h4.16Z"/><path class="cls-5" d="M194.42,100.41a2.34,2.34,0,1,1-2.34-2.27A2.2,2.2,0,0,1,194.42,100.41ZM190,121.5V105h4.2V121.5Z"/><path class="cls-5" d="M198.65,97.46h4.2v24h-4.2Z"/><path class="cls-5" d="M222.56,97.46v19.4c0,1.69.06,3.52.13,4.64H219l-.17-2.61h-.07a5.93,5.93,0,0,1-5.38,3c-3.93,0-7-3.35-7-8.43,0-5.52,3.42-8.8,7.38-8.8a5.25,5.25,0,0,1,4.64,2.17h.07V97.46Zm-4.17,14.42a5.71,5.71,0,0,0-.1-1.08,3.64,3.64,0,0,0-3.59-2.94c-2.68,0-4.16,2.37-4.16,5.45s1.48,5.21,4.13,5.21a3.68,3.68,0,0,0,3.59-2.94,4.76,4.76,0,0,0,.13-1.22Z"/><path class="cls-5" d="M231.46,100.41a2.34,2.34,0,1,1-2.34-2.27A2.23,2.23,0,0,1,231.46,100.41ZM227,121.5V105h4.2V121.5Z"/><path class="cls-5" d="M235.69,109.92c0-1.89,0-3.49-.14-4.91h3.66l.2,2.47h.1a6,6,0,0,1,5.25-2.84c2.88,0,5.86,1.86,5.86,7.08v9.78h-4.16v-9.31c0-2.37-.88-4.16-3.15-4.16a3.49,3.49,0,0,0-3.25,2.43,4.16,4.16,0,0,0-.17,1.36v9.68h-4.2Z"/><path class="cls-5" d="M270.12,105c-.07,1.12-.14,2.47-.14,4.74v9.35c0,3.45-.71,5.92-2.43,7.48a9.52,9.52,0,0,1-6.37,2,11.64,11.64,0,0,1-5.75-1.32l.91-3.15a10,10,0,0,0,4.81,1.25c2.71,0,4.74-1.42,4.74-5V119h-.07A5.56,5.56,0,0,1,261,121.4c-4.1,0-7-3.39-7-8.06,0-5.42,3.52-8.7,7.49-8.7a5.2,5.2,0,0,1,4.77,2.57h.07l.17-2.2Zm-4.3,6.6a3.72,3.72,0,0,0-.14-1.11,3.45,3.45,0,0,0-3.38-2.68c-2.34,0-4.07,2-4.07,5.38,0,2.82,1.43,5.08,4,5.08a3.55,3.55,0,0,0,3.39-2.5,7.31,7.31,0,0,0,.17-1.49Z"/><path class="cls-5" d="M606,64.83h4.16V84.16h9.38v3.49H606Z"/><path class="cls-5" d="M637.82,79.25c0,6.06-4.26,8.77-8.46,8.77-4.67,0-8.26-3.22-8.26-8.5s3.55-8.74,8.53-8.74S637.82,74.24,637.82,79.25Zm-12.42.17c0,3.18,1.55,5.59,4.09,5.59,2.37,0,4-2.34,4-5.66,0-2.57-1.15-5.52-4-5.52S625.4,76.68,625.4,79.42Z"/><path class="cls-5" d="M653.36,87.14a12.17,12.17,0,0,1-4.67.85c-5.15,0-8.5-3.29-8.5-8.4,0-5,3.39-8.81,9.18-8.81a10.42,10.42,0,0,1,4,.78l-.75,3.12A7.26,7.26,0,0,0,649.5,74c-3.18,0-5.08,2.34-5,5.35,0,3.39,2.2,5.32,5,5.32a8.08,8.08,0,0,0,3.28-.64Z"/><path class="cls-5" d="M665.72,87.65l-.27-1.83h-.11a6.1,6.1,0,0,1-4.87,2.2,4.9,4.9,0,0,1-5.18-4.91c0-4.17,3.69-6.26,9.78-6.23v-.27c0-1.08-.44-2.88-3.35-2.88A8.72,8.72,0,0,0,657.29,75l-.82-2.71a12,12,0,0,1,6-1.46c5.28,0,6.81,3.36,6.81,7v6a26.32,26.32,0,0,0,.24,4Zm-.54-8.06c-2.95-.07-5.76.57-5.76,3.08A2.19,2.19,0,0,0,661.79,85,3.36,3.36,0,0,0,665,82.77a3,3,0,0,0,.14-.91Z"/><path class="cls-5" d="M678.21,66.45v4.71h4v3.11h-4v7.28c0,2,.54,3,2.13,3a6.34,6.34,0,0,0,1.63-.2l.06,3.18a9,9,0,0,1-3,.41,4.82,4.82,0,0,1-3.59-1.36c-.88-.95-1.28-2.44-1.28-4.6V74.27h-2.38V71.16h2.38V67.43Z"/><path class="cls-5" d="M689.75,66.55a2.34,2.34,0,0,1-4.67,0,2.34,2.34,0,0,1,4.67,0Zm-4.43,21.1V71.16h4.2V87.65Z"/><path class="cls-5" d="M709.66,79.25c0,6.06-4.26,8.77-8.46,8.77-4.68,0-8.26-3.22-8.26-8.5s3.55-8.74,8.53-8.74S709.66,74.24,709.66,79.25Zm-12.43.17c0,3.18,1.56,5.59,4.1,5.59,2.37,0,4-2.34,4-5.66,0-2.57-1.15-5.52-4-5.52S697.23,76.68,697.23,79.42Z"/><path class="cls-5" d="M713.08,76.07c0-1.9,0-3.49-.14-4.91h3.66l.2,2.47h.1a6,6,0,0,1,5.25-2.85c2.88,0,5.86,1.87,5.86,7.08v9.79h-4.17V78.34c0-2.38-.88-4.17-3.14-4.17a3.52,3.52,0,0,0-3.26,2.44,4.39,4.39,0,0,0-.16,1.35v9.69h-4.2Z"/><path class="cls-5" d="M739.86,77.18v2.88h-8.64V77.18Z"/><path class="cls-5" d="M605.69,121.5c.07-1.12.14-3,.14-4.64V97.46H610v9.82h.07a6,6,0,0,1,5.28-2.64c4,0,6.91,3.35,6.88,8.36,0,5.93-3.76,8.87-7.49,8.87a5.66,5.66,0,0,1-5.21-2.84h-.07l-.2,2.47Zm4.3-6.81a5.27,5.27,0,0,0,.1,1,3.84,3.84,0,0,0,3.69,2.91c2.61,0,4.2-2.1,4.2-5.42,0-2.91-1.38-5.28-4.16-5.28a3.9,3.9,0,0,0-3.69,3A4.72,4.72,0,0,0,610,112Z"/><path class="cls-5" d="M634.91,121.5l-.27-1.83h-.1a6.12,6.12,0,0,1-4.88,2.2,4.89,4.89,0,0,1-5.18-4.91c0-4.16,3.69-6.26,9.79-6.23v-.27c0-1.08-.44-2.88-3.36-2.88a8.75,8.75,0,0,0-4.43,1.22l-.81-2.7a11.81,11.81,0,0,1,6-1.46c5.28,0,6.8,3.35,6.8,6.94v6a26.23,26.23,0,0,0,.24,4Zm-.54-8.06c-3-.07-5.76.58-5.76,3.08a2.18,2.18,0,0,0,2.37,2.37,3.36,3.36,0,0,0,3.25-2.27,3,3,0,0,0,.14-.91Z"/><path class="cls-5" d="M642.63,117.67a9.2,9.2,0,0,0,4.23,1.19c1.83,0,2.64-.75,2.64-1.83s-.68-1.69-2.71-2.4c-3.22-1.12-4.57-2.88-4.54-4.81,0-2.91,2.41-5.18,6.23-5.18a9.67,9.67,0,0,1,4.37,1l-.81,2.95a7.35,7.35,0,0,0-3.49-.95c-1.49,0-2.3.71-2.3,1.73s.78,1.55,2.88,2.3c3,1.08,4.37,2.6,4.4,5,0,3-2.34,5.15-6.7,5.15a10.76,10.76,0,0,1-5-1.15Z"/><path class="cls-5" d="M659.89,114.42c.1,3,2.44,4.27,5.08,4.27a12.24,12.24,0,0,0,4.57-.75l.61,2.88a15.39,15.39,0,0,1-5.75,1c-5.35,0-8.5-3.29-8.5-8.33,0-4.57,2.77-8.87,8.06-8.87s7.11,4.4,7.11,8a9.88,9.88,0,0,1-.14,1.76Zm7.25-2.91c0-1.52-.64-4-3.42-4-2.57,0-3.66,2.34-3.83,4Z"/><path class="cls-5" d="M689.62,97.46v19.4c0,1.69.07,3.52.13,4.64H686l-.17-2.61h-.07a5.93,5.93,0,0,1-5.38,3c-3.93,0-7-3.35-7-8.43,0-5.52,3.42-8.8,7.38-8.8a5.26,5.26,0,0,1,4.64,2.17h.06V97.46Zm-4.17,14.42a5.71,5.71,0,0,0-.1-1.08,3.64,3.64,0,0,0-3.59-2.94c-2.67,0-4.16,2.37-4.16,5.45s1.49,5.21,4.13,5.21a3.68,3.68,0,0,0,3.59-2.94,4.76,4.76,0,0,0,.13-1.22Z"/><path class="cls-5" d="M700.89,117.67a9.23,9.23,0,0,0,4.23,1.19c1.83,0,2.64-.75,2.64-1.83s-.68-1.69-2.71-2.4c-3.21-1.12-4.57-2.88-4.53-4.81,0-2.91,2.4-5.18,6.23-5.18a9.62,9.62,0,0,1,4.36,1l-.81,2.95a7.35,7.35,0,0,0-3.49-.95c-1.49,0-2.3.71-2.3,1.73s.78,1.55,2.88,2.3c3,1.08,4.37,2.6,4.4,5,0,3-2.34,5.15-6.7,5.15a10.69,10.69,0,0,1-5-1.15Z"/><path class="cls-5" d="M718.15,114.42c.11,3,2.44,4.27,5.08,4.27a12.24,12.24,0,0,0,4.57-.75l.61,2.88a15.39,15.39,0,0,1-5.75,1c-5.35,0-8.5-3.29-8.5-8.33,0-4.57,2.78-8.87,8.06-8.87s7.11,4.4,7.11,8a9.88,9.88,0,0,1-.14,1.76Zm7.25-2.91c0-1.52-.64-4-3.42-4-2.57,0-3.66,2.34-3.83,4Z"/><path class="cls-5" d="M732.68,110.33c0-2.24,0-3.83-.14-5.32h3.63l.13,3.15h.14a4.91,4.91,0,0,1,4.5-3.52,4.22,4.22,0,0,1,1,.1v3.93a5.62,5.62,0,0,0-1.22-.14,3.67,3.67,0,0,0-3.72,3.15,6.88,6.88,0,0,0-.14,1.29v8.53h-4.16Z"/><path class="cls-5" d="M748.11,105l2.68,8.36c.47,1.46.81,2.78,1.12,4.14h.1c.3-1.36.68-2.65,1.12-4.14l2.6-8.36h4.4l-6.29,16.49h-4.1L743.61,105Z"/><path class="cls-5" d="M767.11,100.41a2.34,2.34,0,1,1-2.34-2.27A2.23,2.23,0,0,1,767.11,100.41Zm-4.44,21.09V105h4.2V121.5Z"/><path class="cls-5" d="M783.46,121a12,12,0,0,1-4.67.85c-5.15,0-8.5-3.29-8.5-8.4,0-4.94,3.38-8.8,9.17-8.8a10.34,10.34,0,0,1,4,.78l-.74,3.11a7.43,7.43,0,0,0-3.15-.64c-3.18,0-5.08,2.34-5.05,5.35,0,3.38,2.21,5.31,5.05,5.31a8.08,8.08,0,0,0,3.28-.64Z"/><path class="cls-5" d="M789.18,114.42c.1,3,2.44,4.27,5.08,4.27a12.24,12.24,0,0,0,4.57-.75l.61,2.88a15.45,15.45,0,0,1-5.76,1c-5.35,0-8.5-3.29-8.5-8.33,0-4.57,2.78-8.87,8.06-8.87s7.11,4.4,7.11,8a11.21,11.21,0,0,1-.13,1.76Zm7.25-2.91c0-1.52-.65-4-3.42-4-2.58,0-3.66,2.34-3.83,4Z"/><path class="cls-5" d="M803.5,117.67a9.23,9.23,0,0,0,4.23,1.19c1.83,0,2.64-.75,2.64-1.83s-.68-1.69-2.71-2.4c-3.21-1.12-4.57-2.88-4.53-4.81,0-2.91,2.4-5.18,6.23-5.18a9.59,9.59,0,0,1,4.36,1l-.81,2.95a7.35,7.35,0,0,0-3.49-.95c-1.49,0-2.3.71-2.3,1.73s.78,1.55,2.88,2.3c3,1.08,4.37,2.6,4.4,5,0,3-2.33,5.15-6.7,5.15a10.69,10.69,0,0,1-5-1.15Z"/><path class="cls-5" d="M1061.19,87.65l-7.38-22.82h4.54l3.11,10.36c.88,2.87,1.63,5.55,2.24,8.33h.07c.61-2.71,1.42-5.49,2.33-8.27l3.32-10.42h4.44L1066,87.65Z"/><path class="cls-5" d="M1084.15,87.65l-.27-1.83h-.11a6.1,6.1,0,0,1-4.87,2.2,4.9,4.9,0,0,1-5.18-4.91c0-4.17,3.69-6.26,9.78-6.23v-.27c0-1.08-.44-2.88-3.35-2.88a8.72,8.72,0,0,0-4.43,1.22l-.82-2.71a12,12,0,0,1,6-1.46c5.29,0,6.81,3.36,6.81,7v6a26.32,26.32,0,0,0,.24,4Zm-.54-8.06c-2.95-.07-5.76.57-5.76,3.08a2.19,2.19,0,0,0,2.37,2.37,3.36,3.36,0,0,0,3.25-2.27,3,3,0,0,0,.14-.91Z"/><path class="cls-5" d="M1092.07,63.61h4.2v24h-4.2Z"/><path class="cls-5" d="M1115.53,82.7c0,2,.07,3.59.14,5H1112l-.2-2.51h-.07a6,6,0,0,1-5.28,2.88c-3,0-5.76-1.8-5.76-7.18V71.16h4.17v9c0,2.74.88,4.5,3.08,4.5a3.5,3.5,0,0,0,3.18-2.23,3.66,3.66,0,0,0,.24-1.29v-10h4.16Z"/><path class="cls-5" d="M1123,80.57c.1,3,2.43,4.27,5.08,4.27a12.28,12.28,0,0,0,4.57-.75l.61,2.88a15.69,15.69,0,0,1-5.76,1c-5.35,0-8.5-3.29-8.5-8.33,0-4.58,2.78-8.88,8.06-8.88s7.11,4.41,7.11,8a11.21,11.21,0,0,1-.13,1.76Zm7.24-2.91c0-1.53-.64-4-3.42-4-2.57,0-3.65,2.33-3.82,4Z"/><path class="cls-5" d="M1145.9,77.18v2.88h-8.64V77.18Z"/><path class="cls-5" d="M1065.09,121.5l-.27-1.83h-.11a6.1,6.1,0,0,1-4.87,2.2,4.89,4.89,0,0,1-5.18-4.91c0-4.16,3.69-6.26,9.78-6.23v-.27c0-1.08-.44-2.88-3.35-2.88a8.72,8.72,0,0,0-4.43,1.22l-.82-2.7a11.84,11.84,0,0,1,6-1.46c5.28,0,6.81,3.35,6.81,6.94v6a26.23,26.23,0,0,0,.24,4Zm-.54-8.06c-3-.07-5.76.58-5.76,3.08a2.18,2.18,0,0,0,2.37,2.37,3.36,3.36,0,0,0,3.25-2.27,3,3,0,0,0,.14-.91Z"/><path class="cls-5" d="M1088.21,97.46v19.4c0,1.69.07,3.52.14,4.64h-3.73l-.17-2.61h-.07a5.93,5.93,0,0,1-5.38,3c-3.93,0-7-3.35-7-8.43,0-5.52,3.42-8.8,7.38-8.8a5.26,5.26,0,0,1,4.64,2.17h.07V97.46Zm-4.16,14.42a5.74,5.74,0,0,0-.11-1.08,3.64,3.64,0,0,0-3.58-2.94c-2.68,0-4.17,2.37-4.17,5.45s1.49,5.21,4.13,5.21a3.68,3.68,0,0,0,3.59-2.94,4.75,4.75,0,0,0,.14-1.22Z"/><path class="cls-5" d="M1107.88,97.46v19.4c0,1.69.07,3.52.14,4.64h-3.73l-.17-2.61h-.07a5.93,5.93,0,0,1-5.38,3c-3.93,0-7-3.35-7-8.43,0-5.52,3.42-8.8,7.38-8.8a5.26,5.26,0,0,1,4.64,2.17h.06V97.46Zm-4.17,14.42a5.71,5.71,0,0,0-.1-1.08,3.64,3.64,0,0,0-3.59-2.94c-2.67,0-4.16,2.37-4.16,5.45s1.49,5.21,4.13,5.21a3.68,3.68,0,0,0,3.59-2.94,4.76,4.76,0,0,0,.13-1.22Z"/><path class="cls-5" d="M1115.29,114.42c.1,3,2.44,4.27,5.08,4.27a12.24,12.24,0,0,0,4.57-.75l.61,2.88a15.45,15.45,0,0,1-5.76,1c-5.35,0-8.49-3.29-8.49-8.33,0-4.57,2.77-8.87,8-8.87s7.12,4.4,7.12,8a9.88,9.88,0,0,1-.14,1.76Zm7.25-2.91c0-1.52-.65-4-3.42-4-2.58,0-3.66,2.34-3.83,4Z"/><path class="cls-5" d="M1145,97.46v19.4c0,1.69.06,3.52.13,4.64h-3.72l-.17-2.61h-.07a5.93,5.93,0,0,1-5.38,3c-3.93,0-7-3.35-7-8.43,0-5.52,3.41-8.8,7.38-8.8a5.24,5.24,0,0,1,4.63,2.17h.07V97.46Zm-4.17,14.42a5.71,5.71,0,0,0-.1-1.08,3.64,3.64,0,0,0-3.59-2.94c-2.67,0-4.16,2.37-4.16,5.45s1.49,5.21,4.13,5.21a3.68,3.68,0,0,0,3.59-2.94,4.76,4.76,0,0,0,.13-1.22Z"/><path class="cls-5" d="M1156.29,117.67a9.2,9.2,0,0,0,4.23,1.19c1.83,0,2.64-.75,2.64-1.83s-.68-1.69-2.71-2.4c-3.22-1.12-4.57-2.88-4.54-4.81,0-2.91,2.41-5.18,6.24-5.18a9.66,9.66,0,0,1,4.36,1l-.81,2.95a7.35,7.35,0,0,0-3.49-.95c-1.49,0-2.3.71-2.3,1.73s.78,1.55,2.88,2.3c3,1.08,4.37,2.6,4.4,5,0,3-2.34,5.15-6.7,5.15a10.76,10.76,0,0,1-5-1.15Z"/><path class="cls-5" d="M1173.55,114.42c.1,3,2.44,4.27,5.08,4.27a12.24,12.24,0,0,0,4.57-.75l.61,2.88a15.39,15.39,0,0,1-5.75,1c-5.35,0-8.5-3.29-8.5-8.33,0-4.57,2.77-8.87,8.06-8.87s7.11,4.4,7.11,8a9.88,9.88,0,0,1-.14,1.76Zm7.25-2.91c0-1.52-.64-4-3.42-4-2.57,0-3.66,2.34-3.83,4Z"/><path class="cls-5" d="M1188.08,110.33c0-2.24,0-3.83-.14-5.32h3.62l.14,3.15h.13a4.93,4.93,0,0,1,4.51-3.52,4.28,4.28,0,0,1,1,.1v3.93a5.62,5.62,0,0,0-1.22-.14,3.67,3.67,0,0,0-3.72,3.15,6.88,6.88,0,0,0-.14,1.29v8.53h-4.16Z"/><path class="cls-5" d="M1203.51,105l2.68,8.36c.47,1.46.81,2.78,1.12,4.14h.1c.3-1.36.67-2.65,1.11-4.14l2.61-8.36h4.4l-6.3,16.49h-4.09L1199,105Z"/><path class="cls-5" d="M1222.51,100.41a2.34,2.34,0,1,1-2.34-2.27A2.23,2.23,0,0,1,1222.51,100.41Zm-4.44,21.09V105h4.2V121.5Z"/><path class="cls-5" d="M1238.86,121a12,12,0,0,1-4.67.85c-5.15,0-8.5-3.29-8.5-8.4,0-4.94,3.38-8.8,9.17-8.8a10.38,10.38,0,0,1,4,.78l-.74,3.11a7.43,7.43,0,0,0-3.15-.64c-3.18,0-5.08,2.34-5,5.35,0,3.38,2.2,5.31,5,5.31a8.12,8.12,0,0,0,3.28-.64Z"/><path class="cls-5" d="M1244.58,114.42c.1,3,2.44,4.27,5.08,4.27a12.24,12.24,0,0,0,4.57-.75l.61,2.88a15.45,15.45,0,0,1-5.76,1c-5.35,0-8.5-3.29-8.5-8.33,0-4.57,2.78-8.87,8.06-8.87s7.11,4.4,7.11,8a10.09,10.09,0,0,1-.13,1.76Zm7.25-2.91c0-1.52-.65-4-3.42-4-2.58,0-3.66,2.34-3.83,4Z"/><path class="cls-5" d="M1258.9,117.67a9.23,9.23,0,0,0,4.23,1.19c1.83,0,2.64-.75,2.64-1.83s-.67-1.69-2.71-2.4c-3.21-1.12-4.57-2.88-4.53-4.81,0-2.91,2.4-5.18,6.23-5.18a9.59,9.59,0,0,1,4.36,1l-.81,2.95a7.35,7.35,0,0,0-3.49-.95c-1.49,0-2.3.71-2.3,1.73s.78,1.55,2.88,2.3c3,1.08,4.37,2.6,4.4,5,0,3-2.33,5.15-6.7,5.15a10.72,10.72,0,0,1-5-1.15Z"/><path class="cls-5" d="M159,270.61a11.08,11.08,0,0,1-4.52.81c-4.82,0-8.45-3.05-8.45-8.66,0-5.36,3.63-9,8.93-9a9.29,9.29,0,0,1,4.07.76l-.54,1.81a8,8,0,0,0-3.45-.71c-4,0-6.68,2.56-6.68,7.06,0,4.18,2.41,6.88,6.58,6.88a8.87,8.87,0,0,0,3.6-.71Z"/><path class="cls-5" d="M172.5,264.92c0,4.54-3.15,6.52-6.12,6.52-3.32,0-5.89-2.43-5.89-6.32,0-4.11,2.69-6.52,6.1-6.52S172.5,261.16,172.5,264.92Zm-9.75.13c0,2.69,1.55,4.72,3.74,4.72s3.73-2,3.73-4.77c0-2.09-1-4.73-3.68-4.73S162.75,262.71,162.75,265.05Z"/><path class="cls-5" d="M175.32,262.2c0-1.27,0-2.31-.1-3.32h2l.13,2h0a4.51,4.51,0,0,1,4.06-2.31c1.7,0,4.34,1,4.34,5.23v7.34h-2.23v-7.09c0-2-.74-3.63-2.85-3.63a3.17,3.17,0,0,0-3,2.29,3.26,3.26,0,0,0-.15,1v7.39h-2.24Z"/><path class="cls-5" d="M192,255.35v3.53h3.2v1.7H192v6.62c0,1.53.43,2.39,1.68,2.39a4.81,4.81,0,0,0,1.29-.15l.11,1.67a5.47,5.47,0,0,1-2,.31,3.1,3.1,0,0,1-2.41-.94,4.57,4.57,0,0,1-.86-3.2v-6.7h-1.9v-1.7h1.9v-2.95Z"/><path class="cls-5" d="M198.81,265.43c.05,3,2,4.26,4.21,4.26a8.22,8.22,0,0,0,3.41-.63l.38,1.6a10.1,10.1,0,0,1-4.09.76c-3.78,0-6-2.49-6-6.2s2.18-6.62,5.76-6.62c4,0,5.08,3.53,5.08,5.79a7.57,7.57,0,0,1-.08,1Zm6.55-1.6c0-1.42-.58-3.63-3.1-3.63-2.26,0-3.25,2.08-3.43,3.63Z"/><path class="cls-5" d="M211.25,258.88l1.75,2.64c.46.68.84,1.32,1.25,2h.07c.41-.73.81-1.37,1.22-2l1.73-2.61h2.41l-4.19,5.94,4.32,6.35h-2.54l-1.81-2.77c-.48-.71-.88-1.4-1.32-2.13h0c-.4.73-.83,1.39-1.29,2.13L211,271.17h-2.46l4.37-6.28-4.17-6Z"/><path class="cls-5" d="M225,255.35v3.53h3.19v1.7H225v6.62c0,1.53.43,2.39,1.67,2.39a4.84,4.84,0,0,0,1.3-.15l.1,1.67a5.41,5.41,0,0,1-2,.31,3.09,3.09,0,0,1-2.41-.94,4.52,4.52,0,0,1-.87-3.2v-6.7h-1.9v-1.7h1.9v-2.95Z"/><path class="cls-5" d="M241,267.81c0,1.27,0,2.39.1,3.36h-2l-.12-2h-.06a4.6,4.6,0,0,1-4.06,2.28c-1.93,0-4.24-1.06-4.24-5.38v-7.18h2.24v6.8c0,2.34.71,3.91,2.74,3.91a3.16,3.16,0,0,0,3.15-3.17v-7.54H241Z"/><path class="cls-5" d="M251.49,271.17l-.17-1.55h-.08a4.6,4.6,0,0,1-3.76,1.82,3.5,3.5,0,0,1-3.76-3.52c0-3,2.64-4.6,7.39-4.57v-.26a2.53,2.53,0,0,0-2.79-2.84,6.11,6.11,0,0,0-3.2.91l-.51-1.47a7.65,7.65,0,0,1,4-1.09c3.76,0,4.67,2.56,4.67,5v4.6a17.62,17.62,0,0,0,.2,2.95Zm-.33-6.28c-2.43-.05-5.2.39-5.2,2.77a2,2,0,0,0,2.11,2.13,3.06,3.06,0,0,0,3-2.05,2.52,2.52,0,0,0,.12-.71Z"/><path class="cls-5" d="M256.93,253.14h2.23v18h-2.23Z"/><path class="cls-5" d="M146.93,288.1c0-1.45,0-2.69-.1-3.83h2l.07,2.41H149a3.67,3.67,0,0,1,3.4-2.69,2.43,2.43,0,0,1,.63.07v2.11a3.39,3.39,0,0,0-.76-.07,3.12,3.12,0,0,0-3,2.86,5.46,5.46,0,0,0-.11,1.05v6.55h-2.21Z"/><path class="cls-5" d="M156.23,290.82c.05,3,2,4.26,4.21,4.26a8.14,8.14,0,0,0,3.4-.63l.39,1.6a10.1,10.1,0,0,1-4.09.76c-3.79,0-6-2.49-6-6.2s2.19-6.62,5.77-6.62c4,0,5.08,3.53,5.08,5.79a7.57,7.57,0,0,1-.08,1Zm6.55-1.6c0-1.42-.59-3.63-3.1-3.63-2.26,0-3.25,2.08-3.43,3.63Z"/><path class="cls-5" d="M176.46,296.1a8.26,8.26,0,0,1-3.53.71c-3.7,0-6.11-2.51-6.11-6.27a6.25,6.25,0,0,1,6.6-6.53,7.3,7.3,0,0,1,3.09.64l-.5,1.72a5.26,5.26,0,0,0-2.59-.58c-2.82,0-4.34,2.08-4.34,4.65,0,2.84,1.82,4.59,4.26,4.59a6.31,6.31,0,0,0,2.74-.61Z"/><path class="cls-5" d="M190.05,290.31c0,4.55-3.15,6.53-6.12,6.53-3.33,0-5.89-2.44-5.89-6.33,0-4.11,2.69-6.52,6.09-6.52S190.05,286.55,190.05,290.31Zm-9.75.13c0,2.69,1.55,4.72,3.73,4.72s3.73-2,3.73-4.77c0-2.09-1-4.73-3.68-4.73S180.3,288.1,180.3,290.44Z"/><path class="cls-5" d="M192.87,287.59c0-1.27,0-2.31-.11-3.32h2l.1,2h.08a4.23,4.23,0,0,1,3.86-2.26,3.64,3.64,0,0,1,3.48,2.46h0a5.08,5.08,0,0,1,1.37-1.6,4.17,4.17,0,0,1,2.71-.86c1.63,0,4,1.06,4,5.33v7.24h-2.18v-7c0-2.36-.87-3.78-2.67-3.78a2.89,2.89,0,0,0-2.64,2,3.68,3.68,0,0,0-.18,1.11v7.6h-2.18v-7.37c0-1.95-.86-3.37-2.56-3.37a3,3,0,0,0-2.77,2.23,3,3,0,0,0-.18,1.09v7.42h-2.18Z"/><path class="cls-5" d="M214,287.59c0-1.27,0-2.31-.1-3.32h2l.1,2h.07a4.24,4.24,0,0,1,3.86-2.26,3.62,3.62,0,0,1,3.48,2.46h.05a5.21,5.21,0,0,1,1.37-1.6,4.2,4.2,0,0,1,2.72-.86c1.62,0,4,1.06,4,5.33v7.24H229.4v-7c0-2.36-.86-3.78-2.66-3.78a2.89,2.89,0,0,0-2.64,2,3.68,3.68,0,0,0-.18,1.11v7.6h-2.18v-7.37c0-1.95-.87-3.37-2.57-3.37a3,3,0,0,0-2.77,2.23,3.23,3.23,0,0,0-.17,1.09v7.42H214Z"/><path class="cls-5" d="M236.46,290.82a3.93,3.93,0,0,0,4.22,4.26,8.17,8.17,0,0,0,3.4-.63l.38,1.6a10.06,10.06,0,0,1-4.09.76c-3.78,0-6-2.49-6-6.2s2.18-6.62,5.76-6.62c4,0,5.08,3.53,5.08,5.79a7.57,7.57,0,0,1-.08,1Zm6.55-1.6c0-1.42-.58-3.63-3.09-3.63-2.26,0-3.25,2.08-3.43,3.63Z"/><path class="cls-5" d="M247.94,287.59c0-1.27,0-2.31-.1-3.32h2l.12,2H250a4.5,4.5,0,0,1,4.06-2.31c1.7,0,4.34,1,4.34,5.23v7.34h-2.23v-7.09c0-2-.74-3.63-2.85-3.63a3.17,3.17,0,0,0-3,2.29,3,3,0,0,0-.16,1v7.39h-2.23Z"/><path class="cls-5" d="M272.64,278.53v14.85c0,1.09,0,2.34.11,3.18h-2l-.1-2.14h-.05a4.57,4.57,0,0,1-4.19,2.42c-3,0-5.26-2.52-5.26-6.25,0-4.09,2.52-6.6,5.51-6.6a4.12,4.12,0,0,1,3.71,1.88h.05v-7.34Zm-2.23,10.74a4.29,4.29,0,0,0-.1-.94,3.29,3.29,0,0,0-3.23-2.59c-2.31,0-3.68,2-3.68,4.75,0,2.49,1.22,4.54,3.63,4.54a3.37,3.37,0,0,0,3.28-2.66,4.25,4.25,0,0,0,.1-1Z"/><path class="cls-5" d="M283.16,296.56,283,295h-.08a4.58,4.58,0,0,1-3.76,1.83,3.5,3.5,0,0,1-3.75-3.53c0-3,2.64-4.6,7.38-4.57v-.26a2.53,2.53,0,0,0-2.79-2.84,6.13,6.13,0,0,0-3.2.91l-.51-1.47a7.65,7.65,0,0,1,4-1.09c3.76,0,4.67,2.56,4.67,5v4.59a16.55,16.55,0,0,0,.21,2.95Zm-.33-6.28c-2.44,0-5.21.39-5.21,2.77a2,2,0,0,0,2.11,2.14,3.06,3.06,0,0,0,3-2.06,2.53,2.53,0,0,0,.13-.71Z"/><path class="cls-5" d="M291.18,280.74v3.53h3.2V286h-3.2v6.63c0,1.52.43,2.38,1.67,2.38a4.84,4.84,0,0,0,1.3-.15l.1,1.68a5.67,5.67,0,0,1-2,.3,3.09,3.09,0,0,1-2.41-.94,4.53,4.53,0,0,1-.86-3.2V286h-1.91v-1.7H289v-2.95Z"/><path class="cls-5" d="M299.38,280.81a1.32,1.32,0,0,1-1.42,1.38,1.33,1.33,0,0,1-1.35-1.38,1.36,1.36,0,0,1,1.4-1.39A1.32,1.32,0,0,1,299.38,280.81Zm-2.49,15.75V284.27h2.24v12.29Z"/><path class="cls-5" d="M314,290.31c0,4.55-3.14,6.53-6.11,6.53-3.33,0-5.9-2.44-5.9-6.33,0-4.11,2.7-6.52,6.1-6.52S314,286.55,314,290.31Zm-9.75.13c0,2.69,1.55,4.72,3.74,4.72s3.73-2,3.73-4.77c0-2.09-1-4.73-3.68-4.73S304.2,288.1,304.2,290.44Z"/><path class="cls-5" d="M316.77,287.59c0-1.27,0-2.31-.1-3.32h2l.13,2h.05a4.51,4.51,0,0,1,4.06-2.31c1.7,0,4.34,1,4.34,5.23v7.34H325v-7.09c0-2-.74-3.63-2.84-3.63a3.17,3.17,0,0,0-3,2.29,3.26,3.26,0,0,0-.15,1v7.39h-2.24Z"/><path class="cls-5" d="M330.56,294.27a5.87,5.87,0,0,0,2.94.89c1.63,0,2.39-.81,2.39-1.83s-.63-1.65-2.28-2.26c-2.21-.79-3.25-2-3.25-3.48,0-2,1.6-3.6,4.24-3.6a6.11,6.11,0,0,1,3,.76l-.56,1.62a4.81,4.81,0,0,0-2.51-.71c-1.32,0-2.06.77-2.06,1.68s.74,1.47,2.34,2.08c2.13.81,3.22,1.88,3.22,3.71,0,2.16-1.68,3.68-4.6,3.68A7,7,0,0,1,330,296Z"/><path class="cls-5" d="M147,387a25.36,25.36,0,0,1,4.24-.33,7,7,0,0,1,4.8,1.42,4.6,4.6,0,0,1,1.5,3.58,5,5,0,0,1-1.32,3.65,7.07,7.07,0,0,1-5.23,1.88,7.48,7.48,0,0,1-1.78-.15V404H147Zm2.21,8.25a7.24,7.24,0,0,0,1.83.18c2.66,0,4.29-1.3,4.29-3.66s-1.6-3.35-4-3.35a8.76,8.76,0,0,0-2.08.18Z"/><path class="cls-5" d="M170.93,397.7c0,4.55-3.15,6.53-6.12,6.53-3.33,0-5.89-2.44-5.89-6.33,0-4.11,2.69-6.52,6.09-6.52S170.93,393.94,170.93,397.7Zm-9.75.13c0,2.69,1.55,4.72,3.73,4.72s3.73-2,3.73-4.77c0-2.09-1-4.73-3.68-4.73S161.18,395.49,161.18,397.83Z"/><path class="cls-5" d="M173.75,395.49c0-1.45,0-2.69-.1-3.83h1.95l.08,2.41h.1a3.68,3.68,0,0,1,3.4-2.69,2.56,2.56,0,0,1,.64.07v2.11a3.49,3.49,0,0,0-.77-.07,3.13,3.13,0,0,0-3,2.87,6.33,6.33,0,0,0-.1,1V404h-2.21Z"/><path class="cls-5" d="M185.35,388.13v3.53h3.2v1.7h-3.2V400c0,1.52.43,2.38,1.68,2.38a4.81,4.81,0,0,0,1.29-.15l.1,1.68a5.62,5.62,0,0,1-2,.3,3.09,3.09,0,0,1-2.41-.94,4.57,4.57,0,0,1-.86-3.2v-6.7h-1.91v-1.7h1.91v-3Z"/><path class="cls-5" d="M197.87,404l-.18-1.55h-.08a4.57,4.57,0,0,1-3.75,1.83,3.51,3.51,0,0,1-3.76-3.53c0-3,2.64-4.6,7.39-4.57v-.26a2.54,2.54,0,0,0-2.8-2.84,6.07,6.07,0,0,0-3.19.91l-.51-1.47a7.61,7.61,0,0,1,4-1.09c3.76,0,4.68,2.56,4.68,5V401a17.62,17.62,0,0,0,.2,2.95Zm-.33-6.27c-2.44-.06-5.21.38-5.21,2.76a2,2,0,0,0,2.11,2.14,3.05,3.05,0,0,0,3-2.06,2.22,2.22,0,0,0,.13-.71Z"/><path class="cls-5" d="M203.3,385.92h2.24v18H203.3Z"/><path class="cls-5" d="M223.44,403.49a8.33,8.33,0,0,1-3.53.71c-3.71,0-6.12-2.51-6.12-6.27a6.25,6.25,0,0,1,6.6-6.53,7.39,7.39,0,0,1,3.1.64l-.51,1.73a5.1,5.1,0,0,0-2.59-.59c-2.82,0-4.34,2.08-4.34,4.65,0,2.84,1.83,4.59,4.26,4.59a6.39,6.39,0,0,0,2.75-.61Z"/><path class="cls-5" d="M237,397.7c0,4.55-3.15,6.53-6.12,6.53-3.32,0-5.89-2.44-5.89-6.33,0-4.11,2.69-6.52,6.09-6.52S237,393.94,237,397.7Zm-9.75.13c0,2.69,1.55,4.72,3.73,4.72s3.74-2,3.74-4.77c0-2.09-1.05-4.73-3.69-4.73S227.27,395.49,227.27,397.83Z"/><path class="cls-5" d="M239.84,395c0-1.27,0-2.31-.1-3.32h2l.12,2h.06a4.5,4.5,0,0,1,4.06-2.31c1.7,0,4.34,1,4.34,5.23V404h-2.23v-7.09c0-2-.74-3.63-2.85-3.63a3.17,3.17,0,0,0-3,2.29,3,3,0,0,0-.16,1V404h-2.23Z"/><path class="cls-5" d="M256.52,388.13v3.53h3.2v1.7h-3.2V400c0,1.52.43,2.38,1.68,2.38a4.81,4.81,0,0,0,1.29-.15l.1,1.68a5.62,5.62,0,0,1-2,.3,3.09,3.09,0,0,1-2.41-.94,4.57,4.57,0,0,1-.86-3.2v-6.7h-1.91v-1.7h1.91v-3Z"/><path class="cls-5" d="M263.33,398.21c.05,3,2,4.26,4.21,4.26a8.17,8.17,0,0,0,3.4-.63l.38,1.6a10,10,0,0,1-4.08.76c-3.79,0-6.05-2.49-6.05-6.19s2.19-6.63,5.77-6.63c4,0,5.07,3.53,5.07,5.79a10.18,10.18,0,0,1-.07,1Zm6.55-1.6c0-1.42-.59-3.63-3.1-3.63-2.26,0-3.25,2.08-3.43,3.63Z"/><path class="cls-5" d="M274.8,395c0-1.27,0-2.31-.1-3.32h2l.13,2h.05a4.51,4.51,0,0,1,4.06-2.31c1.7,0,4.34,1,4.34,5.23V404H283v-7.09c0-2-.74-3.63-2.85-3.63a3.17,3.17,0,0,0-3,2.29,3.26,3.26,0,0,0-.15,1V404H274.8Z"/><path class="cls-5" d="M291.48,388.13v3.53h3.2v1.7h-3.2V400c0,1.52.44,2.38,1.68,2.38a4.81,4.81,0,0,0,1.29-.15l.11,1.68a5.71,5.71,0,0,1-2,.3,3.11,3.11,0,0,1-2.42-.94,4.57,4.57,0,0,1-.86-3.2v-6.7h-1.9v-1.7h1.9v-3Z"/><path class="cls-5" d="M146.93,421.06c0-1.57-.05-2.84-.1-4h2l.1,2.11H149a4.84,4.84,0,0,1,4.37-2.39c3,0,5.2,2.51,5.2,6.25,0,4.41-2.69,6.6-5.58,6.6a4.32,4.32,0,0,1-3.79-1.93h-.05v6.67h-2.21Zm2.21,3.28a4.28,4.28,0,0,0,.11.91,3.43,3.43,0,0,0,3.35,2.61c2.36,0,3.73-1.92,3.73-4.74,0-2.47-1.3-4.57-3.66-4.57a3.56,3.56,0,0,0-3.37,2.76,3.48,3.48,0,0,0-.16.92Z"/><path class="cls-5" d="M162.63,423.6c.05,3,2,4.26,4.21,4.26a8,8,0,0,0,3.4-.63l.38,1.6a9.83,9.83,0,0,1-4.08.76c-3.79,0-6-2.49-6-6.19s2.19-6.63,5.77-6.63c4,0,5.08,3.53,5.08,5.79a9.4,9.4,0,0,1-.08,1Zm6.55-1.6c0-1.42-.59-3.63-3.1-3.63-2.26,0-3.25,2.08-3.43,3.63Z"/><path class="cls-5" d="M174.1,420.88c0-1.44,0-2.69-.1-3.83h2l.07,2.41h.1a3.69,3.69,0,0,1,3.41-2.69,2,2,0,0,1,.63.08V419a3.45,3.45,0,0,0-.76-.07,3.14,3.14,0,0,0-3,2.87,6.33,6.33,0,0,0-.1,1v6.55H174.1Z"/><path class="cls-5" d="M182.1,427.05a5.88,5.88,0,0,0,3,.89c1.62,0,2.38-.81,2.38-1.83s-.63-1.65-2.28-2.26c-2.21-.78-3.25-2-3.25-3.48,0-2,1.6-3.6,4.24-3.6a6.11,6.11,0,0,1,3,.76l-.56,1.63a4.71,4.71,0,0,0-2.51-.72c-1.32,0-2.06.77-2.06,1.68s.74,1.47,2.34,2.08c2.13.82,3.22,1.88,3.22,3.71,0,2.16-1.67,3.68-4.59,3.68a7,7,0,0,1-3.46-.84Z"/><path class="cls-5" d="M203.58,423.09c0,4.55-3.15,6.53-6.12,6.53-3.32,0-5.89-2.44-5.89-6.33,0-4.11,2.69-6.52,6.1-6.52S203.58,419.33,203.58,423.09Zm-9.75.13c0,2.69,1.55,4.72,3.73,4.72s3.74-2,3.74-4.77c0-2.08-1.05-4.73-3.69-4.73S193.83,420.88,193.83,423.22Z"/><path class="cls-5" d="M206.4,420.37c0-1.26,0-2.31-.1-3.32h2l.13,2h.05a4.51,4.51,0,0,1,4.06-2.31c1.7,0,4.34,1,4.34,5.23v7.34h-2.23v-7.09c0-2-.74-3.63-2.85-3.63a3.17,3.17,0,0,0-3,2.29,3,3,0,0,0-.16,1v7.39H206.4Z"/><path class="cls-5" d="M227.3,429.34l-.18-1.55H227a4.58,4.58,0,0,1-3.76,1.83,3.5,3.5,0,0,1-3.75-3.53c0-3,2.64-4.6,7.39-4.57v-.26a2.54,2.54,0,0,0-2.8-2.84,6.23,6.23,0,0,0-3.2.91l-.5-1.47a7.58,7.58,0,0,1,4-1.09c3.76,0,4.67,2.56,4.67,5v4.59a16.55,16.55,0,0,0,.21,2.95Zm-.33-6.27c-2.44-.05-5.21.38-5.21,2.76a2,2,0,0,0,2.11,2.14,3.06,3.06,0,0,0,3-2.06,2.22,2.22,0,0,0,.13-.71Z"/><path class="cls-5" d="M232.73,411.31H235v18h-2.23Z"/><path class="cls-5" d="M241.21,413.6a1.31,1.31,0,0,1-1.42,1.37,1.33,1.33,0,0,1-1.35-1.37,1.37,1.37,0,0,1,1.4-1.4A1.33,1.33,0,0,1,241.21,413.6Zm-2.49,15.74V417.05H241v12.29Z"/><path class="cls-5" d="M243.27,428l5.56-7.23c.53-.66,1-1.25,1.6-1.91v0h-6.66v-1.8h9.37l0,1.39-5.49,7.14c-.5.69-1,1.29-1.57,1.93v.05h7.19v1.78h-10Z"/><path class="cls-5" d="M262.34,429.34l-.18-1.55h-.08a4.58,4.58,0,0,1-3.76,1.83,3.5,3.5,0,0,1-3.75-3.53c0-3,2.64-4.6,7.38-4.57v-.26a2.53,2.53,0,0,0-2.79-2.84,6.23,6.23,0,0,0-3.2.91l-.51-1.47a7.65,7.65,0,0,1,4-1.09c3.76,0,4.67,2.56,4.67,5v4.59a16.55,16.55,0,0,0,.21,2.95Zm-.34-6.27c-2.43-.05-5.2.38-5.2,2.76a2,2,0,0,0,2.11,2.14,3.06,3.06,0,0,0,3-2.06,2.52,2.52,0,0,0,.12-.71Z"/><path class="cls-5" d="M270.36,413.52v3.53h3.2v1.7h-3.2v6.63c0,1.52.43,2.38,1.67,2.38a4.84,4.84,0,0,0,1.3-.15l.1,1.68a5.67,5.67,0,0,1-2,.3,3.09,3.09,0,0,1-2.41-.94,4.52,4.52,0,0,1-.87-3.2v-6.7h-1.9v-1.7h1.9V414.1Z"/><path class="cls-5" d="M278.56,413.6a1.31,1.31,0,0,1-1.42,1.37,1.33,1.33,0,0,1-1.35-1.37,1.37,1.37,0,0,1,1.4-1.4A1.33,1.33,0,0,1,278.56,413.6Zm-2.49,15.74V417.05h2.24v12.29Z"/><path class="cls-5" d="M293.13,423.09c0,4.55-3.14,6.53-6.12,6.53-3.32,0-5.89-2.44-5.89-6.33,0-4.11,2.7-6.52,6.1-6.52S293.13,419.33,293.13,423.09Zm-9.75.13c0,2.69,1.55,4.72,3.74,4.72s3.73-2,3.73-4.77c0-2.08-1-4.73-3.68-4.73S283.38,420.88,283.38,423.22Z"/><path class="cls-5" d="M296,420.37c0-1.26,0-2.31-.1-3.32h2l.13,2H298a4.51,4.51,0,0,1,4.06-2.31c1.7,0,4.34,1,4.34,5.23v7.34h-2.23v-7.09c0-2-.74-3.63-2.84-3.63a3.17,3.17,0,0,0-3,2.29,3.26,3.26,0,0,0-.15,1v7.39H296Z"/><path class="cls-5" d="M146.71,534a7.8,7.8,0,0,0,4,1.11c2.26,0,3.58-1.19,3.58-2.92s-.92-2.51-3.23-3.4c-2.79-1-4.52-2.44-4.52-4.85,0-2.66,2.21-4.64,5.54-4.64a7.79,7.79,0,0,1,3.78.83l-.61,1.81a6.74,6.74,0,0,0-3.25-.82c-2.33,0-3.22,1.4-3.22,2.57,0,1.6,1,2.38,3.4,3.3,2.89,1.12,4.37,2.51,4.37,5s-2,4.92-6,4.92a8.8,8.8,0,0,1-4.36-1.09Z"/><path class="cls-5" d="M170.73,530.48c0,4.55-3.15,6.53-6.12,6.53-3.33,0-5.89-2.44-5.89-6.32,0-4.12,2.69-6.53,6.09-6.53S170.73,526.72,170.73,530.48Zm-9.75.13c0,2.69,1.54,4.72,3.73,4.72s3.73-2,3.73-4.77c0-2.08-1-4.72-3.68-4.72S161,528.27,161,530.61Z"/><path class="cls-5" d="M182.3,536.27a8.14,8.14,0,0,1-3.53.71c-3.7,0-6.11-2.51-6.11-6.27a6.24,6.24,0,0,1,6.6-6.52,7.48,7.48,0,0,1,3.09.63l-.5,1.73a5.13,5.13,0,0,0-2.59-.59c-2.82,0-4.34,2.08-4.34,4.65,0,2.84,1.82,4.59,4.26,4.59a6.47,6.47,0,0,0,2.74-.6Z"/><path class="cls-5" d="M187.41,521a1.39,1.39,0,0,1-2.77,0,1.36,1.36,0,0,1,1.4-1.4A1.33,1.33,0,0,1,187.41,521Zm-2.49,15.74V524.44h2.23v12.29Z"/><path class="cls-5" d="M197.67,536.73l-.18-1.55h-.08a4.58,4.58,0,0,1-3.76,1.83,3.5,3.5,0,0,1-3.75-3.53c0-3,2.64-4.6,7.38-4.57v-.26a2.53,2.53,0,0,0-2.79-2.84,6.23,6.23,0,0,0-3.2.91l-.51-1.47a7.65,7.65,0,0,1,4-1.09c3.76,0,4.67,2.56,4.67,5v4.59a16.55,16.55,0,0,0,.21,3Zm-.33-6.27c-2.44-.05-5.21.38-5.21,2.76a2,2,0,0,0,2.11,2.14,3.06,3.06,0,0,0,3-2.06,2.53,2.53,0,0,0,.13-.71Z"/><path class="cls-5" d="M203.1,518.7h2.23v18H203.1Z"/><path class="cls-5" d="M155.69,561.66a8.09,8.09,0,0,1-3.52.71c-3.71,0-6.12-2.51-6.12-6.27a6.24,6.24,0,0,1,6.6-6.52,7.57,7.57,0,0,1,3.1.63l-.51,1.73a5.13,5.13,0,0,0-2.59-.59c-2.82,0-4.34,2.09-4.34,4.65,0,2.84,1.82,4.6,4.26,4.6a6.31,6.31,0,0,0,2.74-.61Z"/><path class="cls-5" d="M168.59,558.77c0,1.27,0,2.38.1,3.35h-2l-.12-2h-.05a4.64,4.64,0,0,1-4.07,2.29c-1.93,0-4.24-1.07-4.24-5.38v-7.19h2.24v6.8c0,2.34.71,3.91,2.74,3.91a3.24,3.24,0,0,0,2.95-2,3.4,3.4,0,0,0,.2-1.14v-7.54h2.23Z"/><path class="cls-5" d="M172.3,553.66c0-1.44,0-2.69-.1-3.83h2l.08,2.41h.1a3.69,3.69,0,0,1,3.4-2.69,2.43,2.43,0,0,1,.64.08v2.1a3.45,3.45,0,0,0-.76-.07,3.13,3.13,0,0,0-3,2.87,6.33,6.33,0,0,0-.1,1v6.55H172.3Z"/><path class="cls-5" d="M187.28,562.12l-.18-1.55H187a4.61,4.61,0,0,1-3.76,1.83,3.5,3.5,0,0,1-3.76-3.53c0-3,2.64-4.6,7.39-4.57V554a2.53,2.53,0,0,0-2.79-2.84,6.17,6.17,0,0,0-3.2.91l-.51-1.47a7.65,7.65,0,0,1,4-1.09c3.75,0,4.67,2.56,4.67,5v4.59a17.62,17.62,0,0,0,.2,3Zm-.33-6.27c-2.44-.05-5.2.38-5.2,2.76a2,2,0,0,0,2.1,2.14,3.05,3.05,0,0,0,3-2.06A2.22,2.22,0,0,0,187,558Z"/><path class="cls-5" d="M195.3,546.3v3.53h3.2v1.7h-3.2v6.63c0,1.52.44,2.38,1.68,2.38a4.76,4.76,0,0,0,1.29-.15l.11,1.68a5.48,5.48,0,0,1-2,.3,3.11,3.11,0,0,1-2.42-.94,4.57,4.57,0,0,1-.86-3.2v-6.7h-1.9v-1.7h1.9v-3Z"/><path class="cls-5" d="M203.5,546.38a1.31,1.31,0,0,1-1.42,1.37,1.33,1.33,0,0,1-1.34-1.37,1.36,1.36,0,0,1,1.39-1.4A1.33,1.33,0,0,1,203.5,546.38ZM201,562.12V549.83h2.23v12.29Z"/><path class="cls-5" d="M218.08,555.87c0,4.55-3.15,6.53-6.12,6.53-3.33,0-5.89-2.44-5.89-6.32,0-4.12,2.69-6.53,6.09-6.53S218.08,552.11,218.08,555.87Zm-9.75.13c0,2.69,1.55,4.72,3.73,4.72s3.73-2,3.73-4.77c0-2.08-1-4.72-3.68-4.72S208.33,553.66,208.33,556Z"/><path class="cls-5" d="M220.9,553.16c0-1.27,0-2.31-.1-3.33h2l.12,2h0a4.53,4.53,0,0,1,4.07-2.31c1.7,0,4.34,1,4.34,5.23v7.34h-2.24V555c0-2-.73-3.63-2.84-3.63a3.19,3.19,0,0,0-3,2.29,3.26,3.26,0,0,0-.15,1v7.39H220.9Z"/><path class="cls-5" d="M159,669a10.91,10.91,0,0,1-4.52.81c-4.82,0-8.45-3-8.45-8.65,0-5.36,3.63-9,8.93-9a9.14,9.14,0,0,1,4.07.76l-.54,1.8A8.14,8.14,0,0,0,155,654c-4,0-6.68,2.56-6.68,7.06,0,4.19,2.41,6.88,6.58,6.88a8.87,8.87,0,0,0,3.6-.71Z"/><path class="cls-5" d="M171.64,666.16c0,1.27,0,2.38.1,3.35h-2l-.13-2h0a4.62,4.62,0,0,1-4.06,2.29c-1.93,0-4.24-1.07-4.24-5.38v-7.19h2.23V664c0,2.33.72,3.91,2.75,3.91a3.23,3.23,0,0,0,2.94-2,3.17,3.17,0,0,0,.21-1.14v-7.54h2.23Z"/><path class="cls-5" d="M175,667.22a5.78,5.78,0,0,0,3,.89c1.62,0,2.38-.81,2.38-1.83s-.63-1.65-2.28-2.25c-2.21-.79-3.25-2-3.25-3.48,0-2,1.6-3.61,4.24-3.61a6.19,6.19,0,0,1,3,.76l-.56,1.63a4.72,4.72,0,0,0-2.51-.71c-1.32,0-2.06.76-2.06,1.67s.74,1.48,2.34,2.08c2.13.82,3.22,1.88,3.22,3.71,0,2.16-1.67,3.68-4.59,3.68a7.13,7.13,0,0,1-3.46-.83Z"/><path class="cls-5" d="M188.09,653.69v3.53h3.2v1.7h-3.2v6.63c0,1.52.43,2.39,1.68,2.39a4.73,4.73,0,0,0,1.29-.16l.11,1.68a5.5,5.5,0,0,1-2,.3,3.1,3.1,0,0,1-2.41-.94,4.57,4.57,0,0,1-.86-3.2v-6.7H184v-1.7h1.91v-2.94Z"/><path class="cls-5" d="M204.77,663.26c0,4.55-3.14,6.53-6.11,6.53-3.33,0-5.9-2.44-5.9-6.32,0-4.12,2.7-6.53,6.1-6.53S204.77,659.51,204.77,663.26Zm-9.75.13c0,2.69,1.55,4.72,3.74,4.72s3.73-2,3.73-4.77c0-2.08-1-4.72-3.68-4.72S195,661.05,195,663.39Z"/><path class="cls-5" d="M207.59,660.55c0-1.27,0-2.31-.1-3.33h2l.1,2h.07a4.24,4.24,0,0,1,3.86-2.26A3.63,3.63,0,0,1,217,659.4h0a5.33,5.33,0,0,1,1.37-1.6,4.25,4.25,0,0,1,2.72-.86c1.63,0,4,1.07,4,5.33v7.24H223v-7c0-2.36-.86-3.78-2.66-3.78a2.89,2.89,0,0,0-2.64,2,3.75,3.75,0,0,0-.18,1.12v7.59h-2.18v-7.36c0-2-.87-3.38-2.57-3.38A3.07,3.07,0,0,0,210,661a3.25,3.25,0,0,0-.17,1.1v7.41h-2.19Z"/><path class="cls-5" d="M230,663.77c.05,3,2,4.27,4.22,4.27a8,8,0,0,0,3.4-.64L238,669a9.89,9.89,0,0,1-4.09.76c-3.78,0-6-2.48-6-6.19s2.18-6.63,5.76-6.63c4,0,5.08,3.53,5.08,5.79a10,10,0,0,1-.07,1Zm6.55-1.6c0-1.42-.58-3.63-3.09-3.63-2.26,0-3.25,2.08-3.43,3.63Z"/><path class="cls-5" d="M241.49,661.05c0-1.44,0-2.69-.1-3.83h2l.08,2.41h.1a3.68,3.68,0,0,1,3.4-2.69,2.49,2.49,0,0,1,.64.08v2.1a3.45,3.45,0,0,0-.76-.07,3.13,3.13,0,0,0-3,2.87,6.33,6.33,0,0,0-.1,1v6.55h-2.21Z"/><path class="cls-5" d="M153.74,694.9l-.18-1.55h-.07a4.58,4.58,0,0,1-3.76,1.83,3.5,3.5,0,0,1-3.76-3.53c0-3,2.64-4.6,7.39-4.57v-.25a2.54,2.54,0,0,0-2.79-2.85,6.09,6.09,0,0,0-3.2.92l-.51-1.48a7.62,7.62,0,0,1,4-1.09c3.75,0,4.67,2.57,4.67,5V692a17.62,17.62,0,0,0,.2,2.95Zm-.33-6.27c-2.44,0-5.21.38-5.21,2.77a2,2,0,0,0,2.11,2.13,3.05,3.05,0,0,0,3-2.06,2.22,2.22,0,0,0,.13-.71Z"/><path class="cls-5" d="M159.17,685.94c0-1.27,0-2.31-.1-3.33h2l.13,2h0a4.51,4.51,0,0,1,4.06-2.31c1.7,0,4.34,1,4.34,5.23v7.34H167.4v-7.08c0-2-.74-3.63-2.84-3.63a3.17,3.17,0,0,0-3,2.28,3.26,3.26,0,0,0-.15,1v7.39h-2.24Z"/><path class="cls-5" d="M180.07,694.9l-.18-1.55h-.07a4.58,4.58,0,0,1-3.76,1.83,3.5,3.5,0,0,1-3.76-3.53c0-3,2.64-4.6,7.39-4.57v-.25A2.54,2.54,0,0,0,176.9,684a6.09,6.09,0,0,0-3.2.92l-.51-1.48a7.62,7.62,0,0,1,4-1.09c3.75,0,4.67,2.57,4.67,5V692a17.62,17.62,0,0,0,.2,2.95Zm-.33-6.27c-2.44,0-5.21.38-5.21,2.77a2,2,0,0,0,2.11,2.13,3.05,3.05,0,0,0,3-2.06,2.22,2.22,0,0,0,.13-.71Z"/><path class="cls-5" d="M185.5,676.87h2.24v18H185.5Z"/><path class="cls-5" d="M192.31,682.61l2.69,7.26c.28.82.58,1.78.79,2.52h.05c.23-.74.48-1.68.78-2.57l2.44-7.21h2.36l-3.35,8.76c-1.6,4.22-2.69,6.37-4.21,7.69a6,6,0,0,1-2.75,1.45l-.55-1.88a6,6,0,0,0,1.95-1.09,6.8,6.8,0,0,0,1.88-2.49,1.63,1.63,0,0,0,.18-.53,1.87,1.87,0,0,0-.15-.58l-4.55-11.33Z"/><path class="cls-5" d="M206.15,679.08v3.53h3.19v1.7h-3.19v6.63c0,1.52.43,2.39,1.67,2.39a4.76,4.76,0,0,0,1.3-.16l.1,1.68a5.44,5.44,0,0,1-2,.3,3.09,3.09,0,0,1-2.41-.94A4.51,4.51,0,0,1,204,691v-6.71h-1.9v-1.7H204v-2.94Z"/><path class="cls-5" d="M214.35,679.16a1.39,1.39,0,0,1-2.77,0,1.36,1.36,0,0,1,1.4-1.4A1.33,1.33,0,0,1,214.35,679.16Zm-2.49,15.74V682.61h2.23V694.9Z"/><path class="cls-5" d="M226.56,694.44a8.14,8.14,0,0,1-3.53.71c-3.71,0-6.12-2.51-6.12-6.27a6.24,6.24,0,0,1,6.6-6.52,7.57,7.57,0,0,1,3.1.63l-.51,1.73a5.1,5.1,0,0,0-2.59-.59c-2.82,0-4.34,2.09-4.34,4.65,0,2.84,1.83,4.6,4.27,4.6a6.34,6.34,0,0,0,2.74-.61Z"/><path class="cls-5" d="M228.87,692.61a5.78,5.78,0,0,0,2.95.89c1.62,0,2.38-.81,2.38-1.82s-.63-1.65-2.28-2.26c-2.21-.79-3.25-2-3.25-3.48,0-2,1.6-3.61,4.24-3.61a6.22,6.22,0,0,1,3,.76l-.56,1.63a4.72,4.72,0,0,0-2.51-.71c-1.32,0-2.06.76-2.06,1.67s.74,1.48,2.34,2.09c2.13.81,3.22,1.87,3.22,3.7,0,2.16-1.68,3.68-4.6,3.68a7.09,7.09,0,0,1-3.45-.83Z"/><path class="cls-5" d="M605.52,251a25.46,25.46,0,0,1,4.24-.33,7,7,0,0,1,4.8,1.42,4.6,4.6,0,0,1,1.5,3.58,5,5,0,0,1-1.32,3.65,7.07,7.07,0,0,1-5.23,1.88,7.48,7.48,0,0,1-1.78-.15v6.86h-2.21Zm2.21,8.25a7.24,7.24,0,0,0,1.83.18c2.67,0,4.29-1.3,4.29-3.66s-1.6-3.35-4-3.35a8.76,8.76,0,0,0-2.08.18Z"/><path class="cls-5" d="M619.56,262.13c.06,3,2,4.26,4.22,4.26a8.17,8.17,0,0,0,3.4-.63l.38,1.6a10,10,0,0,1-4.09.76c-3.78,0-6-2.49-6-6.19s2.19-6.63,5.77-6.63c4,0,5.07,3.53,5.07,5.79a10.18,10.18,0,0,1-.07,1Zm6.56-1.6c0-1.42-.59-3.63-3.1-3.63-2.26,0-3.25,2.08-3.43,3.63Z"/><path class="cls-5" d="M631,259.41c0-1.45,0-2.69-.1-3.83h1.95L633,258h.1a3.69,3.69,0,0,1,3.4-2.69,2.46,2.46,0,0,1,.64.07v2.11a3.45,3.45,0,0,0-.76-.07,3.13,3.13,0,0,0-3,2.87,6.33,6.33,0,0,0-.1,1v6.55H631Z"/><path class="cls-5" d="M639,265.58a5.87,5.87,0,0,0,2.94.89c1.63,0,2.39-.81,2.39-1.83s-.63-1.65-2.28-2.26c-2.21-.78-3.25-2-3.25-3.48,0-2,1.6-3.6,4.24-3.6a6.11,6.11,0,0,1,3,.76l-.56,1.63A4.71,4.71,0,0,0,643,257c-1.32,0-2.06.77-2.06,1.68s.74,1.47,2.33,2.08c2.14.81,3.23,1.88,3.23,3.71,0,2.16-1.68,3.68-4.6,3.68a7,7,0,0,1-3.45-.84Z"/><path class="cls-5" d="M660.52,261.62c0,4.55-3.15,6.53-6.12,6.53-3.33,0-5.89-2.44-5.89-6.33,0-4.11,2.69-6.52,6.09-6.52S660.52,257.86,660.52,261.62Zm-9.75.13c0,2.69,1.55,4.72,3.73,4.72s3.73-2,3.73-4.77c0-2.09-1-4.73-3.68-4.73S650.77,259.41,650.77,261.75Z"/><path class="cls-5" d="M663.34,258.9c0-1.27,0-2.31-.1-3.32h2l.12,2h0a4.53,4.53,0,0,1,4.07-2.31c1.7,0,4.34,1,4.34,5.23v7.34h-2.24v-7.09c0-2-.73-3.63-2.84-3.63a3.19,3.19,0,0,0-3,2.29,3.26,3.26,0,0,0-.15,1v7.39h-2.23Z"/><path class="cls-5" d="M684.23,267.87l-.17-1.55H684a4.61,4.61,0,0,1-3.76,1.83,3.51,3.51,0,0,1-3.76-3.53c0-3,2.64-4.6,7.39-4.57v-.26a2.53,2.53,0,0,0-2.79-2.84,6.11,6.11,0,0,0-3.2.91l-.51-1.47a7.65,7.65,0,0,1,4-1.09c3.76,0,4.67,2.56,4.67,5v4.59a17.62,17.62,0,0,0,.2,2.95Zm-.33-6.27c-2.43-.06-5.2.38-5.2,2.76a2,2,0,0,0,2.11,2.14,3.06,3.06,0,0,0,3-2.06,2.52,2.52,0,0,0,.12-.71Z"/><path class="cls-5" d="M689.67,249.84h2.23v18h-2.23Z"/><path class="cls-5" d="M698.15,252.12a1.39,1.39,0,0,1-2.77,0,1.36,1.36,0,0,1,1.4-1.39A1.33,1.33,0,0,1,698.15,252.12Zm-2.49,15.75V255.58h2.23v12.29Z"/><path class="cls-5" d="M700.2,266.57l5.56-7.23c.54-.66,1-1.25,1.6-1.91v-.05h-6.65v-1.8h9.37l0,1.39-5.49,7.14c-.51.68-1,1.29-1.57,1.93v0h7.18v1.78h-10Z"/><path class="cls-5" d="M713.53,262.13c.06,3,2,4.26,4.22,4.26a8.17,8.17,0,0,0,3.4-.63l.38,1.6a10,10,0,0,1-4.09.76c-3.78,0-6-2.49-6-6.19s2.19-6.63,5.77-6.63c4,0,5.07,3.53,5.07,5.79a10.18,10.18,0,0,1-.07,1Zm6.56-1.6c0-1.42-.59-3.63-3.1-3.63-2.26,0-3.25,2.08-3.43,3.63Z"/><path class="cls-5" d="M735.62,249.84v14.85c0,1.09,0,2.34.11,3.18h-2l-.1-2.14h0a4.55,4.55,0,0,1-4.19,2.42c-3,0-5.26-2.52-5.26-6.25,0-4.09,2.52-6.6,5.51-6.6a4.12,4.12,0,0,1,3.71,1.88h0v-7.34Zm-2.23,10.74a4.29,4.29,0,0,0-.1-.94,3.29,3.29,0,0,0-3.23-2.59c-2.31,0-3.68,2-3.68,4.75,0,2.49,1.22,4.54,3.63,4.54a3.37,3.37,0,0,0,3.28-2.66,4.25,4.25,0,0,0,.1-1Z"/><path class="cls-5" d="M607.94,277.52a1.39,1.39,0,0,1-2.77,0,1.36,1.36,0,0,1,1.39-1.4A1.33,1.33,0,0,1,607.94,277.52Zm-2.49,15.74V281h2.23v12.29Z"/><path class="cls-5" d="M611.39,284.29c0-1.26,0-2.31-.1-3.32h2l.12,2h.06a4.5,4.5,0,0,1,4.06-2.31c1.7,0,4.34,1,4.34,5.23v7.34h-2.23v-7.09c0-2-.74-3.63-2.85-3.63a3.17,3.17,0,0,0-3,2.29,3,3,0,0,0-.16,1v7.39h-2.23Z"/><path class="cls-5" d="M630.66,285.56v1.65h-6.27v-1.65Z"/><path class="cls-5" d="M633,291a5.88,5.88,0,0,0,2.95.89c1.62,0,2.38-.81,2.38-1.83s-.63-1.65-2.28-2.26c-2.21-.78-3.25-2-3.25-3.48,0-2,1.6-3.6,4.24-3.6a6.11,6.11,0,0,1,3,.76l-.56,1.63a4.71,4.71,0,0,0-2.51-.72c-1.32,0-2.06.77-2.06,1.68s.74,1.47,2.34,2.08c2.13.82,3.22,1.88,3.22,3.71,0,2.16-1.68,3.68-4.6,3.68a7,7,0,0,1-3.45-.84Z"/><path class="cls-5" d="M646,277.44V281h3.2v1.7H646v6.63c0,1.52.43,2.38,1.68,2.38a4.81,4.81,0,0,0,1.29-.15l.1,1.68a5.62,5.62,0,0,1-2,.3,3.09,3.09,0,0,1-2.41-.94,4.57,4.57,0,0,1-.86-3.2v-6.7h-1.91V281h1.91v-3Z"/><path class="cls-5" d="M662.7,287c0,4.55-3.15,6.53-6.12,6.53-3.32,0-5.89-2.44-5.89-6.33,0-4.11,2.69-6.52,6.1-6.52S662.7,283.25,662.7,287Zm-9.75.13c0,2.69,1.55,4.72,3.73,4.72s3.74-2,3.74-4.77c0-2.08-1-4.73-3.68-4.73S653,284.8,653,287.14Z"/><path class="cls-5" d="M665.52,284.8c0-1.44,0-2.69-.1-3.83h2l.08,2.41h.1a3.69,3.69,0,0,1,3.4-2.69,2.08,2.08,0,0,1,.64.08v2.1a3.45,3.45,0,0,0-.76-.07,3.13,3.13,0,0,0-3,2.87,6.33,6.33,0,0,0-.1,1v6.55h-2.21Z"/><path class="cls-5" d="M674.81,287.52a3.93,3.93,0,0,0,4.22,4.26,8,8,0,0,0,3.4-.63l.38,1.6a9.89,9.89,0,0,1-4.09.76c-3.78,0-6-2.49-6-6.19s2.18-6.63,5.76-6.63c4,0,5.08,3.53,5.08,5.79a10,10,0,0,1-.07,1Zm6.55-1.6c0-1.42-.58-3.63-3.09-3.63-2.26,0-3.25,2.08-3.43,3.63Z"/><path class="cls-5" d="M702.79,287c0,4.55-3.14,6.53-6.12,6.53-3.32,0-5.89-2.44-5.89-6.33,0-4.11,2.7-6.52,6.1-6.52S702.79,283.25,702.79,287Zm-9.75.13c0,2.69,1.55,4.72,3.74,4.72s3.73-2,3.73-4.77c0-2.08-1-4.73-3.68-4.73S693,284.8,693,287.14Z"/><path class="cls-5" d="M713.2,293.26V282.67h-5.15v10.59h-2.21V282.67h-1.73V281h1.73v-.41a5.84,5.84,0,0,1,1.37-4.19,4.21,4.21,0,0,1,3.1-1.14,4,4,0,0,1,1.75.43l-.46,1.65a3.3,3.3,0,0,0-1.32-.3c-1.75,0-2.23,1.5-2.23,3.43V281h5.15v-.59a5.82,5.82,0,0,1,1.45-4.29,4.28,4.28,0,0,1,3-1.14,5.1,5.1,0,0,1,1.91.36l-.28,1.72a3.54,3.54,0,0,0-1.45-.28c-1.88,0-2.39,1.68-2.39,3.56V281h3v1.7h-2.94v10.59Z"/><path class="cls-5" d="M721.33,287.52c0,3,2,4.26,4.21,4.26a8.06,8.06,0,0,0,3.41-.63l.38,1.6a9.93,9.93,0,0,1-4.09.76c-3.78,0-6-2.49-6-6.19s2.18-6.63,5.76-6.63c4,0,5.08,3.53,5.08,5.79a7.43,7.43,0,0,1-.08,1Zm6.55-1.6c0-1.42-.58-3.63-3.1-3.63-2.26,0-3.25,2.08-3.43,3.63Z"/><path class="cls-5" d="M732.81,284.8c0-1.44,0-2.69-.11-3.83h2l.08,2.41h.1a3.68,3.68,0,0,1,3.4-2.69,2,2,0,0,1,.63.08v2.1a3.33,3.33,0,0,0-.76-.07,3.13,3.13,0,0,0-3,2.87,6.26,6.26,0,0,0-.11,1v6.55h-2.2Z"/><path class="cls-5" d="M740.8,291a5.88,5.88,0,0,0,3,.89c1.62,0,2.38-.81,2.38-1.83s-.63-1.65-2.28-2.26c-2.21-.78-3.25-2-3.25-3.48,0-2,1.6-3.6,4.24-3.6a6.08,6.08,0,0,1,3,.76l-.56,1.63a4.71,4.71,0,0,0-2.51-.72c-1.32,0-2.06.77-2.06,1.68s.74,1.47,2.34,2.08c2.13.82,3.22,1.88,3.22,3.71,0,2.16-1.67,3.68-4.59,3.68a7,7,0,0,1-3.46-.84Z"/><path class="cls-5" d="M605.52,383.76a23,23,0,0,1,4.24-.35c2.37,0,3.89.43,5,1.39a4.25,4.25,0,0,1,1.35,3.25,4.5,4.5,0,0,1-3.22,4.37v.08c1.32.45,2.1,1.67,2.51,3.45a26.91,26.91,0,0,0,1.32,4.7h-2.29a22.91,22.91,0,0,1-1.14-4.09c-.51-2.36-1.42-3.25-3.43-3.33h-2.08v7.42h-2.21Zm2.21,7.8H610c2.36,0,3.86-1.3,3.86-3.25,0-2.21-1.6-3.18-3.93-3.2a9.3,9.3,0,0,0-2.19.2Z"/><path class="cls-5" d="M620.45,394.91c0,3,2,4.27,4.22,4.27a8,8,0,0,0,3.4-.64l.38,1.6a9.89,9.89,0,0,1-4.09.76c-3.78,0-6-2.49-6-6.19s2.18-6.63,5.76-6.63c4,0,5.08,3.53,5.08,5.79a10,10,0,0,1-.07,1Zm6.55-1.6c0-1.42-.58-3.63-3.09-3.63-2.26,0-3.25,2.08-3.43,3.63Z"/><path class="cls-5" d="M638.73,400.65l-.17-1.55h-.08a4.61,4.61,0,0,1-3.76,1.83A3.5,3.5,0,0,1,631,397.4c0-3,2.65-4.6,7.39-4.57v-.26a2.53,2.53,0,0,0-2.79-2.84,6.2,6.2,0,0,0-3.2.91l-.51-1.47a7.65,7.65,0,0,1,4-1.09c3.76,0,4.67,2.56,4.67,5v4.59a16.55,16.55,0,0,0,.21,2.95Zm-.33-6.27c-2.43-.05-5.2.38-5.2,2.76a2,2,0,0,0,2.11,2.14,3.06,3.06,0,0,0,3-2.06,2.52,2.52,0,0,0,.12-.71Z"/><path class="cls-5" d="M644.17,382.62h2.23v18h-2.23Z"/><path class="cls-5" d="M655.34,393v1.66h-6.27V393Z"/><path class="cls-5" d="M660.65,384.83v3.53h3.19v1.7h-3.19v6.63c0,1.52.43,2.38,1.67,2.38a4.84,4.84,0,0,0,1.3-.15l.1,1.68a5.44,5.44,0,0,1-2,.3,3.09,3.09,0,0,1-2.41-.94,4.52,4.52,0,0,1-.87-3.2v-6.7h-1.9v-1.7h1.9v-2.95Z"/><path class="cls-5" d="M668.85,384.91a1.39,1.39,0,0,1-2.77,0,1.36,1.36,0,0,1,1.4-1.4A1.33,1.33,0,0,1,668.85,384.91Zm-2.49,15.74V388.36h2.23v12.29Z"/><path class="cls-5" d="M672.3,391.69c0-1.27,0-2.32-.1-3.33h1.95l.1,2h.08a4.24,4.24,0,0,1,3.86-2.26,3.63,3.63,0,0,1,3.48,2.46h.05a5.08,5.08,0,0,1,1.37-1.6,4.2,4.2,0,0,1,2.72-.86c1.62,0,4,1.07,4,5.33v7.24h-2.18v-7c0-2.36-.86-3.78-2.66-3.78a2.91,2.91,0,0,0-2.65,2,3.72,3.72,0,0,0-.17,1.12v7.59H680v-7.37c0-1.95-.86-3.37-2.56-3.37a3.06,3.06,0,0,0-2.77,2.23,3,3,0,0,0-.18,1.09v7.42H672.3Z"/><path class="cls-5" d="M694.72,394.91c0,3,2,4.27,4.21,4.27a8,8,0,0,0,3.41-.64l.38,1.6a9.89,9.89,0,0,1-4.09.76c-3.78,0-6-2.49-6-6.19s2.18-6.63,5.76-6.63c4,0,5.08,3.53,5.08,5.79a7.43,7.43,0,0,1-.08,1Zm6.55-1.6c0-1.42-.58-3.63-3.1-3.63-2.26,0-3.25,2.08-3.42,3.63Z"/><path class="cls-5" d="M616.06,408v14.85c0,1.1,0,2.34.1,3.18h-2l-.11-2.13h0a4.54,4.54,0,0,1-4.19,2.41c-3,0-5.25-2.52-5.25-6.25,0-4.09,2.51-6.6,5.51-6.6a4.12,4.12,0,0,1,3.71,1.88h.05V408Zm-2.23,10.74a3.77,3.77,0,0,0-.11-.94,3.28,3.28,0,0,0-3.22-2.59c-2.31,0-3.68,2-3.68,4.75,0,2.49,1.22,4.55,3.63,4.55a3.35,3.35,0,0,0,3.27-2.67,3.74,3.74,0,0,0,.11-1Z"/><path class="cls-5" d="M622.26,410.3a1.39,1.39,0,0,1-2.77,0,1.36,1.36,0,0,1,1.39-1.4A1.33,1.33,0,0,1,622.26,410.3ZM619.77,426V413.75H622V426Z"/><path class="cls-5" d="M636.3,413.75c0,.89-.1,1.88-.1,3.38v7.13c0,2.82-.56,4.55-1.76,5.61a6.5,6.5,0,0,1-4.47,1.48,7.91,7.91,0,0,1-4.08-1l.56-1.7a6.89,6.89,0,0,0,3.6,1c2.29,0,4-1.19,4-4.29v-1.37h0a4.38,4.38,0,0,1-3.91,2.06c-3,0-5.23-2.59-5.23-6,0-4.17,2.72-6.53,5.54-6.53a4.09,4.09,0,0,1,3.83,2.13h0l.1-1.85ZM634,418.6a3.28,3.28,0,0,0-.13-1,3.23,3.23,0,0,0-3.12-2.36c-2.14,0-3.66,1.81-3.66,4.65,0,2.41,1.22,4.42,3.63,4.42a3.27,3.27,0,0,0,3.1-2.29,3.78,3.78,0,0,0,.18-1.19Z"/><path class="cls-5" d="M642.24,410.3a1.39,1.39,0,0,1-2.77,0,1.36,1.36,0,0,1,1.4-1.4A1.33,1.33,0,0,1,642.24,410.3ZM639.75,426V413.75H642V426Z"/><path class="cls-5" d="M648.38,410.22v3.53h3.2v1.7h-3.2v6.63c0,1.52.43,2.38,1.68,2.38a4.81,4.81,0,0,0,1.29-.15l.1,1.68a5.4,5.4,0,0,1-2,.3,3.09,3.09,0,0,1-2.41-.94,4.57,4.57,0,0,1-.86-3.2v-6.7h-1.91v-1.7h1.91V410.8Z"/><path class="cls-5" d="M660.9,426l-.18-1.55h-.07a4.61,4.61,0,0,1-3.76,1.83,3.5,3.5,0,0,1-3.76-3.53c0-3,2.64-4.6,7.39-4.57V418a2.53,2.53,0,0,0-2.79-2.84,6.17,6.17,0,0,0-3.2.91l-.51-1.47a7.62,7.62,0,0,1,4-1.09c3.75,0,4.67,2.56,4.67,5v4.59a17.62,17.62,0,0,0,.2,3Zm-.33-6.27c-2.44,0-5.21.38-5.21,2.76a2,2,0,0,0,2.11,2.14,3.05,3.05,0,0,0,3-2.06,2.22,2.22,0,0,0,.13-.71Z"/><path class="cls-5" d="M666.33,408h2.24v18h-2.24Z"/><path class="cls-5" d="M686.47,425.58a8.18,8.18,0,0,1-3.53.71c-3.71,0-6.12-2.51-6.12-6.27a6.24,6.24,0,0,1,6.6-6.52,7.57,7.57,0,0,1,3.1.63l-.51,1.73a5.1,5.1,0,0,0-2.59-.59c-2.82,0-4.34,2.09-4.34,4.65,0,2.84,1.83,4.6,4.26,4.6a6.39,6.39,0,0,0,2.75-.61Z"/><path class="cls-5" d="M700.05,419.79c0,4.55-3.15,6.53-6.12,6.53-3.32,0-5.89-2.44-5.89-6.32,0-4.12,2.69-6.53,6.1-6.53S700.05,416,700.05,419.79Zm-9.75.13c0,2.69,1.55,4.72,3.73,4.72s3.74-2,3.74-4.77c0-2.08-1-4.72-3.68-4.72S690.3,417.58,690.3,419.92Z"/><path class="cls-5" d="M713.15,422.69c0,1.27,0,2.38.1,3.35h-2l-.12-2h0a4.64,4.64,0,0,1-4.07,2.29c-1.93,0-4.24-1.07-4.24-5.38v-7.19H705v6.8c0,2.34.71,3.91,2.74,3.91a3.24,3.24,0,0,0,3-2,3.4,3.4,0,0,0,.2-1.14v-7.54h2.23Z"/><path class="cls-5" d="M716.86,417.76c0-1.57-.05-2.84-.1-4h2l.11,2.11h0a4.82,4.82,0,0,1,4.36-2.39c3,0,5.21,2.51,5.21,6.25,0,4.41-2.69,6.6-5.59,6.6a4.31,4.31,0,0,1-3.78-1.93h0v6.68h-2.21Zm2.21,3.28a5.07,5.07,0,0,0,.1.91,3.45,3.45,0,0,0,3.35,2.62c2.36,0,3.73-1.93,3.73-4.75,0-2.46-1.29-4.57-3.65-4.57a3.56,3.56,0,0,0-3.38,2.77,3.33,3.33,0,0,0-.15.91Z"/><path class="cls-5" d="M742.43,419.79c0,4.55-3.15,6.53-6.12,6.53-3.33,0-5.89-2.44-5.89-6.32,0-4.12,2.69-6.53,6.09-6.53S742.43,416,742.43,419.79Zm-9.75.13c0,2.69,1.55,4.72,3.73,4.72s3.73-2,3.73-4.77c0-2.08-1-4.72-3.68-4.72S732.68,417.58,732.68,419.92Z"/><path class="cls-5" d="M745.25,417.08c0-1.27,0-2.31-.11-3.33h2l.12,2h0a4.52,4.52,0,0,1,4.07-2.31c1.7,0,4.34,1,4.34,5.23V426h-2.24V419c0-2-.73-3.63-2.84-3.63a3.18,3.18,0,0,0-3,2.29,3.26,3.26,0,0,0-.15,1V426h-2.23Z"/><path class="cls-5" d="M759,423.75a5.78,5.78,0,0,0,3,.89c1.62,0,2.39-.81,2.39-1.83s-.64-1.65-2.29-2.26c-2.21-.78-3.25-2-3.25-3.47,0-2,1.6-3.61,4.24-3.61a6.19,6.19,0,0,1,3,.76l-.56,1.63a4.72,4.72,0,0,0-2.51-.71c-1.32,0-2.06.76-2.06,1.67s.74,1.47,2.34,2.08c2.13.82,3.22,1.88,3.22,3.71,0,2.16-1.67,3.68-4.59,3.68a7,7,0,0,1-3.46-.84Z"/><path class="cls-5" d="M605.52,516.32h9.22v1.85h-7v5.69h6.48v1.83h-6.48v7.74h-2.21Z"/><path class="cls-5" d="M617.38,515.4h2.24v18h-2.24Z"/><path class="cls-5" d="M630.18,533.43l-.18-1.55h-.08a4.54,4.54,0,0,1-3.75,1.83,3.5,3.5,0,0,1-3.76-3.53c0-3,2.64-4.6,7.39-4.57v-.25a2.54,2.54,0,0,0-2.8-2.85,6.14,6.14,0,0,0-3.2.92l-.5-1.48a7.61,7.61,0,0,1,4-1.09c3.76,0,4.68,2.57,4.68,5v4.59a17.62,17.62,0,0,0,.2,2.95Zm-.33-6.27c-2.44,0-5.21.38-5.21,2.77a2,2,0,0,0,2.11,2.13,3.05,3.05,0,0,0,3-2.06,2.22,2.22,0,0,0,.13-.71Z"/><path class="cls-5" d="M635.31,531.14a5.75,5.75,0,0,0,2.94.89c1.63,0,2.39-.81,2.39-1.83s-.64-1.65-2.29-2.26c-2.21-.78-3.25-2-3.25-3.47,0-2,1.6-3.61,4.24-3.61a6.23,6.23,0,0,1,3,.76l-.56,1.63a4.76,4.76,0,0,0-2.52-.71c-1.32,0-2,.76-2,1.67s.73,1.48,2.33,2.08c2.14.82,3.23,1.88,3.23,3.71,0,2.16-1.68,3.68-4.6,3.68a7.09,7.09,0,0,1-3.45-.83Z"/><path class="cls-5" d="M645.67,515.4h2.23v7.67H648a4.23,4.23,0,0,1,1.6-1.57,4.52,4.52,0,0,1,2.29-.64c1.65,0,4.29,1,4.29,5.26v7.31h-2.24v-7.06c0-2-.73-3.66-2.84-3.66a3.22,3.22,0,0,0-3,2.24,2.82,2.82,0,0,0-.15,1.07v7.41h-2.23Z"/><path class="cls-5" d="M664.84,531.14a5.75,5.75,0,0,0,2.94.89c1.63,0,2.39-.81,2.39-1.83s-.64-1.65-2.29-2.26c-2.21-.78-3.25-2-3.25-3.47,0-2,1.6-3.61,4.24-3.61a6.16,6.16,0,0,1,3,.76l-.55,1.63a4.79,4.79,0,0,0-2.52-.71c-1.32,0-2.06.76-2.06,1.67s.74,1.48,2.34,2.08c2.13.82,3.23,1.88,3.23,3.71,0,2.16-1.68,3.68-4.6,3.68a7.06,7.06,0,0,1-3.45-.83Z"/><path class="cls-5" d="M682,533.43l-.18-1.55h-.07a4.58,4.58,0,0,1-3.76,1.83,3.5,3.5,0,0,1-3.76-3.53c0-3,2.64-4.6,7.39-4.57v-.25a2.54,2.54,0,0,0-2.79-2.85,6.09,6.09,0,0,0-3.2.92l-.51-1.48a7.62,7.62,0,0,1,4-1.09c3.75,0,4.67,2.57,4.67,5v4.59a17.62,17.62,0,0,0,.2,2.95Zm-.33-6.27c-2.44,0-5.21.38-5.21,2.77a2,2,0,0,0,2.11,2.13,3.05,3.05,0,0,0,3-2.06,2.22,2.22,0,0,0,.13-.71Z"/><path class="cls-5" d="M687.43,515.4h2.24v18h-2.24Z"/><path class="cls-5" d="M694.67,527.69c.05,3,2,4.27,4.21,4.27a8,8,0,0,0,3.41-.64l.38,1.6a9.93,9.93,0,0,1-4.09.76c-3.78,0-6-2.49-6-6.19s2.18-6.63,5.76-6.63c4,0,5.08,3.53,5.08,5.79a7.43,7.43,0,0,1-.08,1Zm6.55-1.6c0-1.42-.58-3.63-3.1-3.63-2.26,0-3.25,2.08-3.43,3.63Z"/><path class="cls-5" d="M705.84,531.14a5.78,5.78,0,0,0,2.95.89c1.62,0,2.38-.81,2.38-1.83s-.63-1.65-2.28-2.26c-2.21-.78-3.25-2-3.25-3.47,0-2,1.6-3.61,4.24-3.61a6.22,6.22,0,0,1,3,.76l-.56,1.63a4.72,4.72,0,0,0-2.51-.71c-1.32,0-2.06.76-2.06,1.67s.74,1.48,2.34,2.08c2.13.82,3.22,1.88,3.22,3.71,0,2.16-1.68,3.68-4.6,3.68a7.09,7.09,0,0,1-3.45-.83Z"/><path class="cls-5" d="M714.32,534.44,721.4,516h1.73L716,534.44Z"/><path class="cls-5" d="M724.91,524.47c0-1.27,0-2.31-.1-3.33h2l.1,2h.08a4.24,4.24,0,0,1,3.86-2.26,3.65,3.65,0,0,1,3.48,2.46h.05a5.19,5.19,0,0,1,1.37-1.6,4.25,4.25,0,0,1,2.72-.86c1.62,0,4,1.07,4,5.33v7.24h-2.18v-7c0-2.36-.86-3.78-2.67-3.78a2.89,2.89,0,0,0-2.64,2,3.77,3.77,0,0,0-.17,1.12v7.59H732.6v-7.36c0-2-.86-3.38-2.56-3.38a3.06,3.06,0,0,0-2.77,2.23,3,3,0,0,0-.18,1.1v7.41h-2.18Z"/><path class="cls-5" d="M752.89,533.43l-.18-1.55h-.08a4.54,4.54,0,0,1-3.75,1.83,3.5,3.5,0,0,1-3.76-3.53c0-3,2.64-4.6,7.39-4.57v-.25a2.54,2.54,0,0,0-2.8-2.85,6.08,6.08,0,0,0-3.19.92L746,522a7.61,7.61,0,0,1,4-1.09c3.76,0,4.68,2.57,4.68,5v4.59a17.62,17.62,0,0,0,.2,2.95Zm-.33-6.27c-2.44,0-5.21.38-5.21,2.77a2,2,0,0,0,2.11,2.13,3.05,3.05,0,0,0,3-2.06,2.22,2.22,0,0,0,.13-.71Z"/><path class="cls-5" d="M758.32,525c0-1.44,0-2.69-.1-3.83h2l.07,2.41h.1a3.69,3.69,0,0,1,3.41-2.69,2.41,2.41,0,0,1,.63.08V523a3.45,3.45,0,0,0-.76-.07,3.13,3.13,0,0,0-3,2.87,6.33,6.33,0,0,0-.1,1v6.55h-2.21Z"/><path class="cls-5" d="M768.94,526.78h0c.3-.43.73-1,1.09-1.4l3.6-4.24h2.7l-4.75,5.05,5.41,7.24h-2.72l-4.24-5.89-1.14,1.27v4.62h-2.21v-18h2.21Z"/><path class="cls-5" d="M789.25,515.4v14.86c0,1.09,0,2.33.1,3.17h-2l-.1-2.13h0a4.55,4.55,0,0,1-4.19,2.41c-3,0-5.25-2.52-5.25-6.25,0-4.09,2.51-6.6,5.5-6.6a4.12,4.12,0,0,1,3.71,1.88h0V515.4ZM787,526.14a3.76,3.76,0,0,0-.1-.94,3.29,3.29,0,0,0-3.22-2.59c-2.31,0-3.69,2-3.69,4.75,0,2.49,1.22,4.55,3.64,4.55a3.36,3.36,0,0,0,3.27-2.67,3.68,3.68,0,0,0,.1-1Z"/><path class="cls-5" d="M804.08,527.18c0,4.55-3.15,6.53-6.12,6.53-3.33,0-5.89-2.44-5.89-6.32,0-4.12,2.69-6.53,6.09-6.53S804.08,523.43,804.08,527.18Zm-9.75.13c0,2.69,1.54,4.72,3.73,4.72s3.73-2,3.73-4.77c0-2.08-1-4.72-3.68-4.72S794.33,525,794.33,527.31Z"/><path class="cls-5" d="M807.61,521.14l1.62,6.25c.36,1.37.69,2.64.91,3.91h.08c.28-1.25.69-2.57,1.09-3.89l2-6.27h1.88l1.9,6.14c.46,1.48.81,2.77,1.09,4h.08a35.29,35.29,0,0,1,.94-4l1.75-6.17h2.21l-4,12.29h-2l-1.88-5.87a40.44,40.44,0,0,1-1.09-4h-.05a38,38,0,0,1-1.12,4.06l-2,5.84h-2l-3.71-12.29Z"/><path class="cls-5" d="M825.4,524.47c0-1.27,0-2.31-.1-3.33h2l.13,2h.05a4.51,4.51,0,0,1,4.06-2.31c1.7,0,4.34,1,4.34,5.23v7.34h-2.23v-7.08c0-2-.74-3.64-2.84-3.64a3.18,3.18,0,0,0-3,2.29,3.26,3.26,0,0,0-.15,1v7.39H825.4Z"/><path class="cls-5" d="M612.25,558.82l-.18-1.55H612a4.58,4.58,0,0,1-3.76,1.83,3.5,3.5,0,0,1-3.76-3.53c0-3,2.64-4.6,7.39-4.57v-.25a2.54,2.54,0,0,0-2.79-2.85,6.11,6.11,0,0,0-3.2.92l-.51-1.48a7.65,7.65,0,0,1,4-1.09c3.76,0,4.67,2.57,4.67,5v4.59a17.62,17.62,0,0,0,.2,3Zm-.33-6.27c-2.44,0-5.2.38-5.2,2.77a2,2,0,0,0,2.1,2.13,3.05,3.05,0,0,0,3-2.06,2.22,2.22,0,0,0,.13-.71Z"/><path class="cls-5" d="M628.3,540.79v14.86c0,1.09,0,2.33.1,3.17h-2l-.1-2.13h0a4.54,4.54,0,0,1-4.19,2.41c-3,0-5.25-2.51-5.25-6.25,0-4.08,2.51-6.6,5.51-6.6a4.09,4.09,0,0,1,3.7,1.88h0v-7.34Zm-2.24,10.74a3.76,3.76,0,0,0-.1-.94,3.29,3.29,0,0,0-3.22-2.59c-2.31,0-3.68,2-3.68,4.75,0,2.49,1.22,4.55,3.63,4.55a3.35,3.35,0,0,0,3.27-2.67,3.68,3.68,0,0,0,.1-1Z"/><path class="cls-5" d="M632.87,546.53l2.41,6.91a28.92,28.92,0,0,1,1,3.15h.08c.28-1,.63-2,1-3.15l2.39-6.91h2.33l-4.82,12.29h-2.14l-4.67-12.29Z"/><path class="cls-5" d="M645.21,553.08c0,3,2,4.27,4.21,4.27a8,8,0,0,0,3.41-.64l.38,1.6a9.93,9.93,0,0,1-4.09.76c-3.78,0-6-2.48-6-6.19s2.18-6.63,5.76-6.63c4,0,5.08,3.53,5.08,5.79a7.43,7.43,0,0,1-.08,1Zm6.55-1.6c0-1.42-.58-3.63-3.1-3.63-2.26,0-3.25,2.08-3.43,3.63Z"/><path class="cls-5" d="M656.68,550.36c0-1.44,0-2.69-.1-3.83h2l.07,2.41h.11a3.67,3.67,0,0,1,3.4-2.69,2.41,2.41,0,0,1,.63.08v2.11a2.86,2.86,0,0,0-.76-.08,3.13,3.13,0,0,0-3,2.87,5.35,5.35,0,0,0-.11,1v6.55h-2.21Z"/><path class="cls-5" d="M668.29,543v3.53h3.2v1.7h-3.2v6.63c0,1.52.43,2.39,1.67,2.39a4.76,4.76,0,0,0,1.3-.16l.1,1.68a5.44,5.44,0,0,1-2,.3,3.09,3.09,0,0,1-2.41-.94,4.51,4.51,0,0,1-.87-3.19v-6.71h-1.9v-1.7h1.9v-2.94Z"/><path class="cls-5" d="M676.49,543.08a1.39,1.39,0,0,1-2.77,0,1.37,1.37,0,0,1,1.4-1.4A1.33,1.33,0,0,1,676.49,543.08ZM674,558.82V546.53h2.24v12.29Z"/><path class="cls-5" d="M679.64,556.53a5.78,5.78,0,0,0,2.94.89c1.63,0,2.39-.81,2.39-1.82s-.63-1.66-2.29-2.26c-2.2-.79-3.25-2-3.25-3.48,0-2,1.6-3.61,4.24-3.61a6.23,6.23,0,0,1,3,.76l-.56,1.63a4.73,4.73,0,0,0-2.52-.71c-1.32,0-2,.76-2,1.67s.73,1.48,2.33,2.09c2.14.81,3.23,1.87,3.23,3.7,0,2.16-1.68,3.68-4.6,3.68a7.09,7.09,0,0,1-3.45-.83Z"/><path class="cls-5" d="M691.24,553.08c0,3,2,4.27,4.22,4.27a8,8,0,0,0,3.4-.64l.38,1.6a9.89,9.89,0,0,1-4.09.76c-3.78,0-6-2.48-6-6.19s2.18-6.63,5.76-6.63c4,0,5.08,3.53,5.08,5.79a7.43,7.43,0,0,1-.08,1Zm6.55-1.6c0-1.42-.58-3.63-3.1-3.63-2.26,0-3.25,2.08-3.42,3.63Z"/><path class="cls-5" d="M702.72,549.86c0-1.27,0-2.31-.1-3.33h2l.1,2h.08a4.23,4.23,0,0,1,3.86-2.26,3.65,3.65,0,0,1,3.48,2.46h0a5.19,5.19,0,0,1,1.37-1.6,4.22,4.22,0,0,1,2.71-.86c1.63,0,4,1.07,4,5.33v7.24h-2.18v-7c0-2.36-.87-3.78-2.67-3.78a2.89,2.89,0,0,0-2.64,2,3.75,3.75,0,0,0-.18,1.12v7.59h-2.18v-7.36c0-2-.86-3.38-2.56-3.38a3.33,3.33,0,0,0-3,3.33v7.41h-2.18Z"/><path class="cls-5" d="M725.14,553.08c.05,3,2,4.27,4.21,4.27a8,8,0,0,0,3.4-.64l.38,1.6a9.83,9.83,0,0,1-4.08.76c-3.79,0-6-2.48-6-6.19s2.19-6.63,5.77-6.63c4,0,5.08,3.53,5.08,5.79a9.4,9.4,0,0,1-.08,1Zm6.55-1.6c0-1.42-.59-3.63-3.1-3.63-2.26,0-3.25,2.08-3.43,3.63Z"/><path class="cls-5" d="M736.61,549.86c0-1.27,0-2.31-.1-3.33h2l.13,2h0a4.51,4.51,0,0,1,4.06-2.31c1.7,0,4.34,1,4.34,5.23v7.34h-2.23v-7.08c0-2-.74-3.63-2.84-3.63a3.17,3.17,0,0,0-3,2.28,3.26,3.26,0,0,0-.15,1v7.39h-2.24Z"/><path class="cls-5" d="M753.29,543v3.53h3.2v1.7h-3.2v6.63c0,1.52.44,2.39,1.68,2.39a4.82,4.82,0,0,0,1.3-.16l.1,1.68a5.44,5.44,0,0,1-2,.3,3.12,3.12,0,0,1-2.42-.94,4.56,4.56,0,0,1-.86-3.19v-6.71h-1.9v-1.7h1.9v-2.94Z"/><path class="cls-5" d="M758.7,556.53a5.78,5.78,0,0,0,2.95.89c1.62,0,2.39-.81,2.39-1.82s-.64-1.66-2.29-2.26c-2.21-.79-3.25-2-3.25-3.48,0-2,1.6-3.61,4.24-3.61a6.19,6.19,0,0,1,3,.76l-.56,1.63a4.72,4.72,0,0,0-2.51-.71c-1.32,0-2.06.76-2.06,1.67s.74,1.48,2.34,2.09c2.13.81,3.22,1.87,3.22,3.7,0,2.16-1.67,3.68-4.59,3.68a7.13,7.13,0,0,1-3.46-.83Z"/><path class="cls-5" d="M1055.2,258.28a7.83,7.83,0,0,0,4,1.11c2.26,0,3.58-1.19,3.58-2.92s-.91-2.51-3.22-3.4c-2.8-1-4.52-2.44-4.52-4.85,0-2.66,2.21-4.65,5.53-4.65a7.85,7.85,0,0,1,3.79.84l-.61,1.81a6.77,6.77,0,0,0-3.25-.82c-2.34,0-3.23,1.4-3.23,2.57,0,1.6,1,2.38,3.4,3.3,2.9,1.12,4.37,2.51,4.37,5s-2,4.92-6,4.92a8.87,8.87,0,0,1-4.37-1.09Z"/><path class="cls-5" d="M1070.43,245.23a1.31,1.31,0,0,1-1.42,1.37,1.33,1.33,0,0,1-1.34-1.37,1.36,1.36,0,0,1,1.39-1.4A1.33,1.33,0,0,1,1070.43,245.23ZM1068,261V248.68h2.23V261Z"/><path class="cls-5" d="M1073.89,252c0-1.26,0-2.31-.1-3.32h2l.12,2h0a4.53,4.53,0,0,1,4.07-2.31c1.7,0,4.34,1,4.34,5.23V261h-2.24v-7.09c0-2-.73-3.63-2.84-3.63a3.18,3.18,0,0,0-3,2.29,3.26,3.26,0,0,0-.15,1V261h-2.23Z"/><path class="cls-5" d="M1098.57,248.68c0,.89-.1,1.88-.1,3.38v7.13c0,2.82-.56,4.55-1.76,5.61a6.49,6.49,0,0,1-4.47,1.47,7.91,7.91,0,0,1-4.08-1l.56-1.7a6.89,6.89,0,0,0,3.6,1c2.29,0,4-1.19,4-4.29v-1.37h0a4.38,4.38,0,0,1-3.91,2.06c-3,0-5.23-2.59-5.23-6,0-4.16,2.72-6.52,5.54-6.52a4.09,4.09,0,0,1,3.83,2.13h0l.1-1.85Zm-2.31,4.85a3.28,3.28,0,0,0-.13-1,3.23,3.23,0,0,0-3.12-2.36c-2.14,0-3.66,1.8-3.66,4.65,0,2.41,1.22,4.42,3.63,4.42a3.27,3.27,0,0,0,3.1-2.29,3.78,3.78,0,0,0,.18-1.19Z"/><path class="cls-5" d="M1102.17,242.94h2.24v18h-2.24Z"/><path class="cls-5" d="M1109.41,255.23c0,3,2,4.26,4.21,4.26a8.06,8.06,0,0,0,3.41-.63l.38,1.6a9.93,9.93,0,0,1-4.09.76c-3.78,0-6-2.49-6-6.19s2.18-6.63,5.76-6.63c4,0,5.08,3.53,5.08,5.79a7.43,7.43,0,0,1-.08,1Zm6.55-1.6c0-1.42-.58-3.63-3.1-3.63-2.26,0-3.25,2.08-3.43,3.63Z"/><path class="cls-5" d="M1135,260.51a8.18,8.18,0,0,1-3.53.71c-3.71,0-6.12-2.51-6.12-6.27a6.25,6.25,0,0,1,6.6-6.53,7.39,7.39,0,0,1,3.1.64l-.51,1.73a5.1,5.1,0,0,0-2.59-.59c-2.82,0-4.34,2.08-4.34,4.65,0,2.84,1.83,4.59,4.26,4.59a6.39,6.39,0,0,0,2.75-.61Z"/><path class="cls-5" d="M1137.64,242.94h2.24v18h-2.24Z"/><path class="cls-5" d="M1146.12,245.23a1.38,1.38,0,0,1-2.76,0,1.36,1.36,0,0,1,1.39-1.4A1.33,1.33,0,0,1,1146.12,245.23ZM1143.64,261V248.68h2.23V261Z"/><path class="cls-5" d="M1158.34,260.51a8.18,8.18,0,0,1-3.53.71c-3.71,0-6.12-2.51-6.12-6.27a6.25,6.25,0,0,1,6.6-6.53,7.39,7.39,0,0,1,3.1.64l-.51,1.73a5.1,5.1,0,0,0-2.59-.59c-2.82,0-4.34,2.08-4.34,4.65,0,2.84,1.83,4.59,4.26,4.59a6.39,6.39,0,0,0,2.75-.61Z"/><path class="cls-5" d="M1163.16,254.32h0c.31-.44.74-1,1.09-1.4l3.61-4.24h2.69l-4.75,5,5.41,7.24h-2.72l-4.24-5.89-1.14,1.27V261H1161v-18h2.21Z"/><path class="cls-5" d="M1171.77,264.09a36.38,36.38,0,0,0,1.52-6.07l2.49-.25a30.9,30.9,0,0,1-2.41,6.17Z"/><path class="cls-5" d="M1055.12,284.07a5.88,5.88,0,0,0,3,.89c1.62,0,2.39-.81,2.39-1.83s-.64-1.65-2.29-2.26c-2.21-.78-3.25-2-3.25-3.47,0-2,1.6-3.61,4.24-3.61a6.19,6.19,0,0,1,3,.76l-.56,1.63a4.72,4.72,0,0,0-2.51-.71c-1.32,0-2.06.76-2.06,1.67s.74,1.47,2.34,2.08c2.13.82,3.22,1.88,3.22,3.71,0,2.16-1.67,3.68-4.59,3.68a7,7,0,0,1-3.45-.84Z"/><path class="cls-5" d="M1075.77,283c0,1.27,0,2.38.1,3.35h-2l-.13-2h0a4.62,4.62,0,0,1-4.06,2.29c-1.93,0-4.24-1.07-4.24-5.39v-7.18h2.23v6.8c0,2.34.71,3.91,2.74,3.91a3.24,3.24,0,0,0,2.95-2,3.17,3.17,0,0,0,.2-1.14v-7.54h2.24Z"/><path class="cls-5" d="M1079.37,286.36c.05-.84.1-2.08.1-3.18V268.33h2.21v7.72h0a4.58,4.58,0,0,1,4.19-2.26c3,0,5.21,2.54,5.18,6.27,0,4.39-2.77,6.58-5.51,6.58a4.38,4.38,0,0,1-4.11-2.31h-.08l-.1,2Zm2.31-4.93a4.17,4.17,0,0,0,.1.81,3.46,3.46,0,0,0,3.36,2.62c2.33,0,3.73-1.9,3.73-4.72,0-2.47-1.27-4.57-3.66-4.57a3.56,3.56,0,0,0-3.4,2.74,4.41,4.41,0,0,0-.13.91Z"/><path class="cls-5" d="M1093.62,284.07a5.84,5.84,0,0,0,2.94.89c1.63,0,2.39-.81,2.39-1.83s-.64-1.65-2.29-2.26c-2.21-.78-3.25-2-3.25-3.47,0-2,1.6-3.61,4.24-3.61a6.16,6.16,0,0,1,3,.76l-.55,1.63a4.79,4.79,0,0,0-2.52-.71c-1.32,0-2,.76-2,1.67s.73,1.47,2.33,2.08c2.13.82,3.23,1.88,3.23,3.71,0,2.16-1.68,3.68-4.6,3.68a7,7,0,0,1-3.45-.84Z"/><path class="cls-5" d="M1112.73,285.9a8.09,8.09,0,0,1-3.52.71c-3.71,0-6.12-2.51-6.12-6.27a6.24,6.24,0,0,1,6.6-6.52,7.57,7.57,0,0,1,3.1.63l-.51,1.73a5.13,5.13,0,0,0-2.59-.59c-2.82,0-4.34,2.08-4.34,4.65,0,2.84,1.82,4.59,4.26,4.59a6.47,6.47,0,0,0,2.74-.6Z"/><path class="cls-5" d="M1115.35,277.9c0-1.44,0-2.69-.1-3.83h2l.08,2.41h.1a3.69,3.69,0,0,1,3.4-2.69,2.43,2.43,0,0,1,.64.08V276a3.45,3.45,0,0,0-.76-.07,3.13,3.13,0,0,0-3,2.87,6.33,6.33,0,0,0-.1,1v6.55h-2.21Z"/><path class="cls-5" d="M1126.24,270.62a1.38,1.38,0,0,1-2.76,0,1.36,1.36,0,0,1,1.39-1.4A1.33,1.33,0,0,1,1126.24,270.62Zm-2.49,15.74V274.07H1126v12.29Z"/><path class="cls-5" d="M1129.7,278.08c0-1.57,0-2.84-.11-4h2l.1,2.11h0a4.84,4.84,0,0,1,4.37-2.39c3,0,5.2,2.51,5.2,6.25,0,4.41-2.69,6.6-5.58,6.6a4.29,4.29,0,0,1-3.78-1.93h-.06v6.68h-2.2Zm2.2,3.28a5,5,0,0,0,.11.91,3.44,3.44,0,0,0,3.35,2.62c2.36,0,3.73-1.93,3.73-4.75,0-2.47-1.29-4.57-3.66-4.57a3.56,3.56,0,0,0-3.37,2.76,3.48,3.48,0,0,0-.16.92Z"/><path class="cls-5" d="M1146.83,270.54v3.53h3.2v1.7h-3.2v6.63c0,1.52.44,2.38,1.68,2.38a4.9,4.9,0,0,0,1.3-.15l.1,1.68a5.44,5.44,0,0,1-2,.3,3.12,3.12,0,0,1-2.42-.94,4.57,4.57,0,0,1-.86-3.2v-6.7h-1.9v-1.7h1.9v-2.95Z"/><path class="cls-5" d="M1155,270.62a1.39,1.39,0,0,1-2.77,0,1.36,1.36,0,0,1,1.39-1.4A1.33,1.33,0,0,1,1155,270.62Zm-2.49,15.74V274.07h2.23v12.29Z"/><path class="cls-5" d="M1169.61,280.11c0,4.55-3.15,6.53-6.12,6.53-3.33,0-5.89-2.44-5.89-6.32,0-4.12,2.69-6.53,6.09-6.53S1169.61,276.35,1169.61,280.11Zm-9.75.13c0,2.69,1.55,4.72,3.73,4.72s3.73-2,3.73-4.77c0-2.08-1-4.72-3.68-4.72S1159.86,277.9,1159.86,280.24Z"/><path class="cls-5" d="M1172.43,277.4c0-1.27,0-2.32-.1-3.33h2l.12,2h0a4.53,4.53,0,0,1,4.07-2.31c1.7,0,4.34,1,4.34,5.23v7.34h-2.24v-7.09c0-2-.73-3.63-2.84-3.63a3.17,3.17,0,0,0-3,2.29,3,3,0,0,0-.16,1v7.39h-2.23Z"/><path class="cls-5" d="M1055.43,303.29c0-1.44,0-2.69-.1-3.83h2l.08,2.41h.1a3.68,3.68,0,0,1,3.4-2.69,2.49,2.49,0,0,1,.64.08v2.1a3.49,3.49,0,0,0-.77-.07,3.13,3.13,0,0,0-3,2.87,6.33,6.33,0,0,0-.1,1v6.55h-2.21Z"/><path class="cls-5" d="M1064.72,306c0,3,2,4.27,4.22,4.27a8,8,0,0,0,3.4-.64l.38,1.6a9.89,9.89,0,0,1-4.09.76c-3.78,0-6-2.49-6-6.19s2.18-6.63,5.76-6.63c4,0,5.08,3.53,5.08,5.79a7.43,7.43,0,0,1-.08,1Zm6.55-1.6c0-1.42-.58-3.63-3.1-3.63-2.26,0-3.25,2.08-3.42,3.63Z"/><path class="cls-5" d="M1082.09,304.06v1.65h-6.27v-1.65Z"/><path class="cls-5" d="M1096.28,305.5c0,4.55-3.15,6.53-6.12,6.53-3.32,0-5.89-2.44-5.89-6.32,0-4.12,2.69-6.53,6.1-6.53S1096.28,301.74,1096.28,305.5Zm-9.75.13c0,2.69,1.55,4.72,3.73,4.72s3.74-2,3.74-4.77c0-2.08-1-4.72-3.68-4.72S1086.53,303.29,1086.53,305.63Z"/><path class="cls-5" d="M1099.1,303.29c0-1.44,0-2.69-.1-3.83h2l.08,2.41h.1a3.69,3.69,0,0,1,3.4-2.69,2.43,2.43,0,0,1,.64.08v2.1a3.45,3.45,0,0,0-.76-.07,3.13,3.13,0,0,0-3,2.87,6.33,6.33,0,0,0-.1,1v6.55h-2.21Z"/><path class="cls-5" d="M1117.76,293.72v14.85c0,1.1,0,2.34.1,3.18h-2l-.1-2.13h0a4.56,4.56,0,0,1-4.19,2.41c-3,0-5.26-2.52-5.26-6.25,0-4.09,2.51-6.6,5.51-6.6a4.12,4.12,0,0,1,3.71,1.88h0v-7.34Zm-2.23,10.74a4.29,4.29,0,0,0-.1-.94,3.29,3.29,0,0,0-3.23-2.59c-2.31,0-3.68,2-3.68,4.75,0,2.49,1.22,4.55,3.63,4.55a3.36,3.36,0,0,0,3.28-2.67,4.25,4.25,0,0,0,.1-1Z"/><path class="cls-5" d="M1122.71,306c0,3,2,4.27,4.22,4.27a8,8,0,0,0,3.4-.64l.38,1.6a9.89,9.89,0,0,1-4.09.76c-3.78,0-6-2.49-6-6.19s2.18-6.63,5.76-6.63c4,0,5.08,3.53,5.08,5.79a10,10,0,0,1-.07,1Zm6.55-1.6c0-1.42-.58-3.63-3.09-3.63-2.26,0-3.25,2.08-3.43,3.63Z"/><path class="cls-5" d="M1134.19,303.29c0-1.44,0-2.69-.1-3.83h2l.08,2.41h.1a3.69,3.69,0,0,1,3.4-2.69,2.43,2.43,0,0,1,.64.08v2.1a3.45,3.45,0,0,0-.76-.07,3.13,3.13,0,0,0-3,2.87,6.33,6.33,0,0,0-.1,1v6.55h-2.21Z"/><path class="cls-5" d="M1145.08,296a1.38,1.38,0,0,1-2.76,0,1.36,1.36,0,0,1,1.39-1.4A1.33,1.33,0,0,1,1145.08,296Zm-2.49,15.74V299.46h2.24v12.29Z"/><path class="cls-5" d="M1148.54,302.79c0-1.27,0-2.31-.11-3.33h2l.13,2h0a4.51,4.51,0,0,1,4.06-2.31c1.71,0,4.35,1,4.35,5.23v7.34h-2.24v-7.09c0-2-.73-3.63-2.84-3.63a3.18,3.18,0,0,0-3,2.29,3.26,3.26,0,0,0-.15,1v7.39h-2.23Z"/><path class="cls-5" d="M1173.22,299.46c-.06.89-.11,1.88-.11,3.38V310c0,2.82-.55,4.55-1.75,5.61a6.5,6.5,0,0,1-4.47,1.48,7.91,7.91,0,0,1-4.08-1l.55-1.7a7,7,0,0,0,3.61,1c2.28,0,4-1.19,4-4.29v-1.37h0a4.4,4.4,0,0,1-3.91,2.06c-3,0-5.23-2.59-5.23-6,0-4.17,2.72-6.53,5.53-6.53a4.11,4.11,0,0,1,3.84,2.13h.05l.1-1.85Zm-2.32,4.85a3.29,3.29,0,0,0-.12-1,3.23,3.23,0,0,0-3.13-2.36c-2.13,0-3.65,1.81-3.65,4.65,0,2.41,1.22,4.42,3.63,4.42a3.28,3.28,0,0,0,3.1-2.29,4.08,4.08,0,0,0,.17-1.19Z"/><path class="cls-5" d="M1069.93,395.62c-.13-2.38-.28-5.25-.26-7.38h-.07c-.59,2-1.3,4.13-2.16,6.5l-3,8.3h-1.68l-2.77-8.15c-.81-2.41-1.49-4.62-2-6.65h0c0,2.13-.18,5-.33,7.56l-.46,7.34h-2.1l1.19-17.11h2.82l2.92,8.27c.71,2.11,1.29,4,1.73,5.77h.07c.43-1.73,1-3.61,1.8-5.77l3.05-8.27h2.82l1.07,17.11h-2.16Z"/><path class="cls-5" d="M1087.12,396.89c0,4.55-3.15,6.53-6.12,6.53-3.33,0-5.89-2.44-5.89-6.32,0-4.12,2.69-6.53,6.09-6.53S1087.12,393.14,1087.12,396.89Zm-9.75.13c0,2.69,1.54,4.72,3.73,4.72s3.73-2,3.73-4.77c0-2.08-1-4.72-3.68-4.72S1077.37,394.68,1077.37,397Z"/><path class="cls-5" d="M1089.83,403.14c.05-.84.1-2.08.1-3.17V385.11h2.21v7.72h0a4.58,4.58,0,0,1,4.19-2.26c3,0,5.21,2.54,5.18,6.27,0,4.4-2.76,6.58-5.51,6.58a4.38,4.38,0,0,1-4.11-2.31h-.08l-.1,2Zm2.31-4.93a4.38,4.38,0,0,0,.1.82,3.47,3.47,0,0,0,3.36,2.61c2.33,0,3.73-1.9,3.73-4.72,0-2.46-1.27-4.57-3.66-4.57a3.56,3.56,0,0,0-3.4,2.74,4.41,4.41,0,0,0-.13.91Z"/><path class="cls-5" d="M1106.87,387.4a1.31,1.31,0,0,1-1.42,1.37,1.33,1.33,0,0,1-1.35-1.37,1.37,1.37,0,0,1,1.4-1.4A1.33,1.33,0,0,1,1106.87,387.4Zm-2.49,15.74V390.85h2.24v12.29Z"/><path class="cls-5" d="M1110.32,385.11h2.24v18h-2.24Z"/><path class="cls-5" d="M1117.56,397.4c0,3,2,4.27,4.21,4.27a8,8,0,0,0,3.41-.64l.38,1.6a9.93,9.93,0,0,1-4.09.76c-3.78,0-6-2.49-6-6.19s2.18-6.63,5.76-6.63c4,0,5.08,3.53,5.08,5.79a7.43,7.43,0,0,1-.08,1Zm6.55-1.6c0-1.42-.58-3.63-3.1-3.63-2.26,0-3.25,2.08-3.43,3.63Z"/><path class="cls-5" d="M1135.31,390.85l1.62,6.25c.36,1.37.69,2.64.92,3.91h.07c.28-1.25.69-2.57,1.09-3.89l2-6.27h1.88l1.9,6.14c.46,1.48.82,2.77,1.1,4h.07a35.29,35.29,0,0,1,.94-4l1.75-6.17h2.21l-4,12.29h-2l-1.88-5.87a40.44,40.44,0,0,1-1.09-4h-.05a38,38,0,0,1-1.12,4.06l-2,5.84h-2L1133,390.85Z"/><path class="cls-5" d="M1159.81,403.14l-.18-1.55h-.07a4.58,4.58,0,0,1-3.76,1.83,3.5,3.5,0,0,1-3.76-3.53c0-3,2.64-4.6,7.39-4.57v-.25a2.54,2.54,0,0,0-2.79-2.85,6.09,6.09,0,0,0-3.2.92l-.51-1.48a7.62,7.62,0,0,1,4-1.09c3.75,0,4.67,2.57,4.67,5v4.59a17.62,17.62,0,0,0,.2,2.95Zm-.33-6.27c-2.44-.05-5.21.38-5.21,2.77a2,2,0,0,0,2.11,2.13,3.05,3.05,0,0,0,3-2.06,2.22,2.22,0,0,0,.13-.71Z"/><path class="cls-5" d="M1165.24,385.11h2.24v18h-2.24Z"/><path class="cls-5" d="M1171.23,385.11h2.24v18h-2.24Z"/><path class="cls-5" d="M1178.47,397.4c0,3,2,4.27,4.22,4.27a8,8,0,0,0,3.4-.64l.38,1.6a9.89,9.89,0,0,1-4.09.76c-3.78,0-6-2.49-6-6.19s2.18-6.63,5.76-6.63c4,0,5.08,3.53,5.08,5.79a7.43,7.43,0,0,1-.08,1Zm6.55-1.6c0-1.42-.58-3.63-3.1-3.63-2.26,0-3.25,2.08-3.42,3.63Z"/><path class="cls-5" d="M1192.64,387.32v3.53h3.2v1.7h-3.2v6.63c0,1.52.43,2.39,1.68,2.39a4.73,4.73,0,0,0,1.29-.16l.1,1.68a5.44,5.44,0,0,1-2,.3,3.09,3.09,0,0,1-2.41-.94,4.53,4.53,0,0,1-.86-3.2v-6.7h-1.91v-1.7h1.91v-3Z"/><path class="cls-5" d="M1203.4,395.45v1.65h-6.27v-1.65Z"/><path class="cls-5" d="M1055.43,420.25c0-1.57,0-2.84-.1-4h2l.1,2.11h0a4.85,4.85,0,0,1,4.37-2.39c3,0,5.21,2.52,5.21,6.25,0,4.42-2.69,6.6-5.59,6.6a4.3,4.3,0,0,1-3.78-1.93h0v6.68h-2.21Zm2.21,3.28a5.07,5.07,0,0,0,.1.91,3.45,3.45,0,0,0,3.35,2.62c2.36,0,3.73-1.93,3.73-4.75,0-2.46-1.29-4.57-3.65-4.57a3.56,3.56,0,0,0-3.38,2.77,3.47,3.47,0,0,0-.15.91Z"/><path class="cls-5" d="M1076.68,428.53l-.18-1.55h-.07a4.58,4.58,0,0,1-3.76,1.83,3.5,3.5,0,0,1-3.76-3.53c0-3,2.64-4.6,7.39-4.57v-.25a2.54,2.54,0,0,0-2.79-2.85,6.09,6.09,0,0,0-3.2.92l-.51-1.48a7.65,7.65,0,0,1,4-1.09c3.75,0,4.67,2.57,4.67,5v4.59a17.62,17.62,0,0,0,.2,2.95Zm-.33-6.27c-2.44-.05-5.2.38-5.2,2.77a2,2,0,0,0,2.1,2.13,3.05,3.05,0,0,0,3-2.06,2.22,2.22,0,0,0,.13-.71Z"/><path class="cls-5" d="M1081.81,426.24a5.78,5.78,0,0,0,2.94.89c1.63,0,2.39-.81,2.39-1.82s-.63-1.66-2.28-2.26c-2.21-.79-3.25-2-3.25-3.48,0-2,1.6-3.61,4.24-3.61a6.22,6.22,0,0,1,3,.76l-.56,1.63a4.72,4.72,0,0,0-2.51-.71c-1.32,0-2.06.76-2.06,1.67s.74,1.48,2.33,2.09c2.14.81,3.23,1.87,3.23,3.7,0,2.16-1.68,3.68-4.6,3.68a7.09,7.09,0,0,1-3.45-.83Z"/><path class="cls-5" d="M1091.86,426.24a5.78,5.78,0,0,0,3,.89c1.62,0,2.39-.81,2.39-1.82s-.64-1.66-2.29-2.26c-2.21-.79-3.25-2-3.25-3.48,0-2,1.6-3.61,4.24-3.61a6.16,6.16,0,0,1,3,.76l-.56,1.63a4.72,4.72,0,0,0-2.51-.71c-1.32,0-2.06.76-2.06,1.67s.74,1.48,2.34,2.09c2.13.81,3.22,1.87,3.22,3.7,0,2.16-1.67,3.68-4.59,3.68a7.06,7.06,0,0,1-3.45-.83Z"/><path class="cls-5" d="M1102.12,428.53c.05-.84.1-2.08.1-3.17V410.5h2.21v7.72h0a4.58,4.58,0,0,1,4.19-2.26c3,0,5.21,2.54,5.18,6.27,0,4.4-2.77,6.58-5.51,6.58a4.38,4.38,0,0,1-4.11-2.31h-.08l-.1,2Zm2.31-4.93a4.38,4.38,0,0,0,.1.82,3.45,3.45,0,0,0,3.36,2.61c2.33,0,3.73-1.9,3.73-4.72,0-2.46-1.27-4.57-3.66-4.57a3.56,3.56,0,0,0-3.4,2.74,4.52,4.52,0,0,0-.13.92Z"/><path class="cls-5" d="M1127.79,422.28c0,4.55-3.15,6.53-6.12,6.53-3.32,0-5.89-2.44-5.89-6.32,0-4.12,2.69-6.53,6.1-6.53S1127.79,418.53,1127.79,422.28Zm-9.75.13c0,2.69,1.55,4.72,3.73,4.72s3.74-2,3.74-4.77c0-2.08-1-4.72-3.69-4.72S1118,420.07,1118,422.41Z"/><path class="cls-5" d="M1141.73,422.28c0,4.55-3.15,6.53-6.12,6.53-3.32,0-5.89-2.44-5.89-6.32,0-4.12,2.69-6.53,6.1-6.53S1141.73,418.53,1141.73,422.28Zm-9.75.13c0,2.69,1.55,4.72,3.73,4.72s3.74-2,3.74-4.77c0-2.08-1-4.72-3.69-4.72S1132,420.07,1132,422.41Z"/><path class="cls-5" d="M1146.76,421.88h0c.3-.43.74-1,1.09-1.4l3.61-4.24h2.69l-4.75,5.05,5.41,7.24h-2.72l-4.24-5.89-1.14,1.27v4.62h-2.21v-18h2.21Z"/><path class="cls-5" d="M1164.33,412.79a1.39,1.39,0,0,1-2.77,0,1.37,1.37,0,0,1,1.4-1.4A1.33,1.33,0,0,1,1164.33,412.79Zm-2.49,15.74V416.24h2.23v12.29Z"/><path class="cls-5" d="M1167.78,419.57c0-1.27,0-2.31-.1-3.33h2l.13,2h0a4.51,4.51,0,0,1,4.06-2.31c1.7,0,4.34,1,4.34,5.23v7.34H1176v-7.08c0-2-.74-3.63-2.85-3.63a3.17,3.17,0,0,0-3,2.28,3.26,3.26,0,0,0-.15,1v7.39h-2.24Z"/><path class="cls-5" d="M1184.46,412.71v3.53h3.2v1.7h-3.2v6.63c0,1.52.44,2.39,1.68,2.39a4.73,4.73,0,0,0,1.29-.16l.11,1.68a5.48,5.48,0,0,1-2,.3,3.11,3.11,0,0,1-2.42-.94,4.56,4.56,0,0,1-.86-3.19v-6.71h-1.9v-1.7h1.9V413.3Z"/><path class="cls-5" d="M1191.27,422.79c0,3,2,4.27,4.21,4.27a8,8,0,0,0,3.41-.64l.38,1.6a9.93,9.93,0,0,1-4.09.76c-3.78,0-6-2.48-6-6.19s2.18-6.63,5.76-6.63c4,0,5.08,3.53,5.08,5.79a7.43,7.43,0,0,1-.08,1Zm6.55-1.6c0-1.42-.59-3.63-3.1-3.63-2.26,0-3.25,2.08-3.43,3.63Z"/><path class="cls-5" d="M1213.33,416.24c0,.89-.1,1.88-.1,3.38v7.13c0,2.82-.56,4.55-1.75,5.61a6.5,6.5,0,0,1-4.47,1.48,8,8,0,0,1-4.09-1l.56-1.7a6.9,6.9,0,0,0,3.61,1c2.28,0,4-1.19,4-4.29v-1.37h0a4.38,4.38,0,0,1-3.91,2.06c-3,0-5.23-2.59-5.23-6,0-4.17,2.71-6.53,5.53-6.53a4.12,4.12,0,0,1,3.84,2.13h0l.1-1.85Zm-2.31,4.85a3.29,3.29,0,0,0-.12-1,3.23,3.23,0,0,0-3.13-2.36c-2.13,0-3.65,1.81-3.65,4.65,0,2.41,1.21,4.42,3.63,4.42a3.26,3.26,0,0,0,3.09-2.29,3.78,3.78,0,0,0,.18-1.19Z"/><path class="cls-5" d="M1216.79,420.07c0-1.44,0-2.69-.11-3.83h2l.08,2.41h.1a3.68,3.68,0,0,1,3.4-2.69,2.41,2.41,0,0,1,.63.08v2.11a2.81,2.81,0,0,0-.76-.08,3.13,3.13,0,0,0-3,2.87,6.26,6.26,0,0,0-.11,1v6.55h-2.2Z"/><path class="cls-5" d="M1231.77,428.53l-.18-1.55h-.08a4.54,4.54,0,0,1-3.75,1.83,3.5,3.5,0,0,1-3.76-3.53c0-3,2.64-4.6,7.39-4.57v-.25a2.54,2.54,0,0,0-2.8-2.85,6.14,6.14,0,0,0-3.2.92l-.5-1.48a7.58,7.58,0,0,1,4-1.09c3.76,0,4.68,2.57,4.68,5v4.59a17.62,17.62,0,0,0,.2,2.95Zm-.33-6.27c-2.44-.05-5.21.38-5.21,2.77a2,2,0,0,0,2.11,2.13,3.06,3.06,0,0,0,3-2.06,2.22,2.22,0,0,0,.13-.71Z"/><path class="cls-5" d="M1239.79,412.71v3.53h3.2v1.7h-3.2v6.63c0,1.52.43,2.39,1.68,2.39a4.73,4.73,0,0,0,1.29-.16l.1,1.68a5.4,5.4,0,0,1-2,.3,3.09,3.09,0,0,1-2.41-.94,4.56,4.56,0,0,1-.86-3.19v-6.71h-1.91v-1.7h1.91V413.3Z"/><path class="cls-5" d="M1248,412.79a1.31,1.31,0,0,1-1.42,1.37,1.33,1.33,0,0,1-1.35-1.37,1.37,1.37,0,0,1,1.4-1.4A1.33,1.33,0,0,1,1248,412.79Zm-2.49,15.74V416.24h2.24v12.29Z"/><path class="cls-5" d="M1262.57,422.28c0,4.55-3.15,6.53-6.12,6.53-3.33,0-5.89-2.44-5.89-6.32,0-4.12,2.69-6.53,6.09-6.53S1262.57,418.53,1262.57,422.28Zm-9.75.13c0,2.69,1.54,4.72,3.73,4.72s3.73-2,3.73-4.77c0-2.08-1-4.72-3.68-4.72S1252.82,420.07,1252.82,422.41Z"/><path class="cls-5" d="M1265.38,419.57c0-1.27,0-2.31-.1-3.33h2l.13,2h0a4.51,4.51,0,0,1,4.06-2.31c1.7,0,4.35,1,4.35,5.23v7.34h-2.24v-7.08c0-2-.74-3.63-2.84-3.63a3.17,3.17,0,0,0-3,2.28,3.26,3.26,0,0,0-.15,1v7.39h-2.24Z"/><path class="cls-5" d="M1067.46,511.36a10.88,10.88,0,0,1-4.52.81c-4.82,0-8.45-3-8.45-8.65,0-5.36,3.63-9,8.94-9a9.27,9.27,0,0,1,4.06.76l-.53,1.8a8.19,8.19,0,0,0-3.46-.71c-4,0-6.68,2.57-6.68,7.06,0,4.19,2.42,6.88,6.58,6.88a8.88,8.88,0,0,0,3.61-.71Z"/><path class="cls-5" d="M1070.08,503.47c0-1.45,0-2.7-.1-3.84h2L1072,502h.1a3.68,3.68,0,0,1,3.4-2.69,2.49,2.49,0,0,1,.64.08v2.11a3.41,3.41,0,0,0-.76-.08,3.13,3.13,0,0,0-3,2.87,6.33,6.33,0,0,0-.1,1v6.55h-2.21Z"/><path class="cls-5" d="M1089.25,505.67c0,4.55-3.15,6.53-6.12,6.53-3.33,0-5.89-2.44-5.89-6.32,0-4.12,2.69-6.53,6.09-6.53S1089.25,501.92,1089.25,505.67Zm-9.75.13c0,2.69,1.55,4.72,3.73,4.72s3.73-2,3.73-4.77c0-2.08-1-4.72-3.68-4.72S1079.5,503.47,1079.5,505.8Z"/><path class="cls-5" d="M1092.78,499.63l1.62,6.25c.36,1.37.69,2.64.92,3.91h.07c.28-1.25.69-2.57,1.1-3.89l2-6.27h1.88l1.9,6.15c.46,1.47.82,2.76,1.1,4h.07a40.22,40.22,0,0,1,.94-4l1.75-6.17h2.21l-4,12.29h-2l-1.88-5.86c-.43-1.38-.78-2.59-1.09-4h-.05a38,38,0,0,1-1.12,4.06l-2,5.84h-2l-3.71-12.29Z"/><path class="cls-5" d="M1120.94,493.89v14.86c0,1.09,0,2.33.1,3.17h-2l-.1-2.13h0a4.55,4.55,0,0,1-4.19,2.41c-3,0-5.25-2.51-5.25-6.25,0-4.08,2.51-6.6,5.5-6.6a4.12,4.12,0,0,1,3.71,1.88h0v-7.34Zm-2.24,10.74a3.76,3.76,0,0,0-.1-.94,3.29,3.29,0,0,0-3.22-2.59c-2.31,0-3.69,2-3.69,4.75,0,2.49,1.22,4.55,3.64,4.55a3.36,3.36,0,0,0,3.27-2.67,3.68,3.68,0,0,0,.1-1Z"/><path class="cls-5" d="M1129.72,509.64a5.88,5.88,0,0,0,3,.88c1.62,0,2.38-.81,2.38-1.82s-.63-1.65-2.28-2.26c-2.21-.79-3.25-2-3.25-3.48,0-2,1.6-3.61,4.24-3.61a6.19,6.19,0,0,1,3,.76l-.56,1.63a4.72,4.72,0,0,0-2.51-.71c-1.32,0-2.06.76-2.06,1.67s.74,1.48,2.34,2.09c2.13.81,3.22,1.87,3.22,3.7,0,2.16-1.67,3.68-4.59,3.68a7.13,7.13,0,0,1-3.46-.83Z"/><path class="cls-5" d="M1151.2,505.67c0,4.55-3.15,6.53-6.12,6.53-3.32,0-5.89-2.44-5.89-6.32,0-4.12,2.69-6.53,6.1-6.53S1151.2,501.92,1151.2,505.67Zm-9.75.13c0,2.69,1.55,4.72,3.74,4.72s3.73-2,3.73-4.77c0-2.08-1-4.72-3.68-4.72S1141.45,503.47,1141.45,505.8Z"/><path class="cls-5" d="M1164.3,508.57c0,1.27,0,2.39.11,3.35h-2l-.13-2h0a4.64,4.64,0,0,1-4.06,2.29c-1.93,0-4.25-1.07-4.25-5.38v-7.19h2.24v6.81c0,2.33.71,3.91,2.74,3.91a3.24,3.24,0,0,0,2.95-2,3.46,3.46,0,0,0,.2-1.15v-7.54h2.23Z"/><path class="cls-5" d="M1168,503.47c0-1.45,0-2.7-.1-3.84h1.95l.08,2.41h.1a3.69,3.69,0,0,1,3.4-2.69,2.43,2.43,0,0,1,.64.08v2.11a3.41,3.41,0,0,0-.76-.08,3.13,3.13,0,0,0-3,2.87,6.33,6.33,0,0,0-.1,1v6.55H1168Z"/><path class="cls-5" d="M1184.82,511.46a8.14,8.14,0,0,1-3.53.71c-3.71,0-6.12-2.51-6.12-6.27a6.24,6.24,0,0,1,6.6-6.52,7.57,7.57,0,0,1,3.1.63l-.51,1.73a5.1,5.1,0,0,0-2.59-.59c-2.82,0-4.34,2.09-4.34,4.65,0,2.85,1.83,4.6,4.27,4.6a6.34,6.34,0,0,0,2.74-.61Z"/><path class="cls-5" d="M1188.53,506.18c0,3,2,4.27,4.21,4.27a8,8,0,0,0,3.4-.64l.38,1.6a9.83,9.83,0,0,1-4.08.76c-3.79,0-6-2.48-6-6.19s2.19-6.63,5.77-6.63c4,0,5.08,3.53,5.08,5.79a7.43,7.43,0,0,1-.08,1Zm6.55-1.6c0-1.42-.59-3.63-3.1-3.63-2.26,0-3.25,2.08-3.43,3.63Z"/><path class="cls-5" d="M1210.62,493.89v14.86c0,1.09,0,2.33.1,3.17h-2l-.1-2.13h0a4.55,4.55,0,0,1-4.19,2.41c-3,0-5.26-2.51-5.26-6.25,0-4.08,2.52-6.6,5.51-6.6a4.12,4.12,0,0,1,3.71,1.88h.05v-7.34Zm-2.24,10.74a3.76,3.76,0,0,0-.1-.94,3.29,3.29,0,0,0-3.22-2.59c-2.31,0-3.69,2-3.69,4.75,0,2.49,1.22,4.55,3.64,4.55a3.36,3.36,0,0,0,3.27-2.67,3.68,3.68,0,0,0,.1-1Z"/><path class="cls-5" d="M1055.43,529c0-1.57,0-2.84-.1-4h2l.1,2.11h0a4.85,4.85,0,0,1,4.37-2.39c3,0,5.21,2.52,5.21,6.25,0,4.42-2.69,6.6-5.59,6.6a4.3,4.3,0,0,1-3.78-1.93h0v6.68h-2.21Zm2.21,3.28a5.07,5.07,0,0,0,.1.91,3.45,3.45,0,0,0,3.35,2.62c2.36,0,3.73-1.93,3.73-4.75,0-2.46-1.29-4.57-3.65-4.57a3.56,3.56,0,0,0-3.38,2.77,3.47,3.47,0,0,0-.15.91Z"/><path class="cls-5" d="M1069.88,528.86c0-1.45,0-2.7-.11-3.84h2l.08,2.41h.1a3.68,3.68,0,0,1,3.4-2.69,2.41,2.41,0,0,1,.63.08v2.11a3.28,3.28,0,0,0-.76-.08,3.13,3.13,0,0,0-3,2.87,6.26,6.26,0,0,0-.11,1v6.55h-2.2Z"/><path class="cls-5" d="M1089.05,531.07c0,4.54-3.15,6.52-6.12,6.52-3.33,0-5.89-2.44-5.89-6.32,0-4.12,2.69-6.53,6.09-6.53S1089.05,527.31,1089.05,531.07Zm-9.75.12c0,2.69,1.54,4.72,3.73,4.72s3.73-2,3.73-4.77c0-2.08-1-4.72-3.68-4.72S1079.3,528.86,1079.3,531.19Z"/><path class="cls-5" d="M1102.48,519.28v14.86c0,1.09,0,2.33.1,3.17h-2l-.1-2.13h0a4.55,4.55,0,0,1-4.19,2.41c-3,0-5.25-2.51-5.25-6.25,0-4.08,2.51-6.6,5.5-6.6a4.12,4.12,0,0,1,3.71,1.88h0v-7.34ZM1100.24,530a3.76,3.76,0,0,0-.1-.94,3.29,3.29,0,0,0-3.22-2.59c-2.31,0-3.69,2-3.69,4.75,0,2.49,1.22,4.55,3.64,4.55a3.36,3.36,0,0,0,3.27-2.67,3.68,3.68,0,0,0,.1-1Z"/><path class="cls-5" d="M1116.47,534c0,1.27,0,2.39.1,3.35h-2l-.13-2h0a4.62,4.62,0,0,1-4.06,2.28c-1.93,0-4.24-1.07-4.24-5.38V525h2.23v6.81c0,2.33.71,3.91,2.74,3.91a3.13,3.13,0,0,0,3.15-3.18V525h2.24Z"/><path class="cls-5" d="M1128.93,536.85a8.07,8.07,0,0,1-3.53.72c-3.7,0-6.11-2.52-6.11-6.28a6.24,6.24,0,0,1,6.6-6.52,7.48,7.48,0,0,1,3.09.63l-.5,1.73a5.15,5.15,0,0,0-2.59-.58c-2.82,0-4.34,2.08-4.34,4.64,0,2.85,1.82,4.6,4.26,4.6a6.31,6.31,0,0,0,2.74-.61Z"/><path class="cls-5" d="M1134.57,521.49V525h3.2v1.7h-3.2v6.63c0,1.52.43,2.39,1.68,2.39a4.73,4.73,0,0,0,1.29-.16l.1,1.68a5.37,5.37,0,0,1-2,.31,3.09,3.09,0,0,1-2.41-.94,4.59,4.59,0,0,1-.86-3.2v-6.71h-1.91V525h1.91v-2.94Z"/><path class="cls-5" d="M1066,544.67v14.86c0,1.09,0,2.33.1,3.17h-2l-.1-2.13H1064a4.53,4.53,0,0,1-4.18,2.41c-3,0-5.26-2.51-5.26-6.24,0-4.09,2.51-6.61,5.51-6.61a4.12,4.12,0,0,1,3.71,1.88h0v-7.34Zm-2.23,10.74a4.2,4.2,0,0,0-.1-.93,3.28,3.28,0,0,0-3.23-2.59c-2.31,0-3.68,2-3.68,4.74,0,2.49,1.22,4.55,3.63,4.55a3.36,3.36,0,0,0,3.28-2.67,4.16,4.16,0,0,0,.1-1Z"/><path class="cls-5" d="M1071,557c0,3,2,4.27,4.22,4.27a8,8,0,0,0,3.4-.64l.38,1.6a9.85,9.85,0,0,1-4.09.77c-3.78,0-6-2.49-6-6.2s2.18-6.63,5.76-6.63c4,0,5.08,3.53,5.08,5.79a9.75,9.75,0,0,1-.07,1Zm6.55-1.6c0-1.42-.58-3.63-3.09-3.63-2.26,0-3.25,2.09-3.43,3.63Z"/><path class="cls-5" d="M1083.33,550.41l2.41,6.91a29.62,29.62,0,0,1,1,3.15h.08c.28-1,.64-2,1-3.15l2.39-6.91h2.33l-4.82,12.29h-2.13L1081,550.41Z"/><path class="cls-5" d="M1095.67,557c0,3,2,4.27,4.22,4.27a8,8,0,0,0,3.4-.64l.38,1.6a9.85,9.85,0,0,1-4.09.77c-3.78,0-6-2.49-6-6.2s2.18-6.63,5.76-6.63c4,0,5.08,3.53,5.08,5.79a9.75,9.75,0,0,1-.07,1Zm6.55-1.6c0-1.42-.58-3.63-3.09-3.63-2.26,0-3.25,2.09-3.43,3.63Z"/><path class="cls-5" d="M1107.15,544.67h2.23v18h-2.23Z"/><path class="cls-5" d="M1124.26,556.46c0,4.54-3.15,6.52-6.12,6.52-3.32,0-5.89-2.44-5.89-6.32,0-4.11,2.69-6.53,6.1-6.53S1124.26,552.7,1124.26,556.46Zm-9.75.12c0,2.69,1.55,4.73,3.73,4.73s3.74-2,3.74-4.78c0-2.08-1-4.72-3.68-4.72S1114.51,554.25,1114.51,556.58Z"/><path class="cls-5" d="M1127.08,554.42c0-1.57,0-2.84-.1-4h2l.11,2.11h.05a4.82,4.82,0,0,1,4.36-2.39c3,0,5.21,2.52,5.21,6.25,0,4.42-2.69,6.6-5.59,6.6a4.31,4.31,0,0,1-3.78-1.93h0v6.68h-2.21Zm2.21,3.28a5.07,5.07,0,0,0,.1.91,3.45,3.45,0,0,0,3.35,2.62c2.36,0,3.74-1.93,3.74-4.75,0-2.46-1.3-4.57-3.66-4.57a3.57,3.57,0,0,0-3.38,2.77,3.93,3.93,0,0,0-.15.91Z"/><path class="cls-5" d="M1141.53,553.74c0-1.27,0-2.31-.1-3.33h2l.1,2h.08a4.25,4.25,0,0,1,3.86-2.26,3.65,3.65,0,0,1,3.48,2.47h0a5,5,0,0,1,1.37-1.6,4.2,4.2,0,0,1,2.72-.87c1.62,0,4,1.07,4,5.34v7.23h-2.18v-7c0-2.36-.86-3.78-2.67-3.78a2.89,2.89,0,0,0-2.64,2,3.75,3.75,0,0,0-.18,1.12v7.59h-2.18v-7.36c0-2-.86-3.38-2.56-3.38a3,3,0,0,0-2.77,2.24,3,3,0,0,0-.18,1.09v7.41h-2.18Z"/><path class="cls-5" d="M1164,557c0,3,2,4.27,4.21,4.27a8,8,0,0,0,3.41-.64l.38,1.6a9.89,9.89,0,0,1-4.09.77c-3.79,0-6-2.49-6-6.2s2.18-6.63,5.76-6.63c4,0,5.08,3.53,5.08,5.79a7.3,7.3,0,0,1-.08,1Zm6.55-1.6c0-1.42-.59-3.63-3.1-3.63-2.26,0-3.25,2.09-3.43,3.63Z"/><path class="cls-5" d="M1175.42,553.74c0-1.27,0-2.31-.1-3.33h2l.13,2h0a4.53,4.53,0,0,1,4.06-2.31c1.7,0,4.35,1,4.35,5.23v7.34h-2.24v-7.08c0-2-.74-3.63-2.84-3.63a3.17,3.17,0,0,0-3,2.28,3.26,3.26,0,0,0-.15,1v7.39h-2.24Z"/><path class="cls-5" d="M1192.11,546.88v3.53h3.2v1.7h-3.2v6.63c0,1.52.43,2.39,1.67,2.39a5.29,5.29,0,0,0,1.3-.15l.1,1.67a5.41,5.41,0,0,1-2,.31,3.09,3.09,0,0,1-2.41-.94,4.54,4.54,0,0,1-.87-3.2v-6.71H1188v-1.7h1.9v-2.94Z"/><path class="cls-5" d="M1195.94,563.72l7.08-18.41h1.73l-7.11,18.41Z"/><path class="cls-5" d="M1062.23,588.09l-.17-1.55H1062a4.58,4.58,0,0,1-3.76,1.83,3.5,3.5,0,0,1-3.76-3.53c0-3,2.64-4.59,7.39-4.57V580a2.54,2.54,0,0,0-2.79-2.85,6.11,6.11,0,0,0-3.2.92l-.51-1.47a7.65,7.65,0,0,1,4-1.1c3.76,0,4.67,2.57,4.67,5v4.6a17.57,17.57,0,0,0,.2,2.94Zm-.33-6.27c-2.43-.05-5.2.38-5.2,2.77a2,2,0,0,0,2.11,2.13,3.06,3.06,0,0,0,3-2.06,2.46,2.46,0,0,0,.12-.71Z"/><path class="cls-5" d="M1067.36,585.81a5.88,5.88,0,0,0,3,.89c1.62,0,2.38-.82,2.38-1.83s-.63-1.65-2.28-2.26c-2.21-.79-3.25-2-3.25-3.48,0-2,1.6-3.61,4.24-3.61a6.11,6.11,0,0,1,3,.77l-.56,1.62a4.81,4.81,0,0,0-2.51-.71c-1.32,0-2.06.76-2.06,1.68s.74,1.47,2.34,2.08c2.13.81,3.22,1.88,3.22,3.7,0,2.16-1.67,3.69-4.59,3.69a7,7,0,0,1-3.46-.84Z"/><path class="cls-5" d="M1077.42,585.81a5.84,5.84,0,0,0,2.94.89c1.63,0,2.39-.82,2.39-1.83s-.64-1.65-2.29-2.26c-2.21-.79-3.25-2-3.25-3.48,0-2,1.6-3.61,4.24-3.61a6.12,6.12,0,0,1,3,.77l-.56,1.62a4.85,4.85,0,0,0-2.52-.71c-1.32,0-2.05.76-2.05,1.68s.73,1.47,2.33,2.08c2.14.81,3.23,1.88,3.23,3.7,0,2.16-1.68,3.69-4.6,3.69a7,7,0,0,1-3.45-.84Z"/><path class="cls-5" d="M1098.9,581.85c0,4.54-3.15,6.52-6.12,6.52-3.33,0-5.89-2.44-5.89-6.32,0-4.11,2.69-6.53,6.09-6.53S1098.9,578.09,1098.9,581.85Zm-9.75.12c0,2.69,1.55,4.73,3.73,4.73s3.73-2,3.73-4.78c0-2.08-1-4.72-3.68-4.72S1089.15,579.64,1089.15,582Z"/><path class="cls-5" d="M1101.72,579.64c0-1.45,0-2.69-.11-3.84h2l.08,2.42h.1a3.69,3.69,0,0,1,3.4-2.7,2.41,2.41,0,0,1,.63.08v2.11a3.28,3.28,0,0,0-.76-.08,3.13,3.13,0,0,0-3,2.87,6.38,6.38,0,0,0-.11,1v6.55h-2.2Z"/><path class="cls-5" d="M1113.32,572.27v3.53h3.2v1.7h-3.2v6.63c0,1.52.43,2.39,1.67,2.39a5.29,5.29,0,0,0,1.3-.15l.1,1.67a5.41,5.41,0,0,1-2,.31,3.09,3.09,0,0,1-2.41-.94,4.54,4.54,0,0,1-.86-3.2V577.5h-1.91v-1.7h1.91v-2.94Z"/><path class="cls-5" d="M1119,579.13c0-1.27,0-2.31-.1-3.33h2l.1,2h.07a4.26,4.26,0,0,1,3.86-2.26,3.63,3.63,0,0,1,3.48,2.47h0a5.09,5.09,0,0,1,1.37-1.6,4.2,4.2,0,0,1,2.72-.87c1.62,0,4,1.07,4,5.34v7.23h-2.19v-7c0-2.37-.86-3.79-2.66-3.79a2.89,2.89,0,0,0-2.64,2,3.46,3.46,0,0,0-.18,1.12v7.59h-2.18v-7.36c0-2-.87-3.38-2.57-3.38a3.06,3.06,0,0,0-2.77,2.24,3.23,3.23,0,0,0-.17,1.09v7.41H1119Z"/><path class="cls-5" d="M1141.45,582.35c0,3,2,4.27,4.22,4.27a8.17,8.17,0,0,0,3.4-.63l.38,1.59a9.85,9.85,0,0,1-4.09.77c-3.78,0-6-2.49-6-6.2s2.18-6.63,5.76-6.63c4,0,5.08,3.53,5.08,5.79a7.3,7.3,0,0,1-.08,1Zm6.55-1.6c0-1.42-.58-3.63-3.1-3.63-2.25,0-3.25,2.09-3.42,3.63Z"/><path class="cls-5" d="M1152.93,579.13c0-1.27,0-2.31-.1-3.33h2l.12,2h0a4.55,4.55,0,0,1,4.07-2.31c1.7,0,4.34,1,4.34,5.23v7.34h-2.24V581c0-2-.73-3.63-2.84-3.63a3.17,3.17,0,0,0-3,2.28,3,3,0,0,0-.16,1v7.39h-2.23Z"/><path class="cls-5" d="M1169.61,572.27v3.53h3.2v1.7h-3.2v6.63c0,1.52.43,2.39,1.68,2.39a5.27,5.27,0,0,0,1.29-.15l.1,1.67a5.37,5.37,0,0,1-2,.31,3.09,3.09,0,0,1-2.41-.94,4.54,4.54,0,0,1-.86-3.2V577.5h-1.91v-1.7h1.91v-2.94Z"/><g id="_Group_" data-name="&lt;Group&gt;"><g id="_Group_2" data-name="&lt;Group&gt;"><g id="_Group_3" data-name="&lt;Group&gt;"><g id="_Group_4" data-name="&lt;Group&gt;"><polyline class="cls-6" points="40.35 251.66 46.47 251.66 58.87 297.86 90.89 297.86"/></g><g id="_Group_5" data-name="&lt;Group&gt;"><g id="_Group_6" data-name="&lt;Group&gt;"><line class="cls-6" x1="51.49" y1="265.71" x2="70.37" y2="265.71"/></g><g id="_Group_7" data-name="&lt;Group&gt;"><polyline class="cls-6" points="96.85 283.25 94.21 290.62 57.73 290.62"/></g></g><g id="_Group_8" data-name="&lt;Group&gt;"><circle class="cls-6" cx="90.81" cy="302.36" r="4.5"/></g><g id="_Group_9" data-name="&lt;Group&gt;"><circle class="cls-6" cx="60.63" cy="302.36" r="4.5"/></g></g><g id="_Group_10" data-name="&lt;Group&gt;"><path class="cls-6" d="M94.31,251.66H77.61a3,3,0,0,0-2.91,3.47L78,274a4.78,4.78,0,0,0,4.71,4h30.54V251.66h-7.51l-7.43-16.34H96.41a5.89,5.89,0,0,0-5.75,7.15Z"/></g><g id="_Group_11" data-name="&lt;Group&gt;"><line class="cls-6" x1="75.68" y1="260.6" x2="87.66" y2="260.6"/></g><g id="_Group_12" data-name="&lt;Group&gt;"><line class="cls-6" x1="76.88" y1="268.53" x2="87.66" y2="268.53"/></g></g></g><g id="_Group_13" data-name="&lt;Group&gt;"><g id="_Group_14" data-name="&lt;Group&gt;"><g id="_Group_15" data-name="&lt;Group&gt;"><g id="_Group_16" data-name="&lt;Group&gt;"><circle id="_Ellipse_" data-name="&lt;Ellipse&gt;" class="cls-6" cx="78.69" cy="661.73" r="13.13"/><path id="_Path_" data-name="&lt;Path&gt;" class="cls-6" d="M64,702.11H53.87V691.74a11.49,11.49,0,0,1,11.49-11.49H90.85a11.49,11.49,0,0,1,11.49,11.49v10.37H97.7"/></g></g></g></g><circle id="_Ellipse_2" data-name="&lt;Ellipse&gt;" class="cls-6" cx="81.45" cy="697.95" r="11.12"/><line id="_Path_2" data-name="&lt;Path&gt;" class="cls-6" x1="87.94" y1="706.95" x2="95.02" y2="716.74"/><polyline id="_Path_3" data-name="&lt;Path&gt;" class="cls-6" points="85.7 716.19 45.8 716.19 45.8 633.1 91.76 633.1"/><g id="_Group_17" data-name="&lt;Group&gt;"><polyline class="cls-6" points="112.13 641.71 112.13 716.19 104.5 716.19"/><polygon class="cls-5" points="106.15 643.46 112.13 633.1 118.11 643.46 106.15 643.46"/></g><circle id="_Ellipse_3" data-name="&lt;Ellipse&gt;" class="cls-6" cx="97.7" cy="633.1" r="4.5"/><g id="_Group_18" data-name="&lt;Group&gt;"><g id="_Group_19" data-name="&lt;Group&gt;"><g id="_Group_20" data-name="&lt;Group&gt;"><g id="_Group_21" data-name="&lt;Group&gt;"><polyline class="cls-6" points="64.63 410.5 36.85 410.5 36.85 358.67 106.3 358.67 106.3 377.09"/></g></g><g id="_Group_22" data-name="&lt;Group&gt;"><rect class="cls-6" x="36.86" y="358.67" width="69.45" height="13.05"/></g></g><g id="_Group_23" data-name="&lt;Group&gt;"><g id="_Group_24" data-name="&lt;Group&gt;"><polyline class="cls-6" points="110.47 416.44 110.47 381.27 69.14 381.27 69.14 440.64 79.76 440.64"/><polygon class="cls-5" points="78.01 446.63 88.38 440.64 78.01 434.66 78.01 446.63"/></g><g id="_Group_25" data-name="&lt;Group&gt;"><g id="_Group_26" data-name="&lt;Group&gt;"><rect class="cls-6" x="78.5" y="391.13" width="6.23" height="5.23"/></g><g id="_Group_27" data-name="&lt;Group&gt;"><rect class="cls-6" x="78.5" y="405.84" width="6.23" height="5.23"/></g></g><g id="_Group_28" data-name="&lt;Group&gt;"><circle class="cls-6" cx="101.93" cy="431.66" r="11.08"/></g><g id="_Group_29" data-name="&lt;Group&gt;"><polyline class="cls-6" points="96.73 431.43 100.75 435.45 108.22 427.99"/></g></g><g id="_Group_30" data-name="&lt;Group&gt;"><line class="cls-6" x1="40.65" y1="365.19" x2="45.98" y2="365.19"/></g><g id="_Group_31" data-name="&lt;Group&gt;"><line class="cls-6" x1="88.37" y1="365.19" x2="93.71" y2="365.19"/></g><g id="_Group_32" data-name="&lt;Group&gt;"><line class="cls-6" x1="97.88" y1="365.19" x2="103.21" y2="365.19"/></g></g><g id="_Group_33" data-name="&lt;Group&gt;"><g id="_Group_34" data-name="&lt;Group&gt;"><g id="_Group_35" data-name="&lt;Group&gt;"><line class="cls-6" x1="41.54" y1="551.79" x2="58.57" y2="551.79"/></g><g id="_Group_36" data-name="&lt;Group&gt;"><line class="cls-6" x1="69.05" y1="551.79" x2="86.08" y2="551.79"/></g><g id="_Group_37" data-name="&lt;Group&gt;"><polyline class="cls-6" points="86.39 544.94 86.39 563.75 86.22 563.75 41.54 563.75 41.54 497.63 86.39 497.63 86.39 501.41"/></g><g id="_Group_38" data-name="&lt;Group&gt;"><circle class="cls-6" cx="63.97" cy="551.82" r="4.5"/></g></g><g id="_Group_39" data-name="&lt;Group&gt;"><g id="_Group_40" data-name="&lt;Group&gt;"><g id="_Group_41" data-name="&lt;Group&gt;"><g id="_Group_42" data-name="&lt;Group&gt;"><circle class="cls-6" cx="103.36" cy="555.33" r="7.15"/></g><g id="_Group_43" data-name="&lt;Group&gt;"><path class="cls-6" d="M91.13,578.09v-6.21a5,5,0,0,1,5.05-5h13.44a5.06,5.06,0,0,1,5.06,5v12.36H64V577"/><polygon class="cls-5" points="69.95 578.77 63.97 568.41 57.98 578.77 69.95 578.77"/></g></g></g></g></g><g id="_Group_44" data-name="&lt;Group&gt;"><g id="_Group_45" data-name="&lt;Group&gt;"><g id="_Group_46" data-name="&lt;Group&gt;"><g id="_Group_47" data-name="&lt;Group&gt;"><circle class="cls-6" cx="531.23" cy="89.65" r="9.4"/></g><g id="_Group_48" data-name="&lt;Group&gt;"><path class="cls-6" d="M531.81,105.15h10.92a8.22,8.22,0,0,1,8.22,8.22V123a3.74,3.74,0,0,1-3.74,3.74h-3.74v4.49H520.15v-4.49h-3.74a3.74,3.74,0,0,1-3.74-3.74v-9.6a8.22,8.22,0,0,1,8.22-8.22Z"/></g><g id="_Group_49" data-name="&lt;Group&gt;"><line class="cls-6" x1="543.47" y1="126.71" x2="543.47" y2="116.02"/></g><g id="_Group_50" data-name="&lt;Group&gt;"><line class="cls-6" x1="520.25" y1="126.71" x2="520.25" y2="116.02"/></g></g></g></g><g id="_Group_51" data-name="&lt;Group&gt;"><g id="_Group_52" data-name="&lt;Group&gt;"><path class="cls-6" d="M522.17,93.4c-3.11,3.92-5.54,6.6-5.54,6.6s-18.94-20.91-18.94-31.37a18.94,18.94,0,0,1,37.88,0c0,3.1-1.67,7.12-4,11.24"/></g><g id="_Group_53" data-name="&lt;Group&gt;"><circle class="cls-6" cx="516.63" cy="67.8" r="7.04"/></g></g><g id="_Group_54" data-name="&lt;Group&gt;"><g id="_Group_55" data-name="&lt;Group&gt;"><polyline class="cls-6" points="518.25 241.06 483.23 241.06 483.23 314.24 533.78 314.17 533.78 294.87"/><polygon class="cls-5" points="516.5 235.08 526.87 241.06 516.5 247.05 516.5 235.08"/></g><line id="_Path_4" data-name="&lt;Path&gt;" class="cls-6" x1="483.23" y1="299.34" x2="502.08" y2="299.34"/><line id="_Path_5" data-name="&lt;Path&gt;" class="cls-6" x1="513.2" y1="299.34" x2="533.85" y2="299.34"/><circle id="_Ellipse_4" data-name="&lt;Ellipse&gt;" class="cls-6" cx="508.05" cy="299.37" r="4.5"/></g><circle id="_Ellipse_5" data-name="&lt;Ellipse&gt;" class="cls-6" cx="528.92" cy="270.31" r="4.5"/><line id="_Path_6" data-name="&lt;Path&gt;" class="cls-6" x1="492.66" y1="253.82" x2="500.32" y2="253.82"/><line id="_Path_7" data-name="&lt;Path&gt;" class="cls-6" x1="492.97" y1="262.31" x2="518.78" y2="262.31"/><line id="_Path_8" data-name="&lt;Path&gt;" class="cls-6" x1="492.91" y1="273.14" x2="508.36" y2="273.14"/><line id="_Path_9" data-name="&lt;Path&gt;" class="cls-6" x1="492.91" y1="285.46" x2="508.36" y2="285.46"/><g id="_Group_56" data-name="&lt;Group&gt;"><g id="_Group_57" data-name="&lt;Group&gt;"><g id="_Group_58" data-name="&lt;Group&gt;"><path class="cls-6" d="M549.3,419.81l-32.75,11.35-3.61-1.42-2.4,3.35-13.73,4.43L493.3,426c1.55-.5,2.29-2.5,1.66-4.46s-2.4-3.15-3.95-2.65L487.84,409c1.55-.49,2.29-2.49,1.66-4.45s-2.4-3.15-3.95-2.65l-3.64-10.79,13.61-4.38,4.31,1.26,2.24-3.37,40.47-13.43,3.65,10.82a1.7,1.7,0,0,0-.31.06c-1.54.5-2.29,2.49-1.65,4.45s2.4,3.15,3.95,2.65a1.75,1.75,0,0,0,.28-.13l3.19,9.91-.31.06c-1.54.5-2.29,2.49-1.65,4.46s2.4,3.15,3.95,2.65l.28-.14,1.88,6.14"/><polygon class="cls-5" points="545.69 414.73 557.44 416.99 549.61 426.04 545.69 414.73"/></g><g id="_Group_59" data-name="&lt;Group&gt;"><line class="cls-6" x1="499.9" y1="388.53" x2="512.94" y2="429.74"/></g></g></g><g id="_Group_60" data-name="&lt;Group&gt;"><g id="_Group_61" data-name="&lt;Group&gt;"><line class="cls-6" x1="544.61" y1="519.68" x2="553.58" y2="515.05"/></g><g id="_Group_62" data-name="&lt;Group&gt;"><g id="_Group_63" data-name="&lt;Group&gt;"><polygon class="cls-6" points="481.97 550.35 500.34 550.35 500.34 536.36 500.34 522.37 481.97 522.37 481.97 550.35"/></g><g id="_Group_64" data-name="&lt;Group&gt;"><circle class="cls-6" cx="537.55" cy="503.83" r="4.5"/></g><g id="_Group_65" data-name="&lt;Group&gt;"><circle class="cls-6" cx="537.55" cy="571.09" r="4.5"/></g><g id="_Group_66" data-name="&lt;Group&gt;"><line class="cls-6" x1="491.22" y1="550.25" x2="491.22" y2="565.19"/><polygon class="cls-5" points="485.24 563.44 491.22 573.81 497.2 563.44 485.24 563.44"/></g><g id="_Group_67" data-name="&lt;Group&gt;"><polyline class="cls-6" points="533.36 504.18 500.33 522.37 500.33 536.36 500.33 550.35 534.2 569.93"/></g><g id="_Group_68" data-name="&lt;Group&gt;"><line class="cls-6" x1="537.55" y1="566.89" x2="537.55" y2="508.25"/></g></g><g id="_Group_69" data-name="&lt;Group&gt;"><line class="cls-6" x1="544.22" y1="555.29" x2="553.26" y2="559.47"/></g><g id="_Group_70" data-name="&lt;Group&gt;"><line class="cls-6" x1="544.83" y1="537.15" x2="555.66" y2="536.96"/></g></g><g id="_Group_71" data-name="&lt;Group&gt;"><g id="_Group_72" data-name="&lt;Group&gt;"><g id="_Group_73" data-name="&lt;Group&gt;"><polyline class="cls-6" points="986.79 444.77 934.75 444.77 934.75 368.04 978.18 368.04"/><polygon class="cls-5" points="976.43 374.03 986.79 368.04 976.43 362.06 976.43 374.03"/></g><g id="_Group_74" data-name="&lt;Group&gt;"><line class="cls-6" x1="935.04" y1="432.75" x2="955.71" y2="432.75"/></g><g id="_Group_75" data-name="&lt;Group&gt;"><line class="cls-6" x1="965.96" y1="432.75" x2="986.02" y2="432.75"/></g><g id="_Group_76" data-name="&lt;Group&gt;"><line class="cls-6" x1="986.79" y1="420.1" x2="986.79" y2="438.87"/></g><g id="_Group_77" data-name="&lt;Group&gt;"><circle class="cls-6" cx="960.77" cy="432.79" r="4.5"/></g><g id="_Group_78" data-name="&lt;Group&gt;"><line class="cls-6" x1="986.79" y1="420.1" x2="986.79" y2="443.99"/></g><g id="_Group_79" data-name="&lt;Group&gt;"><line class="cls-6" x1="986.79" y1="421.7" x2="986.79" y2="446.29"/></g><g id="_Group_80" data-name="&lt;Group&gt;"><line class="cls-6" x1="986.79" y1="421.7" x2="986.79" y2="446.41"/></g><g id="_Group_81" data-name="&lt;Group&gt;"><line class="cls-6" x1="986.79" y1="421.65" x2="986.79" y2="446.36"/></g></g><g id="_Group_82" data-name="&lt;Group&gt;"><path class="cls-6" d="M998.28,402.26v9.1a4.45,4.45,0,0,1-4.46,4.45H961.58a4.46,4.46,0,0,1-4.46-4.45V384.6a4.46,4.46,0,0,1,4.46-4.45h32.24a4.45,4.45,0,0,1,4.46,4.45v7.18"/></g><g id="_Group_83" data-name="&lt;Group&gt;"><rect class="cls-6" x="988.03" y="392.32" width="14.7" height="9.18" rx="1.13" ry="1.13"/></g></g><g id="_Group_84" data-name="&lt;Group&gt;"><g id="_Group_85" data-name="&lt;Group&gt;"><polyline class="cls-7" points="961.12 516.96 961.12 563.53 935.39 554.23 935.39 521.43"/></g><g id="_Group_86" data-name="&lt;Group&gt;"><polygon class="cls-7" points="961.12 515.84 954.02 528.1 929.14 520.35 936.57 508.45 961.12 515.84"/></g><g id="_Group_87" data-name="&lt;Group&gt;"><polygon class="cls-7" points="961.12 515.84 968.22 528.1 993.18 520.6 985.76 508.7 961.12 515.84"/></g><g id="_Group_88" data-name="&lt;Group&gt;"><polyline class="cls-7" points="982.77 544.87 982.78 572.63 961.38 563.85 961.38 537.7 982.77 544.87 1003.98 537.89 1004.14 564.74 982.78 572.63"/></g><g id="_Group_89" data-name="&lt;Group&gt;"><line class="cls-7" x1="986.85" y1="522.51" x2="986.85" y2="532.66"/></g></g><polygon class="cls-6" points="108.28 73.25 98.67 102.09 66.97 102.09 57.35 73.25 108.28 73.25"/><line class="cls-6" x1="62.16" y1="87.67" x2="103.08" y2="87.67"/><polyline class="cls-6" points="57.35 73.25 53.86 63.44 50.15 63.44"/><polygon class="cls-5" points="51.9 57.46 41.54 63.44 51.9 69.43 51.9 57.46"/><polyline class="cls-6" points="66.97 102.09 70.54 111.77 96.13 111.77"/><circle class="cls-6" cx="96.38" cy="116.32" r="4.5"/><circle class="cls-6" cx="72.72" cy="116.62" r="4.5"/><line class="cls-6" x1="73.05" y1="73.25" x2="78.93" y2="102.09"/><line class="cls-6" x1="93.14" y1="73.25" x2="87.69" y2="102.09"/><polygon class="cls-6" points="998.22 263.61 988.6 292.45 956.9 292.45 947.29 263.61 998.22 263.61"/><line class="cls-6" x1="952.1" y1="278.03" x2="993.01" y2="278.03"/><polyline class="cls-6" points="947.29 263.61 943.79 253.8 940.09 253.8"/><polygon class="cls-5" points="941.84 247.82 931.47 253.8 941.84 259.79 941.84 247.82"/><polyline class="cls-6" points="956.9 292.45 960.47 302.13 986.06 302.13"/><circle class="cls-6" cx="986.32" cy="306.68" r="4.5"/><circle class="cls-6" cx="962.65" cy="306.68" r="4.5"/><line class="cls-6" x1="962.98" y1="263.61" x2="968.87" y2="292.45"/><line class="cls-6" x1="983.07" y1="263.61" x2="977.63" y2="292.45"/><line class="cls-6" x1="54.8" y1="278.01" x2="64.43" y2="278.01"/><polygon class="cls-5" points="62.68 284 73.04 278.01 62.68 272.03 62.68 284"/><line class="cls-6" x1="91.24" y1="393.75" x2="102.39" y2="393.75"/><line class="cls-6" x1="91.24" y1="408.46" x2="102.39" y2="408.46"/><g id="_Group_90" data-name="&lt;Group&gt;"><ellipse id="_Ellipse_6" data-name="&lt;Ellipse&gt;" class="cls-6" cx="86.75" cy="523.32" rx="16.86" ry="17.26"/><ellipse id="_Ellipse_7" data-name="&lt;Ellipse&gt;" class="cls-6" cx="86.75" cy="523.32" rx="7.73" ry="17.26"/><line id="_Path_10" data-name="&lt;Path&gt;" class="cls-6" x1="69.89" y1="523.32" x2="103.61" y2="523.32"/><path class="cls-6" d="M74.15,534.78s10.27-2.95,25.2,0"/><path class="cls-6" d="M74.15,512s10.27,2.94,25.2,0"/></g><line class="cls-6" x1="63.65" y1="691.18" x2="63.65" y2="709.07"/><polyline class="cls-6" points="510.8 130.9 489.74 130.9 489.74 96.01"/><polygon class="cls-5" points="495.73 97.76 489.74 87.4 483.76 97.76 495.73 97.76"/><polygon class="cls-6" points="518.95 262.29 518.78 275.13 543.14 294.69 555.8 278.92 531.45 259.37 518.95 262.29"/><line class="cls-6" x1="533.85" y1="253.82" x2="533.85" y2="241.06"/><line class="cls-6" x1="531.47" y1="386.87" x2="525.63" y2="415.54"/><circle class="cls-6" cx="518.63" cy="396.91" r="4.5"/><circle class="cls-6" cx="538.34" cy="405.31" r="4.5"/><polyline class="cls-7" points="1002.96 537.89 982.42 531.02 961.38 537.7"/><polyline class="cls-7" points="936.57 508.45 962.95 501.65 985.76 508.7"/><line class="cls-7" x1="937.77" y1="574.64" x2="937.47" y2="564.21"/><line class="cls-7" x1="965.74" y1="579.72" x2="942.56" y2="579.72"/><polygon class="cls-5" points="963.99 573.74 974.35 579.72 963.99 585.7 963.99 573.74"/><path class="cls-6" d="M952.25,111.25l12,6.6a4.65,4.65,0,0,0,6.28-1.75h0a4.65,4.65,0,0,0-1.82-6.42L950.83,100l-11.4,2.27H933.6"/><path class="cls-6" d="M964.25,117.85l11.25,6.06,22-13a5,5,0,0,1,6.66,1.52h0a5,5,0,0,1-1.46,7L974,137.68l-32.47-15.4H933.6"/><polyline class="cls-6" points="991.32 67 991.32 94.97 954.74 94.97 954.74 58.39 974.29 58.39"/><polygon class="cls-5" points="985.34 68.75 991.32 58.39 997.3 68.75 985.34 68.75"/><line class="cls-6" x1="973.03" y1="67.22" x2="973.03" y2="86.16"/><line class="cls-6" x1="963.56" y1="76.69" x2="982.49" y2="76.69"/><circle class="cls-6" cx="978.65" cy="58.52" r="4.5"/><circle class="cls-7" cx="938.07" cy="579.72" r="4.5"/></g></svg>