<svg xmlns="http://www.w3.org/2000/svg" width="350" height="350">
  <style>
    .st14{fill:#92d1ff}.st15{fill:#0f9ffa}.st27{display:inline}.st28{fill:none;stroke:#000;stroke-width:.1397;stroke-miterlimit:10}.st31{fill:#fff}.st32,.st33{fill:none;stroke:#fff;stroke-miterlimit:10}.st32{stroke-linecap:square;stroke-width:1.5}.st33{stroke-width:1.4992}
  </style>
  <g id="Layer_3">
    <path fill="#606060" d="M177.3 0v-8.1h-5V0h5z"/>
    <path d="M321.8 256.9l6 3.4C341.9 235.1 350 206 350 175c0-17.5-2.6-34.5-7.4-50.4-.7-2.5-1.5-4.9-2.4-7.3C316.8 50.1 253.6 1.7 178.9 0h-1.6v7.1h-5V0h-1.1C96.4 1.7 33.2 50.1 9.8 117.2c-.9 2.4-1.6 4.9-2.4 7.4C2.6 140.6 0 157.5 0 175c0 31.1 8.1 60.3 22.3 85.6l5.6-3.2c.8 1.5 1.6 2.9 2.5 4.3l-5.6 3.2C36.3 284 51.4 300.8 69 314.3c2 1.6 4.1 3.1 6.3 4.6 28.3 19.7 62.7 31.2 99.7 31.2 37.1 0 71.4-11.5 99.7-31.2 2.1-1.5 4.2-3 6.2-4.5 17.7-13.5 32.8-30.4 44.3-49.6l-6-3.4c1-1.6 1.8-3 2.6-4.5z" class="st14"/>
    <path d="M342.9 175c0 54.5-26 103-66.2 133.6-2 1.5-4 3-6 4.4-27.2 18.9-60.1 29.9-95.7 29.9s-68.5-11.1-95.7-29.9c-2-1.4-4-2.9-6-4.4C33.1 278 7.1 229.5 7.1 175c0-16.8 2.5-33.1 7.1-48.4.7-2.4 1.5-4.7 2.3-7.1C39 55.2 99.6 8.7 171.3 7.1h7.4c71.7 1.6 132.3 48 154.8 112.4.8 2.3 1.6 4.7 2.3 7 4.6 15.4 7.1 31.7 7.1 48.5z" class="st14"/>
    <path d="M172.3 7.1C80.5 8.5 6.6 83.2 6.6 175.3c0 29.8 7.8 57.8 21.4 82.1l144.3-83.5V7.1zM321.8 256.9c13.5-24.2 21.1-52 21.1-81.7 0-92.1-74-166.8-165.7-168.2v166.7l144.6 83.2zM30.4 261.7c29.4 49 83 81.8 144.3 81.8 61.5 0 115.2-33 144.6-82.2l-144.6-83.1-144.3 83.5z" class="st15"/>
    <path d="M238.2 175c0 20.5-9.8 38.7-24.9 50.3-.7.6-1.5 1.1-2.3 1.6-10.2 7.1-22.6 11.3-36 11.3-13.4 0-25.8-4.2-36-11.3-.8-.5-1.5-1.1-2.3-1.6-15.1-11.5-24.9-29.8-24.9-50.3 0-6.3.9-12.4 2.7-18.2l.9-2.7c8.5-24.2 31.3-41.7 58.2-42.3h2.8c27 .6 49.8 18.1 58.2 42.3l.9 2.7c1.7 5.8 2.7 11.9 2.7 18.2z" class="st14"/>
  </g>
  <g id="Layer_1">
    <g id="XMLID_133_">
      <path id="XMLID_140_" d="M81.4 114.4V125" class="st32"/>
      <path id="XMLID_139_" d="M72.1 125h18.6" class="st32"/>
      <g id="XMLID_137_">
        <path d="M106.5 81.2v33.2H56.4v-38h38.1" class="st32"/>
        <path d="M103.5 82.1l3-5.2 3 5.2z" class="st31"/>
      </g>
      <ellipse id="XMLID_136_" cx="97.5" cy="76.4" class="st32" rx="2.3" ry="2.3"/>
      <path id="XMLID_134_" fill="none" stroke="#fff" stroke-dasharray="5" stroke-linecap="square" stroke-miterlimit="10" stroke-width="1.5" d="M56.7 106.3h20.2V87.2h29.6"/>
    </g>
    <g id="XMLID_109_">
      <path id="XMLID_130_" d="M169.2 290.9v10.6" class="st32"/>
      <path id="XMLID_126_" d="M159.9 301.5h18.6" class="st32"/>
      <g id="XMLID_123_">
        <path d="M194.3 257.1v33.8h-50.1v-38.1h39.3" class="st32"/>
        <path d="M191.3 257.9l3-5.1 3 5.1z" class="st31"/>
      </g>
      <ellipse id="XMLID_116_" cx="186.5" cy="252.8" class="st32" rx="2.3" ry="2.3"/>
      <path id="XMLID_111_" d="M144.5 282.8h49.8" class="st32"/>
    </g>
    <path d="M54.1 137c.5-.1 1.3-.2 2.1-.2 1.1 0 1.9.2 2.4.6.4.4.7.9.7 1.5 0 1-.7 1.7-1.4 1.9.5.2.9.7 1.1 1.5.2 1 .4 1.8.6 2.1h-1.4c-.1-.2-.3-.9-.5-1.8-.2-1-.6-1.3-1.4-1.3h-.7v3.2h-1.4V137zm1.4 3.4h.8c.9 0 1.5-.5 1.5-1.3s-.6-1.2-1.5-1.2c-.4 0-.7 0-.9.1v2.4zM63.8 144.6l-.1-.6c-.3.4-.9.7-1.6.7-1.1 0-1.7-.8-1.7-1.7 0-1.4 1.2-2.1 3.3-2.1v-.1c0-.4-.1-1-1.1-1-.5 0-1.1.2-1.5.4l-.3-.9c.4-.3 1.1-.5 2-.5 1.8 0 2.3 1.1 2.3 2.3v2c0 .5 0 1 .1 1.3h-1.4zm-.2-2.7c-1 0-1.9.2-1.9 1 0 .5.4.8.8.8.6 0 1-.4 1.1-.8v-1zM68 137.5v1.6h1.3v1H68v2.4c0 .7.2 1 .7 1 .2 0 .4 0 .5-.1v1.1c-.2.1-.6.1-1 .1-.5 0-.9-.2-1.2-.5-.3-.3-.4-.8-.4-1.5V140h-.8v-1h.8v-1.3l1.4-.2zM71.9 137.5c0 .4-.3.8-.8.8s-.8-.3-.8-.8c0-.4.3-.8.8-.8.5.1.8.4.8.8zm-1.5 7.1v-5.5h1.4v5.5h-1.4zM78.6 141.8c0 2-1.4 2.9-2.8 2.9-1.6 0-2.8-1.1-2.8-2.9 0-1.8 1.2-2.9 2.9-2.9 1.6 0 2.7 1.2 2.7 2.9zm-4.2 0c0 1.1.5 1.9 1.4 1.9.8 0 1.4-.8 1.4-1.9 0-.9-.4-1.9-1.3-1.9-1.1.1-1.5 1-1.5 1.9zM79.7 140.7V139h1.2l.1.8c.2-.4.8-1 1.8-1s2 .6 2 2.4v3.3h-1.4v-3.1c0-.8-.3-1.4-1.1-1.4-.6 0-.9.4-1.1.8 0 .1-.1.3-.1.5v3.3h-1.4v-3.9zM89.4 144.6l-.1-.6c-.3.4-.9.7-1.6.7-1.1 0-1.7-.8-1.7-1.7 0-1.4 1.2-2.1 3.3-2.1v-.1c0-.4-.1-1-1.1-1-.5 0-1.1.2-1.5.4l-.3-.9c.4-.3 1.1-.5 2-.5 1.8 0 2.3 1.1 2.3 2.3v2c0 .5 0 1 .1 1.3h-1.4zm-.2-2.7c-1 0-1.9.2-1.9 1 0 .5.4.8.8.8.6 0 1-.4 1.1-.8v-1zM92 136.5h1.4v8.1H92v-8.1zM96.4 137.5c0 .4-.3.8-.8.8s-.8-.3-.8-.8c0-.4.3-.8.8-.8.5.1.8.4.8.8zm-1.4 7.1v-5.5h1.4v5.5H95zM97.3 143.8l2.1-2.7c.3-.3.5-.6.8-.9h-2.7v-1.1h4.4v.9l-2 2.6c-.3.3-.5.6-.8.9h2.9v1.1h-4.7v-.8zM103.9 142.2c0 1 .8 1.4 1.7 1.4.6 0 1.1-.1 1.5-.3l.2 1c-.5.2-1.1.3-1.9.3-1.8 0-2.9-1.1-2.9-2.8 0-1.5.9-3 2.7-3 1.8 0 2.4 1.5 2.4 2.7v.6h-3.7zm2.4-.9c0-.5-.2-1.4-1.1-1.4-.9 0-1.2.8-1.3 1.4h2.4zM60.8 155c.3.2.9.4 1.4.4.6 0 .9-.3.9-.6 0-.4-.2-.6-.9-.8-1.1-.4-1.5-1-1.5-1.6 0-1 .8-1.7 2.1-1.7.6 0 1.1.2 1.5.3l-.3 1c-.2-.1-.7-.3-1.2-.3s-.8.2-.8.6c0 .4.3.5 1 .8 1 .4 1.5.9 1.5 1.7 0 1-.8 1.7-2.3 1.7-.7 0-1.3-.2-1.7-.4l.3-1.1zM65.6 148.2H67v3.3c.2-.3.4-.5.7-.6.3-.2.6-.3 1-.3.9 0 1.9.6 1.9 2.4v3.3h-1.4v-3.1c0-.8-.3-1.4-1.1-1.4-.5 0-.9.4-1.1.8 0 .1-.1.3-.1.4v3.3h-1.4v-8.1zM73.6 149.2c0 .4-.3.8-.8.8s-.8-.3-.8-.8c0-.4.3-.8.8-.8s.8.4.8.8zm-1.5 7.1v-5.5h1.4v5.5h-1.4zM75.1 152.6v-1.8h1.2l.1.9c.4-.6 1.1-1 1.9-1 1.3 0 2.3 1.1 2.3 2.8 0 2-1.3 3-2.5 3-.7 0-1.3-.3-1.6-.7v2.9h-1.4v-6.1zm1.4 1.4v.4c.1.6.6 1 1.2 1 .9 0 1.4-.7 1.4-1.8 0-1-.5-1.8-1.4-1.8-.6 0-1.1.4-1.3 1 0 .1-.1.2-.1.4v.8zM81.7 152.6v-1.8h1.2l.1.9c.4-.6 1.1-1 1.9-1 1.3 0 2.3 1.1 2.3 2.8 0 2-1.3 3-2.5 3-.7 0-1.3-.3-1.6-.7v2.9h-1.4v-6.1zm1.4 1.4v.4c.1.6.6 1 1.2 1 .9 0 1.4-.7 1.4-1.8 0-1-.5-1.8-1.4-1.8-.6 0-1.1.4-1.3 1 0 .1-.1.2-.1.4v.8zM89.9 149.2c0 .4-.3.8-.8.8s-.8-.3-.8-.8c0-.4.3-.8.8-.8s.8.4.8.8zm-1.5 7.1v-5.5h1.4v5.5h-1.4zM91.3 152.4v-1.7h1.2l.1.8c.2-.4.8-1 1.8-1s2 .6 2 2.4v3.3H95v-3.1c0-.8-.3-1.4-1.1-1.4-.6 0-.9.4-1.1.8 0 .1-.1.3-.1.5v3.3h-1.4v-3.9zM102.9 150.7v4.7c0 1.2-.2 2-.8 2.5-.6.5-1.4.7-2.1.7-.7 0-1.5-.1-1.9-.4l.3-1.1c.4.2.9.4 1.6.4.9 0 1.6-.5 1.6-1.7v-.5c-.3.5-.9.8-1.6.8-1.4 0-2.4-1.1-2.4-2.7 0-1.8 1.2-2.9 2.5-2.9.8 0 1.3.4 1.6.9l.1-.7h1.1zm-1.5 2.3v-.4c-.1-.5-.5-.9-1.1-.9-.8 0-1.4.7-1.4 1.8 0 .9.5 1.7 1.4 1.7.5 0 1-.3 1.1-.8 0-.1.1-.3.1-.5v-.9z" class="st31"/>
    <g>
      <path d="M132.4 314l-.7 2.2h-1.4l2.5-7.7h1.8l2.5 7.7h-1.5l-.7-2.2h-2.5zm2.2-1.1l-.6-1.9c-.1-.5-.3-1-.4-1.4-.1.4-.2 1-.4 1.4l-.6 1.9h2zM138 308h1.4v8.1H138V308zM142.5 309c0 .4-.3.8-.8.8s-.8-.3-.8-.8c0-.4.3-.8.8-.8.4.1.7.4.8.8zm-1.5 7.1v-5.5h1.4v5.5H141zM148.9 310.6v4.7c0 1.2-.2 2-.8 2.5-.6.5-1.4.7-2.1.7-.7 0-1.5-.1-1.9-.4l.3-1.1c.4.2.9.4 1.6.4.9 0 1.6-.5 1.6-1.7v-.5c-.3.5-.9.8-1.6.8-1.4 0-2.4-1.1-2.4-2.7 0-1.8 1.2-2.9 2.5-2.9.8 0 1.3.4 1.6.9l.1-.7h1.1zm-1.4 2.2v-.4c-.1-.5-.5-.9-1.1-.9-.8 0-1.4.7-1.4 1.8 0 .9.5 1.7 1.4 1.7.5 0 1-.3 1.1-.8 0-.1.1-.3.1-.5v-.9zM150.4 312.2v-1.7h1.2l.1.8c.2-.4.8-1 1.8-1s2 .6 2 2.4v3.3H154v-3c0-.8-.3-1.4-1.1-1.4-.6 0-.9.4-1.1.8 0 .1-.1.3-.1.5v3.3h-1.4v-4zM159.2 314.8c.3.2.9.4 1.4.4.6 0 .9-.3.9-.6 0-.4-.2-.6-.9-.8-1.1-.4-1.5-1-1.5-1.6 0-1 .8-1.7 2.1-1.7.6 0 1.1.2 1.5.3l-.3 1c-.2-.1-.7-.3-1.2-.3s-.8.2-.8.6c0 .4.3.5 1 .8 1 .4 1.5.9 1.5 1.7 0 1-.8 1.7-2.3 1.7-.7 0-1.3-.2-1.7-.4l.3-1.1zM167.1 316.1l-.1-.6c-.3.4-.9.7-1.6.7-1.1 0-1.7-.8-1.7-1.7 0-1.4 1.2-2.1 3.3-2.1v-.1c0-.4-.1-1-1.1-1-.5 0-1.1.2-1.5.4l-.4-.7c.4-.3 1.1-.5 2-.5 1.8 0 2.3 1.1 2.3 2.3v2c0 .5 0 1 .1 1.3h-1.3zm-.2-2.7c-1 0-1.9.2-1.9 1 0 .5.4.8.8.8.6 0 1-.4 1.1-.8v-1zM169.8 308h1.4v8.1h-1.4V308zM173.7 313.8c0 1 .8 1.4 1.7 1.4.6 0 1.1-.1 1.5-.3l.2 1c-.5.2-1.1.3-1.9.3-1.8 0-2.9-1.1-2.9-2.8 0-1.5.9-3 2.7-3 1.8 0 2.4 1.5 2.4 2.7v.6h-3.7zm2.4-1c0-.5-.2-1.4-1.1-1.4-.9 0-1.2.8-1.3 1.4h2.4zM178.5 314.8c.3.2.9.4 1.4.4.6 0 .9-.3.9-.6 0-.4-.2-.6-.9-.8-1.1-.4-1.5-1-1.5-1.6 0-1 .8-1.7 2.1-1.7.6 0 1.1.2 1.5.3l-.3 1c-.2-.1-.7-.3-1.2-.3s-.8.2-.8.6c0 .4.3.5 1 .8 1 .4 1.5.9 1.5 1.7 0 1-.8 1.7-2.3 1.7-.7 0-1.3-.2-1.7-.4l.3-1.1zM186.5 310.6l.6 2.5c.1.6.3 1.2.4 1.8.1-.6.3-1.2.5-1.8l.7-2.5h1.1l.7 2.5c.2.6.3 1.3.4 1.9.1-.6.2-1.2.4-1.9l.6-2.5h1.4l-1.7 5.5h-1.3l-.7-2.3c-.2-.6-.3-1.1-.4-1.8-.1.7-.3 1.2-.4 1.8l-.7 2.3h-1.3l-1.6-5.5h1.3zM195.7 309c0 .4-.3.8-.8.8s-.8-.3-.8-.8c0-.4.3-.8.8-.8.5.1.8.4.8.8zm-1.5 7.1v-5.5h1.4v5.5h-1.4zM198.7 309v1.6h1.3v1h-1.3v2.4c0 .7.2 1 .7 1 .2 0 .4 0 .5-.1v1.1c-.2.1-.6.1-1 .1-.5 0-.9-.2-1.2-.5-.3-.3-.4-.8-.4-1.5v-2.6h-.8v-1h.8v-1.3l1.4-.2zM201.1 308h1.4v3.3c.2-.3.4-.5.7-.6.3-.2.6-.3 1-.3.9 0 1.9.6 1.9 2.4v3.3h-1.4V313c0-.8-.3-1.4-1.1-1.4-.5 0-.9.4-1.1.8 0 .1-.1.3-.1.4v3.3H201V308zM149.1 325c0 2-1.4 2.9-2.8 2.9-1.6 0-2.8-1.1-2.8-2.9 0-1.8 1.2-2.9 2.9-2.9 1.6 0 2.7 1.2 2.7 2.9zm-4.2 0c0 1.1.5 1.9 1.4 1.9.8 0 1.4-.8 1.4-1.9 0-.9-.4-1.9-1.3-1.9-1.1.1-1.5 1-1.5 1.9zM150.2 324.1v-1.8h1.2l.1.9c.4-.6 1.1-1 1.9-1 1.3 0 2.3 1.1 2.3 2.8 0 2-1.3 3-2.5 3-.7 0-1.3-.3-1.6-.7v2.9h-1.4v-6.1zm1.4 1.4v.4c.1.6.6 1 1.2 1 .9 0 1.4-.7 1.4-1.8 0-1-.5-1.8-1.4-1.8-.6 0-1.1.4-1.3 1 0 .1-.1.2-.1.4v.8zM157.9 325.4c0 1 .8 1.4 1.7 1.4.6 0 1.1-.1 1.5-.3l.2 1c-.5.2-1.1.3-1.9.3-1.8 0-2.9-1.1-2.9-2.8 0-1.5.9-3 2.7-3 1.8 0 2.4 1.5 2.4 2.7v.6h-3.7zm2.4-.9c0-.5-.2-1.4-1.1-1.4-.9 0-1.2.8-1.3 1.4h2.4zM162.8 324.1v-1.8h1.2v1.1c.3-.8.9-1.2 1.5-1.2h.3v1.3h-.4c-.7 0-1.1.4-1.3 1.1v3.3h-1.4v-3.8zM169.8 327.8l-.1-.6c-.3.4-.9.7-1.6.7-1.1 0-1.7-.8-1.7-1.7 0-1.4 1.2-2.1 3.3-2.1v-.1c0-.4-.1-1-1.1-1-.5 0-1.1.2-1.5.4l-.3-.9c.4-.3 1.1-.5 2-.5 1.8 0 2.3 1.1 2.3 2.3v2c0 .5 0 1 .1 1.3h-1.4zm-.2-2.7c-1 0-1.9.2-1.9 1 0 .5.4.8.8.8.6 0 1-.4 1.1-.8v-1zM174 320.7v1.6h1.3v1H174v2.4c0 .7.2 1 .7 1 .2 0 .4 0 .5-.1v1.1c-.2.1-.6.1-1 .1-.5 0-.9-.2-1.2-.5-.3-.3-.4-.8-.4-1.5v-2.6h-.8v-1h.8V321l1.4-.3zM177.9 320.7c0 .4-.3.8-.8.8s-.8-.3-.8-.8c0-.4.3-.8.8-.8.5.1.8.4.8.8zm-1.5 7.1v-5.5h1.4v5.5h-1.4zM184.6 325c0 2-1.4 2.9-2.8 2.9-1.6 0-2.8-1.1-2.8-2.9 0-1.8 1.2-2.9 2.9-2.9 1.6 0 2.7 1.2 2.7 2.9zm-4.2 0c0 1.1.5 1.9 1.4 1.9.8 0 1.4-.8 1.4-1.9 0-.9-.4-1.9-1.3-1.9-1.1.1-1.5 1-1.5 1.9zM185.8 323.9v-1.7h1.2l.1.8c.2-.4.8-1 1.8-1s2 .6 2 2.4v3.3h-1.4v-3.1c0-.8-.3-1.4-1.1-1.4-.6 0-.9.4-1.1.8 0 .1-.1.3-.1.5v3.3h-1.4v-3.9zM192.2 326.5c.3.2.9.4 1.4.4.6 0 .9-.3.9-.6 0-.4-.2-.6-.9-.8-1.1-.4-1.5-1-1.5-1.6 0-1 .8-1.7 2.1-1.7.6 0 1.1.2 1.5.3l-.3 1c-.2-.1-.7-.3-1.2-.3s-.8.2-.8.6c0 .4.3.5 1 .8 1 .4 1.5.9 1.5 1.7 0 1-.8 1.7-2.3 1.7-.7 0-1.3-.2-1.7-.4l.3-1.1z" class="st31"/>
    </g>
    <g>
      <path d="M249.7 144.9c.5.3 1.1.5 1.9.5.9 0 1.4-.4 1.4-1s-.4-.9-1.4-1.3c-1.3-.5-2.1-1.1-2.1-2.2 0-1.3 1-2.2 2.7-2.2.8 0 1.4.2 1.8.4l-.3 1.1c-.3-.1-.8-.4-1.5-.4-.9 0-1.3.5-1.3.9 0 .6.4.9 1.5 1.3 1.3.5 2 1.2 2 2.3 0 1.2-.9 2.3-2.9 2.3-.8 0-1.7-.2-2.1-.5l.3-1.2zM256.6 144c0 1 .8 1.4 1.7 1.4.6 0 1.1-.1 1.5-.3l.2 1c-.5.2-1.1.3-1.9.3-1.8 0-2.9-1.1-2.9-2.8 0-1.5.9-3 2.7-3 1.8 0 2.4 1.5 2.4 2.7v.6h-3.7zm2.4-.9c0-.5-.2-1.4-1.1-1.4-.9 0-1.2.8-1.3 1.4h2.4zM261.5 142.5v-1.7h1.2l.1.8c.2-.4.8-1 1.8-1s2 .6 2 2.4v3.3h-1.4v-3.1c0-.8-.3-1.4-1.1-1.4-.6 0-.9.4-1.1.8 0 .1-.1.3-.1.5v3.3h-1.4v-3.9zM267.9 145.1c.3.2.9.4 1.4.4.6 0 .9-.3.9-.6 0-.4-.2-.6-.9-.8-1.1-.4-1.5-1-1.5-1.6 0-1 .8-1.7 2.1-1.7.6 0 1.1.2 1.5.3l-.3 1c-.2-.1-.7-.3-1.2-.3s-.8.2-.8.6c0 .4.3.5 1 .8 1 .4 1.5.9 1.5 1.7 0 1-.8 1.7-2.3 1.7-.7 0-1.3-.2-1.7-.4l.3-1.1zM273.8 144c0 1 .8 1.4 1.7 1.4.6 0 1.1-.1 1.5-.3l.2 1c-.5.2-1.1.3-1.9.3-1.8 0-2.9-1.1-2.9-2.8 0-1.5.9-3 2.7-3 1.8 0 2.4 1.5 2.4 2.7v.6h-3.7zm2.4-.9c0-.5-.2-1.4-1.1-1.4-.9 0-1.2.8-1.3 1.4h2.4zM284.1 146.4l-.1-.6c-.3.4-.9.7-1.6.7-1.1 0-1.7-.8-1.7-1.7 0-1.4 1.2-2.1 3.3-2.1v-.1c0-.4-.1-1-1.1-1-.5 0-1.1.2-1.5.4l-.3-.9c.4-.3 1.1-.5 2-.5 1.8 0 2.3 1.1 2.3 2.3v2c0 .5 0 1 .1 1.3h-1.4zm-.2-2.7c-1 0-1.9.2-1.9 1 0 .5.4.8.8.8.6 0 1-.4 1.1-.8v-1zM286.8 142.5v-1.7h1.2l.1.8c.2-.4.8-1 1.8-1s2 .6 2 2.4v3.3h-1.4v-3.1c0-.8-.3-1.4-1.1-1.4-.6 0-.9.4-1.1.8 0 .1-.1.3-.1.5v3.3h-1.4v-3.9zM298.4 138.3v8.1h-1.3l-.1-.9c-.3.6-1 1-1.8 1-1.3 0-2.4-1.1-2.4-2.8 0-1.9 1.2-3 2.5-3 .8 0 1.3.3 1.6.7v-3.1h1.5zm-1.4 4.9v-.4c-.1-.5-.6-1-1.2-1-.9 0-1.4.8-1.4 1.8s.5 1.8 1.4 1.8c.6 0 1.1-.4 1.2-1V143.2zM248 154.3v-1.8h1.2v1.1c.3-.8.9-1.2 1.5-1.2h.3v1.3h-.4c-.7 0-1.1.4-1.3 1.1v3.3H248v-3.8zM253 155.7c0 1 .8 1.4 1.7 1.4.6 0 1.1-.1 1.5-.3l.2 1c-.5.2-1.1.3-1.9.3-1.8 0-2.9-1.1-2.9-2.8 0-1.5.9-3 2.7-3 1.8 0 2.4 1.5 2.4 2.7v.6H253zm2.4-1c0-.5-.2-1.4-1.2-1.4-.9 0-1.2.8-1.3 1.4h2.5zM257.8 156.8c.3.2.9.4 1.4.4.6 0 .9-.3.9-.6 0-.4-.2-.6-.9-.8-1.1-.4-1.5-1-1.5-1.6 0-1 .8-1.7 2.1-1.7.6 0 1.1.2 1.5.3l-.3 1c-.2-.1-.7-.3-1.2-.3s-.8.2-.8.6c0 .4.3.5 1 .8 1 .4 1.5.9 1.5 1.7 0 1-.8 1.7-2.3 1.7-.7 0-1.3-.2-1.7-.4l.3-1.1zM262.6 154.4v-1.8h1.2l.1.9c.4-.6 1.1-1 1.9-1 1.3 0 2.3 1.1 2.3 2.8 0 2-1.3 3-2.5 3-.7 0-1.3-.3-1.6-.7v2.9h-1.4v-6.1zm1.4 1.4v.4c.1.6.6 1 1.2 1 .9 0 1.4-.7 1.4-1.8 0-1-.5-1.8-1.4-1.8-.6 0-1.1.4-1.3 1 0 .1-.1.2-.1.4v.8zM274.5 155.3c0 2-1.4 2.9-2.8 2.9-1.6 0-2.8-1.1-2.8-2.9 0-1.8 1.2-2.9 2.9-2.9 1.6 0 2.7 1.2 2.7 2.9zm-4.1 0c0 1.1.5 1.9 1.4 1.9.8 0 1.4-.8 1.4-1.9 0-.9-.4-1.9-1.3-1.9-1.1 0-1.5 1-1.5 1.9zM275.7 154.2v-1.7h1.2l.1.8c.2-.4.8-1 1.8-1s2 .6 2 2.4v3.3h-1.4v-3c0-.8-.3-1.4-1.1-1.4-.6 0-.9.4-1.1.8 0 .1-.1.3-.1.5v3.3h-1.4v-4zM287.3 150v8.1H286l-.1-.9c-.3.6-1 1-1.8 1-1.3 0-2.4-1.1-2.4-2.8 0-1.9 1.1-3 2.5-3 .8 0 1.3.3 1.6.7V150h1.5zm-1.4 4.9v-.4c-.1-.5-.6-1-1.2-1-.9 0-1.4.8-1.4 1.8s.5 1.8 1.4 1.8c.6 0 1.1-.4 1.2-1V154.9zM292.8 151v1.6h1.3v1h-1.3v2.4c0 .7.2 1 .7 1 .2 0 .4 0 .5-.1v1.1c-.2.1-.6.1-1 .1-.5 0-.9-.2-1.2-.5-.3-.3-.4-.8-.4-1.5v-2.6h-.8v-1h.8v-1.3l1.4-.2zM300.4 155.3c0 2-1.4 2.9-2.8 2.9-1.6 0-2.8-1.1-2.8-2.9 0-1.8 1.2-2.9 2.9-2.9 1.6 0 2.7 1.2 2.7 2.9zm-4.2 0c0 1.1.5 1.9 1.4 1.9.8 0 1.4-.8 1.4-1.9 0-.9-.4-1.9-1.3-1.9-1.1 0-1.5 1-1.5 1.9zM260.5 161.7v8.1h-1.3l-.1-.9c-.3.6-1 1-1.8 1-1.3 0-2.4-1.1-2.4-2.8 0-1.9 1.1-3 2.5-3 .8 0 1.3.3 1.6.7v-3.1h1.5zm-1.4 4.8v-.4c-.1-.5-.6-1-1.2-1-.9 0-1.4.8-1.4 1.8s.5 1.8 1.4 1.8c.6 0 1.1-.4 1.2-1V166.5zM263 167.4c0 1 .8 1.4 1.7 1.4.6 0 1.1-.1 1.5-.3l.2 1c-.5.2-1.1.3-1.9.3-1.8 0-2.9-1.1-2.9-2.8 0-1.5.9-3 2.7-3 1.8 0 2.4 1.5 2.4 2.7v.6H263zm2.5-1c0-.5-.2-1.4-1.1-1.4-.9 0-1.2.8-1.3 1.4h2.4zM267.9 165.9v-1.7h1.2l.1.8c.3-.4.8-.9 1.7-.9.7 0 1.3.4 1.5 1 .2-.3.4-.5.7-.7.3-.2.7-.3 1.1-.3.9 0 1.9.6 1.9 2.4v3.3h-1.4v-3.1c0-.9-.3-1.5-1-1.5-.5 0-.8.3-1 .7 0 .1-.1.3-.1.5v3.3h-1.4v-3.2c0-.8-.3-1.3-1-1.3-.5 0-.9.4-1 .8-.1.1-.1.3-.1.5v3.3h-1.4v-3.9zM280.7 169.8l-.1-.6c-.3.4-.9.7-1.6.7-1.1 0-1.7-.8-1.7-1.7 0-1.4 1.2-2.1 3.3-2.1v-.1c0-.4-.1-1-1.1-1-.5 0-1.1.2-1.5.4l-.3-.9c.4-.3 1.1-.5 2-.5 1.8 0 2.3 1.1 2.3 2.3v2c0 .5 0 1 .1 1.3h-1.4zm-.2-2.7c-1 0-1.9.2-1.9 1 0 .5.4.8.8.8.6 0 1-.4 1.1-.8v-1zM283.4 165.9v-1.7h1.2l.1.8c.2-.4.8-1 1.8-1s2 .6 2 2.4v3.3H287v-3.1c0-.8-.3-1.4-1.1-1.4-.6 0-.9.4-1.1.8 0 .1-.1.3-.1.5v3.3h-1.4v-3.9zM295 161.7v8.1h-1.3l-.1-.9c-.3.6-1 1-1.8 1-1.3 0-2.4-1.1-2.4-2.8 0-1.9 1.1-3 2.5-3 .8 0 1.3.3 1.6.7v-3.1h1.5zm-1.4 4.8v-.4c-.1-.5-.6-1-1.2-1-.9 0-1.4.8-1.4 1.8s.5 1.8 1.4 1.8c.6 0 1.1-.4 1.2-1V166.5z" class="st31"/>
    </g>
    <path fill="none" stroke="#fcfcfc" stroke-miterlimit="10" stroke-width="1.5" d="M294.2 88c1.6 0 2.9-1.3 2.9-2.9 0-1.6-1.3-2.9-2.9-2.9h-.1c.1-.4.1-.8.1-1.3 0-3.9-3.1-7-7-7-2 0-3.8.9-5.1 2.2-.6-.3-1.2-.4-1.8-.4-2.3 0-4.2 1.9-4.2 4.2 0 .9.3 1.7.7 2.3-.2-.1-.4-.1-.7-.1-1.6 0-2.9 1.3-2.9 2.9 0 1.6 1.3 2.9 2.9 2.9h18.1z"/>
    <g>
      <path d="M262.1 107.3l6.5-6.5 3.4 2.9 7.3-8.3" class="st33"/>
      <path d="M280.9 98l1.2-5.8-5.7 1.9z" class="st31"/>
    </g>
    <path d="M174.7 260.6h11.7v14.1h-11.7zM151.4 264h16.5M151.4 272.1h16.5" class="st32"/>
    <circle cx="91.4" cy="98.4" r="2.4" class="st32"/>
    <path d="M96.7 98.4c0 2.9-5.3 10.7-5.3 10.7s-5.3-7.8-5.3-10.7 2.4-5.3 5.3-5.3 5.3 2.3 5.3 5.3z" class="st32"/>
    <g>
      <path d="M288.4 95.9v30.5h-31.7V77.5h13.8" class="st33"/>
      <path d="M285.4 96.8l3-5.2 3 5.2z" class="st31"/>
    </g>
    <circle cx="272.5" cy="119.5" r="2.3" class="st33"/>
    <path d="M256.7 119.5h13.1M275.3 119.5h13.1" class="st33"/>
  </g>
</svg>
