<?xml version="1.0" encoding="utf-8"?>
<!-- Generator: Adobe Illustrator 25.0.1, SVG Export Plug-In . SVG Version: 6.00 Build 0)  -->
<svg version="1.1" id="Layer_1" xmlns="http://www.w3.org/2000/svg" xmlns:xlink="http://www.w3.org/1999/xlink" x="0px" y="0px"
	 viewBox="0 0 250 100" style="enable-background:new 0 0 250 100;" xml:space="preserve">
<style type="text/css">
	.st0{fill:#93D7F6;}
	.st1{fill:#FFFFFF;}
	.st2{fill:#619ED5;}
	.st3{fill:#6198D1;}
	.st4{fill:#6394CE;}
	.st5{fill:#6369B0;}
	.st6{fill:#595EAA;}
	.st7{fill:#515AA7;}
	.st8{fill:#5F8FCA;}
	.st9{fill:#81B2E0;}
	.st10{fill:#6091CC;}
	.st11{fill:#74A8DA;}
	.st12{fill:#5057A6;}
	.st13{fill:#4F56A5;}
	.st14{fill:#4E54A4;}
	.st15{fill:#232258;}
</style>
<path class="st0" d="M59.34,89.29v8.47c0,0.17,0.04,0.3,0.11,0.39c0.08,0.09,0.21,0.16,0.41,0.21v0.26h-3.49v-0.26
	c0.2-0.05,0.33-0.13,0.41-0.21c0.08-0.09,0.12-0.22,0.12-0.39v-8.47h-3.47c-0.16,0-0.29,0.04-0.38,0.11
	c-0.09,0.07-0.16,0.21-0.21,0.41h-0.26v-2.89h0.26c0.06,0.2,0.13,0.34,0.22,0.41c0.09,0.08,0.21,0.11,0.37,0.11h9.37
	c0.17,0,0.3-0.04,0.38-0.11c0.09-0.07,0.16-0.21,0.21-0.41h0.26v2.89H63.4c-0.05-0.2-0.13-0.34-0.21-0.41
	c-0.09-0.08-0.22-0.11-0.38-0.11H59.34z"/>
<path class="st0" d="M67.73,93.71v3.06h7.19c0.16,0,0.29-0.04,0.38-0.11c0.09-0.08,0.16-0.21,0.21-0.41h0.26v2.89h-0.26
	c-0.05-0.2-0.13-0.33-0.21-0.41c-0.09-0.08-0.21-0.12-0.38-0.12H64.77v-0.26c0.2-0.05,0.33-0.13,0.41-0.21
	c0.08-0.09,0.12-0.22,0.12-0.39v-9.45c0-0.17-0.04-0.3-0.12-0.39c-0.08-0.09-0.21-0.16-0.41-0.21v-0.26h9.95
	c0.16,0,0.29-0.04,0.38-0.12c0.09-0.08,0.16-0.21,0.21-0.41h0.26v2.89h-0.26c-0.05-0.19-0.12-0.33-0.21-0.41
	c-0.09-0.08-0.21-0.12-0.38-0.12h-6.99v2.65h4.53c0.16,0,0.29-0.04,0.38-0.11c0.09-0.08,0.16-0.21,0.21-0.41h0.26v2.82h-0.26
	c-0.05-0.19-0.13-0.33-0.21-0.41c-0.09-0.08-0.21-0.12-0.38-0.12H67.73z"/>
<path class="st0" d="M88.34,94.78l1.55,2.33l-0.21,0.15c-0.15-0.14-0.28-0.21-0.38-0.21c-0.1,0-0.37,0.13-0.83,0.39
	c-0.94,0.54-1.73,0.91-2.37,1.1c-0.64,0.19-1.4,0.28-2.29,0.28c-1.76,0-3.21-0.42-4.34-1.25c-0.67-0.48-1.19-1.09-1.57-1.81
	c-0.44-0.82-0.66-1.73-0.66-2.73c0-1.35,0.4-2.53,1.19-3.53c1.19-1.5,2.99-2.25,5.39-2.25c0.88,0,1.64,0.09,2.28,0.28
	c0.63,0.19,1.42,0.55,2.37,1.1c0.45,0.25,0.73,0.38,0.83,0.38c0.1,0,0.22-0.07,0.38-0.21l0.21,0.15l-1.55,2.33l-0.22-0.15
	c0.01-0.09,0.02-0.16,0.02-0.22c0-0.16-0.07-0.31-0.2-0.44c-0.14-0.14-0.38-0.31-0.73-0.5c-0.97-0.54-1.99-0.81-3.07-0.81
	c-1.28,0-2.29,0.32-3.05,0.96c-0.89,0.75-1.34,1.72-1.34,2.93c0,1.2,0.45,2.18,1.34,2.93c0.76,0.64,1.78,0.96,3.05,0.96
	c1.08,0,2.1-0.27,3.07-0.82c0.35-0.2,0.59-0.37,0.73-0.5c0.14-0.14,0.2-0.29,0.2-0.45c0-0.06-0.01-0.13-0.02-0.21L88.34,94.78z"/>
<path class="st0" d="M100.97,93.74h-6.44v4.03c0,0.16,0.04,0.29,0.12,0.38c0.08,0.09,0.21,0.16,0.41,0.21v0.26h-3.49v-0.26
	c0.2-0.05,0.33-0.13,0.41-0.21c0.08-0.09,0.12-0.21,0.12-0.38V88.3c0-0.16-0.04-0.29-0.12-0.38c-0.08-0.09-0.21-0.16-0.41-0.21
	v-0.26h3.49v0.26c-0.2,0.05-0.33,0.12-0.41,0.21c-0.08,0.09-0.12,0.22-0.12,0.38v3.6h6.44v-3.6c0-0.16-0.04-0.29-0.11-0.38
	c-0.08-0.09-0.21-0.16-0.41-0.21v-0.26h3.49v0.26c-0.2,0.05-0.33,0.12-0.41,0.21c-0.08,0.09-0.12,0.21-0.12,0.38v9.47
	c0,0.16,0.04,0.29,0.12,0.38c0.08,0.09,0.21,0.16,0.41,0.21v0.26h-3.49v-0.26c0.19-0.05,0.33-0.12,0.41-0.21
	c0.08-0.09,0.12-0.22,0.12-0.38V93.74z"/>
<path class="st0" d="M108.71,90.96v6.79c0,0.17,0.04,0.3,0.12,0.39c0.08,0.09,0.21,0.16,0.41,0.21v0.26h-3.28v-0.26
	c0.2-0.05,0.33-0.13,0.41-0.21c0.08-0.09,0.11-0.22,0.11-0.39V88.3c0-0.16-0.04-0.29-0.11-0.38c-0.08-0.09-0.21-0.16-0.41-0.21
	v-0.26h3.8v0.26c-0.23,0.06-0.35,0.19-0.35,0.38c0,0.13,0.08,0.28,0.23,0.43l6.16,6.41V88.3c0-0.16-0.04-0.29-0.11-0.38
	c-0.08-0.09-0.21-0.16-0.41-0.21v-0.26h3.28v0.26c-0.2,0.05-0.33,0.12-0.41,0.21c-0.08,0.09-0.11,0.21-0.11,0.38v9.46
	c0,0.17,0.04,0.3,0.11,0.39c0.08,0.09,0.21,0.16,0.41,0.21v0.26h-3.52v-0.26c0.23-0.05,0.34-0.17,0.34-0.35
	c0-0.11-0.13-0.3-0.4-0.57L108.71,90.96z"/>
<path class="st0" d="M126.7,87.25c1.95,0,3.49,0.53,4.64,1.58c1.21,1.1,1.81,2.53,1.81,4.27c0,1.07-0.29,2.07-0.87,2.99
	c-1.13,1.81-2.98,2.72-5.56,2.72c-1.93,0-3.47-0.53-4.61-1.58c-0.61-0.56-1.08-1.24-1.39-2.02c-0.28-0.69-0.42-1.42-0.42-2.19
	c0-1.12,0.29-2.14,0.86-3.07C122.25,88.18,124.1,87.28,126.7,87.25z M126.71,89.15c-1.07,0-1.95,0.32-2.66,0.95
	c-0.84,0.75-1.26,1.72-1.26,2.93c0,1.21,0.42,2.19,1.26,2.93c0.71,0.63,1.6,0.95,2.68,0.95c1.08,0,1.97-0.32,2.67-0.95
	c0.42-0.38,0.74-0.84,0.97-1.38c0.2-0.48,0.3-0.99,0.3-1.5c0-1.26-0.42-2.26-1.26-2.98C128.68,89.47,127.78,89.16,126.71,89.15z"/>
<path class="st1" d="M145.29,88.39l-1.33,2.63l-0.23-0.13c0.01-0.05,0.01-0.1,0.01-0.13c0-0.19-0.16-0.39-0.48-0.6
	c-0.97-0.68-2.11-1.01-3.42-1.01c-0.58,0-1.09,0.07-1.53,0.21c-0.32,0.11-0.58,0.27-0.78,0.49c-0.2,0.22-0.3,0.45-0.3,0.71
	c0,0.42,0.25,0.71,0.76,0.86c0.26,0.08,0.82,0.16,1.69,0.25l1.29,0.13c0.76,0.08,1.38,0.19,1.85,0.33c0.47,0.14,0.89,0.34,1.26,0.6
	c0.37,0.27,0.66,0.62,0.88,1.06c0.21,0.43,0.32,0.9,0.32,1.4c0,0.79-0.25,1.48-0.76,2.09c-0.46,0.55-1.17,0.97-2.14,1.24
	c-0.72,0.2-1.49,0.3-2.32,0.3c-1.48,0-2.94-0.35-4.38-1.06c-0.3-0.14-0.49-0.21-0.55-0.21c-0.07,0-0.18,0.06-0.34,0.18l-0.24-0.12
	l1.21-2.74l0.24,0.11c0,0.05,0,0.08,0,0.11c0,0.24,0.12,0.47,0.35,0.68c0.36,0.32,0.9,0.59,1.65,0.82c0.74,0.23,1.45,0.34,2.11,0.34
	c0.73,0,1.35-0.12,1.86-0.37c0.28-0.14,0.51-0.32,0.68-0.54c0.17-0.23,0.25-0.46,0.25-0.71c0-0.37-0.2-0.63-0.6-0.79
	c-0.28-0.11-0.84-0.21-1.69-0.3l-1.26-0.13c-0.85-0.09-1.44-0.17-1.79-0.25c-0.35-0.08-0.7-0.21-1.05-0.38
	c-0.5-0.24-0.89-0.61-1.17-1.11c-0.26-0.44-0.38-0.95-0.38-1.52c0-0.94,0.33-1.72,0.97-2.34c0.85-0.81,2.13-1.22,3.83-1.22
	c0.71,0,1.38,0.07,2,0.22c0.62,0.15,1.39,0.41,2.31,0.8c0.32,0.12,0.51,0.19,0.58,0.19c0.11,0,0.25-0.06,0.4-0.19L145.29,88.39z"/>
<path class="st1" d="M155.15,95.77h-5.08l-0.75,1.57c-0.1,0.22-0.16,0.39-0.16,0.52c0,0.24,0.18,0.41,0.55,0.5v0.26h-3.69v-0.26
	c0.22-0.04,0.38-0.12,0.5-0.23c0.11-0.11,0.24-0.32,0.39-0.64l4.11-8.59c0.13-0.27,0.2-0.49,0.2-0.65c0-0.25-0.16-0.43-0.47-0.54
	v-0.26h3.96v0.26c-0.32,0.09-0.48,0.25-0.48,0.48c0,0.16,0.05,0.34,0.16,0.54l4.26,8.61c0.18,0.37,0.34,0.62,0.47,0.75
	c0.14,0.13,0.32,0.22,0.55,0.27v0.26h-4.11v-0.26c0.36-0.06,0.54-0.23,0.54-0.51c0-0.11-0.05-0.28-0.16-0.51L155.15,95.77z
	 M154.45,94.24l-1.81-3.98l-1.84,3.98H154.45z"/>
<path class="st1" d="M166.13,95.37l2.96-6.56c0.13-0.28,0.19-0.49,0.19-0.65c0-0.23-0.18-0.39-0.54-0.46v-0.26h3.82v0.26
	c-0.24,0.03-0.41,0.1-0.5,0.2c-0.09,0.1-0.26,0.4-0.48,0.9l-3.87,8.36c-0.16,0.35-0.25,0.59-0.25,0.7c0,0.28,0.17,0.44,0.52,0.49
	v0.26h-3.85v-0.26c0.34-0.05,0.52-0.22,0.52-0.5c0-0.1-0.08-0.33-0.25-0.69l-3.87-8.36c-0.23-0.5-0.39-0.8-0.48-0.9
	c-0.09-0.1-0.26-0.17-0.5-0.2v-0.26h3.97v0.26c-0.36,0.07-0.54,0.22-0.54,0.46c0,0.15,0.06,0.37,0.19,0.65L166.13,95.37z"/>
<path class="st1" d="M179.03,95.37l2.96-6.56c0.13-0.28,0.19-0.49,0.19-0.65c0-0.23-0.18-0.39-0.54-0.46v-0.26h3.83v0.26
	c-0.24,0.03-0.41,0.1-0.5,0.2c-0.09,0.1-0.25,0.4-0.48,0.9l-3.87,8.36c-0.17,0.35-0.25,0.59-0.25,0.7c0,0.28,0.17,0.44,0.52,0.49
	v0.26h-3.85v-0.26c0.34-0.05,0.52-0.22,0.52-0.5c0-0.1-0.08-0.33-0.25-0.69l-3.87-8.36c-0.23-0.5-0.39-0.8-0.48-0.9
	c-0.09-0.1-0.26-0.17-0.5-0.2v-0.26h3.97v0.26c-0.36,0.07-0.54,0.22-0.54,0.46c0,0.15,0.06,0.37,0.19,0.65L179.03,95.37z"/>
<path class="st1" d="M192.61,93.94v3.82c0,0.17,0.04,0.3,0.12,0.39c0.08,0.09,0.21,0.16,0.41,0.21v0.26h-3.5v-0.26
	c0.2-0.05,0.33-0.13,0.42-0.21c0.08-0.09,0.12-0.22,0.12-0.39v-3.82l-3.61-5.08c-0.31-0.43-0.56-0.73-0.73-0.88
	c-0.18-0.15-0.39-0.24-0.63-0.27v-0.26h4.41v0.26c-0.37,0.06-0.55,0.23-0.55,0.51c0,0.1,0.11,0.31,0.34,0.64l2.01,2.99l2.07-2.99
	c0.22-0.32,0.34-0.54,0.34-0.65c0-0.13-0.05-0.23-0.15-0.32c-0.1-0.09-0.23-0.15-0.4-0.18v-0.26h4.32v0.26
	c-0.24,0.03-0.46,0.12-0.63,0.27c-0.18,0.15-0.42,0.44-0.73,0.88L192.61,93.94z"/>
<polygon class="st2" points="125.79,14.96 125.79,7.71 119.75,11.34 "/>
<polygon class="st3" points="119.07,14.09 119.07,25.51 128.59,19.8 "/>
<polygon class="st4" points="108.73,6.76 108.73,14.58 115.24,10.67 "/>
<polygon class="st5" points="128.48,31.36 128.48,19.85 118.89,25.6 "/>
<polygon class="st3" points="119.07,25.6 119.07,37.11 128.66,31.36 "/>
<polygon class="st5" points="128.48,42.87 128.48,31.36 118.89,37.11 "/>
<polygon class="st3" points="119.07,37.11 119.07,48.62 128.66,42.87 "/>
<polygon class="st5" points="128.48,54.32 128.48,42.81 118.89,48.57 "/>
<polygon class="st3" points="119.07,48.57 119.07,60.07 128.66,54.32 "/>
<polygon class="st5" points="128.48,65.83 128.48,54.32 118.89,60.07 "/>
<polygon class="st3" points="119.07,60.07 119.07,71.58 128.66,65.83 "/>
<polygon class="st5" points="128.48,77.34 128.48,65.83 118.89,71.58 "/>
<polygon class="st6" points="128.48,8.7 128.48,16.51 134.98,12.61 "/>
<polygon class="st4" points="112.89,4.66 112.89,0.32 109.28,2.49 "/>
<polygon class="st2" points="117.46,3.4 117.46,8.03 121.33,5.71 "/>
<polygon class="st7" points="138.02,25.6 138.02,14.09 128.43,19.85 "/>
<polygon class="st6" points="128.48,19.85 128.48,31.36 138.06,25.6 "/>
<polygon class="st7" points="138.02,37.11 138.02,25.6 128.43,31.36 "/>
<polygon class="st6" points="128.48,31.36 128.48,42.87 138.06,37.11 "/>
<polygon class="st7" points="138.02,48.57 138.02,37.06 128.43,42.81 "/>
<polygon class="st6" points="128.48,42.81 128.48,54.32 138.06,48.57 "/>
<polygon class="st7" points="138.02,60.07 138.02,48.57 128.43,54.32 "/>
<polygon class="st6" points="128.48,54.32 128.48,65.83 138.06,60.07 "/>
<polygon class="st7" points="138.02,71.58 138.02,60.07 128.43,65.83 "/>
<polygon class="st6" points="128.48,65.83 128.48,77.34 138.06,71.58 "/>
<polygon class="st8" points="107.12,27.8 107.12,18.99 99.79,23.4 "/>
<polygon class="st4" points="98.38,6.26 98.38,1.4 94.34,3.83 "/>
<polygon class="st4" points="99.59,26.34 99.59,34.22 106.16,30.28 "/>
<polygon class="st9" points="109.54,42.87 109.54,31.36 99.95,37.11 "/>
<polygon class="st9" points="109.54,54.32 109.54,42.81 99.95,48.57 "/>
<polygon class="st0" points="99.73,48.57 99.73,60.07 109.31,54.32 "/>
<polygon class="st0" points="99.73,37.11 99.73,48.57 109.31,42.87 "/>
<polygon class="st9" points="109.54,65.83 109.54,54.32 99.95,60.07 "/>
<polygon class="st10" points="116.65,22.07 116.65,13.21 109.28,17.64 "/>
<polygon class="st4" points="109.54,19.85 109.54,31.36 119.12,25.6 "/>
<polygon class="st4" points="100.8,7.31 100.8,13.81 106.22,10.56 "/>
<polygon class="st4" points="95.16,15.68 95.16,21.08 99.66,18.38 "/>
<polygon class="st11" points="119.07,37.11 119.07,25.6 109.49,31.36 "/>
<polygon class="st4" points="109.54,31.36 109.54,42.87 119.12,37.11 "/>
<polygon class="st11" points="119.07,48.57 119.07,37.06 109.49,42.81 "/>
<polygon class="st4" points="109.54,42.81 109.54,54.32 119.12,48.57 "/>
<polygon class="st11" points="119.07,60.07 119.07,48.57 109.49,54.32 "/>
<polygon class="st4" points="109.54,54.32 109.54,65.83 119.12,60.07 "/>
<polygon class="st11" points="119.07,71.58 119.07,60.07 109.49,65.83 "/>
<polygon class="st7" points="138.02,14.09 138.02,25.6 147.6,19.85 "/>
<polygon class="st12" points="147.82,31.36 147.82,19.85 138.24,25.6 "/>
<polygon class="st7" points="138.02,25.6 138.02,37.11 147.6,31.36 "/>
<polygon class="st12" points="147.82,42.87 147.82,31.36 138.24,37.11 "/>
<polygon class="st7" points="138.02,37.11 138.02,48.62 147.6,42.87 "/>
<polygon class="st12" points="147.82,54.32 147.82,42.81 138.24,48.57 "/>
<polygon class="st7" points="138.02,48.57 138.02,60.07 147.6,54.32 "/>
<polygon class="st12" points="147.82,65.83 147.82,54.32 138.24,60.07 "/>
<polygon class="st7" points="138.02,60.07 138.02,71.58 147.6,65.83 "/>
<polygon class="st13" points="147.82,19.85 147.82,31.36 157.41,25.6 "/>
<polygon class="st14" points="157.36,37.11 157.36,25.6 147.77,31.36 "/>
<polygon class="st13" points="147.82,31.36 147.82,42.87 157.41,37.11 "/>
<polygon class="st14" points="157.36,48.57 157.36,37.06 147.77,42.81 "/>
<polygon class="st13" points="147.82,42.81 147.82,54.32 157.41,48.57 "/>
<polygon class="st14" points="157.36,60.07 157.36,48.57 147.77,54.32 "/>
<polygon class="st13" points="147.82,54.32 147.82,65.83 157.41,60.07 "/>
<g>
	<path class="st15" d="M145.02,54.32c0-3.03-1.68-4.98-5.29-6.14c-0.68-0.22-1.32-0.4-1.94-0.57c-1.29-0.34-2.41-0.64-3.25-1.24
		c-0.48-0.34-0.75-0.92-0.75-1.6c0-1.44,1.07-2.34,2.8-2.34c1.82,0,3.38,0.87,4.77,2.66l0.41,0.53l2.7-2.7l-0.35-0.41
		c-2.03-2.39-4.54-3.55-7.68-3.55c-3.93,0-6.67,2.5-6.67,6.09c0,2.92,1.85,4.96,5.5,6.07c0.57,0.17,1.1,0.32,1.6,0.47
		c3.1,0.88,4.18,1.28,4.18,3.05c0,0.98-0.43,1.75-1.19,2.23v3.77C143.02,59.82,145.02,57.49,145.02,54.32z"/>
	<path class="st15" d="M116.5,53.7c0,4.86,2.56,7.59,6.51,7.43c1.37-0.04,2.83-0.19,2.83-0.19l-0.04-4.11
		c-0.67,0.35-1.76,0.39-2.47,0.39c-1.41,0-2.36-1.66-2.36-3.52l0.01-3.04c-1.5-1.08-3.07-1.59-4.48-1.81V53.7z"/>
	<path class="st15" d="M121.01,33.8h-4.51v6.81c1.64,0.11,3.13,0.42,4.5,0.88L121.01,33.8z"/>
</g>
<path class="st15" d="M137.78,57.06c-0.1,0.02-0.2,0.03-0.3,0.04c-2.64,0.19-4.27-0.8-6.95-4.93c-2.73-4.2-8.15-10.95-18.42-9.28
	v4.04c0,0,7.97-2.09,13.13,5.13c3.69,5.17,6.72,9.55,12.54,9.02V57.06z"/>
<g>
	<path class="st1" d="M144.09,53.32c0-3.03-1.68-4.98-5.29-6.14c-0.68-0.22-1.32-0.4-1.94-0.56c-1.29-0.35-2.41-0.64-3.25-1.25
		c-0.48-0.34-0.75-0.92-0.75-1.6c0-1.44,1.07-2.34,2.8-2.34c1.82,0,3.38,0.87,4.77,2.66l0.41,0.52l2.7-2.7l-0.35-0.41
		c-2.03-2.39-4.54-3.55-7.68-3.55c-3.93,0-6.67,2.5-6.67,6.09c0,2.92,1.85,4.96,5.5,6.07c0.57,0.17,1.1,0.32,1.6,0.47
		c3.1,0.88,4.18,1.28,4.18,3.05c0,0.98-0.43,1.75-1.19,2.23v3.77C142.09,58.81,144.09,56.48,144.09,53.32z"/>
	<path class="st1" d="M115.57,52.69c0,4.86,2.56,7.59,6.51,7.43c1.37-0.04,2.83-0.19,2.83-0.19l-0.04-4.11
		c-0.67,0.35-1.76,0.39-2.47,0.39c-1.41,0-2.36-1.66-2.36-3.52l0.01-3.05c-1.5-1.08-3.07-1.59-4.48-1.8V52.69z"/>
	<path class="st1" d="M120.08,32.79h-4.51v6.81c1.64,0.11,3.13,0.42,4.5,0.88L120.08,32.79z"/>
</g>
<path class="st1" d="M136.84,56.05c-0.1,0.02-0.2,0.03-0.3,0.04c-2.64,0.19-4.27-0.8-6.95-4.93c-2.73-4.2-8.15-10.95-18.42-9.28
	v4.04c0,0,7.97-2.1,13.13,5.13c3.69,5.16,6.72,9.55,12.54,9.02V56.05z"/>
</svg>
